500 0 5 0           
7 Unknown 11 ACIS 5.0 NT 24 Thu Mar 25 21:07:54 1999 
-1 9.9999999999999995e-007 1e-010 
body $-1 $5 $-1 $6 #
body $-1 $7 $-1 $8 #
body $-1 $9 $-1 $10 #
body $-1 $11 $-1 $12 #
body $-1 $13 $-1 $14 #
lump $-1 $-1 $15 $0 #
transform $-1 1 0 0 0 1 0 0 0 1 76.465956602679526 45.382744768800606 16.583046347416712 1 rotate no_reflect no_shear #
lump $-1 $-1 $16 $1 #
transform $-1 1 0 0 0 1 0 0 0 1 76.465956602679526 45.382744768800606 16.583046347416712 1 rotate no_reflect no_shear #
lump $-1 $-1 $17 $2 #
transform $-1 1 0 0 0 1 0 0 0 1 76.465956602679526 45.382744768800606 16.583046347416712 1 rotate no_reflect no_shear #
lump $-1 $-1 $18 $3 #
transform $-1 1 0 0 0 1 0 0 0 1 76.465956602679526 45.382744768800606 16.583046347416712 1 rotate no_reflect no_shear #
lump $-1 $-1 $19 $4 #
transform $-1 1 0 0 0 1 0 0 0 1 76.465956602679526 45.382744768800606 16.583046347416712 1 rotate no_reflect no_shear #
shell $-1 $-1 $-1 $20 $-1 $5 #
shell $-1 $-1 $-1 $21 $-1 $7 #
shell $-1 $-1 $-1 $22 $-1 $9 #
shell $-1 $-1 $-1 $23 $-1 $11 #
shell $-1 $-1 $-1 $24 $-1 $13 #
face $-1 $25 $26 $15 $-1 $27 forward single #
face $-1 $28 $29 $16 $-1 $30 forward single #
face $-1 $31 $32 $17 $-1 $33 reversed single #
face $-1 $34 $35 $18 $-1 $36 forward single #
face $-1 $37 $38 $19 $-1 $39 forward single #
face $-1 $40 $41 $15 $-1 $42 reversed single #
loop $-1 $-1 $43 $20 #
plane-surface $-1 0 0 16.583046347416712 0 0 1 1 0 0 forward_v I I I I #
face $-1 $44 $45 $16 $-1 $46 reversed single #
loop $-1 $-1 $47 $21 #
plane-surface $-1 -68.15872946070553 0 -10.087585467551161 0 0 1 1 0 0 forward_v I I I I #
face $-1 $48 $49 $17 $-1 $50 reversed single #
loop $-1 $-1 $51 $22 #
plane-surface $-1 -4.5063844694390554 -160.80192605427052 111.79920962054919 1 0 0 0 0.75470958851134928 -0.65605901945558964 forward_v I I I I #
face $-1 $52 $53 $18 $-1 $54 forward single #
loop $-1 $55 $56 $23 #
cone-surface $-1 0.50048247609116459 -41.201015319216815 12.32287705939963 0 0.75470958851134928 -0.65605901945558964 1.5 0 0 1 I I 0 1 1.5 forward I I I I #
face $-1 $57 $58 $19 $-1 $59 forward single #
loop $-1 $60 $61 $24 #
cone-surface $-1 8.0107828943864803 -41.201015319216815 12.32287705939963 0 0.75470958851134928 -0.65605901945558964 1.5 0 0 1 I I 0 1 1.5 forward I I I I #
face $-1 $62 $63 $15 $-1 $64 reversed single #
loop $-1 $-1 $65 $25 #
plane-surface $-1 0 0 -16.583046347416712 0 0 1 1 0 0 forward_v I I I I #
coedge $-1 $66 $67 $68 $69 forward $26 $-1 #
face $-1 $70 $71 $16 $-1 $72 reversed single #
loop $-1 $-1 $73 $28 #
plane-surface $-1 -59.851502318731534 0 -13.335315907483936 -1 0 0 0 0 1 forward_v I I I I #
coedge $-1 $74 $75 $76 $77 forward $29 $-1 #
face $-1 $78 $79 $17 $-1 $80 reversed single #
loop $-1 $-1 $81 $31 #
plane-surface $-1 4.2556326852388224 -45.382744768800606 11.466848599573993 0 -0.75470958851134928 0.65605901945558964 1 0 0 forward_v I I I I #
coedge $-1 $82 $83 $84 $85 reversed $32 $-1 #
face $-1 $-1 $86 $18 $-1 $87 forward single #
loop $-1 $88 $89 $34 #
cone-surface $-1 0.50048247609116459 -38.67697504663127 10.128762380712214 0 0.75470958851134928 -0.65605901945558964 0.75 0 0 1 I I -0.70710678118654757 0.70710678118654757 0.75 forward I I I I #
loop $-1 $-1 $90 $23 #
coedge $-1 $56 $56 $91 $92 reversed $35 $-1 #
face $-1 $-1 $93 $19 $-1 $94 forward single #
loop $-1 $95 $96 $37 #
cone-surface $-1 8.0107828943864803 -38.67697504663127 10.128762380712214 0 0.75470958851134928 -0.65605901945558964 0.75 0 0 1 I I -0.70710678118654757 0.70710678118654757 0.75 forward I I I I #
loop $-1 $-1 $97 $24 #
coedge $-1 $61 $61 $98 $99 reversed $38 $-1 #
face $-1 $100 $101 $15 $-1 $102 reversed single #
loop $-1 $-1 $103 $40 #
plane-surface $-1 0 -45.382744768800606 0 0 1 0 0 0 1 forward_v I I I I #
coedge $-1 $104 $105 $106 $107 forward $41 $-1 #
coedge $-1 $108 $43 $109 $110 forward $26 $-1 #
coedge $-1 $43 $108 $111 $112 forward $26 $-1 #
coedge $-1 $113 $114 $43 $69 reversed $115 $-1 #
edge $-1 $116 -45.382744768800606 $117 45.382744768800606 $68 $118 forward 7 unknown #
face $-1 $119 $120 $16 $-1 $121 reversed single #
loop $-1 $-1 $122 $44 #
plane-surface $-1 0 0 -16.583046347416712 0 0 1 1 0 0 forward_v I I I I #
coedge $-1 $123 $76 $124 $125 reversed $45 $-1 #
coedge $-1 $126 $47 $127 $128 reversed $29 $-1 #
coedge $-1 $47 $126 $129 $130 reversed $29 $-1 #
coedge $-1 $73 $131 $47 $77 reversed $45 $-1 #
edge $-1 $132 -45.382744768800606 $133 45.382744768800606 $76 $134 forward 7 unknown #
face $-1 $135 $136 $17 $-1 $137 forward single #
loop $-1 $-1 $138 $48 #
plane-surface $-1 13.0176498399167 -160.80192605427052 111.79920962054919 -1 0 0 0 -0.75470958851134928 0.65605901945558964 forward_v I I I I #
coedge $-1 $139 $140 $141 $142 reversed $49 $-1 #
coedge $-1 $83 $51 $143 $144 reversed $32 $-1 #
coedge $-1 $51 $82 $139 $145 reversed $32 $-1 #
coedge $-1 $141 $146 $51 $85 forward $147 $-1 #
edge $-1 $148 39.316558462857884 $149 44.432756210700603 $84 $150 forward 7 unknown #
loop $-1 $-1 $91 $52 #
plane-surface $-1 4.2556326852388224 -45.382744768800606 11.466848599573993 0 -0.75470958851134928 0.65605901945558964 1 0 0 forward_v I I I I #
loop $-1 $-1 $151 $34 #
coedge $-1 $89 $89 $90 $152 reversed $53 $-1 #
coedge $-1 $90 $90 $89 $152 forward $55 $-1 #
coedge $-1 $91 $91 $56 $92 forward $86 $-1 #
edge $-1 $153 8.9375569287538946e-016 $153 6.2831853071796013 $91 $154 forward 7 unknown #
loop $-1 $-1 $98 $57 #
plane-surface $-1 4.2556326852388224 -45.382744768800606 11.466848599573993 0 -0.75470958851134928 0.65605901945558964 1 0 0 forward_v I I I I #
loop $-1 $-1 $155 $37 #
coedge $-1 $96 $96 $97 $156 reversed $58 $-1 #
coedge $-1 $97 $97 $96 $156 forward $60 $-1 #
coedge $-1 $98 $98 $61 $99 forward $93 $-1 #
edge $-1 $157 8.9375569287538946e-016 $157 6.2831853071796013 $98 $158 forward 7 unknown #
face $-1 $159 $160 $15 $-1 $161 reversed single #
loop $-1 $-1 $162 $62 #
plane-surface $-1 -76.465956602679526 0 0 1 0 0 0 0 -1 forward_v I I I I #
coedge $-1 $163 $111 $164 $165 forward $63 $-1 #
coedge $-1 $166 $65 $163 $167 forward $41 $-1 #
coedge $-1 $65 $166 $168 $169 forward $41 $-1 #
coedge $-1 $114 $113 $65 $107 reversed $115 $-1 #
edge $-1 $170 -45.382744768800606 $171 45.382744768800606 $106 $172 forward 7 unknown #
coedge $-1 $67 $66 $173 $174 forward $26 $-1 #
coedge $-1 $175 $176 $66 $110 reversed $160 $-1 #
edge $-1 $117 -76.465956602679526 $177 76.465956602679526 $109 $178 forward 7 unknown #
coedge $-1 $103 $179 $67 $112 reversed $63 $-1 #
edge $-1 $180 -76.465956602679526 $116 76.465956602679526 $111 $181 forward 7 unknown #
coedge $-1 $106 $68 $179 $182 forward $115 $-1 #
coedge $-1 $68 $106 $175 $183 reversed $115 $-1 #
loop $-1 $-1 $113 $159 #
vertex $-1 $69 $184 #
vertex $-1 $69 $185 #
straight-curve $-1 76.465956602679526 0 16.583046347416712 0 1 0 I I #
face $-1 $186 $187 $16 $-1 $188 reversed single #
loop $-1 $-1 $124 $70 #
plane-surface $-1 0 -45.382744768800606 0 0 1 0 0 0 1 forward_v I I I I #
coedge $-1 $189 $190 $123 $191 forward $71 $-1 #
coedge $-1 $131 $73 $122 $191 reversed $45 $-1 #
coedge $-1 $129 $192 $73 $125 forward $120 $-1 #
edge $-1 $193 -9.9153883936747427 $132 -3.4199275138091929 $124 $194 forward 7 unknown #
coedge $-1 $75 $74 $195 $196 reversed $29 $-1 #
coedge $-1 $197 $198 $74 $128 forward $199 $-1 #
edge $-1 $200 -42.386591872326761 $133 -25.772137588378769 $127 $201 forward 7 unknown #
coedge $-1 $202 $124 $75 $130 forward $120 $-1 #
edge $-1 $132 25.772137588378769 $203 42.386591872326761 $129 $204 forward 7 unknown #
coedge $-1 $76 $123 $197 $205 reversed $45 $-1 #
vertex $-1 $130 $206 #
vertex $-1 $128 $207 #
straight-curve $-1 -59.851502318731534 0 -10.087585467551161 0 1 0 I I #
face $-1 $-1 $147 $17 $-1 $208 reversed single #
loop $-1 $-1 $209 $78 #
plane-surface $-1 0 0 16.583046347416712 0 0 1 1 0 0 forward_v I I I I #
coedge $-1 $210 $211 $212 $213 reversed $79 $-1 #
coedge $-1 $214 $81 $83 $145 forward $49 $-1 #
coedge $-1 $81 $214 $210 $215 forward $49 $-1 #
coedge $-1 $212 $84 $81 $142 forward $147 $-1 #
edge $-1 $149 -6.6342008120584666 $216 10.889833497297289 $141 $217 forward 7 unknown #
coedge $-1 $218 $219 $82 $144 forward $136 $-1 #
edge $-1 $220 -39.465660995098183 $148 -35.018218258334656 $143 $221 forward 7 unknown #
edge $-1 $149 0 $220 6.779028417983036 $83 $222 forward 7 unknown #
coedge $-1 $84 $212 $218 $223 reversed $147 $-1 #
loop $-1 $-1 $212 $135 #
vertex $-1 $223 $224 #
vertex $-1 $85 $225 #
straight-curve $-1 -4.5063844694390554 -45.382744768800606 55.899604810274596 0 0 -1 I I #
coedge $-1 $151 $151 $-1 $226 reversed $88 $-1 #
edge $-1 $227 0 $227 6.2831853071796004 $89 $228 forward 7 unknown #
vertex $-1 $92 $229 #
ellipse-curve $-1 0.50048247609116459 -43.159023400418846 14.024947473495351 0 -0.75470958851134928 0.65605901945558964 1.5 0 0 1 I I #
coedge $-1 $155 $155 $-1 $230 reversed $95 $-1 #
edge $-1 $231 0 $231 6.2831853071796004 $96 $232 forward 7 unknown #
vertex $-1 $99 $233 #
ellipse-curve $-1 8.0107828943864803 -43.159023400418846 14.024947473495351 0 -0.75470958851134928 0.65605901945558964 1.5 0 0 1 I I #
face $-1 $-1 $115 $15 $-1 $234 reversed single #
loop $-1 $-1 $175 $100 #
plane-surface $-1 0 45.382744768800606 0 0 -1 0 0 0 -1 forward_v I I I I #
coedge $-1 $235 $173 $176 $236 forward $101 $-1 #
coedge $-1 $179 $103 $104 $167 reversed $63 $-1 #
coedge $-1 $173 $235 $103 $165 reversed $101 $-1 #
edge $-1 $180 -16.583046347416712 $237 16.583046347416712 $164 $238 forward 7 unknown #
coedge $-1 $105 $104 $235 $239 forward $41 $-1 #
edge $-1 $171 -76.465956602679526 $237 76.465956602679526 $163 $240 forward 7 unknown #
coedge $-1 $176 $175 $105 $169 reversed $160 $-1 #
edge $-1 $241 -76.465956602679526 $170 76.465956602679526 $168 $242 forward 7 unknown #
vertex $-1 $107 $243 #
vertex $-1 $182 $244 #
straight-curve $-1 76.465956602679526 0 -16.583046347416712 0 -1 0 I I #
coedge $-1 $162 $164 $108 $174 reversed $101 $-1 #
edge $-1 $177 -45.382744768800606 $180 45.382744768800606 $173 $245 forward 7 unknown #
coedge $-1 $168 $109 $114 $183 forward $160 $-1 #
coedge $-1 $109 $168 $162 $236 reversed $160 $-1 #
vertex $-1 $110 $246 #
straight-curve $-1 0 45.382744768800606 16.583046347416712 -1 0 0 I I #
coedge $-1 $111 $163 $113 $182 reversed $63 $-1 #
vertex $-1 $174 $247 #
straight-curve $-1 0 -45.382744768800606 16.583046347416712 1 0 0 I I #
edge $-1 $116 -16.583046347416712 $171 16.583046347416712 $113 $248 forward 7 unknown #
edge $-1 $117 -16.583046347416712 $170 16.583046347416712 $114 $249 forward 7 unknown #
point $-1 76.465956602679526 -45.382744768800606 16.583046347416712 #
point $-1 76.465956602679526 45.382744768800606 16.583046347416712 #
face $-1 $-1 $199 $16 $-1 $250 reversed single #
loop $-1 $-1 $195 $119 #
plane-surface $-1 -76.465956602679526 0 0 1 0 0 0 0 -1 forward_v I I I I #
coedge $-1 $251 $122 $192 $252 forward $71 $-1 #
coedge $-1 $122 $251 $253 $254 forward $71 $-1 #
edge $-1 $255 -45.382744768800606 $193 45.382744768800606 $122 $256 forward 7 unknown #
coedge $-1 $124 $202 $189 $252 reversed $120 $-1 #
vertex $-1 $252 $257 #
straight-curve $-1 -59.851502318731534 -45.382744768800606 -6.6676579537419682 0 0 1 I I #
coedge $-1 $258 $259 $126 $196 forward $187 $-1 #
edge $-1 $203 -45.382744768800606 $200 45.382744768800606 $195 $260 forward 7 unknown #
coedge $-1 $253 $127 $131 $205 forward $199 $-1 #
coedge $-1 $127 $253 $258 $261 reversed $199 $-1 #
loop $-1 $-1 $197 $186 #
vertex $-1 $261 $262 #
straight-curve $-1 -34.079364730352765 45.382744768800606 -10.087585467551161 1 0 0 I I #
coedge $-1 $192 $129 $259 $263 forward $120 $-1 #
vertex $-1 $263 $264 #
straight-curve $-1 -34.079364730352765 -45.382744768800606 -10.087585467551161 -1 0 0 I I #
edge $-1 $133 3.4199275138091929 $255 9.9153883936747427 $197 $265 forward 7 unknown #
point $-1 -59.851502318731534 -45.382744768800606 -10.087585467551161 #
point $-1 -59.851502318731534 45.382744768800606 -10.087585467551161 #
plane-surface $-1 0 -45.382744768800606 0 0 1 0 0 0 1 forward_v I I I I #
coedge $-1 $219 $218 $211 $266 forward $136 $-1 #
coedge $-1 $211 $138 $140 $215 reversed $79 $-1 #
coedge $-1 $138 $210 $209 $266 reversed $79 $-1 #
coedge $-1 $146 $141 $138 $213 forward $147 $-1 #
edge $-1 $216 -44.432756210700603 $267 -39.316558462857884 $212 $268 forward 7 unknown #
coedge $-1 $140 $139 $219 $269 reversed $49 $-1 #
edge $-1 $270 -6.779028417983036 $216 0 $210 $271 forward 7 unknown #
vertex $-1 $142 $272 #
straight-curve $-1 2.1278163426194112 -45.382744768800606 11.466848599573996 1 0 0 I I #
coedge $-1 $209 $143 $146 $223 forward $136 $-1 #
coedge $-1 $143 $209 $214 $269 forward $136 $-1 #
vertex $-1 $144 $273 #
straight-curve $-1 -4.5063844694390554 -80.400963027135262 16.583046347416712 0 -1 0 I I #
straight-curve $-1 -4.5063844694390554 -45.382744768800606 11.466848599573993 0 0.65605901945558964 0.75470958851134928 I I #
edge $-1 $148 -4.5063844694390554 $267 13.0176498399167 $146 $274 forward 7 unknown #
point $-1 -4.5063844694390554 -45.382744768800606 16.583046347416712 #
point $-1 -4.5063844694390554 -45.382744768800606 11.466848599573993 #
edge $-1 $275 1 $275 0 $151 $-1 forward 7 unknown #
vertex $-1 $152 $276 #
ellipse-curve $-1 0.50048247609116459 -39.243007238014783 10.620806645303906 0 -0.75470958851134928 0.65605901945558964 1.5 0 0 1 I I #
point $-1 2.0004824760911646 -43.159023400418846 14.024947473495352 #
edge $-1 $277 1 $277 0 $155 $-1 forward 7 unknown #
vertex $-1 $156 $278 #
ellipse-curve $-1 8.0107828943864803 -39.243007238014783 10.620806645303906 0 -0.75470958851134928 0.65605901945558964 1.5 0 0 1 I I #
point $-1 9.5107828943864803 -43.159023400418846 14.024947473495352 #
plane-surface $-1 76.465956602679526 0 0 -1 0 0 0 0 1 forward_v I I I I #
coedge $-1 $164 $162 $166 $239 reversed $101 $-1 #
edge $-1 $177 -16.583046347416712 $241 16.583046347416712 $176 $279 forward 7 unknown #
vertex $-1 $239 $280 #
straight-curve $-1 -76.465956602679526 -45.382744768800606 0 0 0 -1 I I #
edge $-1 $237 -45.382744768800606 $241 45.382744768800606 $235 $281 forward 7 unknown #
straight-curve $-1 0 -45.382744768800606 -16.583046347416712 -1 0 0 I I #
vertex $-1 $169 $282 #
straight-curve $-1 0 45.382744768800606 -16.583046347416712 1 0 0 I I #
point $-1 76.465956602679526 45.382744768800606 -16.583046347416712 #
point $-1 76.465956602679526 -45.382744768800606 -16.583046347416712 #
straight-curve $-1 -76.465956602679526 0 16.583046347416712 0 -1 0 I I #
point $-1 -76.465956602679526 45.382744768800606 16.583046347416712 #
point $-1 -76.465956602679526 -45.382744768800606 16.583046347416712 #
straight-curve $-1 76.465956602679526 -45.382744768800606 0 0 0 -1 I I #
straight-curve $-1 76.465956602679526 45.382744768800606 0 0 0 -1 I I #
plane-surface $-1 0 45.382744768800606 0 0 -1 0 0 0 -1 forward_v I I I I #
coedge $-1 $190 $189 $283 $284 forward $71 $-1 #
edge $-1 $193 59.851502318731534 $285 76.465956602679526 $192 $286 forward 7 unknown #
coedge $-1 $198 $197 $190 $254 reversed $199 $-1 #
edge $-1 $287 -76.465956602679526 $255 -59.851502318731534 $253 $288 forward 7 unknown #
vertex $-1 $205 $289 #
straight-curve $-1 -59.851502318731534 0 -16.583046347416712 0 -1 0 I I #
point $-1 -59.851502318731534 -45.382744768800606 -16.583046347416712 #
coedge $-1 $283 $195 $198 $261 forward $187 $-1 #
coedge $-1 $195 $283 $202 $263 reversed $187 $-1 #
straight-curve $-1 -76.465956602679526 0 -10.087585467551161 0 1 0 I I #
edge $-1 $200 10.087585467551161 $287 16.583046347416712 $198 $290 forward 7 unknown #
point $-1 -76.465956602679526 45.382744768800606 -10.087585467551161 #
edge $-1 $203 10.087585467551161 $285 16.583046347416712 $259 $291 forward 7 unknown #
point $-1 -76.465956602679526 -45.382744768800606 -10.087585467551161 #
straight-curve $-1 -59.851502318731534 45.382744768800606 -6.6676579537419682 0 0 -1 I I #
edge $-1 $267 35.018218258334656 $270 39.465660995098183 $209 $292 forward 7 unknown #
vertex $-1 $213 $293 #
straight-curve $-1 13.0176498399167 -45.382744768800606 55.899604810274596 0 0 1 I I #
edge $-1 $270 -10.889833497297289 $220 6.6342008120584666 $219 $294 forward 7 unknown #
vertex $-1 $269 $295 #
straight-curve $-1 13.0176498399167 -45.382744768800606 11.466848599573993 0 -0.65605901945558964 -0.75470958851134928 I I #
point $-1 13.0176498399167 -45.382744768800606 11.466848599573993 #
point $-1 -4.5063844694390554 -40.935302032037079 16.583046347416712 #
straight-curve $-1 0 -45.382744768800606 16.583046347416712 1 0 0 I I #
vertex $-1 $226 $296 #
point $-1 2.0004824760911646 -39.243007238014783 10.620806645303906 #
vertex $-1 $230 $297 #
point $-1 9.5107828943864803 -39.243007238014783 10.620806645303906 #
straight-curve $-1 -76.465956602679526 45.382744768800606 0 0 0 -1 I I #
point $-1 -76.465956602679526 -45.382744768800606 -16.583046347416712 #
straight-curve $-1 -76.465956602679526 0 -16.583046347416712 0 1 0 I I #
point $-1 -76.465956602679526 45.382744768800606 -16.583046347416712 #
coedge $-1 $259 $258 $251 $284 reversed $187 $-1 #
edge $-1 $285 -45.382744768800606 $287 45.382744768800606 $283 $298 forward 7 unknown #
vertex $-1 $284 $299 #
straight-curve $-1 0 -45.382744768800606 -16.583046347416712 -1 0 0 I I #
vertex $-1 $254 $300 #
straight-curve $-1 0 45.382744768800606 -16.583046347416712 1 0 0 I I #
point $-1 -59.851502318731534 45.382744768800606 -16.583046347416712 #
straight-curve $-1 -76.465956602679526 45.382744768800606 0 0 0 -1 I I #
straight-curve $-1 -76.465956602679526 -45.382744768800606 0 0 0 -1 I I #
straight-curve $-1 13.0176498399167 -80.400963027135262 16.583046347416712 0 1 0 I I #
point $-1 13.0176498399167 -45.382744768800606 16.583046347416712 #
straight-curve $-1 2.1278163426194112 -40.935302032037072 16.583046347416712 -1 0 0 I I #
point $-1 13.0176498399167 -40.935302032037079 16.583046347416712 #
point $-1 0.50048247609116459 -38.110942855247757 9.6367181161205213 #
point $-1 8.0107828943864803 -38.110942855247757 9.6367181161205213 #
straight-curve $-1 -76.465956602679526 0 -16.583046347416712 0 1 0 I I #
point $-1 -76.465956602679526 -45.382744768800606 -16.583046347416712 #
point $-1 -76.465956602679526 45.382744768800606 -16.583046347416712 #
End-of-ACIS-data 