500 0 8 0           
7 Unknown 11 ACIS 5.0 NT 24 Thu Mar 25 21:30:20 1999 
-1 9.9999999999999995e-007 1e-010 
body $-1 $8 $-1 $9 #
body $-1 $10 $-1 $11 #
body $-1 $12 $-1 $13 #
body $-1 $14 $-1 $15 #
body $-1 $16 $-1 $17 #
body $-1 $18 $-1 $19 #
body $-1 $20 $-1 $21 #
body $-1 $22 $-1 $23 #
lump $-1 $-1 $24 $0 #
transform $-1 1 0 0 0 1 0 0 0 1 78.137150181585127 53.353220335482312 14.691308362711149 1 rotate no_reflect no_shear #
lump $-1 $-1 $25 $1 #
transform $-1 1 0 0 0 1 0 0 0 1 78.137150181585127 53.353220335482312 14.691308362711149 1 rotate no_reflect no_shear #
lump $-1 $-1 $26 $2 #
transform $-1 1 0 0 0 1 0 0 0 1 78.137150181585127 53.353220335482312 14.691308362711149 1 rotate no_reflect no_shear #
lump $-1 $-1 $27 $3 #
transform $-1 1 0 0 0 1 0 0 0 1 78.137150181585127 53.353220335482312 14.691308362711149 1 rotate no_reflect no_shear #
lump $-1 $-1 $28 $4 #
transform $-1 1 0 0 0 1 0 0 0 1 78.137150181585127 53.353220335482312 14.691308362711149 1 rotate no_reflect no_shear #
lump $-1 $-1 $29 $5 #
transform $-1 1 0 0 0 1 0 0 0 1 78.137150181585127 53.353220335482312 14.691308362711149 1 rotate no_reflect no_shear #
lump $-1 $-1 $30 $6 #
transform $-1 1 0 0 0 1 0 0 0 1 78.137150181585127 53.353220335482312 14.691308362711149 1 rotate no_reflect no_shear #
lump $-1 $-1 $31 $7 #
transform $-1 1 0 0 0 1 0 0 0 1 78.137150181585127 53.353220335482312 14.691308362711149 1 rotate no_reflect no_shear #
shell $-1 $-1 $-1 $32 $-1 $8 #
shell $-1 $-1 $-1 $33 $-1 $10 #
shell $-1 $-1 $-1 $34 $-1 $12 #
shell $-1 $-1 $-1 $35 $-1 $14 #
shell $-1 $-1 $-1 $36 $-1 $16 #
shell $-1 $-1 $-1 $37 $-1 $18 #
shell $-1 $-1 $-1 $38 $-1 $20 #
shell $-1 $-1 $-1 $39 $-1 $22 #
face $-1 $40 $41 $24 $-1 $42 forward single #
face $-1 $43 $44 $25 $-1 $45 forward single #
face $-1 $46 $47 $26 $-1 $48 reversed single #
face $-1 $49 $50 $27 $-1 $51 forward single #
face $-1 $52 $53 $28 $-1 $54 reversed single #
face $-1 $55 $56 $29 $-1 $57 forward single #
face $-1 $58 $59 $30 $-1 $60 forward single #
face $-1 $61 $62 $31 $-1 $63 forward single #
face $-1 $64 $65 $24 $-1 $66 reversed single #
loop $-1 $-1 $67 $32 #
plane-surface $-1 0 0 14.691308362711149 0 0 1 1 0 0 forward_v I I I I #
face $-1 $68 $69 $25 $-1 $70 forward single #
loop $-1 $-1 $71 $33 #
plane-surface $-1 -78.137150181585127 0 0 1 0 0 0 0 -1 forward_v I I I I #
face $-1 $72 $73 $26 $-1 $74 reversed single #
loop $-1 $-1 $75 $34 #
plane-surface $-1 35.082823524444478 81.89188860573455 192.24508981332187 1 0 0 0 -0.68199836817093118 -0.7313536940579346 forward_v I I I I #
face $-1 $76 $77 $27 $-1 $78 forward single #
loop $-1 $79 $80 $35 #
cone-surface $-1 45.081729809134657 46.824140175915787 8.4029782344503587 0 -0.68199836817093118 -0.7313536940579346 1.5 0 0 1 I I 0 1 1.5 forward I I I I #
face $-1 $81 $82 $28 $-1 $83 reversed single #
loop $-1 $-1 $84 $36 #
plane-surface $-1 28.440434290492945 -163.85583912957566 117.26935298022168 -1 0 0 0 -0.70710678939079041 0.70710677298230451 forward_v I I I I #
face $-1 $85 $86 $29 $-1 $87 forward single #
loop $-1 $88 $89 $37 #
cone-surface $-1 6.9946920921000526 -47.698130635217609 9.0362186097828854 0 0.70710678939079041 -0.70710677298230451 2.5 0 0 1 I I 0 1 2.5 forward I I I I #
face $-1 $90 $91 $30 $-1 $92 forward single #
loop $-1 $93 $94 $38 #
cone-surface $-1 15.036845416497385 -47.698130635217609 9.0362186097828854 0 0.70710678939079041 -0.70710677298230451 2.5 0 0 1 I I 0 1 2.5 forward I I I I #
face $-1 $95 $96 $31 $-1 $97 forward single #
loop $-1 $98 $99 $39 #
cone-surface $-1 23.078998740894718 -47.698130635217609 9.0362186097828854 0 0.70710678939079041 -0.70710677298230451 2.5 0 0 1 I I 0 1 2.5 forward I I I I #
face $-1 $100 $101 $24 $-1 $102 reversed single #
loop $-1 $-1 $103 $40 #
plane-surface $-1 0 0 -14.691308362711149 0 0 1 1 0 0 forward_v I I I I #
coedge $-1 $104 $105 $106 $107 forward $41 $-1 #
face $-1 $108 $109 $25 $-1 $110 reversed single #
loop $-1 $-1 $111 $43 #
plane-surface $-1 0 0 14.691308362711149 0 0 1 1 0 0 forward_v I I I I #
coedge $-1 $112 $113 $114 $115 forward $44 $-1 #
face $-1 $116 $117 $26 $-1 $118 reversed single #
loop $-1 $-1 $119 $46 #
plane-surface $-1 45.081729809134657 -24.686929229001521 77.953302956398076 0 0.68199836817093118 0.7313536940579346 1 0 0 forward_v I I I I #
coedge $-1 $120 $121 $122 $123 reversed $47 $-1 #
face $-1 $-1 $124 $27 $-1 $125 forward single #
loop $-1 $126 $127 $49 #
cone-surface $-1 45.081729809134657 44.883545008425536 6.3219447442657337 0 -0.68199836817093118 -0.7313536940579346 0.75 0 0 1 I I -0.70710678118654757 0.70710678118654757 0.75 forward I I I I #
loop $-1 $-1 $128 $35 #
coedge $-1 $80 $80 $129 $130 reversed $50 $-1 #
face $-1 $131 $132 $28 $-1 $133 reversed single #
loop $-1 $-1 $134 $52 #
plane-surface $-1 15.036845416497385 -53.353220335482305 6.7667367503529903 0 -0.70710678939079041 0.70710677298230451 1 0 0 forward_v I I I I #
coedge $-1 $135 $136 $137 $138 reversed $53 $-1 #
face $-1 $-1 $139 $29 $-1 $140 forward single #
loop $-1 $141 $142 $55 #
cone-surface $-1 6.9946920921000526 -45.121443162448244 6.459531196805818 0 0.70710678939079041 -0.70710677298230451 1.25 0 0 1 I I -0.70710678118654746 0.70710678118654746 1.25 forward I I I I #
loop $-1 $-1 $143 $37 #
coedge $-1 $89 $89 $144 $145 reversed $56 $-1 #
face $-1 $-1 $146 $30 $-1 $147 forward single #
loop $-1 $148 $149 $58 #
cone-surface $-1 15.036845416497385 -45.121443162448244 6.459531196805818 0 0.70710678939079041 -0.70710677298230451 1.25 0 0 1 I I -0.70710678118654746 0.70710678118654746 1.25 forward I I I I #
loop $-1 $-1 $150 $38 #
coedge $-1 $94 $94 $151 $152 reversed $59 $-1 #
face $-1 $-1 $153 $31 $-1 $154 forward single #
loop $-1 $155 $156 $61 #
cone-surface $-1 23.078998740894718 -45.121443162448244 6.459531196805818 0 0.70710678939079041 -0.70710677298230451 1.25 0 0 1 I I -0.70710678118654746 0.70710678118654746 1.25 forward I I I I #
loop $-1 $-1 $157 $39 #
coedge $-1 $99 $99 $158 $159 reversed $62 $-1 #
face $-1 $160 $161 $24 $-1 $162 reversed single #
loop $-1 $-1 $163 $64 #
plane-surface $-1 0 -53.353220335482312 0 0 1 0 0 0 1 forward_v I I I I #
coedge $-1 $164 $165 $166 $167 forward $65 $-1 #
coedge $-1 $168 $67 $169 $170 forward $41 $-1 #
coedge $-1 $67 $168 $171 $172 forward $41 $-1 #
coedge $-1 $173 $174 $67 $107 reversed $175 $-1 #
edge $-1 $176 -53.353220335482312 $177 53.353220335482312 $106 $178 forward 7 unknown #
face $-1 $179 $180 $25 $-1 $181 reversed single #
loop $-1 $-1 $182 $68 #
plane-surface $-1 -96.049507838852406 -50.369450444341638 0 1 0 0 0 0 -1 forward_v I I I I #
coedge $-1 $183 $184 $112 $185 forward $69 $-1 #
coedge $-1 $186 $71 $111 $185 reversed $44 $-1 #
coedge $-1 $71 $186 $187 $188 reversed $44 $-1 #
coedge $-1 $189 $190 $71 $115 reversed $180 $-1 #
edge $-1 $191 -14.691308362711149 $192 14.691308362711149 $114 $193 forward 7 unknown #
face $-1 $194 $195 $26 $-1 $196 forward single #
loop $-1 $-1 $197 $72 #
plane-surface $-1 55.080636093824836 81.89188860573455 192.24508981332187 -1 0 0 0 0.68199836817093118 0.7313536940579346 forward_v I I I I #
coedge $-1 $198 $199 $200 $201 reversed $73 $-1 #
coedge $-1 $121 $75 $202 $203 reversed $47 $-1 #
coedge $-1 $75 $120 $198 $204 reversed $47 $-1 #
coedge $-1 $200 $205 $75 $123 forward $195 $-1 #
edge $-1 $206 -12.407276032615037 $207 -2.2073084962061102 $122 $208 forward 7 unknown #
loop $-1 $-1 $129 $76 #
plane-surface $-1 45.081729809134657 -24.686929229001521 77.953302956398076 0 0.68199836817093118 0.7313536940579346 1 0 0 forward_v I I I I #
loop $-1 $-1 $209 $49 #
coedge $-1 $127 $127 $128 $210 reversed $77 $-1 #
coedge $-1 $128 $128 $127 $210 forward $79 $-1 #
coedge $-1 $129 $129 $80 $130 forward $124 $-1 #
edge $-1 $211 -2.6567387200543715e-015 $211 6.2831853071795978 $129 $212 forward 7 unknown #
face $-1 $213 $214 $28 $-1 $215 forward single #
loop $-1 $-1 $216 $81 #
plane-surface $-1 1.6332565425018259 -163.85583912957566 117.26935298022168 1 0 0 0 0.70710678939079041 -0.70710677298230451 forward_v I I I I #
coedge $-1 $217 $218 $219 $220 reversed $82 $-1 #
coedge $-1 $136 $84 $221 $222 reversed $53 $-1 #
coedge $-1 $84 $135 $217 $223 reversed $53 $-1 #
coedge $-1 $219 $224 $84 $138 forward $214 $-1 #
edge $-1 $225 28.574699229305516 $226 36.499270657773181 $137 $227 forward 7 unknown #
loop $-1 $-1 $144 $85 #
plane-surface $-1 15.036845416497385 -53.353220335482305 6.7667367503529903 0 -0.70710678939079041 0.70710677298230451 1 0 0 forward_v I I I I #
loop $-1 $-1 $228 $55 #
coedge $-1 $142 $142 $143 $229 reversed $86 $-1 #
coedge $-1 $143 $143 $142 $229 forward $88 $-1 #
coedge $-1 $144 $144 $89 $145 forward $139 $-1 #
edge $-1 $230 5.0242963924399498e-016 $230 6.2831853071796013 $144 $231 forward 7 unknown #
loop $-1 $-1 $151 $90 #
plane-surface $-1 15.036845416497385 -53.353220335482305 6.7667367503529903 0 -0.70710678939079041 0.70710677298230451 1 0 0 forward_v I I I I #
loop $-1 $-1 $232 $58 #
coedge $-1 $149 $149 $150 $233 reversed $91 $-1 #
coedge $-1 $150 $150 $149 $233 forward $93 $-1 #
coedge $-1 $151 $151 $94 $152 forward $146 $-1 #
edge $-1 $234 5.0242963924399498e-016 $234 6.2831853071796013 $151 $235 forward 7 unknown #
loop $-1 $-1 $158 $95 #
plane-surface $-1 15.036845416497385 -53.353220335482305 6.7667367503529903 0 -0.70710678939079041 0.70710677298230451 1 0 0 forward_v I I I I #
loop $-1 $-1 $236 $61 #
coedge $-1 $156 $156 $157 $237 reversed $96 $-1 #
coedge $-1 $157 $157 $156 $237 forward $98 $-1 #
coedge $-1 $158 $158 $99 $159 forward $153 $-1 #
edge $-1 $238 5.0242963924399498e-016 $238 6.2831853071796013 $158 $239 forward 7 unknown #
face $-1 $240 $241 $24 $-1 $242 reversed single #
loop $-1 $-1 $243 $100 #
plane-surface $-1 -78.137150181585127 0 0 1 0 0 0 0 -1 forward_v I I I I #
coedge $-1 $244 $171 $245 $246 forward $101 $-1 #
coedge $-1 $247 $103 $244 $248 forward $65 $-1 #
coedge $-1 $103 $247 $249 $250 forward $65 $-1 #
coedge $-1 $174 $173 $103 $167 reversed $175 $-1 #
edge $-1 $251 -53.353220335482312 $252 53.353220335482312 $166 $253 forward 7 unknown #
coedge $-1 $105 $104 $243 $254 forward $41 $-1 #
coedge $-1 $255 $256 $104 $170 reversed $241 $-1 #
edge $-1 $177 -78.137150181585127 $257 78.137150181585127 $169 $258 forward 7 unknown #
coedge $-1 $163 $259 $105 $172 reversed $101 $-1 #
edge $-1 $260 -78.137150181585127 $176 78.137150181585127 $171 $261 forward 7 unknown #
coedge $-1 $166 $106 $259 $262 forward $175 $-1 #
coedge $-1 $106 $166 $255 $263 reversed $175 $-1 #
loop $-1 $-1 $173 $240 #
vertex $-1 $107 $264 #
vertex $-1 $107 $265 #
straight-curve $-1 78.137150181585127 0 14.691308362711149 0 1 0 I I #
face $-1 $266 $267 $25 $-1 $268 reversed single #
loop $-1 $-1 $114 $108 #
plane-surface $-1 -87.093329010218767 -47.385680553200963 0 0 -1 0 0 0 -1 forward_v I I I I #
coedge $-1 $269 $270 $271 $272 forward $109 $-1 #
coedge $-1 $273 $111 $190 $274 forward $69 $-1 #
coedge $-1 $111 $273 $275 $276 forward $69 $-1 #
edge $-1 $277 -53.353220335482312 $192 -47.385680553200963 $111 $278 forward 7 unknown #
coedge $-1 $113 $112 $279 $280 reversed $44 $-1 #
coedge $-1 $281 $282 $113 $188 forward $267 $-1 #
edge $-1 $191 47.385680553200963 $283 53.353220335482312 $187 $284 forward 7 unknown #
coedge $-1 $271 $114 $282 $285 reversed $180 $-1 #
coedge $-1 $114 $271 $183 $274 reversed $180 $-1 #
vertex $-1 $188 $286 #
vertex $-1 $274 $287 #
straight-curve $-1 -78.137150181585127 -47.385680553200963 0 0 0 1 I I #
face $-1 $-1 $288 $26 $-1 $289 reversed single #
loop $-1 $-1 $122 $116 #
plane-surface $-1 0 0 14.691308362711149 0 0 1 1 0 0 forward_v I I I I #
coedge $-1 $290 $291 $292 $293 reversed $117 $-1 #
coedge $-1 $294 $119 $121 $204 forward $73 $-1 #
coedge $-1 $119 $294 $290 $295 forward $73 $-1 #
coedge $-1 $292 $122 $119 $201 forward $195 $-1 #
edge $-1 $207 12.54195861987715 $296 32.539771189257507 $200 $297 forward 7 unknown #
coedge $-1 $298 $299 $120 $203 forward $288 $-1 #
edge $-1 $300 -90.942860361189048 $206 -81.43123654394978 $202 $301 forward 7 unknown #
edge $-1 $207 92.759744811928044 $300 106.70644067096467 $121 $302 forward 7 unknown #
coedge $-1 $122 $292 $298 $303 forward $195 $-1 #
vertex $-1 $203 $304 #
vertex $-1 $123 $305 #
straight-curve $-1 35.082823524444478 40.945944302867275 14.691308362711155 0 -1 0 I I #
coedge $-1 $209 $209 $-1 $306 reversed $126 $-1 #
edge $-1 $307 0 $307 6.2831853071796004 $127 $308 forward 7 unknown #
vertex $-1 $130 $309 #
ellipse-curve $-1 45.081729809134657 48.253236567277845 9.9354964540915365 0 0.68199836817093118 0.7313536940579346 1.5 0 0 1 I I #
face $-1 $-1 $310 $28 $-1 $311 reversed single #
loop $-1 $-1 $137 $131 #
plane-surface $-1 0 0 14.691308362711149 0 0 1 1 0 0 forward_v I I I I #
coedge $-1 $312 $313 $314 $315 reversed $132 $-1 #
coedge $-1 $316 $134 $136 $223 forward $82 $-1 #
coedge $-1 $134 $316 $312 $317 forward $82 $-1 #
coedge $-1 $314 $137 $134 $220 forward $214 $-1 #
edge $-1 $226 -20.922011582244252 $318 5.8851661657468668 $219 $319 forward 7 unknown #
coedge $-1 $320 $321 $135 $222 forward $310 $-1 #
edge $-1 $322 -51.867939739757858 $225 -43.943368127399694 $221 $323 forward 7 unknown #
edge $-1 $226 -11.207036520163518 $322 1.0048591735576163e-014 $136 $324 forward 7 unknown #
coedge $-1 $137 $314 $320 $325 forward $214 $-1 #
vertex $-1 $138 $326 #
vertex $-1 $138 $327 #
straight-curve $-1 28.440434290492945 -81.927919564787828 14.691308362711148 0 1 0 I I #
coedge $-1 $228 $228 $-1 $328 reversed $141 $-1 #
edge $-1 $329 0 $329 6.2831853071796004 $142 $330 forward 7 unknown #
vertex $-1 $145 $331 #
ellipse-curve $-1 6.9946920921000526 -49.390934621248483 10.729022556532065 0 -0.70710678939079041 0.70710677298230451 2.5 0 0 1 I I #
coedge $-1 $232 $232 $-1 $332 reversed $148 $-1 #
edge $-1 $333 0 $333 6.2831853071796004 $149 $334 forward 7 unknown #
vertex $-1 $152 $335 #
ellipse-curve $-1 15.036845416497385 -49.390934621248483 10.729022556532065 0 -0.70710678939079041 0.70710677298230451 2.5 0 0 1 I I #
coedge $-1 $236 $236 $-1 $336 reversed $155 $-1 #
edge $-1 $337 0 $337 6.2831853071796004 $156 $338 forward 7 unknown #
vertex $-1 $159 $339 #
ellipse-curve $-1 23.078998740894718 -49.390934621248483 10.729022556532065 0 -0.70710678939079041 0.70710677298230451 2.5 0 0 1 I I #
face $-1 $-1 $175 $24 $-1 $340 reversed single #
loop $-1 $-1 $255 $160 #
plane-surface $-1 0 53.353220335482312 0 0 -1 0 0 0 -1 forward_v I I I I #
coedge $-1 $341 $245 $168 $254 reversed $161 $-1 #
coedge $-1 $259 $163 $164 $248 reversed $101 $-1 #
coedge $-1 $243 $342 $163 $246 reversed $161 $-1 #
edge $-1 $260 -14.691308362711149 $343 14.691308362711149 $245 $344 forward 7 unknown #
coedge $-1 $165 $164 $342 $345 forward $65 $-1 #
edge $-1 $252 -78.137150181585127 $343 78.137150181585127 $244 $346 forward 7 unknown #
coedge $-1 $256 $255 $165 $250 reversed $241 $-1 #
edge $-1 $347 -78.137150181585127 $251 78.137150181585127 $249 $348 forward 7 unknown #
vertex $-1 $167 $349 #
vertex $-1 $262 $350 #
straight-curve $-1 78.137150181585127 0 -14.691308362711149 0 -1 0 I I #
edge $-1 $257 -53.353220335482312 $260 53.353220335482312 $243 $351 forward 7 unknown #
coedge $-1 $249 $169 $174 $263 forward $241 $-1 #
coedge $-1 $169 $249 $341 $352 reversed $241 $-1 #
vertex $-1 $170 $353 #
straight-curve $-1 0 53.353220335482312 14.691308362711149 -1 0 0 I I #
coedge $-1 $171 $244 $173 $262 reversed $101 $-1 #
vertex $-1 $254 $354 #
straight-curve $-1 0 -53.353220335482312 14.691308362711149 1 0 0 I I #
edge $-1 $176 -14.691308362711149 $252 14.691308362711149 $173 $355 forward 7 unknown #
edge $-1 $177 -14.691308362711149 $251 14.691308362711149 $174 $356 forward 7 unknown #
point $-1 78.137150181585127 -53.353220335482312 14.691308362711149 #
point $-1 78.137150181585127 53.353220335482312 14.691308362711149 #
face $-1 $-1 $357 $25 $-1 $358 reversed single #
loop $-1 $-1 $187 $179 #
plane-surface $-1 0 0 -14.691308362711149 0 0 1 1 0 0 forward_v I I I I #
coedge $-1 $359 $182 $360 $361 reversed $109 $-1 #
coedge $-1 $182 $359 $273 $362 reversed $109 $-1 #
coedge $-1 $190 $189 $182 $272 reversed $180 $-1 #
edge $-1 $363 -14.691308362711149 $364 14.691308362711149 $271 $365 forward 7 unknown #
coedge $-1 $184 $183 $270 $362 forward $69 $-1 #
edge $-1 $192 -8.9561788286336395 $363 8.9561788286336395 $190 $366 forward 7 unknown #
coedge $-1 $367 $279 $184 $276 reversed $357 $-1 #
edge $-1 $368 -96.049507838852406 $277 -78.137150181585127 $275 $369 forward 7 unknown #
vertex $-1 $280 $370 #
straight-curve $-1 -78.137150181585127 0 14.691308362711149 0 1 0 I I #
coedge $-1 $275 $371 $186 $280 forward $357 $-1 #
edge $-1 $283 -14.691308362711149 $277 14.691308362711149 $279 $372 forward 7 unknown #
coedge $-1 $360 $187 $371 $373 forward $267 $-1 #
coedge $-1 $187 $360 $189 $285 forward $267 $-1 #
vertex $-1 $373 $374 #
straight-curve $-1 -78.137150181585127 0 -14.691308362711149 0 -1 0 I I #
edge $-1 $364 -8.9561788286336395 $191 8.9561788286336395 $189 $375 forward 7 unknown #
point $-1 -78.137150181585127 -47.385680553200963 -14.691308362711149 #
point $-1 -78.137150181585127 -47.385680553200963 14.691308362711149 #
loop $-1 $-1 $202 $194 #
plane-surface $-1 0 53.353220335482312 0 0 -1 0 0 0 -1 forward_v I I I I #
coedge $-1 $291 $197 $199 $295 reversed $117 $-1 #
coedge $-1 $197 $290 $376 $377 reversed $117 $-1 #
coedge $-1 $205 $200 $197 $293 forward $195 $-1 #
edge $-1 $296 2.2073084962061102 $378 12.407276032615037 $292 $379 forward 7 unknown #
coedge $-1 $199 $198 $299 $380 reversed $73 $-1 #
edge $-1 $381 -106.70644067096467 $296 -92.759744811928044 $290 $382 forward 7 unknown #
vertex $-1 $201 $383 #
straight-curve $-1 22.540864904567329 43.1532527990734 14.691308362711148 1 0 0 I I #
coedge $-1 $376 $202 $205 $303 reversed $288 $-1 #
coedge $-1 $202 $376 $294 $380 forward $288 $-1 #
vertex $-1 $203 $384 #
straight-curve $-1 35.082823524444478 53.353220335482312 96.122544906660934 0 0 1 I I #
straight-curve $-1 35.082823524444478 -24.686929229001521 77.953302956398076 0 0.7313536940579346 -0.68199836817093118 I I #
edge $-1 $378 -55.080636093824836 $206 -35.082823524444478 $298 $385 forward 7 unknown #
point $-1 35.082823524444478 53.353220335482312 14.691308362711149 #
point $-1 35.082823524444478 43.153252799073385 14.691308362711148 #
edge $-1 $386 1 $386 0 $209 $-1 forward 7 unknown #
vertex $-1 $210 $387 #
ellipse-curve $-1 45.081729809134657 45.395043784553735 6.8704600148091846 0 0.68199836817093118 0.7313536940579346 1.5 0 0 1 I I #
point $-1 46.581729809134657 48.253236567277838 9.9354964540915347 #
loop $-1 $-1 $221 $213 #
plane-surface $-1 0 -53.353220335482312 0 0 1 0 0 0 1 forward_v I I I I #
coedge $-1 $313 $216 $218 $317 reversed $132 $-1 #
coedge $-1 $216 $312 $388 $389 reversed $132 $-1 #
coedge $-1 $224 $219 $216 $315 forward $214 $-1 #
edge $-1 $318 -36.499270657773181 $390 -28.574699229305516 $314 $391 forward 7 unknown #
coedge $-1 $218 $217 $321 $392 reversed $82 $-1 #
edge $-1 $393 -1.0048591735576163e-014 $318 11.207036520163518 $312 $394 forward 7 unknown #
vertex $-1 $220 $395 #
straight-curve $-1 7.5184227082486927 -45.42864890701464 14.691308362711148 -1 0 0 I I #
coedge $-1 $388 $221 $224 $325 reversed $310 $-1 #
coedge $-1 $221 $388 $316 $392 forward $310 $-1 #
vertex $-1 $222 $396 #
straight-curve $-1 28.440434290492945 -53.353220335482312 58.634676490110841 0 0 1 I I #
straight-curve $-1 28.440434290492945 -53.353220335482305 6.7667367503529903 0 -0.70710677298230451 -0.70710678939079041 I I #
edge $-1 $390 1.6332565425018259 $225 28.440434290492945 $320 $397 forward 7 unknown #
point $-1 28.440434290492945 -53.353220335482312 14.691308362711149 #
point $-1 28.440434290492945 -45.428648907014647 14.691308362711149 #
edge $-1 $398 1 $398 0 $228 $-1 forward 7 unknown #
vertex $-1 $229 $399 #
ellipse-curve $-1 6.9946920921000526 -46.005326649186735 7.3434146630336983 0 -0.70710678939079041 0.70710677298230451 2.5 0 0 1 I I #
point $-1 9.4946920921000526 -49.390934621248491 10.729022556532074 #
edge $-1 $400 1 $400 0 $232 $-1 forward 7 unknown #
vertex $-1 $233 $401 #
ellipse-curve $-1 15.036845416497385 -46.005326649186735 7.3434146630336983 0 -0.70710678939079041 0.70710677298230451 2.5 0 0 1 I I #
point $-1 17.536845416497385 -49.390934621248491 10.729022556532074 #
edge $-1 $402 1 $402 0 $236 $-1 forward 7 unknown #
vertex $-1 $237 $403 #
ellipse-curve $-1 23.078998740894718 -46.005326649186735 7.3434146630336983 0 -0.70710678939079041 0.70710677298230451 2.5 0 0 1 I I #
point $-1 25.578998740894718 -49.390934621248491 10.729022556532074 #
plane-surface $-1 78.137150181585127 0 0 -1 0 0 0 0 1 forward_v I I I I #
coedge $-1 $342 $243 $256 $352 forward $161 $-1 #
coedge $-1 $245 $341 $247 $345 reversed $161 $-1 #
vertex $-1 $345 $404 #
straight-curve $-1 -78.137150181585127 -53.353220335482312 0 0 0 -1 I I #
edge $-1 $343 -53.353220335482312 $347 53.353220335482312 $342 $405 forward 7 unknown #
straight-curve $-1 0 -53.353220335482312 -14.691308362711149 -1 0 0 I I #
vertex $-1 $250 $406 #
straight-curve $-1 0 53.353220335482312 -14.691308362711149 1 0 0 I I #
point $-1 78.137150181585127 53.353220335482312 -14.691308362711149 #
point $-1 78.137150181585127 -53.353220335482312 -14.691308362711149 #
straight-curve $-1 -78.137150181585127 0 14.691308362711149 0 -1 0 I I #
edge $-1 $257 -14.691308362711149 $347 14.691308362711149 $256 $407 forward 7 unknown #
point $-1 -78.137150181585127 53.353220335482312 14.691308362711149 #
point $-1 -78.137150181585127 -53.353220335482312 14.691308362711149 #
straight-curve $-1 78.137150181585127 -53.353220335482312 0 0 0 -1 I I #
straight-curve $-1 78.137150181585127 53.353220335482312 0 0 0 -1 I I #
loop $-1 $-1 $279 $266 #
plane-surface $-1 0 -53.353220335482312 0 0 1 0 0 0 1 forward_v I I I I #
coedge $-1 $270 $269 $367 $408 reversed $109 $-1 #
coedge $-1 $282 $281 $269 $361 forward $267 $-1 #
edge $-1 $409 -2.9837698911406747 $364 2.9837698911406747 $269 $410 forward 7 unknown #
edge $-1 $363 -2.9837698911406747 $368 2.9837698911406747 $270 $411 forward 7 unknown #
vertex $-1 $274 $412 #
vertex $-1 $285 $413 #
straight-curve $-1 -96.049507838852406 -47.385680553200963 0 0 0 -1 I I #
straight-curve $-1 -87.093329010218767 -47.385680553200963 14.691308362711149 -1 0 0 I I #
coedge $-1 $371 $275 $359 $408 forward $357 $-1 #
vertex $-1 $362 $414 #
straight-curve $-1 0 -53.353220335482312 14.691308362711149 1 0 0 I I #
point $-1 -78.137150181585127 -53.353220335482312 14.691308362711149 #
coedge $-1 $279 $367 $281 $373 reversed $357 $-1 #
straight-curve $-1 -78.137150181585127 -53.353220335482312 0 0 0 1 I I #
edge $-1 $283 -8.9561788286336395 $409 8.9561788286336395 $371 $415 forward 7 unknown #
point $-1 -78.137150181585127 -53.353220335482312 -14.691308362711149 #
straight-curve $-1 -87.093329010218767 -47.385680553200963 -14.691308362711149 1 0 0 I I #
coedge $-1 $299 $298 $291 $377 forward $288 $-1 #
edge $-1 $378 81.43123654394978 $381 90.942860361189048 $376 $416 forward 7 unknown #
vertex $-1 $303 $417 #
straight-curve $-1 55.080636093824836 40.945944302867275 14.691308362711155 0 1 0 I I #
edge $-1 $381 -32.539771189257507 $300 -12.54195861987715 $299 $418 forward 7 unknown #
vertex $-1 $380 $419 #
straight-curve $-1 55.080636093824836 -24.686929229001521 77.953302956398076 0 -0.7313536940579346 0.68199836817093118 I I #
point $-1 55.080636093824836 43.153252799073385 14.691308362711148 #
point $-1 35.082823524444478 53.35322033548232 5.1796845454718863 #
straight-curve $-1 0 53.353220335482312 14.691308362711149 -1 0 0 I I #
vertex $-1 $306 $420 #
point $-1 46.581729809134657 45.395043784553735 6.8704600148091846 #
coedge $-1 $321 $320 $313 $389 forward $310 $-1 #
edge $-1 $390 43.943368127399694 $393 51.867939739757858 $388 $421 forward 7 unknown #
vertex $-1 $325 $422 #
straight-curve $-1 1.6332565425018259 -81.927919564787828 14.691308362711148 0 -1 0 I I #
edge $-1 $393 -5.8851661657468668 $322 20.922011582244252 $321 $423 forward 7 unknown #
vertex $-1 $392 $424 #
straight-curve $-1 1.6332565425018259 -53.353220335482305 6.7667367503529903 0 0.70710677298230451 0.70710678939079041 I I #
point $-1 1.6332565425018259 -45.428648907014647 14.691308362711149 #
point $-1 28.440434290492945 -53.353220335482312 6.7667367503529832 #
straight-curve $-1 0 -53.353220335482312 14.691308362711149 1 0 0 I I #
vertex $-1 $328 $425 #
point $-1 9.4946920921000526 -46.005326649186735 7.3434146630336983 #
vertex $-1 $332 $426 #
point $-1 17.536845416497385 -46.005326649186735 7.3434146630336983 #
vertex $-1 $336 $427 #
point $-1 25.578998740894718 -46.005326649186735 7.3434146630336983 #
point $-1 -78.137150181585127 -53.353220335482312 -14.691308362711149 #
straight-curve $-1 -78.137150181585127 0 -14.691308362711149 0 1 0 I I #
point $-1 -78.137150181585127 53.353220335482312 -14.691308362711149 #
straight-curve $-1 -78.137150181585127 53.353220335482312 0 0 0 -1 I I #
edge $-1 $368 -14.691308362711149 $409 14.691308362711149 $359 $428 forward 7 unknown #
vertex $-1 $361 $429 #
straight-curve $-1 -96.049507838852406 -50.369450444341638 -14.691308362711149 0 1 0 I I #
straight-curve $-1 -96.049507838852406 -50.369450444341638 14.691308362711149 0 -1 0 I I #
point $-1 -96.049507838852406 -47.385680553200963 14.691308362711149 #
point $-1 -96.049507838852406 -47.385680553200963 -14.691308362711149 #
point $-1 -96.049507838852406 -53.353220335482312 14.691308362711149 #
straight-curve $-1 -87.093329010218767 -53.353220335482312 -14.691308362711149 -1 0 0 I I #
straight-curve $-1 55.080636093824836 53.353220335482312 96.122544906660934 0 0 -1 I I #
point $-1 55.080636093824836 53.353220335482312 14.691308362711149 #
straight-curve $-1 22.540864904567329 53.353220335482305 5.1796845454718934 -1 0 0 I I #
point $-1 55.080636093824836 53.35322033548232 5.1796845454718863 #
point $-1 45.081729809134657 44.372046232297336 5.7734294737222829 #
straight-curve $-1 1.6332565425018259 -53.353220335482312 58.634676490110841 0 0 -1 I I #
point $-1 1.6332565425018259 -53.353220335482312 14.691308362711149 #
straight-curve $-1 7.5184227082486927 -53.353220335482312 6.7667367503529778 1 0 0 I I #
point $-1 1.6332565425018259 -53.353220335482312 6.7667367503529832 #
point $-1 6.9946920921000526 -44.237559675709754 5.5756477305779377 #
point $-1 15.036845416497385 -44.237559675709754 5.5756477305779377 #
point $-1 23.078998740894718 -44.237559675709754 5.5756477305779377 #
straight-curve $-1 -96.049507838852406 -53.353220335482312 0 0 0 -1 I I #
point $-1 -96.049507838852406 -53.353220335482312 -14.691308362711149 #
End-of-ACIS-data 