500 0 15 0           
7 Unknown 11 ACIS 5.0 NT 24 Thu Mar 25 22:56:22 1999 
-1 9.9999999999999995e-007 1e-010 
body $-1 $15 $-1 $16 #
body $-1 $17 $-1 $18 #
body $-1 $19 $-1 $20 #
body $-1 $21 $-1 $22 #
body $-1 $23 $-1 $24 #
body $-1 $25 $-1 $26 #
body $-1 $27 $-1 $28 #
body $-1 $29 $-1 $30 #
body $-1 $31 $-1 $32 #
body $-1 $33 $-1 $34 #
body $-1 $35 $-1 $36 #
body $-1 $37 $-1 $38 #
body $-1 $39 $-1 $40 #
body $-1 $41 $-1 $42 #
body $-1 $43 $-1 $44 #
lump $-1 $-1 $45 $0 #
transform $-1 1 0 0 0 1 0 0 0 1 79.645985290078443 36.405704192653552 13.59244802766516 1 rotate no_reflect no_shear #
lump $-1 $-1 $46 $1 #
transform $-1 1 0 0 0 1 0 0 0 1 79.645985290078443 36.405704192653552 13.59244802766516 1 rotate no_reflect no_shear #
lump $-1 $-1 $47 $2 #
transform $-1 1 0 0 0 1 0 0 0 1 79.645985290078443 36.405704192653552 13.59244802766516 1 rotate no_reflect no_shear #
lump $-1 $-1 $48 $3 #
transform $-1 1 0 0 0 1 0 0 0 1 79.645985290078443 36.405704192653552 13.59244802766516 1 rotate no_reflect no_shear #
lump $-1 $-1 $49 $4 #
transform $-1 1 0 0 0 1 0 0 0 1 79.645985290078443 36.405704192653552 13.59244802766516 1 rotate no_reflect no_shear #
lump $-1 $-1 $50 $5 #
transform $-1 1 0 0 0 1 0 0 0 1 79.645985290078443 36.405704192653552 13.59244802766516 1 rotate no_reflect no_shear #
lump $-1 $-1 $51 $6 #
transform $-1 1 0 0 0 1 0 0 0 1 79.645985290078443 36.405704192653552 13.59244802766516 1 rotate no_reflect no_shear #
lump $-1 $-1 $52 $7 #
transform $-1 1 0 0 0 1 0 0 0 1 79.645985290078443 36.405704192653552 13.59244802766516 1 rotate no_reflect no_shear #
lump $-1 $-1 $53 $8 #
transform $-1 1 0 0 0 1 0 0 0 1 79.645985290078443 36.405704192653552 13.59244802766516 1 rotate no_reflect no_shear #
lump $-1 $-1 $54 $9 #
transform $-1 1 0 0 0 1 0 0 0 1 79.645985290078443 36.405704192653552 13.59244802766516 1 rotate no_reflect no_shear #
lump $-1 $-1 $55 $10 #
transform $-1 1 0 0 0 1 0 0 0 1 79.645985290078443 36.405704192653552 13.59244802766516 1 rotate no_reflect no_shear #
lump $-1 $-1 $56 $11 #
transform $-1 1 0 0 0 1 0 0 0 1 79.645985290078443 36.405704192653552 13.59244802766516 1 rotate no_reflect no_shear #
lump $-1 $-1 $57 $12 #
transform $-1 1 0 0 0 1 0 0 0 1 79.645985290078443 36.405704192653552 13.59244802766516 1 rotate no_reflect no_shear #
lump $-1 $-1 $58 $13 #
transform $-1 1 0 0 0 1 0 0 0 1 79.645985290078443 36.405704192653552 13.59244802766516 1 rotate no_reflect no_shear #
lump $-1 $-1 $59 $14 #
transform $-1 1 0 0 0 1 0 0 0 1 79.645985290078443 36.405704192653552 13.59244802766516 1 rotate no_reflect no_shear #
shell $-1 $-1 $-1 $60 $-1 $15 #
shell $-1 $-1 $-1 $61 $-1 $17 #
shell $-1 $-1 $-1 $62 $-1 $19 #
shell $-1 $-1 $-1 $63 $-1 $21 #
shell $-1 $-1 $-1 $64 $-1 $23 #
shell $-1 $-1 $-1 $65 $-1 $25 #
shell $-1 $-1 $-1 $66 $-1 $27 #
shell $-1 $-1 $-1 $67 $-1 $29 #
shell $-1 $-1 $-1 $68 $-1 $31 #
shell $-1 $-1 $-1 $69 $-1 $33 #
shell $-1 $-1 $-1 $70 $-1 $35 #
shell $-1 $-1 $-1 $71 $-1 $37 #
shell $-1 $-1 $-1 $72 $-1 $39 #
shell $-1 $-1 $-1 $73 $-1 $41 #
shell $-1 $-1 $-1 $74 $-1 $43 #
face $-1 $75 $76 $45 $-1 $77 forward single #
face $-1 $78 $79 $46 $-1 $80 reversed single #
face $-1 $81 $82 $47 $-1 $83 forward single #
face $-1 $84 $85 $48 $-1 $86 reversed single #
face $-1 $87 $88 $49 $-1 $89 forward single #
face $-1 $90 $91 $50 $-1 $92 forward single #
face $-1 $93 $94 $51 $-1 $95 reversed single #
face $-1 $96 $97 $52 $-1 $98 forward single #
face $-1 $99 $100 $53 $-1 $101 forward single #
face $-1 $102 $103 $54 $-1 $104 reversed single #
face $-1 $105 $106 $55 $-1 $107 forward single #
face $-1 $108 $109 $56 $-1 $110 forward single #
face $-1 $111 $112 $57 $-1 $113 reversed single #
face $-1 $114 $115 $58 $-1 $116 forward single #
face $-1 $117 $118 $59 $-1 $119 forward single #
face $-1 $120 $121 $45 $-1 $122 reversed single #
loop $-1 $-1 $123 $60 #
plane-surface $-1 0 0 13.59244802766516 0 0 1 1 0 0 forward_v I I I I #
face $-1 $124 $125 $46 $-1 $126 reversed single #
loop $-1 $-1 $127 $61 #
plane-surface $-1 -61.88991693723861 -27.436331186560125 0 1 0 0 0 0 -1 forward_v I I I I #
face $-1 $128 $129 $47 $-1 $130 reversed single #
loop $-1 $-1 $131 $62 #
plane-surface $-1 0 36.405704192653552 0 0 -1 0 0 0 -1 forward_v I I I I #
face $-1 $132 $133 $48 $-1 $134 reversed single #
loop $-1 $-1 $135 $63 #
plane-surface $-1 40.527764777247555 1.8990890344240743 223.62390028739804 0 -1 0 -0.57357644374324357 0 -0.81915203911291934 forward_v I I I I #
face $-1 $136 $137 $49 $-1 $138 forward single #
loop $-1 $139 $140 $64 #
cone-surface $-1 70.645739343467781 -4.968268027210101 6.8823268401906503 -0.57357644374324357 0 -0.81915203911291934 0.81915203911291934 0 -0.57357644374324357 1 I I 0 1 1 forward I I I I #
face $-1 $141 $142 $50 $-1 $143 forward single #
loop $-1 $144 $145 $65 #
cone-surface $-1 70.645739343467781 -0.84785379022959972 6.8823268401906503 -0.57357644374324357 0 -0.81915203911291934 0.81915203911291934 0 -0.57357644374324357 1 I I 0 1 1 forward I I I I #
face $-1 $146 $147 $51 $-1 $148 reversed single #
loop $-1 $-1 $149 $66 #
plane-surface $-1 40.527764777247555 22.265136249314843 223.62390028739804 0 -1 0 -0.57357644374324357 0 -0.81915203911291934 forward_v I I I I #
face $-1 $150 $151 $52 $-1 $152 forward single #
loop $-1 $153 $154 $67 #
cone-surface $-1 70.645739343467781 15.397779187680669 6.8823268401906503 -0.57357644374324357 0 -0.81915203911291934 0.81915203911291934 0 -0.57357644374324357 1 I I 0 1 1 forward I I I I #
face $-1 $155 $156 $53 $-1 $157 forward single #
loop $-1 $158 $159 $68 #
cone-surface $-1 70.645739343467781 19.51819342466117 6.8823268401906503 -0.57357644374324357 0 -0.81915203911291934 0.81915203911291934 0 -0.57357644374324357 1 I I 0 1 1 forward I I I I #
face $-1 $160 $161 $54 $-1 $162 reversed single #
loop $-1 $-1 $163 $69 #
plane-surface $-1 -171.01210729229823 -7.7152108518637679 132.25777828517829 0 1 0 -0.57357644374324357 0 0.81915203911291934 forward_v I I I I #
face $-1 $164 $165 $55 $-1 $166 forward single #
loop $-1 $167 $168 $70 #
cone-surface $-1 -70.645739343467795 -4.968268027210101 6.8823268401906468 0.57357644374324357 0 -0.81915203911291934 0.81915203911291934 0 0.57357644374324357 1 I I 0 1 1 forward I I I I #
face $-1 $169 $170 $56 $-1 $171 forward single #
loop $-1 $172 $173 $71 #
cone-surface $-1 -70.645739343467795 -0.84785379022959972 6.8823268401906468 0.57357644374324357 0 -0.81915203911291934 0.81915203911291934 0 0.57357644374324357 1 I I 0 1 1 forward I I I I #
face $-1 $174 $175 $57 $-1 $176 reversed single #
loop $-1 $-1 $177 $72 #
plane-surface $-1 -171.01210729229823 12.650836363027002 132.25777828517829 0 1 0 -0.57357644374324357 0 0.81915203911291934 forward_v I I I I #
face $-1 $178 $179 $58 $-1 $180 forward single #
loop $-1 $181 $182 $73 #
cone-surface $-1 -70.645739343467795 15.397779187680669 6.8823268401906468 0.57357644374324357 0 -0.81915203911291934 0.81915203911291934 0 0.57357644374324357 1 I I 0 1 1 forward I I I I #
face $-1 $183 $184 $59 $-1 $185 forward single #
loop $-1 $186 $187 $74 #
cone-surface $-1 -70.645739343467795 19.51819342466117 6.8823268401906468 0.57357644374324357 0 -0.81915203911291934 0.81915203911291934 0 0.57357644374324357 1 I I 0 1 1 forward I I I I #
face $-1 $188 $189 $45 $-1 $190 reversed single #
loop $-1 $-1 $191 $75 #
plane-surface $-1 0 0 -13.59244802766516 0 0 1 1 0 0 forward_v I I I I #
coedge $-1 $192 $193 $194 $195 forward $76 $-1 #
face $-1 $196 $197 $46 $-1 $198 reversed single #
loop $-1 $-1 $199 $78 #
plane-surface $-1 -59.316656252707972 -18.466958180466698 0 0 -1 0 0 0 -1 forward_v I I I I #
coedge $-1 $200 $201 $202 $203 forward $79 $-1 #
face $-1 $204 $205 $47 $-1 $206 forward single #
loop $-1 $-1 $207 $81 #
plane-surface $-1 79.645985290078443 0 0 -1 0 0 0 0 1 forward_v I I I I #
coedge $-1 $208 $209 $210 $211 forward $82 $-1 #
face $-1 $212 $213 $48 $-1 $214 reversed single #
loop $-1 $-1 $215 $84 #
plane-surface $-1 -50.838357224972214 -2.9080609087198468 93.139557772347388 0.57357644374324357 0 0.81915203911291934 0.81915203911291934 0 -0.57357644374324357 forward_v I I I I #
coedge $-1 $216 $217 $218 $219 reversed $85 $-1 #
face $-1 $-1 $220 $49 $-1 $221 forward single #
loop $-1 $222 $223 $87 #
cone-surface $-1 69.798354411518972 -4.968268027210101 5.6721357619284554 -0.57357644374324357 0 -0.81915203911291934 0.40957601955645967 0 -0.28678822187162178 1 I I -0.70710678118654746 0.70710678118654746 0.5 forward I I I I #
loop $-1 $-1 $224 $64 #
coedge $-1 $140 $140 $225 $226 reversed $88 $-1 #
face $-1 $-1 $227 $50 $-1 $228 forward single #
loop $-1 $229 $230 $90 #
cone-surface $-1 69.798354411518972 -0.84785379022959972 5.6721357619284554 -0.57357644374324357 0 -0.81915203911291934 0.40957601955645967 0 -0.28678822187162178 1 I I -0.70710678118654746 0.70710678118654746 0.5 forward I I I I #
loop $-1 $-1 $231 $65 #
coedge $-1 $145 $145 $232 $233 reversed $91 $-1 #
face $-1 $234 $235 $51 $-1 $236 reversed single #
loop $-1 $-1 $237 $93 #
plane-surface $-1 -50.838357224972214 17.457986306170923 93.139557772347388 0.57357644374324357 0 0.81915203911291934 0.81915203911291934 0 -0.57357644374324357 forward_v I I I I #
coedge $-1 $238 $239 $240 $241 reversed $94 $-1 #
face $-1 $-1 $242 $52 $-1 $243 forward single #
loop $-1 $244 $245 $96 #
cone-surface $-1 69.798354411518972 15.397779187680669 5.6721357619284554 -0.57357644374324357 0 -0.81915203911291934 0.40957601955645967 0 -0.28678822187162178 1 I I -0.70710678118654746 0.70710678118654746 0.5 forward I I I I #
loop $-1 $-1 $246 $67 #
coedge $-1 $154 $154 $247 $248 reversed $97 $-1 #
face $-1 $-1 $249 $53 $-1 $250 forward single #
loop $-1 $251 $252 $99 #
cone-surface $-1 69.798354411518972 19.51819342466117 5.6721357619284554 -0.57357644374324357 0 -0.81915203911291934 0.40957601955645967 0 -0.28678822187162178 1 I I -0.70710678118654746 0.70710678118654746 0.5 forward I I I I #
loop $-1 $-1 $253 $68 #
coedge $-1 $159 $159 $254 $255 reversed $100 $-1 #
face $-1 $256 $257 $54 $-1 $258 reversed single #
loop $-1 $-1 $259 $102 #
plane-surface $-1 -79.645985290078457 -2.9080609087198468 1.7734357701276338 -0.57357644374324357 0 0.81915203911291934 0.81915203911291934 0 0.57357644374324357 forward_v I I I I #
coedge $-1 $260 $261 $262 $263 reversed $103 $-1 #
face $-1 $-1 $264 $55 $-1 $265 forward single #
loop $-1 $266 $267 $105 #
cone-surface $-1 -69.798354411518986 -4.968268027210101 5.6721357619284518 0.57357644374324357 0 -0.81915203911291934 0.40957601955645967 0 0.28678822187162178 1 I I -0.70710678118654746 0.70710678118654746 0.5 forward I I I I #
loop $-1 $-1 $268 $70 #
coedge $-1 $168 $168 $269 $270 reversed $106 $-1 #
face $-1 $-1 $271 $56 $-1 $272 forward single #
loop $-1 $273 $274 $108 #
cone-surface $-1 -69.798354411518986 -0.84785379022959972 5.6721357619284518 0.57357644374324357 0 -0.81915203911291934 0.40957601955645967 0 0.28678822187162178 1 I I -0.70710678118654746 0.70710678118654746 0.5 forward I I I I #
loop $-1 $-1 $275 $71 #
coedge $-1 $173 $173 $276 $277 reversed $109 $-1 #
face $-1 $278 $279 $57 $-1 $280 reversed single #
loop $-1 $-1 $281 $111 #
plane-surface $-1 -79.645985290078457 17.457986306170923 1.7734357701276338 -0.57357644374324357 0 0.81915203911291934 0.81915203911291934 0 0.57357644374324357 forward_v I I I I #
coedge $-1 $282 $283 $284 $285 reversed $112 $-1 #
face $-1 $-1 $286 $58 $-1 $287 forward single #
loop $-1 $288 $289 $114 #
cone-surface $-1 -69.798354411518986 15.397779187680669 5.6721357619284518 0.57357644374324357 0 -0.81915203911291934 0.40957601955645967 0 0.28678822187162178 1 I I -0.70710678118654746 0.70710678118654746 0.5 forward I I I I #
loop $-1 $-1 $290 $73 #
coedge $-1 $182 $182 $291 $292 reversed $115 $-1 #
face $-1 $-1 $293 $59 $-1 $294 forward single #
loop $-1 $295 $296 $117 #
cone-surface $-1 -69.798354411518986 19.51819342466117 5.6721357619284518 0.57357644374324357 0 -0.81915203911291934 0.40957601955645967 0 0.28678822187162178 1 I I -0.70710678118654746 0.70710678118654746 0.5 forward I I I I #
loop $-1 $-1 $297 $74 #
coedge $-1 $187 $187 $298 $299 reversed $118 $-1 #
face $-1 $300 $301 $45 $-1 $302 reversed single #
loop $-1 $-1 $303 $120 #
plane-surface $-1 0 -36.405704192653552 0 0 1 0 0 0 1 forward_v I I I I #
coedge $-1 $304 $305 $306 $307 forward $121 $-1 #
coedge $-1 $308 $123 $309 $310 forward $76 $-1 #
coedge $-1 $123 $308 $311 $312 forward $76 $-1 #
coedge $-1 $313 $314 $123 $195 reversed $315 $-1 #
edge $-1 $316 -36.405704192653552 $317 36.405704192653552 $194 $318 forward 7 unknown #
face $-1 $319 $320 $46 $-1 $321 forward single #
loop $-1 $-1 $322 $124 #
plane-surface $-1 -56.743395568177334 -27.436331186560125 0 -1 0 0 0 0 1 forward_v I I I I #
coedge $-1 $323 $324 $325 $326 forward $125 $-1 #
coedge $-1 $327 $127 $328 $329 reversed $79 $-1 #
coedge $-1 $127 $327 $330 $331 reversed $79 $-1 #
coedge $-1 $324 $323 $127 $203 reversed $125 $-1 #
edge $-1 $332 -13.59244802766516 $333 13.59244802766516 $202 $334 forward 7 unknown #
face $-1 $335 $336 $47 $-1 $337 reversed single #
loop $-1 $-1 $338 $128 #
plane-surface $-1 0 43.475988164322906 -9.5928244614814382 0 0 1 1 0 0 forward_v I I I I #
coedge $-1 $339 $340 $209 $341 forward $129 $-1 #
coedge $-1 $342 $131 $343 $344 reversed $82 $-1 #
coedge $-1 $131 $342 $207 $341 reversed $82 $-1 #
coedge $-1 $338 $345 $131 $211 reversed $205 $-1 #
edge $-1 $346 -79.645985290078443 $347 79.645985290078443 $210 $348 forward 7 unknown #
face $-1 $349 $350 $48 $-1 $351 forward single #
loop $-1 $-1 $352 $132 #
plane-surface $-1 40.527764777247555 -7.7152108518637679 223.62390028739804 0 1 0 0.57357644374324357 0 0.81915203911291934 forward_v I I I I #
coedge $-1 $353 $354 $355 $356 reversed $133 $-1 #
coedge $-1 $217 $135 $357 $358 reversed $85 $-1 #
coedge $-1 $135 $216 $353 $359 reversed $85 $-1 #
coedge $-1 $355 $360 $135 $219 forward $350 $-1 #
edge $-1 $361 -59.382102901454665 $362 -42.502804428387797 $218 $363 forward 7 unknown #
loop $-1 $-1 $225 $136 #
plane-surface $-1 -50.838357224972214 -2.9080609087198468 93.139557772347388 0.57357644374324357 0 0.81915203911291934 0.81915203911291934 0 -0.57357644374324357 forward_v I I I I #
loop $-1 $-1 $364 $87 #
coedge $-1 $223 $223 $224 $365 reversed $137 $-1 #
coedge $-1 $224 $224 $223 $365 forward $139 $-1 #
coedge $-1 $225 $225 $140 $226 forward $220 $-1 #
edge $-1 $366 0 $366 6.2831853071796004 $225 $367 forward 7 unknown #
loop $-1 $-1 $232 $141 #
plane-surface $-1 -50.838357224972214 -2.9080609087198468 93.139557772347388 0.57357644374324357 0 0.81915203911291934 0.81915203911291934 0 -0.57357644374324357 forward_v I I I I #
loop $-1 $-1 $368 $90 #
coedge $-1 $230 $230 $231 $369 reversed $142 $-1 #
coedge $-1 $231 $231 $230 $369 forward $144 $-1 #
coedge $-1 $232 $232 $145 $233 forward $227 $-1 #
edge $-1 $370 0 $370 6.2831853071796004 $232 $371 forward 7 unknown #
face $-1 $372 $373 $51 $-1 $374 reversed single #
loop $-1 $-1 $375 $146 #
plane-surface $-1 40.527764777247555 12.650836363027002 223.62390028739804 0 1 0 0.57357644374324357 0 0.81915203911291934 forward_v I I I I #
coedge $-1 $376 $377 $378 $379 reversed $147 $-1 #
coedge $-1 $239 $149 $380 $381 reversed $94 $-1 #
coedge $-1 $149 $238 $376 $382 reversed $94 $-1 #
coedge $-1 $378 $383 $149 $241 forward $384 $-1 #
edge $-1 $385 -59.382102901454665 $386 -42.502804428387797 $240 $387 forward 7 unknown #
loop $-1 $-1 $247 $150 #
plane-surface $-1 -50.838357224972214 17.457986306170923 93.139557772347388 0.57357644374324357 0 0.81915203911291934 0.81915203911291934 0 -0.57357644374324357 forward_v I I I I #
loop $-1 $-1 $388 $96 #
coedge $-1 $245 $245 $246 $389 reversed $151 $-1 #
coedge $-1 $246 $246 $245 $389 forward $153 $-1 #
coedge $-1 $247 $247 $154 $248 forward $242 $-1 #
edge $-1 $390 0 $390 6.2831853071796004 $247 $391 forward 7 unknown #
loop $-1 $-1 $254 $155 #
plane-surface $-1 -50.838357224972214 17.457986306170923 93.139557772347388 0.57357644374324357 0 0.81915203911291934 0.81915203911291934 0 -0.57357644374324357 forward_v I I I I #
loop $-1 $-1 $392 $99 #
coedge $-1 $252 $252 $253 $393 reversed $156 $-1 #
coedge $-1 $253 $253 $252 $393 forward $158 $-1 #
coedge $-1 $254 $254 $159 $255 forward $249 $-1 #
edge $-1 $394 0 $394 6.2831853071796004 $254 $395 forward 7 unknown #
face $-1 $396 $397 $54 $-1 $398 reversed single #
loop $-1 $-1 $399 $160 #
plane-surface $-1 -171.01210729229823 1.8990890344240743 132.25777828517829 0 -1 0 0.57357644374324357 0 -0.81915203911291934 forward_v I I I I #
coedge $-1 $400 $401 $402 $403 reversed $161 $-1 #
coedge $-1 $261 $163 $404 $405 reversed $103 $-1 #
coedge $-1 $163 $260 $400 $406 reversed $103 $-1 #
coedge $-1 $402 $407 $163 $263 forward $408 $-1 #
edge $-1 $409 5.8600683560706699 $410 22.739366829137523 $262 $411 forward 7 unknown #
loop $-1 $-1 $269 $164 #
plane-surface $-1 -79.645985290078457 -2.9080609087198468 1.7734357701276338 -0.57357644374324357 0 0.81915203911291934 0.81915203911291934 0 0.57357644374324357 forward_v I I I I #
loop $-1 $-1 $412 $105 #
coedge $-1 $267 $267 $268 $413 reversed $165 $-1 #
coedge $-1 $268 $268 $267 $413 forward $167 $-1 #
coedge $-1 $269 $269 $168 $270 forward $264 $-1 #
edge $-1 $414 0 $414 6.2831853071796004 $269 $415 forward 7 unknown #
loop $-1 $-1 $276 $169 #
plane-surface $-1 -79.645985290078457 -2.9080609087198468 1.7734357701276338 -0.57357644374324357 0 0.81915203911291934 0.81915203911291934 0 0.57357644374324357 forward_v I I I I #
loop $-1 $-1 $416 $108 #
coedge $-1 $274 $274 $275 $417 reversed $170 $-1 #
coedge $-1 $275 $275 $274 $417 forward $172 $-1 #
coedge $-1 $276 $276 $173 $277 forward $271 $-1 #
edge $-1 $418 0 $418 6.2831853071796004 $276 $419 forward 7 unknown #
face $-1 $420 $421 $57 $-1 $422 forward single #
loop $-1 $-1 $423 $174 #
plane-surface $-1 -171.01210729229823 22.265136249314843 132.25777828517829 0 -1 0 0.57357644374324357 0 -0.81915203911291934 forward_v I I I I #
coedge $-1 $424 $425 $426 $427 reversed $175 $-1 #
coedge $-1 $283 $177 $428 $429 reversed $112 $-1 #
coedge $-1 $177 $282 $424 $430 reversed $112 $-1 #
coedge $-1 $426 $431 $177 $285 forward $421 $-1 #
edge $-1 $432 5.8600683560706699 $433 22.739366829137523 $284 $434 forward 7 unknown #
loop $-1 $-1 $291 $178 #
plane-surface $-1 -79.645985290078457 17.457986306170923 1.7734357701276338 -0.57357644374324357 0 0.81915203911291934 0.81915203911291934 0 0.57357644374324357 forward_v I I I I #
loop $-1 $-1 $435 $114 #
coedge $-1 $289 $289 $290 $436 reversed $179 $-1 #
coedge $-1 $290 $290 $289 $436 forward $181 $-1 #
coedge $-1 $291 $291 $182 $292 forward $286 $-1 #
edge $-1 $437 0 $437 6.2831853071796004 $291 $438 forward 7 unknown #
loop $-1 $-1 $298 $183 #
plane-surface $-1 -79.645985290078457 17.457986306170923 1.7734357701276338 -0.57357644374324357 0 0.81915203911291934 0.81915203911291934 0 0.57357644374324357 forward_v I I I I #
loop $-1 $-1 $439 $117 #
coedge $-1 $296 $296 $297 $440 reversed $184 $-1 #
coedge $-1 $297 $297 $296 $440 forward $186 $-1 #
coedge $-1 $298 $298 $187 $299 forward $293 $-1 #
edge $-1 $441 0 $441 6.2831853071796004 $298 $442 forward 7 unknown #
face $-1 $443 $444 $45 $-1 $445 reversed single #
loop $-1 $-1 $446 $188 #
plane-surface $-1 -79.645985290078443 0 0 1 0 0 0 0 -1 forward_v I I I I #
coedge $-1 $447 $311 $448 $449 forward $189 $-1 #
coedge $-1 $450 $191 $447 $451 forward $121 $-1 #
coedge $-1 $191 $450 $452 $453 forward $121 $-1 #
coedge $-1 $314 $313 $191 $307 reversed $315 $-1 #
edge $-1 $454 -36.405704192653552 $455 36.405704192653552 $306 $456 forward 7 unknown #
coedge $-1 $193 $192 $457 $458 forward $76 $-1 #
coedge $-1 $459 $460 $192 $310 reversed $444 $-1 #
edge $-1 $317 -79.645985290078443 $461 79.645985290078443 $309 $462 forward 7 unknown #
coedge $-1 $303 $463 $193 $312 reversed $189 $-1 #
edge $-1 $464 -79.645985290078443 $316 79.645985290078443 $311 $465 forward 7 unknown #
coedge $-1 $306 $194 $463 $466 forward $315 $-1 #
coedge $-1 $194 $306 $459 $467 reversed $315 $-1 #
loop $-1 $-1 $313 $443 #
vertex $-1 $195 $468 #
vertex $-1 $195 $469 #
straight-curve $-1 79.645985290078443 0 13.59244802766516 0 1 0 I I #
face $-1 $470 $471 $46 $-1 $472 reversed single #
loop $-1 $-1 $473 $196 #
plane-surface $-1 0 0 13.59244802766516 0 0 1 1 0 0 forward_v I I I I #
coedge $-1 $474 $475 $476 $477 reversed $197 $-1 #
coedge $-1 $202 $199 $478 $479 reversed $125 $-1 #
coedge $-1 $199 $202 $480 $481 reversed $125 $-1 #
coedge $-1 $475 $474 $199 $326 reversed $197 $-1 #
edge $-1 $482 -13.59244802766516 $483 13.59244802766516 $325 $484 forward 7 unknown #
coedge $-1 $201 $200 $485 $486 reversed $79 $-1 #
coedge $-1 $478 $487 $200 $329 forward $471 $-1 #
edge $-1 $488 -22.687538599373489 $333 -4.7487925871866352 $328 $489 forward 7 unknown #
coedge $-1 $490 $480 $201 $331 forward $320 $-1 #
edge $-1 $332 4.7487925871866352 $491 22.687538599373489 $330 $492 forward 7 unknown #
vertex $-1 $331 $493 #
vertex $-1 $329 $494 #
straight-curve $-1 -61.88991693723861 -18.466958180466698 0 0 0 -1 I I #
face $-1 $495 $496 $47 $-1 $497 reversed single #
loop $-1 $-1 $498 $204 #
plane-surface $-1 0 50.546272135992261 -11.592636244573299 0 -1 0 0 0 -1 forward_v I I I I #
coedge $-1 $499 $210 $340 $500 forward $205 $-1 #
coedge $-1 $501 $207 $502 $503 reversed $129 $-1 #
coedge $-1 $207 $501 $338 $500 reversed $129 $-1 #
edge $-1 $346 9.5928244614814382 $504 13.59244802766516 $207 $505 forward 7 unknown #
coedge $-1 $209 $208 $506 $507 reversed $82 $-1 #
coedge $-1 $508 $509 $208 $344 forward $510 $-1 #
edge $-1 $511 -13.59244802766516 $347 -9.5928244614814382 $343 $512 forward 7 unknown #
coedge $-1 $210 $499 $508 $513 forward $205 $-1 #
vertex $-1 $341 $514 #
vertex $-1 $513 $515 #
straight-curve $-1 0 36.405704192653552 -9.5928244614814382 -1 0 0 I I #
face $-1 $-1 $516 $48 $-1 $517 reversed single #
loop $-1 $-1 $218 $212 #
plane-surface $-1 0 0 13.59244802766516 0 0 1 1 0 0 forward_v I I I I #
coedge $-1 $518 $519 $520 $521 reversed $213 $-1 #
coedge $-1 $522 $215 $217 $359 forward $133 $-1 #
coedge $-1 $215 $522 $518 $523 forward $133 $-1 #
coedge $-1 $520 $218 $215 $356 forward $350 $-1 #
edge $-1 $362 -3.3531194887839977 $524 6.2611803975038445 $355 $525 forward 7 unknown #
coedge $-1 $526 $527 $216 $358 forward $516 $-1 #
edge $-1 $528 -110.03851437357139 $361 -98.219502116033865 $357 $529 forward 7 unknown #
edge $-1 $362 138.68615179791237 $528 159.29197058015686 $217 $530 forward 7 unknown #
coedge $-1 $218 $520 $526 $531 forward $350 $-1 #
vertex $-1 $358 $532 #
vertex $-1 $219 $533 #
straight-curve $-1 20.263882388623777 1.8990890344240743 13.592448027665156 -1 0 0 I I #
coedge $-1 $364 $364 $-1 $534 reversed $222 $-1 #
edge $-1 $535 0 $535 6.2831853071796004 $223 $536 forward 7 unknown #
vertex $-1 $226 $537 #
ellipse-curve $-1 71.206336053545002 -4.968268027210101 7.68294189889642 0.57357644374324357 0 0.81915203911291934 0.81915203911291934 0 -0.57357644374324357 1 I I #
coedge $-1 $368 $368 $-1 $538 reversed $229 $-1 #
edge $-1 $539 0 $539 6.2831853071796004 $230 $540 forward 7 unknown #
vertex $-1 $233 $541 #
ellipse-curve $-1 71.206336053545002 -0.84785379022959972 7.68294189889642 0.57357644374324357 0 0.81915203911291934 0.81915203911291934 0 -0.57357644374324357 1 I I #
face $-1 $-1 $384 $51 $-1 $542 forward single #
loop $-1 $-1 $543 $234 #
plane-surface $-1 79.645985290078443 0 0 -1 0 0 0 0 1 forward_v I I I I #
coedge $-1 $544 $545 $546 $547 reversed $235 $-1 #
coedge $-1 $548 $237 $239 $382 forward $147 $-1 #
coedge $-1 $237 $548 $544 $549 forward $147 $-1 #
coedge $-1 $546 $240 $237 $379 forward $384 $-1 #
edge $-1 $386 -13.536143096229381 $550 -3.9218432099415406 $378 $551 forward 7 unknown #
coedge $-1 $552 $553 $238 $381 forward $373 $-1 #
edge $-1 $554 -110.03851437357139 $385 -98.219502116033865 $380 $555 forward 7 unknown #
edge $-1 $386 138.68615179791237 $554 159.29197058015686 $239 $556 forward 7 unknown #
coedge $-1 $240 $546 $552 $557 forward $384 $-1 #
loop $-1 $-1 $546 $372 #
vertex $-1 $381 $558 #
vertex $-1 $241 $559 #
straight-curve $-1 20.263882388623777 22.265136249314843 13.592448027665156 -1 0 0 I I #
coedge $-1 $388 $388 $-1 $560 reversed $244 $-1 #
edge $-1 $561 0 $561 6.2831853071796004 $245 $562 forward 7 unknown #
vertex $-1 $248 $563 #
ellipse-curve $-1 71.206336053545002 15.397779187680669 7.68294189889642 0.57357644374324357 0 0.81915203911291934 0.81915203911291934 0 -0.57357644374324357 1 I I #
coedge $-1 $392 $392 $-1 $564 reversed $251 $-1 #
edge $-1 $565 0 $565 6.2831853071796004 $252 $566 forward 7 unknown #
vertex $-1 $255 $567 #
ellipse-curve $-1 71.206336053545002 19.51819342466117 7.68294189889642 0.57357644374324357 0 0.81915203911291934 0.81915203911291934 0 -0.57357644374324357 1 I I #
face $-1 $-1 $408 $54 $-1 $568 forward single #
loop $-1 $-1 $569 $256 #
plane-surface $-1 -79.645985290078443 0 0 1 0 0 0 0 -1 forward_v I I I I #
coedge $-1 $570 $571 $572 $573 reversed $257 $-1 #
coedge $-1 $574 $259 $261 $406 forward $161 $-1 #
coedge $-1 $259 $574 $570 $575 forward $161 $-1 #
coedge $-1 $572 $262 $259 $403 forward $408 $-1 #
edge $-1 $410 -6.2611803975038445 $576 3.3531194887839977 $402 $577 forward 7 unknown #
coedge $-1 $578 $579 $260 $405 forward $397 $-1 #
edge $-1 $580 -64.355453372461497 $409 -52.536441114923988 $404 $581 forward 7 unknown #
edge $-1 $410 -20.605818782244491 $580 -1.7372030585532449e-014 $261 $582 forward 7 unknown #
coedge $-1 $262 $572 $578 $583 forward $408 $-1 #
loop $-1 $-1 $572 $396 #
vertex $-1 $405 $584 #
vertex $-1 $263 $585 #
straight-curve $-1 -85.506053646149113 -7.7152108518637679 13.592448027665156 1 0 0 I I #
coedge $-1 $412 $412 $-1 $586 reversed $266 $-1 #
edge $-1 $587 0 $587 6.2831853071796004 $267 $588 forward 7 unknown #
vertex $-1 $270 $589 #
ellipse-curve $-1 -71.206336053545002 -4.968268027210101 7.6829418988964111 -0.57357644374324357 0 0.81915203911291934 0.81915203911291934 0 0.57357644374324357 1 I I #
coedge $-1 $416 $416 $-1 $590 reversed $273 $-1 #
edge $-1 $591 0 $591 6.2831853071796004 $274 $592 forward 7 unknown #
vertex $-1 $277 $593 #
ellipse-curve $-1 -71.206336053545002 -0.84785379022959972 7.6829418988964111 -0.57357644374324357 0 0.81915203911291934 0.81915203911291934 0 0.57357644374324357 1 I I #
face $-1 $-1 $594 $57 $-1 $595 reversed single #
loop $-1 $-1 $284 $278 #
plane-surface $-1 0 0 13.59244802766516 0 0 1 1 0 0 forward_v I I I I #
coedge $-1 $596 $597 $598 $599 reversed $279 $-1 #
coedge $-1 $600 $281 $283 $430 forward $175 $-1 #
coedge $-1 $281 $600 $596 $601 forward $175 $-1 #
coedge $-1 $598 $284 $281 $427 forward $421 $-1 #
edge $-1 $433 3.9218432099415406 $602 13.536143096229381 $426 $603 forward 7 unknown #
coedge $-1 $604 $605 $282 $429 forward $594 $-1 #
edge $-1 $606 -64.355453372461497 $432 -52.536441114923988 $428 $607 forward 7 unknown #
edge $-1 $433 -20.605818782244491 $606 -1.7372030585532449e-014 $283 $608 forward 7 unknown #
coedge $-1 $284 $598 $604 $609 forward $421 $-1 #
vertex $-1 $285 $610 #
vertex $-1 $285 $611 #
straight-curve $-1 -85.506053646149113 12.650836363027002 13.592448027665156 1 0 0 I I #
coedge $-1 $435 $435 $-1 $612 reversed $288 $-1 #
edge $-1 $613 0 $613 6.2831853071796004 $289 $614 forward 7 unknown #
vertex $-1 $292 $615 #
ellipse-curve $-1 -71.206336053545002 15.397779187680669 7.6829418988964111 -0.57357644374324357 0 0.81915203911291934 0.81915203911291934 0 0.57357644374324357 1 I I #
coedge $-1 $439 $439 $-1 $616 reversed $295 $-1 #
edge $-1 $617 0 $617 6.2831853071796004 $296 $618 forward 7 unknown #
vertex $-1 $299 $619 #
ellipse-curve $-1 -71.206336053545002 19.51819342466117 7.6829418988964111 -0.57357644374324357 0 0.81915203911291934 0.81915203911291934 0 0.57357644374324357 1 I I #
face $-1 $-1 $315 $45 $-1 $620 reversed single #
loop $-1 $-1 $460 $300 #
plane-surface $-1 0 36.405704192653552 0 0 -1 0 0 0 -1 forward_v I I I I #
coedge $-1 $621 $457 $460 $622 forward $301 $-1 #
coedge $-1 $463 $303 $304 $451 reversed $189 $-1 #
coedge $-1 $457 $621 $303 $449 reversed $301 $-1 #
edge $-1 $464 -13.59244802766516 $623 13.59244802766516 $448 $624 forward 7 unknown #
coedge $-1 $305 $304 $621 $625 forward $121 $-1 #
edge $-1 $455 -79.645985290078443 $623 79.645985290078443 $447 $626 forward 7 unknown #
coedge $-1 $460 $459 $305 $453 reversed $444 $-1 #
edge $-1 $627 -79.645985290078443 $454 79.645985290078443 $452 $628 forward 7 unknown #
vertex $-1 $307 $629 #
vertex $-1 $466 $630 #
straight-curve $-1 79.645985290078443 0 -13.59244802766516 0 -1 0 I I #
coedge $-1 $446 $448 $308 $458 reversed $301 $-1 #
edge $-1 $461 -36.405704192653552 $464 36.405704192653552 $457 $631 forward 7 unknown #
coedge $-1 $452 $309 $314 $467 forward $444 $-1 #
coedge $-1 $309 $452 $446 $622 reversed $444 $-1 #
vertex $-1 $310 $632 #
straight-curve $-1 0 36.405704192653552 13.59244802766516 -1 0 0 I I #
coedge $-1 $311 $447 $313 $466 reversed $189 $-1 #
vertex $-1 $458 $633 #
straight-curve $-1 0 -36.405704192653552 13.59244802766516 1 0 0 I I #
edge $-1 $316 -13.59244802766516 $455 13.59244802766516 $313 $634 forward 7 unknown #
edge $-1 $317 -13.59244802766516 $454 13.59244802766516 $314 $635 forward 7 unknown #
point $-1 79.645985290078443 -36.405704192653552 13.59244802766516 #
point $-1 79.645985290078443 36.405704192653552 13.59244802766516 #
face $-1 $-1 $636 $46 $-1 $637 reversed single #
loop $-1 $-1 $638 $319 #
plane-surface $-1 0 0 -13.59244802766516 0 0 1 1 0 0 forward_v I I I I #
coedge $-1 $480 $490 $475 $639 forward $320 $-1 #
coedge $-1 $325 $322 $638 $640 reversed $197 $-1 #
coedge $-1 $322 $325 $473 $639 reversed $197 $-1 #
coedge $-1 $641 $642 $322 $477 forward $636 $-1 #
edge $-1 $643 -13.59244802766516 $644 13.59244802766516 $476 $645 forward 7 unknown #
coedge $-1 $638 $328 $323 $479 forward $471 $-1 #
edge $-1 $333 -32.231588810884624 $483 -27.085067441823348 $478 $646 forward 7 unknown #
coedge $-1 $330 $473 $324 $481 forward $320 $-1 #
edge $-1 $482 27.085067441823348 $332 32.231588810884624 $480 $647 forward 7 unknown #
vertex $-1 $481 $648 #
vertex $-1 $479 $649 #
straight-curve $-1 -56.743395568177334 -18.466958180466698 0 0 0 -1 I I #
coedge $-1 $642 $641 $327 $486 forward $636 $-1 #
edge $-1 $491 -13.59244802766516 $488 13.59244802766516 $485 $650 forward 7 unknown #
coedge $-1 $328 $638 $642 $651 forward $471 $-1 #
vertex $-1 $329 $652 #
straight-curve $-1 -61.88991693723861 -13.718165593280062 -13.59244802766516 0 1 0 I I #
coedge $-1 $473 $330 $641 $653 forward $320 $-1 #
vertex $-1 $653 $654 #
straight-curve $-1 -61.88991693723861 -13.718165593280062 13.59244802766516 0 -1 0 I I #
point $-1 -61.88991693723861 -18.466958180466698 13.59244802766516 #
point $-1 -61.88991693723861 -18.466958180466698 -13.59244802766516 #
face $-1 $-1 $510 $47 $-1 $655 reversed single #
loop $-1 $-1 $506 $335 #
plane-surface $-1 0 0 -13.59244802766516 0 0 1 1 0 0 forward_v I I I I #
coedge $-1 $656 $657 $501 $658 forward $336 $-1 #
coedge $-1 $345 $338 $657 $659 forward $205 $-1 #
edge $-1 $346 -7.0702839716693546 $660 7.0702839716693546 $340 $661 forward 7 unknown #
coedge $-1 $340 $339 $498 $658 reversed $129 $-1 #
coedge $-1 $506 $662 $339 $503 forward $496 $-1 #
edge $-1 $663 -50.546272135992261 $504 -36.405704192653552 $339 $664 forward 7 unknown #
vertex $-1 $341 $665 #
straight-curve $-1 79.645985290078443 36.405704192653552 0 0 0 -1 I I #
coedge $-1 $666 $502 $342 $507 forward $496 $-1 #
edge $-1 $504 -79.645985290078443 $511 79.645985290078443 $506 $667 forward 7 unknown #
coedge $-1 $668 $343 $345 $513 reversed $510 $-1 #
coedge $-1 $343 $668 $666 $669 reversed $510 $-1 #
loop $-1 $-1 $343 $495 #
vertex $-1 $669 $670 #
straight-curve $-1 -79.645985290078443 36.405704192653552 0 0 0 1 I I #
edge $-1 $671 -7.0702839716693546 $347 7.0702839716693546 $508 $672 forward 7 unknown #
point $-1 79.645985290078443 36.405704192653552 -9.5928244614814382 #
point $-1 -79.645985290078443 36.405704192653552 -9.5928244614814382 #
loop $-1 $-1 $357 $349 #
plane-surface $-1 79.645985290078443 0 0 -1 0 0 0 0 1 forward_v I I I I #
coedge $-1 $519 $352 $354 $523 reversed $213 $-1 #
coedge $-1 $352 $518 $673 $674 reversed $213 $-1 #
coedge $-1 $360 $355 $352 $521 forward $350 $-1 #
edge $-1 $524 42.502804428387797 $675 59.382102901454665 $520 $676 forward 7 unknown #
coedge $-1 $354 $353 $527 $677 reversed $133 $-1 #
edge $-1 $678 -159.29197058015686 $524 -138.68615179791237 $518 $679 forward 7 unknown #
vertex $-1 $356 $680 #
straight-curve $-1 62.766686817011575 -1.4540304543599234 13.592448027665171 0 -1 0 I I #
coedge $-1 $673 $357 $360 $531 reversed $516 $-1 #
coedge $-1 $357 $673 $522 $677 forward $516 $-1 #
vertex $-1 $358 $681 #
straight-curve $-1 79.645985290078443 1.8990890344240743 111.81195014369902 0 0 1 I I #
straight-curve $-1 -50.838357224972214 1.8990890344240743 93.139557772347388 0.81915203911291934 0 -0.57357644374324357 I I #
edge $-1 $675 -7.7152108518637679 $361 1.8990890344240743 $526 $682 forward 7 unknown #
point $-1 79.645985290078443 1.8990890344240743 13.59244802766516 #
point $-1 62.766686817011575 1.8990890344240743 13.592448027665156 #
edge $-1 $683 1 $683 0 $364 $-1 forward 7 unknown #
vertex $-1 $365 $684 #
ellipse-curve $-1 70.085142633390589 -4.968268027210101 6.0817117814849153 0.57357644374324357 0 0.81915203911291934 0.81915203911291934 0 -0.57357644374324357 1 I I #
point $-1 72.025488092657895 -4.968268027210101 7.1093654551531404 #
edge $-1 $685 1 $685 0 $368 $-1 forward 7 unknown #
vertex $-1 $369 $686 #
ellipse-curve $-1 70.085142633390589 -0.84785379022959972 6.0817117814849153 0.57357644374324357 0 0.81915203911291934 0.81915203911291934 0 -0.57357644374324357 1 I I #
point $-1 72.025488092657895 -0.84785379022959972 7.1093654551531404 #
plane-surface $-1 0 0 13.59244802766516 0 0 1 1 0 0 forward_v I I I I #
coedge $-1 $553 $552 $545 $687 forward $373 $-1 #
coedge $-1 $545 $375 $377 $549 reversed $235 $-1 #
coedge $-1 $375 $544 $543 $687 reversed $235 $-1 #
coedge $-1 $383 $378 $375 $547 forward $384 $-1 #
edge $-1 $550 42.502804428387797 $688 59.382102901454665 $546 $689 forward 7 unknown #
coedge $-1 $377 $376 $553 $690 reversed $147 $-1 #
edge $-1 $691 -159.29197058015686 $550 -138.68615179791237 $544 $692 forward 7 unknown #
vertex $-1 $379 $693 #
straight-curve $-1 62.766686817011575 8.7289931530854616 13.592448027665171 0 -1 0 I I #
coedge $-1 $543 $380 $383 $557 reversed $373 $-1 #
coedge $-1 $380 $543 $548 $690 forward $373 $-1 #
vertex $-1 $381 $694 #
straight-curve $-1 79.645985290078443 22.265136249314843 111.81195014369902 0 0 1 I I #
straight-curve $-1 -50.838357224972214 22.265136249314843 93.139557772347388 0.81915203911291934 0 -0.57357644374324357 I I #
edge $-1 $688 12.650836363027002 $385 22.265136249314843 $552 $695 forward 7 unknown #
point $-1 79.645985290078443 22.265136249314843 13.59244802766516 #
point $-1 62.766686817011575 22.265136249314843 13.592448027665156 #
edge $-1 $696 1 $696 0 $388 $-1 forward 7 unknown #
vertex $-1 $389 $697 #
ellipse-curve $-1 70.085142633390589 15.397779187680669 6.0817117814849153 0.57357644374324357 0 0.81915203911291934 0.81915203911291934 0 -0.57357644374324357 1 I I #
point $-1 72.025488092657895 15.397779187680669 7.1093654551531404 #
edge $-1 $698 1 $698 0 $392 $-1 forward 7 unknown #
vertex $-1 $393 $699 #
ellipse-curve $-1 70.085142633390589 19.51819342466117 6.0817117814849153 0.57357644374324357 0 0.81915203911291934 0.81915203911291934 0 -0.57357644374324357 1 I I #
point $-1 72.025488092657895 19.51819342466117 7.1093654551531404 #
plane-surface $-1 0 0 13.59244802766516 0 0 1 1 0 0 forward_v I I I I #
coedge $-1 $579 $578 $571 $700 forward $397 $-1 #
coedge $-1 $571 $399 $401 $575 reversed $257 $-1 #
coedge $-1 $399 $570 $569 $700 reversed $257 $-1 #
coedge $-1 $407 $402 $399 $573 forward $408 $-1 #
edge $-1 $576 -22.739366829137523 $701 -5.8600683560706699 $572 $702 forward 7 unknown #
coedge $-1 $401 $400 $579 $703 reversed $161 $-1 #
edge $-1 $704 1.7372030585532449e-014 $576 20.605818782244491 $570 $705 forward 7 unknown #
vertex $-1 $403 $706 #
straight-curve $-1 -62.766686817011596 -1.4540304543599234 13.592448027665162 0 1 0 I I #
coedge $-1 $569 $404 $407 $583 reversed $397 $-1 #
coedge $-1 $404 $569 $574 $703 forward $397 $-1 #
vertex $-1 $405 $707 #
straight-curve $-1 -79.645985290078443 -7.7152108518637679 66.128889142589145 0 0 1 I I #
straight-curve $-1 -79.645985290078457 -7.7152108518637679 1.7734357701276338 -0.81915203911291934 0 -0.57357644374324357 I I #
edge $-1 $701 -1.8990890344240743 $409 7.7152108518637679 $578 $708 forward 7 unknown #
point $-1 -79.645985290078443 -7.7152108518637679 13.59244802766516 #
point $-1 -62.766686817011589 -7.7152108518637679 13.59244802766516 #
edge $-1 $709 1 $709 0 $412 $-1 forward 7 unknown #
vertex $-1 $413 $710 #
ellipse-curve $-1 -70.085142633390603 -4.968268027210101 6.0817117814849118 -0.57357644374324357 0 0.81915203911291934 0.81915203911291934 0 0.57357644374324357 1 I I #
point $-1 -70.387184014432066 -4.968268027210101 8.2565183426396231 #
edge $-1 $711 1 $711 0 $416 $-1 forward 7 unknown #
vertex $-1 $417 $712 #
ellipse-curve $-1 -70.085142633390603 -0.84785379022959972 6.0817117814849118 -0.57357644374324357 0 0.81915203911291934 0.81915203911291934 0 0.57357644374324357 1 I I #
point $-1 -70.387184014432066 -0.84785379022959972 8.2565183426396231 #
loop $-1 $-1 $428 $420 #
plane-surface $-1 -79.645985290078443 0 0 1 0 0 0 0 -1 forward_v I I I I #
coedge $-1 $597 $423 $425 $601 reversed $279 $-1 #
coedge $-1 $423 $596 $713 $714 reversed $279 $-1 #
coedge $-1 $431 $426 $423 $599 forward $421 $-1 #
edge $-1 $602 -22.739366829137523 $715 -5.8600683560706699 $598 $716 forward 7 unknown #
coedge $-1 $425 $424 $605 $717 reversed $175 $-1 #
edge $-1 $718 1.7372030585532449e-014 $602 20.605818782244491 $596 $719 forward 7 unknown #
vertex $-1 $427 $720 #
straight-curve $-1 -62.766686817011596 8.7289931530854616 13.592448027665162 0 1 0 I I #
coedge $-1 $713 $428 $431 $609 reversed $594 $-1 #
coedge $-1 $428 $713 $600 $717 forward $594 $-1 #
vertex $-1 $429 $721 #
straight-curve $-1 -79.645985290078443 12.650836363027002 66.128889142589145 0 0 1 I I #
straight-curve $-1 -79.645985290078457 12.650836363027002 1.7734357701276338 -0.81915203911291934 0 -0.57357644374324357 I I #
edge $-1 $715 -22.265136249314843 $432 -12.650836363027002 $604 $722 forward 7 unknown #
point $-1 -79.645985290078443 12.650836363027002 13.59244802766516 #
point $-1 -62.766686817011589 12.650836363027002 13.59244802766516 #
edge $-1 $723 1 $723 0 $435 $-1 forward 7 unknown #
vertex $-1 $436 $724 #
ellipse-curve $-1 -70.085142633390603 15.397779187680669 6.0817117814849118 -0.57357644374324357 0 0.81915203911291934 0.81915203911291934 0 0.57357644374324357 1 I I #
point $-1 -70.387184014432066 15.397779187680669 8.2565183426396231 #
edge $-1 $725 1 $725 0 $439 $-1 forward 7 unknown #
vertex $-1 $440 $726 #
ellipse-curve $-1 -70.085142633390603 19.51819342466117 6.0817117814849118 -0.57357644374324357 0 0.81915203911291934 0.81915203911291934 0 0.57357644374324357 1 I I #
point $-1 -70.387184014432066 19.51819342466117 8.2565183426396231 #
plane-surface $-1 79.645985290078443 0 0 -1 0 0 0 0 1 forward_v I I I I #
coedge $-1 $448 $446 $450 $625 reversed $301 $-1 #
edge $-1 $461 -13.59244802766516 $627 13.59244802766516 $460 $727 forward 7 unknown #
vertex $-1 $625 $728 #
straight-curve $-1 -79.645985290078443 -36.405704192653552 0 0 0 -1 I I #
edge $-1 $623 -36.405704192653552 $627 36.405704192653552 $621 $729 forward 7 unknown #
straight-curve $-1 0 -36.405704192653552 -13.59244802766516 -1 0 0 I I #
vertex $-1 $453 $730 #
straight-curve $-1 0 36.405704192653552 -13.59244802766516 1 0 0 I I #
point $-1 79.645985290078443 36.405704192653552 -13.59244802766516 #
point $-1 79.645985290078443 -36.405704192653552 -13.59244802766516 #
straight-curve $-1 -79.645985290078443 0 13.59244802766516 0 -1 0 I I #
point $-1 -79.645985290078443 36.405704192653552 13.59244802766516 #
point $-1 -79.645985290078443 -36.405704192653552 13.59244802766516 #
straight-curve $-1 79.645985290078443 -36.405704192653552 0 0 0 -1 I I #
straight-curve $-1 79.645985290078443 36.405704192653552 0 0 0 -1 I I #
loop $-1 $-1 $476 $470 #
plane-surface $-1 0 -36.405704192653552 0 0 1 0 0 0 1 forward_v I I I I #
coedge $-1 $487 $478 $474 $640 forward $471 $-1 #
edge $-1 $644 -22.687538599373489 $482 -4.7487925871866352 $473 $731 forward 7 unknown #
edge $-1 $483 4.7487925871866352 $643 22.687538599373489 $638 $732 forward 7 unknown #
coedge $-1 $485 $476 $490 $653 reversed $636 $-1 #
coedge $-1 $476 $485 $487 $651 reversed $636 $-1 #
vertex $-1 $651 $733 #
vertex $-1 $477 $734 #
straight-curve $-1 -56.743395568177334 -36.405704192653552 0 0 0 1 I I #
straight-curve $-1 -29.658328126353986 -18.466958180466698 -13.59244802766516 1 0 0 I I #
straight-curve $-1 -29.658328126353986 -18.466958180466698 13.59244802766516 -1 0 0 I I #
point $-1 -56.743395568177334 -18.466958180466698 13.59244802766516 #
point $-1 -56.743395568177334 -18.466958180466698 -13.59244802766516 #
straight-curve $-1 -61.88991693723861 -36.405704192653552 0 0 0 -1 I I #
edge $-1 $643 56.743395568177334 $488 61.88991693723861 $642 $735 forward 7 unknown #
point $-1 -61.88991693723861 -36.405704192653552 -13.59244802766516 #
edge $-1 $491 -61.88991693723861 $644 -56.743395568177334 $641 $736 forward 7 unknown #
point $-1 -61.88991693723861 -36.405704192653552 13.59244802766516 #
plane-surface $-1 -79.645985290078443 0 0 1 0 0 0 0 -1 forward_v I I I I #
coedge $-1 $737 $498 $662 $738 reversed $336 $-1 #
coedge $-1 $498 $737 $499 $659 reversed $336 $-1 #
edge $-1 $660 -1.9998117830918609 $663 1.9998117830918609 $501 $739 forward 7 unknown #
edge $-1 $660 -79.645985290078443 $671 79.645985290078443 $657 $740 forward 7 unknown #
vertex $-1 $500 $741 #
straight-curve $-1 79.645985290078443 43.475988164322906 -9.5928244614814382 0 1 0 I I #
coedge $-1 $502 $666 $656 $738 forward $496 $-1 #
vertex $-1 $503 $742 #
straight-curve $-1 79.645985290078443 0 -13.59244802766516 0 -1 0 I I #
point $-1 79.645985290078443 36.405704192653552 -13.59244802766516 #
coedge $-1 $662 $506 $509 $669 forward $496 $-1 #
straight-curve $-1 0 36.405704192653552 -13.59244802766516 -1 0 0 I I #
coedge $-1 $509 $508 $737 $743 forward $510 $-1 #
edge $-1 $511 -7.0702839716693546 $744 7.0702839716693546 $509 $745 forward 7 unknown #
point $-1 -79.645985290078443 36.405704192653552 -13.59244802766516 #
vertex $-1 $659 $746 #
straight-curve $-1 -79.645985290078443 43.475988164322906 -9.5928244614814382 0 -1 0 I I #
coedge $-1 $527 $526 $519 $674 forward $516 $-1 #
edge $-1 $675 98.219502116033865 $678 110.03851437357139 $673 $747 forward 7 unknown #
vertex $-1 $531 $748 #
straight-curve $-1 20.263882388623777 -7.7152108518637679 13.592448027665156 1 0 0 I I #
edge $-1 $678 -6.2611803975038445 $528 3.3531194887839977 $527 $749 forward 7 unknown #
vertex $-1 $677 $750 #
straight-curve $-1 -50.838357224972214 -7.7152108518637679 93.139557772347388 -0.81915203911291934 0 0.57357644374324357 I I #
point $-1 62.766686817011575 -7.7152108518637679 13.592448027665156 #
point $-1 79.645985290078443 1.8990890344240743 1.7734357701276338 #
straight-curve $-1 79.645985290078443 0 13.59244802766516 0 1 0 I I #
vertex $-1 $534 $751 #
point $-1 70.904294672503511 -4.968268027210101 5.5081353377416713 #
vertex $-1 $538 $752 #
point $-1 70.904294672503511 -0.84785379022959972 5.5081353377416713 #
edge $-1 $688 98.219502116033865 $691 110.03851437357139 $543 $753 forward 7 unknown #
vertex $-1 $557 $754 #
straight-curve $-1 20.263882388623777 12.650836363027002 13.592448027665156 1 0 0 I I #
edge $-1 $691 3.9218432099415406 $554 13.536143096229381 $553 $755 forward 7 unknown #
vertex $-1 $690 $756 #
straight-curve $-1 -50.838357224972214 12.650836363027002 93.139557772347388 -0.81915203911291934 0 0.57357644374324357 I I #
point $-1 62.766686817011575 12.650836363027002 13.592448027665156 #
point $-1 79.645985290078443 22.265136249314843 1.7734357701276338 #
straight-curve $-1 79.645985290078443 0 13.59244802766516 0 1 0 I I #
vertex $-1 $560 $757 #
point $-1 70.904294672503511 15.397779187680669 5.5081353377416713 #
vertex $-1 $564 $758 #
point $-1 70.904294672503511 19.51819342466117 5.5081353377416713 #
edge $-1 $701 52.536441114923988 $704 64.355453372461497 $569 $759 forward 7 unknown #
vertex $-1 $583 $760 #
straight-curve $-1 -85.506053646149113 1.8990890344240743 13.592448027665156 -1 0 0 I I #
edge $-1 $704 -3.3531194887839977 $580 6.2611803975038445 $579 $761 forward 7 unknown #
vertex $-1 $703 $762 #
straight-curve $-1 -79.645985290078457 1.8990890344240743 1.7734357701276338 0.81915203911291934 0 0.57357644374324357 I I #
point $-1 -62.766686817011589 1.8990890344240743 13.59244802766516 #
point $-1 -79.645985290078443 -7.7152108518637679 1.7734357701276438 #
straight-curve $-1 -79.645985290078443 0 13.59244802766516 0 -1 0 I I #
vertex $-1 $586 $763 #
point $-1 -69.265990594277682 -4.968268027210101 6.6552882252281549 #
vertex $-1 $590 $764 #
point $-1 -69.265990594277682 -0.84785379022959972 6.6552882252281549 #
coedge $-1 $605 $604 $597 $714 forward $594 $-1 #
edge $-1 $715 52.536441114923988 $718 64.355453372461497 $713 $765 forward 7 unknown #
vertex $-1 $609 $766 #
straight-curve $-1 -85.506053646149113 22.265136249314843 13.592448027665156 -1 0 0 I I #
edge $-1 $718 -13.536143096229381 $606 -3.9218432099415406 $605 $767 forward 7 unknown #
vertex $-1 $717 $768 #
straight-curve $-1 -79.645985290078457 22.265136249314843 1.7734357701276338 0.81915203911291934 0 0.57357644374324357 I I #
point $-1 -62.766686817011589 22.265136249314843 13.59244802766516 #
point $-1 -79.645985290078443 12.650836363027002 1.7734357701276438 #
straight-curve $-1 -79.645985290078443 0 13.59244802766516 0 -1 0 I I #
vertex $-1 $612 $769 #
point $-1 -69.265990594277682 15.397779187680669 6.6552882252281549 #
vertex $-1 $616 $770 #
point $-1 -69.265990594277682 19.51819342466117 6.6552882252281549 #
straight-curve $-1 -79.645985290078443 36.405704192653552 0 0 0 -1 I I #
point $-1 -79.645985290078443 -36.405704192653552 -13.59244802766516 #
straight-curve $-1 -79.645985290078443 0 -13.59244802766516 0 1 0 I I #
point $-1 -79.645985290078443 36.405704192653552 -13.59244802766516 #
straight-curve $-1 -56.743395568177334 -13.718165593280062 13.59244802766516 0 1 0 I I #
straight-curve $-1 -56.743395568177334 -13.718165593280062 -13.59244802766516 0 -1 0 I I #
point $-1 -56.743395568177334 -36.405704192653552 -13.59244802766516 #
point $-1 -56.743395568177334 -36.405704192653552 13.59244802766516 #
straight-curve $-1 0 -36.405704192653552 -13.59244802766516 -1 0 0 I I #
straight-curve $-1 0 -36.405704192653552 13.59244802766516 1 0 0 I I #
coedge $-1 $657 $656 $668 $743 reversed $336 $-1 #
edge $-1 $744 -79.645985290078443 $663 79.645985290078443 $656 $771 forward 7 unknown #
straight-curve $-1 79.645985290078443 50.546272135992261 -11.592636244573299 0 0 -1 I I #
straight-curve $-1 0 50.546272135992261 -9.5928244614814382 -1 0 0 I I #
point $-1 79.645985290078443 50.546272135992261 -9.5928244614814382 #
point $-1 79.645985290078443 50.546272135992261 -13.59244802766516 #
edge $-1 $671 -1.9998117830918609 $744 1.9998117830918609 $737 $772 forward 7 unknown #
vertex $-1 $738 $773 #
straight-curve $-1 -79.645985290078443 43.475988164322906 -13.59244802766516 0 1 0 I I #
point $-1 -79.645985290078443 50.546272135992261 -9.5928244614814382 #
straight-curve $-1 79.645985290078443 -7.7152108518637679 111.81195014369902 0 0 -1 I I #
point $-1 79.645985290078443 -7.7152108518637679 13.59244802766516 #
straight-curve $-1 79.645985290078443 -1.4540304543599234 1.7734357701276195 0 1 0 I I #
point $-1 79.645985290078443 -7.7152108518637679 1.7734357701276338 #
point $-1 69.511566189647354 -4.968268027210101 5.2625597423719954 #
point $-1 69.511566189647354 -0.84785379022959972 5.2625597423719954 #
straight-curve $-1 79.645985290078443 12.650836363027002 111.81195014369902 0 0 -1 I I #
point $-1 79.645985290078443 12.650836363027002 13.59244802766516 #
straight-curve $-1 79.645985290078443 8.7289931530854616 1.7734357701276195 0 1 0 I I #
point $-1 79.645985290078443 12.650836363027002 1.7734357701276338 #
point $-1 69.511566189647354 15.397779187680669 5.2625597423719954 #
point $-1 69.511566189647354 19.51819342466117 5.2625597423719954 #
straight-curve $-1 -79.645985290078443 1.8990890344240743 66.128889142589145 0 0 -1 I I #
point $-1 -79.645985290078443 1.8990890344240743 13.59244802766516 #
straight-curve $-1 -79.645985290078443 -1.4540304543599234 1.7734357701276422 0 -1 0 I I #
point $-1 -79.645985290078443 1.8990890344240743 1.7734357701276438 #
point $-1 -69.511566189647368 -4.968268027210101 5.2625597423719919 #
point $-1 -69.511566189647368 -0.84785379022959972 5.2625597423719919 #
straight-curve $-1 -79.645985290078443 22.265136249314843 66.128889142589145 0 0 -1 I I #
point $-1 -79.645985290078443 22.265136249314843 13.59244802766516 #
straight-curve $-1 -79.645985290078443 8.7289931530854616 1.7734357701276422 0 -1 0 I I #
point $-1 -79.645985290078443 22.265136249314843 1.7734357701276438 #
point $-1 -69.511566189647368 15.397779187680669 5.2625597423719919 #
point $-1 -69.511566189647368 19.51819342466117 5.2625597423719919 #
straight-curve $-1 0 50.546272135992261 -13.59244802766516 1 0 0 I I #
straight-curve $-1 -79.645985290078443 50.546272135992261 -11.592636244573299 0 0 -1 I I #
point $-1 -79.645985290078443 50.546272135992261 -13.59244802766516 #
End-of-ACIS-data 