500 0 14 0           
7 Unknown 11 ACIS 5.0 NT 24 Thu Mar 25 17:54:32 1999 
-1 9.9999999999999995e-007 1e-010 
body $-1 $14 $-1 $15 #
body $-1 $16 $-1 $17 #
body $-1 $18 $-1 $19 #
body $-1 $20 $-1 $21 #
body $-1 $22 $-1 $23 #
body $-1 $24 $-1 $25 #
body $-1 $26 $-1 $27 #
body $-1 $28 $-1 $29 #
body $-1 $30 $-1 $31 #
body $-1 $32 $-1 $33 #
body $-1 $34 $-1 $35 #
body $-1 $36 $-1 $37 #
body $-1 $38 $-1 $39 #
body $-1 $40 $-1 $41 #
lump $-1 $-1 $42 $0 #
transform $-1 1 0 0 0 1 0 0 0 1 75.170751060518199 46.284370584624121 19.152918059880179 1 rotate no_reflect no_shear #
lump $-1 $-1 $43 $1 #
transform $-1 1 0 0 0 1 0 0 0 1 75.170751060518199 46.284370584624121 19.152918059880179 1 rotate no_reflect no_shear #
lump $-1 $-1 $44 $2 #
transform $-1 1 0 0 0 1 0 0 0 1 75.170751060518199 46.284370584624121 19.152918059880179 1 rotate no_reflect no_shear #
lump $-1 $-1 $45 $3 #
transform $-1 1 0 0 0 1 0 0 0 1 75.170751060518199 46.284370584624121 19.152918059880179 1 rotate no_reflect no_shear #
lump $-1 $-1 $46 $4 #
transform $-1 1 0 0 0 1 0 0 0 1 75.170751060518199 46.284370584624121 19.152918059880179 1 rotate no_reflect no_shear #
lump $-1 $-1 $47 $5 #
transform $-1 1 0 0 0 1 0 0 0 1 75.170751060518199 46.284370584624121 19.152918059880179 1 rotate no_reflect no_shear #
lump $-1 $-1 $48 $6 #
transform $-1 1 0 0 0 1 0 0 0 1 75.170751060518199 46.284370584624121 19.152918059880179 1 rotate no_reflect no_shear #
lump $-1 $-1 $49 $7 #
transform $-1 1 0 0 0 1 0 0 0 1 75.170751060518199 46.284370584624121 19.152918059880179 1 rotate no_reflect no_shear #
lump $-1 $-1 $50 $8 #
transform $-1 1 0 0 0 1 0 0 0 1 75.170751060518199 46.284370584624121 19.152918059880179 1 rotate no_reflect no_shear #
lump $-1 $-1 $51 $9 #
transform $-1 1 0 0 0 1 0 0 0 1 75.170751060518199 46.284370584624121 19.152918059880179 1 rotate no_reflect no_shear #
lump $-1 $-1 $52 $10 #
transform $-1 1 0 0 0 1 0 0 0 1 75.170751060518199 46.284370584624121 19.152918059880179 1 rotate no_reflect no_shear #
lump $-1 $-1 $53 $11 #
transform $-1 1 0 0 0 1 0 0 0 1 75.170751060518199 46.284370584624121 19.152918059880179 1 rotate no_reflect no_shear #
lump $-1 $-1 $54 $12 #
transform $-1 1 0 0 0 1 0 0 0 1 75.170751060518199 46.284370584624121 19.152918059880179 1 rotate no_reflect no_shear #
lump $-1 $-1 $55 $13 #
transform $-1 1 0 0 0 1 0 0 0 1 75.170751060518199 46.284370584624121 19.152918059880179 1 rotate no_reflect no_shear #
shell $-1 $-1 $-1 $56 $-1 $14 #
shell $-1 $-1 $-1 $57 $-1 $16 #
shell $-1 $-1 $-1 $58 $-1 $18 #
shell $-1 $-1 $-1 $59 $-1 $20 #
shell $-1 $-1 $-1 $60 $-1 $22 #
shell $-1 $-1 $-1 $61 $-1 $24 #
shell $-1 $-1 $-1 $62 $-1 $26 #
shell $-1 $-1 $-1 $63 $-1 $28 #
shell $-1 $-1 $-1 $64 $-1 $30 #
shell $-1 $-1 $-1 $65 $-1 $32 #
shell $-1 $-1 $-1 $66 $-1 $34 #
shell $-1 $-1 $-1 $67 $-1 $36 #
shell $-1 $-1 $-1 $68 $-1 $38 #
shell $-1 $-1 $-1 $69 $-1 $40 #
face $-1 $70 $71 $42 $-1 $72 forward single #
face $-1 $73 $74 $43 $-1 $75 forward single #
face $-1 $76 $77 $44 $-1 $78 reversed single #
face $-1 $79 $80 $45 $-1 $81 forward single #
face $-1 $82 $83 $46 $-1 $84 forward single #
face $-1 $85 $86 $47 $-1 $87 reversed single #
face $-1 $88 $89 $48 $-1 $90 forward single #
face $-1 $91 $92 $49 $-1 $93 forward single #
face $-1 $94 $95 $50 $-1 $96 reversed single #
face $-1 $97 $98 $51 $-1 $99 forward single #
face $-1 $100 $101 $52 $-1 $102 forward single #
face $-1 $103 $104 $53 $-1 $105 reversed single #
face $-1 $106 $107 $54 $-1 $108 forward single #
face $-1 $109 $110 $55 $-1 $111 forward single #
face $-1 $112 $113 $42 $-1 $114 reversed single #
loop $-1 $-1 $115 $56 #
plane-surface $-1 0 0 19.152918059880179 0 0 1 1 0 0 forward_v I I I I #
face $-1 $116 $117 $43 $-1 $118 forward single #
loop $-1 $-1 $119 $57 #
plane-surface $-1 0 -46.284370584624121 0 0 1 0 0 0 1 forward_v I I I I #
face $-1 $120 $121 $44 $-1 $122 reversed single #
loop $-1 $-1 $123 $58 #
plane-surface $-1 -58.094049555750217 65.898679813055253 175.5327146194216 1 0 0 0 -0.61566148304635926 -0.78801074757464917 forward_v I I I I #
face $-1 $124 $125 $45 $-1 $126 forward single #
loop $-1 $127 $128 $59 #
cone-surface $-1 -52.234428405609904 32.990269331944056 8.2267710223755497 0 -0.61566148304635926 -0.78801074757464917 1.5 0 0 1 I I 0 1 1.5 forward I I I I #
face $-1 $129 $130 $46 $-1 $131 forward single #
loop $-1 $132 $133 $60 #
cone-surface $-1 -43.44499668039942 32.990269331944056 8.2267710223755497 0 -0.61566148304635926 -0.78801074757464917 1.5 0 0 1 I I 0 1 1.5 forward I I I I #
face $-1 $134 $135 $47 $-1 $136 reversed single #
loop $-1 $-1 $137 $61 #
plane-surface $-1 -20.508674025491125 65.898679813055253 175.5327146194216 1 0 0 0 -0.61566148304635926 -0.78801074757464917 forward_v I I I I #
face $-1 $138 $139 $48 $-1 $140 forward single #
loop $-1 $141 $142 $62 #
cone-surface $-1 -14.649052875350804 32.990269331944056 8.2267710223755497 0 -0.61566148304635926 -0.78801074757464917 1.5 0 0 1 I I 0 1 1.5 forward I I I I #
face $-1 $143 $144 $49 $-1 $145 forward single #
loop $-1 $146 $147 $63 #
cone-surface $-1 -5.8596211501403275 32.990269331944056 8.2267710223755497 0 -0.61566148304635926 -0.78801074757464917 1.5 0 0 1 I I 0 1 1.5 forward I I I I #
face $-1 $148 $149 $50 $-1 $150 reversed single #
loop $-1 $-1 $151 $64 #
plane-surface $-1 17.076701504767975 65.898679813055253 175.5327146194216 1 0 0 0 -0.61566148304635926 -0.78801074757464917 forward_v I I I I #
face $-1 $152 $153 $51 $-1 $154 forward single #
loop $-1 $155 $156 $65 #
cone-surface $-1 22.936322654908295 32.990269331944056 8.2267710223755497 0 -0.61566148304635926 -0.78801074757464917 1.5 0 0 1 I I 0 1 1.5 forward I I I I #
face $-1 $157 $158 $52 $-1 $159 forward single #
loop $-1 $160 $161 $66 #
cone-surface $-1 31.725754380118772 32.990269331944056 8.2267710223755497 0 -0.61566148304635926 -0.78801074757464917 1.5 0 0 1 I I 0 1 1.5 forward I I I I #
face $-1 $162 $163 $53 $-1 $164 reversed single #
loop $-1 $-1 $165 $67 #
plane-surface $-1 54.662077035027075 65.898679813055253 175.5327146194216 1 0 0 0 -0.61566148304635926 -0.78801074757464917 forward_v I I I I #
face $-1 $166 $167 $54 $-1 $168 forward single #
loop $-1 $169 $170 $68 #
cone-surface $-1 60.521698185167395 32.990269331944056 8.2267710223755497 0 -0.61566148304635926 -0.78801074757464917 1.5 0 0 1 I I 0 1 1.5 forward I I I I #
face $-1 $171 $172 $55 $-1 $173 forward single #
loop $-1 $174 $175 $69 #
cone-surface $-1 69.311129910377872 32.990269331944056 8.2267710223755497 0 -0.61566148304635926 -0.78801074757464917 1.5 0 0 1 I I 0 1 1.5 forward I I I I #
face $-1 $176 $177 $42 $-1 $178 reversed single #
loop $-1 $-1 $179 $70 #
plane-surface $-1 0 0 -19.152918059880179 0 0 1 1 0 0 forward_v I I I I #
coedge $-1 $180 $181 $182 $183 forward $71 $-1 #
face $-1 $184 $185 $43 $-1 $186 reversed single #
loop $-1 $-1 $187 $73 #
plane-surface $-1 0 0 19.152918059880179 0 0 1 1 0 0 forward_v I I I I #
coedge $-1 $188 $189 $190 $191 forward $74 $-1 #
face $-1 $192 $193 $44 $-1 $194 reversed single #
loop $-1 $-1 $195 $76 #
plane-surface $-1 -47.839712543004659 -26.660792346199386 57.061995141528001 0 0.61566148304635926 0.78801074757464917 1 0 0 forward_v I I I I #
coedge $-1 $196 $197 $198 $199 reversed $77 $-1 #
face $-1 $-1 $200 $45 $-1 $201 forward single #
loop $-1 $202 $203 $79 #
cone-surface $-1 -52.234428405609904 31.44630092493454 6.2505816193629968 0 -0.61566148304635926 -0.78801074757464917 0.75 0 0 1 I I -0.70710678118654757 0.70710678118654757 0.75 forward I I I I #
loop $-1 $-1 $204 $59 #
coedge $-1 $128 $128 $205 $206 reversed $80 $-1 #
face $-1 $-1 $207 $46 $-1 $208 forward single #
loop $-1 $209 $210 $82 #
cone-surface $-1 -43.44499668039942 31.44630092493454 6.2505816193629968 0 -0.61566148304635926 -0.78801074757464917 0.75 0 0 1 I I -0.70710678118654757 0.70710678118654757 0.75 forward I I I I #
loop $-1 $-1 $211 $60 #
coedge $-1 $133 $133 $212 $213 reversed $83 $-1 #
face $-1 $214 $215 $47 $-1 $216 reversed single #
loop $-1 $-1 $217 $85 #
plane-surface $-1 -10.254337012745566 -26.660792346199386 57.061995141528001 0 0.61566148304635926 0.78801074757464917 1 0 0 forward_v I I I I #
coedge $-1 $218 $219 $220 $221 reversed $86 $-1 #
face $-1 $-1 $222 $48 $-1 $223 forward single #
loop $-1 $224 $225 $88 #
cone-surface $-1 -14.649052875350804 31.44630092493454 6.2505816193629968 0 -0.61566148304635926 -0.78801074757464917 0.75 0 0 1 I I -0.70710678118654757 0.70710678118654757 0.75 forward I I I I #
loop $-1 $-1 $226 $62 #
coedge $-1 $142 $142 $227 $228 reversed $89 $-1 #
face $-1 $-1 $229 $49 $-1 $230 forward single #
loop $-1 $231 $232 $91 #
cone-surface $-1 -5.8596211501403275 31.44630092493454 6.2505816193629968 0 -0.61566148304635926 -0.78801074757464917 0.75 0 0 1 I I -0.70710678118654757 0.70710678118654757 0.75 forward I I I I #
loop $-1 $-1 $233 $63 #
coedge $-1 $147 $147 $234 $235 reversed $92 $-1 #
face $-1 $236 $237 $50 $-1 $238 reversed single #
loop $-1 $-1 $239 $94 #
plane-surface $-1 27.331038517513534 -26.660792346199386 57.061995141528001 0 0.61566148304635926 0.78801074757464917 1 0 0 forward_v I I I I #
coedge $-1 $240 $241 $242 $243 reversed $95 $-1 #
face $-1 $-1 $244 $51 $-1 $245 forward single #
loop $-1 $246 $247 $97 #
cone-surface $-1 22.936322654908295 31.44630092493454 6.2505816193629968 0 -0.61566148304635926 -0.78801074757464917 0.75 0 0 1 I I -0.70710678118654757 0.70710678118654757 0.75 forward I I I I #
loop $-1 $-1 $248 $65 #
coedge $-1 $156 $156 $249 $250 reversed $98 $-1 #
face $-1 $-1 $251 $52 $-1 $252 forward single #
loop $-1 $253 $254 $100 #
cone-surface $-1 31.725754380118772 31.44630092493454 6.2505816193629968 0 -0.61566148304635926 -0.78801074757464917 0.75 0 0 1 I I -0.70710678118654757 0.70710678118654757 0.75 forward I I I I #
loop $-1 $-1 $255 $66 #
coedge $-1 $161 $161 $256 $257 reversed $101 $-1 #
face $-1 $258 $259 $53 $-1 $260 forward single #
loop $-1 $-1 $261 $103 #
plane-surface $-1 64.916414047772633 -26.660792346199386 57.061995141528001 0 0.61566148304635926 0.78801074757464917 1 0 0 forward_v I I I I #
coedge $-1 $262 $263 $264 $265 reversed $104 $-1 #
face $-1 $-1 $266 $54 $-1 $267 forward single #
loop $-1 $268 $269 $106 #
cone-surface $-1 60.521698185167395 31.44630092493454 6.2505816193629968 0 -0.61566148304635926 -0.78801074757464917 0.75 0 0 1 I I -0.70710678118654757 0.70710678118654757 0.75 forward I I I I #
loop $-1 $-1 $270 $68 #
coedge $-1 $170 $170 $271 $272 reversed $107 $-1 #
face $-1 $-1 $273 $55 $-1 $274 forward single #
loop $-1 $275 $276 $109 #
cone-surface $-1 69.311129910377872 31.44630092493454 6.2505816193629968 0 -0.61566148304635926 -0.78801074757464917 0.75 0 0 1 I I -0.70710678118654757 0.70710678118654757 0.75 forward I I I I #
loop $-1 $-1 $277 $69 #
coedge $-1 $175 $175 $278 $279 reversed $110 $-1 #
face $-1 $280 $281 $42 $-1 $282 reversed single #
loop $-1 $-1 $283 $112 #
plane-surface $-1 0 -46.284370584624121 0 0 1 0 0 0 1 forward_v I I I I #
coedge $-1 $284 $285 $286 $287 forward $113 $-1 #
coedge $-1 $288 $115 $289 $290 forward $71 $-1 #
coedge $-1 $115 $288 $291 $292 forward $71 $-1 #
coedge $-1 $293 $294 $115 $183 reversed $295 $-1 #
edge $-1 $296 -46.284370584624121 $297 46.284370584624121 $182 $298 forward 7 unknown #
face $-1 $299 $300 $43 $-1 $301 reversed single #
loop $-1 $-1 $302 $116 #
plane-surface $-1 -75.170751060518199 0 0 1 0 0 0 0 -1 forward_v I I I I #
coedge $-1 $303 $304 $305 $306 forward $117 $-1 #
coedge $-1 $305 $119 $302 $307 reversed $74 $-1 #
coedge $-1 $119 $305 $308 $309 reversed $74 $-1 #
coedge $-1 $310 $311 $119 $191 reversed $300 $-1 #
edge $-1 $312 -75.170751060518199 $313 75.170751060518199 $190 $314 forward 7 unknown #
face $-1 $315 $316 $44 $-1 $317 reversed single #
loop $-1 $-1 $318 $120 #
plane-surface $-1 -37.5853755302591 65.898679813055253 175.5327146194216 -1 0 0 0 0.61566148304635926 0.78801074757464917 forward_v I I I I #
coedge $-1 $319 $320 $321 $322 reversed $121 $-1 #
coedge $-1 $197 $123 $323 $324 reversed $77 $-1 #
coedge $-1 $123 $196 $319 $325 reversed $77 $-1 #
coedge $-1 $321 $326 $123 $199 forward $327 $-1 #
edge $-1 $328 -13.335030678096494 $329 11.088727237814162 $198 $330 forward 7 unknown #
loop $-1 $-1 $205 $124 #
plane-surface $-1 -47.839712543004659 -26.660792346199386 57.061995141528001 0 0.61566148304635926 0.78801074757464917 1 0 0 forward_v I I I I #
loop $-1 $-1 $331 $79 #
coedge $-1 $203 $203 $204 $332 reversed $125 $-1 #
coedge $-1 $204 $204 $203 $332 forward $127 $-1 #
coedge $-1 $205 $205 $128 $206 forward $200 $-1 #
edge $-1 $333 -2.1872689723294028e-015 $333 6.2831853071795987 $205 $334 forward 7 unknown #
loop $-1 $-1 $212 $129 #
plane-surface $-1 -47.839712543004659 -26.660792346199386 57.061995141528001 0 0.61566148304635926 0.78801074757464917 1 0 0 forward_v I I I I #
loop $-1 $-1 $335 $82 #
coedge $-1 $210 $210 $211 $336 reversed $130 $-1 #
coedge $-1 $211 $211 $210 $336 forward $132 $-1 #
coedge $-1 $212 $212 $133 $213 forward $207 $-1 #
edge $-1 $337 -2.1872689723294028e-015 $337 6.2831853071795987 $212 $338 forward 7 unknown #
face $-1 $339 $340 $47 $-1 $341 forward single #
loop $-1 $-1 $342 $134 #
plane-surface $-1 -5.3290705182007514e-015 65.898679813055253 175.5327146194216 -1 0 0 0 0.61566148304635926 0.78801074757464917 forward_v I I I I #
coedge $-1 $343 $344 $345 $346 reversed $135 $-1 #
coedge $-1 $219 $137 $347 $348 reversed $86 $-1 #
coedge $-1 $137 $218 $343 $349 reversed $86 $-1 #
coedge $-1 $345 $350 $137 $221 forward $340 $-1 #
edge $-1 $351 -13.335030678096494 $352 11.088727237814162 $220 $353 forward 7 unknown #
loop $-1 $-1 $227 $138 #
plane-surface $-1 -10.254337012745566 -26.660792346199386 57.061995141528001 0 0.61566148304635926 0.78801074757464917 1 0 0 forward_v I I I I #
loop $-1 $-1 $354 $88 #
coedge $-1 $225 $225 $226 $355 reversed $139 $-1 #
coedge $-1 $226 $226 $225 $355 forward $141 $-1 #
coedge $-1 $227 $227 $142 $228 forward $222 $-1 #
edge $-1 $356 -2.1872689723294028e-015 $356 6.2831853071795987 $227 $357 forward 7 unknown #
loop $-1 $-1 $234 $143 #
plane-surface $-1 -10.254337012745566 -26.660792346199386 57.061995141528001 0 0.61566148304635926 0.78801074757464917 1 0 0 forward_v I I I I #
loop $-1 $-1 $358 $91 #
coedge $-1 $232 $232 $233 $359 reversed $144 $-1 #
coedge $-1 $233 $233 $232 $359 forward $146 $-1 #
coedge $-1 $234 $234 $147 $235 forward $229 $-1 #
edge $-1 $360 -2.1872689723294028e-015 $360 6.2831853071795987 $234 $361 forward 7 unknown #
face $-1 $362 $363 $50 $-1 $364 forward single #
loop $-1 $-1 $365 $148 #
plane-surface $-1 37.585375530259093 65.898679813055253 175.5327146194216 -1 0 0 0 0.61566148304635926 0.78801074757464917 forward_v I I I I #
coedge $-1 $366 $367 $368 $369 reversed $149 $-1 #
coedge $-1 $241 $151 $370 $371 reversed $95 $-1 #
coedge $-1 $151 $240 $366 $372 reversed $95 $-1 #
coedge $-1 $368 $373 $151 $243 forward $363 $-1 #
edge $-1 $374 -13.335030678096494 $375 11.088727237814162 $242 $376 forward 7 unknown #
loop $-1 $-1 $249 $152 #
plane-surface $-1 27.331038517513534 -26.660792346199386 57.061995141528001 0 0.61566148304635926 0.78801074757464917 1 0 0 forward_v I I I I #
loop $-1 $-1 $377 $97 #
coedge $-1 $247 $247 $248 $378 reversed $153 $-1 #
coedge $-1 $248 $248 $247 $378 forward $155 $-1 #
coedge $-1 $249 $249 $156 $250 forward $244 $-1 #
edge $-1 $379 -2.1872689723294028e-015 $379 6.2831853071795987 $249 $380 forward 7 unknown #
loop $-1 $-1 $256 $157 #
plane-surface $-1 27.331038517513534 -26.660792346199386 57.061995141528001 0 0.61566148304635926 0.78801074757464917 1 0 0 forward_v I I I I #
loop $-1 $-1 $381 $100 #
coedge $-1 $254 $254 $255 $382 reversed $158 $-1 #
coedge $-1 $255 $255 $254 $382 forward $160 $-1 #
coedge $-1 $256 $256 $161 $257 forward $251 $-1 #
edge $-1 $383 -2.1872689723294028e-015 $383 6.2831853071795987 $256 $384 forward 7 unknown #
face $-1 $385 $386 $53 $-1 $387 reversed single #
loop $-1 $-1 $264 $162 #
plane-surface $-1 0 0 19.152918059880179 0 0 1 1 0 0 forward_v I I I I #
coedge $-1 $388 $389 $390 $391 reversed $163 $-1 #
coedge $-1 $263 $165 $392 $393 reversed $104 $-1 #
coedge $-1 $165 $262 $388 $394 reversed $104 $-1 #
coedge $-1 $390 $395 $165 $265 forward $259 $-1 #
edge $-1 $396 -13.335030678096494 $397 11.088727237814162 $264 $398 forward 7 unknown #
loop $-1 $-1 $271 $166 #
plane-surface $-1 64.916414047772633 -26.660792346199386 57.061995141528001 0 0.61566148304635926 0.78801074757464917 1 0 0 forward_v I I I I #
loop $-1 $-1 $399 $106 #
coedge $-1 $269 $269 $270 $400 reversed $167 $-1 #
coedge $-1 $270 $270 $269 $400 forward $169 $-1 #
coedge $-1 $271 $271 $170 $272 forward $266 $-1 #
edge $-1 $401 -2.1872689723294028e-015 $401 6.2831853071795987 $271 $402 forward 7 unknown #
loop $-1 $-1 $278 $171 #
plane-surface $-1 64.916414047772633 -26.660792346199386 57.061995141528001 0 0.61566148304635926 0.78801074757464917 1 0 0 forward_v I I I I #
loop $-1 $-1 $403 $109 #
coedge $-1 $276 $276 $277 $404 reversed $172 $-1 #
coedge $-1 $277 $277 $276 $404 forward $174 $-1 #
coedge $-1 $278 $278 $175 $279 forward $273 $-1 #
edge $-1 $405 -2.1872689723294028e-015 $405 6.2831853071795987 $278 $406 forward 7 unknown #
face $-1 $407 $408 $42 $-1 $409 reversed single #
loop $-1 $-1 $410 $176 #
plane-surface $-1 -75.170751060518199 0 0 1 0 0 0 0 -1 forward_v I I I I #
coedge $-1 $411 $291 $412 $413 forward $177 $-1 #
coedge $-1 $414 $179 $411 $415 forward $113 $-1 #
coedge $-1 $179 $414 $416 $417 forward $113 $-1 #
coedge $-1 $294 $293 $179 $287 reversed $295 $-1 #
edge $-1 $418 -46.284370584624121 $419 46.284370584624121 $286 $420 forward 7 unknown #
coedge $-1 $181 $180 $421 $422 forward $71 $-1 #
coedge $-1 $423 $424 $180 $290 reversed $408 $-1 #
edge $-1 $297 -75.170751060518199 $425 75.170751060518199 $289 $426 forward 7 unknown #
coedge $-1 $283 $427 $181 $292 reversed $177 $-1 #
edge $-1 $428 -75.170751060518199 $296 75.170751060518199 $291 $429 forward 7 unknown #
coedge $-1 $286 $182 $427 $430 forward $295 $-1 #
coedge $-1 $182 $286 $423 $431 reversed $295 $-1 #
loop $-1 $-1 $293 $407 #
vertex $-1 $183 $432 #
vertex $-1 $183 $433 #
straight-curve $-1 75.170751060518199 0 19.152918059880179 0 1 0 I I #
face $-1 $434 $435 $43 $-1 $436 reversed single #
loop $-1 $-1 $310 $184 #
plane-surface $-1 0 -53.191994079359119 9.2328205971447925 0 0 1 1 0 0 forward_v I I I I #
coedge $-1 $437 $438 $188 $307 forward $185 $-1 #
coedge $-1 $439 $187 $438 $440 forward $117 $-1 #
coedge $-1 $187 $439 $441 $442 forward $117 $-1 #
coedge $-1 $189 $188 $187 $306 reversed $74 $-1 #
edge $-1 $443 -75.170751060518199 $444 75.170751060518199 $187 $445 forward 7 unknown #
edge $-1 $444 -19.152918059880179 $313 -9.2328205971447925 $302 $446 forward 7 unknown #
coedge $-1 $441 $447 $189 $309 forward $448 $-1 #
edge $-1 $312 9.2328205971447925 $443 19.152918059880179 $308 $449 forward 7 unknown #
coedge $-1 $450 $190 $447 $451 forward $300 $-1 #
coedge $-1 $190 $450 $437 $452 forward $300 $-1 #
vertex $-1 $309 $453 #
vertex $-1 $307 $454 #
straight-curve $-1 0 -46.284370584624121 9.2328205971447925 -1 0 0 I I #
face $-1 $-1 $327 $44 $-1 $455 forward single #
loop $-1 $-1 $456 $192 #
plane-surface $-1 0 46.284370584624121 0 0 -1 0 0 0 -1 forward_v I I I I #
coedge $-1 $457 $458 $459 $460 reversed $193 $-1 #
coedge $-1 $461 $195 $197 $325 forward $121 $-1 #
coedge $-1 $195 $461 $457 $462 forward $121 $-1 #
coedge $-1 $459 $198 $195 $322 forward $327 $-1 #
edge $-1 $329 -34.174193284247892 $463 -13.66551925875677 $321 $464 forward 7 unknown #
coedge $-1 $465 $466 $196 $324 forward $316 $-1 #
edge $-1 $467 -87.695370640176733 $328 -68.61343924983062 $323 $468 forward 7 unknown #
edge $-1 $329 61.574547256179855 $467 92.568741169248227 $197 $469 forward 7 unknown #
coedge $-1 $198 $459 $465 $470 forward $327 $-1 #
loop $-1 $-1 $459 $315 #
vertex $-1 $324 $471 #
vertex $-1 $199 $472 #
straight-curve $-1 -58.094049555750217 32.949339906527626 19.152918059880179 0 -1 0 I I #
coedge $-1 $331 $331 $-1 $473 reversed $202 $-1 #
edge $-1 $474 0 $474 6.2831853071796004 $203 $475 forward 7 unknown #
vertex $-1 $206 $476 #
ellipse-curve $-1 -52.234428405609904 34.0724916266688 9.6119523647071095 0 0.61566148304635926 0.78801074757464917 1.5 0 0 1 I I #
coedge $-1 $335 $335 $-1 $477 reversed $209 $-1 #
edge $-1 $478 0 $478 6.2831853071796004 $210 $479 forward 7 unknown #
vertex $-1 $213 $480 #
ellipse-curve $-1 -43.44499668039942 34.0724916266688 9.6119523647071095 0 0.61566148304635926 0.78801074757464917 1.5 0 0 1 I I #
face $-1 $-1 $481 $47 $-1 $482 reversed single #
loop $-1 $-1 $220 $214 #
plane-surface $-1 0 0 19.152918059880179 0 0 1 1 0 0 forward_v I I I I #
coedge $-1 $483 $484 $485 $486 reversed $215 $-1 #
coedge $-1 $487 $217 $219 $349 forward $135 $-1 #
coedge $-1 $217 $487 $483 $488 forward $135 $-1 #
coedge $-1 $485 $220 $217 $346 forward $340 $-1 #
edge $-1 $352 -15.381505519118342 $489 5.1271685063727777 $345 $490 forward 7 unknown #
coedge $-1 $491 $492 $218 $348 forward $481 $-1 #
edge $-1 $493 -87.695370640176733 $351 -68.61343924983062 $347 $494 forward 7 unknown #
edge $-1 $352 61.574547256179855 $493 92.568741169248227 $219 $495 forward 7 unknown #
coedge $-1 $220 $485 $491 $496 forward $340 $-1 #
vertex $-1 $221 $497 #
vertex $-1 $221 $498 #
straight-curve $-1 -20.508674025491125 32.949339906527626 19.152918059880179 0 -1 0 I I #
coedge $-1 $354 $354 $-1 $499 reversed $224 $-1 #
edge $-1 $500 0 $500 6.2831853071796004 $225 $501 forward 7 unknown #
vertex $-1 $228 $502 #
ellipse-curve $-1 -14.649052875350804 34.0724916266688 9.6119523647071095 0 0.61566148304635926 0.78801074757464917 1.5 0 0 1 I I #
coedge $-1 $358 $358 $-1 $503 reversed $231 $-1 #
edge $-1 $504 0 $504 6.2831853071796004 $232 $505 forward 7 unknown #
vertex $-1 $235 $506 #
ellipse-curve $-1 -5.8596211501403275 34.0724916266688 9.6119523647071095 0 0.61566148304635926 0.78801074757464917 1.5 0 0 1 I I #
face $-1 $-1 $507 $50 $-1 $508 reversed single #
loop $-1 $-1 $242 $236 #
plane-surface $-1 0 0 19.152918059880179 0 0 1 1 0 0 forward_v I I I I #
coedge $-1 $509 $510 $511 $512 reversed $237 $-1 #
coedge $-1 $513 $239 $241 $372 forward $149 $-1 #
coedge $-1 $239 $513 $509 $514 forward $149 $-1 #
coedge $-1 $511 $242 $239 $369 forward $363 $-1 #
edge $-1 $375 3.411182246011208 $515 23.919856271502326 $368 $516 forward 7 unknown #
coedge $-1 $517 $518 $240 $371 forward $507 $-1 #
edge $-1 $519 -87.695370640176733 $374 -68.61343924983062 $370 $520 forward 7 unknown #
edge $-1 $375 61.574547256179855 $519 92.568741169248227 $241 $521 forward 7 unknown #
coedge $-1 $242 $511 $517 $522 forward $363 $-1 #
vertex $-1 $243 $523 #
vertex $-1 $243 $524 #
straight-curve $-1 17.076701504767975 32.949339906527626 19.152918059880179 0 -1 0 I I #
coedge $-1 $377 $377 $-1 $525 reversed $246 $-1 #
edge $-1 $526 0 $526 6.2831853071796004 $247 $527 forward 7 unknown #
vertex $-1 $250 $528 #
ellipse-curve $-1 22.936322654908295 34.0724916266688 9.6119523647071095 0 0.61566148304635926 0.78801074757464917 1.5 0 0 1 I I #
coedge $-1 $381 $381 $-1 $529 reversed $253 $-1 #
edge $-1 $530 0 $530 6.2831853071796004 $254 $531 forward 7 unknown #
vertex $-1 $257 $532 #
ellipse-curve $-1 31.725754380118772 34.0724916266688 9.6119523647071095 0 0.61566148304635926 0.78801074757464917 1.5 0 0 1 I I #
face $-1 $-1 $533 $53 $-1 $534 reversed single #
loop $-1 $-1 $535 $258 #
plane-surface $-1 75.170751060518199 0 0 -1 0 0 0 0 1 forward_v I I I I #
coedge $-1 $536 $261 $263 $394 forward $163 $-1 #
coedge $-1 $261 $536 $535 $537 reversed $163 $-1 #
coedge $-1 $538 $264 $261 $391 forward $259 $-1 #
edge $-1 $397 22.203870011140758 $539 42.712544036631883 $390 $540 forward 7 unknown #
coedge $-1 $541 $542 $262 $393 forward $533 $-1 #
edge $-1 $543 -87.695370640176733 $396 -68.61343924983062 $392 $544 forward 7 unknown #
edge $-1 $397 61.574547256179855 $543 92.568741169248227 $263 $545 forward 7 unknown #
coedge $-1 $264 $538 $541 $546 forward $259 $-1 #
vertex $-1 $393 $547 #
vertex $-1 $265 $548 #
straight-curve $-1 54.662077035027075 32.949339906527626 19.152918059880179 0 -1 0 I I #
coedge $-1 $399 $399 $-1 $549 reversed $268 $-1 #
edge $-1 $550 0 $550 6.2831853071796004 $269 $551 forward 7 unknown #
vertex $-1 $272 $552 #
ellipse-curve $-1 60.521698185167395 34.0724916266688 9.6119523647071095 0 0.61566148304635926 0.78801074757464917 1.5 0 0 1 I I #
coedge $-1 $403 $403 $-1 $553 reversed $275 $-1 #
edge $-1 $554 0 $554 6.2831853071796004 $276 $555 forward 7 unknown #
vertex $-1 $279 $556 #
ellipse-curve $-1 69.311129910377872 34.0724916266688 9.6119523647071095 0 0.61566148304635926 0.78801074757464917 1.5 0 0 1 I I #
face $-1 $-1 $295 $42 $-1 $557 reversed single #
loop $-1 $-1 $423 $280 #
plane-surface $-1 0 46.284370584624121 0 0 -1 0 0 0 -1 forward_v I I I I #
coedge $-1 $558 $421 $424 $559 forward $281 $-1 #
coedge $-1 $427 $283 $284 $415 reversed $177 $-1 #
coedge $-1 $421 $558 $283 $413 reversed $281 $-1 #
edge $-1 $428 -19.152918059880179 $560 19.152918059880179 $412 $561 forward 7 unknown #
coedge $-1 $285 $284 $558 $562 forward $113 $-1 #
edge $-1 $419 -75.170751060518199 $560 75.170751060518199 $411 $563 forward 7 unknown #
coedge $-1 $424 $423 $285 $417 reversed $408 $-1 #
edge $-1 $564 -75.170751060518199 $418 75.170751060518199 $416 $565 forward 7 unknown #
vertex $-1 $287 $566 #
vertex $-1 $430 $567 #
straight-curve $-1 75.170751060518199 0 -19.152918059880179 0 -1 0 I I #
coedge $-1 $410 $412 $288 $422 reversed $281 $-1 #
edge $-1 $425 -46.284370584624121 $428 46.284370584624121 $421 $568 forward 7 unknown #
coedge $-1 $416 $289 $294 $431 forward $408 $-1 #
coedge $-1 $289 $416 $410 $559 reversed $408 $-1 #
vertex $-1 $290 $569 #
straight-curve $-1 0 46.284370584624121 19.152918059880179 -1 0 0 I I #
coedge $-1 $291 $411 $293 $430 reversed $177 $-1 #
vertex $-1 $422 $570 #
straight-curve $-1 0 -46.284370584624121 19.152918059880179 1 0 0 I I #
edge $-1 $296 -19.152918059880179 $419 19.152918059880179 $293 $571 forward 7 unknown #
edge $-1 $297 -19.152918059880179 $418 19.152918059880179 $294 $572 forward 7 unknown #
point $-1 75.170751060518199 -46.284370584624121 19.152918059880179 #
point $-1 75.170751060518199 46.284370584624121 19.152918059880179 #
face $-1 $-1 $448 $43 $-1 $573 reversed single #
loop $-1 $-1 $574 $299 #
plane-surface $-1 0 -60.099617574094118 14.192869328512487 0 1 0 0 0 1 forward_v I I I I #
coedge $-1 $575 $302 $311 $452 reversed $185 $-1 #
coedge $-1 $302 $575 $303 $440 reversed $185 $-1 #
coedge $-1 $304 $303 $576 $577 forward $117 $-1 #
edge $-1 $444 46.284370584624121 $578 60.099617574094118 $438 $579 forward 7 unknown #
coedge $-1 $580 $308 $304 $442 reversed $448 $-1 #
edge $-1 $581 -60.099617574094118 $443 -46.284370584624121 $441 $582 forward 7 unknown #
vertex $-1 $309 $583 #
vertex $-1 $440 $584 #
straight-curve $-1 0 -46.284370584624121 19.152918059880179 -1 0 0 I I #
straight-curve $-1 -75.170751060518199 -46.284370584624121 0 0 0 -1 I I #
coedge $-1 $308 $580 $310 $451 reversed $448 $-1 #
loop $-1 $-1 $308 $434 #
straight-curve $-1 75.170751060518199 -46.284370584624121 0 0 0 1 I I #
coedge $-1 $311 $310 $585 $586 forward $300 $-1 #
edge $-1 $312 -6.9076234947349988 $587 6.9076234947349988 $447 $588 forward 7 unknown #
edge $-1 $589 -6.9076234947349988 $313 6.9076234947349988 $437 $590 forward 7 unknown #
point $-1 75.170751060518199 -46.284370584624121 9.2328205971447925 #
point $-1 -75.170751060518199 -46.284370584624121 9.2328205971447925 #
plane-surface $-1 0 0 19.152918059880179 0 0 1 1 0 0 forward_v I I I I #
coedge $-1 $466 $465 $458 $591 forward $316 $-1 #
coedge $-1 $458 $318 $320 $462 reversed $193 $-1 #
coedge $-1 $318 $457 $456 $591 reversed $193 $-1 #
coedge $-1 $326 $321 $318 $460 forward $327 $-1 #
edge $-1 $463 -11.088727237814162 $592 13.335030678096494 $459 $593 forward 7 unknown #
coedge $-1 $320 $319 $466 $594 reversed $121 $-1 #
edge $-1 $595 -92.568741169248227 $463 -61.574547256179855 $457 $596 forward 7 unknown #
vertex $-1 $322 $597 #
straight-curve $-1 -23.919856271502329 21.860612668713468 19.152918059880175 1 0 0 I I #
coedge $-1 $456 $323 $326 $470 reversed $316 $-1 #
coedge $-1 $323 $456 $461 $594 forward $316 $-1 #
vertex $-1 $324 $598 #
straight-curve $-1 -58.094049555750217 46.284370584624121 87.766357309710799 0 0 1 I I #
straight-curve $-1 -58.094049555750217 -26.660792346199386 57.061995141528001 0 0.78801074757464917 -0.61566148304635926 I I #
edge $-1 $592 37.5853755302591 $328 58.094049555750217 $465 $599 forward 7 unknown #
point $-1 -58.094049555750217 46.284370584624121 19.152918059880179 #
point $-1 -58.094049555750217 21.860612668713465 19.152918059880179 #
edge $-1 $600 1 $600 0 $331 $-1 forward 7 unknown #
vertex $-1 $332 $601 #
ellipse-curve $-1 -52.234428405609904 31.908047037219308 6.8415896800439837 0 0.61566148304635926 0.78801074757464917 1.5 0 0 1 I I #
point $-1 -50.734428405609904 34.0724916266688 9.6119523647071148 #
edge $-1 $602 1 $602 0 $335 $-1 forward 7 unknown #
vertex $-1 $336 $603 #
ellipse-curve $-1 -43.44499668039942 31.908047037219308 6.8415896800439837 0 0.61566148304635926 0.78801074757464917 1.5 0 0 1 I I #
point $-1 -41.94499668039942 34.0724916266688 9.6119523647071148 #
loop $-1 $-1 $347 $339 #
plane-surface $-1 0 46.284370584624121 0 0 -1 0 0 0 -1 forward_v I I I I #
coedge $-1 $484 $342 $344 $488 reversed $215 $-1 #
coedge $-1 $342 $483 $604 $605 reversed $215 $-1 #
coedge $-1 $350 $345 $342 $486 forward $340 $-1 #
edge $-1 $489 -11.088727237814162 $606 13.335030678096494 $485 $607 forward 7 unknown #
coedge $-1 $344 $343 $492 $608 reversed $135 $-1 #
edge $-1 $609 -92.568741169248227 $489 -61.574547256179855 $483 $610 forward 7 unknown #
vertex $-1 $346 $611 #
straight-curve $-1 -5.127168506372783 21.860612668713468 19.152918059880175 1 0 0 I I #
coedge $-1 $604 $347 $350 $496 reversed $481 $-1 #
coedge $-1 $347 $604 $487 $608 forward $481 $-1 #
vertex $-1 $348 $612 #
straight-curve $-1 -20.508674025491125 46.284370584624121 87.766357309710799 0 0 1 I I #
straight-curve $-1 -20.508674025491125 -26.660792346199386 57.061995141528001 0 0.78801074757464917 -0.61566148304635926 I I #
edge $-1 $606 5.3290705182007514e-015 $351 20.508674025491125 $491 $613 forward 7 unknown #
point $-1 -20.508674025491125 46.284370584624121 19.152918059880179 #
point $-1 -20.508674025491125 21.860612668713465 19.152918059880179 #
edge $-1 $614 1 $614 0 $354 $-1 forward 7 unknown #
vertex $-1 $355 $615 #
ellipse-curve $-1 -14.649052875350804 31.908047037219308 6.8415896800439837 0 0.61566148304635926 0.78801074757464917 1.5 0 0 1 I I #
point $-1 -13.149052875350804 34.0724916266688 9.6119523647071148 #
edge $-1 $616 1 $616 0 $358 $-1 forward 7 unknown #
vertex $-1 $359 $617 #
ellipse-curve $-1 -5.8596211501403275 31.908047037219308 6.8415896800439837 0 0.61566148304635926 0.78801074757464917 1.5 0 0 1 I I #
point $-1 -4.3596211501403275 34.0724916266688 9.6119523647071148 #
loop $-1 $-1 $370 $362 #
plane-surface $-1 0 46.284370584624121 0 0 -1 0 0 0 -1 forward_v I I I I #
coedge $-1 $510 $365 $367 $514 reversed $237 $-1 #
coedge $-1 $365 $509 $618 $619 reversed $237 $-1 #
coedge $-1 $373 $368 $365 $512 forward $363 $-1 #
edge $-1 $515 -11.088727237814162 $620 13.335030678096494 $511 $621 forward 7 unknown #
coedge $-1 $367 $366 $518 $622 reversed $149 $-1 #
edge $-1 $623 -92.568741169248227 $515 -61.574547256179855 $509 $624 forward 7 unknown #
vertex $-1 $369 $625 #
straight-curve $-1 13.665519258756767 21.860612668713468 19.152918059880175 1 0 0 I I #
coedge $-1 $618 $370 $373 $522 reversed $507 $-1 #
coedge $-1 $370 $618 $513 $622 forward $507 $-1 #
vertex $-1 $371 $626 #
straight-curve $-1 17.076701504767975 46.284370584624121 87.766357309710799 0 0 1 I I #
straight-curve $-1 17.076701504767975 -26.660792346199386 57.061995141528001 0 0.78801074757464917 -0.61566148304635926 I I #
edge $-1 $620 -37.585375530259093 $374 -17.076701504767975 $517 $627 forward 7 unknown #
point $-1 17.076701504767975 46.284370584624121 19.152918059880179 #
point $-1 17.076701504767975 21.860612668713465 19.152918059880179 #
edge $-1 $628 1 $628 0 $377 $-1 forward 7 unknown #
vertex $-1 $378 $629 #
ellipse-curve $-1 22.936322654908295 31.908047037219308 6.8415896800439837 0 0.61566148304635926 0.78801074757464917 1.5 0 0 1 I I #
point $-1 24.436322654908295 34.0724916266688 9.6119523647071148 #
edge $-1 $630 1 $630 0 $381 $-1 forward 7 unknown #
vertex $-1 $382 $631 #
ellipse-curve $-1 31.725754380118772 31.908047037219308 6.8415896800439837 0 0.61566148304635926 0.78801074757464917 1.5 0 0 1 I I #
point $-1 33.225754380118772 34.0724916266688 9.6119523647071148 #
loop $-1 $-1 $392 $385 #
plane-surface $-1 0 46.284370584624121 0 0 -1 0 0 0 -1 forward_v I I I I #
coedge $-1 $632 $633 $389 $537 forward $386 $-1 #
coedge $-1 $389 $388 $542 $634 reversed $163 $-1 #
edge $-1 $539 33.504615525140686 $635 64.498809438209051 $535 $636 forward 7 unknown #
coedge $-1 $395 $390 $633 $637 forward $259 $-1 #
vertex $-1 $637 $638 #
straight-curve $-1 32.458207023886317 21.860612668713468 19.152918059880175 1 0 0 I I #
coedge $-1 $639 $392 $395 $546 reversed $533 $-1 #
coedge $-1 $392 $639 $536 $634 forward $533 $-1 #
vertex $-1 $393 $640 #
straight-curve $-1 54.662077035027075 46.284370584624121 87.766357309710799 0 0 1 I I #
straight-curve $-1 54.662077035027075 -26.660792346199386 57.061995141528001 0 0.78801074757464917 -0.61566148304635926 I I #
edge $-1 $641 -75.170751060518199 $396 -54.662077035027075 $541 $642 forward 7 unknown #
point $-1 54.662077035027075 46.284370584624121 19.152918059880179 #
point $-1 54.662077035027075 21.860612668713465 19.152918059880179 #
edge $-1 $643 1 $643 0 $399 $-1 forward 7 unknown #
vertex $-1 $400 $644 #
ellipse-curve $-1 60.521698185167395 31.908047037219308 6.8415896800439837 0 0.61566148304635926 0.78801074757464917 1.5 0 0 1 I I #
point $-1 62.021698185167395 34.0724916266688 9.6119523647071148 #
edge $-1 $645 1 $645 0 $403 $-1 forward 7 unknown #
vertex $-1 $404 $646 #
ellipse-curve $-1 69.311129910377872 31.908047037219308 6.8415896800439837 0 0.61566148304635926 0.78801074757464917 1.5 0 0 1 I I #
point $-1 70.811129910377872 34.0724916266688 9.6119523647071148 #
plane-surface $-1 75.170751060518199 0 0 -1 0 0 0 0 1 forward_v I I I I #
coedge $-1 $412 $410 $414 $562 reversed $281 $-1 #
edge $-1 $425 -19.152918059880179 $564 19.152918059880179 $424 $647 forward 7 unknown #
vertex $-1 $562 $648 #
straight-curve $-1 -75.170751060518199 -46.284370584624121 0 0 0 -1 I I #
edge $-1 $560 -46.284370584624121 $564 46.284370584624121 $558 $649 forward 7 unknown #
straight-curve $-1 0 -46.284370584624121 -19.152918059880179 -1 0 0 I I #
vertex $-1 $417 $650 #
straight-curve $-1 0 46.284370584624121 -19.152918059880179 1 0 0 I I #
point $-1 75.170751060518199 46.284370584624121 -19.152918059880179 #
point $-1 75.170751060518199 -46.284370584624121 -19.152918059880179 #
straight-curve $-1 -75.170751060518199 0 19.152918059880179 0 -1 0 I I #
point $-1 -75.170751060518199 46.284370584624121 19.152918059880179 #
point $-1 -75.170751060518199 -46.284370584624121 19.152918059880179 #
straight-curve $-1 75.170751060518199 -46.284370584624121 0 0 0 -1 I I #
straight-curve $-1 75.170751060518199 46.284370584624121 0 0 0 -1 I I #
plane-surface $-1 75.170751060518199 0 0 -1 0 0 0 0 1 forward_v I I I I #
coedge $-1 $585 $576 $575 $651 forward $435 $-1 #
coedge $-1 $438 $437 $574 $651 reversed $185 $-1 #
coedge $-1 $574 $652 $439 $577 reversed $435 $-1 #
edge $-1 $578 -75.170751060518199 $581 75.170751060518199 $576 $653 forward 7 unknown #
vertex $-1 $440 $654 #
straight-curve $-1 -75.170751060518199 0 19.152918059880179 0 -1 0 I I #
coedge $-1 $447 $441 $652 $655 forward $448 $-1 #
vertex $-1 $442 $656 #
straight-curve $-1 75.170751060518199 0 19.152918059880179 0 1 0 I I #
point $-1 75.170751060518199 -46.284370584624121 19.152918059880179 #
point $-1 -75.170751060518199 -46.284370584624121 19.152918059880179 #
coedge $-1 $652 $574 $450 $586 reversed $435 $-1 #
edge $-1 $587 -75.170751060518199 $589 75.170751060518199 $585 $657 forward 7 unknown #
vertex $-1 $655 $658 #
straight-curve $-1 75.170751060518199 -53.191994079359119 9.2328205971447925 0 -1 0 I I #
vertex $-1 $452 $659 #
straight-curve $-1 -75.170751060518199 -53.191994079359119 9.2328205971447925 0 1 0 I I #
edge $-1 $592 68.61343924983062 $595 87.695370640176733 $456 $660 forward 7 unknown #
vertex $-1 $470 $661 #
straight-curve $-1 -37.5853755302591 32.949339906527626 19.152918059880179 0 1 0 I I #
edge $-1 $595 13.66551925875677 $467 34.174193284247892 $466 $662 forward 7 unknown #
vertex $-1 $594 $663 #
straight-curve $-1 -37.5853755302591 -26.660792346199386 57.061995141528001 0 -0.78801074757464917 0.61566148304635926 I I #
point $-1 -37.5853755302591 21.860612668713465 19.152918059880179 #
point $-1 -58.094049555750217 46.284370584624114 0.070986669534065072 #
straight-curve $-1 0 46.284370584624121 19.152918059880179 -1 0 0 I I #
vertex $-1 $473 $664 #
point $-1 -50.734428405609904 31.908047037219308 6.8415896800439837 #
vertex $-1 $477 $665 #
point $-1 -41.94499668039942 31.908047037219308 6.8415896800439837 #
coedge $-1 $492 $491 $484 $605 forward $481 $-1 #
edge $-1 $606 68.61343924983062 $609 87.695370640176733 $604 $666 forward 7 unknown #
vertex $-1 $496 $667 #
straight-curve $-1 -5.3290705182007514e-015 32.949339906527626 19.152918059880179 0 1 0 I I #
edge $-1 $609 -5.1271685063727777 $493 15.381505519118342 $492 $668 forward 7 unknown #
vertex $-1 $608 $669 #
straight-curve $-1 -5.3290705182007514e-015 -26.660792346199386 57.061995141528001 0 -0.78801074757464917 0.61566148304635926 I I #
point $-1 -5.3290705182007514e-015 21.860612668713465 19.152918059880179 #
point $-1 -20.508674025491125 46.284370584624114 0.070986669534065072 #
straight-curve $-1 0 46.284370584624121 19.152918059880179 -1 0 0 I I #
vertex $-1 $499 $670 #
point $-1 -13.149052875350804 31.908047037219308 6.8415896800439837 #
vertex $-1 $503 $671 #
point $-1 -4.3596211501403275 31.908047037219308 6.8415896800439837 #
coedge $-1 $518 $517 $510 $619 forward $507 $-1 #
edge $-1 $620 68.61343924983062 $623 87.695370640176733 $618 $672 forward 7 unknown #
vertex $-1 $522 $673 #
straight-curve $-1 37.585375530259093 32.949339906527626 19.152918059880179 0 1 0 I I #
edge $-1 $623 -23.919856271502326 $519 -3.411182246011208 $518 $674 forward 7 unknown #
vertex $-1 $622 $675 #
straight-curve $-1 37.585375530259093 -26.660792346199386 57.061995141528001 0 -0.78801074757464917 0.61566148304635926 I I #
point $-1 37.585375530259093 21.860612668713465 19.152918059880179 #
point $-1 17.076701504767975 46.284370584624114 0.070986669534065072 #
straight-curve $-1 0 46.284370584624121 19.152918059880179 -1 0 0 I I #
vertex $-1 $525 $676 #
point $-1 24.436322654908295 31.908047037219308 6.8415896800439837 #
vertex $-1 $529 $677 #
point $-1 33.225754380118772 31.908047037219308 6.8415896800439837 #
coedge $-1 $633 $535 $639 $678 reversed $386 $-1 #
coedge $-1 $535 $632 $538 $637 reversed $386 $-1 #
edge $-1 $635 -42.712544036631883 $543 -22.203870011140758 $542 $679 forward 7 unknown #
vertex $-1 $537 $680 #
straight-curve $-1 75.170751060518199 -4.5413844584538445 39.780419342986363 0 0.78801074757464917 -0.61566148304635926 I I #
edge $-1 $539 21.860612668713465 $641 46.284370584624121 $633 $681 forward 7 unknown #
point $-1 75.170751060518199 21.860612668713465 19.152918059880179 #
coedge $-1 $542 $541 $632 $678 forward $533 $-1 #
point $-1 54.662077035027075 46.284370584624114 0.070986669534065072 #
vertex $-1 $637 $682 #
straight-curve $-1 0 46.284370584624121 19.152918059880179 -1 0 0 I I #
vertex $-1 $549 $683 #
point $-1 62.021698185167395 31.908047037219308 6.8415896800439837 #
vertex $-1 $553 $684 #
point $-1 70.811129910377872 31.908047037219308 6.8415896800439837 #
straight-curve $-1 -75.170751060518199 46.284370584624121 0 0 0 -1 I I #
point $-1 -75.170751060518199 -46.284370584624121 -19.152918059880179 #
straight-curve $-1 -75.170751060518199 0 -19.152918059880179 0 1 0 I I #
point $-1 -75.170751060518199 46.284370584624121 -19.152918059880179 #
edge $-1 $578 -4.9600487313676922 $589 4.960048731367694 $575 $685 forward 7 unknown #
coedge $-1 $576 $585 $580 $655 reversed $435 $-1 #
straight-curve $-1 0 -60.099617574094118 19.152918059880179 1 0 0 I I #
point $-1 -75.170751060518199 -60.099617574094118 19.152918059880179 #
edge $-1 $581 -4.9600487313676922 $587 4.960048731367694 $580 $686 forward 7 unknown #
point $-1 75.170751060518199 -60.099617574094118 19.152918059880179 #
straight-curve $-1 0 -60.099617574094118 9.2328205971447925 -1 0 0 I I #
point $-1 75.170751060518199 -60.099617574094118 9.2328205971447925 #
point $-1 -75.170751060518199 -60.099617574094118 9.2328205971447925 #
straight-curve $-1 -37.5853755302591 46.284370584624121 87.766357309710799 0 0 -1 I I #
point $-1 -37.5853755302591 46.284370584624121 19.152918059880179 #
straight-curve $-1 -23.919856271502329 46.284370584624121 0.070986669534057967 -1 0 0 I I #
point $-1 -37.5853755302591 46.284370584624114 0.070986669534065072 #
point $-1 -52.234428405609904 30.984554812649773 5.65957355868201 #
point $-1 -43.44499668039942 30.984554812649773 5.65957355868201 #
straight-curve $-1 -5.3290705182007514e-015 46.284370584624121 87.766357309710799 0 0 -1 I I #
point $-1 -5.3290705182007514e-015 46.284370584624121 19.152918059880179 #
straight-curve $-1 -5.127168506372783 46.284370584624121 0.070986669534057967 -1 0 0 I I #
point $-1 -5.3290705182007514e-015 46.284370584624114 0.070986669534065072 #
point $-1 -14.649052875350804 30.984554812649773 5.65957355868201 #
point $-1 -5.8596211501403275 30.984554812649773 5.65957355868201 #
straight-curve $-1 37.585375530259093 46.284370584624121 87.766357309710799 0 0 -1 I I #
point $-1 37.585375530259093 46.284370584624121 19.152918059880179 #
straight-curve $-1 13.665519258756767 46.284370584624121 0.070986669534057967 -1 0 0 I I #
point $-1 37.585375530259093 46.284370584624114 0.070986669534065072 #
point $-1 22.936322654908295 30.984554812649773 5.65957355868201 #
point $-1 31.725754380118772 30.984554812649773 5.65957355868201 #
edge $-1 $641 -19.152918059880179 $635 -0.070986669534065072 $632 $687 forward 7 unknown #
straight-curve $-1 32.458207023886317 46.284370584624121 0.070986669534057967 -1 0 0 I I #
point $-1 75.170751060518199 46.284370584624114 0.070986669534065072 #
straight-curve $-1 75.170751060518199 0 19.152918059880179 0 1 0 I I #
point $-1 75.170751060518199 46.284370584624121 19.152918059880179 #
point $-1 60.521698185167395 30.984554812649773 5.65957355868201 #
point $-1 69.311129910377872 30.984554812649773 5.65957355868201 #
straight-curve $-1 -75.170751060518199 -60.099617574094118 14.192869328512487 0 0 -1 I I #
straight-curve $-1 75.170751060518199 -60.099617574094118 14.192869328512487 0 0 -1 I I #
straight-curve $-1 75.170751060518199 46.284370584624121 0 0 0 -1 I I #
End-of-ACIS-data 