500 0 9 0           
7 Unknown 11 ACIS 5.0 NT 24 Thu Mar 25 22:56:03 1999 
-1 9.9999999999999995e-007 1e-010 
body $-1 $9 $-1 $10 #
body $-1 $11 $-1 $12 #
body $-1 $13 $-1 $14 #
body $-1 $15 $-1 $16 #
body $-1 $17 $-1 $18 #
body $-1 $19 $-1 $20 #
body $-1 $21 $-1 $22 #
body $-1 $23 $-1 $24 #
body $-1 $25 $-1 $26 #
lump $-1 $-1 $27 $0 #
transform $-1 1 0 0 0 1 0 0 0 1 68.437147129734186 38.576854607245593 17.97525784566443 1 rotate no_reflect no_shear #
lump $-1 $-1 $28 $1 #
transform $-1 1 0 0 0 1 0 0 0 1 68.437147129734186 38.576854607245593 17.97525784566443 1 rotate no_reflect no_shear #
lump $-1 $-1 $29 $2 #
transform $-1 1 0 0 0 1 0 0 0 1 68.437147129734186 38.576854607245593 17.97525784566443 1 rotate no_reflect no_shear #
lump $-1 $-1 $30 $3 #
transform $-1 1 0 0 0 1 0 0 0 1 68.437147129734186 38.576854607245593 17.97525784566443 1 rotate no_reflect no_shear #
lump $-1 $-1 $31 $4 #
transform $-1 1 0 0 0 1 0 0 0 1 68.437147129734186 38.576854607245593 17.97525784566443 1 rotate no_reflect no_shear #
lump $-1 $-1 $32 $5 #
transform $-1 1 0 0 0 1 0 0 0 1 68.437147129734186 38.576854607245593 17.97525784566443 1 rotate no_reflect no_shear #
lump $-1 $-1 $33 $6 #
transform $-1 1 0 0 0 1 0 0 0 1 68.437147129734186 38.576854607245593 17.97525784566443 1 rotate no_reflect no_shear #
lump $-1 $-1 $34 $7 #
transform $-1 1 0 0 0 1 0 0 0 1 68.437147129734186 38.576854607245593 17.97525784566443 1 rotate no_reflect no_shear #
lump $-1 $-1 $35 $8 #
transform $-1 1 0 0 0 1 0 0 0 1 68.437147129734186 38.576854607245593 17.97525784566443 1 rotate no_reflect no_shear #
shell $-1 $-1 $-1 $36 $-1 $9 #
shell $-1 $-1 $-1 $37 $-1 $11 #
shell $-1 $-1 $-1 $38 $-1 $13 #
shell $-1 $-1 $-1 $39 $-1 $15 #
shell $-1 $-1 $-1 $40 $-1 $17 #
shell $-1 $-1 $-1 $41 $-1 $19 #
shell $-1 $-1 $-1 $42 $-1 $21 #
shell $-1 $-1 $-1 $43 $-1 $23 #
shell $-1 $-1 $-1 $44 $-1 $25 #
face $-1 $45 $46 $27 $-1 $47 forward single #
face $-1 $48 $49 $28 $-1 $50 forward single #
face $-1 $51 $52 $29 $-1 $53 reversed single #
face $-1 $54 $55 $30 $-1 $56 forward single #
face $-1 $57 $58 $31 $-1 $59 forward single #
face $-1 $60 $61 $32 $-1 $62 forward single #
face $-1 $63 $64 $33 $-1 $65 reversed single #
face $-1 $66 $67 $34 $-1 $68 forward single #
face $-1 $69 $70 $35 $-1 $71 forward single #
face $-1 $72 $73 $27 $-1 $74 reversed single #
loop $-1 $-1 $75 $36 #
plane-surface $-1 0 0 17.97525784566443 0 0 1 1 0 0 forward_v I I I I #
face $-1 $76 $77 $28 $-1 $78 reversed single #
loop $-1 $-1 $79 $37 #
plane-surface $-1 0 -28.456148638145397 -0.15944624129468465 0 0 1 1 0 0 forward_v I I I I #
face $-1 $80 $81 $29 $-1 $82 reversed single #
loop $-1 $-1 $83 $38 #
plane-surface $-1 98.718088356964572 -1.548561310638803 200.12294022379098 0 1 0 0.80901700255871778 0 0.5877852410284794 forward_v I I I I #
face $-1 $84 $85 $30 $-1 $86 forward single #
loop $-1 $87 $88 $39 #
cone-surface $-1 64.239522442845228 1.30997432075673 12.791771731389053 -0.80901700255871778 0 -0.5877852410284794 0.5877852410284794 0 -0.80901700255871778 1 I I 0 1 1 forward I I I I #
face $-1 $89 $90 $31 $-1 $91 forward single #
loop $-1 $92 $93 $40 #
cone-surface $-1 64.239522442845228 5.597777767850026 12.791771731389053 -0.80901700255871778 0 -0.5877852410284794 0.5877852410284794 0 -0.80901700255871778 1 I I 0 1 1 forward I I I I #
face $-1 $94 $95 $32 $-1 $96 forward single #
loop $-1 $97 $98 $41 #
cone-surface $-1 64.239522442845228 9.885581214943322 12.791771731389053 -0.80901700255871778 0 -0.5877852410284794 0.5877852410284794 0 -0.80901700255871778 1 I I 0 1 1 forward I I I I #
face $-1 $99 $100 $33 $-1 $101 reversed single #
loop $-1 $-1 $102 $42 #
plane-surface $-1 -150.81015474124575 -18.3354426690452 113.81114396702009 0 1 0 -0.6018150307709319 0 0.79863550430605224 forward_v I I I I #
face $-1 $103 $104 $34 $-1 $105 forward single #
loop $-1 $106 $107 $43 #
cone-surface $-1 -59.194090984296629 -16.490224505021335 10.837547642966477 0.6018150307709319 0 -0.79863550430605224 0.39931775215302612 0 0.30090751538546595 1 I I 0 1 0.5 forward I I I I #
face $-1 $108 $109 $35 $-1 $110 forward single #
loop $-1 $111 $112 $44 #
cone-surface $-1 -59.194090984296629 -13.722397258985534 10.837547642966477 0.6018150307709319 0 -0.79863550430605224 0.39931775215302612 0 0.30090751538546595 1 I I 0 1 0.5 forward I I I I #
face $-1 $113 $114 $27 $-1 $115 reversed single #
loop $-1 $-1 $116 $45 #
plane-surface $-1 0 0 -17.97525784566443 0 0 1 1 0 0 forward_v I I I I #
coedge $-1 $117 $118 $119 $120 forward $46 $-1 #
face $-1 $121 $122 $28 $-1 $123 reversed single #
loop $-1 $-1 $124 $48 #
plane-surface $-1 0 -28.456148638145397 -4.9598335609843467 0 0 1 1 0 0 forward_v I I I I #
coedge $-1 $125 $126 $127 $128 reversed $49 $-1 #
face $-1 $129 $130 $29 $-1 $131 reversed single #
loop $-1 $-1 $132 $51 #
plane-surface $-1 -12.015542912170446 5.597777767850026 119.67025018188635 0.80901700255871778 0 0.5877852410284794 0.5877852410284794 0 -0.80901700255871778 forward_v I I I I #
coedge $-1 $133 $134 $135 $136 reversed $52 $-1 #
face $-1 $-1 $137 $30 $-1 $138 forward single #
loop $-1 $139 $140 $54 #
cone-surface $-1 62.920866948562647 1.30997432075673 11.833712463055988 -0.80901700255871778 0 -0.5877852410284794 0.2938926205142397 0 -0.40450850127935889 1 I I -0.70710678118654746 0.70710678118654746 0.5 forward I I I I #
loop $-1 $-1 $141 $39 #
coedge $-1 $88 $88 $142 $143 reversed $55 $-1 #
face $-1 $-1 $144 $31 $-1 $145 forward single #
loop $-1 $146 $147 $57 #
cone-surface $-1 62.920866948562647 5.597777767850026 11.833712463055988 -0.80901700255871778 0 -0.5877852410284794 0.2938926205142397 0 -0.40450850127935889 1 I I -0.70710678118654746 0.70710678118654746 0.5 forward I I I I #
loop $-1 $-1 $148 $40 #
coedge $-1 $93 $93 $149 $150 reversed $58 $-1 #
face $-1 $-1 $151 $32 $-1 $152 forward single #
loop $-1 $153 $154 $60 #
cone-surface $-1 62.920866948562647 9.885581214943322 11.833712463055988 -0.80901700255871778 0 -0.5877852410284794 0.2938926205142397 0 -0.40450850127935889 1 I I -0.70710678118654746 0.70710678118654746 0.5 forward I I I I #
loop $-1 $-1 $155 $41 #
coedge $-1 $98 $98 $156 $157 reversed $61 $-1 #
face $-1 $158 $159 $33 $-1 $160 reversed single #
loop $-1 $-1 $161 $63 #
plane-surface $-1 -68.437147129734214 -15.106310882003434 4.4984729445745728 -0.6018150307709319 0 0.79863550430605224 0.79863550430605224 0 0.6018150307709319 forward_v I I I I #
coedge $-1 $162 $163 $164 $165 reversed $64 $-1 #
face $-1 $-1 $166 $34 $-1 $167 forward single #
loop $-1 $168 $169 $66 #
cone-surface $-1 -58.742729711218431 -16.490224505021335 10.238571014736937 0.6018150307709319 0 -0.79863550430605224 0.19965887607651306 0 0.15045375769273298 1 I I -0.70710678118654746 0.70710678118654746 0.25 forward I I I I #
loop $-1 $-1 $170 $43 #
coedge $-1 $107 $107 $171 $172 reversed $67 $-1 #
face $-1 $-1 $173 $35 $-1 $174 forward single #
loop $-1 $175 $176 $69 #
cone-surface $-1 -58.742729711218431 -13.722397258985534 10.238571014736937 0.6018150307709319 0 -0.79863550430605224 0.19965887607651306 0 0.15045375769273298 1 I I -0.70710678118654746 0.70710678118654746 0.25 forward I I I I #
loop $-1 $-1 $177 $44 #
coedge $-1 $112 $112 $178 $179 reversed $70 $-1 #
face $-1 $180 $181 $27 $-1 $182 reversed single #
loop $-1 $-1 $183 $72 #
plane-surface $-1 0 -38.576854607245593 0 0 1 0 0 0 1 forward_v I I I I #
coedge $-1 $184 $185 $186 $187 forward $73 $-1 #
coedge $-1 $188 $75 $189 $190 forward $46 $-1 #
coedge $-1 $75 $188 $191 $192 forward $46 $-1 #
coedge $-1 $193 $194 $75 $120 reversed $195 $-1 #
edge $-1 $196 -38.576854607245593 $197 38.576854607245593 $119 $198 forward 7 unknown #
face $-1 $199 $200 $28 $-1 $201 reversed single #
loop $-1 $-1 $202 $76 #
plane-surface $-1 0 -18.3354426690452 -2.5596399011395157 0 -1 0 0 0 -1 forward_v I I I I #
coedge $-1 $203 $204 $205 $206 reversed $77 $-1 #
coedge $-1 $207 $79 $208 $209 forward $49 $-1 #
coedge $-1 $79 $207 $210 $211 reversed $49 $-1 #
coedge $-1 $212 $213 $79 $128 forward $214 $-1 #
edge $-1 $215 4.1073683499725018 $216 24.348780288172897 $127 $217 forward 7 unknown #
face $-1 $218 $219 $29 $-1 $220 forward single #
loop $-1 $-1 $221 $80 #
plane-surface $-1 98.718088356964572 12.744116846338855 200.12294022379098 0 -1 0 -0.80901700255871778 0 -0.5877852410284794 forward_v I I I I #
coedge $-1 $222 $223 $224 $225 reversed $81 $-1 #
coedge $-1 $134 $83 $226 $227 reversed $52 $-1 #
coedge $-1 $83 $133 $222 $228 reversed $52 $-1 #
coedge $-1 $224 $229 $83 $136 forward $230 $-1 #
edge $-1 $231 82.086212266231058 $232 91.12485119914416 $135 $233 forward 7 unknown #
loop $-1 $-1 $142 $84 #
plane-surface $-1 -12.015542912170446 5.597777767850026 119.67025018188635 0.80901700255871778 0 0.5877852410284794 0.5877852410284794 0 -0.80901700255871778 forward_v I I I I #
loop $-1 $-1 $234 $54 #
coedge $-1 $140 $140 $141 $235 reversed $85 $-1 #
coedge $-1 $141 $141 $140 $235 forward $87 $-1 #
coedge $-1 $142 $142 $88 $143 forward $137 $-1 #
edge $-1 $236 0 $236 6.2831853071796004 $142 $237 forward 7 unknown #
loop $-1 $-1 $149 $89 #
plane-surface $-1 -12.015542912170446 5.597777767850026 119.67025018188635 0.80901700255871778 0 0.5877852410284794 0.5877852410284794 0 -0.80901700255871778 forward_v I I I I #
loop $-1 $-1 $238 $57 #
coedge $-1 $147 $147 $148 $239 reversed $90 $-1 #
coedge $-1 $148 $148 $147 $239 forward $92 $-1 #
coedge $-1 $149 $149 $93 $150 forward $144 $-1 #
edge $-1 $240 0 $240 6.2831853071796004 $149 $241 forward 7 unknown #
loop $-1 $-1 $156 $94 #
plane-surface $-1 -12.015542912170446 5.597777767850026 119.67025018188635 0.80901700255871778 0 0.5877852410284794 0.5877852410284794 0 -0.80901700255871778 forward_v I I I I #
loop $-1 $-1 $242 $60 #
coedge $-1 $154 $154 $155 $243 reversed $95 $-1 #
coedge $-1 $155 $155 $154 $243 forward $97 $-1 #
coedge $-1 $156 $156 $98 $157 forward $151 $-1 #
edge $-1 $244 0 $244 6.2831853071796004 $156 $245 forward 7 unknown #
face $-1 $246 $247 $33 $-1 $248 reversed single #
loop $-1 $-1 $249 $99 #
plane-surface $-1 -150.81015474124575 -11.877179094961669 113.81114396702009 0 -1 0 0.6018150307709319 0 -0.79863550430605224 forward_v I I I I #
coedge $-1 $250 $251 $252 $253 reversed $100 $-1 #
coedge $-1 $163 $102 $254 $255 reversed $64 $-1 #
coedge $-1 $102 $162 $250 $256 reversed $64 $-1 #
coedge $-1 $252 $257 $102 $165 forward $258 $-1 #
edge $-1 $259 6.9679302408886912 $260 24.852227500992839 $164 $261 forward 7 unknown #
loop $-1 $-1 $171 $103 #
plane-surface $-1 -68.437147129734214 -15.106310882003434 4.4984729445745728 -0.6018150307709319 0 0.79863550430605224 0.79863550430605224 0 0.6018150307709319 forward_v I I I I #
loop $-1 $-1 $262 $66 #
coedge $-1 $169 $169 $170 $263 reversed $104 $-1 #
coedge $-1 $170 $170 $169 $263 forward $106 $-1 #
coedge $-1 $171 $171 $107 $172 forward $166 $-1 #
edge $-1 $264 0 $264 6.2831853071796004 $171 $265 forward 7 unknown #
loop $-1 $-1 $178 $108 #
plane-surface $-1 -68.437147129734214 -15.106310882003434 4.4984729445745728 -0.6018150307709319 0 0.79863550430605224 0.79863550430605224 0 0.6018150307709319 forward_v I I I I #
loop $-1 $-1 $266 $69 #
coedge $-1 $176 $176 $177 $267 reversed $109 $-1 #
coedge $-1 $177 $177 $176 $267 forward $111 $-1 #
coedge $-1 $178 $178 $112 $179 forward $173 $-1 #
edge $-1 $268 0 $268 6.2831853071796004 $178 $269 forward 7 unknown #
face $-1 $270 $271 $27 $-1 $272 reversed single #
loop $-1 $-1 $273 $113 #
plane-surface $-1 -68.437147129734186 0 0 1 0 0 0 0 -1 forward_v I I I I #
coedge $-1 $274 $191 $275 $276 forward $114 $-1 #
coedge $-1 $277 $116 $274 $278 forward $73 $-1 #
coedge $-1 $116 $277 $279 $280 forward $73 $-1 #
coedge $-1 $194 $193 $116 $187 reversed $195 $-1 #
edge $-1 $281 -38.576854607245593 $282 38.576854607245593 $186 $283 forward 7 unknown #
coedge $-1 $118 $117 $284 $285 forward $46 $-1 #
coedge $-1 $286 $287 $117 $190 reversed $271 $-1 #
edge $-1 $197 -68.437147129734186 $288 68.437147129734186 $189 $289 forward 7 unknown #
coedge $-1 $183 $290 $118 $192 reversed $114 $-1 #
edge $-1 $291 -68.437147129734186 $196 68.437147129734186 $191 $292 forward 7 unknown #
coedge $-1 $186 $119 $290 $293 forward $195 $-1 #
coedge $-1 $119 $186 $286 $294 reversed $195 $-1 #
loop $-1 $-1 $193 $270 #
vertex $-1 $120 $295 #
vertex $-1 $120 $296 #
straight-curve $-1 68.437147129734186 0 17.97525784566443 0 1 0 I I #
face $-1 $297 $298 $28 $-1 $299 reversed single #
loop $-1 $-1 $300 $121 #
plane-surface $-1 -68.437147129734186 0 0 1 0 0 0 0 -1 forward_v I I I I #
coedge $-1 $301 $208 $213 $302 reversed $122 $-1 #
coedge $-1 $303 $124 $304 $305 reversed $77 $-1 #
coedge $-1 $124 $303 $301 $306 forward $77 $-1 #
coedge $-1 $213 $212 $124 $206 forward $214 $-1 #
edge $-1 $307 -24.348780288172897 $308 -4.1073683499725018 $205 $309 forward 7 unknown #
coedge $-1 $126 $125 $300 $310 reversed $49 $-1 #
coedge $-1 $202 $311 $125 $209 reversed $122 $-1 #
edge $-1 $215 -68.437147129734186 $312 68.437147129734186 $208 $313 forward 7 unknown #
coedge $-1 $314 $315 $126 $211 forward $298 $-1 #
edge $-1 $216 -68.437147129734186 $316 68.437147129734186 $210 $317 forward 7 unknown #
coedge $-1 $205 $127 $315 $318 forward $214 $-1 #
coedge $-1 $127 $205 $202 $302 forward $214 $-1 #
loop $-1 $-1 $127 $297 #
vertex $-1 $128 $319 #
vertex $-1 $318 $320 #
straight-curve $-1 68.437147129734186 -14.228074319072698 -0.15944624129468465 0 -1 0 I I #
face $-1 $-1 $230 $29 $-1 $321 reversed single #
loop $-1 $-1 $322 $129 #
plane-surface $-1 0 0 17.97525784566443 0 0 1 1 0 0 forward_v I I I I #
coedge $-1 $323 $324 $325 $326 reversed $130 $-1 #
coedge $-1 $327 $132 $134 $228 forward $81 $-1 #
coedge $-1 $132 $327 $323 $328 forward $81 $-1 #
coedge $-1 $325 $135 $132 $225 forward $230 $-1 #
edge $-1 $232 -4.347450194563816 $329 9.945227962413842 $224 $330 forward 7 unknown #
coedge $-1 $331 $332 $133 $227 forward $219 $-1 #
edge $-1 $333 12.511147563480399 $231 19.0781029512519 $226 $334 forward 7 unknown #
edge $-1 $232 -136.87429425946837 $333 -125.70192222732794 $134 $335 forward 7 unknown #
coedge $-1 $135 $325 $331 $336 reversed $230 $-1 #
loop $-1 $-1 $325 $218 #
vertex $-1 $336 $337 #
vertex $-1 $136 $338 #
straight-curve $-1 68.437147129734186 -1.548561310638803 100.06147011189549 0 0 -1 I I #
coedge $-1 $234 $234 $-1 $339 reversed $139 $-1 #
edge $-1 $340 0 $340 6.2831853071796004 $140 $341 forward 7 unknown #
vertex $-1 $143 $342 #
ellipse-curve $-1 65.153669435848443 1.30997432075673 13.455938379207875 0.80901700255871778 0 0.5877852410284794 0.5877852410284794 0 -0.80901700255871778 1 I I #
coedge $-1 $238 $238 $-1 $343 reversed $146 $-1 #
edge $-1 $344 0 $344 6.2831853071796004 $147 $345 forward 7 unknown #
vertex $-1 $150 $346 #
ellipse-curve $-1 65.153669435848443 5.597777767850026 13.455938379207875 0.80901700255871778 0 0.5877852410284794 0.5877852410284794 0 -0.80901700255871778 1 I I #
coedge $-1 $242 $242 $-1 $347 reversed $153 $-1 #
edge $-1 $348 0 $348 6.2831853071796004 $154 $349 forward 7 unknown #
vertex $-1 $157 $350 #
ellipse-curve $-1 65.153669435848443 9.885581214943322 13.455938379207875 0.80901700255871778 0 0.5877852410284794 0.5877852410284794 0 -0.80901700255871778 1 I I #
face $-1 $-1 $258 $33 $-1 $351 forward single #
loop $-1 $-1 $352 $158 #
plane-surface $-1 -68.437147129734186 0 0 1 0 0 0 0 -1 forward_v I I I I #
coedge $-1 $353 $354 $355 $356 reversed $159 $-1 #
coedge $-1 $357 $161 $163 $256 forward $100 $-1 #
coedge $-1 $161 $357 $353 $358 forward $100 $-1 #
coedge $-1 $355 $164 $161 $253 forward $258 $-1 #
edge $-1 $260 -10.782287228043483 $359 -4.3240236539599515 $252 $360 forward 7 unknown #
coedge $-1 $361 $362 $162 $255 forward $247 $-1 #
edge $-1 $363 -52.407099038935449 $259 -38.930314137845613 $254 $364 forward 7 unknown #
edge $-1 $260 -22.393566481425268 $363 -3.5527045195756588e-014 $163 $365 forward 7 unknown #
coedge $-1 $164 $355 $361 $366 forward $258 $-1 #
loop $-1 $-1 $355 $246 #
vertex $-1 $255 $367 #
vertex $-1 $165 $368 #
straight-curve $-1 -75.405077370622877 -18.3354426690452 17.97525784566443 1 0 0 I I #
coedge $-1 $262 $262 $-1 $369 reversed $168 $-1 #
edge $-1 $370 0 $370 6.2831853071796004 $169 $371 forward 7 unknown #
vertex $-1 $172 $372 #
ellipse-curve $-1 -59.494998499682104 -16.490224505021335 11.236865395119517 -0.6018150307709319 0 0.79863550430605224 0.39931775215302612 0 0.30090751538546595 1 I I #
coedge $-1 $266 $266 $-1 $373 reversed $175 $-1 #
edge $-1 $374 0 $374 6.2831853071796004 $176 $375 forward 7 unknown #
vertex $-1 $179 $376 #
ellipse-curve $-1 -59.494998499682104 -13.722397258985534 11.236865395119517 -0.6018150307709319 0 0.79863550430605224 0.39931775215302612 0 0.30090751538546595 1 I I #
face $-1 $-1 $195 $27 $-1 $377 reversed single #
loop $-1 $-1 $286 $180 #
plane-surface $-1 0 38.576854607245593 0 0 -1 0 0 0 -1 forward_v I I I I #
coedge $-1 $378 $284 $287 $379 forward $181 $-1 #
coedge $-1 $290 $183 $184 $278 reversed $114 $-1 #
coedge $-1 $284 $378 $183 $276 reversed $181 $-1 #
edge $-1 $291 -17.97525784566443 $380 17.97525784566443 $275 $381 forward 7 unknown #
coedge $-1 $185 $184 $378 $382 forward $73 $-1 #
edge $-1 $282 -68.437147129734186 $380 68.437147129734186 $274 $383 forward 7 unknown #
coedge $-1 $287 $286 $185 $280 reversed $271 $-1 #
edge $-1 $384 -68.437147129734186 $281 68.437147129734186 $279 $385 forward 7 unknown #
vertex $-1 $187 $386 #
vertex $-1 $293 $387 #
straight-curve $-1 68.437147129734186 0 -17.97525784566443 0 -1 0 I I #
coedge $-1 $273 $275 $188 $285 reversed $181 $-1 #
edge $-1 $288 -38.576854607245593 $291 38.576854607245593 $284 $388 forward 7 unknown #
coedge $-1 $279 $189 $194 $294 forward $271 $-1 #
coedge $-1 $189 $279 $273 $379 reversed $271 $-1 #
vertex $-1 $190 $389 #
straight-curve $-1 0 38.576854607245593 17.97525784566443 -1 0 0 I I #
coedge $-1 $191 $274 $193 $293 reversed $114 $-1 #
vertex $-1 $285 $390 #
straight-curve $-1 0 -38.576854607245593 17.97525784566443 1 0 0 I I #
edge $-1 $196 -17.97525784566443 $282 17.97525784566443 $193 $391 forward 7 unknown #
edge $-1 $197 -17.97525784566443 $281 17.97525784566443 $194 $392 forward 7 unknown #
point $-1 68.437147129734186 -38.576854607245593 17.97525784566443 #
point $-1 68.437147129734186 38.576854607245593 17.97525784566443 #
face $-1 $-1 $214 $28 $-1 $393 reversed single #
loop $-1 $-1 $210 $199 #
plane-surface $-1 0 -38.576854607245593 0 0 1 0 0 0 1 forward_v I I I I #
coedge $-1 $394 $395 $207 $310 forward $200 $-1 #
coedge $-1 $311 $202 $204 $306 reversed $122 $-1 #
edge $-1 $308 -3.6800136104145889 $215 1.1203737092750732 $213 $396 forward 7 unknown #
coedge $-1 $204 $203 $397 $398 reversed $77 $-1 #
coedge $-1 $315 $314 $203 $305 forward $298 $-1 #
edge $-1 $399 -68.437147129734186 $307 68.437147129734186 $304 $400 forward 7 unknown #
edge $-1 $401 -68.437147129734186 $308 68.437147129734186 $301 $402 forward 7 unknown #
vertex $-1 $305 $403 #
vertex $-1 $206 $404 #
straight-curve $-1 68.437147129734186 -14.228074319072698 -4.9598335609843467 0 1 0 I I #
edge $-1 $316 -24.348780288172897 $312 -4.1073683499725018 $300 $405 forward 7 unknown #
coedge $-1 $208 $301 $394 $406 reversed $122 $-1 #
vertex $-1 $310 $407 #
straight-curve $-1 0 -18.3354426690452 -0.15944624129468465 -1 0 0 I I #
coedge $-1 $304 $210 $395 $408 forward $298 $-1 #
coedge $-1 $210 $304 $212 $318 reversed $298 $-1 #
vertex $-1 $408 $409 #
straight-curve $-1 0 -38.576854607245593 -0.15944624129468465 -1 0 0 I I #
edge $-1 $216 0.15944624129468465 $307 4.9598335609843467 $212 $410 forward 7 unknown #
point $-1 68.437147129734186 -18.3354426690452 -0.15944624129468465 #
point $-1 68.437147129734186 -38.576854607245593 -0.15944624129468465 #
plane-surface $-1 68.437147129734186 0 0 -1 0 0 0 0 1 forward_v I I I I #
coedge $-1 $332 $331 $324 $411 forward $219 $-1 #
coedge $-1 $324 $221 $223 $328 reversed $130 $-1 #
coedge $-1 $221 $323 $322 $411 reversed $130 $-1 #
coedge $-1 $229 $224 $221 $326 forward $230 $-1 #
edge $-1 $329 -91.12485119914416 $412 -82.086212266231058 $325 $413 forward 7 unknown #
coedge $-1 $223 $222 $332 $414 reversed $81 $-1 #
edge $-1 $415 125.70192222732794 $329 136.87429425946837 $323 $416 forward 7 unknown #
vertex $-1 $225 $417 #
straight-curve $-1 68.4371471297342 2.798888883925013 8.9366189127513209 0 1 0 I I #
coedge $-1 $322 $226 $229 $336 forward $219 $-1 #
coedge $-1 $226 $322 $327 $414 forward $219 $-1 #
vertex $-1 $227 $418 #
straight-curve $-1 49.359044178482286 -1.548561310638803 17.97525784566443 1 0 0 I I #
straight-curve $-1 -12.015542912170446 -1.548561310638803 119.67025018188635 -0.5877852410284794 0 0.80901700255871778 I I #
edge $-1 $231 -1.548561310638803 $412 12.744116846338855 $229 $419 forward 7 unknown #
point $-1 68.437147129734186 -1.548561310638803 17.97525784566443 #
point $-1 68.437147129734186 -1.548561310638803 8.936618912751328 #
edge $-1 $420 1 $420 0 $234 $-1 forward 7 unknown #
vertex $-1 $235 $421 #
ellipse-curve $-1 63.325375449842007 1.30997432075673 12.127605083570229 0.80901700255871778 0 0.5877852410284794 0.5877852410284794 0 -0.80901700255871778 1 I I #
point $-1 65.741454676876927 1.30997432075673 12.646921376649161 #
edge $-1 $422 1 $422 0 $238 $-1 forward 7 unknown #
vertex $-1 $239 $423 #
ellipse-curve $-1 63.325375449842007 5.597777767850026 12.127605083570229 0.80901700255871778 0 0.5877852410284794 0.5877852410284794 0 -0.80901700255871778 1 I I #
point $-1 65.741454676876927 5.597777767850026 12.646921376649161 #
edge $-1 $424 1 $424 0 $242 $-1 forward 7 unknown #
vertex $-1 $243 $425 #
ellipse-curve $-1 63.325375449842007 9.885581214943322 12.127605083570229 0.80901700255871778 0 0.5877852410284794 0.5877852410284794 0 -0.80901700255871778 1 I I #
point $-1 65.741454676876927 9.885581214943322 12.646921376649161 #
plane-surface $-1 0 0 17.97525784566443 0 0 1 1 0 0 forward_v I I I I #
coedge $-1 $362 $361 $354 $426 forward $247 $-1 #
coedge $-1 $354 $249 $251 $358 reversed $159 $-1 #
coedge $-1 $249 $353 $352 $426 reversed $159 $-1 #
coedge $-1 $257 $252 $249 $356 forward $258 $-1 #
edge $-1 $359 -24.852227500992839 $427 -6.9679302408886912 $355 $428 forward 7 unknown #
coedge $-1 $251 $250 $362 $429 reversed $100 $-1 #
edge $-1 $430 3.5527045195756588e-014 $359 22.393566481425268 $353 $431 forward 7 unknown #
vertex $-1 $253 $432 #
straight-curve $-1 -50.552849869630045 -7.5531554410017172 17.97525784566443 0 1 0 I I #
coedge $-1 $352 $254 $257 $366 reversed $247 $-1 #
coedge $-1 $254 $352 $357 $429 forward $247 $-1 #
vertex $-1 $255 $433 #
straight-curve $-1 -68.437147129734186 -18.3354426690452 56.905571983510043 0 0 1 I I #
straight-curve $-1 -68.437147129734214 -18.3354426690452 4.4984729445745728 -0.79863550430605224 0 -0.6018150307709319 I I #
edge $-1 $427 11.877179094961669 $259 18.3354426690452 $361 $434 forward 7 unknown #
point $-1 -68.437147129734186 -18.3354426690452 17.97525784566443 #
point $-1 -50.552849869630037 -18.3354426690452 17.97525784566443 #
edge $-1 $435 1 $435 0 $262 $-1 forward 7 unknown #
vertex $-1 $263 $436 #
ellipse-curve $-1 -58.893183468911161 -16.490224505021335 10.438229890813451 -0.6018150307709319 0 0.79863550430605224 0.39931775215302612 0 0.30090751538546595 1 I I #
point $-1 -59.095680747529066 -16.490224505021335 11.537772910504968 #
edge $-1 $437 1 $437 0 $266 $-1 forward 7 unknown #
vertex $-1 $267 $438 #
ellipse-curve $-1 -58.893183468911161 -13.722397258985534 10.438229890813451 -0.6018150307709319 0 0.79863550430605224 0.39931775215302612 0 0.30090751538546595 1 I I #
point $-1 -59.095680747529066 -13.722397258985534 11.537772910504968 #
plane-surface $-1 68.437147129734186 0 0 -1 0 0 0 0 1 forward_v I I I I #
coedge $-1 $275 $273 $277 $382 reversed $181 $-1 #
edge $-1 $288 -17.97525784566443 $384 17.97525784566443 $287 $439 forward 7 unknown #
vertex $-1 $382 $440 #
straight-curve $-1 -68.437147129734186 -38.576854607245593 0 0 0 -1 I I #
edge $-1 $380 -38.576854607245593 $384 38.576854607245593 $378 $441 forward 7 unknown #
straight-curve $-1 0 -38.576854607245593 -17.97525784566443 -1 0 0 I I #
vertex $-1 $280 $442 #
straight-curve $-1 0 38.576854607245593 -17.97525784566443 1 0 0 I I #
point $-1 68.437147129734186 38.576854607245593 -17.97525784566443 #
point $-1 68.437147129734186 -38.576854607245593 -17.97525784566443 #
straight-curve $-1 -68.437147129734186 0 17.97525784566443 0 -1 0 I I #
point $-1 -68.437147129734186 38.576854607245593 17.97525784566443 #
point $-1 -68.437147129734186 -38.576854607245593 17.97525784566443 #
straight-curve $-1 68.437147129734186 -38.576854607245593 0 0 0 -1 I I #
straight-curve $-1 68.437147129734186 38.576854607245593 0 0 0 -1 I I #
plane-surface $-1 68.437147129734186 0 0 -1 0 0 0 0 1 forward_v I I I I #
coedge $-1 $397 $300 $311 $406 forward $200 $-1 #
coedge $-1 $300 $397 $314 $408 reversed $200 $-1 #
straight-curve $-1 68.437147129734186 -18.3354426690452 -1.2798199505697578 0 0 1 I I #
coedge $-1 $395 $394 $303 $398 forward $200 $-1 #
edge $-1 $401 4.1073683499725018 $399 24.348780288172897 $397 $443 forward 7 unknown #
vertex $-1 $305 $444 #
straight-curve $-1 0 -38.576854607245593 -4.9598335609843467 1 0 0 I I #
vertex $-1 $398 $445 #
straight-curve $-1 0 -18.3354426690452 -4.9598335609843467 1 0 0 I I #
point $-1 68.437147129734186 -38.576854607245593 -4.9598335609843467 #
point $-1 68.437147129734186 -18.3354426690452 -4.9598335609843467 #
straight-curve $-1 -68.437147129734186 -14.228074319072698 -0.15944624129468465 0 1 0 I I #
edge $-1 $312 -1.1203737092750732 $401 3.6800136104145889 $394 $446 forward 7 unknown #
point $-1 -68.437147129734186 -18.3354426690452 -0.15944624129468465 #
edge $-1 $316 0.15944624129468465 $399 4.9598335609843467 $395 $447 forward 7 unknown #
point $-1 -68.437147129734186 -38.576854607245593 -0.15944624129468465 #
straight-curve $-1 68.437147129734186 -38.576854607245593 0 0 0 -1 I I #
edge $-1 $412 -19.0781029512519 $415 -12.511147563480399 $322 $448 forward 7 unknown #
vertex $-1 $411 $449 #
straight-curve $-1 68.437147129734186 12.744116846338855 100.06147011189549 0 0 1 I I #
edge $-1 $415 -9.945227962413842 $333 4.347450194563816 $332 $450 forward 7 unknown #
vertex $-1 $414 $451 #
straight-curve $-1 -12.015542912170446 12.744116846338855 119.67025018188635 0.5877852410284794 0 -0.80901700255871778 I I #
point $-1 68.437147129734186 12.744116846338855 8.936618912751328 #
point $-1 61.870191741962685 -1.548561310638803 17.97525784566443 #
straight-curve $-1 68.437147129734186 0 17.97525784566443 0 1 0 I I #
vertex $-1 $339 $452 #
point $-1 63.913160690870484 1.30997432075673 11.31858808101151 #
vertex $-1 $343 $453 #
point $-1 63.913160690870484 5.597777767850026 11.31858808101151 #
vertex $-1 $347 $454 #
point $-1 63.913160690870484 9.885581214943322 11.31858808101151 #
edge $-1 $427 38.930314137845613 $430 52.407099038935449 $352 $455 forward 7 unknown #
vertex $-1 $366 $456 #
straight-curve $-1 -75.405077370622877 -11.877179094961669 17.97525784566443 -1 0 0 I I #
edge $-1 $430 4.3240236539599515 $363 10.782287228043483 $362 $457 forward 7 unknown #
vertex $-1 $429 $458 #
straight-curve $-1 -68.437147129734214 -11.877179094961669 4.4984729445745728 0.79863550430605224 0 0.6018150307709319 I I #
point $-1 -50.552849869630037 -11.877179094961669 17.97525784566443 #
point $-1 -68.437147129734186 -18.3354426690452 4.4984729445745941 #
straight-curve $-1 -68.437147129734186 0 17.97525784566443 0 -1 0 I I #
vertex $-1 $369 $459 #
point $-1 -58.493865716758137 -16.490224505021335 10.739137406198916 #
vertex $-1 $373 $460 #
point $-1 -58.493865716758137 -13.722397258985534 10.739137406198916 #
straight-curve $-1 -68.437147129734186 38.576854607245593 0 0 0 -1 I I #
point $-1 -68.437147129734186 -38.576854607245593 -17.97525784566443 #
straight-curve $-1 -68.437147129734186 0 -17.97525784566443 0 1 0 I I #
point $-1 -68.437147129734186 38.576854607245593 -17.97525784566443 #
straight-curve $-1 -68.437147129734186 -14.228074319072698 -4.9598335609843467 0 -1 0 I I #
point $-1 -68.437147129734186 -38.576854607245593 -4.9598335609843467 #
point $-1 -68.437147129734186 -18.3354426690452 -4.9598335609843467 #
straight-curve $-1 -68.437147129734186 -18.3354426690452 -1.2798199505697578 0 0 -1 I I #
straight-curve $-1 -68.437147129734186 -38.576854607245593 0 0 0 -1 I I #
straight-curve $-1 49.359044178482286 12.744116846338855 17.97525784566443 -1 0 0 I I #
point $-1 68.437147129734186 12.744116846338855 17.97525784566443 #
straight-curve $-1 61.870191741962685 2.798888883925013 17.97525784566443 0 -1 0 I I #
point $-1 61.870191741962685 12.744116846338855 17.97525784566443 #
point $-1 62.516358447283288 1.30997432075673 11.539819842541748 #
point $-1 62.516358447283288 5.597777767850026 11.539819842541748 #
point $-1 62.516358447283288 9.885581214943322 11.539819842541748 #
straight-curve $-1 -68.437147129734186 -11.877179094961669 56.905571983510043 0 0 -1 I I #
point $-1 -68.437147129734186 -11.877179094961669 17.97525784566443 #
straight-curve $-1 -68.437147129734186 -7.5531554410017172 4.4984729445745923 0 -1 0 I I #
point $-1 -68.437147129734186 -11.877179094961669 4.4984729445745941 #
point $-1 -58.5922759535257 -16.490224505021335 10.038912138660423 #
point $-1 -58.5922759535257 -13.722397258985534 10.038912138660423 #
End-of-ACIS-data 