500 0 14 0           
7 Unknown 11 ACIS 5.0 NT 24 Thu Mar 25 19:27:43 1999 
-1 9.9999999999999995e-007 1e-010 
body $-1 $14 $-1 $15 #
body $-1 $16 $-1 $17 #
body $-1 $18 $-1 $19 #
body $-1 $20 $-1 $21 #
body $-1 $22 $-1 $23 #
body $-1 $24 $-1 $25 #
body $-1 $26 $-1 $27 #
body $-1 $28 $-1 $29 #
body $-1 $30 $-1 $31 #
body $-1 $32 $-1 $33 #
body $-1 $34 $-1 $35 #
body $-1 $36 $-1 $37 #
body $-1 $38 $-1 $39 #
body $-1 $40 $-1 $41 #
lump $-1 $-1 $42 $0 #
transform $-1 1 0 0 0 1 0 0 0 1 49.369182409131142 30.274803231684295 10.659794528791506 1 rotate no_reflect no_shear #
lump $-1 $-1 $43 $1 #
transform $-1 1 0 0 0 1 0 0 0 1 49.369182409131142 30.274803231684295 10.659794528791506 1 rotate no_reflect no_shear #
lump $-1 $-1 $44 $2 #
transform $-1 1 0 0 0 1 0 0 0 1 49.369182409131142 30.274803231684295 10.659794528791506 1 rotate no_reflect no_shear #
lump $-1 $-1 $45 $3 #
transform $-1 1 0 0 0 1 0 0 0 1 49.369182409131142 30.274803231684295 10.659794528791506 1 rotate no_reflect no_shear #
lump $-1 $-1 $46 $4 #
transform $-1 1 0 0 0 1 0 0 0 1 49.369182409131142 30.274803231684295 10.659794528791506 1 rotate no_reflect no_shear #
lump $-1 $-1 $47 $5 #
transform $-1 1 0 0 0 1 0 0 0 1 49.369182409131142 30.274803231684295 10.659794528791506 1 rotate no_reflect no_shear #
lump $-1 $-1 $48 $6 #
transform $-1 1 0 0 0 1 0 0 0 1 49.369182409131142 30.274803231684295 10.659794528791506 1 rotate no_reflect no_shear #
lump $-1 $-1 $49 $7 #
transform $-1 1 0 0 0 1 0 0 0 1 49.369182409131142 30.274803231684295 10.659794528791506 1 rotate no_reflect no_shear #
lump $-1 $-1 $50 $8 #
transform $-1 1 0 0 0 1 0 0 0 1 49.369182409131142 30.274803231684295 10.659794528791506 1 rotate no_reflect no_shear #
lump $-1 $-1 $51 $9 #
transform $-1 1 0 0 0 1 0 0 0 1 49.369182409131142 30.274803231684295 10.659794528791506 1 rotate no_reflect no_shear #
lump $-1 $-1 $52 $10 #
transform $-1 1 0 0 0 1 0 0 0 1 49.369182409131142 30.274803231684295 10.659794528791506 1 rotate no_reflect no_shear #
lump $-1 $-1 $53 $11 #
transform $-1 1 0 0 0 1 0 0 0 1 49.369182409131142 30.274803231684295 10.659794528791506 1 rotate no_reflect no_shear #
lump $-1 $-1 $54 $12 #
transform $-1 1 0 0 0 1 0 0 0 1 49.369182409131142 30.274803231684295 10.659794528791506 1 rotate no_reflect no_shear #
lump $-1 $-1 $55 $13 #
transform $-1 1 0 0 0 1 0 0 0 1 49.369182409131142 30.274803231684295 10.659794528791506 1 rotate no_reflect no_shear #
shell $-1 $-1 $-1 $56 $-1 $14 #
shell $-1 $-1 $-1 $57 $-1 $16 #
shell $-1 $-1 $-1 $58 $-1 $18 #
shell $-1 $-1 $-1 $59 $-1 $20 #
shell $-1 $-1 $-1 $60 $-1 $22 #
shell $-1 $-1 $-1 $61 $-1 $24 #
shell $-1 $-1 $-1 $62 $-1 $26 #
shell $-1 $-1 $-1 $63 $-1 $28 #
shell $-1 $-1 $-1 $64 $-1 $30 #
shell $-1 $-1 $-1 $65 $-1 $32 #
shell $-1 $-1 $-1 $66 $-1 $34 #
shell $-1 $-1 $-1 $67 $-1 $36 #
shell $-1 $-1 $-1 $68 $-1 $38 #
shell $-1 $-1 $-1 $69 $-1 $40 #
face $-1 $70 $71 $42 $-1 $72 reversed single #
face $-1 $73 $74 $43 $-1 $75 forward single #
face $-1 $76 $77 $44 $-1 $78 forward single #
face $-1 $79 $80 $45 $-1 $81 reversed single #
face $-1 $82 $83 $46 $-1 $84 forward single #
face $-1 $85 $86 $47 $-1 $87 forward single #
face $-1 $88 $89 $48 $-1 $90 forward single #
face $-1 $91 $92 $49 $-1 $93 reversed single #
face $-1 $94 $95 $50 $-1 $96 forward single #
face $-1 $97 $98 $51 $-1 $99 forward single #
face $-1 $100 $101 $52 $-1 $102 forward single #
face $-1 $103 $104 $53 $-1 $105 reversed single #
face $-1 $106 $107 $54 $-1 $108 forward single #
face $-1 $109 $110 $55 $-1 $111 forward single #
face $-1 $112 $113 $42 $-1 $114 forward single #
loop $-1 $-1 $115 $56 #
plane-surface $-1 49.369182409131142 0 0 -1 0 0 0 0 1 forward_v I I I I #
face $-1 $116 $117 $43 $-1 $118 reversed single #
loop $-1 $-1 $119 $57 #
plane-surface $-1 -49.369182409131142 0 0 1 0 0 0 0 -1 forward_v I I I I #
face $-1 $120 $121 $44 $-1 $122 reversed single #
loop $-1 $-1 $123 $58 #
plane-surface $-1 49.369182409131142 0 0 -1 0 0 0 0 1 forward_v I I I I #
face $-1 $124 $125 $45 $-1 $126 reversed single #
loop $-1 $-1 $127 $59 #
plane-surface $-1 -35.945609969297138 87.278292822685074 103.55897109933107 1 0 0 0 -0.87461971476443456 -0.48480960649040278 forward_v I I I I #
face $-1 $128 $129 $46 $-1 $130 forward single #
loop $-1 $131 $132 $60 #
cone-surface $-1 -33.586826725302188 27.000640224846791 6.0988653805698485 0 -0.87461971476443456 -0.48480960649040278 1 0 0 1 I I 0 1 1 forward I I I I #
face $-1 $133 $134 $47 $-1 $135 forward single #
loop $-1 $136 $137 $61 #
cone-surface $-1 -30.04865185930975 27.000640224846791 6.0988653805698485 0 -0.87461971476443456 -0.48480960649040278 1 0 0 1 I I 0 1 1 forward I I I I #
face $-1 $138 $139 $48 $-1 $140 forward single #
loop $-1 $141 $142 $62 #
cone-surface $-1 -26.510476993317315 27.000640224846791 6.0988653805698485 0 -0.87461971476443456 -0.48480960649040278 1 0 0 1 I I 0 1 1 forward I I I I #
face $-1 $143 $144 $49 $-1 $145 reversed single #
loop $-1 $-1 $146 $63 #
plane-surface $-1 -8.8817841970012523e-016 87.278292822685074 103.55897109933107 1 0 0 0 -0.87461971476443456 -0.48480960649040278 forward_v I I I I #
face $-1 $147 $148 $50 $-1 $149 forward single #
loop $-1 $150 $151 $64 #
cone-surface $-1 2.3587832439949494 27.000640224846791 6.0988653805698485 0 -0.87461971476443456 -0.48480960649040278 1 0 0 1 I I 0 1 1 forward I I I I #
face $-1 $152 $153 $51 $-1 $154 forward single #
loop $-1 $155 $156 $65 #
cone-surface $-1 5.8969581099873878 27.000640224846791 6.0988653805698485 0 -0.87461971476443456 -0.48480960649040278 1 0 0 1 I I 0 1 1 forward I I I I #
face $-1 $157 $158 $52 $-1 $159 forward single #
loop $-1 $160 $161 $66 #
cone-surface $-1 9.4351329759798261 27.000640224846791 6.0988653805698485 0 -0.87461971476443456 -0.48480960649040278 1 0 0 1 I I 0 1 1 forward I I I I #
face $-1 $162 $163 $53 $-1 $164 reversed single #
loop $-1 $-1 $165 $67 #
plane-surface $-1 35.945609969297124 -98.864235643899178 76.762339221768997 -1 0 0 0 -0.69465837861970381 0.71933979245794832 forward_v I I I I #
face $-1 $166 $167 $54 $-1 $168 forward single #
loop $-1 $169 $170 $68 #
cone-surface $-1 27.03838783454944 -26.794304436110586 7.2336878107234002 0 0.69465837861970381 -0.71933979245794832 1 0 0 1 I I 0 1 1 forward I I I I #
face $-1 $171 $172 $55 $-1 $173 forward single #
loop $-1 $174 $175 $69 #
cone-surface $-1 32.382721115398056 -26.794304436110586 7.2336878107234002 0 0.69465837861970381 -0.71933979245794832 1 0 0 1 I I 0 1 1 forward I I I I #
face $-1 $176 $177 $42 $-1 $178 reversed single #
loop $-1 $-1 $179 $70 #
plane-surface $-1 0 0 10.659794528791506 0 0 1 1 0 0 forward_v I I I I #
coedge $-1 $180 $181 $182 $183 reversed $71 $-1 #
face $-1 $184 $185 $43 $-1 $186 forward single #
loop $-1 $-1 $187 $73 #
plane-surface $-1 0 30.274803231684295 0 0 -1 0 0 0 -1 forward_v I I I I #
coedge $-1 $188 $189 $190 $191 forward $74 $-1 #
face $-1 $192 $193 $44 $-1 $194 forward single #
loop $-1 $-1 $195 $76 #
plane-surface $-1 0 -30.274803231684295 0 0 1 0 0 0 1 forward_v I I I I #
coedge $-1 $196 $197 $198 $199 forward $77 $-1 #
face $-1 $200 $201 $45 $-1 $202 reversed single #
loop $-1 $-1 $203 $79 #
plane-surface $-1 -30.04865185930975 0.91977234902984151 55.689663306283506 0 0.87461971476443456 0.48480960649040278 1 0 0 forward_v I I I I #
coedge $-1 $204 $205 $206 $207 reversed $80 $-1 #
face $-1 $-1 $208 $46 $-1 $209 forward single #
loop $-1 $210 $211 $82 #
cone-surface $-1 -33.586826725302188 25.486451340324045 5.2595368074021014 0 -0.87461971476443456 -0.48480960649040278 0.5 0 0 1 I I -0.70710678118654746 0.70710678118654746 0.5 forward I I I I #
loop $-1 $-1 $212 $60 #
coedge $-1 $132 $132 $213 $214 reversed $83 $-1 #
face $-1 $-1 $215 $47 $-1 $216 forward single #
loop $-1 $217 $218 $85 #
cone-surface $-1 -30.04865185930975 25.486451340324045 5.2595368074021014 0 -0.87461971476443456 -0.48480960649040278 0.5 0 0 1 I I -0.70710678118654746 0.70710678118654746 0.5 forward I I I I #
loop $-1 $-1 $219 $61 #
coedge $-1 $137 $137 $220 $221 reversed $86 $-1 #
face $-1 $-1 $222 $48 $-1 $223 forward single #
loop $-1 $224 $225 $88 #
cone-surface $-1 -26.510476993317315 25.486451340324045 5.2595368074021014 0 -0.87461971476443456 -0.48480960649040278 0.5 0 0 1 I I -0.70710678118654746 0.70710678118654746 0.5 forward I I I I #
loop $-1 $-1 $226 $62 #
coedge $-1 $142 $142 $227 $228 reversed $89 $-1 #
face $-1 $229 $230 $49 $-1 $231 reversed single #
loop $-1 $-1 $232 $91 #
plane-surface $-1 5.8969581099873878 0.91977234902984151 55.689663306283506 0 0.87461971476443456 0.48480960649040278 1 0 0 forward_v I I I I #
coedge $-1 $233 $234 $235 $236 reversed $92 $-1 #
face $-1 $-1 $237 $50 $-1 $238 forward single #
loop $-1 $239 $240 $94 #
cone-surface $-1 2.3587832439949494 25.486451340324045 5.2595368074021014 0 -0.87461971476443456 -0.48480960649040278 0.5 0 0 1 I I -0.70710678118654746 0.70710678118654746 0.5 forward I I I I #
loop $-1 $-1 $241 $64 #
coedge $-1 $151 $151 $242 $243 reversed $95 $-1 #
face $-1 $-1 $244 $51 $-1 $245 forward single #
loop $-1 $246 $247 $97 #
cone-surface $-1 5.8969581099873878 25.486451340324045 5.2595368074021014 0 -0.87461971476443456 -0.48480960649040278 0.5 0 0 1 I I -0.70710678118654746 0.70710678118654746 0.5 forward I I I I #
loop $-1 $-1 $248 $65 #
coedge $-1 $156 $156 $249 $250 reversed $98 $-1 #
face $-1 $-1 $251 $52 $-1 $252 forward single #
loop $-1 $253 $254 $100 #
cone-surface $-1 9.4351329759798261 25.486451340324045 5.2595368074021014 0 -0.87461971476443456 -0.48480960649040278 0.5 0 0 1 I I -0.70710678118654746 0.70710678118654746 0.5 forward I I I I #
loop $-1 $-1 $255 $66 #
coedge $-1 $161 $161 $256 $257 reversed $101 $-1 #
face $-1 $258 $259 $53 $-1 $260 reversed single #
loop $-1 $-1 $261 $103 #
plane-surface $-1 29.710554474973748 -30.274803231684288 5.7359043657630195 0 -0.69465837861970381 0.71933979245794832 1 0 0 forward_v I I I I #
coedge $-1 $262 $263 $264 $265 reversed $104 $-1 #
face $-1 $-1 $266 $54 $-1 $267 forward single #
loop $-1 $268 $269 $106 #
cone-surface $-1 27.03838783454944 -25.515895156142488 5.9098562779405572 0 0.69465837861970381 -0.71933979245794832 0.5 0 0 1 I I -0.70710678118654746 0.70710678118654746 0.5 forward I I I I #
loop $-1 $-1 $270 $68 #
coedge $-1 $170 $170 $271 $272 reversed $107 $-1 #
face $-1 $-1 $273 $55 $-1 $274 forward single #
loop $-1 $275 $276 $109 #
cone-surface $-1 32.382721115398056 -25.515895156142488 5.9098562779405572 0 0.69465837861970381 -0.71933979245794832 0.5 0 0 1 I I -0.70710678118654746 0.70710678118654746 0.5 forward I I I I #
loop $-1 $-1 $277 $69 #
coedge $-1 $175 $175 $278 $279 reversed $110 $-1 #
face $-1 $280 $281 $42 $-1 $282 reversed single #
loop $-1 $-1 $283 $112 #
plane-surface $-1 0 0 -10.659794528791506 0 0 1 1 0 0 forward_v I I I I #
coedge $-1 $284 $285 $180 $286 forward $113 $-1 #
coedge $-1 $287 $115 $179 $286 reversed $71 $-1 #
coedge $-1 $115 $287 $283 $288 reversed $71 $-1 #
coedge $-1 $289 $290 $115 $183 forward $291 $-1 #
edge $-1 $292 -10.659794528791506 $293 10.659794528791506 $115 $294 forward 7 unknown #
face $-1 $295 $296 $43 $-1 $297 reversed single #
loop $-1 $-1 $190 $116 #
plane-surface $-1 -56.080968629048144 0 1.3957237305176546 0 0 1 1 0 0 forward_v I I I I #
coedge $-1 $298 $299 $189 $300 forward $117 $-1 #
coedge $-1 $301 $119 $302 $303 reversed $74 $-1 #
coedge $-1 $119 $301 $187 $300 reversed $74 $-1 #
coedge $-1 $304 $305 $119 $191 reversed $185 $-1 #
edge $-1 $306 -30.274803231684295 $307 30.274803231684295 $190 $308 forward 7 unknown #
face $-1 $309 $310 $44 $-1 $311 reversed single #
loop $-1 $-1 $312 $120 #
plane-surface $-1 56.080968629048144 0 1.3957237305176546 0 0 1 1 0 0 forward_v I I I I #
coedge $-1 $313 $314 $197 $315 forward $121 $-1 #
coedge $-1 $316 $123 $317 $318 reversed $77 $-1 #
coedge $-1 $123 $316 $195 $315 reversed $77 $-1 #
coedge $-1 $319 $320 $123 $199 reversed $193 $-1 #
edge $-1 $321 -30.274803231684295 $322 30.274803231684295 $198 $323 forward 7 unknown #
face $-1 $324 $325 $45 $-1 $326 reversed single #
loop $-1 $-1 $327 $124 #
plane-surface $-1 -24.151693749322362 87.278292822685074 103.55897109933107 -1 0 0 0 0.87461971476443456 0.48480960649040278 forward_v I I I I #
coedge $-1 $328 $329 $330 $331 reversed $125 $-1 #
coedge $-1 $205 $127 $332 $333 reversed $80 $-1 #
coedge $-1 $127 $204 $328 $334 reversed $80 $-1 #
coedge $-1 $330 $335 $127 $207 forward $336 $-1 #
edge $-1 $337 13.364343179658242 $338 17.758911139052163 $206 $339 forward 7 unknown #
loop $-1 $-1 $213 $128 #
plane-surface $-1 -30.04865185930975 0.91977234902984151 55.689663306283506 0 0.87461971476443456 0.48480960649040278 1 0 0 forward_v I I I I #
loop $-1 $-1 $340 $82 #
coedge $-1 $211 $211 $212 $341 reversed $129 $-1 #
coedge $-1 $212 $212 $211 $341 forward $131 $-1 #
coedge $-1 $213 $213 $132 $214 forward $208 $-1 #
edge $-1 $342 5.4111866181864343e-016 $342 6.2831853071796013 $213 $343 forward 7 unknown #
loop $-1 $-1 $220 $133 #
plane-surface $-1 -30.04865185930975 0.91977234902984151 55.689663306283506 0 0.87461971476443456 0.48480960649040278 1 0 0 forward_v I I I I #
loop $-1 $-1 $344 $85 #
coedge $-1 $218 $218 $219 $345 reversed $134 $-1 #
coedge $-1 $219 $219 $218 $345 forward $136 $-1 #
coedge $-1 $220 $220 $137 $221 forward $215 $-1 #
edge $-1 $346 5.4111866181864343e-016 $346 6.2831853071796013 $220 $347 forward 7 unknown #
loop $-1 $-1 $227 $138 #
plane-surface $-1 -30.04865185930975 0.91977234902984151 55.689663306283506 0 0.87461971476443456 0.48480960649040278 1 0 0 forward_v I I I I #
loop $-1 $-1 $348 $88 #
coedge $-1 $225 $225 $226 $349 reversed $139 $-1 #
coedge $-1 $226 $226 $225 $349 forward $141 $-1 #
coedge $-1 $227 $227 $142 $228 forward $222 $-1 #
edge $-1 $350 5.4111866181864343e-016 $350 6.2831853071796013 $227 $351 forward 7 unknown #
face $-1 $352 $353 $49 $-1 $354 forward single #
loop $-1 $-1 $355 $143 #
plane-surface $-1 11.793916219974776 87.278292822685074 103.55897109933107 -1 0 0 0 0.87461971476443456 0.48480960649040278 forward_v I I I I #
coedge $-1 $356 $357 $358 $359 reversed $144 $-1 #
coedge $-1 $234 $146 $360 $361 reversed $92 $-1 #
coedge $-1 $146 $233 $356 $362 reversed $92 $-1 #
coedge $-1 $358 $363 $146 $236 forward $353 $-1 #
edge $-1 $364 13.364343179658242 $365 17.758911139052163 $235 $366 forward 7 unknown #
loop $-1 $-1 $242 $147 #
plane-surface $-1 5.8969581099873878 0.91977234902984151 55.689663306283506 0 0.87461971476443456 0.48480960649040278 1 0 0 forward_v I I I I #
loop $-1 $-1 $367 $94 #
coedge $-1 $240 $240 $241 $368 reversed $148 $-1 #
coedge $-1 $241 $241 $240 $368 forward $150 $-1 #
coedge $-1 $242 $242 $151 $243 forward $237 $-1 #
edge $-1 $369 5.4111866181864343e-016 $369 6.2831853071796013 $242 $370 forward 7 unknown #
loop $-1 $-1 $249 $152 #
plane-surface $-1 5.8969581099873878 0.91977234902984151 55.689663306283506 0 0.87461971476443456 0.48480960649040278 1 0 0 forward_v I I I I #
loop $-1 $-1 $371 $97 #
coedge $-1 $247 $247 $248 $372 reversed $153 $-1 #
coedge $-1 $248 $248 $247 $372 forward $155 $-1 #
coedge $-1 $249 $249 $156 $250 forward $244 $-1 #
edge $-1 $373 5.4111866181864343e-016 $373 6.2831853071796013 $249 $374 forward 7 unknown #
loop $-1 $-1 $256 $157 #
plane-surface $-1 5.8969581099873878 0.91977234902984151 55.689663306283506 0 0.87461971476443456 0.48480960649040278 1 0 0 forward_v I I I I #
loop $-1 $-1 $375 $100 #
coedge $-1 $254 $254 $255 $376 reversed $158 $-1 #
coedge $-1 $255 $255 $254 $376 forward $160 $-1 #
coedge $-1 $256 $256 $161 $257 forward $251 $-1 #
edge $-1 $377 5.4111866181864343e-016 $377 6.2831853071796013 $256 $378 forward 7 unknown #
face $-1 $379 $380 $53 $-1 $381 forward single #
loop $-1 $-1 $382 $162 #
plane-surface $-1 23.475498980650372 -98.864235643899178 76.762339221768997 1 0 0 0 0.69465837861970381 -0.71933979245794832 forward_v I I I I #
coedge $-1 $383 $384 $385 $386 reversed $163 $-1 #
coedge $-1 $263 $165 $387 $388 reversed $104 $-1 #
coedge $-1 $165 $262 $383 $389 reversed $104 $-1 #
coedge $-1 $385 $390 $165 $265 forward $380 $-1 #
edge $-1 $391 19.157314590265294 $392 24.256152000096233 $264 $393 forward 7 unknown #
loop $-1 $-1 $271 $166 #
plane-surface $-1 29.710554474973748 -30.274803231684288 5.7359043657630195 0 -0.69465837861970381 0.71933979245794832 1 0 0 forward_v I I I I #
loop $-1 $-1 $394 $106 #
coedge $-1 $269 $269 $270 $395 reversed $167 $-1 #
coedge $-1 $270 $270 $269 $395 forward $169 $-1 #
coedge $-1 $271 $271 $170 $272 forward $266 $-1 #
edge $-1 $396 1.0585891687972651e-015 $396 6.2831853071796013 $271 $397 forward 7 unknown #
loop $-1 $-1 $278 $171 #
plane-surface $-1 29.710554474973748 -30.274803231684288 5.7359043657630195 0 -0.69465837861970381 0.71933979245794832 1 0 0 forward_v I I I I #
loop $-1 $-1 $398 $109 #
coedge $-1 $276 $276 $277 $399 reversed $172 $-1 #
coedge $-1 $277 $277 $276 $399 forward $174 $-1 #
coedge $-1 $278 $278 $175 $279 forward $273 $-1 #
edge $-1 $400 1.0585891687972651e-015 $400 6.2831853071796013 $278 $401 forward 7 unknown #
face $-1 $402 $403 $42 $-1 $404 reversed single #
loop $-1 $-1 $405 $176 #
plane-surface $-1 0 -30.274803231684295 0 0 1 0 0 0 1 forward_v I I I I #
coedge $-1 $406 $407 $181 $288 forward $177 $-1 #
coedge $-1 $408 $179 $290 $409 forward $113 $-1 #
coedge $-1 $179 $408 $410 $411 forward $113 $-1 #
edge $-1 $412 -30.274803231684295 $292 30.274803231684295 $180 $413 forward 7 unknown #
coedge $-1 $181 $180 $414 $415 forward $71 $-1 #
edge $-1 $293 -30.274803231684295 $416 30.274803231684295 $181 $417 forward 7 unknown #
coedge $-1 $418 $182 $407 $419 reversed $291 $-1 #
coedge $-1 $182 $418 $284 $409 reversed $291 $-1 #
loop $-1 $-1 $182 $402 #
vertex $-1 $286 $420 #
vertex $-1 $288 $421 #
straight-curve $-1 49.369182409131142 30.274803231684295 0 0 0 -1 I I #
face $-1 $422 $423 $43 $-1 $424 reversed single #
loop $-1 $-1 $425 $184 #
plane-surface $-1 -56.080968629048144 0 -2.5906952335896909 0 0 1 1 0 0 forward_v I I I I #
coedge $-1 $426 $187 $427 $428 reversed $117 $-1 #
coedge $-1 $187 $426 $304 $429 reversed $117 $-1 #
edge $-1 $306 -1.3957237305176546 $430 2.5906952335896909 $187 $431 forward 7 unknown #
coedge $-1 $189 $188 $425 $432 forward $74 $-1 #
coedge $-1 $433 $434 $188 $303 forward $435 $-1 #
edge $-1 $436 -2.5906952335896909 $307 1.3957237305176546 $302 $437 forward 7 unknown #
coedge $-1 $438 $190 $299 $429 forward $185 $-1 #
coedge $-1 $190 $438 $433 $439 forward $185 $-1 #
vertex $-1 $300 $440 #
vertex $-1 $439 $441 #
straight-curve $-1 -49.369182409131142 0 1.3957237305176546 0 -1 0 I I #
face $-1 $442 $443 $44 $-1 $444 reversed single #
loop $-1 $-1 $445 $192 #
plane-surface $-1 56.080968629048144 0 -2.5906952335896909 0 0 1 1 0 0 forward_v I I I I #
coedge $-1 $320 $319 $446 $447 forward $193 $-1 #
coedge $-1 $448 $195 $449 $450 reversed $121 $-1 #
coedge $-1 $195 $448 $319 $451 reversed $121 $-1 #
edge $-1 $321 -1.3957237305176546 $452 2.5906952335896909 $195 $453 forward 7 unknown #
coedge $-1 $197 $196 $454 $455 forward $77 $-1 #
coedge $-1 $456 $457 $196 $318 forward $458 $-1 #
edge $-1 $459 -2.5906952335896909 $322 1.3957237305176546 $317 $460 forward 7 unknown #
coedge $-1 $312 $198 $314 $451 forward $193 $-1 #
coedge $-1 $198 $312 $456 $461 forward $193 $-1 #
vertex $-1 $315 $462 #
vertex $-1 $461 $463 #
straight-curve $-1 49.369182409131142 0 1.3957237305176546 0 1 0 I I #
face $-1 $-1 $336 $45 $-1 $464 forward single #
loop $-1 $-1 $465 $200 #
plane-surface $-1 0 30.274803231684295 0 0 -1 0 0 0 -1 forward_v I I I I #
coedge $-1 $466 $467 $468 $469 reversed $201 $-1 #
coedge $-1 $470 $203 $205 $334 forward $125 $-1 #
coedge $-1 $203 $470 $466 $471 forward $125 $-1 #
coedge $-1 $468 $206 $203 $331 forward $336 $-1 #
edge $-1 $338 -20.921284039642263 $472 -9.1273678196674872 $330 $473 forward 7 unknown #
coedge $-1 $474 $475 $204 $333 forward $325 $-1 #
edge $-1 $476 -49.047701777472192 $337 -41.119691020874029 $332 $477 forward 7 unknown #
edge $-1 $338 51.485083193694201 $476 60.549606463368548 $205 $478 forward 7 unknown #
coedge $-1 $206 $468 $474 $479 forward $336 $-1 #
loop $-1 $-1 $468 $324 #
vertex $-1 $333 $480 #
vertex $-1 $207 $481 #
straight-curve $-1 -35.945609969297138 43.639146411342537 10.659794528791508 0 -1 0 I I #
coedge $-1 $340 $340 $-1 $482 reversed $210 $-1 #
edge $-1 $483 0 $483 6.2831853071796004 $211 $484 forward 7 unknown #
vertex $-1 $214 $485 #
ellipse-curve $-1 -33.586826725302188 28.077519251987344 6.6957891504924065 0 0.87461971476443456 0.48480960649040278 1 0 0 1 I I #
coedge $-1 $344 $344 $-1 $486 reversed $217 $-1 #
edge $-1 $487 0 $487 6.2831853071796004 $218 $488 forward 7 unknown #
vertex $-1 $221 $489 #
ellipse-curve $-1 -30.04865185930975 28.077519251987344 6.6957891504924065 0 0.87461971476443456 0.48480960649040278 1 0 0 1 I I #
coedge $-1 $348 $348 $-1 $490 reversed $224 $-1 #
edge $-1 $491 0 $491 6.2831853071796004 $225 $492 forward 7 unknown #
vertex $-1 $228 $493 #
ellipse-curve $-1 -26.510476993317315 28.077519251987344 6.6957891504924065 0 0.87461971476443456 0.48480960649040278 1 0 0 1 I I #
face $-1 $-1 $494 $49 $-1 $495 reversed single #
loop $-1 $-1 $235 $229 #
plane-surface $-1 0 0 10.659794528791506 0 0 1 1 0 0 forward_v I I I I #
coedge $-1 $496 $497 $498 $499 reversed $230 $-1 #
coedge $-1 $500 $232 $234 $362 forward $144 $-1 #
coedge $-1 $232 $500 $496 $501 forward $144 $-1 #
coedge $-1 $498 $235 $232 $359 forward $353 $-1 #
edge $-1 $365 -2.9484790549936948 $502 8.8454371649810817 $358 $503 forward 7 unknown #
coedge $-1 $504 $505 $233 $361 forward $494 $-1 #
edge $-1 $506 -49.047701777472192 $364 -41.119691020874029 $360 $507 forward 7 unknown #
edge $-1 $365 51.485083193694201 $506 60.549606463368548 $234 $508 forward 7 unknown #
coedge $-1 $235 $498 $504 $509 forward $353 $-1 #
vertex $-1 $236 $510 #
vertex $-1 $236 $511 #
straight-curve $-1 -8.8817841970012523e-016 43.639146411342537 10.659794528791508 0 -1 0 I I #
coedge $-1 $367 $367 $-1 $512 reversed $239 $-1 #
edge $-1 $513 0 $513 6.2831853071796004 $240 $514 forward 7 unknown #
vertex $-1 $243 $515 #
ellipse-curve $-1 2.3587832439949494 28.077519251987344 6.6957891504924065 0 0.87461971476443456 0.48480960649040278 1 0 0 1 I I #
coedge $-1 $371 $371 $-1 $516 reversed $246 $-1 #
edge $-1 $517 0 $517 6.2831853071796004 $247 $518 forward 7 unknown #
vertex $-1 $250 $519 #
ellipse-curve $-1 5.8969581099873878 28.077519251987344 6.6957891504924065 0 0.87461971476443456 0.48480960649040278 1 0 0 1 I I #
coedge $-1 $375 $375 $-1 $520 reversed $253 $-1 #
edge $-1 $521 0 $521 6.2831853071796004 $254 $522 forward 7 unknown #
vertex $-1 $257 $523 #
ellipse-curve $-1 9.4351329759798261 28.077519251987344 6.6957891504924065 0 0.87461971476443456 0.48480960649040278 1 0 0 1 I I #
face $-1 $-1 $524 $53 $-1 $525 reversed single #
loop $-1 $-1 $264 $258 #
plane-surface $-1 0 0 10.659794528791506 0 0 1 1 0 0 forward_v I I I I #
coedge $-1 $526 $527 $528 $529 reversed $259 $-1 #
coedge $-1 $530 $261 $263 $389 forward $163 $-1 #
coedge $-1 $261 $530 $526 $531 forward $163 $-1 #
coedge $-1 $528 $264 $261 $386 forward $380 $-1 #
edge $-1 $392 -21.09033273181025 $532 -8.6202217431634978 $385 $533 forward 7 unknown #
coedge $-1 $534 $535 $262 $388 forward $524 $-1 #
edge $-1 $536 -32.645265245121486 $391 -27.72137508209299 $387 $537 forward 7 unknown #
edge $-1 $392 -7.0882182013154829 $536 1.0047061288372931e-014 $263 $538 forward 7 unknown #
coedge $-1 $264 $528 $534 $539 forward $380 $-1 #
vertex $-1 $388 $540 #
vertex $-1 $265 $541 #
straight-curve $-1 35.945609969297124 -49.432117821949589 10.659794528791508 0 1 0 I I #
coedge $-1 $394 $394 $-1 $542 reversed $268 $-1 #
edge $-1 $543 0 $543 6.2831853071796004 $269 $544 forward 7 unknown #
vertex $-1 $272 $545 #
ellipse-curve $-1 27.03838783454944 -27.725384526768824 8.1978494472772603 0 -0.69465837861970381 0.71933979245794832 1 0 0 1 I I #
coedge $-1 $398 $398 $-1 $546 reversed $275 $-1 #
edge $-1 $547 0 $547 6.2831853071796004 $276 $548 forward 7 unknown #
vertex $-1 $279 $549 #
ellipse-curve $-1 32.382721115398056 -27.725384526768824 8.1978494472772603 0 -0.69465837861970381 0.71933979245794832 1 0 0 1 I I #
face $-1 $-1 $291 $42 $-1 $550 reversed single #
loop $-1 $-1 $551 $280 #
plane-surface $-1 -49.369182409131142 0 0 1 0 0 0 0 -1 forward_v I I I I #
coedge $-1 $552 $410 $551 $553 forward $281 $-1 #
coedge $-1 $554 $283 $552 $555 forward $177 $-1 #
coedge $-1 $283 $554 $289 $419 forward $177 $-1 #
coedge $-1 $285 $284 $556 $557 forward $113 $-1 #
edge $-1 $292 -49.369182409131142 $558 49.369182409131142 $290 $559 forward 7 unknown #
coedge $-1 $405 $414 $285 $411 reversed $281 $-1 #
edge $-1 $560 -49.369182409131142 $412 49.369182409131142 $410 $561 forward 7 unknown #
vertex $-1 $286 $562 #
straight-curve $-1 49.369182409131142 0 10.659794528791506 0 1 0 I I #
coedge $-1 $410 $552 $287 $415 reversed $281 $-1 #
edge $-1 $412 -10.659794528791506 $416 10.659794528791506 $287 $563 forward 7 unknown #
vertex $-1 $415 $564 #
straight-curve $-1 49.369182409131142 0 -10.659794528791506 0 -1 0 I I #
coedge $-1 $290 $289 $565 $566 reversed $291 $-1 #
edge $-1 $567 -49.369182409131142 $293 49.369182409131142 $289 $568 forward 7 unknown #
point $-1 49.369182409131142 30.274803231684295 10.659794528791506 #
point $-1 49.369182409131142 30.274803231684295 -10.659794528791506 #
face $-1 $-1 $435 $43 $-1 $569 reversed single #
loop $-1 $-1 $570 $295 #
plane-surface $-1 -62.792754848965146 0 -0.59748575153601813 1 0 0 0 0 -1 forward_v I I I I #
coedge $-1 $571 $427 $301 $432 reversed $296 $-1 #
coedge $-1 $299 $298 $570 $572 reversed $117 $-1 #
coedge $-1 $425 $573 $298 $428 forward $296 $-1 #
edge $-1 $574 -6.711786219917002 $430 6.711786219917002 $298 $575 forward 7 unknown #
edge $-1 $306 -6.711786219917002 $576 6.711786219917002 $299 $577 forward 7 unknown #
vertex $-1 $300 $578 #
straight-curve $-1 -49.369182409131142 30.274803231684295 0 0 0 -1 I I #
edge $-1 $436 -30.274803231684295 $430 30.274803231684295 $425 $579 forward 7 unknown #
coedge $-1 $580 $302 $305 $439 reversed $435 $-1 #
coedge $-1 $302 $580 $571 $581 reversed $435 $-1 #
loop $-1 $-1 $302 $422 #
vertex $-1 $303 $582 #
straight-curve $-1 -49.369182409131142 -30.274803231684295 0 0 0 1 I I #
coedge $-1 $305 $304 $583 $584 forward $185 $-1 #
edge $-1 $585 -6.711786219917002 $307 6.711786219917002 $433 $586 forward 7 unknown #
point $-1 -49.369182409131142 30.274803231684295 1.3957237305176546 #
point $-1 -49.369182409131142 -30.274803231684295 1.3957237305176546 #
face $-1 $-1 $458 $44 $-1 $587 reversed single #
loop $-1 $-1 $588 $309 #
plane-surface $-1 62.792754848965146 0 -0.59748575153601813 -1 0 0 0 0 1 forward_v I I I I #
coedge $-1 $449 $589 $590 $591 forward $310 $-1 #
coedge $-1 $588 $592 $312 $447 reversed $443 $-1 #
edge $-1 $593 -30.274803231684295 $594 30.274803231684295 $446 $595 forward 7 unknown #
coedge $-1 $314 $313 $588 $596 reversed $121 $-1 #
coedge $-1 $454 $445 $313 $450 forward $310 $-1 #
edge $-1 $597 -6.711786219917002 $452 6.711786219917002 $313 $598 forward 7 unknown #
edge $-1 $321 -6.711786219917002 $593 6.711786219917002 $314 $599 forward 7 unknown #
vertex $-1 $315 $600 #
straight-curve $-1 49.369182409131142 -30.274803231684295 0 0 0 -1 I I #
coedge $-1 $589 $449 $316 $455 reversed $310 $-1 #
edge $-1 $459 -30.274803231684295 $452 30.274803231684295 $454 $601 forward 7 unknown #
coedge $-1 $602 $317 $320 $461 reversed $458 $-1 #
coedge $-1 $317 $602 $589 $603 reversed $458 $-1 #
loop $-1 $-1 $317 $442 #
vertex $-1 $318 $604 #
straight-curve $-1 49.369182409131142 30.274803231684295 0 0 0 1 I I #
edge $-1 $594 -6.711786219917002 $322 6.711786219917002 $456 $605 forward 7 unknown #
point $-1 49.369182409131142 -30.274803231684295 1.3957237305176546 #
point $-1 49.369182409131142 30.274803231684295 1.3957237305176546 #
plane-surface $-1 0 0 10.659794528791506 0 0 1 1 0 0 forward_v I I I I #
coedge $-1 $475 $474 $467 $606 forward $325 $-1 #
coedge $-1 $467 $327 $329 $471 reversed $201 $-1 #
coedge $-1 $327 $466 $465 $606 reversed $201 $-1 #
coedge $-1 $335 $330 $327 $469 forward $336 $-1 #
edge $-1 $472 -17.758911139052163 $607 -13.364343179658242 $468 $608 forward 7 unknown #
coedge $-1 $329 $328 $475 $609 reversed $125 $-1 #
edge $-1 $610 -60.549606463368548 $472 -51.485083193694201 $466 $611 forward 7 unknown #
vertex $-1 $331 $612 #
straight-curve $-1 -15.024325929654875 25.880235272290378 10.659794528791512 1 0 0 I I #
coedge $-1 $465 $332 $335 $479 reversed $325 $-1 #
coedge $-1 $332 $465 $470 $609 forward $325 $-1 #
vertex $-1 $333 $613 #
straight-curve $-1 -35.945609969297138 30.274803231684295 51.779485549665537 0 0 1 I I #
straight-curve $-1 -35.945609969297138 0.91977234902984151 55.689663306283506 0 0.48480960649040278 -0.87461971476443456 I I #
edge $-1 $607 24.151693749322362 $337 35.945609969297138 $474 $614 forward 7 unknown #
point $-1 -35.945609969297138 30.274803231684295 10.659794528791506 #
point $-1 -35.945609969297138 25.880235272290374 10.659794528791508 #
edge $-1 $615 1 $615 0 $340 $-1 forward 7 unknown #
vertex $-1 $341 $616 #
ellipse-curve $-1 -33.586826725302188 25.923761197706263 5.5019416106473029 0 0.87461971476443456 0.48480960649040278 1 0 0 1 I I #
point $-1 -32.586826725302188 28.077519251987322 6.6957891504923941 #
edge $-1 $617 1 $617 0 $344 $-1 forward 7 unknown #
vertex $-1 $345 $618 #
ellipse-curve $-1 -30.04865185930975 25.923761197706263 5.5019416106473029 0 0.87461971476443456 0.48480960649040278 1 0 0 1 I I #
point $-1 -29.04865185930975 28.077519251987322 6.6957891504923941 #
edge $-1 $619 1 $619 0 $348 $-1 forward 7 unknown #
vertex $-1 $349 $620 #
ellipse-curve $-1 -26.510476993317315 25.923761197706263 5.5019416106473029 0 0.87461971476443456 0.48480960649040278 1 0 0 1 I I #
point $-1 -25.510476993317315 28.077519251987322 6.6957891504923941 #
loop $-1 $-1 $360 $352 #
plane-surface $-1 0 30.274803231684295 0 0 -1 0 0 0 -1 forward_v I I I I #
coedge $-1 $497 $355 $357 $501 reversed $230 $-1 #
coedge $-1 $355 $496 $621 $622 reversed $230 $-1 #
coedge $-1 $363 $358 $355 $499 forward $353 $-1 #
edge $-1 $502 -17.758911139052163 $623 -13.364343179658242 $498 $624 forward 7 unknown #
coedge $-1 $357 $356 $505 $625 reversed $144 $-1 #
edge $-1 $626 -60.549606463368548 $502 -51.485083193694201 $496 $627 forward 7 unknown #
vertex $-1 $359 $628 #
straight-curve $-1 2.9484790549936939 25.880235272290378 10.659794528791512 1 0 0 I I #
coedge $-1 $621 $360 $363 $509 reversed $494 $-1 #
coedge $-1 $360 $621 $500 $625 forward $494 $-1 #
vertex $-1 $361 $629 #
straight-curve $-1 -8.8817841970012523e-016 30.274803231684295 51.779485549665537 0 0 1 I I #
straight-curve $-1 -8.8817841970012523e-016 0.91977234902984151 55.689663306283506 0 0.48480960649040278 -0.87461971476443456 I I #
edge $-1 $623 -11.793916219974776 $364 8.8817841970012523e-016 $504 $630 forward 7 unknown #
point $-1 -8.8817841970012523e-016 30.274803231684295 10.659794528791506 #
point $-1 -8.8817841970012523e-016 25.880235272290374 10.659794528791508 #
edge $-1 $631 1 $631 0 $367 $-1 forward 7 unknown #
vertex $-1 $368 $632 #
ellipse-curve $-1 2.3587832439949494 25.923761197706263 5.5019416106473029 0 0.87461971476443456 0.48480960649040278 1 0 0 1 I I #
point $-1 3.3587832439949494 28.077519251987322 6.6957891504923941 #
edge $-1 $633 1 $633 0 $371 $-1 forward 7 unknown #
vertex $-1 $372 $634 #
ellipse-curve $-1 5.8969581099873878 25.923761197706263 5.5019416106473029 0 0.87461971476443456 0.48480960649040278 1 0 0 1 I I #
point $-1 6.8969581099873878 28.077519251987322 6.6957891504923941 #
edge $-1 $635 1 $635 0 $375 $-1 forward 7 unknown #
vertex $-1 $376 $636 #
ellipse-curve $-1 9.4351329759798261 25.923761197706263 5.5019416106473029 0 0.87461971476443456 0.48480960649040278 1 0 0 1 I I #
point $-1 10.435132975979826 28.077519251987322 6.6957891504923941 #
loop $-1 $-1 $387 $379 #
plane-surface $-1 0 -30.274803231684295 0 0 1 0 0 0 1 forward_v I I I I #
coedge $-1 $527 $382 $384 $531 reversed $259 $-1 #
coedge $-1 $382 $526 $637 $638 reversed $259 $-1 #
coedge $-1 $390 $385 $382 $529 forward $380 $-1 #
edge $-1 $532 -24.256152000096233 $639 -19.157314590265294 $528 $640 forward 7 unknown #
coedge $-1 $384 $383 $535 $641 reversed $163 $-1 #
edge $-1 $642 -1.0047061288372931e-014 $532 7.0882182013154829 $526 $643 forward 7 unknown #
vertex $-1 $386 $644 #
straight-curve $-1 14.855277237486874 -25.175965821853353 10.659794528791506 -1 0 0 I I #
coedge $-1 $637 $387 $390 $539 reversed $524 $-1 #
coedge $-1 $387 $637 $530 $641 forward $524 $-1 #
vertex $-1 $388 $645 #
straight-curve $-1 35.945609969297124 -30.274803231684295 38.381169610884498 0 0 1 I I #
straight-curve $-1 35.945609969297124 -30.274803231684288 5.7359043657630195 0 -0.71933979245794832 -0.69465837861970381 I I #
edge $-1 $639 23.475498980650372 $391 35.945609969297124 $534 $646 forward 7 unknown #
point $-1 35.945609969297124 -30.274803231684295 10.659794528791506 #
point $-1 35.945609969297124 -25.175965821853357 10.659794528791506 #
edge $-1 $647 1 $647 0 $394 $-1 forward 7 unknown #
vertex $-1 $395 $648 #
ellipse-curve $-1 27.03838783454944 -25.863224345452341 6.2695261741695312 0 -0.69465837861970381 0.71933979245794832 1 0 0 1 I I #
point $-1 28.03838783454944 -27.725384526768831 8.1978494472772692 #
edge $-1 $649 1 $649 0 $398 $-1 forward 7 unknown #
vertex $-1 $399 $650 #
ellipse-curve $-1 32.382721115398056 -25.863224345452341 6.2695261741695312 0 -0.69465837861970381 0.71933979245794832 1 0 0 1 I I #
point $-1 33.382721115398056 -27.725384526768831 8.1978494472772692 #
plane-surface $-1 0 30.274803231684295 0 0 -1 0 0 0 -1 forward_v I I I I #
coedge $-1 $556 $651 $405 $553 reversed $403 $-1 #
coedge $-1 $414 $405 $406 $555 reversed $281 $-1 #
edge $-1 $560 -10.659794528791506 $652 10.659794528791506 $551 $653 forward 7 unknown #
coedge $-1 $407 $406 $651 $654 forward $177 $-1 #
edge $-1 $416 -49.369182409131142 $652 49.369182409131142 $552 $655 forward 7 unknown #
coedge $-1 $565 $551 $408 $557 reversed $403 $-1 #
edge $-1 $558 -30.274803231684295 $560 30.274803231684295 $556 $656 forward 7 unknown #
vertex $-1 $409 $657 #
straight-curve $-1 0 30.274803231684295 10.659794528791506 -1 0 0 I I #
vertex $-1 $557 $658 #
straight-curve $-1 0 -30.274803231684295 10.659794528791506 1 0 0 I I #
point $-1 49.369182409131142 -30.274803231684295 10.659794528791506 #
straight-curve $-1 49.369182409131142 -30.274803231684295 0 0 0 -1 I I #
point $-1 49.369182409131142 -30.274803231684295 -10.659794528791506 #
coedge $-1 $651 $556 $418 $566 forward $403 $-1 #
edge $-1 $558 -10.659794528791506 $567 10.659794528791506 $418 $659 forward 7 unknown #
vertex $-1 $419 $660 #
straight-curve $-1 0 30.274803231684295 -10.659794528791506 1 0 0 I I #
plane-surface $-1 0 -30.274803231684295 0 0 1 0 0 0 1 forward_v I I I I #
coedge $-1 $661 $583 $426 $572 forward $423 $-1 #
coedge $-1 $573 $425 $434 $581 forward $296 $-1 #
edge $-1 $576 -1.9932094820536728 $574 1.9932094820536728 $426 $662 forward 7 unknown #
coedge $-1 $427 $571 $661 $663 forward $296 $-1 #
vertex $-1 $428 $664 #
straight-curve $-1 -56.080968629048144 30.274803231684295 -2.5906952335896909 1 0 0 I I #
vertex $-1 $429 $665 #
straight-curve $-1 -56.080968629048144 30.274803231684295 1.3957237305176546 -1 0 0 I I #
point $-1 -49.369182409131142 30.274803231684295 -2.5906952335896909 #
straight-curve $-1 -49.369182409131142 0 -2.5906952335896909 0 1 0 I I #
coedge $-1 $434 $433 $666 $667 forward $435 $-1 #
edge $-1 $436 -6.711786219917002 $668 6.711786219917002 $434 $669 forward 7 unknown #
point $-1 -49.369182409131142 -30.274803231684295 -2.5906952335896909 #
coedge $-1 $570 $666 $438 $584 reversed $423 $-1 #
edge $-1 $576 -30.274803231684295 $585 30.274803231684295 $583 $670 forward 7 unknown #
vertex $-1 $584 $671 #
straight-curve $-1 -56.080968629048144 -30.274803231684295 1.3957237305176546 1 0 0 I I #
plane-surface $-1 0 30.274803231684295 0 0 -1 0 0 0 -1 forward_v I I I I #
coedge $-1 $590 $446 $448 $596 forward $443 $-1 #
coedge $-1 $445 $454 $457 $603 forward $310 $-1 #
coedge $-1 $592 $588 $445 $591 reversed $443 $-1 #
edge $-1 $672 -30.274803231684295 $597 30.274803231684295 $590 $673 forward 7 unknown #
coedge $-1 $446 $590 $602 $674 reversed $443 $-1 #
vertex $-1 $447 $675 #
vertex $-1 $447 $676 #
straight-curve $-1 62.792754848965146 0 1.3957237305176546 0 1 0 I I #
edge $-1 $593 -1.9932094820536728 $597 1.9932094820536728 $588 $677 forward 7 unknown #
vertex $-1 $596 $678 #
straight-curve $-1 56.080968629048144 -30.274803231684295 -2.5906952335896909 -1 0 0 I I #
straight-curve $-1 56.080968629048144 -30.274803231684295 1.3957237305176546 1 0 0 I I #
point $-1 49.369182409131142 -30.274803231684295 -2.5906952335896909 #
straight-curve $-1 49.369182409131142 0 -2.5906952335896909 0 -1 0 I I #
coedge $-1 $457 $456 $592 $674 forward $458 $-1 #
edge $-1 $459 -6.711786219917002 $672 6.711786219917002 $457 $679 forward 7 unknown #
point $-1 49.369182409131142 30.274803231684295 -2.5906952335896909 #
straight-curve $-1 56.080968629048144 30.274803231684295 1.3957237305176546 -1 0 0 I I #
edge $-1 $607 41.119691020874029 $610 49.047701777472192 $465 $680 forward 7 unknown #
vertex $-1 $479 $681 #
straight-curve $-1 -24.151693749322362 43.639146411342537 10.659794528791508 0 1 0 I I #
edge $-1 $610 9.1273678196674872 $476 20.921284039642263 $475 $682 forward 7 unknown #
vertex $-1 $609 $683 #
straight-curve $-1 -24.151693749322362 0.91977234902984151 55.689663306283506 0 -0.48480960649040278 0.87461971476443456 I I #
point $-1 -24.151693749322362 25.880235272290374 10.659794528791508 #
point $-1 -35.945609969297138 30.274803231684295 2.7317837721933458 #
straight-curve $-1 0 30.274803231684295 10.659794528791506 -1 0 0 I I #
vertex $-1 $482 $684 #
point $-1 -32.586826725302188 25.923761197706263 5.5019416106473029 #
vertex $-1 $486 $685 #
point $-1 -29.04865185930975 25.923761197706263 5.5019416106473029 #
vertex $-1 $490 $686 #
point $-1 -25.510476993317315 25.923761197706263 5.5019416106473029 #
coedge $-1 $505 $504 $497 $622 forward $494 $-1 #
edge $-1 $623 41.119691020874029 $626 49.047701777472192 $621 $687 forward 7 unknown #
vertex $-1 $509 $688 #
straight-curve $-1 11.793916219974776 43.639146411342537 10.659794528791508 0 1 0 I I #
edge $-1 $626 -8.8454371649810817 $506 2.9484790549936948 $505 $689 forward 7 unknown #
vertex $-1 $625 $690 #
straight-curve $-1 11.793916219974776 0.91977234902984151 55.689663306283506 0 -0.48480960649040278 0.87461971476443456 I I #
point $-1 11.793916219974776 25.880235272290374 10.659794528791508 #
point $-1 -8.8817841970012523e-016 30.274803231684295 2.7317837721933458 #
straight-curve $-1 0 30.274803231684295 10.659794528791506 -1 0 0 I I #
vertex $-1 $512 $691 #
point $-1 3.3587832439949494 25.923761197706263 5.5019416106473029 #
vertex $-1 $516 $692 #
point $-1 6.8969581099873878 25.923761197706263 5.5019416106473029 #
vertex $-1 $520 $693 #
point $-1 10.435132975979826 25.923761197706263 5.5019416106473029 #
coedge $-1 $535 $534 $527 $638 forward $524 $-1 #
edge $-1 $639 27.72137508209299 $642 32.645265245121486 $637 $694 forward 7 unknown #
vertex $-1 $539 $695 #
straight-curve $-1 23.475498980650372 -49.432117821949589 10.659794528791508 0 -1 0 I I #
edge $-1 $642 8.6202217431634978 $536 21.09033273181025 $535 $696 forward 7 unknown #
vertex $-1 $641 $697 #
straight-curve $-1 23.475498980650372 -30.274803231684288 5.7359043657630195 0 0.71933979245794832 0.69465837861970381 I I #
point $-1 23.475498980650372 -25.175965821853357 10.659794528791506 #
point $-1 35.945609969297124 -30.274803231684295 5.7359043657630124 #
straight-curve $-1 0 -30.274803231684295 10.659794528791506 1 0 0 I I #
vertex $-1 $542 $698 #
point $-1 28.03838783454944 -25.863224345452341 6.2695261741695312 #
vertex $-1 $546 $699 #
point $-1 33.382721115398056 -25.863224345452341 6.2695261741695312 #
coedge $-1 $551 $565 $554 $654 reversed $403 $-1 #
vertex $-1 $654 $700 #
straight-curve $-1 -49.369182409131142 -30.274803231684295 0 0 0 -1 I I #
edge $-1 $652 -30.274803231684295 $567 30.274803231684295 $651 $701 forward 7 unknown #
straight-curve $-1 0 -30.274803231684295 -10.659794528791506 -1 0 0 I I #
straight-curve $-1 -49.369182409131142 0 10.659794528791506 0 -1 0 I I #
point $-1 -49.369182409131142 30.274803231684295 10.659794528791506 #
point $-1 -49.369182409131142 -30.274803231684295 10.659794528791506 #
straight-curve $-1 -49.369182409131142 30.274803231684295 0 0 0 -1 I I #
point $-1 -49.369182409131142 30.274803231684295 -10.659794528791506 #
coedge $-1 $666 $570 $573 $663 reversed $423 $-1 #
straight-curve $-1 -62.792754848965146 30.274803231684295 -0.59748575153601813 0 0 -1 I I #
edge $-1 $668 -30.274803231684295 $574 30.274803231684295 $661 $702 forward 7 unknown #
point $-1 -62.792754848965146 30.274803231684295 -2.5906952335896909 #
point $-1 -62.792754848965146 30.274803231684295 1.3957237305176546 #
coedge $-1 $583 $661 $580 $667 reversed $423 $-1 #
edge $-1 $585 -1.9932094820536728 $668 1.9932094820536728 $666 $703 forward 7 unknown #
vertex $-1 $663 $704 #
straight-curve $-1 -56.080968629048144 -30.274803231684295 -2.5906952335896909 -1 0 0 I I #
straight-curve $-1 -62.792754848965146 0 1.3957237305176546 0 -1 0 I I #
point $-1 -62.792754848965146 -30.274803231684295 1.3957237305176546 #
vertex $-1 $591 $705 #
straight-curve $-1 62.792754848965146 0 -2.5906952335896909 0 -1 0 I I #
edge $-1 $594 -1.9932094820536728 $672 1.9932094820536728 $592 $706 forward 7 unknown #
point $-1 62.792754848965146 -30.274803231684295 1.3957237305176546 #
point $-1 62.792754848965146 30.274803231684295 1.3957237305176546 #
straight-curve $-1 62.792754848965146 -30.274803231684295 -0.59748575153601813 0 0 -1 I I #
point $-1 62.792754848965146 -30.274803231684295 -2.5906952335896909 #
straight-curve $-1 56.080968629048144 30.274803231684295 -2.5906952335896909 1 0 0 I I #
straight-curve $-1 -24.151693749322362 30.274803231684295 51.779485549665537 0 0 -1 I I #
point $-1 -24.151693749322362 30.274803231684295 10.659794528791506 #
straight-curve $-1 -15.024325929654875 30.274803231684295 2.7317837721933529 -1 0 0 I I #
point $-1 -24.151693749322362 30.274803231684295 2.7317837721933458 #
point $-1 -33.586826725302188 25.049141482941828 5.0171320041568999 #
point $-1 -30.04865185930975 25.049141482941828 5.0171320041568999 #
point $-1 -26.510476993317315 25.049141482941828 5.0171320041568999 #
straight-curve $-1 11.793916219974776 30.274803231684295 51.779485549665537 0 0 -1 I I #
point $-1 11.793916219974776 30.274803231684295 10.659794528791506 #
straight-curve $-1 2.9484790549936939 30.274803231684295 2.7317837721933529 -1 0 0 I I #
point $-1 11.793916219974776 30.274803231684295 2.7317837721933458 #
point $-1 2.3587832439949494 25.049141482941828 5.0171320041568999 #
point $-1 5.8969581099873878 25.049141482941828 5.0171320041568999 #
point $-1 9.4351329759798261 25.049141482941828 5.0171320041568999 #
straight-curve $-1 23.475498980650372 -30.274803231684295 38.381169610884498 0 0 -1 I I #
point $-1 23.475498980650372 -30.274803231684295 10.659794528791506 #
straight-curve $-1 14.855277237486874 -30.274803231684295 5.7359043657630107 1 0 0 I I #
point $-1 23.475498980650372 -30.274803231684295 5.7359043657630124 #
point $-1 27.03838783454944 -25.168565966832634 5.5501863817115833 #
point $-1 32.382721115398056 -25.168565966832634 5.5501863817115833 #
point $-1 -49.369182409131142 -30.274803231684295 -10.659794528791506 #
straight-curve $-1 -49.369182409131142 0 -10.659794528791506 0 1 0 I I #
straight-curve $-1 -62.792754848965146 0 -2.5906952335896909 0 1 0 I I #
straight-curve $-1 -62.792754848965146 -30.274803231684295 -0.59748575153601813 0 0 -1 I I #
point $-1 -62.792754848965146 -30.274803231684295 -2.5906952335896909 #
point $-1 62.792754848965146 30.274803231684295 -2.5906952335896909 #
straight-curve $-1 62.792754848965146 30.274803231684295 -0.59748575153601813 0 0 -1 I I #
End-of-ACIS-data 