500 0 5 0           
7 Unknown 11 ACIS 5.0 NT 24 Fri Mar 26 00:44:58 1999 
-1 9.9999999999999995e-007 1e-010 
body $-1 $5 $-1 $6 #
body $-1 $7 $-1 $8 #
body $-1 $9 $-1 $10 #
body $-1 $11 $-1 $12 #
body $-1 $13 $-1 $14 #
lump $-1 $-1 $15 $0 #
transform $-1 1 0 0 0 1 0 0 0 1 55.624256111331519 25.608852747981288 7.3707416079046464 1 rotate no_reflect no_shear #
lump $-1 $-1 $16 $1 #
transform $-1 1 0 0 0 1 0 0 0 1 55.624256111331519 25.608852747981288 7.3707416079046464 1 rotate no_reflect no_shear #
lump $-1 $-1 $17 $2 #
transform $-1 1 0 0 0 1 0 0 0 1 55.624256111331519 25.608852747981288 7.3707416079046464 1 rotate no_reflect no_shear #
lump $-1 $-1 $18 $3 #
transform $-1 1 0 0 0 1 0 0 0 1 55.624256111331519 25.608852747981288 7.3707416079046464 1 rotate no_reflect no_shear #
lump $-1 $-1 $19 $4 #
transform $-1 1 0 0 0 1 0 0 0 1 55.624256111331519 25.608852747981288 7.3707416079046464 1 rotate no_reflect no_shear #
shell $-1 $-1 $-1 $20 $-1 $5 #
shell $-1 $-1 $-1 $21 $-1 $7 #
shell $-1 $-1 $-1 $22 $-1 $9 #
shell $-1 $-1 $-1 $23 $-1 $11 #
shell $-1 $-1 $-1 $24 $-1 $13 #
face $-1 $25 $26 $15 $-1 $27 forward single #
face $-1 $28 $29 $16 $-1 $30 forward single #
face $-1 $31 $32 $17 $-1 $33 reversed single #
face $-1 $34 $35 $18 $-1 $36 forward single #
face $-1 $37 $38 $19 $-1 $39 forward single #
face $-1 $40 $41 $15 $-1 $42 reversed single #
loop $-1 $-1 $43 $20 #
plane-surface $-1 0 0 7.3707416079046464 0 0 1 1 0 0 forward_v I I I I #
face $-1 $44 $45 $16 $-1 $46 reversed single #
loop $-1 $-1 $47 $21 #
plane-surface $-1 0 -25.608852747981288 0 0 1 0 0 0 1 forward_v I I I I #
face $-1 $48 $49 $17 $-1 $50 reversed single #
loop $-1 $-1 $51 $22 #
plane-surface $-1 -35.850628375011084 59.939951881363385 120.81083311643508 -1 0 0 0 0.6560590369687036 0.75470957328743171 forward_v I I I I #
face $-1 $52 $53 $18 $-1 $54 forward single #
loop $-1 $55 $56 $23 #
cone-surface $-1 -49.974648186668539 22.430696873845225 4.3811209823699224 0 -0.6560590369687036 -0.75470957328743171 1.5 0 0 1 I I 0 1 1.5 forward I I I I #
face $-1 $57 $58 $19 $-1 $59 forward single #
loop $-1 $60 $61 $24 #
cone-surface $-1 -41.500236299674064 22.430696873845225 4.3811209823699224 0 -0.6560590369687036 -0.75470957328743171 1.5 0 0 1 I I 0 1 1.5 forward I I I I #
face $-1 $62 $63 $15 $-1 $64 reversed single #
loop $-1 $-1 $65 $25 #
plane-surface $-1 0 0 -7.3707416079046464 0 0 1 1 0 0 forward_v I I I I #
coedge $-1 $66 $67 $68 $69 forward $26 $-1 #
face $-1 $70 $71 $16 $-1 $72 reversed single #
loop $-1 $-1 $73 $28 #
plane-surface $-1 0 0 -7.3707416079046464 0 0 1 1 0 0 forward_v I I I I #
coedge $-1 $74 $75 $76 $77 forward $29 $-1 #
face $-1 $78 $79 $17 $-1 $80 forward single #
loop $-1 $-1 $81 $31 #
plane-surface $-1 -45.737442243171301 -13.045639911637977 36.850515928007425 0 0.6560590369687036 0.75470957328743171 1 0 0 forward_v I I I I #
coedge $-1 $82 $83 $84 $85 reversed $32 $-1 #
face $-1 $-1 $86 $18 $-1 $87 forward single #
loop $-1 $88 $89 $34 #
cone-surface $-1 -49.974648186668539 21.131442898887045 2.8865002885321775 0 -0.6560590369687036 -0.75470957328743171 0.75 0 0 1 I I -0.70710678118654724 0.70710678118654768 0.75 forward I I I I #
loop $-1 $-1 $90 $23 #
coedge $-1 $56 $56 $91 $92 reversed $35 $-1 #
face $-1 $-1 $93 $19 $-1 $94 forward single #
loop $-1 $95 $96 $37 #
cone-surface $-1 -41.500236299674064 21.131442898887045 2.8865002885321775 0 -0.6560590369687036 -0.75470957328743171 0.75 0 0 1 I I -0.70710678118654724 0.70710678118654768 0.75 forward I I I I #
loop $-1 $-1 $97 $24 #
coedge $-1 $61 $61 $98 $99 reversed $38 $-1 #
face $-1 $100 $101 $15 $-1 $102 reversed single #
loop $-1 $-1 $103 $40 #
plane-surface $-1 0 -25.608852747981288 0 0 1 0 0 0 1 forward_v I I I I #
coedge $-1 $104 $105 $106 $107 forward $41 $-1 #
coedge $-1 $108 $43 $109 $110 forward $26 $-1 #
coedge $-1 $43 $108 $111 $112 forward $26 $-1 #
coedge $-1 $113 $114 $43 $69 reversed $115 $-1 #
edge $-1 $116 -25.608852747981288 $117 25.608852747981288 $68 $118 forward 7 unknown #
face $-1 $119 $120 $16 $-1 $121 forward single #
loop $-1 $-1 $122 $44 #
plane-surface $-1 55.624256111331519 0 0 -1 0 0 0 0 1 forward_v I I I I #
coedge $-1 $123 $124 $125 $126 forward $45 $-1 #
coedge $-1 $125 $47 $122 $127 reversed $29 $-1 #
coedge $-1 $47 $125 $128 $129 reversed $29 $-1 #
coedge $-1 $130 $131 $47 $77 reversed $120 $-1 #
edge $-1 $132 -55.624256111331519 $133 55.624256111331519 $76 $134 forward 7 unknown #
face $-1 $135 $136 $17 $-1 $137 reversed single #
loop $-1 $-1 $138 $48 #
plane-surface $-1 0 0 7.3707416079046464 0 0 1 1 0 0 forward_v I I I I #
coedge $-1 $139 $140 $141 $142 reversed $49 $-1 #
coedge $-1 $83 $51 $143 $144 reversed $32 $-1 #
coedge $-1 $51 $82 $139 $145 reversed $32 $-1 #
coedge $-1 $141 $146 $51 $85 forward $136 $-1 #
edge $-1 $147 53.03467495031289 $148 57.156739173638002 $84 $149 forward 7 unknown #
loop $-1 $-1 $91 $52 #
plane-surface $-1 -45.737442243171301 -13.045639911637977 36.850515928007425 0 0.6560590369687036 0.75470957328743171 1 0 0 forward_v I I I I #
loop $-1 $-1 $150 $34 #
coedge $-1 $89 $89 $90 $151 reversed $53 $-1 #
coedge $-1 $90 $90 $89 $151 forward $55 $-1 #
coedge $-1 $91 $91 $56 $92 forward $86 $-1 #
edge $-1 $152 -1.3990463639033989e-015 $152 6.2831853071795987 $91 $153 forward 7 unknown #
loop $-1 $-1 $98 $57 #
plane-surface $-1 -45.737442243171301 -13.045639911637977 36.850515928007425 0 0.6560590369687036 0.75470957328743171 1 0 0 forward_v I I I I #
loop $-1 $-1 $154 $37 #
coedge $-1 $96 $96 $97 $155 reversed $58 $-1 #
coedge $-1 $97 $97 $96 $155 forward $60 $-1 #
coedge $-1 $98 $98 $61 $99 forward $93 $-1 #
edge $-1 $156 -1.3990463639033989e-015 $156 6.2831853071795987 $98 $157 forward 7 unknown #
face $-1 $158 $159 $15 $-1 $160 reversed single #
loop $-1 $-1 $161 $62 #
plane-surface $-1 -55.624256111331519 0 0 1 0 0 0 0 -1 forward_v I I I I #
coedge $-1 $162 $111 $163 $164 forward $63 $-1 #
coedge $-1 $165 $65 $162 $166 forward $41 $-1 #
coedge $-1 $65 $165 $167 $168 forward $41 $-1 #
coedge $-1 $114 $113 $65 $107 reversed $115 $-1 #
edge $-1 $169 -25.608852747981288 $170 25.608852747981288 $106 $171 forward 7 unknown #
coedge $-1 $67 $66 $172 $173 forward $26 $-1 #
coedge $-1 $174 $175 $66 $110 reversed $159 $-1 #
edge $-1 $117 -55.624256111331519 $176 55.624256111331519 $109 $177 forward 7 unknown #
coedge $-1 $103 $178 $67 $112 reversed $63 $-1 #
edge $-1 $179 -55.624256111331519 $116 55.624256111331519 $111 $180 forward 7 unknown #
coedge $-1 $106 $68 $178 $181 forward $115 $-1 #
coedge $-1 $68 $106 $174 $182 reversed $115 $-1 #
loop $-1 $-1 $113 $158 #
vertex $-1 $69 $183 #
vertex $-1 $69 $184 #
straight-curve $-1 55.624256111331519 0 7.3707416079046464 0 1 0 I I #
face $-1 $185 $186 $16 $-1 $187 reversed single #
loop $-1 $-1 $131 $70 #
plane-surface $-1 0 -28.751815969941347 -4.3707416079046464 0 0 1 1 0 0 forward_v I I I I #
coedge $-1 $188 $189 $74 $127 forward $71 $-1 #
coedge $-1 $190 $73 $189 $191 forward $45 $-1 #
coedge $-1 $73 $190 $192 $193 forward $45 $-1 #
coedge $-1 $75 $74 $73 $126 reversed $29 $-1 #
edge $-1 $194 -55.624256111331519 $195 55.624256111331519 $73 $196 forward 7 unknown #
edge $-1 $195 -7.3707416079046464 $133 -4.3707416079046464 $122 $197 forward 7 unknown #
coedge $-1 $192 $198 $75 $129 forward $199 $-1 #
edge $-1 $132 4.3707416079046464 $194 7.3707416079046464 $128 $200 forward 7 unknown #
coedge $-1 $201 $76 $198 $202 forward $120 $-1 #
coedge $-1 $76 $201 $188 $203 forward $120 $-1 #
vertex $-1 $129 $204 #
vertex $-1 $203 $205 #
straight-curve $-1 0 -25.608852747981288 -4.3707416079046464 1 0 0 I I #
face $-1 $-1 $206 $17 $-1 $207 reversed single #
loop $-1 $-1 $84 $78 #
plane-surface $-1 0 25.608852747981288 0 0 -1 0 0 0 -1 forward_v I I I I #
coedge $-1 $143 $208 $209 $210 forward $79 $-1 #
coedge $-1 $209 $81 $83 $145 forward $49 $-1 #
coedge $-1 $81 $209 $211 $212 reversed $49 $-1 #
coedge $-1 $213 $84 $81 $142 forward $136 $-1 #
edge $-1 $148 12.981907253425433 $214 32.755534989745868 $141 $215 forward 7 unknown #
coedge $-1 $216 $138 $82 $144 forward $79 $-1 #
edge $-1 $217 -9.1030155465092406 $147 -4.3611231927004042 $143 $218 forward 7 unknown #
edge $-1 $148 -51.217705495962583 $217 -44.934636456366761 $83 $219 forward 7 unknown #
coedge $-1 $84 $213 $216 $220 reversed $136 $-1 #
vertex $-1 $220 $221 #
vertex $-1 $85 $222 #
straight-curve $-1 -35.850628375011084 25.608852747981288 60.405416558217539 0 0 -1 I I #
coedge $-1 $150 $150 $-1 $223 reversed $88 $-1 #
edge $-1 $224 0 $224 6.2831853071796004 $89 $225 forward 7 unknown #
vertex $-1 $92 $226 #
ellipse-curve $-1 -49.974648186668539 23.237906571076877 5.3097094962420934 0 0.6560590369687036 0.75470957328743171 1.5 0 0 1 I I #
coedge $-1 $154 $154 $-1 $227 reversed $95 $-1 #
edge $-1 $228 0 $228 6.2831853071796004 $96 $229 forward 7 unknown #
vertex $-1 $99 $230 #
ellipse-curve $-1 -41.500236299674064 23.237906571076877 5.3097094962420934 0 0.6560590369687036 0.75470957328743171 1.5 0 0 1 I I #
face $-1 $-1 $115 $15 $-1 $231 reversed single #
loop $-1 $-1 $174 $100 #
plane-surface $-1 0 25.608852747981288 0 0 -1 0 0 0 -1 forward_v I I I I #
coedge $-1 $232 $172 $175 $233 forward $101 $-1 #
coedge $-1 $178 $103 $104 $166 reversed $63 $-1 #
coedge $-1 $172 $232 $103 $164 reversed $101 $-1 #
edge $-1 $179 -7.3707416079046464 $234 7.3707416079046464 $163 $235 forward 7 unknown #
coedge $-1 $105 $104 $232 $236 forward $41 $-1 #
edge $-1 $170 -55.624256111331519 $234 55.624256111331519 $162 $237 forward 7 unknown #
coedge $-1 $175 $174 $105 $168 reversed $159 $-1 #
edge $-1 $238 -55.624256111331519 $169 55.624256111331519 $167 $239 forward 7 unknown #
vertex $-1 $107 $240 #
vertex $-1 $181 $241 #
straight-curve $-1 55.624256111331519 0 -7.3707416079046464 0 -1 0 I I #
coedge $-1 $161 $163 $108 $173 reversed $101 $-1 #
edge $-1 $176 -25.608852747981288 $179 25.608852747981288 $172 $242 forward 7 unknown #
coedge $-1 $167 $109 $114 $182 forward $159 $-1 #
coedge $-1 $109 $167 $161 $233 reversed $159 $-1 #
vertex $-1 $110 $243 #
straight-curve $-1 0 25.608852747981288 7.3707416079046464 -1 0 0 I I #
coedge $-1 $111 $162 $113 $181 reversed $63 $-1 #
vertex $-1 $173 $244 #
straight-curve $-1 0 -25.608852747981288 7.3707416079046464 1 0 0 I I #
edge $-1 $116 -7.3707416079046464 $170 7.3707416079046464 $113 $245 forward 7 unknown #
edge $-1 $117 -7.3707416079046464 $169 7.3707416079046464 $114 $246 forward 7 unknown #
point $-1 55.624256111331519 -25.608852747981288 7.3707416079046464 #
point $-1 55.624256111331519 25.608852747981288 7.3707416079046464 #
face $-1 $-1 $199 $16 $-1 $247 reversed single #
loop $-1 $-1 $248 $119 #
plane-surface $-1 0 -31.894779191901407 -5.8707416079046464 0 1 0 0 0 1 forward_v I I I I #
coedge $-1 $249 $122 $131 $203 reversed $71 $-1 #
coedge $-1 $122 $249 $123 $191 reversed $71 $-1 #
coedge $-1 $124 $123 $250 $251 forward $45 $-1 #
edge $-1 $195 25.608852747981288 $252 31.894779191901407 $189 $253 forward 7 unknown #
coedge $-1 $254 $128 $124 $193 reversed $199 $-1 #
edge $-1 $255 -31.894779191901407 $194 -25.608852747981288 $192 $256 forward 7 unknown #
vertex $-1 $129 $257 #
vertex $-1 $191 $258 #
straight-curve $-1 0 -25.608852747981288 -7.3707416079046464 1 0 0 I I #
straight-curve $-1 55.624256111331519 -25.608852747981288 0 0 0 1 I I #
coedge $-1 $128 $254 $130 $202 reversed $199 $-1 #
loop $-1 $-1 $128 $185 #
straight-curve $-1 -55.624256111331519 -25.608852747981288 0 0 0 -1 I I #
coedge $-1 $131 $130 $259 $260 forward $120 $-1 #
edge $-1 $132 -3.1429632219600592 $261 3.1429632219600592 $198 $262 forward 7 unknown #
edge $-1 $263 -3.1429632219600592 $133 3.1429632219600592 $188 $264 forward 7 unknown #
point $-1 -55.624256111331519 -25.608852747981288 -4.3707416079046464 #
point $-1 55.624256111331519 -25.608852747981288 -4.3707416079046464 #
loop $-1 $-1 $211 $135 #
plane-surface $-1 -55.624256111331519 0 0 1 0 0 0 0 -1 forward_v I I I I #
coedge $-1 $138 $216 $265 $266 forward $79 $-1 #
coedge $-1 $140 $139 $138 $210 reversed $49 $-1 #
edge $-1 $267 -32.755534989745868 $217 -12.981907253425433 $138 $268 forward 7 unknown #
coedge $-1 $265 $269 $140 $212 forward $206 $-1 #
edge $-1 $214 -34.206813834711483 $267 -27.923744795115656 $211 $270 forward 7 unknown #
coedge $-1 $146 $141 $269 $271 reversed $136 $-1 #
vertex $-1 $142 $272 #
straight-curve $-1 -22.868721121585651 25.608852747981288 3.2486773845795369 -1 0 0 I I #
coedge $-1 $208 $143 $146 $220 forward $79 $-1 #
vertex $-1 $144 $273 #
straight-curve $-1 -35.850628375011084 29.969975940681692 7.3707416079046482 0 1 0 I I #
straight-curve $-1 -35.850628375011084 -13.045639911637977 36.850515928007425 0 -0.75470957328743171 0.6560590369687036 I I #
edge $-1 $147 35.850628375011084 $274 55.624256111331519 $146 $275 forward 7 unknown #
point $-1 -35.850628375011084 25.608852747981288 7.3707416079046464 #
point $-1 -35.850628375011084 25.608852747981288 3.2486773845795369 #
edge $-1 $276 1 $276 0 $150 $-1 forward 7 unknown #
vertex $-1 $151 $277 #
ellipse-curve $-1 -49.974648186668539 21.623487176613573 3.4525324684977514 0 0.6560590369687036 0.75470957328743171 1.5 0 0 1 I I #
point $-1 -48.474648186668539 23.237906571076874 5.3097094962420925 #
edge $-1 $278 1 $278 0 $154 $-1 forward 7 unknown #
vertex $-1 $155 $279 #
ellipse-curve $-1 -41.500236299674064 21.623487176613573 3.4525324684977514 0 0.6560590369687036 0.75470957328743171 1.5 0 0 1 I I #
point $-1 -40.000236299674064 23.237906571076874 5.3097094962420925 #
plane-surface $-1 55.624256111331519 0 0 -1 0 0 0 0 1 forward_v I I I I #
coedge $-1 $163 $161 $165 $236 reversed $101 $-1 #
edge $-1 $176 -7.3707416079046464 $238 7.3707416079046464 $175 $280 forward 7 unknown #
vertex $-1 $236 $281 #
straight-curve $-1 -55.624256111331519 -25.608852747981288 0 0 0 -1 I I #
edge $-1 $234 -25.608852747981288 $238 25.608852747981288 $232 $282 forward 7 unknown #
straight-curve $-1 0 -25.608852747981288 -7.3707416079046464 -1 0 0 I I #
vertex $-1 $168 $283 #
straight-curve $-1 0 25.608852747981288 -7.3707416079046464 1 0 0 I I #
point $-1 55.624256111331519 25.608852747981288 -7.3707416079046464 #
point $-1 55.624256111331519 -25.608852747981288 -7.3707416079046464 #
straight-curve $-1 -55.624256111331519 0 7.3707416079046464 0 -1 0 I I #
point $-1 -55.624256111331519 25.608852747981288 7.3707416079046464 #
point $-1 -55.624256111331519 -25.608852747981288 7.3707416079046464 #
straight-curve $-1 55.624256111331519 -25.608852747981288 0 0 0 -1 I I #
straight-curve $-1 55.624256111331519 25.608852747981288 0 0 0 -1 I I #
plane-surface $-1 -55.624256111331519 0 0 1 0 0 0 0 -1 forward_v I I I I #
coedge $-1 $250 $259 $254 $284 forward $186 $-1 #
coedge $-1 $189 $188 $285 $286 forward $71 $-1 #
coedge $-1 $285 $248 $190 $251 reversed $186 $-1 #
edge $-1 $252 -55.624256111331519 $255 55.624256111331519 $250 $287 forward 7 unknown #
vertex $-1 $286 $288 #
straight-curve $-1 55.624256111331519 0 -7.3707416079046464 0 -1 0 I I #
coedge $-1 $198 $192 $248 $284 reversed $199 $-1 #
vertex $-1 $193 $289 #
straight-curve $-1 -55.624256111331519 0 -7.3707416079046464 0 1 0 I I #
point $-1 -55.624256111331519 -25.608852747981288 -7.3707416079046464 #
point $-1 55.624256111331519 -25.608852747981288 -7.3707416079046464 #
coedge $-1 $248 $285 $201 $260 reversed $186 $-1 #
edge $-1 $261 -55.624256111331519 $263 55.624256111331519 $259 $290 forward 7 unknown #
vertex $-1 $202 $291 #
straight-curve $-1 -55.624256111331519 -28.751815969941347 -4.3707416079046464 0 -1 0 I I #
vertex $-1 $203 $292 #
straight-curve $-1 55.624256111331519 -28.751815969941347 -4.3707416079046464 0 1 0 I I #
coedge $-1 $269 $211 $208 $266 reversed $206 $-1 #
edge $-1 $274 -25.608852747981288 $267 -20.866960394172452 $265 $293 forward 7 unknown #
vertex $-1 $212 $294 #
straight-curve $-1 -22.868721121585651 20.866960394172445 7.3707416079046517 1 0 0 I I #
coedge $-1 $211 $265 $213 $271 forward $206 $-1 #
straight-curve $-1 -55.624256111331519 -0.20735712473642565 25.690366726748074 0 -0.75470957328743171 0.6560590369687036 I I #
edge $-1 $274 -7.3707416079046464 $214 -3.2486773845795338 $213 $295 forward 7 unknown #
point $-1 -55.624256111331519 25.608852747981288 3.2486773845795338 #
point $-1 -35.850628375011084 20.866960394172452 7.3707416079046482 #
vertex $-1 $220 $296 #
straight-curve $-1 0 25.608852747981288 7.3707416079046464 -1 0 0 I I #
vertex $-1 $223 $297 #
point $-1 -48.474648186668539 21.623487176613573 3.4525324684977514 #
vertex $-1 $227 $298 #
point $-1 -40.000236299674064 21.623487176613573 3.4525324684977514 #
straight-curve $-1 -55.624256111331519 25.608852747981288 0 0 0 -1 I I #
point $-1 -55.624256111331519 -25.608852747981288 -7.3707416079046464 #
straight-curve $-1 -55.624256111331519 0 -7.3707416079046464 0 1 0 I I #
point $-1 -55.624256111331519 25.608852747981288 -7.3707416079046464 #
edge $-1 $261 -1.5 $255 1.5 $254 $299 forward 7 unknown #
coedge $-1 $259 $250 $249 $286 reversed $186 $-1 #
edge $-1 $263 -1.5 $252 1.5 $249 $300 forward 7 unknown #
straight-curve $-1 0 -31.894779191901407 -7.3707416079046464 -1 0 0 I I #
point $-1 55.624256111331519 -31.894779191901407 -7.3707416079046464 #
point $-1 -55.624256111331519 -31.894779191901407 -7.3707416079046464 #
straight-curve $-1 0 -31.894779191901407 -4.3707416079046464 1 0 0 I I #
point $-1 -55.624256111331519 -31.894779191901407 -4.3707416079046464 #
point $-1 55.624256111331519 -31.894779191901407 -4.3707416079046464 #
straight-curve $-1 -55.624256111331519 0 7.3707416079046464 0 -1 0 I I #
point $-1 -55.624256111331519 20.866960394172452 7.3707416079046482 #
straight-curve $-1 -55.624256111331519 25.608852747981288 0 0 0 -1 I I #
point $-1 -55.624256111331519 25.608852747981288 7.3707416079046464 #
point $-1 -49.974648186668539 20.639398621160517 2.3204681085666037 #
point $-1 -41.500236299674064 20.639398621160517 2.3204681085666037 #
straight-curve $-1 -55.624256111331519 -31.894779191901407 -5.8707416079046464 0 0 -1 I I #
straight-curve $-1 55.624256111331519 -31.894779191901407 -5.8707416079046464 0 0 -1 I I #
End-of-ACIS-data 