500 0 2 0           
7 Unknown 11 ACIS 5.0 NT 24 Thu Mar 25 17:17:24 1999 
-1 9.9999999999999995e-007 1e-010 
body $-1 $2 $-1 $3 #
body $-1 $4 $-1 $5 #
lump $-1 $-1 $6 $0 #
transform $-1 1 0 0 0 1 0 0 0 1 61.765800958281197 38.917336754188106 19.266261121190905 1 rotate no_reflect no_shear #
lump $-1 $-1 $7 $1 #
transform $-1 1 0 0 0 1 0 0 0 1 61.765800958281197 38.917336754188106 19.266261121190905 1 rotate no_reflect no_shear #
shell $-1 $-1 $-1 $8 $-1 $2 #
shell $-1 $-1 $-1 $9 $-1 $4 #
face $-1 $10 $11 $6 $-1 $12 forward single #
face $-1 $13 $14 $7 $-1 $15 forward single #
face $-1 $16 $17 $6 $-1 $18 reversed single #
loop $-1 $-1 $19 $8 #
plane-surface $-1 0 0 19.266261121190905 0 0 1 1 0 0 forward_v I I I I #
face $-1 $20 $21 $7 $-1 $22 forward single #
loop $-1 $-1 $23 $9 #
plane-surface $-1 -53.58233045949796 -30.985090076265692 0 1 0 0 0 0 -1 forward_v I I I I #
face $-1 $24 $25 $6 $-1 $26 reversed single #
loop $-1 $-1 $27 $10 #
plane-surface $-1 0 0 -19.266261121190905 0 0 1 1 0 0 forward_v I I I I #
coedge $-1 $28 $29 $30 $31 forward $11 $-1 #
face $-1 $32 $33 $7 $-1 $34 forward single #
loop $-1 $-1 $35 $13 #
plane-surface $-1 -51.313266209100064 -23.052843398343278 0 0 -1 0 0 0 -1 forward_v I I I I #
coedge $-1 $36 $37 $38 $39 reversed $14 $-1 #
face $-1 $40 $41 $6 $-1 $42 reversed single #
loop $-1 $-1 $43 $16 #
plane-surface $-1 0 -38.917336754188106 0 0 1 0 0 0 1 forward_v I I I I #
coedge $-1 $44 $45 $46 $47 forward $17 $-1 #
coedge $-1 $48 $19 $49 $50 forward $11 $-1 #
coedge $-1 $19 $48 $51 $52 forward $11 $-1 #
coedge $-1 $53 $54 $19 $31 reversed $55 $-1 #
edge $-1 $56 -38.917336754188106 $57 38.917336754188106 $30 $58 forward 7 unknown #
face $-1 $59 $60 $7 $-1 $61 forward single #
loop $-1 $-1 $62 $20 #
plane-surface $-1 -49.044201958702168 -30.985090076265692 0 -1 0 0 0 0 1 forward_v I I I I #
coedge $-1 $63 $64 $65 $66 reversed $21 $-1 #
coedge $-1 $67 $23 $68 $69 reversed $14 $-1 #
coedge $-1 $23 $67 $70 $71 reversed $14 $-1 #
coedge $-1 $64 $63 $23 $39 forward $21 $-1 #
edge $-1 $72 -19.266261121190905 $73 19.266261121190905 $38 $74 forward 7 unknown #
face $-1 $75 $76 $6 $-1 $77 reversed single #
loop $-1 $-1 $78 $24 #
plane-surface $-1 -61.765800958281197 0 0 1 0 0 0 0 -1 forward_v I I I I #
coedge $-1 $79 $51 $80 $81 forward $25 $-1 #
coedge $-1 $82 $27 $79 $83 forward $17 $-1 #
coedge $-1 $27 $82 $84 $85 forward $17 $-1 #
coedge $-1 $54 $53 $27 $47 reversed $55 $-1 #
edge $-1 $86 -38.917336754188106 $87 38.917336754188106 $46 $88 forward 7 unknown #
coedge $-1 $29 $28 $89 $90 forward $11 $-1 #
coedge $-1 $91 $92 $28 $50 reversed $76 $-1 #
edge $-1 $57 -61.765800958281197 $93 61.765800958281197 $49 $94 forward 7 unknown #
coedge $-1 $43 $95 $29 $52 reversed $25 $-1 #
edge $-1 $96 -61.765800958281197 $56 61.765800958281197 $51 $97 forward 7 unknown #
coedge $-1 $46 $30 $95 $98 forward $55 $-1 #
coedge $-1 $30 $46 $91 $99 reversed $55 $-1 #
loop $-1 $-1 $53 $75 #
vertex $-1 $31 $100 #
vertex $-1 $31 $101 #
straight-curve $-1 61.765800958281197 0 19.266261121190905 0 1 0 I I #
face $-1 $102 $103 $7 $-1 $104 reversed single #
loop $-1 $-1 $68 $32 #
plane-surface $-1 0 0 19.266261121190905 0 0 1 1 0 0 forward_v I I I I #
coedge $-1 $105 $106 $107 $108 reversed $33 $-1 #
coedge $-1 $38 $35 $109 $110 reversed $21 $-1 #
coedge $-1 $35 $38 $111 $112 reversed $21 $-1 #
coedge $-1 $106 $105 $35 $66 forward $33 $-1 #
edge $-1 $113 -19.266261121190905 $114 19.266261121190905 $65 $115 forward 7 unknown #
coedge $-1 $37 $36 $116 $117 reversed $14 $-1 #
coedge $-1 $109 $118 $36 $69 forward $60 $-1 #
edge $-1 $119 -23.42479171605526 $72 -7.5602983602104317 $68 $120 forward 7 unknown #
coedge $-1 $121 $111 $37 $71 forward $122 $-1 #
edge $-1 $73 7.5602983602104317 $123 23.42479171605526 $70 $124 forward 7 unknown #
vertex $-1 $69 $125 #
vertex $-1 $71 $126 #
straight-curve $-1 -53.58233045949796 -23.052843398343278 0 0 0 -1 I I #
face $-1 $-1 $55 $6 $-1 $127 reversed single #
loop $-1 $-1 $91 $40 #
plane-surface $-1 0 38.917336754188106 0 0 -1 0 0 0 -1 forward_v I I I I #
coedge $-1 $128 $89 $92 $129 forward $41 $-1 #
coedge $-1 $95 $43 $44 $83 reversed $25 $-1 #
coedge $-1 $89 $128 $43 $81 reversed $41 $-1 #
edge $-1 $96 -19.266261121190905 $130 19.266261121190905 $80 $131 forward 7 unknown #
coedge $-1 $45 $44 $128 $132 forward $17 $-1 #
edge $-1 $87 -61.765800958281197 $130 61.765800958281197 $79 $133 forward 7 unknown #
coedge $-1 $92 $91 $45 $85 reversed $76 $-1 #
edge $-1 $134 -61.765800958281197 $86 61.765800958281197 $84 $135 forward 7 unknown #
vertex $-1 $47 $136 #
vertex $-1 $98 $137 #
straight-curve $-1 61.765800958281197 0 -19.266261121190905 0 -1 0 I I #
coedge $-1 $78 $80 $48 $90 reversed $41 $-1 #
edge $-1 $93 -38.917336754188106 $96 38.917336754188106 $89 $138 forward 7 unknown #
coedge $-1 $84 $49 $54 $99 forward $76 $-1 #
coedge $-1 $49 $84 $78 $129 reversed $76 $-1 #
vertex $-1 $50 $139 #
straight-curve $-1 0 38.917336754188106 19.266261121190905 -1 0 0 I I #
coedge $-1 $51 $79 $53 $98 reversed $25 $-1 #
vertex $-1 $90 $140 #
straight-curve $-1 0 -38.917336754188106 19.266261121190905 1 0 0 I I #
edge $-1 $56 -19.266261121190905 $87 19.266261121190905 $53 $141 forward 7 unknown #
edge $-1 $57 -19.266261121190905 $86 19.266261121190905 $54 $142 forward 7 unknown #
point $-1 61.765800958281197 -38.917336754188106 19.266261121190905 #
point $-1 61.765800958281197 38.917336754188106 19.266261121190905 #
face $-1 $143 $122 $7 $-1 $144 reversed single #
loop $-1 $-1 $107 $59 #
plane-surface $-1 0 -38.917336754188106 0 0 1 0 0 0 1 forward_v I I I I #
coedge $-1 $65 $62 $145 $146 reversed $33 $-1 #
coedge $-1 $62 $65 $147 $148 reversed $33 $-1 #
coedge $-1 $149 $150 $62 $108 forward $103 $-1 #
edge $-1 $151 -19.266261121190905 $152 19.266261121190905 $107 $153 forward 7 unknown #
coedge $-1 $145 $68 $63 $110 forward $60 $-1 #
edge $-1 $72 -27.925697354947928 $113 -23.387568854152136 $109 $154 forward 7 unknown #
coedge $-1 $70 $147 $64 $112 forward $122 $-1 #
edge $-1 $114 23.387568854152136 $73 27.925697354947928 $111 $155 forward 7 unknown #
vertex $-1 $110 $156 #
vertex $-1 $112 $157 #
straight-curve $-1 -49.044201958702168 -23.052843398343278 0 0 0 -1 I I #
coedge $-1 $158 $159 $67 $117 forward $160 $-1 #
edge $-1 $123 -19.266261121190905 $119 19.266261121190905 $116 $161 forward 7 unknown #
coedge $-1 $68 $162 $158 $163 forward $60 $-1 #
vertex $-1 $117 $164 #
straight-curve $-1 -53.58233045949796 -15.492545038132846 19.266261121190905 0 1 0 I I #
coedge $-1 $165 $70 $159 $166 forward $122 $-1 #
loop $-1 $-1 $70 $102 #
vertex $-1 $166 $167 #
straight-curve $-1 -53.58233045949796 -15.492545038132846 -19.266261121190905 0 -1 0 I I #
point $-1 -53.58233045949796 -23.052843398343278 19.266261121190905 #
point $-1 -53.58233045949796 -23.052843398343278 -19.266261121190905 #
plane-surface $-1 61.765800958281197 0 0 -1 0 0 0 0 1 forward_v I I I I #
coedge $-1 $80 $78 $82 $132 reversed $41 $-1 #
edge $-1 $93 -19.266261121190905 $134 19.266261121190905 $92 $168 forward 7 unknown #
vertex $-1 $132 $169 #
straight-curve $-1 -61.765800958281197 -38.917336754188106 0 0 0 -1 I I #
edge $-1 $130 -38.917336754188106 $134 38.917336754188106 $128 $170 forward 7 unknown #
straight-curve $-1 0 -38.917336754188106 -19.266261121190905 -1 0 0 I I #
vertex $-1 $85 $171 #
straight-curve $-1 0 38.917336754188106 -19.266261121190905 1 0 0 I I #
point $-1 61.765800958281197 38.917336754188106 -19.266261121190905 #
point $-1 61.765800958281197 -38.917336754188106 -19.266261121190905 #
straight-curve $-1 -61.765800958281197 0 19.266261121190905 0 -1 0 I I #
point $-1 -61.765800958281197 38.917336754188106 19.266261121190905 #
point $-1 -61.765800958281197 -38.917336754188106 19.266261121190905 #
straight-curve $-1 61.765800958281197 -38.917336754188106 0 0 0 -1 I I #
straight-curve $-1 61.765800958281197 38.917336754188106 0 0 0 -1 I I #
face $-1 $172 $160 $7 $-1 $104 reversed single #
plane-surface $-1 0 0 -19.266261121190905 0 0 1 1 0 0 forward_v I I I I #
coedge $-1 $173 $109 $105 $146 forward $60 $-1 #
edge $-1 $113 7.5602983602104317 $151 23.42479171605526 $145 $174 forward 7 unknown #
coedge $-1 $111 $175 $106 $148 forward $122 $-1 #
edge $-1 $152 -23.42479171605526 $114 -7.5602983602104317 $147 $176 forward 7 unknown #
coedge $-1 $177 $107 $175 $178 reversed $103 $-1 #
coedge $-1 $107 $177 $173 $179 reversed $103 $-1 #
vertex $-1 $179 $180 #
vertex $-1 $108 $181 #
straight-curve $-1 -49.044201958702168 -38.917336754188106 0 0 0 -1 I I #
straight-curve $-1 -25.656633104550032 -23.052843398343278 19.266261121190905 1 0 0 I I #
straight-curve $-1 -25.656633104550032 -23.052843398343278 -19.266261121190905 -1 0 0 I I #
point $-1 -49.044201958702168 -23.052843398343278 19.266261121190905 #
point $-1 -49.044201958702168 -23.052843398343278 -19.266261121190905 #
coedge $-1 $182 $116 $118 $163 reversed $160 $-1 #
coedge $-1 $116 $182 $121 $166 reversed $160 $-1 #
loop $-1 $-1 $116 $143 #
straight-curve $-1 -53.58233045949796 -38.917336754188106 0 0 0 1 I I #
coedge $-1 $118 $183 $184 $185 forward $60 $-1 #
edge $-1 $186 -61.765800958281197 $119 -53.58233045949796 $158 $187 forward 7 unknown #
point $-1 -53.58233045949796 -38.917336754188106 19.266261121190905 #
coedge $-1 $188 $121 $189 $190 forward $122 $-1 #
edge $-1 $123 53.58233045949796 $191 61.765800958281197 $159 $192 forward 7 unknown #
point $-1 -53.58233045949796 -38.917336754188106 -19.266261121190905 #
straight-curve $-1 -61.765800958281197 38.917336754188106 0 0 0 -1 I I #
point $-1 -61.765800958281197 -38.917336754188106 -19.266261121190905 #
straight-curve $-1 -61.765800958281197 0 -19.266261121190905 0 1 0 I I #
point $-1 -61.765800958281197 38.917336754188106 -19.266261121190905 #
face $-1 $193 $194 $7 $-1 $195 reversed single #
coedge $-1 $196 $145 $150 $179 forward $60 $-1 #
straight-curve $-1 -49.044201958702168 -15.492545038132846 19.266261121190905 0 -1 0 I I #
coedge $-1 $147 $197 $149 $178 forward $122 $-1 #
straight-curve $-1 -49.044201958702168 -15.492545038132846 -19.266261121190905 0 1 0 I I #
coedge $-1 $150 $149 $198 $199 reversed $103 $-1 #
edge $-1 $200 -61.765800958281197 $152 49.044201958702168 $149 $192 forward 7 unknown #
edge $-1 $151 -49.044201958702168 $201 61.765800958281197 $150 $187 forward 7 unknown #
point $-1 -49.044201958702168 -38.917336754188106 19.266261121190905 #
point $-1 -49.044201958702168 -38.917336754188106 -19.266261121190905 #
coedge $-1 $159 $158 $202 $203 forward $160 $-1 #
coedge $-1 $162 $196 $204 $205 forward $60 $-1 #
coedge $-1 $206 $202 $162 $185 reversed $194 $-1 #
edge $-1 $207 -38.917336754188106 $186 38.917336754188106 $184 $208 forward 7 unknown #
vertex $-1 $185 $209 #
straight-curve $-1 0 -38.917336754188106 19.266261121190905 1 0 0 I I #
coedge $-1 $197 $165 $210 $211 forward $122 $-1 #
coedge $-1 $202 $206 $165 $190 reversed $194 $-1 #
edge $-1 $191 -38.917336754188106 $212 38.917336754188106 $189 $213 forward 7 unknown #
vertex $-1 $190 $214 #
straight-curve $-1 0 -38.917336754188106 -19.266261121190905 -1 0 0 I I #
face $-1 $215 $216 $7 $-1 $217 reversed single #
loop $-1 $-1 $206 $172 #
plane-surface $-1 -61.765800958281197 0 0 1 0 0 0 0 -1 forward_v I I I I #
coedge $-1 $183 $173 $218 $219 forward $60 $-1 #
coedge $-1 $175 $188 $220 $221 forward $122 $-1 #
coedge $-1 $220 $218 $177 $199 forward $222 $-1 #
edge $-1 $201 -19.266261121190905 $200 19.266261121190905 $198 $223 forward 7 unknown #
vertex $-1 $199 $224 #
vertex $-1 $219 $225 #
coedge $-1 $184 $189 $182 $203 reversed $194 $-1 #
edge $-1 $186 -19.266261121190905 $191 19.266261121190905 $202 $226 forward 7 unknown #
coedge $-1 $227 $228 $183 $205 reversed $216 $-1 #
edge $-1 $229 -61.765800958281197 $207 61.765800958281197 $204 $230 forward 7 unknown #
coedge $-1 $189 $184 $228 $231 forward $194 $-1 #
vertex $-1 $205 $232 #
straight-curve $-1 -61.765800958281197 0 19.266261121190905 0 -1 0 I I #
point $-1 -61.765800958281197 -38.917336754188106 19.266261121190905 #
coedge $-1 $228 $227 $188 $211 reversed $216 $-1 #
edge $-1 $212 -61.765800958281197 $233 61.765800958281197 $210 $234 forward 7 unknown #
vertex $-1 $211 $235 #
straight-curve $-1 -61.765800958281197 0 -19.266261121190905 0 1 0 I I #
point $-1 -61.765800958281197 -38.917336754188106 -19.266261121190905 #
face $-1 $-1 $222 $7 $-1 $236 reversed single #
loop $-1 $-1 $227 $193 #
plane-surface $-1 0 38.917336754188106 0 0 -1 0 0 0 -1 forward_v I I I I #
coedge $-1 $198 $237 $196 $219 reversed $222 $-1 #
edge $-1 $201 -38.917336754188106 $229 38.917336754188106 $218 $238 forward 7 unknown #
coedge $-1 $237 $198 $197 $221 reversed $222 $-1 #
edge $-1 $233 -38.917336754188106 $200 38.917336754188106 $220 $239 forward 7 unknown #
loop $-1 $-1 $198 $215 #
straight-curve $-1 61.765800958281197 -38.917336754188106 0 0 0 -1 I I #
point $-1 61.765800958281197 -38.917336754188106 -19.266261121190905 #
point $-1 61.765800958281197 -38.917336754188106 19.266261121190905 #
straight-curve $-1 -61.765800958281197 -38.917336754188106 0 0 0 -1 I I #
coedge $-1 $210 $204 $237 $240 forward $216 $-1 #
coedge $-1 $204 $210 $206 $231 reversed $216 $-1 #
vertex $-1 $219 $241 #
straight-curve $-1 0 38.917336754188106 19.266261121190905 -1 0 0 I I #
edge $-1 $207 -19.266261121190905 $212 19.266261121190905 $228 $242 forward 7 unknown #
point $-1 -61.765800958281197 38.917336754188106 19.266261121190905 #
vertex $-1 $221 $243 #
straight-curve $-1 0 38.917336754188106 -19.266261121190905 1 0 0 I I #
point $-1 -61.765800958281197 38.917336754188106 -19.266261121190905 #
plane-surface $-1 61.765800958281197 0 0 -1 0 0 0 0 1 forward_v I I I I #
coedge $-1 $218 $220 $227 $240 reversed $222 $-1 #
straight-curve $-1 61.765800958281197 0 19.266261121190905 0 1 0 I I #
straight-curve $-1 61.765800958281197 0 -19.266261121190905 0 -1 0 I I #
edge $-1 $229 -19.266261121190905 $233 19.266261121190905 $237 $244 forward 7 unknown #
point $-1 61.765800958281197 38.917336754188106 19.266261121190905 #
straight-curve $-1 -61.765800958281197 38.917336754188106 0 0 0 -1 I I #
point $-1 61.765800958281197 38.917336754188106 -19.266261121190905 #
straight-curve $-1 61.765800958281197 38.917336754188106 0 0 0 -1 I I #
End-of-ACIS-data 