500 0 6 0           
7 Unknown 11 ACIS 5.0 NT 24 Fri Mar 26 19:12:58 1999 
-1 9.9999999999999995e-007 1e-010 
body $-1 $6 $-1 $7 #
body $-1 $8 $-1 $9 #
body $-1 $10 $-1 $11 #
body $-1 $12 $-1 $13 #
body $-1 $14 $-1 $15 #
body $-1 $16 $-1 $17 #
lump $-1 $-1 $18 $0 #
transform $-1 1 0 0 0 1 0 0 0 1 45.840021973326827 19.258908734269347 5.1315555399383177 1 rotate no_reflect no_shear #
lump $-1 $-1 $19 $1 #
transform $-1 1 0 0 0 1 0 0 0 1 45.840021973326827 19.258908734269347 5.1315555399383177 1 rotate no_reflect no_shear #
lump $-1 $-1 $20 $2 #
transform $-1 1 0 0 0 1 0 0 0 1 45.840021973326827 19.258908734269347 5.1315555399383177 1 rotate no_reflect no_shear #
lump $-1 $-1 $21 $3 #
transform $-1 1 0 0 0 1 0 0 0 1 45.840021973326827 19.258908734269347 5.1315555399383177 1 rotate no_reflect no_shear #
lump $-1 $-1 $22 $4 #
transform $-1 1 0 0 0 1 0 0 0 1 45.840021973326827 19.258908734269347 5.1315555399383177 1 rotate no_reflect no_shear #
lump $-1 $-1 $23 $5 #
transform $-1 1 0 0 0 1 0 0 0 1 45.840021973326827 19.258908734269347 5.1315555399383177 1 rotate no_reflect no_shear #
shell $-1 $-1 $-1 $24 $-1 $6 #
shell $-1 $-1 $-1 $25 $-1 $8 #
shell $-1 $-1 $-1 $26 $-1 $10 #
shell $-1 $-1 $-1 $27 $-1 $12 #
shell $-1 $-1 $-1 $28 $-1 $14 #
shell $-1 $-1 $-1 $29 $-1 $16 #
face $-1 $30 $31 $18 $-1 $32 forward single #
face $-1 $33 $34 $19 $-1 $35 forward single #
face $-1 $36 $37 $20 $-1 $38 reversed single #
face $-1 $39 $40 $21 $-1 $41 forward single #
face $-1 $42 $43 $22 $-1 $44 reversed single #
face $-1 $45 $46 $23 $-1 $47 forward single #
face $-1 $48 $49 $18 $-1 $50 reversed single #
loop $-1 $-1 $51 $24 #
plane-surface $-1 0 0 5.1315555399383177 0 0 1 1 0 0 forward_v I I I I #
face $-1 $52 $53 $19 $-1 $54 reversed single #
loop $-1 $-1 $55 $25 #
plane-surface $-1 0 -19.258908734269347 0 0 1 0 0 0 1 forward_v I I I I #
face $-1 $56 $57 $20 $-1 $58 reversed single #
loop $-1 $-1 $59 $26 #
plane-surface $-1 -99.728200423151293 -9.7802735011487485 75.603416098016055 0 1 0 -0.5877852598018023 0 0.80901698891910034 forward_v I I I I #
face $-1 $60 $61 $21 $-1 $62 forward single #
loop $-1 $63 $64 $27 #
cone-surface $-1 -42.602112510686617 -5.0051895269629085 2.3291325891166808 0.5877852598018023 0 -0.80901698891910034 0.80901698891910034 0 0.5877852598018023 1 I I 0 1 1 forward I I I I #
face $-1 $65 $66 $22 $-1 $67 reversed single #
loop $-1 $-1 $68 $28 #
plane-surface $-1 32.287368478572887 14.845781489513323 129.14499678166962 0 -1 0 -0.62932039886446345 0 -0.77714595512881146 forward_v I I I I #
face $-1 $69 $70 $23 $-1 $71 forward single #
loop $-1 $72 $73 $29 #
cone-surface $-1 42.1829368902103 10.369383843117653 1.909867144435482 -0.62932039886446345 0 -0.77714595512881146 0.38857297756440573 0 -0.31466019943223172 1 I I 0 1 0.5 forward I I I I #
face $-1 $74 $75 $18 $-1 $76 reversed single #
loop $-1 $-1 $77 $30 #
plane-surface $-1 0 0 -5.1315555399383177 0 0 1 1 0 0 forward_v I I I I #
coedge $-1 $78 $79 $80 $81 forward $31 $-1 #
face $-1 $82 $83 $19 $-1 $84 reversed single #
loop $-1 $-1 $85 $33 #
plane-surface $-1 0 0 -5.1315555399383177 0 0 1 1 0 0 forward_v I I I I #
coedge $-1 $86 $87 $88 $89 forward $34 $-1 #
face $-1 $90 $91 $20 $-1 $92 reversed single #
loop $-1 $-1 $93 $36 #
plane-surface $-1 -45.84002197332682 -5.0051895269629085 1.4327030003235279 -0.5877852598018023 0 0.80901698891910034 0.80901698891910034 0 0.5877852598018023 forward_v I I I I #
coedge $-1 $94 $95 $96 $97 reversed $37 $-1 #
face $-1 $-1 $98 $21 $-1 $99 forward single #
loop $-1 $100 $101 $39 #
cone-surface $-1 -41.615827249465795 -5.0051895269629085 0.97162741364288152 0.5877852598018023 0 -0.80901698891910034 0.40450849445955017 0 0.29389262990090115 1 I I -0.70710678118654746 0.70710678118654746 0.5 forward I I I I #
loop $-1 $-1 $102 $27 #
coedge $-1 $64 $64 $103 $104 reversed $40 $-1 #
face $-1 $105 $106 $22 $-1 $107 reversed single #
loop $-1 $-1 $108 $42 #
plane-surface $-1 -25.408753345846726 10.369383843117653 57.896221462496058 0.62932039886446345 0 0.77714595512881146 0.77714595512881146 0 -0.62932039886446345 forward_v I I I I #
coedge $-1 $109 $110 $111 $112 reversed $43 $-1 #
face $-1 $-1 $113 $23 $-1 $114 forward single #
loop $-1 $115 $116 $45 #
cone-surface $-1 41.413442080166533 10.369383843117653 0.95962021108139428 -0.62932039886446345 0 -0.77714595512881146 0.19428648878220287 0 -0.15733009971611586 1 I I -0.70710678118654746 0.70710678118654746 0.25 forward I I I I #
loop $-1 $-1 $117 $29 #
coedge $-1 $73 $73 $118 $119 reversed $46 $-1 #
face $-1 $120 $121 $18 $-1 $122 reversed single #
loop $-1 $-1 $123 $48 #
plane-surface $-1 0 -19.258908734269347 0 0 1 0 0 0 1 forward_v I I I I #
coedge $-1 $124 $125 $126 $127 forward $49 $-1 #
coedge $-1 $128 $51 $129 $130 forward $31 $-1 #
coedge $-1 $51 $128 $131 $132 forward $31 $-1 #
coedge $-1 $133 $134 $51 $81 reversed $135 $-1 #
edge $-1 $136 -19.258908734269347 $137 19.258908734269347 $80 $138 forward 7 unknown #
face $-1 $139 $140 $19 $-1 $141 forward single #
loop $-1 $-1 $142 $52 #
plane-surface $-1 45.840021973326827 0 0 -1 0 0 0 0 1 forward_v I I I I #
coedge $-1 $143 $144 $145 $146 forward $53 $-1 #
coedge $-1 $145 $55 $142 $147 reversed $34 $-1 #
coedge $-1 $55 $145 $148 $149 reversed $34 $-1 #
coedge $-1 $150 $151 $55 $89 reversed $140 $-1 #
edge $-1 $152 -45.840021973326827 $153 45.840021973326827 $88 $154 forward 7 unknown #
face $-1 $155 $156 $20 $-1 $157 forward single #
loop $-1 $-1 $158 $56 #
plane-surface $-1 -99.728200423151293 -0.23010555277706946 75.603416098016055 0 -1 0 0.5877852598018023 0 -0.80901698891910034 forward_v I I I I #
coedge $-1 $159 $160 $161 $162 reversed $57 $-1 #
coedge $-1 $95 $59 $163 $164 reversed $37 $-1 #
coedge $-1 $59 $94 $159 $165 reversed $37 $-1 #
coedge $-1 $161 $166 $59 $97 forward $156 $-1 #
edge $-1 $167 4.0240782382488192 $168 9.1151119008894241 $96 $169 forward 7 unknown #
loop $-1 $-1 $103 $60 #
plane-surface $-1 -45.84002197332682 -5.0051895269629085 1.4327030003235279 -0.5877852598018023 0 0.80901698891910034 0.80901698891910034 0 0.5877852598018023 forward_v I I I I #
loop $-1 $-1 $170 $39 #
coedge $-1 $101 $101 $102 $171 reversed $61 $-1 #
coedge $-1 $102 $102 $101 $171 forward $63 $-1 #
coedge $-1 $103 $103 $64 $104 forward $98 $-1 #
edge $-1 $172 0 $172 6.2831853071796004 $103 $173 forward 7 unknown #
face $-1 $174 $175 $22 $-1 $176 reversed single #
loop $-1 $-1 $177 $65 #
plane-surface $-1 32.287368478572887 5.8929861967219832 129.14499678166962 0 1 0 0.62932039886446345 0 0.77714595512881146 forward_v I I I I #
coedge $-1 $178 $179 $180 $181 reversed $66 $-1 #
coedge $-1 $110 $68 $182 $183 reversed $43 $-1 #
coedge $-1 $68 $109 $178 $184 reversed $43 $-1 #
coedge $-1 $180 $185 $68 $112 forward $186 $-1 #
edge $-1 $187 -29.696337734040384 $188 -23.606496988462631 $111 $189 forward 7 unknown #
loop $-1 $-1 $118 $69 #
plane-surface $-1 -25.408753345846726 10.369383843117653 57.896221462496058 0.62932039886446345 0 0.77714595512881146 0.77714595512881146 0 -0.62932039886446345 forward_v I I I I #
loop $-1 $-1 $190 $45 #
coedge $-1 $116 $116 $117 $191 reversed $70 $-1 #
coedge $-1 $117 $117 $116 $191 forward $72 $-1 #
coedge $-1 $118 $118 $73 $119 forward $113 $-1 #
edge $-1 $192 0 $192 6.2831853071796004 $118 $193 forward 7 unknown #
face $-1 $194 $195 $18 $-1 $196 reversed single #
loop $-1 $-1 $197 $74 #
plane-surface $-1 -45.840021973326827 0 0 1 0 0 0 0 -1 forward_v I I I I #
coedge $-1 $198 $131 $199 $200 forward $75 $-1 #
coedge $-1 $201 $77 $198 $202 forward $49 $-1 #
coedge $-1 $77 $201 $203 $204 forward $49 $-1 #
coedge $-1 $134 $133 $77 $127 reversed $135 $-1 #
edge $-1 $205 -19.258908734269347 $206 19.258908734269347 $126 $207 forward 7 unknown #
coedge $-1 $79 $78 $208 $209 forward $31 $-1 #
coedge $-1 $210 $211 $78 $130 reversed $195 $-1 #
edge $-1 $137 -45.840021973326827 $212 45.840021973326827 $129 $213 forward 7 unknown #
coedge $-1 $123 $214 $79 $132 reversed $75 $-1 #
edge $-1 $215 -45.840021973326827 $136 45.840021973326827 $131 $216 forward 7 unknown #
coedge $-1 $126 $80 $214 $217 forward $135 $-1 #
coedge $-1 $80 $126 $210 $218 reversed $135 $-1 #
loop $-1 $-1 $133 $194 #
vertex $-1 $81 $219 #
vertex $-1 $81 $220 #
straight-curve $-1 45.840021973326827 0 5.1315555399383177 0 1 0 I I #
face $-1 $221 $222 $19 $-1 $223 reversed single #
loop $-1 $-1 $151 $82 #
plane-surface $-1 0 -22.057715222531833 -2.1315555399383177 0 0 1 1 0 0 forward_v I I I I #
coedge $-1 $224 $225 $86 $147 forward $83 $-1 #
coedge $-1 $226 $85 $225 $227 forward $53 $-1 #
coedge $-1 $85 $226 $228 $229 forward $53 $-1 #
coedge $-1 $87 $86 $85 $146 reversed $34 $-1 #
edge $-1 $230 -45.840021973326827 $231 45.840021973326827 $85 $232 forward 7 unknown #
edge $-1 $231 -5.1315555399383177 $153 -2.1315555399383177 $142 $233 forward 7 unknown #
coedge $-1 $228 $234 $87 $149 forward $235 $-1 #
edge $-1 $152 2.1315555399383177 $230 5.1315555399383177 $148 $236 forward 7 unknown #
coedge $-1 $237 $88 $234 $238 forward $140 $-1 #
coedge $-1 $88 $237 $224 $239 forward $140 $-1 #
vertex $-1 $149 $240 #
vertex $-1 $239 $241 #
straight-curve $-1 0 -19.258908734269347 -2.1315555399383177 1 0 0 I I #
face $-1 $-1 $242 $20 $-1 $243 reversed single #
loop $-1 $-1 $96 $90 #
plane-surface $-1 0 0 5.1315555399383177 0 0 1 1 0 0 forward_v I I I I #
coedge $-1 $244 $245 $246 $247 reversed $91 $-1 #
coedge $-1 $248 $93 $95 $165 forward $57 $-1 #
coedge $-1 $93 $248 $244 $249 forward $57 $-1 #
coedge $-1 $246 $96 $93 $162 forward $156 $-1 #
edge $-1 $168 -7.2776787376672942 $250 2.2724892107043848 $161 $251 forward 7 unknown #
coedge $-1 $252 $253 $94 $164 forward $242 $-1 #
edge $-1 $254 -36.369005048684507 $167 -32.670152509069709 $163 $255 forward 7 unknown #
edge $-1 $168 -6.2928637252013111 $254 8.7502459990790685e-015 $95 $256 forward 7 unknown #
coedge $-1 $96 $246 $252 $257 forward $156 $-1 #
vertex $-1 $164 $258 #
vertex $-1 $97 $259 #
straight-curve $-1 -49.864100211575646 -9.7802735011487485 5.1315555399383186 1 0 0 I I #
coedge $-1 $170 $170 $-1 $260 reversed $100 $-1 #
edge $-1 $261 0 $261 6.2831853071796004 $101 $262 forward 7 unknown #
vertex $-1 $104 $263 #
ellipse-curve $-1 -43.294505142006528 -5.0051895269629085 3.2821292701309175 -0.5877852598018023 0 0.80901698891910034 0.80901698891910034 0 0.5877852598018023 1 I I #
face $-1 $-1 $186 $22 $-1 $264 forward single #
loop $-1 $-1 $265 $105 #
plane-surface $-1 45.840021973326827 0 0 -1 0 0 0 0 1 forward_v I I I I #
coedge $-1 $266 $267 $268 $269 reversed $106 $-1 #
coedge $-1 $270 $108 $110 $184 forward $66 $-1 #
coedge $-1 $108 $270 $266 $271 forward $66 $-1 #
coedge $-1 $268 $111 $108 $181 forward $186 $-1 #
edge $-1 $188 -9.6610895679544964 $272 -0.70829427516315668 $180 $273 forward 7 unknown #
coedge $-1 $274 $275 $109 $183 forward $175 $-1 #
edge $-1 $276 -64.372398752758357 $187 -59.440942850896491 $182 $277 forward 7 unknown #
edge $-1 $188 83.843883048707042 $276 91.680043946653626 $110 $278 forward 7 unknown #
coedge $-1 $111 $268 $274 $279 forward $186 $-1 #
loop $-1 $-1 $268 $174 #
vertex $-1 $183 $280 #
vertex $-1 $112 $281 #
straight-curve $-1 16.143684239286443 14.845781489513323 5.1315555399383186 -1 0 0 I I #
coedge $-1 $190 $190 $-1 $282 reversed $115 $-1 #
edge $-1 $283 0 $283 6.2831853071796004 $116 $284 forward 7 unknown #
vertex $-1 $119 $285 #
ellipse-curve $-1 42.795101600537961 10.369383843117653 2.6658275890073786 0.62932039886446345 0 0.77714595512881146 0.38857297756440573 0 -0.31466019943223172 1 I I #
face $-1 $-1 $135 $18 $-1 $286 reversed single #
loop $-1 $-1 $210 $120 #
plane-surface $-1 0 19.258908734269347 0 0 -1 0 0 0 -1 forward_v I I I I #
coedge $-1 $287 $208 $211 $288 forward $121 $-1 #
coedge $-1 $214 $123 $124 $202 reversed $75 $-1 #
coedge $-1 $208 $287 $123 $200 reversed $121 $-1 #
edge $-1 $215 -5.1315555399383177 $289 5.1315555399383177 $199 $290 forward 7 unknown #
coedge $-1 $125 $124 $287 $291 forward $49 $-1 #
edge $-1 $206 -45.840021973326827 $289 45.840021973326827 $198 $292 forward 7 unknown #
coedge $-1 $211 $210 $125 $204 reversed $195 $-1 #
edge $-1 $293 -45.840021973326827 $205 45.840021973326827 $203 $294 forward 7 unknown #
vertex $-1 $127 $295 #
vertex $-1 $217 $296 #
straight-curve $-1 45.840021973326827 0 -5.1315555399383177 0 -1 0 I I #
coedge $-1 $197 $199 $128 $209 reversed $121 $-1 #
edge $-1 $212 -19.258908734269347 $215 19.258908734269347 $208 $297 forward 7 unknown #
coedge $-1 $203 $129 $134 $218 forward $195 $-1 #
coedge $-1 $129 $203 $197 $288 reversed $195 $-1 #
vertex $-1 $130 $298 #
straight-curve $-1 0 19.258908734269347 5.1315555399383177 -1 0 0 I I #
coedge $-1 $131 $198 $133 $217 reversed $75 $-1 #
vertex $-1 $209 $299 #
straight-curve $-1 0 -19.258908734269347 5.1315555399383177 1 0 0 I I #
edge $-1 $136 -5.1315555399383177 $206 5.1315555399383177 $133 $300 forward 7 unknown #
edge $-1 $137 -5.1315555399383177 $205 5.1315555399383177 $134 $301 forward 7 unknown #
point $-1 45.840021973326827 -19.258908734269347 5.1315555399383177 #
point $-1 45.840021973326827 19.258908734269347 5.1315555399383177 #
face $-1 $-1 $235 $19 $-1 $302 reversed single #
loop $-1 $-1 $303 $139 #
plane-surface $-1 0 -24.856521710794318 -3.6315555399383177 0 1 0 0 0 1 forward_v I I I I #
coedge $-1 $304 $142 $151 $239 reversed $83 $-1 #
coedge $-1 $142 $304 $143 $227 reversed $83 $-1 #
coedge $-1 $144 $143 $305 $306 forward $53 $-1 #
edge $-1 $231 19.258908734269347 $307 24.856521710794318 $225 $308 forward 7 unknown #
coedge $-1 $309 $148 $144 $229 reversed $235 $-1 #
edge $-1 $310 -24.856521710794318 $230 -19.258908734269347 $228 $311 forward 7 unknown #
vertex $-1 $149 $312 #
vertex $-1 $227 $313 #
straight-curve $-1 0 -19.258908734269347 -5.1315555399383177 1 0 0 I I #
straight-curve $-1 45.840021973326827 -19.258908734269347 0 0 0 1 I I #
coedge $-1 $148 $309 $150 $238 reversed $235 $-1 #
loop $-1 $-1 $148 $221 #
straight-curve $-1 -45.840021973326827 -19.258908734269347 0 0 0 -1 I I #
coedge $-1 $151 $150 $314 $315 forward $140 $-1 #
edge $-1 $152 -2.7988064882624855 $316 2.7988064882624855 $234 $317 forward 7 unknown #
edge $-1 $318 -2.7988064882624855 $153 2.7988064882624855 $224 $319 forward 7 unknown #
point $-1 -45.840021973326827 -19.258908734269347 -2.1315555399383177 #
point $-1 45.840021973326827 -19.258908734269347 -2.1315555399383177 #
loop $-1 $-1 $163 $155 #
plane-surface $-1 -45.840021973326827 0 0 1 0 0 0 0 -1 forward_v I I I I #
coedge $-1 $245 $158 $160 $249 reversed $91 $-1 #
coedge $-1 $158 $244 $320 $321 reversed $91 $-1 #
coedge $-1 $166 $161 $158 $247 forward $156 $-1 #
edge $-1 $250 -9.1151119008894241 $322 -4.0240782382488192 $246 $323 forward 7 unknown #
coedge $-1 $160 $159 $253 $324 reversed $57 $-1 #
edge $-1 $325 -8.7502459990790685e-015 $250 6.2928637252013111 $244 $326 forward 7 unknown #
vertex $-1 $162 $327 #
straight-curve $-1 -40.748988310686222 -2.5025947634814543 5.1315555399383177 0 1 0 I I #
coedge $-1 $320 $163 $166 $257 reversed $242 $-1 #
coedge $-1 $163 $320 $248 $324 forward $242 $-1 #
vertex $-1 $164 $328 #
straight-curve $-1 -45.840021973326827 -9.7802735011487485 37.801708049008028 0 0 1 I I #
straight-curve $-1 -45.84002197332682 -9.7802735011487485 1.4327030003235279 -0.80901698891910034 0 -0.5877852598018023 I I #
edge $-1 $322 0.23010555277706946 $167 9.7802735011487485 $252 $329 forward 7 unknown #
point $-1 -45.840021973326827 -9.7802735011487485 5.1315555399383177 #
point $-1 -40.748988310686222 -9.7802735011487485 5.1315555399383168 #
edge $-1 $330 1 $330 0 $170 $-1 forward 7 unknown #
vertex $-1 $171 $331 #
ellipse-curve $-1 -41.909719879366698 -5.0051895269629085 1.3761359081024316 -0.5877852598018023 0 0.80901698891910034 0.80901698891910034 0 0.5877852598018023 1 I I #
point $-1 -42.485488153087438 -5.0051895269629085 3.869914529932732 #
plane-surface $-1 0 0 5.1315555399383177 0 0 1 1 0 0 forward_v I I I I #
coedge $-1 $275 $274 $267 $332 forward $175 $-1 #
coedge $-1 $267 $177 $179 $271 reversed $106 $-1 #
coedge $-1 $177 $266 $265 $332 reversed $106 $-1 #
coedge $-1 $185 $180 $177 $269 forward $186 $-1 #
edge $-1 $272 23.606496988462631 $333 29.696337734040384 $268 $334 forward 7 unknown #
coedge $-1 $179 $178 $275 $335 reversed $66 $-1 #
edge $-1 $336 -91.680043946653626 $272 -83.843883048707042 $266 $337 forward 7 unknown #
vertex $-1 $181 $338 #
straight-curve $-1 39.750181227749074 5.1846919215588265 5.1315555399383186 0 -1 0 I I #
coedge $-1 $265 $182 $185 $279 reversed $175 $-1 #
coedge $-1 $182 $265 $270 $335 forward $175 $-1 #
vertex $-1 $183 $339 #
straight-curve $-1 45.840021973326827 14.845781489513323 64.572498390834809 0 0 1 I I #
straight-curve $-1 -25.408753345846726 14.845781489513323 57.896221462496058 0.77714595512881146 0 -0.62932039886446345 I I #
edge $-1 $333 5.8929861967219832 $187 14.845781489513323 $274 $340 forward 7 unknown #
point $-1 45.840021973326827 14.845781489513323 5.1315555399383177 #
point $-1 39.750181227749074 14.845781489513323 5.1315555399383186 #
edge $-1 $341 1 $341 0 $190 $-1 forward 7 unknown #
vertex $-1 $191 $342 #
ellipse-curve $-1 41.570772179882646 10.369383843117653 1.1539066998635972 0.62932039886446345 0 0.77714595512881146 0.38857297756440573 0 -0.31466019943223172 1 I I #
point $-1 43.183674578102362 10.369383843117653 2.351167389575135 #
plane-surface $-1 45.840021973326827 0 0 -1 0 0 0 0 1 forward_v I I I I #
coedge $-1 $199 $197 $201 $291 reversed $121 $-1 #
edge $-1 $212 -5.1315555399383177 $293 5.1315555399383177 $211 $343 forward 7 unknown #
vertex $-1 $291 $344 #
straight-curve $-1 -45.840021973326827 -19.258908734269347 0 0 0 -1 I I #
edge $-1 $289 -19.258908734269347 $293 19.258908734269347 $287 $345 forward 7 unknown #
straight-curve $-1 0 -19.258908734269347 -5.1315555399383177 -1 0 0 I I #
vertex $-1 $204 $346 #
straight-curve $-1 0 19.258908734269347 -5.1315555399383177 1 0 0 I I #
point $-1 45.840021973326827 19.258908734269347 -5.1315555399383177 #
point $-1 45.840021973326827 -19.258908734269347 -5.1315555399383177 #
straight-curve $-1 -45.840021973326827 0 5.1315555399383177 0 -1 0 I I #
point $-1 -45.840021973326827 19.258908734269347 5.1315555399383177 #
point $-1 -45.840021973326827 -19.258908734269347 5.1315555399383177 #
straight-curve $-1 45.840021973326827 -19.258908734269347 0 0 0 -1 I I #
straight-curve $-1 45.840021973326827 19.258908734269347 0 0 0 -1 I I #
plane-surface $-1 -45.840021973326827 0 0 1 0 0 0 0 -1 forward_v I I I I #
coedge $-1 $305 $314 $309 $347 forward $222 $-1 #
coedge $-1 $225 $224 $348 $349 forward $83 $-1 #
coedge $-1 $348 $303 $226 $306 reversed $222 $-1 #
edge $-1 $307 -45.840021973326827 $310 45.840021973326827 $305 $350 forward 7 unknown #
vertex $-1 $349 $351 #
straight-curve $-1 45.840021973326827 0 -5.1315555399383177 0 -1 0 I I #
coedge $-1 $234 $228 $303 $347 reversed $235 $-1 #
vertex $-1 $229 $352 #
straight-curve $-1 -45.840021973326827 0 -5.1315555399383177 0 1 0 I I #
point $-1 -45.840021973326827 -19.258908734269347 -5.1315555399383177 #
point $-1 45.840021973326827 -19.258908734269347 -5.1315555399383177 #
coedge $-1 $303 $348 $237 $315 reversed $222 $-1 #
edge $-1 $316 -45.840021973326827 $318 45.840021973326827 $314 $353 forward 7 unknown #
vertex $-1 $238 $354 #
straight-curve $-1 -45.840021973326827 -22.057715222531833 -2.1315555399383177 0 -1 0 I I #
vertex $-1 $239 $355 #
straight-curve $-1 45.840021973326827 -22.057715222531833 -2.1315555399383177 0 1 0 I I #
coedge $-1 $253 $252 $245 $321 forward $242 $-1 #
edge $-1 $322 32.670152509069709 $325 36.369005048684507 $320 $356 forward 7 unknown #
vertex $-1 $257 $357 #
straight-curve $-1 -49.864100211575646 -0.23010555277706946 5.1315555399383186 -1 0 0 I I #
edge $-1 $325 -2.2724892107043848 $254 7.2776787376672942 $253 $358 forward 7 unknown #
vertex $-1 $324 $359 #
straight-curve $-1 -45.84002197332682 -0.23010555277706946 1.4327030003235279 0.80901698891910034 0 0.5877852598018023 I I #
point $-1 -40.748988310686222 -0.23010555277706946 5.1315555399383168 #
point $-1 -45.840021973326827 -9.7802735011487485 1.4327030003235228 #
straight-curve $-1 -45.840021973326827 0 5.1315555399383177 0 -1 0 I I #
vertex $-1 $260 $360 #
point $-1 -41.100702890447593 -5.0051895269629085 1.9639211679042341 #
edge $-1 $333 59.440942850896491 $336 64.372398752758357 $265 $361 forward 7 unknown #
vertex $-1 $279 $362 #
straight-curve $-1 16.143684239286443 5.8929861967219832 5.1315555399383186 1 0 0 I I #
edge $-1 $336 0.70829427516315668 $276 9.6610895679544964 $275 $363 forward 7 unknown #
vertex $-1 $335 $364 #
straight-curve $-1 -25.408753345846726 5.8929861967219832 57.896221462496058 -0.77714595512881146 0 0.62932039886446345 I I #
point $-1 39.750181227749074 5.8929861967219832 5.1315555399383186 #
point $-1 45.84002197332682 14.845781489513323 0.20009963807645903 #
straight-curve $-1 45.840021973326827 0 5.1315555399383177 0 1 0 I I #
vertex $-1 $282 $365 #
point $-1 41.959345157447054 10.369383843117653 0.83924650043136539 #
straight-curve $-1 -45.840021973326827 19.258908734269347 0 0 0 -1 I I #
point $-1 -45.840021973326827 -19.258908734269347 -5.1315555399383177 #
straight-curve $-1 -45.840021973326827 0 -5.1315555399383177 0 1 0 I I #
point $-1 -45.840021973326827 19.258908734269347 -5.1315555399383177 #
edge $-1 $316 -1.5 $310 1.5 $309 $366 forward 7 unknown #
coedge $-1 $314 $305 $304 $349 reversed $222 $-1 #
edge $-1 $318 -1.5 $307 1.5 $304 $367 forward 7 unknown #
straight-curve $-1 0 -24.856521710794318 -5.1315555399383177 -1 0 0 I I #
point $-1 45.840021973326827 -24.856521710794318 -5.1315555399383177 #
point $-1 -45.840021973326827 -24.856521710794318 -5.1315555399383177 #
straight-curve $-1 0 -24.856521710794318 -2.1315555399383177 1 0 0 I I #
point $-1 -45.840021973326827 -24.856521710794318 -2.1315555399383177 #
point $-1 45.840021973326827 -24.856521710794318 -2.1315555399383177 #
straight-curve $-1 -45.840021973326827 -0.23010555277706946 37.801708049008028 0 0 -1 I I #
point $-1 -45.840021973326827 -0.23010555277706946 5.1315555399383177 #
straight-curve $-1 -45.840021973326827 -2.5025947634814543 1.4327030003235257 0 -1 0 I I #
point $-1 -45.840021973326827 -0.23010555277706946 1.4327030003235228 #
point $-1 -41.321934619564892 -5.0051895269629085 0.56711891918333135 #
straight-curve $-1 45.840021973326827 5.8929861967219832 64.572498390834809 0 0 -1 I I #
point $-1 45.840021973326827 5.8929861967219832 5.1315555399383177 #
straight-curve $-1 45.840021973326827 5.1846919215588265 0.20009963807645192 0 1 0 I I #
point $-1 45.84002197332682 5.8929861967219832 0.20009963807645903 #
point $-1 41.25611198045042 10.369383843117653 0.76533372229919139 #
straight-curve $-1 -45.840021973326827 -24.856521710794318 -3.6315555399383177 0 0 -1 I I #
straight-curve $-1 45.840021973326827 -24.856521710794318 -3.6315555399383177 0 0 -1 I I #
End-of-ACIS-data 