500 0 8 0           
7 Unknown 11 ACIS 5.0 NT 24 Fri Mar 26 16:09:01 1999 
-1 9.9999999999999995e-007 1e-010 
body $-1 $8 $-1 $9 #
body $-1 $10 $-1 $11 #
body $-1 $12 $-1 $13 #
body $-1 $14 $-1 $15 #
body $-1 $16 $-1 $17 #
body $-1 $18 $-1 $19 #
body $-1 $20 $-1 $21 #
body $-1 $22 $-1 $23 #
lump $-1 $-1 $24 $0 #
transform $-1 1 0 0 0 1 0 0 0 1 41.991027558214057 25.650703656360619 8.5445721451320473 1 rotate no_reflect no_shear #
lump $-1 $-1 $25 $1 #
transform $-1 1 0 0 0 1 0 0 0 1 41.991027558214057 25.650703656360619 8.5445721451320473 1 rotate no_reflect no_shear #
lump $-1 $-1 $26 $2 #
transform $-1 1 0 0 0 1 0 0 0 1 41.991027558214057 25.650703656360619 8.5445721451320473 1 rotate no_reflect no_shear #
lump $-1 $-1 $27 $3 #
transform $-1 1 0 0 0 1 0 0 0 1 41.991027558214057 25.650703656360619 8.5445721451320473 1 rotate no_reflect no_shear #
lump $-1 $-1 $28 $4 #
transform $-1 1 0 0 0 1 0 0 0 1 41.991027558214057 25.650703656360619 8.5445721451320473 1 rotate no_reflect no_shear #
lump $-1 $-1 $29 $5 #
transform $-1 1 0 0 0 1 0 0 0 1 41.991027558214057 25.650703656360619 8.5445721451320473 1 rotate no_reflect no_shear #
lump $-1 $-1 $30 $6 #
transform $-1 1 0 0 0 1 0 0 0 1 41.991027558214057 25.650703656360619 8.5445721451320473 1 rotate no_reflect no_shear #
lump $-1 $-1 $31 $7 #
transform $-1 1 0 0 0 1 0 0 0 1 41.991027558214057 25.650703656360619 8.5445721451320473 1 rotate no_reflect no_shear #
shell $-1 $-1 $-1 $32 $-1 $8 #
shell $-1 $-1 $-1 $33 $-1 $10 #
shell $-1 $-1 $-1 $34 $-1 $12 #
shell $-1 $-1 $-1 $35 $-1 $14 #
shell $-1 $-1 $-1 $36 $-1 $16 #
shell $-1 $-1 $-1 $37 $-1 $18 #
shell $-1 $-1 $-1 $38 $-1 $20 #
shell $-1 $-1 $-1 $39 $-1 $22 #
face $-1 $40 $41 $24 $-1 $42 forward single #
face $-1 $43 $44 $25 $-1 $45 forward single #
face $-1 $46 $47 $26 $-1 $48 reversed single #
face $-1 $49 $50 $27 $-1 $51 forward single #
face $-1 $52 $53 $28 $-1 $54 forward single #
face $-1 $55 $56 $29 $-1 $57 reversed single #
face $-1 $58 $59 $30 $-1 $60 forward single #
face $-1 $61 $62 $31 $-1 $63 forward single #
face $-1 $64 $65 $24 $-1 $66 reversed single #
loop $-1 $-1 $67 $32 #
plane-surface $-1 0 0 8.5445721451320473 0 0 1 1 0 0 forward_v I I I I #
face $-1 $68 $69 $25 $-1 $70 reversed single #
loop $-1 $-1 $71 $33 #
plane-surface $-1 -36.732223732438605 0 3.4712418591484031 0 0 1 1 0 0 forward_v I I I I #
face $-1 $72 $73 $26 $-1 $74 reversed single #
loop $-1 $-1 $75 $34 #
plane-surface $-1 13.502259241312558 -80.747889858697036 63.687657992779165 1 0 0 0 0.6560590369687036 -0.75470957328743171 forward_v I I I I #
face $-1 $76 $77 $27 $-1 $78 forward single #
loop $-1 $79 $80 $35 #
cone-surface $-1 16.915198475891941 -20.429917293305024 3.8707702396100707 0 0.6560590369687036 -0.75470957328743171 1 0 0 1 I I 0 1 1 forward I I I I #
face $-1 $81 $82 $28 $-1 $83 forward single #
loop $-1 $84 $85 $36 #
cone-surface $-1 22.034607327761023 -20.429917293305024 3.8707702396100707 0 0.6560590369687036 -0.75470957328743171 1 0 0 1 I I 0 1 1 forward I I I I #
face $-1 $86 $87 $29 $-1 $88 reversed single #
loop $-1 $-1 $89 $37 #
plane-surface $-1 33.034360143515187 38.633642894191581 99.331955241562142 1 0 0 0 -0.62932039886446345 -0.77714595512881146 forward_v I I I I #
face $-1 $90 $91 $30 $-1 $92 forward single #
loop $-1 $93 $94 $38 #
cone-surface $-1 35.593407976286301 20.97994030109469 4.5520993262547655 0 -0.62932039886446345 -0.77714595512881146 1 0 0 1 I I 0 1 1 forward I I I I #
face $-1 $95 $96 $31 $-1 $97 forward single #
loop $-1 $98 $99 $39 #
cone-surface $-1 39.431979725442957 20.97994030109469 4.5520993262547655 0 -0.62932039886446345 -0.77714595512881146 1 0 0 1 I I 0 1 1 forward I I I I #
face $-1 $100 $101 $24 $-1 $102 reversed single #
loop $-1 $-1 $103 $40 #
plane-surface $-1 0 0 -8.5445721451320473 0 0 1 1 0 0 forward_v I I I I #
coedge $-1 $104 $105 $106 $107 forward $41 $-1 #
face $-1 $108 $109 $25 $-1 $110 reversed single #
loop $-1 $-1 $111 $43 #
plane-surface $-1 -36.732223732438605 0 0.47124185914840311 0 0 1 1 0 0 forward_v I I I I #
coedge $-1 $112 $113 $114 $115 forward $44 $-1 #
face $-1 $116 $117 $26 $-1 $118 reversed single #
loop $-1 $-1 $119 $46 #
plane-surface $-1 19.474902901826475 -25.650703656360619 0.30559701205812928 0 -0.6560590369687036 0.75470957328743171 1 0 0 forward_v I I I I #
coedge $-1 $120 $121 $122 $123 reversed $47 $-1 #
face $-1 $-1 $124 $27 $-1 $125 forward single #
loop $-1 $126 $127 $49 #
cone-surface $-1 16.915198475891941 -19.620029661071861 2.9391011139813408 0 0.6560590369687036 -0.75470957328743171 0.5 0 0 1 I I -0.70710678118654746 0.70710678118654746 0.5 forward I I I I #
loop $-1 $-1 $128 $35 #
coedge $-1 $80 $80 $129 $130 reversed $50 $-1 #
face $-1 $-1 $131 $28 $-1 $132 forward single #
loop $-1 $133 $134 $52 #
cone-surface $-1 22.034607327761023 -19.620029661071861 2.9391011139813408 0 0.6560590369687036 -0.75470957328743171 0.5 0 0 1 I I -0.70710678118654746 0.70710678118654746 0.5 forward I I I I #
loop $-1 $-1 $135 $36 #
coedge $-1 $85 $85 $136 $137 reversed $53 $-1 #
face $-1 $138 $139 $29 $-1 $140 forward single #
loop $-1 $-1 $141 $55 #
plane-surface $-1 37.512693850864622 -14.217977529136313 34.065640804425129 0 0.62932039886446345 0.77714595512881146 1 0 0 forward_v I I I I #
coedge $-1 $142 $143 $144 $145 reversed $56 $-1 #
face $-1 $-1 $146 $30 $-1 $147 forward single #
loop $-1 $148 $149 $58 #
cone-surface $-1 35.593407976286301 20.170910103586017 3.5530302563415574 0 -0.62932039886446345 -0.77714595512881146 0.5 0 0 1 I I -0.70710678118654746 0.70710678118654746 0.5 forward I I I I #
loop $-1 $-1 $150 $38 #
coedge $-1 $94 $94 $151 $152 reversed $59 $-1 #
face $-1 $-1 $153 $31 $-1 $154 forward single #
loop $-1 $155 $156 $61 #
cone-surface $-1 39.431979725442957 20.170910103586017 3.5530302563415574 0 -0.62932039886446345 -0.77714595512881146 0.5 0 0 1 I I -0.70710678118654746 0.70710678118654746 0.5 forward I I I I #
loop $-1 $-1 $157 $39 #
coedge $-1 $99 $99 $158 $159 reversed $62 $-1 #
face $-1 $160 $161 $24 $-1 $162 reversed single #
loop $-1 $-1 $163 $64 #
plane-surface $-1 0 -25.650703656360619 0 0 1 0 0 0 1 forward_v I I I I #
coedge $-1 $164 $165 $166 $167 forward $65 $-1 #
coedge $-1 $168 $67 $169 $170 forward $41 $-1 #
coedge $-1 $67 $168 $171 $172 forward $41 $-1 #
coedge $-1 $173 $174 $67 $107 reversed $175 $-1 #
edge $-1 $176 -25.650703656360619 $177 25.650703656360619 $106 $178 forward 7 unknown #
face $-1 $179 $180 $25 $-1 $181 reversed single #
loop $-1 $-1 $182 $68 #
plane-surface $-1 -31.473419906663153 0 1.9712418591484031 -1 0 0 0 0 1 forward_v I I I I #
coedge $-1 $183 $184 $185 $186 forward $69 $-1 #
coedge $-1 $187 $71 $188 $189 reversed $44 $-1 #
coedge $-1 $71 $187 $190 $191 reversed $44 $-1 #
coedge $-1 $182 $192 $71 $115 reversed $109 $-1 #
edge $-1 $193 -25.650703656360619 $194 25.650703656360619 $114 $195 forward 7 unknown #
face $-1 $196 $197 $26 $-1 $198 forward single #
loop $-1 $-1 $199 $72 #
plane-surface $-1 25.447546562340392 -80.747889858697036 63.687657992779165 -1 0 0 0 -0.6560590369687036 0.75470957328743171 forward_v I I I I #
coedge $-1 $200 $201 $202 $203 reversed $73 $-1 #
coedge $-1 $121 $75 $204 $205 reversed $47 $-1 #
coedge $-1 $75 $120 $200 $206 reversed $47 $-1 #
coedge $-1 $202 $207 $75 $123 forward $208 $-1 #
edge $-1 $209 23.299256851257535 $210 31.538231984331453 $122 $211 forward 7 unknown #
loop $-1 $-1 $129 $76 #
plane-surface $-1 19.474902901826475 -25.650703656360619 0.30559701205812928 0 -0.6560590369687036 0.75470957328743171 1 0 0 forward_v I I I I #
loop $-1 $-1 $212 $49 #
coedge $-1 $127 $127 $128 $213 reversed $77 $-1 #
coedge $-1 $128 $128 $127 $213 forward $79 $-1 #
coedge $-1 $129 $129 $80 $130 forward $124 $-1 #
edge $-1 $214 -2.3222036888429843e-016 $214 6.2831853071796004 $129 $215 forward 7 unknown #
loop $-1 $-1 $136 $81 #
plane-surface $-1 19.474902901826475 -25.650703656360619 0.30559701205812928 0 -0.6560590369687036 0.75470957328743171 1 0 0 forward_v I I I I #
loop $-1 $-1 $216 $52 #
coedge $-1 $134 $134 $135 $217 reversed $82 $-1 #
coedge $-1 $135 $135 $134 $217 forward $84 $-1 #
coedge $-1 $136 $136 $85 $137 forward $131 $-1 #
edge $-1 $218 -2.3222036888429843e-016 $218 6.2831853071796004 $136 $219 forward 7 unknown #
face $-1 $220 $221 $29 $-1 $222 reversed single #
loop $-1 $-1 $144 $86 #
plane-surface $-1 0 0 8.5445721451320473 0 0 1 1 0 0 forward_v I I I I #
coedge $-1 $223 $224 $225 $226 reversed $87 $-1 #
coedge $-1 $143 $89 $227 $228 reversed $56 $-1 #
coedge $-1 $89 $142 $223 $229 reversed $56 $-1 #
coedge $-1 $225 $230 $89 $145 forward $139 $-1 #
edge $-1 $231 -6.3338822092648286 $232 2.0189045051141328 $144 $233 forward 7 unknown #
loop $-1 $-1 $151 $90 #
plane-surface $-1 37.512693850864622 -14.217977529136313 34.065640804425129 0 0.62932039886446345 0.77714595512881146 1 0 0 forward_v I I I I #
loop $-1 $-1 $234 $58 #
coedge $-1 $149 $149 $150 $235 reversed $91 $-1 #
coedge $-1 $150 $150 $149 $235 forward $93 $-1 #
coedge $-1 $151 $151 $94 $152 forward $146 $-1 #
edge $-1 $236 -4.9141495428479309e-016 $236 6.2831853071795996 $151 $237 forward 7 unknown #
loop $-1 $-1 $158 $95 #
plane-surface $-1 37.512693850864622 -14.217977529136313 34.065640804425129 0 0.62932039886446345 0.77714595512881146 1 0 0 forward_v I I I I #
loop $-1 $-1 $238 $61 #
coedge $-1 $156 $156 $157 $239 reversed $96 $-1 #
coedge $-1 $157 $157 $156 $239 forward $98 $-1 #
coedge $-1 $158 $158 $99 $159 forward $153 $-1 #
edge $-1 $240 -4.9141495428479309e-016 $240 6.2831853071795996 $158 $241 forward 7 unknown #
face $-1 $242 $243 $24 $-1 $244 reversed single #
loop $-1 $-1 $245 $100 #
plane-surface $-1 -41.991027558214057 0 0 1 0 0 0 0 -1 forward_v I I I I #
coedge $-1 $246 $171 $247 $248 forward $101 $-1 #
coedge $-1 $249 $103 $246 $250 forward $65 $-1 #
coedge $-1 $103 $249 $251 $252 forward $65 $-1 #
coedge $-1 $174 $173 $103 $167 reversed $175 $-1 #
edge $-1 $253 -25.650703656360619 $254 25.650703656360619 $166 $255 forward 7 unknown #
coedge $-1 $105 $104 $256 $257 forward $41 $-1 #
coedge $-1 $258 $259 $104 $170 reversed $243 $-1 #
edge $-1 $177 -41.991027558214057 $260 41.991027558214057 $169 $261 forward 7 unknown #
coedge $-1 $163 $262 $105 $172 reversed $101 $-1 #
edge $-1 $263 -41.991027558214057 $176 41.991027558214057 $171 $264 forward 7 unknown #
coedge $-1 $166 $106 $262 $265 forward $175 $-1 #
coedge $-1 $106 $166 $258 $266 reversed $175 $-1 #
loop $-1 $-1 $173 $242 #
vertex $-1 $107 $267 #
vertex $-1 $107 $268 #
straight-curve $-1 41.991027558214057 0 8.5445721451320473 0 1 0 I I #
face $-1 $269 $270 $25 $-1 $271 reversed single #
loop $-1 $-1 $272 $108 #
plane-surface $-1 0 -25.650703656360619 0 0 1 0 0 0 1 forward_v I I I I #
coedge $-1 $185 $114 $273 $274 reversed $109 $-1 #
coedge $-1 $275 $111 $272 $276 reversed $69 $-1 #
coedge $-1 $111 $275 $277 $278 reversed $69 $-1 #
coedge $-1 $192 $182 $111 $186 reversed $109 $-1 #
edge $-1 $279 -25.650703656360619 $280 25.650703656360619 $185 $281 forward 7 unknown #
coedge $-1 $113 $112 $282 $283 reversed $44 $-1 #
coedge $-1 $284 $285 $112 $189 forward $286 $-1 #
edge $-1 $287 -23.624915691994754 $194 -13.107308040443851 $188 $288 forward 7 unknown #
coedge $-1 $289 $273 $113 $191 forward $180 $-1 #
edge $-1 $193 13.107308040443851 $290 23.624915691994754 $190 $291 forward 7 unknown #
coedge $-1 $114 $185 $284 $292 reversed $109 $-1 #
vertex $-1 $191 $293 #
vertex $-1 $189 $294 #
straight-curve $-1 -31.473419906663153 0 3.4712418591484031 0 1 0 I I #
face $-1 $-1 $208 $26 $-1 $295 reversed single #
loop $-1 $-1 $296 $116 #
plane-surface $-1 0 0 8.5445721451320473 0 0 1 1 0 0 forward_v I I I I #
coedge $-1 $297 $298 $299 $300 reversed $117 $-1 #
coedge $-1 $301 $119 $121 $206 forward $73 $-1 #
coedge $-1 $119 $301 $297 $302 forward $73 $-1 #
coedge $-1 $299 $122 $119 $203 forward $208 $-1 #
edge $-1 $210 3.7648077903993205 $303 15.710095111427155 $202 $304 forward 7 unknown #
coedge $-1 $305 $306 $120 $205 forward $197 $-1 #
edge $-1 $307 -24.201097771601454 $209 -14.723241272987899 $204 $308 forward 7 unknown #
edge $-1 $210 0 $307 12.558283125161719 $121 $309 forward 7 unknown #
coedge $-1 $122 $299 $305 $310 reversed $208 $-1 #
loop $-1 $-1 $299 $196 #
vertex $-1 $310 $311 #
vertex $-1 $123 $312 #
straight-curve $-1 13.502259241312558 -25.650703656360619 31.843828996389583 0 0 -1 I I #
coedge $-1 $212 $212 $-1 $313 reversed $126 $-1 #
edge $-1 $314 0 $314 6.2831853071796004 $127 $315 forward 7 unknown #
vertex $-1 $130 $316 #
ellipse-curve $-1 16.915198475891941 -20.911775407053838 4.4250845785950901 0 -0.6560590369687036 0.75470957328743171 1 0 0 1 I I #
coedge $-1 $216 $216 $-1 $317 reversed $133 $-1 #
edge $-1 $318 0 $318 6.2831853071796004 $134 $319 forward 7 unknown #
vertex $-1 $137 $320 #
ellipse-curve $-1 22.034607327761023 -20.911775407053838 4.4250845785950901 0 -0.6560590369687036 0.75470957328743171 1 0 0 1 I I #
face $-1 $-1 $321 $29 $-1 $322 reversed single #
loop $-1 $-1 $323 $138 #
plane-surface $-1 41.991027558214057 0 0 -1 0 0 0 0 1 forward_v I I I I #
coedge $-1 $324 $141 $143 $229 forward $87 $-1 #
coedge $-1 $141 $324 $323 $325 reversed $87 $-1 #
coedge $-1 $326 $144 $141 $226 forward $139 $-1 #
edge $-1 $232 14.278013218082876 $327 23.234680632781746 $225 $328 forward 7 unknown #
coedge $-1 $329 $330 $142 $228 forward $321 $-1 #
edge $-1 $331 -47.885358928705969 $231 -41.121405475649027 $227 $332 forward 7 unknown #
edge $-1 $232 40.553379018609483 $331 51.301407312721224 $143 $333 forward 7 unknown #
coedge $-1 $144 $326 $329 $334 forward $139 $-1 #
vertex $-1 $228 $335 #
vertex $-1 $145 $336 #
straight-curve $-1 33.034360143515187 19.316821447095791 8.5445721451320509 0 -1 0 I I #
coedge $-1 $234 $234 $-1 $337 reversed $148 $-1 #
edge $-1 $338 0 $338 6.2831853071796004 $149 $339 forward 7 unknown #
vertex $-1 $152 $340 #
ellipse-curve $-1 35.593407976286301 21.474310299171137 5.1625954186035745 0 0.62932039886446345 0.77714595512881146 1 0 0 1 I I #
coedge $-1 $238 $238 $-1 $341 reversed $155 $-1 #
edge $-1 $342 0 $342 6.2831853071796004 $156 $343 forward 7 unknown #
vertex $-1 $159 $344 #
ellipse-curve $-1 39.431979725442957 21.474310299171137 5.1625954186035745 0 0.62932039886446345 0.77714595512881146 1 0 0 1 I I #
face $-1 $-1 $175 $24 $-1 $345 reversed single #
loop $-1 $-1 $258 $160 #
plane-surface $-1 0 25.650703656360619 0 0 -1 0 0 0 -1 forward_v I I I I #
coedge $-1 $346 $256 $259 $347 forward $161 $-1 #
coedge $-1 $262 $163 $164 $250 reversed $101 $-1 #
coedge $-1 $256 $346 $163 $248 reversed $161 $-1 #
edge $-1 $263 -8.5445721451320473 $348 8.5445721451320473 $247 $349 forward 7 unknown #
coedge $-1 $165 $164 $346 $350 forward $65 $-1 #
edge $-1 $254 -41.991027558214057 $348 41.991027558214057 $246 $351 forward 7 unknown #
coedge $-1 $259 $258 $165 $252 reversed $243 $-1 #
edge $-1 $352 -41.991027558214057 $253 41.991027558214057 $251 $353 forward 7 unknown #
vertex $-1 $167 $354 #
vertex $-1 $265 $355 #
straight-curve $-1 41.991027558214057 0 -8.5445721451320473 0 -1 0 I I #
coedge $-1 $245 $247 $168 $257 reversed $161 $-1 #
edge $-1 $260 -25.650703656360619 $263 25.650703656360619 $256 $356 forward 7 unknown #
coedge $-1 $251 $169 $174 $266 forward $243 $-1 #
coedge $-1 $169 $251 $245 $347 reversed $243 $-1 #
vertex $-1 $170 $357 #
straight-curve $-1 0 25.650703656360619 8.5445721451320473 -1 0 0 I I #
coedge $-1 $171 $246 $173 $265 reversed $101 $-1 #
vertex $-1 $257 $358 #
straight-curve $-1 0 -25.650703656360619 8.5445721451320473 1 0 0 I I #
edge $-1 $176 -8.5445721451320473 $254 8.5445721451320473 $173 $359 forward 7 unknown #
edge $-1 $177 -8.5445721451320473 $253 8.5445721451320473 $174 $360 forward 7 unknown #
point $-1 41.991027558214057 -25.650703656360619 8.5445721451320473 #
point $-1 41.991027558214057 25.650703656360619 8.5445721451320473 #
face $-1 $-1 $286 $25 $-1 $361 reversed single #
loop $-1 $-1 $362 $179 #
plane-surface $-1 -41.991027558214057 0 0 1 0 0 0 0 -1 forward_v I I I I #
coedge $-1 $273 $289 $183 $276 forward $180 $-1 #
coedge $-1 $190 $272 $182 $274 forward $180 $-1 #
edge $-1 $280 -0.51437907042579845 $193 2.4856209295742016 $273 $363 forward 7 unknown #
coedge $-1 $184 $183 $362 $364 reversed $69 $-1 #
edge $-1 $365 -23.624915691994754 $280 -13.107308040443851 $272 $366 forward 7 unknown #
coedge $-1 $285 $284 $184 $278 forward $286 $-1 #
edge $-1 $279 13.107308040443851 $367 23.624915691994754 $277 $368 forward 7 unknown #
vertex $-1 $278 $369 #
vertex $-1 $276 $370 #
straight-curve $-1 -31.473419906663153 0 0.47124185914840311 0 -1 0 I I #
coedge $-1 $371 $372 $187 $283 forward $270 $-1 #
edge $-1 $290 -25.650703656360619 $287 25.650703656360619 $282 $373 forward 7 unknown #
coedge $-1 $277 $188 $192 $292 forward $286 $-1 #
coedge $-1 $188 $277 $371 $374 reversed $286 $-1 #
loop $-1 $-1 $277 $269 #
vertex $-1 $374 $375 #
straight-curve $-1 -18.366111866219303 25.650703656360619 3.4712418591484031 1 0 0 I I #
coedge $-1 $272 $190 $372 $376 forward $180 $-1 #
vertex $-1 $376 $377 #
straight-curve $-1 -18.366111866219303 -25.650703656360619 3.4712418591484031 -1 0 0 I I #
edge $-1 $194 -2.4856209295742016 $279 0.51437907042579845 $284 $378 forward 7 unknown #
point $-1 -31.473419906663153 -25.650703656360619 3.4712418591484031 #
point $-1 -31.473419906663153 25.650703656360619 3.4712418591484031 #
plane-surface $-1 0 -25.650703656360619 0 0 1 0 0 0 1 forward_v I I I I #
coedge $-1 $306 $305 $298 $379 forward $197 $-1 #
coedge $-1 $298 $199 $201 $302 reversed $117 $-1 #
coedge $-1 $199 $297 $296 $379 reversed $117 $-1 #
coedge $-1 $207 $202 $199 $300 forward $208 $-1 #
edge $-1 $303 -31.538231984331453 $380 -23.299256851257535 $299 $381 forward 7 unknown #
coedge $-1 $201 $200 $306 $382 reversed $73 $-1 #
edge $-1 $383 -12.558283125161719 $303 0 $297 $384 forward 7 unknown #
vertex $-1 $203 $385 #
straight-curve $-1 9.7374514509132375 -25.650703656360619 0.30559701205812961 1 0 0 I I #
coedge $-1 $296 $204 $207 $310 forward $197 $-1 #
coedge $-1 $204 $296 $301 $382 forward $197 $-1 #
vertex $-1 $205 $386 #
straight-curve $-1 13.502259241312558 -40.373944929348518 8.5445721451320473 0 -1 0 I I #
straight-curve $-1 13.502259241312558 -25.650703656360619 0.30559701205812928 0 0.75470957328743171 0.6560590369687036 I I #
edge $-1 $209 13.502259241312558 $380 25.447546562340392 $207 $387 forward 7 unknown #
point $-1 13.502259241312558 -25.650703656360619 8.5445721451320473 #
point $-1 13.502259241312558 -25.650703656360619 0.30559701205812928 #
edge $-1 $388 1 $388 0 $212 $-1 forward 7 unknown #
vertex $-1 $213 $389 #
ellipse-curve $-1 16.915198475891941 -19.948059179556214 3.3164559006250567 0 -0.6560590369687036 0.75470957328743171 1 0 0 1 I I #
point $-1 17.915198475891941 -20.911775407053835 4.4250845785950856 #
edge $-1 $390 1 $390 0 $216 $-1 forward 7 unknown #
vertex $-1 $217 $391 #
ellipse-curve $-1 22.034607327761023 -19.948059179556214 3.3164559006250567 0 -0.6560590369687036 0.75470957328743171 1 0 0 1 I I #
point $-1 23.034607327761023 -20.911775407053835 4.4250845785950856 #
loop $-1 $-1 $227 $220 #
plane-surface $-1 0 25.650703656360619 0 0 -1 0 0 0 -1 forward_v I I I I #
coedge $-1 $392 $393 $224 $325 forward $221 $-1 #
coedge $-1 $224 $223 $330 $394 reversed $87 $-1 #
edge $-1 $327 24.309555825861992 $395 35.05758411997374 $323 $396 forward 7 unknown #
coedge $-1 $230 $225 $393 $397 forward $139 $-1 #
vertex $-1 $397 $398 #
straight-curve $-1 18.756346925432311 17.297916941981661 8.5445721451320438 1 0 0 I I #
coedge $-1 $399 $227 $230 $334 reversed $321 $-1 #
coedge $-1 $227 $399 $324 $394 forward $321 $-1 #
vertex $-1 $228 $400 #
straight-curve $-1 33.034360143515187 25.650703656360619 49.665977620781071 0 0 1 I I #
straight-curve $-1 33.034360143515187 -14.217977529136313 34.065640804425129 0 0.77714595512881146 -0.62932039886446345 I I #
edge $-1 $401 -41.991027558214057 $231 -33.034360143515187 $329 $402 forward 7 unknown #
point $-1 33.034360143515187 25.650703656360619 8.5445721451320473 #
point $-1 33.034360143515187 17.297916941981658 8.5445721451320473 #
edge $-1 $403 1 $403 0 $234 $-1 forward 7 unknown #
vertex $-1 $235 $404 #
ellipse-curve $-1 35.593407976286301 20.48557030301825 3.9416032339059632 0 0.62932039886446345 0.77714595512881146 1 0 0 1 I I #
point $-1 36.593407976286301 21.47431029917113 5.1625954186035665 #
edge $-1 $405 1 $405 0 $238 $-1 forward 7 unknown #
vertex $-1 $239 $406 #
ellipse-curve $-1 39.431979725442957 20.48557030301825 3.9416032339059632 0 0.62932039886446345 0.77714595512881146 1 0 0 1 I I #
point $-1 40.431979725442957 21.47431029917113 5.1625954186035665 #
plane-surface $-1 41.991027558214057 0 0 -1 0 0 0 0 1 forward_v I I I I #
coedge $-1 $247 $245 $249 $350 reversed $161 $-1 #
edge $-1 $260 -8.5445721451320473 $352 8.5445721451320473 $259 $407 forward 7 unknown #
vertex $-1 $350 $408 #
straight-curve $-1 -41.991027558214057 -25.650703656360619 0 0 0 -1 I I #
edge $-1 $348 -25.650703656360619 $352 25.650703656360619 $346 $409 forward 7 unknown #
straight-curve $-1 0 -25.650703656360619 -8.5445721451320473 -1 0 0 I I #
vertex $-1 $252 $410 #
straight-curve $-1 0 25.650703656360619 -8.5445721451320473 1 0 0 I I #
point $-1 41.991027558214057 25.650703656360619 -8.5445721451320473 #
point $-1 41.991027558214057 -25.650703656360619 -8.5445721451320473 #
straight-curve $-1 -41.991027558214057 0 8.5445721451320473 0 -1 0 I I #
point $-1 -41.991027558214057 25.650703656360619 8.5445721451320473 #
point $-1 -41.991027558214057 -25.650703656360619 8.5445721451320473 #
straight-curve $-1 41.991027558214057 -25.650703656360619 0 0 0 -1 I I #
straight-curve $-1 41.991027558214057 25.650703656360619 0 0 0 -1 I I #
plane-surface $-1 0 25.650703656360619 0 0 -1 0 0 0 -1 forward_v I I I I #
coedge $-1 $372 $371 $275 $364 forward $270 $-1 #
straight-curve $-1 -31.473419906663153 -25.650703656360619 0.98562092957420155 0 0 1 I I #
edge $-1 $367 -25.650703656360619 $365 25.650703656360619 $362 $411 forward 7 unknown #
vertex $-1 $276 $412 #
straight-curve $-1 -18.366111866219303 -25.650703656360619 0.47124185914840311 1 0 0 I I #
vertex $-1 $278 $413 #
straight-curve $-1 -18.366111866219303 25.650703656360619 0.47124185914840311 -1 0 0 I I #
point $-1 -31.473419906663153 25.650703656360619 0.47124185914840311 #
point $-1 -31.473419906663153 -25.650703656360619 0.47124185914840311 #
coedge $-1 $362 $282 $285 $374 forward $270 $-1 #
coedge $-1 $282 $362 $289 $376 reversed $270 $-1 #
straight-curve $-1 -41.991027558214057 0 3.4712418591484031 0 1 0 I I #
edge $-1 $287 -3.4712418591484031 $367 -0.47124185914840311 $285 $414 forward 7 unknown #
point $-1 -41.991027558214057 25.650703656360619 3.4712418591484031 #
edge $-1 $290 -3.4712418591484031 $365 -0.47124185914840311 $372 $415 forward 7 unknown #
point $-1 -41.991027558214057 -25.650703656360619 3.4712418591484031 #
straight-curve $-1 -31.473419906663153 25.650703656360619 0.98562092957420155 0 0 -1 I I #
edge $-1 $380 14.723241272987899 $383 24.201097771601454 $296 $416 forward 7 unknown #
vertex $-1 $379 $417 #
straight-curve $-1 25.447546562340392 -25.650703656360619 31.843828996389583 0 0 1 I I #
edge $-1 $383 -15.710095111427155 $307 -3.7648077903993205 $306 $418 forward 7 unknown #
vertex $-1 $382 $419 #
straight-curve $-1 25.447546562340392 -25.650703656360619 0.30559701205812928 0 -0.75470957328743171 -0.6560590369687036 I I #
point $-1 25.447546562340392 -25.650703656360619 0.30559701205812928 #
point $-1 13.502259241312558 -16.172847157747064 8.5445721451320473 #
straight-curve $-1 0 -25.650703656360619 8.5445721451320473 1 0 0 I I #
vertex $-1 $313 $420 #
point $-1 17.915198475891941 -19.948059179556214 3.3164559006250567 #
vertex $-1 $317 $421 #
point $-1 23.034607327761023 -19.948059179556214 3.3164559006250567 #
coedge $-1 $393 $323 $399 $422 reversed $221 $-1 #
coedge $-1 $323 $392 $326 $397 reversed $221 $-1 #
edge $-1 $395 -23.234680632781746 $331 -14.278013218082876 $330 $423 forward 7 unknown #
vertex $-1 $325 $424 #
straight-curve $-1 41.991027558214057 -1.594156039065024 23.843071513681455 0 0.77714595512881146 -0.62932039886446345 I I #
edge $-1 $327 17.297916941981658 $401 25.650703656360619 $393 $425 forward 7 unknown #
point $-1 41.991027558214057 17.297916941981658 8.5445721451320473 #
coedge $-1 $330 $329 $392 $422 forward $321 $-1 #
point $-1 33.034360143515187 25.650703656360619 1.7806186920751017 #
vertex $-1 $397 $426 #
straight-curve $-1 0 25.650703656360619 8.5445721451320473 -1 0 0 I I #
vertex $-1 $337 $427 #
point $-1 36.593407976286301 20.48557030301825 3.9416032339059632 #
vertex $-1 $341 $428 #
point $-1 40.431979725442957 20.48557030301825 3.9416032339059632 #
straight-curve $-1 -41.991027558214057 25.650703656360619 0 0 0 -1 I I #
point $-1 -41.991027558214057 -25.650703656360619 -8.5445721451320473 #
straight-curve $-1 -41.991027558214057 0 -8.5445721451320473 0 1 0 I I #
point $-1 -41.991027558214057 25.650703656360619 -8.5445721451320473 #
straight-curve $-1 -41.991027558214057 0 0.47124185914840311 0 -1 0 I I #
point $-1 -41.991027558214057 -25.650703656360619 0.47124185914840311 #
point $-1 -41.991027558214057 25.650703656360619 0.47124185914840311 #
straight-curve $-1 -41.991027558214057 25.650703656360619 0 0 0 -1 I I #
straight-curve $-1 -41.991027558214057 -25.650703656360619 0 0 0 -1 I I #
straight-curve $-1 25.447546562340392 -40.373944929348518 8.5445721451320473 0 1 0 I I #
point $-1 25.447546562340392 -25.650703656360619 8.5445721451320473 #
straight-curve $-1 9.7374514509132375 -16.172847157747064 8.5445721451320473 -1 0 0 I I #
point $-1 25.447546562340392 -16.172847157747064 8.5445721451320473 #
point $-1 16.915198475891941 -19.292000142587508 2.5617463273376249 #
point $-1 22.034607327761023 -19.292000142587508 2.5617463273376249 #
edge $-1 $401 -8.5445721451320473 $395 -1.7806186920751017 $392 $429 forward 7 unknown #
straight-curve $-1 18.756346925432311 25.650703656360619 1.7806186920751088 -1 0 0 I I #
point $-1 41.991027558214057 25.650703656360619 1.7806186920751017 #
straight-curve $-1 41.991027558214057 0 8.5445721451320473 0 1 0 I I #
point $-1 41.991027558214057 25.650703656360619 8.5445721451320473 #
point $-1 35.593407976286301 19.856249904153785 3.1644572787771517 #
point $-1 39.431979725442957 19.856249904153785 3.1644572787771517 #
straight-curve $-1 41.991027558214057 25.650703656360619 0 0 0 -1 I I #
End-of-ACIS-data 