500 0 5 0           
7 Unknown 11 ACIS 5.0 NT 24 Fri Mar 26 02:40:08 1999 
-1 9.9999999999999995e-007 1e-010 
body $-1 $5 $-1 $6 #
body $-1 $7 $-1 $8 #
body $-1 $9 $-1 $10 #
body $-1 $11 $-1 $12 #
body $-1 $13 $-1 $14 #
lump $-1 $-1 $15 $0 #
transform $-1 1 0 0 0 1 0 0 0 1 68.329721976378664 28.650645960199643 10.120191243401676 1 rotate no_reflect no_shear #
lump $-1 $-1 $16 $1 #
transform $-1 1 0 0 0 1 0 0 0 1 68.329721976378664 28.650645960199643 10.120191243401676 1 rotate no_reflect no_shear #
lump $-1 $-1 $17 $2 #
transform $-1 1 0 0 0 1 0 0 0 1 68.329721976378664 28.650645960199643 10.120191243401676 1 rotate no_reflect no_shear #
lump $-1 $-1 $18 $3 #
transform $-1 1 0 0 0 1 0 0 0 1 68.329721976378664 28.650645960199643 10.120191243401676 1 rotate no_reflect no_shear #
lump $-1 $-1 $19 $4 #
transform $-1 1 0 0 0 1 0 0 0 1 68.329721976378664 28.650645960199643 10.120191243401676 1 rotate no_reflect no_shear #
shell $-1 $-1 $-1 $20 $-1 $5 #
shell $-1 $-1 $-1 $21 $-1 $7 #
shell $-1 $-1 $-1 $22 $-1 $9 #
shell $-1 $-1 $-1 $23 $-1 $11 #
shell $-1 $-1 $-1 $24 $-1 $13 #
face $-1 $25 $26 $15 $-1 $27 forward single #
face $-1 $28 $29 $16 $-1 $30 reversed single #
face $-1 $31 $32 $17 $-1 $33 reversed single #
face $-1 $34 $35 $18 $-1 $36 forward single #
face $-1 $37 $38 $19 $-1 $39 forward single #
face $-1 $40 $41 $15 $-1 $42 reversed single #
loop $-1 $-1 $43 $20 #
plane-surface $-1 0 0 10.120191243401676 0 0 1 1 0 0 forward_v I I I I #
face $-1 $44 $45 $16 $-1 $46 reversed single #
loop $-1 $-1 $47 $21 #
plane-surface $-1 -63.101248881605365 0 5.3331526937028926 0 0 1 1 0 0 forward_v I I I I #
face $-1 $48 $49 $17 $-1 $50 reversed single #
loop $-1 $-1 $51 $22 #
plane-surface $-1 61.584850584553664 21.841940928300122 194.90649660416676 0 1 0 0.68199836817093118 0 0.7313536940579346 forward_v I I I I #
face $-1 $52 $53 $18 $-1 $54 forward single #
loop $-1 $55 $56 $23 #
cone-surface $-1 63.217422764276989 23.78728522312856 5.2649355758561143 -0.68199836817093118 0 -0.7313536940579346 0.3656768470289673 0 -0.34099918408546559 1 I I 0 1 0.5 forward I I I I #
face $-1 $57 $58 $19 $-1 $59 forward single #
loop $-1 $60 $61 $24 #
cone-surface $-1 63.217422764276989 26.705301665371213 5.2649355758561143 -0.68199836817093118 0 -0.7313536940579346 0.3656768470289673 0 -0.34099918408546559 1 I I 0 1 0.5 forward I I I I #
face $-1 $62 $63 $15 $-1 $64 reversed single #
loop $-1 $-1 $65 $25 #
plane-surface $-1 0 0 -10.120191243401676 0 0 1 1 0 0 forward_v I I I I #
coedge $-1 $66 $67 $68 $69 forward $26 $-1 #
face $-1 $70 $71 $16 $-1 $72 reversed single #
loop $-1 $-1 $73 $28 #
plane-surface $-1 -57.872775786832065 0 7.7266719685522833 -1 0 0 0 0 1 forward_v I I I I #
coedge $-1 $74 $75 $76 $77 forward $29 $-1 #
face $-1 $78 $79 $17 $-1 $80 reversed single #
loop $-1 $-1 $81 $31 #
plane-surface $-1 -31.616667186373661 25.246293444249883 94.960107441414422 0.68199836817093118 0 0.7313536940579346 0.7313536940579346 0 -0.68199836817093118 forward_v I I I I #
coedge $-1 $82 $83 $84 $85 reversed $32 $-1 #
face $-1 $-1 $86 $18 $-1 $87 forward single #
loop $-1 $88 $89 $34 #
cone-surface $-1 62.417983806720258 23.78728522312856 4.4076422712533674 -0.68199836817093118 0 -0.7313536940579346 0.18283842351448365 0 -0.17049959204273279 1 I I -0.70710678118654746 0.70710678118654746 0.25 forward I I I I #
loop $-1 $-1 $90 $23 #
coedge $-1 $56 $56 $91 $92 reversed $35 $-1 #
face $-1 $-1 $93 $19 $-1 $94 forward single #
loop $-1 $95 $96 $37 #
cone-surface $-1 62.417983806720258 26.705301665371213 4.4076422712533674 -0.68199836817093118 0 -0.7313536940579346 0.18283842351448365 0 -0.17049959204273279 1 I I -0.70710678118654746 0.70710678118654746 0.25 forward I I I I #
loop $-1 $-1 $97 $24 #
coedge $-1 $61 $61 $98 $99 reversed $38 $-1 #
face $-1 $100 $101 $15 $-1 $102 reversed single #
loop $-1 $-1 $103 $40 #
plane-surface $-1 0 -28.650645960199643 0 0 1 0 0 0 1 forward_v I I I I #
coedge $-1 $104 $105 $106 $107 forward $41 $-1 #
coedge $-1 $108 $43 $109 $110 forward $26 $-1 #
coedge $-1 $43 $108 $111 $112 forward $26 $-1 #
coedge $-1 $113 $114 $43 $69 reversed $115 $-1 #
edge $-1 $116 -28.650645960199643 $117 28.650645960199643 $68 $118 forward 7 unknown #
face $-1 $119 $120 $16 $-1 $121 reversed single #
loop $-1 $-1 $122 $44 #
plane-surface $-1 0 28.650645960199643 0 0 -1 0 0 0 -1 forward_v I I I I #
coedge $-1 $76 $123 $124 $125 reversed $45 $-1 #
coedge $-1 $126 $47 $127 $128 reversed $29 $-1 #
coedge $-1 $47 $126 $129 $130 reversed $29 $-1 #
coedge $-1 $131 $73 $47 $77 reversed $45 $-1 #
edge $-1 $132 -28.650645960199643 $133 28.650645960199643 $76 $134 forward 7 unknown #
face $-1 $135 $136 $17 $-1 $137 forward single #
loop $-1 $-1 $138 $48 #
plane-surface $-1 0 28.650645960199643 0 0 -1 0 0 0 -1 forward_v I I I I #
coedge $-1 $139 $140 $141 $142 reversed $49 $-1 #
coedge $-1 $83 $51 $143 $144 reversed $32 $-1 #
coedge $-1 $51 $82 $139 $145 reversed $32 $-1 #
coedge $-1 $141 $146 $51 $85 forward $147 $-1 #
edge $-1 $148 87.333057058681703 $149 95.694658631596269 $84 $150 forward 7 unknown #
loop $-1 $-1 $91 $52 #
plane-surface $-1 -31.616667186373661 25.246293444249883 94.960107441414422 0.68199836817093118 0 0.7313536940579346 0.7313536940579346 0 -0.68199836817093118 forward_v I I I I #
loop $-1 $-1 $151 $34 #
coedge $-1 $89 $89 $90 $152 reversed $53 $-1 #
coedge $-1 $90 $90 $89 $152 forward $55 $-1 #
coedge $-1 $91 $91 $56 $92 forward $86 $-1 #
edge $-1 $153 0 $153 6.2831853071796004 $91 $154 forward 7 unknown #
loop $-1 $-1 $98 $57 #
plane-surface $-1 -31.616667186373661 25.246293444249883 94.960107441414422 0.68199836817093118 0 0.7313536940579346 0.7313536940579346 0 -0.68199836817093118 forward_v I I I I #
loop $-1 $-1 $155 $37 #
coedge $-1 $96 $96 $97 $156 reversed $58 $-1 #
coedge $-1 $97 $97 $96 $156 forward $60 $-1 #
coedge $-1 $98 $98 $61 $99 forward $93 $-1 #
edge $-1 $157 0 $157 6.2831853071796004 $98 $158 forward 7 unknown #
face $-1 $159 $160 $15 $-1 $161 reversed single #
loop $-1 $-1 $162 $62 #
plane-surface $-1 -68.329721976378664 0 0 1 0 0 0 0 -1 forward_v I I I I #
coedge $-1 $163 $111 $164 $165 forward $63 $-1 #
coedge $-1 $166 $65 $163 $167 forward $41 $-1 #
coedge $-1 $65 $166 $168 $169 forward $41 $-1 #
coedge $-1 $114 $113 $65 $107 reversed $115 $-1 #
edge $-1 $170 -28.650645960199643 $171 28.650645960199643 $106 $172 forward 7 unknown #
coedge $-1 $67 $66 $173 $174 forward $26 $-1 #
coedge $-1 $175 $176 $66 $110 reversed $160 $-1 #
edge $-1 $117 -68.329721976378664 $177 68.329721976378664 $109 $178 forward 7 unknown #
coedge $-1 $103 $179 $67 $112 reversed $63 $-1 #
edge $-1 $180 -68.329721976378664 $116 68.329721976378664 $111 $181 forward 7 unknown #
coedge $-1 $106 $68 $179 $182 forward $115 $-1 #
coedge $-1 $68 $106 $175 $183 reversed $115 $-1 #
loop $-1 $-1 $113 $159 #
vertex $-1 $69 $184 #
vertex $-1 $69 $185 #
straight-curve $-1 68.329721976378664 0 10.120191243401676 0 1 0 I I #
face $-1 $186 $187 $16 $-1 $188 forward single #
loop $-1 $-1 $189 $70 #
plane-surface $-1 -68.329721976378664 0 0 1 0 0 0 0 -1 forward_v I I I I #
coedge $-1 $129 $190 $131 $191 forward $71 $-1 #
coedge $-1 $73 $131 $192 $193 reversed $45 $-1 #
coedge $-1 $194 $127 $73 $125 forward $195 $-1 #
edge $-1 $133 1.4698167094267509 $196 6.2568552591255324 $124 $197 forward 7 unknown #
coedge $-1 $75 $74 $189 $198 reversed $29 $-1 #
coedge $-1 $124 $199 $74 $128 forward $195 $-1 #
edge $-1 $200 -36.779097535575985 $133 -26.322151346029383 $127 $201 forward 7 unknown #
coedge $-1 $202 $122 $75 $130 forward $71 $-1 #
edge $-1 $132 26.322151346029383 $203 36.779097535575985 $129 $204 forward 7 unknown #
coedge $-1 $123 $76 $122 $191 reversed $45 $-1 #
vertex $-1 $130 $205 #
vertex $-1 $128 $206 #
straight-curve $-1 -57.872775786832065 0 5.3331526937028926 0 -1 0 I I #
face $-1 $-1 $147 $17 $-1 $207 reversed single #
loop $-1 $-1 $143 $78 #
plane-surface $-1 0 0 10.120191243401676 0 0 1 1 0 0 forward_v I I I I #
coedge $-1 $208 $209 $140 $210 forward $79 $-1 #
coedge $-1 $211 $81 $83 $145 forward $49 $-1 #
coedge $-1 $81 $211 $138 $210 reversed $49 $-1 #
coedge $-1 $212 $84 $81 $142 forward $147 $-1 #
edge $-1 $149 9.2187942061751809 $213 16.027499238074704 $141 $214 forward 7 unknown #
coedge $-1 $215 $216 $82 $144 forward $136 $-1 #
edge $-1 $217 28.57057699092654 $148 37.537296684101833 $143 $218 forward 7 unknown #
edge $-1 $149 -136.6594439527573 $217 -124.3990017535483 $83 $219 forward 7 unknown #
coedge $-1 $84 $212 $215 $220 reversed $147 $-1 #
loop $-1 $-1 $141 $135 #
vertex $-1 $220 $221 #
vertex $-1 $85 $222 #
straight-curve $-1 68.329721976378664 21.841940928300122 97.453248302083381 0 0 -1 I I #
coedge $-1 $151 $151 $-1 $223 reversed $88 $-1 #
edge $-1 $224 0 $224 6.2831853071796004 $89 $225 forward 7 unknown #
vertex $-1 $92 $226 #
ellipse-curve $-1 63.846362129791011 23.78728522312856 5.9393904569444063 0.68199836817093118 0 0.7313536940579346 0.3656768470289673 0 -0.34099918408546559 1 I I #
coedge $-1 $155 $155 $-1 $227 reversed $95 $-1 #
edge $-1 $228 0 $228 6.2831853071796004 $96 $229 forward 7 unknown #
vertex $-1 $99 $230 #
ellipse-curve $-1 63.846362129791011 26.705301665371213 5.9393904569444063 0.68199836817093118 0 0.7313536940579346 0.3656768470289673 0 -0.34099918408546559 1 I I #
face $-1 $-1 $115 $15 $-1 $231 reversed single #
loop $-1 $-1 $175 $100 #
plane-surface $-1 0 28.650645960199643 0 0 -1 0 0 0 -1 forward_v I I I I #
coedge $-1 $232 $173 $176 $233 forward $101 $-1 #
coedge $-1 $179 $103 $104 $167 reversed $63 $-1 #
coedge $-1 $173 $232 $103 $165 reversed $101 $-1 #
edge $-1 $180 -10.120191243401676 $234 10.120191243401676 $164 $235 forward 7 unknown #
coedge $-1 $105 $104 $232 $236 forward $41 $-1 #
edge $-1 $171 -68.329721976378664 $234 68.329721976378664 $163 $237 forward 7 unknown #
coedge $-1 $176 $175 $105 $169 reversed $160 $-1 #
edge $-1 $238 -68.329721976378664 $170 68.329721976378664 $168 $239 forward 7 unknown #
vertex $-1 $107 $240 #
vertex $-1 $182 $241 #
straight-curve $-1 68.329721976378664 0 -10.120191243401676 0 -1 0 I I #
coedge $-1 $162 $164 $108 $174 reversed $101 $-1 #
edge $-1 $177 -28.650645960199643 $180 28.650645960199643 $173 $242 forward 7 unknown #
coedge $-1 $168 $109 $114 $183 forward $160 $-1 #
coedge $-1 $109 $168 $162 $233 reversed $160 $-1 #
vertex $-1 $110 $243 #
straight-curve $-1 0 28.650645960199643 10.120191243401676 -1 0 0 I I #
coedge $-1 $111 $163 $113 $182 reversed $63 $-1 #
vertex $-1 $174 $244 #
straight-curve $-1 0 -28.650645960199643 10.120191243401676 1 0 0 I I #
edge $-1 $116 -10.120191243401676 $171 10.120191243401676 $113 $245 forward 7 unknown #
edge $-1 $117 -10.120191243401676 $170 10.120191243401676 $114 $246 forward 7 unknown #
point $-1 68.329721976378664 -28.650645960199643 10.120191243401676 #
point $-1 68.329721976378664 28.650645960199643 10.120191243401676 #
face $-1 $-1 $195 $16 $-1 $247 reversed single #
loop $-1 $-1 $192 $119 #
plane-surface $-1 0 0 10.120191243401676 0 0 1 1 0 0 forward_v I I I I #
coedge $-1 $248 $249 $126 $198 forward $120 $-1 #
coedge $-1 $122 $202 $250 $251 reversed $71 $-1 #
edge $-1 $252 -6.2568552591255324 $132 -1.4698167094267509 $122 $253 forward 7 unknown #
coedge $-1 $250 $254 $123 $193 forward $187 $-1 #
edge $-1 $196 -28.650645960199643 $252 28.650645960199643 $192 $255 forward 7 unknown #
coedge $-1 $199 $124 $254 $256 reversed $195 $-1 #
loop $-1 $-1 $124 $186 #
vertex $-1 $125 $257 #
straight-curve $-1 -57.872775786832065 -28.650645960199643 3.8633359842761417 0 0 1 I I #
edge $-1 $203 -28.650645960199643 $200 28.650645960199643 $189 $258 forward 7 unknown #
coedge $-1 $127 $194 $248 $259 forward $195 $-1 #
vertex $-1 $198 $260 #
straight-curve $-1 -31.550624440802682 -28.650645960199643 5.3331526937028926 1 0 0 I I #
coedge $-1 $190 $129 $249 $261 reversed $71 $-1 #
vertex $-1 $198 $262 #
straight-curve $-1 -31.550624440802682 28.650645960199643 5.3331526937028926 -1 0 0 I I #
point $-1 -57.872775786832065 28.650645960199643 5.3331526937028926 #
point $-1 -57.872775786832065 -28.650645960199643 5.3331526937028926 #
plane-surface $-1 68.329721976378664 0 0 -1 0 0 0 0 1 forward_v I I I I #
coedge $-1 $209 $138 $263 $264 reversed $79 $-1 #
coedge $-1 $138 $208 $212 $265 forward $79 $-1 #
edge $-1 $213 -92.716641624289508 $266 -80.456199425080513 $138 $267 forward 7 unknown #
coedge $-1 $140 $139 $216 $268 reversed $49 $-1 #
coedge $-1 $146 $141 $209 $265 reversed $147 $-1 #
vertex $-1 $210 $269 #
straight-curve $-1 68.329721976378664 12.623146722124941 1.7585896704871118 0 1 0 I I #
coedge $-1 $263 $143 $146 $220 forward $136 $-1 #
coedge $-1 $143 $263 $211 $268 forward $136 $-1 #
vertex $-1 $144 $270 #
straight-curve $-1 30.792425292276832 21.841940928300122 10.120191243401678 1 0 0 I I #
straight-curve $-1 -31.616667186373661 21.841940928300122 94.960107441414422 -0.7313536940579346 0 0.68199836817093118 I I #
edge $-1 $148 21.841940928300122 $271 28.650645960199643 $146 $272 forward 7 unknown #
point $-1 68.329721976378664 21.841940928300122 10.120191243401676 #
point $-1 68.329721976378664 21.841940928300122 1.7585896704871118 #
edge $-1 $273 1 $273 0 $151 $-1 forward 7 unknown #
vertex $-1 $152 $274 #
ellipse-curve $-1 62.588483398762989 23.78728522312856 4.5904806947678507 0.68199836817093118 0 0.7313536940579346 0.3656768470289673 0 -0.34099918408546559 1 I I #
point $-1 64.212038976819954 23.78728522312856 5.5983912728589127 #
edge $-1 $275 1 $275 0 $155 $-1 forward 7 unknown #
vertex $-1 $156 $276 #
ellipse-curve $-1 62.588483398762989 26.705301665371213 4.5904806947678507 0.68199836817093118 0 0.7313536940579346 0.3656768470289673 0 -0.34099918408546559 1 I I #
point $-1 64.212038976819954 26.705301665371213 5.5983912728589127 #
plane-surface $-1 68.329721976378664 0 0 -1 0 0 0 0 1 forward_v I I I I #
coedge $-1 $164 $162 $166 $236 reversed $101 $-1 #
edge $-1 $177 -10.120191243401676 $238 10.120191243401676 $176 $277 forward 7 unknown #
vertex $-1 $236 $278 #
straight-curve $-1 -68.329721976378664 -28.650645960199643 0 0 0 -1 I I #
edge $-1 $234 -28.650645960199643 $238 28.650645960199643 $232 $279 forward 7 unknown #
straight-curve $-1 0 -28.650645960199643 -10.120191243401676 -1 0 0 I I #
vertex $-1 $169 $280 #
straight-curve $-1 0 28.650645960199643 -10.120191243401676 1 0 0 I I #
point $-1 68.329721976378664 28.650645960199643 -10.120191243401676 #
point $-1 68.329721976378664 -28.650645960199643 -10.120191243401676 #
straight-curve $-1 -68.329721976378664 0 10.120191243401676 0 -1 0 I I #
point $-1 -68.329721976378664 28.650645960199643 10.120191243401676 #
point $-1 -68.329721976378664 -28.650645960199643 10.120191243401676 #
straight-curve $-1 68.329721976378664 -28.650645960199643 0 0 0 -1 I I #
straight-curve $-1 68.329721976378664 28.650645960199643 0 0 0 -1 I I #
plane-surface $-1 0 -28.650645960199643 0 0 1 0 0 0 1 forward_v I I I I #
coedge $-1 $281 $189 $199 $259 reversed $120 $-1 #
coedge $-1 $189 $281 $202 $261 forward $120 $-1 #
coedge $-1 $282 $192 $190 $251 forward $187 $-1 #
edge $-1 $252 57.872775786832065 $283 68.329721976378664 $190 $284 forward 7 unknown #
vertex $-1 $251 $285 #
straight-curve $-1 -57.872775786832065 28.650645960199643 3.8633359842761417 0 0 -1 I I #
coedge $-1 $192 $282 $194 $256 forward $187 $-1 #
straight-curve $-1 -57.872775786832065 0 10.120191243401676 0 1 0 I I #
edge $-1 $286 -68.329721976378664 $196 -57.872775786832065 $194 $287 forward 7 unknown #
point $-1 -57.872775786832065 -28.650645960199643 10.120191243401674 #
straight-curve $-1 -68.329721976378664 0 5.3331526937028926 0 -1 0 I I #
edge $-1 $286 -10.120191243401676 $200 -5.3331526937028926 $248 $288 forward 7 unknown #
point $-1 -68.329721976378664 -28.650645960199643 5.3331526937028926 #
edge $-1 $283 -10.120191243401676 $203 -5.3331526937028926 $202 $289 forward 7 unknown #
point $-1 -68.329721976378664 28.650645960199643 5.3331526937028926 #
coedge $-1 $216 $215 $208 $264 forward $136 $-1 #
edge $-1 $271 -68.329721976378664 $266 -59.363002283203372 $208 $290 forward 7 unknown #
edge $-1 $271 -10.120191243401676 $213 -1.7585896704871167 $212 $291 forward 7 unknown #
vertex $-1 $210 $292 #
straight-curve $-1 0.52106362380887461 28.650645960199643 64.991187960541595 -0.7313536940579346 0 0.68199836817093118 I I #
edge $-1 $266 -16.027499238074704 $217 -9.2187942061751809 $216 $293 forward 7 unknown #
point $-1 68.329721976378664 28.650645960199643 1.7585896704871167 #
point $-1 59.363002283203372 21.841940928300122 10.120191243401678 #
vertex $-1 $220 $294 #
straight-curve $-1 68.329721976378664 0 10.120191243401676 0 1 0 I I #
vertex $-1 $223 $295 #
point $-1 62.954160245791961 23.78728522312856 4.2494815106823856 #
vertex $-1 $227 $296 #
point $-1 62.954160245791961 26.705301665371213 4.2494815106823856 #
straight-curve $-1 -68.329721976378664 28.650645960199643 0 0 0 -1 I I #
point $-1 -68.329721976378664 -28.650645960199643 -10.120191243401676 #
straight-curve $-1 -68.329721976378664 0 -10.120191243401676 0 1 0 I I #
point $-1 -68.329721976378664 28.650645960199643 -10.120191243401676 #
coedge $-1 $249 $248 $282 $297 reversed $120 $-1 #
coedge $-1 $254 $250 $281 $297 forward $187 $-1 #
vertex $-1 $251 $298 #
straight-curve $-1 0 28.650645960199643 10.120191243401676 -1 0 0 I I #
point $-1 -57.872775786832065 28.650645960199643 10.120191243401674 #
vertex $-1 $297 $299 #
straight-curve $-1 0 -28.650645960199643 10.120191243401676 1 0 0 I I #
straight-curve $-1 -68.329721976378664 -28.650645960199643 0 0 0 -1 I I #
straight-curve $-1 -68.329721976378664 28.650645960199643 0 0 0 -1 I I #
straight-curve $-1 0 28.650645960199643 10.120191243401676 -1 0 0 I I #
straight-curve $-1 68.329721976378664 28.650645960199643 0 0 0 -1 I I #
point $-1 59.363002283203372 28.650645960199643 10.120191243401678 #
straight-curve $-1 59.363002283203372 12.623146722124941 10.120191243401678 0 -1 0 I I #
point $-1 68.329721976378664 28.650645960199643 10.120191243401676 #
point $-1 62.247484214677527 23.78728522312856 4.2248038477388841 #
point $-1 62.247484214677527 26.705301665371213 4.2248038477388841 #
edge $-1 $283 -28.650645960199643 $286 28.650645960199643 $281 $300 forward 7 unknown #
point $-1 -68.329721976378664 28.650645960199643 10.120191243401676 #
point $-1 -68.329721976378664 -28.650645960199643 10.120191243401676 #
straight-curve $-1 -68.329721976378664 0 10.120191243401676 0 -1 0 I I #
End-of-ACIS-data 