500 0 7 0           
7 Unknown 11 ACIS 5.0 NT 24 Fri Mar 26 20:40:53 1999 
-1 9.9999999999999995e-007 1e-010 
body $-1 $7 $-1 $8 #
body $-1 $9 $-1 $10 #
body $-1 $11 $-1 $12 #
body $-1 $13 $-1 $14 #
body $-1 $15 $-1 $16 #
body $-1 $17 $-1 $18 #
body $-1 $19 $-1 $20 #
lump $-1 $-1 $21 $0 #
transform $-1 1 0 0 0 1 0 0 0 1 69.799493392742704 44.366464082359933 20.022656866881992 1 rotate no_reflect no_shear #
lump $-1 $-1 $22 $1 #
transform $-1 1 0 0 0 1 0 0 0 1 69.799493392742704 44.366464082359933 20.022656866881992 1 rotate no_reflect no_shear #
lump $-1 $-1 $23 $2 #
transform $-1 1 0 0 0 1 0 0 0 1 69.799493392742704 44.366464082359933 20.022656866881992 1 rotate no_reflect no_shear #
lump $-1 $-1 $24 $3 #
transform $-1 1 0 0 0 1 0 0 0 1 69.799493392742704 44.366464082359933 20.022656866881992 1 rotate no_reflect no_shear #
lump $-1 $-1 $25 $4 #
transform $-1 1 0 0 0 1 0 0 0 1 69.799493392742704 44.366464082359933 20.022656866881992 1 rotate no_reflect no_shear #
lump $-1 $-1 $26 $5 #
transform $-1 1 0 0 0 1 0 0 0 1 69.799493392742704 44.366464082359933 20.022656866881992 1 rotate no_reflect no_shear #
lump $-1 $-1 $27 $6 #
transform $-1 1 0 0 0 1 0 0 0 1 69.799493392742704 44.366464082359933 20.022656866881992 1 rotate no_reflect no_shear #
shell $-1 $-1 $-1 $28 $-1 $7 #
shell $-1 $-1 $-1 $29 $-1 $9 #
shell $-1 $-1 $-1 $30 $-1 $11 #
shell $-1 $-1 $-1 $31 $-1 $13 #
shell $-1 $-1 $-1 $32 $-1 $15 #
shell $-1 $-1 $-1 $33 $-1 $17 #
shell $-1 $-1 $-1 $34 $-1 $19 #
face $-1 $35 $36 $21 $-1 $37 forward single #
face $-1 $38 $39 $22 $-1 $40 forward single #
face $-1 $41 $42 $23 $-1 $43 reversed single #
face $-1 $44 $45 $24 $-1 $46 forward single #
face $-1 $47 $48 $25 $-1 $49 forward single #
face $-1 $50 $51 $26 $-1 $52 reversed single #
face $-1 $53 $54 $27 $-1 $55 forward single #
face $-1 $56 $57 $21 $-1 $58 reversed single #
loop $-1 $-1 $59 $28 #
plane-surface $-1 0 0 20.022656866881992 0 0 1 1 0 0 forward_v I I I I #
face $-1 $60 $61 $22 $-1 $62 reversed single #
loop $-1 $-1 $63 $29 #
plane-surface $-1 0 -31.919798354372325 -15.73019324717011 0 0 1 1 0 0 forward_v I I I I #
face $-1 $64 $65 $23 $-1 $66 reversed single #
loop $-1 $-1 $67 $30 #
plane-surface $-1 -170.21860182463615 20.653646134016526 110.09788646780598 0 1 0 -0.71933980857756763 0 0.69465836192734942 forward_v I I I I #
face $-1 $68 $69 $24 $-1 $70 forward single #
loop $-1 $71 $72 $31 #
cone-surface $-1 -66.097478988677267 22.780120447346356 16.215031975411062 0.71933980857756763 0 -0.69465836192734942 0.34732918096367471 0 0.35966990428878381 1 I I 0 1 0.5 forward I I I I #
face $-1 $73 $74 $25 $-1 $75 forward single #
loop $-1 $76 $77 $32 #
cone-surface $-1 -66.097478988677267 25.969831917341104 16.215031975411062 0.71933980857756763 0 -0.69465836192734942 0.34732918096367471 0 0.35966990428878381 1 I I 0 1 0.5 forward I I I I #
face $-1 $78 $79 $26 $-1 $80 reversed single #
loop $-1 $-1 $81 $33 #
plane-surface $-1 22.03860165357068 -0.15193468784604036 204.41885435311596 0 -1 0 -0.51503808176128008 0 -0.85716729658548041 forward_v I I I I #
face $-1 $82 $83 $27 $-1 $84 forward single #
loop $-1 $85 $86 $34 #
cone-surface $-1 61.944428703348159 -6.2016653229410679 13.287631778761725 -0.51503808176128008 0 -0.85716729658548041 2.1429182414637009 0 -1.2875952044032002 1 I I 0 1 2.5 forward I I I I #
face $-1 $87 $88 $21 $-1 $89 reversed single #
loop $-1 $-1 $90 $35 #
plane-surface $-1 0 0 -20.022656866881992 0 0 1 1 0 0 forward_v I I I I #
coedge $-1 $91 $92 $93 $94 forward $36 $-1 #
face $-1 $95 $96 $22 $-1 $97 reversed single #
loop $-1 $-1 $98 $38 #
plane-surface $-1 0 -19.473132626384718 -17.876425057026051 0 -1 0 0 0 -1 forward_v I I I I #
coedge $-1 $99 $100 $101 $102 reversed $39 $-1 #
face $-1 $103 $104 $23 $-1 $105 reversed single #
loop $-1 $-1 $106 $41 #
plane-surface $-1 -69.79949339274269 24.374976182343737 13.124282980682992 -0.71933980857756763 0 0.69465836192734942 0.69465836192734942 0 0.71933980857756763 forward_v I I I I #
coedge $-1 $107 $108 $109 $110 reversed $42 $-1 #
face $-1 $-1 $111 $24 $-1 $112 forward single #
loop $-1 $113 $114 $44 #
cone-surface $-1 -65.54647066657148 22.780120447346356 15.682929436557796 0.71933980857756763 0 -0.69465836192734942 0.17366459048183736 0 0.17983495214439191 1 I I -0.70710678118654746 0.70710678118654746 0.25 forward I I I I #
loop $-1 $-1 $115 $31 #
coedge $-1 $72 $72 $116 $117 reversed $45 $-1 #
face $-1 $-1 $118 $25 $-1 $119 forward single #
loop $-1 $120 $121 $47 #
cone-surface $-1 -65.54647066657148 25.969831917341104 15.682929436557796 0.71933980857756763 0 -0.69465836192734942 0.17366459048183736 0 0.17983495214439191 1 I I -0.70710678118654746 0.70710678118654746 0.25 forward I I I I #
loop $-1 $-1 $122 $32 #
coedge $-1 $77 $77 $123 $124 reversed $48 $-1 #
face $-1 $125 $126 $26 $-1 $127 reversed single #
loop $-1 $-1 $128 $50 #
plane-surface $-1 -49.860192716244015 -6.2016653229410608 84.759168244129228 0.51503808176128008 0 0.85716729658548041 0.85716729658548041 0 -0.51503808176128008 forward_v I I I I #
coedge $-1 $129 $130 $131 $132 reversed $51 $-1 #
face $-1 $-1 $133 $27 $-1 $134 forward single #
loop $-1 $135 $136 $53 #
cone-surface $-1 59.405586619505073 -6.2016653229410679 9.0622890661933404 -0.51503808176128008 0 -0.85716729658548041 1.0714591207318505 0 -0.64379760220160009 1 I I -0.70710678118654746 0.70710678118654746 1.25 forward I I I I #
loop $-1 $-1 $137 $34 #
coedge $-1 $86 $86 $138 $139 reversed $54 $-1 #
face $-1 $140 $141 $21 $-1 $142 reversed single #
loop $-1 $-1 $143 $56 #
plane-surface $-1 0 -44.366464082359933 0 0 1 0 0 0 1 forward_v I I I I #
coedge $-1 $144 $145 $146 $147 forward $57 $-1 #
coedge $-1 $148 $59 $149 $150 forward $36 $-1 #
coedge $-1 $59 $148 $151 $152 forward $36 $-1 #
coedge $-1 $153 $154 $59 $94 reversed $155 $-1 #
edge $-1 $156 -44.366464082359933 $157 44.366464082359933 $93 $158 forward 7 unknown #
face $-1 $159 $160 $22 $-1 $161 reversed single #
loop $-1 $-1 $162 $60 #
plane-surface $-1 0 0 -20.022656866881992 0 0 1 1 0 0 forward_v I I I I #
coedge $-1 $163 $164 $165 $166 reversed $61 $-1 #
coedge $-1 $167 $63 $164 $168 forward $39 $-1 #
coedge $-1 $63 $167 $169 $170 reversed $39 $-1 #
coedge $-1 $171 $165 $63 $102 forward $160 $-1 #
edge $-1 $172 3.5132334491985553 $173 28.40656490517377 $101 $174 forward 7 unknown #
face $-1 $175 $176 $23 $-1 $177 forward single #
loop $-1 $-1 $178 $64 #
plane-surface $-1 -170.21860182463615 28.096306230670947 110.09788646780598 0 -1 0 0.71933980857756763 0 -0.69465836192734942 forward_v I I I I #
coedge $-1 $179 $180 $181 $182 reversed $65 $-1 #
coedge $-1 $108 $67 $183 $184 reversed $42 $-1 #
coedge $-1 $67 $107 $179 $185 reversed $42 $-1 #
coedge $-1 $181 $186 $67 $110 forward $176 $-1 #
edge $-1 $187 15.309807519575372 $188 21.971489587783445 $109 $189 forward 7 unknown #
loop $-1 $-1 $116 $68 #
plane-surface $-1 -69.79949339274269 24.374976182343737 13.124282980682992 -0.71933980857756763 0 0.69465836192734942 0.69465836192734942 0 0.71933980857756763 forward_v I I I I #
loop $-1 $-1 $190 $44 #
coedge $-1 $114 $114 $115 $191 reversed $69 $-1 #
coedge $-1 $115 $115 $114 $191 forward $71 $-1 #
coedge $-1 $116 $116 $72 $117 forward $111 $-1 #
edge $-1 $192 0 $192 6.2831853071796004 $116 $193 forward 7 unknown #
loop $-1 $-1 $123 $73 #
plane-surface $-1 -69.79949339274269 24.374976182343737 13.124282980682992 -0.71933980857756763 0 0.69465836192734942 0.69465836192734942 0 0.71933980857756763 forward_v I I I I #
loop $-1 $-1 $194 $47 #
coedge $-1 $121 $121 $122 $195 reversed $74 $-1 #
coedge $-1 $122 $122 $121 $195 forward $76 $-1 #
coedge $-1 $123 $123 $77 $124 forward $118 $-1 #
edge $-1 $196 0 $196 6.2831853071796004 $123 $197 forward 7 unknown #
face $-1 $198 $199 $26 $-1 $200 reversed single #
loop $-1 $-1 $201 $78 #
plane-surface $-1 22.03860165357068 -12.251395958036081 204.41885435311596 0 1 0 0.51503808176128008 0 0.85716729658548041 forward_v I I I I #
coedge $-1 $202 $203 $204 $205 reversed $79 $-1 #
coedge $-1 $130 $81 $206 $207 reversed $51 $-1 #
coedge $-1 $81 $129 $202 $208 reversed $51 $-1 #
coedge $-1 $204 $209 $81 $132 forward $210 $-1 #
edge $-1 $211 -58.780192565957364 $212 -46.860152150451242 $131 $213 forward 7 unknown #
loop $-1 $-1 $138 $82 #
plane-surface $-1 -49.860192716244015 -6.2016653229410608 84.759168244129228 0.51503808176128008 0 0.85716729658548041 0.85716729658548041 0 -0.51503808176128008 forward_v I I I I #
loop $-1 $-1 $214 $53 #
coedge $-1 $136 $136 $137 $215 reversed $83 $-1 #
coedge $-1 $137 $137 $136 $215 forward $85 $-1 #
coedge $-1 $138 $138 $86 $139 forward $133 $-1 #
edge $-1 $216 0 $216 6.2831853071796004 $138 $217 forward 7 unknown #
face $-1 $218 $219 $21 $-1 $220 reversed single #
loop $-1 $-1 $221 $87 #
plane-surface $-1 -69.799493392742704 0 0 1 0 0 0 0 -1 forward_v I I I I #
coedge $-1 $222 $151 $223 $224 forward $88 $-1 #
coedge $-1 $225 $90 $222 $226 forward $57 $-1 #
coedge $-1 $90 $225 $227 $228 forward $57 $-1 #
coedge $-1 $154 $153 $90 $147 reversed $155 $-1 #
edge $-1 $229 -44.366464082359933 $230 44.366464082359933 $146 $231 forward 7 unknown #
coedge $-1 $92 $91 $232 $233 forward $36 $-1 #
coedge $-1 $234 $235 $91 $150 reversed $219 $-1 #
edge $-1 $157 -69.799493392742704 $236 69.799493392742704 $149 $237 forward 7 unknown #
coedge $-1 $143 $238 $92 $152 reversed $88 $-1 #
edge $-1 $239 -69.799493392742704 $156 69.799493392742704 $151 $240 forward 7 unknown #
coedge $-1 $146 $93 $238 $241 forward $155 $-1 #
coedge $-1 $93 $146 $234 $242 reversed $155 $-1 #
loop $-1 $-1 $153 $218 #
vertex $-1 $94 $243 #
vertex $-1 $94 $244 #
straight-curve $-1 69.799493392742704 0 20.022656866881992 0 1 0 I I #
face $-1 $245 $246 $22 $-1 $247 reversed single #
loop $-1 $-1 $165 $95 #
plane-surface $-1 69.799493392742704 0 0 -1 0 0 0 0 1 forward_v I I I I #
coedge $-1 $248 $249 $163 $250 forward $96 $-1 #
coedge $-1 $251 $98 $162 $250 reversed $61 $-1 #
coedge $-1 $98 $251 $99 $168 reversed $61 $-1 #
coedge $-1 $101 $252 $98 $166 forward $160 $-1 #
edge $-1 $253 -11.084444338368966 $172 -6.7919807186570846 $165 $254 forward 7 unknown #
coedge $-1 $100 $99 $255 $256 reversed $39 $-1 #
edge $-1 $172 -69.799493392742704 $257 69.799493392742704 $164 $258 forward 7 unknown #
coedge $-1 $259 $260 $100 $170 forward $246 $-1 #
edge $-1 $173 -69.799493392742704 $261 69.799493392742704 $169 $262 forward 7 unknown #
coedge $-1 $252 $101 $260 $263 forward $160 $-1 #
vertex $-1 $102 $264 #
vertex $-1 $263 $265 #
straight-curve $-1 69.799493392742704 -15.959899177186163 -15.73019324717011 0 -1 0 I I #
face $-1 $-1 $266 $23 $-1 $267 reversed single #
loop $-1 $-1 $109 $103 #
plane-surface $-1 0 0 20.022656866881992 0 0 1 1 0 0 forward_v I I I I #
coedge $-1 $268 $269 $270 $271 reversed $104 $-1 #
coedge $-1 $272 $106 $108 $185 forward $65 $-1 #
coedge $-1 $106 $272 $268 $273 forward $65 $-1 #
coedge $-1 $270 $109 $106 $182 forward $176 $-1 #
edge $-1 $188 8.4661580428446577 $274 15.908818139499079 $181 $275 forward 7 unknown #
coedge $-1 $276 $277 $107 $184 forward $266 $-1 #
edge $-1 $278 -41.924660253220011 $187 -35.026286367021001 $183 $279 forward 7 unknown #
edge $-1 $188 -9.5898681039770874 $278 2.0094122568606809e-014 $108 $280 forward 7 unknown #
coedge $-1 $109 $270 $276 $281 forward $176 $-1 #
vertex $-1 $184 $282 #
vertex $-1 $110 $283 #
straight-curve $-1 -85.109300912318076 20.653646134016526 20.022656866881988 1 0 0 I I #
coedge $-1 $190 $190 $-1 $284 reversed $113 $-1 #
edge $-1 $285 0 $285 6.2831853071796004 $114 $286 forward 7 unknown #
vertex $-1 $117 $287 #
ellipse-curve $-1 -66.468652358638664 22.780120447346356 16.573469923782486 -0.71933980857756763 0 0.69465836192734942 0.34732918096367471 0 0.35966990428878381 1 I I #
coedge $-1 $194 $194 $-1 $288 reversed $120 $-1 #
edge $-1 $289 0 $289 6.2831853071796004 $121 $290 forward 7 unknown #
vertex $-1 $124 $291 #
ellipse-curve $-1 -66.468652358638664 25.969831917341104 16.573469923782486 -0.71933980857756763 0 0.69465836192734942 0.34732918096367471 0 0.35966990428878381 1 I I #
face $-1 $-1 $210 $26 $-1 $292 forward single #
loop $-1 $-1 $293 $125 #
plane-surface $-1 69.799493392742704 0 0 -1 0 0 0 0 1 forward_v I I I I #
coedge $-1 $294 $295 $296 $297 reversed $126 $-1 #
coedge $-1 $298 $128 $130 $208 forward $79 $-1 #
coedge $-1 $128 $298 $294 $299 forward $79 $-1 #
coedge $-1 $296 $131 $128 $205 forward $210 $-1 #
edge $-1 $212 -2.94889797362449 $300 9.1505632965655508 $204 $301 forward 7 unknown #
coedge $-1 $302 $303 $129 $207 forward $199 $-1 #
edge $-1 $304 -89.349053302243433 $211 -82.186770309675993 $206 $305 forward 7 unknown #
edge $-1 $212 125.69266947381296 $304 139.59898678548538 $130 $306 forward 7 unknown #
coedge $-1 $131 $296 $302 $307 forward $210 $-1 #
loop $-1 $-1 $296 $198 #
vertex $-1 $207 $308 #
vertex $-1 $132 $309 #
straight-curve $-1 11.01930082678534 -0.15193468784604036 20.022656866881988 -1 0 0 I I #
coedge $-1 $214 $214 $-1 $310 reversed $135 $-1 #
edge $-1 $311 0 $311 6.2831853071796004 $136 $312 forward 7 unknown #
vertex $-1 $139 $313 #
ellipse-curve $-1 63.83947318498965 -6.2016653229410679 16.441515370598275 0.51503808176128008 0 0.85716729658548041 2.1429182414637009 0 -1.2875952044032002 1 I I #
face $-1 $-1 $155 $21 $-1 $314 reversed single #
loop $-1 $-1 $234 $140 #
plane-surface $-1 0 44.366464082359933 0 0 -1 0 0 0 -1 forward_v I I I I #
coedge $-1 $315 $232 $235 $316 forward $141 $-1 #
coedge $-1 $238 $143 $144 $226 reversed $88 $-1 #
coedge $-1 $232 $315 $143 $224 reversed $141 $-1 #
edge $-1 $239 -20.022656866881992 $317 20.022656866881992 $223 $318 forward 7 unknown #
coedge $-1 $145 $144 $315 $319 forward $57 $-1 #
edge $-1 $230 -69.799493392742704 $317 69.799493392742704 $222 $320 forward 7 unknown #
coedge $-1 $235 $234 $145 $228 reversed $219 $-1 #
edge $-1 $321 -69.799493392742704 $229 69.799493392742704 $227 $322 forward 7 unknown #
vertex $-1 $147 $323 #
vertex $-1 $241 $324 #
straight-curve $-1 69.799493392742704 0 -20.022656866881992 0 -1 0 I I #
coedge $-1 $221 $223 $148 $233 reversed $141 $-1 #
edge $-1 $236 -44.366464082359933 $239 44.366464082359933 $232 $325 forward 7 unknown #
coedge $-1 $227 $149 $154 $242 forward $219 $-1 #
coedge $-1 $149 $227 $221 $316 reversed $219 $-1 #
vertex $-1 $150 $326 #
straight-curve $-1 0 44.366464082359933 20.022656866881992 -1 0 0 I I #
coedge $-1 $151 $222 $153 $241 reversed $88 $-1 #
vertex $-1 $233 $327 #
straight-curve $-1 0 -44.366464082359933 20.022656866881992 1 0 0 I I #
edge $-1 $156 -20.022656866881992 $230 20.022656866881992 $153 $328 forward 7 unknown #
edge $-1 $157 -20.022656866881992 $229 20.022656866881992 $154 $329 forward 7 unknown #
point $-1 69.799493392742704 -44.366464082359933 20.022656866881992 #
point $-1 69.799493392742704 44.366464082359933 20.022656866881992 #
face $-1 $-1 $330 $22 $-1 $331 reversed single #
loop $-1 $-1 $169 $159 #
plane-surface $-1 0 -44.366464082359933 0 0 1 0 0 0 1 forward_v I I I I #
coedge $-1 $332 $162 $252 $333 forward $96 $-1 #
coedge $-1 $162 $332 $334 $335 forward $96 $-1 #
edge $-1 $336 -69.799493392742704 $253 69.799493392742704 $162 $337 forward 7 unknown #
coedge $-1 $164 $163 $338 $339 reversed $61 $-1 #
coedge $-1 $165 $171 $248 $333 reversed $160 $-1 #
vertex $-1 $333 $340 #
straight-curve $-1 69.799493392742704 -19.473132626384718 -8.9382125285130254 0 0 1 I I #
coedge $-1 $338 $341 $167 $256 forward $330 $-1 #
edge $-1 $261 -28.40656490517377 $257 -3.5132334491985553 $255 $342 forward 7 unknown #
vertex $-1 $256 $343 #
straight-curve $-1 0 -19.473132626384718 -15.73019324717011 -1 0 0 I I #
coedge $-1 $344 $169 $341 $345 forward $246 $-1 #
coedge $-1 $169 $344 $171 $263 reversed $246 $-1 #
vertex $-1 $345 $346 #
straight-curve $-1 0 -44.366464082359933 -15.73019324717011 -1 0 0 I I #
edge $-1 $173 15.73019324717011 $347 20.022656866881992 $171 $348 forward 7 unknown #
point $-1 69.799493392742704 -19.473132626384718 -15.73019324717011 #
point $-1 69.799493392742704 -44.366464082359933 -15.73019324717011 #
loop $-1 $-1 $183 $175 #
plane-surface $-1 -69.799493392742704 0 0 1 0 0 0 0 -1 forward_v I I I I #
coedge $-1 $269 $178 $180 $273 reversed $104 $-1 #
coedge $-1 $178 $268 $349 $350 reversed $104 $-1 #
coedge $-1 $186 $181 $178 $271 forward $176 $-1 #
edge $-1 $274 -21.971489587783445 $351 -15.309807519575372 $270 $352 forward 7 unknown #
coedge $-1 $180 $179 $277 $353 reversed $65 $-1 #
edge $-1 $354 -2.0094122568606809e-014 $274 9.5898681039770874 $268 $355 forward 7 unknown #
vertex $-1 $182 $356 #
straight-curve $-1 -63.137811324534624 12.187488091171868 20.022656866881995 0 1 0 I I #
coedge $-1 $349 $183 $186 $281 reversed $266 $-1 #
coedge $-1 $183 $349 $272 $353 forward $266 $-1 #
vertex $-1 $184 $357 #
straight-curve $-1 -69.799493392742704 20.653646134016526 55.048943233902989 0 0 1 I I #
straight-curve $-1 -69.79949339274269 20.653646134016526 13.124282980682992 -0.69465836192734942 0 -0.71933980857756763 I I #
edge $-1 $351 -28.096306230670947 $187 -20.653646134016526 $276 $358 forward 7 unknown #
point $-1 -69.799493392742704 20.653646134016526 20.022656866881992 #
point $-1 -63.137811324534631 20.653646134016526 20.022656866881992 #
edge $-1 $359 1 $359 0 $190 $-1 forward 7 unknown #
vertex $-1 $191 $360 #
ellipse-curve $-1 -65.72630561871587 22.780120447346356 15.856594027039634 -0.71933980857756763 0 0.69465836192734942 0.34732918096367471 0 0.35966990428878381 1 I I #
point $-1 -66.121323177674995 22.780120447346356 16.933139828071276 #
edge $-1 $361 1 $361 0 $194 $-1 forward 7 unknown #
vertex $-1 $195 $362 #
ellipse-curve $-1 -65.72630561871587 25.969831917341104 15.856594027039634 -0.71933980857756763 0 0.69465836192734942 0.34732918096367471 0 0.35966990428878381 1 I I #
point $-1 -66.121323177674995 25.969831917341104 16.933139828071276 #
plane-surface $-1 0 0 20.022656866881992 0 0 1 1 0 0 forward_v I I I I #
coedge $-1 $303 $302 $295 $363 forward $199 $-1 #
coedge $-1 $295 $201 $203 $299 reversed $126 $-1 #
coedge $-1 $201 $294 $293 $363 reversed $126 $-1 #
coedge $-1 $209 $204 $201 $297 forward $210 $-1 #
edge $-1 $300 46.860152150451242 $364 58.780192565957364 $296 $365 forward 7 unknown #
coedge $-1 $203 $202 $303 $366 reversed $79 $-1 #
edge $-1 $367 -139.59898678548538 $300 -125.69266947381296 $294 $368 forward 7 unknown #
vertex $-1 $205 $369 #
straight-curve $-1 57.87945297723661 -3.1008326614705304 20.022656866881981 0 -1 0 I I #
coedge $-1 $293 $206 $209 $307 reversed $199 $-1 #
coedge $-1 $206 $293 $298 $366 forward $199 $-1 #
vertex $-1 $207 $370 #
straight-curve $-1 69.799493392742704 -0.15193468784604036 102.20942717655798 0 0 1 I I #
straight-curve $-1 -49.860192716244015 -0.15193468784604036 84.759168244129228 0.85716729658548041 0 -0.51503808176128008 I I #
edge $-1 $364 -12.251395958036081 $211 -0.15193468784604036 $302 $371 forward 7 unknown #
point $-1 69.799493392742704 -0.15193468784604036 20.022656866881992 #
point $-1 57.879452977236582 -0.15193468784604036 20.022656866881988 #
edge $-1 $372 1 $372 0 $214 $-1 forward 7 unknown #
vertex $-1 $215 $373 #
ellipse-curve $-1 60.049384221706674 -6.2016653229410679 10.133748186925191 0.51503808176128008 0 0.85716729658548041 2.1429182414637009 0 -1.2875952044032002 1 I I #
point $-1 65.982391426453347 -6.2016653229410679 15.153920166195057 #
plane-surface $-1 69.799493392742704 0 0 -1 0 0 0 0 1 forward_v I I I I #
coedge $-1 $223 $221 $225 $319 reversed $141 $-1 #
edge $-1 $236 -20.022656866881992 $321 20.022656866881992 $235 $374 forward 7 unknown #
vertex $-1 $319 $375 #
straight-curve $-1 -69.799493392742704 -44.366464082359933 0 0 0 -1 I I #
edge $-1 $317 -44.366464082359933 $321 44.366464082359933 $315 $376 forward 7 unknown #
straight-curve $-1 0 -44.366464082359933 -20.022656866881992 -1 0 0 I I #
vertex $-1 $228 $377 #
straight-curve $-1 0 44.366464082359933 -20.022656866881992 1 0 0 I I #
point $-1 69.799493392742704 44.366464082359933 -20.022656866881992 #
point $-1 69.799493392742704 -44.366464082359933 -20.022656866881992 #
straight-curve $-1 -69.799493392742704 0 20.022656866881992 0 -1 0 I I #
point $-1 -69.799493392742704 44.366464082359933 20.022656866881992 #
point $-1 -69.799493392742704 -44.366464082359933 20.022656866881992 #
straight-curve $-1 69.799493392742704 -44.366464082359933 0 0 0 -1 I I #
straight-curve $-1 69.799493392742704 44.366464082359933 0 0 0 -1 I I #
loop $-1 $-1 $338 $245 #
plane-surface $-1 -69.799493392742704 0 0 1 0 0 0 0 -1 forward_v I I I I #
coedge $-1 $249 $248 $344 $378 forward $96 $-1 #
edge $-1 $253 19.473132626384718 $347 44.366464082359933 $252 $379 forward 7 unknown #
coedge $-1 $341 $338 $249 $335 reversed $330 $-1 #
edge $-1 $380 -44.366464082359933 $336 -19.473132626384718 $334 $381 forward 7 unknown #
vertex $-1 $339 $382 #
straight-curve $-1 0 -19.473132626384718 -20.022656866881992 1 0 0 I I #
coedge $-1 $334 $255 $251 $339 forward $330 $-1 #
edge $-1 $257 6.7919807186570846 $336 11.084444338368966 $338 $383 forward 7 unknown #
point $-1 69.799493392742704 -19.473132626384718 -20.022656866881992 #
coedge $-1 $255 $334 $259 $345 reversed $330 $-1 #
straight-curve $-1 -69.799493392742704 -15.959899177186163 -15.73019324717011 0 1 0 I I #
point $-1 -69.799493392742704 -19.473132626384718 -15.73019324717011 #
coedge $-1 $260 $259 $332 $378 reversed $246 $-1 #
edge $-1 $261 15.73019324717011 $380 20.022656866881992 $341 $384 forward 7 unknown #
point $-1 -69.799493392742704 -44.366464082359933 -15.73019324717011 #
vertex $-1 $263 $385 #
straight-curve $-1 69.799493392742704 -44.366464082359933 0 0 0 -1 I I #
coedge $-1 $277 $276 $269 $350 forward $266 $-1 #
edge $-1 $351 35.026286367021001 $354 41.924660253220011 $349 $386 forward 7 unknown #
vertex $-1 $281 $387 #
straight-curve $-1 -85.109300912318076 28.096306230670947 20.022656866881988 -1 0 0 I I #
edge $-1 $354 -15.908818139499079 $278 -8.4661580428446577 $277 $388 forward 7 unknown #
vertex $-1 $353 $389 #
straight-curve $-1 -69.79949339274269 28.096306230670947 13.124282980682992 0.69465836192734942 0 0.71933980857756763 I I #
point $-1 -63.137811324534631 28.096306230670947 20.022656866881992 #
point $-1 -69.799493392742704 20.653646134016526 13.124282980682977 #
straight-curve $-1 -69.799493392742704 0 20.022656866881992 0 -1 0 I I #
vertex $-1 $284 $390 #
point $-1 -65.3789764377522 22.780120447346356 16.216263931328417 #
vertex $-1 $288 $391 #
point $-1 -65.3789764377522 25.969831917341104 16.216263931328417 #
edge $-1 $364 82.186770309675993 $367 89.349053302243433 $293 $392 forward 7 unknown #
vertex $-1 $307 $393 #
straight-curve $-1 11.01930082678534 -12.251395958036081 20.022656866881988 1 0 0 I I #
edge $-1 $367 -9.1505632965655508 $304 2.94889797362449 $303 $394 forward 7 unknown #
vertex $-1 $366 $395 #
straight-curve $-1 -49.860192716244015 -12.251395958036081 84.759168244129228 -0.85716729658548041 0 0.51503808176128008 I I #
point $-1 57.879452977236582 -12.251395958036081 20.022656866881988 #
point $-1 69.79949339274269 -0.15193468784604036 12.860373874314547 #
straight-curve $-1 69.799493392742704 0 20.022656866881992 0 1 0 I I #
vertex $-1 $310 $396 #
point $-1 62.192302463170371 -6.2016653229410679 8.8461529825219909 #
straight-curve $-1 -69.799493392742704 44.366464082359933 0 0 0 -1 I I #
point $-1 -69.799493392742704 -44.366464082359933 -20.022656866881992 #
straight-curve $-1 -69.799493392742704 0 -20.022656866881992 0 1 0 I I #
point $-1 -69.799493392742704 44.366464082359933 -20.022656866881992 #
edge $-1 $347 -69.799493392742704 $380 69.799493392742704 $344 $397 forward 7 unknown #
straight-curve $-1 69.799493392742704 0 -20.022656866881992 0 -1 0 I I #
vertex $-1 $335 $398 #
straight-curve $-1 -69.799493392742704 0 -20.022656866881992 0 1 0 I I #
point $-1 -69.799493392742704 -19.473132626384718 -20.022656866881992 #
straight-curve $-1 -69.799493392742704 -19.473132626384718 -8.9382125285130254 0 0 -1 I I #
straight-curve $-1 -69.799493392742704 -44.366464082359933 0 0 0 -1 I I #
point $-1 69.799493392742704 -44.366464082359933 -20.022656866881992 #
straight-curve $-1 -69.799493392742704 28.096306230670947 55.048943233902989 0 0 -1 I I #
point $-1 -69.799493392742704 28.096306230670947 20.022656866881992 #
straight-curve $-1 -69.799493392742704 12.187488091171868 13.124282980682981 0 -1 0 I I #
point $-1 -69.799493392742704 28.096306230670947 13.124282980682977 #
point $-1 -65.36663571442709 22.780120447346356 15.509264846075958 #
point $-1 -65.36663571442709 25.969831917341104 15.509264846075958 #
straight-curve $-1 69.799493392742704 -12.251395958036081 102.20942717655798 0 0 -1 I I #
point $-1 69.799493392742704 -12.251395958036081 20.022656866881992 #
straight-curve $-1 69.799493392742704 -3.1008326614705304 12.860373874314547 0 1 0 I I #
point $-1 69.79949339274269 -12.251395958036081 12.860373874314547 #
point $-1 58.761789017303471 -6.2016653229410679 7.9908299454614902 #
straight-curve $-1 0 -44.366464082359933 -20.022656866881992 -1 0 0 I I #
point $-1 -69.799493392742704 -44.366464082359933 -20.022656866881992 #
End-of-ACIS-data 