500 0 8 0           
7 Unknown 11 ACIS 5.0 NT 24 Fri Mar 26 19:11:51 1999 
-1 9.9999999999999995e-007 1e-010 
body $-1 $8 $-1 $9 #
body $-1 $10 $-1 $11 #
body $-1 $12 $-1 $13 #
body $-1 $14 $-1 $15 #
body $-1 $16 $-1 $17 #
body $-1 $18 $-1 $19 #
body $-1 $20 $-1 $21 #
body $-1 $22 $-1 $23 #
lump $-1 $-1 $24 $0 #
transform $-1 1 0 0 0 1 0 0 0 1 47.608874782555617 19.790221892475824 5.9406299793814572 1 rotate no_reflect no_shear #
lump $-1 $-1 $25 $1 #
transform $-1 1 0 0 0 1 0 0 0 1 47.608874782555617 19.790221892475824 5.9406299793814572 1 rotate no_reflect no_shear #
lump $-1 $-1 $26 $2 #
transform $-1 1 0 0 0 1 0 0 0 1 47.608874782555617 19.790221892475824 5.9406299793814572 1 rotate no_reflect no_shear #
lump $-1 $-1 $27 $3 #
transform $-1 1 0 0 0 1 0 0 0 1 47.608874782555617 19.790221892475824 5.9406299793814572 1 rotate no_reflect no_shear #
lump $-1 $-1 $28 $4 #
transform $-1 1 0 0 0 1 0 0 0 1 47.608874782555617 19.790221892475824 5.9406299793814572 1 rotate no_reflect no_shear #
lump $-1 $-1 $29 $5 #
transform $-1 1 0 0 0 1 0 0 0 1 47.608874782555617 19.790221892475824 5.9406299793814572 1 rotate no_reflect no_shear #
lump $-1 $-1 $30 $6 #
transform $-1 1 0 0 0 1 0 0 0 1 47.608874782555617 19.790221892475824 5.9406299793814572 1 rotate no_reflect no_shear #
lump $-1 $-1 $31 $7 #
transform $-1 1 0 0 0 1 0 0 0 1 47.608874782555617 19.790221892475824 5.9406299793814572 1 rotate no_reflect no_shear #
shell $-1 $-1 $-1 $32 $-1 $8 #
shell $-1 $-1 $-1 $33 $-1 $10 #
shell $-1 $-1 $-1 $34 $-1 $12 #
shell $-1 $-1 $-1 $35 $-1 $14 #
shell $-1 $-1 $-1 $36 $-1 $16 #
shell $-1 $-1 $-1 $37 $-1 $18 #
shell $-1 $-1 $-1 $38 $-1 $20 #
shell $-1 $-1 $-1 $39 $-1 $22 #
face $-1 $40 $41 $24 $-1 $42 reversed single #
face $-1 $43 $44 $25 $-1 $45 forward single #
face $-1 $46 $47 $26 $-1 $48 reversed single #
face $-1 $49 $50 $27 $-1 $51 forward single #
face $-1 $52 $53 $28 $-1 $54 forward single #
face $-1 $55 $56 $29 $-1 $57 reversed single #
face $-1 $58 $59 $30 $-1 $60 forward single #
face $-1 $61 $62 $31 $-1 $63 forward single #
face $-1 $64 $65 $24 $-1 $66 forward single #
loop $-1 $-1 $67 $32 #
plane-surface $-1 -47.608874782555617 0 0 1 0 0 0 0 -1 forward_v I I I I #
face $-1 $68 $69 $25 $-1 $70 reversed single #
loop $-1 $-1 $71 $33 #
plane-surface $-1 -47.608874782555617 0 0 1 0 0 0 0 -1 forward_v I I I I #
face $-1 $72 $73 $26 $-1 $74 reversed single #
loop $-1 $-1 $75 $34 #
plane-surface $-1 41.308022165160835 -79.712694027768208 74.624409821710699 -1 0 0 0 -0.62932039886446345 0.77714595512881146 forward_v I I I I #
face $-1 $76 $77 $27 $-1 $78 forward single #
loop $-1 $79 $80 $35 #
cone-surface $-1 24.240846194668663 -14.990834996068564 1.408809747457997 0 0.62932039886446345 -0.77714595512881146 2 0 0 1 I I 0 1 2 forward I I I I #
face $-1 $81 $82 $28 $-1 $83 forward single #
loop $-1 $84 $85 $36 #
cone-surface $-1 34.481151776963969 -14.990834996068564 1.408809747457997 0 0.62932039886446345 -0.77714595512881146 2 0 0 1 I I 0 1 2 forward I I I I #
face $-1 $86 $87 $29 $-1 $88 reversed single #
loop $-1 $-1 $89 $37 #
plane-surface $-1 17.413975806471782 48.952912238089723 99.533190491688956 1 0 0 0 -0.62932039886446345 -0.77714595512881146 forward_v I I I I #
face $-1 $90 $91 $30 $-1 $92 forward single #
loop $-1 $93 $94 $38 #
cone-surface $-1 24.240846194668663 14.990834996068568 1.408809747457997 0 -0.62932039886446345 -0.77714595512881146 2 0 0 1 I I 0 1 2 forward I I I I #
face $-1 $95 $96 $31 $-1 $97 forward single #
loop $-1 $98 $99 $39 #
cone-surface $-1 34.481151776963969 14.990834996068568 1.408809747457997 0 -0.62932039886446345 -0.77714595512881146 2 0 0 1 I I 0 1 2 forward I I I I #
face $-1 $100 $101 $24 $-1 $102 reversed single #
loop $-1 $-1 $103 $40 #
plane-surface $-1 0 0 5.9406299793814572 0 0 1 1 0 0 forward_v I I I I #
coedge $-1 $104 $105 $106 $107 reversed $41 $-1 #
face $-1 $108 $109 $25 $-1 $110 reversed single #
loop $-1 $-1 $111 $43 #
plane-surface $-1 0 0 -5.9406299793814572 0 0 1 1 0 0 forward_v I I I I #
coedge $-1 $112 $113 $114 $115 forward $44 $-1 #
face $-1 $116 $117 $26 $-1 $118 reversed single #
loop $-1 $-1 $119 $46 #
plane-surface $-1 29.360998985816309 -19.790221892475813 0.62632089071635733 0 -0.62932039886446345 0.77714595512881146 1 0 0 forward_v I I I I #
coedge $-1 $120 $121 $122 $123 reversed $47 $-1 #
face $-1 $-1 $124 $27 $-1 $125 forward single #
loop $-1 $126 $127 $49 #
cone-surface $-1 24.240846194668663 -12.843440224602247 -1.2430018952617292 0 0.62932039886446345 -0.77714595512881146 1 0 0 1 I I -0.70710678118654746 0.70710678118654746 1 forward I I I I #
loop $-1 $-1 $128 $35 #
coedge $-1 $80 $80 $129 $130 reversed $50 $-1 #
face $-1 $-1 $131 $28 $-1 $132 forward single #
loop $-1 $133 $134 $52 #
cone-surface $-1 34.481151776963969 -12.843440224602247 -1.2430018952617292 0 0.62932039886446345 -0.77714595512881146 1 0 0 1 I I -0.70710678118654746 0.70710678118654746 1 forward I I I I #
loop $-1 $-1 $135 $36 #
coedge $-1 $85 $85 $136 $137 reversed $53 $-1 #
face $-1 $138 $139 $29 $-1 $140 reversed single #
loop $-1 $-1 $141 $55 #
plane-surface $-1 29.360998985816309 -10.969559897202672 25.535101560694613 0 0.62932039886446345 0.77714595512881146 1 0 0 forward_v I I I I #
coedge $-1 $142 $143 $144 $145 reversed $56 $-1 #
face $-1 $-1 $146 $30 $-1 $147 forward single #
loop $-1 $148 $149 $58 #
cone-surface $-1 24.240846194668663 12.843440224602251 -1.2430018952617292 0 -0.62932039886446345 -0.77714595512881146 1 0 0 1 I I -0.70710678118654746 0.70710678118654746 1 forward I I I I #
loop $-1 $-1 $150 $38 #
coedge $-1 $94 $94 $151 $152 reversed $59 $-1 #
face $-1 $-1 $153 $31 $-1 $154 forward single #
loop $-1 $155 $156 $61 #
cone-surface $-1 34.481151776963969 12.843440224602251 -1.2430018952617292 0 -0.62932039886446345 -0.77714595512881146 1 0 0 1 I I -0.70710678118654746 0.70710678118654746 1 forward I I I I #
loop $-1 $-1 $157 $39 #
coedge $-1 $99 $99 $158 $159 reversed $62 $-1 #
face $-1 $160 $161 $24 $-1 $162 reversed single #
loop $-1 $-1 $163 $64 #
plane-surface $-1 0 0 -5.9406299793814572 0 0 1 1 0 0 forward_v I I I I #
coedge $-1 $164 $165 $166 $167 forward $65 $-1 #
coedge $-1 $168 $67 $169 $170 reversed $41 $-1 #
coedge $-1 $67 $168 $171 $172 forward $41 $-1 #
coedge $-1 $173 $174 $67 $107 forward $101 $-1 #
edge $-1 $175 -19.790221892475824 $176 19.790221892475824 $67 $177 forward 7 unknown #
face $-1 $178 $179 $25 $-1 $180 reversed single #
loop $-1 $-1 $181 $68 #
plane-surface $-1 -50.257073719795194 -10.972736646734155 0 0 1 0 0 0 1 forward_v I I I I #
coedge $-1 $182 $183 $113 $184 forward $69 $-1 #
coedge $-1 $185 $71 $186 $187 reversed $44 $-1 #
coedge $-1 $71 $185 $111 $184 reversed $44 $-1 #
coedge $-1 $188 $189 $71 $115 reversed $190 $-1 #
edge $-1 $191 -5.9406299793814572 $192 5.9406299793814572 $114 $193 forward 7 unknown #
face $-1 $194 $195 $26 $-1 $196 forward single #
loop $-1 $-1 $197 $72 #
plane-surface $-1 17.413975806471782 -79.712694027768208 74.624409821710699 1 0 0 0 0.62932039886446345 -0.77714595512881146 forward_v I I I I #
coedge $-1 $198 $199 $200 $201 reversed $73 $-1 #
coedge $-1 $121 $75 $202 $203 reversed $47 $-1 #
coedge $-1 $75 $120 $198 $204 reversed $47 $-1 #
coedge $-1 $200 $205 $75 $123 forward $195 $-1 #
edge $-1 $206 20.06612512140828 $207 26.628750169019114 $122 $208 forward 7 unknown #
loop $-1 $-1 $129 $76 #
plane-surface $-1 29.360998985816309 -19.790221892475813 0.62632089071635733 0 -0.62932039886446345 0.77714595512881146 1 0 0 forward_v I I I I #
loop $-1 $-1 $209 $49 #
coedge $-1 $127 $127 $128 $210 reversed $77 $-1 #
coedge $-1 $128 $128 $127 $210 forward $79 $-1 #
coedge $-1 $129 $129 $80 $130 forward $124 $-1 #
edge $-1 $211 8.7219011755458706e-016 $211 6.2831853071796013 $129 $212 forward 7 unknown #
loop $-1 $-1 $136 $81 #
plane-surface $-1 29.360998985816309 -19.790221892475813 0.62632089071635733 0 -0.62932039886446345 0.77714595512881146 1 0 0 forward_v I I I I #
loop $-1 $-1 $213 $52 #
coedge $-1 $134 $134 $135 $214 reversed $82 $-1 #
coedge $-1 $135 $135 $134 $214 forward $84 $-1 #
coedge $-1 $136 $136 $85 $137 forward $131 $-1 #
edge $-1 $215 8.7219011755458706e-016 $215 6.2831853071796013 $136 $216 forward 7 unknown #
face $-1 $217 $218 $29 $-1 $219 reversed single #
loop $-1 $-1 $220 $86 #
plane-surface $-1 41.308022165160835 48.952912238089723 99.533190491688956 -1 0 0 0 0.62932039886446345 0.77714595512881146 forward_v I I I I #
coedge $-1 $221 $222 $223 $224 reversed $87 $-1 #
coedge $-1 $143 $89 $225 $226 reversed $56 $-1 #
coedge $-1 $89 $142 $221 $227 reversed $56 $-1 #
coedge $-1 $223 $228 $89 $145 forward $229 $-1 #
edge $-1 $230 4.686234226569038 $231 11.248859274179864 $144 $232 forward 7 unknown #
loop $-1 $-1 $151 $90 #
plane-surface $-1 29.360998985816309 -10.969559897202672 25.535101560694613 0 0.62932039886446345 0.77714595512881146 1 0 0 forward_v I I I I #
loop $-1 $-1 $233 $58 #
coedge $-1 $149 $149 $150 $234 reversed $91 $-1 #
coedge $-1 $150 $150 $149 $234 forward $93 $-1 #
coedge $-1 $151 $151 $94 $152 forward $146 $-1 #
edge $-1 $235 -3.1324132020609563e-016 $235 6.2831853071796004 $151 $236 forward 7 unknown #
loop $-1 $-1 $158 $95 #
plane-surface $-1 29.360998985816309 -10.969559897202672 25.535101560694613 0 0.62932039886446345 0.77714595512881146 1 0 0 forward_v I I I I #
loop $-1 $-1 $237 $61 #
coedge $-1 $156 $156 $157 $238 reversed $96 $-1 #
coedge $-1 $157 $157 $156 $238 forward $98 $-1 #
coedge $-1 $158 $158 $99 $159 forward $153 $-1 #
edge $-1 $239 -3.1324132020609563e-016 $239 6.2831853071796004 $158 $240 forward 7 unknown #
face $-1 $241 $242 $24 $-1 $243 reversed single #
loop $-1 $-1 $169 $100 #
plane-surface $-1 0 -19.790221892475824 0 0 1 0 0 0 1 forward_v I I I I #
coedge $-1 $174 $173 $244 $245 forward $101 $-1 #
coedge $-1 $246 $103 $247 $248 forward $65 $-1 #
coedge $-1 $103 $246 $249 $250 forward $65 $-1 #
coedge $-1 $251 $252 $103 $167 reversed $253 $-1 #
edge $-1 $254 -19.790221892475824 $255 19.790221892475824 $166 $256 forward 7 unknown #
coedge $-1 $105 $104 $246 $257 reversed $41 $-1 #
coedge $-1 $258 $249 $104 $170 forward $161 $-1 #
edge $-1 $259 -5.9406299793814572 $175 5.9406299793814572 $104 $260 forward 7 unknown #
coedge $-1 $247 $261 $105 $172 reversed $242 $-1 #
edge $-1 $262 -5.9406299793814572 $176 5.9406299793814572 $171 $263 forward 7 unknown #
coedge $-1 $163 $106 $261 $264 forward $101 $-1 #
coedge $-1 $106 $163 $258 $265 forward $101 $-1 #
vertex $-1 $107 $266 #
vertex $-1 $264 $267 #
straight-curve $-1 -47.608874782555617 0 -5.9406299793814572 0 1 0 I I #
face $-1 $268 $190 $25 $-1 $269 reversed single #
loop $-1 $-1 $270 $108 #
plane-surface $-1 -52.905272657034772 -9.4408492902235324 0 1 0 0 0 0 -1 forward_v I I I I #
coedge $-1 $271 $272 $273 $274 forward $109 $-1 #
coedge $-1 $275 $111 $271 $276 forward $69 $-1 #
coedge $-1 $111 $275 $188 $277 forward $69 $-1 #
edge $-1 $191 7.9089619337129085 $278 10.972736646734155 $111 $279 forward 7 unknown #
coedge $-1 $113 $112 $280 $281 forward $44 $-1 #
coedge $-1 $282 $283 $112 $187 forward $284 $-1 #
edge $-1 $285 -10.972736646734155 $192 -7.9089619337129085 $186 $286 forward 7 unknown #
coedge $-1 $287 $114 $183 $277 reversed $190 $-1 #
coedge $-1 $114 $287 $282 $288 reversed $190 $-1 #
loop $-1 $-1 $114 $178 #
vertex $-1 $184 $289 #
vertex $-1 $288 $290 #
straight-curve $-1 -47.608874782555617 -7.9089619337129085 0 0 0 1 I I #
face $-1 $-1 $291 $26 $-1 $292 reversed single #
loop $-1 $-1 $122 $116 #
plane-surface $-1 0 0 5.9406299793814572 0 0 1 1 0 0 forward_v I I I I #
coedge $-1 $293 $294 $295 $296 reversed $117 $-1 #
coedge $-1 $297 $119 $121 $204 forward $73 $-1 #
coedge $-1 $119 $297 $293 $298 forward $73 $-1 #
coedge $-1 $295 $122 $119 $201 forward $195 $-1 #
edge $-1 $207 -26.627522672252681 $299 -2.733476313563628 $200 $300 forward 7 unknown #
coedge $-1 $301 $302 $120 $203 forward $291 $-1 #
edge $-1 $303 -36.685884020139 $206 -31.371574931473894 $202 $304 forward 7 unknown #
edge $-1 $207 -8.4445206261455397 $303 1.3732681969779619e-014 $121 $305 forward 7 unknown #
coedge $-1 $122 $295 $301 $306 forward $195 $-1 #
vertex $-1 $123 $307 #
vertex $-1 $123 $308 #
straight-curve $-1 41.308022165160835 -39.856347013884104 5.9406299793814554 0 1 0 I I #
coedge $-1 $209 $209 $-1 $309 reversed $126 $-1 #
edge $-1 $310 0 $310 6.2831853071796004 $127 $311 forward 7 unknown #
vertex $-1 $130 $312 #
ellipse-curve $-1 24.240846194668663 -16.508909368670409 3.283475435048901 0 -0.62932039886446345 0.77714595512881146 2 0 0 1 I I #
coedge $-1 $213 $213 $-1 $313 reversed $133 $-1 #
edge $-1 $314 0 $314 6.2831853071796004 $134 $315 forward 7 unknown #
vertex $-1 $137 $316 #
ellipse-curve $-1 34.481151776963969 -16.508909368670409 3.283475435048901 0 -0.62932039886446345 0.77714595512881146 2 0 0 1 I I #
face $-1 $-1 $229 $29 $-1 $317 forward single #
loop $-1 $-1 $318 $138 #
plane-surface $-1 0 19.790221892475824 0 0 -1 0 0 0 -1 forward_v I I I I #
coedge $-1 $319 $320 $321 $322 reversed $139 $-1 #
coedge $-1 $323 $141 $143 $227 forward $87 $-1 #
coedge $-1 $141 $323 $319 $324 forward $87 $-1 #
coedge $-1 $321 $144 $141 $224 forward $229 $-1 #
edge $-1 $231 2.733476313563628 $325 26.627522672252681 $223 $326 forward 7 unknown #
coedge $-1 $327 $328 $142 $226 forward $218 $-1 #
edge $-1 $329 -49.14027435512812 $230 -43.825965266463022 $225 $330 forward 7 unknown #
edge $-1 $231 31.135923158806129 $329 39.580443784951669 $143 $331 forward 7 unknown #
coedge $-1 $144 $321 $327 $332 forward $229 $-1 #
loop $-1 $-1 $321 $217 #
vertex $-1 $226 $333 #
vertex $-1 $145 $334 #
straight-curve $-1 17.413975806471782 24.476456119044862 5.9406299793814554 0 -1 0 I I #
coedge $-1 $233 $233 $-1 $335 reversed $148 $-1 #
edge $-1 $336 0 $336 6.2831853071796004 $149 $337 forward 7 unknown #
vertex $-1 $152 $338 #
ellipse-curve $-1 24.240846194668663 16.508909368670412 3.2834754350489028 0 0.62932039886446345 0.77714595512881146 2 0 0 1 I I #
coedge $-1 $237 $237 $-1 $339 reversed $155 $-1 #
edge $-1 $340 0 $340 6.2831853071796004 $156 $341 forward 7 unknown #
vertex $-1 $159 $342 #
ellipse-curve $-1 34.481151776963969 16.508909368670412 3.2834754350489028 0 0.62932039886446345 0.77714595512881146 2 0 0 1 I I #
face $-1 $-1 $253 $24 $-1 $343 reversed single #
loop $-1 $-1 $344 $160 #
plane-surface $-1 0 19.790221892475824 0 0 -1 0 0 0 -1 forward_v I I I I #
coedge $-1 $252 $251 $163 $245 reversed $253 $-1 #
edge $-1 $345 -19.790221892475824 $346 19.790221892475824 $244 $347 forward 7 unknown #
coedge $-1 $165 $164 $168 $257 forward $65 $-1 #
coedge $-1 $344 $171 $164 $248 reversed $242 $-1 #
edge $-1 $255 -47.608874782555617 $262 47.608874782555617 $247 $348 forward 7 unknown #
coedge $-1 $169 $349 $165 $250 reversed $161 $-1 #
edge $-1 $259 -47.608874782555617 $254 47.608874782555617 $249 $350 forward 7 unknown #
coedge $-1 $244 $166 $349 $351 forward $253 $-1 #
coedge $-1 $166 $244 $344 $352 reversed $253 $-1 #
loop $-1 $-1 $251 $241 #
vertex $-1 $167 $353 #
vertex $-1 $167 $354 #
straight-curve $-1 47.608874782555617 0 5.9406299793814572 0 1 0 I I #
edge $-1 $262 -19.790221892475824 $259 19.790221892475824 $168 $355 forward 7 unknown #
coedge $-1 $349 $169 $174 $265 reversed $161 $-1 #
vertex $-1 $257 $356 #
straight-curve $-1 -47.608874782555617 -19.790221892475824 0 0 0 -1 I I #
coedge $-1 $171 $344 $173 $264 reversed $242 $-1 #
vertex $-1 $248 $357 #
straight-curve $-1 -47.608874782555617 19.790221892475824 0 0 0 -1 I I #
edge $-1 $176 -47.608874782555617 $345 47.608874782555617 $261 $358 forward 7 unknown #
edge $-1 $346 -47.608874782555617 $175 47.608874782555617 $258 $359 forward 7 unknown #
point $-1 -47.608874782555617 -19.790221892475824 -5.9406299793814572 #
point $-1 -47.608874782555617 19.790221892475824 -5.9406299793814572 #
face $-1 $-1 $284 $25 $-1 $360 forward single #
plane-surface $-1 -50.257073719795194 -7.9089619337129085 0 0 -1 0 0 0 -1 forward_v I I I I #
coedge $-1 $361 $362 $287 $363 forward $179 $-1 #
coedge $-1 $280 $181 $182 $276 reversed $109 $-1 #
coedge $-1 $181 $280 $283 $364 reversed $109 $-1 #
coedge $-1 $362 $361 $181 $274 reversed $179 $-1 #
edge $-1 $365 -5.9406299793814572 $366 5.9406299793814572 $273 $367 forward 7 unknown #
coedge $-1 $183 $182 $361 $368 forward $69 $-1 #
edge $-1 $278 -2.6481989372395773 $366 2.6481989372395773 $271 $369 forward 7 unknown #
edge $-1 $370 -2.6481989372395773 $191 2.6481989372395773 $188 $371 forward 7 unknown #
vertex $-1 $276 $372 #
straight-curve $-1 -47.608874782555617 0 -5.9406299793814572 0 -1 0 I I #
coedge $-1 $272 $271 $185 $281 reversed $109 $-1 #
edge $-1 $285 -5.9406299793814572 $278 5.9406299793814572 $280 $373 forward 7 unknown #
coedge $-1 $374 $186 $189 $288 forward $284 $-1 #
coedge $-1 $186 $374 $272 $364 forward $284 $-1 #
loop $-1 $-1 $186 $268 #
vertex $-1 $187 $375 #
straight-curve $-1 -47.608874782555617 0 5.9406299793814572 0 1 0 I I #
coedge $-1 $189 $188 $270 $363 reversed $190 $-1 #
edge $-1 $192 -2.6481989372395773 $376 2.6481989372395773 $189 $377 forward 7 unknown #
point $-1 -47.608874782555617 -7.9089619337129085 -5.9406299793814572 #
point $-1 -47.608874782555617 -7.9089619337129085 5.9406299793814572 #
loop $-1 $-1 $202 $194 #
plane-surface $-1 0 -19.790221892475824 0 0 1 0 0 0 1 forward_v I I I I #
coedge $-1 $294 $197 $199 $298 reversed $117 $-1 #
coedge $-1 $197 $293 $378 $379 reversed $117 $-1 #
coedge $-1 $205 $200 $197 $296 forward $195 $-1 #
edge $-1 $299 -26.628750169019114 $380 -20.06612512140828 $295 $381 forward 7 unknown #
coedge $-1 $199 $198 $302 $382 reversed $73 $-1 #
edge $-1 $383 -1.3732681969779619e-014 $299 8.4445206261455397 $293 $384 forward 7 unknown #
vertex $-1 $201 $385 #
straight-curve $-1 14.680499492908154 -13.227596844864989 5.9406299793814572 -1 0 0 I I #
coedge $-1 $378 $202 $205 $306 reversed $291 $-1 #
coedge $-1 $202 $378 $297 $382 forward $291 $-1 #
vertex $-1 $203 $386 #
straight-curve $-1 41.308022165160835 -19.790221892475824 37.31220491085535 0 0 1 I I #
straight-curve $-1 41.308022165160835 -19.790221892475813 0.62632089071635733 0 -0.77714595512881146 -0.62932039886446345 I I #
edge $-1 $380 17.413975806471782 $206 41.308022165160835 $301 $387 forward 7 unknown #
point $-1 41.308022165160835 -19.790221892475824 5.9406299793814572 #
point $-1 41.308022165160835 -13.227596844864989 5.9406299793814572 #
edge $-1 $388 1 $388 0 $209 $-1 forward 7 unknown #
vertex $-1 $210 $389 #
ellipse-curve $-1 24.240846194668663 -13.47276062346671 -0.46585594013291776 0 -0.62932039886446345 0.77714595512881146 2 0 0 1 I I #
point $-1 26.240846194668663 -16.508909368670416 3.2834754350489126 #
edge $-1 $390 1 $390 0 $213 $-1 forward 7 unknown #
vertex $-1 $214 $391 #
ellipse-curve $-1 34.481151776963969 -13.47276062346671 -0.46585594013291776 0 -0.62932039886446345 0.77714595512881146 2 0 0 1 I I #
point $-1 36.481151776963969 -16.508909368670416 3.2834754350489126 #
plane-surface $-1 0 0 5.9406299793814572 0 0 1 1 0 0 forward_v I I I I #
coedge $-1 $328 $327 $320 $392 forward $218 $-1 #
coedge $-1 $320 $220 $222 $324 reversed $139 $-1 #
coedge $-1 $220 $319 $318 $392 reversed $139 $-1 #
coedge $-1 $228 $223 $220 $322 forward $229 $-1 #
edge $-1 $325 -11.248859274179864 $393 -4.686234226569038 $321 $394 forward 7 unknown #
coedge $-1 $222 $221 $328 $395 reversed $87 $-1 #
edge $-1 $396 -39.580443784951669 $325 -31.135923158806129 $319 $397 forward 7 unknown #
vertex $-1 $224 $398 #
straight-curve $-1 14.680499492908154 13.227596844864996 5.9406299793814572 1 0 0 I I #
coedge $-1 $318 $225 $228 $332 reversed $218 $-1 #
coedge $-1 $225 $318 $323 $395 forward $218 $-1 #
vertex $-1 $226 $399 #
straight-curve $-1 17.413975806471782 19.790221892475824 49.766595245844478 0 0 1 I I #
straight-curve $-1 17.413975806471782 -10.969559897202672 25.535101560694613 0 0.77714595512881146 -0.62932039886446345 I I #
edge $-1 $393 -41.308022165160835 $230 -17.413975806471782 $327 $400 forward 7 unknown #
point $-1 17.413975806471782 19.790221892475824 5.9406299793814572 #
point $-1 17.413975806471782 13.227596844864998 5.9406299793814554 #
edge $-1 $401 1 $401 0 $233 $-1 forward 7 unknown #
vertex $-1 $234 $402 #
ellipse-curve $-1 24.240846194668663 13.472760623466714 -0.46585594013291776 0 0.62932039886446345 0.77714595512881146 2 0 0 1 I I #
point $-1 26.240846194668663 16.50890936867042 3.2834754350489126 #
edge $-1 $403 1 $403 0 $237 $-1 forward 7 unknown #
vertex $-1 $238 $404 #
ellipse-curve $-1 34.481151776963969 13.472760623466714 -0.46585594013291776 0 0.62932039886446345 0.77714595512881146 2 0 0 1 I I #
point $-1 36.481151776963969 16.50890936867042 3.2834754350489126 #
plane-surface $-1 47.608874782555617 0 0 -1 0 0 0 0 1 forward_v I I I I #
coedge $-1 $261 $247 $252 $352 forward $242 $-1 #
vertex $-1 $245 $405 #
vertex $-1 $351 $406 #
straight-curve $-1 47.608874782555617 0 -5.9406299793814572 0 -1 0 I I #
straight-curve $-1 0 19.790221892475824 5.9406299793814572 -1 0 0 I I #
coedge $-1 $249 $258 $251 $351 reversed $161 $-1 #
straight-curve $-1 0 -19.790221892475824 5.9406299793814572 1 0 0 I I #
edge $-1 $254 -5.9406299793814572 $346 5.9406299793814572 $251 $407 forward 7 unknown #
edge $-1 $255 -5.9406299793814572 $345 5.9406299793814572 $252 $408 forward 7 unknown #
point $-1 47.608874782555617 -19.790221892475824 5.9406299793814572 #
point $-1 47.608874782555617 19.790221892475824 5.9406299793814572 #
straight-curve $-1 -47.608874782555617 0 5.9406299793814572 0 -1 0 I I #
point $-1 -47.608874782555617 -19.790221892475824 5.9406299793814572 #
point $-1 -47.608874782555617 19.790221892475824 5.9406299793814572 #
straight-curve $-1 0 19.790221892475824 -5.9406299793814572 1 0 0 I I #
straight-curve $-1 0 -19.790221892475824 -5.9406299793814572 -1 0 0 I I #
plane-surface $-1 0 0 5.9406299793814572 0 0 1 1 0 0 forward_v I I I I #
coedge $-1 $273 $270 $275 $368 reversed $179 $-1 #
coedge $-1 $270 $273 $374 $409 reversed $179 $-1 #
edge $-1 $376 -5.9406299793814572 $370 5.9406299793814572 $287 $410 forward 7 unknown #
edge $-1 $365 -2.6481989372395773 $285 2.6481989372395773 $272 $411 forward 7 unknown #
vertex $-1 $409 $412 #
vertex $-1 $368 $413 #
straight-curve $-1 -52.905272657034772 -10.972736646734155 0 0 0 -1 I I #
edge $-1 $366 -1.531887356510623 $370 1.5318873565106239 $361 $414 forward 7 unknown #
straight-curve $-1 -50.257073719795194 -10.972736646734155 -5.9406299793814572 -1 0 0 I I #
vertex $-1 $277 $415 #
straight-curve $-1 -50.257073719795194 -7.9089619337129085 -5.9406299793814572 1 0 0 I I #
point $-1 -47.608874782555617 -10.972736646734155 -5.9406299793814572 #
straight-curve $-1 -47.608874782555617 -10.972736646734155 0 0 0 -1 I I #
coedge $-1 $283 $282 $362 $409 forward $284 $-1 #
point $-1 -47.608874782555617 -10.972736646734155 5.9406299793814572 #
vertex $-1 $288 $416 #
straight-curve $-1 -50.257073719795194 -7.9089619337129085 5.9406299793814572 -1 0 0 I I #
coedge $-1 $302 $301 $294 $379 forward $291 $-1 #
edge $-1 $380 31.371574931473894 $383 36.685884020139 $378 $417 forward 7 unknown #
vertex $-1 $306 $418 #
straight-curve $-1 17.413975806471782 -39.856347013884104 5.9406299793814554 0 -1 0 I I #
edge $-1 $383 2.733476313563628 $303 26.627522672252681 $302 $419 forward 7 unknown #
vertex $-1 $382 $420 #
straight-curve $-1 17.413975806471782 -19.790221892475813 0.62632089071635733 0 0.77714595512881146 0.62932039886446345 I I #
point $-1 17.413975806471782 -13.227596844864989 5.9406299793814572 #
point $-1 41.308022165160835 -19.790221892475824 0.62632089071634867 #
straight-curve $-1 0 -19.790221892475824 5.9406299793814572 1 0 0 I I #
vertex $-1 $309 $421 #
point $-1 26.240846194668663 -13.47276062346671 -0.46585594013291776 #
vertex $-1 $313 $422 #
point $-1 36.481151776963969 -13.47276062346671 -0.46585594013291776 #
edge $-1 $393 43.825965266463022 $396 49.14027435512812 $318 $423 forward 7 unknown #
vertex $-1 $332 $424 #
straight-curve $-1 41.308022165160835 24.476456119044862 5.9406299793814554 0 1 0 I I #
edge $-1 $396 -26.627522672252681 $329 -2.733476313563628 $328 $425 forward 7 unknown #
vertex $-1 $395 $426 #
straight-curve $-1 41.308022165160835 -10.969559897202672 25.535101560694613 0 -0.77714595512881146 0.62932039886446345 I I #
point $-1 41.308022165160835 13.227596844864998 5.9406299793814554 #
point $-1 17.413975806471782 19.790221892475824 0.62632089071635733 #
straight-curve $-1 0 19.790221892475824 5.9406299793814572 -1 0 0 I I #
vertex $-1 $335 $427 #
point $-1 26.240846194668663 13.472760623466714 -0.46585594013291776 #
vertex $-1 $339 $428 #
point $-1 36.481151776963969 13.472760623466714 -0.46585594013291776 #
point $-1 47.608874782555617 19.790221892475824 -5.9406299793814572 #
point $-1 47.608874782555617 -19.790221892475824 -5.9406299793814572 #
straight-curve $-1 47.608874782555617 -19.790221892475824 0 0 0 -1 I I #
straight-curve $-1 47.608874782555617 19.790221892475824 0 0 0 -1 I I #
edge $-1 $376 -1.5318873565106239 $365 1.531887356510623 $362 $429 forward 7 unknown #
straight-curve $-1 -52.905272657034772 -7.9089619337129085 0 0 0 -1 I I #
straight-curve $-1 -50.257073719795194 -10.972736646734155 5.9406299793814572 1 0 0 I I #
point $-1 -52.905272657034772 -10.972736646734155 5.9406299793814572 #
point $-1 -52.905272657034772 -10.972736646734155 -5.9406299793814572 #
straight-curve $-1 -52.905272657034772 -9.4408492902235324 -5.9406299793814572 0 1 0 I I #
point $-1 -52.905272657034772 -7.9089619337129085 -5.9406299793814572 #
point $-1 -52.905272657034772 -7.9089619337129085 5.9406299793814572 #
straight-curve $-1 17.413975806471782 -19.790221892475824 37.31220491085535 0 0 -1 I I #
point $-1 17.413975806471782 -19.790221892475824 5.9406299793814572 #
straight-curve $-1 14.680499492908154 -19.790221892475824 0.62632089071634922 1 0 0 I I #
point $-1 17.413975806471782 -19.790221892475824 0.62632089071634867 #
point $-1 24.240846194668663 -12.214119825737784 -2.0201478503905408 #
point $-1 34.481151776963969 -12.214119825737784 -2.0201478503905408 #
straight-curve $-1 41.308022165160835 19.790221892475824 49.766595245844478 0 0 -1 I I #
point $-1 41.308022165160835 19.790221892475824 5.9406299793814572 #
straight-curve $-1 14.680499492908154 19.790221892475824 0.62632089071635555 -1 0 0 I I #
point $-1 41.308022165160835 19.790221892475824 0.62632089071635733 #
point $-1 24.240846194668663 12.214119825737788 -2.0201478503905408 #
point $-1 34.481151776963969 12.214119825737788 -2.0201478503905408 #
straight-curve $-1 -52.905272657034772 -9.4408492902235324 5.9406299793814572 0 -1 0 I I #
End-of-ACIS-data 