500 0 11 0           
7 Unknown 11 ACIS 5.0 NT 24 Thu Mar 25 23:00:54 1999 
-1 9.9999999999999995e-007 1e-010 
body $-1 $11 $-1 $12 #
body $-1 $13 $-1 $14 #
body $-1 $15 $-1 $16 #
body $-1 $17 $-1 $18 #
body $-1 $19 $-1 $20 #
body $-1 $21 $-1 $22 #
body $-1 $23 $-1 $24 #
body $-1 $25 $-1 $26 #
body $-1 $27 $-1 $28 #
body $-1 $29 $-1 $30 #
body $-1 $31 $-1 $32 #
lump $-1 $-1 $33 $0 #
transform $-1 1 0 0 0 1 0 0 0 1 42.227851191747796 21.935749403515047 4.6498406386588584 1 rotate no_reflect no_shear #
lump $-1 $-1 $34 $1 #
transform $-1 1 0 0 0 1 0 0 0 1 42.227851191747796 21.935749403515047 4.6498406386588584 1 rotate no_reflect no_shear #
lump $-1 $-1 $35 $2 #
transform $-1 1 0 0 0 1 0 0 0 1 42.227851191747796 21.935749403515047 4.6498406386588584 1 rotate no_reflect no_shear #
lump $-1 $-1 $36 $3 #
transform $-1 1 0 0 0 1 0 0 0 1 42.227851191747796 21.935749403515047 4.6498406386588584 1 rotate no_reflect no_shear #
lump $-1 $-1 $37 $4 #
transform $-1 1 0 0 0 1 0 0 0 1 42.227851191747796 21.935749403515047 4.6498406386588584 1 rotate no_reflect no_shear #
lump $-1 $-1 $38 $5 #
transform $-1 1 0 0 0 1 0 0 0 1 42.227851191747796 21.935749403515047 4.6498406386588584 1 rotate no_reflect no_shear #
lump $-1 $-1 $39 $6 #
transform $-1 1 0 0 0 1 0 0 0 1 42.227851191747796 21.935749403515047 4.6498406386588584 1 rotate no_reflect no_shear #
lump $-1 $-1 $40 $7 #
transform $-1 1 0 0 0 1 0 0 0 1 42.227851191747796 21.935749403515047 4.6498406386588584 1 rotate no_reflect no_shear #
lump $-1 $-1 $41 $8 #
transform $-1 1 0 0 0 1 0 0 0 1 42.227851191747796 21.935749403515047 4.6498406386588584 1 rotate no_reflect no_shear #
lump $-1 $-1 $42 $9 #
transform $-1 1 0 0 0 1 0 0 0 1 42.227851191747796 21.935749403515047 4.6498406386588584 1 rotate no_reflect no_shear #
lump $-1 $-1 $43 $10 #
transform $-1 1 0 0 0 1 0 0 0 1 42.227851191747796 21.935749403515047 4.6498406386588584 1 rotate no_reflect no_shear #
shell $-1 $-1 $-1 $44 $-1 $11 #
shell $-1 $-1 $-1 $45 $-1 $13 #
shell $-1 $-1 $-1 $46 $-1 $15 #
shell $-1 $-1 $-1 $47 $-1 $17 #
shell $-1 $-1 $-1 $48 $-1 $19 #
shell $-1 $-1 $-1 $49 $-1 $21 #
shell $-1 $-1 $-1 $50 $-1 $23 #
shell $-1 $-1 $-1 $51 $-1 $25 #
shell $-1 $-1 $-1 $52 $-1 $27 #
shell $-1 $-1 $-1 $53 $-1 $29 #
shell $-1 $-1 $-1 $54 $-1 $31 #
face $-1 $55 $56 $33 $-1 $57 forward single #
face $-1 $58 $59 $34 $-1 $60 forward single #
face $-1 $61 $62 $35 $-1 $63 forward single #
face $-1 $64 $65 $36 $-1 $66 reversed single #
face $-1 $67 $68 $37 $-1 $69 forward single #
face $-1 $70 $71 $38 $-1 $72 forward single #
face $-1 $73 $74 $39 $-1 $75 forward single #
face $-1 $76 $77 $40 $-1 $78 reversed single #
face $-1 $79 $80 $41 $-1 $81 forward single #
face $-1 $82 $83 $42 $-1 $84 forward single #
face $-1 $85 $86 $43 $-1 $87 forward single #
face $-1 $88 $89 $33 $-1 $90 reversed single #
loop $-1 $-1 $91 $44 #
plane-surface $-1 0 0 4.6498406386588584 0 0 1 1 0 0 forward_v I I I I #
face $-1 $92 $93 $34 $-1 $94 reversed single #
loop $-1 $-1 $95 $45 #
plane-surface $-1 -40.567199497046424 0 3.0158493921021625 0 0 1 1 0 0 forward_v I I I I #
face $-1 $96 $97 $35 $-1 $98 reversed single #
loop $-1 $-1 $99 $46 #
plane-surface $-1 40.567199497046424 0 3.0158493921021625 0 0 1 1 0 0 forward_v I I I I #
face $-1 $100 $101 $36 $-1 $102 reversed single #
loop $-1 $-1 $103 $47 #
plane-surface $-1 28.539265450386814 -12.158808439806862 28.20412237872408 0 0.62932039886446345 0.77714595512881146 1 0 0 forward_v I I I I #
face $-1 $104 $105 $37 $-1 $106 forward single #
loop $-1 $107 $108 $48 #
cone-surface $-1 22.318896039211872 18.621288430910802 1.6211870318458272 0 -0.62932039886446345 -0.77714595512881146 1.5 0 0 1 I I 0 1 1.5 forward I I I I #
face $-1 $109 $110 $38 $-1 $111 forward single #
loop $-1 $112 $113 $49 #
cone-surface $-1 28.539265450386814 18.621288430910802 1.6211870318458272 0 -0.62932039886446345 -0.77714595512881146 1.5 0 0 1 I I 0 1 1.5 forward I I I I #
face $-1 $114 $115 $39 $-1 $116 forward single #
loop $-1 $117 $118 $50 #
cone-surface $-1 34.759634861561757 18.621288430910802 1.6211870318458272 0 -0.62932039886446345 -0.77714595512881146 1.5 0 0 1 I I 0 1 1.5 forward I I I I #
face $-1 $119 $120 $40 $-1 $121 reversed single #
loop $-1 $-1 $122 $51 #
plane-surface $-1 18.171983098428587 -75.085445713874918 66.229300745598394 1 0 0 0 0.62932039886446345 -0.77714595512881146 forward_v I I I I #
face $-1 $123 $124 $41 $-1 $125 forward single #
loop $-1 $126 $127 $52 #
cone-surface $-1 22.318896039211872 -18.621288430910806 1.6211870318458228 0 0.62932039886446345 -0.77714595512881146 1.5 0 0 1 I I 0 1 1.5 forward I I I I #
face $-1 $128 $129 $42 $-1 $130 forward single #
loop $-1 $131 $132 $53 #
cone-surface $-1 28.539265450386814 -18.621288430910806 1.6211870318458228 0 0.62932039886446345 -0.77714595512881146 1.5 0 0 1 I I 0 1 1.5 forward I I I I #
face $-1 $133 $134 $43 $-1 $135 forward single #
loop $-1 $136 $137 $54 #
cone-surface $-1 34.759634861561757 -18.621288430910806 1.6211870318458228 0 0.62932039886446345 -0.77714595512881146 1.5 0 0 1 I I 0 1 1.5 forward I I I I #
face $-1 $138 $139 $33 $-1 $140 reversed single #
loop $-1 $-1 $141 $55 #
plane-surface $-1 0 0 -4.6498406386588584 0 0 1 1 0 0 forward_v I I I I #
coedge $-1 $142 $143 $144 $145 forward $56 $-1 #
face $-1 $146 $147 $34 $-1 $148 reversed single #
loop $-1 $-1 $149 $58 #
plane-surface $-1 -40.567199497046424 0 0.015849392102162518 0 0 1 1 0 0 forward_v I I I I #
coedge $-1 $150 $151 $152 $153 forward $59 $-1 #
face $-1 $154 $155 $35 $-1 $156 reversed single #
loop $-1 $-1 $157 $61 #
plane-surface $-1 40.567199497046424 0 0.015849392102162518 0 0 1 1 0 0 forward_v I I I I #
coedge $-1 $158 $159 $160 $161 reversed $62 $-1 #
face $-1 $162 $163 $36 $-1 $164 forward single #
loop $-1 $-1 $165 $64 #
plane-surface $-1 18.171983098428587 40.990887870553003 93.838529873620402 1 0 0 0 -0.62932039886446345 -0.77714595512881146 forward_v I I I I #
coedge $-1 $166 $167 $168 $169 reversed $65 $-1 #
face $-1 $-1 $170 $37 $-1 $171 forward single #
loop $-1 $172 $173 $67 #
cone-surface $-1 22.318896039211872 17.338558607324281 0.037147652664582864 0 -0.62932039886446345 -0.77714595512881146 0.75 0 0 1 I I -0.70710678118654768 0.70710678118654757 0.75 forward I I I I #
loop $-1 $-1 $174 $48 #
coedge $-1 $108 $108 $175 $176 reversed $68 $-1 #
face $-1 $-1 $177 $38 $-1 $178 forward single #
loop $-1 $179 $180 $70 #
cone-surface $-1 28.539265450386814 17.338558607324281 0.037147652664582864 0 -0.62932039886446345 -0.77714595512881146 0.75 0 0 1 I I -0.70710678118654768 0.70710678118654757 0.75 forward I I I I #
loop $-1 $-1 $181 $49 #
coedge $-1 $113 $113 $182 $183 reversed $71 $-1 #
face $-1 $-1 $184 $39 $-1 $185 forward single #
loop $-1 $186 $187 $73 #
cone-surface $-1 34.759634861561757 17.338558607324281 0.037147652664582864 0 -0.62932039886446345 -0.77714595512881146 0.75 0 0 1 I I -0.70710678118654768 0.70710678118654757 0.75 forward I I I I #
loop $-1 $-1 $188 $50 #
coedge $-1 $118 $118 $189 $190 reversed $74 $-1 #
face $-1 $191 $192 $40 $-1 $193 forward single #
loop $-1 $-1 $194 $76 #
plane-surface $-1 28.539265450386814 -21.935749403515054 0.59489325070207144 0 -0.62932039886446345 0.77714595512881146 1 0 0 forward_v I I I I #
coedge $-1 $195 $196 $197 $198 reversed $77 $-1 #
face $-1 $-1 $199 $41 $-1 $200 forward single #
loop $-1 $201 $202 $79 #
cone-surface $-1 22.318896039211872 -17.338558607324284 0.037147652664578423 0 0.62932039886446345 -0.77714595512881146 0.75 0 0 1 I I -0.70710678118654768 0.70710678118654757 0.75 forward I I I I #
loop $-1 $-1 $203 $52 #
coedge $-1 $127 $127 $204 $205 reversed $80 $-1 #
face $-1 $-1 $206 $42 $-1 $207 forward single #
loop $-1 $208 $209 $82 #
cone-surface $-1 28.539265450386814 -17.338558607324284 0.037147652664578423 0 0.62932039886446345 -0.77714595512881146 0.75 0 0 1 I I -0.70710678118654768 0.70710678118654757 0.75 forward I I I I #
loop $-1 $-1 $210 $53 #
coedge $-1 $132 $132 $211 $212 reversed $83 $-1 #
face $-1 $-1 $213 $43 $-1 $214 forward single #
loop $-1 $215 $216 $85 #
cone-surface $-1 34.759634861561757 -17.338558607324284 0.037147652664578423 0 0.62932039886446345 -0.77714595512881146 0.75 0 0 1 I I -0.70710678118654768 0.70710678118654757 0.75 forward I I I I #
loop $-1 $-1 $217 $54 #
coedge $-1 $137 $137 $218 $219 reversed $86 $-1 #
face $-1 $220 $221 $33 $-1 $222 reversed single #
loop $-1 $-1 $223 $88 #
plane-surface $-1 0 -21.935749403515047 0 0 1 0 0 0 1 forward_v I I I I #
coedge $-1 $224 $225 $226 $227 forward $89 $-1 #
coedge $-1 $228 $91 $229 $230 forward $56 $-1 #
coedge $-1 $91 $228 $231 $232 forward $56 $-1 #
coedge $-1 $233 $234 $91 $145 reversed $235 $-1 #
edge $-1 $236 -21.935749403515047 $237 21.935749403515047 $144 $238 forward 7 unknown #
face $-1 $239 $240 $34 $-1 $241 reversed single #
loop $-1 $-1 $242 $92 #
plane-surface $-1 -38.906547802345052 0 1.5158493921021625 -1 0 0 0 0 1 forward_v I I I I #
coedge $-1 $243 $244 $245 $246 forward $93 $-1 #
coedge $-1 $247 $95 $248 $249 reversed $59 $-1 #
coedge $-1 $95 $247 $250 $251 reversed $59 $-1 #
coedge $-1 $242 $252 $95 $153 reversed $147 $-1 #
edge $-1 $253 -21.935749403515047 $254 21.935749403515047 $152 $255 forward 7 unknown #
face $-1 $256 $257 $35 $-1 $258 reversed single #
loop $-1 $-1 $259 $96 #
plane-surface $-1 38.906547802345052 0 1.5158493921021625 1 0 0 0 0 -1 forward_v I I I I #
coedge $-1 $260 $261 $262 $263 reversed $97 $-1 #
coedge $-1 $264 $99 $265 $266 reversed $62 $-1 #
coedge $-1 $99 $264 $267 $268 reversed $62 $-1 #
coedge $-1 $269 $270 $99 $161 forward $271 $-1 #
edge $-1 $272 -21.935749403515047 $273 21.935749403515047 $160 $274 forward 7 unknown #
face $-1 $275 $276 $36 $-1 $277 reversed single #
loop $-1 $-1 $278 $100 #
plane-surface $-1 38.906547802345052 0 1.5158493921021625 1 0 0 0 0 -1 forward_v I I I I #
coedge $-1 $279 $280 $281 $282 reversed $101 $-1 #
coedge $-1 $283 $103 $278 $284 reversed $65 $-1 #
coedge $-1 $103 $283 $279 $285 forward $65 $-1 #
coedge $-1 $281 $286 $103 $169 forward $276 $-1 #
edge $-1 $287 -24.636915077151645 $288 -3.9023503732351799 $168 $289 forward 7 unknown #
loop $-1 $-1 $175 $104 #
plane-surface $-1 28.539265450386814 -12.158808439806862 28.20412237872408 0 0.62932039886446345 0.77714595512881146 1 0 0 forward_v I I I I #
loop $-1 $-1 $290 $67 #
coedge $-1 $173 $173 $174 $291 reversed $105 $-1 #
coedge $-1 $174 $174 $173 $291 forward $107 $-1 #
coedge $-1 $175 $175 $108 $176 forward $170 $-1 #
edge $-1 $292 -2.3545776121130982e-015 $292 6.2831853071795978 $175 $293 forward 7 unknown #
loop $-1 $-1 $182 $109 #
plane-surface $-1 28.539265450386814 -12.158808439806862 28.20412237872408 0 0.62932039886446345 0.77714595512881146 1 0 0 forward_v I I I I #
loop $-1 $-1 $294 $70 #
coedge $-1 $180 $180 $181 $295 reversed $110 $-1 #
coedge $-1 $181 $181 $180 $295 forward $112 $-1 #
coedge $-1 $182 $182 $113 $183 forward $177 $-1 #
edge $-1 $296 -2.3545776121130982e-015 $296 6.2831853071795978 $182 $297 forward 7 unknown #
loop $-1 $-1 $189 $114 #
plane-surface $-1 28.539265450386814 -12.158808439806862 28.20412237872408 0 0.62932039886446345 0.77714595512881146 1 0 0 forward_v I I I I #
loop $-1 $-1 $298 $73 #
coedge $-1 $187 $187 $188 $299 reversed $115 $-1 #
coedge $-1 $188 $188 $187 $299 forward $117 $-1 #
coedge $-1 $189 $189 $118 $190 forward $184 $-1 #
edge $-1 $300 -2.3545776121130982e-015 $300 6.2831853071795978 $189 $301 forward 7 unknown #
face $-1 $302 $303 $40 $-1 $304 forward single #
loop $-1 $-1 $305 $119 #
plane-surface $-1 0 0 4.6498406386588584 0 0 1 1 0 0 forward_v I I I I #
coedge $-1 $306 $307 $308 $309 reversed $120 $-1 #
coedge $-1 $196 $122 $310 $311 reversed $77 $-1 #
coedge $-1 $122 $195 $306 $312 reversed $77 $-1 #
coedge $-1 $308 $313 $122 $198 forward $314 $-1 #
edge $-1 $315 28.464809734140339 $316 32.519757122097118 $197 $317 forward 7 unknown #
loop $-1 $-1 $204 $123 #
plane-surface $-1 28.539265450386814 -21.935749403515054 0.59489325070207144 0 -0.62932039886446345 0.77714595512881146 1 0 0 forward_v I I I I #
loop $-1 $-1 $318 $79 #
coedge $-1 $202 $202 $203 $319 reversed $124 $-1 #
coedge $-1 $203 $203 $202 $319 forward $126 $-1 #
coedge $-1 $204 $204 $127 $205 forward $199 $-1 #
edge $-1 $320 1.0503637516332849e-015 $320 6.2831853071796013 $204 $321 forward 7 unknown #
loop $-1 $-1 $211 $128 #
plane-surface $-1 28.539265450386814 -21.935749403515054 0.59489325070207144 0 -0.62932039886446345 0.77714595512881146 1 0 0 forward_v I I I I #
loop $-1 $-1 $322 $82 #
coedge $-1 $209 $209 $210 $323 reversed $129 $-1 #
coedge $-1 $210 $210 $209 $323 forward $131 $-1 #
coedge $-1 $211 $211 $132 $212 forward $206 $-1 #
edge $-1 $324 1.0503637516332849e-015 $324 6.2831853071796013 $211 $325 forward 7 unknown #
loop $-1 $-1 $218 $133 #
plane-surface $-1 28.539265450386814 -21.935749403515054 0.59489325070207144 0 -0.62932039886446345 0.77714595512881146 1 0 0 forward_v I I I I #
loop $-1 $-1 $326 $85 #
coedge $-1 $216 $216 $217 $327 reversed $134 $-1 #
coedge $-1 $217 $217 $216 $327 forward $136 $-1 #
coedge $-1 $218 $218 $137 $219 forward $213 $-1 #
edge $-1 $328 1.0503637516332849e-015 $328 6.2831853071796013 $218 $329 forward 7 unknown #
face $-1 $330 $331 $33 $-1 $332 reversed single #
loop $-1 $-1 $333 $138 #
plane-surface $-1 -42.227851191747796 0 0 1 0 0 0 0 -1 forward_v I I I I #
coedge $-1 $334 $231 $335 $336 forward $139 $-1 #
coedge $-1 $337 $141 $334 $338 forward $89 $-1 #
coedge $-1 $141 $337 $339 $340 forward $89 $-1 #
coedge $-1 $234 $233 $141 $227 reversed $235 $-1 #
edge $-1 $341 -21.935749403515047 $342 21.935749403515047 $226 $343 forward 7 unknown #
coedge $-1 $143 $142 $344 $345 forward $56 $-1 #
coedge $-1 $346 $347 $142 $230 reversed $331 $-1 #
edge $-1 $237 -42.227851191747796 $348 42.227851191747796 $229 $349 forward 7 unknown #
coedge $-1 $223 $350 $143 $232 reversed $139 $-1 #
edge $-1 $351 -42.227851191747796 $236 42.227851191747796 $231 $352 forward 7 unknown #
coedge $-1 $226 $144 $350 $353 forward $235 $-1 #
coedge $-1 $144 $226 $346 $354 reversed $235 $-1 #
loop $-1 $-1 $233 $330 #
vertex $-1 $145 $355 #
vertex $-1 $145 $356 #
straight-curve $-1 42.227851191747796 0 4.6498406386588584 0 1 0 I I #
face $-1 $357 $358 $34 $-1 $359 reversed single #
loop $-1 $-1 $360 $146 #
plane-surface $-1 0 -21.935749403515047 0 0 1 0 0 0 1 forward_v I I I I #
coedge $-1 $245 $152 $361 $362 reversed $147 $-1 #
coedge $-1 $363 $149 $360 $364 reversed $93 $-1 #
coedge $-1 $149 $363 $365 $366 reversed $93 $-1 #
coedge $-1 $252 $242 $149 $246 reversed $147 $-1 #
edge $-1 $367 -21.935749403515047 $368 21.935749403515047 $245 $369 forward 7 unknown #
coedge $-1 $151 $150 $370 $371 reversed $59 $-1 #
coedge $-1 $372 $373 $150 $249 forward $374 $-1 #
edge $-1 $375 -21.944251443224584 $254 -18.62294805382184 $248 $376 forward 7 unknown #
coedge $-1 $377 $361 $151 $251 forward $240 $-1 #
edge $-1 $253 18.62294805382184 $378 21.944251443224584 $250 $379 forward 7 unknown #
coedge $-1 $152 $245 $372 $380 reversed $147 $-1 #
vertex $-1 $251 $381 #
vertex $-1 $249 $382 #
straight-curve $-1 -38.906547802345052 0 3.0158493921021625 0 1 0 I I #
face $-1 $383 $384 $35 $-1 $385 reversed single #
loop $-1 $-1 $267 $154 #
plane-surface $-1 0 -21.935749403515047 0 0 1 0 0 0 1 forward_v I I I I #
coedge $-1 $386 $387 $388 $389 reversed $155 $-1 #
coedge $-1 $390 $157 $391 $392 reversed $97 $-1 #
coedge $-1 $157 $390 $393 $394 reversed $97 $-1 #
coedge $-1 $270 $269 $157 $263 forward $271 $-1 #
edge $-1 $395 -21.935749403515047 $396 21.935749403515047 $262 $397 forward 7 unknown #
coedge $-1 $159 $158 $387 $398 forward $62 $-1 #
coedge $-1 $399 $388 $158 $266 forward $384 $-1 #
edge $-1 $400 18.62294805382184 $272 21.944251443224584 $265 $401 forward 7 unknown #
coedge $-1 $402 $403 $159 $268 forward $257 $-1 #
edge $-1 $273 -21.944251443224584 $404 -18.62294805382184 $267 $405 forward 7 unknown #
coedge $-1 $262 $160 $403 $406 forward $271 $-1 #
coedge $-1 $160 $262 $399 $407 reversed $271 $-1 #
loop $-1 $-1 $160 $383 #
vertex $-1 $407 $408 #
vertex $-1 $406 $409 #
straight-curve $-1 42.227851191747796 0 3.0158493921021625 0 -1 0 I I #
face $-1 $-1 $410 $36 $-1 $411 forward single #
loop $-1 $-1 $286 $162 #
plane-surface $-1 0 21.935749403515047 0 0 -1 0 0 0 -1 forward_v I I I I #
coedge $-1 $412 $413 $166 $284 forward $163 $-1 #
coedge $-1 $280 $165 $167 $285 reversed $101 $-1 #
coedge $-1 $165 $279 $414 $415 reversed $101 $-1 #
coedge $-1 $416 $168 $165 $282 forward $276 $-1 #
edge $-1 $288 -46.324371686108123 $417 -42.269424298151343 $281 $418 forward 7 unknown #
coedge $-1 $167 $166 $419 $420 reversed $65 $-1 #
edge $-1 $421 24.30580200748042 $287 30.749177107466814 $278 $422 forward 7 unknown #
edge $-1 $423 37.428123707043696 $288 43.871498807030086 $279 $424 forward 7 unknown #
coedge $-1 $168 $416 $412 $425 forward $276 $-1 #
vertex $-1 $284 $426 #
vertex $-1 $169 $427 #
straight-curve $-1 14.269632725193407 21.935749403515047 0.59489325070207144 -1 0 0 I I #
coedge $-1 $290 $290 $-1 $428 reversed $172 $-1 #
edge $-1 $429 0 $429 6.2831853071796004 $173 $430 forward 7 unknown #
vertex $-1 $176 $431 #
ellipse-curve $-1 22.318896039211872 19.432027955348982 2.6223669446804707 0 0.62932039886446345 0.77714595512881146 1.5 0 0 1 I I #
coedge $-1 $294 $294 $-1 $432 reversed $179 $-1 #
edge $-1 $433 0 $433 6.2831853071796004 $180 $434 forward 7 unknown #
vertex $-1 $183 $435 #
ellipse-curve $-1 28.539265450386814 19.432027955348982 2.6223669446804707 0 0.62932039886446345 0.77714595512881146 1.5 0 0 1 I I #
coedge $-1 $298 $298 $-1 $436 reversed $186 $-1 #
edge $-1 $437 0 $437 6.2831853071796004 $187 $438 forward 7 unknown #
vertex $-1 $190 $439 #
ellipse-curve $-1 34.759634861561757 19.432027955348982 2.6223669446804707 0 0.62932039886446345 0.77714595512881146 1.5 0 0 1 I I #
face $-1 $-1 $314 $40 $-1 $440 reversed single #
loop $-1 $-1 $441 $191 #
plane-surface $-1 38.906547802345052 0 1.5158493921021625 1 0 0 0 0 -1 forward_v I I I I #
coedge $-1 $442 $443 $444 $445 forward $192 $-1 #
coedge $-1 $446 $194 $196 $312 forward $120 $-1 #
coedge $-1 $194 $446 $441 $447 forward $120 $-1 #
coedge $-1 $448 $197 $194 $309 forward $314 $-1 #
edge $-1 $316 3.9023503732351799 $449 24.636915077151645 $308 $450 forward 7 unknown #
coedge $-1 $443 $442 $195 $311 forward $192 $-1 #
edge $-1 $451 -20.614416349754528 $315 -15.606973453422412 $310 $452 forward 7 unknown #
edge $-1 $316 9.1551213131864128e-015 $451 6.4433750999863886 $196 $453 forward 7 unknown #
coedge $-1 $197 $448 $443 $454 reversed $314 $-1 #
loop $-1 $-1 $448 $302 #
vertex $-1 $454 $455 #
vertex $-1 $198 $456 #
straight-curve $-1 18.171983098428587 -21.935749403515047 33.114650372799197 0 0 -1 I I #
coedge $-1 $318 $318 $-1 $457 reversed $201 $-1 #
edge $-1 $458 0 $458 6.2831853071796004 $202 $459 forward 7 unknown #
vertex $-1 $205 $460 #
ellipse-curve $-1 22.318896039211872 -19.432027955348985 2.6223669446804694 0 -0.62932039886446345 0.77714595512881146 1.5 0 0 1 I I #
coedge $-1 $322 $322 $-1 $461 reversed $208 $-1 #
edge $-1 $462 0 $462 6.2831853071796004 $209 $463 forward 7 unknown #
vertex $-1 $212 $464 #
ellipse-curve $-1 28.539265450386814 -19.432027955348985 2.6223669446804694 0 -0.62932039886446345 0.77714595512881146 1.5 0 0 1 I I #
coedge $-1 $326 $326 $-1 $465 reversed $215 $-1 #
edge $-1 $466 0 $466 6.2831853071796004 $216 $467 forward 7 unknown #
vertex $-1 $219 $468 #
ellipse-curve $-1 34.759634861561757 -19.432027955348985 2.6223669446804694 0 -0.62932039886446345 0.77714595512881146 1.5 0 0 1 I I #
face $-1 $-1 $235 $33 $-1 $469 reversed single #
loop $-1 $-1 $346 $220 #
plane-surface $-1 0 21.935749403515047 0 0 -1 0 0 0 -1 forward_v I I I I #
coedge $-1 $470 $344 $347 $471 forward $221 $-1 #
coedge $-1 $350 $223 $224 $338 reversed $139 $-1 #
coedge $-1 $344 $470 $223 $336 reversed $221 $-1 #
edge $-1 $351 -4.6498406386588584 $472 4.6498406386588584 $335 $473 forward 7 unknown #
coedge $-1 $225 $224 $470 $474 forward $89 $-1 #
edge $-1 $342 -42.227851191747796 $472 42.227851191747796 $334 $475 forward 7 unknown #
coedge $-1 $347 $346 $225 $340 reversed $331 $-1 #
edge $-1 $476 -42.227851191747796 $341 42.227851191747796 $339 $477 forward 7 unknown #
vertex $-1 $227 $478 #
vertex $-1 $353 $479 #
straight-curve $-1 42.227851191747796 0 -4.6498406386588584 0 -1 0 I I #
coedge $-1 $333 $335 $228 $345 reversed $221 $-1 #
edge $-1 $348 -21.935749403515047 $351 21.935749403515047 $344 $480 forward 7 unknown #
coedge $-1 $339 $229 $234 $354 forward $331 $-1 #
coedge $-1 $229 $339 $333 $471 reversed $331 $-1 #
vertex $-1 $230 $481 #
straight-curve $-1 0 21.935749403515047 4.6498406386588584 -1 0 0 I I #
coedge $-1 $231 $334 $233 $353 reversed $139 $-1 #
vertex $-1 $345 $482 #
straight-curve $-1 0 -21.935749403515047 4.6498406386588584 1 0 0 I I #
edge $-1 $236 -4.6498406386588584 $342 4.6498406386588584 $233 $483 forward 7 unknown #
edge $-1 $237 -4.6498406386588584 $341 4.6498406386588584 $234 $484 forward 7 unknown #
point $-1 42.227851191747796 -21.935749403515047 4.6498406386588584 #
point $-1 42.227851191747796 21.935749403515047 4.6498406386588584 #
face $-1 $-1 $374 $34 $-1 $485 reversed single #
loop $-1 $-1 $486 $239 #
plane-surface $-1 -42.227851191747796 0 0 1 0 0 0 0 -1 forward_v I I I I #
coedge $-1 $361 $377 $243 $364 forward $240 $-1 #
coedge $-1 $250 $360 $242 $362 forward $240 $-1 #
edge $-1 $368 -0.74207530394891874 $253 2.2579246960510813 $361 $487 forward 7 unknown #
coedge $-1 $244 $243 $486 $488 reversed $93 $-1 #
edge $-1 $489 -21.944251443224584 $368 -18.62294805382184 $360 $490 forward 7 unknown #
coedge $-1 $373 $372 $244 $366 forward $374 $-1 #
edge $-1 $367 18.62294805382184 $491 21.944251443224584 $365 $492 forward 7 unknown #
vertex $-1 $366 $493 #
vertex $-1 $364 $494 #
straight-curve $-1 -38.906547802345052 0 0.015849392102162518 0 -1 0 I I #
coedge $-1 $495 $496 $247 $371 forward $358 $-1 #
edge $-1 $378 -21.935749403515047 $375 21.935749403515047 $370 $497 forward 7 unknown #
coedge $-1 $365 $248 $252 $380 forward $374 $-1 #
coedge $-1 $248 $365 $495 $498 reversed $374 $-1 #
loop $-1 $-1 $365 $357 #
vertex $-1 $498 $499 #
straight-curve $-1 -20.283599748523212 21.935749403515047 3.0158493921021625 1 0 0 I I #
coedge $-1 $360 $250 $496 $500 forward $240 $-1 #
vertex $-1 $500 $501 #
straight-curve $-1 -20.283599748523212 -21.935749403515047 3.0158493921021625 -1 0 0 I I #
edge $-1 $254 -2.2579246960510813 $367 0.74207530394891874 $372 $502 forward 7 unknown #
point $-1 -38.906547802345052 -21.935749403515047 3.0158493921021625 #
point $-1 -38.906547802345052 21.935749403515047 3.0158493921021625 #
face $-1 $-1 $271 $35 $-1 $503 reversed single #
loop $-1 $-1 $265 $256 #
plane-surface $-1 0 21.935749403515047 0 0 -1 0 0 0 -1 forward_v I I I I #
coedge $-1 $504 $259 $390 $505 reversed $155 $-1 #
coedge $-1 $259 $504 $264 $398 reversed $155 $-1 #
coedge $-1 $265 $393 $259 $389 forward $384 $-1 #
edge $-1 $506 -0.74207530394891874 $400 2.2579246960510813 $388 $507 forward 7 unknown #
coedge $-1 $261 $260 $386 $505 forward $97 $-1 #
coedge $-1 $403 $402 $260 $392 forward $257 $-1 #
edge $-1 $508 18.62294805382184 $395 21.944251443224584 $391 $509 forward 7 unknown #
coedge $-1 $388 $399 $261 $394 forward $384 $-1 #
edge $-1 $396 -21.944251443224584 $506 -18.62294805382184 $393 $510 forward 7 unknown #
vertex $-1 $263 $511 #
vertex $-1 $263 $512 #
straight-curve $-1 42.227851191747796 0 0.015849392102162518 0 1 0 I I #
edge $-1 $400 -21.935749403515047 $404 21.935749403515047 $387 $513 forward 7 unknown #
coedge $-1 $393 $265 $270 $407 forward $384 $-1 #
vertex $-1 $266 $514 #
straight-curve $-1 20.283599748523212 21.935749403515047 3.0158493921021625 1 0 0 I I #
coedge $-1 $391 $267 $504 $515 forward $257 $-1 #
coedge $-1 $267 $391 $269 $406 reversed $257 $-1 #
vertex $-1 $268 $516 #
straight-curve $-1 20.283599748523212 -21.935749403515047 3.0158493921021625 -1 0 0 I I #
edge $-1 $273 -3.0158493921021625 $395 -0.015849392102162518 $269 $517 forward 7 unknown #
edge $-1 $272 -3.0158493921021625 $396 -0.015849392102162518 $270 $518 forward 7 unknown #
point $-1 42.227851191747796 21.935749403515047 3.0158493921021625 #
point $-1 42.227851191747796 -21.935749403515047 3.0158493921021625 #
loop $-1 $-1 $519 $275 #
plane-surface $-1 0 0 4.6498406386588584 0 0 1 1 0 0 forward_v I I I I #
coedge $-1 $413 $278 $286 $425 reversed $163 $-1 #
coedge $-1 $278 $412 $519 $520 reversed $163 $-1 #
coedge $-1 $419 $521 $280 $415 forward $410 $-1 #
edge $-1 $417 -1.4403054682385452 $423 3.5671374280935773 $414 $522 forward 7 unknown #
coedge $-1 $286 $281 $521 $523 reversed $276 $-1 #
vertex $-1 $415 $524 #
straight-curve $-1 18.171983098428587 21.935749403515047 46.919264936810201 0 0 1 I I #
coedge $-1 $519 $414 $283 $420 forward $410 $-1 #
edge $-1 $423 3.9023503732351799 $421 24.636915077151638 $419 $525 forward 7 unknown #
vertex $-1 $520 $526 #
straight-curve $-1 38.906547802345052 -1.960849209092232 19.945977652727116 0 0.77714595512881146 -0.62932039886446345 I I #
vertex $-1 $420 $527 #
straight-curve $-1 18.171983098428587 -12.158808439806862 28.20412237872408 0 0.77714595512881146 -0.62932039886446345 I I #
edge $-1 $528 42.269424298151343 $287 46.32437168610813 $286 $529 forward 7 unknown #
point $-1 38.906547802345052 21.935749403515047 0.59489325070207277 #
point $-1 18.171983098428587 21.935749403515047 0.59489325070207499 #
edge $-1 $530 1 $530 0 $290 $-1 forward 7 unknown #
vertex $-1 $291 $531 #
ellipse-curve $-1 22.318896039211872 17.810548906472629 0.62000711901119132 0 0.62932039886446345 0.77714595512881146 1.5 0 0 1 I I #
point $-1 23.818896039211872 19.432027955348971 2.6223669446804632 #
edge $-1 $532 1 $532 0 $294 $-1 forward 7 unknown #
vertex $-1 $295 $533 #
ellipse-curve $-1 28.539265450386814 17.810548906472629 0.62000711901119132 0 0.62932039886446345 0.77714595512881146 1.5 0 0 1 I I #
point $-1 30.039265450386814 19.432027955348971 2.6223669446804632 #
edge $-1 $534 1 $534 0 $298 $-1 forward 7 unknown #
vertex $-1 $299 $535 #
ellipse-curve $-1 34.759634861561757 17.810548906472629 0.62000711901119132 0 0.62932039886446345 0.77714595512881146 1.5 0 0 1 I I #
point $-1 36.259634861561757 19.432027955348971 2.6223669446804632 #
plane-surface $-1 0 -21.935749403515047 0 0 1 0 0 0 1 forward_v I I I I #
coedge $-1 $444 $536 $307 $447 reversed $303 $-1 #
coedge $-1 $310 $305 $446 $537 forward $192 $-1 #
coedge $-1 $305 $310 $313 $454 forward $192 $-1 #
coedge $-1 $536 $441 $305 $445 reversed $303 $-1 #
edge $-1 $538 15.606973453422412 $539 20.614416349754528 $305 $540 forward 7 unknown #
coedge $-1 $307 $306 $442 $537 reversed $120 $-1 #
edge $-1 $539 -6.4433750999863886 $449 -9.1551213131864128e-015 $441 $541 forward 7 unknown #
coedge $-1 $313 $308 $536 $542 forward $314 $-1 #
vertex $-1 $542 $543 #
straight-curve $-1 14.269632725193407 -21.935749403515047 0.59489325070207744 1 0 0 I I #
vertex $-1 $311 $544 #
straight-curve $-1 18.171983098428587 -37.542722856937459 4.6498406386588584 0 -1 0 I I #
straight-curve $-1 18.171983098428587 -21.935749403515054 0.59489325070207144 0 0.77714595512881146 0.62932039886446345 I I #
edge $-1 $315 18.171983098428587 $538 38.906547802345045 $313 $545 forward 7 unknown #
point $-1 18.171983098428587 -21.935749403515047 4.6498406386588584 #
point $-1 18.171983098428587 -21.935749403515047 0.59489325070207721 #
edge $-1 $546 1 $546 0 $318 $-1 forward 7 unknown #
vertex $-1 $319 $547 #
ellipse-curve $-1 22.318896039211872 -17.810548906472633 0.62000711901118688 0 -0.62932039886446345 0.77714595512881146 1.5 0 0 1 I I #
point $-1 23.818896039211872 -19.432027955348975 2.6223669446804587 #
edge $-1 $548 1 $548 0 $322 $-1 forward 7 unknown #
vertex $-1 $323 $549 #
ellipse-curve $-1 28.539265450386814 -17.810548906472633 0.62000711901118688 0 -0.62932039886446345 0.77714595512881146 1.5 0 0 1 I I #
point $-1 30.039265450386814 -19.432027955348975 2.6223669446804587 #
edge $-1 $550 1 $550 0 $326 $-1 forward 7 unknown #
vertex $-1 $327 $551 #
ellipse-curve $-1 34.759634861561757 -17.810548906472633 0.62000711901118688 0 -0.62932039886446345 0.77714595512881146 1.5 0 0 1 I I #
point $-1 36.259634861561757 -19.432027955348975 2.6223669446804587 #
plane-surface $-1 42.227851191747796 0 0 -1 0 0 0 0 1 forward_v I I I I #
coedge $-1 $335 $333 $337 $474 reversed $221 $-1 #
edge $-1 $348 -4.6498406386588584 $476 4.6498406386588584 $347 $552 forward 7 unknown #
vertex $-1 $474 $553 #
straight-curve $-1 -42.227851191747796 -21.935749403515047 0 0 0 -1 I I #
edge $-1 $472 -21.935749403515047 $476 21.935749403515047 $470 $554 forward 7 unknown #
straight-curve $-1 0 -21.935749403515047 -4.6498406386588584 -1 0 0 I I #
vertex $-1 $340 $555 #
straight-curve $-1 0 21.935749403515047 -4.6498406386588584 1 0 0 I I #
point $-1 42.227851191747796 21.935749403515047 -4.6498406386588584 #
point $-1 42.227851191747796 -21.935749403515047 -4.6498406386588584 #
straight-curve $-1 -42.227851191747796 0 4.6498406386588584 0 -1 0 I I #
point $-1 -42.227851191747796 21.935749403515047 4.6498406386588584 #
point $-1 -42.227851191747796 -21.935749403515047 4.6498406386588584 #
straight-curve $-1 42.227851191747796 -21.935749403515047 0 0 0 -1 I I #
straight-curve $-1 42.227851191747796 21.935749403515047 0 0 0 -1 I I #
plane-surface $-1 0 21.935749403515047 0 0 -1 0 0 0 -1 forward_v I I I I #
coedge $-1 $496 $495 $363 $488 forward $358 $-1 #
straight-curve $-1 -38.906547802345052 -21.935749403515047 0.75792469605108126 0 0 1 I I #
edge $-1 $491 -21.935749403515047 $489 21.935749403515047 $486 $556 forward 7 unknown #
vertex $-1 $364 $557 #
straight-curve $-1 -20.283599748523212 -21.935749403515047 0.015849392102162518 1 0 0 I I #
vertex $-1 $366 $558 #
straight-curve $-1 -20.283599748523212 21.935749403515047 0.015849392102162518 -1 0 0 I I #
point $-1 -38.906547802345052 21.935749403515047 0.015849392102162518 #
point $-1 -38.906547802345052 -21.935749403515047 0.015849392102162518 #
coedge $-1 $486 $370 $373 $498 forward $358 $-1 #
coedge $-1 $370 $486 $377 $500 reversed $358 $-1 #
straight-curve $-1 -42.227851191747796 0 3.0158493921021625 0 1 0 I I #
edge $-1 $375 -3.0158493921021625 $491 -0.015849392102162518 $373 $559 forward 7 unknown #
point $-1 -42.227851191747796 21.935749403515047 3.0158493921021625 #
edge $-1 $378 -3.0158493921021625 $489 -0.015849392102162518 $496 $560 forward 7 unknown #
point $-1 -42.227851191747796 -21.935749403515047 3.0158493921021625 #
straight-curve $-1 -38.906547802345052 21.935749403515047 0.75792469605108126 0 0 -1 I I #
plane-surface $-1 42.227851191747796 0 0 -1 0 0 0 0 1 forward_v I I I I #
coedge $-1 $387 $386 $402 $515 reversed $155 $-1 #
edge $-1 $508 -21.935749403515047 $506 21.935749403515047 $386 $561 forward 7 unknown #
vertex $-1 $394 $562 #
straight-curve $-1 38.906547802345052 21.935749403515047 0.75792469605108126 0 0 1 I I #
vertex $-1 $392 $563 #
straight-curve $-1 20.283599748523212 -21.935749403515047 0.015849392102162518 1 0 0 I I #
straight-curve $-1 20.283599748523212 21.935749403515047 0.015849392102162518 -1 0 0 I I #
point $-1 42.227851191747796 -21.935749403515047 0.015849392102162518 #
point $-1 42.227851191747796 21.935749403515047 0.015849392102162518 #
straight-curve $-1 38.906547802345052 0 3.0158493921021625 0 -1 0 I I #
point $-1 38.906547802345052 21.935749403515047 3.0158493921021625 #
edge $-1 $404 -2.2579246960510813 $508 0.74207530394891874 $402 $564 forward 7 unknown #
point $-1 38.906547802345052 -21.935749403515047 3.0158493921021625 #
straight-curve $-1 42.227851191747796 -21.935749403515047 0 0 0 -1 I I #
straight-curve $-1 42.227851191747796 21.935749403515047 0 0 0 -1 I I #
coedge $-1 $521 $419 $413 $520 forward $410 $-1 #
edge $-1 $421 -3.5671374280935773 $528 1.4403054682385452 $519 $565 forward 7 unknown #
coedge $-1 $414 $519 $416 $523 forward $410 $-1 #
straight-curve $-1 18.171983098428587 20.495443935276501 4.6498406386588584 0 -1 0 I I #
edge $-1 $528 -38.906547802345045 $417 -18.171983098428587 $416 $566 forward 7 unknown #
point $-1 18.171983098428587 21.935749403515047 4.6498406386588584 #
straight-curve $-1 14.269632725193407 16.928306507182924 4.6498406386588567 1 0 0 I I #
point $-1 38.906547802345045 16.928306507182924 4.649840638658862 #
point $-1 18.171983098428587 16.928306507182924 4.649840638658862 #
vertex $-1 $523 $567 #
straight-curve $-1 38.906547802345045 21.935749403515047 46.919264936810201 0 0 -1 I I #
vertex $-1 $428 $568 #
point $-1 23.818896039211872 17.810548906472629 0.62000711901119132 #
vertex $-1 $432 $569 #
point $-1 30.039265450386814 17.810548906472629 0.62000711901119132 #
vertex $-1 $436 $570 #
point $-1 36.259634861561757 17.810548906472629 0.62000711901119132 #
coedge $-1 $441 $444 $448 $542 reversed $303 $-1 #
edge $-1 $539 -24.636915077151638 $451 -3.9023503732351799 $442 $571 forward 7 unknown #
vertex $-1 $445 $572 #
vertex $-1 $537 $573 #
straight-curve $-1 38.906547802345045 -37.542722856937459 4.6498406386588584 0 1 0 I I #
straight-curve $-1 38.906547802345045 -21.935749403515054 0.59489325070207144 0 -0.77714595512881146 -0.62932039886446345 I I #
edge $-1 $449 -32.519757122097118 $538 -28.464809734140339 $448 $574 forward 7 unknown #
point $-1 38.906547802345052 -21.935749403515047 0.59489325070207721 #
point $-1 18.171983098428587 -16.928306507182931 4.6498406386588584 #
straight-curve $-1 0 -21.935749403515047 4.6498406386588584 1 0 0 I I #
vertex $-1 $457 $575 #
point $-1 23.818896039211872 -17.810548906472633 0.62000711901118688 #
vertex $-1 $461 $576 #
point $-1 30.039265450386814 -17.810548906472633 0.62000711901118688 #
vertex $-1 $465 $577 #
point $-1 36.259634861561757 -17.810548906472633 0.62000711901118688 #
straight-curve $-1 -42.227851191747796 21.935749403515047 0 0 0 -1 I I #
point $-1 -42.227851191747796 -21.935749403515047 -4.6498406386588584 #
straight-curve $-1 -42.227851191747796 0 -4.6498406386588584 0 1 0 I I #
point $-1 -42.227851191747796 21.935749403515047 -4.6498406386588584 #
straight-curve $-1 -42.227851191747796 0 0.015849392102162518 0 -1 0 I I #
point $-1 -42.227851191747796 -21.935749403515047 0.015849392102162518 #
point $-1 -42.227851191747796 21.935749403515047 0.015849392102162518 #
straight-curve $-1 -42.227851191747796 21.935749403515047 0 0 0 -1 I I #
straight-curve $-1 -42.227851191747796 -21.935749403515047 0 0 0 -1 I I #
straight-curve $-1 38.906547802345052 0 0.015849392102162518 0 1 0 I I #
point $-1 38.906547802345052 21.935749403515047 0.015849392102162518 #
point $-1 38.906547802345052 -21.935749403515047 0.015849392102162518 #
straight-curve $-1 38.906547802345052 -21.935749403515047 0.75792469605108126 0 0 -1 I I #
straight-curve $-1 38.906547802345045 20.495443935276501 4.6498406386588584 0 1 0 I I #
straight-curve $-1 0 21.935749403515047 4.6498406386588584 -1 0 0 I I #
point $-1 38.906547802345045 21.935749403515047 4.6498406386588584 #
point $-1 22.318896039211872 16.866568308175932 -0.54571181368202559 #
point $-1 28.539265450386814 16.866568308175932 -0.54571181368202559 #
point $-1 34.759634861561757 16.866568308175932 -0.54571181368202559 #
straight-curve $-1 14.269632725193407 -16.928306507182928 4.6498406386588584 -1 0 0 I I #
point $-1 38.906547802345045 -21.935749403515047 4.6498406386588584 #
point $-1 38.906547802345045 -16.928306507182931 4.6498406386588584 #
straight-curve $-1 38.906547802345045 -21.935749403515047 33.114650372799197 0 0 1 I I #
point $-1 22.318896039211872 -16.866568308175935 -0.54571181368203003 #
point $-1 28.539265450386814 -16.866568308175935 -0.54571181368203003 #
point $-1 34.759634861561757 -16.866568308175935 -0.54571181368203003 #
End-of-ACIS-data 