500 0 8 0           
7 Unknown 11 ACIS 5.0 NT 24 Thu Mar 25 18:21:39 1999 
-1 9.9999999999999995e-007 1e-010 
body $-1 $8 $-1 $9 #
body $-1 $10 $-1 $11 #
body $-1 $12 $-1 $13 #
body $-1 $14 $-1 $15 #
body $-1 $16 $-1 $17 #
body $-1 $18 $-1 $19 #
body $-1 $20 $-1 $21 #
body $-1 $22 $-1 $23 #
lump $-1 $-1 $24 $0 #
transform $-1 1 0 0 0 1 0 0 0 1 61.344645527512441 25.528598480579841 5.5607889539823177 1 rotate no_reflect no_shear #
lump $-1 $-1 $25 $1 #
transform $-1 1 0 0 0 1 0 0 0 1 61.344645527512441 25.528598480579841 5.5607889539823177 1 rotate no_reflect no_shear #
lump $-1 $-1 $26 $2 #
transform $-1 1 0 0 0 1 0 0 0 1 61.344645527512441 25.528598480579841 5.5607889539823177 1 rotate no_reflect no_shear #
lump $-1 $-1 $27 $3 #
transform $-1 1 0 0 0 1 0 0 0 1 61.344645527512441 25.528598480579841 5.5607889539823177 1 rotate no_reflect no_shear #
lump $-1 $-1 $28 $4 #
transform $-1 1 0 0 0 1 0 0 0 1 61.344645527512441 25.528598480579841 5.5607889539823177 1 rotate no_reflect no_shear #
lump $-1 $-1 $29 $5 #
transform $-1 1 0 0 0 1 0 0 0 1 61.344645527512441 25.528598480579841 5.5607889539823177 1 rotate no_reflect no_shear #
lump $-1 $-1 $30 $6 #
transform $-1 1 0 0 0 1 0 0 0 1 61.344645527512441 25.528598480579841 5.5607889539823177 1 rotate no_reflect no_shear #
lump $-1 $-1 $31 $7 #
transform $-1 1 0 0 0 1 0 0 0 1 61.344645527512441 25.528598480579841 5.5607889539823177 1 rotate no_reflect no_shear #
shell $-1 $-1 $-1 $32 $-1 $8 #
shell $-1 $-1 $-1 $33 $-1 $10 #
shell $-1 $-1 $-1 $34 $-1 $12 #
shell $-1 $-1 $-1 $35 $-1 $14 #
shell $-1 $-1 $-1 $36 $-1 $16 #
shell $-1 $-1 $-1 $37 $-1 $18 #
shell $-1 $-1 $-1 $38 $-1 $20 #
shell $-1 $-1 $-1 $39 $-1 $22 #
face $-1 $40 $41 $24 $-1 $42 forward single #
face $-1 $43 $44 $25 $-1 $45 forward single #
face $-1 $46 $47 $26 $-1 $48 reversed single #
face $-1 $49 $50 $27 $-1 $51 forward single #
face $-1 $52 $53 $28 $-1 $54 reversed single #
face $-1 $55 $56 $29 $-1 $57 forward single #
face $-1 $58 $59 $30 $-1 $60 forward single #
face $-1 $61 $62 $31 $-1 $63 forward single #
face $-1 $64 $65 $24 $-1 $66 reversed single #
loop $-1 $-1 $67 $32 #
plane-surface $-1 0 0 5.5607889539823177 0 0 1 1 0 0 forward_v I I I I #
face $-1 $68 $69 $25 $-1 $70 reversed single #
loop $-1 $-1 $71 $33 #
plane-surface $-1 -59.400042704543836 0 1.3268708710375288 0 0 1 1 0 0 forward_v I I I I #
face $-1 $72 $73 $26 $-1 $74 reversed single #
loop $-1 $-1 $75 $34 #
plane-surface $-1 -42.389252714075496 86.69511605243413 118.42187296127199 -1 0 0 0 0.7660444514056185 0.64278759981090561 forward_v I I I I #
face $-1 $76 $77 $27 $-1 $78 forward single #
loop $-1 $79 $80 $35 #
cone-surface $-1 -49.922346297825364 22.286304440359451 2.0835120132402754 0 -0.7660444514056185 -0.64278759981090561 1 0 0 1 I I 0 1 1 forward I I I I #
face $-1 $81 $82 $28 $-1 $83 reversed single #
loop $-1 $-1 $84 $36 #
plane-surface $-1 -51.667184367673755 -110.75574247886435 89.384108880857752 1 0 0 0 0.69465837861970381 -0.71933979245794832 forward_v I I I I #
face $-1 $85 $86 $29 $-1 $87 forward single #
loop $-1 $88 $89 $37 #
cone-surface $-1 -47.069559064555861 -22.18218214541368 2.255740090917064 0 0.69465837861970381 -0.71933979245794832 1 0 0 1 I I 0 1 1 forward I I I I #
face $-1 $90 $91 $30 $-1 $92 forward single #
loop $-1 $93 $94 $38 #
cone-surface $-1 -40.17312110987902 -22.18218214541368 2.255740090917064 0 0.69465837861970381 -0.71933979245794832 1 0 0 1 I I 0 1 1 forward I I I I #
face $-1 $95 $96 $31 $-1 $97 forward single #
loop $-1 $98 $99 $39 #
cone-surface $-1 -33.276683155202178 -22.18218214541368 2.255740090917064 0 0.69465837861970381 -0.71933979245794832 1 0 0 1 I I 0 1 1 forward I I I I #
face $-1 $100 $101 $24 $-1 $102 reversed single #
loop $-1 $-1 $103 $40 #
plane-surface $-1 0 0 -5.5607889539823177 0 0 1 1 0 0 forward_v I I I I #
coedge $-1 $104 $105 $106 $107 forward $41 $-1 #
face $-1 $108 $109 $25 $-1 $110 reversed single #
loop $-1 $-1 $111 $43 #
plane-surface $-1 -59.400042704543836 0 -1.6731291289624712 0 0 1 1 0 0 forward_v I I I I #
coedge $-1 $112 $113 $114 $115 forward $44 $-1 #
face $-1 $116 $117 $26 $-1 $118 forward single #
loop $-1 $-1 $119 $46 #
plane-surface $-1 -49.922346297825364 -7.2903346071566659 39.558718041510929 0 0.7660444514056185 0.64278759981090561 1 0 0 forward_v I I I I #
coedge $-1 $120 $121 $122 $123 reversed $47 $-1 #
face $-1 $-1 $124 $27 $-1 $125 forward single #
loop $-1 $126 $127 $49 #
cone-surface $-1 -49.922346297825364 20.80663021268025 0.84191794703855294 0 -0.7660444514056185 -0.64278759981090561 0.5 0 0 1 I I -0.70710678118654746 0.70710678118654746 0.5 forward I I I I #
loop $-1 $-1 $128 $35 #
coedge $-1 $80 $80 $129 $130 reversed $50 $-1 #
face $-1 $131 $132 $28 $-1 $133 reversed single #
loop $-1 $-1 $134 $52 #
plane-surface $-1 -40.17312110987902 -25.528598480579831 1.1288197165233385 0 -0.69465837861970381 0.71933979245794832 1 0 0 forward_v I I I I #
coedge $-1 $135 $136 $137 $138 reversed $53 $-1 #
face $-1 $-1 $139 $29 $-1 $140 forward single #
loop $-1 $141 $142 $55 #
cone-surface $-1 -47.069559064555861 -20.783155816428071 0.80700595035232148 0 0.69465837861970381 -0.71933979245794832 0.5 0 0 1 I I -0.70710678118654746 0.70710678118654746 0.5 forward I I I I #
loop $-1 $-1 $143 $37 #
coedge $-1 $89 $89 $144 $145 reversed $56 $-1 #
face $-1 $-1 $146 $30 $-1 $147 forward single #
loop $-1 $148 $149 $58 #
cone-surface $-1 -40.17312110987902 -20.783155816428071 0.80700595035232148 0 0.69465837861970381 -0.71933979245794832 0.5 0 0 1 I I -0.70710678118654746 0.70710678118654746 0.5 forward I I I I #
loop $-1 $-1 $150 $38 #
coedge $-1 $94 $94 $151 $152 reversed $59 $-1 #
face $-1 $-1 $153 $31 $-1 $154 forward single #
loop $-1 $155 $156 $61 #
cone-surface $-1 -33.276683155202178 -20.783155816428071 0.80700595035232148 0 0.69465837861970381 -0.71933979245794832 0.5 0 0 1 I I -0.70710678118654746 0.70710678118654746 0.5 forward I I I I #
loop $-1 $-1 $157 $39 #
coedge $-1 $99 $99 $158 $159 reversed $62 $-1 #
face $-1 $160 $161 $24 $-1 $162 reversed single #
loop $-1 $-1 $163 $64 #
plane-surface $-1 0 -25.528598480579841 0 0 1 0 0 0 1 forward_v I I I I #
coedge $-1 $164 $165 $166 $167 forward $65 $-1 #
coedge $-1 $168 $67 $169 $170 forward $41 $-1 #
coedge $-1 $67 $168 $171 $172 forward $41 $-1 #
coedge $-1 $173 $174 $67 $107 reversed $175 $-1 #
edge $-1 $176 -25.528598480579841 $177 25.528598480579841 $106 $178 forward 7 unknown #
face $-1 $179 $180 $25 $-1 $181 reversed single #
loop $-1 $-1 $114 $68 #
plane-surface $-1 -57.455439881575231 0 -0.17312912896247123 -1 0 0 0 0 1 forward_v I I I I #
coedge $-1 $182 $183 $184 $185 forward $69 $-1 #
coedge $-1 $186 $71 $187 $188 reversed $44 $-1 #
coedge $-1 $71 $186 $189 $190 reversed $44 $-1 #
coedge $-1 $191 $192 $71 $115 reversed $109 $-1 #
edge $-1 $193 -25.528598480579841 $194 25.528598480579841 $114 $195 forward 7 unknown #
face $-1 $196 $197 $26 $-1 $198 forward single #
loop $-1 $-1 $199 $72 #
plane-surface $-1 0 0 5.5607889539823177 0 0 1 1 0 0 forward_v I I I I #
coedge $-1 $200 $201 $202 $203 reversed $73 $-1 #
coedge $-1 $121 $75 $204 $205 reversed $47 $-1 #
coedge $-1 $75 $120 $200 $206 reversed $47 $-1 #
coedge $-1 $202 $207 $75 $123 forward $208 $-1 #
edge $-1 $209 53.650147526653676 $210 58.76430087554526 $122 $211 forward 7 unknown #
loop $-1 $-1 $129 $76 #
plane-surface $-1 -49.922346297825364 -7.2903346071566659 39.558718041510929 0 0.7660444514056185 0.64278759981090561 1 0 0 forward_v I I I I #
loop $-1 $-1 $212 $49 #
coedge $-1 $127 $127 $128 $213 reversed $77 $-1 #
coedge $-1 $128 $128 $127 $213 forward $79 $-1 #
coedge $-1 $129 $129 $80 $130 forward $124 $-1 #
edge $-1 $214 1.3101434655470322e-015 $214 6.2831853071796013 $129 $215 forward 7 unknown #
face $-1 $216 $217 $28 $-1 $218 forward single #
loop $-1 $-1 $219 $81 #
plane-surface $-1 -28.679057852084284 -110.75574247886435 89.384108880857752 -1 0 0 0 -0.69465837861970381 0.71933979245794832 forward_v I I I I #
coedge $-1 $220 $221 $222 $223 reversed $82 $-1 #
coedge $-1 $136 $84 $224 $225 reversed $53 $-1 #
coedge $-1 $84 $135 $220 $226 reversed $53 $-1 #
coedge $-1 $222 $227 $84 $138 forward $228 $-1 #
edge $-1 $229 39.131265486446559 $230 43.563234723905545 $137 $231 forward 7 unknown #
loop $-1 $-1 $144 $85 #
plane-surface $-1 -40.17312110987902 -25.528598480579831 1.1288197165233385 0 -0.69465837861970381 0.71933979245794832 1 0 0 forward_v I I I I #
loop $-1 $-1 $232 $55 #
coedge $-1 $142 $142 $143 $233 reversed $86 $-1 #
coedge $-1 $143 $143 $142 $233 forward $88 $-1 #
coedge $-1 $144 $144 $89 $145 forward $139 $-1 #
edge $-1 $234 -8.8003857061970069e-016 $234 6.2831853071795996 $144 $235 forward 7 unknown #
loop $-1 $-1 $151 $90 #
plane-surface $-1 -40.17312110987902 -25.528598480579831 1.1288197165233385 0 -0.69465837861970381 0.71933979245794832 1 0 0 forward_v I I I I #
loop $-1 $-1 $236 $58 #
coedge $-1 $149 $149 $150 $237 reversed $91 $-1 #
coedge $-1 $150 $150 $149 $237 forward $93 $-1 #
coedge $-1 $151 $151 $94 $152 forward $146 $-1 #
edge $-1 $238 -8.8003857061970069e-016 $238 6.2831853071795996 $151 $239 forward 7 unknown #
loop $-1 $-1 $158 $95 #
plane-surface $-1 -40.17312110987902 -25.528598480579831 1.1288197165233385 0 -0.69465837861970381 0.71933979245794832 1 0 0 forward_v I I I I #
loop $-1 $-1 $240 $61 #
coedge $-1 $156 $156 $157 $241 reversed $96 $-1 #
coedge $-1 $157 $157 $156 $241 forward $98 $-1 #
coedge $-1 $158 $158 $99 $159 forward $153 $-1 #
edge $-1 $242 -8.8003857061970069e-016 $242 6.2831853071795996 $158 $243 forward 7 unknown #
face $-1 $244 $245 $24 $-1 $246 reversed single #
loop $-1 $-1 $247 $100 #
plane-surface $-1 -61.344645527512441 0 0 1 0 0 0 0 -1 forward_v I I I I #
coedge $-1 $248 $171 $249 $250 forward $101 $-1 #
coedge $-1 $251 $103 $248 $252 forward $65 $-1 #
coedge $-1 $103 $251 $253 $254 forward $65 $-1 #
coedge $-1 $174 $173 $103 $167 reversed $175 $-1 #
edge $-1 $255 -25.528598480579841 $256 25.528598480579841 $166 $257 forward 7 unknown #
coedge $-1 $105 $104 $258 $259 forward $41 $-1 #
coedge $-1 $260 $261 $104 $170 reversed $245 $-1 #
edge $-1 $177 -61.344645527512441 $262 61.344645527512441 $169 $263 forward 7 unknown #
coedge $-1 $163 $264 $105 $172 reversed $101 $-1 #
edge $-1 $265 -61.344645527512441 $176 61.344645527512441 $171 $266 forward 7 unknown #
coedge $-1 $166 $106 $264 $267 forward $175 $-1 #
coedge $-1 $106 $166 $260 $268 reversed $175 $-1 #
loop $-1 $-1 $173 $244 #
vertex $-1 $107 $269 #
vertex $-1 $107 $270 #
straight-curve $-1 61.344645527512441 0 5.5607889539823177 0 1 0 I I #
face $-1 $271 $272 $25 $-1 $273 reversed single #
loop $-1 $-1 $274 $108 #
plane-surface $-1 0 -25.528598480579841 0 0 1 0 0 0 1 forward_v I I I I #
coedge $-1 $275 $111 $274 $276 reversed $69 $-1 #
coedge $-1 $111 $275 $277 $278 reversed $69 $-1 #
coedge $-1 $192 $191 $111 $185 reversed $109 $-1 #
edge $-1 $279 -25.528598480579841 $280 25.528598480579841 $184 $281 forward 7 unknown #
coedge $-1 $113 $112 $282 $283 reversed $44 $-1 #
coedge $-1 $284 $285 $112 $188 forward $286 $-1 #
edge $-1 $287 -31.644624175240523 $194 -27.755418529303313 $187 $288 forward 7 unknown #
coedge $-1 $289 $290 $113 $190 forward $180 $-1 #
edge $-1 $193 27.755418529303313 $291 31.644624175240523 $189 $292 forward 7 unknown #
coedge $-1 $184 $114 $290 $293 reversed $109 $-1 #
coedge $-1 $114 $184 $284 $294 reversed $109 $-1 #
vertex $-1 $190 $295 #
vertex $-1 $188 $296 #
straight-curve $-1 -57.455439881575231 0 1.3268708710375288 0 1 0 I I #
face $-1 $-1 $208 $26 $-1 $297 reversed single #
loop $-1 $-1 $298 $116 #
plane-surface $-1 -57.455439881575231 0 -0.17312912896247123 -1 0 0 0 0 1 forward_v I I I I #
coedge $-1 $299 $300 $301 $302 forward $117 $-1 #
coedge $-1 $303 $119 $121 $206 forward $73 $-1 #
coedge $-1 $119 $303 $298 $304 forward $73 $-1 #
coedge $-1 $305 $122 $119 $203 forward $208 $-1 #
edge $-1 $210 17.428079565162815 $306 32.494266732662552 $202 $307 forward 7 unknown #
coedge $-1 $300 $299 $120 $205 forward $117 $-1 #
edge $-1 $308 -22.110243622125235 $209 -17.818959545637224 $204 $309 forward 7 unknown #
edge $-1 $210 -51.057196961159718 $308 -44.381143972971365 $121 $310 forward 7 unknown #
coedge $-1 $122 $305 $300 $311 reversed $208 $-1 #
loop $-1 $-1 $305 $196 #
vertex $-1 $311 $312 #
vertex $-1 $123 $313 #
straight-curve $-1 -42.389252714075496 25.528598480579841 59.210936480635993 0 0 -1 I I #
coedge $-1 $212 $212 $-1 $314 reversed $126 $-1 #
edge $-1 $315 0 $315 6.2831853071796004 $127 $316 forward 7 unknown #
vertex $-1 $130 $317 #
ellipse-curve $-1 -49.922346297825364 23.382956442335832 3.0037122795365345 0 0.7660444514056185 0.64278759981090561 1 0 0 1 I I #
face $-1 $-1 $228 $28 $-1 $318 reversed single #
loop $-1 $-1 $319 $131 #
plane-surface $-1 0 0 5.5607889539823177 0 0 1 1 0 0 forward_v I I I I #
coedge $-1 $320 $321 $322 $323 reversed $132 $-1 #
coedge $-1 $324 $134 $136 $226 forward $82 $-1 #
coedge $-1 $134 $324 $320 $325 forward $82 $-1 #
coedge $-1 $322 $137 $134 $223 forward $228 $-1 #
edge $-1 $230 -31.580623812734245 $326 -8.5924972971447744 $222 $327 forward 7 unknown #
coedge $-1 $328 $329 $135 $225 forward $217 $-1 #
edge $-1 $330 -34.438711149833154 $229 -29.849272758852333 $224 $331 forward 7 unknown #
edge $-1 $230 -1.4762101642082446e-014 $330 6.3800702242523384 $136 $332 forward 7 unknown #
coedge $-1 $137 $322 $328 $333 reversed $228 $-1 #
loop $-1 $-1 $322 $216 #
vertex $-1 $333 $334 #
vertex $-1 $138 $335 #
straight-curve $-1 -51.667184367673755 -25.528598480579845 44.692054440428876 0 0 -1 I I #
coedge $-1 $232 $232 $-1 $336 reversed $141 $-1 #
edge $-1 $337 0 $337 6.2831853071796004 $142 $338 forward 7 unknown #
vertex $-1 $145 $339 #
ellipse-curve $-1 -47.069559064555861 -23.233879285089429 3.3448043352528227 0 -0.69465837861970381 0.71933979245794832 1 0 0 1 I I #
coedge $-1 $236 $236 $-1 $340 reversed $148 $-1 #
edge $-1 $341 0 $341 6.2831853071796004 $149 $342 forward 7 unknown #
vertex $-1 $152 $343 #
ellipse-curve $-1 -40.17312110987902 -23.233879285089429 3.3448043352528227 0 -0.69465837861970381 0.71933979245794832 1 0 0 1 I I #
coedge $-1 $240 $240 $-1 $344 reversed $155 $-1 #
edge $-1 $345 0 $345 6.2831853071796004 $156 $346 forward 7 unknown #
vertex $-1 $159 $347 #
ellipse-curve $-1 -33.276683155202178 -23.233879285089429 3.3448043352528227 0 -0.69465837861970381 0.71933979245794832 1 0 0 1 I I #
face $-1 $-1 $175 $24 $-1 $348 reversed single #
loop $-1 $-1 $260 $160 #
plane-surface $-1 0 25.528598480579841 0 0 -1 0 0 0 -1 forward_v I I I I #
coedge $-1 $349 $258 $261 $350 forward $161 $-1 #
coedge $-1 $264 $163 $164 $252 reversed $101 $-1 #
coedge $-1 $258 $349 $163 $250 reversed $161 $-1 #
edge $-1 $265 -5.5607889539823177 $351 5.5607889539823177 $249 $352 forward 7 unknown #
coedge $-1 $165 $164 $349 $353 forward $65 $-1 #
edge $-1 $256 -61.344645527512441 $351 61.344645527512441 $248 $354 forward 7 unknown #
coedge $-1 $261 $260 $165 $254 reversed $245 $-1 #
edge $-1 $355 -61.344645527512441 $255 61.344645527512441 $253 $356 forward 7 unknown #
vertex $-1 $167 $357 #
vertex $-1 $267 $358 #
straight-curve $-1 61.344645527512441 0 -5.5607889539823177 0 -1 0 I I #
coedge $-1 $247 $249 $168 $259 reversed $161 $-1 #
edge $-1 $262 -25.528598480579841 $265 25.528598480579841 $258 $359 forward 7 unknown #
coedge $-1 $253 $169 $174 $268 forward $245 $-1 #
coedge $-1 $169 $253 $247 $350 reversed $245 $-1 #
vertex $-1 $170 $360 #
straight-curve $-1 0 25.528598480579841 5.5607889539823177 -1 0 0 I I #
coedge $-1 $171 $248 $173 $267 reversed $101 $-1 #
vertex $-1 $259 $361 #
straight-curve $-1 0 -25.528598480579841 5.5607889539823177 1 0 0 I I #
edge $-1 $176 -5.5607889539823177 $256 5.5607889539823177 $173 $362 forward 7 unknown #
edge $-1 $177 -5.5607889539823177 $255 5.5607889539823177 $174 $363 forward 7 unknown #
point $-1 61.344645527512441 -25.528598480579841 5.5607889539823177 #
point $-1 61.344645527512441 25.528598480579841 5.5607889539823177 #
face $-1 $-1 $286 $25 $-1 $364 reversed single #
loop $-1 $-1 $365 $179 #
plane-surface $-1 -61.344645527512441 0 0 1 0 0 0 0 -1 forward_v I I I I #
coedge $-1 $290 $289 $182 $276 forward $180 $-1 #
coedge $-1 $183 $182 $365 $366 reversed $69 $-1 #
edge $-1 $367 -31.644624175240523 $280 -27.755418529303313 $274 $368 forward 7 unknown #
coedge $-1 $285 $284 $183 $278 forward $286 $-1 #
edge $-1 $279 27.755418529303313 $369 31.644624175240523 $277 $370 forward 7 unknown #
vertex $-1 $278 $371 #
vertex $-1 $276 $372 #
straight-curve $-1 -57.455439881575231 0 -1.6731291289624712 0 -1 0 I I #
coedge $-1 $373 $374 $186 $283 forward $272 $-1 #
edge $-1 $291 -25.528598480579841 $287 25.528598480579841 $282 $375 forward 7 unknown #
coedge $-1 $277 $187 $192 $294 forward $286 $-1 #
coedge $-1 $187 $277 $373 $376 reversed $286 $-1 #
loop $-1 $-1 $277 $271 #
vertex $-1 $376 $377 #
straight-curve $-1 -29.700021352271918 25.528598480579841 1.3268708710375288 1 0 0 I I #
coedge $-1 $274 $189 $374 $378 forward $180 $-1 #
coedge $-1 $189 $274 $191 $293 forward $180 $-1 #
vertex $-1 $378 $379 #
straight-curve $-1 -29.700021352271918 -25.528598480579841 1.3268708710375288 -1 0 0 I I #
edge $-1 $280 -1.5865645644812356 $193 1.4134354355187644 $290 $380 forward 7 unknown #
edge $-1 $194 -1.4134354355187644 $279 1.5865645644812356 $284 $381 forward 7 unknown #
point $-1 -57.455439881575231 -25.528598480579841 1.3268708710375288 #
point $-1 -57.455439881575231 25.528598480579841 1.3268708710375288 #
plane-surface $-1 0 25.528598480579841 0 0 -1 0 0 0 -1 forward_v I I I I #
coedge $-1 $301 $382 $201 $304 reversed $197 $-1 #
coedge $-1 $204 $199 $303 $383 forward $117 $-1 #
coedge $-1 $199 $204 $207 $311 forward $117 $-1 #
coedge $-1 $382 $298 $199 $302 reversed $197 $-1 #
edge $-1 $384 17.818959545637224 $385 22.110243622125235 $199 $386 forward 7 unknown #
coedge $-1 $201 $200 $299 $383 reversed $73 $-1 #
edge $-1 $385 44.381143972971365 $306 51.057196961159718 $298 $387 forward 7 unknown #
coedge $-1 $207 $202 $382 $388 forward $208 $-1 #
vertex $-1 $388 $389 #
straight-curve $-1 -24.961173148912682 25.528598480579838 0.44663560509073008 -1 0 0 I I #
vertex $-1 $205 $390 #
straight-curve $-1 -42.389252714075496 43.347558026217065 5.5607889539823177 0 1 0 I I #
straight-curve $-1 -42.389252714075496 -7.2903346071566659 39.558718041510929 0 -0.64278759981090561 0.7660444514056185 I I #
edge $-1 $209 42.389252714075496 $384 57.455439881575231 $207 $391 forward 7 unknown #
point $-1 -42.389252714075496 25.528598480579841 5.5607889539823177 #
point $-1 -42.389252714075496 25.528598480579845 0.44663560509073363 #
edge $-1 $392 1 $392 0 $212 $-1 forward 7 unknown #
vertex $-1 $213 $393 #
ellipse-curve $-1 -49.922346297825364 21.18965243838306 1.1633117469440057 0 0.7660444514056185 0.64278759981090561 1 0 0 1 I I #
point $-1 -48.922346297825364 23.382956442335846 3.0037122795365447 #
plane-surface $-1 0 -25.528598480579841 0 0 1 0 0 0 1 forward_v I I I I #
coedge $-1 $329 $328 $321 $394 forward $217 $-1 #
coedge $-1 $321 $219 $221 $325 reversed $132 $-1 #
coedge $-1 $219 $320 $319 $394 reversed $132 $-1 #
coedge $-1 $227 $222 $219 $323 forward $228 $-1 #
edge $-1 $326 -43.563234723905545 $395 -39.131265486446559 $322 $396 forward 7 unknown #
coedge $-1 $221 $220 $329 $397 reversed $82 $-1 #
edge $-1 $398 -6.3800702242523384 $326 1.4762101642082446e-014 $320 $399 forward 7 unknown #
vertex $-1 $223 $400 #
straight-curve $-1 -20.08656055493951 -25.528598480579841 1.1288197165233305 1 0 0 I I #
coedge $-1 $319 $224 $227 $333 forward $217 $-1 #
coedge $-1 $224 $319 $324 $397 forward $217 $-1 #
vertex $-1 $225 $401 #
straight-curve $-1 -51.667184367673755 -55.377871239432174 5.5607889539823177 0 -1 0 I I #
straight-curve $-1 -51.667184367673755 -25.528598480579831 1.1288197165233385 0 0.71933979245794832 0.69465837861970381 I I #
edge $-1 $229 -51.667184367673755 $395 -28.679057852084284 $227 $402 forward 7 unknown #
point $-1 -51.667184367673755 -25.528598480579841 5.5607889539823177 #
point $-1 -51.667184367673755 -25.528598480579841 1.1288197165233282 #
edge $-1 $403 1 $403 0 $232 $-1 forward 7 unknown #
vertex $-1 $233 $404 #
ellipse-curve $-1 -47.069559064555861 -21.130485005737924 1.1666758465812956 0 -0.69465837861970381 0.71933979245794832 1 0 0 1 I I #
point $-1 -46.069559064555861 -23.23387928508944 3.3448043352528325 #
edge $-1 $405 1 $405 0 $236 $-1 forward 7 unknown #
vertex $-1 $237 $406 #
ellipse-curve $-1 -40.17312110987902 -21.130485005737924 1.1666758465812956 0 -0.69465837861970381 0.71933979245794832 1 0 0 1 I I #
point $-1 -39.17312110987902 -23.23387928508944 3.3448043352528325 #
edge $-1 $407 1 $407 0 $240 $-1 forward 7 unknown #
vertex $-1 $241 $408 #
ellipse-curve $-1 -33.276683155202178 -21.130485005737924 1.1666758465812956 0 -0.69465837861970381 0.71933979245794832 1 0 0 1 I I #
point $-1 -32.276683155202178 -23.23387928508944 3.3448043352528325 #
plane-surface $-1 61.344645527512441 0 0 -1 0 0 0 0 1 forward_v I I I I #
coedge $-1 $249 $247 $251 $353 reversed $161 $-1 #
edge $-1 $262 -5.5607889539823177 $355 5.5607889539823177 $261 $409 forward 7 unknown #
vertex $-1 $353 $410 #
straight-curve $-1 -61.344645527512441 -25.528598480579841 0 0 0 -1 I I #
edge $-1 $351 -25.528598480579841 $355 25.528598480579841 $349 $411 forward 7 unknown #
straight-curve $-1 0 -25.528598480579841 -5.5607889539823177 -1 0 0 I I #
vertex $-1 $254 $412 #
straight-curve $-1 0 25.528598480579841 -5.5607889539823177 1 0 0 I I #
point $-1 61.344645527512441 25.528598480579841 -5.5607889539823177 #
point $-1 61.344645527512441 -25.528598480579841 -5.5607889539823177 #
straight-curve $-1 -61.344645527512441 0 5.5607889539823177 0 -1 0 I I #
point $-1 -61.344645527512441 25.528598480579841 5.5607889539823177 #
point $-1 -61.344645527512441 -25.528598480579841 5.5607889539823177 #
straight-curve $-1 61.344645527512441 -25.528598480579841 0 0 0 -1 I I #
straight-curve $-1 61.344645527512441 25.528598480579841 0 0 0 -1 I I #
plane-surface $-1 0 25.528598480579841 0 0 -1 0 0 0 -1 forward_v I I I I #
coedge $-1 $374 $373 $275 $366 forward $272 $-1 #
edge $-1 $369 -25.528598480579841 $367 25.528598480579841 $365 $413 forward 7 unknown #
vertex $-1 $276 $414 #
straight-curve $-1 -29.700021352271918 -25.528598480579841 -1.6731291289624712 1 0 0 I I #
vertex $-1 $278 $415 #
straight-curve $-1 -29.700021352271918 25.528598480579841 -1.6731291289624712 -1 0 0 I I #
point $-1 -57.455439881575231 25.528598480579841 -1.6731291289624712 #
point $-1 -57.455439881575231 -25.528598480579841 -1.6731291289624712 #
coedge $-1 $365 $282 $285 $376 forward $272 $-1 #
coedge $-1 $282 $365 $289 $378 reversed $272 $-1 #
straight-curve $-1 -61.344645527512441 0 1.3268708710375288 0 1 0 I I #
edge $-1 $287 -1.3268708710375288 $369 1.6731291289624712 $285 $416 forward 7 unknown #
point $-1 -61.344645527512441 25.528598480579841 1.3268708710375288 #
edge $-1 $291 -1.3268708710375288 $367 1.6731291289624712 $374 $417 forward 7 unknown #
point $-1 -61.344645527512441 -25.528598480579841 1.3268708710375288 #
straight-curve $-1 -57.455439881575231 -25.528598480579841 -0.086564564481235617 0 0 1 I I #
straight-curve $-1 -57.455439881575231 25.528598480579841 -0.086564564481235617 0 0 -1 I I #
coedge $-1 $298 $301 $305 $388 reversed $197 $-1 #
edge $-1 $385 -32.494266732662552 $308 -17.428079565162815 $299 $418 forward 7 unknown #
vertex $-1 $388 $419 #
vertex $-1 $383 $420 #
straight-curve $-1 -57.455439881575231 43.347558026217065 5.5607889539823177 0 -1 0 I I #
straight-curve $-1 -57.455439881575231 -7.2903346071566659 39.558718041510929 0 0.64278759981090561 -0.7660444514056185 I I #
edge $-1 $306 -58.76430087554526 $384 -53.650147526653676 $305 $421 forward 7 unknown #
point $-1 -57.455439881575231 25.528598480579841 0.44663560509073197 #
point $-1 -42.389252714075496 21.23731440409183 5.5607889539823177 #
straight-curve $-1 0 25.528598480579841 5.5607889539823177 -1 0 0 I I #
vertex $-1 $314 $422 #
point $-1 -48.922346297825364 21.18965243838306 1.1633117469440057 #
edge $-1 $395 29.849272758852333 $398 34.438711149833154 $319 $423 forward 7 unknown #
vertex $-1 $323 $424 #
straight-curve $-1 -28.679057852084284 -25.528598480579845 44.692054440428876 0 0 1 I I #
edge $-1 $398 8.5924972971447744 $330 31.580623812734245 $329 $425 forward 7 unknown #
vertex $-1 $397 $426 #
straight-curve $-1 -28.679057852084284 -25.528598480579831 1.1288197165233385 0 -0.71933979245794832 -0.69465837861970381 I I #
point $-1 -28.679057852084284 -25.528598480579841 1.1288197165233282 #
point $-1 -51.667184367673755 -20.939160089599017 5.5607889539823177 #
straight-curve $-1 0 -25.528598480579841 5.5607889539823177 1 0 0 I I #
vertex $-1 $336 $427 #
point $-1 -46.069559064555861 -21.130485005737924 1.1666758465812956 #
vertex $-1 $340 $428 #
point $-1 -39.17312110987902 -21.130485005737924 1.1666758465812956 #
vertex $-1 $344 $429 #
point $-1 -32.276683155202178 -21.130485005737924 1.1666758465812956 #
straight-curve $-1 -61.344645527512441 25.528598480579841 0 0 0 -1 I I #
point $-1 -61.344645527512441 -25.528598480579841 -5.5607889539823177 #
straight-curve $-1 -61.344645527512441 0 -5.5607889539823177 0 1 0 I I #
point $-1 -61.344645527512441 25.528598480579841 -5.5607889539823177 #
straight-curve $-1 -61.344645527512441 0 -1.6731291289624712 0 -1 0 I I #
point $-1 -61.344645527512441 -25.528598480579841 -1.6731291289624712 #
point $-1 -61.344645527512441 25.528598480579841 -1.6731291289624712 #
straight-curve $-1 -61.344645527512441 25.528598480579841 0 0 0 -1 I I #
straight-curve $-1 -61.344645527512441 -25.528598480579841 0 0 0 -1 I I #
straight-curve $-1 -24.961173148912682 21.23731440409183 5.5607889539823141 1 0 0 I I #
point $-1 -57.455439881575231 25.528598480579841 5.5607889539823177 #
point $-1 -57.455439881575231 21.23731440409183 5.5607889539823177 #
straight-curve $-1 -57.455439881575231 25.528598480579841 59.210936480635993 0 0 1 I I #
point $-1 -49.922346297825364 20.423607986977441 0.52052414713310013 #
straight-curve $-1 -28.679057852084284 -55.377871239432174 5.5607889539823177 0 1 0 I I #
point $-1 -28.679057852084284 -25.528598480579841 5.5607889539823177 #
straight-curve $-1 -20.08656055493951 -20.939160089599017 5.5607889539823177 -1 0 0 I I #
point $-1 -28.679057852084284 -20.939160089599017 5.5607889539823177 #
point $-1 -47.069559064555861 -20.435826627118217 0.44733605412334732 #
point $-1 -40.17312110987902 -20.435826627118217 0.44733605412334732 #
point $-1 -33.276683155202178 -20.435826627118217 0.44733605412334732 #
End-of-ACIS-data 