500 0 11 0           
7 Unknown 11 ACIS 5.0 NT 24 Fri Mar 26 01:23:38 1999 
-1 9.9999999999999995e-007 1e-010 
body $-1 $11 $-1 $12 #
body $-1 $13 $-1 $14 #
body $-1 $15 $-1 $16 #
body $-1 $17 $-1 $18 #
body $-1 $19 $-1 $20 #
body $-1 $21 $-1 $22 #
body $-1 $23 $-1 $24 #
body $-1 $25 $-1 $26 #
body $-1 $27 $-1 $28 #
body $-1 $29 $-1 $30 #
body $-1 $31 $-1 $32 #
lump $-1 $-1 $33 $0 #
transform $-1 1 0 0 0 1 0 0 0 1 70.234076967680892 33.636564929301514 12.767358897525002 1 rotate no_reflect no_shear #
lump $-1 $-1 $34 $1 #
transform $-1 1 0 0 0 1 0 0 0 1 70.234076967680892 33.636564929301514 12.767358897525002 1 rotate no_reflect no_shear #
lump $-1 $-1 $35 $2 #
transform $-1 1 0 0 0 1 0 0 0 1 70.234076967680892 33.636564929301514 12.767358897525002 1 rotate no_reflect no_shear #
lump $-1 $-1 $36 $3 #
transform $-1 1 0 0 0 1 0 0 0 1 70.234076967680892 33.636564929301514 12.767358897525002 1 rotate no_reflect no_shear #
lump $-1 $-1 $37 $4 #
transform $-1 1 0 0 0 1 0 0 0 1 70.234076967680892 33.636564929301514 12.767358897525002 1 rotate no_reflect no_shear #
lump $-1 $-1 $38 $5 #
transform $-1 1 0 0 0 1 0 0 0 1 70.234076967680892 33.636564929301514 12.767358897525002 1 rotate no_reflect no_shear #
lump $-1 $-1 $39 $6 #
transform $-1 1 0 0 0 1 0 0 0 1 70.234076967680892 33.636564929301514 12.767358897525002 1 rotate no_reflect no_shear #
lump $-1 $-1 $40 $7 #
transform $-1 1 0 0 0 1 0 0 0 1 70.234076967680892 33.636564929301514 12.767358897525002 1 rotate no_reflect no_shear #
lump $-1 $-1 $41 $8 #
transform $-1 1 0 0 0 1 0 0 0 1 70.234076967680892 33.636564929301514 12.767358897525002 1 rotate no_reflect no_shear #
lump $-1 $-1 $42 $9 #
transform $-1 1 0 0 0 1 0 0 0 1 70.234076967680892 33.636564929301514 12.767358897525002 1 rotate no_reflect no_shear #
lump $-1 $-1 $43 $10 #
transform $-1 1 0 0 0 1 0 0 0 1 70.234076967680892 33.636564929301514 12.767358897525002 1 rotate no_reflect no_shear #
shell $-1 $-1 $-1 $44 $-1 $11 #
shell $-1 $-1 $-1 $45 $-1 $13 #
shell $-1 $-1 $-1 $46 $-1 $15 #
shell $-1 $-1 $-1 $47 $-1 $17 #
shell $-1 $-1 $-1 $48 $-1 $19 #
shell $-1 $-1 $-1 $49 $-1 $21 #
shell $-1 $-1 $-1 $50 $-1 $23 #
shell $-1 $-1 $-1 $51 $-1 $25 #
shell $-1 $-1 $-1 $52 $-1 $27 #
shell $-1 $-1 $-1 $53 $-1 $29 #
shell $-1 $-1 $-1 $54 $-1 $31 #
face $-1 $55 $56 $33 $-1 $57 reversed single #
face $-1 $58 $59 $34 $-1 $60 forward single #
face $-1 $61 $62 $35 $-1 $63 reversed single #
face $-1 $64 $65 $36 $-1 $66 forward single #
face $-1 $67 $68 $37 $-1 $69 forward single #
face $-1 $70 $71 $38 $-1 $72 reversed single #
face $-1 $73 $74 $39 $-1 $75 forward single #
face $-1 $76 $77 $40 $-1 $78 forward single #
face $-1 $79 $80 $41 $-1 $81 reversed single #
face $-1 $82 $83 $42 $-1 $84 forward single #
face $-1 $85 $86 $43 $-1 $87 forward single #
face $-1 $88 $89 $33 $-1 $90 forward single #
loop $-1 $-1 $91 $44 #
plane-surface $-1 -70.234076967680892 0 0 1 0 0 0 0 -1 forward_v I I I I #
face $-1 $92 $93 $34 $-1 $94 reversed single #
loop $-1 $-1 $95 $45 #
plane-surface $-1 -70.234076967680892 0 0 1 0 0 0 0 -1 forward_v I I I I #
face $-1 $96 $97 $35 $-1 $98 reversed single #
loop $-1 $-1 $99 $46 #
plane-surface $-1 55.059000930559975 -116.20167528407769 121.01426122525719 -1 0 0 0 -0.5877852598018023 0.80901698891910034 forward_v I I I I #
face $-1 $100 $101 $36 $-1 $102 forward single #
loop $-1 $103 $104 $47 #
cone-surface $-1 36.947376693991487 -28.356877802851386 7.9128617263704122 0 0.5877852598018023 -0.80901698891910034 2 0 0 1 I I 0 1 2 forward I I I I #
face $-1 $105 $106 $37 $-1 $107 forward single #
loop $-1 $108 $109 $48 #
cone-surface $-1 47.814351235932577 -28.356877802851386 7.9128617263704122 0 0.5877852598018023 -0.80901698891910034 2 0 0 1 I I 0 1 2 forward I I I I #
face $-1 $110 $111 $38 $-1 $112 reversed single #
loop $-1 $-1 $113 $49 #
plane-surface $-1 -21.702143334073796 72.393548090833548 151.93638614453749 1 0 0 0 -0.64278761758704617 -0.76604443648966558 forward_v I I I I #
face $-1 $114 $115 $39 $-1 $116 forward single #
loop $-1 $117 $118 $50 #
cone-surface $-1 -15.556870559038728 24.785962550818059 4.673649471639342 0 -0.64278761758704617 -0.76604443648966558 1.5 0 0 1 I I 0 1 1.5 forward I I I I #
face $-1 $119 $120 $40 $-1 $121 forward single #
loop $-1 $122 $123 $51 #
cone-surface $-1 -6.3389613964861269 24.785962550818059 4.673649471639342 0 -0.64278761758704617 -0.76604443648966558 1.5 0 0 1 I I 0 1 1.5 forward I I I I #
face $-1 $124 $125 $41 $-1 $126 reversed single #
loop $-1 $-1 $127 $52 #
plane-surface $-1 11.001731146913237 72.393548090833548 151.93638614453749 1 0 0 0 -0.64278761758704617 -0.76604443648966558 forward_v I I I I #
face $-1 $128 $129 $42 $-1 $130 forward single #
loop $-1 $131 $132 $53 #
cone-surface $-1 17.147003921948311 24.785962550818059 4.673649471639342 0 -0.64278761758704617 -0.76604443648966558 1.5 0 0 1 I I 0 1 1.5 forward I I I I #
face $-1 $133 $134 $43 $-1 $135 forward single #
loop $-1 $136 $137 $54 #
cone-surface $-1 26.364913084500913 24.785962550818059 4.673649471639342 0 -0.64278761758704617 -0.76604443648966558 1.5 0 0 1 I I 0 1 1.5 forward I I I I #
face $-1 $138 $139 $33 $-1 $140 reversed single #
loop $-1 $-1 $141 $55 #
plane-surface $-1 0 0 12.767358897525002 0 0 1 1 0 0 forward_v I I I I #
coedge $-1 $142 $143 $144 $145 reversed $56 $-1 #
face $-1 $146 $147 $34 $-1 $148 reversed single #
loop $-1 $-1 $149 $58 #
plane-surface $-1 0 0 -12.767358897525002 0 0 1 1 0 0 forward_v I I I I #
coedge $-1 $150 $151 $152 $153 forward $59 $-1 #
face $-1 $154 $155 $35 $-1 $156 reversed single #
loop $-1 $-1 $157 $61 #
plane-surface $-1 42.380863964962032 -33.636564929301514 7.3731382894461177 0 -0.5877852598018023 0.80901698891910034 1 0 0 forward_v I I I I #
coedge $-1 $158 $159 $160 $161 reversed $62 $-1 #
face $-1 $-1 $162 $36 $-1 $163 forward single #
loop $-1 $164 $165 $64 #
cone-surface $-1 36.947376693991487 -26.201659204134771 4.9464578703361628 0 0.5877852598018023 -0.80901698891910034 1 0 0 1 I I -0.70710678118654746 0.70710678118654746 1 forward I I I I #
loop $-1 $-1 $166 $47 #
coedge $-1 $104 $104 $167 $168 reversed $65 $-1 #
face $-1 $-1 $169 $37 $-1 $170 forward single #
loop $-1 $171 $172 $67 #
cone-surface $-1 47.814351235932577 -26.201659204134771 4.9464578703361628 0 0.5877852598018023 -0.80901698891910034 1 0 0 1 I I -0.70710678118654746 0.70710678118654746 1 forward I I I I #
loop $-1 $-1 $173 $48 #
coedge $-1 $109 $109 $174 $175 reversed $68 $-1 #
face $-1 $176 $177 $38 $-1 $178 reversed single #
loop $-1 $-1 $179 $70 #
plane-surface $-1 -10.947915977762428 -17.897641924128123 44.331538318379671 0 0.64278761758704617 0.76604443648966558 1 0 0 forward_v I I I I #
coedge $-1 $180 $181 $182 $183 reversed $71 $-1 #
face $-1 $-1 $184 $39 $-1 $185 forward single #
loop $-1 $186 $187 $73 #
cone-surface $-1 -15.556870559038728 22.412011168753629 1.8444844426768139 0 -0.64278761758704617 -0.76604443648966558 0.75 0 0 1 I I -0.70710678118654757 0.70710678118654757 0.75 forward I I I I #
loop $-1 $-1 $188 $50 #
coedge $-1 $118 $118 $189 $190 reversed $74 $-1 #
face $-1 $-1 $191 $40 $-1 $192 forward single #
loop $-1 $193 $194 $76 #
cone-surface $-1 -6.3389613964861269 22.412011168753629 1.8444844426768139 0 -0.64278761758704617 -0.76604443648966558 0.75 0 0 1 I I -0.70710678118654757 0.70710678118654757 0.75 forward I I I I #
loop $-1 $-1 $195 $51 #
coedge $-1 $123 $123 $196 $197 reversed $77 $-1 #
face $-1 $198 $199 $41 $-1 $200 reversed single #
loop $-1 $-1 $201 $79 #
plane-surface $-1 21.755958503224605 -17.897641924128123 44.331538318379671 0 0.64278761758704617 0.76604443648966558 1 0 0 forward_v I I I I #
coedge $-1 $202 $203 $204 $205 reversed $80 $-1 #
face $-1 $-1 $206 $42 $-1 $207 forward single #
loop $-1 $208 $209 $82 #
cone-surface $-1 17.147003921948311 22.412011168753629 1.8444844426768139 0 -0.64278761758704617 -0.76604443648966558 0.75 0 0 1 I I -0.70710678118654757 0.70710678118654757 0.75 forward I I I I #
loop $-1 $-1 $210 $53 #
coedge $-1 $132 $132 $211 $212 reversed $83 $-1 #
face $-1 $-1 $213 $43 $-1 $214 forward single #
loop $-1 $215 $216 $85 #
cone-surface $-1 26.364913084500913 22.412011168753629 1.8444844426768139 0 -0.64278761758704617 -0.76604443648966558 0.75 0 0 1 I I -0.70710678118654757 0.70710678118654757 0.75 forward I I I I #
loop $-1 $-1 $217 $54 #
coedge $-1 $137 $137 $218 $219 reversed $86 $-1 #
face $-1 $220 $221 $33 $-1 $222 reversed single #
loop $-1 $-1 $223 $88 #
plane-surface $-1 0 0 -12.767358897525002 0 0 1 1 0 0 forward_v I I I I #
coedge $-1 $224 $225 $226 $227 forward $89 $-1 #
coedge $-1 $228 $91 $229 $230 reversed $56 $-1 #
coedge $-1 $91 $228 $231 $232 forward $56 $-1 #
coedge $-1 $233 $234 $91 $145 forward $139 $-1 #
edge $-1 $235 -33.636564929301514 $236 33.636564929301514 $91 $237 forward 7 unknown #
face $-1 $238 $239 $34 $-1 $240 reversed single #
loop $-1 $-1 $241 $92 #
plane-surface $-1 -75.638098230411984 -13.632330203183372 0 0 1 0 0 0 1 forward_v I I I I #
coedge $-1 $242 $243 $151 $244 forward $93 $-1 #
coedge $-1 $245 $95 $246 $247 reversed $59 $-1 #
coedge $-1 $95 $245 $149 $244 reversed $59 $-1 #
coedge $-1 $248 $249 $95 $153 reversed $250 $-1 #
edge $-1 $251 -12.767358897525002 $252 12.767358897525002 $152 $253 forward 7 unknown #
face $-1 $254 $255 $35 $-1 $256 forward single #
loop $-1 $-1 $257 $96 #
plane-surface $-1 29.702726999364089 -116.20167528407769 121.01426122525719 1 0 0 0 0.5877852598018023 -0.80901698891910034 forward_v I I I I #
coedge $-1 $258 $259 $260 $261 reversed $97 $-1 #
coedge $-1 $159 $99 $262 $263 reversed $62 $-1 #
coedge $-1 $99 $158 $258 $264 reversed $62 $-1 #
coedge $-1 $260 $265 $99 $161 forward $255 $-1 #
edge $-1 $266 24.464272712737333 $267 31.888780287807961 $160 $268 forward 7 unknown #
loop $-1 $-1 $167 $100 #
plane-surface $-1 42.380863964962032 -33.636564929301514 7.3731382894461177 0 -0.5877852598018023 0.80901698891910034 1 0 0 forward_v I I I I #
loop $-1 $-1 $269 $64 #
coedge $-1 $165 $165 $166 $270 reversed $101 $-1 #
coedge $-1 $166 $166 $165 $270 forward $103 $-1 #
coedge $-1 $167 $167 $104 $168 forward $162 $-1 #
edge $-1 $271 0 $271 6.2831853071796004 $167 $272 forward 7 unknown #
loop $-1 $-1 $174 $105 #
plane-surface $-1 42.380863964962032 -33.636564929301514 7.3731382894461177 0 -0.5877852598018023 0.80901698891910034 1 0 0 forward_v I I I I #
loop $-1 $-1 $273 $67 #
coedge $-1 $172 $172 $173 $274 reversed $106 $-1 #
coedge $-1 $173 $173 $172 $274 forward $108 $-1 #
coedge $-1 $174 $174 $109 $175 forward $169 $-1 #
edge $-1 $275 0 $275 6.2831853071796004 $174 $276 forward 7 unknown #
face $-1 $277 $278 $38 $-1 $279 reversed single #
loop $-1 $-1 $280 $110 #
plane-surface $-1 -0.19368862145105936 72.393548090833548 151.93638614453749 -1 0 0 0 0.64278761758704617 0.76604443648966558 forward_v I I I I #
coedge $-1 $281 $282 $283 $284 reversed $111 $-1 #
coedge $-1 $181 $113 $285 $286 reversed $71 $-1 #
coedge $-1 $113 $180 $281 $287 reversed $71 $-1 #
coedge $-1 $283 $288 $113 $183 forward $289 $-1 #
edge $-1 $290 2.56020911611526 $291 16.477692535333865 $182 $292 forward 7 unknown #
loop $-1 $-1 $189 $114 #
plane-surface $-1 -10.947915977762428 -17.897641924128123 44.331538318379671 0 0.64278761758704617 0.76604443648966558 1 0 0 forward_v I I I I #
loop $-1 $-1 $293 $73 #
coedge $-1 $187 $187 $188 $294 reversed $115 $-1 #
coedge $-1 $188 $188 $187 $294 forward $117 $-1 #
coedge $-1 $189 $189 $118 $190 forward $184 $-1 #
edge $-1 $295 2.3723162974787502e-015 $295 6.2831853071796031 $189 $296 forward 7 unknown #
loop $-1 $-1 $196 $119 #
plane-surface $-1 -10.947915977762428 -17.897641924128123 44.331538318379671 0 0.64278761758704617 0.76604443648966558 1 0 0 forward_v I I I I #
loop $-1 $-1 $297 $76 #
coedge $-1 $194 $194 $195 $298 reversed $120 $-1 #
coedge $-1 $195 $195 $194 $298 forward $122 $-1 #
coedge $-1 $196 $196 $123 $197 forward $191 $-1 #
edge $-1 $299 2.3723162974787502e-015 $299 6.2831853071796031 $196 $300 forward 7 unknown #
face $-1 $301 $302 $41 $-1 $303 forward single #
loop $-1 $-1 $304 $124 #
plane-surface $-1 32.510185859535973 72.393548090833548 151.93638614453749 -1 0 0 0 0.64278761758704617 0.76604443648966558 forward_v I I I I #
coedge $-1 $305 $306 $307 $308 reversed $125 $-1 #
coedge $-1 $203 $127 $309 $310 reversed $80 $-1 #
coedge $-1 $127 $202 $305 $311 reversed $80 $-1 #
coedge $-1 $307 $312 $127 $205 forward $302 $-1 #
edge $-1 $313 2.56020911611526 $314 16.477692535333865 $204 $315 forward 7 unknown #
loop $-1 $-1 $211 $128 #
plane-surface $-1 21.755958503224605 -17.897641924128123 44.331538318379671 0 0.64278761758704617 0.76604443648966558 1 0 0 forward_v I I I I #
loop $-1 $-1 $316 $82 #
coedge $-1 $209 $209 $210 $317 reversed $129 $-1 #
coedge $-1 $210 $210 $209 $317 forward $131 $-1 #
coedge $-1 $211 $211 $132 $212 forward $206 $-1 #
edge $-1 $318 2.3723162974787502e-015 $318 6.2831853071796031 $211 $319 forward 7 unknown #
loop $-1 $-1 $218 $133 #
plane-surface $-1 21.755958503224605 -17.897641924128123 44.331538318379671 0 0.64278761758704617 0.76604443648966558 1 0 0 forward_v I I I I #
loop $-1 $-1 $320 $85 #
coedge $-1 $216 $216 $217 $321 reversed $134 $-1 #
coedge $-1 $217 $217 $216 $321 forward $136 $-1 #
coedge $-1 $218 $218 $137 $219 forward $213 $-1 #
edge $-1 $322 2.3723162974787502e-015 $322 6.2831853071796031 $218 $323 forward 7 unknown #
face $-1 $324 $325 $33 $-1 $326 reversed single #
loop $-1 $-1 $229 $138 #
plane-surface $-1 0 -33.636564929301514 0 0 1 0 0 0 1 forward_v I I I I #
coedge $-1 $234 $233 $327 $328 forward $139 $-1 #
coedge $-1 $329 $141 $330 $331 forward $89 $-1 #
coedge $-1 $141 $329 $332 $333 forward $89 $-1 #
coedge $-1 $334 $335 $141 $227 reversed $336 $-1 #
edge $-1 $337 -33.636564929301514 $338 33.636564929301514 $226 $339 forward 7 unknown #
coedge $-1 $143 $142 $329 $340 reversed $56 $-1 #
coedge $-1 $341 $332 $142 $230 forward $221 $-1 #
edge $-1 $342 -12.767358897525002 $235 12.767358897525002 $142 $343 forward 7 unknown #
coedge $-1 $330 $344 $143 $232 reversed $325 $-1 #
edge $-1 $345 -12.767358897525002 $236 12.767358897525002 $231 $346 forward 7 unknown #
coedge $-1 $223 $144 $344 $347 forward $139 $-1 #
coedge $-1 $144 $223 $341 $348 forward $139 $-1 #
vertex $-1 $145 $349 #
vertex $-1 $347 $350 #
straight-curve $-1 -70.234076967680892 0 -12.767358897525002 0 1 0 I I #
face $-1 $351 $250 $34 $-1 $352 reversed single #
loop $-1 $-1 $353 $146 #
plane-surface $-1 -81.042119493143076 -10.86708866871744 0 1 0 0 0 0 -1 forward_v I I I I #
coedge $-1 $354 $355 $356 $357 forward $147 $-1 #
coedge $-1 $358 $149 $354 $359 forward $93 $-1 #
coedge $-1 $149 $358 $248 $360 forward $93 $-1 #
edge $-1 $251 8.101847134251507 $361 13.632330203183372 $149 $362 forward 7 unknown #
coedge $-1 $151 $150 $363 $364 forward $59 $-1 #
coedge $-1 $365 $366 $150 $247 forward $367 $-1 #
edge $-1 $368 -13.632330203183372 $252 -8.101847134251507 $246 $369 forward 7 unknown #
coedge $-1 $370 $152 $243 $360 reversed $250 $-1 #
coedge $-1 $152 $370 $365 $371 reversed $250 $-1 #
loop $-1 $-1 $152 $238 #
vertex $-1 $244 $372 #
vertex $-1 $371 $373 #
straight-curve $-1 -70.234076967680892 -8.101847134251507 0 0 0 1 I I #
face $-1 $-1 $374 $35 $-1 $375 reversed single #
loop $-1 $-1 $160 $154 #
plane-surface $-1 0 0 12.767358897525002 0 0 1 1 0 0 forward_v I I I I #
coedge $-1 $376 $377 $378 $379 reversed $155 $-1 #
coedge $-1 $380 $157 $159 $264 forward $97 $-1 #
coedge $-1 $157 $380 $376 $381 forward $97 $-1 #
coedge $-1 $378 $160 $157 $261 forward $255 $-1 #
edge $-1 $267 -33.868568948078959 $382 -8.5122950168830727 $260 $383 forward 7 unknown #
coedge $-1 $384 $385 $158 $263 forward $374 $-1 #
edge $-1 $386 -53.133992323182476 $266 -47.739771715103593 $262 $387 forward 7 unknown #
edge $-1 $267 -9.1771961241385718 $386 0 $159 $388 forward 7 unknown #
coedge $-1 $160 $378 $384 $389 forward $255 $-1 #
vertex $-1 $161 $390 #
vertex $-1 $161 $391 #
straight-curve $-1 55.059000930559975 -58.100837642038847 12.767358897525 0 1 0 I I #
coedge $-1 $269 $269 $-1 $392 reversed $164 $-1 #
edge $-1 $393 0 $393 6.2831853071796004 $165 $394 forward 7 unknown #
vertex $-1 $168 $395 #
ellipse-curve $-1 36.947376693991487 -29.9243111417662 10.070248593485561 0 -0.5877852598018023 0.80901698891910034 2 0 0 1 I I #
coedge $-1 $273 $273 $-1 $396 reversed $171 $-1 #
edge $-1 $397 0 $397 6.2831853071796004 $172 $398 forward 7 unknown #
vertex $-1 $175 $399 #
ellipse-curve $-1 47.814351235932577 -29.9243111417662 10.070248593485561 0 -0.5877852598018023 0.80901698891910034 2 0 0 1 I I #
face $-1 $-1 $289 $38 $-1 $400 forward single #
loop $-1 $-1 $401 $176 #
plane-surface $-1 0 33.636564929301514 0 0 -1 0 0 0 -1 forward_v I I I I #
coedge $-1 $402 $403 $404 $405 reversed $177 $-1 #
coedge $-1 $406 $179 $181 $287 forward $111 $-1 #
coedge $-1 $179 $406 $402 $407 forward $111 $-1 #
coedge $-1 $404 $182 $179 $284 forward $289 $-1 #
edge $-1 $291 -16.228185345192582 $408 5.2802693674301544 $283 $409 forward 7 unknown #
coedge $-1 $410 $411 $180 $286 forward $278 $-1 #
edge $-1 $412 -74.878989623324486 $290 -63.200834174743747 $285 $413 forward 7 unknown #
edge $-1 $291 49.105145396769032 $412 67.273129858603014 $181 $414 forward 7 unknown #
coedge $-1 $182 $404 $410 $415 forward $289 $-1 #
loop $-1 $-1 $404 $277 #
vertex $-1 $286 $416 #
vertex $-1 $183 $417 #
straight-curve $-1 -21.702143334073796 36.196774045416774 12.767358897525 0 -1 0 I I #
coedge $-1 $293 $293 $-1 $418 reversed $186 $-1 #
edge $-1 $419 0 $419 6.2831853071796004 $187 $420 forward 7 unknown #
vertex $-1 $190 $421 #
ellipse-curve $-1 -15.556870559038728 26.677823219692211 6.9282811732346294 0 0.64278761758704617 0.76604443648966558 1.5 0 0 1 I I #
coedge $-1 $297 $297 $-1 $422 reversed $193 $-1 #
edge $-1 $423 0 $423 6.2831853071796004 $194 $424 forward 7 unknown #
vertex $-1 $197 $425 #
ellipse-curve $-1 -6.3389613964861269 26.677823219692211 6.9282811732346294 0 0.64278761758704617 0.76604443648966558 1.5 0 0 1 I I #
face $-1 $-1 $426 $41 $-1 $427 reversed single #
loop $-1 $-1 $204 $198 #
plane-surface $-1 0 0 12.767358897525002 0 0 1 1 0 0 forward_v I I I I #
coedge $-1 $428 $429 $430 $431 reversed $199 $-1 #
coedge $-1 $432 $201 $203 $311 forward $125 $-1 #
coedge $-1 $201 $432 $428 $433 forward $125 $-1 #
coedge $-1 $430 $204 $201 $308 forward $302 $-1 #
edge $-1 $314 0.12375189530093422 $434 21.632206607923671 $307 $435 forward 7 unknown #
coedge $-1 $436 $437 $202 $310 forward $426 $-1 #
edge $-1 $438 -74.878989623324486 $313 -63.200834174743747 $309 $439 forward 7 unknown #
edge $-1 $314 49.105145396769032 $438 67.273129858603014 $203 $440 forward 7 unknown #
coedge $-1 $204 $430 $436 $441 forward $302 $-1 #
vertex $-1 $205 $442 #
vertex $-1 $205 $443 #
straight-curve $-1 11.001731146913237 36.196774045416774 12.767358897525 0 -1 0 I I #
coedge $-1 $316 $316 $-1 $444 reversed $208 $-1 #
edge $-1 $445 0 $445 6.2831853071796004 $209 $446 forward 7 unknown #
vertex $-1 $212 $447 #
ellipse-curve $-1 17.147003921948311 26.677823219692211 6.9282811732346294 0 0.64278761758704617 0.76604443648966558 1.5 0 0 1 I I #
coedge $-1 $320 $320 $-1 $448 reversed $215 $-1 #
edge $-1 $449 0 $449 6.2831853071796004 $216 $450 forward 7 unknown #
vertex $-1 $219 $451 #
ellipse-curve $-1 26.364913084500913 26.677823219692211 6.9282811732346294 0 0.64278761758704617 0.76604443648966558 1.5 0 0 1 I I #
face $-1 $-1 $336 $33 $-1 $452 reversed single #
loop $-1 $-1 $453 $220 #
plane-surface $-1 0 33.636564929301514 0 0 -1 0 0 0 -1 forward_v I I I I #
coedge $-1 $335 $334 $223 $328 reversed $336 $-1 #
edge $-1 $454 -33.636564929301514 $455 33.636564929301514 $327 $456 forward 7 unknown #
coedge $-1 $225 $224 $228 $340 forward $89 $-1 #
coedge $-1 $453 $231 $224 $331 reversed $325 $-1 #
edge $-1 $338 -70.234076967680892 $345 70.234076967680892 $330 $457 forward 7 unknown #
coedge $-1 $229 $458 $225 $333 reversed $221 $-1 #
edge $-1 $342 -70.234076967680892 $337 70.234076967680892 $332 $459 forward 7 unknown #
coedge $-1 $327 $226 $458 $460 forward $336 $-1 #
coedge $-1 $226 $327 $453 $461 reversed $336 $-1 #
loop $-1 $-1 $334 $324 #
vertex $-1 $227 $462 #
vertex $-1 $227 $463 #
straight-curve $-1 70.234076967680892 0 12.767358897525002 0 1 0 I I #
edge $-1 $345 -33.636564929301514 $342 33.636564929301514 $228 $464 forward 7 unknown #
coedge $-1 $458 $229 $234 $348 reversed $221 $-1 #
vertex $-1 $340 $465 #
straight-curve $-1 -70.234076967680892 -33.636564929301514 0 0 0 -1 I I #
coedge $-1 $231 $453 $233 $347 reversed $325 $-1 #
vertex $-1 $331 $466 #
straight-curve $-1 -70.234076967680892 33.636564929301514 0 0 0 -1 I I #
edge $-1 $236 -70.234076967680892 $454 70.234076967680892 $344 $467 forward 7 unknown #
edge $-1 $455 -70.234076967680892 $235 70.234076967680892 $341 $468 forward 7 unknown #
point $-1 -70.234076967680892 -33.636564929301514 -12.767358897525002 #
point $-1 -70.234076967680892 33.636564929301514 -12.767358897525002 #
face $-1 $-1 $367 $34 $-1 $469 forward single #
plane-surface $-1 -75.638098230411984 -8.101847134251507 0 0 -1 0 0 0 -1 forward_v I I I I #
coedge $-1 $470 $471 $370 $472 forward $239 $-1 #
coedge $-1 $363 $241 $242 $359 reversed $147 $-1 #
coedge $-1 $241 $363 $366 $473 reversed $147 $-1 #
coedge $-1 $471 $470 $241 $357 reversed $239 $-1 #
edge $-1 $474 -12.767358897525002 $475 12.767358897525002 $356 $476 forward 7 unknown #
coedge $-1 $243 $242 $470 $477 forward $93 $-1 #
edge $-1 $361 -5.4040212627310922 $475 5.4040212627310922 $354 $478 forward 7 unknown #
edge $-1 $479 -5.4040212627310922 $251 5.4040212627310922 $248 $480 forward 7 unknown #
vertex $-1 $359 $481 #
straight-curve $-1 -70.234076967680892 0 -12.767358897525002 0 -1 0 I I #
coedge $-1 $355 $354 $245 $364 reversed $147 $-1 #
edge $-1 $368 -12.767358897525002 $361 12.767358897525002 $363 $482 forward 7 unknown #
coedge $-1 $483 $246 $249 $371 forward $367 $-1 #
coedge $-1 $246 $483 $355 $473 forward $367 $-1 #
loop $-1 $-1 $246 $351 #
vertex $-1 $247 $484 #
straight-curve $-1 -70.234076967680892 0 12.767358897525002 0 1 0 I I #
coedge $-1 $249 $248 $353 $472 reversed $250 $-1 #
edge $-1 $252 -5.4040212627310922 $485 5.4040212627310922 $249 $486 forward 7 unknown #
point $-1 -70.234076967680892 -8.101847134251507 -12.767358897525002 #
point $-1 -70.234076967680892 -8.101847134251507 12.767358897525002 #
loop $-1 $-1 $262 $254 #
plane-surface $-1 0 -33.636564929301514 0 0 1 0 0 0 1 forward_v I I I I #
coedge $-1 $377 $257 $259 $381 reversed $155 $-1 #
coedge $-1 $257 $376 $487 $488 reversed $155 $-1 #
coedge $-1 $265 $260 $257 $379 forward $255 $-1 #
edge $-1 $382 -31.888780287807961 $489 -24.464272712737333 $378 $490 forward 7 unknown #
coedge $-1 $259 $258 $385 $491 reversed $97 $-1 #
edge $-1 $492 0 $382 9.1771961241385718 $376 $493 forward 7 unknown #
vertex $-1 $261 $494 #
straight-curve $-1 21.190431982481016 -26.212057354230883 12.767358897525002 -1 0 0 I I #
coedge $-1 $487 $262 $265 $389 reversed $374 $-1 #
coedge $-1 $262 $487 $380 $491 forward $374 $-1 #
vertex $-1 $263 $495 #
straight-curve $-1 55.059000930559975 -33.636564929301514 60.507130612628593 0 0 1 I I #
straight-curve $-1 55.059000930559975 -33.636564929301514 7.3731382894461177 0 -0.80901698891910034 -0.5877852598018023 I I #
edge $-1 $489 29.702726999364089 $266 55.059000930559975 $384 $496 forward 7 unknown #
point $-1 55.059000930559975 -33.636564929301514 12.767358897525002 #
point $-1 55.059000930559975 -26.212057354230886 12.767358897525 #
edge $-1 $497 1 $497 0 $269 $-1 forward 7 unknown #
vertex $-1 $270 $498 #
ellipse-curve $-1 36.947376693991487 -26.789444463936572 5.7554748592552629 0 -0.5877852598018023 0.80901698891910034 2 0 0 1 I I #
point $-1 38.947376693991487 -29.9243111417662 10.070248593485561 #
edge $-1 $499 1 $499 0 $273 $-1 forward 7 unknown #
vertex $-1 $274 $500 #
ellipse-curve $-1 47.814351235932577 -26.789444463936572 5.7554748592552629 0 -0.5877852598018023 0.80901698891910034 2 0 0 1 I I #
point $-1 49.814351235932577 -29.9243111417662 10.070248593485561 #
plane-surface $-1 0 0 12.767358897525002 0 0 1 1 0 0 forward_v I I I I #
coedge $-1 $411 $410 $403 $501 forward $278 $-1 #
coedge $-1 $403 $280 $282 $407 reversed $177 $-1 #
coedge $-1 $280 $402 $401 $501 reversed $177 $-1 #
coedge $-1 $288 $283 $280 $405 forward $289 $-1 #
edge $-1 $408 -16.477692535333865 $502 -2.56020911611526 $404 $503 forward 7 unknown #
coedge $-1 $282 $281 $411 $504 reversed $111 $-1 #
edge $-1 $505 -67.273129858603014 $408 -49.105145396769032 $402 $506 forward 7 unknown #
vertex $-1 $284 $507 #
straight-curve $-1 -5.4739579888812138 19.719081510082898 12.767358897525003 1 0 0 I I #
coedge $-1 $401 $285 $288 $415 reversed $278 $-1 #
coedge $-1 $285 $401 $406 $504 forward $278 $-1 #
vertex $-1 $286 $508 #
straight-curve $-1 -21.702143334073796 33.636564929301514 75.968193072268747 0 0 1 I I #
straight-curve $-1 -21.702143334073796 -17.897641924128123 44.331538318379671 0 0.76604443648966558 -0.64278761758704617 I I #
edge $-1 $502 0.19368862145105936 $290 21.702143334073796 $410 $509 forward 7 unknown #
point $-1 -21.702143334073796 33.636564929301514 12.767358897525002 #
point $-1 -21.702143334073796 19.719081510082908 12.767358897525 #
edge $-1 $510 1 $510 0 $293 $-1 forward 7 unknown #
vertex $-1 $294 $511 #
ellipse-curve $-1 -15.556870559038728 22.894101881943914 2.4190177700440629 0 0.64278761758704617 0.76604443648966558 1.5 0 0 1 I I #
point $-1 -14.056870559038728 26.677823219692208 6.9282811732346197 #
edge $-1 $512 1 $512 0 $297 $-1 forward 7 unknown #
vertex $-1 $298 $513 #
ellipse-curve $-1 -6.3389613964861269 22.894101881943914 2.4190177700440629 0 0.64278761758704617 0.76604443648966558 1.5 0 0 1 I I #
point $-1 -4.8389613964861269 26.677823219692208 6.9282811732346197 #
loop $-1 $-1 $309 $301 #
plane-surface $-1 0 33.636564929301514 0 0 -1 0 0 0 -1 forward_v I I I I #
coedge $-1 $429 $304 $306 $433 reversed $199 $-1 #
coedge $-1 $304 $428 $514 $515 reversed $199 $-1 #
coedge $-1 $312 $307 $304 $431 forward $302 $-1 #
edge $-1 $434 -16.477692535333865 $516 -2.56020911611526 $430 $517 forward 7 unknown #
coedge $-1 $306 $305 $437 $518 reversed $125 $-1 #
edge $-1 $519 -67.273129858603014 $434 -49.105145396769032 $428 $520 forward 7 unknown #
vertex $-1 $308 $521 #
straight-curve $-1 10.877979251612302 19.719081510082898 12.767358897525003 1 0 0 I I #
coedge $-1 $514 $309 $312 $441 reversed $426 $-1 #
coedge $-1 $309 $514 $432 $518 forward $426 $-1 #
vertex $-1 $310 $522 #
straight-curve $-1 11.001731146913237 33.636564929301514 75.968193072268747 0 0 1 I I #
straight-curve $-1 11.001731146913237 -17.897641924128123 44.331538318379671 0 0.76604443648966558 -0.64278761758704617 I I #
edge $-1 $516 -32.510185859535973 $313 -11.001731146913237 $436 $523 forward 7 unknown #
point $-1 11.001731146913237 33.636564929301514 12.767358897525002 #
point $-1 11.001731146913237 19.719081510082908 12.767358897525 #
edge $-1 $524 1 $524 0 $316 $-1 forward 7 unknown #
vertex $-1 $317 $525 #
ellipse-curve $-1 17.147003921948311 22.894101881943914 2.4190177700440629 0 0.64278761758704617 0.76604443648966558 1.5 0 0 1 I I #
point $-1 18.647003921948311 26.677823219692208 6.9282811732346197 #
edge $-1 $526 1 $526 0 $320 $-1 forward 7 unknown #
vertex $-1 $321 $527 #
ellipse-curve $-1 26.364913084500913 22.894101881943914 2.4190177700440629 0 0.64278761758704617 0.76604443648966558 1.5 0 0 1 I I #
point $-1 27.864913084500913 26.677823219692208 6.9282811732346197 #
plane-surface $-1 70.234076967680892 0 0 -1 0 0 0 0 1 forward_v I I I I #
coedge $-1 $344 $330 $335 $461 forward $325 $-1 #
vertex $-1 $328 $528 #
vertex $-1 $460 $529 #
straight-curve $-1 70.234076967680892 0 -12.767358897525002 0 -1 0 I I #
straight-curve $-1 0 33.636564929301514 12.767358897525002 -1 0 0 I I #
coedge $-1 $332 $341 $334 $460 reversed $221 $-1 #
straight-curve $-1 0 -33.636564929301514 12.767358897525002 1 0 0 I I #
edge $-1 $337 -12.767358897525002 $455 12.767358897525002 $334 $530 forward 7 unknown #
edge $-1 $338 -12.767358897525002 $454 12.767358897525002 $335 $531 forward 7 unknown #
point $-1 70.234076967680892 -33.636564929301514 12.767358897525002 #
point $-1 70.234076967680892 33.636564929301514 12.767358897525002 #
straight-curve $-1 -70.234076967680892 0 12.767358897525002 0 -1 0 I I #
point $-1 -70.234076967680892 -33.636564929301514 12.767358897525002 #
point $-1 -70.234076967680892 33.636564929301514 12.767358897525002 #
straight-curve $-1 0 33.636564929301514 -12.767358897525002 1 0 0 I I #
straight-curve $-1 0 -33.636564929301514 -12.767358897525002 -1 0 0 I I #
plane-surface $-1 0 0 12.767358897525002 0 0 1 1 0 0 forward_v I I I I #
coedge $-1 $356 $353 $358 $477 reversed $239 $-1 #
coedge $-1 $353 $356 $483 $532 reversed $239 $-1 #
edge $-1 $485 -12.767358897525002 $479 12.767358897525002 $370 $533 forward 7 unknown #
edge $-1 $474 -5.4040212627310922 $368 5.4040212627310922 $355 $534 forward 7 unknown #
vertex $-1 $532 $535 #
vertex $-1 $477 $536 #
straight-curve $-1 -81.042119493143076 -13.632330203183372 0 0 0 -1 I I #
edge $-1 $475 -2.7652415344659325 $479 2.7652415344659325 $470 $537 forward 7 unknown #
straight-curve $-1 -75.638098230411984 -13.632330203183372 -12.767358897525002 -1 0 0 I I #
vertex $-1 $360 $538 #
straight-curve $-1 -75.638098230411984 -8.101847134251507 -12.767358897525002 1 0 0 I I #
point $-1 -70.234076967680892 -13.632330203183372 -12.767358897525002 #
straight-curve $-1 -70.234076967680892 -13.632330203183372 0 0 0 -1 I I #
coedge $-1 $366 $365 $471 $532 forward $367 $-1 #
point $-1 -70.234076967680892 -13.632330203183372 12.767358897525002 #
vertex $-1 $371 $539 #
straight-curve $-1 -75.638098230411984 -8.101847134251507 12.767358897525002 -1 0 0 I I #
coedge $-1 $385 $384 $377 $488 forward $374 $-1 #
edge $-1 $489 47.739771715103593 $492 53.133992323182476 $487 $540 forward 7 unknown #
vertex $-1 $389 $541 #
straight-curve $-1 29.702726999364089 -58.100837642038847 12.767358897525 0 -1 0 I I #
edge $-1 $492 8.5122950168830727 $386 33.868568948078959 $385 $542 forward 7 unknown #
vertex $-1 $491 $543 #
straight-curve $-1 29.702726999364089 -33.636564929301514 7.3731382894461177 0 0.80901698891910034 0.5877852598018023 I I #
point $-1 29.702726999364089 -26.212057354230886 12.767358897525 #
point $-1 55.059000930559975 -33.636564929301514 7.3731382894461177 #
straight-curve $-1 0 -33.636564929301514 12.767358897525002 1 0 0 I I #
vertex $-1 $392 $544 #
point $-1 38.947376693991487 -26.789444463936572 5.7554748592552629 #
vertex $-1 $396 $545 #
point $-1 49.814351235932577 -26.789444463936572 5.7554748592552629 #
edge $-1 $502 63.200834174743747 $505 74.878989623324486 $401 $546 forward 7 unknown #
vertex $-1 $415 $547 #
straight-curve $-1 -0.19368862145105936 36.196774045416774 12.767358897525 0 1 0 I I #
edge $-1 $505 -5.2802693674301544 $412 16.228185345192582 $411 $548 forward 7 unknown #
vertex $-1 $504 $549 #
straight-curve $-1 -0.19368862145105936 -17.897641924128123 44.331538318379671 0 -0.76604443648966558 0.64278761758704617 I I #
point $-1 -0.19368862145105936 19.719081510082908 12.767358897525 #
point $-1 -21.702143334073796 33.636564929301521 1.0892034489442608 #
straight-curve $-1 0 33.636564929301514 12.767358897525002 -1 0 0 I I #
vertex $-1 $418 $550 #
point $-1 -14.056870559038728 22.894101881943914 2.4190177700440629 #
vertex $-1 $422 $551 #
point $-1 -4.8389613964861269 22.894101881943914 2.4190177700440629 #
coedge $-1 $437 $436 $429 $515 forward $426 $-1 #
edge $-1 $516 63.200834174743747 $519 74.878989623324486 $514 $552 forward 7 unknown #
vertex $-1 $441 $553 #
straight-curve $-1 32.510185859535973 36.196774045416774 12.767358897525 0 1 0 I I #
edge $-1 $519 -21.632206607923671 $438 -0.12375189530093422 $437 $554 forward 7 unknown #
vertex $-1 $518 $555 #
straight-curve $-1 32.510185859535973 -17.897641924128123 44.331538318379671 0 -0.76604443648966558 0.64278761758704617 I I #
point $-1 32.510185859535973 19.719081510082908 12.767358897525 #
point $-1 11.001731146913237 33.636564929301521 1.0892034489442608 #
straight-curve $-1 0 33.636564929301514 12.767358897525002 -1 0 0 I I #
vertex $-1 $444 $556 #
point $-1 18.647003921948311 22.894101881943914 2.4190177700440629 #
vertex $-1 $448 $557 #
point $-1 27.864913084500913 22.894101881943914 2.4190177700440629 #
point $-1 70.234076967680892 33.636564929301514 -12.767358897525002 #
point $-1 70.234076967680892 -33.636564929301514 -12.767358897525002 #
straight-curve $-1 70.234076967680892 -33.636564929301514 0 0 0 -1 I I #
straight-curve $-1 70.234076967680892 33.636564929301514 0 0 0 -1 I I #
edge $-1 $485 -2.7652415344659325 $474 2.7652415344659325 $471 $558 forward 7 unknown #
straight-curve $-1 -81.042119493143076 -8.101847134251507 0 0 0 -1 I I #
straight-curve $-1 -75.638098230411984 -13.632330203183372 12.767358897525002 1 0 0 I I #
point $-1 -81.042119493143076 -13.632330203183372 12.767358897525002 #
point $-1 -81.042119493143076 -13.632330203183372 -12.767358897525002 #
straight-curve $-1 -81.042119493143076 -10.86708866871744 -12.767358897525002 0 1 0 I I #
point $-1 -81.042119493143076 -8.101847134251507 -12.767358897525002 #
point $-1 -81.042119493143076 -8.101847134251507 12.767358897525002 #
straight-curve $-1 29.702726999364089 -33.636564929301514 60.507130612628593 0 0 -1 I I #
point $-1 29.702726999364089 -33.636564929301514 12.767358897525002 #
straight-curve $-1 21.190431982481016 -33.636564929301514 7.3731382894461159 1 0 0 I I #
point $-1 29.702726999364089 -33.636564929301514 7.3731382894461177 #
point $-1 36.947376693991487 -25.613873944332969 4.1374408814170627 #
point $-1 47.814351235932577 -25.613873944332969 4.1374408814170627 #
straight-curve $-1 -0.19368862145105936 33.636564929301514 75.968193072268747 0 0 -1 I I #
point $-1 -0.19368862145105936 33.636564929301514 12.767358897525002 #
straight-curve $-1 -5.4739579888812138 33.636564929301514 1.0892034489442644 -1 0 0 I I #
point $-1 -0.19368862145105936 33.636564929301521 1.0892034489442608 #
point $-1 -15.556870559038728 21.929920455563344 1.2699511153095648 #
point $-1 -6.3389613964861269 21.929920455563344 1.2699511153095648 #
straight-curve $-1 32.510185859535973 33.636564929301514 75.968193072268747 0 0 -1 I I #
point $-1 32.510185859535973 33.636564929301514 12.767358897525002 #
straight-curve $-1 10.877979251612302 33.636564929301514 1.0892034489442644 -1 0 0 I I #
point $-1 32.510185859535973 33.636564929301521 1.0892034489442608 #
point $-1 17.147003921948311 21.929920455563344 1.2699511153095648 #
point $-1 26.364913084500913 21.929920455563344 1.2699511153095648 #
straight-curve $-1 -81.042119493143076 -10.86708866871744 12.767358897525002 0 -1 0 I I #
End-of-ACIS-data 