500 0 7 0           
7 Unknown 11 ACIS 5.0 NT 24 Fri Mar 26 18:44:35 1999 
-1 9.9999999999999995e-007 1e-010 
body $-1 $7 $-1 $8 #
body $-1 $9 $-1 $10 #
body $-1 $11 $-1 $12 #
body $-1 $13 $-1 $14 #
body $-1 $15 $-1 $16 #
body $-1 $17 $-1 $18 #
body $-1 $19 $-1 $20 #
lump $-1 $-1 $21 $0 #
transform $-1 1 0 0 0 1 0 0 0 1 62.988982818079165 31.13040213184777 12.146433645303926 1 rotate no_reflect no_shear #
lump $-1 $-1 $22 $1 #
transform $-1 1 0 0 0 1 0 0 0 1 62.988982818079165 31.13040213184777 12.146433645303926 1 rotate no_reflect no_shear #
lump $-1 $-1 $23 $2 #
transform $-1 1 0 0 0 1 0 0 0 1 62.988982818079165 31.13040213184777 12.146433645303926 1 rotate no_reflect no_shear #
lump $-1 $-1 $24 $3 #
transform $-1 1 0 0 0 1 0 0 0 1 62.988982818079165 31.13040213184777 12.146433645303926 1 rotate no_reflect no_shear #
lump $-1 $-1 $25 $4 #
transform $-1 1 0 0 0 1 0 0 0 1 62.988982818079165 31.13040213184777 12.146433645303926 1 rotate no_reflect no_shear #
lump $-1 $-1 $26 $5 #
transform $-1 1 0 0 0 1 0 0 0 1 62.988982818079165 31.13040213184777 12.146433645303926 1 rotate no_reflect no_shear #
lump $-1 $-1 $27 $6 #
transform $-1 1 0 0 0 1 0 0 0 1 62.988982818079165 31.13040213184777 12.146433645303926 1 rotate no_reflect no_shear #
shell $-1 $-1 $-1 $28 $-1 $7 #
shell $-1 $-1 $-1 $29 $-1 $9 #
shell $-1 $-1 $-1 $30 $-1 $11 #
shell $-1 $-1 $-1 $31 $-1 $13 #
shell $-1 $-1 $-1 $32 $-1 $15 #
shell $-1 $-1 $-1 $33 $-1 $17 #
shell $-1 $-1 $-1 $34 $-1 $19 #
face $-1 $35 $36 $21 $-1 $37 forward single #
face $-1 $38 $39 $22 $-1 $40 reversed single #
face $-1 $41 $42 $23 $-1 $43 reversed single #
face $-1 $44 $45 $24 $-1 $46 reversed single #
face $-1 $47 $48 $25 $-1 $49 forward single #
face $-1 $50 $51 $26 $-1 $52 forward single #
face $-1 $53 $54 $27 $-1 $55 forward single #
face $-1 $56 $57 $21 $-1 $58 reversed single #
loop $-1 $-1 $59 $28 #
plane-surface $-1 0 0 12.146433645303926 0 0 1 1 0 0 forward_v I I I I #
face $-1 $60 $61 $22 $-1 $62 reversed single #
loop $-1 $-1 $63 $29 #
plane-surface $-1 -58.44425123078679 -25.550389751624987 0 0 -1 0 0 0 -1 forward_v I I I I #
face $-1 $64 $65 $23 $-1 $66 reversed single #
loop $-1 $-1 $67 $30 #
plane-surface $-1 53.899519643494415 -28.340395941736379 0 1 0 0 0 0 -1 forward_v I I I I #
face $-1 $68 $69 $24 $-1 $70 reversed single #
loop $-1 $-1 $71 $31 #
plane-surface $-1 -43.355334613837634 -31.13040213184776 0.78241686781781539 0 -0.69465837861970381 0.71933979245794832 1 0 0 forward_v I I I I #
face $-1 $72 $73 $25 $-1 $74 forward single #
loop $-1 $75 $76 $32 #
cone-surface $-1 -49.681845631631695 -22.473028406206222 3.592400709049326 0 0.69465837861970381 -0.71933979245794832 2 0 0 1 I I 0 1 2 forward I I I I #
face $-1 $77 $78 $26 $-1 $79 forward single #
loop $-1 $80 $81 $33 #
cone-surface $-1 -43.355334613837627 -22.473028406206222 3.592400709049326 0 0.69465837861970381 -0.71933979245794832 2 0 0 1 I I 0 1 2 forward I I I I #
face $-1 $82 $83 $27 $-1 $84 forward single #
loop $-1 $85 $86 $34 #
cone-surface $-1 -37.028823596043566 -22.473028406206222 3.592400709049326 0 0.69465837861970381 -0.71933979245794832 2 0 0 1 I I 0 1 2 forward I I I I #
face $-1 $87 $88 $21 $-1 $89 reversed single #
loop $-1 $-1 $90 $35 #
plane-surface $-1 0 0 -12.146433645303926 0 0 1 1 0 0 forward_v I I I I #
coedge $-1 $91 $92 $93 $94 forward $36 $-1 #
face $-1 $95 $96 $22 $-1 $97 forward single #
loop $-1 $-1 $98 $38 #
plane-surface $-1 -53.899519643494415 -28.340395941736379 0 -1 0 0 0 0 1 forward_v I I I I #
coedge $-1 $99 $100 $101 $102 forward $39 $-1 #
face $-1 $103 $104 $23 $-1 $105 forward single #
loop $-1 $-1 $106 $41 #
plane-surface $-1 58.44425123078679 -25.550389751624987 0 0 -1 0 0 0 -1 forward_v I I I I #
coedge $-1 $107 $108 $109 $110 forward $42 $-1 #
face $-1 $111 $112 $24 $-1 $113 forward single #
loop $-1 $-1 $114 $44 #
plane-surface $-1 -32.81114958418086 -118.64205148247027 91.403380522806501 -1 0 0 0 -0.69465837861970381 0.71933979245794832 forward_v I I I I #
coedge $-1 $115 $116 $117 $118 reversed $45 $-1 #
face $-1 $-1 $119 $25 $-1 $120 forward single #
loop $-1 $121 $122 $47 #
cone-surface $-1 -49.681845631631695 -19.004888098117149 0.0010363690798236291 0 0.69465837861970381 -0.71933979245794832 1 0 0 1 I I -0.70710678118654735 0.70710678118654768 1 forward I I I I #
loop $-1 $-1 $123 $32 #
coedge $-1 $76 $76 $124 $125 reversed $48 $-1 #
face $-1 $-1 $126 $26 $-1 $127 forward single #
loop $-1 $128 $129 $50 #
cone-surface $-1 -43.355334613837627 -19.004888098117149 0.0010363690798236291 0 0.69465837861970381 -0.71933979245794832 1 0 0 1 I I -0.70710678118654735 0.70710678118654768 1 forward I I I I #
loop $-1 $-1 $130 $33 #
coedge $-1 $81 $81 $131 $132 reversed $51 $-1 #
face $-1 $-1 $133 $27 $-1 $134 forward single #
loop $-1 $135 $136 $53 #
cone-surface $-1 -37.028823596043566 -19.004888098117149 0.0010363690798236291 0 0.69465837861970381 -0.71933979245794832 1 0 0 1 I I -0.70710678118654735 0.70710678118654768 1 forward I I I I #
loop $-1 $-1 $137 $34 #
coedge $-1 $86 $86 $138 $139 reversed $54 $-1 #
face $-1 $140 $141 $21 $-1 $142 reversed single #
loop $-1 $-1 $143 $56 #
plane-surface $-1 0 -31.13040213184777 0 0 1 0 0 0 1 forward_v I I I I #
coedge $-1 $144 $145 $146 $147 forward $57 $-1 #
coedge $-1 $148 $59 $149 $150 forward $36 $-1 #
coedge $-1 $59 $148 $151 $152 forward $36 $-1 #
coedge $-1 $153 $154 $59 $94 reversed $155 $-1 #
edge $-1 $156 -31.13040213184777 $157 31.13040213184777 $93 $158 forward 7 unknown #
face $-1 $159 $160 $22 $-1 $161 reversed single #
loop $-1 $-1 $162 $60 #
plane-surface $-1 0 0 12.146433645303926 0 0 1 1 0 0 forward_v I I I I #
coedge $-1 $163 $164 $165 $166 reversed $61 $-1 #
coedge $-1 $167 $63 $168 $169 reversed $39 $-1 #
coedge $-1 $63 $167 $170 $171 reversed $39 $-1 #
coedge $-1 $164 $163 $63 $102 reversed $61 $-1 #
edge $-1 $172 -12.146433645303926 $173 12.146433645303926 $101 $174 forward 7 unknown #
face $-1 $175 $176 $23 $-1 $177 reversed single #
loop $-1 $-1 $178 $64 #
plane-surface $-1 0 0 12.146433645303926 0 0 1 1 0 0 forward_v I I I I #
coedge $-1 $179 $180 $181 $182 reversed $65 $-1 #
coedge $-1 $183 $67 $184 $185 reversed $42 $-1 #
coedge $-1 $67 $183 $186 $187 reversed $42 $-1 #
coedge $-1 $180 $179 $67 $110 reversed $65 $-1 #
edge $-1 $188 -12.146433645303926 $189 12.146433645303926 $109 $190 forward 7 unknown #
face $-1 $191 $192 $24 $-1 $193 reversed single #
loop $-1 $-1 $194 $68 #
plane-surface $-1 -53.899519643494415 -28.340395941736379 0 -1 0 0 0 0 1 forward_v I I I I #
coedge $-1 $195 $196 $197 $198 reversed $69 $-1 #
coedge $-1 $199 $71 $194 $200 reversed $45 $-1 #
coedge $-1 $71 $199 $195 $201 forward $45 $-1 #
coedge $-1 $197 $202 $71 $118 forward $192 $-1 #
edge $-1 $203 -32.221852336575594 $204 -11.133482277262043 $117 $205 forward 7 unknown #
loop $-1 $-1 $124 $72 #
plane-surface $-1 -43.355334613837634 -31.13040213184776 0.78241686781781539 0 -0.69465837861970381 0.71933979245794832 1 0 0 forward_v I I I I #
loop $-1 $-1 $206 $47 #
coedge $-1 $122 $122 $123 $207 reversed $73 $-1 #
coedge $-1 $123 $123 $122 $207 forward $75 $-1 #
coedge $-1 $124 $124 $76 $125 forward $119 $-1 #
edge $-1 $208 1.3311829736641498e-016 $208 6.2831853071796004 $124 $209 forward 7 unknown #
loop $-1 $-1 $131 $77 #
plane-surface $-1 -43.355334613837634 -31.13040213184776 0.78241686781781539 0 -0.69465837861970381 0.71933979245794832 1 0 0 forward_v I I I I #
loop $-1 $-1 $210 $50 #
coedge $-1 $129 $129 $130 $211 reversed $78 $-1 #
coedge $-1 $130 $130 $129 $211 forward $80 $-1 #
coedge $-1 $131 $131 $81 $132 forward $126 $-1 #
edge $-1 $212 1.3311829736641498e-016 $212 6.2831853071796004 $131 $213 forward 7 unknown #
loop $-1 $-1 $138 $82 #
plane-surface $-1 -43.355334613837634 -31.13040213184776 0.78241686781781539 0 -0.69465837861970381 0.71933979245794832 1 0 0 forward_v I I I I #
loop $-1 $-1 $214 $53 #
coedge $-1 $136 $136 $137 $215 reversed $83 $-1 #
coedge $-1 $137 $137 $136 $215 forward $85 $-1 #
coedge $-1 $138 $138 $86 $139 forward $133 $-1 #
edge $-1 $216 1.3311829736641498e-016 $216 6.2831853071796004 $138 $217 forward 7 unknown #
face $-1 $218 $219 $21 $-1 $220 reversed single #
loop $-1 $-1 $221 $87 #
plane-surface $-1 -62.988982818079165 0 0 1 0 0 0 0 -1 forward_v I I I I #
coedge $-1 $222 $151 $223 $224 forward $88 $-1 #
coedge $-1 $225 $90 $222 $226 forward $57 $-1 #
coedge $-1 $90 $225 $227 $228 forward $57 $-1 #
coedge $-1 $154 $153 $90 $147 reversed $155 $-1 #
edge $-1 $229 -31.13040213184777 $230 31.13040213184777 $146 $231 forward 7 unknown #
coedge $-1 $92 $91 $232 $233 forward $36 $-1 #
coedge $-1 $234 $235 $91 $150 reversed $219 $-1 #
edge $-1 $157 -62.988982818079165 $236 62.988982818079165 $149 $237 forward 7 unknown #
coedge $-1 $143 $238 $92 $152 reversed $88 $-1 #
edge $-1 $239 -62.988982818079165 $156 62.988982818079165 $151 $240 forward 7 unknown #
coedge $-1 $146 $93 $238 $241 forward $155 $-1 #
coedge $-1 $93 $146 $234 $242 reversed $155 $-1 #
loop $-1 $-1 $153 $218 #
vertex $-1 $94 $243 #
vertex $-1 $94 $244 #
straight-curve $-1 62.988982818079165 0 12.146433645303926 0 1 0 I I #
face $-1 $245 $246 $22 $-1 $247 reversed single #
loop $-1 $-1 $248 $95 #
plane-surface $-1 -62.988982818079165 0 0 1 0 0 0 0 -1 forward_v I I I I #
coedge $-1 $170 $249 $164 $250 forward $96 $-1 #
coedge $-1 $101 $98 $251 $252 reversed $61 $-1 #
coedge $-1 $98 $101 $162 $250 reversed $61 $-1 #
coedge $-1 $253 $254 $98 $166 forward $255 $-1 #
edge $-1 $256 -12.146433645303926 $257 12.146433645303926 $165 $258 forward 7 unknown #
coedge $-1 $100 $99 $248 $259 reversed $39 $-1 #
coedge $-1 $251 $260 $99 $169 forward $246 $-1 #
edge $-1 $261 -33.76685720268577 $173 -24.67739402810102 $168 $262 forward 7 unknown #
coedge $-1 $263 $162 $100 $171 forward $96 $-1 #
edge $-1 $172 24.67739402810102 $264 33.76685720268577 $170 $265 forward 7 unknown #
vertex $-1 $171 $266 #
vertex $-1 $169 $267 #
straight-curve $-1 -53.899519643494415 -25.550389751624987 0 0 0 -1 I I #
face $-1 $268 $269 $23 $-1 $270 reversed single #
loop $-1 $-1 $271 $103 #
plane-surface $-1 0 -31.13040213184777 0 0 1 0 0 0 1 forward_v I I I I #
coedge $-1 $186 $272 $180 $273 forward $104 $-1 #
coedge $-1 $109 $106 $274 $275 reversed $65 $-1 #
coedge $-1 $106 $109 $178 $273 reversed $65 $-1 #
coedge $-1 $276 $277 $106 $182 forward $278 $-1 #
edge $-1 $279 -12.146433645303926 $280 12.146433645303926 $181 $281 forward 7 unknown #
coedge $-1 $108 $107 $271 $282 reversed $42 $-1 #
coedge $-1 $274 $283 $107 $185 forward $269 $-1 #
edge $-1 $284 -16.960204160979579 $189 -11.380191780756798 $184 $285 forward 7 unknown #
coedge $-1 $286 $178 $108 $187 forward $104 $-1 #
edge $-1 $188 11.380191780756798 $287 16.960204160979579 $186 $288 forward 7 unknown #
vertex $-1 $187 $289 #
vertex $-1 $185 $290 #
straight-curve $-1 53.899519643494415 -25.550389751624987 0 0 0 -1 I I #
face $-1 $-1 $291 $24 $-1 $292 forward single #
loop $-1 $-1 $117 $111 #
plane-surface $-1 0 -31.13040213184777 0 0 1 0 0 0 1 forward_v I I I I #
coedge $-1 $293 $294 $115 $200 forward $112 $-1 #
coedge $-1 $196 $114 $116 $201 reversed $69 $-1 #
coedge $-1 $114 $195 $295 $296 reversed $69 $-1 #
coedge $-1 $297 $117 $114 $198 forward $192 $-1 #
edge $-1 $204 -44.919273393585442 $298 -33.555256616099328 $197 $299 forward 7 unknown #
coedge $-1 $116 $115 $300 $301 reversed $45 $-1 #
edge $-1 $302 -15.627419455788626 $203 0.73172502047405641 $194 $303 forward 7 unknown #
edge $-1 $304 -16.359144476262667 $204 1.4839224214701683e-014 $195 $305 forward 7 unknown #
coedge $-1 $117 $297 $293 $306 forward $192 $-1 #
vertex $-1 $118 $307 #
vertex $-1 $118 $308 #
straight-curve $-1 -21.677667306918817 -31.13040213184777 0.78241686781780506 1 0 0 I I #
coedge $-1 $206 $206 $-1 $309 reversed $121 $-1 #
edge $-1 $310 0 $310 6.2831853071796004 $122 $311 forward 7 unknown #
vertex $-1 $125 $312 #
ellipse-curve $-1 -49.681845631631695 -25.246510335675573 6.4644252565608653 0 -0.69465837861970381 0.71933979245794832 2 0 0 1 I I #
coedge $-1 $210 $210 $-1 $313 reversed $128 $-1 #
edge $-1 $314 0 $314 6.2831853071796004 $129 $315 forward 7 unknown #
vertex $-1 $132 $316 #
ellipse-curve $-1 -43.355334613837627 -25.246510335675573 6.4644252565608653 0 -0.69465837861970381 0.71933979245794832 2 0 0 1 I I #
coedge $-1 $214 $214 $-1 $317 reversed $135 $-1 #
edge $-1 $318 0 $318 6.2831853071796004 $136 $319 forward 7 unknown #
vertex $-1 $139 $320 #
ellipse-curve $-1 -37.028823596043566 -25.246510335675573 6.4644252565608653 0 -0.69465837861970381 0.71933979245794832 2 0 0 1 I I #
face $-1 $-1 $155 $21 $-1 $321 reversed single #
loop $-1 $-1 $234 $140 #
plane-surface $-1 0 31.13040213184777 0 0 -1 0 0 0 -1 forward_v I I I I #
coedge $-1 $322 $232 $235 $323 forward $141 $-1 #
coedge $-1 $238 $143 $144 $226 reversed $88 $-1 #
coedge $-1 $232 $322 $143 $224 reversed $141 $-1 #
edge $-1 $239 -12.146433645303926 $324 12.146433645303926 $223 $325 forward 7 unknown #
coedge $-1 $145 $144 $322 $326 forward $57 $-1 #
edge $-1 $230 -62.988982818079165 $324 62.988982818079165 $222 $327 forward 7 unknown #
coedge $-1 $235 $234 $145 $228 reversed $219 $-1 #
edge $-1 $328 -62.988982818079165 $229 62.988982818079165 $227 $329 forward 7 unknown #
vertex $-1 $147 $330 #
vertex $-1 $241 $331 #
straight-curve $-1 62.988982818079165 0 -12.146433645303926 0 -1 0 I I #
coedge $-1 $221 $223 $148 $233 reversed $141 $-1 #
edge $-1 $236 -31.13040213184777 $239 31.13040213184777 $232 $332 forward 7 unknown #
coedge $-1 $227 $149 $154 $242 forward $219 $-1 #
coedge $-1 $149 $227 $221 $323 reversed $219 $-1 #
vertex $-1 $150 $333 #
straight-curve $-1 0 31.13040213184777 12.146433645303926 -1 0 0 I I #
coedge $-1 $151 $222 $153 $241 reversed $88 $-1 #
vertex $-1 $233 $334 #
straight-curve $-1 0 -31.13040213184777 12.146433645303926 1 0 0 I I #
edge $-1 $156 -12.146433645303926 $230 12.146433645303926 $153 $335 forward 7 unknown #
edge $-1 $157 -12.146433645303926 $229 12.146433645303926 $154 $336 forward 7 unknown #
point $-1 62.988982818079165 -31.13040213184777 12.146433645303926 #
point $-1 62.988982818079165 31.13040213184777 12.146433645303926 #
face $-1 $-1 $255 $22 $-1 $337 reversed single #
loop $-1 $-1 $251 $159 #
plane-surface $-1 0 0 -12.146433645303926 0 0 1 1 0 0 forward_v I I I I #
coedge $-1 $338 $339 $167 $259 forward $160 $-1 #
coedge $-1 $162 $263 $253 $340 forward $96 $-1 #
edge $-1 $257 -16.960204160979579 $172 -11.380191780756798 $162 $341 forward 7 unknown #
coedge $-1 $342 $168 $163 $252 forward $246 $-1 #
edge $-1 $173 11.380191780756798 $256 16.960204160979579 $251 $343 forward 7 unknown #
coedge $-1 $344 $165 $249 $340 reversed $255 $-1 #
coedge $-1 $165 $344 $342 $345 reversed $255 $-1 #
loop $-1 $-1 $165 $245 #
vertex $-1 $345 $346 #
vertex $-1 $166 $347 #
straight-curve $-1 -53.899519643494415 -31.13040213184777 0 0 0 1 I I #
edge $-1 $264 -12.146433645303926 $261 12.146433645303926 $248 $348 forward 7 unknown #
coedge $-1 $168 $342 $338 $349 forward $246 $-1 #
vertex $-1 $169 $350 #
straight-curve $-1 -29.222125615393395 -25.550389751624987 -12.146433645303926 1 0 0 I I #
coedge $-1 $249 $170 $339 $351 forward $96 $-1 #
vertex $-1 $351 $352 #
straight-curve $-1 -29.222125615393395 -25.550389751624987 12.146433645303926 -1 0 0 I I #
point $-1 -53.899519643494415 -25.550389751624987 12.146433645303926 #
point $-1 -53.899519643494415 -25.550389751624987 -12.146433645303926 #
face $-1 $-1 $278 $23 $-1 $353 reversed single #
loop $-1 $-1 $274 $175 #
plane-surface $-1 0 0 -12.146433645303926 0 0 1 1 0 0 forward_v I I I I #
coedge $-1 $354 $355 $183 $282 forward $176 $-1 #
coedge $-1 $178 $286 $276 $356 forward $104 $-1 #
edge $-1 $280 -33.76685720268577 $188 -24.67739402810102 $178 $357 forward 7 unknown #
coedge $-1 $358 $184 $179 $275 forward $269 $-1 #
edge $-1 $189 24.67739402810102 $279 33.76685720268577 $274 $359 forward 7 unknown #
coedge $-1 $360 $181 $272 $356 reversed $278 $-1 #
coedge $-1 $181 $360 $358 $361 reversed $278 $-1 #
loop $-1 $-1 $181 $268 #
vertex $-1 $361 $362 #
vertex $-1 $182 $363 #
straight-curve $-1 62.988982818079165 -25.550389751624987 0 0 0 1 I I #
edge $-1 $287 -12.146433645303926 $284 12.146433645303926 $271 $364 forward 7 unknown #
coedge $-1 $184 $358 $354 $365 forward $269 $-1 #
vertex $-1 $185 $366 #
straight-curve $-1 53.899519643494415 -14.170197970868189 -12.146433645303926 0 1 0 I I #
coedge $-1 $272 $186 $355 $367 forward $104 $-1 #
vertex $-1 $367 $368 #
straight-curve $-1 53.899519643494415 -14.170197970868189 12.146433645303926 0 -1 0 I I #
point $-1 53.899519643494415 -25.550389751624987 12.146433645303926 #
point $-1 53.899519643494415 -25.550389751624987 -12.146433645303926 #
loop $-1 $-1 $369 $191 #
plane-surface $-1 0 0 12.146433645303926 0 0 1 1 0 0 forward_v I I I I #
coedge $-1 $294 $194 $202 $306 reversed $112 $-1 #
coedge $-1 $194 $293 $369 $370 reversed $112 $-1 #
coedge $-1 $300 $371 $196 $296 forward $291 $-1 #
edge $-1 $298 28.190623609387362 $304 39.958407201731752 $295 $372 forward 7 unknown #
coedge $-1 $202 $197 $371 $373 reversed $192 $-1 #
vertex $-1 $198 $374 #
straight-curve $-1 -32.81114958418086 -31.130402131847774 45.70169026140325 0 0 1 I I #
coedge $-1 $369 $295 $199 $301 forward $291 $-1 #
edge $-1 $304 11.133482277262043 $302 32.221852336575594 $300 $375 forward 7 unknown #
vertex $-1 $370 $376 #
straight-curve $-1 -53.899519643494415 -30.604043207483674 1.2907157841357819 0 -0.71933979245794832 -0.69465837861970381 I I #
vertex $-1 $301 $377 #
straight-curve $-1 -32.81114958418086 -31.13040213184776 0.78241686781781539 0 -0.71933979245794832 -0.69465837861970381 I I #
edge $-1 $378 -12.146433645303926 $203 -0.78241686781780495 $202 $379 forward 7 unknown #
point $-1 -53.899519643494415 -31.13040213184777 0.78241686781780495 #
point $-1 -32.81114958418086 -31.13040213184777 0.78241686781780506 #
edge $-1 $380 1 $380 0 $206 $-1 forward 7 unknown #
vertex $-1 $207 $381 #
ellipse-curve $-1 -49.681845631631695 -19.699546476736852 0.72037616153777229 0 -0.69465837861970381 0.71933979245794832 2 0 0 1 I I #
point $-1 -47.681845631631695 -25.246510335675588 6.4644252565608804 #
edge $-1 $382 1 $382 0 $210 $-1 forward 7 unknown #
vertex $-1 $211 $383 #
ellipse-curve $-1 -43.355334613837627 -19.699546476736852 0.72037616153777229 0 -0.69465837861970381 0.71933979245794832 2 0 0 1 I I #
point $-1 -41.355334613837627 -25.246510335675588 6.4644252565608804 #
edge $-1 $384 1 $384 0 $214 $-1 forward 7 unknown #
vertex $-1 $215 $385 #
ellipse-curve $-1 -37.028823596043566 -19.699546476736852 0.72037616153777229 0 -0.69465837861970381 0.71933979245794832 2 0 0 1 I I #
point $-1 -35.028823596043566 -25.246510335675588 6.4644252565608804 #
plane-surface $-1 62.988982818079165 0 0 -1 0 0 0 0 1 forward_v I I I I #
coedge $-1 $223 $221 $225 $326 reversed $141 $-1 #
edge $-1 $236 -12.146433645303926 $328 12.146433645303926 $235 $386 forward 7 unknown #
vertex $-1 $326 $387 #
straight-curve $-1 -62.988982818079165 -31.13040213184777 0 0 0 -1 I I #
edge $-1 $324 -31.13040213184777 $328 31.13040213184777 $322 $388 forward 7 unknown #
straight-curve $-1 0 -31.13040213184777 -12.146433645303926 -1 0 0 I I #
vertex $-1 $228 $389 #
straight-curve $-1 0 31.13040213184777 -12.146433645303926 1 0 0 I I #
point $-1 62.988982818079165 31.13040213184777 -12.146433645303926 #
point $-1 62.988982818079165 -31.13040213184777 -12.146433645303926 #
straight-curve $-1 -62.988982818079165 0 12.146433645303926 0 -1 0 I I #
point $-1 -62.988982818079165 31.13040213184777 12.146433645303926 #
point $-1 -62.988982818079165 -31.13040213184777 12.146433645303926 #
straight-curve $-1 62.988982818079165 -31.13040213184777 0 0 0 -1 I I #
straight-curve $-1 62.988982818079165 31.13040213184777 0 0 0 -1 I I #
plane-surface $-1 0 -31.13040213184777 0 0 1 0 0 0 1 forward_v I I I I #
coedge $-1 $390 $248 $260 $349 reversed $160 $-1 #
coedge $-1 $248 $390 $263 $351 reversed $160 $-1 #
edge $-1 $391 -62.988982818079165 $257 -53.899519643494415 $253 $392 forward 7 unknown #
straight-curve $-1 -53.899519643494415 -14.170197970868189 12.146433645303926 0 1 0 I I #
coedge $-1 $260 $251 $254 $345 forward $246 $-1 #
straight-curve $-1 -53.899519643494415 -14.170197970868189 -12.146433645303926 0 -1 0 I I #
coedge $-1 $254 $253 $390 $393 forward $255 $-1 #
edge $-1 $256 53.899519643494415 $394 62.988982818079165 $254 $395 forward 7 unknown #
point $-1 -53.899519643494415 -31.13040213184777 -12.146433645303926 #
point $-1 -53.899519643494415 -31.13040213184777 12.146433645303926 #
straight-curve $-1 -62.988982818079165 -25.550389751624987 0 0 0 -1 I I #
edge $-1 $394 -31.13040213184777 $261 -25.550389751624987 $338 $396 forward 7 unknown #
point $-1 -62.988982818079165 -25.550389751624987 -12.146433645303926 #
edge $-1 $264 25.550389751624987 $391 31.13040213184777 $339 $397 forward 7 unknown #
point $-1 -62.988982818079165 -25.550389751624987 12.146433645303926 #
plane-surface $-1 62.988982818079165 0 0 -1 0 0 0 0 1 forward_v I I I I #
coedge $-1 $398 $271 $283 $365 reversed $176 $-1 #
coedge $-1 $271 $398 $286 $367 reversed $176 $-1 #
edge $-1 $399 -31.13040213184777 $280 -25.550389751624987 $276 $400 forward 7 unknown #
straight-curve $-1 29.222125615393395 -25.550389751624987 12.146433645303926 -1 0 0 I I #
coedge $-1 $283 $274 $277 $361 forward $269 $-1 #
straight-curve $-1 29.222125615393395 -25.550389751624987 -12.146433645303926 1 0 0 I I #
coedge $-1 $277 $276 $398 $401 forward $278 $-1 #
edge $-1 $279 25.550389751624987 $402 31.13040213184777 $277 $403 forward 7 unknown #
point $-1 62.988982818079165 -25.550389751624987 -12.146433645303926 #
point $-1 62.988982818079165 -25.550389751624987 12.146433645303926 #
straight-curve $-1 53.899519643494415 -31.13040213184777 0 0 0 -1 I I #
edge $-1 $402 -62.988982818079165 $284 -53.899519643494415 $354 $404 forward 7 unknown #
point $-1 53.899519643494415 -31.13040213184777 -12.146433645303926 #
edge $-1 $287 53.899519643494415 $399 62.988982818079165 $355 $405 forward 7 unknown #
point $-1 53.899519643494415 -31.13040213184777 12.146433645303926 #
coedge $-1 $371 $300 $294 $370 forward $291 $-1 #
edge $-1 $302 -39.958407201731752 $378 -28.190623609387362 $369 $406 forward 7 unknown #
coedge $-1 $295 $369 $297 $373 forward $291 $-1 #
straight-curve $-1 -32.81114958418086 -59.321025741235133 12.146433645303929 0 1 0 I I #
edge $-1 $378 -53.899519643494415 $298 -32.81114958418086 $297 $407 forward 7 unknown #
point $-1 -32.81114958418086 -31.13040213184777 12.146433645303926 #
straight-curve $-1 -21.677667306918817 -19.362618539503377 12.146433645303926 -1 0 0 I I #
point $-1 -53.899519643494408 -19.36261853950338 12.146433645303926 #
point $-1 -32.81114958418086 -19.36261853950338 12.146433645303926 #
vertex $-1 $373 $408 #
straight-curve $-1 -53.899519643494415 -31.13040213184777 0 0 0 -1 I I #
vertex $-1 $309 $409 #
point $-1 -47.681845631631695 -19.699546476736852 0.72037616153777229 #
vertex $-1 $313 $410 #
point $-1 -41.355334613837627 -19.699546476736852 0.72037616153777229 #
vertex $-1 $317 $411 #
point $-1 -35.028823596043566 -19.699546476736852 0.72037616153777229 #
straight-curve $-1 -62.988982818079165 31.13040213184777 0 0 0 -1 I I #
point $-1 -62.988982818079165 -31.13040213184777 -12.146433645303926 #
straight-curve $-1 -62.988982818079165 0 -12.146433645303926 0 1 0 I I #
point $-1 -62.988982818079165 31.13040213184777 -12.146433645303926 #
coedge $-1 $339 $338 $344 $393 reversed $160 $-1 #
vertex $-1 $351 $412 #
straight-curve $-1 0 -31.13040213184777 12.146433645303926 1 0 0 I I #
edge $-1 $391 -12.146433645303926 $394 12.146433645303926 $390 $413 forward 7 unknown #
vertex $-1 $349 $414 #
straight-curve $-1 0 -31.13040213184777 -12.146433645303926 -1 0 0 I I #
straight-curve $-1 -62.988982818079165 0 -12.146433645303926 0 1 0 I I #
straight-curve $-1 -62.988982818079165 0 12.146433645303926 0 -1 0 I I #
coedge $-1 $355 $354 $360 $401 reversed $176 $-1 #
vertex $-1 $356 $415 #
straight-curve $-1 62.988982818079165 0 12.146433645303926 0 1 0 I I #
edge $-1 $399 -12.146433645303926 $402 12.146433645303926 $360 $416 forward 7 unknown #
vertex $-1 $401 $417 #
straight-curve $-1 62.988982818079165 0 -12.146433645303926 0 -1 0 I I #
straight-curve $-1 0 -31.13040213184777 -12.146433645303926 -1 0 0 I I #
straight-curve $-1 0 -31.13040213184777 12.146433645303926 1 0 0 I I #
straight-curve $-1 -53.899519643494408 -59.321025741235133 12.146433645303929 0 -1 0 I I #
straight-curve $-1 0 -31.13040213184777 12.146433645303926 1 0 0 I I #
point $-1 -53.899519643494415 -31.13040213184777 12.146433645303926 #
point $-1 -49.681845631631695 -18.310229719497446 -0.71830342337812503 #
point $-1 -43.355334613837627 -18.310229719497446 -0.71830342337812503 #
point $-1 -37.028823596043566 -18.310229719497446 -0.71830342337812503 #
point $-1 -62.988982818079165 -31.13040213184777 12.146433645303926 #
straight-curve $-1 -62.988982818079165 -31.13040213184777 0 0 0 -1 I I #
point $-1 -62.988982818079165 -31.13040213184777 -12.146433645303926 #
point $-1 62.988982818079165 -31.13040213184777 12.146433645303926 #
straight-curve $-1 62.988982818079165 -31.13040213184777 0 0 0 -1 I I #
point $-1 62.988982818079165 -31.13040213184777 -12.146433645303926 #
End-of-ACIS-data 