500 0 18 0           
7 Unknown 11 ACIS 5.0 NT 24 Thu Mar 25 17:42:48 1999 
-1 9.9999999999999995e-007 1e-010 
body $-1 $18 $-1 $19 #
body $-1 $20 $-1 $21 #
body $-1 $22 $-1 $23 #
body $-1 $24 $-1 $25 #
body $-1 $26 $-1 $27 #
body $-1 $28 $-1 $29 #
body $-1 $30 $-1 $31 #
body $-1 $32 $-1 $33 #
body $-1 $34 $-1 $35 #
body $-1 $36 $-1 $37 #
body $-1 $38 $-1 $39 #
body $-1 $40 $-1 $41 #
body $-1 $42 $-1 $43 #
body $-1 $44 $-1 $45 #
body $-1 $46 $-1 $47 #
body $-1 $48 $-1 $49 #
body $-1 $50 $-1 $51 #
body $-1 $52 $-1 $53 #
lump $-1 $-1 $54 $0 #
transform $-1 1 0 0 0 1 0 0 0 1 67.708365123447365 45.908697458438503 13.599717814259012 1 rotate no_reflect no_shear #
lump $-1 $-1 $55 $1 #
transform $-1 1 0 0 0 1 0 0 0 1 67.708365123447365 45.908697458438503 13.599717814259012 1 rotate no_reflect no_shear #
lump $-1 $-1 $56 $2 #
transform $-1 1 0 0 0 1 0 0 0 1 67.708365123447365 45.908697458438503 13.599717814259012 1 rotate no_reflect no_shear #
lump $-1 $-1 $57 $3 #
transform $-1 1 0 0 0 1 0 0 0 1 67.708365123447365 45.908697458438503 13.599717814259012 1 rotate no_reflect no_shear #
lump $-1 $-1 $58 $4 #
transform $-1 1 0 0 0 1 0 0 0 1 67.708365123447365 45.908697458438503 13.599717814259012 1 rotate no_reflect no_shear #
lump $-1 $-1 $59 $5 #
transform $-1 1 0 0 0 1 0 0 0 1 67.708365123447365 45.908697458438503 13.599717814259012 1 rotate no_reflect no_shear #
lump $-1 $-1 $60 $6 #
transform $-1 1 0 0 0 1 0 0 0 1 67.708365123447365 45.908697458438503 13.599717814259012 1 rotate no_reflect no_shear #
lump $-1 $-1 $61 $7 #
transform $-1 1 0 0 0 1 0 0 0 1 67.708365123447365 45.908697458438503 13.599717814259012 1 rotate no_reflect no_shear #
lump $-1 $-1 $62 $8 #
transform $-1 1 0 0 0 1 0 0 0 1 67.708365123447365 45.908697458438503 13.599717814259012 1 rotate no_reflect no_shear #
lump $-1 $-1 $63 $9 #
transform $-1 1 0 0 0 1 0 0 0 1 67.708365123447365 45.908697458438503 13.599717814259012 1 rotate no_reflect no_shear #
lump $-1 $-1 $64 $10 #
transform $-1 1 0 0 0 1 0 0 0 1 67.708365123447365 45.908697458438503 13.599717814259012 1 rotate no_reflect no_shear #
lump $-1 $-1 $65 $11 #
transform $-1 1 0 0 0 1 0 0 0 1 67.708365123447365 45.908697458438503 13.599717814259012 1 rotate no_reflect no_shear #
lump $-1 $-1 $66 $12 #
transform $-1 1 0 0 0 1 0 0 0 1 67.708365123447365 45.908697458438503 13.599717814259012 1 rotate no_reflect no_shear #
lump $-1 $-1 $67 $13 #
transform $-1 1 0 0 0 1 0 0 0 1 67.708365123447365 45.908697458438503 13.599717814259012 1 rotate no_reflect no_shear #
lump $-1 $-1 $68 $14 #
transform $-1 1 0 0 0 1 0 0 0 1 67.708365123447365 45.908697458438503 13.599717814259012 1 rotate no_reflect no_shear #
lump $-1 $-1 $69 $15 #
transform $-1 1 0 0 0 1 0 0 0 1 67.708365123447365 45.908697458438503 13.599717814259012 1 rotate no_reflect no_shear #
lump $-1 $-1 $70 $16 #
transform $-1 1 0 0 0 1 0 0 0 1 67.708365123447365 45.908697458438503 13.599717814259012 1 rotate no_reflect no_shear #
lump $-1 $-1 $71 $17 #
transform $-1 1 0 0 0 1 0 0 0 1 67.708365123447365 45.908697458438503 13.599717814259012 1 rotate no_reflect no_shear #
shell $-1 $-1 $-1 $72 $-1 $18 #
shell $-1 $-1 $-1 $73 $-1 $20 #
shell $-1 $-1 $-1 $74 $-1 $22 #
shell $-1 $-1 $-1 $75 $-1 $24 #
shell $-1 $-1 $-1 $76 $-1 $26 #
shell $-1 $-1 $-1 $77 $-1 $28 #
shell $-1 $-1 $-1 $78 $-1 $30 #
shell $-1 $-1 $-1 $79 $-1 $32 #
shell $-1 $-1 $-1 $80 $-1 $34 #
shell $-1 $-1 $-1 $81 $-1 $36 #
shell $-1 $-1 $-1 $82 $-1 $38 #
shell $-1 $-1 $-1 $83 $-1 $40 #
shell $-1 $-1 $-1 $84 $-1 $42 #
shell $-1 $-1 $-1 $85 $-1 $44 #
shell $-1 $-1 $-1 $86 $-1 $46 #
shell $-1 $-1 $-1 $87 $-1 $48 #
shell $-1 $-1 $-1 $88 $-1 $50 #
shell $-1 $-1 $-1 $89 $-1 $52 #
face $-1 $90 $91 $54 $-1 $92 forward single #
face $-1 $93 $94 $55 $-1 $95 reversed single #
face $-1 $96 $97 $56 $-1 $98 reversed single #
face $-1 $99 $100 $57 $-1 $101 forward single #
face $-1 $102 $103 $58 $-1 $104 forward single #
face $-1 $105 $106 $59 $-1 $107 forward single #
face $-1 $108 $109 $60 $-1 $110 reversed single #
face $-1 $111 $112 $61 $-1 $113 forward single #
face $-1 $114 $115 $62 $-1 $116 forward single #
face $-1 $117 $118 $63 $-1 $119 forward single #
face $-1 $120 $121 $64 $-1 $122 reversed single #
face $-1 $123 $124 $65 $-1 $125 forward single #
face $-1 $126 $127 $66 $-1 $128 forward single #
face $-1 $129 $130 $67 $-1 $131 forward single #
face $-1 $132 $133 $68 $-1 $134 reversed single #
face $-1 $135 $136 $69 $-1 $137 forward single #
face $-1 $138 $139 $70 $-1 $140 forward single #
face $-1 $141 $142 $71 $-1 $143 forward single #
face $-1 $144 $145 $54 $-1 $146 reversed single #
loop $-1 $-1 $147 $72 #
plane-surface $-1 0 0 13.599717814259012 0 0 1 1 0 0 forward_v I I I I #
face $-1 $148 $149 $55 $-1 $150 reversed single #
loop $-1 $-1 $151 $73 #
plane-surface $-1 -49.804127231722859 -42.226808463349755 0 -1 0 0 0 0 1 forward_v I I I I #
face $-1 $152 $153 $56 $-1 $154 reversed single #
loop $-1 $-1 $155 $74 #
plane-surface $-1 -39.611755605217446 -45.90869745843851 2.3556366198747014 0 -0.82903758062907751 0.55919289150049634 1 0 0 forward_v I I I I #
face $-1 $156 $157 $57 $-1 $158 forward single #
loop $-1 $159 $160 $75 #
cone-surface $-1 -45.727178581120697 -40.030352125843173 6.5704965579277603 0 0.82903758062907751 -0.55919289150049634 1.5 0 0 1 I I 0 1 1.5 forward I I I I #
face $-1 $161 $162 $58 $-1 $163 forward single #
loop $-1 $164 $165 $76 #
cone-surface $-1 -39.611755605217446 -40.030352125843173 6.5704965579277603 0 0.82903758062907751 -0.55919289150049634 1.5 0 0 1 I I 0 1 1.5 forward I I I I #
face $-1 $166 $167 $59 $-1 $168 forward single #
loop $-1 $169 $170 $77 #
cone-surface $-1 -33.496332629314203 -40.030352125843173 6.5704965579277603 0 0.82903758062907751 -0.55919289150049634 1.5 0 0 1 I I 0 1 1.5 forward I I I I #
face $-1 $171 $172 $60 $-1 $173 reversed single #
loop $-1 $-1 $174 $78 #
plane-surface $-1 57.51599349694196 -45.90869745843851 2.3556366198747014 0 -0.82903758062907751 0.55919289150049634 1 0 0 forward_v I I I I #
face $-1 $175 $176 $61 $-1 $177 forward single #
loop $-1 $178 $179 $79 #
cone-surface $-1 51.400570521038716 -40.030352125843173 6.5704965579277603 0 0.82903758062907751 -0.55919289150049634 1.5 0 0 1 I I 0 1 1.5 forward I I I I #
face $-1 $180 $181 $62 $-1 $182 forward single #
loop $-1 $183 $184 $80 #
cone-surface $-1 57.51599349694196 -40.030352125843173 6.5704965579277603 0 0.82903758062907751 -0.55919289150049634 1.5 0 0 1 I I 0 1 1.5 forward I I I I #
face $-1 $185 $186 $63 $-1 $187 forward single #
loop $-1 $188 $189 $81 #
cone-surface $-1 63.631416472845203 -40.030352125843173 6.5704965579277603 0 0.82903758062907751 -0.55919289150049634 1.5 0 0 1 I I 0 1 1.5 forward I I I I #
face $-1 $190 $191 $64 $-1 $192 reversed single #
loop $-1 $-1 $193 $82 #
plane-surface $-1 -49.804127231722852 106.83062132541312 154.19978050573076 1 0 0 0 -0.82903758062907751 -0.55919289150049634 forward_v I I I I #
face $-1 $194 $195 $65 $-1 $196 forward single #
loop $-1 $197 $198 $83 #
cone-surface $-1 -45.727178581120697 40.030352125843166 6.5704965579277568 0 -0.82903758062907751 -0.55919289150049634 1.5 0 0 1 I I 0 1 1.5 forward I I I I #
face $-1 $199 $200 $66 $-1 $201 forward single #
loop $-1 $202 $203 $84 #
cone-surface $-1 -39.611755605217446 40.030352125843166 6.5704965579277568 0 -0.82903758062907751 -0.55919289150049634 1.5 0 0 1 I I 0 1 1.5 forward I I I I #
face $-1 $204 $205 $67 $-1 $206 forward single #
loop $-1 $207 $208 $85 #
cone-surface $-1 -33.496332629314203 40.030352125843166 6.5704965579277568 0 -0.82903758062907751 -0.55919289150049634 1.5 0 0 1 I I 0 1 1.5 forward I I I I #
face $-1 $209 $210 $68 $-1 $211 reversed single #
loop $-1 $-1 $212 $86 #
plane-surface $-1 57.51599349694196 -5.4349370951729128 78.475707561426972 0 0.82903758062907751 0.55919289150049634 1 0 0 forward_v I I I I #
face $-1 $213 $214 $69 $-1 $215 forward single #
loop $-1 $216 $217 $87 #
cone-surface $-1 51.400570521038716 40.030352125843166 6.5704965579277568 0 -0.82903758062907751 -0.55919289150049634 1.5 0 0 1 I I 0 1 1.5 forward I I I I #
face $-1 $218 $219 $70 $-1 $220 forward single #
loop $-1 $221 $222 $88 #
cone-surface $-1 57.51599349694196 40.030352125843166 6.5704965579277568 0 -0.82903758062907751 -0.55919289150049634 1.5 0 0 1 I I 0 1 1.5 forward I I I I #
face $-1 $223 $224 $71 $-1 $225 forward single #
loop $-1 $226 $227 $89 #
cone-surface $-1 63.631416472845203 40.030352125843166 6.5704965579277568 0 -0.82903758062907751 -0.55919289150049634 1.5 0 0 1 I I 0 1 1.5 forward I I I I #
face $-1 $228 $229 $54 $-1 $230 reversed single #
loop $-1 $-1 $231 $90 #
plane-surface $-1 0 0 -13.599717814259012 0 0 1 1 0 0 forward_v I I I I #
coedge $-1 $232 $233 $234 $235 forward $91 $-1 #
face $-1 $236 $237 $55 $-1 $238 forward single #
loop $-1 $-1 $239 $93 #
plane-surface $-1 -58.756246177585112 -38.544919468261007 0 0 -1 0 0 0 -1 forward_v I I I I #
coedge $-1 $240 $241 $242 $243 reversed $94 $-1 #
face $-1 $244 $245 $56 $-1 $246 forward single #
loop $-1 $-1 $247 $96 #
plane-surface $-1 -29.419383978712041 -158.17425587902454 78.079709564178486 -1 0 0 0 -0.82903758062907751 0.55919289150049634 forward_v I I I I #
coedge $-1 $248 $249 $250 $251 reversed $97 $-1 #
face $-1 $-1 $252 $57 $-1 $253 forward single #
loop $-1 $254 $255 $99 #
cone-surface $-1 -45.727178581120697 -37.322342754509322 4.7439212301632949 0 0.82903758062907751 -0.55919289150049634 0.75 0 0 1 I I -0.70710678118654757 0.70710678118654757 0.75 forward I I I I #
loop $-1 $-1 $256 $75 #
coedge $-1 $160 $160 $257 $258 reversed $100 $-1 #
face $-1 $-1 $259 $58 $-1 $260 forward single #
loop $-1 $261 $262 $102 #
cone-surface $-1 -39.611755605217446 -37.322342754509322 4.7439212301632949 0 0.82903758062907751 -0.55919289150049634 0.75 0 0 1 I I -0.70710678118654757 0.70710678118654757 0.75 forward I I I I #
loop $-1 $-1 $263 $76 #
coedge $-1 $165 $165 $264 $265 reversed $103 $-1 #
face $-1 $-1 $266 $59 $-1 $267 forward single #
loop $-1 $268 $269 $105 #
cone-surface $-1 -33.496332629314203 -37.322342754509322 4.7439212301632949 0 0.82903758062907751 -0.55919289150049634 0.75 0 0 1 I I -0.70710678118654757 0.70710678118654757 0.75 forward I I I I #
loop $-1 $-1 $270 $77 #
coedge $-1 $170 $170 $271 $272 reversed $106 $-1 #
face $-1 $273 $274 $60 $-1 $275 reversed single #
loop $-1 $-1 $276 $108 #
plane-surface $-1 47.323621870436554 -158.17425587902454 78.079709564178486 1 0 0 0 0.82903758062907751 -0.55919289150049634 forward_v I I I I #
coedge $-1 $277 $278 $279 $280 reversed $109 $-1 #
face $-1 $-1 $281 $61 $-1 $282 forward single #
loop $-1 $283 $284 $111 #
cone-surface $-1 51.400570521038716 -37.322342754509322 4.7439212301632949 0 0.82903758062907751 -0.55919289150049634 0.75 0 0 1 I I -0.70710678118654757 0.70710678118654757 0.75 forward I I I I #
loop $-1 $-1 $285 $79 #
coedge $-1 $179 $179 $286 $287 reversed $112 $-1 #
face $-1 $-1 $288 $62 $-1 $289 forward single #
loop $-1 $290 $291 $114 #
cone-surface $-1 57.51599349694196 -37.322342754509322 4.7439212301632949 0 0.82903758062907751 -0.55919289150049634 0.75 0 0 1 I I -0.70710678118654757 0.70710678118654757 0.75 forward I I I I #
loop $-1 $-1 $292 $80 #
coedge $-1 $184 $184 $293 $294 reversed $115 $-1 #
face $-1 $-1 $295 $63 $-1 $296 forward single #
loop $-1 $297 $298 $117 #
cone-surface $-1 63.631416472845203 -37.322342754509322 4.7439212301632949 0 0.82903758062907751 -0.55919289150049634 0.75 0 0 1 I I -0.70710678118654757 0.70710678118654757 0.75 forward I I I I #
loop $-1 $-1 $299 $81 #
coedge $-1 $189 $189 $300 $301 reversed $118 $-1 #
face $-1 $302 $303 $64 $-1 $304 reversed single #
loop $-1 $-1 $305 $120 #
plane-surface $-1 -39.611755605217446 -5.4349370951729128 78.475707561426972 0 0.82903758062907751 0.55919289150049634 1 0 0 forward_v I I I I #
coedge $-1 $306 $307 $308 $309 reversed $121 $-1 #
face $-1 $-1 $310 $65 $-1 $311 forward single #
loop $-1 $312 $313 $123 #
cone-surface $-1 -45.727178581120697 37.322342754509314 4.7439212301632914 0 -0.82903758062907751 -0.55919289150049634 0.75 0 0 1 I I -0.70710678118654757 0.70710678118654757 0.75 forward I I I I #
loop $-1 $-1 $314 $83 #
coedge $-1 $198 $198 $315 $316 reversed $124 $-1 #
face $-1 $-1 $317 $66 $-1 $318 forward single #
loop $-1 $319 $320 $126 #
cone-surface $-1 -39.611755605217446 37.322342754509314 4.7439212301632914 0 -0.82903758062907751 -0.55919289150049634 0.75 0 0 1 I I -0.70710678118654757 0.70710678118654757 0.75 forward I I I I #
loop $-1 $-1 $321 $84 #
coedge $-1 $203 $203 $322 $323 reversed $127 $-1 #
face $-1 $-1 $324 $67 $-1 $325 forward single #
loop $-1 $326 $327 $129 #
cone-surface $-1 -33.496332629314203 37.322342754509314 4.7439212301632914 0 -0.82903758062907751 -0.55919289150049634 0.75 0 0 1 I I -0.70710678118654757 0.70710678118654757 0.75 forward I I I I #
loop $-1 $-1 $328 $85 #
coedge $-1 $208 $208 $329 $330 reversed $130 $-1 #
face $-1 $331 $332 $68 $-1 $333 forward single #
loop $-1 $-1 $334 $132 #
plane-surface $-1 47.323621870436554 106.83062132541312 154.19978050573076 1 0 0 0 -0.82903758062907751 -0.55919289150049634 forward_v I I I I #
coedge $-1 $335 $336 $337 $338 reversed $133 $-1 #
face $-1 $-1 $339 $69 $-1 $340 forward single #
loop $-1 $341 $342 $135 #
cone-surface $-1 51.400570521038716 37.322342754509314 4.7439212301632914 0 -0.82903758062907751 -0.55919289150049634 0.75 0 0 1 I I -0.70710678118654757 0.70710678118654757 0.75 forward I I I I #
loop $-1 $-1 $343 $87 #
coedge $-1 $217 $217 $344 $345 reversed $136 $-1 #
face $-1 $-1 $346 $70 $-1 $347 forward single #
loop $-1 $348 $349 $138 #
cone-surface $-1 57.51599349694196 37.322342754509314 4.7439212301632914 0 -0.82903758062907751 -0.55919289150049634 0.75 0 0 1 I I -0.70710678118654757 0.70710678118654757 0.75 forward I I I I #
loop $-1 $-1 $350 $88 #
coedge $-1 $222 $222 $351 $352 reversed $139 $-1 #
face $-1 $-1 $353 $71 $-1 $354 forward single #
loop $-1 $355 $356 $141 #
cone-surface $-1 63.631416472845203 37.322342754509314 4.7439212301632914 0 -0.82903758062907751 -0.55919289150049634 0.75 0 0 1 I I -0.70710678118654757 0.70710678118654757 0.75 forward I I I I #
loop $-1 $-1 $357 $89 #
coedge $-1 $227 $227 $358 $359 reversed $142 $-1 #
face $-1 $360 $361 $54 $-1 $362 reversed single #
loop $-1 $-1 $363 $144 #
plane-surface $-1 0 -45.908697458438503 0 0 1 0 0 0 1 forward_v I I I I #
coedge $-1 $364 $365 $366 $367 forward $145 $-1 #
coedge $-1 $368 $147 $369 $370 forward $91 $-1 #
coedge $-1 $147 $368 $371 $372 forward $91 $-1 #
coedge $-1 $373 $374 $147 $235 reversed $375 $-1 #
edge $-1 $376 -45.908697458438503 $377 45.908697458438503 $234 $378 forward 7 unknown #
face $-1 $379 $380 $55 $-1 $381 reversed single #
loop $-1 $-1 $382 $148 #
plane-surface $-1 0 0 13.599717814259012 0 0 1 1 0 0 forward_v I I I I #
coedge $-1 $383 $384 $385 $386 forward $149 $-1 #
coedge $-1 $385 $151 $387 $388 reversed $94 $-1 #
coedge $-1 $151 $385 $382 $389 reversed $94 $-1 #
coedge $-1 $390 $391 $151 $243 forward $392 $-1 #
edge $-1 $393 -13.599717814259012 $394 13.599717814259012 $242 $395 forward 7 unknown #
face $-1 $396 $397 $56 $-1 $398 forward single #
loop $-1 $-1 $399 $152 #
plane-surface $-1 0 0 13.599717814259012 0 0 1 1 0 0 forward_v I I I I #
coedge $-1 $400 $401 $402 $403 reversed $153 $-1 #
coedge $-1 $404 $155 $405 $406 reversed $97 $-1 #
coedge $-1 $155 $404 $400 $407 forward $97 $-1 #
coedge $-1 $402 $408 $155 $251 forward $409 $-1 #
edge $-1 $410 -29.998249429114136 $411 -9.6135061761033178 $250 $412 forward 7 unknown #
loop $-1 $-1 $257 $156 #
plane-surface $-1 -39.611755605217446 -45.90869745843851 2.3556366198747014 0 -0.82903758062907751 0.55919289150049634 1 0 0 forward_v I I I I #
loop $-1 $-1 $413 $99 #
coedge $-1 $255 $255 $256 $414 reversed $157 $-1 #
coedge $-1 $256 $256 $255 $414 forward $159 $-1 #
coedge $-1 $257 $257 $160 $258 forward $252 $-1 #
edge $-1 $415 1.3706284220040515e-015 $415 6.2831853071796022 $257 $416 forward 7 unknown #
loop $-1 $-1 $264 $161 #
plane-surface $-1 -39.611755605217446 -45.90869745843851 2.3556366198747014 0 -0.82903758062907751 0.55919289150049634 1 0 0 forward_v I I I I #
loop $-1 $-1 $417 $102 #
coedge $-1 $262 $262 $263 $418 reversed $162 $-1 #
coedge $-1 $263 $263 $262 $418 forward $164 $-1 #
coedge $-1 $264 $264 $165 $265 forward $259 $-1 #
edge $-1 $419 1.3706284220040515e-015 $419 6.2831853071796022 $264 $420 forward 7 unknown #
loop $-1 $-1 $271 $166 #
plane-surface $-1 -39.611755605217446 -45.90869745843851 2.3556366198747014 0 -0.82903758062907751 0.55919289150049634 1 0 0 forward_v I I I I #
loop $-1 $-1 $421 $105 #
coedge $-1 $269 $269 $270 $422 reversed $167 $-1 #
coedge $-1 $270 $270 $269 $422 forward $169 $-1 #
coedge $-1 $271 $271 $170 $272 forward $266 $-1 #
edge $-1 $423 1.3706284220040515e-015 $423 6.2831853071796022 $271 $424 forward 7 unknown #
face $-1 $425 $426 $60 $-1 $427 forward single #
loop $-1 $-1 $428 $171 #
plane-surface $-1 67.708365123447365 0 0 -1 0 0 0 0 1 forward_v I I I I #
coedge $-1 $429 $430 $431 $432 reversed $172 $-1 #
coedge $-1 $433 $174 $428 $434 reversed $109 $-1 #
coedge $-1 $174 $433 $429 $435 forward $109 $-1 #
coedge $-1 $431 $436 $174 $280 forward $426 $-1 #
edge $-1 $437 -38.950368374976385 $438 -18.565625121965574 $279 $439 forward 7 unknown #
loop $-1 $-1 $286 $175 #
plane-surface $-1 57.51599349694196 -45.90869745843851 2.3556366198747014 0 -0.82903758062907751 0.55919289150049634 1 0 0 forward_v I I I I #
loop $-1 $-1 $440 $111 #
coedge $-1 $284 $284 $285 $441 reversed $176 $-1 #
coedge $-1 $285 $285 $284 $441 forward $178 $-1 #
coedge $-1 $286 $286 $179 $287 forward $281 $-1 #
edge $-1 $442 1.3706284220040515e-015 $442 6.2831853071796022 $286 $443 forward 7 unknown #
loop $-1 $-1 $293 $180 #
plane-surface $-1 57.51599349694196 -45.90869745843851 2.3556366198747014 0 -0.82903758062907751 0.55919289150049634 1 0 0 forward_v I I I I #
loop $-1 $-1 $444 $114 #
coedge $-1 $291 $291 $292 $445 reversed $181 $-1 #
coedge $-1 $292 $292 $291 $445 forward $183 $-1 #
coedge $-1 $293 $293 $184 $294 forward $288 $-1 #
edge $-1 $446 1.3706284220040515e-015 $446 6.2831853071796022 $293 $447 forward 7 unknown #
loop $-1 $-1 $300 $185 #
plane-surface $-1 57.51599349694196 -45.90869745843851 2.3556366198747014 0 -0.82903758062907751 0.55919289150049634 1 0 0 forward_v I I I I #
loop $-1 $-1 $448 $117 #
coedge $-1 $298 $298 $299 $449 reversed $186 $-1 #
coedge $-1 $299 $299 $298 $449 forward $188 $-1 #
coedge $-1 $300 $300 $189 $301 forward $295 $-1 #
edge $-1 $450 1.3706284220040515e-015 $450 6.2831853071796022 $300 $451 forward 7 unknown #
face $-1 $452 $453 $64 $-1 $454 reversed single #
loop $-1 $-1 $455 $190 #
plane-surface $-1 -29.419383978712041 106.83062132541312 154.19978050573076 -1 0 0 0 0.82903758062907751 0.55919289150049634 forward_v I I I I #
coedge $-1 $456 $457 $458 $459 reversed $191 $-1 #
coedge $-1 $307 $193 $460 $461 reversed $121 $-1 #
coedge $-1 $193 $306 $456 $462 reversed $121 $-1 #
coedge $-1 $458 $463 $193 $309 forward $464 $-1 #
edge $-1 $465 7.5066132042680564 $466 15.090841497734608 $308 $467 forward 7 unknown #
loop $-1 $-1 $315 $194 #
plane-surface $-1 -39.611755605217446 -5.4349370951729128 78.475707561426972 0 0.82903758062907751 0.55919289150049634 1 0 0 forward_v I I I I #
loop $-1 $-1 $468 $123 #
coedge $-1 $313 $313 $314 $469 reversed $195 $-1 #
coedge $-1 $314 $314 $313 $469 forward $197 $-1 #
coedge $-1 $315 $315 $198 $316 forward $310 $-1 #
edge $-1 $470 3.9850166111108777e-016 $470 6.2831853071796004 $315 $471 forward 7 unknown #
loop $-1 $-1 $322 $199 #
plane-surface $-1 -39.611755605217446 -5.4349370951729128 78.475707561426972 0 0.82903758062907751 0.55919289150049634 1 0 0 forward_v I I I I #
loop $-1 $-1 $472 $126 #
coedge $-1 $320 $320 $321 $473 reversed $200 $-1 #
coedge $-1 $321 $321 $320 $473 forward $202 $-1 #
coedge $-1 $322 $322 $203 $323 forward $317 $-1 #
edge $-1 $474 3.9850166111108777e-016 $474 6.2831853071796004 $322 $475 forward 7 unknown #
loop $-1 $-1 $329 $204 #
plane-surface $-1 -39.611755605217446 -5.4349370951729128 78.475707561426972 0 0.82903758062907751 0.55919289150049634 1 0 0 forward_v I I I I #
loop $-1 $-1 $476 $129 #
coedge $-1 $327 $327 $328 $477 reversed $205 $-1 #
coedge $-1 $328 $328 $327 $477 forward $207 $-1 #
coedge $-1 $329 $329 $208 $330 forward $324 $-1 #
edge $-1 $478 3.9850166111108777e-016 $478 6.2831853071796004 $329 $479 forward 7 unknown #
face $-1 $480 $481 $68 $-1 $482 reversed single #
loop $-1 $-1 $483 $209 #
plane-surface $-1 0 0 13.599717814259012 0 0 1 1 0 0 forward_v I I I I #
coedge $-1 $484 $485 $486 $487 reversed $210 $-1 #
coedge $-1 $488 $212 $489 $490 reversed $133 $-1 #
coedge $-1 $212 $488 $484 $491 forward $133 $-1 #
coedge $-1 $486 $492 $212 $338 forward $493 $-1 #
edge $-1 $494 -38.950368374976385 $495 -18.565625121965574 $337 $496 forward 7 unknown #
loop $-1 $-1 $344 $213 #
plane-surface $-1 57.51599349694196 -5.4349370951729128 78.475707561426972 0 0.82903758062907751 0.55919289150049634 1 0 0 forward_v I I I I #
loop $-1 $-1 $497 $135 #
coedge $-1 $342 $342 $343 $498 reversed $214 $-1 #
coedge $-1 $343 $343 $342 $498 forward $216 $-1 #
coedge $-1 $344 $344 $217 $345 forward $339 $-1 #
edge $-1 $499 3.9850166111108777e-016 $499 6.2831853071796004 $344 $500 forward 7 unknown #
loop $-1 $-1 $351 $218 #
plane-surface $-1 57.51599349694196 -5.4349370951729128 78.475707561426972 0 0.82903758062907751 0.55919289150049634 1 0 0 forward_v I I I I #
loop $-1 $-1 $501 $138 #
coedge $-1 $349 $349 $350 $502 reversed $219 $-1 #
coedge $-1 $350 $350 $349 $502 forward $221 $-1 #
coedge $-1 $351 $351 $222 $352 forward $346 $-1 #
edge $-1 $503 3.9850166111108777e-016 $503 6.2831853071796004 $351 $504 forward 7 unknown #
loop $-1 $-1 $358 $223 #
plane-surface $-1 57.51599349694196 -5.4349370951729128 78.475707561426972 0 0.82903758062907751 0.55919289150049634 1 0 0 forward_v I I I I #
loop $-1 $-1 $505 $141 #
coedge $-1 $356 $356 $357 $506 reversed $224 $-1 #
coedge $-1 $357 $357 $356 $506 forward $226 $-1 #
coedge $-1 $358 $358 $227 $359 forward $353 $-1 #
edge $-1 $507 3.9850166111108777e-016 $507 6.2831853071796004 $358 $508 forward 7 unknown #
face $-1 $509 $510 $54 $-1 $511 reversed single #
loop $-1 $-1 $512 $228 #
plane-surface $-1 -67.708365123447365 0 0 1 0 0 0 0 -1 forward_v I I I I #
coedge $-1 $513 $371 $514 $515 forward $229 $-1 #
coedge $-1 $516 $231 $513 $517 forward $145 $-1 #
coedge $-1 $231 $516 $518 $519 forward $145 $-1 #
coedge $-1 $374 $373 $231 $367 reversed $375 $-1 #
edge $-1 $520 -45.908697458438503 $521 45.908697458438503 $366 $522 forward 7 unknown #
coedge $-1 $233 $232 $523 $524 forward $91 $-1 #
coedge $-1 $525 $526 $232 $370 reversed $510 $-1 #
edge $-1 $377 -67.708365123447365 $527 67.708365123447365 $369 $528 forward 7 unknown #
coedge $-1 $363 $529 $233 $372 reversed $229 $-1 #
edge $-1 $530 -67.708365123447365 $376 67.708365123447365 $371 $531 forward 7 unknown #
coedge $-1 $366 $234 $529 $532 forward $375 $-1 #
coedge $-1 $234 $366 $525 $533 reversed $375 $-1 #
loop $-1 $-1 $373 $509 #
vertex $-1 $235 $534 #
vertex $-1 $235 $535 #
straight-curve $-1 67.708365123447365 0 13.599717814259012 0 1 0 I I #
face $-1 $536 $537 $55 $-1 $538 reversed single #
loop $-1 $-1 $539 $236 #
plane-surface $-1 -67.708365123447365 0 0 1 0 0 0 0 -1 forward_v I I I I #
coedge $-1 $540 $541 $241 $389 forward $237 $-1 #
coedge $-1 $542 $239 $543 $544 reversed $149 $-1 #
coedge $-1 $239 $542 $540 $545 reversed $149 $-1 #
coedge $-1 $241 $240 $239 $386 reversed $94 $-1 #
edge $-1 $546 -13.599717814259012 $547 13.599717814259012 $385 $548 forward 7 unknown #
coedge $-1 $549 $543 $240 $388 forward $537 $-1 #
edge $-1 $547 17.431515236586129 $393 24.795293226763626 $387 $550 forward 7 unknown #
edge $-1 $394 -24.795293226763626 $546 -17.431515236586129 $382 $551 forward 7 unknown #
coedge $-1 $552 $242 $541 $553 reversed $392 $-1 #
coedge $-1 $242 $552 $549 $554 reversed $392 $-1 #
loop $-1 $-1 $242 $536 #
vertex $-1 $554 $555 #
vertex $-1 $243 $556 #
straight-curve $-1 -49.804127231722859 -45.908697458438503 0 0 0 1 I I #
face $-1 $-1 $409 $56 $-1 $557 reversed single #
loop $-1 $-1 $405 $244 #
plane-surface $-1 -49.804127231722859 -42.226808463349755 0 -1 0 0 0 0 1 forward_v I I I I #
coedge $-1 $558 $559 $401 $560 forward $245 $-1 #
coedge $-1 $401 $247 $249 $407 reversed $153 $-1 #
coedge $-1 $247 $400 $399 $560 reversed $153 $-1 #
coedge $-1 $561 $250 $247 $403 forward $409 $-1 #
edge $-1 $411 -36.684218162214535 $562 -25.440136967830231 $402 $563 forward 7 unknown #
coedge $-1 $249 $248 $558 $564 reversed $97 $-1 #
coedge $-1 $565 $566 $248 $406 forward $397 $-1 #
edge $-1 $567 -13.509824984430043 $410 0.05298743458266534 $405 $568 forward 7 unknown #
edge $-1 $569 -13.562812419012722 $411 -1.2809303928265426e-014 $400 $570 forward 7 unknown #
coedge $-1 $250 $561 $565 $571 forward $409 $-1 #
loop $-1 $-1 $402 $396 #
vertex $-1 $406 $572 #
vertex $-1 $251 $573 #
straight-curve $-1 -19.805877802608723 -45.908697458438503 2.3556366198747156 1 0 0 I I #
coedge $-1 $413 $413 $-1 $574 reversed $254 $-1 #
edge $-1 $575 0 $575 6.2831853071796004 $255 $576 forward 7 unknown #
vertex $-1 $258 $577 #
ellipse-curve $-1 -45.727178581120697 -42.116583311705227 7.9776772170668613 0 -0.82903758062907751 0.55919289150049634 1.5 0 0 1 I I #
coedge $-1 $417 $417 $-1 $578 reversed $261 $-1 #
edge $-1 $579 0 $579 6.2831853071796004 $262 $580 forward 7 unknown #
vertex $-1 $265 $581 #
ellipse-curve $-1 -39.611755605217446 -42.116583311705227 7.9776772170668613 0 -0.82903758062907751 0.55919289150049634 1.5 0 0 1 I I #
coedge $-1 $421 $421 $-1 $582 reversed $268 $-1 #
edge $-1 $583 0 $583 6.2831853071796004 $269 $584 forward 7 unknown #
vertex $-1 $272 $585 #
ellipse-curve $-1 -33.496332629314203 -42.116583311705227 7.9776772170668613 0 -0.82903758062907751 0.55919289150049634 1.5 0 0 1 I I #
face $-1 $-1 $586 $60 $-1 $587 reversed single #
loop $-1 $-1 $279 $273 #
plane-surface $-1 0 0 13.599717814259012 0 0 1 1 0 0 forward_v I I I I #
coedge $-1 $588 $589 $277 $434 forward $274 $-1 #
coedge $-1 $430 $276 $278 $435 reversed $172 $-1 #
coedge $-1 $276 $429 $590 $591 reversed $172 $-1 #
coedge $-1 $592 $279 $276 $432 forward $426 $-1 #
edge $-1 $438 -40.762658774540327 $593 -33.178430481073768 $431 $594 forward 7 unknown #
coedge $-1 $278 $277 $595 $596 reversed $109 $-1 #
edge $-1 $597 -11.859452996311758 $437 1.7033594227009519 $428 $598 forward 7 unknown #
edge $-1 $599 1.2809303928265426e-014 $438 13.562812419012722 $429 $600 forward 7 unknown #
coedge $-1 $279 $592 $588 $601 forward $426 $-1 #
vertex $-1 $434 $602 #
vertex $-1 $280 $603 #
straight-curve $-1 28.75799674847098 -38.324469164971944 13.599717814259012 -1 0 0 I I #
coedge $-1 $440 $440 $-1 $604 reversed $283 $-1 #
edge $-1 $605 0 $605 6.2831853071796004 $284 $606 forward 7 unknown #
vertex $-1 $287 $607 #
ellipse-curve $-1 51.400570521038716 -42.116583311705227 7.9776772170668613 0 -0.82903758062907751 0.55919289150049634 1.5 0 0 1 I I #
coedge $-1 $444 $444 $-1 $608 reversed $290 $-1 #
edge $-1 $609 0 $609 6.2831853071796004 $291 $610 forward 7 unknown #
vertex $-1 $294 $611 #
ellipse-curve $-1 57.51599349694196 -42.116583311705227 7.9776772170668613 0 -0.82903758062907751 0.55919289150049634 1.5 0 0 1 I I #
coedge $-1 $448 $448 $-1 $612 reversed $297 $-1 #
edge $-1 $613 0 $613 6.2831853071796004 $298 $614 forward 7 unknown #
vertex $-1 $301 $615 #
ellipse-curve $-1 63.631416472845203 -42.116583311705227 7.9776772170668613 0 -0.82903758062907751 0.55919289150049634 1.5 0 0 1 I I #
face $-1 $-1 $464 $64 $-1 $616 forward single #
loop $-1 $-1 $617 $302 #
plane-surface $-1 0 45.908697458438503 0 0 -1 0 0 0 -1 forward_v I I I I #
coedge $-1 $618 $619 $620 $621 reversed $303 $-1 #
coedge $-1 $622 $305 $307 $462 forward $191 $-1 #
coedge $-1 $305 $622 $618 $623 forward $191 $-1 #
coedge $-1 $620 $308 $305 $459 forward $464 $-1 #
edge $-1 $466 -29.998249429114129 $624 -9.6135061761033178 $458 $625 forward 7 unknown #
coedge $-1 $626 $627 $306 $461 forward $453 $-1 #
edge $-1 $628 -74.744253632990663 $465 -63.50017243860637 $460 $629 forward 7 unknown #
edge $-1 $466 78.254582497864291 $628 91.817394916876992 $307 $630 forward 7 unknown #
coedge $-1 $308 $620 $626 $631 forward $464 $-1 #
loop $-1 $-1 $620 $452 #
vertex $-1 $461 $632 #
vertex $-1 $309 $633 #
straight-curve $-1 -49.804127231722852 53.41531066270656 13.599717814259009 0 -1 0 I I #
coedge $-1 $468 $468 $-1 $634 reversed $312 $-1 #
edge $-1 $635 0 $635 6.2831853071796004 $313 $636 forward 7 unknown #
vertex $-1 $316 $637 #
ellipse-curve $-1 -45.727178581120697 42.116583311705227 7.9776772170668657 0 0.82903758062907751 0.55919289150049634 1.5 0 0 1 I I #
coedge $-1 $472 $472 $-1 $638 reversed $319 $-1 #
edge $-1 $639 0 $639 6.2831853071796004 $320 $640 forward 7 unknown #
vertex $-1 $323 $641 #
ellipse-curve $-1 -39.611755605217446 42.116583311705227 7.9776772170668657 0 0.82903758062907751 0.55919289150049634 1.5 0 0 1 I I #
coedge $-1 $476 $476 $-1 $642 reversed $326 $-1 #
edge $-1 $643 0 $643 6.2831853071796004 $327 $644 forward 7 unknown #
vertex $-1 $330 $645 #
ellipse-curve $-1 -33.496332629314203 42.116583311705227 7.9776772170668657 0 0.82903758062907751 0.55919289150049634 1.5 0 0 1 I I #
face $-1 $-1 $493 $68 $-1 $646 reversed single #
loop $-1 $-1 $489 $331 #
plane-surface $-1 67.708365123447365 0 0 -1 0 0 0 0 1 forward_v I I I I #
coedge $-1 $647 $648 $485 $649 forward $332 $-1 #
coedge $-1 $485 $334 $336 $491 reversed $210 $-1 #
coedge $-1 $334 $484 $483 $649 reversed $210 $-1 #
coedge $-1 $650 $337 $334 $487 forward $493 $-1 #
edge $-1 $495 -74.744253632990663 $651 -63.50017243860637 $486 $652 forward 7 unknown #
coedge $-1 $336 $335 $647 $653 reversed $133 $-1 #
coedge $-1 $654 $655 $335 $490 forward $481 $-1 #
edge $-1 $656 44.205338035737562 $494 57.768150454750256 $489 $657 forward 7 unknown #
edge $-1 $658 78.254582497864291 $495 91.817394916876992 $484 $659 forward 7 unknown #
coedge $-1 $337 $650 $654 $660 forward $493 $-1 #
loop $-1 $-1 $486 $480 #
vertex $-1 $338 $661 #
vertex $-1 $338 $662 #
straight-curve $-1 28.75799674847098 45.908697458438503 2.3556366198747156 -1 0 0 I I #
coedge $-1 $497 $497 $-1 $663 reversed $341 $-1 #
edge $-1 $664 0 $664 6.2831853071796004 $342 $665 forward 7 unknown #
vertex $-1 $345 $666 #
ellipse-curve $-1 51.400570521038716 42.116583311705227 7.9776772170668657 0 0.82903758062907751 0.55919289150049634 1.5 0 0 1 I I #
coedge $-1 $501 $501 $-1 $667 reversed $348 $-1 #
edge $-1 $668 0 $668 6.2831853071796004 $349 $669 forward 7 unknown #
vertex $-1 $352 $670 #
ellipse-curve $-1 57.51599349694196 42.116583311705227 7.9776772170668657 0 0.82903758062907751 0.55919289150049634 1.5 0 0 1 I I #
coedge $-1 $505 $505 $-1 $671 reversed $355 $-1 #
edge $-1 $672 0 $672 6.2831853071796004 $356 $673 forward 7 unknown #
vertex $-1 $359 $674 #
ellipse-curve $-1 63.631416472845203 42.116583311705227 7.9776772170668657 0 0.82903758062907751 0.55919289150049634 1.5 0 0 1 I I #
face $-1 $-1 $375 $54 $-1 $675 reversed single #
loop $-1 $-1 $525 $360 #
plane-surface $-1 0 45.908697458438503 0 0 -1 0 0 0 -1 forward_v I I I I #
coedge $-1 $676 $523 $526 $677 forward $361 $-1 #
coedge $-1 $529 $363 $364 $517 reversed $229 $-1 #
coedge $-1 $523 $676 $363 $515 reversed $361 $-1 #
edge $-1 $530 -13.599717814259012 $678 13.599717814259012 $514 $679 forward 7 unknown #
coedge $-1 $365 $364 $676 $680 forward $145 $-1 #
edge $-1 $521 -67.708365123447365 $678 67.708365123447365 $513 $681 forward 7 unknown #
coedge $-1 $526 $525 $365 $519 reversed $510 $-1 #
edge $-1 $682 -67.708365123447365 $520 67.708365123447365 $518 $683 forward 7 unknown #
vertex $-1 $367 $684 #
vertex $-1 $532 $685 #
straight-curve $-1 67.708365123447365 0 -13.599717814259012 0 -1 0 I I #
coedge $-1 $512 $514 $368 $524 reversed $361 $-1 #
edge $-1 $527 -45.908697458438503 $530 45.908697458438503 $523 $686 forward 7 unknown #
coedge $-1 $518 $369 $374 $533 forward $510 $-1 #
coedge $-1 $369 $518 $512 $677 reversed $510 $-1 #
vertex $-1 $370 $687 #
straight-curve $-1 0 45.908697458438503 13.599717814259012 -1 0 0 I I #
coedge $-1 $371 $513 $373 $532 reversed $229 $-1 #
vertex $-1 $524 $688 #
straight-curve $-1 0 -45.908697458438503 13.599717814259012 1 0 0 I I #
edge $-1 $376 -13.599717814259012 $521 13.599717814259012 $373 $689 forward 7 unknown #
edge $-1 $377 -13.599717814259012 $520 13.599717814259012 $374 $690 forward 7 unknown #
point $-1 67.708365123447365 -45.908697458438503 13.599717814259012 #
point $-1 67.708365123447365 45.908697458438503 13.599717814259012 #
face $-1 $-1 $392 $55 $-1 $691 reversed single #
loop $-1 $-1 $387 $379 #
plane-surface $-1 0 0 -13.599717814259012 0 0 1 1 0 0 forward_v I I I I #
coedge $-1 $692 $693 $542 $694 forward $380 $-1 #
coedge $-1 $695 $382 $384 $545 forward $237 $-1 #
coedge $-1 $382 $695 $390 $553 forward $237 $-1 #
coedge $-1 $384 $383 $539 $694 reversed $149 $-1 #
coedge $-1 $387 $696 $383 $544 forward $537 $-1 #
edge $-1 $697 -38.330242034654809 $547 -20.426004142930303 $543 $698 forward 7 unknown #
edge $-1 $546 20.426004142930303 $699 38.330242034654809 $540 $700 forward 7 unknown #
vertex $-1 $545 $701 #
vertex $-1 $544 $702 #
straight-curve $-1 -49.804127231722859 -38.544919468261007 0 0 0 -1 I I #
coedge $-1 $696 $387 $391 $554 forward $537 $-1 #
straight-curve $-1 -49.804127231722859 -21.113404231674878 -13.599717814259012 0 -1 0 I I #
straight-curve $-1 -49.804127231722859 -21.113404231674878 13.599717814259012 0 1 0 I I #
coedge $-1 $391 $390 $703 $704 forward $392 $-1 #
edge $-1 $705 -67.708365123447365 $394 -49.804127231722859 $390 $706 forward 7 unknown #
edge $-1 $393 49.804127231722859 $707 67.708365123447365 $391 $708 forward 7 unknown #
point $-1 -49.804127231722859 -45.908697458438503 -13.599717814259012 #
point $-1 -49.804127231722859 -45.908697458438503 13.599717814259012 #
plane-surface $-1 0 -45.908697458438503 0 0 1 0 0 0 1 forward_v I I I I #
coedge $-1 $709 $399 $404 $564 forward $245 $-1 #
coedge $-1 $399 $709 $561 $710 forward $245 $-1 #
edge $-1 $562 33.178430481073768 $569 40.762658774540327 $399 $711 forward 7 unknown #
coedge $-1 $408 $402 $559 $710 reversed $409 $-1 #
vertex $-1 $560 $712 #
straight-curve $-1 -29.419383978712041 -45.908697458438503 39.039854782089243 0 0 1 I I #
edge $-1 $569 9.6135061761033178 $567 29.998249429114129 $558 $713 forward 7 unknown #
coedge $-1 $566 $405 $408 $571 reversed $397 $-1 #
coedge $-1 $405 $565 $709 $714 reversed $397 $-1 #
vertex $-1 $714 $715 #
straight-curve $-1 -49.804127231722859 -45.87906726168103 2.3995651944448668 0 -0.55919289150049634 -0.82903758062907751 I I #
vertex $-1 $564 $716 #
straight-curve $-1 -29.419383978712041 -45.90869745843851 2.3556366198747014 0 -0.55919289150049634 -0.82903758062907751 I I #
edge $-1 $717 -13.599717814259012 $410 -2.3556366198747121 $408 $718 forward 7 unknown #
point $-1 -49.804127231722859 -45.908697458438503 2.3556366198747121 #
point $-1 -29.419383978712041 -45.908697458438503 2.3556366198747121 #
edge $-1 $719 1 $719 0 $413 $-1 forward 7 unknown #
vertex $-1 $414 $720 #
ellipse-curve $-1 -45.727178581120697 -37.944120939981133 5.1633158987886674 0 -0.82903758062907751 0.55919289150049634 1.5 0 0 1 I I #
point $-1 -44.227178581120697 -42.116583311705213 7.9776772170668542 #
edge $-1 $721 1 $721 0 $417 $-1 forward 7 unknown #
vertex $-1 $418 $722 #
ellipse-curve $-1 -39.611755605217446 -37.944120939981133 5.1633158987886674 0 -0.82903758062907751 0.55919289150049634 1.5 0 0 1 I I #
point $-1 -38.111755605217446 -42.116583311705213 7.9776772170668542 #
edge $-1 $723 1 $723 0 $421 $-1 forward 7 unknown #
vertex $-1 $422 $724 #
ellipse-curve $-1 -33.496332629314203 -37.944120939981133 5.1633158987886674 0 -0.82903758062907751 0.55919289150049634 1.5 0 0 1 I I #
point $-1 -31.996332629314203 -42.116583311705213 7.9776772170668542 #
loop $-1 $-1 $595 $425 #
plane-surface $-1 0 -45.908697458438503 0 0 1 0 0 0 1 forward_v I I I I #
coedge $-1 $589 $428 $436 $601 reversed $274 $-1 #
coedge $-1 $428 $588 $725 $726 forward $274 $-1 #
coedge $-1 $595 $727 $430 $591 forward $586 $-1 #
edge $-1 $593 25.440136967830231 $599 36.684218162214535 $590 $728 forward 7 unknown #
coedge $-1 $436 $431 $727 $729 forward $426 $-1 #
vertex $-1 $729 $730 #
straight-curve $-1 47.323621870436554 -79.087127939512271 13.599717814259016 0 -1 0 I I #
coedge $-1 $725 $590 $433 $596 forward $586 $-1 #
edge $-1 $599 18.565625121965574 $597 38.950368374976385 $595 $731 forward 7 unknown #
vertex $-1 $434 $732 #
straight-curve $-1 67.708365123447365 -39.276975645816705 12.187568839521273 0 0.55919289150049634 0.82903758062907751 I I #
vertex $-1 $596 $733 #
straight-curve $-1 47.323621870436554 -45.90869745843851 2.3556366198747014 0 0.55919289150049634 0.82903758062907751 I I #
edge $-1 $734 -45.908697458438503 $437 -38.324469164971944 $588 $735 forward 7 unknown #
point $-1 67.708365123447365 -38.324469164971944 13.599717814259012 #
point $-1 47.323621870436554 -38.324469164971944 13.599717814259012 #
edge $-1 $736 1 $736 0 $440 $-1 forward 7 unknown #
vertex $-1 $441 $737 #
ellipse-curve $-1 51.400570521038716 -37.944120939981133 5.1633158987886674 0 -0.82903758062907751 0.55919289150049634 1.5 0 0 1 I I #
point $-1 52.900570521038716 -42.116583311705213 7.9776772170668542 #
edge $-1 $738 1 $738 0 $444 $-1 forward 7 unknown #
vertex $-1 $445 $739 #
ellipse-curve $-1 57.51599349694196 -37.944120939981133 5.1633158987886674 0 -0.82903758062907751 0.55919289150049634 1.5 0 0 1 I I #
point $-1 59.01599349694196 -42.116583311705213 7.9776772170668542 #
edge $-1 $740 1 $740 0 $448 $-1 forward 7 unknown #
vertex $-1 $449 $741 #
ellipse-curve $-1 63.631416472845203 -37.944120939981133 5.1633158987886674 0 -0.82903758062907751 0.55919289150049634 1.5 0 0 1 I I #
point $-1 65.131416472845203 -42.116583311705213 7.9776772170668542 #
plane-surface $-1 0 0 13.599717814259012 0 0 1 1 0 0 forward_v I I I I #
coedge $-1 $627 $626 $619 $742 forward $453 $-1 #
coedge $-1 $619 $455 $457 $623 reversed $303 $-1 #
coedge $-1 $455 $618 $617 $742 reversed $303 $-1 #
coedge $-1 $463 $458 $455 $621 forward $464 $-1 #
edge $-1 $624 -15.090841497734608 $743 -7.5066132042680564 $620 $744 forward 7 unknown #
coedge $-1 $457 $456 $627 $745 reversed $191 $-1 #
edge $-1 $746 -91.817394916876992 $624 -78.254582497864291 $618 $747 forward 7 unknown #
vertex $-1 $459 $748 #
straight-curve $-1 -19.805877802608723 38.324469164971944 13.599717814259016 1 0 0 I I #
coedge $-1 $617 $460 $463 $631 reversed $453 $-1 #
coedge $-1 $460 $617 $622 $745 forward $453 $-1 #
vertex $-1 $461 $749 #
straight-curve $-1 -49.804127231722852 45.908697458438503 77.099890252865379 0 0 1 I I #
straight-curve $-1 -49.804127231722852 -5.4349370951729128 78.475707561426972 0 0.55919289150049634 -0.82903758062907751 I I #
edge $-1 $743 29.419383978712041 $465 49.804127231722852 $626 $750 forward 7 unknown #
point $-1 -49.804127231722852 45.908697458438503 13.599717814259012 #
point $-1 -49.804127231722852 38.324469164971951 13.599717814259009 #
edge $-1 $751 1 $751 0 $468 $-1 forward 7 unknown #
vertex $-1 $469 $752 #
ellipse-curve $-1 -45.727178581120697 37.944120939981126 5.1633158987886638 0 0.82903758062907751 0.55919289150049634 1.5 0 0 1 I I #
point $-1 -44.227178581120697 42.116583311705206 7.9776772170668506 #
edge $-1 $753 1 $753 0 $472 $-1 forward 7 unknown #
vertex $-1 $473 $754 #
ellipse-curve $-1 -39.611755605217446 37.944120939981126 5.1633158987886638 0 0.82903758062907751 0.55919289150049634 1.5 0 0 1 I I #
point $-1 -38.111755605217446 42.116583311705206 7.9776772170668506 #
edge $-1 $755 1 $755 0 $476 $-1 forward 7 unknown #
vertex $-1 $477 $756 #
ellipse-curve $-1 -33.496332629314203 37.944120939981126 5.1633158987886638 0 0.82903758062907751 0.55919289150049634 1.5 0 0 1 I I #
point $-1 -31.996332629314203 42.116583311705206 7.9776772170668506 #
plane-surface $-1 0 45.908697458438503 0 0 -1 0 0 0 -1 forward_v I I I I #
coedge $-1 $757 $483 $488 $653 forward $332 $-1 #
coedge $-1 $483 $757 $650 $758 forward $332 $-1 #
edge $-1 $651 7.5066132042680564 $658 15.090841497734608 $483 $759 forward 7 unknown #
coedge $-1 $492 $486 $648 $758 reversed $493 $-1 #
vertex $-1 $487 $760 #
straight-curve $-1 47.323621870436554 45.908697458438503 77.099890252865379 0 0 1 I I #
edge $-1 $658 18.565625121965574 $656 38.950368374976385 $647 $761 forward 7 unknown #
coedge $-1 $655 $489 $492 $660 reversed $481 $-1 #
coedge $-1 $489 $654 $757 $762 reversed $481 $-1 #
vertex $-1 $762 $763 #
straight-curve $-1 67.708365123447365 13.605158369010997 50.247604310297412 0 0.55919289150049634 -0.82903758062907751 I I #
vertex $-1 $653 $764 #
straight-curve $-1 47.323621870436554 -5.4349370951729128 78.475707561426972 0 0.55919289150049634 -0.82903758062907751 I I #
edge $-1 $765 -13.599717814259012 $494 -2.3556366198747209 $654 $766 forward 7 unknown #
point $-1 67.708365123447365 45.908697458438503 2.3556366198747209 #
point $-1 47.323621870436554 45.90869745843851 2.3556366198747156 #
edge $-1 $767 1 $767 0 $497 $-1 forward 7 unknown #
vertex $-1 $498 $768 #
ellipse-curve $-1 51.400570521038716 37.944120939981126 5.1633158987886638 0 0.82903758062907751 0.55919289150049634 1.5 0 0 1 I I #
point $-1 52.900570521038716 42.116583311705206 7.9776772170668506 #
edge $-1 $769 1 $769 0 $501 $-1 forward 7 unknown #
vertex $-1 $502 $770 #
ellipse-curve $-1 57.51599349694196 37.944120939981126 5.1633158987886638 0 0.82903758062907751 0.55919289150049634 1.5 0 0 1 I I #
point $-1 59.01599349694196 42.116583311705206 7.9776772170668506 #
edge $-1 $771 1 $771 0 $505 $-1 forward 7 unknown #
vertex $-1 $506 $772 #
ellipse-curve $-1 63.631416472845203 37.944120939981126 5.1633158987886638 0 0.82903758062907751 0.55919289150049634 1.5 0 0 1 I I #
point $-1 65.131416472845203 42.116583311705206 7.9776772170668506 #
plane-surface $-1 67.708365123447365 0 0 -1 0 0 0 0 1 forward_v I I I I #
coedge $-1 $514 $512 $516 $680 reversed $361 $-1 #
edge $-1 $527 -13.599717814259012 $682 13.599717814259012 $526 $773 forward 7 unknown #
vertex $-1 $680 $774 #
straight-curve $-1 -67.708365123447365 -45.908697458438503 0 0 0 -1 I I #
edge $-1 $678 -45.908697458438503 $682 45.908697458438503 $676 $775 forward 7 unknown #
straight-curve $-1 0 -45.908697458438503 -13.599717814259012 -1 0 0 I I #
vertex $-1 $519 $776 #
straight-curve $-1 0 45.908697458438503 -13.599717814259012 1 0 0 I I #
point $-1 67.708365123447365 45.908697458438503 -13.599717814259012 #
point $-1 67.708365123447365 -45.908697458438503 -13.599717814259012 #
straight-curve $-1 -67.708365123447365 0 13.599717814259012 0 -1 0 I I #
point $-1 -67.708365123447365 45.908697458438503 13.599717814259012 #
point $-1 -67.708365123447365 -45.908697458438503 13.599717814259012 #
straight-curve $-1 67.708365123447365 -45.908697458438503 0 0 0 -1 I I #
straight-curve $-1 67.708365123447365 45.908697458438503 0 0 0 -1 I I #
plane-surface $-1 0 -45.908697458438503 0 0 1 0 0 0 1 forward_v I I I I #
coedge $-1 $703 $539 $696 $777 reversed $380 $-1 #
coedge $-1 $539 $703 $695 $778 reversed $380 $-1 #
edge $-1 $699 -13.599717814259012 $697 13.599717814259012 $539 $779 forward 7 unknown #
coedge $-1 $541 $540 $693 $778 forward $237 $-1 #
coedge $-1 $543 $549 $692 $777 forward $537 $-1 #
vertex $-1 $544 $780 #
straight-curve $-1 -29.378123088792556 -38.544919468261007 -13.599717814259012 1 0 0 I I #
vertex $-1 $778 $781 #
straight-curve $-1 -29.378123088792556 -38.544919468261007 13.599717814259012 -1 0 0 I I #
point $-1 -49.804127231722859 -38.544919468261007 13.599717814259012 #
point $-1 -49.804127231722859 -38.544919468261007 -13.599717814259012 #
coedge $-1 $693 $692 $552 $704 reversed $380 $-1 #
edge $-1 $705 -13.599717814259012 $707 13.599717814259012 $703 $782 forward 7 unknown #
vertex $-1 $778 $783 #
straight-curve $-1 0 -45.908697458438503 13.599717814259012 1 0 0 I I #
vertex $-1 $777 $784 #
straight-curve $-1 0 -45.908697458438503 -13.599717814259012 -1 0 0 I I #
coedge $-1 $559 $558 $566 $714 forward $245 $-1 #
edge $-1 $717 -49.804127231722859 $562 -29.419383978712041 $561 $785 forward 7 unknown #
straight-curve $-1 -29.419383978712041 -79.087127939512271 13.599717814259016 0 1 0 I I #
point $-1 -29.419383978712041 -45.908697458438503 13.599717814259012 #
straight-curve $-1 -19.805877802608723 -38.324469164971944 13.599717814259012 -1 0 0 I I #
edge $-1 $567 -40.762658774540327 $717 -33.178430481073768 $709 $786 forward 7 unknown #
point $-1 -49.804127231722852 -38.324469164971944 13.599717814259012 #
point $-1 -29.419383978712041 -38.324469164971944 13.599717814259012 #
vertex $-1 $710 $787 #
straight-curve $-1 -49.804127231722859 -45.908697458438503 0 0 0 -1 I I #
vertex $-1 $574 $788 #
point $-1 -44.227178581120697 -37.944120939981133 5.1633158987886674 #
vertex $-1 $578 $789 #
point $-1 -38.111755605217446 -37.944120939981133 5.1633158987886674 #
vertex $-1 $582 $790 #
point $-1 -31.996332629314203 -37.944120939981133 5.1633158987886674 #
coedge $-1 $727 $595 $589 $726 reversed $586 $-1 #
edge $-1 $734 -13.599717814259012 $597 -2.3556366198747121 $589 $791 forward 7 unknown #
coedge $-1 $590 $725 $592 $729 reversed $586 $-1 #
straight-curve $-1 47.323621870436554 -45.908697458438503 39.039854782089243 0 0 -1 I I #
edge $-1 $593 47.323621870436554 $734 67.708365123447365 $727 $792 forward 7 unknown #
point $-1 47.323621870436554 -45.908697458438503 13.599717814259012 #
straight-curve $-1 28.75799674847098 -45.908697458438503 2.3556366198747156 1 0 0 I I #
point $-1 67.708365123447365 -45.908697458438503 2.3556366198747121 #
point $-1 47.323621870436554 -45.908697458438503 2.3556366198747121 #
vertex $-1 $601 $793 #
straight-curve $-1 67.708365123447365 0 13.599717814259012 0 1 0 I I #
vertex $-1 $604 $794 #
point $-1 52.900570521038716 -37.944120939981133 5.1633158987886674 #
vertex $-1 $608 $795 #
point $-1 59.01599349694196 -37.944120939981133 5.1633158987886674 #
vertex $-1 $612 $796 #
point $-1 65.131416472845203 -37.944120939981133 5.1633158987886674 #
edge $-1 $743 63.50017243860637 $746 74.744253632990663 $617 $797 forward 7 unknown #
vertex $-1 $631 $798 #
straight-curve $-1 -29.419383978712041 53.41531066270656 13.599717814259009 0 1 0 I I #
edge $-1 $746 9.6135061761033178 $628 29.998249429114129 $627 $799 forward 7 unknown #
vertex $-1 $745 $800 #
straight-curve $-1 -29.419383978712041 -5.4349370951729128 78.475707561426972 0 -0.55919289150049634 0.82903758062907751 I I #
point $-1 -29.419383978712041 38.324469164971951 13.599717814259009 #
point $-1 -49.804127231722852 45.90869745843851 2.3556366198747156 #
straight-curve $-1 0 45.908697458438503 13.599717814259012 -1 0 0 I I #
vertex $-1 $634 $801 #
point $-1 -44.227178581120697 37.944120939981126 5.1633158987886638 #
vertex $-1 $638 $802 #
point $-1 -38.111755605217446 37.944120939981126 5.1633158987886638 #
vertex $-1 $642 $803 #
point $-1 -31.996332629314203 37.944120939981126 5.1633158987886638 #
coedge $-1 $648 $647 $655 $762 forward $332 $-1 #
edge $-1 $765 -67.708365123447365 $651 -47.323621870436554 $650 $804 forward 7 unknown #
straight-curve $-1 47.323621870436554 53.41531066270656 13.599717814259009 0 -1 0 I I #
point $-1 47.323621870436554 45.908697458438503 13.599717814259012 #
straight-curve $-1 28.75799674847098 38.324469164971944 13.599717814259016 1 0 0 I I #
edge $-1 $656 38.324469164971951 $765 45.908697458438503 $655 $805 forward 7 unknown #
point $-1 67.708365123447365 38.324469164971951 13.599717814259009 #
point $-1 47.323621870436554 38.324469164971951 13.599717814259009 #
vertex $-1 $762 $806 #
straight-curve $-1 67.708365123447365 45.908697458438503 0 0 0 -1 I I #
vertex $-1 $663 $807 #
point $-1 52.900570521038716 37.944120939981126 5.1633158987886638 #
vertex $-1 $667 $808 #
point $-1 59.01599349694196 37.944120939981126 5.1633158987886638 #
vertex $-1 $671 $809 #
point $-1 65.131416472845203 37.944120939981126 5.1633158987886638 #
straight-curve $-1 -67.708365123447365 45.908697458438503 0 0 0 -1 I I #
point $-1 -67.708365123447365 -45.908697458438503 -13.599717814259012 #
straight-curve $-1 -67.708365123447365 0 -13.599717814259012 0 1 0 I I #
point $-1 -67.708365123447365 45.908697458438503 -13.599717814259012 #
edge $-1 $707 -45.908697458438503 $697 -38.544919468261007 $692 $810 forward 7 unknown #
edge $-1 $699 38.544919468261007 $705 45.908697458438503 $693 $811 forward 7 unknown #
straight-curve $-1 -67.708365123447365 -38.544919468261007 0 0 0 -1 I I #
point $-1 -67.708365123447365 -38.544919468261007 -13.599717814259012 #
point $-1 -67.708365123447365 -38.544919468261007 13.599717814259012 #
straight-curve $-1 -67.708365123447365 -45.908697458438503 0 0 0 -1 I I #
point $-1 -67.708365123447365 -45.908697458438503 13.599717814259012 #
point $-1 -67.708365123447365 -45.908697458438503 -13.599717814259012 #
straight-curve $-1 0 -45.908697458438503 13.599717814259012 1 0 0 I I #
straight-curve $-1 -49.804127231722852 -79.087127939512271 13.599717814259016 0 -1 0 I I #
point $-1 -49.804127231722859 -45.908697458438503 13.599717814259012 #
point $-1 -45.727178581120697 -36.70056456903751 4.3245265615379225 #
point $-1 -39.611755605217446 -36.70056456903751 4.3245265615379225 #
point $-1 -33.496332629314203 -36.70056456903751 4.3245265615379225 #
straight-curve $-1 67.708365123447365 -45.908697458438503 0 0 0 -1 I I #
straight-curve $-1 0 -45.908697458438503 13.599717814259012 1 0 0 I I #
point $-1 67.708365123447365 -45.908697458438503 13.599717814259012 #
point $-1 51.400570521038716 -36.70056456903751 4.3245265615379225 #
point $-1 57.51599349694196 -36.70056456903751 4.3245265615379225 #
point $-1 63.631416472845203 -36.70056456903751 4.3245265615379225 #
straight-curve $-1 -29.419383978712041 45.908697458438503 77.099890252865379 0 0 -1 I I #
point $-1 -29.419383978712041 45.908697458438503 13.599717814259012 #
straight-curve $-1 -19.805877802608723 45.908697458438503 2.3556366198747156 -1 0 0 I I #
point $-1 -29.419383978712041 45.90869745843851 2.3556366198747156 #
point $-1 -45.727178581120697 36.700564569037503 4.3245265615379189 #
point $-1 -39.611755605217446 36.700564569037503 4.3245265615379189 #
point $-1 -33.496332629314203 36.700564569037503 4.3245265615379189 #
straight-curve $-1 0 45.908697458438503 13.599717814259012 -1 0 0 I I #
straight-curve $-1 67.708365123447365 0 13.599717814259012 0 1 0 I I #
point $-1 67.708365123447365 45.908697458438503 13.599717814259012 #
point $-1 51.400570521038716 36.700564569037503 4.3245265615379189 #
point $-1 57.51599349694196 36.700564569037503 4.3245265615379189 #
point $-1 63.631416472845203 36.700564569037503 4.3245265615379189 #
straight-curve $-1 -67.708365123447365 0 -13.599717814259012 0 1 0 I I #
straight-curve $-1 -67.708365123447365 0 13.599717814259012 0 -1 0 I I #
End-of-ACIS-data 