500 0 17 0           
7 Unknown 11 ACIS 5.0 NT 24 Fri Mar 26 14:49:37 1999 
-1 9.9999999999999995e-007 1e-010 
body $-1 $17 $-1 $18 #
body $-1 $19 $-1 $20 #
body $-1 $21 $-1 $22 #
body $-1 $23 $-1 $24 #
body $-1 $25 $-1 $26 #
body $-1 $27 $-1 $28 #
body $-1 $29 $-1 $30 #
body $-1 $31 $-1 $32 #
body $-1 $33 $-1 $34 #
body $-1 $35 $-1 $36 #
body $-1 $37 $-1 $38 #
body $-1 $39 $-1 $40 #
body $-1 $41 $-1 $42 #
body $-1 $43 $-1 $44 #
body $-1 $45 $-1 $46 #
body $-1 $47 $-1 $48 #
body $-1 $49 $-1 $50 #
lump $-1 $-1 $51 $0 #
transform $-1 1 0 0 0 1 0 0 0 1 74.797204504532004 45.464063316014986 12.475249064209539 1 rotate no_reflect no_shear #
lump $-1 $-1 $52 $1 #
transform $-1 1 0 0 0 1 0 0 0 1 74.797204504532004 45.464063316014986 12.475249064209539 1 rotate no_reflect no_shear #
lump $-1 $-1 $53 $2 #
transform $-1 1 0 0 0 1 0 0 0 1 74.797204504532004 45.464063316014986 12.475249064209539 1 rotate no_reflect no_shear #
lump $-1 $-1 $54 $3 #
transform $-1 1 0 0 0 1 0 0 0 1 74.797204504532004 45.464063316014986 12.475249064209539 1 rotate no_reflect no_shear #
lump $-1 $-1 $55 $4 #
transform $-1 1 0 0 0 1 0 0 0 1 74.797204504532004 45.464063316014986 12.475249064209539 1 rotate no_reflect no_shear #
lump $-1 $-1 $56 $5 #
transform $-1 1 0 0 0 1 0 0 0 1 74.797204504532004 45.464063316014986 12.475249064209539 1 rotate no_reflect no_shear #
lump $-1 $-1 $57 $6 #
transform $-1 1 0 0 0 1 0 0 0 1 74.797204504532004 45.464063316014986 12.475249064209539 1 rotate no_reflect no_shear #
lump $-1 $-1 $58 $7 #
transform $-1 1 0 0 0 1 0 0 0 1 74.797204504532004 45.464063316014986 12.475249064209539 1 rotate no_reflect no_shear #
lump $-1 $-1 $59 $8 #
transform $-1 1 0 0 0 1 0 0 0 1 74.797204504532004 45.464063316014986 12.475249064209539 1 rotate no_reflect no_shear #
lump $-1 $-1 $60 $9 #
transform $-1 1 0 0 0 1 0 0 0 1 74.797204504532004 45.464063316014986 12.475249064209539 1 rotate no_reflect no_shear #
lump $-1 $-1 $61 $10 #
transform $-1 1 0 0 0 1 0 0 0 1 74.797204504532004 45.464063316014986 12.475249064209539 1 rotate no_reflect no_shear #
lump $-1 $-1 $62 $11 #
transform $-1 1 0 0 0 1 0 0 0 1 74.797204504532004 45.464063316014986 12.475249064209539 1 rotate no_reflect no_shear #
lump $-1 $-1 $63 $12 #
transform $-1 1 0 0 0 1 0 0 0 1 74.797204504532004 45.464063316014986 12.475249064209539 1 rotate no_reflect no_shear #
lump $-1 $-1 $64 $13 #
transform $-1 1 0 0 0 1 0 0 0 1 74.797204504532004 45.464063316014986 12.475249064209539 1 rotate no_reflect no_shear #
lump $-1 $-1 $65 $14 #
transform $-1 1 0 0 0 1 0 0 0 1 74.797204504532004 45.464063316014986 12.475249064209539 1 rotate no_reflect no_shear #
lump $-1 $-1 $66 $15 #
transform $-1 1 0 0 0 1 0 0 0 1 74.797204504532004 45.464063316014986 12.475249064209539 1 rotate no_reflect no_shear #
lump $-1 $-1 $67 $16 #
transform $-1 1 0 0 0 1 0 0 0 1 74.797204504532004 45.464063316014986 12.475249064209539 1 rotate no_reflect no_shear #
shell $-1 $-1 $-1 $68 $-1 $17 #
shell $-1 $-1 $-1 $69 $-1 $19 #
shell $-1 $-1 $-1 $70 $-1 $21 #
shell $-1 $-1 $-1 $71 $-1 $23 #
shell $-1 $-1 $-1 $72 $-1 $25 #
shell $-1 $-1 $-1 $73 $-1 $27 #
shell $-1 $-1 $-1 $74 $-1 $29 #
shell $-1 $-1 $-1 $75 $-1 $31 #
shell $-1 $-1 $-1 $76 $-1 $33 #
shell $-1 $-1 $-1 $77 $-1 $35 #
shell $-1 $-1 $-1 $78 $-1 $37 #
shell $-1 $-1 $-1 $79 $-1 $39 #
shell $-1 $-1 $-1 $80 $-1 $41 #
shell $-1 $-1 $-1 $81 $-1 $43 #
shell $-1 $-1 $-1 $82 $-1 $45 #
shell $-1 $-1 $-1 $83 $-1 $47 #
shell $-1 $-1 $-1 $84 $-1 $49 #
face $-1 $85 $86 $51 $-1 $87 forward single #
face $-1 $88 $89 $52 $-1 $90 forward single #
face $-1 $91 $92 $53 $-1 $93 forward single #
face $-1 $94 $95 $54 $-1 $96 reversed single #
face $-1 $97 $98 $55 $-1 $99 forward single #
face $-1 $100 $101 $56 $-1 $102 forward single #
face $-1 $103 $104 $57 $-1 $105 reversed single #
face $-1 $106 $107 $58 $-1 $108 forward single #
face $-1 $109 $110 $59 $-1 $111 forward single #
face $-1 $112 $113 $60 $-1 $114 reversed single #
face $-1 $115 $116 $61 $-1 $117 forward single #
face $-1 $118 $119 $62 $-1 $120 forward single #
face $-1 $121 $122 $63 $-1 $123 forward single #
face $-1 $124 $125 $64 $-1 $126 reversed single #
face $-1 $127 $128 $65 $-1 $129 forward single #
face $-1 $130 $131 $66 $-1 $132 forward single #
face $-1 $133 $134 $67 $-1 $135 forward single #
face $-1 $136 $137 $51 $-1 $138 reversed single #
loop $-1 $-1 $139 $68 #
plane-surface $-1 0 0 12.475249064209539 0 0 1 1 0 0 forward_v I I I I #
face $-1 $140 $141 $52 $-1 $142 forward single #
loop $-1 $-1 $143 $69 #
plane-surface $-1 0 -45.464063316014986 0 0 1 0 0 0 1 forward_v I I I I #
face $-1 $144 $145 $53 $-1 $146 reversed single #
loop $-1 $-1 $147 $70 #
plane-surface $-1 0 45.464063316014986 0 0 -1 0 0 0 -1 forward_v I I I I #
face $-1 $148 $149 $54 $-1 $150 reversed single #
loop $-1 $-1 $151 $71 #
plane-surface $-1 89.554778080836201 -21.177929367782632 218.4898143159138 0 -1 0 -0.75470958851134928 0 -0.65605901945558964 forward_v I I I I #
face $-1 $152 $153 $55 $-1 $154 forward single #
loop $-1 $155 $156 $72 #
cone-surface $-1 70.399281557665518 -30.702668026985407 8.0378559256725026 -0.75470958851134928 0 -0.65605901945558964 0.98408852918338452 0 -1.132064382767024 1 I I 0 1 1.5 forward I I I I #
face $-1 $157 $158 $56 $-1 $159 forward single #
loop $-1 $160 $161 $73 #
cone-surface $-1 70.399281557665518 -24.98782483146374 8.0378559256725026 -0.75470958851134928 0 -0.65605901945558964 0.98408852918338452 0 -1.132064382767024 1 I I 0 1 1.5 forward I I I I #
face $-1 $162 $163 $57 $-1 $164 reversed single #
loop $-1 $-1 $165 $74 #
plane-surface $-1 89.554778080836201 13.334634122883891 218.4898143159138 0 -1 0 -0.75470958851134928 0 -0.65605901945558964 forward_v I I I I #
face $-1 $166 $167 $58 $-1 $168 forward single #
loop $-1 $169 $170 $75 #
cone-surface $-1 70.399281557665518 3.8098954636811158 8.0378559256725026 -0.75470958851134928 0 -0.65605901945558964 0.98408852918338452 0 -1.132064382767024 1 I I 0 1 1.5 forward I I I I #
face $-1 $171 $172 $59 $-1 $173 forward single #
loop $-1 $174 $175 $76 #
cone-surface $-1 70.399281557665518 9.5247386592027823 8.0378559256725026 -0.75470958851134928 0 -0.65605901945558964 0.98408852918338452 0 -1.132064382767024 1 I I 0 1 1.5 forward I I I I #
face $-1 $176 $177 $60 $-1 $178 reversed single #
loop $-1 $-1 $179 $77 #
plane-surface $-1 -156.2721601383567 -9.9330922120251657 128.08522770387384 0 1 0 -0.54463904215088732 0 0.83867056331134215 forward_v I I I I #
face $-1 $180 $181 $61 $-1 $182 forward single #
loop $-1 $183 $184 $78 #
cone-surface $-1 -66.686486132025848 -7.946473769620134 6.7392271131569981 0.54463904215088732 0 -0.83867056331134215 0.41933528165567108 0 0.27231952107544366 1 I I 0 1 0.5 forward I I I I #
face $-1 $185 $186 $62 $-1 $187 forward single #
loop $-1 $188 $189 $79 #
cone-surface $-1 -66.686486132025848 -4.9665461060125864 6.7392271131569981 0.54463904215088732 0 -0.83867056331134215 0.41933528165567108 0 0.27231952107544366 1 I I 0 1 0.5 forward I I I I #
face $-1 $190 $191 $63 $-1 $192 forward single #
loop $-1 $193 $194 $80 #
cone-surface $-1 -66.686486132025848 -1.9866184424050317 6.7392271131569981 0.54463904215088732 0 -0.83867056331134215 0.41933528165567108 0 0.27231952107544366 1 I I 0 1 0.5 forward I I I I #
face $-1 $195 $196 $64 $-1 $197 reversed single #
loop $-1 $-1 $198 $81 #
plane-surface $-1 -74.797204504532004 -4.9665461060125793 2.6248004320148084 -0.54463904215088732 0 0.83867056331134215 0.83867056331134215 0 0.54463904215088732 forward_v I I I I #
face $-1 $199 $200 $65 $-1 $201 forward single #
loop $-1 $202 $203 $82 #
cone-surface $-1 -66.686486132025848 1.9866184424050388 6.7392271131569981 0.54463904215088732 0 -0.83867056331134215 0.41933528165567108 0 0.27231952107544366 1 I I 0 1 0.5 forward I I I I #
face $-1 $204 $205 $66 $-1 $206 forward single #
loop $-1 $207 $208 $83 #
cone-surface $-1 -66.686486132025848 4.9665461060125864 6.7392271131569981 0.54463904215088732 0 -0.83867056331134215 0.41933528165567108 0 0.27231952107544366 1 I I 0 1 0.5 forward I I I I #
face $-1 $209 $210 $67 $-1 $211 forward single #
loop $-1 $212 $213 $84 #
cone-surface $-1 -66.686486132025848 7.9464737696201411 6.7392271131569981 0.54463904215088732 0 -0.83867056331134215 0.41933528165567108 0 0.27231952107544366 1 I I 0 1 0.5 forward I I I I #
face $-1 $214 $215 $51 $-1 $216 reversed single #
loop $-1 $-1 $217 $85 #
plane-surface $-1 0 0 -12.475249064209539 0 0 1 1 0 0 forward_v I I I I #
coedge $-1 $218 $219 $220 $221 forward $86 $-1 #
face $-1 $222 $223 $52 $-1 $224 reversed single #
loop $-1 $-1 $225 $88 #
plane-surface $-1 0 0 12.475249064209539 0 0 1 1 0 0 forward_v I I I I #
coedge $-1 $226 $227 $228 $229 forward $89 $-1 #
face $-1 $230 $231 $53 $-1 $232 reversed single #
loop $-1 $-1 $233 $91 #
plane-surface $-1 74.797204504532004 0 0 -1 0 0 0 0 1 forward_v I I I I #
coedge $-1 $234 $235 $236 $237 forward $92 $-1 #
face $-1 $238 $239 $54 $-1 $240 reversed single #
loop $-1 $-1 $241 $94 #
plane-surface $-1 -23.345556785992983 -27.845246429224574 120.34705302538885 0.75470958851134928 0 0.65605901945558964 0.65605901945558964 0 -0.75470958851134928 forward_v I I I I #
coedge $-1 $242 $243 $244 $245 reversed $95 $-1 #
face $-1 $-1 $246 $55 $-1 $247 forward single #
loop $-1 $248 $249 $97 #
cone-surface $-1 67.62094397713733 -30.702668026985407 5.6226839753686981 -0.75470958851134928 0 -0.65605901945558964 0.49204426459169226 0 -0.56603219138351202 1 I I -0.70710678118654757 0.70710678118654757 0.75 forward I I I I #
loop $-1 $-1 $250 $72 #
coedge $-1 $156 $156 $251 $252 reversed $98 $-1 #
face $-1 $-1 $253 $56 $-1 $254 forward single #
loop $-1 $255 $256 $100 #
cone-surface $-1 67.62094397713733 -24.98782483146374 5.6226839753686981 -0.75470958851134928 0 -0.65605901945558964 0.49204426459169226 0 -0.56603219138351202 1 I I -0.70710678118654757 0.70710678118654757 0.75 forward I I I I #
loop $-1 $-1 $257 $73 #
coedge $-1 $161 $161 $258 $259 reversed $101 $-1 #
face $-1 $260 $261 $57 $-1 $262 reversed single #
loop $-1 $-1 $263 $103 #
plane-surface $-1 -23.345556785992983 6.667317061441949 120.34705302538885 0.75470958851134928 0 0.65605901945558964 0.65605901945558964 0 -0.75470958851134928 forward_v I I I I #
coedge $-1 $264 $265 $266 $267 reversed $104 $-1 #
face $-1 $-1 $268 $58 $-1 $269 forward single #
loop $-1 $270 $271 $106 #
cone-surface $-1 67.62094397713733 3.8098954636811158 5.6226839753686981 -0.75470958851134928 0 -0.65605901945558964 0.49204426459169226 0 -0.56603219138351202 1 I I -0.70710678118654757 0.70710678118654757 0.75 forward I I I I #
loop $-1 $-1 $272 $75 #
coedge $-1 $170 $170 $273 $274 reversed $107 $-1 #
face $-1 $-1 $275 $59 $-1 $276 forward single #
loop $-1 $277 $278 $109 #
cone-surface $-1 67.62094397713733 9.5247386592027823 5.6226839753686981 -0.75470958851134928 0 -0.65605901945558964 0.49204426459169226 0 -0.56603219138351202 1 I I -0.70710678118654757 0.70710678118654757 0.75 forward I I I I #
loop $-1 $-1 $279 $76 #
coedge $-1 $175 $175 $280 $281 reversed $110 $-1 #
face $-1 $282 $283 $60 $-1 $284 reversed single #
loop $-1 $-1 $285 $112 #
plane-surface $-1 -74.797204504532004 -4.9665461060125793 2.6248004320148084 -0.54463904215088732 0 0.83867056331134215 0.83867056331134215 0 0.54463904215088732 forward_v I I I I #
coedge $-1 $286 $287 $288 $289 reversed $113 $-1 #
face $-1 $-1 $290 $61 $-1 $291 forward single #
loop $-1 $292 $293 $115 #
cone-surface $-1 -66.023788220993552 -7.946473769620134 5.7187618373739717 0.54463904215088732 0 -0.83867056331134215 0.20966764082783554 0 0.13615976053772183 1 I I -0.70710678118654746 0.70710678118654746 0.25 forward I I I I #
loop $-1 $-1 $294 $78 #
coedge $-1 $184 $184 $295 $296 reversed $116 $-1 #
face $-1 $-1 $297 $62 $-1 $298 forward single #
loop $-1 $299 $300 $118 #
cone-surface $-1 -66.023788220993552 -4.9665461060125864 5.7187618373739717 0.54463904215088732 0 -0.83867056331134215 0.20966764082783554 0 0.13615976053772183 1 I I -0.70710678118654746 0.70710678118654746 0.25 forward I I I I #
loop $-1 $-1 $301 $79 #
coedge $-1 $189 $189 $302 $303 reversed $119 $-1 #
face $-1 $-1 $304 $63 $-1 $305 forward single #
loop $-1 $306 $307 $121 #
cone-surface $-1 -66.023788220993552 -1.9866184424050317 5.7187618373739717 0.54463904215088732 0 -0.83867056331134215 0.20966764082783554 0 0.13615976053772183 1 I I -0.70710678118654746 0.70710678118654746 0.25 forward I I I I #
loop $-1 $-1 $308 $80 #
coedge $-1 $194 $194 $309 $310 reversed $122 $-1 #
face $-1 $311 $312 $64 $-1 $313 forward single #
loop $-1 $-1 $314 $124 #
plane-surface $-1 -156.2721601383567 9.9330922120251799 128.08522770387384 0 -1 0 0.54463904215088732 0 -0.83867056331134215 forward_v I I I I #
coedge $-1 $315 $316 $317 $318 reversed $125 $-1 #
face $-1 $-1 $319 $65 $-1 $320 forward single #
loop $-1 $321 $322 $127 #
cone-surface $-1 -66.023788220993552 1.9866184424050388 5.7187618373739717 0.54463904215088732 0 -0.83867056331134215 0.20966764082783554 0 0.13615976053772183 1 I I -0.70710678118654746 0.70710678118654746 0.25 forward I I I I #
loop $-1 $-1 $323 $82 #
coedge $-1 $203 $203 $324 $325 reversed $128 $-1 #
face $-1 $-1 $326 $66 $-1 $327 forward single #
loop $-1 $328 $329 $130 #
cone-surface $-1 -66.023788220993552 4.9665461060125864 5.7187618373739717 0.54463904215088732 0 -0.83867056331134215 0.20966764082783554 0 0.13615976053772183 1 I I -0.70710678118654746 0.70710678118654746 0.25 forward I I I I #
loop $-1 $-1 $330 $83 #
coedge $-1 $208 $208 $331 $332 reversed $131 $-1 #
face $-1 $-1 $333 $67 $-1 $334 forward single #
loop $-1 $335 $336 $133 #
cone-surface $-1 -66.023788220993552 7.9464737696201411 5.7187618373739717 0.54463904215088732 0 -0.83867056331134215 0.20966764082783554 0 0.13615976053772183 1 I I -0.70710678118654746 0.70710678118654746 0.25 forward I I I I #
loop $-1 $-1 $337 $84 #
coedge $-1 $213 $213 $338 $339 reversed $134 $-1 #
face $-1 $340 $341 $51 $-1 $342 reversed single #
loop $-1 $-1 $343 $136 #
plane-surface $-1 0 -45.464063316014986 0 0 1 0 0 0 1 forward_v I I I I #
coedge $-1 $344 $345 $346 $347 forward $137 $-1 #
coedge $-1 $348 $139 $349 $350 forward $86 $-1 #
coedge $-1 $139 $348 $351 $352 forward $86 $-1 #
coedge $-1 $353 $354 $139 $221 reversed $355 $-1 #
edge $-1 $356 -45.464063316014986 $357 45.464063316014986 $220 $358 forward 7 unknown #
face $-1 $359 $360 $52 $-1 $361 reversed single #
loop $-1 $-1 $362 $140 #
plane-surface $-1 -74.797204504532004 0 0 1 0 0 0 0 -1 forward_v I I I I #
coedge $-1 $363 $364 $365 $366 forward $141 $-1 #
coedge $-1 $365 $143 $362 $367 reversed $89 $-1 #
coedge $-1 $143 $365 $368 $369 reversed $89 $-1 #
coedge $-1 $370 $371 $143 $229 reversed $360 $-1 #
edge $-1 $372 -74.797204504532004 $373 74.797204504532004 $228 $374 forward 7 unknown #
face $-1 $375 $376 $53 $-1 $377 reversed single #
loop $-1 $-1 $378 $144 #
plane-surface $-1 0 50.939813228689218 5.5601226030370832 0 0 1 1 0 0 forward_v I I I I #
coedge $-1 $379 $380 $234 $381 forward $145 $-1 #
coedge $-1 $382 $147 $233 $381 reversed $92 $-1 #
coedge $-1 $147 $382 $383 $384 reversed $92 $-1 #
coedge $-1 $385 $378 $147 $237 reversed $231 $-1 #
edge $-1 $386 -74.797204504532004 $387 74.797204504532004 $236 $388 forward 7 unknown #
face $-1 $389 $390 $54 $-1 $391 forward single #
loop $-1 $-1 $392 $148 #
plane-surface $-1 89.554778080836201 -34.512563490666516 218.4898143159138 0 1 0 0.75470958851134928 0 0.65605901945558964 forward_v I I I I #
coedge $-1 $393 $394 $395 $396 reversed $149 $-1 #
coedge $-1 $243 $151 $397 $398 reversed $95 $-1 #
coedge $-1 $151 $242 $393 $399 reversed $95 $-1 #
coedge $-1 $395 $400 $151 $245 forward $390 $-1 #
edge $-1 $401 -30.019815464113904 $402 -25.648580348670293 $244 $403 forward 7 unknown #
loop $-1 $-1 $251 $152 #
plane-surface $-1 -23.345556785992983 -27.845246429224574 120.34705302538885 0.75470958851134928 0 0.65605901945558964 0.65605901945558964 0 -0.75470958851134928 forward_v I I I I #
loop $-1 $-1 $404 $97 #
coedge $-1 $249 $249 $250 $405 reversed $153 $-1 #
coedge $-1 $250 $250 $249 $405 forward $155 $-1 #
coedge $-1 $251 $251 $156 $252 forward $246 $-1 #
edge $-1 $406 0 $406 6.2831853071796004 $251 $407 forward 7 unknown #
loop $-1 $-1 $258 $157 #
plane-surface $-1 -23.345556785992983 -27.845246429224574 120.34705302538885 0.75470958851134928 0 0.65605901945558964 0.65605901945558964 0 -0.75470958851134928 forward_v I I I I #
loop $-1 $-1 $408 $100 #
coedge $-1 $256 $256 $257 $409 reversed $158 $-1 #
coedge $-1 $257 $257 $256 $409 forward $160 $-1 #
coedge $-1 $258 $258 $161 $259 forward $253 $-1 #
edge $-1 $410 0 $410 6.2831853071796004 $258 $411 forward 7 unknown #
face $-1 $412 $413 $57 $-1 $414 reversed single #
loop $-1 $-1 $415 $162 #
plane-surface $-1 89.554778080836201 6.2172489379008766e-015 218.4898143159138 0 1 0 0.75470958851134928 0 0.65605901945558964 forward_v I I I I #
coedge $-1 $416 $417 $418 $419 reversed $163 $-1 #
coedge $-1 $265 $165 $420 $421 reversed $104 $-1 #
coedge $-1 $165 $264 $416 $422 reversed $104 $-1 #
coedge $-1 $418 $423 $165 $267 forward $424 $-1 #
edge $-1 $425 -30.019815464113904 $426 -25.648580348670293 $266 $427 forward 7 unknown #
loop $-1 $-1 $273 $166 #
plane-surface $-1 -23.345556785992983 6.667317061441949 120.34705302538885 0.75470958851134928 0 0.65605901945558964 0.65605901945558964 0 -0.75470958851134928 forward_v I I I I #
loop $-1 $-1 $428 $106 #
coedge $-1 $271 $271 $272 $429 reversed $167 $-1 #
coedge $-1 $272 $272 $271 $429 forward $169 $-1 #
coedge $-1 $273 $273 $170 $274 forward $268 $-1 #
edge $-1 $430 0 $430 6.2831853071796004 $273 $431 forward 7 unknown #
loop $-1 $-1 $280 $171 #
plane-surface $-1 -23.345556785992983 6.667317061441949 120.34705302538885 0.75470958851134928 0 0.65605901945558964 0.65605901945558964 0 -0.75470958851134928 forward_v I I I I #
loop $-1 $-1 $432 $109 #
coedge $-1 $278 $278 $279 $433 reversed $172 $-1 #
coedge $-1 $279 $279 $278 $433 forward $174 $-1 #
coedge $-1 $280 $280 $175 $281 forward $275 $-1 #
edge $-1 $434 0 $434 6.2831853071796004 $280 $435 forward 7 unknown #
face $-1 $436 $437 $60 $-1 $438 reversed single #
loop $-1 $-1 $439 $176 #
plane-surface $-1 -156.2721601383567 7.1054273576010019e-015 128.08522770387384 0 -1 0 0.54463904215088732 0 -0.83867056331134215 forward_v I I I I #
coedge $-1 $440 $441 $442 $443 reversed $177 $-1 #
coedge $-1 $287 $179 $444 $445 reversed $113 $-1 #
coedge $-1 $179 $286 $440 $446 reversed $113 $-1 #
coedge $-1 $442 $447 $179 $289 forward $448 $-1 #
edge $-1 $449 3.3388755646463437 $450 18.507236008669523 $288 $451 forward 7 unknown #
loop $-1 $-1 $295 $180 #
plane-surface $-1 -74.797204504532004 -4.9665461060125793 2.6248004320148084 -0.54463904215088732 0 0.83867056331134215 0.83867056331134215 0 0.54463904215088732 forward_v I I I I #
loop $-1 $-1 $452 $115 #
coedge $-1 $293 $293 $294 $453 reversed $181 $-1 #
coedge $-1 $294 $294 $293 $453 forward $183 $-1 #
coedge $-1 $295 $295 $184 $296 forward $290 $-1 #
edge $-1 $454 0 $454 6.2831853071796004 $295 $455 forward 7 unknown #
loop $-1 $-1 $302 $185 #
plane-surface $-1 -74.797204504532004 -4.9665461060125793 2.6248004320148084 -0.54463904215088732 0 0.83867056331134215 0.83867056331134215 0 0.54463904215088732 forward_v I I I I #
loop $-1 $-1 $456 $118 #
coedge $-1 $300 $300 $301 $457 reversed $186 $-1 #
coedge $-1 $301 $301 $300 $457 forward $188 $-1 #
coedge $-1 $302 $302 $189 $303 forward $297 $-1 #
edge $-1 $458 0 $458 6.2831853071796004 $302 $459 forward 7 unknown #
loop $-1 $-1 $309 $190 #
plane-surface $-1 -74.797204504532004 -4.9665461060125793 2.6248004320148084 -0.54463904215088732 0 0.83867056331134215 0.83867056331134215 0 0.54463904215088732 forward_v I I I I #
loop $-1 $-1 $460 $121 #
coedge $-1 $307 $307 $308 $461 reversed $191 $-1 #
coedge $-1 $308 $308 $307 $461 forward $193 $-1 #
coedge $-1 $309 $309 $194 $310 forward $304 $-1 #
edge $-1 $462 0 $462 6.2831853071796004 $309 $463 forward 7 unknown #
face $-1 $464 $465 $64 $-1 $466 forward single #
loop $-1 $-1 $467 $195 #
plane-surface $-1 0 0 12.475249064209539 0 0 1 1 0 0 forward_v I I I I #
coedge $-1 $468 $469 $470 $471 reversed $196 $-1 #
coedge $-1 $472 $198 $473 $474 reversed $125 $-1 #
coedge $-1 $198 $472 $467 $475 reversed $125 $-1 #
coedge $-1 $476 $477 $198 $318 forward $465 $-1 #
edge $-1 $478 0 $479 18.086196305893456 $317 $480 forward 7 unknown #
loop $-1 $-1 $324 $199 #
plane-surface $-1 -74.797204504532004 -4.9665461060125793 2.6248004320148084 -0.54463904215088732 0 0.83867056331134215 0.83867056331134215 0 0.54463904215088732 forward_v I I I I #
loop $-1 $-1 $481 $127 #
coedge $-1 $322 $322 $323 $482 reversed $200 $-1 #
coedge $-1 $323 $323 $322 $482 forward $202 $-1 #
coedge $-1 $324 $324 $203 $325 forward $319 $-1 #
edge $-1 $483 0 $483 6.2831853071796004 $324 $484 forward 7 unknown #
loop $-1 $-1 $331 $204 #
plane-surface $-1 -74.797204504532004 -4.9665461060125793 2.6248004320148084 -0.54463904215088732 0 0.83867056331134215 0.83867056331134215 0 0.54463904215088732 forward_v I I I I #
loop $-1 $-1 $485 $130 #
coedge $-1 $329 $329 $330 $486 reversed $205 $-1 #
coedge $-1 $330 $330 $329 $486 forward $207 $-1 #
coedge $-1 $331 $331 $208 $332 forward $326 $-1 #
edge $-1 $487 0 $487 6.2831853071796004 $331 $488 forward 7 unknown #
loop $-1 $-1 $338 $209 #
plane-surface $-1 -74.797204504532004 -4.9665461060125793 2.6248004320148084 -0.54463904215088732 0 0.83867056331134215 0.83867056331134215 0 0.54463904215088732 forward_v I I I I #
loop $-1 $-1 $489 $133 #
coedge $-1 $336 $336 $337 $490 reversed $210 $-1 #
coedge $-1 $337 $337 $336 $490 forward $212 $-1 #
coedge $-1 $338 $338 $213 $339 forward $333 $-1 #
edge $-1 $491 0 $491 6.2831853071796004 $338 $492 forward 7 unknown #
face $-1 $493 $494 $51 $-1 $495 reversed single #
loop $-1 $-1 $496 $214 #
plane-surface $-1 -74.797204504532004 0 0 1 0 0 0 0 -1 forward_v I I I I #
coedge $-1 $497 $351 $498 $499 forward $215 $-1 #
coedge $-1 $500 $217 $497 $501 forward $137 $-1 #
coedge $-1 $217 $500 $502 $503 forward $137 $-1 #
coedge $-1 $354 $353 $217 $347 reversed $355 $-1 #
edge $-1 $504 -45.464063316014986 $505 45.464063316014986 $346 $506 forward 7 unknown #
coedge $-1 $219 $218 $507 $508 forward $86 $-1 #
coedge $-1 $509 $510 $218 $350 reversed $494 $-1 #
edge $-1 $357 -74.797204504532004 $511 74.797204504532004 $349 $512 forward 7 unknown #
coedge $-1 $343 $513 $219 $352 reversed $215 $-1 #
edge $-1 $514 -74.797204504532004 $356 74.797204504532004 $351 $515 forward 7 unknown #
coedge $-1 $346 $220 $513 $516 forward $355 $-1 #
coedge $-1 $220 $346 $509 $517 reversed $355 $-1 #
loop $-1 $-1 $353 $493 #
vertex $-1 $221 $518 #
vertex $-1 $221 $519 #
straight-curve $-1 74.797204504532004 0 12.475249064209539 0 1 0 I I #
face $-1 $520 $521 $52 $-1 $522 reversed single #
loop $-1 $-1 $370 $222 #
plane-surface $-1 0 -50.939813228689218 5.5601226030370832 0 0 1 1 0 0 forward_v I I I I #
coedge $-1 $523 $524 $226 $367 forward $223 $-1 #
coedge $-1 $525 $225 $524 $526 forward $141 $-1 #
coedge $-1 $225 $525 $527 $528 forward $141 $-1 #
coedge $-1 $227 $226 $225 $366 reversed $89 $-1 #
edge $-1 $529 -74.797204504532004 $530 74.797204504532004 $225 $531 forward 7 unknown #
edge $-1 $530 -12.475249064209539 $373 -5.5601226030370832 $362 $532 forward 7 unknown #
coedge $-1 $527 $533 $227 $369 forward $534 $-1 #
edge $-1 $372 5.5601226030370832 $529 12.475249064209539 $368 $535 forward 7 unknown #
coedge $-1 $536 $228 $533 $537 forward $360 $-1 #
coedge $-1 $228 $536 $523 $538 forward $360 $-1 #
vertex $-1 $369 $539 #
vertex $-1 $367 $540 #
straight-curve $-1 0 -45.464063316014986 5.5601226030370832 -1 0 0 I I #
face $-1 $541 $542 $53 $-1 $543 forward single #
loop $-1 $-1 $544 $230 #
plane-surface $-1 0 56.41556314136345 9.017685833623311 0 -1 0 0 0 -1 forward_v I I I I #
coedge $-1 $236 $545 $379 $546 forward $231 $-1 #
coedge $-1 $547 $233 $378 $546 reversed $145 $-1 #
coedge $-1 $233 $547 $548 $549 reversed $145 $-1 #
edge $-1 $550 -12.475249064209539 $387 -5.5601226030370832 $233 $551 forward 7 unknown #
coedge $-1 $235 $234 $552 $553 reversed $92 $-1 #
coedge $-1 $554 $555 $235 $384 forward $556 $-1 #
edge $-1 $386 5.5601226030370832 $557 12.475249064209539 $383 $558 forward 7 unknown #
coedge $-1 $545 $236 $555 $559 forward $231 $-1 #
vertex $-1 $384 $560 #
vertex $-1 $381 $561 #
straight-curve $-1 0 45.464063316014986 5.5601226030370832 1 0 0 I I #
face $-1 $-1 $562 $54 $-1 $563 reversed single #
loop $-1 $-1 $244 $238 #
plane-surface $-1 0 0 12.475249064209539 0 0 1 1 0 0 forward_v I I I I #
coedge $-1 $564 $565 $566 $567 reversed $239 $-1 #
coedge $-1 $568 $241 $243 $399 forward $149 $-1 #
coedge $-1 $241 $568 $564 $569 forward $149 $-1 #
coedge $-1 $566 $244 $241 $396 forward $390 $-1 #
edge $-1 $402 7.2553061531703449 $570 20.589940276054229 $395 $571 forward 7 unknown #
coedge $-1 $572 $573 $242 $398 forward $562 $-1 #
edge $-1 $574 -101.79818899939727 $401 -96.769658093747367 $397 $575 forward 7 unknown #
edge $-1 $402 142.93154029479666 $574 149.59440900906409 $243 $576 forward 7 unknown #
coedge $-1 $244 $566 $572 $577 forward $390 $-1 #
vertex $-1 $398 $578 #
vertex $-1 $245 $579 #
straight-curve $-1 44.7773890404181 -21.177929367782632 12.475249064209535 -1 0 0 I I #
coedge $-1 $404 $404 $-1 $580 reversed $248 $-1 #
edge $-1 $581 0 $581 6.2831853071796004 $249 $582 forward 7 unknown #
vertex $-1 $252 $583 #
ellipse-curve $-1 72.611586946810178 -30.702668026985407 9.9609836113846093 0.75470958851134928 0 0.65605901945558964 0.98408852918338452 0 -1.132064382767024 1 I I #
coedge $-1 $408 $408 $-1 $584 reversed $255 $-1 #
edge $-1 $585 0 $585 6.2831853071796004 $256 $586 forward 7 unknown #
vertex $-1 $259 $587 #
ellipse-curve $-1 72.611586946810178 -24.98782483146374 9.9609836113846093 0.75470958851134928 0 0.65605901945558964 0.98408852918338452 0 -1.132064382767024 1 I I #
face $-1 $-1 $424 $57 $-1 $588 forward single #
loop $-1 $-1 $589 $260 #
plane-surface $-1 74.797204504532004 0 0 -1 0 0 0 0 1 forward_v I I I I #
coedge $-1 $590 $591 $592 $593 reversed $261 $-1 #
coedge $-1 $594 $263 $265 $422 forward $163 $-1 #
coedge $-1 $263 $594 $590 $595 forward $163 $-1 #
coedge $-1 $592 $266 $263 $419 forward $424 $-1 #
edge $-1 $426 -10.000975592162916 $596 3.3336585307209683 $418 $597 forward 7 unknown #
coedge $-1 $598 $599 $264 $421 forward $413 $-1 #
edge $-1 $600 -101.79818899939727 $425 -96.769658093747367 $420 $601 forward 7 unknown #
edge $-1 $426 142.93154029479666 $600 149.59440900906409 $265 $602 forward 7 unknown #
coedge $-1 $266 $592 $598 $603 forward $424 $-1 #
loop $-1 $-1 $592 $412 #
vertex $-1 $421 $604 #
vertex $-1 $267 $605 #
straight-curve $-1 44.7773890404181 13.334634122883891 12.475249064209535 -1 0 0 I I #
coedge $-1 $428 $428 $-1 $606 reversed $270 $-1 #
edge $-1 $607 0 $607 6.2831853071796004 $271 $608 forward 7 unknown #
vertex $-1 $274 $609 #
ellipse-curve $-1 72.611586946810178 3.8098954636811158 9.9609836113846093 0.75470958851134928 0 0.65605901945558964 0.98408852918338452 0 -1.132064382767024 1 I I #
coedge $-1 $432 $432 $-1 $610 reversed $277 $-1 #
edge $-1 $611 0 $611 6.2831853071796004 $278 $612 forward 7 unknown #
vertex $-1 $281 $613 #
ellipse-curve $-1 72.611586946810178 9.5247386592027823 9.9609836113846093 0.75470958851134928 0 0.65605901945558964 0.98408852918338452 0 -1.132064382767024 1 I I #
face $-1 $-1 $448 $60 $-1 $614 forward single #
loop $-1 $-1 $615 $282 #
plane-surface $-1 -74.797204504532004 0 0 1 0 0 0 0 -1 forward_v I I I I #
coedge $-1 $616 $617 $618 $619 reversed $283 $-1 #
coedge $-1 $620 $285 $287 $446 forward $177 $-1 #
coedge $-1 $285 $620 $616 $621 forward $177 $-1 #
coedge $-1 $618 $288 $285 $443 forward $448 $-1 #
edge $-1 $450 -7.449819159018876 $622 2.4832730530062967 $442 $623 forward 7 unknown #
coedge $-1 $624 $625 $286 $445 forward $437 $-1 #
edge $-1 $626 -61.417813419922112 $449 -51.567364787727385 $444 $627 forward 7 unknown #
edge $-1 $450 -18.086196305893456 $626 0 $287 $628 forward 7 unknown #
coedge $-1 $288 $618 $624 $629 forward $448 $-1 #
loop $-1 $-1 $618 $436 #
vertex $-1 $445 $630 #
vertex $-1 $289 $631 #
straight-curve $-1 -78.136080069178348 -9.9330922120251657 12.475249064209535 1 0 0 I I #
coedge $-1 $452 $452 $-1 $632 reversed $292 $-1 #
edge $-1 $633 0 $633 6.2831853071796004 $293 $634 forward 7 unknown #
vertex $-1 $296 $635 #
ellipse-curve $-1 -67.213024282520422 -7.946473769620134 7.5500247481121718 -0.54463904215088732 0 0.83867056331134215 0.41933528165567108 0 0.27231952107544366 1 I I #
coedge $-1 $456 $456 $-1 $636 reversed $299 $-1 #
edge $-1 $637 0 $637 6.2831853071796004 $300 $638 forward 7 unknown #
vertex $-1 $303 $639 #
ellipse-curve $-1 -67.213024282520422 -4.9665461060125864 7.5500247481121718 -0.54463904215088732 0 0.83867056331134215 0.41933528165567108 0 0.27231952107544366 1 I I #
coedge $-1 $460 $460 $-1 $640 reversed $306 $-1 #
edge $-1 $641 0 $641 6.2831853071796004 $307 $642 forward 7 unknown #
vertex $-1 $310 $643 #
ellipse-curve $-1 -67.213024282520422 -1.9866184424050317 7.5500247481121718 -0.54463904215088732 0 0.83867056331134215 0.41933528165567108 0 0.27231952107544366 1 I I #
face $-1 $-1 $644 $64 $-1 $645 reversed single #
loop $-1 $-1 $476 $311 #
plane-surface $-1 -156.2721601383567 7.1054273576010019e-015 128.08522770387384 0 -1 0 0.54463904215088732 0 -0.83867056331134215 forward_v I I I I #
coedge $-1 $470 $646 $316 $475 forward $312 $-1 #
coedge $-1 $469 $314 $472 $647 reversed $196 $-1 #
coedge $-1 $314 $468 $648 $649 reversed $196 $-1 #
coedge $-1 $650 $467 $314 $471 forward $312 $-1 #
edge $-1 $651 -18.507236008669523 $652 -3.3388755646463437 $470 $653 forward 7 unknown #
coedge $-1 $316 $315 $468 $647 forward $125 $-1 #
coedge $-1 $654 $648 $315 $474 forward $644 $-1 #
edge $-1 $655 -12.41636526503147 $478 -2.4832730530062967 $473 $656 forward 7 unknown #
edge $-1 $479 2.4832730530062967 $651 12.41636526503147 $467 $657 forward 7 unknown #
coedge $-1 $477 $317 $646 $658 reversed $465 $-1 #
coedge $-1 $317 $476 $654 $659 reversed $465 $-1 #
vertex $-1 $474 $660 #
vertex $-1 $475 $661 #
straight-curve $-1 -74.797204504532004 7.1054273576010019e-015 2.6248004320148084 0.83867056331134215 0 0.54463904215088732 I I #
coedge $-1 $481 $481 $-1 $662 reversed $321 $-1 #
edge $-1 $663 0 $663 6.2831853071796004 $322 $664 forward 7 unknown #
vertex $-1 $325 $665 #
ellipse-curve $-1 -67.213024282520422 1.9866184424050388 7.5500247481121718 -0.54463904215088732 0 0.83867056331134215 0.41933528165567108 0 0.27231952107544366 1 I I #
coedge $-1 $485 $485 $-1 $666 reversed $328 $-1 #
edge $-1 $667 0 $667 6.2831853071796004 $329 $668 forward 7 unknown #
vertex $-1 $332 $669 #
ellipse-curve $-1 -67.213024282520422 4.9665461060125864 7.5500247481121718 -0.54463904215088732 0 0.83867056331134215 0.41933528165567108 0 0.27231952107544366 1 I I #
coedge $-1 $489 $489 $-1 $670 reversed $335 $-1 #
edge $-1 $671 0 $671 6.2831853071796004 $336 $672 forward 7 unknown #
vertex $-1 $339 $673 #
ellipse-curve $-1 -67.213024282520422 7.9464737696201411 7.5500247481121718 -0.54463904215088732 0 0.83867056331134215 0.41933528165567108 0 0.27231952107544366 1 I I #
face $-1 $-1 $355 $51 $-1 $674 reversed single #
loop $-1 $-1 $509 $340 #
plane-surface $-1 0 45.464063316014986 0 0 -1 0 0 0 -1 forward_v I I I I #
coedge $-1 $675 $507 $510 $676 forward $341 $-1 #
coedge $-1 $513 $343 $344 $501 reversed $215 $-1 #
coedge $-1 $507 $675 $343 $499 reversed $341 $-1 #
edge $-1 $514 -12.475249064209539 $677 12.475249064209539 $498 $678 forward 7 unknown #
coedge $-1 $345 $344 $675 $679 forward $137 $-1 #
edge $-1 $505 -74.797204504532004 $677 74.797204504532004 $497 $680 forward 7 unknown #
coedge $-1 $510 $509 $345 $503 reversed $494 $-1 #
edge $-1 $681 -74.797204504532004 $504 74.797204504532004 $502 $682 forward 7 unknown #
vertex $-1 $347 $683 #
vertex $-1 $516 $684 #
straight-curve $-1 74.797204504532004 0 -12.475249064209539 0 -1 0 I I #
coedge $-1 $496 $498 $348 $508 reversed $341 $-1 #
edge $-1 $511 -45.464063316014986 $514 45.464063316014986 $507 $685 forward 7 unknown #
coedge $-1 $502 $349 $354 $517 forward $494 $-1 #
coedge $-1 $349 $502 $496 $676 reversed $494 $-1 #
vertex $-1 $350 $686 #
straight-curve $-1 0 45.464063316014986 12.475249064209539 -1 0 0 I I #
coedge $-1 $351 $497 $353 $516 reversed $215 $-1 #
vertex $-1 $508 $687 #
straight-curve $-1 0 -45.464063316014986 12.475249064209539 1 0 0 I I #
edge $-1 $356 -12.475249064209539 $505 12.475249064209539 $353 $688 forward 7 unknown #
edge $-1 $357 -12.475249064209539 $504 12.475249064209539 $354 $689 forward 7 unknown #
point $-1 74.797204504532004 -45.464063316014986 12.475249064209539 #
point $-1 74.797204504532004 45.464063316014986 12.475249064209539 #
face $-1 $-1 $534 $52 $-1 $690 reversed single #
loop $-1 $-1 $691 $359 #
plane-surface $-1 0 -56.41556314136345 9.017685833623311 0 1 0 0 0 1 forward_v I I I I #
coedge $-1 $692 $362 $371 $538 reversed $223 $-1 #
coedge $-1 $362 $692 $363 $526 reversed $223 $-1 #
coedge $-1 $364 $363 $693 $694 forward $141 $-1 #
edge $-1 $530 45.464063316014986 $695 56.41556314136345 $524 $696 forward 7 unknown #
coedge $-1 $697 $368 $364 $528 reversed $534 $-1 #
edge $-1 $698 -56.41556314136345 $529 -45.464063316014986 $527 $699 forward 7 unknown #
vertex $-1 $369 $700 #
vertex $-1 $526 $701 #
straight-curve $-1 0 -45.464063316014986 12.475249064209539 -1 0 0 I I #
straight-curve $-1 -74.797204504532004 -45.464063316014986 0 0 0 -1 I I #
coedge $-1 $368 $697 $370 $537 reversed $534 $-1 #
loop $-1 $-1 $368 $520 #
straight-curve $-1 74.797204504532004 -45.464063316014986 0 0 0 1 I I #
coedge $-1 $371 $370 $702 $703 forward $360 $-1 #
edge $-1 $372 -5.4757499126742317 $704 5.4757499126742317 $533 $705 forward 7 unknown #
edge $-1 $706 -5.4757499126742317 $373 5.4757499126742317 $523 $707 forward 7 unknown #
point $-1 74.797204504532004 -45.464063316014986 5.5601226030370832 #
point $-1 -74.797204504532004 -45.464063316014986 5.5601226030370832 #
face $-1 $-1 $556 $53 $-1 $708 reversed single #
loop $-1 $-1 $552 $375 #
plane-surface $-1 0 0 12.475249064209539 0 0 1 1 0 0 forward_v I I I I #
coedge $-1 $709 $710 $547 $711 forward $376 $-1 #
coedge $-1 $378 $385 $709 $712 forward $231 $-1 #
edge $-1 $713 -5.4757499126742317 $387 5.4757499126742317 $379 $714 forward 7 unknown #
coedge $-1 $380 $379 $544 $711 reversed $145 $-1 #
coedge $-1 $715 $552 $380 $549 forward $542 $-1 #
edge $-1 $550 45.464063316014986 $716 56.41556314136345 $380 $717 forward 7 unknown #
vertex $-1 $549 $718 #
straight-curve $-1 74.797204504532004 45.464063316014986 0 0 0 -1 I I #
coedge $-1 $548 $719 $382 $553 forward $542 $-1 #
edge $-1 $557 -74.797204504532004 $550 74.797204504532004 $552 $720 forward 7 unknown #
coedge $-1 $721 $383 $719 $722 reversed $556 $-1 #
coedge $-1 $383 $721 $385 $559 reversed $556 $-1 #
loop $-1 $-1 $383 $541 #
vertex $-1 $384 $723 #
straight-curve $-1 -74.797204504532004 45.464063316014986 0 0 0 1 I I #
edge $-1 $386 -5.4757499126742317 $724 5.4757499126742317 $555 $725 forward 7 unknown #
point $-1 -74.797204504532004 45.464063316014986 5.5601226030370832 #
point $-1 74.797204504532004 45.464063316014986 5.5601226030370832 #
loop $-1 $-1 $397 $389 #
plane-surface $-1 74.797204504532004 0 0 -1 0 0 0 0 1 forward_v I I I I #
coedge $-1 $565 $392 $394 $569 reversed $239 $-1 #
coedge $-1 $392 $564 $726 $727 reversed $239 $-1 #
coedge $-1 $400 $395 $392 $567 forward $390 $-1 #
edge $-1 $570 25.648580348670293 $728 30.019815464113904 $566 $729 forward 7 unknown #
coedge $-1 $394 $393 $573 $730 reversed $149 $-1 #
edge $-1 $731 -149.59440900906409 $570 -142.93154029479666 $564 $732 forward 7 unknown #
vertex $-1 $396 $733 #
straight-curve $-1 70.425969389088394 -13.922623214612287 12.475249064209535 0 -1 0 I I #
coedge $-1 $726 $397 $400 $577 reversed $562 $-1 #
coedge $-1 $397 $726 $568 $730 forward $562 $-1 #
vertex $-1 $398 $734 #
straight-curve $-1 74.797204504532004 -21.177929367782632 109.2449071579569 0 0 1 I I #
straight-curve $-1 -23.345556785992983 -21.177929367782632 120.34705302538885 0.65605901945558964 0 -0.75470958851134928 I I #
edge $-1 $728 -34.512563490666516 $401 -21.177929367782632 $572 $735 forward 7 unknown #
point $-1 74.797204504532004 -21.177929367782632 12.475249064209539 #
point $-1 70.425969389088394 -21.177929367782632 12.475249064209549 #
edge $-1 $736 1 $736 0 $404 $-1 forward 7 unknown #
vertex $-1 $405 $737 #
ellipse-curve $-1 68.186976168520843 -30.702668026985407 6.1147282399603906 0.75470958851134928 0 0.65605901945558964 0.98408852918338452 0 -1.132064382767024 1 I I #
point $-1 73.595675475993573 -30.702668026985407 8.8289192286175933 #
edge $-1 $738 1 $738 0 $408 $-1 forward 7 unknown #
vertex $-1 $409 $739 #
ellipse-curve $-1 68.186976168520843 -24.98782483146374 6.1147282399603906 0.75470958851134928 0 0.65605901945558964 0.98408852918338452 0 -1.132064382767024 1 I I #
point $-1 73.595675475993573 -24.98782483146374 8.8289192286175933 #
plane-surface $-1 0 0 12.475249064209539 0 0 1 1 0 0 forward_v I I I I #
coedge $-1 $599 $598 $591 $740 forward $413 $-1 #
coedge $-1 $591 $415 $417 $595 reversed $261 $-1 #
coedge $-1 $415 $590 $589 $740 reversed $261 $-1 #
coedge $-1 $423 $418 $415 $593 forward $424 $-1 #
edge $-1 $596 25.648580348670293 $741 30.019815464113904 $592 $742 forward 7 unknown #
coedge $-1 $417 $416 $599 $743 reversed $163 $-1 #
edge $-1 $744 -149.59440900906409 $596 -142.93154029479666 $590 $745 forward 7 unknown #
vertex $-1 $419 $746 #
straight-curve $-1 70.425969389088394 3.3336585307209745 12.475249064209535 0 -1 0 I I #
coedge $-1 $589 $420 $423 $603 reversed $413 $-1 #
coedge $-1 $420 $589 $594 $743 forward $413 $-1 #
vertex $-1 $421 $747 #
straight-curve $-1 74.797204504532004 13.334634122883891 109.2449071579569 0 0 1 I I #
straight-curve $-1 -23.345556785992983 13.334634122883891 120.34705302538885 0.65605901945558964 0 -0.75470958851134928 I I #
edge $-1 $741 6.2172489379008766e-015 $425 13.334634122883891 $598 $748 forward 7 unknown #
point $-1 74.797204504532004 13.334634122883891 12.475249064209539 #
point $-1 70.425969389088394 13.334634122883891 12.475249064209549 #
edge $-1 $749 1 $749 0 $428 $-1 forward 7 unknown #
vertex $-1 $429 $750 #
ellipse-curve $-1 68.186976168520843 3.8098954636811158 6.1147282399603906 0.75470958851134928 0 0.65605901945558964 0.98408852918338452 0 -1.132064382767024 1 I I #
point $-1 73.595675475993573 3.8098954636811158 8.8289192286175933 #
edge $-1 $751 1 $751 0 $432 $-1 forward 7 unknown #
vertex $-1 $433 $752 #
ellipse-curve $-1 68.186976168520843 9.5247386592027823 6.1147282399603906 0.75470958851134928 0 0.65605901945558964 0.98408852918338452 0 -1.132064382767024 1 I I #
point $-1 73.595675475993573 9.5247386592027823 8.8289192286175933 #
plane-surface $-1 0 0 12.475249064209539 0 0 1 1 0 0 forward_v I I I I #
coedge $-1 $625 $624 $617 $753 forward $437 $-1 #
coedge $-1 $617 $439 $441 $621 reversed $283 $-1 #
coedge $-1 $439 $616 $615 $753 reversed $283 $-1 #
coedge $-1 $447 $442 $439 $619 forward $448 $-1 #
edge $-1 $622 -18.507236008669523 $754 -3.3388755646463437 $618 $755 forward 7 unknown #
coedge $-1 $441 $440 $625 $756 reversed $177 $-1 #
edge $-1 $757 0 $622 18.086196305893456 $616 $758 forward 7 unknown #
vertex $-1 $443 $759 #
straight-curve $-1 -59.628844060508825 -2.4832730530062896 12.475249064209537 0 1 0 I I #
coedge $-1 $615 $444 $447 $629 reversed $437 $-1 #
coedge $-1 $444 $615 $620 $756 forward $437 $-1 #
vertex $-1 $445 $760 #
straight-curve $-1 -74.797204504532004 -9.9330922120251657 64.04261385193692 0 0 1 I I #
straight-curve $-1 -74.797204504532004 -9.9330922120251657 2.6248004320148084 -0.83867056331134215 0 -0.54463904215088732 I I #
edge $-1 $754 -7.1054273576010019e-015 $449 9.9330922120251657 $624 $761 forward 7 unknown #
point $-1 -74.797204504532004 -9.9330922120251657 12.475249064209539 #
point $-1 -59.628844060508825 -9.9330922120251657 12.475249064209539 #
edge $-1 $762 1 $762 0 $452 $-1 forward 7 unknown #
vertex $-1 $453 $763 #
ellipse-curve $-1 -66.159947981531275 -7.946473769620134 5.9284294782018074 -0.54463904215088732 0 0.83867056331134215 0.41933528165567108 0 0.27231952107544366 1 I I #
point $-1 -66.793689000864759 -7.946473769620134 7.8223442691876306 #
edge $-1 $764 1 $764 0 $456 $-1 forward 7 unknown #
vertex $-1 $457 $765 #
ellipse-curve $-1 -66.159947981531275 -4.9665461060125864 5.9284294782018074 -0.54463904215088732 0 0.83867056331134215 0.41933528165567108 0 0.27231952107544366 1 I I #
point $-1 -66.793689000864759 -4.9665461060125864 7.8223442691876306 #
edge $-1 $766 1 $766 0 $460 $-1 forward 7 unknown #
vertex $-1 $461 $767 #
ellipse-curve $-1 -66.159947981531275 -1.9866184424050317 5.9284294782018074 -0.54463904215088732 0 0.83867056331134215 0.41933528165567108 0 0.27231952107544366 1 I I #
point $-1 -66.793689000864759 -1.9866184424050317 7.8223442691876306 #
loop $-1 $-1 $473 $464 #
plane-surface $-1 -74.797204504532004 0 0 1 0 0 0 0 -1 forward_v I I I I #
coedge $-1 $467 $650 $476 $658 forward $312 $-1 #
edge $-1 $655 0 $651 18.086196305893456 $468 $768 forward 7 unknown #
coedge $-1 $473 $769 $469 $649 forward $644 $-1 #
edge $-1 $652 51.567364787727385 $655 61.417813419922112 $648 $770 forward 7 unknown #
coedge $-1 $646 $470 $769 $771 forward $312 $-1 #
vertex $-1 $471 $772 #
vertex $-1 $771 $773 #
straight-curve $-1 -78.136080069178348 9.9330922120251799 12.475249064209535 -1 0 0 I I #
coedge $-1 $769 $473 $477 $659 forward $644 $-1 #
vertex $-1 $649 $774 #
straight-curve $-1 -74.797204504532004 -2.4832730530062896 2.6248004320148097 0 -1 0 I I #
straight-curve $-1 -59.628844060508825 -2.4832730530062896 12.475249064209537 0 1 0 I I #
edge $-1 $775 3.3388755646463437 $479 18.507236008669523 $646 $776 forward 7 unknown #
edge $-1 $478 -61.417813419922112 $775 -51.567364787727385 $654 $777 forward 7 unknown #
point $-1 -74.797204504532004 7.1054273576010019e-015 2.6248004320148084 #
point $-1 -59.628844060508825 7.1054273576010019e-015 12.475249064209539 #
edge $-1 $778 1 $778 0 $481 $-1 forward 7 unknown #
vertex $-1 $482 $779 #
ellipse-curve $-1 -66.159947981531275 1.9866184424050388 5.9284294782018074 -0.54463904215088732 0 0.83867056331134215 0.41933528165567108 0 0.27231952107544366 1 I I #
point $-1 -66.793689000864759 1.9866184424050388 7.8223442691876306 #
edge $-1 $780 1 $780 0 $485 $-1 forward 7 unknown #
vertex $-1 $486 $781 #
ellipse-curve $-1 -66.159947981531275 4.9665461060125864 5.9284294782018074 -0.54463904215088732 0 0.83867056331134215 0.41933528165567108 0 0.27231952107544366 1 I I #
point $-1 -66.793689000864759 4.9665461060125864 7.8223442691876306 #
edge $-1 $782 1 $782 0 $489 $-1 forward 7 unknown #
vertex $-1 $490 $783 #
ellipse-curve $-1 -66.159947981531275 7.9464737696201411 5.9284294782018074 -0.54463904215088732 0 0.83867056331134215 0.41933528165567108 0 0.27231952107544366 1 I I #
point $-1 -66.793689000864759 7.9464737696201411 7.8223442691876306 #
plane-surface $-1 74.797204504532004 0 0 -1 0 0 0 0 1 forward_v I I I I #
coedge $-1 $498 $496 $500 $679 reversed $341 $-1 #
edge $-1 $511 -12.475249064209539 $681 12.475249064209539 $510 $784 forward 7 unknown #
vertex $-1 $679 $785 #
straight-curve $-1 -74.797204504532004 -45.464063316014986 0 0 0 -1 I I #
edge $-1 $677 -45.464063316014986 $681 45.464063316014986 $675 $786 forward 7 unknown #
straight-curve $-1 0 -45.464063316014986 -12.475249064209539 -1 0 0 I I #
vertex $-1 $503 $787 #
straight-curve $-1 0 45.464063316014986 -12.475249064209539 1 0 0 I I #
point $-1 74.797204504532004 45.464063316014986 -12.475249064209539 #
point $-1 74.797204504532004 -45.464063316014986 -12.475249064209539 #
straight-curve $-1 -74.797204504532004 0 12.475249064209539 0 -1 0 I I #
point $-1 -74.797204504532004 45.464063316014986 12.475249064209539 #
point $-1 -74.797204504532004 -45.464063316014986 12.475249064209539 #
straight-curve $-1 74.797204504532004 -45.464063316014986 0 0 0 -1 I I #
straight-curve $-1 74.797204504532004 45.464063316014986 0 0 0 -1 I I #
plane-surface $-1 74.797204504532004 0 0 -1 0 0 0 0 1 forward_v I I I I #
coedge $-1 $702 $693 $692 $788 forward $521 $-1 #
coedge $-1 $524 $523 $691 $788 reversed $223 $-1 #
coedge $-1 $691 $789 $525 $694 reversed $521 $-1 #
edge $-1 $695 -74.797204504532004 $698 74.797204504532004 $693 $790 forward 7 unknown #
vertex $-1 $526 $791 #
straight-curve $-1 -74.797204504532004 0 12.475249064209539 0 -1 0 I I #
coedge $-1 $533 $527 $789 $792 forward $534 $-1 #
vertex $-1 $528 $793 #
straight-curve $-1 74.797204504532004 0 12.475249064209539 0 1 0 I I #
point $-1 74.797204504532004 -45.464063316014986 12.475249064209539 #
point $-1 -74.797204504532004 -45.464063316014986 12.475249064209539 #
coedge $-1 $789 $691 $536 $703 reversed $521 $-1 #
edge $-1 $704 -74.797204504532004 $706 74.797204504532004 $702 $794 forward 7 unknown #
vertex $-1 $792 $795 #
straight-curve $-1 74.797204504532004 -50.939813228689218 5.5601226030370832 0 -1 0 I I #
vertex $-1 $538 $796 #
straight-curve $-1 -74.797204504532004 -50.939813228689218 5.5601226030370832 0 1 0 I I #
plane-surface $-1 -74.797204504532004 0 0 1 0 0 0 0 -1 forward_v I I I I #
coedge $-1 $797 $544 $545 $712 reversed $376 $-1 #
coedge $-1 $544 $797 $715 $798 reversed $376 $-1 #
edge $-1 $716 -3.4575632305862278 $713 3.4575632305862278 $547 $799 forward 7 unknown #
edge $-1 $724 -74.797204504532004 $713 74.797204504532004 $709 $800 forward 7 unknown #
vertex $-1 $546 $801 #
straight-curve $-1 74.797204504532004 50.939813228689218 5.5601226030370832 0 -1 0 I I #
coedge $-1 $719 $548 $710 $798 forward $542 $-1 #
vertex $-1 $549 $802 #
straight-curve $-1 74.797204504532004 0 12.475249064209539 0 1 0 I I #
point $-1 74.797204504532004 45.464063316014986 12.475249064209539 #
coedge $-1 $552 $715 $554 $722 forward $542 $-1 #
straight-curve $-1 0 45.464063316014986 12.475249064209539 1 0 0 I I #
coedge $-1 $555 $554 $797 $803 forward $556 $-1 #
edge $-1 $804 -56.41556314136345 $557 -45.464063316014986 $554 $805 forward 7 unknown #
point $-1 -74.797204504532004 45.464063316014986 12.475249064209539 #
vertex $-1 $712 $806 #
straight-curve $-1 -74.797204504532004 50.939813228689218 5.5601226030370832 0 1 0 I I #
coedge $-1 $573 $572 $565 $727 forward $562 $-1 #
edge $-1 $728 96.769658093747367 $731 101.79818899939727 $726 $807 forward 7 unknown #
vertex $-1 $577 $808 #
straight-curve $-1 44.7773890404181 -34.512563490666516 12.475249064209535 1 0 0 I I #
edge $-1 $731 -20.589940276054229 $574 -7.2553061531703449 $573 $809 forward 7 unknown #
vertex $-1 $730 $810 #
straight-curve $-1 -23.345556785992983 -34.512563490666516 120.34705302538885 -0.65605901945558964 0 0.75470958851134928 I I #
point $-1 70.425969389088394 -34.512563490666516 12.475249064209549 #
point $-1 74.797204504532004 -21.177929367782632 7.4467181585596336 #
straight-curve $-1 74.797204504532004 0 12.475249064209539 0 1 0 I I #
vertex $-1 $580 $811 #
point $-1 69.171064697704224 -30.702668026985407 4.9826638571933666 #
vertex $-1 $584 $812 #
point $-1 69.171064697704224 -24.98782483146374 4.9826638571933666 #
edge $-1 $741 96.769658093747367 $744 101.79818899939727 $589 $813 forward 7 unknown #
vertex $-1 $603 $814 #
straight-curve $-1 44.7773890404181 6.2172489379008766e-015 12.475249064209535 1 0 0 I I #
edge $-1 $744 -3.3336585307209683 $600 10.000975592162916 $599 $815 forward 7 unknown #
vertex $-1 $743 $816 #
straight-curve $-1 -23.345556785992983 6.2172489379008766e-015 120.34705302538885 -0.65605901945558964 0 0.75470958851134928 I I #
point $-1 70.425969389088394 6.2172489379008766e-015 12.475249064209549 #
point $-1 74.797204504532004 13.334634122883891 7.4467181585596336 #
straight-curve $-1 74.797204504532004 0 12.475249064209539 0 1 0 I I #
vertex $-1 $606 $817 #
point $-1 69.171064697704224 3.8098954636811158 4.9826638571933666 #
vertex $-1 $610 $818 #
point $-1 69.171064697704224 9.5247386592027823 4.9826638571933666 #
edge $-1 $754 51.567364787727385 $757 61.417813419922112 $615 $819 forward 7 unknown #
vertex $-1 $629 $820 #
straight-curve $-1 -78.136080069178348 7.1054273576010019e-015 12.475249064209535 -1 0 0 I I #
edge $-1 $757 -2.4832730530062967 $626 7.449819159018876 $625 $821 forward 7 unknown #
vertex $-1 $756 $822 #
straight-curve $-1 -74.797204504532004 7.1054273576010019e-015 2.6248004320148084 0.83867056331134215 0 0.54463904215088732 I I #
point $-1 -59.628844060508825 7.1054273576010019e-015 12.475249064209539 #
point $-1 -74.797204504532004 -9.9330922120251657 2.6248004320148084 #
straight-curve $-1 -74.797204504532004 0 12.475249064209539 0 -1 0 I I #
vertex $-1 $632 $823 #
point $-1 -65.740612699875598 -7.946473769620134 6.2007489992772511 #
vertex $-1 $636 $824 #
point $-1 -65.740612699875598 -4.9665461060125864 6.2007489992772511 #
vertex $-1 $640 $825 #
point $-1 -65.740612699875598 -1.9866184424050317 6.2007489992772511 #
straight-curve $-1 -74.797204504532004 9.9330922120251799 2.6248004320148084 0.83867056331134215 0 0.54463904215088732 I I #
coedge $-1 $648 $654 $650 $771 reversed $644 $-1 #
straight-curve $-1 -74.797204504532004 9.9330922120251799 64.04261385193692 0 0 -1 I I #
edge $-1 $652 -9.9330922120251799 $775 -7.1054273576010019e-015 $769 $826 forward 7 unknown #
point $-1 -59.628844060508825 9.9330922120251799 12.475249064209539 #
point $-1 -74.797204504532004 9.9330922120251799 12.475249064209539 #
point $-1 -74.797204504532004 9.9330922120251799 2.6248004320148084 #
vertex $-1 $659 $827 #
straight-curve $-1 -78.136080069178348 7.1054273576010019e-015 12.475249064209535 1 0 0 I I #
straight-curve $-1 -74.797204504532004 7.1054273576010019e-015 64.04261385193692 0 0 1 I I #
vertex $-1 $662 $828 #
point $-1 -65.740612699875598 1.9866184424050388 6.2007489992772511 #
vertex $-1 $666 $829 #
point $-1 -65.740612699875598 4.9665461060125864 6.2007489992772511 #
vertex $-1 $670 $830 #
point $-1 -65.740612699875598 7.9464737696201411 6.2007489992772511 #
straight-curve $-1 -74.797204504532004 45.464063316014986 0 0 0 -1 I I #
point $-1 -74.797204504532004 -45.464063316014986 -12.475249064209539 #
straight-curve $-1 -74.797204504532004 0 -12.475249064209539 0 1 0 I I #
point $-1 -74.797204504532004 45.464063316014986 -12.475249064209539 #
edge $-1 $695 -3.4575632305862278 $706 3.4575632305862278 $692 $831 forward 7 unknown #
coedge $-1 $693 $702 $697 $792 reversed $521 $-1 #
straight-curve $-1 0 -56.41556314136345 12.475249064209539 1 0 0 I I #
point $-1 -74.797204504532004 -56.41556314136345 12.475249064209539 #
edge $-1 $698 -3.4575632305862278 $704 3.4575632305862278 $697 $832 forward 7 unknown #
point $-1 74.797204504532004 -56.41556314136345 12.475249064209539 #
straight-curve $-1 0 -56.41556314136345 5.5601226030370832 -1 0 0 I I #
point $-1 74.797204504532004 -56.41556314136345 5.5601226030370832 #
point $-1 -74.797204504532004 -56.41556314136345 5.5601226030370832 #
coedge $-1 $710 $709 $721 $803 reversed $376 $-1 #
edge $-1 $716 -74.797204504532004 $804 74.797204504532004 $710 $833 forward 7 unknown #
straight-curve $-1 74.797204504532004 56.41556314136345 9.017685833623311 0 0 -1 I I #
straight-curve $-1 0 56.41556314136345 5.5601226030370832 1 0 0 I I #
point $-1 74.797204504532004 56.41556314136345 5.5601226030370832 #
point $-1 74.797204504532004 56.41556314136345 12.475249064209539 #
edge $-1 $804 -3.4575632305862278 $724 3.4575632305862278 $797 $834 forward 7 unknown #
vertex $-1 $798 $835 #
straight-curve $-1 -74.797204504532004 0 12.475249064209539 0 -1 0 I I #
point $-1 -74.797204504532004 56.41556314136345 5.5601226030370832 #
straight-curve $-1 74.797204504532004 -34.512563490666516 109.2449071579569 0 0 -1 I I #
point $-1 74.797204504532004 -34.512563490666516 12.475249064209539 #
straight-curve $-1 74.797204504532004 -13.922623214612287 7.4467181585596265 0 1 0 I I #
point $-1 74.797204504532004 -34.512563490666516 7.4467181585596336 #
point $-1 67.054911785753816 -30.702668026985407 5.1306397107770056 #
point $-1 67.054911785753816 -24.98782483146374 5.1306397107770056 #
straight-curve $-1 74.797204504532004 6.2172489379008766e-015 109.2449071579569 0 0 -1 I I #
point $-1 74.797204504532004 6.2172489379008766e-015 12.475249064209539 #
straight-curve $-1 74.797204504532004 3.3336585307209745 7.4467181585596265 0 1 0 I I #
point $-1 74.797204504532004 6.2172489379008766e-015 7.4467181585596336 #
point $-1 67.054911785753816 3.8098954636811158 5.1306397107770056 #
point $-1 67.054911785753816 9.5247386592027823 5.1306397107770056 #
straight-curve $-1 -74.797204504532004 7.1054273576010019e-015 64.04261385193692 0 0 -1 I I #
point $-1 -74.797204504532004 7.1054273576010019e-015 12.475249064209539 #
straight-curve $-1 -74.797204504532004 -2.4832730530062896 2.6248004320148097 0 -1 0 I I #
point $-1 -74.797204504532004 7.1054273576010019e-015 2.6248004320148084 #
point $-1 -65.887628460455829 -7.946473769620134 5.509094196546136 #
point $-1 -65.887628460455829 -4.9665461060125864 5.509094196546136 #
point $-1 -65.887628460455829 -1.9866184424050317 5.509094196546136 #
straight-curve $-1 -74.797204504532004 0 12.475249064209539 0 -1 0 I I #
point $-1 -74.797204504532004 7.1054273576010019e-015 12.475249064209539 #
point $-1 -65.887628460455829 1.9866184424050388 5.509094196546136 #
point $-1 -65.887628460455829 4.9665461060125864 5.509094196546136 #
point $-1 -65.887628460455829 7.9464737696201411 5.509094196546136 #
straight-curve $-1 -74.797204504532004 -56.41556314136345 9.017685833623311 0 0 -1 I I #
straight-curve $-1 74.797204504532004 -56.41556314136345 9.017685833623311 0 0 -1 I I #
straight-curve $-1 0 56.41556314136345 12.475249064209539 -1 0 0 I I #
straight-curve $-1 -74.797204504532004 56.41556314136345 9.017685833623311 0 0 -1 I I #
point $-1 -74.797204504532004 56.41556314136345 12.475249064209539 #
End-of-ACIS-data 