500 0 9 0           
7 Unknown 11 ACIS 5.0 NT 24 Thu Mar 25 22:39:17 1999 
-1 9.9999999999999995e-007 1e-010 
body $-1 $9 $-1 $10 #
body $-1 $11 $-1 $12 #
body $-1 $13 $-1 $14 #
body $-1 $15 $-1 $16 #
body $-1 $17 $-1 $18 #
body $-1 $19 $-1 $20 #
body $-1 $21 $-1 $22 #
body $-1 $23 $-1 $24 #
body $-1 $25 $-1 $26 #
lump $-1 $-1 $27 $0 #
transform $-1 1 0 0 0 1 0 0 0 1 56.533707693716238 27.271859211189117 11.411450766709548 1 rotate no_reflect no_shear #
lump $-1 $-1 $28 $1 #
transform $-1 1 0 0 0 1 0 0 0 1 56.533707693716238 27.271859211189117 11.411450766709548 1 rotate no_reflect no_shear #
lump $-1 $-1 $29 $2 #
transform $-1 1 0 0 0 1 0 0 0 1 56.533707693716238 27.271859211189117 11.411450766709548 1 rotate no_reflect no_shear #
lump $-1 $-1 $30 $3 #
transform $-1 1 0 0 0 1 0 0 0 1 56.533707693716238 27.271859211189117 11.411450766709548 1 rotate no_reflect no_shear #
lump $-1 $-1 $31 $4 #
transform $-1 1 0 0 0 1 0 0 0 1 56.533707693716238 27.271859211189117 11.411450766709548 1 rotate no_reflect no_shear #
lump $-1 $-1 $32 $5 #
transform $-1 1 0 0 0 1 0 0 0 1 56.533707693716238 27.271859211189117 11.411450766709548 1 rotate no_reflect no_shear #
lump $-1 $-1 $33 $6 #
transform $-1 1 0 0 0 1 0 0 0 1 56.533707693716238 27.271859211189117 11.411450766709548 1 rotate no_reflect no_shear #
lump $-1 $-1 $34 $7 #
transform $-1 1 0 0 0 1 0 0 0 1 56.533707693716238 27.271859211189117 11.411450766709548 1 rotate no_reflect no_shear #
lump $-1 $-1 $35 $8 #
transform $-1 1 0 0 0 1 0 0 0 1 56.533707693716238 27.271859211189117 11.411450766709548 1 rotate no_reflect no_shear #
shell $-1 $-1 $-1 $36 $-1 $9 #
shell $-1 $-1 $-1 $37 $-1 $11 #
shell $-1 $-1 $-1 $38 $-1 $13 #
shell $-1 $-1 $-1 $39 $-1 $15 #
shell $-1 $-1 $-1 $40 $-1 $17 #
shell $-1 $-1 $-1 $41 $-1 $19 #
shell $-1 $-1 $-1 $42 $-1 $21 #
shell $-1 $-1 $-1 $43 $-1 $23 #
shell $-1 $-1 $-1 $44 $-1 $25 #
face $-1 $45 $46 $27 $-1 $47 forward single #
face $-1 $48 $49 $28 $-1 $50 forward single #
face $-1 $51 $52 $29 $-1 $53 reversed single #
face $-1 $54 $55 $30 $-1 $56 reversed single #
face $-1 $57 $58 $31 $-1 $59 forward single #
face $-1 $60 $61 $32 $-1 $62 forward single #
face $-1 $63 $64 $33 $-1 $65 reversed single #
face $-1 $66 $67 $34 $-1 $68 forward single #
face $-1 $69 $70 $35 $-1 $71 forward single #
face $-1 $72 $73 $27 $-1 $74 reversed single #
loop $-1 $-1 $75 $36 #
plane-surface $-1 0 0 11.411450766709548 0 0 1 1 0 0 forward_v I I I I #
face $-1 $76 $77 $28 $-1 $78 reversed single #
loop $-1 $-1 $79 $37 #
plane-surface $-1 0 -22.785494723093979 -6.1778621003086638 0 0 1 1 0 0 forward_v I I I I #
face $-1 $80 $81 $29 $-1 $82 reversed single #
loop $-1 $-1 $83 $38 #
plane-surface $-1 -54.988092909093488 15.546193919507612 0 0 1 0 0 0 1 forward_v I I I I #
face $-1 $84 $85 $30 $-1 $86 reversed single #
loop $-1 $-1 $87 $39 #
plane-surface $-1 56.533709548981321 -7.5494001928831276 165.1269580606089 0 -1 0 -0.70710678939079041 0 -0.70710677298230451 forward_v I I I I #
face $-1 $88 $89 $31 $-1 $90 forward single #
loop $-1 $91 $92 $40 #
cone-surface $-1 52.782966182489709 -12.599260388727384 7.6607091989734135 -0.70710678939079041 0 -0.70710677298230451 0.35355338649115226 0 -0.35355339469539521 1 I I 0 1 0.5 forward I I I I #
face $-1 $93 $94 $32 $-1 $95 forward single #
loop $-1 $96 $97 $41 #
cone-surface $-1 52.782966182489709 -9.5693442712208316 7.6607091989734135 -0.70710678939079041 0 -0.70710677298230451 0.35355338649115226 0 -0.35355339469539521 1 I I 0 1 0.5 forward I I I I #
face $-1 $98 $99 $33 $-1 $100 reversed single #
loop $-1 $-1 $101 $42 #
plane-surface $-1 56.533709548981321 9.3732618843701019 165.1269580606089 0 -1 0 -0.70710678939079041 0 -0.70710677298230451 forward_v I I I I #
face $-1 $102 $103 $34 $-1 $104 forward single #
loop $-1 $105 $106 $43 #
cone-surface $-1 52.782966182489709 4.3234016885258448 7.6607091989734135 -0.70710678939079041 0 -0.70710677298230451 0.35355338649115226 0 -0.35355339469539521 1 I I 0 1 0.5 forward I I I I #
face $-1 $107 $108 $35 $-1 $109 forward single #
loop $-1 $110 $111 $44 #
cone-surface $-1 52.782966182489709 7.3533178060324005 7.6607091989734135 -0.70710678939079041 0 -0.70710677298230451 0.35355338649115226 0 -0.35355339469539521 1 I I 0 1 0.5 forward I I I I #
face $-1 $112 $113 $27 $-1 $114 reversed single #
loop $-1 $-1 $115 $45 #
plane-surface $-1 0 0 -11.411450766709548 0 0 1 1 0 0 forward_v I I I I #
coedge $-1 $116 $117 $118 $119 forward $46 $-1 #
face $-1 $120 $121 $28 $-1 $122 reversed single #
loop $-1 $-1 $123 $48 #
plane-surface $-1 0 -18.299130234998842 -8.7946564335091058 0 -1 0 0 0 -1 forward_v I I I I #
coedge $-1 $124 $125 $126 $127 reversed $49 $-1 #
face $-1 $128 $129 $29 $-1 $130 reversed single #
loop $-1 $-1 $131 $51 #
plane-surface $-1 -53.442478124470739 21.409026565348363 0 -1 0 0 0 0 1 forward_v I I I I #
coedge $-1 $132 $133 $134 $135 reversed $52 $-1 #
face $-1 $136 $137 $30 $-1 $138 reversed single #
loop $-1 $-1 $139 $54 #
plane-surface $-1 -23.417027530340917 -11.084302329974108 85.176222836551759 0.70710678939079041 0 0.70710677298230451 0.70710677298230451 0 -0.70710678939079041 forward_v I I I I #
coedge $-1 $140 $141 $142 $143 reversed $55 $-1 #
face $-1 $-1 $144 $31 $-1 $145 forward single #
loop $-1 $146 $147 $57 #
cone-surface $-1 51.948430406882522 -12.599260388727384 6.8261734427317169 -0.70710678939079041 0 -0.70710677298230451 0.17677669324557613 0 -0.1767766973476976 1 I I -0.70710678118654746 0.70710678118654746 0.25 forward I I I I #
loop $-1 $-1 $148 $40 #
coedge $-1 $92 $92 $149 $150 reversed $58 $-1 #
face $-1 $-1 $151 $32 $-1 $152 forward single #
loop $-1 $153 $154 $60 #
cone-surface $-1 51.948430406882522 -9.5693442712208316 6.8261734427317169 -0.70710678939079041 0 -0.70710677298230451 0.17677669324557613 0 -0.1767766973476976 1 I I -0.70710678118654746 0.70710678118654746 0.25 forward I I I I #
loop $-1 $-1 $155 $41 #
coedge $-1 $97 $97 $156 $157 reversed $61 $-1 #
face $-1 $158 $159 $33 $-1 $160 reversed single #
loop $-1 $-1 $161 $63 #
plane-surface $-1 -23.417027530340917 5.8383597472791209 85.176222836551759 0.70710678939079041 0 0.70710677298230451 0.70710677298230451 0 -0.70710678939079041 forward_v I I I I #
coedge $-1 $162 $163 $164 $165 reversed $64 $-1 #
face $-1 $-1 $166 $34 $-1 $167 forward single #
loop $-1 $168 $169 $66 #
cone-surface $-1 51.948430406882522 4.3234016885258448 6.8261734427317169 -0.70710678939079041 0 -0.70710677298230451 0.17677669324557613 0 -0.1767766973476976 1 I I -0.70710678118654746 0.70710678118654746 0.25 forward I I I I #
loop $-1 $-1 $170 $43 #
coedge $-1 $106 $106 $171 $172 reversed $67 $-1 #
face $-1 $-1 $173 $35 $-1 $174 forward single #
loop $-1 $175 $176 $69 #
cone-surface $-1 51.948430406882522 7.3533178060324005 6.8261734427317169 -0.70710678939079041 0 -0.70710677298230451 0.17677669324557613 0 -0.1767766973476976 1 I I -0.70710678118654746 0.70710678118654746 0.25 forward I I I I #
loop $-1 $-1 $177 $44 #
coedge $-1 $111 $111 $178 $179 reversed $70 $-1 #
face $-1 $180 $181 $27 $-1 $182 reversed single #
loop $-1 $-1 $183 $72 #
plane-surface $-1 0 -27.271859211189117 0 0 1 0 0 0 1 forward_v I I I I #
coedge $-1 $184 $185 $186 $187 forward $73 $-1 #
coedge $-1 $188 $75 $189 $190 forward $46 $-1 #
coedge $-1 $75 $188 $191 $192 forward $46 $-1 #
coedge $-1 $193 $194 $75 $119 reversed $195 $-1 #
edge $-1 $196 -27.271859211189117 $197 27.271859211189117 $118 $198 forward 7 unknown #
face $-1 $199 $200 $28 $-1 $201 reversed single #
loop $-1 $-1 $202 $76 #
plane-surface $-1 0 0 -11.411450766709548 0 0 1 1 0 0 forward_v I I I I #
coedge $-1 $203 $204 $205 $206 reversed $77 $-1 #
coedge $-1 $207 $79 $204 $208 forward $49 $-1 #
coedge $-1 $79 $207 $209 $210 reversed $49 $-1 #
coedge $-1 $211 $205 $79 $127 forward $200 $-1 #
edge $-1 $212 6.906382873451852 $213 15.879111849642127 $126 $214 forward 7 unknown #
face $-1 $215 $216 $29 $-1 $217 reversed single #
loop $-1 $-1 $218 $80 #
plane-surface $-1 0 27.271859211189117 0 0 -1 0 0 0 -1 forward_v I I I I #
coedge $-1 $219 $220 $221 $222 forward $81 $-1 #
coedge $-1 $221 $83 $223 $224 reversed $52 $-1 #
coedge $-1 $83 $221 $225 $226 reversed $52 $-1 #
coedge $-1 $227 $228 $83 $135 forward $229 $-1 #
edge $-1 $230 -11.411450766709548 $231 11.411450766709548 $134 $232 forward 7 unknown #
face $-1 $233 $234 $30 $-1 $235 forward single #
loop $-1 $-1 $236 $84 #
plane-surface $-1 56.533709548981321 -14.619204467065089 165.1269580606089 0 1 0 0.70710678939079041 0 0.70710677298230451 forward_v I I I I #
coedge $-1 $237 $238 $239 $240 reversed $85 $-1 #
coedge $-1 $141 $87 $241 $242 reversed $55 $-1 #
coedge $-1 $87 $140 $237 $243 reversed $55 $-1 #
coedge $-1 $239 $244 $87 $143 forward $234 $-1 #
edge $-1 $245 -28.266852919225578 $246 -22.080888053291496 $142 $247 forward 7 unknown #
loop $-1 $-1 $149 $88 #
plane-surface $-1 -23.417027530340917 -11.084302329974108 85.176222836551759 0.70710678939079041 0 0.70710677298230451 0.70710677298230451 0 -0.70710678939079041 forward_v I I I I #
loop $-1 $-1 $248 $57 #
coedge $-1 $147 $147 $148 $249 reversed $89 $-1 #
coedge $-1 $148 $148 $147 $249 forward $91 $-1 #
coedge $-1 $149 $149 $92 $150 forward $144 $-1 #
edge $-1 $250 0 $250 6.2831853071796004 $149 $251 forward 7 unknown #
loop $-1 $-1 $156 $93 #
plane-surface $-1 -23.417027530340917 -11.084302329974108 85.176222836551759 0.70710678939079041 0 0.70710677298230451 0.70710677298230451 0 -0.70710678939079041 forward_v I I I I #
loop $-1 $-1 $252 $60 #
coedge $-1 $154 $154 $155 $253 reversed $94 $-1 #
coedge $-1 $155 $155 $154 $253 forward $96 $-1 #
coedge $-1 $156 $156 $97 $157 forward $151 $-1 #
edge $-1 $254 0 $254 6.2831853071796004 $156 $255 forward 7 unknown #
face $-1 $256 $257 $33 $-1 $258 reversed single #
loop $-1 $-1 $259 $98 #
plane-surface $-1 56.533709548981321 2.3034576101881408 165.1269580606089 0 1 0 0.70710678939079041 0 0.70710677298230451 forward_v I I I I #
coedge $-1 $260 $261 $262 $263 reversed $99 $-1 #
coedge $-1 $163 $101 $264 $265 reversed $64 $-1 #
coedge $-1 $101 $162 $260 $266 reversed $64 $-1 #
coedge $-1 $262 $267 $101 $165 forward $268 $-1 #
edge $-1 $269 -28.266852919225578 $270 -22.080888053291496 $164 $271 forward 7 unknown #
loop $-1 $-1 $171 $102 #
plane-surface $-1 -23.417027530340917 5.8383597472791209 85.176222836551759 0.70710678939079041 0 0.70710677298230451 0.70710677298230451 0 -0.70710678939079041 forward_v I I I I #
loop $-1 $-1 $272 $66 #
coedge $-1 $169 $169 $170 $273 reversed $103 $-1 #
coedge $-1 $170 $170 $169 $273 forward $105 $-1 #
coedge $-1 $171 $171 $106 $172 forward $166 $-1 #
edge $-1 $274 0 $274 6.2831853071796004 $171 $275 forward 7 unknown #
loop $-1 $-1 $178 $107 #
plane-surface $-1 -23.417027530340917 5.8383597472791209 85.176222836551759 0.70710678939079041 0 0.70710677298230451 0.70710677298230451 0 -0.70710678939079041 forward_v I I I I #
loop $-1 $-1 $276 $69 #
coedge $-1 $176 $176 $177 $277 reversed $108 $-1 #
coedge $-1 $177 $177 $176 $277 forward $110 $-1 #
coedge $-1 $178 $178 $111 $179 forward $173 $-1 #
edge $-1 $278 0 $278 6.2831853071796004 $178 $279 forward 7 unknown #
face $-1 $280 $281 $27 $-1 $282 reversed single #
loop $-1 $-1 $283 $112 #
plane-surface $-1 -56.533707693716238 0 0 1 0 0 0 0 -1 forward_v I I I I #
coedge $-1 $284 $191 $285 $286 forward $113 $-1 #
coedge $-1 $287 $115 $284 $288 forward $73 $-1 #
coedge $-1 $115 $287 $289 $290 forward $73 $-1 #
coedge $-1 $194 $193 $115 $187 reversed $195 $-1 #
edge $-1 $291 -27.271859211189117 $292 27.271859211189117 $186 $293 forward 7 unknown #
coedge $-1 $117 $116 $294 $295 forward $46 $-1 #
coedge $-1 $296 $297 $116 $190 reversed $281 $-1 #
edge $-1 $197 -56.533707693716238 $298 56.533707693716238 $189 $299 forward 7 unknown #
coedge $-1 $183 $300 $117 $192 reversed $113 $-1 #
edge $-1 $301 -56.533707693716238 $196 56.533707693716238 $191 $302 forward 7 unknown #
coedge $-1 $186 $118 $300 $303 forward $195 $-1 #
coedge $-1 $118 $186 $296 $304 reversed $195 $-1 #
loop $-1 $-1 $193 $280 #
vertex $-1 $119 $305 #
vertex $-1 $119 $306 #
straight-curve $-1 56.533707693716238 0 11.411450766709548 0 1 0 I I #
face $-1 $307 $308 $28 $-1 $309 reversed single #
loop $-1 $-1 $205 $120 #
plane-surface $-1 56.533707693716238 0 0 -1 0 0 0 0 1 forward_v I I I I #
coedge $-1 $310 $311 $203 $312 forward $121 $-1 #
coedge $-1 $313 $123 $202 $312 reversed $77 $-1 #
coedge $-1 $123 $313 $124 $208 reversed $77 $-1 #
coedge $-1 $126 $314 $123 $206 forward $200 $-1 #
edge $-1 $315 -7.0141225499549948 $212 -1.7805338835541109 $205 $316 forward 7 unknown #
coedge $-1 $125 $124 $317 $318 reversed $49 $-1 #
edge $-1 $212 -56.533707693716238 $319 56.533707693716238 $204 $320 forward 7 unknown #
coedge $-1 $321 $322 $125 $210 forward $308 $-1 #
edge $-1 $213 -56.533707693716238 $323 56.533707693716238 $209 $324 forward 7 unknown #
coedge $-1 $314 $126 $322 $325 forward $200 $-1 #
vertex $-1 $127 $326 #
vertex $-1 $325 $327 #
straight-curve $-1 56.533707693716238 -11.39274736154699 -6.1778621003086638 0 -1 0 I I #
face $-1 $328 $329 $29 $-1 $330 forward single #
loop $-1 $-1 $331 $128 #
plane-surface $-1 0 0 -11.411450766709548 0 0 1 1 0 0 forward_v I I I I #
coedge $-1 $332 $333 $334 $335 forward $129 $-1 #
coedge $-1 $334 $131 $331 $336 reversed $81 $-1 #
coedge $-1 $131 $334 $337 $338 reversed $81 $-1 #
coedge $-1 $133 $132 $131 $222 reversed $52 $-1 #
edge $-1 $339 -11.411450766709548 $340 11.411450766709548 $131 $341 forward 7 unknown #
coedge $-1 $342 $331 $132 $224 forward $216 $-1 #
edge $-1 $340 25.948431669923995 $230 29.039661239169494 $223 $343 forward 7 unknown #
coedge $-1 $337 $344 $133 $226 forward $329 $-1 #
edge $-1 $231 -29.039661239169494 $339 -25.948431669923995 $225 $345 forward 7 unknown #
coedge $-1 $346 $134 $344 $347 reversed $229 $-1 #
coedge $-1 $134 $346 $342 $348 reversed $229 $-1 #
loop $-1 $-1 $134 $328 #
vertex $-1 $348 $349 #
vertex $-1 $135 $350 #
straight-curve $-1 -56.533707693716238 15.546193919507612 0 0 0 1 I I #
face $-1 $-1 $351 $30 $-1 $352 reversed single #
loop $-1 $-1 $142 $136 #
plane-surface $-1 0 0 11.411450766709548 0 0 1 1 0 0 forward_v I I I I #
coedge $-1 $353 $354 $355 $356 reversed $137 $-1 #
coedge $-1 $357 $139 $141 $243 forward $85 $-1 #
coedge $-1 $139 $357 $353 $358 forward $85 $-1 #
coedge $-1 $355 $142 $139 $240 forward $234 $-1 #
edge $-1 $246 2.0072490278960737 $359 9.0770533020780348 $239 $360 forward 7 unknown #
coedge $-1 $361 $362 $140 $242 forward $351 $-1 #
edge $-1 $363 -77.337993273074929 $245 -71.1520282635949 $241 $364 forward 7 unknown #
edge $-1 $246 104.31913987616277 $363 113.06741538743252 $141 $365 forward 7 unknown #
coedge $-1 $142 $355 $361 $366 forward $234 $-1 #
vertex $-1 $242 $367 #
vertex $-1 $143 $368 #
straight-curve $-1 28.26685477449066 -7.5494001928831276 11.411450766709549 -1 0 0 I I #
coedge $-1 $248 $248 $-1 $369 reversed $146 $-1 #
edge $-1 $370 0 $370 6.2831853071796004 $147 $371 forward 7 unknown #
vertex $-1 $150 $372 #
ellipse-curve $-1 53.440725260749197 -12.599260388727384 8.3184682619695351 0.70710678939079041 0 0.70710677298230451 0.35355338649115226 0 -0.35355339469539521 1 I I #
coedge $-1 $252 $252 $-1 $373 reversed $153 $-1 #
edge $-1 $374 0 $374 6.2831853071796004 $154 $375 forward 7 unknown #
vertex $-1 $157 $376 #
ellipse-curve $-1 53.440725260749197 -9.5693442712208316 8.3184682619695351 0.70710678939079041 0 0.70710677298230451 0.35355338649115226 0 -0.35355339469539521 1 I I #
face $-1 $-1 $268 $33 $-1 $377 forward single #
loop $-1 $-1 $378 $158 #
plane-surface $-1 56.533707693716238 0 0 -1 0 0 0 0 1 forward_v I I I I #
coedge $-1 $379 $380 $381 $382 reversed $159 $-1 #
coedge $-1 $383 $161 $163 $266 forward $99 $-1 #
coedge $-1 $161 $383 $379 $384 forward $99 $-1 #
coedge $-1 $381 $164 $161 $263 forward $268 $-1 #
edge $-1 $270 -6.4540820107305414 $385 0.61572226345141967 $262 $386 forward 7 unknown #
coedge $-1 $387 $388 $162 $265 forward $257 $-1 #
edge $-1 $389 -77.337993273074929 $269 -71.1520282635949 $264 $390 forward 7 unknown #
edge $-1 $270 104.31913987616277 $389 113.06741538743252 $163 $391 forward 7 unknown #
coedge $-1 $164 $381 $387 $392 forward $268 $-1 #
loop $-1 $-1 $381 $256 #
vertex $-1 $265 $393 #
vertex $-1 $165 $394 #
straight-curve $-1 28.26685477449066 9.3732618843701019 11.411450766709549 -1 0 0 I I #
coedge $-1 $272 $272 $-1 $395 reversed $168 $-1 #
edge $-1 $396 0 $396 6.2831853071796004 $169 $397 forward 7 unknown #
vertex $-1 $172 $398 #
ellipse-curve $-1 53.440725260749197 4.3234016885258448 8.3184682619695351 0.70710678939079041 0 0.70710677298230451 0.35355338649115226 0 -0.35355339469539521 1 I I #
coedge $-1 $276 $276 $-1 $399 reversed $175 $-1 #
edge $-1 $400 0 $400 6.2831853071796004 $176 $401 forward 7 unknown #
vertex $-1 $179 $402 #
ellipse-curve $-1 53.440725260749197 7.3533178060324005 8.3184682619695351 0.70710678939079041 0 0.70710677298230451 0.35355338649115226 0 -0.35355339469539521 1 I I #
face $-1 $-1 $195 $27 $-1 $403 reversed single #
loop $-1 $-1 $296 $180 #
plane-surface $-1 0 27.271859211189117 0 0 -1 0 0 0 -1 forward_v I I I I #
coedge $-1 $404 $294 $297 $405 forward $181 $-1 #
coedge $-1 $300 $183 $184 $288 reversed $113 $-1 #
coedge $-1 $294 $404 $183 $286 reversed $181 $-1 #
edge $-1 $301 -11.411450766709548 $406 11.411450766709548 $285 $407 forward 7 unknown #
coedge $-1 $185 $184 $404 $408 forward $73 $-1 #
edge $-1 $292 -56.533707693716238 $406 56.533707693716238 $284 $409 forward 7 unknown #
coedge $-1 $297 $296 $185 $290 reversed $281 $-1 #
edge $-1 $410 -56.533707693716238 $291 56.533707693716238 $289 $411 forward 7 unknown #
vertex $-1 $187 $412 #
vertex $-1 $303 $413 #
straight-curve $-1 56.533707693716238 0 -11.411450766709548 0 -1 0 I I #
coedge $-1 $283 $285 $188 $295 reversed $181 $-1 #
edge $-1 $298 -27.271859211189117 $301 27.271859211189117 $294 $414 forward 7 unknown #
coedge $-1 $289 $189 $194 $304 forward $281 $-1 #
coedge $-1 $189 $289 $283 $405 reversed $281 $-1 #
vertex $-1 $190 $415 #
straight-curve $-1 0 27.271859211189117 11.411450766709548 -1 0 0 I I #
coedge $-1 $191 $284 $193 $303 reversed $113 $-1 #
vertex $-1 $295 $416 #
straight-curve $-1 0 -27.271859211189117 11.411450766709548 1 0 0 I I #
edge $-1 $196 -11.411450766709548 $292 11.411450766709548 $193 $417 forward 7 unknown #
edge $-1 $197 -11.411450766709548 $291 11.411450766709548 $194 $418 forward 7 unknown #
point $-1 56.533707693716238 -27.271859211189117 11.411450766709548 #
point $-1 56.533707693716238 27.271859211189117 11.411450766709548 #
face $-1 $-1 $419 $28 $-1 $420 reversed single #
loop $-1 $-1 $209 $199 #
plane-surface $-1 0 -27.271859211189117 0 0 1 0 0 0 1 forward_v I I I I #
coedge $-1 $421 $202 $314 $422 forward $121 $-1 #
coedge $-1 $202 $421 $423 $424 forward $121 $-1 #
edge $-1 $425 -56.533707693716238 $315 56.533707693716238 $202 $426 forward 7 unknown #
coedge $-1 $204 $203 $427 $428 reversed $77 $-1 #
coedge $-1 $205 $211 $310 $422 reversed $200 $-1 #
vertex $-1 $422 $429 #
straight-curve $-1 56.533707693716238 -18.299130234998842 -4.3973282167545529 0 0 1 I I #
coedge $-1 $427 $430 $207 $318 forward $419 $-1 #
edge $-1 $323 -15.879111849642127 $319 -6.906382873451852 $317 $431 forward 7 unknown #
vertex $-1 $318 $432 #
straight-curve $-1 0 -18.299130234998842 -6.1778621003086638 -1 0 0 I I #
coedge $-1 $433 $209 $430 $434 forward $308 $-1 #
coedge $-1 $209 $433 $211 $325 reversed $308 $-1 #
vertex $-1 $434 $435 #
straight-curve $-1 0 -27.271859211189117 -6.1778621003086638 -1 0 0 I I #
edge $-1 $213 6.1778621003086638 $436 11.411450766709548 $211 $437 forward 7 unknown #
point $-1 56.533707693716238 -18.299130234998842 -6.1778621003086638 #
point $-1 56.533707693716238 -27.271859211189117 -6.1778621003086638 #
face $-1 $-1 $229 $29 $-1 $438 reversed single #
loop $-1 $-1 $337 $215 #
plane-surface $-1 0 0 11.411450766709548 0 0 1 1 0 0 forward_v I I I I #
coedge $-1 $223 $439 $219 $336 forward $216 $-1 #
coedge $-1 $440 $218 $439 $441 reversed $129 $-1 #
coedge $-1 $218 $440 $442 $443 reversed $129 $-1 #
coedge $-1 $220 $219 $218 $335 reversed $81 $-1 #
edge $-1 $444 -11.411450766709548 $445 11.411450766709548 $218 $446 forward 7 unknown #
edge $-1 $445 -16.567345928514932 $340 -4.8416806368334306 $331 $447 forward 7 unknown #
coedge $-1 $442 $225 $220 $338 forward $329 $-1 #
edge $-1 $339 4.8416806368334306 $444 16.567345928514932 $337 $448 forward 7 unknown #
vertex $-1 $226 $449 #
vertex $-1 $224 $450 #
straight-curve $-1 -53.442478124470739 15.546193919507612 0 0 0 -1 I I #
coedge $-1 $439 $223 $228 $348 forward $216 $-1 #
straight-curve $-1 -27.494046454546744 15.546193919507612 -11.411450766709548 -1 0 0 I I #
coedge $-1 $225 $442 $227 $347 forward $329 $-1 #
straight-curve $-1 -27.494046454546744 15.546193919507612 11.411450766709548 1 0 0 I I #
coedge $-1 $228 $227 $440 $451 forward $229 $-1 #
edge $-1 $452 -27.271859211189117 $231 -15.546193919507612 $227 $453 forward 7 unknown #
edge $-1 $230 15.546193919507612 $454 27.271859211189117 $228 $455 forward 7 unknown #
point $-1 -56.533707693716238 15.546193919507612 -11.411450766709548 #
point $-1 -56.533707693716238 15.546193919507612 11.411450766709548 #
loop $-1 $-1 $241 $233 #
plane-surface $-1 56.533707693716238 0 0 -1 0 0 0 0 1 forward_v I I I I #
coedge $-1 $354 $236 $238 $358 reversed $137 $-1 #
coedge $-1 $236 $353 $456 $457 reversed $137 $-1 #
coedge $-1 $244 $239 $236 $356 forward $234 $-1 #
edge $-1 $359 22.080888053291496 $458 28.266852919225578 $355 $459 forward 7 unknown #
coedge $-1 $238 $237 $362 $460 reversed $85 $-1 #
edge $-1 $461 -113.06741538743252 $359 -104.31913987616277 $353 $462 forward 7 unknown #
vertex $-1 $240 $463 #
straight-curve $-1 50.347742827782163 -5.5421511649870538 11.411450766709549 0 -1 0 I I #
coedge $-1 $456 $241 $244 $366 reversed $351 $-1 #
coedge $-1 $241 $456 $357 $460 forward $351 $-1 #
vertex $-1 $242 $464 #
straight-curve $-1 56.533707693716238 -7.5494001928831276 82.56347903030445 0 0 1 I I #
straight-curve $-1 -23.417027530340917 -7.5494001928831276 85.176222836551759 0.70710677298230451 0 -0.70710678939079041 I I #
edge $-1 $458 -14.619204467065089 $245 -7.5494001928831276 $361 $465 forward 7 unknown #
point $-1 56.533707693716238 -7.5494001928831276 11.411450766709548 #
point $-1 50.347742827782156 -7.5494001928831276 11.411450766709549 #
edge $-1 $466 1 $466 0 $248 $-1 forward 7 unknown #
vertex $-1 $249 $467 #
ellipse-curve $-1 52.125207104230221 -12.599260388727384 7.0029501359772928 0.70710678939079041 0 0.70710677298230451 0.35355338649115226 0 -0.35355339469539521 1 I I #
point $-1 53.794278647240347 -12.599260388727384 7.964914867274139 #
edge $-1 $468 1 $468 0 $252 $-1 forward 7 unknown #
vertex $-1 $253 $469 #
ellipse-curve $-1 52.125207104230221 -9.5693442712208316 7.0029501359772928 0.70710678939079041 0 0.70710677298230451 0.35355338649115226 0 -0.35355339469539521 1 I I #
point $-1 53.794278647240347 -9.5693442712208316 7.964914867274139 #
plane-surface $-1 0 0 11.411450766709548 0 0 1 1 0 0 forward_v I I I I #
coedge $-1 $388 $387 $380 $470 forward $257 $-1 #
coedge $-1 $380 $259 $261 $384 reversed $159 $-1 #
coedge $-1 $259 $379 $378 $470 reversed $159 $-1 #
coedge $-1 $267 $262 $259 $382 forward $268 $-1 #
edge $-1 $385 22.080888053291496 $471 28.266852919225578 $381 $472 forward 7 unknown #
coedge $-1 $261 $260 $388 $473 reversed $99 $-1 #
edge $-1 $474 -113.06741538743252 $385 -104.31913987616277 $379 $475 forward 7 unknown #
vertex $-1 $263 $476 #
straight-curve $-1 50.347742827782163 2.9191798736395604 11.411450766709549 0 -1 0 I I #
coedge $-1 $378 $264 $267 $392 reversed $257 $-1 #
coedge $-1 $264 $378 $383 $473 forward $257 $-1 #
vertex $-1 $265 $477 #
straight-curve $-1 56.533707693716238 9.3732618843701019 82.56347903030445 0 0 1 I I #
straight-curve $-1 -23.417027530340917 9.3732618843701019 85.176222836551759 0.70710677298230451 0 -0.70710678939079041 I I #
edge $-1 $471 2.3034576101881408 $269 9.3732618843701019 $387 $478 forward 7 unknown #
point $-1 56.533707693716238 9.3732618843701019 11.411450766709548 #
point $-1 50.347742827782156 9.3732618843701019 11.411450766709549 #
edge $-1 $479 1 $479 0 $272 $-1 forward 7 unknown #
vertex $-1 $273 $480 #
ellipse-curve $-1 52.125207104230221 4.3234016885258448 7.0029501359772928 0.70710678939079041 0 0.70710677298230451 0.35355338649115226 0 -0.35355339469539521 1 I I #
point $-1 53.794278647240347 4.3234016885258448 7.964914867274139 #
edge $-1 $481 1 $481 0 $276 $-1 forward 7 unknown #
vertex $-1 $277 $482 #
ellipse-curve $-1 52.125207104230221 7.3533178060324005 7.0029501359772928 0.70710678939079041 0 0.70710677298230451 0.35355338649115226 0 -0.35355339469539521 1 I I #
point $-1 53.794278647240347 7.3533178060324005 7.964914867274139 #
plane-surface $-1 56.533707693716238 0 0 -1 0 0 0 0 1 forward_v I I I I #
coedge $-1 $285 $283 $287 $408 reversed $181 $-1 #
edge $-1 $298 -11.411450766709548 $410 11.411450766709548 $297 $483 forward 7 unknown #
vertex $-1 $408 $484 #
straight-curve $-1 -56.533707693716238 -27.271859211189117 0 0 0 -1 I I #
edge $-1 $406 -27.271859211189117 $410 27.271859211189117 $404 $485 forward 7 unknown #
straight-curve $-1 0 -27.271859211189117 -11.411450766709548 -1 0 0 I I #
vertex $-1 $290 $486 #
straight-curve $-1 0 27.271859211189117 -11.411450766709548 1 0 0 I I #
point $-1 56.533707693716238 27.271859211189117 -11.411450766709548 #
point $-1 56.533707693716238 -27.271859211189117 -11.411450766709548 #
straight-curve $-1 -56.533707693716238 0 11.411450766709548 0 -1 0 I I #
point $-1 -56.533707693716238 27.271859211189117 11.411450766709548 #
point $-1 -56.533707693716238 -27.271859211189117 11.411450766709548 #
straight-curve $-1 56.533707693716238 -27.271859211189117 0 0 0 -1 I I #
straight-curve $-1 56.533707693716238 27.271859211189117 0 0 0 -1 I I #
loop $-1 $-1 $427 $307 #
plane-surface $-1 -56.533707693716238 0 0 1 0 0 0 0 -1 forward_v I I I I #
coedge $-1 $311 $310 $433 $487 forward $121 $-1 #
edge $-1 $315 18.299130234998842 $436 27.271859211189117 $314 $488 forward 7 unknown #
coedge $-1 $430 $427 $311 $424 reversed $419 $-1 #
edge $-1 $489 -27.271859211189117 $425 -18.299130234998842 $423 $490 forward 7 unknown #
vertex $-1 $428 $491 #
straight-curve $-1 0 -18.299130234998842 -11.411450766709548 1 0 0 I I #
coedge $-1 $423 $317 $313 $428 forward $419 $-1 #
edge $-1 $319 1.7805338835541109 $425 7.0141225499549948 $427 $492 forward 7 unknown #
point $-1 56.533707693716238 -18.299130234998842 -11.411450766709548 #
coedge $-1 $317 $423 $321 $434 reversed $419 $-1 #
straight-curve $-1 -56.533707693716238 -11.39274736154699 -6.1778621003086638 0 1 0 I I #
point $-1 -56.533707693716238 -18.299130234998842 -6.1778621003086638 #
coedge $-1 $322 $321 $421 $487 reversed $308 $-1 #
edge $-1 $323 6.1778621003086638 $489 11.411450766709548 $430 $493 forward 7 unknown #
point $-1 -56.533707693716238 -27.271859211189117 -6.1778621003086638 #
vertex $-1 $325 $494 #
straight-curve $-1 56.533707693716238 -27.271859211189117 0 0 0 -1 I I #
plane-surface $-1 -56.533707693716238 0 0 1 0 0 0 0 -1 forward_v I I I I #
coedge $-1 $331 $342 $332 $441 forward $216 $-1 #
coedge $-1 $333 $332 $346 $451 reversed $129 $-1 #
edge $-1 $454 -56.533707693716238 $445 -53.442478124470739 $332 $495 forward 7 unknown #
coedge $-1 $344 $337 $333 $443 forward $329 $-1 #
edge $-1 $444 53.442478124470739 $452 56.533707693716238 $333 $496 forward 7 unknown #
vertex $-1 $443 $497 #
vertex $-1 $336 $498 #
straight-curve $-1 -53.442478124470739 27.271859211189117 0 0 0 -1 I I #
straight-curve $-1 -53.442478124470739 10.704513282674181 -11.411450766709548 0 -1 0 I I #
straight-curve $-1 -53.442478124470739 10.704513282674181 11.411450766709548 0 1 0 I I #
point $-1 -53.442478124470739 15.546193919507612 11.411450766709548 #
point $-1 -53.442478124470739 15.546193919507612 -11.411450766709548 #
edge $-1 $452 -11.411450766709548 $454 11.411450766709548 $440 $499 forward 7 unknown #
vertex $-1 $443 $500 #
straight-curve $-1 -56.533707693716238 0 11.411450766709548 0 -1 0 I I #
vertex $-1 $441 $501 #
straight-curve $-1 -56.533707693716238 0 -11.411450766709548 0 1 0 I I #
coedge $-1 $362 $361 $354 $457 forward $351 $-1 #
edge $-1 $458 71.1520282635949 $461 77.337993273074929 $456 $502 forward 7 unknown #
vertex $-1 $366 $503 #
straight-curve $-1 28.26685477449066 -14.619204467065089 11.411450766709549 1 0 0 I I #
edge $-1 $461 -9.0770533020780348 $363 -2.0072490278960737 $362 $504 forward 7 unknown #
vertex $-1 $460 $505 #
straight-curve $-1 -23.417027530340917 -14.619204467065089 85.176222836551759 -0.70710677298230451 0 0.70710678939079041 I I #
point $-1 50.347742827782156 -14.619204467065089 11.411450766709549 #
point $-1 56.533707693716238 -7.5494001928831276 5.2254857572295208 #
straight-curve $-1 56.533707693716238 0 11.411450766709548 0 1 0 I I #
vertex $-1 $369 $506 #
point $-1 52.478760490721371 -12.599260388727384 6.6493967412818975 #
vertex $-1 $373 $507 #
point $-1 52.478760490721371 -9.5693442712208316 6.6493967412818975 #
edge $-1 $471 71.1520282635949 $474 77.337993273074929 $378 $508 forward 7 unknown #
vertex $-1 $392 $509 #
straight-curve $-1 28.26685477449066 2.3034576101881408 11.411450766709549 1 0 0 I I #
edge $-1 $474 -0.61572226345141967 $389 6.4540820107305414 $388 $510 forward 7 unknown #
vertex $-1 $473 $511 #
straight-curve $-1 -23.417027530340917 2.3034576101881408 85.176222836551759 -0.70710677298230451 0 0.70710678939079041 I I #
point $-1 50.347742827782156 2.3034576101881408 11.411450766709549 #
point $-1 56.533707693716238 9.3732618843701019 5.2254857572295208 #
straight-curve $-1 56.533707693716238 0 11.411450766709548 0 1 0 I I #
vertex $-1 $395 $512 #
point $-1 52.478760490721371 4.3234016885258448 6.6493967412818975 #
vertex $-1 $399 $513 #
point $-1 52.478760490721371 7.3533178060324005 6.6493967412818975 #
straight-curve $-1 -56.533707693716238 27.271859211189117 0 0 0 -1 I I #
point $-1 -56.533707693716238 -27.271859211189117 -11.411450766709548 #
straight-curve $-1 -56.533707693716238 0 -11.411450766709548 0 1 0 I I #
point $-1 -56.533707693716238 27.271859211189117 -11.411450766709548 #
edge $-1 $436 -56.533707693716238 $489 56.533707693716238 $433 $514 forward 7 unknown #
straight-curve $-1 56.533707693716238 0 -11.411450766709548 0 -1 0 I I #
vertex $-1 $424 $515 #
straight-curve $-1 -56.533707693716238 0 -11.411450766709548 0 1 0 I I #
point $-1 -56.533707693716238 -18.299130234998842 -11.411450766709548 #
straight-curve $-1 -56.533707693716238 -18.299130234998842 -4.3973282167545529 0 0 -1 I I #
straight-curve $-1 -56.533707693716238 -27.271859211189117 0 0 0 -1 I I #
point $-1 56.533707693716238 -27.271859211189117 -11.411450766709548 #
straight-curve $-1 0 27.271859211189117 -11.411450766709548 1 0 0 I I #
straight-curve $-1 0 27.271859211189117 11.411450766709548 -1 0 0 I I #
point $-1 -53.442478124470739 27.271859211189113 11.411450766709548 #
point $-1 -53.442478124470739 27.271859211189113 -11.411450766709548 #
straight-curve $-1 -56.533707693716238 27.271859211189117 0 0 0 -1 I I #
point $-1 -56.533707693716238 27.271859211189117 11.411450766709548 #
point $-1 -56.533707693716238 27.271859211189117 -11.411450766709548 #
straight-curve $-1 56.533707693716238 -14.619204467065089 82.56347903030445 0 0 -1 I I #
point $-1 56.533707693716238 -14.619204467065089 11.411450766709548 #
straight-curve $-1 56.533707693716238 -5.5421511649870538 5.2254857572295137 0 1 0 I I #
point $-1 56.533707693716238 -14.619204467065089 5.2254857572295208 #
point $-1 51.771653709534824 -12.599260388727384 6.649396749486141 #
point $-1 51.771653709534824 -9.5693442712208316 6.649396749486141 #
straight-curve $-1 56.533707693716238 2.3034576101881408 82.56347903030445 0 0 -1 I I #
point $-1 56.533707693716238 2.3034576101881408 11.411450766709548 #
straight-curve $-1 56.533707693716238 2.9191798736395604 5.2254857572295137 0 1 0 I I #
point $-1 56.533707693716238 2.3034576101881408 5.2254857572295208 #
point $-1 51.771653709534824 4.3234016885258448 6.649396749486141 #
point $-1 51.771653709534824 7.3533178060324005 6.649396749486141 #
straight-curve $-1 0 -27.271859211189117 -11.411450766709548 -1 0 0 I I #
point $-1 -56.533707693716238 -27.271859211189117 -11.411450766709548 #
End-of-ACIS-data 