500 0 7 0           
7 Unknown 11 ACIS 5.0 NT 24 Fri Mar 26 20:38:48 1999 
-1 9.9999999999999995e-007 1e-010 
body $-1 $7 $-1 $8 #
body $-1 $9 $-1 $10 #
body $-1 $11 $-1 $12 #
body $-1 $13 $-1 $14 #
body $-1 $15 $-1 $16 #
body $-1 $17 $-1 $18 #
body $-1 $19 $-1 $20 #
lump $-1 $-1 $21 $0 #
transform $-1 1 0 0 0 1 0 0 0 1 48.717307046723839 34.045022596191465 12.68986735064499 1 rotate no_reflect no_shear #
lump $-1 $-1 $22 $1 #
transform $-1 1 0 0 0 1 0 0 0 1 48.717307046723839 34.045022596191465 12.68986735064499 1 rotate no_reflect no_shear #
lump $-1 $-1 $23 $2 #
transform $-1 1 0 0 0 1 0 0 0 1 48.717307046723839 34.045022596191465 12.68986735064499 1 rotate no_reflect no_shear #
lump $-1 $-1 $24 $3 #
transform $-1 1 0 0 0 1 0 0 0 1 48.717307046723839 34.045022596191465 12.68986735064499 1 rotate no_reflect no_shear #
lump $-1 $-1 $25 $4 #
transform $-1 1 0 0 0 1 0 0 0 1 48.717307046723839 34.045022596191465 12.68986735064499 1 rotate no_reflect no_shear #
lump $-1 $-1 $26 $5 #
transform $-1 1 0 0 0 1 0 0 0 1 48.717307046723839 34.045022596191465 12.68986735064499 1 rotate no_reflect no_shear #
lump $-1 $-1 $27 $6 #
transform $-1 1 0 0 0 1 0 0 0 1 48.717307046723839 34.045022596191465 12.68986735064499 1 rotate no_reflect no_shear #
shell $-1 $-1 $-1 $28 $-1 $7 #
shell $-1 $-1 $-1 $29 $-1 $9 #
shell $-1 $-1 $-1 $30 $-1 $11 #
shell $-1 $-1 $-1 $31 $-1 $13 #
shell $-1 $-1 $-1 $32 $-1 $15 #
shell $-1 $-1 $-1 $33 $-1 $17 #
shell $-1 $-1 $-1 $34 $-1 $19 #
face $-1 $35 $36 $21 $-1 $37 forward single #
face $-1 $38 $39 $22 $-1 $40 forward single #
face $-1 $41 $42 $23 $-1 $43 reversed single #
face $-1 $44 $45 $24 $-1 $46 forward single #
face $-1 $47 $48 $25 $-1 $49 forward single #
face $-1 $50 $51 $26 $-1 $52 reversed single #
face $-1 $53 $54 $27 $-1 $55 forward single #
face $-1 $56 $57 $21 $-1 $58 reversed single #
loop $-1 $-1 $59 $28 #
plane-surface $-1 0 0 12.68986735064499 0 0 1 1 0 0 forward_v I I I I #
face $-1 $60 $61 $22 $-1 $62 reversed single #
loop $-1 $-1 $63 $29 #
plane-surface $-1 0 -27.372403216916787 -6.9249566963821296 0 0 1 1 0 0 forward_v I I I I #
face $-1 $64 $65 $23 $-1 $66 reversed single #
loop $-1 $-1 $67 $30 #
plane-surface $-1 -121.12533713953152 -20.699783837642109 73.747529954937662 0 1 0 -0.74314483375859142 0 0.66913059716165679 forward_v I I I I #
face $-1 $68 $69 $24 $-1 $70 forward single #
loop $-1 $71 $72 $31 #
cone-surface $-1 -45.452115185540457 -17.252537110471724 9.3581929641975972 0.74314483375859142 0 -0.66913059716165679 0.66913059716165679 0 0.74314483375859142 1 I I 0 1 1 forward I I I I #
face $-1 $73 $74 $25 $-1 $75 forward single #
loop $-1 $76 $77 $32 #
cone-surface $-1 -45.452115185540457 -12.081667019716154 9.3581929641975972 0.74314483375859142 0 -0.66913059716165679 0.66913059716165679 0 0.74314483375859142 1 I I 0 1 1 forward I I I I #
face $-1 $78 $79 $26 $-1 $80 reversed single #
loop $-1 $-1 $81 $33 #
plane-surface $-1 58.329287172770798 6.2805448682524005 139.76845338351109 0 -1 0 -0.75470958851134928 0 -0.65605901945558964 forward_v I I I I #
face $-1 $82 $83 $27 $-1 $84 forward single #
loop $-1 $85 $86 $34 #
cone-surface $-1 41.630963957304012 0.65885851712682353 5.2617845662344465 -0.75470958851134928 0 -0.65605901945558964 1.6401475486389741 0 -1.8867739712783731 1 I I 0 1 2.5 forward I I I I #
face $-1 $87 $88 $21 $-1 $89 reversed single #
loop $-1 $-1 $90 $35 #
plane-surface $-1 0 0 -12.68986735064499 0 0 1 1 0 0 forward_v I I I I #
coedge $-1 $91 $92 $93 $94 forward $36 $-1 #
face $-1 $95 $96 $22 $-1 $97 reversed single #
loop $-1 $-1 $98 $38 #
plane-surface $-1 0 -20.699783837642109 -9.8074120235135602 0 -1 0 0 0 -1 forward_v I I I I #
coedge $-1 $99 $100 $101 $102 reversed $39 $-1 #
face $-1 $103 $104 $23 $-1 $105 reversed single #
loop $-1 $-1 $106 $41 #
plane-surface $-1 -48.717307046723832 -14.667102065093943 8.5510484423734283 -0.74314483375859142 0 0.66913059716165679 0.66913059716165679 0 0.74314483375859142 forward_v I I I I #
coedge $-1 $107 $108 $109 $110 reversed $42 $-1 #
face $-1 $-1 $111 $24 $-1 $112 forward single #
loop $-1 $113 $114 $44 #
cone-surface $-1 -43.678655502915049 -17.252537110471724 7.7613627333051465 0.74314483375859142 0 -0.66913059716165679 0.3345652985808284 0 0.37157241687929571 1 I I -0.70710678118654746 0.70710678118654746 0.5 forward I I I I #
loop $-1 $-1 $115 $31 #
coedge $-1 $72 $72 $116 $117 reversed $45 $-1 #
face $-1 $-1 $118 $25 $-1 $119 forward single #
loop $-1 $120 $121 $47 #
cone-surface $-1 -43.678655502915049 -12.081667019716154 7.7613627333051465 0.74314483375859142 0 -0.66913059716165679 0.3345652985808284 0 0.37157241687929571 1 I I -0.70710678118654746 0.70710678118654746 0.5 forward I I I I #
loop $-1 $-1 $122 $32 #
coedge $-1 $77 $77 $123 $124 reversed $48 $-1 #
face $-1 $125 $126 $26 $-1 $127 reversed single #
loop $-1 $-1 $128 $50 #
plane-surface $-1 -15.205550336457215 0.65885851712682353 75.845596000330033 0.75470958851134928 0 0.65605901945558964 0.65605901945558964 0 -0.75470958851134928 forward_v I I I I #
coedge $-1 $129 $130 $131 $132 reversed $51 $-1 #
face $-1 $-1 $133 $27 $-1 $134 forward single #
loop $-1 $135 $136 $53 #
cone-surface $-1 38.112444608112291 0.65885851712682353 2.2031824372759043 -0.75470958851134928 0 -0.65605901945558964 0.82007377431948703 0 -0.94338698563918655 1 I I -0.70710678118654746 0.70710678118654746 1.25 forward I I I I #
loop $-1 $-1 $137 $34 #
coedge $-1 $86 $86 $138 $139 reversed $54 $-1 #
face $-1 $140 $141 $21 $-1 $142 reversed single #
loop $-1 $-1 $143 $56 #
plane-surface $-1 0 -34.045022596191465 0 0 1 0 0 0 1 forward_v I I I I #
coedge $-1 $144 $145 $146 $147 forward $57 $-1 #
coedge $-1 $148 $59 $149 $150 forward $36 $-1 #
coedge $-1 $59 $148 $151 $152 forward $36 $-1 #
coedge $-1 $153 $154 $59 $94 reversed $155 $-1 #
edge $-1 $156 -34.045022596191465 $157 34.045022596191465 $93 $158 forward 7 unknown #
face $-1 $159 $160 $22 $-1 $161 reversed single #
loop $-1 $-1 $162 $60 #
plane-surface $-1 0 0 -12.68986735064499 0 0 1 1 0 0 forward_v I I I I #
coedge $-1 $163 $164 $165 $166 reversed $61 $-1 #
coedge $-1 $167 $63 $164 $168 forward $39 $-1 #
coedge $-1 $63 $167 $169 $170 reversed $39 $-1 #
coedge $-1 $171 $165 $63 $102 forward $160 $-1 #
edge $-1 $172 7.0135822291837151 $173 20.358820987733072 $101 $174 forward 7 unknown #
face $-1 $175 $176 $23 $-1 $177 forward single #
loop $-1 $-1 $178 $64 #
plane-surface $-1 -121.12533713953152 -8.6344202925457783 73.747529954937662 0 -1 0 0.74314483375859142 0 -0.66913059716165679 forward_v I I I I #
coedge $-1 $179 $180 $181 $182 reversed $65 $-1 #
coedge $-1 $108 $67 $183 $184 reversed $42 $-1 #
coedge $-1 $67 $107 $179 $185 reversed $42 $-1 #
coedge $-1 $181 $186 $67 $110 forward $176 $-1 #
edge $-1 $187 11.845361523041923 $188 15.571970713916478 $109 $189 forward 7 unknown #
loop $-1 $-1 $116 $68 #
plane-surface $-1 -48.717307046723832 -14.667102065093943 8.5510484423734283 -0.74314483375859142 0 0.66913059716165679 0.66913059716165679 0 0.74314483375859142 forward_v I I I I #
loop $-1 $-1 $190 $44 #
coedge $-1 $114 $114 $115 $191 reversed $69 $-1 #
coedge $-1 $115 $115 $114 $191 forward $71 $-1 #
coedge $-1 $116 $116 $72 $117 forward $111 $-1 #
edge $-1 $192 0 $192 6.2831853071796004 $116 $193 forward 7 unknown #
loop $-1 $-1 $123 $73 #
plane-surface $-1 -48.717307046723832 -14.667102065093943 8.5510484423734283 -0.74314483375859142 0 0.66913059716165679 0.66913059716165679 0 0.74314483375859142 forward_v I I I I #
loop $-1 $-1 $194 $47 #
coedge $-1 $121 $121 $122 $195 reversed $74 $-1 #
coedge $-1 $122 $122 $121 $195 forward $76 $-1 #
coedge $-1 $123 $123 $77 $124 forward $118 $-1 #
edge $-1 $196 0 $196 6.2831853071796004 $123 $197 forward 7 unknown #
face $-1 $198 $199 $26 $-1 $200 reversed single #
loop $-1 $-1 $201 $78 #
plane-surface $-1 58.329287172770798 -4.9628278339987535 139.76845338351109 0 1 0 0.75470958851134928 0 0.65605901945558964 forward_v I I I I #
coedge $-1 $202 $203 $204 $205 reversed $79 $-1 #
coedge $-1 $130 $81 $206 $207 reversed $51 $-1 #
coedge $-1 $81 $129 $202 $208 reversed $51 $-1 #
coedge $-1 $204 $209 $81 $132 forward $210 $-1 #
edge $-1 $211 -19.55266346033844 $212 -10.53024200860386 $131 $213 forward 7 unknown #
loop $-1 $-1 $138 $82 #
plane-surface $-1 -15.205550336457215 0.65885851712682353 75.845596000330033 0.75470958851134928 0 0.65605901945558964 0.65605901945558964 0 -0.75470958851134928 forward_v I I I I #
loop $-1 $-1 $214 $53 #
coedge $-1 $136 $136 $137 $215 reversed $83 $-1 #
coedge $-1 $137 $137 $136 $215 forward $85 $-1 #
coedge $-1 $138 $138 $86 $139 forward $133 $-1 #
edge $-1 $216 0 $216 6.2831853071796004 $138 $217 forward 7 unknown #
face $-1 $218 $219 $21 $-1 $220 reversed single #
loop $-1 $-1 $221 $87 #
plane-surface $-1 -48.717307046723839 0 0 1 0 0 0 0 -1 forward_v I I I I #
coedge $-1 $222 $151 $223 $224 forward $88 $-1 #
coedge $-1 $225 $90 $222 $226 forward $57 $-1 #
coedge $-1 $90 $225 $227 $228 forward $57 $-1 #
coedge $-1 $154 $153 $90 $147 reversed $155 $-1 #
edge $-1 $229 -34.045022596191465 $230 34.045022596191465 $146 $231 forward 7 unknown #
coedge $-1 $92 $91 $232 $233 forward $36 $-1 #
coedge $-1 $234 $235 $91 $150 reversed $219 $-1 #
edge $-1 $157 -48.717307046723839 $236 48.717307046723839 $149 $237 forward 7 unknown #
coedge $-1 $143 $238 $92 $152 reversed $88 $-1 #
edge $-1 $239 -48.717307046723839 $156 48.717307046723839 $151 $240 forward 7 unknown #
coedge $-1 $146 $93 $238 $241 forward $155 $-1 #
coedge $-1 $93 $146 $234 $242 reversed $155 $-1 #
loop $-1 $-1 $153 $218 #
vertex $-1 $94 $243 #
vertex $-1 $94 $244 #
straight-curve $-1 48.717307046723839 0 12.68986735064499 0 1 0 I I #
face $-1 $245 $246 $22 $-1 $247 reversed single #
loop $-1 $-1 $165 $95 #
plane-surface $-1 48.717307046723839 0 0 -1 0 0 0 0 1 forward_v I I I I #
coedge $-1 $248 $249 $163 $250 forward $96 $-1 #
coedge $-1 $251 $98 $162 $250 reversed $61 $-1 #
coedge $-1 $98 $251 $99 $168 reversed $61 $-1 #
coedge $-1 $101 $252 $98 $166 forward $160 $-1 #
edge $-1 $253 -7.7861613388882116 $172 -2.0212506846253495 $165 $254 forward 7 unknown #
coedge $-1 $100 $99 $255 $256 reversed $39 $-1 #
edge $-1 $172 -48.717307046723839 $257 48.717307046723839 $164 $258 forward 7 unknown #
coedge $-1 $259 $260 $100 $170 forward $246 $-1 #
edge $-1 $173 -48.717307046723839 $261 48.717307046723839 $169 $262 forward 7 unknown #
coedge $-1 $252 $101 $260 $263 forward $160 $-1 #
vertex $-1 $102 $264 #
vertex $-1 $263 $265 #
straight-curve $-1 48.717307046723839 -13.686201608458394 -6.9249566963821296 0 -1 0 I I #
face $-1 $-1 $266 $23 $-1 $267 reversed single #
loop $-1 $-1 $109 $103 #
plane-surface $-1 0 0 12.68986735064499 0 0 1 1 0 0 forward_v I I I I #
coedge $-1 $268 $269 $270 $271 reversed $104 $-1 #
coedge $-1 $272 $106 $108 $185 forward $65 $-1 #
coedge $-1 $106 $272 $268 $273 forward $65 $-1 #
coedge $-1 $270 $109 $106 $182 forward $176 $-1 #
edge $-1 $188 -13.366232805095137 $274 -1.300869259998807 $181 $275 forward 7 unknown #
coedge $-1 $276 $277 $107 $184 forward $266 $-1 #
edge $-1 $278 -28.32271653509541 $187 -24.183897626823843 $183 $279 forward 7 unknown #
edge $-1 $188 -5.5693301228223895 $278 1.0034820483328475e-014 $108 $280 forward 7 unknown #
coedge $-1 $109 $270 $276 $281 forward $176 $-1 #
vertex $-1 $184 $282 #
vertex $-1 $110 $283 #
straight-curve $-1 -60.562668569765762 -20.699783837642109 12.689867350644988 1 0 0 I I #
coedge $-1 $190 $190 $-1 $284 reversed $113 $-1 #
edge $-1 $285 0 $285 6.2831853071796004 $114 $286 forward 7 unknown #
vertex $-1 $117 $287 #
ellipse-curve $-1 -46.854002451286561 -17.252537110471724 10.620457896509206 -0.74314483375859142 0 0.66913059716165679 0.66913059716165679 0 0.74314483375859142 1 I I #
coedge $-1 $194 $194 $-1 $288 reversed $120 $-1 #
edge $-1 $289 0 $289 6.2831853071796004 $121 $290 forward 7 unknown #
vertex $-1 $124 $291 #
ellipse-curve $-1 -46.854002451286561 -12.081667019716154 10.620457896509206 -0.74314483375859142 0 0.66913059716165679 0.66913059716165679 0 0.74314483375859142 1 I I #
face $-1 $-1 $210 $26 $-1 $292 forward single #
loop $-1 $-1 $293 $125 #
plane-surface $-1 48.717307046723839 0 0 -1 0 0 0 0 1 forward_v I I I I #
coedge $-1 $294 $295 $296 $297 reversed $126 $-1 #
coedge $-1 $298 $128 $130 $208 forward $79 $-1 #
coedge $-1 $128 $298 $294 $299 forward $79 $-1 #
coedge $-1 $296 $131 $128 $205 forward $210 $-1 #
edge $-1 $212 -5.9511156096889888 $300 5.2922570925621653 $204 $301 forward 7 unknown #
coedge $-1 $302 $303 $129 $207 forward $199 $-1 #
edge $-1 $304 -67.573468200653508 $211 -57.194359341110555 $206 $305 forward 7 unknown #
edge $-1 $212 83.682160146207465 $304 97.434614093447678 $130 $306 forward 7 unknown #
coedge $-1 $131 $296 $302 $307 forward $210 $-1 #
loop $-1 $-1 $296 $198 #
vertex $-1 $207 $308 #
vertex $-1 $132 $309 #
straight-curve $-1 29.164643586385399 6.2805448682524005 12.689867350644988 -1 0 0 I I #
coedge $-1 $214 $214 $-1 $310 reversed $135 $-1 #
edge $-1 $311 0 $311 6.2831853071796004 $136 $312 forward 7 unknown #
vertex $-1 $139 $313 #
ellipse-curve $-1 44.206096320856552 0.65885851712682353 7.5003129208735064 0.75470958851134928 0 0.65605901945558964 1.6401475486389741 0 -1.8867739712783731 1 I I #
face $-1 $-1 $155 $21 $-1 $314 reversed single #
loop $-1 $-1 $234 $140 #
plane-surface $-1 0 34.045022596191465 0 0 -1 0 0 0 -1 forward_v I I I I #
coedge $-1 $315 $232 $235 $316 forward $141 $-1 #
coedge $-1 $238 $143 $144 $226 reversed $88 $-1 #
coedge $-1 $232 $315 $143 $224 reversed $141 $-1 #
edge $-1 $239 -12.68986735064499 $317 12.68986735064499 $223 $318 forward 7 unknown #
coedge $-1 $145 $144 $315 $319 forward $57 $-1 #
edge $-1 $230 -48.717307046723839 $317 48.717307046723839 $222 $320 forward 7 unknown #
coedge $-1 $235 $234 $145 $228 reversed $219 $-1 #
edge $-1 $321 -48.717307046723839 $229 48.717307046723839 $227 $322 forward 7 unknown #
vertex $-1 $147 $323 #
vertex $-1 $241 $324 #
straight-curve $-1 48.717307046723839 0 -12.68986735064499 0 -1 0 I I #
coedge $-1 $221 $223 $148 $233 reversed $141 $-1 #
edge $-1 $236 -34.045022596191465 $239 34.045022596191465 $232 $325 forward 7 unknown #
coedge $-1 $227 $149 $154 $242 forward $219 $-1 #
coedge $-1 $149 $227 $221 $316 reversed $219 $-1 #
vertex $-1 $150 $326 #
straight-curve $-1 0 34.045022596191465 12.68986735064499 -1 0 0 I I #
coedge $-1 $151 $222 $153 $241 reversed $88 $-1 #
vertex $-1 $233 $327 #
straight-curve $-1 0 -34.045022596191465 12.68986735064499 1 0 0 I I #
edge $-1 $156 -12.68986735064499 $230 12.68986735064499 $153 $328 forward 7 unknown #
edge $-1 $157 -12.68986735064499 $229 12.68986735064499 $154 $329 forward 7 unknown #
point $-1 48.717307046723839 -34.045022596191465 12.68986735064499 #
point $-1 48.717307046723839 34.045022596191465 12.68986735064499 #
face $-1 $-1 $330 $22 $-1 $331 reversed single #
loop $-1 $-1 $169 $159 #
plane-surface $-1 0 -34.045022596191465 0 0 1 0 0 0 1 forward_v I I I I #
coedge $-1 $332 $162 $252 $333 forward $96 $-1 #
coedge $-1 $162 $332 $334 $335 forward $96 $-1 #
edge $-1 $336 -48.717307046723839 $253 48.717307046723839 $162 $337 forward 7 unknown #
coedge $-1 $164 $163 $338 $339 reversed $61 $-1 #
coedge $-1 $165 $171 $248 $333 reversed $160 $-1 #
vertex $-1 $333 $340 #
straight-curve $-1 48.717307046723839 -20.699783837642109 -4.9037060117567801 0 0 1 I I #
coedge $-1 $338 $341 $167 $256 forward $330 $-1 #
edge $-1 $261 -20.358820987733072 $257 -7.0135822291837151 $255 $342 forward 7 unknown #
vertex $-1 $256 $343 #
straight-curve $-1 0 -20.699783837642109 -6.9249566963821296 -1 0 0 I I #
coedge $-1 $344 $169 $341 $345 forward $246 $-1 #
coedge $-1 $169 $344 $171 $263 reversed $246 $-1 #
vertex $-1 $345 $346 #
straight-curve $-1 0 -34.045022596191465 -6.9249566963821296 -1 0 0 I I #
edge $-1 $173 6.9249566963821296 $347 12.68986735064499 $171 $348 forward 7 unknown #
point $-1 48.717307046723839 -20.699783837642109 -6.9249566963821296 #
point $-1 48.717307046723839 -34.045022596191465 -6.9249566963821296 #
loop $-1 $-1 $183 $175 #
plane-surface $-1 -48.717307046723839 0 0 1 0 0 0 0 -1 forward_v I I I I #
coedge $-1 $269 $178 $180 $273 reversed $104 $-1 #
coedge $-1 $178 $268 $349 $350 reversed $104 $-1 #
coedge $-1 $186 $181 $178 $271 forward $176 $-1 #
edge $-1 $274 -15.571970713916478 $351 -11.845361523041923 $270 $352 forward 7 unknown #
coedge $-1 $180 $179 $277 $353 reversed $65 $-1 #
edge $-1 $354 -1.0034820483328475e-014 $274 5.5693301228223895 $268 $355 forward 7 unknown #
vertex $-1 $182 $356 #
straight-curve $-1 -44.990697855849284 -7.3335510325469713 12.68986735064499 0 1 0 I I #
coedge $-1 $349 $183 $186 $281 reversed $266 $-1 #
coedge $-1 $183 $349 $272 $353 forward $266 $-1 #
vertex $-1 $184 $357 #
straight-curve $-1 -48.717307046723839 -20.699783837642109 36.873764977468831 0 0 1 I I #
straight-curve $-1 -48.717307046723832 -20.699783837642109 8.5510484423734283 -0.66913059716165679 0 -0.74314483375859142 I I #
edge $-1 $351 8.6344202925457783 $187 20.699783837642109 $276 $358 forward 7 unknown #
point $-1 -48.717307046723839 -20.699783837642109 12.68986735064499 #
point $-1 -44.990697855849284 -20.699783837642109 12.68986735064499 #
edge $-1 $359 1 $359 0 $190 $-1 forward 7 unknown #
vertex $-1 $191 $360 #
ellipse-curve $-1 -44.050227919794345 -17.252537110471724 8.0959280318859754 -0.74314483375859142 0 0.66913059716165679 0.66913059716165679 0 0.74314483375859142 1 I I #
point $-1 -46.184871854124914 -17.252537110471724 11.363602730267809 #
edge $-1 $361 1 $361 0 $194 $-1 forward 7 unknown #
vertex $-1 $195 $362 #
ellipse-curve $-1 -44.050227919794345 -12.081667019716154 8.0959280318859754 -0.74314483375859142 0 0.66913059716165679 0.66913059716165679 0 0.74314483375859142 1 I I #
point $-1 -46.184871854124914 -12.081667019716154 11.363602730267809 #
plane-surface $-1 0 0 12.68986735064499 0 0 1 1 0 0 forward_v I I I I #
coedge $-1 $303 $302 $295 $363 forward $199 $-1 #
coedge $-1 $295 $201 $203 $299 reversed $126 $-1 #
coedge $-1 $201 $294 $293 $363 reversed $126 $-1 #
coedge $-1 $209 $204 $201 $297 forward $210 $-1 #
edge $-1 $300 10.53024200860386 $364 19.55266346033844 $296 $365 forward 7 unknown #
coedge $-1 $203 $202 $303 $366 reversed $79 $-1 #
edge $-1 $367 -97.434614093447678 $300 -83.682160146207465 $294 $368 forward 7 unknown #
vertex $-1 $205 $369 #
straight-curve $-1 39.694885594989266 0.32942925856341176 12.689867350644988 0 -1 0 I I #
coedge $-1 $293 $206 $209 $307 reversed $199 $-1 #
coedge $-1 $206 $293 $298 $366 forward $199 $-1 #
vertex $-1 $207 $370 #
straight-curve $-1 48.717307046723839 6.2805448682524005 69.884226691755543 0 0 1 I I #
straight-curve $-1 -15.205550336457215 6.2805448682524005 75.845596000330033 0.65605901945558964 0 -0.75470958851134928 I I #
edge $-1 $364 -4.9628278339987535 $211 6.2805448682524005 $302 $371 forward 7 unknown #
point $-1 48.717307046723839 6.2805448682524005 12.68986735064499 #
point $-1 39.694885594989259 6.2805448682524005 12.689867350644988 #
edge $-1 $372 1 $372 0 $214 $-1 forward 7 unknown #
vertex $-1 $215 $373 #
ellipse-curve $-1 39.055831593751478 0.65885851712682353 3.0232562115953914 0.75470958851134928 0 0.65605901945558964 1.6401475486389741 0 -1.8867739712783731 1 I I #
point $-1 45.846243869495517 0.65885851712682353 5.6135389495951271 #
plane-surface $-1 48.717307046723839 0 0 -1 0 0 0 0 1 forward_v I I I I #
coedge $-1 $223 $221 $225 $319 reversed $141 $-1 #
edge $-1 $236 -12.68986735064499 $321 12.68986735064499 $235 $374 forward 7 unknown #
vertex $-1 $319 $375 #
straight-curve $-1 -48.717307046723839 -34.045022596191465 0 0 0 -1 I I #
edge $-1 $317 -34.045022596191465 $321 34.045022596191465 $315 $376 forward 7 unknown #
straight-curve $-1 0 -34.045022596191465 -12.68986735064499 -1 0 0 I I #
vertex $-1 $228 $377 #
straight-curve $-1 0 34.045022596191465 -12.68986735064499 1 0 0 I I #
point $-1 48.717307046723839 34.045022596191465 -12.68986735064499 #
point $-1 48.717307046723839 -34.045022596191465 -12.68986735064499 #
straight-curve $-1 -48.717307046723839 0 12.68986735064499 0 -1 0 I I #
point $-1 -48.717307046723839 34.045022596191465 12.68986735064499 #
point $-1 -48.717307046723839 -34.045022596191465 12.68986735064499 #
straight-curve $-1 48.717307046723839 -34.045022596191465 0 0 0 -1 I I #
straight-curve $-1 48.717307046723839 34.045022596191465 0 0 0 -1 I I #
loop $-1 $-1 $338 $245 #
plane-surface $-1 -48.717307046723839 0 0 1 0 0 0 0 -1 forward_v I I I I #
coedge $-1 $249 $248 $344 $378 forward $96 $-1 #
edge $-1 $253 20.699783837642109 $347 34.045022596191465 $252 $379 forward 7 unknown #
coedge $-1 $341 $338 $249 $335 reversed $330 $-1 #
edge $-1 $380 -34.045022596191465 $336 -20.699783837642109 $334 $381 forward 7 unknown #
vertex $-1 $339 $382 #
straight-curve $-1 0 -20.699783837642109 -12.68986735064499 1 0 0 I I #
coedge $-1 $334 $255 $251 $339 forward $330 $-1 #
edge $-1 $257 2.0212506846253495 $336 7.7861613388882116 $338 $383 forward 7 unknown #
point $-1 48.717307046723839 -20.699783837642109 -12.689867350644992 #
coedge $-1 $255 $334 $259 $345 reversed $330 $-1 #
straight-curve $-1 -48.717307046723839 -13.686201608458394 -6.9249566963821296 0 1 0 I I #
point $-1 -48.717307046723839 -20.699783837642109 -6.9249566963821296 #
coedge $-1 $260 $259 $332 $378 reversed $246 $-1 #
edge $-1 $261 6.9249566963821296 $380 12.68986735064499 $341 $384 forward 7 unknown #
point $-1 -48.717307046723839 -34.045022596191465 -6.9249566963821296 #
vertex $-1 $263 $385 #
straight-curve $-1 48.717307046723839 -34.045022596191465 0 0 0 -1 I I #
coedge $-1 $277 $276 $269 $350 forward $266 $-1 #
edge $-1 $351 24.183897626823843 $354 28.32271653509541 $349 $386 forward 7 unknown #
vertex $-1 $281 $387 #
straight-curve $-1 -60.562668569765762 -8.6344202925457783 12.689867350644988 -1 0 0 I I #
edge $-1 $354 1.300869259998807 $278 13.366232805095137 $277 $388 forward 7 unknown #
vertex $-1 $353 $389 #
straight-curve $-1 -48.717307046723832 -8.6344202925457783 8.5510484423734283 0.66913059716165679 0 0.74314483375859142 I I #
point $-1 -44.990697855849284 -8.6344202925457783 12.68986735064499 #
point $-1 -48.717307046723839 -20.699783837642109 8.5510484423734212 #
straight-curve $-1 -48.717307046723839 0 12.68986735064499 0 -1 0 I I #
vertex $-1 $284 $390 #
point $-1 -43.381097322632691 -17.252537110471724 8.8390728656445656 #
vertex $-1 $288 $391 #
point $-1 -43.381097322632691 -12.081667019716154 8.8390728656445656 #
edge $-1 $364 57.194359341110555 $367 67.573468200653508 $293 $392 forward 7 unknown #
vertex $-1 $307 $393 #
straight-curve $-1 29.164643586385399 -4.9628278339987535 12.689867350644988 1 0 0 I I #
edge $-1 $367 -5.2922570925621653 $304 5.9511156096889888 $303 $394 forward 7 unknown #
vertex $-1 $366 $395 #
straight-curve $-1 -15.205550336457215 -4.9628278339987535 75.845596000330033 -0.65605901945558964 0 0.75470958851134928 I I #
point $-1 39.694885594989259 -4.9628278339987535 12.689867350644988 #
point $-1 48.717307046723839 6.2805448682524005 2.3107584911020354 #
straight-curve $-1 48.717307046723839 0 12.68986735064499 0 1 0 I I #
vertex $-1 $310 $396 #
point $-1 40.695979142390449 0.65885851712682353 1.1364822403170183 #
straight-curve $-1 -48.717307046723839 34.045022596191465 0 0 0 -1 I I #
point $-1 -48.717307046723839 -34.045022596191465 -12.68986735064499 #
straight-curve $-1 -48.717307046723839 0 -12.68986735064499 0 1 0 I I #
point $-1 -48.717307046723839 34.045022596191465 -12.68986735064499 #
edge $-1 $347 -48.717307046723839 $380 48.717307046723839 $344 $397 forward 7 unknown #
straight-curve $-1 48.717307046723839 0 -12.68986735064499 0 -1 0 I I #
vertex $-1 $335 $398 #
straight-curve $-1 -48.717307046723839 0 -12.68986735064499 0 1 0 I I #
point $-1 -48.717307046723839 -20.699783837642109 -12.689867350644992 #
straight-curve $-1 -48.717307046723839 -20.699783837642109 -4.9037060117567801 0 0 -1 I I #
straight-curve $-1 -48.717307046723839 -34.045022596191465 0 0 0 -1 I I #
point $-1 48.717307046723839 -34.045022596191465 -12.68986735064499 #
straight-curve $-1 -48.717307046723839 -8.6344202925457783 36.873764977468831 0 0 -1 I I #
point $-1 -48.717307046723839 -8.6344202925457783 12.68986735064499 #
straight-curve $-1 -48.717307046723839 -7.3335510325469713 8.5510484423734141 0 -1 0 I I #
point $-1 -48.717307046723839 -8.6344202925457783 8.5510484423734212 #
point $-1 -43.307083086035753 -17.252537110471724 7.4267974347243184 #
point $-1 -43.307083086035753 -12.081667019716154 7.4267974347243184 #
straight-curve $-1 48.717307046723839 -4.9628278339987535 69.884226691755543 0 0 -1 I I #
point $-1 48.717307046723839 -4.9628278339987535 12.68986735064499 #
straight-curve $-1 48.717307046723832 0.32942925856341176 2.3107584911020282 0 1 0 I I #
point $-1 48.717307046723839 -4.9628278339987535 2.3107584911020354 #
point $-1 37.169057622473105 0.65885851712682353 1.3831086629564173 #
straight-curve $-1 0 -34.045022596191465 -12.68986735064499 -1 0 0 I I #
point $-1 -48.717307046723839 -34.045022596191465 -12.68986735064499 #
End-of-ACIS-data 