500 0 4 0           
7 Unknown 11 ACIS 5.0 NT 24 Fri Mar 26 19:33:21 1999 
-1 9.9999999999999995e-007 1e-010 
body $-1 $4 $-1 $5 #
body $-1 $6 $-1 $7 #
body $-1 $8 $-1 $9 #
body $-1 $10 $-1 $11 #
lump $-1 $-1 $12 $0 #
transform $-1 1 0 0 0 1 0 0 0 1 79.691152684102917 36.498581978091913 11.205767527018113 1 rotate no_reflect no_shear #
lump $-1 $-1 $13 $1 #
transform $-1 1 0 0 0 1 0 0 0 1 79.691152684102917 36.498581978091913 11.205767527018113 1 rotate no_reflect no_shear #
lump $-1 $-1 $14 $2 #
transform $-1 1 0 0 0 1 0 0 0 1 79.691152684102917 36.498581978091913 11.205767527018113 1 rotate no_reflect no_shear #
lump $-1 $-1 $15 $3 #
transform $-1 1 0 0 0 1 0 0 0 1 79.691152684102917 36.498581978091913 11.205767527018113 1 rotate no_reflect no_shear #
shell $-1 $-1 $-1 $16 $-1 $4 #
shell $-1 $-1 $-1 $17 $-1 $6 #
shell $-1 $-1 $-1 $18 $-1 $8 #
shell $-1 $-1 $-1 $19 $-1 $10 #
face $-1 $20 $21 $12 $-1 $22 forward single #
face $-1 $23 $24 $13 $-1 $25 reversed single #
face $-1 $26 $27 $14 $-1 $28 reversed single #
face $-1 $29 $30 $15 $-1 $31 forward single #
face $-1 $32 $33 $12 $-1 $34 reversed single #
loop $-1 $-1 $35 $16 #
plane-surface $-1 0 0 11.205767527018113 0 0 1 1 0 0 forward_v I I I I #
face $-1 $36 $37 $13 $-1 $38 reversed single #
loop $-1 $-1 $39 $17 #
plane-surface $-1 -60.279617630066696 -29.450141550214589 0 1 0 0 0 0 -1 forward_v I I I I #
face $-1 $40 $41 $14 $-1 $42 reversed single #
loop $-1 $-1 $43 $18 #
plane-surface $-1 -35.062417337197928 80.07166725992596 172.22330461337344 1 0 0 0 -0.62932039886446345 -0.77714595512881146 forward_v I I I I #
face $-1 $44 $45 $15 $-1 $46 forward single #
loop $-1 $47 $48 $19 #
cone-surface $-1 -15.22000859047742 30.303349439568944 5.8610649947917768 0 -0.62932039886446345 -0.77714595512881146 1.5 0 0 1 I I 0 1 1.5 forward I I I I #
face $-1 $49 $50 $12 $-1 $51 reversed single #
loop $-1 $-1 $52 $20 #
plane-surface $-1 0 0 -11.205767527018113 0 0 1 1 0 0 forward_v I I I I #
coedge $-1 $53 $54 $55 $56 forward $21 $-1 #
face $-1 $57 $58 $13 $-1 $59 reversed single #
loop $-1 $-1 $60 $23 #
plane-surface $-1 -58.779617630066696 -22.401701122337265 0 0 -1 0 0 0 -1 forward_v I I I I #
coedge $-1 $61 $62 $63 $64 forward $24 $-1 #
face $-1 $65 $66 $14 $-1 $67 reversed single #
loop $-1 $-1 $68 $26 #
plane-surface $-1 -15.220008590477434 -20.230868726331053 48.359990677367222 0 0.62932039886446345 0.77714595512881146 1 0 0 forward_v I I I I #
coedge $-1 $69 $70 $71 $72 reversed $27 $-1 #
face $-1 $-1 $73 $15 $-1 $74 forward single #
loop $-1 $75 $76 $29 #
cone-surface $-1 -15.22000859047742 29.060030164963713 4.3256935894843789 0 -0.62932039886446345 -0.77714595512881146 0.75 0 0 1 I I -0.70710678118654757 0.70710678118654757 0.75 forward I I I I #
loop $-1 $-1 $77 $19 #
coedge $-1 $48 $48 $78 $79 reversed $30 $-1 #
face $-1 $80 $81 $12 $-1 $82 reversed single #
loop $-1 $-1 $83 $32 #
plane-surface $-1 0 -36.498581978091913 0 0 1 0 0 0 1 forward_v I I I I #
coedge $-1 $84 $85 $86 $87 forward $33 $-1 #
coedge $-1 $88 $35 $89 $90 forward $21 $-1 #
coedge $-1 $35 $88 $91 $92 forward $21 $-1 #
coedge $-1 $93 $94 $35 $56 reversed $95 $-1 #
edge $-1 $96 -36.498581978091913 $97 36.498581978091913 $55 $98 forward 7 unknown #
face $-1 $99 $100 $13 $-1 $101 forward single #
loop $-1 $-1 $102 $36 #
plane-surface $-1 -57.279617630066696 -29.450141550214589 0 -1 0 0 0 0 1 forward_v I I I I #
coedge $-1 $103 $104 $105 $106 forward $37 $-1 #
coedge $-1 $107 $39 $108 $109 reversed $24 $-1 #
coedge $-1 $39 $107 $110 $111 reversed $24 $-1 #
coedge $-1 $104 $103 $39 $64 reversed $37 $-1 #
edge $-1 $112 -11.205767527018113 $113 11.205767527018113 $63 $114 forward 7 unknown #
face $-1 $115 $116 $14 $-1 $117 reversed single #
loop $-1 $-1 $118 $40 #
plane-surface $-1 4.6224001562430566 80.07166725992596 172.22330461337344 -1 0 0 0 0.62932039886446345 0.77714595512881146 forward_v I I I I #
coedge $-1 $119 $120 $121 $122 reversed $41 $-1 #
coedge $-1 $70 $43 $123 $124 reversed $27 $-1 #
coedge $-1 $43 $69 $119 $125 reversed $27 $-1 #
coedge $-1 $121 $126 $43 $72 forward $127 $-1 #
edge $-1 $128 3.5372516518710668 $129 14.385058778003327 $71 $130 forward 7 unknown #
loop $-1 $-1 $78 $44 #
plane-surface $-1 -15.220008590477434 -20.230868726331053 48.359990677367222 0 0.62932039886446345 0.77714595512881146 1 0 0 forward_v I I I I #
loop $-1 $-1 $131 $29 #
coedge $-1 $76 $76 $77 $132 reversed $45 $-1 #
coedge $-1 $77 $77 $76 $132 forward $47 $-1 #
coedge $-1 $78 $78 $48 $79 forward $73 $-1 #
edge $-1 $133 1.4751972135333216e-016 $133 6.2831853071796004 $78 $134 forward 7 unknown #
face $-1 $135 $136 $12 $-1 $137 reversed single #
loop $-1 $-1 $138 $49 #
plane-surface $-1 -79.691152684102917 0 0 1 0 0 0 0 -1 forward_v I I I I #
coedge $-1 $139 $91 $140 $141 forward $50 $-1 #
coedge $-1 $142 $52 $139 $143 forward $33 $-1 #
coedge $-1 $52 $142 $144 $145 forward $33 $-1 #
coedge $-1 $94 $93 $52 $87 reversed $95 $-1 #
edge $-1 $146 -36.498581978091913 $147 36.498581978091913 $86 $148 forward 7 unknown #
coedge $-1 $54 $53 $149 $150 forward $21 $-1 #
coedge $-1 $151 $152 $53 $90 reversed $136 $-1 #
edge $-1 $97 -79.691152684102917 $153 79.691152684102917 $89 $154 forward 7 unknown #
coedge $-1 $83 $155 $54 $92 reversed $50 $-1 #
edge $-1 $156 -79.691152684102917 $96 79.691152684102917 $91 $157 forward 7 unknown #
coedge $-1 $86 $55 $155 $158 forward $95 $-1 #
coedge $-1 $55 $86 $151 $159 reversed $95 $-1 #
loop $-1 $-1 $93 $135 #
vertex $-1 $56 $160 #
vertex $-1 $56 $161 #
straight-curve $-1 79.691152684102917 0 11.205767527018113 0 1 0 I I #
face $-1 $162 $163 $13 $-1 $164 reversed single #
loop $-1 $-1 $165 $57 #
plane-surface $-1 0 0 11.205767527018113 0 0 1 1 0 0 forward_v I I I I #
coedge $-1 $166 $167 $168 $169 reversed $58 $-1 #
coedge $-1 $63 $60 $170 $171 reversed $37 $-1 #
coedge $-1 $60 $63 $172 $173 reversed $37 $-1 #
coedge $-1 $167 $166 $60 $106 reversed $58 $-1 #
edge $-1 $174 -11.205767527018113 $175 11.205767527018113 $105 $176 forward 7 unknown #
coedge $-1 $62 $61 $177 $178 reversed $24 $-1 #
coedge $-1 $170 $179 $61 $109 forward $163 $-1 #
edge $-1 $180 -21.773511202984619 $113 -7.6766303472299704 $108 $181 forward 7 unknown #
coedge $-1 $182 $172 $62 $111 forward $100 $-1 #
edge $-1 $112 7.6766303472299704 $183 21.773511202984619 $110 $184 forward 7 unknown #
vertex $-1 $111 $185 #
vertex $-1 $109 $186 #
straight-curve $-1 -60.279617630066696 -22.401701122337265 0 0 0 -1 I I #
face $-1 $-1 $127 $14 $-1 $187 forward single #
loop $-1 $-1 $188 $65 #
plane-surface $-1 0 36.498581978091913 0 0 -1 0 0 0 -1 forward_v I I I I #
coedge $-1 $189 $190 $191 $192 reversed $66 $-1 #
coedge $-1 $193 $68 $70 $125 forward $41 $-1 #
coedge $-1 $68 $193 $189 $194 forward $41 $-1 #
coedge $-1 $191 $71 $68 $122 forward $127 $-1 #
edge $-1 $129 -27.452413041959211 $195 12.232404451481774 $121 $196 forward 7 unknown #
coedge $-1 $197 $198 $69 $124 forward $116 $-1 #
edge $-1 $199 -83.690265966199775 $128 -74.905884779668611 $123 $200 forward 7 unknown #
edge $-1 $129 59.038644254007409 $199 72.997163956183869 $70 $201 forward 7 unknown #
coedge $-1 $71 $191 $197 $202 forward $127 $-1 #
loop $-1 $-1 $191 $115 #
vertex $-1 $124 $203 #
vertex $-1 $72 $204 #
straight-curve $-1 -35.062417337197928 40.03583362996298 11.205767527018111 0 -1 0 I I #
coedge $-1 $131 $131 $-1 $205 reversed $75 $-1 #
edge $-1 $206 0 $206 6.2831853071796004 $76 $207 forward 7 unknown #
vertex $-1 $79 $208 #
ellipse-curve $-1 -15.22000859047742 31.074678415025794 6.8135769337525227 0 0.62932039886446345 0.77714595512881146 1.5 0 0 1 I I #
face $-1 $-1 $95 $12 $-1 $209 reversed single #
loop $-1 $-1 $151 $80 #
plane-surface $-1 0 36.498581978091913 0 0 -1 0 0 0 -1 forward_v I I I I #
coedge $-1 $210 $149 $152 $211 forward $81 $-1 #
coedge $-1 $155 $83 $84 $143 reversed $50 $-1 #
coedge $-1 $149 $210 $83 $141 reversed $81 $-1 #
edge $-1 $156 -11.205767527018113 $212 11.205767527018113 $140 $213 forward 7 unknown #
coedge $-1 $85 $84 $210 $214 forward $33 $-1 #
edge $-1 $147 -79.691152684102917 $212 79.691152684102917 $139 $215 forward 7 unknown #
coedge $-1 $152 $151 $85 $145 reversed $136 $-1 #
edge $-1 $216 -79.691152684102917 $146 79.691152684102917 $144 $217 forward 7 unknown #
vertex $-1 $87 $218 #
vertex $-1 $158 $219 #
straight-curve $-1 79.691152684102917 0 -11.205767527018113 0 -1 0 I I #
coedge $-1 $138 $140 $88 $150 reversed $81 $-1 #
edge $-1 $153 -36.498581978091913 $156 36.498581978091913 $149 $220 forward 7 unknown #
coedge $-1 $144 $89 $94 $159 forward $136 $-1 #
coedge $-1 $89 $144 $138 $211 reversed $136 $-1 #
vertex $-1 $90 $221 #
straight-curve $-1 0 36.498581978091913 11.205767527018113 -1 0 0 I I #
coedge $-1 $91 $139 $93 $158 reversed $50 $-1 #
vertex $-1 $150 $222 #
straight-curve $-1 0 -36.498581978091913 11.205767527018113 1 0 0 I I #
edge $-1 $96 -11.205767527018113 $147 11.205767527018113 $93 $223 forward 7 unknown #
edge $-1 $97 -11.205767527018113 $146 11.205767527018113 $94 $224 forward 7 unknown #
point $-1 79.691152684102917 -36.498581978091913 11.205767527018113 #
point $-1 79.691152684102917 36.498581978091913 11.205767527018113 #
face $-1 $-1 $225 $13 $-1 $226 reversed single #
loop $-1 $-1 $227 $99 #
plane-surface $-1 0 0 -11.205767527018113 0 0 1 1 0 0 forward_v I I I I #
coedge $-1 $172 $182 $167 $228 forward $100 $-1 #
coedge $-1 $105 $102 $227 $229 reversed $58 $-1 #
coedge $-1 $102 $105 $165 $228 reversed $58 $-1 #
coedge $-1 $230 $231 $102 $169 forward $225 $-1 #
edge $-1 $232 -11.205767527018113 $233 11.205767527018113 $168 $234 forward 7 unknown #
coedge $-1 $227 $108 $103 $171 forward $163 $-1 #
edge $-1 $113 -30.889808815033348 $175 -27.889808815033348 $170 $235 forward 7 unknown #
coedge $-1 $110 $165 $104 $173 forward $100 $-1 #
edge $-1 $174 27.889808815033348 $112 30.889808815033348 $172 $236 forward 7 unknown #
vertex $-1 $173 $237 #
vertex $-1 $171 $238 #
straight-curve $-1 -57.279617630066696 -22.401701122337265 0 0 0 -1 I I #
coedge $-1 $231 $230 $107 $178 forward $225 $-1 #
edge $-1 $183 -11.205767527018113 $180 11.205767527018113 $177 $239 forward 7 unknown #
coedge $-1 $108 $227 $231 $240 forward $163 $-1 #
vertex $-1 $109 $241 #
straight-curve $-1 -60.279617630066696 -14.725070775107294 -11.205767527018113 0 1 0 I I #
coedge $-1 $165 $110 $230 $242 forward $100 $-1 #
vertex $-1 $242 $243 #
straight-curve $-1 -60.279617630066696 -14.725070775107294 11.205767527018113 0 -1 0 I I #
point $-1 -60.279617630066696 -22.401701122337265 11.205767527018113 #
point $-1 -60.279617630066696 -22.401701122337265 -11.205767527018113 #
plane-surface $-1 0 0 11.205767527018113 0 0 1 1 0 0 forward_v I I I I #
coedge $-1 $198 $197 $190 $244 forward $116 $-1 #
coedge $-1 $190 $118 $120 $194 reversed $66 $-1 #
coedge $-1 $118 $189 $188 $244 reversed $66 $-1 #
coedge $-1 $126 $121 $118 $192 forward $127 $-1 #
edge $-1 $195 -14.385058778003327 $245 -3.5372516518710668 $191 $246 forward 7 unknown #
coedge $-1 $120 $119 $198 $247 reversed $41 $-1 #
edge $-1 $248 -72.997163956183869 $195 -59.038644254007409 $189 $249 forward 7 unknown #
vertex $-1 $122 $250 #
straight-curve $-1 -7.610004295238717 25.650774851959664 11.205767527018111 1 0 0 I I #
coedge $-1 $188 $123 $126 $202 reversed $116 $-1 #
coedge $-1 $123 $188 $193 $247 forward $116 $-1 #
vertex $-1 $124 $251 #
straight-curve $-1 -35.062417337197928 36.498581978091913 86.111652306686722 0 0 1 I I #
straight-curve $-1 -35.062417337197928 -20.230868726331053 48.359990677367222 0 0.77714595512881146 -0.62932039886446345 I I #
edge $-1 $245 -4.6224001562430566 $128 35.062417337197928 $197 $252 forward 7 unknown #
point $-1 -35.062417337197928 36.498581978091913 11.205767527018113 #
point $-1 -35.062417337197928 25.650774851959653 11.205767527018111 #
edge $-1 $253 1 $253 0 $131 $-1 forward 7 unknown #
vertex $-1 $132 $254 #
ellipse-curve $-1 -15.22000859047742 29.532020464112062 4.9085530558309873 0 0.62932039886446345 0.77714595512881146 1.5 0 0 1 I I #
point $-1 -13.72000859047742 31.074678415025829 6.8135769337525662 #
plane-surface $-1 79.691152684102917 0 0 -1 0 0 0 0 1 forward_v I I I I #
coedge $-1 $140 $138 $142 $214 reversed $81 $-1 #
edge $-1 $153 -11.205767527018113 $216 11.205767527018113 $152 $255 forward 7 unknown #
vertex $-1 $214 $256 #
straight-curve $-1 -79.691152684102917 -36.498581978091913 0 0 0 -1 I I #
edge $-1 $212 -36.498581978091913 $216 36.498581978091913 $210 $257 forward 7 unknown #
straight-curve $-1 0 -36.498581978091913 -11.205767527018113 -1 0 0 I I #
vertex $-1 $145 $258 #
straight-curve $-1 0 36.498581978091913 -11.205767527018113 1 0 0 I I #
point $-1 79.691152684102917 36.498581978091913 -11.205767527018113 #
point $-1 79.691152684102917 -36.498581978091913 -11.205767527018113 #
straight-curve $-1 -79.691152684102917 0 11.205767527018113 0 -1 0 I I #
point $-1 -79.691152684102917 36.498581978091913 11.205767527018113 #
point $-1 -79.691152684102917 -36.498581978091913 11.205767527018113 #
straight-curve $-1 79.691152684102917 -36.498581978091913 0 0 0 -1 I I #
straight-curve $-1 79.691152684102917 36.498581978091913 0 0 0 -1 I I #
loop $-1 $-1 $168 $162 #
plane-surface $-1 0 -36.498581978091913 0 0 1 0 0 0 1 forward_v I I I I #
coedge $-1 $179 $170 $166 $229 forward $163 $-1 #
edge $-1 $233 -21.773511202984619 $174 -7.6766303472299704 $165 $259 forward 7 unknown #
edge $-1 $175 7.6766303472299704 $232 21.773511202984619 $227 $260 forward 7 unknown #
coedge $-1 $177 $168 $182 $242 reversed $225 $-1 #
coedge $-1 $168 $177 $179 $240 reversed $225 $-1 #
vertex $-1 $240 $261 #
vertex $-1 $169 $262 #
straight-curve $-1 -57.279617630066696 -36.498581978091913 0 0 0 1 I I #
straight-curve $-1 -29.389808815033348 -22.401701122337265 -11.205767527018113 1 0 0 I I #
straight-curve $-1 -29.389808815033348 -22.401701122337265 11.205767527018113 -1 0 0 I I #
point $-1 -57.279617630066696 -22.401701122337265 11.205767527018113 #
point $-1 -57.279617630066696 -22.401701122337265 -11.205767527018113 #
straight-curve $-1 -60.279617630066696 -36.498581978091913 0 0 0 -1 I I #
edge $-1 $232 57.279617630066696 $180 60.279617630066696 $231 $263 forward 7 unknown #
point $-1 -60.279617630066696 -36.498581978091913 -11.205767527018113 #
edge $-1 $183 -60.279617630066696 $233 -57.279617630066696 $230 $264 forward 7 unknown #
point $-1 -60.279617630066696 -36.498581978091913 11.205767527018113 #
edge $-1 $245 74.905884779668611 $248 83.690265966199775 $188 $265 forward 7 unknown #
vertex $-1 $202 $266 #
straight-curve $-1 4.6224001562430566 40.03583362996298 11.205767527018111 0 1 0 I I #
edge $-1 $248 -12.232404451481774 $199 27.452413041959211 $198 $267 forward 7 unknown #
vertex $-1 $247 $268 #
straight-curve $-1 4.6224001562430566 -20.230868726331053 48.359990677367222 0 -0.77714595512881146 0.62932039886446345 I I #
point $-1 4.6224001562430566 25.650774851959653 11.205767527018111 #
point $-1 -35.062417337197928 36.498581978091906 2.4213863404869542 #
straight-curve $-1 0 36.498581978091913 11.205767527018113 -1 0 0 I I #
vertex $-1 $205 $269 #
point $-1 -13.72000859047742 29.532020464112062 4.9085530558309873 #
straight-curve $-1 -79.691152684102917 36.498581978091913 0 0 0 -1 I I #
point $-1 -79.691152684102917 -36.498581978091913 -11.205767527018113 #
straight-curve $-1 -79.691152684102917 0 -11.205767527018113 0 1 0 I I #
point $-1 -79.691152684102917 36.498581978091913 -11.205767527018113 #
straight-curve $-1 -57.279617630066696 -14.725070775107294 11.205767527018113 0 1 0 I I #
straight-curve $-1 -57.279617630066696 -14.725070775107294 -11.205767527018113 0 -1 0 I I #
point $-1 -57.279617630066696 -36.498581978091913 -11.205767527018113 #
point $-1 -57.279617630066696 -36.498581978091913 11.205767527018113 #
straight-curve $-1 0 -36.498581978091913 -11.205767527018113 -1 0 0 I I #
straight-curve $-1 0 -36.498581978091913 11.205767527018113 1 0 0 I I #
straight-curve $-1 4.6224001562430566 36.498581978091913 86.111652306686722 0 0 -1 I I #
point $-1 4.6224001562430566 36.498581978091913 11.205767527018113 #
straight-curve $-1 -7.610004295238717 36.498581978091906 2.4213863404869542 -1 0 0 I I #
point $-1 4.6224001562430566 36.498581978091906 2.4213863404869542 #
point $-1 -15.22000859047742 28.588039865815364 3.7428341231377704 #
End-of-ACIS-data 