500 0 10 0           
7 Unknown 11 ACIS 5.0 NT 24 Fri Mar 26 19:40:10 1999 
-1 9.9999999999999995e-007 1e-010 
body $-1 $10 $-1 $11 #
body $-1 $12 $-1 $13 #
body $-1 $14 $-1 $15 #
body $-1 $16 $-1 $17 #
body $-1 $18 $-1 $19 #
body $-1 $20 $-1 $21 #
body $-1 $22 $-1 $23 #
body $-1 $24 $-1 $25 #
body $-1 $26 $-1 $27 #
body $-1 $28 $-1 $29 #
lump $-1 $-1 $30 $0 #
transform $-1 1 0 0 0 1 0 0 0 1 48.404797509689629 25.628823892188979 6.3151856132060624 1 rotate no_reflect no_shear #
lump $-1 $-1 $31 $1 #
transform $-1 1 0 0 0 1 0 0 0 1 48.404797509689629 25.628823892188979 6.3151856132060624 1 rotate no_reflect no_shear #
lump $-1 $-1 $32 $2 #
transform $-1 1 0 0 0 1 0 0 0 1 48.404797509689629 25.628823892188979 6.3151856132060624 1 rotate no_reflect no_shear #
lump $-1 $-1 $33 $3 #
transform $-1 1 0 0 0 1 0 0 0 1 48.404797509689629 25.628823892188979 6.3151856132060624 1 rotate no_reflect no_shear #
lump $-1 $-1 $34 $4 #
transform $-1 1 0 0 0 1 0 0 0 1 48.404797509689629 25.628823892188979 6.3151856132060624 1 rotate no_reflect no_shear #
lump $-1 $-1 $35 $5 #
transform $-1 1 0 0 0 1 0 0 0 1 48.404797509689629 25.628823892188979 6.3151856132060624 1 rotate no_reflect no_shear #
lump $-1 $-1 $36 $6 #
transform $-1 1 0 0 0 1 0 0 0 1 48.404797509689629 25.628823892188979 6.3151856132060624 1 rotate no_reflect no_shear #
lump $-1 $-1 $37 $7 #
transform $-1 1 0 0 0 1 0 0 0 1 48.404797509689629 25.628823892188979 6.3151856132060624 1 rotate no_reflect no_shear #
lump $-1 $-1 $38 $8 #
transform $-1 1 0 0 0 1 0 0 0 1 48.404797509689629 25.628823892188979 6.3151856132060624 1 rotate no_reflect no_shear #
lump $-1 $-1 $39 $9 #
transform $-1 1 0 0 0 1 0 0 0 1 48.404797509689629 25.628823892188979 6.3151856132060624 1 rotate no_reflect no_shear #
shell $-1 $-1 $-1 $40 $-1 $10 #
shell $-1 $-1 $-1 $41 $-1 $12 #
shell $-1 $-1 $-1 $42 $-1 $14 #
shell $-1 $-1 $-1 $43 $-1 $16 #
shell $-1 $-1 $-1 $44 $-1 $18 #
shell $-1 $-1 $-1 $45 $-1 $20 #
shell $-1 $-1 $-1 $46 $-1 $22 #
shell $-1 $-1 $-1 $47 $-1 $24 #
shell $-1 $-1 $-1 $48 $-1 $26 #
shell $-1 $-1 $-1 $49 $-1 $28 #
face $-1 $50 $51 $30 $-1 $52 forward single #
face $-1 $53 $54 $31 $-1 $55 reversed single #
face $-1 $56 $57 $32 $-1 $58 reversed single #
face $-1 $59 $60 $33 $-1 $61 forward single #
face $-1 $62 $63 $34 $-1 $64 reversed single #
face $-1 $65 $66 $35 $-1 $67 forward single #
face $-1 $68 $69 $36 $-1 $70 forward single #
face $-1 $71 $72 $37 $-1 $73 reversed single #
face $-1 $74 $75 $38 $-1 $76 forward single #
face $-1 $77 $78 $39 $-1 $79 forward single #
face $-1 $80 $81 $30 $-1 $82 reversed single #
loop $-1 $-1 $83 $40 #
plane-surface $-1 0 0 6.3151856132060624 0 0 1 1 0 0 forward_v I I I I #
face $-1 $84 $85 $31 $-1 $86 reversed single #
loop $-1 $-1 $87 $41 #
plane-surface $-1 -45.249047202383522 -25.128823892188979 0 0 1 0 0 0 1 forward_v I I I I #
face $-1 $88 $89 $32 $-1 $90 reversed single #
loop $-1 $-1 $91 $42 #
plane-surface $-1 40.161038939052432 -25.628823892188976 3.0742890726303713 0 -0.83867057594974714 0.54463902268945019 1 0 0 forward_v I I I I #
face $-1 $92 $93 $33 $-1 $94 forward single #
loop $-1 $95 $96 $43 #
cone-surface $-1 40.161038939052432 -23.827180398667547 4.2081283805932985 0 0.83867057594974714 -0.54463902268945019 0.5 0 0 1 I I 0 1 0.5 forward I I I I #
face $-1 $97 $98 $34 $-1 $99 reversed single #
loop $-1 $-1 $100 $44 #
plane-surface $-1 -10.857548325331212 65.063911368196074 102.67468647730581 1 0 0 0 -0.75470958851134928 -0.65605901945558964 forward_v I I I I #
face $-1 $101 $102 $35 $-1 $103 forward single #
loop $-1 $104 $105 $45 #
cone-surface $-1 -6.8537487160062653 22.542716830430155 2.919250184674731 0 -0.75470958851134928 -0.65605901945558964 1 0 0 1 I I 0 1 1 forward I I I I #
face $-1 $106 $107 $36 $-1 $108 forward single #
loop $-1 $109 $110 $46 #
cone-surface $-1 -0.84804930201883622 22.542716830430155 2.919250184674731 0 -0.75470958851134928 -0.65605901945558964 1 0 0 1 I I 0 1 1 forward I I I I #
face $-1 $111 $112 $37 $-1 $113 reversed single #
loop $-1 $-1 $114 $47 #
plane-surface $-1 41.398148193370972 -7.9992182528300191 39.161878494999122 0 0.75470958851134928 0.65605901945558964 1 0 0 forward_v I I I I #
face $-1 $115 $116 $38 $-1 $117 forward single #
loop $-1 $118 $119 $48 #
cone-surface $-1 38.395298486377257 22.542716830430155 2.919250184674731 0 -0.75470958851134928 -0.65605901945558964 1 0 0 1 I I 0 1 1 forward I I I I #
face $-1 $120 $121 $39 $-1 $122 forward single #
loop $-1 $123 $124 $49 #
cone-surface $-1 44.400997900364686 22.542716830430155 2.919250184674731 0 -0.75470958851134928 -0.65605901945558964 1 0 0 1 I I 0 1 1 forward I I I I #
face $-1 $125 $126 $30 $-1 $127 reversed single #
loop $-1 $-1 $128 $50 #
plane-surface $-1 0 0 -6.3151856132060624 0 0 1 1 0 0 forward_v I I I I #
coedge $-1 $129 $130 $131 $132 forward $51 $-1 #
face $-1 $133 $134 $31 $-1 $135 reversed single #
loop $-1 $-1 $136 $53 #
plane-surface $-1 -45.249047202383522 -22.128823892188979 0 0 -1 0 0 0 -1 forward_v I I I I #
coedge $-1 $137 $138 $139 $140 reversed $54 $-1 #
face $-1 $141 $142 $32 $-1 $143 reversed single #
loop $-1 $-1 $144 $56 #
plane-surface $-1 31.917280368415234 -106.82018270455355 55.800572290946555 1 0 0 0 0.83867057594974714 -0.54463902268945019 forward_v I I I I #
coedge $-1 $145 $146 $147 $148 reversed $57 $-1 #
face $-1 $-1 $149 $33 $-1 $150 forward single #
loop $-1 $151 $152 $59 #
cone-surface $-1 40.161038939052432 -22.868200638408837 3.5853596625960149 0 0.83867057594974714 -0.54463902268945019 0.25 0 0 1 I I -0.70710678118654746 0.70710678118654746 0.25 forward I I I I #
loop $-1 $-1 $153 $43 #
coedge $-1 $96 $96 $154 $155 reversed $60 $-1 #
face $-1 $156 $157 $34 $-1 $158 reversed single #
loop $-1 $-1 $159 $62 #
plane-surface $-1 -3.8508990090125508 -7.9992182528300191 39.161878494999122 0 0.75470958851134928 0.65605901945558964 1 0 0 forward_v I I I I #
coedge $-1 $160 $161 $162 $163 reversed $63 $-1 #
face $-1 $-1 $164 $35 $-1 $165 forward single #
loop $-1 $166 $167 $65 #
cone-surface $-1 -6.8537487160062653 21.616679159575543 2.1142579392228518 0 -0.75470958851134928 -0.65605901945558964 0.5 0 0 1 I I -0.70710678118654746 0.70710678118654746 0.5 forward I I I I #
loop $-1 $-1 $168 $45 #
coedge $-1 $105 $105 $169 $170 reversed $66 $-1 #
face $-1 $-1 $171 $36 $-1 $172 forward single #
loop $-1 $173 $174 $68 #
cone-surface $-1 -0.84804930201883622 21.616679159575543 2.1142579392228518 0 -0.75470958851134928 -0.65605901945558964 0.5 0 0 1 I I -0.70710678118654746 0.70710678118654746 0.5 forward I I I I #
loop $-1 $-1 $175 $46 #
coedge $-1 $110 $110 $176 $177 reversed $69 $-1 #
face $-1 $178 $179 $37 $-1 $180 forward single #
loop $-1 $-1 $181 $71 #
plane-surface $-1 34.391498877052314 65.063911368196074 102.67468647730581 1 0 0 0 -0.75470958851134928 -0.65605901945558964 forward_v I I I I #
coedge $-1 $182 $183 $184 $185 reversed $72 $-1 #
face $-1 $-1 $186 $38 $-1 $187 forward single #
loop $-1 $188 $189 $74 #
cone-surface $-1 38.395298486377257 21.616679159575543 2.1142579392228518 0 -0.75470958851134928 -0.65605901945558964 0.5 0 0 1 I I -0.70710678118654746 0.70710678118654746 0.5 forward I I I I #
loop $-1 $-1 $190 $48 #
coedge $-1 $119 $119 $191 $192 reversed $75 $-1 #
face $-1 $-1 $193 $39 $-1 $194 forward single #
loop $-1 $195 $196 $77 #
cone-surface $-1 44.400997900364686 21.616679159575543 2.1142579392228518 0 -0.75470958851134928 -0.65605901945558964 0.5 0 0 1 I I -0.70710678118654746 0.70710678118654746 0.5 forward I I I I #
loop $-1 $-1 $197 $49 #
coedge $-1 $124 $124 $198 $199 reversed $78 $-1 #
face $-1 $200 $201 $30 $-1 $202 reversed single #
loop $-1 $-1 $203 $80 #
plane-surface $-1 0 -25.628823892188979 0 0 1 0 0 0 1 forward_v I I I I #
coedge $-1 $204 $205 $206 $207 forward $81 $-1 #
coedge $-1 $208 $83 $209 $210 forward $51 $-1 #
coedge $-1 $83 $208 $211 $212 forward $51 $-1 #
coedge $-1 $213 $214 $83 $132 reversed $215 $-1 #
edge $-1 $216 -25.628823892188979 $217 25.628823892188979 $131 $218 forward 7 unknown #
face $-1 $219 $220 $31 $-1 $221 reversed single #
loop $-1 $-1 $222 $84 #
plane-surface $-1 -42.093296895077415 -23.628823892188979 0 -1 0 0 0 0 1 forward_v I I I I #
coedge $-1 $223 $224 $225 $226 forward $85 $-1 #
coedge $-1 $227 $87 $228 $229 reversed $54 $-1 #
coedge $-1 $87 $227 $230 $231 reversed $54 $-1 #
coedge $-1 $232 $233 $87 $140 forward $234 $-1 #
edge $-1 $235 -6.3151856132060624 $236 6.3151856132060624 $139 $237 forward 7 unknown #
face $-1 $238 $239 $32 $-1 $240 forward single #
loop $-1 $-1 $241 $88 #
plane-surface $-1 0 -25.628823892188979 0 0 1 0 0 0 1 forward_v I I I I #
coedge $-1 $242 $243 $244 $245 reversed $89 $-1 #
coedge $-1 $246 $91 $247 $248 reversed $57 $-1 #
coedge $-1 $91 $246 $242 $249 forward $57 $-1 #
coedge $-1 $244 $250 $91 $148 forward $239 $-1 #
edge $-1 $251 -28.324278040163414 $252 -11.836760898889018 $147 $253 forward 7 unknown #
loop $-1 $-1 $154 $92 #
plane-surface $-1 40.161038939052432 -25.628823892188976 3.0742890726303713 0 -0.83867057594974714 0.54463902268945019 1 0 0 forward_v I I I I #
loop $-1 $-1 $254 $59 #
coedge $-1 $152 $152 $153 $255 reversed $93 $-1 #
coedge $-1 $153 $153 $152 $255 forward $95 $-1 #
coedge $-1 $154 $154 $96 $155 forward $149 $-1 #
edge $-1 $256 -8.9033658465053147e-016 $256 6.2831853071795996 $154 $257 forward 7 unknown #
face $-1 $258 $259 $34 $-1 $260 forward single #
loop $-1 $-1 $261 $97 #
plane-surface $-1 3.1557503073061106 65.063911368196074 102.67468647730581 -1 0 0 0 0.75470958851134928 0.65605901945558964 forward_v I I I I #
coedge $-1 $262 $263 $264 $265 reversed $98 $-1 #
coedge $-1 $161 $100 $266 $267 reversed $63 $-1 #
coedge $-1 $100 $160 $262 $268 reversed $63 $-1 #
coedge $-1 $264 $269 $100 $163 forward $259 $-1 #
edge $-1 $270 6.9031317919090576 $271 11.977980162228857 $162 $272 forward 7 unknown #
loop $-1 $-1 $169 $101 #
plane-surface $-1 -3.8508990090125508 -7.9992182528300191 39.161878494999122 0 0.75470958851134928 0.65605901945558964 1 0 0 forward_v I I I I #
loop $-1 $-1 $273 $65 #
coedge $-1 $167 $167 $168 $274 reversed $102 $-1 #
coedge $-1 $168 $168 $167 $274 forward $104 $-1 #
coedge $-1 $169 $169 $105 $170 forward $164 $-1 #
edge $-1 $275 6.0904140454622302e-016 $275 6.2831853071796013 $169 $276 forward 7 unknown #
loop $-1 $-1 $176 $106 #
plane-surface $-1 -3.8508990090125508 -7.9992182528300191 39.161878494999122 0 0.75470958851134928 0.65605901945558964 1 0 0 forward_v I I I I #
loop $-1 $-1 $277 $68 #
coedge $-1 $174 $174 $175 $278 reversed $107 $-1 #
coedge $-1 $175 $175 $174 $278 forward $109 $-1 #
coedge $-1 $176 $176 $110 $177 forward $171 $-1 #
edge $-1 $279 6.0904140454622302e-016 $279 6.2831853071796013 $176 $280 forward 7 unknown #
face $-1 $281 $282 $37 $-1 $283 reversed single #
loop $-1 $-1 $284 $111 #
plane-surface $-1 0 0 6.3151856132060624 0 0 1 1 0 0 forward_v I I I I #
coedge $-1 $285 $286 $287 $288 reversed $112 $-1 #
coedge $-1 $289 $114 $290 $291 reversed $72 $-1 #
coedge $-1 $114 $289 $285 $292 forward $72 $-1 #
coedge $-1 $287 $293 $114 $185 forward $294 $-1 #
edge $-1 $295 -27.705723413004144 $296 -13.692424780366828 $184 $297 forward 7 unknown #
loop $-1 $-1 $191 $115 #
plane-surface $-1 41.398148193370972 -7.9992182528300191 39.161878494999122 0 0.75470958851134928 0.65605901945558964 1 0 0 forward_v I I I I #
loop $-1 $-1 $298 $74 #
coedge $-1 $189 $189 $190 $299 reversed $116 $-1 #
coedge $-1 $190 $190 $189 $299 forward $118 $-1 #
coedge $-1 $191 $191 $119 $192 forward $186 $-1 #
edge $-1 $300 6.0904140454622302e-016 $300 6.2831853071796013 $191 $301 forward 7 unknown #
loop $-1 $-1 $198 $120 #
plane-surface $-1 41.398148193370972 -7.9992182528300191 39.161878494999122 0 0.75470958851134928 0.65605901945558964 1 0 0 forward_v I I I I #
loop $-1 $-1 $302 $77 #
coedge $-1 $196 $196 $197 $303 reversed $121 $-1 #
coedge $-1 $197 $197 $196 $303 forward $123 $-1 #
coedge $-1 $198 $198 $124 $199 forward $193 $-1 #
edge $-1 $304 6.0904140454622302e-016 $304 6.2831853071796013 $198 $305 forward 7 unknown #
face $-1 $306 $307 $30 $-1 $308 reversed single #
loop $-1 $-1 $309 $125 #
plane-surface $-1 -48.404797509689629 0 0 1 0 0 0 0 -1 forward_v I I I I #
coedge $-1 $310 $211 $311 $312 forward $126 $-1 #
coedge $-1 $313 $128 $310 $314 forward $81 $-1 #
coedge $-1 $128 $313 $315 $316 forward $81 $-1 #
coedge $-1 $214 $213 $128 $207 reversed $215 $-1 #
edge $-1 $317 -25.628823892188979 $318 25.628823892188979 $206 $319 forward 7 unknown #
coedge $-1 $130 $129 $320 $321 forward $51 $-1 #
coedge $-1 $322 $323 $129 $210 reversed $307 $-1 #
edge $-1 $217 -48.404797509689629 $324 48.404797509689629 $209 $325 forward 7 unknown #
coedge $-1 $203 $326 $130 $212 reversed $126 $-1 #
edge $-1 $327 -48.404797509689629 $216 48.404797509689629 $211 $328 forward 7 unknown #
coedge $-1 $206 $131 $326 $329 forward $215 $-1 #
coedge $-1 $131 $206 $322 $330 reversed $215 $-1 #
loop $-1 $-1 $213 $306 #
vertex $-1 $132 $331 #
vertex $-1 $132 $332 #
straight-curve $-1 48.404797509689629 0 6.3151856132060624 0 1 0 I I #
face $-1 $333 $334 $31 $-1 $335 forward single #
loop $-1 $-1 $336 $133 #
plane-surface $-1 0 0 -6.3151856132060624 0 0 1 1 0 0 forward_v I I I I #
coedge $-1 $337 $338 $227 $339 forward $134 $-1 #
coedge $-1 $340 $136 $336 $341 reversed $85 $-1 #
coedge $-1 $136 $340 $342 $343 reversed $85 $-1 #
coedge $-1 $338 $337 $136 $226 reversed $134 $-1 #
edge $-1 $344 -6.3151856132060624 $345 6.3151856132060624 $225 $346 forward 7 unknown #
coedge $-1 $138 $137 $222 $339 reversed $54 $-1 #
coedge $-1 $347 $348 $137 $229 forward $220 $-1 #
edge $-1 $349 19.468773293885654 $235 25.780273908497868 $228 $350 forward 7 unknown #
coedge $-1 $351 $352 $138 $231 forward $334 $-1 #
edge $-1 $236 -25.780273908497868 $353 -19.468773293885654 $230 $354 forward 7 unknown #
coedge $-1 $355 $139 $352 $356 reversed $234 $-1 #
coedge $-1 $139 $355 $347 $357 reversed $234 $-1 #
loop $-1 $-1 $355 $333 #
vertex $-1 $357 $358 #
vertex $-1 $140 $359 #
straight-curve $-1 -48.404797509689629 -25.128823892188979 0 0 0 1 I I #
face $-1 $-1 $360 $32 $-1 $361 reversed single #
loop $-1 $-1 $244 $141 #
plane-surface $-1 0 0 6.3151856132060624 0 0 1 1 0 0 forward_v I I I I #
coedge $-1 $362 $363 $243 $364 forward $142 $-1 #
coedge $-1 $243 $144 $146 $249 reversed $89 $-1 #
coedge $-1 $144 $242 $241 $364 reversed $89 $-1 #
coedge $-1 $365 $147 $144 $245 forward $239 $-1 #
edge $-1 $252 -29.885930214588118 $366 -27.781267460087793 $244 $367 forward 7 unknown #
coedge $-1 $146 $145 $362 $368 reversed $57 $-1 #
coedge $-1 $369 $370 $145 $248 forward $360 $-1 #
edge $-1 $371 -5.6900709050714608 $251 -1.8257448710913553 $247 $372 forward 7 unknown #
edge $-1 $373 -6.4042811466935879e-015 $252 3.8643260339800989 $242 $374 forward 7 unknown #
coedge $-1 $147 $365 $369 $375 forward $239 $-1 #
vertex $-1 $248 $376 #
vertex $-1 $148 $377 #
straight-curve $-1 20.080519469526216 -23.524161137688655 6.3151856132060615 -1 0 0 I I #
coedge $-1 $254 $254 $-1 $378 reversed $151 $-1 #
edge $-1 $379 0 $379 6.2831853071796004 $152 $380 forward 7 unknown #
vertex $-1 $155 $381 #
ellipse-curve $-1 40.161038939052432 -24.576492514938817 4.6947373429182164 0 -0.83867057594974714 0.54463902268945019 0.5 0 0 1 I I #
face $-1 $-1 $382 $34 $-1 $383 reversed single #
loop $-1 $-1 $162 $156 #
plane-surface $-1 0 0 6.3151856132060624 0 0 1 1 0 0 forward_v I I I I #
coedge $-1 $384 $385 $386 $387 reversed $157 $-1 #
coedge $-1 $388 $159 $161 $268 forward $98 $-1 #
coedge $-1 $159 $388 $384 $389 forward $98 $-1 #
coedge $-1 $386 $162 $159 $265 forward $259 $-1 #
edge $-1 $271 -8.9320988208249368 $390 5.081199811812386 $264 $391 forward 7 unknown #
coedge $-1 $392 $393 $160 $267 forward $382 $-1 #
edge $-1 $394 -50.860103011061362 $270 -45.022157625446845 $266 $395 forward 7 unknown #
edge $-1 $271 43.522294378931328 $394 51.257647784377987 $161 $396 forward 7 unknown #
coedge $-1 $162 $386 $392 $397 forward $259 $-1 #
vertex $-1 $267 $398 #
vertex $-1 $163 $399 #
straight-curve $-1 -10.857548325331212 32.531955684098037 6.3151856132060615 0 -1 0 I I #
coedge $-1 $273 $273 $-1 $400 reversed $166 $-1 #
edge $-1 $401 0 $401 6.2831853071796004 $167 $402 forward 7 unknown #
vertex $-1 $170 $403 #
ellipse-curve $-1 -6.8537487160062653 23.09139970702908 3.3962129203988036 0 0.75470958851134928 0.65605901945558964 1 0 0 1 I I #
coedge $-1 $277 $277 $-1 $404 reversed $173 $-1 #
edge $-1 $405 0 $405 6.2831853071796004 $174 $406 forward 7 unknown #
vertex $-1 $177 $407 #
ellipse-curve $-1 -0.84804930201883622 23.09139970702908 3.3962129203988036 0 0.75470958851134928 0.65605901945558964 1 0 0 1 I I #
face $-1 $-1 $294 $37 $-1 $408 reversed single #
loop $-1 $-1 $290 $178 #
plane-surface $-1 48.404797509689629 0 0 -1 0 0 0 0 1 forward_v I I I I #
coedge $-1 $409 $410 $286 $411 forward $179 $-1 #
coedge $-1 $286 $181 $183 $292 reversed $112 $-1 #
coedge $-1 $181 $285 $284 $411 reversed $112 $-1 #
coedge $-1 $412 $184 $181 $288 forward $294 $-1 #
edge $-1 $296 -50.860103011061362 $413 -45.022157625446845 $287 $414 forward 7 unknown #
coedge $-1 $183 $182 $409 $415 reversed $72 $-1 #
coedge $-1 $416 $417 $182 $291 forward $282 $-1 #
edge $-1 $418 26.120392135103732 $295 33.855745540550402 $290 $419 forward 7 unknown #
edge $-1 $420 43.522294378931328 $296 51.257647784377987 $285 $421 forward 7 unknown #
coedge $-1 $184 $412 $416 $422 forward $294 $-1 #
loop $-1 $-1 $287 $281 #
vertex $-1 $185 $423 #
vertex $-1 $185 $424 #
straight-curve $-1 20.699074096685486 25.628823892188976 0.47724022759154394 -1 0 0 I I #
coedge $-1 $298 $298 $-1 $425 reversed $188 $-1 #
edge $-1 $426 0 $426 6.2831853071796004 $189 $427 forward 7 unknown #
vertex $-1 $192 $428 #
ellipse-curve $-1 38.395298486377257 23.09139970702908 3.3962129203988036 0 0.75470958851134928 0.65605901945558964 1 0 0 1 I I #
coedge $-1 $302 $302 $-1 $429 reversed $195 $-1 #
edge $-1 $430 0 $430 6.2831853071796004 $196 $431 forward 7 unknown #
vertex $-1 $199 $432 #
ellipse-curve $-1 44.400997900364686 23.09139970702908 3.3962129203988036 0 0.75470958851134928 0.65605901945558964 1 0 0 1 I I #
face $-1 $-1 $215 $30 $-1 $433 reversed single #
loop $-1 $-1 $322 $200 #
plane-surface $-1 0 25.628823892188979 0 0 -1 0 0 0 -1 forward_v I I I I #
coedge $-1 $434 $320 $323 $435 forward $201 $-1 #
coedge $-1 $326 $203 $204 $314 reversed $126 $-1 #
coedge $-1 $320 $434 $203 $312 reversed $201 $-1 #
edge $-1 $327 -6.3151856132060624 $436 6.3151856132060624 $311 $437 forward 7 unknown #
coedge $-1 $205 $204 $434 $438 forward $81 $-1 #
edge $-1 $318 -48.404797509689629 $436 48.404797509689629 $310 $439 forward 7 unknown #
coedge $-1 $323 $322 $205 $316 reversed $307 $-1 #
edge $-1 $440 -48.404797509689629 $317 48.404797509689629 $315 $441 forward 7 unknown #
vertex $-1 $207 $442 #
vertex $-1 $329 $443 #
straight-curve $-1 48.404797509689629 0 -6.3151856132060624 0 -1 0 I I #
coedge $-1 $309 $311 $208 $321 reversed $201 $-1 #
edge $-1 $324 -25.628823892188979 $327 25.628823892188979 $320 $444 forward 7 unknown #
coedge $-1 $315 $209 $214 $330 forward $307 $-1 #
coedge $-1 $209 $315 $309 $435 reversed $307 $-1 #
vertex $-1 $210 $445 #
straight-curve $-1 0 25.628823892188979 6.3151856132060624 -1 0 0 I I #
coedge $-1 $211 $310 $213 $329 reversed $126 $-1 #
vertex $-1 $321 $446 #
straight-curve $-1 0 -25.628823892188979 6.3151856132060624 1 0 0 I I #
edge $-1 $216 -6.3151856132060624 $318 6.3151856132060624 $213 $447 forward 7 unknown #
edge $-1 $217 -6.3151856132060624 $317 6.3151856132060624 $214 $448 forward 7 unknown #
point $-1 48.404797509689629 -25.628823892188979 6.3151856132060624 #
point $-1 48.404797509689629 25.628823892188979 6.3151856132060624 #
face $-1 $-1 $234 $31 $-1 $449 reversed single #
loop $-1 $-1 $342 $219 #
plane-surface $-1 0 0 6.3151856132060624 0 0 1 1 0 0 forward_v I I I I #
coedge $-1 $348 $347 $223 $341 forward $220 $-1 #
coedge $-1 $225 $222 $348 $450 reversed $134 $-1 #
coedge $-1 $222 $225 $351 $451 reversed $134 $-1 #
edge $-1 $353 -6.3151856132060624 $349 6.3151856132060624 $222 $452 forward 7 unknown #
coedge $-1 $224 $223 $355 $453 reversed $85 $-1 #
edge $-1 $454 -25.780273908497868 $345 -19.468773293885654 $336 $455 forward 7 unknown #
coedge $-1 $352 $351 $224 $343 forward $334 $-1 #
edge $-1 $344 19.468773293885654 $456 25.780273908497868 $342 $457 forward 7 unknown #
vertex $-1 $343 $458 #
vertex $-1 $341 $459 #
straight-curve $-1 -42.093296895077415 -22.128823892188979 0 0 0 -1 I I #
coedge $-1 $336 $228 $233 $357 forward $220 $-1 #
coedge $-1 $228 $336 $337 $450 forward $220 $-1 #
vertex $-1 $229 $460 #
straight-curve $-1 -22.624523601191761 -25.128823892188979 -6.3151856132060624 -1 0 0 I I #
coedge $-1 $342 $230 $338 $451 forward $334 $-1 #
coedge $-1 $230 $342 $232 $356 forward $334 $-1 #
vertex $-1 $231 $461 #
straight-curve $-1 -22.624523601191761 -25.128823892188979 6.3151856132060624 1 0 0 I I #
coedge $-1 $233 $232 $340 $453 forward $234 $-1 #
edge $-1 $456 22.128823892188979 $236 25.128823892188979 $232 $462 forward 7 unknown #
edge $-1 $235 -25.128823892188979 $454 -22.128823892188979 $233 $463 forward 7 unknown #
point $-1 -48.404797509689629 -25.128823892188979 -6.3151856132060624 #
point $-1 -48.404797509689629 -25.128823892188979 6.3151856132060624 #
loop $-1 $-1 $247 $238 #
plane-surface $-1 48.404797509689629 0 0 -1 0 0 0 0 1 forward_v I I I I #
coedge $-1 $464 $241 $246 $368 forward $142 $-1 #
coedge $-1 $241 $464 $365 $465 reversed $142 $-1 #
edge $-1 $366 21.585100532267216 $373 24.82599707284291 $241 $466 forward 7 unknown #
coedge $-1 $250 $244 $363 $465 forward $239 $-1 #
vertex $-1 $465 $467 #
straight-curve $-1 31.917280368415234 -53.410091352276773 6.3151856132060615 0 -1 0 I I #
edge $-1 $373 11.836760898889018 $371 28.324278040163414 $362 $468 forward 7 unknown #
coedge $-1 $370 $247 $250 $375 reversed $360 $-1 #
coedge $-1 $247 $369 $464 $469 forward $360 $-1 #
vertex $-1 $368 $470 #
straight-curve $-1 48.404797509689629 -22.529789235417184 7.8463841157815466 0 0.54463902268945019 0.83867057594974714 I I #
vertex $-1 $368 $471 #
straight-curve $-1 31.917280368415234 -25.628823892188976 3.0742890726303713 0 0.54463902268945019 0.83867057594974714 I I #
edge $-1 $472 -25.628823892188979 $251 -23.524161137688655 $369 $473 forward 7 unknown #
point $-1 48.404797509689629 -23.524161137688655 6.3151856132060624 #
point $-1 31.917280368415234 -23.524161137688655 6.3151856132060624 #
edge $-1 $474 1 $474 0 $254 $-1 forward 7 unknown #
vertex $-1 $255 $475 #
ellipse-curve $-1 40.161038939052432 -23.077868282396274 3.7215194182683775 0 -0.83867057594974714 0.54463902268945019 0.5 0 0 1 I I #
point $-1 40.661038939052432 -24.57649251493882 4.6947373429182182 #
loop $-1 $-1 $266 $258 #
plane-surface $-1 0 25.628823892188979 0 0 -1 0 0 0 -1 forward_v I I I I #
coedge $-1 $385 $261 $263 $389 reversed $157 $-1 #
coedge $-1 $261 $384 $476 $477 reversed $157 $-1 #
coedge $-1 $269 $264 $261 $387 forward $259 $-1 #
edge $-1 $390 -11.977980162228857 $478 -6.9031317919090576 $386 $479 forward 7 unknown #
coedge $-1 $263 $262 $393 $480 reversed $98 $-1 #
edge $-1 $481 -51.257647784377987 $390 -43.522294378931328 $384 $482 forward 7 unknown #
vertex $-1 $265 $483 #
straight-curve $-1 -1.9254495045062754 20.55397552186918 6.3151856132060615 1 0 0 I I #
coedge $-1 $476 $266 $269 $397 reversed $382 $-1 #
coedge $-1 $266 $476 $388 $480 forward $382 $-1 #
vertex $-1 $267 $484 #
straight-curve $-1 -10.857548325331212 25.628823892188979 51.337343238652906 0 0 1 I I #
straight-curve $-1 -10.857548325331212 -7.9992182528300191 39.161878494999122 0 0.65605901945558964 -0.75470958851134928 I I #
edge $-1 $478 -3.1557503073061106 $270 10.857548325331212 $392 $485 forward 7 unknown #
point $-1 -10.857548325331212 25.628823892188979 6.3151856132060624 #
point $-1 -10.857548325331212 20.55397552186918 6.3151856132060615 #
edge $-1 $486 1 $486 0 $273 $-1 forward 7 unknown #
vertex $-1 $274 $487 #
ellipse-curve $-1 -6.8537487160062653 21.994033953831217 2.4422874489506468 0 0.75470958851134928 0.65605901945558964 1 0 0 1 I I #
point $-1 -5.8537487160062653 23.091399707029094 3.3962129203988152 #
edge $-1 $488 1 $488 0 $277 $-1 forward 7 unknown #
vertex $-1 $278 $489 #
ellipse-curve $-1 -0.84804930201883622 21.994033953831217 2.4422874489506468 0 0.75470958851134928 0.65605901945558964 1 0 0 1 I I #
point $-1 0.15195069798116378 23.091399707029094 3.3962129203988152 #
plane-surface $-1 0 25.628823892188979 0 0 -1 0 0 0 -1 forward_v I I I I #
coedge $-1 $490 $284 $289 $415 forward $179 $-1 #
coedge $-1 $284 $490 $412 $491 forward $179 $-1 #
edge $-1 $413 6.9031317919090576 $420 11.977980162228857 $284 $492 forward 7 unknown #
coedge $-1 $293 $287 $410 $491 reversed $294 $-1 #
vertex $-1 $288 $493 #
straight-curve $-1 34.391498877052314 25.628823892188979 51.337343238652906 0 0 1 I I #
edge $-1 $420 13.692424780366828 $418 27.705723413004144 $409 $494 forward 7 unknown #
coedge $-1 $417 $290 $293 $422 reversed $282 $-1 #
coedge $-1 $290 $416 $490 $495 reversed $282 $-1 #
vertex $-1 $495 $496 #
straight-curve $-1 48.404797509689629 3.4174566699175299 26.028496013245281 0 0.65605901945558975 -0.75470958851134939 I I #
vertex $-1 $415 $497 #
straight-curve $-1 34.391498877052314 -7.9992182528300191 39.161878494999122 0 0.65605901945558964 -0.75470958851134928 I I #
edge $-1 $498 -6.3151856132060624 $295 -0.47724022759154278 $416 $499 forward 7 unknown #
point $-1 48.404797509689629 25.628823892188979 0.47724022759154278 #
point $-1 34.391498877052314 25.628823892188976 0.47724022759154394 #
edge $-1 $500 1 $500 0 $298 $-1 forward 7 unknown #
vertex $-1 $299 $501 #
ellipse-curve $-1 38.395298486377257 21.994033953831217 2.4422874489506468 0 0.75470958851134928 0.65605901945558964 1 0 0 1 I I #
point $-1 39.395298486377257 23.091399707029094 3.3962129203988152 #
edge $-1 $502 1 $502 0 $302 $-1 forward 7 unknown #
vertex $-1 $303 $503 #
ellipse-curve $-1 44.400997900364686 21.994033953831217 2.4422874489506468 0 0.75470958851134928 0.65605901945558964 1 0 0 1 I I #
point $-1 45.400997900364686 23.091399707029094 3.3962129203988152 #
plane-surface $-1 48.404797509689629 0 0 -1 0 0 0 0 1 forward_v I I I I #
coedge $-1 $311 $309 $313 $438 reversed $201 $-1 #
edge $-1 $324 -6.3151856132060624 $440 6.3151856132060624 $323 $504 forward 7 unknown #
vertex $-1 $438 $505 #
straight-curve $-1 -48.404797509689629 -25.628823892188979 0 0 0 -1 I I #
edge $-1 $436 -25.628823892188979 $440 25.628823892188979 $434 $506 forward 7 unknown #
straight-curve $-1 0 -25.628823892188979 -6.3151856132060624 -1 0 0 I I #
vertex $-1 $316 $507 #
straight-curve $-1 0 25.628823892188979 -6.3151856132060624 1 0 0 I I #
point $-1 48.404797509689629 25.628823892188979 -6.3151856132060624 #
point $-1 48.404797509689629 -25.628823892188979 -6.3151856132060624 #
straight-curve $-1 -48.404797509689629 0 6.3151856132060624 0 -1 0 I I #
point $-1 -48.404797509689629 25.628823892188979 6.3151856132060624 #
point $-1 -48.404797509689629 -25.628823892188979 6.3151856132060624 #
straight-curve $-1 48.404797509689629 -25.628823892188979 0 0 0 -1 I I #
straight-curve $-1 48.404797509689629 25.628823892188979 0 0 0 -1 I I #
plane-surface $-1 -48.404797509689629 0 0 1 0 0 0 0 -1 forward_v I I I I #
edge $-1 $345 10.31441194609449 $349 13.31441194609449 $348 $508 forward 7 unknown #
edge $-1 $353 -13.31441194609449 $344 -10.31441194609449 $351 $509 forward 7 unknown #
straight-curve $-1 -42.093296895077415 -25.128823892188979 0 0 0 -1 I I #
edge $-1 $456 -6.3151856132060624 $454 6.3151856132060624 $355 $510 forward 7 unknown #
vertex $-1 $453 $511 #
straight-curve $-1 -22.624523601191761 -22.128823892188979 -6.3151856132060624 1 0 0 I I #
vertex $-1 $356 $512 #
straight-curve $-1 -22.624523601191761 -22.128823892188979 6.3151856132060624 -1 0 0 I I #
point $-1 -42.093296895077415 -22.128823892188979 6.3151856132060624 #
point $-1 -42.093296895077415 -22.128823892188979 -6.3151856132060624 #
point $-1 -42.093296895077415 -25.128823892188979 -6.3151856132060624 #
point $-1 -42.093296895077415 -25.128823892188979 6.3151856132060624 #
straight-curve $-1 -48.404797509689629 0 6.3151856132060624 0 -1 0 I I #
straight-curve $-1 -48.404797509689629 0 -6.3151856132060624 0 1 0 I I #
coedge $-1 $363 $362 $370 $469 reversed $142 $-1 #
edge $-1 $366 31.917280368415234 $472 48.404797509689629 $363 $513 forward 7 unknown #
straight-curve $-1 31.917280368415234 -25.628823892188976 27.900286145473277 0 0 -1 I I #
point $-1 31.917280368415234 -25.628823892188979 6.3151856132060624 #
straight-curve $-1 20.080519469526216 -25.628823892188979 3.0742890726303611 1 0 0 I I #
edge $-1 $472 -6.3151856132060624 $371 -3.074289072630366 $370 $514 forward 7 unknown #
point $-1 48.404797509689629 -25.628823892188979 3.074289072630366 #
point $-1 31.917280368415234 -25.628823892188979 3.074289072630366 #
vertex $-1 $375 $515 #
straight-curve $-1 48.404797509689629 0 6.3151856132060624 0 1 0 I I #
vertex $-1 $378 $516 #
point $-1 40.661038939052432 -23.077868282396274 3.7215194182683775 #
coedge $-1 $393 $392 $385 $477 forward $382 $-1 #
edge $-1 $478 45.022157625446845 $481 50.860103011061362 $476 $517 forward 7 unknown #
vertex $-1 $397 $518 #
straight-curve $-1 3.1557503073061106 32.531955684098037 6.3151856132060615 0 1 0 I I #
edge $-1 $481 -5.081199811812386 $394 8.9320988208249368 $393 $519 forward 7 unknown #
vertex $-1 $480 $520 #
straight-curve $-1 3.1557503073061106 -7.9992182528300191 39.161878494999122 0 -0.65605901945558964 0.75470958851134928 I I #
point $-1 3.1557503073061106 20.55397552186918 6.3151856132060615 #
point $-1 -10.857548325331212 25.628823892188976 0.47724022759154394 #
straight-curve $-1 0 25.628823892188979 6.3151856132060624 -1 0 0 I I #
vertex $-1 $400 $521 #
point $-1 -5.8537487160062653 21.994033953831217 2.4422874489506468 #
vertex $-1 $404 $522 #
point $-1 0.15195069798116378 21.994033953831217 2.4422874489506468 #
coedge $-1 $410 $409 $417 $495 forward $179 $-1 #
edge $-1 $498 -48.404797509689629 $413 -34.391498877052314 $412 $523 forward 7 unknown #
straight-curve $-1 34.391498877052314 32.531955684098037 6.3151856132060615 0 -1 0 I I #
point $-1 34.391498877052314 25.628823892188979 6.3151856132060624 #
straight-curve $-1 20.699074096685486 20.55397552186918 6.3151856132060615 1 0 0 I I #
edge $-1 $418 20.55397552186918 $498 25.628823892188979 $417 $524 forward 7 unknown #
point $-1 48.404797509689629 20.55397552186918 6.3151856132060615 #
point $-1 34.391498877052314 20.55397552186918 6.3151856132060615 #
vertex $-1 $495 $525 #
straight-curve $-1 48.404797509689629 25.628823892188979 0 0 0 -1 I I #
vertex $-1 $425 $526 #
point $-1 39.395298486377257 21.994033953831217 2.4422874489506468 #
vertex $-1 $429 $527 #
point $-1 45.400997900364686 21.994033953831217 2.4422874489506468 #
straight-curve $-1 -48.404797509689629 25.628823892188979 0 0 0 -1 I I #
point $-1 -48.404797509689629 -25.628823892188979 -6.3151856132060624 #
straight-curve $-1 -48.404797509689629 0 -6.3151856132060624 0 1 0 I I #
point $-1 -48.404797509689629 25.628823892188979 -6.3151856132060624 #
straight-curve $-1 -42.093296895077415 -11.81441194609449 -6.3151856132060624 0 -1 0 I I #
straight-curve $-1 -42.093296895077415 -11.81441194609449 6.3151856132060624 0 1 0 I I #
straight-curve $-1 -48.404797509689629 -22.128823892188979 0 0 0 -1 I I #
point $-1 -48.404797509689629 -22.128823892188979 -6.3151856132060624 #
point $-1 -48.404797509689629 -22.128823892188979 6.3151856132060624 #
straight-curve $-1 0 -25.628823892188979 6.3151856132060624 1 0 0 I I #
straight-curve $-1 48.404797509689629 -25.628823892188979 0 0 0 -1 I I #
point $-1 48.404797509689629 -25.628823892188979 6.3151856132060624 #
point $-1 40.161038939052432 -22.6585329944214 3.4491999069236523 #
straight-curve $-1 3.1557503073061106 25.628823892188979 51.337343238652906 0 0 -1 I I #
point $-1 3.1557503073061106 25.628823892188979 6.3151856132060624 #
straight-curve $-1 -1.9254495045062754 25.628823892188976 0.47724022759154394 -1 0 0 I I #
point $-1 3.1557503073061106 25.628823892188976 0.47724022759154394 #
point $-1 -6.8537487160062653 21.23932436531987 1.786228429495057 #
point $-1 -0.84804930201883622 21.23932436531987 1.786228429495057 #
straight-curve $-1 0 25.628823892188979 6.3151856132060624 -1 0 0 I I #
straight-curve $-1 48.404797509689629 0 6.3151856132060624 0 1 0 I I #
point $-1 48.404797509689629 25.628823892188979 6.3151856132060624 #
point $-1 38.395298486377257 21.23932436531987 1.786228429495057 #
point $-1 44.400997900364686 21.23932436531987 1.786228429495057 #
End-of-ACIS-data 