500 0 18 0           
7 Unknown 11 ACIS 5.0 NT 24 Thu Mar 25 16:10:07 1999 
-1 9.9999999999999995e-007 1e-010 
body $-1 $18 $-1 $19 #
body $-1 $20 $-1 $21 #
body $-1 $22 $-1 $23 #
body $-1 $24 $-1 $25 #
body $-1 $26 $-1 $27 #
body $-1 $28 $-1 $29 #
body $-1 $30 $-1 $31 #
body $-1 $32 $-1 $33 #
body $-1 $34 $-1 $35 #
body $-1 $36 $-1 $37 #
body $-1 $38 $-1 $39 #
body $-1 $40 $-1 $41 #
body $-1 $42 $-1 $43 #
body $-1 $44 $-1 $45 #
body $-1 $46 $-1 $47 #
body $-1 $48 $-1 $49 #
body $-1 $50 $-1 $51 #
body $-1 $52 $-1 $53 #
lump $-1 $-1 $54 $0 #
transform $-1 1 0 0 0 1 0 0 0 1 55.529038361766411 23.568532395894234 10.418791729720986 1 rotate no_reflect no_shear #
lump $-1 $-1 $55 $1 #
transform $-1 1 0 0 0 1 0 0 0 1 55.529038361766411 23.568532395894234 10.418791729720986 1 rotate no_reflect no_shear #
lump $-1 $-1 $56 $2 #
transform $-1 1 0 0 0 1 0 0 0 1 55.529038361766411 23.568532395894234 10.418791729720986 1 rotate no_reflect no_shear #
lump $-1 $-1 $57 $3 #
transform $-1 1 0 0 0 1 0 0 0 1 55.529038361766411 23.568532395894234 10.418791729720986 1 rotate no_reflect no_shear #
lump $-1 $-1 $58 $4 #
transform $-1 1 0 0 0 1 0 0 0 1 55.529038361766411 23.568532395894234 10.418791729720986 1 rotate no_reflect no_shear #
lump $-1 $-1 $59 $5 #
transform $-1 1 0 0 0 1 0 0 0 1 55.529038361766411 23.568532395894234 10.418791729720986 1 rotate no_reflect no_shear #
lump $-1 $-1 $60 $6 #
transform $-1 1 0 0 0 1 0 0 0 1 55.529038361766411 23.568532395894234 10.418791729720986 1 rotate no_reflect no_shear #
lump $-1 $-1 $61 $7 #
transform $-1 1 0 0 0 1 0 0 0 1 55.529038361766411 23.568532395894234 10.418791729720986 1 rotate no_reflect no_shear #
lump $-1 $-1 $62 $8 #
transform $-1 1 0 0 0 1 0 0 0 1 55.529038361766411 23.568532395894234 10.418791729720986 1 rotate no_reflect no_shear #
lump $-1 $-1 $63 $9 #
transform $-1 1 0 0 0 1 0 0 0 1 55.529038361766411 23.568532395894234 10.418791729720986 1 rotate no_reflect no_shear #
lump $-1 $-1 $64 $10 #
transform $-1 1 0 0 0 1 0 0 0 1 55.529038361766411 23.568532395894234 10.418791729720986 1 rotate no_reflect no_shear #
lump $-1 $-1 $65 $11 #
transform $-1 1 0 0 0 1 0 0 0 1 55.529038361766411 23.568532395894234 10.418791729720986 1 rotate no_reflect no_shear #
lump $-1 $-1 $66 $12 #
transform $-1 1 0 0 0 1 0 0 0 1 55.529038361766411 23.568532395894234 10.418791729720986 1 rotate no_reflect no_shear #
lump $-1 $-1 $67 $13 #
transform $-1 1 0 0 0 1 0 0 0 1 55.529038361766411 23.568532395894234 10.418791729720986 1 rotate no_reflect no_shear #
lump $-1 $-1 $68 $14 #
transform $-1 1 0 0 0 1 0 0 0 1 55.529038361766411 23.568532395894234 10.418791729720986 1 rotate no_reflect no_shear #
lump $-1 $-1 $69 $15 #
transform $-1 1 0 0 0 1 0 0 0 1 55.529038361766411 23.568532395894234 10.418791729720986 1 rotate no_reflect no_shear #
lump $-1 $-1 $70 $16 #
transform $-1 1 0 0 0 1 0 0 0 1 55.529038361766411 23.568532395894234 10.418791729720986 1 rotate no_reflect no_shear #
lump $-1 $-1 $71 $17 #
transform $-1 1 0 0 0 1 0 0 0 1 55.529038361766411 23.568532395894234 10.418791729720986 1 rotate no_reflect no_shear #
shell $-1 $-1 $-1 $72 $-1 $18 #
shell $-1 $-1 $-1 $73 $-1 $20 #
shell $-1 $-1 $-1 $74 $-1 $22 #
shell $-1 $-1 $-1 $75 $-1 $24 #
shell $-1 $-1 $-1 $76 $-1 $26 #
shell $-1 $-1 $-1 $77 $-1 $28 #
shell $-1 $-1 $-1 $78 $-1 $30 #
shell $-1 $-1 $-1 $79 $-1 $32 #
shell $-1 $-1 $-1 $80 $-1 $34 #
shell $-1 $-1 $-1 $81 $-1 $36 #
shell $-1 $-1 $-1 $82 $-1 $38 #
shell $-1 $-1 $-1 $83 $-1 $40 #
shell $-1 $-1 $-1 $84 $-1 $42 #
shell $-1 $-1 $-1 $85 $-1 $44 #
shell $-1 $-1 $-1 $86 $-1 $46 #
shell $-1 $-1 $-1 $87 $-1 $48 #
shell $-1 $-1 $-1 $88 $-1 $50 #
shell $-1 $-1 $-1 $89 $-1 $52 #
face $-1 $90 $91 $54 $-1 $92 forward single #
face $-1 $93 $94 $55 $-1 $95 reversed single #
face $-1 $96 $97 $56 $-1 $98 reversed single #
face $-1 $99 $100 $57 $-1 $101 forward single #
face $-1 $102 $103 $58 $-1 $104 forward single #
face $-1 $105 $106 $59 $-1 $107 forward single #
face $-1 $108 $109 $60 $-1 $110 reversed single #
face $-1 $111 $112 $61 $-1 $113 forward single #
face $-1 $114 $115 $62 $-1 $116 forward single #
face $-1 $117 $118 $63 $-1 $119 forward single #
face $-1 $120 $121 $64 $-1 $122 reversed single #
face $-1 $123 $124 $65 $-1 $125 forward single #
face $-1 $126 $127 $66 $-1 $128 forward single #
face $-1 $129 $130 $67 $-1 $131 forward single #
face $-1 $132 $133 $68 $-1 $134 reversed single #
face $-1 $135 $136 $69 $-1 $137 forward single #
face $-1 $138 $139 $70 $-1 $140 forward single #
face $-1 $141 $142 $71 $-1 $143 forward single #
face $-1 $144 $145 $54 $-1 $146 reversed single #
loop $-1 $-1 $147 $72 #
plane-surface $-1 0 0 10.418791729720986 0 0 1 1 0 0 forward_v I I I I #
face $-1 $148 $149 $55 $-1 $150 reversed single #
loop $-1 $-1 $151 $73 #
plane-surface $-1 -49.546342970276896 -18.93907470773097 0 1 0 0 0 0 -1 forward_v I I I I #
face $-1 $152 $153 $56 $-1 $154 reversed single #
loop $-1 $-1 $155 $74 #
plane-surface $-1 30.959468015777688 0.31841564061783956 155.49431472328376 0 -1 0 -0.5877852598018023 0 -0.80901698891910034 forward_v I I I I #
face $-1 $156 $157 $57 $-1 $158 forward single #
loop $-1 $159 $160 $75 #
cone-surface $-1 48.318380553716636 -5.9214524203216534 4.9889590790182314 -0.5877852598018023 0 -0.80901698891910034 0.40450849445955017 0 -0.29389262990090115 1 I I 0 1 0.5 forward I I I I #
face $-1 $161 $162 $58 $-1 $163 forward single #
loop $-1 $164 $165 $76 #
cone-surface $-1 48.318380553716636 -3.5815018974693444 4.9889590790182314 -0.5877852598018023 0 -0.80901698891910034 0.40450849445955017 0 -0.29389262990090115 1 I I 0 1 0.5 forward I I I I #
face $-1 $166 $167 $59 $-1 $168 forward single #
loop $-1 $169 $170 $77 #
cone-surface $-1 48.318380553716636 -1.2415513746170355 4.9889590790182314 -0.5877852598018023 0 -0.80901698891910034 0.40450849445955017 0 -0.29389262990090115 1 I I 0 1 0.5 forward I I I I #
face $-1 $171 $172 $60 $-1 $173 reversed single #
loop $-1 $-1 $174 $78 #
plane-surface $-1 30.959468015777688 16.740334811883052 155.49431472328376 0 -1 0 -0.5877852598018023 0 -0.80901698891910034 forward_v I I I I #
face $-1 $175 $176 $61 $-1 $177 forward single #
loop $-1 $178 $179 $79 #
cone-surface $-1 48.318380553716636 10.500466750943563 4.9889590790182314 -0.5877852598018023 0 -0.80901698891910034 0.40450849445955017 0 -0.29389262990090115 1 I I 0 1 0.5 forward I I I I #
face $-1 $180 $181 $62 $-1 $182 forward single #
loop $-1 $183 $184 $80 #
cone-surface $-1 48.318380553716636 12.840417273795868 4.9889590790182314 -0.5877852598018023 0 -0.80901698891910034 0.40450849445955017 0 -0.29389262990090115 1 I I 0 1 0.5 forward I I I I #
face $-1 $185 $186 $63 $-1 $187 forward single #
loop $-1 $188 $189 $81 #
cone-surface $-1 48.318380553716636 15.180367796648174 4.9889590790182314 -0.5877852598018023 0 -0.80901698891910034 0.40450849445955017 0 -0.29389262990090115 1 I I 0 1 0.5 forward I I I I #
face $-1 $190 $191 $64 $-1 $192 reversed single #
loop $-1 $-1 $193 $82 #
plane-surface $-1 -120.80733884179664 -7.4814194355565284 90.216014243253539 0 1 0 -0.5877852598018023 0 0.80901698891910034 forward_v I I I I #
face $-1 $194 $195 $65 $-1 $196 forward single #
loop $-1 $197 $198 $83 #
cone-surface $-1 -48.318380553716651 -5.9214524203216534 4.9889590790182456 0.5877852598018023 0 -0.80901698891910034 0.40450849445955017 0 0.29389262990090115 1 I I 0 1 0.5 forward I I I I #
face $-1 $199 $200 $66 $-1 $201 forward single #
loop $-1 $202 $203 $84 #
cone-surface $-1 -48.318380553716651 -3.5815018974693444 4.9889590790182456 0.5877852598018023 0 -0.80901698891910034 0.40450849445955017 0 0.29389262990090115 1 I I 0 1 0.5 forward I I I I #
face $-1 $204 $205 $67 $-1 $206 forward single #
loop $-1 $207 $208 $85 #
cone-surface $-1 -48.318380553716651 -1.2415513746170355 4.9889590790182456 0.5877852598018023 0 -0.80901698891910034 0.40450849445955017 0 0.29389262990090115 1 I I 0 1 0.5 forward I I I I #
face $-1 $209 $210 $68 $-1 $211 reversed single #
loop $-1 $-1 $212 $86 #
plane-surface $-1 -120.80733884179664 8.9404997357086842 90.216014243253539 0 1 0 -0.5877852598018023 0 0.80901698891910034 forward_v I I I I #
face $-1 $213 $214 $69 $-1 $215 forward single #
loop $-1 $216 $217 $87 #
cone-surface $-1 -48.318380553716651 10.500466750943563 4.9889590790182456 0.5877852598018023 0 -0.80901698891910034 0.40450849445955017 0 0.29389262990090115 1 I I 0 1 0.5 forward I I I I #
face $-1 $218 $219 $70 $-1 $220 forward single #
loop $-1 $221 $222 $88 #
cone-surface $-1 -48.318380553716651 12.840417273795868 4.9889590790182456 0.5877852598018023 0 -0.80901698891910034 0.40450849445955017 0 0.29389262990090115 1 I I 0 1 0.5 forward I I I I #
face $-1 $223 $224 $71 $-1 $225 forward single #
loop $-1 $226 $227 $89 #
cone-surface $-1 -48.318380553716651 15.180367796648174 4.9889590790182456 0.5877852598018023 0 -0.80901698891910034 0.40450849445955017 0 0.29389262990090115 1 I I 0 1 0.5 forward I I I I #
face $-1 $228 $229 $54 $-1 $230 reversed single #
loop $-1 $-1 $231 $90 #
plane-surface $-1 0 0 -10.418791729720986 0 0 1 1 0 0 forward_v I I I I #
coedge $-1 $232 $233 $234 $235 forward $91 $-1 #
face $-1 $236 $237 $55 $-1 $238 reversed single #
loop $-1 $-1 $239 $93 #
plane-surface $-1 -46.884554243600263 -14.309617019567707 0 0 -1 0 0 0 -1 forward_v I I I I #
coedge $-1 $240 $241 $242 $243 forward $94 $-1 #
face $-1 $244 $245 $56 $-1 $246 reversed single #
loop $-1 $-1 $247 $96 #
plane-surface $-1 -34.318832464252537 -3.5815018974693444 65.646443897264817 0.5877852598018023 0 0.80901698891910034 0.80901698891910034 0 -0.5877852598018023 forward_v I I I I #
coedge $-1 $248 $249 $250 $251 reversed $97 $-1 #
face $-1 $-1 $252 $57 $-1 $253 forward single #
loop $-1 $254 $255 $99 #
cone-surface $-1 47.877541608865286 -5.9214524203216534 4.3821963373289066 -0.5877852598018023 0 -0.80901698891910034 0.20225424722977509 0 -0.14694631495045057 1 I I -0.70710678118654746 0.70710678118654746 0.25 forward I I I I #
loop $-1 $-1 $256 $75 #
coedge $-1 $160 $160 $257 $258 reversed $100 $-1 #
face $-1 $-1 $259 $58 $-1 $260 forward single #
loop $-1 $261 $262 $102 #
cone-surface $-1 47.877541608865286 -3.5815018974693444 4.3821963373289066 -0.5877852598018023 0 -0.80901698891910034 0.20225424722977509 0 -0.14694631495045057 1 I I -0.70710678118654746 0.70710678118654746 0.25 forward I I I I #
loop $-1 $-1 $263 $76 #
coedge $-1 $165 $165 $264 $265 reversed $103 $-1 #
face $-1 $-1 $266 $59 $-1 $267 forward single #
loop $-1 $268 $269 $105 #
cone-surface $-1 47.877541608865286 -1.2415513746170355 4.3821963373289066 -0.5877852598018023 0 -0.80901698891910034 0.20225424722977509 0 -0.14694631495045057 1 I I -0.70710678118654746 0.70710678118654746 0.25 forward I I I I #
loop $-1 $-1 $270 $77 #
coedge $-1 $170 $170 $271 $272 reversed $106 $-1 #
face $-1 $273 $274 $60 $-1 $275 reversed single #
loop $-1 $-1 $276 $108 #
plane-surface $-1 -34.318832464252537 12.840417273795868 65.646443897264817 0.5877852598018023 0 0.80901698891910034 0.80901698891910034 0 -0.5877852598018023 forward_v I I I I #
coedge $-1 $277 $278 $279 $280 reversed $109 $-1 #
face $-1 $-1 $281 $61 $-1 $282 forward single #
loop $-1 $283 $284 $111 #
cone-surface $-1 47.877541608865286 10.500466750943563 4.3821963373289066 -0.5877852598018023 0 -0.80901698891910034 0.20225424722977509 0 -0.14694631495045057 1 I I -0.70710678118654746 0.70710678118654746 0.25 forward I I I I #
loop $-1 $-1 $285 $79 #
coedge $-1 $179 $179 $286 $287 reversed $112 $-1 #
face $-1 $-1 $288 $62 $-1 $289 forward single #
loop $-1 $290 $291 $114 #
cone-surface $-1 47.877541608865286 12.840417273795868 4.3821963373289066 -0.5877852598018023 0 -0.80901698891910034 0.20225424722977509 0 -0.14694631495045057 1 I I -0.70710678118654746 0.70710678118654746 0.25 forward I I I I #
loop $-1 $-1 $292 $80 #
coedge $-1 $184 $184 $293 $294 reversed $115 $-1 #
face $-1 $-1 $295 $63 $-1 $296 forward single #
loop $-1 $297 $298 $117 #
cone-surface $-1 47.877541608865286 15.180367796648174 4.3821963373289066 -0.5877852598018023 0 -0.80901698891910034 0.20225424722977509 0 -0.14694631495045057 1 I I -0.70710678118654746 0.70710678118654746 0.25 forward I I I I #
loop $-1 $-1 $299 $81 #
coedge $-1 $189 $189 $300 $301 reversed $118 $-1 #
face $-1 $302 $303 $64 $-1 $304 reversed single #
loop $-1 $-1 $305 $120 #
plane-surface $-1 -55.529038361766411 -3.5815018974693444 0.36814341723459165 -0.5877852598018023 0 0.80901698891910034 0.80901698891910034 0 0.5877852598018023 forward_v I I I I #
coedge $-1 $306 $307 $308 $309 reversed $121 $-1 #
face $-1 $-1 $310 $65 $-1 $311 forward single #
loop $-1 $312 $313 $123 #
cone-surface $-1 -47.8775416088653 -5.9214524203216534 4.3821963373289208 0.5877852598018023 0 -0.80901698891910034 0.20225424722977509 0 0.14694631495045057 1 I I -0.70710678118654746 0.70710678118654746 0.25 forward I I I I #
loop $-1 $-1 $314 $83 #
coedge $-1 $198 $198 $315 $316 reversed $124 $-1 #
face $-1 $-1 $317 $66 $-1 $318 forward single #
loop $-1 $319 $320 $126 #
cone-surface $-1 -47.8775416088653 -3.5815018974693444 4.3821963373289208 0.5877852598018023 0 -0.80901698891910034 0.20225424722977509 0 0.14694631495045057 1 I I -0.70710678118654746 0.70710678118654746 0.25 forward I I I I #
loop $-1 $-1 $321 $84 #
coedge $-1 $203 $203 $322 $323 reversed $127 $-1 #
face $-1 $-1 $324 $67 $-1 $325 forward single #
loop $-1 $326 $327 $129 #
cone-surface $-1 -47.8775416088653 -1.2415513746170355 4.3821963373289208 0.5877852598018023 0 -0.80901698891910034 0.20225424722977509 0 0.14694631495045057 1 I I -0.70710678118654746 0.70710678118654746 0.25 forward I I I I #
loop $-1 $-1 $328 $85 #
coedge $-1 $208 $208 $329 $330 reversed $130 $-1 #
face $-1 $331 $332 $68 $-1 $333 reversed single #
loop $-1 $-1 $334 $132 #
plane-surface $-1 -55.529038361766411 12.840417273795868 0.36814341723459165 -0.5877852598018023 0 0.80901698891910034 0.80901698891910034 0 0.5877852598018023 forward_v I I I I #
coedge $-1 $335 $336 $337 $338 reversed $133 $-1 #
face $-1 $-1 $339 $69 $-1 $340 forward single #
loop $-1 $341 $342 $135 #
cone-surface $-1 -47.8775416088653 10.500466750943563 4.3821963373289208 0.5877852598018023 0 -0.80901698891910034 0.20225424722977509 0 0.14694631495045057 1 I I -0.70710678118654746 0.70710678118654746 0.25 forward I I I I #
loop $-1 $-1 $343 $87 #
coedge $-1 $217 $217 $344 $345 reversed $136 $-1 #
face $-1 $-1 $346 $70 $-1 $347 forward single #
loop $-1 $348 $349 $138 #
cone-surface $-1 -47.8775416088653 12.840417273795868 4.3821963373289208 0.5877852598018023 0 -0.80901698891910034 0.20225424722977509 0 0.14694631495045057 1 I I -0.70710678118654746 0.70710678118654746 0.25 forward I I I I #
loop $-1 $-1 $350 $88 #
coedge $-1 $222 $222 $351 $352 reversed $139 $-1 #
face $-1 $-1 $353 $71 $-1 $354 forward single #
loop $-1 $355 $356 $141 #
cone-surface $-1 -47.8775416088653 15.180367796648174 4.3821963373289208 0.5877852598018023 0 -0.80901698891910034 0.20225424722977509 0 0.14694631495045057 1 I I -0.70710678118654746 0.70710678118654746 0.25 forward I I I I #
loop $-1 $-1 $357 $89 #
coedge $-1 $227 $227 $358 $359 reversed $142 $-1 #
face $-1 $360 $361 $54 $-1 $362 reversed single #
loop $-1 $-1 $363 $144 #
plane-surface $-1 0 -23.568532395894234 0 0 1 0 0 0 1 forward_v I I I I #
coedge $-1 $364 $365 $366 $367 forward $145 $-1 #
coedge $-1 $368 $147 $369 $370 forward $91 $-1 #
coedge $-1 $147 $368 $371 $372 forward $91 $-1 #
coedge $-1 $373 $374 $147 $235 reversed $375 $-1 #
edge $-1 $376 -23.568532395894234 $377 23.568532395894234 $234 $378 forward 7 unknown #
face $-1 $379 $380 $55 $-1 $381 forward single #
loop $-1 $-1 $382 $148 #
plane-surface $-1 -44.22276551692363 -18.93907470773097 0 -1 0 0 0 0 1 forward_v I I I I #
coedge $-1 $383 $384 $385 $386 forward $149 $-1 #
coedge $-1 $387 $151 $388 $389 reversed $94 $-1 #
coedge $-1 $151 $387 $390 $391 reversed $94 $-1 #
coedge $-1 $384 $383 $151 $243 reversed $149 $-1 #
edge $-1 $392 -10.418791729720986 $393 10.418791729720986 $242 $394 forward 7 unknown #
face $-1 $395 $396 $56 $-1 $397 reversed single #
loop $-1 $-1 $398 $152 #
plane-surface $-1 30.959468015777688 -7.4814194355565284 155.49431472328376 0 1 0 0.5877852598018023 0 0.80901698891910034 forward_v I I I I #
coedge $-1 $399 $400 $401 $402 reversed $153 $-1 #
coedge $-1 $249 $155 $403 $404 reversed $97 $-1 #
coedge $-1 $155 $248 $399 $405 reversed $97 $-1 #
coedge $-1 $401 $406 $155 $251 forward $407 $-1 #
edge $-1 $408 -40.049304353877567 $409 -26.215773997579824 $250 $410 forward 7 unknown #
loop $-1 $-1 $257 $156 #
plane-surface $-1 -34.318832464252537 -3.5815018974693444 65.646443897264817 0.5877852598018023 0 0.80901698891910034 0.80901698891910034 0 -0.5877852598018023 forward_v I I I I #
loop $-1 $-1 $411 $99 #
coedge $-1 $255 $255 $256 $412 reversed $157 $-1 #
coedge $-1 $256 $256 $255 $412 forward $159 $-1 #
coedge $-1 $257 $257 $160 $258 forward $252 $-1 #
edge $-1 $413 0 $413 6.2831853071796004 $257 $414 forward 7 unknown #
loop $-1 $-1 $264 $161 #
plane-surface $-1 -34.318832464252537 -3.5815018974693444 65.646443897264817 0.5877852598018023 0 0.80901698891910034 0.80901698891910034 0 -0.5877852598018023 forward_v I I I I #
loop $-1 $-1 $415 $102 #
coedge $-1 $262 $262 $263 $416 reversed $162 $-1 #
coedge $-1 $263 $263 $262 $416 forward $164 $-1 #
coedge $-1 $264 $264 $165 $265 forward $259 $-1 #
edge $-1 $417 0 $417 6.2831853071796004 $264 $418 forward 7 unknown #
loop $-1 $-1 $271 $166 #
plane-surface $-1 -34.318832464252537 -3.5815018974693444 65.646443897264817 0.5877852598018023 0 0.80901698891910034 0.80901698891910034 0 -0.5877852598018023 forward_v I I I I #
loop $-1 $-1 $419 $105 #
coedge $-1 $269 $269 $270 $420 reversed $167 $-1 #
coedge $-1 $270 $270 $269 $420 forward $169 $-1 #
coedge $-1 $271 $271 $170 $272 forward $266 $-1 #
edge $-1 $421 0 $421 6.2831853071796004 $271 $422 forward 7 unknown #
face $-1 $423 $424 $60 $-1 $425 reversed single #
loop $-1 $-1 $426 $171 #
plane-surface $-1 30.959468015777688 8.9404997357086842 155.49431472328376 0 1 0 0.5877852598018023 0 0.80901698891910034 forward_v I I I I #
coedge $-1 $427 $428 $429 $430 reversed $172 $-1 #
coedge $-1 $278 $174 $431 $432 reversed $109 $-1 #
coedge $-1 $174 $277 $427 $433 reversed $109 $-1 #
coedge $-1 $429 $434 $174 $280 forward $435 $-1 #
edge $-1 $436 -40.049304353877567 $437 -26.215773997579824 $279 $438 forward 7 unknown #
loop $-1 $-1 $286 $175 #
plane-surface $-1 -34.318832464252537 12.840417273795868 65.646443897264817 0.5877852598018023 0 0.80901698891910034 0.80901698891910034 0 -0.5877852598018023 forward_v I I I I #
loop $-1 $-1 $439 $111 #
coedge $-1 $284 $284 $285 $440 reversed $176 $-1 #
coedge $-1 $285 $285 $284 $440 forward $178 $-1 #
coedge $-1 $286 $286 $179 $287 forward $281 $-1 #
edge $-1 $441 0 $441 6.2831853071796004 $286 $442 forward 7 unknown #
loop $-1 $-1 $293 $180 #
plane-surface $-1 -34.318832464252537 12.840417273795868 65.646443897264817 0.5877852598018023 0 0.80901698891910034 0.80901698891910034 0 -0.5877852598018023 forward_v I I I I #
loop $-1 $-1 $443 $114 #
coedge $-1 $291 $291 $292 $444 reversed $181 $-1 #
coedge $-1 $292 $292 $291 $444 forward $183 $-1 #
coedge $-1 $293 $293 $184 $294 forward $288 $-1 #
edge $-1 $445 0 $445 6.2831853071796004 $293 $446 forward 7 unknown #
loop $-1 $-1 $300 $185 #
plane-surface $-1 -34.318832464252537 12.840417273795868 65.646443897264817 0.5877852598018023 0 0.80901698891910034 0.80901698891910034 0 -0.5877852598018023 forward_v I I I I #
loop $-1 $-1 $447 $117 #
coedge $-1 $298 $298 $299 $448 reversed $186 $-1 #
coedge $-1 $299 $299 $298 $448 forward $188 $-1 #
coedge $-1 $300 $300 $189 $301 forward $295 $-1 #
edge $-1 $449 0 $449 6.2831853071796004 $300 $450 forward 7 unknown #
face $-1 $451 $452 $64 $-1 $453 reversed single #
loop $-1 $-1 $454 $190 #
plane-surface $-1 -120.80733884179664 0.31841564061783956 90.216014243253539 0 -1 0 0.5877852598018023 0 -0.80901698891910034 forward_v I I I I #
coedge $-1 $455 $456 $457 $458 reversed $191 $-1 #
coedge $-1 $307 $193 $459 $460 reversed $121 $-1 #
coedge $-1 $193 $306 $455 $461 reversed $121 $-1 #
coedge $-1 $457 $462 $193 $309 forward $463 $-1 #
edge $-1 $464 4.8746310591319073 $465 18.708161415429636 $308 $466 forward 7 unknown #
loop $-1 $-1 $315 $194 #
plane-surface $-1 -55.529038361766411 -3.5815018974693444 0.36814341723459165 -0.5877852598018023 0 0.80901698891910034 0.80901698891910034 0 0.5877852598018023 forward_v I I I I #
loop $-1 $-1 $467 $123 #
coedge $-1 $313 $313 $314 $468 reversed $195 $-1 #
coedge $-1 $314 $314 $313 $468 forward $197 $-1 #
coedge $-1 $315 $315 $198 $316 forward $310 $-1 #
edge $-1 $469 0 $469 6.2831853071796004 $315 $470 forward 7 unknown #
loop $-1 $-1 $322 $199 #
plane-surface $-1 -55.529038361766411 -3.5815018974693444 0.36814341723459165 -0.5877852598018023 0 0.80901698891910034 0.80901698891910034 0 0.5877852598018023 forward_v I I I I #
loop $-1 $-1 $471 $126 #
coedge $-1 $320 $320 $321 $472 reversed $200 $-1 #
coedge $-1 $321 $321 $320 $472 forward $202 $-1 #
coedge $-1 $322 $322 $203 $323 forward $317 $-1 #
edge $-1 $473 0 $473 6.2831853071796004 $322 $474 forward 7 unknown #
loop $-1 $-1 $329 $204 #
plane-surface $-1 -55.529038361766411 -3.5815018974693444 0.36814341723459165 -0.5877852598018023 0 0.80901698891910034 0.80901698891910034 0 0.5877852598018023 forward_v I I I I #
loop $-1 $-1 $475 $129 #
coedge $-1 $327 $327 $328 $476 reversed $205 $-1 #
coedge $-1 $328 $328 $327 $476 forward $207 $-1 #
coedge $-1 $329 $329 $208 $330 forward $324 $-1 #
edge $-1 $477 0 $477 6.2831853071796004 $329 $478 forward 7 unknown #
face $-1 $479 $480 $68 $-1 $481 forward single #
loop $-1 $-1 $482 $209 #
plane-surface $-1 -120.80733884179664 16.740334811883052 90.216014243253539 0 -1 0 0.5877852598018023 0 -0.80901698891910034 forward_v I I I I #
coedge $-1 $483 $484 $485 $486 reversed $210 $-1 #
coedge $-1 $336 $212 $487 $488 reversed $133 $-1 #
coedge $-1 $212 $335 $483 $489 reversed $133 $-1 #
coedge $-1 $485 $490 $212 $338 forward $480 $-1 #
edge $-1 $491 4.8746310591319073 $492 18.708161415429636 $337 $493 forward 7 unknown #
loop $-1 $-1 $344 $213 #
plane-surface $-1 -55.529038361766411 12.840417273795868 0.36814341723459165 -0.5877852598018023 0 0.80901698891910034 0.80901698891910034 0 0.5877852598018023 forward_v I I I I #
loop $-1 $-1 $494 $135 #
coedge $-1 $342 $342 $343 $495 reversed $214 $-1 #
coedge $-1 $343 $343 $342 $495 forward $216 $-1 #
coedge $-1 $344 $344 $217 $345 forward $339 $-1 #
edge $-1 $496 0 $496 6.2831853071796004 $344 $497 forward 7 unknown #
loop $-1 $-1 $351 $218 #
plane-surface $-1 -55.529038361766411 12.840417273795868 0.36814341723459165 -0.5877852598018023 0 0.80901698891910034 0.80901698891910034 0 0.5877852598018023 forward_v I I I I #
loop $-1 $-1 $498 $138 #
coedge $-1 $349 $349 $350 $499 reversed $219 $-1 #
coedge $-1 $350 $350 $349 $499 forward $221 $-1 #
coedge $-1 $351 $351 $222 $352 forward $346 $-1 #
edge $-1 $500 0 $500 6.2831853071796004 $351 $501 forward 7 unknown #
loop $-1 $-1 $358 $223 #
plane-surface $-1 -55.529038361766411 12.840417273795868 0.36814341723459165 -0.5877852598018023 0 0.80901698891910034 0.80901698891910034 0 0.5877852598018023 forward_v I I I I #
loop $-1 $-1 $502 $141 #
coedge $-1 $356 $356 $357 $503 reversed $224 $-1 #
coedge $-1 $357 $357 $356 $503 forward $226 $-1 #
coedge $-1 $358 $358 $227 $359 forward $353 $-1 #
edge $-1 $504 0 $504 6.2831853071796004 $358 $505 forward 7 unknown #
face $-1 $506 $507 $54 $-1 $508 reversed single #
loop $-1 $-1 $509 $228 #
plane-surface $-1 -55.529038361766411 0 0 1 0 0 0 0 -1 forward_v I I I I #
coedge $-1 $510 $371 $511 $512 forward $229 $-1 #
coedge $-1 $513 $231 $510 $514 forward $145 $-1 #
coedge $-1 $231 $513 $515 $516 forward $145 $-1 #
coedge $-1 $374 $373 $231 $367 reversed $375 $-1 #
edge $-1 $517 -23.568532395894234 $518 23.568532395894234 $366 $519 forward 7 unknown #
coedge $-1 $233 $232 $520 $521 forward $91 $-1 #
coedge $-1 $522 $523 $232 $370 reversed $507 $-1 #
edge $-1 $377 -55.529038361766411 $524 55.529038361766411 $369 $525 forward 7 unknown #
coedge $-1 $363 $526 $233 $372 reversed $229 $-1 #
edge $-1 $527 -55.529038361766411 $376 55.529038361766411 $371 $528 forward 7 unknown #
coedge $-1 $366 $234 $526 $529 forward $375 $-1 #
coedge $-1 $234 $366 $522 $530 reversed $375 $-1 #
loop $-1 $-1 $373 $506 #
vertex $-1 $235 $531 #
vertex $-1 $235 $532 #
straight-curve $-1 55.529038361766411 0 10.418791729720986 0 1 0 I I #
face $-1 $533 $534 $55 $-1 $535 reversed single #
loop $-1 $-1 $536 $236 #
plane-surface $-1 0 0 10.418791729720986 0 0 1 1 0 0 forward_v I I I I #
coedge $-1 $537 $538 $539 $540 reversed $237 $-1 #
coedge $-1 $242 $239 $541 $542 reversed $149 $-1 #
coedge $-1 $239 $242 $543 $544 reversed $149 $-1 #
coedge $-1 $538 $537 $239 $386 reversed $237 $-1 #
edge $-1 $545 -10.418791729720986 $546 10.418791729720986 $385 $547 forward 7 unknown #
coedge $-1 $241 $240 $548 $549 reversed $94 $-1 #
coedge $-1 $541 $550 $240 $389 forward $534 $-1 #
edge $-1 $551 -14.098995042028749 $393 -4.8400796657022216 $388 $552 forward 7 unknown #
coedge $-1 $553 $543 $241 $391 forward $380 $-1 #
edge $-1 $392 4.8400796657022216 $554 14.098995042028749 $390 $555 forward 7 unknown #
vertex $-1 $391 $556 #
vertex $-1 $389 $557 #
straight-curve $-1 -49.546342970276896 -14.309617019567707 0 0 0 -1 I I #
face $-1 $-1 $407 $56 $-1 $558 forward single #
loop $-1 $-1 $559 $244 #
plane-surface $-1 55.529038361766411 0 0 -1 0 0 0 0 1 forward_v I I I I #
coedge $-1 $560 $561 $562 $563 reversed $245 $-1 #
coedge $-1 $564 $247 $249 $405 forward $153 $-1 #
coedge $-1 $247 $564 $560 $565 forward $153 $-1 #
coedge $-1 $562 $250 $247 $402 forward $407 $-1 #
edge $-1 $409 -2.1091665893525118 $566 5.6906684868218562 $401 $567 forward 7 unknown #
coedge $-1 $568 $569 $248 $404 forward $396 $-1 #
edge $-1 $570 -77.379013944407291 $408 -67.328365631920889 $403 $571 forward 7 unknown #
edge $-1 $409 93.958892719028483 $570 111.05807672353282 $249 $572 forward 7 unknown #
coedge $-1 $250 $562 $568 $573 forward $407 $-1 #
loop $-1 $-1 $562 $395 #
vertex $-1 $404 $574 #
vertex $-1 $251 $575 #
straight-curve $-1 15.479734007888844 0.31841564061783956 10.418791729720979 -1 0 0 I I #
coedge $-1 $411 $411 $-1 $576 reversed $254 $-1 #
edge $-1 $577 0 $577 6.2831853071796004 $255 $578 forward 7 unknown #
vertex $-1 $258 $579 #
ellipse-curve $-1 48.612273183617539 -5.9214524203216534 5.3934675734777873 0.5877852598018023 0 0.80901698891910034 0.40450849445955017 0 -0.29389262990090115 1 I I #
coedge $-1 $415 $415 $-1 $580 reversed $261 $-1 #
edge $-1 $581 0 $581 6.2831853071796004 $262 $582 forward 7 unknown #
vertex $-1 $265 $583 #
ellipse-curve $-1 48.612273183617539 -3.5815018974693444 5.3934675734777873 0.5877852598018023 0 0.80901698891910034 0.40450849445955017 0 -0.29389262990090115 1 I I #
coedge $-1 $419 $419 $-1 $584 reversed $268 $-1 #
edge $-1 $585 0 $585 6.2831853071796004 $269 $586 forward 7 unknown #
vertex $-1 $272 $587 #
ellipse-curve $-1 48.612273183617539 -1.2415513746170355 5.3934675734777873 0.5877852598018023 0 0.80901698891910034 0.40450849445955017 0 -0.29389262990090115 1 I I #
face $-1 $-1 $435 $60 $-1 $588 forward single #
loop $-1 $-1 $589 $273 #
plane-surface $-1 55.529038361766411 0 0 -1 0 0 0 0 1 forward_v I I I I #
coedge $-1 $590 $591 $592 $593 reversed $274 $-1 #
coedge $-1 $594 $276 $278 $433 forward $172 $-1 #
coedge $-1 $276 $594 $590 $595 forward $172 $-1 #
coedge $-1 $592 $279 $276 $430 forward $435 $-1 #
edge $-1 $437 -10.320126174985118 $596 -2.5202910988107501 $429 $597 forward 7 unknown #
coedge $-1 $598 $599 $277 $432 forward $424 $-1 #
edge $-1 $600 -77.379013944407291 $436 -67.328365631920889 $431 $601 forward 7 unknown #
edge $-1 $437 93.958892719028483 $600 111.05807672353282 $278 $602 forward 7 unknown #
coedge $-1 $279 $592 $598 $603 forward $435 $-1 #
loop $-1 $-1 $592 $423 #
vertex $-1 $432 $604 #
vertex $-1 $280 $605 #
straight-curve $-1 15.479734007888844 16.740334811883052 10.418791729720979 -1 0 0 I I #
coedge $-1 $439 $439 $-1 $606 reversed $283 $-1 #
edge $-1 $607 0 $607 6.2831853071796004 $284 $608 forward 7 unknown #
vertex $-1 $287 $609 #
ellipse-curve $-1 48.612273183617539 10.500466750943563 5.3934675734777873 0.5877852598018023 0 0.80901698891910034 0.40450849445955017 0 -0.29389262990090115 1 I I #
coedge $-1 $443 $443 $-1 $610 reversed $290 $-1 #
edge $-1 $611 0 $611 6.2831853071796004 $291 $612 forward 7 unknown #
vertex $-1 $294 $613 #
ellipse-curve $-1 48.612273183617539 12.840417273795868 5.3934675734777873 0.5877852598018023 0 0.80901698891910034 0.40450849445955017 0 -0.29389262990090115 1 I I #
coedge $-1 $447 $447 $-1 $614 reversed $297 $-1 #
edge $-1 $615 0 $615 6.2831853071796004 $298 $616 forward 7 unknown #
vertex $-1 $301 $617 #
ellipse-curve $-1 48.612273183617539 15.180367796648174 5.3934675734777873 0.5877852598018023 0 0.80901698891910034 0.40450849445955017 0 -0.29389262990090115 1 I I #
face $-1 $-1 $463 $64 $-1 $618 forward single #
loop $-1 $-1 $619 $302 #
plane-surface $-1 -55.529038361766411 0 0 1 0 0 0 0 -1 forward_v I I I I #
coedge $-1 $620 $621 $622 $623 reversed $303 $-1 #
coedge $-1 $624 $305 $307 $461 forward $191 $-1 #
coedge $-1 $305 $624 $620 $625 forward $191 $-1 #
coedge $-1 $622 $308 $305 $458 forward $463 $-1 #
edge $-1 $465 -5.6906684868218562 $626 2.1091665893525118 $457 $627 forward 7 unknown #
coedge $-1 $628 $629 $306 $460 forward $452 $-1 #
edge $-1 $630 -44.739863704392178 $464 -34.689215391905783 $459 $631 forward 7 unknown #
edge $-1 $465 -17.09918400450432 $630 0 $307 $632 forward 7 unknown #
coedge $-1 $308 $622 $628 $633 forward $463 $-1 #
loop $-1 $-1 $622 $451 #
vertex $-1 $460 $634 #
vertex $-1 $309 $635 #
straight-curve $-1 -60.403669420898318 -7.4814194355565284 10.418791729720986 1 0 0 I I #
coedge $-1 $467 $467 $-1 $636 reversed $312 $-1 #
edge $-1 $637 0 $637 6.2831853071796004 $313 $638 forward 7 unknown #
vertex $-1 $316 $639 #
ellipse-curve $-1 -48.612273183617546 -5.9214524203216534 5.393467573477789 -0.5877852598018023 0 0.80901698891910034 0.40450849445955017 0 0.29389262990090115 1 I I #
coedge $-1 $471 $471 $-1 $640 reversed $319 $-1 #
edge $-1 $641 0 $641 6.2831853071796004 $320 $642 forward 7 unknown #
vertex $-1 $323 $643 #
ellipse-curve $-1 -48.612273183617546 -3.5815018974693444 5.393467573477789 -0.5877852598018023 0 0.80901698891910034 0.40450849445955017 0 0.29389262990090115 1 I I #
coedge $-1 $475 $475 $-1 $644 reversed $326 $-1 #
edge $-1 $645 0 $645 6.2831853071796004 $327 $646 forward 7 unknown #
vertex $-1 $330 $647 #
ellipse-curve $-1 -48.612273183617546 -1.2415513746170355 5.393467573477789 -0.5877852598018023 0 0.80901698891910034 0.40450849445955017 0 0.29389262990090115 1 I I #
face $-1 $-1 $648 $68 $-1 $649 reversed single #
loop $-1 $-1 $337 $331 #
plane-surface $-1 0 0 10.418791729720986 0 0 1 1 0 0 forward_v I I I I #
coedge $-1 $650 $651 $652 $653 reversed $332 $-1 #
coedge $-1 $654 $334 $336 $489 forward $210 $-1 #
coedge $-1 $334 $654 $650 $655 forward $210 $-1 #
coedge $-1 $652 $337 $334 $486 forward $480 $-1 #
edge $-1 $492 2.5202910988107501 $656 10.320126174985118 $485 $657 forward 7 unknown #
coedge $-1 $658 $659 $335 $488 forward $648 $-1 #
edge $-1 $660 -44.739863704392178 $491 -34.689215391905783 $487 $661 forward 7 unknown #
edge $-1 $492 -17.09918400450432 $660 0 $336 $662 forward 7 unknown #
coedge $-1 $337 $652 $658 $663 forward $480 $-1 #
vertex $-1 $488 $664 #
vertex $-1 $338 $665 #
straight-curve $-1 -60.403669420898318 8.9404997357086842 10.418791729720986 1 0 0 I I #
coedge $-1 $494 $494 $-1 $666 reversed $341 $-1 #
edge $-1 $667 0 $667 6.2831853071796004 $342 $668 forward 7 unknown #
vertex $-1 $345 $669 #
ellipse-curve $-1 -48.612273183617546 10.500466750943563 5.393467573477789 -0.5877852598018023 0 0.80901698891910034 0.40450849445955017 0 0.29389262990090115 1 I I #
coedge $-1 $498 $498 $-1 $670 reversed $348 $-1 #
edge $-1 $671 0 $671 6.2831853071796004 $349 $672 forward 7 unknown #
vertex $-1 $352 $673 #
ellipse-curve $-1 -48.612273183617546 12.840417273795868 5.393467573477789 -0.5877852598018023 0 0.80901698891910034 0.40450849445955017 0 0.29389262990090115 1 I I #
coedge $-1 $502 $502 $-1 $674 reversed $355 $-1 #
edge $-1 $675 0 $675 6.2831853071796004 $356 $676 forward 7 unknown #
vertex $-1 $359 $677 #
ellipse-curve $-1 -48.612273183617546 15.180367796648174 5.393467573477789 -0.5877852598018023 0 0.80901698891910034 0.40450849445955017 0 0.29389262990090115 1 I I #
face $-1 $-1 $375 $54 $-1 $678 reversed single #
loop $-1 $-1 $522 $360 #
plane-surface $-1 0 23.568532395894234 0 0 -1 0 0 0 -1 forward_v I I I I #
coedge $-1 $679 $520 $523 $680 forward $361 $-1 #
coedge $-1 $526 $363 $364 $514 reversed $229 $-1 #
coedge $-1 $520 $679 $363 $512 reversed $361 $-1 #
edge $-1 $527 -10.418791729720986 $681 10.418791729720986 $511 $682 forward 7 unknown #
coedge $-1 $365 $364 $679 $683 forward $145 $-1 #
edge $-1 $518 -55.529038361766411 $681 55.529038361766411 $510 $684 forward 7 unknown #
coedge $-1 $523 $522 $365 $516 reversed $507 $-1 #
edge $-1 $685 -55.529038361766411 $517 55.529038361766411 $515 $686 forward 7 unknown #
vertex $-1 $367 $687 #
vertex $-1 $529 $688 #
straight-curve $-1 55.529038361766411 0 -10.418791729720986 0 -1 0 I I #
coedge $-1 $509 $511 $368 $521 reversed $361 $-1 #
edge $-1 $524 -23.568532395894234 $527 23.568532395894234 $520 $689 forward 7 unknown #
coedge $-1 $515 $369 $374 $530 forward $507 $-1 #
coedge $-1 $369 $515 $509 $680 reversed $507 $-1 #
vertex $-1 $370 $690 #
straight-curve $-1 0 23.568532395894234 10.418791729720986 -1 0 0 I I #
coedge $-1 $371 $510 $373 $529 reversed $229 $-1 #
vertex $-1 $521 $691 #
straight-curve $-1 0 -23.568532395894234 10.418791729720986 1 0 0 I I #
edge $-1 $376 -10.418791729720986 $518 10.418791729720986 $373 $692 forward 7 unknown #
edge $-1 $377 -10.418791729720986 $517 10.418791729720986 $374 $693 forward 7 unknown #
point $-1 55.529038361766411 -23.568532395894234 10.418791729720986 #
point $-1 55.529038361766411 23.568532395894234 10.418791729720986 #
face $-1 $-1 $694 $55 $-1 $695 reversed single #
loop $-1 $-1 $696 $379 #
plane-surface $-1 0 0 -10.418791729720986 0 0 1 1 0 0 forward_v I I I I #
coedge $-1 $543 $553 $538 $697 forward $380 $-1 #
coedge $-1 $385 $382 $696 $698 reversed $237 $-1 #
coedge $-1 $382 $385 $536 $697 reversed $237 $-1 #
coedge $-1 $699 $700 $382 $540 forward $694 $-1 #
edge $-1 $701 -10.418791729720986 $702 10.418791729720986 $539 $703 forward 7 unknown #
coedge $-1 $696 $388 $383 $542 forward $534 $-1 #
edge $-1 $393 -26.104065848476765 $546 -20.780488395123498 $541 $704 forward 7 unknown #
coedge $-1 $390 $536 $384 $544 forward $380 $-1 #
edge $-1 $545 20.780488395123498 $392 26.104065848476765 $543 $705 forward 7 unknown #
vertex $-1 $544 $706 #
vertex $-1 $542 $707 #
straight-curve $-1 -44.22276551692363 -14.309617019567707 0 0 0 -1 I I #
coedge $-1 $700 $699 $387 $549 forward $694 $-1 #
edge $-1 $554 -10.418791729720986 $551 10.418791729720986 $548 $708 forward 7 unknown #
coedge $-1 $388 $696 $700 $709 forward $534 $-1 #
vertex $-1 $389 $710 #
straight-curve $-1 -49.546342970276896 -9.4695373538654852 -10.418791729720986 0 1 0 I I #
coedge $-1 $536 $390 $699 $711 forward $380 $-1 #
vertex $-1 $711 $712 #
straight-curve $-1 -49.546342970276896 -9.4695373538654852 10.418791729720986 0 -1 0 I I #
point $-1 -49.546342970276896 -14.309617019567707 10.418791729720986 #
point $-1 -49.546342970276896 -14.309617019567707 -10.418791729720986 #
plane-surface $-1 0 0 10.418791729720986 0 0 1 1 0 0 forward_v I I I I #
coedge $-1 $569 $568 $561 $713 forward $396 $-1 #
coedge $-1 $561 $398 $400 $565 reversed $245 $-1 #
coedge $-1 $398 $560 $559 $713 reversed $245 $-1 #
coedge $-1 $406 $401 $398 $563 forward $407 $-1 #
edge $-1 $566 26.215773997579824 $714 40.049304353877567 $562 $715 forward 7 unknown #
coedge $-1 $400 $399 $569 $716 reversed $153 $-1 #
edge $-1 $717 -111.05807672353282 $566 -93.958892719028483 $560 $718 forward 7 unknown #
vertex $-1 $402 $719 #
straight-curve $-1 41.695508005468668 -1.7907509487346722 10.418791729720986 0 -1 0 I I #
coedge $-1 $559 $403 $406 $573 reversed $396 $-1 #
coedge $-1 $403 $559 $564 $716 forward $396 $-1 #
vertex $-1 $404 $720 #
straight-curve $-1 55.529038361766411 0.31841564061783956 77.747157361641882 0 0 1 I I #
straight-curve $-1 -34.318832464252537 0.31841564061783956 65.646443897264817 0.80901698891910034 0 -0.5877852598018023 I I #
edge $-1 $714 -7.4814194355565284 $408 0.31841564061783956 $568 $721 forward 7 unknown #
point $-1 55.529038361766411 0.31841564061783956 10.418791729720986 #
point $-1 41.695508005468668 0.31841564061783956 10.418791729720986 #
edge $-1 $722 1 $722 0 $411 $-1 forward 7 unknown #
vertex $-1 $412 $723 #
ellipse-curve $-1 48.024487923815734 -5.9214524203216534 4.5844505845586818 0.5877852598018023 0 0.80901698891910034 0.40450849445955017 0 -0.29389262990090115 1 I I #
point $-1 49.016781678077088 -5.9214524203216534 5.0995749435768811 #
edge $-1 $724 1 $724 0 $415 $-1 forward 7 unknown #
vertex $-1 $416 $725 #
ellipse-curve $-1 48.024487923815734 -3.5815018974693444 4.5844505845586818 0.5877852598018023 0 0.80901698891910034 0.40450849445955017 0 -0.29389262990090115 1 I I #
point $-1 49.016781678077088 -3.5815018974693444 5.0995749435768811 #
edge $-1 $726 1 $726 0 $419 $-1 forward 7 unknown #
vertex $-1 $420 $727 #
ellipse-curve $-1 48.024487923815734 -1.2415513746170355 4.5844505845586818 0.5877852598018023 0 0.80901698891910034 0.40450849445955017 0 -0.29389262990090115 1 I I #
point $-1 49.016781678077088 -1.2415513746170355 5.0995749435768811 #
plane-surface $-1 0 0 10.418791729720986 0 0 1 1 0 0 forward_v I I I I #
coedge $-1 $599 $598 $591 $728 forward $424 $-1 #
coedge $-1 $591 $426 $428 $595 reversed $274 $-1 #
coedge $-1 $426 $590 $589 $728 reversed $274 $-1 #
coedge $-1 $434 $429 $426 $593 forward $435 $-1 #
edge $-1 $596 26.215773997579824 $729 40.049304353877567 $592 $730 forward 7 unknown #
coedge $-1 $428 $427 $599 $731 reversed $172 $-1 #
edge $-1 $732 -111.05807672353282 $596 -93.958892719028483 $590 $733 forward 7 unknown #
vertex $-1 $430 $734 #
straight-curve $-1 41.695508005468668 6.4202086368979341 10.418791729720986 0 -1 0 I I #
coedge $-1 $589 $431 $434 $603 reversed $424 $-1 #
coedge $-1 $431 $589 $594 $731 forward $424 $-1 #
vertex $-1 $432 $735 #
straight-curve $-1 55.529038361766411 16.740334811883052 77.747157361641882 0 0 1 I I #
straight-curve $-1 -34.318832464252537 16.740334811883052 65.646443897264817 0.80901698891910034 0 -0.5877852598018023 I I #
edge $-1 $729 8.9404997357086842 $436 16.740334811883052 $598 $736 forward 7 unknown #
point $-1 55.529038361766411 16.740334811883052 10.418791729720986 #
point $-1 41.695508005468668 16.740334811883052 10.418791729720986 #
edge $-1 $737 1 $737 0 $439 $-1 forward 7 unknown #
vertex $-1 $440 $738 #
ellipse-curve $-1 48.024487923815734 10.500466750943563 4.5844505845586818 0.5877852598018023 0 0.80901698891910034 0.40450849445955017 0 -0.29389262990090115 1 I I #
point $-1 49.016781678077088 10.500466750943563 5.0995749435768811 #
edge $-1 $739 1 $739 0 $443 $-1 forward 7 unknown #
vertex $-1 $444 $740 #
ellipse-curve $-1 48.024487923815734 12.840417273795868 4.5844505845586818 0.5877852598018023 0 0.80901698891910034 0.40450849445955017 0 -0.29389262990090115 1 I I #
point $-1 49.016781678077088 12.840417273795868 5.0995749435768811 #
edge $-1 $741 1 $741 0 $447 $-1 forward 7 unknown #
vertex $-1 $448 $742 #
ellipse-curve $-1 48.024487923815734 15.180367796648174 4.5844505845586818 0.5877852598018023 0 0.80901698891910034 0.40450849445955017 0 -0.29389262990090115 1 I I #
point $-1 49.016781678077088 15.180367796648174 5.0995749435768811 #
plane-surface $-1 0 0 10.418791729720986 0 0 1 1 0 0 forward_v I I I I #
coedge $-1 $629 $628 $621 $743 forward $452 $-1 #
coedge $-1 $621 $454 $456 $625 reversed $303 $-1 #
coedge $-1 $454 $620 $619 $743 reversed $303 $-1 #
coedge $-1 $462 $457 $454 $623 forward $463 $-1 #
edge $-1 $626 -18.708161415429636 $744 -4.8746310591319073 $622 $745 forward 7 unknown #
coedge $-1 $456 $455 $629 $746 reversed $191 $-1 #
edge $-1 $747 0 $626 17.09918400450432 $620 $748 forward 7 unknown #
vertex $-1 $458 $749 #
straight-curve $-1 -41.695508005468675 -1.7907509487346722 10.418791729720986 0 1 0 I I #
coedge $-1 $619 $459 $462 $633 reversed $452 $-1 #
coedge $-1 $459 $619 $624 $746 forward $452 $-1 #
vertex $-1 $460 $750 #
straight-curve $-1 -55.529038361766411 -7.4814194355565284 45.10800712162677 0 0 1 I I #
straight-curve $-1 -55.529038361766411 -7.4814194355565284 0.36814341723459165 -0.80901698891910034 0 -0.5877852598018023 I I #
edge $-1 $744 -0.31841564061783956 $464 7.4814194355565284 $628 $751 forward 7 unknown #
point $-1 -55.529038361766411 -7.4814194355565284 10.418791729720986 #
point $-1 -41.695508005468682 -7.4814194355565284 10.418791729720988 #
edge $-1 $752 1 $752 0 $467 $-1 forward 7 unknown #
vertex $-1 $468 $753 #
ellipse-curve $-1 -48.024487923815748 -5.9214524203216534 4.584450584558696 -0.5877852598018023 0 0.80901698891910034 0.40450849445955017 0 0.29389262990090115 1 I I #
point $-1 -48.207764689158005 -5.9214524203216534 5.687360203378697 #
edge $-1 $754 1 $754 0 $471 $-1 forward 7 unknown #
vertex $-1 $472 $755 #
ellipse-curve $-1 -48.024487923815748 -3.5815018974693444 4.584450584558696 -0.5877852598018023 0 0.80901698891910034 0.40450849445955017 0 0.29389262990090115 1 I I #
point $-1 -48.207764689158005 -3.5815018974693444 5.687360203378697 #
edge $-1 $756 1 $756 0 $475 $-1 forward 7 unknown #
vertex $-1 $476 $757 #
ellipse-curve $-1 -48.024487923815748 -1.2415513746170355 4.584450584558696 -0.5877852598018023 0 0.80901698891910034 0.40450849445955017 0 0.29389262990090115 1 I I #
point $-1 -48.207764689158005 -1.2415513746170355 5.687360203378697 #
loop $-1 $-1 $487 $479 #
plane-surface $-1 -55.529038361766411 0 0 1 0 0 0 0 -1 forward_v I I I I #
coedge $-1 $651 $482 $484 $655 reversed $332 $-1 #
coedge $-1 $482 $650 $758 $759 reversed $332 $-1 #
coedge $-1 $490 $485 $482 $653 forward $480 $-1 #
edge $-1 $656 -18.708161415429636 $760 -4.8746310591319073 $652 $761 forward 7 unknown #
coedge $-1 $484 $483 $659 $762 reversed $210 $-1 #
edge $-1 $763 0 $656 17.09918400450432 $650 $764 forward 7 unknown #
vertex $-1 $486 $765 #
straight-curve $-1 -41.695508005468675 6.4202086368979341 10.418791729720986 0 1 0 I I #
coedge $-1 $758 $487 $490 $663 reversed $648 $-1 #
coedge $-1 $487 $758 $654 $762 forward $648 $-1 #
vertex $-1 $488 $766 #
straight-curve $-1 -55.529038361766411 8.9404997357086842 45.10800712162677 0 0 1 I I #
straight-curve $-1 -55.529038361766411 8.9404997357086842 0.36814341723459165 -0.80901698891910034 0 -0.5877852598018023 I I #
edge $-1 $760 -16.740334811883052 $491 -8.9404997357086842 $658 $767 forward 7 unknown #
point $-1 -55.529038361766411 8.9404997357086842 10.418791729720986 #
point $-1 -41.695508005468682 8.9404997357086842 10.418791729720988 #
edge $-1 $768 1 $768 0 $494 $-1 forward 7 unknown #
vertex $-1 $495 $769 #
ellipse-curve $-1 -48.024487923815748 10.500466750943563 4.584450584558696 -0.5877852598018023 0 0.80901698891910034 0.40450849445955017 0 0.29389262990090115 1 I I #
point $-1 -48.207764689158005 10.500466750943563 5.687360203378697 #
edge $-1 $770 1 $770 0 $498 $-1 forward 7 unknown #
vertex $-1 $499 $771 #
ellipse-curve $-1 -48.024487923815748 12.840417273795868 4.584450584558696 -0.5877852598018023 0 0.80901698891910034 0.40450849445955017 0 0.29389262990090115 1 I I #
point $-1 -48.207764689158005 12.840417273795868 5.687360203378697 #
edge $-1 $772 1 $772 0 $502 $-1 forward 7 unknown #
vertex $-1 $503 $773 #
ellipse-curve $-1 -48.024487923815748 15.180367796648174 4.584450584558696 -0.5877852598018023 0 0.80901698891910034 0.40450849445955017 0 0.29389262990090115 1 I I #
point $-1 -48.207764689158005 15.180367796648174 5.687360203378697 #
plane-surface $-1 55.529038361766411 0 0 -1 0 0 0 0 1 forward_v I I I I #
coedge $-1 $511 $509 $513 $683 reversed $361 $-1 #
edge $-1 $524 -10.418791729720986 $685 10.418791729720986 $523 $774 forward 7 unknown #
vertex $-1 $683 $775 #
straight-curve $-1 -55.529038361766411 -23.568532395894234 0 0 0 -1 I I #
edge $-1 $681 -23.568532395894234 $685 23.568532395894234 $679 $776 forward 7 unknown #
straight-curve $-1 0 -23.568532395894234 -10.418791729720986 -1 0 0 I I #
vertex $-1 $516 $777 #
straight-curve $-1 0 23.568532395894234 -10.418791729720986 1 0 0 I I #
point $-1 55.529038361766411 23.568532395894234 -10.418791729720986 #
point $-1 55.529038361766411 -23.568532395894234 -10.418791729720986 #
straight-curve $-1 -55.529038361766411 0 10.418791729720986 0 -1 0 I I #
point $-1 -55.529038361766411 23.568532395894234 10.418791729720986 #
point $-1 -55.529038361766411 -23.568532395894234 10.418791729720986 #
straight-curve $-1 55.529038361766411 -23.568532395894234 0 0 0 -1 I I #
straight-curve $-1 55.529038361766411 23.568532395894234 0 0 0 -1 I I #
loop $-1 $-1 $539 $533 #
plane-surface $-1 0 -23.568532395894234 0 0 1 0 0 0 1 forward_v I I I I #
coedge $-1 $550 $541 $537 $698 forward $534 $-1 #
edge $-1 $702 -14.098995042028749 $545 -4.8400796657022216 $536 $778 forward 7 unknown #
edge $-1 $546 4.8400796657022216 $701 14.098995042028749 $696 $779 forward 7 unknown #
coedge $-1 $548 $539 $553 $711 reversed $694 $-1 #
coedge $-1 $539 $548 $550 $709 reversed $694 $-1 #
vertex $-1 $709 $780 #
vertex $-1 $540 $781 #
straight-curve $-1 -44.22276551692363 -23.568532395894234 0 0 0 1 I I #
straight-curve $-1 -23.442277121800132 -14.309617019567707 -10.418791729720986 1 0 0 I I #
straight-curve $-1 -23.442277121800132 -14.309617019567707 10.418791729720986 -1 0 0 I I #
point $-1 -44.22276551692363 -14.309617019567707 10.418791729720986 #
point $-1 -44.22276551692363 -14.309617019567707 -10.418791729720986 #
straight-curve $-1 -49.546342970276896 -23.568532395894234 0 0 0 -1 I I #
edge $-1 $701 44.22276551692363 $551 49.546342970276896 $700 $782 forward 7 unknown #
point $-1 -49.546342970276896 -23.568532395894234 -10.418791729720986 #
edge $-1 $554 -49.546342970276896 $702 -44.22276551692363 $699 $783 forward 7 unknown #
point $-1 -49.546342970276896 -23.568532395894234 10.418791729720986 #
edge $-1 $714 67.328365631920889 $717 77.379013944407291 $559 $784 forward 7 unknown #
vertex $-1 $573 $785 #
straight-curve $-1 15.479734007888844 -7.4814194355565284 10.418791729720979 1 0 0 I I #
edge $-1 $717 -5.6906684868218562 $570 2.1091665893525118 $569 $786 forward 7 unknown #
vertex $-1 $716 $787 #
straight-curve $-1 -34.318832464252537 -7.4814194355565284 65.646443897264817 -0.80901698891910034 0 0.5877852598018023 I I #
point $-1 41.695508005468668 -7.4814194355565284 10.418791729720986 #
point $-1 55.529038361766411 0.31841564061783956 0.36814341723459165 #
straight-curve $-1 55.529038361766411 0 10.418791729720986 0 1 0 I I #
vertex $-1 $576 $788 #
point $-1 48.42899641827529 -5.9214524203216534 4.2905579546577801 #
vertex $-1 $580 $789 #
point $-1 48.42899641827529 -3.5815018974693444 4.2905579546577801 #
vertex $-1 $584 $790 #
point $-1 48.42899641827529 -1.2415513746170355 4.2905579546577801 #
edge $-1 $729 67.328365631920889 $732 77.379013944407291 $589 $791 forward 7 unknown #
vertex $-1 $603 $792 #
straight-curve $-1 15.479734007888844 8.9404997357086842 10.418791729720979 1 0 0 I I #
edge $-1 $732 2.5202910988107501 $600 10.320126174985118 $599 $793 forward 7 unknown #
vertex $-1 $731 $794 #
straight-curve $-1 -34.318832464252537 8.9404997357086842 65.646443897264817 -0.80901698891910034 0 0.5877852598018023 I I #
point $-1 41.695508005468668 8.9404997357086842 10.418791729720986 #
point $-1 55.529038361766411 16.740334811883052 0.36814341723459165 #
straight-curve $-1 55.529038361766411 0 10.418791729720986 0 1 0 I I #
vertex $-1 $606 $795 #
point $-1 48.42899641827529 10.500466750943563 4.2905579546577801 #
vertex $-1 $610 $796 #
point $-1 48.42899641827529 12.840417273795868 4.2905579546577801 #
vertex $-1 $614 $797 #
point $-1 48.42899641827529 15.180367796648174 4.2905579546577801 #
edge $-1 $744 34.689215391905783 $747 44.739863704392178 $619 $798 forward 7 unknown #
vertex $-1 $633 $799 #
straight-curve $-1 -60.403669420898318 0.31841564061783956 10.418791729720986 -1 0 0 I I #
edge $-1 $747 -2.1091665893525118 $630 5.6906684868218562 $629 $800 forward 7 unknown #
vertex $-1 $746 $801 #
straight-curve $-1 -55.529038361766411 0.31841564061783956 0.36814341723459165 0.80901698891910034 0 0.5877852598018023 I I #
point $-1 -41.695508005468682 0.31841564061783956 10.418791729720988 #
point $-1 -55.529038361766411 -7.4814194355565284 0.36814341723459165 #
straight-curve $-1 -55.529038361766411 0 10.418791729720986 0 -1 0 I I #
vertex $-1 $636 $802 #
point $-1 -47.619979429356199 -5.9214524203216534 4.8783432144595968 #
vertex $-1 $640 $803 #
point $-1 -47.619979429356199 -3.5815018974693444 4.8783432144595968 #
vertex $-1 $644 $804 #
point $-1 -47.619979429356199 -1.2415513746170355 4.8783432144595968 #
coedge $-1 $659 $658 $651 $759 forward $648 $-1 #
edge $-1 $760 34.689215391905783 $763 44.739863704392178 $758 $805 forward 7 unknown #
vertex $-1 $663 $806 #
straight-curve $-1 -60.403669420898318 16.740334811883052 10.418791729720986 -1 0 0 I I #
edge $-1 $763 -10.320126174985118 $660 -2.5202910988107501 $659 $807 forward 7 unknown #
vertex $-1 $762 $808 #
straight-curve $-1 -55.529038361766411 16.740334811883052 0.36814341723459165 0.80901698891910034 0 0.5877852598018023 I I #
point $-1 -41.695508005468682 16.740334811883052 10.418791729720988 #
point $-1 -55.529038361766411 8.9404997357086842 0.36814341723459165 #
straight-curve $-1 -55.529038361766411 0 10.418791729720986 0 -1 0 I I #
vertex $-1 $666 $809 #
point $-1 -47.619979429356199 10.500466750943563 4.8783432144595968 #
vertex $-1 $670 $810 #
point $-1 -47.619979429356199 12.840417273795868 4.8783432144595968 #
vertex $-1 $674 $811 #
point $-1 -47.619979429356199 15.180367796648174 4.8783432144595968 #
straight-curve $-1 -55.529038361766411 23.568532395894234 0 0 0 -1 I I #
point $-1 -55.529038361766411 -23.568532395894234 -10.418791729720986 #
straight-curve $-1 -55.529038361766411 0 -10.418791729720986 0 1 0 I I #
point $-1 -55.529038361766411 23.568532395894234 -10.418791729720986 #
straight-curve $-1 -44.22276551692363 -9.4695373538654852 10.418791729720986 0 1 0 I I #
straight-curve $-1 -44.22276551692363 -9.4695373538654852 -10.418791729720986 0 -1 0 I I #
point $-1 -44.22276551692363 -23.568532395894234 -10.418791729720986 #
point $-1 -44.22276551692363 -23.568532395894234 10.418791729720986 #
straight-curve $-1 0 -23.568532395894234 -10.418791729720986 -1 0 0 I I #
straight-curve $-1 0 -23.568532395894234 10.418791729720986 1 0 0 I I #
straight-curve $-1 55.529038361766411 -7.4814194355565284 77.747157361641882 0 0 -1 I I #
point $-1 55.529038361766411 -7.4814194355565284 10.418791729720986 #
straight-curve $-1 55.529038361766411 -1.7907509487346722 0.36814341723458455 0 1 0 I I #
point $-1 55.529038361766411 -7.4814194355565284 0.36814341723459165 #
point $-1 47.730595293914838 -5.9214524203216534 4.1799420900991313 #
point $-1 47.730595293914838 -3.5815018974693444 4.1799420900991313 #
point $-1 47.730595293914838 -1.2415513746170355 4.1799420900991313 #
straight-curve $-1 55.529038361766411 8.9404997357086842 77.747157361641882 0 0 -1 I I #
point $-1 55.529038361766411 8.9404997357086842 10.418791729720986 #
straight-curve $-1 55.529038361766411 6.4202086368979341 0.36814341723458455 0 1 0 I I #
point $-1 55.529038361766411 8.9404997357086842 0.36814341723459165 #
point $-1 47.730595293914838 10.500466750943563 4.1799420900991313 #
point $-1 47.730595293914838 12.840417273795868 4.1799420900991313 #
point $-1 47.730595293914838 15.180367796648174 4.1799420900991313 #
straight-curve $-1 -55.529038361766411 0.31841564061783956 45.10800712162677 0 0 -1 I I #
point $-1 -55.529038361766411 0.31841564061783956 10.418791729720986 #
straight-curve $-1 -55.529038361766411 -1.7907509487346722 0.36814341723458921 0 -1 0 I I #
point $-1 -55.529038361766411 0.31841564061783956 0.36814341723459165 #
point $-1 -47.730595293914853 -5.9214524203216534 4.1799420900991455 #
point $-1 -47.730595293914853 -3.5815018974693444 4.1799420900991455 #
point $-1 -47.730595293914853 -1.2415513746170355 4.1799420900991455 #
straight-curve $-1 -55.529038361766411 16.740334811883052 45.10800712162677 0 0 -1 I I #
point $-1 -55.529038361766411 16.740334811883052 10.418791729720986 #
straight-curve $-1 -55.529038361766411 6.4202086368979341 0.36814341723458921 0 -1 0 I I #
point $-1 -55.529038361766411 16.740334811883052 0.36814341723459165 #
point $-1 -47.730595293914853 10.500466750943563 4.1799420900991455 #
point $-1 -47.730595293914853 12.840417273795868 4.1799420900991455 #
point $-1 -47.730595293914853 15.180367796648174 4.1799420900991455 #
End-of-ACIS-data 