500 0 17 0           
7 Unknown 11 ACIS 5.0 NT 24 Fri Mar 26 01:35:06 1999 
-1 9.9999999999999995e-007 1e-010 
body $-1 $17 $-1 $18 #
body $-1 $19 $-1 $20 #
body $-1 $21 $-1 $22 #
body $-1 $23 $-1 $24 #
body $-1 $25 $-1 $26 #
body $-1 $27 $-1 $28 #
body $-1 $29 $-1 $30 #
body $-1 $31 $-1 $32 #
body $-1 $33 $-1 $34 #
body $-1 $35 $-1 $36 #
body $-1 $37 $-1 $38 #
body $-1 $39 $-1 $40 #
body $-1 $41 $-1 $42 #
body $-1 $43 $-1 $44 #
body $-1 $45 $-1 $46 #
body $-1 $47 $-1 $48 #
body $-1 $49 $-1 $50 #
lump $-1 $-1 $51 $0 #
transform $-1 1 0 0 0 1 0 0 0 1 44.262825403607287 22.524370736103684 8.786683677483385 1 rotate no_reflect no_shear #
lump $-1 $-1 $52 $1 #
transform $-1 1 0 0 0 1 0 0 0 1 44.262825403607287 22.524370736103684 8.786683677483385 1 rotate no_reflect no_shear #
lump $-1 $-1 $53 $2 #
transform $-1 1 0 0 0 1 0 0 0 1 44.262825403607287 22.524370736103684 8.786683677483385 1 rotate no_reflect no_shear #
lump $-1 $-1 $54 $3 #
transform $-1 1 0 0 0 1 0 0 0 1 44.262825403607287 22.524370736103684 8.786683677483385 1 rotate no_reflect no_shear #
lump $-1 $-1 $55 $4 #
transform $-1 1 0 0 0 1 0 0 0 1 44.262825403607287 22.524370736103684 8.786683677483385 1 rotate no_reflect no_shear #
lump $-1 $-1 $56 $5 #
transform $-1 1 0 0 0 1 0 0 0 1 44.262825403607287 22.524370736103684 8.786683677483385 1 rotate no_reflect no_shear #
lump $-1 $-1 $57 $6 #
transform $-1 1 0 0 0 1 0 0 0 1 44.262825403607287 22.524370736103684 8.786683677483385 1 rotate no_reflect no_shear #
lump $-1 $-1 $58 $7 #
transform $-1 1 0 0 0 1 0 0 0 1 44.262825403607287 22.524370736103684 8.786683677483385 1 rotate no_reflect no_shear #
lump $-1 $-1 $59 $8 #
transform $-1 1 0 0 0 1 0 0 0 1 44.262825403607287 22.524370736103684 8.786683677483385 1 rotate no_reflect no_shear #
lump $-1 $-1 $60 $9 #
transform $-1 1 0 0 0 1 0 0 0 1 44.262825403607287 22.524370736103684 8.786683677483385 1 rotate no_reflect no_shear #
lump $-1 $-1 $61 $10 #
transform $-1 1 0 0 0 1 0 0 0 1 44.262825403607287 22.524370736103684 8.786683677483385 1 rotate no_reflect no_shear #
lump $-1 $-1 $62 $11 #
transform $-1 1 0 0 0 1 0 0 0 1 44.262825403607287 22.524370736103684 8.786683677483385 1 rotate no_reflect no_shear #
lump $-1 $-1 $63 $12 #
transform $-1 1 0 0 0 1 0 0 0 1 44.262825403607287 22.524370736103684 8.786683677483385 1 rotate no_reflect no_shear #
lump $-1 $-1 $64 $13 #
transform $-1 1 0 0 0 1 0 0 0 1 44.262825403607287 22.524370736103684 8.786683677483385 1 rotate no_reflect no_shear #
lump $-1 $-1 $65 $14 #
transform $-1 1 0 0 0 1 0 0 0 1 44.262825403607287 22.524370736103684 8.786683677483385 1 rotate no_reflect no_shear #
lump $-1 $-1 $66 $15 #
transform $-1 1 0 0 0 1 0 0 0 1 44.262825403607287 22.524370736103684 8.786683677483385 1 rotate no_reflect no_shear #
lump $-1 $-1 $67 $16 #
transform $-1 1 0 0 0 1 0 0 0 1 44.262825403607287 22.524370736103684 8.786683677483385 1 rotate no_reflect no_shear #
shell $-1 $-1 $-1 $68 $-1 $17 #
shell $-1 $-1 $-1 $69 $-1 $19 #
shell $-1 $-1 $-1 $70 $-1 $21 #
shell $-1 $-1 $-1 $71 $-1 $23 #
shell $-1 $-1 $-1 $72 $-1 $25 #
shell $-1 $-1 $-1 $73 $-1 $27 #
shell $-1 $-1 $-1 $74 $-1 $29 #
shell $-1 $-1 $-1 $75 $-1 $31 #
shell $-1 $-1 $-1 $76 $-1 $33 #
shell $-1 $-1 $-1 $77 $-1 $35 #
shell $-1 $-1 $-1 $78 $-1 $37 #
shell $-1 $-1 $-1 $79 $-1 $39 #
shell $-1 $-1 $-1 $80 $-1 $41 #
shell $-1 $-1 $-1 $81 $-1 $43 #
shell $-1 $-1 $-1 $82 $-1 $45 #
shell $-1 $-1 $-1 $83 $-1 $47 #
shell $-1 $-1 $-1 $84 $-1 $49 #
face $-1 $85 $86 $51 $-1 $87 forward single #
face $-1 $88 $89 $52 $-1 $90 reversed single #
face $-1 $91 $92 $53 $-1 $93 forward single #
face $-1 $94 $95 $54 $-1 $96 reversed single #
face $-1 $97 $98 $55 $-1 $99 forward single #
face $-1 $100 $101 $56 $-1 $102 reversed single #
face $-1 $103 $104 $57 $-1 $105 forward single #
face $-1 $106 $107 $58 $-1 $108 reversed single #
face $-1 $109 $110 $59 $-1 $111 forward single #
face $-1 $112 $113 $60 $-1 $114 reversed single #
face $-1 $115 $116 $61 $-1 $117 forward single #
face $-1 $118 $119 $62 $-1 $120 reversed single #
face $-1 $121 $122 $63 $-1 $123 forward single #
face $-1 $124 $125 $64 $-1 $126 reversed single #
face $-1 $127 $128 $65 $-1 $129 forward single #
face $-1 $130 $131 $66 $-1 $132 reversed single #
face $-1 $133 $134 $67 $-1 $135 forward single #
face $-1 $136 $137 $51 $-1 $138 reversed single #
loop $-1 $-1 $139 $68 #
plane-surface $-1 0 0 8.786683677483385 0 0 1 1 0 0 forward_v I I I I #
face $-1 $140 $141 $52 $-1 $142 reversed single #
loop $-1 $-1 $143 $69 #
plane-surface $-1 63.84751107229814 -14.306348539349679 127.10113802010545 0 -1 0 -0.80901700255871778 0 -0.5877852410284794 forward_v I I I I #
face $-1 $144 $145 $53 $-1 $146 forward single #
loop $-1 $147 $148 $70 #
cone-surface $-1 40.590180701551553 -17.362414422805578 4.8581321140355982 -0.80901700255871778 0 -0.5877852410284794 0.8816778615427191 0 -1.2135255038380768 1 I I 0 1 1.5 forward I I I I #
face $-1 $149 $150 $54 $-1 $151 reversed single #
loop $-1 $-1 $152 $71 #
plane-surface $-1 63.84751107229814 -2.7314055908126291 127.10113802010545 0 -1 0 -0.80901700255871778 0 -0.5877852410284794 forward_v I I I I #
face $-1 $153 $154 $55 $-1 $155 forward single #
loop $-1 $156 $157 $72 #
cone-surface $-1 40.590180701551553 -5.7874714742685285 4.8581321140355982 -0.80901700255871778 0 -0.5877852410284794 0.8816778615427191 0 -1.2135255038380768 1 I I 0 1 1.5 forward I I I I #
face $-1 $158 $159 $56 $-1 $160 reversed single #
loop $-1 $-1 $161 $73 #
plane-surface $-1 63.84751107229814 8.8435373577244203 127.10113802010545 0 -1 0 -0.80901700255871778 0 -0.5877852410284794 forward_v I I I I #
face $-1 $162 $163 $57 $-1 $164 forward single #
loop $-1 $165 $166 $74 #
cone-surface $-1 40.590180701551553 5.7874714742685214 4.8581321140355982 -0.80901700255871778 0 -0.5877852410284794 0.8816778615427191 0 -1.2135255038380768 1 I I 0 1 1.5 forward I I I I #
face $-1 $167 $168 $58 $-1 $169 reversed single #
loop $-1 $-1 $170 $75 #
plane-surface $-1 63.84751107229814 20.418480306261472 127.10113802010545 0 -1 0 -0.80901700255871778 0 -0.5877852410284794 forward_v I I I I #
face $-1 $171 $172 $59 $-1 $173 forward single #
loop $-1 $174 $175 $76 #
cone-surface $-1 40.590180701551553 17.362414422805571 4.8581321140355982 -0.80901700255871778 0 -0.5877852410284794 0.8816778615427191 0 -1.2135255038380768 1 I I 0 1 1.5 forward I I I I #
face $-1 $176 $177 $60 $-1 $178 reversed single #
loop $-1 $-1 $179 $77 #
plane-surface $-1 -115.88158206921975 -20.418480306261479 55.482381354492986 0 1 0 -0.80901700255871778 0 0.5877852410284794 forward_v I I I I #
face $-1 $180 $181 $61 $-1 $182 forward single #
loop $-1 $183 $184 $78 #
cone-surface $-1 -40.590180701551553 -17.362414422805578 4.8581321140356053 0.80901700255871778 0 -0.5877852410284794 0.8816778615427191 0 1.2135255038380768 1 I I 0 1 1.5 forward I I I I #
face $-1 $185 $186 $62 $-1 $187 reversed single #
loop $-1 $-1 $188 $79 #
plane-surface $-1 -115.88158206921975 -8.8435373577244274 55.482381354492986 0 1 0 -0.80901700255871778 0 0.5877852410284794 forward_v I I I I #
face $-1 $189 $190 $63 $-1 $191 forward single #
loop $-1 $192 $193 $80 #
cone-surface $-1 -40.590180701551553 -5.7874714742685285 4.8581321140356053 0.80901700255871778 0 -0.5877852410284794 0.8816778615427191 0 1.2135255038380768 1 I I 0 1 1.5 forward I I I I #
face $-1 $194 $195 $64 $-1 $196 reversed single #
loop $-1 $-1 $197 $81 #
plane-surface $-1 -115.88158206921975 2.731405590812622 55.482381354492986 0 1 0 -0.80901700255871778 0 0.5877852410284794 forward_v I I I I #
face $-1 $198 $199 $65 $-1 $200 forward single #
loop $-1 $201 $202 $82 #
cone-surface $-1 -40.590180701551553 5.7874714742685214 4.8581321140356053 0.80901700255871778 0 -0.5877852410284794 0.8816778615427191 0 1.2135255038380768 1 I I 0 1 1.5 forward I I I I #
face $-1 $203 $204 $66 $-1 $205 reversed single #
loop $-1 $-1 $206 $83 #
plane-surface $-1 -115.88158206921975 14.306348539349672 55.482381354492986 0 1 0 -0.80901700255871778 0 0.5877852410284794 forward_v I I I I #
face $-1 $207 $208 $67 $-1 $209 forward single #
loop $-1 $210 $211 $84 #
cone-surface $-1 -40.590180701551553 17.362414422805571 4.8581321140356053 0.80901700255871778 0 -0.5877852410284794 0.8816778615427191 0 1.2135255038380768 1 I I 0 1 1.5 forward I I I I #
face $-1 $212 $213 $51 $-1 $214 reversed single #
loop $-1 $-1 $215 $85 #
plane-surface $-1 0 0 -8.786683677483385 0 0 1 1 0 0 forward_v I I I I #
coedge $-1 $216 $217 $218 $219 forward $86 $-1 #
face $-1 $220 $221 $52 $-1 $222 reversed single #
loop $-1 $-1 $223 $88 #
plane-surface $-1 -7.7712455933143261 -17.362414422805578 75.067067023183824 0.80901700255871778 0 0.5877852410284794 0.5877852410284794 0 -0.80901700255871778 forward_v I I I I #
coedge $-1 $224 $225 $226 $227 reversed $89 $-1 #
face $-1 $-1 $228 $53 $-1 $229 forward single #
loop $-1 $230 $231 $91 #
cone-surface $-1 38.250050814439014 -17.362414422805578 3.1579282797724737 -0.80901700255871778 0 -0.5877852410284794 0.44083893077135955 0 -0.60676275191903839 1 I I -0.70710678118654757 0.70710678118654757 0.75 forward I I I I #
loop $-1 $-1 $232 $70 #
coedge $-1 $148 $148 $233 $234 reversed $92 $-1 #
face $-1 $235 $236 $54 $-1 $237 reversed single #
loop $-1 $-1 $238 $94 #
plane-surface $-1 -7.7712455933143261 -5.7874714742685285 75.067067023183824 0.80901700255871778 0 0.5877852410284794 0.5877852410284794 0 -0.80901700255871778 forward_v I I I I #
coedge $-1 $239 $240 $241 $242 reversed $95 $-1 #
face $-1 $-1 $243 $55 $-1 $244 forward single #
loop $-1 $245 $246 $97 #
cone-surface $-1 38.250050814439014 -5.7874714742685285 3.1579282797724737 -0.80901700255871778 0 -0.5877852410284794 0.44083893077135955 0 -0.60676275191903839 1 I I -0.70710678118654757 0.70710678118654757 0.75 forward I I I I #
loop $-1 $-1 $247 $72 #
coedge $-1 $157 $157 $248 $249 reversed $98 $-1 #
face $-1 $250 $251 $56 $-1 $252 reversed single #
loop $-1 $-1 $253 $100 #
plane-surface $-1 -7.7712455933143261 5.7874714742685214 75.067067023183824 0.80901700255871778 0 0.5877852410284794 0.5877852410284794 0 -0.80901700255871778 forward_v I I I I #
coedge $-1 $254 $255 $256 $257 reversed $101 $-1 #
face $-1 $-1 $258 $57 $-1 $259 forward single #
loop $-1 $260 $261 $103 #
cone-surface $-1 38.250050814439014 5.7874714742685214 3.1579282797724737 -0.80901700255871778 0 -0.5877852410284794 0.44083893077135955 0 -0.60676275191903839 1 I I -0.70710678118654757 0.70710678118654757 0.75 forward I I I I #
loop $-1 $-1 $262 $74 #
coedge $-1 $166 $166 $263 $264 reversed $104 $-1 #
face $-1 $265 $266 $58 $-1 $267 reversed single #
loop $-1 $-1 $268 $106 #
plane-surface $-1 -7.7712455933143261 17.362414422805571 75.067067023183824 0.80901700255871778 0 0.5877852410284794 0.5877852410284794 0 -0.80901700255871778 forward_v I I I I #
coedge $-1 $269 $270 $271 $272 reversed $107 $-1 #
face $-1 $-1 $273 $59 $-1 $274 forward single #
loop $-1 $275 $276 $109 #
cone-surface $-1 38.250050814439014 17.362414422805571 3.1579282797724737 -0.80901700255871778 0 -0.5877852410284794 0.44083893077135955 0 -0.60676275191903839 1 I I -0.70710678118654757 0.70710678118654757 0.75 forward I I I I #
loop $-1 $-1 $277 $76 #
coedge $-1 $175 $175 $278 $279 reversed $110 $-1 #
face $-1 $280 $281 $60 $-1 $282 reversed single #
loop $-1 $-1 $283 $112 #
plane-surface $-1 -44.26282540360728 -17.362414422805578 3.4483103575713656 -0.80901700255871778 0 0.5877852410284794 0.5877852410284794 0 0.80901700255871778 forward_v I I I I #
coedge $-1 $284 $285 $286 $287 reversed $113 $-1 #
face $-1 $-1 $288 $61 $-1 $289 forward single #
loop $-1 $290 $291 $115 #
cone-surface $-1 -38.250050814439014 -17.362414422805578 3.1579282797724808 0.80901700255871778 0 -0.5877852410284794 0.44083893077135955 0 0.60676275191903839 1 I I -0.70710678118654757 0.70710678118654757 0.75 forward I I I I #
loop $-1 $-1 $292 $78 #
coedge $-1 $184 $184 $293 $294 reversed $116 $-1 #
face $-1 $295 $296 $62 $-1 $297 reversed single #
loop $-1 $-1 $298 $118 #
plane-surface $-1 -44.26282540360728 -5.7874714742685285 3.4483103575713656 -0.80901700255871778 0 0.5877852410284794 0.5877852410284794 0 0.80901700255871778 forward_v I I I I #
coedge $-1 $299 $300 $301 $302 reversed $119 $-1 #
face $-1 $-1 $303 $63 $-1 $304 forward single #
loop $-1 $305 $306 $121 #
cone-surface $-1 -38.250050814439014 -5.7874714742685285 3.1579282797724808 0.80901700255871778 0 -0.5877852410284794 0.44083893077135955 0 0.60676275191903839 1 I I -0.70710678118654757 0.70710678118654757 0.75 forward I I I I #
loop $-1 $-1 $307 $80 #
coedge $-1 $193 $193 $308 $309 reversed $122 $-1 #
face $-1 $310 $311 $64 $-1 $312 reversed single #
loop $-1 $-1 $313 $124 #
plane-surface $-1 -44.26282540360728 5.7874714742685214 3.4483103575713656 -0.80901700255871778 0 0.5877852410284794 0.5877852410284794 0 0.80901700255871778 forward_v I I I I #
coedge $-1 $314 $315 $316 $317 reversed $125 $-1 #
face $-1 $-1 $318 $65 $-1 $319 forward single #
loop $-1 $320 $321 $127 #
cone-surface $-1 -38.250050814439014 5.7874714742685214 3.1579282797724808 0.80901700255871778 0 -0.5877852410284794 0.44083893077135955 0 0.60676275191903839 1 I I -0.70710678118654757 0.70710678118654757 0.75 forward I I I I #
loop $-1 $-1 $322 $82 #
coedge $-1 $202 $202 $323 $324 reversed $128 $-1 #
face $-1 $325 $326 $66 $-1 $327 reversed single #
loop $-1 $-1 $328 $130 #
plane-surface $-1 -44.26282540360728 17.362414422805571 3.4483103575713656 -0.80901700255871778 0 0.5877852410284794 0.5877852410284794 0 0.80901700255871778 forward_v I I I I #
coedge $-1 $329 $330 $331 $332 reversed $131 $-1 #
face $-1 $-1 $333 $67 $-1 $334 forward single #
loop $-1 $335 $336 $133 #
cone-surface $-1 -38.250050814439014 17.362414422805571 3.1579282797724808 0.80901700255871778 0 -0.5877852410284794 0.44083893077135955 0 0.60676275191903839 1 I I -0.70710678118654757 0.70710678118654757 0.75 forward I I I I #
loop $-1 $-1 $337 $84 #
coedge $-1 $211 $211 $338 $339 reversed $134 $-1 #
face $-1 $340 $341 $51 $-1 $342 reversed single #
loop $-1 $-1 $343 $136 #
plane-surface $-1 0 -22.524370736103684 0 0 1 0 0 0 1 forward_v I I I I #
coedge $-1 $344 $345 $346 $347 forward $137 $-1 #
coedge $-1 $348 $139 $349 $350 forward $86 $-1 #
coedge $-1 $139 $348 $351 $352 forward $86 $-1 #
coedge $-1 $353 $354 $139 $219 reversed $355 $-1 #
edge $-1 $356 -22.524370736103684 $357 22.524370736103684 $218 $358 forward 7 unknown #
face $-1 $359 $360 $52 $-1 $361 forward single #
loop $-1 $-1 $362 $140 #
plane-surface $-1 63.84751107229814 -20.418480306261479 127.10113802010545 0 1 0 0.80901700255871778 0 0.5877852410284794 forward_v I I I I #
coedge $-1 $363 $364 $365 $366 reversed $141 $-1 #
coedge $-1 $225 $143 $367 $368 reversed $89 $-1 #
coedge $-1 $143 $224 $363 $369 reversed $89 $-1 #
coedge $-1 $365 $370 $143 $227 forward $360 $-1 #
edge $-1 $371 -12.339069867458218 $372 -8.4605147337337563 $226 $373 forward 7 unknown #
loop $-1 $-1 $233 $144 #
plane-surface $-1 -7.7712455933143261 -17.362414422805578 75.067067023183824 0.80901700255871778 0 0.5877852410284794 0.5877852410284794 0 -0.80901700255871778 forward_v I I I I #
loop $-1 $-1 $374 $91 #
coedge $-1 $231 $231 $232 $375 reversed $145 $-1 #
coedge $-1 $232 $232 $231 $375 forward $147 $-1 #
coedge $-1 $233 $233 $148 $234 forward $228 $-1 #
edge $-1 $376 0 $376 6.2831853071796004 $233 $377 forward 7 unknown #
face $-1 $378 $379 $54 $-1 $380 reversed single #
loop $-1 $-1 $381 $149 #
plane-surface $-1 63.84751107229814 -8.8435373577244274 127.10113802010545 0 1 0 0.80901700255871778 0 0.5877852410284794 forward_v I I I I #
coedge $-1 $382 $383 $384 $385 reversed $150 $-1 #
coedge $-1 $240 $152 $386 $387 reversed $95 $-1 #
coedge $-1 $152 $239 $382 $388 reversed $95 $-1 #
coedge $-1 $384 $389 $152 $242 forward $390 $-1 #
edge $-1 $391 -12.339069867458218 $392 -8.4605147337337563 $241 $393 forward 7 unknown #
loop $-1 $-1 $248 $153 #
plane-surface $-1 -7.7712455933143261 -5.7874714742685285 75.067067023183824 0.80901700255871778 0 0.5877852410284794 0.5877852410284794 0 -0.80901700255871778 forward_v I I I I #
loop $-1 $-1 $394 $97 #
coedge $-1 $246 $246 $247 $395 reversed $154 $-1 #
coedge $-1 $247 $247 $246 $395 forward $156 $-1 #
coedge $-1 $248 $248 $157 $249 forward $243 $-1 #
edge $-1 $396 0 $396 6.2831853071796004 $248 $397 forward 7 unknown #
face $-1 $398 $399 $56 $-1 $400 reversed single #
loop $-1 $-1 $401 $158 #
plane-surface $-1 63.84751107229814 2.731405590812622 127.10113802010545 0 1 0 0.80901700255871778 0 0.5877852410284794 forward_v I I I I #
coedge $-1 $402 $403 $404 $405 reversed $159 $-1 #
coedge $-1 $255 $161 $406 $407 reversed $101 $-1 #
coedge $-1 $161 $254 $402 $408 reversed $101 $-1 #
coedge $-1 $404 $409 $161 $257 forward $410 $-1 #
edge $-1 $411 -12.339069867458218 $412 -8.4605147337337563 $256 $413 forward 7 unknown #
loop $-1 $-1 $263 $162 #
plane-surface $-1 -7.7712455933143261 5.7874714742685214 75.067067023183824 0.80901700255871778 0 0.5877852410284794 0.5877852410284794 0 -0.80901700255871778 forward_v I I I I #
loop $-1 $-1 $414 $103 #
coedge $-1 $261 $261 $262 $415 reversed $163 $-1 #
coedge $-1 $262 $262 $261 $415 forward $165 $-1 #
coedge $-1 $263 $263 $166 $264 forward $258 $-1 #
edge $-1 $416 0 $416 6.2831853071796004 $263 $417 forward 7 unknown #
face $-1 $418 $419 $58 $-1 $420 reversed single #
loop $-1 $-1 $421 $167 #
plane-surface $-1 63.84751107229814 14.306348539349672 127.10113802010545 0 1 0 0.80901700255871778 0 0.5877852410284794 forward_v I I I I #
coedge $-1 $422 $423 $424 $425 reversed $168 $-1 #
coedge $-1 $270 $170 $426 $427 reversed $107 $-1 #
coedge $-1 $170 $269 $422 $428 reversed $107 $-1 #
coedge $-1 $424 $429 $170 $272 forward $430 $-1 #
edge $-1 $431 -12.339069867458218 $432 -8.4605147337337563 $271 $433 forward 7 unknown #
loop $-1 $-1 $278 $171 #
plane-surface $-1 -7.7712455933143261 17.362414422805571 75.067067023183824 0.80901700255871778 0 0.5877852410284794 0.5877852410284794 0 -0.80901700255871778 forward_v I I I I #
loop $-1 $-1 $434 $109 #
coedge $-1 $276 $276 $277 $435 reversed $172 $-1 #
coedge $-1 $277 $277 $276 $435 forward $174 $-1 #
coedge $-1 $278 $278 $175 $279 forward $273 $-1 #
edge $-1 $436 0 $436 6.2831853071796004 $278 $437 forward 7 unknown #
face $-1 $438 $439 $60 $-1 $440 reversed single #
loop $-1 $-1 $441 $176 #
plane-surface $-1 -115.88158206921975 -14.306348539349679 55.482381354492986 0 -1 0 0.80901700255871778 0 -0.5877852410284794 forward_v I I I I #
coedge $-1 $442 $443 $444 $445 reversed $177 $-1 #
coedge $-1 $285 $179 $446 $447 reversed $113 $-1 #
coedge $-1 $179 $284 $442 $448 reversed $113 $-1 #
coedge $-1 $444 $449 $179 $287 forward $450 $-1 #
edge $-1 $451 13.677965631002586 $452 17.556520764727054 $286 $453 forward 7 unknown #
loop $-1 $-1 $293 $180 #
plane-surface $-1 -44.26282540360728 -17.362414422805578 3.4483103575713656 -0.80901700255871778 0 0.5877852410284794 0.5877852410284794 0 0.80901700255871778 forward_v I I I I #
loop $-1 $-1 $454 $115 #
coedge $-1 $291 $291 $292 $455 reversed $181 $-1 #
coedge $-1 $292 $292 $291 $455 forward $183 $-1 #
coedge $-1 $293 $293 $184 $294 forward $288 $-1 #
edge $-1 $456 0 $456 6.2831853071796004 $293 $457 forward 7 unknown #
face $-1 $458 $459 $62 $-1 $460 forward single #
loop $-1 $-1 $461 $185 #
plane-surface $-1 -115.88158206921975 -2.7314055908126291 55.482381354492986 0 -1 0 0.80901700255871778 0 -0.5877852410284794 forward_v I I I I #
coedge $-1 $462 $463 $464 $465 reversed $186 $-1 #
coedge $-1 $300 $188 $466 $467 reversed $119 $-1 #
coedge $-1 $188 $299 $462 $468 reversed $119 $-1 #
coedge $-1 $464 $469 $188 $302 forward $459 $-1 #
edge $-1 $470 13.677965631002586 $471 17.556520764727054 $301 $472 forward 7 unknown #
loop $-1 $-1 $308 $189 #
plane-surface $-1 -44.26282540360728 -5.7874714742685285 3.4483103575713656 -0.80901700255871778 0 0.5877852410284794 0.5877852410284794 0 0.80901700255871778 forward_v I I I I #
loop $-1 $-1 $473 $121 #
coedge $-1 $306 $306 $307 $474 reversed $190 $-1 #
coedge $-1 $307 $307 $306 $474 forward $192 $-1 #
coedge $-1 $308 $308 $193 $309 forward $303 $-1 #
edge $-1 $475 0 $475 6.2831853071796004 $308 $476 forward 7 unknown #
face $-1 $477 $478 $64 $-1 $479 forward single #
loop $-1 $-1 $480 $194 #
plane-surface $-1 -115.88158206921975 8.8435373577244203 55.482381354492986 0 -1 0 0.80901700255871778 0 -0.5877852410284794 forward_v I I I I #
coedge $-1 $481 $482 $483 $484 reversed $195 $-1 #
coedge $-1 $315 $197 $485 $486 reversed $125 $-1 #
coedge $-1 $197 $314 $481 $487 reversed $125 $-1 #
coedge $-1 $483 $488 $197 $317 forward $478 $-1 #
edge $-1 $489 13.677965631002586 $490 17.556520764727054 $316 $491 forward 7 unknown #
loop $-1 $-1 $323 $198 #
plane-surface $-1 -44.26282540360728 5.7874714742685214 3.4483103575713656 -0.80901700255871778 0 0.5877852410284794 0.5877852410284794 0 0.80901700255871778 forward_v I I I I #
loop $-1 $-1 $492 $127 #
coedge $-1 $321 $321 $322 $493 reversed $199 $-1 #
coedge $-1 $322 $322 $321 $493 forward $201 $-1 #
coedge $-1 $323 $323 $202 $324 forward $318 $-1 #
edge $-1 $494 0 $494 6.2831853071796004 $323 $495 forward 7 unknown #
face $-1 $496 $497 $66 $-1 $498 forward single #
loop $-1 $-1 $499 $203 #
plane-surface $-1 -115.88158206921975 20.418480306261472 55.482381354492986 0 -1 0 0.80901700255871778 0 -0.5877852410284794 forward_v I I I I #
coedge $-1 $500 $501 $502 $503 reversed $204 $-1 #
coedge $-1 $330 $206 $504 $505 reversed $131 $-1 #
coedge $-1 $206 $329 $500 $506 reversed $131 $-1 #
coedge $-1 $502 $507 $206 $332 forward $497 $-1 #
edge $-1 $508 13.677965631002586 $509 17.556520764727054 $331 $510 forward 7 unknown #
loop $-1 $-1 $338 $207 #
plane-surface $-1 -44.26282540360728 17.362414422805571 3.4483103575713656 -0.80901700255871778 0 0.5877852410284794 0.5877852410284794 0 0.80901700255871778 forward_v I I I I #
loop $-1 $-1 $511 $133 #
coedge $-1 $336 $336 $337 $512 reversed $208 $-1 #
coedge $-1 $337 $337 $336 $512 forward $210 $-1 #
coedge $-1 $338 $338 $211 $339 forward $333 $-1 #
edge $-1 $513 0 $513 6.2831853071796004 $338 $514 forward 7 unknown #
face $-1 $515 $516 $51 $-1 $517 reversed single #
loop $-1 $-1 $518 $212 #
plane-surface $-1 -44.262825403607287 0 0 1 0 0 0 0 -1 forward_v I I I I #
coedge $-1 $519 $351 $520 $521 forward $213 $-1 #
coedge $-1 $522 $215 $519 $523 forward $137 $-1 #
coedge $-1 $215 $522 $524 $525 forward $137 $-1 #
coedge $-1 $354 $353 $215 $347 reversed $355 $-1 #
edge $-1 $526 -22.524370736103684 $527 22.524370736103684 $346 $528 forward 7 unknown #
coedge $-1 $217 $216 $529 $530 forward $86 $-1 #
coedge $-1 $531 $532 $216 $350 reversed $516 $-1 #
edge $-1 $357 -44.262825403607287 $533 44.262825403607287 $349 $534 forward 7 unknown #
coedge $-1 $343 $535 $217 $352 reversed $213 $-1 #
edge $-1 $536 -44.262825403607287 $356 44.262825403607287 $351 $537 forward 7 unknown #
coedge $-1 $346 $218 $535 $538 forward $355 $-1 #
coedge $-1 $218 $346 $531 $539 reversed $355 $-1 #
loop $-1 $-1 $353 $515 #
vertex $-1 $219 $540 #
vertex $-1 $219 $541 #
straight-curve $-1 44.262825403607287 0 8.786683677483385 0 1 0 I I #
face $-1 $-1 $542 $52 $-1 $543 reversed single #
loop $-1 $-1 $226 $220 #
plane-surface $-1 0 0 8.786683677483385 0 0 1 1 0 0 forward_v I I I I #
coedge $-1 $544 $545 $546 $547 reversed $221 $-1 #
coedge $-1 $548 $223 $225 $369 forward $141 $-1 #
coedge $-1 $223 $548 $544 $549 forward $141 $-1 #
coedge $-1 $546 $226 $223 $366 forward $360 $-1 #
edge $-1 $372 5.6251413279468903 $550 11.73727309485869 $365 $551 forward 7 unknown #
coedge $-1 $552 $553 $224 $368 forward $542 $-1 #
edge $-1 $554 -60.102258652481368 $371 -54.763885332569345 $367 $555 forward 7 unknown #
edge $-1 $372 81.927058561281427 $554 88.525650807214561 $225 $556 forward 7 unknown #
coedge $-1 $226 $546 $552 $557 forward $360 $-1 #
vertex $-1 $368 $558 #
vertex $-1 $227 $559 #
straight-curve $-1 31.92375553614907 -14.306348539349679 8.7866836774833814 -1 0 0 I I #
coedge $-1 $374 $374 $-1 $560 reversed $230 $-1 #
edge $-1 $561 0 $561 6.2831853071796004 $231 $562 forward 7 unknown #
vertex $-1 $234 $563 #
ellipse-curve $-1 42.323547836745064 -17.362414422805578 6.1174970175273691 0.80901700255871778 0 0.5877852410284794 0.8816778615427191 0 -1.2135255038380768 1 I I #
face $-1 $-1 $390 $54 $-1 $564 forward single #
loop $-1 $-1 $565 $235 #
plane-surface $-1 44.262825403607287 0 0 -1 0 0 0 0 1 forward_v I I I I #
coedge $-1 $566 $567 $568 $569 reversed $236 $-1 #
coedge $-1 $570 $238 $240 $388 forward $150 $-1 #
coedge $-1 $238 $570 $566 $571 forward $150 $-1 #
coedge $-1 $568 $241 $238 $385 forward $390 $-1 #
edge $-1 $392 -0.16233014632163512 $572 5.9498016205901632 $384 $573 forward 7 unknown #
coedge $-1 $574 $575 $239 $387 forward $379 $-1 #
edge $-1 $576 -60.102258652481368 $391 -54.763885332569345 $386 $577 forward 7 unknown #
edge $-1 $392 81.927058561281427 $576 88.525650807214561 $240 $578 forward 7 unknown #
coedge $-1 $241 $568 $574 $579 forward $390 $-1 #
loop $-1 $-1 $568 $378 #
vertex $-1 $387 $580 #
vertex $-1 $242 $581 #
straight-curve $-1 31.92375553614907 -2.7314055908126291 8.7866836774833814 -1 0 0 I I #
coedge $-1 $394 $394 $-1 $582 reversed $245 $-1 #
edge $-1 $583 0 $583 6.2831853071796004 $246 $584 forward 7 unknown #
vertex $-1 $249 $585 #
ellipse-curve $-1 42.323547836745064 -5.7874714742685285 6.1174970175273691 0.80901700255871778 0 0.5877852410284794 0.8816778615427191 0 -1.2135255038380768 1 I I #
face $-1 $-1 $410 $56 $-1 $586 forward single #
loop $-1 $-1 $587 $250 #
plane-surface $-1 44.262825403607287 0 0 -1 0 0 0 0 1 forward_v I I I I #
coedge $-1 $588 $589 $590 $591 reversed $251 $-1 #
coedge $-1 $592 $253 $255 $408 forward $159 $-1 #
coedge $-1 $253 $592 $588 $593 forward $159 $-1 #
coedge $-1 $590 $256 $253 $405 forward $410 $-1 #
edge $-1 $412 -5.9498016205901596 $594 0.16233014632163867 $404 $595 forward 7 unknown #
coedge $-1 $596 $597 $254 $407 forward $399 $-1 #
edge $-1 $598 -60.102258652481368 $411 -54.763885332569345 $406 $599 forward 7 unknown #
edge $-1 $412 81.927058561281427 $598 88.525650807214561 $255 $600 forward 7 unknown #
coedge $-1 $256 $590 $596 $601 forward $410 $-1 #
loop $-1 $-1 $590 $398 #
vertex $-1 $407 $602 #
vertex $-1 $257 $603 #
straight-curve $-1 31.92375553614907 8.8435373577244203 8.7866836774833814 -1 0 0 I I #
coedge $-1 $414 $414 $-1 $604 reversed $260 $-1 #
edge $-1 $605 0 $605 6.2831853071796004 $261 $606 forward 7 unknown #
vertex $-1 $264 $607 #
ellipse-curve $-1 42.323547836745064 5.7874714742685214 6.1174970175273691 0.80901700255871778 0 0.5877852410284794 0.8816778615427191 0 -1.2135255038380768 1 I I #
face $-1 $-1 $430 $58 $-1 $608 forward single #
loop $-1 $-1 $609 $265 #
plane-surface $-1 44.262825403607287 0 0 -1 0 0 0 0 1 forward_v I I I I #
coedge $-1 $610 $611 $612 $613 reversed $266 $-1 #
coedge $-1 $614 $268 $270 $428 forward $168 $-1 #
coedge $-1 $268 $614 $610 $615 forward $168 $-1 #
coedge $-1 $612 $271 $268 $425 forward $430 $-1 #
edge $-1 $432 -11.737273094858686 $616 -5.6251413279468867 $424 $617 forward 7 unknown #
coedge $-1 $618 $619 $269 $427 forward $419 $-1 #
edge $-1 $620 -60.102258652481368 $431 -54.763885332569345 $426 $621 forward 7 unknown #
edge $-1 $432 81.927058561281427 $620 88.525650807214561 $270 $622 forward 7 unknown #
coedge $-1 $271 $612 $618 $623 forward $430 $-1 #
loop $-1 $-1 $612 $418 #
vertex $-1 $427 $624 #
vertex $-1 $272 $625 #
straight-curve $-1 31.92375553614907 20.418480306261472 8.7866836774833814 -1 0 0 I I #
coedge $-1 $434 $434 $-1 $626 reversed $275 $-1 #
edge $-1 $627 0 $627 6.2831853071796004 $276 $628 forward 7 unknown #
vertex $-1 $279 $629 #
ellipse-curve $-1 42.323547836745064 17.362414422805571 6.1174970175273691 0.80901700255871778 0 0.5877852410284794 0.8816778615427191 0 -1.2135255038380768 1 I I #
face $-1 $-1 $450 $60 $-1 $630 forward single #
loop $-1 $-1 $631 $280 #
plane-surface $-1 -44.262825403607287 0 0 1 0 0 0 0 -1 forward_v I I I I #
coedge $-1 $632 $633 $634 $635 reversed $281 $-1 #
coedge $-1 $636 $283 $285 $448 forward $177 $-1 #
coedge $-1 $283 $636 $632 $637 forward $177 $-1 #
coedge $-1 $634 $286 $283 $445 forward $450 $-1 #
edge $-1 $452 -11.73727309485869 $638 -5.6251413279468903 $444 $639 forward 7 unknown #
coedge $-1 $640 $641 $284 $447 forward $439 $-1 #
edge $-1 $642 -24.292880319675138 $451 -18.954506999763108 $446 $643 forward 7 unknown #
edge $-1 $452 -6.5985922459331317 $642 1.2080531203272332e-014 $285 $644 forward 7 unknown #
coedge $-1 $286 $634 $640 $645 forward $450 $-1 #
loop $-1 $-1 $634 $438 #
vertex $-1 $447 $646 #
vertex $-1 $287 $647 #
straight-curve $-1 -57.940791034609873 -20.418480306261479 8.786683677483385 1 0 0 I I #
coedge $-1 $454 $454 $-1 $648 reversed $290 $-1 #
edge $-1 $649 0 $649 6.2831853071796004 $291 $650 forward 7 unknown #
vertex $-1 $294 $651 #
ellipse-curve $-1 -42.323547836745057 -17.362414422805578 6.11749701752737 -0.80901700255871778 0 0.5877852410284794 0.8816778615427191 0 1.2135255038380768 1 I I #
face $-1 $-1 $652 $62 $-1 $653 reversed single #
loop $-1 $-1 $301 $295 #
plane-surface $-1 0 0 8.786683677483385 0 0 1 1 0 0 forward_v I I I I #
coedge $-1 $654 $655 $656 $657 reversed $296 $-1 #
coedge $-1 $658 $298 $300 $468 forward $186 $-1 #
coedge $-1 $298 $658 $654 $659 forward $186 $-1 #
coedge $-1 $656 $301 $298 $465 forward $459 $-1 #
edge $-1 $471 -5.9498016205901632 $660 0.16233014632163512 $464 $661 forward 7 unknown #
coedge $-1 $662 $663 $299 $467 forward $652 $-1 #
edge $-1 $664 -24.292880319675138 $470 -18.954506999763108 $466 $665 forward 7 unknown #
edge $-1 $471 -6.5985922459331317 $664 1.2080531203272332e-014 $300 $666 forward 7 unknown #
coedge $-1 $301 $656 $662 $667 forward $459 $-1 #
vertex $-1 $302 $668 #
vertex $-1 $302 $669 #
straight-curve $-1 -57.940791034609873 -8.8435373577244274 8.786683677483385 1 0 0 I I #
coedge $-1 $473 $473 $-1 $670 reversed $305 $-1 #
edge $-1 $671 0 $671 6.2831853071796004 $306 $672 forward 7 unknown #
vertex $-1 $309 $673 #
ellipse-curve $-1 -42.323547836745057 -5.7874714742685285 6.11749701752737 -0.80901700255871778 0 0.5877852410284794 0.8816778615427191 0 1.2135255038380768 1 I I #
face $-1 $-1 $674 $64 $-1 $675 reversed single #
loop $-1 $-1 $316 $310 #
plane-surface $-1 0 0 8.786683677483385 0 0 1 1 0 0 forward_v I I I I #
coedge $-1 $676 $677 $678 $679 reversed $311 $-1 #
coedge $-1 $680 $313 $315 $487 forward $195 $-1 #
coedge $-1 $313 $680 $676 $681 forward $195 $-1 #
coedge $-1 $678 $316 $313 $484 forward $478 $-1 #
edge $-1 $490 -0.16233014632163867 $682 5.9498016205901596 $483 $683 forward 7 unknown #
coedge $-1 $684 $685 $314 $486 forward $674 $-1 #
edge $-1 $686 -24.292880319675138 $489 -18.954506999763108 $485 $687 forward 7 unknown #
edge $-1 $490 -6.5985922459331317 $686 1.2080531203272332e-014 $315 $688 forward 7 unknown #
coedge $-1 $316 $678 $684 $689 forward $478 $-1 #
vertex $-1 $317 $690 #
vertex $-1 $317 $691 #
straight-curve $-1 -57.940791034609873 2.731405590812622 8.786683677483385 1 0 0 I I #
coedge $-1 $492 $492 $-1 $692 reversed $320 $-1 #
edge $-1 $693 0 $693 6.2831853071796004 $321 $694 forward 7 unknown #
vertex $-1 $324 $695 #
ellipse-curve $-1 -42.323547836745057 5.7874714742685214 6.11749701752737 -0.80901700255871778 0 0.5877852410284794 0.8816778615427191 0 1.2135255038380768 1 I I #
face $-1 $-1 $696 $66 $-1 $697 reversed single #
loop $-1 $-1 $331 $325 #
plane-surface $-1 0 0 8.786683677483385 0 0 1 1 0 0 forward_v I I I I #
coedge $-1 $698 $699 $700 $701 reversed $326 $-1 #
coedge $-1 $702 $328 $330 $506 forward $204 $-1 #
coedge $-1 $328 $702 $698 $703 forward $204 $-1 #
coedge $-1 $700 $331 $328 $503 forward $497 $-1 #
edge $-1 $509 5.6251413279468867 $704 11.737273094858686 $502 $705 forward 7 unknown #
coedge $-1 $706 $707 $329 $505 forward $696 $-1 #
edge $-1 $708 -24.292880319675138 $508 -18.954506999763108 $504 $709 forward 7 unknown #
edge $-1 $509 -6.5985922459331317 $708 1.2080531203272332e-014 $330 $710 forward 7 unknown #
coedge $-1 $331 $700 $706 $711 forward $497 $-1 #
vertex $-1 $332 $712 #
vertex $-1 $332 $713 #
straight-curve $-1 -57.940791034609873 14.306348539349672 8.786683677483385 1 0 0 I I #
coedge $-1 $511 $511 $-1 $714 reversed $335 $-1 #
edge $-1 $715 0 $715 6.2831853071796004 $336 $716 forward 7 unknown #
vertex $-1 $339 $717 #
ellipse-curve $-1 -42.323547836745057 17.362414422805571 6.11749701752737 -0.80901700255871778 0 0.5877852410284794 0.8816778615427191 0 1.2135255038380768 1 I I #
face $-1 $-1 $355 $51 $-1 $718 reversed single #
loop $-1 $-1 $531 $340 #
plane-surface $-1 0 22.524370736103684 0 0 -1 0 0 0 -1 forward_v I I I I #
coedge $-1 $719 $529 $532 $720 forward $341 $-1 #
coedge $-1 $535 $343 $344 $523 reversed $213 $-1 #
coedge $-1 $529 $719 $343 $521 reversed $341 $-1 #
edge $-1 $536 -8.786683677483385 $721 8.786683677483385 $520 $722 forward 7 unknown #
coedge $-1 $345 $344 $719 $723 forward $137 $-1 #
edge $-1 $527 -44.262825403607287 $721 44.262825403607287 $519 $724 forward 7 unknown #
coedge $-1 $532 $531 $345 $525 reversed $516 $-1 #
edge $-1 $725 -44.262825403607287 $526 44.262825403607287 $524 $726 forward 7 unknown #
vertex $-1 $347 $727 #
vertex $-1 $538 $728 #
straight-curve $-1 44.262825403607287 0 -8.786683677483385 0 -1 0 I I #
coedge $-1 $518 $520 $348 $530 reversed $341 $-1 #
edge $-1 $533 -22.524370736103684 $536 22.524370736103684 $529 $729 forward 7 unknown #
coedge $-1 $524 $349 $354 $539 forward $516 $-1 #
coedge $-1 $349 $524 $518 $720 reversed $516 $-1 #
vertex $-1 $350 $730 #
straight-curve $-1 0 22.524370736103684 8.786683677483385 -1 0 0 I I #
coedge $-1 $351 $519 $353 $538 reversed $213 $-1 #
vertex $-1 $530 $731 #
straight-curve $-1 0 -22.524370736103684 8.786683677483385 1 0 0 I I #
edge $-1 $356 -8.786683677483385 $527 8.786683677483385 $353 $732 forward 7 unknown #
edge $-1 $357 -8.786683677483385 $526 8.786683677483385 $354 $733 forward 7 unknown #
point $-1 44.262825403607287 -22.524370736103684 8.786683677483385 #
point $-1 44.262825403607287 22.524370736103684 8.786683677483385 #
loop $-1 $-1 $367 $359 #
plane-surface $-1 44.262825403607287 0 0 -1 0 0 0 0 1 forward_v I I I I #
coedge $-1 $545 $362 $364 $549 reversed $221 $-1 #
coedge $-1 $362 $544 $734 $735 reversed $221 $-1 #
coedge $-1 $370 $365 $362 $547 forward $360 $-1 #
edge $-1 $550 8.4605147337337563 $736 12.339069867458218 $546 $737 forward 7 unknown #
coedge $-1 $364 $363 $553 $738 reversed $141 $-1 #
edge $-1 $739 -88.525650807214561 $550 -81.927058561281427 $544 $740 forward 7 unknown #
vertex $-1 $366 $741 #
straight-curve $-1 40.384270269882819 -8.6812072114027892 8.7866836774833885 0 -1 0 I I #
coedge $-1 $734 $367 $370 $557 reversed $542 $-1 #
coedge $-1 $367 $734 $548 $738 forward $542 $-1 #
vertex $-1 $368 $742 #
straight-curve $-1 44.262825403607287 -14.306348539349679 63.550569010052726 0 0 1 I I #
straight-curve $-1 -7.7712455933143261 -14.306348539349679 75.067067023183824 0.5877852410284794 0 -0.80901700255871778 I I #
edge $-1 $736 -20.418480306261479 $371 -14.306348539349679 $552 $743 forward 7 unknown #
point $-1 44.262825403607287 -14.306348539349679 8.786683677483385 #
point $-1 40.384270269882826 -14.306348539349679 8.7866836774833814 #
edge $-1 $744 1 $744 0 $374 $-1 forward 7 unknown #
vertex $-1 $375 $745 #
ellipse-curve $-1 38.856813566358049 -17.362414422805578 3.5987672105438331 0.80901700255871778 0 0.5877852410284794 0.8816778615427191 0 -1.2135255038380768 1 I I #
point $-1 43.205225698287769 -17.362414422805578 4.9039715136892852 #
plane-surface $-1 0 0 8.786683677483385 0 0 1 1 0 0 forward_v I I I I #
coedge $-1 $575 $574 $567 $746 forward $379 $-1 #
coedge $-1 $567 $381 $383 $571 reversed $236 $-1 #
coedge $-1 $381 $566 $565 $746 reversed $236 $-1 #
coedge $-1 $389 $384 $381 $569 forward $390 $-1 #
edge $-1 $572 8.4605147337337563 $747 12.339069867458218 $568 $748 forward 7 unknown #
coedge $-1 $383 $382 $575 $749 reversed $150 $-1 #
edge $-1 $750 -88.525650807214561 $572 -81.927058561281427 $566 $751 forward 7 unknown #
vertex $-1 $385 $752 #
straight-curve $-1 40.384270269882819 -2.8937357371342642 8.7866836774833885 0 -1 0 I I #
coedge $-1 $565 $386 $389 $579 reversed $379 $-1 #
coedge $-1 $386 $565 $570 $749 forward $379 $-1 #
vertex $-1 $387 $753 #
straight-curve $-1 44.262825403607287 -2.7314055908126291 63.550569010052726 0 0 1 I I #
straight-curve $-1 -7.7712455933143261 -2.7314055908126291 75.067067023183824 0.5877852410284794 0 -0.80901700255871778 I I #
edge $-1 $747 -8.8435373577244274 $391 -2.7314055908126291 $574 $754 forward 7 unknown #
point $-1 44.262825403607287 -2.7314055908126291 8.786683677483385 #
point $-1 40.384270269882826 -2.7314055908126291 8.7866836774833814 #
edge $-1 $755 1 $755 0 $394 $-1 forward 7 unknown #
vertex $-1 $395 $756 #
ellipse-curve $-1 38.856813566358049 -5.7874714742685285 3.5987672105438331 0.80901700255871778 0 0.5877852410284794 0.8816778615427191 0 -1.2135255038380768 1 I I #
point $-1 43.205225698287769 -5.7874714742685285 4.9039715136892852 #
plane-surface $-1 0 0 8.786683677483385 0 0 1 1 0 0 forward_v I I I I #
coedge $-1 $597 $596 $589 $757 forward $399 $-1 #
coedge $-1 $589 $401 $403 $593 reversed $251 $-1 #
coedge $-1 $401 $588 $587 $757 reversed $251 $-1 #
coedge $-1 $409 $404 $401 $591 forward $410 $-1 #
edge $-1 $594 8.4605147337337563 $758 12.339069867458218 $590 $759 forward 7 unknown #
coedge $-1 $403 $402 $597 $760 reversed $159 $-1 #
edge $-1 $761 -88.525650807214561 $594 -81.927058561281427 $588 $762 forward 7 unknown #
vertex $-1 $405 $763 #
straight-curve $-1 40.384270269882819 2.8937357371342607 8.7866836774833885 0 -1 0 I I #
coedge $-1 $587 $406 $409 $601 reversed $399 $-1 #
coedge $-1 $406 $587 $592 $760 forward $399 $-1 #
vertex $-1 $407 $764 #
straight-curve $-1 44.262825403607287 8.8435373577244203 63.550569010052726 0 0 1 I I #
straight-curve $-1 -7.7712455933143261 8.8435373577244203 75.067067023183824 0.5877852410284794 0 -0.80901700255871778 I I #
edge $-1 $758 2.731405590812622 $411 8.8435373577244203 $596 $765 forward 7 unknown #
point $-1 44.262825403607287 8.8435373577244203 8.786683677483385 #
point $-1 40.384270269882826 8.8435373577244203 8.7866836774833814 #
edge $-1 $766 1 $766 0 $414 $-1 forward 7 unknown #
vertex $-1 $415 $767 #
ellipse-curve $-1 38.856813566358049 5.7874714742685214 3.5987672105438331 0.80901700255871778 0 0.5877852410284794 0.8816778615427191 0 -1.2135255038380768 1 I I #
point $-1 43.205225698287769 5.7874714742685214 4.9039715136892852 #
plane-surface $-1 0 0 8.786683677483385 0 0 1 1 0 0 forward_v I I I I #
coedge $-1 $619 $618 $611 $768 forward $419 $-1 #
coedge $-1 $611 $421 $423 $615 reversed $266 $-1 #
coedge $-1 $421 $610 $609 $768 reversed $266 $-1 #
coedge $-1 $429 $424 $421 $613 forward $430 $-1 #
edge $-1 $616 8.4605147337337563 $769 12.339069867458218 $612 $770 forward 7 unknown #
coedge $-1 $423 $422 $619 $771 reversed $168 $-1 #
edge $-1 $772 -88.525650807214561 $616 -81.927058561281427 $610 $773 forward 7 unknown #
vertex $-1 $425 $774 #
straight-curve $-1 40.384270269882819 8.6812072114027856 8.7866836774833885 0 -1 0 I I #
coedge $-1 $609 $426 $429 $623 reversed $419 $-1 #
coedge $-1 $426 $609 $614 $771 forward $419 $-1 #
vertex $-1 $427 $775 #
straight-curve $-1 44.262825403607287 20.418480306261472 63.550569010052726 0 0 1 I I #
straight-curve $-1 -7.7712455933143261 20.418480306261472 75.067067023183824 0.5877852410284794 0 -0.80901700255871778 I I #
edge $-1 $769 14.306348539349672 $431 20.418480306261472 $618 $776 forward 7 unknown #
point $-1 44.262825403607287 20.418480306261472 8.786683677483385 #
point $-1 40.384270269882826 20.418480306261472 8.7866836774833814 #
edge $-1 $777 1 $777 0 $434 $-1 forward 7 unknown #
vertex $-1 $435 $778 #
ellipse-curve $-1 38.856813566358049 17.362414422805571 3.5987672105438331 0.80901700255871778 0 0.5877852410284794 0.8816778615427191 0 -1.2135255038380768 1 I I #
point $-1 43.205225698287769 17.362414422805571 4.9039715136892852 #
plane-surface $-1 0 0 8.786683677483385 0 0 1 1 0 0 forward_v I I I I #
coedge $-1 $641 $640 $633 $779 forward $439 $-1 #
coedge $-1 $633 $441 $443 $637 reversed $281 $-1 #
coedge $-1 $441 $632 $631 $779 reversed $281 $-1 #
coedge $-1 $449 $444 $441 $635 forward $450 $-1 #
edge $-1 $638 -17.556520764727054 $780 -13.677965631002586 $634 $781 forward 7 unknown #
coedge $-1 $443 $442 $641 $782 reversed $177 $-1 #
edge $-1 $783 -1.2080531203272332e-014 $638 6.5985922459331317 $632 $784 forward 7 unknown #
vertex $-1 $445 $785 #
straight-curve $-1 -40.384270269882819 -8.6812072114027892 8.786683677483385 0 1 0 I I #
coedge $-1 $631 $446 $449 $645 reversed $439 $-1 #
coedge $-1 $446 $631 $636 $782 forward $439 $-1 #
vertex $-1 $447 $786 #
straight-curve $-1 -44.262825403607287 -20.418480306261479 27.741190677246493 0 0 1 I I #
straight-curve $-1 -44.26282540360728 -20.418480306261479 3.4483103575713656 -0.5877852410284794 0 -0.80901700255871778 I I #
edge $-1 $780 14.306348539349679 $451 20.418480306261479 $640 $787 forward 7 unknown #
point $-1 -44.262825403607287 -20.418480306261479 8.786683677483385 #
point $-1 -40.384270269882819 -20.418480306261479 8.786683677483385 #
edge $-1 $788 1 $788 0 $454 $-1 forward 7 unknown #
vertex $-1 $455 $789 #
ellipse-curve $-1 -38.856813566358049 -17.362414422805578 3.5987672105438402 -0.80901700255871778 0 0.5877852410284794 0.8816778615427191 0 1.2135255038380768 1 I I #
point $-1 -41.44186997520233 -17.362414422805578 7.3310225213654459 #
loop $-1 $-1 $466 $458 #
plane-surface $-1 -44.262825403607287 0 0 1 0 0 0 0 -1 forward_v I I I I #
coedge $-1 $655 $461 $463 $659 reversed $296 $-1 #
coedge $-1 $461 $654 $790 $791 reversed $296 $-1 #
coedge $-1 $469 $464 $461 $657 forward $459 $-1 #
edge $-1 $660 -17.556520764727054 $792 -13.677965631002586 $656 $793 forward 7 unknown #
coedge $-1 $463 $462 $663 $794 reversed $186 $-1 #
edge $-1 $795 -1.2080531203272332e-014 $660 6.5985922459331317 $654 $796 forward 7 unknown #
vertex $-1 $465 $797 #
straight-curve $-1 -40.384270269882819 -2.8937357371342642 8.786683677483385 0 1 0 I I #
coedge $-1 $790 $466 $469 $667 reversed $652 $-1 #
coedge $-1 $466 $790 $658 $794 forward $652 $-1 #
vertex $-1 $467 $798 #
straight-curve $-1 -44.262825403607287 -8.8435373577244274 27.741190677246493 0 0 1 I I #
straight-curve $-1 -44.26282540360728 -8.8435373577244274 3.4483103575713656 -0.5877852410284794 0 -0.80901700255871778 I I #
edge $-1 $792 2.7314055908126291 $470 8.8435373577244274 $662 $799 forward 7 unknown #
point $-1 -44.262825403607287 -8.8435373577244274 8.786683677483385 #
point $-1 -40.384270269882819 -8.8435373577244274 8.786683677483385 #
edge $-1 $800 1 $800 0 $473 $-1 forward 7 unknown #
vertex $-1 $474 $801 #
ellipse-curve $-1 -38.856813566358049 -5.7874714742685285 3.5987672105438402 -0.80901700255871778 0 0.5877852410284794 0.8816778615427191 0 1.2135255038380768 1 I I #
point $-1 -41.44186997520233 -5.7874714742685285 7.3310225213654459 #
loop $-1 $-1 $485 $477 #
plane-surface $-1 -44.262825403607287 0 0 1 0 0 0 0 -1 forward_v I I I I #
coedge $-1 $677 $480 $482 $681 reversed $311 $-1 #
coedge $-1 $480 $676 $802 $803 reversed $311 $-1 #
coedge $-1 $488 $483 $480 $679 forward $478 $-1 #
edge $-1 $682 -17.556520764727054 $804 -13.677965631002586 $678 $805 forward 7 unknown #
coedge $-1 $482 $481 $685 $806 reversed $195 $-1 #
edge $-1 $807 -1.2080531203272332e-014 $682 6.5985922459331317 $676 $808 forward 7 unknown #
vertex $-1 $484 $809 #
straight-curve $-1 -40.384270269882819 2.8937357371342607 8.786683677483385 0 1 0 I I #
coedge $-1 $802 $485 $488 $689 reversed $674 $-1 #
coedge $-1 $485 $802 $680 $806 forward $674 $-1 #
vertex $-1 $486 $810 #
straight-curve $-1 -44.262825403607287 2.731405590812622 27.741190677246493 0 0 1 I I #
straight-curve $-1 -44.26282540360728 2.731405590812622 3.4483103575713656 -0.5877852410284794 0 -0.80901700255871778 I I #
edge $-1 $804 -8.8435373577244203 $489 -2.731405590812622 $684 $811 forward 7 unknown #
point $-1 -44.262825403607287 2.731405590812622 8.786683677483385 #
point $-1 -40.384270269882819 2.731405590812622 8.786683677483385 #
edge $-1 $812 1 $812 0 $492 $-1 forward 7 unknown #
vertex $-1 $493 $813 #
ellipse-curve $-1 -38.856813566358049 5.7874714742685214 3.5987672105438402 -0.80901700255871778 0 0.5877852410284794 0.8816778615427191 0 1.2135255038380768 1 I I #
point $-1 -41.44186997520233 5.7874714742685214 7.3310225213654459 #
loop $-1 $-1 $504 $496 #
plane-surface $-1 -44.262825403607287 0 0 1 0 0 0 0 -1 forward_v I I I I #
coedge $-1 $699 $499 $501 $703 reversed $326 $-1 #
coedge $-1 $499 $698 $814 $815 reversed $326 $-1 #
coedge $-1 $507 $502 $499 $701 forward $497 $-1 #
edge $-1 $704 -17.556520764727054 $816 -13.677965631002586 $700 $817 forward 7 unknown #
coedge $-1 $501 $500 $707 $818 reversed $204 $-1 #
edge $-1 $819 -1.2080531203272332e-014 $704 6.5985922459331317 $698 $820 forward 7 unknown #
vertex $-1 $503 $821 #
straight-curve $-1 -40.384270269882819 8.6812072114027856 8.786683677483385 0 1 0 I I #
coedge $-1 $814 $504 $507 $711 reversed $696 $-1 #
coedge $-1 $504 $814 $702 $818 forward $696 $-1 #
vertex $-1 $505 $822 #
straight-curve $-1 -44.262825403607287 14.306348539349672 27.741190677246493 0 0 1 I I #
straight-curve $-1 -44.26282540360728 14.306348539349672 3.4483103575713656 -0.5877852410284794 0 -0.80901700255871778 I I #
edge $-1 $816 -20.418480306261472 $508 -14.306348539349672 $706 $823 forward 7 unknown #
point $-1 -44.262825403607287 14.306348539349672 8.786683677483385 #
point $-1 -40.384270269882819 14.306348539349672 8.786683677483385 #
edge $-1 $824 1 $824 0 $511 $-1 forward 7 unknown #
vertex $-1 $512 $825 #
ellipse-curve $-1 -38.856813566358049 17.362414422805571 3.5987672105438402 -0.80901700255871778 0 0.5877852410284794 0.8816778615427191 0 1.2135255038380768 1 I I #
point $-1 -41.44186997520233 17.362414422805571 7.3310225213654459 #
plane-surface $-1 44.262825403607287 0 0 -1 0 0 0 0 1 forward_v I I I I #
coedge $-1 $520 $518 $522 $723 reversed $341 $-1 #
edge $-1 $533 -8.786683677483385 $725 8.786683677483385 $532 $826 forward 7 unknown #
vertex $-1 $723 $827 #
straight-curve $-1 -44.262825403607287 -22.524370736103684 0 0 0 -1 I I #
edge $-1 $721 -22.524370736103684 $725 22.524370736103684 $719 $828 forward 7 unknown #
straight-curve $-1 0 -22.524370736103684 -8.786683677483385 -1 0 0 I I #
vertex $-1 $525 $829 #
straight-curve $-1 0 22.524370736103684 -8.786683677483385 1 0 0 I I #
point $-1 44.262825403607287 22.524370736103684 -8.786683677483385 #
point $-1 44.262825403607287 -22.524370736103684 -8.786683677483385 #
straight-curve $-1 -44.262825403607287 0 8.786683677483385 0 -1 0 I I #
point $-1 -44.262825403607287 22.524370736103684 8.786683677483385 #
point $-1 -44.262825403607287 -22.524370736103684 8.786683677483385 #
straight-curve $-1 44.262825403607287 -22.524370736103684 0 0 0 -1 I I #
straight-curve $-1 44.262825403607287 22.524370736103684 0 0 0 -1 I I #
coedge $-1 $553 $552 $545 $735 forward $542 $-1 #
edge $-1 $736 54.763885332569345 $739 60.102258652481368 $734 $830 forward 7 unknown #
vertex $-1 $557 $831 #
straight-curve $-1 31.92375553614907 -20.418480306261479 8.7866836774833814 1 0 0 I I #
edge $-1 $739 -11.73727309485869 $554 -5.6251413279468903 $553 $832 forward 7 unknown #
vertex $-1 $738 $833 #
straight-curve $-1 -7.7712455933143261 -20.418480306261479 75.067067023183824 -0.5877852410284794 0 0.80901700255871778 I I #
point $-1 40.384270269882826 -20.418480306261479 8.7866836774833814 #
point $-1 44.262825403607287 -14.306348539349679 3.4483103575713585 #
straight-curve $-1 44.262825403607287 0 8.786683677483385 0 1 0 I I #
vertex $-1 $560 $834 #
point $-1 39.738491427900769 -17.362414422805578 2.3852417067057567 #
edge $-1 $747 54.763885332569345 $750 60.102258652481368 $565 $835 forward 7 unknown #
vertex $-1 $579 $836 #
straight-curve $-1 31.92375553614907 -8.8435373577244274 8.7866836774833814 1 0 0 I I #
edge $-1 $750 -5.9498016205901632 $576 0.16233014632163512 $575 $837 forward 7 unknown #
vertex $-1 $749 $838 #
straight-curve $-1 -7.7712455933143261 -8.8435373577244274 75.067067023183824 -0.5877852410284794 0 0.80901700255871778 I I #
point $-1 40.384270269882826 -8.8435373577244274 8.7866836774833814 #
point $-1 44.262825403607287 -2.7314055908126291 3.4483103575713585 #
straight-curve $-1 44.262825403607287 0 8.786683677483385 0 1 0 I I #
vertex $-1 $582 $839 #
point $-1 39.738491427900769 -5.7874714742685285 2.3852417067057567 #
edge $-1 $758 54.763885332569345 $761 60.102258652481368 $587 $840 forward 7 unknown #
vertex $-1 $601 $841 #
straight-curve $-1 31.92375553614907 2.731405590812622 8.7866836774833814 1 0 0 I I #
edge $-1 $761 -0.16233014632163867 $598 5.9498016205901596 $597 $842 forward 7 unknown #
vertex $-1 $760 $843 #
straight-curve $-1 -7.7712455933143261 2.731405590812622 75.067067023183824 -0.5877852410284794 0 0.80901700255871778 I I #
point $-1 40.384270269882826 2.731405590812622 8.7866836774833814 #
point $-1 44.262825403607287 8.8435373577244203 3.4483103575713585 #
straight-curve $-1 44.262825403607287 0 8.786683677483385 0 1 0 I I #
vertex $-1 $604 $844 #
point $-1 39.738491427900769 5.7874714742685214 2.3852417067057567 #
edge $-1 $769 54.763885332569345 $772 60.102258652481368 $609 $845 forward 7 unknown #
vertex $-1 $623 $846 #
straight-curve $-1 31.92375553614907 14.306348539349672 8.7866836774833814 1 0 0 I I #
edge $-1 $772 5.6251413279468867 $620 11.737273094858686 $619 $847 forward 7 unknown #
vertex $-1 $771 $848 #
straight-curve $-1 -7.7712455933143261 14.306348539349672 75.067067023183824 -0.5877852410284794 0 0.80901700255871778 I I #
point $-1 40.384270269882826 14.306348539349672 8.7866836774833814 #
point $-1 44.262825403607287 20.418480306261472 3.4483103575713585 #
straight-curve $-1 44.262825403607287 0 8.786683677483385 0 1 0 I I #
vertex $-1 $626 $849 #
point $-1 39.738491427900769 17.362414422805571 2.3852417067057567 #
edge $-1 $780 18.954506999763108 $783 24.292880319675138 $631 $850 forward 7 unknown #
vertex $-1 $645 $851 #
straight-curve $-1 -57.940791034609873 -14.306348539349679 8.786683677483385 -1 0 0 I I #
edge $-1 $783 5.6251413279468903 $642 11.73727309485869 $641 $852 forward 7 unknown #
vertex $-1 $782 $853 #
straight-curve $-1 -44.26282540360728 -14.306348539349679 3.4483103575713656 0.5877852410284794 0 0.80901700255871778 I I #
point $-1 -40.384270269882819 -14.306348539349679 8.786683677483385 #
point $-1 -44.262825403607287 -20.418480306261479 3.4483103575713558 #
straight-curve $-1 -44.262825403607287 0 8.786683677483385 0 -1 0 I I #
vertex $-1 $648 $854 #
point $-1 -37.975135704815337 -17.362414422805578 4.8122927143819174 #
coedge $-1 $663 $662 $655 $791 forward $652 $-1 #
edge $-1 $792 18.954506999763108 $795 24.292880319675138 $790 $855 forward 7 unknown #
vertex $-1 $667 $856 #
straight-curve $-1 -57.940791034609873 -2.7314055908126291 8.786683677483385 -1 0 0 I I #
edge $-1 $795 -0.16233014632163512 $664 5.9498016205901632 $663 $857 forward 7 unknown #
vertex $-1 $794 $858 #
straight-curve $-1 -44.26282540360728 -2.7314055908126291 3.4483103575713656 0.5877852410284794 0 0.80901700255871778 I I #
point $-1 -40.384270269882819 -2.7314055908126291 8.786683677483385 #
point $-1 -44.262825403607287 -8.8435373577244274 3.4483103575713558 #
straight-curve $-1 -44.262825403607287 0 8.786683677483385 0 -1 0 I I #
vertex $-1 $670 $859 #
point $-1 -37.975135704815337 -5.7874714742685285 4.8122927143819174 #
coedge $-1 $685 $684 $677 $803 forward $674 $-1 #
edge $-1 $804 18.954506999763108 $807 24.292880319675138 $802 $860 forward 7 unknown #
vertex $-1 $689 $861 #
straight-curve $-1 -57.940791034609873 8.8435373577244203 8.786683677483385 -1 0 0 I I #
edge $-1 $807 -5.9498016205901596 $686 0.16233014632163867 $685 $862 forward 7 unknown #
vertex $-1 $806 $863 #
straight-curve $-1 -44.26282540360728 8.8435373577244203 3.4483103575713656 0.5877852410284794 0 0.80901700255871778 I I #
point $-1 -40.384270269882819 8.8435373577244203 8.786683677483385 #
point $-1 -44.262825403607287 2.731405590812622 3.4483103575713558 #
straight-curve $-1 -44.262825403607287 0 8.786683677483385 0 -1 0 I I #
vertex $-1 $692 $864 #
point $-1 -37.975135704815337 5.7874714742685214 4.8122927143819174 #
coedge $-1 $707 $706 $699 $815 forward $696 $-1 #
edge $-1 $816 18.954506999763108 $819 24.292880319675138 $814 $865 forward 7 unknown #
vertex $-1 $711 $866 #
straight-curve $-1 -57.940791034609873 20.418480306261472 8.786683677483385 -1 0 0 I I #
edge $-1 $819 -11.737273094858686 $708 -5.6251413279468867 $707 $867 forward 7 unknown #
vertex $-1 $818 $868 #
straight-curve $-1 -44.26282540360728 20.418480306261472 3.4483103575713656 0.5877852410284794 0 0.80901700255871778 I I #
point $-1 -40.384270269882819 20.418480306261472 8.786683677483385 #
point $-1 -44.262825403607287 14.306348539349672 3.4483103575713558 #
straight-curve $-1 -44.262825403607287 0 8.786683677483385 0 -1 0 I I #
vertex $-1 $714 $869 #
point $-1 -37.975135704815337 17.362414422805571 4.8122927143819174 #
straight-curve $-1 -44.262825403607287 22.524370736103684 0 0 0 -1 I I #
point $-1 -44.262825403607287 -22.524370736103684 -8.786683677483385 #
straight-curve $-1 -44.262825403607287 0 -8.786683677483385 0 1 0 I I #
point $-1 -44.262825403607287 22.524370736103684 -8.786683677483385 #
straight-curve $-1 44.262825403607287 -20.418480306261479 63.550569010052726 0 0 -1 I I #
point $-1 44.262825403607287 -20.418480306261479 8.786683677483385 #
straight-curve $-1 44.262825403607295 -8.6812072114027892 3.4483103575713656 0 1 0 I I #
point $-1 44.262825403607287 -20.418480306261479 3.4483103575713585 #
point $-1 37.643288062519979 -17.362414422805578 2.7170893490011143 #
straight-curve $-1 44.262825403607287 -8.8435373577244274 63.550569010052726 0 0 -1 I I #
point $-1 44.262825403607287 -8.8435373577244274 8.786683677483385 #
straight-curve $-1 44.262825403607295 -2.8937357371342642 3.4483103575713656 0 1 0 I I #
point $-1 44.262825403607287 -8.8435373577244274 3.4483103575713585 #
point $-1 37.643288062519979 -5.7874714742685285 2.7170893490011143 #
straight-curve $-1 44.262825403607287 2.731405590812622 63.550569010052726 0 0 -1 I I #
point $-1 44.262825403607287 2.731405590812622 8.786683677483385 #
straight-curve $-1 44.262825403607295 2.8937357371342607 3.4483103575713656 0 1 0 I I #
point $-1 44.262825403607287 2.731405590812622 3.4483103575713585 #
point $-1 37.643288062519979 5.7874714742685214 2.7170893490011143 #
straight-curve $-1 44.262825403607287 14.306348539349672 63.550569010052726 0 0 -1 I I #
point $-1 44.262825403607287 14.306348539349672 8.786683677483385 #
straight-curve $-1 44.262825403607295 8.6812072114027856 3.4483103575713656 0 1 0 I I #
point $-1 44.262825403607287 14.306348539349672 3.4483103575713585 #
point $-1 37.643288062519979 17.362414422805571 2.7170893490011143 #
straight-curve $-1 -44.262825403607287 -14.306348539349679 27.741190677246493 0 0 -1 I I #
point $-1 -44.262825403607287 -14.306348539349679 8.786683677483385 #
straight-curve $-1 -44.262825403607287 -8.6812072114027892 3.4483103575713492 0 -1 0 I I #
point $-1 -44.262825403607287 -14.306348539349679 3.4483103575713558 #
point $-1 -37.643288062519979 -17.362414422805578 2.7170893490011214 #
straight-curve $-1 -44.262825403607287 -2.7314055908126291 27.741190677246493 0 0 -1 I I #
point $-1 -44.262825403607287 -2.7314055908126291 8.786683677483385 #
straight-curve $-1 -44.262825403607287 -2.8937357371342642 3.4483103575713492 0 -1 0 I I #
point $-1 -44.262825403607287 -2.7314055908126291 3.4483103575713558 #
point $-1 -37.643288062519979 -5.7874714742685285 2.7170893490011214 #
straight-curve $-1 -44.262825403607287 8.8435373577244203 27.741190677246493 0 0 -1 I I #
point $-1 -44.262825403607287 8.8435373577244203 8.786683677483385 #
straight-curve $-1 -44.262825403607287 2.8937357371342607 3.4483103575713492 0 -1 0 I I #
point $-1 -44.262825403607287 8.8435373577244203 3.4483103575713558 #
point $-1 -37.643288062519979 5.7874714742685214 2.7170893490011214 #
straight-curve $-1 -44.262825403607287 20.418480306261472 27.741190677246493 0 0 -1 I I #
point $-1 -44.262825403607287 20.418480306261472 8.786683677483385 #
straight-curve $-1 -44.262825403607287 8.6812072114027856 3.4483103575713492 0 -1 0 I I #
point $-1 -44.262825403607287 20.418480306261472 3.4483103575713558 #
point $-1 -37.643288062519979 17.362414422805571 2.7170893490011214 #
End-of-ACIS-data 