500 0 16 0           
7 Unknown 11 ACIS 5.0 NT 24 Fri Mar 26 19:20:16 1999 
-1 9.9999999999999995e-007 1e-010 
body $-1 $16 $-1 $17 #
body $-1 $18 $-1 $19 #
body $-1 $20 $-1 $21 #
body $-1 $22 $-1 $23 #
body $-1 $24 $-1 $25 #
body $-1 $26 $-1 $27 #
body $-1 $28 $-1 $29 #
body $-1 $30 $-1 $31 #
body $-1 $32 $-1 $33 #
body $-1 $34 $-1 $35 #
body $-1 $36 $-1 $37 #
body $-1 $38 $-1 $39 #
body $-1 $40 $-1 $41 #
body $-1 $42 $-1 $43 #
body $-1 $44 $-1 $45 #
body $-1 $46 $-1 $47 #
lump $-1 $-1 $48 $0 #
transform $-1 1 0 0 0 1 0 0 0 1 58.527176732688375 38.87171206031914 18.749340335426862 1 rotate no_reflect no_shear #
lump $-1 $-1 $49 $1 #
transform $-1 1 0 0 0 1 0 0 0 1 58.527176732688375 38.87171206031914 18.749340335426862 1 rotate no_reflect no_shear #
lump $-1 $-1 $50 $2 #
transform $-1 1 0 0 0 1 0 0 0 1 58.527176732688375 38.87171206031914 18.749340335426862 1 rotate no_reflect no_shear #
lump $-1 $-1 $51 $3 #
transform $-1 1 0 0 0 1 0 0 0 1 58.527176732688375 38.87171206031914 18.749340335426862 1 rotate no_reflect no_shear #
lump $-1 $-1 $52 $4 #
transform $-1 1 0 0 0 1 0 0 0 1 58.527176732688375 38.87171206031914 18.749340335426862 1 rotate no_reflect no_shear #
lump $-1 $-1 $53 $5 #
transform $-1 1 0 0 0 1 0 0 0 1 58.527176732688375 38.87171206031914 18.749340335426862 1 rotate no_reflect no_shear #
lump $-1 $-1 $54 $6 #
transform $-1 1 0 0 0 1 0 0 0 1 58.527176732688375 38.87171206031914 18.749340335426862 1 rotate no_reflect no_shear #
lump $-1 $-1 $55 $7 #
transform $-1 1 0 0 0 1 0 0 0 1 58.527176732688375 38.87171206031914 18.749340335426862 1 rotate no_reflect no_shear #
lump $-1 $-1 $56 $8 #
transform $-1 1 0 0 0 1 0 0 0 1 58.527176732688375 38.87171206031914 18.749340335426862 1 rotate no_reflect no_shear #
lump $-1 $-1 $57 $9 #
transform $-1 1 0 0 0 1 0 0 0 1 58.527176732688375 38.87171206031914 18.749340335426862 1 rotate no_reflect no_shear #
lump $-1 $-1 $58 $10 #
transform $-1 1 0 0 0 1 0 0 0 1 58.527176732688375 38.87171206031914 18.749340335426862 1 rotate no_reflect no_shear #
lump $-1 $-1 $59 $11 #
transform $-1 1 0 0 0 1 0 0 0 1 58.527176732688375 38.87171206031914 18.749340335426862 1 rotate no_reflect no_shear #
lump $-1 $-1 $60 $12 #
transform $-1 1 0 0 0 1 0 0 0 1 58.527176732688375 38.87171206031914 18.749340335426862 1 rotate no_reflect no_shear #
lump $-1 $-1 $61 $13 #
transform $-1 1 0 0 0 1 0 0 0 1 58.527176732688375 38.87171206031914 18.749340335426862 1 rotate no_reflect no_shear #
lump $-1 $-1 $62 $14 #
transform $-1 1 0 0 0 1 0 0 0 1 58.527176732688375 38.87171206031914 18.749340335426862 1 rotate no_reflect no_shear #
lump $-1 $-1 $63 $15 #
transform $-1 1 0 0 0 1 0 0 0 1 58.527176732688375 38.87171206031914 18.749340335426862 1 rotate no_reflect no_shear #
shell $-1 $-1 $-1 $64 $-1 $16 #
shell $-1 $-1 $-1 $65 $-1 $18 #
shell $-1 $-1 $-1 $66 $-1 $20 #
shell $-1 $-1 $-1 $67 $-1 $22 #
shell $-1 $-1 $-1 $68 $-1 $24 #
shell $-1 $-1 $-1 $69 $-1 $26 #
shell $-1 $-1 $-1 $70 $-1 $28 #
shell $-1 $-1 $-1 $71 $-1 $30 #
shell $-1 $-1 $-1 $72 $-1 $32 #
shell $-1 $-1 $-1 $73 $-1 $34 #
shell $-1 $-1 $-1 $74 $-1 $36 #
shell $-1 $-1 $-1 $75 $-1 $38 #
shell $-1 $-1 $-1 $76 $-1 $40 #
shell $-1 $-1 $-1 $77 $-1 $42 #
shell $-1 $-1 $-1 $78 $-1 $44 #
shell $-1 $-1 $-1 $79 $-1 $46 #
face $-1 $80 $81 $48 $-1 $82 forward single #
face $-1 $83 $84 $49 $-1 $85 forward single #
face $-1 $86 $87 $50 $-1 $88 reversed single #
face $-1 $89 $90 $51 $-1 $91 forward single #
face $-1 $92 $93 $52 $-1 $94 forward single #
face $-1 $95 $96 $53 $-1 $97 reversed single #
face $-1 $98 $99 $54 $-1 $100 forward single #
face $-1 $101 $102 $55 $-1 $103 forward single #
face $-1 $104 $105 $56 $-1 $106 reversed single #
face $-1 $107 $108 $57 $-1 $109 forward single #
face $-1 $110 $111 $58 $-1 $112 forward single #
face $-1 $113 $114 $59 $-1 $115 reversed single #
face $-1 $116 $117 $60 $-1 $118 forward single #
face $-1 $119 $120 $61 $-1 $121 forward single #
face $-1 $122 $123 $62 $-1 $124 reversed single #
face $-1 $125 $126 $63 $-1 $127 forward single #
face $-1 $128 $129 $48 $-1 $130 reversed single #
loop $-1 $-1 $131 $64 #
plane-surface $-1 0 0 18.749340335426862 0 0 1 1 0 0 forward_v I I I I #
face $-1 $132 $133 $49 $-1 $134 reversed single #
loop $-1 $-1 $135 $65 #
plane-surface $-1 -58.527176732688375 0 0 1 0 0 0 0 -1 forward_v I I I I #
face $-1 $136 $137 $50 $-1 $138 reversed single #
loop $-1 $-1 $139 $66 #
plane-surface $-1 -42.125680094337497 85.56831656741852 146.72433106340657 1 0 0 0 -0.79863551827123203 -0.60181501223851219 forward_v I I I I #
face $-1 $140 $141 $51 $-1 $142 forward single #
loop $-1 $143 $144 $67 #
cone-surface $-1 -37.359790609472 35.600868487176847 15.29953962949368 0 -0.79863551827123203 -0.60181501223851219 1 0 0 1 I I 0 1 1 forward I I I I #
face $-1 $145 $146 $52 $-1 $147 forward single #
loop $-1 $148 $149 $68 #
cone-surface $-1 -30.210956382173745 35.600868487176847 15.29953962949368 0 -0.79863551827123203 -0.60181501223851219 1 0 0 1 I I 0 1 1 forward I I I I #
face $-1 $150 $151 $53 $-1 $152 reversed single #
loop $-1 $-1 $153 $69 #
plane-surface $-1 -15.031989687425078 85.56831656741852 146.72433106340657 1 0 0 0 -0.79863551827123203 -0.60181501223851219 forward_v I I I I #
face $-1 $154 $155 $54 $-1 $156 forward single #
loop $-1 $157 $158 $70 #
cone-surface $-1 -10.266100202559571 35.600868487176847 15.29953962949368 0 -0.79863551827123203 -0.60181501223851219 1 0 0 1 I I 0 1 1 forward I I I I #
face $-1 $159 $160 $55 $-1 $161 forward single #
loop $-1 $162 $163 $71 #
cone-surface $-1 -3.1172659752613185 35.600868487176847 15.29953962949368 0 -0.79863551827123203 -0.60181501223851219 1 0 0 1 I I 0 1 1 forward I I I I #
face $-1 $164 $165 $56 $-1 $166 reversed single #
loop $-1 $-1 $167 $72 #
plane-surface $-1 12.061700719487344 85.56831656741852 146.72433106340657 1 0 0 0 -0.79863551827123203 -0.60181501223851219 forward_v I I I I #
face $-1 $168 $169 $57 $-1 $170 forward single #
loop $-1 $171 $172 $73 #
cone-surface $-1 16.827590204352859 35.600868487176847 15.29953962949368 0 -0.79863551827123203 -0.60181501223851219 1 0 0 1 I I 0 1 1 forward I I I I #
face $-1 $173 $174 $58 $-1 $175 forward single #
loop $-1 $176 $177 $74 #
cone-surface $-1 23.976424431651111 35.600868487176847 15.29953962949368 0 -0.79863551827123203 -0.60181501223851219 1 0 0 1 I I 0 1 1 forward I I I I #
face $-1 $178 $179 $59 $-1 $180 reversed single #
loop $-1 $-1 $181 $75 #
plane-surface $-1 39.155391126399778 85.56831656741852 146.72433106340657 1 0 0 0 -0.79863551827123203 -0.60181501223851219 forward_v I I I I #
face $-1 $182 $183 $60 $-1 $184 forward single #
loop $-1 $185 $186 $76 #
cone-surface $-1 43.921280611265288 35.600868487176847 15.29953962949368 0 -0.79863551827123203 -0.60181501223851219 1 0 0 1 I I 0 1 1 forward I I I I #
face $-1 $187 $188 $61 $-1 $189 forward single #
loop $-1 $190 $191 $77 #
cone-surface $-1 51.070114838563541 35.600868487176847 15.29953962949368 0 -0.79863551827123203 -0.60181501223851219 1 0 0 1 I I 0 1 1 forward I I I I #
face $-1 $192 $193 $62 $-1 $194 reversed single #
loop $-1 $-1 $195 $78 #
plane-surface $-1 -2.3313813736390916 -100.90106974301362 107.35603858042454 -1 0 0 0 -0.52991927123019833 0.84804809178421925 forward_v I I I I #
face $-1 $196 $197 $63 $-1 $198 forward single #
loop $-1 $199 $200 $79 #
cone-surface $-1 -16.862213573684109 -27.132258465411152 8.2835919305487185 0 0.52991927123019833 -0.84804809178421925 4 0 0 1 I I 0 1 4 forward I I I I #
face $-1 $201 $202 $48 $-1 $203 reversed single #
loop $-1 $-1 $204 $80 #
plane-surface $-1 0 0 -18.749340335426862 0 0 1 1 0 0 forward_v I I I I #
coedge $-1 $205 $206 $207 $208 forward $81 $-1 #
face $-1 $209 $210 $49 $-1 $211 forward single #
loop $-1 $-1 $212 $83 #
plane-surface $-1 0 38.87171206031914 0 0 -1 0 0 0 -1 forward_v I I I I #
coedge $-1 $213 $214 $215 $216 forward $84 $-1 #
face $-1 $217 $218 $50 $-1 $219 reversed single #
loop $-1 $-1 $220 $86 #
plane-surface $-1 -33.785373495822867 -7.9154476783066201 76.279263900069722 0 0.79863551827123203 0.60181501223851219 1 0 0 forward_v I I I I #
coedge $-1 $221 $222 $223 $224 reversed $87 $-1 #
face $-1 $-1 $225 $51 $-1 $226 forward single #
loop $-1 $227 $228 $89 #
cone-surface $-1 -37.359790609472 33.648334188379025 13.82819954250289 0 -0.79863551827123203 -0.60181501223851219 0.5 0 0 1 I I -0.70710678118654746 0.70710678118654746 0.5 forward I I I I #
loop $-1 $-1 $229 $67 #
coedge $-1 $144 $144 $230 $231 reversed $90 $-1 #
face $-1 $-1 $232 $52 $-1 $233 forward single #
loop $-1 $234 $235 $92 #
cone-surface $-1 -30.210956382173745 33.648334188379025 13.82819954250289 0 -0.79863551827123203 -0.60181501223851219 0.5 0 0 1 I I -0.70710678118654746 0.70710678118654746 0.5 forward I I I I #
loop $-1 $-1 $236 $68 #
coedge $-1 $149 $149 $237 $238 reversed $93 $-1 #
face $-1 $239 $240 $53 $-1 $241 reversed single #
loop $-1 $-1 $242 $95 #
plane-surface $-1 -6.6916830889104446 -7.9154476783066201 76.279263900069722 0 0.79863551827123203 0.60181501223851219 1 0 0 forward_v I I I I #
coedge $-1 $243 $244 $245 $246 reversed $96 $-1 #
face $-1 $-1 $247 $54 $-1 $248 forward single #
loop $-1 $249 $250 $98 #
cone-surface $-1 -10.266100202559571 33.648334188379025 13.82819954250289 0 -0.79863551827123203 -0.60181501223851219 0.5 0 0 1 I I -0.70710678118654746 0.70710678118654746 0.5 forward I I I I #
loop $-1 $-1 $251 $70 #
coedge $-1 $158 $158 $252 $253 reversed $99 $-1 #
face $-1 $-1 $254 $55 $-1 $255 forward single #
loop $-1 $256 $257 $101 #
cone-surface $-1 -3.1172659752613185 33.648334188379025 13.82819954250289 0 -0.79863551827123203 -0.60181501223851219 0.5 0 0 1 I I -0.70710678118654746 0.70710678118654746 0.5 forward I I I I #
loop $-1 $-1 $258 $71 #
coedge $-1 $163 $163 $259 $260 reversed $102 $-1 #
face $-1 $261 $262 $56 $-1 $263 reversed single #
loop $-1 $-1 $264 $104 #
plane-surface $-1 20.402007318001978 -7.9154476783066201 76.279263900069722 0 0.79863551827123203 0.60181501223851219 1 0 0 forward_v I I I I #
coedge $-1 $265 $266 $267 $268 reversed $105 $-1 #
face $-1 $-1 $269 $57 $-1 $270 forward single #
loop $-1 $271 $272 $107 #
cone-surface $-1 16.827590204352859 33.648334188379025 13.82819954250289 0 -0.79863551827123203 -0.60181501223851219 0.5 0 0 1 I I -0.70710678118654746 0.70710678118654746 0.5 forward I I I I #
loop $-1 $-1 $273 $73 #
coedge $-1 $172 $172 $274 $275 reversed $108 $-1 #
face $-1 $-1 $276 $58 $-1 $277 forward single #
loop $-1 $278 $279 $110 #
cone-surface $-1 23.976424431651111 33.648334188379025 13.82819954250289 0 -0.79863551827123203 -0.60181501223851219 0.5 0 0 1 I I -0.70710678118654746 0.70710678118654746 0.5 forward I I I I #
loop $-1 $-1 $280 $74 #
coedge $-1 $177 $177 $281 $282 reversed $111 $-1 #
face $-1 $283 $284 $59 $-1 $285 reversed single #
loop $-1 $-1 $286 $113 #
plane-surface $-1 47.495697724914407 -7.9154476783066201 76.279263900069722 0 0.79863551827123203 0.60181501223851219 1 0 0 forward_v I I I I #
coedge $-1 $287 $288 $289 $290 reversed $114 $-1 #
face $-1 $-1 $291 $60 $-1 $292 forward single #
loop $-1 $293 $294 $116 #
cone-surface $-1 43.921280611265288 33.648334188379025 13.82819954250289 0 -0.79863551827123203 -0.60181501223851219 0.5 0 0 1 I I -0.70710678118654746 0.70710678118654746 0.5 forward I I I I #
loop $-1 $-1 $295 $76 #
coedge $-1 $186 $186 $296 $297 reversed $117 $-1 #
face $-1 $-1 $298 $61 $-1 $299 forward single #
loop $-1 $300 $301 $119 #
cone-surface $-1 51.070114838563541 33.648334188379025 13.82819954250289 0 -0.79863551827123203 -0.60181501223851219 0.5 0 0 1 I I -0.70710678118654746 0.70710678118654746 0.5 forward I I I I #
loop $-1 $-1 $302 $77 #
coedge $-1 $191 $191 $303 $304 reversed $120 $-1 #
face $-1 $305 $306 $62 $-1 $307 reversed single #
loop $-1 $-1 $308 $122 #
plane-surface $-1 -16.862213573684109 -38.87171206031914 8.0883174890762888 0 -0.52991927123019833 0.84804809178421925 1 0 0 forward_v I I I I #
coedge $-1 $309 $310 $311 $312 reversed $123 $-1 #
face $-1 $-1 $313 $63 $-1 $314 forward single #
loop $-1 $315 $316 $125 #
cone-surface $-1 -16.862213573684109 -22.863567659380365 1.4522587652774206 0 0.52991927123019833 -0.84804809178421925 2 0 0 1 I I -0.70710678118654746 0.70710678118654746 2 forward I I I I #
loop $-1 $-1 $317 $79 #
coedge $-1 $200 $200 $318 $319 reversed $126 $-1 #
face $-1 $320 $321 $48 $-1 $322 reversed single #
loop $-1 $-1 $323 $128 #
plane-surface $-1 0 -38.87171206031914 0 0 1 0 0 0 1 forward_v I I I I #
coedge $-1 $324 $325 $326 $327 forward $129 $-1 #
coedge $-1 $328 $131 $329 $330 forward $81 $-1 #
coedge $-1 $131 $328 $331 $332 forward $81 $-1 #
coedge $-1 $333 $334 $131 $208 reversed $335 $-1 #
edge $-1 $336 -38.87171206031914 $337 38.87171206031914 $207 $338 forward 7 unknown #
face $-1 $339 $340 $49 $-1 $341 reversed single #
loop $-1 $-1 $215 $132 #
plane-surface $-1 -65.382338847234138 0 -9.3511526687728512 0 0 1 1 0 0 forward_v I I I I #
coedge $-1 $342 $343 $214 $344 forward $133 $-1 #
coedge $-1 $345 $135 $346 $347 reversed $84 $-1 #
coedge $-1 $135 $345 $212 $344 reversed $84 $-1 #
coedge $-1 $348 $349 $135 $216 reversed $210 $-1 #
edge $-1 $350 -38.87171206031914 $351 38.87171206031914 $215 $352 forward 7 unknown #
face $-1 $353 $354 $50 $-1 $355 forward single #
loop $-1 $-1 $356 $136 #
plane-surface $-1 -25.445066897308234 85.56831656741852 146.72433106340657 -1 0 0 0 0.79863551827123203 0.60181501223851219 forward_v I I I I #
coedge $-1 $357 $358 $359 $360 reversed $137 $-1 #
coedge $-1 $222 $139 $361 $362 reversed $87 $-1 #
coedge $-1 $139 $221 $357 $363 reversed $87 $-1 #
coedge $-1 $359 $364 $139 $224 forward $354 $-1 #
edge $-1 $365 3.9124462233901198 $366 7.3477002903502893 $223 $367 forward 7 unknown #
loop $-1 $-1 $230 $140 #
plane-surface $-1 -33.785373495822867 -7.9154476783066201 76.279263900069722 0 0.79863551827123203 0.60181501223851219 1 0 0 forward_v I I I I #
loop $-1 $-1 $368 $89 #
coedge $-1 $228 $228 $229 $369 reversed $141 $-1 #
coedge $-1 $229 $229 $228 $369 forward $143 $-1 #
coedge $-1 $230 $230 $144 $231 forward $225 $-1 #
edge $-1 $370 4.2761528521745063e-015 $370 6.2831853071796049 $230 $371 forward 7 unknown #
loop $-1 $-1 $237 $145 #
plane-surface $-1 -33.785373495822867 -7.9154476783066201 76.279263900069722 0 0.79863551827123203 0.60181501223851219 1 0 0 forward_v I I I I #
loop $-1 $-1 $372 $92 #
coedge $-1 $235 $235 $236 $373 reversed $146 $-1 #
coedge $-1 $236 $236 $235 $373 forward $148 $-1 #
coedge $-1 $237 $237 $149 $238 forward $232 $-1 #
edge $-1 $374 4.2761528521745063e-015 $374 6.2831853071796049 $237 $375 forward 7 unknown #
face $-1 $376 $377 $53 $-1 $378 forward single #
loop $-1 $-1 $379 $150 #
plane-surface $-1 1.6486235096041888 85.56831656741852 146.72433106340657 -1 0 0 0 0.79863551827123203 0.60181501223851219 forward_v I I I I #
coedge $-1 $380 $381 $382 $383 reversed $151 $-1 #
coedge $-1 $244 $153 $384 $385 reversed $96 $-1 #
coedge $-1 $153 $243 $380 $386 reversed $96 $-1 #
coedge $-1 $382 $387 $153 $246 forward $377 $-1 #
edge $-1 $388 3.9124462233901198 $389 7.3477002903502893 $245 $390 forward 7 unknown #
loop $-1 $-1 $252 $154 #
plane-surface $-1 -6.6916830889104446 -7.9154476783066201 76.279263900069722 0 0.79863551827123203 0.60181501223851219 1 0 0 forward_v I I I I #
loop $-1 $-1 $391 $98 #
coedge $-1 $250 $250 $251 $392 reversed $155 $-1 #
coedge $-1 $251 $251 $250 $392 forward $157 $-1 #
coedge $-1 $252 $252 $158 $253 forward $247 $-1 #
edge $-1 $393 4.2761528521745063e-015 $393 6.2831853071796049 $252 $394 forward 7 unknown #
loop $-1 $-1 $259 $159 #
plane-surface $-1 -6.6916830889104446 -7.9154476783066201 76.279263900069722 0 0.79863551827123203 0.60181501223851219 1 0 0 forward_v I I I I #
loop $-1 $-1 $395 $101 #
coedge $-1 $257 $257 $258 $396 reversed $160 $-1 #
coedge $-1 $258 $258 $257 $396 forward $162 $-1 #
coedge $-1 $259 $259 $163 $260 forward $254 $-1 #
edge $-1 $397 4.2761528521745063e-015 $397 6.2831853071796049 $259 $398 forward 7 unknown #
face $-1 $399 $400 $56 $-1 $401 forward single #
loop $-1 $-1 $402 $164 #
plane-surface $-1 28.742313916516611 85.56831656741852 146.72433106340657 -1 0 0 0 0.79863551827123203 0.60181501223851219 forward_v I I I I #
coedge $-1 $403 $404 $405 $406 reversed $165 $-1 #
coedge $-1 $266 $167 $407 $408 reversed $105 $-1 #
coedge $-1 $167 $265 $403 $409 reversed $105 $-1 #
coedge $-1 $405 $410 $167 $268 forward $400 $-1 #
edge $-1 $411 3.9124462233901198 $412 7.3477002903502893 $267 $413 forward 7 unknown #
loop $-1 $-1 $274 $168 #
plane-surface $-1 20.402007318001978 -7.9154476783066201 76.279263900069722 0 0.79863551827123203 0.60181501223851219 1 0 0 forward_v I I I I #
loop $-1 $-1 $414 $107 #
coedge $-1 $272 $272 $273 $415 reversed $169 $-1 #
coedge $-1 $273 $273 $272 $415 forward $171 $-1 #
coedge $-1 $274 $274 $172 $275 forward $269 $-1 #
edge $-1 $416 4.2761528521745063e-015 $416 6.2831853071796049 $274 $417 forward 7 unknown #
loop $-1 $-1 $281 $173 #
plane-surface $-1 20.402007318001978 -7.9154476783066201 76.279263900069722 0 0.79863551827123203 0.60181501223851219 1 0 0 forward_v I I I I #
loop $-1 $-1 $418 $110 #
coedge $-1 $279 $279 $280 $419 reversed $174 $-1 #
coedge $-1 $280 $280 $279 $419 forward $176 $-1 #
coedge $-1 $281 $281 $177 $282 forward $276 $-1 #
edge $-1 $420 4.2761528521745063e-015 $420 6.2831853071796049 $281 $421 forward 7 unknown #
face $-1 $422 $423 $59 $-1 $424 forward single #
loop $-1 $-1 $425 $178 #
plane-surface $-1 55.836004323429037 85.56831656741852 146.72433106340657 -1 0 0 0 0.79863551827123203 0.60181501223851219 forward_v I I I I #
coedge $-1 $426 $427 $428 $429 reversed $179 $-1 #
coedge $-1 $288 $181 $430 $431 reversed $114 $-1 #
coedge $-1 $181 $287 $426 $432 reversed $114 $-1 #
coedge $-1 $428 $433 $181 $290 forward $423 $-1 #
edge $-1 $434 3.9124462233901198 $435 7.3477002903502893 $289 $436 forward 7 unknown #
loop $-1 $-1 $296 $182 #
plane-surface $-1 47.495697724914407 -7.9154476783066201 76.279263900069722 0 0.79863551827123203 0.60181501223851219 1 0 0 forward_v I I I I #
loop $-1 $-1 $437 $116 #
coedge $-1 $294 $294 $295 $438 reversed $183 $-1 #
coedge $-1 $295 $295 $294 $438 forward $185 $-1 #
coedge $-1 $296 $296 $186 $297 forward $291 $-1 #
edge $-1 $439 4.2761528521745063e-015 $439 6.2831853071796049 $296 $440 forward 7 unknown #
loop $-1 $-1 $303 $187 #
plane-surface $-1 47.495697724914407 -7.9154476783066201 76.279263900069722 0 0.79863551827123203 0.60181501223851219 1 0 0 forward_v I I I I #
loop $-1 $-1 $441 $119 #
coedge $-1 $301 $301 $302 $442 reversed $188 $-1 #
coedge $-1 $302 $302 $301 $442 forward $190 $-1 #
coedge $-1 $303 $303 $191 $304 forward $298 $-1 #
edge $-1 $443 4.2761528521745063e-015 $443 6.2831853071796049 $303 $444 forward 7 unknown #
face $-1 $445 $446 $62 $-1 $447 reversed single #
loop $-1 $-1 $448 $192 #
plane-surface $-1 -31.393045773729128 -100.90106974301362 107.35603858042454 1 0 0 0 0.52991927123019833 -0.84804809178421925 forward_v I I I I #
coedge $-1 $449 $450 $451 $452 reversed $193 $-1 #
coedge $-1 $310 $195 $453 $454 reversed $123 $-1 #
coedge $-1 $195 $309 $449 $455 reversed $123 $-1 #
coedge $-1 $451 $456 $195 $312 forward $457 $-1 #
edge $-1 $458 11.578822811187671 $459 28.640025473862885 $311 $460 forward 7 unknown #
loop $-1 $-1 $318 $196 #
plane-surface $-1 -16.862213573684109 -38.87171206031914 8.0883174890762888 0 -0.52991927123019833 0.84804809178421925 1 0 0 forward_v I I I I #
loop $-1 $-1 $461 $125 #
coedge $-1 $316 $316 $317 $462 reversed $197 $-1 #
coedge $-1 $317 $317 $316 $462 forward $199 $-1 #
coedge $-1 $318 $318 $200 $319 forward $313 $-1 #
edge $-1 $463 1.8810770778914452e-016 $463 6.2831853071796004 $318 $464 forward 7 unknown #
face $-1 $465 $466 $48 $-1 $467 reversed single #
loop $-1 $-1 $468 $201 #
plane-surface $-1 -58.527176732688375 0 0 1 0 0 0 0 -1 forward_v I I I I #
coedge $-1 $469 $331 $470 $471 forward $202 $-1 #
coedge $-1 $472 $204 $469 $473 forward $129 $-1 #
coedge $-1 $204 $472 $474 $475 forward $129 $-1 #
coedge $-1 $334 $333 $204 $327 reversed $335 $-1 #
edge $-1 $476 -38.87171206031914 $477 38.87171206031914 $326 $478 forward 7 unknown #
coedge $-1 $206 $205 $479 $480 forward $81 $-1 #
coedge $-1 $481 $482 $205 $330 reversed $466 $-1 #
edge $-1 $337 -58.527176732688375 $483 58.527176732688375 $329 $484 forward 7 unknown #
coedge $-1 $323 $485 $206 $332 reversed $202 $-1 #
edge $-1 $486 -58.527176732688375 $336 58.527176732688375 $331 $487 forward 7 unknown #
coedge $-1 $326 $207 $485 $488 forward $335 $-1 #
coedge $-1 $207 $326 $481 $489 reversed $335 $-1 #
loop $-1 $-1 $333 $465 #
vertex $-1 $208 $490 #
vertex $-1 $208 $491 #
straight-curve $-1 58.527176732688375 0 18.749340335426862 0 1 0 I I #
face $-1 $492 $493 $49 $-1 $494 reversed single #
loop $-1 $-1 $495 $209 #
plane-surface $-1 -72.237500961779901 0 -14.050246502099856 1 0 0 0 0 -1 forward_v I I I I #
coedge $-1 $496 $212 $497 $498 reversed $133 $-1 #
coedge $-1 $212 $496 $348 $499 reversed $133 $-1 #
edge $-1 $350 9.3511526687728512 $500 18.749340335426862 $212 $501 forward 7 unknown #
coedge $-1 $214 $213 $502 $503 reversed $84 $-1 #
coedge $-1 $504 $505 $213 $347 forward $506 $-1 #
edge $-1 $507 -18.749340335426862 $351 -9.3511526687728512 $346 $508 forward 7 unknown #
coedge $-1 $509 $215 $343 $499 forward $210 $-1 #
coedge $-1 $215 $509 $504 $510 forward $210 $-1 #
vertex $-1 $344 $511 #
vertex $-1 $510 $512 #
straight-curve $-1 -58.527176732688375 0 -9.3511526687728512 0 -1 0 I I #
face $-1 $-1 $513 $50 $-1 $514 reversed single #
loop $-1 $-1 $223 $217 #
plane-surface $-1 0 0 18.749340335426862 0 0 1 1 0 0 forward_v I I I I #
coedge $-1 $515 $516 $517 $518 reversed $218 $-1 #
coedge $-1 $519 $220 $222 $363 forward $137 $-1 #
coedge $-1 $220 $519 $515 $520 forward $137 $-1 #
coedge $-1 $517 $223 $220 $360 forward $354 $-1 #
edge $-1 $366 -25.232993346426063 $521 -8.5523801493968001 $359 $522 forward 7 unknown #
coedge $-1 $523 $524 $221 $362 forward $513 $-1 #
edge $-1 $525 -59.171561446399707 $365 -54.612825196276418 $361 $526 forward 7 unknown #
edge $-1 $366 72.035267964509174 $525 77.743424120638267 $222 $527 forward 7 unknown #
coedge $-1 $223 $517 $523 $528 forward $354 $-1 #
vertex $-1 $362 $529 #
vertex $-1 $224 $530 #
straight-curve $-1 -42.125680094337497 42.78415828370926 18.749340335426865 0 -1 0 I I #
coedge $-1 $368 $368 $-1 $531 reversed $227 $-1 #
edge $-1 $532 0 $532 6.2831853071796004 $228 $533 forward 7 unknown #
vertex $-1 $231 $534 #
ellipse-curve $-1 -37.359790609472 37.154085026839056 16.469972210365214 0 0.79863551827123203 0.60181501223851219 1 0 0 1 I I #
coedge $-1 $372 $372 $-1 $535 reversed $234 $-1 #
edge $-1 $536 0 $536 6.2831853071796004 $235 $537 forward 7 unknown #
vertex $-1 $238 $538 #
ellipse-curve $-1 -30.210956382173745 37.154085026839056 16.469972210365214 0 0.79863551827123203 0.60181501223851219 1 0 0 1 I I #
face $-1 $-1 $539 $53 $-1 $540 reversed single #
loop $-1 $-1 $245 $239 #
plane-surface $-1 0 0 18.749340335426862 0 0 1 1 0 0 forward_v I I I I #
coedge $-1 $541 $542 $543 $544 reversed $240 $-1 #
coedge $-1 $545 $242 $244 $386 forward $151 $-1 #
coedge $-1 $242 $545 $541 $546 forward $151 $-1 #
coedge $-1 $543 $245 $242 $383 forward $377 $-1 #
edge $-1 $389 -11.686148142969856 $547 4.9944650540594111 $382 $548 forward 7 unknown #
coedge $-1 $549 $550 $243 $385 forward $539 $-1 #
edge $-1 $551 -59.171561446399707 $388 -54.612825196276418 $384 $552 forward 7 unknown #
edge $-1 $389 72.035267964509174 $551 77.743424120638267 $244 $553 forward 7 unknown #
coedge $-1 $245 $543 $549 $554 forward $377 $-1 #
vertex $-1 $246 $555 #
vertex $-1 $246 $556 #
straight-curve $-1 -15.031989687425078 42.78415828370926 18.749340335426865 0 -1 0 I I #
coedge $-1 $391 $391 $-1 $557 reversed $249 $-1 #
edge $-1 $558 0 $558 6.2831853071796004 $250 $559 forward 7 unknown #
vertex $-1 $253 $560 #
ellipse-curve $-1 -10.266100202559571 37.154085026839056 16.469972210365214 0 0.79863551827123203 0.60181501223851219 1 0 0 1 I I #
coedge $-1 $395 $395 $-1 $561 reversed $256 $-1 #
edge $-1 $562 0 $562 6.2831853071796004 $257 $563 forward 7 unknown #
vertex $-1 $260 $564 #
ellipse-curve $-1 -3.1172659752613185 37.154085026839056 16.469972210365214 0 0.79863551827123203 0.60181501223851219 1 0 0 1 I I #
face $-1 $-1 $565 $56 $-1 $566 reversed single #
loop $-1 $-1 $267 $261 #
plane-surface $-1 0 0 18.749340335426862 0 0 1 1 0 0 forward_v I I I I #
coedge $-1 $567 $568 $569 $570 reversed $262 $-1 #
coedge $-1 $571 $264 $266 $409 forward $165 $-1 #
coedge $-1 $264 $571 $567 $572 forward $165 $-1 #
coedge $-1 $569 $267 $264 $406 forward $400 $-1 #
edge $-1 $412 1.8606970604863555 $573 18.541310257515622 $405 $574 forward 7 unknown #
coedge $-1 $575 $576 $265 $408 forward $565 $-1 #
edge $-1 $577 -59.171561446399707 $411 -54.612825196276418 $407 $578 forward 7 unknown #
edge $-1 $412 72.035267964509174 $577 77.743424120638267 $266 $579 forward 7 unknown #
coedge $-1 $267 $569 $575 $580 forward $400 $-1 #
vertex $-1 $268 $581 #
vertex $-1 $268 $582 #
straight-curve $-1 12.061700719487344 42.78415828370926 18.749340335426865 0 -1 0 I I #
coedge $-1 $414 $414 $-1 $583 reversed $271 $-1 #
edge $-1 $584 0 $584 6.2831853071796004 $272 $585 forward 7 unknown #
vertex $-1 $275 $586 #
ellipse-curve $-1 16.827590204352859 37.154085026839056 16.469972210365214 0 0.79863551827123203 0.60181501223851219 1 0 0 1 I I #
coedge $-1 $418 $418 $-1 $587 reversed $278 $-1 #
edge $-1 $588 0 $588 6.2831853071796004 $279 $589 forward 7 unknown #
vertex $-1 $282 $590 #
ellipse-curve $-1 23.976424431651111 37.154085026839056 16.469972210365214 0 0.79863551827123203 0.60181501223851219 1 0 0 1 I I #
face $-1 $-1 $591 $59 $-1 $592 reversed single #
loop $-1 $-1 $289 $283 #
plane-surface $-1 0 0 18.749340335426862 0 0 1 1 0 0 forward_v I I I I #
coedge $-1 $593 $594 $595 $596 reversed $284 $-1 #
coedge $-1 $597 $286 $288 $432 forward $179 $-1 #
coedge $-1 $286 $597 $593 $598 forward $179 $-1 #
coedge $-1 $595 $289 $286 $429 forward $423 $-1 #
edge $-1 $435 15.407542263942574 $599 32.088155460971834 $428 $600 forward 7 unknown #
coedge $-1 $601 $602 $287 $431 forward $591 $-1 #
edge $-1 $603 -59.171561446399707 $434 -54.612825196276418 $430 $604 forward 7 unknown #
edge $-1 $435 72.035267964509174 $603 77.743424120638267 $288 $605 forward 7 unknown #
coedge $-1 $289 $595 $601 $606 forward $423 $-1 #
vertex $-1 $290 $607 #
vertex $-1 $290 $608 #
straight-curve $-1 39.155391126399778 42.78415828370926 18.749340335426865 0 -1 0 I I #
coedge $-1 $437 $437 $-1 $609 reversed $293 $-1 #
edge $-1 $610 0 $610 6.2831853071796004 $294 $611 forward 7 unknown #
vertex $-1 $297 $612 #
ellipse-curve $-1 43.921280611265288 37.154085026839056 16.469972210365214 0 0.79863551827123203 0.60181501223851219 1 0 0 1 I I #
coedge $-1 $441 $441 $-1 $613 reversed $300 $-1 #
edge $-1 $614 0 $614 6.2831853071796004 $301 $615 forward 7 unknown #
vertex $-1 $304 $616 #
ellipse-curve $-1 51.070114838563541 37.154085026839056 16.469972210365214 0 0.79863551827123203 0.60181501223851219 1 0 0 1 I I #
face $-1 $-1 $457 $62 $-1 $617 forward single #
loop $-1 $-1 $618 $305 #
plane-surface $-1 0 -38.87171206031914 0 0 1 0 0 0 1 forward_v I I I I #
coedge $-1 $619 $620 $621 $622 reversed $306 $-1 #
coedge $-1 $623 $308 $310 $455 forward $193 $-1 #
coedge $-1 $308 $623 $619 $624 forward $193 $-1 #
coedge $-1 $621 $311 $308 $452 forward $457 $-1 #
edge $-1 $459 -6.0997254132029628 $625 22.961938986887073 $451 $626 forward 7 unknown #
coedge $-1 $627 $628 $309 $454 forward $446 $-1 #
edge $-1 $629 -45.58970180113598 $458 -34.928678954785411 $453 $630 forward 7 unknown #
edge $-1 $459 -20.118201818932146 $629 0 $310 $631 forward 7 unknown #
coedge $-1 $311 $621 $627 $632 forward $457 $-1 #
loop $-1 $-1 $621 $445 #
vertex $-1 $454 $633 #
vertex $-1 $312 $634 #
straight-curve $-1 -2.3313813736390916 -50.450534871506811 18.749340335426858 0 1 0 I I #
coedge $-1 $461 $461 $-1 $635 reversed $315 $-1 #
edge $-1 $636 0 $636 6.2831853071796004 $316 $637 forward 7 unknown #
vertex $-1 $319 $638 #
ellipse-curve $-1 -16.862213573684109 -30.34111072898154 13.418828912251573 0 -0.52991927123019833 0.84804809178421925 4 0 0 1 I I #
face $-1 $-1 $335 $48 $-1 $639 reversed single #
loop $-1 $-1 $481 $320 #
plane-surface $-1 0 38.87171206031914 0 0 -1 0 0 0 -1 forward_v I I I I #
coedge $-1 $640 $479 $482 $641 forward $321 $-1 #
coedge $-1 $485 $323 $324 $473 reversed $202 $-1 #
coedge $-1 $479 $640 $323 $471 reversed $321 $-1 #
edge $-1 $486 -18.749340335426862 $642 18.749340335426862 $470 $643 forward 7 unknown #
coedge $-1 $325 $324 $640 $644 forward $129 $-1 #
edge $-1 $477 -58.527176732688375 $642 58.527176732688375 $469 $645 forward 7 unknown #
coedge $-1 $482 $481 $325 $475 reversed $466 $-1 #
edge $-1 $646 -58.527176732688375 $476 58.527176732688375 $474 $647 forward 7 unknown #
vertex $-1 $327 $648 #
vertex $-1 $488 $649 #
straight-curve $-1 58.527176732688375 0 -18.749340335426862 0 -1 0 I I #
coedge $-1 $468 $470 $328 $480 reversed $321 $-1 #
edge $-1 $483 -38.87171206031914 $486 38.87171206031914 $479 $650 forward 7 unknown #
coedge $-1 $474 $329 $334 $489 forward $466 $-1 #
coedge $-1 $329 $474 $468 $641 reversed $466 $-1 #
vertex $-1 $330 $651 #
straight-curve $-1 0 38.87171206031914 18.749340335426862 -1 0 0 I I #
coedge $-1 $331 $469 $333 $488 reversed $202 $-1 #
vertex $-1 $480 $652 #
straight-curve $-1 0 -38.87171206031914 18.749340335426862 1 0 0 I I #
edge $-1 $336 -18.749340335426862 $477 18.749340335426862 $333 $653 forward 7 unknown #
edge $-1 $337 -18.749340335426862 $476 18.749340335426862 $334 $654 forward 7 unknown #
point $-1 58.527176732688375 -38.87171206031914 18.749340335426862 #
point $-1 58.527176732688375 38.87171206031914 18.749340335426862 #
face $-1 $-1 $506 $49 $-1 $655 reversed single #
loop $-1 $-1 $502 $339 #
plane-surface $-1 0 0 -18.749340335426862 0 0 1 1 0 0 forward_v I I I I #
coedge $-1 $656 $657 $496 $658 forward $340 $-1 #
coedge $-1 $343 $342 $495 $658 reversed $133 $-1 #
coedge $-1 $502 $659 $342 $498 forward $493 $-1 #
edge $-1 $660 -72.237500961779901 $500 -58.527176732688375 $342 $661 forward 7 unknown #
edge $-1 $350 -6.8551621145457702 $662 6.8551621145457631 $343 $663 forward 7 unknown #
vertex $-1 $344 $664 #
straight-curve $-1 -58.527176732688375 38.87171206031914 0 0 0 -1 I I #
coedge $-1 $665 $497 $345 $503 forward $493 $-1 #
edge $-1 $500 -38.87171206031914 $507 38.87171206031914 $502 $666 forward 7 unknown #
coedge $-1 $667 $346 $349 $510 reversed $506 $-1 #
coedge $-1 $346 $667 $665 $668 reversed $506 $-1 #
loop $-1 $-1 $346 $492 #
vertex $-1 $668 $669 #
straight-curve $-1 -58.527176732688375 -38.87171206031914 0 0 0 1 I I #
coedge $-1 $349 $348 $657 $670 forward $210 $-1 #
edge $-1 $671 -6.8551621145457631 $351 6.8551621145457702 $504 $672 forward 7 unknown #
point $-1 -58.527176732688368 38.87171206031914 -9.3511526687728512 #
point $-1 -58.527176732688368 -38.87171206031914 -9.3511526687728512 #
loop $-1 $-1 $361 $353 #
plane-surface $-1 0 38.87171206031914 0 0 -1 0 0 0 -1 forward_v I I I I #
coedge $-1 $516 $356 $358 $520 reversed $218 $-1 #
coedge $-1 $356 $515 $673 $674 reversed $218 $-1 #
coedge $-1 $364 $359 $356 $518 forward $354 $-1 #
edge $-1 $521 -7.3477002903502893 $675 -3.9124462233901198 $517 $676 forward 7 unknown #
coedge $-1 $358 $357 $524 $677 reversed $137 $-1 #
edge $-1 $678 -77.743424120638267 $521 -72.035267964509174 $515 $679 forward 7 unknown #
vertex $-1 $360 $680 #
straight-curve $-1 -16.892686747911434 35.436457993358964 18.749340335426872 1 0 0 I I #
coedge $-1 $673 $361 $364 $528 reversed $513 $-1 #
coedge $-1 $361 $673 $519 $677 forward $513 $-1 #
vertex $-1 $362 $681 #
straight-curve $-1 -42.125680094337497 38.87171206031914 73.362165531703283 0 0 1 I I #
straight-curve $-1 -42.125680094337497 -7.9154476783066201 76.279263900069722 0 0.60181501223851219 -0.79863551827123203 I I #
edge $-1 $675 25.445066897308234 $365 42.125680094337497 $523 $682 forward 7 unknown #
point $-1 -42.125680094337497 38.87171206031914 18.749340335426862 #
point $-1 -42.125680094337497 35.436457993358971 18.749340335426858 #
edge $-1 $683 1 $683 0 $368 $-1 forward 7 unknown #
vertex $-1 $369 $684 #
ellipse-curve $-1 -37.359790609472 34.047651947514638 14.129107048622146 0 0.79863551827123203 0.60181501223851219 1 0 0 1 I I #
point $-1 -36.359790609472 37.154085026839063 16.469972210365214 #
edge $-1 $685 1 $685 0 $372 $-1 forward 7 unknown #
vertex $-1 $373 $686 #
ellipse-curve $-1 -30.210956382173745 34.047651947514638 14.129107048622146 0 0.79863551827123203 0.60181501223851219 1 0 0 1 I I #
point $-1 -29.210956382173745 37.154085026839063 16.469972210365214 #
loop $-1 $-1 $384 $376 #
plane-surface $-1 0 38.87171206031914 0 0 -1 0 0 0 -1 forward_v I I I I #
coedge $-1 $542 $379 $381 $546 reversed $240 $-1 #
coedge $-1 $379 $541 $687 $688 reversed $240 $-1 #
coedge $-1 $387 $382 $379 $544 forward $377 $-1 #
edge $-1 $547 -7.3477002903502893 $689 -3.9124462233901198 $543 $690 forward 7 unknown #
coedge $-1 $381 $380 $550 $691 reversed $151 $-1 #
edge $-1 $692 -77.743424120638267 $547 -72.035267964509174 $541 $693 forward 7 unknown #
vertex $-1 $383 $694 #
straight-curve $-1 -3.3458415444552223 35.436457993358964 18.749340335426872 1 0 0 I I #
coedge $-1 $687 $384 $387 $554 reversed $539 $-1 #
coedge $-1 $384 $687 $545 $691 forward $539 $-1 #
vertex $-1 $385 $695 #
straight-curve $-1 -15.031989687425078 38.87171206031914 73.362165531703283 0 0 1 I I #
straight-curve $-1 -15.031989687425078 -7.9154476783066201 76.279263900069722 0 0.60181501223851219 -0.79863551827123203 I I #
edge $-1 $689 -1.6486235096041888 $388 15.031989687425078 $549 $696 forward 7 unknown #
point $-1 -15.031989687425078 38.87171206031914 18.749340335426862 #
point $-1 -15.031989687425078 35.436457993358971 18.749340335426858 #
edge $-1 $697 1 $697 0 $391 $-1 forward 7 unknown #
vertex $-1 $392 $698 #
ellipse-curve $-1 -10.266100202559571 34.047651947514638 14.129107048622146 0 0.79863551827123203 0.60181501223851219 1 0 0 1 I I #
point $-1 -9.2661002025595707 37.154085026839063 16.469972210365214 #
edge $-1 $699 1 $699 0 $395 $-1 forward 7 unknown #
vertex $-1 $396 $700 #
ellipse-curve $-1 -3.1172659752613185 34.047651947514638 14.129107048622146 0 0.79863551827123203 0.60181501223851219 1 0 0 1 I I #
point $-1 -2.1172659752613185 37.154085026839063 16.469972210365214 #
loop $-1 $-1 $407 $399 #
plane-surface $-1 0 38.87171206031914 0 0 -1 0 0 0 -1 forward_v I I I I #
coedge $-1 $568 $402 $404 $572 reversed $262 $-1 #
coedge $-1 $402 $567 $701 $702 reversed $262 $-1 #
coedge $-1 $410 $405 $402 $570 forward $400 $-1 #
edge $-1 $573 -7.3477002903502893 $703 -3.9124462233901198 $569 $704 forward 7 unknown #
coedge $-1 $404 $403 $576 $705 reversed $165 $-1 #
edge $-1 $706 -77.743424120638267 $573 -72.035267964509174 $567 $707 forward 7 unknown #
vertex $-1 $406 $708 #
straight-curve $-1 10.201003659000989 35.436457993358964 18.749340335426872 1 0 0 I I #
coedge $-1 $701 $407 $410 $580 reversed $565 $-1 #
coedge $-1 $407 $701 $571 $705 forward $565 $-1 #
vertex $-1 $408 $709 #
straight-curve $-1 12.061700719487344 38.87171206031914 73.362165531703283 0 0 1 I I #
straight-curve $-1 12.061700719487344 -7.9154476783066201 76.279263900069722 0 0.60181501223851219 -0.79863551827123203 I I #
edge $-1 $703 -28.742313916516611 $411 -12.061700719487344 $575 $710 forward 7 unknown #
point $-1 12.061700719487344 38.87171206031914 18.749340335426862 #
point $-1 12.061700719487344 35.436457993358971 18.749340335426858 #
edge $-1 $711 1 $711 0 $414 $-1 forward 7 unknown #
vertex $-1 $415 $712 #
ellipse-curve $-1 16.827590204352859 34.047651947514638 14.129107048622146 0 0.79863551827123203 0.60181501223851219 1 0 0 1 I I #
point $-1 17.827590204352859 37.154085026839063 16.469972210365214 #
edge $-1 $713 1 $713 0 $418 $-1 forward 7 unknown #
vertex $-1 $419 $714 #
ellipse-curve $-1 23.976424431651111 34.047651947514638 14.129107048622146 0 0.79863551827123203 0.60181501223851219 1 0 0 1 I I #
point $-1 24.976424431651111 37.154085026839063 16.469972210365214 #
loop $-1 $-1 $430 $422 #
plane-surface $-1 0 38.87171206031914 0 0 -1 0 0 0 -1 forward_v I I I I #
coedge $-1 $594 $425 $427 $598 reversed $284 $-1 #
coedge $-1 $425 $593 $715 $716 reversed $284 $-1 #
coedge $-1 $433 $428 $425 $596 forward $423 $-1 #
edge $-1 $599 -7.3477002903502893 $717 -3.9124462233901198 $595 $718 forward 7 unknown #
coedge $-1 $427 $426 $602 $719 reversed $179 $-1 #
edge $-1 $720 -77.743424120638267 $599 -72.035267964509174 $593 $721 forward 7 unknown #
vertex $-1 $429 $722 #
straight-curve $-1 23.747848862457204 35.436457993358964 18.749340335426872 1 0 0 I I #
coedge $-1 $715 $430 $433 $606 reversed $591 $-1 #
coedge $-1 $430 $715 $597 $719 forward $591 $-1 #
vertex $-1 $431 $723 #
straight-curve $-1 39.155391126399778 38.87171206031914 73.362165531703283 0 0 1 I I #
straight-curve $-1 39.155391126399778 -7.9154476783066201 76.279263900069722 0 0.60181501223851219 -0.79863551827123203 I I #
edge $-1 $717 -55.836004323429037 $434 -39.155391126399778 $601 $724 forward 7 unknown #
point $-1 39.155391126399778 38.87171206031914 18.749340335426862 #
point $-1 39.155391126399778 35.436457993358971 18.749340335426858 #
edge $-1 $725 1 $725 0 $437 $-1 forward 7 unknown #
vertex $-1 $438 $726 #
ellipse-curve $-1 43.921280611265288 34.047651947514638 14.129107048622146 0 0.79863551827123203 0.60181501223851219 1 0 0 1 I I #
point $-1 44.921280611265288 37.154085026839063 16.469972210365214 #
edge $-1 $727 1 $727 0 $441 $-1 forward 7 unknown #
vertex $-1 $442 $728 #
ellipse-curve $-1 51.070114838563541 34.047651947514638 14.129107048622146 0 0.79863551827123203 0.60181501223851219 1 0 0 1 I I #
point $-1 52.070114838563541 37.154085026839063 16.469972210365214 #
plane-surface $-1 0 0 18.749340335426862 0 0 1 1 0 0 forward_v I I I I #
coedge $-1 $628 $627 $620 $729 forward $446 $-1 #
coedge $-1 $620 $448 $450 $624 reversed $306 $-1 #
coedge $-1 $448 $619 $618 $729 reversed $306 $-1 #
coedge $-1 $456 $451 $448 $622 forward $457 $-1 #
edge $-1 $625 -28.640025473862885 $730 -11.578822811187671 $621 $731 forward 7 unknown #
coedge $-1 $450 $449 $628 $732 reversed $193 $-1 #
edge $-1 $733 0 $625 20.118201818932146 $619 $734 forward 7 unknown #
vertex $-1 $452 $735 #
straight-curve $-1 -8.4311067868420544 -21.810509397643923 18.749340335426862 -1 0 0 I I #
coedge $-1 $618 $453 $456 $632 reversed $446 $-1 #
coedge $-1 $453 $618 $623 $732 forward $446 $-1 #
vertex $-1 $454 $736 #
straight-curve $-1 -2.3313813736390916 -38.87171206031914 53.678019290212269 0 0 1 I I #
straight-curve $-1 -2.3313813736390916 -38.87171206031914 8.0883174890762888 0 -0.84804809178421925 -0.52991927123019833 I I #
edge $-1 $730 -31.393045773729128 $458 -2.3313813736390916 $627 $737 forward 7 unknown #
point $-1 -2.3313813736390916 -38.87171206031914 18.749340335426862 #
point $-1 -2.3313813736390916 -21.810509397643926 18.749340335426862 #
edge $-1 $738 1 $738 0 $461 $-1 forward 7 unknown #
vertex $-1 $462 $739 #
ellipse-curve $-1 -16.862213573684109 -23.923406201840763 3.1483549488458591 0 -0.52991927123019833 0.84804809178421925 4 0 0 1 I I #
point $-1 -12.862213573684109 -30.341110728981544 13.41882891225158 #
plane-surface $-1 58.527176732688375 0 0 -1 0 0 0 0 1 forward_v I I I I #
coedge $-1 $470 $468 $472 $644 reversed $321 $-1 #
edge $-1 $483 -18.749340335426862 $646 18.749340335426862 $482 $740 forward 7 unknown #
vertex $-1 $644 $741 #
straight-curve $-1 -58.527176732688375 -38.87171206031914 0 0 0 -1 I I #
edge $-1 $642 -38.87171206031914 $646 38.87171206031914 $640 $742 forward 7 unknown #
straight-curve $-1 0 -38.87171206031914 -18.749340335426862 -1 0 0 I I #
vertex $-1 $475 $743 #
straight-curve $-1 0 38.87171206031914 -18.749340335426862 1 0 0 I I #
point $-1 58.527176732688375 38.87171206031914 -18.749340335426862 #
point $-1 58.527176732688375 -38.87171206031914 -18.749340335426862 #
straight-curve $-1 -58.527176732688375 0 18.749340335426862 0 -1 0 I I #
point $-1 -58.527176732688375 38.87171206031914 18.749340335426862 #
point $-1 -58.527176732688375 -38.87171206031914 18.749340335426862 #
straight-curve $-1 58.527176732688375 -38.87171206031914 0 0 0 -1 I I #
straight-curve $-1 58.527176732688375 38.87171206031914 0 0 0 -1 I I #
plane-surface $-1 0 -38.87171206031914 0 0 1 0 0 0 1 forward_v I I I I #
coedge $-1 $744 $495 $659 $745 reversed $340 $-1 #
coedge $-1 $495 $744 $509 $670 reversed $340 $-1 #
edge $-1 $662 -4.6990938333270051 $660 4.6990938333270051 $496 $746 forward 7 unknown #
coedge $-1 $497 $665 $656 $745 forward $493 $-1 #
vertex $-1 $498 $747 #
straight-curve $-1 0 38.87171206031914 -18.749340335426862 1 0 0 I I #
vertex $-1 $499 $748 #
straight-curve $-1 -65.382338847234138 38.87171206031914 -9.3511526687728512 -1 0 0 I I #
point $-1 -58.527176732688375 38.87171206031914 -18.749340335426862 #
coedge $-1 $659 $502 $505 $668 forward $493 $-1 #
straight-curve $-1 -58.527176732688375 0 -18.749340335426862 0 -1 0 I I #
coedge $-1 $505 $504 $744 $749 forward $506 $-1 #
edge $-1 $507 -6.8551621145457631 $750 6.8551621145457631 $505 $751 forward 7 unknown #
point $-1 -58.527176732688375 -38.87171206031914 -18.749340335426862 #
edge $-1 $662 -38.87171206031914 $671 38.87171206031914 $657 $752 forward 7 unknown #
vertex $-1 $670 $753 #
straight-curve $-1 -65.382338847234138 -38.87171206031914 -9.3511526687728512 1 0 0 I I #
coedge $-1 $524 $523 $516 $674 forward $513 $-1 #
edge $-1 $675 54.612825196276418 $678 59.171561446399707 $673 $754 forward 7 unknown #
vertex $-1 $528 $755 #
straight-curve $-1 -25.445066897308234 42.78415828370926 18.749340335426865 0 1 0 I I #
edge $-1 $678 8.5523801493968001 $525 25.232993346426063 $524 $756 forward 7 unknown #
vertex $-1 $677 $757 #
straight-curve $-1 -25.445066897308234 -7.9154476783066201 76.279263900069722 0 -0.60181501223851219 0.79863551827123203 I I #
point $-1 -25.445066897308234 35.436457993358971 18.749340335426858 #
point $-1 -42.125680094337497 38.87171206031914 14.190604085303576 #
straight-curve $-1 0 38.87171206031914 18.749340335426862 -1 0 0 I I #
vertex $-1 $531 $758 #
point $-1 -36.359790609472 34.047651947514638 14.129107048622146 #
vertex $-1 $535 $759 #
point $-1 -29.210956382173745 34.047651947514638 14.129107048622146 #
coedge $-1 $550 $549 $542 $688 forward $539 $-1 #
edge $-1 $689 54.612825196276418 $692 59.171561446399707 $687 $760 forward 7 unknown #
vertex $-1 $554 $761 #
straight-curve $-1 1.6486235096041888 42.78415828370926 18.749340335426865 0 1 0 I I #
edge $-1 $692 -4.9944650540594111 $551 11.686148142969856 $550 $762 forward 7 unknown #
vertex $-1 $691 $763 #
straight-curve $-1 1.6486235096041888 -7.9154476783066201 76.279263900069722 0 -0.60181501223851219 0.79863551827123203 I I #
point $-1 1.6486235096041888 35.436457993358971 18.749340335426858 #
point $-1 -15.031989687425078 38.87171206031914 14.190604085303576 #
straight-curve $-1 0 38.87171206031914 18.749340335426862 -1 0 0 I I #
vertex $-1 $557 $764 #
point $-1 -9.2661002025595707 34.047651947514638 14.129107048622146 #
vertex $-1 $561 $765 #
point $-1 -2.1172659752613185 34.047651947514638 14.129107048622146 #
coedge $-1 $576 $575 $568 $702 forward $565 $-1 #
edge $-1 $703 54.612825196276418 $706 59.171561446399707 $701 $766 forward 7 unknown #
vertex $-1 $580 $767 #
straight-curve $-1 28.742313916516611 42.78415828370926 18.749340335426865 0 1 0 I I #
edge $-1 $706 -18.541310257515622 $577 -1.8606970604863555 $576 $768 forward 7 unknown #
vertex $-1 $705 $769 #
straight-curve $-1 28.742313916516611 -7.9154476783066201 76.279263900069722 0 -0.60181501223851219 0.79863551827123203 I I #
point $-1 28.742313916516611 35.436457993358971 18.749340335426858 #
point $-1 12.061700719487344 38.87171206031914 14.190604085303576 #
straight-curve $-1 0 38.87171206031914 18.749340335426862 -1 0 0 I I #
vertex $-1 $583 $770 #
point $-1 17.827590204352859 34.047651947514638 14.129107048622146 #
vertex $-1 $587 $771 #
point $-1 24.976424431651111 34.047651947514638 14.129107048622146 #
coedge $-1 $602 $601 $594 $716 forward $591 $-1 #
edge $-1 $717 54.612825196276418 $720 59.171561446399707 $715 $772 forward 7 unknown #
vertex $-1 $606 $773 #
straight-curve $-1 55.836004323429037 42.78415828370926 18.749340335426865 0 1 0 I I #
edge $-1 $720 -32.088155460971834 $603 -15.407542263942574 $602 $774 forward 7 unknown #
vertex $-1 $719 $775 #
straight-curve $-1 55.836004323429037 -7.9154476783066201 76.279263900069722 0 -0.60181501223851219 0.79863551827123203 I I #
point $-1 55.836004323429037 35.436457993358971 18.749340335426858 #
point $-1 39.155391126399778 38.87171206031914 14.190604085303576 #
straight-curve $-1 0 38.87171206031914 18.749340335426862 -1 0 0 I I #
vertex $-1 $609 $776 #
point $-1 44.921280611265288 34.047651947514638 14.129107048622146 #
vertex $-1 $613 $777 #
point $-1 52.070114838563541 34.047651947514638 14.129107048622146 #
edge $-1 $730 34.928678954785411 $733 45.58970180113598 $618 $778 forward 7 unknown #
vertex $-1 $632 $779 #
straight-curve $-1 -31.393045773729128 -50.450534871506811 18.749340335426858 0 -1 0 I I #
edge $-1 $733 -22.961938986887073 $629 6.0997254132029628 $628 $780 forward 7 unknown #
vertex $-1 $732 $781 #
straight-curve $-1 -31.393045773729128 -38.87171206031914 8.0883174890762888 0 0.84804809178421925 0.52991927123019833 I I #
point $-1 -31.393045773729128 -21.810509397643926 18.749340335426862 #
point $-1 -2.3313813736390916 -38.87171206031914 8.0883174890762888 #
straight-curve $-1 0 -38.87171206031914 18.749340335426862 1 0 0 I I #
vertex $-1 $635 $782 #
point $-1 -12.862213573684109 -23.923406201840763 3.1483549488458591 #
straight-curve $-1 -58.527176732688375 38.87171206031914 0 0 0 -1 I I #
point $-1 -58.527176732688375 -38.87171206031914 -18.749340335426862 #
straight-curve $-1 -58.527176732688375 0 -18.749340335426862 0 1 0 I I #
point $-1 -58.527176732688375 38.87171206031914 -18.749340335426862 #
coedge $-1 $657 $656 $667 $749 reversed $340 $-1 #
edge $-1 $750 -38.87171206031914 $660 38.87171206031914 $656 $783 forward 7 unknown #
straight-curve $-1 -72.237500961779901 38.87171206031914 -14.050246502099856 0 0 -1 I I #
point $-1 -72.237500961779901 38.87171206031914 -18.749340335426862 #
point $-1 -72.237500961779901 38.87171206031914 -9.3511526687728512 #
edge $-1 $671 -4.6990938333270051 $750 4.6990938333270051 $744 $784 forward 7 unknown #
vertex $-1 $745 $785 #
straight-curve $-1 -65.382338847234138 -38.87171206031914 -18.749340335426862 -1 0 0 I I #
straight-curve $-1 -72.237500961779901 0 -9.3511526687728512 0 -1 0 I I #
point $-1 -72.237500961779901 -38.87171206031914 -9.3511526687728512 #
straight-curve $-1 -25.445066897308234 38.87171206031914 73.362165531703283 0 0 -1 I I #
point $-1 -25.445066897308234 38.87171206031914 18.749340335426862 #
straight-curve $-1 -16.892686747911434 38.87171206031914 14.19060408530358 -1 0 0 I I #
point $-1 -25.445066897308234 38.87171206031914 14.190604085303576 #
point $-1 -37.359790609472 33.249016429243412 13.527292036383635 #
point $-1 -30.210956382173745 33.249016429243412 13.527292036383635 #
straight-curve $-1 1.6486235096041888 38.87171206031914 73.362165531703283 0 0 -1 I I #
point $-1 1.6486235096041888 38.87171206031914 18.749340335426862 #
straight-curve $-1 -3.3458415444552223 38.87171206031914 14.19060408530358 -1 0 0 I I #
point $-1 1.6486235096041888 38.87171206031914 14.190604085303576 #
point $-1 -10.266100202559571 33.249016429243412 13.527292036383635 #
point $-1 -3.1172659752613185 33.249016429243412 13.527292036383635 #
straight-curve $-1 28.742313916516611 38.87171206031914 73.362165531703283 0 0 -1 I I #
point $-1 28.742313916516611 38.87171206031914 18.749340335426862 #
straight-curve $-1 10.201003659000989 38.87171206031914 14.19060408530358 -1 0 0 I I #
point $-1 28.742313916516611 38.87171206031914 14.190604085303576 #
point $-1 16.827590204352859 33.249016429243412 13.527292036383635 #
point $-1 23.976424431651111 33.249016429243412 13.527292036383635 #
straight-curve $-1 55.836004323429037 38.87171206031914 73.362165531703283 0 0 -1 I I #
point $-1 55.836004323429037 38.87171206031914 18.749340335426862 #
straight-curve $-1 23.747848862457204 38.87171206031914 14.19060408530358 -1 0 0 I I #
point $-1 55.836004323429037 38.87171206031914 14.190604085303576 #
point $-1 43.921280611265288 33.249016429243412 13.527292036383635 #
point $-1 51.070114838563541 33.249016429243412 13.527292036383635 #
straight-curve $-1 -31.393045773729128 -38.87171206031914 53.678019290212269 0 0 -1 I I #
point $-1 -31.393045773729128 -38.87171206031914 18.749340335426862 #
straight-curve $-1 -8.4311067868420544 -38.87171206031914 8.0883174890762888 1 0 0 I I #
point $-1 -31.393045773729128 -38.87171206031914 8.0883174890762888 #
point $-1 -16.862213573684109 -21.803729116919968 -0.2438374182910179 #
straight-curve $-1 -72.237500961779901 0 -18.749340335426862 0 1 0 I I #
straight-curve $-1 -72.237500961779901 -38.87171206031914 -14.050246502099856 0 0 -1 I I #
point $-1 -72.237500961779901 -38.87171206031914 -18.749340335426862 #
End-of-ACIS-data 