500 0 14 0           
7 Unknown 11 ACIS 5.0 NT 24 Thu Mar 25 20:07:21 1999 
-1 9.9999999999999995e-007 1e-010 
body $-1 $14 $-1 $15 #
body $-1 $16 $-1 $17 #
body $-1 $18 $-1 $19 #
body $-1 $20 $-1 $21 #
body $-1 $22 $-1 $23 #
body $-1 $24 $-1 $25 #
body $-1 $26 $-1 $27 #
body $-1 $28 $-1 $29 #
body $-1 $30 $-1 $31 #
body $-1 $32 $-1 $33 #
body $-1 $34 $-1 $35 #
body $-1 $36 $-1 $37 #
body $-1 $38 $-1 $39 #
body $-1 $40 $-1 $41 #
lump $-1 $-1 $42 $0 #
transform $-1 1 0 0 0 1 0 0 0 1 46.974089785454879 27.951497250583319 11.582209206504107 1 rotate no_reflect no_shear #
lump $-1 $-1 $43 $1 #
transform $-1 1 0 0 0 1 0 0 0 1 46.974089785454879 27.951497250583319 11.582209206504107 1 rotate no_reflect no_shear #
lump $-1 $-1 $44 $2 #
transform $-1 1 0 0 0 1 0 0 0 1 46.974089785454879 27.951497250583319 11.582209206504107 1 rotate no_reflect no_shear #
lump $-1 $-1 $45 $3 #
transform $-1 1 0 0 0 1 0 0 0 1 46.974089785454879 27.951497250583319 11.582209206504107 1 rotate no_reflect no_shear #
lump $-1 $-1 $46 $4 #
transform $-1 1 0 0 0 1 0 0 0 1 46.974089785454879 27.951497250583319 11.582209206504107 1 rotate no_reflect no_shear #
lump $-1 $-1 $47 $5 #
transform $-1 1 0 0 0 1 0 0 0 1 46.974089785454879 27.951497250583319 11.582209206504107 1 rotate no_reflect no_shear #
lump $-1 $-1 $48 $6 #
transform $-1 1 0 0 0 1 0 0 0 1 46.974089785454879 27.951497250583319 11.582209206504107 1 rotate no_reflect no_shear #
lump $-1 $-1 $49 $7 #
transform $-1 1 0 0 0 1 0 0 0 1 46.974089785454879 27.951497250583319 11.582209206504107 1 rotate no_reflect no_shear #
lump $-1 $-1 $50 $8 #
transform $-1 1 0 0 0 1 0 0 0 1 46.974089785454879 27.951497250583319 11.582209206504107 1 rotate no_reflect no_shear #
lump $-1 $-1 $51 $9 #
transform $-1 1 0 0 0 1 0 0 0 1 46.974089785454879 27.951497250583319 11.582209206504107 1 rotate no_reflect no_shear #
lump $-1 $-1 $52 $10 #
transform $-1 1 0 0 0 1 0 0 0 1 46.974089785454879 27.951497250583319 11.582209206504107 1 rotate no_reflect no_shear #
lump $-1 $-1 $53 $11 #
transform $-1 1 0 0 0 1 0 0 0 1 46.974089785454879 27.951497250583319 11.582209206504107 1 rotate no_reflect no_shear #
lump $-1 $-1 $54 $12 #
transform $-1 1 0 0 0 1 0 0 0 1 46.974089785454879 27.951497250583319 11.582209206504107 1 rotate no_reflect no_shear #
lump $-1 $-1 $55 $13 #
transform $-1 1 0 0 0 1 0 0 0 1 46.974089785454879 27.951497250583319 11.582209206504107 1 rotate no_reflect no_shear #
shell $-1 $-1 $-1 $56 $-1 $14 #
shell $-1 $-1 $-1 $57 $-1 $16 #
shell $-1 $-1 $-1 $58 $-1 $18 #
shell $-1 $-1 $-1 $59 $-1 $20 #
shell $-1 $-1 $-1 $60 $-1 $22 #
shell $-1 $-1 $-1 $61 $-1 $24 #
shell $-1 $-1 $-1 $62 $-1 $26 #
shell $-1 $-1 $-1 $63 $-1 $28 #
shell $-1 $-1 $-1 $64 $-1 $30 #
shell $-1 $-1 $-1 $65 $-1 $32 #
shell $-1 $-1 $-1 $66 $-1 $34 #
shell $-1 $-1 $-1 $67 $-1 $36 #
shell $-1 $-1 $-1 $68 $-1 $38 #
shell $-1 $-1 $-1 $69 $-1 $40 #
face $-1 $70 $71 $42 $-1 $72 forward single #
face $-1 $73 $74 $43 $-1 $75 forward single #
face $-1 $76 $77 $44 $-1 $78 reversed single #
face $-1 $79 $80 $45 $-1 $81 forward single #
face $-1 $82 $83 $46 $-1 $84 reversed single #
face $-1 $85 $86 $47 $-1 $87 forward single #
face $-1 $88 $89 $48 $-1 $90 reversed single #
face $-1 $91 $92 $49 $-1 $93 forward single #
face $-1 $94 $95 $50 $-1 $96 reversed single #
face $-1 $97 $98 $51 $-1 $99 forward single #
face $-1 $100 $101 $52 $-1 $102 reversed single #
face $-1 $103 $104 $53 $-1 $105 forward single #
face $-1 $106 $107 $54 $-1 $108 forward single #
face $-1 $109 $110 $55 $-1 $111 forward single #
face $-1 $112 $113 $42 $-1 $114 reversed single #
loop $-1 $-1 $115 $56 #
plane-surface $-1 0 0 11.582209206504107 0 0 1 1 0 0 forward_v I I I I #
face $-1 $116 $117 $43 $-1 $118 reversed single #
loop $-1 $-1 $119 $57 #
plane-surface $-1 0 -27.951497250583319 0 0 1 0 0 0 1 forward_v I I I I #
face $-1 $120 $121 $44 $-1 $122 reversed single #
loop $-1 $-1 $123 $58 #
plane-surface $-1 -115.683439451467 -14.278523783575677 67.680661591303547 0 1 0 -0.73135370988377701 0 0.68199835119979291 forward_v I I I I #
face $-1 $124 $125 $45 $-1 $126 forward single #
loop $-1 $127 $128 $59 #
cone-surface $-1 -42.769455736981392 -11.243168214642125 7.1413540605006398 0.73135370988377701 0 -0.68199835119979291 0.68199835119979291 0 0.73135370988377701 1 I I 0 1 1 forward I I I I #
face $-1 $129 $130 $46 $-1 $131 reversed single #
loop $-1 $-1 $132 $60 #
plane-surface $-1 -115.683439451467 -2.2254204848117123 67.680661591303547 0 1 0 -0.73135370988377701 0 0.68199835119979291 forward_v I I I I #
face $-1 $133 $134 $47 $-1 $135 forward single #
loop $-1 $136 $137 $61 #
cone-surface $-1 -42.769455736981392 0.80993508412183957 7.1413540605006398 0.73135370988377701 0 -0.68199835119979291 0.68199835119979291 0 0.73135370988377701 1 I I 0 1 1 forward I I I I #
face $-1 $138 $139 $48 $-1 $140 reversed single #
loop $-1 $-1 $141 $62 #
plane-surface $-1 -115.683439451467 9.8276828139522525 67.680661591303547 0 1 0 -0.73135370988377701 0 0.68199835119979291 forward_v I I I I #
face $-1 $142 $143 $49 $-1 $144 forward single #
loop $-1 $145 $146 $63 #
cone-surface $-1 -42.769455736981392 12.863038382885801 7.1413540605006398 0.73135370988377701 0 -0.68199835119979291 0.68199835119979291 0 0.73135370988377701 1 I I 0 1 1 forward I I I I #
face $-1 $147 $148 $50 $-1 $149 reversed single #
loop $-1 $-1 $150 $64 #
plane-surface $-1 -115.683439451467 21.880786112716216 67.680661591303547 0 1 0 -0.73135370988377701 0 0.68199835119979291 forward_v I I I I #
face $-1 $151 $152 $51 $-1 $153 forward single #
loop $-1 $154 $155 $65 #
cone-surface $-1 -42.769455736981392 24.916141681649766 7.1413540605006398 0.73135370988377701 0 -0.68199835119979291 0.68199835119979291 0 0.73135370988377701 1 I I 0 1 1 forward I I I I #
face $-1 $156 $157 $52 $-1 $158 reversed single #
loop $-1 $-1 $159 $66 #
plane-surface $-1 23.902709653431501 19.427740018238577 136.99697983014619 0 -1 0 -0.57357644374324357 0 -0.81915203911291934 forward_v I I I I #
face $-1 $160 $161 $53 $-1 $162 forward single #
loop $-1 $163 $164 $67 #
cone-surface $-1 42.514426223689469 10.145562078030476 8.0354400389427436 -0.57357644374324357 0 -0.81915203911291934 0.81915203911291934 0 -0.57357644374324357 1 I I 0 1 1 forward I I I I #
face $-1 $165 $166 $54 $-1 $167 forward single #
loop $-1 $168 $169 $68 #
cone-surface $-1 42.514426223689469 13.626378805608514 8.0354400389427436 -0.57357644374324357 0 -0.81915203911291934 0.81915203911291934 0 -0.57357644374324357 1 I I 0 1 1 forward I I I I #
face $-1 $170 $171 $55 $-1 $172 forward single #
loop $-1 $173 $174 $69 #
cone-surface $-1 42.514426223689469 17.107195533186552 8.0354400389427436 -0.57357644374324357 0 -0.81915203911291934 0.81915203911291934 0 -0.57357644374324357 1 I I 0 1 1 forward I I I I #
face $-1 $175 $176 $42 $-1 $177 reversed single #
loop $-1 $-1 $178 $70 #
plane-surface $-1 0 0 -11.582209206504107 0 0 1 1 0 0 forward_v I I I I #
coedge $-1 $179 $180 $181 $182 forward $71 $-1 #
face $-1 $183 $184 $43 $-1 $185 reversed single #
loop $-1 $-1 $186 $73 #
plane-surface $-1 0 0 -11.582209206504107 0 0 1 1 0 0 forward_v I I I I #
coedge $-1 $187 $188 $189 $190 forward $74 $-1 #
face $-1 $191 $192 $44 $-1 $193 reversed single #
loop $-1 $-1 $194 $76 #
plane-surface $-1 -46.974089785454879 -11.243168214642129 3.6081580257210248 -0.73135370988377701 0 0.68199835119979291 0.68199835119979291 0 0.73135370988377701 forward_v I I I I #
coedge $-1 $195 $196 $197 $198 reversed $77 $-1 #
face $-1 $-1 $199 $45 $-1 $200 forward single #
loop $-1 $201 $202 $79 #
cone-surface $-1 -41.917106255092854 -11.243168214642125 6.34652532928882 0.73135370988377701 0 -0.68199835119979291 0.34099917559989645 0 0.36567685494188851 1 I I -0.70710678118654746 0.70710678118654746 0.5 forward I I I I #
loop $-1 $-1 $203 $59 #
coedge $-1 $128 $128 $204 $205 reversed $80 $-1 #
face $-1 $206 $207 $46 $-1 $208 reversed single #
loop $-1 $-1 $209 $82 #
plane-surface $-1 -46.974089785454879 0.80993508412183601 3.6081580257210248 -0.73135370988377701 0 0.68199835119979291 0.68199835119979291 0 0.73135370988377701 forward_v I I I I #
coedge $-1 $210 $211 $212 $213 reversed $83 $-1 #
face $-1 $-1 $214 $47 $-1 $215 forward single #
loop $-1 $216 $217 $85 #
cone-surface $-1 -41.917106255092854 0.80993508412183957 6.34652532928882 0.73135370988377701 0 -0.68199835119979291 0.34099917559989645 0 0.36567685494188851 1 I I -0.70710678118654746 0.70710678118654746 0.5 forward I I I I #
loop $-1 $-1 $218 $61 #
coedge $-1 $137 $137 $219 $220 reversed $86 $-1 #
face $-1 $221 $222 $48 $-1 $223 reversed single #
loop $-1 $-1 $224 $88 #
plane-surface $-1 -46.974089785454879 12.863038382885801 3.6081580257210248 -0.73135370988377701 0 0.68199835119979291 0.68199835119979291 0 0.73135370988377701 forward_v I I I I #
coedge $-1 $225 $226 $227 $228 reversed $89 $-1 #
face $-1 $-1 $229 $49 $-1 $230 forward single #
loop $-1 $231 $232 $91 #
cone-surface $-1 -41.917106255092854 12.863038382885801 6.34652532928882 0.73135370988377701 0 -0.68199835119979291 0.34099917559989645 0 0.36567685494188851 1 I I -0.70710678118654746 0.70710678118654746 0.5 forward I I I I #
loop $-1 $-1 $233 $63 #
coedge $-1 $146 $146 $234 $235 reversed $92 $-1 #
face $-1 $236 $237 $50 $-1 $238 forward single #
loop $-1 $-1 $239 $94 #
plane-surface $-1 -46.974089785454879 24.916141681649766 3.6081580257210248 -0.73135370988377701 0 0.68199835119979291 0.68199835119979291 0 0.73135370988377701 forward_v I I I I #
coedge $-1 $240 $241 $242 $243 reversed $95 $-1 #
face $-1 $-1 $244 $51 $-1 $245 forward single #
loop $-1 $246 $247 $97 #
cone-surface $-1 -41.917106255092854 24.916141681649766 6.34652532928882 0.73135370988377701 0 -0.68199835119979291 0.34099917559989645 0 0.36567685494188851 1 I I -0.70710678118654746 0.70710678118654746 0.5 forward I I I I #
loop $-1 $-1 $248 $65 #
coedge $-1 $155 $155 $249 $250 reversed $98 $-1 #
face $-1 $251 $252 $52 $-1 $253 reversed single #
loop $-1 $-1 $254 $100 #
plane-surface $-1 -29.983753081002568 13.626378805608514 60.039136963688748 0.57357644374324357 0 0.81915203911291934 0.81915203911291934 0 -0.57357644374324357 forward_v I I I I #
coedge $-1 $255 $256 $257 $258 reversed $101 $-1 #
face $-1 $-1 $259 $53 $-1 $260 forward single #
loop $-1 $261 $262 $103 #
cone-surface $-1 41.645064143233938 10.145562078030476 6.793862340449639 -0.57357644374324357 0 -0.81915203911291934 0.40957601955645967 0 -0.28678822187162178 1 I I -0.70710678118654746 0.70710678118654746 0.5 forward I I I I #
loop $-1 $-1 $263 $67 #
coedge $-1 $164 $164 $264 $265 reversed $104 $-1 #
face $-1 $-1 $266 $54 $-1 $267 forward single #
loop $-1 $268 $269 $106 #
cone-surface $-1 41.645064143233938 13.626378805608514 6.793862340449639 -0.57357644374324357 0 -0.81915203911291934 0.40957601955645967 0 -0.28678822187162178 1 I I -0.70710678118654746 0.70710678118654746 0.5 forward I I I I #
loop $-1 $-1 $270 $68 #
coedge $-1 $169 $169 $271 $272 reversed $107 $-1 #
face $-1 $-1 $273 $55 $-1 $274 forward single #
loop $-1 $275 $276 $109 #
cone-surface $-1 41.645064143233938 17.107195533186552 6.793862340449639 -0.57357644374324357 0 -0.81915203911291934 0.40957601955645967 0 -0.28678822187162178 1 I I -0.70710678118654746 0.70710678118654746 0.5 forward I I I I #
loop $-1 $-1 $277 $69 #
coedge $-1 $174 $174 $278 $279 reversed $110 $-1 #
face $-1 $280 $281 $42 $-1 $282 reversed single #
loop $-1 $-1 $283 $112 #
plane-surface $-1 0 -27.951497250583319 0 0 1 0 0 0 1 forward_v I I I I #
coedge $-1 $284 $285 $286 $287 forward $113 $-1 #
coedge $-1 $288 $115 $289 $290 forward $71 $-1 #
coedge $-1 $115 $288 $291 $292 forward $71 $-1 #
coedge $-1 $293 $294 $115 $182 reversed $295 $-1 #
edge $-1 $296 -27.951497250583319 $297 27.951497250583319 $181 $298 forward 7 unknown #
face $-1 $299 $300 $43 $-1 $301 forward single #
loop $-1 $-1 $302 $116 #
plane-surface $-1 46.974089785454879 0 0 -1 0 0 0 0 1 forward_v I I I I #
coedge $-1 $303 $304 $305 $306 forward $117 $-1 #
coedge $-1 $305 $119 $302 $307 reversed $74 $-1 #
coedge $-1 $119 $305 $308 $309 reversed $74 $-1 #
coedge $-1 $310 $311 $119 $190 reversed $300 $-1 #
edge $-1 $312 -46.974089785454879 $313 46.974089785454879 $189 $314 forward 7 unknown #
face $-1 $315 $316 $44 $-1 $317 forward single #
loop $-1 $-1 $318 $120 #
plane-surface $-1 -115.683439451467 -8.2078126457085805 67.680661591303547 0 -1 0 0.73135370988377701 0 -0.68199835119979291 forward_v I I I I #
coedge $-1 $319 $320 $321 $322 reversed $121 $-1 #
coedge $-1 $196 $123 $323 $324 reversed $77 $-1 #
coedge $-1 $123 $195 $319 $325 reversed $77 $-1 #
coedge $-1 $321 $326 $123 $198 forward $316 $-1 #
edge $-1 $327 10.867629940278619 $328 18.303552783332286 $197 $329 forward 7 unknown #
loop $-1 $-1 $204 $124 #
plane-surface $-1 -46.974089785454879 -11.243168214642129 3.6081580257210248 -0.73135370988377701 0 0.68199835119979291 0.68199835119979291 0 0.73135370988377701 forward_v I I I I #
loop $-1 $-1 $330 $79 #
coedge $-1 $202 $202 $203 $331 reversed $125 $-1 #
coedge $-1 $203 $203 $202 $331 forward $127 $-1 #
coedge $-1 $204 $204 $128 $205 forward $199 $-1 #
edge $-1 $332 0 $332 6.2831853071796004 $204 $333 forward 7 unknown #
face $-1 $334 $335 $46 $-1 $336 forward single #
loop $-1 $-1 $337 $129 #
plane-surface $-1 -115.683439451467 3.8452906530553843 67.680661591303547 0 -1 0 0.73135370988377701 0 -0.68199835119979291 forward_v I I I I #
coedge $-1 $338 $339 $340 $341 reversed $130 $-1 #
coedge $-1 $211 $132 $342 $343 reversed $83 $-1 #
coedge $-1 $132 $210 $338 $344 reversed $83 $-1 #
coedge $-1 $340 $345 $132 $213 forward $335 $-1 #
edge $-1 $346 10.867629940278619 $347 18.303552783332286 $212 $348 forward 7 unknown #
loop $-1 $-1 $219 $133 #
plane-surface $-1 -46.974089785454879 0.80993508412183601 3.6081580257210248 -0.73135370988377701 0 0.68199835119979291 0.68199835119979291 0 0.73135370988377701 forward_v I I I I #
loop $-1 $-1 $349 $85 #
coedge $-1 $217 $217 $218 $350 reversed $134 $-1 #
coedge $-1 $218 $218 $217 $350 forward $136 $-1 #
coedge $-1 $219 $219 $137 $220 forward $214 $-1 #
edge $-1 $351 0 $351 6.2831853071796004 $219 $352 forward 7 unknown #
face $-1 $353 $354 $48 $-1 $355 forward single #
loop $-1 $-1 $356 $138 #
plane-surface $-1 -115.683439451467 15.898393951819349 67.680661591303547 0 -1 0 0.73135370988377701 0 -0.68199835119979291 forward_v I I I I #
coedge $-1 $357 $358 $359 $360 reversed $139 $-1 #
coedge $-1 $226 $141 $361 $362 reversed $89 $-1 #
coedge $-1 $141 $225 $357 $363 reversed $89 $-1 #
coedge $-1 $359 $364 $141 $228 forward $354 $-1 #
edge $-1 $365 10.867629940278619 $366 18.303552783332286 $227 $367 forward 7 unknown #
loop $-1 $-1 $234 $142 #
plane-surface $-1 -46.974089785454879 12.863038382885801 3.6081580257210248 -0.73135370988377701 0 0.68199835119979291 0.68199835119979291 0 0.73135370988377701 forward_v I I I I #
loop $-1 $-1 $368 $91 #
coedge $-1 $232 $232 $233 $369 reversed $143 $-1 #
coedge $-1 $233 $233 $232 $369 forward $145 $-1 #
coedge $-1 $234 $234 $146 $235 forward $229 $-1 #
edge $-1 $370 0 $370 6.2831853071796004 $234 $371 forward 7 unknown #
face $-1 $372 $373 $50 $-1 $374 reversed single #
loop $-1 $-1 $242 $147 #
plane-surface $-1 0 0 11.582209206504107 0 0 1 1 0 0 forward_v I I I I #
coedge $-1 $375 $376 $377 $378 reversed $148 $-1 #
coedge $-1 $241 $150 $379 $380 reversed $95 $-1 #
coedge $-1 $150 $240 $375 $381 reversed $95 $-1 #
coedge $-1 $377 $382 $150 $243 forward $237 $-1 #
edge $-1 $383 10.867629940278619 $384 18.303552783332286 $242 $385 forward 7 unknown #
loop $-1 $-1 $249 $151 #
plane-surface $-1 -46.974089785454879 24.916141681649766 3.6081580257210248 -0.73135370988377701 0 0.68199835119979291 0.68199835119979291 0 0.73135370988377701 forward_v I I I I #
loop $-1 $-1 $386 $97 #
coedge $-1 $247 $247 $248 $387 reversed $152 $-1 #
coedge $-1 $248 $248 $247 $387 forward $154 $-1 #
coedge $-1 $249 $249 $155 $250 forward $244 $-1 #
edge $-1 $388 0 $388 6.2831853071796004 $249 $389 forward 7 unknown #
face $-1 $390 $391 $52 $-1 $392 forward single #
loop $-1 $-1 $393 $156 #
plane-surface $-1 23.902709653431501 7.8250175929784511 136.99697983014619 0 1 0 0.57357644374324357 0 0.81915203911291934 forward_v I I I I #
coedge $-1 $394 $395 $396 $397 reversed $157 $-1 #
coedge $-1 $256 $159 $398 $399 reversed $101 $-1 #
coedge $-1 $159 $255 $394 $400 reversed $101 $-1 #
coedge $-1 $396 $401 $159 $258 forward $391 $-1 #
edge $-1 $402 -35.022734958739129 $403 -27.268555552376128 $257 $404 forward 7 unknown #
loop $-1 $-1 $264 $160 #
plane-surface $-1 -29.983753081002568 13.626378805608514 60.039136963688748 0.57357644374324357 0 0.81915203911291934 0.81915203911291934 0 -0.57357644374324357 forward_v I I I I #
loop $-1 $-1 $405 $103 #
coedge $-1 $262 $262 $263 $406 reversed $161 $-1 #
coedge $-1 $263 $263 $262 $406 forward $163 $-1 #
coedge $-1 $264 $264 $164 $265 forward $259 $-1 #
edge $-1 $407 0 $407 6.2831853071796004 $264 $408 forward 7 unknown #
loop $-1 $-1 $271 $165 #
plane-surface $-1 -29.983753081002568 13.626378805608514 60.039136963688748 0.57357644374324357 0 0.81915203911291934 0.81915203911291934 0 -0.57357644374324357 forward_v I I I I #
loop $-1 $-1 $409 $106 #
coedge $-1 $269 $269 $270 $410 reversed $166 $-1 #
coedge $-1 $270 $270 $269 $410 forward $168 $-1 #
coedge $-1 $271 $271 $169 $272 forward $266 $-1 #
edge $-1 $411 0 $411 6.2831853071796004 $271 $412 forward 7 unknown #
loop $-1 $-1 $278 $170 #
plane-surface $-1 -29.983753081002568 13.626378805608514 60.039136963688748 0.57357644374324357 0 0.81915203911291934 0.81915203911291934 0 -0.57357644374324357 forward_v I I I I #
loop $-1 $-1 $413 $109 #
coedge $-1 $276 $276 $277 $414 reversed $171 $-1 #
coedge $-1 $277 $277 $276 $414 forward $173 $-1 #
coedge $-1 $278 $278 $174 $279 forward $273 $-1 #
edge $-1 $415 0 $415 6.2831853071796004 $278 $416 forward 7 unknown #
face $-1 $417 $418 $42 $-1 $419 reversed single #
loop $-1 $-1 $420 $175 #
plane-surface $-1 -46.974089785454879 0 0 1 0 0 0 0 -1 forward_v I I I I #
coedge $-1 $291 $421 $293 $422 reversed $176 $-1 #
coedge $-1 $423 $178 $421 $424 forward $113 $-1 #
coedge $-1 $178 $423 $425 $426 forward $113 $-1 #
coedge $-1 $294 $293 $178 $287 reversed $295 $-1 #
edge $-1 $427 -27.951497250583319 $428 27.951497250583319 $286 $429 forward 7 unknown #
coedge $-1 $180 $179 $430 $431 forward $71 $-1 #
coedge $-1 $432 $433 $179 $290 reversed $418 $-1 #
edge $-1 $297 -46.974089785454879 $434 46.974089785454879 $289 $435 forward 7 unknown #
coedge $-1 $436 $283 $180 $292 reversed $176 $-1 #
edge $-1 $437 -46.974089785454879 $296 46.974089785454879 $291 $438 forward 7 unknown #
coedge $-1 $286 $181 $283 $422 forward $295 $-1 #
coedge $-1 $181 $286 $432 $439 reversed $295 $-1 #
loop $-1 $-1 $293 $417 #
vertex $-1 $182 $440 #
vertex $-1 $182 $441 #
straight-curve $-1 46.974089785454879 0 11.582209206504107 0 1 0 I I #
face $-1 $442 $443 $43 $-1 $444 reversed single #
loop $-1 $-1 $311 $183 #
plane-surface $-1 0 -34.787983984087141 -8.543271084857377 0 0 1 1 0 0 forward_v I I I I #
coedge $-1 $445 $446 $187 $307 forward $184 $-1 #
coedge $-1 $447 $186 $446 $448 forward $117 $-1 #
coedge $-1 $186 $447 $449 $450 forward $117 $-1 #
coedge $-1 $188 $187 $186 $306 reversed $74 $-1 #
edge $-1 $451 -46.974089785454879 $452 46.974089785454879 $186 $453 forward 7 unknown #
edge $-1 $452 -11.582209206504107 $313 -8.543271084857377 $302 $454 forward 7 unknown #
coedge $-1 $449 $455 $188 $309 forward $456 $-1 #
edge $-1 $312 8.543271084857377 $451 11.582209206504107 $308 $457 forward 7 unknown #
coedge $-1 $458 $189 $455 $459 forward $300 $-1 #
coedge $-1 $189 $458 $445 $460 forward $300 $-1 #
vertex $-1 $309 $461 #
vertex $-1 $460 $462 #
straight-curve $-1 0 -27.951497250583319 -8.543271084857377 1 0 0 I I #
face $-1 $-1 $463 $44 $-1 $464 reversed single #
loop $-1 $-1 $197 $191 #
plane-surface $-1 0 0 11.582209206504107 0 0 1 1 0 0 forward_v I I I I #
coedge $-1 $465 $466 $467 $468 reversed $192 $-1 #
coedge $-1 $469 $194 $196 $325 forward $121 $-1 #
coedge $-1 $194 $469 $465 $470 forward $121 $-1 #
coedge $-1 $467 $197 $194 $322 forward $316 $-1 #
edge $-1 $328 -8.6569396762546127 $471 -2.5862285383875161 $321 $472 forward 7 unknown #
coedge $-1 $473 $474 $195 $324 forward $463 $-1 #
edge $-1 $475 -30.232172769930749 $327 -22.258121589147667 $323 $476 forward 7 unknown #
edge $-1 $328 -10.903139032480297 $475 0 $196 $477 forward 7 unknown #
coedge $-1 $197 $467 $473 $478 forward $316 $-1 #
vertex $-1 $324 $479 #
vertex $-1 $198 $480 #
straight-curve $-1 -57.841719725733498 -14.278523783575677 11.582209206504107 1 0 0 I I #
coedge $-1 $330 $330 $-1 $481 reversed $201 $-1 #
edge $-1 $482 0 $482 6.2831853071796004 $202 $483 forward 7 unknown #
vertex $-1 $205 $484 #
ellipse-curve $-1 -43.256128363928042 -11.243168214642125 7.5951836161125668 -0.73135370988377701 0 0.68199835119979291 0.68199835119979291 0 0.73135370988377701 1 I I #
face $-1 $-1 $485 $46 $-1 $486 reversed single #
loop $-1 $-1 $212 $206 #
plane-surface $-1 0 0 11.582209206504107 0 0 1 1 0 0 forward_v I I I I #
coedge $-1 $487 $488 $489 $490 reversed $207 $-1 #
coedge $-1 $491 $209 $211 $344 forward $130 $-1 #
coedge $-1 $209 $491 $487 $492 forward $130 $-1 #
coedge $-1 $489 $212 $209 $341 forward $335 $-1 #
edge $-1 $347 -2.6303880268726303 $493 3.4403231109944663 $340 $494 forward 7 unknown #
coedge $-1 $495 $496 $210 $343 forward $485 $-1 #
edge $-1 $497 -30.232172769930749 $346 -22.258121589147667 $342 $498 forward 7 unknown #
edge $-1 $347 -10.903139032480297 $497 0 $211 $499 forward 7 unknown #
coedge $-1 $212 $489 $495 $500 forward $335 $-1 #
vertex $-1 $213 $501 #
vertex $-1 $213 $502 #
straight-curve $-1 -57.841719725733498 -2.2254204848117123 11.582209206504107 1 0 0 I I #
coedge $-1 $349 $349 $-1 $503 reversed $216 $-1 #
edge $-1 $504 0 $504 6.2831853071796004 $217 $505 forward 7 unknown #
vertex $-1 $220 $506 #
ellipse-curve $-1 -43.256128363928042 0.80993508412183957 7.5951836161125668 -0.73135370988377701 0 0.68199835119979291 0.68199835119979291 0 0.73135370988377701 1 I I #
face $-1 $-1 $507 $48 $-1 $508 reversed single #
loop $-1 $-1 $227 $221 #
plane-surface $-1 0 0 11.582209206504107 0 0 1 1 0 0 forward_v I I I I #
coedge $-1 $509 $510 $511 $512 reversed $222 $-1 #
coedge $-1 $513 $224 $226 $363 forward $139 $-1 #
coedge $-1 $224 $513 $509 $514 forward $139 $-1 #
coedge $-1 $511 $227 $224 $360 forward $354 $-1 #
edge $-1 $366 3.3961636225093521 $515 9.4668747603764487 $359 $516 forward 7 unknown #
coedge $-1 $517 $518 $225 $362 forward $507 $-1 #
edge $-1 $519 -30.232172769930749 $365 -22.258121589147667 $361 $520 forward 7 unknown #
edge $-1 $366 -10.903139032480297 $519 0 $226 $521 forward 7 unknown #
coedge $-1 $227 $511 $517 $522 forward $354 $-1 #
vertex $-1 $228 $523 #
vertex $-1 $228 $524 #
straight-curve $-1 -57.841719725733498 9.8276828139522525 11.582209206504107 1 0 0 I I #
coedge $-1 $368 $368 $-1 $525 reversed $231 $-1 #
edge $-1 $526 0 $526 6.2831853071796004 $232 $527 forward 7 unknown #
vertex $-1 $235 $528 #
ellipse-curve $-1 -43.256128363928042 12.863038382885801 7.5951836161125668 -0.73135370988377701 0 0.68199835119979291 0.68199835119979291 0 0.73135370988377701 1 I I #
face $-1 $-1 $529 $50 $-1 $530 reversed single #
loop $-1 $-1 $531 $236 #
plane-surface $-1 0 27.951497250583319 0 0 -1 0 0 0 -1 forward_v I I I I #
coedge $-1 $532 $239 $241 $381 forward $148 $-1 #
coedge $-1 $239 $532 $531 $533 reversed $148 $-1 #
coedge $-1 $534 $242 $239 $378 forward $237 $-1 #
edge $-1 $384 9.4227152718913327 $535 15.493426409758433 $377 $536 forward 7 unknown #
coedge $-1 $537 $538 $240 $380 forward $529 $-1 #
edge $-1 $539 -30.232172769930749 $383 -22.258121589147667 $379 $540 forward 7 unknown #
edge $-1 $384 -10.903139032480297 $539 0 $241 $541 forward 7 unknown #
coedge $-1 $242 $534 $537 $542 forward $237 $-1 #
vertex $-1 $380 $543 #
vertex $-1 $243 $544 #
straight-curve $-1 -57.841719725733498 21.880786112716216 11.582209206504107 1 0 0 I I #
coedge $-1 $386 $386 $-1 $545 reversed $246 $-1 #
edge $-1 $546 0 $546 6.2831853071796004 $247 $547 forward 7 unknown #
vertex $-1 $250 $548 #
ellipse-curve $-1 -43.256128363928042 24.916141681649766 7.5951836161125668 -0.73135370988377701 0 0.68199835119979291 0.68199835119979291 0 0.73135370988377701 1 I I #
face $-1 $-1 $549 $52 $-1 $550 reversed single #
loop $-1 $-1 $257 $251 #
plane-surface $-1 0 0 11.582209206504107 0 0 1 1 0 0 forward_v I I I I #
coedge $-1 $551 $552 $553 $554 reversed $252 $-1 #
coedge $-1 $555 $254 $256 $400 forward $157 $-1 #
coedge $-1 $254 $555 $551 $556 forward $157 $-1 #
coedge $-1 $553 $257 $254 $397 forward $391 $-1 #
edge $-1 $403 -12.61455061543432 $557 -1.0118281901741941 $396 $558 forward 7 unknown #
coedge $-1 $559 $560 $255 $399 forward $549 $-1 #
edge $-1 $561 -62.345815685818415 $402 -56.916280708568991 $398 $562 forward 7 unknown #
edge $-1 $403 84.482074335109829 $561 93.948179570909758 $256 $563 forward 7 unknown #
coedge $-1 $257 $553 $559 $564 forward $391 $-1 #
vertex $-1 $399 $565 #
vertex $-1 $258 $566 #
straight-curve $-1 11.95135482671575 19.427740018238577 11.582209206504103 -1 0 0 I I #
coedge $-1 $405 $405 $-1 $567 reversed $261 $-1 #
edge $-1 $568 0 $568 6.2831853071796004 $262 $569 forward 7 unknown #
vertex $-1 $265 $570 #
ellipse-curve $-1 43.097000082273382 10.145562078030476 8.8674417178793945 0.57357644374324357 0 0.81915203911291934 0.81915203911291934 0 -0.57357644374324357 1 I I #
coedge $-1 $409 $409 $-1 $571 reversed $268 $-1 #
edge $-1 $572 0 $572 6.2831853071796004 $269 $573 forward 7 unknown #
vertex $-1 $272 $574 #
ellipse-curve $-1 43.097000082273382 13.626378805608514 8.8674417178793945 0.57357644374324357 0 0.81915203911291934 0.81915203911291934 0 -0.57357644374324357 1 I I #
coedge $-1 $413 $413 $-1 $575 reversed $275 $-1 #
edge $-1 $576 0 $576 6.2831853071796004 $276 $577 forward 7 unknown #
vertex $-1 $279 $578 #
ellipse-curve $-1 43.097000082273382 17.107195533186552 8.8674417178793945 0.57357644374324357 0 0.81915203911291934 0.81915203911291934 0 -0.57357644374324357 1 I I #
face $-1 $-1 $295 $42 $-1 $579 reversed single #
loop $-1 $-1 $432 $280 #
plane-surface $-1 0 27.951497250583319 0 0 -1 0 0 0 -1 forward_v I I I I #
coedge $-1 $580 $430 $433 $581 forward $281 $-1 #
coedge $-1 $283 $436 $284 $424 reversed $176 $-1 #
edge $-1 $296 -11.582209206504107 $428 11.582209206504107 $293 $582 forward 7 unknown #
coedge $-1 $285 $284 $580 $583 forward $113 $-1 #
edge $-1 $428 -46.974089785454879 $584 46.974089785454879 $421 $585 forward 7 unknown #
coedge $-1 $433 $432 $285 $426 reversed $418 $-1 #
edge $-1 $586 -46.974089785454879 $427 46.974089785454879 $425 $587 forward 7 unknown #
vertex $-1 $287 $588 #
vertex $-1 $422 $589 #
straight-curve $-1 46.974089785454879 0 -11.582209206504107 0 -1 0 I I #
coedge $-1 $420 $590 $288 $431 reversed $281 $-1 #
edge $-1 $434 -27.951497250583319 $437 27.951497250583319 $430 $591 forward 7 unknown #
coedge $-1 $425 $289 $294 $439 forward $418 $-1 #
coedge $-1 $289 $425 $420 $581 reversed $418 $-1 #
vertex $-1 $290 $592 #
straight-curve $-1 0 27.951497250583319 11.582209206504107 -1 0 0 I I #
coedge $-1 $421 $291 $590 $593 forward $176 $-1 #
vertex $-1 $431 $594 #
straight-curve $-1 0 -27.951497250583319 11.582209206504107 1 0 0 I I #
edge $-1 $297 -11.582209206504107 $427 11.582209206504107 $294 $595 forward 7 unknown #
point $-1 46.974089785454879 -27.951497250583319 11.582209206504107 #
point $-1 46.974089785454879 27.951497250583319 11.582209206504107 #
face $-1 $-1 $456 $43 $-1 $596 reversed single #
loop $-1 $-1 $597 $299 #
plane-surface $-1 0 -41.624470717590967 -10.062740145680742 0 1 0 0 0 1 forward_v I I I I #
coedge $-1 $598 $302 $311 $460 reversed $184 $-1 #
coedge $-1 $302 $598 $303 $448 reversed $184 $-1 #
coedge $-1 $304 $303 $599 $600 forward $117 $-1 #
edge $-1 $452 27.951497250583319 $601 41.624470717590967 $446 $602 forward 7 unknown #
coedge $-1 $603 $308 $304 $450 reversed $456 $-1 #
edge $-1 $604 -41.624470717590967 $451 -27.951497250583319 $449 $605 forward 7 unknown #
vertex $-1 $309 $606 #
vertex $-1 $448 $607 #
straight-curve $-1 0 -27.951497250583319 -11.582209206504107 1 0 0 I I #
straight-curve $-1 46.974089785454879 -27.951497250583319 0 0 0 1 I I #
coedge $-1 $308 $603 $310 $459 reversed $456 $-1 #
loop $-1 $-1 $308 $442 #
straight-curve $-1 -46.974089785454879 -27.951497250583319 0 0 0 -1 I I #
coedge $-1 $311 $310 $608 $609 forward $300 $-1 #
edge $-1 $312 -6.836486733503822 $610 6.8364867335038255 $455 $611 forward 7 unknown #
edge $-1 $612 -6.8364867335038255 $313 6.836486733503822 $445 $613 forward 7 unknown #
point $-1 -46.974089785454879 -27.951497250583319 -8.543271084857377 #
point $-1 46.974089785454879 -27.951497250583319 -8.543271084857377 #
loop $-1 $-1 $323 $315 #
plane-surface $-1 -46.974089785454879 0 0 1 0 0 0 0 -1 forward_v I I I I #
coedge $-1 $466 $318 $320 $470 reversed $192 $-1 #
coedge $-1 $318 $465 $614 $615 reversed $192 $-1 #
coedge $-1 $326 $321 $318 $468 forward $316 $-1 #
edge $-1 $471 -18.303552783332286 $616 -10.867629940278619 $467 $617 forward 7 unknown #
coedge $-1 $320 $319 $474 $618 reversed $121 $-1 #
edge $-1 $619 0 $471 10.903139032480297 $465 $620 forward 7 unknown #
vertex $-1 $322 $621 #
straight-curve $-1 -39.538166942401212 -5.6215841073210644 11.582209206504107 0 1 0 I I #
coedge $-1 $614 $323 $326 $478 reversed $463 $-1 #
coedge $-1 $323 $614 $469 $618 forward $463 $-1 #
vertex $-1 $324 $622 #
straight-curve $-1 -46.974089785454879 -14.278523783575677 33.840330795651774 0 0 1 I I #
straight-curve $-1 -46.974089785454879 -14.278523783575677 3.6081580257210248 -0.68199835119979291 0 -0.73135370988377701 I I #
edge $-1 $616 8.2078126457085805 $327 14.278523783575677 $473 $623 forward 7 unknown #
point $-1 -46.974089785454879 -14.278523783575677 11.582209206504107 #
point $-1 -39.538166942401212 -14.278523783575677 11.582209206504107 #
edge $-1 $624 1 $624 0 $330 $-1 forward 7 unknown #
vertex $-1 $331 $625 #
ellipse-curve $-1 -42.282783110034742 -11.243168214642125 6.6875245048887164 -0.73135370988377701 0 0.68199835119979291 0.68199835119979291 0 0.73135370988377701 1 I I #
point $-1 -42.574130012728247 -11.243168214642125 8.3265373259963393 #
loop $-1 $-1 $342 $334 #
plane-surface $-1 -46.974089785454879 0 0 1 0 0 0 0 -1 forward_v I I I I #
coedge $-1 $488 $337 $339 $492 reversed $207 $-1 #
coedge $-1 $337 $487 $626 $627 reversed $207 $-1 #
coedge $-1 $345 $340 $337 $490 forward $335 $-1 #
edge $-1 $493 -18.303552783332286 $628 -10.867629940278619 $489 $629 forward 7 unknown #
coedge $-1 $339 $338 $496 $630 reversed $130 $-1 #
edge $-1 $631 0 $493 10.903139032480297 $487 $632 forward 7 unknown #
vertex $-1 $341 $633 #
straight-curve $-1 -39.538166942401212 0.40496754206091801 11.582209206504107 0 1 0 I I #
coedge $-1 $626 $342 $345 $500 reversed $485 $-1 #
coedge $-1 $342 $626 $491 $630 forward $485 $-1 #
vertex $-1 $343 $634 #
straight-curve $-1 -46.974089785454879 -2.2254204848117123 33.840330795651774 0 0 1 I I #
straight-curve $-1 -46.974089785454879 -2.2254204848117123 3.6081580257210248 -0.68199835119979291 0 -0.73135370988377701 I I #
edge $-1 $628 -3.8452906530553843 $346 2.2254204848117123 $495 $635 forward 7 unknown #
point $-1 -46.974089785454879 -2.2254204848117123 11.582209206504107 #
point $-1 -39.538166942401212 -2.2254204848117123 11.582209206504107 #
edge $-1 $636 1 $636 0 $349 $-1 forward 7 unknown #
vertex $-1 $350 $637 #
ellipse-curve $-1 -42.282783110034742 0.80993508412183957 6.6875245048887164 -0.73135370988377701 0 0.68199835119979291 0.68199835119979291 0 0.73135370988377701 1 I I #
point $-1 -42.574130012728247 0.80993508412183957 8.3265373259963393 #
loop $-1 $-1 $361 $353 #
plane-surface $-1 -46.974089785454879 0 0 1 0 0 0 0 -1 forward_v I I I I #
coedge $-1 $510 $356 $358 $514 reversed $222 $-1 #
coedge $-1 $356 $509 $638 $639 reversed $222 $-1 #
coedge $-1 $364 $359 $356 $512 forward $354 $-1 #
edge $-1 $515 -18.303552783332286 $640 -10.867629940278619 $511 $641 forward 7 unknown #
coedge $-1 $358 $357 $518 $642 reversed $139 $-1 #
edge $-1 $643 0 $515 10.903139032480297 $509 $644 forward 7 unknown #
vertex $-1 $360 $645 #
straight-curve $-1 -39.538166942401212 6.4315191914429004 11.582209206504107 0 1 0 I I #
coedge $-1 $638 $361 $364 $522 reversed $507 $-1 #
coedge $-1 $361 $638 $513 $642 forward $507 $-1 #
vertex $-1 $362 $646 #
straight-curve $-1 -46.974089785454879 9.8276828139522525 33.840330795651774 0 0 1 I I #
straight-curve $-1 -46.974089785454879 9.8276828139522525 3.6081580257210248 -0.68199835119979291 0 -0.73135370988377701 I I #
edge $-1 $640 -15.898393951819349 $365 -9.8276828139522525 $517 $647 forward 7 unknown #
point $-1 -46.974089785454879 9.8276828139522525 11.582209206504107 #
point $-1 -39.538166942401212 9.8276828139522525 11.582209206504107 #
edge $-1 $648 1 $648 0 $368 $-1 forward 7 unknown #
vertex $-1 $369 $649 #
ellipse-curve $-1 -42.282783110034742 12.863038382885801 6.6875245048887164 -0.73135370988377701 0 0.68199835119979291 0.68199835119979291 0 0.73135370988377701 1 I I #
point $-1 -42.574130012728247 12.863038382885801 8.3265373259963393 #
loop $-1 $-1 $379 $372 #
plane-surface $-1 -46.974089785454879 0 0 1 0 0 0 0 -1 forward_v I I I I #
coedge $-1 $650 $651 $376 $533 forward $373 $-1 #
coedge $-1 $376 $375 $538 $652 reversed $148 $-1 #
edge $-1 $535 3.7955669799363378 $653 14.698706012416636 $531 $654 forward 7 unknown #
coedge $-1 $382 $377 $651 $655 forward $237 $-1 #
vertex $-1 $655 $656 #
straight-curve $-1 -39.538166942401212 12.458070840824883 11.582209206504107 0 1 0 I I #
coedge $-1 $657 $379 $382 $542 reversed $529 $-1 #
coedge $-1 $379 $657 $532 $652 forward $529 $-1 #
vertex $-1 $380 $658 #
straight-curve $-1 -46.974089785454879 21.880786112716216 33.840330795651774 0 0 1 I I #
straight-curve $-1 -46.974089785454879 21.880786112716216 3.6081580257210248 -0.68199835119979291 0 -0.73135370988377701 I I #
edge $-1 $659 -27.951497250583319 $383 -21.880786112716216 $537 $660 forward 7 unknown #
point $-1 -46.974089785454879 21.880786112716216 11.582209206504107 #
point $-1 -39.538166942401212 21.880786112716216 11.582209206504107 #
edge $-1 $661 1 $661 0 $386 $-1 forward 7 unknown #
vertex $-1 $387 $662 #
ellipse-curve $-1 -42.282783110034742 24.916141681649766 6.6875245048887164 -0.73135370988377701 0 0.68199835119979291 0.68199835119979291 0 0.73135370988377701 1 I I #
point $-1 -42.574130012728247 24.916141681649766 8.3265373259963393 #
loop $-1 $-1 $398 $390 #
plane-surface $-1 46.974089785454879 0 0 -1 0 0 0 0 1 forward_v I I I I #
coedge $-1 $552 $393 $395 $556 reversed $252 $-1 #
coedge $-1 $393 $551 $663 $664 reversed $252 $-1 #
coedge $-1 $401 $396 $393 $554 forward $391 $-1 #
edge $-1 $557 27.268555552376128 $665 35.022734958739129 $553 $666 forward 7 unknown #
coedge $-1 $395 $394 $560 $667 reversed $157 $-1 #
edge $-1 $668 -93.948179570909758 $557 -84.482074335109829 $551 $669 forward 7 unknown #
vertex $-1 $397 $670 #
straight-curve $-1 39.219910379091871 6.813189402804257 11.58220920650411 0 -1 0 I I #
coedge $-1 $663 $398 $401 $564 reversed $549 $-1 #
coedge $-1 $398 $663 $555 $667 forward $549 $-1 #
vertex $-1 $399 $671 #
straight-curve $-1 46.974089785454879 19.427740018238577 68.498489915073094 0 0 1 I I #
straight-curve $-1 -29.983753081002568 19.427740018238577 60.039136963688748 0.81915203911291934 0 -0.57357644374324357 I I #
edge $-1 $665 7.8250175929784511 $402 19.427740018238577 $559 $672 forward 7 unknown #
point $-1 46.974089785454879 19.427740018238577 11.582209206504107 #
point $-1 39.219910379091878 19.427740018238577 11.582209206504103 #
edge $-1 $673 1 $673 0 $405 $-1 forward 7 unknown #
vertex $-1 $406 $674 #
ellipse-curve $-1 41.931852365105563 10.145562078030476 7.2034383600060989 0.57357644374324357 0 0.81915203911291934 0.81915203911291934 0 -0.57357644374324357 1 I I #
point $-1 43.91615212138629 10.145562078030476 8.2938652741361452 #
edge $-1 $675 1 $675 0 $409 $-1 forward 7 unknown #
vertex $-1 $410 $676 #
ellipse-curve $-1 41.931852365105563 13.626378805608514 7.2034383600060989 0.57357644374324357 0 0.81915203911291934 0.81915203911291934 0 -0.57357644374324357 1 I I #
point $-1 43.91615212138629 13.626378805608514 8.2938652741361452 #
edge $-1 $677 1 $677 0 $413 $-1 forward 7 unknown #
vertex $-1 $414 $678 #
ellipse-curve $-1 41.931852365105563 17.107195533186552 7.2034383600060989 0.57357644374324357 0 0.81915203911291934 0.81915203911291934 0 -0.57357644374324357 1 I I #
point $-1 43.91615212138629 17.107195533186552 8.2938652741361452 #
plane-surface $-1 46.974089785454879 0 0 -1 0 0 0 0 1 forward_v I I I I #
coedge $-1 $590 $420 $423 $583 reversed $281 $-1 #
edge $-1 $434 -11.582209206504107 $586 11.582209206504107 $433 $679 forward 7 unknown #
straight-curve $-1 46.974089785454879 -27.951497250583319 0 0 0 -1 I I #
edge $-1 $584 -27.951497250583319 $586 27.951497250583319 $580 $680 forward 7 unknown #
vertex $-1 $583 $681 #
straight-curve $-1 0 -27.951497250583319 -11.582209206504107 -1 0 0 I I #
vertex $-1 $426 $682 #
straight-curve $-1 0 27.951497250583319 -11.582209206504107 1 0 0 I I #
point $-1 46.974089785454879 27.951497250583319 -11.582209206504107 #
point $-1 46.974089785454879 -27.951497250583319 -11.582209206504107 #
coedge $-1 $430 $580 $436 $593 reversed $281 $-1 #
straight-curve $-1 -46.974089785454879 0 11.582209206504107 0 -1 0 I I #
point $-1 -46.974089785454879 27.951497250583319 11.582209206504107 #
edge $-1 $437 -11.582209206504107 $584 11.582209206504107 $590 $683 forward 7 unknown #
point $-1 -46.974089785454879 -27.951497250583319 11.582209206504107 #
straight-curve $-1 46.974089785454879 27.951497250583319 0 0 0 -1 I I #
plane-surface $-1 -46.974089785454879 0 0 1 0 0 0 0 -1 forward_v I I I I #
coedge $-1 $599 $608 $603 $684 forward $443 $-1 #
coedge $-1 $446 $445 $685 $686 forward $184 $-1 #
coedge $-1 $685 $597 $447 $600 reversed $443 $-1 #
edge $-1 $601 -46.974089785454879 $604 46.974089785454879 $599 $687 forward 7 unknown #
vertex $-1 $686 $688 #
straight-curve $-1 46.974089785454879 0 -11.582209206504107 0 -1 0 I I #
coedge $-1 $455 $449 $597 $684 reversed $456 $-1 #
vertex $-1 $450 $689 #
straight-curve $-1 -46.974089785454879 0 -11.582209206504107 0 1 0 I I #
point $-1 -46.974089785454879 -27.951497250583319 -11.582209206504107 #
point $-1 46.974089785454879 -27.951497250583319 -11.582209206504107 #
coedge $-1 $597 $685 $458 $609 reversed $443 $-1 #
edge $-1 $610 -46.974089785454879 $612 46.974089785454879 $608 $690 forward 7 unknown #
vertex $-1 $459 $691 #
straight-curve $-1 -46.974089785454879 -34.787983984087141 -8.543271084857377 0 -1 0 I I #
vertex $-1 $460 $692 #
straight-curve $-1 46.974089785454879 -34.787983984087141 -8.543271084857377 0 1 0 I I #
coedge $-1 $474 $473 $466 $615 forward $463 $-1 #
edge $-1 $616 22.258121589147667 $619 30.232172769930749 $614 $693 forward 7 unknown #
vertex $-1 $478 $694 #
straight-curve $-1 -57.841719725733498 -8.2078126457085805 11.582209206504107 -1 0 0 I I #
edge $-1 $619 2.5862285383875161 $475 8.6569396762546127 $474 $695 forward 7 unknown #
vertex $-1 $618 $696 #
straight-curve $-1 -46.974089785454879 -8.2078126457085805 3.6081580257210248 0.68199835119979291 0 0.73135370988377701 I I #
point $-1 -39.538166942401212 -8.2078126457085805 11.582209206504107 #
point $-1 -46.974089785454879 -14.278523783575677 3.6081580257210248 #
straight-curve $-1 -46.974089785454879 0 11.582209206504107 0 -1 0 I I #
vertex $-1 $481 $697 #
point $-1 -41.600784758834948 -11.243168214642125 7.4188782147724934 #
coedge $-1 $496 $495 $488 $627 forward $485 $-1 #
edge $-1 $628 22.258121589147667 $631 30.232172769930749 $626 $698 forward 7 unknown #
vertex $-1 $500 $699 #
straight-curve $-1 -57.841719725733498 3.8452906530553843 11.582209206504107 -1 0 0 I I #
edge $-1 $631 -3.4403231109944663 $497 2.6303880268726303 $496 $700 forward 7 unknown #
vertex $-1 $630 $701 #
straight-curve $-1 -46.974089785454879 3.8452906530553843 3.6081580257210248 0.68199835119979291 0 0.73135370988377701 I I #
point $-1 -39.538166942401212 3.8452906530553843 11.582209206504107 #
point $-1 -46.974089785454879 -2.2254204848117123 3.6081580257210248 #
straight-curve $-1 -46.974089785454879 0 11.582209206504107 0 -1 0 I I #
vertex $-1 $503 $702 #
point $-1 -41.600784758834948 0.80993508412183957 7.4188782147724934 #
coedge $-1 $518 $517 $510 $639 forward $507 $-1 #
edge $-1 $640 22.258121589147667 $643 30.232172769930749 $638 $703 forward 7 unknown #
vertex $-1 $522 $704 #
straight-curve $-1 -57.841719725733498 15.898393951819349 11.582209206504107 -1 0 0 I I #
edge $-1 $643 -9.4668747603764487 $519 -3.3961636225093521 $518 $705 forward 7 unknown #
vertex $-1 $642 $706 #
straight-curve $-1 -46.974089785454879 15.898393951819349 3.6081580257210248 0.68199835119979291 0 0.73135370988377701 I I #
point $-1 -39.538166942401212 15.898393951819349 11.582209206504107 #
point $-1 -46.974089785454879 9.8276828139522525 3.6081580257210248 #
straight-curve $-1 -46.974089785454879 0 11.582209206504107 0 -1 0 I I #
vertex $-1 $525 $707 #
point $-1 -41.600784758834948 12.863038382885801 7.4188782147724934 #
coedge $-1 $651 $531 $657 $708 reversed $373 $-1 #
coedge $-1 $531 $650 $534 $655 reversed $373 $-1 #
edge $-1 $653 -15.493426409758433 $539 -9.4227152718913327 $538 $709 forward 7 unknown #
vertex $-1 $533 $710 #
straight-curve $-1 -36.949596520216247 27.951497250583319 14.358111198392907 -0.68199835119979291 0 -0.73135370988377701 I I #
edge $-1 $535 39.538166942401212 $659 46.974089785454879 $651 $711 forward 7 unknown #
point $-1 -39.538166942401212 27.951497250583316 11.582209206504107 #
coedge $-1 $538 $537 $650 $708 forward $529 $-1 #
point $-1 -46.974089785454879 21.880786112716216 3.6081580257210248 #
vertex $-1 $655 $712 #
straight-curve $-1 -46.974089785454879 0 11.582209206504107 0 -1 0 I I #
vertex $-1 $545 $713 #
point $-1 -41.600784758834948 24.916141681649766 7.4188782147724934 #
coedge $-1 $560 $559 $552 $664 forward $549 $-1 #
edge $-1 $665 56.916280708568991 $668 62.345815685818415 $663 $714 forward 7 unknown #
vertex $-1 $564 $715 #
straight-curve $-1 11.95135482671575 7.8250175929784511 11.582209206504103 1 0 0 I I #
edge $-1 $668 1.0118281901741941 $561 12.61455061543432 $560 $716 forward 7 unknown #
vertex $-1 $667 $717 #
straight-curve $-1 -29.983753081002568 7.8250175929784511 60.039136963688748 -0.81915203911291934 0 0.57357644374324357 I I #
point $-1 39.219910379091878 7.8250175929784511 11.582209206504103 #
point $-1 46.974089785454872 19.427740018238577 6.1526742292546786 #
straight-curve $-1 46.974089785454879 0 11.582209206504107 0 1 0 I I #
vertex $-1 $567 $718 #
point $-1 42.751004404218477 10.145562078030476 6.6298619162628549 #
vertex $-1 $571 $719 #
point $-1 42.751004404218477 13.626378805608514 6.6298619162628549 #
vertex $-1 $575 $720 #
point $-1 42.751004404218477 17.107195533186552 6.6298619162628549 #
straight-curve $-1 -46.974089785454879 27.951497250583319 0 0 0 -1 I I #
straight-curve $-1 -46.974089785454879 0 -11.582209206504107 0 1 0 I I #
point $-1 -46.974089785454879 -27.951497250583319 -11.582209206504107 #
point $-1 -46.974089785454879 27.951497250583319 -11.582209206504107 #
straight-curve $-1 -46.974089785454879 -27.951497250583319 0 0 0 -1 I I #
edge $-1 $610 -1.519469060823365 $604 1.519469060823365 $603 $721 forward 7 unknown #
coedge $-1 $608 $599 $598 $686 reversed $443 $-1 #
edge $-1 $612 -1.519469060823365 $601 1.519469060823365 $598 $722 forward 7 unknown #
straight-curve $-1 0 -41.624470717590967 -11.582209206504107 -1 0 0 I I #
point $-1 46.974089785454879 -41.624470717590967 -11.582209206504107 #
point $-1 -46.974089785454879 -41.624470717590967 -11.582209206504107 #
straight-curve $-1 0 -41.624470717590967 -8.543271084857377 1 0 0 I I #
point $-1 -46.974089785454879 -41.624470717590967 -8.543271084857377 #
point $-1 46.974089785454879 -41.624470717590967 -8.543271084857377 #
straight-curve $-1 -46.974089785454879 -8.2078126457085805 33.840330795651774 0 0 -1 I I #
point $-1 -46.974089785454879 -8.2078126457085805 11.582209206504107 #
straight-curve $-1 -46.974089785454879 -5.6215841073210644 3.6081580257210262 0 -1 0 I I #
point $-1 -46.974089785454879 -8.2078126457085805 3.6081580257210248 #
point $-1 -41.551429400150965 -11.243168214642125 6.0055261536889235 #
straight-curve $-1 -46.974089785454879 3.8452906530553843 33.840330795651774 0 0 -1 I I #
point $-1 -46.974089785454879 3.8452906530553843 11.582209206504107 #
straight-curve $-1 -46.974089785454879 0.40496754206091801 3.6081580257210262 0 -1 0 I I #
point $-1 -46.974089785454879 3.8452906530553843 3.6081580257210248 #
point $-1 -41.551429400150965 0.80993508412183957 6.0055261536889235 #
straight-curve $-1 -46.974089785454879 15.898393951819349 33.840330795651774 0 0 -1 I I #
point $-1 -46.974089785454879 15.898393951819349 11.582209206504107 #
straight-curve $-1 -46.974089785454879 6.4315191914429004 3.6081580257210262 0 -1 0 I I #
point $-1 -46.974089785454879 15.898393951819349 3.6081580257210248 #
point $-1 -41.551429400150965 12.863038382885801 6.0055261536889235 #
edge $-1 $659 -11.582209206504107 $653 -3.6081580257210248 $650 $723 forward 7 unknown #
straight-curve $-1 -46.974089785454879 12.458070840824883 3.6081580257210262 0 -1 0 I I #
point $-1 -46.974089785454879 27.951497250583316 3.6081580257210248 #
straight-curve $-1 0 27.951497250583319 11.582209206504107 -1 0 0 I I #
point $-1 -46.974089785454879 27.951497250583319 11.582209206504107 #
point $-1 -41.551429400150965 24.916141681649766 6.0055261536889235 #
straight-curve $-1 46.974089785454879 7.8250175929784511 68.498489915073094 0 0 -1 I I #
point $-1 46.974089785454879 7.8250175929784511 11.582209206504107 #
straight-curve $-1 46.974089785454879 6.813189402804257 6.1526742292546786 0 1 0 I I #
point $-1 46.974089785454872 7.8250175929784511 6.1526742292546786 #
point $-1 41.358275921362313 10.145562078030476 6.384286320893179 #
point $-1 41.358275921362313 13.626378805608514 6.384286320893179 #
point $-1 41.358275921362313 17.107195533186552 6.384286320893179 #
straight-curve $-1 -46.974089785454879 -41.624470717590967 -10.062740145680742 0 0 -1 I I #
straight-curve $-1 46.974089785454879 -41.624470717590967 -10.062740145680742 0 0 -1 I I #
straight-curve $-1 -46.974089785454879 27.951497250583319 0 0 0 -1 I I #
End-of-ACIS-data 