500 0 9 0           
7 Unknown 11 ACIS 5.0 NT 24 Fri Mar 26 15:56:32 1999 
-1 9.9999999999999995e-007 1e-010 
body $-1 $9 $-1 $10 #
body $-1 $11 $-1 $12 #
body $-1 $13 $-1 $14 #
body $-1 $15 $-1 $16 #
body $-1 $17 $-1 $18 #
body $-1 $19 $-1 $20 #
body $-1 $21 $-1 $22 #
body $-1 $23 $-1 $24 #
body $-1 $25 $-1 $26 #
lump $-1 $-1 $27 $0 #
transform $-1 1 0 0 0 1 0 0 0 1 53.541673024689473 24.698092219860879 6.8363523305671627 1 rotate no_reflect no_shear #
lump $-1 $-1 $28 $1 #
transform $-1 1 0 0 0 1 0 0 0 1 53.541673024689473 24.698092219860879 6.8363523305671627 1 rotate no_reflect no_shear #
lump $-1 $-1 $29 $2 #
transform $-1 1 0 0 0 1 0 0 0 1 53.541673024689473 24.698092219860879 6.8363523305671627 1 rotate no_reflect no_shear #
lump $-1 $-1 $30 $3 #
transform $-1 1 0 0 0 1 0 0 0 1 53.541673024689473 24.698092219860879 6.8363523305671627 1 rotate no_reflect no_shear #
lump $-1 $-1 $31 $4 #
transform $-1 1 0 0 0 1 0 0 0 1 53.541673024689473 24.698092219860879 6.8363523305671627 1 rotate no_reflect no_shear #
lump $-1 $-1 $32 $5 #
transform $-1 1 0 0 0 1 0 0 0 1 53.541673024689473 24.698092219860879 6.8363523305671627 1 rotate no_reflect no_shear #
lump $-1 $-1 $33 $6 #
transform $-1 1 0 0 0 1 0 0 0 1 53.541673024689473 24.698092219860879 6.8363523305671627 1 rotate no_reflect no_shear #
lump $-1 $-1 $34 $7 #
transform $-1 1 0 0 0 1 0 0 0 1 53.541673024689473 24.698092219860879 6.8363523305671627 1 rotate no_reflect no_shear #
lump $-1 $-1 $35 $8 #
transform $-1 1 0 0 0 1 0 0 0 1 53.541673024689473 24.698092219860879 6.8363523305671627 1 rotate no_reflect no_shear #
shell $-1 $-1 $-1 $36 $-1 $9 #
shell $-1 $-1 $-1 $37 $-1 $11 #
shell $-1 $-1 $-1 $38 $-1 $13 #
shell $-1 $-1 $-1 $39 $-1 $15 #
shell $-1 $-1 $-1 $40 $-1 $17 #
shell $-1 $-1 $-1 $41 $-1 $19 #
shell $-1 $-1 $-1 $42 $-1 $21 #
shell $-1 $-1 $-1 $43 $-1 $23 #
shell $-1 $-1 $-1 $44 $-1 $25 #
face $-1 $45 $46 $27 $-1 $47 forward single #
face $-1 $48 $49 $28 $-1 $50 reversed single #
face $-1 $51 $52 $29 $-1 $53 reversed single #
face $-1 $54 $55 $30 $-1 $56 forward single #
face $-1 $57 $58 $31 $-1 $59 forward single #
face $-1 $60 $61 $32 $-1 $62 reversed single #
face $-1 $63 $64 $33 $-1 $65 forward single #
face $-1 $66 $67 $34 $-1 $68 forward single #
face $-1 $69 $70 $35 $-1 $71 forward single #
face $-1 $72 $73 $27 $-1 $74 reversed single #
loop $-1 $-1 $75 $36 #
plane-surface $-1 0 0 6.8363523305671627 0 0 1 1 0 0 forward_v I I I I #
face $-1 $76 $77 $28 $-1 $78 reversed single #
loop $-1 $-1 $79 $37 #
plane-surface $-1 -52.041673024689473 -19.719987595083563 0 0 -1 0 0 0 -1 forward_v I I I I #
face $-1 $80 $81 $29 $-1 $82 reversed single #
loop $-1 $-1 $83 $38 #
plane-surface $-1 -146.278571853985 -9.9460540153593548 56.156882076443566 0 -1 0 0.86602541151947299 0 -0.49999998660252726 forward_v I I I I #
face $-1 $84 $85 $30 $-1 $86 forward single #
loop $-1 $87 $88 $39 #
cone-surface $-1 -51.029276502662505 -16.927435143733788 3.9787722424284495 0.86602541151947299 0 -0.49999998660252726 0.49999998660252726 0 0.86602541151947299 1 I I 0 1 1 forward I I I I #
face $-1 $89 $90 $31 $-1 $91 forward single #
loop $-1 $92 $93 $40 #
cone-surface $-1 -51.029276502662505 -12.738606466709129 3.9787722424284495 0.86602541151947299 0 -0.49999998660252726 0.49999998660252726 0 0.86602541151947299 1 I I 0 1 1 forward I I I I #
face $-1 $94 $95 $32 $-1 $96 reversed single #
loop $-1 $-1 $97 $41 #
plane-surface $-1 32.465478147525545 15.215905771322028 153.25288003105075 0 1 0 0.6018150307709319 0 0.79863550430605224 forward_v I I I I #
face $-1 $98 $99 $33 $-1 $100 forward single #
loop $-1 $101 $102 $42 #
cone-surface $-1 50.886321590325672 17.112343061029801 4.6628337923126386 -0.6018150307709319 0 -0.79863550430605224 0.19965887607651306 0 -0.15045375769273298 1 I I 0 1 0.25 forward I I I I #
face $-1 $103 $104 $34 $-1 $105 forward single #
loop $-1 $106 $107 $43 #
cone-surface $-1 50.886321590325672 19.956998995591452 4.6628337923126386 -0.6018150307709319 0 -0.79863550430605224 0.19965887607651306 0 -0.15045375769273298 1 I I 0 1 0.25 forward I I I I #
face $-1 $108 $109 $35 $-1 $110 forward single #
loop $-1 $111 $112 $44 #
cone-surface $-1 50.886321590325672 22.801654930153102 4.6628337923126386 -0.6018150307709319 0 -0.79863550430605224 0.19965887607651306 0 -0.15045375769273298 1 I I 0 1 0.25 forward I I I I #
face $-1 $113 $114 $27 $-1 $115 reversed single #
loop $-1 $-1 $116 $45 #
plane-surface $-1 0 0 -6.8363523305671627 0 0 1 1 0 0 forward_v I I I I #
coedge $-1 $117 $118 $119 $120 forward $46 $-1 #
face $-1 $121 $122 $28 $-1 $123 forward single #
loop $-1 $-1 $124 $48 #
plane-surface $-1 -50.541673024689473 -22.209039907472221 0 -1 0 0 0 0 1 forward_v I I I I #
coedge $-1 $125 $126 $127 $128 reversed $49 $-1 #
face $-1 $129 $130 $29 $-1 $131 reversed single #
loop $-1 $-1 $132 $51 #
plane-surface $-1 -53.541673024689459 -14.833020805221459 2.6152104864003007 -0.86602541151947299 0 0.49999998660252726 0.49999998660252726 0 0.86602541151947299 forward_v I I I I #
coedge $-1 $133 $134 $135 $136 reversed $52 $-1 #
face $-1 $-1 $137 $30 $-1 $138 forward single #
loop $-1 $139 $140 $54 #
cone-surface $-1 -49.302405921350228 -16.927435143733788 2.981763083071904 0.86602541151947299 0 -0.49999998660252726 0.24999999330126363 0 0.43301270575973649 1 I I -0.70710678118654746 0.70710678118654746 0.5 forward I I I I #
loop $-1 $-1 $141 $39 #
coedge $-1 $88 $88 $142 $143 reversed $55 $-1 #
face $-1 $-1 $144 $31 $-1 $145 forward single #
loop $-1 $146 $147 $57 #
cone-surface $-1 -49.302405921350228 -12.738606466709129 2.981763083071904 0.86602541151947299 0 -0.49999998660252726 0.24999999330126363 0 0.43301270575973649 1 I I -0.70710678118654746 0.70710678118654746 0.5 forward I I I I #
loop $-1 $-1 $148 $40 #
coedge $-1 $93 $93 $149 $150 reversed $58 $-1 #
face $-1 $151 $152 $32 $-1 $153 reversed single #
loop $-1 $-1 $154 $60 #
plane-surface $-1 -31.978889050235793 19.956998995591452 67.732317956125485 0.6018150307709319 0 0.79863550430605224 0.79863550430605224 0 -0.6018150307709319 forward_v I I I I #
coedge $-1 $155 $156 $157 $158 reversed $61 $-1 #
face $-1 $-1 $159 $33 $-1 $160 forward single #
loop $-1 $161 $162 $63 #
cone-surface $-1 50.510187196093838 17.112343061029801 4.1636866021213557 -0.6018150307709319 0 -0.79863550430605224 0.099829438038256529 0 -0.075226878846366488 1 I I -0.70710678118654746 0.70710678118654746 0.125 forward I I I I #
loop $-1 $-1 $163 $42 #
coedge $-1 $102 $102 $164 $165 reversed $64 $-1 #
face $-1 $-1 $166 $34 $-1 $167 forward single #
loop $-1 $168 $169 $66 #
cone-surface $-1 50.510187196093838 19.956998995591452 4.1636866021213557 -0.6018150307709319 0 -0.79863550430605224 0.099829438038256529 0 -0.075226878846366488 1 I I -0.70710678118654746 0.70710678118654746 0.125 forward I I I I #
loop $-1 $-1 $170 $43 #
coedge $-1 $107 $107 $171 $172 reversed $67 $-1 #
face $-1 $-1 $173 $35 $-1 $174 forward single #
loop $-1 $175 $176 $69 #
cone-surface $-1 50.510187196093838 22.801654930153102 4.1636866021213557 -0.6018150307709319 0 -0.79863550430605224 0.099829438038256529 0 -0.075226878846366488 1 I I -0.70710678118654746 0.70710678118654746 0.125 forward I I I I #
loop $-1 $-1 $177 $44 #
coedge $-1 $112 $112 $178 $179 reversed $70 $-1 #
face $-1 $180 $181 $27 $-1 $182 reversed single #
loop $-1 $-1 $183 $72 #
plane-surface $-1 0 -24.698092219860879 0 0 1 0 0 0 1 forward_v I I I I #
coedge $-1 $184 $185 $186 $187 forward $73 $-1 #
coedge $-1 $188 $75 $189 $190 forward $46 $-1 #
coedge $-1 $75 $188 $191 $192 forward $46 $-1 #
coedge $-1 $193 $194 $75 $120 reversed $195 $-1 #
edge $-1 $196 -24.698092219860879 $197 24.698092219860879 $119 $198 forward 7 unknown #
face $-1 $199 $200 $28 $-1 $201 reversed single #
loop $-1 $-1 $202 $76 #
plane-surface $-1 0 0 6.8363523305671627 0 0 1 1 0 0 forward_v I I I I #
coedge $-1 $203 $204 $205 $206 reversed $77 $-1 #
coedge $-1 $207 $79 $208 $209 forward $49 $-1 #
coedge $-1 $79 $207 $210 $211 reversed $49 $-1 #
coedge $-1 $212 $202 $79 $128 forward $122 $-1 #
edge $-1 $213 24.520836512344736 $214 27.520836512344736 $127 $215 forward 7 unknown #
face $-1 $216 $217 $29 $-1 $218 forward single #
loop $-1 $-1 $135 $80 #
plane-surface $-1 -53.541673024689473 0 0 1 0 0 0 0 -1 forward_v I I I I #
coedge $-1 $219 $220 $221 $222 reversed $81 $-1 #
coedge $-1 $134 $83 $223 $224 reversed $52 $-1 #
coedge $-1 $83 $133 $219 $225 reversed $52 $-1 #
coedge $-1 $221 $226 $83 $136 forward $130 $-1 #
edge $-1 $227 21.24208870765462 $228 25.463230551821507 $135 $229 forward 7 unknown #
loop $-1 $-1 $142 $84 #
plane-surface $-1 -53.541673024689459 -14.833020805221459 2.6152104864003007 -0.86602541151947299 0 0.49999998660252726 0.49999998660252726 0 0.86602541151947299 forward_v I I I I #
loop $-1 $-1 $230 $54 #
coedge $-1 $140 $140 $141 $231 reversed $85 $-1 #
coedge $-1 $141 $141 $140 $231 forward $87 $-1 #
coedge $-1 $142 $142 $88 $143 forward $137 $-1 #
edge $-1 $232 0 $232 6.2831853071796004 $142 $233 forward 7 unknown #
loop $-1 $-1 $149 $89 #
plane-surface $-1 -53.541673024689459 -14.833020805221459 2.6152104864003007 -0.86602541151947299 0 0.49999998660252726 0.49999998660252726 0 0.86602541151947299 forward_v I I I I #
loop $-1 $-1 $234 $57 #
coedge $-1 $147 $147 $148 $235 reversed $90 $-1 #
coedge $-1 $148 $148 $147 $235 forward $92 $-1 #
coedge $-1 $149 $149 $93 $150 forward $144 $-1 #
edge $-1 $236 0 $236 6.2831853071796004 $149 $237 forward 7 unknown #
face $-1 $238 $239 $32 $-1 $240 reversed single #
loop $-1 $-1 $157 $94 #
plane-surface $-1 53.541673024689473 0 0 -1 0 0 0 0 1 forward_v I I I I #
coedge $-1 $241 $242 $243 $244 reversed $95 $-1 #
coedge $-1 $156 $97 $245 $246 reversed $61 $-1 #
coedge $-1 $97 $155 $241 $247 reversed $61 $-1 #
coedge $-1 $243 $248 $97 $158 forward $152 $-1 #
edge $-1 $249 69.790087684958209 $250 73.338489257161228 $157 $251 forward 7 unknown #
loop $-1 $-1 $164 $98 #
plane-surface $-1 -31.978889050235793 19.956998995591452 67.732317956125485 0.6018150307709319 0 0.79863550430605224 0.79863550430605224 0 -0.6018150307709319 forward_v I I I I #
loop $-1 $-1 $252 $63 #
coedge $-1 $162 $162 $163 $253 reversed $99 $-1 #
coedge $-1 $163 $163 $162 $253 forward $101 $-1 #
coedge $-1 $164 $164 $102 $165 forward $159 $-1 #
edge $-1 $254 0 $254 6.2831853071796004 $164 $255 forward 7 unknown #
loop $-1 $-1 $171 $103 #
plane-surface $-1 -31.978889050235793 19.956998995591452 67.732317956125485 0.6018150307709319 0 0.79863550430605224 0.79863550430605224 0 -0.6018150307709319 forward_v I I I I #
loop $-1 $-1 $256 $66 #
coedge $-1 $169 $169 $170 $257 reversed $104 $-1 #
coedge $-1 $170 $170 $169 $257 forward $106 $-1 #
coedge $-1 $171 $171 $107 $172 forward $166 $-1 #
edge $-1 $258 0 $258 6.2831853071796004 $171 $259 forward 7 unknown #
loop $-1 $-1 $178 $108 #
plane-surface $-1 -31.978889050235793 19.956998995591452 67.732317956125485 0.6018150307709319 0 0.79863550430605224 0.79863550430605224 0 -0.6018150307709319 forward_v I I I I #
loop $-1 $-1 $260 $69 #
coedge $-1 $176 $176 $177 $261 reversed $109 $-1 #
coedge $-1 $177 $177 $176 $261 forward $111 $-1 #
coedge $-1 $178 $178 $112 $179 forward $173 $-1 #
edge $-1 $262 0 $262 6.2831853071796004 $178 $263 forward 7 unknown #
face $-1 $264 $265 $27 $-1 $266 reversed single #
loop $-1 $-1 $267 $113 #
plane-surface $-1 -53.541673024689473 0 0 1 0 0 0 0 -1 forward_v I I I I #
coedge $-1 $268 $191 $269 $270 forward $114 $-1 #
coedge $-1 $271 $116 $268 $272 forward $73 $-1 #
coedge $-1 $116 $271 $273 $274 forward $73 $-1 #
coedge $-1 $194 $193 $116 $187 reversed $195 $-1 #
edge $-1 $275 -24.698092219860879 $276 24.698092219860879 $186 $277 forward 7 unknown #
coedge $-1 $118 $117 $278 $279 forward $46 $-1 #
coedge $-1 $280 $281 $117 $190 reversed $265 $-1 #
edge $-1 $197 -53.541673024689473 $282 53.541673024689473 $189 $283 forward 7 unknown #
coedge $-1 $183 $284 $118 $192 reversed $114 $-1 #
edge $-1 $285 -53.541673024689473 $196 53.541673024689473 $191 $286 forward 7 unknown #
coedge $-1 $186 $119 $284 $287 forward $195 $-1 #
coedge $-1 $119 $186 $280 $288 reversed $195 $-1 #
loop $-1 $-1 $193 $264 #
vertex $-1 $120 $289 #
vertex $-1 $120 $290 #
straight-curve $-1 53.541673024689473 0 6.8363523305671627 0 1 0 I I #
face $-1 $291 $292 $28 $-1 $293 reversed single #
loop $-1 $-1 $210 $121 #
plane-surface $-1 -53.541673024689473 0 0 1 0 0 0 0 -1 forward_v I I I I #
coedge $-1 $127 $294 $204 $295 forward $122 $-1 #
coedge $-1 $208 $124 $296 $297 reversed $77 $-1 #
coedge $-1 $124 $208 $202 $295 reversed $77 $-1 #
coedge $-1 $298 $299 $124 $206 forward $300 $-1 #
edge $-1 $301 -6.8363523305671627 $302 6.8363523305671627 $205 $303 forward 7 unknown #
coedge $-1 $126 $125 $304 $305 reversed $49 $-1 #
coedge $-1 $204 $203 $125 $209 reversed $77 $-1 #
edge $-1 $213 -6.8363523305671627 $306 6.8363523305671627 $208 $307 forward 7 unknown #
coedge $-1 $308 $309 $126 $211 forward $200 $-1 #
edge $-1 $214 -6.8363523305671627 $310 6.8363523305671627 $210 $311 forward 7 unknown #
coedge $-1 $294 $127 $309 $312 forward $122 $-1 #
vertex $-1 $128 $313 #
vertex $-1 $312 $314 #
straight-curve $-1 -26.020836512344736 -19.719987595083563 6.8363523305671627 -1 0 0 I I #
face $-1 $-1 $315 $29 $-1 $316 forward single #
loop $-1 $-1 $317 $129 #
plane-surface $-1 -52.041673024689473 -19.719987595083563 0 0 -1 0 0 0 -1 forward_v I I I I #
coedge $-1 $318 $132 $134 $225 forward $81 $-1 #
coedge $-1 $132 $318 $317 $319 reversed $81 $-1 #
coedge $-1 $320 $135 $132 $222 forward $130 $-1 #
edge $-1 $228 2.5295436127486255 $321 12.303477192472833 $221 $322 forward 7 unknown #
coedge $-1 $323 $324 $133 $224 forward $315 $-1 #
edge $-1 $325 -22.034690195251898 $227 -19.597612902303027 $223 $326 forward 7 unknown #
edge $-1 $228 -2.8258016906358157e-014 $325 4.8741547165004251 $134 $327 forward 7 unknown #
coedge $-1 $135 $320 $323 $328 reversed $130 $-1 #
vertex $-1 $328 $329 #
vertex $-1 $136 $330 #
straight-curve $-1 -53.541673024689473 -9.9460540153593548 28.078441038221783 0 0 -1 I I #
coedge $-1 $230 $230 $-1 $331 reversed $139 $-1 #
edge $-1 $332 0 $332 6.2831853071796004 $140 $333 forward 7 unknown #
vertex $-1 $143 $334 #
ellipse-curve $-1 -52.32313437821503 -16.927435143733788 4.7257814084837255 -0.86602541151947299 0 0.49999998660252726 0.49999998660252726 0 0.86602541151947299 1 I I #
coedge $-1 $234 $234 $-1 $335 reversed $146 $-1 #
edge $-1 $336 0 $336 6.2831853071796004 $147 $337 forward 7 unknown #
vertex $-1 $150 $338 #
ellipse-curve $-1 -52.32313437821503 -12.738606466709129 4.7257814084837255 -0.86602541151947299 0 0.49999998660252726 0.49999998660252726 0 0.86602541151947299 1 I I #
face $-1 $-1 $339 $32 $-1 $340 forward single #
loop $-1 $-1 $341 $151 #
plane-surface $-1 0 24.698092219860879 0 0 -1 0 0 0 -1 forward_v I I I I #
coedge $-1 $342 $154 $156 $247 forward $95 $-1 #
coedge $-1 $154 $342 $341 $343 reversed $95 $-1 #
coedge $-1 $344 $157 $154 $244 forward $152 $-1 #
edge $-1 $250 5.2374062735263021 $345 14.719592722065153 $243 $346 forward 7 unknown #
coedge $-1 $347 $348 $155 $246 forward $339 $-1 #
edge $-1 $349 32.600046112970048 $249 37.308933950926701 $245 $350 forward 7 unknown #
edge $-1 $250 -107.08334604937896 $349 -101.18717963482882 $156 $351 forward 7 unknown #
coedge $-1 $157 $344 $347 $352 reversed $152 $-1 #
vertex $-1 $352 $353 #
vertex $-1 $158 $354 #
straight-curve $-1 53.541673024689473 15.215905771322028 76.626440015525375 0 0 -1 I I #
coedge $-1 $252 $252 $-1 $355 reversed $161 $-1 #
edge $-1 $356 0 $356 6.2831853071796004 $162 $357 forward 7 unknown #
vertex $-1 $165 $358 #
ellipse-curve $-1 51.187229105711133 17.112343061029801 5.0621515444656593 0.6018150307709319 0 0.79863550430605224 0.19965887607651306 0 -0.15045375769273298 1 I I #
coedge $-1 $256 $256 $-1 $359 reversed $168 $-1 #
edge $-1 $360 0 $360 6.2831853071796004 $169 $361 forward 7 unknown #
vertex $-1 $172 $362 #
ellipse-curve $-1 51.187229105711133 19.956998995591452 5.0621515444656593 0.6018150307709319 0 0.79863550430605224 0.19965887607651306 0 -0.15045375769273298 1 I I #
coedge $-1 $260 $260 $-1 $363 reversed $175 $-1 #
edge $-1 $364 0 $364 6.2831853071796004 $176 $365 forward 7 unknown #
vertex $-1 $179 $366 #
ellipse-curve $-1 51.187229105711133 22.801654930153102 5.0621515444656593 0.6018150307709319 0 0.79863550430605224 0.19965887607651306 0 -0.15045375769273298 1 I I #
face $-1 $-1 $195 $27 $-1 $367 reversed single #
loop $-1 $-1 $280 $180 #
plane-surface $-1 0 24.698092219860879 0 0 -1 0 0 0 -1 forward_v I I I I #
coedge $-1 $368 $278 $281 $369 forward $181 $-1 #
coedge $-1 $284 $183 $184 $272 reversed $114 $-1 #
coedge $-1 $278 $368 $183 $270 reversed $181 $-1 #
edge $-1 $285 -6.8363523305671627 $370 6.8363523305671627 $269 $371 forward 7 unknown #
coedge $-1 $185 $184 $368 $372 forward $73 $-1 #
edge $-1 $276 -53.541673024689473 $370 53.541673024689473 $268 $373 forward 7 unknown #
coedge $-1 $281 $280 $185 $274 reversed $265 $-1 #
edge $-1 $374 -53.541673024689473 $275 53.541673024689473 $273 $375 forward 7 unknown #
vertex $-1 $187 $376 #
vertex $-1 $287 $377 #
straight-curve $-1 53.541673024689473 0 -6.8363523305671627 0 -1 0 I I #
coedge $-1 $267 $269 $188 $279 reversed $181 $-1 #
edge $-1 $282 -24.698092219860879 $285 24.698092219860879 $278 $378 forward 7 unknown #
coedge $-1 $273 $189 $194 $288 forward $265 $-1 #
coedge $-1 $189 $273 $267 $369 reversed $265 $-1 #
vertex $-1 $190 $379 #
straight-curve $-1 0 24.698092219860879 6.8363523305671627 -1 0 0 I I #
coedge $-1 $191 $268 $193 $287 reversed $114 $-1 #
vertex $-1 $279 $380 #
straight-curve $-1 0 -24.698092219860879 6.8363523305671627 1 0 0 I I #
edge $-1 $196 -6.8363523305671627 $276 6.8363523305671627 $193 $381 forward 7 unknown #
edge $-1 $197 -6.8363523305671627 $275 6.8363523305671627 $194 $382 forward 7 unknown #
point $-1 53.541673024689473 -24.698092219860879 6.8363523305671627 #
point $-1 53.541673024689473 24.698092219860879 6.8363523305671627 #
face $-1 $-1 $300 $28 $-1 $383 reversed single #
loop $-1 $-1 $296 $199 #
plane-surface $-1 0 0 -6.8363523305671627 0 0 1 1 0 0 forward_v I I I I #
coedge $-1 $202 $212 $298 $384 forward $122 $-1 #
edge $-1 $302 -13.593572266124768 $213 -8.6154676413474522 $202 $385 forward 7 unknown #
coedge $-1 $386 $304 $203 $297 forward $292 $-1 #
edge $-1 $306 8.6154676413474522 $301 13.593572266124768 $296 $387 forward 7 unknown #
coedge $-1 $388 $205 $294 $384 reversed $300 $-1 #
coedge $-1 $205 $388 $386 $389 reversed $300 $-1 #
loop $-1 $-1 $205 $291 #
vertex $-1 $389 $390 #
vertex $-1 $206 $391 #
straight-curve $-1 -50.541673024689473 -24.698092219860879 0 0 0 1 I I #
coedge $-1 $296 $392 $207 $305 forward $292 $-1 #
edge $-1 $310 -27.520836512344736 $306 -24.520836512344736 $304 $393 forward 7 unknown #
vertex $-1 $305 $394 #
straight-curve $-1 -50.541673024689473 -19.719987595083563 0 0 0 -1 I I #
coedge $-1 $395 $210 $392 $396 reversed $200 $-1 #
coedge $-1 $210 $395 $212 $312 reversed $200 $-1 #
vertex $-1 $305 $397 #
straight-curve $-1 -53.541673024689473 -19.719987595083563 0 0 0 -1 I I #
edge $-1 $214 19.719987595083563 $398 24.698092219860879 $309 $399 forward 7 unknown #
point $-1 -50.541673024689473 -19.719987595083563 6.8363523305671627 #
point $-1 -53.541673024689473 -19.719987595083563 6.8363523305671627 #
loop $-1 $-1 $223 $216 #
plane-surface $-1 0 0 6.8363523305671627 0 0 1 1 0 0 forward_v I I I I #
coedge $-1 $400 $401 $220 $319 forward $217 $-1 #
coedge $-1 $220 $219 $324 $402 reversed $81 $-1 #
edge $-1 $321 0.75741937889551092 $403 5.6315740953959654 $317 $404 forward 7 unknown #
coedge $-1 $226 $221 $401 $405 forward $130 $-1 #
vertex $-1 $405 $406 #
straight-curve $-1 -53.541673024689473 -7.4165104026107294 2.6152104864002772 0 -1 0 I I #
coedge $-1 $407 $223 $226 $328 forward $315 $-1 #
coedge $-1 $223 $407 $318 $402 forward $315 $-1 #
vertex $-1 $224 $408 #
straight-curve $-1 -73.1392859269925 -9.9460540153593548 6.8363523305671627 -1 0 0 I I #
straight-curve $-1 -53.541673024689459 -9.9460540153593548 2.6152104864003007 0.49999998660252726 0 0.86602541151947299 I I #
edge $-1 $227 9.9460540153593548 $409 19.719987595083563 $226 $410 forward 7 unknown #
point $-1 -53.541673024689473 -9.9460540153593548 6.8363523305671627 #
point $-1 -53.541673024689473 -9.9460540153593548 2.6152104864002763 #
edge $-1 $411 1 $411 0 $230 $-1 forward 7 unknown #
vertex $-1 $231 $412 #
ellipse-curve $-1 -49.735418627109965 -16.927435143733788 3.2317630763731677 -0.86602541151947299 0 0.49999998660252726 0.49999998660252726 0 0.86602541151947299 1 I I #
point $-1 -51.823134391612513 -16.927435143733788 5.5918068200032049 #
edge $-1 $413 1 $413 0 $234 $-1 forward 7 unknown #
vertex $-1 $235 $414 #
ellipse-curve $-1 -49.735418627109965 -12.738606466709129 3.2317630763731677 -0.86602541151947299 0 0.49999998660252726 0.49999998660252726 0 0.86602541151947299 1 I I #
point $-1 -51.823134391612513 -12.738606466709129 5.5918068200032049 #
loop $-1 $-1 $245 $238 #
plane-surface $-1 0 0 6.8363523305671627 0 0 1 1 0 0 forward_v I I I I #
coedge $-1 $415 $416 $242 $343 forward $239 $-1 #
coedge $-1 $242 $241 $348 $417 reversed $95 $-1 #
edge $-1 $345 -73.932444450011687 $418 -68.03627803546155 $341 $419 forward 7 unknown #
coedge $-1 $248 $243 $416 $420 reversed $152 $-1 #
vertex $-1 $343 $421 #
straight-curve $-1 53.541673024689466 9.9784994977957258 3.2879507583641505 0 1 0 I I #
coedge $-1 $422 $245 $248 $352 forward $339 $-1 #
coedge $-1 $245 $422 $342 $417 forward $339 $-1 #
vertex $-1 $246 $423 #
straight-curve $-1 16.232739073762772 15.215905771322028 6.8363523305671663 1 0 0 I I #
straight-curve $-1 -31.978889050235793 15.215905771322028 67.732317956125485 -0.79863550430605224 0 0.6018150307709319 I I #
edge $-1 $249 15.215905771322028 $424 24.698092219860879 $248 $425 forward 7 unknown #
point $-1 53.541673024689473 15.215905771322028 6.8363523305671627 #
point $-1 53.541673024689473 15.215905771322028 3.287950758364147 #
edge $-1 $426 1 $426 0 $252 $-1 forward 7 unknown #
vertex $-1 $253 $427 #
ellipse-curve $-1 50.585414074940203 17.112343061029801 4.2635160401596126 0.6018150307709319 0 0.79863550430605224 0.19965887607651306 0 -0.15045375769273298 1 I I #
point $-1 51.386887981787652 17.112343061029801 4.9116977867729315 #
edge $-1 $428 1 $428 0 $256 $-1 forward 7 unknown #
vertex $-1 $257 $429 #
ellipse-curve $-1 50.585414074940203 19.956998995591452 4.2635160401596126 0.6018150307709319 0 0.79863550430605224 0.19965887607651306 0 -0.15045375769273298 1 I I #
point $-1 51.386887981787652 19.956998995591452 4.9116977867729315 #
edge $-1 $430 1 $430 0 $260 $-1 forward 7 unknown #
vertex $-1 $261 $431 #
ellipse-curve $-1 50.585414074940203 22.801654930153102 4.2635160401596126 0.6018150307709319 0 0.79863550430605224 0.19965887607651306 0 -0.15045375769273298 1 I I #
point $-1 51.386887981787652 22.801654930153102 4.9116977867729315 #
plane-surface $-1 53.541673024689473 0 0 -1 0 0 0 0 1 forward_v I I I I #
coedge $-1 $269 $267 $271 $372 reversed $181 $-1 #
edge $-1 $282 -6.8363523305671627 $374 6.8363523305671627 $281 $432 forward 7 unknown #
vertex $-1 $372 $433 #
straight-curve $-1 -53.541673024689473 -24.698092219860879 0 0 0 -1 I I #
edge $-1 $370 -24.698092219860879 $374 24.698092219860879 $368 $434 forward 7 unknown #
straight-curve $-1 0 -24.698092219860879 -6.8363523305671627 -1 0 0 I I #
vertex $-1 $274 $435 #
straight-curve $-1 0 24.698092219860879 -6.8363523305671627 1 0 0 I I #
point $-1 53.541673024689473 24.698092219860879 -6.8363523305671627 #
point $-1 53.541673024689473 -24.698092219860879 -6.8363523305671627 #
straight-curve $-1 -53.541673024689473 0 6.8363523305671627 0 -1 0 I I #
point $-1 -53.541673024689473 24.698092219860879 6.8363523305671627 #
point $-1 -53.541673024689473 -24.698092219860879 6.8363523305671627 #
straight-curve $-1 53.541673024689473 -24.698092219860879 0 0 0 -1 I I #
straight-curve $-1 53.541673024689473 24.698092219860879 0 0 0 -1 I I #
plane-surface $-1 0 -24.698092219860879 0 0 1 0 0 0 1 forward_v I I I I #
edge $-1 $398 -53.541673024689473 $302 -50.541673024689473 $298 $436 forward 7 unknown #
straight-curve $-1 -50.541673024689473 -11.10451995373611 6.8363523305671627 0 1 0 I I #
coedge $-1 $392 $296 $299 $389 forward $292 $-1 #
straight-curve $-1 -50.541673024689473 -11.10451995373611 -6.8363523305671627 0 -1 0 I I #
coedge $-1 $299 $298 $395 $437 forward $300 $-1 #
edge $-1 $301 50.541673024689473 $438 53.541673024689473 $299 $439 forward 7 unknown #
point $-1 -50.541673024689473 -24.698092219860879 -6.8363523305671627 #
point $-1 -50.541673024689473 -24.698092219860879 6.8363523305671627 #
coedge $-1 $304 $386 $308 $396 forward $292 $-1 #
straight-curve $-1 -26.020836512344736 -19.719987595083563 -6.8363523305671627 1 0 0 I I #
point $-1 -50.541673024689473 -19.719987595083563 -6.8363523305671627 #
coedge $-1 $309 $308 $388 $437 reversed $200 $-1 #
edge $-1 $438 -24.698092219860879 $310 -19.719987595083563 $308 $440 forward 7 unknown #
point $-1 -53.541673024689473 -19.719987595083563 -6.8363523305671627 #
vertex $-1 $312 $441 #
straight-curve $-1 -53.541673024689473 0 6.8363523305671627 0 -1 0 I I #
coedge $-1 $401 $317 $407 $442 reversed $217 $-1 #
coedge $-1 $317 $400 $320 $405 reversed $217 $-1 #
edge $-1 $403 -12.303477192472833 $325 -2.5295436127486255 $324 $443 forward 7 unknown #
vertex $-1 $319 $444 #
straight-curve $-1 -53.920382703989723 -19.719987595083563 1.959266057099468 0.49999998660252726 0 0.86602541151947299 I I #
edge $-1 $321 2.6152104864002763 $409 6.8363523305671627 $320 $445 forward 7 unknown #
point $-1 -53.541673024689473 -19.719987595083563 2.6152104864002763 #
coedge $-1 $324 $323 $400 $442 forward $315 $-1 #
point $-1 -51.104595731740602 -9.9460540153593548 6.8363523305671627 #
vertex $-1 $405 $446 #
straight-curve $-1 -53.541673024689473 0 6.8363523305671627 0 -1 0 I I #
vertex $-1 $331 $447 #
point $-1 -49.23541864050744 -16.927435143733788 4.0977884878926405 #
vertex $-1 $335 $448 #
point $-1 -49.23541864050744 -12.738606466709129 4.0977884878926405 #
coedge $-1 $416 $341 $422 $449 reversed $239 $-1 #
coedge $-1 $341 $415 $344 $420 forward $239 $-1 #
edge $-1 $418 -14.719592722065149 $349 -5.2374062735263021 $348 $450 forward 7 unknown #
vertex $-1 $343 $451 #
straight-curve $-1 -5.5034020332247948 24.698092219860879 47.781607090018134 -0.79863550430605224 0 0.6018150307709319 I I #
edge $-1 $424 -6.8363523305671627 $345 -3.2879507583641492 $344 $452 forward 7 unknown #
point $-1 53.541673024689473 24.698092219860879 3.2879507583641492 #
coedge $-1 $348 $347 $415 $449 forward $339 $-1 #
point $-1 48.832785186732821 15.215905771322028 6.8363523305671592 #
vertex $-1 $352 $453 #
straight-curve $-1 53.541673024689473 0 6.8363523305671627 0 1 0 I I #
vertex $-1 $355 $454 #
point $-1 50.785072951016716 17.112343061029801 4.1130622824668794 #
vertex $-1 $359 $455 #
point $-1 50.785072951016716 19.956998995591452 4.1130622824668794 #
vertex $-1 $363 $456 #
point $-1 50.785072951016716 22.801654930153102 4.1130622824668794 #
straight-curve $-1 -53.541673024689473 24.698092219860879 0 0 0 -1 I I #
point $-1 -53.541673024689473 -24.698092219860879 -6.8363523305671627 #
straight-curve $-1 -53.541673024689473 0 -6.8363523305671627 0 1 0 I I #
point $-1 -53.541673024689473 24.698092219860879 -6.8363523305671627 #
straight-curve $-1 0 -24.698092219860879 6.8363523305671627 1 0 0 I I #
edge $-1 $398 -6.8363523305671627 $438 6.8363523305671627 $395 $457 forward 7 unknown #
vertex $-1 $396 $458 #
straight-curve $-1 0 -24.698092219860879 -6.8363523305671627 -1 0 0 I I #
straight-curve $-1 -53.541673024689473 0 -6.8363523305671627 0 1 0 I I #
point $-1 -53.541673024689473 -24.698092219860879 6.8363523305671627 #
edge $-1 $409 -27.520836512344736 $403 -25.083759219395866 $407 $459 forward 7 unknown #
straight-curve $-1 -51.104595731740602 -7.4165104026107294 6.8363523305671627 0 1 0 I I #
point $-1 -51.104595731740602 -19.719987595083563 6.8363523305671627 #
straight-curve $-1 -53.541673024689473 -19.719987595083563 0 0 0 1 I I #
point $-1 -53.541673024689473 -19.719987595083563 6.8363523305671627 #
point $-1 -48.869393215590492 -16.927435143733788 2.7317630897706402 #
point $-1 -48.869393215590492 -12.738606466709129 2.7317630897706402 #
edge $-1 $424 -53.541673024689473 $418 -48.832785186732821 $415 $460 forward 7 unknown #
straight-curve $-1 48.832785186732821 9.9784994977957258 6.8363523305671663 0 -1 0 I I #
point $-1 48.832785186732821 24.698092219860875 6.8363523305671592 #
straight-curve $-1 53.541673024689473 24.698092219860879 0 0 0 -1 I I #
point $-1 53.541673024689473 24.698092219860879 6.8363523305671627 #
point $-1 50.434960317247473 17.112343061029801 4.0638571640830987 #
point $-1 50.434960317247473 19.956998995591452 4.0638571640830987 #
point $-1 50.434960317247473 22.801654930153102 4.0638571640830987 #
straight-curve $-1 -53.541673024689473 -24.698092219860879 0 0 0 -1 I I #
point $-1 -53.541673024689473 -24.698092219860879 -6.8363523305671627 #
straight-curve $-1 -26.020836512344736 -19.719987595083563 6.8363523305671627 1 0 0 I I #
straight-curve $-1 0 24.698092219860879 6.8363523305671627 -1 0 0 I I #
End-of-ACIS-data 