500 0 9 0           
7 Unknown 11 ACIS 5.0 NT 24 Fri Mar 26 20:11:03 1999 
-1 9.9999999999999995e-007 1e-010 
body $-1 $9 $-1 $10 #
body $-1 $11 $-1 $12 #
body $-1 $13 $-1 $14 #
body $-1 $15 $-1 $16 #
body $-1 $17 $-1 $18 #
body $-1 $19 $-1 $20 #
body $-1 $21 $-1 $22 #
body $-1 $23 $-1 $24 #
body $-1 $25 $-1 $26 #
lump $-1 $-1 $27 $0 #
transform $-1 1 0 0 0 1 0 0 0 1 55.561998352000487 22.376392182765247 9.8055403324652737 1 rotate no_reflect no_shear #
lump $-1 $-1 $28 $1 #
transform $-1 1 0 0 0 1 0 0 0 1 55.561998352000487 22.376392182765247 9.8055403324652737 1 rotate no_reflect no_shear #
lump $-1 $-1 $29 $2 #
transform $-1 1 0 0 0 1 0 0 0 1 55.561998352000487 22.376392182765247 9.8055403324652737 1 rotate no_reflect no_shear #
lump $-1 $-1 $30 $3 #
transform $-1 1 0 0 0 1 0 0 0 1 55.561998352000487 22.376392182765247 9.8055403324652737 1 rotate no_reflect no_shear #
lump $-1 $-1 $31 $4 #
transform $-1 1 0 0 0 1 0 0 0 1 55.561998352000487 22.376392182765247 9.8055403324652737 1 rotate no_reflect no_shear #
lump $-1 $-1 $32 $5 #
transform $-1 1 0 0 0 1 0 0 0 1 55.561998352000487 22.376392182765247 9.8055403324652737 1 rotate no_reflect no_shear #
lump $-1 $-1 $33 $6 #
transform $-1 1 0 0 0 1 0 0 0 1 55.561998352000487 22.376392182765247 9.8055403324652737 1 rotate no_reflect no_shear #
lump $-1 $-1 $34 $7 #
transform $-1 1 0 0 0 1 0 0 0 1 55.561998352000487 22.376392182765247 9.8055403324652737 1 rotate no_reflect no_shear #
lump $-1 $-1 $35 $8 #
transform $-1 1 0 0 0 1 0 0 0 1 55.561998352000487 22.376392182765247 9.8055403324652737 1 rotate no_reflect no_shear #
shell $-1 $-1 $-1 $36 $-1 $9 #
shell $-1 $-1 $-1 $37 $-1 $11 #
shell $-1 $-1 $-1 $38 $-1 $13 #
shell $-1 $-1 $-1 $39 $-1 $15 #
shell $-1 $-1 $-1 $40 $-1 $17 #
shell $-1 $-1 $-1 $41 $-1 $19 #
shell $-1 $-1 $-1 $42 $-1 $21 #
shell $-1 $-1 $-1 $43 $-1 $23 #
shell $-1 $-1 $-1 $44 $-1 $25 #
face $-1 $45 $46 $27 $-1 $47 forward single #
face $-1 $48 $49 $28 $-1 $50 reversed single #
face $-1 $51 $52 $29 $-1 $53 forward single #
face $-1 $54 $55 $30 $-1 $56 forward single #
face $-1 $57 $58 $31 $-1 $59 forward single #
face $-1 $60 $61 $32 $-1 $62 reversed single #
face $-1 $63 $64 $33 $-1 $65 forward single #
face $-1 $66 $67 $34 $-1 $68 forward single #
face $-1 $69 $70 $35 $-1 $71 forward single #
face $-1 $72 $73 $27 $-1 $74 reversed single #
loop $-1 $-1 $75 $36 #
plane-surface $-1 0 0 9.8055403324652737 0 0 1 1 0 0 forward_v I I I I #
face $-1 $76 $77 $28 $-1 $78 reversed single #
loop $-1 $-1 $79 $37 #
plane-surface $-1 63.786756135647408 -4.8093086621447263 161.72817428617572 0 -1 0 -0.74314483375859142 0 -0.66913059716165679 forward_v I I I I #
face $-1 $80 $81 $29 $-1 $82 forward single #
loop $-1 $83 $84 $38 #
cone-surface $-1 52.932637469192059 -14.050441795978411 6.9634468453780567 -0.74314483375859142 0 -0.66913059716165679 0.3345652985808284 0 -0.37157241687929571 1 I I 0 1 0.5 forward I I I I #
face $-1 $85 $86 $30 $-1 $87 forward single #
loop $-1 $88 $89 $39 #
cone-surface $-1 52.932637469192059 -10.585016870790779 6.9634468453780567 -0.74314483375859142 0 -0.66913059716165679 0.3345652985808284 0 -0.37157241687929571 1 I I 0 1 0.5 forward I I I I #
face $-1 $90 $91 $31 $-1 $92 forward single #
loop $-1 $93 $94 $40 #
cone-surface $-1 52.932637469192059 -7.1195919456031476 6.9634468453780567 -0.74314483375859142 0 -0.66913059716165679 0.3345652985808284 0 -0.37157241687929571 1 I I 0 1 0.5 forward I I I I #
face $-1 $95 $96 $32 $-1 $97 reversed single #
loop $-1 $-1 $98 $41 #
plane-surface $-1 -138.14322240918557 -16.360725079436833 79.146950228990647 0 1 0 -0.74314483375859142 0 0.66913059716165679 forward_v I I I I #
face $-1 $99 $100 $33 $-1 $101 forward single #
loop $-1 $102 $103 $42 #
cone-surface $-1 -52.932637469192052 -14.050441795978411 6.9634468453780496 0.74314483375859142 0 -0.66913059716165679 0.3345652985808284 0 0.37157241687929571 1 I I 0 1 0.5 forward I I I I #
face $-1 $104 $105 $34 $-1 $106 forward single #
loop $-1 $107 $108 $43 #
cone-surface $-1 -52.932637469192052 -10.585016870790779 6.9634468453780496 0.74314483375859142 0 -0.66913059716165679 0.3345652985808284 0 0.37157241687929571 1 I I 0 1 0.5 forward I I I I #
face $-1 $109 $110 $35 $-1 $111 forward single #
loop $-1 $112 $113 $44 #
cone-surface $-1 -52.932637469192052 -7.1195919456031476 6.9634468453780496 0.74314483375859142 0 -0.66913059716165679 0.3345652985808284 0 0.37157241687929571 1 I I 0 1 0.5 forward I I I I #
face $-1 $114 $115 $27 $-1 $116 reversed single #
loop $-1 $-1 $117 $45 #
plane-surface $-1 0 0 -9.8055403324652737 0 0 1 1 0 0 forward_v I I I I #
coedge $-1 $118 $119 $120 $121 forward $46 $-1 #
face $-1 $122 $123 $28 $-1 $124 reversed single #
loop $-1 $-1 $125 $48 #
plane-surface $-1 -18.79446792153766 -10.585016870790779 87.371708012637569 0.74314483375859142 0 0.66913059716165679 0.66913059716165679 0 -0.74314483375859142 forward_v I I I I #
coedge $-1 $126 $127 $128 $129 reversed $49 $-1 #
face $-1 $-1 $130 $29 $-1 $131 forward single #
loop $-1 $132 $133 $51 #
cone-surface $-1 52.375278843873119 -14.050441795978411 6.4615988975068142 -0.74314483375859142 0 -0.66913059716165679 0.1672826492904142 0 -0.18578620843964785 1 I I -0.70710678118654746 0.70710678118654746 0.25 forward I I I I #
loop $-1 $-1 $134 $38 #
coedge $-1 $84 $84 $135 $136 reversed $52 $-1 #
face $-1 $-1 $137 $30 $-1 $138 forward single #
loop $-1 $139 $140 $54 #
cone-surface $-1 52.375278843873119 -10.585016870790779 6.4615988975068142 -0.74314483375859142 0 -0.66913059716165679 0.1672826492904142 0 -0.18578620843964785 1 I I -0.70710678118654746 0.70710678118654746 0.25 forward I I I I #
loop $-1 $-1 $141 $39 #
coedge $-1 $89 $89 $142 $143 reversed $55 $-1 #
face $-1 $-1 $144 $31 $-1 $145 forward single #
loop $-1 $146 $147 $57 #
cone-surface $-1 52.375278843873119 -7.1195919456031476 6.4615988975068142 -0.74314483375859142 0 -0.66913059716165679 0.1672826492904142 0 -0.18578620843964785 1 I I -0.70710678118654746 0.70710678118654746 0.25 forward I I I I #
loop $-1 $-1 $148 $40 #
coedge $-1 $94 $94 $149 $150 reversed $58 $-1 #
face $-1 $151 $152 $32 $-1 $153 reversed single #
loop $-1 $-1 $154 $60 #
plane-surface $-1 -55.561998352000501 -10.585016870790779 4.7904839554525012 -0.74314483375859142 0 0.66913059716165679 0.66913059716165679 0 0.74314483375859142 forward_v I I I I #
coedge $-1 $155 $156 $157 $158 reversed $61 $-1 #
face $-1 $-1 $159 $33 $-1 $160 forward single #
loop $-1 $161 $162 $63 #
cone-surface $-1 -52.375278843873112 -14.050441795978411 6.461598897506807 0.74314483375859142 0 -0.66913059716165679 0.1672826492904142 0 0.18578620843964785 1 I I -0.70710678118654746 0.70710678118654746 0.25 forward I I I I #
loop $-1 $-1 $163 $42 #
coedge $-1 $103 $103 $164 $165 reversed $64 $-1 #
face $-1 $-1 $166 $34 $-1 $167 forward single #
loop $-1 $168 $169 $66 #
cone-surface $-1 -52.375278843873112 -10.585016870790779 6.461598897506807 0.74314483375859142 0 -0.66913059716165679 0.1672826492904142 0 0.18578620843964785 1 I I -0.70710678118654746 0.70710678118654746 0.25 forward I I I I #
loop $-1 $-1 $170 $43 #
coedge $-1 $108 $108 $171 $172 reversed $67 $-1 #
face $-1 $-1 $173 $35 $-1 $174 forward single #
loop $-1 $175 $176 $69 #
cone-surface $-1 -52.375278843873112 -7.1195919456031476 6.461598897506807 0.74314483375859142 0 -0.66913059716165679 0.1672826492904142 0 0.18578620843964785 1 I I -0.70710678118654746 0.70710678118654746 0.25 forward I I I I #
loop $-1 $-1 $177 $44 #
coedge $-1 $113 $113 $178 $179 reversed $70 $-1 #
face $-1 $180 $181 $27 $-1 $182 reversed single #
loop $-1 $-1 $183 $72 #
plane-surface $-1 0 -22.376392182765247 0 0 1 0 0 0 1 forward_v I I I I #
coedge $-1 $184 $185 $186 $187 forward $73 $-1 #
coedge $-1 $188 $75 $189 $190 forward $46 $-1 #
coedge $-1 $75 $188 $191 $192 forward $46 $-1 #
coedge $-1 $193 $194 $75 $121 reversed $195 $-1 #
edge $-1 $196 -22.376392182765247 $197 22.376392182765247 $120 $198 forward 7 unknown #
face $-1 $199 $200 $28 $-1 $201 forward single #
loop $-1 $-1 $202 $76 #
plane-surface $-1 63.786756135647408 -16.360725079436833 161.72817428617572 0 1 0 0.74314483375859142 0 0.66913059716165679 forward_v I I I I #
coedge $-1 $203 $204 $205 $206 reversed $77 $-1 #
coedge $-1 $127 $79 $207 $208 reversed $49 $-1 #
coedge $-1 $79 $126 $203 $209 reversed $49 $-1 #
coedge $-1 $205 $210 $79 $129 forward $200 $-1 #
edge $-1 $211 -23.668620284176782 $212 -19.153043352318534 $128 $213 forward 7 unknown #
loop $-1 $-1 $135 $80 #
plane-surface $-1 -18.79446792153766 -10.585016870790779 87.371708012637569 0.74314483375859142 0 0.66913059716165679 0.66913059716165679 0 -0.74314483375859142 forward_v I I I I #
loop $-1 $-1 $214 $51 #
coedge $-1 $133 $133 $134 $215 reversed $81 $-1 #
coedge $-1 $134 $134 $133 $215 forward $83 $-1 #
coedge $-1 $135 $135 $84 $136 forward $130 $-1 #
edge $-1 $216 0 $216 6.2831853071796004 $135 $217 forward 7 unknown #
loop $-1 $-1 $142 $85 #
plane-surface $-1 -18.79446792153766 -10.585016870790779 87.371708012637569 0.74314483375859142 0 0.66913059716165679 0.66913059716165679 0 -0.74314483375859142 forward_v I I I I #
loop $-1 $-1 $218 $54 #
coedge $-1 $140 $140 $141 $219 reversed $86 $-1 #
coedge $-1 $141 $141 $140 $219 forward $88 $-1 #
coedge $-1 $142 $142 $89 $143 forward $137 $-1 #
edge $-1 $220 0 $220 6.2831853071796004 $142 $221 forward 7 unknown #
loop $-1 $-1 $149 $90 #
plane-surface $-1 -18.79446792153766 -10.585016870790779 87.371708012637569 0.74314483375859142 0 0.66913059716165679 0.66913059716165679 0 -0.74314483375859142 forward_v I I I I #
loop $-1 $-1 $222 $57 #
coedge $-1 $147 $147 $148 $223 reversed $91 $-1 #
coedge $-1 $148 $148 $147 $223 forward $93 $-1 #
coedge $-1 $149 $149 $94 $150 forward $144 $-1 #
edge $-1 $224 0 $224 6.2831853071796004 $149 $225 forward 7 unknown #
face $-1 $226 $227 $32 $-1 $228 reversed single #
loop $-1 $-1 $229 $95 #
plane-surface $-1 -138.14322240918557 -4.8093086621447263 79.146950228990647 0 -1 0 0.74314483375859142 0 -0.66913059716165679 forward_v I I I I #
coedge $-1 $230 $231 $232 $233 reversed $96 $-1 #
coedge $-1 $156 $98 $234 $235 reversed $61 $-1 #
coedge $-1 $98 $155 $230 $236 reversed $61 $-1 #
coedge $-1 $232 $237 $98 $158 forward $238 $-1 #
edge $-1 $239 13.509612852592298 $240 18.025189784450532 $157 $241 forward 7 unknown #
loop $-1 $-1 $164 $99 #
plane-surface $-1 -55.561998352000501 -10.585016870790779 4.7904839554525012 -0.74314483375859142 0 0.66913059716165679 0.66913059716165679 0 0.74314483375859142 forward_v I I I I #
loop $-1 $-1 $242 $63 #
coedge $-1 $162 $162 $163 $243 reversed $100 $-1 #
coedge $-1 $163 $163 $162 $243 forward $102 $-1 #
coedge $-1 $164 $164 $103 $165 forward $159 $-1 #
edge $-1 $244 0 $244 6.2831853071796004 $164 $245 forward 7 unknown #
loop $-1 $-1 $171 $104 #
plane-surface $-1 -55.561998352000501 -10.585016870790779 4.7904839554525012 -0.74314483375859142 0 0.66913059716165679 0.66913059716165679 0 0.74314483375859142 forward_v I I I I #
loop $-1 $-1 $246 $66 #
coedge $-1 $169 $169 $170 $247 reversed $105 $-1 #
coedge $-1 $170 $170 $169 $247 forward $107 $-1 #
coedge $-1 $171 $171 $108 $172 forward $166 $-1 #
edge $-1 $248 0 $248 6.2831853071796004 $171 $249 forward 7 unknown #
loop $-1 $-1 $178 $109 #
plane-surface $-1 -55.561998352000501 -10.585016870790779 4.7904839554525012 -0.74314483375859142 0 0.66913059716165679 0.66913059716165679 0 0.74314483375859142 forward_v I I I I #
loop $-1 $-1 $250 $69 #
coedge $-1 $176 $176 $177 $251 reversed $110 $-1 #
coedge $-1 $177 $177 $176 $251 forward $112 $-1 #
coedge $-1 $178 $178 $113 $179 forward $173 $-1 #
edge $-1 $252 0 $252 6.2831853071796004 $178 $253 forward 7 unknown #
face $-1 $254 $255 $27 $-1 $256 reversed single #
loop $-1 $-1 $257 $114 #
plane-surface $-1 -55.561998352000487 0 0 1 0 0 0 0 -1 forward_v I I I I #
coedge $-1 $258 $191 $259 $260 forward $115 $-1 #
coedge $-1 $261 $117 $258 $262 forward $73 $-1 #
coedge $-1 $117 $261 $263 $264 forward $73 $-1 #
coedge $-1 $194 $193 $117 $187 reversed $195 $-1 #
edge $-1 $265 -22.376392182765247 $266 22.376392182765247 $186 $267 forward 7 unknown #
coedge $-1 $119 $118 $268 $269 forward $46 $-1 #
coedge $-1 $270 $271 $118 $190 reversed $255 $-1 #
edge $-1 $197 -55.561998352000487 $272 55.561998352000487 $189 $273 forward 7 unknown #
coedge $-1 $183 $274 $119 $192 reversed $115 $-1 #
edge $-1 $275 -55.561998352000487 $196 55.561998352000487 $191 $276 forward 7 unknown #
coedge $-1 $186 $120 $274 $277 forward $195 $-1 #
coedge $-1 $120 $186 $270 $278 reversed $195 $-1 #
loop $-1 $-1 $193 $254 #
vertex $-1 $121 $279 #
vertex $-1 $121 $280 #
straight-curve $-1 55.561998352000487 0 9.8055403324652737 0 1 0 I I #
face $-1 $-1 $281 $28 $-1 $282 reversed single #
loop $-1 $-1 $128 $122 #
plane-surface $-1 0 0 9.8055403324652737 0 0 1 1 0 0 forward_v I I I I #
coedge $-1 $283 $284 $285 $286 reversed $123 $-1 #
coedge $-1 $287 $125 $127 $209 forward $77 $-1 #
coedge $-1 $125 $287 $283 $288 forward $77 $-1 #
coedge $-1 $285 $128 $125 $206 forward $200 $-1 #
edge $-1 $212 -0.48319977325066343 $289 11.068216644041442 $205 $290 forward 7 unknown #
coedge $-1 $291 $292 $126 $208 forward $281 $-1 #
edge $-1 $293 -76.073603187635342 $211 -71.058546810622587 $207 $294 forward 7 unknown #
edge $-1 $212 104.37557277747213 $293 111.12399670400094 $127 $295 forward 7 unknown #
coedge $-1 $128 $285 $291 $296 forward $200 $-1 #
vertex $-1 $208 $297 #
vertex $-1 $129 $298 #
straight-curve $-1 31.893378067823704 -4.8093086621447263 9.8055403324652701 -1 0 0 I I #
coedge $-1 $214 $214 $-1 $299 reversed $132 $-1 #
edge $-1 $300 0 $300 6.2831853071796004 $133 $301 forward 7 unknown #
vertex $-1 $136 $302 #
ellipse-curve $-1 53.304209886071362 -14.050441795978411 7.2980121439588901 0.74314483375859142 0 0.66913059716165679 0.3345652985808284 0 -0.37157241687929571 1 I I #
coedge $-1 $218 $218 $-1 $303 reversed $139 $-1 #
edge $-1 $304 0 $304 6.2831853071796004 $140 $305 forward 7 unknown #
vertex $-1 $143 $306 #
ellipse-curve $-1 53.304209886071362 -10.585016870790779 7.2980121439588901 0.74314483375859142 0 0.66913059716165679 0.3345652985808284 0 -0.37157241687929571 1 I I #
coedge $-1 $222 $222 $-1 $307 reversed $146 $-1 #
edge $-1 $308 0 $308 6.2831853071796004 $147 $309 forward 7 unknown #
vertex $-1 $150 $310 #
ellipse-curve $-1 53.304209886071362 -7.1195919456031476 7.2980121439588901 0.74314483375859142 0 0.66913059716165679 0.3345652985808284 0 -0.37157241687929571 1 I I #
face $-1 $-1 $238 $32 $-1 $311 forward single #
loop $-1 $-1 $312 $151 #
plane-surface $-1 -55.561998352000487 0 0 1 0 0 0 0 -1 forward_v I I I I #
coedge $-1 $313 $314 $315 $316 reversed $152 $-1 #
coedge $-1 $317 $154 $156 $236 forward $96 $-1 #
coedge $-1 $154 $317 $313 $318 forward $96 $-1 #
coedge $-1 $315 $157 $154 $233 forward $238 $-1 #
edge $-1 $240 -11.068216644041442 $319 0.48319977325066343 $232 $320 forward 7 unknown #
coedge $-1 $321 $322 $155 $235 forward $227 $-1 #
edge $-1 $323 -34.782991159042808 $239 -29.76793478203005 $234 $324 forward 7 unknown #
edge $-1 $240 -6.7484239265288331 $323 -2.1389731374768986e-014 $156 $325 forward 7 unknown #
coedge $-1 $157 $315 $321 $326 forward $238 $-1 #
loop $-1 $-1 $315 $226 #
vertex $-1 $235 $327 #
vertex $-1 $158 $328 #
straight-curve $-1 -69.071611204592784 -16.360725079436833 9.8055403324652772 1 0 0 I I #
coedge $-1 $242 $242 $-1 $329 reversed $161 $-1 #
edge $-1 $330 0 $330 6.2831853071796004 $162 $331 forward 7 unknown #
vertex $-1 $165 $332 #
ellipse-curve $-1 -53.304209886071369 -14.050441795978411 7.2980121439588954 -0.74314483375859142 0 0.66913059716165679 0.3345652985808284 0 0.37157241687929571 1 I I #
coedge $-1 $246 $246 $-1 $333 reversed $168 $-1 #
edge $-1 $334 0 $334 6.2831853071796004 $169 $335 forward 7 unknown #
vertex $-1 $172 $336 #
ellipse-curve $-1 -53.304209886071369 -10.585016870790779 7.2980121439588954 -0.74314483375859142 0 0.66913059716165679 0.3345652985808284 0 0.37157241687929571 1 I I #
coedge $-1 $250 $250 $-1 $337 reversed $175 $-1 #
edge $-1 $338 0 $338 6.2831853071796004 $176 $339 forward 7 unknown #
vertex $-1 $179 $340 #
ellipse-curve $-1 -53.304209886071369 -7.1195919456031476 7.2980121439588954 -0.74314483375859142 0 0.66913059716165679 0.3345652985808284 0 0.37157241687929571 1 I I #
face $-1 $-1 $195 $27 $-1 $341 reversed single #
loop $-1 $-1 $270 $180 #
plane-surface $-1 0 22.376392182765247 0 0 -1 0 0 0 -1 forward_v I I I I #
coedge $-1 $342 $268 $271 $343 forward $181 $-1 #
coedge $-1 $274 $183 $184 $262 reversed $115 $-1 #
coedge $-1 $268 $342 $183 $260 reversed $181 $-1 #
edge $-1 $275 -9.8055403324652737 $344 9.8055403324652737 $259 $345 forward 7 unknown #
coedge $-1 $185 $184 $342 $346 forward $73 $-1 #
edge $-1 $266 -55.561998352000487 $344 55.561998352000487 $258 $347 forward 7 unknown #
coedge $-1 $271 $270 $185 $264 reversed $255 $-1 #
edge $-1 $348 -55.561998352000487 $265 55.561998352000487 $263 $349 forward 7 unknown #
vertex $-1 $187 $350 #
vertex $-1 $277 $351 #
straight-curve $-1 55.561998352000487 0 -9.8055403324652737 0 -1 0 I I #
coedge $-1 $257 $259 $188 $269 reversed $181 $-1 #
edge $-1 $272 -22.376392182765247 $275 22.376392182765247 $268 $352 forward 7 unknown #
coedge $-1 $263 $189 $194 $278 forward $255 $-1 #
coedge $-1 $189 $263 $257 $343 reversed $255 $-1 #
vertex $-1 $190 $353 #
straight-curve $-1 0 22.376392182765247 9.8055403324652737 -1 0 0 I I #
coedge $-1 $191 $258 $193 $277 reversed $115 $-1 #
vertex $-1 $269 $354 #
straight-curve $-1 0 -22.376392182765247 9.8055403324652737 1 0 0 I I #
edge $-1 $196 -9.8055403324652737 $266 9.8055403324652737 $193 $355 forward 7 unknown #
edge $-1 $197 -9.8055403324652737 $265 9.8055403324652737 $194 $356 forward 7 unknown #
point $-1 55.561998352000487 -22.376392182765247 9.8055403324652737 #
point $-1 55.561998352000487 22.376392182765247 9.8055403324652737 #
loop $-1 $-1 $207 $199 #
plane-surface $-1 55.561998352000487 0 0 -1 0 0 0 0 1 forward_v I I I I #
coedge $-1 $284 $202 $204 $288 reversed $123 $-1 #
coedge $-1 $202 $283 $357 $358 reversed $123 $-1 #
coedge $-1 $210 $205 $202 $286 forward $200 $-1 #
edge $-1 $289 19.153043352318534 $359 23.668620284176782 $285 $360 forward 7 unknown #
coedge $-1 $204 $203 $292 $361 reversed $77 $-1 #
edge $-1 $362 -111.12399670400094 $289 -104.37557277747213 $283 $363 forward 7 unknown #
vertex $-1 $206 $364 #
straight-curve $-1 51.046421420142252 -5.2925084353953897 9.805540332465263 0 -1 0 I I #
coedge $-1 $357 $207 $210 $296 reversed $281 $-1 #
coedge $-1 $207 $357 $287 $361 forward $281 $-1 #
vertex $-1 $208 $365 #
straight-curve $-1 55.561998352000487 -4.8093086621447263 80.864087143087858 0 0 1 I I #
straight-curve $-1 -18.79446792153766 -4.8093086621447263 87.371708012637569 0.66913059716165679 0 -0.74314483375859142 I I #
edge $-1 $359 -16.360725079436833 $211 -4.8093086621447263 $291 $366 forward 7 unknown #
point $-1 55.561998352000487 -4.8093086621447263 9.8055403324652737 #
point $-1 51.046421420142238 -4.8093086621447263 9.8055403324652701 #
edge $-1 $367 1 $367 0 $214 $-1 forward 7 unknown #
vertex $-1 $215 $368 #
ellipse-curve $-1 52.561065052312763 -14.050441795978411 6.6288815467972286 0.74314483375859142 0 0.66913059716165679 0.3345652985808284 0 -0.37157241687929571 1 I I #
point $-1 53.638775184652189 -14.050441795978411 6.9264397270795897 #
edge $-1 $369 1 $369 0 $218 $-1 forward 7 unknown #
vertex $-1 $219 $370 #
ellipse-curve $-1 52.561065052312763 -10.585016870790779 6.6288815467972286 0.74314483375859142 0 0.66913059716165679 0.3345652985808284 0 -0.37157241687929571 1 I I #
point $-1 53.638775184652189 -10.585016870790779 6.9264397270795897 #
edge $-1 $371 1 $371 0 $222 $-1 forward 7 unknown #
vertex $-1 $223 $372 #
ellipse-curve $-1 52.561065052312763 -7.1195919456031476 6.6288815467972286 0.74314483375859142 0 0.66913059716165679 0.3345652985808284 0 -0.37157241687929571 1 I I #
point $-1 53.638775184652189 -7.1195919456031476 6.9264397270795897 #
plane-surface $-1 0 0 9.8055403324652737 0 0 1 1 0 0 forward_v I I I I #
coedge $-1 $322 $321 $314 $373 forward $227 $-1 #
coedge $-1 $314 $229 $231 $318 reversed $152 $-1 #
coedge $-1 $229 $313 $312 $373 reversed $152 $-1 #
coedge $-1 $237 $232 $229 $316 forward $238 $-1 #
edge $-1 $319 -18.025189784450532 $374 -13.509612852592298 $315 $375 forward 7 unknown #
coedge $-1 $231 $230 $322 $376 reversed $96 $-1 #
edge $-1 $377 2.1389731374768986e-014 $319 6.7484239265288331 $313 $378 forward 7 unknown #
vertex $-1 $233 $379 #
straight-curve $-1 -51.046421420142245 -5.2925084353953897 9.8055403324652755 0 1 0 I I #
coedge $-1 $312 $234 $237 $326 reversed $227 $-1 #
coedge $-1 $234 $312 $317 $376 forward $227 $-1 #
vertex $-1 $235 $380 #
straight-curve $-1 -55.561998352000487 -16.360725079436833 39.573475114495324 0 0 1 I I #
straight-curve $-1 -55.561998352000501 -16.360725079436833 4.7904839554525012 -0.66913059716165679 0 -0.74314483375859142 I I #
edge $-1 $374 4.8093086621447263 $239 16.360725079436833 $321 $381 forward 7 unknown #
point $-1 -55.561998352000487 -16.360725079436833 9.8055403324652737 #
point $-1 -51.046421420142252 -16.360725079436833 9.8055403324652737 #
edge $-1 $382 1 $382 0 $242 $-1 forward 7 unknown #
vertex $-1 $243 $383 #
ellipse-curve $-1 -52.561065052312756 -14.050441795978411 6.6288815467972215 -0.74314483375859142 0 0.66913059716165679 0.3345652985808284 0 0.37157241687929571 1 I I #
point $-1 -52.969644587490521 -14.050441795978411 7.6695845608381736 #
edge $-1 $384 1 $384 0 $246 $-1 forward 7 unknown #
vertex $-1 $247 $385 #
ellipse-curve $-1 -52.561065052312756 -10.585016870790779 6.6288815467972215 -0.74314483375859142 0 0.66913059716165679 0.3345652985808284 0 0.37157241687929571 1 I I #
point $-1 -52.969644587490521 -10.585016870790779 7.6695845608381736 #
edge $-1 $386 1 $386 0 $250 $-1 forward 7 unknown #
vertex $-1 $251 $387 #
ellipse-curve $-1 -52.561065052312756 -7.1195919456031476 6.6288815467972215 -0.74314483375859142 0 0.66913059716165679 0.3345652985808284 0 0.37157241687929571 1 I I #
point $-1 -52.969644587490521 -7.1195919456031476 7.6695845608381736 #
plane-surface $-1 55.561998352000487 0 0 -1 0 0 0 0 1 forward_v I I I I #
coedge $-1 $259 $257 $261 $346 reversed $181 $-1 #
edge $-1 $272 -9.8055403324652737 $348 9.8055403324652737 $271 $388 forward 7 unknown #
vertex $-1 $346 $389 #
straight-curve $-1 -55.561998352000487 -22.376392182765247 0 0 0 -1 I I #
edge $-1 $344 -22.376392182765247 $348 22.376392182765247 $342 $390 forward 7 unknown #
straight-curve $-1 0 -22.376392182765247 -9.8055403324652737 -1 0 0 I I #
vertex $-1 $264 $391 #
straight-curve $-1 0 22.376392182765247 -9.8055403324652737 1 0 0 I I #
point $-1 55.561998352000487 22.376392182765247 -9.8055403324652737 #
point $-1 55.561998352000487 -22.376392182765247 -9.8055403324652737 #
straight-curve $-1 -55.561998352000487 0 9.8055403324652737 0 -1 0 I I #
point $-1 -55.561998352000487 22.376392182765247 9.8055403324652737 #
point $-1 -55.561998352000487 -22.376392182765247 9.8055403324652737 #
straight-curve $-1 55.561998352000487 -22.376392182765247 0 0 0 -1 I I #
straight-curve $-1 55.561998352000487 22.376392182765247 0 0 0 -1 I I #
coedge $-1 $292 $291 $284 $358 forward $281 $-1 #
edge $-1 $359 71.058546810622587 $362 76.073603187635342 $357 $392 forward 7 unknown #
vertex $-1 $296 $393 #
straight-curve $-1 31.893378067823704 -16.360725079436833 9.8055403324652701 1 0 0 I I #
edge $-1 $362 -11.068216644041442 $293 0.48319977325066343 $292 $394 forward 7 unknown #
vertex $-1 $361 $395 #
straight-curve $-1 -18.79446792153766 -16.360725079436833 87.371708012637569 -0.66913059716165679 0 0.74314483375859142 I I #
point $-1 51.046421420142238 -16.360725079436833 9.8055403324652701 #
point $-1 55.561998352000487 -4.8093086621447263 4.7904839554525154 #
straight-curve $-1 55.561998352000487 0 9.8055403324652737 0 1 0 I I #
vertex $-1 $299 $396 #
point $-1 52.895630350893597 -14.050441795978411 6.2573091299179326 #
vertex $-1 $303 $397 #
point $-1 52.895630350893597 -10.585016870790779 6.2573091299179326 #
vertex $-1 $307 $398 #
point $-1 52.895630350893597 -7.1195919456031476 6.2573091299179326 #
edge $-1 $374 29.76793478203005 $377 34.782991159042808 $312 $399 forward 7 unknown #
vertex $-1 $326 $400 #
straight-curve $-1 -69.071611204592784 -4.8093086621447263 9.8055403324652772 -1 0 0 I I #
edge $-1 $377 -0.48319977325066343 $323 11.068216644041442 $322 $401 forward 7 unknown #
vertex $-1 $376 $402 #
straight-curve $-1 -55.561998352000501 -4.8093086621447263 4.7904839554525012 0.66913059716165679 0 0.74314483375859142 I I #
point $-1 -51.046421420142252 -4.8093086621447263 9.8055403324652737 #
point $-1 -55.561998352000487 -16.360725079436833 4.7904839554525172 #
straight-curve $-1 -55.561998352000487 0 9.8055403324652737 0 -1 0 I I #
vertex $-1 $329 $403 #
point $-1 -52.226499753731929 -14.050441795978411 7.0004539636765166 #
vertex $-1 $333 $404 #
point $-1 -52.226499753731929 -10.585016870790779 7.0004539636765166 #
vertex $-1 $337 $405 #
point $-1 -52.226499753731929 -7.1195919456031476 7.0004539636765166 #
straight-curve $-1 -55.561998352000487 22.376392182765247 0 0 0 -1 I I #
point $-1 -55.561998352000487 -22.376392182765247 -9.8055403324652737 #
straight-curve $-1 -55.561998352000487 0 -9.8055403324652737 0 1 0 I I #
point $-1 -55.561998352000487 22.376392182765247 -9.8055403324652737 #
straight-curve $-1 55.561998352000487 -16.360725079436833 80.864087143087858 0 0 -1 I I #
point $-1 55.561998352000487 -16.360725079436833 9.8055403324652737 #
straight-curve $-1 55.561998352000494 -5.2925084353953897 4.7904839554525154 0 1 0 I I #
point $-1 55.561998352000487 -16.360725079436833 4.7904839554525154 #
point $-1 52.189492635433474 -14.050441795978411 6.2943162482163997 #
point $-1 52.189492635433474 -10.585016870790779 6.2943162482163997 #
point $-1 52.189492635433474 -7.1195919456031476 6.2943162482163997 #
straight-curve $-1 -55.561998352000487 -4.8093086621447263 39.573475114495324 0 0 -1 I I #
point $-1 -55.561998352000487 -4.8093086621447263 9.8055403324652737 #
straight-curve $-1 -55.561998352000487 -5.2925084353953897 4.7904839554525172 0 -1 0 I I #
point $-1 -55.561998352000487 -4.8093086621447263 4.7904839554525172 #
point $-1 -52.189492635433467 -14.050441795978411 6.2943162482163926 #
point $-1 -52.189492635433467 -10.585016870790779 6.2943162482163926 #
point $-1 -52.189492635433467 -7.1195919456031476 6.2943162482163926 #
End-of-ACIS-data 