500 0 6 0           
7 Unknown 11 ACIS 5.0 NT 24 Fri Mar 26 02:36:14 1999 
-1 9.9999999999999995e-007 1e-010 
body $-1 $6 $-1 $7 #
body $-1 $8 $-1 $9 #
body $-1 $10 $-1 $11 #
body $-1 $12 $-1 $13 #
body $-1 $14 $-1 $15 #
body $-1 $16 $-1 $17 #
lump $-1 $-1 $18 $0 #
transform $-1 1 0 0 0 1 0 0 0 1 49.524216437269203 25.018593692721474 10.074857192749691 1 rotate no_reflect no_shear #
lump $-1 $-1 $19 $1 #
transform $-1 1 0 0 0 1 0 0 0 1 49.524216437269203 25.018593692721474 10.074857192749691 1 rotate no_reflect no_shear #
lump $-1 $-1 $20 $2 #
transform $-1 1 0 0 0 1 0 0 0 1 49.524216437269203 25.018593692721474 10.074857192749691 1 rotate no_reflect no_shear #
lump $-1 $-1 $21 $3 #
transform $-1 1 0 0 0 1 0 0 0 1 49.524216437269203 25.018593692721474 10.074857192749691 1 rotate no_reflect no_shear #
lump $-1 $-1 $22 $4 #
transform $-1 1 0 0 0 1 0 0 0 1 49.524216437269203 25.018593692721474 10.074857192749691 1 rotate no_reflect no_shear #
lump $-1 $-1 $23 $5 #
transform $-1 1 0 0 0 1 0 0 0 1 49.524216437269203 25.018593692721474 10.074857192749691 1 rotate no_reflect no_shear #
shell $-1 $-1 $-1 $24 $-1 $6 #
shell $-1 $-1 $-1 $25 $-1 $8 #
shell $-1 $-1 $-1 $26 $-1 $10 #
shell $-1 $-1 $-1 $27 $-1 $12 #
shell $-1 $-1 $-1 $28 $-1 $14 #
shell $-1 $-1 $-1 $29 $-1 $16 #
face $-1 $30 $31 $18 $-1 $32 forward single #
face $-1 $33 $34 $19 $-1 $35 reversed single #
face $-1 $36 $37 $20 $-1 $38 reversed single #
face $-1 $39 $40 $21 $-1 $41 forward single #
face $-1 $42 $43 $22 $-1 $44 reversed single #
face $-1 $45 $46 $23 $-1 $47 forward single #
face $-1 $48 $49 $18 $-1 $50 reversed single #
loop $-1 $-1 $51 $24 #
plane-surface $-1 0 0 10.074857192749691 0 0 1 1 0 0 forward_v I I I I #
face $-1 $52 $53 $19 $-1 $54 reversed single #
loop $-1 $-1 $55 $25 #
plane-surface $-1 -48.024216437269203 -15.07502602972135 0 0 -1 0 0 0 -1 forward_v I I I I #
face $-1 $56 $57 $20 $-1 $58 reversed single #
loop $-1 $-1 $59 $26 #
plane-surface $-1 -21.270762048094369 77.454169726839098 99.340889653144941 1 0 0 0 -0.81915205242281985 -0.57357642473473569 forward_v I I I I #
face $-1 $60 $61 $21 $-1 $62 forward single #
loop $-1 $63 $64 $27 #
cone-surface $-1 -10.635381024047184 20.343604345539831 4.6264953778390279 0 -0.81915205242281985 -0.57357642473473569 1.5 0 0 1 I I 0 1 1.5 forward I I I I #
face $-1 $65 $66 $22 $-1 $67 reversed single #
loop $-1 $-1 $68 $28 #
plane-surface $-1 28.253454389174841 77.454169726839098 99.340889653144941 1 0 0 0 -0.81915205242281985 -0.57357642473473569 forward_v I I I I #
face $-1 $69 $70 $23 $-1 $71 forward single #
loop $-1 $72 $73 $29 #
cone-surface $-1 38.888835413222026 20.343604345539831 4.6264953778390279 0 -0.81915205242281985 -0.57357642473473569 1.5 0 0 1 I I 0 1 1.5 forward I I I I #
face $-1 $74 $75 $18 $-1 $76 reversed single #
loop $-1 $-1 $77 $30 #
plane-surface $-1 0 0 -10.074857192749691 0 0 1 1 0 0 forward_v I I I I #
coedge $-1 $78 $79 $80 $81 forward $31 $-1 #
face $-1 $82 $83 $19 $-1 $84 forward single #
loop $-1 $-1 $85 $33 #
plane-surface $-1 -46.524216437269203 -20.046809861221412 0 -1 0 0 0 0 1 forward_v I I I I #
coedge $-1 $86 $87 $88 $89 forward $34 $-1 #
face $-1 $90 $91 $20 $-1 $92 reversed single #
loop $-1 $-1 $93 $36 #
plane-surface $-1 -10.635381024047184 -3.6815573516029332 42.52904364938874 0 0.81915205242281985 0.57357642473473569 1 0 0 forward_v I I I I #
coedge $-1 $94 $95 $96 $97 reversed $37 $-1 #
face $-1 $-1 $98 $21 $-1 $99 forward single #
loop $-1 $100 $101 $39 #
cone-surface $-1 -10.635381024047184 18.041993822440013 3.0148903881831881 0 -0.81915205242281985 -0.57357642473473569 0.75 0 0 1 I I -0.70710678118654757 0.70710678118654757 0.75 forward I I I I #
loop $-1 $-1 $102 $27 #
coedge $-1 $64 $64 $103 $104 reversed $40 $-1 #
face $-1 $105 $106 $22 $-1 $107 forward single #
loop $-1 $-1 $108 $42 #
plane-surface $-1 38.888835413222026 -3.6815573516029332 42.52904364938874 0 0.81915205242281985 0.57357642473473569 1 0 0 forward_v I I I I #
coedge $-1 $109 $110 $111 $112 reversed $43 $-1 #
face $-1 $-1 $113 $23 $-1 $114 forward single #
loop $-1 $115 $116 $45 #
cone-surface $-1 38.888835413222026 18.041993822440013 3.0148903881831881 0 -0.81915205242281985 -0.57357642473473569 0.75 0 0 1 I I -0.70710678118654757 0.70710678118654757 0.75 forward I I I I #
loop $-1 $-1 $117 $29 #
coedge $-1 $73 $73 $118 $119 reversed $46 $-1 #
face $-1 $120 $121 $18 $-1 $122 reversed single #
loop $-1 $-1 $123 $48 #
plane-surface $-1 0 -25.018593692721474 0 0 1 0 0 0 1 forward_v I I I I #
coedge $-1 $124 $125 $126 $127 forward $49 $-1 #
coedge $-1 $128 $51 $129 $130 forward $31 $-1 #
coedge $-1 $51 $128 $131 $132 forward $31 $-1 #
coedge $-1 $133 $134 $51 $81 reversed $135 $-1 #
edge $-1 $136 -25.018593692721474 $137 25.018593692721474 $80 $138 forward 7 unknown #
face $-1 $139 $140 $19 $-1 $141 reversed single #
loop $-1 $-1 $142 $52 #
plane-surface $-1 0 0 10.074857192749691 0 0 1 1 0 0 forward_v I I I I #
coedge $-1 $143 $144 $145 $146 reversed $53 $-1 #
coedge $-1 $147 $55 $148 $149 reversed $34 $-1 #
coedge $-1 $55 $147 $150 $151 reversed $34 $-1 #
coedge $-1 $144 $143 $55 $89 reversed $53 $-1 #
edge $-1 $152 -10.074857192749691 $153 10.074857192749691 $88 $154 forward 7 unknown #
face $-1 $155 $156 $20 $-1 $157 reversed single #
loop $-1 $-1 $158 $56 #
plane-surface $-1 0 77.454169726839098 99.340889653144941 -1 0 0 0 0.81915205242281985 0.57357642473473569 forward_v I I I I #
coedge $-1 $159 $160 $161 $162 reversed $57 $-1 #
coedge $-1 $95 $59 $163 $164 reversed $37 $-1 #
coedge $-1 $59 $94 $159 $165 reversed $37 $-1 #
coedge $-1 $161 $166 $59 $97 forward $167 $-1 #
edge $-1 $168 13.708491170698075 $169 19.683976897495977 $96 $170 forward 7 unknown #
loop $-1 $-1 $103 $60 #
plane-surface $-1 -10.635381024047184 -3.6815573516029332 42.52904364938874 0 0.81915205242281985 0.57357642473473569 1 0 0 forward_v I I I I #
loop $-1 $-1 $171 $39 #
coedge $-1 $101 $101 $102 $172 reversed $61 $-1 #
coedge $-1 $102 $102 $101 $172 forward $63 $-1 #
coedge $-1 $103 $103 $64 $104 forward $98 $-1 #
edge $-1 $173 -5.7962686500984467e-016 $173 6.2831853071795996 $103 $174 forward 7 unknown #
face $-1 $175 $176 $22 $-1 $177 reversed single #
loop $-1 $-1 $111 $65 #
plane-surface $-1 0 0 10.074857192749691 0 0 1 1 0 0 forward_v I I I I #
coedge $-1 $178 $179 $180 $181 reversed $66 $-1 #
coedge $-1 $110 $68 $182 $183 reversed $43 $-1 #
coedge $-1 $68 $109 $178 $184 reversed $43 $-1 #
coedge $-1 $180 $185 $68 $112 forward $106 $-1 #
edge $-1 $186 13.708491170698075 $187 19.683976897495977 $111 $188 forward 7 unknown #
loop $-1 $-1 $118 $69 #
plane-surface $-1 38.888835413222026 -3.6815573516029332 42.52904364938874 0 0.81915205242281985 0.57357642473473569 1 0 0 forward_v I I I I #
loop $-1 $-1 $189 $45 #
coedge $-1 $116 $116 $117 $190 reversed $70 $-1 #
coedge $-1 $117 $117 $116 $190 forward $72 $-1 #
coedge $-1 $118 $118 $73 $119 forward $113 $-1 #
edge $-1 $191 -5.7962686500984467e-016 $191 6.2831853071795996 $118 $192 forward 7 unknown #
face $-1 $193 $194 $18 $-1 $195 reversed single #
loop $-1 $-1 $196 $74 #
plane-surface $-1 -49.524216437269203 0 0 1 0 0 0 0 -1 forward_v I I I I #
coedge $-1 $197 $131 $198 $199 forward $75 $-1 #
coedge $-1 $200 $77 $197 $201 forward $49 $-1 #
coedge $-1 $77 $200 $202 $203 forward $49 $-1 #
coedge $-1 $134 $133 $77 $127 reversed $135 $-1 #
edge $-1 $204 -25.018593692721474 $205 25.018593692721474 $126 $206 forward 7 unknown #
coedge $-1 $79 $78 $207 $208 forward $31 $-1 #
coedge $-1 $209 $210 $78 $130 reversed $194 $-1 #
edge $-1 $137 -49.524216437269203 $211 49.524216437269203 $129 $212 forward 7 unknown #
coedge $-1 $123 $213 $79 $132 reversed $75 $-1 #
edge $-1 $214 -49.524216437269203 $136 49.524216437269203 $131 $215 forward 7 unknown #
coedge $-1 $126 $80 $213 $216 forward $135 $-1 #
coedge $-1 $80 $126 $209 $217 reversed $135 $-1 #
loop $-1 $-1 $133 $193 #
vertex $-1 $81 $218 #
vertex $-1 $81 $219 #
straight-curve $-1 49.524216437269203 0 10.074857192749691 0 1 0 I I #
face $-1 $220 $221 $19 $-1 $222 reversed single #
loop $-1 $-1 $223 $82 #
plane-surface $-1 -49.524216437269203 0 0 1 0 0 0 0 -1 forward_v I I I I #
coedge $-1 $150 $224 $144 $225 forward $83 $-1 #
coedge $-1 $88 $85 $226 $227 reversed $53 $-1 #
coedge $-1 $85 $88 $142 $225 reversed $53 $-1 #
coedge $-1 $228 $229 $85 $146 forward $230 $-1 #
edge $-1 $231 -10.074857192749691 $232 10.074857192749691 $145 $233 forward 7 unknown #
coedge $-1 $87 $86 $223 $234 reversed $34 $-1 #
coedge $-1 $226 $235 $86 $149 forward $221 $-1 #
edge $-1 $236 -25.512108218634602 $153 -22.512108218634602 $148 $237 forward 7 unknown #
coedge $-1 $238 $142 $87 $151 forward $83 $-1 #
edge $-1 $152 22.512108218634602 $239 25.512108218634602 $150 $240 forward 7 unknown #
vertex $-1 $151 $241 #
vertex $-1 $149 $242 #
straight-curve $-1 -46.524216437269203 -15.07502602972135 0 0 0 -1 I I #
face $-1 $-1 $167 $20 $-1 $243 forward single #
loop $-1 $-1 $244 $90 #
plane-surface $-1 0 25.018593692721474 0 0 -1 0 0 0 -1 forward_v I I I I #
coedge $-1 $245 $246 $247 $248 reversed $91 $-1 #
coedge $-1 $249 $93 $95 $165 forward $57 $-1 #
coedge $-1 $93 $249 $245 $250 forward $57 $-1 #
coedge $-1 $247 $96 $93 $162 forward $167 $-1 #
edge $-1 $169 -15.953071536070777 $251 5.3176905120235922 $161 $252 forward 7 unknown #
coedge $-1 $253 $254 $94 $164 forward $156 $-1 #
edge $-1 $255 -48.129465921434587 $168 -39.595587633822781 $163 $256 forward 7 unknown #
edge $-1 $169 39.619245731789064 $255 50.037187385442998 $95 $257 forward 7 unknown #
coedge $-1 $96 $247 $253 $258 forward $167 $-1 #
loop $-1 $-1 $247 $155 #
vertex $-1 $164 $259 #
vertex $-1 $97 $260 #
straight-curve $-1 -21.270762048094369 38.727084863419549 10.07485719274969 0 -1 0 I I #
coedge $-1 $171 $171 $-1 $261 reversed $100 $-1 #
edge $-1 $262 0 $262 6.2831853071796004 $101 $263 forward 7 unknown #
vertex $-1 $104 $264 #
ellipse-curve $-1 -10.635381024047184 22.030850829322514 5.8079180489438009 0 0.81915205242281985 0.57357642473473569 1.5 0 0 1 I I #
face $-1 $-1 $265 $22 $-1 $266 reversed single #
loop $-1 $-1 $267 $105 #
plane-surface $-1 49.524216437269203 0 0 -1 0 0 0 0 1 forward_v I I I I #
coedge $-1 $268 $108 $110 $184 forward $66 $-1 #
coedge $-1 $108 $268 $267 $269 reversed $66 $-1 #
coedge $-1 $270 $111 $108 $181 forward $106 $-1 #
edge $-1 $187 8.8090366825638284 $271 30.079798730658197 $180 $272 forward 7 unknown #
coedge $-1 $273 $274 $109 $183 forward $265 $-1 #
edge $-1 $275 -48.129465921434587 $186 -39.595587633822781 $182 $276 forward 7 unknown #
edge $-1 $187 39.619245731789064 $275 50.037187385442998 $110 $277 forward 7 unknown #
coedge $-1 $111 $270 $273 $278 forward $106 $-1 #
vertex $-1 $183 $279 #
vertex $-1 $112 $280 #
straight-curve $-1 28.253454389174841 38.727084863419549 10.07485719274969 0 -1 0 I I #
coedge $-1 $189 $189 $-1 $281 reversed $115 $-1 #
edge $-1 $282 0 $282 6.2831853071796004 $116 $283 forward 7 unknown #
vertex $-1 $119 $284 #
ellipse-curve $-1 38.888835413222026 22.030850829322514 5.8079180489438009 0 0.81915205242281985 0.57357642473473569 1.5 0 0 1 I I #
face $-1 $-1 $135 $18 $-1 $285 reversed single #
loop $-1 $-1 $209 $120 #
plane-surface $-1 0 25.018593692721474 0 0 -1 0 0 0 -1 forward_v I I I I #
coedge $-1 $286 $207 $210 $287 forward $121 $-1 #
coedge $-1 $213 $123 $124 $201 reversed $75 $-1 #
coedge $-1 $207 $286 $123 $199 reversed $121 $-1 #
edge $-1 $214 -10.074857192749691 $288 10.074857192749691 $198 $289 forward 7 unknown #
coedge $-1 $125 $124 $286 $290 forward $49 $-1 #
edge $-1 $205 -49.524216437269203 $288 49.524216437269203 $197 $291 forward 7 unknown #
coedge $-1 $210 $209 $125 $203 reversed $194 $-1 #
edge $-1 $292 -49.524216437269203 $204 49.524216437269203 $202 $293 forward 7 unknown #
vertex $-1 $127 $294 #
vertex $-1 $216 $295 #
straight-curve $-1 49.524216437269203 0 -10.074857192749691 0 -1 0 I I #
coedge $-1 $196 $198 $128 $208 reversed $121 $-1 #
edge $-1 $211 -25.018593692721474 $214 25.018593692721474 $207 $296 forward 7 unknown #
coedge $-1 $202 $129 $134 $217 forward $194 $-1 #
coedge $-1 $129 $202 $196 $287 reversed $194 $-1 #
vertex $-1 $130 $297 #
straight-curve $-1 0 25.018593692721474 10.074857192749691 -1 0 0 I I #
coedge $-1 $131 $197 $133 $216 reversed $75 $-1 #
vertex $-1 $208 $298 #
straight-curve $-1 0 -25.018593692721474 10.074857192749691 1 0 0 I I #
edge $-1 $136 -10.074857192749691 $205 10.074857192749691 $133 $299 forward 7 unknown #
edge $-1 $137 -10.074857192749691 $204 10.074857192749691 $134 $300 forward 7 unknown #
point $-1 49.524216437269203 -25.018593692721474 10.074857192749691 #
point $-1 49.524216437269203 25.018593692721474 10.074857192749691 #
face $-1 $-1 $230 $19 $-1 $301 reversed single #
loop $-1 $-1 $226 $139 #
plane-surface $-1 0 0 -10.074857192749691 0 0 1 1 0 0 forward_v I I I I #
coedge $-1 $302 $303 $147 $234 forward $140 $-1 #
coedge $-1 $142 $238 $228 $304 forward $83 $-1 #
edge $-1 $232 -14.995188762110768 $152 -5.0516210991106441 $142 $305 forward 7 unknown #
coedge $-1 $306 $148 $143 $227 forward $221 $-1 #
edge $-1 $153 5.0516210991106441 $231 14.995188762110768 $226 $307 forward 7 unknown #
coedge $-1 $308 $145 $224 $304 reversed $230 $-1 #
coedge $-1 $145 $308 $306 $309 reversed $230 $-1 #
loop $-1 $-1 $145 $220 #
vertex $-1 $309 $310 #
vertex $-1 $146 $311 #
straight-curve $-1 -46.524216437269203 -25.018593692721474 0 0 0 1 I I #
edge $-1 $239 -10.074857192749691 $236 10.074857192749691 $223 $312 forward 7 unknown #
coedge $-1 $148 $306 $302 $313 forward $221 $-1 #
vertex $-1 $149 $314 #
straight-curve $-1 -24.012108218634602 -15.07502602972135 -10.074857192749691 1 0 0 I I #
coedge $-1 $224 $150 $303 $315 forward $83 $-1 #
vertex $-1 $315 $316 #
straight-curve $-1 -24.012108218634602 -15.07502602972135 10.074857192749691 -1 0 0 I I #
point $-1 -46.524216437269203 -15.07502602972135 10.074857192749691 #
point $-1 -46.524216437269203 -15.07502602972135 -10.074857192749691 #
plane-surface $-1 0 0 10.074857192749691 0 0 1 1 0 0 forward_v I I I I #
coedge $-1 $254 $253 $246 $317 forward $156 $-1 #
coedge $-1 $246 $158 $160 $250 reversed $91 $-1 #
coedge $-1 $158 $245 $244 $317 reversed $91 $-1 #
coedge $-1 $166 $161 $158 $248 forward $167 $-1 #
edge $-1 $251 -19.683976897495977 $318 -13.708491170698075 $247 $319 forward 7 unknown #
coedge $-1 $160 $159 $254 $320 reversed $57 $-1 #
edge $-1 $321 -50.037187385442998 $251 -39.619245731789064 $245 $322 forward 7 unknown #
vertex $-1 $162 $323 #
straight-curve $-1 -5.3176905120235922 19.043107965923568 10.074857192749693 1 0 0 I I #
coedge $-1 $244 $163 $166 $258 reversed $156 $-1 #
coedge $-1 $163 $244 $249 $320 forward $156 $-1 #
vertex $-1 $164 $324 #
straight-curve $-1 -21.270762048094369 25.018593692721474 49.670444826572471 0 0 1 I I #
straight-curve $-1 -21.270762048094369 -3.6815573516029332 42.52904364938874 0 0.57357642473473569 -0.81915205242281985 I I #
edge $-1 $318 0 $168 21.270762048094369 $253 $325 forward 7 unknown #
point $-1 -21.270762048094369 25.018593692721474 10.074857192749691 #
point $-1 -21.270762048094369 19.043107965923571 10.07485719274969 #
edge $-1 $326 1 $326 0 $171 $-1 forward 7 unknown #
vertex $-1 $172 $327 #
ellipse-curve $-1 -10.635381024047184 18.656357861757126 3.4450727067342397 0 0.81915205242281985 0.57357642473473569 1.5 0 0 1 I I #
point $-1 -9.1353810240471844 22.030850829322535 5.8079180489438169 #
loop $-1 $-1 $182 $175 #
plane-surface $-1 0 25.018593692721474 0 0 -1 0 0 0 -1 forward_v I I I I #
coedge $-1 $328 $329 $179 $269 forward $176 $-1 #
coedge $-1 $179 $178 $274 $330 reversed $66 $-1 #
edge $-1 $271 21.144541783706675 $331 31.562483437360612 $267 $332 forward 7 unknown #
coedge $-1 $185 $180 $329 $333 forward $106 $-1 #
vertex $-1 $333 $334 #
straight-curve $-1 19.444417706611013 19.043107965923568 10.074857192749693 1 0 0 I I #
coedge $-1 $335 $182 $185 $278 reversed $265 $-1 #
coedge $-1 $182 $335 $268 $330 forward $265 $-1 #
vertex $-1 $183 $336 #
straight-curve $-1 28.253454389174841 25.018593692721474 49.670444826572471 0 0 1 I I #
straight-curve $-1 28.253454389174841 -3.6815573516029332 42.52904364938874 0 0.57357642473473569 -0.81915205242281985 I I #
edge $-1 $337 -49.524216437269203 $186 -28.253454389174841 $273 $338 forward 7 unknown #
point $-1 28.253454389174841 25.018593692721474 10.074857192749691 #
point $-1 28.253454389174841 19.043107965923571 10.07485719274969 #
edge $-1 $339 1 $339 0 $189 $-1 forward 7 unknown #
vertex $-1 $190 $340 #
ellipse-curve $-1 38.888835413222026 18.656357861757126 3.4450727067342397 0 0.81915205242281985 0.57357642473473569 1.5 0 0 1 I I #
point $-1 40.388835413222026 22.030850829322535 5.8079180489438169 #
plane-surface $-1 49.524216437269203 0 0 -1 0 0 0 0 1 forward_v I I I I #
coedge $-1 $198 $196 $200 $290 reversed $121 $-1 #
edge $-1 $211 -10.074857192749691 $292 10.074857192749691 $210 $341 forward 7 unknown #
vertex $-1 $290 $342 #
straight-curve $-1 -49.524216437269203 -25.018593692721474 0 0 0 -1 I I #
edge $-1 $288 -25.018593692721474 $292 25.018593692721474 $286 $343 forward 7 unknown #
straight-curve $-1 0 -25.018593692721474 -10.074857192749691 -1 0 0 I I #
vertex $-1 $203 $344 #
straight-curve $-1 0 25.018593692721474 -10.074857192749691 1 0 0 I I #
point $-1 49.524216437269203 25.018593692721474 -10.074857192749691 #
point $-1 49.524216437269203 -25.018593692721474 -10.074857192749691 #
straight-curve $-1 -49.524216437269203 0 10.074857192749691 0 -1 0 I I #
point $-1 -49.524216437269203 25.018593692721474 10.074857192749691 #
point $-1 -49.524216437269203 -25.018593692721474 10.074857192749691 #
straight-curve $-1 49.524216437269203 -25.018593692721474 0 0 0 -1 I I #
straight-curve $-1 49.524216437269203 25.018593692721474 0 0 0 -1 I I #
plane-surface $-1 0 -25.018593692721474 0 0 1 0 0 0 1 forward_v I I I I #
coedge $-1 $345 $223 $235 $313 reversed $140 $-1 #
coedge $-1 $223 $345 $238 $315 reversed $140 $-1 #
edge $-1 $346 -49.524216437269203 $232 -46.524216437269203 $228 $347 forward 7 unknown #
straight-curve $-1 -46.524216437269203 -10.023404930610706 10.074857192749691 0 1 0 I I #
coedge $-1 $235 $226 $229 $309 forward $221 $-1 #
straight-curve $-1 -46.524216437269203 -10.023404930610706 -10.074857192749691 0 -1 0 I I #
coedge $-1 $229 $228 $345 $348 forward $230 $-1 #
edge $-1 $231 46.524216437269203 $349 49.524216437269203 $229 $350 forward 7 unknown #
point $-1 -46.524216437269203 -25.018593692721474 -10.074857192749691 #
point $-1 -46.524216437269203 -25.018593692721474 10.074857192749691 #
straight-curve $-1 -49.524216437269203 -15.07502602972135 0 0 0 -1 I I #
edge $-1 $349 -25.018593692721474 $236 -15.07502602972135 $302 $351 forward 7 unknown #
point $-1 -49.524216437269203 -15.07502602972135 -10.074857192749691 #
edge $-1 $239 15.07502602972135 $346 25.018593692721474 $303 $352 forward 7 unknown #
point $-1 -49.524216437269203 -15.07502602972135 10.074857192749691 #
edge $-1 $318 39.595587633822781 $321 48.129465921434587 $244 $353 forward 7 unknown #
vertex $-1 $258 $354 #
straight-curve $-1 0 38.727084863419549 10.07485719274969 0 1 0 I I #
edge $-1 $321 -5.3176905120235922 $255 15.953071536070777 $254 $355 forward 7 unknown #
vertex $-1 $320 $356 #
straight-curve $-1 0 -3.6815573516029332 42.52904364938874 0 -0.57357642473473569 0.81915205242281985 I I #
point $-1 0 19.043107965923571 10.07485719274969 #
point $-1 -21.270762048094369 25.018593692721474 1.5409789051378837 #
straight-curve $-1 0 25.018593692721474 10.074857192749691 -1 0 0 I I #
vertex $-1 $261 $357 #
point $-1 -9.1353810240471844 18.656357861757126 3.4450727067342397 #
coedge $-1 $329 $267 $335 $358 reversed $176 $-1 #
coedge $-1 $267 $328 $270 $333 reversed $176 $-1 #
edge $-1 $331 -30.079798730658197 $275 -8.8090366825638284 $274 $359 forward 7 unknown #
vertex $-1 $269 $360 #
straight-curve $-1 49.524216437269203 6.9150972869708678 27.395451992413083 0 0.57357642473473569 -0.81915205242281985 I I #
edge $-1 $271 19.043107965923571 $337 25.018593692721474 $329 $361 forward 7 unknown #
point $-1 49.52421643726921 19.043107965923571 10.07485719274969 #
coedge $-1 $274 $273 $328 $358 forward $265 $-1 #
point $-1 28.253454389174841 25.018593692721474 1.5409789051378837 #
vertex $-1 $333 $362 #
straight-curve $-1 0 25.018593692721474 10.074857192749691 -1 0 0 I I #
vertex $-1 $281 $363 #
point $-1 40.388835413222026 18.656357861757126 3.4450727067342397 #
straight-curve $-1 -49.524216437269203 25.018593692721474 0 0 0 -1 I I #
point $-1 -49.524216437269203 -25.018593692721474 -10.074857192749691 #
straight-curve $-1 -49.524216437269203 0 -10.074857192749691 0 1 0 I I #
point $-1 -49.524216437269203 25.018593692721474 -10.074857192749691 #
coedge $-1 $303 $302 $308 $348 reversed $140 $-1 #
vertex $-1 $315 $364 #
straight-curve $-1 0 -25.018593692721474 10.074857192749691 1 0 0 I I #
edge $-1 $346 -10.074857192749691 $349 10.074857192749691 $345 $365 forward 7 unknown #
vertex $-1 $313 $366 #
straight-curve $-1 0 -25.018593692721474 -10.074857192749691 -1 0 0 I I #
straight-curve $-1 -49.524216437269203 0 -10.074857192749691 0 1 0 I I #
straight-curve $-1 -49.524216437269203 0 10.074857192749691 0 -1 0 I I #
straight-curve $-1 0 25.018593692721474 49.670444826572471 0 0 -1 I I #
point $-1 0 25.018593692721474 10.074857192749691 #
straight-curve $-1 -5.3176905120235922 25.018593692721478 1.5409789051378837 -1 0 0 I I #
point $-1 0 25.018593692721474 1.5409789051378837 #
point $-1 -10.635381024047184 17.427629783122899 2.5847080696321365 #
edge $-1 $337 -10.074857192749691 $331 -1.5409789051378837 $328 $367 forward 7 unknown #
straight-curve $-1 19.444417706611013 25.018593692721478 1.5409789051378837 -1 0 0 I I #
point $-1 49.52421643726921 25.018593692721474 1.5409789051378837 #
straight-curve $-1 49.524216437269203 0 10.074857192749691 0 1 0 I I #
point $-1 49.524216437269203 25.018593692721474 10.074857192749691 #
point $-1 38.888835413222026 17.427629783122899 2.5847080696321365 #
point $-1 -49.524216437269203 -25.018593692721474 10.074857192749691 #
straight-curve $-1 -49.524216437269203 -25.018593692721474 0 0 0 -1 I I #
point $-1 -49.524216437269203 -25.018593692721474 -10.074857192749691 #
straight-curve $-1 49.524216437269203 25.018593692721474 0 0 0 -1 I I #
End-of-ACIS-data 