500 0 7 0           
7 Unknown 11 ACIS 5.0 NT 24 Thu Mar 25 22:21:32 1999 
-1 9.9999999999999995e-007 1e-010 
body $-1 $7 $-1 $8 #
body $-1 $9 $-1 $10 #
body $-1 $11 $-1 $12 #
body $-1 $13 $-1 $14 #
body $-1 $15 $-1 $16 #
body $-1 $17 $-1 $18 #
body $-1 $19 $-1 $20 #
lump $-1 $-1 $21 $0 #
transform $-1 1 0 0 0 1 0 0 0 1 46.952116458632162 24.051514327518134 5.7190885306209767 1 rotate no_reflect no_shear #
lump $-1 $-1 $22 $1 #
transform $-1 1 0 0 0 1 0 0 0 1 46.952116458632162 24.051514327518134 5.7190885306209767 1 rotate no_reflect no_shear #
lump $-1 $-1 $23 $2 #
transform $-1 1 0 0 0 1 0 0 0 1 46.952116458632162 24.051514327518134 5.7190885306209767 1 rotate no_reflect no_shear #
lump $-1 $-1 $24 $3 #
transform $-1 1 0 0 0 1 0 0 0 1 46.952116458632162 24.051514327518134 5.7190885306209767 1 rotate no_reflect no_shear #
lump $-1 $-1 $25 $4 #
transform $-1 1 0 0 0 1 0 0 0 1 46.952116458632162 24.051514327518134 5.7190885306209767 1 rotate no_reflect no_shear #
lump $-1 $-1 $26 $5 #
transform $-1 1 0 0 0 1 0 0 0 1 46.952116458632162 24.051514327518134 5.7190885306209767 1 rotate no_reflect no_shear #
lump $-1 $-1 $27 $6 #
transform $-1 1 0 0 0 1 0 0 0 1 46.952116458632162 24.051514327518134 5.7190885306209767 1 rotate no_reflect no_shear #
shell $-1 $-1 $-1 $28 $-1 $7 #
shell $-1 $-1 $-1 $29 $-1 $9 #
shell $-1 $-1 $-1 $30 $-1 $11 #
shell $-1 $-1 $-1 $31 $-1 $13 #
shell $-1 $-1 $-1 $32 $-1 $15 #
shell $-1 $-1 $-1 $33 $-1 $17 #
shell $-1 $-1 $-1 $34 $-1 $19 #
face $-1 $35 $36 $21 $-1 $37 forward single #
face $-1 $38 $39 $22 $-1 $40 forward single #
face $-1 $41 $42 $23 $-1 $43 reversed single #
face $-1 $44 $45 $24 $-1 $46 forward single #
face $-1 $47 $48 $25 $-1 $49 reversed single #
face $-1 $50 $51 $26 $-1 $52 forward single #
face $-1 $53 $54 $27 $-1 $55 forward single #
face $-1 $56 $57 $21 $-1 $58 reversed single #
loop $-1 $-1 $59 $28 #
plane-surface $-1 0 0 5.7190885306209767 0 0 1 1 0 0 forward_v I I I I #
face $-1 $60 $61 $22 $-1 $62 forward single #
loop $-1 $-1 $63 $29 #
plane-surface $-1 -46.952116458632162 0 0 1 0 0 0 0 -1 forward_v I I I I #
face $-1 $64 $65 $23 $-1 $66 reversed single #
loop $-1 $-1 $67 $30 #
plane-surface $-1 -41.552575694472303 38.509076286359686 106.98888963525661 1 0 0 0 -0.57357644374324357 -0.81915203911291934 forward_v I I I I #
face $-1 $68 $69 $24 $-1 $70 forward single #
loop $-1 $71 $72 $31 #
cone-surface $-1 -30.091964895795893 20.789256205888847 2.7457229861547376 0 -0.57357644374324357 -0.81915203911291934 1 0 0 1 I I 0 1 1 forward I I I I #
face $-1 $73 $74 $25 $-1 $75 reversed single #
loop $-1 $-1 $76 $32 #
plane-surface $-1 -28.08280277359713 -80.564493150142312 75.912460306360174 -1 0 0 0 -0.6018150307709319 0.79863550430605224 forward_v I I I I #
face $-1 $77 $78 $26 $-1 $79 forward single #
loop $-1 $80 $81 $33 #
cone-surface $-1 -37.704069145650827 -20.423064832456568 2.7312048344053284 0 0.6018150307709319 -0.79863550430605224 1 0 0 1 I I 0 1 1 forward I I I I #
face $-1 $82 $83 $27 $-1 $84 forward single #
loop $-1 $85 $86 $34 #
cone-surface $-1 -31.931309322418613 -20.423064832456568 2.7312048344053284 0 0.6018150307709319 -0.79863550430605224 1 0 0 1 I I 0 1 1 forward I I I I #
face $-1 $87 $88 $21 $-1 $89 reversed single #
loop $-1 $-1 $90 $35 #
plane-surface $-1 0 0 -5.7190885306209767 0 0 1 1 0 0 forward_v I I I I #
coedge $-1 $91 $92 $93 $94 forward $36 $-1 #
face $-1 $95 $96 $22 $-1 $97 reversed single #
loop $-1 $-1 $98 $38 #
plane-surface $-1 0 0 5.7190885306209767 0 0 1 1 0 0 forward_v I I I I #
coedge $-1 $99 $100 $101 $102 forward $39 $-1 #
face $-1 $103 $104 $23 $-1 $105 reversed single #
loop $-1 $-1 $106 $41 #
plane-surface $-1 -30.091964895795893 -15.352179682762014 30.067045759745014 0 0.57357644374324357 0.81915203911291934 1 0 0 forward_v I I I I #
coedge $-1 $107 $108 $109 $110 reversed $42 $-1 #
face $-1 $-1 $111 $24 $-1 $112 forward single #
loop $-1 $113 $114 $44 #
cone-surface $-1 -30.091964895795893 19.555813908952842 0.98418486218753909 0 -0.57357644374324357 -0.81915203911291934 0.5 0 0 1 I I -0.70710678118654746 0.70710678118654746 0.5 forward I I I I #
loop $-1 $-1 $115 $31 #
coedge $-1 $72 $72 $116 $117 reversed $45 $-1 #
face $-1 $118 $119 $25 $-1 $120 reversed single #
loop $-1 $-1 $121 $47 #
plane-surface $-1 -34.817689234034717 -24.051514327518127 0.91720589400779318 0 -0.6018150307709319 0.79863550430605224 1 0 0 forward_v I I I I #
coedge $-1 $122 $123 $124 $125 reversed $48 $-1 #
face $-1 $-1 $126 $26 $-1 $127 forward single #
loop $-1 $128 $129 $50 #
cone-surface $-1 -37.704069145650827 -19.679864502241848 1.7449447043432409 0 0.6018150307709319 -0.79863550430605224 0.5 0 0 1 I I -0.70710678118654746 0.70710678118654746 0.5 forward I I I I #
loop $-1 $-1 $130 $33 #
coedge $-1 $81 $81 $131 $132 reversed $51 $-1 #
face $-1 $-1 $133 $27 $-1 $134 forward single #
loop $-1 $135 $136 $53 #
cone-surface $-1 -31.931309322418613 -19.679864502241848 1.7449447043432409 0 0.6018150307709319 -0.79863550430605224 0.5 0 0 1 I I -0.70710678118654746 0.70710678118654746 0.5 forward I I I I #
loop $-1 $-1 $137 $34 #
coedge $-1 $86 $86 $138 $139 reversed $54 $-1 #
face $-1 $140 $141 $21 $-1 $142 reversed single #
loop $-1 $-1 $143 $56 #
plane-surface $-1 0 -24.051514327518134 0 0 1 0 0 0 1 forward_v I I I I #
coedge $-1 $144 $145 $146 $147 forward $57 $-1 #
coedge $-1 $148 $59 $149 $150 forward $36 $-1 #
coedge $-1 $59 $148 $151 $152 forward $36 $-1 #
coedge $-1 $153 $154 $59 $94 reversed $155 $-1 #
edge $-1 $156 -24.051514327518134 $157 24.051514327518134 $93 $158 forward 7 unknown #
face $-1 $159 $160 $22 $-1 $161 reversed single #
loop $-1 $-1 $162 $60 #
plane-surface $-1 -52.351657222792014 -22.551514327518134 0 1 0 0 0 0 -1 forward_v I I I I #
coedge $-1 $163 $164 $99 $165 forward $61 $-1 #
coedge $-1 $166 $63 $98 $165 reversed $39 $-1 #
coedge $-1 $63 $166 $167 $168 reversed $39 $-1 #
coedge $-1 $169 $170 $63 $102 reversed $160 $-1 #
edge $-1 $171 -5.7190885306209767 $172 5.7190885306209767 $101 $173 forward 7 unknown #
face $-1 $174 $175 $23 $-1 $176 forward single #
loop $-1 $-1 $177 $64 #
plane-surface $-1 -18.631354097119484 38.509076286359686 106.98888963525661 -1 0 0 0 0.57357644374324357 0.81915203911291934 forward_v I I I I #
coedge $-1 $178 $179 $180 $181 reversed $65 $-1 #
coedge $-1 $108 $67 $182 $183 reversed $42 $-1 #
coedge $-1 $67 $107 $178 $184 reversed $42 $-1 #
coedge $-1 $180 $185 $67 $110 forward $175 $-1 #
edge $-1 $186 -4.7969761843382912 $187 -0.16576809120846292 $109 $188 forward 7 unknown #
loop $-1 $-1 $116 $68 #
plane-surface $-1 -30.091964895795893 -15.352179682762014 30.067045759745014 0 0.57357644374324357 0.81915203911291934 1 0 0 forward_v I I I I #
loop $-1 $-1 $189 $44 #
coedge $-1 $114 $114 $115 $190 reversed $69 $-1 #
coedge $-1 $115 $115 $114 $190 forward $71 $-1 #
coedge $-1 $116 $116 $72 $117 forward $111 $-1 #
edge $-1 $191 -2.6936077588182189e-015 $191 6.2831853071795978 $116 $192 forward 7 unknown #
face $-1 $193 $194 $25 $-1 $195 forward single #
loop $-1 $-1 $196 $73 #
plane-surface $-1 -41.552575694472303 -80.564493150142312 75.912460306360174 1 0 0 0 0.6018150307709319 -0.79863550430605224 forward_v I I I I #
coedge $-1 $197 $198 $199 $200 reversed $74 $-1 #
coedge $-1 $123 $76 $201 $202 reversed $48 $-1 #
coedge $-1 $76 $122 $197 $203 reversed $48 $-1 #
coedge $-1 $199 $204 $76 $125 forward $194 $-1 #
edge $-1 $205 16.230732247553021 $206 22.603045608017666 $124 $207 forward 7 unknown #
loop $-1 $-1 $131 $77 #
plane-surface $-1 -34.817689234034717 -24.051514327518127 0.91720589400779318 0 -0.6018150307709319 0.79863550430605224 1 0 0 forward_v I I I I #
loop $-1 $-1 $208 $50 #
coedge $-1 $129 $129 $130 $209 reversed $78 $-1 #
coedge $-1 $130 $130 $129 $209 forward $80 $-1 #
coedge $-1 $131 $131 $81 $132 forward $126 $-1 #
edge $-1 $210 -3.1667786117524589e-015 $210 6.2831853071795969 $131 $211 forward 7 unknown #
loop $-1 $-1 $138 $82 #
plane-surface $-1 -34.817689234034717 -24.051514327518127 0.91720589400779318 0 -0.6018150307709319 0.79863550430605224 1 0 0 forward_v I I I I #
loop $-1 $-1 $212 $53 #
coedge $-1 $136 $136 $137 $213 reversed $83 $-1 #
coedge $-1 $137 $137 $136 $213 forward $85 $-1 #
coedge $-1 $138 $138 $86 $139 forward $133 $-1 #
edge $-1 $214 -3.1667786117524589e-015 $214 6.2831853071795969 $138 $215 forward 7 unknown #
face $-1 $216 $217 $21 $-1 $218 reversed single #
loop $-1 $-1 $219 $87 #
plane-surface $-1 -46.952116458632162 0 0 1 0 0 0 0 -1 forward_v I I I I #
coedge $-1 $220 $151 $221 $222 forward $88 $-1 #
coedge $-1 $223 $90 $220 $224 forward $57 $-1 #
coedge $-1 $90 $223 $225 $226 forward $57 $-1 #
coedge $-1 $154 $153 $90 $147 reversed $155 $-1 #
edge $-1 $227 -24.051514327518134 $228 24.051514327518134 $146 $229 forward 7 unknown #
coedge $-1 $92 $91 $219 $230 forward $36 $-1 #
coedge $-1 $231 $232 $91 $150 reversed $217 $-1 #
edge $-1 $157 -46.952116458632162 $233 46.952116458632162 $149 $234 forward 7 unknown #
coedge $-1 $143 $235 $92 $152 reversed $88 $-1 #
edge $-1 $236 -46.952116458632162 $156 46.952116458632162 $151 $237 forward 7 unknown #
coedge $-1 $146 $93 $235 $238 forward $155 $-1 #
coedge $-1 $93 $146 $231 $239 reversed $155 $-1 #
loop $-1 $-1 $153 $216 #
vertex $-1 $94 $240 #
vertex $-1 $94 $241 #
straight-curve $-1 46.952116458632162 0 5.7190885306209767 0 1 0 I I #
face $-1 $242 $243 $22 $-1 $244 reversed single #
loop $-1 $-1 $101 $95 #
plane-surface $-1 -49.651886840712088 -21.051514327518134 0 0 -1 0 0 0 -1 forward_v I I I I #
coedge $-1 $245 $246 $247 $248 forward $96 $-1 #
coedge $-1 $249 $98 $170 $250 forward $61 $-1 #
coedge $-1 $98 $249 $251 $252 forward $61 $-1 #
edge $-1 $253 -24.051514327518134 $172 -21.051514327518134 $98 $254 forward 7 unknown #
coedge $-1 $100 $99 $255 $256 reversed $39 $-1 #
coedge $-1 $257 $258 $100 $168 forward $243 $-1 #
edge $-1 $171 21.051514327518134 $259 24.051514327518134 $167 $260 forward 7 unknown #
coedge $-1 $247 $101 $258 $261 reversed $160 $-1 #
coedge $-1 $101 $247 $163 $250 reversed $160 $-1 #
vertex $-1 $168 $262 #
vertex $-1 $250 $263 #
straight-curve $-1 -46.952116458632162 -21.051514327518134 0 0 0 1 I I #
face $-1 $-1 $264 $23 $-1 $265 reversed single #
loop $-1 $-1 $109 $103 #
plane-surface $-1 0 0 5.7190885306209767 0 0 1 1 0 0 forward_v I I I I #
coedge $-1 $266 $267 $268 $269 reversed $104 $-1 #
coedge $-1 $270 $106 $108 $184 forward $65 $-1 #
coedge $-1 $106 $270 $266 $271 forward $65 $-1 #
coedge $-1 $268 $109 $106 $181 forward $175 $-1 #
edge $-1 $187 -26.506593246574354 $272 -3.5853716492215373 $180 $273 forward 7 unknown #
coedge $-1 $274 $275 $107 $183 forward $264 $-1 #
edge $-1 $276 -51.018163167118331 $186 -47.775356287007327 $182 $277 forward 7 unknown #
edge $-1 $187 42.44936746395252 $276 48.103028655036269 $108 $278 forward 7 unknown #
coedge $-1 $109 $268 $274 $279 forward $175 $-1 #
vertex $-1 $183 $280 #
vertex $-1 $110 $281 #
straight-curve $-1 -41.552575694472303 19.254538143179843 5.7190885306209793 0 -1 0 I I #
coedge $-1 $189 $189 $-1 $282 reversed $113 $-1 #
edge $-1 $283 0 $283 6.2831853071796004 $114 $284 forward 7 unknown #
vertex $-1 $117 $285 #
ellipse-curve $-1 -30.091964895795893 21.735910280953224 4.0976850905654674 0 0.57357644374324357 0.81915203911291934 1 0 0 1 I I #
face $-1 $-1 $286 $25 $-1 $287 reversed single #
loop $-1 $-1 $124 $118 #
plane-surface $-1 0 0 5.7190885306209767 0 0 1 1 0 0 forward_v I I I I #
coedge $-1 $288 $289 $290 $291 reversed $119 $-1 #
coedge $-1 $292 $121 $123 $203 forward $74 $-1 #
coedge $-1 $121 $292 $288 $293 forward $74 $-1 #
coedge $-1 $290 $124 $121 $200 forward $194 $-1 #
edge $-1 $206 10.673958156579772 $294 24.143731077454945 $199 $295 forward 7 unknown #
coedge $-1 $296 $297 $122 $202 forward $286 $-1 #
edge $-1 $298 -37.039024259172301 $205 -32.237141622559108 $201 $299 forward 7 unknown #
edge $-1 $206 -7.9790008409426365 $298 8.8817612989391469e-015 $123 $300 forward 7 unknown #
coedge $-1 $124 $290 $296 $301 forward $194 $-1 #
vertex $-1 $125 $302 #
vertex $-1 $125 $303 #
straight-curve $-1 -28.08280277359713 -40.282246575071156 5.7190885306209793 0 1 0 I I #
coedge $-1 $208 $208 $-1 $304 reversed $128 $-1 #
edge $-1 $305 0 $305 6.2831853071796004 $129 $306 forward 7 unknown #
vertex $-1 $132 $307 #
ellipse-curve $-1 -37.704069145650827 -20.865357647285816 3.31814721231438 0 -0.6018150307709319 0.79863550430605224 1 0 0 1 I I #
coedge $-1 $212 $212 $-1 $308 reversed $135 $-1 #
edge $-1 $309 0 $309 6.2831853071796004 $136 $310 forward 7 unknown #
vertex $-1 $139 $311 #
ellipse-curve $-1 -31.931309322418613 -20.865357647285816 3.31814721231438 0 -0.6018150307709319 0.79863550430605224 1 0 0 1 I I #
face $-1 $-1 $155 $21 $-1 $312 reversed single #
loop $-1 $-1 $231 $140 #
plane-surface $-1 0 24.051514327518134 0 0 -1 0 0 0 -1 forward_v I I I I #
coedge $-1 $313 $221 $148 $230 reversed $141 $-1 #
coedge $-1 $235 $143 $144 $224 reversed $88 $-1 #
coedge $-1 $219 $314 $143 $222 reversed $141 $-1 #
edge $-1 $236 -5.7190885306209767 $315 5.7190885306209767 $221 $316 forward 7 unknown #
coedge $-1 $145 $144 $314 $317 forward $57 $-1 #
edge $-1 $228 -46.952116458632162 $315 46.952116458632162 $220 $318 forward 7 unknown #
coedge $-1 $232 $231 $145 $226 reversed $217 $-1 #
edge $-1 $319 -46.952116458632162 $227 46.952116458632162 $225 $320 forward 7 unknown #
vertex $-1 $147 $321 #
vertex $-1 $238 $322 #
straight-curve $-1 46.952116458632162 0 -5.7190885306209767 0 -1 0 I I #
edge $-1 $233 -24.051514327518134 $236 24.051514327518134 $219 $323 forward 7 unknown #
coedge $-1 $225 $149 $154 $239 forward $217 $-1 #
coedge $-1 $149 $225 $313 $324 reversed $217 $-1 #
vertex $-1 $150 $325 #
straight-curve $-1 0 24.051514327518134 5.7190885306209767 -1 0 0 I I #
coedge $-1 $151 $220 $153 $238 reversed $88 $-1 #
vertex $-1 $230 $326 #
straight-curve $-1 0 -24.051514327518134 5.7190885306209767 1 0 0 I I #
edge $-1 $156 -5.7190885306209767 $228 5.7190885306209767 $153 $327 forward 7 unknown #
edge $-1 $157 -5.7190885306209767 $227 5.7190885306209767 $154 $328 forward 7 unknown #
point $-1 46.952116458632162 -24.051514327518134 5.7190885306209767 #
point $-1 46.952116458632162 24.051514327518134 5.7190885306209767 #
face $-1 $-1 $329 $22 $-1 $330 reversed single #
loop $-1 $-1 $167 $159 #
plane-surface $-1 0 0 -5.7190885306209767 0 0 1 1 0 0 forward_v I I I I #
coedge $-1 $331 $162 $332 $333 reversed $96 $-1 #
coedge $-1 $162 $331 $249 $334 reversed $96 $-1 #
coedge $-1 $170 $169 $162 $248 reversed $160 $-1 #
edge $-1 $335 -5.7190885306209767 $336 5.7190885306209767 $247 $337 forward 7 unknown #
coedge $-1 $164 $163 $246 $334 forward $61 $-1 #
edge $-1 $172 -2.6997703820799259 $335 2.6997703820799259 $170 $338 forward 7 unknown #
coedge $-1 $339 $255 $164 $252 reversed $329 $-1 #
edge $-1 $340 -52.351657222792014 $253 -46.952116458632162 $251 $341 forward 7 unknown #
vertex $-1 $256 $342 #
straight-curve $-1 -46.952116458632162 0 5.7190885306209767 0 1 0 I I #
coedge $-1 $251 $343 $166 $256 forward $329 $-1 #
edge $-1 $259 -5.7190885306209767 $253 5.7190885306209767 $255 $344 forward 7 unknown #
coedge $-1 $332 $167 $343 $345 forward $243 $-1 #
coedge $-1 $167 $332 $169 $261 forward $243 $-1 #
vertex $-1 $345 $346 #
straight-curve $-1 -46.952116458632162 0 -5.7190885306209767 0 -1 0 I I #
edge $-1 $336 -2.6997703820799259 $171 2.6997703820799259 $169 $347 forward 7 unknown #
point $-1 -46.952116458632162 -21.051514327518134 -5.7190885306209767 #
point $-1 -46.952116458632162 -21.051514327518134 5.7190885306209767 #
loop $-1 $-1 $182 $174 #
plane-surface $-1 0 24.051514327518134 0 0 -1 0 0 0 -1 forward_v I I I I #
coedge $-1 $267 $177 $179 $271 reversed $104 $-1 #
coedge $-1 $177 $266 $348 $349 reversed $104 $-1 #
coedge $-1 $185 $180 $177 $269 forward $175 $-1 #
edge $-1 $272 0.16576809120846292 $350 4.7969761843382912 $268 $351 forward 7 unknown #
coedge $-1 $179 $178 $275 $352 reversed $65 $-1 #
edge $-1 $353 -48.103028655036269 $272 -42.44936746395252 $266 $354 forward 7 unknown #
vertex $-1 $181 $355 #
straight-curve $-1 -15.045982447897947 19.420306234388306 5.7190885306209793 1 0 0 I I #
coedge $-1 $348 $182 $185 $279 reversed $264 $-1 #
coedge $-1 $182 $348 $270 $352 forward $264 $-1 #
vertex $-1 $183 $356 #
straight-curve $-1 -41.552575694472303 24.051514327518134 53.494444817628306 0 0 1 I I #
straight-curve $-1 -41.552575694472303 -15.352179682762014 30.067045759745014 0 0.81915203911291934 -0.57357644374324357 I I #
edge $-1 $350 18.631354097119484 $186 41.552575694472303 $274 $357 forward 7 unknown #
point $-1 -41.552575694472303 24.051514327518134 5.7190885306209767 #
point $-1 -41.552575694472303 19.420306234388306 5.7190885306209758 #
edge $-1 $358 1 $358 0 $189 $-1 forward 7 unknown #
vertex $-1 $190 $359 #
ellipse-curve $-1 -30.091964895795893 19.842602130824464 1.3937608817439988 0 0.57357644374324357 0.81915203911291934 1 0 0 1 I I #
point $-1 -29.091964895795893 21.735910280953227 4.0976850905654771 #
loop $-1 $-1 $201 $193 #
plane-surface $-1 0 -24.051514327518134 0 0 1 0 0 0 1 forward_v I I I I #
coedge $-1 $289 $196 $198 $293 reversed $119 $-1 #
coedge $-1 $196 $288 $360 $361 reversed $119 $-1 #
coedge $-1 $204 $199 $196 $291 forward $194 $-1 #
edge $-1 $294 -22.603045608017666 $362 -16.230732247553021 $290 $363 forward 7 unknown #
coedge $-1 $198 $197 $297 $364 reversed $74 $-1 #
edge $-1 $365 -8.8817612989391469e-015 $294 7.9790008409426365 $288 $366 forward 7 unknown #
vertex $-1 $200 $367 #
straight-curve $-1 -17.408844617017358 -17.679200967053493 5.7190885306209767 -1 0 0 I I #
coedge $-1 $360 $201 $204 $301 reversed $286 $-1 #
coedge $-1 $201 $360 $292 $364 forward $286 $-1 #
vertex $-1 $202 $368 #
straight-curve $-1 -28.08280277359713 -24.051514327518134 37.956230153180087 0 0 1 I I #
straight-curve $-1 -28.08280277359713 -24.051514327518127 0.91720589400779318 0 -0.79863550430605224 -0.6018150307709319 I I #
edge $-1 $362 -41.552575694472303 $205 -28.08280277359713 $296 $369 forward 7 unknown #
point $-1 -28.08280277359713 -24.051514327518134 5.7190885306209767 #
point $-1 -28.08280277359713 -17.67920096705349 5.7190885306209767 #
edge $-1 $370 1 $370 0 $208 $-1 forward 7 unknown #
vertex $-1 $209 $371 #
ellipse-curve $-1 -37.704069145650827 -19.980772017627313 2.1442624564962669 0 -0.6018150307709319 0.79863550430605224 1 0 0 1 I I #
point $-1 -36.704069145650827 -20.865357647285826 3.3181472123143889 #
edge $-1 $372 1 $372 0 $212 $-1 forward 7 unknown #
vertex $-1 $213 $373 #
ellipse-curve $-1 -31.931309322418613 -19.980772017627313 2.1442624564962669 0 -0.6018150307709319 0.79863550430605224 1 0 0 1 I I #
point $-1 -30.931309322418613 -20.865357647285826 3.3181472123143889 #
plane-surface $-1 46.952116458632162 0 0 -1 0 0 0 0 1 forward_v I I I I #
coedge $-1 $314 $219 $232 $324 forward $141 $-1 #
coedge $-1 $221 $313 $223 $317 reversed $141 $-1 #
vertex $-1 $317 $374 #
straight-curve $-1 -46.952116458632162 -24.051514327518134 0 0 0 -1 I I #
edge $-1 $315 -24.051514327518134 $319 24.051514327518134 $314 $375 forward 7 unknown #
straight-curve $-1 0 -24.051514327518134 -5.7190885306209767 -1 0 0 I I #
vertex $-1 $226 $376 #
straight-curve $-1 0 24.051514327518134 -5.7190885306209767 1 0 0 I I #
point $-1 46.952116458632162 24.051514327518134 -5.7190885306209767 #
point $-1 46.952116458632162 -24.051514327518134 -5.7190885306209767 #
straight-curve $-1 -46.952116458632162 0 5.7190885306209767 0 -1 0 I I #
edge $-1 $233 -5.7190885306209767 $319 5.7190885306209767 $232 $377 forward 7 unknown #
point $-1 -46.952116458632162 24.051514327518134 5.7190885306209767 #
point $-1 -46.952116458632162 -24.051514327518134 5.7190885306209767 #
straight-curve $-1 46.952116458632162 -24.051514327518134 0 0 0 -1 I I #
straight-curve $-1 46.952116458632162 24.051514327518134 0 0 0 -1 I I #
loop $-1 $-1 $255 $242 #
plane-surface $-1 0 -24.051514327518134 0 0 1 0 0 0 1 forward_v I I I I #
coedge $-1 $246 $245 $339 $378 reversed $96 $-1 #
coedge $-1 $258 $257 $245 $333 forward $243 $-1 #
edge $-1 $379 -1.5 $336 1.5 $245 $380 forward 7 unknown #
edge $-1 $335 -1.5 $340 1.5 $246 $381 forward 7 unknown #
vertex $-1 $250 $382 #
vertex $-1 $261 $383 #
straight-curve $-1 -52.351657222792014 -21.051514327518134 0 0 0 -1 I I #
straight-curve $-1 -49.651886840712088 -21.051514327518134 5.7190885306209767 -1 0 0 I I #
coedge $-1 $343 $251 $331 $378 forward $329 $-1 #
vertex $-1 $334 $384 #
straight-curve $-1 0 -24.051514327518134 5.7190885306209767 1 0 0 I I #
point $-1 -46.952116458632162 -24.051514327518134 5.7190885306209767 #
coedge $-1 $255 $339 $257 $345 reversed $329 $-1 #
straight-curve $-1 -46.952116458632162 -24.051514327518134 0 0 0 1 I I #
edge $-1 $259 -2.6997703820799259 $379 2.6997703820799259 $343 $385 forward 7 unknown #
point $-1 -46.952116458632162 -24.051514327518134 -5.7190885306209767 #
straight-curve $-1 -49.651886840712088 -21.051514327518134 -5.7190885306209767 1 0 0 I I #
coedge $-1 $275 $274 $267 $349 forward $264 $-1 #
edge $-1 $350 47.775356287007327 $353 51.018163167118331 $348 $386 forward 7 unknown #
vertex $-1 $279 $387 #
straight-curve $-1 -18.631354097119484 19.254538143179843 5.7190885306209793 0 1 0 I I #
edge $-1 $353 3.5853716492215373 $276 26.506593246574354 $275 $388 forward 7 unknown #
vertex $-1 $352 $389 #
straight-curve $-1 -18.631354097119484 -15.352179682762014 30.067045759745014 0 -0.81915203911291934 0.57357644374324357 I I #
point $-1 -18.631354097119484 19.420306234388306 5.7190885306209758 #
point $-1 -41.552575694472303 24.051514327518134 2.4762816505099714 #
straight-curve $-1 0 24.051514327518134 5.7190885306209767 -1 0 0 I I #
vertex $-1 $282 $390 #
point $-1 -29.091964895795893 19.842602130824464 1.3937608817439988 #
coedge $-1 $297 $296 $289 $361 forward $286 $-1 #
edge $-1 $362 32.237141622559108 $365 37.039024259172301 $360 $391 forward 7 unknown #
vertex $-1 $301 $392 #
straight-curve $-1 -41.552575694472303 -40.282246575071156 5.7190885306209793 0 -1 0 I I #
edge $-1 $365 -24.143731077454945 $298 -10.673958156579772 $297 $393 forward 7 unknown #
vertex $-1 $364 $394 #
straight-curve $-1 -41.552575694472303 -24.051514327518127 0.91720589400779318 0 0.79863550430605224 0.6018150307709319 I I #
point $-1 -41.552575694472303 -17.67920096705349 5.7190885306209767 #
point $-1 -28.08280277359713 -24.051514327518134 0.91720589400778785 #
straight-curve $-1 0 -24.051514327518134 5.7190885306209767 1 0 0 I I #
vertex $-1 $304 $395 #
point $-1 -36.704069145650827 -19.980772017627313 2.1442624564962669 #
vertex $-1 $308 $396 #
point $-1 -30.931309322418613 -19.980772017627313 2.1442624564962669 #
point $-1 -46.952116458632162 -24.051514327518134 -5.7190885306209767 #
straight-curve $-1 -46.952116458632162 0 -5.7190885306209767 0 1 0 I I #
point $-1 -46.952116458632162 24.051514327518134 -5.7190885306209767 #
straight-curve $-1 -46.952116458632162 24.051514327518134 0 0 0 -1 I I #
edge $-1 $340 -5.7190885306209767 $379 5.7190885306209767 $331 $397 forward 7 unknown #
vertex $-1 $333 $398 #
straight-curve $-1 -52.351657222792014 -22.551514327518134 -5.7190885306209767 0 1 0 I I #
straight-curve $-1 -52.351657222792014 -22.551514327518134 5.7190885306209767 0 -1 0 I I #
point $-1 -52.351657222792014 -21.051514327518134 5.7190885306209767 #
point $-1 -52.351657222792014 -21.051514327518134 -5.7190885306209767 #
point $-1 -52.351657222792014 -24.051514327518134 5.7190885306209767 #
straight-curve $-1 -49.651886840712088 -24.051514327518134 -5.7190885306209767 -1 0 0 I I #
straight-curve $-1 -18.631354097119484 24.051514327518134 53.494444817628306 0 0 -1 I I #
point $-1 -18.631354097119484 24.051514327518134 5.7190885306209767 #
straight-curve $-1 -15.045982447897947 24.051514327518138 2.4762816505099696 -1 0 0 I I #
point $-1 -18.631354097119484 24.051514327518134 2.4762816505099714 #
point $-1 -30.091964895795893 19.269025687081221 0.57460884263107936 #
straight-curve $-1 -41.552575694472303 -24.051514327518134 37.956230153180087 0 0 -1 I I #
point $-1 -41.552575694472303 -24.051514327518134 5.7190885306209767 #
straight-curve $-1 -17.408844617017358 -24.051514327518134 0.91720589400778652 1 0 0 I I #
point $-1 -41.552575694472303 -24.051514327518134 0.91720589400778785 #
point $-1 -37.704069145650827 -19.378956986856384 1.3456269521902149 #
point $-1 -31.931309322418613 -19.378956986856384 1.3456269521902149 #
straight-curve $-1 -52.351657222792014 -24.051514327518134 0 0 0 -1 I I #
point $-1 -52.351657222792014 -24.051514327518134 -5.7190885306209767 #
End-of-ACIS-data 