500 0 11 0           
7 Unknown 11 ACIS 5.0 NT 24 Fri Mar 26 18:56:16 1999 
-1 9.9999999999999995e-007 1e-010 
body $-1 $11 $-1 $12 #
body $-1 $13 $-1 $14 #
body $-1 $15 $-1 $16 #
body $-1 $17 $-1 $18 #
body $-1 $19 $-1 $20 #
body $-1 $21 $-1 $22 #
body $-1 $23 $-1 $24 #
body $-1 $25 $-1 $26 #
body $-1 $27 $-1 $28 #
body $-1 $29 $-1 $30 #
body $-1 $31 $-1 $32 #
lump $-1 $-1 $33 $0 #
transform $-1 1 0 0 0 1 0 0 0 1 49.222693563646352 25.736046347578423 5.6568720544805471 1 rotate no_reflect no_shear #
lump $-1 $-1 $34 $1 #
transform $-1 1 0 0 0 1 0 0 0 1 49.222693563646352 25.736046347578423 5.6568720544805471 1 rotate no_reflect no_shear #
lump $-1 $-1 $35 $2 #
transform $-1 1 0 0 0 1 0 0 0 1 49.222693563646352 25.736046347578423 5.6568720544805471 1 rotate no_reflect no_shear #
lump $-1 $-1 $36 $3 #
transform $-1 1 0 0 0 1 0 0 0 1 49.222693563646352 25.736046347578423 5.6568720544805471 1 rotate no_reflect no_shear #
lump $-1 $-1 $37 $4 #
transform $-1 1 0 0 0 1 0 0 0 1 49.222693563646352 25.736046347578423 5.6568720544805471 1 rotate no_reflect no_shear #
lump $-1 $-1 $38 $5 #
transform $-1 1 0 0 0 1 0 0 0 1 49.222693563646352 25.736046347578423 5.6568720544805471 1 rotate no_reflect no_shear #
lump $-1 $-1 $39 $6 #
transform $-1 1 0 0 0 1 0 0 0 1 49.222693563646352 25.736046347578423 5.6568720544805471 1 rotate no_reflect no_shear #
lump $-1 $-1 $40 $7 #
transform $-1 1 0 0 0 1 0 0 0 1 49.222693563646352 25.736046347578423 5.6568720544805471 1 rotate no_reflect no_shear #
lump $-1 $-1 $41 $8 #
transform $-1 1 0 0 0 1 0 0 0 1 49.222693563646352 25.736046347578423 5.6568720544805471 1 rotate no_reflect no_shear #
lump $-1 $-1 $42 $9 #
transform $-1 1 0 0 0 1 0 0 0 1 49.222693563646352 25.736046347578423 5.6568720544805471 1 rotate no_reflect no_shear #
lump $-1 $-1 $43 $10 #
transform $-1 1 0 0 0 1 0 0 0 1 49.222693563646352 25.736046347578423 5.6568720544805471 1 rotate no_reflect no_shear #
shell $-1 $-1 $-1 $44 $-1 $11 #
shell $-1 $-1 $-1 $45 $-1 $13 #
shell $-1 $-1 $-1 $46 $-1 $15 #
shell $-1 $-1 $-1 $47 $-1 $17 #
shell $-1 $-1 $-1 $48 $-1 $19 #
shell $-1 $-1 $-1 $49 $-1 $21 #
shell $-1 $-1 $-1 $50 $-1 $23 #
shell $-1 $-1 $-1 $51 $-1 $25 #
shell $-1 $-1 $-1 $52 $-1 $27 #
shell $-1 $-1 $-1 $53 $-1 $29 #
shell $-1 $-1 $-1 $54 $-1 $31 #
face $-1 $55 $56 $33 $-1 $57 forward single #
face $-1 $58 $59 $34 $-1 $60 reversed single #
face $-1 $61 $62 $35 $-1 $63 forward single #
face $-1 $64 $65 $36 $-1 $66 forward single #
face $-1 $67 $68 $37 $-1 $69 forward single #
face $-1 $70 $71 $38 $-1 $72 reversed single #
face $-1 $73 $74 $39 $-1 $75 forward single #
face $-1 $76 $77 $40 $-1 $78 forward single #
face $-1 $79 $80 $41 $-1 $81 reversed single #
face $-1 $82 $83 $42 $-1 $84 forward single #
face $-1 $85 $86 $43 $-1 $87 forward single #
face $-1 $88 $89 $33 $-1 $90 reversed single #
loop $-1 $-1 $91 $44 #
plane-surface $-1 0 0 5.6568720544805471 0 0 1 1 0 0 forward_v I I I I #
face $-1 $92 $93 $34 $-1 $94 reversed single #
loop $-1 $-1 $95 $45 #
plane-surface $-1 -21.592990780942777 -21.100682761427453 69.374080970007938 0.69465837861970381 0 0.71933979245794832 0.71933979245794832 0 -0.69465837861970381 forward_v I I I I #
face $-1 $96 $97 $35 $-1 $98 forward single #
loop $-1 $99 $100 $46 #
cone-surface $-1 46.19700018381738 -23.881900913118034 2.69250221166579 -0.69465837861970381 0 -0.71933979245794832 0.35966989622897416 0 -0.3473291893098519 1 I I 0 1 0.5 forward I I I I #
face $-1 $101 $102 $36 $-1 $103 forward single #
loop $-1 $104 $105 $47 #
cone-surface $-1 46.19700018381738 -21.100682761427453 2.69250221166579 -0.69465837861970381 0 -0.71933979245794832 0.35966989622897416 0 -0.3473291893098519 1 I I 0 1 0.5 forward I I I I #
face $-1 $106 $107 $37 $-1 $108 forward single #
loop $-1 $109 $110 $48 #
cone-surface $-1 46.19700018381738 -18.319464609736873 2.69250221166579 -0.69465837861970381 0 -0.71933979245794832 0.35966989622897416 0 -0.3473291893098519 1 I I 0 1 0.5 forward I I I I #
face $-1 $111 $112 $38 $-1 $113 reversed single #
loop $-1 $-1 $114 $49 #
plane-surface $-1 -127.84467633346384 -8.4804280598962833 59.511217970542418 0 1 0 -0.79863551827123203 0 0.60181501223851219 forward_v I I I I #
face $-1 $115 $116 $39 $-1 $117 forward single #
loop $-1 $118 $119 $50 #
cone-surface $-1 -45.761667414957842 -6.0574486142116299 1.8838021925370745 0.79863551827123203 0 -0.60181501223851219 0.60181501223851219 0 0.79863551827123203 1 I I 0 1 1 forward I I I I #
face $-1 $120 $121 $40 $-1 $122 forward single #
loop $-1 $123 $124 $51 #
cone-surface $-1 -45.761667414957842 -2.4229794456846498 1.8838021925370745 0.79863551827123203 0 -0.60181501223851219 0.60181501223851219 0 0.79863551827123203 1 I I 0 1 1 forward I I I I #
face $-1 $125 $126 $41 $-1 $127 reversed single #
loop $-1 $-1 $128 $52 #
plane-surface $-1 -49.222693563646359 -4.2402140299481417 0.26530611170569074 -0.79863551827123203 0 0.60181501223851219 0.60181501223851219 0 0.79863551827123203 forward_v I I I I #
face $-1 $129 $130 $42 $-1 $131 forward single #
loop $-1 $132 $133 $53 #
cone-surface $-1 -45.761667414957842 2.4229794456846534 1.8838021925370745 0.79863551827123203 0 -0.60181501223851219 0.60181501223851219 0 0.79863551827123203 1 I I 0 1 1 forward I I I I #
face $-1 $134 $135 $43 $-1 $136 forward single #
loop $-1 $137 $138 $54 #
cone-surface $-1 -45.761667414957842 6.0574486142116335 1.8838021925370745 0.79863551827123203 0 -0.60181501223851219 0.60181501223851219 0 0.79863551827123203 1 I I 0 1 1 forward I I I I #
face $-1 $139 $140 $33 $-1 $141 reversed single #
loop $-1 $-1 $142 $55 #
plane-surface $-1 0 0 -5.6568720544805471 0 0 1 1 0 0 forward_v I I I I #
coedge $-1 $143 $144 $145 $146 forward $56 $-1 #
face $-1 $147 $148 $34 $-1 $149 forward single #
loop $-1 $-1 $150 $58 #
plane-surface $-1 46.792922223491438 -16.465319175276484 140.18976531459705 0 -1 0 -0.69465837861970381 0 -0.71933979245794832 forward_v I I I I #
coedge $-1 $151 $152 $153 $154 reversed $59 $-1 #
face $-1 $-1 $155 $35 $-1 $156 forward single #
loop $-1 $157 $158 $61 #
cone-surface $-1 45.414934459543538 -23.881900913118034 1.8826494651899539 -0.69465837861970381 0 -0.71933979245794832 0.17983494811448708 0 -0.17366459465492595 1 I I -0.70710678118654746 0.70710678118654746 0.25 forward I I I I #
loop $-1 $-1 $159 $46 #
coedge $-1 $100 $100 $160 $161 reversed $62 $-1 #
face $-1 $-1 $162 $36 $-1 $163 forward single #
loop $-1 $164 $165 $64 #
cone-surface $-1 45.414934459543538 -21.100682761427453 1.8826494651899539 -0.69465837861970381 0 -0.71933979245794832 0.17983494811448708 0 -0.17366459465492595 1 I I -0.70710678118654746 0.70710678118654746 0.25 forward I I I I #
loop $-1 $-1 $166 $47 #
coedge $-1 $105 $105 $167 $168 reversed $65 $-1 #
face $-1 $-1 $169 $37 $-1 $170 forward single #
loop $-1 $171 $172 $67 #
cone-surface $-1 45.414934459543538 -18.319464609736873 1.8826494651899539 -0.69465837861970381 0 -0.71933979245794832 0.17983494811448708 0 -0.17366459465492595 1 I I -0.70710678118654746 0.70710678118654746 0.25 forward I I I I #
loop $-1 $-1 $173 $48 #
coedge $-1 $110 $110 $174 $175 reversed $68 $-1 #
face $-1 $176 $177 $38 $-1 $178 reversed single #
loop $-1 $-1 $179 $70 #
plane-surface $-1 -49.222693563646359 -4.2402140299481417 0.26530611170569074 -0.79863551827123203 0 0.60181501223851219 0.60181501223851219 0 0.79863551827123203 forward_v I I I I #
coedge $-1 $180 $181 $182 $183 reversed $71 $-1 #
face $-1 $-1 $184 $39 $-1 $185 forward single #
loop $-1 $186 $187 $73 #
cone-surface $-1 -43.932741625663859 -6.0574486142116299 0.50560779586177329 0.79863551827123203 0 -0.60181501223851219 0.3009075061192561 0 0.39931775913561601 1 I I -0.70710678118654768 0.70710678118654735 0.5 forward I I I I #
loop $-1 $-1 $188 $50 #
coedge $-1 $119 $119 $189 $190 reversed $74 $-1 #
face $-1 $-1 $191 $40 $-1 $192 forward single #
loop $-1 $193 $194 $76 #
cone-surface $-1 -43.932741625663859 -2.4229794456846498 0.50560779586177329 0.79863551827123203 0 -0.60181501223851219 0.3009075061192561 0 0.39931775913561601 1 I I -0.70710678118654768 0.70710678118654735 0.5 forward I I I I #
loop $-1 $-1 $195 $51 #
coedge $-1 $124 $124 $196 $197 reversed $77 $-1 #
face $-1 $198 $199 $41 $-1 $200 reversed single #
loop $-1 $-1 $201 $79 #
plane-surface $-1 -127.84467633346384 8.4804280598962833 59.511217970542418 0 -1 0 0.79863551827123203 0 -0.60181501223851219 forward_v I I I I #
coedge $-1 $202 $203 $204 $205 reversed $80 $-1 #
face $-1 $-1 $206 $42 $-1 $207 forward single #
loop $-1 $208 $209 $82 #
cone-surface $-1 -43.932741625663859 2.4229794456846534 0.50560779586177329 0.79863551827123203 0 -0.60181501223851219 0.3009075061192561 0 0.39931775913561601 1 I I -0.70710678118654768 0.70710678118654735 0.5 forward I I I I #
loop $-1 $-1 $210 $53 #
coedge $-1 $133 $133 $211 $212 reversed $83 $-1 #
face $-1 $-1 $213 $43 $-1 $214 forward single #
loop $-1 $215 $216 $85 #
cone-surface $-1 -43.932741625663859 6.0574486142116335 0.50560779586177329 0.79863551827123203 0 -0.60181501223851219 0.3009075061192561 0 0.39931775913561601 1 I I -0.70710678118654768 0.70710678118654735 0.5 forward I I I I #
loop $-1 $-1 $217 $54 #
coedge $-1 $138 $138 $218 $219 reversed $86 $-1 #
face $-1 $220 $221 $33 $-1 $222 reversed single #
loop $-1 $-1 $223 $88 #
plane-surface $-1 0 -25.736046347578423 0 0 1 0 0 0 1 forward_v I I I I #
coedge $-1 $224 $225 $226 $227 forward $89 $-1 #
coedge $-1 $228 $91 $229 $230 forward $56 $-1 #
coedge $-1 $91 $228 $231 $232 forward $56 $-1 #
coedge $-1 $233 $234 $91 $146 reversed $235 $-1 #
edge $-1 $236 -25.736046347578423 $237 25.736046347578423 $145 $238 forward 7 unknown #
face $-1 $239 $240 $34 $-1 $241 reversed single #
loop $-1 $-1 $242 $92 #
plane-surface $-1 0 0 5.6568720544805471 0 0 1 1 0 0 forward_v I I I I #
coedge $-1 $243 $244 $245 $246 reversed $93 $-1 #
coedge $-1 $247 $95 $248 $249 reversed $59 $-1 #
coedge $-1 $95 $247 $243 $250 forward $59 $-1 #
coedge $-1 $245 $251 $95 $154 forward $252 $-1 #
edge $-1 $253 -15.185704966864696 $254 -5.9149777945627573 $153 $255 forward 7 unknown #
loop $-1 $-1 $160 $96 #
plane-surface $-1 -21.592990780942777 -21.100682761427453 69.374080970007938 0.69465837861970381 0 0.71933979245794832 0.71933979245794832 0 -0.69465837861970381 forward_v I I I I #
loop $-1 $-1 $256 $61 #
coedge $-1 $158 $158 $159 $257 reversed $97 $-1 #
coedge $-1 $159 $159 $158 $257 forward $99 $-1 #
coedge $-1 $160 $160 $100 $161 forward $155 $-1 #
edge $-1 $258 0 $258 6.2831853071796004 $160 $259 forward 7 unknown #
loop $-1 $-1 $167 $101 #
plane-surface $-1 -21.592990780942777 -21.100682761427453 69.374080970007938 0.69465837861970381 0 0.71933979245794832 0.71933979245794832 0 -0.69465837861970381 forward_v I I I I #
loop $-1 $-1 $260 $64 #
coedge $-1 $165 $165 $166 $261 reversed $102 $-1 #
coedge $-1 $166 $166 $165 $261 forward $104 $-1 #
coedge $-1 $167 $167 $105 $168 forward $162 $-1 #
edge $-1 $262 0 $262 6.2831853071796004 $167 $263 forward 7 unknown #
loop $-1 $-1 $174 $106 #
plane-surface $-1 -21.592990780942777 -21.100682761427453 69.374080970007938 0.69465837861970381 0 0.71933979245794832 0.71933979245794832 0 -0.69465837861970381 forward_v I I I I #
loop $-1 $-1 $264 $67 #
coedge $-1 $172 $172 $173 $265 reversed $107 $-1 #
coedge $-1 $173 $173 $172 $265 forward $109 $-1 #
coedge $-1 $174 $174 $110 $175 forward $169 $-1 #
edge $-1 $266 0 $266 6.2831853071796004 $174 $267 forward 7 unknown #
face $-1 $268 $269 $38 $-1 $270 reversed single #
loop $-1 $-1 $271 $111 #
plane-surface $-1 -127.84467633346384 0 59.511217970542418 0 -1 0 0.79863551827123203 0 -0.60181501223851219 forward_v I I I I #
coedge $-1 $272 $273 $274 $275 reversed $112 $-1 #
coedge $-1 $181 $114 $276 $277 reversed $71 $-1 #
coedge $-1 $114 $180 $272 $278 reversed $71 $-1 #
coedge $-1 $274 $279 $114 $183 forward $280 $-1 #
edge $-1 $281 14.699644603085567 $282 18.762480840145862 $182 $283 forward 7 unknown #
loop $-1 $-1 $189 $115 #
plane-surface $-1 -49.222693563646359 -4.2402140299481417 0.26530611170569074 -0.79863551827123203 0 0.60181501223851219 0.60181501223851219 0 0.79863551827123203 forward_v I I I I #
loop $-1 $-1 $284 $73 #
coedge $-1 $187 $187 $188 $285 reversed $116 $-1 #
coedge $-1 $188 $188 $187 $285 forward $118 $-1 #
coedge $-1 $189 $189 $119 $190 forward $184 $-1 #
edge $-1 $286 0 $286 6.2831853071796004 $189 $287 forward 7 unknown #
loop $-1 $-1 $196 $120 #
plane-surface $-1 -49.222693563646359 -4.2402140299481417 0.26530611170569074 -0.79863551827123203 0 0.60181501223851219 0.60181501223851219 0 0.79863551827123203 forward_v I I I I #
loop $-1 $-1 $288 $76 #
coedge $-1 $194 $194 $195 $289 reversed $121 $-1 #
coedge $-1 $195 $195 $194 $289 forward $123 $-1 #
coedge $-1 $196 $196 $124 $197 forward $191 $-1 #
edge $-1 $290 0 $290 6.2831853071796004 $196 $291 forward 7 unknown #
face $-1 $292 $293 $41 $-1 $294 forward single #
loop $-1 $-1 $295 $125 #
plane-surface $-1 -49.222693563646352 0 0 1 0 0 0 0 -1 forward_v I I I I #
coedge $-1 $296 $297 $298 $299 reversed $126 $-1 #
coedge $-1 $300 $128 $301 $302 reversed $80 $-1 #
coedge $-1 $128 $300 $303 $304 reversed $80 $-1 #
coedge $-1 $305 $306 $128 $205 forward $293 $-1 #
edge $-1 $307 1.1812792947853924e-014 $308 6.750971900731038 $204 $309 forward 7 unknown #
loop $-1 $-1 $211 $129 #
plane-surface $-1 -49.222693563646359 -4.2402140299481417 0.26530611170569074 -0.79863551827123203 0 0.60181501223851219 0.60181501223851219 0 0.79863551827123203 forward_v I I I I #
loop $-1 $-1 $310 $82 #
coedge $-1 $209 $209 $210 $311 reversed $130 $-1 #
coedge $-1 $210 $210 $209 $311 forward $132 $-1 #
coedge $-1 $211 $211 $133 $212 forward $206 $-1 #
edge $-1 $312 0 $312 6.2831853071796004 $211 $313 forward 7 unknown #
loop $-1 $-1 $218 $134 #
plane-surface $-1 -49.222693563646359 -4.2402140299481417 0.26530611170569074 -0.79863551827123203 0 0.60181501223851219 0.60181501223851219 0 0.79863551827123203 forward_v I I I I #
loop $-1 $-1 $314 $85 #
coedge $-1 $216 $216 $217 $315 reversed $135 $-1 #
coedge $-1 $217 $217 $216 $315 forward $137 $-1 #
coedge $-1 $218 $218 $138 $219 forward $213 $-1 #
edge $-1 $316 0 $316 6.2831853071796004 $218 $317 forward 7 unknown #
face $-1 $318 $319 $33 $-1 $320 reversed single #
loop $-1 $-1 $321 $139 #
plane-surface $-1 -49.222693563646352 0 0 1 0 0 0 0 -1 forward_v I I I I #
coedge $-1 $322 $231 $323 $324 forward $140 $-1 #
coedge $-1 $325 $142 $322 $326 forward $89 $-1 #
coedge $-1 $142 $325 $327 $328 forward $89 $-1 #
coedge $-1 $234 $233 $142 $227 reversed $235 $-1 #
edge $-1 $329 -25.736046347578423 $330 25.736046347578423 $226 $331 forward 7 unknown #
coedge $-1 $144 $143 $332 $333 forward $56 $-1 #
coedge $-1 $334 $335 $143 $230 reversed $319 $-1 #
edge $-1 $237 -49.222693563646352 $336 49.222693563646352 $229 $337 forward 7 unknown #
coedge $-1 $223 $338 $144 $232 reversed $140 $-1 #
edge $-1 $339 -49.222693563646352 $236 49.222693563646352 $231 $340 forward 7 unknown #
coedge $-1 $226 $145 $338 $341 forward $235 $-1 #
coedge $-1 $145 $226 $334 $342 reversed $235 $-1 #
loop $-1 $-1 $233 $318 #
vertex $-1 $146 $343 #
vertex $-1 $146 $344 #
straight-curve $-1 49.222693563646352 0 5.6568720544805471 0 1 0 I I #
face $-1 $-1 $252 $34 $-1 $345 reversed single #
loop $-1 $-1 $248 $147 #
plane-surface $-1 0 -25.736046347578423 0 0 1 0 0 0 1 forward_v I I I I #
coedge $-1 $346 $347 $244 $348 forward $148 $-1 #
coedge $-1 $244 $150 $152 $250 reversed $93 $-1 #
coedge $-1 $150 $243 $242 $348 reversed $93 $-1 #
coedge $-1 $349 $153 $150 $246 forward $252 $-1 #
edge $-1 $254 -69.106714691724818 $350 -64.438010602817982 $245 $351 forward 7 unknown #
coedge $-1 $152 $151 $346 $352 reversed $59 $-1 #
coedge $-1 $353 $354 $151 $249 forward $240 $-1 #
edge $-1 $355 59.862531647601102 $253 66.583395071408958 $248 $356 forward 7 unknown #
edge $-1 $357 91.724523703484863 $254 98.445387127292719 $243 $358 forward 7 unknown #
coedge $-1 $153 $349 $353 $359 forward $252 $-1 #
loop $-1 $-1 $245 $239 #
vertex $-1 $249 $360 #
vertex $-1 $154 $361 #
straight-curve $-1 49.222693563646352 -10.550341380713727 0.988167965573723 0 1 0 I I #
coedge $-1 $256 $256 $-1 $362 reversed $157 $-1 #
edge $-1 $363 0 $363 6.2831853071796004 $158 $364 forward 7 unknown #
vertex $-1 $161 $365 #
ellipse-curve $-1 46.805401313436271 -23.881900913118034 3.3225200100271159 0.69465837861970381 0 0.71933979245794832 0.35966989622897416 0 -0.3473291893098519 1 I I #
coedge $-1 $260 $260 $-1 $366 reversed $164 $-1 #
edge $-1 $367 0 $367 6.2831853071796004 $165 $368 forward 7 unknown #
vertex $-1 $168 $369 #
ellipse-curve $-1 46.805401313436271 -21.100682761427453 3.3225200100271159 0.69465837861970381 0 0.71933979245794832 0.35966989622897416 0 -0.3473291893098519 1 I I #
coedge $-1 $264 $264 $-1 $370 reversed $171 $-1 #
edge $-1 $371 0 $371 6.2831853071796004 $172 $372 forward 7 unknown #
vertex $-1 $175 $373 #
ellipse-curve $-1 46.805401313436271 -18.319464609736873 3.3225200100271159 0.69465837861970381 0 0.71933979245794832 0.35966989622897416 0 -0.3473291893098519 1 I I #
face $-1 $-1 $280 $38 $-1 $374 forward single #
loop $-1 $-1 $375 $176 #
plane-surface $-1 -49.222693563646352 0 0 1 0 0 0 0 -1 forward_v I I I I #
coedge $-1 $376 $377 $378 $379 reversed $177 $-1 #
coedge $-1 $380 $179 $181 $278 forward $112 $-1 #
coedge $-1 $179 $380 $376 $381 forward $112 $-1 #
coedge $-1 $378 $182 $179 $275 forward $280 $-1 #
edge $-1 $282 -6.3603210449222125 $382 2.1201070149740708 $274 $383 forward 7 unknown #
coedge $-1 $384 $385 $180 $277 forward $269 $-1 #
edge $-1 $386 -29.490302873565508 $281 -24.098736930790661 $276 $387 forward 7 unknown #
edge $-1 $282 -6.750971900731038 $386 -1.1812792947853924e-014 $181 $388 forward 7 unknown #
coedge $-1 $182 $378 $384 $389 forward $280 $-1 #
loop $-1 $-1 $378 $268 #
vertex $-1 $277 $390 #
vertex $-1 $183 $391 #
straight-curve $-1 -63.922338166731919 -8.4804280598962833 5.656872054480548 1 0 0 I I #
coedge $-1 $284 $284 $-1 $392 reversed $186 $-1 #
edge $-1 $393 0 $393 6.2831853071796004 $187 $394 forward 7 unknown #
vertex $-1 $190 $395 #
ellipse-curve $-1 -47.191275445116204 -6.0574486142116299 2.9610890830931211 -0.79863551827123203 0 0.60181501223851219 0.60181501223851219 0 0.79863551827123203 1 I I #
coedge $-1 $288 $288 $-1 $396 reversed $193 $-1 #
edge $-1 $397 0 $397 6.2831853071796004 $194 $398 forward 7 unknown #
vertex $-1 $197 $399 #
ellipse-curve $-1 -47.191275445116204 -2.4229794456846498 2.9610890830931211 -0.79863551827123203 0 0.60181501223851219 0.60181501223851219 0 0.79863551827123203 1 I I #
face $-1 $-1 $400 $41 $-1 $401 forward single #
loop $-1 $-1 $305 $198 #
plane-surface $-1 -127.84467633346384 0 59.511217970542418 0 -1 0 0.79863551827123203 0 -0.60181501223851219 forward_v I I I I #
coedge $-1 $301 $402 $297 $403 forward $199 $-1 #
coedge $-1 $297 $201 $300 $404 reversed $126 $-1 #
coedge $-1 $201 $296 $295 $403 reversed $126 $-1 #
coedge $-1 $405 $303 $201 $299 forward $400 $-1 #
edge $-1 $406 -18.762480840145862 $407 -14.699644603085567 $298 $408 forward 7 unknown #
coedge $-1 $203 $202 $296 $404 forward $80 $-1 #
coedge $-1 $409 $295 $202 $302 forward $199 $-1 #
edge $-1 $410 -10.600535074870354 $307 -2.1201070149740708 $301 $411 forward 7 unknown #
coedge $-1 $298 $412 $203 $304 forward $400 $-1 #
edge $-1 $308 2.1201070149740708 $406 10.600535074870354 $303 $413 forward 7 unknown #
coedge $-1 $306 $204 $412 $414 reversed $293 $-1 #
coedge $-1 $204 $305 $409 $415 reversed $293 $-1 #
vertex $-1 $302 $416 #
vertex $-1 $304 $417 #
straight-curve $-1 -49.222693563646359 0 0.26530611170569074 0.60181501223851219 0 0.79863551827123203 I I #
coedge $-1 $310 $310 $-1 $418 reversed $208 $-1 #
edge $-1 $419 0 $419 6.2831853071796004 $209 $420 forward 7 unknown #
vertex $-1 $212 $421 #
ellipse-curve $-1 -47.191275445116204 2.4229794456846534 2.9610890830931211 -0.79863551827123203 0 0.60181501223851219 0.60181501223851219 0 0.79863551827123203 1 I I #
coedge $-1 $314 $314 $-1 $422 reversed $215 $-1 #
edge $-1 $423 0 $423 6.2831853071796004 $216 $424 forward 7 unknown #
vertex $-1 $219 $425 #
ellipse-curve $-1 -47.191275445116204 6.0574486142116335 2.9610890830931211 -0.79863551827123203 0 0.60181501223851219 0.60181501223851219 0 0.79863551827123203 1 I I #
face $-1 $-1 $235 $33 $-1 $426 reversed single #
loop $-1 $-1 $334 $220 #
plane-surface $-1 0 25.736046347578423 0 0 -1 0 0 0 -1 forward_v I I I I #
coedge $-1 $427 $332 $335 $428 forward $221 $-1 #
coedge $-1 $338 $223 $224 $326 reversed $140 $-1 #
coedge $-1 $332 $427 $223 $324 reversed $221 $-1 #
edge $-1 $339 -5.6568720544805471 $429 5.6568720544805471 $323 $430 forward 7 unknown #
coedge $-1 $225 $224 $427 $431 forward $89 $-1 #
edge $-1 $330 -49.222693563646352 $429 49.222693563646352 $322 $432 forward 7 unknown #
coedge $-1 $335 $334 $225 $328 reversed $319 $-1 #
edge $-1 $433 -49.222693563646352 $329 49.222693563646352 $327 $434 forward 7 unknown #
vertex $-1 $227 $435 #
vertex $-1 $341 $436 #
straight-curve $-1 49.222693563646352 0 -5.6568720544805471 0 -1 0 I I #
coedge $-1 $321 $323 $228 $333 reversed $221 $-1 #
edge $-1 $336 -25.736046347578423 $339 25.736046347578423 $332 $437 forward 7 unknown #
coedge $-1 $327 $229 $234 $342 forward $319 $-1 #
coedge $-1 $229 $327 $321 $428 reversed $319 $-1 #
vertex $-1 $230 $438 #
straight-curve $-1 0 25.736046347578423 5.6568720544805471 -1 0 0 I I #
coedge $-1 $231 $322 $233 $341 reversed $140 $-1 #
vertex $-1 $333 $439 #
straight-curve $-1 0 -25.736046347578423 5.6568720544805471 1 0 0 I I #
edge $-1 $236 -5.6568720544805471 $330 5.6568720544805471 $233 $440 forward 7 unknown #
edge $-1 $237 -5.6568720544805471 $329 5.6568720544805471 $234 $441 forward 7 unknown #
point $-1 49.222693563646352 -25.736046347578423 5.6568720544805471 #
point $-1 49.222693563646352 25.736046347578423 5.6568720544805471 #
plane-surface $-1 49.222693563646352 0 0 -1 0 0 0 0 1 forward_v I I I I #
coedge $-1 $442 $242 $247 $352 forward $148 $-1 #
coedge $-1 $242 $442 $349 $443 forward $148 $-1 #
edge $-1 $350 -25.826232451900633 $357 -20.99164795148047 $242 $444 forward 7 unknown #
coedge $-1 $251 $245 $347 $443 reversed $252 $-1 #
vertex $-1 $246 $445 #
straight-curve $-1 49.222693563646352 -16.465319175276484 70.094882657298527 0 0 1 I I #
edge $-1 $357 5.9149777945627573 $355 15.185704966864696 $346 $446 forward 7 unknown #
coedge $-1 $354 $248 $251 $359 reversed $240 $-1 #
coedge $-1 $248 $353 $442 $447 reversed $240 $-1 #
vertex $-1 $447 $448 #
straight-curve $-1 1.3266079718334503 -25.736046347578423 47.240881228873839 0.71933979245794832 0 -0.69465837861970381 I I #
vertex $-1 $352 $449 #
straight-curve $-1 -21.592990780942777 -16.465319175276484 69.374080970007938 0.71933979245794832 0 -0.69465837861970381 I I #
edge $-1 $450 -5.6568720544805471 $253 -0.98816796557371034 $251 $451 forward 7 unknown #
point $-1 49.222693563646352 -25.736046347578423 0.98816796557371034 #
point $-1 49.222693563646352 -16.465319175276484 0.98816796557370878 #
edge $-1 $452 1 $452 0 $256 $-1 forward 7 unknown #
vertex $-1 $257 $453 #
ellipse-curve $-1 45.588599054198461 -23.881900913118034 2.0624844133044409 0.69465837861970381 0 0.71933979245794832 0.35966989622897416 0 -0.3473291893098519 1 I I #
point $-1 47.165071209665264 -23.881900913118034 2.9751908207172866 #
edge $-1 $454 1 $454 0 $260 $-1 forward 7 unknown #
vertex $-1 $261 $455 #
ellipse-curve $-1 45.588599054198461 -21.100682761427453 2.0624844133044409 0.69465837861970381 0 0.71933979245794832 0.35966989622897416 0 -0.3473291893098519 1 I I #
point $-1 47.165071209665264 -21.100682761427453 2.9751908207172866 #
edge $-1 $456 1 $456 0 $264 $-1 forward 7 unknown #
vertex $-1 $265 $457 #
ellipse-curve $-1 45.588599054198461 -18.319464609736873 2.0624844133044409 0.69465837861970381 0 0.71933979245794832 0.35966989622897416 0 -0.3473291893098519 1 I I #
point $-1 47.165071209665264 -18.319464609736873 2.9751908207172866 #
plane-surface $-1 0 0 5.6568720544805471 0 0 1 1 0 0 forward_v I I I I #
coedge $-1 $385 $384 $377 $458 forward $269 $-1 #
coedge $-1 $377 $271 $273 $381 reversed $177 $-1 #
coedge $-1 $271 $376 $375 $458 reversed $177 $-1 #
coedge $-1 $279 $274 $271 $379 forward $280 $-1 #
edge $-1 $382 -18.762480840145862 $459 -14.699644603085567 $378 $460 forward 7 unknown #
coedge $-1 $273 $272 $385 $461 reversed $112 $-1 #
edge $-1 $462 1.1812792947853924e-014 $382 6.750971900731038 $376 $463 forward 7 unknown #
vertex $-1 $275 $464 #
straight-curve $-1 -45.159857326586064 -2.1201070149740708 5.6568720544805462 0 1 0 I I #
coedge $-1 $375 $276 $279 $389 reversed $269 $-1 #
coedge $-1 $276 $375 $380 $461 forward $269 $-1 #
vertex $-1 $277 $465 #
straight-curve $-1 -49.222693563646352 -8.4804280598962833 29.755608985271209 0 0 1 I I #
straight-curve $-1 -49.222693563646359 -8.4804280598962833 0.26530611170569074 -0.60181501223851219 0 -0.79863551827123203 I I #
edge $-1 $459 0 $281 8.4804280598962833 $384 $466 forward 7 unknown #
point $-1 -49.222693563646352 -8.4804280598962833 5.6568720544805471 #
point $-1 -45.159857326586057 -8.4804280598962833 5.6568720544805471 #
edge $-1 $467 1 $467 0 $284 $-1 forward 7 unknown #
vertex $-1 $285 $468 #
ellipse-curve $-1 -44.332059384799472 -6.0574486142116299 0.80651530198102928 -0.79863551827123203 0 0.60181501223851219 0.60181501223851219 0 0.79863551827123203 1 I I #
point $-1 -46.589460432877686 -6.0574486142116299 3.7597246013643515 #
edge $-1 $469 1 $469 0 $288 $-1 forward 7 unknown #
vertex $-1 $289 $470 #
ellipse-curve $-1 -44.332059384799472 -2.4229794456846498 0.80651530198102928 -0.79863551827123203 0 0.60181501223851219 0.60181501223851219 0 0.79863551827123203 1 I I #
point $-1 -46.589460432877686 -2.4229794456846498 3.7597246013643515 #
loop $-1 $-1 $298 $292 #
plane-surface $-1 0 0 5.6568720544805471 0 0 1 1 0 0 forward_v I I I I #
coedge $-1 $295 $409 $405 $471 reversed $199 $-1 #
edge $-1 $407 24.098736930790661 $410 29.490302873565508 $295 $472 forward 7 unknown #
edge $-1 $410 1.1812792947853924e-014 $406 6.750971900731038 $296 $473 forward 7 unknown #
coedge $-1 $412 $298 $402 $471 forward $400 $-1 #
vertex $-1 $299 $474 #
vertex $-1 $471 $475 #
straight-curve $-1 -63.922338166731919 8.4804280598962833 5.656872054480548 -1 0 0 I I #
coedge $-1 $402 $301 $306 $415 forward $199 $-1 #
vertex $-1 $403 $476 #
straight-curve $-1 -49.222693563646352 -2.1201070149740708 0.26530611170570156 0 -1 0 I I #
coedge $-1 $303 $405 $305 $414 forward $400 $-1 #
straight-curve $-1 -45.159857326586064 -2.1201070149740708 5.6568720544805462 0 1 0 I I #
edge $-1 $477 14.699644603085567 $308 18.762480840145862 $412 $478 forward 7 unknown #
edge $-1 $307 -29.490302873565508 $477 -24.098736930790661 $409 $479 forward 7 unknown #
point $-1 -49.222693563646352 0 0.26530611170570018 #
point $-1 -45.159857326586057 0 5.6568720544805471 #
edge $-1 $480 1 $480 0 $310 $-1 forward 7 unknown #
vertex $-1 $311 $481 #
ellipse-curve $-1 -44.332059384799472 2.4229794456846534 0.80651530198102928 -0.79863551827123203 0 0.60181501223851219 0.60181501223851219 0 0.79863551827123203 1 I I #
point $-1 -46.589460432877686 2.4229794456846534 3.7597246013643515 #
edge $-1 $482 1 $482 0 $314 $-1 forward 7 unknown #
vertex $-1 $315 $483 #
ellipse-curve $-1 -44.332059384799472 6.0574486142116335 0.80651530198102928 -0.79863551827123203 0 0.60181501223851219 0.60181501223851219 0 0.79863551827123203 1 I I #
point $-1 -46.589460432877686 6.0574486142116335 3.7597246013643515 #
plane-surface $-1 49.222693563646352 0 0 -1 0 0 0 0 1 forward_v I I I I #
coedge $-1 $323 $321 $325 $431 reversed $221 $-1 #
edge $-1 $336 -5.6568720544805471 $433 5.6568720544805471 $335 $484 forward 7 unknown #
vertex $-1 $431 $485 #
straight-curve $-1 -49.222693563646352 -25.736046347578423 0 0 0 -1 I I #
edge $-1 $429 -25.736046347578423 $433 25.736046347578423 $427 $486 forward 7 unknown #
straight-curve $-1 0 -25.736046347578423 -5.6568720544805471 -1 0 0 I I #
vertex $-1 $328 $487 #
straight-curve $-1 0 25.736046347578423 -5.6568720544805471 1 0 0 I I #
point $-1 49.222693563646352 25.736046347578423 -5.6568720544805471 #
point $-1 49.222693563646352 -25.736046347578423 -5.6568720544805471 #
straight-curve $-1 -49.222693563646352 0 5.6568720544805471 0 -1 0 I I #
point $-1 -49.222693563646352 25.736046347578423 5.6568720544805471 #
point $-1 -49.222693563646352 -25.736046347578423 5.6568720544805471 #
straight-curve $-1 49.222693563646352 -25.736046347578423 0 0 0 -1 I I #
straight-curve $-1 49.222693563646352 25.736046347578423 0 0 0 -1 I I #
coedge $-1 $347 $346 $354 $447 forward $148 $-1 #
edge $-1 $450 -25.736046347578423 $350 -16.465319175276484 $349 $488 forward 7 unknown #
straight-curve $-1 23.396461111745719 -16.465319175276484 5.6568720544805444 -1 0 0 I I #
point $-1 49.222693563646352 -16.465319175276484 5.6568720544805471 #
straight-curve $-1 44.388109063226182 -10.550341380713727 5.6568720544805444 0 -1 0 I I #
edge $-1 $355 44.388109063226189 $450 49.222693563646352 $354 $489 forward 7 unknown #
point $-1 44.388109063226189 -25.736046347578423 5.6568720544805444 #
point $-1 44.388109063226189 -16.465319175276484 5.6568720544805444 #
vertex $-1 $443 $490 #
straight-curve $-1 49.222693563646352 -25.736046347578423 0 0 0 -1 I I #
vertex $-1 $362 $491 #
point $-1 45.94826895042744 -23.881900913118034 1.7151552239945891 #
vertex $-1 $366 $492 #
point $-1 45.94826895042744 -21.100682761427453 1.7151552239945891 #
vertex $-1 $370 $493 #
point $-1 45.94826895042744 -18.319464609736873 1.7151552239945891 #
edge $-1 $459 24.098736930790661 $462 29.490302873565508 $375 $494 forward 7 unknown #
vertex $-1 $389 $495 #
straight-curve $-1 -63.922338166731919 0 5.656872054480548 -1 0 0 I I #
edge $-1 $462 -2.1201070149740708 $386 6.3603210449222125 $385 $496 forward 7 unknown #
vertex $-1 $461 $497 #
straight-curve $-1 -49.222693563646359 0 0.26530611170569074 0.60181501223851219 0 0.79863551827123203 I I #
point $-1 -45.159857326586057 0 5.6568720544805471 #
point $-1 -49.222693563646352 -8.4804280598962833 0.26530611170570018 #
straight-curve $-1 -49.222693563646352 0 5.6568720544805471 0 -1 0 I I #
vertex $-1 $392 $498 #
point $-1 -43.730244372560961 -6.0574486142116299 1.6051508202522613 #
vertex $-1 $396 $499 #
point $-1 -43.730244372560961 -2.4229794456846498 1.6051508202522613 #
edge $-1 $407 -8.4804280598962833 $477 0 $402 $500 forward 7 unknown #
straight-curve $-1 -49.222693563646352 8.4804280598962833 29.755608985271209 0 0 -1 I I #
straight-curve $-1 -49.222693563646359 8.4804280598962833 0.26530611170569074 0.60181501223851219 0 0.79863551827123203 I I #
point $-1 -45.159857326586057 8.4804280598962833 5.6568720544805471 #
point $-1 -49.222693563646352 8.4804280598962833 5.6568720544805471 #
point $-1 -49.222693563646352 8.4804280598962833 0.26530611170570018 #
vertex $-1 $415 $501 #
straight-curve $-1 -63.922338166731919 0 5.656872054480548 1 0 0 I I #
straight-curve $-1 -49.222693563646352 0 29.755608985271209 0 0 1 I I #
vertex $-1 $418 $502 #
point $-1 -43.730244372560961 2.4229794456846534 1.6051508202522613 #
vertex $-1 $422 $503 #
point $-1 -43.730244372560961 6.0574486142116335 1.6051508202522613 #
straight-curve $-1 -49.222693563646352 25.736046347578423 0 0 0 -1 I I #
point $-1 -49.222693563646352 -25.736046347578423 -5.6568720544805471 #
straight-curve $-1 -49.222693563646352 0 -5.6568720544805471 0 1 0 I I #
point $-1 -49.222693563646352 25.736046347578423 -5.6568720544805471 #
straight-curve $-1 49.222693563646352 0 5.6568720544805471 0 1 0 I I #
straight-curve $-1 0 -25.736046347578423 5.6568720544805471 1 0 0 I I #
point $-1 49.222693563646352 -25.736046347578423 5.6568720544805471 #
point $-1 45.241269864888615 -23.881900913118034 1.7028145170754669 #
point $-1 45.241269864888615 -21.100682761427453 1.7028145170754669 #
point $-1 45.241269864888615 -18.319464609736873 1.7028145170754669 #
straight-curve $-1 -49.222693563646352 0 29.755608985271209 0 0 -1 I I #
point $-1 -49.222693563646352 0 5.6568720544805471 #
straight-curve $-1 -49.222693563646352 -2.1201070149740708 0.26530611170570156 0 -1 0 I I #
point $-1 -49.222693563646352 0 0.26530611170570018 #
point $-1 -43.533423866528246 -6.0574486142116299 0.20470028974251731 #
point $-1 -43.533423866528246 -2.4229794456846498 0.20470028974251731 #
straight-curve $-1 -49.222693563646352 0 5.6568720544805471 0 -1 0 I I #
point $-1 -49.222693563646352 0 5.6568720544805471 #
point $-1 -43.533423866528246 2.4229794456846534 0.20470028974251731 #
point $-1 -43.533423866528246 6.0574486142116335 0.20470028974251731 #
End-of-ACIS-data 