500 0 6 0           
7 Unknown 11 ACIS 5.0 NT 24 Thu Mar 25 18:03:00 1999 
-1 9.9999999999999995e-007 1e-010 
body $-1 $6 $-1 $7 #
body $-1 $8 $-1 $9 #
body $-1 $10 $-1 $11 #
body $-1 $12 $-1 $13 #
body $-1 $14 $-1 $15 #
body $-1 $16 $-1 $17 #
lump $-1 $-1 $18 $0 #
transform $-1 1 0 0 0 1 0 0 0 1 44.361705374309516 31.001611957922261 9.9464017514952587 1 rotate no_reflect no_shear #
lump $-1 $-1 $19 $1 #
transform $-1 1 0 0 0 1 0 0 0 1 44.361705374309516 31.001611957922261 9.9464017514952587 1 rotate no_reflect no_shear #
lump $-1 $-1 $20 $2 #
transform $-1 1 0 0 0 1 0 0 0 1 44.361705374309516 31.001611957922261 9.9464017514952587 1 rotate no_reflect no_shear #
lump $-1 $-1 $21 $3 #
transform $-1 1 0 0 0 1 0 0 0 1 44.361705374309516 31.001611957922261 9.9464017514952587 1 rotate no_reflect no_shear #
lump $-1 $-1 $22 $4 #
transform $-1 1 0 0 0 1 0 0 0 1 44.361705374309516 31.001611957922261 9.9464017514952587 1 rotate no_reflect no_shear #
lump $-1 $-1 $23 $5 #
transform $-1 1 0 0 0 1 0 0 0 1 44.361705374309516 31.001611957922261 9.9464017514952587 1 rotate no_reflect no_shear #
shell $-1 $-1 $-1 $24 $-1 $6 #
shell $-1 $-1 $-1 $25 $-1 $8 #
shell $-1 $-1 $-1 $26 $-1 $10 #
shell $-1 $-1 $-1 $27 $-1 $12 #
shell $-1 $-1 $-1 $28 $-1 $14 #
shell $-1 $-1 $-1 $29 $-1 $16 #
face $-1 $30 $31 $18 $-1 $32 forward single #
face $-1 $33 $34 $19 $-1 $35 reversed single #
face $-1 $36 $37 $20 $-1 $38 forward single #
face $-1 $39 $40 $21 $-1 $41 reversed single #
face $-1 $42 $43 $22 $-1 $44 forward single #
face $-1 $45 $46 $23 $-1 $47 forward single #
face $-1 $48 $49 $18 $-1 $50 reversed single #
loop $-1 $-1 $51 $24 #
plane-surface $-1 0 0 9.9464017514952587 0 0 1 1 0 0 forward_v I I I I #
face $-1 $52 $53 $19 $-1 $54 reversed single #
loop $-1 $-1 $55 $25 #
plane-surface $-1 -42.132165708653289 -22.740886561736872 0 0 -1 0 0 0 -1 forward_v I I I I #
face $-1 $56 $57 $20 $-1 $58 reversed single #
loop $-1 $-1 $59 $26 #
plane-surface $-1 0 27.656792496519667 -4.6430909509833533 0 0 1 1 0 0 forward_v I I I I #
face $-1 $60 $61 $21 $-1 $62 reversed single #
loop $-1 $-1 $63 $27 #
plane-surface $-1 70.449187647277284 -11.174191233150559 124.50824199467918 0 -1 0 -0.83867057594974714 0 -0.54463902268945019 forward_v I I I I #
face $-1 $64 $65 $22 $-1 $66 forward single #
loop $-1 $67 $68 $28 #
cone-surface $-1 40.674573813216504 -19.436116467855069 5.1896879471924127 -0.83867057594974714 0 -0.54463902268945019 0.54463902268945019 0 -0.83867057594974714 1 I I 0 1 1 forward I I I I #
face $-1 $69 $70 $23 $-1 $71 forward single #
loop $-1 $72 $73 $29 #
cone-surface $-1 40.674573813216504 -14.478961327032362 5.1896879471924127 -0.83867057594974714 0 -0.54463902268945019 0.54463902268945019 0 -0.83867057594974714 1 I I 0 1 1 forward I I I I #
face $-1 $74 $75 $18 $-1 $76 reversed single #
loop $-1 $-1 $77 $30 #
plane-surface $-1 0 0 -9.9464017514952587 0 0 1 1 0 0 forward_v I I I I #
coedge $-1 $78 $79 $80 $81 forward $31 $-1 #
face $-1 $82 $83 $19 $-1 $84 forward single #
loop $-1 $-1 $85 $33 #
plane-surface $-1 -39.902626042997063 -26.871249259829568 0 -1 0 0 0 0 1 forward_v I I I I #
coedge $-1 $86 $87 $88 $89 forward $34 $-1 #
face $-1 $90 $91 $20 $-1 $92 reversed single #
loop $-1 $-1 $93 $36 #
plane-surface $-1 0 24.311973035117074 -7.294746351239306 0 1 0 0 0 1 forward_v I I I I #
coedge $-1 $94 $95 $96 $97 reversed $37 $-1 #
face $-1 $98 $99 $21 $-1 $100 reversed single #
loop $-1 $-1 $101 $39 #
plane-surface $-1 -3.9605263454930224 -16.957538897443715 76.186010274876651 0.83867057594974714 0 0.54463902268945019 0.54463902268945019 0 -0.83867057594974714 forward_v I I I I #
coedge $-1 $102 $103 $104 $105 reversed $40 $-1 #
face $-1 $-1 $106 $22 $-1 $107 forward single #
loop $-1 $108 $109 $42 #
cone-surface $-1 39.220971143316113 -19.436116467855069 4.2457073662393015 -0.83867057594974714 0 -0.54463902268945019 0.2723195113447251 0 -0.41933528797487357 1 I I -0.70710678118654746 0.70710678118654746 0.5 forward I I I I #
loop $-1 $-1 $110 $28 #
coedge $-1 $68 $68 $111 $112 reversed $43 $-1 #
face $-1 $-1 $113 $23 $-1 $114 forward single #
loop $-1 $115 $116 $45 #
cone-surface $-1 39.220971143316113 -14.478961327032362 4.2457073662393015 -0.83867057594974714 0 -0.54463902268945019 0.2723195113447251 0 -0.41933528797487357 1 I I -0.70710678118654746 0.70710678118654746 0.5 forward I I I I #
loop $-1 $-1 $117 $29 #
coedge $-1 $73 $73 $118 $119 reversed $46 $-1 #
face $-1 $120 $121 $18 $-1 $122 reversed single #
loop $-1 $-1 $123 $48 #
plane-surface $-1 0 -31.001611957922261 0 0 1 0 0 0 1 forward_v I I I I #
coedge $-1 $124 $125 $126 $127 forward $49 $-1 #
coedge $-1 $128 $51 $129 $130 forward $31 $-1 #
coedge $-1 $51 $128 $131 $132 forward $31 $-1 #
coedge $-1 $133 $134 $51 $81 reversed $135 $-1 #
edge $-1 $136 -31.001611957922261 $137 31.001611957922261 $80 $138 forward 7 unknown #
face $-1 $139 $140 $19 $-1 $141 reversed single #
loop $-1 $-1 $142 $52 #
plane-surface $-1 0 0 9.9464017514952587 0 0 1 1 0 0 forward_v I I I I #
coedge $-1 $143 $144 $145 $146 reversed $53 $-1 #
coedge $-1 $147 $55 $148 $149 reversed $34 $-1 #
coedge $-1 $55 $147 $150 $151 reversed $34 $-1 #
coedge $-1 $144 $143 $55 $89 reversed $53 $-1 #
edge $-1 $152 -9.9464017514952587 $153 9.9464017514952587 $88 $154 forward 7 unknown #
face $-1 $155 $156 $20 $-1 $157 reversed single #
loop $-1 $-1 $96 $56 #
plane-surface $-1 44.361705374309516 0 0 -1 0 0 0 0 1 forward_v I I I I #
coedge $-1 $158 $159 $160 $161 reversed $57 $-1 #
coedge $-1 $162 $59 $163 $164 reversed $37 $-1 #
coedge $-1 $59 $162 $159 $165 forward $37 $-1 #
coedge $-1 $166 $167 $59 $97 forward $91 $-1 #
edge $-1 $168 -17.173215709662429 $169 -10.48357678685724 $96 $170 forward 7 unknown #
face $-1 $171 $172 $21 $-1 $173 reversed single #
loop $-1 $-1 $174 $60 #
plane-surface $-1 70.449187647277284 -22.740886561736872 124.50824199467918 0 1 0 0.83867057594974714 0 0.54463902268945019 forward_v I I I I #
coedge $-1 $175 $176 $177 $178 reversed $61 $-1 #
coedge $-1 $103 $63 $179 $180 reversed $40 $-1 #
coedge $-1 $63 $102 $175 $181 reversed $40 $-1 #
coedge $-1 $177 $182 $63 $105 forward $183 $-1 #
edge $-1 $184 -9.1371115506708733 $185 -3.8313831923358777 $104 $186 forward 7 unknown #
loop $-1 $-1 $111 $64 #
plane-surface $-1 -3.9605263454930224 -16.957538897443715 76.186010274876651 0.83867057594974714 0 0.54463902268945019 0.54463902268945019 0 -0.83867057594974714 forward_v I I I I #
loop $-1 $-1 $187 $42 #
coedge $-1 $109 $109 $110 $188 reversed $65 $-1 #
coedge $-1 $110 $110 $109 $188 forward $67 $-1 #
coedge $-1 $111 $111 $68 $112 forward $106 $-1 #
edge $-1 $189 0 $189 6.2831853071796004 $111 $190 forward 7 unknown #
loop $-1 $-1 $118 $69 #
plane-surface $-1 -3.9605263454930224 -16.957538897443715 76.186010274876651 0.83867057594974714 0 0.54463902268945019 0.54463902268945019 0 -0.83867057594974714 forward_v I I I I #
loop $-1 $-1 $191 $45 #
coedge $-1 $116 $116 $117 $192 reversed $70 $-1 #
coedge $-1 $117 $117 $116 $192 forward $72 $-1 #
coedge $-1 $118 $118 $73 $119 forward $113 $-1 #
edge $-1 $193 0 $193 6.2831853071796004 $118 $194 forward 7 unknown #
face $-1 $195 $196 $18 $-1 $197 reversed single #
loop $-1 $-1 $198 $74 #
plane-surface $-1 -44.361705374309516 0 0 1 0 0 0 0 -1 forward_v I I I I #
coedge $-1 $199 $131 $200 $201 forward $75 $-1 #
coedge $-1 $202 $77 $199 $203 forward $49 $-1 #
coedge $-1 $77 $202 $204 $205 forward $49 $-1 #
coedge $-1 $134 $133 $77 $127 reversed $135 $-1 #
edge $-1 $206 -31.001611957922261 $207 31.001611957922261 $126 $208 forward 7 unknown #
coedge $-1 $79 $78 $209 $210 forward $31 $-1 #
coedge $-1 $211 $212 $78 $130 reversed $196 $-1 #
edge $-1 $137 -44.361705374309516 $213 44.361705374309516 $129 $214 forward 7 unknown #
coedge $-1 $123 $215 $79 $132 reversed $75 $-1 #
edge $-1 $216 -44.361705374309516 $136 44.361705374309516 $131 $217 forward 7 unknown #
coedge $-1 $126 $80 $215 $218 forward $135 $-1 #
coedge $-1 $80 $126 $211 $219 reversed $135 $-1 #
loop $-1 $-1 $133 $195 #
vertex $-1 $81 $220 #
vertex $-1 $81 $221 #
straight-curve $-1 44.361705374309516 0 9.9464017514952587 0 1 0 I I #
face $-1 $222 $223 $19 $-1 $224 reversed single #
loop $-1 $-1 $225 $82 #
plane-surface $-1 -44.361705374309516 0 0 1 0 0 0 0 -1 forward_v I I I I #
coedge $-1 $150 $226 $144 $227 forward $83 $-1 #
coedge $-1 $88 $85 $228 $229 reversed $53 $-1 #
coedge $-1 $85 $88 $142 $227 reversed $53 $-1 #
coedge $-1 $230 $231 $85 $146 forward $232 $-1 #
edge $-1 $233 -9.9464017514952587 $234 9.9464017514952587 $145 $235 forward 7 unknown #
coedge $-1 $87 $86 $225 $236 reversed $34 $-1 #
coedge $-1 $228 $237 $86 $149 forward $223 $-1 #
edge $-1 $238 -23.295622519982871 $153 -18.836543188670419 $148 $239 forward 7 unknown #
coedge $-1 $240 $142 $87 $151 forward $83 $-1 #
edge $-1 $152 18.836543188670419 $241 23.295622519982871 $150 $242 forward 7 unknown #
vertex $-1 $151 $243 #
vertex $-1 $149 $244 #
straight-curve $-1 -39.902626042997063 -22.740886561736872 0 0 0 -1 I I #
face $-1 $245 $246 $20 $-1 $247 reversed single #
loop $-1 $-1 $248 $90 #
plane-surface $-1 0 0 -9.9464017514952587 0 0 1 1 0 0 forward_v I I I I #
coedge $-1 $249 $93 $248 $250 reversed $57 $-1 #
coedge $-1 $93 $249 $95 $165 reversed $57 $-1 #
coedge $-1 $251 $252 $93 $161 forward $246 $-1 #
edge $-1 $253 -6.2990285758756057 $254 -0.99571777536370032 $160 $255 forward 7 unknown #
coedge $-1 $95 $94 $251 $256 reversed $37 $-1 #
coedge $-1 $257 $258 $94 $164 forward $259 $-1 #
edge $-1 $260 -44.361705374309516 $168 44.361705374309516 $163 $261 forward 7 unknown #
edge $-1 $254 -44.361705374309516 $169 44.361705374309516 $159 $262 forward 7 unknown #
coedge $-1 $263 $96 $249 $264 forward $91 $-1 #
coedge $-1 $96 $263 $257 $265 reversed $91 $-1 #
vertex $-1 $265 $266 #
vertex $-1 $97 $267 #
straight-curve $-1 44.361705374309516 13.828396248259834 -4.6430909509833533 0 -1 0 I I #
face $-1 $-1 $183 $21 $-1 $268 forward single #
loop $-1 $-1 $269 $98 #
plane-surface $-1 44.361705374309516 0 0 -1 0 0 0 0 1 forward_v I I I I #
coedge $-1 $270 $271 $272 $273 reversed $99 $-1 #
coedge $-1 $274 $101 $103 $181 forward $61 $-1 #
coedge $-1 $101 $274 $270 $275 forward $61 $-1 #
coedge $-1 $272 $104 $101 $178 forward $183 $-1 #
edge $-1 $185 2.6954217844287012 $276 14.262117113015014 $177 $277 forward 7 unknown #
coedge $-1 $278 $279 $102 $180 forward $172 $-1 #
edge $-1 $280 -60.477824715233261 $184 -52.307719245844332 $179 $281 forward 7 unknown #
edge $-1 $185 78.981676981297184 $280 88.723410748619045 $103 $282 forward 7 unknown #
coedge $-1 $104 $272 $278 $283 forward $183 $-1 #
loop $-1 $-1 $272 $171 #
vertex $-1 $180 $284 #
vertex $-1 $105 $285 #
straight-curve $-1 35.224593823638642 -11.174191233150559 9.9464017514952587 -1 0 0 I I #
coedge $-1 $187 $187 $-1 $286 reversed $108 $-1 #
edge $-1 $287 0 $287 6.2831853071796004 $109 $288 forward 7 unknown #
vertex $-1 $112 $289 #
ellipse-curve $-1 41.708841195142021 -19.436116467855069 5.8613490168007996 0.83867057594974714 0 0.54463902268945019 0.54463902268945019 0 -0.83867057594974714 1 I I #
coedge $-1 $191 $191 $-1 $290 reversed $115 $-1 #
edge $-1 $291 0 $291 6.2831853071796004 $116 $292 forward 7 unknown #
vertex $-1 $119 $293 #
ellipse-curve $-1 41.708841195142021 -14.478961327032362 5.8613490168007996 0.83867057594974714 0 0.54463902268945019 0.54463902268945019 0 -0.83867057594974714 1 I I #
face $-1 $-1 $135 $18 $-1 $294 reversed single #
loop $-1 $-1 $211 $120 #
plane-surface $-1 0 31.001611957922261 0 0 -1 0 0 0 -1 forward_v I I I I #
coedge $-1 $295 $209 $212 $296 forward $121 $-1 #
coedge $-1 $215 $123 $124 $203 reversed $75 $-1 #
coedge $-1 $209 $295 $123 $201 reversed $121 $-1 #
edge $-1 $216 -9.9464017514952587 $297 9.9464017514952587 $200 $298 forward 7 unknown #
coedge $-1 $125 $124 $295 $299 forward $49 $-1 #
edge $-1 $207 -44.361705374309516 $297 44.361705374309516 $199 $300 forward 7 unknown #
coedge $-1 $212 $211 $125 $205 reversed $196 $-1 #
edge $-1 $301 -44.361705374309516 $206 44.361705374309516 $204 $302 forward 7 unknown #
vertex $-1 $127 $303 #
vertex $-1 $218 $304 #
straight-curve $-1 44.361705374309516 0 -9.9464017514952587 0 -1 0 I I #
coedge $-1 $198 $200 $128 $210 reversed $121 $-1 #
edge $-1 $213 -31.001611957922261 $216 31.001611957922261 $209 $305 forward 7 unknown #
coedge $-1 $204 $129 $134 $219 forward $196 $-1 #
coedge $-1 $129 $204 $198 $296 reversed $196 $-1 #
vertex $-1 $130 $306 #
straight-curve $-1 0 31.001611957922261 9.9464017514952587 -1 0 0 I I #
coedge $-1 $131 $199 $133 $218 reversed $75 $-1 #
vertex $-1 $210 $307 #
straight-curve $-1 0 -31.001611957922261 9.9464017514952587 1 0 0 I I #
edge $-1 $136 -9.9464017514952587 $207 9.9464017514952587 $133 $308 forward 7 unknown #
edge $-1 $137 -9.9464017514952587 $206 9.9464017514952587 $134 $309 forward 7 unknown #
point $-1 44.361705374309516 -31.001611957922261 9.9464017514952587 #
point $-1 44.361705374309516 31.001611957922261 9.9464017514952587 #
face $-1 $-1 $232 $19 $-1 $310 reversed single #
loop $-1 $-1 $228 $139 #
plane-surface $-1 0 0 -9.9464017514952587 0 0 1 1 0 0 forward_v I I I I #
coedge $-1 $311 $312 $147 $236 forward $140 $-1 #
coedge $-1 $142 $240 $230 $313 forward $83 $-1 #
edge $-1 $234 -17.565987328007481 $152 -9.3052619318220877 $142 $314 forward 7 unknown #
coedge $-1 $315 $148 $143 $229 forward $223 $-1 #
edge $-1 $153 9.3052619318220877 $233 17.565987328007481 $228 $316 forward 7 unknown #
coedge $-1 $317 $145 $226 $313 reversed $232 $-1 #
coedge $-1 $145 $317 $315 $318 reversed $232 $-1 #
loop $-1 $-1 $145 $222 #
vertex $-1 $318 $319 #
vertex $-1 $146 $320 #
straight-curve $-1 -39.902626042997063 -31.001611957922261 0 0 0 1 I I #
edge $-1 $241 -9.9464017514952587 $238 9.9464017514952587 $225 $321 forward 7 unknown #
coedge $-1 $148 $315 $311 $322 forward $223 $-1 #
vertex $-1 $149 $323 #
straight-curve $-1 -21.066082854326645 -22.740886561736872 -9.9464017514952587 1 0 0 I I #
coedge $-1 $226 $150 $312 $324 forward $83 $-1 #
vertex $-1 $324 $325 #
straight-curve $-1 -21.066082854326645 -22.740886561736872 9.9464017514952587 -1 0 0 I I #
point $-1 -39.902626042997063 -22.740886561736872 9.9464017514952587 #
point $-1 -39.902626042997063 -22.740886561736872 -9.9464017514952587 #
face $-1 $-1 $259 $20 $-1 $326 reversed single #
loop $-1 $-1 $251 $155 #
plane-surface $-1 -44.361705374309516 0 0 1 0 0 0 0 -1 forward_v I I I I #
coedge $-1 $327 $328 $158 $250 forward $156 $-1 #
coedge $-1 $159 $158 $166 $264 reversed $57 $-1 #
edge $-1 $329 -44.361705374309516 $253 44.361705374309516 $248 $330 forward 7 unknown #
coedge $-1 $331 $160 $162 $256 forward $246 $-1 #
coedge $-1 $160 $331 $327 $332 reversed $246 $-1 #
vertex $-1 $332 $333 #
vertex $-1 $256 $334 #
straight-curve $-1 -44.361705374309516 24.311973035117074 -3.647373175619653 0 0 1 I I #
edge $-1 $254 10.48357678685724 $260 17.173215709662429 $251 $335 forward 7 unknown #
coedge $-1 $336 $163 $167 $265 forward $259 $-1 #
coedge $-1 $163 $336 $331 $337 reversed $259 $-1 #
loop $-1 $-1 $163 $245 #
vertex $-1 $337 $338 #
straight-curve $-1 0 31.001611957922261 -4.6430909509833533 1 0 0 I I #
straight-curve $-1 0 24.311973035117074 -4.6430909509833533 1 0 0 I I #
coedge $-1 $167 $166 $328 $339 reversed $91 $-1 #
edge $-1 $169 0.99571777536370032 $329 6.2990285758756057 $166 $340 forward 7 unknown #
edge $-1 $168 4.6430909509833533 $341 9.9464017514952587 $167 $342 forward 7 unknown #
point $-1 44.361705374309516 31.001611957922261 -4.6430909509833533 #
point $-1 44.361705374309516 24.311973035117074 -4.6430909509833533 #
plane-surface $-1 0 0 9.9464017514952587 0 0 1 1 0 0 forward_v I I I I #
coedge $-1 $279 $278 $271 $343 forward $172 $-1 #
coedge $-1 $271 $174 $176 $275 reversed $99 $-1 #
coedge $-1 $174 $270 $269 $343 reversed $99 $-1 #
coedge $-1 $182 $177 $174 $273 forward $183 $-1 #
edge $-1 $276 3.8313831923358777 $344 9.1371115506708733 $272 $345 forward 7 unknown #
coedge $-1 $176 $175 $279 $346 reversed $61 $-1 #
edge $-1 $347 -88.723410748619045 $276 -78.981676981297184 $270 $348 forward 7 unknown #
vertex $-1 $178 $349 #
straight-curve $-1 39.05597701597452 -8.4787694487218577 9.9464017514952587 0 -1 0 I I #
coedge $-1 $269 $179 $182 $283 reversed $172 $-1 #
coedge $-1 $179 $269 $274 $346 forward $172 $-1 #
vertex $-1 $180 $350 #
straight-curve $-1 44.361705374309516 -11.174191233150559 62.254120997339591 0 0 1 I I #
straight-curve $-1 -3.9605263454930224 -11.174191233150559 76.186010274876651 0.54463902268945019 0 -0.83867057594974714 I I #
edge $-1 $344 -22.740886561736872 $184 -11.174191233150559 $278 $351 forward 7 unknown #
point $-1 44.361705374309516 -11.174191233150559 9.9464017514952587 #
point $-1 39.05597701597452 -11.174191233150559 9.9464017514952587 #
edge $-1 $352 1 $352 0 $187 $-1 forward 7 unknown #
vertex $-1 $188 $353 #
ellipse-curve $-1 39.640306431290988 -19.436116467855069 4.5180268775840267 0.83867057594974714 0 0.54463902268945019 0.54463902268945019 0 -0.83867057594974714 1 I I #
point $-1 42.253480217831466 -19.436116467855069 5.0226784408510516 #
edge $-1 $354 1 $354 0 $191 $-1 forward 7 unknown #
vertex $-1 $192 $355 #
ellipse-curve $-1 39.640306431290988 -14.478961327032362 4.5180268775840267 0.83867057594974714 0 0.54463902268945019 0.54463902268945019 0 -0.83867057594974714 1 I I #
point $-1 42.253480217831466 -14.478961327032362 5.0226784408510516 #
plane-surface $-1 44.361705374309516 0 0 -1 0 0 0 0 1 forward_v I I I I #
coedge $-1 $200 $198 $202 $299 reversed $121 $-1 #
edge $-1 $213 -9.9464017514952587 $301 9.9464017514952587 $212 $356 forward 7 unknown #
vertex $-1 $299 $357 #
straight-curve $-1 -44.361705374309516 -31.001611957922261 0 0 0 -1 I I #
edge $-1 $297 -31.001611957922261 $301 31.001611957922261 $295 $358 forward 7 unknown #
straight-curve $-1 0 -31.001611957922261 -9.9464017514952587 -1 0 0 I I #
vertex $-1 $205 $359 #
straight-curve $-1 0 31.001611957922261 -9.9464017514952587 1 0 0 I I #
point $-1 44.361705374309516 31.001611957922261 -9.9464017514952587 #
point $-1 44.361705374309516 -31.001611957922261 -9.9464017514952587 #
straight-curve $-1 -44.361705374309516 0 9.9464017514952587 0 -1 0 I I #
point $-1 -44.361705374309516 31.001611957922261 9.9464017514952587 #
point $-1 -44.361705374309516 -31.001611957922261 9.9464017514952587 #
straight-curve $-1 44.361705374309516 -31.001611957922261 0 0 0 -1 I I #
straight-curve $-1 44.361705374309516 31.001611957922261 0 0 0 -1 I I #
plane-surface $-1 0 -31.001611957922261 0 0 1 0 0 0 1 forward_v I I I I #
coedge $-1 $360 $225 $237 $322 reversed $140 $-1 #
coedge $-1 $225 $360 $240 $324 reversed $140 $-1 #
edge $-1 $361 -44.361705374309516 $234 -39.902626042997063 $230 $362 forward 7 unknown #
straight-curve $-1 -39.902626042997063 -13.435624629914784 9.9464017514952587 0 1 0 I I #
coedge $-1 $237 $228 $231 $318 forward $223 $-1 #
straight-curve $-1 -39.902626042997063 -13.435624629914784 -9.9464017514952587 0 -1 0 I I #
coedge $-1 $231 $230 $360 $363 forward $232 $-1 #
edge $-1 $233 39.902626042997063 $364 44.361705374309516 $231 $365 forward 7 unknown #
point $-1 -39.902626042997063 -31.001611957922265 -9.9464017514952587 #
point $-1 -39.902626042997063 -31.001611957922265 9.9464017514952587 #
straight-curve $-1 -44.361705374309516 -22.740886561736872 0 0 0 -1 I I #
edge $-1 $364 -31.001611957922261 $238 -22.740886561736872 $311 $366 forward 7 unknown #
point $-1 -44.361705374309516 -22.740886561736872 -9.9464017514952587 #
edge $-1 $241 22.740886561736872 $361 31.001611957922261 $312 $367 forward 7 unknown #
point $-1 -44.361705374309516 -22.740886561736872 9.9464017514952587 #
plane-surface $-1 0 31.001611957922261 0 0 -1 0 0 0 -1 forward_v I I I I #
coedge $-1 $368 $248 $252 $332 forward $156 $-1 #
coedge $-1 $248 $368 $263 $339 forward $156 $-1 #
vertex $-1 $250 $369 #
straight-curve $-1 0 24.311973035117074 -9.9464017514952587 -1 0 0 I I #
coedge $-1 $252 $251 $258 $337 forward $246 $-1 #
edge $-1 $253 24.311973035117074 $370 31.001611957922261 $252 $371 forward 7 unknown #
point $-1 -44.361705374309516 24.311973035117074 -9.9464017514952587 #
point $-1 -44.361705374309516 24.311973035117074 -4.6430909509833533 #
straight-curve $-1 -44.361705374309516 13.828396248259834 -4.6430909509833533 0 1 0 I I #
coedge $-1 $258 $257 $368 $372 reversed $259 $-1 #
edge $-1 $260 4.6430909509833533 $370 9.9464017514952587 $258 $373 forward 7 unknown #
point $-1 -44.361705374309516 31.001611957922261 -4.6430909509833533 #
edge $-1 $341 -31.001611957922261 $329 -24.311973035117074 $263 $374 forward 7 unknown #
straight-curve $-1 44.361705374309516 24.311973035117074 -3.647373175619653 0 0 -1 I I #
vertex $-1 $339 $375 #
straight-curve $-1 44.361705374309516 31.001611957922261 0 0 0 -1 I I #
edge $-1 $344 52.307719245844332 $347 60.477824715233261 $269 $376 forward 7 unknown #
vertex $-1 $283 $377 #
straight-curve $-1 35.224593823638642 -22.740886561736872 9.9464017514952587 1 0 0 I I #
edge $-1 $347 -14.262117113015014 $280 -2.6954217844287012 $279 $378 forward 7 unknown #
vertex $-1 $346 $379 #
straight-curve $-1 -3.9605263454930224 -22.740886561736872 76.186010274876651 -0.54463902268945019 0 0.83867057594974714 I I #
point $-1 39.05597701597452 -22.740886561736872 9.9464017514952587 #
point $-1 44.361705374309516 -11.174191233150559 1.7762962821063297 #
straight-curve $-1 44.361705374309516 0 9.9464017514952587 0 1 0 I I #
vertex $-1 $286 $380 #
point $-1 40.18494545398044 -19.436116467855069 3.6793563016342796 #
vertex $-1 $290 $381 #
point $-1 40.18494545398044 -14.478961327032362 3.6793563016342796 #
straight-curve $-1 -44.361705374309516 31.001611957922261 0 0 0 -1 I I #
point $-1 -44.361705374309516 -31.001611957922261 -9.9464017514952587 #
straight-curve $-1 -44.361705374309516 0 -9.9464017514952587 0 1 0 I I #
point $-1 -44.361705374309516 31.001611957922261 -9.9464017514952587 #
coedge $-1 $312 $311 $317 $363 reversed $140 $-1 #
vertex $-1 $324 $382 #
straight-curve $-1 0 -31.001611957922261 9.9464017514952587 1 0 0 I I #
edge $-1 $361 -9.9464017514952587 $364 9.9464017514952587 $360 $383 forward 7 unknown #
vertex $-1 $322 $384 #
straight-curve $-1 0 -31.001611957922261 -9.9464017514952587 -1 0 0 I I #
straight-curve $-1 -44.361705374309516 0 -9.9464017514952587 0 1 0 I I #
straight-curve $-1 -44.361705374309516 0 9.9464017514952587 0 -1 0 I I #
coedge $-1 $328 $327 $336 $372 forward $156 $-1 #
point $-1 44.361705374309516 24.311973035117074 -9.9464017514952587 #
vertex $-1 $372 $385 #
straight-curve $-1 -44.361705374309516 0 -9.9464017514952587 0 1 0 I I #
edge $-1 $370 -44.361705374309516 $341 44.361705374309516 $336 $386 forward 7 unknown #
straight-curve $-1 -44.361705374309516 31.001611957922261 0 0 0 -1 I I #
straight-curve $-1 44.361705374309516 0 -9.9464017514952587 0 -1 0 I I #
point $-1 44.361705374309516 31.001611957922261 -9.9464017514952587 #
straight-curve $-1 44.361705374309516 -22.740886561736872 62.254120997339591 0 0 -1 I I #
point $-1 44.361705374309516 -22.740886561736872 9.9464017514952587 #
straight-curve $-1 44.361705374309516 -8.4787694487218577 1.7762962821063297 0 1 0 I I #
point $-1 44.361705374309516 -22.740886561736872 1.7762962821063297 #
point $-1 38.801635855341239 -19.436116467855069 3.9733878548945762 #
point $-1 38.801635855341239 -14.478961327032362 3.9733878548945762 #
point $-1 -44.361705374309516 -31.001611957922261 9.9464017514952587 #
straight-curve $-1 -44.361705374309516 -31.001611957922261 0 0 0 -1 I I #
point $-1 -44.361705374309516 -31.001611957922261 -9.9464017514952587 #
point $-1 -44.361705374309516 31.001611957922261 -9.9464017514952587 #
straight-curve $-1 0 31.001611957922261 -9.9464017514952587 1 0 0 I I #
End-of-ACIS-data 