500 0 5 0           
7 Unknown 11 ACIS 5.0 NT 24 Fri Mar 26 17:04:25 1999 
-1 9.9999999999999995e-007 1e-010 
body $-1 $5 $-1 $6 #
body $-1 $7 $-1 $8 #
body $-1 $9 $-1 $10 #
body $-1 $11 $-1 $12 #
body $-1 $13 $-1 $14 #
lump $-1 $-1 $15 $0 #
transform $-1 1 0 0 0 1 0 0 0 1 75.623645741141999 38.973399484283476 10.543644430932929 1 rotate no_reflect no_shear #
lump $-1 $-1 $16 $1 #
transform $-1 1 0 0 0 1 0 0 0 1 75.623645741141999 38.973399484283476 10.543644430932929 1 rotate no_reflect no_shear #
lump $-1 $-1 $17 $2 #
transform $-1 1 0 0 0 1 0 0 0 1 75.623645741141999 38.973399484283476 10.543644430932929 1 rotate no_reflect no_shear #
lump $-1 $-1 $18 $3 #
transform $-1 1 0 0 0 1 0 0 0 1 75.623645741141999 38.973399484283476 10.543644430932929 1 rotate no_reflect no_shear #
lump $-1 $-1 $19 $4 #
transform $-1 1 0 0 0 1 0 0 0 1 75.623645741141999 38.973399484283476 10.543644430932929 1 rotate no_reflect no_shear #
shell $-1 $-1 $-1 $20 $-1 $5 #
shell $-1 $-1 $-1 $21 $-1 $7 #
shell $-1 $-1 $-1 $22 $-1 $9 #
shell $-1 $-1 $-1 $23 $-1 $11 #
shell $-1 $-1 $-1 $24 $-1 $13 #
face $-1 $25 $26 $15 $-1 $27 reversed single #
face $-1 $28 $29 $16 $-1 $30 forward single #
face $-1 $31 $32 $17 $-1 $33 reversed single #
face $-1 $34 $35 $18 $-1 $36 forward single #
face $-1 $37 $38 $19 $-1 $39 forward single #
face $-1 $40 $41 $15 $-1 $42 forward single #
loop $-1 $-1 $43 $20 #
plane-surface $-1 0 -38.973399484283476 0 0 1 0 0 0 1 forward_v I I I I #
face $-1 $44 $45 $16 $-1 $46 forward single #
loop $-1 $-1 $47 $21 #
plane-surface $-1 0 -38.973399484283476 0 0 1 0 0 0 1 forward_v I I I I #
face $-1 $48 $49 $17 $-1 $50 reversed single #
loop $-1 $-1 $51 $22 #
plane-surface $-1 -191.48579417127391 -18.628981995329092 99.770959977844498 0 1 0 -0.7660444514056185 0 0.64278759981090561 forward_v I I I I #
face $-1 $52 $53 $18 $-1 $54 forward single #
loop $-1 $55 $56 $23 #
cone-surface $-1 -71.533813001115035 -15.440312140704936 5.9293196135725266 0.7660444514056185 0 -0.64278759981090561 0.3213937999054528 0 0.38302222570280925 1 I I 0 1 0.5 forward I I I I #
face $-1 $57 $58 $19 $-1 $59 forward single #
loop $-1 $60 $61 $24 #
cone-surface $-1 -71.533813001115035 -10.657307358768705 5.9293196135725266 0.7660444514056185 0 -0.64278759981090561 0.3213937999054528 0 0.38302222570280925 1 I I 0 1 0.5 forward I I I I #
face $-1 $62 $63 $15 $-1 $64 reversed single #
loop $-1 $-1 $65 $25 #
plane-surface $-1 0 0 10.543644430932929 0 0 1 1 0 0 forward_v I I I I #
coedge $-1 $66 $67 $68 $69 reversed $26 $-1 #
face $-1 $70 $71 $16 $-1 $72 reversed single #
loop $-1 $-1 $73 $28 #
plane-surface $-1 0 0 10.543644430932929 0 0 1 1 0 0 forward_v I I I I #
coedge $-1 $74 $75 $76 $77 forward $29 $-1 #
face $-1 $78 $79 $17 $-1 $80 reversed single #
loop $-1 $-1 $81 $31 #
plane-surface $-1 -75.623645741141985 -13.048809749736822 2.5510765080467337 -0.7660444514056185 0 0.64278759981090561 0.64278759981090561 0 0.7660444514056185 forward_v I I I I #
coedge $-1 $82 $83 $84 $85 reversed $32 $-1 #
face $-1 $-1 $86 $18 $-1 $87 forward single #
loop $-1 $88 $89 $34 #
cone-surface $-1 -70.605749458570358 -15.440312140704936 5.1505818577024911 0.7660444514056185 0 -0.64278759981090561 0.1606968999527264 0 0.19151111285140462 1 I I -0.70710678118654746 0.70710678118654746 0.25 forward I I I I #
loop $-1 $-1 $90 $23 #
coedge $-1 $56 $56 $91 $92 reversed $35 $-1 #
face $-1 $-1 $93 $19 $-1 $94 forward single #
loop $-1 $95 $96 $37 #
cone-surface $-1 -70.605749458570358 -10.657307358768705 5.1505818577024911 0.7660444514056185 0 -0.64278759981090561 0.1606968999527264 0 0.19151111285140462 1 I I -0.70710678118654746 0.70710678118654746 0.25 forward I I I I #
loop $-1 $-1 $97 $24 #
coedge $-1 $61 $61 $98 $99 reversed $38 $-1 #
face $-1 $100 $101 $15 $-1 $102 reversed single #
loop $-1 $-1 $103 $40 #
plane-surface $-1 0 0 -10.543644430932929 0 0 1 1 0 0 forward_v I I I I #
coedge $-1 $104 $105 $106 $107 forward $41 $-1 #
coedge $-1 $108 $43 $109 $110 reversed $26 $-1 #
coedge $-1 $43 $108 $111 $112 forward $26 $-1 #
coedge $-1 $113 $103 $43 $69 forward $63 $-1 #
edge $-1 $114 -75.623645741141999 $115 75.623645741141999 $43 $116 forward 7 unknown #
face $-1 $117 $118 $16 $-1 $119 reversed single #
loop $-1 $-1 $120 $44 #
plane-surface $-1 -75.623645741141999 0 0 1 0 0 0 0 -1 forward_v I I I I #
coedge $-1 $121 $122 $75 $123 forward $45 $-1 #
coedge $-1 $124 $47 $125 $126 reversed $29 $-1 #
coedge $-1 $47 $124 $73 $123 reversed $29 $-1 #
coedge $-1 $127 $128 $47 $77 reversed $129 $-1 #
edge $-1 $130 -10.543644430932929 $131 10.543644430932929 $76 $132 forward 7 unknown #
face $-1 $133 $134 $17 $-1 $135 reversed single #
loop $-1 $-1 $136 $48 #
plane-surface $-1 -191.48579417127391 -7.468637504144553 99.770959977844498 0 -1 0 0.7660444514056185 0 -0.64278759981090561 forward_v I I I I #
coedge $-1 $137 $138 $139 $140 reversed $49 $-1 #
coedge $-1 $83 $51 $141 $142 reversed $32 $-1 #
coedge $-1 $51 $82 $137 $143 reversed $32 $-1 #
coedge $-1 $139 $144 $51 $85 forward $145 $-1 #
edge $-1 $146 20.119251344494955 $147 26.82581196516233 $84 $148 forward 7 unknown #
loop $-1 $-1 $91 $52 #
plane-surface $-1 -75.623645741141985 -13.048809749736822 2.5510765080467337 -0.7660444514056185 0 0.64278759981090561 0.64278759981090561 0 0.7660444514056185 forward_v I I I I #
loop $-1 $-1 $149 $34 #
coedge $-1 $89 $89 $90 $150 reversed $53 $-1 #
coedge $-1 $90 $90 $89 $150 forward $55 $-1 #
coedge $-1 $91 $91 $56 $92 forward $86 $-1 #
edge $-1 $151 0 $151 6.2831853071796004 $91 $152 forward 7 unknown #
loop $-1 $-1 $98 $57 #
plane-surface $-1 -75.623645741141985 -13.048809749736822 2.5510765080467337 -0.7660444514056185 0 0.64278759981090561 0.64278759981090561 0 0.7660444514056185 forward_v I I I I #
loop $-1 $-1 $153 $37 #
coedge $-1 $96 $96 $97 $154 reversed $58 $-1 #
coedge $-1 $97 $97 $96 $154 forward $60 $-1 #
coedge $-1 $98 $98 $61 $99 forward $93 $-1 #
edge $-1 $155 0 $155 6.2831853071796004 $98 $156 forward 7 unknown #
face $-1 $157 $158 $15 $-1 $159 reversed single #
loop $-1 $-1 $160 $62 #
plane-surface $-1 -75.623645741141999 0 0 1 0 0 0 0 -1 forward_v I I I I #
coedge $-1 $68 $161 $162 $163 forward $63 $-1 #
coedge $-1 $164 $65 $165 $166 forward $41 $-1 #
coedge $-1 $65 $164 $108 $167 forward $41 $-1 #
coedge $-1 $109 $168 $65 $107 reversed $169 $-1 #
edge $-1 $170 -38.973399484283476 $171 38.973399484283476 $106 $172 forward 7 unknown #
coedge $-1 $67 $66 $105 $167 reversed $26 $-1 #
coedge $-1 $162 $106 $66 $110 forward $169 $-1 #
edge $-1 $170 -10.543644430932929 $114 10.543644430932929 $109 $173 forward 7 unknown #
coedge $-1 $174 $175 $67 $112 reversed $101 $-1 #
edge $-1 $176 -10.543644430932929 $115 10.543644430932929 $111 $177 forward 7 unknown #
coedge $-1 $161 $68 $175 $178 forward $63 $-1 #
vertex $-1 $110 $179 #
vertex $-1 $178 $180 #
straight-curve $-1 0 -38.973399484283476 -10.543644430932929 -1 0 0 I I #
face $-1 $181 $129 $16 $-1 $182 reversed single #
loop $-1 $-1 $183 $70 #
plane-surface $-1 -73.536314979735138 -46.820133671926911 0 0 1 0 0 0 1 forward_v I I I I #
coedge $-1 $184 $185 $124 $186 forward $71 $-1 #
coedge $-1 $187 $73 $185 $188 forward $45 $-1 #
coedge $-1 $73 $187 $127 $189 forward $45 $-1 #
edge $-1 $130 71.448984218328278 $190 75.623645741141999 $73 $191 forward 7 unknown #
coedge $-1 $75 $74 $120 $186 reversed $29 $-1 #
coedge $-1 $192 $193 $74 $126 forward $194 $-1 #
edge $-1 $195 -75.623645741141999 $131 -71.448984218328278 $125 $196 forward 7 unknown #
coedge $-1 $197 $76 $122 $189 reversed $129 $-1 #
coedge $-1 $76 $197 $192 $198 reversed $129 $-1 #
loop $-1 $-1 $197 $117 #
vertex $-1 $123 $199 #
vertex $-1 $198 $200 #
straight-curve $-1 -71.448984218328278 -38.973399484283476 0 0 0 -1 I I #
face $-1 $-1 $145 $17 $-1 $201 forward single #
loop $-1 $-1 $202 $78 #
plane-surface $-1 -75.623645741141999 0 0 1 0 0 0 0 -1 forward_v I I I I #
coedge $-1 $203 $204 $205 $206 reversed $79 $-1 #
coedge $-1 $207 $81 $83 $143 forward $49 $-1 #
coedge $-1 $81 $207 $203 $208 forward $49 $-1 #
coedge $-1 $205 $84 $81 $140 forward $145 $-1 #
edge $-1 $147 -12.10457712046068 $209 -0.94423262927614182 $139 $210 forward 7 unknown #
coedge $-1 $211 $212 $82 $142 forward $134 $-1 #
edge $-1 $213 -47.33440348087553 $146 -39.34183555798932 $141 $214 forward 7 unknown #
edge $-1 $147 -10.433556314154613 $213 2.2061860048766535e-014 $83 $215 forward 7 unknown #
coedge $-1 $84 $205 $211 $216 forward $145 $-1 #
loop $-1 $-1 $205 $133 #
vertex $-1 $142 $217 #
vertex $-1 $85 $218 #
straight-curve $-1 -95.742897085636955 -18.628981995329092 10.543644430932929 1 0 0 I I #
coedge $-1 $149 $149 $-1 $219 reversed $88 $-1 #
edge $-1 $220 0 $220 6.2831853071796004 $89 $221 forward 7 unknown #
vertex $-1 $92 $222 #
ellipse-curve $-1 -72.270365430808312 -15.440312140704936 6.5473604694898286 -0.7660444514056185 0 0.64278759981090561 0.3213937999054528 0 0.38302222570280925 1 I I #
coedge $-1 $153 $153 $-1 $223 reversed $95 $-1 #
edge $-1 $224 0 $224 6.2831853071796004 $96 $225 forward 7 unknown #
vertex $-1 $99 $226 #
ellipse-curve $-1 -72.270365430808312 -10.657307358768705 6.5473604694898286 -0.7660444514056185 0 0.64278759981090561 0.3213937999054528 0 0.38302222570280925 1 I I #
face $-1 $-1 $169 $15 $-1 $227 reversed single #
loop $-1 $-1 $228 $100 #
plane-surface $-1 0 38.973399484283476 0 0 -1 0 0 0 -1 forward_v I I I I #
coedge $-1 $175 $174 $229 $230 forward $101 $-1 #
coedge $-1 $103 $113 $231 $232 forward $63 $-1 #
coedge $-1 $168 $109 $103 $163 reversed $169 $-1 #
edge $-1 $233 -38.973399484283476 $114 38.973399484283476 $162 $234 forward 7 unknown #
coedge $-1 $105 $104 $174 $235 forward $41 $-1 #
coedge $-1 $228 $229 $104 $166 reversed $158 $-1 #
edge $-1 $171 -75.623645741141999 $236 75.623645741141999 $165 $237 forward 7 unknown #
edge $-1 $176 -75.623645741141999 $170 75.623645741141999 $108 $238 forward 7 unknown #
coedge $-1 $106 $162 $228 $239 reversed $169 $-1 #
loop $-1 $-1 $109 $157 #
vertex $-1 $107 $240 #
vertex $-1 $107 $241 #
straight-curve $-1 75.623645741141999 0 10.543644430932929 0 1 0 I I #
straight-curve $-1 75.623645741141999 -38.973399484283476 0 0 0 -1 I I #
coedge $-1 $160 $111 $164 $235 reversed $101 $-1 #
coedge $-1 $111 $160 $113 $178 reversed $101 $-1 #
vertex $-1 $235 $242 #
straight-curve $-1 -75.623645741141999 -38.973399484283476 0 0 0 -1 I I #
edge $-1 $115 -38.973399484283476 $243 38.973399484283476 $175 $244 forward 7 unknown #
point $-1 75.623645741141999 -38.973399484283476 -10.543644430932929 #
point $-1 -75.623645741141999 -38.973399484283476 -10.543644430932929 #
face $-1 $-1 $194 $16 $-1 $245 reversed single #
plane-surface $-1 -71.448984218328278 -42.896766578105193 0 -1 0 0 0 0 1 forward_v I I I I #
coedge $-1 $246 $247 $248 $249 forward $118 $-1 #
coedge $-1 $248 $120 $193 $250 reversed $71 $-1 #
coedge $-1 $120 $248 $121 $188 reversed $71 $-1 #
edge $-1 $190 -10.543644430932929 $195 10.543644430932929 $120 $251 forward 7 unknown #
coedge $-1 $122 $121 $247 $252 forward $45 $-1 #
edge $-1 $190 38.973399484283476 $253 46.820133671926911 $185 $254 forward 7 unknown #
edge $-1 $255 -3.9233670938217173 $130 3.9233670938217173 $127 $256 forward 7 unknown #
vertex $-1 $188 $257 #
straight-curve $-1 0 -38.973399484283476 10.543644430932929 -1 0 0 I I #
coedge $-1 $258 $125 $128 $198 forward $194 $-1 #
coedge $-1 $125 $258 $184 $250 forward $194 $-1 #
loop $-1 $-1 $125 $181 #
vertex $-1 $186 $259 #
straight-curve $-1 0 -38.973399484283476 -10.543644430932929 1 0 0 I I #
coedge $-1 $128 $127 $260 $261 forward $129 $-1 #
edge $-1 $131 -3.9233670938217173 $262 3.9233670938217173 $128 $263 forward 7 unknown #
point $-1 -71.448984218328278 -38.973399484283476 10.543644430932929 #
point $-1 -71.448984218328278 -38.973399484283476 -10.543644430932929 #
plane-surface $-1 0 0 10.543644430932929 0 0 1 1 0 0 forward_v I I I I #
coedge $-1 $212 $211 $204 $264 forward $134 $-1 #
coedge $-1 $204 $136 $138 $208 reversed $79 $-1 #
coedge $-1 $136 $203 $202 $264 reversed $79 $-1 #
coedge $-1 $144 $139 $136 $206 forward $145 $-1 #
edge $-1 $209 -26.82581196516233 $265 -20.119251344494955 $205 $266 forward 7 unknown #
coedge $-1 $138 $137 $212 $267 reversed $49 $-1 #
edge $-1 $268 -2.2061860048766535e-014 $209 10.433556314154613 $203 $269 forward 7 unknown #
vertex $-1 $140 $270 #
straight-curve $-1 -68.917085120474624 -6.5244048748684111 10.543644430932929 0 1 0 I I #
coedge $-1 $202 $141 $144 $216 reversed $134 $-1 #
coedge $-1 $141 $202 $207 $267 forward $134 $-1 #
vertex $-1 $142 $271 #
straight-curve $-1 -75.623645741141999 -18.628981995329092 49.885479988922249 0 0 1 I I #
straight-curve $-1 -75.623645741141985 -18.628981995329092 2.5510765080467337 -0.64278759981090561 0 -0.7660444514056185 I I #
edge $-1 $265 7.468637504144553 $146 18.628981995329092 $211 $272 forward 7 unknown #
point $-1 -75.623645741141999 -18.628981995329092 10.543644430932929 #
point $-1 -68.917085120474624 -18.628981995329092 10.543644430932929 #
edge $-1 $273 1 $273 0 $149 $-1 forward 7 unknown #
vertex $-1 $150 $274 #
ellipse-curve $-1 -70.797260571421759 -15.440312140704936 5.3112787576552174 -0.7660444514056185 0 0.64278759981090561 0.3213937999054528 0 0.38302222570280925 1 I I #
point $-1 -71.948971630902875 -15.440312140704936 6.9303826951926464 #
edge $-1 $275 1 $275 0 $153 $-1 forward 7 unknown #
vertex $-1 $154 $276 #
ellipse-curve $-1 -70.797260571421759 -10.657307358768705 5.3112787576552174 -0.7660444514056185 0 0.64278759981090561 0.3213937999054528 0 0.38302222570280925 1 I I #
point $-1 -71.948971630902875 -10.657307358768705 6.9303826951926464 #
plane-surface $-1 75.623645741141999 0 0 -1 0 0 0 0 1 forward_v I I I I #
coedge $-1 $231 $165 $168 $239 forward $158 $-1 #
coedge $-1 $165 $231 $160 $230 reversed $158 $-1 #
edge $-1 $236 -10.543644430932929 $243 10.543644430932929 $229 $277 forward 7 unknown #
coedge $-1 $229 $228 $161 $232 reversed $158 $-1 #
edge $-1 $243 -75.623645741141999 $233 75.623645741141999 $231 $278 forward 7 unknown #
vertex $-1 $163 $279 #
straight-curve $-1 75.623645741141999 0 -10.543644430932929 0 -1 0 I I #
edge $-1 $236 -38.973399484283476 $176 38.973399484283476 $174 $280 forward 7 unknown #
vertex $-1 $166 $281 #
straight-curve $-1 0 38.973399484283476 10.543644430932929 -1 0 0 I I #
straight-curve $-1 0 -38.973399484283476 10.543644430932929 1 0 0 I I #
edge $-1 $171 -10.543644430932929 $233 10.543644430932929 $168 $282 forward 7 unknown #
point $-1 75.623645741141999 -38.973399484283476 10.543644430932929 #
point $-1 75.623645741141999 38.973399484283476 10.543644430932929 #
point $-1 -75.623645741141999 -38.973399484283476 10.543644430932929 #
vertex $-1 $232 $283 #
straight-curve $-1 -75.623645741141999 0 -10.543644430932929 0 1 0 I I #
plane-surface $-1 0 0 -10.543644430932929 0 0 1 1 0 0 forward_v I I I I #
coedge $-1 $260 $183 $258 $284 reversed $118 $-1 #
coedge $-1 $183 $260 $187 $252 reversed $118 $-1 #
coedge $-1 $185 $184 $183 $249 reversed $71 $-1 #
edge $-1 $253 -10.543644430932929 $285 10.543644430932929 $248 $286 forward 7 unknown #
edge $-1 $285 -46.820133671926911 $195 -38.973399484283476 $184 $287 forward 7 unknown #
straight-curve $-1 -75.623645741141999 -38.973399484283476 0 0 0 -1 I I #
edge $-1 $253 -2.0873307614068608 $255 2.0873307614068608 $247 $288 forward 7 unknown #
vertex $-1 $188 $289 #
straight-curve $-1 -75.623645741141999 0 10.543644430932929 0 -1 0 I I #
vertex $-1 $189 $290 #
straight-curve $-1 -71.448984218328278 -42.896766578105193 10.543644430932929 0 1 0 I I #
point $-1 -75.623645741141999 -38.973399484283476 10.543644430932929 #
coedge $-1 $193 $192 $246 $284 forward $194 $-1 #
point $-1 -75.623645741141999 -38.973399484283476 -10.543644430932929 #
coedge $-1 $247 $246 $197 $261 reversed $118 $-1 #
edge $-1 $255 -10.543644430932929 $262 10.543644430932929 $197 $291 forward 7 unknown #
vertex $-1 $261 $292 #
straight-curve $-1 -71.448984218328278 -42.896766578105193 -10.543644430932929 0 -1 0 I I #
edge $-1 $265 39.34183555798932 $268 47.33440348087553 $202 $293 forward 7 unknown #
vertex $-1 $216 $294 #
straight-curve $-1 -95.742897085636955 -7.468637504144553 10.543644430932929 -1 0 0 I I #
edge $-1 $268 0.94423262927614182 $213 12.10457712046068 $212 $295 forward 7 unknown #
vertex $-1 $267 $296 #
straight-curve $-1 -75.623645741141985 -7.468637504144553 2.5510765080467337 0.64278759981090561 0 0.7660444514056185 I I #
point $-1 -68.917085120474624 -7.468637504144553 10.543644430932929 #
point $-1 -75.623645741141999 -18.628981995329092 2.5510765080467168 #
straight-curve $-1 -75.623645741141999 0 10.543644430932929 0 -1 0 I I #
vertex $-1 $219 $297 #
point $-1 -70.475866771516309 -15.440312140704936 5.6943009833580263 #
vertex $-1 $223 $298 #
point $-1 -70.475866771516309 -10.657307358768705 5.6943009833580263 #
straight-curve $-1 -75.623645741141999 38.973399484283476 0 0 0 -1 I I #
straight-curve $-1 0 38.973399484283476 -10.543644430932929 1 0 0 I I #
point $-1 75.623645741141999 38.973399484283476 -10.543644430932929 #
straight-curve $-1 -75.623645741141999 0 10.543644430932929 0 -1 0 I I #
point $-1 -75.623645741141999 38.973399484283476 10.543644430932929 #
straight-curve $-1 75.623645741141999 38.973399484283476 0 0 0 -1 I I #
point $-1 -75.623645741141999 38.973399484283476 -10.543644430932929 #
edge $-1 $262 -2.0873307614068608 $285 2.0873307614068608 $246 $299 forward 7 unknown #
vertex $-1 $250 $300 #
straight-curve $-1 -75.623645741141999 -46.820133671926911 0 0 0 -1 I I #
straight-curve $-1 -75.623645741141999 0 -10.543644430932929 0 1 0 I I #
straight-curve $-1 -73.536314979735138 -46.820133671926911 10.543644430932929 1 0 0 I I #
point $-1 -75.623645741141999 -46.820133671926911 10.543644430932929 #
point $-1 -71.448984218328278 -46.820133671926911 10.543644430932929 #
straight-curve $-1 -71.448984218328278 -46.820133671926911 0 0 0 -1 I I #
point $-1 -71.448984218328278 -46.820133671926911 -10.543644430932929 #
straight-curve $-1 -75.623645741141999 -7.468637504144553 49.885479988922249 0 0 -1 I I #
point $-1 -75.623645741141999 -7.468637504144553 10.543644430932929 #
straight-curve $-1 -75.623645741141999 -6.5244048748684111 2.5510765080466999 0 -1 0 I I #
point $-1 -75.623645741141999 -7.468637504144553 2.5510765080467168 #
point $-1 -70.414238345718957 -15.440312140704936 4.9898849577497648 #
point $-1 -70.414238345718957 -10.657307358768705 4.9898849577497648 #
straight-curve $-1 -73.536314979735138 -46.820133671926911 -10.543644430932929 -1 0 0 I I #
point $-1 -75.623645741141999 -46.820133671926911 -10.543644430932929 #
End-of-ACIS-data 