500 0 8 0           
7 Unknown 11 ACIS 5.0 NT 24 Fri Mar 26 02:37:04 1999 
-1 9.9999999999999995e-007 1e-010 
body $-1 $8 $-1 $9 #
body $-1 $10 $-1 $11 #
body $-1 $12 $-1 $13 #
body $-1 $14 $-1 $15 #
body $-1 $16 $-1 $17 #
body $-1 $18 $-1 $19 #
body $-1 $20 $-1 $21 #
body $-1 $22 $-1 $23 #
lump $-1 $-1 $24 $0 #
transform $-1 1 0 0 0 1 0 0 0 1 65.508590960417493 43.798811606241962 10.658909375606394 1 rotate no_reflect no_shear #
lump $-1 $-1 $25 $1 #
transform $-1 1 0 0 0 1 0 0 0 1 65.508590960417493 43.798811606241962 10.658909375606394 1 rotate no_reflect no_shear #
lump $-1 $-1 $26 $2 #
transform $-1 1 0 0 0 1 0 0 0 1 65.508590960417493 43.798811606241962 10.658909375606394 1 rotate no_reflect no_shear #
lump $-1 $-1 $27 $3 #
transform $-1 1 0 0 0 1 0 0 0 1 65.508590960417493 43.798811606241962 10.658909375606394 1 rotate no_reflect no_shear #
lump $-1 $-1 $28 $4 #
transform $-1 1 0 0 0 1 0 0 0 1 65.508590960417493 43.798811606241962 10.658909375606394 1 rotate no_reflect no_shear #
lump $-1 $-1 $29 $5 #
transform $-1 1 0 0 0 1 0 0 0 1 65.508590960417493 43.798811606241962 10.658909375606394 1 rotate no_reflect no_shear #
lump $-1 $-1 $30 $6 #
transform $-1 1 0 0 0 1 0 0 0 1 65.508590960417493 43.798811606241962 10.658909375606394 1 rotate no_reflect no_shear #
lump $-1 $-1 $31 $7 #
transform $-1 1 0 0 0 1 0 0 0 1 65.508590960417493 43.798811606241962 10.658909375606394 1 rotate no_reflect no_shear #
shell $-1 $-1 $-1 $32 $-1 $8 #
shell $-1 $-1 $-1 $33 $-1 $10 #
shell $-1 $-1 $-1 $34 $-1 $12 #
shell $-1 $-1 $-1 $35 $-1 $14 #
shell $-1 $-1 $-1 $36 $-1 $16 #
shell $-1 $-1 $-1 $37 $-1 $18 #
shell $-1 $-1 $-1 $38 $-1 $20 #
shell $-1 $-1 $-1 $39 $-1 $22 #
face $-1 $40 $41 $24 $-1 $42 forward single #
face $-1 $43 $44 $25 $-1 $45 forward single #
face $-1 $46 $47 $26 $-1 $48 reversed single #
face $-1 $49 $50 $27 $-1 $51 forward single #
face $-1 $52 $53 $28 $-1 $54 reversed single #
face $-1 $55 $56 $29 $-1 $57 forward single #
face $-1 $58 $59 $30 $-1 $60 forward single #
face $-1 $61 $62 $31 $-1 $63 forward single #
face $-1 $64 $65 $24 $-1 $66 reversed single #
loop $-1 $-1 $67 $32 #
plane-surface $-1 0 0 10.658909375606394 0 0 1 1 0 0 forward_v I I I I #
face $-1 $68 $69 $25 $-1 $70 reversed single #
loop $-1 $-1 $71 $33 #
plane-surface $-1 0 -39.200708972974986 -0.3355832962922185 0 0 1 1 0 0 forward_v I I I I #
face $-1 $72 $73 $26 $-1 $74 reversed single #
loop $-1 $-1 $75 $34 #
plane-surface $-1 84.876283034085773 15.831424165805043 184.92034952717367 0 1 0 0.77714596973225614 0 0.62932038083071107 forward_v I I I I #
face $-1 $76 $77 $27 $-1 $78 forward single #
loop $-1 $79 $80 $35 #
cone-surface $-1 59.284936966662762 25.861479525115477 3.8961547568367574 -0.77714596973225614 0 -0.62932038083071107 0.9439805712460666 0 -1.1657189545983841 1 I I 0 1 1.5 forward I I I I #
face $-1 $81 $82 $28 $-1 $83 reversed single #
loop $-1 $-1 $84 $36 #
plane-surface $-1 -153.17619839690209 -24.18053257971043 99.426780876232158 0 1 0 -0.66913061440640931 0 0.74314481823134659 forward_v I I I I #
face $-1 $85 $86 $29 $-1 $87 forward single #
loop $-1 $88 $89 $37 #
cone-surface $-1 -59.984402921045728 -20.319058768673386 5.5271900287484392 0.66913061440640931 0 -0.74314481823134659 0.74314481823134659 0 0.66913061440640931 1 I I 0 1 1 forward I I I I #
face $-1 $90 $91 $30 $-1 $92 forward single #
loop $-1 $93 $94 $38 #
cone-surface $-1 -59.984402921045728 -14.52684805211782 5.5271900287484392 0.66913061440640931 0 -0.74314481823134659 0.74314481823134659 0 0.66913061440640931 1 I I 0 1 1 forward I I I I #
face $-1 $95 $96 $31 $-1 $97 forward single #
loop $-1 $98 $99 $39 #
cone-surface $-1 -59.984402921045728 -8.7346373355622546 5.5271900287484392 0.66913061440640931 0 -0.74314481823134659 0.74314481823134659 0 0.66913061440640931 1 I I 0 1 1 forward I I I I #
face $-1 $100 $101 $24 $-1 $102 reversed single #
loop $-1 $-1 $103 $40 #
plane-surface $-1 0 0 -10.658909375606394 0 0 1 1 0 0 forward_v I I I I #
coedge $-1 $104 $105 $106 $107 forward $41 $-1 #
face $-1 $108 $109 $25 $-1 $110 reversed single #
loop $-1 $-1 $111 $43 #
plane-surface $-1 0 -39.200708972974986 -3.3355832962922194 0 0 1 1 0 0 forward_v I I I I #
coedge $-1 $112 $113 $114 $115 reversed $44 $-1 #
face $-1 $116 $117 $26 $-1 $118 reversed single #
loop $-1 $-1 $119 $46 #
plane-surface $-1 -16.943191861368945 25.861479525115477 102.46856670538725 0.77714596973225614 0 0.62932038083071107 0.62932038083071107 0 -0.77714596973225614 forward_v I I I I #
coedge $-1 $120 $121 $122 $123 reversed $47 $-1 #
face $-1 $-1 $124 $27 $-1 $125 forward single #
loop $-1 $126 $127 $49 #
cone-surface $-1 56.53131860657885 25.861479525115477 1.6663186352810211 -0.77714596973225614 0 -0.62932038083071107 0.4719902856230333 0 -0.58285947729919207 1 I I -0.70710678118654757 0.70710678118654757 0.75 forward I I I I #
loop $-1 $-1 $128 $35 #
coedge $-1 $80 $80 $129 $130 reversed $50 $-1 #
face $-1 $131 $132 $28 $-1 $133 reversed single #
loop $-1 $-1 $134 $52 #
plane-surface $-1 -65.508590960417479 -14.52684805211782 2.0620410324899723 -0.66913061440640931 0 0.74314481823134659 0.74314481823134659 0 0.66913061440640931 forward_v I I I I #
coedge $-1 $135 $136 $137 $138 reversed $53 $-1 #
face $-1 $-1 $139 $29 $-1 $140 forward single #
loop $-1 $141 $142 $55 #
cone-surface $-1 -58.899544255609754 -20.319058768673386 4.3223324443330124 0.66913061440640931 0 -0.74314481823134659 0.3715724091156733 0 0.33456530720320465 1 I I -0.70710678118654746 0.70710678118654746 0.5 forward I I I I #
loop $-1 $-1 $143 $37 #
coedge $-1 $89 $89 $144 $145 reversed $56 $-1 #
face $-1 $-1 $146 $30 $-1 $147 forward single #
loop $-1 $148 $149 $58 #
cone-surface $-1 -58.899544255609754 -14.52684805211782 4.3223324443330124 0.66913061440640931 0 -0.74314481823134659 0.3715724091156733 0 0.33456530720320465 1 I I -0.70710678118654746 0.70710678118654746 0.5 forward I I I I #
loop $-1 $-1 $150 $38 #
coedge $-1 $94 $94 $151 $152 reversed $59 $-1 #
face $-1 $-1 $153 $31 $-1 $154 forward single #
loop $-1 $155 $156 $61 #
cone-surface $-1 -58.899544255609754 -8.7346373355622546 4.3223324443330124 0.66913061440640931 0 -0.74314481823134659 0.3715724091156733 0 0.33456530720320465 1 I I -0.70710678118654746 0.70710678118654746 0.5 forward I I I I #
loop $-1 $-1 $157 $39 #
coedge $-1 $99 $99 $158 $159 reversed $62 $-1 #
face $-1 $160 $161 $24 $-1 $162 reversed single #
loop $-1 $-1 $163 $64 #
plane-surface $-1 0 -43.798811606241962 0 0 1 0 0 0 1 forward_v I I I I #
coedge $-1 $164 $165 $166 $167 forward $65 $-1 #
coedge $-1 $168 $67 $169 $170 forward $41 $-1 #
coedge $-1 $67 $168 $171 $172 forward $41 $-1 #
coedge $-1 $173 $174 $67 $107 reversed $175 $-1 #
edge $-1 $176 -43.798811606241962 $177 43.798811606241962 $106 $178 forward 7 unknown #
face $-1 $179 $180 $25 $-1 $181 reversed single #
loop $-1 $-1 $182 $68 #
plane-surface $-1 0 -34.602606339708011 -1.8355832962922189 0 -1 0 0 0 -1 forward_v I I I I #
coedge $-1 $183 $184 $185 $186 reversed $69 $-1 #
coedge $-1 $187 $71 $188 $189 forward $44 $-1 #
coedge $-1 $71 $187 $190 $191 reversed $44 $-1 #
coedge $-1 $192 $193 $71 $115 forward $194 $-1 #
edge $-1 $195 15.002251853220518 $196 24.198457119754469 $114 $197 forward 7 unknown #
face $-1 $198 $199 $26 $-1 $200 forward single #
loop $-1 $-1 $201 $72 #
plane-surface $-1 84.876283034085773 35.891534884425909 184.92034952717367 0 -1 0 -0.77714596973225614 0 -0.62932038083071107 forward_v I I I I #
coedge $-1 $202 $203 $204 $205 reversed $73 $-1 #
coedge $-1 $121 $75 $206 $207 reversed $47 $-1 #
coedge $-1 $75 $120 $202 $208 reversed $47 $-1 #
coedge $-1 $204 $209 $75 $123 forward $210 $-1 #
edge $-1 $211 81.801265387980436 $212 91.811082953654335 $122 $213 forward 7 unknown #
loop $-1 $-1 $129 $76 #
plane-surface $-1 -16.943191861368945 25.861479525115477 102.46856670538725 0.77714596973225614 0 0.62932038083071107 0.62932038083071107 0 -0.77714596973225614 forward_v I I I I #
loop $-1 $-1 $214 $49 #
coedge $-1 $127 $127 $128 $215 reversed $77 $-1 #
coedge $-1 $128 $128 $127 $215 forward $79 $-1 #
coedge $-1 $129 $129 $80 $130 forward $124 $-1 #
edge $-1 $216 0 $216 6.2831853071796004 $129 $217 forward 7 unknown #
face $-1 $218 $219 $28 $-1 $220 reversed single #
loop $-1 $-1 $221 $81 #
plane-surface $-1 -153.17619839690209 -4.8731635245252107 99.426780876232158 0 -1 0 0.66913061440640931 0 -0.74314481823134659 forward_v I I I I #
coedge $-1 $222 $223 $224 $225 reversed $82 $-1 #
coedge $-1 $136 $84 $226 $227 reversed $53 $-1 #
coedge $-1 $84 $135 $222 $228 reversed $53 $-1 #
coedge $-1 $224 $229 $84 $138 forward $230 $-1 #
edge $-1 $231 11.079508238033554 $232 20.627297600311586 $137 $233 forward 7 unknown #
loop $-1 $-1 $144 $85 #
plane-surface $-1 -65.508590960417479 -14.52684805211782 2.0620410324899723 -0.66913061440640931 0 0.74314481823134659 0.74314481823134659 0 0.66913061440640931 forward_v I I I I #
loop $-1 $-1 $234 $55 #
coedge $-1 $142 $142 $143 $235 reversed $86 $-1 #
coedge $-1 $143 $143 $142 $235 forward $88 $-1 #
coedge $-1 $144 $144 $89 $145 forward $139 $-1 #
edge $-1 $236 0 $236 6.2831853071796004 $144 $237 forward 7 unknown #
loop $-1 $-1 $151 $90 #
plane-surface $-1 -65.508590960417479 -14.52684805211782 2.0620410324899723 -0.66913061440640931 0 0.74314481823134659 0.74314481823134659 0 0.66913061440640931 forward_v I I I I #
loop $-1 $-1 $238 $58 #
coedge $-1 $149 $149 $150 $239 reversed $91 $-1 #
coedge $-1 $150 $150 $149 $239 forward $93 $-1 #
coedge $-1 $151 $151 $94 $152 forward $146 $-1 #
edge $-1 $240 0 $240 6.2831853071796004 $151 $241 forward 7 unknown #
loop $-1 $-1 $158 $95 #
plane-surface $-1 -65.508590960417479 -14.52684805211782 2.0620410324899723 -0.66913061440640931 0 0.74314481823134659 0.74314481823134659 0 0.66913061440640931 forward_v I I I I #
loop $-1 $-1 $242 $61 #
coedge $-1 $156 $156 $157 $243 reversed $96 $-1 #
coedge $-1 $157 $157 $156 $243 forward $98 $-1 #
coedge $-1 $158 $158 $99 $159 forward $153 $-1 #
edge $-1 $244 0 $244 6.2831853071796004 $158 $245 forward 7 unknown #
face $-1 $246 $247 $24 $-1 $248 reversed single #
loop $-1 $-1 $249 $100 #
plane-surface $-1 -65.508590960417493 0 0 1 0 0 0 0 -1 forward_v I I I I #
coedge $-1 $250 $171 $251 $252 forward $101 $-1 #
coedge $-1 $253 $103 $250 $254 forward $65 $-1 #
coedge $-1 $103 $253 $255 $256 forward $65 $-1 #
coedge $-1 $174 $173 $103 $167 reversed $175 $-1 #
edge $-1 $257 -43.798811606241962 $258 43.798811606241962 $166 $259 forward 7 unknown #
coedge $-1 $105 $104 $260 $261 forward $41 $-1 #
coedge $-1 $262 $263 $104 $170 reversed $247 $-1 #
edge $-1 $177 -65.508590960417493 $264 65.508590960417493 $169 $265 forward 7 unknown #
coedge $-1 $163 $266 $105 $172 reversed $101 $-1 #
edge $-1 $267 -65.508590960417493 $176 65.508590960417493 $171 $268 forward 7 unknown #
coedge $-1 $166 $106 $266 $269 forward $175 $-1 #
coedge $-1 $106 $166 $262 $270 reversed $175 $-1 #
loop $-1 $-1 $173 $246 #
vertex $-1 $107 $271 #
vertex $-1 $107 $272 #
straight-curve $-1 65.508590960417493 0 10.658909375606394 0 1 0 I I #
face $-1 $273 $274 $25 $-1 $275 reversed single #
loop $-1 $-1 $276 $108 #
plane-surface $-1 -65.508590960417493 0 0 1 0 0 0 0 -1 forward_v I I I I #
coedge $-1 $277 $188 $193 $278 reversed $109 $-1 #
coedge $-1 $279 $111 $280 $281 reversed $69 $-1 #
coedge $-1 $111 $279 $277 $282 forward $69 $-1 #
coedge $-1 $193 $192 $111 $186 forward $194 $-1 #
edge $-1 $283 -24.198457119754469 $284 -15.002251853220518 $185 $285 forward 7 unknown #
coedge $-1 $113 $112 $276 $286 reversed $44 $-1 #
coedge $-1 $182 $287 $112 $189 reversed $109 $-1 #
edge $-1 $195 -65.508590960417493 $288 65.508590960417493 $188 $289 forward 7 unknown #
coedge $-1 $290 $291 $113 $191 forward $274 $-1 #
edge $-1 $196 -65.508590960417493 $292 65.508590960417493 $190 $293 forward 7 unknown #
coedge $-1 $185 $114 $291 $294 forward $194 $-1 #
coedge $-1 $114 $185 $182 $278 forward $194 $-1 #
loop $-1 $-1 $114 $273 #
vertex $-1 $115 $295 #
vertex $-1 $294 $296 #
straight-curve $-1 65.508590960417493 -19.600354486487493 -0.3355832962922185 0 -1 0 I I #
face $-1 $-1 $210 $26 $-1 $297 reversed single #
loop $-1 $-1 $298 $116 #
plane-surface $-1 0 0 10.658909375606394 0 0 1 1 0 0 forward_v I I I I #
coedge $-1 $299 $300 $301 $302 reversed $117 $-1 #
coedge $-1 $303 $119 $121 $208 forward $73 $-1 #
coedge $-1 $119 $303 $299 $304 forward $73 $-1 #
coedge $-1 $301 $122 $119 $205 forward $210 $-1 #
edge $-1 $212 2.900684403247304 $305 22.96079512186817 $204 $306 forward 7 unknown #
coedge $-1 $307 $308 $120 $207 forward $199 $-1 #
edge $-1 $309 14.964659221434566 $211 23.070449443374606 $206 $310 forward 7 unknown #
edge $-1 $212 -131.01718192083501 $309 -118.13695355251124 $121 $311 forward 7 unknown #
coedge $-1 $122 $301 $307 $312 reversed $210 $-1 #
loop $-1 $-1 $301 $198 #
vertex $-1 $312 $313 #
vertex $-1 $123 $314 #
straight-curve $-1 65.508590960417493 15.831424165805043 92.460174763586835 0 0 -1 I I #
coedge $-1 $214 $214 $-1 $315 reversed $126 $-1 #
edge $-1 $316 0 $316 6.2831853071796004 $127 $317 forward 7 unknown #
vertex $-1 $130 $318 #
ellipse-curve $-1 61.455695849447473 25.861479525115477 5.6540005927694503 0.77714596973225614 0 0.62932038083071107 0.9439805712460666 0 -1.1657189545983841 1 I I #
face $-1 $-1 $230 $28 $-1 $319 forward single #
loop $-1 $-1 $320 $131 #
plane-surface $-1 -65.508590960417493 0 0 1 0 0 0 0 -1 forward_v I I I I #
coedge $-1 $321 $322 $323 $324 reversed $132 $-1 #
coedge $-1 $325 $134 $136 $228 forward $82 $-1 #
coedge $-1 $134 $325 $321 $326 forward $82 $-1 #
coedge $-1 $323 $137 $134 $225 forward $230 $-1 #
edge $-1 $232 -16.91710855365152 $327 2.3902605015336995 $224 $328 forward 7 unknown #
coedge $-1 $329 $330 $135 $227 forward $219 $-1 #
edge $-1 $331 -47.651349405626121 $231 -39.054481062509687 $226 $332 forward 7 unknown #
edge $-1 $232 -12.847817986541783 $331 1.9178179933549516e-014 $136 $333 forward 7 unknown #
coedge $-1 $137 $323 $329 $334 forward $230 $-1 #
loop $-1 $-1 $323 $218 #
vertex $-1 $227 $335 #
vertex $-1 $138 $336 #
straight-curve $-1 -76.588099198451047 -24.18053257971043 10.658909375606392 1 0 0 I I #
coedge $-1 $234 $234 $-1 $337 reversed $141 $-1 #
edge $-1 $338 0 $338 6.2831853071796004 $142 $339 forward 7 unknown #
vertex $-1 $145 $340 #
ellipse-curve $-1 -60.734696279278481 -20.319058768673386 6.360475204048174 -0.66913061440640931 0 0.74314481823134659 0.74314481823134659 0 0.66913061440640931 1 I I #
coedge $-1 $238 $238 $-1 $341 reversed $148 $-1 #
edge $-1 $342 0 $342 6.2831853071796004 $149 $343 forward 7 unknown #
vertex $-1 $152 $344 #
ellipse-curve $-1 -60.734696279278481 -14.52684805211782 6.360475204048174 -0.66913061440640931 0 0.74314481823134659 0.74314481823134659 0 0.66913061440640931 1 I I #
coedge $-1 $242 $242 $-1 $345 reversed $155 $-1 #
edge $-1 $346 0 $346 6.2831853071796004 $156 $347 forward 7 unknown #
vertex $-1 $159 $348 #
ellipse-curve $-1 -60.734696279278481 -8.7346373355622546 6.360475204048174 -0.66913061440640931 0 0.74314481823134659 0.74314481823134659 0 0.66913061440640931 1 I I #
face $-1 $-1 $175 $24 $-1 $349 reversed single #
loop $-1 $-1 $262 $160 #
plane-surface $-1 0 43.798811606241962 0 0 -1 0 0 0 -1 forward_v I I I I #
coedge $-1 $350 $260 $263 $351 forward $161 $-1 #
coedge $-1 $266 $163 $164 $254 reversed $101 $-1 #
coedge $-1 $260 $350 $163 $252 reversed $161 $-1 #
edge $-1 $267 -10.658909375606394 $352 10.658909375606394 $251 $353 forward 7 unknown #
coedge $-1 $165 $164 $350 $354 forward $65 $-1 #
edge $-1 $258 -65.508590960417493 $352 65.508590960417493 $250 $355 forward 7 unknown #
coedge $-1 $263 $262 $165 $256 reversed $247 $-1 #
edge $-1 $356 -65.508590960417493 $257 65.508590960417493 $255 $357 forward 7 unknown #
vertex $-1 $167 $358 #
vertex $-1 $269 $359 #
straight-curve $-1 65.508590960417493 0 -10.658909375606394 0 -1 0 I I #
coedge $-1 $249 $251 $168 $261 reversed $161 $-1 #
edge $-1 $264 -43.798811606241962 $267 43.798811606241962 $260 $360 forward 7 unknown #
coedge $-1 $255 $169 $174 $270 forward $247 $-1 #
coedge $-1 $169 $255 $249 $351 reversed $247 $-1 #
vertex $-1 $170 $361 #
straight-curve $-1 0 43.798811606241962 10.658909375606394 -1 0 0 I I #
coedge $-1 $171 $250 $173 $269 reversed $101 $-1 #
vertex $-1 $261 $362 #
straight-curve $-1 0 -43.798811606241962 10.658909375606394 1 0 0 I I #
edge $-1 $176 -10.658909375606394 $258 10.658909375606394 $173 $363 forward 7 unknown #
edge $-1 $177 -10.658909375606394 $257 10.658909375606394 $174 $364 forward 7 unknown #
point $-1 65.508590960417493 -43.798811606241962 10.658909375606394 #
point $-1 65.508590960417493 43.798811606241962 10.658909375606394 #
face $-1 $-1 $194 $25 $-1 $365 reversed single #
loop $-1 $-1 $190 $179 #
plane-surface $-1 0 -43.798811606241962 0 0 1 0 0 0 1 forward_v I I I I #
coedge $-1 $366 $367 $187 $286 forward $180 $-1 #
coedge $-1 $287 $182 $184 $282 reversed $109 $-1 #
edge $-1 $284 -2.4177916481461099 $195 0.58220835185389097 $193 $368 forward 7 unknown #
coedge $-1 $184 $183 $369 $370 reversed $69 $-1 #
coedge $-1 $291 $290 $183 $281 forward $274 $-1 #
edge $-1 $371 -65.508590960417493 $283 65.508590960417493 $280 $372 forward 7 unknown #
edge $-1 $373 -65.508590960417493 $284 65.508590960417493 $277 $374 forward 7 unknown #
vertex $-1 $281 $375 #
vertex $-1 $186 $376 #
straight-curve $-1 65.508590960417493 -19.600354486487493 -3.3355832962922194 0 1 0 I I #
edge $-1 $292 -24.198457119754469 $288 -15.002251853220518 $276 $377 forward 7 unknown #
coedge $-1 $188 $277 $366 $378 reversed $109 $-1 #
vertex $-1 $286 $379 #
straight-curve $-1 0 -34.602606339708011 -0.3355832962922185 -1 0 0 I I #
coedge $-1 $280 $190 $367 $380 forward $274 $-1 #
coedge $-1 $190 $280 $192 $294 reversed $274 $-1 #
vertex $-1 $380 $381 #
straight-curve $-1 0 -43.798811606241962 -0.3355832962922185 -1 0 0 I I #
edge $-1 $196 0.3355832962922185 $283 3.3355832962922194 $192 $382 forward 7 unknown #
point $-1 65.508590960417493 -34.602606339708011 -0.3355832962922185 #
point $-1 65.508590960417493 -43.798811606241962 -0.3355832962922185 #
plane-surface $-1 65.508590960417493 0 0 -1 0 0 0 0 1 forward_v I I I I #
coedge $-1 $308 $307 $300 $383 forward $199 $-1 #
coedge $-1 $300 $201 $203 $304 reversed $117 $-1 #
coedge $-1 $201 $299 $298 $383 reversed $117 $-1 #
coedge $-1 $209 $204 $201 $302 forward $210 $-1 #
edge $-1 $305 -91.811082953654335 $384 -81.801265387980436 $301 $385 forward 7 unknown #
coedge $-1 $203 $202 $308 $386 reversed $73 $-1 #
edge $-1 $387 118.13695355251124 $305 131.01718192083501 $299 $388 forward 7 unknown #
vertex $-1 $205 $389 #
straight-curve $-1 65.508590960417479 12.930739762557739 0.64909180993252846 0 1 0 I I #
coedge $-1 $298 $206 $209 $312 forward $199 $-1 #
coedge $-1 $206 $298 $303 $386 forward $199 $-1 #
vertex $-1 $207 $390 #
straight-curve $-1 42.438141517042887 15.831424165805043 10.658909375606399 1 0 0 I I #
straight-curve $-1 -16.943191861368945 15.831424165805043 102.46856670538725 -0.62932038083071107 0 0.77714596973225614 I I #
edge $-1 $211 15.831424165805043 $384 35.891534884425909 $209 $391 forward 7 unknown #
point $-1 65.508590960417493 15.831424165805043 10.658909375606394 #
point $-1 65.508590960417493 15.831424165805043 0.64909180993250004 #
edge $-1 $392 1 $392 0 $214 $-1 forward 7 unknown #
vertex $-1 $215 $393 #
ellipse-curve $-1 57.114178083878045 25.861479525115477 2.1383089209040542 0.77714596973225614 0 0.62932038083071107 0.9439805712460666 0 -1.1657189545983841 1 I I #
point $-1 62.399676420693545 25.861479525115477 4.4882816381710757 #
plane-surface $-1 0 0 10.658909375606394 0 0 1 1 0 0 forward_v I I I I #
coedge $-1 $330 $329 $322 $394 forward $219 $-1 #
coedge $-1 $322 $221 $223 $326 reversed $132 $-1 #
coedge $-1 $221 $321 $320 $394 reversed $132 $-1 #
coedge $-1 $229 $224 $221 $324 forward $230 $-1 #
edge $-1 $327 -20.627297600311586 $395 -11.079508238033554 $323 $396 forward 7 unknown #
coedge $-1 $223 $222 $330 $397 reversed $82 $-1 #
edge $-1 $398 -1.9178179933549516e-014 $327 12.847817986541783 $321 $399 forward 7 unknown #
vertex $-1 $225 $400 #
straight-curve $-1 -55.960801598139462 -7.2634240260589102 10.658909375606394 0 1 0 I I #
coedge $-1 $320 $226 $229 $334 reversed $219 $-1 #
coedge $-1 $226 $320 $325 $397 forward $219 $-1 #
vertex $-1 $227 $401 #
straight-curve $-1 -65.508590960417493 -24.18053257971043 49.713390438116079 0 0 1 I I #
straight-curve $-1 -65.508590960417479 -24.18053257971043 2.0620410324899723 -0.74314481823134659 0 -0.66913061440640931 I I #
edge $-1 $395 4.8731635245252107 $231 24.18053257971043 $329 $402 forward 7 unknown #
point $-1 -65.508590960417493 -24.18053257971043 10.658909375606394 #
point $-1 -55.960801598139462 -24.18053257971043 10.658909375606394 #
edge $-1 $403 1 $403 0 $234 $-1 forward 7 unknown #
vertex $-1 $235 $404 #
ellipse-curve $-1 -59.234109562812961 -20.319058768673386 4.6939048534486858 -0.66913061440640931 0 0.74314481823134659 0.74314481823134659 0 0.66913061440640931 1 I I #
point $-1 -59.991551461047145 -20.319058768673386 7.029605818454602 #
edge $-1 $405 1 $405 0 $238 $-1 forward 7 unknown #
vertex $-1 $239 $406 #
ellipse-curve $-1 -59.234109562812961 -14.52684805211782 4.6939048534486858 -0.66913061440640931 0 0.74314481823134659 0.74314481823134659 0 0.66913061440640931 1 I I #
point $-1 -59.991551461047145 -14.52684805211782 7.029605818454602 #
edge $-1 $407 1 $407 0 $242 $-1 forward 7 unknown #
vertex $-1 $243 $408 #
ellipse-curve $-1 -59.234109562812961 -8.7346373355622546 4.6939048534486858 -0.66913061440640931 0 0.74314481823134659 0.74314481823134659 0 0.66913061440640931 1 I I #
point $-1 -59.991551461047145 -8.7346373355622546 7.029605818454602 #
plane-surface $-1 65.508590960417493 0 0 -1 0 0 0 0 1 forward_v I I I I #
coedge $-1 $251 $249 $253 $354 reversed $161 $-1 #
edge $-1 $264 -10.658909375606394 $356 10.658909375606394 $263 $409 forward 7 unknown #
vertex $-1 $354 $410 #
straight-curve $-1 -65.508590960417493 -43.798811606241962 0 0 0 -1 I I #
edge $-1 $352 -43.798811606241962 $356 43.798811606241962 $350 $411 forward 7 unknown #
straight-curve $-1 0 -43.798811606241962 -10.658909375606394 -1 0 0 I I #
vertex $-1 $256 $412 #
straight-curve $-1 0 43.798811606241962 -10.658909375606394 1 0 0 I I #
point $-1 65.508590960417493 43.798811606241962 -10.658909375606394 #
point $-1 65.508590960417493 -43.798811606241962 -10.658909375606394 #
straight-curve $-1 -65.508590960417493 0 10.658909375606394 0 -1 0 I I #
point $-1 -65.508590960417493 43.798811606241962 10.658909375606394 #
point $-1 -65.508590960417493 -43.798811606241962 10.658909375606394 #
straight-curve $-1 65.508590960417493 -43.798811606241962 0 0 0 -1 I I #
straight-curve $-1 65.508590960417493 43.798811606241962 0 0 0 -1 I I #
plane-surface $-1 65.508590960417493 0 0 -1 0 0 0 0 1 forward_v I I I I #
coedge $-1 $369 $276 $287 $378 forward $180 $-1 #
coedge $-1 $276 $369 $290 $380 reversed $180 $-1 #
straight-curve $-1 65.508590960417493 -34.602606339708011 -0.91779164814610947 0 0 1 I I #
coedge $-1 $367 $366 $279 $370 forward $180 $-1 #
edge $-1 $373 15.002251853220518 $371 24.198457119754469 $369 $413 forward 7 unknown #
vertex $-1 $281 $414 #
straight-curve $-1 0 -43.798811606241962 -3.3355832962922194 1 0 0 I I #
vertex $-1 $370 $415 #
straight-curve $-1 0 -34.602606339708011 -3.3355832962922194 1 0 0 I I #
point $-1 65.508590960417493 -43.798811606241962 -3.3355832962922194 #
point $-1 65.508590960417493 -34.602606339708011 -3.3355832962922194 #
straight-curve $-1 -65.508590960417493 -19.600354486487493 -0.3355832962922185 0 1 0 I I #
edge $-1 $288 -0.58220835185389097 $373 2.4177916481461099 $366 $416 forward 7 unknown #
point $-1 -65.508590960417493 -34.602606339708011 -0.3355832962922185 #
edge $-1 $292 0.3355832962922185 $371 3.3355832962922194 $367 $417 forward 7 unknown #
point $-1 -65.508590960417493 -43.798811606241962 -0.3355832962922185 #
straight-curve $-1 65.508590960417493 -43.798811606241962 0 0 0 -1 I I #
edge $-1 $384 -23.070449443374606 $387 -14.964659221434566 $298 $418 forward 7 unknown #
vertex $-1 $383 $419 #
straight-curve $-1 65.508590960417493 35.891534884425909 92.460174763586835 0 0 1 I I #
edge $-1 $387 -22.96079512186817 $309 -2.900684403247304 $308 $420 forward 7 unknown #
vertex $-1 $386 $421 #
straight-curve $-1 -16.943191861368945 35.891534884425909 102.46856670538725 0.62932038083071107 0 -0.77714596973225614 I I #
point $-1 65.508590960417493 35.891534884425909 0.64909180993250004 #
point $-1 57.402800738477453 15.831424165805043 10.658909375606399 #
straight-curve $-1 65.508590960417493 0 10.658909375606394 0 1 0 I I #
vertex $-1 $315 $422 #
point $-1 58.05815865512411 25.861479525115477 0.97258996630567029 #
edge $-1 $395 39.054481062509687 $398 47.651349405626121 $320 $423 forward 7 unknown #
vertex $-1 $334 $424 #
straight-curve $-1 -76.588099198451047 -4.8731635245252107 10.658909375606392 -1 0 0 I I #
edge $-1 $398 -2.3902605015336995 $331 16.91710855365152 $330 $425 forward 7 unknown #
vertex $-1 $397 $426 #
straight-curve $-1 -65.508590960417479 -4.8731635245252107 2.0620410324899723 0.74314481823134659 0 0.66913061440640931 I I #
point $-1 -55.960801598139462 -4.8731635245252107 10.658909375606394 #
point $-1 -65.508590960417493 -24.18053257971043 2.0620410324899594 #
straight-curve $-1 -65.508590960417493 0 10.658909375606394 0 -1 0 I I #
vertex $-1 $337 $427 #
point $-1 -58.490964744581611 -20.319058768673386 5.3630354678550951 #
vertex $-1 $341 $428 #
point $-1 -58.490964744581611 -14.52684805211782 5.3630354678550951 #
vertex $-1 $345 $429 #
point $-1 -58.490964744581611 -8.7346373355622546 5.3630354678550951 #
straight-curve $-1 -65.508590960417493 43.798811606241962 0 0 0 -1 I I #
point $-1 -65.508590960417493 -43.798811606241962 -10.658909375606394 #
straight-curve $-1 -65.508590960417493 0 -10.658909375606394 0 1 0 I I #
point $-1 -65.508590960417493 43.798811606241962 -10.658909375606394 #
straight-curve $-1 -65.508590960417493 -19.600354486487493 -3.3355832962922194 0 -1 0 I I #
point $-1 -65.508590960417493 -43.798811606241962 -3.3355832962922194 #
point $-1 -65.508590960417493 -34.602606339708011 -3.3355832962922194 #
straight-curve $-1 -65.508590960417493 -34.602606339708011 -0.91779164814610947 0 0 -1 I I #
straight-curve $-1 -65.508590960417493 -43.798811606241962 0 0 0 -1 I I #
straight-curve $-1 42.438141517042887 35.891534884425909 10.658909375606399 -1 0 0 I I #
point $-1 65.508590960417493 35.891534884425909 10.658909375606394 #
straight-curve $-1 57.402800738477453 12.930739762557739 10.658909375606392 0 -1 0 I I #
point $-1 57.402800738477453 35.891534884425909 10.658909375606399 #
point $-1 55.948459129279655 25.861479525115477 1.1943283496579877 #
straight-curve $-1 -65.508590960417493 -4.8731635245252107 49.713390438116079 0 0 -1 I I #
point $-1 -65.508590960417493 -4.8731635245252107 10.658909375606394 #
straight-curve $-1 -65.508590960417493 -7.2634240260589102 2.0620410324899541 0 -1 0 I I #
point $-1 -65.508590960417493 -4.8731635245252107 2.0620410324899594 #
point $-1 -58.564978948406548 -20.319058768673386 3.9507600352173391 #
point $-1 -58.564978948406548 -14.52684805211782 3.9507600352173391 #
point $-1 -58.564978948406548 -8.7346373355622546 3.9507600352173391 #
End-of-ACIS-data 