500 0 7 0           
7 Unknown 11 ACIS 5.0 NT 24 Fri Mar 26 00:43:25 1999 
-1 9.9999999999999995e-007 1e-010 
body $-1 $7 $-1 $8 #
body $-1 $9 $-1 $10 #
body $-1 $11 $-1 $12 #
body $-1 $13 $-1 $14 #
body $-1 $15 $-1 $16 #
body $-1 $17 $-1 $18 #
body $-1 $19 $-1 $20 #
lump $-1 $-1 $21 $0 #
transform $-1 1 0 0 0 1 0 0 0 1 55.421613208410903 28.16629659221244 8.9751005386196265 1 rotate no_reflect no_shear #
lump $-1 $-1 $22 $1 #
transform $-1 1 0 0 0 1 0 0 0 1 55.421613208410903 28.16629659221244 8.9751005386196265 1 rotate no_reflect no_shear #
lump $-1 $-1 $23 $2 #
transform $-1 1 0 0 0 1 0 0 0 1 55.421613208410903 28.16629659221244 8.9751005386196265 1 rotate no_reflect no_shear #
lump $-1 $-1 $24 $3 #
transform $-1 1 0 0 0 1 0 0 0 1 55.421613208410903 28.16629659221244 8.9751005386196265 1 rotate no_reflect no_shear #
lump $-1 $-1 $25 $4 #
transform $-1 1 0 0 0 1 0 0 0 1 55.421613208410903 28.16629659221244 8.9751005386196265 1 rotate no_reflect no_shear #
lump $-1 $-1 $26 $5 #
transform $-1 1 0 0 0 1 0 0 0 1 55.421613208410903 28.16629659221244 8.9751005386196265 1 rotate no_reflect no_shear #
lump $-1 $-1 $27 $6 #
transform $-1 1 0 0 0 1 0 0 0 1 55.421613208410903 28.16629659221244 8.9751005386196265 1 rotate no_reflect no_shear #
shell $-1 $-1 $-1 $28 $-1 $7 #
shell $-1 $-1 $-1 $29 $-1 $9 #
shell $-1 $-1 $-1 $30 $-1 $11 #
shell $-1 $-1 $-1 $31 $-1 $13 #
shell $-1 $-1 $-1 $32 $-1 $15 #
shell $-1 $-1 $-1 $33 $-1 $17 #
shell $-1 $-1 $-1 $34 $-1 $19 #
face $-1 $35 $36 $21 $-1 $37 forward single #
face $-1 $38 $39 $22 $-1 $40 forward single #
face $-1 $41 $42 $23 $-1 $43 forward single #
face $-1 $44 $45 $24 $-1 $46 reversed single #
face $-1 $47 $48 $25 $-1 $49 forward single #
face $-1 $50 $51 $26 $-1 $52 forward single #
face $-1 $53 $54 $27 $-1 $55 forward single #
face $-1 $56 $57 $21 $-1 $58 reversed single #
loop $-1 $-1 $59 $28 #
plane-surface $-1 0 0 8.9751005386196265 0 0 1 1 0 0 forward_v I I I I #
face $-1 $60 $61 $22 $-1 $62 reversed single #
loop $-1 $-1 $63 $29 #
plane-surface $-1 0 -28.16629659221244 0 0 1 0 0 0 1 forward_v I I I I #
face $-1 $64 $65 $23 $-1 $66 reversed single #
loop $-1 $-1 $67 $30 #
plane-surface $-1 0 28.16629659221244 0 0 -1 0 0 0 -1 forward_v I I I I #
face $-1 $68 $69 $24 $-1 $70 reversed single #
loop $-1 $-1 $71 $31 #
plane-surface $-1 -118.99867682959871 -19.169135608712889 92.826841027632085 0 1 0 -0.57357644374324357 0 0.81915203911291934 forward_v I I I I #
face $-1 $72 $73 $25 $-1 $74 forward single #
loop $-1 $75 $76 $32 #
cone-surface $-1 -50.175070956657997 -17.291335374592453 5.0926672929721057 0.57357644374324357 0 -0.81915203911291934 0.40957601955645967 0 0.28678822187162178 1 I I 0 1 0.5 forward I I I I #
face $-1 $77 $78 $26 $-1 $79 forward single #
loop $-1 $80 $81 $33 #
cone-surface $-1 -50.175070956657997 -14.474635023411796 5.0926672929721057 0.57357644374324357 0 -0.81915203911291934 0.40957601955645967 0 0.28678822187162178 1 I I 0 1 0.5 forward I I I I #
face $-1 $82 $83 $27 $-1 $84 forward single #
loop $-1 $85 $86 $34 #
cone-surface $-1 -50.175070956657997 -11.657934672231139 5.0926672929721057 0.57357644374324357 0 -0.81915203911291934 0.40957601955645967 0 0.28678822187162178 1 I I 0 1 0.5 forward I I I I #
face $-1 $87 $88 $21 $-1 $89 reversed single #
loop $-1 $-1 $90 $35 #
plane-surface $-1 0 0 -8.9751005386196265 0 0 1 1 0 0 forward_v I I I I #
coedge $-1 $91 $92 $93 $94 forward $36 $-1 #
face $-1 $95 $96 $22 $-1 $97 forward single #
loop $-1 $-1 $98 $38 #
plane-surface $-1 -55.421613208410903 0 0 1 0 0 0 0 -1 forward_v I I I I #
coedge $-1 $99 $100 $101 $102 forward $39 $-1 #
face $-1 $103 $104 $23 $-1 $105 forward single #
loop $-1 $-1 $106 $41 #
plane-surface $-1 55.421613208410903 0 0 -1 0 0 0 0 1 forward_v I I I I #
coedge $-1 $107 $108 $109 $110 forward $42 $-1 #
face $-1 $111 $112 $24 $-1 $113 reversed single #
loop $-1 $-1 $114 $44 #
plane-surface $-1 -55.421613208410903 -14.474635023411796 2.0293860864374977 -0.57357644374324357 0 0.81915203911291934 0.81915203911291934 0 0.57357644374324357 forward_v I I I I #
coedge $-1 $115 $116 $117 $118 reversed $45 $-1 #
face $-1 $-1 $119 $25 $-1 $120 forward single #
loop $-1 $121 $122 $47 #
cone-surface $-1 -49.744888623850564 -17.291335374592453 4.4783032636374163 0.57357644374324357 0 -0.81915203911291934 0.20478800977822983 0 0.14339411093581089 1 I I -0.70710678118654746 0.70710678118654746 0.25 forward I I I I #
loop $-1 $-1 $123 $32 #
coedge $-1 $76 $76 $124 $125 reversed $48 $-1 #
face $-1 $-1 $126 $26 $-1 $127 forward single #
loop $-1 $128 $129 $50 #
cone-surface $-1 -49.744888623850564 -14.474635023411796 4.4783032636374163 0.57357644374324357 0 -0.81915203911291934 0.20478800977822983 0 0.14339411093581089 1 I I -0.70710678118654746 0.70710678118654746 0.25 forward I I I I #
loop $-1 $-1 $130 $33 #
coedge $-1 $81 $81 $131 $132 reversed $51 $-1 #
face $-1 $-1 $133 $27 $-1 $134 forward single #
loop $-1 $135 $136 $53 #
cone-surface $-1 -49.744888623850564 -11.657934672231139 4.4783032636374163 0.57357644374324357 0 -0.81915203911291934 0.20478800977822983 0 0.14339411093581089 1 I I -0.70710678118654746 0.70710678118654746 0.25 forward I I I I #
loop $-1 $-1 $137 $34 #
coedge $-1 $86 $86 $138 $139 reversed $54 $-1 #
face $-1 $140 $141 $21 $-1 $142 reversed single #
loop $-1 $-1 $143 $56 #
plane-surface $-1 0 -28.16629659221244 0 0 1 0 0 0 1 forward_v I I I I #
coedge $-1 $144 $145 $146 $147 forward $57 $-1 #
coedge $-1 $148 $59 $149 $150 forward $36 $-1 #
coedge $-1 $59 $148 $151 $152 forward $36 $-1 #
coedge $-1 $153 $154 $59 $94 reversed $155 $-1 #
edge $-1 $156 -28.16629659221244 $157 28.16629659221244 $93 $158 forward 7 unknown #
face $-1 $159 $160 $22 $-1 $161 reversed single #
loop $-1 $-1 $162 $60 #
plane-surface $-1 0 -32.664877083962217 -0.086068529086418266 0 0 1 1 0 0 forward_v I I I I #
coedge $-1 $163 $164 $100 $165 forward $61 $-1 #
coedge $-1 $166 $63 $167 $168 reversed $39 $-1 #
coedge $-1 $63 $166 $98 $165 reversed $39 $-1 #
coedge $-1 $169 $162 $63 $102 reversed $96 $-1 #
edge $-1 $170 -55.421613208410903 $171 55.421613208410903 $101 $172 forward 7 unknown #
face $-1 $173 $174 $23 $-1 $175 reversed single #
loop $-1 $-1 $176 $64 #
plane-surface $-1 0 32.664877083962217 -0.086068529086418266 0 0 1 1 0 0 forward_v I I I I #
coedge $-1 $177 $178 $108 $179 forward $65 $-1 #
coedge $-1 $180 $67 $181 $182 reversed $42 $-1 #
coedge $-1 $67 $180 $106 $179 reversed $42 $-1 #
coedge $-1 $176 $183 $67 $110 reversed $104 $-1 #
edge $-1 $184 -55.421613208410903 $185 55.421613208410903 $109 $186 forward 7 unknown #
face $-1 $187 $188 $24 $-1 $189 reversed single #
loop $-1 $-1 $190 $68 #
plane-surface $-1 -118.99867682959871 -9.7801344381107036 92.826841027632085 0 -1 0 0.57357644374324357 0 -0.81915203911291934 forward_v I I I I #
coedge $-1 $191 $192 $193 $194 reversed $69 $-1 #
coedge $-1 $116 $71 $195 $196 reversed $45 $-1 #
coedge $-1 $71 $115 $191 $197 reversed $45 $-1 #
coedge $-1 $193 $198 $71 $118 forward $199 $-1 #
edge $-1 $200 4.0777252063884504 $201 13.997233266151035 $117 $202 forward 7 unknown #
loop $-1 $-1 $124 $72 #
plane-surface $-1 -55.421613208410903 -14.474635023411796 2.0293860864374977 -0.57357644374324357 0 0.81915203911291934 0.81915203911291934 0 0.57357644374324357 forward_v I I I I #
loop $-1 $-1 $203 $47 #
coedge $-1 $122 $122 $123 $204 reversed $73 $-1 #
coedge $-1 $123 $123 $122 $204 forward $75 $-1 #
coedge $-1 $124 $124 $76 $125 forward $119 $-1 #
edge $-1 $205 0 $205 6.2831853071796004 $124 $206 forward 7 unknown #
loop $-1 $-1 $131 $77 #
plane-surface $-1 -55.421613208410903 -14.474635023411796 2.0293860864374977 -0.57357644374324357 0 0.81915203911291934 0.81915203911291934 0 0.57357644374324357 forward_v I I I I #
loop $-1 $-1 $207 $50 #
coedge $-1 $129 $129 $130 $208 reversed $78 $-1 #
coedge $-1 $130 $130 $129 $208 forward $80 $-1 #
coedge $-1 $131 $131 $81 $132 forward $126 $-1 #
edge $-1 $209 0 $209 6.2831853071796004 $131 $210 forward 7 unknown #
loop $-1 $-1 $138 $82 #
plane-surface $-1 -55.421613208410903 -14.474635023411796 2.0293860864374977 -0.57357644374324357 0 0.81915203911291934 0.81915203911291934 0 0.57357644374324357 forward_v I I I I #
loop $-1 $-1 $211 $53 #
coedge $-1 $136 $136 $137 $212 reversed $83 $-1 #
coedge $-1 $137 $137 $136 $212 forward $85 $-1 #
coedge $-1 $138 $138 $86 $139 forward $133 $-1 #
edge $-1 $213 0 $213 6.2831853071796004 $138 $214 forward 7 unknown #
face $-1 $215 $216 $21 $-1 $217 reversed single #
loop $-1 $-1 $218 $87 #
plane-surface $-1 -55.421613208410903 0 0 1 0 0 0 0 -1 forward_v I I I I #
coedge $-1 $219 $151 $220 $221 forward $88 $-1 #
coedge $-1 $222 $90 $219 $223 forward $57 $-1 #
coedge $-1 $90 $222 $224 $225 forward $57 $-1 #
coedge $-1 $154 $153 $90 $147 reversed $155 $-1 #
edge $-1 $226 -28.16629659221244 $227 28.16629659221244 $146 $228 forward 7 unknown #
coedge $-1 $92 $91 $229 $230 forward $36 $-1 #
coedge $-1 $231 $232 $91 $150 reversed $216 $-1 #
edge $-1 $157 -55.421613208410903 $233 55.421613208410903 $149 $234 forward 7 unknown #
coedge $-1 $143 $235 $92 $152 reversed $88 $-1 #
edge $-1 $236 -55.421613208410903 $156 55.421613208410903 $151 $237 forward 7 unknown #
coedge $-1 $146 $93 $235 $238 forward $155 $-1 #
coedge $-1 $93 $146 $231 $239 reversed $155 $-1 #
loop $-1 $-1 $153 $215 #
vertex $-1 $94 $240 #
vertex $-1 $94 $241 #
straight-curve $-1 55.421613208410903 0 8.9751005386196265 0 1 0 I I #
face $-1 $242 $243 $22 $-1 $244 reversed single #
loop $-1 $-1 $245 $95 #
plane-surface $-1 0 -32.664877083962217 -5.2125609361091136 0 0 1 1 0 0 forward_v I I I I #
coedge $-1 $101 $246 $247 $248 forward $96 $-1 #
coedge $-1 $249 $98 $250 $251 reversed $61 $-1 #
coedge $-1 $98 $249 $169 $252 reversed $61 $-1 #
edge $-1 $170 0.086068529086418266 $253 5.2125609361091136 $98 $254 forward 7 unknown #
coedge $-1 $100 $99 $255 $256 forward $39 $-1 #
coedge $-1 $247 $257 $99 $168 forward $258 $-1 #
edge $-1 $259 -5.2125609361091136 $171 -0.086068529086418266 $167 $260 forward 7 unknown #
coedge $-1 $246 $101 $164 $252 forward $96 $-1 #
vertex $-1 $165 $261 #
vertex $-1 $248 $262 #
straight-curve $-1 0 -28.16629659221244 -0.086068529086418266 1 0 0 I I #
face $-1 $263 $264 $23 $-1 $265 reversed single #
loop $-1 $-1 $266 $103 #
plane-surface $-1 0 32.664877083962217 -5.2125609361091136 0 0 1 1 0 0 forward_v I I I I #
coedge $-1 $267 $109 $178 $268 forward $104 $-1 #
coedge $-1 $269 $106 $266 $270 reversed $65 $-1 #
coedge $-1 $106 $269 $176 $268 reversed $65 $-1 #
edge $-1 $184 0.086068529086418266 $271 5.2125609361091136 $106 $272 forward 7 unknown #
coedge $-1 $108 $107 $273 $274 forward $42 $-1 #
coedge $-1 $275 $276 $107 $182 forward $277 $-1 #
edge $-1 $278 -5.2125609361091136 $185 -0.086068529086418266 $181 $279 forward 7 unknown #
coedge $-1 $109 $267 $275 $280 forward $104 $-1 #
vertex $-1 $179 $281 #
vertex $-1 $280 $282 #
straight-curve $-1 0 28.16629659221244 -0.086068529086418266 -1 0 0 I I #
face $-1 $-1 $199 $24 $-1 $283 forward single #
loop $-1 $-1 $284 $111 #
plane-surface $-1 -55.421613208410903 0 0 1 0 0 0 0 -1 forward_v I I I I #
coedge $-1 $285 $286 $287 $288 reversed $112 $-1 #
coedge $-1 $289 $114 $116 $197 forward $69 $-1 #
coedge $-1 $114 $289 $285 $290 forward $69 $-1 #
coedge $-1 $287 $117 $114 $194 forward $199 $-1 #
edge $-1 $201 -11.931818097006991 $291 -2.5428169264048055 $193 $292 forward 7 unknown #
coedge $-1 $293 $294 $115 $196 forward $188 $-1 #
edge $-1 $295 -44.384034427378545 $200 -37.438319975196414 $195 $296 forward 7 unknown #
edge $-1 $201 -12.109483448890236 $295 0 $116 $297 forward 7 unknown #
coedge $-1 $117 $287 $293 $298 forward $199 $-1 #
loop $-1 $-1 $287 $187 #
vertex $-1 $196 $299 #
vertex $-1 $118 $300 #
straight-curve $-1 -59.499338414799354 -19.169135608712889 8.9751005386196283 1 0 0 I I #
coedge $-1 $203 $203 $-1 $301 reversed $121 $-1 #
edge $-1 $302 0 $302 6.2831853071796004 $122 $303 forward 7 unknown #
vertex $-1 $125 $304 #
ellipse-curve $-1 -50.461859178529615 -17.291335374592453 5.5022433125285604 -0.57357644374324357 0 0.81915203911291934 0.40957601955645967 0 0.28678822187162178 1 I I #
coedge $-1 $207 $207 $-1 $305 reversed $128 $-1 #
edge $-1 $306 0 $306 6.2831853071796004 $129 $307 forward 7 unknown #
vertex $-1 $132 $308 #
ellipse-curve $-1 -50.461859178529615 -14.474635023411796 5.5022433125285604 -0.57357644374324357 0 0.81915203911291934 0.40957601955645967 0 0.28678822187162178 1 I I #
coedge $-1 $211 $211 $-1 $309 reversed $135 $-1 #
edge $-1 $310 0 $310 6.2831853071796004 $136 $311 forward 7 unknown #
vertex $-1 $139 $312 #
ellipse-curve $-1 -50.461859178529615 -11.657934672231139 5.5022433125285604 -0.57357644374324357 0 0.81915203911291934 0.40957601955645967 0 0.28678822187162178 1 I I #
face $-1 $-1 $155 $21 $-1 $313 reversed single #
loop $-1 $-1 $232 $140 #
plane-surface $-1 0 28.16629659221244 0 0 -1 0 0 0 -1 forward_v I I I I #
coedge $-1 $314 $229 $232 $315 forward $141 $-1 #
coedge $-1 $235 $143 $144 $223 reversed $88 $-1 #
coedge $-1 $229 $314 $143 $221 reversed $141 $-1 #
edge $-1 $236 -8.9751005386196265 $316 8.9751005386196265 $220 $317 forward 7 unknown #
coedge $-1 $145 $144 $314 $318 forward $57 $-1 #
edge $-1 $227 -55.421613208410903 $316 55.421613208410903 $219 $319 forward 7 unknown #
coedge $-1 $232 $231 $145 $225 reversed $216 $-1 #
edge $-1 $320 -55.421613208410903 $226 55.421613208410903 $224 $321 forward 7 unknown #
vertex $-1 $147 $322 #
vertex $-1 $238 $323 #
straight-curve $-1 55.421613208410903 0 -8.9751005386196265 0 -1 0 I I #
coedge $-1 $218 $220 $148 $230 reversed $141 $-1 #
edge $-1 $233 -28.16629659221244 $236 28.16629659221244 $229 $324 forward 7 unknown #
coedge $-1 $224 $149 $154 $239 forward $216 $-1 #
coedge $-1 $149 $224 $218 $315 reversed $216 $-1 #
vertex $-1 $150 $325 #
straight-curve $-1 0 28.16629659221244 8.9751005386196265 -1 0 0 I I #
coedge $-1 $151 $219 $153 $238 reversed $88 $-1 #
vertex $-1 $230 $326 #
straight-curve $-1 0 -28.16629659221244 8.9751005386196265 1 0 0 I I #
edge $-1 $156 -8.9751005386196265 $227 8.9751005386196265 $153 $327 forward 7 unknown #
edge $-1 $157 -8.9751005386196265 $226 8.9751005386196265 $154 $328 forward 7 unknown #
point $-1 55.421613208410903 -28.16629659221244 8.9751005386196265 #
point $-1 55.421613208410903 28.16629659221244 8.9751005386196265 #
face $-1 $-1 $258 $22 $-1 $329 reversed single #
loop $-1 $-1 $330 $159 #
plane-surface $-1 0 -37.163457575711995 -2.649314732597766 0 1 0 0 0 1 forward_v I I I I #
coedge $-1 $331 $255 $257 $332 forward $160 $-1 #
coedge $-1 $162 $169 $333 $334 forward $96 $-1 #
coedge $-1 $335 $167 $162 $248 reversed $258 $-1 #
edge $-1 $336 -4.4985804917497774 $171 4.4985804917497738 $247 $337 forward 7 unknown #
coedge $-1 $164 $163 $330 $338 reversed $61 $-1 #
coedge $-1 $255 $331 $163 $251 forward $160 $-1 #
edge $-1 $339 -4.4985804917497774 $253 4.4985804917497738 $163 $340 forward 7 unknown #
edge $-1 $170 -4.4985804917497738 $341 4.4985804917497774 $164 $342 forward 7 unknown #
vertex $-1 $165 $343 #
straight-curve $-1 -55.421613208410903 -28.16629659221244 0 0 0 -1 I I #
coedge $-1 $245 $250 $166 $256 reversed $160 $-1 #
edge $-1 $259 -55.421613208410903 $253 55.421613208410903 $255 $344 forward 7 unknown #
coedge $-1 $167 $335 $245 $332 reversed $258 $-1 #
loop $-1 $-1 $167 $242 #
vertex $-1 $168 $345 #
straight-curve $-1 55.421613208410903 -28.16629659221244 0 0 0 1 I I #
point $-1 -55.421613208410903 -28.166296592212444 -0.086068529086418266 #
point $-1 55.421613208410903 -28.166296592212444 -0.086068529086418266 #
face $-1 $-1 $277 $23 $-1 $346 reversed single #
loop $-1 $-1 $347 $173 #
plane-surface $-1 0 37.163457575711995 -2.649314732597766 0 -1 0 0 0 -1 forward_v I I I I #
coedge $-1 $273 $348 $177 $270 forward $174 $-1 #
coedge $-1 $183 $176 $349 $350 forward $104 $-1 #
edge $-1 $184 -4.4985804917497774 $351 4.4985804917497774 $178 $352 forward 7 unknown #
coedge $-1 $178 $177 $347 $353 reversed $65 $-1 #
edge $-1 $354 -4.4985804917497774 $271 4.4985804917497774 $177 $355 forward 7 unknown #
vertex $-1 $179 $356 #
straight-curve $-1 55.421613208410903 28.16629659221244 0 0 0 -1 I I #
coedge $-1 $357 $266 $180 $274 reversed $174 $-1 #
edge $-1 $278 -55.421613208410903 $271 55.421613208410903 $273 $358 forward 7 unknown #
coedge $-1 $359 $181 $183 $280 reversed $277 $-1 #
coedge $-1 $181 $359 $357 $360 reversed $277 $-1 #
loop $-1 $-1 $181 $263 #
vertex $-1 $182 $361 #
straight-curve $-1 -55.421613208410903 28.16629659221244 0 0 0 1 I I #
edge $-1 $362 -4.4985804917497774 $185 4.4985804917497774 $275 $363 forward 7 unknown #
point $-1 55.421613208410903 28.16629659221244 -0.086068529086418266 #
point $-1 -55.421613208410903 28.16629659221244 -0.086068529086418266 #
plane-surface $-1 0 0 8.9751005386196265 0 0 1 1 0 0 forward_v I I I I #
coedge $-1 $294 $293 $286 $364 forward $188 $-1 #
coedge $-1 $286 $190 $192 $290 reversed $112 $-1 #
coedge $-1 $190 $285 $284 $364 reversed $112 $-1 #
coedge $-1 $198 $193 $190 $288 forward $199 $-1 #
edge $-1 $291 -13.997233266151035 $365 -4.0777252063884504 $287 $366 forward 7 unknown #
coedge $-1 $192 $191 $294 $367 reversed $69 $-1 #
edge $-1 $368 0 $291 12.109483448890236 $285 $369 forward 7 unknown #
vertex $-1 $194 $370 #
straight-curve $-1 -45.502105148648326 -7.2373175117058981 8.9751005386196283 0 1 0 I I #
coedge $-1 $284 $195 $198 $298 reversed $188 $-1 #
coedge $-1 $195 $284 $289 $367 forward $188 $-1 #
vertex $-1 $196 $371 #
straight-curve $-1 -55.421613208410903 -19.169135608712889 46.413420513816043 0 0 1 I I #
straight-curve $-1 -55.421613208410903 -19.169135608712889 2.0293860864374977 -0.81915203911291934 0 -0.57357644374324357 I I #
edge $-1 $365 9.7801344381107036 $200 19.169135608712889 $293 $372 forward 7 unknown #
point $-1 -55.421613208410903 -19.169135608712889 8.9751005386196265 #
point $-1 -45.502105148648319 -19.169135608712889 8.9751005386196265 #
edge $-1 $373 1 $373 0 $203 $-1 forward 7 unknown #
vertex $-1 $204 $374 #
ellipse-curve $-1 -49.888282734786372 -17.291335374592453 4.6830912734156458 -0.57357644374324357 0 0.81915203911291934 0.40957601955645967 0 0.28678822187162178 1 I I #
point $-1 -50.052283158973161 -17.291335374592453 5.7890315344001877 #
edge $-1 $375 1 $375 0 $207 $-1 forward 7 unknown #
vertex $-1 $208 $376 #
ellipse-curve $-1 -49.888282734786372 -14.474635023411796 4.6830912734156458 -0.57357644374324357 0 0.81915203911291934 0.40957601955645967 0 0.28678822187162178 1 I I #
point $-1 -50.052283158973161 -14.474635023411796 5.7890315344001877 #
edge $-1 $377 1 $377 0 $211 $-1 forward 7 unknown #
vertex $-1 $212 $378 #
ellipse-curve $-1 -49.888282734786372 -11.657934672231139 4.6830912734156458 -0.57357644374324357 0 0.81915203911291934 0.40957601955645967 0 0.28678822187162178 1 I I #
point $-1 -50.052283158973161 -11.657934672231139 5.7890315344001877 #
plane-surface $-1 55.421613208410903 0 0 -1 0 0 0 0 1 forward_v I I I I #
coedge $-1 $220 $218 $222 $318 reversed $141 $-1 #
edge $-1 $233 -8.9751005386196265 $320 8.9751005386196265 $232 $379 forward 7 unknown #
vertex $-1 $318 $380 #
straight-curve $-1 -55.421613208410903 -28.16629659221244 0 0 0 -1 I I #
edge $-1 $316 -28.16629659221244 $320 28.16629659221244 $314 $381 forward 7 unknown #
straight-curve $-1 0 -28.16629659221244 -8.9751005386196265 -1 0 0 I I #
vertex $-1 $225 $382 #
straight-curve $-1 0 28.16629659221244 -8.9751005386196265 1 0 0 I I #
point $-1 55.421613208410903 28.16629659221244 -8.9751005386196265 #
point $-1 55.421613208410903 -28.16629659221244 -8.9751005386196265 #
straight-curve $-1 -55.421613208410903 0 8.9751005386196265 0 -1 0 I I #
point $-1 -55.421613208410903 28.16629659221244 8.9751005386196265 #
point $-1 -55.421613208410903 -28.16629659221244 8.9751005386196265 #
straight-curve $-1 55.421613208410903 -28.16629659221244 0 0 0 -1 I I #
straight-curve $-1 55.421613208410903 28.16629659221244 0 0 0 -1 I I #
plane-surface $-1 55.421613208410903 0 0 -1 0 0 0 0 1 forward_v I I I I #
coedge $-1 $383 $333 $249 $338 forward $243 $-1 #
coedge $-1 $250 $245 $383 $384 forward $160 $-1 #
edge $-1 $259 -4.4985804917497738 $385 4.4985804917497774 $257 $386 forward 7 unknown #
coedge $-1 $330 $387 $246 $334 reversed $243 $-1 #
edge $-1 $341 -55.421613208410903 $336 55.421613208410903 $333 $388 forward 7 unknown #
coedge $-1 $257 $247 $387 $389 forward $258 $-1 #
vertex $-1 $248 $390 #
straight-curve $-1 55.421613208410903 -32.664877083962217 -0.086068529086418266 0 1 0 I I #
edge $-1 $341 -2.5632462035113477 $339 2.5632462035113477 $249 $391 forward 7 unknown #
vertex $-1 $251 $392 #
straight-curve $-1 -55.421613208410903 -32.664877083962217 -5.2125609361091136 0 1 0 I I #
vertex $-1 $252 $393 #
straight-curve $-1 -55.421613208410903 -32.664877083962217 -0.086068529086418266 0 -1 0 I I #
point $-1 -55.421613208410903 -28.166296592212444 -5.2125609361091136 #
straight-curve $-1 0 -28.16629659221244 -5.2125609361091136 -1 0 0 I I #
point $-1 55.421613208410903 -28.166296592212444 -5.2125609361091136 #
plane-surface $-1 -55.421613208410903 0 0 1 0 0 0 0 -1 forward_v I I I I #
coedge $-1 $394 $349 $269 $353 forward $264 $-1 #
coedge $-1 $266 $357 $394 $395 forward $174 $-1 #
coedge $-1 $347 $396 $267 $350 reversed $264 $-1 #
edge $-1 $351 -55.421613208410903 $362 55.421613208410903 $349 $397 forward 7 unknown #
vertex $-1 $268 $398 #
straight-curve $-1 55.421613208410903 32.664877083962217 -0.086068529086418266 0 1 0 I I #
edge $-1 $351 -2.5632462035113477 $354 2.5632462035113477 $269 $399 forward 7 unknown #
vertex $-1 $270 $400 #
straight-curve $-1 55.421613208410903 32.664877083962217 -5.2125609361091136 0 -1 0 I I #
point $-1 55.421613208410903 28.16629659221244 -5.2125609361091136 #
coedge $-1 $348 $273 $276 $360 forward $174 $-1 #
straight-curve $-1 0 28.16629659221244 -5.2125609361091136 1 0 0 I I #
coedge $-1 $276 $275 $396 $401 forward $277 $-1 #
edge $-1 $278 -4.4985804917497774 $402 4.4985804917497774 $276 $403 forward 7 unknown #
point $-1 -55.421613208410903 28.16629659221244 -5.2125609361091136 #
vertex $-1 $350 $404 #
straight-curve $-1 -55.421613208410903 32.664877083962217 -0.086068529086418266 0 -1 0 I I #
edge $-1 $365 37.438319975196414 $368 44.384034427378545 $284 $405 forward 7 unknown #
vertex $-1 $298 $406 #
straight-curve $-1 -59.499338414799354 -9.7801344381107036 8.9751005386196283 -1 0 0 I I #
edge $-1 $368 2.5428169264048055 $295 11.931818097006991 $294 $407 forward 7 unknown #
vertex $-1 $367 $408 #
straight-curve $-1 -55.421613208410903 -9.7801344381107036 2.0293860864374977 0.81915203911291934 0 0.57357644374324357 I I #
point $-1 -45.502105148648319 -9.7801344381107036 8.9751005386196265 #
point $-1 -55.421613208410903 -19.169135608712889 2.0293860864374977 #
straight-curve $-1 -55.421613208410903 0 8.9751005386196265 0 -1 0 I I #
vertex $-1 $301 $409 #
point $-1 -49.478706715229912 -17.291335374592453 4.9698794952872678 #
vertex $-1 $305 $410 #
point $-1 -49.478706715229912 -14.474635023411796 4.9698794952872678 #
vertex $-1 $309 $411 #
point $-1 -49.478706715229912 -11.657934672231139 4.9698794952872678 #
straight-curve $-1 -55.421613208410903 28.16629659221244 0 0 0 -1 I I #
point $-1 -55.421613208410903 -28.16629659221244 -8.9751005386196265 #
straight-curve $-1 -55.421613208410903 0 -8.9751005386196265 0 1 0 I I #
point $-1 -55.421613208410903 28.16629659221244 -8.9751005386196265 #
coedge $-1 $387 $330 $331 $384 reversed $243 $-1 #
edge $-1 $385 -55.421613208410903 $339 55.421613208410903 $383 $412 forward 7 unknown #
vertex $-1 $389 $413 #
straight-curve $-1 55.421613208410903 -32.664877083962217 -5.2125609361091136 0 -1 0 I I #
coedge $-1 $333 $383 $335 $389 reversed $243 $-1 #
straight-curve $-1 0 -37.163457575711995 -0.086068529086418266 1 0 0 I I #
edge $-1 $336 -2.5632462035113477 $385 2.5632462035113477 $335 $414 forward 7 unknown #
point $-1 55.421613208410903 -37.163457575711995 -0.086068529086418266 #
straight-curve $-1 -55.421613208410903 -37.163457575711995 -2.649314732597766 0 0 -1 I I #
point $-1 -55.421613208410903 -37.163457575711995 -5.2125609361091136 #
point $-1 -55.421613208410903 -37.163457575711995 -0.086068529086418266 #
coedge $-1 $396 $347 $348 $395 reversed $264 $-1 #
edge $-1 $402 -55.421613208410903 $354 55.421613208410903 $394 $415 forward 7 unknown #
coedge $-1 $349 $394 $359 $401 reversed $264 $-1 #
straight-curve $-1 0 37.163457575711995 -0.086068529086418266 -1 0 0 I I #
point $-1 55.421613208410903 37.163457575711995 -0.086068529086418266 #
straight-curve $-1 55.421613208410903 37.163457575711995 -2.649314732597766 0 0 -1 I I #
point $-1 55.421613208410903 37.163457575711995 -5.2125609361091136 #
edge $-1 $362 -2.5632462035113477 $402 2.5632462035113477 $396 $416 forward 7 unknown #
vertex $-1 $395 $417 #
straight-curve $-1 -55.421613208410903 32.664877083962217 -5.2125609361091136 0 1 0 I I #
point $-1 -55.421613208410903 37.163457575711995 -0.086068529086418266 #
straight-curve $-1 -55.421613208410903 -9.7801344381107036 46.413420513816043 0 0 -1 I I #
point $-1 -55.421613208410903 -9.7801344381107036 8.9751005386196265 #
straight-curve $-1 -55.421613208410903 -7.2373175117058981 2.0293860864374995 0 -1 0 I I #
point $-1 -55.421613208410903 -9.7801344381107036 2.0293860864374977 #
point $-1 -49.601494512914755 -17.291335374592453 4.2735152538591867 #
point $-1 -49.601494512914755 -14.474635023411796 4.2735152538591867 #
point $-1 -49.601494512914755 -11.657934672231139 4.2735152538591867 #
straight-curve $-1 0 -37.163457575711995 -5.2125609361091136 -1 0 0 I I #
point $-1 55.421613208410903 -37.163457575711995 -5.2125609361091136 #
straight-curve $-1 55.421613208410903 -37.163457575711995 -2.649314732597766 0 0 -1 I I #
straight-curve $-1 0 37.163457575711995 -5.2125609361091136 1 0 0 I I #
straight-curve $-1 -55.421613208410903 37.163457575711995 -2.649314732597766 0 0 -1 I I #
point $-1 -55.421613208410903 37.163457575711995 -5.2125609361091136 #
End-of-ACIS-data 