500 0 11 0           
7 Unknown 11 ACIS 5.0 NT 24 Fri Mar 26 15:06:38 1999 
-1 9.9999999999999995e-007 1e-010 
body $-1 $11 $-1 $12 #
body $-1 $13 $-1 $14 #
body $-1 $15 $-1 $16 #
body $-1 $17 $-1 $18 #
body $-1 $19 $-1 $20 #
body $-1 $21 $-1 $22 #
body $-1 $23 $-1 $24 #
body $-1 $25 $-1 $26 #
body $-1 $27 $-1 $28 #
body $-1 $29 $-1 $30 #
body $-1 $31 $-1 $32 #
lump $-1 $-1 $33 $0 #
transform $-1 1 0 0 0 1 0 0 0 1 59.784539323099459 30.362269885239126 11.545390493975722 1 rotate no_reflect no_shear #
lump $-1 $-1 $34 $1 #
transform $-1 1 0 0 0 1 0 0 0 1 59.784539323099459 30.362269885239126 11.545390493975722 1 rotate no_reflect no_shear #
lump $-1 $-1 $35 $2 #
transform $-1 1 0 0 0 1 0 0 0 1 59.784539323099459 30.362269885239126 11.545390493975722 1 rotate no_reflect no_shear #
lump $-1 $-1 $36 $3 #
transform $-1 1 0 0 0 1 0 0 0 1 59.784539323099459 30.362269885239126 11.545390493975722 1 rotate no_reflect no_shear #
lump $-1 $-1 $37 $4 #
transform $-1 1 0 0 0 1 0 0 0 1 59.784539323099459 30.362269885239126 11.545390493975722 1 rotate no_reflect no_shear #
lump $-1 $-1 $38 $5 #
transform $-1 1 0 0 0 1 0 0 0 1 59.784539323099459 30.362269885239126 11.545390493975722 1 rotate no_reflect no_shear #
lump $-1 $-1 $39 $6 #
transform $-1 1 0 0 0 1 0 0 0 1 59.784539323099459 30.362269885239126 11.545390493975722 1 rotate no_reflect no_shear #
lump $-1 $-1 $40 $7 #
transform $-1 1 0 0 0 1 0 0 0 1 59.784539323099459 30.362269885239126 11.545390493975722 1 rotate no_reflect no_shear #
lump $-1 $-1 $41 $8 #
transform $-1 1 0 0 0 1 0 0 0 1 59.784539323099459 30.362269885239126 11.545390493975722 1 rotate no_reflect no_shear #
lump $-1 $-1 $42 $9 #
transform $-1 1 0 0 0 1 0 0 0 1 59.784539323099459 30.362269885239126 11.545390493975722 1 rotate no_reflect no_shear #
lump $-1 $-1 $43 $10 #
transform $-1 1 0 0 0 1 0 0 0 1 59.784539323099459 30.362269885239126 11.545390493975722 1 rotate no_reflect no_shear #
shell $-1 $-1 $-1 $44 $-1 $11 #
shell $-1 $-1 $-1 $45 $-1 $13 #
shell $-1 $-1 $-1 $46 $-1 $15 #
shell $-1 $-1 $-1 $47 $-1 $17 #
shell $-1 $-1 $-1 $48 $-1 $19 #
shell $-1 $-1 $-1 $49 $-1 $21 #
shell $-1 $-1 $-1 $50 $-1 $23 #
shell $-1 $-1 $-1 $51 $-1 $25 #
shell $-1 $-1 $-1 $52 $-1 $27 #
shell $-1 $-1 $-1 $53 $-1 $29 #
shell $-1 $-1 $-1 $54 $-1 $31 #
face $-1 $55 $56 $33 $-1 $57 reversed single #
face $-1 $58 $59 $34 $-1 $60 forward single #
face $-1 $61 $62 $35 $-1 $63 reversed single #
face $-1 $64 $65 $36 $-1 $66 forward single #
face $-1 $67 $68 $37 $-1 $69 forward single #
face $-1 $70 $71 $38 $-1 $72 reversed single #
face $-1 $73 $74 $39 $-1 $75 forward single #
face $-1 $76 $77 $40 $-1 $78 forward single #
face $-1 $79 $80 $41 $-1 $81 reversed single #
face $-1 $82 $83 $42 $-1 $84 forward single #
face $-1 $85 $86 $43 $-1 $87 forward single #
face $-1 $88 $89 $33 $-1 $90 forward single #
loop $-1 $-1 $91 $44 #
plane-surface $-1 0 -30.362269885239126 0 0 1 0 0 0 1 forward_v I I I I #
face $-1 $92 $93 $34 $-1 $94 reversed single #
loop $-1 $-1 $95 $45 #
plane-surface $-1 0 -30.362269885239126 0 0 1 0 0 0 1 forward_v I I I I #
face $-1 $96 $97 $35 $-1 $98 reversed single #
loop $-1 $-1 $99 $46 #
plane-surface $-1 -123.14649834095945 -8.1326005321321393 109.88208608657492 0 1 0 -0.52991927123019833 0 0.84804809178421925 forward_v I I I I #
face $-1 $100 $101 $36 $-1 $102 forward single #
loop $-1 $103 $104 $47 #
cone-surface $-1 -57.068160583555567 -6.3734242145668212 9.5895497532300986 0.52991927123019833 0 -0.84804809178421925 0.42402404589210962 0 0.26495963561509916 1 I I 0 1 0.5 forward I I I I #
face $-1 $105 $106 $37 $-1 $107 forward single #
loop $-1 $108 $109 $48 #
cone-surface $-1 -57.068160583555567 -3.7346597382188449 9.5895497532300986 0.52991927123019833 0 -0.84804809178421925 0.42402404589210962 0 0.26495963561509916 1 I I 0 1 0.5 forward I I I I #
face $-1 $110 $111 $38 $-1 $112 reversed single #
loop $-1 $-1 $113 $49 #
plane-surface $-1 -123.14649834095945 16.348021023794011 109.88208608657492 0 1 0 -0.52991927123019833 0 0.84804809178421925 forward_v I I I I #
face $-1 $114 $115 $39 $-1 $116 forward single #
loop $-1 $117 $118 $50 #
cone-surface $-1 -57.068160583555567 18.107197341359328 9.5895497532300986 0.52991927123019833 0 -0.84804809178421925 0.42402404589210962 0 0.26495963561509916 1 I I 0 1 0.5 forward I I I I #
face $-1 $119 $120 $40 $-1 $121 forward single #
loop $-1 $122 $123 $51 #
cone-surface $-1 -57.068160583555567 20.7459618177073 9.5895497532300986 0.52991927123019833 0 -0.84804809178421925 0.42402404589210962 0 0.26495963561509916 1 I I 0 1 0.5 forward I I I I #
face $-1 $124 $125 $41 $-1 $126 reversed single #
loop $-1 $-1 $127 $52 #
plane-surface $-1 92.049620179773854 3.8531452256619225 168.4291530941814 0 -1 0 -0.82903758062907751 0 -0.55919289150049634 forward_v I I I I #
face $-1 $128 $129 $42 $-1 $130 forward single #
loop $-1 $131 $132 $53 #
cone-surface $-1 55.265294152146957 -5.3175037003539813 6.0156502245861443 -0.82903758062907751 0 -0.55919289150049634 0.55919289150049634 0 -0.82903758062907751 1 I I 0 1 1 forward I I I I #
face $-1 $133 $134 $43 $-1 $135 forward single #
loop $-1 $136 $137 $54 #
cone-surface $-1 55.265294152146957 0.18488565525555956 6.0156502245861443 -0.82903758062907751 0 -0.55919289150049634 0.55919289150049634 0 -0.82903758062907751 1 I I 0 1 1 forward I I I I #
face $-1 $138 $139 $33 $-1 $140 reversed single #
loop $-1 $-1 $141 $55 #
plane-surface $-1 0 0 11.545390493975722 0 0 1 1 0 0 forward_v I I I I #
coedge $-1 $142 $143 $144 $145 reversed $56 $-1 #
face $-1 $146 $147 $34 $-1 $148 reversed single #
loop $-1 $-1 $149 $58 #
plane-surface $-1 0 0 -11.545390493975722 0 0 1 1 0 0 forward_v I I I I #
coedge $-1 $150 $151 $152 $153 forward $59 $-1 #
face $-1 $154 $155 $35 $-1 $156 reversed single #
loop $-1 $-1 $157 $61 #
plane-surface $-1 -59.784539323099459 -5.0540419763928348 8.481757104268695 -0.52991927123019833 0 0.84804809178421925 0.84804809178421925 0 0.52991927123019833 forward_v I I I I #
coedge $-1 $158 $159 $160 $161 reversed $62 $-1 #
face $-1 $-1 $162 $36 $-1 $163 forward single #
loop $-1 $164 $165 $64 #
cone-surface $-1 -56.670721130132918 -6.3734242145668212 8.9535136843919343 0.52991927123019833 0 -0.84804809178421925 0.21201202294605481 0 0.13247981780754958 1 I I -0.70710678118654746 0.70710678118654746 0.25 forward I I I I #
loop $-1 $-1 $166 $47 #
coedge $-1 $104 $104 $167 $168 reversed $65 $-1 #
face $-1 $-1 $169 $37 $-1 $170 forward single #
loop $-1 $171 $172 $67 #
cone-surface $-1 -56.670721130132918 -3.7346597382188449 8.9535136843919343 0.52991927123019833 0 -0.84804809178421925 0.21201202294605481 0 0.13247981780754958 1 I I -0.70710678118654746 0.70710678118654746 0.25 forward I I I I #
loop $-1 $-1 $173 $48 #
coedge $-1 $109 $109 $174 $175 reversed $68 $-1 #
face $-1 $176 $177 $38 $-1 $178 reversed single #
loop $-1 $-1 $179 $70 #
plane-surface $-1 -59.784539323099459 19.426579579533314 8.481757104268695 -0.52991927123019833 0 0.84804809178421925 0.84804809178421925 0 0.52991927123019833 forward_v I I I I #
coedge $-1 $180 $181 $182 $183 reversed $71 $-1 #
face $-1 $-1 $184 $39 $-1 $185 forward single #
loop $-1 $186 $187 $73 #
cone-surface $-1 -56.670721130132918 18.107197341359328 8.9535136843919343 0.52991927123019833 0 -0.84804809178421925 0.21201202294605481 0 0.13247981780754958 1 I I -0.70710678118654746 0.70710678118654746 0.25 forward I I I I #
loop $-1 $-1 $188 $50 #
coedge $-1 $118 $118 $189 $190 reversed $74 $-1 #
face $-1 $-1 $191 $40 $-1 $192 forward single #
loop $-1 $193 $194 $76 #
cone-surface $-1 -56.670721130132918 20.7459618177073 8.9535136843919343 0.52991927123019833 0 -0.84804809178421925 0.21201202294605481 0 0.13247981780754958 1 I I -0.70710678118654746 0.70710678118654746 0.25 forward I I I I #
loop $-1 $-1 $195 $51 #
coedge $-1 $123 $123 $196 $197 reversed $77 $-1 #
face $-1 $198 $199 $41 $-1 $200 reversed single #
loop $-1 $-1 $201 $79 #
plane-surface $-1 -7.0776394991187885 -2.5663090225492091 101.56697427196318 0.82903758062907751 0 0.55919289150049634 0.55919289150049634 0 -0.82903758062907751 forward_v I I I I #
coedge $-1 $202 $203 $204 $205 reversed $80 $-1 #
face $-1 $-1 $206 $42 $-1 $207 forward single #
loop $-1 $208 $209 $82 #
cone-surface $-1 53.402458068618493 -5.3175037003539813 4.7591514598988969 -0.82903758062907751 0 -0.55919289150049634 0.27959644575024817 0 -0.41451879031453875 1 I I -0.70710678118654746 0.70710678118654746 0.5 forward I I I I #
loop $-1 $-1 $210 $53 #
coedge $-1 $132 $132 $211 $212 reversed $83 $-1 #
face $-1 $-1 $213 $43 $-1 $214 forward single #
loop $-1 $215 $216 $85 #
cone-surface $-1 53.402458068618493 0.18488565525555956 4.7591514598988969 -0.82903758062907751 0 -0.55919289150049634 0.27959644575024817 0 -0.41451879031453875 1 I I -0.70710678118654746 0.70710678118654746 0.5 forward I I I I #
loop $-1 $-1 $217 $54 #
coedge $-1 $137 $137 $218 $219 reversed $86 $-1 #
face $-1 $220 $221 $33 $-1 $222 reversed single #
loop $-1 $-1 $223 $88 #
plane-surface $-1 0 0 -11.545390493975722 0 0 1 1 0 0 forward_v I I I I #
coedge $-1 $224 $225 $226 $227 forward $89 $-1 #
coedge $-1 $228 $91 $229 $230 reversed $56 $-1 #
coedge $-1 $91 $228 $231 $232 forward $56 $-1 #
coedge $-1 $233 $223 $91 $145 forward $139 $-1 #
edge $-1 $234 -59.784539323099459 $235 59.784539323099459 $91 $236 forward 7 unknown #
face $-1 $237 $238 $34 $-1 $239 reversed single #
loop $-1 $-1 $240 $92 #
plane-surface $-1 -55.36485665180296 -42.125566543865084 0 0 1 0 0 0 1 forward_v I I I I #
coedge $-1 $241 $242 $151 $243 forward $93 $-1 #
coedge $-1 $244 $95 $245 $246 reversed $59 $-1 #
coedge $-1 $95 $244 $149 $243 reversed $59 $-1 #
coedge $-1 $247 $248 $95 $153 reversed $238 $-1 #
edge $-1 $249 -11.545390493975722 $250 11.545390493975722 $152 $251 forward 7 unknown #
face $-1 $252 $253 $35 $-1 $254 reversed single #
loop $-1 $-1 $255 $96 #
plane-surface $-1 -123.14649834095945 -1.9754834206535303 109.88208608657492 0 -1 0 0.52991927123019833 0 -0.84804809178421925 forward_v I I I I #
coedge $-1 $256 $257 $258 $259 reversed $97 $-1 #
coedge $-1 $159 $99 $260 $261 reversed $62 $-1 #
coedge $-1 $99 $158 $256 $262 reversed $62 $-1 #
coedge $-1 $258 $263 $99 $161 forward $264 $-1 #
edge $-1 $265 1.7887098473802681 $266 6.6915480552378526 $160 $267 forward 7 unknown #
loop $-1 $-1 $167 $100 #
plane-surface $-1 -59.784539323099459 -5.0540419763928348 8.481757104268695 -0.52991927123019833 0 0.84804809178421925 0.84804809178421925 0 0.52991927123019833 forward_v I I I I #
loop $-1 $-1 $268 $64 #
coedge $-1 $165 $165 $166 $269 reversed $101 $-1 #
coedge $-1 $166 $166 $165 $269 forward $103 $-1 #
coedge $-1 $167 $167 $104 $168 forward $162 $-1 #
edge $-1 $270 0 $270 6.2831853071796004 $167 $271 forward 7 unknown #
loop $-1 $-1 $174 $105 #
plane-surface $-1 -59.784539323099459 -5.0540419763928348 8.481757104268695 -0.52991927123019833 0 0.84804809178421925 0.84804809178421925 0 0.52991927123019833 forward_v I I I I #
loop $-1 $-1 $272 $67 #
coedge $-1 $172 $172 $173 $273 reversed $106 $-1 #
coedge $-1 $173 $173 $172 $273 forward $108 $-1 #
coedge $-1 $174 $174 $109 $175 forward $169 $-1 #
edge $-1 $274 0 $274 6.2831853071796004 $174 $275 forward 7 unknown #
face $-1 $276 $277 $38 $-1 $278 forward single #
loop $-1 $-1 $279 $110 #
plane-surface $-1 -123.14649834095945 22.505138135272617 109.88208608657492 0 -1 0 0.52991927123019833 0 -0.84804809178421925 forward_v I I I I #
coedge $-1 $280 $281 $282 $283 reversed $111 $-1 #
coedge $-1 $181 $113 $284 $285 reversed $71 $-1 #
coedge $-1 $113 $180 $280 $286 reversed $71 $-1 #
coedge $-1 $282 $287 $113 $183 forward $277 $-1 #
edge $-1 $288 1.7887098473802681 $289 6.6915480552378526 $182 $290 forward 7 unknown #
loop $-1 $-1 $189 $114 #
plane-surface $-1 -59.784539323099459 19.426579579533314 8.481757104268695 -0.52991927123019833 0 0.84804809178421925 0.84804809178421925 0 0.52991927123019833 forward_v I I I I #
loop $-1 $-1 $291 $73 #
coedge $-1 $187 $187 $188 $292 reversed $115 $-1 #
coedge $-1 $188 $188 $187 $292 forward $117 $-1 #
coedge $-1 $189 $189 $118 $190 forward $184 $-1 #
edge $-1 $293 0 $293 6.2831853071796004 $189 $294 forward 7 unknown #
loop $-1 $-1 $196 $119 #
plane-surface $-1 -59.784539323099459 19.426579579533314 8.481757104268695 -0.52991927123019833 0 0.84804809178421925 0.84804809178421925 0 0.52991927123019833 forward_v I I I I #
loop $-1 $-1 $295 $76 #
coedge $-1 $194 $194 $195 $296 reversed $120 $-1 #
coedge $-1 $195 $195 $194 $296 forward $122 $-1 #
coedge $-1 $196 $196 $123 $197 forward $191 $-1 #
edge $-1 $297 0 $297 6.2831853071796004 $196 $298 forward 7 unknown #
face $-1 $299 $300 $41 $-1 $301 forward single #
loop $-1 $-1 $302 $124 #
plane-surface $-1 92.049620179773854 -8.9857632707603408 168.4291530941814 0 1 0 0.82903758062907751 0 0.55919289150049634 forward_v I I I I #
coedge $-1 $303 $304 $305 $306 reversed $125 $-1 #
coedge $-1 $203 $127 $307 $308 reversed $80 $-1 #
coedge $-1 $127 $202 $303 $309 reversed $80 $-1 #
coedge $-1 $305 $310 $127 $205 forward $300 $-1 #
edge $-1 $311 -13.759729233212532 $312 -7.6178734777353512 $204 $313 forward 7 unknown #
loop $-1 $-1 $211 $128 #
plane-surface $-1 -7.0776394991187885 -2.5663090225492091 101.56697427196318 0.82903758062907751 0 0.55919289150049634 0.55919289150049634 0 -0.82903758062907751 forward_v I I I I #
loop $-1 $-1 $314 $82 #
coedge $-1 $209 $209 $210 $315 reversed $129 $-1 #
coedge $-1 $210 $210 $209 $315 forward $131 $-1 #
coedge $-1 $211 $211 $132 $212 forward $206 $-1 #
edge $-1 $316 0 $316 6.2831853071796004 $211 $317 forward 7 unknown #
loop $-1 $-1 $218 $133 #
plane-surface $-1 -7.0776394991187885 -2.5663090225492091 101.56697427196318 0.82903758062907751 0 0.55919289150049634 0.55919289150049634 0 -0.82903758062907751 forward_v I I I I #
loop $-1 $-1 $318 $85 #
coedge $-1 $216 $216 $217 $319 reversed $134 $-1 #
coedge $-1 $217 $217 $216 $319 forward $136 $-1 #
coedge $-1 $218 $218 $137 $219 forward $213 $-1 #
edge $-1 $320 0 $320 6.2831853071796004 $218 $321 forward 7 unknown #
face $-1 $322 $323 $33 $-1 $324 reversed single #
loop $-1 $-1 $325 $138 #
plane-surface $-1 -59.784539323099459 0 0 1 0 0 0 0 -1 forward_v I I I I #
coedge $-1 $144 $326 $327 $328 forward $139 $-1 #
coedge $-1 $329 $141 $330 $331 forward $89 $-1 #
coedge $-1 $141 $329 $228 $332 forward $89 $-1 #
coedge $-1 $229 $333 $141 $227 reversed $334 $-1 #
edge $-1 $335 -30.362269885239126 $336 30.362269885239126 $226 $337 forward 7 unknown #
coedge $-1 $143 $142 $225 $332 reversed $56 $-1 #
coedge $-1 $327 $226 $142 $230 forward $334 $-1 #
edge $-1 $335 -11.545390493975722 $234 11.545390493975722 $229 $338 forward 7 unknown #
coedge $-1 $339 $340 $143 $232 reversed $221 $-1 #
edge $-1 $341 -11.545390493975722 $235 11.545390493975722 $231 $342 forward 7 unknown #
coedge $-1 $326 $144 $340 $343 forward $139 $-1 #
vertex $-1 $230 $344 #
vertex $-1 $343 $345 #
straight-curve $-1 0 -30.362269885239126 -11.545390493975722 -1 0 0 I I #
face $-1 $346 $347 $34 $-1 $348 reversed single #
loop $-1 $-1 $152 $146 #
plane-surface $-1 -58.546595312640086 -36.243918214552103 0 1 0 0 0 0 -1 forward_v I I I I #
coedge $-1 $349 $350 $351 $352 forward $147 $-1 #
coedge $-1 $353 $149 $354 $355 forward $93 $-1 #
coedge $-1 $149 $353 $247 $356 forward $93 $-1 #
edge $-1 $249 -58.546595312640086 $357 -52.183117990965833 $149 $358 forward 7 unknown #
coedge $-1 $151 $150 $359 $360 forward $59 $-1 #
coedge $-1 $361 $362 $150 $246 forward $363 $-1 #
edge $-1 $364 52.183117990965833 $250 58.546595312640086 $245 $365 forward 7 unknown #
coedge $-1 $351 $152 $242 $356 reversed $238 $-1 #
coedge $-1 $152 $351 $361 $366 reversed $238 $-1 #
vertex $-1 $243 $367 #
vertex $-1 $366 $368 #
straight-curve $-1 -58.546595312640086 -30.362269885239126 0 0 0 1 I I #
face $-1 $-1 $264 $35 $-1 $369 forward single #
loop $-1 $-1 $370 $154 #
plane-surface $-1 -59.784539323099459 0 0 1 0 0 0 0 -1 forward_v I I I I #
coedge $-1 $371 $372 $373 $374 reversed $155 $-1 #
coedge $-1 $375 $157 $159 $262 forward $97 $-1 #
coedge $-1 $157 $375 $371 $376 forward $97 $-1 #
coedge $-1 $373 $160 $157 $259 forward $264 $-1 #
edge $-1 $266 -5.6055795439357219 $377 0.55153756754288707 $258 $378 forward 7 unknown #
coedge $-1 $379 $380 $158 $261 forward $253 $-1 #
edge $-1 $381 -46.459285939018763 $265 -43.395652549311734 $260 $382 forward 7 unknown #
edge $-1 $266 -5.7813209596904356 $381 0 $159 $383 forward 7 unknown #
coedge $-1 $160 $373 $379 $384 forward $264 $-1 #
loop $-1 $-1 $373 $252 #
vertex $-1 $261 $385 #
vertex $-1 $161 $386 #
straight-curve $-1 -61.573249170479727 -8.1326005321321393 11.545390493975724 1 0 0 I I #
coedge $-1 $268 $268 $-1 $387 reversed $164 $-1 #
edge $-1 $388 0 $388 6.2831853071796004 $165 $389 forward 7 unknown #
vertex $-1 $168 $390 #
ellipse-curve $-1 -57.333120219170667 -6.3734242145668212 10.013573799122208 -0.52991927123019833 0 0.84804809178421925 0.42402404589210962 0 0.26495963561509916 1 I I #
coedge $-1 $272 $272 $-1 $391 reversed $171 $-1 #
edge $-1 $392 0 $392 6.2831853071796004 $172 $393 forward 7 unknown #
vertex $-1 $175 $394 #
ellipse-curve $-1 -57.333120219170667 -3.7346597382188449 10.013573799122208 -0.52991927123019833 0 0.84804809178421925 0.42402404589210962 0 0.26495963561509916 1 I I #
face $-1 $-1 $395 $38 $-1 $396 reversed single #
loop $-1 $-1 $182 $176 #
plane-surface $-1 0 0 11.545390493975722 0 0 1 1 0 0 forward_v I I I I #
coedge $-1 $397 $398 $399 $400 reversed $177 $-1 #
coedge $-1 $401 $179 $181 $286 forward $111 $-1 #
coedge $-1 $179 $401 $397 $402 forward $111 $-1 #
coedge $-1 $399 $182 $179 $283 forward $277 $-1 #
edge $-1 $289 6.6347312340273543 $403 12.79184834550596 $282 $404 forward 7 unknown #
coedge $-1 $405 $406 $180 $285 forward $395 $-1 #
edge $-1 $407 -46.459285939018763 $288 -43.395652549311734 $284 $408 forward 7 unknown #
edge $-1 $289 -5.7813209596904356 $407 0 $181 $409 forward 7 unknown #
coedge $-1 $182 $399 $405 $410 forward $277 $-1 #
vertex $-1 $183 $411 #
vertex $-1 $183 $412 #
straight-curve $-1 -61.573249170479727 16.348021023794011 11.545390493975724 1 0 0 I I #
coedge $-1 $291 $291 $-1 $413 reversed $186 $-1 #
edge $-1 $414 0 $414 6.2831853071796004 $187 $415 forward 7 unknown #
vertex $-1 $190 $416 #
ellipse-curve $-1 -57.333120219170667 18.107197341359328 10.013573799122208 -0.52991927123019833 0 0.84804809178421925 0.42402404589210962 0 0.26495963561509916 1 I I #
coedge $-1 $295 $295 $-1 $417 reversed $193 $-1 #
edge $-1 $418 0 $418 6.2831853071796004 $194 $419 forward 7 unknown #
vertex $-1 $197 $420 #
ellipse-curve $-1 -57.333120219170667 20.7459618177073 10.013573799122208 -0.52991927123019833 0 0.84804809178421925 0.42402404589210962 0 0.26495963561509916 1 I I #
face $-1 $-1 $421 $41 $-1 $422 reversed single #
loop $-1 $-1 $204 $198 #
plane-surface $-1 0 0 11.545390493975722 0 0 1 1 0 0 forward_v I I I I #
coedge $-1 $423 $424 $425 $426 reversed $199 $-1 #
coedge $-1 $427 $201 $203 $309 forward $125 $-1 #
coedge $-1 $201 $427 $423 $428 forward $125 $-1 #
coedge $-1 $425 $204 $201 $306 forward $300 $-1 #
edge $-1 $312 -5.1362997369365271 $429 7.7026087594857362 $305 $430 forward 7 unknown #
coedge $-1 $431 $432 $202 $308 forward $421 $-1 #
edge $-1 $433 -81.774861954020224 $311 -72.669186053114984 $307 $434 forward 7 unknown #
edge $-1 $312 108.58564904823575 $433 119.56907864619899 $203 $435 forward 7 unknown #
coedge $-1 $204 $425 $431 $436 forward $300 $-1 #
vertex $-1 $205 $437 #
vertex $-1 $205 $438 #
straight-curve $-1 46.024810089886927 3.8531452256619225 11.545390493975717 -1 0 0 I I #
coedge $-1 $314 $314 $-1 $439 reversed $208 $-1 #
edge $-1 $440 0 $440 6.2831853071796004 $209 $441 forward 7 unknown #
vertex $-1 $212 $442 #
ellipse-curve $-1 56.713611445360854 -5.3175037003539813 6.9925525435231277 0.82903758062907751 0 0.55919289150049634 0.55919289150049634 0 -0.82903758062907751 1 I I #
coedge $-1 $318 $318 $-1 $443 reversed $215 $-1 #
edge $-1 $444 0 $444 6.2831853071796004 $216 $445 forward 7 unknown #
vertex $-1 $219 $446 #
ellipse-curve $-1 56.713611445360854 0.18488565525555956 6.9925525435231277 0.82903758062907751 0 0.55919289150049634 0.55919289150049634 0 -0.82903758062907751 1 I I #
face $-1 $-1 $334 $33 $-1 $447 reversed single #
loop $-1 $-1 $448 $220 #
plane-surface $-1 0 30.362269885239126 0 0 -1 0 0 0 -1 forward_v I I I I #
coedge $-1 $340 $339 $449 $450 forward $221 $-1 #
coedge $-1 $223 $233 $451 $452 forward $139 $-1 #
coedge $-1 $333 $229 $223 $328 reversed $334 $-1 #
edge $-1 $453 -30.362269885239126 $234 30.362269885239126 $327 $454 forward 7 unknown #
coedge $-1 $225 $224 $339 $455 forward $89 $-1 #
coedge $-1 $448 $449 $224 $331 reversed $323 $-1 #
edge $-1 $336 -59.784539323099459 $456 59.784539323099459 $330 $457 forward 7 unknown #
edge $-1 $341 -59.784539323099459 $335 59.784539323099459 $228 $458 forward 7 unknown #
coedge $-1 $226 $327 $448 $459 reversed $334 $-1 #
loop $-1 $-1 $229 $322 #
vertex $-1 $227 $460 #
vertex $-1 $227 $461 #
straight-curve $-1 59.784539323099459 0 11.545390493975722 0 1 0 I I #
straight-curve $-1 59.784539323099459 -30.362269885239126 0 0 0 -1 I I #
coedge $-1 $325 $231 $329 $455 reversed $221 $-1 #
coedge $-1 $231 $325 $233 $343 reversed $221 $-1 #
vertex $-1 $455 $462 #
straight-curve $-1 -59.784539323099459 -30.362269885239126 0 0 0 -1 I I #
edge $-1 $235 -30.362269885239126 $463 30.362269885239126 $340 $464 forward 7 unknown #
point $-1 59.784539323099459 -30.362269885239126 -11.545390493975722 #
point $-1 -59.784539323099459 -30.362269885239126 -11.545390493975722 #
face $-1 $-1 $363 $34 $-1 $465 forward single #
loop $-1 $-1 $466 $237 #
plane-surface $-1 -52.183117990965833 -36.243918214552103 0 -1 0 0 0 0 1 forward_v I I I I #
coedge $-1 $467 $240 $353 $468 reversed $147 $-1 #
coedge $-1 $240 $467 $469 $470 reversed $147 $-1 #
coedge $-1 $248 $247 $240 $352 reversed $238 $-1 #
edge $-1 $471 -11.545390493975722 $472 11.545390493975722 $351 $473 forward 7 unknown #
coedge $-1 $242 $241 $349 $468 forward $93 $-1 #
coedge $-1 $359 $466 $241 $355 reversed $347 $-1 #
edge $-1 $357 -5.8816483293129806 $474 5.8816483293129806 $354 $475 forward 7 unknown #
edge $-1 $472 -5.8816483293129806 $249 5.8816483293129806 $247 $476 forward 7 unknown #
vertex $-1 $355 $477 #
straight-curve $-1 0 -30.362269885239126 -11.545390493975722 1 0 0 I I #
coedge $-1 $478 $354 $244 $360 reversed $347 $-1 #
edge $-1 $364 -11.545390493975722 $357 11.545390493975722 $359 $479 forward 7 unknown #
coedge $-1 $469 $245 $248 $366 forward $363 $-1 #
coedge $-1 $245 $469 $478 $480 forward $363 $-1 #
loop $-1 $-1 $245 $346 #
vertex $-1 $246 $481 #
straight-curve $-1 0 -30.362269885239126 11.545390493975722 -1 0 0 I I #
edge $-1 $250 -5.8816483293129806 $471 5.8816483293129806 $248 $482 forward 7 unknown #
point $-1 -58.546595312640086 -30.362269885239122 -11.545390493975722 #
point $-1 -58.546595312640086 -30.362269885239122 11.545390493975722 #
plane-surface $-1 0 0 11.545390493975722 0 0 1 1 0 0 forward_v I I I I #
coedge $-1 $380 $379 $372 $483 forward $253 $-1 #
coedge $-1 $372 $255 $257 $376 reversed $155 $-1 #
coedge $-1 $255 $371 $370 $483 reversed $155 $-1 #
coedge $-1 $263 $258 $255 $374 forward $264 $-1 #
edge $-1 $377 -6.6915480552378526 $484 -1.7887098473802681 $373 $485 forward 7 unknown #
coedge $-1 $257 $256 $380 $486 reversed $97 $-1 #
edge $-1 $487 0 $377 5.7813209596904356 $371 $488 forward 7 unknown #
vertex $-1 $259 $489 #
straight-curve $-1 -54.881701115241881 -2.5270209881964174 11.54539049397572 0 1 0 I I #
coedge $-1 $370 $260 $263 $384 reversed $253 $-1 #
coedge $-1 $260 $370 $375 $486 forward $253 $-1 #
vertex $-1 $261 $490 #
straight-curve $-1 -59.784539323099459 -8.1326005321321393 54.941043043287458 0 0 1 I I #
straight-curve $-1 -59.784539323099459 -8.1326005321321393 8.481757104268695 -0.84804809178421925 0 -0.52991927123019833 I I #
edge $-1 $484 1.9754834206535303 $265 8.1326005321321393 $379 $491 forward 7 unknown #
point $-1 -59.784539323099459 -8.1326005321321393 11.545390493975722 #
point $-1 -54.881701115241874 -8.1326005321321393 11.545390493975722 #
edge $-1 $492 1 $492 0 $268 $-1 forward 7 unknown #
vertex $-1 $269 $493 #
ellipse-curve $-1 -56.803200947940468 -6.3734242145668212 9.1655257073379897 -0.52991927123019833 0 0.84804809178421925 0.42402404589210962 0 0.26495963561509916 1 I I #
point $-1 -56.909096173278556 -6.3734242145668212 10.278533434737307 #
edge $-1 $494 1 $494 0 $272 $-1 forward 7 unknown #
vertex $-1 $273 $495 #
ellipse-curve $-1 -56.803200947940468 -3.7346597382188449 9.1655257073379897 -0.52991927123019833 0 0.84804809178421925 0.42402404589210962 0 0.26495963561509916 1 I I #
point $-1 -56.909096173278556 -3.7346597382188449 10.278533434737307 #
loop $-1 $-1 $284 $276 #
plane-surface $-1 -59.784539323099459 0 0 1 0 0 0 0 -1 forward_v I I I I #
coedge $-1 $398 $279 $281 $402 reversed $177 $-1 #
coedge $-1 $279 $397 $496 $497 reversed $177 $-1 #
coedge $-1 $287 $282 $279 $400 forward $277 $-1 #
edge $-1 $403 -6.6915480552378526 $498 -1.7887098473802681 $399 $499 forward 7 unknown #
coedge $-1 $281 $280 $406 $500 reversed $111 $-1 #
edge $-1 $501 0 $403 5.7813209596904356 $397 $502 forward 7 unknown #
vertex $-1 $283 $503 #
straight-curve $-1 -54.881701115241881 9.713289789766657 11.54539049397572 0 1 0 I I #
coedge $-1 $496 $284 $287 $410 reversed $395 $-1 #
coedge $-1 $284 $496 $401 $500 forward $395 $-1 #
vertex $-1 $285 $504 #
straight-curve $-1 -59.784539323099459 16.348021023794011 54.941043043287458 0 0 1 I I #
straight-curve $-1 -59.784539323099459 16.348021023794011 8.481757104268695 -0.84804809178421925 0 -0.52991927123019833 I I #
edge $-1 $498 -22.505138135272617 $288 -16.348021023794011 $405 $505 forward 7 unknown #
point $-1 -59.784539323099459 16.348021023794011 11.545390493975722 #
point $-1 -54.881701115241874 16.348021023794011 11.545390493975722 #
edge $-1 $506 1 $506 0 $291 $-1 forward 7 unknown #
vertex $-1 $292 $507 #
ellipse-curve $-1 -56.803200947940468 18.107197341359328 9.1655257073379897 -0.52991927123019833 0 0.84804809178421925 0.42402404589210962 0 0.26495963561509916 1 I I #
point $-1 -56.909096173278556 18.107197341359328 10.278533434737307 #
edge $-1 $508 1 $508 0 $295 $-1 forward 7 unknown #
vertex $-1 $296 $509 #
ellipse-curve $-1 -56.803200947940468 20.7459618177073 9.1655257073379897 -0.52991927123019833 0 0.84804809178421925 0.42402404589210962 0 0.26495963561509916 1 I I #
point $-1 -56.909096173278556 20.7459618177073 10.278533434737307 #
loop $-1 $-1 $307 $299 #
plane-surface $-1 59.784539323099459 0 0 -1 0 0 0 0 1 forward_v I I I I #
coedge $-1 $424 $302 $304 $428 reversed $199 $-1 #
coedge $-1 $302 $423 $510 $511 reversed $199 $-1 #
coedge $-1 $310 $305 $302 $426 forward $300 $-1 #
edge $-1 $429 7.6178734777353512 $512 13.759729233212532 $425 $513 forward 7 unknown #
coedge $-1 $304 $303 $432 $514 reversed $125 $-1 #
edge $-1 $515 -119.56907864619899 $429 -108.58564904823575 $423 $516 forward 7 unknown #
vertex $-1 $306 $517 #
straight-curve $-1 53.642683567622271 -1.2831545112746046 11.545390493975731 0 -1 0 I I #
coedge $-1 $510 $307 $310 $436 reversed $421 $-1 #
coedge $-1 $307 $510 $427 $514 forward $421 $-1 #
vertex $-1 $308 $518 #
straight-curve $-1 59.784539323099459 3.8531452256619225 84.214576547090701 0 0 1 I I #
straight-curve $-1 -7.0776394991187885 3.8531452256619225 101.56697427196318 0.55919289150049634 0 -0.82903758062907751 I I #
edge $-1 $512 -8.9857632707603408 $311 3.8531452256619225 $431 $519 forward 7 unknown #
point $-1 59.784539323099459 3.8531452256619225 11.545390493975722 #
point $-1 53.642683567622278 3.8531452256619225 11.545390493975717 #
edge $-1 $520 1 $520 0 $314 $-1 forward 7 unknown #
vertex $-1 $315 $521 #
ellipse-curve $-1 53.816976858933032 -5.3175037003539813 5.0387479056491449 0.82903758062907751 0 0.55919289150049634 0.55919289150049634 0 -0.82903758062907751 1 I I #
point $-1 57.272804336861377 -5.3175037003539813 6.1635149628940669 #
edge $-1 $522 1 $522 0 $318 $-1 forward 7 unknown #
vertex $-1 $319 $523 #
ellipse-curve $-1 53.816976858933032 0.18488565525555956 5.0387479056491449 0.82903758062907751 0 0.55919289150049634 0.55919289150049634 0 -0.82903758062907751 1 I I #
point $-1 57.272804336861377 0.18488565525555956 6.1635149628940669 #
plane-surface $-1 59.784539323099459 0 0 -1 0 0 0 0 1 forward_v I I I I #
coedge $-1 $451 $330 $333 $459 forward $323 $-1 #
coedge $-1 $330 $451 $325 $450 reversed $323 $-1 #
edge $-1 $456 -11.545390493975722 $463 11.545390493975722 $449 $524 forward 7 unknown #
coedge $-1 $449 $448 $326 $452 reversed $323 $-1 #
edge $-1 $463 -59.784539323099459 $453 59.784539323099459 $451 $525 forward 7 unknown #
vertex $-1 $328 $526 #
straight-curve $-1 59.784539323099459 0 -11.545390493975722 0 -1 0 I I #
edge $-1 $456 -30.362269885239126 $341 30.362269885239126 $339 $527 forward 7 unknown #
vertex $-1 $331 $528 #
straight-curve $-1 0 30.362269885239126 11.545390493975722 -1 0 0 I I #
straight-curve $-1 0 -30.362269885239126 11.545390493975722 1 0 0 I I #
edge $-1 $336 -11.545390493975722 $453 11.545390493975722 $333 $529 forward 7 unknown #
point $-1 59.784539323099459 -30.362269885239126 11.545390493975722 #
point $-1 59.784539323099459 30.362269885239126 11.545390493975722 #
point $-1 -59.784539323099459 -30.362269885239126 11.545390493975722 #
vertex $-1 $452 $530 #
straight-curve $-1 -59.784539323099459 0 -11.545390493975722 0 1 0 I I #
plane-surface $-1 0 0 11.545390493975722 0 0 1 1 0 0 forward_v I I I I #
coedge $-1 $354 $478 $467 $531 forward $347 $-1 #
coedge $-1 $350 $349 $466 $531 reversed $147 $-1 #
edge $-1 $474 -3.1817386608371265 $472 3.1817386608371265 $349 $532 forward 7 unknown #
coedge $-1 $362 $361 $350 $470 forward $363 $-1 #
edge $-1 $471 -3.1817386608371265 $533 3.1817386608371265 $350 $534 forward 7 unknown #
vertex $-1 $366 $535 #
vertex $-1 $356 $536 #
straight-curve $-1 -58.546595312640086 -42.125566543865084 0 0 0 -1 I I #
vertex $-1 $531 $537 #
straight-curve $-1 -52.183117990965833 -36.243918214552103 -11.545390493975722 0 -1 0 I I #
straight-curve $-1 -58.546595312640086 -36.243918214552103 -11.545390493975722 0 1 0 I I #
point $-1 -52.183117990965833 -30.362269885239122 -11.545390493975722 #
coedge $-1 $466 $359 $362 $480 reversed $347 $-1 #
straight-curve $-1 -52.183117990965833 -30.362269885239126 0 0 0 -1 I I #
edge $-1 $533 -5.8816483293129806 $364 5.8816483293129806 $478 $538 forward 7 unknown #
point $-1 -52.183117990965833 -30.362269885239122 11.545390493975722 #
straight-curve $-1 -58.546595312640086 -36.243918214552103 11.545390493975722 0 -1 0 I I #
edge $-1 $484 43.395652549311734 $487 46.459285939018763 $370 $539 forward 7 unknown #
vertex $-1 $384 $540 #
straight-curve $-1 -61.573249170479727 -1.9754834206535303 11.545390493975724 -1 0 0 I I #
edge $-1 $487 -0.55153756754288707 $381 5.6055795439357219 $380 $541 forward 7 unknown #
vertex $-1 $486 $542 #
straight-curve $-1 -59.784539323099459 -1.9754834206535303 8.481757104268695 0.84804809178421925 0 0.52991927123019833 I I #
point $-1 -54.881701115241874 -1.9754834206535303 11.545390493975722 #
point $-1 -59.784539323099459 -8.1326005321321393 8.481757104268695 #
straight-curve $-1 -59.784539323099459 0 11.545390493975722 0 -1 0 I I #
vertex $-1 $387 $543 #
point $-1 -56.379176902048357 -6.3734242145668212 9.430485342953089 #
vertex $-1 $391 $544 #
point $-1 -56.379176902048357 -3.7346597382188449 9.430485342953089 #
coedge $-1 $406 $405 $398 $497 forward $395 $-1 #
edge $-1 $498 43.395652549311734 $501 46.459285939018763 $496 $545 forward 7 unknown #
vertex $-1 $410 $546 #
straight-curve $-1 -61.573249170479727 22.505138135272617 11.545390493975724 -1 0 0 I I #
edge $-1 $501 -12.79184834550596 $407 -6.6347312340273543 $406 $547 forward 7 unknown #
vertex $-1 $500 $548 #
straight-curve $-1 -59.784539323099459 22.505138135272617 8.481757104268695 0.84804809178421925 0 0.52991927123019833 I I #
point $-1 -54.881701115241874 22.505138135272617 11.545390493975722 #
point $-1 -59.784539323099459 16.348021023794011 8.481757104268695 #
straight-curve $-1 -59.784539323099459 0 11.545390493975722 0 -1 0 I I #
vertex $-1 $413 $549 #
point $-1 -56.379176902048357 18.107197341359328 9.430485342953089 #
vertex $-1 $417 $550 #
point $-1 -56.379176902048357 20.7459618177073 9.430485342953089 #
coedge $-1 $432 $431 $424 $511 forward $421 $-1 #
edge $-1 $512 72.669186053114984 $515 81.774861954020224 $510 $551 forward 7 unknown #
vertex $-1 $436 $552 #
straight-curve $-1 46.024810089886927 -8.9857632707603408 11.545390493975717 1 0 0 I I #
edge $-1 $515 -7.7026087594857362 $433 5.1362997369365271 $432 $553 forward 7 unknown #
vertex $-1 $514 $554 #
straight-curve $-1 -7.0776394991187885 -8.9857632707603408 101.56697427196318 -0.55919289150049634 0 0.82903758062907751 I I #
point $-1 53.642683567622278 -8.9857632707603408 11.545390493975717 #
point $-1 59.784539323099466 3.8531452256619225 2.4397145930704767 #
straight-curve $-1 59.784539323099459 0 11.545390493975722 0 1 0 I I #
vertex $-1 $439 $555 #
point $-1 54.376169750433526 -5.3175037003539813 4.2097103250200671 #
vertex $-1 $443 $556 #
point $-1 54.376169750433526 0.18488565525555956 4.2097103250200671 #
straight-curve $-1 -59.784539323099459 30.362269885239126 0 0 0 -1 I I #
straight-curve $-1 0 30.362269885239126 -11.545390493975722 1 0 0 I I #
point $-1 59.784539323099459 30.362269885239126 -11.545390493975722 #
straight-curve $-1 -59.784539323099459 0 11.545390493975722 0 -1 0 I I #
point $-1 -59.784539323099459 30.362269885239126 11.545390493975722 #
straight-curve $-1 59.784539323099459 30.362269885239126 0 0 0 -1 I I #
point $-1 -59.784539323099459 30.362269885239126 -11.545390493975722 #
edge $-1 $533 -11.545390493975722 $474 11.545390493975722 $466 $557 forward 7 unknown #
straight-curve $-1 -55.36485665180296 -42.125566543865084 -11.545390493975722 -1 0 0 I I #
vertex $-1 $480 $558 #
straight-curve $-1 -55.36485665180296 -42.125566543865084 11.545390493975722 1 0 0 I I #
point $-1 -58.546595312640086 -42.125566543865084 11.545390493975722 #
point $-1 -58.546595312640086 -42.125566543865084 -11.545390493975722 #
point $-1 -52.183117990965833 -42.125566543865084 -11.545390493975722 #
straight-curve $-1 -52.183117990965833 -36.243918214552103 11.545390493975722 0 1 0 I I #
straight-curve $-1 -59.784539323099459 -1.9754834206535303 54.941043043287458 0 0 -1 I I #
point $-1 -59.784539323099459 -1.9754834206535303 11.545390493975722 #
straight-curve $-1 -59.784539323099459 -2.5270209881964174 8.4817571042686968 0 -1 0 I I #
point $-1 -59.784539323099459 -1.9754834206535303 8.481757104268695 #
point $-1 -56.538241312325368 -6.3734242145668212 8.7415016614458789 #
point $-1 -56.538241312325368 -3.7346597382188449 8.7415016614458789 #
straight-curve $-1 -59.784539323099459 22.505138135272617 54.941043043287458 0 0 -1 I I #
point $-1 -59.784539323099459 22.505138135272617 11.545390493975722 #
straight-curve $-1 -59.784539323099459 9.713289789766657 8.4817571042686968 0 -1 0 I I #
point $-1 -59.784539323099459 22.505138135272617 8.481757104268695 #
point $-1 -56.538241312325368 18.107197341359328 8.7415016614458789 #
point $-1 -56.538241312325368 20.7459618177073 8.7415016614458789 #
straight-curve $-1 59.784539323099459 -8.9857632707603408 84.214576547090701 0 0 -1 I I #
point $-1 59.784539323099459 -8.9857632707603408 11.545390493975722 #
straight-curve $-1 59.784539323099466 -1.2831545112746046 2.4397145930704838 0 1 0 I I #
point $-1 59.784539323099466 -8.9857632707603408 2.4397145930704767 #
point $-1 52.987939278303955 -5.3175037003539813 4.4795550141486489 #
point $-1 52.987939278303955 0.18488565525555956 4.4795550141486489 #
straight-curve $-1 -52.183117990965833 -42.125566543865084 0 0 0 -1 I I #
point $-1 -52.183117990965833 -42.125566543865084 11.545390493975722 #
End-of-ACIS-data 