500 0 13 0           
7 Unknown 11 ACIS 5.0 NT 24 Fri Mar 26 00:44:29 1999 
-1 9.9999999999999995e-007 1e-010 
body $-1 $13 $-1 $14 #
body $-1 $15 $-1 $16 #
body $-1 $17 $-1 $18 #
body $-1 $19 $-1 $20 #
body $-1 $21 $-1 $22 #
body $-1 $23 $-1 $24 #
body $-1 $25 $-1 $26 #
body $-1 $27 $-1 $28 #
body $-1 $29 $-1 $30 #
body $-1 $31 $-1 $32 #
body $-1 $33 $-1 $34 #
body $-1 $35 $-1 $36 #
body $-1 $37 $-1 $38 #
lump $-1 $-1 $39 $0 #
transform $-1 1 0 0 0 1 0 0 0 1 56.160161137730029 36.508303854328659 16.725943987267566 1 rotate no_reflect no_shear #
lump $-1 $-1 $40 $1 #
transform $-1 1 0 0 0 1 0 0 0 1 56.160161137730029 36.508303854328659 16.725943987267566 1 rotate no_reflect no_shear #
lump $-1 $-1 $41 $2 #
transform $-1 1 0 0 0 1 0 0 0 1 56.160161137730029 36.508303854328659 16.725943987267566 1 rotate no_reflect no_shear #
lump $-1 $-1 $42 $3 #
transform $-1 1 0 0 0 1 0 0 0 1 56.160161137730029 36.508303854328659 16.725943987267566 1 rotate no_reflect no_shear #
lump $-1 $-1 $43 $4 #
transform $-1 1 0 0 0 1 0 0 0 1 56.160161137730029 36.508303854328659 16.725943987267566 1 rotate no_reflect no_shear #
lump $-1 $-1 $44 $5 #
transform $-1 1 0 0 0 1 0 0 0 1 56.160161137730029 36.508303854328659 16.725943987267566 1 rotate no_reflect no_shear #
lump $-1 $-1 $45 $6 #
transform $-1 1 0 0 0 1 0 0 0 1 56.160161137730029 36.508303854328659 16.725943987267566 1 rotate no_reflect no_shear #
lump $-1 $-1 $46 $7 #
transform $-1 1 0 0 0 1 0 0 0 1 56.160161137730029 36.508303854328659 16.725943987267566 1 rotate no_reflect no_shear #
lump $-1 $-1 $47 $8 #
transform $-1 1 0 0 0 1 0 0 0 1 56.160161137730029 36.508303854328659 16.725943987267566 1 rotate no_reflect no_shear #
lump $-1 $-1 $48 $9 #
transform $-1 1 0 0 0 1 0 0 0 1 56.160161137730029 36.508303854328659 16.725943987267566 1 rotate no_reflect no_shear #
lump $-1 $-1 $49 $10 #
transform $-1 1 0 0 0 1 0 0 0 1 56.160161137730029 36.508303854328659 16.725943987267566 1 rotate no_reflect no_shear #
lump $-1 $-1 $50 $11 #
transform $-1 1 0 0 0 1 0 0 0 1 56.160161137730029 36.508303854328659 16.725943987267566 1 rotate no_reflect no_shear #
lump $-1 $-1 $51 $12 #
transform $-1 1 0 0 0 1 0 0 0 1 56.160161137730029 36.508303854328659 16.725943987267566 1 rotate no_reflect no_shear #
shell $-1 $-1 $-1 $52 $-1 $13 #
shell $-1 $-1 $-1 $53 $-1 $15 #
shell $-1 $-1 $-1 $54 $-1 $17 #
shell $-1 $-1 $-1 $55 $-1 $19 #
shell $-1 $-1 $-1 $56 $-1 $21 #
shell $-1 $-1 $-1 $57 $-1 $23 #
shell $-1 $-1 $-1 $58 $-1 $25 #
shell $-1 $-1 $-1 $59 $-1 $27 #
shell $-1 $-1 $-1 $60 $-1 $29 #
shell $-1 $-1 $-1 $61 $-1 $31 #
shell $-1 $-1 $-1 $62 $-1 $33 #
shell $-1 $-1 $-1 $63 $-1 $35 #
shell $-1 $-1 $-1 $64 $-1 $37 #
face $-1 $65 $66 $39 $-1 $67 forward single #
face $-1 $68 $69 $40 $-1 $70 forward single #
face $-1 $71 $72 $41 $-1 $73 reversed single #
face $-1 $74 $75 $42 $-1 $76 forward single #
face $-1 $77 $78 $43 $-1 $79 forward single #
face $-1 $80 $81 $44 $-1 $82 forward single #
face $-1 $83 $84 $45 $-1 $85 reversed single #
face $-1 $86 $87 $46 $-1 $88 forward single #
face $-1 $89 $90 $47 $-1 $91 forward single #
face $-1 $92 $93 $48 $-1 $94 forward single #
face $-1 $95 $96 $49 $-1 $97 reversed single #
face $-1 $98 $99 $50 $-1 $100 forward single #
face $-1 $101 $102 $51 $-1 $103 forward single #
face $-1 $104 $105 $39 $-1 $106 reversed single #
loop $-1 $-1 $107 $52 #
plane-surface $-1 0 0 16.725943987267566 0 0 1 1 0 0 forward_v I I I I #
face $-1 $108 $109 $40 $-1 $110 reversed single #
loop $-1 $-1 $111 $53 #
plane-surface $-1 -56.160161137730029 0 0 1 0 0 0 0 -1 forward_v I I I I #
face $-1 $112 $113 $41 $-1 $114 reversed single #
loop $-1 $-1 $115 $54 #
plane-surface $-1 -9.2997126037478175 -132.78561219319232 68.75727605020576 -1 0 0 0 -0.85716730853699208 0.51503806187062418 forward_v I I I I #
face $-1 $116 $117 $42 $-1 $118 forward single #
loop $-1 $119 $120 $55 #
cone-surface $-1 -20.420120326847275 -34.289544188760843 13.5340541214307 0 0.85716730853699208 -0.51503806187062418 1 0 0 1 I I 0 1 1 forward I I I I #
face $-1 $121 $122 $43 $-1 $123 forward single #
loop $-1 $124 $125 $56 #
cone-surface $-1 -16.249967430684983 -34.289544188760843 13.5340541214307 0 0.85716730853699208 -0.51503806187062418 1 0 0 1 I I 0 1 1 forward I I I I #
face $-1 $126 $127 $44 $-1 $128 forward single #
loop $-1 $129 $130 $57 #
cone-surface $-1 -12.07981453452269 -34.289544188760843 13.5340541214307 0 0.85716730853699208 -0.51503806187062418 1 0 0 1 I I 0 1 1 forward I I I I #
face $-1 $131 $132 $45 $-1 $133 reversed single #
loop $-1 $-1 $134 $58 #
plane-surface $-1 36.858296256231071 -132.78561219319232 68.75727605020576 -1 0 0 0 -0.85716730853699208 0.51503806187062418 forward_v I I I I #
face $-1 $135 $136 $46 $-1 $137 forward single #
loop $-1 $138 $139 $59 #
cone-surface $-1 25.737888533131624 -34.289544188760843 13.5340541214307 0 0.85716730853699208 -0.51503806187062418 1 0 0 1 I I 0 1 1 forward I I I I #
face $-1 $140 $141 $47 $-1 $142 forward single #
loop $-1 $143 $144 $60 #
cone-surface $-1 29.908041429293917 -34.289544188760843 13.5340541214307 0 0.85716730853699208 -0.51503806187062418 1 0 0 1 I I 0 1 1 forward I I I I #
face $-1 $145 $146 $48 $-1 $147 forward single #
loop $-1 $148 $149 $61 #
cone-surface $-1 34.078194325456209 -34.289544188760843 13.5340541214307 0 0.85716730853699208 -0.51503806187062418 1 0 0 1 I I 0 1 1 forward I I I I #
face $-1 $150 $151 $49 $-1 $152 reversed single #
loop $-1 $-1 $153 $62 #
plane-surface $-1 7.5496818103653993 77.84675025955174 132.07599873879116 1 0 0 0 -0.77714596973225614 -0.62932038083071107 forward_v I I I I #
face $-1 $154 $155 $50 $-1 $156 forward single #
loop $-1 $157 $158 $63 #
cone-surface $-1 12.877285481999678 30.040080623629517 9.4088153020598675 0 -0.77714596973225614 -0.62932038083071107 1.5 0 0 1 I I 0 1 1.5 forward I I I I #
face $-1 $159 $160 $51 $-1 $161 forward single #
loop $-1 $162 $163 $64 #
cone-surface $-1 20.868690989451082 30.040080623629517 9.4088153020598675 0 -0.77714596973225614 -0.62932038083071107 1.5 0 0 1 I I 0 1 1.5 forward I I I I #
face $-1 $164 $165 $39 $-1 $166 reversed single #
loop $-1 $-1 $167 $65 #
plane-surface $-1 0 0 -16.725943987267566 0 0 1 1 0 0 forward_v I I I I #
coedge $-1 $168 $169 $170 $171 forward $66 $-1 #
face $-1 $172 $173 $40 $-1 $174 forward single #
loop $-1 $-1 $175 $68 #
plane-surface $-1 0 36.508303854328659 0 0 -1 0 0 0 -1 forward_v I I I I #
coedge $-1 $176 $177 $178 $179 forward $69 $-1 #
face $-1 $180 $181 $41 $-1 $182 reversed single #
loop $-1 $-1 $183 $71 #
plane-surface $-1 -16.249967430684976 -36.508303854328659 10.908034956768915 0 -0.85716730853699208 0.51503806187062418 1 0 0 forward_v I I I I #
coedge $-1 $184 $185 $186 $187 reversed $72 $-1 #
face $-1 $-1 $188 $42 $-1 $189 forward single #
loop $-1 $190 $191 $74 #
cone-surface $-1 -20.420120326847275 -33.390077019452207 12.99359973990784 0 0.85716730853699208 -0.51503806187062418 0.5 0 0 1 I I -0.70710678118654746 0.70710678118654746 0.5 forward I I I I #
loop $-1 $-1 $192 $55 #
coedge $-1 $120 $120 $193 $194 reversed $75 $-1 #
face $-1 $-1 $195 $43 $-1 $196 forward single #
loop $-1 $197 $198 $77 #
cone-surface $-1 -16.249967430684983 -33.390077019452207 12.99359973990784 0 0.85716730853699208 -0.51503806187062418 0.5 0 0 1 I I -0.70710678118654746 0.70710678118654746 0.5 forward I I I I #
loop $-1 $-1 $199 $56 #
coedge $-1 $125 $125 $200 $201 reversed $78 $-1 #
face $-1 $-1 $202 $44 $-1 $203 forward single #
loop $-1 $204 $205 $80 #
cone-surface $-1 -12.07981453452269 -33.390077019452207 12.99359973990784 0 0.85716730853699208 -0.51503806187062418 0.5 0 0 1 I I -0.70710678118654746 0.70710678118654746 0.5 forward I I I I #
loop $-1 $-1 $206 $57 #
coedge $-1 $130 $130 $207 $208 reversed $81 $-1 #
face $-1 $209 $210 $45 $-1 $211 reversed single #
loop $-1 $-1 $212 $83 #
plane-surface $-1 29.908041429293917 -36.508303854328659 10.908034956768915 0 -0.85716730853699208 0.51503806187062418 1 0 0 forward_v I I I I #
coedge $-1 $213 $214 $215 $216 reversed $84 $-1 #
face $-1 $-1 $217 $46 $-1 $218 forward single #
loop $-1 $219 $220 $86 #
cone-surface $-1 25.737888533131624 -33.390077019452207 12.99359973990784 0 0.85716730853699208 -0.51503806187062418 0.5 0 0 1 I I -0.70710678118654746 0.70710678118654746 0.5 forward I I I I #
loop $-1 $-1 $221 $59 #
coedge $-1 $139 $139 $222 $223 reversed $87 $-1 #
face $-1 $-1 $224 $47 $-1 $225 forward single #
loop $-1 $226 $227 $89 #
cone-surface $-1 29.908041429293917 -33.390077019452207 12.99359973990784 0 0.85716730853699208 -0.51503806187062418 0.5 0 0 1 I I -0.70710678118654746 0.70710678118654746 0.5 forward I I I I #
loop $-1 $-1 $228 $60 #
coedge $-1 $144 $144 $229 $230 reversed $90 $-1 #
face $-1 $-1 $231 $48 $-1 $232 forward single #
loop $-1 $233 $234 $92 #
cone-surface $-1 34.078194325456209 -33.390077019452207 12.99359973990784 0 0.85716730853699208 -0.51503806187062418 0.5 0 0 1 I I -0.70710678118654746 0.70710678118654746 0.5 forward I I I I #
loop $-1 $-1 $235 $61 #
coedge $-1 $149 $149 $236 $237 reversed $93 $-1 #
face $-1 $238 $239 $49 $-1 $240 reversed single #
loop $-1 $-1 $241 $95 #
plane-surface $-1 16.872988235725373 -9.4425355158501958 61.390530749370427 0 0.77714596973225614 0.62932038083071107 1 0 0 forward_v I I I I #
coedge $-1 $242 $243 $244 $245 reversed $96 $-1 #
face $-1 $-1 $246 $50 $-1 $247 forward single #
loop $-1 $248 $249 $98 #
cone-surface $-1 12.877285481999678 27.880083482345881 7.659684152329806 0 -0.77714596973225614 -0.62932038083071107 0.75 0 0 1 I I -0.70710678118654713 0.70710678118654802 0.75 forward I I I I #
loop $-1 $-1 $250 $63 #
coedge $-1 $158 $158 $251 $252 reversed $99 $-1 #
face $-1 $-1 $253 $51 $-1 $254 forward single #
loop $-1 $255 $256 $101 #
cone-surface $-1 20.868690989451082 27.880083482345881 7.659684152329806 0 -0.77714596973225614 -0.62932038083071107 0.75 0 0 1 I I -0.70710678118654713 0.70710678118654802 0.75 forward I I I I #
loop $-1 $-1 $257 $64 #
coedge $-1 $163 $163 $258 $259 reversed $102 $-1 #
face $-1 $260 $261 $39 $-1 $262 reversed single #
loop $-1 $-1 $263 $104 #
plane-surface $-1 0 -36.508303854328659 0 0 1 0 0 0 1 forward_v I I I I #
coedge $-1 $264 $265 $266 $267 forward $105 $-1 #
coedge $-1 $268 $107 $269 $270 forward $66 $-1 #
coedge $-1 $107 $268 $271 $272 forward $66 $-1 #
coedge $-1 $273 $274 $107 $171 reversed $275 $-1 #
edge $-1 $276 -36.508303854328659 $277 36.508303854328659 $170 $278 forward 7 unknown #
face $-1 $279 $280 $40 $-1 $281 reversed single #
loop $-1 $-1 $178 $108 #
plane-surface $-1 -66.162313415481165 0 7.5952090188121888 0 0 1 1 0 0 forward_v I I I I #
coedge $-1 $282 $283 $177 $284 forward $109 $-1 #
coedge $-1 $285 $111 $286 $287 reversed $69 $-1 #
coedge $-1 $111 $285 $175 $284 reversed $69 $-1 #
coedge $-1 $288 $289 $111 $179 reversed $173 $-1 #
edge $-1 $290 -36.508303854328659 $291 36.508303854328659 $178 $292 forward 7 unknown #
face $-1 $293 $294 $41 $-1 $295 reversed single #
loop $-1 $-1 $296 $112 #
plane-surface $-1 -23.200222257622134 -132.78561219319232 68.75727605020576 1 0 0 0 0.85716730853699208 -0.51503806187062418 forward_v I I I I #
coedge $-1 $297 $298 $299 $300 reversed $113 $-1 #
coedge $-1 $185 $115 $301 $302 reversed $72 $-1 #
coedge $-1 $115 $184 $297 $303 reversed $72 $-1 #
coedge $-1 $299 $304 $115 $187 forward $305 $-1 #
edge $-1 $306 29.884502242267502 $307 33.38025454332287 $186 $308 forward 7 unknown #
loop $-1 $-1 $193 $116 #
plane-surface $-1 -16.249967430684976 -36.508303854328659 10.908034956768915 0 -0.85716730853699208 0.51503806187062418 1 0 0 forward_v I I I I #
loop $-1 $-1 $309 $74 #
coedge $-1 $191 $191 $192 $310 reversed $117 $-1 #
coedge $-1 $192 $192 $191 $310 forward $119 $-1 #
coedge $-1 $193 $193 $120 $194 forward $188 $-1 #
edge $-1 $311 -6.1429551296134909e-016 $311 6.2831853071795996 $193 $312 forward 7 unknown #
loop $-1 $-1 $200 $121 #
plane-surface $-1 -16.249967430684976 -36.508303854328659 10.908034956768915 0 -0.85716730853699208 0.51503806187062418 1 0 0 forward_v I I I I #
loop $-1 $-1 $313 $77 #
coedge $-1 $198 $198 $199 $314 reversed $122 $-1 #
coedge $-1 $199 $199 $198 $314 forward $124 $-1 #
coedge $-1 $200 $200 $125 $201 forward $195 $-1 #
edge $-1 $315 -6.1429551296134909e-016 $315 6.2831853071795996 $200 $316 forward 7 unknown #
loop $-1 $-1 $207 $126 #
plane-surface $-1 -16.249967430684976 -36.508303854328659 10.908034956768915 0 -0.85716730853699208 0.51503806187062418 1 0 0 forward_v I I I I #
loop $-1 $-1 $317 $80 #
coedge $-1 $205 $205 $206 $318 reversed $127 $-1 #
coedge $-1 $206 $206 $205 $318 forward $129 $-1 #
coedge $-1 $207 $207 $130 $208 forward $202 $-1 #
edge $-1 $319 -6.1429551296134909e-016 $319 6.2831853071795996 $207 $320 forward 7 unknown #
face $-1 $321 $322 $45 $-1 $323 reversed single #
loop $-1 $-1 $324 $131 #
plane-surface $-1 22.957786602356759 -132.78561219319232 68.75727605020576 1 0 0 0 0.85716730853699208 -0.51503806187062418 forward_v I I I I #
coedge $-1 $325 $326 $327 $328 reversed $132 $-1 #
coedge $-1 $214 $134 $329 $330 reversed $84 $-1 #
coedge $-1 $134 $213 $325 $331 reversed $84 $-1 #
coedge $-1 $327 $332 $134 $216 forward $333 $-1 #
edge $-1 $334 29.884502242267502 $335 33.38025454332287 $215 $336 forward 7 unknown #
loop $-1 $-1 $222 $135 #
plane-surface $-1 29.908041429293917 -36.508303854328659 10.908034956768915 0 -0.85716730853699208 0.51503806187062418 1 0 0 forward_v I I I I #
loop $-1 $-1 $337 $86 #
coedge $-1 $220 $220 $221 $338 reversed $136 $-1 #
coedge $-1 $221 $221 $220 $338 forward $138 $-1 #
coedge $-1 $222 $222 $139 $223 forward $217 $-1 #
edge $-1 $339 -6.1429551296134909e-016 $339 6.2831853071795996 $222 $340 forward 7 unknown #
loop $-1 $-1 $229 $140 #
plane-surface $-1 29.908041429293917 -36.508303854328659 10.908034956768915 0 -0.85716730853699208 0.51503806187062418 1 0 0 forward_v I I I I #
loop $-1 $-1 $341 $89 #
coedge $-1 $227 $227 $228 $342 reversed $141 $-1 #
coedge $-1 $228 $228 $227 $342 forward $143 $-1 #
coedge $-1 $229 $229 $144 $230 forward $224 $-1 #
edge $-1 $343 -6.1429551296134909e-016 $343 6.2831853071795996 $229 $344 forward 7 unknown #
loop $-1 $-1 $236 $145 #
plane-surface $-1 29.908041429293917 -36.508303854328659 10.908034956768915 0 -0.85716730853699208 0.51503806187062418 1 0 0 forward_v I I I I #
loop $-1 $-1 $345 $92 #
coedge $-1 $234 $234 $235 $346 reversed $146 $-1 #
coedge $-1 $235 $235 $234 $346 forward $148 $-1 #
coedge $-1 $236 $236 $149 $237 forward $231 $-1 #
edge $-1 $347 -6.1429551296134909e-016 $347 6.2831853071795996 $236 $348 forward 7 unknown #
face $-1 $349 $350 $49 $-1 $351 forward single #
loop $-1 $-1 $352 $150 #
plane-surface $-1 26.196294661085346 77.84675025955174 132.07599873879116 -1 0 0 0 0.77714596973225614 0.62932038083071107 forward_v I I I I #
coedge $-1 $353 $354 $355 $356 reversed $151 $-1 #
coedge $-1 $243 $153 $357 $358 reversed $96 $-1 #
coedge $-1 $153 $242 $353 $359 reversed $96 $-1 #
coedge $-1 $355 $360 $153 $245 forward $350 $-1 #
edge $-1 $361 2.415071275447211 $362 12.197242408876612 $244 $363 forward 7 unknown #
loop $-1 $-1 $251 $154 #
plane-surface $-1 16.872988235725373 -9.4425355158501958 61.390530749370427 0 0.77714596973225614 0.62932038083071107 1 0 0 forward_v I I I I #
loop $-1 $-1 $364 $98 #
coedge $-1 $249 $249 $250 $365 reversed $155 $-1 #
coedge $-1 $250 $250 $249 $365 forward $157 $-1 #
coedge $-1 $251 $251 $158 $252 forward $246 $-1 #
edge $-1 $366 -1.2704470335423277e-015 $366 6.2831853071795996 $251 $367 forward 7 unknown #
loop $-1 $-1 $258 $159 #
plane-surface $-1 16.872988235725373 -9.4425355158501958 61.390530749370427 0 0.77714596973225614 0.62932038083071107 1 0 0 forward_v I I I I #
loop $-1 $-1 $368 $101 #
coedge $-1 $256 $256 $257 $369 reversed $160 $-1 #
coedge $-1 $257 $257 $256 $369 forward $162 $-1 #
coedge $-1 $258 $258 $163 $259 forward $253 $-1 #
edge $-1 $370 -1.2704470335423277e-015 $370 6.2831853071795996 $258 $371 forward 7 unknown #
face $-1 $372 $373 $39 $-1 $374 reversed single #
loop $-1 $-1 $375 $164 #
plane-surface $-1 -56.160161137730029 0 0 1 0 0 0 0 -1 forward_v I I I I #
coedge $-1 $376 $271 $377 $378 forward $165 $-1 #
coedge $-1 $379 $167 $376 $380 forward $105 $-1 #
coedge $-1 $167 $379 $381 $382 forward $105 $-1 #
coedge $-1 $274 $273 $167 $267 reversed $275 $-1 #
edge $-1 $383 -36.508303854328659 $384 36.508303854328659 $266 $385 forward 7 unknown #
coedge $-1 $169 $168 $386 $387 forward $66 $-1 #
coedge $-1 $388 $389 $168 $270 reversed $373 $-1 #
edge $-1 $277 -56.160161137730029 $390 56.160161137730029 $269 $391 forward 7 unknown #
coedge $-1 $263 $392 $169 $272 reversed $165 $-1 #
edge $-1 $393 -56.160161137730029 $276 56.160161137730029 $271 $394 forward 7 unknown #
coedge $-1 $266 $170 $392 $395 forward $275 $-1 #
coedge $-1 $170 $266 $388 $396 reversed $275 $-1 #
loop $-1 $-1 $273 $372 #
vertex $-1 $171 $397 #
vertex $-1 $171 $398 #
straight-curve $-1 56.160161137730029 0 16.725943987267566 0 1 0 I I #
face $-1 $399 $400 $40 $-1 $401 reversed single #
loop $-1 $-1 $402 $172 #
plane-surface $-1 -66.162313415481165 0 -0.89532464975119286 0 0 1 1 0 0 forward_v I I I I #
coedge $-1 $403 $175 $404 $405 reversed $109 $-1 #
coedge $-1 $175 $403 $288 $406 reversed $109 $-1 #
edge $-1 $290 -7.5952090188121888 $407 0.89532464975119286 $175 $408 forward 7 unknown #
coedge $-1 $177 $176 $402 $409 forward $69 $-1 #
coedge $-1 $410 $411 $176 $287 forward $412 $-1 #
edge $-1 $413 -0.89532464975119286 $291 7.5952090188121888 $286 $414 forward 7 unknown #
coedge $-1 $415 $178 $283 $406 forward $173 $-1 #
coedge $-1 $178 $415 $410 $416 forward $173 $-1 #
vertex $-1 $284 $417 #
vertex $-1 $416 $418 #
straight-curve $-1 -56.160161137730029 0 7.5952090188121888 0 -1 0 I I #
face $-1 $-1 $305 $41 $-1 $419 forward single #
loop $-1 $-1 $420 $180 #
plane-surface $-1 0 -36.508303854328659 0 0 1 0 0 0 1 forward_v I I I I #
coedge $-1 $421 $422 $423 $424 reversed $181 $-1 #
coedge $-1 $425 $183 $185 $303 forward $113 $-1 #
coedge $-1 $183 $425 $421 $426 forward $113 $-1 #
coedge $-1 $423 $186 $183 $300 forward $305 $-1 #
edge $-1 $307 1.1747288884053297 $427 15.075238542279646 $299 $428 forward 7 unknown #
coedge $-1 $429 $430 $184 $302 forward $294 $-1 #
edge $-1 $431 -23.470603068333965 $306 -17.652694037835314 $301 $432 forward 7 unknown #
edge $-1 $307 -6.7873669149009235 $431 0 $185 $433 forward 7 unknown #
coedge $-1 $186 $423 $429 $434 forward $305 $-1 #
loop $-1 $-1 $423 $293 #
vertex $-1 $302 $435 #
vertex $-1 $187 $436 #
straight-curve $-1 -9.2997126037478175 -66.392806096596161 16.725943987267566 0 1 0 I I #
coedge $-1 $309 $309 $-1 $437 reversed $190 $-1 #
edge $-1 $438 0 $438 6.2831853071796004 $191 $439 forward 7 unknown #
vertex $-1 $194 $440 #
ellipse-curve $-1 -20.420120326847275 -34.760427703800971 13.816989472018244 0 -0.85716730853699208 0.51503806187062418 1 0 0 1 I I #
coedge $-1 $313 $313 $-1 $441 reversed $197 $-1 #
edge $-1 $442 0 $442 6.2831853071796004 $198 $443 forward 7 unknown #
vertex $-1 $201 $444 #
ellipse-curve $-1 -16.249967430684983 -34.760427703800971 13.816989472018244 0 -0.85716730853699208 0.51503806187062418 1 0 0 1 I I #
coedge $-1 $317 $317 $-1 $445 reversed $204 $-1 #
edge $-1 $446 0 $446 6.2831853071796004 $205 $447 forward 7 unknown #
vertex $-1 $208 $448 #
ellipse-curve $-1 -12.07981453452269 -34.760427703800971 13.816989472018244 0 -0.85716730853699208 0.51503806187062418 1 0 0 1 I I #
face $-1 $-1 $333 $45 $-1 $449 forward single #
loop $-1 $-1 $450 $209 #
plane-surface $-1 0 -36.508303854328659 0 0 1 0 0 0 1 forward_v I I I I #
coedge $-1 $451 $452 $453 $454 reversed $210 $-1 #
coedge $-1 $455 $212 $214 $331 forward $132 $-1 #
coedge $-1 $212 $455 $451 $456 forward $132 $-1 #
coedge $-1 $453 $215 $212 $328 forward $333 $-1 #
edge $-1 $335 -21.904275541584113 $457 -8.0037658877098004 $327 $458 forward 7 unknown #
coedge $-1 $459 $460 $213 $330 forward $322 $-1 #
edge $-1 $461 -23.470603068333965 $334 -17.652694037835314 $329 $462 forward 7 unknown #
edge $-1 $335 -6.7873669149009235 $461 0 $214 $463 forward 7 unknown #
coedge $-1 $215 $453 $459 $464 forward $333 $-1 #
loop $-1 $-1 $453 $321 #
vertex $-1 $330 $465 #
vertex $-1 $216 $466 #
straight-curve $-1 36.858296256231071 -66.392806096596161 16.725943987267566 0 1 0 I I #
coedge $-1 $337 $337 $-1 $467 reversed $219 $-1 #
edge $-1 $468 0 $468 6.2831853071796004 $220 $469 forward 7 unknown #
vertex $-1 $223 $470 #
ellipse-curve $-1 25.737888533131624 -34.760427703800971 13.816989472018244 0 -0.85716730853699208 0.51503806187062418 1 0 0 1 I I #
coedge $-1 $341 $341 $-1 $471 reversed $226 $-1 #
edge $-1 $472 0 $472 6.2831853071796004 $227 $473 forward 7 unknown #
vertex $-1 $230 $474 #
ellipse-curve $-1 29.908041429293917 -34.760427703800971 13.816989472018244 0 -0.85716730853699208 0.51503806187062418 1 0 0 1 I I #
coedge $-1 $345 $345 $-1 $475 reversed $233 $-1 #
edge $-1 $476 0 $476 6.2831853071796004 $234 $477 forward 7 unknown #
vertex $-1 $237 $478 #
ellipse-curve $-1 34.078194325456209 -34.760427703800971 13.816989472018244 0 -0.85716730853699208 0.51503806187062418 1 0 0 1 I I #
face $-1 $-1 $479 $49 $-1 $480 reversed single #
loop $-1 $-1 $244 $238 #
plane-surface $-1 0 0 16.725943987267566 0 0 1 1 0 0 forward_v I I I I #
coedge $-1 $481 $482 $483 $484 reversed $239 $-1 #
coedge $-1 $485 $241 $243 $359 forward $151 $-1 #
coedge $-1 $241 $485 $481 $486 forward $151 $-1 #
coedge $-1 $483 $244 $241 $356 forward $350 $-1 #
edge $-1 $362 -0.88681230749728712 $487 17.75980054322266 $355 $488 forward 7 unknown #
coedge $-1 $489 $490 $242 $358 forward $479 $-1 #
edge $-1 $491 -61.39203102432937 $361 -49.312055382128008 $357 $492 forward 7 unknown #
edge $-1 $362 57.472583660815729 $491 73.016607708657318 $243 $493 forward 7 unknown #
coedge $-1 $244 $483 $489 $494 forward $350 $-1 #
vertex $-1 $245 $495 #
vertex $-1 $245 $496 #
straight-curve $-1 7.5496818103653993 38.92337512977587 16.72594398726757 0 -1 0 I I #
coedge $-1 $364 $364 $-1 $497 reversed $248 $-1 #
edge $-1 $498 0 $498 6.2831853071796004 $249 $499 forward 7 unknown #
vertex $-1 $252 $500 #
ellipse-curve $-1 12.877285481999678 31.617218287613955 10.685956166166891 0 0.77714596973225614 0.62932038083071107 1.5 0 0 1 I I #
coedge $-1 $368 $368 $-1 $501 reversed $255 $-1 #
edge $-1 $502 0 $502 6.2831853071796004 $256 $503 forward 7 unknown #
vertex $-1 $259 $504 #
ellipse-curve $-1 20.868690989451082 31.617218287613955 10.685956166166891 0 0.77714596973225614 0.62932038083071107 1.5 0 0 1 I I #
face $-1 $-1 $275 $39 $-1 $505 reversed single #
loop $-1 $-1 $388 $260 #
plane-surface $-1 0 36.508303854328659 0 0 -1 0 0 0 -1 forward_v I I I I #
coedge $-1 $506 $386 $389 $507 forward $261 $-1 #
coedge $-1 $392 $263 $264 $380 reversed $165 $-1 #
coedge $-1 $386 $506 $263 $378 reversed $261 $-1 #
edge $-1 $393 -16.725943987267566 $508 16.725943987267566 $377 $509 forward 7 unknown #
coedge $-1 $265 $264 $506 $510 forward $105 $-1 #
edge $-1 $384 -56.160161137730029 $508 56.160161137730029 $376 $511 forward 7 unknown #
coedge $-1 $389 $388 $265 $382 reversed $373 $-1 #
edge $-1 $512 -56.160161137730029 $383 56.160161137730029 $381 $513 forward 7 unknown #
vertex $-1 $267 $514 #
vertex $-1 $395 $515 #
straight-curve $-1 56.160161137730029 0 -16.725943987267566 0 -1 0 I I #
coedge $-1 $375 $377 $268 $387 reversed $261 $-1 #
edge $-1 $390 -36.508303854328659 $393 36.508303854328659 $386 $516 forward 7 unknown #
coedge $-1 $381 $269 $274 $396 forward $373 $-1 #
coedge $-1 $269 $381 $375 $507 reversed $373 $-1 #
vertex $-1 $270 $517 #
straight-curve $-1 0 36.508303854328659 16.725943987267566 -1 0 0 I I #
coedge $-1 $271 $376 $273 $395 reversed $165 $-1 #
vertex $-1 $387 $518 #
straight-curve $-1 0 -36.508303854328659 16.725943987267566 1 0 0 I I #
edge $-1 $276 -16.725943987267566 $384 16.725943987267566 $273 $519 forward 7 unknown #
edge $-1 $277 -16.725943987267566 $383 16.725943987267566 $274 $520 forward 7 unknown #
point $-1 56.160161137730029 -36.508303854328659 16.725943987267566 #
point $-1 56.160161137730029 36.508303854328659 16.725943987267566 #
face $-1 $-1 $412 $40 $-1 $521 reversed single #
loop $-1 $-1 $522 $279 #
plane-surface $-1 -76.164465693232302 0 3.349942184530498 1 0 0 0 0 -1 forward_v I I I I #
coedge $-1 $523 $404 $285 $409 reversed $280 $-1 #
coedge $-1 $283 $282 $522 $524 reversed $109 $-1 #
coedge $-1 $402 $525 $282 $405 forward $280 $-1 #
edge $-1 $526 -10.002152277751136 $407 10.002152277751129 $282 $527 forward 7 unknown #
edge $-1 $290 -10.002152277751129 $528 10.002152277751136 $283 $529 forward 7 unknown #
vertex $-1 $284 $530 #
straight-curve $-1 -56.160161137730029 36.508303854328659 0 0 0 -1 I I #
edge $-1 $413 -36.508303854328659 $407 36.508303854328659 $402 $531 forward 7 unknown #
coedge $-1 $532 $286 $289 $416 reversed $412 $-1 #
coedge $-1 $286 $532 $523 $533 reversed $412 $-1 #
loop $-1 $-1 $286 $399 #
vertex $-1 $287 $534 #
straight-curve $-1 -56.160161137730029 -36.508303854328659 0 0 0 1 I I #
coedge $-1 $289 $288 $535 $536 forward $173 $-1 #
edge $-1 $537 -10.002152277751136 $291 10.002152277751129 $410 $538 forward 7 unknown #
point $-1 -56.160161137730036 36.508303854328659 7.5952090188121888 #
point $-1 -56.160161137730036 -36.508303854328659 7.5952090188121888 #
plane-surface $-1 0 0 16.725943987267566 0 0 1 1 0 0 forward_v I I I I #
coedge $-1 $430 $429 $422 $539 forward $294 $-1 #
coedge $-1 $422 $296 $298 $426 reversed $181 $-1 #
coedge $-1 $296 $421 $420 $539 reversed $181 $-1 #
coedge $-1 $304 $299 $296 $424 forward $305 $-1 #
edge $-1 $427 -33.38025454332287 $540 -29.884502242267502 $423 $541 forward 7 unknown #
coedge $-1 $298 $297 $430 $542 reversed $113 $-1 #
edge $-1 $543 0 $427 6.7873669149009235 $421 $544 forward 7 unknown #
vertex $-1 $300 $545 #
straight-curve $-1 -8.1249837153424878 -33.01255155327329 16.725943987267566 -1 0 0 I I #
coedge $-1 $420 $301 $304 $434 reversed $294 $-1 #
coedge $-1 $301 $420 $425 $542 forward $294 $-1 #
vertex $-1 $302 $546 #
straight-curve $-1 -9.2997126037478175 -36.508303854328659 34.37863802510288 0 0 1 I I #
straight-curve $-1 -9.2997126037478175 -36.508303854328659 10.908034956768915 0 -0.51503806187062418 -0.85716730853699208 I I #
edge $-1 $540 -23.200222257622134 $306 -9.2997126037478175 $429 $547 forward 7 unknown #
point $-1 -9.2997126037478175 -36.508303854328659 16.725943987267566 #
point $-1 -9.2997126037478175 -33.01255155327329 16.725943987267566 #
edge $-1 $548 1 $548 0 $309 $-1 forward 7 unknown #
vertex $-1 $310 $549 #
ellipse-curve $-1 -20.420120326847275 -33.8186606737207 13.251118770843151 0 -0.85716730853699208 0.51503806187062418 1 0 0 1 I I #
point $-1 -19.420120326847275 -34.760427703800978 13.816989472018248 #
edge $-1 $550 1 $550 0 $313 $-1 forward 7 unknown #
vertex $-1 $314 $551 #
ellipse-curve $-1 -16.249967430684983 -33.8186606737207 13.251118770843151 0 -0.85716730853699208 0.51503806187062418 1 0 0 1 I I #
point $-1 -15.249967430684983 -34.760427703800978 13.816989472018248 #
edge $-1 $552 1 $552 0 $317 $-1 forward 7 unknown #
vertex $-1 $318 $553 #
ellipse-curve $-1 -12.07981453452269 -33.8186606737207 13.251118770843151 0 -0.85716730853699208 0.51503806187062418 1 0 0 1 I I #
point $-1 -11.07981453452269 -34.760427703800978 13.816989472018248 #
plane-surface $-1 0 0 16.725943987267566 0 0 1 1 0 0 forward_v I I I I #
coedge $-1 $460 $459 $452 $554 forward $322 $-1 #
coedge $-1 $452 $324 $326 $456 reversed $210 $-1 #
coedge $-1 $324 $451 $450 $554 reversed $210 $-1 #
coedge $-1 $332 $327 $324 $454 forward $333 $-1 #
edge $-1 $457 -33.38025454332287 $555 -29.884502242267502 $453 $556 forward 7 unknown #
coedge $-1 $326 $325 $460 $557 reversed $132 $-1 #
edge $-1 $558 0 $457 6.7873669149009235 $451 $559 forward 7 unknown #
vertex $-1 $328 $560 #
straight-curve $-1 14.954020714646958 -33.01255155327329 16.725943987267566 -1 0 0 I I #
coedge $-1 $450 $329 $332 $464 reversed $322 $-1 #
coedge $-1 $329 $450 $455 $557 forward $322 $-1 #
vertex $-1 $330 $561 #
straight-curve $-1 36.858296256231071 -36.508303854328659 34.37863802510288 0 0 1 I I #
straight-curve $-1 36.858296256231071 -36.508303854328659 10.908034956768915 0 -0.51503806187062418 -0.85716730853699208 I I #
edge $-1 $555 22.957786602356759 $334 36.858296256231071 $459 $562 forward 7 unknown #
point $-1 36.858296256231071 -36.508303854328659 16.725943987267566 #
point $-1 36.858296256231071 -33.01255155327329 16.725943987267566 #
edge $-1 $563 1 $563 0 $337 $-1 forward 7 unknown #
vertex $-1 $338 $564 #
ellipse-curve $-1 25.737888533131624 -33.8186606737207 13.251118770843151 0 -0.85716730853699208 0.51503806187062418 1 0 0 1 I I #
point $-1 26.737888533131624 -34.760427703800978 13.816989472018248 #
edge $-1 $565 1 $565 0 $341 $-1 forward 7 unknown #
vertex $-1 $342 $566 #
ellipse-curve $-1 29.908041429293917 -33.8186606737207 13.251118770843151 0 -0.85716730853699208 0.51503806187062418 1 0 0 1 I I #
point $-1 30.908041429293917 -34.760427703800978 13.816989472018248 #
edge $-1 $567 1 $567 0 $345 $-1 forward 7 unknown #
vertex $-1 $346 $568 #
ellipse-curve $-1 34.078194325456209 -33.8186606737207 13.251118770843151 0 -0.85716730853699208 0.51503806187062418 1 0 0 1 I I #
point $-1 35.078194325456209 -34.760427703800978 13.816989472018248 #
loop $-1 $-1 $357 $349 #
plane-surface $-1 0 36.508303854328659 0 0 -1 0 0 0 -1 forward_v I I I I #
coedge $-1 $482 $352 $354 $486 reversed $239 $-1 #
coedge $-1 $352 $481 $569 $570 reversed $239 $-1 #
coedge $-1 $360 $355 $352 $484 forward $350 $-1 #
edge $-1 $487 -12.197242408876612 $571 -2.415071275447211 $483 $572 forward 7 unknown #
coedge $-1 $354 $353 $490 $573 reversed $151 $-1 #
edge $-1 $574 -73.016607708657318 $487 -57.472583660815729 $481 $575 forward 7 unknown #
vertex $-1 $356 $576 #
straight-curve $-1 8.4364941178626864 26.726132720899265 16.725943987267563 1 0 0 I I #
coedge $-1 $569 $357 $360 $494 reversed $479 $-1 #
coedge $-1 $357 $569 $485 $573 forward $479 $-1 #
vertex $-1 $358 $577 #
straight-curve $-1 7.5496818103653993 36.508303854328659 66.037999369395578 0 0 1 I I #
straight-curve $-1 7.5496818103653993 -9.4425355158501958 61.390530749370427 0 0.62932038083071107 -0.77714596973225614 I I #
edge $-1 $571 -26.196294661085346 $361 -7.5496818103653993 $489 $578 forward 7 unknown #
point $-1 7.5496818103653993 36.508303854328659 16.725943987267566 #
point $-1 7.5496818103653993 26.726132720899258 16.72594398726757 #
edge $-1 $579 1 $579 0 $364 $-1 forward 7 unknown #
vertex $-1 $365 $580 #
ellipse-curve $-1 12.877285481999678 28.462942959645073 8.1316744379528405 0 0.77714596973225614 0.62932038083071107 1.5 0 0 1 I I #
point $-1 14.377285481999678 31.617218287613959 10.685956166166896 #
edge $-1 $581 1 $581 0 $368 $-1 forward 7 unknown #
vertex $-1 $369 $582 #
ellipse-curve $-1 20.868690989451082 28.462942959645073 8.1316744379528405 0 0.77714596973225614 0.62932038083071107 1.5 0 0 1 I I #
point $-1 22.368690989451082 31.617218287613959 10.685956166166896 #
plane-surface $-1 56.160161137730029 0 0 -1 0 0 0 0 1 forward_v I I I I #
coedge $-1 $377 $375 $379 $510 reversed $261 $-1 #
edge $-1 $390 -16.725943987267566 $512 16.725943987267566 $389 $583 forward 7 unknown #
vertex $-1 $510 $584 #
straight-curve $-1 -56.160161137730029 -36.508303854328659 0 0 0 -1 I I #
edge $-1 $508 -36.508303854328659 $512 36.508303854328659 $506 $585 forward 7 unknown #
straight-curve $-1 0 -36.508303854328659 -16.725943987267566 -1 0 0 I I #
vertex $-1 $382 $586 #
straight-curve $-1 0 36.508303854328659 -16.725943987267566 1 0 0 I I #
point $-1 56.160161137730029 36.508303854328659 -16.725943987267566 #
point $-1 56.160161137730029 -36.508303854328659 -16.725943987267566 #
straight-curve $-1 -56.160161137730029 0 16.725943987267566 0 -1 0 I I #
point $-1 -56.160161137730029 36.508303854328659 16.725943987267566 #
point $-1 -56.160161137730029 -36.508303854328659 16.725943987267566 #
straight-curve $-1 56.160161137730029 -36.508303854328659 0 0 0 -1 I I #
straight-curve $-1 56.160161137730029 36.508303854328659 0 0 0 -1 I I #
plane-surface $-1 0 -36.508303854328659 0 0 1 0 0 0 1 forward_v I I I I #
coedge $-1 $587 $535 $403 $524 forward $400 $-1 #
coedge $-1 $525 $402 $411 $533 forward $280 $-1 #
edge $-1 $528 -4.2452668342816908 $526 4.2452668342816908 $403 $588 forward 7 unknown #
coedge $-1 $404 $523 $587 $589 forward $280 $-1 #
vertex $-1 $405 $590 #
straight-curve $-1 -66.162313415481165 36.508303854328659 -0.89532464975119286 1 0 0 I I #
vertex $-1 $406 $591 #
straight-curve $-1 -66.162313415481165 36.508303854328659 7.5952090188121888 -1 0 0 I I #
point $-1 -56.160161137730036 36.508303854328659 -0.89532464975119286 #
straight-curve $-1 -56.160161137730029 0 -0.89532464975119286 0 1 0 I I #
coedge $-1 $411 $410 $592 $593 forward $412 $-1 #
edge $-1 $413 -10.002152277751129 $594 10.002152277751136 $411 $595 forward 7 unknown #
point $-1 -56.160161137730036 -36.508303854328659 -0.89532464975119286 #
coedge $-1 $522 $592 $415 $536 reversed $400 $-1 #
edge $-1 $528 -36.508303854328659 $537 36.508303854328659 $535 $596 forward 7 unknown #
vertex $-1 $536 $597 #
straight-curve $-1 -66.162313415481165 -36.508303854328659 7.5952090188121888 1 0 0 I I #
edge $-1 $540 17.652694037835314 $543 23.470603068333965 $420 $598 forward 7 unknown #
vertex $-1 $434 $599 #
straight-curve $-1 -23.200222257622134 -66.392806096596161 16.725943987267566 0 -1 0 I I #
edge $-1 $543 -15.075238542279646 $431 -1.1747288884053297 $430 $600 forward 7 unknown #
vertex $-1 $542 $601 #
straight-curve $-1 -23.200222257622134 -36.508303854328659 10.908034956768915 0 0.51503806187062418 0.85716730853699208 I I #
point $-1 -23.200222257622134 -33.01255155327329 16.725943987267566 #
point $-1 -9.2997126037478175 -36.508303854328659 10.908034956768915 #
straight-curve $-1 0 -36.508303854328659 16.725943987267566 1 0 0 I I #
vertex $-1 $437 $602 #
point $-1 -19.420120326847275 -33.8186606737207 13.251118770843151 #
vertex $-1 $441 $603 #
point $-1 -15.249967430684983 -33.8186606737207 13.251118770843151 #
vertex $-1 $445 $604 #
point $-1 -11.07981453452269 -33.8186606737207 13.251118770843151 #
edge $-1 $555 17.652694037835314 $558 23.470603068333965 $450 $605 forward 7 unknown #
vertex $-1 $464 $606 #
straight-curve $-1 22.957786602356759 -66.392806096596161 16.725943987267566 0 -1 0 I I #
edge $-1 $558 8.0037658877098004 $461 21.904275541584113 $460 $607 forward 7 unknown #
vertex $-1 $557 $608 #
straight-curve $-1 22.957786602356759 -36.508303854328659 10.908034956768915 0 0.51503806187062418 0.85716730853699208 I I #
point $-1 22.957786602356759 -33.01255155327329 16.725943987267566 #
point $-1 36.858296256231071 -36.508303854328659 10.908034956768915 #
straight-curve $-1 0 -36.508303854328659 16.725943987267566 1 0 0 I I #
vertex $-1 $467 $609 #
point $-1 26.737888533131624 -33.8186606737207 13.251118770843151 #
vertex $-1 $471 $610 #
point $-1 30.908041429293917 -33.8186606737207 13.251118770843151 #
vertex $-1 $475 $611 #
point $-1 35.078194325456209 -33.8186606737207 13.251118770843151 #
coedge $-1 $490 $489 $482 $570 forward $479 $-1 #
edge $-1 $571 49.312055382128008 $574 61.39203102432937 $569 $612 forward 7 unknown #
vertex $-1 $494 $613 #
straight-curve $-1 26.196294661085346 38.92337512977587 16.72594398726757 0 1 0 I I #
edge $-1 $574 -17.75980054322266 $491 0.88681230749728712 $490 $614 forward 7 unknown #
vertex $-1 $573 $615 #
straight-curve $-1 26.196294661085346 -9.4425355158501958 61.390530749370427 0 -0.62932038083071107 0.77714596973225614 I I #
point $-1 26.196294661085346 26.726132720899258 16.72594398726757 #
point $-1 7.5496818103653993 36.508303854328659 4.6459683450662084 #
straight-curve $-1 0 36.508303854328659 16.725943987267566 -1 0 0 I I #
vertex $-1 $497 $616 #
point $-1 14.377285481999678 28.462942959645073 8.1316744379528405 #
vertex $-1 $501 $617 #
point $-1 22.368690989451082 28.462942959645073 8.1316744379528405 #
straight-curve $-1 -56.160161137730029 36.508303854328659 0 0 0 -1 I I #
point $-1 -56.160161137730029 -36.508303854328659 -16.725943987267566 #
straight-curve $-1 -56.160161137730029 0 -16.725943987267566 0 1 0 I I #
point $-1 -56.160161137730029 36.508303854328659 -16.725943987267566 #
coedge $-1 $592 $522 $525 $589 reversed $400 $-1 #
straight-curve $-1 -76.164465693232302 36.508303854328659 3.349942184530498 0 0 -1 I I #
edge $-1 $594 -36.508303854328659 $526 36.508303854328659 $587 $618 forward 7 unknown #
point $-1 -76.164465693232302 36.508303854328659 -0.89532464975119286 #
point $-1 -76.164465693232302 36.508303854328659 7.5952090188121888 #
coedge $-1 $535 $587 $532 $593 reversed $400 $-1 #
edge $-1 $537 -4.2452668342816908 $594 4.2452668342816908 $592 $619 forward 7 unknown #
vertex $-1 $589 $620 #
straight-curve $-1 -66.162313415481165 -36.508303854328659 -0.89532464975119286 -1 0 0 I I #
straight-curve $-1 -76.164465693232302 0 7.5952090188121888 0 -1 0 I I #
point $-1 -76.164465693232302 -36.508303854328659 7.5952090188121888 #
straight-curve $-1 -23.200222257622134 -36.508303854328659 34.37863802510288 0 0 -1 I I #
point $-1 -23.200222257622134 -36.508303854328659 16.725943987267566 #
straight-curve $-1 -8.1249837153424878 -36.508303854328659 10.908034956768915 1 0 0 I I #
point $-1 -23.200222257622134 -36.508303854328659 10.908034956768915 #
point $-1 -20.420120326847275 -32.961493365183713 12.736080708972528 #
point $-1 -16.249967430684983 -32.961493365183713 12.736080708972528 #
point $-1 -12.07981453452269 -32.961493365183713 12.736080708972528 #
straight-curve $-1 22.957786602356759 -36.508303854328659 34.37863802510288 0 0 -1 I I #
point $-1 22.957786602356759 -36.508303854328659 16.725943987267566 #
straight-curve $-1 14.954020714646958 -36.508303854328659 10.908034956768915 1 0 0 I I #
point $-1 22.957786602356759 -36.508303854328659 10.908034956768915 #
point $-1 25.737888533131624 -32.961493365183713 12.736080708972528 #
point $-1 29.908041429293917 -32.961493365183713 12.736080708972528 #
point $-1 34.078194325456209 -32.961493365183713 12.736080708972528 #
straight-curve $-1 26.196294661085346 36.508303854328659 66.037999369395578 0 0 -1 I I #
point $-1 26.196294661085346 36.508303854328659 16.725943987267566 #
straight-curve $-1 8.4364941178626864 36.508303854328659 4.6459683450662119 -1 0 0 I I #
point $-1 26.196294661085346 36.508303854328659 4.6459683450662084 #
point $-1 12.877285481999678 27.29722400504669 7.1876938667067725 #
point $-1 20.868690989451082 27.29722400504669 7.1876938667067725 #
straight-curve $-1 -76.164465693232302 0 -0.89532464975119286 0 1 0 I I #
straight-curve $-1 -76.164465693232302 -36.508303854328659 3.349942184530498 0 0 -1 I I #
point $-1 -76.164465693232302 -36.508303854328659 -0.89532464975119286 #
End-of-ACIS-data 