500 0 17 0           
7 Unknown 11 ACIS 5.0 NT 24 Thu Mar 25 20:33:34 1999 
-1 9.9999999999999995e-007 1e-010 
body $-1 $17 $-1 $18 #
body $-1 $19 $-1 $20 #
body $-1 $21 $-1 $22 #
body $-1 $23 $-1 $24 #
body $-1 $25 $-1 $26 #
body $-1 $27 $-1 $28 #
body $-1 $29 $-1 $30 #
body $-1 $31 $-1 $32 #
body $-1 $33 $-1 $34 #
body $-1 $35 $-1 $36 #
body $-1 $37 $-1 $38 #
body $-1 $39 $-1 $40 #
body $-1 $41 $-1 $42 #
body $-1 $43 $-1 $44 #
body $-1 $45 $-1 $46 #
body $-1 $47 $-1 $48 #
body $-1 $49 $-1 $50 #
lump $-1 $-1 $51 $0 #
transform $-1 1 0 0 0 1 0 0 0 1 41.037629322183903 27.834751783365494 5.9275525519317025 1 rotate no_reflect no_shear #
lump $-1 $-1 $52 $1 #
transform $-1 1 0 0 0 1 0 0 0 1 41.037629322183903 27.834751783365494 5.9275525519317025 1 rotate no_reflect no_shear #
lump $-1 $-1 $53 $2 #
transform $-1 1 0 0 0 1 0 0 0 1 41.037629322183903 27.834751783365494 5.9275525519317025 1 rotate no_reflect no_shear #
lump $-1 $-1 $54 $3 #
transform $-1 1 0 0 0 1 0 0 0 1 41.037629322183903 27.834751783365494 5.9275525519317025 1 rotate no_reflect no_shear #
lump $-1 $-1 $55 $4 #
transform $-1 1 0 0 0 1 0 0 0 1 41.037629322183903 27.834751783365494 5.9275525519317025 1 rotate no_reflect no_shear #
lump $-1 $-1 $56 $5 #
transform $-1 1 0 0 0 1 0 0 0 1 41.037629322183903 27.834751783365494 5.9275525519317025 1 rotate no_reflect no_shear #
lump $-1 $-1 $57 $6 #
transform $-1 1 0 0 0 1 0 0 0 1 41.037629322183903 27.834751783365494 5.9275525519317025 1 rotate no_reflect no_shear #
lump $-1 $-1 $58 $7 #
transform $-1 1 0 0 0 1 0 0 0 1 41.037629322183903 27.834751783365494 5.9275525519317025 1 rotate no_reflect no_shear #
lump $-1 $-1 $59 $8 #
transform $-1 1 0 0 0 1 0 0 0 1 41.037629322183903 27.834751783365494 5.9275525519317025 1 rotate no_reflect no_shear #
lump $-1 $-1 $60 $9 #
transform $-1 1 0 0 0 1 0 0 0 1 41.037629322183903 27.834751783365494 5.9275525519317025 1 rotate no_reflect no_shear #
lump $-1 $-1 $61 $10 #
transform $-1 1 0 0 0 1 0 0 0 1 41.037629322183903 27.834751783365494 5.9275525519317025 1 rotate no_reflect no_shear #
lump $-1 $-1 $62 $11 #
transform $-1 1 0 0 0 1 0 0 0 1 41.037629322183903 27.834751783365494 5.9275525519317025 1 rotate no_reflect no_shear #
lump $-1 $-1 $63 $12 #
transform $-1 1 0 0 0 1 0 0 0 1 41.037629322183903 27.834751783365494 5.9275525519317025 1 rotate no_reflect no_shear #
lump $-1 $-1 $64 $13 #
transform $-1 1 0 0 0 1 0 0 0 1 41.037629322183903 27.834751783365494 5.9275525519317025 1 rotate no_reflect no_shear #
lump $-1 $-1 $65 $14 #
transform $-1 1 0 0 0 1 0 0 0 1 41.037629322183903 27.834751783365494 5.9275525519317025 1 rotate no_reflect no_shear #
lump $-1 $-1 $66 $15 #
transform $-1 1 0 0 0 1 0 0 0 1 41.037629322183903 27.834751783365494 5.9275525519317025 1 rotate no_reflect no_shear #
lump $-1 $-1 $67 $16 #
transform $-1 1 0 0 0 1 0 0 0 1 41.037629322183903 27.834751783365494 5.9275525519317025 1 rotate no_reflect no_shear #
shell $-1 $-1 $-1 $68 $-1 $17 #
shell $-1 $-1 $-1 $69 $-1 $19 #
shell $-1 $-1 $-1 $70 $-1 $21 #
shell $-1 $-1 $-1 $71 $-1 $23 #
shell $-1 $-1 $-1 $72 $-1 $25 #
shell $-1 $-1 $-1 $73 $-1 $27 #
shell $-1 $-1 $-1 $74 $-1 $29 #
shell $-1 $-1 $-1 $75 $-1 $31 #
shell $-1 $-1 $-1 $76 $-1 $33 #
shell $-1 $-1 $-1 $77 $-1 $35 #
shell $-1 $-1 $-1 $78 $-1 $37 #
shell $-1 $-1 $-1 $79 $-1 $39 #
shell $-1 $-1 $-1 $80 $-1 $41 #
shell $-1 $-1 $-1 $81 $-1 $43 #
shell $-1 $-1 $-1 $82 $-1 $45 #
shell $-1 $-1 $-1 $83 $-1 $47 #
shell $-1 $-1 $-1 $84 $-1 $49 #
face $-1 $85 $86 $51 $-1 $87 forward single #
face $-1 $88 $89 $52 $-1 $90 reversed single #
face $-1 $91 $92 $53 $-1 $93 reversed single #
face $-1 $94 $95 $54 $-1 $96 forward single #
face $-1 $97 $98 $55 $-1 $99 forward single #
face $-1 $100 $101 $56 $-1 $102 reversed single #
face $-1 $103 $104 $57 $-1 $105 forward single #
face $-1 $106 $107 $58 $-1 $108 forward single #
face $-1 $109 $110 $59 $-1 $111 reversed single #
face $-1 $112 $113 $60 $-1 $114 forward single #
face $-1 $115 $116 $61 $-1 $117 forward single #
face $-1 $118 $119 $62 $-1 $120 reversed single #
face $-1 $121 $122 $63 $-1 $123 forward single #
face $-1 $124 $125 $64 $-1 $126 forward single #
face $-1 $127 $128 $65 $-1 $129 reversed single #
face $-1 $130 $131 $66 $-1 $132 forward single #
face $-1 $133 $134 $67 $-1 $135 forward single #
face $-1 $136 $137 $51 $-1 $138 reversed single #
loop $-1 $-1 $139 $68 #
plane-surface $-1 0 0 5.9275525519317025 0 0 1 1 0 0 forward_v I I I I #
face $-1 $140 $141 $52 $-1 $142 reversed single #
loop $-1 $-1 $143 $69 #
plane-surface $-1 0 -24.912403432138493 2.9275525519317025 0 0 1 1 0 0 forward_v I I I I #
face $-1 $144 $145 $53 $-1 $146 reversed single #
loop $-1 $-1 $147 $70 #
plane-surface $-1 -41.037629322183918 -15.473691510294163 0.53749675443040701 -0.71933980857756763 0 0.69465836192734942 0.69465836192734942 0 0.71933980857756763 forward_v I I I I #
face $-1 $148 $149 $54 $-1 $150 forward single #
loop $-1 $151 $152 $71 #
cone-surface $-1 -36.918540116991956 -18.266418754844445 1.768027649899345 0.71933980857756763 0 -0.69465836192734942 1.0419875428910241 0 1.0790097128663514 1 I I 0 1 1.5 forward I I I I #
face $-1 $153 $154 $55 $-1 $155 forward single #
loop $-1 $156 $157 $72 #
cone-surface $-1 -36.918540116991956 -12.680964265743876 1.768027649899345 0.71933980857756763 0 -0.69465836192734942 1.0419875428910241 0 1.0790097128663514 1 I I 0 1 1.5 forward I I I I #
face $-1 $158 $159 $56 $-1 $160 reversed single #
loop $-1 $-1 $161 $73 #
plane-surface $-1 49.134400292849435 -11.894400073844999 116.60777306444793 0 -1 0 -0.75470958851134928 0 -0.65605901945558964 forward_v I I I I #
face $-1 $162 $163 $57 $-1 $164 forward single #
loop $-1 $165 $166 $74 #
cone-surface $-1 38.167745183196324 -16.583504175289953 2.8086350195931664 -0.75470958851134928 0 -0.65605901945558964 0.32802950972779482 0 -0.37735479425567464 1 I I 0 1 0.5 forward I I I I #
face $-1 $167 $168 $58 $-1 $169 forward single #
loop $-1 $170 $171 $75 #
cone-surface $-1 38.167745183196324 -13.77004171442298 2.8086350195931664 -0.75470958851134928 0 -0.65605901945558964 0.32802950972779482 0 -0.37735479425567464 1 I I 0 1 0.5 forward I I I I #
face $-1 $172 $173 $59 $-1 $174 reversed single #
loop $-1 $-1 $175 $76 #
plane-surface $-1 49.134400292849435 0.17168079021064564 116.60777306444793 0 -1 0 -0.75470958851134928 0 -0.65605901945558964 forward_v I I I I #
face $-1 $176 $177 $60 $-1 $178 forward single #
loop $-1 $179 $180 $77 #
cone-surface $-1 38.167745183196324 -4.5174233112343103 2.8086350195931664 -0.75470958851134928 0 -0.65605901945558964 0.32802950972779482 0 -0.37735479425567464 1 I I 0 1 0.5 forward I I I I #
face $-1 $181 $182 $61 $-1 $183 forward single #
loop $-1 $184 $185 $78 #
cone-surface $-1 38.167745183196324 -1.7039608503673342 2.8086350195931664 -0.75470958851134928 0 -0.65605901945558964 0.32802950972779482 0 -0.37735479425567464 1 I I 0 1 0.5 forward I I I I #
face $-1 $186 $187 $62 $-1 $188 reversed single #
loop $-1 $-1 $189 $79 #
plane-surface $-1 49.134400292849435 12.237761654266292 116.60777306444793 0 -1 0 -0.75470958851134928 0 -0.65605901945558964 forward_v I I I I #
face $-1 $190 $191 $63 $-1 $192 forward single #
loop $-1 $193 $194 $80 #
cone-surface $-1 38.167745183196324 7.5486575528213358 2.8086350195931664 -0.75470958851134928 0 -0.65605901945558964 0.32802950972779482 0 -0.37735479425567464 1 I I 0 1 0.5 forward I I I I #
face $-1 $195 $196 $64 $-1 $197 forward single #
loop $-1 $198 $199 $81 #
cone-surface $-1 38.167745183196324 10.362120013688308 2.8086350195931664 -0.75470958851134928 0 -0.65605901945558964 0.32802950972779482 0 -0.37735479425567464 1 I I 0 1 0.5 forward I I I I #
face $-1 $200 $201 $65 $-1 $202 reversed single #
loop $-1 $-1 $203 $82 #
plane-surface $-1 49.134400292849435 24.303842518321936 116.60777306444793 0 -1 0 -0.75470958851134928 0 -0.65605901945558964 forward_v I I I I #
face $-1 $204 $205 $66 $-1 $206 forward single #
loop $-1 $207 $208 $83 #
cone-surface $-1 38.167745183196324 19.614738416876978 2.8086350195931664 -0.75470958851134928 0 -0.65605901945558964 0.32802950972779482 0 -0.37735479425567464 1 I I 0 1 0.5 forward I I I I #
face $-1 $209 $210 $67 $-1 $211 forward single #
loop $-1 $212 $213 $84 #
cone-surface $-1 38.167745183196324 22.428200877743951 2.8086350195931664 -0.75470958851134928 0 -0.65605901945558964 0.32802950972779482 0 -0.37735479425567464 1 I I 0 1 0.5 forward I I I I #
face $-1 $214 $215 $51 $-1 $216 reversed single #
loop $-1 $-1 $217 $85 #
plane-surface $-1 0 0 -5.9275525519317025 0 0 1 1 0 0 forward_v I I I I #
coedge $-1 $218 $219 $220 $221 forward $86 $-1 #
face $-1 $222 $223 $52 $-1 $224 reversed single #
loop $-1 $-1 $225 $88 #
plane-surface $-1 0 -21.990055080911493 4.4275525519317025 0 -1 0 0 0 -1 forward_v I I I I #
coedge $-1 $226 $227 $228 $229 reversed $89 $-1 #
face $-1 $230 $231 $53 $-1 $232 forward single #
loop $-1 $-1 $233 $91 #
plane-surface $-1 -100.07763016437781 -8.9573279396768335 57.551761479090473 0 -1 0 0.71933980857756763 0 -0.69465836192734942 forward_v I I I I #
coedge $-1 $234 $235 $236 $237 reversed $92 $-1 #
face $-1 $-1 $238 $54 $-1 $239 forward single #
loop $-1 $240 $241 $94 #
cone-surface $-1 -34.862504183209907 -18.266418754844445 -0.21746312482787644 0.71933980857756763 0 -0.69465836192734942 0.52099377144551207 0 0.53950485643317569 1 I I -0.70710678118654757 0.70710678118654757 0.75 forward I I I I #
loop $-1 $-1 $242 $71 #
coedge $-1 $152 $152 $243 $244 reversed $95 $-1 #
face $-1 $-1 $245 $55 $-1 $246 forward single #
loop $-1 $247 $248 $97 #
cone-surface $-1 -34.862504183209907 -12.680964265743876 -0.21746312482787644 0.71933980857756763 0 -0.69465836192734942 0.52099377144551207 0 0.53950485643317569 1 I I -0.70710678118654757 0.70710678118654757 0.75 forward I I I I #
loop $-1 $-1 $249 $72 #
coedge $-1 $157 $157 $250 $251 reversed $98 $-1 #
face $-1 $252 $253 $56 $-1 $254 reversed single #
loop $-1 $-1 $255 $100 #
plane-surface $-1 -12.808584385603957 -15.176772944856468 62.761559356660072 0.75470958851134928 0 0.65605901945558964 0.65605901945558964 0 -0.75470958851134928 forward_v I I I I #
coedge $-1 $256 $257 $258 $259 reversed $101 $-1 #
face $-1 $-1 $260 $57 $-1 $261 forward single #
loop $-1 $262 $263 $103 #
cone-surface $-1 37.329766945133116 -16.583504175289953 2.0801916692532476 -0.75470958851134928 0 -0.65605901945558964 0.16401475486389741 0 -0.18867739712783732 1 I I -0.70710678118654746 0.70710678118654746 0.25 forward I I I I #
loop $-1 $-1 $264 $74 #
coedge $-1 $166 $166 $265 $266 reversed $104 $-1 #
face $-1 $-1 $267 $58 $-1 $268 forward single #
loop $-1 $269 $270 $106 #
cone-surface $-1 37.329766945133116 -13.77004171442298 2.0801916692532476 -0.75470958851134928 0 -0.65605901945558964 0.16401475486389741 0 -0.18867739712783732 1 I I -0.70710678118654746 0.70710678118654746 0.25 forward I I I I #
loop $-1 $-1 $271 $75 #
coedge $-1 $171 $171 $272 $273 reversed $107 $-1 #
face $-1 $274 $275 $59 $-1 $276 reversed single #
loop $-1 $-1 $277 $109 #
plane-surface $-1 -12.808584385603957 -3.110692080800824 62.761559356660072 0.75470958851134928 0 0.65605901945558964 0.65605901945558964 0 -0.75470958851134928 forward_v I I I I #
coedge $-1 $278 $279 $280 $281 reversed $110 $-1 #
face $-1 $-1 $282 $60 $-1 $283 forward single #
loop $-1 $284 $285 $112 #
cone-surface $-1 37.329766945133116 -4.5174233112343103 2.0801916692532476 -0.75470958851134928 0 -0.65605901945558964 0.16401475486389741 0 -0.18867739712783732 1 I I -0.70710678118654746 0.70710678118654746 0.25 forward I I I I #
loop $-1 $-1 $286 $77 #
coedge $-1 $180 $180 $287 $288 reversed $113 $-1 #
face $-1 $-1 $289 $61 $-1 $290 forward single #
loop $-1 $291 $292 $115 #
cone-surface $-1 37.329766945133116 -1.7039608503673342 2.0801916692532476 -0.75470958851134928 0 -0.65605901945558964 0.16401475486389741 0 -0.18867739712783732 1 I I -0.70710678118654746 0.70710678118654746 0.25 forward I I I I #
loop $-1 $-1 $293 $78 #
coedge $-1 $185 $185 $294 $295 reversed $116 $-1 #
face $-1 $296 $297 $62 $-1 $298 reversed single #
loop $-1 $-1 $299 $118 #
plane-surface $-1 -12.808584385603957 8.955388783254822 62.761559356660072 0.75470958851134928 0 0.65605901945558964 0.65605901945558964 0 -0.75470958851134928 forward_v I I I I #
coedge $-1 $300 $301 $302 $303 reversed $119 $-1 #
face $-1 $-1 $304 $63 $-1 $305 forward single #
loop $-1 $306 $307 $121 #
cone-surface $-1 37.329766945133116 7.5486575528213358 2.0801916692532476 -0.75470958851134928 0 -0.65605901945558964 0.16401475486389741 0 -0.18867739712783732 1 I I -0.70710678118654746 0.70710678118654746 0.25 forward I I I I #
loop $-1 $-1 $308 $80 #
coedge $-1 $194 $194 $309 $310 reversed $122 $-1 #
face $-1 $-1 $311 $64 $-1 $312 forward single #
loop $-1 $313 $314 $124 #
cone-surface $-1 37.329766945133116 10.362120013688308 2.0801916692532476 -0.75470958851134928 0 -0.65605901945558964 0.16401475486389741 0 -0.18867739712783732 1 I I -0.70710678118654746 0.70710678118654746 0.25 forward I I I I #
loop $-1 $-1 $315 $81 #
coedge $-1 $199 $199 $316 $317 reversed $125 $-1 #
face $-1 $318 $319 $65 $-1 $320 reversed single #
loop $-1 $-1 $321 $127 #
plane-surface $-1 -12.808584385603957 21.021469647310465 62.761559356660072 0.75470958851134928 0 0.65605901945558964 0.65605901945558964 0 -0.75470958851134928 forward_v I I I I #
coedge $-1 $322 $323 $324 $325 reversed $128 $-1 #
face $-1 $-1 $326 $66 $-1 $327 forward single #
loop $-1 $328 $329 $130 #
cone-surface $-1 37.329766945133116 19.614738416876978 2.0801916692532476 -0.75470958851134928 0 -0.65605901945558964 0.16401475486389741 0 -0.18867739712783732 1 I I -0.70710678118654746 0.70710678118654746 0.25 forward I I I I #
loop $-1 $-1 $330 $83 #
coedge $-1 $208 $208 $331 $332 reversed $131 $-1 #
face $-1 $-1 $333 $67 $-1 $334 forward single #
loop $-1 $335 $336 $133 #
cone-surface $-1 37.329766945133116 22.428200877743951 2.0801916692532476 -0.75470958851134928 0 -0.65605901945558964 0.16401475486389741 0 -0.18867739712783732 1 I I -0.70710678118654746 0.70710678118654746 0.25 forward I I I I #
loop $-1 $-1 $337 $84 #
coedge $-1 $213 $213 $338 $339 reversed $134 $-1 #
face $-1 $340 $341 $51 $-1 $342 reversed single #
loop $-1 $-1 $343 $136 #
plane-surface $-1 0 -27.834751783365494 0 0 1 0 0 0 1 forward_v I I I I #
coedge $-1 $344 $345 $346 $347 forward $137 $-1 #
coedge $-1 $348 $139 $349 $350 forward $86 $-1 #
coedge $-1 $139 $348 $351 $352 forward $86 $-1 #
coedge $-1 $353 $354 $139 $221 reversed $355 $-1 #
edge $-1 $356 -27.834751783365494 $357 27.834751783365494 $220 $358 forward 7 unknown #
face $-1 $359 $360 $52 $-1 $361 reversed single #
loop $-1 $-1 $362 $140 #
plane-surface $-1 -41.037629322183903 0 0 1 0 0 0 0 -1 forward_v I I I I #
coedge $-1 $363 $364 $365 $366 reversed $141 $-1 #
coedge $-1 $367 $143 $368 $369 reversed $89 $-1 #
coedge $-1 $143 $367 $370 $371 forward $89 $-1 #
coedge $-1 $372 $373 $143 $229 forward $374 $-1 #
edge $-1 $375 -15.378550067296247 $376 -9.5338533648422459 $228 $377 forward 7 unknown #
face $-1 $378 $379 $53 $-1 $380 reversed single #
loop $-1 $-1 $236 $144 #
plane-surface $-1 0 0 5.9275525519317025 0 0 1 1 0 0 forward_v I I I I #
coedge $-1 $381 $382 $383 $384 reversed $145 $-1 #
coedge $-1 $385 $147 $386 $387 reversed $92 $-1 #
coedge $-1 $147 $385 $381 $388 forward $92 $-1 #
coedge $-1 $383 $389 $147 $237 forward $231 $-1 #
edge $-1 $390 -14.253209325764411 $391 -1.220482184529752 $236 $392 forward 7 unknown #
loop $-1 $-1 $243 $148 #
plane-surface $-1 -41.037629322183918 -15.473691510294163 0.53749675443040701 -0.71933980857756763 0 0.69465836192734942 0.69465836192734942 0 0.71933980857756763 forward_v I I I I #
loop $-1 $-1 $393 $94 #
coedge $-1 $241 $241 $242 $394 reversed $149 $-1 #
coedge $-1 $242 $242 $241 $394 forward $151 $-1 #
coedge $-1 $243 $243 $152 $244 forward $238 $-1 #
edge $-1 $395 0 $395 6.2831853071796004 $243 $396 forward 7 unknown #
loop $-1 $-1 $250 $153 #
plane-surface $-1 -41.037629322183918 -15.473691510294163 0.53749675443040701 -0.71933980857756763 0 0.69465836192734942 0.69465836192734942 0 0.71933980857756763 forward_v I I I I #
loop $-1 $-1 $397 $97 #
coedge $-1 $248 $248 $249 $398 reversed $154 $-1 #
coedge $-1 $249 $249 $248 $398 forward $156 $-1 #
coedge $-1 $250 $250 $157 $251 forward $245 $-1 #
edge $-1 $399 0 $399 6.2831853071796004 $250 $400 forward 7 unknown #
face $-1 $401 $402 $56 $-1 $403 reversed single #
loop $-1 $-1 $404 $158 #
plane-surface $-1 49.134400292849435 -18.459145815867938 116.60777306444793 0 1 0 0.75470958851134928 0 0.65605901945558964 forward_v I I I I #
coedge $-1 $405 $406 $407 $408 reversed $159 $-1 #
coedge $-1 $257 $161 $409 $410 reversed $101 $-1 #
coedge $-1 $161 $256 $405 $411 reversed $101 $-1 #
coedge $-1 $407 $412 $161 $259 forward $413 $-1 #
edge $-1 $414 -16.470429175759186 $415 -12.02926257965472 $258 $416 forward 7 unknown #
loop $-1 $-1 $265 $162 #
plane-surface $-1 -12.808584385603957 -15.176772944856468 62.761559356660072 0.75470958851134928 0 0.65605901945558964 0.65605901945558964 0 -0.75470958851134928 forward_v I I I I #
loop $-1 $-1 $417 $103 #
coedge $-1 $263 $263 $264 $418 reversed $163 $-1 #
coedge $-1 $264 $264 $263 $418 forward $165 $-1 #
coedge $-1 $265 $265 $166 $266 forward $260 $-1 #
edge $-1 $419 0 $419 6.2831853071796004 $265 $420 forward 7 unknown #
loop $-1 $-1 $272 $167 #
plane-surface $-1 -12.808584385603957 -15.176772944856468 62.761559356660072 0.75470958851134928 0 0.65605901945558964 0.65605901945558964 0 -0.75470958851134928 forward_v I I I I #
loop $-1 $-1 $421 $106 #
coedge $-1 $270 $270 $271 $422 reversed $168 $-1 #
coedge $-1 $271 $271 $270 $422 forward $170 $-1 #
coedge $-1 $272 $272 $171 $273 forward $267 $-1 #
edge $-1 $423 0 $423 6.2831853071796004 $272 $424 forward 7 unknown #
face $-1 $425 $426 $59 $-1 $427 reversed single #
loop $-1 $-1 $428 $172 #
plane-surface $-1 49.134400292849435 -6.3930649518122937 116.60777306444793 0 1 0 0.75470958851134928 0 0.65605901945558964 forward_v I I I I #
coedge $-1 $429 $430 $431 $432 reversed $173 $-1 #
coedge $-1 $279 $175 $433 $434 reversed $110 $-1 #
coedge $-1 $175 $278 $429 $435 reversed $110 $-1 #
coedge $-1 $431 $436 $175 $281 forward $437 $-1 #
edge $-1 $438 -16.470429175759186 $439 -12.02926257965472 $280 $440 forward 7 unknown #
loop $-1 $-1 $287 $176 #
plane-surface $-1 -12.808584385603957 -3.110692080800824 62.761559356660072 0.75470958851134928 0 0.65605901945558964 0.65605901945558964 0 -0.75470958851134928 forward_v I I I I #
loop $-1 $-1 $441 $112 #
coedge $-1 $285 $285 $286 $442 reversed $177 $-1 #
coedge $-1 $286 $286 $285 $442 forward $179 $-1 #
coedge $-1 $287 $287 $180 $288 forward $282 $-1 #
edge $-1 $443 0 $443 6.2831853071796004 $287 $444 forward 7 unknown #
loop $-1 $-1 $294 $181 #
plane-surface $-1 -12.808584385603957 -3.110692080800824 62.761559356660072 0.75470958851134928 0 0.65605901945558964 0.65605901945558964 0 -0.75470958851134928 forward_v I I I I #
loop $-1 $-1 $445 $115 #
coedge $-1 $292 $292 $293 $446 reversed $182 $-1 #
coedge $-1 $293 $293 $292 $446 forward $184 $-1 #
coedge $-1 $294 $294 $185 $295 forward $289 $-1 #
edge $-1 $447 0 $447 6.2831853071796004 $294 $448 forward 7 unknown #
face $-1 $449 $450 $62 $-1 $451 reversed single #
loop $-1 $-1 $452 $186 #
plane-surface $-1 49.134400292849435 5.6730159122433523 116.60777306444793 0 1 0 0.75470958851134928 0 0.65605901945558964 forward_v I I I I #
coedge $-1 $453 $454 $455 $456 reversed $187 $-1 #
coedge $-1 $301 $189 $457 $458 reversed $119 $-1 #
coedge $-1 $189 $300 $453 $459 reversed $119 $-1 #
coedge $-1 $455 $460 $189 $303 forward $461 $-1 #
edge $-1 $462 -16.470429175759186 $463 -12.02926257965472 $302 $464 forward 7 unknown #
loop $-1 $-1 $309 $190 #
plane-surface $-1 -12.808584385603957 8.955388783254822 62.761559356660072 0.75470958851134928 0 0.65605901945558964 0.65605901945558964 0 -0.75470958851134928 forward_v I I I I #
loop $-1 $-1 $465 $121 #
coedge $-1 $307 $307 $308 $466 reversed $191 $-1 #
coedge $-1 $308 $308 $307 $466 forward $193 $-1 #
coedge $-1 $309 $309 $194 $310 forward $304 $-1 #
edge $-1 $467 0 $467 6.2831853071796004 $309 $468 forward 7 unknown #
loop $-1 $-1 $316 $195 #
plane-surface $-1 -12.808584385603957 8.955388783254822 62.761559356660072 0.75470958851134928 0 0.65605901945558964 0.65605901945558964 0 -0.75470958851134928 forward_v I I I I #
loop $-1 $-1 $469 $124 #
coedge $-1 $314 $314 $315 $470 reversed $196 $-1 #
coedge $-1 $315 $315 $314 $470 forward $198 $-1 #
coedge $-1 $316 $316 $199 $317 forward $311 $-1 #
edge $-1 $471 0 $471 6.2831853071796004 $316 $472 forward 7 unknown #
face $-1 $473 $474 $65 $-1 $475 reversed single #
loop $-1 $-1 $476 $200 #
plane-surface $-1 49.134400292849435 17.739096776298993 116.60777306444793 0 1 0 0.75470958851134928 0 0.65605901945558964 forward_v I I I I #
coedge $-1 $477 $478 $479 $480 reversed $201 $-1 #
coedge $-1 $323 $203 $481 $482 reversed $128 $-1 #
coedge $-1 $203 $322 $477 $483 reversed $128 $-1 #
coedge $-1 $479 $484 $203 $325 forward $485 $-1 #
edge $-1 $486 -16.470429175759186 $487 -12.02926257965472 $324 $488 forward 7 unknown #
loop $-1 $-1 $331 $204 #
plane-surface $-1 -12.808584385603957 21.021469647310465 62.761559356660072 0.75470958851134928 0 0.65605901945558964 0.65605901945558964 0 -0.75470958851134928 forward_v I I I I #
loop $-1 $-1 $489 $130 #
coedge $-1 $329 $329 $330 $490 reversed $205 $-1 #
coedge $-1 $330 $330 $329 $490 forward $207 $-1 #
coedge $-1 $331 $331 $208 $332 forward $326 $-1 #
edge $-1 $491 0 $491 6.2831853071796004 $331 $492 forward 7 unknown #
loop $-1 $-1 $338 $209 #
plane-surface $-1 -12.808584385603957 21.021469647310465 62.761559356660072 0.75470958851134928 0 0.65605901945558964 0.65605901945558964 0 -0.75470958851134928 forward_v I I I I #
loop $-1 $-1 $493 $133 #
coedge $-1 $336 $336 $337 $494 reversed $210 $-1 #
coedge $-1 $337 $337 $336 $494 forward $212 $-1 #
coedge $-1 $338 $338 $213 $339 forward $333 $-1 #
edge $-1 $495 0 $495 6.2831853071796004 $338 $496 forward 7 unknown #
face $-1 $497 $498 $51 $-1 $499 reversed single #
loop $-1 $-1 $500 $214 #
plane-surface $-1 -41.037629322183903 0 0 1 0 0 0 0 -1 forward_v I I I I #
coedge $-1 $501 $351 $502 $503 forward $215 $-1 #
coedge $-1 $504 $217 $501 $505 forward $137 $-1 #
coedge $-1 $217 $504 $506 $507 forward $137 $-1 #
coedge $-1 $354 $353 $217 $347 reversed $355 $-1 #
edge $-1 $508 -27.834751783365494 $509 27.834751783365494 $346 $510 forward 7 unknown #
coedge $-1 $219 $218 $511 $512 forward $86 $-1 #
coedge $-1 $513 $514 $218 $350 reversed $498 $-1 #
edge $-1 $357 -41.037629322183903 $515 41.037629322183903 $349 $516 forward 7 unknown #
coedge $-1 $343 $517 $219 $352 reversed $215 $-1 #
edge $-1 $518 -41.037629322183903 $356 41.037629322183903 $351 $519 forward 7 unknown #
coedge $-1 $346 $220 $517 $520 forward $355 $-1 #
coedge $-1 $220 $346 $513 $521 reversed $355 $-1 #
loop $-1 $-1 $353 $497 #
vertex $-1 $221 $522 #
vertex $-1 $221 $523 #
straight-curve $-1 41.037629322183903 0 5.9275525519317025 0 1 0 I I #
face $-1 $524 $525 $52 $-1 $526 forward single #
loop $-1 $-1 $368 $222 #
plane-surface $-1 0 -27.834751783365494 0 0 1 0 0 0 1 forward_v I I I I #
coedge $-1 $527 $528 $364 $529 forward $223 $-1 #
coedge $-1 $370 $225 $372 $530 reversed $141 $-1 #
coedge $-1 $225 $370 $362 $529 reversed $141 $-1 #
coedge $-1 $531 $532 $225 $366 forward $525 $-1 #
edge $-1 $533 -41.037629322183903 $534 41.037629322183903 $365 $535 forward 7 unknown #
coedge $-1 $227 $226 $527 $536 reversed $89 $-1 #
coedge $-1 $537 $538 $226 $369 forward $360 $-1 #
edge $-1 $539 -41.037629322183903 $375 41.037629322183903 $368 $540 forward 7 unknown #
coedge $-1 $364 $363 $227 $371 reversed $141 $-1 #
edge $-1 $541 -41.037629322183903 $376 41.037629322183903 $370 $542 forward 7 unknown #
coedge $-1 $543 $228 $363 $530 forward $374 $-1 #
coedge $-1 $228 $543 $537 $544 forward $374 $-1 #
loop $-1 $-1 $372 $524 #
vertex $-1 $369 $545 #
vertex $-1 $229 $546 #
straight-curve $-1 41.037629322183903 -12.456201716069247 2.9275525519317025 0 1 0 I I #
face $-1 $-1 $547 $53 $-1 $548 forward single #
loop $-1 $-1 $549 $230 #
plane-surface $-1 -41.037629322183903 0 0 1 0 0 0 0 -1 forward_v I I I I #
coedge $-1 $382 $233 $235 $388 reversed $145 $-1 #
coedge $-1 $233 $381 $549 $550 reversed $145 $-1 #
coedge $-1 $551 $236 $233 $384 forward $231 $-1 #
edge $-1 $391 -14.206302015691136 $552 -9.0011857600050007 $383 $553 forward 7 unknown #
coedge $-1 $235 $234 $554 $555 reversed $92 $-1 #
coedge $-1 $556 $557 $234 $387 forward $547 $-1 #
edge $-1 $558 -15.652702177530321 $390 -8.159642940116985 $386 $559 forward 7 unknown #
edge $-1 $560 2.0493436377612941e-014 $391 7.49305923741335 $381 $561 forward 7 unknown #
coedge $-1 $236 $551 $556 $562 forward $231 $-1 #
vertex $-1 $387 $563 #
vertex $-1 $237 $564 #
straight-curve $-1 -35.832513066497761 -7.7368457551470815 5.9275525519317034 0 1 0 I I #
coedge $-1 $393 $393 $-1 $565 reversed $240 $-1 #
edge $-1 $566 0 $566 6.2831853071796004 $241 $567 forward 7 unknown #
vertex $-1 $244 $568 #
ellipse-curve $-1 -38.435071194340836 -18.266418754844445 3.232524653181061 -0.71933980857756763 0 0.69465836192734942 1.0419875428910241 0 1.0790097128663514 1 I I #
coedge $-1 $397 $397 $-1 $569 reversed $247 $-1 #
edge $-1 $570 0 $570 6.2831853071796004 $248 $571 forward 7 unknown #
vertex $-1 $251 $572 #
ellipse-curve $-1 -38.435071194340836 -12.680964265743876 3.232524653181061 -0.71933980857756763 0 0.69465836192734942 1.0419875428910241 0 1.0790097128663514 1 I I #
face $-1 $-1 $413 $56 $-1 $573 forward single #
loop $-1 $-1 $574 $252 #
plane-surface $-1 41.037629322183903 0 0 -1 0 0 0 0 1 forward_v I I I I #
coedge $-1 $575 $576 $577 $578 reversed $253 $-1 #
coedge $-1 $579 $255 $257 $411 forward $159 $-1 #
coedge $-1 $255 $579 $575 $580 forward $159 $-1 #
coedge $-1 $577 $258 $255 $408 forward $413 $-1 #
edge $-1 $415 4.3060136014167645 $581 10.870759343439705 $407 $582 forward 7 unknown #
coedge $-1 $583 $584 $256 $410 forward $402 $-1 #
edge $-1 $585 -57.48531185401729 $414 -52.376333980292259 $409 $586 forward 7 unknown #
edge $-1 $415 75.305796653296014 $585 82.07525864436785 $257 $587 forward 7 unknown #
coedge $-1 $258 $577 $583 $588 forward $413 $-1 #
loop $-1 $-1 $577 $401 #
vertex $-1 $410 $589 #
vertex $-1 $259 $590 #
straight-curve $-1 24.567200146424717 -11.894400073844999 5.9275525519317043 -1 0 0 I I #
coedge $-1 $417 $417 $-1 $591 reversed $262 $-1 #
edge $-1 $592 0 $592 6.2831853071796004 $263 $593 forward 7 unknown #
vertex $-1 $266 $594 #
ellipse-curve $-1 38.817046024131677 -16.583504175289953 3.3730636150691766 0.75470958851134928 0 0.65605901945558964 0.32802950972779482 0 -0.37735479425567464 1 I I #
coedge $-1 $421 $421 $-1 $595 reversed $269 $-1 #
edge $-1 $596 0 $596 6.2831853071796004 $270 $597 forward 7 unknown #
vertex $-1 $273 $598 #
ellipse-curve $-1 38.817046024131677 -13.77004171442298 3.3730636150691766 0.75470958851134928 0 0.65605901945558964 0.32802950972779482 0 -0.37735479425567464 1 I I #
face $-1 $-1 $437 $59 $-1 $599 forward single #
loop $-1 $-1 $600 $274 #
plane-surface $-1 41.037629322183903 0 0 -1 0 0 0 0 1 forward_v I I I I #
coedge $-1 $601 $602 $603 $604 reversed $275 $-1 #
coedge $-1 $605 $277 $279 $435 forward $173 $-1 #
coedge $-1 $277 $605 $601 $606 forward $173 $-1 #
coedge $-1 $603 $280 $277 $432 forward $437 $-1 #
edge $-1 $439 -1.7270268306110577 $607 4.8377189114118817 $431 $608 forward 7 unknown #
coedge $-1 $609 $610 $278 $434 forward $426 $-1 #
edge $-1 $611 -57.48531185401729 $438 -52.376333980292259 $433 $612 forward 7 unknown #
edge $-1 $439 75.305796653296014 $611 82.07525864436785 $279 $613 forward 7 unknown #
coedge $-1 $280 $603 $609 $614 forward $437 $-1 #
loop $-1 $-1 $603 $425 #
vertex $-1 $434 $615 #
vertex $-1 $281 $616 #
straight-curve $-1 24.567200146424717 0.17168079021064564 5.9275525519317043 -1 0 0 I I #
coedge $-1 $441 $441 $-1 $617 reversed $284 $-1 #
edge $-1 $618 0 $618 6.2831853071796004 $285 $619 forward 7 unknown #
vertex $-1 $288 $620 #
ellipse-curve $-1 38.817046024131677 -4.5174233112343103 3.3730636150691766 0.75470958851134928 0 0.65605901945558964 0.32802950972779482 0 -0.37735479425567464 1 I I #
coedge $-1 $445 $445 $-1 $621 reversed $291 $-1 #
edge $-1 $622 0 $622 6.2831853071796004 $292 $623 forward 7 unknown #
vertex $-1 $295 $624 #
ellipse-curve $-1 38.817046024131677 -1.7039608503673342 3.3730636150691766 0.75470958851134928 0 0.65605901945558964 0.32802950972779482 0 -0.37735479425567464 1 I I #
face $-1 $-1 $461 $62 $-1 $625 forward single #
loop $-1 $-1 $626 $296 #
plane-surface $-1 41.037629322183903 0 0 -1 0 0 0 0 1 forward_v I I I I #
coedge $-1 $627 $628 $629 $630 reversed $297 $-1 #
coedge $-1 $631 $299 $301 $459 forward $187 $-1 #
coedge $-1 $299 $631 $627 $632 forward $187 $-1 #
coedge $-1 $629 $302 $299 $456 forward $461 $-1 #
edge $-1 $463 -7.7600672626388807 $633 -1.1953215206159413 $455 $634 forward 7 unknown #
coedge $-1 $635 $636 $300 $458 forward $450 $-1 #
edge $-1 $637 -57.48531185401729 $462 -52.376333980292259 $457 $638 forward 7 unknown #
edge $-1 $463 75.305796653296014 $637 82.07525864436785 $301 $639 forward 7 unknown #
coedge $-1 $302 $629 $635 $640 forward $461 $-1 #
loop $-1 $-1 $629 $449 #
vertex $-1 $458 $641 #
vertex $-1 $303 $642 #
straight-curve $-1 24.567200146424717 12.237761654266292 5.9275525519317043 -1 0 0 I I #
coedge $-1 $465 $465 $-1 $643 reversed $306 $-1 #
edge $-1 $644 0 $644 6.2831853071796004 $307 $645 forward 7 unknown #
vertex $-1 $310 $646 #
ellipse-curve $-1 38.817046024131677 7.5486575528213358 3.3730636150691766 0.75470958851134928 0 0.65605901945558964 0.32802950972779482 0 -0.37735479425567464 1 I I #
coedge $-1 $469 $469 $-1 $647 reversed $313 $-1 #
edge $-1 $648 0 $648 6.2831853071796004 $314 $649 forward 7 unknown #
vertex $-1 $317 $650 #
ellipse-curve $-1 38.817046024131677 10.362120013688308 3.3730636150691766 0.75470958851134928 0 0.65605901945558964 0.32802950972779482 0 -0.37735479425567464 1 I I #
face $-1 $-1 $485 $65 $-1 $651 forward single #
loop $-1 $-1 $652 $318 #
plane-surface $-1 41.037629322183903 0 0 -1 0 0 0 0 1 forward_v I I I I #
coedge $-1 $653 $654 $655 $656 reversed $319 $-1 #
coedge $-1 $657 $321 $323 $483 forward $201 $-1 #
coedge $-1 $321 $657 $653 $658 forward $201 $-1 #
coedge $-1 $655 $324 $321 $480 forward $485 $-1 #
edge $-1 $487 -13.793107694666704 $659 -7.2283619526437608 $479 $660 forward 7 unknown #
coedge $-1 $661 $662 $322 $482 forward $474 $-1 #
edge $-1 $663 -57.48531185401729 $486 -52.376333980292259 $481 $664 forward 7 unknown #
edge $-1 $487 75.305796653296014 $663 82.07525864436785 $323 $665 forward 7 unknown #
coedge $-1 $324 $655 $661 $666 forward $485 $-1 #
loop $-1 $-1 $655 $473 #
vertex $-1 $482 $667 #
vertex $-1 $325 $668 #
straight-curve $-1 24.567200146424717 24.303842518321936 5.9275525519317043 -1 0 0 I I #
coedge $-1 $489 $489 $-1 $669 reversed $328 $-1 #
edge $-1 $670 0 $670 6.2831853071796004 $329 $671 forward 7 unknown #
vertex $-1 $332 $672 #
ellipse-curve $-1 38.817046024131677 19.614738416876978 3.3730636150691766 0.75470958851134928 0 0.65605901945558964 0.32802950972779482 0 -0.37735479425567464 1 I I #
coedge $-1 $493 $493 $-1 $673 reversed $335 $-1 #
edge $-1 $674 0 $674 6.2831853071796004 $336 $675 forward 7 unknown #
vertex $-1 $339 $676 #
ellipse-curve $-1 38.817046024131677 22.428200877743951 3.3730636150691766 0.75470958851134928 0 0.65605901945558964 0.32802950972779482 0 -0.37735479425567464 1 I I #
face $-1 $-1 $355 $51 $-1 $677 reversed single #
loop $-1 $-1 $513 $340 #
plane-surface $-1 0 27.834751783365494 0 0 -1 0 0 0 -1 forward_v I I I I #
coedge $-1 $678 $511 $514 $679 forward $341 $-1 #
coedge $-1 $517 $343 $344 $505 reversed $215 $-1 #
coedge $-1 $511 $678 $343 $503 reversed $341 $-1 #
edge $-1 $518 -5.9275525519317025 $680 5.9275525519317025 $502 $681 forward 7 unknown #
coedge $-1 $345 $344 $678 $682 forward $137 $-1 #
edge $-1 $509 -41.037629322183903 $680 41.037629322183903 $501 $683 forward 7 unknown #
coedge $-1 $514 $513 $345 $507 reversed $498 $-1 #
edge $-1 $684 -41.037629322183903 $508 41.037629322183903 $506 $685 forward 7 unknown #
vertex $-1 $347 $686 #
vertex $-1 $520 $687 #
straight-curve $-1 41.037629322183903 0 -5.9275525519317025 0 -1 0 I I #
coedge $-1 $500 $502 $348 $512 reversed $341 $-1 #
edge $-1 $515 -27.834751783365494 $518 27.834751783365494 $511 $688 forward 7 unknown #
coedge $-1 $506 $349 $354 $521 forward $498 $-1 #
coedge $-1 $349 $506 $500 $679 reversed $498 $-1 #
vertex $-1 $350 $689 #
straight-curve $-1 0 27.834751783365494 5.9275525519317025 -1 0 0 I I #
coedge $-1 $351 $501 $353 $520 reversed $215 $-1 #
vertex $-1 $512 $690 #
straight-curve $-1 0 -27.834751783365494 5.9275525519317025 1 0 0 I I #
edge $-1 $356 -5.9275525519317025 $509 5.9275525519317025 $353 $691 forward 7 unknown #
edge $-1 $357 -5.9275525519317025 $508 5.9275525519317025 $354 $692 forward 7 unknown #
point $-1 41.037629322183903 -27.834751783365494 5.9275525519317025 #
point $-1 41.037629322183903 27.834751783365494 5.9275525519317025 #
face $-1 $-1 $374 $52 $-1 $693 reversed single #
loop $-1 $-1 $365 $359 #
plane-surface $-1 0 0 5.9275525519317025 0 0 1 1 0 0 forward_v I I I I #
coedge $-1 $694 $362 $367 $536 forward $223 $-1 #
coedge $-1 $362 $694 $531 $695 reversed $223 $-1 #
edge $-1 $534 -3.7137762759658512 $541 -0.71377627596585125 $362 $696 forward 7 unknown #
edge $-1 $376 0.71377627596585125 $533 3.7137762759658512 $372 $697 forward 7 unknown #
coedge $-1 $698 $365 $528 $695 forward $525 $-1 #
coedge $-1 $365 $698 $543 $699 forward $525 $-1 #
vertex $-1 $530 $700 #
vertex $-1 $695 $701 #
straight-curve $-1 0 -21.990055080911493 5.9275525519317025 -1 0 0 I I #
edge $-1 $541 9.5338533648422459 $539 15.378550067296247 $527 $702 forward 7 unknown #
coedge $-1 $703 $368 $373 $544 reversed $360 $-1 #
coedge $-1 $368 $703 $694 $704 forward $360 $-1 #
vertex $-1 $369 $705 #
straight-curve $-1 0 -27.834751783365494 2.9275525519317025 1 0 0 I I #
vertex $-1 $536 $706 #
straight-curve $-1 0 -21.990055080911493 2.9275525519317025 1 0 0 I I #
coedge $-1 $373 $372 $532 $699 reversed $374 $-1 #
edge $-1 $707 -5.9275525519317025 $375 -2.9275525519317025 $373 $708 forward 7 unknown #
point $-1 41.037629322183903 -27.834751783365494 2.9275525519317025 #
point $-1 41.037629322183903 -21.990055080911493 2.9275525519317025 #
loop $-1 $-1 $386 $378 #
plane-surface $-1 0 -21.990055080911493 4.4275525519317025 0 -1 0 0 0 -1 forward_v I I I I #
coedge $-1 $554 $709 $382 $550 forward $379 $-1 #
edge $-1 $552 22.848328187613532 $560 28.238383985114815 $549 $710 forward 7 unknown #
coedge $-1 $389 $383 $709 $711 forward $231 $-1 #
vertex $-1 $711 $712 #
straight-curve $-1 -50.038815082188904 -8.9573279396768335 5.9275525519317007 -1 0 0 I I #
coedge $-1 $713 $549 $385 $555 forward $379 $-1 #
edge $-1 $560 1.220482184529752 $558 14.253209325764411 $554 $714 forward 7 unknown #
coedge $-1 $557 $386 $389 $562 reversed $547 $-1 #
coedge $-1 $386 $556 $713 $715 reversed $547 $-1 #
vertex $-1 $715 $716 #
straight-curve $-1 -30.164348867804037 -21.990055080911493 11.797108542536758 0.69465836192734942 0 0.71933980857756763 I I #
vertex $-1 $555 $717 #
straight-curve $-1 -41.037629322183918 -8.9573279396768335 0.53749675443040701 0.69465836192734942 0 0.71933980857756763 I I #
edge $-1 $718 -41.037629322183903 $390 -35.832513066497761 $389 $719 forward 7 unknown #
point $-1 -35.832513066497761 -21.990055080911493 5.9275525519317025 #
point $-1 -35.832513066497768 -8.9573279396768335 5.9275525519317025 #
edge $-1 $720 1 $720 0 $393 $-1 forward 7 unknown #
vertex $-1 $394 $721 #
ellipse-curve $-1 -35.402009039643083 -18.266418754844445 0.30353064661763562 -0.71933980857756763 0 0.69465836192734942 1.0419875428910241 0 1.0790097128663514 1 I I #
point $-1 -37.393083651449807 -18.266418754844445 4.3115343660474057 #
edge $-1 $722 1 $722 0 $397 $-1 forward 7 unknown #
vertex $-1 $398 $723 #
ellipse-curve $-1 -35.402009039643083 -12.680964265743876 0.30353064661763562 -0.71933980857756763 0 0.69465836192734942 1.0419875428910241 0 1.0790097128663514 1 I I #
point $-1 -37.393083651449807 -12.680964265743876 4.3115343660474057 #
plane-surface $-1 0 0 5.9275525519317025 0 0 1 1 0 0 forward_v I I I I #
coedge $-1 $584 $583 $576 $724 forward $402 $-1 #
coedge $-1 $576 $404 $406 $580 reversed $253 $-1 #
coedge $-1 $404 $575 $574 $724 reversed $253 $-1 #
coedge $-1 $412 $407 $404 $578 forward $413 $-1 #
edge $-1 $581 12.02926257965472 $725 16.470429175759186 $577 $726 forward 7 unknown #
coedge $-1 $406 $405 $584 $727 reversed $159 $-1 #
edge $-1 $728 -82.07525864436785 $581 -75.305796653296014 $575 $729 forward 7 unknown #
vertex $-1 $408 $730 #
straight-curve $-1 36.596462726079437 -7.5883864724282342 5.9275525519316972 0 -1 0 I I #
coedge $-1 $574 $409 $412 $588 reversed $402 $-1 #
coedge $-1 $409 $574 $579 $727 forward $402 $-1 #
vertex $-1 $410 $731 #
straight-curve $-1 41.037629322183903 -11.894400073844999 58.303886532223963 0 0 1 I I #
straight-curve $-1 -12.808584385603957 -11.894400073844999 62.761559356660072 0.65605901945558964 0 -0.75470958851134928 I I #
edge $-1 $725 -18.459145815867938 $414 -11.894400073844999 $583 $732 forward 7 unknown #
point $-1 41.037629322183903 -11.894400073844999 5.9275525519317025 #
point $-1 36.596462726079437 -11.894400073844999 5.9275525519317043 #
edge $-1 $733 1 $733 0 $417 $-1 forward 7 unknown #
vertex $-1 $418 $734 #
ellipse-curve $-1 37.518444342260956 -16.583504175289953 2.2442064241171451 0.75470958851134928 0 0.65605901945558964 0.32802950972779482 0 -0.37735479425567464 1 I I #
point $-1 39.145075533859483 -16.583504175289953 2.9957088208135132 #
edge $-1 $735 1 $735 0 $421 $-1 forward 7 unknown #
vertex $-1 $422 $736 #
ellipse-curve $-1 37.518444342260956 -13.77004171442298 2.2442064241171451 0.75470958851134928 0 0.65605901945558964 0.32802950972779482 0 -0.37735479425567464 1 I I #
point $-1 39.145075533859483 -13.77004171442298 2.9957088208135132 #
plane-surface $-1 0 0 5.9275525519317025 0 0 1 1 0 0 forward_v I I I I #
coedge $-1 $610 $609 $602 $737 forward $426 $-1 #
coedge $-1 $602 $428 $430 $606 reversed $275 $-1 #
coedge $-1 $428 $601 $600 $737 reversed $275 $-1 #
coedge $-1 $436 $431 $428 $604 forward $437 $-1 #
edge $-1 $607 12.02926257965472 $738 16.470429175759186 $603 $739 forward 7 unknown #
coedge $-1 $430 $429 $610 $740 reversed $173 $-1 #
edge $-1 $741 -82.07525864436785 $607 -75.305796653296014 $601 $742 forward 7 unknown #
vertex $-1 $432 $743 #
straight-curve $-1 36.596462726079437 -1.555346040400412 5.9275525519316972 0 -1 0 I I #
coedge $-1 $600 $433 $436 $614 reversed $426 $-1 #
coedge $-1 $433 $600 $605 $740 forward $426 $-1 #
vertex $-1 $434 $744 #
straight-curve $-1 41.037629322183903 0.17168079021064564 58.303886532223963 0 0 1 I I #
straight-curve $-1 -12.808584385603957 0.17168079021064564 62.761559356660072 0.65605901945558964 0 -0.75470958851134928 I I #
edge $-1 $738 -6.3930649518122937 $438 0.17168079021064564 $609 $745 forward 7 unknown #
point $-1 41.037629322183903 0.17168079021064564 5.9275525519317025 #
point $-1 36.596462726079437 0.17168079021064564 5.9275525519317043 #
edge $-1 $746 1 $746 0 $441 $-1 forward 7 unknown #
vertex $-1 $442 $747 #
ellipse-curve $-1 37.518444342260956 -4.5174233112343103 2.2442064241171451 0.75470958851134928 0 0.65605901945558964 0.32802950972779482 0 -0.37735479425567464 1 I I #
point $-1 39.145075533859483 -4.5174233112343103 2.9957088208135132 #
edge $-1 $748 1 $748 0 $445 $-1 forward 7 unknown #
vertex $-1 $446 $749 #
ellipse-curve $-1 37.518444342260956 -1.7039608503673342 2.2442064241171451 0.75470958851134928 0 0.65605901945558964 0.32802950972779482 0 -0.37735479425567464 1 I I #
point $-1 39.145075533859483 -1.7039608503673342 2.9957088208135132 #
plane-surface $-1 0 0 5.9275525519317025 0 0 1 1 0 0 forward_v I I I I #
coedge $-1 $636 $635 $628 $750 forward $450 $-1 #
coedge $-1 $628 $452 $454 $632 reversed $297 $-1 #
coedge $-1 $452 $627 $626 $750 reversed $297 $-1 #
coedge $-1 $460 $455 $452 $630 forward $461 $-1 #
edge $-1 $633 12.02926257965472 $751 16.470429175759186 $629 $752 forward 7 unknown #
coedge $-1 $454 $453 $636 $753 reversed $187 $-1 #
edge $-1 $754 -82.07525864436785 $633 -75.305796653296014 $627 $755 forward 7 unknown #
vertex $-1 $456 $756 #
straight-curve $-1 36.596462726079437 4.477694391627411 5.9275525519316972 0 -1 0 I I #
coedge $-1 $626 $457 $460 $640 reversed $450 $-1 #
coedge $-1 $457 $626 $631 $753 forward $450 $-1 #
vertex $-1 $458 $757 #
straight-curve $-1 41.037629322183903 12.237761654266292 58.303886532223963 0 0 1 I I #
straight-curve $-1 -12.808584385603957 12.237761654266292 62.761559356660072 0.65605901945558964 0 -0.75470958851134928 I I #
edge $-1 $751 5.6730159122433523 $462 12.237761654266292 $635 $758 forward 7 unknown #
point $-1 41.037629322183903 12.237761654266292 5.9275525519317025 #
point $-1 36.596462726079437 12.237761654266292 5.9275525519317043 #
edge $-1 $759 1 $759 0 $465 $-1 forward 7 unknown #
vertex $-1 $466 $760 #
ellipse-curve $-1 37.518444342260956 7.5486575528213358 2.2442064241171451 0.75470958851134928 0 0.65605901945558964 0.32802950972779482 0 -0.37735479425567464 1 I I #
point $-1 39.145075533859483 7.5486575528213358 2.9957088208135132 #
edge $-1 $761 1 $761 0 $469 $-1 forward 7 unknown #
vertex $-1 $470 $762 #
ellipse-curve $-1 37.518444342260956 10.362120013688308 2.2442064241171451 0.75470958851134928 0 0.65605901945558964 0.32802950972779482 0 -0.37735479425567464 1 I I #
point $-1 39.145075533859483 10.362120013688308 2.9957088208135132 #
plane-surface $-1 0 0 5.9275525519317025 0 0 1 1 0 0 forward_v I I I I #
coedge $-1 $662 $661 $654 $763 forward $474 $-1 #
coedge $-1 $654 $476 $478 $658 reversed $319 $-1 #
coedge $-1 $476 $653 $652 $763 reversed $319 $-1 #
coedge $-1 $484 $479 $476 $656 forward $485 $-1 #
edge $-1 $659 12.02926257965472 $764 16.470429175759186 $655 $765 forward 7 unknown #
coedge $-1 $478 $477 $662 $766 reversed $201 $-1 #
edge $-1 $767 -82.07525864436785 $659 -75.305796653296014 $653 $768 forward 7 unknown #
vertex $-1 $480 $769 #
straight-curve $-1 36.596462726079437 10.510734823655232 5.9275525519316972 0 -1 0 I I #
coedge $-1 $652 $481 $484 $666 reversed $474 $-1 #
coedge $-1 $481 $652 $657 $766 forward $474 $-1 #
vertex $-1 $482 $770 #
straight-curve $-1 41.037629322183903 24.303842518321936 58.303886532223963 0 0 1 I I #
straight-curve $-1 -12.808584385603957 24.303842518321936 62.761559356660072 0.65605901945558964 0 -0.75470958851134928 I I #
edge $-1 $764 17.739096776298993 $486 24.303842518321936 $661 $771 forward 7 unknown #
point $-1 41.037629322183903 24.303842518321936 5.9275525519317025 #
point $-1 36.596462726079437 24.303842518321936 5.9275525519317043 #
edge $-1 $772 1 $772 0 $489 $-1 forward 7 unknown #
vertex $-1 $490 $773 #
ellipse-curve $-1 37.518444342260956 19.614738416876978 2.2442064241171451 0.75470958851134928 0 0.65605901945558964 0.32802950972779482 0 -0.37735479425567464 1 I I #
point $-1 39.145075533859483 19.614738416876978 2.9957088208135132 #
edge $-1 $774 1 $774 0 $493 $-1 forward 7 unknown #
vertex $-1 $494 $775 #
ellipse-curve $-1 37.518444342260956 22.428200877743951 2.2442064241171451 0.75470958851134928 0 0.65605901945558964 0.32802950972779482 0 -0.37735479425567464 1 I I #
point $-1 39.145075533859483 22.428200877743951 2.9957088208135132 #
plane-surface $-1 41.037629322183903 0 0 -1 0 0 0 0 1 forward_v I I I I #
coedge $-1 $502 $500 $504 $682 reversed $341 $-1 #
edge $-1 $515 -5.9275525519317025 $684 5.9275525519317025 $514 $776 forward 7 unknown #
vertex $-1 $682 $777 #
straight-curve $-1 -41.037629322183903 -27.834751783365494 0 0 0 -1 I I #
edge $-1 $680 -27.834751783365494 $684 27.834751783365494 $678 $778 forward 7 unknown #
straight-curve $-1 0 -27.834751783365494 -5.9275525519317025 -1 0 0 I I #
vertex $-1 $507 $779 #
straight-curve $-1 0 27.834751783365494 -5.9275525519317025 1 0 0 I I #
point $-1 41.037629322183903 27.834751783365494 -5.9275525519317025 #
point $-1 41.037629322183903 -27.834751783365494 -5.9275525519317025 #
straight-curve $-1 -41.037629322183903 0 5.9275525519317025 0 -1 0 I I #
point $-1 -41.037629322183903 27.834751783365494 5.9275525519317025 #
point $-1 -41.037629322183903 -27.834751783365494 5.9275525519317025 #
straight-curve $-1 41.037629322183903 -27.834751783365494 0 0 0 -1 I I #
straight-curve $-1 41.037629322183903 27.834751783365494 0 0 0 -1 I I #
plane-surface $-1 41.037629322183903 0 0 -1 0 0 0 0 1 forward_v I I I I #
coedge $-1 $528 $527 $538 $704 reversed $223 $-1 #
edge $-1 $534 21.990055080911493 $780 27.834751783365494 $528 $781 forward 7 unknown #
straight-curve $-1 -41.037629322183903 -21.990055080911493 2.2137762759658512 0 0 -1 I I #
straight-curve $-1 41.037629322183903 -21.990055080911493 2.2137762759658512 0 0 1 I I #
coedge $-1 $532 $531 $703 $782 forward $525 $-1 #
edge $-1 $707 -27.834751783365494 $533 -21.990055080911493 $543 $783 forward 7 unknown #
point $-1 41.037629322183903 -21.990055080911493 5.9275525519317025 #
point $-1 -41.037629322183903 -21.990055080911493 5.9275525519317025 #
straight-curve $-1 -41.037629322183903 -12.456201716069247 2.9275525519317025 0 -1 0 I I #
coedge $-1 $538 $537 $698 $782 reversed $360 $-1 #
edge $-1 $780 -5.9275525519317025 $539 -2.9275525519317025 $694 $784 forward 7 unknown #
point $-1 -41.037629322183903 -27.834751783365494 2.9275525519317025 #
point $-1 -41.037629322183903 -21.990055080911493 2.9275525519317025 #
vertex $-1 $699 $785 #
straight-curve $-1 41.037629322183903 -27.834751783365494 0 0 0 -1 I I #
coedge $-1 $549 $713 $551 $711 reversed $379 $-1 #
straight-curve $-1 -41.037629322183903 -8.9573279396768335 28.775880739545237 0 0 -1 I I #
edge $-1 $552 8.9573279396768335 $718 21.990055080911493 $709 $786 forward 7 unknown #
point $-1 -41.037629322183903 -8.9573279396768335 5.9275525519317025 #
coedge $-1 $709 $554 $557 $715 forward $379 $-1 #
straight-curve $-1 -41.037629322183903 -7.7368457551470815 0.537496754430422 0 -1 0 I I #
edge $-1 $558 -28.238383985114815 $718 -22.848328187613532 $713 $787 forward 7 unknown #
point $-1 -41.037629322183903 -21.990055080911493 0.53749675443042177 #
point $-1 -41.037629322183903 -8.9573279396768335 0.53749675443042177 #
vertex $-1 $715 $788 #
straight-curve $-1 0 -21.990055080911493 5.9275525519317025 1 0 0 I I #
vertex $-1 $565 $789 #
point $-1 -34.360021496752061 -18.266418754844445 1.3825403594839871 #
vertex $-1 $569 $790 #
point $-1 -34.360021496752061 -12.680964265743876 1.3825403594839871 #
edge $-1 $725 52.376333980292259 $728 57.48531185401729 $574 $791 forward 7 unknown #
vertex $-1 $588 $792 #
straight-curve $-1 24.567200146424717 -18.459145815867938 5.9275525519317043 1 0 0 I I #
edge $-1 $728 -10.870759343439705 $585 -4.3060136014167645 $584 $793 forward 7 unknown #
vertex $-1 $727 $794 #
straight-curve $-1 -12.808584385603957 -18.459145815867938 62.761559356660072 -0.65605901945558964 0 0.75470958851134928 I I #
point $-1 36.596462726079437 -18.459145815867938 5.9275525519317043 #
point $-1 41.037629322183903 -11.894400073844999 0.81857467820667296 #
straight-curve $-1 41.037629322183903 0 5.9275525519317025 0 1 0 I I #
vertex $-1 $591 $795 #
point $-1 37.846473851988748 -16.583504175289953 1.8668516298614704 #
vertex $-1 $595 $796 #
point $-1 37.846473851988748 -13.77004171442298 1.8668516298614704 #
edge $-1 $738 52.376333980292259 $741 57.48531185401729 $600 $797 forward 7 unknown #
vertex $-1 $614 $798 #
straight-curve $-1 24.567200146424717 -6.3930649518122937 5.9275525519317043 1 0 0 I I #
edge $-1 $741 -4.8377189114118817 $611 1.7270268306110577 $610 $799 forward 7 unknown #
vertex $-1 $740 $800 #
straight-curve $-1 -12.808584385603957 -6.3930649518122937 62.761559356660072 -0.65605901945558964 0 0.75470958851134928 I I #
point $-1 36.596462726079437 -6.3930649518122937 5.9275525519317043 #
point $-1 41.037629322183903 0.17168079021064564 0.81857467820667296 #
straight-curve $-1 41.037629322183903 0 5.9275525519317025 0 1 0 I I #
vertex $-1 $617 $801 #
point $-1 37.846473851988748 -4.5174233112343103 1.8668516298614704 #
vertex $-1 $621 $802 #
point $-1 37.846473851988748 -1.7039608503673342 1.8668516298614704 #
edge $-1 $751 52.376333980292259 $754 57.48531185401729 $626 $803 forward 7 unknown #
vertex $-1 $640 $804 #
straight-curve $-1 24.567200146424717 5.6730159122433523 5.9275525519317043 1 0 0 I I #
edge $-1 $754 1.1953215206159413 $637 7.7600672626388807 $636 $805 forward 7 unknown #
vertex $-1 $753 $806 #
straight-curve $-1 -12.808584385603957 5.6730159122433523 62.761559356660072 -0.65605901945558964 0 0.75470958851134928 I I #
point $-1 36.596462726079437 5.6730159122433523 5.9275525519317043 #
point $-1 41.037629322183903 12.237761654266292 0.81857467820667296 #
straight-curve $-1 41.037629322183903 0 5.9275525519317025 0 1 0 I I #
vertex $-1 $643 $807 #
point $-1 37.846473851988748 7.5486575528213358 1.8668516298614704 #
vertex $-1 $647 $808 #
point $-1 37.846473851988748 10.362120013688308 1.8668516298614704 #
edge $-1 $764 52.376333980292259 $767 57.48531185401729 $652 $809 forward 7 unknown #
vertex $-1 $666 $810 #
straight-curve $-1 24.567200146424717 17.739096776298993 5.9275525519317043 1 0 0 I I #
edge $-1 $767 7.2283619526437608 $663 13.793107694666704 $662 $811 forward 7 unknown #
vertex $-1 $766 $812 #
straight-curve $-1 -12.808584385603957 17.739096776298993 62.761559356660072 -0.65605901945558964 0 0.75470958851134928 I I #
point $-1 36.596462726079437 17.739096776298993 5.9275525519317043 #
point $-1 41.037629322183903 24.303842518321936 0.81857467820667296 #
straight-curve $-1 41.037629322183903 0 5.9275525519317025 0 1 0 I I #
vertex $-1 $669 $813 #
point $-1 37.846473851988748 19.614738416876978 1.8668516298614704 #
vertex $-1 $673 $814 #
point $-1 37.846473851988748 22.428200877743951 1.8668516298614704 #
straight-curve $-1 -41.037629322183903 27.834751783365494 0 0 0 -1 I I #
point $-1 -41.037629322183903 -27.834751783365494 -5.9275525519317025 #
straight-curve $-1 -41.037629322183903 0 -5.9275525519317025 0 1 0 I I #
point $-1 -41.037629322183903 27.834751783365494 -5.9275525519317025 #
vertex $-1 $695 $815 #
straight-curve $-1 -41.037629322183903 0 5.9275525519317025 0 -1 0 I I #
edge $-1 $780 -41.037629322183903 $707 41.037629322183903 $703 $816 forward 7 unknown #
straight-curve $-1 41.037629322183903 0 5.9275525519317025 0 1 0 I I #
straight-curve $-1 -41.037629322183903 -27.834751783365494 0 0 0 -1 I I #
point $-1 41.037629322183903 -27.834751783365494 5.9275525519317025 #
straight-curve $-1 -41.037629322183903 0 5.9275525519317025 0 -1 0 I I #
straight-curve $-1 -41.037629322183903 -21.990055080911493 28.775880739545237 0 0 1 I I #
point $-1 -41.037629322183903 -21.990055080911493 5.9275525519317025 #
point $-1 -34.322999326776731 -18.266418754844445 -0.73845689627338851 #
point $-1 -34.322999326776731 -12.680964265743876 -0.73845689627338851 #
straight-curve $-1 41.037629322183903 -18.459145815867938 58.303886532223963 0 0 -1 I I #
point $-1 41.037629322183903 -18.459145815867938 5.9275525519317025 #
straight-curve $-1 41.037629322183903 -7.5883864724282342 0.81857467820666585 0 1 0 I I #
point $-1 41.037629322183903 -18.459145815867938 0.81857467820667296 #
point $-1 37.141089548005276 -16.583504175289953 1.9161769143893501 #
point $-1 37.141089548005276 -13.77004171442298 1.9161769143893501 #
straight-curve $-1 41.037629322183903 -6.3930649518122937 58.303886532223963 0 0 -1 I I #
point $-1 41.037629322183903 -6.3930649518122937 5.9275525519317025 #
straight-curve $-1 41.037629322183903 -1.555346040400412 0.81857467820666585 0 1 0 I I #
point $-1 41.037629322183903 -6.3930649518122937 0.81857467820667296 #
point $-1 37.141089548005276 -4.5174233112343103 1.9161769143893501 #
point $-1 37.141089548005276 -1.7039608503673342 1.9161769143893501 #
straight-curve $-1 41.037629322183903 5.6730159122433523 58.303886532223963 0 0 -1 I I #
point $-1 41.037629322183903 5.6730159122433523 5.9275525519317025 #
straight-curve $-1 41.037629322183903 4.477694391627411 0.81857467820666585 0 1 0 I I #
point $-1 41.037629322183903 5.6730159122433523 0.81857467820667296 #
point $-1 37.141089548005276 7.5486575528213358 1.9161769143893501 #
point $-1 37.141089548005276 10.362120013688308 1.9161769143893501 #
straight-curve $-1 41.037629322183903 17.739096776298993 58.303886532223963 0 0 -1 I I #
point $-1 41.037629322183903 17.739096776298993 5.9275525519317025 #
straight-curve $-1 41.037629322183903 10.510734823655232 0.81857467820666585 0 1 0 I I #
point $-1 41.037629322183903 17.739096776298993 0.81857467820667296 #
point $-1 37.141089548005276 19.614738416876978 1.9161769143893501 #
point $-1 37.141089548005276 22.428200877743951 1.9161769143893501 #
point $-1 -41.037629322183903 -27.834751783365494 5.9275525519317025 #
straight-curve $-1 0 -27.834751783365494 5.9275525519317025 1 0 0 I I #
End-of-ACIS-data 