500 0 5 0           
7 Unknown 11 ACIS 5.0 NT 24 Fri Mar 26 15:01:34 1999 
-1 9.9999999999999995e-007 1e-010 
body $-1 $5 $-1 $6 #
body $-1 $7 $-1 $8 #
body $-1 $9 $-1 $10 #
body $-1 $11 $-1 $12 #
body $-1 $13 $-1 $14 #
lump $-1 $-1 $15 $0 #
transform $-1 1 0 0 0 1 0 0 0 1 44.409314249092077 25.682914642441173 7.2838931172278771 1 rotate no_reflect no_shear #
lump $-1 $-1 $16 $1 #
transform $-1 1 0 0 0 1 0 0 0 1 44.409314249092077 25.682914642441173 7.2838931172278771 1 rotate no_reflect no_shear #
lump $-1 $-1 $17 $2 #
transform $-1 1 0 0 0 1 0 0 0 1 44.409314249092077 25.682914642441173 7.2838931172278771 1 rotate no_reflect no_shear #
lump $-1 $-1 $18 $3 #
transform $-1 1 0 0 0 1 0 0 0 1 44.409314249092077 25.682914642441173 7.2838931172278771 1 rotate no_reflect no_shear #
lump $-1 $-1 $19 $4 #
transform $-1 1 0 0 0 1 0 0 0 1 44.409314249092077 25.682914642441173 7.2838931172278771 1 rotate no_reflect no_shear #
shell $-1 $-1 $-1 $20 $-1 $5 #
shell $-1 $-1 $-1 $21 $-1 $7 #
shell $-1 $-1 $-1 $22 $-1 $9 #
shell $-1 $-1 $-1 $23 $-1 $11 #
shell $-1 $-1 $-1 $24 $-1 $13 #
face $-1 $25 $26 $15 $-1 $27 forward single #
face $-1 $28 $29 $16 $-1 $30 forward single #
face $-1 $31 $32 $17 $-1 $33 reversed single #
face $-1 $34 $35 $18 $-1 $36 forward single #
face $-1 $37 $38 $19 $-1 $39 forward single #
face $-1 $40 $41 $15 $-1 $42 reversed single #
loop $-1 $-1 $43 $20 #
plane-surface $-1 0 0 7.2838931172278771 0 0 1 1 0 0 forward_v I I I I #
face $-1 $44 $45 $16 $-1 $46 reversed single #
loop $-1 $-1 $47 $21 #
plane-surface $-1 0 -25.682914642441173 0 0 1 0 0 0 1 forward_v I I I I #
face $-1 $48 $49 $17 $-1 $50 reversed single #
loop $-1 $-1 $51 $22 #
plane-surface $-1 -33.466844038687711 70.593488925234368 94.506310328327544 -1 0 0 0 0.82903758062907751 0.55919289150049634 forward_v I I I I #
face $-1 $52 $53 $18 $-1 $54 forward single #
loop $-1 $55 $56 $23 #
cone-surface $-1 -41.282894188976549 22.455887332729759 3.7368647282948988 0 -0.82903758062907751 -0.55919289150049634 1.5 0 0 1 I I 0 1 1.5 forward I I I I #
face $-1 $57 $58 $19 $-1 $59 forward single #
loop $-1 $60 $61 $24 #
cone-surface $-1 -36.593264098803246 22.455887332729759 3.7368647282948988 0 -0.82903758062907751 -0.55919289150049634 1.5 0 0 1 I I 0 1 1.5 forward I I I I #
face $-1 $62 $63 $15 $-1 $64 reversed single #
loop $-1 $-1 $65 $25 #
plane-surface $-1 0 0 -7.2838931172278771 0 0 1 1 0 0 forward_v I I I I #
coedge $-1 $66 $67 $68 $69 forward $26 $-1 #
face $-1 $70 $71 $16 $-1 $72 forward single #
loop $-1 $-1 $73 $28 #
plane-surface $-1 -44.409314249092077 0 0 1 0 0 0 0 -1 forward_v I I I I #
coedge $-1 $74 $75 $76 $77 forward $29 $-1 #
face $-1 $78 $79 $17 $-1 $80 forward single #
loop $-1 $-1 $81 $31 #
plane-surface $-1 -38.938079143889894 -3.0404919596930569 44.839564639319562 0 0.82903758062907751 0.55919289150049634 1 0 0 forward_v I I I I #
coedge $-1 $82 $83 $84 $85 reversed $32 $-1 #
face $-1 $-1 $86 $18 $-1 $87 forward single #
loop $-1 $88 $89 $34 #
cone-surface $-1 -41.282894188976549 20.30297538440097 2.2847073283632531 0 -0.82903758062907751 -0.55919289150049634 0.75 0 0 1 I I -0.70710678118654757 0.70710678118654757 0.75 forward I I I I #
loop $-1 $-1 $90 $23 #
coedge $-1 $56 $56 $91 $92 reversed $35 $-1 #
face $-1 $-1 $93 $19 $-1 $94 forward single #
loop $-1 $95 $96 $37 #
cone-surface $-1 -36.593264098803246 20.30297538440097 2.2847073283632531 0 -0.82903758062907751 -0.55919289150049634 0.75 0 0 1 I I -0.70710678118654757 0.70710678118654757 0.75 forward I I I I #
loop $-1 $-1 $97 $24 #
coedge $-1 $61 $61 $98 $99 reversed $38 $-1 #
face $-1 $100 $101 $15 $-1 $102 reversed single #
loop $-1 $-1 $103 $40 #
plane-surface $-1 0 -25.682914642441173 0 0 1 0 0 0 1 forward_v I I I I #
coedge $-1 $104 $105 $106 $107 forward $41 $-1 #
coedge $-1 $108 $43 $109 $110 forward $26 $-1 #
coedge $-1 $43 $108 $111 $112 forward $26 $-1 #
coedge $-1 $113 $114 $43 $69 reversed $115 $-1 #
edge $-1 $116 -25.682914642441173 $117 25.682914642441173 $68 $118 forward 7 unknown #
face $-1 $119 $120 $16 $-1 $121 reversed single #
loop $-1 $-1 $122 $44 #
plane-surface $-1 0 -28.719155705714599 0.9522714821998326 0 0 1 1 0 0 forward_v I I I I #
coedge $-1 $123 $124 $75 $125 forward $45 $-1 #
coedge $-1 $126 $47 $127 $128 reversed $29 $-1 #
coedge $-1 $47 $126 $73 $125 reversed $29 $-1 #
coedge $-1 $129 $122 $47 $77 reversed $71 $-1 #
edge $-1 $130 -44.409314249092077 $131 44.409314249092077 $76 $132 forward 7 unknown #
face $-1 $133 $134 $17 $-1 $135 reversed single #
loop $-1 $-1 $136 $48 #
plane-surface $-1 0 0 7.2838931172278771 0 0 1 1 0 0 forward_v I I I I #
coedge $-1 $137 $138 $139 $140 reversed $49 $-1 #
coedge $-1 $83 $51 $141 $142 reversed $32 $-1 #
coedge $-1 $51 $82 $137 $143 reversed $32 $-1 #
coedge $-1 $139 $144 $51 $85 forward $134 $-1 #
edge $-1 $145 39.969262046935896 $146 44.997793362189284 $84 $147 forward 7 unknown #
loop $-1 $-1 $91 $52 #
plane-surface $-1 -38.938079143889894 -3.0404919596930569 44.839564639319562 0 0.82903758062907751 0.55919289150049634 1 0 0 forward_v I I I I #
loop $-1 $-1 $148 $34 #
coedge $-1 $89 $89 $90 $149 reversed $53 $-1 #
coedge $-1 $90 $90 $89 $149 forward $55 $-1 #
coedge $-1 $91 $91 $56 $92 forward $86 $-1 #
edge $-1 $150 4.9088885882343278e-016 $150 6.2831853071796013 $91 $151 forward 7 unknown #
loop $-1 $-1 $98 $57 #
plane-surface $-1 -38.938079143889894 -3.0404919596930569 44.839564639319562 0 0.82903758062907751 0.55919289150049634 1 0 0 forward_v I I I I #
loop $-1 $-1 $152 $37 #
coedge $-1 $96 $96 $97 $153 reversed $58 $-1 #
coedge $-1 $97 $97 $96 $153 forward $60 $-1 #
coedge $-1 $98 $98 $61 $99 forward $93 $-1 #
edge $-1 $154 4.9088885882343278e-016 $154 6.2831853071796013 $98 $155 forward 7 unknown #
face $-1 $156 $157 $15 $-1 $158 reversed single #
loop $-1 $-1 $159 $62 #
plane-surface $-1 -44.409314249092077 0 0 1 0 0 0 0 -1 forward_v I I I I #
coedge $-1 $160 $111 $161 $162 forward $63 $-1 #
coedge $-1 $163 $65 $160 $164 forward $41 $-1 #
coedge $-1 $65 $163 $165 $166 forward $41 $-1 #
coedge $-1 $114 $113 $65 $107 reversed $115 $-1 #
edge $-1 $167 -25.682914642441173 $168 25.682914642441173 $106 $169 forward 7 unknown #
coedge $-1 $67 $66 $170 $171 forward $26 $-1 #
coedge $-1 $172 $173 $66 $110 reversed $157 $-1 #
edge $-1 $117 -44.409314249092077 $174 44.409314249092077 $109 $175 forward 7 unknown #
coedge $-1 $103 $176 $67 $112 reversed $63 $-1 #
edge $-1 $177 -44.409314249092077 $116 44.409314249092077 $111 $178 forward 7 unknown #
coedge $-1 $106 $68 $176 $179 forward $115 $-1 #
coedge $-1 $68 $106 $172 $180 reversed $115 $-1 #
loop $-1 $-1 $113 $156 #
vertex $-1 $69 $181 #
vertex $-1 $69 $182 #
straight-curve $-1 44.409314249092077 0 7.2838931172278771 0 1 0 I I #
face $-1 $183 $184 $16 $-1 $185 reversed single #
loop $-1 $-1 $186 $70 #
plane-surface $-1 0 -28.719155705714599 -2.0477285178001674 0 0 1 1 0 0 forward_v I I I I #
coedge $-1 $76 $187 $188 $189 forward $71 $-1 #
coedge $-1 $190 $73 $191 $192 reversed $45 $-1 #
coedge $-1 $73 $190 $129 $193 reversed $45 $-1 #
edge $-1 $130 -0.9522714821998326 $194 2.0477285178001674 $73 $195 forward 7 unknown #
coedge $-1 $75 $74 $196 $197 forward $29 $-1 #
coedge $-1 $188 $198 $74 $128 forward $199 $-1 #
edge $-1 $200 -2.0477285178001674 $131 0.9522714821998326 $127 $201 forward 7 unknown #
coedge $-1 $187 $76 $124 $193 forward $71 $-1 #
vertex $-1 $125 $202 #
vertex $-1 $189 $203 #
straight-curve $-1 0 -25.682914642441173 0.9522714821998326 1 0 0 I I #
face $-1 $-1 $204 $17 $-1 $205 reversed single #
loop $-1 $-1 $84 $78 #
plane-surface $-1 0 25.682914642441173 0 0 -1 0 0 0 -1 forward_v I I I I #
coedge $-1 $141 $206 $207 $208 forward $79 $-1 #
coedge $-1 $207 $81 $83 $143 forward $49 $-1 #
coedge $-1 $81 $207 $209 $210 reversed $49 $-1 #
coedge $-1 $211 $84 $81 $140 forward $134 $-1 #
edge $-1 $146 13.997804466742764 $212 24.94027467714713 $139 $213 forward 7 unknown #
coedge $-1 $214 $136 $82 $142 forward $79 $-1 #
edge $-1 $215 -13.005616913884889 $145 -9.6138298201760115 $141 $216 forward 7 unknown #
edge $-1 $146 -51.365829284882345 $215 -45.300324616881994 $83 $217 forward 7 unknown #
coedge $-1 $84 $211 $214 $218 reversed $134 $-1 #
vertex $-1 $218 $219 #
vertex $-1 $85 $220 #
straight-curve $-1 -33.466844038687711 25.682914642441173 47.253155164163772 0 0 -1 I I #
coedge $-1 $148 $148 $-1 $221 reversed $88 $-1 #
edge $-1 $222 0 $222 6.2831853071796004 $89 $223 forward 7 unknown #
vertex $-1 $92 $224 #
ellipse-curve $-1 -41.282894188976549 23.987021095586741 4.769627459601173 0 0.82903758062907751 0.55919289150049634 1.5 0 0 1 I I #
coedge $-1 $152 $152 $-1 $225 reversed $95 $-1 #
edge $-1 $226 0 $226 6.2831853071796004 $96 $227 forward 7 unknown #
vertex $-1 $99 $228 #
ellipse-curve $-1 -36.593264098803246 23.987021095586741 4.769627459601173 0 0.82903758062907751 0.55919289150049634 1.5 0 0 1 I I #
face $-1 $-1 $115 $15 $-1 $229 reversed single #
loop $-1 $-1 $172 $100 #
plane-surface $-1 0 25.682914642441173 0 0 -1 0 0 0 -1 forward_v I I I I #
coedge $-1 $230 $170 $173 $231 forward $101 $-1 #
coedge $-1 $176 $103 $104 $164 reversed $63 $-1 #
coedge $-1 $170 $230 $103 $162 reversed $101 $-1 #
edge $-1 $177 -7.2838931172278771 $232 7.2838931172278771 $161 $233 forward 7 unknown #
coedge $-1 $105 $104 $230 $234 forward $41 $-1 #
edge $-1 $168 -44.409314249092077 $232 44.409314249092077 $160 $235 forward 7 unknown #
coedge $-1 $173 $172 $105 $166 reversed $157 $-1 #
edge $-1 $236 -44.409314249092077 $167 44.409314249092077 $165 $237 forward 7 unknown #
vertex $-1 $107 $238 #
vertex $-1 $179 $239 #
straight-curve $-1 44.409314249092077 0 -7.2838931172278771 0 -1 0 I I #
coedge $-1 $159 $161 $108 $171 reversed $101 $-1 #
edge $-1 $174 -25.682914642441173 $177 25.682914642441173 $170 $240 forward 7 unknown #
coedge $-1 $165 $109 $114 $180 forward $157 $-1 #
coedge $-1 $109 $165 $159 $231 reversed $157 $-1 #
vertex $-1 $110 $241 #
straight-curve $-1 0 25.682914642441173 7.2838931172278771 -1 0 0 I I #
coedge $-1 $111 $160 $113 $179 reversed $63 $-1 #
vertex $-1 $171 $242 #
straight-curve $-1 0 -25.682914642441173 7.2838931172278771 1 0 0 I I #
edge $-1 $116 -7.2838931172278771 $168 7.2838931172278771 $113 $243 forward 7 unknown #
edge $-1 $117 -7.2838931172278771 $167 7.2838931172278771 $114 $244 forward 7 unknown #
point $-1 44.409314249092077 -25.682914642441173 7.2838931172278771 #
point $-1 44.409314249092077 25.682914642441173 7.2838931172278771 #
face $-1 $-1 $199 $16 $-1 $245 reversed single #
loop $-1 $-1 $246 $119 #
plane-surface $-1 0 -31.755396768988028 -0.5477285178001674 0 1 0 0 0 1 forward_v I I I I #
coedge $-1 $247 $196 $198 $248 forward $120 $-1 #
coedge $-1 $122 $129 $249 $250 forward $71 $-1 #
coedge $-1 $251 $127 $122 $189 reversed $199 $-1 #
edge $-1 $252 -3.0362410632734296 $131 3.0362410632734296 $188 $253 forward 7 unknown #
coedge $-1 $124 $123 $246 $254 reversed $45 $-1 #
coedge $-1 $196 $247 $123 $192 forward $120 $-1 #
edge $-1 $255 -3.0362410632734296 $194 3.0362410632734296 $123 $256 forward 7 unknown #
edge $-1 $130 -3.0362410632734296 $257 3.0362410632734296 $124 $258 forward 7 unknown #
vertex $-1 $125 $259 #
straight-curve $-1 -44.409314249092077 -25.682914642441173 0 0 0 -1 I I #
coedge $-1 $186 $191 $126 $197 reversed $120 $-1 #
edge $-1 $200 -44.409314249092077 $194 44.409314249092077 $196 $260 forward 7 unknown #
coedge $-1 $127 $251 $186 $248 reversed $199 $-1 #
loop $-1 $-1 $127 $183 #
vertex $-1 $128 $261 #
straight-curve $-1 44.409314249092077 -25.682914642441173 0 0 0 1 I I #
point $-1 -44.409314249092077 -25.682914642441169 0.9522714821998326 #
point $-1 44.409314249092077 -25.682914642441169 0.9522714821998326 #
loop $-1 $-1 $209 $133 #
plane-surface $-1 -44.409314249092077 0 0 1 0 0 0 0 -1 forward_v I I I I #
coedge $-1 $136 $214 $262 $263 forward $79 $-1 #
coedge $-1 $138 $137 $136 $208 reversed $49 $-1 #
edge $-1 $264 -24.94027467714713 $215 -13.997804466742764 $136 $265 forward 7 unknown #
coedge $-1 $262 $266 $138 $210 forward $204 $-1 #
edge $-1 $212 -31.928876447098645 $264 -25.863371779098294 $209 $267 forward 7 unknown #
coedge $-1 $144 $139 $266 $268 reversed $134 $-1 #
vertex $-1 $140 $269 #
straight-curve $-1 -19.469039571944947 25.682914642441176 2.2553618019744803 -1 0 0 I I #
coedge $-1 $206 $141 $144 $218 forward $79 $-1 #
vertex $-1 $142 $270 #
straight-curve $-1 -33.466844038687711 35.296744462617184 7.2838931172278762 0 1 0 I I #
straight-curve $-1 -33.466844038687711 -3.0404919596930569 44.839564639319562 0 -0.55919289150049634 0.82903758062907751 I I #
edge $-1 $145 33.466844038687711 $271 44.409314249092077 $144 $272 forward 7 unknown #
point $-1 -33.466844038687711 25.682914642441173 7.2838931172278771 #
point $-1 -33.466844038687711 25.682914642441173 2.2553618019744874 #
edge $-1 $273 1 $273 0 $148 $-1 forward 7 unknown #
vertex $-1 $149 $274 #
ellipse-curve $-1 -41.282894188976549 20.924753569872777 2.7041019969886255 0 0.82903758062907751 0.55919289150049634 1.5 0 0 1 I I #
point $-1 -39.782894188976549 23.987021095586741 4.7696274596011721 #
edge $-1 $275 1 $275 0 $152 $-1 forward 7 unknown #
vertex $-1 $153 $276 #
ellipse-curve $-1 -36.593264098803246 20.924753569872777 2.7041019969886255 0 0.82903758062907751 0.55919289150049634 1.5 0 0 1 I I #
point $-1 -35.093264098803246 23.987021095586741 4.7696274596011721 #
plane-surface $-1 44.409314249092077 0 0 -1 0 0 0 0 1 forward_v I I I I #
coedge $-1 $161 $159 $163 $234 reversed $101 $-1 #
edge $-1 $174 -7.2838931172278771 $236 7.2838931172278771 $173 $277 forward 7 unknown #
vertex $-1 $234 $278 #
straight-curve $-1 -44.409314249092077 -25.682914642441173 0 0 0 -1 I I #
edge $-1 $232 -25.682914642441173 $236 25.682914642441173 $230 $279 forward 7 unknown #
straight-curve $-1 0 -25.682914642441173 -7.2838931172278771 -1 0 0 I I #
vertex $-1 $166 $280 #
straight-curve $-1 0 25.682914642441173 -7.2838931172278771 1 0 0 I I #
point $-1 44.409314249092077 25.682914642441173 -7.2838931172278771 #
point $-1 44.409314249092077 -25.682914642441173 -7.2838931172278771 #
straight-curve $-1 -44.409314249092077 0 7.2838931172278771 0 -1 0 I I #
point $-1 -44.409314249092077 25.682914642441173 7.2838931172278771 #
point $-1 -44.409314249092077 -25.682914642441173 7.2838931172278771 #
straight-curve $-1 44.409314249092077 -25.682914642441173 0 0 0 -1 I I #
straight-curve $-1 44.409314249092077 25.682914642441173 0 0 0 -1 I I #
plane-surface $-1 44.409314249092077 0 0 -1 0 0 0 0 1 forward_v I I I I #
coedge $-1 $281 $249 $190 $254 forward $184 $-1 #
coedge $-1 $191 $186 $281 $282 forward $120 $-1 #
edge $-1 $200 -3.0362410632734296 $283 3.0362410632734296 $198 $284 forward 7 unknown #
coedge $-1 $246 $285 $187 $250 reversed $184 $-1 #
edge $-1 $257 -44.409314249092077 $252 44.409314249092077 $249 $286 forward 7 unknown #
coedge $-1 $198 $188 $285 $287 forward $199 $-1 #
vertex $-1 $189 $288 #
straight-curve $-1 44.409314249092077 -28.719155705714599 0.9522714821998326 0 1 0 I I #
edge $-1 $257 -1.5 $255 1.5 $190 $289 forward 7 unknown #
vertex $-1 $192 $290 #
straight-curve $-1 -44.409314249092077 -28.719155705714599 -2.0477285178001674 0 1 0 I I #
vertex $-1 $193 $291 #
straight-curve $-1 -44.409314249092077 -28.719155705714599 0.9522714821998326 0 -1 0 I I #
point $-1 -44.409314249092077 -25.682914642441169 -2.0477285178001674 #
straight-curve $-1 0 -25.682914642441173 -2.0477285178001674 -1 0 0 I I #
point $-1 44.409314249092077 -25.682914642441169 -2.0477285178001674 #
coedge $-1 $266 $209 $206 $263 reversed $204 $-1 #
edge $-1 $271 -25.682914642441173 $264 -22.291127548732295 $262 $292 forward 7 unknown #
vertex $-1 $210 $293 #
straight-curve $-1 -19.469039571944947 22.291127548732298 7.2838931172278762 1 0 0 I I #
coedge $-1 $209 $262 $211 $268 forward $204 $-1 #
straight-curve $-1 -44.409314249092077 7.8285138996259853 28.725600283881882 0 -0.55919289150049634 0.82903758062907751 I I #
edge $-1 $271 -7.2838931172278771 $212 -2.2553618019744848 $211 $294 forward 7 unknown #
point $-1 -44.409314249092077 25.682914642441173 2.2553618019744848 #
point $-1 -33.466844038687711 22.291127548732295 7.2838931172278762 #
vertex $-1 $218 $295 #
straight-curve $-1 0 25.682914642441173 7.2838931172278771 -1 0 0 I I #
vertex $-1 $221 $296 #
point $-1 -39.782894188976549 20.924753569872777 2.7041019969886255 #
vertex $-1 $225 $297 #
point $-1 -35.093264098803246 20.924753569872777 2.7041019969886255 #
straight-curve $-1 -44.409314249092077 25.682914642441173 0 0 0 -1 I I #
point $-1 -44.409314249092077 -25.682914642441173 -7.2838931172278771 #
straight-curve $-1 -44.409314249092077 0 -7.2838931172278771 0 1 0 I I #
point $-1 -44.409314249092077 25.682914642441173 -7.2838931172278771 #
coedge $-1 $285 $246 $247 $282 reversed $184 $-1 #
edge $-1 $283 -44.409314249092077 $255 44.409314249092077 $281 $298 forward 7 unknown #
vertex $-1 $287 $299 #
straight-curve $-1 44.409314249092077 -28.719155705714599 -2.0477285178001674 0 -1 0 I I #
coedge $-1 $249 $281 $251 $287 reversed $184 $-1 #
straight-curve $-1 0 -31.755396768988028 0.9522714821998326 1 0 0 I I #
edge $-1 $252 -1.5 $283 1.5 $251 $300 forward 7 unknown #
point $-1 44.409314249092077 -31.755396768988028 0.9522714821998326 #
straight-curve $-1 -44.409314249092077 -31.755396768988028 -0.5477285178001674 0 0 -1 I I #
point $-1 -44.409314249092077 -31.755396768988028 -2.0477285178001674 #
point $-1 -44.409314249092077 -31.755396768988028 0.9522714821998326 #
straight-curve $-1 -44.409314249092077 0 7.2838931172278771 0 -1 0 I I #
point $-1 -44.409314249092077 22.291127548732295 7.2838931172278762 #
straight-curve $-1 -44.409314249092077 25.682914642441173 0 0 0 -1 I I #
point $-1 -44.409314249092077 25.682914642441173 7.2838931172278771 #
point $-1 -41.282894188976549 19.681197198929162 1.8653126597378809 #
point $-1 -36.593264098803246 19.681197198929162 1.8653126597378809 #
straight-curve $-1 0 -31.755396768988028 -2.0477285178001674 -1 0 0 I I #
point $-1 44.409314249092077 -31.755396768988028 -2.0477285178001674 #
straight-curve $-1 44.409314249092077 -31.755396768988028 -0.5477285178001674 0 0 -1 I I #
End-of-ACIS-data 