500 0 5 0           
7 Unknown 11 ACIS 5.0 NT 24 Fri Mar 26 14:35:40 1999 
-1 9.9999999999999995e-007 1e-010 
body $-1 $5 $-1 $6 #
body $-1 $7 $-1 $8 #
body $-1 $9 $-1 $10 #
body $-1 $11 $-1 $12 #
body $-1 $13 $-1 $14 #
lump $-1 $-1 $15 $0 #
transform $-1 1 0 0 0 1 0 0 0 1 71.370586260567038 39.711555183649956 11.986061609738398 1 rotate no_reflect no_shear #
lump $-1 $-1 $16 $1 #
transform $-1 1 0 0 0 1 0 0 0 1 71.370586260567038 39.711555183649956 11.986061609738398 1 rotate no_reflect no_shear #
lump $-1 $-1 $17 $2 #
transform $-1 1 0 0 0 1 0 0 0 1 71.370586260567038 39.711555183649956 11.986061609738398 1 rotate no_reflect no_shear #
lump $-1 $-1 $18 $3 #
transform $-1 1 0 0 0 1 0 0 0 1 71.370586260567038 39.711555183649956 11.986061609738398 1 rotate no_reflect no_shear #
lump $-1 $-1 $19 $4 #
transform $-1 1 0 0 0 1 0 0 0 1 71.370586260567038 39.711555183649956 11.986061609738398 1 rotate no_reflect no_shear #
shell $-1 $-1 $-1 $20 $-1 $5 #
shell $-1 $-1 $-1 $21 $-1 $7 #
shell $-1 $-1 $-1 $22 $-1 $9 #
shell $-1 $-1 $-1 $23 $-1 $11 #
shell $-1 $-1 $-1 $24 $-1 $13 #
face $-1 $25 $26 $15 $-1 $27 forward single #
face $-1 $28 $29 $16 $-1 $30 forward single #
face $-1 $31 $32 $17 $-1 $33 forward single #
face $-1 $34 $35 $18 $-1 $36 reversed single #
face $-1 $37 $38 $19 $-1 $39 reversed single #
face $-1 $40 $41 $15 $-1 $42 reversed single #
loop $-1 $-1 $43 $20 #
plane-surface $-1 0 0 11.986061609738398 0 0 1 1 0 0 forward_v I I I I #
face $-1 $44 $45 $16 $-1 $46 forward single #
loop $-1 $-1 $47 $21 #
plane-surface $-1 -65.548119157208163 0 7.5275115277517202 0 0 1 1 0 0 forward_v I I I I #
face $-1 $48 $49 $17 $-1 $50 forward single #
loop $-1 $-1 $51 $22 #
plane-surface $-1 -34.661894247631679 105.91170534099192 155.85069118606231 1 0 0 0 -0.79863551827123203 -0.60181501223851219 forward_v I I I I #
face $-1 $52 $53 $18 $-1 $54 reversed single #
loop $-1 $55 $56 $23 #
cone-surface $-1 -23.623516565528504 36.333710539003555 8.2588838258880735 0 -0.79863551827123203 -0.60181501223851219 1 0 0 1 I I 0 1 1 forward I I I I #
face $-1 $57 $58 $19 $-1 $59 reversed single #
loop $-1 $60 $61 $24 #
cone-surface $-1 -7.0659500423737569 36.333710539003555 8.2588838258880735 0 -0.79863551827123203 -0.60181501223851219 1 0 0 1 I I 0 1 1 forward I I I I #
face $-1 $62 $63 $15 $-1 $64 reversed single #
loop $-1 $-1 $65 $25 #
plane-surface $-1 0 0 -11.986061609738398 0 0 1 1 0 0 forward_v I I I I #
coedge $-1 $66 $67 $68 $69 forward $26 $-1 #
face $-1 $70 $71 $16 $-1 $72 forward single #
loop $-1 $-1 $73 $28 #
plane-surface $-1 -59.725652053849288 0 9.7567865687450581 -1 0 0 0 0 1 forward_v I I I I #
coedge $-1 $74 $75 $76 $77 reversed $29 $-1 #
face $-1 $78 $79 $17 $-1 $80 forward single #
loop $-1 $-1 $81 $31 #
plane-surface $-1 -15.344733303951131 -8.0864649540673383 69.946910698316429 0 0.79863551827123203 0.60181501223851219 1 0 0 forward_v I I I I #
coedge $-1 $82 $83 $84 $85 reversed $32 $-1 #
face $-1 $86 $87 $18 $-1 $88 forward single #
loop $-1 $89 $90 $34 #
cone-surface $-1 -23.623516565528504 34.617242535936676 6.9654324470803974 0 -0.79863551827123203 -0.60181501223851219 0.5 0 0 1 I I -0.70710678118654746 0.70710678118654746 0.5 forward I I I I #
loop $-1 $-1 $91 $23 #
coedge $-1 $56 $56 $92 $93 reversed $35 $-1 #
face $-1 $94 $95 $19 $-1 $96 reversed single #
loop $-1 $97 $98 $37 #
cone-surface $-1 -7.0659500423737569 34.617242535936676 6.9654324470803974 0 -0.79863551827123203 -0.60181501223851219 0.5 0 0 1 I I -0.70710678118654746 0.70710678118654746 0.5 forward I I I I #
loop $-1 $-1 $99 $24 #
coedge $-1 $61 $61 $100 $101 reversed $38 $-1 #
face $-1 $102 $103 $15 $-1 $104 reversed single #
loop $-1 $-1 $105 $40 #
plane-surface $-1 0 -39.711555183649956 0 0 1 0 0 0 1 forward_v I I I I #
coedge $-1 $106 $107 $108 $109 forward $41 $-1 #
coedge $-1 $110 $43 $111 $112 forward $26 $-1 #
coedge $-1 $43 $110 $113 $114 forward $26 $-1 #
coedge $-1 $115 $116 $43 $69 reversed $117 $-1 #
edge $-1 $118 -39.711555183649956 $119 39.711555183649956 $68 $120 forward 7 unknown #
face $-1 $121 $122 $16 $-1 $123 reversed single #
loop $-1 $-1 $124 $44 #
plane-surface $-1 0 0 11.986061609738398 0 0 1 1 0 0 forward_v I I I I #
coedge $-1 $125 $76 $126 $127 reversed $45 $-1 #
coedge $-1 $128 $47 $129 $130 reversed $29 $-1 #
coedge $-1 $47 $128 $131 $132 reversed $29 $-1 #
coedge $-1 $73 $133 $47 $77 forward $45 $-1 #
edge $-1 $134 -39.711555183649956 $135 39.711555183649956 $76 $136 forward 7 unknown #
face $-1 $137 $138 $17 $-1 $139 forward single #
loop $-1 $-1 $140 $48 #
plane-surface $-1 3.972427639729414 105.91170534099192 155.85069118606231 -1 0 0 0 0.79863551827123203 0.60181501223851219 forward_v I I I I #
coedge $-1 $141 $142 $143 $144 reversed $49 $-1 #
coedge $-1 $83 $51 $142 $145 forward $32 $-1 #
coedge $-1 $51 $82 $146 $147 reversed $32 $-1 #
coedge $-1 $148 $143 $51 $85 forward $138 $-1 #
edge $-1 $149 -17.365686288276244 $150 -13.244297486846001 $84 $151 forward 7 unknown #
face $-1 $152 $153 $18 $-1 $154 forward single #
loop $-1 $-1 $155 $52 #
plane-surface $-1 -34.661894247631679 105.91170534099192 155.85069118606231 1 0 0 0 -0.79863551827123203 -0.60181501223851219 forward_v I I I I #
loop $-1 $-1 $156 $34 #
coedge $-1 $90 $90 $91 $157 forward $53 $-1 #
coedge $-1 $91 $91 $90 $157 reversed $55 $-1 #
coedge $-1 $92 $92 $56 $93 forward $153 $-1 #
edge $-1 $158 1.4791652359709833e-015 $158 6.2831853071796022 $92 $159 forward 7 unknown #
face $-1 $160 $161 $19 $-1 $162 reversed single #
loop $-1 $163 $164 $57 #
cone-surface $-1 -23.623516565528504 36.333710539003555 8.2588838258880735 0 -0.79863551827123203 -0.60181501223851219 1 0 0 1 I I 0 1 1 forward I I I I #
loop $-1 $-1 $165 $37 #
coedge $-1 $98 $98 $99 $166 forward $58 $-1 #
coedge $-1 $99 $99 $98 $166 reversed $60 $-1 #
coedge $-1 $100 $100 $61 $101 forward $167 $-1 #
edge $-1 $168 1.4791652359709833e-015 $168 6.2831853071796022 $100 $169 forward 7 unknown #
face $-1 $170 $171 $15 $-1 $172 reversed single #
loop $-1 $-1 $173 $62 #
plane-surface $-1 -71.370586260567038 0 0 1 0 0 0 0 -1 forward_v I I I I #
coedge $-1 $174 $113 $175 $176 forward $63 $-1 #
coedge $-1 $177 $65 $174 $178 forward $41 $-1 #
coedge $-1 $65 $177 $179 $180 forward $41 $-1 #
coedge $-1 $116 $115 $65 $109 reversed $117 $-1 #
edge $-1 $181 -39.711555183649956 $182 39.711555183649956 $108 $183 forward 7 unknown #
coedge $-1 $67 $66 $184 $185 forward $26 $-1 #
coedge $-1 $186 $187 $66 $112 reversed $171 $-1 #
edge $-1 $119 -71.370586260567038 $188 71.370586260567038 $111 $189 forward 7 unknown #
coedge $-1 $105 $190 $67 $114 reversed $63 $-1 #
edge $-1 $191 -71.370586260567038 $118 71.370586260567038 $113 $192 forward 7 unknown #
coedge $-1 $108 $68 $190 $193 forward $117 $-1 #
coedge $-1 $68 $108 $186 $194 reversed $117 $-1 #
loop $-1 $-1 $115 $170 #
vertex $-1 $69 $195 #
vertex $-1 $69 $196 #
straight-curve $-1 71.370586260567038 0 11.986061609738398 0 1 0 I I #
face $-1 $197 $198 $16 $-1 $199 reversed single #
loop $-1 $-1 $126 $70 #
plane-surface $-1 0 -39.711555183649956 0 0 1 0 0 0 1 forward_v I I I I #
coedge $-1 $200 $201 $125 $202 forward $71 $-1 #
coedge $-1 $133 $73 $124 $202 reversed $45 $-1 #
coedge $-1 $131 $203 $73 $127 forward $122 $-1 #
edge $-1 $204 -7.107668325365867 $135 -2.6491182433791911 $126 $205 forward 7 unknown #
coedge $-1 $75 $74 $206 $207 reversed $29 $-1 #
coedge $-1 $208 $209 $74 $130 forward $210 $-1 #
edge $-1 $211 -38.596526681962956 $134 -26.951592475245207 $129 $212 forward 7 unknown #
coedge $-1 $213 $126 $75 $132 forward $122 $-1 #
edge $-1 $135 26.951592475245207 $214 38.596526681962956 $131 $215 forward 7 unknown #
coedge $-1 $76 $125 $208 $216 reversed $45 $-1 #
vertex $-1 $130 $217 #
vertex $-1 $132 $218 #
straight-curve $-1 -59.725652053849288 0 7.5275115277517202 0 -1 0 I I #
face $-1 $219 $220 $17 $-1 $221 forward single #
loop $-1 $-1 $222 $78 #
plane-surface $-1 0 0 11.986061609738398 0 0 1 1 0 0 forward_v I I I I #
coedge $-1 $223 $224 $222 $225 reversed $79 $-1 #
coedge $-1 $226 $81 $224 $227 reversed $49 $-1 #
coedge $-1 $81 $226 $82 $145 reversed $49 $-1 #
coedge $-1 $84 $222 $81 $144 forward $138 $-1 #
edge $-1 $228 -11.644794291704979 $149 26.989527595656114 $143 $229 forward 7 unknown #
edge $-1 $149 72.574845173481748 $230 79.423110367299898 $82 $231 forward 7 unknown #
coedge $-1 $232 $233 $83 $147 forward $234 $-1 #
edge $-1 $150 65.939283983292754 $230 71.40855180561654 $146 $235 forward 7 unknown #
coedge $-1 $236 $84 $233 $237 forward $138 $-1 #
vertex $-1 $144 $238 #
vertex $-1 $237 $239 #
straight-curve $-1 -34.661894247631679 52.955852670495958 11.9860616097384 0 1 0 I I #
face $-1 $240 $241 $18 $-1 $242 forward single #
loop $-1 $243 $92 $86 #
plane-surface $-1 -15.344733303951131 -8.0864649540673383 69.946910698316429 0 0.79863551827123203 0.60181501223851219 1 0 0 forward_v I I I I #
coedge $-1 $244 $245 $246 $247 reversed $87 $-1 #
coedge $-1 $156 $156 $-1 $248 forward $89 $-1 #
edge $-1 $249 0 $249 6.2831853071796004 $90 $250 forward 7 unknown #
vertex $-1 $93 $251 #
ellipse-curve $-1 -23.623516565528504 37.650860782934835 9.2514276985765065 0 -0.79863551827123203 -0.60181501223851219 1 0 0 1 I I #
face $-1 $252 $253 $19 $-1 $254 forward single #
loop $-1 $255 $256 $94 #
cone-surface $-1 -23.623516565528504 34.617242535936676 6.9654324470803974 0 -0.79863551827123203 -0.60181501223851219 0.5 0 0 1 I I -0.70710678118654746 0.70710678118654746 0.5 forward I I I I #
loop $-1 $-1 $257 $57 #
coedge $-1 $164 $164 $258 $259 reversed $95 $-1 #
coedge $-1 $165 $165 $-1 $260 forward $97 $-1 #
edge $-1 $261 0 $261 6.2831853071796004 $98 $262 forward 7 unknown #
loop $-1 $263 $100 $252 #
vertex $-1 $101 $264 #
ellipse-curve $-1 -7.0659500423737569 37.650860782934835 9.2514276985765065 0 -0.79863551827123203 -0.60181501223851219 1 0 0 1 I I #
face $-1 $-1 $117 $15 $-1 $265 reversed single #
loop $-1 $-1 $186 $102 #
plane-surface $-1 0 39.711555183649956 0 0 -1 0 0 0 -1 forward_v I I I I #
coedge $-1 $266 $184 $187 $267 forward $103 $-1 #
coedge $-1 $190 $105 $106 $178 reversed $63 $-1 #
coedge $-1 $184 $266 $105 $176 reversed $103 $-1 #
edge $-1 $191 -11.986061609738398 $268 11.986061609738398 $175 $269 forward 7 unknown #
coedge $-1 $107 $106 $266 $270 forward $41 $-1 #
edge $-1 $182 -71.370586260567038 $268 71.370586260567038 $174 $271 forward 7 unknown #
coedge $-1 $187 $186 $107 $180 reversed $171 $-1 #
edge $-1 $272 -71.370586260567038 $181 71.370586260567038 $179 $273 forward 7 unknown #
vertex $-1 $109 $274 #
vertex $-1 $193 $275 #
straight-curve $-1 71.370586260567038 0 -11.986061609738398 0 -1 0 I I #
coedge $-1 $173 $175 $110 $185 reversed $103 $-1 #
edge $-1 $188 -39.711555183649956 $191 39.711555183649956 $184 $276 forward 7 unknown #
coedge $-1 $179 $111 $116 $194 forward $171 $-1 #
coedge $-1 $111 $179 $173 $267 reversed $171 $-1 #
vertex $-1 $112 $277 #
straight-curve $-1 0 39.711555183649956 11.986061609738398 -1 0 0 I I #
coedge $-1 $113 $174 $115 $193 reversed $63 $-1 #
vertex $-1 $185 $278 #
straight-curve $-1 0 -39.711555183649956 11.986061609738398 1 0 0 I I #
edge $-1 $118 -11.986061609738398 $182 11.986061609738398 $115 $279 forward 7 unknown #
edge $-1 $119 -11.986061609738398 $181 11.986061609738398 $116 $280 forward 7 unknown #
point $-1 71.370586260567038 -39.711555183649956 11.986061609738398 #
point $-1 71.370586260567038 39.711555183649956 11.986061609738398 #
face $-1 $281 $282 $16 $-1 $283 reversed single #
loop $-1 $-1 $284 $121 #
plane-surface $-1 0 0 -11.986061609738398 0 0 1 1 0 0 forward_v I I I I #
coedge $-1 $285 $124 $203 $286 forward $71 $-1 #
coedge $-1 $124 $285 $287 $288 forward $71 $-1 #
edge $-1 $289 -39.711555183649956 $204 39.711555183649956 $124 $290 forward 7 unknown #
coedge $-1 $126 $291 $200 $286 reversed $122 $-1 #
vertex $-1 $286 $292 #
straight-curve $-1 -59.725652053849288 -39.711555183649956 4.8783932843725291 0 0 -1 I I #
coedge $-1 $293 $294 $128 $207 forward $282 $-1 #
edge $-1 $214 -39.711555183649956 $211 39.711555183649956 $206 $295 forward 7 unknown #
coedge $-1 $287 $129 $133 $216 forward $210 $-1 #
coedge $-1 $129 $296 $293 $297 reversed $210 $-1 #
loop $-1 $-1 $208 $281 #
vertex $-1 $297 $298 #
straight-curve $-1 -32.774059578604081 39.711555183649956 7.5275115277517202 1 0 0 I I #
coedge $-1 $299 $131 $294 $300 forward $122 $-1 #
vertex $-1 $300 $301 #
straight-curve $-1 -32.774059578604081 -39.711555183649956 7.5275115277517202 -1 0 0 I I #
edge $-1 $134 2.6491182433791911 $289 7.107668325365867 $208 $302 forward 7 unknown #
point $-1 -59.725652053849288 39.711555183649956 7.5275115277517202 #
point $-1 -59.725652053849288 -39.711555183649956 7.5275115277517202 #
face $-1 $303 $304 $17 $-1 $305 forward single #
loop $-1 $-1 $306 $137 #
plane-surface $-1 -65.548119157208163 0 7.5275115277517202 0 0 1 1 0 0 forward_v I I I I #
coedge $-1 $143 $307 $140 $225 forward $138 $-1 #
coedge $-1 $224 $140 $308 $309 reversed $79 $-1 #
coedge $-1 $140 $223 $141 $227 forward $79 $-1 #
edge $-1 $310 13.244297486846001 $228 17.365686288276244 $222 $311 forward 7 unknown #
coedge $-1 $142 $141 $232 $312 reversed $49 $-1 #
edge $-1 $313 -79.423110367299898 $228 -72.574845173481748 $224 $314 forward 7 unknown #
vertex $-1 $144 $315 #
straight-curve $-1 -7.6723666519755653 35.590166382219714 11.986061609738407 -1 0 0 I I #
vertex $-1 $312 $316 #
straight-curve $-1 -34.661894247631679 -8.0864649540673383 69.946910698316429 0 0.60181501223851219 -0.79863551827123203 I I #
coedge $-1 $308 $146 $226 $312 forward $234 $-1 #
coedge $-1 $146 $317 $148 $237 reversed $234 $-1 #
loop $-1 $-1 $308 $318 #
straight-curve $-1 -34.661894247631679 39.711555183649956 77.925345593031153 0 0 -1 I I #
coedge $-1 $319 $148 $320 $321 forward $138 $-1 #
edge $-1 $150 34.661894247631679 $322 59.725652053849288 $233 $323 forward 7 unknown #
point $-1 -34.661894247631679 35.590166382219714 11.9860616097384 #
point $-1 -34.661894247631679 39.711555183649956 11.986061609738398 #
face $-1 $324 $325 $18 $-1 $326 forward single #
loop $-1 $-1 $327 $152 #
plane-surface $-1 3.972427639729414 105.91170534099192 155.85069118606231 -1 0 0 0 0.79863551827123203 0.60181501223851219 forward_v I I I I #
loop $-1 $-1 $328 $86 #
coedge $-1 $245 $155 $329 $330 forward $87 $-1 #
coedge $-1 $155 $244 $331 $332 reversed $87 $-1 #
coedge $-1 $333 $334 $155 $247 forward $325 $-1 #
edge $-1 $335 -17.365686288276244 $336 -13.244297486846001 $246 $337 forward 7 unknown #
edge $-1 $338 1 $338 0 $156 $-1 forward 7 unknown #
vertex $-1 $157 $339 #
ellipse-curve $-1 -23.623516565528504 35.016560295072289 7.2663399531996538 0 0.79863551827123203 0.60181501223851219 1 0 0 1 I I #
point $-1 -22.623516565528504 37.650860782934814 9.2514276985764923 #
face $-1 $340 $167 $19 $-1 $341 forward single #
loop $-1 $-1 $342 $160 #
plane-surface $-1 -34.661894247631679 105.91170534099192 155.85069118606231 1 0 0 0 -0.79863551827123203 -0.60181501223851219 forward_v I I I I #
loop $-1 $-1 $343 $94 #
coedge $-1 $256 $256 $257 $344 forward $161 $-1 #
coedge $-1 $257 $257 $256 $344 reversed $163 $-1 #
coedge $-1 $258 $258 $164 $259 forward $263 $-1 #
edge $-1 $345 1.4791652359709833e-015 $345 6.2831853071796022 $258 $346 forward 7 unknown #
edge $-1 $347 1 $347 0 $165 $-1 forward 7 unknown #
vertex $-1 $166 $348 #
ellipse-curve $-1 -7.0659500423737569 35.016560295072289 7.2663399531996538 0 0.79863551827123203 0.60181501223851219 1 0 0 1 I I #
loop $-1 $349 $258 $252 #
point $-1 -6.0659500423737569 37.650860782934814 9.2514276985764923 #
plane-surface $-1 71.370586260567038 0 0 -1 0 0 0 0 1 forward_v I I I I #
coedge $-1 $175 $173 $177 $270 reversed $103 $-1 #
edge $-1 $188 -11.986061609738398 $272 11.986061609738398 $187 $350 forward 7 unknown #
vertex $-1 $270 $351 #
straight-curve $-1 -71.370586260567038 -39.711555183649956 0 0 0 -1 I I #
edge $-1 $268 -39.711555183649956 $272 39.711555183649956 $266 $352 forward 7 unknown #
straight-curve $-1 0 -39.711555183649956 -11.986061609738398 -1 0 0 I I #
vertex $-1 $180 $353 #
straight-curve $-1 0 39.711555183649956 -11.986061609738398 1 0 0 I I #
point $-1 71.370586260567038 39.711555183649956 -11.986061609738398 #
point $-1 71.370586260567038 -39.711555183649956 -11.986061609738398 #
straight-curve $-1 -71.370586260567038 0 11.986061609738398 0 -1 0 I I #
point $-1 -71.370586260567038 39.711555183649956 11.986061609738398 #
point $-1 -71.370586260567038 -39.711555183649956 11.986061609738398 #
straight-curve $-1 71.370586260567038 -39.711555183649956 0 0 0 -1 I I #
straight-curve $-1 71.370586260567038 39.711555183649956 0 0 0 -1 I I #
face $-1 $354 $210 $16 $-1 $355 reversed single #
loop $-1 $-1 $206 $197 #
plane-surface $-1 -71.370586260567038 0 0 1 0 0 0 0 -1 forward_v I I I I #
coedge $-1 $356 $357 $358 $359 forward $198 $-1 #
coedge $-1 $201 $200 $360 $361 forward $71 $-1 #
edge $-1 $204 -59.725652053849288 $362 71.370586260567038 $203 $363 forward 7 unknown #
coedge $-1 $364 $208 $201 $288 reversed $210 $-1 #
edge $-1 $365 -71.370586260567038 $289 59.725652053849288 $287 $366 forward 7 unknown #
vertex $-1 $202 $367 #
straight-curve $-1 -59.725652053849288 0 11.986061609738398 0 -1 0 I I #
coedge $-1 $203 $299 $368 $369 reversed $122 $-1 #
point $-1 -59.725652053849288 -39.711555183649956 11.986061609738396 #
coedge $-1 $370 $206 $209 $297 forward $282 $-1 #
coedge $-1 $206 $370 $213 $300 reversed $282 $-1 #
straight-curve $-1 -71.370586260567038 0 7.5275115277517202 0 1 0 I I #
coedge $-1 $209 $364 $357 $371 reversed $210 $-1 #
edge $-1 $211 -7.5275115277517202 $372 11.986061609738398 $209 $373 forward 7 unknown #
point $-1 -71.370586260567038 39.711555183649956 7.5275115277517202 #
coedge $-1 $291 $213 $356 $374 reversed $122 $-1 #
edge $-1 $214 -7.5275115277517202 $375 11.986061609738398 $294 $376 forward 7 unknown #
point $-1 -71.370586260567038 -39.711555183649956 7.5275115277517202 #
straight-curve $-1 -59.725652053849288 39.711555183649956 4.8783932843725291 0 0 1 I I #
face $-1 $377 $378 $17 $-1 $379 reversed single #
loop $-1 $-1 $380 $219 #
plane-surface $-1 -59.725652053849288 0 9.7567865687450581 -1 0 0 0 0 1 forward_v I I I I #
coedge $-1 $381 $382 $383 $384 reversed $220 $-1 #
coedge $-1 $222 $385 $386 $387 forward $138 $-1 #
coedge $-1 $386 $232 $223 $309 forward $234 $-1 #
edge $-1 $313 -71.40855180561654 $310 -65.939283983292754 $308 $388 forward 7 unknown #
vertex $-1 $309 $389 #
straight-curve $-1 3.972427639729414 52.955852670495958 11.9860616097384 0 -1 0 I I #
edge $-1 $230 -26.989527595656114 $313 11.644794291704979 $232 $390 forward 7 unknown #
vertex $-1 $312 $391 #
straight-curve $-1 3.972427639729414 -8.0864649540673383 69.946910698316429 0 -0.60181501223851219 0.79863551827123203 I I #
point $-1 3.972427639729414 35.590166382219714 11.9860616097384 #
point $-1 -34.661894247631679 39.711555183649956 6.5167937874146133 #
coedge $-1 $233 $392 $393 $394 forward $234 $-1 #
face $-1 $395 $234 $17 $-1 $396 reversed single #
coedge $-1 $385 $236 $397 $398 forward $138 $-1 #
coedge $-1 $393 $380 $236 $321 reversed $304 $-1 #
edge $-1 $322 -39.711555183649956 $399 39.711555183649956 $236 $400 forward 7 unknown #
vertex $-1 $321 $401 #
straight-curve $-1 0 39.711555183649956 11.986061609738398 -1 0 0 I I #
face $-1 $402 $403 $18 $-1 $404 forward single #
loop $-1 $-1 $405 $240 #
plane-surface $-1 0 0 11.986061609738398 0 0 1 1 0 0 forward_v I I I I #
coedge $-1 $406 $407 $405 $408 reversed $241 $-1 #
coedge $-1 $409 $329 $334 $410 reversed $243 $-1 #
coedge $-1 $328 $411 $244 $330 reversed $243 $-1 #
edge $-1 $335 72.574845173481748 $412 79.423110367299898 $244 $413 forward 7 unknown #
coedge $-1 $414 $415 $245 $332 forward $416 $-1 #
edge $-1 $336 65.939283983292754 $412 71.40855180561654 $331 $417 forward 7 unknown #
coedge $-1 $418 $246 $415 $419 forward $325 $-1 #
coedge $-1 $246 $405 $328 $410 forward $325 $-1 #
vertex $-1 $410 $420 #
vertex $-1 $419 $421 #
straight-curve $-1 -34.661894247631679 52.955852670495958 11.9860616097384 0 1 0 I I #
vertex $-1 $248 $422 #
point $-1 -22.623516565528504 35.016560295072289 7.2663399531996538 #
face $-1 $423 $424 $19 $-1 $425 forward single #
plane-surface $-1 -15.344733303951131 -8.0864649540673383 69.946910698316429 0 0.79863551827123203 0.60181501223851219 1 0 0 forward_v I I I I #
coedge $-1 $426 $427 $428 $429 reversed $253 $-1 #
coedge $-1 $343 $343 $-1 $430 forward $255 $-1 #
edge $-1 $431 0 $431 6.2831853071796004 $256 $432 forward 7 unknown #
vertex $-1 $259 $433 #
ellipse-curve $-1 -23.623516565528504 37.650860782934835 9.2514276985765065 0 -0.79863551827123203 -0.60181501223851219 1 0 0 1 I I #
vertex $-1 $260 $434 #
point $-1 -6.0659500423737569 35.016560295072289 7.2663399531996538 #
loop $-1 $-1 $435 $252 #
straight-curve $-1 -71.370586260567038 39.711555183649956 0 0 0 -1 I I #
point $-1 -71.370586260567038 -39.711555183649956 -11.986061609738398 #
straight-curve $-1 -71.370586260567038 0 -11.986061609738398 0 1 0 I I #
point $-1 -71.370586260567038 39.711555183649956 -11.986061609738398 #
face $-1 $-1 $436 $16 $-1 $437 reversed single #
plane-surface $-1 0 39.711555183649956 0 0 -1 0 0 0 -1 forward_v I I I I #
coedge $-1 $438 $284 $299 $374 forward $198 $-1 #
coedge $-1 $284 $438 $296 $371 forward $198 $-1 #
coedge $-1 $439 $368 $284 $359 reversed $436 $-1 #
edge $-1 $440 -39.711555183649956 $441 39.711555183649956 $358 $442 forward 7 unknown #
coedge $-1 $368 $439 $285 $361 reversed $436 $-1 #
edge $-1 $362 -39.711555183649956 $365 39.711555183649956 $360 $443 forward 7 unknown #
vertex $-1 $361 $444 #
straight-curve $-1 0 -39.711555183649956 11.986061609738398 1 0 0 I I #
coedge $-1 $296 $287 $439 $445 forward $210 $-1 #
vertex $-1 $361 $446 #
straight-curve $-1 0 39.711555183649956 11.986061609738398 -1 0 0 I I #
point $-1 -59.725652053849288 39.711555183649956 11.986061609738396 #
coedge $-1 $358 $360 $291 $369 forward $436 $-1 #
edge $-1 $362 -11.986061609738398 $441 11.986061609738398 $368 $447 forward 7 unknown #
coedge $-1 $294 $293 $438 $448 reversed $282 $-1 #
edge $-1 $372 -71.370586260567038 $440 71.370586260567038 $296 $449 forward 7 unknown #
vertex $-1 $371 $450 #
straight-curve $-1 -71.370586260567038 39.711555183649956 0 0 0 -1 I I #
edge $-1 $441 -71.370586260567038 $375 71.370586260567038 $299 $451 forward 7 unknown #
vertex $-1 $448 $452 #
straight-curve $-1 -71.370586260567038 -39.711555183649956 0 0 0 -1 I I #
face $-1 $453 $454 $17 $-1 $455 reversed single #
loop $-1 $-1 $456 $303 #
plane-surface $-1 0 -39.711555183649956 0 0 1 0 0 0 1 forward_v I I I I #
coedge $-1 $320 $383 $456 $457 reversed $304 $-1 #
coedge $-1 $458 $306 $392 $459 reversed $220 $-1 #
coedge $-1 $306 $458 $460 $461 reversed $220 $-1 #
coedge $-1 $380 $393 $306 $384 forward $304 $-1 #
edge $-1 $462 -39.711555183649956 $463 39.711555183649956 $383 $464 forward 7 unknown #
coedge $-1 $307 $319 $465 $466 forward $138 $-1 #
coedge $-1 $467 $308 $307 $387 reversed $234 $-1 #
edge $-1 $468 -71.370586260567038 $310 -3.972427639729414 $386 $323 forward 7 unknown #
straight-curve $-1 3.972427639729414 39.711555183649956 77.925345593031153 0 0 1 I I #
point $-1 3.972427639729414 39.711555183649956 11.986061609738398 #
straight-curve $-1 -7.6723666519755653 39.711555183649956 6.5167937874146133 1 0 0 I I #
point $-1 3.972427639729414 39.711555183649956 6.5167937874146133 #
coedge $-1 $317 $469 $381 $459 forward $234 $-1 #
coedge $-1 $383 $320 $317 $394 reversed $304 $-1 #
edge $-1 $462 2.6491182433791911 $322 7.107668325365867 $317 $470 forward 7 unknown #
face $-1 $-1 $471 $17 $-1 $472 reversed single #
plane-surface $-1 0 39.711555183649956 0 0 -1 0 0 0 -1 forward_v I I I I #
coedge $-1 $456 $473 $319 $398 reversed $378 $-1 #
edge $-1 $399 -59.725652053849288 $474 71.370586260567038 $397 $475 forward 7 unknown #
vertex $-1 $398 $476 #
straight-curve $-1 -59.725652053849288 0 11.986061609738398 0 -1 0 I I #
point $-1 -59.725652053849288 39.711555183649956 11.986061609738396 #
face $-1 $477 $478 $18 $-1 $479 forward single #
loop $-1 $-1 $480 $324 #
plane-surface $-1 -65.548119157208163 0 7.5275115277517202 0 0 1 1 0 0 forward_v I I I I #
coedge $-1 $334 $481 $327 $408 forward $325 $-1 #
coedge $-1 $407 $327 $482 $483 reversed $241 $-1 #
coedge $-1 $327 $406 $409 $484 forward $241 $-1 #
edge $-1 $485 13.244297486846001 $486 17.365686288276244 $405 $487 forward 7 unknown #
coedge $-1 $411 $328 $407 $484 reversed $243 $-1 #
edge $-1 $486 -11.644794291704979 $335 26.989527595656114 $334 $488 forward 7 unknown #
coedge $-1 $329 $409 $414 $489 reversed $243 $-1 #
vertex $-1 $489 $490 #
straight-curve $-1 -34.661894247631679 -8.0864649540673383 69.946910698316429 0 0.60181501223851219 -0.79863551827123203 I I #
coedge $-1 $482 $331 $411 $489 forward $416 $-1 #
coedge $-1 $331 $491 $333 $419 reversed $416 $-1 #
loop $-1 $-1 $482 $492 #
straight-curve $-1 -34.661894247631679 39.711555183649956 77.925345593031153 0 0 -1 I I #
coedge $-1 $493 $333 $494 $495 forward $325 $-1 #
edge $-1 $336 34.661894247631679 $496 59.725652053849288 $415 $497 forward 7 unknown #
point $-1 -34.661894247631679 35.590166382219714 11.9860616097384 #
point $-1 -34.661894247631679 39.711555183649956 11.986061609738398 #
point $-1 -23.623516565528504 34.217924776801063 6.6645249409611411 #
face $-1 $498 $499 $19 $-1 $500 forward single #
loop $-1 $-1 $501 $340 #
plane-surface $-1 3.972427639729414 105.91170534099192 155.85069118606231 -1 0 0 0 0.79863551827123203 0.60181501223851219 forward_v I I I I #
coedge $-1 $427 $342 $502 $503 forward $253 $-1 #
coedge $-1 $342 $426 $504 $505 reversed $253 $-1 #
coedge $-1 $506 $507 $342 $429 forward $499 $-1 #
edge $-1 $508 -17.365686288276244 $509 -13.244297486846001 $428 $510 forward 7 unknown #
edge $-1 $511 1 $511 0 $343 $-1 forward 7 unknown #
vertex $-1 $344 $512 #
ellipse-curve $-1 -23.623516565528504 35.016560295072289 7.2663399531996538 0 0.79863551827123203 0.60181501223851219 1 0 0 1 I I #
point $-1 -22.623516565528504 37.650860782934814 9.2514276985764923 #
point $-1 -7.0659500423737569 34.217924776801063 6.6645249409611411 #
coedge $-1 $513 $502 $507 $514 reversed $349 $-1 #
loop $-1 $-1 $368 $354 #
plane-surface $-1 71.370586260567038 0 0 -1 0 0 0 0 1 forward_v I I I I #
coedge $-1 $357 $356 $370 $448 forward $198 $-1 #
coedge $-1 $360 $358 $364 $445 reversed $436 $-1 #
vertex $-1 $359 $515 #
vertex $-1 $369 $516 #
straight-curve $-1 71.370586260567038 0 -11.986061609738398 0 -1 0 I I #
straight-curve $-1 71.370586260567038 0 11.986061609738398 0 1 0 I I #
point $-1 71.370586260567038 -39.711555183649956 11.986061609738398 #
edge $-1 $365 -11.986061609738398 $440 11.986061609738398 $439 $517 forward 7 unknown #
point $-1 71.370586260567038 39.711555183649956 11.986061609738398 #
straight-curve $-1 71.370586260567038 -39.711555183649956 0 0 0 -1 I I #
edge $-1 $375 -39.711555183649956 $372 39.711555183649956 $370 $518 forward 7 unknown #
straight-curve $-1 0 39.711555183649956 -11.986061609738398 1 0 0 I I #
point $-1 -71.370586260567038 39.711555183649956 -11.986061609738398 #
straight-curve $-1 0 -39.711555183649956 -11.986061609738398 -1 0 0 I I #
point $-1 -71.370586260567038 -39.711555183649956 -11.986061609738398 #
face $-1 $318 $519 $17 $-1 $520 reversed single #
loop $-1 $-1 $521 $377 #
plane-surface $-1 0 0 -11.986061609738398 0 0 1 1 0 0 forward_v I I I I #
coedge $-1 $460 $397 $380 $457 forward $378 $-1 #
edge $-1 $399 -7.107668325365867 $463 -2.6491182433791911 $456 $522 forward 7 unknown #
coedge $-1 $382 $381 $523 $524 reversed $220 $-1 #
edge $-1 $525 -38.596526681962956 $462 -26.951592475245207 $392 $526 forward 7 unknown #
coedge $-1 $527 $456 $382 $461 forward $378 $-1 #
edge $-1 $463 26.951592475245207 $528 38.596526681962956 $460 $529 forward 7 unknown #
vertex $-1 $459 $530 #
vertex $-1 $461 $531 #
straight-curve $-1 -59.725652053849288 0 7.5275115277517202 0 -1 0 I I #
coedge $-1 $532 $533 $385 $466 reversed $471 $-1 #
edge $-1 $474 -39.711555183649956 $468 39.711555183649956 $465 $534 forward 7 unknown #
coedge $-1 $535 $386 $533 $536 forward $234 $-1 #
vertex $-1 $466 $537 #
coedge $-1 $392 $535 $538 $539 reversed $234 $-1 #
straight-curve $-1 -59.725652053849288 39.711555183649956 4.8783932843725291 0 0 1 I I #
loop $-1 $-1 $532 $395 #
plane-surface $-1 71.370586260567038 0 0 -1 0 0 0 0 1 forward_v I I I I #
coedge $-1 $397 $540 $532 $541 reversed $378 $-1 #
vertex $-1 $466 $542 #
straight-curve $-1 0 -39.711555183649956 11.986061609738398 1 0 0 I I #
point $-1 -59.725652053849288 -39.711555183649956 11.986061609738396 #
face $-1 $543 $544 $18 $-1 $545 reversed single #
loop $-1 $-1 $546 $402 #
plane-surface $-1 -59.725652053849288 0 9.7567865687450581 -1 0 0 0 0 1 forward_v I I I I #
coedge $-1 $547 $548 $549 $550 reversed $403 $-1 #
coedge $-1 $405 $551 $552 $553 forward $325 $-1 #
coedge $-1 $552 $414 $406 $483 forward $416 $-1 #
edge $-1 $554 -71.40855180561654 $485 -65.939283983292754 $482 $555 forward 7 unknown #
edge $-1 $554 -79.423110367299898 $486 -72.574845173481748 $407 $556 forward 7 unknown #
vertex $-1 $483 $557 #
vertex $-1 $410 $558 #
straight-curve $-1 3.972427639729414 52.955852670495958 11.9860616097384 0 -1 0 I I #
straight-curve $-1 -7.6723666519755653 35.590166382219714 11.986061609738407 -1 0 0 I I #
edge $-1 $412 -26.989527595656114 $554 11.644794291704979 $414 $559 forward 7 unknown #
point $-1 -34.661894247631679 39.711555183649956 6.5167937874146133 #
coedge $-1 $415 $560 $561 $562 forward $416 $-1 #
face $-1 $563 $416 $18 $-1 $564 reversed single #
coedge $-1 $551 $418 $565 $566 forward $325 $-1 #
coedge $-1 $561 $546 $418 $495 reversed $478 $-1 #
edge $-1 $496 -39.711555183649956 $567 39.711555183649956 $418 $568 forward 7 unknown #
vertex $-1 $495 $569 #
straight-curve $-1 0 39.711555183649956 11.986061609738398 -1 0 0 I I #
face $-1 $570 $571 $19 $-1 $572 forward single #
loop $-1 $-1 $573 $423 #
plane-surface $-1 0 0 11.986061609738398 0 0 1 1 0 0 forward_v I I I I #
coedge $-1 $574 $575 $573 $576 reversed $424 $-1 #
coedge $-1 $435 $577 $426 $503 reversed $349 $-1 #
edge $-1 $508 72.574845173481748 $578 79.423110367299898 $426 $579 forward 7 unknown #
coedge $-1 $580 $581 $427 $505 forward $582 $-1 #
edge $-1 $509 65.939283983292754 $578 71.40855180561654 $504 $583 forward 7 unknown #
coedge $-1 $584 $428 $581 $585 forward $499 $-1 #
coedge $-1 $428 $573 $435 $514 forward $499 $-1 #
vertex $-1 $514 $586 #
vertex $-1 $585 $587 #
straight-curve $-1 -34.661894247631679 52.955852670495958 11.9860616097384 0 1 0 I I #
vertex $-1 $430 $588 #
point $-1 -22.623516565528504 35.016560295072289 7.2663399531996538 #
coedge $-1 $577 $435 $575 $589 reversed $349 $-1 #
edge $-1 $590 -11.644794291704979 $508 26.989527595656114 $507 $591 forward 7 unknown #
point $-1 71.370586260567038 39.711555183649956 -11.986061609738398 #
point $-1 71.370586260567038 -39.711555183649956 -11.986061609738398 #
straight-curve $-1 71.370586260567038 39.711555183649956 0 0 0 -1 I I #
straight-curve $-1 -71.370586260567038 0 -11.986061609738398 0 1 0 I I #
loop $-1 $-1 $523 $453 #
plane-surface $-1 -71.370586260567038 0 0 1 0 0 0 0 -1 forward_v I I I I #
coedge $-1 $592 $593 $594 $595 forward $454 $-1 #
straight-curve $-1 -59.725652053849288 -39.711555183649956 4.8783932843725291 0 0 -1 I I #
coedge $-1 $538 $596 $458 $524 forward $519 $-1 #
edge $-1 $528 -39.711555183649956 $525 39.711555183649956 $523 $597 forward 7 unknown #
vertex $-1 $539 $598 #
straight-curve $-1 -32.774059578604081 39.711555183649956 7.5275115277517202 1 0 0 I I #
coedge $-1 $540 $460 $596 $599 forward $378 $-1 #
vertex $-1 $599 $600 #
straight-curve $-1 -32.774059578604081 -39.711555183649956 7.5275115277517202 -1 0 0 I I #
point $-1 -59.725652053849288 39.711555183649956 7.5275115277517202 #
point $-1 -59.725652053849288 -39.711555183649956 7.5275115277517202 #
coedge $-1 $594 $465 $473 $541 forward $471 $-1 #
coedge $-1 $465 $594 $467 $536 reversed $471 $-1 #
straight-curve $-1 71.370586260567038 0 11.986061609738398 0 1 0 I I #
coedge $-1 $469 $467 $593 $601 reversed $234 $-1 #
edge $-1 $468 -11.986061609738398 $602 11.986061609738398 $533 $603 forward 7 unknown #
point $-1 71.370586260567038 39.711555183649956 11.986061609738398 #
coedge $-1 $604 $523 $469 $539 forward $519 $-1 #
edge $-1 $525 -7.5275115277517202 $605 11.986061609738398 $469 $606 forward 7 unknown #
coedge $-1 $473 $527 $592 $607 reversed $378 $-1 #
edge $-1 $474 -11.986061609738398 $608 11.986061609738398 $532 $609 forward 7 unknown #
point $-1 71.370586260567038 -39.711555183649956 11.986061609738398 #
face $-1 $610 $611 $18 $-1 $612 reversed single #
loop $-1 $-1 $613 $477 #
plane-surface $-1 0 -39.711555183649956 0 0 1 0 0 0 1 forward_v I I I I #
coedge $-1 $494 $549 $613 $614 reversed $478 $-1 #
coedge $-1 $615 $480 $560 $616 reversed $403 $-1 #
coedge $-1 $480 $615 $617 $618 reversed $403 $-1 #
coedge $-1 $546 $561 $480 $550 forward $478 $-1 #
edge $-1 $619 -39.711555183649956 $620 39.711555183649956 $549 $621 forward 7 unknown #
coedge $-1 $481 $493 $622 $623 forward $325 $-1 #
coedge $-1 $624 $482 $481 $553 reversed $416 $-1 #
edge $-1 $625 -71.370586260567038 $485 -3.972427639729414 $552 $497 forward 7 unknown #
vertex $-1 $489 $626 #
straight-curve $-1 3.972427639729414 39.711555183649956 77.925345593031153 0 0 1 I I #
straight-curve $-1 3.972427639729414 -8.0864649540673383 69.946910698316429 0 -0.60181501223851219 0.79863551827123203 I I #
point $-1 3.972427639729414 39.711555183649956 11.986061609738398 #
point $-1 3.972427639729414 35.590166382219714 11.9860616097384 #
straight-curve $-1 -7.6723666519755653 39.711555183649956 6.5167937874146133 1 0 0 I I #
coedge $-1 $491 $627 $547 $616 forward $416 $-1 #
coedge $-1 $549 $494 $491 $562 reversed $478 $-1 #
edge $-1 $619 2.6491182433791911 $496 7.107668325365867 $491 $628 forward 7 unknown #
face $-1 $-1 $629 $18 $-1 $630 reversed single #
plane-surface $-1 0 39.711555183649956 0 0 -1 0 0 0 -1 forward_v I I I I #
coedge $-1 $613 $631 $493 $566 reversed $544 $-1 #
edge $-1 $567 -59.725652053849288 $632 71.370586260567038 $565 $633 forward 7 unknown #
vertex $-1 $566 $634 #
straight-curve $-1 -59.725652053849288 0 11.986061609738398 0 -1 0 I I #
point $-1 -59.725652053849288 39.711555183649956 11.986061609738396 #
face $-1 $635 $636 $19 $-1 $637 forward single #
loop $-1 $-1 $638 $498 #
plane-surface $-1 -65.548119157208163 0 7.5275115277517202 0 0 1 1 0 0 forward_v I I I I #
coedge $-1 $507 $639 $501 $576 forward $499 $-1 #
coedge $-1 $575 $501 $640 $641 reversed $424 $-1 #
coedge $-1 $501 $574 $513 $589 forward $424 $-1 #
edge $-1 $642 13.244297486846001 $590 17.365686288276244 $573 $643 forward 7 unknown #
coedge $-1 $502 $513 $580 $644 reversed $349 $-1 #
vertex $-1 $644 $645 #
straight-curve $-1 -34.661894247631679 -8.0864649540673383 69.946910698316429 0 0.60181501223851219 -0.79863551827123203 I I #
coedge $-1 $640 $504 $577 $644 forward $582 $-1 #
coedge $-1 $504 $646 $506 $585 reversed $582 $-1 #
loop $-1 $-1 $640 $647 #
straight-curve $-1 -34.661894247631679 39.711555183649956 77.925345593031153 0 0 -1 I I #
coedge $-1 $648 $506 $649 $650 forward $499 $-1 #
edge $-1 $509 34.661894247631679 $651 59.725652053849288 $581 $652 forward 7 unknown #
point $-1 -34.661894247631679 35.590166382219714 11.9860616097384 #
point $-1 -34.661894247631679 39.711555183649956 11.986061609738398 #
point $-1 -23.623516565528504 34.217924776801063 6.6645249409611411 #
edge $-1 $653 -79.423110367299898 $590 -72.574845173481748 $575 $654 forward 7 unknown #
vertex $-1 $514 $655 #
straight-curve $-1 -7.6723666519755653 35.590166382219714 11.986061609738407 -1 0 0 I I #
coedge $-1 $656 $521 $540 $607 forward $454 $-1 #
coedge $-1 $521 $656 $535 $601 forward $454 $-1 #
coedge $-1 $533 $532 $521 $595 reversed $471 $-1 #
edge $-1 $602 -39.711555183649956 $608 39.711555183649956 $594 $657 forward 7 unknown #
coedge $-1 $523 $604 $527 $599 reversed $519 $-1 #
straight-curve $-1 -71.370586260567038 0 7.5275115277517202 0 1 0 I I #
point $-1 -71.370586260567038 39.711555183649956 7.5275115277517202 #
edge $-1 $528 -7.5275115277517202 $658 11.986061609738398 $596 $659 forward 7 unknown #
point $-1 -71.370586260567038 -39.711555183649956 7.5275115277517202 #
edge $-1 $605 -71.370586260567038 $602 71.370586260567038 $535 $660 forward 7 unknown #
vertex $-1 $595 $661 #
straight-curve $-1 71.370586260567038 39.711555183649956 0 0 0 -1 I I #
coedge $-1 $596 $538 $656 $662 reversed $519 $-1 #
vertex $-1 $601 $663 #
straight-curve $-1 -71.370586260567038 39.711555183649956 0 0 0 -1 I I #
edge $-1 $608 -71.370586260567038 $658 71.370586260567038 $540 $664 forward 7 unknown #
vertex $-1 $541 $665 #
straight-curve $-1 71.370586260567038 -39.711555183649956 0 0 0 -1 I I #
face $-1 $492 $666 $18 $-1 $667 reversed single #
loop $-1 $-1 $668 $543 #
plane-surface $-1 0 0 -11.986061609738398 0 0 1 1 0 0 forward_v I I I I #
coedge $-1 $617 $565 $546 $614 forward $544 $-1 #
edge $-1 $567 -7.107668325365867 $620 -2.6491182433791911 $613 $669 forward 7 unknown #
coedge $-1 $548 $547 $670 $671 reversed $403 $-1 #
edge $-1 $672 -38.596526681962956 $619 -26.951592475245207 $560 $673 forward 7 unknown #
coedge $-1 $674 $613 $548 $618 forward $544 $-1 #
edge $-1 $620 26.951592475245207 $675 38.596526681962956 $617 $676 forward 7 unknown #
vertex $-1 $616 $677 #
vertex $-1 $618 $678 #
straight-curve $-1 -59.725652053849288 0 7.5275115277517202 0 -1 0 I I #
coedge $-1 $679 $680 $551 $623 reversed $629 $-1 #
edge $-1 $632 -39.711555183649956 $625 39.711555183649956 $622 $681 forward 7 unknown #
coedge $-1 $682 $552 $680 $683 forward $416 $-1 #
vertex $-1 $623 $684 #
point $-1 3.972427639729414 39.711555183649956 6.5167937874146133 #
coedge $-1 $560 $682 $685 $686 reversed $416 $-1 #
straight-curve $-1 -59.725652053849288 39.711555183649956 4.8783932843725291 0 0 1 I I #
loop $-1 $-1 $679 $563 #
plane-surface $-1 71.370586260567038 0 0 -1 0 0 0 0 1 forward_v I I I I #
coedge $-1 $565 $687 $679 $688 reversed $544 $-1 #
vertex $-1 $623 $689 #
straight-curve $-1 0 -39.711555183649956 11.986061609738398 1 0 0 I I #
point $-1 -59.725652053849288 -39.711555183649956 11.986061609738396 #
face $-1 $690 $691 $19 $-1 $692 reversed single #
loop $-1 $-1 $693 $570 #
plane-surface $-1 -59.725652053849288 0 9.7567865687450581 -1 0 0 0 0 1 forward_v I I I I #
coedge $-1 $694 $695 $696 $697 reversed $571 $-1 #
coedge $-1 $573 $698 $699 $700 forward $499 $-1 #
coedge $-1 $699 $580 $574 $641 forward $582 $-1 #
edge $-1 $653 -71.40855180561654 $642 -65.939283983292754 $640 $701 forward 7 unknown #
vertex $-1 $641 $702 #
straight-curve $-1 3.972427639729414 52.955852670495958 11.9860616097384 0 -1 0 I I #
edge $-1 $578 -26.989527595656114 $653 11.644794291704979 $580 $703 forward 7 unknown #
point $-1 -34.661894247631679 39.711555183649956 6.5167937874146133 #
coedge $-1 $581 $704 $705 $706 forward $582 $-1 #
face $-1 $707 $582 $19 $-1 $708 reversed single #
coedge $-1 $698 $584 $709 $710 forward $499 $-1 #
coedge $-1 $705 $693 $584 $650 reversed $636 $-1 #
edge $-1 $651 -39.711555183649956 $711 39.711555183649956 $584 $712 forward 7 unknown #
vertex $-1 $650 $713 #
straight-curve $-1 0 39.711555183649956 11.986061609738398 -1 0 0 I I #
vertex $-1 $644 $714 #
straight-curve $-1 3.972427639729414 -8.0864649540673383 69.946910698316429 0 -0.60181501223851219 0.79863551827123203 I I #
point $-1 3.972427639729414 35.590166382219714 11.9860616097384 #
coedge $-1 $593 $592 $604 $662 forward $454 $-1 #
straight-curve $-1 71.370586260567038 0 -11.986061609738398 0 -1 0 I I #
vertex $-1 $662 $715 #
straight-curve $-1 -71.370586260567038 -39.711555183649956 0 0 0 -1 I I #
straight-curve $-1 0 39.711555183649956 -11.986061609738398 1 0 0 I I #
point $-1 71.370586260567038 39.711555183649956 -11.986061609738398 #
edge $-1 $658 -39.711555183649956 $605 39.711555183649956 $604 $716 forward 7 unknown #
point $-1 -71.370586260567038 39.711555183649956 -11.986061609738398 #
straight-curve $-1 0 -39.711555183649956 -11.986061609738398 -1 0 0 I I #
point $-1 71.370586260567038 -39.711555183649956 -11.986061609738398 #
loop $-1 $-1 $670 $610 #
plane-surface $-1 -71.370586260567038 0 0 1 0 0 0 0 -1 forward_v I I I I #
coedge $-1 $717 $718 $719 $720 forward $611 $-1 #
straight-curve $-1 -59.725652053849288 -39.711555183649956 4.8783932843725291 0 0 -1 I I #
coedge $-1 $685 $721 $615 $671 forward $666 $-1 #
edge $-1 $675 -39.711555183649956 $672 39.711555183649956 $670 $722 forward 7 unknown #
vertex $-1 $686 $723 #
straight-curve $-1 -32.774059578604081 39.711555183649956 7.5275115277517202 1 0 0 I I #
coedge $-1 $687 $617 $721 $724 forward $544 $-1 #
vertex $-1 $724 $725 #
straight-curve $-1 -32.774059578604081 -39.711555183649956 7.5275115277517202 -1 0 0 I I #
point $-1 -59.725652053849288 39.711555183649956 7.5275115277517202 #
point $-1 -59.725652053849288 -39.711555183649956 7.5275115277517202 #
coedge $-1 $719 $622 $631 $688 forward $629 $-1 #
coedge $-1 $622 $719 $624 $683 reversed $629 $-1 #
straight-curve $-1 71.370586260567038 0 11.986061609738398 0 1 0 I I #
coedge $-1 $627 $624 $718 $726 reversed $416 $-1 #
edge $-1 $625 -11.986061609738398 $727 11.986061609738398 $680 $728 forward 7 unknown #
point $-1 71.370586260567038 39.711555183649956 11.986061609738398 #
coedge $-1 $729 $670 $627 $686 forward $666 $-1 #
edge $-1 $672 -7.5275115277517202 $730 11.986061609738398 $627 $731 forward 7 unknown #
coedge $-1 $631 $674 $717 $732 reversed $544 $-1 #
edge $-1 $632 -11.986061609738398 $733 11.986061609738398 $679 $734 forward 7 unknown #
point $-1 71.370586260567038 -39.711555183649956 11.986061609738398 #
face $-1 $735 $736 $19 $-1 $737 reversed single #
loop $-1 $-1 $738 $635 #
plane-surface $-1 0 -39.711555183649956 0 0 1 0 0 0 1 forward_v I I I I #
coedge $-1 $649 $696 $738 $739 reversed $636 $-1 #
coedge $-1 $740 $638 $704 $741 reversed $571 $-1 #
coedge $-1 $638 $740 $742 $743 reversed $571 $-1 #
coedge $-1 $693 $705 $638 $697 forward $636 $-1 #
edge $-1 $744 -39.711555183649956 $745 39.711555183649956 $696 $746 forward 7 unknown #
coedge $-1 $639 $648 $747 $748 forward $499 $-1 #
coedge $-1 $749 $640 $639 $700 reversed $582 $-1 #
edge $-1 $750 -71.370586260567038 $642 -3.972427639729414 $699 $652 forward 7 unknown #
straight-curve $-1 3.972427639729414 39.711555183649956 77.925345593031153 0 0 1 I I #
point $-1 3.972427639729414 39.711555183649956 11.986061609738398 #
straight-curve $-1 -7.6723666519755653 39.711555183649956 6.5167937874146133 1 0 0 I I #
coedge $-1 $646 $751 $694 $741 forward $582 $-1 #
coedge $-1 $696 $649 $646 $706 reversed $636 $-1 #
edge $-1 $744 2.6491182433791911 $651 7.107668325365867 $646 $752 forward 7 unknown #
face $-1 $-1 $753 $19 $-1 $754 reversed single #
plane-surface $-1 0 39.711555183649956 0 0 -1 0 0 0 -1 forward_v I I I I #
coedge $-1 $738 $755 $648 $710 reversed $691 $-1 #
edge $-1 $711 -59.725652053849288 $756 71.370586260567038 $709 $757 forward 7 unknown #
vertex $-1 $710 $758 #
straight-curve $-1 -59.725652053849288 0 11.986061609738398 0 -1 0 I I #
point $-1 -59.725652053849288 39.711555183649956 11.986061609738396 #
point $-1 3.972427639729414 39.711555183649956 6.5167937874146133 #
point $-1 -71.370586260567038 -39.711555183649956 -11.986061609738398 #
straight-curve $-1 -71.370586260567038 0 -11.986061609738398 0 1 0 I I #
coedge $-1 $759 $668 $687 $732 forward $611 $-1 #
coedge $-1 $668 $759 $682 $726 forward $611 $-1 #
coedge $-1 $680 $679 $668 $720 reversed $629 $-1 #
edge $-1 $727 -39.711555183649956 $733 39.711555183649956 $719 $760 forward 7 unknown #
coedge $-1 $670 $729 $674 $724 reversed $666 $-1 #
straight-curve $-1 -71.370586260567038 0 7.5275115277517202 0 1 0 I I #
point $-1 -71.370586260567038 39.711555183649956 7.5275115277517202 #
edge $-1 $675 -7.5275115277517202 $761 11.986061609738398 $721 $762 forward 7 unknown #
point $-1 -71.370586260567038 -39.711555183649956 7.5275115277517202 #
edge $-1 $730 -71.370586260567038 $727 71.370586260567038 $682 $763 forward 7 unknown #
vertex $-1 $720 $764 #
straight-curve $-1 71.370586260567038 39.711555183649956 0 0 0 -1 I I #
coedge $-1 $721 $685 $759 $765 reversed $666 $-1 #
vertex $-1 $726 $766 #
straight-curve $-1 -71.370586260567038 39.711555183649956 0 0 0 -1 I I #
edge $-1 $733 -71.370586260567038 $761 71.370586260567038 $687 $767 forward 7 unknown #
vertex $-1 $688 $768 #
straight-curve $-1 71.370586260567038 -39.711555183649956 0 0 0 -1 I I #
face $-1 $647 $769 $19 $-1 $770 reversed single #
loop $-1 $-1 $771 $690 #
plane-surface $-1 0 0 -11.986061609738398 0 0 1 1 0 0 forward_v I I I I #
coedge $-1 $742 $709 $693 $739 forward $691 $-1 #
edge $-1 $711 -7.107668325365867 $745 -2.6491182433791911 $738 $772 forward 7 unknown #
coedge $-1 $695 $694 $773 $774 reversed $571 $-1 #
edge $-1 $775 -38.596526681962956 $744 -26.951592475245207 $704 $776 forward 7 unknown #
coedge $-1 $777 $738 $695 $743 forward $691 $-1 #
edge $-1 $745 26.951592475245207 $778 38.596526681962956 $742 $779 forward 7 unknown #
vertex $-1 $741 $780 #
vertex $-1 $743 $781 #
straight-curve $-1 -59.725652053849288 0 7.5275115277517202 0 -1 0 I I #
coedge $-1 $782 $783 $698 $748 reversed $753 $-1 #
edge $-1 $756 -39.711555183649956 $750 39.711555183649956 $747 $784 forward 7 unknown #
coedge $-1 $785 $699 $783 $786 forward $582 $-1 #
vertex $-1 $748 $787 #
coedge $-1 $704 $785 $788 $789 reversed $582 $-1 #
straight-curve $-1 -59.725652053849288 39.711555183649956 4.8783932843725291 0 0 1 I I #
loop $-1 $-1 $782 $707 #
plane-surface $-1 71.370586260567038 0 0 -1 0 0 0 0 1 forward_v I I I I #
coedge $-1 $709 $790 $782 $791 reversed $691 $-1 #
vertex $-1 $748 $792 #
straight-curve $-1 0 -39.711555183649956 11.986061609738398 1 0 0 I I #
point $-1 -59.725652053849288 -39.711555183649956 11.986061609738396 #
coedge $-1 $718 $717 $729 $765 forward $611 $-1 #
straight-curve $-1 71.370586260567038 0 -11.986061609738398 0 -1 0 I I #
vertex $-1 $765 $793 #
straight-curve $-1 -71.370586260567038 -39.711555183649956 0 0 0 -1 I I #
straight-curve $-1 0 39.711555183649956 -11.986061609738398 1 0 0 I I #
point $-1 71.370586260567038 39.711555183649956 -11.986061609738398 #
edge $-1 $761 -39.711555183649956 $730 39.711555183649956 $729 $794 forward 7 unknown #
point $-1 -71.370586260567038 39.711555183649956 -11.986061609738398 #
straight-curve $-1 0 -39.711555183649956 -11.986061609738398 -1 0 0 I I #
point $-1 71.370586260567038 -39.711555183649956 -11.986061609738398 #
loop $-1 $-1 $773 $735 #
plane-surface $-1 -71.370586260567038 0 0 1 0 0 0 0 -1 forward_v I I I I #
coedge $-1 $795 $796 $797 $798 forward $736 $-1 #
straight-curve $-1 -59.725652053849288 -39.711555183649956 4.8783932843725291 0 0 -1 I I #
coedge $-1 $788 $799 $740 $774 forward $769 $-1 #
edge $-1 $778 -39.711555183649956 $775 39.711555183649956 $773 $800 forward 7 unknown #
vertex $-1 $789 $801 #
straight-curve $-1 -32.774059578604081 39.711555183649956 7.5275115277517202 1 0 0 I I #
coedge $-1 $790 $742 $799 $802 forward $691 $-1 #
vertex $-1 $802 $803 #
straight-curve $-1 -32.774059578604081 -39.711555183649956 7.5275115277517202 -1 0 0 I I #
point $-1 -59.725652053849288 39.711555183649956 7.5275115277517202 #
point $-1 -59.725652053849288 -39.711555183649956 7.5275115277517202 #
coedge $-1 $797 $747 $755 $791 forward $753 $-1 #
coedge $-1 $747 $797 $749 $786 reversed $753 $-1 #
straight-curve $-1 71.370586260567038 0 11.986061609738398 0 1 0 I I #
coedge $-1 $751 $749 $796 $804 reversed $582 $-1 #
edge $-1 $750 -11.986061609738398 $805 11.986061609738398 $783 $806 forward 7 unknown #
point $-1 71.370586260567038 39.711555183649956 11.986061609738398 #
coedge $-1 $807 $773 $751 $789 forward $769 $-1 #
edge $-1 $775 -7.5275115277517202 $808 11.986061609738398 $751 $809 forward 7 unknown #
coedge $-1 $755 $777 $795 $810 reversed $691 $-1 #
edge $-1 $756 -11.986061609738398 $811 11.986061609738398 $782 $812 forward 7 unknown #
point $-1 71.370586260567038 -39.711555183649956 11.986061609738398 #
point $-1 -71.370586260567038 -39.711555183649956 -11.986061609738398 #
straight-curve $-1 -71.370586260567038 0 -11.986061609738398 0 1 0 I I #
coedge $-1 $813 $771 $790 $810 forward $736 $-1 #
coedge $-1 $771 $813 $785 $804 forward $736 $-1 #
coedge $-1 $783 $782 $771 $798 reversed $753 $-1 #
edge $-1 $805 -39.711555183649956 $811 39.711555183649956 $797 $814 forward 7 unknown #
coedge $-1 $773 $807 $777 $802 reversed $769 $-1 #
straight-curve $-1 -71.370586260567038 0 7.5275115277517202 0 1 0 I I #
point $-1 -71.370586260567038 39.711555183649956 7.5275115277517202 #
edge $-1 $778 -7.5275115277517202 $815 11.986061609738398 $799 $816 forward 7 unknown #
point $-1 -71.370586260567038 -39.711555183649956 7.5275115277517202 #
edge $-1 $808 -71.370586260567038 $805 71.370586260567038 $785 $817 forward 7 unknown #
vertex $-1 $798 $818 #
straight-curve $-1 71.370586260567038 39.711555183649956 0 0 0 -1 I I #
coedge $-1 $799 $788 $813 $819 reversed $769 $-1 #
vertex $-1 $804 $820 #
straight-curve $-1 -71.370586260567038 39.711555183649956 0 0 0 -1 I I #
edge $-1 $811 -71.370586260567038 $815 71.370586260567038 $790 $821 forward 7 unknown #
vertex $-1 $791 $822 #
straight-curve $-1 71.370586260567038 -39.711555183649956 0 0 0 -1 I I #
coedge $-1 $796 $795 $807 $819 forward $736 $-1 #
straight-curve $-1 71.370586260567038 0 -11.986061609738398 0 -1 0 I I #
vertex $-1 $819 $823 #
straight-curve $-1 -71.370586260567038 -39.711555183649956 0 0 0 -1 I I #
straight-curve $-1 0 39.711555183649956 -11.986061609738398 1 0 0 I I #
point $-1 71.370586260567038 39.711555183649956 -11.986061609738398 #
edge $-1 $815 -39.711555183649956 $808 39.711555183649956 $807 $824 forward 7 unknown #
point $-1 -71.370586260567038 39.711555183649956 -11.986061609738398 #
straight-curve $-1 0 -39.711555183649956 -11.986061609738398 -1 0 0 I I #
point $-1 71.370586260567038 -39.711555183649956 -11.986061609738398 #
point $-1 -71.370586260567038 -39.711555183649956 -11.986061609738398 #
straight-curve $-1 -71.370586260567038 0 -11.986061609738398 0 1 0 I I #
End-of-ACIS-data 