500 0 14 0           
7 Unknown 11 ACIS 5.0 NT 24 Fri Mar 26 01:57:14 1999 
-1 9.9999999999999995e-007 1e-010 
body $-1 $14 $-1 $15 #
body $-1 $16 $-1 $17 #
body $-1 $18 $-1 $19 #
body $-1 $20 $-1 $21 #
body $-1 $22 $-1 $23 #
body $-1 $24 $-1 $25 #
body $-1 $26 $-1 $27 #
body $-1 $28 $-1 $29 #
body $-1 $30 $-1 $31 #
body $-1 $32 $-1 $33 #
body $-1 $34 $-1 $35 #
body $-1 $36 $-1 $37 #
body $-1 $38 $-1 $39 #
body $-1 $40 $-1 $41 #
lump $-1 $-1 $42 $0 #
transform $-1 1 0 0 0 1 0 0 0 1 67.193212683492533 43.957448258410771 13.047046076296269 1 rotate no_reflect no_shear #
lump $-1 $-1 $43 $1 #
transform $-1 1 0 0 0 1 0 0 0 1 67.193212683492533 43.957448258410771 13.047046076296269 1 rotate no_reflect no_shear #
lump $-1 $-1 $44 $2 #
transform $-1 1 0 0 0 1 0 0 0 1 67.193212683492533 43.957448258410771 13.047046076296269 1 rotate no_reflect no_shear #
lump $-1 $-1 $45 $3 #
transform $-1 1 0 0 0 1 0 0 0 1 67.193212683492533 43.957448258410771 13.047046076296269 1 rotate no_reflect no_shear #
lump $-1 $-1 $46 $4 #
transform $-1 1 0 0 0 1 0 0 0 1 67.193212683492533 43.957448258410771 13.047046076296269 1 rotate no_reflect no_shear #
lump $-1 $-1 $47 $5 #
transform $-1 1 0 0 0 1 0 0 0 1 67.193212683492533 43.957448258410771 13.047046076296269 1 rotate no_reflect no_shear #
lump $-1 $-1 $48 $6 #
transform $-1 1 0 0 0 1 0 0 0 1 67.193212683492533 43.957448258410771 13.047046076296269 1 rotate no_reflect no_shear #
lump $-1 $-1 $49 $7 #
transform $-1 1 0 0 0 1 0 0 0 1 67.193212683492533 43.957448258410771 13.047046076296269 1 rotate no_reflect no_shear #
lump $-1 $-1 $50 $8 #
transform $-1 1 0 0 0 1 0 0 0 1 67.193212683492533 43.957448258410771 13.047046076296269 1 rotate no_reflect no_shear #
lump $-1 $-1 $51 $9 #
transform $-1 1 0 0 0 1 0 0 0 1 67.193212683492533 43.957448258410771 13.047046076296269 1 rotate no_reflect no_shear #
lump $-1 $-1 $52 $10 #
transform $-1 1 0 0 0 1 0 0 0 1 67.193212683492533 43.957448258410771 13.047046076296269 1 rotate no_reflect no_shear #
lump $-1 $-1 $53 $11 #
transform $-1 1 0 0 0 1 0 0 0 1 67.193212683492533 43.957448258410771 13.047046076296269 1 rotate no_reflect no_shear #
lump $-1 $-1 $54 $12 #
transform $-1 1 0 0 0 1 0 0 0 1 67.193212683492533 43.957448258410771 13.047046076296269 1 rotate no_reflect no_shear #
lump $-1 $-1 $55 $13 #
transform $-1 1 0 0 0 1 0 0 0 1 67.193212683492533 43.957448258410771 13.047046076296269 1 rotate no_reflect no_shear #
shell $-1 $-1 $-1 $56 $-1 $14 #
shell $-1 $-1 $-1 $57 $-1 $16 #
shell $-1 $-1 $-1 $58 $-1 $18 #
shell $-1 $-1 $-1 $59 $-1 $20 #
shell $-1 $-1 $-1 $60 $-1 $22 #
shell $-1 $-1 $-1 $61 $-1 $24 #
shell $-1 $-1 $-1 $62 $-1 $26 #
shell $-1 $-1 $-1 $63 $-1 $28 #
shell $-1 $-1 $-1 $64 $-1 $30 #
shell $-1 $-1 $-1 $65 $-1 $32 #
shell $-1 $-1 $-1 $66 $-1 $34 #
shell $-1 $-1 $-1 $67 $-1 $36 #
shell $-1 $-1 $-1 $68 $-1 $38 #
shell $-1 $-1 $-1 $69 $-1 $40 #
face $-1 $70 $71 $42 $-1 $72 forward single #
face $-1 $73 $74 $43 $-1 $75 reversed single #
face $-1 $76 $77 $44 $-1 $78 reversed single #
face $-1 $79 $80 $45 $-1 $81 forward single #
face $-1 $82 $83 $46 $-1 $84 reversed single #
face $-1 $85 $86 $47 $-1 $87 forward single #
face $-1 $88 $89 $48 $-1 $90 reversed single #
face $-1 $91 $92 $49 $-1 $93 forward single #
face $-1 $94 $95 $50 $-1 $96 forward single #
face $-1 $97 $98 $51 $-1 $99 forward single #
face $-1 $100 $101 $52 $-1 $102 reversed single #
face $-1 $103 $104 $53 $-1 $105 forward single #
face $-1 $106 $107 $54 $-1 $108 forward single #
face $-1 $109 $110 $55 $-1 $111 forward single #
face $-1 $112 $113 $42 $-1 $114 reversed single #
loop $-1 $-1 $115 $56 #
plane-surface $-1 0 0 13.047046076296269 0 0 1 1 0 0 forward_v I I I I #
face $-1 $116 $117 $43 $-1 $118 reversed single #
loop $-1 $-1 $119 $57 #
plane-surface $-1 -61.241399283006302 0 10.047046076296269 0 0 1 1 0 0 forward_v I I I I #
face $-1 $120 $121 $44 $-1 $122 reversed single #
loop $-1 $-1 $123 $58 #
plane-surface $-1 -33.777825628419976 68.546019840281531 163.55077248522366 1 0 0 0 -0.66913061440640931 -0.74314481823134659 forward_v I I I I #
face $-1 $124 $125 $45 $-1 $126 forward single #
loop $-1 $127 $128 $59 #
cone-surface $-1 -19.476733768812949 37.522233932664783 6.8561989780847199 0 -0.66913061440640931 -0.74314481823134659 2 0 0 1 I I 0 1 2 forward I I I I #
face $-1 $129 $130 $46 $-1 $131 reversed single #
loop $-1 $-1 $132 $60 #
plane-surface $-1 27.463573654586327 68.546019840281531 163.55077248522366 1 0 0 0 -0.66913061440640931 -0.74314481823134659 forward_v I I I I #
face $-1 $133 $134 $47 $-1 $135 forward single #
loop $-1 $136 $137 $61 #
cone-surface $-1 41.764665514193354 37.522233932664783 6.8561989780847199 0 -0.66913061440640931 -0.74314481823134659 2 0 0 1 I I 0 1 2 forward I I I I #
face $-1 $138 $139 $48 $-1 $140 reversed single #
loop $-1 $-1 $141 $62 #
plane-surface $-1 -37.801014412109403 -128.52956707233128 109.21164723698448 -1 0 0 0 -0.62932039886446345 0.77714595512881146 forward_v I I I I #
face $-1 $142 $143 $49 $-1 $144 forward single #
loop $-1 $145 $146 $63 #
cone-surface $-1 -51.791871588437942 -38.057800254484533 7.9331996629454453 0 0.62932039886446345 -0.77714595512881146 1 0 0 1 I I 0 1 1 forward I I I I #
face $-1 $147 $148 $50 $-1 $149 forward single #
loop $-1 $150 $151 $64 #
cone-surface $-1 -46.545300147314741 -38.057800254484533 7.9331996629454453 0 0.62932039886446345 -0.77714595512881146 1 0 0 1 I I 0 1 1 forward I I I I #
face $-1 $152 $153 $51 $-1 $154 forward single #
loop $-1 $155 $156 $65 #
cone-surface $-1 -41.29872870619154 -38.057800254484533 7.9331996629454453 0 0.62932039886446345 -0.77714595512881146 1 0 0 1 I I 0 1 1 forward I I I I #
face $-1 $157 $158 $52 $-1 $159 reversed single #
loop $-1 $-1 $160 $66 #
plane-surface $-1 23.440384870896892 -128.52956707233128 109.21164723698448 -1 0 0 0 -0.62932039886446345 0.77714595512881146 forward_v I I I I #
face $-1 $161 $162 $53 $-1 $163 forward single #
loop $-1 $164 $165 $67 #
cone-surface $-1 9.4495276945683599 -38.057800254484533 7.9331996629454453 0 0.62932039886446345 -0.77714595512881146 1 0 0 1 I I 0 1 1 forward I I I I #
face $-1 $166 $167 $54 $-1 $168 forward single #
loop $-1 $169 $170 $68 #
cone-surface $-1 14.696099135691554 -38.057800254484533 7.9331996629454453 0 0.62932039886446345 -0.77714595512881146 1 0 0 1 I I 0 1 1 forward I I I I #
face $-1 $171 $172 $55 $-1 $173 forward single #
loop $-1 $174 $175 $69 #
cone-surface $-1 19.942670576814763 -38.057800254484533 7.9331996629454453 0 0.62932039886446345 -0.77714595512881146 1 0 0 1 I I 0 1 1 forward I I I I #
face $-1 $176 $177 $42 $-1 $178 reversed single #
loop $-1 $-1 $179 $70 #
plane-surface $-1 0 0 -13.047046076296269 0 0 1 1 0 0 forward_v I I I I #
coedge $-1 $180 $181 $182 $183 forward $71 $-1 #
face $-1 $184 $185 $43 $-1 $186 reversed single #
loop $-1 $-1 $187 $73 #
plane-surface $-1 -55.289585882520072 0 11.547046076296269 -1 0 0 0 0 1 forward_v I I I I #
coedge $-1 $188 $189 $187 $190 forward $74 $-1 #
face $-1 $191 $192 $44 $-1 $193 reversed single #
loop $-1 $-1 $194 $76 #
plane-surface $-1 -19.476733768812949 -21.376051533410262 63.682196833115114 0 0.66913061440640931 0.74314481823134659 1 0 0 forward_v I I I I #
coedge $-1 $195 $196 $197 $198 reversed $77 $-1 #
face $-1 $-1 $199 $45 $-1 $200 forward single #
loop $-1 $201 $202 $79 #
cone-surface $-1 -19.476733768812949 34.96662344036708 4.0179060441207213 0 -0.66913061440640931 -0.74314481823134659 1 0 0 1 I I -0.70710678118654746 0.70710678118654746 1 forward I I I I #
loop $-1 $-1 $203 $59 #
coedge $-1 $128 $128 $204 $205 reversed $80 $-1 #
face $-1 $206 $207 $46 $-1 $208 reversed single #
loop $-1 $-1 $209 $82 #
plane-surface $-1 41.764665514193354 -21.376051533410262 63.682196833115114 0 0.66913061440640931 0.74314481823134659 1 0 0 forward_v I I I I #
coedge $-1 $210 $211 $212 $213 reversed $83 $-1 #
face $-1 $-1 $214 $47 $-1 $215 forward single #
loop $-1 $216 $217 $85 #
cone-surface $-1 41.764665514193354 34.96662344036708 4.0179060441207213 0 -0.66913061440640931 -0.74314481823134659 1 0 0 1 I I -0.70710678118654746 0.70710678118654746 1 forward I I I I #
loop $-1 $-1 $218 $61 #
coedge $-1 $137 $137 $219 $220 reversed $86 $-1 #
face $-1 $221 $222 $48 $-1 $223 forward single #
loop $-1 $-1 $224 $88 #
plane-surface $-1 -46.545300147314741 -43.957448258410778 4.7737803388121307 0 -0.62932039886446345 0.77714595512881146 1 0 0 forward_v I I I I #
coedge $-1 $225 $226 $227 $228 reversed $89 $-1 #
face $-1 $-1 $229 $49 $-1 $230 forward single #
loop $-1 $231 $232 $91 #
cone-surface $-1 -51.791871588437942 -36.951808113336156 6.5674131407722918 0 0.62932039886446345 -0.77714595512881146 0.5 0 0 1 I I -0.70710678118654746 0.70710678118654746 0.5 forward I I I I #
loop $-1 $-1 $233 $63 #
coedge $-1 $146 $146 $234 $235 reversed $92 $-1 #
face $-1 $-1 $236 $50 $-1 $237 forward single #
loop $-1 $238 $239 $94 #
cone-surface $-1 -46.545300147314741 -36.951808113336156 6.5674131407722918 0 0.62932039886446345 -0.77714595512881146 0.5 0 0 1 I I -0.70710678118654746 0.70710678118654746 0.5 forward I I I I #
loop $-1 $-1 $240 $64 #
coedge $-1 $151 $151 $241 $242 reversed $95 $-1 #
face $-1 $-1 $243 $51 $-1 $244 forward single #
loop $-1 $245 $246 $97 #
cone-surface $-1 -41.29872870619154 -36.951808113336156 6.5674131407722918 0 0.62932039886446345 -0.77714595512881146 0.5 0 0 1 I I -0.70710678118654746 0.70710678118654746 0.5 forward I I I I #
loop $-1 $-1 $247 $65 #
coedge $-1 $156 $156 $248 $249 reversed $98 $-1 #
face $-1 $250 $251 $52 $-1 $252 reversed single #
loop $-1 $-1 $253 $100 #
plane-surface $-1 14.696099135691554 -43.957448258410778 4.7737803388121307 0 -0.62932039886446345 0.77714595512881146 1 0 0 forward_v I I I I #
coedge $-1 $254 $255 $256 $257 reversed $101 $-1 #
face $-1 $-1 $258 $53 $-1 $259 forward single #
loop $-1 $260 $261 $103 #
cone-surface $-1 9.4495276945683599 -36.951808113336156 6.5674131407722918 0 0.62932039886446345 -0.77714595512881146 0.5 0 0 1 I I -0.70710678118654746 0.70710678118654746 0.5 forward I I I I #
loop $-1 $-1 $262 $67 #
coedge $-1 $165 $165 $263 $264 reversed $104 $-1 #
face $-1 $-1 $265 $54 $-1 $266 forward single #
loop $-1 $267 $268 $106 #
cone-surface $-1 14.696099135691554 -36.951808113336156 6.5674131407722918 0 0.62932039886446345 -0.77714595512881146 0.5 0 0 1 I I -0.70710678118654746 0.70710678118654746 0.5 forward I I I I #
loop $-1 $-1 $269 $68 #
coedge $-1 $170 $170 $270 $271 reversed $107 $-1 #
face $-1 $-1 $272 $55 $-1 $273 forward single #
loop $-1 $274 $275 $109 #
cone-surface $-1 19.942670576814763 -36.951808113336156 6.5674131407722918 0 0.62932039886446345 -0.77714595512881146 0.5 0 0 1 I I -0.70710678118654746 0.70710678118654746 0.5 forward I I I I #
loop $-1 $-1 $276 $69 #
coedge $-1 $175 $175 $277 $278 reversed $110 $-1 #
face $-1 $279 $280 $42 $-1 $281 reversed single #
loop $-1 $-1 $282 $112 #
plane-surface $-1 0 -43.957448258410771 0 0 1 0 0 0 1 forward_v I I I I #
coedge $-1 $283 $284 $285 $286 forward $113 $-1 #
coedge $-1 $287 $115 $288 $289 forward $71 $-1 #
coedge $-1 $115 $287 $290 $291 forward $71 $-1 #
coedge $-1 $292 $293 $115 $183 reversed $294 $-1 #
edge $-1 $295 -43.957448258410771 $296 43.957448258410771 $182 $297 forward 7 unknown #
face $-1 $298 $299 $43 $-1 $300 reversed single #
loop $-1 $-1 $301 $116 #
plane-surface $-1 0 43.957448258410771 0 0 -1 0 0 0 -1 forward_v I I I I #
coedge $-1 $302 $303 $119 $190 reversed $117 $-1 #
coedge $-1 $304 $119 $305 $306 reversed $74 $-1 #
coedge $-1 $119 $304 $307 $308 reversed $74 $-1 #
edge $-1 $309 -43.957448258410771 $310 43.957448258410771 $187 $311 forward 7 unknown #
face $-1 $312 $313 $44 $-1 $314 forward single #
loop $-1 $-1 $315 $120 #
plane-surface $-1 -5.1756419092059218 68.546019840281531 163.55077248522366 -1 0 0 0 0.66913061440640931 0.74314481823134659 forward_v I I I I #
coedge $-1 $316 $317 $318 $319 reversed $121 $-1 #
coedge $-1 $196 $123 $320 $321 reversed $77 $-1 #
coedge $-1 $123 $195 $316 $322 reversed $77 $-1 #
coedge $-1 $318 $323 $123 $198 forward $313 $-1 #
edge $-1 $324 -9.6844383382700059 $325 -0.58696944256057293 $197 $326 forward 7 unknown #
loop $-1 $-1 $204 $124 #
plane-surface $-1 -19.476733768812949 -21.376051533410262 63.682196833115114 0 0.66913061440640931 0.74314481823134659 1 0 0 forward_v I I I I #
loop $-1 $-1 $327 $79 #
coedge $-1 $202 $202 $203 $328 reversed $125 $-1 #
coedge $-1 $203 $203 $202 $328 forward $127 $-1 #
coedge $-1 $204 $204 $128 $205 forward $199 $-1 #
edge $-1 $329 1.2614162841899724e-016 $329 6.2831853071796004 $204 $330 forward 7 unknown #
face $-1 $331 $332 $46 $-1 $333 forward single #
loop $-1 $-1 $334 $129 #
plane-surface $-1 56.06575737380038 68.546019840281531 163.55077248522366 -1 0 0 0 0.66913061440640931 0.74314481823134659 forward_v I I I I #
coedge $-1 $335 $336 $337 $338 reversed $130 $-1 #
coedge $-1 $211 $132 $339 $340 reversed $83 $-1 #
coedge $-1 $132 $210 $335 $341 reversed $83 $-1 #
coedge $-1 $337 $342 $132 $213 forward $332 $-1 #
edge $-1 $343 -9.6844383382700059 $344 -0.58696944256057293 $212 $345 forward 7 unknown #
loop $-1 $-1 $219 $133 #
plane-surface $-1 41.764665514193354 -21.376051533410262 63.682196833115114 0 0.66913061440640931 0.74314481823134659 1 0 0 forward_v I I I I #
loop $-1 $-1 $346 $85 #
coedge $-1 $217 $217 $218 $347 reversed $134 $-1 #
coedge $-1 $218 $218 $217 $347 forward $136 $-1 #
coedge $-1 $219 $219 $137 $220 forward $214 $-1 #
edge $-1 $348 1.2614162841899724e-016 $348 6.2831853071796004 $219 $349 forward 7 unknown #
face $-1 $350 $351 $48 $-1 $352 forward single #
loop $-1 $-1 $353 $138 #
plane-surface $-1 -55.289585882520072 0 11.547046076296269 -1 0 0 0 0 1 forward_v I I I I #
coedge $-1 $354 $355 $356 $357 reversed $139 $-1 #
coedge $-1 $226 $141 $358 $359 reversed $89 $-1 #
coedge $-1 $141 $225 $354 $360 reversed $89 $-1 #
coedge $-1 $356 $361 $141 $228 forward $351 $-1 #
edge $-1 $362 20.307335277754866 $363 30.52396740217501 $227 $364 forward 7 unknown #
loop $-1 $-1 $234 $142 #
plane-surface $-1 -46.545300147314741 -43.957448258410778 4.7737803388121307 0 -0.62932039886446345 0.77714595512881146 1 0 0 forward_v I I I I #
loop $-1 $-1 $365 $91 #
coedge $-1 $232 $232 $233 $366 reversed $143 $-1 #
coedge $-1 $233 $233 $232 $366 forward $145 $-1 #
coedge $-1 $234 $234 $146 $235 forward $229 $-1 #
edge $-1 $367 -3.4212266271546477e-015 $367 6.2831853071795969 $234 $368 forward 7 unknown #
loop $-1 $-1 $241 $147 #
plane-surface $-1 -46.545300147314741 -43.957448258410778 4.7737803388121307 0 -0.62932039886446345 0.77714595512881146 1 0 0 forward_v I I I I #
loop $-1 $-1 $369 $94 #
coedge $-1 $239 $239 $240 $370 reversed $148 $-1 #
coedge $-1 $240 $240 $239 $370 forward $150 $-1 #
coedge $-1 $241 $241 $151 $242 forward $236 $-1 #
edge $-1 $371 -3.4212266271546477e-015 $371 6.2831853071795969 $241 $372 forward 7 unknown #
loop $-1 $-1 $248 $152 #
plane-surface $-1 -46.545300147314741 -43.957448258410778 4.7737803388121307 0 -0.62932039886446345 0.77714595512881146 1 0 0 forward_v I I I I #
loop $-1 $-1 $373 $97 #
coedge $-1 $246 $246 $247 $374 reversed $153 $-1 #
coedge $-1 $247 $247 $246 $374 forward $155 $-1 #
coedge $-1 $248 $248 $156 $249 forward $243 $-1 #
edge $-1 $375 -3.4212266271546477e-015 $375 6.2831853071795969 $248 $376 forward 7 unknown #
face $-1 $377 $378 $52 $-1 $379 reversed single #
loop $-1 $-1 $380 $157 #
plane-surface $-1 5.9518134004862162 -128.52956707233128 109.21164723698448 1 0 0 0 0.62932039886446345 -0.77714595512881146 forward_v I I I I #
coedge $-1 $381 $382 $383 $384 reversed $158 $-1 #
coedge $-1 $255 $160 $385 $386 reversed $101 $-1 #
coedge $-1 $160 $254 $381 $387 reversed $101 $-1 #
coedge $-1 $383 $388 $160 $257 forward $389 $-1 #
edge $-1 $390 20.307335277754866 $391 30.52396740217501 $256 $392 forward 7 unknown #
loop $-1 $-1 $263 $161 #
plane-surface $-1 14.696099135691554 -43.957448258410778 4.7737803388121307 0 -0.62932039886446345 0.77714595512881146 1 0 0 forward_v I I I I #
loop $-1 $-1 $393 $103 #
coedge $-1 $261 $261 $262 $394 reversed $162 $-1 #
coedge $-1 $262 $262 $261 $394 forward $164 $-1 #
coedge $-1 $263 $263 $165 $264 forward $258 $-1 #
edge $-1 $395 -3.4212266271546477e-015 $395 6.2831853071795969 $263 $396 forward 7 unknown #
loop $-1 $-1 $270 $166 #
plane-surface $-1 14.696099135691554 -43.957448258410778 4.7737803388121307 0 -0.62932039886446345 0.77714595512881146 1 0 0 forward_v I I I I #
loop $-1 $-1 $397 $106 #
coedge $-1 $268 $268 $269 $398 reversed $167 $-1 #
coedge $-1 $269 $269 $268 $398 forward $169 $-1 #
coedge $-1 $270 $270 $170 $271 forward $265 $-1 #
edge $-1 $399 -3.4212266271546477e-015 $399 6.2831853071795969 $270 $400 forward 7 unknown #
loop $-1 $-1 $277 $171 #
plane-surface $-1 14.696099135691554 -43.957448258410778 4.7737803388121307 0 -0.62932039886446345 0.77714595512881146 1 0 0 forward_v I I I I #
loop $-1 $-1 $401 $109 #
coedge $-1 $275 $275 $276 $402 reversed $172 $-1 #
coedge $-1 $276 $276 $275 $402 forward $174 $-1 #
coedge $-1 $277 $277 $175 $278 forward $272 $-1 #
edge $-1 $403 -3.4212266271546477e-015 $403 6.2831853071795969 $277 $404 forward 7 unknown #
face $-1 $405 $406 $42 $-1 $407 reversed single #
loop $-1 $-1 $408 $176 #
plane-surface $-1 -67.193212683492533 0 0 1 0 0 0 0 -1 forward_v I I I I #
coedge $-1 $409 $290 $410 $411 forward $177 $-1 #
coedge $-1 $412 $179 $409 $413 forward $113 $-1 #
coedge $-1 $179 $412 $414 $415 forward $113 $-1 #
coedge $-1 $293 $292 $179 $286 reversed $294 $-1 #
edge $-1 $416 -43.957448258410771 $417 43.957448258410771 $285 $418 forward 7 unknown #
coedge $-1 $181 $180 $419 $420 forward $71 $-1 #
coedge $-1 $421 $422 $180 $289 reversed $406 $-1 #
edge $-1 $296 -67.193212683492533 $423 67.193212683492533 $288 $424 forward 7 unknown #
coedge $-1 $282 $425 $181 $291 reversed $177 $-1 #
edge $-1 $426 -67.193212683492533 $295 67.193212683492533 $290 $427 forward 7 unknown #
coedge $-1 $285 $182 $425 $428 forward $294 $-1 #
coedge $-1 $182 $285 $421 $429 reversed $294 $-1 #
loop $-1 $-1 $292 $405 #
vertex $-1 $183 $430 #
vertex $-1 $183 $431 #
straight-curve $-1 67.193212683492533 0 13.047046076296269 0 1 0 I I #
face $-1 $432 $433 $43 $-1 $434 forward single #
loop $-1 $-1 $435 $184 #
plane-surface $-1 -67.193212683492533 0 0 1 0 0 0 0 -1 forward_v I I I I #
coedge $-1 $307 $436 $302 $437 forward $185 $-1 #
coedge $-1 $438 $187 $301 $437 reversed $117 $-1 #
coedge $-1 $187 $438 $439 $440 reversed $117 $-1 #
coedge $-1 $189 $188 $435 $441 reversed $74 $-1 #
coedge $-1 $439 $442 $188 $306 forward $443 $-1 #
edge $-1 $444 -36.572513041989382 $310 -24.668886241016921 $305 $445 forward 7 unknown #
coedge $-1 $446 $301 $189 $308 forward $185 $-1 #
edge $-1 $309 24.668886241016921 $447 36.572513041989382 $307 $448 forward 7 unknown #
vertex $-1 $308 $449 #
vertex $-1 $306 $450 #
straight-curve $-1 -55.289585882520072 0 10.047046076296269 0 -1 0 I I #
face $-1 $-1 $451 $44 $-1 $452 reversed single #
loop $-1 $-1 $197 $191 #
plane-surface $-1 0 0 13.047046076296269 0 0 1 1 0 0 forward_v I I I I #
coedge $-1 $453 $454 $455 $456 reversed $192 $-1 #
coedge $-1 $457 $194 $196 $322 forward $121 $-1 #
coedge $-1 $194 $457 $453 $458 forward $121 $-1 #
coedge $-1 $455 $197 $194 $319 forward $313 $-1 #
edge $-1 $325 -24.039458744013501 $459 4.5627249752005525 $318 $460 forward 7 unknown #
coedge $-1 $461 $462 $195 $321 forward $451 $-1 #
edge $-1 $463 -76.919738131273434 $324 -68.728340166315562 $320 $464 forward 7 unknown #
edge $-1 $325 75.673044494814604 $463 87.914896516821585 $196 $465 forward 7 unknown #
coedge $-1 $197 $455 $461 $466 forward $313 $-1 #
vertex $-1 $321 $467 #
vertex $-1 $198 $468 #
straight-curve $-1 -33.777825628419976 34.273009920140765 13.047046076296269 0 -1 0 I I #
coedge $-1 $327 $327 $-1 $469 reversed $201 $-1 #
edge $-1 $470 0 $470 6.2831853071796004 $202 $471 forward 7 unknown #
vertex $-1 $205 $472 #
ellipse-curve $-1 -19.476733768812949 39.408713810556044 8.9513470938173327 0 0.66913061440640931 0.74314481823134659 2 0 0 1 I I #
face $-1 $-1 $473 $46 $-1 $474 reversed single #
loop $-1 $-1 $212 $206 #
plane-surface $-1 0 0 13.047046076296269 0 0 1 1 0 0 forward_v I I I I #
coedge $-1 $475 $476 $477 $478 reversed $207 $-1 #
coedge $-1 $479 $209 $211 $341 forward $130 $-1 #
coedge $-1 $209 $479 $475 $480 forward $130 $-1 #
coedge $-1 $477 $212 $209 $338 forward $332 $-1 #
edge $-1 $344 6.5812408974896499 $481 35.183424616703704 $337 $482 forward 7 unknown #
coedge $-1 $483 $484 $210 $340 forward $473 $-1 #
edge $-1 $485 -76.919738131273434 $343 -68.728340166315562 $339 $486 forward 7 unknown #
edge $-1 $344 75.673044494814604 $485 87.914896516821585 $211 $487 forward 7 unknown #
coedge $-1 $212 $477 $483 $488 forward $332 $-1 #
vertex $-1 $213 $489 #
vertex $-1 $213 $490 #
straight-curve $-1 27.463573654586327 34.273009920140765 13.047046076296269 0 -1 0 I I #
coedge $-1 $346 $346 $-1 $491 reversed $216 $-1 #
edge $-1 $492 0 $492 6.2831853071796004 $217 $493 forward 7 unknown #
vertex $-1 $220 $494 #
ellipse-curve $-1 41.764665514193354 39.408713810556044 8.9513470938173327 0 0.66913061440640931 0.74314481823134659 2 0 0 1 I I #
face $-1 $-1 $495 $48 $-1 $496 reversed single #
loop $-1 $-1 $356 $221 #
plane-surface $-1 0 0 13.047046076296269 0 0 1 1 0 0 forward_v I I I I #
coedge $-1 $497 $498 $355 $499 reversed $222 $-1 #
coedge $-1 $500 $224 $226 $360 forward $139 $-1 #
coedge $-1 $224 $500 $353 $499 forward $139 $-1 #
coedge $-1 $501 $227 $224 $357 forward $351 $-1 #
edge $-1 $363 14.528364338452032 $502 32.016935808862712 $356 $503 forward 7 unknown #
coedge $-1 $504 $505 $225 $359 forward $495 $-1 #
edge $-1 $506 -49.8320432796801 $362 -41.558777542195969 $358 $507 forward 7 unknown #
edge $-1 $363 -13.146349224357413 $506 -8.8756469145121664e-015 $226 $508 forward 7 unknown #
coedge $-1 $227 $501 $504 $509 forward $351 $-1 #
vertex $-1 $359 $510 #
vertex $-1 $228 $511 #
straight-curve $-1 -37.801014412109403 -64.264783536165638 13.047046076296269 0 1 0 I I #
coedge $-1 $365 $365 $-1 $512 reversed $231 $-1 #
edge $-1 $513 0 $513 6.2831853071796004 $232 $514 forward 7 unknown #
vertex $-1 $235 $515 #
ellipse-curve $-1 -51.791871588437942 -38.849132196200692 8.9104132075542068 0 -0.62932039886446345 0.77714595512881146 1 0 0 1 I I #
coedge $-1 $369 $369 $-1 $516 reversed $238 $-1 #
edge $-1 $517 0 $517 6.2831853071796004 $239 $518 forward 7 unknown #
vertex $-1 $242 $519 #
ellipse-curve $-1 -46.545300147314741 -38.849132196200692 8.9104132075542068 0 -0.62932039886446345 0.77714595512881146 1 0 0 1 I I #
coedge $-1 $373 $373 $-1 $520 reversed $245 $-1 #
edge $-1 $521 0 $521 6.2831853071796004 $246 $522 forward 7 unknown #
vertex $-1 $249 $523 #
ellipse-curve $-1 -41.29872870619154 -38.849132196200692 8.9104132075542068 0 -0.62932039886446345 0.77714595512881146 1 0 0 1 I I #
face $-1 $-1 $389 $52 $-1 $524 forward single #
loop $-1 $-1 $525 $250 #
plane-surface $-1 0 -43.957448258410771 0 0 1 0 0 0 1 forward_v I I I I #
coedge $-1 $526 $527 $528 $529 reversed $251 $-1 #
coedge $-1 $530 $253 $255 $387 forward $158 $-1 #
coedge $-1 $253 $530 $526 $531 forward $158 $-1 #
coedge $-1 $528 $256 $253 $384 forward $389 $-1 #
edge $-1 $391 -16.092335303051115 $532 1.3962361673595609 $383 $533 forward 7 unknown #
coedge $-1 $534 $535 $254 $386 forward $378 $-1 #
edge $-1 $536 -49.8320432796801 $390 -41.558777542195969 $385 $537 forward 7 unknown #
edge $-1 $391 -13.146349224357413 $536 -8.8756469145121664e-015 $255 $538 forward 7 unknown #
coedge $-1 $256 $528 $534 $539 forward $389 $-1 #
loop $-1 $-1 $528 $377 #
vertex $-1 $386 $540 #
vertex $-1 $257 $541 #
straight-curve $-1 23.440384870896892 -64.264783536165638 13.047046076296269 0 1 0 I I #
coedge $-1 $393 $393 $-1 $542 reversed $260 $-1 #
edge $-1 $543 0 $543 6.2831853071796004 $261 $544 forward 7 unknown #
vertex $-1 $264 $545 #
ellipse-curve $-1 9.4495276945683599 -38.849132196200692 8.9104132075542068 0 -0.62932039886446345 0.77714595512881146 1 0 0 1 I I #
coedge $-1 $397 $397 $-1 $546 reversed $267 $-1 #
edge $-1 $547 0 $547 6.2831853071796004 $268 $548 forward 7 unknown #
vertex $-1 $271 $549 #
ellipse-curve $-1 14.696099135691554 -38.849132196200692 8.9104132075542068 0 -0.62932039886446345 0.77714595512881146 1 0 0 1 I I #
coedge $-1 $401 $401 $-1 $550 reversed $274 $-1 #
edge $-1 $551 0 $551 6.2831853071796004 $275 $552 forward 7 unknown #
vertex $-1 $278 $553 #
ellipse-curve $-1 19.942670576814763 -38.849132196200692 8.9104132075542068 0 -0.62932039886446345 0.77714595512881146 1 0 0 1 I I #
face $-1 $-1 $294 $42 $-1 $554 reversed single #
loop $-1 $-1 $421 $279 #
plane-surface $-1 0 43.957448258410771 0 0 -1 0 0 0 -1 forward_v I I I I #
coedge $-1 $555 $419 $422 $556 forward $280 $-1 #
coedge $-1 $425 $282 $283 $413 reversed $177 $-1 #
coedge $-1 $419 $555 $282 $411 reversed $280 $-1 #
edge $-1 $426 -13.047046076296269 $557 13.047046076296269 $410 $558 forward 7 unknown #
coedge $-1 $284 $283 $555 $559 forward $113 $-1 #
edge $-1 $417 -67.193212683492533 $557 67.193212683492533 $409 $560 forward 7 unknown #
coedge $-1 $422 $421 $284 $415 reversed $406 $-1 #
edge $-1 $561 -67.193212683492533 $416 67.193212683492533 $414 $562 forward 7 unknown #
vertex $-1 $286 $563 #
vertex $-1 $428 $564 #
straight-curve $-1 67.193212683492533 0 -13.047046076296269 0 -1 0 I I #
coedge $-1 $408 $410 $287 $420 reversed $280 $-1 #
edge $-1 $423 -43.957448258410771 $426 43.957448258410771 $419 $565 forward 7 unknown #
coedge $-1 $414 $288 $293 $429 forward $406 $-1 #
coedge $-1 $288 $414 $408 $556 reversed $406 $-1 #
vertex $-1 $289 $566 #
straight-curve $-1 0 43.957448258410771 13.047046076296269 -1 0 0 I I #
coedge $-1 $290 $409 $292 $428 reversed $177 $-1 #
vertex $-1 $420 $567 #
straight-curve $-1 0 -43.957448258410771 13.047046076296269 1 0 0 I I #
edge $-1 $295 -13.047046076296269 $417 13.047046076296269 $292 $568 forward 7 unknown #
edge $-1 $296 -13.047046076296269 $416 13.047046076296269 $293 $569 forward 7 unknown #
point $-1 67.193212683492533 -43.957448258410771 13.047046076296269 #
point $-1 67.193212683492533 43.957448258410771 13.047046076296269 #
face $-1 $-1 $443 $43 $-1 $570 reversed single #
loop $-1 $-1 $571 $298 #
plane-surface $-1 0 0 13.047046076296269 0 0 1 1 0 0 forward_v I I I I #
coedge $-1 $572 $573 $304 $441 forward $299 $-1 #
coedge $-1 $301 $446 $574 $575 reversed $185 $-1 #
edge $-1 $576 -7.2735230381481344 $309 -4.2735230381481344 $301 $577 forward 7 unknown #
coedge $-1 $303 $302 $571 $578 reversed $117 $-1 #
coedge $-1 $579 $305 $303 $440 forward $443 $-1 #
edge $-1 $310 4.2735230381481344 $580 7.2735230381481344 $439 $581 forward 7 unknown #
edge $-1 $447 -43.957448258410771 $444 43.957448258410771 $435 $582 forward 7 unknown #
coedge $-1 $305 $579 $572 $583 forward $443 $-1 #
loop $-1 $-1 $439 $432 #
vertex $-1 $441 $584 #
straight-curve $-1 -30.620699641503151 -43.957448258410771 10.047046076296269 1 0 0 I I #
coedge $-1 $436 $307 $573 $585 reversed $185 $-1 #
vertex $-1 $441 $586 #
straight-curve $-1 -30.620699641503151 43.957448258410771 10.047046076296269 -1 0 0 I I #
point $-1 -55.289585882520072 43.957448258410771 10.047046076296269 #
point $-1 -55.289585882520072 -43.957448258410771 10.047046076296269 #
loop $-1 $-1 $320 $312 #
plane-surface $-1 0 43.957448258410771 0 0 -1 0 0 0 -1 forward_v I I I I #
coedge $-1 $454 $315 $317 $458 reversed $192 $-1 #
coedge $-1 $315 $453 $587 $588 reversed $192 $-1 #
coedge $-1 $323 $318 $315 $456 forward $313 $-1 #
edge $-1 $459 0.58696944256057293 $589 9.6844383382700059 $455 $590 forward 7 unknown #
coedge $-1 $317 $316 $462 $591 reversed $121 $-1 #
edge $-1 $592 -87.914896516821585 $459 -75.673044494814604 $453 $593 forward 7 unknown #
vertex $-1 $319 $594 #
straight-curve $-1 -9.7383668844064744 34.859979362701345 13.047046076296269 1 0 0 I I #
coedge $-1 $587 $320 $323 $466 reversed $451 $-1 #
coedge $-1 $320 $587 $457 $591 forward $451 $-1 #
vertex $-1 $321 $595 #
straight-curve $-1 -33.777825628419976 43.957448258410771 81.77538624261183 0 0 1 I I #
straight-curve $-1 -33.777825628419976 -21.376051533410262 63.682196833115114 0 0.74314481823134659 -0.66913061440640931 I I #
edge $-1 $589 5.1756419092059218 $324 33.777825628419976 $461 $596 forward 7 unknown #
point $-1 -33.777825628419976 43.957448258410771 13.047046076296269 #
point $-1 -33.777825628419976 34.859979362701338 13.047046076296269 #
edge $-1 $597 1 $597 0 $327 $-1 forward 7 unknown #
vertex $-1 $328 $598 #
ellipse-curve $-1 -19.476733768812949 35.635754054773486 4.761050862352068 0 0.66913061440640931 0.74314481823134659 2 0 0 1 I I #
point $-1 -17.476733768812949 39.40871381055608 8.9513470938173718 #
loop $-1 $-1 $339 $331 #
plane-surface $-1 0 43.957448258410771 0 0 -1 0 0 0 -1 forward_v I I I I #
coedge $-1 $476 $334 $336 $480 reversed $207 $-1 #
coedge $-1 $334 $475 $599 $600 reversed $207 $-1 #
coedge $-1 $342 $337 $334 $478 forward $332 $-1 #
edge $-1 $481 0.58696944256057293 $601 9.6844383382700059 $477 $602 forward 7 unknown #
coedge $-1 $336 $335 $484 $603 reversed $130 $-1 #
edge $-1 $604 -87.914896516821585 $481 -75.673044494814604 $475 $605 forward 7 unknown #
vertex $-1 $338 $606 #
straight-curve $-1 20.882332757096677 34.859979362701345 13.047046076296269 1 0 0 I I #
coedge $-1 $599 $339 $342 $488 reversed $473 $-1 #
coedge $-1 $339 $599 $479 $603 forward $473 $-1 #
vertex $-1 $340 $607 #
straight-curve $-1 27.463573654586327 43.957448258410771 81.77538624261183 0 0 1 I I #
straight-curve $-1 27.463573654586327 -21.376051533410262 63.682196833115114 0 0.74314481823134659 -0.66913061440640931 I I #
edge $-1 $601 -56.06575737380038 $343 -27.463573654586327 $483 $608 forward 7 unknown #
point $-1 27.463573654586327 43.957448258410771 13.047046076296269 #
point $-1 27.463573654586327 34.859979362701338 13.047046076296269 #
edge $-1 $609 1 $609 0 $346 $-1 forward 7 unknown #
vertex $-1 $347 $610 #
ellipse-curve $-1 41.764665514193354 35.635754054773486 4.761050862352068 0 0.66913061440640931 0.74314481823134659 2 0 0 1 I I #
point $-1 43.764665514193354 39.40871381055608 8.9513470938173718 #
loop $-1 $-1 $358 $350 #
plane-surface $-1 0 -43.957448258410771 0 0 1 0 0 0 1 forward_v I I I I #
coedge $-1 $498 $353 $611 $612 reversed $222 $-1 #
coedge $-1 $353 $497 $501 $613 reversed $222 $-1 #
edge $-1 $614 8.8756469145121664e-015 $502 13.146349224357413 $353 $615 forward 7 unknown #
coedge $-1 $355 $354 $505 $616 reversed $139 $-1 #
coedge $-1 $361 $356 $498 $613 forward $351 $-1 #
vertex $-1 $613 $617 #
straight-curve $-1 -23.27265007365737 -33.740816133990627 13.047046076296269 -1 0 0 I I #
coedge $-1 $611 $358 $361 $509 reversed $495 $-1 #
coedge $-1 $358 $611 $500 $616 forward $495 $-1 #
vertex $-1 $359 $618 #
straight-curve $-1 -37.801014412109403 -43.957448258410771 54.605823618492238 0 0 1 I I #
straight-curve $-1 -37.801014412109403 -43.957448258410778 4.7737803388121307 0 -0.77714595512881146 -0.62932039886446345 I I #
edge $-1 $619 -55.289585882520072 $362 -37.801014412109403 $504 $620 forward 7 unknown #
point $-1 -37.801014412109403 -43.957448258410771 13.047046076296269 #
point $-1 -37.801014412109403 -33.740816133990627 13.047046076296269 #
edge $-1 $621 1 $621 0 $365 $-1 forward 7 unknown #
vertex $-1 $366 $622 #
ellipse-curve $-1 -51.791871588437942 -37.266468312768389 6.9559861183366971 0 -0.62932039886446345 0.77714595512881146 1 0 0 1 I I #
point $-1 -50.791871588437942 -38.849132196200685 8.9104132075541926 #
edge $-1 $623 1 $623 0 $369 $-1 forward 7 unknown #
vertex $-1 $370 $624 #
ellipse-curve $-1 -46.545300147314741 -37.266468312768389 6.9559861183366971 0 -0.62932039886446345 0.77714595512881146 1 0 0 1 I I #
point $-1 -45.545300147314741 -38.849132196200685 8.9104132075541926 #
edge $-1 $625 1 $625 0 $373 $-1 forward 7 unknown #
vertex $-1 $374 $626 #
ellipse-curve $-1 -41.29872870619154 -37.266468312768389 6.9559861183366971 0 -0.62932039886446345 0.77714595512881146 1 0 0 1 I I #
point $-1 -40.29872870619154 -38.849132196200685 8.9104132075541926 #
plane-surface $-1 0 0 13.047046076296269 0 0 1 1 0 0 forward_v I I I I #
coedge $-1 $535 $534 $527 $627 forward $378 $-1 #
coedge $-1 $527 $380 $382 $531 reversed $251 $-1 #
coedge $-1 $380 $526 $525 $627 reversed $251 $-1 #
coedge $-1 $388 $383 $380 $529 forward $389 $-1 #
edge $-1 $532 -30.52396740217501 $628 -20.307335277754866 $528 $629 forward 7 unknown #
coedge $-1 $382 $381 $535 $630 reversed $158 $-1 #
edge $-1 $631 8.8756469145121664e-015 $532 13.146349224357413 $526 $632 forward 7 unknown #
vertex $-1 $384 $633 #
straight-curve $-1 7.3480495678457771 -33.740816133990627 13.047046076296269 -1 0 0 I I #
coedge $-1 $525 $385 $388 $539 reversed $378 $-1 #
coedge $-1 $385 $525 $530 $630 forward $378 $-1 #
vertex $-1 $386 $634 #
straight-curve $-1 23.440384870896892 -43.957448258410771 54.605823618492238 0 0 1 I I #
straight-curve $-1 23.440384870896892 -43.957448258410778 4.7737803388121307 0 -0.77714595512881146 -0.62932039886446345 I I #
edge $-1 $628 5.9518134004862162 $390 23.440384870896892 $534 $635 forward 7 unknown #
point $-1 23.440384870896892 -43.957448258410771 13.047046076296269 #
point $-1 23.440384870896892 -33.740816133990627 13.047046076296269 #
edge $-1 $636 1 $636 0 $393 $-1 forward 7 unknown #
vertex $-1 $394 $637 #
ellipse-curve $-1 9.4495276945683599 -37.266468312768389 6.9559861183366971 0 -0.62932039886446345 0.77714595512881146 1 0 0 1 I I #
point $-1 10.44952769456836 -38.849132196200685 8.9104132075541926 #
edge $-1 $638 1 $638 0 $397 $-1 forward 7 unknown #
vertex $-1 $398 $639 #
ellipse-curve $-1 14.696099135691554 -37.266468312768389 6.9559861183366971 0 -0.62932039886446345 0.77714595512881146 1 0 0 1 I I #
point $-1 15.696099135691554 -38.849132196200685 8.9104132075541926 #
edge $-1 $640 1 $640 0 $401 $-1 forward 7 unknown #
vertex $-1 $402 $641 #
ellipse-curve $-1 19.942670576814763 -37.266468312768389 6.9559861183366971 0 -0.62932039886446345 0.77714595512881146 1 0 0 1 I I #
point $-1 20.942670576814763 -38.849132196200685 8.9104132075541926 #
plane-surface $-1 67.193212683492533 0 0 -1 0 0 0 0 1 forward_v I I I I #
coedge $-1 $410 $408 $412 $559 reversed $280 $-1 #
edge $-1 $423 -13.047046076296269 $561 13.047046076296269 $422 $642 forward 7 unknown #
vertex $-1 $559 $643 #
straight-curve $-1 -67.193212683492533 -43.957448258410771 0 0 0 -1 I I #
edge $-1 $557 -43.957448258410771 $561 43.957448258410771 $555 $644 forward 7 unknown #
straight-curve $-1 0 -43.957448258410771 -13.047046076296269 -1 0 0 I I #
vertex $-1 $415 $645 #
straight-curve $-1 0 43.957448258410771 -13.047046076296269 1 0 0 I I #
point $-1 67.193212683492533 43.957448258410771 -13.047046076296269 #
point $-1 67.193212683492533 -43.957448258410771 -13.047046076296269 #
straight-curve $-1 -67.193212683492533 0 13.047046076296269 0 -1 0 I I #
point $-1 -67.193212683492533 43.957448258410771 13.047046076296269 #
point $-1 -67.193212683492533 -43.957448258410771 13.047046076296269 #
straight-curve $-1 67.193212683492533 -43.957448258410771 0 0 0 -1 I I #
straight-curve $-1 67.193212683492533 43.957448258410771 0 0 0 -1 I I #
plane-surface $-1 0 -43.957448258410771 0 0 1 0 0 0 1 forward_v I I I I #
coedge $-1 $574 $646 $438 $578 forward $433 $-1 #
coedge $-1 $647 $435 $442 $583 reversed $299 $-1 #
coedge $-1 $435 $647 $446 $585 forward $299 $-1 #
coedge $-1 $648 $571 $436 $575 forward $433 $-1 #
edge $-1 $576 55.289585882520072 $649 67.193212683492533 $436 $650 forward 7 unknown #
vertex $-1 $575 $651 #
straight-curve $-1 -55.289585882520072 43.957448258410771 5.7735230381481344 0 0 -1 I I #
edge $-1 $580 -43.957448258410771 $576 43.957448258410771 $571 $652 forward 7 unknown #
coedge $-1 $442 $439 $646 $653 reversed $443 $-1 #
vertex $-1 $440 $654 #
straight-curve $-1 -55.289585882520072 -43.957448258410771 5.7735230381481344 0 0 1 I I #
straight-curve $-1 -67.193212683492533 0 10.047046076296269 0 -1 0 I I #
edge $-1 $655 -13.047046076296269 $444 -10.047046076296269 $572 $656 forward 7 unknown #
point $-1 -67.193212683492533 -43.957448258410771 10.047046076296269 #
edge $-1 $649 -13.047046076296269 $447 -10.047046076296269 $446 $657 forward 7 unknown #
point $-1 -67.193212683492533 43.957448258410771 10.047046076296269 #
coedge $-1 $462 $461 $454 $588 forward $451 $-1 #
edge $-1 $589 68.728340166315562 $592 76.919738131273434 $587 $658 forward 7 unknown #
vertex $-1 $466 $659 #
straight-curve $-1 -5.1756419092059218 34.273009920140765 13.047046076296269 0 1 0 I I #
edge $-1 $592 -4.5627249752005525 $463 24.039458744013501 $462 $660 forward 7 unknown #
vertex $-1 $591 $661 #
straight-curve $-1 -5.1756419092059218 -21.376051533410262 63.682196833115114 0 -0.74314481823134659 0.66913061440640931 I I #
point $-1 -5.1756419092059218 34.859979362701338 13.047046076296269 #
point $-1 -33.777825628419976 43.957448258410764 4.8556481113383967 #
straight-curve $-1 0 43.957448258410771 13.047046076296269 -1 0 0 I I #
vertex $-1 $469 $662 #
point $-1 -17.476733768812949 35.635754054773486 4.761050862352068 #
coedge $-1 $484 $483 $476 $600 forward $473 $-1 #
edge $-1 $601 68.728340166315562 $604 76.919738131273434 $599 $663 forward 7 unknown #
vertex $-1 $488 $664 #
straight-curve $-1 56.06575737380038 34.273009920140765 13.047046076296269 0 1 0 I I #
edge $-1 $604 -35.183424616703704 $485 -6.5812408974896499 $484 $665 forward 7 unknown #
vertex $-1 $603 $666 #
straight-curve $-1 56.06575737380038 -21.376051533410262 63.682196833115114 0 -0.74314481823134659 0.66913061440640931 I I #
point $-1 56.06575737380038 34.859979362701338 13.047046076296269 #
point $-1 27.463573654586327 43.957448258410764 4.8556481113383967 #
straight-curve $-1 0 43.957448258410771 13.047046076296269 -1 0 0 I I #
vertex $-1 $491 $667 #
point $-1 43.764665514193354 35.635754054773486 4.761050862352068 #
coedge $-1 $505 $504 $497 $612 forward $495 $-1 #
edge $-1 $619 41.558777542195969 $614 49.8320432796801 $611 $668 forward 7 unknown #
edge $-1 $502 33.740816133990627 $619 43.957448258410771 $501 $669 forward 7 unknown #
vertex $-1 $612 $670 #
straight-curve $-1 -55.289585882520079 -43.957448258410778 4.7737803388121307 0 0.77714595512881146 0.62932039886446345 I I #
edge $-1 $614 -32.016935808862712 $506 -14.528364338452032 $505 $671 forward 7 unknown #
point $-1 -55.289585882520079 -33.740816133990627 13.047046076296269 #
point $-1 -37.801014412109403 -43.957448258410771 4.773780338812136 #
vertex $-1 $509 $672 #
straight-curve $-1 0 -43.957448258410771 13.047046076296269 1 0 0 I I #
vertex $-1 $512 $673 #
point $-1 -50.791871588437942 -37.266468312768389 6.9559861183366971 #
vertex $-1 $516 $674 #
point $-1 -45.545300147314741 -37.266468312768389 6.9559861183366971 #
vertex $-1 $520 $675 #
point $-1 -40.29872870619154 -37.266468312768389 6.9559861183366971 #
edge $-1 $628 41.558777542195969 $631 49.8320432796801 $525 $676 forward 7 unknown #
vertex $-1 $539 $677 #
straight-curve $-1 5.9518134004862162 -64.264783536165638 13.047046076296269 0 -1 0 I I #
edge $-1 $631 -1.3962361673595609 $536 16.092335303051115 $535 $678 forward 7 unknown #
vertex $-1 $630 $679 #
straight-curve $-1 5.9518134004862162 -43.957448258410778 4.7737803388121307 0 0.77714595512881146 0.62932039886446345 I I #
point $-1 5.9518134004862162 -33.740816133990627 13.047046076296269 #
point $-1 23.440384870896892 -43.957448258410771 4.773780338812136 #
straight-curve $-1 0 -43.957448258410771 13.047046076296269 1 0 0 I I #
vertex $-1 $542 $680 #
point $-1 10.44952769456836 -37.266468312768389 6.9559861183366971 #
vertex $-1 $546 $681 #
point $-1 15.696099135691554 -37.266468312768389 6.9559861183366971 #
vertex $-1 $550 $682 #
point $-1 20.942670576814763 -37.266468312768389 6.9559861183366971 #
straight-curve $-1 -67.193212683492533 43.957448258410771 0 0 0 -1 I I #
point $-1 -67.193212683492533 -43.957448258410771 -13.047046076296269 #
straight-curve $-1 -67.193212683492533 0 -13.047046076296269 0 1 0 I I #
point $-1 -67.193212683492533 43.957448258410771 -13.047046076296269 #
coedge $-1 $571 $648 $579 $653 forward $433 $-1 #
coedge $-1 $573 $572 $648 $683 reversed $299 $-1 #
coedge $-1 $646 $574 $647 $683 forward $433 $-1 #
vertex $-1 $575 $684 #
straight-curve $-1 0 43.957448258410771 13.047046076296269 -1 0 0 I I #
point $-1 -55.289585882520072 43.957448258410771 13.047046076296269 #
straight-curve $-1 -55.289585882520072 0 13.047046076296269 0 1 0 I I #
edge $-1 $655 -67.193212683492533 $580 -55.289585882520072 $579 $685 forward 7 unknown #
point $-1 -55.289585882520072 -43.957448258410771 13.047046076296269 #
vertex $-1 $683 $686 #
straight-curve $-1 -67.193212683492533 -43.957448258410771 0 0 0 -1 I I #
straight-curve $-1 -67.193212683492533 43.957448258410771 0 0 0 -1 I I #
straight-curve $-1 -5.1756419092059218 43.957448258410771 81.77538624261183 0 0 -1 I I #
point $-1 -5.1756419092059218 43.957448258410771 13.047046076296269 #
straight-curve $-1 -9.7383668844064744 43.957448258410764 4.8556481113383931 -1 0 0 I I #
point $-1 -5.1756419092059218 43.957448258410764 4.8556481113383967 #
point $-1 -19.476733768812949 34.297492825960674 3.2747612258893746 #
straight-curve $-1 56.06575737380038 43.957448258410771 81.77538624261183 0 0 -1 I I #
point $-1 56.06575737380038 43.957448258410771 13.047046076296269 #
straight-curve $-1 20.882332757096677 43.957448258410764 4.8556481113383931 -1 0 0 I I #
point $-1 56.06575737380038 43.957448258410764 4.8556481113383967 #
point $-1 41.764665514193354 34.297492825960674 3.2747612258893746 #
straight-curve $-1 -55.289585882520079 -43.957448258410771 54.605823618492238 0 0 -1 I I #
straight-curve $-1 -55.289585882520072 0 13.047046076296269 0 -1 0 I I #
point $-1 -55.289585882520079 -43.957448258410771 4.773780338812136 #
straight-curve $-1 -23.27265007365737 -43.957448258410771 4.7737803388121378 1 0 0 I I #
point $-1 -55.289585882520072 -43.957448258410771 13.047046076296269 #
point $-1 -51.791871588437942 -36.637147913903924 6.1788401632078864 #
point $-1 -46.545300147314741 -36.637147913903924 6.1788401632078864 #
point $-1 -41.29872870619154 -36.637147913903924 6.1788401632078864 #
straight-curve $-1 5.9518134004862162 -43.957448258410771 54.605823618492238 0 0 -1 I I #
point $-1 5.9518134004862162 -43.957448258410771 13.047046076296269 #
straight-curve $-1 7.3480495678457771 -43.957448258410771 4.7737803388121378 1 0 0 I I #
point $-1 5.9518134004862162 -43.957448258410771 4.773780338812136 #
point $-1 9.4495276945683599 -36.637147913903924 6.1788401632078864 #
point $-1 14.696099135691554 -36.637147913903924 6.1788401632078864 #
point $-1 19.942670576814763 -36.637147913903924 6.1788401632078864 #
edge $-1 $649 -43.957448258410771 $655 43.957448258410771 $647 $687 forward 7 unknown #
point $-1 -67.193212683492533 43.957448258410771 13.047046076296269 #
straight-curve $-1 0 -43.957448258410771 13.047046076296269 1 0 0 I I #
point $-1 -67.193212683492533 -43.957448258410771 13.047046076296269 #
straight-curve $-1 -67.193212683492533 0 13.047046076296269 0 -1 0 I I #
End-of-ACIS-data 