500 0 17 0           
7 Unknown 11 ACIS 5.0 NT 24 Thu Mar 25 17:50:15 1999 
-1 9.9999999999999995e-007 1e-010 
body $-1 $17 $-1 $18 #
body $-1 $19 $-1 $20 #
body $-1 $21 $-1 $22 #
body $-1 $23 $-1 $24 #
body $-1 $25 $-1 $26 #
body $-1 $27 $-1 $28 #
body $-1 $29 $-1 $30 #
body $-1 $31 $-1 $32 #
body $-1 $33 $-1 $34 #
body $-1 $35 $-1 $36 #
body $-1 $37 $-1 $38 #
body $-1 $39 $-1 $40 #
body $-1 $41 $-1 $42 #
body $-1 $43 $-1 $44 #
body $-1 $45 $-1 $46 #
body $-1 $47 $-1 $48 #
body $-1 $49 $-1 $50 #
lump $-1 $-1 $51 $0 #
transform $-1 1 0 0 0 1 0 0 0 1 65.373088778344055 31.960331909686044 9.7053404523132727 1 rotate no_reflect no_shear #
lump $-1 $-1 $52 $1 #
transform $-1 1 0 0 0 1 0 0 0 1 -3.6240369769474881 31.960331909686044 16.533851771316108 1 rotate no_reflect no_shear #
lump $-1 $-1 $53 $2 #
transform $-1 1 0 0 0 1 0 0 0 1 134.37021453363559 31.960331909686044 16.533851771316108 1 rotate no_reflect no_shear #
lump $-1 $-1 $54 $3 #
transform $-1 1 0 0 0 0.82903756765294845 -0.55919291073839883 0 0.55919291073839883 0.82903756765294845 54.063039772683979 84.040367759641953 158.85724048457627 1 rotate no_reflect no_shear #
lump $-1 $-1 $55 $4 #
transform $-1 1 0 0 0 -0.82903756765294845 0.55919291073839883 0 -0.55919291073839883 -0.82903756765294845 49.215875913115376 59.036915825666597 14.980054643508158 1 rotate no_reflect no_shear #
lump $-1 $-1 $56 $5 #
transform $-1 1 0 0 0 -0.82903756765294845 0.55919291073839883 0 -0.55919291073839883 -0.82903756765294845 58.910203632252582 59.036915825666597 14.980054643508158 1 rotate no_reflect no_shear #
lump $-1 $-1 $57 $6 #
transform $-1 1 0 0 0 0.82903756765294845 -0.55919291073839883 0 0.55919291073839883 0.82903756765294845 76.683137784004131 84.040367759641953 158.85724048457627 1 rotate no_reflect no_shear #
lump $-1 $-1 $58 $7 #
transform $-1 1 0 0 0 -0.82903756765294845 0.55919291073839883 0 -0.55919291073839883 -0.82903756765294845 71.835973924435535 59.036915825666597 14.980054643508158 1 rotate no_reflect no_shear #
lump $-1 $-1 $59 $8 #
transform $-1 1 0 0 0 -0.82903756765294845 0.55919291073839883 0 -0.55919291073839883 -0.82903756765294845 81.530301643572727 59.036915825666597 14.980054643508158 1 rotate no_reflect no_shear #
lump $-1 $-1 $60 $9 #
transform $-1 1 0 0 0 0.77714595512881146 0.62932039886446345 0 -0.62932039886446345 0.77714595512881146 28.287193558211428 -82.281236609978919 114.02339268086102 1 rotate no_reflect no_shear #
lump $-1 $-1 $61 $10 #
transform $-1 1 0 0 0 -0.77714595512881146 -0.62932039886446345 0 0.62932039886446345 -0.77714595512881146 28.287193558211428 6.3345846636708449 13.42450847408305 1 rotate no_reflect no_shear #
lump $-1 $-1 $62 $11 #
transform $-1 1 0 0 0 0.77714595512881146 0.62932039886446345 0 -0.62932039886446345 0.77714595512881146 57.349700970435975 -82.281236609978919 114.02339268086102 1 rotate no_reflect no_shear #
lump $-1 $-1 $63 $12 #
transform $-1 1 0 0 0 -0.77714595512881146 -0.62932039886446345 0 0.62932039886446345 -0.77714595512881146 57.349700970435975 6.3345846636708449 13.42450847408305 1 rotate no_reflect no_shear #
lump $-1 $-1 $64 $13 #
transform $-1 1 0 0 0 0.77714595512881146 0.62932039886446345 0 -0.62932039886446345 0.77714595512881146 86.412208382660523 -82.281236609978919 114.02339268086102 1 rotate no_reflect no_shear #
lump $-1 $-1 $65 $14 #
transform $-1 1 0 0 0 -0.77714595512881146 -0.62932039886446345 0 0.62932039886446345 -0.77714595512881146 86.412208382660523 6.3345846636708449 13.42450847408305 1 rotate no_reflect no_shear #
lump $-1 $-1 $66 $15 #
transform $-1 1 0 0 0 0.77714595512881146 0.62932039886446345 0 -0.62932039886446345 0.77714595512881146 115.47471579488507 -82.281236609978919 114.02339268086102 1 rotate no_reflect no_shear #
lump $-1 $-1 $67 $16 #
transform $-1 1 0 0 0 -0.77714595512881146 -0.62932039886446345 0 0.62932039886446345 -0.77714595512881146 115.47471579488507 6.3345846636708449 13.42450847408305 1 rotate no_reflect no_shear #
shell $-1 $-1 $-1 $68 $-1 $17 #
shell $-1 $-1 $-1 $69 $-1 $19 #
shell $-1 $-1 $-1 $70 $-1 $21 #
shell $-1 $-1 $-1 $71 $-1 $23 #
shell $-1 $-1 $-1 $72 $-1 $25 #
shell $-1 $-1 $-1 $73 $-1 $27 #
shell $-1 $-1 $-1 $74 $-1 $29 #
shell $-1 $-1 $-1 $75 $-1 $31 #
shell $-1 $-1 $-1 $76 $-1 $33 #
shell $-1 $-1 $-1 $77 $-1 $35 #
shell $-1 $-1 $-1 $78 $-1 $37 #
shell $-1 $-1 $-1 $79 $-1 $39 #
shell $-1 $-1 $-1 $80 $-1 $41 #
shell $-1 $-1 $-1 $81 $-1 $43 #
shell $-1 $-1 $-1 $82 $-1 $45 #
shell $-1 $-1 $-1 $83 $-1 $47 #
shell $-1 $-1 $-1 $84 $-1 $49 #
face $-1 $85 $86 $51 $-1 $87 forward single #
face $-1 $88 $89 $52 $-1 $90 forward single #
face $-1 $91 $92 $53 $-1 $93 forward single #
face $-1 $94 $95 $54 $-1 $96 forward single #
face $-1 $97 $98 $55 $-1 $99 forward single #
face $-1 $100 $101 $56 $-1 $102 forward single #
face $-1 $103 $104 $57 $-1 $105 forward single #
face $-1 $106 $107 $58 $-1 $108 forward single #
face $-1 $109 $110 $59 $-1 $111 forward single #
face $-1 $112 $113 $60 $-1 $114 forward single #
face $-1 $115 $116 $61 $-1 $117 forward single #
face $-1 $118 $119 $62 $-1 $120 forward single #
face $-1 $121 $122 $63 $-1 $123 forward single #
face $-1 $124 $125 $64 $-1 $126 forward single #
face $-1 $127 $128 $65 $-1 $129 forward single #
face $-1 $130 $131 $66 $-1 $132 forward single #
face $-1 $133 $134 $67 $-1 $135 forward single #
face $-1 $136 $137 $51 $-1 $138 reversed single #
loop $-1 $-1 $139 $68 #
plane-surface $-1 0 0 9.7053404523132727 0 0 1 1 0 0 forward_v I I I I #
face $-1 $140 $141 $52 $-1 $142 reversed single #
loop $-1 $-1 $143 $69 #
plane-surface $-1 0 0 2.8768291333104372 0 0 1 1 0 0 forward_v I I I I #
face $-1 $144 $145 $53 $-1 $146 reversed single #
loop $-1 $-1 $147 $70 #
plane-surface $-1 0 0 2.8768291333104372 0 0 1 1 0 0 forward_v I I I I #
face $-1 $148 $149 $54 $-1 $150 reversed single #
loop $-1 $-1 $151 $71 #
plane-surface $-1 0 0 130.74617755668811 0 0 1 1 0 0 forward_v I I I I #
face $-1 $152 $153 $55 $-1 $154 forward single #
loop $-1 $155 $156 $72 #
cone-surface $-1 0 0 -1.5075838496047851 0 0 1 1 0 0 1 I I 0 1 1 forward I I I I #
face $-1 $157 $158 $56 $-1 $159 forward single #
loop $-1 $160 $161 $73 #
cone-surface $-1 0 0 -1.5075838496047851 0 0 1 1 0 0 1 I I 0 1 1 forward I I I I #
face $-1 $162 $163 $57 $-1 $164 reversed single #
loop $-1 $-1 $165 $74 #
plane-surface $-1 0 0 130.74617755668811 0 0 1 1 0 0 forward_v I I I I #
face $-1 $166 $167 $58 $-1 $168 forward single #
loop $-1 $169 $170 $75 #
cone-surface $-1 0 0 -1.5075838496047851 0 0 1 1 0 0 1 I I 0 1 1 forward I I I I #
face $-1 $171 $172 $59 $-1 $173 forward single #
loop $-1 $174 $175 $76 #
cone-surface $-1 0 0 -1.5075838496047851 0 0 1 1 0 0 1 I I 0 1 1 forward I I I I #
face $-1 $176 $177 $60 $-1 $178 reversed single #
loop $-1 $-1 $179 $77 #
plane-surface $-1 0 0 130.74617755668811 0 0 1 1 0 0 forward_v I I I I #
face $-1 $180 $181 $61 $-1 $182 forward single #
loop $-1 $183 $184 $78 #
cone-surface $-1 0 0 -1.9757911923581659 0 0 1 1.5 0 0 1 I I 0 1 1.5 forward I I I I #
face $-1 $185 $186 $62 $-1 $187 reversed single #
loop $-1 $-1 $188 $79 #
plane-surface $-1 0 0 130.74617755668811 0 0 1 1 0 0 forward_v I I I I #
face $-1 $189 $190 $63 $-1 $191 forward single #
loop $-1 $192 $193 $80 #
cone-surface $-1 0 0 -1.9757911923581659 0 0 1 1.5 0 0 1 I I 0 1 1.5 forward I I I I #
face $-1 $194 $195 $64 $-1 $196 reversed single #
loop $-1 $-1 $197 $81 #
plane-surface $-1 0 0 130.74617755668811 0 0 1 1 0 0 forward_v I I I I #
face $-1 $198 $199 $65 $-1 $200 forward single #
loop $-1 $201 $202 $82 #
cone-surface $-1 0 0 -1.9757911923581659 0 0 1 1.5 0 0 1 I I 0 1 1.5 forward I I I I #
face $-1 $203 $204 $66 $-1 $205 reversed single #
loop $-1 $-1 $206 $83 #
plane-surface $-1 0 0 130.74617755668811 0 0 1 1 0 0 forward_v I I I I #
face $-1 $207 $208 $67 $-1 $209 forward single #
loop $-1 $210 $211 $84 #
cone-surface $-1 0 0 -1.9757911923581659 0 0 1 1.5 0 0 1 I I 0 1 1.5 forward I I I I #
face $-1 $212 $213 $51 $-1 $214 reversed single #
loop $-1 $-1 $215 $85 #
plane-surface $-1 0 0 -9.7053404523132727 0 0 1 1 0 0 forward_v I I I I #
coedge $-1 $216 $217 $218 $219 forward $86 $-1 #
face $-1 $220 $221 $52 $-1 $222 reversed single #
loop $-1 $-1 $223 $88 #
plane-surface $-1 0 0 -2.8768291333104372 0 0 1 1 0 0 forward_v I I I I #
coedge $-1 $224 $225 $226 $227 forward $89 $-1 #
face $-1 $228 $229 $53 $-1 $230 reversed single #
loop $-1 $-1 $231 $91 #
plane-surface $-1 0 0 -2.8768291333104372 0 0 1 1 0 0 forward_v I I I I #
coedge $-1 $232 $233 $234 $235 forward $92 $-1 #
face $-1 $236 $237 $54 $-1 $238 reversed single #
loop $-1 $-1 $239 $94 #
plane-surface $-1 0 0 -130.74617755668811 0 0 1 1 0 0 forward_v I I I I #
coedge $-1 $240 $241 $242 $243 forward $95 $-1 #
face $-1 $-1 $244 $55 $-1 $245 forward single #
loop $-1 $-1 $246 $97 #
plane-surface $-1 0 0 -2.5151676992095702 0 0 -1 -1 0 0 forward_v I I I I #
loop $-1 $-1 $247 $72 #
coedge $-1 $156 $156 $246 $248 reversed $98 $-1 #
face $-1 $-1 $249 $56 $-1 $250 forward single #
loop $-1 $-1 $251 $100 #
plane-surface $-1 0 0 -2.5151676992095702 0 0 -1 -1 0 0 forward_v I I I I #
loop $-1 $-1 $252 $73 #
coedge $-1 $161 $161 $251 $253 reversed $101 $-1 #
face $-1 $254 $255 $57 $-1 $256 reversed single #
loop $-1 $-1 $257 $103 #
plane-surface $-1 0 0 -130.74617755668811 0 0 1 1 0 0 forward_v I I I I #
coedge $-1 $258 $259 $260 $261 forward $104 $-1 #
face $-1 $-1 $262 $58 $-1 $263 forward single #
loop $-1 $-1 $264 $106 #
plane-surface $-1 0 0 -2.5151676992095702 0 0 -1 -1 0 0 forward_v I I I I #
loop $-1 $-1 $265 $75 #
coedge $-1 $170 $170 $264 $266 reversed $107 $-1 #
face $-1 $-1 $267 $59 $-1 $268 forward single #
loop $-1 $-1 $269 $109 #
plane-surface $-1 0 0 -2.5151676992095702 0 0 -1 -1 0 0 forward_v I I I I #
loop $-1 $-1 $270 $76 #
coedge $-1 $175 $175 $269 $271 reversed $110 $-1 #
face $-1 $272 $273 $60 $-1 $274 reversed single #
loop $-1 $-1 $275 $112 #
plane-surface $-1 0 0 -130.74617755668811 0 0 1 1 0 0 forward_v I I I I #
coedge $-1 $276 $277 $278 $279 forward $113 $-1 #
face $-1 $-1 $280 $61 $-1 $281 forward single #
loop $-1 $-1 $282 $115 #
plane-surface $-1 0 0 -3.2015823847163318 0 0 -1 -1 0 0 forward_v I I I I #
loop $-1 $-1 $283 $78 #
coedge $-1 $184 $184 $282 $284 reversed $116 $-1 #
face $-1 $285 $286 $62 $-1 $287 reversed single #
loop $-1 $-1 $288 $118 #
plane-surface $-1 0 0 -130.74617755668811 0 0 1 1 0 0 forward_v I I I I #
coedge $-1 $289 $290 $291 $292 forward $119 $-1 #
face $-1 $-1 $293 $63 $-1 $294 forward single #
loop $-1 $-1 $295 $121 #
plane-surface $-1 0 0 -3.2015823847163318 0 0 -1 -1 0 0 forward_v I I I I #
loop $-1 $-1 $296 $80 #
coedge $-1 $193 $193 $295 $297 reversed $122 $-1 #
face $-1 $298 $299 $64 $-1 $300 reversed single #
loop $-1 $-1 $301 $124 #
plane-surface $-1 0 0 -130.74617755668811 0 0 1 1 0 0 forward_v I I I I #
coedge $-1 $302 $303 $304 $305 forward $125 $-1 #
face $-1 $-1 $306 $65 $-1 $307 forward single #
loop $-1 $-1 $308 $127 #
plane-surface $-1 0 0 -3.2015823847163318 0 0 -1 -1 0 0 forward_v I I I I #
loop $-1 $-1 $309 $82 #
coedge $-1 $202 $202 $308 $310 reversed $128 $-1 #
face $-1 $311 $312 $66 $-1 $313 reversed single #
loop $-1 $-1 $314 $130 #
plane-surface $-1 0 0 -130.74617755668811 0 0 1 1 0 0 forward_v I I I I #
coedge $-1 $315 $316 $317 $318 forward $131 $-1 #
face $-1 $-1 $319 $67 $-1 $320 forward single #
loop $-1 $-1 $321 $133 #
plane-surface $-1 0 0 -3.2015823847163318 0 0 -1 -1 0 0 forward_v I I I I #
loop $-1 $-1 $322 $84 #
coedge $-1 $211 $211 $321 $323 reversed $134 $-1 #
face $-1 $324 $325 $51 $-1 $326 reversed single #
loop $-1 $-1 $327 $136 #
plane-surface $-1 0 -31.960331909686044 0 0 1 0 0 0 1 forward_v I I I I #
coedge $-1 $328 $329 $330 $331 forward $137 $-1 #
coedge $-1 $332 $139 $333 $334 forward $86 $-1 #
coedge $-1 $139 $332 $335 $336 forward $86 $-1 #
coedge $-1 $337 $338 $139 $219 reversed $339 $-1 #
edge $-1 $340 -31.960331909686044 $341 31.960331909686044 $218 $342 forward 7 unknown #
face $-1 $343 $344 $52 $-1 $345 reversed single #
loop $-1 $-1 $346 $140 #
plane-surface $-1 0 -31.960331909686044 0 0 1 0 0 0 1 forward_v I I I I #
coedge $-1 $347 $348 $349 $350 forward $141 $-1 #
coedge $-1 $351 $143 $352 $353 forward $89 $-1 #
coedge $-1 $143 $351 $354 $355 forward $89 $-1 #
coedge $-1 $356 $357 $143 $227 reversed $358 $-1 #
edge $-1 $359 -31.960331909686044 $360 31.960331909686044 $226 $361 forward 7 unknown #
face $-1 $362 $363 $53 $-1 $364 reversed single #
loop $-1 $-1 $365 $144 #
plane-surface $-1 0 -31.960331909686044 0 0 1 0 0 0 1 forward_v I I I I #
coedge $-1 $366 $367 $368 $369 forward $145 $-1 #
coedge $-1 $370 $147 $371 $372 forward $92 $-1 #
coedge $-1 $147 $370 $373 $374 forward $92 $-1 #
coedge $-1 $375 $376 $147 $235 reversed $377 $-1 #
edge $-1 $378 -31.960331909686044 $379 31.960331909686044 $234 $380 forward 7 unknown #
face $-1 $381 $382 $54 $-1 $383 reversed single #
loop $-1 $-1 $384 $148 #
plane-surface $-1 0 -261.49235511337622 0 0 1 0 0 0 1 forward_v I I I I #
coedge $-1 $385 $386 $387 $388 forward $149 $-1 #
coedge $-1 $389 $151 $390 $391 forward $95 $-1 #
coedge $-1 $151 $389 $392 $393 forward $95 $-1 #
coedge $-1 $394 $395 $151 $243 reversed $396 $-1 #
edge $-1 $397 -261.49235511337622 $398 261.49235511337622 $242 $399 forward 7 unknown #
loop $-1 $400 $401 $152 #
cone-surface $-1 0 0 0 0 0 1 0.5 0 0 1 I I -0.70710678118654746 0.70710678118654746 0.5 forward I I I I #
coedge $-1 $246 $246 $156 $248 forward $153 $-1 #
coedge $-1 $247 $247 $401 $402 forward $155 $-1 #
edge $-1 $403 0 $403 6.2831853071796004 $246 $404 forward 7 unknown #
loop $-1 $405 $406 $157 #
cone-surface $-1 0 0 0 0 0 1 0.5 0 0 1 I I -0.70710678118654746 0.70710678118654746 0.5 forward I I I I #
coedge $-1 $251 $251 $161 $253 forward $158 $-1 #
coedge $-1 $252 $252 $406 $407 forward $160 $-1 #
edge $-1 $408 0 $408 6.2831853071796004 $251 $409 forward 7 unknown #
face $-1 $410 $411 $57 $-1 $412 reversed single #
loop $-1 $-1 $413 $162 #
plane-surface $-1 0 -261.49235511337622 0 0 1 0 0 0 1 forward_v I I I I #
coedge $-1 $414 $415 $416 $417 forward $163 $-1 #
coedge $-1 $418 $165 $419 $420 forward $104 $-1 #
coedge $-1 $165 $418 $421 $422 forward $104 $-1 #
coedge $-1 $423 $424 $165 $261 reversed $425 $-1 #
edge $-1 $426 -261.49235511337622 $427 261.49235511337622 $260 $428 forward 7 unknown #
loop $-1 $429 $430 $166 #
cone-surface $-1 0 0 0 0 0 1 0.5 0 0 1 I I -0.70710678118654746 0.70710678118654746 0.5 forward I I I I #
coedge $-1 $264 $264 $170 $266 forward $167 $-1 #
coedge $-1 $265 $265 $430 $431 forward $169 $-1 #
edge $-1 $432 0 $432 6.2831853071796004 $264 $433 forward 7 unknown #
loop $-1 $434 $435 $171 #
cone-surface $-1 0 0 0 0 0 1 0.5 0 0 1 I I -0.70710678118654746 0.70710678118654746 0.5 forward I I I I #
coedge $-1 $269 $269 $175 $271 forward $172 $-1 #
coedge $-1 $270 $270 $435 $436 forward $174 $-1 #
edge $-1 $437 0 $437 6.2831853071796004 $269 $438 forward 7 unknown #
face $-1 $439 $440 $60 $-1 $441 reversed single #
loop $-1 $-1 $442 $176 #
plane-surface $-1 0 -261.49235511337622 0 0 1 0 0 0 1 forward_v I I I I #
coedge $-1 $443 $444 $445 $446 forward $177 $-1 #
coedge $-1 $447 $179 $448 $449 forward $113 $-1 #
coedge $-1 $179 $447 $450 $451 forward $113 $-1 #
coedge $-1 $452 $453 $179 $279 reversed $454 $-1 #
edge $-1 $455 -261.49235511337622 $456 261.49235511337622 $278 $457 forward 7 unknown #
loop $-1 $458 $459 $180 #
cone-surface $-1 0 0 0 0 0 1 0.75 0 0 1 I I -0.70710678118654757 0.70710678118654757 0.75 forward I I I I #
coedge $-1 $282 $282 $184 $284 forward $181 $-1 #
coedge $-1 $283 $283 $459 $460 forward $183 $-1 #
edge $-1 $461 0 $461 6.2831853071796004 $282 $462 forward 7 unknown #
face $-1 $463 $464 $62 $-1 $465 reversed single #
loop $-1 $-1 $466 $185 #
plane-surface $-1 0 -261.49235511337622 0 0 1 0 0 0 1 forward_v I I I I #
coedge $-1 $467 $468 $469 $470 forward $186 $-1 #
coedge $-1 $471 $188 $472 $473 forward $119 $-1 #
coedge $-1 $188 $471 $474 $475 forward $119 $-1 #
coedge $-1 $476 $477 $188 $292 reversed $478 $-1 #
edge $-1 $479 -261.49235511337622 $480 261.49235511337622 $291 $481 forward 7 unknown #
loop $-1 $482 $483 $189 #
cone-surface $-1 0 0 0 0 0 1 0.75 0 0 1 I I -0.70710678118654757 0.70710678118654757 0.75 forward I I I I #
coedge $-1 $295 $295 $193 $297 forward $190 $-1 #
coedge $-1 $296 $296 $483 $484 forward $192 $-1 #
edge $-1 $485 0 $485 6.2831853071796004 $295 $486 forward 7 unknown #
face $-1 $487 $488 $64 $-1 $489 reversed single #
loop $-1 $-1 $490 $194 #
plane-surface $-1 0 -261.49235511337622 0 0 1 0 0 0 1 forward_v I I I I #
coedge $-1 $491 $492 $493 $494 forward $195 $-1 #
coedge $-1 $495 $197 $496 $497 forward $125 $-1 #
coedge $-1 $197 $495 $498 $499 forward $125 $-1 #
coedge $-1 $500 $501 $197 $305 reversed $502 $-1 #
edge $-1 $503 -261.49235511337622 $504 261.49235511337622 $304 $505 forward 7 unknown #
loop $-1 $506 $507 $198 #
cone-surface $-1 0 0 0 0 0 1 0.75 0 0 1 I I -0.70710678118654757 0.70710678118654757 0.75 forward I I I I #
coedge $-1 $308 $308 $202 $310 forward $199 $-1 #
coedge $-1 $309 $309 $507 $508 forward $201 $-1 #
edge $-1 $509 0 $509 6.2831853071796004 $308 $510 forward 7 unknown #
face $-1 $511 $512 $66 $-1 $513 reversed single #
loop $-1 $-1 $514 $203 #
plane-surface $-1 0 -261.49235511337622 0 0 1 0 0 0 1 forward_v I I I I #
coedge $-1 $515 $516 $517 $518 forward $204 $-1 #
coedge $-1 $519 $206 $520 $521 forward $131 $-1 #
coedge $-1 $206 $519 $522 $523 forward $131 $-1 #
coedge $-1 $524 $525 $206 $318 reversed $526 $-1 #
edge $-1 $527 -261.49235511337622 $528 261.49235511337622 $317 $529 forward 7 unknown #
loop $-1 $530 $531 $207 #
cone-surface $-1 0 0 0 0 0 1 0.75 0 0 1 I I -0.70710678118654757 0.70710678118654757 0.75 forward I I I I #
coedge $-1 $321 $321 $211 $323 forward $208 $-1 #
coedge $-1 $322 $322 $531 $532 forward $210 $-1 #
edge $-1 $533 0 $533 6.2831853071796004 $321 $534 forward 7 unknown #
face $-1 $535 $536 $51 $-1 $537 reversed single #
loop $-1 $-1 $538 $212 #
plane-surface $-1 -65.373088778344055 0 0 1 0 0 0 0 -1 forward_v I I I I #
coedge $-1 $539 $335 $540 $541 forward $213 $-1 #
coedge $-1 $542 $215 $539 $543 forward $137 $-1 #
coedge $-1 $215 $542 $544 $545 forward $137 $-1 #
coedge $-1 $338 $337 $215 $331 reversed $339 $-1 #
edge $-1 $546 -31.960331909686044 $547 31.960331909686044 $330 $548 forward 7 unknown #
coedge $-1 $217 $216 $549 $550 forward $86 $-1 #
coedge $-1 $551 $552 $216 $334 reversed $536 $-1 #
edge $-1 $341 -65.373088778344055 $553 65.373088778344055 $333 $554 forward 7 unknown #
coedge $-1 $327 $555 $217 $336 reversed $213 $-1 #
edge $-1 $556 -65.373088778344055 $340 65.373088778344055 $335 $557 forward 7 unknown #
coedge $-1 $330 $218 $555 $558 forward $339 $-1 #
coedge $-1 $218 $330 $551 $559 reversed $339 $-1 #
loop $-1 $-1 $337 $535 #
vertex $-1 $219 $560 #
vertex $-1 $219 $561 #
straight-curve $-1 65.373088778344055 0 9.7053404523132727 0 1 0 I I #
face $-1 $562 $563 $52 $-1 $564 reversed single #
loop $-1 $-1 $565 $220 #
plane-surface $-1 -3.6240369769474881 0 0 1 0 0 0 0 -1 forward_v I I I I #
coedge $-1 $566 $354 $567 $568 forward $221 $-1 #
coedge $-1 $569 $223 $566 $570 forward $141 $-1 #
coedge $-1 $223 $569 $571 $572 forward $141 $-1 #
coedge $-1 $357 $356 $223 $350 reversed $358 $-1 #
edge $-1 $573 -31.960331909686044 $574 31.960331909686044 $349 $575 forward 7 unknown #
coedge $-1 $225 $224 $576 $577 forward $89 $-1 #
coedge $-1 $578 $579 $224 $353 reversed $563 $-1 #
edge $-1 $360 -3.6240369769474881 $580 3.6240369769474881 $352 $581 forward 7 unknown #
coedge $-1 $346 $582 $225 $355 reversed $221 $-1 #
edge $-1 $583 -3.6240369769474881 $359 3.6240369769474881 $354 $584 forward 7 unknown #
coedge $-1 $349 $226 $582 $585 forward $358 $-1 #
coedge $-1 $226 $349 $578 $586 reversed $358 $-1 #
loop $-1 $-1 $356 $562 #
vertex $-1 $227 $587 #
vertex $-1 $227 $588 #
straight-curve $-1 3.6240369769474881 0 2.8768291333104372 0 1 0 I I #
face $-1 $589 $590 $53 $-1 $591 reversed single #
loop $-1 $-1 $592 $228 #
plane-surface $-1 -3.6240369769474938 0 0 1 0 0 0 0 -1 forward_v I I I I #
coedge $-1 $593 $373 $594 $595 forward $229 $-1 #
coedge $-1 $596 $231 $593 $597 forward $145 $-1 #
coedge $-1 $231 $596 $598 $599 forward $145 $-1 #
coedge $-1 $376 $375 $231 $369 reversed $377 $-1 #
edge $-1 $600 -31.960331909686044 $601 31.960331909686044 $368 $602 forward 7 unknown #
coedge $-1 $233 $232 $603 $604 forward $92 $-1 #
coedge $-1 $605 $606 $232 $372 reversed $590 $-1 #
edge $-1 $379 -3.6240369769474938 $607 3.6240369769474938 $371 $608 forward 7 unknown #
coedge $-1 $365 $609 $233 $374 reversed $229 $-1 #
edge $-1 $610 -3.6240369769474938 $378 3.6240369769474938 $373 $611 forward 7 unknown #
coedge $-1 $368 $234 $609 $612 forward $377 $-1 #
coedge $-1 $234 $368 $605 $613 reversed $377 $-1 #
loop $-1 $-1 $375 $589 #
vertex $-1 $235 $614 #
vertex $-1 $235 $615 #
straight-curve $-1 3.6240369769474938 0 2.8768291333104372 0 1 0 I I #
face $-1 $616 $617 $54 $-1 $618 reversed single #
loop $-1 $-1 $619 $236 #
plane-surface $-1 -11.310049005660076 0 0 1 0 0 0 0 -1 forward_v I I I I #
coedge $-1 $620 $392 $621 $622 forward $237 $-1 #
coedge $-1 $623 $239 $620 $624 forward $149 $-1 #
coedge $-1 $239 $623 $625 $626 forward $149 $-1 #
coedge $-1 $395 $394 $239 $388 reversed $396 $-1 #
edge $-1 $627 -261.49235511337622 $628 261.49235511337622 $387 $629 forward 7 unknown #
coedge $-1 $241 $240 $630 $631 forward $95 $-1 #
coedge $-1 $632 $633 $240 $391 reversed $617 $-1 #
edge $-1 $398 -11.310049005660076 $634 11.310049005660076 $390 $635 forward 7 unknown #
coedge $-1 $384 $636 $241 $393 reversed $237 $-1 #
edge $-1 $637 -11.310049005660076 $397 11.310049005660076 $392 $638 forward 7 unknown #
coedge $-1 $387 $242 $636 $639 forward $396 $-1 #
coedge $-1 $242 $387 $632 $640 reversed $396 $-1 #
loop $-1 $-1 $394 $616 #
vertex $-1 $243 $641 #
vertex $-1 $243 $642 #
straight-curve $-1 11.310049005660076 0 130.74617755668811 0 1 0 I I #
loop $-1 $-1 $643 $152 #
coedge $-1 $401 $401 $247 $402 reversed $244 $-1 #
edge $-1 $644 0 $644 6.2831853071796004 $401 $645 forward 7 unknown #
vertex $-1 $248 $646 #
ellipse-curve $-1 0 0 -2.5151676992095702 0 0 -1 1 0 0 1 I I #
loop $-1 $-1 $647 $157 #
coedge $-1 $406 $406 $252 $407 reversed $249 $-1 #
edge $-1 $648 0 $648 6.2831853071796004 $406 $649 forward 7 unknown #
vertex $-1 $253 $650 #
ellipse-curve $-1 0 0 -2.5151676992095702 0 0 -1 1 0 0 1 I I #
face $-1 $651 $652 $57 $-1 $653 reversed single #
loop $-1 $-1 $654 $254 #
plane-surface $-1 -11.310049005660076 0 0 1 0 0 0 0 -1 forward_v I I I I #
coedge $-1 $655 $421 $656 $657 forward $255 $-1 #
coedge $-1 $658 $257 $655 $659 forward $163 $-1 #
coedge $-1 $257 $658 $660 $661 forward $163 $-1 #
coedge $-1 $424 $423 $257 $417 reversed $425 $-1 #
edge $-1 $662 -261.49235511337622 $663 261.49235511337622 $416 $664 forward 7 unknown #
coedge $-1 $259 $258 $665 $666 forward $104 $-1 #
coedge $-1 $667 $668 $258 $420 reversed $652 $-1 #
edge $-1 $427 -11.310049005660076 $669 11.310049005660076 $419 $670 forward 7 unknown #
coedge $-1 $413 $671 $259 $422 reversed $255 $-1 #
edge $-1 $672 -11.310049005660076 $426 11.310049005660076 $421 $673 forward 7 unknown #
coedge $-1 $416 $260 $671 $674 forward $425 $-1 #
coedge $-1 $260 $416 $667 $675 reversed $425 $-1 #
loop $-1 $-1 $423 $651 #
vertex $-1 $261 $676 #
vertex $-1 $261 $677 #
straight-curve $-1 11.310049005660076 0 130.74617755668811 0 1 0 I I #
loop $-1 $-1 $678 $166 #
coedge $-1 $430 $430 $265 $431 reversed $262 $-1 #
edge $-1 $679 0 $679 6.2831853071796004 $430 $680 forward 7 unknown #
vertex $-1 $266 $681 #
ellipse-curve $-1 0 0 -2.5151676992095702 0 0 -1 1 0 0 1 I I #
loop $-1 $-1 $682 $171 #
coedge $-1 $435 $435 $270 $436 reversed $267 $-1 #
edge $-1 $683 0 $683 6.2831853071796004 $435 $684 forward 7 unknown #
vertex $-1 $271 $685 #
ellipse-curve $-1 0 0 -2.5151676992095702 0 0 -1 1 0 0 1 I I #
face $-1 $686 $687 $60 $-1 $688 reversed single #
loop $-1 $-1 $689 $272 #
plane-surface $-1 -8.023387807908092 0 0 1 0 0 0 0 -1 forward_v I I I I #
coedge $-1 $690 $450 $691 $692 forward $273 $-1 #
coedge $-1 $693 $275 $690 $694 forward $177 $-1 #
coedge $-1 $275 $693 $695 $696 forward $177 $-1 #
coedge $-1 $453 $452 $275 $446 reversed $454 $-1 #
edge $-1 $697 -261.49235511337622 $698 261.49235511337622 $445 $699 forward 7 unknown #
coedge $-1 $277 $276 $700 $701 forward $113 $-1 #
coedge $-1 $702 $703 $276 $449 reversed $687 $-1 #
edge $-1 $456 -8.023387807908092 $704 8.023387807908092 $448 $705 forward 7 unknown #
coedge $-1 $442 $706 $277 $451 reversed $273 $-1 #
edge $-1 $707 -8.023387807908092 $455 8.023387807908092 $450 $708 forward 7 unknown #
coedge $-1 $445 $278 $706 $709 forward $454 $-1 #
coedge $-1 $278 $445 $702 $710 reversed $454 $-1 #
loop $-1 $-1 $452 $686 #
vertex $-1 $279 $711 #
vertex $-1 $279 $712 #
straight-curve $-1 8.023387807908092 0 130.74617755668811 0 1 0 I I #
loop $-1 $-1 $713 $180 #
coedge $-1 $459 $459 $283 $460 reversed $280 $-1 #
edge $-1 $714 0 $714 6.2831853071796004 $459 $715 forward 7 unknown #
vertex $-1 $284 $716 #
ellipse-curve $-1 0 0 -3.2015823847163318 0 0 -1 1.5 0 0 1 I I #
face $-1 $717 $718 $62 $-1 $719 reversed single #
loop $-1 $-1 $720 $285 #
plane-surface $-1 -8.023387807908092 0 0 1 0 0 0 0 -1 forward_v I I I I #
coedge $-1 $721 $474 $722 $723 forward $286 $-1 #
coedge $-1 $724 $288 $721 $725 forward $186 $-1 #
coedge $-1 $288 $724 $726 $727 forward $186 $-1 #
coedge $-1 $477 $476 $288 $470 reversed $478 $-1 #
edge $-1 $728 -261.49235511337622 $729 261.49235511337622 $469 $730 forward 7 unknown #
coedge $-1 $290 $289 $731 $732 forward $119 $-1 #
coedge $-1 $733 $734 $289 $473 reversed $718 $-1 #
edge $-1 $480 -8.023387807908092 $735 8.023387807908092 $472 $736 forward 7 unknown #
coedge $-1 $466 $737 $290 $475 reversed $286 $-1 #
edge $-1 $738 -8.023387807908092 $479 8.023387807908092 $474 $739 forward 7 unknown #
coedge $-1 $469 $291 $737 $740 forward $478 $-1 #
coedge $-1 $291 $469 $733 $741 reversed $478 $-1 #
loop $-1 $-1 $476 $717 #
vertex $-1 $292 $742 #
vertex $-1 $292 $743 #
straight-curve $-1 8.023387807908092 0 130.74617755668811 0 1 0 I I #
loop $-1 $-1 $744 $189 #
coedge $-1 $483 $483 $296 $484 reversed $293 $-1 #
edge $-1 $745 0 $745 6.2831853071796004 $483 $746 forward 7 unknown #
vertex $-1 $297 $747 #
ellipse-curve $-1 0 0 -3.2015823847163318 0 0 -1 1.5 0 0 1 I I #
face $-1 $748 $749 $64 $-1 $750 reversed single #
loop $-1 $-1 $751 $298 #
plane-surface $-1 -8.023387807908092 0 0 1 0 0 0 0 -1 forward_v I I I I #
coedge $-1 $752 $498 $753 $754 forward $299 $-1 #
coedge $-1 $755 $301 $752 $756 forward $195 $-1 #
coedge $-1 $301 $755 $757 $758 forward $195 $-1 #
coedge $-1 $501 $500 $301 $494 reversed $502 $-1 #
edge $-1 $759 -261.49235511337622 $760 261.49235511337622 $493 $761 forward 7 unknown #
coedge $-1 $303 $302 $762 $763 forward $125 $-1 #
coedge $-1 $764 $765 $302 $497 reversed $749 $-1 #
edge $-1 $504 -8.023387807908092 $766 8.023387807908092 $496 $767 forward 7 unknown #
coedge $-1 $490 $768 $303 $499 reversed $299 $-1 #
edge $-1 $769 -8.023387807908092 $503 8.023387807908092 $498 $770 forward 7 unknown #
coedge $-1 $493 $304 $768 $771 forward $502 $-1 #
coedge $-1 $304 $493 $764 $772 reversed $502 $-1 #
loop $-1 $-1 $500 $748 #
vertex $-1 $305 $773 #
vertex $-1 $305 $774 #
straight-curve $-1 8.023387807908092 0 130.74617755668811 0 1 0 I I #
loop $-1 $-1 $775 $198 #
coedge $-1 $507 $507 $309 $508 reversed $306 $-1 #
edge $-1 $776 0 $776 6.2831853071796004 $507 $777 forward 7 unknown #
vertex $-1 $310 $778 #
ellipse-curve $-1 0 0 -3.2015823847163318 0 0 -1 1.5 0 0 1 I I #
face $-1 $779 $780 $66 $-1 $781 reversed single #
loop $-1 $-1 $782 $311 #
plane-surface $-1 -8.023387807908092 0 0 1 0 0 0 0 -1 forward_v I I I I #
coedge $-1 $783 $522 $784 $785 forward $312 $-1 #
coedge $-1 $786 $314 $783 $787 forward $204 $-1 #
coedge $-1 $314 $786 $788 $789 forward $204 $-1 #
coedge $-1 $525 $524 $314 $518 reversed $526 $-1 #
edge $-1 $790 -261.49235511337622 $791 261.49235511337622 $517 $792 forward 7 unknown #
coedge $-1 $316 $315 $793 $794 forward $131 $-1 #
coedge $-1 $795 $796 $315 $521 reversed $780 $-1 #
edge $-1 $528 -8.023387807908092 $797 8.023387807908092 $520 $798 forward 7 unknown #
coedge $-1 $514 $799 $316 $523 reversed $312 $-1 #
edge $-1 $800 -8.023387807908092 $527 8.023387807908092 $522 $801 forward 7 unknown #
coedge $-1 $517 $317 $799 $802 forward $526 $-1 #
coedge $-1 $317 $517 $795 $803 reversed $526 $-1 #
loop $-1 $-1 $524 $779 #
vertex $-1 $318 $804 #
vertex $-1 $318 $805 #
straight-curve $-1 8.023387807908092 0 130.74617755668811 0 1 0 I I #
loop $-1 $-1 $806 $207 #
coedge $-1 $531 $531 $322 $532 reversed $319 $-1 #
edge $-1 $807 0 $807 6.2831853071796004 $531 $808 forward 7 unknown #
vertex $-1 $323 $809 #
ellipse-curve $-1 0 0 -3.2015823847163318 0 0 -1 1.5 0 0 1 I I #
face $-1 $-1 $339 $51 $-1 $810 reversed single #
loop $-1 $-1 $551 $324 #
plane-surface $-1 0 31.960331909686044 0 0 -1 0 0 0 -1 forward_v I I I I #
coedge $-1 $811 $549 $552 $812 forward $325 $-1 #
coedge $-1 $555 $327 $328 $543 reversed $213 $-1 #
coedge $-1 $549 $811 $327 $541 reversed $325 $-1 #
edge $-1 $556 -9.7053404523132727 $813 9.7053404523132727 $540 $814 forward 7 unknown #
coedge $-1 $329 $328 $811 $815 forward $137 $-1 #
edge $-1 $547 -65.373088778344055 $813 65.373088778344055 $539 $816 forward 7 unknown #
coedge $-1 $552 $551 $329 $545 reversed $536 $-1 #
edge $-1 $817 -65.373088778344055 $546 65.373088778344055 $544 $818 forward 7 unknown #
vertex $-1 $331 $819 #
vertex $-1 $558 $820 #
straight-curve $-1 65.373088778344055 0 -9.7053404523132727 0 -1 0 I I #
coedge $-1 $538 $540 $332 $550 reversed $325 $-1 #
edge $-1 $553 -31.960331909686044 $556 31.960331909686044 $549 $821 forward 7 unknown #
coedge $-1 $544 $333 $338 $559 forward $536 $-1 #
coedge $-1 $333 $544 $538 $812 reversed $536 $-1 #
vertex $-1 $334 $822 #
straight-curve $-1 0 31.960331909686044 9.7053404523132727 -1 0 0 I I #
coedge $-1 $335 $539 $337 $558 reversed $213 $-1 #
vertex $-1 $550 $823 #
straight-curve $-1 0 -31.960331909686044 9.7053404523132727 1 0 0 I I #
edge $-1 $340 -9.7053404523132727 $547 9.7053404523132727 $337 $824 forward 7 unknown #
edge $-1 $341 -9.7053404523132727 $546 9.7053404523132727 $338 $825 forward 7 unknown #
point $-1 65.373088778344055 -31.960331909686044 9.7053404523132727 #
point $-1 65.373088778344055 31.960331909686044 9.7053404523132727 #
face $-1 $-1 $358 $52 $-1 $826 reversed single #
loop $-1 $-1 $578 $343 #
plane-surface $-1 0 31.960331909686044 0 0 -1 0 0 0 -1 forward_v I I I I #
coedge $-1 $827 $576 $579 $828 forward $344 $-1 #
coedge $-1 $582 $346 $347 $570 reversed $221 $-1 #
coedge $-1 $576 $827 $346 $568 reversed $344 $-1 #
edge $-1 $583 -2.8768291333104372 $829 2.8768291333104372 $567 $830 forward 7 unknown #
coedge $-1 $348 $347 $827 $831 forward $141 $-1 #
edge $-1 $574 -3.6240369769474881 $829 3.6240369769474881 $566 $832 forward 7 unknown #
coedge $-1 $579 $578 $348 $572 reversed $563 $-1 #
edge $-1 $833 -3.6240369769474881 $573 3.6240369769474881 $571 $834 forward 7 unknown #
vertex $-1 $350 $835 #
vertex $-1 $585 $836 #
straight-curve $-1 3.6240369769474881 0 -2.8768291333104372 0 -1 0 I I #
coedge $-1 $565 $567 $351 $577 reversed $344 $-1 #
edge $-1 $580 -31.960331909686044 $583 31.960331909686044 $576 $837 forward 7 unknown #
coedge $-1 $571 $352 $357 $586 forward $563 $-1 #
coedge $-1 $352 $571 $565 $828 reversed $563 $-1 #
vertex $-1 $353 $838 #
straight-curve $-1 0 31.960331909686044 2.8768291333104372 -1 0 0 I I #
coedge $-1 $354 $566 $356 $585 reversed $221 $-1 #
vertex $-1 $577 $839 #
straight-curve $-1 0 -31.960331909686044 2.8768291333104372 1 0 0 I I #
edge $-1 $359 -2.8768291333104372 $574 2.8768291333104372 $356 $840 forward 7 unknown #
edge $-1 $360 -2.8768291333104372 $573 2.8768291333104372 $357 $841 forward 7 unknown #
point $-1 3.6240369769474881 -31.960331909686044 2.8768291333104372 #
point $-1 3.6240369769474881 31.960331909686044 2.8768291333104372 #
face $-1 $-1 $377 $53 $-1 $842 reversed single #
loop $-1 $-1 $605 $362 #
plane-surface $-1 0 31.960331909686044 0 0 -1 0 0 0 -1 forward_v I I I I #
coedge $-1 $843 $603 $606 $844 forward $363 $-1 #
coedge $-1 $609 $365 $366 $597 reversed $229 $-1 #
coedge $-1 $603 $843 $365 $595 reversed $363 $-1 #
edge $-1 $610 -2.8768291333104372 $845 2.8768291333104372 $594 $846 forward 7 unknown #
coedge $-1 $367 $366 $843 $847 forward $145 $-1 #
edge $-1 $601 -3.6240369769474938 $845 3.6240369769474938 $593 $848 forward 7 unknown #
coedge $-1 $606 $605 $367 $599 reversed $590 $-1 #
edge $-1 $849 -3.6240369769474938 $600 3.6240369769474938 $598 $850 forward 7 unknown #
vertex $-1 $369 $851 #
vertex $-1 $612 $852 #
straight-curve $-1 3.6240369769474938 0 -2.8768291333104372 0 -1 0 I I #
coedge $-1 $592 $594 $370 $604 reversed $363 $-1 #
edge $-1 $607 -31.960331909686044 $610 31.960331909686044 $603 $853 forward 7 unknown #
coedge $-1 $598 $371 $376 $613 forward $590 $-1 #
coedge $-1 $371 $598 $592 $844 reversed $590 $-1 #
vertex $-1 $372 $854 #
straight-curve $-1 0 31.960331909686044 2.8768291333104372 -1 0 0 I I #
coedge $-1 $373 $593 $375 $612 reversed $229 $-1 #
vertex $-1 $604 $855 #
straight-curve $-1 0 -31.960331909686044 2.8768291333104372 1 0 0 I I #
edge $-1 $378 -2.8768291333104372 $601 2.8768291333104372 $375 $856 forward 7 unknown #
edge $-1 $379 -2.8768291333104372 $600 2.8768291333104372 $376 $857 forward 7 unknown #
point $-1 3.6240369769474938 -31.960331909686044 2.8768291333104372 #
point $-1 3.6240369769474938 31.960331909686044 2.8768291333104372 #
face $-1 $-1 $396 $54 $-1 $858 reversed single #
loop $-1 $-1 $632 $381 #
plane-surface $-1 0 261.49235511337622 0 0 -1 0 0 0 -1 forward_v I I I I #
coedge $-1 $859 $630 $633 $860 forward $382 $-1 #
coedge $-1 $636 $384 $385 $624 reversed $237 $-1 #
coedge $-1 $630 $859 $384 $622 reversed $382 $-1 #
edge $-1 $637 -130.74617755668811 $861 130.74617755668811 $621 $862 forward 7 unknown #
coedge $-1 $386 $385 $859 $863 forward $149 $-1 #
edge $-1 $628 -11.310049005660076 $861 11.310049005660076 $620 $864 forward 7 unknown #
coedge $-1 $633 $632 $386 $626 reversed $617 $-1 #
edge $-1 $865 -11.310049005660076 $627 11.310049005660076 $625 $866 forward 7 unknown #
vertex $-1 $388 $867 #
vertex $-1 $639 $868 #
straight-curve $-1 11.310049005660076 0 -130.74617755668811 0 -1 0 I I #
coedge $-1 $619 $621 $389 $631 reversed $382 $-1 #
edge $-1 $634 -261.49235511337622 $637 261.49235511337622 $630 $869 forward 7 unknown #
coedge $-1 $625 $390 $395 $640 forward $617 $-1 #
coedge $-1 $390 $625 $619 $860 reversed $617 $-1 #
vertex $-1 $391 $870 #
straight-curve $-1 0 261.49235511337622 130.74617755668811 -1 0 0 I I #
coedge $-1 $392 $620 $394 $639 reversed $237 $-1 #
vertex $-1 $631 $871 #
straight-curve $-1 0 -261.49235511337622 130.74617755668811 1 0 0 I I #
edge $-1 $397 -130.74617755668811 $628 130.74617755668811 $394 $872 forward 7 unknown #
edge $-1 $398 -130.74617755668811 $627 130.74617755668811 $395 $873 forward 7 unknown #
point $-1 11.310049005660076 -261.49235511337622 130.74617755668811 #
point $-1 11.310049005660076 261.49235511337622 130.74617755668811 #
coedge $-1 $643 $643 $-1 $874 reversed $400 $-1 #
vertex $-1 $402 $875 #
ellipse-curve $-1 0 0 -0.5 0 0 -1 1 0 0 1 I I #
point $-1 1 0 -2.5151676992095702 #
coedge $-1 $647 $647 $-1 $876 reversed $405 $-1 #
vertex $-1 $407 $877 #
ellipse-curve $-1 0 0 -0.5 0 0 -1 1 0 0 1 I I #
point $-1 1 0 -2.5151676992095702 #
face $-1 $-1 $425 $57 $-1 $878 reversed single #
loop $-1 $-1 $667 $410 #
plane-surface $-1 0 261.49235511337622 0 0 -1 0 0 0 -1 forward_v I I I I #
coedge $-1 $879 $665 $668 $880 forward $411 $-1 #
coedge $-1 $671 $413 $414 $659 reversed $255 $-1 #
coedge $-1 $665 $879 $413 $657 reversed $411 $-1 #
edge $-1 $672 -130.74617755668811 $881 130.74617755668811 $656 $882 forward 7 unknown #
coedge $-1 $415 $414 $879 $883 forward $163 $-1 #
edge $-1 $663 -11.310049005660076 $881 11.310049005660076 $655 $884 forward 7 unknown #
coedge $-1 $668 $667 $415 $661 reversed $652 $-1 #
edge $-1 $885 -11.310049005660076 $662 11.310049005660076 $660 $886 forward 7 unknown #
vertex $-1 $417 $887 #
vertex $-1 $674 $888 #
straight-curve $-1 11.310049005660076 0 -130.74617755668811 0 -1 0 I I #
coedge $-1 $654 $656 $418 $666 reversed $411 $-1 #
edge $-1 $669 -261.49235511337622 $672 261.49235511337622 $665 $889 forward 7 unknown #
coedge $-1 $660 $419 $424 $675 forward $652 $-1 #
coedge $-1 $419 $660 $654 $880 reversed $652 $-1 #
vertex $-1 $420 $890 #
straight-curve $-1 0 261.49235511337622 130.74617755668811 -1 0 0 I I #
coedge $-1 $421 $655 $423 $674 reversed $255 $-1 #
vertex $-1 $666 $891 #
straight-curve $-1 0 -261.49235511337622 130.74617755668811 1 0 0 I I #
edge $-1 $426 -130.74617755668811 $663 130.74617755668811 $423 $892 forward 7 unknown #
edge $-1 $427 -130.74617755668811 $662 130.74617755668811 $424 $893 forward 7 unknown #
point $-1 11.310049005660076 -261.49235511337622 130.74617755668811 #
point $-1 11.310049005660076 261.49235511337622 130.74617755668811 #
coedge $-1 $678 $678 $-1 $894 reversed $429 $-1 #
vertex $-1 $431 $895 #
ellipse-curve $-1 0 0 -0.5 0 0 -1 1 0 0 1 I I #
point $-1 1 0 -2.5151676992095702 #
coedge $-1 $682 $682 $-1 $896 reversed $434 $-1 #
vertex $-1 $436 $897 #
ellipse-curve $-1 0 0 -0.5 0 0 -1 1 0 0 1 I I #
point $-1 1 0 -2.5151676992095702 #
face $-1 $-1 $454 $60 $-1 $898 reversed single #
loop $-1 $-1 $702 $439 #
plane-surface $-1 0 261.49235511337622 0 0 -1 0 0 0 -1 forward_v I I I I #
coedge $-1 $899 $700 $703 $900 forward $440 $-1 #
coedge $-1 $706 $442 $443 $694 reversed $273 $-1 #
coedge $-1 $700 $899 $442 $692 reversed $440 $-1 #
edge $-1 $707 -130.74617755668811 $901 130.74617755668811 $691 $902 forward 7 unknown #
coedge $-1 $444 $443 $899 $903 forward $177 $-1 #
edge $-1 $698 -8.023387807908092 $901 8.023387807908092 $690 $904 forward 7 unknown #
coedge $-1 $703 $702 $444 $696 reversed $687 $-1 #
edge $-1 $905 -8.023387807908092 $697 8.023387807908092 $695 $906 forward 7 unknown #
vertex $-1 $446 $907 #
vertex $-1 $709 $908 #
straight-curve $-1 8.023387807908092 0 -130.74617755668811 0 -1 0 I I #
coedge $-1 $689 $691 $447 $701 reversed $440 $-1 #
edge $-1 $704 -261.49235511337622 $707 261.49235511337622 $700 $909 forward 7 unknown #
coedge $-1 $695 $448 $453 $710 forward $687 $-1 #
coedge $-1 $448 $695 $689 $900 reversed $687 $-1 #
vertex $-1 $449 $910 #
straight-curve $-1 0 261.49235511337622 130.74617755668811 -1 0 0 I I #
coedge $-1 $450 $690 $452 $709 reversed $273 $-1 #
vertex $-1 $701 $911 #
straight-curve $-1 0 -261.49235511337622 130.74617755668811 1 0 0 I I #
edge $-1 $455 -130.74617755668811 $698 130.74617755668811 $452 $912 forward 7 unknown #
edge $-1 $456 -130.74617755668811 $697 130.74617755668811 $453 $913 forward 7 unknown #
point $-1 8.023387807908092 -261.49235511337622 130.74617755668811 #
point $-1 8.023387807908092 261.49235511337622 130.74617755668811 #
coedge $-1 $713 $713 $-1 $914 reversed $458 $-1 #
vertex $-1 $460 $915 #
ellipse-curve $-1 0 0 -0.75 0 0 -1 1.5 0 0 1 I I #
point $-1 1.5 0 -3.2015823847163318 #
face $-1 $-1 $478 $62 $-1 $916 reversed single #
loop $-1 $-1 $733 $463 #
plane-surface $-1 0 261.49235511337622 0 0 -1 0 0 0 -1 forward_v I I I I #
coedge $-1 $917 $731 $734 $918 forward $464 $-1 #
coedge $-1 $737 $466 $467 $725 reversed $286 $-1 #
coedge $-1 $731 $917 $466 $723 reversed $464 $-1 #
edge $-1 $738 -130.74617755668811 $919 130.74617755668811 $722 $920 forward 7 unknown #
coedge $-1 $468 $467 $917 $921 forward $186 $-1 #
edge $-1 $729 -8.023387807908092 $919 8.023387807908092 $721 $922 forward 7 unknown #
coedge $-1 $734 $733 $468 $727 reversed $718 $-1 #
edge $-1 $923 -8.023387807908092 $728 8.023387807908092 $726 $924 forward 7 unknown #
vertex $-1 $470 $925 #
vertex $-1 $740 $926 #
straight-curve $-1 8.023387807908092 0 -130.74617755668811 0 -1 0 I I #
coedge $-1 $720 $722 $471 $732 reversed $464 $-1 #
edge $-1 $735 -261.49235511337622 $738 261.49235511337622 $731 $927 forward 7 unknown #
coedge $-1 $726 $472 $477 $741 forward $718 $-1 #
coedge $-1 $472 $726 $720 $918 reversed $718 $-1 #
vertex $-1 $473 $928 #
straight-curve $-1 0 261.49235511337622 130.74617755668811 -1 0 0 I I #
coedge $-1 $474 $721 $476 $740 reversed $286 $-1 #
vertex $-1 $732 $929 #
straight-curve $-1 0 -261.49235511337622 130.74617755668811 1 0 0 I I #
edge $-1 $479 -130.74617755668811 $729 130.74617755668811 $476 $930 forward 7 unknown #
edge $-1 $480 -130.74617755668811 $728 130.74617755668811 $477 $931 forward 7 unknown #
point $-1 8.023387807908092 -261.49235511337622 130.74617755668811 #
point $-1 8.023387807908092 261.49235511337622 130.74617755668811 #
coedge $-1 $744 $744 $-1 $932 reversed $482 $-1 #
vertex $-1 $484 $933 #
ellipse-curve $-1 0 0 -0.75 0 0 -1 1.5 0 0 1 I I #
point $-1 1.5 0 -3.2015823847163318 #
face $-1 $-1 $502 $64 $-1 $934 reversed single #
loop $-1 $-1 $764 $487 #
plane-surface $-1 0 261.49235511337622 0 0 -1 0 0 0 -1 forward_v I I I I #
coedge $-1 $935 $762 $765 $936 forward $488 $-1 #
coedge $-1 $768 $490 $491 $756 reversed $299 $-1 #
coedge $-1 $762 $935 $490 $754 reversed $488 $-1 #
edge $-1 $769 -130.74617755668811 $937 130.74617755668811 $753 $938 forward 7 unknown #
coedge $-1 $492 $491 $935 $939 forward $195 $-1 #
edge $-1 $760 -8.023387807908092 $937 8.023387807908092 $752 $940 forward 7 unknown #
coedge $-1 $765 $764 $492 $758 reversed $749 $-1 #
edge $-1 $941 -8.023387807908092 $759 8.023387807908092 $757 $942 forward 7 unknown #
vertex $-1 $494 $943 #
vertex $-1 $771 $944 #
straight-curve $-1 8.023387807908092 0 -130.74617755668811 0 -1 0 I I #
coedge $-1 $751 $753 $495 $763 reversed $488 $-1 #
edge $-1 $766 -261.49235511337622 $769 261.49235511337622 $762 $945 forward 7 unknown #
coedge $-1 $757 $496 $501 $772 forward $749 $-1 #
coedge $-1 $496 $757 $751 $936 reversed $749 $-1 #
vertex $-1 $497 $946 #
straight-curve $-1 0 261.49235511337622 130.74617755668811 -1 0 0 I I #
coedge $-1 $498 $752 $500 $771 reversed $299 $-1 #
vertex $-1 $763 $947 #
straight-curve $-1 0 -261.49235511337622 130.74617755668811 1 0 0 I I #
edge $-1 $503 -130.74617755668811 $760 130.74617755668811 $500 $948 forward 7 unknown #
edge $-1 $504 -130.74617755668811 $759 130.74617755668811 $501 $949 forward 7 unknown #
point $-1 8.023387807908092 -261.49235511337622 130.74617755668811 #
point $-1 8.023387807908092 261.49235511337622 130.74617755668811 #
coedge $-1 $775 $775 $-1 $950 reversed $506 $-1 #
vertex $-1 $508 $951 #
ellipse-curve $-1 0 0 -0.75 0 0 -1 1.5 0 0 1 I I #
point $-1 1.5 0 -3.2015823847163318 #
face $-1 $-1 $526 $66 $-1 $952 reversed single #
loop $-1 $-1 $795 $511 #
plane-surface $-1 0 261.49235511337622 0 0 -1 0 0 0 -1 forward_v I I I I #
coedge $-1 $953 $793 $796 $954 forward $512 $-1 #
coedge $-1 $799 $514 $515 $787 reversed $312 $-1 #
coedge $-1 $793 $953 $514 $785 reversed $512 $-1 #
edge $-1 $800 -130.74617755668811 $955 130.74617755668811 $784 $956 forward 7 unknown #
coedge $-1 $516 $515 $953 $957 forward $204 $-1 #
edge $-1 $791 -8.023387807908092 $955 8.023387807908092 $783 $958 forward 7 unknown #
coedge $-1 $796 $795 $516 $789 reversed $780 $-1 #
edge $-1 $959 -8.023387807908092 $790 8.023387807908092 $788 $960 forward 7 unknown #
vertex $-1 $518 $961 #
vertex $-1 $802 $962 #
straight-curve $-1 8.023387807908092 0 -130.74617755668811 0 -1 0 I I #
coedge $-1 $782 $784 $519 $794 reversed $512 $-1 #
edge $-1 $797 -261.49235511337622 $800 261.49235511337622 $793 $963 forward 7 unknown #
coedge $-1 $788 $520 $525 $803 forward $780 $-1 #
coedge $-1 $520 $788 $782 $954 reversed $780 $-1 #
vertex $-1 $521 $964 #
straight-curve $-1 0 261.49235511337622 130.74617755668811 -1 0 0 I I #
coedge $-1 $522 $783 $524 $802 reversed $312 $-1 #
vertex $-1 $794 $965 #
straight-curve $-1 0 -261.49235511337622 130.74617755668811 1 0 0 I I #
edge $-1 $527 -130.74617755668811 $791 130.74617755668811 $524 $966 forward 7 unknown #
edge $-1 $528 -130.74617755668811 $790 130.74617755668811 $525 $967 forward 7 unknown #
point $-1 8.023387807908092 -261.49235511337622 130.74617755668811 #
point $-1 8.023387807908092 261.49235511337622 130.74617755668811 #
coedge $-1 $806 $806 $-1 $968 reversed $530 $-1 #
vertex $-1 $532 $969 #
ellipse-curve $-1 0 0 -0.75 0 0 -1 1.5 0 0 1 I I #
point $-1 1.5 0 -3.2015823847163318 #
plane-surface $-1 65.373088778344055 0 0 -1 0 0 0 0 1 forward_v I I I I #
coedge $-1 $540 $538 $542 $815 reversed $325 $-1 #
edge $-1 $553 -9.7053404523132727 $817 9.7053404523132727 $552 $970 forward 7 unknown #
vertex $-1 $815 $971 #
straight-curve $-1 -65.373088778344055 -31.960331909686044 0 0 0 -1 I I #
edge $-1 $813 -31.960331909686044 $817 31.960331909686044 $811 $972 forward 7 unknown #
straight-curve $-1 0 -31.960331909686044 -9.7053404523132727 -1 0 0 I I #
vertex $-1 $545 $973 #
straight-curve $-1 0 31.960331909686044 -9.7053404523132727 1 0 0 I I #
point $-1 65.373088778344055 31.960331909686044 -9.7053404523132727 #
point $-1 65.373088778344055 -31.960331909686044 -9.7053404523132727 #
straight-curve $-1 -65.373088778344055 0 9.7053404523132727 0 -1 0 I I #
point $-1 -65.373088778344055 31.960331909686044 9.7053404523132727 #
point $-1 -65.373088778344055 -31.960331909686044 9.7053404523132727 #
straight-curve $-1 65.373088778344055 -31.960331909686044 0 0 0 -1 I I #
straight-curve $-1 65.373088778344055 31.960331909686044 0 0 0 -1 I I #
plane-surface $-1 3.6240369769474881 0 0 -1 0 0 0 0 1 forward_v I I I I #
coedge $-1 $567 $565 $569 $831 reversed $344 $-1 #
edge $-1 $580 -2.8768291333104372 $833 2.8768291333104372 $579 $974 forward 7 unknown #
vertex $-1 $831 $975 #
straight-curve $-1 -3.6240369769474881 -31.960331909686044 0 0 0 -1 I I #
edge $-1 $829 -31.960331909686044 $833 31.960331909686044 $827 $976 forward 7 unknown #
straight-curve $-1 0 -31.960331909686044 -2.8768291333104372 -1 0 0 I I #
vertex $-1 $572 $977 #
straight-curve $-1 0 31.960331909686044 -2.8768291333104372 1 0 0 I I #
point $-1 3.6240369769474881 31.960331909686044 -2.8768291333104372 #
point $-1 3.6240369769474881 -31.960331909686044 -2.8768291333104372 #
straight-curve $-1 -3.6240369769474881 0 2.8768291333104372 0 -1 0 I I #
point $-1 -3.6240369769474881 31.960331909686044 2.8768291333104372 #
point $-1 -3.6240369769474881 -31.960331909686044 2.8768291333104372 #
straight-curve $-1 3.6240369769474881 -31.960331909686044 0 0 0 -1 I I #
straight-curve $-1 3.6240369769474881 31.960331909686044 0 0 0 -1 I I #
plane-surface $-1 3.6240369769474938 0 0 -1 0 0 0 0 1 forward_v I I I I #
coedge $-1 $594 $592 $596 $847 reversed $363 $-1 #
edge $-1 $607 -2.8768291333104372 $849 2.8768291333104372 $606 $978 forward 7 unknown #
vertex $-1 $847 $979 #
straight-curve $-1 -3.6240369769474938 -31.960331909686044 0 0 0 -1 I I #
edge $-1 $845 -31.960331909686044 $849 31.960331909686044 $843 $980 forward 7 unknown #
straight-curve $-1 0 -31.960331909686044 -2.8768291333104372 -1 0 0 I I #
vertex $-1 $599 $981 #
straight-curve $-1 0 31.960331909686044 -2.8768291333104372 1 0 0 I I #
point $-1 3.6240369769474938 31.960331909686044 -2.8768291333104372 #
point $-1 3.6240369769474938 -31.960331909686044 -2.8768291333104372 #
straight-curve $-1 -3.6240369769474938 0 2.8768291333104372 0 -1 0 I I #
point $-1 -3.6240369769474938 31.960331909686044 2.8768291333104372 #
point $-1 -3.6240369769474938 -31.960331909686044 2.8768291333104372 #
straight-curve $-1 3.6240369769474938 -31.960331909686044 0 0 0 -1 I I #
straight-curve $-1 3.6240369769474938 31.960331909686044 0 0 0 -1 I I #
plane-surface $-1 11.310049005660076 0 0 -1 0 0 0 0 1 forward_v I I I I #
coedge $-1 $621 $619 $623 $863 reversed $382 $-1 #
edge $-1 $634 -130.74617755668811 $865 130.74617755668811 $633 $982 forward 7 unknown #
vertex $-1 $863 $983 #
straight-curve $-1 -11.310049005660076 -261.49235511337622 0 0 0 -1 I I #
edge $-1 $861 -261.49235511337622 $865 261.49235511337622 $859 $984 forward 7 unknown #
straight-curve $-1 0 -261.49235511337622 -130.74617755668811 -1 0 0 I I #
vertex $-1 $626 $985 #
straight-curve $-1 0 261.49235511337622 -130.74617755668811 1 0 0 I I #
point $-1 11.310049005660076 261.49235511337622 -130.74617755668811 #
point $-1 11.310049005660076 -261.49235511337622 -130.74617755668811 #
straight-curve $-1 -11.310049005660076 0 130.74617755668811 0 -1 0 I I #
point $-1 -11.310049005660076 261.49235511337622 130.74617755668811 #
point $-1 -11.310049005660076 -261.49235511337622 130.74617755668811 #
straight-curve $-1 11.310049005660076 -261.49235511337622 0 0 0 -1 I I #
straight-curve $-1 11.310049005660076 261.49235511337622 0 0 0 -1 I I #
edge $-1 $986 1 $986 0 $643 $-1 forward 7 unknown #
point $-1 1 0 -0.5 #
edge $-1 $987 1 $987 0 $647 $-1 forward 7 unknown #
point $-1 1 0 -0.5 #
plane-surface $-1 11.310049005660076 0 0 -1 0 0 0 0 1 forward_v I I I I #
coedge $-1 $656 $654 $658 $883 reversed $411 $-1 #
edge $-1 $669 -130.74617755668811 $885 130.74617755668811 $668 $988 forward 7 unknown #
vertex $-1 $883 $989 #
straight-curve $-1 -11.310049005660076 -261.49235511337622 0 0 0 -1 I I #
edge $-1 $881 -261.49235511337622 $885 261.49235511337622 $879 $990 forward 7 unknown #
straight-curve $-1 0 -261.49235511337622 -130.74617755668811 -1 0 0 I I #
vertex $-1 $661 $991 #
straight-curve $-1 0 261.49235511337622 -130.74617755668811 1 0 0 I I #
point $-1 11.310049005660076 261.49235511337622 -130.74617755668811 #
point $-1 11.310049005660076 -261.49235511337622 -130.74617755668811 #
straight-curve $-1 -11.310049005660076 0 130.74617755668811 0 -1 0 I I #
point $-1 -11.310049005660076 261.49235511337622 130.74617755668811 #
point $-1 -11.310049005660076 -261.49235511337622 130.74617755668811 #
straight-curve $-1 11.310049005660076 -261.49235511337622 0 0 0 -1 I I #
straight-curve $-1 11.310049005660076 261.49235511337622 0 0 0 -1 I I #
edge $-1 $992 1 $992 0 $678 $-1 forward 7 unknown #
point $-1 1 0 -0.5 #
edge $-1 $993 1 $993 0 $682 $-1 forward 7 unknown #
point $-1 1 0 -0.5 #
plane-surface $-1 8.023387807908092 0 0 -1 0 0 0 0 1 forward_v I I I I #
coedge $-1 $691 $689 $693 $903 reversed $440 $-1 #
edge $-1 $704 -130.74617755668811 $905 130.74617755668811 $703 $994 forward 7 unknown #
vertex $-1 $903 $995 #
straight-curve $-1 -8.023387807908092 -261.49235511337622 0 0 0 -1 I I #
edge $-1 $901 -261.49235511337622 $905 261.49235511337622 $899 $996 forward 7 unknown #
straight-curve $-1 0 -261.49235511337622 -130.74617755668811 -1 0 0 I I #
vertex $-1 $696 $997 #
straight-curve $-1 0 261.49235511337622 -130.74617755668811 1 0 0 I I #
point $-1 8.023387807908092 261.49235511337622 -130.74617755668811 #
point $-1 8.023387807908092 -261.49235511337622 -130.74617755668811 #
straight-curve $-1 -8.023387807908092 0 130.74617755668811 0 -1 0 I I #
point $-1 -8.023387807908092 261.49235511337622 130.74617755668811 #
point $-1 -8.023387807908092 -261.49235511337622 130.74617755668811 #
straight-curve $-1 8.023387807908092 -261.49235511337622 0 0 0 -1 I I #
straight-curve $-1 8.023387807908092 261.49235511337622 0 0 0 -1 I I #
edge $-1 $998 1 $998 0 $713 $-1 forward 7 unknown #
point $-1 1.5 0 -0.75 #
plane-surface $-1 8.023387807908092 0 0 -1 0 0 0 0 1 forward_v I I I I #
coedge $-1 $722 $720 $724 $921 reversed $464 $-1 #
edge $-1 $735 -130.74617755668811 $923 130.74617755668811 $734 $999 forward 7 unknown #
vertex $-1 $921 $1000 #
straight-curve $-1 -8.023387807908092 -261.49235511337622 0 0 0 -1 I I #
edge $-1 $919 -261.49235511337622 $923 261.49235511337622 $917 $1001 forward 7 unknown #
straight-curve $-1 0 -261.49235511337622 -130.74617755668811 -1 0 0 I I #
vertex $-1 $727 $1002 #
straight-curve $-1 0 261.49235511337622 -130.74617755668811 1 0 0 I I #
point $-1 8.023387807908092 261.49235511337622 -130.74617755668811 #
point $-1 8.023387807908092 -261.49235511337622 -130.74617755668811 #
straight-curve $-1 -8.023387807908092 0 130.74617755668811 0 -1 0 I I #
point $-1 -8.023387807908092 261.49235511337622 130.74617755668811 #
point $-1 -8.023387807908092 -261.49235511337622 130.74617755668811 #
straight-curve $-1 8.023387807908092 -261.49235511337622 0 0 0 -1 I I #
straight-curve $-1 8.023387807908092 261.49235511337622 0 0 0 -1 I I #
edge $-1 $1003 1 $1003 0 $744 $-1 forward 7 unknown #
point $-1 1.5 0 -0.75 #
plane-surface $-1 8.023387807908092 0 0 -1 0 0 0 0 1 forward_v I I I I #
coedge $-1 $753 $751 $755 $939 reversed $488 $-1 #
edge $-1 $766 -130.74617755668811 $941 130.74617755668811 $765 $1004 forward 7 unknown #
vertex $-1 $939 $1005 #
straight-curve $-1 -8.023387807908092 -261.49235511337622 0 0 0 -1 I I #
edge $-1 $937 -261.49235511337622 $941 261.49235511337622 $935 $1006 forward 7 unknown #
straight-curve $-1 0 -261.49235511337622 -130.74617755668811 -1 0 0 I I #
vertex $-1 $758 $1007 #
straight-curve $-1 0 261.49235511337622 -130.74617755668811 1 0 0 I I #
point $-1 8.023387807908092 261.49235511337622 -130.74617755668811 #
point $-1 8.023387807908092 -261.49235511337622 -130.74617755668811 #
straight-curve $-1 -8.023387807908092 0 130.74617755668811 0 -1 0 I I #
point $-1 -8.023387807908092 261.49235511337622 130.74617755668811 #
point $-1 -8.023387807908092 -261.49235511337622 130.74617755668811 #
straight-curve $-1 8.023387807908092 -261.49235511337622 0 0 0 -1 I I #
straight-curve $-1 8.023387807908092 261.49235511337622 0 0 0 -1 I I #
edge $-1 $1008 1 $1008 0 $775 $-1 forward 7 unknown #
point $-1 1.5 0 -0.75 #
plane-surface $-1 8.023387807908092 0 0 -1 0 0 0 0 1 forward_v I I I I #
coedge $-1 $784 $782 $786 $957 reversed $512 $-1 #
edge $-1 $797 -130.74617755668811 $959 130.74617755668811 $796 $1009 forward 7 unknown #
vertex $-1 $957 $1010 #
straight-curve $-1 -8.023387807908092 -261.49235511337622 0 0 0 -1 I I #
edge $-1 $955 -261.49235511337622 $959 261.49235511337622 $953 $1011 forward 7 unknown #
straight-curve $-1 0 -261.49235511337622 -130.74617755668811 -1 0 0 I I #
vertex $-1 $789 $1012 #
straight-curve $-1 0 261.49235511337622 -130.74617755668811 1 0 0 I I #
point $-1 8.023387807908092 261.49235511337622 -130.74617755668811 #
point $-1 8.023387807908092 -261.49235511337622 -130.74617755668811 #
straight-curve $-1 -8.023387807908092 0 130.74617755668811 0 -1 0 I I #
point $-1 -8.023387807908092 261.49235511337622 130.74617755668811 #
point $-1 -8.023387807908092 -261.49235511337622 130.74617755668811 #
straight-curve $-1 8.023387807908092 -261.49235511337622 0 0 0 -1 I I #
straight-curve $-1 8.023387807908092 261.49235511337622 0 0 0 -1 I I #
edge $-1 $1013 1 $1013 0 $806 $-1 forward 7 unknown #
point $-1 1.5 0 -0.75 #
straight-curve $-1 -65.373088778344055 31.960331909686044 0 0 0 -1 I I #
point $-1 -65.373088778344055 -31.960331909686044 -9.7053404523132727 #
straight-curve $-1 -65.373088778344055 0 -9.7053404523132727 0 1 0 I I #
point $-1 -65.373088778344055 31.960331909686044 -9.7053404523132727 #
straight-curve $-1 -3.6240369769474881 31.960331909686044 0 0 0 -1 I I #
point $-1 -3.6240369769474881 -31.960331909686044 -2.8768291333104372 #
straight-curve $-1 -3.6240369769474881 0 -2.8768291333104372 0 1 0 I I #
point $-1 -3.6240369769474881 31.960331909686044 -2.8768291333104372 #
straight-curve $-1 -3.6240369769474938 31.960331909686044 0 0 0 -1 I I #
point $-1 -3.6240369769474938 -31.960331909686044 -2.8768291333104372 #
straight-curve $-1 -3.6240369769474938 0 -2.8768291333104372 0 1 0 I I #
point $-1 -3.6240369769474938 31.960331909686044 -2.8768291333104372 #
straight-curve $-1 -11.310049005660076 261.49235511337622 0 0 0 -1 I I #
point $-1 -11.310049005660076 -261.49235511337622 -130.74617755668811 #
straight-curve $-1 -11.310049005660076 0 -130.74617755668811 0 1 0 I I #
point $-1 -11.310049005660076 261.49235511337622 -130.74617755668811 #
vertex $-1 $874 $1014 #
vertex $-1 $876 $1015 #
straight-curve $-1 -11.310049005660076 261.49235511337622 0 0 0 -1 I I #
point $-1 -11.310049005660076 -261.49235511337622 -130.74617755668811 #
straight-curve $-1 -11.310049005660076 0 -130.74617755668811 0 1 0 I I #
point $-1 -11.310049005660076 261.49235511337622 -130.74617755668811 #
vertex $-1 $894 $1016 #
vertex $-1 $896 $1017 #
straight-curve $-1 -8.023387807908092 261.49235511337622 0 0 0 -1 I I #
point $-1 -8.023387807908092 -261.49235511337622 -130.74617755668811 #
straight-curve $-1 -8.023387807908092 0 -130.74617755668811 0 1 0 I I #
point $-1 -8.023387807908092 261.49235511337622 -130.74617755668811 #
vertex $-1 $914 $1018 #
straight-curve $-1 -8.023387807908092 261.49235511337622 0 0 0 -1 I I #
point $-1 -8.023387807908092 -261.49235511337622 -130.74617755668811 #
straight-curve $-1 -8.023387807908092 0 -130.74617755668811 0 1 0 I I #
point $-1 -8.023387807908092 261.49235511337622 -130.74617755668811 #
vertex $-1 $932 $1019 #
straight-curve $-1 -8.023387807908092 261.49235511337622 0 0 0 -1 I I #
point $-1 -8.023387807908092 -261.49235511337622 -130.74617755668811 #
straight-curve $-1 -8.023387807908092 0 -130.74617755668811 0 1 0 I I #
point $-1 -8.023387807908092 261.49235511337622 -130.74617755668811 #
vertex $-1 $950 $1020 #
straight-curve $-1 -8.023387807908092 261.49235511337622 0 0 0 -1 I I #
point $-1 -8.023387807908092 -261.49235511337622 -130.74617755668811 #
straight-curve $-1 -8.023387807908092 0 -130.74617755668811 0 1 0 I I #
point $-1 -8.023387807908092 261.49235511337622 -130.74617755668811 #
vertex $-1 $968 $1021 #
point $-1 0 0 0.5 #
point $-1 0 0 0.5 #
point $-1 0 0 0.5 #
point $-1 0 0 0.5 #
point $-1 0 0 0.75 #
point $-1 0 0 0.75 #
point $-1 0 0 0.75 #
point $-1 0 0 0.75 #
End-of-ACIS-data 