500 0 5 0           
7 Unknown 11 ACIS 5.0 NT 24 Thu Mar 25 23:56:16 1999 
-1 9.9999999999999995e-007 1e-010 
body $-1 $5 $-1 $6 #
body $-1 $7 $-1 $8 #
body $-1 $9 $-1 $10 #
body $-1 $11 $-1 $12 #
body $-1 $13 $-1 $14 #
lump $-1 $-1 $15 $0 #
transform $-1 1 0 0 0 1 0 0 0 1 62.681356242561108 34.007318662133549 16.038144985799192 1 rotate no_reflect no_shear #
lump $-1 $-1 $16 $1 #
transform $-1 1 0 0 0 1 0 0 0 1 62.681356242561108 34.007318662133549 16.038144985799192 1 rotate no_reflect no_shear #
lump $-1 $-1 $17 $2 #
transform $-1 1 0 0 0 1 0 0 0 1 62.681356242561108 34.007318662133549 16.038144985799192 1 rotate no_reflect no_shear #
lump $-1 $-1 $18 $3 #
transform $-1 1 0 0 0 1 0 0 0 1 62.681356242561108 34.007318662133549 16.038144985799192 1 rotate no_reflect no_shear #
lump $-1 $-1 $19 $4 #
transform $-1 1 0 0 0 1 0 0 0 1 62.681356242561108 34.007318662133549 16.038144985799192 1 rotate no_reflect no_shear #
shell $-1 $-1 $-1 $20 $-1 $5 #
shell $-1 $-1 $-1 $21 $-1 $7 #
shell $-1 $-1 $-1 $22 $-1 $9 #
shell $-1 $-1 $-1 $23 $-1 $11 #
shell $-1 $-1 $-1 $24 $-1 $13 #
face $-1 $25 $26 $15 $-1 $27 forward single #
face $-1 $28 $29 $16 $-1 $30 forward single #
face $-1 $31 $32 $17 $-1 $33 forward single #
face $-1 $34 $35 $18 $-1 $36 reversed single #
face $-1 $37 $38 $19 $-1 $39 reversed single #
face $-1 $40 $41 $15 $-1 $42 reversed single #
loop $-1 $-1 $43 $20 #
plane-surface $-1 0 0 16.038144985799192 0 0 1 1 0 0 forward_v I I I I #
face $-1 $44 $45 $16 $-1 $46 forward single #
loop $-1 $-1 $47 $21 #
plane-surface $-1 -34.778106723855174 -24.563941228243742 0 1 0 0 0 0 -1 forward_v I I I I #
face $-1 $48 $49 $17 $-1 $50 forward single #
loop $-1 $-1 $51 $22 #
plane-surface $-1 56.494038713779204 24.428181324734474 186.73812662938886 0 1 0 0.68199836817093118 0 0.7313536940579346 forward_v I I I I #
face $-1 $52 $53 $18 $-1 $54 reversed single #
loop $-1 $55 $56 $23 #
cone-surface $-1 58.289722561980405 27.1650777068485 11.814737218547469 -0.68199836817093118 0 -0.7313536940579346 0.7313536940579346 0 -0.68199836817093118 1 I I 0 1 1 forward I I I I #
face $-1 $57 $58 $19 $-1 $59 reversed single #
loop $-1 $60 $61 $24 #
cone-surface $-1 58.289722561980405 31.270422280019538 11.814737218547469 -0.68199836817093118 0 -0.7313536940579346 0.7313536940579346 0 -0.68199836817093118 1 I I 0 1 1 forward I I I I #
face $-1 $62 $63 $15 $-1 $64 reversed single #
loop $-1 $-1 $65 $25 #
plane-surface $-1 0 0 -16.038144985799192 0 0 1 1 0 0 forward_v I I I I #
coedge $-1 $66 $67 $68 $69 forward $26 $-1 #
face $-1 $70 $71 $16 $-1 $72 forward single #
loop $-1 $-1 $73 $28 #
plane-surface $-1 -32.691586497408949 -15.120563794353933 0 0 -1 0 0 0 -1 forward_v I I I I #
coedge $-1 $74 $75 $76 $77 reversed $29 $-1 #
face $-1 $78 $79 $17 $-1 $80 reversed single #
loop $-1 $-1 $81 $31 #
plane-surface $-1 -29.003126630555784 29.217749993434012 95.053643756271953 0.68199836817093118 0 0.7313536940579346 0.7313536940579346 0 -0.68199836817093118 forward_v I I I I #
coedge $-1 $82 $83 $84 $85 reversed $32 $-1 #
face $-1 $86 $87 $18 $-1 $88 forward single #
loop $-1 $89 $90 $34 #
cone-surface $-1 57.032457831375424 27.1650777068485 10.466485891197891 -0.68199836817093118 0 -0.7313536940579346 0.3656768470289673 0 -0.34099918408546559 1 I I -0.70710678118654746 0.70710678118654746 0.5 forward I I I I #
loop $-1 $-1 $91 $23 #
coedge $-1 $56 $56 $92 $93 reversed $35 $-1 #
face $-1 $94 $95 $19 $-1 $96 reversed single #
loop $-1 $97 $98 $37 #
cone-surface $-1 57.032457831375424 31.270422280019538 10.466485891197891 -0.68199836817093118 0 -0.7313536940579346 0.3656768470289673 0 -0.34099918408546559 1 I I -0.70710678118654746 0.70710678118654746 0.5 forward I I I I #
loop $-1 $-1 $99 $24 #
coedge $-1 $61 $61 $100 $101 reversed $38 $-1 #
face $-1 $102 $103 $15 $-1 $104 reversed single #
loop $-1 $-1 $105 $40 #
plane-surface $-1 0 -34.007318662133549 0 0 1 0 0 0 1 forward_v I I I I #
coedge $-1 $106 $107 $108 $109 forward $41 $-1 #
coedge $-1 $110 $43 $111 $112 forward $26 $-1 #
coedge $-1 $43 $110 $113 $114 forward $26 $-1 #
coedge $-1 $115 $116 $43 $69 reversed $117 $-1 #
edge $-1 $118 -34.007318662133549 $119 34.007318662133549 $68 $120 forward 7 unknown #
face $-1 $121 $122 $16 $-1 $123 forward single #
loop $-1 $-1 $124 $44 #
plane-surface $-1 -30.605066270962727 -24.563941228243742 0 -1 0 0 0 0 1 forward_v I I I I #
coedge $-1 $125 $126 $127 $128 reversed $45 $-1 #
coedge $-1 $129 $47 $130 $131 reversed $29 $-1 #
coedge $-1 $47 $129 $132 $133 reversed $29 $-1 #
coedge $-1 $126 $125 $47 $77 forward $45 $-1 #
edge $-1 $134 -16.038144985799192 $135 16.038144985799192 $76 $136 forward 7 unknown #
face $-1 $137 $138 $17 $-1 $139 forward single #
loop $-1 $-1 $140 $48 #
plane-surface $-1 62.681356242561108 0 0 -1 0 0 0 0 1 forward_v I I I I #
coedge $-1 $141 $142 $140 $143 reversed $49 $-1 #
coedge $-1 $83 $51 $142 $144 forward $32 $-1 #
coedge $-1 $51 $82 $145 $146 reversed $32 $-1 #
coedge $-1 $147 $140 $51 $85 forward $79 $-1 #
edge $-1 $148 -83.81258490275745 $149 -77.330918328895237 $84 $150 forward 7 unknown #
face $-1 $151 $152 $18 $-1 $153 forward single #
loop $-1 $-1 $154 $52 #
plane-surface $-1 56.494038713779204 24.428181324734474 186.73812662938886 0 1 0 0.68199836817093118 0 0.7313536940579346 forward_v I I I I #
loop $-1 $-1 $155 $34 #
coedge $-1 $90 $90 $91 $156 forward $53 $-1 #
coedge $-1 $91 $91 $90 $156 reversed $55 $-1 #
coedge $-1 $92 $92 $56 $93 forward $152 $-1 #
edge $-1 $157 0 $157 6.2831853071796004 $92 $158 forward 7 unknown #
face $-1 $159 $160 $19 $-1 $161 reversed single #
loop $-1 $162 $163 $57 #
cone-surface $-1 58.289722561980405 27.1650777068485 11.814737218547469 -0.68199836817093118 0 -0.7313536940579346 0.7313536940579346 0 -0.68199836817093118 1 I I 0 1 1 forward I I I I #
loop $-1 $-1 $164 $37 #
coedge $-1 $98 $98 $99 $165 forward $58 $-1 #
coedge $-1 $99 $99 $98 $165 reversed $60 $-1 #
coedge $-1 $100 $100 $61 $101 forward $166 $-1 #
edge $-1 $167 0 $167 6.2831853071796004 $100 $168 forward 7 unknown #
face $-1 $169 $170 $15 $-1 $171 reversed single #
loop $-1 $-1 $172 $62 #
plane-surface $-1 -62.681356242561108 0 0 1 0 0 0 0 -1 forward_v I I I I #
coedge $-1 $173 $113 $174 $175 forward $63 $-1 #
coedge $-1 $176 $65 $173 $177 forward $41 $-1 #
coedge $-1 $65 $176 $178 $179 forward $41 $-1 #
coedge $-1 $116 $115 $65 $109 reversed $117 $-1 #
edge $-1 $180 -34.007318662133549 $181 34.007318662133549 $108 $182 forward 7 unknown #
coedge $-1 $67 $66 $183 $184 forward $26 $-1 #
coedge $-1 $185 $186 $66 $112 reversed $170 $-1 #
edge $-1 $119 -62.681356242561108 $187 62.681356242561108 $111 $188 forward 7 unknown #
coedge $-1 $105 $189 $67 $114 reversed $63 $-1 #
edge $-1 $190 -62.681356242561108 $118 62.681356242561108 $113 $191 forward 7 unknown #
coedge $-1 $108 $68 $189 $192 forward $117 $-1 #
coedge $-1 $68 $108 $185 $193 reversed $117 $-1 #
loop $-1 $-1 $115 $169 #
vertex $-1 $69 $194 #
vertex $-1 $69 $195 #
straight-curve $-1 62.681356242561108 0 16.038144985799192 0 1 0 I I #
face $-1 $196 $197 $16 $-1 $198 reversed single #
loop $-1 $-1 $130 $70 #
plane-surface $-1 0 0 16.038144985799192 0 0 1 1 0 0 forward_v I I I I #
coedge $-1 $199 $200 $201 $202 reversed $71 $-1 #
coedge $-1 $76 $73 $203 $204 reversed $45 $-1 #
coedge $-1 $73 $76 $205 $206 reversed $45 $-1 #
coedge $-1 $200 $199 $73 $128 forward $71 $-1 #
edge $-1 $207 -16.038144985799192 $208 16.038144985799192 $127 $209 forward 7 unknown #
coedge $-1 $75 $74 $210 $211 reversed $29 $-1 #
coedge $-1 $203 $212 $74 $131 forward $122 $-1 #
edge $-1 $213 -21.725348048011679 $134 -2.8385931802320616 $130 $214 forward 7 unknown #
coedge $-1 $215 $205 $75 $133 forward $216 $-1 #
edge $-1 $135 2.8385931802320616 $217 21.725348048011679 $132 $218 forward 7 unknown #
vertex $-1 $131 $219 #
vertex $-1 $133 $220 #
straight-curve $-1 -34.778106723855174 -15.120563794353933 0 0 0 -1 I I #
face $-1 $221 $222 $17 $-1 $223 forward single #
loop $-1 $-1 $145 $78 #
plane-surface $-1 0 0 16.038144985799192 0 0 1 1 0 0 forward_v I I I I #
coedge $-1 $84 $224 $81 $143 forward $79 $-1 #
coedge $-1 $225 $81 $226 $227 reversed $49 $-1 #
coedge $-1 $81 $225 $82 $144 reversed $49 $-1 #
edge $-1 $228 -19.398443665416544 $148 -9.8193063280174684 $140 $229 forward 7 unknown #
edge $-1 $148 -125.36271248512222 $230 -115.85877981260636 $82 $231 forward 7 unknown #
coedge $-1 $232 $233 $83 $146 forward $138 $-1 #
edge $-1 $149 -34.434336885671506 $230 -27.483600617549136 $145 $234 forward 7 unknown #
coedge $-1 $235 $84 $233 $236 reversed $79 $-1 #
vertex $-1 $143 $237 #
vertex $-1 $146 $238 #
straight-curve $-1 62.681356242561108 24.428181324734474 93.369063314694429 0 0 1 I I #
face $-1 $239 $240 $18 $-1 $241 reversed single #
loop $-1 $242 $92 $86 #
plane-surface $-1 -29.003126630555784 29.217749993434012 95.053643756271953 0.68199836817093118 0 0.7313536940579346 0.7313536940579346 0 -0.68199836817093118 forward_v I I I I #
coedge $-1 $243 $244 $245 $246 reversed $87 $-1 #
coedge $-1 $155 $155 $-1 $247 forward $89 $-1 #
edge $-1 $248 0 $248 6.2831853071796004 $90 $249 forward 7 unknown #
vertex $-1 $93 $250 #
ellipse-curve $-1 59.20598810849993 27.1650777068485 12.797311698868093 -0.68199836817093118 0 -0.7313536940579346 0.7313536940579346 0 -0.68199836817093118 1 I I #
face $-1 $251 $252 $19 $-1 $253 forward single #
loop $-1 $254 $255 $94 #
cone-surface $-1 57.032457831375424 27.1650777068485 10.466485891197891 -0.68199836817093118 0 -0.7313536940579346 0.3656768470289673 0 -0.34099918408546559 1 I I -0.70710678118654746 0.70710678118654746 0.5 forward I I I I #
loop $-1 $-1 $256 $57 #
coedge $-1 $163 $163 $257 $258 reversed $95 $-1 #
coedge $-1 $164 $164 $-1 $259 forward $97 $-1 #
edge $-1 $260 0 $260 6.2831853071796004 $98 $261 forward 7 unknown #
loop $-1 $262 $100 $251 #
vertex $-1 $101 $263 #
ellipse-curve $-1 59.20598810849993 31.270422280019538 12.797311698868093 -0.68199836817093118 0 -0.7313536940579346 0.7313536940579346 0 -0.68199836817093118 1 I I #
face $-1 $-1 $117 $15 $-1 $264 reversed single #
loop $-1 $-1 $185 $102 #
plane-surface $-1 0 34.007318662133549 0 0 -1 0 0 0 -1 forward_v I I I I #
coedge $-1 $265 $183 $186 $266 forward $103 $-1 #
coedge $-1 $189 $105 $106 $177 reversed $63 $-1 #
coedge $-1 $183 $265 $105 $175 reversed $103 $-1 #
edge $-1 $190 -16.038144985799192 $267 16.038144985799192 $174 $268 forward 7 unknown #
coedge $-1 $107 $106 $265 $269 forward $41 $-1 #
edge $-1 $181 -62.681356242561108 $267 62.681356242561108 $173 $270 forward 7 unknown #
coedge $-1 $186 $185 $107 $179 reversed $170 $-1 #
edge $-1 $271 -62.681356242561108 $180 62.681356242561108 $178 $272 forward 7 unknown #
vertex $-1 $109 $273 #
vertex $-1 $192 $274 #
straight-curve $-1 62.681356242561108 0 -16.038144985799192 0 -1 0 I I #
coedge $-1 $172 $174 $110 $184 reversed $103 $-1 #
edge $-1 $187 -34.007318662133549 $190 34.007318662133549 $183 $275 forward 7 unknown #
coedge $-1 $178 $111 $116 $193 forward $170 $-1 #
coedge $-1 $111 $178 $172 $266 reversed $170 $-1 #
vertex $-1 $112 $276 #
straight-curve $-1 0 34.007318662133549 16.038144985799192 -1 0 0 I I #
coedge $-1 $113 $173 $115 $192 reversed $63 $-1 #
vertex $-1 $184 $277 #
straight-curve $-1 0 -34.007318662133549 16.038144985799192 1 0 0 I I #
edge $-1 $118 -16.038144985799192 $181 16.038144985799192 $115 $278 forward 7 unknown #
edge $-1 $119 -16.038144985799192 $180 16.038144985799192 $116 $279 forward 7 unknown #
point $-1 62.681356242561108 -34.007318662133549 16.038144985799192 #
point $-1 62.681356242561108 34.007318662133549 16.038144985799192 #
face $-1 $280 $216 $16 $-1 $281 reversed single #
loop $-1 $-1 $201 $121 #
plane-surface $-1 0 -34.007318662133549 0 0 1 0 0 0 1 forward_v I I I I #
coedge $-1 $127 $124 $282 $283 reversed $71 $-1 #
coedge $-1 $124 $127 $284 $285 reversed $71 $-1 #
coedge $-1 $286 $287 $124 $202 forward $197 $-1 #
edge $-1 $288 -16.038144985799192 $289 16.038144985799192 $201 $290 forward 7 unknown #
coedge $-1 $282 $130 $125 $204 forward $122 $-1 #
edge $-1 $134 -18.4323134751507 $207 -14.259273022258252 $203 $291 forward 7 unknown #
coedge $-1 $132 $284 $126 $206 forward $216 $-1 #
edge $-1 $208 14.259273022258252 $135 18.4323134751507 $205 $292 forward 7 unknown #
vertex $-1 $204 $293 #
vertex $-1 $206 $294 #
straight-curve $-1 -30.605066270962727 -15.120563794353933 0 0 0 -1 I I #
coedge $-1 $295 $296 $129 $211 forward $297 $-1 #
edge $-1 $217 -16.038144985799192 $213 16.038144985799192 $210 $298 forward 7 unknown #
coedge $-1 $130 $299 $295 $300 forward $122 $-1 #
vertex $-1 $211 $301 #
straight-curve $-1 -34.778106723855174 -12.281970614121871 16.038144985799192 0 1 0 I I #
coedge $-1 $302 $132 $296 $303 forward $216 $-1 #
loop $-1 $-1 $132 $196 #
vertex $-1 $303 $304 #
straight-curve $-1 -34.778106723855174 -12.281970614121871 -16.038144985799192 0 -1 0 I I #
point $-1 -34.778106723855174 -15.120563794353933 16.038144985799192 #
point $-1 -34.778106723855174 -15.120563794353933 -16.038144985799192 #
face $-1 $305 $306 $17 $-1 $307 forward single #
loop $-1 $-1 $308 $137 #
plane-surface $-1 -34.778106723855174 -24.563941228243742 0 1 0 0 0 0 -1 forward_v I I I I #
coedge $-1 $140 $309 $310 $311 reversed $79 $-1 #
coedge $-1 $142 $141 $232 $312 reversed $49 $-1 #
coedge $-1 $310 $313 $141 $227 forward $314 $-1 #
edge $-1 $315 72.839792947123598 $228 82.343725619639457 $226 $316 forward 7 unknown #
vertex $-1 $311 $317 #
straight-curve $-1 62.681356242561101 14.608874996717006 9.5564784119369861 0 -1 0 I I #
vertex $-1 $312 $318 #
straight-curve $-1 -29.003126630555784 24.428181324734474 95.053643756271953 -0.7313536940579346 0 0.68199836817093118 I I #
coedge $-1 $319 $145 $225 $312 forward $138 $-1 #
coedge $-1 $145 $320 $147 $236 forward $138 $-1 #
straight-curve $-1 28.247019356889602 24.428181324734474 16.038144985799192 -1 0 0 I I #
coedge $-1 $309 $147 $321 $322 forward $79 $-1 #
edge $-1 $323 -34.007318662133549 $149 24.428181324734474 $147 $324 forward 7 unknown #
point $-1 62.681356242561108 24.428181324734474 9.556478411936979 #
point $-1 62.681356242561108 24.428181324734474 16.038144985799192 #
face $-1 $325 $326 $18 $-1 $327 forward single #
loop $-1 $-1 $328 $151 #
plane-surface $-1 62.681356242561108 0 0 -1 0 0 0 0 1 forward_v I I I I #
loop $-1 $-1 $329 $86 #
coedge $-1 $244 $154 $330 $331 forward $87 $-1 #
coedge $-1 $154 $243 $332 $333 reversed $87 $-1 #
coedge $-1 $334 $328 $154 $246 forward $240 $-1 #
edge $-1 $335 -83.81258490275745 $336 -77.330918328895237 $245 $337 forward 7 unknown #
edge $-1 $338 1 $338 0 $155 $-1 forward 7 unknown #
vertex $-1 $156 $339 #
ellipse-curve $-1 57.373457015460893 27.1650777068485 10.832162738226858 0.68199836817093118 0 0.7313536940579346 0.7313536940579346 0 -0.68199836817093118 1 I I #
point $-1 59.937341802557846 27.1650777068485 12.115313330697148 #
face $-1 $340 $166 $19 $-1 $341 forward single #
loop $-1 $-1 $342 $159 #
plane-surface $-1 56.494038713779204 24.428181324734474 186.73812662938886 0 1 0 0.68199836817093118 0 0.7313536940579346 forward_v I I I I #
loop $-1 $-1 $343 $94 #
coedge $-1 $255 $255 $256 $344 forward $160 $-1 #
coedge $-1 $256 $256 $255 $344 reversed $162 $-1 #
coedge $-1 $257 $257 $163 $258 forward $262 $-1 #
edge $-1 $345 0 $345 6.2831853071796004 $257 $346 forward 7 unknown #
edge $-1 $347 1 $347 0 $164 $-1 forward 7 unknown #
vertex $-1 $165 $348 #
ellipse-curve $-1 57.373457015460893 31.270422280019538 10.832162738226858 0.68199836817093118 0 0.7313536940579346 0.7313536940579346 0 -0.68199836817093118 1 I I #
loop $-1 $349 $257 $251 #
point $-1 59.937341802557846 31.270422280019538 12.115313330697148 #
plane-surface $-1 62.681356242561108 0 0 -1 0 0 0 0 1 forward_v I I I I #
coedge $-1 $174 $172 $176 $269 reversed $103 $-1 #
edge $-1 $187 -16.038144985799192 $271 16.038144985799192 $186 $350 forward 7 unknown #
vertex $-1 $269 $351 #
straight-curve $-1 -62.681356242561108 -34.007318662133549 0 0 0 -1 I I #
edge $-1 $267 -34.007318662133549 $271 34.007318662133549 $265 $352 forward 7 unknown #
straight-curve $-1 0 -34.007318662133549 -16.038144985799192 -1 0 0 I I #
vertex $-1 $179 $353 #
straight-curve $-1 0 34.007318662133549 -16.038144985799192 1 0 0 I I #
point $-1 62.681356242561108 34.007318662133549 -16.038144985799192 #
point $-1 62.681356242561108 -34.007318662133549 -16.038144985799192 #
straight-curve $-1 -62.681356242561108 0 16.038144985799192 0 -1 0 I I #
point $-1 -62.681356242561108 34.007318662133549 16.038144985799192 #
point $-1 -62.681356242561108 -34.007318662133549 16.038144985799192 #
straight-curve $-1 62.681356242561108 -34.007318662133549 0 0 0 -1 I I #
straight-curve $-1 62.681356242561108 34.007318662133549 0 0 0 -1 I I #
face $-1 $354 $297 $16 $-1 $198 reversed single #
plane-surface $-1 0 0 -16.038144985799192 0 0 1 1 0 0 forward_v I I I I #
coedge $-1 $355 $203 $199 $283 forward $122 $-1 #
edge $-1 $207 2.8385931802320616 $288 21.725348048011679 $282 $356 forward 7 unknown #
coedge $-1 $205 $357 $200 $285 forward $216 $-1 #
edge $-1 $289 -21.725348048011679 $208 -2.8385931802320616 $284 $358 forward 7 unknown #
coedge $-1 $359 $201 $357 $360 reversed $197 $-1 #
coedge $-1 $201 $359 $355 $361 reversed $197 $-1 #
vertex $-1 $361 $362 #
vertex $-1 $202 $363 #
straight-curve $-1 -30.605066270962727 -34.007318662133549 0 0 0 -1 I I #
straight-curve $-1 -16.345793248704474 -15.120563794353933 16.038144985799192 1 0 0 I I #
straight-curve $-1 -16.345793248704474 -15.120563794353933 -16.038144985799192 -1 0 0 I I #
point $-1 -30.605066270962727 -15.120563794353933 16.038144985799192 #
point $-1 -30.605066270962727 -15.120563794353933 -16.038144985799192 #
coedge $-1 $364 $210 $212 $300 reversed $297 $-1 #
coedge $-1 $210 $364 $215 $303 reversed $297 $-1 #
loop $-1 $-1 $210 $280 #
straight-curve $-1 -34.778106723855174 -34.007318662133549 0 0 0 1 I I #
coedge $-1 $212 $365 $366 $367 forward $122 $-1 #
edge $-1 $368 -62.681356242561108 $213 -34.778106723855174 $295 $369 forward 7 unknown #
point $-1 -34.778106723855174 -34.007318662133549 16.038144985799192 #
coedge $-1 $370 $215 $371 $372 forward $216 $-1 #
edge $-1 $217 34.778106723855174 $373 62.681356242561108 $296 $374 forward 7 unknown #
point $-1 -34.778106723855174 -34.007318662133549 -16.038144985799192 #
face $-1 $375 $376 $17 $-1 $377 forward single #
loop $-1 $-1 $378 $221 #
plane-surface $-1 -32.691586497408949 -15.120563794353933 0 0 -1 0 0 0 -1 forward_v I I I I #
coedge $-1 $379 $380 $381 $382 reversed $222 $-1 #
coedge $-1 $224 $235 $383 $384 reversed $79 $-1 #
coedge $-1 $385 $226 $224 $311 forward $314 $-1 #
edge $-1 $228 -9.5564784119369932 $386 16.038144985799192 $224 $387 forward 7 unknown #
edge $-1 $230 9.8193063280174684 $315 19.398443665416544 $232 $388 forward 7 unknown #
coedge $-1 $226 $389 $319 $390 reversed $314 $-1 #
loop $-1 $-1 $226 $391 #
vertex $-1 $390 $392 #
straight-curve $-1 2.4589683281448025 34.007318662133549 65.714764913645993 0.7313536940579346 0 -0.68199836817093118 I I #
point $-1 62.681356242561108 34.007318662133549 9.5564784119369932 #
point $-1 55.730619974438738 24.428181324734474 16.038144985799192 #
coedge $-1 $393 $232 $313 $390 forward $138 $-1 #
coedge $-1 $233 $394 $395 $396 forward $138 $-1 #
coedge $-1 $395 $397 $235 $322 reversed $398 $-1 #
edge $-1 $323 -16.038144985799192 $399 16.038144985799192 $235 $400 forward 7 unknown #
vertex $-1 $236 $401 #
straight-curve $-1 62.681356242561108 0 16.038144985799192 0 1 0 I I #
face $-1 $402 $403 $18 $-1 $404 forward single #
loop $-1 $-1 $332 $239 #
plane-surface $-1 0 0 16.038144985799192 0 0 1 1 0 0 forward_v I I I I #
coedge $-1 $245 $405 $329 $406 forward $240 $-1 #
coedge $-1 $407 $330 $328 $406 reversed $242 $-1 #
coedge $-1 $329 $408 $243 $331 reversed $242 $-1 #
edge $-1 $335 -125.36271248512222 $409 -115.85877981260636 $243 $410 forward 7 unknown #
coedge $-1 $411 $412 $244 $333 forward $326 $-1 #
edge $-1 $336 -34.434336885671506 $409 -27.483600617549136 $332 $413 forward 7 unknown #
coedge $-1 $414 $245 $412 $415 reversed $240 $-1 #
vertex $-1 $406 $416 #
vertex $-1 $333 $417 #
straight-curve $-1 62.681356242561108 24.428181324734474 93.369063314694429 0 0 1 I I #
vertex $-1 $247 $418 #
point $-1 58.104810709518823 27.1650777068485 10.150164370055927 #
face $-1 $419 $420 $19 $-1 $421 reversed single #
plane-surface $-1 -29.003126630555784 29.217749993434012 95.053643756271953 0.68199836817093118 0 0.7313536940579346 0.7313536940579346 0 -0.68199836817093118 forward_v I I I I #
coedge $-1 $422 $423 $424 $425 reversed $252 $-1 #
coedge $-1 $343 $343 $-1 $426 forward $254 $-1 #
edge $-1 $427 0 $427 6.2831853071796004 $255 $428 forward 7 unknown #
vertex $-1 $258 $429 #
ellipse-curve $-1 59.20598810849993 27.1650777068485 12.797311698868093 -0.68199836817093118 0 -0.7313536940579346 0.7313536940579346 0 -0.68199836817093118 1 I I #
vertex $-1 $259 $430 #
point $-1 58.104810709518823 31.270422280019538 10.150164370055927 #
loop $-1 $-1 $431 $251 #
straight-curve $-1 -62.681356242561108 34.007318662133549 0 0 0 -1 I I #
point $-1 -62.681356242561108 -34.007318662133549 -16.038144985799192 #
straight-curve $-1 -62.681356242561108 0 -16.038144985799192 0 1 0 I I #
point $-1 -62.681356242561108 34.007318662133549 -16.038144985799192 #
face $-1 $432 $433 $16 $-1 $434 reversed single #
coedge $-1 $435 $282 $287 $361 forward $122 $-1 #
straight-curve $-1 -30.605066270962727 -12.281970614121871 16.038144985799192 0 -1 0 I I #
coedge $-1 $284 $436 $286 $360 forward $216 $-1 #
straight-curve $-1 -30.605066270962727 -12.281970614121871 -16.038144985799192 0 1 0 I I #
coedge $-1 $287 $286 $437 $438 reversed $197 $-1 #
edge $-1 $439 -62.681356242561108 $289 30.605066270962727 $286 $374 forward 7 unknown #
edge $-1 $288 -30.605066270962727 $440 62.681356242561108 $287 $369 forward 7 unknown #
point $-1 -30.605066270962727 -34.007318662133549 16.038144985799192 #
point $-1 -30.605066270962727 -34.007318662133549 -16.038144985799192 #
coedge $-1 $296 $295 $441 $442 forward $297 $-1 #
coedge $-1 $299 $435 $443 $444 forward $122 $-1 #
coedge $-1 $445 $441 $299 $367 reversed $433 $-1 #
edge $-1 $446 -34.007318662133549 $368 34.007318662133549 $366 $447 forward 7 unknown #
vertex $-1 $367 $448 #
straight-curve $-1 0 -34.007318662133549 16.038144985799192 1 0 0 I I #
coedge $-1 $436 $302 $449 $450 forward $216 $-1 #
coedge $-1 $441 $445 $302 $372 reversed $433 $-1 #
edge $-1 $373 -34.007318662133549 $451 34.007318662133549 $371 $452 forward 7 unknown #
vertex $-1 $372 $453 #
straight-curve $-1 0 -34.007318662133549 -16.038144985799192 -1 0 0 I I #
face $-1 $454 $398 $17 $-1 $455 reversed single #
loop $-1 $-1 $456 $305 #
plane-surface $-1 -30.605066270962727 -24.563941228243742 0 -1 0 0 0 0 1 forward_v I I I I #
coedge $-1 $457 $458 $459 $460 reversed $306 $-1 #
coedge $-1 $461 $308 $462 $463 reversed $222 $-1 #
coedge $-1 $308 $461 $464 $465 reversed $222 $-1 #
coedge $-1 $458 $457 $308 $382 forward $306 $-1 #
edge $-1 $466 -16.038144985799192 $467 16.038144985799192 $381 $468 forward 7 unknown #
coedge $-1 $469 $470 $309 $384 forward $471 $-1 #
edge $-1 $386 -34.007318662133549 $399 34.007318662133549 $309 $472 forward 7 unknown #
coedge $-1 $389 $310 $470 $473 reversed $314 $-1 #
vertex $-1 $384 $474 #
straight-curve $-1 62.681356242561108 34.007318662133549 0 0 0 -1 I I #
straight-curve $-1 55.730619974438746 14.608874996717006 16.0381449857992 0 1 0 I I #
coedge $-1 $313 $385 $475 $476 reversed $314 $-1 #
edge $-1 $315 -55.730619974438738 $477 62.681356242561108 $313 $478 forward 7 unknown #
face $-1 $-1 $314 $17 $-1 $479 reversed single #
point $-1 55.730619974438738 34.007318662133549 16.038144985799192 #
coedge $-1 $480 $319 $481 $482 forward $138 $-1 #
coedge $-1 $320 $483 $484 $485 forward $138 $-1 #
coedge $-1 $486 $321 $320 $396 reversed $398 $-1 #
edge $-1 $487 -30.605066270962727 $323 62.681356242561108 $395 $488 forward 7 unknown #
coedge $-1 $321 $486 $469 $489 reversed $398 $-1 #
loop $-1 $-1 $486 $375 #
vertex $-1 $322 $490 #
straight-curve $-1 62.681356242561108 -34.007318662133549 0 0 0 -1 I I #
point $-1 62.681356242561108 -34.007318662133549 16.038144985799192 #
face $-1 $491 $492 $18 $-1 $493 forward single #
loop $-1 $-1 $494 $325 #
plane-surface $-1 -34.778106723855174 -24.563941228243742 0 1 0 0 0 0 -1 forward_v I I I I #
coedge $-1 $328 $495 $496 $497 reversed $240 $-1 #
edge $-1 $498 -19.398443665416544 $335 -9.8193063280174684 $328 $499 forward 7 unknown #
coedge $-1 $408 $329 $500 $501 reversed $242 $-1 #
coedge $-1 $330 $407 $411 $502 reversed $242 $-1 #
vertex $-1 $502 $503 #
straight-curve $-1 -29.003126630555784 24.428181324734474 95.053643756271953 -0.7313536940579346 0 0.68199836817093118 I I #
coedge $-1 $504 $332 $408 $502 forward $326 $-1 #
coedge $-1 $332 $505 $334 $415 forward $326 $-1 #
straight-curve $-1 28.247019356889602 24.428181324734474 16.038144985799192 -1 0 0 I I #
coedge $-1 $495 $334 $506 $507 forward $240 $-1 #
edge $-1 $508 -34.007318662133549 $336 24.428181324734474 $334 $509 forward 7 unknown #
point $-1 62.681356242561108 24.428181324734474 9.556478411936979 #
point $-1 62.681356242561108 24.428181324734474 16.038144985799192 #
point $-1 56.691458647289956 27.1650777068485 10.100809044168924 #
face $-1 $510 $511 $19 $-1 $512 forward single #
loop $-1 $-1 $513 $340 #
plane-surface $-1 62.681356242561108 0 0 -1 0 0 0 0 1 forward_v I I I I #
coedge $-1 $423 $342 $514 $515 forward $252 $-1 #
coedge $-1 $342 $422 $516 $517 reversed $252 $-1 #
coedge $-1 $518 $513 $342 $425 forward $420 $-1 #
edge $-1 $519 -83.81258490275745 $520 -77.330918328895237 $424 $521 forward 7 unknown #
edge $-1 $522 1 $522 0 $343 $-1 forward 7 unknown #
vertex $-1 $344 $523 #
ellipse-curve $-1 57.373457015460893 27.1650777068485 10.832162738226858 0.68199836817093118 0 0.7313536940579346 0.7313536940579346 0 -0.68199836817093118 1 I I #
point $-1 59.937341802557846 27.1650777068485 12.115313330697148 #
point $-1 56.691458647289956 31.270422280019538 10.100809044168924 #
coedge $-1 $524 $514 $513 $525 reversed $349 $-1 #
face $-1 $526 $527 $16 $-1 $528 reversed single #
loop $-1 $-1 $445 $354 #
plane-surface $-1 -62.681356242561108 0 0 1 0 0 0 0 -1 forward_v I I I I #
coedge $-1 $365 $355 $529 $530 forward $122 $-1 #
coedge $-1 $357 $370 $531 $532 forward $216 $-1 #
coedge $-1 $531 $529 $359 $438 forward $533 $-1 #
edge $-1 $440 -16.038144985799192 $439 16.038144985799192 $437 $534 forward 7 unknown #
vertex $-1 $438 $535 #
vertex $-1 $530 $536 #
coedge $-1 $366 $371 $364 $442 reversed $433 $-1 #
edge $-1 $368 -16.038144985799192 $373 16.038144985799192 $441 $537 forward 7 unknown #
coedge $-1 $538 $539 $365 $444 reversed $527 $-1 #
edge $-1 $540 -62.681356242561108 $446 62.681356242561108 $443 $541 forward 7 unknown #
coedge $-1 $371 $366 $539 $542 forward $433 $-1 #
vertex $-1 $444 $543 #
straight-curve $-1 -62.681356242561108 0 16.038144985799192 0 -1 0 I I #
point $-1 -62.681356242561108 -34.007318662133549 16.038144985799192 #
coedge $-1 $539 $538 $370 $450 reversed $527 $-1 #
edge $-1 $451 -62.681356242561108 $544 62.681356242561108 $449 $545 forward 7 unknown #
vertex $-1 $450 $546 #
straight-curve $-1 -62.681356242561108 0 -16.038144985799192 0 1 0 I I #
point $-1 -62.681356242561108 -34.007318662133549 -16.038144985799192 #
face $-1 $547 $471 $17 $-1 $548 reversed single #
plane-surface $-1 0 -34.007318662133549 0 0 1 0 0 0 1 forward_v I I I I #
coedge $-1 $484 $549 $486 $550 reversed $376 $-1 #
coedge $-1 $381 $378 $483 $551 reversed $306 $-1 #
coedge $-1 $378 $381 $552 $553 reversed $306 $-1 #
coedge $-1 $549 $484 $378 $460 forward $376 $-1 #
edge $-1 $554 -16.038144985799192 $555 16.038144985799192 $459 $556 forward 7 unknown #
coedge $-1 $380 $379 $557 $558 reversed $222 $-1 #
coedge $-1 $483 $480 $379 $463 forward $138 $-1 #
edge $-1 $559 -21.725348048011679 $466 -2.8385931802320616 $462 $560 forward 7 unknown #
coedge $-1 $561 $552 $380 $465 forward $471 $-1 #
edge $-1 $467 2.8385931802320616 $562 21.725348048011679 $464 $563 forward 7 unknown #
vertex $-1 $463 $564 #
vertex $-1 $465 $565 #
straight-curve $-1 -34.778106723855174 -15.120563794353933 0 0 0 -1 I I #
coedge $-1 $566 $383 $397 $489 forward $471 $-1 #
coedge $-1 $383 $567 $385 $473 forward $471 $-1 #
loop $-1 $-1 $464 $454 #
straight-curve $-1 62.681356242561108 0 -16.038144985799192 0 -1 0 I I #
edge $-1 $568 -62.681356242561108 $386 62.681356242561108 $385 $569 forward 7 unknown #
point $-1 62.681356242561108 34.007318662133549 -16.038144985799192 #
coedge $-1 $570 $481 $389 $476 forward $571 $-1 #
edge $-1 $477 -16.038144985799192 $568 16.038144985799192 $389 $572 forward 7 unknown #
vertex $-1 $390 $573 #
straight-curve $-1 0 34.007318662133549 16.038144985799192 -1 0 0 I I #
plane-surface $-1 0 34.007318662133549 0 0 -1 0 0 0 -1 forward_v I I I I #
coedge $-1 $462 $393 $574 $575 forward $138 $-1 #
coedge $-1 $475 $576 $393 $482 reversed $571 $-1 #
edge $-1 $477 -34.007318662133549 $577 34.007318662133549 $481 $578 forward 7 unknown #
coedge $-1 $394 $462 $457 $551 forward $138 $-1 #
coedge $-1 $459 $456 $394 $485 reversed $376 $-1 #
edge $-1 $554 2.8385931802320616 $487 21.725348048011679 $394 $579 forward 7 unknown #
coedge $-1 $397 $395 $456 $550 forward $398 $-1 #
vertex $-1 $396 $580 #
straight-curve $-1 0 -34.007318662133549 16.038144985799192 1 0 0 I I #
edge $-1 $399 -62.681356242561108 $581 30.605066270962727 $397 $582 forward 7 unknown #
point $-1 62.681356242561108 -34.007318662133549 -16.038144985799192 #
face $-1 $583 $584 $18 $-1 $585 forward single #
loop $-1 $-1 $586 $402 #
plane-surface $-1 -32.691586497408949 -15.120563794353933 0 0 -1 0 0 0 -1 forward_v I I I I #
coedge $-1 $587 $588 $589 $590 reversed $403 $-1 #
coedge $-1 $405 $414 $591 $592 reversed $240 $-1 #
coedge $-1 $593 $500 $405 $497 forward $594 $-1 #
edge $-1 $498 -9.5564784119369932 $595 16.038144985799192 $405 $596 forward 7 unknown #
vertex $-1 $497 $597 #
straight-curve $-1 62.681356242561101 14.608874996717006 9.5564784119369861 0 -1 0 I I #
coedge $-1 $496 $598 $407 $501 forward $594 $-1 #
edge $-1 $599 72.839792947123598 $498 82.343725619639457 $500 $600 forward 7 unknown #
edge $-1 $409 9.8193063280174684 $599 19.398443665416544 $411 $601 forward 7 unknown #
point $-1 55.730619974438738 24.428181324734474 16.038144985799192 #
coedge $-1 $602 $411 $598 $603 forward $326 $-1 #
coedge $-1 $412 $604 $605 $606 forward $326 $-1 #
coedge $-1 $605 $607 $414 $507 reversed $608 $-1 #
edge $-1 $508 -16.038144985799192 $609 16.038144985799192 $414 $610 forward 7 unknown #
vertex $-1 $415 $611 #
straight-curve $-1 62.681356242561108 0 16.038144985799192 0 1 0 I I #
face $-1 $612 $613 $19 $-1 $614 forward single #
loop $-1 $-1 $516 $419 #
plane-surface $-1 0 0 16.038144985799192 0 0 1 1 0 0 forward_v I I I I #
coedge $-1 $424 $615 $431 $525 forward $420 $-1 #
coedge $-1 $431 $616 $422 $515 reversed $349 $-1 #
edge $-1 $519 -125.36271248512222 $617 -115.85877981260636 $422 $618 forward 7 unknown #
coedge $-1 $619 $620 $423 $517 forward $511 $-1 #
edge $-1 $520 -34.434336885671506 $617 -27.483600617549136 $516 $621 forward 7 unknown #
coedge $-1 $622 $424 $620 $623 reversed $420 $-1 #
vertex $-1 $525 $624 #
vertex $-1 $517 $625 #
straight-curve $-1 62.681356242561108 24.428181324734474 93.369063314694429 0 0 1 I I #
vertex $-1 $426 $626 #
point $-1 58.104810709518823 27.1650777068485 10.150164370055927 #
coedge $-1 $616 $431 $627 $628 reversed $349 $-1 #
edge $-1 $629 -19.398443665416544 $519 -9.8193063280174684 $513 $630 forward 7 unknown #
face $-1 $-1 $533 $16 $-1 $631 reversed single #
loop $-1 $-1 $538 $432 #
plane-surface $-1 0 34.007318662133549 0 0 -1 0 0 0 -1 forward_v I I I I #
coedge $-1 $437 $632 $435 $530 reversed $533 $-1 #
edge $-1 $440 -34.007318662133549 $540 34.007318662133549 $529 $633 forward 7 unknown #
coedge $-1 $632 $437 $436 $532 reversed $533 $-1 #
edge $-1 $544 -34.007318662133549 $439 34.007318662133549 $531 $634 forward 7 unknown #
loop $-1 $-1 $437 $526 #
straight-curve $-1 62.681356242561108 -34.007318662133549 0 0 0 -1 I I #
point $-1 62.681356242561108 -34.007318662133549 -16.038144985799192 #
point $-1 62.681356242561108 -34.007318662133549 16.038144985799192 #
straight-curve $-1 -62.681356242561108 -34.007318662133549 0 0 0 -1 I I #
coedge $-1 $449 $443 $632 $635 forward $527 $-1 #
coedge $-1 $443 $449 $445 $542 reversed $527 $-1 #
vertex $-1 $530 $636 #
straight-curve $-1 0 34.007318662133549 16.038144985799192 -1 0 0 I I #
edge $-1 $446 -16.038144985799192 $451 16.038144985799192 $539 $637 forward 7 unknown #
point $-1 -62.681356242561108 34.007318662133549 16.038144985799192 #
vertex $-1 $532 $638 #
straight-curve $-1 0 34.007318662133549 -16.038144985799192 1 0 0 I I #
point $-1 -62.681356242561108 34.007318662133549 -16.038144985799192 #
face $-1 $639 $640 $17 $-1 $455 reversed single #
plane-surface $-1 0 0 -16.038144985799192 0 0 1 1 0 0 forward_v I I I I #
coedge $-1 $456 $459 $566 $641 reversed $376 $-1 #
edge $-1 $487 -16.038144985799192 $581 16.038144985799192 $486 $642 forward 7 unknown #
edge $-1 $466 -18.4323134751507 $554 -14.259273022258252 $483 $643 forward 7 unknown #
coedge $-1 $464 $566 $458 $553 forward $471 $-1 #
edge $-1 $555 14.259273022258252 $467 18.4323134751507 $552 $644 forward 7 unknown #
vertex $-1 $551 $645 #
vertex $-1 $553 $646 #
straight-curve $-1 -30.605066270962727 -15.120563794353933 0 0 0 -1 I I #
coedge $-1 $574 $647 $461 $558 forward $640 $-1 #
edge $-1 $562 -16.038144985799192 $559 16.038144985799192 $557 $648 forward 7 unknown #
vertex $-1 $558 $649 #
straight-curve $-1 -34.778106723855174 -12.281970614121871 16.038144985799192 0 1 0 I I #
coedge $-1 $567 $464 $647 $650 forward $471 $-1 #
vertex $-1 $650 $651 #
straight-curve $-1 -34.778106723855174 -12.281970614121871 -16.038144985799192 0 -1 0 I I #
point $-1 -34.778106723855174 -15.120563794353933 16.038144985799192 #
point $-1 -34.778106723855174 -15.120563794353933 -16.038144985799192 #
coedge $-1 $552 $469 $549 $641 forward $471 $-1 #
coedge $-1 $470 $561 $570 $652 forward $471 $-1 #
vertex $-1 $473 $653 #
straight-curve $-1 0 34.007318662133549 -16.038144985799192 1 0 0 I I #
coedge $-1 $576 $475 $567 $652 reversed $571 $-1 #
loop $-1 $-1 $475 $639 #
straight-curve $-1 -62.681356242561108 34.007318662133549 0 0 0 -1 I I #
point $-1 -62.681356242561108 34.007318662133549 16.038144985799192 #
coedge $-1 $654 $557 $480 $575 reversed $640 $-1 #
edge $-1 $577 -62.681356242561108 $559 -34.778106723855174 $574 $488 forward 7 unknown #
coedge $-1 $481 $570 $654 $655 reversed $571 $-1 #
vertex $-1 $482 $656 #
straight-curve $-1 -62.681356242561108 0 16.038144985799192 0 -1 0 I I #
straight-curve $-1 -30.605066270962727 -12.281970614121871 16.038144985799192 0 -1 0 I I #
point $-1 -30.605066270962727 -34.007318662133549 16.038144985799192 #
vertex $-1 $550 $657 #
straight-curve $-1 0 -34.007318662133549 -16.038144985799192 -1 0 0 I I #
face $-1 $658 $608 $18 $-1 $659 reversed single #
loop $-1 $-1 $660 $491 #
plane-surface $-1 -30.605066270962727 -24.563941228243742 0 -1 0 0 0 0 1 forward_v I I I I #
coedge $-1 $661 $662 $663 $664 reversed $492 $-1 #
coedge $-1 $665 $494 $666 $667 reversed $403 $-1 #
coedge $-1 $494 $665 $668 $669 reversed $403 $-1 #
coedge $-1 $662 $661 $494 $590 forward $492 $-1 #
edge $-1 $670 -16.038144985799192 $671 16.038144985799192 $589 $672 forward 7 unknown #
coedge $-1 $673 $674 $495 $592 forward $675 $-1 #
edge $-1 $595 -34.007318662133549 $609 34.007318662133549 $495 $676 forward 7 unknown #
coedge $-1 $677 $496 $674 $678 reversed $594 $-1 #
loop $-1 $-1 $500 $679 #
vertex $-1 $592 $680 #
straight-curve $-1 62.681356242561108 34.007318662133549 0 0 0 -1 I I #
point $-1 62.681356242561108 34.007318662133549 9.5564784119369932 #
coedge $-1 $500 $677 $504 $603 reversed $594 $-1 #
vertex $-1 $603 $681 #
straight-curve $-1 2.4589683281448025 34.007318662133549 65.714764913645993 0.7313536940579346 0 -0.68199836817093118 I I #
straight-curve $-1 55.730619974438746 14.608874996717006 16.0381449857992 0 1 0 I I #
coedge $-1 $682 $504 $683 $684 forward $326 $-1 #
edge $-1 $599 -55.730619974438738 $685 62.681356242561108 $598 $686 forward 7 unknown #
coedge $-1 $505 $687 $688 $689 forward $326 $-1 #
coedge $-1 $690 $506 $505 $606 reversed $608 $-1 #
edge $-1 $691 -30.605066270962727 $508 62.681356242561108 $605 $692 forward 7 unknown #
coedge $-1 $506 $690 $673 $693 reversed $608 $-1 #
loop $-1 $-1 $690 $583 #
vertex $-1 $507 $694 #
straight-curve $-1 62.681356242561108 -34.007318662133549 0 0 0 -1 I I #
point $-1 62.681356242561108 -34.007318662133549 16.038144985799192 #
face $-1 $695 $696 $19 $-1 $697 forward single #
loop $-1 $-1 $698 $510 #
plane-surface $-1 -34.778106723855174 -24.563941228243742 0 1 0 0 0 0 -1 forward_v I I I I #
coedge $-1 $513 $699 $700 $701 reversed $420 $-1 #
coedge $-1 $514 $524 $619 $702 reversed $349 $-1 #
vertex $-1 $702 $703 #
straight-curve $-1 -29.003126630555784 24.428181324734474 95.053643756271953 -0.7313536940579346 0 0.68199836817093118 I I #
coedge $-1 $704 $516 $616 $702 forward $511 $-1 #
coedge $-1 $516 $705 $518 $623 forward $511 $-1 #
straight-curve $-1 28.247019356889602 24.428181324734474 16.038144985799192 -1 0 0 I I #
coedge $-1 $699 $518 $706 $707 forward $420 $-1 #
edge $-1 $708 -34.007318662133549 $520 24.428181324734474 $518 $709 forward 7 unknown #
point $-1 62.681356242561108 24.428181324734474 9.556478411936979 #
point $-1 62.681356242561108 24.428181324734474 16.038144985799192 #
point $-1 56.691458647289956 27.1650777068485 10.100809044168924 #
coedge $-1 $700 $710 $524 $628 forward $711 $-1 #
edge $-1 $712 72.839792947123598 $629 82.343725619639457 $627 $713 forward 7 unknown #
vertex $-1 $701 $714 #
straight-curve $-1 62.681356242561101 14.608874996717006 9.5564784119369861 0 -1 0 I I #
plane-surface $-1 62.681356242561108 0 0 -1 0 0 0 0 1 forward_v I I I I #
coedge $-1 $529 $531 $538 $635 reversed $533 $-1 #
straight-curve $-1 62.681356242561108 0 16.038144985799192 0 1 0 I I #
straight-curve $-1 62.681356242561108 0 -16.038144985799192 0 -1 0 I I #
edge $-1 $540 -16.038144985799192 $544 16.038144985799192 $632 $715 forward 7 unknown #
point $-1 62.681356242561108 34.007318662133549 16.038144985799192 #
straight-curve $-1 -62.681356242561108 34.007318662133549 0 0 0 -1 I I #
point $-1 62.681356242561108 34.007318662133549 -16.038144985799192 #
face $-1 $391 $571 $17 $-1 $716 reversed single #
loop $-1 $-1 $557 $547 #
edge $-1 $581 -21.725348048011679 $555 -2.8385931802320616 $566 $717 forward 7 unknown #
straight-curve $-1 -30.605066270962727 -34.007318662133549 0 0 0 -1 I I #
straight-curve $-1 -16.345793248704474 -15.120563794353933 16.038144985799192 1 0 0 I I #
straight-curve $-1 -16.345793248704474 -15.120563794353933 -16.038144985799192 -1 0 0 I I #
point $-1 -30.605066270962727 -15.120563794353933 16.038144985799192 #
point $-1 -30.605066270962727 -15.120563794353933 -16.038144985799192 #
coedge $-1 $557 $654 $561 $650 reversed $640 $-1 #
straight-curve $-1 -34.778106723855174 -34.007318662133549 0 0 0 1 I I #
point $-1 -34.778106723855174 -34.007318662133549 16.038144985799192 #
edge $-1 $562 34.778106723855174 $718 62.681356242561108 $647 $582 forward 7 unknown #
point $-1 -34.778106723855174 -34.007318662133549 -16.038144985799192 #
edge $-1 $718 -34.007318662133549 $568 34.007318662133549 $570 $719 forward 7 unknown #
point $-1 -62.681356242561108 34.007318662133549 -16.038144985799192 #
coedge $-1 $647 $574 $576 $655 forward $640 $-1 #
edge $-1 $577 -16.038144985799192 $718 16.038144985799192 $576 $720 forward 7 unknown #
point $-1 -62.681356242561108 -34.007318662133549 16.038144985799192 #
point $-1 -30.605066270962727 -34.007318662133549 -16.038144985799192 #
face $-1 $721 $675 $18 $-1 $722 reversed single #
plane-surface $-1 0 -34.007318662133549 0 0 1 0 0 0 1 forward_v I I I I #
coedge $-1 $688 $723 $690 $724 reversed $584 $-1 #
coedge $-1 $589 $586 $687 $725 reversed $492 $-1 #
coedge $-1 $586 $589 $726 $727 reversed $492 $-1 #
coedge $-1 $723 $688 $586 $664 forward $584 $-1 #
edge $-1 $728 -16.038144985799192 $729 16.038144985799192 $663 $730 forward 7 unknown #
coedge $-1 $588 $587 $731 $732 reversed $403 $-1 #
coedge $-1 $687 $682 $587 $667 forward $326 $-1 #
edge $-1 $733 -21.725348048011679 $670 -2.8385931802320616 $666 $734 forward 7 unknown #
coedge $-1 $735 $726 $588 $669 forward $675 $-1 #
edge $-1 $671 2.8385931802320616 $736 21.725348048011679 $668 $737 forward 7 unknown #
vertex $-1 $667 $738 #
vertex $-1 $669 $739 #
straight-curve $-1 -34.778106723855174 -15.120563794353933 0 0 0 -1 I I #
coedge $-1 $740 $591 $607 $693 forward $675 $-1 #
coedge $-1 $591 $741 $593 $678 forward $675 $-1 #
loop $-1 $-1 $668 $658 #
straight-curve $-1 62.681356242561108 0 -16.038144985799192 0 -1 0 I I #
coedge $-1 $598 $593 $742 $743 reversed $594 $-1 #
edge $-1 $744 -62.681356242561108 $595 62.681356242561108 $593 $745 forward 7 unknown #
face $-1 $-1 $594 $18 $-1 $746 reversed single #
point $-1 62.681356242561108 34.007318662133549 -16.038144985799192 #
point $-1 55.730619974438738 34.007318662133549 16.038144985799192 #
coedge $-1 $666 $602 $747 $748 forward $326 $-1 #
coedge $-1 $742 $749 $602 $684 reversed $750 $-1 #
edge $-1 $685 -34.007318662133549 $751 34.007318662133549 $683 $752 forward 7 unknown #
vertex $-1 $603 $753 #
straight-curve $-1 0 34.007318662133549 16.038144985799192 -1 0 0 I I #
coedge $-1 $604 $666 $661 $725 forward $326 $-1 #
coedge $-1 $663 $660 $604 $689 reversed $584 $-1 #
edge $-1 $728 2.8385931802320616 $691 21.725348048011679 $604 $754 forward 7 unknown #
coedge $-1 $607 $605 $660 $724 forward $608 $-1 #
vertex $-1 $606 $755 #
straight-curve $-1 0 -34.007318662133549 16.038144985799192 1 0 0 I I #
edge $-1 $609 -62.681356242561108 $756 30.605066270962727 $607 $757 forward 7 unknown #
point $-1 62.681356242561108 -34.007318662133549 -16.038144985799192 #
face $-1 $758 $759 $19 $-1 $760 forward single #
loop $-1 $-1 $761 $612 #
plane-surface $-1 -32.691586497408949 -15.120563794353933 0 0 -1 0 0 0 -1 forward_v I I I I #
coedge $-1 $762 $763 $764 $765 reversed $613 $-1 #
coedge $-1 $615 $622 $766 $767 reversed $420 $-1 #
coedge $-1 $768 $627 $615 $701 forward $711 $-1 #
edge $-1 $629 -9.5564784119369932 $769 16.038144985799192 $615 $770 forward 7 unknown #
edge $-1 $617 9.8193063280174684 $712 19.398443665416544 $619 $771 forward 7 unknown #
point $-1 55.730619974438738 24.428181324734474 16.038144985799192 #
coedge $-1 $772 $619 $710 $773 forward $511 $-1 #
coedge $-1 $620 $774 $775 $776 forward $511 $-1 #
coedge $-1 $775 $777 $622 $707 reversed $778 $-1 #
edge $-1 $708 -16.038144985799192 $779 16.038144985799192 $622 $780 forward 7 unknown #
vertex $-1 $623 $781 #
straight-curve $-1 62.681356242561108 0 16.038144985799192 0 1 0 I I #
coedge $-1 $627 $782 $704 $773 reversed $711 $-1 #
loop $-1 $-1 $627 $783 #
vertex $-1 $773 $784 #
straight-curve $-1 2.4589683281448025 34.007318662133549 65.714764913645993 0.7313536940579346 0 -0.68199836817093118 I I #
point $-1 62.681356242561108 34.007318662133549 9.5564784119369932 #
straight-curve $-1 62.681356242561108 34.007318662133549 0 0 0 -1 I I #
plane-surface $-1 -62.681356242561108 0 0 1 0 0 0 0 -1 forward_v I I I I #
straight-curve $-1 -30.605066270962727 -12.281970614121871 -16.038144985799192 0 1 0 I I #
vertex $-1 $652 $785 #
straight-curve $-1 -62.681356242561108 0 -16.038144985799192 0 1 0 I I #
straight-curve $-1 -62.681356242561108 -34.007318662133549 0 0 0 -1 I I #
face $-1 $786 $787 $18 $-1 $659 reversed single #
plane-surface $-1 0 0 -16.038144985799192 0 0 1 1 0 0 forward_v I I I I #
coedge $-1 $660 $663 $740 $788 reversed $584 $-1 #
edge $-1 $691 -16.038144985799192 $756 16.038144985799192 $690 $789 forward 7 unknown #
edge $-1 $670 -18.4323134751507 $728 -14.259273022258252 $687 $790 forward 7 unknown #
coedge $-1 $668 $740 $662 $727 forward $675 $-1 #
edge $-1 $729 14.259273022258252 $671 18.4323134751507 $726 $791 forward 7 unknown #
vertex $-1 $725 $792 #
vertex $-1 $727 $793 #
straight-curve $-1 -30.605066270962727 -15.120563794353933 0 0 0 -1 I I #
coedge $-1 $747 $794 $665 $732 forward $787 $-1 #
edge $-1 $736 -16.038144985799192 $733 16.038144985799192 $731 $795 forward 7 unknown #
vertex $-1 $732 $796 #
straight-curve $-1 -34.778106723855174 -12.281970614121871 16.038144985799192 0 1 0 I I #
coedge $-1 $741 $668 $794 $797 forward $675 $-1 #
vertex $-1 $797 $798 #
straight-curve $-1 -34.778106723855174 -12.281970614121871 -16.038144985799192 0 -1 0 I I #
point $-1 -34.778106723855174 -15.120563794353933 16.038144985799192 #
point $-1 -34.778106723855174 -15.120563794353933 -16.038144985799192 #
coedge $-1 $726 $673 $723 $788 forward $675 $-1 #
coedge $-1 $674 $735 $799 $800 forward $675 $-1 #
coedge $-1 $799 $683 $677 $743 forward $750 $-1 #
edge $-1 $685 -16.038144985799192 $744 16.038144985799192 $677 $801 forward 7 unknown #
vertex $-1 $678 $802 #
straight-curve $-1 0 34.007318662133549 -16.038144985799192 1 0 0 I I #
plane-surface $-1 0 34.007318662133549 0 0 -1 0 0 0 -1 forward_v I I I I #
coedge $-1 $803 $731 $682 $748 reversed $787 $-1 #
edge $-1 $751 -62.681356242561108 $733 -34.778106723855174 $747 $692 forward 7 unknown #
coedge $-1 $683 $799 $803 $804 reversed $750 $-1 #
loop $-1 $-1 $742 $786 #
vertex $-1 $684 $805 #
straight-curve $-1 -62.681356242561108 0 16.038144985799192 0 -1 0 I I #
point $-1 -62.681356242561108 34.007318662133549 16.038144985799192 #
straight-curve $-1 -30.605066270962727 -12.281970614121871 16.038144985799192 0 -1 0 I I #
point $-1 -30.605066270962727 -34.007318662133549 16.038144985799192 #
vertex $-1 $724 $806 #
straight-curve $-1 0 -34.007318662133549 -16.038144985799192 -1 0 0 I I #
face $-1 $807 $778 $19 $-1 $808 reversed single #
loop $-1 $-1 $809 $695 #
plane-surface $-1 -30.605066270962727 -24.563941228243742 0 -1 0 0 0 0 1 forward_v I I I I #
coedge $-1 $810 $811 $812 $813 reversed $696 $-1 #
coedge $-1 $814 $698 $815 $816 reversed $613 $-1 #
coedge $-1 $698 $814 $817 $818 reversed $613 $-1 #
coedge $-1 $811 $810 $698 $765 forward $696 $-1 #
edge $-1 $819 -16.038144985799192 $820 16.038144985799192 $764 $821 forward 7 unknown #
coedge $-1 $822 $823 $699 $767 forward $824 $-1 #
edge $-1 $769 -34.007318662133549 $779 34.007318662133549 $699 $825 forward 7 unknown #
coedge $-1 $782 $700 $823 $826 reversed $711 $-1 #
vertex $-1 $767 $827 #
straight-curve $-1 62.681356242561108 34.007318662133549 0 0 0 -1 I I #
straight-curve $-1 55.730619974438746 14.608874996717006 16.0381449857992 0 1 0 I I #
coedge $-1 $828 $704 $829 $830 forward $511 $-1 #
edge $-1 $712 -55.730619974438738 $831 62.681356242561108 $710 $832 forward 7 unknown #
coedge $-1 $705 $833 $834 $835 forward $511 $-1 #
coedge $-1 $836 $706 $705 $776 reversed $778 $-1 #
edge $-1 $837 -30.605066270962727 $708 62.681356242561108 $775 $838 forward 7 unknown #
coedge $-1 $706 $836 $822 $839 reversed $778 $-1 #
loop $-1 $-1 $836 $758 #
vertex $-1 $707 $840 #
straight-curve $-1 62.681356242561108 -34.007318662133549 0 0 0 -1 I I #
point $-1 62.681356242561108 -34.007318662133549 16.038144985799192 #
coedge $-1 $710 $768 $841 $842 reversed $711 $-1 #
face $-1 $-1 $711 $19 $-1 $843 reversed single #
point $-1 55.730619974438738 34.007318662133549 16.038144985799192 #
point $-1 -62.681356242561108 -34.007318662133549 -16.038144985799192 #
face $-1 $679 $750 $18 $-1 $844 reversed single #
loop $-1 $-1 $731 $721 #
edge $-1 $756 -21.725348048011679 $729 -2.8385931802320616 $740 $845 forward 7 unknown #
straight-curve $-1 -30.605066270962727 -34.007318662133549 0 0 0 -1 I I #
straight-curve $-1 -16.345793248704474 -15.120563794353933 16.038144985799192 1 0 0 I I #
straight-curve $-1 -16.345793248704474 -15.120563794353933 -16.038144985799192 -1 0 0 I I #
point $-1 -30.605066270962727 -15.120563794353933 16.038144985799192 #
point $-1 -30.605066270962727 -15.120563794353933 -16.038144985799192 #
coedge $-1 $731 $803 $735 $797 reversed $787 $-1 #
straight-curve $-1 -34.778106723855174 -34.007318662133549 0 0 0 1 I I #
point $-1 -34.778106723855174 -34.007318662133549 16.038144985799192 #
edge $-1 $736 34.778106723855174 $846 62.681356242561108 $794 $757 forward 7 unknown #
point $-1 -34.778106723855174 -34.007318662133549 -16.038144985799192 #
coedge $-1 $749 $742 $741 $800 reversed $750 $-1 #
edge $-1 $846 -34.007318662133549 $744 34.007318662133549 $799 $847 forward 7 unknown #
straight-curve $-1 -62.681356242561108 34.007318662133549 0 0 0 -1 I I #
point $-1 -62.681356242561108 34.007318662133549 -16.038144985799192 #
coedge $-1 $794 $747 $749 $804 forward $787 $-1 #
edge $-1 $751 -16.038144985799192 $846 16.038144985799192 $749 $848 forward 7 unknown #
point $-1 -62.681356242561108 -34.007318662133549 16.038144985799192 #
point $-1 -30.605066270962727 -34.007318662133549 -16.038144985799192 #
face $-1 $849 $824 $19 $-1 $850 reversed single #
plane-surface $-1 0 -34.007318662133549 0 0 1 0 0 0 1 forward_v I I I I #
coedge $-1 $834 $851 $836 $852 reversed $759 $-1 #
coedge $-1 $764 $761 $833 $853 reversed $696 $-1 #
coedge $-1 $761 $764 $854 $855 reversed $696 $-1 #
coedge $-1 $851 $834 $761 $813 forward $759 $-1 #
edge $-1 $856 -16.038144985799192 $857 16.038144985799192 $812 $858 forward 7 unknown #
coedge $-1 $763 $762 $859 $860 reversed $613 $-1 #
coedge $-1 $833 $828 $762 $816 forward $511 $-1 #
edge $-1 $861 -21.725348048011679 $819 -2.8385931802320616 $815 $862 forward 7 unknown #
coedge $-1 $863 $854 $763 $818 forward $824 $-1 #
edge $-1 $820 2.8385931802320616 $864 21.725348048011679 $817 $865 forward 7 unknown #
vertex $-1 $816 $866 #
vertex $-1 $818 $867 #
straight-curve $-1 -34.778106723855174 -15.120563794353933 0 0 0 -1 I I #
coedge $-1 $868 $766 $777 $839 forward $824 $-1 #
coedge $-1 $766 $869 $768 $826 forward $824 $-1 #
loop $-1 $-1 $817 $807 #
straight-curve $-1 62.681356242561108 0 -16.038144985799192 0 -1 0 I I #
edge $-1 $870 -62.681356242561108 $769 62.681356242561108 $768 $871 forward 7 unknown #
point $-1 62.681356242561108 34.007318662133549 -16.038144985799192 #
coedge $-1 $815 $772 $872 $873 forward $511 $-1 #
coedge $-1 $841 $874 $772 $830 reversed $875 $-1 #
edge $-1 $831 -34.007318662133549 $876 34.007318662133549 $829 $877 forward 7 unknown #
vertex $-1 $773 $878 #
straight-curve $-1 0 34.007318662133549 16.038144985799192 -1 0 0 I I #
coedge $-1 $774 $815 $810 $853 forward $511 $-1 #
coedge $-1 $812 $809 $774 $835 reversed $759 $-1 #
edge $-1 $856 2.8385931802320616 $837 21.725348048011679 $774 $879 forward 7 unknown #
coedge $-1 $777 $775 $809 $852 forward $778 $-1 #
vertex $-1 $776 $880 #
straight-curve $-1 0 -34.007318662133549 16.038144985799192 1 0 0 I I #
edge $-1 $779 -62.681356242561108 $881 30.605066270962727 $777 $882 forward 7 unknown #
point $-1 62.681356242561108 -34.007318662133549 -16.038144985799192 #
coedge $-1 $883 $829 $782 $842 forward $875 $-1 #
edge $-1 $831 -16.038144985799192 $870 16.038144985799192 $782 $884 forward 7 unknown #
plane-surface $-1 0 34.007318662133549 0 0 -1 0 0 0 -1 forward_v I I I I #
plane-surface $-1 -62.681356242561108 0 0 1 0 0 0 0 -1 forward_v I I I I #
straight-curve $-1 -30.605066270962727 -12.281970614121871 -16.038144985799192 0 1 0 I I #
vertex $-1 $800 $885 #
straight-curve $-1 -62.681356242561108 0 -16.038144985799192 0 1 0 I I #
straight-curve $-1 -62.681356242561108 -34.007318662133549 0 0 0 -1 I I #
face $-1 $886 $887 $19 $-1 $808 reversed single #
plane-surface $-1 0 0 -16.038144985799192 0 0 1 1 0 0 forward_v I I I I #
coedge $-1 $809 $812 $868 $888 reversed $759 $-1 #
edge $-1 $837 -16.038144985799192 $881 16.038144985799192 $836 $889 forward 7 unknown #
edge $-1 $819 -18.4323134751507 $856 -14.259273022258252 $833 $890 forward 7 unknown #
coedge $-1 $817 $868 $811 $855 forward $824 $-1 #
edge $-1 $857 14.259273022258252 $820 18.4323134751507 $854 $891 forward 7 unknown #
vertex $-1 $853 $892 #
vertex $-1 $855 $893 #
straight-curve $-1 -30.605066270962727 -15.120563794353933 0 0 0 -1 I I #
coedge $-1 $872 $894 $814 $860 forward $887 $-1 #
edge $-1 $864 -16.038144985799192 $861 16.038144985799192 $859 $895 forward 7 unknown #
vertex $-1 $860 $896 #
straight-curve $-1 -34.778106723855174 -12.281970614121871 16.038144985799192 0 1 0 I I #
coedge $-1 $869 $817 $894 $897 forward $824 $-1 #
vertex $-1 $897 $898 #
straight-curve $-1 -34.778106723855174 -12.281970614121871 -16.038144985799192 0 -1 0 I I #
point $-1 -34.778106723855174 -15.120563794353933 16.038144985799192 #
point $-1 -34.778106723855174 -15.120563794353933 -16.038144985799192 #
coedge $-1 $854 $822 $851 $888 forward $824 $-1 #
coedge $-1 $823 $863 $883 $899 forward $824 $-1 #
vertex $-1 $826 $900 #
straight-curve $-1 0 34.007318662133549 -16.038144985799192 1 0 0 I I #
coedge $-1 $901 $859 $828 $873 reversed $887 $-1 #
edge $-1 $876 -62.681356242561108 $861 -34.778106723855174 $872 $838 forward 7 unknown #
coedge $-1 $829 $883 $901 $902 reversed $875 $-1 #
loop $-1 $-1 $841 $886 #
vertex $-1 $830 $903 #
straight-curve $-1 -62.681356242561108 0 16.038144985799192 0 -1 0 I I #
point $-1 -62.681356242561108 34.007318662133549 16.038144985799192 #
straight-curve $-1 -30.605066270962727 -12.281970614121871 16.038144985799192 0 -1 0 I I #
point $-1 -30.605066270962727 -34.007318662133549 16.038144985799192 #
vertex $-1 $852 $904 #
straight-curve $-1 0 -34.007318662133549 -16.038144985799192 -1 0 0 I I #
coedge $-1 $874 $841 $869 $899 reversed $875 $-1 #
straight-curve $-1 -62.681356242561108 34.007318662133549 0 0 0 -1 I I #
point $-1 -62.681356242561108 -34.007318662133549 -16.038144985799192 #
face $-1 $783 $875 $19 $-1 $905 reversed single #
loop $-1 $-1 $859 $849 #
edge $-1 $881 -21.725348048011679 $857 -2.8385931802320616 $868 $906 forward 7 unknown #
straight-curve $-1 -30.605066270962727 -34.007318662133549 0 0 0 -1 I I #
straight-curve $-1 -16.345793248704474 -15.120563794353933 16.038144985799192 1 0 0 I I #
straight-curve $-1 -16.345793248704474 -15.120563794353933 -16.038144985799192 -1 0 0 I I #
point $-1 -30.605066270962727 -15.120563794353933 16.038144985799192 #
point $-1 -30.605066270962727 -15.120563794353933 -16.038144985799192 #
coedge $-1 $859 $901 $863 $897 reversed $887 $-1 #
straight-curve $-1 -34.778106723855174 -34.007318662133549 0 0 0 1 I I #
point $-1 -34.778106723855174 -34.007318662133549 16.038144985799192 #
edge $-1 $864 34.778106723855174 $907 62.681356242561108 $894 $882 forward 7 unknown #
point $-1 -34.778106723855174 -34.007318662133549 -16.038144985799192 #
edge $-1 $907 -34.007318662133549 $870 34.007318662133549 $883 $908 forward 7 unknown #
point $-1 -62.681356242561108 34.007318662133549 -16.038144985799192 #
coedge $-1 $894 $872 $874 $902 forward $887 $-1 #
edge $-1 $876 -16.038144985799192 $907 16.038144985799192 $874 $909 forward 7 unknown #
point $-1 -62.681356242561108 -34.007318662133549 16.038144985799192 #
point $-1 -30.605066270962727 -34.007318662133549 -16.038144985799192 #
plane-surface $-1 -62.681356242561108 0 0 1 0 0 0 0 -1 forward_v I I I I #
straight-curve $-1 -30.605066270962727 -12.281970614121871 -16.038144985799192 0 1 0 I I #
vertex $-1 $899 $910 #
straight-curve $-1 -62.681356242561108 0 -16.038144985799192 0 1 0 I I #
straight-curve $-1 -62.681356242561108 -34.007318662133549 0 0 0 -1 I I #
point $-1 -62.681356242561108 -34.007318662133549 -16.038144985799192 #
End-of-ACIS-data 