600 0 2 0           
106 GICL ACIS Healer - Source: /gicl/data5/repository/Drexel/CICIRELLO-THESISDATA/Part10002.smdg.des.sat - 6 0 18 ACIS 6.0.3 Solaris 24 Fri Apr 12 10:14:14 2002 
1 9.999999999999999547e-07 1.000000000000000036e-10 
body $-1 $2 $-1 $-1 #
body $-1 $3 $-1 $-1 #
lump $-1 $-1 $4 $0 #
lump $-1 $-1 $5 $1 #
shell $-1 $-1 $-1 $6 $-1 $2 #
shell $-1 $-1 $-1 $7 $-1 $3 #
face $-1 $8 $9 $4 $-1 $10 forward single #
face $-1 $11 $12 $5 $-1 $13 forward single #
face $-1 $14 $15 $4 $-1 $16 reversed single #
loop $-1 $-1 $17 $6 #
plane-surface $-1 62.55684072389904316 34.78684976342995583 27.19079549977013599 0 0 1 1 0 0 forward_v I I I I #
face $-1 $18 $19 $5 $-1 $20 reversed single #
loop $-1 $-1 $21 $7 #
plane-surface $-1 -4.62627731336797865 34.78684976342995583 8.114655075105833504 0 0 1 1 0 0 forward_v I I I I #
face $-1 $22 $23 $4 $-1 $24 reversed single #
loop $-1 $-1 $25 $8 #
plane-surface $-1 62.55684072389904316 34.78684976342995583 0 0 0 1 1 0 0 forward_v I I I I #
coedge $-1 $26 $27 $28 $29 forward $9 $-1 #
face $-1 $30 $31 $5 $-1 $32 reversed single #
loop $-1 $-1 $33 $11 #
plane-surface $-1 -4.62627731336797865 34.78684976342995583 2.898473507308811037 0 0 1 1 0 0 forward_v I I I I #
coedge $-1 $34 $35 $36 $37 reversed $12 $-1 #
face $-1 $38 $39 $4 $-1 $40 reversed single #
loop $-1 $-1 $41 $14 #
plane-surface $-1 62.55684072389904316 0 13.595397749885068 0 1 0 0 0 1 forward_v I I I I #
coedge $-1 $42 $43 $44 $45 forward $15 $-1 #
coedge $-1 $46 $17 $47 $48 forward $9 $-1 #
coedge $-1 $17 $46 $49 $50 forward $9 $-1 #
coedge $-1 $51 $52 $17 $29 reversed $53 $-1 #
edge $-1 $54 -34.78684976342995583 $55 34.78684976342995583 $28 $56 forward 7 unknown #
face $-1 $57 $58 $5 $-1 $59 reversed single #
loop $-1 $-1 $60 $18 #
plane-surface $-1 -9.252554626735957299 34.78684976342995583 5.50656429120732227 1 0 0 0 0 -1 forward_v I I I I #
coedge $-1 $61 $62 $63 $64 reversed $19 $-1 #
coedge $-1 $65 $21 $66 $67 forward $12 $-1 #
coedge $-1 $21 $65 $68 $69 forward $12 $-1 #
coedge $-1 $70 $71 $21 $37 forward $72 $-1 #
edge $-1 $73 -34.78684976342995583 $74 34.78684976342995583 $36 $75 forward 7 unknown #
face $-1 $76 $77 $4 $-1 $78 reversed single #
loop $-1 $-1 $79 $22 #
plane-surface $-1 0 34.78684976342995583 13.595397749885068 1 0 0 0 0 -1 forward_v I I I I #
coedge $-1 $80 $49 $81 $82 forward $23 $-1 #
coedge $-1 $83 $25 $80 $84 forward $15 $-1 #
coedge $-1 $25 $83 $85 $86 forward $15 $-1 #
coedge $-1 $52 $51 $25 $45 reversed $53 $-1 #
edge $-1 $87 -34.78684976342995583 $88 34.78684976342995583 $44 $89 forward 7 unknown #
coedge $-1 $27 $26 $90 $91 forward $9 $-1 #
coedge $-1 $92 $93 $26 $48 reversed $77 $-1 #
edge $-1 $55 -62.55684072389904316 $94 62.55684072389904316 $47 $95 forward 7 unknown #
coedge $-1 $41 $96 $27 $50 reversed $23 $-1 #
edge $-1 $97 -62.55684072389904316 $54 62.55684072389904316 $49 $98 forward 7 unknown #
coedge $-1 $44 $28 $96 $99 forward $53 $-1 #
coedge $-1 $28 $44 $92 $100 reversed $53 $-1 #
loop $-1 $-1 $51 $76 #
vertex $-1 $29 $101 #
vertex $-1 $29 $102 #
straight-curve $-1 125.1136814477980863 34.78684976342995583 27.19079549977013599 0 1 0 I I #
face $-1 $103 $72 $5 $-1 $59 reversed single #
loop $-1 $-1 $63 $30 #
plane-surface $-1 0 34.78684976342995583 13.595397749885068 1 0 0 0 0 -1 forward_v I I I I #
coedge $-1 $104 $105 $106 $107 forward $31 $-1 #
coedge $-1 $108 $33 $109 $110 forward $19 $-1 #
coedge $-1 $33 $108 $111 $112 forward $19 $-1 #
coedge $-1 $113 $114 $33 $64 forward $58 $-1 #
edge $-1 $115 -34.78684976342995583 $116 34.78684976342995583 $63 $117 forward 7 unknown #
coedge $-1 $35 $34 $105 $118 forward $12 $-1 #
coedge $-1 $119 $106 $34 $67 reversed $120 $-1 #
edge $-1 $73 -4.62627731336797865 $121 4.62627731336797865 $66 $122 forward 7 unknown #
coedge $-1 $123 $124 $35 $69 reversed $125 $-1 #
edge $-1 $126 -4.62627731336797865 $74 4.62627731336797865 $68 $127 forward 7 unknown #
coedge $-1 $128 $36 $124 $129 reversed $72 $-1 #
coedge $-1 $36 $128 $119 $130 forward $72 $-1 #
loop $-1 $-1 $36 $57 #
vertex $-1 $130 $131 #
vertex $-1 $69 $132 #
straight-curve $-1 0 34.78684976342995583 8.114655075105833504 0 -1 0 I I #
face $-1 $-1 $53 $4 $-1 $133 reversed single #
loop $-1 $-1 $92 $38 #
plane-surface $-1 62.55684072389904316 69.57369952685991166 13.595397749885068 0 -1 0 0 0 -1 forward_v I I I I #
coedge $-1 $134 $90 $93 $135 forward $39 $-1 #
coedge $-1 $96 $41 $42 $84 reversed $23 $-1 #
coedge $-1 $90 $134 $41 $82 reversed $39 $-1 #
edge $-1 $97 -13.595397749885068 $136 13.595397749885068 $81 $137 forward 7 unknown #
coedge $-1 $43 $42 $134 $138 forward $15 $-1 #
edge $-1 $88 -62.55684072389904316 $136 62.55684072389904316 $80 $139 forward 7 unknown #
coedge $-1 $93 $92 $43 $86 reversed $77 $-1 #
edge $-1 $140 -62.55684072389904316 $87 62.55684072389904316 $85 $141 forward 7 unknown #
vertex $-1 $45 $142 #
vertex $-1 $99 $143 #
straight-curve $-1 125.1136814477980863 34.78684976342995583 0 0 -1 0 I I #
coedge $-1 $79 $81 $46 $91 reversed $39 $-1 #
edge $-1 $94 -34.78684976342995583 $97 34.78684976342995583 $90 $144 forward 7 unknown #
coedge $-1 $85 $47 $52 $100 forward $77 $-1 #
coedge $-1 $47 $85 $79 $135 reversed $77 $-1 #
vertex $-1 $48 $145 #
straight-curve $-1 62.55684072389904316 69.57369952685991166 27.19079549977013599 -1 0 0 I I #
coedge $-1 $49 $80 $51 $99 reversed $23 $-1 #
vertex $-1 $91 $146 #
straight-curve $-1 62.55684072389904316 0 27.19079549977013599 1 0 0 I I #
edge $-1 $54 -13.595397749885068 $88 13.595397749885068 $51 $147 forward 7 unknown #
edge $-1 $55 -13.595397749885068 $87 13.595397749885068 $52 $148 forward 7 unknown #
point $-1 125.1136814477980863 0 27.19079549977013599 #
point $-1 125.1136814477980863 69.57369952685991166 27.19079549977013599 #
face $-1 $149 $150 $5 $-1 $151 forward single #
coedge $-1 $152 $60 $108 $153 reversed $31 $-1 #
coedge $-1 $60 $152 $65 $118 reversed $31 $-1 #
coedge $-1 $66 $111 $60 $107 reversed $120 $-1 #
edge $-1 $121 -2.608090783898511233 $154 2.608090783898511233 $106 $155 forward 7 unknown #
coedge $-1 $62 $61 $104 $153 forward $19 $-1 #
coedge $-1 $156 $123 $61 $110 reversed $125 $-1 #
edge $-1 $115 -4.62627731336797865 $157 4.62627731336797865 $109 $158 forward 7 unknown #
coedge $-1 $106 $159 $62 $112 reversed $120 $-1 #
edge $-1 $154 -4.62627731336797865 $116 4.62627731336797865 $111 $160 forward 7 unknown #
coedge $-1 $161 $63 $159 $162 forward $58 $-1 #
coedge $-1 $63 $161 $156 $163 reversed $58 $-1 #
vertex $-1 $163 $164 #
vertex $-1 $162 $165 #
straight-curve $-1 0 34.78684976342995583 2.898473507308811037 0 1 0 I I #
edge $-1 $121 -34.78684976342995583 $126 34.78684976342995583 $105 $166 forward 7 unknown #
coedge $-1 $167 $66 $71 $130 reversed $120 $-1 #
loop $-1 $-1 $168 $169 #
vertex $-1 $67 $170 #
straight-curve $-1 -4.62627731336797865 69.57369952685991166 8.114655075105833504 -1 0 0 I I #
coedge $-1 $109 $68 $152 $171 forward $125 $-1 #
coedge $-1 $68 $172 $70 $129 forward $125 $-1 #
loop $-1 $-1 $124 $173 #
vertex $-1 $118 $174 #
straight-curve $-1 -4.62627731336797865 0 8.114655075105833504 1 0 0 I I #
coedge $-1 $71 $70 $175 $176 reversed $72 $-1 #
edge $-1 $177 -13.595397749885068 $74 5.480742674779234491 $70 $178 forward 7 unknown #
edge $-1 $179 -13.595397749885068 $73 5.480742674779234491 $119 $180 forward 7 unknown #
point $-1 0 69.57369952685991166 8.114655075105833504 #
point $-1 0 0 8.114655075105833504 #
plane-surface $-1 125.1136814477980863 34.78684976342995583 13.595397749885068 -1 0 0 0 0 1 forward_v I I I I #
coedge $-1 $81 $79 $83 $138 reversed $39 $-1 #
edge $-1 $94 -13.595397749885068 $140 13.595397749885068 $93 $181 forward 7 unknown #
vertex $-1 $138 $182 #
straight-curve $-1 0 0 13.595397749885068 0 0 -1 I I #
edge $-1 $136 -34.78684976342995583 $140 34.78684976342995583 $134 $183 forward 7 unknown #
straight-curve $-1 62.55684072389904316 0 0 -1 0 0 I I #
vertex $-1 $86 $184 #
straight-curve $-1 62.55684072389904316 69.57369952685991166 0 1 0 0 I I #
point $-1 125.1136814477980863 69.57369952685991166 0 #
point $-1 125.1136814477980863 0 0 #
straight-curve $-1 0 34.78684976342995583 27.19079549977013599 0 -1 0 I I #
point $-1 0 69.57369952685991166 27.19079549977013599 #
point $-1 0 0 27.19079549977013599 #
straight-curve $-1 125.1136814477980863 0 13.595397749885068 0 0 -1 I I #
straight-curve $-1 125.1136814477980863 69.57369952685991166 13.595397749885068 0 0 -1 I I #
face $-1 $173 $185 $5 $-1 $186 reversed single #
loop $-1 $-1 $187 $103 #
plane-surface $-1 62.55684072389904316 34.78684976342995583 27.19079549977013599 0 0 1 1 0 0 forward_v I I I I #
coedge $-1 $105 $104 $123 $171 reversed $31 $-1 #
edge $-1 $157 -34.78684976342995583 $154 34.78684976342995583 $104 $188 forward 7 unknown #
vertex $-1 $112 $189 #
straight-curve $-1 -9.252554626735957299 69.57369952685991166 5.50656429120732227 0 0 -1 I I #
coedge $-1 $190 $109 $114 $163 forward $125 $-1 #
vertex $-1 $153 $191 #
straight-curve $-1 -4.62627731336797865 0 2.898473507308811037 -1 0 0 I I #
coedge $-1 $111 $192 $113 $162 reversed $120 $-1 #
straight-curve $-1 -4.62627731336797865 69.57369952685991166 2.898473507308811037 1 0 0 I I #
coedge $-1 $114 $113 $193 $194 reversed $58 $-1 #
edge $-1 $116 10.69692424257625696 $195 13.595397749885068 $159 $180 forward 7 unknown #
edge $-1 $115 10.69692424257625696 $196 13.595397749885068 $114 $178 forward 7 unknown #
point $-1 0 0 2.898473507308811037 #
point $-1 0 69.57369952685991166 2.898473507308811037 #
straight-curve $-1 -9.252554626735957299 34.78684976342995583 8.114655075105833504 0 -1 0 I I #
coedge $-1 $168 $119 $197 $198 reversed $120 $-1 #
coedge $-1 $192 $167 $199 $200 forward $120 $-1 #
face $-1 $201 $120 $5 $-1 $202 reversed single #
point $-1 -9.252554626735957299 69.57369952685991166 8.114655075105833504 #
edge $-1 $126 -2.608090783898511233 $157 2.608090783898511233 $152 $203 forward 7 unknown #
coedge $-1 $124 $204 $205 $206 reversed $125 $-1 #
face $-1 $169 $125 $5 $-1 $207 reversed single #
point $-1 -9.252554626735957299 0 8.114655075105833504 #
coedge $-1 $205 $197 $128 $176 forward $150 $-1 #
edge $-1 $179 -34.78684976342995583 $177 34.78684976342995583 $128 $208 forward 7 unknown #
vertex $-1 $176 $209 #
straight-curve $-1 0 0 13.595397749885068 0 0 -1 I I #
vertex $-1 $198 $210 #
straight-curve $-1 0 69.57369952685991166 13.595397749885068 0 0 -1 I I #
straight-curve $-1 0 69.57369952685991166 13.595397749885068 0 0 -1 I I #
point $-1 0 0 0 #
straight-curve $-1 0 34.78684976342995583 0 0 1 0 I I #
point $-1 0 69.57369952685991166 0 #
loop $-1 $-1 $211 $149 #
plane-surface $-1 62.55684072389904316 34.78684976342995583 0 0 0 1 1 0 0 forward_v I I I I #
coedge $-1 $197 $205 $212 $213 forward $150 $-1 #
straight-curve $-1 -9.252554626735957299 34.78684976342995583 2.898473507308811037 0 1 0 I I #
point $-1 -9.252554626735957299 69.57369952685991166 2.898473507308811037 #
coedge $-1 $204 $156 $214 $215 reversed $125 $-1 #
point $-1 -9.252554626735957299 0 2.898473507308811037 #
coedge $-1 $159 $168 $216 $217 reversed $120 $-1 #
coedge $-1 $216 $214 $161 $194 forward $185 $-1 #
edge $-1 $196 -34.78684976342995583 $195 34.78684976342995583 $161 $218 forward 7 unknown #
vertex $-1 $217 $219 #
vertex $-1 $194 $220 #
coedge $-1 $175 $187 $167 $198 forward $150 $-1 #
edge $-1 $221 -62.55684072389904316 $179 62.55684072389904316 $167 $222 forward 7 unknown #
coedge $-1 $212 $223 $168 $200 reversed $224 $-1 #
edge $-1 $221 -13.595397749885068 $225 13.595397749885068 $199 $226 forward 7 unknown #
face $-1 $-1 $224 $5 $-1 $227 reversed single #
plane-surface $-1 62.55684072389904316 69.57369952685991166 13.595397749885068 0 -1 0 0 0 -1 forward_v I I I I #
straight-curve $-1 -9.252554626735957299 0 5.50656429120732227 0 0 -1 I I #
coedge $-1 $172 $190 $228 $229 reversed $125 $-1 #
coedge $-1 $187 $175 $172 $206 forward $150 $-1 #
edge $-1 $177 -62.55684072389904316 $230 62.55684072389904316 $172 $231 forward 7 unknown #
plane-surface $-1 62.55684072389904316 0 13.595397749885068 0 1 0 0 0 1 forward_v I I I I #
straight-curve $-1 0 34.78684976342995583 27.19079549977013599 0 -1 0 I I #
point $-1 0 0 27.19079549977013599 #
point $-1 0 69.57369952685991166 27.19079549977013599 #
coedge $-1 $214 $216 $223 $232 forward $185 $-1 #
coedge $-1 $228 $199 $187 $213 reversed $224 $-1 #
edge $-1 $230 -34.78684976342995583 $221 34.78684976342995583 $212 $233 forward 7 unknown #
coedge $-1 $193 $211 $190 $215 forward $185 $-1 #
edge $-1 $234 -62.55684072389904316 $196 62.55684072389904316 $190 $235 forward 7 unknown #
coedge $-1 $211 $193 $192 $217 forward $185 $-1 #
edge $-1 $195 -62.55684072389904316 $225 62.55684072389904316 $192 $236 forward 7 unknown #
straight-curve $-1 0 34.78684976342995583 0 0 1 0 I I #
point $-1 0 69.57369952685991166 0 #
point $-1 0 0 0 #
vertex $-1 $213 $237 #
straight-curve $-1 62.55684072389904316 69.57369952685991166 27.19079549977013599 -1 0 0 I I #
coedge $-1 $199 $228 $211 $232 reversed $224 $-1 #
loop $-1 $-1 $228 $201 #
vertex $-1 $232 $238 #
straight-curve $-1 125.1136814477980863 69.57369952685991166 13.595397749885068 0 0 -1 I I #
plane-surface $-1 125.1136814477980863 34.78684976342995583 13.595397749885068 -1 0 0 0 0 1 forward_v I I I I #
coedge $-1 $223 $212 $204 $229 forward $224 $-1 #
edge $-1 $230 -13.595397749885068 $234 13.595397749885068 $228 $239 forward 7 unknown #
vertex $-1 $213 $240 #
straight-curve $-1 62.55684072389904316 0 27.19079549977013599 1 0 0 I I #
edge $-1 $225 -34.78684976342995583 $234 34.78684976342995583 $223 $241 forward 7 unknown #
straight-curve $-1 125.1136814477980863 34.78684976342995583 27.19079549977013599 0 1 0 I I #
vertex $-1 $229 $242 #
straight-curve $-1 62.55684072389904316 0 0 -1 0 0 I I #
straight-curve $-1 62.55684072389904316 69.57369952685991166 0 1 0 0 I I #
point $-1 125.1136814477980863 69.57369952685991166 27.19079549977013599 #
point $-1 125.1136814477980863 69.57369952685991166 0 #
straight-curve $-1 125.1136814477980863 0 13.595397749885068 0 0 -1 I I #
point $-1 125.1136814477980863 0 27.19079549977013599 #
straight-curve $-1 125.1136814477980863 34.78684976342995583 0 0 -1 0 I I #
point $-1 125.1136814477980863 0 0 #
End-of-ACIS-data 