500 0 12 0           
7 Unknown 11 ACIS 5.0 NT 24 Fri Mar 26 20:41:45 1999 
-1 9.9999999999999995e-007 1e-010 
body $-1 $12 $-1 $13 #
body $-1 $14 $-1 $15 #
body $-1 $16 $-1 $17 #
body $-1 $18 $-1 $19 #
body $-1 $20 $-1 $21 #
body $-1 $22 $-1 $23 #
body $-1 $24 $-1 $25 #
body $-1 $26 $-1 $27 #
body $-1 $28 $-1 $29 #
body $-1 $30 $-1 $31 #
body $-1 $32 $-1 $33 #
body $-1 $34 $-1 $35 #
lump $-1 $-1 $36 $0 #
transform $-1 1 0 0 0 1 0 0 0 1 52.532120731223486 35.117980022747801 10.745885393782796 1 rotate no_reflect no_shear #
lump $-1 $-1 $37 $1 #
transform $-1 1 0 0 0 1 0 0 0 1 52.532120731223486 35.117980022747801 10.745885393782796 1 rotate no_reflect no_shear #
lump $-1 $-1 $38 $2 #
transform $-1 1 0 0 0 1 0 0 0 1 52.532120731223486 35.117980022747801 10.745885393782796 1 rotate no_reflect no_shear #
lump $-1 $-1 $39 $3 #
transform $-1 1 0 0 0 1 0 0 0 1 52.532120731223486 35.117980022747801 10.745885393782796 1 rotate no_reflect no_shear #
lump $-1 $-1 $40 $4 #
transform $-1 1 0 0 0 1 0 0 0 1 52.532120731223486 35.117980022747801 10.745885393782796 1 rotate no_reflect no_shear #
lump $-1 $-1 $41 $5 #
transform $-1 1 0 0 0 1 0 0 0 1 52.532120731223486 35.117980022747801 10.745885393782796 1 rotate no_reflect no_shear #
lump $-1 $-1 $42 $6 #
transform $-1 1 0 0 0 1 0 0 0 1 52.532120731223486 35.117980022747801 10.745885393782796 1 rotate no_reflect no_shear #
lump $-1 $-1 $43 $7 #
transform $-1 1 0 0 0 1 0 0 0 1 52.532120731223486 35.117980022747801 10.745885393782796 1 rotate no_reflect no_shear #
lump $-1 $-1 $44 $8 #
transform $-1 1 0 0 0 1 0 0 0 1 52.532120731223486 35.117980022747801 10.745885393782796 1 rotate no_reflect no_shear #
lump $-1 $-1 $45 $9 #
transform $-1 1 0 0 0 1 0 0 0 1 52.532120731223486 35.117980022747801 10.745885393782796 1 rotate no_reflect no_shear #
lump $-1 $-1 $46 $10 #
transform $-1 1 0 0 0 1 0 0 0 1 52.532120731223486 35.117980022747801 10.745885393782796 1 rotate no_reflect no_shear #
lump $-1 $-1 $47 $11 #
transform $-1 1 0 0 0 1 0 0 0 1 52.532120731223486 35.117980022747801 10.745885393782796 1 rotate no_reflect no_shear #
shell $-1 $-1 $-1 $48 $-1 $12 #
shell $-1 $-1 $-1 $49 $-1 $14 #
shell $-1 $-1 $-1 $50 $-1 $16 #
shell $-1 $-1 $-1 $51 $-1 $18 #
shell $-1 $-1 $-1 $52 $-1 $20 #
shell $-1 $-1 $-1 $53 $-1 $22 #
shell $-1 $-1 $-1 $54 $-1 $24 #
shell $-1 $-1 $-1 $55 $-1 $26 #
shell $-1 $-1 $-1 $56 $-1 $28 #
shell $-1 $-1 $-1 $57 $-1 $30 #
shell $-1 $-1 $-1 $58 $-1 $32 #
shell $-1 $-1 $-1 $59 $-1 $34 #
face $-1 $60 $61 $36 $-1 $62 forward single #
face $-1 $63 $64 $37 $-1 $65 reversed single #
face $-1 $66 $67 $38 $-1 $68 reversed single #
face $-1 $69 $70 $39 $-1 $71 forward single #
face $-1 $72 $73 $40 $-1 $74 reversed single #
face $-1 $75 $76 $41 $-1 $77 forward single #
face $-1 $78 $79 $42 $-1 $80 reversed single #
face $-1 $81 $82 $43 $-1 $83 forward single #
face $-1 $84 $85 $44 $-1 $86 reversed single #
face $-1 $87 $88 $45 $-1 $89 forward single #
face $-1 $90 $91 $46 $-1 $92 reversed single #
face $-1 $93 $94 $47 $-1 $95 forward single #
face $-1 $96 $97 $36 $-1 $98 reversed single #
loop $-1 $-1 $99 $48 #
plane-surface $-1 0 0 10.745885393782796 0 0 1 1 0 0 forward_v I I I I #
face $-1 $100 $101 $37 $-1 $102 reversed single #
loop $-1 $-1 $103 $49 #
plane-surface $-1 -46.943919260115003 0 5.996602179094733 0 0 1 1 0 0 forward_v I I I I #
face $-1 $104 $105 $38 $-1 $106 reversed single #
loop $-1 $-1 $107 $50 #
plane-surface $-1 1.3236469033796929 -120.11673772680201 69.206550360781023 -1 0 0 0 -0.80901700255871778 0.5877852410284794 forward_v I I I I #
face $-1 $108 $109 $39 $-1 $110 forward single #
loop $-1 $111 $112 $51 #
cone-surface $-1 -6.9294685994659915 -33.516657839517713 8.8047200110282944 0 0.80901700255871778 -0.5877852410284794 0.5 0 0 1 I I 0 1 0.5 forward I I I I #
face $-1 $113 $114 $40 $-1 $115 reversed single #
loop $-1 $-1 $116 $52 #
plane-surface $-1 -29.737645763983188 72.567310714423158 125.27757307298933 1 0 0 0 -0.77714596973225614 -0.62932038083071107 forward_v I I I I #
face $-1 $117 $118 $41 $-1 $119 forward single #
loop $-1 $120 $121 $53 #
cone-surface $-1 -23.810701961466105 31.623558431845641 6.853980199946899 0 -0.77714596973225614 -0.62932038083071107 1.5 0 0 1 I I 0 1 1.5 forward I I I I #
face $-1 $122 $123 $42 $-1 $124 reversed single #
loop $-1 $-1 $125 $54 #
plane-surface $-1 -6.2656861339256871 72.567310714423158 125.27757307298933 1 0 0 0 -0.77714596973225614 -0.62932038083071107 forward_v I I I I #
face $-1 $126 $127 $43 $-1 $128 forward single #
loop $-1 $129 $130 $55 #
cone-surface $-1 -0.33874233140860355 31.623558431845641 6.853980199946899 0 -0.77714596973225614 -0.62932038083071107 1.5 0 0 1 I I 0 1 1.5 forward I I I I #
face $-1 $131 $132 $44 $-1 $133 reversed single #
loop $-1 $-1 $134 $56 #
plane-surface $-1 17.206273496131818 72.567310714423158 125.27757307298933 1 0 0 0 -0.77714596973225614 -0.62932038083071107 forward_v I I I I #
face $-1 $135 $136 $45 $-1 $137 forward single #
loop $-1 $138 $139 $57 #
cone-surface $-1 23.133217298648901 31.623558431845641 6.853980199946899 0 -0.77714596973225614 -0.62932038083071107 1.5 0 0 1 I I 0 1 1.5 forward I I I I #
face $-1 $140 $141 $46 $-1 $142 reversed single #
loop $-1 $-1 $143 $58 #
plane-surface $-1 40.678233126189312 72.567310714423158 125.27757307298933 1 0 0 0 -0.77714596973225614 -0.62932038083071107 forward_v I I I I #
face $-1 $144 $145 $47 $-1 $146 forward single #
loop $-1 $147 $148 $59 #
cone-surface $-1 46.605176928706399 31.623558431845641 6.853980199946899 0 -0.77714596973225614 -0.62932038083071107 1.5 0 0 1 I I 0 1 1.5 forward I I I I #
face $-1 $149 $150 $36 $-1 $151 reversed single #
loop $-1 $-1 $152 $60 #
plane-surface $-1 0 0 -10.745885393782796 0 0 1 1 0 0 forward_v I I I I #
coedge $-1 $153 $154 $155 $156 forward $61 $-1 #
face $-1 $157 $158 $37 $-1 $159 reversed single #
loop $-1 $-1 $160 $63 #
plane-surface $-1 -41.355717789006519 0 8.3712437864387645 -1 0 0 0 0 1 forward_v I I I I #
coedge $-1 $161 $162 $163 $164 forward $64 $-1 #
face $-1 $165 $166 $38 $-1 $167 reversed single #
loop $-1 $-1 $168 $66 #
plane-surface $-1 -6.9294685994659915 -35.117980022747815 7.4513398693022737 0 -0.80901700255871778 0.5877852410284794 1 0 0 forward_v I I I I #
coedge $-1 $169 $170 $171 $172 reversed $67 $-1 #
face $-1 $-1 $173 $39 $-1 $174 forward single #
loop $-1 $175 $176 $69 #
cone-surface $-1 -6.9294685994659915 -32.909895087598677 8.3638810802569346 0 0.80901700255871778 -0.5877852410284794 0.25 0 0 1 I I -0.70710678118654746 0.70710678118654746 0.25 forward I I I I #
loop $-1 $-1 $177 $51 #
coedge $-1 $112 $112 $178 $179 reversed $70 $-1 #
face $-1 $180 $181 $40 $-1 $182 reversed single #
loop $-1 $-1 $183 $72 #
plane-surface $-1 -23.810701961466105 -9.0829411010941072 59.158504624152414 0 0.77714596973225614 0.62932038083071107 1 0 0 forward_v I I I I #
coedge $-1 $184 $185 $186 $187 reversed $73 $-1 #
face $-1 $-1 $188 $41 $-1 $189 forward single #
loop $-1 $190 $191 $75 #
cone-surface $-1 -23.810701961466105 30.044855423642858 5.5755717451194862 0 -0.77714596973225614 -0.62932038083071107 0.75 0 0 1 I I -0.70710678118654757 0.70710678118654757 0.75 forward I I I I #
loop $-1 $-1 $192 $53 #
coedge $-1 $121 $121 $193 $194 reversed $76 $-1 #
face $-1 $195 $196 $42 $-1 $197 reversed single #
loop $-1 $-1 $198 $78 #
plane-surface $-1 -0.33874233140860355 -9.0829411010941072 59.158504624152414 0 0.77714596973225614 0.62932038083071107 1 0 0 forward_v I I I I #
coedge $-1 $199 $200 $201 $202 reversed $79 $-1 #
face $-1 $-1 $203 $43 $-1 $204 forward single #
loop $-1 $205 $206 $81 #
cone-surface $-1 -0.33874233140860355 30.044855423642858 5.5755717451194862 0 -0.77714596973225614 -0.62932038083071107 0.75 0 0 1 I I -0.70710678118654757 0.70710678118654757 0.75 forward I I I I #
loop $-1 $-1 $207 $55 #
coedge $-1 $130 $130 $208 $209 reversed $82 $-1 #
face $-1 $210 $211 $44 $-1 $212 reversed single #
loop $-1 $-1 $213 $84 #
plane-surface $-1 23.133217298648901 -9.0829411010941072 59.158504624152414 0 0.77714596973225614 0.62932038083071107 1 0 0 forward_v I I I I #
coedge $-1 $214 $215 $216 $217 reversed $85 $-1 #
face $-1 $-1 $218 $45 $-1 $219 forward single #
loop $-1 $220 $221 $87 #
cone-surface $-1 23.133217298648901 30.044855423642858 5.5755717451194862 0 -0.77714596973225614 -0.62932038083071107 0.75 0 0 1 I I -0.70710678118654757 0.70710678118654757 0.75 forward I I I I #
loop $-1 $-1 $222 $57 #
coedge $-1 $139 $139 $223 $224 reversed $88 $-1 #
face $-1 $225 $226 $46 $-1 $227 forward single #
loop $-1 $-1 $228 $90 #
plane-surface $-1 46.605176928706399 -9.0829411010941072 59.158504624152414 0 0.77714596973225614 0.62932038083071107 1 0 0 forward_v I I I I #
coedge $-1 $229 $230 $231 $232 reversed $91 $-1 #
face $-1 $-1 $233 $47 $-1 $234 forward single #
loop $-1 $235 $236 $93 #
cone-surface $-1 46.605176928706399 30.044855423642858 5.5755717451194862 0 -0.77714596973225614 -0.62932038083071107 0.75 0 0 1 I I -0.70710678118654757 0.70710678118654757 0.75 forward I I I I #
loop $-1 $-1 $237 $59 #
coedge $-1 $148 $148 $238 $239 reversed $94 $-1 #
face $-1 $240 $241 $36 $-1 $242 reversed single #
loop $-1 $-1 $243 $96 #
plane-surface $-1 0 -35.117980022747801 0 0 1 0 0 0 1 forward_v I I I I #
coedge $-1 $244 $245 $246 $247 forward $97 $-1 #
coedge $-1 $248 $99 $249 $250 forward $61 $-1 #
coedge $-1 $99 $248 $251 $252 forward $61 $-1 #
coedge $-1 $253 $254 $99 $156 reversed $255 $-1 #
edge $-1 $256 -35.117980022747801 $257 35.117980022747801 $155 $258 forward 7 unknown #
face $-1 $259 $260 $37 $-1 $261 reversed single #
loop $-1 $-1 $262 $100 #
plane-surface $-1 0 35.117980022747801 0 0 -1 0 0 0 -1 forward_v I I I I #
coedge $-1 $163 $263 $264 $265 reversed $101 $-1 #
coedge $-1 $266 $103 $267 $268 reversed $64 $-1 #
coedge $-1 $103 $266 $269 $270 reversed $64 $-1 #
coedge $-1 $271 $160 $103 $164 reversed $101 $-1 #
edge $-1 $272 -35.117980022747801 $273 35.117980022747801 $163 $274 forward 7 unknown #
face $-1 $275 $276 $38 $-1 $277 reversed single #
loop $-1 $-1 $278 $104 #
plane-surface $-1 -15.182584102311676 -120.11673772680201 69.206550360781023 1 0 0 0 0.80901700255871778 -0.5877852410284794 forward_v I I I I #
coedge $-1 $279 $280 $281 $282 reversed $105 $-1 #
coedge $-1 $170 $107 $283 $284 reversed $67 $-1 #
coedge $-1 $107 $169 $279 $285 reversed $67 $-1 #
coedge $-1 $281 $286 $107 $172 forward $287 $-1 #
edge $-1 $288 24.940388840653206 $289 27.334016204554651 $171 $290 forward 7 unknown #
loop $-1 $-1 $178 $108 #
plane-surface $-1 -6.9294685994659915 -35.117980022747815 7.4513398693022737 0 -0.80901700255871778 0.5877852410284794 1 0 0 forward_v I I I I #
loop $-1 $-1 $291 $69 #
coedge $-1 $176 $176 $177 $292 reversed $109 $-1 #
coedge $-1 $177 $177 $176 $292 forward $111 $-1 #
coedge $-1 $178 $178 $112 $179 forward $173 $-1 #
edge $-1 $293 -6.0180981928669691e-015 $293 6.2831853071795942 $178 $294 forward 7 unknown #
face $-1 $295 $296 $40 $-1 $297 forward single #
loop $-1 $-1 $298 $113 #
plane-surface $-1 -17.883758158949021 72.567310714423158 125.27757307298933 -1 0 0 0 0.77714596973225614 0.62932038083071107 forward_v I I I I #
coedge $-1 $299 $300 $301 $302 reversed $114 $-1 #
coedge $-1 $185 $116 $303 $304 reversed $73 $-1 #
coedge $-1 $116 $184 $299 $305 reversed $73 $-1 #
coedge $-1 $301 $306 $116 $187 forward $296 $-1 #
edge $-1 $307 1.1656753344637778 $308 6.1628314544609424 $186 $309 forward 7 unknown #
loop $-1 $-1 $193 $117 #
plane-surface $-1 -23.810701961466105 -9.0829411010941072 59.158504624152414 0 0.77714596973225614 0.62932038083071107 1 0 0 forward_v I I I I #
loop $-1 $-1 $310 $75 #
coedge $-1 $191 $191 $192 $311 reversed $118 $-1 #
coedge $-1 $192 $192 $191 $311 forward $120 $-1 #
coedge $-1 $193 $193 $121 $194 forward $188 $-1 #
edge $-1 $312 -1.1604055085384225e-015 $312 6.2831853071795996 $193 $313 forward 7 unknown #
face $-1 $314 $315 $42 $-1 $316 forward single #
loop $-1 $-1 $317 $122 #
plane-surface $-1 5.58820147110848 72.567310714423158 125.27757307298933 -1 0 0 0 0.77714596973225614 0.62932038083071107 forward_v I I I I #
coedge $-1 $318 $319 $320 $321 reversed $123 $-1 #
coedge $-1 $200 $125 $322 $323 reversed $79 $-1 #
coedge $-1 $125 $199 $318 $324 reversed $79 $-1 #
coedge $-1 $320 $325 $125 $202 forward $315 $-1 #
edge $-1 $326 1.1656753344637778 $327 6.1628314544609424 $201 $328 forward 7 unknown #
loop $-1 $-1 $208 $126 #
plane-surface $-1 -0.33874233140860355 -9.0829411010941072 59.158504624152414 0 0.77714596973225614 0.62932038083071107 1 0 0 forward_v I I I I #
loop $-1 $-1 $329 $81 #
coedge $-1 $206 $206 $207 $330 reversed $127 $-1 #
coedge $-1 $207 $207 $206 $330 forward $129 $-1 #
coedge $-1 $208 $208 $130 $209 forward $203 $-1 #
edge $-1 $331 -1.1604055085384225e-015 $331 6.2831853071795996 $208 $332 forward 7 unknown #
face $-1 $333 $334 $44 $-1 $335 forward single #
loop $-1 $-1 $336 $131 #
plane-surface $-1 29.060161101165985 72.567310714423158 125.27757307298933 -1 0 0 0 0.77714596973225614 0.62932038083071107 forward_v I I I I #
coedge $-1 $337 $338 $339 $340 reversed $132 $-1 #
coedge $-1 $215 $134 $341 $342 reversed $85 $-1 #
coedge $-1 $134 $214 $337 $343 reversed $85 $-1 #
coedge $-1 $339 $344 $134 $217 forward $334 $-1 #
edge $-1 $345 1.1656753344637778 $346 6.1628314544609424 $216 $347 forward 7 unknown #
loop $-1 $-1 $223 $135 #
plane-surface $-1 23.133217298648901 -9.0829411010941072 59.158504624152414 0 0.77714596973225614 0.62932038083071107 1 0 0 forward_v I I I I #
loop $-1 $-1 $348 $87 #
coedge $-1 $221 $221 $222 $349 reversed $136 $-1 #
coedge $-1 $222 $222 $221 $349 forward $138 $-1 #
coedge $-1 $223 $223 $139 $224 forward $218 $-1 #
edge $-1 $350 -1.1604055085384225e-015 $350 6.2831853071795996 $223 $351 forward 7 unknown #
face $-1 $352 $353 $46 $-1 $354 reversed single #
loop $-1 $-1 $231 $140 #
plane-surface $-1 0 0 10.745885393782796 0 0 1 1 0 0 forward_v I I I I #
coedge $-1 $355 $356 $357 $358 reversed $141 $-1 #
coedge $-1 $230 $143 $359 $360 reversed $91 $-1 #
coedge $-1 $143 $229 $355 $361 reversed $91 $-1 #
coedge $-1 $357 $362 $143 $232 forward $226 $-1 #
edge $-1 $363 1.1656753344637778 $364 6.1628314544609424 $231 $365 forward 7 unknown #
loop $-1 $-1 $238 $144 #
plane-surface $-1 46.605176928706399 -9.0829411010941072 59.158504624152414 0 0.77714596973225614 0.62932038083071107 1 0 0 forward_v I I I I #
loop $-1 $-1 $366 $93 #
coedge $-1 $236 $236 $237 $367 reversed $145 $-1 #
coedge $-1 $237 $237 $236 $367 forward $147 $-1 #
coedge $-1 $238 $238 $148 $239 forward $233 $-1 #
edge $-1 $368 -1.1604055085384225e-015 $368 6.2831853071795996 $238 $369 forward 7 unknown #
face $-1 $370 $371 $36 $-1 $372 reversed single #
loop $-1 $-1 $373 $149 #
plane-surface $-1 -52.532120731223486 0 0 1 0 0 0 0 -1 forward_v I I I I #
coedge $-1 $374 $251 $375 $376 forward $150 $-1 #
coedge $-1 $377 $152 $374 $378 forward $97 $-1 #
coedge $-1 $152 $377 $379 $380 forward $97 $-1 #
coedge $-1 $254 $253 $152 $247 reversed $255 $-1 #
edge $-1 $381 -35.117980022747801 $382 35.117980022747801 $246 $383 forward 7 unknown #
coedge $-1 $154 $153 $384 $385 forward $61 $-1 #
coedge $-1 $386 $387 $153 $250 reversed $371 $-1 #
edge $-1 $257 -52.532120731223486 $388 52.532120731223486 $249 $389 forward 7 unknown #
coedge $-1 $243 $390 $154 $252 reversed $150 $-1 #
edge $-1 $391 -52.532120731223486 $256 52.532120731223486 $251 $392 forward 7 unknown #
coedge $-1 $246 $155 $390 $393 forward $255 $-1 #
coedge $-1 $155 $246 $386 $394 reversed $255 $-1 #
loop $-1 $-1 $253 $370 #
vertex $-1 $156 $395 #
vertex $-1 $156 $396 #
straight-curve $-1 52.532120731223486 0 10.745885393782796 0 1 0 I I #
face $-1 $397 $398 $37 $-1 $399 forward single #
loop $-1 $-1 $400 $157 #
plane-surface $-1 -52.532120731223486 0 0 1 0 0 0 0 -1 forward_v I I I I #
coedge $-1 $269 $401 $271 $402 forward $158 $-1 #
coedge $-1 $160 $271 $403 $404 reversed $101 $-1 #
coedge $-1 $405 $267 $160 $265 forward $406 $-1 #
edge $-1 $273 1.8109802858753508 $407 6.5602635005634138 $264 $408 forward 7 unknown #
coedge $-1 $162 $161 $400 $409 reversed $64 $-1 #
coedge $-1 $264 $410 $161 $268 forward $406 $-1 #
edge $-1 $411 -29.060161101165985 $273 -17.883758158949018 $267 $412 forward 7 unknown #
coedge $-1 $413 $262 $162 $270 forward $158 $-1 #
edge $-1 $272 17.883758158949018 $414 29.060161101165985 $269 $415 forward 7 unknown #
coedge $-1 $263 $163 $262 $402 reversed $101 $-1 #
vertex $-1 $270 $416 #
vertex $-1 $268 $417 #
straight-curve $-1 -41.355717789006519 0 5.996602179094733 0 -1 0 I I #
face $-1 $-1 $287 $38 $-1 $418 forward single #
loop $-1 $-1 $419 $165 #
plane-surface $-1 0 -35.117980022747801 0 0 1 0 0 0 1 forward_v I I I I #
coedge $-1 $420 $421 $422 $423 reversed $166 $-1 #
coedge $-1 $424 $168 $170 $285 forward $105 $-1 #
coedge $-1 $168 $424 $420 $425 forward $105 $-1 #
coedge $-1 $422 $171 $168 $282 forward $287 $-1 #
edge $-1 $289 -4.7883812031126887 $426 11.71784980257868 $281 $427 forward 7 unknown #
coedge $-1 $428 $429 $169 $284 forward $276 $-1 #
edge $-1 $430 -27.151935311088216 $288 -23.857389786607715 $283 $431 forward 7 unknown #
edge $-1 $289 -4.0722821820316533 $430 -2.4161062406544664e-014 $170 $432 forward 7 unknown #
coedge $-1 $171 $422 $428 $433 forward $287 $-1 #
loop $-1 $-1 $422 $275 #
vertex $-1 $284 $434 #
vertex $-1 $172 $435 #
straight-curve $-1 1.3236469033796929 -60.058368863401007 10.745885393782796 0 1 0 I I #
coedge $-1 $291 $291 $-1 $436 reversed $175 $-1 #
edge $-1 $437 0 $437 6.2831853071796004 $176 $438 forward 7 unknown #
vertex $-1 $179 $439 #
ellipse-curve $-1 -6.9294685994659915 -33.921166340797079 9.098612631542542 0 -0.80901700255871778 0.5877852410284794 0.5 0 0 1 I I #
face $-1 $-1 $440 $40 $-1 $441 reversed single #
loop $-1 $-1 $186 $180 #
plane-surface $-1 0 0 10.745885393782796 0 0 1 1 0 0 forward_v I I I I #
coedge $-1 $442 $443 $444 $445 reversed $181 $-1 #
coedge $-1 $446 $183 $185 $305 forward $114 $-1 #
coedge $-1 $183 $446 $442 $447 forward $114 $-1 #
coedge $-1 $444 $186 $183 $302 forward $296 $-1 #
edge $-1 $308 -17.832294783250134 $448 -5.9784071782159689 $301 $449 forward 7 unknown #
coedge $-1 $450 $451 $184 $304 forward $440 $-1 #
edge $-1 $452 -58.063875191974937 $307 -51.892901142711864 $303 $453 forward 7 unknown #
edge $-1 $308 62.295400241281342 $452 70.235960045495617 $185 $454 forward 7 unknown #
coedge $-1 $186 $444 $450 $455 forward $296 $-1 #
vertex $-1 $304 $456 #
vertex $-1 $187 $457 #
straight-curve $-1 -29.737645763983188 36.283655357211579 10.7458853937828 0 -1 0 I I #
coedge $-1 $310 $310 $-1 $458 reversed $190 $-1 #
edge $-1 $459 0 $459 6.2831853071796004 $191 $460 forward 7 unknown #
vertex $-1 $194 $461 #
ellipse-curve $-1 -23.810701961466105 32.619401962749222 7.6603983691512711 0 0.77714596973225614 0.62932038083071107 1.5 0 0 1 I I #
face $-1 $-1 $462 $42 $-1 $463 reversed single #
loop $-1 $-1 $201 $195 #
plane-surface $-1 0 0 10.745885393782796 0 0 1 1 0 0 forward_v I I I I #
coedge $-1 $464 $465 $466 $467 reversed $196 $-1 #
coedge $-1 $468 $198 $200 $324 forward $123 $-1 #
coedge $-1 $198 $468 $464 $469 forward $123 $-1 #
coedge $-1 $466 $201 $198 $321 forward $315 $-1 #
edge $-1 $327 -6.0963149682213853 $470 5.7575726368127818 $320 $471 forward 7 unknown #
coedge $-1 $472 $473 $199 $323 forward $462 $-1 #
edge $-1 $474 -58.063875191974937 $326 -51.892901142711864 $322 $475 forward 7 unknown #
edge $-1 $327 62.295400241281342 $474 70.235960045495617 $200 $476 forward 7 unknown #
coedge $-1 $201 $466 $472 $477 forward $315 $-1 #
vertex $-1 $202 $478 #
vertex $-1 $202 $479 #
straight-curve $-1 -6.2656861339256871 36.283655357211579 10.7458853937828 0 -1 0 I I #
coedge $-1 $329 $329 $-1 $480 reversed $205 $-1 #
edge $-1 $481 0 $481 6.2831853071796004 $206 $482 forward 7 unknown #
vertex $-1 $209 $483 #
ellipse-curve $-1 -0.33874233140860355 32.619401962749222 7.6603983691512711 0 0.77714596973225614 0.62932038083071107 1.5 0 0 1 I I #
face $-1 $-1 $484 $44 $-1 $485 reversed single #
loop $-1 $-1 $216 $210 #
plane-surface $-1 0 0 10.745885393782796 0 0 1 1 0 0 forward_v I I I I #
coedge $-1 $486 $487 $488 $489 reversed $211 $-1 #
coedge $-1 $490 $213 $215 $343 forward $132 $-1 #
coedge $-1 $213 $490 $486 $491 forward $132 $-1 #
coedge $-1 $488 $216 $213 $340 forward $334 $-1 #
edge $-1 $346 5.6396648468073671 $492 17.493552451841534 $339 $493 forward 7 unknown #
coedge $-1 $494 $495 $214 $342 forward $484 $-1 #
edge $-1 $496 -58.063875191974937 $345 -51.892901142711864 $341 $497 forward 7 unknown #
edge $-1 $346 62.295400241281342 $496 70.235960045495617 $215 $498 forward 7 unknown #
coedge $-1 $216 $488 $494 $499 forward $334 $-1 #
vertex $-1 $217 $500 #
vertex $-1 $217 $501 #
straight-curve $-1 17.206273496131818 36.283655357211579 10.7458853937828 0 -1 0 I I #
coedge $-1 $348 $348 $-1 $502 reversed $220 $-1 #
edge $-1 $503 0 $503 6.2831853071796004 $221 $504 forward 7 unknown #
vertex $-1 $224 $505 #
ellipse-curve $-1 23.133217298648901 32.619401962749222 7.6603983691512711 0 0.77714596973225614 0.62932038083071107 1.5 0 0 1 I I #
face $-1 $-1 $506 $46 $-1 $507 reversed single #
loop $-1 $-1 $508 $225 #
plane-surface $-1 52.532120731223486 0 0 -1 0 0 0 0 1 forward_v I I I I #
coedge $-1 $509 $228 $230 $361 forward $141 $-1 #
coedge $-1 $228 $509 $508 $510 reversed $141 $-1 #
coedge $-1 $511 $231 $228 $358 forward $226 $-1 #
edge $-1 $364 17.375644661836112 $512 29.229532266870287 $357 $513 forward 7 unknown #
coedge $-1 $514 $515 $229 $360 forward $506 $-1 #
edge $-1 $516 -58.063875191974937 $363 -51.892901142711864 $359 $517 forward 7 unknown #
edge $-1 $364 62.295400241281342 $516 70.235960045495617 $230 $518 forward 7 unknown #
coedge $-1 $231 $511 $514 $519 forward $226 $-1 #
vertex $-1 $360 $520 #
vertex $-1 $232 $521 #
straight-curve $-1 40.678233126189312 36.283655357211579 10.7458853937828 0 -1 0 I I #
coedge $-1 $366 $366 $-1 $522 reversed $235 $-1 #
edge $-1 $523 0 $523 6.2831853071796004 $236 $524 forward 7 unknown #
vertex $-1 $239 $525 #
ellipse-curve $-1 46.605176928706399 32.619401962749222 7.6603983691512711 0 0.77714596973225614 0.62932038083071107 1.5 0 0 1 I I #
face $-1 $-1 $255 $36 $-1 $526 reversed single #
loop $-1 $-1 $386 $240 #
plane-surface $-1 0 35.117980022747801 0 0 -1 0 0 0 -1 forward_v I I I I #
coedge $-1 $527 $384 $387 $528 forward $241 $-1 #
coedge $-1 $390 $243 $244 $378 reversed $150 $-1 #
coedge $-1 $384 $527 $243 $376 reversed $241 $-1 #
edge $-1 $391 -10.745885393782796 $529 10.745885393782796 $375 $530 forward 7 unknown #
coedge $-1 $245 $244 $527 $531 forward $97 $-1 #
edge $-1 $382 -52.532120731223486 $529 52.532120731223486 $374 $532 forward 7 unknown #
coedge $-1 $387 $386 $245 $380 reversed $371 $-1 #
edge $-1 $533 -52.532120731223486 $381 52.532120731223486 $379 $534 forward 7 unknown #
vertex $-1 $247 $535 #
vertex $-1 $393 $536 #
straight-curve $-1 52.532120731223486 0 -10.745885393782796 0 -1 0 I I #
coedge $-1 $373 $375 $248 $385 reversed $241 $-1 #
edge $-1 $388 -35.117980022747801 $391 35.117980022747801 $384 $537 forward 7 unknown #
coedge $-1 $379 $249 $254 $394 forward $371 $-1 #
coedge $-1 $249 $379 $373 $528 reversed $371 $-1 #
vertex $-1 $250 $538 #
straight-curve $-1 0 35.117980022747801 10.745885393782796 -1 0 0 I I #
coedge $-1 $251 $374 $253 $393 reversed $150 $-1 #
vertex $-1 $385 $539 #
straight-curve $-1 0 -35.117980022747801 10.745885393782796 1 0 0 I I #
edge $-1 $256 -10.745885393782796 $382 10.745885393782796 $253 $540 forward 7 unknown #
edge $-1 $257 -10.745885393782796 $381 10.745885393782796 $254 $541 forward 7 unknown #
point $-1 52.532120731223486 -35.117980022747801 10.745885393782796 #
point $-1 52.532120731223486 35.117980022747801 10.745885393782796 #
face $-1 $-1 $406 $37 $-1 $542 reversed single #
loop $-1 $-1 $403 $259 #
plane-surface $-1 0 0 10.745885393782796 0 0 1 1 0 0 forward_v I I I I #
coedge $-1 $543 $544 $266 $409 forward $260 $-1 #
coedge $-1 $262 $413 $545 $546 reversed $158 $-1 #
edge $-1 $547 -6.5602635005634138 $272 -1.8109802858753508 $262 $548 forward 7 unknown #
coedge $-1 $545 $549 $263 $404 forward $398 $-1 #
edge $-1 $407 -35.117980022747801 $547 35.117980022747801 $403 $550 forward 7 unknown #
coedge $-1 $410 $264 $549 $551 reversed $406 $-1 #
loop $-1 $-1 $264 $397 #
vertex $-1 $265 $552 #
straight-curve $-1 -41.355717789006519 -35.117980022747801 4.1856218932193823 0 0 1 I I #
edge $-1 $414 -35.117980022747801 $411 35.117980022747801 $400 $553 forward 7 unknown #
coedge $-1 $267 $405 $543 $554 forward $406 $-1 #
vertex $-1 $409 $555 #
straight-curve $-1 -23.471959630057501 -35.117980022747801 5.996602179094733 1 0 0 I I #
coedge $-1 $401 $269 $544 $556 reversed $158 $-1 #
vertex $-1 $409 $557 #
straight-curve $-1 -23.471959630057501 35.117980022747801 5.996602179094733 -1 0 0 I I #
point $-1 -41.355717789006519 35.117980022747801 5.996602179094733 #
point $-1 -41.355717789006519 -35.117980022747801 5.996602179094733 #
plane-surface $-1 0 0 10.745885393782796 0 0 1 1 0 0 forward_v I I I I #
coedge $-1 $429 $428 $421 $558 forward $276 $-1 #
coedge $-1 $421 $278 $280 $425 reversed $166 $-1 #
coedge $-1 $278 $420 $419 $558 reversed $166 $-1 #
coedge $-1 $286 $281 $278 $423 forward $287 $-1 #
edge $-1 $426 -27.334016204554651 $559 -24.940388840653206 $422 $560 forward 7 unknown #
coedge $-1 $280 $279 $429 $561 reversed $105 $-1 #
edge $-1 $562 2.4161062406544664e-014 $426 4.0722821820316533 $420 $563 forward 7 unknown #
vertex $-1 $282 $564 #
straight-curve $-1 -3.4647342997329957 -32.724352658846357 10.745885393782796 -1 0 0 I I #
coedge $-1 $419 $283 $286 $433 reversed $276 $-1 #
coedge $-1 $283 $419 $424 $561 forward $276 $-1 #
vertex $-1 $284 $565 #
straight-curve $-1 1.3236469033796929 -35.117980022747801 34.603275180390511 0 0 1 I I #
straight-curve $-1 1.3236469033796929 -35.117980022747815 7.4513398693022737 0 -0.5877852410284794 -0.80901700255871778 I I #
edge $-1 $559 -15.182584102311676 $288 1.3236469033796929 $428 $566 forward 7 unknown #
point $-1 1.3236469033796929 -35.117980022747801 10.745885393782796 #
point $-1 1.3236469033796929 -32.724352658846357 10.745885393782796 #
edge $-1 $567 1 $567 0 $291 $-1 forward 7 unknown #
vertex $-1 $292 $568 #
ellipse-curve $-1 -6.9294685994659915 -33.112149338238353 8.5108273905140539 0 -0.80901700255871778 0.5877852410284794 0.5 0 0 1 I I #
point $-1 -6.4294685994659915 -33.921166340797072 9.0986126315425331 #
loop $-1 $-1 $303 $295 #
plane-surface $-1 0 35.117980022747801 0 0 -1 0 0 0 -1 forward_v I I I I #
coedge $-1 $443 $298 $300 $447 reversed $181 $-1 #
coedge $-1 $298 $442 $569 $570 reversed $181 $-1 #
coedge $-1 $306 $301 $298 $445 forward $296 $-1 #
edge $-1 $448 -6.1628314544609424 $571 -1.1656753344637778 $444 $572 forward 7 unknown #
coedge $-1 $300 $299 $451 $573 reversed $114 $-1 #
edge $-1 $574 -70.235960045495617 $448 -62.295400241281342 $442 $575 forward 7 unknown #
vertex $-1 $302 $576 #
straight-curve $-1 -11.905350980733052 30.120823902750637 10.745885393782796 1 0 0 I I #
coedge $-1 $569 $303 $306 $455 reversed $440 $-1 #
coedge $-1 $303 $569 $446 $573 forward $440 $-1 #
vertex $-1 $304 $577 #
straight-curve $-1 -29.737645763983188 35.117980022747801 62.638786536494663 0 0 1 I I #
straight-curve $-1 -29.737645763983188 -9.0829411010941072 59.158504624152414 0 0.62932038083071107 -0.77714596973225614 I I #
edge $-1 $571 17.883758158949021 $307 29.737645763983188 $450 $578 forward 7 unknown #
point $-1 -29.737645763983188 35.117980022747801 10.745885393782796 #
point $-1 -29.737645763983188 30.120823902750637 10.7458853937828 #
edge $-1 $579 1 $579 0 $310 $-1 forward 7 unknown #
vertex $-1 $311 $580 #
ellipse-curve $-1 -23.810701961466105 30.627714900942049 6.0475620307425197 0 0.77714596973225614 0.62932038083071107 1.5 0 0 1 I I #
point $-1 -22.310701961466105 32.61940196274923 7.6603983691512791 #
loop $-1 $-1 $322 $314 #
plane-surface $-1 0 35.117980022747801 0 0 -1 0 0 0 -1 forward_v I I I I #
coedge $-1 $465 $317 $319 $469 reversed $196 $-1 #
coedge $-1 $317 $464 $581 $582 reversed $196 $-1 #
coedge $-1 $325 $320 $317 $467 forward $315 $-1 #
edge $-1 $470 -6.1628314544609424 $583 -1.1656753344637778 $466 $584 forward 7 unknown #
coedge $-1 $319 $318 $473 $585 reversed $123 $-1 #
edge $-1 $586 -70.235960045495617 $470 -62.295400241281342 $464 $587 forward 7 unknown #
vertex $-1 $321 $588 #
straight-curve $-1 -0.16937116570430177 30.120823902750637 10.745885393782796 1 0 0 I I #
coedge $-1 $581 $322 $325 $477 reversed $462 $-1 #
coedge $-1 $322 $581 $468 $585 forward $462 $-1 #
vertex $-1 $323 $589 #
straight-curve $-1 -6.2656861339256871 35.117980022747801 62.638786536494663 0 0 1 I I #
straight-curve $-1 -6.2656861339256871 -9.0829411010941072 59.158504624152414 0 0.62932038083071107 -0.77714596973225614 I I #
edge $-1 $583 -5.58820147110848 $326 6.2656861339256871 $472 $590 forward 7 unknown #
point $-1 -6.2656861339256871 35.117980022747801 10.745885393782796 #
point $-1 -6.2656861339256871 30.120823902750637 10.7458853937828 #
edge $-1 $591 1 $591 0 $329 $-1 forward 7 unknown #
vertex $-1 $330 $592 #
ellipse-curve $-1 -0.33874233140860355 30.627714900942049 6.0475620307425197 0 0.77714596973225614 0.62932038083071107 1.5 0 0 1 I I #
point $-1 1.1612576685913965 32.61940196274923 7.6603983691512791 #
loop $-1 $-1 $341 $333 #
plane-surface $-1 0 35.117980022747801 0 0 -1 0 0 0 -1 forward_v I I I I #
coedge $-1 $487 $336 $338 $491 reversed $211 $-1 #
coedge $-1 $336 $486 $593 $594 reversed $211 $-1 #
coedge $-1 $344 $339 $336 $489 forward $334 $-1 #
edge $-1 $492 -6.1628314544609424 $595 -1.1656753344637778 $488 $596 forward 7 unknown #
coedge $-1 $338 $337 $495 $597 reversed $132 $-1 #
edge $-1 $598 -70.235960045495617 $492 -62.295400241281342 $486 $599 forward 7 unknown #
vertex $-1 $340 $600 #
straight-curve $-1 11.566608649324451 30.120823902750637 10.745885393782796 1 0 0 I I #
coedge $-1 $593 $341 $344 $499 reversed $484 $-1 #
coedge $-1 $341 $593 $490 $597 forward $484 $-1 #
vertex $-1 $342 $601 #
straight-curve $-1 17.206273496131818 35.117980022747801 62.638786536494663 0 0 1 I I #
straight-curve $-1 17.206273496131818 -9.0829411010941072 59.158504624152414 0 0.62932038083071107 -0.77714596973225614 I I #
edge $-1 $595 -29.060161101165985 $345 -17.206273496131818 $494 $602 forward 7 unknown #
point $-1 17.206273496131818 35.117980022747801 10.745885393782796 #
point $-1 17.206273496131818 30.120823902750637 10.7458853937828 #
edge $-1 $603 1 $603 0 $348 $-1 forward 7 unknown #
vertex $-1 $349 $604 #
ellipse-curve $-1 23.133217298648901 30.627714900942049 6.0475620307425197 0 0.77714596973225614 0.62932038083071107 1.5 0 0 1 I I #
point $-1 24.633217298648901 32.61940196274923 7.6603983691512791 #
loop $-1 $-1 $359 $352 #
plane-surface $-1 0 35.117980022747801 0 0 -1 0 0 0 -1 forward_v I I I I #
coedge $-1 $605 $606 $356 $510 forward $353 $-1 #
coedge $-1 $356 $355 $515 $607 reversed $141 $-1 #
edge $-1 $512 36.449963542856068 $608 44.390523347070342 $508 $609 forward 7 unknown #
coedge $-1 $362 $357 $606 $610 forward $226 $-1 #
vertex $-1 $610 $611 #
straight-curve $-1 23.3025884643532 30.120823902750637 10.745885393782796 1 0 0 I I #
coedge $-1 $612 $359 $362 $519 reversed $506 $-1 #
coedge $-1 $359 $612 $509 $607 forward $506 $-1 #
vertex $-1 $360 $613 #
straight-curve $-1 40.678233126189312 35.117980022747801 62.638786536494663 0 0 1 I I #
straight-curve $-1 40.678233126189312 -9.0829411010941072 59.158504624152414 0 0.62932038083071107 -0.77714596973225614 I I #
edge $-1 $614 -52.532120731223486 $363 -40.678233126189312 $514 $615 forward 7 unknown #
point $-1 40.678233126189312 35.117980022747801 10.745885393782796 #
point $-1 40.678233126189312 30.120823902750637 10.7458853937828 #
edge $-1 $616 1 $616 0 $366 $-1 forward 7 unknown #
vertex $-1 $367 $617 #
ellipse-curve $-1 46.605176928706399 30.627714900942049 6.0475620307425197 0 0.77714596973225614 0.62932038083071107 1.5 0 0 1 I I #
point $-1 48.105176928706399 32.61940196274923 7.6603983691512791 #
plane-surface $-1 52.532120731223486 0 0 -1 0 0 0 0 1 forward_v I I I I #
coedge $-1 $375 $373 $377 $531 reversed $241 $-1 #
edge $-1 $388 -10.745885393782796 $533 10.745885393782796 $387 $618 forward 7 unknown #
vertex $-1 $531 $619 #
straight-curve $-1 -52.532120731223486 -35.117980022747801 0 0 0 -1 I I #
edge $-1 $529 -35.117980022747801 $533 35.117980022747801 $527 $620 forward 7 unknown #
straight-curve $-1 0 -35.117980022747801 -10.745885393782796 -1 0 0 I I #
vertex $-1 $380 $621 #
straight-curve $-1 0 35.117980022747801 -10.745885393782796 1 0 0 I I #
point $-1 52.532120731223486 35.117980022747801 -10.745885393782796 #
point $-1 52.532120731223486 -35.117980022747801 -10.745885393782796 #
straight-curve $-1 -52.532120731223486 0 10.745885393782796 0 -1 0 I I #
point $-1 -52.532120731223486 35.117980022747801 10.745885393782796 #
point $-1 -52.532120731223486 -35.117980022747801 10.745885393782796 #
straight-curve $-1 52.532120731223486 -35.117980022747801 0 0 0 -1 I I #
straight-curve $-1 52.532120731223486 35.117980022747801 0 0 0 -1 I I #
plane-surface $-1 0 -35.117980022747801 0 0 1 0 0 0 1 forward_v I I I I #
coedge $-1 $622 $400 $410 $554 reversed $260 $-1 #
coedge $-1 $400 $622 $413 $556 forward $260 $-1 #
coedge $-1 $623 $403 $401 $546 forward $398 $-1 #
edge $-1 $547 41.355717789006519 $624 52.532120731223486 $401 $625 forward 7 unknown #
vertex $-1 $546 $626 #
straight-curve $-1 -41.355717789006519 35.117980022747801 4.1856218932193823 0 0 -1 I I #
coedge $-1 $403 $623 $405 $551 forward $398 $-1 #
straight-curve $-1 -41.355717789006519 0 10.745885393782796 0 1 0 I I #
edge $-1 $627 -52.532120731223486 $407 -41.355717789006519 $405 $628 forward 7 unknown #
point $-1 -41.355717789006519 -35.117980022747801 10.745885393782796 #
straight-curve $-1 -52.532120731223486 0 5.996602179094733 0 -1 0 I I #
edge $-1 $627 -10.745885393782796 $411 -5.996602179094733 $543 $629 forward 7 unknown #
point $-1 -52.532120731223486 -35.117980022747801 5.996602179094733 #
edge $-1 $624 -10.745885393782796 $414 -5.996602179094733 $413 $630 forward 7 unknown #
point $-1 -52.532120731223486 35.117980022747801 5.996602179094733 #
edge $-1 $559 23.857389786607715 $562 27.151935311088216 $419 $631 forward 7 unknown #
vertex $-1 $433 $632 #
straight-curve $-1 -15.182584102311676 -60.058368863401007 10.745885393782796 0 -1 0 I I #
edge $-1 $562 -11.71784980257868 $430 4.7883812031126887 $429 $633 forward 7 unknown #
vertex $-1 $561 $634 #
straight-curve $-1 -15.182584102311676 -35.117980022747815 7.4513398693022737 0 0.5877852410284794 0.80901700255871778 I I #
point $-1 -15.182584102311676 -32.724352658846357 10.745885393782796 #
point $-1 1.3236469033796929 -35.117980022747801 7.4513398693022932 #
straight-curve $-1 0 -35.117980022747801 10.745885393782796 1 0 0 I I #
vertex $-1 $436 $635 #
point $-1 -6.4294685994659915 -33.112149338238353 8.5108273905140539 #
coedge $-1 $451 $450 $443 $570 forward $440 $-1 #
edge $-1 $571 51.892901142711864 $574 58.063875191974937 $569 $636 forward 7 unknown #
vertex $-1 $455 $637 #
straight-curve $-1 -17.883758158949021 36.283655357211579 10.7458853937828 0 1 0 I I #
edge $-1 $574 5.9784071782159689 $452 17.832294783250134 $451 $638 forward 7 unknown #
vertex $-1 $573 $639 #
straight-curve $-1 -17.883758158949021 -9.0829411010941072 59.158504624152414 0 -0.62932038083071107 0.77714596973225614 I I #
point $-1 -17.883758158949021 30.120823902750637 10.7458853937828 #
point $-1 -29.737645763983188 35.117980022747801 4.5749113445197267 #
straight-curve $-1 0 35.117980022747801 10.745885393782796 -1 0 0 I I #
vertex $-1 $458 $640 #
point $-1 -22.310701961466105 30.627714900942049 6.0475620307425197 #
coedge $-1 $473 $472 $465 $582 forward $462 $-1 #
edge $-1 $583 51.892901142711864 $586 58.063875191974937 $581 $641 forward 7 unknown #
vertex $-1 $477 $642 #
straight-curve $-1 5.58820147110848 36.283655357211579 10.7458853937828 0 1 0 I I #
edge $-1 $586 -5.7575726368127818 $474 6.0963149682213853 $473 $643 forward 7 unknown #
vertex $-1 $585 $644 #
straight-curve $-1 5.58820147110848 -9.0829411010941072 59.158504624152414 0 -0.62932038083071107 0.77714596973225614 I I #
point $-1 5.58820147110848 30.120823902750637 10.7458853937828 #
point $-1 -6.2656861339256871 35.117980022747801 4.5749113445197267 #
straight-curve $-1 0 35.117980022747801 10.745885393782796 -1 0 0 I I #
vertex $-1 $480 $645 #
point $-1 1.1612576685913965 30.627714900942049 6.0475620307425197 #
coedge $-1 $495 $494 $487 $594 forward $484 $-1 #
edge $-1 $595 51.892901142711864 $598 58.063875191974937 $593 $646 forward 7 unknown #
vertex $-1 $499 $647 #
straight-curve $-1 29.060161101165985 36.283655357211579 10.7458853937828 0 1 0 I I #
edge $-1 $598 -17.493552451841534 $496 -5.6396648468073671 $495 $648 forward 7 unknown #
vertex $-1 $597 $649 #
straight-curve $-1 29.060161101165985 -9.0829411010941072 59.158504624152414 0 -0.62932038083071107 0.77714596973225614 I I #
point $-1 29.060161101165985 30.120823902750637 10.7458853937828 #
point $-1 17.206273496131818 35.117980022747801 4.5749113445197267 #
straight-curve $-1 0 35.117980022747801 10.745885393782796 -1 0 0 I I #
vertex $-1 $502 $650 #
point $-1 24.633217298648901 30.627714900942049 6.0475620307425197 #
coedge $-1 $606 $508 $612 $651 reversed $353 $-1 #
coedge $-1 $508 $605 $511 $610 reversed $353 $-1 #
edge $-1 $608 -29.229532266870287 $516 -17.375644661836112 $515 $652 forward 7 unknown #
vertex $-1 $510 $653 #
straight-curve $-1 52.532120731223486 7.1821189646949204 39.07282765800106 0 0.62932038083071107 -0.77714596973225614 I I #
edge $-1 $512 30.120823902750637 $614 35.117980022747801 $606 $654 forward 7 unknown #
point $-1 52.532120731223486 30.120823902750637 10.7458853937828 #
coedge $-1 $515 $514 $605 $651 forward $506 $-1 #
point $-1 40.678233126189312 35.117980022747801 4.5749113445197267 #
vertex $-1 $610 $655 #
straight-curve $-1 0 35.117980022747801 10.745885393782796 -1 0 0 I I #
vertex $-1 $522 $656 #
point $-1 48.105176928706399 30.627714900942049 6.0475620307425197 #
straight-curve $-1 -52.532120731223486 35.117980022747801 0 0 0 -1 I I #
point $-1 -52.532120731223486 -35.117980022747801 -10.745885393782796 #
straight-curve $-1 -52.532120731223486 0 -10.745885393782796 0 1 0 I I #
point $-1 -52.532120731223486 35.117980022747801 -10.745885393782796 #
coedge $-1 $544 $543 $623 $657 reversed $260 $-1 #
coedge $-1 $549 $545 $622 $657 forward $398 $-1 #
vertex $-1 $546 $658 #
straight-curve $-1 0 35.117980022747801 10.745885393782796 -1 0 0 I I #
point $-1 -41.355717789006519 35.117980022747801 10.745885393782796 #
vertex $-1 $657 $659 #
straight-curve $-1 0 -35.117980022747801 10.745885393782796 1 0 0 I I #
straight-curve $-1 -52.532120731223486 -35.117980022747801 0 0 0 -1 I I #
straight-curve $-1 -52.532120731223486 35.117980022747801 0 0 0 -1 I I #
straight-curve $-1 -15.182584102311676 -35.117980022747801 34.603275180390511 0 0 -1 I I #
point $-1 -15.182584102311676 -35.117980022747801 10.745885393782796 #
straight-curve $-1 -3.4647342997329957 -35.117980022747801 7.4513398693022985 1 0 0 I I #
point $-1 -15.182584102311676 -35.117980022747801 7.4513398693022932 #
point $-1 -6.9294685994659915 -32.707640836959001 8.2169347699998152 #
straight-curve $-1 -17.883758158949021 35.117980022747801 62.638786536494663 0 0 -1 I I #
point $-1 -17.883758158949021 35.117980022747801 10.745885393782796 #
straight-curve $-1 -11.905350980733052 35.117980022747801 4.5749113445197231 -1 0 0 I I #
point $-1 -17.883758158949021 35.117980022747801 4.5749113445197267 #
point $-1 -23.810701961466105 29.461995946343666 5.1035814594964526 #
straight-curve $-1 5.58820147110848 35.117980022747801 62.638786536494663 0 0 -1 I I #
point $-1 5.58820147110848 35.117980022747801 10.745885393782796 #
straight-curve $-1 -0.16937116570430177 35.117980022747801 4.5749113445197231 -1 0 0 I I #
point $-1 5.58820147110848 35.117980022747801 4.5749113445197267 #
point $-1 -0.33874233140860355 29.461995946343666 5.1035814594964526 #
straight-curve $-1 29.060161101165985 35.117980022747801 62.638786536494663 0 0 -1 I I #
point $-1 29.060161101165985 35.117980022747801 10.745885393782796 #
straight-curve $-1 11.566608649324451 35.117980022747801 4.5749113445197231 -1 0 0 I I #
point $-1 29.060161101165985 35.117980022747801 4.5749113445197267 #
point $-1 23.133217298648901 29.461995946343666 5.1035814594964526 #
edge $-1 $614 -10.745885393782796 $608 -4.5749113445197267 $605 $660 forward 7 unknown #
straight-curve $-1 23.3025884643532 35.117980022747801 4.5749113445197231 -1 0 0 I I #
point $-1 52.532120731223486 35.117980022747801 4.5749113445197267 #
straight-curve $-1 52.532120731223486 0 10.745885393782796 0 1 0 I I #
point $-1 52.532120731223486 35.117980022747801 10.745885393782796 #
point $-1 46.605176928706399 29.461995946343666 5.1035814594964526 #
edge $-1 $624 -35.117980022747801 $627 35.117980022747801 $622 $661 forward 7 unknown #
point $-1 -52.532120731223486 35.117980022747801 10.745885393782796 #
point $-1 -52.532120731223486 -35.117980022747801 10.745885393782796 #
straight-curve $-1 52.532120731223486 35.117980022747801 0 0 0 -1 I I #
straight-curve $-1 -52.532120731223486 0 10.745885393782796 0 -1 0 I I #
End-of-ACIS-data 