500 0 8 0           
7 Unknown 11 ACIS 5.0 NT 24 Thu Mar 25 19:17:41 1999 
-1 9.9999999999999995e-007 1e-010 
body $-1 $8 $-1 $9 #
body $-1 $10 $-1 $11 #
body $-1 $12 $-1 $13 #
body $-1 $14 $-1 $15 #
body $-1 $16 $-1 $17 #
body $-1 $18 $-1 $19 #
body $-1 $20 $-1 $21 #
body $-1 $22 $-1 $23 #
lump $-1 $-1 $24 $0 #
transform $-1 1 0 0 0 1 0 0 0 1 46.527298806726279 28.127808917274134 8.8521005382190197 1 rotate no_reflect no_shear #
lump $-1 $-1 $25 $1 #
transform $-1 1 0 0 0 1 0 0 0 1 46.527298806726279 28.127808917274134 8.8521005382190197 1 rotate no_reflect no_shear #
lump $-1 $-1 $26 $2 #
transform $-1 1 0 0 0 1 0 0 0 1 46.527298806726279 28.127808917274134 8.8521005382190197 1 rotate no_reflect no_shear #
lump $-1 $-1 $27 $3 #
transform $-1 1 0 0 0 1 0 0 0 1 46.527298806726279 28.127808917274134 8.8521005382190197 1 rotate no_reflect no_shear #
lump $-1 $-1 $28 $4 #
transform $-1 1 0 0 0 1 0 0 0 1 46.527298806726279 28.127808917274134 8.8521005382190197 1 rotate no_reflect no_shear #
lump $-1 $-1 $29 $5 #
transform $-1 1 0 0 0 1 0 0 0 1 46.527298806726279 28.127808917274134 8.8521005382190197 1 rotate no_reflect no_shear #
lump $-1 $-1 $30 $6 #
transform $-1 1 0 0 0 1 0 0 0 1 46.527298806726279 28.127808917274134 8.8521005382190197 1 rotate no_reflect no_shear #
lump $-1 $-1 $31 $7 #
transform $-1 1 0 0 0 1 0 0 0 1 46.527298806726279 28.127808917274134 8.8521005382190197 1 rotate no_reflect no_shear #
shell $-1 $-1 $-1 $32 $-1 $8 #
shell $-1 $-1 $-1 $33 $-1 $10 #
shell $-1 $-1 $-1 $34 $-1 $12 #
shell $-1 $-1 $-1 $35 $-1 $14 #
shell $-1 $-1 $-1 $36 $-1 $16 #
shell $-1 $-1 $-1 $37 $-1 $18 #
shell $-1 $-1 $-1 $38 $-1 $20 #
shell $-1 $-1 $-1 $39 $-1 $22 #
face $-1 $40 $41 $24 $-1 $42 forward single #
face $-1 $43 $44 $25 $-1 $45 reversed single #
face $-1 $46 $47 $26 $-1 $48 reversed single #
face $-1 $49 $50 $27 $-1 $51 forward single #
face $-1 $52 $53 $28 $-1 $54 reversed single #
face $-1 $55 $56 $29 $-1 $57 forward single #
face $-1 $58 $59 $30 $-1 $60 forward single #
face $-1 $61 $62 $31 $-1 $63 forward single #
face $-1 $64 $65 $24 $-1 $66 reversed single #
loop $-1 $-1 $67 $32 #
plane-surface $-1 0 0 8.8521005382190197 0 0 1 1 0 0 forward_v I I I I #
face $-1 $68 $69 $25 $-1 $70 reversed single #
loop $-1 $-1 $71 $33 #
plane-surface $-1 -41.612255553815729 -14.455748145811654 0 0 1 0 0 0 1 forward_v I I I I #
face $-1 $72 $73 $26 $-1 $74 reversed single #
loop $-1 $-1 $75 $34 #
plane-surface $-1 -6.7995407727479744 52.30206036084644 108.35040044182286 1 0 0 0 -0.69465837861970381 -0.71933979245794832 forward_v I I I I #
face $-1 $76 $77 $27 $-1 $78 forward single #
loop $-1 $79 $80 $35 #
cone-surface $-1 -0.21196018147296058 22.993393768665626 3.770959136359791 0 -0.69465837861970381 -0.71933979245794832 1.5 0 0 1 I I 0 1 1.5 forward I I I I #
face $-1 $81 $82 $28 $-1 $83 reversed single #
loop $-1 $-1 $84 $36 #
plane-surface $-1 -1.57763494543366 -107.89116790059006 53.77393801178772 -1 0 0 0 -0.85716730853699208 0.51503806187062418 forward_v I I I I #
face $-1 $85 $86 $29 $-1 $87 forward single #
loop $-1 $88 $89 $37 #
cone-surface $-1 -16.214501689751373 -26.403021084102907 6.8557530870480425 0 0.85716730853699208 -0.51503806187062418 0.5 0 0 1 I I 0 1 0.5 forward I I I I #
face $-1 $90 $91 $30 $-1 $92 forward single #
loop $-1 $93 $94 $38 #
cone-surface $-1 -10.725676660632232 -26.403021084102907 6.8557530870480425 0 0.85716730853699208 -0.51503806187062418 0.5 0 0 1 I I 0 1 0.5 forward I I I I #
face $-1 $95 $96 $31 $-1 $97 forward single #
loop $-1 $98 $99 $39 #
cone-surface $-1 -5.2368516315130904 -26.403021084102907 6.8557530870480425 0 0.85716730853699208 -0.51503806187062418 0.5 0 0 1 I I 0 1 0.5 forward I I I I #
face $-1 $100 $101 $24 $-1 $102 reversed single #
loop $-1 $-1 $103 $40 #
plane-surface $-1 0 0 -8.8521005382190197 0 0 1 1 0 0 forward_v I I I I #
coedge $-1 $104 $105 $106 $107 forward $41 $-1 #
face $-1 $108 $109 $25 $-1 $110 reversed single #
loop $-1 $-1 $111 $43 #
plane-surface $-1 -41.612255553815729 -10.423607840836095 0 0 -1 0 0 0 -1 forward_v I I I I #
coedge $-1 $112 $113 $114 $115 reversed $44 $-1 #
face $-1 $116 $117 $26 $-1 $118 reversed single #
loop $-1 $-1 $119 $46 #
plane-surface $-1 -0.21196018147296058 -12.339095540423472 41.412525507303997 0 0.69465837861970381 0.71933979245794832 1 0 0 forward_v I I I I #
coedge $-1 $120 $121 $122 $123 reversed $47 $-1 #
face $-1 $-1 $124 $27 $-1 $125 forward single #
loop $-1 $126 $127 $49 #
cone-surface $-1 -0.21196018147296058 20.712783904992175 1.4093185422131072 0 -0.69465837861970381 -0.71933979245794832 0.75 0 0 1 I I -0.70710678118654757 0.70710678118654757 0.75 forward I I I I #
loop $-1 $-1 $128 $35 #
coedge $-1 $80 $80 $129 $130 reversed $50 $-1 #
face $-1 $131 $132 $28 $-1 $133 reversed single #
loop $-1 $-1 $134 $52 #
plane-surface $-1 -10.725676660632232 -28.127808917274123 5.847278408804307 0 -0.85716730853699208 0.51503806187062418 1 0 0 forward_v I I I I #
coedge $-1 $135 $136 $137 $138 reversed $53 $-1 #
face $-1 $-1 $139 $29 $-1 $140 forward single #
loop $-1 $141 $142 $55 #
cone-surface $-1 -16.214501689751373 -25.366681035064893 6.2330571851167669 0 0.85716730853699208 -0.51503806187062418 0.25 0 0 1 I I -0.70710678118654746 0.70710678118654746 0.25 forward I I I I #
loop $-1 $-1 $143 $37 #
coedge $-1 $89 $89 $144 $145 reversed $56 $-1 #
face $-1 $-1 $146 $30 $-1 $147 forward single #
loop $-1 $148 $149 $58 #
cone-surface $-1 -10.725676660632232 -25.366681035064893 6.2330571851167669 0 0.85716730853699208 -0.51503806187062418 0.25 0 0 1 I I -0.70710678118654746 0.70710678118654746 0.25 forward I I I I #
loop $-1 $-1 $150 $38 #
coedge $-1 $94 $94 $151 $152 reversed $59 $-1 #
face $-1 $-1 $153 $31 $-1 $154 forward single #
loop $-1 $155 $156 $61 #
cone-surface $-1 -5.2368516315130904 -25.366681035064893 6.2330571851167669 0 0.85716730853699208 -0.51503806187062418 0.25 0 0 1 I I -0.70710678118654746 0.70710678118654746 0.25 forward I I I I #
loop $-1 $-1 $157 $39 #
coedge $-1 $99 $99 $158 $159 reversed $62 $-1 #
face $-1 $160 $161 $24 $-1 $162 reversed single #
loop $-1 $-1 $163 $64 #
plane-surface $-1 0 -28.127808917274134 0 0 1 0 0 0 1 forward_v I I I I #
coedge $-1 $164 $165 $166 $167 forward $65 $-1 #
coedge $-1 $168 $67 $169 $170 forward $41 $-1 #
coedge $-1 $67 $168 $171 $172 forward $41 $-1 #
coedge $-1 $173 $174 $67 $107 reversed $175 $-1 #
edge $-1 $176 -28.127808917274134 $177 28.127808917274134 $106 $178 forward 7 unknown #
face $-1 $179 $180 $25 $-1 $181 reversed single #
loop $-1 $-1 $182 $68 #
plane-surface $-1 -36.697212300905178 -12.439677993323874 0 -1 0 0 0 0 1 forward_v I I I I #
coedge $-1 $183 $184 $185 $186 forward $69 $-1 #
coedge $-1 $187 $71 $188 $189 reversed $44 $-1 #
coedge $-1 $71 $187 $190 $191 reversed $44 $-1 #
coedge $-1 $192 $193 $71 $115 forward $194 $-1 #
edge $-1 $195 -8.8521005382190197 $196 8.8521005382190197 $114 $197 forward 7 unknown #
face $-1 $198 $199 $26 $-1 $200 reversed single #
loop $-1 $-1 $201 $72 #
plane-surface $-1 6.3756204098020532 52.30206036084644 108.35040044182286 -1 0 0 0 0.69465837861970381 0.71933979245794832 forward_v I I I I #
coedge $-1 $202 $203 $204 $205 reversed $73 $-1 #
coedge $-1 $121 $75 $206 $207 reversed $47 $-1 #
coedge $-1 $75 $120 $202 $208 reversed $47 $-1 #
coedge $-1 $204 $209 $75 $123 forward $210 $-1 #
edge $-1 $211 -1.976778736850914 $212 4.7728194009487694 $122 $213 forward 7 unknown #
loop $-1 $-1 $129 $76 #
plane-surface $-1 -0.21196018147296058 -12.339095540423472 41.412525507303997 0 0.69465837861970381 0.71933979245794832 1 0 0 forward_v I I I I #
loop $-1 $-1 $214 $49 #
coedge $-1 $127 $127 $128 $215 reversed $77 $-1 #
coedge $-1 $128 $128 $127 $215 forward $79 $-1 #
coedge $-1 $129 $129 $80 $130 forward $124 $-1 #
edge $-1 $216 5.8457331036845055e-017 $216 6.2831853071796004 $129 $217 forward 7 unknown #
face $-1 $218 $219 $28 $-1 $220 forward single #
loop $-1 $-1 $221 $81 #
plane-surface $-1 -19.873718375830805 -107.89116790059006 53.77393801178772 1 0 0 0 0.85716730853699208 -0.51503806187062418 forward_v I I I I #
coedge $-1 $222 $223 $224 $225 reversed $82 $-1 #
coedge $-1 $136 $84 $226 $227 reversed $53 $-1 #
coedge $-1 $84 $135 $222 $228 reversed $53 $-1 #
coedge $-1 $224 $229 $84 $138 forward $219 $-1 #
edge $-1 $230 25.817775033020897 $231 27.623254255555825 $137 $232 forward 7 unknown #
loop $-1 $-1 $144 $85 #
plane-surface $-1 -10.725676660632232 -28.127808917274123 5.847278408804307 0 -0.85716730853699208 0.51503806187062418 1 0 0 forward_v I I I I #
loop $-1 $-1 $233 $55 #
coedge $-1 $142 $142 $143 $234 reversed $86 $-1 #
coedge $-1 $143 $143 $142 $234 forward $88 $-1 #
coedge $-1 $144 $144 $89 $145 forward $139 $-1 #
edge $-1 $235 -1.2285910259226982e-015 $235 6.2831853071795996 $144 $236 forward 7 unknown #
loop $-1 $-1 $151 $90 #
plane-surface $-1 -10.725676660632232 -28.127808917274123 5.847278408804307 0 -0.85716730853699208 0.51503806187062418 1 0 0 forward_v I I I I #
loop $-1 $-1 $237 $58 #
coedge $-1 $149 $149 $150 $238 reversed $91 $-1 #
coedge $-1 $150 $150 $149 $238 forward $93 $-1 #
coedge $-1 $151 $151 $94 $152 forward $146 $-1 #
edge $-1 $239 -1.2285910259226982e-015 $239 6.2831853071795996 $151 $240 forward 7 unknown #
loop $-1 $-1 $158 $95 #
plane-surface $-1 -10.725676660632232 -28.127808917274123 5.847278408804307 0 -0.85716730853699208 0.51503806187062418 1 0 0 forward_v I I I I #
loop $-1 $-1 $241 $61 #
coedge $-1 $156 $156 $157 $242 reversed $96 $-1 #
coedge $-1 $157 $157 $156 $242 forward $98 $-1 #
coedge $-1 $158 $158 $99 $159 forward $153 $-1 #
edge $-1 $243 -1.2285910259226982e-015 $243 6.2831853071795996 $158 $244 forward 7 unknown #
face $-1 $245 $246 $24 $-1 $247 reversed single #
loop $-1 $-1 $248 $100 #
plane-surface $-1 -46.527298806726279 0 0 1 0 0 0 0 -1 forward_v I I I I #
coedge $-1 $249 $171 $250 $251 forward $101 $-1 #
coedge $-1 $252 $103 $249 $253 forward $65 $-1 #
coedge $-1 $103 $252 $254 $255 forward $65 $-1 #
coedge $-1 $174 $173 $103 $167 reversed $175 $-1 #
edge $-1 $256 -28.127808917274134 $257 28.127808917274134 $166 $258 forward 7 unknown #
coedge $-1 $105 $104 $259 $260 forward $41 $-1 #
coedge $-1 $261 $262 $104 $170 reversed $246 $-1 #
edge $-1 $177 -46.527298806726279 $263 46.527298806726279 $169 $264 forward 7 unknown #
coedge $-1 $163 $265 $105 $172 reversed $101 $-1 #
edge $-1 $266 -46.527298806726279 $176 46.527298806726279 $171 $267 forward 7 unknown #
coedge $-1 $166 $106 $265 $268 forward $175 $-1 #
coedge $-1 $106 $166 $261 $269 reversed $175 $-1 #
loop $-1 $-1 $173 $245 #
vertex $-1 $107 $270 #
vertex $-1 $107 $271 #
straight-curve $-1 46.527298806726279 0 8.8521005382190197 0 1 0 I I #
face $-1 $272 $273 $25 $-1 $274 forward single #
loop $-1 $-1 $275 $108 #
plane-surface $-1 0 0 -8.8521005382190197 0 0 1 1 0 0 forward_v I I I I #
coedge $-1 $276 $277 $187 $278 forward $109 $-1 #
coedge $-1 $279 $111 $275 $280 reversed $69 $-1 #
coedge $-1 $111 $279 $281 $282 reversed $69 $-1 #
coedge $-1 $277 $276 $111 $186 reversed $109 $-1 #
edge $-1 $283 -8.8521005382190197 $284 8.8521005382190197 $185 $285 forward 7 unknown #
coedge $-1 $113 $112 $182 $278 reversed $44 $-1 #
coedge $-1 $286 $287 $112 $189 forward $180 $-1 #
edge $-1 $288 15.891084523997314 $195 25.721171029818414 $188 $289 forward 7 unknown #
coedge $-1 $290 $291 $113 $191 forward $273 $-1 #
edge $-1 $196 -25.721171029818414 $292 -15.891084523997314 $190 $293 forward 7 unknown #
coedge $-1 $294 $114 $291 $295 reversed $194 $-1 #
coedge $-1 $114 $294 $286 $296 reversed $194 $-1 #
loop $-1 $-1 $294 $272 #
vertex $-1 $296 $297 #
vertex $-1 $115 $298 #
straight-curve $-1 -46.527298806726279 -14.455748145811654 0 0 0 1 I I #
face $-1 $-1 $210 $26 $-1 $299 forward single #
loop $-1 $-1 $300 $116 #
plane-surface $-1 0 28.127808917274134 0 0 -1 0 0 0 -1 forward_v I I I I #
coedge $-1 $301 $302 $303 $304 reversed $117 $-1 #
coedge $-1 $305 $119 $121 $208 forward $73 $-1 #
coedge $-1 $119 $305 $301 $306 forward $73 $-1 #
coedge $-1 $303 $122 $119 $205 forward $210 $-1 #
edge $-1 $212 -6.6935606820114941 $307 6.4816005005385335 $204 $308 forward 7 unknown #
coedge $-1 $309 $310 $120 $207 forward $199 $-1 #
edge $-1 $311 -51.841110986804424 $211 -45.323099682692408 $206 $312 forward 7 unknown #
edge $-1 $212 46.872572146589533 $311 56.255617834548261 $121 $313 forward 7 unknown #
coedge $-1 $122 $303 $309 $314 forward $210 $-1 #
loop $-1 $-1 $303 $198 #
vertex $-1 $207 $315 #
vertex $-1 $123 $316 #
straight-curve $-1 -6.7995407727479744 26.15103018042322 8.8521005382190197 0 -1 0 I I #
coedge $-1 $214 $214 $-1 $317 reversed $126 $-1 #
edge $-1 $318 0 $318 6.2831853071796004 $127 $319 forward 7 unknown #
vertex $-1 $130 $320 #
ellipse-curve $-1 -0.21196018147296058 24.753009848374294 5.5930948861630094 0 0.69465837861970381 0.71933979245794832 1.5 0 0 1 I I #
face $-1 $-1 $321 $28 $-1 $322 reversed single #
loop $-1 $-1 $137 $131 #
plane-surface $-1 0 0 8.8521005382190197 0 0 1 1 0 0 forward_v I I I I #
coedge $-1 $323 $324 $325 $326 reversed $132 $-1 #
coedge $-1 $327 $134 $136 $228 forward $82 $-1 #
coedge $-1 $134 $327 $323 $328 forward $82 $-1 #
coedge $-1 $325 $137 $134 $225 forward $219 $-1 #
edge $-1 $231 -3.7852033848824558 $329 14.510880045514689 $224 $330 forward 7 unknown #
coedge $-1 $331 $332 $135 $227 forward $321 $-1 #
edge $-1 $333 -21.039690597089571 $230 -18.034868467674841 $226 $334 forward 7 unknown #
edge $-1 $231 -3.5055258168248686 $333 2.0715698412831909e-014 $136 $335 forward 7 unknown #
coedge $-1 $137 $325 $331 $336 forward $219 $-1 #
vertex $-1 $227 $337 #
vertex $-1 $138 $338 #
straight-curve $-1 -1.57763494543366 -53.945583950295031 8.8521005382190197 0 1 0 I I #
coedge $-1 $233 $233 $-1 $339 reversed $141 $-1 #
edge $-1 $340 0 $340 6.2831853071796004 $142 $341 forward 7 unknown #
vertex $-1 $145 $342 #
ellipse-curve $-1 -16.214501689751373 -27.225069306006667 7.3496894735116589 0 -0.85716730853699208 0.51503806187062418 0.5 0 0 1 I I #
coedge $-1 $237 $237 $-1 $343 reversed $148 $-1 #
edge $-1 $344 0 $344 6.2831853071796004 $149 $345 forward 7 unknown #
vertex $-1 $152 $346 #
ellipse-curve $-1 -10.725676660632232 -27.225069306006667 7.3496894735116589 0 -0.85716730853699208 0.51503806187062418 0.5 0 0 1 I I #
coedge $-1 $241 $241 $-1 $347 reversed $155 $-1 #
edge $-1 $348 0 $348 6.2831853071796004 $156 $349 forward 7 unknown #
vertex $-1 $159 $350 #
ellipse-curve $-1 -5.2368516315130904 -27.225069306006667 7.3496894735116589 0 -0.85716730853699208 0.51503806187062418 0.5 0 0 1 I I #
face $-1 $-1 $175 $24 $-1 $351 reversed single #
loop $-1 $-1 $261 $160 #
plane-surface $-1 0 28.127808917274134 0 0 -1 0 0 0 -1 forward_v I I I I #
coedge $-1 $352 $259 $262 $353 forward $161 $-1 #
coedge $-1 $265 $163 $164 $253 reversed $101 $-1 #
coedge $-1 $259 $352 $163 $251 reversed $161 $-1 #
edge $-1 $266 -8.8521005382190197 $354 8.8521005382190197 $250 $355 forward 7 unknown #
coedge $-1 $165 $164 $352 $356 forward $65 $-1 #
edge $-1 $257 -46.527298806726279 $354 46.527298806726279 $249 $357 forward 7 unknown #
coedge $-1 $262 $261 $165 $255 reversed $246 $-1 #
edge $-1 $358 -46.527298806726279 $256 46.527298806726279 $254 $359 forward 7 unknown #
vertex $-1 $167 $360 #
vertex $-1 $268 $361 #
straight-curve $-1 46.527298806726279 0 -8.8521005382190197 0 -1 0 I I #
coedge $-1 $248 $250 $168 $260 reversed $161 $-1 #
edge $-1 $263 -28.127808917274134 $266 28.127808917274134 $259 $362 forward 7 unknown #
coedge $-1 $254 $169 $174 $269 forward $246 $-1 #
coedge $-1 $169 $254 $248 $353 reversed $246 $-1 #
vertex $-1 $170 $363 #
straight-curve $-1 0 28.127808917274134 8.8521005382190197 -1 0 0 I I #
coedge $-1 $171 $249 $173 $268 reversed $101 $-1 #
vertex $-1 $260 $364 #
straight-curve $-1 0 -28.127808917274134 8.8521005382190197 1 0 0 I I #
edge $-1 $176 -8.8521005382190197 $257 8.8521005382190197 $173 $365 forward 7 unknown #
edge $-1 $177 -8.8521005382190197 $256 8.8521005382190197 $174 $366 forward 7 unknown #
point $-1 46.527298806726279 -28.127808917274134 8.8521005382190197 #
point $-1 46.527298806726279 28.127808917274134 8.8521005382190197 #
face $-1 $-1 $194 $25 $-1 $367 reversed single #
loop $-1 $-1 $281 $179 #
plane-surface $-1 0 0 8.8521005382190197 0 0 1 1 0 0 forward_v I I I I #
coedge $-1 $287 $286 $183 $280 forward $180 $-1 #
coedge $-1 $185 $182 $287 $368 reversed $109 $-1 #
coedge $-1 $182 $185 $290 $369 reversed $109 $-1 #
edge $-1 $292 -8.8521005382190197 $288 8.8521005382190197 $182 $370 forward 7 unknown #
coedge $-1 $184 $183 $294 $371 reversed $69 $-1 #
edge $-1 $372 -25.721171029818414 $284 -15.891084523997314 $275 $373 forward 7 unknown #
coedge $-1 $291 $290 $184 $282 forward $273 $-1 #
edge $-1 $283 15.891084523997314 $374 25.721171029818414 $281 $375 forward 7 unknown #
vertex $-1 $282 $376 #
vertex $-1 $280 $377 #
straight-curve $-1 -36.697212300905178 -10.423607840836095 0 0 0 -1 I I #
coedge $-1 $275 $188 $193 $296 forward $180 $-1 #
coedge $-1 $188 $275 $276 $368 forward $180 $-1 #
vertex $-1 $189 $378 #
straight-curve $-1 -20.806127776907864 -14.455748145811654 -8.8521005382190197 -1 0 0 I I #
coedge $-1 $281 $190 $277 $369 forward $273 $-1 #
coedge $-1 $190 $281 $192 $295 forward $273 $-1 #
vertex $-1 $191 $379 #
straight-curve $-1 -20.806127776907864 -14.455748145811654 8.8521005382190197 1 0 0 I I #
coedge $-1 $193 $192 $279 $371 forward $194 $-1 #
edge $-1 $374 10.423607840836095 $196 14.455748145811654 $192 $380 forward 7 unknown #
edge $-1 $195 -14.455748145811654 $372 -10.423607840836095 $193 $381 forward 7 unknown #
point $-1 -46.527298806726279 -14.455748145811654 -8.8521005382190197 #
point $-1 -46.527298806726279 -14.455748145811654 8.8521005382190197 #
plane-surface $-1 0 0 8.8521005382190197 0 0 1 1 0 0 forward_v I I I I #
coedge $-1 $310 $309 $302 $382 forward $199 $-1 #
coedge $-1 $302 $201 $203 $306 reversed $117 $-1 #
coedge $-1 $201 $301 $300 $382 reversed $117 $-1 #
coedge $-1 $209 $204 $201 $304 forward $210 $-1 #
edge $-1 $307 -4.7728194009487694 $383 1.976778736850914 $303 $384 forward 7 unknown #
coedge $-1 $203 $202 $310 $385 reversed $73 $-1 #
edge $-1 $386 -56.255617834548261 $307 -46.872572146589533 $301 $387 forward 7 unknown #
vertex $-1 $205 $388 #
straight-curve $-1 -0.10598009073648029 21.378210779474458 8.8521005382190197 1 0 0 I I #
coedge $-1 $300 $206 $209 $314 reversed $199 $-1 #
coedge $-1 $206 $300 $305 $385 forward $199 $-1 #
vertex $-1 $207 $389 #
straight-curve $-1 -6.7995407727479744 28.127808917274134 54.175200220911428 0 0 1 I I #
straight-curve $-1 -6.7995407727479744 -12.339095540423472 41.412525507303997 0 0.71933979245794832 -0.69465837861970381 I I #
edge $-1 $383 -6.3756204098020532 $211 6.7995407727479744 $309 $390 forward 7 unknown #
point $-1 -6.7995407727479744 28.127808917274134 8.8521005382190197 #
point $-1 -6.7995407727479744 21.37821077947445 8.8521005382190197 #
edge $-1 $391 1 $391 0 $214 $-1 forward 7 unknown #
vertex $-1 $215 $392 #
ellipse-curve $-1 -0.21196018147296058 21.233777688956952 1.9488233865565685 0 0.69465837861970381 0.71933979245794832 1.5 0 0 1 I I #
point $-1 1.2880398185270394 24.753009848374298 5.593094886163013 #
loop $-1 $-1 $226 $218 #
plane-surface $-1 0 -28.127808917274134 0 0 1 0 0 0 1 forward_v I I I I #
coedge $-1 $324 $221 $223 $328 reversed $132 $-1 #
coedge $-1 $221 $323 $393 $394 reversed $132 $-1 #
coedge $-1 $229 $224 $221 $326 forward $219 $-1 #
edge $-1 $329 -27.623254255555825 $395 -25.817775033020897 $325 $396 forward 7 unknown #
coedge $-1 $223 $222 $332 $397 reversed $82 $-1 #
edge $-1 $398 -2.0715698412831909e-014 $329 3.5055258168248686 $323 $399 forward 7 unknown #
vertex $-1 $225 $400 #
straight-curve $-1 -5.3628383303161158 -26.32232969473921 8.8521005382190197 -1 0 0 I I #
coedge $-1 $393 $226 $229 $336 reversed $321 $-1 #
coedge $-1 $226 $393 $327 $397 forward $321 $-1 #
vertex $-1 $227 $401 #
straight-curve $-1 -1.57763494543366 -28.127808917274137 26.88696900589386 0 0 1 I I #
straight-curve $-1 -1.57763494543366 -28.127808917274123 5.847278408804307 0 -0.51503806187062418 -0.85716730853699208 I I #
edge $-1 $395 -19.873718375830805 $230 -1.57763494543366 $331 $402 forward 7 unknown #
point $-1 -1.57763494543366 -28.127808917274134 8.8521005382190197 #
point $-1 -1.57763494543366 -26.322329694739206 8.8521005382190197 #
edge $-1 $403 1 $403 0 $233 $-1 forward 7 unknown #
vertex $-1 $234 $404 #
ellipse-curve $-1 -16.214501689751373 -25.58097286219914 6.3618167005844226 0 -0.85716730853699208 0.51503806187062418 0.5 0 0 1 I I #
point $-1 -15.714501689751373 -27.225069306006674 7.3496894735116625 #
edge $-1 $405 1 $405 0 $237 $-1 forward 7 unknown #
vertex $-1 $238 $406 #
ellipse-curve $-1 -10.725676660632232 -25.58097286219914 6.3618167005844226 0 -0.85716730853699208 0.51503806187062418 0.5 0 0 1 I I #
point $-1 -10.225676660632232 -27.225069306006674 7.3496894735116625 #
edge $-1 $407 1 $407 0 $241 $-1 forward 7 unknown #
vertex $-1 $242 $408 #
ellipse-curve $-1 -5.2368516315130904 -25.58097286219914 6.3618167005844226 0 -0.85716730853699208 0.51503806187062418 0.5 0 0 1 I I #
point $-1 -4.7368516315130904 -27.225069306006674 7.3496894735116625 #
plane-surface $-1 46.527298806726279 0 0 -1 0 0 0 0 1 forward_v I I I I #
coedge $-1 $250 $248 $252 $356 reversed $161 $-1 #
edge $-1 $263 -8.8521005382190197 $358 8.8521005382190197 $262 $409 forward 7 unknown #
vertex $-1 $356 $410 #
straight-curve $-1 -46.527298806726279 -28.127808917274134 0 0 0 -1 I I #
edge $-1 $354 -28.127808917274134 $358 28.127808917274134 $352 $411 forward 7 unknown #
straight-curve $-1 0 -28.127808917274134 -8.8521005382190197 -1 0 0 I I #
vertex $-1 $255 $412 #
straight-curve $-1 0 28.127808917274134 -8.8521005382190197 1 0 0 I I #
point $-1 46.527298806726279 28.127808917274134 -8.8521005382190197 #
point $-1 46.527298806726279 -28.127808917274134 -8.8521005382190197 #
straight-curve $-1 -46.527298806726279 0 8.8521005382190197 0 -1 0 I I #
point $-1 -46.527298806726279 28.127808917274134 8.8521005382190197 #
point $-1 -46.527298806726279 -28.127808917274134 8.8521005382190197 #
straight-curve $-1 46.527298806726279 -28.127808917274134 0 0 0 -1 I I #
straight-curve $-1 46.527298806726279 28.127808917274134 0 0 0 -1 I I #
plane-surface $-1 -46.527298806726279 0 0 1 0 0 0 0 -1 forward_v I I I I #
edge $-1 $284 4.2037688441741574 $288 8.2359091491497161 $287 $413 forward 7 unknown #
edge $-1 $292 -8.2359091491497161 $283 -4.2037688441741574 $290 $414 forward 7 unknown #
straight-curve $-1 -36.697212300905178 -14.455748145811654 0 0 0 -1 I I #
edge $-1 $374 -8.8521005382190197 $372 8.8521005382190197 $294 $415 forward 7 unknown #
vertex $-1 $371 $416 #
straight-curve $-1 -20.806127776907864 -10.423607840836095 -8.8521005382190197 1 0 0 I I #
vertex $-1 $295 $417 #
straight-curve $-1 -20.806127776907864 -10.423607840836095 8.8521005382190197 -1 0 0 I I #
point $-1 -36.697212300905178 -10.423607840836095 8.8521005382190197 #
point $-1 -36.697212300905178 -10.423607840836095 -8.8521005382190197 #
point $-1 -36.697212300905178 -14.455748145811654 -8.8521005382190197 #
point $-1 -36.697212300905178 -14.455748145811654 8.8521005382190197 #
straight-curve $-1 -46.527298806726279 0 8.8521005382190197 0 -1 0 I I #
straight-curve $-1 -46.527298806726279 0 -8.8521005382190197 0 1 0 I I #
edge $-1 $383 45.323099682692408 $386 51.841110986804424 $300 $418 forward 7 unknown #
vertex $-1 $314 $419 #
straight-curve $-1 6.3756204098020532 26.15103018042322 8.8521005382190197 0 1 0 I I #
edge $-1 $386 -6.4816005005385335 $311 6.6935606820114941 $310 $420 forward 7 unknown #
vertex $-1 $385 $421 #
straight-curve $-1 6.3756204098020532 -12.339095540423472 41.412525507303997 0 -0.71933979245794832 0.69465837861970381 I I #
point $-1 6.3756204098020532 21.37821077947445 8.8521005382190197 #
point $-1 -6.7995407727479744 28.127808917274137 2.3340892341070045 #
straight-curve $-1 0 28.127808917274134 8.8521005382190197 -1 0 0 I I #
vertex $-1 $317 $422 #
point $-1 1.2880398185270394 21.233777688956952 1.9488233865565685 #
coedge $-1 $332 $331 $324 $394 forward $321 $-1 #
edge $-1 $395 18.034868467674841 $398 21.039690597089571 $393 $423 forward 7 unknown #
vertex $-1 $336 $424 #
straight-curve $-1 -19.873718375830805 -53.945583950295031 8.8521005382190197 0 -1 0 I I #
edge $-1 $398 -14.510880045514689 $333 3.7852033848824558 $332 $425 forward 7 unknown #
vertex $-1 $397 $426 #
straight-curve $-1 -19.873718375830805 -28.127808917274123 5.847278408804307 0 0.51503806187062418 0.85716730853699208 I I #
point $-1 -19.873718375830805 -26.322329694739206 8.8521005382190197 #
point $-1 -1.57763494543366 -28.127808917274134 5.8472784088042893 #
straight-curve $-1 0 -28.127808917274134 8.8521005382190197 1 0 0 I I #
vertex $-1 $339 $427 #
point $-1 -15.714501689751373 -25.58097286219914 6.3618167005844226 #
vertex $-1 $343 $428 #
point $-1 -10.225676660632232 -25.58097286219914 6.3618167005844226 #
vertex $-1 $347 $429 #
point $-1 -4.7368516315130904 -25.58097286219914 6.3618167005844226 #
straight-curve $-1 -46.527298806726279 28.127808917274134 0 0 0 -1 I I #
point $-1 -46.527298806726279 -28.127808917274134 -8.8521005382190197 #
straight-curve $-1 -46.527298806726279 0 -8.8521005382190197 0 1 0 I I #
point $-1 -46.527298806726279 28.127808917274134 -8.8521005382190197 #
straight-curve $-1 -36.697212300905178 -6.2198389966619372 -8.8521005382190197 0 -1 0 I I #
straight-curve $-1 -36.697212300905178 -6.2198389966619372 8.8521005382190197 0 1 0 I I #
straight-curve $-1 -46.527298806726279 -10.423607840836095 0 0 0 -1 I I #
point $-1 -46.527298806726279 -10.423607840836095 -8.8521005382190197 #
point $-1 -46.527298806726279 -10.423607840836095 8.8521005382190197 #
straight-curve $-1 6.3756204098020532 28.127808917274134 54.175200220911428 0 0 -1 I I #
point $-1 6.3756204098020532 28.127808917274134 8.8521005382190197 #
straight-curve $-1 -0.10598009073648029 28.127808917274134 2.3340892341070045 -1 0 0 I I #
point $-1 6.3756204098020532 28.127808917274137 2.3340892341070045 #
point $-1 -0.21196018147296058 20.191790121027399 0.86981369786964591 #
straight-curve $-1 -19.873718375830805 -28.127808917274137 26.88696900589386 0 0 -1 I I #
point $-1 -19.873718375830805 -28.127808917274134 8.8521005382190197 #
straight-curve $-1 -5.3628383303161158 -28.127808917274134 5.8472784088042893 1 0 0 I I #
point $-1 -19.873718375830805 -28.127808917274134 5.8472784088042893 #
point $-1 -16.214501689751373 -25.152389207930646 6.1042976696491111 #
point $-1 -10.725676660632232 -25.152389207930646 6.1042976696491111 #
point $-1 -5.2368516315130904 -25.152389207930646 6.1042976696491111 #
End-of-ACIS-data 