500 0 9 0           
7 Unknown 11 ACIS 5.0 NT 24 Fri Mar 26 00:26:50 1999 
-1 9.9999999999999995e-007 1e-010 
body $-1 $9 $-1 $10 #
body $-1 $11 $-1 $12 #
body $-1 $13 $-1 $14 #
body $-1 $15 $-1 $16 #
body $-1 $17 $-1 $18 #
body $-1 $19 $-1 $20 #
body $-1 $21 $-1 $22 #
body $-1 $23 $-1 $24 #
body $-1 $25 $-1 $26 #
lump $-1 $-1 $27 $0 #
transform $-1 1 0 0 0 1 0 0 0 1 68.595843379009366 36.435536230790319 12.570799299377654 1 rotate no_reflect no_shear #
lump $-1 $-1 $28 $1 #
transform $-1 1 0 0 0 1 0 0 0 1 68.595843379009366 36.435536230790319 12.570799299377654 1 rotate no_reflect no_shear #
lump $-1 $-1 $29 $2 #
transform $-1 1 0 0 0 1 0 0 0 1 68.595843379009366 36.435536230790319 12.570799299377654 1 rotate no_reflect no_shear #
lump $-1 $-1 $30 $3 #
transform $-1 1 0 0 0 1 0 0 0 1 68.595843379009366 36.435536230790319 12.570799299377654 1 rotate no_reflect no_shear #
lump $-1 $-1 $31 $4 #
transform $-1 1 0 0 0 1 0 0 0 1 68.595843379009366 36.435536230790319 12.570799299377654 1 rotate no_reflect no_shear #
lump $-1 $-1 $32 $5 #
transform $-1 1 0 0 0 1 0 0 0 1 68.595843379009366 36.435536230790319 12.570799299377654 1 rotate no_reflect no_shear #
lump $-1 $-1 $33 $6 #
transform $-1 1 0 0 0 1 0 0 0 1 68.595843379009366 36.435536230790319 12.570799299377654 1 rotate no_reflect no_shear #
lump $-1 $-1 $34 $7 #
transform $-1 1 0 0 0 1 0 0 0 1 68.595843379009366 36.435536230790319 12.570799299377654 1 rotate no_reflect no_shear #
lump $-1 $-1 $35 $8 #
transform $-1 1 0 0 0 1 0 0 0 1 68.595843379009366 36.435536230790319 12.570799299377654 1 rotate no_reflect no_shear #
shell $-1 $-1 $-1 $36 $-1 $9 #
shell $-1 $-1 $-1 $37 $-1 $11 #
shell $-1 $-1 $-1 $38 $-1 $13 #
shell $-1 $-1 $-1 $39 $-1 $15 #
shell $-1 $-1 $-1 $40 $-1 $17 #
shell $-1 $-1 $-1 $41 $-1 $19 #
shell $-1 $-1 $-1 $42 $-1 $21 #
shell $-1 $-1 $-1 $43 $-1 $23 #
shell $-1 $-1 $-1 $44 $-1 $25 #
face $-1 $45 $46 $27 $-1 $47 forward single #
face $-1 $48 $49 $28 $-1 $50 reversed single #
face $-1 $51 $52 $29 $-1 $53 reversed single #
face $-1 $54 $55 $30 $-1 $56 forward single #
face $-1 $57 $58 $31 $-1 $59 forward single #
face $-1 $60 $61 $32 $-1 $62 reversed single #
face $-1 $63 $64 $33 $-1 $65 forward single #
face $-1 $66 $67 $34 $-1 $68 reversed single #
face $-1 $69 $70 $35 $-1 $71 forward single #
face $-1 $72 $73 $27 $-1 $74 reversed single #
loop $-1 $-1 $75 $36 #
plane-surface $-1 0 0 12.570799299377654 0 0 1 1 0 0 forward_v I I I I #
face $-1 $76 $77 $28 $-1 $78 reversed single #
loop $-1 $-1 $79 $37 #
plane-surface $-1 -65.213539907129018 -20.004131560716253 0 0 -1 0 0 0 -1 forward_v I I I I #
face $-1 $80 $81 $29 $-1 $82 reversed single #
loop $-1 $-1 $83 $38 #
plane-surface $-1 -154.93337041045424 13.897986611233691 113.12331561765167 0 1 0 -0.62932039886446345 0 0.77714595512881146 forward_v I I I I #
face $-1 $84 $85 $30 $-1 $86 forward single #
loop $-1 $87 $88 $39 #
cone-surface $-1 -64.445678668406316 17.891028473622477 9.0378647588298993 0.62932039886446345 0 -0.77714595512881146 0.77714595512881146 0 0.62932039886446345 1 I I 0 1 1 forward I I I I #
face $-1 $89 $90 $31 $-1 $91 forward single #
loop $-1 $92 $93 $40 #
cone-surface $-1 -64.445678668406316 23.880591267205659 9.0378647588298993 0.62932039886446345 0 -0.77714595512881146 0.77714595512881146 0 0.62932039886446345 1 I I 0 1 1 forward I I I I #
face $-1 $94 $95 $32 $-1 $96 reversed single #
loop $-1 $-1 $97 $41 #
plane-surface $-1 112.24047726397878 -7.3439129782076051 190.907717439751 0 -1 0 -0.84804810408105047 0 -0.52991925155115449 forward_v I I I I #
face $-1 $98 $99 $33 $-1 $100 forward single #
loop $-1 $101 $102 $42 #
cone-surface $-1 64.133261268121359 -11.882636500805006 6.5185725719301608 -0.84804810408105047 0 -0.52991925155115449 0.52991925155115449 0 -0.84804810408105047 1 I I 0 1 1 forward I I I I #
face $-1 $103 $104 $34 $-1 $105 reversed single #
loop $-1 $-1 $106 $43 #
plane-surface $-1 112.24047726397878 20.875920917545677 190.907717439751 0 -1 0 -0.84804810408105047 0 -0.52991925155115449 forward_v I I I I #
face $-1 $107 $108 $35 $-1 $109 forward single #
loop $-1 $110 $111 $44 #
cone-surface $-1 64.133261268121359 16.337197394948276 6.5185725719301608 -0.84804810408105047 0 -0.52991925155115449 0.52991925155115449 0 -0.84804810408105047 1 I I 0 1 1 forward I I I I #
face $-1 $112 $113 $27 $-1 $114 reversed single #
loop $-1 $-1 $115 $45 #
plane-surface $-1 0 0 -12.570799299377654 0 0 1 1 0 0 forward_v I I I I #
coedge $-1 $116 $117 $118 $119 forward $46 $-1 #
face $-1 $120 $121 $28 $-1 $122 forward single #
loop $-1 $-1 $123 $48 #
plane-surface $-1 -61.831236435248677 -28.219833895753286 0 -1 0 0 0 0 1 forward_v I I I I #
coedge $-1 $124 $125 $126 $127 forward $49 $-1 #
face $-1 $128 $129 $29 $-1 $130 reversed single #
loop $-1 $-1 $131 $51 #
plane-surface $-1 -68.595843379009366 20.885809870414072 6.5053511763584879 -0.62932039886446345 0 0.77714595512881146 0.77714595512881146 0 0.62932039886446345 forward_v I I I I #
coedge $-1 $132 $133 $134 $135 reversed $52 $-1 #
face $-1 $-1 $136 $30 $-1 $137 forward single #
loop $-1 $138 $139 $54 #
cone-surface $-1 -63.725956001483894 17.891028473622477 8.1490813022273088 0.62932039886446345 0 -0.77714595512881146 0.38857297756440573 0 0.31466019943223172 1 I I -0.70710678118654746 0.70710678118654746 0.5 forward I I I I #
loop $-1 $-1 $140 $39 #
coedge $-1 $88 $88 $141 $142 reversed $55 $-1 #
face $-1 $-1 $143 $31 $-1 $144 forward single #
loop $-1 $145 $146 $57 #
cone-surface $-1 -63.725956001483894 23.880591267205659 8.1490813022273088 0.62932039886446345 0 -0.77714595512881146 0.38857297756440573 0 0.31466019943223172 1 I I -0.70710678118654746 0.70710678118654746 0.5 forward I I I I #
loop $-1 $-1 $147 $40 #
coedge $-1 $93 $93 $148 $149 reversed $58 $-1 #
face $-1 $150 $151 $32 $-1 $152 reversed single #
loop $-1 $-1 $153 $60 #
plane-surface $-1 -4.1046725868403655 -11.882636500805006 118.20720147390128 0.84804810408105047 0 0.52991925155115449 0.52991925155115449 0 -0.84804810408105047 forward_v I I I I #
coedge $-1 $154 $155 $156 $157 reversed $61 $-1 #
face $-1 $-1 $158 $33 $-1 $159 forward single #
loop $-1 $160 $161 $63 #
cone-surface $-1 62.592439103980198 -11.882636500805006 5.5557600568548651 -0.84804810408105047 0 -0.52991925155115449 0.26495962577557725 0 -0.42402405204052523 1 I I -0.70710678118654746 0.70710678118654746 0.5 forward I I I I #
loop $-1 $-1 $162 $42 #
coedge $-1 $102 $102 $163 $164 reversed $64 $-1 #
face $-1 $165 $166 $34 $-1 $167 reversed single #
loop $-1 $-1 $168 $66 #
plane-surface $-1 -4.1046725868403655 16.337197394948276 118.20720147390128 0.84804810408105047 0 0.52991925155115449 0.52991925155115449 0 -0.84804810408105047 forward_v I I I I #
coedge $-1 $169 $170 $171 $172 reversed $67 $-1 #
face $-1 $-1 $173 $35 $-1 $174 forward single #
loop $-1 $175 $176 $69 #
cone-surface $-1 62.592439103980198 16.337197394948276 5.5557600568548651 -0.84804810408105047 0 -0.52991925155115449 0.26495962577557725 0 -0.42402405204052523 1 I I -0.70710678118654746 0.70710678118654746 0.5 forward I I I I #
loop $-1 $-1 $177 $44 #
coedge $-1 $111 $111 $178 $179 reversed $70 $-1 #
face $-1 $180 $181 $27 $-1 $182 reversed single #
loop $-1 $-1 $183 $72 #
plane-surface $-1 0 -36.435536230790319 0 0 1 0 0 0 1 forward_v I I I I #
coedge $-1 $184 $185 $186 $187 forward $73 $-1 #
coedge $-1 $188 $75 $189 $190 forward $46 $-1 #
coedge $-1 $75 $188 $191 $192 forward $46 $-1 #
coedge $-1 $193 $194 $75 $119 reversed $195 $-1 #
edge $-1 $196 -36.435536230790319 $197 36.435536230790319 $118 $198 forward 7 unknown #
face $-1 $199 $200 $28 $-1 $201 reversed single #
loop $-1 $-1 $202 $76 #
plane-surface $-1 0 0 12.570799299377654 0 0 1 1 0 0 forward_v I I I I #
coedge $-1 $203 $204 $205 $206 reversed $77 $-1 #
coedge $-1 $207 $79 $208 $209 reversed $49 $-1 #
coedge $-1 $79 $207 $210 $211 reversed $49 $-1 #
coedge $-1 $204 $203 $79 $127 reversed $77 $-1 #
edge $-1 $212 -12.570799299377654 $213 12.570799299377654 $126 $214 forward 7 unknown #
face $-1 $215 $216 $29 $-1 $217 reversed single #
loop $-1 $-1 $218 $80 #
plane-surface $-1 -154.93337041045424 27.873633129594452 113.12331561765167 0 -1 0 0.62932039886446345 0 -0.77714595512881146 forward_v I I I I #
coedge $-1 $219 $220 $221 $222 reversed $81 $-1 #
coedge $-1 $133 $83 $223 $224 reversed $52 $-1 #
coedge $-1 $83 $132 $219 $225 reversed $52 $-1 #
coedge $-1 $221 $226 $83 $135 forward $227 $-1 #
edge $-1 $228 8.870841826217756 $229 16.361046312443513 $134 $230 forward 7 unknown #
loop $-1 $-1 $141 $84 #
plane-surface $-1 -68.595843379009366 20.885809870414072 6.5053511763584879 -0.62932039886446345 0 0.77714595512881146 0.77714595512881146 0 0.62932039886446345 forward_v I I I I #
loop $-1 $-1 $231 $54 #
coedge $-1 $139 $139 $140 $232 reversed $85 $-1 #
coedge $-1 $140 $140 $139 $232 forward $87 $-1 #
coedge $-1 $141 $141 $88 $142 forward $136 $-1 #
edge $-1 $233 0 $233 6.2831853071796004 $141 $234 forward 7 unknown #
loop $-1 $-1 $148 $89 #
plane-surface $-1 -68.595843379009366 20.885809870414072 6.5053511763584879 -0.62932039886446345 0 0.77714595512881146 0.77714595512881146 0 0.62932039886446345 forward_v I I I I #
loop $-1 $-1 $235 $57 #
coedge $-1 $146 $146 $147 $236 reversed $90 $-1 #
coedge $-1 $147 $147 $146 $236 forward $92 $-1 #
coedge $-1 $148 $148 $93 $149 forward $143 $-1 #
edge $-1 $237 0 $237 6.2831853071796004 $148 $238 forward 7 unknown #
face $-1 $239 $240 $32 $-1 $241 forward single #
loop $-1 $-1 $242 $94 #
plane-surface $-1 112.24047726397878 -16.421360023402407 190.907717439751 0 1 0 0.84804810408105047 0 0.52991925155115449 forward_v I I I I #
coedge $-1 $243 $244 $245 $246 reversed $95 $-1 #
coedge $-1 $155 $97 $247 $248 reversed $61 $-1 #
coedge $-1 $97 $154 $243 $249 reversed $61 $-1 #
coedge $-1 $245 $250 $97 $157 forward $240 $-1 #
edge $-1 $251 -12.475604747019979 $252 -5.7840367494452281 $156 $253 forward 7 unknown #
loop $-1 $-1 $163 $98 #
plane-surface $-1 -4.1046725868403655 -11.882636500805006 118.20720147390128 0.84804810408105047 0 0.52991925155115449 0.52991925155115449 0 -0.84804810408105047 forward_v I I I I #
loop $-1 $-1 $254 $63 #
coedge $-1 $161 $161 $162 $255 reversed $99 $-1 #
coedge $-1 $162 $162 $161 $255 forward $101 $-1 #
coedge $-1 $163 $163 $102 $164 forward $158 $-1 #
edge $-1 $256 0 $256 6.2831853071796004 $163 $257 forward 7 unknown #
face $-1 $258 $259 $34 $-1 $260 reversed single #
loop $-1 $-1 $261 $103 #
plane-surface $-1 112.24047726397878 11.798473872350876 190.907717439751 0 1 0 0.84804810408105047 0 0.52991925155115449 forward_v I I I I #
coedge $-1 $262 $263 $264 $265 reversed $104 $-1 #
coedge $-1 $170 $106 $266 $267 reversed $67 $-1 #
coedge $-1 $106 $169 $262 $268 reversed $67 $-1 #
coedge $-1 $264 $269 $106 $172 forward $270 $-1 #
edge $-1 $271 -12.475604747019979 $272 -5.7840367494452281 $171 $273 forward 7 unknown #
loop $-1 $-1 $178 $107 #
plane-surface $-1 -4.1046725868403655 16.337197394948276 118.20720147390128 0.84804810408105047 0 0.52991925155115449 0.52991925155115449 0 -0.84804810408105047 forward_v I I I I #
loop $-1 $-1 $274 $69 #
coedge $-1 $176 $176 $177 $275 reversed $108 $-1 #
coedge $-1 $177 $177 $176 $275 forward $110 $-1 #
coedge $-1 $178 $178 $111 $179 forward $173 $-1 #
edge $-1 $276 0 $276 6.2831853071796004 $178 $277 forward 7 unknown #
face $-1 $278 $279 $27 $-1 $280 reversed single #
loop $-1 $-1 $281 $112 #
plane-surface $-1 -68.595843379009366 0 0 1 0 0 0 0 -1 forward_v I I I I #
coedge $-1 $282 $191 $283 $284 forward $113 $-1 #
coedge $-1 $285 $115 $282 $286 forward $73 $-1 #
coedge $-1 $115 $285 $287 $288 forward $73 $-1 #
coedge $-1 $194 $193 $115 $187 reversed $195 $-1 #
edge $-1 $289 -36.435536230790319 $290 36.435536230790319 $186 $291 forward 7 unknown #
coedge $-1 $117 $116 $292 $293 forward $46 $-1 #
coedge $-1 $294 $295 $116 $190 reversed $279 $-1 #
edge $-1 $197 -68.595843379009366 $296 68.595843379009366 $189 $297 forward 7 unknown #
coedge $-1 $183 $298 $117 $192 reversed $113 $-1 #
edge $-1 $299 -68.595843379009366 $196 68.595843379009366 $191 $300 forward 7 unknown #
coedge $-1 $186 $118 $298 $301 forward $195 $-1 #
coedge $-1 $118 $186 $294 $302 reversed $195 $-1 #
loop $-1 $-1 $193 $278 #
vertex $-1 $119 $303 #
vertex $-1 $119 $304 #
straight-curve $-1 68.595843379009366 0 12.570799299377654 0 1 0 I I #
face $-1 $305 $306 $28 $-1 $307 reversed single #
loop $-1 $-1 $308 $120 #
plane-surface $-1 -68.595843379009366 0 0 1 0 0 0 0 -1 forward_v I I I I #
coedge $-1 $210 $309 $204 $310 forward $121 $-1 #
coedge $-1 $126 $123 $311 $312 reversed $77 $-1 #
coedge $-1 $123 $126 $202 $310 reversed $77 $-1 #
coedge $-1 $313 $314 $123 $206 forward $315 $-1 #
edge $-1 $316 -12.570799299377654 $317 12.570799299377654 $205 $318 forward 7 unknown #
coedge $-1 $125 $124 $308 $319 reversed $49 $-1 #
coedge $-1 $311 $320 $124 $209 forward $306 $-1 #
edge $-1 $321 -35.989073425444857 $213 -29.224466481684168 $208 $322 forward 7 unknown #
coedge $-1 $323 $202 $125 $211 forward $121 $-1 #
edge $-1 $212 29.224466481684168 $324 35.989073425444857 $210 $325 forward 7 unknown #
vertex $-1 $211 $326 #
vertex $-1 $209 $327 #
straight-curve $-1 -61.831236435248677 -20.004131560716253 0 0 0 -1 I I #
face $-1 $-1 $227 $29 $-1 $328 forward single #
loop $-1 $-1 $329 $128 #
plane-surface $-1 -68.595843379009366 0 0 1 0 0 0 0 -1 forward_v I I I I #
coedge $-1 $330 $331 $332 $333 reversed $129 $-1 #
coedge $-1 $334 $131 $133 $225 forward $81 $-1 #
coedge $-1 $131 $334 $330 $335 forward $81 $-1 #
coedge $-1 $332 $134 $131 $222 forward $227 $-1 #
edge $-1 $229 3.4550816760266549 $336 17.430728194387417 $221 $337 forward 7 unknown #
coedge $-1 $338 $339 $132 $224 forward $216 $-1 #
edge $-1 $340 -50.056306632467347 $228 -43.990858509448181 $223 $341 forward 7 unknown #
edge $-1 $229 -9.638092351628158 $340 0 $133 $342 forward 7 unknown #
coedge $-1 $134 $332 $338 $343 forward $227 $-1 #
loop $-1 $-1 $332 $215 #
vertex $-1 $224 $344 #
vertex $-1 $135 $345 #
straight-curve $-1 -77.466685205227122 13.897986611233691 12.570799299377654 1 0 0 I I #
coedge $-1 $231 $231 $-1 $346 reversed $138 $-1 #
edge $-1 $347 0 $347 6.2831853071796004 $139 $348 forward 7 unknown #
vertex $-1 $142 $349 #
ellipse-curve $-1 -64.850741135896484 17.891028473622477 9.5380752378680693 -0.62932039886446345 0 0.77714595512881146 0.77714595512881146 0 0.62932039886446345 1 I I #
coedge $-1 $235 $235 $-1 $350 reversed $145 $-1 #
edge $-1 $351 0 $351 6.2831853071796004 $146 $352 forward 7 unknown #
vertex $-1 $149 $353 #
ellipse-curve $-1 -64.850741135896484 23.880591267205659 9.5380752378680693 -0.62932039886446345 0 0.77714595512881146 0.77714595512881146 0 0.62932039886446345 1 I I #
face $-1 $-1 $354 $32 $-1 $355 reversed single #
loop $-1 $-1 $156 $150 #
plane-surface $-1 0 0 12.570799299377654 0 0 1 1 0 0 forward_v I I I I #
coedge $-1 $356 $357 $358 $359 reversed $151 $-1 #
coedge $-1 $360 $153 $155 $249 forward $95 $-1 #
coedge $-1 $153 $360 $356 $361 forward $95 $-1 #
coedge $-1 $358 $156 $153 $246 forward $240 $-1 #
edge $-1 $252 1.4025947278051021 $362 10.480041772999904 $245 $363 forward 7 unknown #
coedge $-1 $364 $365 $154 $248 forward $354 $-1 #
edge $-1 $366 -93.591807096793389 $251 -82.883059420497844 $247 $367 forward 7 unknown #
edge $-1 $252 124.5641628890755 $366 137.19168675801876 $155 $368 forward 7 unknown #
coedge $-1 $156 $358 $364 $369 forward $240 $-1 #
vertex $-1 $157 $370 #
vertex $-1 $157 $371 #
straight-curve $-1 56.120238631989388 -7.3439129782076051 12.570799299377654 -1 0 0 I I #
coedge $-1 $254 $254 $-1 $372 reversed $160 $-1 #
edge $-1 $373 0 $373 6.2831853071796004 $161 $374 forward 7 unknown #
vertex $-1 $164 $375 #
ellipse-curve $-1 65.250059380221998 -11.882636500805006 7.2164254612298819 0.84804810408105047 0 0.52991925155115449 0.52991925155115449 0 -0.84804810408105047 1 I I #
face $-1 $-1 $270 $34 $-1 $376 forward single #
loop $-1 $-1 $377 $165 #
plane-surface $-1 68.595843379009366 0 0 -1 0 0 0 0 1 forward_v I I I I #
coedge $-1 $378 $379 $380 $381 reversed $166 $-1 #
coedge $-1 $382 $168 $170 $268 forward $104 $-1 #
coedge $-1 $168 $382 $378 $383 forward $104 $-1 #
coedge $-1 $380 $171 $168 $265 forward $270 $-1 #
edge $-1 $272 -12.707322220071539 $384 -3.6298751748767373 $264 $385 forward 7 unknown #
coedge $-1 $386 $387 $169 $267 forward $259 $-1 #
edge $-1 $388 -93.591807096793389 $271 -82.883059420497844 $266 $389 forward 7 unknown #
edge $-1 $272 124.5641628890755 $388 137.19168675801876 $170 $390 forward 7 unknown #
coedge $-1 $171 $380 $386 $391 forward $270 $-1 #
loop $-1 $-1 $380 $258 #
vertex $-1 $267 $392 #
vertex $-1 $172 $393 #
straight-curve $-1 56.120238631989388 20.875920917545677 12.570799299377654 -1 0 0 I I #
coedge $-1 $274 $274 $-1 $394 reversed $175 $-1 #
edge $-1 $395 0 $395 6.2831853071796004 $176 $396 forward 7 unknown #
vertex $-1 $179 $397 #
ellipse-curve $-1 65.250059380221998 16.337197394948276 7.2164254612298819 0.84804810408105047 0 0.52991925155115449 0.52991925155115449 0 -0.84804810408105047 1 I I #
face $-1 $-1 $195 $27 $-1 $398 reversed single #
loop $-1 $-1 $294 $180 #
plane-surface $-1 0 36.435536230790319 0 0 -1 0 0 0 -1 forward_v I I I I #
coedge $-1 $399 $292 $295 $400 forward $181 $-1 #
coedge $-1 $298 $183 $184 $286 reversed $113 $-1 #
coedge $-1 $292 $399 $183 $284 reversed $181 $-1 #
edge $-1 $299 -12.570799299377654 $401 12.570799299377654 $283 $402 forward 7 unknown #
coedge $-1 $185 $184 $399 $403 forward $73 $-1 #
edge $-1 $290 -68.595843379009366 $401 68.595843379009366 $282 $404 forward 7 unknown #
coedge $-1 $295 $294 $185 $288 reversed $279 $-1 #
edge $-1 $405 -68.595843379009366 $289 68.595843379009366 $287 $406 forward 7 unknown #
vertex $-1 $187 $407 #
vertex $-1 $301 $408 #
straight-curve $-1 68.595843379009366 0 -12.570799299377654 0 -1 0 I I #
coedge $-1 $281 $283 $188 $293 reversed $181 $-1 #
edge $-1 $296 -36.435536230790319 $299 36.435536230790319 $292 $409 forward 7 unknown #
coedge $-1 $287 $189 $194 $302 forward $279 $-1 #
coedge $-1 $189 $287 $281 $400 reversed $279 $-1 #
vertex $-1 $190 $410 #
straight-curve $-1 0 36.435536230790319 12.570799299377654 -1 0 0 I I #
coedge $-1 $191 $282 $193 $301 reversed $113 $-1 #
vertex $-1 $293 $411 #
straight-curve $-1 0 -36.435536230790319 12.570799299377654 1 0 0 I I #
edge $-1 $196 -12.570799299377654 $290 12.570799299377654 $193 $412 forward 7 unknown #
edge $-1 $197 -12.570799299377654 $289 12.570799299377654 $194 $413 forward 7 unknown #
point $-1 68.595843379009366 -36.435536230790319 12.570799299377654 #
point $-1 68.595843379009366 36.435536230790319 12.570799299377654 #
face $-1 $-1 $315 $28 $-1 $414 reversed single #
loop $-1 $-1 $311 $199 #
plane-surface $-1 0 0 -12.570799299377654 0 0 1 1 0 0 forward_v I I I I #
coedge $-1 $415 $416 $207 $319 forward $200 $-1 #
coedge $-1 $202 $323 $313 $417 forward $121 $-1 #
edge $-1 $317 -22.325619282913678 $212 -5.89421461283961 $202 $418 forward 7 unknown #
coedge $-1 $419 $208 $203 $312 forward $306 $-1 #
edge $-1 $213 5.89421461283961 $316 22.325619282913678 $311 $420 forward 7 unknown #
coedge $-1 $421 $205 $309 $417 reversed $315 $-1 #
coedge $-1 $205 $421 $419 $422 reversed $315 $-1 #
loop $-1 $-1 $205 $305 #
vertex $-1 $422 $423 #
vertex $-1 $206 $424 #
straight-curve $-1 -61.831236435248677 -36.435536230790319 0 0 0 1 I I #
edge $-1 $324 -12.570799299377654 $321 12.570799299377654 $308 $425 forward 7 unknown #
coedge $-1 $208 $419 $415 $426 forward $306 $-1 #
vertex $-1 $209 $427 #
straight-curve $-1 -32.606769953564509 -20.004131560716253 -12.570799299377654 1 0 0 I I #
coedge $-1 $309 $210 $416 $428 forward $121 $-1 #
vertex $-1 $428 $429 #
straight-curve $-1 -32.606769953564509 -20.004131560716253 12.570799299377654 -1 0 0 I I #
point $-1 -61.831236435248677 -20.004131560716253 12.570799299377654 #
point $-1 -61.831236435248677 -20.004131560716253 -12.570799299377654 #
plane-surface $-1 0 0 12.570799299377654 0 0 1 1 0 0 forward_v I I I I #
coedge $-1 $339 $338 $331 $430 forward $216 $-1 #
coedge $-1 $331 $218 $220 $335 reversed $129 $-1 #
coedge $-1 $218 $330 $329 $430 reversed $129 $-1 #
coedge $-1 $226 $221 $218 $333 forward $227 $-1 #
edge $-1 $336 -16.361046312443513 $431 -8.870841826217756 $332 $432 forward 7 unknown #
coedge $-1 $220 $219 $339 $433 reversed $81 $-1 #
edge $-1 $434 0 $336 9.638092351628158 $330 $435 forward 7 unknown #
vertex $-1 $222 $436 #
straight-curve $-1 -61.10563889278361 10.442904935207036 12.570799299377653 0 1 0 I I #
coedge $-1 $329 $223 $226 $343 reversed $216 $-1 #
coedge $-1 $223 $329 $334 $433 forward $216 $-1 #
vertex $-1 $224 $437 #
straight-curve $-1 -68.595843379009366 13.897986611233691 56.561657808825835 0 0 1 I I #
straight-curve $-1 -68.595843379009366 13.897986611233691 6.5053511763584879 -0.77714595512881146 0 -0.62932039886446345 I I #
edge $-1 $431 -27.873633129594452 $228 -13.897986611233691 $338 $438 forward 7 unknown #
point $-1 -68.595843379009366 13.897986611233691 12.570799299377654 #
point $-1 -61.10563889278361 13.897986611233691 12.570799299377654 #
edge $-1 $439 1 $439 0 $231 $-1 forward 7 unknown #
vertex $-1 $232 $440 #
ellipse-curve $-1 -64.040616200916119 17.891028473622477 8.537654279791715 -0.62932039886446345 0 0.77714595512881146 0.77714595512881146 0 0.62932039886446345 1 I I #
point $-1 -64.073595180767683 17.891028473622477 10.167395636732547 #
edge $-1 $441 1 $441 0 $235 $-1 forward 7 unknown #
vertex $-1 $236 $442 #
ellipse-curve $-1 -64.040616200916119 23.880591267205659 8.537654279791715 -0.62932039886446345 0 0.77714595512881146 0.77714595512881146 0 0.62932039886446345 1 I I #
point $-1 -64.073595180767683 23.880591267205659 10.167395636732547 #
loop $-1 $-1 $247 $239 #
plane-surface $-1 68.595843379009366 0 0 -1 0 0 0 0 1 forward_v I I I I #
coedge $-1 $357 $242 $244 $361 reversed $151 $-1 #
coedge $-1 $242 $356 $443 $444 reversed $151 $-1 #
coedge $-1 $250 $245 $242 $359 forward $240 $-1 #
edge $-1 $362 5.7840367494452281 $445 12.475604747019979 $358 $446 forward 7 unknown #
coedge $-1 $244 $243 $365 $447 reversed $95 $-1 #
edge $-1 $448 -137.19168675801876 $362 -124.5641628890755 $356 $449 forward 7 unknown #
vertex $-1 $246 $450 #
straight-curve $-1 61.904275381434601 -5.9413182504025031 12.570799299377654 0 -1 0 I I #
coedge $-1 $443 $247 $250 $369 reversed $354 $-1 #
coedge $-1 $247 $443 $360 $447 forward $354 $-1 #
vertex $-1 $248 $451 #
straight-curve $-1 68.595843379009366 -7.3439129782076051 95.453858719875498 0 0 1 I I #
straight-curve $-1 -4.1046725868403655 -7.3439129782076051 118.20720147390128 0.52991925155115449 0 -0.84804810408105047 I I #
edge $-1 $445 -16.421360023402407 $251 -7.3439129782076051 $364 $452 forward 7 unknown #
point $-1 68.595843379009366 -7.3439129782076051 12.570799299377654 #
point $-1 61.904275381434616 -7.3439129782076051 12.570799299377654 #
edge $-1 $453 1 $453 0 $254 $-1 forward 7 unknown #
vertex $-1 $255 $454 #
ellipse-curve $-1 63.01646315602072 -11.882636500805006 5.8207196826304424 0.84804810408105047 0 0.52991925155115449 0.52991925155115449 0 -0.84804810408105047 1 I I #
point $-1 65.779978631773147 -11.882636500805006 6.3683773571488285 #
plane-surface $-1 0 0 12.570799299377654 0 0 1 1 0 0 forward_v I I I I #
coedge $-1 $387 $386 $379 $455 forward $259 $-1 #
coedge $-1 $379 $261 $263 $383 reversed $166 $-1 #
coedge $-1 $261 $378 $377 $455 reversed $166 $-1 #
coedge $-1 $269 $264 $261 $381 forward $270 $-1 #
edge $-1 $384 5.7840367494452281 $456 12.475604747019979 $380 $457 forward 7 unknown #
coedge $-1 $263 $262 $387 $458 reversed $104 $-1 #
edge $-1 $459 -137.19168675801876 $384 -124.5641628890755 $378 $460 forward 7 unknown #
vertex $-1 $265 $461 #
straight-curve $-1 61.904275381434601 8.1685986974741382 12.570799299377654 0 -1 0 I I #
coedge $-1 $377 $266 $269 $391 reversed $259 $-1 #
coedge $-1 $266 $377 $382 $458 forward $259 $-1 #
vertex $-1 $267 $462 #
straight-curve $-1 68.595843379009366 20.875920917545677 95.453858719875498 0 0 1 I I #
straight-curve $-1 -4.1046725868403655 20.875920917545677 118.20720147390128 0.52991925155115449 0 -0.84804810408105047 I I #
edge $-1 $456 11.798473872350876 $271 20.875920917545677 $386 $463 forward 7 unknown #
point $-1 68.595843379009366 20.875920917545677 12.570799299377654 #
point $-1 61.904275381434616 20.875920917545677 12.570799299377654 #
edge $-1 $464 1 $464 0 $274 $-1 forward 7 unknown #
vertex $-1 $275 $465 #
ellipse-curve $-1 63.01646315602072 16.337197394948276 5.8207196826304424 0.84804810408105047 0 0.52991925155115449 0.52991925155115449 0 -0.84804810408105047 1 I I #
point $-1 65.779978631773147 16.337197394948276 6.3683773571488285 #
plane-surface $-1 68.595843379009366 0 0 -1 0 0 0 0 1 forward_v I I I I #
coedge $-1 $283 $281 $285 $403 reversed $181 $-1 #
edge $-1 $296 -12.570799299377654 $405 12.570799299377654 $295 $466 forward 7 unknown #
vertex $-1 $403 $467 #
straight-curve $-1 -68.595843379009366 -36.435536230790319 0 0 0 -1 I I #
edge $-1 $401 -36.435536230790319 $405 36.435536230790319 $399 $468 forward 7 unknown #
straight-curve $-1 0 -36.435536230790319 -12.570799299377654 -1 0 0 I I #
vertex $-1 $288 $469 #
straight-curve $-1 0 36.435536230790319 -12.570799299377654 1 0 0 I I #
point $-1 68.595843379009366 36.435536230790319 -12.570799299377654 #
point $-1 68.595843379009366 -36.435536230790319 -12.570799299377654 #
straight-curve $-1 -68.595843379009366 0 12.570799299377654 0 -1 0 I I #
point $-1 -68.595843379009366 36.435536230790319 12.570799299377654 #
point $-1 -68.595843379009366 -36.435536230790319 12.570799299377654 #
straight-curve $-1 68.595843379009366 -36.435536230790319 0 0 0 -1 I I #
straight-curve $-1 68.595843379009366 36.435536230790319 0 0 0 -1 I I #
plane-surface $-1 0 -36.435536230790319 0 0 1 0 0 0 1 forward_v I I I I #
coedge $-1 $470 $308 $320 $426 reversed $200 $-1 #
coedge $-1 $308 $470 $323 $428 reversed $200 $-1 #
edge $-1 $471 -68.595843379009366 $317 -61.831236435248677 $313 $472 forward 7 unknown #
straight-curve $-1 -61.831236435248677 -14.109916947876643 12.570799299377654 0 1 0 I I #
coedge $-1 $320 $311 $314 $422 forward $306 $-1 #
straight-curve $-1 -61.831236435248677 -14.109916947876643 -12.570799299377654 0 -1 0 I I #
coedge $-1 $314 $313 $470 $473 forward $315 $-1 #
edge $-1 $316 61.831236435248677 $474 68.595843379009366 $314 $475 forward 7 unknown #
point $-1 -61.831236435248677 -36.435536230790319 -12.570799299377654 #
point $-1 -61.831236435248677 -36.435536230790319 12.570799299377654 #
straight-curve $-1 -68.595843379009366 -20.004131560716253 0 0 0 -1 I I #
edge $-1 $474 -36.435536230790319 $321 -20.004131560716253 $415 $476 forward 7 unknown #
point $-1 -68.595843379009366 -20.004131560716253 -12.570799299377654 #
edge $-1 $324 20.004131560716253 $471 36.435536230790319 $416 $477 forward 7 unknown #
point $-1 -68.595843379009366 -20.004131560716253 12.570799299377654 #
edge $-1 $431 43.990858509448181 $434 50.056306632467347 $329 $478 forward 7 unknown #
vertex $-1 $343 $479 #
straight-curve $-1 -77.466685205227122 27.873633129594452 12.570799299377654 -1 0 0 I I #
edge $-1 $434 -17.430728194387417 $340 -3.4550816760266549 $339 $480 forward 7 unknown #
vertex $-1 $433 $481 #
straight-curve $-1 -68.595843379009366 27.873633129594452 6.5053511763584879 0.77714595512881146 0 0.62932039886446345 I I #
point $-1 -61.10563889278361 27.873633129594452 12.570799299377654 #
point $-1 -68.595843379009366 13.897986611233691 6.5053511763584879 #
straight-curve $-1 -68.595843379009366 0 12.570799299377654 0 -1 0 I I #
vertex $-1 $346 $482 #
point $-1 -63.263470245787317 17.891028473622477 9.1669746786561781 #
vertex $-1 $350 $483 #
point $-1 -63.263470245787317 23.880591267205659 9.1669746786561781 #
coedge $-1 $365 $364 $357 $444 forward $354 $-1 #
edge $-1 $445 82.883059420497844 $448 93.591807096793389 $443 $484 forward 7 unknown #
vertex $-1 $369 $485 #
straight-curve $-1 56.120238631989388 -16.421360023402407 12.570799299377654 1 0 0 I I #
edge $-1 $448 -10.480041772999904 $366 -1.4025947278051021 $365 $486 forward 7 unknown #
vertex $-1 $447 $487 #
straight-curve $-1 -4.1046725868403655 -16.421360023402407 118.20720147390128 -0.52991925155115449 0 0.84804810408105047 I I #
point $-1 61.904275381434616 -16.421360023402407 12.570799299377654 #
point $-1 68.595843379009366 -7.3439129782076051 1.8620516230821096 #
straight-curve $-1 68.595843379009366 0 12.570799299377654 0 1 0 I I #
vertex $-1 $372 $488 #
point $-1 63.546382407571876 -11.882636500805006 4.9726715785493916 #
edge $-1 $456 82.883059420497844 $459 93.591807096793389 $377 $489 forward 7 unknown #
vertex $-1 $391 $490 #
straight-curve $-1 56.120238631989388 11.798473872350876 12.570799299377654 1 0 0 I I #
edge $-1 $459 3.6298751748767373 $388 12.707322220071539 $387 $491 forward 7 unknown #
vertex $-1 $458 $492 #
straight-curve $-1 -4.1046725868403655 11.798473872350876 118.20720147390128 -0.52991925155115449 0 0.84804810408105047 I I #
point $-1 61.904275381434616 11.798473872350876 12.570799299377654 #
point $-1 68.595843379009366 20.875920917545677 1.8620516230821096 #
straight-curve $-1 68.595843379009366 0 12.570799299377654 0 1 0 I I #
vertex $-1 $394 $493 #
point $-1 63.546382407571876 16.337197394948276 4.9726715785493916 #
straight-curve $-1 -68.595843379009366 36.435536230790319 0 0 0 -1 I I #
point $-1 -68.595843379009366 -36.435536230790319 -12.570799299377654 #
straight-curve $-1 -68.595843379009366 0 -12.570799299377654 0 1 0 I I #
point $-1 -68.595843379009366 36.435536230790319 -12.570799299377654 #
coedge $-1 $416 $415 $421 $473 reversed $200 $-1 #
vertex $-1 $428 $494 #
straight-curve $-1 0 -36.435536230790319 12.570799299377654 1 0 0 I I #
edge $-1 $471 -12.570799299377654 $474 12.570799299377654 $470 $495 forward 7 unknown #
vertex $-1 $426 $496 #
straight-curve $-1 0 -36.435536230790319 -12.570799299377654 -1 0 0 I I #
straight-curve $-1 -68.595843379009366 0 -12.570799299377654 0 1 0 I I #
straight-curve $-1 -68.595843379009366 0 12.570799299377654 0 -1 0 I I #
straight-curve $-1 -68.595843379009366 27.873633129594452 56.561657808825835 0 0 -1 I I #
point $-1 -68.595843379009366 27.873633129594452 12.570799299377654 #
straight-curve $-1 -68.595843379009366 10.442904935207036 6.5053511763584861 0 -1 0 I I #
point $-1 -68.595843379009366 27.873633129594452 6.5053511763584879 #
point $-1 -63.411295802051661 17.891028473622477 7.7605083246629034 #
point $-1 -63.411295802051661 23.880591267205659 7.7605083246629034 #
straight-curve $-1 68.595843379009366 -16.421360023402407 95.453858719875498 0 0 -1 I I #
point $-1 68.595843379009366 -16.421360023402407 12.570799299377654 #
straight-curve $-1 68.595843379009352 -5.9413182504025031 1.8620516230821238 0 1 0 I I #
point $-1 68.595843379009366 -16.421360023402407 1.8620516230821096 #
point $-1 62.168415051939675 -11.882636500805006 5.2908004310792878 #
straight-curve $-1 68.595843379009366 11.798473872350876 95.453858719875498 0 0 -1 I I #
point $-1 68.595843379009366 11.798473872350876 12.570799299377654 #
straight-curve $-1 68.595843379009352 8.1685986974741382 1.8620516230821238 0 1 0 I I #
point $-1 68.595843379009366 11.798473872350876 1.8620516230821096 #
point $-1 62.168415051939675 16.337197394948276 5.2908004310792878 #
point $-1 -68.595843379009366 -36.435536230790319 12.570799299377654 #
straight-curve $-1 -68.595843379009366 -36.435536230790319 0 0 0 -1 I I #
point $-1 -68.595843379009366 -36.435536230790319 -12.570799299377654 #
End-of-ACIS-data 