500 0 7 0           
7 Unknown 11 ACIS 5.0 NT 24 Thu Mar 25 20:16:37 1999 
-1 9.9999999999999995e-007 1e-010 
body $-1 $7 $-1 $8 #
body $-1 $9 $-1 $10 #
body $-1 $11 $-1 $12 #
body $-1 $13 $-1 $14 #
body $-1 $15 $-1 $16 #
body $-1 $17 $-1 $18 #
body $-1 $19 $-1 $20 #
lump $-1 $-1 $21 $0 #
transform $-1 1 0 0 0 1 0 0 0 1 63.506576738792077 32.42930674051609 8.4899919108506499 1 rotate no_reflect no_shear #
lump $-1 $-1 $22 $1 #
transform $-1 1 0 0 0 1 0 0 0 1 63.506576738792077 32.42930674051609 8.4899919108506499 1 rotate no_reflect no_shear #
lump $-1 $-1 $23 $2 #
transform $-1 1 0 0 0 1 0 0 0 1 63.506576738792077 32.42930674051609 8.4899919108506499 1 rotate no_reflect no_shear #
lump $-1 $-1 $24 $3 #
transform $-1 1 0 0 0 1 0 0 0 1 63.506576738792077 32.42930674051609 8.4899919108506499 1 rotate no_reflect no_shear #
lump $-1 $-1 $25 $4 #
transform $-1 1 0 0 0 1 0 0 0 1 63.506576738792077 32.42930674051609 8.4899919108506499 1 rotate no_reflect no_shear #
lump $-1 $-1 $26 $5 #
transform $-1 1 0 0 0 1 0 0 0 1 63.506576738792077 32.42930674051609 8.4899919108506499 1 rotate no_reflect no_shear #
lump $-1 $-1 $27 $6 #
transform $-1 1 0 0 0 1 0 0 0 1 63.506576738792077 32.42930674051609 8.4899919108506499 1 rotate no_reflect no_shear #
shell $-1 $-1 $-1 $28 $-1 $7 #
shell $-1 $-1 $-1 $29 $-1 $9 #
shell $-1 $-1 $-1 $30 $-1 $11 #
shell $-1 $-1 $-1 $31 $-1 $13 #
shell $-1 $-1 $-1 $32 $-1 $15 #
shell $-1 $-1 $-1 $33 $-1 $17 #
shell $-1 $-1 $-1 $34 $-1 $19 #
face $-1 $35 $36 $21 $-1 $37 forward single #
face $-1 $38 $39 $22 $-1 $40 forward single #
face $-1 $41 $42 $23 $-1 $43 reversed single #
face $-1 $44 $45 $24 $-1 $46 forward single #
face $-1 $47 $48 $25 $-1 $49 forward single #
face $-1 $50 $51 $26 $-1 $52 reversed single #
face $-1 $53 $54 $27 $-1 $55 forward single #
face $-1 $56 $57 $21 $-1 $58 reversed single #
loop $-1 $-1 $59 $28 #
plane-surface $-1 0 0 8.4899919108506499 0 0 1 1 0 0 forward_v I I I I #
face $-1 $60 $61 $22 $-1 $62 reversed single #
loop $-1 $-1 $63 $29 #
plane-surface $-1 -58.735474378295116 0 -3.508757910603336 0 0 1 1 0 0 forward_v I I I I #
face $-1 $64 $65 $23 $-1 $66 reversed single #
loop $-1 $-1 $67 $30 #
plane-surface $-1 41.610238541196146 -115.75743389337808 100.83618061298743 1 0 0 0 0.6560590369687036 -0.75470957328743171 forward_v I I I I #
face $-1 $68 $69 $24 $-1 $70 forward single #
loop $-1 $71 $72 $31 #
cone-surface $-1 47.866335169080699 -29.732181579076357 5.9550788848800531 0 0.6560590369687036 -0.75470957328743171 1 0 0 1 I I 0 1 1 forward I I I I #
face $-1 $73 $74 $25 $-1 $75 forward single #
loop $-1 $76 $77 $32 #
cone-surface $-1 57.250480110907532 -29.732181579076357 5.9550788848800531 0 0.6560590369687036 -0.75470957328743171 1 0 0 1 I I 0 1 1 forward I I I I #
face $-1 $78 $79 $26 $-1 $80 reversed single #
loop $-1 $-1 $81 $33 #
plane-surface $-1 -45.505491961170563 59.51712868107699 141.51822020062986 1 0 0 0 -0.61566148304635926 -0.78801074757464917 forward_v I I I I #
face $-1 $82 $83 $27 $-1 $84 forward single #
loop $-1 $85 $86 $34 #
cone-surface $-1 -37.355445226474245 26.746380514207207 3.4470079522693129 0 -0.61566148304635926 -0.78801074757464917 2.5 0 0 1 I I 0 1 2.5 forward I I I I #
face $-1 $87 $88 $21 $-1 $89 reversed single #
loop $-1 $-1 $90 $35 #
plane-surface $-1 0 0 -8.4899919108506499 0 0 1 1 0 0 forward_v I I I I #
coedge $-1 $91 $92 $93 $94 forward $36 $-1 #
face $-1 $95 $96 $22 $-1 $97 reversed single #
loop $-1 $-1 $98 $38 #
plane-surface $-1 -53.964372017798155 0 -5.9993749107269929 -1 0 0 0 0 1 forward_v I I I I #
coedge $-1 $99 $100 $101 $102 forward $39 $-1 #
face $-1 $103 $104 $23 $-1 $105 forward single #
loop $-1 $-1 $106 $41 #
plane-surface $-1 52.558407639994115 -32.429306740516068 4.9781377500288215 0 -0.6560590369687036 0.75470957328743171 1 0 0 forward_v I I I I #
coedge $-1 $107 $108 $109 $110 reversed $42 $-1 #
face $-1 $-1 $111 $24 $-1 $112 forward single #
loop $-1 $113 $114 $44 #
cone-surface $-1 47.866335169080699 -28.726989894714187 4.7987381526766519 0 0.6560590369687036 -0.75470957328743171 0.5 0 0 1 I I -0.70710678118654746 0.70710678118654746 0.5 forward I I I I #
loop $-1 $-1 $115 $31 #
coedge $-1 $72 $72 $116 $117 reversed $45 $-1 #
face $-1 $-1 $118 $25 $-1 $119 forward single #
loop $-1 $120 $121 $47 #
cone-surface $-1 57.250480110907532 -28.726989894714187 4.7987381526766519 0 0.6560590369687036 -0.75470957328743171 0.5 0 0 1 I I -0.70710678118654746 0.70710678118654746 0.5 forward I I I I #
loop $-1 $-1 $122 $32 #
coedge $-1 $77 $77 $123 $124 reversed $48 $-1 #
face $-1 $125 $126 $26 $-1 $127 reversed single #
loop $-1 $-1 $128 $50 #
plane-surface $-1 -37.355445226474245 -18.679977755327307 41.430490176945128 0 0.61566148304635926 0.78801074757464917 1 0 0 forward_v I I I I #
coedge $-1 $129 $130 $131 $132 reversed $51 $-1 #
face $-1 $-1 $133 $27 $-1 $134 forward single #
loop $-1 $135 $136 $53 #
cone-surface $-1 -37.355445226474245 24.767562549769359 0.91423650820384772 0 -0.61566148304635926 -0.78801074757464917 1.25 0 0 1 I I -0.70710678118654746 0.70710678118654746 1.25 forward I I I I #
loop $-1 $-1 $137 $34 #
coedge $-1 $86 $86 $138 $139 reversed $54 $-1 #
face $-1 $140 $141 $21 $-1 $142 reversed single #
loop $-1 $-1 $143 $56 #
plane-surface $-1 0 -32.42930674051609 0 0 1 0 0 0 1 forward_v I I I I #
coedge $-1 $144 $145 $146 $147 forward $57 $-1 #
coedge $-1 $148 $59 $149 $150 forward $36 $-1 #
coedge $-1 $59 $148 $151 $152 forward $36 $-1 #
coedge $-1 $153 $154 $59 $94 reversed $155 $-1 #
edge $-1 $156 -32.42930674051609 $157 32.42930674051609 $93 $158 forward 7 unknown #
face $-1 $159 $160 $22 $-1 $161 reversed single #
loop $-1 $-1 $162 $60 #
plane-surface $-1 0 0 -8.4899919108506499 0 0 1 1 0 0 forward_v I I I I #
coedge $-1 $163 $101 $164 $165 reversed $61 $-1 #
coedge $-1 $166 $63 $167 $168 reversed $39 $-1 #
coedge $-1 $63 $166 $169 $170 reversed $39 $-1 #
coedge $-1 $98 $171 $63 $102 reversed $61 $-1 #
edge $-1 $172 -32.42930674051609 $173 32.42930674051609 $101 $174 forward 7 unknown #
face $-1 $175 $176 $23 $-1 $177 reversed single #
loop $-1 $-1 $178 $64 #
plane-surface $-1 0 0 8.4899919108506499 0 0 1 1 0 0 forward_v I I I I #
coedge $-1 $179 $180 $181 $182 reversed $65 $-1 #
coedge $-1 $108 $67 $183 $184 reversed $42 $-1 #
coedge $-1 $67 $107 $179 $185 reversed $42 $-1 #
coedge $-1 $181 $186 $67 $110 forward $176 $-1 #
edge $-1 $187 41.928098395643069 $188 45.439952556464917 $109 $189 forward 7 unknown #
loop $-1 $-1 $116 $68 #
plane-surface $-1 52.558407639994115 -32.429306740516068 4.9781377500288215 0 -0.6560590369687036 0.75470957328743171 1 0 0 forward_v I I I I #
loop $-1 $-1 $190 $44 #
coedge $-1 $114 $114 $115 $191 reversed $69 $-1 #
coedge $-1 $115 $115 $114 $191 forward $71 $-1 #
coedge $-1 $116 $116 $72 $117 forward $111 $-1 #
edge $-1 $192 1.1396362796804539e-016 $192 6.2831853071796004 $116 $193 forward 7 unknown #
loop $-1 $-1 $123 $73 #
plane-surface $-1 52.558407639994115 -32.429306740516068 4.9781377500288215 0 -0.6560590369687036 0.75470957328743171 1 0 0 forward_v I I I I #
loop $-1 $-1 $194 $47 #
coedge $-1 $121 $121 $122 $195 reversed $74 $-1 #
coedge $-1 $122 $122 $121 $195 forward $76 $-1 #
coedge $-1 $123 $123 $77 $124 forward $118 $-1 #
edge $-1 $196 1.1396362796804539e-016 $196 6.2831853071796004 $123 $197 forward 7 unknown #
face $-1 $198 $199 $26 $-1 $200 reversed single #
loop $-1 $-1 $201 $78 #
plane-surface $-1 -29.205398491777927 59.51712868107699 141.51822020062986 -1 0 0 0 0.61566148304635926 0.78801074757464917 forward_v I I I I #
coedge $-1 $202 $203 $204 $205 reversed $79 $-1 #
coedge $-1 $130 $81 $206 $207 reversed $51 $-1 #
coedge $-1 $81 $129 $202 $208 reversed $51 $-1 #
coedge $-1 $204 $209 $81 $132 forward $210 $-1 #
edge $-1 $211 -2.6707423999775948 $212 6.2766278313803774 $131 $213 forward 7 unknown #
loop $-1 $-1 $138 $82 #
plane-surface $-1 -37.355445226474245 -18.679977755327307 41.430490176945128 0 0.61566148304635926 0.78801074757464917 1 0 0 forward_v I I I I #
loop $-1 $-1 $214 $53 #
coedge $-1 $136 $136 $137 $215 reversed $83 $-1 #
coedge $-1 $137 $137 $136 $215 forward $85 $-1 #
coedge $-1 $138 $138 $86 $139 forward $133 $-1 #
edge $-1 $216 -3.8506151723507207e-016 $216 6.2831853071796004 $138 $217 forward 7 unknown #
face $-1 $218 $219 $21 $-1 $220 reversed single #
loop $-1 $-1 $221 $87 #
plane-surface $-1 -63.506576738792077 0 0 1 0 0 0 0 -1 forward_v I I I I #
coedge $-1 $222 $151 $223 $224 forward $88 $-1 #
coedge $-1 $225 $90 $222 $226 forward $57 $-1 #
coedge $-1 $90 $225 $227 $228 forward $57 $-1 #
coedge $-1 $154 $153 $90 $147 reversed $155 $-1 #
edge $-1 $229 -32.42930674051609 $230 32.42930674051609 $146 $231 forward 7 unknown #
coedge $-1 $92 $91 $232 $233 forward $36 $-1 #
coedge $-1 $234 $235 $91 $150 reversed $219 $-1 #
edge $-1 $157 -63.506576738792077 $236 63.506576738792077 $149 $237 forward 7 unknown #
coedge $-1 $143 $238 $92 $152 reversed $88 $-1 #
edge $-1 $239 -63.506576738792077 $156 63.506576738792077 $151 $240 forward 7 unknown #
coedge $-1 $146 $93 $238 $241 forward $155 $-1 #
coedge $-1 $93 $146 $234 $242 reversed $155 $-1 #
loop $-1 $-1 $153 $218 #
vertex $-1 $94 $243 #
vertex $-1 $94 $244 #
straight-curve $-1 63.506576738792077 0 8.4899919108506499 0 1 0 I I #
face $-1 $245 $246 $22 $-1 $247 reversed single #
loop $-1 $-1 $164 $95 #
plane-surface $-1 0 -32.42930674051609 0 0 1 0 0 0 1 forward_v I I I I #
coedge $-1 $248 $249 $163 $250 forward $96 $-1 #
coedge $-1 $171 $98 $162 $250 reversed $61 $-1 #
coedge $-1 $169 $251 $98 $165 forward $160 $-1 #
edge $-1 $252 -5.4903044554871538 $172 -0.50907045523983951 $164 $253 forward 7 unknown #
coedge $-1 $100 $99 $254 $255 reversed $39 $-1 #
coedge $-1 $256 $257 $99 $168 forward $258 $-1 #
edge $-1 $259 -34.138839549644516 $173 -24.596634828650597 $167 $260 forward 7 unknown #
coedge $-1 $261 $164 $100 $170 forward $160 $-1 #
edge $-1 $172 24.596634828650597 $262 34.138839549644516 $169 $263 forward 7 unknown #
coedge $-1 $101 $163 $256 $264 reversed $61 $-1 #
vertex $-1 $170 $265 #
vertex $-1 $168 $266 #
straight-curve $-1 -53.964372017798155 0 -3.508757910603336 0 1 0 I I #
face $-1 $-1 $267 $23 $-1 $268 reversed single #
loop $-1 $-1 $181 $103 #
plane-surface $-1 0 -32.42930674051609 0 0 1 0 0 0 1 forward_v I I I I #
coedge $-1 $183 $269 $270 $271 forward $104 $-1 #
coedge $-1 $270 $106 $108 $185 forward $65 $-1 #
coedge $-1 $106 $270 $272 $273 reversed $65 $-1 #
coedge $-1 $274 $109 $106 $182 forward $176 $-1 #
edge $-1 $188 15.331034721199089 $275 37.227372918795027 $181 $276 forward 7 unknown #
coedge $-1 $277 $178 $107 $184 forward $104 $-1 #
edge $-1 $278 -29.489336197296797 $187 -25.449410206172949 $183 $279 forward 7 unknown #
edge $-1 $188 -2.8324249199621518e-014 $278 5.3529544795971713 $108 $280 forward 7 unknown #
coedge $-1 $109 $274 $277 $281 reversed $176 $-1 #
vertex $-1 $281 $282 #
vertex $-1 $110 $283 #
straight-curve $-1 41.610238541196146 -32.42930674051609 50.418090306493717 0 0 -1 I I #
coedge $-1 $190 $190 $-1 $284 reversed $113 $-1 #
edge $-1 $285 0 $285 6.2831853071796004 $114 $286 forward 7 unknown #
vertex $-1 $117 $287 #
ellipse-curve $-1 47.866335169080699 -30.409343744954167 6.7340648304397259 0 -0.6560590369687036 0.75470957328743171 1 0 0 1 I I #
coedge $-1 $194 $194 $-1 $288 reversed $120 $-1 #
edge $-1 $289 0 $289 6.2831853071796004 $121 $290 forward 7 unknown #
vertex $-1 $124 $291 #
ellipse-curve $-1 57.250480110907532 -30.409343744954167 6.7340648304397259 0 -0.6560590369687036 0.75470957328743171 1 0 0 1 I I #
face $-1 $-1 $210 $26 $-1 $292 forward single #
loop $-1 $-1 $293 $125 #
plane-surface $-1 0 32.42930674051609 0 0 -1 0 0 0 -1 forward_v I I I I #
coedge $-1 $294 $295 $296 $297 reversed $126 $-1 #
coedge $-1 $298 $128 $130 $208 forward $79 $-1 #
coedge $-1 $128 $298 $294 $299 forward $79 $-1 #
coedge $-1 $296 $131 $128 $205 forward $210 $-1 #
edge $-1 $212 -26.82776934793344 $300 -10.527675878540805 $204 $301 forward 7 unknown #
coedge $-1 $302 $303 $129 $207 forward $199 $-1 #
edge $-1 $304 -69.259570087432678 $211 -62.26911818946428 $206 $305 forward 7 unknown #
edge $-1 $212 53.504237593525175 $304 64.858613481032194 $130 $306 forward 7 unknown #
coedge $-1 $131 $296 $302 $307 forward $210 $-1 #
loop $-1 $-1 $296 $198 #
vertex $-1 $207 $308 #
vertex $-1 $132 $309 #
straight-curve $-1 -45.505491961170563 29.758564340538495 8.4899919108506481 0 -1 0 I I #
coedge $-1 $214 $214 $-1 $310 reversed $135 $-1 #
edge $-1 $311 0 $311 6.2831853071796004 $136 $312 forward 7 unknown #
vertex $-1 $139 $313 #
ellipse-curve $-1 -37.355445226474245 27.955621624837097 4.9947659618664568 0 0.61566148304635926 0.78801074757464917 2.5 0 0 1 I I #
face $-1 $-1 $155 $21 $-1 $314 reversed single #
loop $-1 $-1 $234 $140 #
plane-surface $-1 0 32.42930674051609 0 0 -1 0 0 0 -1 forward_v I I I I #
coedge $-1 $315 $232 $235 $316 forward $141 $-1 #
coedge $-1 $238 $143 $144 $226 reversed $88 $-1 #
coedge $-1 $232 $315 $143 $224 reversed $141 $-1 #
edge $-1 $239 -8.4899919108506499 $317 8.4899919108506499 $223 $318 forward 7 unknown #
coedge $-1 $145 $144 $315 $319 forward $57 $-1 #
edge $-1 $230 -63.506576738792077 $317 63.506576738792077 $222 $320 forward 7 unknown #
coedge $-1 $235 $234 $145 $228 reversed $219 $-1 #
edge $-1 $321 -63.506576738792077 $229 63.506576738792077 $227 $322 forward 7 unknown #
vertex $-1 $147 $323 #
vertex $-1 $241 $324 #
straight-curve $-1 63.506576738792077 0 -8.4899919108506499 0 -1 0 I I #
coedge $-1 $221 $223 $148 $233 reversed $141 $-1 #
edge $-1 $236 -32.42930674051609 $239 32.42930674051609 $232 $325 forward 7 unknown #
coedge $-1 $227 $149 $154 $242 forward $219 $-1 #
coedge $-1 $149 $227 $221 $316 reversed $219 $-1 #
vertex $-1 $150 $326 #
straight-curve $-1 0 32.42930674051609 8.4899919108506499 -1 0 0 I I #
coedge $-1 $151 $222 $153 $241 reversed $88 $-1 #
vertex $-1 $233 $327 #
straight-curve $-1 0 -32.42930674051609 8.4899919108506499 1 0 0 I I #
edge $-1 $156 -8.4899919108506499 $230 8.4899919108506499 $153 $328 forward 7 unknown #
edge $-1 $157 -8.4899919108506499 $229 8.4899919108506499 $154 $329 forward 7 unknown #
point $-1 63.506576738792077 -32.42930674051609 8.4899919108506499 #
point $-1 63.506576738792077 32.42930674051609 8.4899919108506499 #
face $-1 $-1 $258 $22 $-1 $330 reversed single #
loop $-1 $-1 $254 $159 #
plane-surface $-1 -63.506576738792077 0 0 1 0 0 0 0 -1 forward_v I I I I #
coedge $-1 $331 $162 $251 $332 forward $96 $-1 #
coedge $-1 $162 $331 $333 $334 forward $96 $-1 #
edge $-1 $335 -32.42930674051609 $252 32.42930674051609 $162 $336 forward 7 unknown #
coedge $-1 $164 $261 $248 $332 reversed $160 $-1 #
vertex $-1 $332 $337 #
straight-curve $-1 -53.964372017798155 -32.42930674051609 -2.9996874553634965 0 0 1 I I #
coedge $-1 $338 $339 $166 $255 forward $246 $-1 #
edge $-1 $262 -32.42930674051609 $259 32.42930674051609 $254 $340 forward 7 unknown #
coedge $-1 $333 $167 $171 $264 forward $258 $-1 #
coedge $-1 $167 $333 $338 $341 reversed $258 $-1 #
loop $-1 $-1 $256 $245 #
vertex $-1 $341 $342 #
straight-curve $-1 -29.367737189147558 32.42930674051609 -3.508757910603336 1 0 0 I I #
coedge $-1 $251 $169 $339 $343 forward $160 $-1 #
vertex $-1 $343 $344 #
straight-curve $-1 -29.367737189147558 -32.42930674051609 -3.508757910603336 -1 0 0 I I #
edge $-1 $173 0.50907045523983951 $335 5.4903044554871538 $256 $345 forward 7 unknown #
point $-1 -53.964372017798155 -32.42930674051609 -3.508757910603336 #
point $-1 -53.964372017798155 32.42930674051609 -3.508757910603336 #
loop $-1 $-1 $272 $175 #
plane-surface $-1 63.506576738792077 0 0 -1 0 0 0 0 1 forward_v I I I I #
coedge $-1 $178 $277 $346 $347 forward $104 $-1 #
coedge $-1 $180 $179 $178 $271 reversed $65 $-1 #
edge $-1 $348 -37.227372918795027 $278 -15.331034721199089 $178 $349 forward 7 unknown #
coedge $-1 $346 $350 $180 $273 forward $267 $-1 #
edge $-1 $275 -10.604377996980357 $348 -5.2514235173831576 $272 $351 forward 7 unknown #
coedge $-1 $186 $181 $350 $352 reversed $176 $-1 #
vertex $-1 $182 $353 #
straight-curve $-1 26.279203819997058 -32.42930674051609 4.9781377500288064 1 0 0 I I #
coedge $-1 $269 $183 $186 $281 forward $104 $-1 #
vertex $-1 $184 $354 #
straight-curve $-1 41.610238541196146 -57.878716946689039 8.4899919108506481 0 -1 0 I I #
straight-curve $-1 41.610238541196146 -32.429306740516068 4.9781377500288215 0 0.75470957328743171 0.6560590369687036 I I #
edge $-1 $187 41.610238541196146 $355 63.506576738792077 $186 $356 forward 7 unknown #
point $-1 41.610238541196146 -32.42930674051609 8.4899919108506499 #
point $-1 41.610238541196146 -32.42930674051609 4.9781377500288029 #
edge $-1 $357 1 $357 0 $190 $-1 forward 7 unknown #
vertex $-1 $191 $358 #
ellipse-curve $-1 47.866335169080699 -29.05501941319854 5.1760929393203678 0 -0.6560590369687036 0.75470957328743171 1 0 0 1 I I #
point $-1 48.866335169080699 -30.409343744954178 6.7340648304397384 #
edge $-1 $359 1 $359 0 $194 $-1 forward 7 unknown #
vertex $-1 $195 $360 #
ellipse-curve $-1 57.250480110907532 -29.05501941319854 5.1760929393203678 0 -0.6560590369687036 0.75470957328743171 1 0 0 1 I I #
point $-1 58.250480110907532 -30.409343744954178 6.7340648304397384 #
plane-surface $-1 0 0 8.4899919108506499 0 0 1 1 0 0 forward_v I I I I #
coedge $-1 $303 $302 $295 $361 forward $199 $-1 #
coedge $-1 $295 $201 $203 $299 reversed $126 $-1 #
coedge $-1 $201 $294 $293 $361 reversed $126 $-1 #
coedge $-1 $209 $204 $201 $297 forward $210 $-1 #
edge $-1 $300 -6.2766278313803774 $362 2.6707423999775948 $296 $363 forward 7 unknown #
coedge $-1 $203 $202 $303 $364 reversed $79 $-1 #
edge $-1 $365 -64.858613481032194 $300 -53.504237593525175 $294 $366 forward 7 unknown #
vertex $-1 $205 $367 #
straight-curve $-1 -18.677722613237123 23.481936509158118 8.4899919108506481 1 0 0 I I #
coedge $-1 $293 $206 $209 $307 reversed $199 $-1 #
coedge $-1 $206 $293 $298 $364 forward $199 $-1 #
vertex $-1 $207 $368 #
straight-curve $-1 -45.505491961170563 32.42930674051609 70.759110100314928 0 0 1 I I #
straight-curve $-1 -45.505491961170563 -18.679977755327307 41.430490176945128 0 0.78801074757464917 -0.61566148304635926 I I #
edge $-1 $362 29.205398491777927 $211 45.505491961170563 $302 $369 forward 7 unknown #
point $-1 -45.505491961170563 32.42930674051609 8.4899919108506499 #
point $-1 -45.505491961170563 23.481936509158118 8.4899919108506481 #
edge $-1 $370 1 $370 0 $214 $-1 forward 7 unknown #
vertex $-1 $215 $371 #
ellipse-curve $-1 -37.355445226474245 25.537139403577306 1.8992499426721592 0 0.61566148304635926 0.78801074757464917 2.5 0 0 1 I I #
point $-1 -34.855445226474245 27.955621624837104 4.9947659618664675 #
plane-surface $-1 63.506576738792077 0 0 -1 0 0 0 0 1 forward_v I I I I #
coedge $-1 $223 $221 $225 $319 reversed $141 $-1 #
edge $-1 $236 -8.4899919108506499 $321 8.4899919108506499 $235 $372 forward 7 unknown #
vertex $-1 $319 $373 #
straight-curve $-1 -63.506576738792077 -32.42930674051609 0 0 0 -1 I I #
edge $-1 $317 -32.42930674051609 $321 32.42930674051609 $315 $374 forward 7 unknown #
straight-curve $-1 0 -32.42930674051609 -8.4899919108506499 -1 0 0 I I #
vertex $-1 $228 $375 #
straight-curve $-1 0 32.42930674051609 -8.4899919108506499 1 0 0 I I #
point $-1 63.506576738792077 32.42930674051609 -8.4899919108506499 #
point $-1 63.506576738792077 -32.42930674051609 -8.4899919108506499 #
straight-curve $-1 -63.506576738792077 0 8.4899919108506499 0 -1 0 I I #
point $-1 -63.506576738792077 32.42930674051609 8.4899919108506499 #
point $-1 -63.506576738792077 -32.42930674051609 8.4899919108506499 #
straight-curve $-1 63.506576738792077 -32.42930674051609 0 0 0 -1 I I #
straight-curve $-1 63.506576738792077 32.42930674051609 0 0 0 -1 I I #
plane-surface $-1 0 32.42930674051609 0 0 -1 0 0 0 -1 forward_v I I I I #
coedge $-1 $249 $248 $376 $377 forward $96 $-1 #
edge $-1 $252 53.964372017798155 $378 63.506576738792077 $251 $379 forward 7 unknown #
coedge $-1 $257 $256 $249 $334 reversed $258 $-1 #
edge $-1 $380 -63.506576738792077 $335 -53.964372017798155 $333 $381 forward 7 unknown #
vertex $-1 $264 $382 #
straight-curve $-1 -53.964372017798155 0 -8.4899919108506499 0 -1 0 I I #
point $-1 -53.964372017798155 -32.42930674051609 -8.4899919108506499 #
coedge $-1 $376 $254 $257 $341 forward $246 $-1 #
coedge $-1 $254 $376 $261 $343 reversed $246 $-1 #
straight-curve $-1 -63.506576738792077 0 -3.508757910603336 0 1 0 I I #
edge $-1 $259 3.508757910603336 $380 8.4899919108506499 $257 $383 forward 7 unknown #
point $-1 -63.506576738792077 32.42930674051609 -3.508757910603336 #
edge $-1 $262 3.508757910603336 $378 8.4899919108506499 $339 $384 forward 7 unknown #
point $-1 -63.506576738792077 -32.42930674051609 -3.508757910603336 #
straight-curve $-1 -53.964372017798155 32.42930674051609 -2.9996874553634965 0 0 -1 I I #
coedge $-1 $350 $272 $269 $347 reversed $267 $-1 #
edge $-1 $355 -32.42930674051609 $348 -28.389380749392242 $346 $385 forward 7 unknown #
vertex $-1 $271 $386 #
straight-curve $-1 26.279203819997058 -28.389380749392242 8.4899919108506516 -1 0 0 I I #
coedge $-1 $272 $346 $274 $352 forward $267 $-1 #
straight-curve $-1 63.506576738792077 -24.426081147436417 11.935235766379847 0 0.75470957328743171 0.6560590369687036 I I #
edge $-1 $355 -8.4899919108506499 $275 -4.9781377500288029 $350 $387 forward 7 unknown #
point $-1 63.506576738792084 -32.42930674051609 4.9781377500288029 #
point $-1 41.610238541196146 -28.389380749392242 8.4899919108506499 #
vertex $-1 $347 $388 #
straight-curve $-1 0 -32.42930674051609 8.4899919108506499 1 0 0 I I #
vertex $-1 $284 $389 #
point $-1 48.866335169080699 -29.05501941319854 5.1760929393203678 #
vertex $-1 $288 $390 #
point $-1 58.250480110907532 -29.05501941319854 5.1760929393203678 #
edge $-1 $362 62.26911818946428 $365 69.259570087432678 $293 $391 forward 7 unknown #
vertex $-1 $307 $392 #
straight-curve $-1 -29.205398491777927 29.758564340538495 8.4899919108506481 0 1 0 I I #
edge $-1 $365 10.527675878540805 $304 26.82776934793344 $303 $393 forward 7 unknown #
vertex $-1 $364 $394 #
straight-curve $-1 -29.205398491777927 -18.679977755327307 41.430490176945128 0 -0.78801074757464917 0.61566148304635926 I I #
point $-1 -29.205398491777927 23.481936509158118 8.4899919108506481 #
point $-1 -45.505491961170563 32.42930674051609 1.4995400128822567 #
straight-curve $-1 0 32.42930674051609 8.4899919108506499 -1 0 0 I I #
vertex $-1 $310 $395 #
point $-1 -34.855445226474245 25.537139403577306 1.8992499426721592 #
straight-curve $-1 -63.506576738792077 32.42930674051609 0 0 0 -1 I I #
point $-1 -63.506576738792077 -32.42930674051609 -8.4899919108506499 #
straight-curve $-1 -63.506576738792077 0 -8.4899919108506499 0 1 0 I I #
point $-1 -63.506576738792077 32.42930674051609 -8.4899919108506499 #
coedge $-1 $339 $338 $331 $377 reversed $246 $-1 #
edge $-1 $378 -32.42930674051609 $380 32.42930674051609 $376 $396 forward 7 unknown #
vertex $-1 $377 $397 #
straight-curve $-1 0 -32.42930674051609 -8.4899919108506499 -1 0 0 I I #
vertex $-1 $334 $398 #
straight-curve $-1 0 32.42930674051609 -8.4899919108506499 1 0 0 I I #
point $-1 -53.964372017798155 32.42930674051609 -8.4899919108506499 #
straight-curve $-1 -63.506576738792077 32.42930674051609 0 0 0 -1 I I #
straight-curve $-1 -63.506576738792077 -32.42930674051609 0 0 0 -1 I I #
straight-curve $-1 63.506576738792077 0 8.4899919108506499 0 1 0 I I #
point $-1 63.506576738792084 -28.389380749392242 8.4899919108506499 #
straight-curve $-1 63.506576738792077 -32.42930674051609 0 0 0 -1 I I #
point $-1 63.506576738792077 -32.42930674051609 8.4899919108506499 #
point $-1 47.866335169080699 -28.398960376229834 4.421383366032936 #
point $-1 57.250480110907532 -28.398960376229834 4.421383366032936 #
straight-curve $-1 -29.205398491777927 32.42930674051609 70.759110100314928 0 0 -1 I I #
point $-1 -29.205398491777927 32.42930674051609 8.4899919108506499 #
straight-curve $-1 -18.677722613237123 32.42930674051609 1.4995400128822567 -1 0 0 I I #
point $-1 -29.205398491777927 32.42930674051609 1.4995400128822567 #
point $-1 -37.355445226474245 23.997985695961411 -0.070776926264463746 #
straight-curve $-1 -63.506576738792077 0 -8.4899919108506499 0 1 0 I I #
point $-1 -63.506576738792077 -32.42930674051609 -8.4899919108506499 #
point $-1 -63.506576738792077 32.42930674051609 -8.4899919108506499 #
End-of-ACIS-data 