500 0 18 0           
7 Unknown 11 ACIS 5.0 NT 24 Thu Mar 25 17:19:47 1999 
-1 9.9999999999999995e-007 1e-010 
body $-1 $18 $-1 $19 #
body $-1 $20 $-1 $21 #
body $-1 $22 $-1 $23 #
body $-1 $24 $-1 $25 #
body $-1 $26 $-1 $27 #
body $-1 $28 $-1 $29 #
body $-1 $30 $-1 $31 #
body $-1 $32 $-1 $33 #
body $-1 $34 $-1 $35 #
body $-1 $36 $-1 $37 #
body $-1 $38 $-1 $39 #
body $-1 $40 $-1 $41 #
body $-1 $42 $-1 $43 #
body $-1 $44 $-1 $45 #
body $-1 $46 $-1 $47 #
body $-1 $48 $-1 $49 #
body $-1 $50 $-1 $51 #
body $-1 $52 $-1 $53 #
lump $-1 $-1 $54 $0 #
transform $-1 1 0 0 0 1 0 0 0 1 46.418652912991732 18.676683191613261 4.1476064510151129 1 rotate no_reflect no_shear #
lump $-1 $-1 $55 $1 #
transform $-1 1 0 0 0 1 0 0 0 1 46.418652912991732 18.676683191613261 4.1476064510151129 1 rotate no_reflect no_shear #
lump $-1 $-1 $56 $2 #
transform $-1 1 0 0 0 1 0 0 0 1 46.418652912991732 18.676683191613261 4.1476064510151129 1 rotate no_reflect no_shear #
lump $-1 $-1 $57 $3 #
transform $-1 1 0 0 0 1 0 0 0 1 46.418652912991732 18.676683191613261 4.1476064510151129 1 rotate no_reflect no_shear #
lump $-1 $-1 $58 $4 #
transform $-1 1 0 0 0 1 0 0 0 1 46.418652912991732 18.676683191613261 4.1476064510151129 1 rotate no_reflect no_shear #
lump $-1 $-1 $59 $5 #
transform $-1 1 0 0 0 1 0 0 0 1 46.418652912991732 18.676683191613261 4.1476064510151129 1 rotate no_reflect no_shear #
lump $-1 $-1 $60 $6 #
transform $-1 1 0 0 0 1 0 0 0 1 46.418652912991732 18.676683191613261 4.1476064510151129 1 rotate no_reflect no_shear #
lump $-1 $-1 $61 $7 #
transform $-1 1 0 0 0 1 0 0 0 1 46.418652912991732 18.676683191613261 4.1476064510151129 1 rotate no_reflect no_shear #
lump $-1 $-1 $62 $8 #
transform $-1 1 0 0 0 1 0 0 0 1 46.418652912991732 18.676683191613261 4.1476064510151129 1 rotate no_reflect no_shear #
lump $-1 $-1 $63 $9 #
transform $-1 1 0 0 0 1 0 0 0 1 46.418652912991732 18.676683191613261 4.1476064510151129 1 rotate no_reflect no_shear #
lump $-1 $-1 $64 $10 #
transform $-1 1 0 0 0 1 0 0 0 1 46.418652912991732 18.676683191613261 4.1476064510151129 1 rotate no_reflect no_shear #
lump $-1 $-1 $65 $11 #
transform $-1 1 0 0 0 1 0 0 0 1 46.418652912991732 18.676683191613261 4.1476064510151129 1 rotate no_reflect no_shear #
lump $-1 $-1 $66 $12 #
transform $-1 1 0 0 0 1 0 0 0 1 46.418652912991732 18.676683191613261 4.1476064510151129 1 rotate no_reflect no_shear #
lump $-1 $-1 $67 $13 #
transform $-1 1 0 0 0 1 0 0 0 1 46.418652912991732 18.676683191613261 4.1476064510151129 1 rotate no_reflect no_shear #
lump $-1 $-1 $68 $14 #
transform $-1 1 0 0 0 1 0 0 0 1 46.418652912991732 18.676683191613261 4.1476064510151129 1 rotate no_reflect no_shear #
lump $-1 $-1 $69 $15 #
transform $-1 1 0 0 0 1 0 0 0 1 46.418652912991732 18.676683191613261 4.1476064510151129 1 rotate no_reflect no_shear #
lump $-1 $-1 $70 $16 #
transform $-1 1 0 0 0 1 0 0 0 1 46.418652912991732 18.676683191613261 4.1476064510151129 1 rotate no_reflect no_shear #
lump $-1 $-1 $71 $17 #
transform $-1 1 0 0 0 1 0 0 0 1 46.418652912991732 18.676683191613261 4.1476064510151129 1 rotate no_reflect no_shear #
shell $-1 $-1 $-1 $72 $-1 $18 #
shell $-1 $-1 $-1 $73 $-1 $20 #
shell $-1 $-1 $-1 $74 $-1 $22 #
shell $-1 $-1 $-1 $75 $-1 $24 #
shell $-1 $-1 $-1 $76 $-1 $26 #
shell $-1 $-1 $-1 $77 $-1 $28 #
shell $-1 $-1 $-1 $78 $-1 $30 #
shell $-1 $-1 $-1 $79 $-1 $32 #
shell $-1 $-1 $-1 $80 $-1 $34 #
shell $-1 $-1 $-1 $81 $-1 $36 #
shell $-1 $-1 $-1 $82 $-1 $38 #
shell $-1 $-1 $-1 $83 $-1 $40 #
shell $-1 $-1 $-1 $84 $-1 $42 #
shell $-1 $-1 $-1 $85 $-1 $44 #
shell $-1 $-1 $-1 $86 $-1 $46 #
shell $-1 $-1 $-1 $87 $-1 $48 #
shell $-1 $-1 $-1 $88 $-1 $50 #
shell $-1 $-1 $-1 $89 $-1 $52 #
face $-1 $90 $91 $54 $-1 $92 forward single #
face $-1 $93 $94 $55 $-1 $95 forward single #
face $-1 $96 $97 $56 $-1 $98 reversed single #
face $-1 $99 $100 $57 $-1 $101 forward single #
face $-1 $102 $103 $58 $-1 $104 forward single #
face $-1 $105 $106 $59 $-1 $107 forward single #
face $-1 $108 $109 $60 $-1 $110 reversed single #
face $-1 $111 $112 $61 $-1 $113 forward single #
face $-1 $114 $115 $62 $-1 $116 forward single #
face $-1 $117 $118 $63 $-1 $119 reversed single #
face $-1 $120 $121 $64 $-1 $122 forward single #
face $-1 $123 $124 $65 $-1 $125 forward single #
face $-1 $126 $127 $66 $-1 $128 reversed single #
face $-1 $129 $130 $67 $-1 $131 forward single #
face $-1 $132 $133 $68 $-1 $134 forward single #
face $-1 $135 $136 $69 $-1 $137 reversed single #
face $-1 $138 $139 $70 $-1 $140 forward single #
face $-1 $141 $142 $71 $-1 $143 forward single #
face $-1 $144 $145 $54 $-1 $146 reversed single #
loop $-1 $-1 $147 $72 #
plane-surface $-1 0 0 4.1476064510151129 0 0 1 1 0 0 forward_v I I I I #
face $-1 $148 $149 $55 $-1 $150 reversed single #
loop $-1 $-1 $151 $73 #
plane-surface $-1 -44.433444697927442 0 1.1379307075106448 0 0 1 1 0 0 forward_v I I I I #
face $-1 $152 $153 $56 $-1 $154 reversed single #
loop $-1 $-1 $155 $74 #
plane-surface $-1 19.944092708654544 -79.583436646576985 70.533394115345857 1 0 0 0 0.6560590369687036 -0.75470957328743171 forward_v I I I I #
face $-1 $156 $157 $57 $-1 $158 forward single #
loop $-1 $159 $160 $75 #
cone-surface $-1 25.239004749521982 -15.631082927707292 1.2389089966544031 0 0.6560590369687036 -0.75470957328743171 1 0 0 1 I I 0 1 1 forward I I I I #
face $-1 $161 $162 $58 $-1 $163 forward single #
loop $-1 $164 $165 $76 #
cone-surface $-1 33.181372810823135 -15.631082927707292 1.2389089966544031 0 0.6560590369687036 -0.75470957328743171 1 0 0 1 I I 0 1 1 forward I I I I #
face $-1 $166 $167 $59 $-1 $168 forward single #
loop $-1 $169 $170 $77 #
cone-surface $-1 41.123740872124287 -15.631082927707292 1.2389089966544031 0 0.6560590369687036 -0.75470957328743171 1 0 0 1 I I 0 1 1 forward I I I I #
face $-1 $171 $172 $60 $-1 $173 reversed single #
loop $-1 $-1 $174 $78 #
plane-surface $-1 -38.692289808846581 80.399466482747201 79.162573221751032 1 0 0 0 -0.86602541151947299 -0.49999998660252726 forward_v I I I I #
face $-1 $175 $176 $61 $-1 $177 forward single #
loop $-1 $178 $179 $79 #
cone-surface $-1 -35.532439568204765 17.053491825872634 1.959573337135883 0 -0.86602541151947299 -0.49999998660252726 1 0 0 1 I I 0 1 1 forward I I I I #
face $-1 $180 $181 $62 $-1 $182 forward single #
loop $-1 $183 $184 $80 #
cone-surface $-1 -30.792664207242034 17.053491825872634 1.959573337135883 0 -0.86602541151947299 -0.49999998660252726 1 0 0 1 I I 0 1 1 forward I I I I #
face $-1 $185 $186 $63 $-1 $187 reversed single #
loop $-1 $-1 $188 $81 #
plane-surface $-1 -15.260449740321455 80.399466482747201 79.162573221751032 1 0 0 0 -0.86602541151947299 -0.49999998660252726 forward_v I I I I #
face $-1 $189 $190 $64 $-1 $191 forward single #
loop $-1 $192 $193 $82 #
cone-surface $-1 -12.100599499679632 17.053491825872634 1.959573337135883 0 -0.86602541151947299 -0.49999998660252726 1 0 0 1 I I 0 1 1 forward I I I I #
face $-1 $194 $195 $65 $-1 $196 forward single #
loop $-1 $197 $198 $83 #
cone-surface $-1 -7.3608241387169073 17.053491825872634 1.959573337135883 0 -0.86602541151947299 -0.49999998660252726 1 0 0 1 I I 0 1 1 forward I I I I #
face $-1 $199 $200 $66 $-1 $201 reversed single #
loop $-1 $-1 $202 $84 #
plane-surface $-1 8.1713903282036711 80.399466482747201 79.162573221751032 1 0 0 0 -0.86602541151947299 -0.49999998660252726 forward_v I I I I #
face $-1 $203 $204 $67 $-1 $205 forward single #
loop $-1 $206 $207 $85 #
cone-surface $-1 11.331240568845502 17.053491825872634 1.959573337135883 0 -0.86602541151947299 -0.49999998660252726 1 0 0 1 I I 0 1 1 forward I I I I #
face $-1 $208 $209 $68 $-1 $210 forward single #
loop $-1 $211 $212 $86 #
cone-surface $-1 16.071015929808226 17.053491825872634 1.959573337135883 0 -0.86602541151947299 -0.49999998660252726 1 0 0 1 I I 0 1 1 forward I I I I #
face $-1 $213 $214 $69 $-1 $215 reversed single #
loop $-1 $-1 $216 $87 #
plane-surface $-1 31.603230396728804 80.399466482747201 79.162573221751032 1 0 0 0 -0.86602541151947299 -0.49999998660252726 forward_v I I I I #
face $-1 $217 $218 $70 $-1 $219 forward single #
loop $-1 $220 $221 $88 #
cone-surface $-1 34.763080637370635 17.053491825872634 1.959573337135883 0 -0.86602541151947299 -0.49999998660252726 1 0 0 1 I I 0 1 1 forward I I I I #
face $-1 $222 $223 $71 $-1 $224 forward single #
loop $-1 $225 $226 $89 #
cone-surface $-1 39.502855998333359 17.053491825872634 1.959573337135883 0 -0.86602541151947299 -0.49999998660252726 1 0 0 1 I I 0 1 1 forward I I I I #
face $-1 $227 $228 $54 $-1 $229 reversed single #
loop $-1 $-1 $230 $90 #
plane-surface $-1 0 0 -4.1476064510151129 0 0 1 1 0 0 forward_v I I I I #
coedge $-1 $231 $232 $233 $234 forward $91 $-1 #
face $-1 $235 $236 $55 $-1 $237 reversed single #
loop $-1 $-1 $238 $93 #
plane-surface $-1 -44.433444697927442 0 -1.8620692924893556 0 0 1 1 0 0 forward_v I I I I #
coedge $-1 $239 $240 $241 $242 forward $94 $-1 #
face $-1 $243 $244 $56 $-1 $245 forward single #
loop $-1 $-1 $246 $96 #
plane-surface $-1 33.181372810823135 -18.676683191613257 0.46819065026308238 0 -0.6560590369687036 0.75470957328743171 1 0 0 forward_v I I I I #
coedge $-1 $247 $248 $249 $250 reversed $97 $-1 #
face $-1 $-1 $251 $57 $-1 $252 forward single #
loop $-1 $253 $254 $99 #
cone-surface $-1 25.239004749521982 -14.373794947240107 -0.2074353439740011 0 0.6560590369687036 -0.75470957328743171 0.5 0 0 1 I I -0.70710678118654746 0.70710678118654746 0.5 forward I I I I #
loop $-1 $-1 $255 $75 #
coedge $-1 $160 $160 $256 $257 reversed $100 $-1 #
face $-1 $-1 $258 $58 $-1 $259 forward single #
loop $-1 $260 $261 $102 #
cone-surface $-1 33.181372810823135 -14.373794947240107 -0.2074353439740011 0 0.6560590369687036 -0.75470957328743171 0.5 0 0 1 I I -0.70710678118654746 0.70710678118654746 0.5 forward I I I I #
loop $-1 $-1 $262 $76 #
coedge $-1 $165 $165 $263 $264 reversed $103 $-1 #
face $-1 $-1 $265 $59 $-1 $266 forward single #
loop $-1 $267 $268 $105 #
cone-surface $-1 41.123740872124287 -14.373794947240107 -0.2074353439740011 0 0.6560590369687036 -0.75470957328743171 0.5 0 0 1 I I -0.70710678118654746 0.70710678118654746 0.5 forward I I I I #
loop $-1 $-1 $269 $77 #
coedge $-1 $170 $170 $270 $271 reversed $106 $-1 #
face $-1 $272 $273 $60 $-1 $274 reversed single #
loop $-1 $-1 $275 $108 #
plane-surface $-1 -33.162551887723396 5.004407057640492e-007 32.743921552544577 0 0.86602541151947299 0.49999998660252726 1 0 0 forward_v I I I I #
coedge $-1 $276 $277 $278 $279 reversed $109 $-1 #
face $-1 $-1 $280 $61 $-1 $281 forward single #
loop $-1 $282 $283 $111 #
cone-surface $-1 -35.532439568204765 16.080584284033488 1.3978649260263634 0 -0.86602541151947299 -0.49999998660252726 0.5 0 0 1 I I -0.70710678118654746 0.70710678118654746 0.5 forward I I I I #
loop $-1 $-1 $284 $79 #
coedge $-1 $179 $179 $285 $286 reversed $112 $-1 #
face $-1 $-1 $287 $62 $-1 $288 forward single #
loop $-1 $289 $290 $114 #
cone-surface $-1 -30.792664207242034 16.080584284033488 1.3978649260263634 0 -0.86602541151947299 -0.49999998660252726 0.5 0 0 1 I I -0.70710678118654746 0.70710678118654746 0.5 forward I I I I #
loop $-1 $-1 $291 $80 #
coedge $-1 $184 $184 $292 $293 reversed $115 $-1 #
face $-1 $294 $295 $63 $-1 $296 reversed single #
loop $-1 $-1 $297 $117 #
plane-surface $-1 -9.7307118191982696 5.004407057640492e-007 32.743921552544577 0 0.86602541151947299 0.49999998660252726 1 0 0 forward_v I I I I #
coedge $-1 $298 $299 $300 $301 reversed $118 $-1 #
face $-1 $-1 $302 $64 $-1 $303 forward single #
loop $-1 $304 $305 $120 #
cone-surface $-1 -12.100599499679632 16.080584284033488 1.3978649260263634 0 -0.86602541151947299 -0.49999998660252726 0.5 0 0 1 I I -0.70710678118654746 0.70710678118654746 0.5 forward I I I I #
loop $-1 $-1 $306 $82 #
coedge $-1 $193 $193 $307 $308 reversed $121 $-1 #
face $-1 $-1 $309 $65 $-1 $310 forward single #
loop $-1 $311 $312 $123 #
cone-surface $-1 -7.3608241387169073 16.080584284033488 1.3978649260263634 0 -0.86602541151947299 -0.49999998660252726 0.5 0 0 1 I I -0.70710678118654746 0.70710678118654746 0.5 forward I I I I #
loop $-1 $-1 $313 $83 #
coedge $-1 $198 $198 $314 $315 reversed $124 $-1 #
face $-1 $316 $317 $66 $-1 $318 reversed single #
loop $-1 $-1 $319 $126 #
plane-surface $-1 13.701128249326857 5.004407057640492e-007 32.743921552544577 0 0.86602541151947299 0.49999998660252726 1 0 0 forward_v I I I I #
coedge $-1 $320 $321 $322 $323 reversed $127 $-1 #
face $-1 $-1 $324 $67 $-1 $325 forward single #
loop $-1 $326 $327 $129 #
cone-surface $-1 11.331240568845502 16.080584284033488 1.3978649260263634 0 -0.86602541151947299 -0.49999998660252726 0.5 0 0 1 I I -0.70710678118654746 0.70710678118654746 0.5 forward I I I I #
loop $-1 $-1 $328 $85 #
coedge $-1 $207 $207 $329 $330 reversed $130 $-1 #
face $-1 $-1 $331 $68 $-1 $332 forward single #
loop $-1 $333 $334 $132 #
cone-surface $-1 16.071015929808226 16.080584284033488 1.3978649260263634 0 -0.86602541151947299 -0.49999998660252726 0.5 0 0 1 I I -0.70710678118654746 0.70710678118654746 0.5 forward I I I I #
loop $-1 $-1 $335 $86 #
coedge $-1 $212 $212 $336 $337 reversed $133 $-1 #
face $-1 $338 $339 $69 $-1 $340 reversed single #
loop $-1 $-1 $341 $135 #
plane-surface $-1 37.13296831785199 5.004407057640492e-007 32.743921552544577 0 0.86602541151947299 0.49999998660252726 1 0 0 forward_v I I I I #
coedge $-1 $342 $343 $344 $345 reversed $136 $-1 #
face $-1 $-1 $346 $70 $-1 $347 forward single #
loop $-1 $348 $349 $138 #
cone-surface $-1 34.763080637370635 16.080584284033488 1.3978649260263634 0 -0.86602541151947299 -0.49999998660252726 0.5 0 0 1 I I -0.70710678118654746 0.70710678118654746 0.5 forward I I I I #
loop $-1 $-1 $350 $88 #
coedge $-1 $221 $221 $351 $352 reversed $139 $-1 #
face $-1 $-1 $353 $71 $-1 $354 forward single #
loop $-1 $355 $356 $141 #
cone-surface $-1 39.502855998333359 16.080584284033488 1.3978649260263634 0 -0.86602541151947299 -0.49999998660252726 0.5 0 0 1 I I -0.70710678118654746 0.70710678118654746 0.5 forward I I I I #
loop $-1 $-1 $357 $89 #
coedge $-1 $226 $226 $358 $359 reversed $142 $-1 #
face $-1 $360 $361 $54 $-1 $362 reversed single #
loop $-1 $-1 $363 $144 #
plane-surface $-1 0 -18.676683191613261 0 0 1 0 0 0 1 forward_v I I I I #
coedge $-1 $364 $365 $366 $367 forward $145 $-1 #
coedge $-1 $368 $147 $369 $370 forward $91 $-1 #
coedge $-1 $147 $368 $371 $372 forward $91 $-1 #
coedge $-1 $373 $374 $147 $234 reversed $375 $-1 #
edge $-1 $376 -18.676683191613261 $377 18.676683191613261 $233 $378 forward 7 unknown #
face $-1 $379 $380 $55 $-1 $381 reversed single #
loop $-1 $-1 $382 $148 #
plane-surface $-1 -42.448236482863152 0 -0.36206929248935538 -1 0 0 0 0 1 forward_v I I I I #
coedge $-1 $383 $384 $385 $386 forward $149 $-1 #
coedge $-1 $387 $151 $388 $389 reversed $94 $-1 #
coedge $-1 $151 $387 $390 $391 reversed $94 $-1 #
coedge $-1 $382 $392 $151 $242 reversed $236 $-1 #
edge $-1 $393 -18.676683191613261 $394 18.676683191613261 $241 $395 forward 7 unknown #
face $-1 $396 $397 $56 $-1 $398 reversed single #
loop $-1 $-1 $399 $152 #
plane-surface $-1 0 0 4.1476064510151129 0 0 1 1 0 0 forward_v I I I I #
coedge $-1 $400 $401 $402 $403 reversed $153 $-1 #
coedge $-1 $248 $155 $404 $405 reversed $97 $-1 #
coedge $-1 $155 $247 $400 $406 reversed $97 $-1 #
coedge $-1 $402 $407 $155 $250 forward $397 $-1 #
edge $-1 $408 31.119090606657814 $409 34.798506407409846 $249 $410 forward 7 unknown #
loop $-1 $-1 $256 $156 #
plane-surface $-1 33.181372810823135 -18.676683191613257 0.46819065026308238 0 -0.6560590369687036 0.75470957328743171 1 0 0 forward_v I I I I #
loop $-1 $-1 $411 $99 #
coedge $-1 $254 $254 $255 $412 reversed $157 $-1 #
coedge $-1 $255 $255 $254 $412 forward $159 $-1 #
coedge $-1 $256 $256 $160 $257 forward $251 $-1 #
edge $-1 $413 1.8663491769708007e-015 $413 6.2831853071796022 $256 $414 forward 7 unknown #
loop $-1 $-1 $263 $161 #
plane-surface $-1 33.181372810823135 -18.676683191613257 0.46819065026308238 0 -0.6560590369687036 0.75470957328743171 1 0 0 forward_v I I I I #
loop $-1 $-1 $415 $102 #
coedge $-1 $261 $261 $262 $416 reversed $162 $-1 #
coedge $-1 $262 $262 $261 $416 forward $164 $-1 #
coedge $-1 $263 $263 $165 $264 forward $258 $-1 #
edge $-1 $417 1.8663491769708007e-015 $417 6.2831853071796022 $263 $418 forward 7 unknown #
loop $-1 $-1 $270 $166 #
plane-surface $-1 33.181372810823135 -18.676683191613257 0.46819065026308238 0 -0.6560590369687036 0.75470957328743171 1 0 0 forward_v I I I I #
loop $-1 $-1 $419 $105 #
coedge $-1 $268 $268 $269 $420 reversed $167 $-1 #
coedge $-1 $269 $269 $268 $420 forward $169 $-1 #
coedge $-1 $270 $270 $170 $271 forward $265 $-1 #
edge $-1 $421 1.8663491769708007e-015 $421 6.2831853071796022 $270 $422 forward 7 unknown #
face $-1 $423 $424 $60 $-1 $425 reversed single #
loop $-1 $-1 $426 $171 #
plane-surface $-1 -27.63281396660021 80.399466482747201 79.162573221751032 -1 0 0 0 0.86602541151947299 0.49999998660252726 forward_v I I I I #
coedge $-1 $427 $428 $429 $430 reversed $172 $-1 #
coedge $-1 $277 $174 $431 $432 reversed $109 $-1 #
coedge $-1 $174 $276 $427 $433 reversed $109 $-1 #
coedge $-1 $429 $434 $174 $279 forward $435 $-1 #
edge $-1 $436 21.523050049760339 $437 23.68964310908278 $278 $438 forward 7 unknown #
loop $-1 $-1 $285 $175 #
plane-surface $-1 -33.162551887723396 5.004407057640492e-007 32.743921552544577 0 0.86602541151947299 0.49999998660252726 1 0 0 forward_v I I I I #
loop $-1 $-1 $439 $111 #
coedge $-1 $283 $283 $284 $440 reversed $176 $-1 #
coedge $-1 $284 $284 $283 $440 forward $178 $-1 #
coedge $-1 $285 $285 $179 $286 forward $280 $-1 #
edge $-1 $441 1.3917642510911076e-015 $441 6.2831853071796022 $285 $442 forward 7 unknown #
loop $-1 $-1 $292 $180 #
plane-surface $-1 -33.162551887723396 5.004407057640492e-007 32.743921552544577 0 0.86602541151947299 0.49999998660252726 1 0 0 forward_v I I I I #
loop $-1 $-1 $443 $114 #
coedge $-1 $290 $290 $291 $444 reversed $181 $-1 #
coedge $-1 $291 $291 $290 $444 forward $183 $-1 #
coedge $-1 $292 $292 $184 $293 forward $287 $-1 #
edge $-1 $445 1.3917642510911076e-015 $445 6.2831853071796022 $292 $446 forward 7 unknown #
face $-1 $447 $448 $63 $-1 $449 forward single #
loop $-1 $-1 $450 $185 #
plane-surface $-1 -4.2009738980750839 80.399466482747201 79.162573221751032 -1 0 0 0 0.86602541151947299 0.49999998660252726 forward_v I I I I #
coedge $-1 $451 $452 $453 $454 reversed $186 $-1 #
coedge $-1 $299 $188 $455 $456 reversed $118 $-1 #
coedge $-1 $188 $298 $451 $457 reversed $118 $-1 #
coedge $-1 $453 $458 $188 $301 forward $448 $-1 #
edge $-1 $459 21.523050049760339 $460 23.68964310908278 $300 $461 forward 7 unknown #
loop $-1 $-1 $307 $189 #
plane-surface $-1 -9.7307118191982696 5.004407057640492e-007 32.743921552544577 0 0.86602541151947299 0.49999998660252726 1 0 0 forward_v I I I I #
loop $-1 $-1 $462 $120 #
coedge $-1 $305 $305 $306 $463 reversed $190 $-1 #
coedge $-1 $306 $306 $305 $463 forward $192 $-1 #
coedge $-1 $307 $307 $193 $308 forward $302 $-1 #
edge $-1 $464 1.3917642510911076e-015 $464 6.2831853071796022 $307 $465 forward 7 unknown #
loop $-1 $-1 $314 $194 #
plane-surface $-1 -9.7307118191982696 5.004407057640492e-007 32.743921552544577 0 0.86602541151947299 0.49999998660252726 1 0 0 forward_v I I I I #
loop $-1 $-1 $466 $123 #
coedge $-1 $312 $312 $313 $467 reversed $195 $-1 #
coedge $-1 $313 $313 $312 $467 forward $197 $-1 #
coedge $-1 $314 $314 $198 $315 forward $309 $-1 #
edge $-1 $468 1.3917642510911076e-015 $468 6.2831853071796022 $314 $469 forward 7 unknown #
face $-1 $470 $471 $66 $-1 $472 forward single #
loop $-1 $-1 $473 $199 #
plane-surface $-1 19.230866170450042 80.399466482747201 79.162573221751032 -1 0 0 0 0.86602541151947299 0.49999998660252726 forward_v I I I I #
coedge $-1 $474 $475 $476 $477 reversed $200 $-1 #
coedge $-1 $321 $202 $478 $479 reversed $127 $-1 #
coedge $-1 $202 $320 $474 $480 reversed $127 $-1 #
coedge $-1 $476 $481 $202 $323 forward $471 $-1 #
edge $-1 $482 21.523050049760339 $483 23.68964310908278 $322 $484 forward 7 unknown #
loop $-1 $-1 $329 $203 #
plane-surface $-1 13.701128249326857 5.004407057640492e-007 32.743921552544577 0 0.86602541151947299 0.49999998660252726 1 0 0 forward_v I I I I #
loop $-1 $-1 $485 $129 #
coedge $-1 $327 $327 $328 $486 reversed $204 $-1 #
coedge $-1 $328 $328 $327 $486 forward $206 $-1 #
coedge $-1 $329 $329 $207 $330 forward $324 $-1 #
edge $-1 $487 1.3917642510911076e-015 $487 6.2831853071796022 $329 $488 forward 7 unknown #
loop $-1 $-1 $336 $208 #
plane-surface $-1 13.701128249326857 5.004407057640492e-007 32.743921552544577 0 0.86602541151947299 0.49999998660252726 1 0 0 forward_v I I I I #
loop $-1 $-1 $489 $132 #
coedge $-1 $334 $334 $335 $490 reversed $209 $-1 #
coedge $-1 $335 $335 $334 $490 forward $211 $-1 #
coedge $-1 $336 $336 $212 $337 forward $331 $-1 #
edge $-1 $491 1.3917642510911076e-015 $491 6.2831853071796022 $336 $492 forward 7 unknown #
face $-1 $493 $494 $69 $-1 $495 forward single #
loop $-1 $-1 $496 $213 #
plane-surface $-1 42.662706238975176 80.399466482747201 79.162573221751032 -1 0 0 0 0.86602541151947299 0.49999998660252726 forward_v I I I I #
coedge $-1 $497 $498 $499 $500 reversed $214 $-1 #
coedge $-1 $343 $216 $501 $502 reversed $136 $-1 #
coedge $-1 $216 $342 $497 $503 reversed $136 $-1 #
coedge $-1 $499 $504 $216 $345 forward $494 $-1 #
edge $-1 $505 21.523050049760339 $506 23.68964310908278 $344 $507 forward 7 unknown #
loop $-1 $-1 $351 $217 #
plane-surface $-1 37.13296831785199 5.004407057640492e-007 32.743921552544577 0 0.86602541151947299 0.49999998660252726 1 0 0 forward_v I I I I #
loop $-1 $-1 $508 $138 #
coedge $-1 $349 $349 $350 $509 reversed $218 $-1 #
coedge $-1 $350 $350 $349 $509 forward $220 $-1 #
coedge $-1 $351 $351 $221 $352 forward $346 $-1 #
edge $-1 $510 1.3917642510911076e-015 $510 6.2831853071796022 $351 $511 forward 7 unknown #
loop $-1 $-1 $358 $222 #
plane-surface $-1 37.13296831785199 5.004407057640492e-007 32.743921552544577 0 0.86602541151947299 0.49999998660252726 1 0 0 forward_v I I I I #
loop $-1 $-1 $512 $141 #
coedge $-1 $356 $356 $357 $513 reversed $223 $-1 #
coedge $-1 $357 $357 $356 $513 forward $225 $-1 #
coedge $-1 $358 $358 $226 $359 forward $353 $-1 #
edge $-1 $514 1.3917642510911076e-015 $514 6.2831853071796022 $358 $515 forward 7 unknown #
face $-1 $516 $517 $54 $-1 $518 reversed single #
loop $-1 $-1 $519 $227 #
plane-surface $-1 -46.418652912991732 0 0 1 0 0 0 0 -1 forward_v I I I I #
coedge $-1 $520 $371 $521 $522 forward $228 $-1 #
coedge $-1 $523 $230 $520 $524 forward $145 $-1 #
coedge $-1 $230 $523 $525 $526 forward $145 $-1 #
coedge $-1 $374 $373 $230 $367 reversed $375 $-1 #
edge $-1 $527 -18.676683191613261 $528 18.676683191613261 $366 $529 forward 7 unknown #
coedge $-1 $232 $231 $530 $531 forward $91 $-1 #
coedge $-1 $532 $533 $231 $370 reversed $517 $-1 #
edge $-1 $377 -46.418652912991732 $534 46.418652912991732 $369 $535 forward 7 unknown #
coedge $-1 $363 $536 $232 $372 reversed $228 $-1 #
edge $-1 $537 -46.418652912991732 $376 46.418652912991732 $371 $538 forward 7 unknown #
coedge $-1 $366 $233 $536 $539 forward $375 $-1 #
coedge $-1 $233 $366 $532 $540 reversed $375 $-1 #
loop $-1 $-1 $373 $516 #
vertex $-1 $234 $541 #
vertex $-1 $234 $542 #
straight-curve $-1 46.418652912991732 0 4.1476064510151129 0 1 0 I I #
face $-1 $543 $544 $55 $-1 $545 reversed single #
loop $-1 $-1 $546 $235 #
plane-surface $-1 0 -18.676683191613261 0 0 1 0 0 0 1 forward_v I I I I #
coedge $-1 $385 $241 $547 $548 reversed $236 $-1 #
coedge $-1 $549 $238 $546 $550 reversed $149 $-1 #
coedge $-1 $238 $549 $551 $552 reversed $149 $-1 #
coedge $-1 $392 $382 $238 $386 reversed $236 $-1 #
edge $-1 $553 -18.676683191613261 $554 18.676683191613261 $385 $555 forward 7 unknown #
coedge $-1 $240 $239 $556 $557 reversed $94 $-1 #
coedge $-1 $558 $559 $239 $389 forward $560 $-1 #
edge $-1 $561 -24.201930564028011 $394 -20.231514133899431 $388 $562 forward 7 unknown #
coedge $-1 $563 $547 $240 $391 forward $380 $-1 #
edge $-1 $393 20.231514133899431 $564 24.201930564028011 $390 $565 forward 7 unknown #
coedge $-1 $241 $385 $558 $566 reversed $236 $-1 #
vertex $-1 $391 $567 #
vertex $-1 $389 $568 #
straight-curve $-1 -42.448236482863152 0 1.1379307075106448 0 1 0 I I #
face $-1 $-1 $569 $56 $-1 $570 reversed single #
loop $-1 $-1 $249 $243 #
plane-surface $-1 0 -18.676683191613261 0 0 1 0 0 0 1 forward_v I I I I #
coedge $-1 $404 $571 $572 $573 forward $244 $-1 #
coedge $-1 $572 $246 $248 $406 forward $153 $-1 #
coedge $-1 $246 $572 $574 $575 reversed $153 $-1 #
coedge $-1 $576 $249 $246 $403 forward $397 $-1 #
edge $-1 $409 3.3534063032429771 $577 29.827966507580157 $402 $578 forward 7 unknown #
coedge $-1 $579 $399 $247 $405 forward $244 $-1 #
edge $-1 $580 -25.347718735521497 $408 -21.115035131675231 $404 $581 forward 7 unknown #
edge $-1 $409 -4.72070819993692e-015 $580 5.6083608233683275 $248 $582 forward 7 unknown #
coedge $-1 $249 $576 $579 $583 reversed $397 $-1 #
vertex $-1 $583 $584 #
vertex $-1 $250 $585 #
straight-curve $-1 19.944092708654544 -18.676683191613261 35.266697057672928 0 0 -1 I I #
coedge $-1 $411 $411 $-1 $586 reversed $253 $-1 #
edge $-1 $587 0 $587 6.2831853071796004 $254 $588 forward 7 unknown #
vertex $-1 $257 $589 #
ellipse-curve $-1 25.239004749521982 -16.56034138969013 2.3078985506390968 0 -0.6560590369687036 0.75470957328743171 1 0 0 1 I I #
coedge $-1 $415 $415 $-1 $590 reversed $260 $-1 #
edge $-1 $591 0 $591 6.2831853071796004 $261 $592 forward 7 unknown #
vertex $-1 $264 $593 #
ellipse-curve $-1 33.181372810823135 -16.56034138969013 2.3078985506390968 0 -0.6560590369687036 0.75470957328743171 1 0 0 1 I I #
coedge $-1 $419 $419 $-1 $594 reversed $267 $-1 #
edge $-1 $595 0 $595 6.2831853071796004 $268 $596 forward 7 unknown #
vertex $-1 $271 $597 #
ellipse-curve $-1 41.123740872124287 -16.56034138969013 2.3078985506390968 0 -0.6560590369687036 0.75470957328743171 1 0 0 1 I I #
face $-1 $-1 $435 $60 $-1 $598 forward single #
loop $-1 $-1 $599 $272 #
plane-surface $-1 0 18.676683191613261 0 0 -1 0 0 0 -1 forward_v I I I I #
coedge $-1 $600 $601 $602 $603 reversed $273 $-1 #
coedge $-1 $604 $275 $277 $433 forward $172 $-1 #
coedge $-1 $275 $604 $600 $605 forward $172 $-1 #
coedge $-1 $602 $278 $275 $430 forward $435 $-1 #
edge $-1 $437 -22.111013864984884 $606 -11.051538022738512 $429 $607 forward 7 unknown #
coedge $-1 $608 $609 $276 $432 forward $424 $-1 #
edge $-1 $610 -39.186329552002341 $436 -35.433680159860401 $431 $611 forward 7 unknown #
edge $-1 $437 33.020180148474154 $610 37.353366383226529 $277 $612 forward 7 unknown #
coedge $-1 $278 $602 $608 $613 forward $435 $-1 #
loop $-1 $-1 $602 $423 #
vertex $-1 $432 $614 #
vertex $-1 $279 $615 #
straight-curve $-1 -38.692289808846581 40.1997332413736 4.1476064510151147 0 -1 0 I I #
coedge $-1 $439 $439 $-1 $616 reversed $282 $-1 #
edge $-1 $617 0 $617 6.2831853071796004 $283 $618 forward 7 unknown #
vertex $-1 $286 $619 #
ellipse-curve $-1 -35.532439568204765 17.593386661952042 2.2712817549441389 0 0.86602541151947299 0.49999998660252726 1 0 0 1 I I #
coedge $-1 $443 $443 $-1 $620 reversed $289 $-1 #
edge $-1 $621 0 $621 6.2831853071796004 $290 $622 forward 7 unknown #
vertex $-1 $293 $623 #
ellipse-curve $-1 -30.792664207242034 17.593386661952042 2.2712817549441389 0 0.86602541151947299 0.49999998660252726 1 0 0 1 I I #
face $-1 $-1 $624 $63 $-1 $625 reversed single #
loop $-1 $-1 $300 $294 #
plane-surface $-1 0 0 4.1476064510151129 0 0 1 1 0 0 forward_v I I I I #
coedge $-1 $626 $627 $628 $629 reversed $295 $-1 #
coedge $-1 $630 $297 $299 $457 forward $186 $-1 #
coedge $-1 $297 $630 $626 $631 forward $186 $-1 #
coedge $-1 $628 $300 $297 $454 forward $448 $-1 #
edge $-1 $460 -10.39509383072232 $632 0.66438201152405085 $453 $633 forward 7 unknown #
coedge $-1 $634 $635 $298 $456 forward $624 $-1 #
edge $-1 $636 -39.186329552002341 $459 -35.433680159860401 $455 $637 forward 7 unknown #
edge $-1 $460 33.020180148474154 $636 37.353366383226529 $299 $638 forward 7 unknown #
coedge $-1 $300 $628 $634 $639 forward $448 $-1 #
vertex $-1 $301 $640 #
vertex $-1 $301 $641 #
straight-curve $-1 -15.260449740321455 40.1997332413736 4.1476064510151147 0 -1 0 I I #
coedge $-1 $462 $462 $-1 $642 reversed $304 $-1 #
edge $-1 $643 0 $643 6.2831853071796004 $305 $644 forward 7 unknown #
vertex $-1 $308 $645 #
ellipse-curve $-1 -12.100599499679632 17.593386661952042 2.2712817549441389 0 0.86602541151947299 0.49999998660252726 1 0 0 1 I I #
coedge $-1 $466 $466 $-1 $646 reversed $311 $-1 #
edge $-1 $647 0 $647 6.2831853071796004 $312 $648 forward 7 unknown #
vertex $-1 $315 $649 #
ellipse-curve $-1 -7.3608241387169073 17.593386661952042 2.2712817549441389 0 0.86602541151947299 0.49999998660252726 1 0 0 1 I I #
face $-1 $-1 $650 $66 $-1 $651 reversed single #
loop $-1 $-1 $322 $316 #
plane-surface $-1 0 0 4.1476064510151129 0 0 1 1 0 0 forward_v I I I I #
coedge $-1 $652 $653 $654 $655 reversed $317 $-1 #
coedge $-1 $656 $319 $321 $480 forward $200 $-1 #
coedge $-1 $319 $656 $652 $657 forward $200 $-1 #
coedge $-1 $654 $322 $319 $477 forward $471 $-1 #
edge $-1 $483 1.3208262035402427 $658 12.380302045786614 $476 $659 forward 7 unknown #
coedge $-1 $660 $661 $320 $479 forward $650 $-1 #
edge $-1 $662 -39.186329552002341 $482 -35.433680159860401 $478 $663 forward 7 unknown #
edge $-1 $483 33.020180148474154 $662 37.353366383226529 $321 $664 forward 7 unknown #
coedge $-1 $322 $654 $660 $665 forward $471 $-1 #
vertex $-1 $323 $666 #
vertex $-1 $323 $667 #
straight-curve $-1 8.1713903282036711 40.1997332413736 4.1476064510151147 0 -1 0 I I #
coedge $-1 $485 $485 $-1 $668 reversed $326 $-1 #
edge $-1 $669 0 $669 6.2831853071796004 $327 $670 forward 7 unknown #
vertex $-1 $330 $671 #
ellipse-curve $-1 11.331240568845502 17.593386661952042 2.2712817549441389 0 0.86602541151947299 0.49999998660252726 1 0 0 1 I I #
coedge $-1 $489 $489 $-1 $672 reversed $333 $-1 #
edge $-1 $673 0 $673 6.2831853071796004 $334 $674 forward 7 unknown #
vertex $-1 $337 $675 #
ellipse-curve $-1 16.071015929808226 17.593386661952042 2.2712817549441389 0 0.86602541151947299 0.49999998660252726 1 0 0 1 I I #
face $-1 $-1 $676 $69 $-1 $677 reversed single #
loop $-1 $-1 $344 $338 #
plane-surface $-1 0 0 4.1476064510151129 0 0 1 1 0 0 forward_v I I I I #
coedge $-1 $678 $679 $680 $681 reversed $339 $-1 #
coedge $-1 $682 $341 $343 $503 forward $214 $-1 #
coedge $-1 $341 $682 $678 $683 forward $214 $-1 #
coedge $-1 $680 $344 $341 $500 forward $494 $-1 #
edge $-1 $506 13.036746237802809 $684 24.096222080049181 $499 $685 forward 7 unknown #
coedge $-1 $686 $687 $342 $502 forward $676 $-1 #
edge $-1 $688 -39.186329552002341 $505 -35.433680159860401 $501 $689 forward 7 unknown #
edge $-1 $506 33.020180148474154 $688 37.353366383226529 $343 $690 forward 7 unknown #
coedge $-1 $344 $680 $686 $691 forward $494 $-1 #
vertex $-1 $345 $692 #
vertex $-1 $345 $693 #
straight-curve $-1 31.603230396728804 40.1997332413736 4.1476064510151147 0 -1 0 I I #
coedge $-1 $508 $508 $-1 $694 reversed $348 $-1 #
edge $-1 $695 0 $695 6.2831853071796004 $349 $696 forward 7 unknown #
vertex $-1 $352 $697 #
ellipse-curve $-1 34.763080637370635 17.593386661952042 2.2712817549441389 0 0.86602541151947299 0.49999998660252726 1 0 0 1 I I #
coedge $-1 $512 $512 $-1 $698 reversed $355 $-1 #
edge $-1 $699 0 $699 6.2831853071796004 $356 $700 forward 7 unknown #
vertex $-1 $359 $701 #
ellipse-curve $-1 39.502855998333359 17.593386661952042 2.2712817549441389 0 0.86602541151947299 0.49999998660252726 1 0 0 1 I I #
face $-1 $-1 $375 $54 $-1 $702 reversed single #
loop $-1 $-1 $532 $360 #
plane-surface $-1 0 18.676683191613261 0 0 -1 0 0 0 -1 forward_v I I I I #
coedge $-1 $703 $530 $533 $704 forward $361 $-1 #
coedge $-1 $536 $363 $364 $524 reversed $228 $-1 #
coedge $-1 $530 $703 $363 $522 reversed $361 $-1 #
edge $-1 $537 -4.1476064510151129 $705 4.1476064510151129 $521 $706 forward 7 unknown #
coedge $-1 $365 $364 $703 $707 forward $145 $-1 #
edge $-1 $528 -46.418652912991732 $705 46.418652912991732 $520 $708 forward 7 unknown #
coedge $-1 $533 $532 $365 $526 reversed $517 $-1 #
edge $-1 $709 -46.418652912991732 $527 46.418652912991732 $525 $710 forward 7 unknown #
vertex $-1 $367 $711 #
vertex $-1 $539 $712 #
straight-curve $-1 46.418652912991732 0 -4.1476064510151129 0 -1 0 I I #
coedge $-1 $519 $521 $368 $531 reversed $361 $-1 #
edge $-1 $534 -18.676683191613261 $537 18.676683191613261 $530 $713 forward 7 unknown #
coedge $-1 $525 $369 $374 $540 forward $517 $-1 #
coedge $-1 $369 $525 $519 $704 reversed $517 $-1 #
vertex $-1 $370 $714 #
straight-curve $-1 0 18.676683191613261 4.1476064510151129 -1 0 0 I I #
coedge $-1 $371 $520 $373 $539 reversed $228 $-1 #
vertex $-1 $531 $715 #
straight-curve $-1 0 -18.676683191613261 4.1476064510151129 1 0 0 I I #
edge $-1 $376 -4.1476064510151129 $528 4.1476064510151129 $373 $716 forward 7 unknown #
edge $-1 $377 -4.1476064510151129 $527 4.1476064510151129 $374 $717 forward 7 unknown #
point $-1 46.418652912991732 -18.676683191613261 4.1476064510151129 #
point $-1 46.418652912991732 18.676683191613261 4.1476064510151129 #
face $-1 $-1 $560 $55 $-1 $718 reversed single #
loop $-1 $-1 $719 $379 #
plane-surface $-1 -46.418652912991732 0 0 1 0 0 0 0 -1 forward_v I I I I #
coedge $-1 $547 $563 $383 $550 forward $380 $-1 #
coedge $-1 $390 $546 $382 $548 forward $380 $-1 #
edge $-1 $554 -1.6810346462446779 $393 1.3189653537553225 $547 $720 forward 7 unknown #
coedge $-1 $384 $383 $719 $721 reversed $149 $-1 #
edge $-1 $722 -24.201930564028011 $554 -20.231514133899431 $546 $723 forward 7 unknown #
coedge $-1 $559 $558 $384 $552 forward $560 $-1 #
edge $-1 $553 20.231514133899431 $724 24.201930564028011 $551 $725 forward 7 unknown #
vertex $-1 $552 $726 #
vertex $-1 $550 $727 #
straight-curve $-1 -42.448236482863152 0 -1.8620692924893556 0 -1 0 I I #
coedge $-1 $728 $729 $387 $557 forward $544 $-1 #
edge $-1 $564 -18.676683191613261 $561 18.676683191613261 $556 $730 forward 7 unknown #
coedge $-1 $551 $388 $392 $566 forward $560 $-1 #
coedge $-1 $388 $551 $728 $731 reversed $560 $-1 #
loop $-1 $-1 $551 $543 #
vertex $-1 $731 $732 #
straight-curve $-1 -22.216722348963721 18.676683191613261 1.1379307075106448 1 0 0 I I #
coedge $-1 $546 $390 $729 $733 forward $380 $-1 #
vertex $-1 $733 $734 #
straight-curve $-1 -22.216722348963721 -18.676683191613261 1.1379307075106448 -1 0 0 I I #
edge $-1 $394 -1.3189653537553225 $553 1.6810346462446779 $558 $735 forward 7 unknown #
point $-1 -42.448236482863152 -18.676683191613261 1.1379307075106448 #
point $-1 -42.448236482863152 18.676683191613261 1.1379307075106448 #
loop $-1 $-1 $574 $396 #
plane-surface $-1 46.418652912991732 0 0 -1 0 0 0 0 1 forward_v I I I I #
coedge $-1 $399 $579 $736 $737 forward $244 $-1 #
coedge $-1 $401 $400 $399 $573 reversed $153 $-1 #
edge $-1 $738 -29.827966507580157 $580 -3.3534063032429771 $399 $739 forward 7 unknown #
coedge $-1 $736 $740 $401 $575 forward $569 $-1 #
edge $-1 $577 -6.8941554474188251 $738 -1.2857946240504929 $574 $741 forward 7 unknown #
coedge $-1 $407 $402 $740 $742 reversed $397 $-1 #
vertex $-1 $403 $743 #
straight-curve $-1 16.590686405411567 -18.676683191613261 0.46819065026307793 1 0 0 I I #
coedge $-1 $571 $404 $407 $583 forward $244 $-1 #
vertex $-1 $405 $744 #
straight-curve $-1 19.944092708654544 -39.791718323288492 4.1476064510151147 0 -1 0 I I #
straight-curve $-1 19.944092708654544 -18.676683191613257 0.46819065026308238 0 0.75470957328743171 0.6560590369687036 I I #
edge $-1 $408 19.944092708654544 $745 46.418652912991732 $407 $746 forward 7 unknown #
point $-1 19.944092708654544 -18.676683191613261 4.1476064510151129 #
point $-1 19.944092708654544 -18.676683191613261 0.46819065026307927 #
edge $-1 $747 1 $747 0 $411 $-1 forward 7 unknown #
vertex $-1 $412 $748 #
ellipse-curve $-1 25.239004749521982 -14.701824465724458 0.16991944266971476 0 -0.6560590369687036 0.75470957328743171 1 0 0 1 I I #
point $-1 26.239004749521982 -16.560341389690123 2.3078985506390914 #
edge $-1 $749 1 $749 0 $415 $-1 forward 7 unknown #
vertex $-1 $416 $750 #
ellipse-curve $-1 33.181372810823135 -14.701824465724458 0.16991944266971476 0 -0.6560590369687036 0.75470957328743171 1 0 0 1 I I #
point $-1 34.181372810823135 -16.560341389690123 2.3078985506390914 #
edge $-1 $751 1 $751 0 $419 $-1 forward 7 unknown #
vertex $-1 $420 $752 #
ellipse-curve $-1 41.123740872124287 -14.701824465724458 0.16991944266971476 0 -0.6560590369687036 0.75470957328743171 1 0 0 1 I I #
point $-1 42.123740872124287 -16.560341389690123 2.3078985506390914 #
plane-surface $-1 0 0 4.1476064510151129 0 0 1 1 0 0 forward_v I I I I #
coedge $-1 $609 $608 $601 $753 forward $424 $-1 #
coedge $-1 $601 $426 $428 $605 reversed $273 $-1 #
coedge $-1 $426 $600 $599 $753 reversed $273 $-1 #
coedge $-1 $434 $429 $426 $603 forward $435 $-1 #
edge $-1 $606 -23.68964310908278 $754 -21.523050049760339 $602 $755 forward 7 unknown #
coedge $-1 $428 $427 $609 $756 reversed $172 $-1 #
edge $-1 $757 -37.353366383226529 $606 -33.020180148474154 $600 $758 forward 7 unknown #
vertex $-1 $430 $759 #
straight-curve $-1 -16.581275943861698 16.51009013229082 4.1476064510151147 1 0 0 I I #
coedge $-1 $599 $431 $434 $613 reversed $424 $-1 #
coedge $-1 $431 $599 $604 $756 forward $424 $-1 #
vertex $-1 $432 $760 #
straight-curve $-1 -38.692289808846581 18.676683191613261 39.581286610875516 0 0 1 I I #
straight-curve $-1 -38.692289808846581 5.004407057640492e-007 32.743921552544577 0 0.49999998660252726 -0.86602541151947299 I I #
edge $-1 $754 27.63281396660021 $436 38.692289808846581 $608 $761 forward 7 unknown #
point $-1 -38.692289808846581 18.676683191613261 4.1476064510151129 #
point $-1 -38.692289808846581 16.51009013229082 4.1476064510151147 #
edge $-1 $762 1 $762 0 $439 $-1 forward 7 unknown #
vertex $-1 $440 $763 #
ellipse-curve $-1 -35.532439568204765 16.513596989793225 1.6478649193276269 0 0.86602541151947299 0.49999998660252726 1 0 0 1 I I #
point $-1 -34.532439568204765 17.593386661952046 2.2712817549441393 #
edge $-1 $764 1 $764 0 $443 $-1 forward 7 unknown #
vertex $-1 $444 $765 #
ellipse-curve $-1 -30.792664207242034 16.513596989793225 1.6478649193276269 0 0.86602541151947299 0.49999998660252726 1 0 0 1 I I #
point $-1 -29.792664207242034 17.593386661952046 2.2712817549441393 #
loop $-1 $-1 $455 $447 #
plane-surface $-1 0 18.676683191613261 0 0 -1 0 0 0 -1 forward_v I I I I #
coedge $-1 $627 $450 $452 $631 reversed $295 $-1 #
coedge $-1 $450 $626 $766 $767 reversed $295 $-1 #
coedge $-1 $458 $453 $450 $629 forward $448 $-1 #
edge $-1 $632 -23.68964310908278 $768 -21.523050049760339 $628 $769 forward 7 unknown #
coedge $-1 $452 $451 $635 $770 reversed $186 $-1 #
edge $-1 $771 -37.353366383226529 $632 -33.020180148474154 $626 $772 forward 7 unknown #
vertex $-1 $454 $773 #
straight-curve $-1 -4.8653559095991348 16.51009013229082 4.1476064510151147 1 0 0 I I #
coedge $-1 $766 $455 $458 $639 reversed $624 $-1 #
coedge $-1 $455 $766 $630 $770 forward $624 $-1 #
vertex $-1 $456 $774 #
straight-curve $-1 -15.260449740321455 18.676683191613261 39.581286610875516 0 0 1 I I #
straight-curve $-1 -15.260449740321455 5.004407057640492e-007 32.743921552544577 0 0.49999998660252726 -0.86602541151947299 I I #
edge $-1 $768 4.2009738980750839 $459 15.260449740321455 $634 $775 forward 7 unknown #
point $-1 -15.260449740321455 18.676683191613261 4.1476064510151129 #
point $-1 -15.260449740321455 16.51009013229082 4.1476064510151147 #
edge $-1 $776 1 $776 0 $462 $-1 forward 7 unknown #
vertex $-1 $463 $777 #
ellipse-curve $-1 -12.100599499679632 16.513596989793225 1.6478649193276269 0 0.86602541151947299 0.49999998660252726 1 0 0 1 I I #
point $-1 -11.100599499679632 17.593386661952046 2.2712817549441393 #
edge $-1 $778 1 $778 0 $466 $-1 forward 7 unknown #
vertex $-1 $467 $779 #
ellipse-curve $-1 -7.3608241387169073 16.513596989793225 1.6478649193276269 0 0.86602541151947299 0.49999998660252726 1 0 0 1 I I #
point $-1 -6.3608241387169073 17.593386661952046 2.2712817549441393 #
loop $-1 $-1 $478 $470 #
plane-surface $-1 0 18.676683191613261 0 0 -1 0 0 0 -1 forward_v I I I I #
coedge $-1 $653 $473 $475 $657 reversed $317 $-1 #
coedge $-1 $473 $652 $780 $781 reversed $317 $-1 #
coedge $-1 $481 $476 $473 $655 forward $471 $-1 #
edge $-1 $658 -23.68964310908278 $782 -21.523050049760339 $654 $783 forward 7 unknown #
coedge $-1 $475 $474 $661 $784 reversed $200 $-1 #
edge $-1 $785 -37.353366383226529 $658 -33.020180148474154 $652 $786 forward 7 unknown #
vertex $-1 $477 $787 #
straight-curve $-1 6.8505641246634283 16.51009013229082 4.1476064510151147 1 0 0 I I #
coedge $-1 $780 $478 $481 $665 reversed $650 $-1 #
coedge $-1 $478 $780 $656 $784 forward $650 $-1 #
vertex $-1 $479 $788 #
straight-curve $-1 8.1713903282036711 18.676683191613261 39.581286610875516 0 0 1 I I #
straight-curve $-1 8.1713903282036711 5.004407057640492e-007 32.743921552544577 0 0.49999998660252726 -0.86602541151947299 I I #
edge $-1 $782 -19.230866170450042 $482 -8.1713903282036711 $660 $789 forward 7 unknown #
point $-1 8.1713903282036711 18.676683191613261 4.1476064510151129 #
point $-1 8.1713903282036711 16.51009013229082 4.1476064510151147 #
edge $-1 $790 1 $790 0 $485 $-1 forward 7 unknown #
vertex $-1 $486 $791 #
ellipse-curve $-1 11.331240568845502 16.513596989793225 1.6478649193276269 0 0.86602541151947299 0.49999998660252726 1 0 0 1 I I #
point $-1 12.331240568845502 17.593386661952046 2.2712817549441393 #
edge $-1 $792 1 $792 0 $489 $-1 forward 7 unknown #
vertex $-1 $490 $793 #
ellipse-curve $-1 16.071015929808226 16.513596989793225 1.6478649193276269 0 0.86602541151947299 0.49999998660252726 1 0 0 1 I I #
point $-1 17.071015929808226 17.593386661952046 2.2712817549441393 #
loop $-1 $-1 $501 $493 #
plane-surface $-1 0 18.676683191613261 0 0 -1 0 0 0 -1 forward_v I I I I #
coedge $-1 $679 $496 $498 $683 reversed $339 $-1 #
coedge $-1 $496 $678 $794 $795 reversed $339 $-1 #
coedge $-1 $504 $499 $496 $681 forward $494 $-1 #
edge $-1 $684 -23.68964310908278 $796 -21.523050049760339 $680 $797 forward 7 unknown #
coedge $-1 $498 $497 $687 $798 reversed $214 $-1 #
edge $-1 $799 -37.353366383226529 $684 -33.020180148474154 $678 $800 forward 7 unknown #
vertex $-1 $500 $801 #
straight-curve $-1 18.566484158925995 16.51009013229082 4.1476064510151147 1 0 0 I I #
coedge $-1 $794 $501 $504 $691 reversed $676 $-1 #
coedge $-1 $501 $794 $682 $798 forward $676 $-1 #
vertex $-1 $502 $802 #
straight-curve $-1 31.603230396728804 18.676683191613261 39.581286610875516 0 0 1 I I #
straight-curve $-1 31.603230396728804 5.004407057640492e-007 32.743921552544577 0 0.49999998660252726 -0.86602541151947299 I I #
edge $-1 $796 -42.662706238975176 $505 -31.603230396728804 $686 $803 forward 7 unknown #
point $-1 31.603230396728804 18.676683191613261 4.1476064510151129 #
point $-1 31.603230396728804 16.51009013229082 4.1476064510151147 #
edge $-1 $804 1 $804 0 $508 $-1 forward 7 unknown #
vertex $-1 $509 $805 #
ellipse-curve $-1 34.763080637370635 16.513596989793225 1.6478649193276269 0 0.86602541151947299 0.49999998660252726 1 0 0 1 I I #
point $-1 35.763080637370635 17.593386661952046 2.2712817549441393 #
edge $-1 $806 1 $806 0 $512 $-1 forward 7 unknown #
vertex $-1 $513 $807 #
ellipse-curve $-1 39.502855998333359 16.513596989793225 1.6478649193276269 0 0.86602541151947299 0.49999998660252726 1 0 0 1 I I #
point $-1 40.502855998333359 17.593386661952046 2.2712817549441393 #
plane-surface $-1 46.418652912991732 0 0 -1 0 0 0 0 1 forward_v I I I I #
coedge $-1 $521 $519 $523 $707 reversed $361 $-1 #
edge $-1 $534 -4.1476064510151129 $709 4.1476064510151129 $533 $808 forward 7 unknown #
vertex $-1 $707 $809 #
straight-curve $-1 -46.418652912991732 -18.676683191613261 0 0 0 -1 I I #
edge $-1 $705 -18.676683191613261 $709 18.676683191613261 $703 $810 forward 7 unknown #
straight-curve $-1 0 -18.676683191613261 -4.1476064510151129 -1 0 0 I I #
vertex $-1 $526 $811 #
straight-curve $-1 0 18.676683191613261 -4.1476064510151129 1 0 0 I I #
point $-1 46.418652912991732 18.676683191613261 -4.1476064510151129 #
point $-1 46.418652912991732 -18.676683191613261 -4.1476064510151129 #
straight-curve $-1 -46.418652912991732 0 4.1476064510151129 0 -1 0 I I #
point $-1 -46.418652912991732 18.676683191613261 4.1476064510151129 #
point $-1 -46.418652912991732 -18.676683191613261 4.1476064510151129 #
straight-curve $-1 46.418652912991732 -18.676683191613261 0 0 0 -1 I I #
straight-curve $-1 46.418652912991732 18.676683191613261 0 0 0 -1 I I #
plane-surface $-1 0 18.676683191613261 0 0 -1 0 0 0 -1 forward_v I I I I #
coedge $-1 $729 $728 $549 $721 forward $544 $-1 #
straight-curve $-1 -42.448236482863152 -18.676683191613261 -0.18103464624467769 0 0 1 I I #
edge $-1 $724 -18.676683191613261 $722 18.676683191613261 $719 $812 forward 7 unknown #
vertex $-1 $550 $813 #
straight-curve $-1 -22.216722348963721 -18.676683191613261 -1.8620692924893556 1 0 0 I I #
vertex $-1 $552 $814 #
straight-curve $-1 -22.216722348963721 18.676683191613261 -1.8620692924893556 -1 0 0 I I #
point $-1 -42.448236482863152 18.676683191613261 -1.8620692924893556 #
point $-1 -42.448236482863152 -18.676683191613261 -1.8620692924893556 #
coedge $-1 $719 $556 $559 $731 forward $544 $-1 #
coedge $-1 $556 $719 $563 $733 reversed $544 $-1 #
straight-curve $-1 -46.418652912991732 0 1.1379307075106448 0 1 0 I I #
edge $-1 $561 -1.1379307075106448 $724 1.8620692924893556 $559 $815 forward 7 unknown #
point $-1 -46.418652912991732 18.676683191613261 1.1379307075106448 #
edge $-1 $564 -1.1379307075106448 $722 1.8620692924893556 $729 $816 forward 7 unknown #
point $-1 -46.418652912991732 -18.676683191613261 1.1379307075106448 #
straight-curve $-1 -42.448236482863152 18.676683191613261 -0.18103464624467769 0 0 -1 I I #
coedge $-1 $740 $574 $571 $737 reversed $569 $-1 #
edge $-1 $745 -18.676683191613261 $738 -14.443999587766998 $736 $817 forward 7 unknown #
vertex $-1 $575 $818 #
straight-curve $-1 16.590686405411567 -14.443999587766999 4.1476064510151129 -1 0 0 I I #
coedge $-1 $574 $736 $576 $742 forward $569 $-1 #
straight-curve $-1 46.418652912991732 -13.473598075714577 4.991163633809216 0 0.75470957328743171 0.6560590369687036 I I #
edge $-1 $745 -4.1476064510151129 $577 -0.46819065026307927 $740 $819 forward 7 unknown #
point $-1 46.418652912991725 -18.676683191613261 0.46819065026307927 #
point $-1 19.944092708654544 -14.443999587766998 4.1476064510151129 #
vertex $-1 $737 $820 #
straight-curve $-1 0 -18.676683191613261 4.1476064510151129 1 0 0 I I #
vertex $-1 $586 $821 #
point $-1 26.239004749521982 -14.701824465724458 0.16991944266971476 #
vertex $-1 $590 $822 #
point $-1 34.181372810823135 -14.701824465724458 0.16991944266971476 #
vertex $-1 $594 $823 #
point $-1 42.123740872124287 -14.701824465724458 0.16991944266971476 #
edge $-1 $754 35.433680159860401 $757 39.186329552002341 $599 $824 forward 7 unknown #
vertex $-1 $613 $825 #
straight-curve $-1 -27.63281396660021 40.1997332413736 4.1476064510151147 0 1 0 I I #
edge $-1 $757 11.051538022738512 $610 22.111013864984884 $609 $826 forward 7 unknown #
vertex $-1 $756 $827 #
straight-curve $-1 -27.63281396660021 5.004407057640492e-007 32.743921552544577 0 -0.49999998660252726 0.86602541151947299 I I #
point $-1 -27.63281396660021 16.51009013229082 4.1476064510151147 #
point $-1 -38.692289808846581 18.676683191613261 0.39495705887317456 #
straight-curve $-1 0 18.676683191613261 4.1476064510151129 -1 0 0 I I #
vertex $-1 $616 $828 #
point $-1 -34.532439568204765 16.513596989793225 1.6478649193276269 #
vertex $-1 $620 $829 #
point $-1 -29.792664207242034 16.513596989793225 1.6478649193276269 #
coedge $-1 $635 $634 $627 $767 forward $624 $-1 #
edge $-1 $768 35.433680159860401 $771 39.186329552002341 $766 $830 forward 7 unknown #
vertex $-1 $639 $831 #
straight-curve $-1 -4.2009738980750839 40.1997332413736 4.1476064510151147 0 1 0 I I #
edge $-1 $771 -0.66438201152405085 $636 10.39509383072232 $635 $832 forward 7 unknown #
vertex $-1 $770 $833 #
straight-curve $-1 -4.2009738980750839 5.004407057640492e-007 32.743921552544577 0 -0.49999998660252726 0.86602541151947299 I I #
point $-1 -4.2009738980750839 16.51009013229082 4.1476064510151147 #
point $-1 -15.260449740321455 18.676683191613261 0.39495705887317456 #
straight-curve $-1 0 18.676683191613261 4.1476064510151129 -1 0 0 I I #
vertex $-1 $642 $834 #
point $-1 -11.100599499679632 16.513596989793225 1.6478649193276269 #
vertex $-1 $646 $835 #
point $-1 -6.3608241387169073 16.513596989793225 1.6478649193276269 #
coedge $-1 $661 $660 $653 $781 forward $650 $-1 #
edge $-1 $782 35.433680159860401 $785 39.186329552002341 $780 $836 forward 7 unknown #
vertex $-1 $665 $837 #
straight-curve $-1 19.230866170450042 40.1997332413736 4.1476064510151147 0 1 0 I I #
edge $-1 $785 -12.380302045786614 $662 -1.3208262035402427 $661 $838 forward 7 unknown #
vertex $-1 $784 $839 #
straight-curve $-1 19.230866170450042 5.004407057640492e-007 32.743921552544577 0 -0.49999998660252726 0.86602541151947299 I I #
point $-1 19.230866170450042 16.51009013229082 4.1476064510151147 #
point $-1 8.1713903282036711 18.676683191613261 0.39495705887317456 #
straight-curve $-1 0 18.676683191613261 4.1476064510151129 -1 0 0 I I #
vertex $-1 $668 $840 #
point $-1 12.331240568845502 16.513596989793225 1.6478649193276269 #
vertex $-1 $672 $841 #
point $-1 17.071015929808226 16.513596989793225 1.6478649193276269 #
coedge $-1 $687 $686 $679 $795 forward $676 $-1 #
edge $-1 $796 35.433680159860401 $799 39.186329552002341 $794 $842 forward 7 unknown #
vertex $-1 $691 $843 #
straight-curve $-1 42.662706238975176 40.1997332413736 4.1476064510151147 0 1 0 I I #
edge $-1 $799 -24.096222080049181 $688 -13.036746237802809 $687 $844 forward 7 unknown #
vertex $-1 $798 $845 #
straight-curve $-1 42.662706238975176 5.004407057640492e-007 32.743921552544577 0 -0.49999998660252726 0.86602541151947299 I I #
point $-1 42.662706238975176 16.51009013229082 4.1476064510151147 #
point $-1 31.603230396728804 18.676683191613261 0.39495705887317456 #
straight-curve $-1 0 18.676683191613261 4.1476064510151129 -1 0 0 I I #
vertex $-1 $694 $846 #
point $-1 35.763080637370635 16.513596989793225 1.6478649193276269 #
vertex $-1 $698 $847 #
point $-1 40.502855998333359 16.513596989793225 1.6478649193276269 #
straight-curve $-1 -46.418652912991732 18.676683191613261 0 0 0 -1 I I #
point $-1 -46.418652912991732 -18.676683191613261 -4.1476064510151129 #
straight-curve $-1 -46.418652912991732 0 -4.1476064510151129 0 1 0 I I #
point $-1 -46.418652912991732 18.676683191613261 -4.1476064510151129 #
straight-curve $-1 -46.418652912991732 0 -1.8620692924893556 0 -1 0 I I #
point $-1 -46.418652912991732 -18.676683191613261 -1.8620692924893556 #
point $-1 -46.418652912991732 18.676683191613261 -1.8620692924893556 #
straight-curve $-1 -46.418652912991732 18.676683191613261 0 0 0 -1 I I #
straight-curve $-1 -46.418652912991732 -18.676683191613261 0 0 0 -1 I I #
straight-curve $-1 46.418652912991732 0 4.1476064510151129 0 1 0 I I #
point $-1 46.418652912991725 -14.443999587766998 4.1476064510151129 #
straight-curve $-1 46.418652912991732 -18.676683191613261 0 0 0 -1 I I #
point $-1 46.418652912991732 -18.676683191613261 4.1476064510151129 #
point $-1 25.239004749521982 -14.045765428755756 -0.58479013061771701 #
point $-1 33.181372810823135 -14.045765428755756 -0.58479013061771701 #
point $-1 41.123740872124287 -14.045765428755756 -0.58479013061771701 #
straight-curve $-1 -27.63281396660021 18.676683191613261 39.581286610875516 0 0 -1 I I #
point $-1 -27.63281396660021 18.676683191613261 4.1476064510151129 #
straight-curve $-1 -16.581275943861698 18.676683191613265 0.39495705887317811 -1 0 0 I I #
point $-1 -27.63281396660021 18.676683191613261 0.39495705887317456 #
point $-1 -35.532439568204765 15.647571578273752 1.1478649327250998 #
point $-1 -30.792664207242034 15.647571578273752 1.1478649327250998 #
straight-curve $-1 -4.2009738980750839 18.676683191613261 39.581286610875516 0 0 -1 I I #
point $-1 -4.2009738980750839 18.676683191613261 4.1476064510151129 #
straight-curve $-1 -4.8653559095991348 18.676683191613265 0.39495705887317811 -1 0 0 I I #
point $-1 -4.2009738980750839 18.676683191613261 0.39495705887317456 #
point $-1 -12.100599499679632 15.647571578273752 1.1478649327250998 #
point $-1 -7.3608241387169073 15.647571578273752 1.1478649327250998 #
straight-curve $-1 19.230866170450042 18.676683191613261 39.581286610875516 0 0 -1 I I #
point $-1 19.230866170450042 18.676683191613261 4.1476064510151129 #
straight-curve $-1 6.8505641246634283 18.676683191613265 0.39495705887317811 -1 0 0 I I #
point $-1 19.230866170450042 18.676683191613261 0.39495705887317456 #
point $-1 11.331240568845502 15.647571578273752 1.1478649327250998 #
point $-1 16.071015929808226 15.647571578273752 1.1478649327250998 #
straight-curve $-1 42.662706238975176 18.676683191613261 39.581286610875516 0 0 -1 I I #
point $-1 42.662706238975176 18.676683191613261 4.1476064510151129 #
straight-curve $-1 18.566484158925995 18.676683191613265 0.39495705887317811 -1 0 0 I I #
point $-1 42.662706238975176 18.676683191613261 0.39495705887317456 #
point $-1 34.763080637370635 15.647571578273752 1.1478649327250998 #
point $-1 39.502855998333359 15.647571578273752 1.1478649327250998 #
End-of-ACIS-data 