500 0 5 0           
7 Unknown 11 ACIS 5.0 NT 24 Fri Mar 26 02:13:43 1999 
-1 9.9999999999999995e-007 1e-010 
body $-1 $5 $-1 $6 #
body $-1 $7 $-1 $8 #
body $-1 $9 $-1 $10 #
body $-1 $11 $-1 $12 #
body $-1 $13 $-1 $14 #
lump $-1 $-1 $15 $0 #
transform $-1 1 0 0 0 1 0 0 0 1 56.106448561052275 28.17222810068035 13.677033385942956 1 rotate no_reflect no_shear #
lump $-1 $-1 $16 $1 #
transform $-1 1 0 0 0 1 0 0 0 1 56.106448561052275 28.17222810068035 13.677033385942956 1 rotate no_reflect no_shear #
lump $-1 $-1 $17 $2 #
transform $-1 1 0 0 0 1 0 0 0 1 56.106448561052275 28.17222810068035 13.677033385942956 1 rotate no_reflect no_shear #
lump $-1 $-1 $18 $3 #
transform $-1 1 0 0 0 1 0 0 0 1 56.106448561052275 28.17222810068035 13.677033385942956 1 rotate no_reflect no_shear #
lump $-1 $-1 $19 $4 #
transform $-1 1 0 0 0 1 0 0 0 1 56.106448561052275 28.17222810068035 13.677033385942956 1 rotate no_reflect no_shear #
shell $-1 $-1 $-1 $20 $-1 $5 #
shell $-1 $-1 $-1 $21 $-1 $7 #
shell $-1 $-1 $-1 $22 $-1 $9 #
shell $-1 $-1 $-1 $23 $-1 $11 #
shell $-1 $-1 $-1 $24 $-1 $13 #
face $-1 $25 $26 $15 $-1 $27 forward single #
face $-1 $28 $29 $16 $-1 $30 forward single #
face $-1 $31 $32 $17 $-1 $33 reversed single #
face $-1 $34 $35 $18 $-1 $36 forward single #
face $-1 $37 $38 $19 $-1 $39 forward single #
face $-1 $40 $41 $15 $-1 $42 reversed single #
loop $-1 $-1 $43 $20 #
plane-surface $-1 0 0 13.677033385942956 0 0 1 1 0 0 forward_v I I I I #
face $-1 $44 $45 $16 $-1 $46 reversed single #
loop $-1 $-1 $47 $21 #
plane-surface $-1 -48.556347965190028 0 5.3674680677326672 0 0 1 1 0 0 forward_v I I I I #
face $-1 $48 $49 $17 $-1 $50 reversed single #
loop $-1 $-1 $51 $22 #
plane-surface $-1 7.2559883471574338 -100.30128890433826 91.139405905627143 1 0 0 0 0.64278761758704617 -0.76604443648966558 forward_v I I I I #
face $-1 $52 $53 $18 $-1 $54 forward single #
loop $-1 $55 $56 $23 #
cone-surface $-1 11.550609328633655 -22.63871698519965 8.868142393720813 0 0.64278761758704617 -0.76604443648966558 1 0 0 1 I I 0 1 1 forward I I I I #
face $-1 $57 $58 $19 $-1 $59 forward single #
loop $-1 $60 $61 $24 #
cone-surface $-1 17.992540800847976 -22.63871698519965 8.868142393720813 0 0.64278761758704617 -0.76604443648966558 1 0 0 1 I I 0 1 1 forward I I I I #
face $-1 $62 $63 $15 $-1 $64 reversed single #
loop $-1 $-1 $65 $25 #
plane-surface $-1 0 0 -13.677033385942956 0 0 1 1 0 0 forward_v I I I I #
coedge $-1 $66 $67 $68 $69 forward $26 $-1 #
face $-1 $70 $71 $16 $-1 $72 reversed single #
loop $-1 $-1 $73 $28 #
plane-surface $-1 -48.556347965190028 0 -0.0037530088685224783 0 0 1 1 0 0 forward_v I I I I #
coedge $-1 $74 $75 $76 $77 forward $29 $-1 #
face $-1 $78 $79 $17 $-1 $80 reversed single #
loop $-1 $-1 $81 $31 #
plane-surface $-1 14.771575064740802 -28.172228100680371 5.1793403628517467 0 -0.64278761758704617 0.76604443648966558 1 0 0 forward_v I I I I #
coedge $-1 $82 $83 $84 $85 reversed $32 $-1 #
face $-1 $-1 $86 $18 $-1 $87 forward single #
loop $-1 $88 $89 $34 #
cone-surface $-1 11.550609328633655 -21.847390049384842 7.925075694799439 0 0.64278761758704617 -0.76604443648966558 0.5 0 0 1 I I -0.70710678118654746 0.70710678118654746 0.5 forward I I I I #
loop $-1 $-1 $90 $23 #
coedge $-1 $56 $56 $91 $92 reversed $35 $-1 #
face $-1 $-1 $93 $19 $-1 $94 forward single #
loop $-1 $95 $96 $37 #
cone-surface $-1 17.992540800847976 -21.847390049384842 7.925075694799439 0 0.64278761758704617 -0.76604443648966558 0.5 0 0 1 I I -0.70710678118654746 0.70710678118654746 0.5 forward I I I I #
loop $-1 $-1 $97 $24 #
coedge $-1 $61 $61 $98 $99 reversed $38 $-1 #
face $-1 $100 $101 $15 $-1 $102 reversed single #
loop $-1 $-1 $103 $40 #
plane-surface $-1 0 -28.17222810068035 0 0 1 0 0 0 1 forward_v I I I I #
coedge $-1 $104 $105 $106 $107 forward $41 $-1 #
coedge $-1 $108 $43 $109 $110 forward $26 $-1 #
coedge $-1 $43 $108 $111 $112 forward $26 $-1 #
coedge $-1 $113 $114 $43 $69 reversed $115 $-1 #
edge $-1 $116 -28.17222810068035 $117 28.17222810068035 $68 $118 forward 7 unknown #
face $-1 $119 $120 $16 $-1 $121 reversed single #
loop $-1 $-1 $122 $44 #
plane-surface $-1 -41.006247369327781 0 2.6818575294320723 -1 0 0 0 0 1 forward_v I I I I #
coedge $-1 $123 $124 $125 $126 forward $45 $-1 #
coedge $-1 $127 $47 $128 $129 reversed $29 $-1 #
coedge $-1 $47 $127 $130 $131 reversed $29 $-1 #
coedge $-1 $122 $132 $47 $77 reversed $71 $-1 #
edge $-1 $133 -28.17222810068035 $134 28.17222810068035 $76 $135 forward 7 unknown #
face $-1 $136 $137 $17 $-1 $138 forward single #
loop $-1 $-1 $139 $48 #
plane-surface $-1 22.287161782324169 -100.30128890433826 91.139405905627143 -1 0 0 0 -0.64278761758704617 0.76604443648966558 forward_v I I I I #
coedge $-1 $140 $141 $142 $143 reversed $49 $-1 #
coedge $-1 $83 $51 $144 $145 reversed $32 $-1 #
coedge $-1 $51 $82 $140 $146 reversed $32 $-1 #
coedge $-1 $142 $147 $51 $85 forward $148 $-1 #
edge $-1 $149 31.892669566870616 $150 40.390362589961811 $84 $151 forward 7 unknown #
loop $-1 $-1 $91 $52 #
plane-surface $-1 14.771575064740802 -28.172228100680371 5.1793403628517467 0 -0.64278761758704617 0.76604443648966558 1 0 0 forward_v I I I I #
loop $-1 $-1 $152 $34 #
coedge $-1 $89 $89 $90 $153 reversed $53 $-1 #
coedge $-1 $90 $90 $89 $153 forward $55 $-1 #
coedge $-1 $91 $91 $56 $92 forward $86 $-1 #
edge $-1 $154 -2.6602780774099879e-016 $154 6.2831853071796004 $91 $155 forward 7 unknown #
loop $-1 $-1 $98 $57 #
plane-surface $-1 14.771575064740802 -28.172228100680371 5.1793403628517467 0 -0.64278761758704617 0.76604443648966558 1 0 0 forward_v I I I I #
loop $-1 $-1 $156 $37 #
coedge $-1 $96 $96 $97 $157 reversed $58 $-1 #
coedge $-1 $97 $97 $96 $157 forward $60 $-1 #
coedge $-1 $98 $98 $61 $99 forward $93 $-1 #
edge $-1 $158 -2.6602780774099879e-016 $158 6.2831853071796004 $98 $159 forward 7 unknown #
face $-1 $160 $161 $15 $-1 $162 reversed single #
loop $-1 $-1 $163 $62 #
plane-surface $-1 -56.106448561052275 0 0 1 0 0 0 0 -1 forward_v I I I I #
coedge $-1 $164 $111 $165 $166 forward $63 $-1 #
coedge $-1 $167 $65 $164 $168 forward $41 $-1 #
coedge $-1 $65 $167 $169 $170 forward $41 $-1 #
coedge $-1 $114 $113 $65 $107 reversed $115 $-1 #
edge $-1 $171 -28.17222810068035 $172 28.17222810068035 $106 $173 forward 7 unknown #
coedge $-1 $67 $66 $174 $175 forward $26 $-1 #
coedge $-1 $176 $177 $66 $110 reversed $161 $-1 #
edge $-1 $117 -56.106448561052275 $178 56.106448561052275 $109 $179 forward 7 unknown #
coedge $-1 $103 $180 $67 $112 reversed $63 $-1 #
edge $-1 $181 -56.106448561052275 $116 56.106448561052275 $111 $182 forward 7 unknown #
coedge $-1 $106 $68 $180 $183 forward $115 $-1 #
coedge $-1 $68 $106 $176 $184 reversed $115 $-1 #
loop $-1 $-1 $113 $160 #
vertex $-1 $69 $185 #
vertex $-1 $69 $186 #
straight-curve $-1 56.106448561052275 0 13.677033385942956 0 1 0 I I #
face $-1 $187 $188 $16 $-1 $189 reversed single #
loop $-1 $-1 $190 $70 #
plane-surface $-1 0 -28.17222810068035 0 0 1 0 0 0 1 forward_v I I I I #
coedge $-1 $125 $76 $191 $192 reversed $71 $-1 #
coedge $-1 $193 $73 $190 $194 reversed $45 $-1 #
coedge $-1 $73 $193 $195 $196 reversed $45 $-1 #
coedge $-1 $132 $122 $73 $126 reversed $71 $-1 #
edge $-1 $197 -28.17222810068035 $198 28.17222810068035 $125 $199 forward 7 unknown #
coedge $-1 $75 $74 $200 $201 reversed $29 $-1 #
coedge $-1 $202 $203 $74 $129 forward $204 $-1 #
edge $-1 $205 -31.828274578457261 $134 -16.728073386732767 $128 $206 forward 7 unknown #
coedge $-1 $207 $191 $75 $131 forward $120 $-1 #
edge $-1 $133 16.728073386732767 $208 31.828274578457261 $130 $209 forward 7 unknown #
coedge $-1 $76 $125 $202 $210 reversed $71 $-1 #
vertex $-1 $131 $211 #
vertex $-1 $129 $212 #
straight-curve $-1 -41.006247369327781 0 5.3674680677326672 0 1 0 I I #
face $-1 $-1 $148 $17 $-1 $213 reversed single #
loop $-1 $-1 $214 $78 #
plane-surface $-1 0 0 13.677033385942956 0 0 1 1 0 0 forward_v I I I I #
coedge $-1 $215 $216 $217 $218 reversed $79 $-1 #
coedge $-1 $219 $81 $83 $146 forward $49 $-1 #
coedge $-1 $81 $219 $215 $220 forward $49 $-1 #
coedge $-1 $217 $84 $81 $143 forward $148 $-1 #
edge $-1 $150 -0.12979918521296696 $221 14.901374249953768 $142 $222 forward 7 unknown #
coedge $-1 $223 $224 $82 $145 forward $137 $-1 #
edge $-1 $225 -32.10557232840759 $149 -21.978416351488782 $144 $226 forward 7 unknown #
edge $-1 $150 2.7747421096340558e-014 $225 13.220063346880595 $83 $227 forward 7 unknown #
coedge $-1 $84 $217 $223 $228 reversed $148 $-1 #
loop $-1 $-1 $217 $136 #
vertex $-1 $228 $229 #
vertex $-1 $85 $230 #
straight-curve $-1 7.2559883471574338 -28.17222810068035 45.569702952813572 0 0 -1 I I #
coedge $-1 $152 $152 $-1 $231 reversed $88 $-1 #
edge $-1 $232 0 $232 6.2831853071796004 $89 $233 forward 7 unknown #
vertex $-1 $92 $234 #
ellipse-curve $-1 11.550609328633655 -23.108650112220946 9.4281868743973618 0 -0.64278761758704617 0.76604443648966558 1 0 0 1 I I #
coedge $-1 $156 $156 $-1 $235 reversed $95 $-1 #
edge $-1 $236 0 $236 6.2831853071796004 $96 $237 forward 7 unknown #
vertex $-1 $99 $238 #
ellipse-curve $-1 17.992540800847976 -23.108650112220946 9.4281868743973618 0 -0.64278761758704617 0.76604443648966558 1 0 0 1 I I #
face $-1 $-1 $115 $15 $-1 $239 reversed single #
loop $-1 $-1 $176 $100 #
plane-surface $-1 0 28.17222810068035 0 0 -1 0 0 0 -1 forward_v I I I I #
coedge $-1 $240 $174 $177 $241 forward $101 $-1 #
coedge $-1 $180 $103 $104 $168 reversed $63 $-1 #
coedge $-1 $174 $240 $103 $166 reversed $101 $-1 #
edge $-1 $181 -13.677033385942956 $242 13.677033385942956 $165 $243 forward 7 unknown #
coedge $-1 $105 $104 $240 $244 forward $41 $-1 #
edge $-1 $172 -56.106448561052275 $242 56.106448561052275 $164 $245 forward 7 unknown #
coedge $-1 $177 $176 $105 $170 reversed $161 $-1 #
edge $-1 $246 -56.106448561052275 $171 56.106448561052275 $169 $247 forward 7 unknown #
vertex $-1 $107 $248 #
vertex $-1 $183 $249 #
straight-curve $-1 56.106448561052275 0 -13.677033385942956 0 -1 0 I I #
coedge $-1 $163 $165 $108 $175 reversed $101 $-1 #
edge $-1 $178 -28.17222810068035 $181 28.17222810068035 $174 $250 forward 7 unknown #
coedge $-1 $169 $109 $114 $184 forward $161 $-1 #
coedge $-1 $109 $169 $163 $241 reversed $161 $-1 #
vertex $-1 $110 $251 #
straight-curve $-1 0 28.17222810068035 13.677033385942956 -1 0 0 I I #
coedge $-1 $111 $164 $113 $183 reversed $63 $-1 #
vertex $-1 $175 $252 #
straight-curve $-1 0 -28.17222810068035 13.677033385942956 1 0 0 I I #
edge $-1 $116 -13.677033385942956 $172 13.677033385942956 $113 $253 forward 7 unknown #
edge $-1 $117 -13.677033385942956 $171 13.677033385942956 $114 $254 forward 7 unknown #
point $-1 56.106448561052275 -28.17222810068035 13.677033385942956 #
point $-1 56.106448561052275 28.17222810068035 13.677033385942956 #
face $-1 $-1 $204 $16 $-1 $255 reversed single #
loop $-1 $-1 $256 $119 #
plane-surface $-1 -56.106448561052275 0 0 1 0 0 0 0 -1 forward_v I I I I #
coedge $-1 $191 $207 $123 $194 forward $120 $-1 #
coedge $-1 $130 $190 $122 $192 forward $120 $-1 #
edge $-1 $198 -1.3446817735845586 $133 4.026539303016631 $191 $257 forward 7 unknown #
coedge $-1 $124 $123 $256 $258 reversed $45 $-1 #
edge $-1 $259 -31.828274578457261 $198 -16.728073386732767 $190 $260 forward 7 unknown #
coedge $-1 $203 $202 $124 $196 forward $204 $-1 #
edge $-1 $197 16.728073386732767 $261 31.828274578457261 $195 $262 forward 7 unknown #
vertex $-1 $196 $263 #
vertex $-1 $194 $264 #
straight-curve $-1 -41.006247369327781 0 -0.0037530088685224783 0 -1 0 I I #
coedge $-1 $265 $266 $127 $201 forward $188 $-1 #
edge $-1 $208 -28.17222810068035 $205 28.17222810068035 $200 $267 forward 7 unknown #
coedge $-1 $195 $128 $132 $210 forward $204 $-1 #
coedge $-1 $128 $195 $265 $268 reversed $204 $-1 #
loop $-1 $-1 $195 $187 #
vertex $-1 $268 $269 #
straight-curve $-1 -24.278173982595014 28.17222810068035 5.3674680677326672 1 0 0 I I #
coedge $-1 $190 $130 $266 $270 forward $120 $-1 #
vertex $-1 $270 $271 #
straight-curve $-1 -24.278173982595014 -28.17222810068035 5.3674680677326672 -1 0 0 I I #
edge $-1 $134 -4.026539303016631 $197 1.3446817735845586 $202 $272 forward 7 unknown #
point $-1 -41.006247369327781 -28.17222810068035 5.3674680677326672 #
point $-1 -41.006247369327781 28.17222810068035 5.3674680677326672 #
plane-surface $-1 0 -28.17222810068035 0 0 1 0 0 0 1 forward_v I I I I #
coedge $-1 $224 $223 $216 $273 forward $137 $-1 #
coedge $-1 $216 $139 $141 $220 reversed $79 $-1 #
coedge $-1 $139 $215 $214 $273 reversed $79 $-1 #
coedge $-1 $147 $142 $139 $218 forward $148 $-1 #
edge $-1 $221 -40.390362589961811 $274 -31.892669566870616 $217 $275 forward 7 unknown #
coedge $-1 $141 $140 $224 $276 reversed $49 $-1 #
edge $-1 $277 -13.220063346880595 $221 -2.7747421096340558e-014 $215 $278 forward 7 unknown #
vertex $-1 $143 $279 #
straight-curve $-1 7.3857875323704008 -28.17222810068035 5.1793403628517645 1 0 0 I I #
coedge $-1 $214 $144 $147 $228 forward $137 $-1 #
coedge $-1 $144 $214 $219 $276 forward $137 $-1 #
vertex $-1 $145 $280 #
straight-curve $-1 7.2559883471574338 -50.150644452169132 13.677033385942956 0 -1 0 I I #
straight-curve $-1 7.2559883471574338 -28.172228100680371 5.1793403628517467 0 0.76604443648966558 0.64278761758704617 I I #
edge $-1 $149 7.2559883471574338 $274 22.287161782324169 $147 $281 forward 7 unknown #
point $-1 7.2559883471574338 -28.17222810068035 13.677033385942956 #
point $-1 7.2559883471574338 -28.17222810068035 5.1793403628517645 #
edge $-1 $282 1 $282 0 $152 $-1 forward 7 unknown #
vertex $-1 $153 $283 #
ellipse-curve $-1 11.550609328633655 -22.168783858178365 8.3080979130442714 0 -0.64278761758704617 0.76604443648966558 1 0 0 1 I I #
point $-1 12.550609328633655 -23.108650112220939 9.4281868743973529 #
edge $-1 $284 1 $284 0 $156 $-1 forward 7 unknown #
vertex $-1 $157 $285 #
ellipse-curve $-1 17.992540800847976 -22.168783858178365 8.3080979130442714 0 -0.64278761758704617 0.76604443648966558 1 0 0 1 I I #
point $-1 18.992540800847976 -23.108650112220939 9.4281868743973529 #
plane-surface $-1 56.106448561052275 0 0 -1 0 0 0 0 1 forward_v I I I I #
coedge $-1 $165 $163 $167 $244 reversed $101 $-1 #
edge $-1 $178 -13.677033385942956 $246 13.677033385942956 $177 $286 forward 7 unknown #
vertex $-1 $244 $287 #
straight-curve $-1 -56.106448561052275 -28.17222810068035 0 0 0 -1 I I #
edge $-1 $242 -28.17222810068035 $246 28.17222810068035 $240 $288 forward 7 unknown #
straight-curve $-1 0 -28.17222810068035 -13.677033385942956 -1 0 0 I I #
vertex $-1 $170 $289 #
straight-curve $-1 0 28.17222810068035 -13.677033385942956 1 0 0 I I #
point $-1 56.106448561052275 28.17222810068035 -13.677033385942956 #
point $-1 56.106448561052275 -28.17222810068035 -13.677033385942956 #
straight-curve $-1 -56.106448561052275 0 13.677033385942956 0 -1 0 I I #
point $-1 -56.106448561052275 28.17222810068035 13.677033385942956 #
point $-1 -56.106448561052275 -28.17222810068035 13.677033385942956 #
straight-curve $-1 56.106448561052275 -28.17222810068035 0 0 0 -1 I I #
straight-curve $-1 56.106448561052275 28.17222810068035 0 0 0 -1 I I #
plane-surface $-1 0 28.17222810068035 0 0 -1 0 0 0 -1 forward_v I I I I #
coedge $-1 $266 $265 $193 $258 forward $188 $-1 #
straight-curve $-1 -41.006247369327781 -28.17222810068035 1.3409287647160362 0 0 1 I I #
edge $-1 $261 -28.17222810068035 $259 28.17222810068035 $256 $290 forward 7 unknown #
vertex $-1 $194 $291 #
straight-curve $-1 -24.278173982595014 -28.17222810068035 -0.0037530088685224783 1 0 0 I I #
vertex $-1 $196 $292 #
straight-curve $-1 -24.278173982595014 28.17222810068035 -0.0037530088685224783 -1 0 0 I I #
point $-1 -41.006247369327781 28.17222810068035 -0.0037530088685224783 #
point $-1 -41.006247369327781 -28.17222810068035 -0.0037530088685224783 #
coedge $-1 $256 $200 $203 $268 forward $188 $-1 #
coedge $-1 $200 $256 $207 $270 reversed $188 $-1 #
straight-curve $-1 -56.106448561052275 0 5.3674680677326672 0 1 0 I I #
edge $-1 $205 -5.3674680677326672 $261 0.0037530088685224783 $203 $293 forward 7 unknown #
point $-1 -56.106448561052275 28.17222810068035 5.3674680677326672 #
edge $-1 $208 -5.3674680677326672 $259 0.0037530088685224783 $266 $294 forward 7 unknown #
point $-1 -56.106448561052275 -28.17222810068035 5.3674680677326672 #
straight-curve $-1 -41.006247369327781 28.17222810068035 1.3409287647160362 0 0 -1 I I #
edge $-1 $274 21.978416351488782 $277 32.10557232840759 $214 $295 forward 7 unknown #
vertex $-1 $273 $296 #
straight-curve $-1 22.287161782324169 -28.17222810068035 45.569702952813572 0 0 1 I I #
edge $-1 $277 -14.901374249953768 $225 0.12979918521296696 $224 $297 forward 7 unknown #
vertex $-1 $276 $298 #
straight-curve $-1 22.287161782324169 -28.172228100680371 5.1793403628517467 0 -0.76604443648966558 -0.64278761758704617 I I #
point $-1 22.287161782324169 -28.17222810068035 5.1793403628517645 #
point $-1 7.2559883471574338 -18.045072123761543 13.677033385942956 #
straight-curve $-1 0 -28.17222810068035 13.677033385942956 1 0 0 I I #
vertex $-1 $231 $299 #
point $-1 12.550609328633655 -22.168783858178365 8.3080979130442714 #
vertex $-1 $235 $300 #
point $-1 18.992540800847976 -22.168783858178365 8.3080979130442714 #
straight-curve $-1 -56.106448561052275 28.17222810068035 0 0 0 -1 I I #
point $-1 -56.106448561052275 -28.17222810068035 -13.677033385942956 #
straight-curve $-1 -56.106448561052275 0 -13.677033385942956 0 1 0 I I #
point $-1 -56.106448561052275 28.17222810068035 -13.677033385942956 #
straight-curve $-1 -56.106448561052275 0 -0.0037530088685224783 0 -1 0 I I #
point $-1 -56.106448561052275 -28.17222810068035 -0.0037530088685224783 #
point $-1 -56.106448561052275 28.17222810068035 -0.0037530088685224783 #
straight-curve $-1 -56.106448561052275 28.17222810068035 0 0 0 -1 I I #
straight-curve $-1 -56.106448561052275 -28.17222810068035 0 0 0 -1 I I #
straight-curve $-1 22.287161782324169 -50.150644452169132 13.677033385942956 0 1 0 I I #
point $-1 22.287161782324169 -28.17222810068035 13.677033385942956 #
straight-curve $-1 7.3857875323704008 -18.045072123761546 13.677033385942956 -1 0 0 I I #
point $-1 22.287161782324169 -18.045072123761543 13.677033385942956 #
point $-1 11.550609328633655 -21.525996240591319 7.5420534765546066 #
point $-1 17.992540800847976 -21.525996240591319 7.5420534765546066 #
End-of-ACIS-data 