500 0 7 0           
7 Unknown 11 ACIS 5.0 NT 24 Thu Mar 25 17:25:35 1999 
-1 9.9999999999999995e-007 1e-010 
body $-1 $7 $-1 $8 #
body $-1 $9 $-1 $10 #
body $-1 $11 $-1 $12 #
body $-1 $13 $-1 $14 #
body $-1 $15 $-1 $16 #
body $-1 $17 $-1 $18 #
body $-1 $19 $-1 $20 #
lump $-1 $-1 $21 $0 #
transform $-1 1 0 0 0 1 0 0 0 1 41.942197943052463 28.924078013238123 12.544506896015186 1 rotate no_reflect no_shear #
lump $-1 $-1 $22 $1 #
transform $-1 1 0 0 0 1 0 0 0 1 41.942197943052463 28.924078013238123 12.544506896015186 1 rotate no_reflect no_shear #
lump $-1 $-1 $23 $2 #
transform $-1 1 0 0 0 1 0 0 0 1 41.942197943052463 28.924078013238123 12.544506896015186 1 rotate no_reflect no_shear #
lump $-1 $-1 $24 $3 #
transform $-1 1 0 0 0 1 0 0 0 1 41.942197943052463 28.924078013238123 12.544506896015186 1 rotate no_reflect no_shear #
lump $-1 $-1 $25 $4 #
transform $-1 1 0 0 0 1 0 0 0 1 41.942197943052463 28.924078013238123 12.544506896015186 1 rotate no_reflect no_shear #
lump $-1 $-1 $26 $5 #
transform $-1 1 0 0 0 1 0 0 0 1 41.942197943052463 28.924078013238123 12.544506896015186 1 rotate no_reflect no_shear #
lump $-1 $-1 $27 $6 #
transform $-1 1 0 0 0 1 0 0 0 1 41.942197943052463 28.924078013238123 12.544506896015186 1 rotate no_reflect no_shear #
shell $-1 $-1 $-1 $28 $-1 $7 #
shell $-1 $-1 $-1 $29 $-1 $9 #
shell $-1 $-1 $-1 $30 $-1 $11 #
shell $-1 $-1 $-1 $31 $-1 $13 #
shell $-1 $-1 $-1 $32 $-1 $15 #
shell $-1 $-1 $-1 $33 $-1 $17 #
shell $-1 $-1 $-1 $34 $-1 $19 #
face $-1 $35 $36 $21 $-1 $37 forward single #
face $-1 $38 $39 $22 $-1 $40 forward single #
face $-1 $41 $42 $23 $-1 $43 forward single #
face $-1 $44 $45 $24 $-1 $46 reversed single #
face $-1 $47 $48 $25 $-1 $49 forward single #
face $-1 $50 $51 $26 $-1 $52 forward single #
face $-1 $53 $54 $27 $-1 $55 forward single #
face $-1 $56 $57 $21 $-1 $58 reversed single #
loop $-1 $-1 $59 $28 #
plane-surface $-1 0 0 12.544506896015186 0 0 1 1 0 0 forward_v I I I I #
face $-1 $60 $61 $22 $-1 $62 reversed single #
loop $-1 $-1 $63 $29 #
plane-surface $-1 0 -28.924078013238123 0 0 1 0 0 0 1 forward_v I I I I #
face $-1 $64 $65 $23 $-1 $66 reversed single #
loop $-1 $-1 $67 $30 #
plane-surface $-1 0 28.924078013238123 0 0 -1 0 0 0 -1 forward_v I I I I #
face $-1 $68 $69 $24 $-1 $70 reversed single #
loop $-1 $-1 $71 $31 #
plane-surface $-1 46.082342390000491 14.225263481030467 118.61207138134424 0 -1 0 -0.73135370988377701 0 -0.68199835119979291 forward_v I I I I #
face $-1 $72 $73 $25 $-1 $74 forward single #
loop $-1 $75 $76 $32 #
cone-surface $-1 35.752675747969775 7.9709073395890471 5.9581980538915591 -0.73135370988377701 0 -0.68199835119979291 0.34099917559989645 0 -0.36567685494188851 1 I I 0 1 0.5 forward I I I I #
face $-1 $77 $78 $26 $-1 $79 forward single #
loop $-1 $80 $81 $33 #
cone-surface $-1 35.752675747969775 10.316290892629581 5.9581980538915591 -0.73135370988377701 0 -0.68199835119979291 0.34099917559989645 0 -0.36567685494188851 1 I I 0 1 0.5 forward I I I I #
face $-1 $82 $83 $27 $-1 $84 forward single #
loop $-1 $85 $86 $34 #
cone-surface $-1 35.752675747969775 12.661674445670116 5.9581980538915591 -0.73135370988377701 0 -0.68199835119979291 0.34099917559989645 0 -0.36567685494188851 1 I I 0 1 0.5 forward I I I I #
face $-1 $87 $88 $21 $-1 $89 reversed single #
loop $-1 $-1 $90 $35 #
plane-surface $-1 0 0 -12.544506896015186 0 0 1 1 0 0 forward_v I I I I #
coedge $-1 $91 $92 $93 $94 forward $36 $-1 #
face $-1 $95 $96 $22 $-1 $97 reversed single #
loop $-1 $-1 $98 $38 #
plane-surface $-1 0 0 -12.544506896015186 0 0 1 1 0 0 forward_v I I I I #
coedge $-1 $99 $100 $101 $102 forward $39 $-1 #
face $-1 $103 $104 $23 $-1 $105 reversed single #
loop $-1 $-1 $106 $41 #
plane-surface $-1 0 0 -12.544506896015186 0 0 1 1 0 0 forward_v I I I I #
coedge $-1 $107 $108 $109 $110 forward $42 $-1 #
face $-1 $111 $112 $24 $-1 $113 reversed single #
loop $-1 $-1 $114 $44 #
plane-surface $-1 -15.26682174266179 10.316290892629581 61.403051695629983 0.73135370988377701 0 0.68199835119979291 0.68199835119979291 0 -0.73135370988377701 forward_v I I I I #
coedge $-1 $115 $116 $117 $118 reversed $45 $-1 #
face $-1 $-1 $119 $25 $-1 $120 forward single #
loop $-1 $121 $122 $47 #
cone-surface $-1 35.204160465556939 7.9709073395890471 5.4466992904917149 -0.73135370988377701 0 -0.68199835119979291 0.17049958779994823 0 -0.18283842747094425 1 I I -0.70710678118654746 0.70710678118654746 0.25 forward I I I I #
loop $-1 $-1 $123 $32 #
coedge $-1 $76 $76 $124 $125 reversed $48 $-1 #
face $-1 $-1 $126 $26 $-1 $127 forward single #
loop $-1 $128 $129 $50 #
cone-surface $-1 35.204160465556939 10.316290892629581 5.4466992904917149 -0.73135370988377701 0 -0.68199835119979291 0.17049958779994823 0 -0.18283842747094425 1 I I -0.70710678118654746 0.70710678118654746 0.25 forward I I I I #
loop $-1 $-1 $130 $33 #
coedge $-1 $81 $81 $131 $132 reversed $51 $-1 #
face $-1 $-1 $133 $27 $-1 $134 forward single #
loop $-1 $135 $136 $53 #
cone-surface $-1 35.204160465556939 12.661674445670116 5.4466992904917149 -0.73135370988377701 0 -0.68199835119979291 0.17049958779994823 0 -0.18283842747094425 1 I I -0.70710678118654746 0.70710678118654746 0.25 forward I I I I #
loop $-1 $-1 $137 $34 #
coedge $-1 $86 $86 $138 $139 reversed $54 $-1 #
face $-1 $140 $141 $21 $-1 $142 reversed single #
loop $-1 $-1 $143 $56 #
plane-surface $-1 0 -28.924078013238123 0 0 1 0 0 0 1 forward_v I I I I #
coedge $-1 $144 $145 $146 $147 forward $57 $-1 #
coedge $-1 $148 $59 $149 $150 forward $36 $-1 #
coedge $-1 $59 $148 $151 $152 forward $36 $-1 #
coedge $-1 $153 $154 $59 $94 reversed $155 $-1 #
edge $-1 $156 -28.924078013238123 $157 28.924078013238123 $93 $158 forward 7 unknown #
face $-1 $159 $160 $22 $-1 $161 reversed single #
loop $-1 $-1 $162 $60 #
plane-surface $-1 -18.371334793319164 -43.622892545445787 0 0 1 0 0 0 1 forward_v I I I I #
coedge $-1 $163 $164 $100 $165 forward $61 $-1 #
coedge $-1 $166 $63 $167 $168 reversed $39 $-1 #
coedge $-1 $63 $166 $98 $165 reversed $39 $-1 #
coedge $-1 $169 $170 $63 $102 reversed $160 $-1 #
edge $-1 $171 -12.544506896015186 $172 12.544506896015186 $101 $173 forward 7 unknown #
face $-1 $174 $175 $23 $-1 $176 reversed single #
loop $-1 $-1 $177 $64 #
plane-surface $-1 -19.889485435616237 36.273485279341948 0 1 0 0 0 0 -1 forward_v I I I I #
coedge $-1 $178 $179 $108 $180 forward $65 $-1 #
coedge $-1 $181 $67 $182 $183 reversed $42 $-1 #
coedge $-1 $67 $181 $106 $180 reversed $42 $-1 #
coedge $-1 $184 $185 $67 $110 reversed $186 $-1 #
edge $-1 $187 -12.544506896015186 $188 12.544506896015186 $109 $189 forward 7 unknown #
face $-1 $190 $191 $24 $-1 $192 forward single #
loop $-1 $-1 $193 $68 #
plane-surface $-1 46.082342390000491 6.4073183042286956 118.61207138134424 0 1 0 0.73135370988377701 0 0.68199835119979291 forward_v I I I I #
coedge $-1 $194 $195 $196 $197 reversed $69 $-1 #
coedge $-1 $116 $71 $198 $199 reversed $45 $-1 #
coedge $-1 $71 $115 $194 $200 reversed $45 $-1 #
coedge $-1 $196 $201 $71 $118 forward $191 $-1 #
edge $-1 $202 -18.901026748052217 $203 -7.2533360677706256 $117 $204 forward 7 unknown #
loop $-1 $-1 $124 $72 #
plane-surface $-1 -15.26682174266179 10.316290892629581 61.403051695629983 0.73135370988377701 0 0.68199835119979291 0.68199835119979291 0 -0.73135370988377701 forward_v I I I I #
loop $-1 $-1 $205 $47 #
coedge $-1 $122 $122 $123 $206 reversed $73 $-1 #
coedge $-1 $123 $123 $122 $206 forward $75 $-1 #
coedge $-1 $124 $124 $76 $125 forward $119 $-1 #
edge $-1 $207 0 $207 6.2831853071796004 $124 $208 forward 7 unknown #
loop $-1 $-1 $131 $77 #
plane-surface $-1 -15.26682174266179 10.316290892629581 61.403051695629983 0.73135370988377701 0 0.68199835119979291 0.68199835119979291 0 -0.73135370988377701 forward_v I I I I #
loop $-1 $-1 $209 $50 #
coedge $-1 $129 $129 $130 $210 reversed $78 $-1 #
coedge $-1 $130 $130 $129 $210 forward $80 $-1 #
coedge $-1 $131 $131 $81 $132 forward $126 $-1 #
edge $-1 $211 0 $211 6.2831853071796004 $131 $212 forward 7 unknown #
loop $-1 $-1 $138 $82 #
plane-surface $-1 -15.26682174266179 10.316290892629581 61.403051695629983 0.73135370988377701 0 0.68199835119979291 0.68199835119979291 0 -0.73135370988377701 forward_v I I I I #
loop $-1 $-1 $213 $53 #
coedge $-1 $136 $136 $137 $214 reversed $83 $-1 #
coedge $-1 $137 $137 $136 $214 forward $85 $-1 #
coedge $-1 $138 $138 $86 $139 forward $133 $-1 #
edge $-1 $215 0 $215 6.2831853071796004 $138 $216 forward 7 unknown #
face $-1 $217 $218 $21 $-1 $219 reversed single #
loop $-1 $-1 $220 $87 #
plane-surface $-1 -41.942197943052463 0 0 1 0 0 0 0 -1 forward_v I I I I #
coedge $-1 $221 $151 $222 $223 forward $88 $-1 #
coedge $-1 $224 $90 $221 $225 forward $57 $-1 #
coedge $-1 $90 $224 $226 $227 forward $57 $-1 #
coedge $-1 $154 $153 $90 $147 reversed $155 $-1 #
edge $-1 $228 -28.924078013238123 $229 28.924078013238123 $146 $230 forward 7 unknown #
coedge $-1 $92 $91 $231 $232 forward $36 $-1 #
coedge $-1 $233 $234 $91 $150 reversed $218 $-1 #
edge $-1 $157 -41.942197943052463 $235 41.942197943052463 $149 $236 forward 7 unknown #
coedge $-1 $143 $237 $92 $152 reversed $88 $-1 #
edge $-1 $238 -41.942197943052463 $156 41.942197943052463 $151 $239 forward 7 unknown #
coedge $-1 $146 $93 $237 $240 forward $155 $-1 #
coedge $-1 $93 $146 $233 $241 reversed $155 $-1 #
loop $-1 $-1 $153 $217 #
vertex $-1 $94 $242 #
vertex $-1 $94 $243 #
straight-curve $-1 41.942197943052463 0 12.544506896015186 0 1 0 I I #
face $-1 $244 $245 $22 $-1 $246 reversed single #
loop $-1 $-1 $101 $95 #
plane-surface $-1 -19.889485435616237 -36.273485279341955 0 1 0 0 0 0 -1 forward_v I I I I #
coedge $-1 $247 $248 $249 $250 forward $96 $-1 #
coedge $-1 $251 $98 $252 $253 forward $61 $-1 #
coedge $-1 $98 $251 $169 $254 forward $61 $-1 #
edge $-1 $171 -19.889485435616237 $255 -16.853184151022091 $98 $256 forward 7 unknown #
coedge $-1 $100 $99 $257 $258 forward $39 $-1 #
coedge $-1 $259 $260 $99 $168 forward $261 $-1 #
edge $-1 $262 16.853184151022091 $172 19.889485435616237 $167 $263 forward 7 unknown #
coedge $-1 $249 $101 $164 $254 reversed $160 $-1 #
coedge $-1 $101 $249 $259 $264 reversed $160 $-1 #
vertex $-1 $165 $265 #
vertex $-1 $264 $266 #
straight-curve $-1 -19.889485435616237 -28.924078013238123 0 0 0 1 I I #
face $-1 $267 $186 $23 $-1 $268 reversed single #
loop $-1 $-1 $269 $103 #
plane-surface $-1 -18.371334793319164 43.622892545445779 0 0 -1 0 0 0 -1 forward_v I I I I #
coedge $-1 $270 $271 $272 $273 forward $104 $-1 #
coedge $-1 $274 $106 $270 $275 forward $65 $-1 #
coedge $-1 $106 $274 $184 $276 forward $65 $-1 #
edge $-1 $187 16.853184151022091 $277 19.889485435616237 $106 $278 forward 7 unknown #
coedge $-1 $108 $107 $279 $280 forward $42 $-1 #
coedge $-1 $281 $282 $107 $183 forward $283 $-1 #
edge $-1 $284 -19.889485435616237 $188 -16.853184151022091 $182 $285 forward 7 unknown #
coedge $-1 $286 $109 $179 $276 reversed $186 $-1 #
coedge $-1 $109 $286 $281 $287 reversed $186 $-1 #
loop $-1 $-1 $109 $174 #
vertex $-1 $180 $288 #
vertex $-1 $287 $289 #
straight-curve $-1 -16.853184151022091 28.924078013238123 0 0 0 1 I I #
face $-1 $-1 $290 $24 $-1 $291 reversed single #
loop $-1 $-1 $117 $111 #
plane-surface $-1 0 0 12.544506896015186 0 0 1 1 0 0 forward_v I I I I #
coedge $-1 $292 $293 $294 $295 reversed $112 $-1 #
coedge $-1 $296 $114 $116 $200 forward $69 $-1 #
coedge $-1 $114 $296 $292 $297 forward $69 $-1 #
coedge $-1 $294 $117 $114 $197 forward $191 $-1 #
edge $-1 $203 -9.0671180347156763 $298 -1.249172857913905 $196 $299 forward 7 unknown #
coedge $-1 $300 $301 $115 $199 forward $290 $-1 #
edge $-1 $302 -59.252148127704416 $202 -46.761528794656932 $198 $303 forward 7 unknown #
edge $-1 $203 66.805629258897383 $302 83.884395886104926 $116 $304 forward 7 unknown #
coedge $-1 $117 $294 $300 $305 forward $191 $-1 #
vertex $-1 $118 $306 #
vertex $-1 $118 $307 #
straight-curve $-1 23.041171195000246 14.225263481030467 12.544506896015186 -1 0 0 I I #
coedge $-1 $205 $205 $-1 $308 reversed $121 $-1 #
edge $-1 $309 0 $309 6.2831853071796004 $122 $310 forward 7 unknown #
vertex $-1 $125 $311 #
ellipse-curve $-1 36.118352602911656 7.9709073395890471 6.2991972294914511 0.73135370988377701 0 0.68199835119979291 0.34099917559989645 0 -0.36567685494188851 1 I I #
coedge $-1 $209 $209 $-1 $312 reversed $128 $-1 #
edge $-1 $313 0 $313 6.2831853071796004 $129 $314 forward 7 unknown #
vertex $-1 $132 $315 #
ellipse-curve $-1 36.118352602911656 10.316290892629581 6.2991972294914511 0.73135370988377701 0 0.68199835119979291 0.34099917559989645 0 -0.36567685494188851 1 I I #
coedge $-1 $213 $213 $-1 $316 reversed $135 $-1 #
edge $-1 $317 0 $317 6.2831853071796004 $136 $318 forward 7 unknown #
vertex $-1 $139 $319 #
ellipse-curve $-1 36.118352602911656 12.661674445670116 6.2991972294914511 0.73135370988377701 0 0.68199835119979291 0.34099917559989645 0 -0.36567685494188851 1 I I #
face $-1 $-1 $155 $21 $-1 $320 reversed single #
loop $-1 $-1 $233 $140 #
plane-surface $-1 0 28.924078013238123 0 0 -1 0 0 0 -1 forward_v I I I I #
coedge $-1 $321 $231 $234 $322 forward $141 $-1 #
coedge $-1 $237 $143 $144 $225 reversed $88 $-1 #
coedge $-1 $231 $321 $143 $223 reversed $141 $-1 #
edge $-1 $238 -12.544506896015186 $323 12.544506896015186 $222 $324 forward 7 unknown #
coedge $-1 $145 $144 $321 $325 forward $57 $-1 #
edge $-1 $229 -41.942197943052463 $323 41.942197943052463 $221 $326 forward 7 unknown #
coedge $-1 $234 $233 $145 $227 reversed $218 $-1 #
edge $-1 $327 -41.942197943052463 $228 41.942197943052463 $226 $328 forward 7 unknown #
vertex $-1 $147 $329 #
vertex $-1 $240 $330 #
straight-curve $-1 41.942197943052463 0 -12.544506896015186 0 -1 0 I I #
coedge $-1 $220 $222 $148 $232 reversed $141 $-1 #
edge $-1 $235 -28.924078013238123 $238 28.924078013238123 $231 $331 forward 7 unknown #
coedge $-1 $226 $149 $154 $241 forward $218 $-1 #
coedge $-1 $149 $226 $220 $322 reversed $218 $-1 #
vertex $-1 $150 $332 #
straight-curve $-1 0 28.924078013238123 12.544506896015186 -1 0 0 I I #
coedge $-1 $151 $221 $153 $240 reversed $88 $-1 #
vertex $-1 $232 $333 #
straight-curve $-1 0 -28.924078013238123 12.544506896015186 1 0 0 I I #
edge $-1 $156 -12.544506896015186 $229 12.544506896015186 $153 $334 forward 7 unknown #
edge $-1 $157 -12.544506896015186 $228 12.544506896015186 $154 $335 forward 7 unknown #
point $-1 41.942197943052463 -28.924078013238123 12.544506896015186 #
point $-1 41.942197943052463 28.924078013238123 12.544506896015186 #
face $-1 $-1 $261 $22 $-1 $336 forward single #
loop $-1 $-1 $337 $159 #
plane-surface $-1 -16.853184151022091 -36.273485279341955 0 -1 0 0 0 0 1 forward_v I I I I #
coedge $-1 $338 $162 $251 $339 reversed $96 $-1 #
coedge $-1 $162 $338 $340 $341 reversed $96 $-1 #
coedge $-1 $170 $169 $162 $250 reversed $160 $-1 #
edge $-1 $342 -12.544506896015186 $343 12.544506896015186 $249 $344 forward 7 unknown #
coedge $-1 $164 $163 $247 $339 forward $61 $-1 #
coedge $-1 $257 $337 $163 $253 reversed $245 $-1 #
edge $-1 $255 -7.3494072661038281 $345 7.3494072661038317 $252 $346 forward 7 unknown #
edge $-1 $343 -7.3494072661038317 $171 7.3494072661038281 $169 $347 forward 7 unknown #
vertex $-1 $253 $348 #
straight-curve $-1 0 -28.924078013238123 -12.544506896015186 1 0 0 I I #
coedge $-1 $349 $252 $166 $258 reversed $245 $-1 #
edge $-1 $262 -12.544506896015186 $255 12.544506896015186 $257 $350 forward 7 unknown #
coedge $-1 $340 $167 $170 $264 forward $261 $-1 #
coedge $-1 $167 $340 $349 $351 forward $261 $-1 #
loop $-1 $-1 $167 $244 #
vertex $-1 $168 $352 #
straight-curve $-1 0 -28.924078013238123 12.544506896015186 -1 0 0 I I #
edge $-1 $172 -7.3494072661038281 $342 7.3494072661038317 $170 $353 forward 7 unknown #
point $-1 -19.889485435616237 -28.924078013238127 -12.544506896015186 #
point $-1 -19.889485435616237 -28.924078013238127 12.544506896015186 #
face $-1 $-1 $283 $23 $-1 $354 forward single #
plane-surface $-1 -16.853184151022091 36.273485279341948 0 -1 0 0 0 0 1 forward_v I I I I #
coedge $-1 $355 $356 $286 $357 forward $175 $-1 #
coedge $-1 $279 $177 $178 $275 reversed $104 $-1 #
coedge $-1 $177 $279 $282 $358 reversed $104 $-1 #
coedge $-1 $356 $355 $177 $273 reversed $175 $-1 #
edge $-1 $359 -12.544506896015186 $360 12.544506896015186 $272 $361 forward 7 unknown #
coedge $-1 $179 $178 $355 $362 forward $65 $-1 #
edge $-1 $277 -7.3494072661038317 $360 7.3494072661038317 $270 $363 forward 7 unknown #
edge $-1 $364 -7.3494072661038317 $187 7.3494072661038317 $184 $365 forward 7 unknown #
vertex $-1 $275 $366 #
straight-curve $-1 0 28.924078013238123 -12.544506896015186 -1 0 0 I I #
coedge $-1 $271 $270 $181 $280 reversed $104 $-1 #
edge $-1 $284 -12.544506896015186 $277 12.544506896015186 $279 $367 forward 7 unknown #
coedge $-1 $368 $182 $185 $287 forward $283 $-1 #
coedge $-1 $182 $368 $271 $358 forward $283 $-1 #
loop $-1 $-1 $182 $267 #
vertex $-1 $183 $369 #
straight-curve $-1 0 28.924078013238123 12.544506896015186 1 0 0 I I #
coedge $-1 $185 $184 $269 $357 reversed $186 $-1 #
edge $-1 $188 -7.3494072661038317 $370 7.3494072661038317 $185 $371 forward 7 unknown #
point $-1 -16.853184151022091 28.924078013238116 -12.544506896015186 #
point $-1 -16.853184151022091 28.924078013238116 12.544506896015186 #
loop $-1 $-1 $198 $190 #
plane-surface $-1 41.942197943052463 0 0 -1 0 0 0 0 1 forward_v I I I I #
coedge $-1 $293 $193 $195 $297 reversed $112 $-1 #
coedge $-1 $193 $292 $372 $373 reversed $112 $-1 #
coedge $-1 $201 $196 $193 $295 forward $191 $-1 #
edge $-1 $298 7.2533360677706256 $374 18.901026748052217 $294 $375 forward 7 unknown #
coedge $-1 $195 $194 $301 $376 reversed $69 $-1 #
edge $-1 $377 -83.884395886104926 $298 -66.805629258897383 $292 $378 forward 7 unknown #
vertex $-1 $197 $379 #
straight-curve $-1 30.29450726277086 5.1581454463147907 12.544506896015186 0 -1 0 I I #
coedge $-1 $372 $198 $201 $305 reversed $290 $-1 #
coedge $-1 $198 $372 $296 $376 forward $290 $-1 #
vertex $-1 $199 $380 #
straight-curve $-1 41.942197943052463 14.225263481030467 59.306035690672118 0 0 1 I I #
straight-curve $-1 -15.26682174266179 14.225263481030467 61.403051695629983 0.68199835119979291 0 -0.73135370988377701 I I #
edge $-1 $374 6.4073183042286956 $202 14.225263481030467 $300 $381 forward 7 unknown #
point $-1 41.942197943052463 14.225263481030467 12.544506896015186 #
point $-1 30.294507262770871 14.225263481030467 12.544506896015179 #
edge $-1 $382 1 $382 0 $205 $-1 forward 7 unknown #
vertex $-1 $206 $383 #
ellipse-curve $-1 35.386998893027879 7.9709073395890471 5.6171988782916635 0.73135370988377701 0 0.68199835119979291 0.34099917559989645 0 -0.36567685494188851 1 I I #
point $-1 36.459351778511554 7.9709073395890471 5.9335203745495679 #
edge $-1 $384 1 $384 0 $209 $-1 forward 7 unknown #
vertex $-1 $210 $385 #
ellipse-curve $-1 35.386998893027879 10.316290892629581 5.6171988782916635 0.73135370988377701 0 0.68199835119979291 0.34099917559989645 0 -0.36567685494188851 1 I I #
point $-1 36.459351778511554 10.316290892629581 5.9335203745495679 #
edge $-1 $386 1 $386 0 $213 $-1 forward 7 unknown #
vertex $-1 $214 $387 #
ellipse-curve $-1 35.386998893027879 12.661674445670116 5.6171988782916635 0.73135370988377701 0 0.68199835119979291 0.34099917559989645 0 -0.36567685494188851 1 I I #
point $-1 36.459351778511554 12.661674445670116 5.9335203745495679 #
plane-surface $-1 41.942197943052463 0 0 -1 0 0 0 0 1 forward_v I I I I #
coedge $-1 $222 $220 $224 $325 reversed $141 $-1 #
edge $-1 $235 -12.544506896015186 $327 12.544506896015186 $234 $388 forward 7 unknown #
vertex $-1 $325 $389 #
straight-curve $-1 -41.942197943052463 -28.924078013238123 0 0 0 -1 I I #
edge $-1 $323 -28.924078013238123 $327 28.924078013238123 $321 $390 forward 7 unknown #
straight-curve $-1 0 -28.924078013238123 -12.544506896015186 -1 0 0 I I #
vertex $-1 $227 $391 #
straight-curve $-1 0 28.924078013238123 -12.544506896015186 1 0 0 I I #
point $-1 41.942197943052463 28.924078013238123 -12.544506896015186 #
point $-1 41.942197943052463 -28.924078013238123 -12.544506896015186 #
straight-curve $-1 -41.942197943052463 0 12.544506896015186 0 -1 0 I I #
point $-1 -41.942197943052463 28.924078013238123 12.544506896015186 #
point $-1 -41.942197943052463 -28.924078013238123 12.544506896015186 #
straight-curve $-1 41.942197943052463 -28.924078013238123 0 0 0 -1 I I #
straight-curve $-1 41.942197943052463 28.924078013238123 0 0 0 -1 I I #
plane-surface $-1 0 0 12.544506896015186 0 0 1 1 0 0 forward_v I I I I #
coedge $-1 $252 $349 $338 $392 forward $245 $-1 #
coedge $-1 $248 $247 $337 $392 reversed $96 $-1 #
edge $-1 $345 -1.5181506422970727 $343 1.5181506422970727 $247 $393 forward 7 unknown #
coedge $-1 $260 $259 $248 $341 forward $261 $-1 #
edge $-1 $342 -1.5181506422970727 $394 1.5181506422970727 $248 $395 forward 7 unknown #
vertex $-1 $264 $396 #
vertex $-1 $254 $397 #
straight-curve $-1 -19.889485435616237 -43.622892545445787 0 0 0 -1 I I #
vertex $-1 $392 $398 #
straight-curve $-1 -16.853184151022091 -36.273485279341955 -12.544506896015186 0 -1 0 I I #
straight-curve $-1 -19.889485435616237 -36.273485279341955 -12.544506896015186 0 1 0 I I #
point $-1 -16.853184151022091 -28.924078013238127 -12.544506896015186 #
coedge $-1 $337 $257 $260 $351 reversed $245 $-1 #
straight-curve $-1 -16.853184151022091 -28.924078013238123 0 0 0 -1 I I #
edge $-1 $394 -7.3494072661038317 $262 7.3494072661038281 $349 $399 forward 7 unknown #
point $-1 -16.853184151022091 -28.924078013238127 12.544506896015186 #
straight-curve $-1 -19.889485435616237 -36.273485279341955 12.544506896015186 0 -1 0 I I #
plane-surface $-1 0 0 12.544506896015186 0 0 1 1 0 0 forward_v I I I I #
coedge $-1 $272 $269 $274 $362 reversed $175 $-1 #
coedge $-1 $269 $272 $368 $400 reversed $175 $-1 #
edge $-1 $370 -12.544506896015186 $364 12.544506896015186 $286 $401 forward 7 unknown #
edge $-1 $359 -7.3494072661038317 $284 7.3494072661038317 $271 $402 forward 7 unknown #
vertex $-1 $400 $403 #
vertex $-1 $362 $404 #
straight-curve $-1 -19.889485435616237 43.622892545445779 0 0 0 -1 I I #
edge $-1 $360 -1.5181506422970727 $364 1.5181506422970727 $355 $405 forward 7 unknown #
straight-curve $-1 -19.889485435616237 36.273485279341948 -12.544506896015186 0 1 0 I I #
vertex $-1 $276 $406 #
straight-curve $-1 -16.853184151022091 36.273485279341948 -12.544506896015186 0 -1 0 I I #
point $-1 -19.889485435616237 28.924078013238116 -12.544506896015186 #
straight-curve $-1 -19.889485435616237 28.924078013238123 0 0 0 -1 I I #
coedge $-1 $282 $281 $356 $400 forward $283 $-1 #
point $-1 -19.889485435616237 28.924078013238116 12.544506896015186 #
vertex $-1 $287 $407 #
straight-curve $-1 -16.853184151022091 36.273485279341948 12.544506896015186 0 1 0 I I #
coedge $-1 $301 $300 $293 $373 forward $290 $-1 #
edge $-1 $374 46.761528794656932 $377 59.252148127704416 $372 $408 forward 7 unknown #
vertex $-1 $305 $409 #
straight-curve $-1 23.041171195000246 6.4073183042286956 12.544506896015186 1 0 0 I I #
edge $-1 $377 1.249172857913905 $302 9.0671180347156763 $301 $410 forward 7 unknown #
vertex $-1 $376 $411 #
straight-curve $-1 -15.26682174266179 6.4073183042286956 61.403051695629983 -0.68199835119979291 0 0.73135370988377701 I I #
point $-1 30.294507262770871 6.4073183042286956 12.544506896015179 #
point $-1 41.942197943052463 14.225263481030467 0.053887562967702252 #
straight-curve $-1 41.942197943052463 0 12.544506896015186 0 1 0 I I #
vertex $-1 $308 $412 #
point $-1 35.727998068627777 7.9709073395890471 5.251522023349775 #
vertex $-1 $312 $413 #
point $-1 35.727998068627777 10.316290892629581 5.251522023349775 #
vertex $-1 $316 $414 #
point $-1 35.727998068627777 12.661674445670116 5.251522023349775 #
straight-curve $-1 -41.942197943052463 28.924078013238123 0 0 0 -1 I I #
point $-1 -41.942197943052463 -28.924078013238123 -12.544506896015186 #
straight-curve $-1 -41.942197943052463 0 -12.544506896015186 0 1 0 I I #
point $-1 -41.942197943052463 28.924078013238123 -12.544506896015186 #
edge $-1 $394 -12.544506896015186 $345 12.544506896015186 $337 $415 forward 7 unknown #
straight-curve $-1 -18.371334793319164 -43.622892545445787 -12.544506896015186 -1 0 0 I I #
vertex $-1 $351 $416 #
straight-curve $-1 -18.371334793319164 -43.622892545445787 12.544506896015186 1 0 0 I I #
point $-1 -19.889485435616237 -43.622892545445787 12.544506896015186 #
point $-1 -19.889485435616237 -43.622892545445787 -12.544506896015186 #
point $-1 -16.853184151022091 -43.622892545445787 -12.544506896015186 #
straight-curve $-1 -16.853184151022091 -36.273485279341955 12.544506896015186 0 1 0 I I #
edge $-1 $370 -1.5181506422970727 $359 1.5181506422970727 $356 $417 forward 7 unknown #
straight-curve $-1 -16.853184151022091 43.622892545445779 0 0 0 -1 I I #
straight-curve $-1 -19.889485435616237 36.273485279341948 12.544506896015186 0 -1 0 I I #
point $-1 -19.889485435616237 43.622892545445779 12.544506896015186 #
point $-1 -19.889485435616237 43.622892545445779 -12.544506896015186 #
straight-curve $-1 -18.371334793319164 43.622892545445779 -12.544506896015186 1 0 0 I I #
point $-1 -16.853184151022091 43.622892545445779 -12.544506896015186 #
point $-1 -16.853184151022091 43.622892545445779 12.544506896015186 #
straight-curve $-1 41.942197943052463 6.4073183042286956 59.306035690672118 0 0 -1 I I #
point $-1 41.942197943052463 6.4073183042286956 12.544506896015186 #
straight-curve $-1 41.942197943052463 5.1581454463147907 0.053887562967702252 0 1 0 I I #
point $-1 41.942197943052463 6.4073183042286956 0.053887562967702252 #
point $-1 35.021322038085998 7.9709073395890471 5.2761997026917662 #
point $-1 35.021322038085998 10.316290892629581 5.2761997026917662 #
point $-1 35.021322038085998 12.661674445670116 5.2761997026917662 #
straight-curve $-1 -16.853184151022091 -43.622892545445787 0 0 0 -1 I I #
point $-1 -16.853184151022091 -43.622892545445787 12.544506896015186 #
straight-curve $-1 -18.371334793319164 43.622892545445779 12.544506896015186 -1 0 0 I I #
End-of-ACIS-data 