500 0 13 0           
7 Unknown 11 ACIS 5.0 NT 24 Thu Mar 25 19:38:08 1999 
-1 9.9999999999999995e-007 1e-010 
body $-1 $13 $-1 $14 #
body $-1 $15 $-1 $16 #
body $-1 $17 $-1 $18 #
body $-1 $19 $-1 $20 #
body $-1 $21 $-1 $22 #
body $-1 $23 $-1 $24 #
body $-1 $25 $-1 $26 #
body $-1 $27 $-1 $28 #
body $-1 $29 $-1 $30 #
body $-1 $31 $-1 $32 #
body $-1 $33 $-1 $34 #
body $-1 $35 $-1 $36 #
body $-1 $37 $-1 $38 #
lump $-1 $-1 $39 $0 #
transform $-1 1 0 0 0 1 0 0 0 1 78.176213873714403 44.83316516641451 20.4561663397172 1 rotate no_reflect no_shear #
lump $-1 $-1 $40 $1 #
transform $-1 1 0 0 0 1 0 0 0 1 78.176213873714403 44.83316516641451 20.4561663397172 1 rotate no_reflect no_shear #
lump $-1 $-1 $41 $2 #
transform $-1 1 0 0 0 1 0 0 0 1 78.176213873714403 44.83316516641451 20.4561663397172 1 rotate no_reflect no_shear #
lump $-1 $-1 $42 $3 #
transform $-1 1 0 0 0 1 0 0 0 1 78.176213873714403 44.83316516641451 20.4561663397172 1 rotate no_reflect no_shear #
lump $-1 $-1 $43 $4 #
transform $-1 1 0 0 0 1 0 0 0 1 78.176213873714403 44.83316516641451 20.4561663397172 1 rotate no_reflect no_shear #
lump $-1 $-1 $44 $5 #
transform $-1 1 0 0 0 1 0 0 0 1 78.176213873714403 44.83316516641451 20.4561663397172 1 rotate no_reflect no_shear #
lump $-1 $-1 $45 $6 #
transform $-1 1 0 0 0 1 0 0 0 1 78.176213873714403 44.83316516641451 20.4561663397172 1 rotate no_reflect no_shear #
lump $-1 $-1 $46 $7 #
transform $-1 1 0 0 0 1 0 0 0 1 78.176213873714403 44.83316516641451 20.4561663397172 1 rotate no_reflect no_shear #
lump $-1 $-1 $47 $8 #
transform $-1 1 0 0 0 1 0 0 0 1 78.176213873714403 44.83316516641451 20.4561663397172 1 rotate no_reflect no_shear #
lump $-1 $-1 $48 $9 #
transform $-1 1 0 0 0 1 0 0 0 1 78.176213873714403 44.83316516641451 20.4561663397172 1 rotate no_reflect no_shear #
lump $-1 $-1 $49 $10 #
transform $-1 1 0 0 0 1 0 0 0 1 78.176213873714403 44.83316516641451 20.4561663397172 1 rotate no_reflect no_shear #
lump $-1 $-1 $50 $11 #
transform $-1 1 0 0 0 1 0 0 0 1 78.176213873714403 44.83316516641451 20.4561663397172 1 rotate no_reflect no_shear #
lump $-1 $-1 $51 $12 #
transform $-1 1 0 0 0 1 0 0 0 1 78.176213873714403 44.83316516641451 20.4561663397172 1 rotate no_reflect no_shear #
shell $-1 $-1 $-1 $52 $-1 $13 #
shell $-1 $-1 $-1 $53 $-1 $15 #
shell $-1 $-1 $-1 $54 $-1 $17 #
shell $-1 $-1 $-1 $55 $-1 $19 #
shell $-1 $-1 $-1 $56 $-1 $21 #
shell $-1 $-1 $-1 $57 $-1 $23 #
shell $-1 $-1 $-1 $58 $-1 $25 #
shell $-1 $-1 $-1 $59 $-1 $27 #
shell $-1 $-1 $-1 $60 $-1 $29 #
shell $-1 $-1 $-1 $61 $-1 $31 #
shell $-1 $-1 $-1 $62 $-1 $33 #
shell $-1 $-1 $-1 $63 $-1 $35 #
shell $-1 $-1 $-1 $64 $-1 $37 #
face $-1 $65 $66 $39 $-1 $67 forward single #
face $-1 $68 $69 $40 $-1 $70 reversed single #
face $-1 $71 $72 $41 $-1 $73 reversed single #
face $-1 $74 $75 $42 $-1 $76 reversed single #
face $-1 $77 $78 $43 $-1 $79 forward single #
face $-1 $80 $81 $44 $-1 $82 forward single #
face $-1 $83 $84 $45 $-1 $85 forward single #
face $-1 $86 $87 $46 $-1 $88 reversed single #
face $-1 $89 $90 $47 $-1 $91 forward single #
face $-1 $92 $93 $48 $-1 $94 forward single #
face $-1 $95 $96 $49 $-1 $97 reversed single #
face $-1 $98 $99 $50 $-1 $100 forward single #
face $-1 $101 $102 $51 $-1 $103 forward single #
face $-1 $104 $105 $39 $-1 $106 reversed single #
loop $-1 $-1 $107 $52 #
plane-surface $-1 0 0 20.4561663397172 0 0 1 1 0 0 forward_v I I I I #
face $-1 $108 $109 $40 $-1 $110 reversed single #
loop $-1 $-1 $111 $53 #
plane-surface $-1 0 -36.21220862186982 11.749919062260364 0 0 1 1 0 0 forward_v I I I I #
face $-1 $112 $113 $41 $-1 $114 reversed single #
loop $-1 $-1 $115 $54 #
plane-surface $-1 0 36.212208621869827 11.749919062260364 0 0 1 1 0 0 forward_v I I I I #
face $-1 $116 $117 $42 $-1 $118 reversed single #
loop $-1 $-1 $119 $55 #
plane-surface $-1 -20.219555500103709 19.347215385186338 131.13999644117686 0.77714596973225614 0 0.62932038083071107 0.62932038083071107 0 -0.77714596973225614 forward_v I I I I #
face $-1 $120 $121 $43 $-1 $122 forward single #
loop $-1 $123 $124 $56 #
cone-surface $-1 73.198271038728294 14.400793369903056 14.561884919576944 -0.77714596973225614 0 -0.62932038083071107 0.62932038083071107 0 -0.77714596973225614 1 I I 0 1 1 forward I I I I #
face $-1 $125 $126 $44 $-1 $127 forward single #
loop $-1 $128 $129 $57 #
cone-surface $-1 73.198271038728294 19.347215385186338 14.561884919576944 -0.77714596973225614 0 -0.62932038083071107 0.62932038083071107 0 -0.77714596973225614 1 I I 0 1 1 forward I I I I #
face $-1 $130 $131 $45 $-1 $132 forward single #
loop $-1 $133 $134 $58 #
cone-surface $-1 73.198271038728294 24.293637400469613 14.561884919576944 -0.77714596973225614 0 -0.62932038083071107 0.62932038083071107 0 -0.77714596973225614 1 I I 0 1 1 forward I I I I #
face $-1 $135 $136 $46 $-1 $137 reversed single #
loop $-1 $-1 $138 $59 #
plane-surface $-1 -199.68487295548246 -8.7772948008083809 108.62909861420108 0 1 0 -0.77714596973225614 0 0.62932038083071107 forward_v I I I I #
face $-1 $139 $140 $47 $-1 $141 forward single #
loop $-1 $142 $143 $60 #
cone-surface $-1 -73.648495871638815 -6.9556093146172486 15.030087599634708 0.77714596973225614 0 -0.62932038083071107 0.31466019041535553 0 0.38857298486612807 1 I I 0 1 0.5 forward I I I I #
face $-1 $144 $145 $48 $-1 $146 forward single #
loop $-1 $147 $148 $61 #
cone-surface $-1 -73.648495871638815 -4.2230810853305485 15.030087599634708 0.77714596973225614 0 -0.62932038083071107 0.31466019041535553 0 0.38857298486612807 1 I I 0 1 0.5 forward I I I I #
face $-1 $149 $150 $49 $-1 $151 reversed single #
loop $-1 $-1 $152 $62 #
plane-surface $-1 -199.68487295548246 18.813957276516742 108.62909861420108 0 1 0 -0.77714596973225614 0 0.62932038083071107 forward_v I I I I #
face $-1 $153 $154 $50 $-1 $155 forward single #
loop $-1 $156 $157 $63 #
cone-surface $-1 -73.648495871638815 20.635642762707882 15.030087599634708 0.77714596973225614 0 -0.62932038083071107 0.31466019041535553 0 0.38857298486612807 1 I I 0 1 0.5 forward I I I I #
face $-1 $158 $159 $51 $-1 $160 forward single #
loop $-1 $161 $162 $64 #
cone-surface $-1 -73.648495871638815 23.368170991994582 15.030087599634708 0.77714596973225614 0 -0.62932038083071107 0.31466019041535553 0 0.38857298486612807 1 I I 0 1 0.5 forward I I I I #
face $-1 $163 $164 $39 $-1 $165 reversed single #
loop $-1 $-1 $166 $65 #
plane-surface $-1 0 0 -20.4561663397172 0 0 1 1 0 0 forward_v I I I I #
coedge $-1 $167 $168 $169 $170 forward $66 $-1 #
face $-1 $171 $172 $40 $-1 $173 reversed single #
loop $-1 $-1 $174 $68 #
plane-surface $-1 0 -27.591252077325127 16.10304270098878 0 -1 0 0 0 -1 forward_v I I I I #
coedge $-1 $175 $176 $177 $178 reversed $69 $-1 #
face $-1 $179 $180 $41 $-1 $181 forward single #
loop $-1 $-1 $182 $71 #
plane-surface $-1 0 27.591252077325137 16.10304270098878 0 1 0 0 0 1 forward_v I I I I #
coedge $-1 $183 $184 $185 $186 reversed $72 $-1 #
face $-1 $187 $188 $42 $-1 $189 forward single #
loop $-1 $-1 $190 $74 #
plane-surface $-1 101.28910358166436 11.103178693047543 229.53576581499499 0 1 0 0.77714596973225614 0 0.62932038083071107 forward_v I I I I #
coedge $-1 $191 $192 $193 $194 reversed $75 $-1 #
face $-1 $-1 $195 $43 $-1 $196 forward single #
loop $-1 $197 $198 $77 #
cone-surface $-1 72.214641936195079 14.400793369903056 13.765357799175561 -0.77714596973225614 0 -0.62932038083071107 0.31466019041535553 0 -0.38857298486612807 1 I I -0.70710678118654746 0.70710678118654746 0.5 forward I I I I #
loop $-1 $-1 $199 $56 #
coedge $-1 $124 $124 $200 $201 reversed $78 $-1 #
face $-1 $-1 $202 $44 $-1 $203 forward single #
loop $-1 $204 $205 $80 #
cone-surface $-1 72.214641936195079 19.347215385186338 13.765357799175561 -0.77714596973225614 0 -0.62932038083071107 0.31466019041535553 0 -0.38857298486612807 1 I I -0.70710678118654746 0.70710678118654746 0.5 forward I I I I #
loop $-1 $-1 $206 $57 #
coedge $-1 $129 $129 $207 $208 reversed $81 $-1 #
face $-1 $-1 $209 $45 $-1 $210 forward single #
loop $-1 $211 $212 $83 #
cone-surface $-1 72.214641936195079 24.293637400469613 13.765357799175561 -0.77714596973225614 0 -0.62932038083071107 0.31466019041535553 0 -0.38857298486612807 1 I I -0.70710678118654746 0.70710678118654746 0.5 forward I I I I #
loop $-1 $-1 $213 $58 #
coedge $-1 $134 $134 $214 $215 reversed $84 $-1 #
face $-1 $216 $217 $46 $-1 $218 reversed single #
loop $-1 $-1 $219 $86 #
plane-surface $-1 -78.176213873714389 -5.5893451999738986 10.233329240382957 -0.77714596973225614 0 0.62932038083071107 0.62932038083071107 0 0.77714596973225614 forward_v I I I I #
coedge $-1 $220 $221 $222 $223 reversed $87 $-1 #
face $-1 $-1 $224 $47 $-1 $225 forward single #
loop $-1 $226 $227 $89 #
cone-surface $-1 -73.06563639433962 -6.9556093146172486 14.558097314011675 0.77714596973225614 0 -0.62932038083071107 0.15733009520767777 0 0.19428649243306403 1 I I -0.70710678118654746 0.70710678118654746 0.25 forward I I I I #
loop $-1 $-1 $228 $60 #
coedge $-1 $143 $143 $229 $230 reversed $90 $-1 #
face $-1 $-1 $231 $48 $-1 $232 forward single #
loop $-1 $233 $234 $92 #
cone-surface $-1 -73.06563639433962 -4.2230810853305485 14.558097314011675 0.77714596973225614 0 -0.62932038083071107 0.15733009520767777 0 0.19428649243306403 1 I I -0.70710678118654746 0.70710678118654746 0.25 forward I I I I #
loop $-1 $-1 $235 $61 #
coedge $-1 $148 $148 $236 $237 reversed $93 $-1 #
face $-1 $238 $239 $49 $-1 $240 reversed single #
loop $-1 $-1 $241 $95 #
plane-surface $-1 -78.176213873714389 22.001906877351225 10.233329240382957 -0.77714596973225614 0 0.62932038083071107 0.62932038083071107 0 0.77714596973225614 forward_v I I I I #
coedge $-1 $242 $243 $244 $245 reversed $96 $-1 #
face $-1 $-1 $246 $50 $-1 $247 forward single #
loop $-1 $248 $249 $98 #
cone-surface $-1 -73.06563639433962 20.635642762707882 14.558097314011675 0.77714596973225614 0 -0.62932038083071107 0.15733009520767777 0 0.19428649243306403 1 I I -0.70710678118654746 0.70710678118654746 0.25 forward I I I I #
loop $-1 $-1 $250 $63 #
coedge $-1 $157 $157 $251 $252 reversed $99 $-1 #
face $-1 $-1 $253 $51 $-1 $254 forward single #
loop $-1 $255 $256 $101 #
cone-surface $-1 -73.06563639433962 23.368170991994582 14.558097314011675 0.77714596973225614 0 -0.62932038083071107 0.15733009520767777 0 0.19428649243306403 1 I I -0.70710678118654746 0.70710678118654746 0.25 forward I I I I #
loop $-1 $-1 $257 $64 #
coedge $-1 $162 $162 $258 $259 reversed $102 $-1 #
face $-1 $260 $261 $39 $-1 $262 reversed single #
loop $-1 $-1 $263 $104 #
plane-surface $-1 0 -44.83316516641451 0 0 1 0 0 0 1 forward_v I I I I #
coedge $-1 $264 $265 $266 $267 forward $105 $-1 #
coedge $-1 $268 $107 $269 $270 forward $66 $-1 #
coedge $-1 $107 $268 $271 $272 forward $66 $-1 #
coedge $-1 $273 $274 $107 $170 reversed $275 $-1 #
edge $-1 $276 -44.83316516641451 $277 44.83316516641451 $169 $278 forward 7 unknown #
face $-1 $279 $280 $40 $-1 $281 reversed single #
loop $-1 $-1 $282 $108 #
plane-surface $-1 -78.176213873714403 0 0 1 0 0 0 0 -1 forward_v I I I I #
coedge $-1 $283 $284 $285 $286 reversed $109 $-1 #
coedge $-1 $287 $111 $288 $289 reversed $69 $-1 #
coedge $-1 $111 $287 $283 $290 forward $69 $-1 #
coedge $-1 $285 $291 $111 $178 forward $292 $-1 #
edge $-1 $293 -26.727060855479607 $294 -9.4851477663902166 $177 $295 forward 7 unknown #
face $-1 $296 $297 $41 $-1 $298 reversed single #
loop $-1 $-1 $299 $112 #
plane-surface $-1 0 0 20.4561663397172 0 0 1 1 0 0 forward_v I I I I #
coedge $-1 $300 $301 $302 $303 reversed $113 $-1 #
coedge $-1 $304 $115 $300 $305 forward $72 $-1 #
coedge $-1 $115 $304 $306 $307 reversed $72 $-1 #
coedge $-1 $308 $309 $115 $186 forward $297 $-1 #
edge $-1 $310 9.4851477663902237 $311 26.727060855479603 $185 $312 forward 7 unknown #
face $-1 $313 $314 $42 $-1 $315 reversed single #
loop $-1 $-1 $193 $116 #
plane-surface $-1 0 0 20.4561663397172 0 0 1 1 0 0 forward_v I I I I #
coedge $-1 $316 $317 $318 $319 reversed $117 $-1 #
coedge $-1 $320 $119 $321 $322 reversed $75 $-1 #
coedge $-1 $119 $320 $316 $323 forward $75 $-1 #
coedge $-1 $318 $324 $119 $194 forward $188 $-1 #
edge $-1 $325 -17.917644384731968 $326 -1.4295710004543736 $193 $327 forward 7 unknown #
loop $-1 $-1 $200 $120 #
plane-surface $-1 -20.219555500103709 19.347215385186338 131.13999644117686 0.77714596973225614 0 0.62932038083071107 0.62932038083071107 0 -0.77714596973225614 forward_v I I I I #
loop $-1 $-1 $328 $77 #
coedge $-1 $198 $198 $199 $329 reversed $121 $-1 #
coedge $-1 $199 $199 $198 $329 forward $123 $-1 #
coedge $-1 $200 $200 $124 $201 forward $195 $-1 #
edge $-1 $330 0 $330 6.2831853071796004 $200 $331 forward 7 unknown #
loop $-1 $-1 $207 $125 #
plane-surface $-1 -20.219555500103709 19.347215385186338 131.13999644117686 0.77714596973225614 0 0.62932038083071107 0.62932038083071107 0 -0.77714596973225614 forward_v I I I I #
loop $-1 $-1 $332 $80 #
coedge $-1 $205 $205 $206 $333 reversed $126 $-1 #
coedge $-1 $206 $206 $205 $333 forward $128 $-1 #
coedge $-1 $207 $207 $129 $208 forward $202 $-1 #
edge $-1 $334 0 $334 6.2831853071796004 $207 $335 forward 7 unknown #
loop $-1 $-1 $214 $130 #
plane-surface $-1 -20.219555500103709 19.347215385186338 131.13999644117686 0.77714596973225614 0 0.62932038083071107 0.62932038083071107 0 -0.77714596973225614 forward_v I I I I #
loop $-1 $-1 $336 $83 #
coedge $-1 $212 $212 $213 $337 reversed $131 $-1 #
coedge $-1 $213 $213 $212 $337 forward $133 $-1 #
coedge $-1 $214 $214 $134 $215 forward $209 $-1 #
edge $-1 $338 0 $338 6.2831853071796004 $214 $339 forward 7 unknown #
face $-1 $340 $341 $46 $-1 $342 reversed single #
loop $-1 $-1 $343 $135 #
plane-surface $-1 -199.68487295548246 -2.4013955991394162 108.62909861420108 0 -1 0 0.77714596973225614 0 -0.62932038083071107 forward_v I I I I #
coedge $-1 $344 $345 $346 $347 reversed $136 $-1 #
coedge $-1 $221 $138 $348 $349 reversed $87 $-1 #
coedge $-1 $138 $220 $344 $350 reversed $87 $-1 #
coedge $-1 $346 $351 $138 $223 forward $352 $-1 #
edge $-1 $353 21.666222604026828 $354 29.944512638445744 $222 $355 forward 7 unknown #
loop $-1 $-1 $229 $139 #
plane-surface $-1 -78.176213873714389 -5.5893451999738986 10.233329240382957 -0.77714596973225614 0 0.62932038083071107 0.62932038083071107 0 0.77714596973225614 forward_v I I I I #
loop $-1 $-1 $356 $89 #
coedge $-1 $227 $227 $228 $357 reversed $140 $-1 #
coedge $-1 $228 $228 $227 $357 forward $142 $-1 #
coedge $-1 $229 $229 $143 $230 forward $224 $-1 #
edge $-1 $358 0 $358 6.2831853071796004 $229 $359 forward 7 unknown #
loop $-1 $-1 $236 $144 #
plane-surface $-1 -78.176213873714389 -5.5893451999738986 10.233329240382957 -0.77714596973225614 0 0.62932038083071107 0.62932038083071107 0 0.77714596973225614 forward_v I I I I #
loop $-1 $-1 $360 $92 #
coedge $-1 $234 $234 $235 $361 reversed $145 $-1 #
coedge $-1 $235 $235 $234 $361 forward $147 $-1 #
coedge $-1 $236 $236 $148 $237 forward $231 $-1 #
edge $-1 $362 0 $362 6.2831853071796004 $236 $363 forward 7 unknown #
face $-1 $364 $365 $49 $-1 $366 forward single #
loop $-1 $-1 $367 $149 #
plane-surface $-1 -199.68487295548246 25.189856478185707 108.62909861420108 0 -1 0 0.77714596973225614 0 -0.62932038083071107 forward_v I I I I #
coedge $-1 $368 $369 $370 $371 reversed $150 $-1 #
coedge $-1 $243 $152 $372 $373 reversed $96 $-1 #
coedge $-1 $152 $242 $368 $374 reversed $96 $-1 #
coedge $-1 $370 $375 $152 $245 forward $365 $-1 #
edge $-1 $376 21.666222604026828 $377 29.944512638445744 $244 $378 forward 7 unknown #
loop $-1 $-1 $251 $153 #
plane-surface $-1 -78.176213873714389 22.001906877351225 10.233329240382957 -0.77714596973225614 0 0.62932038083071107 0.62932038083071107 0 0.77714596973225614 forward_v I I I I #
loop $-1 $-1 $379 $98 #
coedge $-1 $249 $249 $250 $380 reversed $154 $-1 #
coedge $-1 $250 $250 $249 $380 forward $156 $-1 #
coedge $-1 $251 $251 $157 $252 forward $246 $-1 #
edge $-1 $381 0 $381 6.2831853071796004 $251 $382 forward 7 unknown #
loop $-1 $-1 $258 $158 #
plane-surface $-1 -78.176213873714389 22.001906877351225 10.233329240382957 -0.77714596973225614 0 0.62932038083071107 0.62932038083071107 0 0.77714596973225614 forward_v I I I I #
loop $-1 $-1 $383 $101 #
coedge $-1 $256 $256 $257 $384 reversed $159 $-1 #
coedge $-1 $257 $257 $256 $384 forward $161 $-1 #
coedge $-1 $258 $258 $162 $259 forward $253 $-1 #
edge $-1 $385 0 $385 6.2831853071796004 $258 $386 forward 7 unknown #
face $-1 $387 $388 $39 $-1 $389 reversed single #
loop $-1 $-1 $390 $163 #
plane-surface $-1 -78.176213873714403 0 0 1 0 0 0 0 -1 forward_v I I I I #
coedge $-1 $391 $271 $392 $393 forward $164 $-1 #
coedge $-1 $394 $166 $391 $395 forward $105 $-1 #
coedge $-1 $166 $394 $396 $397 forward $105 $-1 #
coedge $-1 $274 $273 $166 $267 reversed $275 $-1 #
edge $-1 $398 -44.83316516641451 $399 44.83316516641451 $266 $400 forward 7 unknown #
coedge $-1 $168 $167 $401 $402 forward $66 $-1 #
coedge $-1 $403 $404 $167 $270 reversed $388 $-1 #
edge $-1 $277 -78.176213873714403 $405 78.176213873714403 $269 $406 forward 7 unknown #
coedge $-1 $263 $407 $168 $272 reversed $164 $-1 #
edge $-1 $408 -78.176213873714403 $276 78.176213873714403 $271 $409 forward 7 unknown #
coedge $-1 $266 $169 $407 $410 forward $275 $-1 #
coedge $-1 $169 $266 $403 $411 reversed $275 $-1 #
loop $-1 $-1 $273 $387 #
vertex $-1 $170 $412 #
vertex $-1 $170 $413 #
straight-curve $-1 78.176213873714403 0 20.4561663397172 0 1 0 I I #
face $-1 $414 $415 $40 $-1 $416 forward single #
loop $-1 $-1 $288 $171 #
plane-surface $-1 0 -44.83316516641451 0 0 1 0 0 0 1 forward_v I I I I #
coedge $-1 $417 $418 $419 $420 forward $172 $-1 #
coedge $-1 $419 $174 $176 $290 reversed $109 $-1 #
coedge $-1 $174 $419 $421 $422 reversed $109 $-1 #
coedge $-1 $423 $177 $174 $286 forward $292 $-1 #
edge $-1 $294 3.6983977117659741 $424 12.404644989222806 $285 $425 forward 7 unknown #
coedge $-1 $176 $175 $417 $426 reversed $69 $-1 #
coedge $-1 $427 $428 $175 $289 forward $280 $-1 #
edge $-1 $429 -78.176213873714403 $293 78.176213873714403 $288 $430 forward 7 unknown #
edge $-1 $431 -78.176213873714403 $294 78.176213873714403 $283 $432 forward 7 unknown #
coedge $-1 $177 $423 $427 $433 forward $292 $-1 #
loop $-1 $-1 $285 $414 #
vertex $-1 $289 $434 #
vertex $-1 $178 $435 #
straight-curve $-1 78.176213873714403 -18.10610431093491 11.749919062260364 0 1 0 I I #
face $-1 $436 $437 $41 $-1 $438 reversed single #
loop $-1 $-1 $309 $179 #
plane-surface $-1 78.176213873714403 0 0 -1 0 0 0 0 1 forward_v I I I I #
coedge $-1 $439 $440 $301 $441 forward $180 $-1 #
coedge $-1 $442 $182 $183 $305 reversed $113 $-1 #
coedge $-1 $182 $442 $299 $441 reversed $113 $-1 #
coedge $-1 $443 $444 $182 $303 forward $437 $-1 #
edge $-1 $445 3.6983977117659741 $446 12.404644989222806 $302 $447 forward 7 unknown #
coedge $-1 $184 $183 $444 $448 reversed $72 $-1 #
edge $-1 $310 -78.176213873714403 $445 78.176213873714403 $300 $449 forward 7 unknown #
coedge $-1 $450 $451 $184 $307 forward $452 $-1 #
edge $-1 $311 -78.176213873714403 $453 78.176213873714403 $306 $454 forward 7 unknown #
coedge $-1 $455 $185 $451 $456 reversed $297 $-1 #
coedge $-1 $185 $455 $442 $457 forward $297 $-1 #
vertex $-1 $186 $458 #
vertex $-1 $307 $459 #
straight-curve $-1 78.176213873714403 18.106104310934914 11.749919062260364 0 1 0 I I #
face $-1 $-1 $460 $42 $-1 $461 forward single #
loop $-1 $-1 $462 $187 #
plane-surface $-1 78.176213873714403 0 0 -1 0 0 0 0 1 forward_v I I I I #
coedge $-1 $317 $190 $192 $323 reversed $117 $-1 #
coedge $-1 $190 $316 $462 $463 reversed $117 $-1 #
coedge $-1 $464 $193 $190 $319 forward $188 $-1 #
edge $-1 $326 18.765888648244228 $465 27.531662082882221 $318 $466 forward 7 unknown #
coedge $-1 $192 $191 $467 $468 reversed $75 $-1 #
coedge $-1 $469 $470 $191 $322 forward $460 $-1 #
edge $-1 $471 -105.2898860789207 $325 -91.360933987671018 $321 $472 forward 7 unknown #
edge $-1 $473 -156.35242774742875 $326 -142.42347565617905 $316 $474 forward 7 unknown #
coedge $-1 $193 $464 $469 $475 forward $188 $-1 #
vertex $-1 $322 $476 #
vertex $-1 $194 $477 #
straight-curve $-1 69.41044043907641 9.6736076925931691 20.4561663397172 0 -1 0 I I #
coedge $-1 $328 $328 $-1 $478 reversed $197 $-1 #
edge $-1 $479 0 $479 6.2831853071796004 $198 $480 forward 7 unknown #
vertex $-1 $201 $481 #
ellipse-curve $-1 73.793327156395421 14.400793369903056 15.043751849563002 0.77714596973225614 0 0.62932038083071107 0.62932038083071107 0 -0.77714596973225614 1 I I #
coedge $-1 $332 $332 $-1 $482 reversed $204 $-1 #
edge $-1 $483 0 $483 6.2831853071796004 $205 $484 forward 7 unknown #
vertex $-1 $208 $485 #
ellipse-curve $-1 73.793327156395421 19.347215385186338 15.043751849563002 0.77714596973225614 0 0.62932038083071107 0.62932038083071107 0 -0.77714596973225614 1 I I #
coedge $-1 $336 $336 $-1 $486 reversed $211 $-1 #
edge $-1 $487 0 $487 6.2831853071796004 $212 $488 forward 7 unknown #
vertex $-1 $215 $489 #
ellipse-curve $-1 73.793327156395421 24.293637400469613 15.043751849563002 0.77714596973225614 0 0.62932038083071107 0.62932038083071107 0 -0.77714596973225614 1 I I #
face $-1 $-1 $352 $46 $-1 $490 forward single #
loop $-1 $-1 $491 $216 #
plane-surface $-1 -78.176213873714403 0 0 1 0 0 0 0 -1 forward_v I I I I #
coedge $-1 $492 $493 $494 $495 reversed $217 $-1 #
coedge $-1 $496 $219 $221 $350 forward $136 $-1 #
coedge $-1 $219 $496 $492 $497 forward $136 $-1 #
coedge $-1 $494 $222 $219 $347 forward $352 $-1 #
edge $-1 $354 -5.9826222008214316 $498 0.39327700084753303 $346 $499 forward 7 unknown #
coedge $-1 $500 $501 $220 $349 forward $341 $-1 #
edge $-1 $502 -44.081220066717606 $353 -33.858382967383342 $348 $503 forward 7 unknown #
edge $-1 $354 -13.154333288064578 $502 2.2748066086763162e-014 $221 $504 forward 7 unknown #
coedge $-1 $222 $494 $500 $505 forward $352 $-1 #
loop $-1 $-1 $494 $340 #
vertex $-1 $349 $506 #
vertex $-1 $223 $507 #
straight-curve $-1 -99.842436477741231 -8.7772948008083809 20.4561663397172 1 0 0 I I #
coedge $-1 $356 $356 $-1 $508 reversed $226 $-1 #
edge $-1 $509 0 $509 6.2831853071796004 $227 $510 forward 7 unknown #
vertex $-1 $230 $511 #
ellipse-curve $-1 -74.037068856504945 -6.9556093146172486 15.344747790050068 -0.77714596973225614 0 0.62932038083071107 0.31466019041535553 0 0.38857298486612807 1 I I #
coedge $-1 $360 $360 $-1 $512 reversed $233 $-1 #
edge $-1 $513 0 $513 6.2831853071796004 $234 $514 forward 7 unknown #
vertex $-1 $237 $515 #
ellipse-curve $-1 -74.037068856504945 -4.2230810853305485 15.344747790050068 -0.77714596973225614 0 0.62932038083071107 0.31466019041535553 0 0.38857298486612807 1 I I #
face $-1 $-1 $516 $49 $-1 $517 reversed single #
loop $-1 $-1 $244 $238 #
plane-surface $-1 0 0 20.4561663397172 0 0 1 1 0 0 forward_v I I I I #
coedge $-1 $518 $519 $520 $521 reversed $239 $-1 #
coedge $-1 $522 $241 $243 $374 forward $150 $-1 #
coedge $-1 $241 $522 $518 $523 forward $150 $-1 #
coedge $-1 $520 $244 $241 $371 forward $365 $-1 #
edge $-1 $377 7.81300383784113 $524 14.188903039510095 $370 $525 forward 7 unknown #
coedge $-1 $526 $527 $242 $373 forward $516 $-1 #
edge $-1 $528 -44.081220066717606 $376 -33.858382967383342 $372 $529 forward 7 unknown #
edge $-1 $377 -13.154333288064578 $528 2.2748066086763162e-014 $243 $530 forward 7 unknown #
coedge $-1 $244 $520 $526 $531 forward $365 $-1 #
vertex $-1 $245 $532 #
vertex $-1 $245 $533 #
straight-curve $-1 -99.842436477741231 18.813957276516742 20.4561663397172 1 0 0 I I #
coedge $-1 $379 $379 $-1 $534 reversed $248 $-1 #
edge $-1 $535 0 $535 6.2831853071796004 $249 $536 forward 7 unknown #
vertex $-1 $252 $537 #
ellipse-curve $-1 -74.037068856504945 20.635642762707882 15.344747790050068 -0.77714596973225614 0 0.62932038083071107 0.31466019041535553 0 0.38857298486612807 1 I I #
coedge $-1 $383 $383 $-1 $538 reversed $255 $-1 #
edge $-1 $539 0 $539 6.2831853071796004 $256 $540 forward 7 unknown #
vertex $-1 $259 $541 #
ellipse-curve $-1 -74.037068856504945 23.368170991994582 15.344747790050068 -0.77714596973225614 0 0.62932038083071107 0.31466019041535553 0 0.38857298486612807 1 I I #
face $-1 $-1 $275 $39 $-1 $542 reversed single #
loop $-1 $-1 $403 $260 #
plane-surface $-1 0 44.83316516641451 0 0 -1 0 0 0 -1 forward_v I I I I #
coedge $-1 $543 $401 $404 $544 forward $261 $-1 #
coedge $-1 $407 $263 $264 $395 reversed $164 $-1 #
coedge $-1 $401 $543 $263 $393 reversed $261 $-1 #
edge $-1 $408 -20.4561663397172 $545 20.4561663397172 $392 $546 forward 7 unknown #
coedge $-1 $265 $264 $543 $547 forward $105 $-1 #
edge $-1 $399 -78.176213873714403 $545 78.176213873714403 $391 $548 forward 7 unknown #
coedge $-1 $404 $403 $265 $397 reversed $388 $-1 #
edge $-1 $549 -78.176213873714403 $398 78.176213873714403 $396 $550 forward 7 unknown #
vertex $-1 $267 $551 #
vertex $-1 $410 $552 #
straight-curve $-1 78.176213873714403 0 -20.4561663397172 0 -1 0 I I #
coedge $-1 $390 $392 $268 $402 reversed $261 $-1 #
edge $-1 $405 -44.83316516641451 $408 44.83316516641451 $401 $553 forward 7 unknown #
coedge $-1 $396 $269 $274 $411 forward $388 $-1 #
coedge $-1 $269 $396 $390 $544 reversed $388 $-1 #
vertex $-1 $270 $554 #
straight-curve $-1 0 44.83316516641451 20.4561663397172 -1 0 0 I I #
coedge $-1 $271 $391 $273 $410 reversed $164 $-1 #
vertex $-1 $402 $555 #
straight-curve $-1 0 -44.83316516641451 20.4561663397172 1 0 0 I I #
edge $-1 $276 -20.4561663397172 $399 20.4561663397172 $273 $556 forward 7 unknown #
edge $-1 $277 -20.4561663397172 $398 20.4561663397172 $274 $557 forward 7 unknown #
point $-1 78.176213873714403 -44.83316516641451 20.4561663397172 #
point $-1 78.176213873714403 44.83316516641451 20.4561663397172 #
face $-1 $-1 $292 $40 $-1 $558 reversed single #
loop $-1 $-1 $421 $279 #
plane-surface $-1 0 0 20.4561663397172 0 0 1 1 0 0 forward_v I I I I #
coedge $-1 $559 $282 $287 $426 forward $172 $-1 #
coedge $-1 $282 $559 $560 $561 reversed $172 $-1 #
coedge $-1 $284 $283 $282 $420 reversed $109 $-1 #
edge $-1 $562 -12.404644989222806 $431 -3.6983977117659741 $282 $563 forward 7 unknown #
coedge $-1 $560 $564 $284 $422 forward $415 $-1 #
edge $-1 $424 -78.176213873714403 $562 78.176213873714403 $421 $565 forward 7 unknown #
coedge $-1 $291 $285 $564 $566 reversed $292 $-1 #
vertex $-1 $286 $567 #
straight-curve $-1 78.176213873714403 -27.591252077325127 8.0515213504943901 0 0 1 I I #
edge $-1 $431 9.4851477663902166 $429 26.727060855479607 $417 $568 forward 7 unknown #
coedge $-1 $569 $288 $291 $433 reversed $280 $-1 #
coedge $-1 $288 $569 $559 $570 forward $280 $-1 #
vertex $-1 $289 $571 #
straight-curve $-1 0 -44.83316516641451 11.749919062260364 1 0 0 I I #
vertex $-1 $426 $572 #
straight-curve $-1 0 -27.591252077325127 11.749919062260364 1 0 0 I I #
edge $-1 $573 -20.4561663397172 $293 -11.749919062260364 $291 $574 forward 7 unknown #
point $-1 78.176213873714403 -44.833165166414517 11.749919062260364 #
point $-1 78.176213873714403 -27.591252077325127 11.749919062260364 #
face $-1 $-1 $452 $41 $-1 $575 reversed single #
loop $-1 $-1 $302 $296 #
plane-surface $-1 -78.176213873714403 0 0 1 0 0 0 0 -1 forward_v I I I I #
coedge $-1 $576 $299 $455 $577 forward $180 $-1 #
coedge $-1 $299 $576 $443 $578 forward $180 $-1 #
edge $-1 $446 -78.176213873714403 $579 78.176213873714403 $299 $580 forward 7 unknown #
coedge $-1 $301 $300 $309 $457 reversed $113 $-1 #
coedge $-1 $581 $302 $440 $578 reversed $437 $-1 #
coedge $-1 $302 $581 $304 $448 forward $437 $-1 #
vertex $-1 $448 $582 #
vertex $-1 $303 $583 #
straight-curve $-1 -78.176213873714403 27.591252077325137 8.0515213504943901 0 0 1 I I #
edge $-1 $453 -26.727060855479603 $445 -9.4851477663902237 $444 $584 forward 7 unknown #
straight-curve $-1 0 27.591252077325137 11.749919062260364 -1 0 0 I I #
coedge $-1 $585 $306 $581 $586 reversed $452 $-1 #
coedge $-1 $306 $585 $308 $456 forward $452 $-1 #
loop $-1 $-1 $306 $436 #
vertex $-1 $307 $587 #
straight-curve $-1 0 44.83316516641451 11.749919062260364 -1 0 0 I I #
coedge $-1 $309 $308 $439 $577 reversed $297 $-1 #
edge $-1 $588 -20.4561663397172 $311 -11.749919062260364 $308 $589 forward 7 unknown #
edge $-1 $579 -12.404644989222806 $310 -3.6983977117659741 $309 $590 forward 7 unknown #
point $-1 78.176213873714403 27.591252077325137 11.749919062260364 #
point $-1 78.176213873714403 44.833165166414517 11.749919062260364 #
loop $-1 $-1 $321 $313 #
plane-surface $-1 0 27.591252077325137 16.10304270098878 0 1 0 0 0 1 forward_v I I I I #
coedge $-1 $467 $591 $317 $463 forward $314 $-1 #
edge $-1 $465 94.311716567780294 $473 105.13654554808868 $462 $592 forward 7 unknown #
coedge $-1 $324 $318 $591 $593 forward $188 $-1 #
vertex $-1 $593 $594 #
straight-curve $-1 50.644551790832182 11.103178693047543 20.4561663397172 1 0 0 I I #
coedge $-1 $595 $462 $320 $468 forward $314 $-1 #
edge $-1 $473 1.4295710004543736 $471 17.917644384731965 $467 $596 forward 7 unknown #
coedge $-1 $470 $321 $324 $475 reversed $460 $-1 #
coedge $-1 $321 $469 $595 $597 reversed $460 $-1 #
vertex $-1 $597 $598 #
straight-curve $-1 11.915142668905837 27.591252077325137 91.456947979210426 -0.62932038083071107 0 0.77714596973225614 I I #
vertex $-1 $468 $599 #
straight-curve $-1 -20.219555500103709 11.103178693047543 131.13999644117686 -0.62932038083071107 0 0.77714596973225614 I I #
edge $-1 $600 -78.176213873714403 $325 -69.410440439076424 $324 $601 forward 7 unknown #
point $-1 69.410440439076424 27.591252077325137 20.4561663397172 #
point $-1 69.41044043907641 11.103178693047543 20.4561663397172 #
edge $-1 $602 1 $602 0 $328 $-1 forward 7 unknown #
vertex $-1 $329 $603 #
ellipse-curve $-1 72.603214921061209 14.400793369903056 14.080017989590917 0.77714596973225614 0 0.62932038083071107 0.62932038083071107 0 -0.77714596973225614 1 I I #
point $-1 74.422647537226098 14.400793369903056 14.266605879830713 #
edge $-1 $604 1 $604 0 $332 $-1 forward 7 unknown #
vertex $-1 $333 $605 #
ellipse-curve $-1 72.603214921061209 19.347215385186338 14.080017989590917 0.77714596973225614 0 0.62932038083071107 0.62932038083071107 0 -0.77714596973225614 1 I I #
point $-1 74.422647537226098 19.347215385186338 14.266605879830713 #
edge $-1 $606 1 $606 0 $336 $-1 forward 7 unknown #
vertex $-1 $337 $607 #
ellipse-curve $-1 72.603214921061209 24.293637400469613 14.080017989590917 0.77714596973225614 0 0.62932038083071107 0.62932038083071107 0 -0.77714596973225614 1 I I #
point $-1 74.422647537226098 24.293637400469613 14.266605879830713 #
plane-surface $-1 0 0 20.4561663397172 0 0 1 1 0 0 forward_v I I I I #
coedge $-1 $501 $500 $493 $608 forward $341 $-1 #
coedge $-1 $493 $343 $345 $497 reversed $217 $-1 #
coedge $-1 $343 $492 $491 $608 reversed $217 $-1 #
coedge $-1 $351 $346 $343 $495 forward $352 $-1 #
edge $-1 $498 -29.944512638445744 $609 -21.666222604026828 $494 $610 forward 7 unknown #
coedge $-1 $345 $344 $501 $611 reversed $136 $-1 #
edge $-1 $612 -2.2748066086763162e-014 $498 13.154333288064578 $492 $613 forward 7 unknown #
vertex $-1 $347 $614 #
straight-curve $-1 -69.897923839295487 -2.7946725999869493 20.4561663397172 0 1 0 I I #
coedge $-1 $491 $348 $351 $505 reversed $341 $-1 #
coedge $-1 $348 $491 $496 $611 forward $341 $-1 #
vertex $-1 $349 $615 #
straight-curve $-1 -78.176213873714403 -8.7772948008083809 54.314549307100542 0 0 1 I I #
straight-curve $-1 -78.176213873714389 -8.7772948008083809 10.233329240382957 -0.62932038083071107 0 -0.77714596973225614 I I #
edge $-1 $609 2.4013955991394162 $353 8.7772948008083809 $500 $616 forward 7 unknown #
point $-1 -78.176213873714403 -8.7772948008083809 20.4561663397172 #
point $-1 -69.897923839295487 -8.7772948008083809 20.4561663397172 #
edge $-1 $617 1 $617 0 $356 $-1 forward 7 unknown #
vertex $-1 $357 $618 #
ellipse-curve $-1 -73.259922886772685 -6.9556093146172486 14.715427409219354 -0.77714596973225614 0 0.62932038083071107 0.31466019041535553 0 0.38857298486612807 1 I I #
point $-1 -73.722408666089578 -6.9556093146172486 15.733320774916193 #
edge $-1 $619 1 $619 0 $360 $-1 forward 7 unknown #
vertex $-1 $361 $620 #
ellipse-curve $-1 -73.259922886772685 -4.2230810853305485 14.715427409219354 -0.77714596973225614 0 0.62932038083071107 0.31466019041535553 0 0.38857298486612807 1 I I #
point $-1 -73.722408666089578 -4.2230810853305485 15.733320774916193 #
loop $-1 $-1 $372 $364 #
plane-surface $-1 -78.176213873714403 0 0 1 0 0 0 0 -1 forward_v I I I I #
coedge $-1 $519 $367 $369 $523 reversed $239 $-1 #
coedge $-1 $367 $518 $621 $622 reversed $239 $-1 #
coedge $-1 $375 $370 $367 $521 forward $365 $-1 #
edge $-1 $524 -29.944512638445744 $623 -21.666222604026828 $520 $624 forward 7 unknown #
coedge $-1 $369 $368 $527 $625 reversed $150 $-1 #
edge $-1 $626 -2.2748066086763162e-014 $524 13.154333288064578 $518 $627 forward 7 unknown #
vertex $-1 $371 $628 #
straight-curve $-1 -69.897923839295487 11.000953438675612 20.4561663397172 0 1 0 I I #
coedge $-1 $621 $372 $375 $531 reversed $516 $-1 #
coedge $-1 $372 $621 $522 $625 forward $516 $-1 #
vertex $-1 $373 $629 #
straight-curve $-1 -78.176213873714403 18.813957276516742 54.314549307100542 0 0 1 I I #
straight-curve $-1 -78.176213873714389 18.813957276516742 10.233329240382957 -0.62932038083071107 0 -0.77714596973225614 I I #
edge $-1 $623 -25.189856478185707 $376 -18.813957276516742 $526 $630 forward 7 unknown #
point $-1 -78.176213873714403 18.813957276516742 20.4561663397172 #
point $-1 -69.897923839295487 18.813957276516742 20.4561663397172 #
edge $-1 $631 1 $631 0 $379 $-1 forward 7 unknown #
vertex $-1 $380 $632 #
ellipse-curve $-1 -73.259922886772685 20.635642762707882 14.715427409219354 -0.77714596973225614 0 0.62932038083071107 0.31466019041535553 0 0.38857298486612807 1 I I #
point $-1 -73.722408666089578 20.635642762707882 15.733320774916193 #
edge $-1 $633 1 $633 0 $383 $-1 forward 7 unknown #
vertex $-1 $384 $634 #
ellipse-curve $-1 -73.259922886772685 23.368170991994582 14.715427409219354 -0.77714596973225614 0 0.62932038083071107 0.31466019041535553 0 0.38857298486612807 1 I I #
point $-1 -73.722408666089578 23.368170991994582 15.733320774916193 #
plane-surface $-1 78.176213873714403 0 0 -1 0 0 0 0 1 forward_v I I I I #
coedge $-1 $392 $390 $394 $547 reversed $261 $-1 #
edge $-1 $405 -20.4561663397172 $549 20.4561663397172 $404 $635 forward 7 unknown #
vertex $-1 $547 $636 #
straight-curve $-1 -78.176213873714403 -44.83316516641451 0 0 0 -1 I I #
edge $-1 $545 -44.83316516641451 $549 44.83316516641451 $543 $637 forward 7 unknown #
straight-curve $-1 0 -44.83316516641451 -20.4561663397172 -1 0 0 I I #
vertex $-1 $397 $638 #
straight-curve $-1 0 44.83316516641451 -20.4561663397172 1 0 0 I I #
point $-1 78.176213873714403 44.83316516641451 -20.4561663397172 #
point $-1 78.176213873714403 -44.83316516641451 -20.4561663397172 #
straight-curve $-1 -78.176213873714403 0 20.4561663397172 0 -1 0 I I #
point $-1 -78.176213873714403 44.83316516641451 20.4561663397172 #
point $-1 -78.176213873714403 -44.83316516641451 20.4561663397172 #
straight-curve $-1 78.176213873714403 -44.83316516641451 0 0 0 -1 I I #
straight-curve $-1 78.176213873714403 44.83316516641451 0 0 0 -1 I I #
plane-surface $-1 78.176213873714403 0 0 -1 0 0 0 0 1 forward_v I I I I #
coedge $-1 $418 $417 $428 $570 reversed $172 $-1 #
coedge $-1 $639 $421 $418 $561 forward $415 $-1 #
edge $-1 $562 27.591252077325127 $640 44.83316516641451 $418 $641 forward 7 unknown #
vertex $-1 $561 $642 #
straight-curve $-1 -78.176213873714403 -27.591252077325127 8.0515213504943901 0 0 -1 I I #
coedge $-1 $421 $639 $423 $566 forward $415 $-1 #
straight-curve $-1 0 -27.591252077325127 20.4561663397172 -1 0 0 I I #
edge $-1 $573 -44.83316516641451 $424 -27.591252077325127 $423 $643 forward 7 unknown #
point $-1 78.176213873714403 -27.591252077325127 20.456166339717196 #
straight-curve $-1 -78.176213873714403 -18.10610431093491 11.749919062260364 0 -1 0 I I #
coedge $-1 $428 $427 $639 $644 reversed $280 $-1 #
edge $-1 $640 -20.4561663397172 $429 -11.749919062260364 $559 $645 forward 7 unknown #
point $-1 -78.176213873714403 -44.833165166414517 11.749919062260364 #
point $-1 -78.176213873714403 -27.591252077325127 11.749919062260364 #
vertex $-1 $566 $646 #
straight-curve $-1 78.176213873714403 -44.83316516641451 0 0 0 -1 I I #
plane-surface $-1 0 44.83316516641451 0 0 -1 0 0 0 -1 forward_v I I I I #
coedge $-1 $440 $439 $585 $647 forward $180 $-1 #
edge $-1 $579 27.591252077325137 $588 44.83316516641451 $455 $648 forward 7 unknown #
edge $-1 $649 -44.83316516641451 $446 -27.591252077325137 $443 $650 forward 7 unknown #
vertex $-1 $577 $651 #
straight-curve $-1 0 27.591252077325137 20.4561663397172 1 0 0 I I #
coedge $-1 $444 $443 $450 $586 forward $437 $-1 #
point $-1 -78.176213873714403 27.591252077325137 11.749919062260364 #
point $-1 -78.176213873714403 27.591252077325137 20.456166339717196 #
straight-curve $-1 -78.176213873714403 18.106104310934914 11.749919062260364 0 -1 0 I I #
coedge $-1 $451 $450 $576 $647 reversed $452 $-1 #
edge $-1 $649 -20.4561663397172 $453 -11.749919062260364 $450 $652 forward 7 unknown #
point $-1 -78.176213873714403 44.833165166414517 11.749919062260364 #
vertex $-1 $577 $653 #
straight-curve $-1 78.176213873714403 44.83316516641451 0 0 0 -1 I I #
straight-curve $-1 78.176213873714403 27.591252077325137 8.0515213504943901 0 0 -1 I I #
coedge $-1 $462 $595 $464 $593 reversed $314 $-1 #
straight-curve $-1 78.176213873714403 11.103178693047543 114.76788290749749 0 0 -1 I I #
edge $-1 $465 11.103178693047543 $600 27.591252077325137 $591 $654 forward 7 unknown #
point $-1 78.176213873714403 11.103178693047543 20.4561663397172 #
coedge $-1 $591 $467 $470 $597 forward $314 $-1 #
straight-curve $-1 78.176213873714403 9.6736076925931691 9.6313373594088105 0 1 0 I I #
edge $-1 $471 -105.13654554808868 $600 -94.311716567780294 $595 $655 forward 7 unknown #
point $-1 78.176213873714403 27.591252077325134 9.6313373594088176 #
point $-1 78.176213873714403 11.103178693047543 9.6313373594088176 #
vertex $-1 $475 $656 #
straight-curve $-1 0 27.591252077325137 20.4561663397172 -1 0 0 I I #
vertex $-1 $478 $657 #
point $-1 73.232535301891915 14.400793369903056 13.302872019858661 #
vertex $-1 $482 $658 #
point $-1 73.232535301891915 19.347215385186338 13.302872019858661 #
vertex $-1 $486 $659 #
point $-1 73.232535301891915 24.293637400469613 13.302872019858661 #
edge $-1 $609 33.858382967383342 $612 44.081220066717606 $491 $660 forward 7 unknown #
vertex $-1 $505 $661 #
straight-curve $-1 -99.842436477741231 -2.4013955991394162 20.4561663397172 -1 0 0 I I #
edge $-1 $612 -0.39327700084753303 $502 5.9826222008214316 $501 $662 forward 7 unknown #
vertex $-1 $611 $663 #
straight-curve $-1 -78.176213873714389 -2.4013955991394162 10.233329240382957 0.62932038083071107 0 0.77714596973225614 I I #
point $-1 -69.897923839295487 -2.4013955991394162 20.4561663397172 #
point $-1 -78.176213873714403 -8.7772948008083809 10.23332924038294 #
straight-curve $-1 -78.176213873714403 0 20.4561663397172 0 -1 0 I I #
vertex $-1 $508 $664 #
point $-1 -72.945262696357332 -6.9556093146172486 15.104000394085482 #
vertex $-1 $512 $665 #
point $-1 -72.945262696357332 -4.2230810853305485 15.104000394085482 #
coedge $-1 $527 $526 $519 $622 forward $516 $-1 #
edge $-1 $623 33.858382967383342 $626 44.081220066717606 $621 $666 forward 7 unknown #
vertex $-1 $531 $667 #
straight-curve $-1 -99.842436477741231 25.189856478185707 20.4561663397172 -1 0 0 I I #
edge $-1 $626 -14.188903039510095 $528 -7.81300383784113 $527 $668 forward 7 unknown #
vertex $-1 $625 $669 #
straight-curve $-1 -78.176213873714389 25.189856478185707 10.233329240382957 0.62932038083071107 0 0.77714596973225614 I I #
point $-1 -69.897923839295487 25.189856478185707 20.4561663397172 #
point $-1 -78.176213873714403 18.813957276516742 10.23332924038294 #
straight-curve $-1 -78.176213873714403 0 20.4561663397172 0 -1 0 I I #
vertex $-1 $534 $670 #
point $-1 -72.945262696357332 20.635642762707882 15.104000394085482 #
vertex $-1 $538 $671 #
point $-1 -72.945262696357332 23.368170991994582 15.104000394085482 #
straight-curve $-1 -78.176213873714403 44.83316516641451 0 0 0 -1 I I #
point $-1 -78.176213873714403 -44.83316516641451 -20.4561663397172 #
straight-curve $-1 -78.176213873714403 0 -20.4561663397172 0 1 0 I I #
point $-1 -78.176213873714403 44.83316516641451 -20.4561663397172 #
coedge $-1 $564 $560 $569 $644 forward $415 $-1 #
vertex $-1 $561 $672 #
straight-curve $-1 -78.176213873714403 0 20.4561663397172 0 -1 0 I I #
point $-1 -78.176213873714403 -27.591252077325127 20.456166339717196 #
straight-curve $-1 78.176213873714403 0 20.4561663397172 0 1 0 I I #
edge $-1 $640 -78.176213873714403 $573 78.176213873714403 $569 $673 forward 7 unknown #
straight-curve $-1 -78.176213873714403 -44.83316516641451 0 0 0 -1 I I #
point $-1 78.176213873714403 -44.83316516641451 20.4561663397172 #
edge $-1 $588 -78.176213873714403 $649 78.176213873714403 $585 $674 forward 7 unknown #
straight-curve $-1 78.176213873714403 0 20.4561663397172 0 1 0 I I #
vertex $-1 $647 $675 #
straight-curve $-1 -78.176213873714403 0 20.4561663397172 0 -1 0 I I #
point $-1 78.176213873714403 27.591252077325137 20.456166339717196 #
straight-curve $-1 -78.176213873714403 44.83316516641451 0 0 0 -1 I I #
point $-1 78.176213873714403 44.83316516641451 20.4561663397172 #
straight-curve $-1 78.176213873714403 0 20.4561663397172 0 1 0 I I #
straight-curve $-1 78.176213873714403 27.591252077325134 114.76788290749749 0 0 1 I I #
point $-1 78.176213873714403 27.591252077325137 20.456166339717196 #
point $-1 71.826068951328949 14.400793369903056 13.450697608760205 #
point $-1 71.826068951328949 19.347215385186338 13.450697608760205 #
point $-1 71.826068951328949 24.293637400469613 13.450697608760205 #
straight-curve $-1 -78.176213873714403 -2.4013955991394162 54.314549307100542 0 0 -1 I I #
point $-1 -78.176213873714403 -2.4013955991394162 20.4561663397172 #
straight-curve $-1 -78.176213873714403 -2.7946725999869493 10.233329240382943 0 -1 0 I I #
point $-1 -78.176213873714403 -2.4013955991394162 10.23332924038294 #
point $-1 -72.871349901906555 -6.9556093146172486 14.400767218803997 #
point $-1 -72.871349901906555 -4.2230810853305485 14.400767218803997 #
straight-curve $-1 -78.176213873714403 25.189856478185707 54.314549307100542 0 0 -1 I I #
point $-1 -78.176213873714403 25.189856478185707 20.4561663397172 #
straight-curve $-1 -78.176213873714403 11.000953438675612 10.233329240382943 0 -1 0 I I #
point $-1 -78.176213873714403 25.189856478185707 10.23332924038294 #
point $-1 -72.871349901906555 20.635642762707882 14.400767218803997 #
point $-1 -72.871349901906555 23.368170991994582 14.400767218803997 #
point $-1 -78.176213873714403 -44.83316516641451 20.4561663397172 #
straight-curve $-1 0 -44.83316516641451 20.4561663397172 1 0 0 I I #
straight-curve $-1 0 44.83316516641451 20.4561663397172 -1 0 0 I I #
point $-1 -78.176213873714403 44.83316516641451 20.4561663397172 #
End-of-ACIS-data 