500 0 8 0           
7 Unknown 11 ACIS 5.0 NT 24 Fri Mar 26 15:01:11 1999 
-1 9.9999999999999995e-007 1e-010 
body $-1 $8 $-1 $9 #
body $-1 $10 $-1 $11 #
body $-1 $12 $-1 $13 #
body $-1 $14 $-1 $15 #
body $-1 $16 $-1 $17 #
body $-1 $18 $-1 $19 #
body $-1 $20 $-1 $21 #
body $-1 $22 $-1 $23 #
lump $-1 $-1 $24 $0 #
transform $-1 1 0 0 0 1 0 0 0 1 57.388225959044163 36.205880951516477 9.061359536091226 1 rotate no_reflect no_shear #
lump $-1 $-1 $25 $1 #
transform $-1 1 0 0 0 1 0 0 0 1 57.388225959044163 36.205880951516477 9.061359536091226 1 rotate no_reflect no_shear #
lump $-1 $-1 $26 $2 #
transform $-1 1 0 0 0 1 0 0 0 1 57.388225959044163 36.205880951516477 9.061359536091226 1 rotate no_reflect no_shear #
lump $-1 $-1 $27 $3 #
transform $-1 1 0 0 0 1 0 0 0 1 57.388225959044163 36.205880951516477 9.061359536091226 1 rotate no_reflect no_shear #
lump $-1 $-1 $28 $4 #
transform $-1 1 0 0 0 1 0 0 0 1 57.388225959044163 36.205880951516477 9.061359536091226 1 rotate no_reflect no_shear #
lump $-1 $-1 $29 $5 #
transform $-1 1 0 0 0 1 0 0 0 1 57.388225959044163 36.205880951516477 9.061359536091226 1 rotate no_reflect no_shear #
lump $-1 $-1 $30 $6 #
transform $-1 1 0 0 0 1 0 0 0 1 57.388225959044163 36.205880951516477 9.061359536091226 1 rotate no_reflect no_shear #
lump $-1 $-1 $31 $7 #
transform $-1 1 0 0 0 1 0 0 0 1 57.388225959044163 36.205880951516477 9.061359536091226 1 rotate no_reflect no_shear #
shell $-1 $-1 $-1 $32 $-1 $8 #
shell $-1 $-1 $-1 $33 $-1 $10 #
shell $-1 $-1 $-1 $34 $-1 $12 #
shell $-1 $-1 $-1 $35 $-1 $14 #
shell $-1 $-1 $-1 $36 $-1 $16 #
shell $-1 $-1 $-1 $37 $-1 $18 #
shell $-1 $-1 $-1 $38 $-1 $20 #
shell $-1 $-1 $-1 $39 $-1 $22 #
face $-1 $40 $41 $24 $-1 $42 forward single #
face $-1 $43 $44 $25 $-1 $45 forward single #
face $-1 $46 $47 $26 $-1 $48 reversed single #
face $-1 $49 $50 $27 $-1 $51 forward single #
face $-1 $52 $53 $28 $-1 $54 forward single #
face $-1 $55 $56 $29 $-1 $57 forward single #
face $-1 $58 $59 $30 $-1 $60 reversed single #
face $-1 $61 $62 $31 $-1 $63 forward single #
face $-1 $64 $65 $24 $-1 $66 reversed single #
loop $-1 $-1 $67 $32 #
plane-surface $-1 0 0 9.061359536091226 0 0 1 1 0 0 forward_v I I I I #
face $-1 $68 $69 $25 $-1 $70 forward single #
loop $-1 $-1 $71 $33 #
plane-surface $-1 0 -36.205880951516477 0 0 1 0 0 0 1 forward_v I I I I #
face $-1 $72 $73 $26 $-1 $74 reversed single #
loop $-1 $-1 $75 $34 #
plane-surface $-1 -137.11864995218579 -26.81434468787279 88.316630846606586 0 1 0 -0.69465837861970381 0 0.71933979245794832 forward_v I I I I #
face $-1 $76 $77 $27 $-1 $78 forward single #
loop $-1 $79 $80 $35 #
cone-surface $-1 -55.328130813196964 -25.428695963114514 7.0476907442112617 0.69465837861970381 0 -0.71933979245794832 0.35966989622897416 0 0.3473291893098519 1 I I 0 1 0.5 forward I I I I #
face $-1 $81 $82 $28 $-1 $83 forward single #
loop $-1 $84 $85 $36 #
cone-surface $-1 -55.328130813196964 -23.350222875977103 7.0476907442112617 0.69465837861970381 0 -0.71933979245794832 0.35966989622897416 0 0.3473291893098519 1 I I 0 1 0.5 forward I I I I #
face $-1 $86 $87 $29 $-1 $88 forward single #
loop $-1 $89 $90 $37 #
cone-surface $-1 -55.328130813196964 -21.271749788839688 7.0476907442112617 0.69465837861970381 0 -0.71933979245794832 0.35966989622897416 0 0.3473291893098519 1 I I 0 1 0.5 forward I I I I #
face $-1 $91 $92 $30 $-1 $93 reversed single #
loop $-1 $-1 $94 $38 #
plane-surface $-1 77.16986677083311 27.854792302912941 165.73680896175244 0 1 0 0.78801076186113728 0 0.61566146476048833 forward_v I I I I #
face $-1 $95 $96 $31 $-1 $97 forward single #
loop $-1 $98 $99 $39 #
cone-surface $-1 54.249714427354327 32.030336627214709 5.7457398819978245 -0.78801076186113728 0 -0.61566146476048833 0.61566146476048833 0 -0.78801076186113728 1 I I 0 1 1 forward I I I I #
face $-1 $100 $101 $24 $-1 $102 reversed single #
loop $-1 $-1 $103 $40 #
plane-surface $-1 0 0 -9.061359536091226 0 0 1 1 0 0 forward_v I I I I #
coedge $-1 $104 $105 $106 $107 forward $41 $-1 #
face $-1 $108 $109 $25 $-1 $110 reversed single #
loop $-1 $-1 $111 $43 #
plane-surface $-1 0 0 9.061359536091226 0 0 1 1 0 0 forward_v I I I I #
coedge $-1 $112 $113 $114 $115 forward $44 $-1 #
face $-1 $116 $117 $26 $-1 $118 reversed single #
loop $-1 $-1 $119 $46 #
plane-surface $-1 -57.388225959044163 -23.350222875977103 5.7533617447892453 -0.69465837861970381 0 0.71933979245794832 0.71933979245794832 0 0.69465837861970381 forward_v I I I I #
coedge $-1 $120 $121 $122 $123 reversed $47 $-1 #
face $-1 $-1 $124 $27 $-1 $125 forward single #
loop $-1 $126 $127 $49 #
cone-surface $-1 -54.807137029232187 -25.428695963114514 6.5081858998678008 0.69465837861970381 0 -0.71933979245794832 0.17983494811448708 0 0.17366459465492595 1 I I -0.70710678118654746 0.70710678118654746 0.25 forward I I I I #
loop $-1 $-1 $128 $35 #
coedge $-1 $80 $80 $129 $130 reversed $50 $-1 #
face $-1 $-1 $131 $28 $-1 $132 forward single #
loop $-1 $133 $134 $52 #
cone-surface $-1 -54.807137029232187 -23.350222875977103 6.5081858998678008 0.69465837861970381 0 -0.71933979245794832 0.17983494811448708 0 0.17366459465492595 1 I I -0.70710678118654746 0.70710678118654746 0.25 forward I I I I #
loop $-1 $-1 $135 $36 #
coedge $-1 $85 $85 $136 $137 reversed $53 $-1 #
face $-1 $-1 $138 $29 $-1 $139 forward single #
loop $-1 $140 $141 $55 #
cone-surface $-1 -54.807137029232187 -21.271749788839688 6.5081858998678008 0.69465837861970381 0 -0.71933979245794832 0.17983494811448708 0 0.17366459465492595 1 I I -0.70710678118654746 0.70710678118654746 0.25 forward I I I I #
loop $-1 $-1 $142 $37 #
coedge $-1 $90 $90 $143 $144 reversed $56 $-1 #
face $-1 $145 $146 $30 $-1 $147 reversed single #
loop $-1 $-1 $148 $58 #
plane-surface $-1 -13.275212548857866 32.030336627214709 95.07337045385043 0.78801076186113728 0 0.61566146476048833 0.61566146476048833 0 -0.78801076186113728 forward_v I I I I #
coedge $-1 $149 $150 $151 $152 reversed $59 $-1 #
face $-1 $-1 $153 $31 $-1 $154 forward single #
loop $-1 $155 $156 $61 #
cone-surface $-1 52.448943778751129 32.030336627214709 4.3388236964900582 -0.78801076186113728 0 -0.61566146476048833 0.30783073238024417 0 -0.39400538093056864 1 I I -0.70710678118654746 0.70710678118654746 0.5 forward I I I I #
loop $-1 $-1 $157 $39 #
coedge $-1 $99 $99 $158 $159 reversed $62 $-1 #
face $-1 $160 $161 $24 $-1 $162 reversed single #
loop $-1 $-1 $163 $64 #
plane-surface $-1 0 -36.205880951516477 0 0 1 0 0 0 1 forward_v I I I I #
coedge $-1 $164 $165 $166 $167 forward $65 $-1 #
coedge $-1 $168 $67 $169 $170 forward $41 $-1 #
coedge $-1 $67 $168 $171 $172 forward $41 $-1 #
coedge $-1 $173 $174 $67 $107 reversed $175 $-1 #
edge $-1 $176 -36.205880951516477 $177 36.205880951516477 $106 $178 forward 7 unknown #
face $-1 $179 $180 $25 $-1 $181 reversed single #
loop $-1 $-1 $182 $68 #
plane-surface $-1 -57.388225959044163 0 0 1 0 0 0 0 -1 forward_v I I I I #
coedge $-1 $183 $184 $185 $186 forward $69 $-1 #
coedge $-1 $185 $71 $182 $187 reversed $44 $-1 #
coedge $-1 $71 $185 $188 $189 reversed $44 $-1 #
coedge $-1 $190 $191 $71 $115 reversed $180 $-1 #
edge $-1 $192 -57.388225959044163 $193 57.388225959044163 $114 $194 forward 7 unknown #
face $-1 $195 $196 $26 $-1 $197 forward single #
loop $-1 $-1 $198 $72 #
plane-surface $-1 -137.11864995218579 -19.886101064081416 88.316630846606586 0 -1 0 0.69465837861970381 0 -0.71933979245794832 forward_v I I I I #
coedge $-1 $199 $200 $201 $202 reversed $73 $-1 #
coedge $-1 $121 $75 $203 $204 reversed $47 $-1 #
coedge $-1 $75 $120 $199 $205 reversed $47 $-1 #
coedge $-1 $201 $206 $75 $123 forward $196 $-1 #
edge $-1 $207 11.171099017048732 $208 14.596630930123425 $122 $209 forward 7 unknown #
loop $-1 $-1 $129 $76 #
plane-surface $-1 -57.388225959044163 -23.350222875977103 5.7533617447892453 -0.69465837861970381 0 0.71933979245794832 0.71933979245794832 0 0.69465837861970381 forward_v I I I I #
loop $-1 $-1 $210 $49 #
coedge $-1 $127 $127 $128 $211 reversed $77 $-1 #
coedge $-1 $128 $128 $127 $211 forward $79 $-1 #
coedge $-1 $129 $129 $80 $130 forward $124 $-1 #
edge $-1 $212 0 $212 6.2831853071796004 $129 $213 forward 7 unknown #
loop $-1 $-1 $136 $81 #
plane-surface $-1 -57.388225959044163 -23.350222875977103 5.7533617447892453 -0.69465837861970381 0 0.71933979245794832 0.71933979245794832 0 0.69465837861970381 forward_v I I I I #
loop $-1 $-1 $214 $52 #
coedge $-1 $134 $134 $135 $215 reversed $82 $-1 #
coedge $-1 $135 $135 $134 $215 forward $84 $-1 #
coedge $-1 $136 $136 $85 $137 forward $131 $-1 #
edge $-1 $216 0 $216 6.2831853071796004 $136 $217 forward 7 unknown #
loop $-1 $-1 $143 $86 #
plane-surface $-1 -57.388225959044163 -23.350222875977103 5.7533617447892453 -0.69465837861970381 0 0.71933979245794832 0.71933979245794832 0 0.69465837861970381 forward_v I I I I #
loop $-1 $-1 $218 $55 #
coedge $-1 $141 $141 $142 $219 reversed $87 $-1 #
coedge $-1 $142 $142 $141 $219 forward $89 $-1 #
coedge $-1 $143 $143 $90 $144 forward $138 $-1 #
edge $-1 $220 0 $220 6.2831853071796004 $143 $221 forward 7 unknown #
face $-1 $222 $223 $30 $-1 $224 forward single #
loop $-1 $-1 $225 $91 #
plane-surface $-1 0 36.205880951516477 0 0 -1 0 0 0 -1 forward_v I I I I #
coedge $-1 $226 $227 $228 $229 reversed $92 $-1 #
coedge $-1 $150 $94 $230 $231 reversed $59 $-1 #
coedge $-1 $94 $149 $226 $232 reversed $59 $-1 #
coedge $-1 $228 $233 $94 $152 forward $234 $-1 #
edge $-1 $235 73.807044944784991 $236 78.240113346716782 $151 $237 forward 7 unknown #
loop $-1 $-1 $158 $95 #
plane-surface $-1 -13.275212548857866 32.030336627214709 95.07337045385043 0.78801076186113728 0 0.61566146476048833 0.61566146476048833 0 -0.78801076186113728 forward_v I I I I #
loop $-1 $-1 $238 $61 #
coedge $-1 $156 $156 $157 $239 reversed $96 $-1 #
coedge $-1 $157 $157 $156 $239 forward $98 $-1 #
coedge $-1 $158 $158 $99 $159 forward $153 $-1 #
edge $-1 $240 0 $240 6.2831853071796004 $158 $241 forward 7 unknown #
face $-1 $242 $243 $24 $-1 $244 reversed single #
loop $-1 $-1 $245 $100 #
plane-surface $-1 -57.388225959044163 0 0 1 0 0 0 0 -1 forward_v I I I I #
coedge $-1 $246 $171 $247 $248 forward $101 $-1 #
coedge $-1 $249 $103 $246 $250 forward $65 $-1 #
coedge $-1 $103 $249 $251 $252 forward $65 $-1 #
coedge $-1 $174 $173 $103 $167 reversed $175 $-1 #
edge $-1 $253 -36.205880951516477 $254 36.205880951516477 $166 $255 forward 7 unknown #
coedge $-1 $105 $104 $256 $257 forward $41 $-1 #
coedge $-1 $258 $259 $104 $170 reversed $243 $-1 #
edge $-1 $177 -57.388225959044163 $260 57.388225959044163 $169 $261 forward 7 unknown #
coedge $-1 $163 $262 $105 $172 reversed $101 $-1 #
edge $-1 $263 -57.388225959044163 $176 57.388225959044163 $171 $264 forward 7 unknown #
coedge $-1 $166 $106 $262 $265 forward $175 $-1 #
coedge $-1 $106 $166 $258 $266 reversed $175 $-1 #
loop $-1 $-1 $173 $242 #
vertex $-1 $107 $267 #
vertex $-1 $107 $268 #
straight-curve $-1 57.388225959044163 0 9.061359536091226 0 1 0 I I #
face $-1 $269 $270 $25 $-1 $271 reversed single #
loop $-1 $-1 $190 $108 #
plane-surface $-1 0 -40.90164908333832 4.9996072672170317 0 0 1 1 0 0 forward_v I I I I #
coedge $-1 $272 $273 $112 $187 forward $109 $-1 #
coedge $-1 $274 $111 $273 $275 forward $69 $-1 #
coedge $-1 $111 $274 $276 $277 forward $69 $-1 #
coedge $-1 $113 $112 $111 $186 reversed $44 $-1 #
edge $-1 $278 -57.388225959044163 $279 57.388225959044163 $111 $280 forward 7 unknown #
edge $-1 $279 -9.061359536091226 $193 -4.9996072672170317 $182 $281 forward 7 unknown #
coedge $-1 $276 $282 $113 $189 forward $283 $-1 #
edge $-1 $192 4.9996072672170317 $278 9.061359536091226 $188 $284 forward 7 unknown #
coedge $-1 $285 $114 $282 $286 forward $180 $-1 #
coedge $-1 $114 $285 $272 $287 forward $180 $-1 #
vertex $-1 $189 $288 #
vertex $-1 $187 $289 #
straight-curve $-1 0 -36.205880951516477 4.9996072672170317 -1 0 0 I I #
face $-1 $-1 $290 $26 $-1 $291 reversed single #
loop $-1 $-1 $122 $116 #
plane-surface $-1 0 0 9.061359536091226 0 0 1 1 0 0 forward_v I I I I #
coedge $-1 $292 $293 $294 $295 reversed $117 $-1 #
coedge $-1 $296 $119 $121 $205 forward $73 $-1 #
coedge $-1 $119 $296 $292 $297 forward $73 $-1 #
coedge $-1 $294 $122 $119 $202 forward $196 $-1 #
edge $-1 $208 -15.139233249884239 $298 -8.2109896260928643 $201 $299 forward 7 unknown #
coedge $-1 $300 $301 $120 $204 forward $290 $-1 #
edge $-1 $302 -38.404953678514048 $207 -35.096955887212069 $203 $303 forward 7 unknown #
edge $-1 $208 -4.7620497975926233 $302 0 $121 $304 forward 7 unknown #
coedge $-1 $122 $294 $300 $305 forward $196 $-1 #
vertex $-1 $204 $306 #
vertex $-1 $123 $307 #
straight-curve $-1 -68.559324976092896 -26.81434468787279 9.0613595360912242 1 0 0 I I #
coedge $-1 $210 $210 $-1 $308 reversed $126 $-1 #
edge $-1 $309 0 $309 6.2831853071796004 $127 $310 forward 7 unknown #
vertex $-1 $130 $311 #
ellipse-curve $-1 -55.675460002506817 -25.428695963114514 7.4073606404402366 -0.69465837861970381 0 0.71933979245794832 0.35966989622897416 0 0.3473291893098519 1 I I #
coedge $-1 $214 $214 $-1 $312 reversed $133 $-1 #
edge $-1 $313 0 $313 6.2831853071796004 $134 $314 forward 7 unknown #
vertex $-1 $137 $315 #
ellipse-curve $-1 -55.675460002506817 -23.350222875977103 7.4073606404402366 -0.69465837861970381 0 0.71933979245794832 0.35966989622897416 0 0.3473291893098519 1 I I #
coedge $-1 $218 $218 $-1 $316 reversed $140 $-1 #
edge $-1 $317 0 $317 6.2831853071796004 $141 $318 forward 7 unknown #
vertex $-1 $144 $319 #
ellipse-curve $-1 -55.675460002506817 -21.271749788839688 7.4073606404402366 -0.69465837861970381 0 0.71933979245794832 0.35966989622897416 0 0.3473291893098519 1 I I #
face $-1 $-1 $234 $30 $-1 $320 reversed single #
loop $-1 $-1 $321 $145 #
plane-surface $-1 0 0 9.061359536091226 0 0 1 1 0 0 forward_v I I I I #
coedge $-1 $322 $323 $227 $324 forward $146 $-1 #
coedge $-1 $325 $148 $150 $232 forward $92 $-1 #
coedge $-1 $148 $325 $225 $324 reversed $92 $-1 #
coedge $-1 $326 $151 $148 $229 forward $234 $-1 #
edge $-1 $236 11.839623989305586 $327 20.190712637909122 $228 $328 forward 7 unknown #
coedge $-1 $329 $321 $149 $231 forward $223 $-1 #
edge $-1 $330 15.339800045593186 $235 18.803292573627608 $230 $331 forward 7 unknown #
edge $-1 $236 -114.77645191808834 $330 -109.15080742630286 $150 $332 forward 7 unknown #
coedge $-1 $151 $326 $329 $333 reversed $234 $-1 #
loop $-1 $-1 $228 $222 #
vertex $-1 $333 $334 #
vertex $-1 $152 $335 #
straight-curve $-1 57.388225959044163 27.854792302912941 82.868404480876222 0 0 -1 I I #
coedge $-1 $238 $238 $-1 $336 reversed $155 $-1 #
edge $-1 $337 0 $337 6.2831853071796004 $156 $338 forward 7 unknown #
vertex $-1 $159 $339 #
ellipse-curve $-1 55.65647969502696 32.030336627214709 6.8448253351253463 0.78801076186113728 0 0.61566146476048833 0.61566146476048833 0 -0.78801076186113728 1 I I #
face $-1 $-1 $175 $24 $-1 $340 reversed single #
loop $-1 $-1 $258 $160 #
plane-surface $-1 0 36.205880951516477 0 0 -1 0 0 0 -1 forward_v I I I I #
coedge $-1 $341 $256 $259 $342 forward $161 $-1 #
coedge $-1 $262 $163 $164 $250 reversed $101 $-1 #
coedge $-1 $256 $341 $163 $248 reversed $161 $-1 #
edge $-1 $263 -9.061359536091226 $343 9.061359536091226 $247 $344 forward 7 unknown #
coedge $-1 $165 $164 $341 $345 forward $65 $-1 #
edge $-1 $254 -57.388225959044163 $343 57.388225959044163 $246 $346 forward 7 unknown #
coedge $-1 $259 $258 $165 $252 reversed $243 $-1 #
edge $-1 $347 -57.388225959044163 $253 57.388225959044163 $251 $348 forward 7 unknown #
vertex $-1 $167 $349 #
vertex $-1 $265 $350 #
straight-curve $-1 57.388225959044163 0 -9.061359536091226 0 -1 0 I I #
coedge $-1 $245 $247 $168 $257 reversed $161 $-1 #
edge $-1 $260 -36.205880951516477 $263 36.205880951516477 $256 $351 forward 7 unknown #
coedge $-1 $251 $169 $174 $266 forward $243 $-1 #
coedge $-1 $169 $251 $245 $342 reversed $243 $-1 #
vertex $-1 $170 $352 #
straight-curve $-1 0 36.205880951516477 9.061359536091226 -1 0 0 I I #
coedge $-1 $171 $246 $173 $265 reversed $101 $-1 #
vertex $-1 $257 $353 #
straight-curve $-1 0 -36.205880951516477 9.061359536091226 1 0 0 I I #
edge $-1 $176 -9.061359536091226 $254 9.061359536091226 $173 $354 forward 7 unknown #
edge $-1 $177 -9.061359536091226 $253 9.061359536091226 $174 $355 forward 7 unknown #
point $-1 57.388225959044163 -36.205880951516477 9.061359536091226 #
point $-1 57.388225959044163 36.205880951516477 9.061359536091226 #
face $-1 $-1 $283 $25 $-1 $356 reversed single #
loop $-1 $-1 $357 $179 #
plane-surface $-1 0 -45.597417215160164 7.0304834016541289 0 1 0 0 0 1 forward_v I I I I #
coedge $-1 $358 $182 $191 $287 reversed $109 $-1 #
coedge $-1 $182 $358 $183 $275 reversed $109 $-1 #
coedge $-1 $184 $183 $359 $360 forward $69 $-1 #
edge $-1 $279 36.205880951516477 $361 45.597417215160164 $273 $362 forward 7 unknown #
coedge $-1 $363 $188 $184 $277 reversed $283 $-1 #
edge $-1 $364 -45.597417215160164 $278 -36.205880951516477 $276 $365 forward 7 unknown #
vertex $-1 $189 $366 #
vertex $-1 $275 $367 #
straight-curve $-1 0 -36.205880951516477 9.061359536091226 -1 0 0 I I #
straight-curve $-1 -57.388225959044163 -36.205880951516477 0 0 0 -1 I I #
coedge $-1 $188 $363 $190 $286 reversed $283 $-1 #
loop $-1 $-1 $188 $269 #
straight-curve $-1 57.388225959044163 -36.205880951516477 0 0 0 1 I I #
coedge $-1 $191 $190 $368 $369 forward $180 $-1 #
edge $-1 $192 -4.6957681318218434 $370 4.6957681318218434 $282 $371 forward 7 unknown #
edge $-1 $372 -4.6957681318218434 $193 4.6957681318218434 $272 $373 forward 7 unknown #
point $-1 57.388225959044163 -36.205880951516477 4.9996072672170317 #
point $-1 -57.388225959044163 -36.205880951516477 4.9996072672170317 #
loop $-1 $-1 $203 $195 #
plane-surface $-1 -57.388225959044163 0 0 1 0 0 0 0 -1 forward_v I I I I #
coedge $-1 $293 $198 $200 $297 reversed $117 $-1 #
coedge $-1 $198 $292 $374 $375 reversed $117 $-1 #
coedge $-1 $206 $201 $198 $295 forward $196 $-1 #
edge $-1 $298 -14.596630930123425 $376 -11.171099017048732 $294 $377 forward 7 unknown #
coedge $-1 $200 $199 $301 $378 reversed $73 $-1 #
edge $-1 $379 0 $298 4.7620497975926233 $292 $380 forward 7 unknown #
vertex $-1 $202 $381 #
straight-curve $-1 -53.962694045969471 -11.675111437988551 9.061359536091226 0 1 0 I I #
coedge $-1 $374 $203 $206 $305 reversed $290 $-1 #
coedge $-1 $203 $374 $296 $378 forward $290 $-1 #
vertex $-1 $204 $382 #
straight-curve $-1 -57.388225959044163 -26.81434468787279 44.158315423303293 0 0 1 I I #
straight-curve $-1 -57.388225959044163 -26.81434468787279 5.7533617447892453 -0.71933979245794832 0 -0.69465837861970381 I I #
edge $-1 $376 19.886101064081416 $207 26.81434468787279 $300 $383 forward 7 unknown #
point $-1 -57.388225959044163 -26.81434468787279 9.061359536091226 #
point $-1 -53.962694045969471 -26.81434468787279 9.061359536091226 #
edge $-1 $384 1 $384 0 $210 $-1 forward 7 unknown #
vertex $-1 $211 $385 #
ellipse-curve $-1 -54.98080162388711 -25.428695963114514 6.6880208479822878 -0.69465837861970381 0 0.71933979245794832 0.35966989622897416 0 0.3473291893098519 1 I I #
point $-1 -55.315790106277845 -25.428695963114514 7.7546898297500881 #
edge $-1 $386 1 $386 0 $214 $-1 forward 7 unknown #
vertex $-1 $215 $387 #
ellipse-curve $-1 -54.98080162388711 -23.350222875977103 6.6880208479822878 -0.69465837861970381 0 0.71933979245794832 0.35966989622897416 0 0.3473291893098519 1 I I #
point $-1 -55.315790106277845 -23.350222875977103 7.7546898297500881 #
edge $-1 $388 1 $388 0 $218 $-1 forward 7 unknown #
vertex $-1 $219 $389 #
ellipse-curve $-1 -54.98080162388711 -21.271749788839688 6.6880208479822878 -0.69465837861970381 0 0.71933979245794832 0.35966989622897416 0 0.3473291893098519 1 I I #
point $-1 -55.315790106277845 -21.271749788839688 7.7546898297500881 #
plane-surface $-1 57.388225959044163 0 0 -1 0 0 0 0 1 forward_v I I I I #
coedge $-1 $230 $390 $325 $391 forward $223 $-1 #
coedge $-1 $323 $225 $390 $392 reversed $146 $-1 #
coedge $-1 $225 $322 $326 $393 forward $146 $-1 #
edge $-1 $327 -73.230513974647607 $394 -67.604869482862142 $225 $395 forward 7 unknown #
coedge $-1 $227 $226 $321 $391 reversed $92 $-1 #
coedge $-1 $233 $228 $323 $393 reversed $234 $-1 #
vertex $-1 $324 $396 #
straight-curve $-1 57.388225959044171 16.015168313607354 4.6282911341594399 0 1 0 I I #
coedge $-1 $390 $230 $233 $333 forward $223 $-1 #
vertex $-1 $231 $397 #
straight-curve $-1 38.584933385416555 27.854792302912941 9.0613595360912313 1 0 0 I I #
straight-curve $-1 -13.275212548857866 27.854792302912941 95.07337045385043 -0.61566146476048833 0 0.78801076186113728 I I #
edge $-1 $235 27.854792302912941 $398 36.205880951516477 $233 $399 forward 7 unknown #
point $-1 57.388225959044163 27.854792302912941 9.061359536091226 #
point $-1 57.388225959044163 27.854792302912941 4.6282911341594399 #
edge $-1 $400 1 $400 0 $238 $-1 forward 7 unknown #
vertex $-1 $239 $401 #
ellipse-curve $-1 52.842949159681694 32.030336627214709 4.6466544288703027 0.78801076186113728 0 0.61566146476048833 0.61566146476048833 0 -0.78801076186113728 1 I I #
point $-1 56.272141159787445 32.030336627214709 6.0568145732642087 #
plane-surface $-1 57.388225959044163 0 0 -1 0 0 0 0 1 forward_v I I I I #
coedge $-1 $247 $245 $249 $345 reversed $161 $-1 #
edge $-1 $260 -9.061359536091226 $347 9.061359536091226 $259 $402 forward 7 unknown #
vertex $-1 $345 $403 #
straight-curve $-1 -57.388225959044163 -36.205880951516477 0 0 0 -1 I I #
edge $-1 $343 -36.205880951516477 $347 36.205880951516477 $341 $404 forward 7 unknown #
straight-curve $-1 0 -36.205880951516477 -9.061359536091226 -1 0 0 I I #
vertex $-1 $252 $405 #
straight-curve $-1 0 36.205880951516477 -9.061359536091226 1 0 0 I I #
point $-1 57.388225959044163 36.205880951516477 -9.061359536091226 #
point $-1 57.388225959044163 -36.205880951516477 -9.061359536091226 #
straight-curve $-1 -57.388225959044163 0 9.061359536091226 0 -1 0 I I #
point $-1 -57.388225959044163 36.205880951516477 9.061359536091226 #
point $-1 -57.388225959044163 -36.205880951516477 9.061359536091226 #
straight-curve $-1 57.388225959044163 -36.205880951516477 0 0 0 -1 I I #
straight-curve $-1 57.388225959044163 36.205880951516477 0 0 0 -1 I I #
plane-surface $-1 57.388225959044163 0 0 -1 0 0 0 0 1 forward_v I I I I #
coedge $-1 $368 $359 $358 $406 forward $270 $-1 #
coedge $-1 $273 $272 $357 $406 reversed $109 $-1 #
coedge $-1 $357 $407 $274 $360 reversed $270 $-1 #
edge $-1 $361 -57.388225959044163 $364 57.388225959044163 $359 $408 forward 7 unknown #
vertex $-1 $275 $409 #
straight-curve $-1 -57.388225959044163 0 9.061359536091226 0 -1 0 I I #
coedge $-1 $282 $276 $407 $410 forward $283 $-1 #
vertex $-1 $277 $411 #
straight-curve $-1 57.388225959044163 0 9.061359536091226 0 1 0 I I #
point $-1 57.388225959044163 -36.205880951516477 9.061359536091226 #
point $-1 -57.388225959044163 -36.205880951516477 9.061359536091226 #
coedge $-1 $407 $357 $285 $369 reversed $270 $-1 #
edge $-1 $370 -57.388225959044163 $372 57.388225959044163 $368 $412 forward 7 unknown #
vertex $-1 $410 $413 #
straight-curve $-1 57.388225959044163 -40.90164908333832 4.9996072672170317 0 -1 0 I I #
vertex $-1 $287 $414 #
straight-curve $-1 -57.388225959044163 -40.90164908333832 4.9996072672170317 0 1 0 I I #
coedge $-1 $301 $300 $293 $375 forward $290 $-1 #
edge $-1 $376 35.096955887212069 $379 38.404953678514048 $374 $415 forward 7 unknown #
vertex $-1 $305 $416 #
straight-curve $-1 -68.559324976092896 -19.886101064081416 9.0613595360912242 -1 0 0 I I #
edge $-1 $379 8.2109896260928643 $302 15.139233249884239 $301 $417 forward 7 unknown #
vertex $-1 $378 $418 #
straight-curve $-1 -57.388225959044163 -19.886101064081416 5.7533617447892453 0.71933979245794832 0 0.69465837861970381 I I #
point $-1 -53.962694045969471 -19.886101064081416 9.061359536091226 #
point $-1 -57.388225959044163 -26.81434468787279 5.7533617447892453 #
straight-curve $-1 -57.388225959044163 0 9.061359536091226 0 -1 0 I I #
vertex $-1 $308 $419 #
point $-1 -54.621131727658138 -25.428695963114514 7.0353500372921403 #
vertex $-1 $312 $420 #
point $-1 -54.621131727658138 -23.350222875977103 7.0353500372921403 #
vertex $-1 $316 $421 #
point $-1 -54.621131727658138 -21.271749788839688 7.0353500372921403 #
coedge $-1 $321 $329 $322 $392 forward $223 $-1 #
edge $-1 $394 -20.190712637909122 $330 -11.839623989305586 $321 $422 forward 7 unknown #
edge $-1 $398 -57.388225959044163 $394 -53.924733431009741 $322 $423 forward 7 unknown #
edge $-1 $398 -9.061359536091226 $327 -4.6282911341594497 $326 $424 forward 7 unknown #
vertex $-1 $324 $425 #
straight-curve $-1 12.303020460249208 36.205880951516477 62.334724242804171 -0.61566146476048833 0 0.78801076186113728 I I #
point $-1 57.388225959044163 36.205880951516477 4.6282911341594497 #
point $-1 53.924733431009741 27.854792302912941 9.0613595360912313 #
vertex $-1 $333 $426 #
straight-curve $-1 57.388225959044163 0 9.061359536091226 0 1 0 I I #
vertex $-1 $336 $427 #
point $-1 53.458610624442187 32.030336627214709 3.8586436670091651 #
straight-curve $-1 -57.388225959044163 36.205880951516477 0 0 0 -1 I I #
point $-1 -57.388225959044163 -36.205880951516477 -9.061359536091226 #
straight-curve $-1 -57.388225959044163 0 -9.061359536091226 0 1 0 I I #
point $-1 -57.388225959044163 36.205880951516477 -9.061359536091226 #
edge $-1 $361 -2.0308761344370971 $372 2.0308761344370971 $358 $428 forward 7 unknown #
coedge $-1 $359 $368 $363 $410 reversed $270 $-1 #
straight-curve $-1 0 -45.597417215160164 9.061359536091226 1 0 0 I I #
point $-1 -57.388225959044163 -45.597417215160164 9.061359536091226 #
edge $-1 $364 -2.0308761344370971 $370 2.0308761344370971 $363 $429 forward 7 unknown #
point $-1 57.388225959044163 -45.597417215160164 9.061359536091226 #
straight-curve $-1 0 -45.597417215160164 4.9996072672170317 -1 0 0 I I #
point $-1 57.388225959044163 -45.597417215160164 4.9996072672170317 #
point $-1 -57.388225959044163 -45.597417215160164 4.9996072672170317 #
straight-curve $-1 -57.388225959044163 -19.886101064081416 44.158315423303293 0 0 -1 I I #
point $-1 -57.388225959044163 -19.886101064081416 9.061359536091226 #
straight-curve $-1 -57.388225959044163 -11.675111437988551 5.7533617447892418 0 -1 0 I I #
point $-1 -57.388225959044163 -19.886101064081416 5.7533617447892453 #
point $-1 -54.633472434577264 -25.428695963114514 6.3283509517533139 #
point $-1 -54.633472434577264 -23.350222875977103 6.3283509517533139 #
point $-1 -54.633472434577264 -21.271749788839688 6.3283509517533139 #
straight-curve $-1 53.924733431009741 16.015168313607354 9.0613595360912242 0 -1 0 I I #
straight-curve $-1 0 36.205880951516477 9.061359536091226 -1 0 0 I I #
straight-curve $-1 57.388225959044163 36.205880951516477 0 0 0 -1 I I #
point $-1 53.924733431009741 36.205880951516477 9.0613595360912313 #
point $-1 57.388225959044163 36.205880951516477 9.061359536091226 #
point $-1 52.054938397820564 32.030336627214709 4.0309929641098137 #
straight-curve $-1 -57.388225959044163 -45.597417215160164 7.0304834016541289 0 0 -1 I I #
straight-curve $-1 57.388225959044163 -45.597417215160164 7.0304834016541289 0 0 -1 I I #
End-of-ACIS-data 