500 0 8 0           
7 Unknown 11 ACIS 5.0 NT 24 Fri Mar 26 19:10:06 1999 
-1 9.9999999999999995e-007 1e-010 
body $-1 $8 $-1 $9 #
body $-1 $10 $-1 $11 #
body $-1 $12 $-1 $13 #
body $-1 $14 $-1 $15 #
body $-1 $16 $-1 $17 #
body $-1 $18 $-1 $19 #
body $-1 $20 $-1 $21 #
body $-1 $22 $-1 $23 #
lump $-1 $-1 $24 $0 #
transform $-1 1 0 0 0 1 0 0 0 1 61.758476516006958 28.983152947321908 6.5905781002379085 1 rotate no_reflect no_shear #
lump $-1 $-1 $25 $1 #
transform $-1 1 0 0 0 1 0 0 0 1 61.758476516006958 28.983152947321908 6.5905781002379085 1 rotate no_reflect no_shear #
lump $-1 $-1 $26 $2 #
transform $-1 1 0 0 0 1 0 0 0 1 61.758476516006958 28.983152947321908 6.5905781002379085 1 rotate no_reflect no_shear #
lump $-1 $-1 $27 $3 #
transform $-1 1 0 0 0 1 0 0 0 1 61.758476516006958 28.983152947321908 6.5905781002379085 1 rotate no_reflect no_shear #
lump $-1 $-1 $28 $4 #
transform $-1 1 0 0 0 1 0 0 0 1 61.758476516006958 28.983152947321908 6.5905781002379085 1 rotate no_reflect no_shear #
lump $-1 $-1 $29 $5 #
transform $-1 1 0 0 0 1 0 0 0 1 61.758476516006958 28.983152947321908 6.5905781002379085 1 rotate no_reflect no_shear #
lump $-1 $-1 $30 $6 #
transform $-1 1 0 0 0 1 0 0 0 1 61.758476516006958 28.983152947321908 6.5905781002379085 1 rotate no_reflect no_shear #
lump $-1 $-1 $31 $7 #
transform $-1 1 0 0 0 1 0 0 0 1 61.758476516006958 28.983152947321908 6.5905781002379085 1 rotate no_reflect no_shear #
shell $-1 $-1 $-1 $32 $-1 $8 #
shell $-1 $-1 $-1 $33 $-1 $10 #
shell $-1 $-1 $-1 $34 $-1 $12 #
shell $-1 $-1 $-1 $35 $-1 $14 #
shell $-1 $-1 $-1 $36 $-1 $16 #
shell $-1 $-1 $-1 $37 $-1 $18 #
shell $-1 $-1 $-1 $38 $-1 $20 #
shell $-1 $-1 $-1 $39 $-1 $22 #
face $-1 $40 $41 $24 $-1 $42 forward single #
face $-1 $43 $44 $25 $-1 $45 reversed single #
face $-1 $46 $47 $26 $-1 $48 reversed single #
face $-1 $49 $50 $27 $-1 $51 forward single #
face $-1 $52 $53 $28 $-1 $54 forward single #
face $-1 $55 $56 $29 $-1 $57 forward single #
face $-1 $58 $59 $30 $-1 $60 reversed single #
face $-1 $61 $62 $31 $-1 $63 forward single #
face $-1 $64 $65 $24 $-1 $66 reversed single #
loop $-1 $-1 $67 $32 #
plane-surface $-1 0 0 6.5905781002379085 0 0 1 1 0 0 forward_v I I I I #
face $-1 $68 $69 $25 $-1 $70 reversed single #
loop $-1 $-1 $71 $33 #
plane-surface $-1 -60.258476516006958 -24.08591514650772 0 0 -1 0 0 0 -1 forward_v I I I I #
face $-1 $72 $73 $26 $-1 $74 reversed single #
loop $-1 $-1 $75 $34 #
plane-surface $-1 22.464173929505982 21.258902853071348 172.62852072812154 0 1 0 0.52991927123019833 0 0.84804809178421925 forward_v I I I I #
face $-1 $76 $77 $27 $-1 $78 forward single #
loop $-1 $79 $80 $35 #
cone-surface $-1 58.161310443929892 22.803752871921464 4.084360339737696 -0.52991927123019833 0 -0.84804809178421925 0.21201202294605481 0 -0.13247981780754958 1 I I 0 1 0.25 forward I I I I #
face $-1 $81 $82 $28 $-1 $83 forward single #
loop $-1 $84 $85 $36 #
cone-surface $-1 58.161310443929892 25.121027900196633 4.084360339737696 -0.52991927123019833 0 -0.84804809178421925 0.21201202294605481 0 -0.13247981780754958 1 I I 0 1 0.25 forward I I I I #
face $-1 $86 $87 $29 $-1 $88 forward single #
loop $-1 $89 $90 $37 #
cone-surface $-1 58.161310443929892 27.438302928471803 4.084360339737696 -0.52991927123019833 0 -0.84804809178421925 0.21201202294605481 0 -0.13247981780754958 1 I I 0 1 0.25 forward I I I I #
face $-1 $91 $92 $30 $-1 $93 reversed single #
loop $-1 $-1 $94 $38 #
plane-surface $-1 -132.60489117811076 -9.5977110685995015 104.17604252218216 0 1 0 -0.57357644374324357 0 0.81915203911291934 forward_v I I I I #
face $-1 $95 $96 $31 $-1 $97 forward single #
loop $-1 $98 $99 $39 #
cone-surface $-1 -58.088506660116302 -4.8351611258989564 3.2173350270268299 0.57357644374324357 0 -0.81915203911291934 0.81915203911291934 0 0.57357644374324357 1 I I 0 1 1 forward I I I I #
face $-1 $100 $101 $24 $-1 $102 reversed single #
loop $-1 $-1 $103 $40 #
plane-surface $-1 0 0 -6.5905781002379085 0 0 1 1 0 0 forward_v I I I I #
coedge $-1 $104 $105 $106 $107 forward $41 $-1 #
face $-1 $108 $109 $25 $-1 $110 forward single #
loop $-1 $-1 $111 $43 #
plane-surface $-1 -58.758476516006958 -26.534534046914814 0 -1 0 0 0 0 1 forward_v I I I I #
coedge $-1 $112 $113 $114 $115 forward $44 $-1 #
face $-1 $116 $117 $26 $-1 $118 reversed single #
loop $-1 $-1 $119 $46 #
plane-surface $-1 -42.989839805793459 25.121027900196626 67.880204406321127 0.52991927123019833 0 0.84804809178421925 0.84804809178421925 0 -0.52991927123019833 forward_v I I I I #
coedge $-1 $120 $121 $122 $123 reversed $47 $-1 #
face $-1 $-1 $124 $27 $-1 $125 forward single #
loop $-1 $126 $127 $49 #
cone-surface $-1 57.830110899411018 22.803752871921464 3.5543302823725584 -0.52991927123019833 0 -0.84804809178421925 0.10600601147302741 0 -0.066239908903774791 1 I I -0.70710678118654746 0.70710678118654746 0.125 forward I I I I #
loop $-1 $-1 $128 $35 #
coedge $-1 $80 $80 $129 $130 reversed $50 $-1 #
face $-1 $-1 $131 $28 $-1 $132 forward single #
loop $-1 $133 $134 $52 #
cone-surface $-1 57.830110899411018 25.121027900196633 3.5543302823725584 -0.52991927123019833 0 -0.84804809178421925 0.10600601147302741 0 -0.066239908903774791 1 I I -0.70710678118654746 0.70710678118654746 0.125 forward I I I I #
loop $-1 $-1 $135 $36 #
coedge $-1 $85 $85 $136 $137 reversed $53 $-1 #
face $-1 $-1 $138 $29 $-1 $139 forward single #
loop $-1 $140 $141 $55 #
cone-surface $-1 57.830110899411018 27.438302928471803 3.5543302823725584 -0.52991927123019833 0 -0.84804809178421925 0.10600601147302741 0 -0.066239908903774791 1 I I -0.70710678118654746 0.70710678118654746 0.125 forward I I I I #
loop $-1 $-1 $142 $37 #
coedge $-1 $90 $90 $143 $144 reversed $56 $-1 #
face $-1 $145 $146 $30 $-1 $147 reversed single #
loop $-1 $-1 $148 $58 #
plane-surface $-1 -61.758476516006965 -4.8351611258989564 2.9968785809932683 -0.57357644374324357 0 0.81915203911291934 0.81915203911291934 0 0.57357644374324357 forward_v I I I I #
coedge $-1 $149 $150 $151 $152 reversed $59 $-1 #
face $-1 $-1 $153 $31 $-1 $154 forward single #
loop $-1 $155 $156 $61 #
cone-surface $-1 -56.697915935686019 -4.8351611258989564 1.2313656938816102 0.57357644374324357 0 -0.81915203911291934 0.40957601955645967 0 0.28678822187162178 1 I I -0.70710678118654746 0.70710678118654746 0.5 forward I I I I #
loop $-1 $-1 $157 $39 #
coedge $-1 $99 $99 $158 $159 reversed $62 $-1 #
face $-1 $160 $161 $24 $-1 $162 reversed single #
loop $-1 $-1 $163 $64 #
plane-surface $-1 0 -28.983152947321908 0 0 1 0 0 0 1 forward_v I I I I #
coedge $-1 $164 $165 $166 $167 forward $65 $-1 #
coedge $-1 $168 $67 $169 $170 forward $41 $-1 #
coedge $-1 $67 $168 $171 $172 forward $41 $-1 #
coedge $-1 $173 $174 $67 $107 reversed $175 $-1 #
edge $-1 $176 -28.983152947321908 $177 28.983152947321908 $106 $178 forward 7 unknown #
face $-1 $179 $180 $25 $-1 $181 reversed single #
loop $-1 $-1 $182 $68 #
plane-surface $-1 0 0 6.5905781002379085 0 0 1 1 0 0 forward_v I I I I #
coedge $-1 $183 $184 $185 $186 reversed $69 $-1 #
coedge $-1 $187 $71 $188 $189 reversed $44 $-1 #
coedge $-1 $71 $187 $190 $191 reversed $44 $-1 #
coedge $-1 $184 $183 $71 $115 reversed $69 $-1 #
edge $-1 $192 -6.5905781002379085 $193 6.5905781002379085 $114 $194 forward 7 unknown #
face $-1 $195 $196 $26 $-1 $197 reversed single #
loop $-1 $-1 $122 $72 #
plane-surface $-1 61.758476516006958 0 0 -1 0 0 0 0 1 forward_v I I I I #
coedge $-1 $198 $199 $200 $201 reversed $73 $-1 #
coedge $-1 $121 $75 $202 $203 reversed $47 $-1 #
coedge $-1 $75 $120 $198 $204 reversed $47 $-1 #
coedge $-1 $200 $205 $75 $123 forward $117 $-1 #
edge $-1 $206 79.723682263822866 $207 83.888069693039085 $122 $208 forward 7 unknown #
loop $-1 $-1 $129 $76 #
plane-surface $-1 -42.989839805793459 25.121027900196626 67.880204406321127 0.52991927123019833 0 0.84804809178421925 0.84804809178421925 0 -0.52991927123019833 forward_v I I I I #
loop $-1 $-1 $209 $49 #
coedge $-1 $127 $127 $128 $210 reversed $77 $-1 #
coedge $-1 $128 $128 $127 $210 forward $79 $-1 #
coedge $-1 $129 $129 $80 $130 forward $124 $-1 #
edge $-1 $211 0 $211 6.2831853071796004 $129 $212 forward 7 unknown #
loop $-1 $-1 $136 $81 #
plane-surface $-1 -42.989839805793459 25.121027900196626 67.880204406321127 0.52991927123019833 0 0.84804809178421925 0.84804809178421925 0 -0.52991927123019833 forward_v I I I I #
loop $-1 $-1 $213 $52 #
coedge $-1 $134 $134 $135 $214 reversed $82 $-1 #
coedge $-1 $135 $135 $134 $214 forward $84 $-1 #
coedge $-1 $136 $136 $85 $137 forward $131 $-1 #
edge $-1 $215 0 $215 6.2831853071796004 $136 $216 forward 7 unknown #
loop $-1 $-1 $143 $86 #
plane-surface $-1 -42.989839805793459 25.121027900196626 67.880204406321127 0.52991927123019833 0 0.84804809178421925 0.84804809178421925 0 -0.52991927123019833 forward_v I I I I #
loop $-1 $-1 $217 $55 #
coedge $-1 $141 $141 $142 $218 reversed $87 $-1 #
coedge $-1 $142 $142 $141 $218 forward $89 $-1 #
coedge $-1 $143 $143 $90 $144 forward $138 $-1 #
edge $-1 $219 0 $219 6.2831853071796004 $143 $220 forward 7 unknown #
face $-1 $221 $222 $30 $-1 $223 reversed single #
loop $-1 $-1 $224 $91 #
plane-surface $-1 -132.60489117811076 -0.072611183198411311 104.17604252218216 0 -1 0 0.57357644374324357 0 -0.81915203911291934 forward_v I I I I #
coedge $-1 $225 $226 $227 $228 reversed $92 $-1 #
coedge $-1 $150 $94 $229 $230 reversed $59 $-1 #
coedge $-1 $94 $149 $225 $231 reversed $59 $-1 #
coedge $-1 $227 $232 $94 $152 forward $233 $-1 #
edge $-1 $234 4.543969073048423 $235 9.6763037797124269 $151 $236 forward 7 unknown #
loop $-1 $-1 $158 $95 #
plane-surface $-1 -61.758476516006965 -4.8351611258989564 2.9968785809932683 -0.57357644374324357 0 0.81915203911291934 0.81915203911291934 0 0.57357644374324357 forward_v I I I I #
loop $-1 $-1 $237 $61 #
coedge $-1 $156 $156 $157 $238 reversed $96 $-1 #
coedge $-1 $157 $157 $156 $238 forward $98 $-1 #
coedge $-1 $158 $158 $99 $159 forward $153 $-1 #
edge $-1 $239 0 $239 6.2831853071796004 $158 $240 forward 7 unknown #
face $-1 $241 $242 $24 $-1 $243 reversed single #
loop $-1 $-1 $244 $100 #
plane-surface $-1 -61.758476516006958 0 0 1 0 0 0 0 -1 forward_v I I I I #
coedge $-1 $245 $171 $246 $247 forward $101 $-1 #
coedge $-1 $248 $103 $245 $249 forward $65 $-1 #
coedge $-1 $103 $248 $250 $251 forward $65 $-1 #
coedge $-1 $174 $173 $103 $167 reversed $175 $-1 #
edge $-1 $252 -28.983152947321908 $253 28.983152947321908 $166 $254 forward 7 unknown #
coedge $-1 $105 $104 $255 $256 forward $41 $-1 #
coedge $-1 $257 $258 $104 $170 reversed $242 $-1 #
edge $-1 $177 -61.758476516006958 $259 61.758476516006958 $169 $260 forward 7 unknown #
coedge $-1 $163 $261 $105 $172 reversed $101 $-1 #
edge $-1 $262 -61.758476516006958 $176 61.758476516006958 $171 $263 forward 7 unknown #
coedge $-1 $166 $106 $261 $264 forward $175 $-1 #
coedge $-1 $106 $166 $257 $265 reversed $175 $-1 #
loop $-1 $-1 $173 $241 #
vertex $-1 $107 $266 #
vertex $-1 $107 $267 #
straight-curve $-1 61.758476516006958 0 6.5905781002379085 0 1 0 I I #
face $-1 $268 $269 $25 $-1 $270 reversed single #
loop $-1 $-1 $271 $108 #
plane-surface $-1 -61.758476516006958 0 0 1 0 0 0 0 -1 forward_v I I I I #
coedge $-1 $190 $272 $184 $273 forward $109 $-1 #
coedge $-1 $114 $111 $274 $275 reversed $69 $-1 #
coedge $-1 $111 $114 $182 $273 reversed $69 $-1 #
coedge $-1 $276 $277 $111 $186 forward $278 $-1 #
edge $-1 $279 -6.5905781002379085 $280 6.5905781002379085 $185 $281 forward 7 unknown #
coedge $-1 $113 $112 $271 $282 reversed $44 $-1 #
coedge $-1 $274 $283 $112 $189 forward $269 $-1 #
edge $-1 $284 -31.629238258003479 $193 -28.629238258003479 $188 $285 forward 7 unknown #
coedge $-1 $286 $182 $113 $191 forward $109 $-1 #
edge $-1 $192 28.629238258003479 $287 31.629238258003479 $190 $288 forward 7 unknown #
vertex $-1 $191 $289 #
vertex $-1 $189 $290 #
straight-curve $-1 -58.758476516006958 -24.08591514650772 0 0 0 -1 I I #
face $-1 $-1 $291 $26 $-1 $292 forward single #
loop $-1 $-1 $293 $116 #
plane-surface $-1 0 28.983152947321908 0 0 -1 0 0 0 -1 forward_v I I I I #
coedge $-1 $294 $119 $121 $204 forward $73 $-1 #
coedge $-1 $119 $294 $293 $295 reversed $73 $-1 #
coedge $-1 $296 $122 $119 $201 forward $117 $-1 #
edge $-1 $207 8.6983889029730346 $297 16.422638997223594 $200 $298 forward 7 unknown #
coedge $-1 $299 $300 $120 $203 forward $291 $-1 #
edge $-1 $301 43.861976678330038 $206 50.52638955125397 $202 $302 forward 7 unknown #
edge $-1 $207 -123.5169530320139 $301 -115.65842126065812 $121 $303 forward 7 unknown #
coedge $-1 $122 $296 $299 $304 reversed $117 $-1 #
vertex $-1 $304 $305 #
vertex $-1 $123 $306 #
straight-curve $-1 61.758476516006958 21.258902853071348 86.314260364060772 0 0 -1 I I #
coedge $-1 $209 $209 $-1 $307 reversed $126 $-1 #
edge $-1 $308 0 $308 6.2831853071796004 $127 $309 forward 7 unknown #
vertex $-1 $130 $310 #
ellipse-curve $-1 58.426270079544985 22.803752871921464 4.5083843856297996 0.52991927123019833 0 0.84804809178421925 0.21201202294605481 0 -0.13247981780754958 1 I I #
coedge $-1 $213 $213 $-1 $311 reversed $133 $-1 #
edge $-1 $312 0 $312 6.2831853071796004 $134 $313 forward 7 unknown #
vertex $-1 $137 $314 #
ellipse-curve $-1 58.426270079544985 25.121027900196633 4.5083843856297996 0.52991927123019833 0 0.84804809178421925 0.21201202294605481 0 -0.13247981780754958 1 I I #
coedge $-1 $217 $217 $-1 $315 reversed $140 $-1 #
edge $-1 $316 0 $316 6.2831853071796004 $141 $317 forward 7 unknown #
vertex $-1 $144 $318 #
ellipse-curve $-1 58.426270079544985 27.438302928471803 4.5083843856297996 0.52991927123019833 0 0.84804809178421925 0.21201202294605481 0 -0.13247981780754958 1 I I #
face $-1 $-1 $233 $30 $-1 $319 forward single #
loop $-1 $-1 $320 $145 #
plane-surface $-1 -61.758476516006958 0 0 1 0 0 0 0 -1 forward_v I I I I #
coedge $-1 $321 $322 $323 $324 reversed $146 $-1 #
coedge $-1 $325 $148 $150 $231 forward $92 $-1 #
coedge $-1 $148 $325 $321 $326 forward $92 $-1 #
coedge $-1 $323 $151 $148 $228 forward $233 $-1 #
edge $-1 $235 -7.1801305056500233 $327 2.3449693797510669 $227 $328 forward 7 unknown #
coedge $-1 $329 $330 $149 $230 forward $222 $-1 #
edge $-1 $331 -49.091142680097803 $234 -45.497443160853173 $229 $332 forward 7 unknown #
edge $-1 $235 -6.2654238305039769 $331 -8.6223355153435888e-015 $150 $333 forward 7 unknown #
coedge $-1 $151 $323 $329 $334 forward $233 $-1 #
loop $-1 $-1 $323 $221 #
vertex $-1 $230 $335 #
vertex $-1 $152 $336 #
straight-curve $-1 -66.302445589055381 -9.5977110685995015 6.5905781002379058 1 0 0 I I #
coedge $-1 $237 $237 $-1 $337 reversed $155 $-1 #
edge $-1 $338 0 $338 6.2831853071796004 $156 $339 forward 7 unknown #
vertex $-1 $159 $340 #
ellipse-curve $-1 -59.19230916267496 -4.8351611258989564 4.7937283406155888 -0.57357644374324357 0 0.81915203911291934 0.81915203911291934 0 0.57357644374324357 1 I I #
face $-1 $-1 $175 $24 $-1 $341 reversed single #
loop $-1 $-1 $257 $160 #
plane-surface $-1 0 28.983152947321908 0 0 -1 0 0 0 -1 forward_v I I I I #
coedge $-1 $342 $255 $258 $343 forward $161 $-1 #
coedge $-1 $261 $163 $164 $249 reversed $101 $-1 #
coedge $-1 $255 $342 $163 $247 reversed $161 $-1 #
edge $-1 $262 -6.5905781002379085 $344 6.5905781002379085 $246 $345 forward 7 unknown #
coedge $-1 $165 $164 $342 $346 forward $65 $-1 #
edge $-1 $253 -61.758476516006958 $344 61.758476516006958 $245 $347 forward 7 unknown #
coedge $-1 $258 $257 $165 $251 reversed $242 $-1 #
edge $-1 $348 -61.758476516006958 $252 61.758476516006958 $250 $349 forward 7 unknown #
vertex $-1 $167 $350 #
vertex $-1 $264 $351 #
straight-curve $-1 61.758476516006958 0 -6.5905781002379085 0 -1 0 I I #
coedge $-1 $244 $246 $168 $256 reversed $161 $-1 #
edge $-1 $259 -28.983152947321908 $262 28.983152947321908 $255 $352 forward 7 unknown #
coedge $-1 $250 $169 $174 $265 forward $242 $-1 #
coedge $-1 $169 $250 $244 $343 reversed $242 $-1 #
vertex $-1 $170 $353 #
straight-curve $-1 0 28.983152947321908 6.5905781002379085 -1 0 0 I I #
coedge $-1 $171 $245 $173 $264 reversed $101 $-1 #
vertex $-1 $256 $354 #
straight-curve $-1 0 -28.983152947321908 6.5905781002379085 1 0 0 I I #
edge $-1 $176 -6.5905781002379085 $253 6.5905781002379085 $173 $355 forward 7 unknown #
edge $-1 $177 -6.5905781002379085 $252 6.5905781002379085 $174 $356 forward 7 unknown #
point $-1 61.758476516006958 -28.983152947321908 6.5905781002379085 #
point $-1 61.758476516006958 28.983152947321908 6.5905781002379085 #
face $-1 $-1 $278 $25 $-1 $357 reversed single #
loop $-1 $-1 $274 $179 #
plane-surface $-1 0 0 -6.5905781002379085 0 0 1 1 0 0 forward_v I I I I #
coedge $-1 $358 $359 $187 $282 forward $180 $-1 #
coedge $-1 $182 $286 $276 $360 forward $109 $-1 #
edge $-1 $280 -15.715885923864501 $192 -10.818648123050313 $182 $361 forward 7 unknown #
coedge $-1 $362 $188 $183 $275 forward $269 $-1 #
edge $-1 $193 10.818648123050313 $279 15.715885923864501 $274 $363 forward 7 unknown #
coedge $-1 $364 $185 $272 $360 reversed $278 $-1 #
coedge $-1 $185 $364 $362 $365 reversed $278 $-1 #
loop $-1 $-1 $185 $268 #
vertex $-1 $365 $366 #
vertex $-1 $186 $367 #
straight-curve $-1 -58.758476516006958 -28.983152947321908 0 0 0 1 I I #
edge $-1 $287 -6.5905781002379085 $284 6.5905781002379085 $271 $368 forward 7 unknown #
coedge $-1 $188 $362 $358 $369 forward $269 $-1 #
vertex $-1 $189 $370 #
straight-curve $-1 -30.129238258003479 -24.08591514650772 -6.5905781002379085 1 0 0 I I #
coedge $-1 $272 $190 $359 $371 forward $109 $-1 #
vertex $-1 $371 $372 #
straight-curve $-1 -30.129238258003479 -24.08591514650772 6.5905781002379085 -1 0 0 I I #
point $-1 -58.758476516006958 -24.08591514650772 6.5905781002379085 #
point $-1 -58.758476516006958 -24.08591514650772 -6.5905781002379085 #
loop $-1 $-1 $202 $195 #
plane-surface $-1 0 0 6.5905781002379085 0 0 1 1 0 0 forward_v I I I I #
coedge $-1 $373 $374 $199 $295 forward $196 $-1 #
coedge $-1 $199 $198 $300 $375 reversed $73 $-1 #
edge $-1 $297 -87.302713000330399 $376 -79.444181228974614 $293 $377 forward 7 unknown #
coedge $-1 $205 $200 $374 $378 reversed $117 $-1 #
vertex $-1 $295 $379 #
straight-curve $-1 61.758476516006958 12.560513950098313 2.4261906710216863 0 1 0 I I #
coedge $-1 $380 $202 $205 $304 forward $291 $-1 #
coedge $-1 $202 $380 $294 $375 forward $291 $-1 #
vertex $-1 $203 $381 #
straight-curve $-1 11.232086964752991 21.258902853071348 6.5905781002379058 1 0 0 I I #
straight-curve $-1 -42.989839805793459 21.258902853071348 67.880204406321127 -0.84804809178421925 0 0.52991927123019833 I I #
edge $-1 $206 21.258902853071348 $382 28.983152947321908 $205 $383 forward 7 unknown #
point $-1 61.758476516006958 21.258902853071348 6.5905781002379085 #
point $-1 61.758476516006958 21.258902853071348 2.4261906710216863 #
edge $-1 $384 1 $384 0 $209 $-1 forward 7 unknown #
vertex $-1 $210 $385 #
ellipse-curve $-1 57.896350808314793 22.803752871921464 3.6603362938455857 0.52991927123019833 0 0.84804809178421925 0.21201202294605481 0 -0.13247981780754958 1 I I #
point $-1 58.638282102491047 22.803752871921464 4.3759045678222552 #
edge $-1 $386 1 $386 0 $213 $-1 forward 7 unknown #
vertex $-1 $214 $387 #
ellipse-curve $-1 57.896350808314793 25.121027900196633 3.6603362938455857 0.52991927123019833 0 0.84804809178421925 0.21201202294605481 0 -0.13247981780754958 1 I I #
point $-1 58.638282102491047 25.121027900196633 4.3759045678222552 #
edge $-1 $388 1 $388 0 $217 $-1 forward 7 unknown #
vertex $-1 $218 $389 #
ellipse-curve $-1 57.896350808314793 27.438302928471803 3.6603362938455857 0.52991927123019833 0 0.84804809178421925 0.21201202294605481 0 -0.13247981780754958 1 I I #
point $-1 58.638282102491047 27.438302928471803 4.3759045678222552 #
plane-surface $-1 0 0 6.5905781002379085 0 0 1 1 0 0 forward_v I I I I #
coedge $-1 $330 $329 $322 $390 forward $222 $-1 #
coedge $-1 $322 $224 $226 $326 reversed $146 $-1 #
coedge $-1 $224 $321 $320 $390 reversed $146 $-1 #
coedge $-1 $232 $227 $224 $324 forward $233 $-1 #
edge $-1 $327 -9.6763037797124269 $391 -4.543969073048423 $323 $392 forward 7 unknown #
coedge $-1 $226 $225 $330 $393 reversed $92 $-1 #
edge $-1 $394 8.6223355153435888e-015 $327 6.2654238305039769 $321 $395 forward 7 unknown #
vertex $-1 $228 $396 #
straight-curve $-1 -56.626141809342954 -2.4175805629494782 6.5905781002379111 0 1 0 I I #
coedge $-1 $320 $229 $232 $334 reversed $222 $-1 #
coedge $-1 $229 $320 $325 $393 forward $222 $-1 #
vertex $-1 $230 $397 #
straight-curve $-1 -61.758476516006958 -9.5977110685995015 52.088021261091079 0 0 1 I I #
straight-curve $-1 -61.758476516006965 -9.5977110685995015 2.9968785809932683 -0.81915203911291934 0 -0.57357644374324357 I I #
edge $-1 $391 0.072611183198411311 $234 9.5977110685995015 $329 $398 forward 7 unknown #
point $-1 -61.758476516006958 -9.5977110685995015 6.5905781002379085 #
point $-1 -56.626141809342954 -9.5977110685995015 6.5905781002379094 #
edge $-1 $399 1 $399 0 $237 $-1 forward 7 unknown #
vertex $-1 $238 $400 #
ellipse-curve $-1 -56.984704157557644 -4.8351611258989564 1.6409417134380699 -0.57357644374324357 0 0.81915203911291934 0.81915203911291934 0 0.57357644374324357 1 I I #
point $-1 -58.373157123562038 -4.8351611258989564 5.3673047843588328 #
plane-surface $-1 61.758476516006958 0 0 -1 0 0 0 0 1 forward_v I I I I #
coedge $-1 $246 $244 $248 $346 reversed $161 $-1 #
edge $-1 $259 -6.5905781002379085 $348 6.5905781002379085 $258 $401 forward 7 unknown #
vertex $-1 $346 $402 #
straight-curve $-1 -61.758476516006958 -28.983152947321908 0 0 0 -1 I I #
edge $-1 $344 -28.983152947321908 $348 28.983152947321908 $342 $403 forward 7 unknown #
straight-curve $-1 0 -28.983152947321908 -6.5905781002379085 -1 0 0 I I #
vertex $-1 $251 $404 #
straight-curve $-1 0 28.983152947321908 -6.5905781002379085 1 0 0 I I #
point $-1 61.758476516006958 28.983152947321908 -6.5905781002379085 #
point $-1 61.758476516006958 -28.983152947321908 -6.5905781002379085 #
straight-curve $-1 -61.758476516006958 0 6.5905781002379085 0 -1 0 I I #
point $-1 -61.758476516006958 28.983152947321908 6.5905781002379085 #
point $-1 -61.758476516006958 -28.983152947321908 6.5905781002379085 #
straight-curve $-1 61.758476516006958 -28.983152947321908 0 0 0 -1 I I #
straight-curve $-1 61.758476516006958 28.983152947321908 0 0 0 -1 I I #
plane-surface $-1 0 -28.983152947321908 0 0 1 0 0 0 1 forward_v I I I I #
coedge $-1 $405 $271 $283 $369 reversed $180 $-1 #
coedge $-1 $271 $405 $286 $371 reversed $180 $-1 #
edge $-1 $406 -61.758476516006958 $280 -58.758476516006958 $276 $407 forward 7 unknown #
straight-curve $-1 -58.758476516006958 -13.267267023457407 6.5905781002379085 0 1 0 I I #
coedge $-1 $283 $274 $277 $365 forward $269 $-1 #
straight-curve $-1 -58.758476516006958 -13.267267023457407 -6.5905781002379085 0 -1 0 I I #
coedge $-1 $277 $276 $405 $408 forward $278 $-1 #
edge $-1 $279 58.758476516006958 $409 61.758476516006958 $277 $410 forward 7 unknown #
point $-1 -58.758476516006958 -28.983152947321908 -6.5905781002379085 #
point $-1 -58.758476516006958 -28.983152947321908 6.5905781002379085 #
straight-curve $-1 -61.758476516006958 -24.08591514650772 0 0 0 -1 I I #
edge $-1 $409 -28.983152947321908 $284 -24.08591514650772 $358 $411 forward 7 unknown #
point $-1 -61.758476516006958 -24.08591514650772 -6.5905781002379085 #
edge $-1 $287 24.08591514650772 $406 28.983152947321908 $359 $412 forward 7 unknown #
point $-1 -61.758476516006958 -24.08591514650772 6.5905781002379085 #
coedge $-1 $374 $293 $380 $413 reversed $196 $-1 #
coedge $-1 $293 $373 $296 $378 forward $196 $-1 #
edge $-1 $376 -16.422638997223594 $301 -8.6983889029730346 $300 $414 forward 7 unknown #
vertex $-1 $295 $415 #
straight-curve $-1 -12.278422651508581 28.983152947321908 48.689580720575933 -0.84804809178421925 0 0.52991927123019833 I I #
edge $-1 $382 -6.5905781002379085 $297 -2.4261906710216934 $296 $416 forward 7 unknown #
point $-1 61.758476516006958 28.983152947321908 2.4261906710216934 #
coedge $-1 $300 $299 $373 $413 forward $291 $-1 #
point $-1 55.094063643083025 21.258902853071348 6.5905781002379058 #
vertex $-1 $304 $417 #
straight-curve $-1 61.758476516006958 0 6.5905781002379085 0 1 0 I I #
vertex $-1 $307 $418 #
point $-1 58.108362831260848 22.803752871921464 3.5278564760380364 #
vertex $-1 $311 $419 #
point $-1 58.108362831260848 25.121027900196633 3.5278564760380364 #
vertex $-1 $315 $420 #
point $-1 58.108362831260848 27.438302928471803 3.5278564760380364 #
edge $-1 $391 45.497443160853173 $394 49.091142680097803 $320 $421 forward 7 unknown #
vertex $-1 $334 $422 #
straight-curve $-1 -66.302445589055381 -0.072611183198411311 6.5905781002379058 -1 0 0 I I #
edge $-1 $394 -2.3449693797510669 $331 7.1801305056500233 $330 $423 forward 7 unknown #
vertex $-1 $393 $424 #
straight-curve $-1 -61.758476516006965 -0.072611183198411311 2.9968785809932683 0.81915203911291934 0 0.57357644374324357 I I #
point $-1 -56.626141809342954 -0.072611183198411311 6.5905781002379094 #
point $-1 -61.758476516006958 -9.5977110685995015 2.9968785809932732 #
straight-curve $-1 -61.758476516006958 0 6.5905781002379085 0 -1 0 I I #
vertex $-1 $337 $425 #
point $-1 -56.165552118444722 -4.8351611258989564 2.2145181571813133 #
straight-curve $-1 -61.758476516006958 28.983152947321908 0 0 0 -1 I I #
point $-1 -61.758476516006958 -28.983152947321908 -6.5905781002379085 #
straight-curve $-1 -61.758476516006958 0 -6.5905781002379085 0 1 0 I I #
point $-1 -61.758476516006958 28.983152947321908 -6.5905781002379085 #
coedge $-1 $359 $358 $364 $408 reversed $180 $-1 #
vertex $-1 $371 $426 #
straight-curve $-1 0 -28.983152947321908 6.5905781002379085 1 0 0 I I #
edge $-1 $406 -6.5905781002379085 $409 6.5905781002379085 $405 $427 forward 7 unknown #
vertex $-1 $369 $428 #
straight-curve $-1 0 -28.983152947321908 -6.5905781002379085 -1 0 0 I I #
straight-curve $-1 -61.758476516006958 0 -6.5905781002379085 0 1 0 I I #
straight-curve $-1 -61.758476516006958 0 6.5905781002379085 0 -1 0 I I #
edge $-1 $382 -61.758476516006958 $376 -55.094063643083025 $373 $429 forward 7 unknown #
straight-curve $-1 55.094063643083032 12.560513950098313 6.5905781002378987 0 -1 0 I I #
point $-1 55.094063643083025 28.983152947321905 6.5905781002379058 #
straight-curve $-1 61.758476516006958 28.983152947321908 0 0 0 -1 I I #
point $-1 61.758476516006958 28.983152947321908 6.5905781002379085 #
point $-1 57.763870990507243 22.803752871921464 3.4483242708995312 #
point $-1 57.763870990507243 25.121027900196633 3.4483242708995312 #
point $-1 57.763870990507243 27.438302928471803 3.4483242708995312 #
straight-curve $-1 -61.758476516006958 -0.072611183198411311 52.088021261091079 0 0 -1 I I #
point $-1 -61.758476516006958 -0.072611183198411311 6.5905781002379085 #
straight-curve $-1 -61.758476516006958 -2.4175805629494782 2.9968785809932759 0 -1 0 I I #
point $-1 -61.758476516006958 -0.072611183198411311 2.9968785809932732 #
point $-1 -56.411127713814395 -4.8351611258989564 0.82178967432515049 #
point $-1 -61.758476516006958 -28.983152947321908 6.5905781002379085 #
straight-curve $-1 -61.758476516006958 -28.983152947321908 0 0 0 -1 I I #
point $-1 -61.758476516006958 -28.983152947321908 -6.5905781002379085 #
straight-curve $-1 0 28.983152947321908 6.5905781002379085 -1 0 0 I I #
End-of-ACIS-data 