500 0 10 0           
7 Unknown 11 ACIS 5.0 NT 24 Thu Mar 25 23:56:58 1999 
-1 9.9999999999999995e-007 1e-010 
body $-1 $10 $-1 $11 #
body $-1 $12 $-1 $13 #
body $-1 $14 $-1 $15 #
body $-1 $16 $-1 $17 #
body $-1 $18 $-1 $19 #
body $-1 $20 $-1 $21 #
body $-1 $22 $-1 $23 #
body $-1 $24 $-1 $25 #
body $-1 $26 $-1 $27 #
body $-1 $28 $-1 $29 #
lump $-1 $-1 $30 $0 #
transform $-1 1 0 0 0 1 0 0 0 1 44.09924619281594 24.920172191676293 8.1985518431192848 1 rotate no_reflect no_shear #
lump $-1 $-1 $31 $1 #
transform $-1 1 0 0 0 1 0 0 0 1 44.09924619281594 24.920172191676293 8.1985518431192848 1 rotate no_reflect no_shear #
lump $-1 $-1 $32 $2 #
transform $-1 1 0 0 0 1 0 0 0 1 44.09924619281594 24.920172191676293 8.1985518431192848 1 rotate no_reflect no_shear #
lump $-1 $-1 $33 $3 #
transform $-1 1 0 0 0 1 0 0 0 1 44.09924619281594 24.920172191676293 8.1985518431192848 1 rotate no_reflect no_shear #
lump $-1 $-1 $34 $4 #
transform $-1 1 0 0 0 1 0 0 0 1 44.09924619281594 24.920172191676293 8.1985518431192848 1 rotate no_reflect no_shear #
lump $-1 $-1 $35 $5 #
transform $-1 1 0 0 0 1 0 0 0 1 44.09924619281594 24.920172191676293 8.1985518431192848 1 rotate no_reflect no_shear #
lump $-1 $-1 $36 $6 #
transform $-1 1 0 0 0 1 0 0 0 1 44.09924619281594 24.920172191676293 8.1985518431192848 1 rotate no_reflect no_shear #
lump $-1 $-1 $37 $7 #
transform $-1 1 0 0 0 1 0 0 0 1 44.09924619281594 24.920172191676293 8.1985518431192848 1 rotate no_reflect no_shear #
lump $-1 $-1 $38 $8 #
transform $-1 1 0 0 0 1 0 0 0 1 44.09924619281594 24.920172191676293 8.1985518431192848 1 rotate no_reflect no_shear #
lump $-1 $-1 $39 $9 #
transform $-1 1 0 0 0 1 0 0 0 1 44.09924619281594 24.920172191676293 8.1985518431192848 1 rotate no_reflect no_shear #
shell $-1 $-1 $-1 $40 $-1 $10 #
shell $-1 $-1 $-1 $41 $-1 $12 #
shell $-1 $-1 $-1 $42 $-1 $14 #
shell $-1 $-1 $-1 $43 $-1 $16 #
shell $-1 $-1 $-1 $44 $-1 $18 #
shell $-1 $-1 $-1 $45 $-1 $20 #
shell $-1 $-1 $-1 $46 $-1 $22 #
shell $-1 $-1 $-1 $47 $-1 $24 #
shell $-1 $-1 $-1 $48 $-1 $26 #
shell $-1 $-1 $-1 $49 $-1 $28 #
face $-1 $50 $51 $30 $-1 $52 forward single #
face $-1 $53 $54 $31 $-1 $55 forward single #
face $-1 $56 $57 $32 $-1 $58 reversed single #
face $-1 $59 $60 $33 $-1 $61 forward single #
face $-1 $62 $63 $34 $-1 $64 forward single #
face $-1 $65 $66 $35 $-1 $67 forward single #
face $-1 $68 $69 $36 $-1 $70 reversed single #
face $-1 $71 $72 $37 $-1 $73 forward single #
face $-1 $74 $75 $38 $-1 $76 forward single #
face $-1 $77 $78 $39 $-1 $79 forward single #
face $-1 $80 $81 $30 $-1 $82 reversed single #
loop $-1 $-1 $83 $40 #
plane-surface $-1 0 0 8.1985518431192848 0 0 1 1 0 0 forward_v I I I I #
face $-1 $84 $85 $31 $-1 $86 reversed single #
loop $-1 $-1 $87 $41 #
plane-surface $-1 0 -24.920172191676293 0 0 1 0 0 0 1 forward_v I I I I #
face $-1 $88 $89 $32 $-1 $90 reversed single #
loop $-1 $-1 $91 $42 #
plane-surface $-1 70.032385904179762 7.1399119156086712 124.79603477072111 0 -1 0 -0.83867057594974714 0 -0.54463902268945019 forward_v I I I I #
face $-1 $92 $93 $33 $-1 $94 forward single #
loop $-1 $95 $96 $43 #
cone-surface $-1 41.591369076662914 -2.4303760619719981 5.0061781224871087 -0.83867057594974714 0 -0.54463902268945019 0.2723195113447251 0 -0.41933528797487357 1 I I 0 1 0.5 forward I I I I #
face $-1 $97 $98 $34 $-1 $99 forward single #
loop $-1 $100 $101 $44 #
cone-surface $-1 41.591369076662914 1.1584819296207556 5.0061781224871087 -0.83867057594974714 0 -0.54463902268945019 0.2723195113447251 0 -0.41933528797487357 1 I I 0 1 0.5 forward I I I I #
face $-1 $102 $103 $35 $-1 $104 forward single #
loop $-1 $105 $106 $45 #
cone-surface $-1 41.591369076662914 4.7473399212135092 5.0061781224871087 -0.83867057594974714 0 -0.54463902268945019 0.2723195113447251 0 -0.41933528797487357 1 I I 0 1 0.5 forward I I I I #
face $-1 $107 $108 $36 $-1 $109 reversed single #
loop $-1 $-1 $110 $46 #
plane-surface $-1 -118.06872659977321 -4.8229480563671672 50.826554363763847 0 1 0 -0.83867057594974714 0 0.54463902268945019 forward_v I I I I #
face $-1 $111 $112 $37 $-1 $113 forward single #
loop $-1 $114 $115 $47 #
cone-surface $-1 -41.591369076662907 -2.4303760619719981 5.0061781224871158 0.83867057594974714 0 -0.54463902268945019 0.2723195113447251 0 0.41933528797487357 1 I I 0 1 0.5 forward I I I I #
face $-1 $116 $117 $38 $-1 $118 forward single #
loop $-1 $119 $120 $48 #
cone-surface $-1 -41.591369076662907 1.1584819296207556 5.0061781224871158 0.83867057594974714 0 -0.54463902268945019 0.2723195113447251 0 0.41933528797487357 1 I I 0 1 0.5 forward I I I I #
face $-1 $121 $122 $39 $-1 $123 forward single #
loop $-1 $124 $125 $49 #
cone-surface $-1 -41.591369076662907 4.7473399212135092 5.0061781224871158 0.83867057594974714 0 -0.54463902268945019 0.2723195113447251 0 0.41933528797487357 1 I I 0 1 0.5 forward I I I I #
face $-1 $126 $127 $30 $-1 $128 reversed single #
loop $-1 $-1 $129 $50 #
plane-surface $-1 0 0 -8.1985518431192848 0 0 1 1 0 0 forward_v I I I I #
coedge $-1 $130 $131 $132 $133 forward $51 $-1 #
face $-1 $134 $135 $31 $-1 $136 reversed single #
loop $-1 $-1 $137 $53 #
plane-surface $-1 0 0 -8.1985518431192848 0 0 1 1 0 0 forward_v I I I I #
coedge $-1 $138 $139 $140 $141 forward $54 $-1 #
face $-1 $142 $143 $32 $-1 $144 reversed single #
loop $-1 $-1 $145 $56 #
plane-surface $-1 -3.9370945027775122 1.158481929620752 76.759694075127641 0.83867057594974714 0 0.54463902268945019 0.54463902268945019 0 -0.83867057594974714 forward_v I I I I #
coedge $-1 $146 $147 $148 $149 reversed $57 $-1 #
face $-1 $-1 $150 $33 $-1 $151 forward single #
loop $-1 $152 $153 $59 #
cone-surface $-1 40.629932198715949 -2.4303760619719981 4.3818137336570313 -0.83867057594974714 0 -0.54463902268945019 0.13615975567236255 0 -0.20966764398743679 1 I I -0.70710678118654746 0.70710678118654746 0.25 forward I I I I #
loop $-1 $-1 $154 $43 #
coedge $-1 $96 $96 $155 $156 reversed $60 $-1 #
face $-1 $-1 $157 $34 $-1 $158 forward single #
loop $-1 $159 $160 $62 #
cone-surface $-1 40.629932198715949 1.1584819296207556 4.3818137336570313 -0.83867057594974714 0 -0.54463902268945019 0.13615975567236255 0 -0.20966764398743679 1 I I -0.70710678118654746 0.70710678118654746 0.25 forward I I I I #
loop $-1 $-1 $161 $44 #
coedge $-1 $101 $101 $162 $163 reversed $63 $-1 #
face $-1 $-1 $164 $35 $-1 $165 forward single #
loop $-1 $166 $167 $65 #
cone-surface $-1 40.629932198715949 4.7473399212135092 4.3818137336570313 -0.83867057594974714 0 -0.54463902268945019 0.13615975567236255 0 -0.20966764398743679 1 I I -0.70710678118654746 0.70710678118654746 0.25 forward I I I I #
loop $-1 $-1 $168 $45 #
coedge $-1 $106 $106 $169 $170 reversed $66 $-1 #
face $-1 $171 $172 $36 $-1 $173 reversed single #
loop $-1 $-1 $174 $68 #
plane-surface $-1 -44.09924619281594 1.158481929620752 2.790213668170388 -0.83867057594974714 0 0.54463902268945019 0.54463902268945019 0 0.83867057594974714 forward_v I I I I #
coedge $-1 $175 $176 $177 $178 reversed $69 $-1 #
face $-1 $-1 $179 $37 $-1 $180 forward single #
loop $-1 $181 $182 $71 #
cone-surface $-1 -40.629932198715942 -2.4303760619719981 4.3818137336570384 0.83867057594974714 0 -0.54463902268945019 0.13615975567236255 0 0.20966764398743679 1 I I -0.70710678118654746 0.70710678118654746 0.25 forward I I I I #
loop $-1 $-1 $183 $47 #
coedge $-1 $115 $115 $184 $185 reversed $72 $-1 #
face $-1 $-1 $186 $38 $-1 $187 forward single #
loop $-1 $188 $189 $74 #
cone-surface $-1 -40.629932198715942 1.1584819296207556 4.3818137336570384 0.83867057594974714 0 -0.54463902268945019 0.13615975567236255 0 0.20966764398743679 1 I I -0.70710678118654746 0.70710678118654746 0.25 forward I I I I #
loop $-1 $-1 $190 $48 #
coedge $-1 $120 $120 $191 $192 reversed $75 $-1 #
face $-1 $-1 $193 $39 $-1 $194 forward single #
loop $-1 $195 $196 $77 #
cone-surface $-1 -40.629932198715942 4.7473399212135092 4.3818137336570384 0.83867057594974714 0 -0.54463902268945019 0.13615975567236255 0 0.20966764398743679 1 I I -0.70710678118654746 0.70710678118654746 0.25 forward I I I I #
loop $-1 $-1 $197 $49 #
coedge $-1 $125 $125 $198 $199 reversed $78 $-1 #
face $-1 $200 $201 $30 $-1 $202 reversed single #
loop $-1 $-1 $203 $80 #
plane-surface $-1 0 -24.920172191676293 0 0 1 0 0 0 1 forward_v I I I I #
coedge $-1 $204 $205 $206 $207 forward $81 $-1 #
coedge $-1 $208 $83 $209 $210 forward $51 $-1 #
coedge $-1 $83 $208 $211 $212 forward $51 $-1 #
coedge $-1 $213 $214 $83 $133 reversed $215 $-1 #
edge $-1 $216 -24.920172191676293 $217 24.920172191676293 $132 $218 forward 7 unknown #
face $-1 $219 $220 $31 $-1 $221 forward single #
loop $-1 $-1 $222 $84 #
plane-surface $-1 44.09924619281594 0 0 -1 0 0 0 0 1 forward_v I I I I #
coedge $-1 $223 $224 $225 $226 forward $85 $-1 #
coedge $-1 $225 $87 $222 $227 reversed $54 $-1 #
coedge $-1 $87 $225 $228 $229 reversed $54 $-1 #
coedge $-1 $230 $231 $87 $141 reversed $220 $-1 #
edge $-1 $232 -44.09924619281594 $233 44.09924619281594 $140 $234 forward 7 unknown #
face $-1 $235 $236 $32 $-1 $237 reversed single #
loop $-1 $-1 $238 $88 #
plane-surface $-1 70.032385904179762 -4.8229480563671672 124.79603477072111 0 1 0 0.83867057594974714 0 0.54463902268945019 forward_v I I I I #
coedge $-1 $239 $240 $241 $242 reversed $89 $-1 #
coedge $-1 $147 $91 $243 $244 reversed $57 $-1 #
coedge $-1 $91 $146 $239 $245 reversed $57 $-1 #
coedge $-1 $241 $246 $91 $149 forward $247 $-1 #
edge $-1 $248 -9.0830532407260591 $249 -5.5708374763390651 $148 $250 forward 7 unknown #
loop $-1 $-1 $155 $92 #
plane-surface $-1 -3.9370945027775122 1.158481929620752 76.759694075127641 0.83867057594974714 0 0.54463902268945019 0.54463902268945019 0 -0.83867057594974714 forward_v I I I I #
loop $-1 $-1 $251 $59 #
coedge $-1 $153 $153 $154 $252 reversed $93 $-1 #
coedge $-1 $154 $154 $153 $252 forward $95 $-1 #
coedge $-1 $155 $155 $96 $156 forward $150 $-1 #
edge $-1 $253 0 $253 6.2831853071796004 $155 $254 forward 7 unknown #
loop $-1 $-1 $162 $97 #
plane-surface $-1 -3.9370945027775122 1.158481929620752 76.759694075127641 0.83867057594974714 0 0.54463902268945019 0.54463902268945019 0 -0.83867057594974714 forward_v I I I I #
loop $-1 $-1 $255 $62 #
coedge $-1 $160 $160 $161 $256 reversed $98 $-1 #
coedge $-1 $161 $161 $160 $256 forward $100 $-1 #
coedge $-1 $162 $162 $101 $163 forward $157 $-1 #
edge $-1 $257 0 $257 6.2831853071796004 $162 $258 forward 7 unknown #
loop $-1 $-1 $169 $102 #
plane-surface $-1 -3.9370945027775122 1.158481929620752 76.759694075127641 0.83867057594974714 0 0.54463902268945019 0.54463902268945019 0 -0.83867057594974714 forward_v I I I I #
loop $-1 $-1 $259 $65 #
coedge $-1 $167 $167 $168 $260 reversed $103 $-1 #
coedge $-1 $168 $168 $167 $260 forward $105 $-1 #
coedge $-1 $169 $169 $106 $170 forward $164 $-1 #
edge $-1 $261 0 $261 6.2831853071796004 $169 $262 forward 7 unknown #
face $-1 $263 $264 $36 $-1 $265 forward single #
loop $-1 $-1 $266 $107 #
plane-surface $-1 -118.06872659977321 7.1399119156086712 50.826554363763847 0 -1 0 0.83867057594974714 0 -0.54463902268945019 forward_v I I I I #
coedge $-1 $267 $268 $269 $270 reversed $108 $-1 #
coedge $-1 $176 $110 $271 $272 reversed $69 $-1 #
coedge $-1 $110 $175 $267 $273 reversed $69 $-1 #
coedge $-1 $269 $274 $110 $178 forward $264 $-1 #
edge $-1 $275 14.935117107070667 $276 18.447332871457647 $177 $277 forward 7 unknown #
loop $-1 $-1 $184 $111 #
plane-surface $-1 -44.09924619281594 1.158481929620752 2.790213668170388 -0.83867057594974714 0 0.54463902268945019 0.54463902268945019 0 0.83867057594974714 forward_v I I I I #
loop $-1 $-1 $278 $71 #
coedge $-1 $182 $182 $183 $279 reversed $112 $-1 #
coedge $-1 $183 $183 $182 $279 forward $114 $-1 #
coedge $-1 $184 $184 $115 $185 forward $179 $-1 #
edge $-1 $280 0 $280 6.2831853071796004 $184 $281 forward 7 unknown #
loop $-1 $-1 $191 $116 #
plane-surface $-1 -44.09924619281594 1.158481929620752 2.790213668170388 -0.83867057594974714 0 0.54463902268945019 0.54463902268945019 0 0.83867057594974714 forward_v I I I I #
loop $-1 $-1 $282 $74 #
coedge $-1 $189 $189 $190 $283 reversed $117 $-1 #
coedge $-1 $190 $190 $189 $283 forward $119 $-1 #
coedge $-1 $191 $191 $120 $192 forward $186 $-1 #
edge $-1 $284 0 $284 6.2831853071796004 $191 $285 forward 7 unknown #
loop $-1 $-1 $198 $121 #
plane-surface $-1 -44.09924619281594 1.158481929620752 2.790213668170388 -0.83867057594974714 0 0.54463902268945019 0.54463902268945019 0 0.83867057594974714 forward_v I I I I #
loop $-1 $-1 $286 $77 #
coedge $-1 $196 $196 $197 $287 reversed $122 $-1 #
coedge $-1 $197 $197 $196 $287 forward $124 $-1 #
coedge $-1 $198 $198 $125 $199 forward $193 $-1 #
edge $-1 $288 0 $288 6.2831853071796004 $198 $289 forward 7 unknown #
face $-1 $290 $291 $30 $-1 $292 reversed single #
loop $-1 $-1 $293 $126 #
plane-surface $-1 -44.09924619281594 0 0 1 0 0 0 0 -1 forward_v I I I I #
coedge $-1 $211 $294 $213 $295 reversed $127 $-1 #
coedge $-1 $296 $129 $294 $297 forward $81 $-1 #
coedge $-1 $129 $296 $298 $299 forward $81 $-1 #
coedge $-1 $214 $213 $129 $207 reversed $215 $-1 #
edge $-1 $300 -24.920172191676293 $301 24.920172191676293 $206 $302 forward 7 unknown #
coedge $-1 $131 $130 $303 $304 forward $51 $-1 #
coedge $-1 $305 $306 $130 $210 reversed $291 $-1 #
edge $-1 $217 -44.09924619281594 $307 44.09924619281594 $209 $308 forward 7 unknown #
coedge $-1 $309 $203 $131 $212 reversed $127 $-1 #
edge $-1 $310 -44.09924619281594 $216 44.09924619281594 $211 $311 forward 7 unknown #
coedge $-1 $206 $132 $203 $295 forward $215 $-1 #
coedge $-1 $132 $206 $305 $312 reversed $215 $-1 #
loop $-1 $-1 $213 $290 #
vertex $-1 $133 $313 #
vertex $-1 $133 $314 #
straight-curve $-1 44.09924619281594 0 8.1985518431192848 0 1 0 I I #
face $-1 $315 $316 $31 $-1 $317 reversed single #
loop $-1 $-1 $231 $134 #
plane-surface $-1 0 -28.676378489096571 -5.1985518431192848 0 0 1 1 0 0 forward_v I I I I #
coedge $-1 $318 $319 $138 $227 forward $135 $-1 #
coedge $-1 $320 $137 $319 $321 forward $85 $-1 #
coedge $-1 $137 $320 $322 $323 forward $85 $-1 #
coedge $-1 $139 $138 $137 $226 reversed $54 $-1 #
edge $-1 $324 -44.09924619281594 $325 44.09924619281594 $137 $326 forward 7 unknown #
edge $-1 $325 -8.1985518431192848 $233 -5.1985518431192848 $222 $327 forward 7 unknown #
coedge $-1 $322 $328 $139 $229 forward $329 $-1 #
edge $-1 $232 5.1985518431192848 $324 8.1985518431192848 $228 $330 forward 7 unknown #
coedge $-1 $331 $140 $328 $332 forward $220 $-1 #
coedge $-1 $140 $331 $318 $333 forward $220 $-1 #
vertex $-1 $229 $334 #
vertex $-1 $333 $335 #
straight-curve $-1 0 -24.920172191676293 -5.1985518431192848 1 0 0 I I #
face $-1 $-1 $247 $32 $-1 $336 forward single #
loop $-1 $-1 $337 $142 #
plane-surface $-1 44.09924619281594 0 0 -1 0 0 0 0 1 forward_v I I I I #
coedge $-1 $338 $339 $340 $341 reversed $143 $-1 #
coedge $-1 $342 $145 $147 $245 forward $89 $-1 #
coedge $-1 $145 $342 $338 $343 forward $89 $-1 #
coedge $-1 $340 $148 $145 $242 forward $247 $-1 #
edge $-1 $249 -6.5606709507982952 $344 5.4021890211775432 $241 $345 forward 7 unknown #
coedge $-1 $346 $347 $146 $244 forward $236 $-1 #
edge $-1 $348 -59.607803717190173 $248 -54.199465542241271 $243 $349 forward 7 unknown #
edge $-1 $249 81.749788532126246 $348 88.198492385631866 $147 $350 forward 7 unknown #
coedge $-1 $148 $340 $346 $351 forward $247 $-1 #
loop $-1 $-1 $340 $235 #
vertex $-1 $244 $352 #
vertex $-1 $149 $353 #
straight-curve $-1 35.016192952089881 7.1399119156086712 8.198551843119283 -1 0 0 I I #
coedge $-1 $251 $251 $-1 $354 reversed $152 $-1 #
edge $-1 $355 0 $355 6.2831853071796004 $153 $356 forward 7 unknown #
vertex $-1 $156 $357 #
ellipse-curve $-1 42.34313831062245 -2.4303760619719981 5.4943827556448257 0.83867057594974714 0 0.54463902268945019 0.2723195113447251 0 -0.41933528797487357 1 I I #
coedge $-1 $255 $255 $-1 $358 reversed $159 $-1 #
edge $-1 $359 0 $359 6.2831853071796004 $160 $360 forward 7 unknown #
vertex $-1 $163 $361 #
ellipse-curve $-1 42.34313831062245 1.1584819296207556 5.4943827556448257 0.83867057594974714 0 0.54463902268945019 0.2723195113447251 0 -0.41933528797487357 1 I I #
coedge $-1 $259 $259 $-1 $362 reversed $166 $-1 #
edge $-1 $363 0 $363 6.2831853071796004 $167 $364 forward 7 unknown #
vertex $-1 $170 $365 #
ellipse-curve $-1 42.34313831062245 4.7473399212135092 5.4943827556448257 0.83867057594974714 0 0.54463902268945019 0.2723195113447251 0 -0.41933528797487357 1 I I #
face $-1 $-1 $366 $36 $-1 $367 reversed single #
loop $-1 $-1 $177 $171 #
plane-surface $-1 0 0 8.1985518431192848 0 0 1 1 0 0 forward_v I I I I #
coedge $-1 $368 $369 $370 $371 reversed $172 $-1 #
coedge $-1 $372 $174 $176 $273 forward $108 $-1 #
coedge $-1 $174 $372 $368 $373 forward $108 $-1 #
coedge $-1 $370 $177 $174 $270 forward $264 $-1 #
edge $-1 $276 -5.4021890211775432 $374 6.5606709507982952 $269 $375 forward 7 unknown #
coedge $-1 $376 $377 $175 $272 forward $366 $-1 #
edge $-1 $378 -22.623063513711536 $275 -17.214725338762641 $271 $379 forward 7 unknown #
edge $-1 $276 -6.4487038535056005 $378 0 $176 $380 forward 7 unknown #
coedge $-1 $177 $370 $376 $381 forward $264 $-1 #
vertex $-1 $272 $382 #
vertex $-1 $178 $383 #
straight-curve $-1 -59.034363299886607 -4.8229480563671672 8.1985518431192865 1 0 0 I I #
coedge $-1 $278 $278 $-1 $384 reversed $181 $-1 #
edge $-1 $385 0 $385 6.2831853071796004 $182 $386 forward 7 unknown #
vertex $-1 $185 $387 #
ellipse-curve $-1 -42.34313831062245 -2.4303760619719981 5.4943827556448372 -0.83867057594974714 0 0.54463902268945019 0.2723195113447251 0 0.41933528797487357 1 I I #
coedge $-1 $282 $282 $-1 $388 reversed $188 $-1 #
edge $-1 $389 0 $389 6.2831853071796004 $189 $390 forward 7 unknown #
vertex $-1 $192 $391 #
ellipse-curve $-1 -42.34313831062245 1.1584819296207556 5.4943827556448372 -0.83867057594974714 0 0.54463902268945019 0.2723195113447251 0 0.41933528797487357 1 I I #
coedge $-1 $286 $286 $-1 $392 reversed $195 $-1 #
edge $-1 $393 0 $393 6.2831853071796004 $196 $394 forward 7 unknown #
vertex $-1 $199 $395 #
ellipse-curve $-1 -42.34313831062245 4.7473399212135092 5.4943827556448372 -0.83867057594974714 0 0.54463902268945019 0.2723195113447251 0 0.41933528797487357 1 I I #
face $-1 $-1 $215 $30 $-1 $396 reversed single #
loop $-1 $-1 $305 $200 #
plane-surface $-1 0 24.920172191676293 0 0 -1 0 0 0 -1 forward_v I I I I #
coedge $-1 $397 $303 $306 $398 forward $201 $-1 #
coedge $-1 $203 $309 $204 $297 reversed $127 $-1 #
edge $-1 $216 -8.1985518431192848 $301 8.1985518431192848 $213 $399 forward 7 unknown #
coedge $-1 $205 $204 $397 $400 forward $81 $-1 #
edge $-1 $301 -44.09924619281594 $401 44.09924619281594 $294 $402 forward 7 unknown #
coedge $-1 $306 $305 $205 $299 reversed $291 $-1 #
edge $-1 $403 -44.09924619281594 $300 44.09924619281594 $298 $404 forward 7 unknown #
vertex $-1 $207 $405 #
vertex $-1 $295 $406 #
straight-curve $-1 44.09924619281594 0 -8.1985518431192848 0 -1 0 I I #
coedge $-1 $293 $407 $208 $304 reversed $201 $-1 #
edge $-1 $307 -24.920172191676293 $310 24.920172191676293 $303 $408 forward 7 unknown #
coedge $-1 $298 $209 $214 $312 forward $291 $-1 #
coedge $-1 $209 $298 $293 $398 reversed $291 $-1 #
vertex $-1 $210 $409 #
straight-curve $-1 0 24.920172191676293 8.1985518431192848 -1 0 0 I I #
coedge $-1 $294 $211 $407 $410 forward $127 $-1 #
vertex $-1 $304 $411 #
straight-curve $-1 0 -24.920172191676293 8.1985518431192848 1 0 0 I I #
edge $-1 $217 -8.1985518431192848 $300 8.1985518431192848 $214 $412 forward 7 unknown #
point $-1 44.09924619281594 -24.920172191676293 8.1985518431192848 #
point $-1 44.09924619281594 24.920172191676293 8.1985518431192848 #
face $-1 $-1 $329 $31 $-1 $413 reversed single #
loop $-1 $-1 $414 $219 #
plane-surface $-1 0 -32.432584786516848 -6.6985518431192848 0 1 0 0 0 1 forward_v I I I I #
coedge $-1 $415 $222 $231 $333 reversed $135 $-1 #
coedge $-1 $222 $415 $223 $321 reversed $135 $-1 #
coedge $-1 $224 $223 $416 $417 forward $85 $-1 #
edge $-1 $325 24.920172191676293 $418 32.432584786516848 $319 $419 forward 7 unknown #
coedge $-1 $420 $228 $224 $323 reversed $329 $-1 #
edge $-1 $421 -32.432584786516848 $324 -24.920172191676293 $322 $422 forward 7 unknown #
vertex $-1 $229 $423 #
vertex $-1 $321 $424 #
straight-curve $-1 0 -24.920172191676293 -8.1985518431192848 1 0 0 I I #
straight-curve $-1 44.09924619281594 -24.920172191676293 0 0 0 1 I I #
coedge $-1 $228 $420 $230 $332 reversed $329 $-1 #
loop $-1 $-1 $228 $315 #
straight-curve $-1 -44.09924619281594 -24.920172191676293 0 0 0 -1 I I #
coedge $-1 $231 $230 $425 $426 forward $220 $-1 #
edge $-1 $232 -3.7562062974202775 $427 3.7562062974202775 $328 $428 forward 7 unknown #
edge $-1 $429 -3.7562062974202775 $233 3.7562062974202775 $318 $430 forward 7 unknown #
point $-1 -44.09924619281594 -24.920172191676293 -5.1985518431192848 #
point $-1 44.09924619281594 -24.920172191676293 -5.1985518431192848 #
plane-surface $-1 0 0 8.1985518431192848 0 0 1 1 0 0 forward_v I I I I #
coedge $-1 $347 $346 $339 $431 forward $236 $-1 #
coedge $-1 $339 $238 $240 $343 reversed $143 $-1 #
coedge $-1 $238 $338 $337 $431 reversed $143 $-1 #
coedge $-1 $246 $241 $238 $341 forward $247 $-1 #
edge $-1 $344 5.5708374763390651 $432 9.0830532407260591 $340 $433 forward 7 unknown #
coedge $-1 $240 $239 $347 $434 reversed $89 $-1 #
edge $-1 $435 -88.198492385631866 $344 -81.749788532126246 $338 $436 forward 7 unknown #
vertex $-1 $242 $437 #
straight-curve $-1 40.587030428428946 0.57924096481037601 8.1985518431192901 0 -1 0 I I #
coedge $-1 $337 $243 $246 $351 reversed $236 $-1 #
coedge $-1 $243 $337 $342 $434 forward $236 $-1 #
vertex $-1 $244 $438 #
straight-curve $-1 44.09924619281594 7.1399119156086712 62.398017385360554 0 0 1 I I #
straight-curve $-1 -3.9370945027775122 7.1399119156086712 76.759694075127641 0.54463902268945019 0 -0.83867057594974714 I I #
edge $-1 $432 -4.8229480563671672 $248 7.1399119156086712 $346 $439 forward 7 unknown #
point $-1 44.09924619281594 7.1399119156086712 8.1985518431192848 #
point $-1 40.587030428428946 7.1399119156086712 8.1985518431192901 #
edge $-1 $440 1 $440 0 $251 $-1 forward 7 unknown #
vertex $-1 $252 $441 #
ellipse-curve $-1 40.839599842703386 -2.4303760619719981 4.5179734893293935 0.83867057594974714 0 0.54463902268945019 0.2723195113447251 0 -0.41933528797487357 1 I I #
point $-1 42.615457821967176 -2.4303760619719981 5.0750474676699504 #
edge $-1 $442 1 $442 0 $255 $-1 forward 7 unknown #
vertex $-1 $256 $443 #
ellipse-curve $-1 40.839599842703386 1.1584819296207556 4.5179734893293935 0.83867057594974714 0 0.54463902268945019 0.2723195113447251 0 -0.41933528797487357 1 I I #
point $-1 42.615457821967176 1.1584819296207556 5.0750474676699504 #
edge $-1 $444 1 $444 0 $259 $-1 forward 7 unknown #
vertex $-1 $260 $445 #
ellipse-curve $-1 40.839599842703386 4.7473399212135092 4.5179734893293935 0.83867057594974714 0 0.54463902268945019 0.2723195113447251 0 -0.41933528797487357 1 I I #
point $-1 42.615457821967176 4.7473399212135092 5.0750474676699504 #
loop $-1 $-1 $271 $263 #
plane-surface $-1 -44.09924619281594 0 0 1 0 0 0 0 -1 forward_v I I I I #
coedge $-1 $369 $266 $268 $373 reversed $172 $-1 #
coedge $-1 $266 $368 $446 $447 reversed $172 $-1 #
coedge $-1 $274 $269 $266 $371 forward $264 $-1 #
edge $-1 $374 -18.447332871457647 $448 -14.935117107070667 $370 $449 forward 7 unknown #
coedge $-1 $268 $267 $377 $450 reversed $108 $-1 #
edge $-1 $451 0 $374 6.4487038535056005 $368 $452 forward 7 unknown #
vertex $-1 $270 $453 #
straight-curve $-1 -40.587030428428953 0.57924096481037601 8.1985518431192848 0 1 0 I I #
coedge $-1 $446 $271 $274 $381 reversed $366 $-1 #
coedge $-1 $271 $446 $372 $450 forward $366 $-1 #
vertex $-1 $272 $454 #
straight-curve $-1 -44.09924619281594 -4.8229480563671672 25.413277181881924 0 0 1 I I #
straight-curve $-1 -44.09924619281594 -4.8229480563671672 2.790213668170388 -0.54463902268945019 0 -0.83867057594974714 I I #
edge $-1 $448 -7.1399119156086712 $275 4.8229480563671672 $376 $455 forward 7 unknown #
point $-1 -44.09924619281594 -4.8229480563671672 8.1985518431192848 #
point $-1 -40.58703042842896 -4.8229480563671672 8.1985518431192848 #
edge $-1 $456 1 $456 0 $278 $-1 forward 7 unknown #
vertex $-1 $279 $457 #
ellipse-curve $-1 -40.839599842703379 -2.4303760619719981 4.5179734893294006 -0.83867057594974714 0 0.54463902268945019 0.2723195113447251 0 0.41933528797487357 1 I I #
point $-1 -42.070818799277717 -2.4303760619719981 5.9137180436197045 #
edge $-1 $458 1 $458 0 $282 $-1 forward 7 unknown #
vertex $-1 $283 $459 #
ellipse-curve $-1 -40.839599842703379 1.1584819296207556 4.5179734893294006 -0.83867057594974714 0 0.54463902268945019 0.2723195113447251 0 0.41933528797487357 1 I I #
point $-1 -42.070818799277717 1.1584819296207556 5.9137180436197045 #
edge $-1 $460 1 $460 0 $286 $-1 forward 7 unknown #
vertex $-1 $287 $461 #
ellipse-curve $-1 -40.839599842703379 4.7473399212135092 4.5179734893294006 -0.83867057594974714 0 0.54463902268945019 0.2723195113447251 0 0.41933528797487357 1 I I #
point $-1 -42.070818799277717 4.7473399212135092 5.9137180436197045 #
plane-surface $-1 44.09924619281594 0 0 -1 0 0 0 0 1 forward_v I I I I #
coedge $-1 $407 $293 $296 $400 reversed $201 $-1 #
edge $-1 $307 -8.1985518431192848 $403 8.1985518431192848 $306 $462 forward 7 unknown #
straight-curve $-1 44.09924619281594 -24.920172191676293 0 0 0 -1 I I #
edge $-1 $401 -24.920172191676293 $403 24.920172191676293 $397 $463 forward 7 unknown #
vertex $-1 $400 $464 #
straight-curve $-1 0 -24.920172191676293 -8.1985518431192848 -1 0 0 I I #
vertex $-1 $299 $465 #
straight-curve $-1 0 24.920172191676293 -8.1985518431192848 1 0 0 I I #
point $-1 44.09924619281594 24.920172191676293 -8.1985518431192848 #
point $-1 44.09924619281594 -24.920172191676293 -8.1985518431192848 #
coedge $-1 $303 $397 $309 $410 reversed $201 $-1 #
straight-curve $-1 -44.09924619281594 0 8.1985518431192848 0 -1 0 I I #
point $-1 -44.09924619281594 24.920172191676293 8.1985518431192848 #
edge $-1 $310 -8.1985518431192848 $401 8.1985518431192848 $407 $466 forward 7 unknown #
point $-1 -44.09924619281594 -24.920172191676293 8.1985518431192848 #
straight-curve $-1 44.09924619281594 24.920172191676293 0 0 0 -1 I I #
plane-surface $-1 -44.09924619281594 0 0 1 0 0 0 0 -1 forward_v I I I I #
coedge $-1 $416 $425 $420 $467 forward $316 $-1 #
coedge $-1 $319 $318 $468 $469 forward $135 $-1 #
coedge $-1 $468 $414 $320 $417 reversed $316 $-1 #
edge $-1 $418 -44.09924619281594 $421 44.09924619281594 $416 $470 forward 7 unknown #
vertex $-1 $469 $471 #
straight-curve $-1 44.09924619281594 0 -8.1985518431192848 0 -1 0 I I #
coedge $-1 $328 $322 $414 $467 reversed $329 $-1 #
vertex $-1 $323 $472 #
straight-curve $-1 -44.09924619281594 0 -8.1985518431192848 0 1 0 I I #
point $-1 -44.09924619281594 -24.920172191676293 -8.1985518431192848 #
point $-1 44.09924619281594 -24.920172191676293 -8.1985518431192848 #
coedge $-1 $414 $468 $331 $426 reversed $316 $-1 #
edge $-1 $427 -44.09924619281594 $429 44.09924619281594 $425 $473 forward 7 unknown #
vertex $-1 $332 $474 #
straight-curve $-1 -44.09924619281594 -28.676378489096571 -5.1985518431192848 0 -1 0 I I #
vertex $-1 $333 $475 #
straight-curve $-1 44.09924619281594 -28.676378489096571 -5.1985518431192848 0 1 0 I I #
edge $-1 $432 54.199465542241271 $435 59.607803717190173 $337 $476 forward 7 unknown #
vertex $-1 $351 $477 #
straight-curve $-1 35.016192952089881 -4.8229480563671672 8.198551843119283 1 0 0 I I #
edge $-1 $435 -5.4021890211775432 $348 6.5606709507982952 $347 $478 forward 7 unknown #
vertex $-1 $434 $479 #
straight-curve $-1 -3.9370945027775122 -4.8229480563671672 76.759694075127641 -0.54463902268945019 0 0.83867057594974714 I I #
point $-1 40.587030428428946 -4.8229480563671672 8.1985518431192901 #
point $-1 44.09924619281594 7.1399119156086712 2.7902136681703809 #
straight-curve $-1 44.09924619281594 0 8.1985518431192848 0 1 0 I I #
vertex $-1 $354 $480 #
point $-1 41.111919354048112 -2.4303760619719981 4.0986382013545199 #
vertex $-1 $358 $481 #
point $-1 41.111919354048112 1.1584819296207556 4.0986382013545199 #
vertex $-1 $362 $482 #
point $-1 41.111919354048112 4.7473399212135092 4.0986382013545199 #
coedge $-1 $377 $376 $369 $447 forward $366 $-1 #
edge $-1 $448 17.214725338762641 $451 22.623063513711536 $446 $483 forward 7 unknown #
vertex $-1 $381 $484 #
straight-curve $-1 -59.034363299886607 7.1399119156086712 8.1985518431192865 -1 0 0 I I #
edge $-1 $451 -6.5606709507982952 $378 5.4021890211775432 $377 $485 forward 7 unknown #
vertex $-1 $450 $486 #
straight-curve $-1 -44.09924619281594 7.1399119156086712 2.790213668170388 0.54463902268945019 0 0.83867057594974714 I I #
point $-1 -40.58703042842896 7.1399119156086712 8.1985518431192848 #
point $-1 -44.09924619281594 -4.8229480563671672 2.790213668170388 #
straight-curve $-1 -44.09924619281594 0 8.1985518431192848 0 -1 0 I I #
vertex $-1 $384 $487 #
point $-1 -40.567280331358653 -2.4303760619719981 4.9373087773042741 #
vertex $-1 $388 $488 #
point $-1 -40.567280331358653 1.1584819296207556 4.9373087773042741 #
vertex $-1 $392 $489 #
point $-1 -40.567280331358653 4.7473399212135092 4.9373087773042741 #
straight-curve $-1 -44.09924619281594 24.920172191676293 0 0 0 -1 I I #
straight-curve $-1 -44.09924619281594 0 -8.1985518431192848 0 1 0 I I #
point $-1 -44.09924619281594 -24.920172191676293 -8.1985518431192848 #
point $-1 -44.09924619281594 24.920172191676293 -8.1985518431192848 #
straight-curve $-1 -44.09924619281594 -24.920172191676293 0 0 0 -1 I I #
edge $-1 $427 -1.5 $421 1.5 $420 $490 forward 7 unknown #
coedge $-1 $425 $416 $415 $469 reversed $316 $-1 #
edge $-1 $429 -1.5 $418 1.5 $415 $491 forward 7 unknown #
straight-curve $-1 0 -32.432584786516848 -8.1985518431192848 -1 0 0 I I #
point $-1 44.09924619281594 -32.432584786516848 -8.1985518431192848 #
point $-1 -44.09924619281594 -32.432584786516848 -8.1985518431192848 #
straight-curve $-1 0 -32.432584786516848 -5.1985518431192848 1 0 0 I I #
point $-1 -44.09924619281594 -32.432584786516848 -5.1985518431192848 #
point $-1 44.09924619281594 -32.432584786516848 -5.1985518431192848 #
straight-curve $-1 44.09924619281594 -4.8229480563671672 62.398017385360554 0 0 -1 I I #
point $-1 44.09924619281594 -4.8229480563671672 8.1985518431192848 #
straight-curve $-1 44.09924619281594 0.57924096481037601 2.790213668170388 0 1 0 I I #
point $-1 44.09924619281594 -4.8229480563671672 2.7902136681703809 #
point $-1 40.420264554728512 -2.4303760619719981 4.2456539779846691 #
point $-1 40.420264554728512 1.1584819296207556 4.2456539779846691 #
point $-1 40.420264554728512 4.7473399212135092 4.2456539779846691 #
straight-curve $-1 -44.09924619281594 7.1399119156086712 25.413277181881924 0 0 -1 I I #
point $-1 -44.09924619281594 7.1399119156086712 8.1985518431192848 #
straight-curve $-1 -44.09924619281594 0.57924096481037601 2.790213668170392 0 -1 0 I I #
point $-1 -44.09924619281594 7.1399119156086712 2.790213668170388 #
point $-1 -40.420264554728504 -2.4303760619719981 4.2456539779846763 #
point $-1 -40.420264554728504 1.1584819296207556 4.2456539779846763 #
point $-1 -40.420264554728504 4.7473399212135092 4.2456539779846763 #
straight-curve $-1 -44.09924619281594 -32.432584786516848 -6.6985518431192848 0 0 -1 I I #
straight-curve $-1 44.09924619281594 -32.432584786516848 -6.6985518431192848 0 0 -1 I I #
End-of-ACIS-data 