500 0 5 0           
7 Unknown 11 ACIS 5.0 NT 24 Fri Mar 26 15:26:21 1999 
-1 9.9999999999999995e-007 1e-010 
body $-1 $5 $-1 $6 #
body $-1 $7 $-1 $8 #
body $-1 $9 $-1 $10 #
body $-1 $11 $-1 $12 #
body $-1 $13 $-1 $14 #
lump $-1 $-1 $15 $0 #
transform $-1 1 0 0 0 1 0 0 0 1 61.707205420087284 38.391158473277969 11.44236252222907 1 rotate no_reflect no_shear #
lump $-1 $-1 $16 $1 #
transform $-1 1 0 0 0 1 0 0 0 1 61.707205420087284 38.391158473277969 11.44236252222907 1 rotate no_reflect no_shear #
lump $-1 $-1 $17 $2 #
transform $-1 1 0 0 0 1 0 0 0 1 61.707205420087284 38.391158473277969 11.44236252222907 1 rotate no_reflect no_shear #
lump $-1 $-1 $18 $3 #
transform $-1 1 0 0 0 1 0 0 0 1 61.707205420087284 38.391158473277969 11.44236252222907 1 rotate no_reflect no_shear #
lump $-1 $-1 $19 $4 #
transform $-1 1 0 0 0 1 0 0 0 1 61.707205420087284 38.391158473277969 11.44236252222907 1 rotate no_reflect no_shear #
shell $-1 $-1 $-1 $20 $-1 $5 #
shell $-1 $-1 $-1 $21 $-1 $7 #
shell $-1 $-1 $-1 $22 $-1 $9 #
shell $-1 $-1 $-1 $23 $-1 $11 #
shell $-1 $-1 $-1 $24 $-1 $13 #
face $-1 $25 $26 $15 $-1 $27 reversed single #
face $-1 $28 $29 $16 $-1 $30 forward single #
face $-1 $31 $32 $17 $-1 $33 reversed single #
face $-1 $34 $35 $18 $-1 $36 forward single #
face $-1 $37 $38 $19 $-1 $39 forward single #
face $-1 $40 $41 $15 $-1 $42 forward single #
loop $-1 $-1 $43 $20 #
plane-surface $-1 0 -38.391158473277969 0 0 1 0 0 0 1 forward_v I I I I #
face $-1 $44 $45 $16 $-1 $46 reversed single #
loop $-1 $-1 $47 $21 #
plane-surface $-1 0 -38.391158473277969 0 0 1 0 0 0 1 forward_v I I I I #
face $-1 $48 $49 $17 $-1 $50 reversed single #
loop $-1 $-1 $51 $22 #
plane-surface $-1 -47.405128207023829 76.285332135509208 141.11752918382396 1 0 0 0 -0.73135370988377701 -0.68199835119979291 forward_v I I I I #
face $-1 $52 $53 $18 $-1 $54 forward single #
loop $-1 $55 $56 $23 #
cone-surface $-1 -43.683148141950412 32.269543298257609 5.0395122678934001 0 -0.73135370988377701 -0.68199835119979291 1 0 0 1 I I 0 1 1 forward I I I I #
face $-1 $57 $58 $19 $-1 $59 forward single #
loop $-1 $60 $61 $24 #
cone-surface $-1 -38.100178044340296 32.269543298257609 5.0395122678934001 0 -0.73135370988377701 -0.68199835119979291 1 0 0 1 I I 0 1 1 forward I I I I #
face $-1 $62 $63 $15 $-1 $64 reversed single #
loop $-1 $-1 $65 $25 #
plane-surface $-1 0 0 11.44236252222907 0 0 1 1 0 0 forward_v I I I I #
coedge $-1 $66 $67 $68 $69 reversed $26 $-1 #
face $-1 $70 $71 $16 $-1 $72 reversed single #
loop $-1 $-1 $73 $28 #
plane-surface $-1 0 0 -11.44236252222907 0 0 1 1 0 0 forward_v I I I I #
coedge $-1 $74 $75 $76 $77 forward $29 $-1 #
face $-1 $78 $79 $17 $-1 $80 reversed single #
loop $-1 $-1 $81 $31 #
plane-surface $-1 -40.891663093145354 -13.974255085573091 56.949104476531062 0 0.73135370988377701 0.68199835119979291 1 0 0 forward_v I I I I #
coedge $-1 $82 $83 $84 $85 reversed $32 $-1 #
face $-1 $-1 $86 $18 $-1 $87 forward single #
loop $-1 $88 $89 $34 #
cone-surface $-1 -43.683148141950412 30.747096866541938 3.6198080369746872 0 -0.73135370988377701 -0.68199835119979291 0.5 0 0 1 I I -0.70710678118654746 0.70710678118654746 0.5 forward I I I I #
loop $-1 $-1 $90 $23 #
coedge $-1 $56 $56 $91 $92 reversed $35 $-1 #
face $-1 $-1 $93 $19 $-1 $94 forward single #
loop $-1 $95 $96 $37 #
cone-surface $-1 -38.100178044340296 30.747096866541938 3.6198080369746872 0 -0.73135370988377701 -0.68199835119979291 0.5 0 0 1 I I -0.70710678118654746 0.70710678118654746 0.5 forward I I I I #
loop $-1 $-1 $97 $24 #
coedge $-1 $61 $61 $98 $99 reversed $38 $-1 #
face $-1 $100 $101 $15 $-1 $102 reversed single #
loop $-1 $-1 $103 $40 #
plane-surface $-1 0 0 -11.44236252222907 0 0 1 1 0 0 forward_v I I I I #
coedge $-1 $104 $105 $106 $107 forward $41 $-1 #
coedge $-1 $108 $43 $109 $110 reversed $26 $-1 #
coedge $-1 $43 $108 $111 $112 forward $26 $-1 #
coedge $-1 $113 $103 $43 $69 forward $63 $-1 #
edge $-1 $114 -61.707205420087284 $115 61.707205420087284 $43 $116 forward 7 unknown #
face $-1 $117 $118 $16 $-1 $119 reversed single #
loop $-1 $-1 $120 $44 #
plane-surface $-1 -44.436001221517479 -52.701322685547453 0 0 1 0 0 0 1 forward_v I I I I #
coedge $-1 $121 $122 $75 $123 forward $45 $-1 #
coedge $-1 $124 $47 $125 $126 reversed $29 $-1 #
coedge $-1 $47 $124 $73 $123 reversed $29 $-1 #
coedge $-1 $127 $128 $47 $77 reversed $118 $-1 #
edge $-1 $129 -11.44236252222907 $130 11.44236252222907 $76 $131 forward 7 unknown #
face $-1 $132 $133 $17 $-1 $134 forward single #
loop $-1 $-1 $135 $48 #
plane-surface $-1 -34.378197979266879 76.285332135509208 141.11752918382396 -1 0 0 0 0.73135370988377701 0.68199835119979291 forward_v I I I I #
coedge $-1 $136 $137 $138 $139 reversed $49 $-1 #
coedge $-1 $83 $51 $140 $141 reversed $32 $-1 #
coedge $-1 $51 $82 $136 $142 reversed $32 $-1 #
coedge $-1 $138 $143 $51 $85 forward $133 $-1 #
edge $-1 $144 -0.24849240552336482 $145 9.6811987909698018 $84 $146 forward 7 unknown #
loop $-1 $-1 $91 $52 #
plane-surface $-1 -40.891663093145354 -13.974255085573091 56.949104476531062 0 0.73135370988377701 0.68199835119979291 1 0 0 forward_v I I I I #
loop $-1 $-1 $147 $34 #
coedge $-1 $89 $89 $90 $148 reversed $53 $-1 #
coedge $-1 $90 $90 $89 $148 forward $55 $-1 #
coedge $-1 $91 $91 $56 $92 forward $86 $-1 #
edge $-1 $149 -1.2991451645727939e-015 $149 6.2831853071795996 $91 $150 forward 7 unknown #
loop $-1 $-1 $98 $57 #
plane-surface $-1 -40.891663093145354 -13.974255085573091 56.949104476531062 0 0.73135370988377701 0.68199835119979291 1 0 0 forward_v I I I I #
loop $-1 $-1 $151 $37 #
coedge $-1 $96 $96 $97 $152 reversed $58 $-1 #
coedge $-1 $97 $97 $96 $152 forward $60 $-1 #
coedge $-1 $98 $98 $61 $99 forward $93 $-1 #
edge $-1 $153 -1.2991451645727939e-015 $153 6.2831853071795996 $98 $154 forward 7 unknown #
face $-1 $155 $156 $15 $-1 $157 reversed single #
loop $-1 $-1 $158 $62 #
plane-surface $-1 -61.707205420087284 0 0 1 0 0 0 0 -1 forward_v I I I I #
coedge $-1 $68 $159 $160 $161 forward $63 $-1 #
coedge $-1 $162 $65 $163 $164 forward $41 $-1 #
coedge $-1 $65 $162 $108 $165 forward $41 $-1 #
coedge $-1 $109 $166 $65 $107 reversed $167 $-1 #
edge $-1 $168 -38.391158473277969 $169 38.391158473277969 $106 $170 forward 7 unknown #
coedge $-1 $67 $66 $105 $165 reversed $26 $-1 #
coedge $-1 $160 $106 $66 $110 forward $167 $-1 #
edge $-1 $168 -11.44236252222907 $114 11.44236252222907 $109 $171 forward 7 unknown #
coedge $-1 $172 $173 $67 $112 reversed $101 $-1 #
edge $-1 $174 -11.44236252222907 $115 11.44236252222907 $111 $175 forward 7 unknown #
coedge $-1 $159 $68 $173 $176 forward $63 $-1 #
vertex $-1 $110 $177 #
vertex $-1 $176 $178 #
straight-curve $-1 0 -38.391158473277969 -11.44236252222907 -1 0 0 I I #
face $-1 $179 $180 $16 $-1 $181 reversed single #
loop $-1 $-1 $76 $70 #
plane-surface $-1 -47.245101744530487 -45.546240579412711 0 1 0 0 0 0 -1 forward_v I I I I #
coedge $-1 $182 $183 $184 $185 forward $71 $-1 #
coedge $-1 $186 $73 $187 $188 forward $45 $-1 #
coedge $-1 $73 $186 $127 $189 forward $45 $-1 #
edge $-1 $129 -47.245101744530487 $190 -41.626900698504471 $73 $191 forward 7 unknown #
coedge $-1 $75 $74 $192 $193 forward $29 $-1 #
coedge $-1 $194 $195 $74 $126 forward $196 $-1 #
edge $-1 $197 41.626900698504471 $130 47.245101744530487 $125 $198 forward 7 unknown #
coedge $-1 $184 $76 $122 $189 reversed $118 $-1 #
coedge $-1 $76 $184 $194 $199 reversed $118 $-1 #
vertex $-1 $123 $200 #
vertex $-1 $199 $201 #
straight-curve $-1 -47.245101744530487 -38.391158473277969 0 0 0 1 I I #
face $-1 $-1 $202 $17 $-1 $203 reversed single #
loop $-1 $-1 $84 $78 #
plane-surface $-1 0 0 11.44236252222907 0 0 1 1 0 0 forward_v I I I I #
coedge $-1 $204 $205 $206 $207 reversed $79 $-1 #
coedge $-1 $208 $81 $83 $142 forward $49 $-1 #
coedge $-1 $81 $208 $204 $209 forward $49 $-1 #
coedge $-1 $206 $84 $81 $139 forward $133 $-1 #
edge $-1 $145 -26.959296660451152 $210 -13.932366432694202 $138 $211 forward 7 unknown #
coedge $-1 $212 $213 $82 $141 forward $202 $-1 #
edge $-1 $214 -69.7646924677166 $144 -59.116402069682913 $140 $215 forward 7 unknown #
edge $-1 $145 62.222617236102749 $214 76.782316946555909 $83 $216 forward 7 unknown #
coedge $-1 $84 $206 $212 $217 forward $133 $-1 #
vertex $-1 $141 $218 #
vertex $-1 $85 $219 #
straight-curve $-1 -47.405128207023829 38.142666067754604 11.442362522229075 0 -1 0 I I #
coedge $-1 $147 $147 $-1 $220 reversed $88 $-1 #
edge $-1 $221 0 $221 6.2831853071796004 $89 $222 forward 7 unknown #
vertex $-1 $92 $223 #
ellipse-curve $-1 -43.683148141950412 33.426312875031392 6.1182173232122157 0 0.73135370988377701 0.68199835119979291 1 0 0 1 I I #
coedge $-1 $151 $151 $-1 $224 reversed $95 $-1 #
edge $-1 $225 0 $225 6.2831853071796004 $96 $226 forward 7 unknown #
vertex $-1 $99 $227 #
ellipse-curve $-1 -38.100178044340296 33.426312875031392 6.1182173232122157 0 0.73135370988377701 0.68199835119979291 1 0 0 1 I I #
face $-1 $-1 $167 $15 $-1 $228 reversed single #
loop $-1 $-1 $229 $100 #
plane-surface $-1 0 38.391158473277969 0 0 -1 0 0 0 -1 forward_v I I I I #
coedge $-1 $173 $172 $230 $231 forward $101 $-1 #
coedge $-1 $103 $113 $232 $233 forward $63 $-1 #
coedge $-1 $166 $109 $103 $161 reversed $167 $-1 #
edge $-1 $234 -38.391158473277969 $114 38.391158473277969 $160 $235 forward 7 unknown #
coedge $-1 $105 $104 $172 $236 forward $41 $-1 #
coedge $-1 $229 $230 $104 $164 reversed $156 $-1 #
edge $-1 $169 -61.707205420087284 $237 61.707205420087284 $163 $238 forward 7 unknown #
edge $-1 $174 -61.707205420087284 $168 61.707205420087284 $108 $239 forward 7 unknown #
coedge $-1 $106 $160 $229 $240 reversed $167 $-1 #
loop $-1 $-1 $109 $155 #
vertex $-1 $107 $241 #
vertex $-1 $107 $242 #
straight-curve $-1 61.707205420087284 0 11.44236252222907 0 1 0 I I #
straight-curve $-1 61.707205420087284 -38.391158473277969 0 0 0 -1 I I #
coedge $-1 $158 $111 $162 $236 reversed $101 $-1 #
coedge $-1 $111 $158 $113 $176 reversed $101 $-1 #
vertex $-1 $236 $243 #
straight-curve $-1 -61.707205420087284 -38.391158473277969 0 0 0 -1 I I #
edge $-1 $115 -38.391158473277969 $244 38.391158473277969 $173 $245 forward 7 unknown #
point $-1 61.707205420087284 -38.391158473277969 -11.44236252222907 #
point $-1 -61.707205420087284 -38.391158473277969 -11.44236252222907 #
face $-1 $-1 $196 $16 $-1 $246 forward single #
loop $-1 $-1 $247 $117 #
plane-surface $-1 -41.626900698504471 -45.546240579412711 0 -1 0 0 0 0 1 forward_v I I I I #
coedge $-1 $248 $120 $186 $249 reversed $71 $-1 #
coedge $-1 $120 $248 $250 $251 reversed $71 $-1 #
coedge $-1 $128 $127 $120 $185 reversed $118 $-1 #
edge $-1 $252 -11.44236252222907 $253 11.44236252222907 $184 $254 forward 7 unknown #
coedge $-1 $122 $121 $182 $249 forward $45 $-1 #
coedge $-1 $192 $247 $121 $188 reversed $180 $-1 #
edge $-1 $190 -7.155082106134742 $255 7.155082106134742 $187 $256 forward 7 unknown #
edge $-1 $253 -7.155082106134742 $129 7.155082106134742 $127 $257 forward 7 unknown #
vertex $-1 $188 $258 #
straight-curve $-1 0 -38.391158473277969 -11.44236252222907 1 0 0 I I #
coedge $-1 $259 $187 $124 $193 reversed $180 $-1 #
edge $-1 $197 -11.44236252222907 $190 11.44236252222907 $192 $260 forward 7 unknown #
coedge $-1 $250 $125 $128 $199 forward $196 $-1 #
coedge $-1 $125 $250 $259 $261 forward $196 $-1 #
loop $-1 $-1 $125 $179 #
vertex $-1 $126 $262 #
straight-curve $-1 0 -38.391158473277969 11.44236252222907 -1 0 0 I I #
edge $-1 $130 -7.155082106134742 $252 7.155082106134742 $128 $263 forward 7 unknown #
point $-1 -47.245101744530487 -38.391158473277969 -11.44236252222907 #
point $-1 -47.245101744530487 -38.391158473277969 11.44236252222907 #
loop $-1 $-1 $140 $132 #
plane-surface $-1 0 38.391158473277969 0 0 -1 0 0 0 -1 forward_v I I I I #
coedge $-1 $205 $135 $137 $209 reversed $79 $-1 #
coedge $-1 $135 $204 $264 $265 reversed $79 $-1 #
coedge $-1 $143 $138 $135 $207 forward $133 $-1 #
edge $-1 $210 -9.6811987909698018 $266 0.24849240552336482 $206 $267 forward 7 unknown #
coedge $-1 $137 $136 $213 $268 reversed $49 $-1 #
edge $-1 $269 -76.782316946555909 $210 -62.222617236102749 $204 $270 forward 7 unknown #
vertex $-1 $139 $271 #
straight-curve $-1 -20.445831546572677 28.461467276784802 11.442362522229068 1 0 0 I I #
coedge $-1 $264 $140 $143 $217 reversed $202 $-1 #
coedge $-1 $140 $264 $208 $268 forward $202 $-1 #
vertex $-1 $141 $272 #
straight-curve $-1 -47.405128207023829 38.391158473277969 70.558764591911981 0 0 1 I I #
straight-curve $-1 -47.405128207023829 -13.974255085573091 56.949104476531062 0 0.68199835119979291 -0.73135370988377701 I I #
edge $-1 $266 34.378197979266879 $144 47.405128207023829 $212 $273 forward 7 unknown #
point $-1 -47.405128207023829 38.391158473277969 11.44236252222907 #
point $-1 -47.405128207023829 28.461467276784802 11.442362522229068 #
edge $-1 $274 1 $274 0 $147 $-1 forward 7 unknown #
vertex $-1 $148 $275 #
ellipse-curve $-1 -43.683148141950412 31.112773721483826 3.9608072125745837 0 0.73135370988377701 0.68199835119979291 1 0 0 1 I I #
point $-1 -42.683148141950412 33.426312875031392 6.1182173232122175 #
edge $-1 $276 1 $276 0 $151 $-1 forward 7 unknown #
vertex $-1 $152 $277 #
ellipse-curve $-1 -38.100178044340296 31.112773721483826 3.9608072125745837 0 0.73135370988377701 0.68199835119979291 1 0 0 1 I I #
point $-1 -37.100178044340296 33.426312875031392 6.1182173232122175 #
plane-surface $-1 61.707205420087284 0 0 -1 0 0 0 0 1 forward_v I I I I #
coedge $-1 $232 $163 $166 $240 forward $156 $-1 #
coedge $-1 $163 $232 $158 $231 reversed $156 $-1 #
edge $-1 $237 -11.44236252222907 $244 11.44236252222907 $230 $278 forward 7 unknown #
coedge $-1 $230 $229 $159 $233 reversed $156 $-1 #
edge $-1 $244 -61.707205420087284 $234 61.707205420087284 $232 $279 forward 7 unknown #
vertex $-1 $161 $280 #
straight-curve $-1 61.707205420087284 0 -11.44236252222907 0 -1 0 I I #
edge $-1 $237 -38.391158473277969 $174 38.391158473277969 $172 $281 forward 7 unknown #
vertex $-1 $164 $282 #
straight-curve $-1 0 38.391158473277969 11.44236252222907 -1 0 0 I I #
straight-curve $-1 0 -38.391158473277969 11.44236252222907 1 0 0 I I #
edge $-1 $169 -11.44236252222907 $234 11.44236252222907 $166 $283 forward 7 unknown #
point $-1 61.707205420087284 -38.391158473277969 11.44236252222907 #
point $-1 61.707205420087284 38.391158473277969 11.44236252222907 #
point $-1 -61.707205420087284 -38.391158473277969 11.44236252222907 #
vertex $-1 $233 $284 #
straight-curve $-1 -61.707205420087284 0 -11.44236252222907 0 1 0 I I #
plane-surface $-1 0 0 11.44236252222907 0 0 1 1 0 0 forward_v I I I I #
coedge $-1 $187 $259 $248 $285 forward $180 $-1 #
coedge $-1 $183 $182 $247 $285 reversed $71 $-1 #
edge $-1 $255 -2.8091005230130079 $253 2.8091005230130079 $182 $286 forward 7 unknown #
coedge $-1 $195 $194 $183 $251 forward $196 $-1 #
edge $-1 $252 -2.8091005230130079 $287 2.8091005230130079 $183 $288 forward 7 unknown #
vertex $-1 $199 $289 #
vertex $-1 $189 $290 #
straight-curve $-1 -47.245101744530487 -52.701322685547453 0 0 0 -1 I I #
vertex $-1 $285 $291 #
straight-curve $-1 -41.626900698504471 -45.546240579412711 -11.44236252222907 0 -1 0 I I #
straight-curve $-1 -47.245101744530487 -45.546240579412711 -11.44236252222907 0 1 0 I I #
point $-1 -41.626900698504471 -38.391158473277969 -11.44236252222907 #
coedge $-1 $247 $192 $195 $261 reversed $180 $-1 #
straight-curve $-1 -41.626900698504471 -38.391158473277969 0 0 0 -1 I I #
edge $-1 $287 -7.155082106134742 $197 7.155082106134742 $259 $292 forward 7 unknown #
point $-1 -41.626900698504471 -38.391158473277969 11.44236252222907 #
straight-curve $-1 -47.245101744530487 -45.546240579412711 11.44236252222907 0 -1 0 I I #
coedge $-1 $213 $212 $205 $265 forward $202 $-1 #
edge $-1 $266 59.116402069682913 $269 69.7646924677166 $264 $293 forward 7 unknown #
vertex $-1 $217 $294 #
straight-curve $-1 -34.378197979266879 38.142666067754604 11.442362522229075 0 1 0 I I #
edge $-1 $269 13.932366432694202 $214 26.959296660451152 $213 $295 forward 7 unknown #
vertex $-1 $268 $296 #
straight-curve $-1 -34.378197979266879 -13.974255085573091 56.949104476531062 0 -0.68199835119979291 0.73135370988377701 I I #
point $-1 -34.378197979266879 28.461467276784802 11.442362522229068 #
point $-1 -47.405128207023829 38.391158473277969 0.79407212419538808 #
straight-curve $-1 0 38.391158473277969 11.44236252222907 -1 0 0 I I #
vertex $-1 $220 $297 #
point $-1 -42.683148141950412 31.112773721483826 3.9608072125745837 #
vertex $-1 $224 $298 #
point $-1 -37.100178044340296 31.112773721483826 3.9608072125745837 #
straight-curve $-1 -61.707205420087284 38.391158473277969 0 0 0 -1 I I #
straight-curve $-1 0 38.391158473277969 -11.44236252222907 1 0 0 I I #
point $-1 61.707205420087284 38.391158473277969 -11.44236252222907 #
straight-curve $-1 -61.707205420087284 0 11.44236252222907 0 -1 0 I I #
point $-1 -61.707205420087284 38.391158473277969 11.44236252222907 #
straight-curve $-1 61.707205420087284 38.391158473277969 0 0 0 -1 I I #
point $-1 -61.707205420087284 38.391158473277969 -11.44236252222907 #
edge $-1 $287 -11.44236252222907 $255 11.44236252222907 $247 $299 forward 7 unknown #
straight-curve $-1 -44.436001221517479 -52.701322685547453 -11.44236252222907 -1 0 0 I I #
vertex $-1 $261 $300 #
straight-curve $-1 -44.436001221517479 -52.701322685547453 11.44236252222907 1 0 0 I I #
point $-1 -47.245101744530487 -52.701322685547453 11.44236252222907 #
point $-1 -47.245101744530487 -52.701322685547453 -11.44236252222907 #
point $-1 -41.626900698504471 -52.701322685547453 -11.44236252222907 #
straight-curve $-1 -41.626900698504471 -45.546240579412711 11.44236252222907 0 1 0 I I #
straight-curve $-1 -34.378197979266879 38.391158473277969 70.558764591911981 0 0 -1 I I #
point $-1 -34.378197979266879 38.391158473277969 11.44236252222907 #
straight-curve $-1 -20.445831546572677 38.391158473277969 0.79407212419538808 -1 0 0 I I #
point $-1 -34.378197979266879 38.391158473277969 0.79407212419538808 #
point $-1 -43.683148141950412 30.381420011600049 3.2788088613747908 #
point $-1 -38.100178044340296 30.381420011600049 3.2788088613747908 #
straight-curve $-1 -41.626900698504471 -52.701322685547453 0 0 0 -1 I I #
point $-1 -41.626900698504471 -52.701322685547453 11.44236252222907 #
End-of-ACIS-data 