500 0 7 0           
7 Unknown 11 ACIS 5.0 NT 24 Thu Mar 25 16:20:53 1999 
-1 9.9999999999999995e-007 1e-010 
body $-1 $7 $-1 $8 #
body $-1 $9 $-1 $10 #
body $-1 $11 $-1 $12 #
body $-1 $13 $-1 $14 #
body $-1 $15 $-1 $16 #
body $-1 $17 $-1 $18 #
body $-1 $19 $-1 $20 #
lump $-1 $-1 $21 $0 #
transform $-1 1 0 0 0 1 0 0 0 1 59.54771568956572 34.826517958058396 15.751381374145623 1 rotate no_reflect no_shear #
lump $-1 $-1 $22 $1 #
transform $-1 1 0 0 0 1 0 0 0 1 59.54771568956572 34.826517958058396 15.751381374145623 1 rotate no_reflect no_shear #
lump $-1 $-1 $23 $2 #
transform $-1 1 0 0 0 1 0 0 0 1 59.54771568956572 34.826517958058396 15.751381374145623 1 rotate no_reflect no_shear #
lump $-1 $-1 $24 $3 #
transform $-1 1 0 0 0 1 0 0 0 1 59.54771568956572 34.826517958058396 15.751381374145623 1 rotate no_reflect no_shear #
lump $-1 $-1 $25 $4 #
transform $-1 1 0 0 0 1 0 0 0 1 59.54771568956572 34.826517958058396 15.751381374145623 1 rotate no_reflect no_shear #
lump $-1 $-1 $26 $5 #
transform $-1 1 0 0 0 1 0 0 0 1 59.54771568956572 34.826517958058396 15.751381374145623 1 rotate no_reflect no_shear #
lump $-1 $-1 $27 $6 #
transform $-1 1 0 0 0 1 0 0 0 1 59.54771568956572 34.826517958058396 15.751381374145623 1 rotate no_reflect no_shear #
shell $-1 $-1 $-1 $28 $-1 $7 #
shell $-1 $-1 $-1 $29 $-1 $9 #
shell $-1 $-1 $-1 $30 $-1 $11 #
shell $-1 $-1 $-1 $31 $-1 $13 #
shell $-1 $-1 $-1 $32 $-1 $15 #
shell $-1 $-1 $-1 $33 $-1 $17 #
shell $-1 $-1 $-1 $34 $-1 $19 #
face $-1 $35 $36 $21 $-1 $37 forward single #
face $-1 $38 $39 $22 $-1 $40 forward single #
face $-1 $41 $42 $23 $-1 $43 reversed single #
face $-1 $44 $45 $24 $-1 $46 forward single #
face $-1 $47 $48 $25 $-1 $49 forward single #
face $-1 $50 $51 $26 $-1 $52 reversed single #
face $-1 $53 $54 $27 $-1 $55 forward single #
face $-1 $56 $57 $21 $-1 $58 reversed single #
loop $-1 $-1 $59 $28 #
plane-surface $-1 0 0 15.751381374145623 0 0 1 1 0 0 forward_v I I I I #
face $-1 $60 $61 $22 $-1 $62 reversed single #
loop $-1 $-1 $63 $29 #
plane-surface $-1 0 -34.826517958058396 0 0 1 0 0 0 1 forward_v I I I I #
face $-1 $64 $65 $23 $-1 $66 reversed single #
loop $-1 $-1 $67 $30 #
plane-surface $-1 -162.68738565976719 7.2138408775389635 71.799033666144439 0 1 0 -0.86602541151947299 0 0.49999998660252726 forward_v I I I I #
face $-1 $68 $69 $24 $-1 $70 forward single #
loop $-1 $71 $72 $31 #
cone-surface $-1 -57.672895290648007 10.0374842019257 13.502266041808289 0.86602541151947299 0 -0.49999998660252726 0.24999999330126363 0 0.43301270575973649 1 I I 0 1 0.5 forward I I I I #
face $-1 $73 $74 $25 $-1 $75 forward single #
loop $-1 $76 $77 $32 #
cone-surface $-1 -57.672895290648007 14.272949188505805 13.502266041808289 0.86602541151947299 0 -0.49999998660252726 0.24999999330126363 0 0.43301270575973649 1 I I 0 1 0.5 forward I I I I #
face $-1 $78 $79 $26 $-1 $80 reversed single #
loop $-1 $-1 $81 $33 #
plane-surface $-1 53.669721862195445 9.2226502530642591 176.2072381212613 0 -1 0 -0.68199836817093118 0 -0.7313536940579346 forward_v I I I I #
face $-1 $82 $83 $27 $-1 $84 forward single #
loop $-1 $85 $86 $34 #
cone-surface $-1 54.487163243699079 4.2299235656496847 10.91459722996429 -0.68199836817093118 0 -0.7313536940579346 0.7313536940579346 0 -0.68199836817093118 1 I I 0 1 1 forward I I I I #
face $-1 $87 $88 $21 $-1 $89 reversed single #
loop $-1 $-1 $90 $35 #
plane-surface $-1 0 0 -15.751381374145623 0 0 1 1 0 0 forward_v I I I I #
coedge $-1 $91 $92 $93 $94 forward $36 $-1 #
face $-1 $95 $96 $22 $-1 $97 reversed single #
loop $-1 $-1 $98 $38 #
plane-surface $-1 0 0 -15.751381374145623 0 0 1 1 0 0 forward_v I I I I #
coedge $-1 $99 $100 $101 $102 forward $39 $-1 #
face $-1 $103 $104 $23 $-1 $105 reversed single #
loop $-1 $-1 $106 $41 #
plane-surface $-1 -59.54771568956572 12.155216695215749 12.251319572156511 -0.86602541151947299 0 0.49999998660252726 0.49999998660252726 0 0.86602541151947299 forward_v I I I I #
coedge $-1 $107 $108 $109 $110 reversed $42 $-1 #
face $-1 $-1 $111 $24 $-1 $112 forward single #
loop $-1 $113 $114 $44 #
cone-surface $-1 -56.591949314532343 10.0374842019257 12.878181613814878 0.86602541151947299 0 -0.49999998660252726 0.12499999665063181 0 0.21650635287986825 1 I I -0.70710678118654746 0.70710678118654746 0.25 forward I I I I #
loop $-1 $-1 $115 $31 #
coedge $-1 $72 $72 $116 $117 reversed $45 $-1 #
face $-1 $-1 $118 $25 $-1 $119 forward single #
loop $-1 $120 $121 $47 #
cone-surface $-1 -56.591949314532343 14.272949188505805 12.878181613814878 0.86602541151947299 0 -0.49999998660252726 0.12499999665063181 0 0.21650635287986825 1 I I -0.70710678118654746 0.70710678118654746 0.25 forward I I I I #
loop $-1 $-1 $122 $32 #
coedge $-1 $77 $77 $123 $124 reversed $48 $-1 #
face $-1 $125 $126 $26 $-1 $127 reversed single #
loop $-1 $-1 $128 $50 #
plane-surface $-1 -27.553167994985316 4.2299235656496847 89.106354436710262 0.68199836817093118 0 0.7313536940579346 0.7313536940579346 0 -0.68199836817093118 forward_v I I I I #
coedge $-1 $129 $130 $131 $132 reversed $51 $-1 #
face $-1 $-1 $133 $27 $-1 $134 forward single #
loop $-1 $135 $136 $53 #
cone-surface $-1 53.304265411787142 4.2299235656496847 9.6460946360620525 -0.68199836817093118 0 -0.7313536940579346 0.3656768470289673 0 -0.34099918408546559 1 I I -0.70710678118654746 0.70710678118654746 0.5 forward I I I I #
loop $-1 $-1 $137 $34 #
coedge $-1 $86 $86 $138 $139 reversed $54 $-1 #
face $-1 $140 $141 $21 $-1 $142 reversed single #
loop $-1 $-1 $143 $56 #
plane-surface $-1 0 -34.826517958058396 0 0 1 0 0 0 1 forward_v I I I I #
coedge $-1 $144 $145 $146 $147 forward $57 $-1 #
coedge $-1 $148 $59 $149 $150 forward $36 $-1 #
coedge $-1 $59 $148 $151 $152 forward $36 $-1 #
coedge $-1 $153 $154 $59 $94 reversed $155 $-1 #
edge $-1 $156 -34.826517958058396 $157 34.826517958058396 $93 $158 forward 7 unknown #
face $-1 $159 $160 $22 $-1 $161 reversed single #
loop $-1 $-1 $162 $60 #
plane-surface $-1 -31.383196076818962 -53.406350758790616 0 0 1 0 0 0 1 forward_v I I I I #
coedge $-1 $163 $164 $100 $165 forward $61 $-1 #
coedge $-1 $166 $63 $167 $168 reversed $39 $-1 #
coedge $-1 $63 $166 $98 $165 reversed $39 $-1 #
coedge $-1 $169 $170 $63 $102 reversed $160 $-1 #
edge $-1 $171 -15.751381374145623 $172 15.751381374145623 $101 $173 forward 7 unknown #
face $-1 $174 $175 $23 $-1 $176 reversed single #
loop $-1 $-1 $177 $64 #
plane-surface $-1 -162.68738565976719 17.096592512892535 71.799033666144439 0 -1 0 0.86602541151947299 0 -0.49999998660252726 forward_v I I I I #
coedge $-1 $178 $179 $180 $181 reversed $65 $-1 #
coedge $-1 $108 $67 $182 $183 reversed $42 $-1 #
coedge $-1 $67 $107 $178 $184 reversed $42 $-1 #
coedge $-1 $180 $185 $67 $110 forward $186 $-1 #
edge $-1 $187 21.795977140317873 $188 23.816738691681685 $109 $189 forward 7 unknown #
loop $-1 $-1 $116 $68 #
plane-surface $-1 -59.54771568956572 12.155216695215749 12.251319572156511 -0.86602541151947299 0 0.49999998660252726 0.49999998660252726 0 0.86602541151947299 forward_v I I I I #
loop $-1 $-1 $190 $44 #
coedge $-1 $114 $114 $115 $191 reversed $69 $-1 #
coedge $-1 $115 $115 $114 $191 forward $71 $-1 #
coedge $-1 $116 $116 $72 $117 forward $111 $-1 #
edge $-1 $192 0 $192 6.2831853071796004 $116 $193 forward 7 unknown #
loop $-1 $-1 $123 $73 #
plane-surface $-1 -59.54771568956572 12.155216695215749 12.251319572156511 -0.86602541151947299 0 0.49999998660252726 0.49999998660252726 0 0.86602541151947299 forward_v I I I I #
loop $-1 $-1 $194 $47 #
coedge $-1 $121 $121 $122 $195 reversed $74 $-1 #
coedge $-1 $122 $122 $121 $195 forward $76 $-1 #
coedge $-1 $123 $123 $77 $124 forward $118 $-1 #
edge $-1 $196 0 $196 6.2831853071796004 $123 $197 forward 7 unknown #
face $-1 $198 $199 $26 $-1 $200 forward single #
loop $-1 $-1 $201 $78 #
plane-surface $-1 53.669721862195445 -0.76280312176488962 176.2072381212613 0 1 0 0.68199836817093118 0 0.7313536940579346 forward_v I I I I #
coedge $-1 $202 $203 $204 $205 reversed $79 $-1 #
coedge $-1 $130 $81 $206 $207 reversed $51 $-1 #
coedge $-1 $81 $129 $202 $208 reversed $51 $-1 #
coedge $-1 $204 $209 $81 $132 forward $199 $-1 #
edge $-1 $210 -32.712854758467998 $211 -24.27554716238771 $131 $212 forward 7 unknown #
loop $-1 $-1 $138 $82 #
plane-surface $-1 -27.553167994985316 4.2299235656496847 89.106354436710262 0.68199836817093118 0 0.7313536940579346 0.7313536940579346 0 -0.68199836817093118 forward_v I I I I #
loop $-1 $-1 $213 $53 #
coedge $-1 $136 $136 $137 $214 reversed $83 $-1 #
coedge $-1 $137 $137 $136 $214 forward $85 $-1 #
coedge $-1 $138 $138 $86 $139 forward $133 $-1 #
edge $-1 $215 0 $215 6.2831853071796004 $138 $216 forward 7 unknown #
face $-1 $217 $218 $21 $-1 $219 reversed single #
loop $-1 $-1 $220 $87 #
plane-surface $-1 -59.54771568956572 0 0 1 0 0 0 0 -1 forward_v I I I I #
coedge $-1 $221 $151 $222 $223 forward $88 $-1 #
coedge $-1 $224 $90 $221 $225 forward $57 $-1 #
coedge $-1 $90 $224 $226 $227 forward $57 $-1 #
coedge $-1 $154 $153 $90 $147 reversed $155 $-1 #
edge $-1 $228 -34.826517958058396 $229 34.826517958058396 $146 $230 forward 7 unknown #
coedge $-1 $92 $91 $231 $232 forward $36 $-1 #
coedge $-1 $233 $234 $91 $150 reversed $218 $-1 #
edge $-1 $157 -59.54771568956572 $235 59.54771568956572 $149 $236 forward 7 unknown #
coedge $-1 $143 $237 $92 $152 reversed $88 $-1 #
edge $-1 $238 -59.54771568956572 $156 59.54771568956572 $151 $239 forward 7 unknown #
coedge $-1 $146 $93 $237 $240 forward $155 $-1 #
coedge $-1 $93 $146 $233 $241 reversed $155 $-1 #
loop $-1 $-1 $153 $217 #
vertex $-1 $94 $242 #
vertex $-1 $94 $243 #
straight-curve $-1 59.54771568956572 0 15.751381374145623 0 1 0 I I #
face $-1 $244 $245 $22 $-1 $246 reversed single #
loop $-1 $-1 $101 $95 #
plane-surface $-1 -34.187217888200195 -44.116434358424506 0 1 0 0 0 0 -1 forward_v I I I I #
coedge $-1 $247 $248 $249 $250 forward $96 $-1 #
coedge $-1 $251 $98 $252 $253 forward $61 $-1 #
coedge $-1 $98 $251 $169 $254 forward $61 $-1 #
edge $-1 $171 -34.187217888200195 $255 -28.579174265437729 $98 $256 forward 7 unknown #
coedge $-1 $100 $99 $257 $258 forward $39 $-1 #
coedge $-1 $259 $260 $99 $168 forward $261 $-1 #
edge $-1 $262 28.579174265437729 $172 34.187217888200195 $167 $263 forward 7 unknown #
coedge $-1 $249 $101 $164 $254 reversed $160 $-1 #
coedge $-1 $101 $249 $259 $264 reversed $160 $-1 #
vertex $-1 $165 $265 #
vertex $-1 $264 $266 #
straight-curve $-1 -34.187217888200195 -34.826517958058396 0 0 0 1 I I #
face $-1 $-1 $186 $23 $-1 $267 forward single #
loop $-1 $-1 $268 $103 #
plane-surface $-1 -59.54771568956572 0 0 1 0 0 0 0 -1 forward_v I I I I #
coedge $-1 $269 $270 $271 $272 reversed $104 $-1 #
coedge $-1 $273 $106 $108 $184 forward $65 $-1 #
coedge $-1 $106 $273 $269 $274 forward $65 $-1 #
coedge $-1 $271 $109 $106 $181 forward $186 $-1 #
edge $-1 $188 1.1362325299310889 $275 11.01898416528466 $180 $276 forward 7 unknown #
coedge $-1 $277 $278 $107 $183 forward $175 $-1 #
edge $-1 $279 -23.648197260915708 $187 -20.148135458926596 $182 $280 forward 7 unknown #
edge $-1 $188 -4.0415232110200172 $279 0 $108 $281 forward 7 unknown #
coedge $-1 $109 $271 $277 $282 forward $186 $-1 #
loop $-1 $-1 $271 $174 #
vertex $-1 $183 $283 #
vertex $-1 $110 $284 #
straight-curve $-1 -81.343692829883594 7.2138408775389635 15.751381374145623 1 0 0 I I #
coedge $-1 $190 $190 $-1 $285 reversed $113 $-1 #
edge $-1 $286 0 $286 6.2831853071796004 $114 $287 forward 7 unknown #
vertex $-1 $117 $288 #
ellipse-curve $-1 -58.537334913883811 10.0374842019257 14.001350473151073 -0.86602541151947299 0 0.49999998660252726 0.24999999330126363 0 0.43301270575973649 1 I I #
coedge $-1 $194 $194 $-1 $289 reversed $120 $-1 #
edge $-1 $290 0 $290 6.2831853071796004 $121 $291 forward 7 unknown #
vertex $-1 $124 $292 #
ellipse-curve $-1 -58.537334913883811 14.272949188505805 14.001350473151073 -0.86602541151947299 0 0.49999998660252726 0.24999999330126363 0 0.43301270575973649 1 I I #
face $-1 $-1 $293 $26 $-1 $294 reversed single #
loop $-1 $-1 $131 $125 #
plane-surface $-1 0 0 15.751381374145623 0 0 1 1 0 0 forward_v I I I I #
coedge $-1 $295 $296 $297 $298 reversed $126 $-1 #
coedge $-1 $299 $128 $130 $208 forward $79 $-1 #
coedge $-1 $128 $299 $295 $300 forward $79 $-1 #
coedge $-1 $297 $131 $128 $205 forward $199 $-1 #
edge $-1 $211 -7.1076884702394167 $301 2.877764904589732 $204 $302 forward 7 unknown #
coedge $-1 $303 $304 $129 $207 forward $293 $-1 #
edge $-1 $305 -80.220154481101147 $210 -72.352237686485026 $206 $306 forward 7 unknown #
edge $-1 $211 107.55886888600219 $305 119.09543137913144 $130 $307 forward 7 unknown #
coedge $-1 $131 $297 $303 $308 forward $199 $-1 #
vertex $-1 $132 $309 #
vertex $-1 $132 $310 #
straight-curve $-1 26.834860931097722 9.2226502530642591 15.751381374145623 -1 0 0 I I #
coedge $-1 $213 $213 $-1 $311 reversed $135 $-1 #
edge $-1 $312 0 $312 6.2831853071796004 $136 $313 forward 7 unknown #
vertex $-1 $139 $314 #
ellipse-curve $-1 55.329061891525576 4.2299235656496847 11.81742297683758 0.68199836817093118 0 0.7313536940579346 0.7313536940579346 0 -0.68199836817093118 1 I I #
face $-1 $-1 $155 $21 $-1 $315 reversed single #
loop $-1 $-1 $233 $140 #
plane-surface $-1 0 34.826517958058396 0 0 -1 0 0 0 -1 forward_v I I I I #
coedge $-1 $316 $231 $234 $317 forward $141 $-1 #
coedge $-1 $237 $143 $144 $225 reversed $88 $-1 #
coedge $-1 $231 $316 $143 $223 reversed $141 $-1 #
edge $-1 $238 -15.751381374145623 $318 15.751381374145623 $222 $319 forward 7 unknown #
coedge $-1 $145 $144 $316 $320 forward $57 $-1 #
edge $-1 $229 -59.54771568956572 $318 59.54771568956572 $221 $321 forward 7 unknown #
coedge $-1 $234 $233 $145 $227 reversed $218 $-1 #
edge $-1 $322 -59.54771568956572 $228 59.54771568956572 $226 $323 forward 7 unknown #
vertex $-1 $147 $324 #
vertex $-1 $240 $325 #
straight-curve $-1 59.54771568956572 0 -15.751381374145623 0 -1 0 I I #
coedge $-1 $220 $222 $148 $232 reversed $141 $-1 #
edge $-1 $235 -34.826517958058396 $238 34.826517958058396 $231 $326 forward 7 unknown #
coedge $-1 $226 $149 $154 $241 forward $218 $-1 #
coedge $-1 $149 $226 $220 $317 reversed $218 $-1 #
vertex $-1 $150 $327 #
straight-curve $-1 0 34.826517958058396 15.751381374145623 -1 0 0 I I #
coedge $-1 $151 $221 $153 $240 reversed $88 $-1 #
vertex $-1 $232 $328 #
straight-curve $-1 0 -34.826517958058396 15.751381374145623 1 0 0 I I #
edge $-1 $156 -15.751381374145623 $229 15.751381374145623 $153 $329 forward 7 unknown #
edge $-1 $157 -15.751381374145623 $228 15.751381374145623 $154 $330 forward 7 unknown #
point $-1 59.54771568956572 -34.826517958058396 15.751381374145623 #
point $-1 59.54771568956572 34.826517958058396 15.751381374145623 #
face $-1 $-1 $261 $22 $-1 $331 forward single #
loop $-1 $-1 $332 $159 #
plane-surface $-1 -28.579174265437729 -44.116434358424506 0 -1 0 0 0 0 1 forward_v I I I I #
coedge $-1 $333 $162 $251 $334 reversed $96 $-1 #
coedge $-1 $162 $333 $335 $336 reversed $96 $-1 #
coedge $-1 $170 $169 $162 $250 reversed $160 $-1 #
edge $-1 $337 -15.751381374145623 $338 15.751381374145623 $249 $339 forward 7 unknown #
coedge $-1 $164 $163 $247 $334 forward $61 $-1 #
coedge $-1 $257 $332 $163 $253 reversed $245 $-1 #
edge $-1 $255 -9.2899164003661099 $340 9.2899164003661099 $252 $341 forward 7 unknown #
edge $-1 $338 -9.2899164003661099 $171 9.2899164003661099 $169 $342 forward 7 unknown #
vertex $-1 $253 $343 #
straight-curve $-1 0 -34.826517958058396 -15.751381374145623 1 0 0 I I #
coedge $-1 $344 $252 $166 $258 reversed $245 $-1 #
edge $-1 $262 -15.751381374145623 $255 15.751381374145623 $257 $345 forward 7 unknown #
coedge $-1 $335 $167 $170 $264 forward $261 $-1 #
coedge $-1 $167 $335 $344 $346 forward $261 $-1 #
loop $-1 $-1 $167 $244 #
vertex $-1 $168 $347 #
straight-curve $-1 0 -34.826517958058396 15.751381374145623 -1 0 0 I I #
edge $-1 $172 -9.2899164003661099 $337 9.2899164003661099 $170 $348 forward 7 unknown #
point $-1 -34.187217888200195 -34.826517958058396 -15.751381374145623 #
point $-1 -34.187217888200195 -34.826517958058396 15.751381374145623 #
plane-surface $-1 0 0 15.751381374145623 0 0 1 1 0 0 forward_v I I I I #
coedge $-1 $278 $277 $270 $349 forward $175 $-1 #
coedge $-1 $270 $177 $179 $274 reversed $104 $-1 #
coedge $-1 $177 $269 $268 $349 reversed $104 $-1 #
coedge $-1 $185 $180 $177 $272 forward $186 $-1 #
edge $-1 $275 -23.816738691681685 $350 -21.795977140317873 $271 $351 forward 7 unknown #
coedge $-1 $179 $178 $278 $352 reversed $65 $-1 #
edge $-1 $353 0 $275 4.0415232110200172 $269 $354 forward 7 unknown #
vertex $-1 $181 $355 #
straight-curve $-1 -57.526954138201909 6.0776083476078746 15.751381374145625 0 1 0 I I #
coedge $-1 $268 $182 $185 $282 reversed $175 $-1 #
coedge $-1 $182 $268 $273 $352 forward $175 $-1 #
vertex $-1 $183 $356 #
straight-curve $-1 -59.54771568956572 7.2138408775389635 35.899516833072219 0 0 1 I I #
straight-curve $-1 -59.54771568956572 7.2138408775389635 12.251319572156511 -0.49999998660252726 0 -0.86602541151947299 I I #
edge $-1 $350 -17.096592512892535 $187 -7.2138408775389635 $277 $357 forward 7 unknown #
point $-1 -59.54771568956572 7.2138408775389635 15.751381374145623 #
point $-1 -57.526954138201909 7.2138408775389635 15.751381374145623 #
edge $-1 $358 1 $358 0 $190 $-1 forward 7 unknown #
vertex $-1 $191 $359 #
ellipse-curve $-1 -56.808455667412211 10.0374842019257 13.003181610465509 -0.86602541151947299 0 0.49999998660252726 0.24999999330126363 0 0.43301270575973649 1 I I #
point $-1 -58.287334920582545 10.0374842019257 14.434363178910806 #
edge $-1 $360 1 $360 0 $194 $-1 forward 7 unknown #
vertex $-1 $195 $361 #
ellipse-curve $-1 -56.808455667412211 14.272949188505805 13.003181610465509 -0.86602541151947299 0 0.49999998660252726 0.24999999330126363 0 0.43301270575973649 1 I I #
point $-1 -58.287334920582545 14.272949188505805 14.434363178910806 #
loop $-1 $-1 $206 $198 #
plane-surface $-1 59.54771568956572 0 0 -1 0 0 0 0 1 forward_v I I I I #
coedge $-1 $296 $201 $203 $300 reversed $126 $-1 #
coedge $-1 $201 $295 $362 $363 reversed $126 $-1 #
coedge $-1 $209 $204 $201 $298 forward $199 $-1 #
edge $-1 $301 24.27554716238771 $364 32.712854758467998 $297 $365 forward 7 unknown #
coedge $-1 $203 $202 $304 $366 reversed $79 $-1 #
edge $-1 $367 -119.09543137913144 $301 -107.55886888600219 $295 $368 forward 7 unknown #
vertex $-1 $205 $369 #
straight-curve $-1 51.110408093485447 2.1149617828248424 15.751381374145616 0 -1 0 I I #
coedge $-1 $362 $206 $209 $308 reversed $293 $-1 #
coedge $-1 $206 $362 $299 $366 forward $293 $-1 #
vertex $-1 $207 $370 #
straight-curve $-1 59.54771568956572 9.2226502530642591 88.103619060630649 0 0 1 I I #
straight-curve $-1 -27.553167994985316 9.2226502530642591 89.106354436710262 0.7313536940579346 0 -0.68199836817093118 I I #
edge $-1 $364 -0.76280312176488962 $210 9.2226502530642591 $303 $371 forward 7 unknown #
point $-1 59.54771568956572 9.2226502530642591 15.751381374145623 #
point $-1 51.110408093485432 9.2226502530642591 15.751381374145623 #
edge $-1 $372 1 $372 0 $213 $-1 forward 7 unknown #
vertex $-1 $214 $373 #
ellipse-curve $-1 53.645264595872611 4.2299235656496847 10.011771483091019 0.68199836817093118 0 0.7313536940579346 0.7313536940579346 0 -0.68199836817093118 1 I I #
point $-1 56.060415585583492 4.2299235656496847 11.135424608666629 #
plane-surface $-1 59.54771568956572 0 0 -1 0 0 0 0 1 forward_v I I I I #
coedge $-1 $222 $220 $224 $320 reversed $141 $-1 #
edge $-1 $235 -15.751381374145623 $322 15.751381374145623 $234 $374 forward 7 unknown #
vertex $-1 $320 $375 #
straight-curve $-1 -59.54771568956572 -34.826517958058396 0 0 0 -1 I I #
edge $-1 $318 -34.826517958058396 $322 34.826517958058396 $316 $376 forward 7 unknown #
straight-curve $-1 0 -34.826517958058396 -15.751381374145623 -1 0 0 I I #
vertex $-1 $227 $377 #
straight-curve $-1 0 34.826517958058396 -15.751381374145623 1 0 0 I I #
point $-1 59.54771568956572 34.826517958058396 -15.751381374145623 #
point $-1 59.54771568956572 -34.826517958058396 -15.751381374145623 #
straight-curve $-1 -59.54771568956572 0 15.751381374145623 0 -1 0 I I #
point $-1 -59.54771568956572 34.826517958058396 15.751381374145623 #
point $-1 -59.54771568956572 -34.826517958058396 15.751381374145623 #
straight-curve $-1 59.54771568956572 -34.826517958058396 0 0 0 -1 I I #
straight-curve $-1 59.54771568956572 34.826517958058396 0 0 0 -1 I I #
plane-surface $-1 0 0 15.751381374145623 0 0 1 1 0 0 forward_v I I I I #
coedge $-1 $252 $344 $333 $378 forward $245 $-1 #
coedge $-1 $248 $247 $332 $378 reversed $96 $-1 #
edge $-1 $340 -2.804021811381233 $338 2.804021811381233 $247 $379 forward 7 unknown #
coedge $-1 $260 $259 $248 $336 forward $261 $-1 #
edge $-1 $337 -2.804021811381233 $380 2.804021811381233 $248 $381 forward 7 unknown #
vertex $-1 $264 $382 #
vertex $-1 $254 $383 #
straight-curve $-1 -34.187217888200195 -53.406350758790616 0 0 0 -1 I I #
vertex $-1 $378 $384 #
straight-curve $-1 -28.579174265437729 -44.116434358424506 -15.751381374145623 0 -1 0 I I #
straight-curve $-1 -34.187217888200195 -44.116434358424506 -15.751381374145623 0 1 0 I I #
point $-1 -28.579174265437729 -34.826517958058396 -15.751381374145623 #
coedge $-1 $332 $257 $260 $346 reversed $245 $-1 #
straight-curve $-1 -28.579174265437729 -34.826517958058396 0 0 0 -1 I I #
edge $-1 $380 -9.2899164003661099 $262 9.2899164003661099 $344 $385 forward 7 unknown #
point $-1 -28.579174265437729 -34.826517958058396 15.751381374145623 #
straight-curve $-1 -34.187217888200195 -44.116434358424506 15.751381374145623 0 -1 0 I I #
edge $-1 $350 20.148135458926596 $353 23.648197260915708 $268 $386 forward 7 unknown #
vertex $-1 $282 $387 #
straight-curve $-1 -81.343692829883594 17.096592512892535 15.751381374145623 -1 0 0 I I #
edge $-1 $353 -11.01898416528466 $279 -1.1362325299310889 $278 $388 forward 7 unknown #
vertex $-1 $352 $389 #
straight-curve $-1 -59.54771568956572 17.096592512892535 12.251319572156511 0.49999998660252726 0 0.86602541151947299 I I #
point $-1 -57.526954138201909 17.096592512892535 15.751381374145623 #
point $-1 -59.54771568956572 7.2138408775389635 12.251319572156511 #
straight-curve $-1 -59.54771568956572 0 15.751381374145623 0 -1 0 I I #
vertex $-1 $285 $390 #
point $-1 -56.558455674110945 10.0374842019257 13.436194316225246 #
vertex $-1 $289 $391 #
point $-1 -56.558455674110945 14.272949188505805 13.436194316225246 #
coedge $-1 $304 $303 $296 $363 forward $293 $-1 #
edge $-1 $364 72.352237686485026 $367 80.220154481101147 $362 $392 forward 7 unknown #
vertex $-1 $308 $393 #
straight-curve $-1 26.834860931097722 -0.76280312176488962 15.751381374145623 1 0 0 I I #
edge $-1 $367 -2.877764904589732 $305 7.1076884702394167 $304 $394 forward 7 unknown #
vertex $-1 $366 $395 #
straight-curve $-1 -27.553167994985316 -0.76280312176488962 89.106354436710262 -0.7313536940579346 0 0.68199836817093118 I I #
point $-1 51.110408093485432 -0.76280312176488962 15.751381374145623 #
point $-1 59.54771568956572 9.2226502530642591 7.8834645795295017 #
straight-curve $-1 59.54771568956572 0 15.751381374145623 0 1 0 I I #
vertex $-1 $311 $396 #
point $-1 54.376618289930541 4.2299235656496847 9.3297731149200889 #
straight-curve $-1 -59.54771568956572 34.826517958058396 0 0 0 -1 I I #
point $-1 -59.54771568956572 -34.826517958058396 -15.751381374145623 #
straight-curve $-1 -59.54771568956572 0 -15.751381374145623 0 1 0 I I #
point $-1 -59.54771568956572 34.826517958058396 -15.751381374145623 #
edge $-1 $380 -15.751381374145623 $340 15.751381374145623 $332 $397 forward 7 unknown #
straight-curve $-1 -31.383196076818962 -53.406350758790616 -15.751381374145623 -1 0 0 I I #
vertex $-1 $346 $398 #
straight-curve $-1 -31.383196076818962 -53.406350758790616 15.751381374145623 1 0 0 I I #
point $-1 -34.187217888200195 -53.406350758790616 15.751381374145623 #
point $-1 -34.187217888200195 -53.406350758790616 -15.751381374145623 #
point $-1 -28.579174265437729 -53.406350758790616 -15.751381374145623 #
straight-curve $-1 -28.579174265437729 -44.116434358424506 15.751381374145623 0 1 0 I I #
straight-curve $-1 -59.54771568956572 17.096592512892535 35.899516833072219 0 0 -1 I I #
point $-1 -59.54771568956572 17.096592512892535 15.751381374145623 #
straight-curve $-1 -59.54771568956572 6.0776083476078746 12.251319572156518 0 -1 0 I I #
point $-1 -59.54771568956572 17.096592512892535 12.251319572156511 #
point $-1 -56.375442961652475 10.0374842019257 12.753181617164246 #
point $-1 -56.375442961652475 14.272949188505805 12.753181617164246 #
straight-curve $-1 59.54771568956572 -0.76280312176488962 88.103619060630649 0 0 -1 I I #
point $-1 59.54771568956572 -0.76280312176488962 15.751381374145623 #
straight-curve $-1 59.54771568956572 2.1149617828248424 7.883464579529516 0 1 0 I I #
point $-1 59.54771568956572 -0.76280312176488962 7.8834645795295017 #
point $-1 52.963266227701673 4.2299235656496847 9.2804177890330859 #
straight-curve $-1 -28.579174265437729 -53.406350758790616 0 0 0 -1 I I #
point $-1 -28.579174265437729 -53.406350758790616 15.751381374145623 #
End-of-ACIS-data 