500 0 8 0           
7 Unknown 11 ACIS 5.0 NT 24 Fri Mar 26 15:04:19 1999 
-1 9.9999999999999995e-007 1e-010 
body $-1 $8 $-1 $9 #
body $-1 $10 $-1 $11 #
body $-1 $12 $-1 $13 #
body $-1 $14 $-1 $15 #
body $-1 $16 $-1 $17 #
body $-1 $18 $-1 $19 #
body $-1 $20 $-1 $21 #
body $-1 $22 $-1 $23 #
lump $-1 $-1 $24 $0 #
transform $-1 1 0 0 0 1 0 0 0 1 45.652027954954683 31.715251135624175 15.591646045363602 1 rotate no_reflect no_shear #
lump $-1 $-1 $25 $1 #
transform $-1 1 0 0 0 1 0 0 0 1 45.652027954954683 31.715251135624175 15.591646045363602 1 rotate no_reflect no_shear #
lump $-1 $-1 $26 $2 #
transform $-1 1 0 0 0 1 0 0 0 1 45.652027954954683 31.715251135624175 15.591646045363602 1 rotate no_reflect no_shear #
lump $-1 $-1 $27 $3 #
transform $-1 1 0 0 0 1 0 0 0 1 45.652027954954683 31.715251135624175 15.591646045363602 1 rotate no_reflect no_shear #
lump $-1 $-1 $28 $4 #
transform $-1 1 0 0 0 1 0 0 0 1 45.652027954954683 31.715251135624175 15.591646045363602 1 rotate no_reflect no_shear #
lump $-1 $-1 $29 $5 #
transform $-1 1 0 0 0 1 0 0 0 1 45.652027954954683 31.715251135624175 15.591646045363602 1 rotate no_reflect no_shear #
lump $-1 $-1 $30 $6 #
transform $-1 1 0 0 0 1 0 0 0 1 45.652027954954683 31.715251135624175 15.591646045363602 1 rotate no_reflect no_shear #
lump $-1 $-1 $31 $7 #
transform $-1 1 0 0 0 1 0 0 0 1 45.652027954954683 31.715251135624175 15.591646045363602 1 rotate no_reflect no_shear #
shell $-1 $-1 $-1 $32 $-1 $8 #
shell $-1 $-1 $-1 $33 $-1 $10 #
shell $-1 $-1 $-1 $34 $-1 $12 #
shell $-1 $-1 $-1 $35 $-1 $14 #
shell $-1 $-1 $-1 $36 $-1 $16 #
shell $-1 $-1 $-1 $37 $-1 $18 #
shell $-1 $-1 $-1 $38 $-1 $20 #
shell $-1 $-1 $-1 $39 $-1 $22 #
face $-1 $40 $41 $24 $-1 $42 forward single #
face $-1 $43 $44 $25 $-1 $45 forward single #
face $-1 $46 $47 $26 $-1 $48 reversed single #
face $-1 $49 $50 $27 $-1 $51 forward single #
face $-1 $52 $53 $28 $-1 $54 forward single #
face $-1 $55 $56 $29 $-1 $57 reversed single #
face $-1 $58 $59 $30 $-1 $60 forward single #
face $-1 $61 $62 $31 $-1 $63 forward single #
face $-1 $64 $65 $24 $-1 $66 reversed single #
loop $-1 $-1 $67 $32 #
plane-surface $-1 0 0 15.591646045363602 0 0 1 1 0 0 forward_v I I I I #
face $-1 $68 $69 $25 $-1 $70 reversed single #
loop $-1 $-1 $71 $33 #
plane-surface $-1 0 -31.715251135624175 0 0 1 0 0 0 1 forward_v I I I I #
face $-1 $72 $73 $26 $-1 $74 reversed single #
loop $-1 $-1 $75 $34 #
plane-surface $-1 -122.22605311146629 10.396915767679086 56.816533009436682 0 1 0 -0.83867057594974714 0 0.54463902268945019 forward_v I I I I #
face $-1 $76 $77 $27 $-1 $78 forward single #
loop $-1 $79 $80 $35 #
cone-surface $-1 -42.052560158064722 13.97965538807092 10.795649412603003 0.83867057594974714 0 -0.54463902268945019 0.2723195113447251 0 0.41933528797487357 1 I I 0 1 0.5 forward I I I I #
face $-1 $81 $82 $28 $-1 $83 forward single #
loop $-1 $84 $85 $36 #
cone-surface $-1 -42.052560158064722 19.353764818658671 10.795649412603003 0.83867057594974714 0 -0.54463902268945019 0.2723195113447251 0 0.41933528797487357 1 I I 0 1 0.5 forward I I I I #
face $-1 $86 $87 $29 $-1 $88 reversed single #
loop $-1 $-1 $89 $37 #
plane-surface $-1 72.498301333110334 22.936504439050506 133.39055816594828 0 -1 0 -0.83867057594974714 0 -0.54463902268945019 forward_v I I I I #
face $-1 $90 $91 $30 $-1 $92 forward single #
loop $-1 $93 $94 $38 #
cone-surface $-1 42.052560158064729 13.97965538807092 10.795649412602989 -0.83867057594974714 0 -0.54463902268945019 0.2723195113447251 0 -0.41933528797487357 1 I I 0 1 0.5 forward I I I I #
face $-1 $95 $96 $31 $-1 $97 forward single #
loop $-1 $98 $99 $39 #
cone-surface $-1 42.052560158064729 19.353764818658671 10.795649412602989 -0.83867057594974714 0 -0.54463902268945019 0.2723195113447251 0 -0.41933528797487357 1 I I 0 1 0.5 forward I I I I #
face $-1 $100 $101 $24 $-1 $102 reversed single #
loop $-1 $-1 $103 $40 #
plane-surface $-1 0 0 -15.591646045363602 0 0 1 1 0 0 forward_v I I I I #
coedge $-1 $104 $105 $106 $107 forward $41 $-1 #
face $-1 $108 $109 $25 $-1 $110 reversed single #
loop $-1 $-1 $111 $43 #
plane-surface $-1 0 0 -15.591646045363602 0 0 1 1 0 0 forward_v I I I I #
coedge $-1 $112 $113 $114 $115 forward $44 $-1 #
face $-1 $116 $117 $26 $-1 $118 reversed single #
loop $-1 $-1 $119 $46 #
plane-surface $-1 -45.65202795495469 16.666710103364796 7.0887812310807234 -0.83867057594974714 0 0.54463902268945019 0.54463902268945019 0 0.83867057594974714 forward_v I I I I #
coedge $-1 $120 $121 $122 $123 reversed $47 $-1 #
face $-1 $-1 $124 $27 $-1 $125 forward single #
loop $-1 $126 $127 $49 #
cone-surface $-1 -41.004337115519178 13.97965538807092 10.114925431311478 0.83867057594974714 0 -0.54463902268945019 0.13615975567236255 0 0.20966764398743679 1 I I -0.70710678118654746 0.70710678118654746 0.25 forward I I I I #
loop $-1 $-1 $128 $35 #
coedge $-1 $80 $80 $129 $130 reversed $50 $-1 #
face $-1 $-1 $131 $28 $-1 $132 forward single #
loop $-1 $133 $134 $52 #
cone-surface $-1 -41.004337115519178 19.353764818658671 10.114925431311478 0.83867057594974714 0 -0.54463902268945019 0.13615975567236255 0 0.20966764398743679 1 I I -0.70710678118654746 0.70710678118654746 0.25 forward I I I I #
loop $-1 $-1 $135 $36 #
coedge $-1 $85 $85 $136 $137 reversed $53 $-1 #
face $-1 $138 $139 $29 $-1 $140 reversed single #
loop $-1 $-1 $141 $55 #
plane-surface $-1 -4.0757238234012618 16.666710103364796 83.662806387592326 0.83867057594974714 0 0.54463902268945019 0.54463902268945019 0 -0.83867057594974714 forward_v I I I I #
coedge $-1 $142 $143 $144 $145 reversed $56 $-1 #
face $-1 $-1 $146 $30 $-1 $147 forward single #
loop $-1 $148 $149 $58 #
cone-surface $-1 41.004337115519185 13.97965538807092 10.114925431311464 -0.83867057594974714 0 -0.54463902268945019 0.13615975567236255 0 -0.20966764398743679 1 I I -0.70710678118654746 0.70710678118654746 0.25 forward I I I I #
loop $-1 $-1 $150 $38 #
coedge $-1 $94 $94 $151 $152 reversed $59 $-1 #
face $-1 $-1 $153 $31 $-1 $154 forward single #
loop $-1 $155 $156 $61 #
cone-surface $-1 41.004337115519185 19.353764818658671 10.114925431311464 -0.83867057594974714 0 -0.54463902268945019 0.13615975567236255 0 -0.20966764398743679 1 I I -0.70710678118654746 0.70710678118654746 0.25 forward I I I I #
loop $-1 $-1 $157 $39 #
coedge $-1 $99 $99 $158 $159 reversed $62 $-1 #
face $-1 $160 $161 $24 $-1 $162 reversed single #
loop $-1 $-1 $163 $64 #
plane-surface $-1 0 -31.715251135624175 0 0 1 0 0 0 1 forward_v I I I I #
coedge $-1 $164 $165 $166 $167 forward $65 $-1 #
coedge $-1 $168 $67 $169 $170 forward $41 $-1 #
coedge $-1 $67 $168 $171 $172 forward $41 $-1 #
coedge $-1 $173 $174 $67 $107 reversed $175 $-1 #
edge $-1 $176 -31.715251135624175 $177 31.715251135624175 $106 $178 forward 7 unknown #
face $-1 $179 $180 $25 $-1 $181 reversed single #
loop $-1 $-1 $182 $68 #
plane-surface $-1 -18.8752865386415 -51.548156085649794 0 0 1 0 0 0 1 forward_v I I I I #
coedge $-1 $183 $184 $113 $185 forward $69 $-1 #
coedge $-1 $186 $71 $187 $188 reversed $44 $-1 #
coedge $-1 $71 $186 $111 $185 reversed $44 $-1 #
coedge $-1 $189 $190 $71 $115 reversed $180 $-1 #
edge $-1 $191 -15.591646045363602 $192 15.591646045363602 $114 $193 forward 7 unknown #
face $-1 $194 $195 $26 $-1 $196 reversed single #
loop $-1 $-1 $197 $72 #
plane-surface $-1 -122.22605311146629 22.936504439050506 56.816533009436682 0 -1 0 0.83867057594974714 0 -0.54463902268945019 forward_v I I I I #
coedge $-1 $198 $199 $200 $201 reversed $73 $-1 #
coedge $-1 $121 $75 $202 $203 reversed $47 $-1 #
coedge $-1 $75 $120 $198 $204 reversed $47 $-1 #
coedge $-1 $200 $205 $75 $123 forward $206 $-1 #
edge $-1 $207 15.46099860077846 $208 20.982823397442154 $122 $209 forward 7 unknown #
loop $-1 $-1 $129 $76 #
plane-surface $-1 -45.65202795495469 16.666710103364796 7.0887812310807234 -0.83867057594974714 0 0.54463902268945019 0.54463902268945019 0 0.83867057594974714 forward_v I I I I #
loop $-1 $-1 $210 $49 #
coedge $-1 $127 $127 $128 $211 reversed $77 $-1 #
coedge $-1 $128 $128 $127 $211 forward $79 $-1 #
coedge $-1 $129 $129 $80 $130 forward $124 $-1 #
edge $-1 $212 0 $212 6.2831853071796004 $129 $213 forward 7 unknown #
loop $-1 $-1 $136 $81 #
plane-surface $-1 -45.65202795495469 16.666710103364796 7.0887812310807234 -0.83867057594974714 0 0.54463902268945019 0.54463902268945019 0 0.83867057594974714 forward_v I I I I #
loop $-1 $-1 $214 $52 #
coedge $-1 $134 $134 $135 $215 reversed $82 $-1 #
coedge $-1 $135 $135 $134 $215 forward $84 $-1 #
coedge $-1 $136 $136 $85 $137 forward $131 $-1 #
edge $-1 $216 0 $216 6.2831853071796004 $136 $217 forward 7 unknown #
face $-1 $218 $219 $29 $-1 $220 forward single #
loop $-1 $-1 $221 $86 #
plane-surface $-1 72.498301333110334 10.396915767679086 133.39055816594828 0 1 0 0.83867057594974714 0 0.54463902268945019 forward_v I I I I #
coedge $-1 $222 $223 $224 $225 reversed $87 $-1 #
coedge $-1 $143 $89 $226 $227 reversed $56 $-1 #
coedge $-1 $89 $142 $222 $228 reversed $56 $-1 #
coedge $-1 $224 $229 $89 $145 forward $219 $-1 #
edge $-1 $230 -9.402877288399516 $231 -3.8810524917358293 $144 $232 forward 7 unknown #
loop $-1 $-1 $151 $90 #
plane-surface $-1 -4.0757238234012618 16.666710103364796 83.662806387592326 0.83867057594974714 0 0.54463902268945019 0.54463902268945019 0 -0.83867057594974714 forward_v I I I I #
loop $-1 $-1 $233 $58 #
coedge $-1 $149 $149 $150 $234 reversed $91 $-1 #
coedge $-1 $150 $150 $149 $234 forward $93 $-1 #
coedge $-1 $151 $151 $94 $152 forward $146 $-1 #
edge $-1 $235 0 $235 6.2831853071796004 $151 $236 forward 7 unknown #
loop $-1 $-1 $158 $95 #
plane-surface $-1 -4.0757238234012618 16.666710103364796 83.662806387592326 0.83867057594974714 0 0.54463902268945019 0.54463902268945019 0 -0.83867057594974714 forward_v I I I I #
loop $-1 $-1 $237 $61 #
coedge $-1 $156 $156 $157 $238 reversed $96 $-1 #
coedge $-1 $157 $157 $156 $238 forward $98 $-1 #
coedge $-1 $158 $158 $99 $159 forward $153 $-1 #
edge $-1 $239 0 $239 6.2831853071796004 $158 $240 forward 7 unknown #
face $-1 $241 $242 $24 $-1 $243 reversed single #
loop $-1 $-1 $244 $100 #
plane-surface $-1 -45.652027954954683 0 0 1 0 0 0 0 -1 forward_v I I I I #
coedge $-1 $245 $171 $246 $247 forward $101 $-1 #
coedge $-1 $248 $103 $245 $249 forward $65 $-1 #
coedge $-1 $103 $248 $250 $251 forward $65 $-1 #
coedge $-1 $174 $173 $103 $167 reversed $175 $-1 #
edge $-1 $252 -31.715251135624175 $253 31.715251135624175 $166 $254 forward 7 unknown #
coedge $-1 $105 $104 $255 $256 forward $41 $-1 #
coedge $-1 $257 $258 $104 $170 reversed $242 $-1 #
edge $-1 $177 -45.652027954954683 $259 45.652027954954683 $169 $260 forward 7 unknown #
coedge $-1 $163 $261 $105 $172 reversed $101 $-1 #
edge $-1 $262 -45.652027954954683 $176 45.652027954954683 $171 $263 forward 7 unknown #
coedge $-1 $166 $106 $261 $264 forward $175 $-1 #
coedge $-1 $106 $166 $257 $265 reversed $175 $-1 #
loop $-1 $-1 $173 $241 #
vertex $-1 $107 $266 #
vertex $-1 $107 $267 #
straight-curve $-1 45.652027954954683 0 15.591646045363602 0 1 0 I I #
face $-1 $268 $269 $25 $-1 $270 reversed single #
loop $-1 $-1 $114 $108 #
plane-surface $-1 -22.52136301261222 -41.631703610636983 0 1 0 0 0 0 -1 forward_v I I I I #
coedge $-1 $271 $272 $273 $274 forward $109 $-1 #
coedge $-1 $275 $111 $276 $277 forward $69 $-1 #
coedge $-1 $111 $275 $189 $278 forward $69 $-1 #
edge $-1 $191 -22.52136301261222 $279 -15.229210064670781 $111 $280 forward 7 unknown #
coedge $-1 $113 $112 $281 $282 forward $44 $-1 #
coedge $-1 $283 $284 $112 $188 forward $285 $-1 #
edge $-1 $286 15.229210064670781 $192 22.52136301261222 $187 $287 forward 7 unknown #
coedge $-1 $273 $114 $184 $278 reversed $180 $-1 #
coedge $-1 $114 $273 $283 $288 reversed $180 $-1 #
vertex $-1 $185 $289 #
vertex $-1 $288 $290 #
straight-curve $-1 -22.52136301261222 -31.715251135624175 0 0 0 1 I I #
face $-1 $-1 $206 $26 $-1 $291 forward single #
loop $-1 $-1 $292 $116 #
plane-surface $-1 -45.652027954954683 0 0 1 0 0 0 0 -1 forward_v I I I I #
coedge $-1 $293 $294 $295 $296 reversed $117 $-1 #
coedge $-1 $297 $119 $121 $204 forward $73 $-1 #
coedge $-1 $119 $297 $293 $298 forward $73 $-1 #
coedge $-1 $295 $122 $119 $201 forward $206 $-1 #
edge $-1 $208 2.0635607159966884 $299 14.603149387368108 $200 $300 forward 7 unknown #
coedge $-1 $301 $302 $120 $203 forward $195 $-1 #
edge $-1 $303 -21.319485273637607 $207 -12.816620459354739 $202 $304 forward 7 unknown #
edge $-1 $208 -10.138503791734752 $303 -1.2808562293387176e-014 $121 $305 forward 7 unknown #
coedge $-1 $122 $295 $301 $306 forward $206 $-1 #
loop $-1 $-1 $295 $194 #
vertex $-1 $203 $307 #
vertex $-1 $123 $308 #
straight-curve $-1 -61.113026555733143 10.396915767679086 15.591646045363603 1 0 0 I I #
coedge $-1 $210 $210 $-1 $309 reversed $126 $-1 #
edge $-1 $310 0 $310 6.2831853071796004 $127 $311 forward 7 unknown #
vertex $-1 $130 $312 #
ellipse-curve $-1 -42.891115556622836 13.97965538807092 11.340213638222169 -0.83867057594974714 0 0.54463902268945019 0.2723195113447251 0 0.41933528797487357 1 I I #
coedge $-1 $214 $214 $-1 $313 reversed $133 $-1 #
edge $-1 $314 0 $314 6.2831853071796004 $134 $315 forward 7 unknown #
vertex $-1 $137 $316 #
ellipse-curve $-1 -42.891115556622836 19.353764818658671 11.340213638222169 -0.83867057594974714 0 0.54463902268945019 0.2723195113447251 0 0.41933528797487357 1 I I #
face $-1 $-1 $317 $29 $-1 $318 reversed single #
loop $-1 $-1 $144 $138 #
plane-surface $-1 0 0 15.591646045363602 0 0 1 1 0 0 forward_v I I I I #
coedge $-1 $319 $320 $321 $322 reversed $139 $-1 #
coedge $-1 $323 $141 $143 $228 forward $87 $-1 #
coedge $-1 $141 $323 $319 $324 forward $87 $-1 #
coedge $-1 $321 $144 $141 $225 forward $219 $-1 #
edge $-1 $231 -14.603149387368108 $325 -2.0635607159966884 $224 $326 forward 7 unknown #
coedge $-1 $327 $328 $142 $227 forward $317 $-1 #
edge $-1 $329 -59.606497851893408 $230 -51.103633037610535 $226 $330 forward 7 unknown #
edge $-1 $231 81.165552118174617 $329 91.304055909909351 $143 $331 forward 7 unknown #
coedge $-1 $144 $321 $327 $332 forward $219 $-1 #
vertex $-1 $145 $333 #
vertex $-1 $145 $334 #
straight-curve $-1 36.249150666555167 22.936504439050506 15.591646045363603 -1 0 0 I I #
coedge $-1 $233 $233 $-1 $335 reversed $148 $-1 #
edge $-1 $336 0 $336 6.2831853071796004 $149 $337 forward 7 unknown #
vertex $-1 $152 $338 #
ellipse-curve $-1 42.89111555662285 13.97965538807092 11.34021363822216 0.83867057594974714 0 0.54463902268945019 0.2723195113447251 0 -0.41933528797487357 1 I I #
coedge $-1 $237 $237 $-1 $339 reversed $155 $-1 #
edge $-1 $340 0 $340 6.2831853071796004 $156 $341 forward 7 unknown #
vertex $-1 $159 $342 #
ellipse-curve $-1 42.89111555662285 19.353764818658671 11.34021363822216 0.83867057594974714 0 0.54463902268945019 0.2723195113447251 0 -0.41933528797487357 1 I I #
face $-1 $-1 $175 $24 $-1 $343 reversed single #
loop $-1 $-1 $257 $160 #
plane-surface $-1 0 31.715251135624175 0 0 -1 0 0 0 -1 forward_v I I I I #
coedge $-1 $344 $255 $258 $345 forward $161 $-1 #
coedge $-1 $261 $163 $164 $249 reversed $101 $-1 #
coedge $-1 $255 $344 $163 $247 reversed $161 $-1 #
edge $-1 $262 -15.591646045363602 $346 15.591646045363602 $246 $347 forward 7 unknown #
coedge $-1 $165 $164 $344 $348 forward $65 $-1 #
edge $-1 $253 -45.652027954954683 $346 45.652027954954683 $245 $349 forward 7 unknown #
coedge $-1 $258 $257 $165 $251 reversed $242 $-1 #
edge $-1 $350 -45.652027954954683 $252 45.652027954954683 $250 $351 forward 7 unknown #
vertex $-1 $167 $352 #
vertex $-1 $264 $353 #
straight-curve $-1 45.652027954954683 0 -15.591646045363602 0 -1 0 I I #
coedge $-1 $244 $246 $168 $256 reversed $161 $-1 #
edge $-1 $259 -31.715251135624175 $262 31.715251135624175 $255 $354 forward 7 unknown #
coedge $-1 $250 $169 $174 $265 forward $242 $-1 #
coedge $-1 $169 $250 $244 $345 reversed $242 $-1 #
vertex $-1 $170 $355 #
straight-curve $-1 0 31.715251135624175 15.591646045363602 -1 0 0 I I #
coedge $-1 $171 $245 $173 $264 reversed $101 $-1 #
vertex $-1 $256 $356 #
straight-curve $-1 0 -31.715251135624175 15.591646045363602 1 0 0 I I #
edge $-1 $176 -15.591646045363602 $253 15.591646045363602 $173 $357 forward 7 unknown #
edge $-1 $177 -15.591646045363602 $252 15.591646045363602 $174 $358 forward 7 unknown #
point $-1 45.652027954954683 -31.715251135624175 15.591646045363602 #
point $-1 45.652027954954683 31.715251135624175 15.591646045363602 #
face $-1 $-1 $285 $25 $-1 $359 forward single #
loop $-1 $-1 $360 $179 #
plane-surface $-1 -15.229210064670781 -41.631703610636983 0 -1 0 0 0 0 1 forward_v I I I I #
coedge $-1 $361 $182 $275 $362 reversed $109 $-1 #
coedge $-1 $182 $361 $363 $364 reversed $109 $-1 #
coedge $-1 $190 $189 $182 $274 reversed $180 $-1 #
edge $-1 $365 -15.591646045363602 $366 15.591646045363602 $273 $367 forward 7 unknown #
coedge $-1 $184 $183 $271 $362 forward $69 $-1 #
coedge $-1 $281 $360 $183 $277 reversed $269 $-1 #
edge $-1 $279 -9.9164524750128109 $368 9.9164524750128109 $276 $369 forward 7 unknown #
edge $-1 $366 -9.9164524750128109 $191 9.9164524750128109 $189 $370 forward 7 unknown #
vertex $-1 $277 $371 #
straight-curve $-1 0 -31.715251135624175 -15.591646045363602 1 0 0 I I #
coedge $-1 $372 $276 $186 $282 reversed $269 $-1 #
edge $-1 $286 -15.591646045363602 $279 15.591646045363602 $281 $373 forward 7 unknown #
coedge $-1 $363 $187 $190 $288 forward $285 $-1 #
coedge $-1 $187 $363 $372 $374 forward $285 $-1 #
loop $-1 $-1 $187 $268 #
vertex $-1 $188 $375 #
straight-curve $-1 0 -31.715251135624175 15.591646045363602 -1 0 0 I I #
edge $-1 $192 -9.9164524750128109 $365 9.9164524750128109 $190 $376 forward 7 unknown #
point $-1 -22.52136301261222 -31.715251135624172 -15.591646045363602 #
point $-1 -22.52136301261222 -31.715251135624172 15.591646045363602 #
plane-surface $-1 0 0 15.591646045363602 0 0 1 1 0 0 forward_v I I I I #
coedge $-1 $302 $301 $294 $377 forward $195 $-1 #
coedge $-1 $294 $197 $199 $298 reversed $117 $-1 #
coedge $-1 $197 $293 $292 $377 reversed $117 $-1 #
coedge $-1 $205 $200 $197 $296 forward $206 $-1 #
edge $-1 $299 -20.982823397442154 $378 -15.46099860077846 $295 $379 forward 7 unknown #
coedge $-1 $199 $198 $302 $380 reversed $73 $-1 #
edge $-1 $381 1.2808562293387176e-014 $299 10.138503791734752 $293 $382 forward 7 unknown #
vertex $-1 $201 $383 #
straight-curve $-1 -40.130203158290989 8.333355051682398 15.591646045363602 0 1 0 I I #
coedge $-1 $292 $202 $205 $306 reversed $195 $-1 #
coedge $-1 $202 $292 $297 $380 forward $195 $-1 #
vertex $-1 $203 $384 #
straight-curve $-1 -45.652027954954683 10.396915767679086 28.408266504718341 0 0 1 I I #
straight-curve $-1 -45.65202795495469 10.396915767679086 7.0887812310807234 -0.54463902268945019 0 -0.83867057594974714 I I #
edge $-1 $378 -22.936504439050506 $207 -10.396915767679086 $301 $385 forward 7 unknown #
point $-1 -45.652027954954683 10.396915767679086 15.591646045363602 #
point $-1 -40.130203158290989 10.396915767679086 15.591646045363602 #
edge $-1 $386 1 $386 0 $210 $-1 forward 7 unknown #
vertex $-1 $211 $387 #
ellipse-curve $-1 -41.214004759506615 13.97965538807092 10.251085186983842 -0.83867057594974714 0 0.54463902268945019 0.2723195113447251 0 0.41933528797487357 1 I I #
point $-1 -42.61879604527811 13.97965538807092 11.759548926197041 #
edge $-1 $388 1 $388 0 $214 $-1 forward 7 unknown #
vertex $-1 $215 $389 #
ellipse-curve $-1 -41.214004759506615 19.353764818658671 10.251085186983842 -0.83867057594974714 0 0.54463902268945019 0.2723195113447251 0 0.41933528797487357 1 I I #
point $-1 -42.61879604527811 19.353764818658671 11.759548926197041 #
loop $-1 $-1 $226 $218 #
plane-surface $-1 45.652027954954683 0 0 -1 0 0 0 0 1 forward_v I I I I #
coedge $-1 $320 $221 $223 $324 reversed $139 $-1 #
coedge $-1 $221 $319 $390 $391 reversed $139 $-1 #
coedge $-1 $229 $224 $221 $322 forward $219 $-1 #
edge $-1 $325 3.8810524917358293 $392 9.402877288399516 $321 $393 forward 7 unknown #
coedge $-1 $223 $222 $328 $394 reversed $87 $-1 #
edge $-1 $395 -91.304055909909351 $325 -81.165552118174617 $319 $396 forward 7 unknown #
vertex $-1 $225 $397 #
straight-curve $-1 40.130203158290989 8.333355051682398 15.591646045363603 0 -1 0 I I #
coedge $-1 $390 $226 $229 $332 reversed $317 $-1 #
coedge $-1 $226 $390 $323 $394 forward $317 $-1 #
vertex $-1 $227 $398 #
straight-curve $-1 45.652027954954683 22.936504439050506 66.695279082974139 0 0 1 I I #
straight-curve $-1 -4.0757238234012618 22.936504439050506 83.662806387592326 0.54463902268945019 0 -0.83867057594974714 I I #
edge $-1 $392 10.396915767679086 $230 22.936504439050506 $327 $399 forward 7 unknown #
point $-1 45.652027954954683 22.936504439050506 15.591646045363602 #
point $-1 40.130203158290996 22.936504439050506 15.591646045363603 #
edge $-1 $400 1 $400 0 $233 $-1 forward 7 unknown #
vertex $-1 $234 $401 #
ellipse-curve $-1 41.214004759506622 13.97965538807092 10.251085186983827 0.83867057594974714 0 0.54463902268945019 0.2723195113447251 0 -0.41933528797487357 1 I I #
point $-1 43.163435067967569 13.97965538807092 10.920878350247278 #
edge $-1 $402 1 $402 0 $237 $-1 forward 7 unknown #
vertex $-1 $238 $403 #
ellipse-curve $-1 41.214004759506622 19.353764818658671 10.251085186983827 0.83867057594974714 0 0.54463902268945019 0.2723195113447251 0 -0.41933528797487357 1 I I #
point $-1 43.163435067967569 19.353764818658671 10.920878350247278 #
plane-surface $-1 45.652027954954683 0 0 -1 0 0 0 0 1 forward_v I I I I #
coedge $-1 $246 $244 $248 $348 reversed $161 $-1 #
edge $-1 $259 -15.591646045363602 $350 15.591646045363602 $258 $404 forward 7 unknown #
vertex $-1 $348 $405 #
straight-curve $-1 -45.652027954954683 -31.715251135624175 0 0 0 -1 I I #
edge $-1 $346 -31.715251135624175 $350 31.715251135624175 $344 $406 forward 7 unknown #
straight-curve $-1 0 -31.715251135624175 -15.591646045363602 -1 0 0 I I #
vertex $-1 $251 $407 #
straight-curve $-1 0 31.715251135624175 -15.591646045363602 1 0 0 I I #
point $-1 45.652027954954683 31.715251135624175 -15.591646045363602 #
point $-1 45.652027954954683 -31.715251135624175 -15.591646045363602 #
straight-curve $-1 -45.652027954954683 0 15.591646045363602 0 -1 0 I I #
point $-1 -45.652027954954683 31.715251135624175 15.591646045363602 #
point $-1 -45.652027954954683 -31.715251135624175 15.591646045363602 #
straight-curve $-1 45.652027954954683 -31.715251135624175 0 0 0 -1 I I #
straight-curve $-1 45.652027954954683 31.715251135624175 0 0 0 -1 I I #
plane-surface $-1 0 0 15.591646045363602 0 0 1 1 0 0 forward_v I I I I #
coedge $-1 $276 $372 $361 $408 forward $269 $-1 #
coedge $-1 $272 $271 $360 $408 reversed $109 $-1 #
edge $-1 $368 -3.6460764739707194 $366 3.6460764739707194 $271 $409 forward 7 unknown #
coedge $-1 $284 $283 $272 $364 forward $285 $-1 #
edge $-1 $365 -3.6460764739707194 $410 3.6460764739707194 $272 $411 forward 7 unknown #
vertex $-1 $288 $412 #
vertex $-1 $278 $413 #
straight-curve $-1 -22.52136301261222 -51.548156085649794 0 0 0 -1 I I #
vertex $-1 $408 $414 #
straight-curve $-1 -15.229210064670781 -41.631703610636983 -15.591646045363602 0 -1 0 I I #
straight-curve $-1 -22.52136301261222 -41.631703610636983 -15.591646045363602 0 1 0 I I #
point $-1 -15.229210064670781 -31.715251135624172 -15.591646045363602 #
coedge $-1 $360 $281 $284 $374 reversed $269 $-1 #
straight-curve $-1 -15.229210064670781 -31.715251135624175 0 0 0 -1 I I #
edge $-1 $410 -9.9164524750128109 $286 9.9164524750128109 $372 $415 forward 7 unknown #
point $-1 -15.229210064670781 -31.715251135624172 15.591646045363602 #
straight-curve $-1 -22.52136301261222 -41.631703610636983 15.591646045363602 0 -1 0 I I #
edge $-1 $378 12.816620459354739 $381 21.319485273637607 $292 $416 forward 7 unknown #
vertex $-1 $306 $417 #
straight-curve $-1 -61.113026555733143 22.936504439050506 15.591646045363603 -1 0 0 I I #
edge $-1 $381 -14.603149387368108 $303 -2.0635607159966884 $302 $418 forward 7 unknown #
vertex $-1 $380 $419 #
straight-curve $-1 -45.65202795495469 22.936504439050506 7.0887812310807234 0.54463902268945019 0 0.83867057594974714 I I #
point $-1 -40.130203158290989 22.936504439050506 15.591646045363602 #
point $-1 -45.652027954954683 10.396915767679086 7.0887812310807341 #
straight-curve $-1 -45.652027954954683 0 15.591646045363602 0 -1 0 I I #
vertex $-1 $309 $420 #
point $-1 -40.941685248161889 13.97965538807092 10.670420474958714 #
vertex $-1 $313 $421 #
point $-1 -40.941685248161889 19.353764818658671 10.670420474958714 #
coedge $-1 $328 $327 $320 $391 forward $317 $-1 #
edge $-1 $392 51.103633037610535 $395 59.606497851893408 $390 $422 forward 7 unknown #
vertex $-1 $332 $423 #
straight-curve $-1 36.249150666555167 10.396915767679086 15.591646045363603 1 0 0 I I #
edge $-1 $395 2.0635607159966884 $329 14.603149387368108 $328 $424 forward 7 unknown #
vertex $-1 $394 $425 #
straight-curve $-1 -4.0757238234012618 10.396915767679086 83.662806387592326 -0.54463902268945019 0 0.83867057594974714 I I #
point $-1 40.130203158290996 10.396915767679086 15.591646045363603 #
point $-1 45.652027954954683 22.936504439050506 7.0887812310807305 #
straight-curve $-1 45.652027954954683 0 15.591646045363602 0 1 0 I I #
vertex $-1 $335 $426 #
point $-1 41.486324270851348 13.97965538807092 9.8317498990089529 #
vertex $-1 $339 $427 #
point $-1 41.486324270851348 19.353764818658671 9.8317498990089529 #
straight-curve $-1 -45.652027954954683 31.715251135624175 0 0 0 -1 I I #
point $-1 -45.652027954954683 -31.715251135624175 -15.591646045363602 #
straight-curve $-1 -45.652027954954683 0 -15.591646045363602 0 1 0 I I #
point $-1 -45.652027954954683 31.715251135624175 -15.591646045363602 #
edge $-1 $410 -15.591646045363602 $368 15.591646045363602 $360 $428 forward 7 unknown #
straight-curve $-1 -18.8752865386415 -51.548156085649794 -15.591646045363602 -1 0 0 I I #
vertex $-1 $374 $429 #
straight-curve $-1 -18.8752865386415 -51.548156085649794 15.591646045363602 1 0 0 I I #
point $-1 -22.52136301261222 -51.548156085649794 15.591646045363602 #
point $-1 -22.52136301261222 -51.548156085649794 -15.591646045363602 #
point $-1 -15.229210064670781 -51.548156085649794 -15.591646045363602 #
straight-curve $-1 -15.229210064670781 -41.631703610636983 15.591646045363602 0 1 0 I I #
straight-curve $-1 -45.652027954954683 22.936504439050506 28.408266504718341 0 0 -1 I I #
point $-1 -45.652027954954683 22.936504439050506 15.591646045363602 #
straight-curve $-1 -45.652027954954683 8.333355051682398 7.0887812310807448 0 -1 0 I I #
point $-1 -45.652027954954683 22.936504439050506 7.0887812310807341 #
point $-1 -40.794669471531741 13.97965538807092 9.9787656756391154 #
point $-1 -40.794669471531741 19.353764818658671 9.9787656756391154 #
straight-curve $-1 45.652027954954683 10.396915767679086 66.695279082974139 0 0 -1 I I #
point $-1 45.652027954954683 10.396915767679086 15.591646045363602 #
straight-curve $-1 45.652027954954683 8.333355051682398 7.0887812310807448 0 1 0 I I #
point $-1 45.652027954954683 10.396915767679086 7.0887812310807305 #
point $-1 40.794669471531748 13.97965538807092 9.9787656756391012 #
point $-1 40.794669471531748 19.353764818658671 9.9787656756391012 #
straight-curve $-1 -15.229210064670781 -51.548156085649794 0 0 0 -1 I I #
point $-1 -15.229210064670781 -51.548156085649794 15.591646045363602 #
End-of-ACIS-data 