500 0 16 0           
7 Unknown 11 ACIS 5.0 NT 24 Fri Mar 26 01:10:20 1999 
-1 9.9999999999999995e-007 1e-010 
body $-1 $16 $-1 $17 #
body $-1 $18 $-1 $19 #
body $-1 $20 $-1 $21 #
body $-1 $22 $-1 $23 #
body $-1 $24 $-1 $25 #
body $-1 $26 $-1 $27 #
body $-1 $28 $-1 $29 #
body $-1 $30 $-1 $31 #
body $-1 $32 $-1 $33 #
body $-1 $34 $-1 $35 #
body $-1 $36 $-1 $37 #
body $-1 $38 $-1 $39 #
body $-1 $40 $-1 $41 #
body $-1 $42 $-1 $43 #
body $-1 $44 $-1 $45 #
body $-1 $46 $-1 $47 #
lump $-1 $-1 $48 $0 #
transform $-1 1 0 0 0 1 0 0 0 1 59.146092104861594 30.783693471319641 12.788756496384559 1 rotate no_reflect no_shear #
lump $-1 $-1 $49 $1 #
transform $-1 1 0 0 0 1 0 0 0 1 59.146092104861594 30.783693471319641 12.788756496384559 1 rotate no_reflect no_shear #
lump $-1 $-1 $50 $2 #
transform $-1 1 0 0 0 1 0 0 0 1 59.146092104861594 30.783693471319641 12.788756496384559 1 rotate no_reflect no_shear #
lump $-1 $-1 $51 $3 #
transform $-1 1 0 0 0 1 0 0 0 1 59.146092104861594 30.783693471319641 12.788756496384559 1 rotate no_reflect no_shear #
lump $-1 $-1 $52 $4 #
transform $-1 1 0 0 0 1 0 0 0 1 59.146092104861594 30.783693471319641 12.788756496384559 1 rotate no_reflect no_shear #
lump $-1 $-1 $53 $5 #
transform $-1 1 0 0 0 1 0 0 0 1 59.146092104861594 30.783693471319641 12.788756496384559 1 rotate no_reflect no_shear #
lump $-1 $-1 $54 $6 #
transform $-1 1 0 0 0 1 0 0 0 1 59.146092104861594 30.783693471319641 12.788756496384559 1 rotate no_reflect no_shear #
lump $-1 $-1 $55 $7 #
transform $-1 1 0 0 0 1 0 0 0 1 59.146092104861594 30.783693471319641 12.788756496384559 1 rotate no_reflect no_shear #
lump $-1 $-1 $56 $8 #
transform $-1 1 0 0 0 1 0 0 0 1 59.146092104861594 30.783693471319641 12.788756496384559 1 rotate no_reflect no_shear #
lump $-1 $-1 $57 $9 #
transform $-1 1 0 0 0 1 0 0 0 1 59.146092104861594 30.783693471319641 12.788756496384559 1 rotate no_reflect no_shear #
lump $-1 $-1 $58 $10 #
transform $-1 1 0 0 0 1 0 0 0 1 59.146092104861594 30.783693471319641 12.788756496384559 1 rotate no_reflect no_shear #
lump $-1 $-1 $59 $11 #
transform $-1 1 0 0 0 1 0 0 0 1 59.146092104861594 30.783693471319641 12.788756496384559 1 rotate no_reflect no_shear #
lump $-1 $-1 $60 $12 #
transform $-1 1 0 0 0 1 0 0 0 1 59.146092104861594 30.783693471319641 12.788756496384559 1 rotate no_reflect no_shear #
lump $-1 $-1 $61 $13 #
transform $-1 1 0 0 0 1 0 0 0 1 59.146092104861594 30.783693471319641 12.788756496384559 1 rotate no_reflect no_shear #
lump $-1 $-1 $62 $14 #
transform $-1 1 0 0 0 1 0 0 0 1 59.146092104861594 30.783693471319641 12.788756496384559 1 rotate no_reflect no_shear #
lump $-1 $-1 $63 $15 #
transform $-1 1 0 0 0 1 0 0 0 1 59.146092104861594 30.783693471319641 12.788756496384559 1 rotate no_reflect no_shear #
shell $-1 $-1 $-1 $64 $-1 $16 #
shell $-1 $-1 $-1 $65 $-1 $18 #
shell $-1 $-1 $-1 $66 $-1 $20 #
shell $-1 $-1 $-1 $67 $-1 $22 #
shell $-1 $-1 $-1 $68 $-1 $24 #
shell $-1 $-1 $-1 $69 $-1 $26 #
shell $-1 $-1 $-1 $70 $-1 $28 #
shell $-1 $-1 $-1 $71 $-1 $30 #
shell $-1 $-1 $-1 $72 $-1 $32 #
shell $-1 $-1 $-1 $73 $-1 $34 #
shell $-1 $-1 $-1 $74 $-1 $36 #
shell $-1 $-1 $-1 $75 $-1 $38 #
shell $-1 $-1 $-1 $76 $-1 $40 #
shell $-1 $-1 $-1 $77 $-1 $42 #
shell $-1 $-1 $-1 $78 $-1 $44 #
shell $-1 $-1 $-1 $79 $-1 $46 #
face $-1 $80 $81 $48 $-1 $82 forward single #
face $-1 $83 $84 $49 $-1 $85 forward single #
face $-1 $86 $87 $50 $-1 $88 reversed single #
face $-1 $89 $90 $51 $-1 $91 forward single #
face $-1 $92 $93 $52 $-1 $94 reversed single #
face $-1 $95 $96 $53 $-1 $97 forward single #
face $-1 $98 $99 $54 $-1 $100 reversed single #
face $-1 $101 $102 $55 $-1 $103 forward single #
face $-1 $104 $105 $56 $-1 $106 reversed single #
face $-1 $107 $108 $57 $-1 $109 forward single #
face $-1 $110 $111 $58 $-1 $112 reversed single #
face $-1 $113 $114 $59 $-1 $115 forward single #
face $-1 $116 $117 $60 $-1 $118 forward single #
face $-1 $119 $120 $61 $-1 $121 reversed single #
face $-1 $122 $123 $62 $-1 $124 forward single #
face $-1 $125 $126 $63 $-1 $127 forward single #
face $-1 $128 $129 $48 $-1 $130 reversed single #
loop $-1 $-1 $131 $64 #
plane-surface $-1 0 0 12.788756496384559 0 0 1 1 0 0 forward_v I I I I #
face $-1 $132 $133 $49 $-1 $134 reversed single #
loop $-1 $-1 $135 $65 #
plane-surface $-1 -51.801446060423935 0 -2.305021353983149 0 0 1 1 0 0 forward_v I I I I #
face $-1 $136 $137 $50 $-1 $138 reversed single #
loop $-1 $-1 $139 $66 #
plane-surface $-1 -44.456800015986275 90.295680393220692 121.29141862427798 1 0 0 0 -0.80901700255871778 -0.5877852410284794 forward_v I I I I #
face $-1 $140 $141 $51 $-1 $142 forward single #
loop $-1 $143 $144 $67 #
cone-surface $-1 -37.585524031209573 25.856580909971683 6.6507779892449239 0 -0.80901700255871778 -0.5877852410284794 2 0 0 1 I I 0 1 2 forward I I I I #
face $-1 $145 $146 $52 $-1 $147 reversed single #
loop $-1 $-1 $148 $68 #
plane-surface $-1 -18.556076985774308 90.295680393220692 121.29141862427798 1 0 0 0 -0.80901700255871778 -0.5877852410284794 forward_v I I I I #
face $-1 $149 $150 $53 $-1 $151 forward single #
loop $-1 $152 $153 $69 #
cone-surface $-1 -11.684801000997609 25.856580909971683 6.6507779892449239 0 -0.80901700255871778 -0.5877852410284794 2 0 0 1 I I 0 1 2 forward I I I I #
face $-1 $154 $155 $54 $-1 $156 reversed single #
loop $-1 $-1 $157 $70 #
plane-surface $-1 7.3446460444376553 90.295680393220692 121.29141862427798 1 0 0 0 -0.80901700255871778 -0.5877852410284794 forward_v I I I I #
face $-1 $158 $159 $55 $-1 $160 forward single #
loop $-1 $161 $162 $71 #
cone-surface $-1 14.215922029214354 25.856580909971683 6.6507779892449239 0 -0.80901700255871778 -0.5877852410284794 2 0 0 1 I I 0 1 2 forward I I I I #
face $-1 $163 $164 $56 $-1 $165 reversed single #
loop $-1 $-1 $166 $72 #
plane-surface $-1 33.245369074649616 90.295680393220692 121.29141862427798 1 0 0 0 -0.80901700255871778 -0.5877852410284794 forward_v I I I I #
face $-1 $167 $168 $57 $-1 $169 forward single #
loop $-1 $170 $171 $73 #
cone-surface $-1 40.116645059426318 25.856580909971683 6.6507779892449239 0 -0.80901700255871778 -0.5877852410284794 2 0 0 1 I I 0 1 2 forward I I I I #
face $-1 $172 $173 $58 $-1 $174 reversed single #
loop $-1 $-1 $175 $74 #
plane-surface $-1 -21.128734574634763 -103.61163503467094 101.16523629213647 -1 0 0 0 -0.61566148304635926 0.78801074757464917 forward_v I I I I #
face $-1 $176 $177 $59 $-1 $178 forward single #
loop $-1 $179 $180 $75 #
cone-surface $-1 -34.902125443339969 -26.367889230887531 8.6810424865731406 0 0.61566148304635926 -0.78801074757464917 1.5 0 0 1 I I 0 1 1.5 forward I I I I #
face $-1 $181 $182 $60 $-1 $183 forward single #
loop $-1 $184 $185 $76 #
cone-surface $-1 -26.638090922116845 -26.367889230887531 8.6810424865731406 0 0.61566148304635926 -0.78801074757464917 1.5 0 0 1 I I 0 1 1.5 forward I I I I #
face $-1 $186 $187 $61 $-1 $188 reversed single #
loop $-1 $-1 $189 $77 #
plane-surface $-1 30.672711485789179 -103.61163503467094 101.16523629213647 -1 0 0 0 -0.61566148304635926 0.78801074757464917 forward_v I I I I #
face $-1 $190 $191 $62 $-1 $192 forward single #
loop $-1 $193 $194 $78 #
cone-surface $-1 16.899320617083958 -26.367889230887531 8.6810424865731406 0 0.61566148304635926 -0.78801074757464917 1.5 0 0 1 I I 0 1 1.5 forward I I I I #
face $-1 $195 $196 $63 $-1 $197 forward single #
loop $-1 $198 $199 $79 #
cone-surface $-1 25.163355138307082 -26.367889230887531 8.6810424865731406 0 0.61566148304635926 -0.78801074757464917 1.5 0 0 1 I I 0 1 1.5 forward I I I I #
face $-1 $200 $201 $48 $-1 $202 reversed single #
loop $-1 $-1 $203 $80 #
plane-surface $-1 0 0 -12.788756496384559 0 0 1 1 0 0 forward_v I I I I #
coedge $-1 $204 $205 $206 $207 forward $81 $-1 #
face $-1 $208 $209 $49 $-1 $210 reversed single #
loop $-1 $-1 $211 $83 #
plane-surface $-1 -51.801446060423935 0 -5.3412728352897698 0 0 1 1 0 0 forward_v I I I I #
coedge $-1 $212 $213 $214 $215 forward $84 $-1 #
face $-1 $216 $217 $50 $-1 $218 reversed single #
loop $-1 $-1 $219 $86 #
plane-surface $-1 -37.585524031209573 -5.40470790225325 51.761018616780547 0 0.80901700255871778 0.5877852410284794 1 0 0 forward_v I I I I #
coedge $-1 $220 $221 $222 $223 reversed $87 $-1 #
face $-1 $-1 $224 $51 $-1 $225 forward single #
loop $-1 $226 $227 $89 #
cone-surface $-1 -37.585524031209573 24.057149525851013 5.3434146007321939 0 -0.80901700255871778 -0.5877852410284794 1 0 0 1 I I -0.70710678118654746 0.70710678118654746 1 forward I I I I #
loop $-1 $-1 $228 $67 #
coedge $-1 $144 $144 $229 $230 reversed $90 $-1 #
face $-1 $231 $232 $52 $-1 $233 reversed single #
loop $-1 $-1 $234 $92 #
plane-surface $-1 -11.684801000997609 -5.40470790225325 51.761018616780547 0 0.80901700255871778 0.5877852410284794 1 0 0 forward_v I I I I #
coedge $-1 $235 $236 $237 $238 reversed $93 $-1 #
face $-1 $-1 $239 $53 $-1 $240 forward single #
loop $-1 $241 $242 $95 #
cone-surface $-1 -11.684801000997609 24.057149525851013 5.3434146007321939 0 -0.80901700255871778 -0.5877852410284794 1 0 0 1 I I -0.70710678118654746 0.70710678118654746 1 forward I I I I #
loop $-1 $-1 $243 $69 #
coedge $-1 $153 $153 $244 $245 reversed $96 $-1 #
face $-1 $246 $247 $54 $-1 $248 reversed single #
loop $-1 $-1 $249 $98 #
plane-surface $-1 14.215922029214354 -5.40470790225325 51.761018616780547 0 0.80901700255871778 0.5877852410284794 1 0 0 forward_v I I I I #
coedge $-1 $250 $251 $252 $253 reversed $99 $-1 #
face $-1 $-1 $254 $55 $-1 $255 forward single #
loop $-1 $256 $257 $101 #
cone-surface $-1 14.215922029214354 24.057149525851013 5.3434146007321939 0 -0.80901700255871778 -0.5877852410284794 1 0 0 1 I I -0.70710678118654746 0.70710678118654746 1 forward I I I I #
loop $-1 $-1 $258 $71 #
coedge $-1 $162 $162 $259 $260 reversed $102 $-1 #
face $-1 $261 $262 $56 $-1 $263 reversed single #
loop $-1 $-1 $264 $104 #
plane-surface $-1 40.116645059426318 -5.40470790225325 51.761018616780547 0 0.80901700255871778 0.5877852410284794 1 0 0 forward_v I I I I #
coedge $-1 $265 $266 $267 $268 reversed $105 $-1 #
face $-1 $-1 $269 $57 $-1 $270 forward single #
loop $-1 $271 $272 $107 #
cone-surface $-1 40.116645059426318 24.057149525851013 5.3434146007321939 0 -0.80901700255871778 -0.5877852410284794 1 0 0 1 I I -0.70710678118654746 0.70710678118654746 1 forward I I I I #
loop $-1 $-1 $273 $73 #
coedge $-1 $171 $171 $274 $275 reversed $108 $-1 #
face $-1 $276 $277 $58 $-1 $278 reversed single #
loop $-1 $-1 $279 $110 #
plane-surface $-1 -30.770108182728407 -30.783693471319637 7.9497237807943861 0 -0.61566148304635926 0.78801074757464917 1 0 0 forward_v I I I I #
coedge $-1 $280 $281 $282 $283 reversed $111 $-1 #
face $-1 $-1 $284 $59 $-1 $285 forward single #
loop $-1 $286 $287 $113 #
cone-surface $-1 -34.902125443339969 -24.58717853174312 6.4018367738758268 0 0.61566148304635926 -0.78801074757464917 0.75 0 0 1 I I -0.70710678118654757 0.70710678118654757 0.75 forward I I I I #
loop $-1 $-1 $288 $75 #
coedge $-1 $180 $180 $289 $290 reversed $114 $-1 #
face $-1 $-1 $291 $60 $-1 $292 forward single #
loop $-1 $293 $294 $116 #
cone-surface $-1 -26.638090922116845 -24.58717853174312 6.4018367738758268 0 0.61566148304635926 -0.78801074757464917 0.75 0 0 1 I I -0.70710678118654757 0.70710678118654757 0.75 forward I I I I #
loop $-1 $-1 $295 $76 #
coedge $-1 $185 $185 $296 $297 reversed $117 $-1 #
face $-1 $298 $299 $61 $-1 $300 reversed single #
loop $-1 $-1 $301 $119 #
plane-surface $-1 21.031337877695535 -30.783693471319637 7.9497237807943861 0 -0.61566148304635926 0.78801074757464917 1 0 0 forward_v I I I I #
coedge $-1 $302 $303 $304 $305 reversed $120 $-1 #
face $-1 $-1 $306 $62 $-1 $307 forward single #
loop $-1 $308 $309 $122 #
cone-surface $-1 16.899320617083958 -24.58717853174312 6.4018367738758268 0 0.61566148304635926 -0.78801074757464917 0.75 0 0 1 I I -0.70710678118654757 0.70710678118654757 0.75 forward I I I I #
loop $-1 $-1 $310 $78 #
coedge $-1 $194 $194 $311 $312 reversed $123 $-1 #
face $-1 $-1 $313 $63 $-1 $314 forward single #
loop $-1 $315 $316 $125 #
cone-surface $-1 25.163355138307082 -24.58717853174312 6.4018367738758268 0 0.61566148304635926 -0.78801074757464917 0.75 0 0 1 I I -0.70710678118654757 0.70710678118654757 0.75 forward I I I I #
loop $-1 $-1 $317 $79 #
coedge $-1 $199 $199 $318 $319 reversed $126 $-1 #
face $-1 $320 $321 $48 $-1 $322 reversed single #
loop $-1 $-1 $323 $128 #
plane-surface $-1 0 -30.783693471319641 0 0 1 0 0 0 1 forward_v I I I I #
coedge $-1 $324 $325 $326 $327 forward $129 $-1 #
coedge $-1 $328 $131 $329 $330 forward $81 $-1 #
coedge $-1 $131 $328 $331 $332 forward $81 $-1 #
coedge $-1 $333 $334 $131 $207 reversed $335 $-1 #
edge $-1 $336 -30.783693471319641 $337 30.783693471319641 $206 $338 forward 7 unknown #
face $-1 $339 $340 $49 $-1 $341 reversed single #
loop $-1 $-1 $342 $132 #
plane-surface $-1 -44.456800015986275 0 -3.8231470946364592 -1 0 0 0 0 1 forward_v I I I I #
coedge $-1 $343 $344 $345 $346 forward $133 $-1 #
coedge $-1 $347 $135 $348 $349 reversed $84 $-1 #
coedge $-1 $135 $347 $350 $351 reversed $84 $-1 #
coedge $-1 $342 $352 $135 $215 reversed $209 $-1 #
edge $-1 $353 -30.783693471319641 $354 30.783693471319641 $214 $355 forward 7 unknown #
face $-1 $356 $357 $50 $-1 $358 forward single #
loop $-1 $-1 $359 $136 #
plane-surface $-1 -30.714248046432875 90.295680393220692 121.29141862427798 -1 0 0 0 0.80901700255871778 0.5877852410284794 forward_v I I I I #
coedge $-1 $360 $361 $362 $363 reversed $137 $-1 #
coedge $-1 $221 $139 $364 $365 reversed $87 $-1 #
coedge $-1 $139 $220 $360 $366 reversed $87 $-1 #
coedge $-1 $362 $367 $139 $223 forward $357 $-1 #
edge $-1 $368 14.364146725290706 $369 22.237543084862747 $222 $370 forward 7 unknown #
loop $-1 $-1 $229 $140 #
plane-surface $-1 -37.585524031209573 -5.40470790225325 51.761018616780547 0 0.80901700255871778 0.5877852410284794 1 0 0 forward_v I I I I #
loop $-1 $-1 $371 $89 #
coedge $-1 $227 $227 $228 $372 reversed $141 $-1 #
coedge $-1 $228 $228 $227 $372 forward $143 $-1 #
coedge $-1 $229 $229 $144 $230 forward $224 $-1 #
edge $-1 $373 -1.011324937957113e-016 $373 6.2831853071796004 $229 $374 forward 7 unknown #
face $-1 $375 $376 $52 $-1 $377 forward single #
loop $-1 $-1 $378 $145 #
plane-surface $-1 -4.8135250162209102 90.295680393220692 121.29141862427798 -1 0 0 0 0.80901700255871778 0.5877852410284794 forward_v I I I I #
coedge $-1 $379 $380 $381 $382 reversed $146 $-1 #
coedge $-1 $236 $148 $383 $384 reversed $93 $-1 #
coedge $-1 $148 $235 $379 $385 reversed $93 $-1 #
coedge $-1 $381 $386 $148 $238 forward $376 $-1 #
edge $-1 $387 14.364146725290706 $388 22.237543084862747 $237 $389 forward 7 unknown #
loop $-1 $-1 $244 $149 #
plane-surface $-1 -11.684801000997609 -5.40470790225325 51.761018616780547 0 0.80901700255871778 0.5877852410284794 1 0 0 forward_v I I I I #
loop $-1 $-1 $390 $95 #
coedge $-1 $242 $242 $243 $391 reversed $150 $-1 #
coedge $-1 $243 $243 $242 $391 forward $152 $-1 #
coedge $-1 $244 $244 $153 $245 forward $239 $-1 #
edge $-1 $392 -1.011324937957113e-016 $392 6.2831853071796004 $244 $393 forward 7 unknown #
face $-1 $394 $395 $54 $-1 $396 forward single #
loop $-1 $-1 $397 $154 #
plane-surface $-1 21.087198013991053 90.295680393220692 121.29141862427798 -1 0 0 0 0.80901700255871778 0.5877852410284794 forward_v I I I I #
coedge $-1 $398 $399 $400 $401 reversed $155 $-1 #
coedge $-1 $251 $157 $402 $403 reversed $99 $-1 #
coedge $-1 $157 $250 $398 $404 reversed $99 $-1 #
coedge $-1 $400 $405 $157 $253 forward $395 $-1 #
edge $-1 $406 14.364146725290706 $407 22.237543084862747 $252 $408 forward 7 unknown #
loop $-1 $-1 $259 $158 #
plane-surface $-1 14.215922029214354 -5.40470790225325 51.761018616780547 0 0.80901700255871778 0.5877852410284794 1 0 0 forward_v I I I I #
loop $-1 $-1 $409 $101 #
coedge $-1 $257 $257 $258 $410 reversed $159 $-1 #
coedge $-1 $258 $258 $257 $410 forward $161 $-1 #
coedge $-1 $259 $259 $162 $260 forward $254 $-1 #
edge $-1 $411 -1.011324937957113e-016 $411 6.2831853071796004 $259 $412 forward 7 unknown #
face $-1 $413 $414 $56 $-1 $415 forward single #
loop $-1 $-1 $416 $163 #
plane-surface $-1 46.98792104420302 90.295680393220692 121.29141862427798 -1 0 0 0 0.80901700255871778 0.5877852410284794 forward_v I I I I #
coedge $-1 $417 $418 $419 $420 reversed $164 $-1 #
coedge $-1 $266 $166 $421 $422 reversed $105 $-1 #
coedge $-1 $166 $265 $417 $423 reversed $105 $-1 #
coedge $-1 $419 $424 $166 $268 forward $414 $-1 #
edge $-1 $425 14.364146725290706 $426 22.237543084862747 $267 $427 forward 7 unknown #
loop $-1 $-1 $274 $167 #
plane-surface $-1 40.116645059426318 -5.40470790225325 51.761018616780547 0 0.80901700255871778 0.5877852410284794 1 0 0 forward_v I I I I #
loop $-1 $-1 $428 $107 #
coedge $-1 $272 $272 $273 $429 reversed $168 $-1 #
coedge $-1 $273 $273 $272 $429 forward $170 $-1 #
coedge $-1 $274 $274 $171 $275 forward $269 $-1 #
edge $-1 $430 -1.011324937957113e-016 $430 6.2831853071796004 $274 $431 forward 7 unknown #
face $-1 $432 $433 $58 $-1 $434 reversed single #
loop $-1 $-1 $435 $172 #
plane-surface $-1 -40.411481790822052 -103.61163503467094 101.16523629213647 1 0 0 0 0.61566148304635926 -0.78801074757464917 forward_v I I I I #
coedge $-1 $436 $437 $438 $439 reversed $173 $-1 #
coedge $-1 $281 $175 $440 $441 reversed $111 $-1 #
coedge $-1 $175 $280 $436 $442 reversed $111 $-1 #
coedge $-1 $438 $443 $175 $283 forward $444 $-1 #
edge $-1 $445 21.022124046015829 $446 27.215803353160766 $282 $447 forward 7 unknown #
loop $-1 $-1 $289 $176 #
plane-surface $-1 -30.770108182728407 -30.783693471319637 7.9497237807943861 0 -0.61566148304635926 0.78801074757464917 1 0 0 forward_v I I I I #
loop $-1 $-1 $448 $113 #
coedge $-1 $287 $287 $288 $449 reversed $177 $-1 #
coedge $-1 $288 $288 $287 $449 forward $179 $-1 #
coedge $-1 $289 $289 $180 $290 forward $284 $-1 #
edge $-1 $450 1.1372947171903754e-015 $450 6.2831853071796013 $289 $451 forward 7 unknown #
loop $-1 $-1 $296 $181 #
plane-surface $-1 -30.770108182728407 -30.783693471319637 7.9497237807943861 0 -0.61566148304635926 0.78801074757464917 1 0 0 forward_v I I I I #
loop $-1 $-1 $452 $116 #
coedge $-1 $294 $294 $295 $453 reversed $182 $-1 #
coedge $-1 $295 $295 $294 $453 forward $184 $-1 #
coedge $-1 $296 $296 $185 $297 forward $291 $-1 #
edge $-1 $454 1.1372947171903754e-015 $454 6.2831853071796013 $296 $455 forward 7 unknown #
face $-1 $456 $457 $61 $-1 $458 reversed single #
loop $-1 $-1 $459 $186 #
plane-surface $-1 11.38996426960189 -103.61163503467094 101.16523629213647 1 0 0 0 0.61566148304635926 -0.78801074757464917 forward_v I I I I #
coedge $-1 $460 $461 $462 $463 reversed $187 $-1 #
coedge $-1 $303 $189 $464 $465 reversed $120 $-1 #
coedge $-1 $189 $302 $460 $466 reversed $120 $-1 #
coedge $-1 $462 $467 $189 $305 forward $468 $-1 #
edge $-1 $469 21.022124046015829 $470 27.215803353160766 $304 $471 forward 7 unknown #
loop $-1 $-1 $311 $190 #
plane-surface $-1 21.031337877695535 -30.783693471319637 7.9497237807943861 0 -0.61566148304635926 0.78801074757464917 1 0 0 forward_v I I I I #
loop $-1 $-1 $472 $122 #
coedge $-1 $309 $309 $310 $473 reversed $191 $-1 #
coedge $-1 $310 $310 $309 $473 forward $193 $-1 #
coedge $-1 $311 $311 $194 $312 forward $306 $-1 #
edge $-1 $474 1.1372947171903754e-015 $474 6.2831853071796013 $311 $475 forward 7 unknown #
loop $-1 $-1 $318 $195 #
plane-surface $-1 21.031337877695535 -30.783693471319637 7.9497237807943861 0 -0.61566148304635926 0.78801074757464917 1 0 0 forward_v I I I I #
loop $-1 $-1 $476 $125 #
coedge $-1 $316 $316 $317 $477 reversed $196 $-1 #
coedge $-1 $317 $317 $316 $477 forward $198 $-1 #
coedge $-1 $318 $318 $199 $319 forward $313 $-1 #
edge $-1 $478 1.1372947171903754e-015 $478 6.2831853071796013 $318 $479 forward 7 unknown #
face $-1 $480 $481 $48 $-1 $482 reversed single #
loop $-1 $-1 $483 $200 #
plane-surface $-1 -59.146092104861594 0 0 1 0 0 0 0 -1 forward_v I I I I #
coedge $-1 $484 $331 $485 $486 forward $201 $-1 #
coedge $-1 $487 $203 $484 $488 forward $129 $-1 #
coedge $-1 $203 $487 $489 $490 forward $129 $-1 #
coedge $-1 $334 $333 $203 $327 reversed $335 $-1 #
edge $-1 $491 -30.783693471319641 $492 30.783693471319641 $326 $493 forward 7 unknown #
coedge $-1 $205 $204 $494 $495 forward $81 $-1 #
coedge $-1 $496 $497 $204 $330 reversed $481 $-1 #
edge $-1 $337 -59.146092104861594 $498 59.146092104861594 $329 $499 forward 7 unknown #
coedge $-1 $323 $500 $205 $332 reversed $201 $-1 #
edge $-1 $501 -59.146092104861594 $336 59.146092104861594 $331 $502 forward 7 unknown #
coedge $-1 $326 $206 $500 $503 forward $335 $-1 #
coedge $-1 $206 $326 $496 $504 reversed $335 $-1 #
loop $-1 $-1 $333 $480 #
vertex $-1 $207 $505 #
vertex $-1 $207 $506 #
straight-curve $-1 59.146092104861594 0 12.788756496384559 0 1 0 I I #
face $-1 $507 $508 $49 $-1 $509 reversed single #
loop $-1 $-1 $510 $208 #
plane-surface $-1 0 -30.783693471319641 0 0 1 0 0 0 1 forward_v I I I I #
coedge $-1 $345 $214 $511 $512 reversed $209 $-1 #
coedge $-1 $513 $211 $510 $514 reversed $133 $-1 #
coedge $-1 $211 $513 $515 $516 reversed $133 $-1 #
coedge $-1 $352 $342 $211 $346 reversed $209 $-1 #
edge $-1 $517 -30.783693471319641 $518 30.783693471319641 $345 $519 forward 7 unknown #
coedge $-1 $213 $212 $520 $521 reversed $84 $-1 #
coedge $-1 $522 $523 $212 $349 forward $524 $-1 #
edge $-1 $525 -33.245369074649631 $354 -18.556076985774308 $348 $526 forward 7 unknown #
coedge $-1 $527 $511 $213 $351 forward $340 $-1 #
edge $-1 $353 18.556076985774308 $528 33.245369074649631 $350 $529 forward 7 unknown #
coedge $-1 $214 $345 $522 $530 reversed $209 $-1 #
vertex $-1 $351 $531 #
vertex $-1 $349 $532 #
straight-curve $-1 -44.456800015986275 0 -2.305021353983149 0 1 0 I I #
face $-1 $-1 $533 $50 $-1 $534 reversed single #
loop $-1 $-1 $222 $216 #
plane-surface $-1 0 0 12.788756496384559 0 0 1 1 0 0 forward_v I I I I #
coedge $-1 $535 $536 $537 $538 reversed $217 $-1 #
coedge $-1 $539 $219 $221 $366 forward $137 $-1 #
coedge $-1 $219 $539 $535 $540 forward $137 $-1 #
coedge $-1 $537 $222 $219 $363 forward $357 $-1 #
edge $-1 $369 -25.664038000381488 $541 -11.921486030828088 $362 $542 forward 7 unknown #
coedge $-1 $543 $544 $220 $365 forward $533 $-1 #
edge $-1 $545 -58.693753535065213 $368 -47.856952815754433 $364 $546 forward 7 unknown #
edge $-1 $369 48.172364730452514 $545 61.567386942639274 $221 $547 forward 7 unknown #
coedge $-1 $222 $537 $543 $548 forward $357 $-1 #
vertex $-1 $365 $549 #
vertex $-1 $223 $550 #
straight-curve $-1 -44.456800015986275 45.147840196610346 12.788756496384558 0 -1 0 I I #
coedge $-1 $371 $371 $-1 $551 reversed $226 $-1 #
edge $-1 $552 0 $552 6.2831853071796004 $227 $553 forward 7 unknown #
vertex $-1 $230 $554 #
ellipse-curve $-1 -37.585524031209573 26.84699529153362 7.3703561367291659 0 0.80901700255871778 0.5877852410284794 2 0 0 1 I I #
face $-1 $-1 $555 $52 $-1 $556 reversed single #
loop $-1 $-1 $237 $231 #
plane-surface $-1 0 0 12.788756496384559 0 0 1 1 0 0 forward_v I I I I #
coedge $-1 $557 $558 $559 $560 reversed $232 $-1 #
coedge $-1 $561 $234 $236 $385 forward $146 $-1 #
coedge $-1 $234 $561 $557 $562 forward $146 $-1 #
coedge $-1 $559 $237 $234 $382 forward $376 $-1 #
edge $-1 $388 -12.713676485275503 $563 1.0288754842778944 $381 $564 forward 7 unknown #
coedge $-1 $565 $566 $235 $384 forward $555 $-1 #
edge $-1 $567 -58.693753535065213 $387 -47.856952815754433 $383 $568 forward 7 unknown #
edge $-1 $388 48.172364730452514 $567 61.567386942639274 $236 $569 forward 7 unknown #
coedge $-1 $237 $559 $565 $570 forward $376 $-1 #
vertex $-1 $238 $571 #
vertex $-1 $238 $572 #
straight-curve $-1 -18.556076985774308 45.147840196610346 12.788756496384558 0 -1 0 I I #
coedge $-1 $390 $390 $-1 $573 reversed $241 $-1 #
edge $-1 $574 0 $574 6.2831853071796004 $242 $575 forward 7 unknown #
vertex $-1 $245 $576 #
ellipse-curve $-1 -11.684801000997609 26.84699529153362 7.3703561367291659 0 0.80901700255871778 0.5877852410284794 2 0 0 1 I I #
face $-1 $-1 $577 $54 $-1 $578 reversed single #
loop $-1 $-1 $252 $246 #
plane-surface $-1 0 0 12.788756496384559 0 0 1 1 0 0 forward_v I I I I #
coedge $-1 $579 $580 $581 $582 reversed $247 $-1 #
coedge $-1 $583 $249 $251 $404 forward $155 $-1 #
coedge $-1 $249 $583 $579 $584 forward $155 $-1 #
coedge $-1 $581 $252 $249 $401 forward $395 $-1 #
edge $-1 $407 0.23668502983047812 $585 13.979236999383875 $400 $586 forward 7 unknown #
coedge $-1 $587 $588 $250 $403 forward $577 $-1 #
edge $-1 $589 -58.693753535065213 $406 -47.856952815754433 $402 $590 forward 7 unknown #
edge $-1 $407 48.172364730452514 $589 61.567386942639274 $251 $591 forward 7 unknown #
coedge $-1 $252 $581 $587 $592 forward $395 $-1 #
vertex $-1 $253 $593 #
vertex $-1 $253 $594 #
straight-curve $-1 7.3446460444376553 45.147840196610346 12.788756496384558 0 -1 0 I I #
coedge $-1 $409 $409 $-1 $595 reversed $256 $-1 #
edge $-1 $596 0 $596 6.2831853071796004 $257 $597 forward 7 unknown #
vertex $-1 $260 $598 #
ellipse-curve $-1 14.215922029214354 26.84699529153362 7.3703561367291659 0 0.80901700255871778 0.5877852410284794 2 0 0 1 I I #
face $-1 $-1 $599 $56 $-1 $600 reversed single #
loop $-1 $-1 $267 $261 #
plane-surface $-1 0 0 12.788756496384559 0 0 1 1 0 0 forward_v I I I I #
coedge $-1 $601 $602 $603 $604 reversed $262 $-1 #
coedge $-1 $605 $264 $266 $423 forward $164 $-1 #
coedge $-1 $264 $605 $601 $606 forward $164 $-1 #
coedge $-1 $603 $267 $264 $420 forward $414 $-1 #
edge $-1 $426 13.187046544936457 $607 26.929598514489861 $419 $608 forward 7 unknown #
coedge $-1 $609 $610 $265 $422 forward $599 $-1 #
edge $-1 $611 -58.693753535065213 $425 -47.856952815754433 $421 $612 forward 7 unknown #
edge $-1 $426 48.172364730452514 $611 61.567386942639274 $266 $613 forward 7 unknown #
coedge $-1 $267 $603 $609 $614 forward $414 $-1 #
vertex $-1 $268 $615 #
vertex $-1 $268 $616 #
straight-curve $-1 33.245369074649616 45.147840196610346 12.788756496384558 0 -1 0 I I #
coedge $-1 $428 $428 $-1 $617 reversed $271 $-1 #
edge $-1 $618 0 $618 6.2831853071796004 $272 $619 forward 7 unknown #
vertex $-1 $275 $620 #
ellipse-curve $-1 40.116645059426318 26.84699529153362 7.3703561367291659 0 0.80901700255871778 0.5877852410284794 2 0 0 1 I I #
face $-1 $-1 $444 $58 $-1 $621 forward single #
loop $-1 $-1 $622 $276 #
plane-surface $-1 0 -30.783693471319641 0 0 1 0 0 0 1 forward_v I I I I #
coedge $-1 $623 $624 $625 $626 reversed $277 $-1 #
coedge $-1 $627 $279 $281 $442 forward $173 $-1 #
coedge $-1 $279 $627 $623 $628 forward $173 $-1 #
coedge $-1 $625 $282 $279 $439 forward $444 $-1 #
edge $-1 $446 5.743680483270559 $629 25.026427699457848 $438 $630 forward 7 unknown #
coedge $-1 $631 $632 $280 $441 forward $433 $-1 #
edge $-1 $633 -42.632894365273849 $445 -37.793861649683677 $440 $634 forward 7 unknown #
edge $-1 $446 -7.8598919192510106 $633 4.4400282911973173e-015 $281 $635 forward 7 unknown #
coedge $-1 $282 $625 $631 $636 forward $444 $-1 #
loop $-1 $-1 $625 $432 #
vertex $-1 $441 $637 #
vertex $-1 $283 $638 #
straight-curve $-1 -21.128734574634763 -51.80581751733547 12.788756496384558 0 1 0 I I #
coedge $-1 $448 $448 $-1 $639 reversed $286 $-1 #
edge $-1 $640 0 $640 6.2831853071796004 $287 $641 forward 7 unknown #
vertex $-1 $290 $642 #
ellipse-curve $-1 -34.902125443339969 -27.686853817747174 10.36924013858947 0 -0.61566148304635926 0.78801074757464917 1.5 0 0 1 I I #
coedge $-1 $452 $452 $-1 $643 reversed $293 $-1 #
edge $-1 $644 0 $644 6.2831853071796004 $294 $645 forward 7 unknown #
vertex $-1 $297 $646 #
ellipse-curve $-1 -26.638090922116845 -27.686853817747174 10.36924013858947 0 -0.61566148304635926 0.78801074757464917 1.5 0 0 1 I I #
face $-1 $-1 $468 $61 $-1 $647 forward single #
loop $-1 $-1 $648 $298 #
plane-surface $-1 0 -30.783693471319641 0 0 1 0 0 0 1 forward_v I I I I #
coedge $-1 $649 $650 $651 $652 reversed $299 $-1 #
coedge $-1 $653 $301 $303 $466 forward $187 $-1 #
coedge $-1 $301 $653 $649 $654 forward $187 $-1 #
coedge $-1 $651 $304 $301 $463 forward $468 $-1 #
edge $-1 $470 -20.157042546941412 $655 -0.8742953307541228 $462 $656 forward 7 unknown #
coedge $-1 $657 $658 $302 $465 forward $457 $-1 #
edge $-1 $659 -42.632894365273849 $469 -37.793861649683677 $464 $660 forward 7 unknown #
edge $-1 $470 -7.8598919192510106 $659 4.4400282911973173e-015 $303 $661 forward 7 unknown #
coedge $-1 $304 $651 $657 $662 forward $468 $-1 #
loop $-1 $-1 $651 $456 #
vertex $-1 $465 $663 #
vertex $-1 $305 $664 #
straight-curve $-1 30.672711485789179 -51.80581751733547 12.788756496384558 0 1 0 I I #
coedge $-1 $472 $472 $-1 $665 reversed $308 $-1 #
edge $-1 $666 0 $666 6.2831853071796004 $309 $667 forward 7 unknown #
vertex $-1 $312 $668 #
ellipse-curve $-1 16.899320617083958 -27.686853817747174 10.36924013858947 0 -0.61566148304635926 0.78801074757464917 1.5 0 0 1 I I #
coedge $-1 $476 $476 $-1 $669 reversed $315 $-1 #
edge $-1 $670 0 $670 6.2831853071796004 $316 $671 forward 7 unknown #
vertex $-1 $319 $672 #
ellipse-curve $-1 25.163355138307082 -27.686853817747174 10.36924013858947 0 -0.61566148304635926 0.78801074757464917 1.5 0 0 1 I I #
face $-1 $-1 $335 $48 $-1 $673 reversed single #
loop $-1 $-1 $496 $320 #
plane-surface $-1 0 30.783693471319641 0 0 -1 0 0 0 -1 forward_v I I I I #
coedge $-1 $674 $494 $497 $675 forward $321 $-1 #
coedge $-1 $500 $323 $324 $488 reversed $201 $-1 #
coedge $-1 $494 $674 $323 $486 reversed $321 $-1 #
edge $-1 $501 -12.788756496384559 $676 12.788756496384559 $485 $677 forward 7 unknown #
coedge $-1 $325 $324 $674 $678 forward $129 $-1 #
edge $-1 $492 -59.146092104861594 $676 59.146092104861594 $484 $679 forward 7 unknown #
coedge $-1 $497 $496 $325 $490 reversed $481 $-1 #
edge $-1 $680 -59.146092104861594 $491 59.146092104861594 $489 $681 forward 7 unknown #
vertex $-1 $327 $682 #
vertex $-1 $503 $683 #
straight-curve $-1 59.146092104861594 0 -12.788756496384559 0 -1 0 I I #
coedge $-1 $483 $485 $328 $495 reversed $321 $-1 #
edge $-1 $498 -30.783693471319641 $501 30.783693471319641 $494 $684 forward 7 unknown #
coedge $-1 $489 $329 $334 $504 forward $481 $-1 #
coedge $-1 $329 $489 $483 $675 reversed $481 $-1 #
vertex $-1 $330 $685 #
straight-curve $-1 0 30.783693471319641 12.788756496384559 -1 0 0 I I #
coedge $-1 $331 $484 $333 $503 reversed $201 $-1 #
vertex $-1 $495 $686 #
straight-curve $-1 0 -30.783693471319641 12.788756496384559 1 0 0 I I #
edge $-1 $336 -12.788756496384559 $492 12.788756496384559 $333 $687 forward 7 unknown #
edge $-1 $337 -12.788756496384559 $491 12.788756496384559 $334 $688 forward 7 unknown #
point $-1 59.146092104861594 -30.783693471319641 12.788756496384559 #
point $-1 59.146092104861594 30.783693471319641 12.788756496384559 #
face $-1 $-1 $524 $49 $-1 $689 reversed single #
loop $-1 $-1 $690 $339 #
plane-surface $-1 -59.146092104861594 0 0 1 0 0 0 0 -1 forward_v I I I I #
coedge $-1 $511 $527 $343 $514 forward $340 $-1 #
coedge $-1 $350 $510 $342 $512 forward $340 $-1 #
edge $-1 $518 -3.4296992879715402 $353 -0.39344780666491941 $511 $691 forward 7 unknown #
coedge $-1 $344 $343 $690 $692 reversed $133 $-1 #
edge $-1 $693 -33.245369074649631 $518 -18.556076985774308 $510 $694 forward 7 unknown #
coedge $-1 $523 $522 $344 $516 forward $524 $-1 #
edge $-1 $517 18.556076985774308 $695 33.245369074649631 $515 $696 forward 7 unknown #
vertex $-1 $516 $697 #
vertex $-1 $514 $698 #
straight-curve $-1 -44.456800015986275 0 -5.3412728352897698 0 -1 0 I I #
coedge $-1 $699 $700 $347 $521 forward $508 $-1 #
edge $-1 $528 -30.783693471319641 $525 30.783693471319641 $520 $701 forward 7 unknown #
coedge $-1 $515 $348 $352 $530 forward $524 $-1 #
coedge $-1 $348 $515 $699 $702 reversed $524 $-1 #
loop $-1 $-1 $515 $507 #
vertex $-1 $702 $703 #
straight-curve $-1 -25.900723030211967 30.783693471319641 -2.305021353983149 1 0 0 I I #
coedge $-1 $510 $350 $700 $704 forward $340 $-1 #
vertex $-1 $704 $705 #
straight-curve $-1 -25.900723030211967 -30.783693471319641 -2.305021353983149 -1 0 0 I I #
edge $-1 $354 0.39344780666491941 $517 3.4296992879715402 $522 $706 forward 7 unknown #
point $-1 -44.456800015986275 -30.783693471319641 -2.305021353983149 #
point $-1 -44.456800015986275 30.783693471319641 -2.305021353983149 #
loop $-1 $-1 $364 $356 #
plane-surface $-1 0 30.783693471319641 0 0 -1 0 0 0 -1 forward_v I I I I #
coedge $-1 $536 $359 $361 $540 reversed $217 $-1 #
coedge $-1 $359 $535 $707 $708 reversed $217 $-1 #
coedge $-1 $367 $362 $359 $538 forward $357 $-1 #
edge $-1 $541 -22.237543084862747 $709 -14.364146725290706 $537 $710 forward 7 unknown #
coedge $-1 $361 $360 $544 $711 reversed $137 $-1 #
edge $-1 $712 -61.567386942639274 $541 -48.172364730452514 $535 $713 forward 7 unknown #
vertex $-1 $363 $714 #
straight-curve $-1 -18.792762015604787 22.910297111747603 12.788756496384561 1 0 0 I I #
coedge $-1 $707 $364 $367 $548 reversed $533 $-1 #
coedge $-1 $364 $707 $539 $711 forward $533 $-1 #
vertex $-1 $365 $715 #
straight-curve $-1 -44.456800015986275 30.783693471319641 60.64570931213899 0 0 1 I I #
straight-curve $-1 -44.456800015986275 -5.40470790225325 51.761018616780547 0 0.5877852410284794 -0.80901700255871778 I I #
edge $-1 $709 30.714248046432875 $368 44.456800015986275 $543 $716 forward 7 unknown #
point $-1 -44.456800015986275 30.783693471319641 12.788756496384559 #
point $-1 -44.456800015986275 22.9102971117476 12.788756496384558 #
edge $-1 $717 1 $717 0 $371 $-1 forward 7 unknown #
vertex $-1 $372 $718 #
ellipse-curve $-1 -37.585524031209573 24.866166528409732 5.9311998417606731 0 0.80901700255871778 0.5877852410284794 2 0 0 1 I I #
point $-1 -35.585524031209573 26.846995291533631 7.3703561367291739 #
loop $-1 $-1 $383 $375 #
plane-surface $-1 0 30.783693471319641 0 0 -1 0 0 0 -1 forward_v I I I I #
coedge $-1 $558 $378 $380 $562 reversed $232 $-1 #
coedge $-1 $378 $557 $719 $720 reversed $232 $-1 #
coedge $-1 $386 $381 $378 $560 forward $376 $-1 #
edge $-1 $563 -22.237543084862747 $721 -14.364146725290706 $559 $722 forward 7 unknown #
coedge $-1 $380 $379 $566 $723 reversed $146 $-1 #
edge $-1 $724 -61.567386942639274 $563 -48.172364730452514 $557 $725 forward 7 unknown #
vertex $-1 $382 $726 #
straight-curve $-1 -5.8424005004988047 22.910297111747603 12.788756496384561 1 0 0 I I #
coedge $-1 $719 $383 $386 $570 reversed $555 $-1 #
coedge $-1 $383 $719 $561 $723 forward $555 $-1 #
vertex $-1 $384 $727 #
straight-curve $-1 -18.556076985774308 30.783693471319641 60.64570931213899 0 0 1 I I #
straight-curve $-1 -18.556076985774308 -5.40470790225325 51.761018616780547 0 0.5877852410284794 -0.80901700255871778 I I #
edge $-1 $721 4.8135250162209102 $387 18.556076985774308 $565 $728 forward 7 unknown #
point $-1 -18.556076985774308 30.783693471319641 12.788756496384559 #
point $-1 -18.556076985774308 22.9102971117476 12.788756496384558 #
edge $-1 $729 1 $729 0 $390 $-1 forward 7 unknown #
vertex $-1 $391 $730 #
ellipse-curve $-1 -11.684801000997609 24.866166528409732 5.9311998417606731 0 0.80901700255871778 0.5877852410284794 2 0 0 1 I I #
point $-1 -9.6848010009976093 26.846995291533631 7.3703561367291739 #
loop $-1 $-1 $402 $394 #
plane-surface $-1 0 30.783693471319641 0 0 -1 0 0 0 -1 forward_v I I I I #
coedge $-1 $580 $397 $399 $584 reversed $247 $-1 #
coedge $-1 $397 $579 $731 $732 reversed $247 $-1 #
coedge $-1 $405 $400 $397 $582 forward $395 $-1 #
edge $-1 $585 -22.237543084862747 $733 -14.364146725290706 $581 $734 forward 7 unknown #
coedge $-1 $399 $398 $588 $735 reversed $155 $-1 #
edge $-1 $736 -61.567386942639274 $585 -48.172364730452514 $579 $737 forward 7 unknown #
vertex $-1 $401 $738 #
straight-curve $-1 7.1079610146071772 22.910297111747603 12.788756496384561 1 0 0 I I #
coedge $-1 $731 $402 $405 $592 reversed $577 $-1 #
coedge $-1 $402 $731 $583 $735 forward $577 $-1 #
vertex $-1 $403 $739 #
straight-curve $-1 7.3446460444376553 30.783693471319641 60.64570931213899 0 0 1 I I #
straight-curve $-1 7.3446460444376553 -5.40470790225325 51.761018616780547 0 0.5877852410284794 -0.80901700255871778 I I #
edge $-1 $733 -21.087198013991053 $406 -7.3446460444376553 $587 $740 forward 7 unknown #
point $-1 7.3446460444376553 30.783693471319641 12.788756496384559 #
point $-1 7.3446460444376553 22.9102971117476 12.788756496384558 #
edge $-1 $741 1 $741 0 $409 $-1 forward 7 unknown #
vertex $-1 $410 $742 #
ellipse-curve $-1 14.215922029214354 24.866166528409732 5.9311998417606731 0 0.80901700255871778 0.5877852410284794 2 0 0 1 I I #
point $-1 16.215922029214354 26.846995291533631 7.3703561367291739 #
loop $-1 $-1 $421 $413 #
plane-surface $-1 0 30.783693471319641 0 0 -1 0 0 0 -1 forward_v I I I I #
coedge $-1 $602 $416 $418 $606 reversed $262 $-1 #
coedge $-1 $416 $601 $743 $744 reversed $262 $-1 #
coedge $-1 $424 $419 $416 $604 forward $414 $-1 #
edge $-1 $607 -22.237543084862747 $745 -14.364146725290706 $603 $746 forward 7 unknown #
coedge $-1 $418 $417 $610 $747 reversed $164 $-1 #
edge $-1 $748 -61.567386942639274 $607 -48.172364730452514 $601 $749 forward 7 unknown #
vertex $-1 $420 $750 #
straight-curve $-1 20.058322529713159 22.910297111747603 12.788756496384561 1 0 0 I I #
coedge $-1 $743 $421 $424 $614 reversed $599 $-1 #
coedge $-1 $421 $743 $605 $747 forward $599 $-1 #
vertex $-1 $422 $751 #
straight-curve $-1 33.245369074649616 30.783693471319641 60.64570931213899 0 0 1 I I #
straight-curve $-1 33.245369074649616 -5.40470790225325 51.761018616780547 0 0.5877852410284794 -0.80901700255871778 I I #
edge $-1 $745 -46.98792104420302 $425 -33.245369074649616 $609 $752 forward 7 unknown #
point $-1 33.245369074649616 30.783693471319641 12.788756496384559 #
point $-1 33.245369074649616 22.9102971117476 12.788756496384558 #
edge $-1 $753 1 $753 0 $428 $-1 forward 7 unknown #
vertex $-1 $429 $754 #
ellipse-curve $-1 40.116645059426318 24.866166528409732 5.9311998417606731 0 0.80901700255871778 0.5877852410284794 2 0 0 1 I I #
point $-1 42.116645059426318 26.846995291533631 7.3703561367291739 #
plane-surface $-1 0 0 12.788756496384559 0 0 1 1 0 0 forward_v I I I I #
coedge $-1 $632 $631 $624 $755 forward $433 $-1 #
coedge $-1 $624 $435 $437 $628 reversed $277 $-1 #
coedge $-1 $435 $623 $622 $755 reversed $277 $-1 #
coedge $-1 $443 $438 $435 $626 forward $444 $-1 #
edge $-1 $629 -27.215803353160766 $756 -21.022124046015829 $625 $757 forward 7 unknown #
coedge $-1 $437 $436 $632 $758 reversed $173 $-1 #
edge $-1 $759 -4.4400282911973173e-015 $629 7.8598919192510106 $623 $760 forward 7 unknown #
vertex $-1 $439 $761 #
straight-curve $-1 -15.385054091364204 -24.590014164174704 12.788756496384559 -1 0 0 I I #
coedge $-1 $622 $440 $443 $636 reversed $433 $-1 #
coedge $-1 $440 $622 $627 $758 forward $433 $-1 #
vertex $-1 $441 $762 #
straight-curve $-1 -21.128734574634763 -30.783693471319637 50.582618146068235 0 0 1 I I #
straight-curve $-1 -21.128734574634763 -30.783693471319637 7.9497237807943861 0 -0.78801074757464917 -0.61566148304635926 I I #
edge $-1 $756 -40.411481790822052 $445 -21.128734574634763 $631 $763 forward 7 unknown #
point $-1 -21.128734574634763 -30.783693471319641 12.788756496384559 #
point $-1 -21.128734574634763 -24.590014164174704 12.788756496384559 #
edge $-1 $764 1 $764 0 $448 $-1 forward 7 unknown #
vertex $-1 $449 $765 #
ellipse-curve $-1 -34.902125443339969 -25.048924644027888 6.9928448345568137 0 -0.61566148304635926 0.78801074757464917 1.5 0 0 1 I I #
point $-1 -33.402125443339969 -27.686853817747171 10.369240138589468 #
edge $-1 $766 1 $766 0 $452 $-1 forward 7 unknown #
vertex $-1 $453 $767 #
ellipse-curve $-1 -26.638090922116845 -25.048924644027888 6.9928448345568137 0 -0.61566148304635926 0.78801074757464917 1.5 0 0 1 I I #
point $-1 -25.138090922116845 -27.686853817747171 10.369240138589468 #
plane-surface $-1 0 0 12.788756496384559 0 0 1 1 0 0 forward_v I I I I #
coedge $-1 $658 $657 $650 $768 forward $457 $-1 #
coedge $-1 $650 $459 $461 $654 reversed $299 $-1 #
coedge $-1 $459 $649 $648 $768 reversed $299 $-1 #
coedge $-1 $467 $462 $459 $652 forward $468 $-1 #
edge $-1 $655 -27.215803353160766 $769 -21.022124046015829 $651 $770 forward 7 unknown #
coedge $-1 $461 $460 $658 $771 reversed $187 $-1 #
edge $-1 $772 -4.4400282911973173e-015 $655 7.8598919192510106 $649 $773 forward 7 unknown #
vertex $-1 $463 $774 #
straight-curve $-1 10.515668938847767 -24.590014164174704 12.788756496384559 -1 0 0 I I #
coedge $-1 $648 $464 $467 $662 reversed $457 $-1 #
coedge $-1 $464 $648 $653 $771 forward $457 $-1 #
vertex $-1 $465 $775 #
straight-curve $-1 30.672711485789179 -30.783693471319637 50.582618146068235 0 0 1 I I #
straight-curve $-1 30.672711485789179 -30.783693471319637 7.9497237807943861 0 -0.78801074757464917 -0.61566148304635926 I I #
edge $-1 $769 11.38996426960189 $469 30.672711485789179 $657 $776 forward 7 unknown #
point $-1 30.672711485789179 -30.783693471319641 12.788756496384559 #
point $-1 30.672711485789179 -24.590014164174704 12.788756496384559 #
edge $-1 $777 1 $777 0 $472 $-1 forward 7 unknown #
vertex $-1 $473 $778 #
ellipse-curve $-1 16.899320617083958 -25.048924644027888 6.9928448345568137 0 -0.61566148304635926 0.78801074757464917 1.5 0 0 1 I I #
point $-1 18.399320617083958 -27.686853817747171 10.369240138589468 #
edge $-1 $779 1 $779 0 $476 $-1 forward 7 unknown #
vertex $-1 $477 $780 #
ellipse-curve $-1 25.163355138307082 -25.048924644027888 6.9928448345568137 0 -0.61566148304635926 0.78801074757464917 1.5 0 0 1 I I #
point $-1 26.663355138307082 -27.686853817747171 10.369240138589468 #
plane-surface $-1 59.146092104861594 0 0 -1 0 0 0 0 1 forward_v I I I I #
coedge $-1 $485 $483 $487 $678 reversed $321 $-1 #
edge $-1 $498 -12.788756496384559 $680 12.788756496384559 $497 $781 forward 7 unknown #
vertex $-1 $678 $782 #
straight-curve $-1 -59.146092104861594 -30.783693471319641 0 0 0 -1 I I #
edge $-1 $676 -30.783693471319641 $680 30.783693471319641 $674 $783 forward 7 unknown #
straight-curve $-1 0 -30.783693471319641 -12.788756496384559 -1 0 0 I I #
vertex $-1 $490 $784 #
straight-curve $-1 0 30.783693471319641 -12.788756496384559 1 0 0 I I #
point $-1 59.146092104861594 30.783693471319641 -12.788756496384559 #
point $-1 59.146092104861594 -30.783693471319641 -12.788756496384559 #
straight-curve $-1 -59.146092104861594 0 12.788756496384559 0 -1 0 I I #
point $-1 -59.146092104861594 30.783693471319641 12.788756496384559 #
point $-1 -59.146092104861594 -30.783693471319641 12.788756496384559 #
straight-curve $-1 59.146092104861594 -30.783693471319641 0 0 0 -1 I I #
straight-curve $-1 59.146092104861594 30.783693471319641 0 0 0 -1 I I #
plane-surface $-1 0 30.783693471319641 0 0 -1 0 0 0 -1 forward_v I I I I #
coedge $-1 $700 $699 $513 $692 forward $508 $-1 #
straight-curve $-1 -44.456800015986275 -30.783693471319641 -1.9115735473182296 0 0 1 I I #
edge $-1 $695 -30.783693471319641 $693 30.783693471319641 $690 $785 forward 7 unknown #
vertex $-1 $514 $786 #
straight-curve $-1 -25.900723030211967 -30.783693471319641 -5.3412728352897698 1 0 0 I I #
vertex $-1 $516 $787 #
straight-curve $-1 -25.900723030211967 30.783693471319641 -5.3412728352897698 -1 0 0 I I #
point $-1 -44.456800015986275 30.783693471319641 -5.3412728352897698 #
point $-1 -44.456800015986275 -30.783693471319641 -5.3412728352897698 #
coedge $-1 $690 $520 $523 $702 forward $508 $-1 #
coedge $-1 $520 $690 $527 $704 reversed $508 $-1 #
straight-curve $-1 -59.146092104861594 0 -2.305021353983149 0 1 0 I I #
edge $-1 $525 2.305021353983149 $695 5.3412728352897698 $523 $788 forward 7 unknown #
point $-1 -59.146092104861594 30.783693471319641 -2.305021353983149 #
edge $-1 $528 2.305021353983149 $693 5.3412728352897698 $700 $789 forward 7 unknown #
point $-1 -59.146092104861594 -30.783693471319641 -2.305021353983149 #
straight-curve $-1 -44.456800015986275 30.783693471319641 -1.9115735473182296 0 0 -1 I I #
coedge $-1 $544 $543 $536 $708 forward $533 $-1 #
edge $-1 $709 47.856952815754433 $712 58.693753535065213 $707 $790 forward 7 unknown #
vertex $-1 $548 $791 #
straight-curve $-1 -30.714248046432875 45.147840196610346 12.788756496384558 0 1 0 I I #
edge $-1 $712 11.921486030828088 $545 25.664038000381488 $544 $792 forward 7 unknown #
vertex $-1 $711 $793 #
straight-curve $-1 -30.714248046432875 -5.40470790225325 51.761018616780547 0 -0.5877852410284794 0.80901700255871778 I I #
point $-1 -30.714248046432875 22.9102971117476 12.788756496384558 #
point $-1 -44.456800015986275 30.783693471319637 1.9519557770737777 #
straight-curve $-1 0 30.783693471319641 12.788756496384559 -1 0 0 I I #
vertex $-1 $551 $794 #
point $-1 -35.585524031209573 24.866166528409732 5.9311998417606731 #
coedge $-1 $566 $565 $558 $720 forward $555 $-1 #
edge $-1 $721 47.856952815754433 $724 58.693753535065213 $719 $795 forward 7 unknown #
vertex $-1 $570 $796 #
straight-curve $-1 -4.8135250162209102 45.147840196610346 12.788756496384558 0 1 0 I I #
edge $-1 $724 -1.0288754842778944 $567 12.713676485275503 $566 $797 forward 7 unknown #
vertex $-1 $723 $798 #
straight-curve $-1 -4.8135250162209102 -5.40470790225325 51.761018616780547 0 -0.5877852410284794 0.80901700255871778 I I #
point $-1 -4.8135250162209102 22.9102971117476 12.788756496384558 #
point $-1 -18.556076985774308 30.783693471319637 1.9519557770737777 #
straight-curve $-1 0 30.783693471319641 12.788756496384559 -1 0 0 I I #
vertex $-1 $573 $799 #
point $-1 -9.6848010009976093 24.866166528409732 5.9311998417606731 #
coedge $-1 $588 $587 $580 $732 forward $577 $-1 #
edge $-1 $733 47.856952815754433 $736 58.693753535065213 $731 $800 forward 7 unknown #
vertex $-1 $592 $801 #
straight-curve $-1 21.087198013991053 45.147840196610346 12.788756496384558 0 1 0 I I #
edge $-1 $736 -13.979236999383875 $589 -0.23668502983047812 $588 $802 forward 7 unknown #
vertex $-1 $735 $803 #
straight-curve $-1 21.087198013991053 -5.40470790225325 51.761018616780547 0 -0.5877852410284794 0.80901700255871778 I I #
point $-1 21.087198013991053 22.9102971117476 12.788756496384558 #
point $-1 7.3446460444376553 30.783693471319637 1.9519557770737777 #
straight-curve $-1 0 30.783693471319641 12.788756496384559 -1 0 0 I I #
vertex $-1 $595 $804 #
point $-1 16.215922029214354 24.866166528409732 5.9311998417606731 #
coedge $-1 $610 $609 $602 $744 forward $599 $-1 #
edge $-1 $745 47.856952815754433 $748 58.693753535065213 $743 $805 forward 7 unknown #
vertex $-1 $614 $806 #
straight-curve $-1 46.98792104420302 45.147840196610346 12.788756496384558 0 1 0 I I #
edge $-1 $748 -26.929598514489861 $611 -13.187046544936457 $610 $807 forward 7 unknown #
vertex $-1 $747 $808 #
straight-curve $-1 46.98792104420302 -5.40470790225325 51.761018616780547 0 -0.5877852410284794 0.80901700255871778 I I #
point $-1 46.98792104420302 22.9102971117476 12.788756496384558 #
point $-1 33.245369074649616 30.783693471319637 1.9519557770737777 #
straight-curve $-1 0 30.783693471319641 12.788756496384559 -1 0 0 I I #
vertex $-1 $617 $809 #
point $-1 42.116645059426318 24.866166528409732 5.9311998417606731 #
edge $-1 $756 37.793861649683677 $759 42.632894365273849 $622 $810 forward 7 unknown #
vertex $-1 $636 $811 #
straight-curve $-1 -40.411481790822052 -51.80581751733547 12.788756496384558 0 -1 0 I I #
edge $-1 $759 -25.026427699457848 $633 -5.743680483270559 $632 $812 forward 7 unknown #
vertex $-1 $758 $813 #
straight-curve $-1 -40.411481790822052 -30.783693471319637 7.9497237807943861 0 0.78801074757464917 0.61566148304635926 I I #
point $-1 -40.411481790822052 -24.590014164174704 12.788756496384559 #
point $-1 -21.128734574634763 -30.783693471319641 7.9497237807943835 #
straight-curve $-1 0 -30.783693471319641 12.788756496384559 1 0 0 I I #
vertex $-1 $639 $814 #
point $-1 -33.402125443339969 -25.048924644027888 6.9928448345568137 #
vertex $-1 $643 $815 #
point $-1 -25.138090922116845 -25.048924644027888 6.9928448345568137 #
edge $-1 $769 37.793861649683677 $772 42.632894365273849 $648 $816 forward 7 unknown #
vertex $-1 $662 $817 #
straight-curve $-1 11.38996426960189 -51.80581751733547 12.788756496384558 0 -1 0 I I #
edge $-1 $772 0.8742953307541228 $659 20.157042546941412 $658 $818 forward 7 unknown #
vertex $-1 $771 $819 #
straight-curve $-1 11.38996426960189 -30.783693471319637 7.9497237807943861 0 0.78801074757464917 0.61566148304635926 I I #
point $-1 11.38996426960189 -24.590014164174704 12.788756496384559 #
point $-1 30.672711485789179 -30.783693471319641 7.9497237807943835 #
straight-curve $-1 0 -30.783693471319641 12.788756496384559 1 0 0 I I #
vertex $-1 $665 $820 #
point $-1 18.399320617083958 -25.048924644027888 6.9928448345568137 #
vertex $-1 $669 $821 #
point $-1 26.663355138307082 -25.048924644027888 6.9928448345568137 #
straight-curve $-1 -59.146092104861594 30.783693471319641 0 0 0 -1 I I #
point $-1 -59.146092104861594 -30.783693471319641 -12.788756496384559 #
straight-curve $-1 -59.146092104861594 0 -12.788756496384559 0 1 0 I I #
point $-1 -59.146092104861594 30.783693471319641 -12.788756496384559 #
straight-curve $-1 -59.146092104861594 0 -5.3412728352897698 0 -1 0 I I #
point $-1 -59.146092104861594 -30.783693471319641 -5.3412728352897698 #
point $-1 -59.146092104861594 30.783693471319641 -5.3412728352897698 #
straight-curve $-1 -59.146092104861594 30.783693471319641 0 0 0 -1 I I #
straight-curve $-1 -59.146092104861594 -30.783693471319641 0 0 0 -1 I I #
straight-curve $-1 -30.714248046432875 30.783693471319641 60.64570931213899 0 0 -1 I I #
point $-1 -30.714248046432875 30.783693471319641 12.788756496384559 #
straight-curve $-1 -18.792762015604787 30.783693471319644 1.9519557770737705 -1 0 0 I I #
point $-1 -30.714248046432875 30.783693471319637 1.9519557770737777 #
point $-1 -37.585524031209573 23.248132523292295 4.7556293597037147 #
straight-curve $-1 -4.8135250162209102 30.783693471319641 60.64570931213899 0 0 -1 I I #
point $-1 -4.8135250162209102 30.783693471319641 12.788756496384559 #
straight-curve $-1 -5.8424005004988047 30.783693471319644 1.9519557770737705 -1 0 0 I I #
point $-1 -4.8135250162209102 30.783693471319637 1.9519557770737777 #
point $-1 -11.684801000997609 23.248132523292295 4.7556293597037147 #
straight-curve $-1 21.087198013991053 30.783693471319641 60.64570931213899 0 0 -1 I I #
point $-1 21.087198013991053 30.783693471319641 12.788756496384559 #
straight-curve $-1 7.1079610146071772 30.783693471319644 1.9519557770737705 -1 0 0 I I #
point $-1 21.087198013991053 30.783693471319637 1.9519557770737777 #
point $-1 14.215922029214354 23.248132523292295 4.7556293597037147 #
straight-curve $-1 46.98792104420302 30.783693471319641 60.64570931213899 0 0 -1 I I #
point $-1 46.98792104420302 30.783693471319641 12.788756496384559 #
straight-curve $-1 20.058322529713159 30.783693471319644 1.9519557770737705 -1 0 0 I I #
point $-1 46.98792104420302 30.783693471319637 1.9519557770737777 #
point $-1 40.116645059426318 23.248132523292295 4.7556293597037147 #
straight-curve $-1 -40.411481790822052 -30.783693471319637 50.582618146068235 0 0 -1 I I #
point $-1 -40.411481790822052 -30.783693471319641 12.788756496384559 #
straight-curve $-1 -15.385054091364204 -30.783693471319641 7.9497237807943799 1 0 0 I I #
point $-1 -40.411481790822052 -30.783693471319641 7.9497237807943835 #
point $-1 -34.902125443339969 -24.125432419458352 5.81082871319484 #
point $-1 -26.638090922116845 -24.125432419458352 5.81082871319484 #
straight-curve $-1 11.38996426960189 -30.783693471319637 50.582618146068235 0 0 -1 I I #
point $-1 11.38996426960189 -30.783693471319641 12.788756496384559 #
straight-curve $-1 10.515668938847767 -30.783693471319641 7.9497237807943799 1 0 0 I I #
point $-1 11.38996426960189 -30.783693471319641 7.9497237807943835 #
point $-1 16.899320617083958 -24.125432419458352 5.81082871319484 #
point $-1 25.163355138307082 -24.125432419458352 5.81082871319484 #
End-of-ACIS-data 