500 0 7 0           
7 Unknown 11 ACIS 5.0 NT 24 Fri Mar 26 14:55:12 1999 
-1 9.9999999999999995e-007 1e-010 
body $-1 $7 $-1 $8 #
body $-1 $9 $-1 $10 #
body $-1 $11 $-1 $12 #
body $-1 $13 $-1 $14 #
body $-1 $15 $-1 $16 #
body $-1 $17 $-1 $18 #
body $-1 $19 $-1 $20 #
lump $-1 $-1 $21 $0 #
transform $-1 1 0 0 0 1 0 0 0 1 63.667714468825338 28.582173523252685 11.22177635859069 1 rotate no_reflect no_shear #
lump $-1 $-1 $22 $1 #
transform $-1 1 0 0 0 1 0 0 0 1 63.667714468825338 28.582173523252685 11.22177635859069 1 rotate no_reflect no_shear #
lump $-1 $-1 $23 $2 #
transform $-1 1 0 0 0 1 0 0 0 1 63.667714468825338 28.582173523252685 11.22177635859069 1 rotate no_reflect no_shear #
lump $-1 $-1 $24 $3 #
transform $-1 1 0 0 0 1 0 0 0 1 63.667714468825338 28.582173523252685 11.22177635859069 1 rotate no_reflect no_shear #
lump $-1 $-1 $25 $4 #
transform $-1 1 0 0 0 1 0 0 0 1 63.667714468825338 28.582173523252685 11.22177635859069 1 rotate no_reflect no_shear #
lump $-1 $-1 $26 $5 #
transform $-1 1 0 0 0 1 0 0 0 1 63.667714468825338 28.582173523252685 11.22177635859069 1 rotate no_reflect no_shear #
lump $-1 $-1 $27 $6 #
transform $-1 1 0 0 0 1 0 0 0 1 63.667714468825338 28.582173523252685 11.22177635859069 1 rotate no_reflect no_shear #
shell $-1 $-1 $-1 $28 $-1 $7 #
shell $-1 $-1 $-1 $29 $-1 $9 #
shell $-1 $-1 $-1 $30 $-1 $11 #
shell $-1 $-1 $-1 $31 $-1 $13 #
shell $-1 $-1 $-1 $32 $-1 $15 #
shell $-1 $-1 $-1 $33 $-1 $17 #
shell $-1 $-1 $-1 $34 $-1 $19 #
face $-1 $35 $36 $21 $-1 $37 reversed single #
face $-1 $38 $39 $22 $-1 $40 forward single #
face $-1 $41 $42 $23 $-1 $43 forward single #
face $-1 $44 $45 $24 $-1 $46 reversed single #
face $-1 $47 $48 $25 $-1 $49 forward single #
face $-1 $50 $51 $26 $-1 $52 reversed single #
face $-1 $53 $54 $27 $-1 $55 forward single #
face $-1 $56 $57 $21 $-1 $58 forward single #
loop $-1 $-1 $59 $28 #
plane-surface $-1 -63.667714468825338 0 0 1 0 0 0 0 -1 forward_v I I I I #
face $-1 $60 $61 $22 $-1 $62 reversed single #
loop $-1 $-1 $63 $29 #
plane-surface $-1 -63.667714468825338 0 0 1 0 0 0 0 -1 forward_v I I I I #
face $-1 $64 $65 $23 $-1 $66 reversed single #
loop $-1 $-1 $67 $30 #
plane-surface $-1 63.667714468825338 0 0 -1 0 0 0 0 1 forward_v I I I I #
face $-1 $68 $69 $24 $-1 $70 reversed single #
loop $-1 $-1 $71 $31 #
plane-surface $-1 -9.0286362191894547 -120.17961660040478 88.975773760260793 -1 0 0 0 -0.71933980857756763 0.69465836192734942 forward_v I I I I #
face $-1 $72 $73 $25 $-1 $74 forward single #
loop $-1 $75 $76 $32 #
cone-surface $-1 -18.385718392421893 -21.030378649725691 3.5682399763327122 0 0.71933980857756763 -0.69465836192734942 2 0 0 1 I I 0 1 2 forward I I I I #
face $-1 $77 $78 $26 $-1 $79 reversed single #
loop $-1 $-1 $80 $33 #
plane-surface $-1 -27.742800565654331 80.469924920432845 130.09636422215559 1 0 0 0 -0.71933980857756763 -0.69465836192734942 forward_v I I I I #
face $-1 $81 $82 $27 $-1 $83 forward single #
loop $-1 $84 $85 $34 #
cone-surface $-1 -18.385718392421893 21.030378649725698 3.5682399763327033 0 -0.71933980857756763 -0.69465836192734942 2 0 0 1 I I 0 1 2 forward I I I I #
face $-1 $86 $87 $21 $-1 $88 reversed single #
loop $-1 $-1 $89 $35 #
plane-surface $-1 0 0 11.22177635859069 0 0 1 1 0 0 forward_v I I I I #
coedge $-1 $90 $91 $92 $93 reversed $36 $-1 #
face $-1 $94 $95 $22 $-1 $96 reversed single #
loop $-1 $-1 $97 $38 #
plane-surface $-1 0 0 -11.22177635859069 0 0 1 1 0 0 forward_v I I I I #
coedge $-1 $98 $99 $100 $101 forward $39 $-1 #
face $-1 $102 $103 $23 $-1 $104 reversed single #
loop $-1 $-1 $105 $41 #
plane-surface $-1 0 28.582173523252685 0 0 -1 0 0 0 -1 forward_v I I I I #
coedge $-1 $106 $107 $108 $109 forward $42 $-1 #
face $-1 $110 $111 $24 $-1 $112 reversed single #
loop $-1 $-1 $113 $44 #
plane-surface $-1 -18.385718392421893 -28.582173523252678 0.5211532791159641 0 -0.71933980857756763 0.69465836192734942 1 0 0 forward_v I I I I #
coedge $-1 $114 $115 $116 $117 reversed $45 $-1 #
face $-1 $-1 $118 $25 $-1 $119 forward single #
loop $-1 $120 $121 $47 #
cone-surface $-1 -18.385718392421893 -17.925979640632583 0.57035677188474665 0 0.71933980857756763 -0.69465836192734942 1 0 0 1 I I -0.70710678118654746 0.70710678118654746 1 forward I I I I #
loop $-1 $-1 $122 $32 #
coedge $-1 $76 $76 $123 $124 reversed $48 $-1 #
face $-1 $125 $126 $26 $-1 $127 reversed single #
loop $-1 $-1 $128 $50 #
plane-surface $-1 -18.385718392421893 -11.127518156719262 41.641743741010757 0 0.71933980857756763 0.69465836192734942 1 0 0 forward_v I I I I #
coedge $-1 $129 $130 $131 $132 reversed $51 $-1 #
face $-1 $-1 $133 $27 $-1 $134 forward single #
loop $-1 $135 $136 $53 #
cone-surface $-1 -18.385718392421893 17.92597964063259 0.57035677188473777 0 -0.71933980857756763 -0.69465836192734942 1 0 0 1 I I -0.70710678118654746 0.70710678118654746 1 forward I I I I #
loop $-1 $-1 $137 $34 #
coedge $-1 $85 $85 $138 $139 reversed $54 $-1 #
face $-1 $140 $141 $21 $-1 $142 reversed single #
loop $-1 $-1 $143 $56 #
plane-surface $-1 0 0 -11.22177635859069 0 0 1 1 0 0 forward_v I I I I #
coedge $-1 $144 $145 $146 $147 forward $57 $-1 #
coedge $-1 $148 $59 $149 $150 reversed $36 $-1 #
coedge $-1 $59 $148 $151 $152 forward $36 $-1 #
coedge $-1 $153 $154 $59 $93 forward $87 $-1 #
edge $-1 $155 -28.582173523252685 $156 28.582173523252685 $59 $157 forward 7 unknown #
face $-1 $158 $159 $22 $-1 $160 reversed single #
loop $-1 $-1 $161 $60 #
plane-surface $-1 -69.377946893431513 -25.336339807533143 0 0 1 0 0 0 1 forward_v I I I I #
coedge $-1 $162 $163 $99 $164 forward $61 $-1 #
coedge $-1 $165 $63 $166 $167 reversed $39 $-1 #
coedge $-1 $63 $165 $97 $164 reversed $39 $-1 #
coedge $-1 $168 $169 $63 $101 reversed $170 $-1 #
edge $-1 $171 -11.22177635859069 $172 11.22177635859069 $100 $173 forward 7 unknown #
face $-1 $174 $175 $23 $-1 $176 reversed single #
loop $-1 $-1 $177 $64 #
plane-surface $-1 70.304788838453774 0 4.5251495523340717 0 0 1 1 0 0 forward_v I I I I #
coedge $-1 $178 $179 $107 $180 forward $65 $-1 #
coedge $-1 $181 $67 $182 $183 reversed $42 $-1 #
coedge $-1 $67 $181 $105 $180 reversed $42 $-1 #
coedge $-1 $184 $185 $67 $109 reversed $103 $-1 #
edge $-1 $186 -28.582173523252685 $187 28.582173523252685 $108 $188 forward 7 unknown #
face $-1 $189 $190 $24 $-1 $191 reversed single #
loop $-1 $-1 $192 $68 #
plane-surface $-1 -27.742800565654331 -120.17961660040478 88.975773760260793 1 0 0 0 0.71933980857756763 -0.69465836192734942 forward_v I I I I #
coedge $-1 $193 $194 $195 $196 reversed $69 $-1 #
coedge $-1 $115 $71 $197 $198 reversed $45 $-1 #
coedge $-1 $71 $114 $193 $199 reversed $45 $-1 #
coedge $-1 $195 $200 $71 $117 forward $201 $-1 #
edge $-1 $202 31.507634776949708 $203 41.841106122972626 $116 $204 forward 7 unknown #
loop $-1 $-1 $123 $72 #
plane-surface $-1 -18.385718392421893 -28.582173523252678 0.5211532791159641 0 -0.71933980857756763 0.69465836192734942 1 0 0 forward_v I I I I #
loop $-1 $-1 $205 $47 #
coedge $-1 $121 $121 $122 $206 reversed $73 $-1 #
coedge $-1 $122 $122 $121 $206 forward $75 $-1 #
coedge $-1 $123 $123 $76 $124 forward $118 $-1 #
edge $-1 $207 6.8274515097322222e-016 $207 6.2831853071796013 $123 $208 forward 7 unknown #
face $-1 $209 $210 $26 $-1 $211 forward single #
loop $-1 $-1 $212 $77 #
plane-surface $-1 -9.0286362191894547 80.469924920432845 130.09636422215559 -1 0 0 0 0.71933980857756763 0.69465836192734942 forward_v I I I I #
coedge $-1 $213 $214 $215 $216 reversed $78 $-1 #
coedge $-1 $130 $80 $217 $218 reversed $51 $-1 #
coedge $-1 $80 $129 $213 $219 reversed $51 $-1 #
coedge $-1 $215 $220 $80 $132 forward $210 $-1 #
edge $-1 $221 11.652788936963738 $222 21.986260282986684 $131 $223 forward 7 unknown #
loop $-1 $-1 $138 $81 #
plane-surface $-1 -18.385718392421893 -11.127518156719262 41.641743741010757 0 0.71933980857756763 0.69465836192734942 1 0 0 forward_v I I I I #
loop $-1 $-1 $224 $53 #
coedge $-1 $136 $136 $137 $225 reversed $82 $-1 #
coedge $-1 $137 $137 $136 $225 forward $84 $-1 #
coedge $-1 $138 $138 $85 $139 forward $133 $-1 #
edge $-1 $226 -2.1921528281703778e-016 $226 6.2831853071796004 $138 $227 forward 7 unknown #
face $-1 $228 $229 $21 $-1 $230 reversed single #
loop $-1 $-1 $149 $86 #
plane-surface $-1 0 -28.582173523252685 0 0 1 0 0 0 1 forward_v I I I I #
coedge $-1 $154 $153 $231 $232 forward $87 $-1 #
coedge $-1 $233 $89 $234 $235 forward $57 $-1 #
coedge $-1 $89 $233 $236 $237 forward $57 $-1 #
coedge $-1 $238 $239 $89 $147 reversed $240 $-1 #
edge $-1 $241 -28.582173523252685 $242 28.582173523252685 $146 $243 forward 7 unknown #
coedge $-1 $91 $90 $233 $244 reversed $36 $-1 #
coedge $-1 $245 $236 $90 $150 forward $141 $-1 #
edge $-1 $246 -11.22177635859069 $155 11.22177635859069 $90 $247 forward 7 unknown #
coedge $-1 $234 $248 $91 $152 reversed $229 $-1 #
edge $-1 $249 -11.22177635859069 $156 11.22177635859069 $151 $250 forward 7 unknown #
coedge $-1 $143 $92 $248 $251 forward $87 $-1 #
coedge $-1 $92 $143 $245 $252 forward $87 $-1 #
vertex $-1 $93 $253 #
vertex $-1 $251 $254 #
straight-curve $-1 -63.667714468825338 0 -11.22177635859069 0 1 0 I I #
face $-1 $255 $170 $22 $-1 $256 reversed single #
loop $-1 $-1 $257 $94 #
plane-surface $-1 -75.088179318037689 -23.836339807533143 0 1 0 0 0 0 -1 forward_v I I I I #
coedge $-1 $258 $259 $260 $261 forward $95 $-1 #
coedge $-1 $262 $97 $258 $263 forward $61 $-1 #
coedge $-1 $97 $262 $168 $264 forward $61 $-1 #
edge $-1 $171 22.336339807533143 $265 25.336339807533143 $97 $266 forward 7 unknown #
coedge $-1 $99 $98 $267 $268 forward $39 $-1 #
coedge $-1 $269 $270 $98 $167 forward $271 $-1 #
edge $-1 $272 -25.336339807533143 $172 -22.336339807533143 $166 $273 forward 7 unknown #
coedge $-1 $274 $100 $163 $264 reversed $170 $-1 #
coedge $-1 $100 $274 $269 $275 reversed $170 $-1 #
loop $-1 $-1 $100 $158 #
vertex $-1 $164 $276 #
vertex $-1 $275 $277 #
straight-curve $-1 -63.667714468825338 -22.336339807533143 0 0 0 1 I I #
face $-1 $278 $279 $23 $-1 $280 forward single #
loop $-1 $-1 $281 $102 #
plane-surface $-1 76.941863208082225 0 7.8734629554623812 -1 0 0 0 0 1 forward_v I I I I #
coedge $-1 $185 $184 $282 $283 forward $103 $-1 #
coedge $-1 $284 $105 $285 $286 reversed $65 $-1 #
coedge $-1 $105 $284 $184 $287 reversed $65 $-1 #
edge $-1 $186 4.5251495523340717 $288 11.22177635859069 $105 $289 forward 7 unknown #
coedge $-1 $107 $106 $290 $291 reversed $42 $-1 #
coedge $-1 $292 $293 $106 $183 forward $294 $-1 #
edge $-1 $295 -11.22177635859069 $187 -4.5251495523340717 $182 $296 forward 7 unknown #
coedge $-1 $177 $108 $179 $287 forward $103 $-1 #
coedge $-1 $108 $177 $292 $297 forward $103 $-1 #
vertex $-1 $180 $298 #
vertex $-1 $183 $299 #
straight-curve $-1 63.667714468825338 0 4.5251495523340717 0 -1 0 I I #
face $-1 $-1 $201 $24 $-1 $300 forward single #
loop $-1 $-1 $301 $110 #
plane-surface $-1 0 -28.582173523252685 0 0 1 0 0 0 1 forward_v I I I I #
coedge $-1 $302 $303 $304 $305 reversed $111 $-1 #
coedge $-1 $306 $113 $115 $199 forward $69 $-1 #
coedge $-1 $113 $306 $302 $307 forward $69 $-1 #
coedge $-1 $304 $116 $113 $196 forward $201 $-1 #
edge $-1 $203 -0.1642229770214918 $308 18.549941369443385 $195 $309 forward 7 unknown #
coedge $-1 $310 $311 $114 $198 forward $190 $-1 #
edge $-1 $312 -43.96673360101444 $202 -33.266110521539701 $197 $313 forward 7 unknown #
edge $-1 $203 -14.875616435901531 $312 1.0206786807905858e-014 $115 $314 forward 7 unknown #
coedge $-1 $116 $304 $310 $315 forward $201 $-1 #
loop $-1 $-1 $304 $189 #
vertex $-1 $198 $316 #
vertex $-1 $117 $317 #
straight-curve $-1 -9.0286362191894547 -60.089808300202392 11.221776358590688 0 1 0 I I #
coedge $-1 $205 $205 $-1 $318 reversed $120 $-1 #
edge $-1 $319 0 $319 6.2831853071796004 $121 $320 forward 7 unknown #
vertex $-1 $124 $321 #
ellipse-curve $-1 -18.385718392421893 -23.415437850241226 5.8714648188533225 0 -0.71933980857756763 0.69465836192734942 2 0 0 1 I I #
face $-1 $-1 $322 $26 $-1 $323 reversed single #
loop $-1 $-1 $131 $125 #
plane-surface $-1 0 0 11.22177635859069 0 0 1 1 0 0 forward_v I I I I #
coedge $-1 $324 $325 $326 $327 reversed $126 $-1 #
coedge $-1 $328 $128 $130 $219 forward $78 $-1 #
coedge $-1 $128 $328 $324 $329 forward $78 $-1 #
coedge $-1 $326 $131 $128 $216 forward $210 $-1 #
edge $-1 $222 -18.549941369443385 $330 0.1642229770214918 $215 $331 forward 7 unknown #
coedge $-1 $332 $333 $129 $218 forward $322 $-1 #
edge $-1 $334 -64.527028831961871 $221 -53.826405752487105 $217 $335 forward 7 unknown #
edge $-1 $222 42.288730610603807 $334 57.164347046505384 $130 $336 forward 7 unknown #
coedge $-1 $131 $326 $332 $337 forward $210 $-1 #
vertex $-1 $132 $338 #
vertex $-1 $132 $339 #
straight-curve $-1 -27.742800565654331 40.234962460216423 11.221776358590688 0 -1 0 I I #
coedge $-1 $224 $224 $-1 $340 reversed $135 $-1 #
edge $-1 $341 0 $341 6.2831853071796004 $136 $342 forward 7 unknown #
vertex $-1 $139 $343 #
ellipse-curve $-1 -18.385718392421893 23.415437850241219 5.8714648188533012 0 0.71933980857756763 0.69465836192734942 2 0 0 1 I I #
face $-1 $-1 $240 $21 $-1 $344 reversed single #
loop $-1 $-1 $345 $140 #
plane-surface $-1 0 28.582173523252685 0 0 -1 0 0 0 -1 forward_v I I I I #
coedge $-1 $239 $238 $143 $232 reversed $240 $-1 #
edge $-1 $346 -28.582173523252685 $347 28.582173523252685 $231 $348 forward 7 unknown #
coedge $-1 $145 $144 $148 $244 forward $57 $-1 #
coedge $-1 $345 $151 $144 $235 reversed $229 $-1 #
edge $-1 $242 -63.667714468825338 $249 63.667714468825338 $234 $349 forward 7 unknown #
coedge $-1 $149 $350 $145 $237 reversed $141 $-1 #
edge $-1 $246 -63.667714468825338 $241 63.667714468825338 $236 $351 forward 7 unknown #
coedge $-1 $231 $146 $350 $352 forward $240 $-1 #
coedge $-1 $146 $231 $345 $353 reversed $240 $-1 #
loop $-1 $-1 $238 $228 #
vertex $-1 $147 $354 #
vertex $-1 $147 $355 #
straight-curve $-1 63.667714468825338 0 11.22177635859069 0 1 0 I I #
edge $-1 $249 -28.582173523252685 $246 28.582173523252685 $148 $356 forward 7 unknown #
coedge $-1 $350 $149 $154 $252 reversed $141 $-1 #
vertex $-1 $244 $357 #
straight-curve $-1 -63.667714468825338 -28.582173523252685 0 0 0 -1 I I #
coedge $-1 $151 $345 $153 $251 reversed $229 $-1 #
vertex $-1 $235 $358 #
straight-curve $-1 -63.667714468825338 28.582173523252685 0 0 0 -1 I I #
edge $-1 $156 -63.667714468825338 $346 63.667714468825338 $248 $359 forward 7 unknown #
edge $-1 $347 -63.667714468825338 $155 63.667714468825338 $245 $360 forward 7 unknown #
point $-1 -63.667714468825338 -28.582173523252685 -11.22177635859069 #
point $-1 -63.667714468825338 28.582173523252685 -11.22177635859069 #
face $-1 $-1 $271 $22 $-1 $361 forward single #
plane-surface $-1 -69.377946893431513 -22.336339807533143 0 0 -1 0 0 0 -1 forward_v I I I I #
coedge $-1 $362 $363 $274 $364 forward $159 $-1 #
coedge $-1 $267 $161 $162 $263 reversed $95 $-1 #
coedge $-1 $161 $267 $270 $365 reversed $95 $-1 #
coedge $-1 $363 $362 $161 $261 reversed $159 $-1 #
edge $-1 $366 -11.22177635859069 $367 11.22177635859069 $260 $368 forward 7 unknown #
coedge $-1 $163 $162 $362 $369 forward $61 $-1 #
edge $-1 $265 -5.7102324246061755 $367 5.7102324246061755 $258 $370 forward 7 unknown #
edge $-1 $371 -5.7102324246061755 $171 5.7102324246061755 $168 $372 forward 7 unknown #
vertex $-1 $263 $373 #
straight-curve $-1 -63.667714468825338 0 -11.22177635859069 0 -1 0 I I #
coedge $-1 $259 $258 $165 $268 reversed $95 $-1 #
edge $-1 $272 -11.22177635859069 $265 11.22177635859069 $267 $374 forward 7 unknown #
coedge $-1 $375 $166 $169 $275 forward $271 $-1 #
coedge $-1 $166 $375 $259 $365 forward $271 $-1 #
loop $-1 $-1 $166 $255 #
vertex $-1 $167 $376 #
straight-curve $-1 -63.667714468825338 0 11.22177635859069 0 1 0 I I #
coedge $-1 $169 $168 $257 $364 reversed $170 $-1 #
edge $-1 $172 -5.7102324246061755 $377 5.7102324246061755 $169 $378 forward 7 unknown #
point $-1 -63.667714468825338 -22.336339807533143 -11.22177635859069 #
point $-1 -63.667714468825338 -22.336339807533143 11.22177635859069 #
face $-1 $-1 $294 $23 $-1 $379 reversed single #
loop $-1 $-1 $290 $174 #
plane-surface $-1 0 0 11.22177635859069 0 0 1 1 0 0 forward_v I I I I #
coedge $-1 $282 $380 $381 $382 forward $175 $-1 #
coedge $-1 $383 $281 $177 $283 reversed $175 $-1 #
edge $-1 $384 -28.582173523252685 $385 28.582173523252685 $282 $386 forward 7 unknown #
coedge $-1 $179 $178 $383 $387 forward $65 $-1 #
coedge $-1 $290 $388 $178 $286 forward $279 $-1 #
edge $-1 $389 -76.941863208082225 $288 -63.667714468825338 $178 $390 forward 7 unknown #
edge $-1 $186 -6.6370743696284507 $384 6.6370743696284507 $179 $391 forward 7 unknown #
vertex $-1 $180 $392 #
straight-curve $-1 63.667714468825338 28.582173523252685 0 0 0 1 I I #
coedge $-1 $393 $285 $181 $291 forward $279 $-1 #
edge $-1 $288 -28.582173523252685 $295 28.582173523252685 $290 $394 forward 7 unknown #
coedge $-1 $381 $182 $185 $297 reversed $294 $-1 #
coedge $-1 $182 $381 $393 $395 reversed $294 $-1 #
loop $-1 $-1 $182 $278 #
vertex $-1 $395 $396 #
straight-curve $-1 63.667714468825338 -28.582173523252685 0 0 0 -1 I I #
edge $-1 $385 -6.6370743696284507 $187 6.6370743696284507 $292 $397 forward 7 unknown #
point $-1 63.667714468825324 28.582173523252685 4.5251495523340717 #
point $-1 63.667714468825324 -28.582173523252685 4.5251495523340717 #
plane-surface $-1 0 0 11.22177635859069 0 0 1 1 0 0 forward_v I I I I #
coedge $-1 $311 $310 $303 $398 forward $190 $-1 #
coedge $-1 $303 $192 $194 $307 reversed $111 $-1 #
coedge $-1 $192 $302 $301 $398 reversed $111 $-1 #
coedge $-1 $200 $195 $192 $305 forward $201 $-1 #
edge $-1 $308 -41.841106122972626 $399 -31.507634776949708 $304 $400 forward 7 unknown #
coedge $-1 $194 $193 $311 $401 reversed $69 $-1 #
edge $-1 $402 -1.0206786807905858e-014 $308 14.875616435901531 $302 $403 forward 7 unknown #
vertex $-1 $196 $404 #
straight-curve $-1 -9.1928591962109465 -18.248702177229767 11.22177635859069 -1 0 0 I I #
coedge $-1 $301 $197 $200 $315 reversed $190 $-1 #
coedge $-1 $197 $301 $306 $401 forward $190 $-1 #
vertex $-1 $198 $405 #
straight-curve $-1 -9.0286362191894547 -28.582173523252685 44.487886880130397 0 0 1 I I #
straight-curve $-1 -9.0286362191894547 -28.582173523252678 0.5211532791159641 0 -0.69465836192734942 -0.71933980857756763 I I #
edge $-1 $399 -98.047589404108109 $202 -79.333425057643225 $310 $406 forward 7 unknown #
point $-1 -9.0286362191894511 -28.582173523252685 11.221776358590692 #
point $-1 -9.0286362191894547 -18.248702177229767 11.22177635859069 #
edge $-1 $407 1 $407 0 $205 $-1 forward 7 unknown #
vertex $-1 $206 $408 #
ellipse-curve $-1 -18.385718392421893 -18.645319449210152 1.2650151338120961 0 -0.71933980857756763 0.69465836192734942 2 0 0 1 I I #
point $-1 -16.385718392421893 -23.415437850241229 5.8714648188533278 #
loop $-1 $-1 $217 $209 #
plane-surface $-1 0 28.582173523252685 0 0 -1 0 0 0 -1 forward_v I I I I #
coedge $-1 $325 $212 $214 $329 reversed $126 $-1 #
coedge $-1 $212 $324 $409 $410 reversed $126 $-1 #
coedge $-1 $220 $215 $212 $327 forward $210 $-1 #
edge $-1 $330 -21.986260282986684 $411 -11.652788936963738 $326 $412 forward 7 unknown #
coedge $-1 $214 $213 $333 $413 reversed $78 $-1 #
edge $-1 $414 -57.164347046505384 $330 -42.288730610603807 $324 $415 forward 7 unknown #
vertex $-1 $216 $416 #
straight-curve $-1 -9.1928591962109465 18.248702177229738 11.221776358590692 1 0 0 I I #
coedge $-1 $409 $217 $220 $337 reversed $322 $-1 #
coedge $-1 $217 $409 $328 $413 forward $322 $-1 #
vertex $-1 $218 $417 #
straight-curve $-1 -27.742800565654331 28.582173523252685 65.048182111077793 0 0 1 I I #
straight-curve $-1 -27.742800565654331 -11.127518156719262 41.641743741010757 0 0.69465836192734942 -0.71933980857756763 I I #
edge $-1 $411 9.0286362191894547 $221 27.742800565654331 $332 $418 forward 7 unknown #
point $-1 -27.742800565654331 28.582173523252685 11.22177635859069 #
point $-1 -27.742800565654331 18.248702177229738 11.221776358590688 #
edge $-1 $419 1 $419 0 $224 $-1 forward 7 unknown #
vertex $-1 $225 $420 #
ellipse-curve $-1 -18.385718392421893 18.645319449210159 1.2650151338120872 0 0.71933980857756763 0.69465836192734942 2 0 0 1 I I #
point $-1 -16.385718392421893 23.415437850241236 5.8714648188533189 #
plane-surface $-1 63.667714468825338 0 0 -1 0 0 0 0 1 forward_v I I I I #
coedge $-1 $248 $234 $239 $353 forward $229 $-1 #
vertex $-1 $232 $421 #
vertex $-1 $352 $422 #
straight-curve $-1 63.667714468825338 0 -11.22177635859069 0 -1 0 I I #
straight-curve $-1 0 28.582173523252685 11.22177635859069 -1 0 0 I I #
coedge $-1 $236 $245 $238 $352 reversed $141 $-1 #
straight-curve $-1 0 -28.582173523252685 11.22177635859069 1 0 0 I I #
edge $-1 $241 -11.22177635859069 $347 11.22177635859069 $238 $423 forward 7 unknown #
edge $-1 $242 -11.22177635859069 $346 11.22177635859069 $239 $424 forward 7 unknown #
point $-1 63.667714468825338 -28.582173523252685 11.22177635859069 #
point $-1 63.667714468825338 28.582173523252685 11.22177635859069 #
straight-curve $-1 -63.667714468825338 0 11.22177635859069 0 -1 0 I I #
point $-1 -63.667714468825338 -28.582173523252685 11.22177635859069 #
point $-1 -63.667714468825338 28.582173523252685 11.22177635859069 #
straight-curve $-1 0 28.582173523252685 -11.22177635859069 1 0 0 I I #
straight-curve $-1 0 -28.582173523252685 -11.22177635859069 -1 0 0 I I #
plane-surface $-1 0 0 11.22177635859069 0 0 1 1 0 0 forward_v I I I I #
coedge $-1 $260 $257 $262 $369 reversed $159 $-1 #
coedge $-1 $257 $260 $375 $425 reversed $159 $-1 #
edge $-1 $377 -11.22177635859069 $371 11.22177635859069 $274 $426 forward 7 unknown #
edge $-1 $366 -5.7102324246061755 $272 5.7102324246061755 $259 $427 forward 7 unknown #
vertex $-1 $425 $428 #
vertex $-1 $369 $429 #
straight-curve $-1 -75.088179318037689 -25.336339807533143 0 0 0 -1 I I #
edge $-1 $367 -1.5 $371 1.5 $362 $430 forward 7 unknown #
straight-curve $-1 -69.377946893431513 -25.336339807533143 -11.22177635859069 -1 0 0 I I #
vertex $-1 $264 $431 #
straight-curve $-1 -69.377946893431513 -22.336339807533143 -11.22177635859069 1 0 0 I I #
point $-1 -63.667714468825338 -25.336339807533143 -11.22177635859069 #
straight-curve $-1 -63.667714468825338 -25.336339807533143 0 0 0 -1 I I #
coedge $-1 $270 $269 $363 $425 forward $271 $-1 #
point $-1 -63.667714468825338 -25.336339807533143 11.22177635859069 #
vertex $-1 $275 $432 #
straight-curve $-1 -69.377946893431513 -22.336339807533143 11.22177635859069 -1 0 0 I I #
plane-surface $-1 0 -28.582173523252685 0 0 1 0 0 0 1 forward_v I I I I #
coedge $-1 $281 $383 $388 $433 reversed $175 $-1 #
coedge $-1 $293 $292 $281 $382 reversed $294 $-1 #
edge $-1 $434 -3.3483134031283104 $385 3.3483134031283095 $281 $435 forward 7 unknown #
coedge $-1 $380 $282 $284 $387 reversed $175 $-1 #
vertex $-1 $283 $436 #
vertex $-1 $382 $437 #
straight-curve $-1 76.941863208082225 0 4.5251495523340717 0 -1 0 I I #
edge $-1 $389 -3.3483134031283104 $384 3.3483134031283095 $383 $438 forward 7 unknown #
coedge $-1 $285 $393 $380 $433 forward $279 $-1 #
vertex $-1 $433 $439 #
straight-curve $-1 0 28.582173523252685 11.22177635859069 -1 0 0 I I #
straight-curve $-1 70.304788838453774 28.582173523252685 4.5251495523340717 1 0 0 I I #
point $-1 63.667714468825338 28.582173523252685 11.22177635859069 #
coedge $-1 $388 $290 $293 $395 forward $279 $-1 #
straight-curve $-1 63.667714468825338 0 11.22177635859069 0 -1 0 I I #
edge $-1 $295 -6.6370743696284364 $434 6.6370743696284507 $293 $440 forward 7 unknown #
point $-1 63.667714468825338 -28.582173523252685 11.22177635859069 #
straight-curve $-1 70.304788838453774 -28.582173523252685 4.5251495523340717 -1 0 0 I I #
edge $-1 $399 33.266110521539701 $402 43.96673360101444 $301 $441 forward 7 unknown #
vertex $-1 $315 $442 #
straight-curve $-1 -27.742800565654331 -60.089808300202392 11.221776358590688 0 -1 0 I I #
edge $-1 $402 -18.549941369443385 $312 0.1642229770214918 $311 $443 forward 7 unknown #
vertex $-1 $401 $444 #
straight-curve $-1 -27.742800565654331 -28.582173523252678 0.5211532791159641 0 0.69465836192734942 0.71933980857756763 I I #
point $-1 -27.742800565654331 -18.248702177229767 11.22177635859069 #
point $-1 -9.0286362191894547 -28.582173523252685 0.52115327911595677 #
straight-curve $-1 70.304788838453774 -28.582173523252685 11.221776358590692 1 0 0 I I #
vertex $-1 $318 $445 #
point $-1 -16.385718392421893 -18.645319449210152 1.2650151338120961 #
coedge $-1 $333 $332 $325 $410 forward $322 $-1 #
edge $-1 $411 53.826405752487105 $414 64.527028831961871 $409 $446 forward 7 unknown #
vertex $-1 $337 $447 #
straight-curve $-1 -9.0286362191894547 40.234962460216423 11.221776358590688 0 1 0 I I #
edge $-1 $414 -0.1642229770214918 $334 18.549941369443385 $333 $448 forward 7 unknown #
vertex $-1 $413 $449 #
straight-curve $-1 -9.0286362191894547 -11.127518156719262 41.641743741010757 0 -0.69465836192734942 0.71933980857756763 I I #
point $-1 -9.0286362191894547 18.248702177229738 11.221776358590688 #
point $-1 -27.742800565654331 28.582173523252685 0.52115327911592857 #
straight-curve $-1 0 28.582173523252685 11.22177635859069 -1 0 0 I I #
vertex $-1 $340 $450 #
point $-1 -16.385718392421893 18.645319449210159 1.2650151338120872 #
point $-1 63.667714468825338 28.582173523252685 -11.22177635859069 #
point $-1 63.667714468825338 -28.582173523252685 -11.22177635859069 #
straight-curve $-1 63.667714468825338 -28.582173523252685 0 0 0 -1 I I #
straight-curve $-1 63.667714468825338 28.582173523252685 0 0 0 -1 I I #
edge $-1 $377 -1.5 $366 1.5 $363 $451 forward 7 unknown #
straight-curve $-1 -75.088179318037689 -22.336339807533143 0 0 0 -1 I I #
straight-curve $-1 -69.377946893431513 -25.336339807533143 11.22177635859069 1 0 0 I I #
point $-1 -75.088179318037689 -25.336339807533143 11.22177635859069 #
point $-1 -75.088179318037689 -25.336339807533143 -11.22177635859069 #
straight-curve $-1 -75.088179318037689 -23.836339807533143 -11.22177635859069 0 1 0 I I #
point $-1 -75.088179318037689 -22.336339807533143 -11.22177635859069 #
point $-1 -75.088179318037689 -22.336339807533143 11.22177635859069 #
edge $-1 $434 -28.582173523252685 $389 28.582173523252685 $380 $452 forward 7 unknown #
vertex $-1 $433 $453 #
straight-curve $-1 76.941863208082225 -28.582173523252685 7.8734629554623812 0 0 -1 I I #
point $-1 76.941863208082225 28.582173523252685 4.5251495523340717 #
point $-1 76.941863208082225 -28.582173523252685 4.5251495523340717 #
straight-curve $-1 76.941863208082225 28.582173523252685 7.8734629554623812 0 0 -1 I I #
point $-1 76.941863208082225 28.582173523252685 11.221776358590692 #
straight-curve $-1 70.304788838453774 -28.582173523252685 11.221776358590692 1 0 0 I I #
straight-curve $-1 -27.742800565654331 -28.582173523252685 44.487886880130397 0 0 -1 I I #
point $-1 -27.742800565654335 -28.582173523252685 11.221776358590692 #
straight-curve $-1 -9.1928591962109465 -28.582173523252685 0.52115327911595632 1 0 0 I I #
point $-1 -27.742800565654331 -28.582173523252685 0.52115327911595677 #
point $-1 -18.385718392421893 -17.206639832055014 -0.12430159004260277 #
straight-curve $-1 -9.0286362191894547 28.582173523252685 65.048182111077793 0 0 -1 I I #
point $-1 -9.0286362191894547 28.582173523252685 11.22177635859069 #
straight-curve $-1 -9.1928591962109465 28.582173523252685 0.52115327911592857 -1 0 0 I I #
point $-1 -9.0286362191894547 28.582173523252685 0.52115327911592857 #
point $-1 -18.385718392421893 17.206639832055021 -0.12430159004261165 #
straight-curve $-1 -75.088179318037689 -23.836339807533143 11.22177635859069 0 -1 0 I I #
straight-curve $-1 76.941863208082225 0 11.221776358590692 0 1 0 I I #
point $-1 76.941863208082225 -28.582173523252685 11.221776358590692 #
End-of-ACIS-data 