500 0 5 0           
7 Unknown 11 ACIS 5.0 NT 24 Fri Mar 26 17:40:09 1999 
-1 9.9999999999999995e-007 1e-010 
body $-1 $5 $-1 $6 #
body $-1 $7 $-1 $8 #
body $-1 $9 $-1 $10 #
body $-1 $11 $-1 $12 #
body $-1 $13 $-1 $14 #
lump $-1 $-1 $15 $0 #
transform $-1 1 0 0 0 1 0 0 0 1 50.282296212652973 34.866606912653907 9.3205685576955286 1 rotate no_reflect no_shear #
lump $-1 $-1 $16 $1 #
transform $-1 1 0 0 0 1 0 0 0 1 50.282296212652973 34.866606912653907 9.3205685576955286 1 rotate no_reflect no_shear #
lump $-1 $-1 $17 $2 #
transform $-1 1 0 0 0 1 0 0 0 1 50.282296212652973 34.866606912653907 9.3205685576955286 1 rotate no_reflect no_shear #
lump $-1 $-1 $18 $3 #
transform $-1 1 0 0 0 1 0 0 0 1 50.282296212652973 34.866606912653907 9.3205685576955286 1 rotate no_reflect no_shear #
lump $-1 $-1 $19 $4 #
transform $-1 1 0 0 0 1 0 0 0 1 50.282296212652973 34.866606912653907 9.3205685576955286 1 rotate no_reflect no_shear #
shell $-1 $-1 $-1 $20 $-1 $5 #
shell $-1 $-1 $-1 $21 $-1 $7 #
shell $-1 $-1 $-1 $22 $-1 $9 #
shell $-1 $-1 $-1 $23 $-1 $11 #
shell $-1 $-1 $-1 $24 $-1 $13 #
face $-1 $25 $26 $15 $-1 $27 forward single #
face $-1 $28 $29 $16 $-1 $30 reversed single #
face $-1 $31 $32 $17 $-1 $33 forward single #
face $-1 $34 $35 $18 $-1 $36 reversed single #
face $-1 $37 $38 $19 $-1 $39 forward single #
face $-1 $40 $41 $15 $-1 $42 reversed single #
loop $-1 $-1 $43 $20 #
plane-surface $-1 0 0 9.3205685576955286 0 0 1 1 0 0 forward_v I I I I #
face $-1 $44 $45 $16 $-1 $46 reversed single #
loop $-1 $-1 $47 $21 #
plane-surface $-1 -117.57314372972809 -9.9171964606443836 79.732140779881661 0 1 0 -0.66913061440640931 0 0.74314481823134659 forward_v I I I I #
face $-1 $48 $49 $17 $-1 $50 forward single #
loop $-1 $51 $52 $22 #
cone-surface $-1 -46.090552956104844 -4.9585982303221918 5.1697298681620527 0.66913061440640931 0 -0.74314481823134659 1.1147172273470198 0 1.003695921609614 1 I I 0 1 1.5 forward I I I I #
face $-1 $53 $54 $18 $-1 $55 reversed single #
loop $-1 $-1 $56 $23 #
plane-surface $-1 -50.28229621265298 -4.9585982303221918 4.9980850214682135 -0.66913061440640931 0 0.74314481823134659 0.74314481823134659 0 0.66913061440640931 forward_v I I I I #
face $-1 $57 $58 $19 $-1 $59 forward single #
loop $-1 $60 $61 $24 #
cone-surface $-1 -46.090552956104844 4.9585982303221954 5.1697298681620527 0.66913061440640931 0 -0.74314481823134659 1.1147172273470198 0 1.003695921609614 1 I I 0 1 1.5 forward I I I I #
face $-1 $62 $63 $15 $-1 $64 reversed single #
loop $-1 $-1 $65 $25 #
plane-surface $-1 0 0 -9.3205685576955286 0 0 1 1 0 0 forward_v I I I I #
coedge $-1 $66 $67 $68 $69 forward $26 $-1 #
face $-1 $70 $71 $16 $-1 $72 reversed single #
loop $-1 $-1 $73 $28 #
plane-surface $-1 -50.28229621265298 -4.9585982303221918 4.9980850214682135 -0.66913061440640931 0 0.74314481823134659 0.74314481823134659 0 0.66913061440640931 forward_v I I I I #
coedge $-1 $74 $75 $76 $77 reversed $29 $-1 #
face $-1 $-1 $78 $17 $-1 $79 forward single #
loop $-1 $80 $81 $31 #
cone-surface $-1 -43.797263841718184 -4.9585982303221918 2.6227743330687279 0.66913061440640931 0 -0.74314481823134659 0.55735861367350992 0 0.50184796080480698 1 I I -0.70710678118654724 0.70710678118654768 0.75 forward I I I I #
loop $-1 $-1 $82 $22 #
coedge $-1 $52 $52 $83 $84 reversed $32 $-1 #
face $-1 $85 $86 $18 $-1 $87 forward single #
loop $-1 $-1 $88 $34 #
plane-surface $-1 -117.57314372972809 9.9171964606443872 79.732140779881661 0 -1 0 0.66913061440640931 0 -0.74314481823134659 forward_v I I I I #
coedge $-1 $89 $90 $91 $92 reversed $35 $-1 #
face $-1 $-1 $93 $19 $-1 $94 forward single #
loop $-1 $95 $96 $37 #
cone-surface $-1 -43.797263841718184 4.9585982303221954 2.6227743330687279 0.66913061440640931 0 -0.74314481823134659 0.55735861367350992 0 0.50184796080480698 1 I I -0.70710678118654724 0.70710678118654768 0.75 forward I I I I #
loop $-1 $-1 $97 $24 #
coedge $-1 $61 $61 $98 $99 reversed $38 $-1 #
face $-1 $100 $101 $15 $-1 $102 reversed single #
loop $-1 $-1 $103 $40 #
plane-surface $-1 0 -34.866606912653907 0 0 1 0 0 0 1 forward_v I I I I #
coedge $-1 $104 $105 $106 $107 forward $41 $-1 #
coedge $-1 $108 $43 $109 $110 forward $26 $-1 #
coedge $-1 $43 $108 $111 $112 forward $26 $-1 #
coedge $-1 $113 $114 $43 $69 reversed $115 $-1 #
edge $-1 $116 -34.866606912653907 $117 34.866606912653907 $68 $118 forward 7 unknown #
face $-1 $119 $120 $16 $-1 $121 reversed single #
loop $-1 $-1 $122 $44 #
plane-surface $-1 -117.57314372972809 0 79.732140779881661 0 -1 0 0.66913061440640931 0 -0.74314481823134659 forward_v I I I I #
coedge $-1 $123 $124 $125 $126 reversed $45 $-1 #
coedge $-1 $75 $47 $127 $128 reversed $29 $-1 #
coedge $-1 $47 $74 $123 $129 reversed $29 $-1 #
coedge $-1 $125 $130 $47 $77 forward $131 $-1 #
edge $-1 $132 8.5042756522110707 $133 13.304879858143607 $76 $134 forward 7 unknown #
loop $-1 $-1 $83 $48 #
plane-surface $-1 -50.28229621265298 -4.9585982303221918 4.9980850214682135 -0.66913061440640931 0 0.74314481823134659 0.74314481823134659 0 0.66913061440640931 forward_v I I I I #
loop $-1 $-1 $135 $31 #
coedge $-1 $81 $81 $82 $136 reversed $49 $-1 #
coedge $-1 $82 $82 $81 $136 forward $51 $-1 #
coedge $-1 $83 $83 $52 $84 forward $78 $-1 #
edge $-1 $137 0 $137 6.2831853071796004 $83 $138 forward 7 unknown #
face $-1 $139 $140 $18 $-1 $141 forward single #
loop $-1 $-1 $142 $53 #
plane-surface $-1 0 0 9.3205685576955286 0 0 1 1 0 0 forward_v I I I I #
coedge $-1 $143 $144 $145 $146 reversed $54 $-1 #
coedge $-1 $147 $56 $148 $149 reversed $35 $-1 #
coedge $-1 $56 $147 $142 $150 reversed $35 $-1 #
coedge $-1 $151 $152 $56 $92 forward $140 $-1 #
edge $-1 $153 9.4405131238556439e-015 $154 6.4598502043757495 $91 $155 forward 7 unknown #
loop $-1 $-1 $98 $57 #
plane-surface $-1 -50.28229621265298 -4.9585982303221918 4.9980850214682135 -0.66913061440640931 0 0.74314481823134659 0.74314481823134659 0 0.66913061440640931 forward_v I I I I #
loop $-1 $-1 $156 $37 #
coedge $-1 $96 $96 $97 $157 reversed $58 $-1 #
coedge $-1 $97 $97 $96 $157 forward $60 $-1 #
coedge $-1 $98 $98 $61 $99 forward $93 $-1 #
edge $-1 $158 0 $158 6.2831853071796004 $98 $159 forward 7 unknown #
face $-1 $160 $161 $15 $-1 $162 reversed single #
loop $-1 $-1 $163 $62 #
plane-surface $-1 -50.282296212652973 0 0 1 0 0 0 0 -1 forward_v I I I I #
coedge $-1 $164 $111 $165 $166 forward $63 $-1 #
coedge $-1 $167 $65 $164 $168 forward $41 $-1 #
coedge $-1 $65 $167 $169 $170 forward $41 $-1 #
coedge $-1 $114 $113 $65 $107 reversed $115 $-1 #
edge $-1 $171 -34.866606912653907 $172 34.866606912653907 $106 $173 forward 7 unknown #
coedge $-1 $67 $66 $174 $175 forward $26 $-1 #
coedge $-1 $176 $177 $66 $110 reversed $161 $-1 #
edge $-1 $117 -50.282296212652973 $178 50.282296212652973 $109 $179 forward 7 unknown #
coedge $-1 $103 $180 $67 $112 reversed $63 $-1 #
edge $-1 $181 -50.282296212652973 $116 50.282296212652973 $111 $182 forward 7 unknown #
coedge $-1 $106 $68 $180 $183 forward $115 $-1 #
coedge $-1 $68 $106 $176 $184 reversed $115 $-1 #
loop $-1 $-1 $113 $160 #
vertex $-1 $69 $185 #
vertex $-1 $69 $186 #
straight-curve $-1 50.282296212652973 0 9.3205685576955286 0 1 0 I I #
face $-1 $-1 $131 $16 $-1 $187 forward single #
loop $-1 $-1 $188 $70 #
plane-surface $-1 -50.282296212652973 0 0 1 0 0 0 0 -1 forward_v I I I I #
coedge $-1 $189 $190 $191 $192 reversed $71 $-1 #
coedge $-1 $193 $73 $75 $129 forward $45 $-1 #
coedge $-1 $73 $193 $189 $194 forward $45 $-1 #
coedge $-1 $191 $76 $73 $126 forward $131 $-1 #
edge $-1 $133 -7.4378973454832877 $195 2.4792991151610959 $125 $196 forward 7 unknown #
coedge $-1 $197 $198 $74 $128 forward $120 $-1 #
edge $-1 $199 -34.86798536847261 $132 -30.5455018322453 $127 $200 forward 7 unknown #
edge $-1 $133 -6.4598502043757495 $199 -9.4405131238556439e-015 $75 $201 forward 7 unknown #
coedge $-1 $76 $191 $197 $202 forward $131 $-1 #
loop $-1 $-1 $191 $119 #
vertex $-1 $128 $203 #
vertex $-1 $77 $204 #
straight-curve $-1 -58.786571864864044 -9.9171964606443836 9.3205685576955304 1 0 0 I I #
coedge $-1 $135 $135 $-1 $205 reversed $80 $-1 #
edge $-1 $206 0 $206 6.2831853071796004 $81 $207 forward 7 unknown #
vertex $-1 $84 $208 #
ellipse-curve $-1 -47.881994109686701 -4.9585982303221918 7.1593267895818737 -0.66913061440640931 0 0.74314481823134659 1.1147172273470198 0 1.003695921609614 1 I I #
face $-1 $-1 $209 $18 $-1 $210 reversed single #
loop $-1 $-1 $151 $85 #
plane-surface $-1 -117.57314372972809 0 79.732140779881661 0 -1 0 0.66913061440640931 0 -0.74314481823134659 forward_v I I I I #
coedge $-1 $145 $211 $90 $150 forward $86 $-1 #
coedge $-1 $144 $88 $147 $212 reversed $54 $-1 #
coedge $-1 $88 $143 $213 $214 reversed $54 $-1 #
coedge $-1 $215 $142 $88 $146 forward $86 $-1 #
edge $-1 $216 -13.304879858143607 $217 -8.5042756522110707 $145 $218 forward 7 unknown #
coedge $-1 $90 $89 $143 $212 forward $35 $-1 #
coedge $-1 $219 $213 $89 $149 forward $209 $-1 #
edge $-1 $220 -12.396495575805483 $153 -2.4792991151610959 $148 $221 forward 7 unknown #
edge $-1 $154 2.4792991151610959 $216 12.396495575805483 $142 $222 forward 7 unknown #
coedge $-1 $152 $91 $211 $223 reversed $140 $-1 #
coedge $-1 $91 $151 $219 $224 reversed $140 $-1 #
vertex $-1 $149 $225 #
vertex $-1 $150 $226 #
straight-curve $-1 -50.28229621265298 0 4.9980850214682135 0.74314481823134659 0 0.66913061440640931 I I #
coedge $-1 $156 $156 $-1 $227 reversed $95 $-1 #
edge $-1 $228 0 $228 6.2831853071796004 $96 $229 forward 7 unknown #
vertex $-1 $99 $230 #
ellipse-curve $-1 -47.881994109686701 4.9585982303221954 7.1593267895818737 -0.66913061440640931 0 0.74314481823134659 1.1147172273470198 0 1.003695921609614 1 I I #
face $-1 $-1 $115 $15 $-1 $231 reversed single #
loop $-1 $-1 $176 $100 #
plane-surface $-1 0 34.866606912653907 0 0 -1 0 0 0 -1 forward_v I I I I #
coedge $-1 $232 $174 $177 $233 forward $101 $-1 #
coedge $-1 $180 $103 $104 $168 reversed $63 $-1 #
coedge $-1 $174 $232 $103 $166 reversed $101 $-1 #
edge $-1 $181 -9.3205685576955286 $234 9.3205685576955286 $165 $235 forward 7 unknown #
coedge $-1 $105 $104 $232 $236 forward $41 $-1 #
edge $-1 $172 -50.282296212652973 $234 50.282296212652973 $164 $237 forward 7 unknown #
coedge $-1 $177 $176 $105 $170 reversed $161 $-1 #
edge $-1 $238 -50.282296212652973 $171 50.282296212652973 $169 $239 forward 7 unknown #
vertex $-1 $107 $240 #
vertex $-1 $183 $241 #
straight-curve $-1 50.282296212652973 0 -9.3205685576955286 0 -1 0 I I #
coedge $-1 $163 $165 $108 $175 reversed $101 $-1 #
edge $-1 $178 -34.866606912653907 $181 34.866606912653907 $174 $242 forward 7 unknown #
coedge $-1 $169 $109 $114 $184 forward $161 $-1 #
coedge $-1 $109 $169 $163 $233 reversed $161 $-1 #
vertex $-1 $110 $243 #
straight-curve $-1 0 34.866606912653907 9.3205685576955286 -1 0 0 I I #
coedge $-1 $111 $164 $113 $183 reversed $63 $-1 #
vertex $-1 $175 $244 #
straight-curve $-1 0 -34.866606912653907 9.3205685576955286 1 0 0 I I #
edge $-1 $116 -9.3205685576955286 $172 9.3205685576955286 $113 $245 forward 7 unknown #
edge $-1 $117 -9.3205685576955286 $171 9.3205685576955286 $114 $246 forward 7 unknown #
point $-1 50.282296212652973 -34.866606912653907 9.3205685576955286 #
point $-1 50.282296212652973 34.866606912653907 9.3205685576955286 #
plane-surface $-1 0 0 9.3205685576955286 0 0 1 1 0 0 forward_v I I I I #
coedge $-1 $198 $197 $190 $247 forward $120 $-1 #
coedge $-1 $190 $122 $124 $194 reversed $71 $-1 #
coedge $-1 $122 $189 $188 $247 reversed $71 $-1 #
coedge $-1 $130 $125 $122 $192 forward $131 $-1 #
edge $-1 $195 -13.304879858143607 $248 -8.5042756522110707 $191 $249 forward 7 unknown #
coedge $-1 $124 $123 $198 $250 reversed $45 $-1 #
edge $-1 $251 9.4405131238556439e-015 $195 6.4598502043757495 $189 $252 forward 7 unknown #
vertex $-1 $126 $253 #
straight-curve $-1 -45.481692006720436 -2.4792991151610959 9.3205685576955268 0 1 0 I I #
coedge $-1 $188 $127 $130 $202 reversed $120 $-1 #
coedge $-1 $127 $188 $193 $250 forward $120 $-1 #
vertex $-1 $128 $254 #
straight-curve $-1 -50.282296212652973 -9.9171964606443836 39.86607038994083 0 0 1 I I #
straight-curve $-1 -50.28229621265298 -9.9171964606443836 4.9980850214682135 -0.74314481823134659 0 -0.66913061440640931 I I #
edge $-1 $248 0 $132 9.9171964606443836 $197 $255 forward 7 unknown #
point $-1 -50.282296212652973 -9.9171964606443836 9.3205685576955286 #
point $-1 -45.481692006720436 -9.9171964606443836 9.3205685576955286 #
edge $-1 $256 1 $256 0 $135 $-1 forward 7 unknown #
vertex $-1 $136 $257 #
ellipse-curve $-1 -44.299111802522994 -4.9585982303221918 3.1801329467422379 -0.66913061440640931 0 0.74314481823134659 1.1147172273470198 0 1.003695921609614 1 I I #
point $-1 -46.767276882339679 -4.9585982303221918 8.1630227111914824 #
loop $-1 $-1 $148 $139 #
plane-surface $-1 -50.282296212652973 0 0 1 0 0 0 0 -1 forward_v I I I I #
coedge $-1 $142 $215 $151 $223 forward $86 $-1 #
edge $-1 $220 9.4405131238556439e-015 $216 6.4598502043757495 $143 $258 forward 7 unknown #
coedge $-1 $148 $259 $144 $214 forward $209 $-1 #
edge $-1 $217 30.5455018322453 $220 34.86798536847261 $213 $260 forward 7 unknown #
coedge $-1 $211 $145 $259 $261 forward $86 $-1 #
vertex $-1 $146 $262 #
vertex $-1 $261 $263 #
straight-curve $-1 -58.786571864864044 9.9171964606443872 9.3205685576955304 -1 0 0 I I #
coedge $-1 $259 $148 $152 $224 forward $209 $-1 #
vertex $-1 $214 $264 #
straight-curve $-1 -50.282296212652973 -2.4792991151610959 4.9980850214682242 0 -1 0 I I #
straight-curve $-1 -45.481692006720436 -2.4792991151610959 9.3205685576955268 0 1 0 I I #
edge $-1 $265 8.5042756522110707 $154 13.304879858143607 $211 $266 forward 7 unknown #
edge $-1 $153 -34.86798536847261 $265 -30.5455018322453 $219 $267 forward 7 unknown #
point $-1 -50.282296212652973 0 4.9980850214682198 #
point $-1 -45.481692006720436 0 9.3205685576955286 #
edge $-1 $268 1 $268 0 $156 $-1 forward 7 unknown #
vertex $-1 $157 $269 #
ellipse-curve $-1 -44.299111802522994 4.9585982303221954 3.1801329467422379 -0.66913061440640931 0 0.74314481823134659 1.1147172273470198 0 1.003695921609614 1 I I #
point $-1 -46.767276882339679 4.9585982303221954 8.1630227111914824 #
plane-surface $-1 50.282296212652973 0 0 -1 0 0 0 0 1 forward_v I I I I #
coedge $-1 $165 $163 $167 $236 reversed $101 $-1 #
edge $-1 $178 -9.3205685576955286 $238 9.3205685576955286 $177 $270 forward 7 unknown #
vertex $-1 $236 $271 #
straight-curve $-1 -50.282296212652973 -34.866606912653907 0 0 0 -1 I I #
edge $-1 $234 -34.866606912653907 $238 34.866606912653907 $232 $272 forward 7 unknown #
straight-curve $-1 0 -34.866606912653907 -9.3205685576955286 -1 0 0 I I #
vertex $-1 $170 $273 #
straight-curve $-1 0 34.866606912653907 -9.3205685576955286 1 0 0 I I #
point $-1 50.282296212652973 34.866606912653907 -9.3205685576955286 #
point $-1 50.282296212652973 -34.866606912653907 -9.3205685576955286 #
straight-curve $-1 -50.282296212652973 0 9.3205685576955286 0 -1 0 I I #
point $-1 -50.282296212652973 34.866606912653907 9.3205685576955286 #
point $-1 -50.282296212652973 -34.866606912653907 9.3205685576955286 #
straight-curve $-1 50.282296212652973 -34.866606912653907 0 0 0 -1 I I #
straight-curve $-1 50.282296212652973 34.866606912653907 0 0 0 -1 I I #
edge $-1 $248 30.5455018322453 $251 34.86798536847261 $188 $274 forward 7 unknown #
vertex $-1 $202 $275 #
straight-curve $-1 -58.786571864864044 0 9.3205685576955304 -1 0 0 I I #
edge $-1 $251 -2.4792991151610959 $199 7.4378973454832877 $198 $276 forward 7 unknown #
vertex $-1 $250 $277 #
straight-curve $-1 -50.28229621265298 0 4.9980850214682135 0.74314481823134659 0 0.66913061440640931 I I #
point $-1 -45.481692006720436 0 9.3205685576955286 #
point $-1 -50.282296212652973 -9.9171964606443836 4.9980850214682198 #
straight-curve $-1 -50.282296212652973 0 9.3205685576955286 0 -1 0 I I #
vertex $-1 $205 $278 #
point $-1 -43.184394575175972 -4.9585982303221918 4.1838288683518519 #
straight-curve $-1 -50.28229621265298 9.9171964606443872 4.9980850214682135 0.74314481823134659 0 0.66913061440640931 I I #
coedge $-1 $213 $219 $215 $261 reversed $209 $-1 #
straight-curve $-1 -50.282296212652973 9.9171964606443872 39.86607038994083 0 0 -1 I I #
edge $-1 $217 -9.9171964606443872 $265 0 $259 $279 forward 7 unknown #
point $-1 -45.481692006720436 9.9171964606443872 9.3205685576955286 #
point $-1 -50.282296212652973 9.9171964606443872 9.3205685576955286 #
point $-1 -50.282296212652973 9.9171964606443872 4.9980850214682198 #
vertex $-1 $224 $280 #
straight-curve $-1 -58.786571864864044 0 9.3205685576955304 1 0 0 I I #
straight-curve $-1 -50.282296212652973 0 39.86607038994083 0 0 1 I I #
vertex $-1 $227 $281 #
point $-1 -43.184394575175972 4.9585982303221954 4.1838288683518519 #
straight-curve $-1 -50.282296212652973 34.866606912653907 0 0 0 -1 I I #
point $-1 -50.282296212652973 -34.866606912653907 -9.3205685576955286 #
straight-curve $-1 -50.282296212652973 0 -9.3205685576955286 0 1 0 I I #
point $-1 -50.282296212652973 34.866606912653907 -9.3205685576955286 #
straight-curve $-1 -50.282296212652973 0 39.86607038994083 0 0 -1 I I #
point $-1 -50.282296212652973 0 9.3205685576955286 #
straight-curve $-1 -50.282296212652973 -2.4792991151610959 4.9980850214682242 0 -1 0 I I #
point $-1 -50.282296212652973 0 4.9980850214682198 #
point $-1 -43.295415880913374 -4.9585982303221918 2.0654157193952178 #
straight-curve $-1 -50.282296212652973 0 9.3205685576955286 0 -1 0 I I #
point $-1 -50.282296212652973 0 9.3205685576955286 #
point $-1 -43.295415880913374 4.9585982303221954 2.0654157193952178 #
End-of-ACIS-data 