500 0 8 0           
7 Unknown 11 ACIS 5.0 NT 24 Fri Mar 26 03:07:24 1999 
-1 9.9999999999999995e-007 1e-010 
body $-1 $8 $-1 $9 #
body $-1 $10 $-1 $11 #
body $-1 $12 $-1 $13 #
body $-1 $14 $-1 $15 #
body $-1 $16 $-1 $17 #
body $-1 $18 $-1 $19 #
body $-1 $20 $-1 $21 #
body $-1 $22 $-1 $23 #
lump $-1 $-1 $24 $0 #
transform $-1 1 0 0 0 1 0 0 0 1 55.640125736259037 36.856425462144109 17.514422635993292 1 rotate no_reflect no_shear #
lump $-1 $-1 $25 $1 #
transform $-1 1 0 0 0 1 0 0 0 1 55.640125736259037 36.856425462144109 17.514422635993292 1 rotate no_reflect no_shear #
lump $-1 $-1 $26 $2 #
transform $-1 1 0 0 0 1 0 0 0 1 55.640125736259037 36.856425462144109 17.514422635993292 1 rotate no_reflect no_shear #
lump $-1 $-1 $27 $3 #
transform $-1 1 0 0 0 1 0 0 0 1 55.640125736259037 36.856425462144109 17.514422635993292 1 rotate no_reflect no_shear #
lump $-1 $-1 $28 $4 #
transform $-1 1 0 0 0 1 0 0 0 1 55.640125736259037 36.856425462144109 17.514422635993292 1 rotate no_reflect no_shear #
lump $-1 $-1 $29 $5 #
transform $-1 1 0 0 0 1 0 0 0 1 55.640125736259037 36.856425462144109 17.514422635993292 1 rotate no_reflect no_shear #
lump $-1 $-1 $30 $6 #
transform $-1 1 0 0 0 1 0 0 0 1 55.640125736259037 36.856425462144109 17.514422635993292 1 rotate no_reflect no_shear #
lump $-1 $-1 $31 $7 #
transform $-1 1 0 0 0 1 0 0 0 1 55.640125736259037 36.856425462144109 17.514422635993292 1 rotate no_reflect no_shear #
shell $-1 $-1 $-1 $32 $-1 $8 #
shell $-1 $-1 $-1 $33 $-1 $10 #
shell $-1 $-1 $-1 $34 $-1 $12 #
shell $-1 $-1 $-1 $35 $-1 $14 #
shell $-1 $-1 $-1 $36 $-1 $16 #
shell $-1 $-1 $-1 $37 $-1 $18 #
shell $-1 $-1 $-1 $38 $-1 $20 #
shell $-1 $-1 $-1 $39 $-1 $22 #
face $-1 $40 $41 $24 $-1 $42 forward single #
face $-1 $43 $44 $25 $-1 $45 forward single #
face $-1 $46 $47 $26 $-1 $48 forward single #
face $-1 $49 $50 $27 $-1 $51 reversed single #
face $-1 $52 $53 $28 $-1 $54 forward single #
face $-1 $55 $56 $29 $-1 $57 reversed single #
face $-1 $58 $59 $30 $-1 $60 forward single #
face $-1 $61 $62 $31 $-1 $63 forward single #
face $-1 $64 $65 $24 $-1 $66 reversed single #
loop $-1 $-1 $67 $32 #
plane-surface $-1 0 0 17.514422635993292 0 0 1 1 0 0 forward_v I I I I #
face $-1 $68 $69 $25 $-1 $70 reversed single #
loop $-1 $-1 $71 $33 #
plane-surface $-1 0 -30.468298109591423 -11.035367693690786 0 0 1 1 0 0 forward_v I I I I #
face $-1 $72 $73 $26 $-1 $74 reversed single #
loop $-1 $-1 $75 $34 #
plane-surface $-1 0 30.468298109591423 -11.035367693690786 0 0 1 1 0 0 forward_v I I I I #
face $-1 $76 $77 $27 $-1 $78 reversed single #
loop $-1 $-1 $79 $35 #
plane-surface $-1 41.924075933072942 -24.080170757038729 167.81991361512655 0 1 0 0.64278761758704617 0 0.76604443648966558 forward_v I I I I #
face $-1 $80 $81 $28 $-1 $82 forward single #
loop $-1 $83 $84 $36 #
cone-surface $-1 50.911169031372644 -20.521467243799748 13.238202059411272 -0.64278761758704617 0 -0.76604443648966558 1.1490666547344983 0 -0.96418142638056925 1 I I 0 1 1.5 forward I I I I #
face $-1 $85 $86 $29 $-1 $87 reversed single #
loop $-1 $-1 $88 $37 #
plane-surface $-1 -119.46785663471979 -17.690341632895979 103.57068699911008 0 -1 0 0.57357644374324357 0 -0.81915203911291934 forward_v I I I I #
face $-1 $89 $90 $30 $-1 $91 forward single #
loop $-1 $92 $93 $38 #
cone-surface $-1 -51.712145319646204 -22.254505292997948 14.555256344639412 0.57357644374324357 0 -0.81915203911291934 0.40957601955645967 0 0.28678822187162178 1 I I 0 1 0.5 forward I I I I #
face $-1 $94 $95 $31 $-1 $96 forward single #
loop $-1 $97 $98 $39 #
cone-surface $-1 -51.712145319646204 -19.516007096936768 14.555256344639412 0.57357644374324357 0 -0.81915203911291934 0.40957601955645967 0 0.28678822187162178 1 I I 0 1 0.5 forward I I I I #
face $-1 $99 $100 $24 $-1 $101 reversed single #
loop $-1 $-1 $102 $40 #
plane-surface $-1 0 0 -17.514422635993292 0 0 1 1 0 0 forward_v I I I I #
coedge $-1 $103 $104 $105 $106 forward $41 $-1 #
face $-1 $107 $108 $25 $-1 $109 reversed single #
loop $-1 $-1 $110 $43 #
plane-surface $-1 0 -30.468298109591423 -15.582265108630834 0 0 1 1 0 0 forward_v I I I I #
coedge $-1 $111 $112 $113 $114 reversed $44 $-1 #
face $-1 $115 $116 $26 $-1 $117 reversed single #
loop $-1 $-1 $118 $46 #
plane-surface $-1 0 30.468298109591423 -15.582265108630834 0 0 1 1 0 0 forward_v I I I I #
coedge $-1 $119 $120 $121 $122 reversed $47 $-1 #
face $-1 $123 $124 $27 $-1 $125 reversed single #
loop $-1 $-1 $126 $49 #
plane-surface $-1 -29.605491795434332 -20.521467243799748 82.574296083433168 0.64278761758704617 0 0.76604443648966558 0.76604443648966558 0 -0.64278761758704617 forward_v I I I I #
coedge $-1 $127 $128 $129 $130 reversed $50 $-1 #
face $-1 $-1 $131 $28 $-1 $132 forward single #
loop $-1 $133 $134 $52 #
cone-surface $-1 49.555262233774343 -20.521467243799748 11.622295295995691 -0.64278761758704617 0 -0.76604443648966558 0.57453332736724916 0 -0.48209071319028463 1 I I -0.70710678118654757 0.70710678118654757 0.75 forward I I I I #
loop $-1 $-1 $135 $36 #
coedge $-1 $84 $84 $136 $137 reversed $53 $-1 #
face $-1 $138 $139 $29 $-1 $140 reversed single #
loop $-1 $-1 $141 $55 #
plane-surface $-1 -55.640125736259037 -20.885256194967354 12.415242092398458 -0.57357644374324357 0 0.81915203911291934 0.81915203911291934 0 0.57357644374324357 forward_v I I I I #
coedge $-1 $142 $143 $144 $145 reversed $56 $-1 #
face $-1 $-1 $146 $30 $-1 $147 forward single #
loop $-1 $148 $149 $58 #
cone-surface $-1 -51.281962986838771 -22.254505292997948 13.940892315304723 0.57357644374324357 0 -0.81915203911291934 0.20478800977822983 0 0.14339411093581089 1 I I -0.70710678118654746 0.70710678118654746 0.25 forward I I I I #
loop $-1 $-1 $150 $38 #
coedge $-1 $93 $93 $151 $152 reversed $59 $-1 #
face $-1 $-1 $153 $31 $-1 $154 forward single #
loop $-1 $155 $156 $61 #
cone-surface $-1 -51.281962986838771 -19.516007096936768 13.940892315304723 0.57357644374324357 0 -0.81915203911291934 0.20478800977822983 0 0.14339411093581089 1 I I -0.70710678118654746 0.70710678118654746 0.25 forward I I I I #
loop $-1 $-1 $157 $39 #
coedge $-1 $98 $98 $158 $159 reversed $62 $-1 #
face $-1 $160 $161 $24 $-1 $162 reversed single #
loop $-1 $-1 $163 $64 #
plane-surface $-1 0 -36.856425462144109 0 0 1 0 0 0 1 forward_v I I I I #
coedge $-1 $164 $165 $166 $167 forward $65 $-1 #
coedge $-1 $168 $67 $169 $170 forward $41 $-1 #
coedge $-1 $67 $168 $171 $172 forward $41 $-1 #
coedge $-1 $173 $174 $67 $106 reversed $175 $-1 #
edge $-1 $176 -36.856425462144109 $177 36.856425462144109 $105 $178 forward 7 unknown #
face $-1 $179 $180 $25 $-1 $181 reversed single #
loop $-1 $-1 $182 $68 #
plane-surface $-1 0 -24.080170757038736 -13.30881640116081 0 -1 0 0 0 -1 forward_v I I I I #
coedge $-1 $183 $184 $185 $186 reversed $69 $-1 #
coedge $-1 $187 $71 $188 $189 forward $44 $-1 #
coedge $-1 $71 $187 $190 $191 reversed $44 $-1 #
coedge $-1 $192 $193 $71 $114 forward $194 $-1 #
edge $-1 $195 8.846021702243025 $196 21.622276407348398 $113 $197 forward 7 unknown #
face $-1 $198 $199 $26 $-1 $200 reversed single #
loop $-1 $-1 $201 $72 #
plane-surface $-1 0 24.080170757038736 -13.30881640116081 0 1 0 0 0 1 forward_v I I I I #
coedge $-1 $202 $203 $204 $205 reversed $73 $-1 #
coedge $-1 $206 $75 $207 $208 reversed $47 $-1 #
coedge $-1 $75 $206 $209 $210 forward $47 $-1 #
coedge $-1 $211 $212 $75 $122 forward $199 $-1 #
edge $-1 $213 -21.622276407348398 $214 -8.846021702243025 $121 $215 forward 7 unknown #
face $-1 $216 $217 $27 $-1 $218 forward single #
loop $-1 $-1 $219 $76 #
plane-surface $-1 41.924075933072942 -16.962763730560766 167.81991361512655 0 -1 0 -0.64278761758704617 0 -0.76604443648966558 forward_v I I I I #
coedge $-1 $220 $221 $222 $223 reversed $77 $-1 #
coedge $-1 $128 $79 $224 $225 reversed $50 $-1 #
coedge $-1 $79 $127 $220 $226 reversed $50 $-1 #
coedge $-1 $222 $227 $79 $130 forward $228 $-1 #
edge $-1 $229 66.395534171569977 $230 72.865228452637368 $129 $231 forward 7 unknown #
loop $-1 $-1 $136 $80 #
plane-surface $-1 -29.605491795434332 -20.521467243799748 82.574296083433168 0.64278761758704617 0 0.76604443648966558 0.76604443648966558 0 -0.64278761758704617 forward_v I I I I #
loop $-1 $-1 $232 $52 #
coedge $-1 $134 $134 $135 $233 reversed $81 $-1 #
coedge $-1 $135 $135 $134 $233 forward $83 $-1 #
coedge $-1 $136 $136 $84 $137 forward $131 $-1 #
edge $-1 $234 0 $234 6.2831853071796004 $136 $235 forward 7 unknown #
face $-1 $236 $237 $29 $-1 $238 reversed single #
loop $-1 $-1 $239 $85 #
plane-surface $-1 -119.46785663471979 -24.080170757038729 103.57068699911008 0 1 0 -0.57357644374324357 0 0.81915203911291934 forward_v I I I I #
coedge $-1 $240 $241 $242 $243 reversed $86 $-1 #
coedge $-1 $143 $88 $244 $245 reversed $56 $-1 #
coedge $-1 $88 $142 $240 $246 reversed $56 $-1 #
coedge $-1 $242 $247 $88 $145 forward $237 $-1 #
edge $-1 $248 34.270920863561749 $249 39.370101407156582 $144 $250 forward 7 unknown #
loop $-1 $-1 $151 $89 #
plane-surface $-1 -55.640125736259037 -20.885256194967354 12.415242092398458 -0.57357644374324357 0 0.81915203911291934 0.81915203911291934 0 0.57357644374324357 forward_v I I I I #
loop $-1 $-1 $251 $58 #
coedge $-1 $149 $149 $150 $252 reversed $90 $-1 #
coedge $-1 $150 $150 $149 $252 forward $92 $-1 #
coedge $-1 $151 $151 $93 $152 forward $146 $-1 #
edge $-1 $253 0 $253 6.2831853071796004 $151 $254 forward 7 unknown #
loop $-1 $-1 $158 $94 #
plane-surface $-1 -55.640125736259037 -20.885256194967354 12.415242092398458 -0.57357644374324357 0 0.81915203911291934 0.81915203911291934 0 0.57357644374324357 forward_v I I I I #
loop $-1 $-1 $255 $61 #
coedge $-1 $156 $156 $157 $256 reversed $95 $-1 #
coedge $-1 $157 $157 $156 $256 forward $97 $-1 #
coedge $-1 $158 $158 $98 $159 forward $153 $-1 #
edge $-1 $257 0 $257 6.2831853071796004 $158 $258 forward 7 unknown #
face $-1 $259 $260 $24 $-1 $261 reversed single #
loop $-1 $-1 $262 $99 #
plane-surface $-1 -55.640125736259037 0 0 1 0 0 0 0 -1 forward_v I I I I #
coedge $-1 $263 $171 $264 $265 forward $100 $-1 #
coedge $-1 $266 $102 $263 $267 forward $65 $-1 #
coedge $-1 $102 $266 $268 $269 forward $65 $-1 #
coedge $-1 $174 $173 $102 $167 reversed $175 $-1 #
edge $-1 $270 -36.856425462144109 $271 36.856425462144109 $166 $272 forward 7 unknown #
coedge $-1 $104 $103 $273 $274 forward $41 $-1 #
coedge $-1 $275 $276 $103 $170 reversed $260 $-1 #
edge $-1 $177 -55.640125736259037 $277 55.640125736259037 $169 $278 forward 7 unknown #
coedge $-1 $163 $279 $104 $172 reversed $100 $-1 #
edge $-1 $280 -55.640125736259037 $176 55.640125736259037 $171 $281 forward 7 unknown #
coedge $-1 $166 $105 $279 $282 forward $175 $-1 #
coedge $-1 $105 $166 $275 $283 reversed $175 $-1 #
loop $-1 $-1 $173 $259 #
vertex $-1 $106 $284 #
vertex $-1 $106 $285 #
straight-curve $-1 55.640125736259037 0 17.514422635993292 0 1 0 I I #
face $-1 $286 $287 $25 $-1 $288 reversed single #
loop $-1 $-1 $289 $107 #
plane-surface $-1 -55.640125736259037 0 0 1 0 0 0 0 -1 forward_v I I I I #
coedge $-1 $290 $188 $193 $291 reversed $108 $-1 #
coedge $-1 $292 $110 $293 $294 reversed $69 $-1 #
coedge $-1 $110 $292 $290 $295 forward $69 $-1 #
coedge $-1 $193 $192 $110 $186 forward $194 $-1 #
edge $-1 $296 -21.622276407348398 $297 -8.846021702243025 $185 $298 forward 7 unknown #
coedge $-1 $112 $111 $289 $299 reversed $44 $-1 #
coedge $-1 $182 $300 $111 $189 reversed $108 $-1 #
edge $-1 $195 -55.640125736259037 $301 55.640125736259037 $188 $302 forward 7 unknown #
coedge $-1 $303 $304 $112 $191 forward $287 $-1 #
edge $-1 $196 -55.640125736259037 $305 55.640125736259037 $190 $306 forward 7 unknown #
coedge $-1 $185 $113 $304 $307 forward $194 $-1 #
coedge $-1 $113 $185 $182 $291 forward $194 $-1 #
loop $-1 $-1 $113 $286 #
vertex $-1 $114 $308 #
vertex $-1 $307 $309 #
straight-curve $-1 55.640125736259037 -15.234149054795711 -11.035367693690786 0 -1 0 I I #
face $-1 $310 $311 $26 $-1 $312 reversed single #
loop $-1 $-1 $121 $115 #
plane-surface $-1 55.640125736259037 0 0 -1 0 0 0 0 1 forward_v I I I I #
coedge $-1 $313 $209 $314 $315 reversed $116 $-1 #
coedge $-1 $316 $118 $313 $317 forward $73 $-1 #
coedge $-1 $118 $316 $318 $319 reversed $73 $-1 #
coedge $-1 $212 $211 $118 $205 forward $199 $-1 #
edge $-1 $320 8.846021702243025 $321 21.622276407348398 $204 $322 forward 7 unknown #
coedge $-1 $120 $119 $323 $324 reversed $47 $-1 #
coedge $-1 $325 $326 $119 $208 forward $327 $-1 #
edge $-1 $328 -55.640125736259037 $213 55.640125736259037 $207 $329 forward 7 unknown #
coedge $-1 $201 $330 $120 $210 reversed $116 $-1 #
edge $-1 $331 -55.640125736259037 $214 55.640125736259037 $209 $332 forward 7 unknown #
coedge $-1 $204 $121 $330 $333 forward $199 $-1 #
coedge $-1 $121 $204 $325 $334 reversed $199 $-1 #
vertex $-1 $334 $335 #
vertex $-1 $122 $336 #
straight-curve $-1 55.640125736259037 15.234149054795711 -11.035367693690786 0 -1 0 I I #
face $-1 $-1 $228 $27 $-1 $337 reversed single #
loop $-1 $-1 $338 $123 #
plane-surface $-1 0 0 17.514422635993292 0 0 1 1 0 0 forward_v I I I I #
coedge $-1 $339 $340 $341 $342 reversed $124 $-1 #
coedge $-1 $343 $126 $128 $226 forward $77 $-1 #
coedge $-1 $126 $343 $339 $344 forward $77 $-1 #
coedge $-1 $341 $129 $126 $223 forward $228 $-1 #
edge $-1 $230 -13.819437135138855 $345 -6.7020301086608924 $222 $346 forward 7 unknown #
coedge $-1 $347 $348 $127 $225 forward $217 $-1 #
edge $-1 $349 26.967806528765834 $229 34.678087769722566 $224 $350 forward 7 unknown #
edge $-1 $230 -111.28025147251805 $349 -101.21519405066867 $128 $351 forward 7 unknown #
coedge $-1 $129 $341 $347 $352 reversed $228 $-1 #
loop $-1 $-1 $341 $216 #
vertex $-1 $352 $353 #
vertex $-1 $130 $354 #
straight-curve $-1 55.640125736259037 -24.080170757038729 83.909956807563276 0 0 -1 I I #
coedge $-1 $232 $232 $-1 $355 reversed $133 $-1 #
edge $-1 $356 0 $356 6.2831853071796004 $134 $357 forward 7 unknown #
vertex $-1 $137 $358 #
ellipse-curve $-1 51.784985115780657 -20.521467243799748 14.279575495459605 0.64278761758704617 0 0.76604443648966558 1.1490666547344983 0 -0.96418142638056925 1 I I #
face $-1 $-1 $359 $29 $-1 $360 forward single #
loop $-1 $-1 $144 $138 #
plane-surface $-1 -55.640125736259037 0 0 1 0 0 0 0 -1 forward_v I I I I #
coedge $-1 $361 $362 $363 $364 reversed $139 $-1 #
coedge $-1 $365 $141 $143 $246 forward $86 $-1 #
coedge $-1 $141 $365 $361 $366 forward $86 $-1 #
coedge $-1 $363 $144 $141 $243 forward $237 $-1 #
edge $-1 $249 7.2477135354123021 $367 13.637542659555052 $242 $368 forward 7 unknown #
coedge $-1 $369 $370 $142 $245 forward $359 $-1 #
edge $-1 $371 -11.376186970583269 $248 -4.09380258110086 $244 $372 forward 7 unknown #
edge $-1 $249 0 $371 8.8901498644484729 $143 $373 forward 7 unknown #
coedge $-1 $144 $363 $369 $374 reversed $237 $-1 #
vertex $-1 $374 $375 #
vertex $-1 $145 $376 #
straight-curve $-1 -55.640125736259037 -17.690341632895979 51.78534349955504 0 0 -1 I I #
coedge $-1 $251 $251 $-1 $377 reversed $148 $-1 #
edge $-1 $378 0 $378 6.2831853071796004 $149 $379 forward 7 unknown #
vertex $-1 $152 $380 #
ellipse-curve $-1 -51.998933541517829 -22.254505292997948 14.964832364195876 -0.57357644374324357 0 0.81915203911291934 0.40957601955645967 0 0.28678822187162178 1 I I #
coedge $-1 $255 $255 $-1 $381 reversed $155 $-1 #
edge $-1 $382 0 $382 6.2831853071796004 $156 $383 forward 7 unknown #
vertex $-1 $159 $384 #
ellipse-curve $-1 -51.998933541517829 -19.516007096936768 14.964832364195876 -0.57357644374324357 0 0.81915203911291934 0.40957601955645967 0 0.28678822187162178 1 I I #
face $-1 $-1 $175 $24 $-1 $385 reversed single #
loop $-1 $-1 $275 $160 #
plane-surface $-1 0 36.856425462144109 0 0 -1 0 0 0 -1 forward_v I I I I #
coedge $-1 $386 $273 $276 $387 forward $161 $-1 #
coedge $-1 $279 $163 $164 $267 reversed $100 $-1 #
coedge $-1 $273 $386 $163 $265 reversed $161 $-1 #
edge $-1 $280 -17.514422635993292 $388 17.514422635993292 $264 $389 forward 7 unknown #
coedge $-1 $165 $164 $386 $390 forward $65 $-1 #
edge $-1 $271 -55.640125736259037 $388 55.640125736259037 $263 $391 forward 7 unknown #
coedge $-1 $276 $275 $165 $269 reversed $260 $-1 #
edge $-1 $392 -55.640125736259037 $270 55.640125736259037 $268 $393 forward 7 unknown #
vertex $-1 $167 $394 #
vertex $-1 $282 $395 #
straight-curve $-1 55.640125736259037 0 -17.514422635993292 0 -1 0 I I #
coedge $-1 $262 $264 $168 $274 reversed $161 $-1 #
edge $-1 $277 -36.856425462144109 $280 36.856425462144109 $273 $396 forward 7 unknown #
coedge $-1 $268 $169 $174 $283 forward $260 $-1 #
coedge $-1 $169 $268 $262 $387 reversed $260 $-1 #
vertex $-1 $170 $397 #
straight-curve $-1 0 36.856425462144109 17.514422635993292 -1 0 0 I I #
coedge $-1 $171 $263 $173 $282 reversed $100 $-1 #
vertex $-1 $274 $398 #
straight-curve $-1 0 -36.856425462144109 17.514422635993292 1 0 0 I I #
edge $-1 $176 -17.514422635993292 $271 17.514422635993292 $173 $399 forward 7 unknown #
edge $-1 $177 -17.514422635993292 $270 17.514422635993292 $174 $400 forward 7 unknown #
point $-1 55.640125736259037 -36.856425462144109 17.514422635993292 #
point $-1 55.640125736259037 36.856425462144109 17.514422635993292 #
face $-1 $-1 $194 $25 $-1 $401 reversed single #
loop $-1 $-1 $190 $179 #
plane-surface $-1 0 -36.856425462144109 0 0 1 0 0 0 1 forward_v I I I I #
coedge $-1 $402 $403 $187 $299 forward $180 $-1 #
coedge $-1 $300 $182 $184 $295 reversed $108 $-1 #
edge $-1 $297 -8.9278569080504298 $195 -4.3809594931103808 $193 $404 forward 7 unknown #
coedge $-1 $184 $183 $405 $406 reversed $69 $-1 #
coedge $-1 $304 $303 $183 $294 forward $287 $-1 #
edge $-1 $407 -55.640125736259037 $296 55.640125736259037 $293 $408 forward 7 unknown #
edge $-1 $409 -55.640125736259037 $297 55.640125736259037 $290 $410 forward 7 unknown #
vertex $-1 $294 $411 #
vertex $-1 $186 $412 #
straight-curve $-1 55.640125736259037 -15.234149054795711 -15.582265108630834 0 1 0 I I #
edge $-1 $305 -21.622276407348398 $301 -8.846021702243025 $289 $413 forward 7 unknown #
coedge $-1 $188 $290 $402 $414 reversed $108 $-1 #
vertex $-1 $299 $415 #
straight-curve $-1 0 -24.080170757038736 -11.035367693690786 -1 0 0 I I #
coedge $-1 $293 $190 $403 $416 forward $287 $-1 #
coedge $-1 $190 $293 $192 $307 reversed $287 $-1 #
vertex $-1 $416 $417 #
straight-curve $-1 0 -36.856425462144109 -11.035367693690786 -1 0 0 I I #
edge $-1 $196 11.035367693690786 $296 15.582265108630834 $192 $418 forward 7 unknown #
point $-1 55.640125736259037 -24.080170757038736 -11.035367693690786 #
point $-1 55.640125736259037 -36.856425462144109 -11.035367693690786 #
face $-1 $-1 $327 $26 $-1 $419 reversed single #
loop $-1 $-1 $323 $198 #
plane-surface $-1 -55.640125736259037 0 0 1 0 0 0 0 -1 forward_v I I I I #
coedge $-1 $330 $201 $202 $317 reversed $116 $-1 #
coedge $-1 $323 $420 $201 $315 forward $311 $-1 #
edge $-1 $421 -8.9278569080504298 $331 -4.3809594931103808 $314 $422 forward 7 unknown #
coedge $-1 $203 $202 $420 $423 reversed $73 $-1 #
edge $-1 $320 -55.640125736259037 $421 55.640125736259037 $313 $424 forward 7 unknown #
coedge $-1 $326 $325 $203 $319 forward $327 $-1 #
edge $-1 $321 -55.640125736259037 $425 55.640125736259037 $318 $426 forward 7 unknown #
vertex $-1 $205 $427 #
vertex $-1 $319 $428 #
straight-curve $-1 55.640125736259037 15.234149054795711 -15.582265108630834 0 1 0 I I #
coedge $-1 $429 $314 $206 $324 forward $311 $-1 #
edge $-1 $331 8.846021702243025 $328 21.622276407348398 $323 $430 forward 7 unknown #
coedge $-1 $318 $207 $212 $334 forward $327 $-1 #
coedge $-1 $207 $318 $429 $431 reversed $327 $-1 #
loop $-1 $-1 $207 $310 #
vertex $-1 $431 $432 #
straight-curve $-1 0 36.856425462144109 -11.035367693690786 1 0 0 I I #
coedge $-1 $209 $313 $211 $333 reversed $116 $-1 #
vertex $-1 $324 $433 #
straight-curve $-1 0 24.080170757038736 -11.035367693690786 1 0 0 I I #
edge $-1 $214 4.3809594931103808 $320 8.9278569080504298 $211 $434 forward 7 unknown #
edge $-1 $213 11.035367693690786 $321 15.582265108630834 $212 $435 forward 7 unknown #
point $-1 55.640125736259037 36.856425462144109 -11.035367693690786 #
point $-1 55.640125736259037 24.080170757038736 -11.035367693690786 #
plane-surface $-1 55.640125736259037 0 0 -1 0 0 0 0 1 forward_v I I I I #
coedge $-1 $348 $347 $340 $436 forward $217 $-1 #
coedge $-1 $340 $219 $221 $344 reversed $124 $-1 #
coedge $-1 $219 $339 $338 $436 reversed $124 $-1 #
coedge $-1 $227 $222 $219 $342 forward $228 $-1 #
edge $-1 $345 -72.865228452637368 $437 -66.395534171569977 $341 $438 forward 7 unknown #
coedge $-1 $221 $220 $348 $439 reversed $77 $-1 #
edge $-1 $440 101.21519405066867 $345 111.28025147251805 $339 $441 forward 7 unknown #
vertex $-1 $223 $442 #
straight-curve $-1 55.64012573625903 -10.260733621899874 11.044728354925908 0 1 0 I I #
coedge $-1 $338 $224 $227 $352 forward $217 $-1 #
coedge $-1 $224 $338 $343 $439 forward $217 $-1 #
vertex $-1 $225 $443 #
straight-curve $-1 20.962037966536471 -24.080170757038729 17.514422635993299 1 0 0 I I #
straight-curve $-1 -29.605491795434332 -24.080170757038729 82.574296083433168 -0.76604443648966558 0 0.64278761758704617 I I #
edge $-1 $229 -24.080170757038729 $437 -16.962763730560766 $227 $444 forward 7 unknown #
point $-1 55.640125736259037 -24.080170757038729 17.514422635993292 #
point $-1 55.640125736259037 -24.080170757038729 11.044728354925908 #
edge $-1 $445 1 $445 0 $232 $-1 forward 7 unknown #
vertex $-1 $233 $446 #
ellipse-curve $-1 50.037352946964624 -20.521467243799748 12.19682862336294 0.64278761758704617 0 0.76604443648966558 1.1490666547344983 0 -0.96418142638056925 1 I I #
point $-1 52.934051770515154 -20.521467243799748 13.315394069079034 #
loop $-1 $-1 $244 $236 #
plane-surface $-1 0 0 17.514422635993292 0 0 1 1 0 0 forward_v I I I I #
coedge $-1 $362 $239 $241 $366 reversed $139 $-1 #
coedge $-1 $239 $361 $447 $448 reversed $139 $-1 #
coedge $-1 $247 $242 $239 $364 forward $237 $-1 #
edge $-1 $367 -39.370101407156582 $449 -34.270920863561749 $363 $450 forward 7 unknown #
coedge $-1 $241 $240 $370 $451 reversed $86 $-1 #
edge $-1 $452 -8.8901498644484729 $367 0 $361 $453 forward 7 unknown #
vertex $-1 $243 $454 #
straight-curve $-1 -55.640125736259037 -10.442628097483677 12.415242092398458 0 -1 0 I I #
coedge $-1 $447 $244 $247 $374 forward $359 $-1 #
coedge $-1 $244 $447 $365 $451 forward $359 $-1 #
vertex $-1 $245 $455 #
straight-curve $-1 -59.733928317359897 -17.690341632895979 17.514422635993292 -1 0 0 I I #
straight-curve $-1 -55.640125736259037 -17.690341632895979 12.415242092398458 0.81915203911291934 0 0.57357644374324357 I I #
edge $-1 $248 17.690341632895979 $449 24.080170757038729 $247 $456 forward 7 unknown #
point $-1 -55.640125736259037 -17.690341632895979 17.514422635993292 #
point $-1 -55.640125736259037 -17.690341632895979 12.415242092398458 #
edge $-1 $457 1 $457 0 $251 $-1 forward 7 unknown #
vertex $-1 $252 $458 #
ellipse-curve $-1 -51.42535709777458 -22.254505292997948 14.145680325082953 -0.57357644374324357 0 0.81915203911291934 0.40957601955645967 0 0.28678822187162178 1 I I #
point $-1 -51.589357521961368 -22.254505292997948 15.251620586067494 #
edge $-1 $459 1 $459 0 $255 $-1 forward 7 unknown #
vertex $-1 $256 $460 #
ellipse-curve $-1 -51.42535709777458 -19.516007096936768 14.145680325082953 -0.57357644374324357 0 0.81915203911291934 0.40957601955645967 0 0.28678822187162178 1 I I #
point $-1 -51.589357521961368 -19.516007096936768 15.251620586067494 #
plane-surface $-1 55.640125736259037 0 0 -1 0 0 0 0 1 forward_v I I I I #
coedge $-1 $264 $262 $266 $390 reversed $161 $-1 #
edge $-1 $277 -17.514422635993292 $392 17.514422635993292 $276 $461 forward 7 unknown #
vertex $-1 $390 $462 #
straight-curve $-1 -55.640125736259037 -36.856425462144109 0 0 0 -1 I I #
edge $-1 $388 -36.856425462144109 $392 36.856425462144109 $386 $463 forward 7 unknown #
straight-curve $-1 0 -36.856425462144109 -17.514422635993292 -1 0 0 I I #
vertex $-1 $269 $464 #
straight-curve $-1 0 36.856425462144109 -17.514422635993292 1 0 0 I I #
point $-1 55.640125736259037 36.856425462144109 -17.514422635993292 #
point $-1 55.640125736259037 -36.856425462144109 -17.514422635993292 #
straight-curve $-1 -55.640125736259037 0 17.514422635993292 0 -1 0 I I #
point $-1 -55.640125736259037 36.856425462144109 17.514422635993292 #
point $-1 -55.640125736259037 -36.856425462144109 17.514422635993292 #
straight-curve $-1 55.640125736259037 -36.856425462144109 0 0 0 -1 I I #
straight-curve $-1 55.640125736259037 36.856425462144109 0 0 0 -1 I I #
plane-surface $-1 55.640125736259037 0 0 -1 0 0 0 0 1 forward_v I I I I #
coedge $-1 $405 $289 $300 $414 forward $180 $-1 #
coedge $-1 $289 $405 $303 $416 reversed $180 $-1 #
straight-curve $-1 55.640125736259037 -24.080170757038736 -6.6544082005804048 0 0 1 I I #
coedge $-1 $403 $402 $292 $406 forward $180 $-1 #
edge $-1 $409 8.846021702243025 $407 21.622276407348398 $405 $465 forward 7 unknown #
vertex $-1 $294 $466 #
straight-curve $-1 0 -36.856425462144109 -15.582265108630834 1 0 0 I I #
vertex $-1 $406 $467 #
straight-curve $-1 0 -24.080170757038736 -15.582265108630834 1 0 0 I I #
point $-1 55.640125736259037 -36.856425462144109 -15.582265108630834 #
point $-1 55.640125736259037 -24.080170757038736 -15.582265108630834 #
straight-curve $-1 -55.640125736259037 -15.234149054795711 -11.035367693690786 0 1 0 I I #
edge $-1 $301 4.3809594931103808 $409 8.9278569080504298 $402 $468 forward 7 unknown #
point $-1 -55.640125736259037 -24.080170757038736 -11.035367693690786 #
edge $-1 $305 11.035367693690786 $407 15.582265108630834 $403 $469 forward 7 unknown #
point $-1 -55.640125736259037 -36.856425462144109 -11.035367693690786 #
straight-curve $-1 55.640125736259037 -36.856425462144109 0 0 0 -1 I I #
plane-surface $-1 0 36.856425462144109 0 0 -1 0 0 0 -1 forward_v I I I I #
coedge $-1 $314 $429 $316 $423 forward $311 $-1 #
vertex $-1 $423 $470 #
straight-curve $-1 -55.640125736259037 24.080170757038736 -6.6544082005804048 0 0 1 I I #
edge $-1 $425 -21.622276407348398 $421 -8.846021702243025 $420 $471 forward 7 unknown #
straight-curve $-1 0 24.080170757038736 -15.582265108630834 -1 0 0 I I #
vertex $-1 $319 $472 #
straight-curve $-1 0 36.856425462144109 -15.582265108630834 -1 0 0 I I #
point $-1 55.640125736259037 24.080170757038736 -15.582265108630834 #
point $-1 55.640125736259037 36.856425462144109 -15.582265108630834 #
coedge $-1 $420 $323 $326 $431 forward $311 $-1 #
straight-curve $-1 -55.640125736259037 15.234149054795711 -11.035367693690786 0 1 0 I I #
edge $-1 $328 11.035367693690786 $425 15.582265108630834 $326 $473 forward 7 unknown #
point $-1 -55.640125736259037 36.856425462144109 -11.035367693690786 #
point $-1 -55.640125736259037 24.080170757038736 -11.035367693690786 #
straight-curve $-1 55.640125736259037 24.080170757038736 -6.6544082005804048 0 0 -1 I I #
straight-curve $-1 55.640125736259037 36.856425462144109 0 0 0 -1 I I #
edge $-1 $437 -34.678087769722566 $440 -26.967806528765834 $338 $474 forward 7 unknown #
vertex $-1 $436 $475 #
straight-curve $-1 55.640125736259037 -16.962763730560766 83.909956807563276 0 0 1 I I #
edge $-1 $440 6.7020301086608924 $349 13.819437135138855 $348 $476 forward 7 unknown #
vertex $-1 $439 $477 #
straight-curve $-1 -29.605491795434332 -16.962763730560766 82.574296083433168 0.76604443648966558 0 -0.64278761758704617 I I #
point $-1 55.640125736259037 -16.962763730560766 11.044728354925908 #
point $-1 47.929844495302305 -24.080170757038729 17.514422635993284 #
straight-curve $-1 55.640125736259037 0 17.514422635993292 0 1 0 I I #
vertex $-1 $355 $478 #
point $-1 51.186419601699129 -20.521467243799748 11.232647196982372 #
coedge $-1 $370 $369 $362 $448 forward $359 $-1 #
edge $-1 $449 4.09380258110086 $452 11.376186970583269 $447 $479 forward 7 unknown #
vertex $-1 $448 $480 #
straight-curve $-1 -55.640125736259037 -24.080170757038729 51.78534349955504 0 0 1 I I #
edge $-1 $452 -13.637542659555052 $371 -7.2477135354123021 $370 $481 forward 7 unknown #
vertex $-1 $451 $482 #
straight-curve $-1 -55.640125736259037 -24.080170757038729 12.415242092398458 -0.81915203911291934 0 -0.57357644374324357 I I #
point $-1 -55.640125736259037 -24.080170757038729 12.415242092398458 #
point $-1 -48.357741346776628 -17.690341632895979 17.514422635993292 #
straight-curve $-1 -55.640125736259037 0 17.514422635993292 0 -1 0 I I #
vertex $-1 $377 $483 #
point $-1 -51.015781078218119 -22.254505292997948 14.432468546954574 #
vertex $-1 $381 $484 #
point $-1 -51.015781078218119 -19.516007096936768 14.432468546954574 #
straight-curve $-1 -55.640125736259037 36.856425462144109 0 0 0 -1 I I #
point $-1 -55.640125736259037 -36.856425462144109 -17.514422635993292 #
straight-curve $-1 -55.640125736259037 0 -17.514422635993292 0 1 0 I I #
point $-1 -55.640125736259037 36.856425462144109 -17.514422635993292 #
straight-curve $-1 -55.640125736259037 -15.234149054795711 -15.582265108630834 0 -1 0 I I #
point $-1 -55.640125736259037 -36.856425462144109 -15.582265108630834 #
point $-1 -55.640125736259037 -24.080170757038736 -15.582265108630834 #
straight-curve $-1 -55.640125736259037 -24.080170757038736 -6.6544082005804048 0 0 -1 I I #
straight-curve $-1 -55.640125736259037 -36.856425462144109 0 0 0 -1 I I #
point $-1 -55.640125736259037 24.080170757038736 -15.582265108630834 #
straight-curve $-1 -55.640125736259037 15.234149054795711 -15.582265108630834 0 -1 0 I I #
point $-1 -55.640125736259037 36.856425462144109 -15.582265108630834 #
straight-curve $-1 -55.640125736259037 36.856425462144109 0 0 0 -1 I I #
straight-curve $-1 20.962037966536471 -16.962763730560766 17.514422635993299 -1 0 0 I I #
point $-1 55.640125736259037 -16.962763730560766 17.514422635993292 #
straight-curve $-1 47.929844495302291 -10.260733621899874 17.514422635993299 0 -1 0 I I #
point $-1 47.929844495302305 -16.962763730560766 17.514422635993284 #
point $-1 49.073171520584062 -20.521467243799748 11.047761968628443 #
straight-curve $-1 -59.733928317359897 -24.080170757038729 17.514422635993292 1 0 0 I I #
point $-1 -55.640125736259037 -24.080170757038729 17.514422635993292 #
straight-curve $-1 -48.357741346776628 -10.442628097483677 17.514422635993292 0 1 0 I I #
point $-1 -48.357741346776628 -24.080170757038729 17.514422635993292 #
point $-1 -51.138568875902962 -22.254505292997948 13.736104305526492 #
point $-1 -51.138568875902962 -19.516007096936768 13.736104305526492 #
End-of-ACIS-data 