500 0 7 0           
7 Unknown 11 ACIS 5.0 NT 24 Thu Mar 25 23:09:33 1999 
-1 9.9999999999999995e-007 1e-010 
body $-1 $7 $-1 $8 #
body $-1 $9 $-1 $10 #
body $-1 $11 $-1 $12 #
body $-1 $13 $-1 $14 #
body $-1 $15 $-1 $16 #
body $-1 $17 $-1 $18 #
body $-1 $19 $-1 $20 #
lump $-1 $-1 $21 $0 #
transform $-1 1 0 0 0 1 0 0 0 1 44.167607654042179 30.489492517795554 9.1392177056348203 1 rotate no_reflect no_shear #
lump $-1 $-1 $22 $1 #
transform $-1 1 0 0 0 1 0 0 0 1 44.167607654042179 30.489492517795554 9.1392177056348203 1 rotate no_reflect no_shear #
lump $-1 $-1 $23 $2 #
transform $-1 1 0 0 0 1 0 0 0 1 44.167607654042179 30.489492517795554 9.1392177056348203 1 rotate no_reflect no_shear #
lump $-1 $-1 $24 $3 #
transform $-1 1 0 0 0 1 0 0 0 1 44.167607654042179 30.489492517795554 9.1392177056348203 1 rotate no_reflect no_shear #
lump $-1 $-1 $25 $4 #
transform $-1 1 0 0 0 1 0 0 0 1 44.167607654042179 30.489492517795554 9.1392177056348203 1 rotate no_reflect no_shear #
lump $-1 $-1 $26 $5 #
transform $-1 1 0 0 0 1 0 0 0 1 44.167607654042179 30.489492517795554 9.1392177056348203 1 rotate no_reflect no_shear #
lump $-1 $-1 $27 $6 #
transform $-1 1 0 0 0 1 0 0 0 1 44.167607654042179 30.489492517795554 9.1392177056348203 1 rotate no_reflect no_shear #
shell $-1 $-1 $-1 $28 $-1 $7 #
shell $-1 $-1 $-1 $29 $-1 $9 #
shell $-1 $-1 $-1 $30 $-1 $11 #
shell $-1 $-1 $-1 $31 $-1 $13 #
shell $-1 $-1 $-1 $32 $-1 $15 #
shell $-1 $-1 $-1 $33 $-1 $17 #
shell $-1 $-1 $-1 $34 $-1 $19 #
face $-1 $35 $36 $21 $-1 $37 forward single #
face $-1 $38 $39 $22 $-1 $40 forward single #
face $-1 $41 $42 $23 $-1 $43 forward single #
face $-1 $44 $45 $24 $-1 $46 reversed single #
face $-1 $47 $48 $25 $-1 $49 forward single #
face $-1 $50 $51 $26 $-1 $52 forward single #
face $-1 $53 $54 $27 $-1 $55 forward single #
face $-1 $56 $57 $21 $-1 $58 reversed single #
loop $-1 $-1 $59 $28 #
plane-surface $-1 0 0 9.1392177056348203 0 0 1 1 0 0 forward_v I I I I #
face $-1 $60 $61 $22 $-1 $62 reversed single #
loop $-1 $-1 $63 $29 #
plane-surface $-1 0 -27.17422992927796 -4.6016562210347445 0 0 1 1 0 0 forward_v I I I I #
face $-1 $64 $65 $23 $-1 $66 reversed single #
loop $-1 $-1 $67 $30 #
plane-surface $-1 0 27.174229929277956 -4.6016562210347445 0 0 1 1 0 0 forward_v I I I I #
face $-1 $68 $69 $24 $-1 $70 reversed single #
loop $-1 $-1 $71 $31 #
plane-surface $-1 -100.94839025096451 -16.152597583395835 68.2858633275237 0 -1 0 0.64278761758704617 0 -0.76604443648966558 forward_v I I I I #
face $-1 $72 $73 $25 $-1 $74 forward single #
loop $-1 $75 $76 $32 #
cone-surface $-1 -38.768119352145888 -22.317693389287459 4.4951681818970366 0.64278761758704617 0 -0.76604443648966558 0.38302221824483279 0 0.32139380879352308 1 I I 0 1 0.5 forward I I I I #
face $-1 $77 $78 $26 $-1 $79 forward single #
loop $-1 $80 $81 $33 #
cone-surface $-1 -38.768119352145888 -20.005782462078098 4.4951681818970366 0.64278761758704617 0 -0.76604443648966558 0.38302221824483279 0 0.32139380879352308 1 I I 0 1 0.5 forward I I I I #
face $-1 $82 $83 $27 $-1 $84 forward single #
loop $-1 $85 $86 $34 #
cone-surface $-1 -38.768119352145888 -17.693871534868737 4.4951681818970366 0.64278761758704617 0 -0.76604443648966558 0.38302221824483279 0 0.32139380879352308 1 I I 0 1 0.5 forward I I I I #
face $-1 $87 $88 $21 $-1 $89 reversed single #
loop $-1 $-1 $90 $35 #
plane-surface $-1 0 0 -9.1392177056348203 0 0 1 1 0 0 forward_v I I I I #
coedge $-1 $91 $92 $93 $94 forward $36 $-1 #
face $-1 $95 $96 $22 $-1 $97 reversed single #
loop $-1 $-1 $98 $38 #
plane-surface $-1 0 -23.858967340760366 -6.8704369633347824 0 -1 0 0 0 -1 forward_v I I I I #
coedge $-1 $99 $100 $101 $102 reversed $39 $-1 #
face $-1 $103 $104 $23 $-1 $105 reversed single #
loop $-1 $-1 $106 $41 #
plane-surface $-1 0 23.858967340760362 -6.8704369633347824 0 1 0 0 0 1 forward_v I I I I #
coedge $-1 $107 $108 $109 $110 reversed $42 $-1 #
face $-1 $111 $112 $24 $-1 $113 reversed single #
loop $-1 $-1 $114 $44 #
plane-surface $-1 -44.167607654042193 -20.005782462078102 0.61716309464893016 -0.64278761758704617 0 0.76604443648966558 0.76604443648966558 0 0.64278761758704617 forward_v I I I I #
coedge $-1 $115 $116 $117 $118 reversed $45 $-1 #
face $-1 $-1 $119 $25 $-1 $120 forward single #
loop $-1 $121 $122 $47 #
cone-surface $-1 -38.286028638955607 -22.317693389287459 3.9206348545297871 0.64278761758704617 0 -0.76604443648966558 0.1915111091224164 0 0.16069690439676154 1 I I -0.70710678118654746 0.70710678118654746 0.25 forward I I I I #
loop $-1 $-1 $123 $32 #
coedge $-1 $76 $76 $124 $125 reversed $48 $-1 #
face $-1 $-1 $126 $26 $-1 $127 forward single #
loop $-1 $128 $129 $50 #
cone-surface $-1 -38.286028638955607 -20.005782462078098 3.9206348545297871 0.64278761758704617 0 -0.76604443648966558 0.1915111091224164 0 0.16069690439676154 1 I I -0.70710678118654746 0.70710678118654746 0.25 forward I I I I #
loop $-1 $-1 $130 $33 #
coedge $-1 $81 $81 $131 $132 reversed $51 $-1 #
face $-1 $-1 $133 $27 $-1 $134 forward single #
loop $-1 $135 $136 $53 #
cone-surface $-1 -38.286028638955607 -17.693871534868737 3.9206348545297871 0.64278761758704617 0 -0.76604443648966558 0.1915111091224164 0 0.16069690439676154 1 I I -0.70710678118654746 0.70710678118654746 0.25 forward I I I I #
loop $-1 $-1 $137 $34 #
coedge $-1 $86 $86 $138 $139 reversed $54 $-1 #
face $-1 $140 $141 $21 $-1 $142 reversed single #
loop $-1 $-1 $143 $56 #
plane-surface $-1 0 -30.489492517795554 0 0 1 0 0 0 1 forward_v I I I I #
coedge $-1 $144 $145 $146 $147 forward $57 $-1 #
coedge $-1 $148 $59 $149 $150 forward $36 $-1 #
coedge $-1 $59 $148 $151 $152 forward $36 $-1 #
coedge $-1 $153 $154 $59 $94 reversed $155 $-1 #
edge $-1 $156 -30.489492517795554 $157 30.489492517795554 $93 $158 forward 7 unknown #
face $-1 $159 $160 $22 $-1 $161 reversed single #
loop $-1 $-1 $162 $60 #
plane-surface $-1 0 0 -9.1392177056348203 0 0 1 1 0 0 forward_v I I I I #
coedge $-1 $163 $164 $165 $166 reversed $61 $-1 #
coedge $-1 $167 $63 $164 $168 forward $39 $-1 #
coedge $-1 $63 $167 $169 $170 reversed $39 $-1 #
coedge $-1 $171 $165 $63 $102 forward $160 $-1 #
edge $-1 $172 10.271852376121386 $173 16.902377553156576 $101 $174 forward 7 unknown #
face $-1 $175 $176 $23 $-1 $177 reversed single #
loop $-1 $-1 $109 $64 #
plane-surface $-1 44.167607654042179 0 0 -1 0 0 0 0 1 forward_v I I I I #
coedge $-1 $178 $179 $180 $181 reversed $65 $-1 #
coedge $-1 $182 $67 $183 $184 reversed $42 $-1 #
coedge $-1 $67 $182 $179 $185 forward $42 $-1 #
coedge $-1 $186 $187 $67 $110 forward $104 $-1 #
edge $-1 $188 -16.902377553156573 $189 -10.271852376121384 $109 $190 forward 7 unknown #
face $-1 $191 $192 $24 $-1 $193 reversed single #
loop $-1 $-1 $194 $68 #
plane-surface $-1 -100.94839025096451 -23.858967340760369 68.2858633275237 0 1 0 -0.64278761758704617 0 0.76604443648966558 forward_v I I I I #
coedge $-1 $195 $196 $197 $198 reversed $69 $-1 #
coedge $-1 $116 $71 $199 $200 reversed $45 $-1 #
coedge $-1 $71 $115 $195 $201 reversed $45 $-1 #
coedge $-1 $197 $202 $71 $118 forward $192 $-1 #
edge $-1 $203 25.00371395812703 $204 33.525768569112905 $117 $205 forward 7 unknown #
loop $-1 $-1 $124 $72 #
plane-surface $-1 -44.167607654042193 -20.005782462078102 0.61716309464893016 -0.64278761758704617 0 0.76604443648966558 0.76604443648966558 0 0.64278761758704617 forward_v I I I I #
loop $-1 $-1 $206 $47 #
coedge $-1 $122 $122 $123 $207 reversed $73 $-1 #
coedge $-1 $123 $123 $122 $207 forward $75 $-1 #
coedge $-1 $124 $124 $76 $125 forward $119 $-1 #
edge $-1 $208 0 $208 6.2831853071796004 $124 $209 forward 7 unknown #
loop $-1 $-1 $131 $77 #
plane-surface $-1 -44.167607654042193 -20.005782462078102 0.61716309464893016 -0.64278761758704617 0 0.76604443648966558 0.76604443648966558 0 0.64278761758704617 forward_v I I I I #
loop $-1 $-1 $210 $50 #
coedge $-1 $129 $129 $130 $211 reversed $78 $-1 #
coedge $-1 $130 $130 $129 $211 forward $80 $-1 #
coedge $-1 $131 $131 $81 $132 forward $126 $-1 #
edge $-1 $212 0 $212 6.2831853071796004 $131 $213 forward 7 unknown #
loop $-1 $-1 $138 $82 #
plane-surface $-1 -44.167607654042193 -20.005782462078102 0.61716309464893016 -0.64278761758704617 0 0.76604443648966558 0.76604443648966558 0 0.64278761758704617 forward_v I I I I #
loop $-1 $-1 $214 $53 #
coedge $-1 $136 $136 $137 $215 reversed $83 $-1 #
coedge $-1 $137 $137 $136 $215 forward $85 $-1 #
coedge $-1 $138 $138 $86 $139 forward $133 $-1 #
edge $-1 $216 0 $216 6.2831853071796004 $138 $217 forward 7 unknown #
face $-1 $218 $219 $21 $-1 $220 reversed single #
loop $-1 $-1 $221 $87 #
plane-surface $-1 -44.167607654042179 0 0 1 0 0 0 0 -1 forward_v I I I I #
coedge $-1 $222 $151 $223 $224 forward $88 $-1 #
coedge $-1 $225 $90 $222 $226 forward $57 $-1 #
coedge $-1 $90 $225 $227 $228 forward $57 $-1 #
coedge $-1 $154 $153 $90 $147 reversed $155 $-1 #
edge $-1 $229 -30.489492517795554 $230 30.489492517795554 $146 $231 forward 7 unknown #
coedge $-1 $92 $91 $232 $233 forward $36 $-1 #
coedge $-1 $234 $235 $91 $150 reversed $219 $-1 #
edge $-1 $157 -44.167607654042179 $236 44.167607654042179 $149 $237 forward 7 unknown #
coedge $-1 $143 $238 $92 $152 reversed $88 $-1 #
edge $-1 $239 -44.167607654042179 $156 44.167607654042179 $151 $240 forward 7 unknown #
coedge $-1 $146 $93 $238 $241 forward $155 $-1 #
coedge $-1 $93 $146 $234 $242 reversed $155 $-1 #
loop $-1 $-1 $153 $218 #
vertex $-1 $94 $243 #
vertex $-1 $94 $244 #
straight-curve $-1 44.167607654042179 0 9.1392177056348203 0 1 0 I I #
face $-1 $245 $246 $22 $-1 $247 reversed single #
loop $-1 $-1 $165 $95 #
plane-surface $-1 44.167607654042179 0 0 -1 0 0 0 0 1 forward_v I I I I #
coedge $-1 $248 $249 $163 $250 forward $96 $-1 #
coedge $-1 $251 $98 $162 $250 reversed $61 $-1 #
coedge $-1 $98 $251 $99 $168 reversed $61 $-1 #
coedge $-1 $101 $252 $98 $166 forward $160 $-1 #
edge $-1 $253 -5.7039992239674291 $172 -1.1664377393673533 $165 $254 forward 7 unknown #
coedge $-1 $100 $99 $255 $256 reversed $39 $-1 #
edge $-1 $172 -44.167607654042179 $257 44.167607654042179 $164 $258 forward 7 unknown #
coedge $-1 $259 $260 $100 $170 forward $246 $-1 #
edge $-1 $173 -44.167607654042179 $261 44.167607654042179 $169 $262 forward 7 unknown #
coedge $-1 $252 $101 $260 $263 forward $160 $-1 #
vertex $-1 $102 $264 #
vertex $-1 $263 $265 #
straight-curve $-1 44.167607654042179 -13.58711496463898 -4.6016562210347445 0 -1 0 I I #
face $-1 $266 $267 $23 $-1 $268 reversed single #
loop $-1 $-1 $269 $103 #
plane-surface $-1 0 0 -9.1392177056348203 0 0 1 1 0 0 forward_v I I I I #
coedge $-1 $270 $106 $269 $271 reversed $65 $-1 #
coedge $-1 $106 $270 $108 $185 reversed $65 $-1 #
coedge $-1 $272 $273 $106 $181 forward $267 $-1 #
edge $-1 $274 -5.7039992239674291 $275 -1.1664377393673533 $180 $276 forward 7 unknown #
coedge $-1 $108 $107 $272 $277 reversed $42 $-1 #
coedge $-1 $278 $279 $107 $184 forward $280 $-1 #
edge $-1 $281 -44.167607654042179 $188 44.167607654042179 $183 $282 forward 7 unknown #
edge $-1 $275 -44.167607654042179 $189 44.167607654042179 $179 $283 forward 7 unknown #
coedge $-1 $284 $109 $270 $285 forward $104 $-1 #
coedge $-1 $109 $284 $278 $286 reversed $104 $-1 #
vertex $-1 $286 $287 #
vertex $-1 $110 $288 #
straight-curve $-1 44.167607654042179 13.587114964638978 -4.6016562210347445 0 -1 0 I I #
face $-1 $-1 $289 $24 $-1 $290 forward single #
loop $-1 $-1 $117 $111 #
plane-surface $-1 -44.167607654042179 0 0 1 0 0 0 0 -1 forward_v I I I I #
coedge $-1 $291 $292 $293 $294 reversed $112 $-1 #
coedge $-1 $295 $114 $116 $201 forward $69 $-1 #
coedge $-1 $114 $295 $291 $296 forward $69 $-1 #
coedge $-1 $293 $117 $114 $198 forward $192 $-1 #
edge $-1 $204 6.1497063523567839 $297 13.856076109721318 $197 $298 forward 7 unknown #
coedge $-1 $299 $300 $115 $200 forward $289 $-1 #
edge $-1 $301 -16.462776457645575 $203 -6.3065874714400749 $199 $302 forward 7 unknown #
edge $-1 $204 1.8522068651326679e-014 $301 13.257963249162673 $116 $303 forward 7 unknown #
coedge $-1 $117 $293 $299 $304 reversed $192 $-1 #
vertex $-1 $304 $305 #
vertex $-1 $118 $306 #
straight-curve $-1 -44.167607654042179 -16.152597583395835 34.14293166376185 0 0 -1 I I #
coedge $-1 $206 $206 $-1 $307 reversed $121 $-1 #
edge $-1 $308 0 $308 6.2831853071796004 $122 $309 forward 7 unknown #
vertex $-1 $125 $310 #
ellipse-curve $-1 -39.089513160939426 -22.317693389287459 4.8781904001418841 -0.64278761758704617 0 0.76604443648966558 0.38302221824483279 0 0.32139380879352308 1 I I #
coedge $-1 $210 $210 $-1 $311 reversed $128 $-1 #
edge $-1 $312 0 $312 6.2831853071796004 $129 $313 forward 7 unknown #
vertex $-1 $132 $314 #
ellipse-curve $-1 -39.089513160939426 -20.005782462078098 4.8781904001418841 -0.64278761758704617 0 0.76604443648966558 0.38302221824483279 0 0.32139380879352308 1 I I #
coedge $-1 $214 $214 $-1 $315 reversed $135 $-1 #
edge $-1 $316 0 $316 6.2831853071796004 $136 $317 forward 7 unknown #
vertex $-1 $139 $318 #
ellipse-curve $-1 -39.089513160939426 -17.693871534868737 4.8781904001418841 -0.64278761758704617 0 0.76604443648966558 0.38302221824483279 0 0.32139380879352308 1 I I #
face $-1 $-1 $155 $21 $-1 $319 reversed single #
loop $-1 $-1 $234 $140 #
plane-surface $-1 0 30.489492517795554 0 0 -1 0 0 0 -1 forward_v I I I I #
coedge $-1 $320 $232 $235 $321 forward $141 $-1 #
coedge $-1 $238 $143 $144 $226 reversed $88 $-1 #
coedge $-1 $232 $320 $143 $224 reversed $141 $-1 #
edge $-1 $239 -9.1392177056348203 $322 9.1392177056348203 $223 $323 forward 7 unknown #
coedge $-1 $145 $144 $320 $324 forward $57 $-1 #
edge $-1 $230 -44.167607654042179 $322 44.167607654042179 $222 $325 forward 7 unknown #
coedge $-1 $235 $234 $145 $228 reversed $219 $-1 #
edge $-1 $326 -44.167607654042179 $229 44.167607654042179 $227 $327 forward 7 unknown #
vertex $-1 $147 $328 #
vertex $-1 $241 $329 #
straight-curve $-1 44.167607654042179 0 -9.1392177056348203 0 -1 0 I I #
coedge $-1 $221 $223 $148 $233 reversed $141 $-1 #
edge $-1 $236 -30.489492517795554 $239 30.489492517795554 $232 $330 forward 7 unknown #
coedge $-1 $227 $149 $154 $242 forward $219 $-1 #
coedge $-1 $149 $227 $221 $321 reversed $219 $-1 #
vertex $-1 $150 $331 #
straight-curve $-1 0 30.489492517795554 9.1392177056348203 -1 0 0 I I #
coedge $-1 $151 $222 $153 $241 reversed $88 $-1 #
vertex $-1 $233 $332 #
straight-curve $-1 0 -30.489492517795554 9.1392177056348203 1 0 0 I I #
edge $-1 $156 -9.1392177056348203 $230 9.1392177056348203 $153 $333 forward 7 unknown #
edge $-1 $157 -9.1392177056348203 $229 9.1392177056348203 $154 $334 forward 7 unknown #
point $-1 44.167607654042179 -30.489492517795554 9.1392177056348203 #
point $-1 44.167607654042179 30.489492517795554 9.1392177056348203 #
face $-1 $-1 $335 $22 $-1 $336 reversed single #
loop $-1 $-1 $169 $159 #
plane-surface $-1 0 -30.489492517795554 0 0 1 0 0 0 1 forward_v I I I I #
coedge $-1 $337 $162 $252 $338 forward $96 $-1 #
coedge $-1 $162 $337 $339 $340 forward $96 $-1 #
edge $-1 $341 -44.167607654042179 $253 44.167607654042179 $162 $342 forward 7 unknown #
coedge $-1 $164 $163 $343 $344 reversed $61 $-1 #
coedge $-1 $165 $171 $248 $338 reversed $160 $-1 #
vertex $-1 $338 $345 #
straight-curve $-1 44.167607654042179 -23.858967340760366 -3.4352184816673912 0 0 1 I I #
coedge $-1 $343 $346 $167 $256 forward $335 $-1 #
edge $-1 $261 -16.902377553156576 $257 -10.271852376121386 $255 $347 forward 7 unknown #
vertex $-1 $256 $348 #
straight-curve $-1 0 -23.858967340760366 -4.6016562210347445 -1 0 0 I I #
coedge $-1 $349 $169 $346 $350 forward $246 $-1 #
coedge $-1 $169 $349 $171 $263 reversed $246 $-1 #
vertex $-1 $350 $351 #
straight-curve $-1 0 -30.489492517795554 -4.6016562210347445 -1 0 0 I I #
edge $-1 $173 4.6016562210347445 $352 9.1392177056348203 $171 $353 forward 7 unknown #
point $-1 44.167607654042179 -23.858967340760366 -4.6016562210347445 #
point $-1 44.167607654042179 -30.489492517795554 -4.6016562210347445 #
face $-1 $-1 $280 $23 $-1 $354 reversed single #
loop $-1 $-1 $272 $175 #
plane-surface $-1 -44.167607654042179 0 0 1 0 0 0 0 -1 forward_v I I I I #
coedge $-1 $355 $356 $178 $271 forward $176 $-1 #
coedge $-1 $179 $178 $186 $285 reversed $65 $-1 #
edge $-1 $357 -44.167607654042179 $274 44.167607654042179 $269 $358 forward 7 unknown #
coedge $-1 $359 $180 $182 $277 forward $267 $-1 #
coedge $-1 $180 $359 $355 $360 reversed $267 $-1 #
vertex $-1 $360 $361 #
vertex $-1 $277 $362 #
straight-curve $-1 -44.167607654042179 23.858967340760362 -3.4352184816673912 0 0 1 I I #
edge $-1 $275 10.271852376121384 $281 16.902377553156573 $272 $363 forward 7 unknown #
coedge $-1 $364 $183 $187 $286 forward $280 $-1 #
coedge $-1 $183 $364 $359 $365 reversed $280 $-1 #
loop $-1 $-1 $183 $266 #
vertex $-1 $365 $366 #
straight-curve $-1 0 30.489492517795554 -4.6016562210347445 1 0 0 I I #
straight-curve $-1 0 23.858967340760362 -4.6016562210347445 1 0 0 I I #
coedge $-1 $187 $186 $356 $367 reversed $104 $-1 #
edge $-1 $189 1.1664377393673533 $357 5.7039992239674291 $186 $368 forward 7 unknown #
edge $-1 $188 4.6016562210347445 $369 9.1392177056348203 $187 $370 forward 7 unknown #
point $-1 44.167607654042179 30.489492517795551 -4.6016562210347445 #
point $-1 44.167607654042179 23.858967340760362 -4.6016562210347445 #
loop $-1 $-1 $199 $191 #
plane-surface $-1 0 0 9.1392177056348203 0 0 1 1 0 0 forward_v I I I I #
coedge $-1 $292 $194 $196 $296 reversed $112 $-1 #
coedge $-1 $194 $291 $371 $372 reversed $112 $-1 #
coedge $-1 $202 $197 $194 $294 forward $192 $-1 #
edge $-1 $297 -33.525768569112905 $373 -25.00371395812703 $293 $374 forward 7 unknown #
coedge $-1 $196 $195 $300 $375 reversed $69 $-1 #
edge $-1 $376 -13.257963249162673 $297 -1.8522068651326679e-014 $291 $377 forward 7 unknown #
vertex $-1 $198 $378 #
straight-curve $-1 -44.167607654042179 -10.002891231039051 0.61716309464894215 0 -1 0 I I #
coedge $-1 $371 $199 $202 $304 forward $289 $-1 #
coedge $-1 $199 $371 $295 $375 forward $289 $-1 #
vertex $-1 $200 $379 #
straight-curve $-1 -50.474195125482254 -16.152597583395835 9.1392177056348203 -1 0 0 I I #
straight-curve $-1 -44.167607654042193 -16.152597583395835 0.61716309464893016 0.76604443648966558 0 0.64278761758704617 I I #
edge $-1 $203 16.152597583395835 $373 23.858967340760369 $202 $380 forward 7 unknown #
point $-1 -44.167607654042179 -16.152597583395835 9.1392177056348203 #
point $-1 -44.167607654042179 -16.152597583395835 0.61716309464894203 #
edge $-1 $381 1 $381 0 $206 $-1 forward 7 unknown #
vertex $-1 $207 $382 #
ellipse-curve $-1 -38.446725543352365 -22.317693389287459 4.1121459636522033 -0.64278761758704617 0 0.76604443648966558 0.38302221824483279 0 0.32139380879352308 1 I I #
point $-1 -38.706490942694579 -22.317693389287459 5.1995842089353923 #
edge $-1 $383 1 $383 0 $210 $-1 forward 7 unknown #
vertex $-1 $211 $384 #
ellipse-curve $-1 -38.446725543352365 -20.005782462078098 4.1121459636522033 -0.64278761758704617 0 0.76604443648966558 0.38302221824483279 0 0.32139380879352308 1 I I #
point $-1 -38.706490942694579 -20.005782462078098 5.1995842089353923 #
edge $-1 $385 1 $385 0 $214 $-1 forward 7 unknown #
vertex $-1 $215 $386 #
ellipse-curve $-1 -38.446725543352365 -17.693871534868737 4.1121459636522033 -0.64278761758704617 0 0.76604443648966558 0.38302221824483279 0 0.32139380879352308 1 I I #
point $-1 -38.706490942694579 -17.693871534868737 5.1995842089353923 #
plane-surface $-1 44.167607654042179 0 0 -1 0 0 0 0 1 forward_v I I I I #
coedge $-1 $223 $221 $225 $324 reversed $141 $-1 #
edge $-1 $236 -9.1392177056348203 $326 9.1392177056348203 $235 $387 forward 7 unknown #
vertex $-1 $324 $388 #
straight-curve $-1 -44.167607654042179 -30.489492517795554 0 0 0 -1 I I #
edge $-1 $322 -30.489492517795554 $326 30.489492517795554 $320 $389 forward 7 unknown #
straight-curve $-1 0 -30.489492517795554 -9.1392177056348203 -1 0 0 I I #
vertex $-1 $228 $390 #
straight-curve $-1 0 30.489492517795554 -9.1392177056348203 1 0 0 I I #
point $-1 44.167607654042179 30.489492517795554 -9.1392177056348203 #
point $-1 44.167607654042179 -30.489492517795554 -9.1392177056348203 #
straight-curve $-1 -44.167607654042179 0 9.1392177056348203 0 -1 0 I I #
point $-1 -44.167607654042179 30.489492517795554 9.1392177056348203 #
point $-1 -44.167607654042179 -30.489492517795554 9.1392177056348203 #
straight-curve $-1 44.167607654042179 -30.489492517795554 0 0 0 -1 I I #
straight-curve $-1 44.167607654042179 30.489492517795554 0 0 0 -1 I I #
loop $-1 $-1 $343 $245 #
plane-surface $-1 -44.167607654042179 0 0 1 0 0 0 0 -1 forward_v I I I I #
coedge $-1 $249 $248 $349 $391 forward $96 $-1 #
edge $-1 $253 23.858967340760366 $352 30.489492517795554 $252 $392 forward 7 unknown #
coedge $-1 $346 $343 $249 $340 reversed $335 $-1 #
edge $-1 $393 -30.489492517795554 $341 -23.858967340760366 $339 $394 forward 7 unknown #
vertex $-1 $344 $395 #
straight-curve $-1 0 -23.858967340760366 -9.1392177056348203 1 0 0 I I #
coedge $-1 $339 $255 $251 $344 forward $335 $-1 #
edge $-1 $257 1.1664377393673533 $341 5.7039992239674291 $343 $396 forward 7 unknown #
point $-1 44.167607654042179 -23.858967340760366 -9.1392177056348203 #
coedge $-1 $255 $339 $259 $350 reversed $335 $-1 #
straight-curve $-1 -44.167607654042179 -13.58711496463898 -4.6016562210347445 0 1 0 I I #
point $-1 -44.167607654042179 -23.858967340760366 -4.6016562210347445 #
coedge $-1 $260 $259 $337 $391 reversed $246 $-1 #
edge $-1 $261 4.6016562210347445 $393 9.1392177056348203 $346 $397 forward 7 unknown #
point $-1 -44.167607654042179 -30.489492517795554 -4.6016562210347445 #
vertex $-1 $263 $398 #
straight-curve $-1 44.167607654042179 -30.489492517795554 0 0 0 -1 I I #
plane-surface $-1 0 30.489492517795554 0 0 -1 0 0 0 -1 forward_v I I I I #
coedge $-1 $399 $269 $273 $360 forward $176 $-1 #
coedge $-1 $269 $399 $284 $367 forward $176 $-1 #
vertex $-1 $271 $400 #
straight-curve $-1 0 23.858967340760362 -9.1392177056348203 -1 0 0 I I #
coedge $-1 $273 $272 $279 $365 forward $267 $-1 #
edge $-1 $274 23.858967340760362 $401 30.489492517795554 $273 $402 forward 7 unknown #
point $-1 -44.167607654042179 23.858967340760362 -9.1392177056348203 #
point $-1 -44.167607654042179 23.858967340760362 -4.6016562210347445 #
straight-curve $-1 -44.167607654042179 13.587114964638978 -4.6016562210347445 0 1 0 I I #
coedge $-1 $279 $278 $399 $403 reversed $280 $-1 #
edge $-1 $281 4.6016562210347445 $401 9.1392177056348203 $279 $404 forward 7 unknown #
point $-1 -44.167607654042179 30.489492517795551 -4.6016562210347445 #
edge $-1 $369 -30.489492517795554 $357 -23.858967340760362 $284 $405 forward 7 unknown #
straight-curve $-1 44.167607654042179 23.858967340760362 -3.4352184816673912 0 0 -1 I I #
vertex $-1 $367 $406 #
straight-curve $-1 44.167607654042179 30.489492517795554 0 0 0 -1 I I #
coedge $-1 $300 $299 $292 $372 forward $289 $-1 #
edge $-1 $373 6.3065874714400749 $376 16.462776457645575 $371 $407 forward 7 unknown #
vertex $-1 $372 $408 #
straight-curve $-1 -44.167607654042179 -23.858967340760369 34.14293166376185 0 0 1 I I #
edge $-1 $376 -13.856076109721318 $301 -6.1497063523567839 $300 $409 forward 7 unknown #
vertex $-1 $375 $410 #
straight-curve $-1 -44.167607654042193 -23.858967340760369 0.61716309464893016 -0.76604443648966558 0 -0.64278761758704617 I I #
point $-1 -44.167607654042179 -23.858967340760369 0.61716309464894203 #
point $-1 -34.011418667836679 -16.152597583395835 9.1392177056348203 #
straight-curve $-1 -44.167607654042179 0 9.1392177056348203 0 -1 0 I I #
vertex $-1 $307 $411 #
point $-1 -38.063703325107532 -22.317693389287459 4.4335397724457266 #
vertex $-1 $311 $412 #
point $-1 -38.063703325107532 -20.005782462078098 4.4335397724457266 #
vertex $-1 $315 $413 #
point $-1 -38.063703325107532 -17.693871534868737 4.4335397724457266 #
straight-curve $-1 -44.167607654042179 30.489492517795554 0 0 0 -1 I I #
point $-1 -44.167607654042179 -30.489492517795554 -9.1392177056348203 #
straight-curve $-1 -44.167607654042179 0 -9.1392177056348203 0 1 0 I I #
point $-1 -44.167607654042179 30.489492517795554 -9.1392177056348203 #
edge $-1 $352 -44.167607654042179 $393 44.167607654042179 $349 $414 forward 7 unknown #
straight-curve $-1 44.167607654042179 0 -9.1392177056348203 0 -1 0 I I #
vertex $-1 $340 $415 #
straight-curve $-1 -44.167607654042179 0 -9.1392177056348203 0 1 0 I I #
point $-1 -44.167607654042179 -23.858967340760366 -9.1392177056348203 #
straight-curve $-1 -44.167607654042179 -23.858967340760366 -3.4352184816673912 0 0 -1 I I #
straight-curve $-1 -44.167607654042179 -30.489492517795554 0 0 0 -1 I I #
point $-1 44.167607654042179 -30.489492517795554 -9.1392177056348203 #
coedge $-1 $356 $355 $364 $403 forward $176 $-1 #
point $-1 44.167607654042179 23.858967340760362 -9.1392177056348203 #
vertex $-1 $403 $416 #
straight-curve $-1 -44.167607654042179 0 -9.1392177056348203 0 1 0 I I #
edge $-1 $401 -44.167607654042179 $369 44.167607654042179 $364 $417 forward 7 unknown #
straight-curve $-1 -44.167607654042179 30.489492517795554 0 0 0 -1 I I #
straight-curve $-1 44.167607654042179 0 -9.1392177056348203 0 -1 0 I I #
point $-1 44.167607654042179 30.489492517795554 -9.1392177056348203 #
straight-curve $-1 -50.474195125482254 -23.858967340760369 9.1392177056348203 1 0 0 I I #
point $-1 -44.167607654042179 -23.858967340760369 9.1392177056348203 #
straight-curve $-1 -34.011418667836672 -10.002891231039051 9.1392177056348203 0 1 0 I I #
point $-1 -34.011418667836679 -23.858967340760369 9.1392177056348203 #
point $-1 -38.125331734558848 -22.317693389287459 3.7291237454073709 #
point $-1 -38.125331734558848 -20.005782462078098 3.7291237454073709 #
point $-1 -38.125331734558848 -17.693871534868737 3.7291237454073709 #
straight-curve $-1 0 -30.489492517795554 -9.1392177056348203 -1 0 0 I I #
point $-1 -44.167607654042179 -30.489492517795554 -9.1392177056348203 #
point $-1 -44.167607654042179 30.489492517795554 -9.1392177056348203 #
straight-curve $-1 0 30.489492517795554 -9.1392177056348203 1 0 0 I I #
End-of-ACIS-data 