500 0 8 0           
7 Unknown 11 ACIS 5.0 NT 24 Thu Mar 25 16:01:53 1999 
-1 9.9999999999999995e-007 1e-010 
body $-1 $8 $-1 $9 #
body $-1 $10 $-1 $11 #
body $-1 $12 $-1 $13 #
body $-1 $14 $-1 $15 #
body $-1 $16 $-1 $17 #
body $-1 $18 $-1 $19 #
body $-1 $20 $-1 $21 #
body $-1 $22 $-1 $23 #
lump $-1 $-1 $24 $0 #
transform $-1 1 0 0 0 1 0 0 0 1 70.234076967680892 46.699112976313472 12.733336127410894 1 rotate no_reflect no_shear #
lump $-1 $-1 $25 $1 #
transform $-1 1 0 0 0 1 0 0 0 1 70.234076967680892 46.699112976313472 12.733336127410894 1 rotate no_reflect no_shear #
lump $-1 $-1 $26 $2 #
transform $-1 1 0 0 0 1 0 0 0 1 70.234076967680892 46.699112976313472 12.733336127410894 1 rotate no_reflect no_shear #
lump $-1 $-1 $27 $3 #
transform $-1 1 0 0 0 1 0 0 0 1 70.234076967680892 46.699112976313472 12.733336127410894 1 rotate no_reflect no_shear #
lump $-1 $-1 $28 $4 #
transform $-1 1 0 0 0 1 0 0 0 1 70.234076967680892 46.699112976313472 12.733336127410894 1 rotate no_reflect no_shear #
lump $-1 $-1 $29 $5 #
transform $-1 1 0 0 0 1 0 0 0 1 70.234076967680892 46.699112976313472 12.733336127410894 1 rotate no_reflect no_shear #
lump $-1 $-1 $30 $6 #
transform $-1 1 0 0 0 1 0 0 0 1 70.234076967680892 46.699112976313472 12.733336127410894 1 rotate no_reflect no_shear #
lump $-1 $-1 $31 $7 #
transform $-1 1 0 0 0 1 0 0 0 1 70.234076967680892 46.699112976313472 12.733336127410894 1 rotate no_reflect no_shear #
shell $-1 $-1 $-1 $32 $-1 $8 #
shell $-1 $-1 $-1 $33 $-1 $10 #
shell $-1 $-1 $-1 $34 $-1 $12 #
shell $-1 $-1 $-1 $35 $-1 $14 #
shell $-1 $-1 $-1 $36 $-1 $16 #
shell $-1 $-1 $-1 $37 $-1 $18 #
shell $-1 $-1 $-1 $38 $-1 $20 #
shell $-1 $-1 $-1 $39 $-1 $22 #
face $-1 $40 $41 $24 $-1 $42 forward single #
face $-1 $43 $44 $25 $-1 $45 forward single #
face $-1 $46 $47 $26 $-1 $48 reversed single #
face $-1 $49 $50 $27 $-1 $51 forward single #
face $-1 $52 $53 $28 $-1 $54 forward single #
face $-1 $55 $56 $29 $-1 $57 forward single #
face $-1 $58 $59 $30 $-1 $60 reversed single #
face $-1 $61 $62 $31 $-1 $63 forward single #
face $-1 $64 $65 $24 $-1 $66 reversed single #
loop $-1 $-1 $67 $32 #
plane-surface $-1 0 0 12.733336127410894 0 0 1 1 0 0 forward_v I I I I #
face $-1 $68 $69 $25 $-1 $70 reversed single #
loop $-1 $-1 $71 $33 #
plane-surface $-1 0 -46.699112976313472 0 0 1 0 0 0 1 forward_v I I I I #
face $-1 $72 $73 $26 $-1 $74 reversed single #
loop $-1 $-1 $75 $34 #
plane-surface $-1 87.547739371075068 -16.753876883743892 204.00510420763732 0 -1 0 -0.7660444514056185 0 -0.64278759981090561 forward_v I I I I #
face $-1 $76 $77 $27 $-1 $78 forward single #
loop $-1 $79 $80 $35 #
cone-surface $-1 66.088998532379378 -27.682029084547317 8.2751025455565053 -0.7660444514056185 0 -0.64278759981090561 0.64278759981090561 0 -0.7660444514056185 1 I I 0 1 1 forward I I I I #
face $-1 $81 $82 $28 $-1 $83 forward single #
loop $-1 $84 $85 $36 #
cone-surface $-1 66.088998532379378 -23.583972009246033 8.2751025455565053 -0.7660444514056185 0 -0.64278759981090561 0.64278759981090561 0 -0.7660444514056185 1 I I 0 1 1 forward I I I I #
face $-1 $86 $87 $29 $-1 $88 forward single #
loop $-1 $89 $90 $37 #
cone-surface $-1 66.088998532379378 -19.485914933944748 8.2751025455565053 -0.7660444514056185 0 -0.64278759981090561 0.64278759981090561 0 -0.7660444514056185 1 I I 0 1 1 forward I I I I #
face $-1 $91 $92 $30 $-1 $93 reversed single #
loop $-1 $-1 $94 $38 #
plane-surface $-1 -182.41693388645177 -10.653702912907249 86.540910427883787 0 1 0 -0.79863551827123203 0 0.60181501223851219 forward_v I I I I #
face $-1 $95 $96 $31 $-1 $97 forward single #
loop $-1 $98 $99 $39 #
cone-surface $-1 -65.540837344020289 -0.28765536219467691 6.8785817409367294 0.79863551827123203 0 -0.60181501223851219 0.90272251835776829 0 1.197953277406848 1 I I 0 1 1.5 forward I I I I #
face $-1 $100 $101 $24 $-1 $102 reversed single #
loop $-1 $-1 $103 $40 #
plane-surface $-1 0 0 -12.733336127410894 0 0 1 1 0 0 forward_v I I I I #
coedge $-1 $104 $105 $106 $107 forward $41 $-1 #
face $-1 $108 $109 $25 $-1 $110 forward single #
loop $-1 $-1 $111 $43 #
plane-surface $-1 -70.234076967680892 0 0 1 0 0 0 0 -1 forward_v I I I I #
coedge $-1 $112 $113 $114 $115 forward $44 $-1 #
face $-1 $116 $117 $26 $-1 $118 reversed single #
loop $-1 $-1 $119 $46 #
plane-surface $-1 -20.057110550299114 -23.583972009246033 113.7139166896573 0.7660444514056185 0 0.64278759981090561 0.64278759981090561 0 -0.7660444514056185 forward_v I I I I #
coedge $-1 $120 $121 $122 $123 reversed $47 $-1 #
face $-1 $-1 $124 $27 $-1 $125 forward single #
loop $-1 $126 $127 $49 #
cone-surface $-1 64.340108786643555 -27.682029084547317 6.8076098433605665 -0.7660444514056185 0 -0.64278759981090561 0.3213937999054528 0 -0.38302222570280925 1 I I -0.70710678118654746 0.70710678118654746 0.5 forward I I I I #
loop $-1 $-1 $128 $35 #
coedge $-1 $80 $80 $129 $130 reversed $50 $-1 #
face $-1 $-1 $131 $28 $-1 $132 forward single #
loop $-1 $133 $134 $52 #
cone-surface $-1 64.340108786643555 -23.583972009246033 6.8076098433605665 -0.7660444514056185 0 -0.64278759981090561 0.3213937999054528 0 -0.38302222570280925 1 I I -0.70710678118654746 0.70710678118654746 0.5 forward I I I I #
loop $-1 $-1 $135 $36 #
coedge $-1 $85 $85 $136 $137 reversed $53 $-1 #
face $-1 $-1 $138 $29 $-1 $139 forward single #
loop $-1 $140 $141 $55 #
cone-surface $-1 64.340108786643555 -19.485914933944748 6.8076098433605665 -0.7660444514056185 0 -0.64278759981090561 0.3213937999054528 0 -0.38302222570280925 1 I I -0.70710678118654746 0.70710678118654746 0.5 forward I I I I #
loop $-1 $-1 $142 $37 #
coedge $-1 $90 $90 $143 $144 reversed $56 $-1 #
face $-1 $145 $146 $30 $-1 $147 reversed single #
loop $-1 $-1 $148 $58 #
plane-surface $-1 -70.23407696768092 -0.28765536219467691 2.0050666481528197 -0.79863551827123203 0 0.60181501223851219 0.60181501223851219 0 0.79863551827123203 forward_v I I I I #
coedge $-1 $149 $150 $151 $152 reversed $59 $-1 #
face $-1 $-1 $153 $31 $-1 $154 forward single #
loop $-1 $155 $156 $61 #
cone-surface $-1 -64.290786425074558 -0.28765536219467691 5.9366008349127171 0.79863551827123203 0 -0.60181501223851219 0.45136125917888414 0 0.59897663870342399 1 I I -0.70710678118654757 0.70710678118654757 0.75 forward I I I I #
loop $-1 $-1 $157 $39 #
coedge $-1 $99 $99 $158 $159 reversed $62 $-1 #
face $-1 $160 $161 $24 $-1 $162 reversed single #
loop $-1 $-1 $163 $64 #
plane-surface $-1 0 -46.699112976313472 0 0 1 0 0 0 1 forward_v I I I I #
coedge $-1 $164 $165 $166 $167 forward $65 $-1 #
coedge $-1 $168 $67 $169 $170 forward $41 $-1 #
coedge $-1 $67 $168 $171 $172 forward $41 $-1 #
coedge $-1 $173 $174 $67 $107 reversed $175 $-1 #
edge $-1 $176 -46.699112976313472 $177 46.699112976313472 $106 $178 forward 7 unknown #
face $-1 $179 $180 $25 $-1 $181 reversed single #
loop $-1 $-1 $182 $68 #
plane-surface $-1 0 -54.841635897096126 3.4634524052330384 0 0 1 1 0 0 forward_v I I I I #
coedge $-1 $183 $184 $113 $185 forward $69 $-1 #
coedge $-1 $186 $71 $187 $188 reversed $44 $-1 #
coedge $-1 $71 $186 $111 $185 reversed $44 $-1 #
coedge $-1 $189 $182 $71 $115 reversed $109 $-1 #
edge $-1 $190 -70.234076967680892 $191 70.234076967680892 $114 $192 forward 7 unknown #
face $-1 $193 $194 $26 $-1 $195 reversed single #
loop $-1 $-1 $196 $72 #
plane-surface $-1 87.547739371075068 -30.414067134748173 204.00510420763732 0 1 0 0.7660444514056185 0 0.64278759981090561 forward_v I I I I #
coedge $-1 $197 $198 $199 $200 reversed $73 $-1 #
coedge $-1 $121 $75 $201 $202 reversed $47 $-1 #
coedge $-1 $75 $120 $197 $203 reversed $47 $-1 #
coedge $-1 $199 $204 $75 $123 forward $205 $-1 #
edge $-1 $206 -26.460207282143358 $207 -20.901785451606443 $122 $208 forward 7 unknown #
loop $-1 $-1 $129 $76 #
plane-surface $-1 -20.057110550299114 -23.583972009246033 113.7139166896573 0.7660444514056185 0 0.64278759981090561 0.64278759981090561 0 -0.7660444514056185 forward_v I I I I #
loop $-1 $-1 $209 $49 #
coedge $-1 $127 $127 $128 $210 reversed $77 $-1 #
coedge $-1 $128 $128 $127 $210 forward $79 $-1 #
coedge $-1 $129 $129 $80 $130 forward $124 $-1 #
edge $-1 $211 0 $211 6.2831853071796004 $129 $212 forward 7 unknown #
loop $-1 $-1 $136 $81 #
plane-surface $-1 -20.057110550299114 -23.583972009246033 113.7139166896573 0.7660444514056185 0 0.64278759981090561 0.64278759981090561 0 -0.7660444514056185 forward_v I I I I #
loop $-1 $-1 $213 $52 #
coedge $-1 $134 $134 $135 $214 reversed $82 $-1 #
coedge $-1 $135 $135 $134 $214 forward $84 $-1 #
coedge $-1 $136 $136 $85 $137 forward $131 $-1 #
edge $-1 $215 0 $215 6.2831853071796004 $136 $216 forward 7 unknown #
loop $-1 $-1 $143 $86 #
plane-surface $-1 -20.057110550299114 -23.583972009246033 113.7139166896573 0.7660444514056185 0 0.64278759981090561 0.64278759981090561 0 -0.7660444514056185 forward_v I I I I #
loop $-1 $-1 $217 $55 #
coedge $-1 $141 $141 $142 $218 reversed $87 $-1 #
coedge $-1 $142 $142 $141 $218 forward $89 $-1 #
coedge $-1 $143 $143 $90 $144 forward $138 $-1 #
edge $-1 $219 0 $219 6.2831853071796004 $143 $220 forward 7 unknown #
face $-1 $221 $222 $30 $-1 $223 forward single #
loop $-1 $-1 $224 $91 #
plane-surface $-1 -182.41693388645177 10.078392188517896 86.540910427883787 0 -1 0 0.79863551827123203 0 -0.60181501223851219 forward_v I I I I #
coedge $-1 $225 $226 $227 $228 reversed $92 $-1 #
coedge $-1 $150 $94 $229 $230 reversed $59 $-1 #
coedge $-1 $94 $149 $225 $231 reversed $59 $-1 #
coedge $-1 $227 $232 $94 $152 forward $222 $-1 #
edge $-1 $233 20.974389975544995 $234 29.058720662381546 $151 $235 forward 7 unknown #
loop $-1 $-1 $158 $95 #
plane-surface $-1 -70.23407696768092 -0.28765536219467691 2.0050666481528197 -0.79863551827123203 0 0.60181501223851219 0.60181501223851219 0 0.79863551827123203 forward_v I I I I #
loop $-1 $-1 $236 $61 #
coedge $-1 $156 $156 $157 $237 reversed $96 $-1 #
coedge $-1 $157 $157 $156 $237 forward $98 $-1 #
coedge $-1 $158 $158 $99 $159 forward $153 $-1 #
edge $-1 $238 0 $238 6.2831853071796004 $158 $239 forward 7 unknown #
face $-1 $240 $241 $24 $-1 $242 reversed single #
loop $-1 $-1 $243 $100 #
plane-surface $-1 -70.234076967680892 0 0 1 0 0 0 0 -1 forward_v I I I I #
coedge $-1 $244 $171 $245 $246 forward $101 $-1 #
coedge $-1 $247 $103 $244 $248 forward $65 $-1 #
coedge $-1 $103 $247 $249 $250 forward $65 $-1 #
coedge $-1 $174 $173 $103 $167 reversed $175 $-1 #
edge $-1 $251 -46.699112976313472 $252 46.699112976313472 $166 $253 forward 7 unknown #
coedge $-1 $105 $104 $254 $255 forward $41 $-1 #
coedge $-1 $256 $257 $104 $170 reversed $241 $-1 #
edge $-1 $177 -70.234076967680892 $258 70.234076967680892 $169 $259 forward 7 unknown #
coedge $-1 $163 $260 $105 $172 reversed $101 $-1 #
edge $-1 $261 -70.234076967680892 $176 70.234076967680892 $171 $262 forward 7 unknown #
coedge $-1 $166 $106 $260 $263 forward $175 $-1 #
coedge $-1 $106 $166 $256 $264 reversed $175 $-1 #
loop $-1 $-1 $173 $240 #
vertex $-1 $107 $265 #
vertex $-1 $107 $266 #
straight-curve $-1 70.234076967680892 0 12.733336127410894 0 1 0 I I #
face $-1 $267 $268 $25 $-1 $269 reversed single #
loop $-1 $-1 $270 $108 #
plane-surface $-1 0 -54.841635897096126 -2.5010509940765964 0 0 1 1 0 0 forward_v I I I I #
coedge $-1 $114 $271 $272 $273 forward $109 $-1 #
coedge $-1 $274 $111 $275 $276 reversed $69 $-1 #
coedge $-1 $111 $274 $189 $277 reversed $69 $-1 #
edge $-1 $190 -3.4634524052330384 $278 2.5010509940765964 $111 $279 forward 7 unknown #
coedge $-1 $113 $112 $280 $281 forward $44 $-1 #
coedge $-1 $272 $282 $112 $188 forward $283 $-1 #
edge $-1 $284 -2.5010509940765964 $191 3.4634524052330384 $187 $285 forward 7 unknown #
coedge $-1 $271 $114 $184 $277 forward $109 $-1 #
vertex $-1 $185 $286 #
vertex $-1 $273 $287 #
straight-curve $-1 0 -46.699112976313472 3.4634524052330384 1 0 0 I I #
face $-1 $-1 $205 $26 $-1 $288 forward single #
loop $-1 $-1 $289 $116 #
plane-surface $-1 70.234076967680892 0 0 -1 0 0 0 0 1 forward_v I I I I #
coedge $-1 $290 $291 $292 $293 reversed $117 $-1 #
coedge $-1 $294 $119 $121 $203 forward $73 $-1 #
coedge $-1 $119 $294 $290 $295 forward $73 $-1 #
coedge $-1 $292 $122 $119 $200 forward $205 $-1 #
edge $-1 $207 4.961890879120876 $296 18.622081130125157 $199 $297 forward 7 unknown #
coedge $-1 $298 $299 $120 $202 forward $194 $-1 #
edge $-1 $300 -95.893485335535544 $206 -89.269215976407764 $201 $301 forward 7 unknown #
edge $-1 $207 131.82078452099836 $300 140.46815393536181 $121 $302 forward 7 unknown #
coedge $-1 $122 $292 $298 $303 forward $205 $-1 #
loop $-1 $-1 $292 $193 #
vertex $-1 $202 $304 #
vertex $-1 $123 $305 #
straight-curve $-1 43.773869685537534 -16.753876883743892 12.733336127410894 -1 0 0 I I #
coedge $-1 $209 $209 $-1 $306 reversed $126 $-1 #
edge $-1 $307 0 $307 6.2831853071796004 $127 $308 forward 7 unknown #
vertex $-1 $130 $309 #
ellipse-curve $-1 67.454866052412427 -27.682029084547317 9.4212014478470127 0.7660444514056185 0 0.64278759981090561 0.64278759981090561 0 -0.7660444514056185 1 I I #
coedge $-1 $213 $213 $-1 $310 reversed $133 $-1 #
edge $-1 $311 0 $311 6.2831853071796004 $134 $312 forward 7 unknown #
vertex $-1 $137 $313 #
ellipse-curve $-1 67.454866052412427 -23.583972009246033 9.4212014478470127 0.7660444514056185 0 0.64278759981090561 0.64278759981090561 0 -0.7660444514056185 1 I I #
coedge $-1 $217 $217 $-1 $314 reversed $140 $-1 #
edge $-1 $315 0 $315 6.2831853071796004 $141 $316 forward 7 unknown #
vertex $-1 $144 $317 #
ellipse-curve $-1 67.454866052412427 -19.485914933944748 9.4212014478470127 0.7660444514056185 0 0.64278759981090561 0.64278759981090561 0 -0.7660444514056185 1 I I #
face $-1 $-1 $318 $30 $-1 $319 reversed single #
loop $-1 $-1 $151 $145 #
plane-surface $-1 0 0 12.733336127410894 0 0 1 1 0 0 forward_v I I I I #
coedge $-1 $320 $321 $322 $323 reversed $146 $-1 #
coedge $-1 $324 $148 $150 $231 forward $92 $-1 #
coedge $-1 $148 $324 $320 $325 forward $92 $-1 #
coedge $-1 $322 $151 $148 $228 forward $222 $-1 #
edge $-1 $234 -10.509875231809911 $326 10.222219869615234 $227 $327 forward 7 unknown #
coedge $-1 $328 $329 $149 $230 forward $318 $-1 #
edge $-1 $330 -41.265388565789038 $233 -30.537119086531 $229 $331 forward 7 unknown #
edge $-1 $234 -13.433248626959449 $330 -4.7251171791415696e-014 $150 $332 forward 7 unknown #
coedge $-1 $151 $322 $328 $333 forward $222 $-1 #
vertex $-1 $152 $334 #
vertex $-1 $152 $335 #
straight-curve $-1 -91.208466943225886 -10.653702912907249 12.733336127410894 1 0 0 I I #
coedge $-1 $236 $236 $-1 $336 reversed $155 $-1 #
edge $-1 $337 0 $337 6.2831853071796004 $156 $338 forward 7 unknown #
vertex $-1 $159 $339 #
ellipse-curve $-1 -66.191911624262616 -0.28765536219467691 7.3692013877818718 -0.79863551827123203 0 0.60181501223851219 0.90272251835776829 0 1.197953277406848 1 I I #
face $-1 $-1 $175 $24 $-1 $340 reversed single #
loop $-1 $-1 $256 $160 #
plane-surface $-1 0 46.699112976313472 0 0 -1 0 0 0 -1 forward_v I I I I #
coedge $-1 $341 $254 $257 $342 forward $161 $-1 #
coedge $-1 $260 $163 $164 $248 reversed $101 $-1 #
coedge $-1 $254 $341 $163 $246 reversed $161 $-1 #
edge $-1 $261 -12.733336127410894 $343 12.733336127410894 $245 $344 forward 7 unknown #
coedge $-1 $165 $164 $341 $345 forward $65 $-1 #
edge $-1 $252 -70.234076967680892 $343 70.234076967680892 $244 $346 forward 7 unknown #
coedge $-1 $257 $256 $165 $250 reversed $241 $-1 #
edge $-1 $347 -70.234076967680892 $251 70.234076967680892 $249 $348 forward 7 unknown #
vertex $-1 $167 $349 #
vertex $-1 $263 $350 #
straight-curve $-1 70.234076967680892 0 -12.733336127410894 0 -1 0 I I #
coedge $-1 $243 $245 $168 $255 reversed $161 $-1 #
edge $-1 $258 -46.699112976313472 $261 46.699112976313472 $254 $351 forward 7 unknown #
coedge $-1 $249 $169 $174 $264 forward $241 $-1 #
coedge $-1 $169 $249 $243 $342 reversed $241 $-1 #
vertex $-1 $170 $352 #
straight-curve $-1 0 46.699112976313472 12.733336127410894 -1 0 0 I I #
coedge $-1 $171 $244 $173 $263 reversed $101 $-1 #
vertex $-1 $255 $353 #
straight-curve $-1 0 -46.699112976313472 12.733336127410894 1 0 0 I I #
edge $-1 $176 -12.733336127410894 $252 12.733336127410894 $173 $354 forward 7 unknown #
edge $-1 $177 -12.733336127410894 $251 12.733336127410894 $174 $355 forward 7 unknown #
point $-1 70.234076967680892 -46.699112976313472 12.733336127410894 #
point $-1 70.234076967680892 46.699112976313472 12.733336127410894 #
face $-1 $-1 $283 $25 $-1 $356 reversed single #
loop $-1 $-1 $357 $179 #
plane-surface $-1 0 -62.984158817878779 0.48120070557822103 0 1 0 0 0 1 forward_v I I I I #
coedge $-1 $358 $280 $282 $359 forward $180 $-1 #
coedge $-1 $182 $189 $360 $361 forward $109 $-1 #
coedge $-1 $362 $187 $182 $273 reversed $283 $-1 #
edge $-1 $363 -8.1425229207826533 $191 8.1425229207826533 $272 $364 forward 7 unknown #
coedge $-1 $184 $183 $357 $365 reversed $69 $-1 #
coedge $-1 $280 $358 $183 $276 forward $180 $-1 #
edge $-1 $366 -8.1425229207826533 $278 8.1425229207826533 $183 $367 forward 7 unknown #
edge $-1 $190 -8.1425229207826533 $368 8.1425229207826533 $184 $369 forward 7 unknown #
vertex $-1 $185 $370 #
straight-curve $-1 -70.234076967680892 -46.699112976313472 0 0 0 -1 I I #
coedge $-1 $270 $275 $186 $281 reversed $180 $-1 #
edge $-1 $284 -70.234076967680892 $278 70.234076967680892 $280 $371 forward 7 unknown #
coedge $-1 $187 $362 $270 $359 reversed $283 $-1 #
loop $-1 $-1 $187 $267 #
vertex $-1 $188 $372 #
straight-curve $-1 70.234076967680892 -46.699112976313472 0 0 0 1 I I #
point $-1 -70.234076967680892 -46.699112976313472 3.4634524052330384 #
point $-1 70.234076967680892 -46.699112976313472 3.4634524052330384 #
plane-surface $-1 0 0 12.733336127410894 0 0 1 1 0 0 forward_v I I I I #
coedge $-1 $299 $298 $291 $373 forward $194 $-1 #
coedge $-1 $291 $196 $198 $295 reversed $117 $-1 #
coedge $-1 $196 $290 $289 $373 reversed $117 $-1 #
coedge $-1 $204 $199 $196 $293 forward $205 $-1 #
edge $-1 $296 20.901785451606443 $374 26.460207282143358 $292 $375 forward 7 unknown #
coedge $-1 $198 $197 $299 $376 reversed $73 $-1 #
edge $-1 $377 -140.46815393536181 $296 -131.82078452099836 $290 $378 forward 7 unknown #
vertex $-1 $200 $379 #
straight-curve $-1 64.675655137143977 -11.791986004623016 12.733336127410894 0 -1 0 I I #
coedge $-1 $289 $201 $204 $303 reversed $194 $-1 #
coedge $-1 $201 $289 $294 $376 forward $194 $-1 #
vertex $-1 $202 $380 #
straight-curve $-1 70.234076967680892 -16.753876883743892 102.00255210381866 0 0 1 I I #
straight-curve $-1 -20.057110550299114 -16.753876883743892 113.7139166896573 0.64278759981090561 0 -0.7660444514056185 I I #
edge $-1 $374 -30.414067134748173 $206 -16.753876883743892 $298 $381 forward 7 unknown #
point $-1 70.234076967680892 -16.753876883743892 12.733336127410894 #
point $-1 64.675655137143977 -16.753876883743892 12.733336127410894 #
edge $-1 $382 1 $382 0 $209 $-1 forward 7 unknown #
vertex $-1 $210 $383 #
ellipse-curve $-1 64.723131012346357 -27.682029084547317 7.1290036432660191 0.7660444514056185 0 0.64278759981090561 0.64278759981090561 0 -0.7660444514056185 1 I I #
point $-1 68.0976536522233 -27.682029084547317 8.6551569964413737 #
edge $-1 $384 1 $384 0 $213 $-1 forward 7 unknown #
vertex $-1 $214 $385 #
ellipse-curve $-1 64.723131012346357 -23.583972009246033 7.1290036432660191 0.7660444514056185 0 0.64278759981090561 0.64278759981090561 0 -0.7660444514056185 1 I I #
point $-1 68.0976536522233 -23.583972009246033 8.6551569964413737 #
edge $-1 $386 1 $386 0 $217 $-1 forward 7 unknown #
vertex $-1 $218 $387 #
ellipse-curve $-1 64.723131012346357 -19.485914933944748 7.1290036432660191 0.7660444514056185 0 0.64278759981090561 0.64278759981090561 0 -0.7660444514056185 1 I I #
point $-1 68.0976536522233 -19.485914933944748 8.6551569964413737 #
loop $-1 $-1 $229 $221 #
plane-surface $-1 -70.234076967680892 0 0 1 0 0 0 0 -1 forward_v I I I I #
coedge $-1 $321 $224 $226 $325 reversed $146 $-1 #
coedge $-1 $224 $320 $388 $389 reversed $146 $-1 #
coedge $-1 $232 $227 $224 $323 forward $222 $-1 #
edge $-1 $326 -29.058720662381546 $390 -20.974389975544995 $322 $391 forward 7 unknown #
coedge $-1 $226 $225 $329 $392 reversed $92 $-1 #
edge $-1 $393 4.7251171791415696e-014 $326 13.433248626959449 $320 $394 forward 7 unknown #
vertex $-1 $228 $395 #
straight-curve $-1 -62.14974628084434 -0.14382768109733846 12.733336127410894 0 1 0 I I #
coedge $-1 $388 $229 $232 $333 reversed $318 $-1 #
coedge $-1 $229 $388 $324 $392 forward $318 $-1 #
vertex $-1 $230 $396 #
straight-curve $-1 -70.234076967680892 -10.653702912907249 43.270455213941894 0 0 1 I I #
straight-curve $-1 -70.23407696768092 -10.653702912907249 2.0050666481528197 -0.60181501223851219 0 -0.79863551827123203 I I #
edge $-1 $390 -10.078392188517896 $233 10.653702912907249 $328 $397 forward 7 unknown #
point $-1 -70.234076967680892 -10.653702912907249 12.733336127410894 #
point $-1 -62.14974628084434 -10.653702912907249 12.733336127410894 #
edge $-1 $398 1 $398 0 $236 $-1 forward 7 unknown #
vertex $-1 $237 $399 #
ellipse-curve $-1 -64.889763063777977 -0.28765536219467691 6.3879620940916011 -0.79863551827123203 0 0.60181501223851219 0.90272251835776829 0 1.197953277406848 1 I I #
point $-1 -65.289189105904839 -0.28765536219467691 8.5671546651887063 #
plane-surface $-1 70.234076967680892 0 0 -1 0 0 0 0 1 forward_v I I I I #
coedge $-1 $245 $243 $247 $345 reversed $161 $-1 #
edge $-1 $258 -12.733336127410894 $347 12.733336127410894 $257 $400 forward 7 unknown #
vertex $-1 $345 $401 #
straight-curve $-1 -70.234076967680892 -46.699112976313472 0 0 0 -1 I I #
edge $-1 $343 -46.699112976313472 $347 46.699112976313472 $341 $402 forward 7 unknown #
straight-curve $-1 0 -46.699112976313472 -12.733336127410894 -1 0 0 I I #
vertex $-1 $250 $403 #
straight-curve $-1 0 46.699112976313472 -12.733336127410894 1 0 0 I I #
point $-1 70.234076967680892 46.699112976313472 -12.733336127410894 #
point $-1 70.234076967680892 -46.699112976313472 -12.733336127410894 #
straight-curve $-1 -70.234076967680892 0 12.733336127410894 0 -1 0 I I #
point $-1 -70.234076967680892 46.699112976313472 12.733336127410894 #
point $-1 -70.234076967680892 -46.699112976313472 12.733336127410894 #
straight-curve $-1 70.234076967680892 -46.699112976313472 0 0 0 -1 I I #
straight-curve $-1 70.234076967680892 46.699112976313472 0 0 0 -1 I I #
plane-surface $-1 70.234076967680892 0 0 -1 0 0 0 0 1 forward_v I I I I #
coedge $-1 $404 $360 $274 $365 forward $268 $-1 #
coedge $-1 $275 $270 $404 $405 forward $180 $-1 #
edge $-1 $284 -8.1425229207826533 $406 8.1425229207826533 $282 $407 forward 7 unknown #
coedge $-1 $357 $408 $271 $361 reversed $268 $-1 #
edge $-1 $368 -70.234076967680892 $363 70.234076967680892 $360 $409 forward 7 unknown #
coedge $-1 $282 $272 $408 $410 forward $283 $-1 #
vertex $-1 $273 $411 #
straight-curve $-1 70.234076967680892 -54.841635897096126 3.4634524052330384 0 1 0 I I #
edge $-1 $368 -2.9822516996548174 $366 2.9822516996548174 $274 $412 forward 7 unknown #
vertex $-1 $276 $413 #
straight-curve $-1 -70.234076967680892 -54.841635897096126 -2.5010509940765964 0 1 0 I I #
vertex $-1 $277 $414 #
straight-curve $-1 -70.234076967680892 -54.841635897096126 3.4634524052330384 0 -1 0 I I #
point $-1 -70.234076967680892 -46.699112976313472 -2.5010509940765964 #
straight-curve $-1 0 -46.699112976313472 -2.5010509940765964 -1 0 0 I I #
point $-1 70.234076967680892 -46.699112976313472 -2.5010509940765964 #
edge $-1 $374 89.269215976407764 $377 95.893485335535544 $289 $415 forward 7 unknown #
vertex $-1 $303 $416 #
straight-curve $-1 43.773869685537534 -30.414067134748173 12.733336127410894 1 0 0 I I #
edge $-1 $377 -18.622081130125157 $300 -4.961890879120876 $299 $417 forward 7 unknown #
vertex $-1 $376 $418 #
straight-curve $-1 -20.057110550299114 -30.414067134748173 113.7139166896573 -0.64278759981090561 0 0.7660444514056185 I I #
point $-1 64.675655137143977 -30.414067134748173 12.733336127410894 #
point $-1 70.234076967680892 -16.753876883743892 6.1090667682831139 #
straight-curve $-1 70.234076967680892 0 12.733336127410894 0 1 0 I I #
vertex $-1 $306 $419 #
point $-1 65.365918612157273 -27.682029084547317 6.3629591918604005 #
vertex $-1 $310 $420 #
point $-1 65.365918612157273 -23.583972009246033 6.3629591918604005 #
vertex $-1 $314 $421 #
point $-1 65.365918612157273 -19.485914933944748 6.3629591918604005 #
coedge $-1 $329 $328 $321 $389 forward $318 $-1 #
edge $-1 $390 30.537119086531 $393 41.265388565789038 $388 $422 forward 7 unknown #
vertex $-1 $333 $423 #
straight-curve $-1 -91.208466943225886 10.078392188517896 12.733336127410894 -1 0 0 I I #
edge $-1 $393 -10.222219869615234 $330 10.509875231809911 $329 $424 forward 7 unknown #
vertex $-1 $392 $425 #
straight-curve $-1 -70.23407696768092 10.078392188517896 2.0050666481528197 0.60181501223851219 0 0.79863551827123203 I I #
point $-1 -62.14974628084434 10.078392188517896 12.733336127410894 #
point $-1 -70.234076967680892 -10.653702912907249 2.0050666481528574 #
straight-curve $-1 -70.234076967680892 0 12.733336127410894 0 -1 0 I I #
vertex $-1 $336 $426 #
point $-1 -63.987040545420214 -0.28765536219467691 7.5859153714984497 #
straight-curve $-1 -70.234076967680892 46.699112976313472 0 0 0 -1 I I #
point $-1 -70.234076967680892 -46.699112976313472 -12.733336127410894 #
straight-curve $-1 -70.234076967680892 0 -12.733336127410894 0 1 0 I I #
point $-1 -70.234076967680892 46.699112976313472 -12.733336127410894 #
coedge $-1 $408 $357 $358 $405 reversed $268 $-1 #
edge $-1 $406 -70.234076967680892 $366 70.234076967680892 $404 $427 forward 7 unknown #
vertex $-1 $410 $428 #
straight-curve $-1 70.234076967680892 -54.841635897096126 -2.5010509940765964 0 -1 0 I I #
coedge $-1 $360 $404 $362 $410 reversed $268 $-1 #
straight-curve $-1 0 -62.984158817878779 3.4634524052330384 1 0 0 I I #
edge $-1 $363 -2.9822516996548174 $406 2.9822516996548174 $362 $429 forward 7 unknown #
point $-1 70.234076967680892 -62.984158817878779 3.4634524052330384 #
straight-curve $-1 -70.234076967680892 -62.984158817878779 0.48120070557822103 0 0 -1 I I #
point $-1 -70.234076967680892 -62.984158817878779 -2.5010509940765964 #
point $-1 -70.234076967680892 -62.984158817878779 3.4634524052330384 #
straight-curve $-1 70.234076967680892 -30.414067134748173 102.00255210381866 0 0 -1 I I #
point $-1 70.234076967680892 -30.414067134748173 12.733336127410894 #
straight-curve $-1 70.234076967680892 -11.791986004623016 6.109066768283121 0 1 0 I I #
point $-1 70.234076967680892 -30.414067134748173 6.1090667682831139 #
point $-1 63.957086560940745 -27.682029084547317 6.4862160434551139 #
point $-1 63.957086560940745 -23.583972009246033 6.4862160434551139 #
point $-1 63.957086560940745 -19.485914933944748 6.4862160434551139 #
straight-curve $-1 -70.234076967680892 10.078392188517896 43.270455213941894 0 0 -1 I I #
point $-1 -70.234076967680892 10.078392188517896 12.733336127410894 #
straight-curve $-1 -70.234076967680892 -0.14382768109733846 2.0050666481528481 0 -1 0 I I #
point $-1 -70.234076967680892 10.078392188517896 2.0050666481528574 #
point $-1 -63.691809786371131 -0.28765536219467691 5.485239575733833 #
straight-curve $-1 0 -62.984158817878779 -2.5010509940765964 -1 0 0 I I #
point $-1 70.234076967680892 -62.984158817878779 -2.5010509940765964 #
straight-curve $-1 70.234076967680892 -62.984158817878779 0.48120070557822103 0 0 -1 I I #
End-of-ACIS-data 