500 0 19 0           
7 Unknown 11 ACIS 5.0 NT 24 Fri Mar 26 18:27:17 1999 
-1 9.9999999999999995e-007 1e-010 
body $-1 $19 $-1 $20 #
body $-1 $21 $-1 $22 #
body $-1 $23 $-1 $24 #
body $-1 $25 $-1 $26 #
body $-1 $27 $-1 $28 #
body $-1 $29 $-1 $30 #
body $-1 $31 $-1 $32 #
body $-1 $33 $-1 $34 #
body $-1 $35 $-1 $36 #
body $-1 $37 $-1 $38 #
body $-1 $39 $-1 $40 #
body $-1 $41 $-1 $42 #
body $-1 $43 $-1 $44 #
body $-1 $45 $-1 $46 #
body $-1 $47 $-1 $48 #
body $-1 $49 $-1 $50 #
body $-1 $51 $-1 $52 #
body $-1 $53 $-1 $54 #
body $-1 $55 $-1 $56 #
lump $-1 $-1 $57 $0 #
transform $-1 1 0 0 0 1 0 0 0 1 49.361857966856903 22.572953036499442 10.024355870702779 1 rotate no_reflect no_shear #
lump $-1 $-1 $58 $1 #
transform $-1 1 0 0 0 1 0 0 0 1 17.927872487321558 6.3858943467816127 10.024355870702779 1 rotate no_reflect no_shear #
lump $-1 $-1 $59 $2 #
transform $-1 0.71933979245794832 0 0.69465837861970381 0 1 0 -0.69465837861970381 0 0.71933979245794832 -68.579256441825848 16.103002473093245 83.427295121981302 1 rotate no_reflect no_shear #
lump $-1 $-1 $60 $3 #
transform $-1 0.71933979245794832 0 0.69465837861970381 0 -1 0 0.69465837861970381 0 -0.71933979245794832 5.2638074553087169 14.675339424723237 14.87405633922911 1 rotate no_reflect no_shear #
lump $-1 $-1 $61 $4 #
transform $-1 0.71933979245794832 0 0.69465837861970381 0 -1 0 0.69465837861970381 0 -0.71933979245794832 5.2638074553087169 17.530665521463256 14.87405633922911 1 rotate no_reflect no_shear #
lump $-1 $-1 $62 $5 #
transform $-1 0.71933979245794832 0 0.69465837861970381 0 1 0 -0.69465837861970381 0 0.71933979245794832 -68.579256441825848 28.958847383281054 83.427295121981302 1 rotate no_reflect no_shear #
lump $-1 $-1 $63 $6 #
transform $-1 0.71933979245794832 0 0.69465837861970381 0 -1 0 0.69465837861970381 0 -0.71933979245794832 5.2638074553087169 27.531184334911046 14.87405633922911 1 rotate no_reflect no_shear #
lump $-1 $-1 $64 $7 #
transform $-1 0.71933979245794832 0 0.69465837861970381 0 -1 0 0.69465837861970381 0 -0.71933979245794832 5.2638074553087169 30.386510431651065 14.87405633922911 1 rotate no_reflect no_shear #
lump $-1 $-1 $65 $8 #
transform $-1 0.71933979245794832 0 0.69465837861970381 0 1 0 -0.69465837861970381 0 0.71933979245794832 -68.579256441825848 41.814692293468866 83.427295121981302 1 rotate no_reflect no_shear #
lump $-1 $-1 $66 $9 #
transform $-1 0.71933979245794832 0 0.69465837861970381 0 -1 0 0.69465837861970381 0 -0.71933979245794832 5.2638074553087169 40.387029245098859 14.87405633922911 1 rotate no_reflect no_shear #
lump $-1 $-1 $67 $10 #
transform $-1 0.71933979245794832 0 0.69465837861970381 0 -1 0 0.69465837861970381 0 -0.71933979245794832 5.2638074553087169 43.242355341838874 14.87405633922911 1 rotate no_reflect no_shear #
lump $-1 $-1 $68 $11 #
transform $-1 0.81915203911291934 0 -0.57357644374324357 0 1 0 0.57357644374324357 0 0.81915203911291934 74.479580616185302 16.053549746171882 148.3015048462635 1 rotate no_reflect no_shear #
lump $-1 $-1 $69 $12 #
transform $-1 0.81915203911291934 0 -0.57357644374324357 0 -1 0 -0.57357644374324357 0 -0.81915203911291934 91.107725344644237 14.084493114606687 13.976252163662458 1 rotate no_reflect no_shear #
lump $-1 $-1 $70 $13 #
transform $-1 0.81915203911291934 0 -0.57357644374324357 0 -1 0 -0.57357644374324357 0 -0.81915203911291934 91.107725344644237 16.053549746171882 13.976252163662458 1 rotate no_reflect no_shear #
lump $-1 $-1 $71 $14 #
transform $-1 0.81915203911291934 0 -0.57357644374324357 0 -1 0 -0.57357644374324357 0 -0.81915203911291934 91.107725344644237 18.022606377737077 13.976252163662458 1 rotate no_reflect no_shear #
lump $-1 $-1 $72 $15 #
transform $-1 0.81915203911291934 0 -0.57357644374324357 0 1 0 0.57357644374324357 0 0.81915203911291934 74.479580616185302 32.240608435889712 148.3015048462635 1 rotate no_reflect no_shear #
lump $-1 $-1 $73 $16 #
transform $-1 0.81915203911291934 0 -0.57357644374324357 0 -1 0 -0.57357644374324357 0 -0.81915203911291934 91.107725344644237 30.271551804324517 13.976252163662458 1 rotate no_reflect no_shear #
lump $-1 $-1 $74 $17 #
transform $-1 0.81915203911291934 0 -0.57357644374324357 0 -1 0 -0.57357644374324357 0 -0.81915203911291934 91.107725344644237 32.240608435889712 13.976252163662458 1 rotate no_reflect no_shear #
lump $-1 $-1 $75 $18 #
transform $-1 0.81915203911291934 0 -0.57357644374324357 0 -1 0 -0.57357644374324357 0 -0.81915203911291934 91.107725344644237 34.209665067454907 13.976252163662458 1 rotate no_reflect no_shear #
shell $-1 $-1 $-1 $76 $-1 $19 #
shell $-1 $-1 $-1 $77 $-1 $21 #
shell $-1 $-1 $-1 $78 $-1 $23 #
shell $-1 $-1 $-1 $79 $-1 $25 #
shell $-1 $-1 $-1 $80 $-1 $27 #
shell $-1 $-1 $-1 $81 $-1 $29 #
shell $-1 $-1 $-1 $82 $-1 $31 #
shell $-1 $-1 $-1 $83 $-1 $33 #
shell $-1 $-1 $-1 $84 $-1 $35 #
shell $-1 $-1 $-1 $85 $-1 $37 #
shell $-1 $-1 $-1 $86 $-1 $39 #
shell $-1 $-1 $-1 $87 $-1 $41 #
shell $-1 $-1 $-1 $88 $-1 $43 #
shell $-1 $-1 $-1 $89 $-1 $45 #
shell $-1 $-1 $-1 $90 $-1 $47 #
shell $-1 $-1 $-1 $91 $-1 $49 #
shell $-1 $-1 $-1 $92 $-1 $51 #
shell $-1 $-1 $-1 $93 $-1 $53 #
shell $-1 $-1 $-1 $94 $-1 $55 #
face $-1 $95 $96 $57 $-1 $97 forward single #
face $-1 $98 $99 $58 $-1 $100 forward single #
face $-1 $101 $102 $59 $-1 $103 forward single #
face $-1 $104 $105 $60 $-1 $106 forward single #
face $-1 $107 $108 $61 $-1 $109 forward single #
face $-1 $110 $111 $62 $-1 $112 forward single #
face $-1 $113 $114 $63 $-1 $115 forward single #
face $-1 $116 $117 $64 $-1 $118 forward single #
face $-1 $119 $120 $65 $-1 $121 forward single #
face $-1 $122 $123 $66 $-1 $124 forward single #
face $-1 $125 $126 $67 $-1 $127 forward single #
face $-1 $128 $129 $68 $-1 $130 forward single #
face $-1 $131 $132 $69 $-1 $133 forward single #
face $-1 $134 $135 $70 $-1 $136 forward single #
face $-1 $137 $138 $71 $-1 $139 forward single #
face $-1 $140 $141 $72 $-1 $142 forward single #
face $-1 $143 $144 $73 $-1 $145 forward single #
face $-1 $146 $147 $74 $-1 $148 forward single #
face $-1 $149 $150 $75 $-1 $151 forward single #
face $-1 $152 $153 $57 $-1 $154 reversed single #
loop $-1 $-1 $155 $76 #
plane-surface $-1 0 0 10.024355870702779 0 0 1 1 0 0 forward_v I I I I #
face $-1 $156 $157 $58 $-1 $158 reversed single #
loop $-1 $-1 $159 $77 #
plane-surface $-1 0 0 10.024355870702779 0 0 1 1 0 0 forward_v I I I I #
face $-1 $160 $161 $59 $-1 $162 reversed single #
loop $-1 $-1 $163 $78 #
plane-surface $-1 0 0 98.723715933713805 0 0 1 1 0 0 forward_v I I I I #
face $-1 $164 $165 $60 $-1 $166 forward single #
loop $-1 $167 $168 $79 #
cone-surface $-1 0 0 -1.0675298318430126 0 0 1 0.5 0 0 1 I I 0 1 0.5 forward I I I I #
face $-1 $169 $170 $61 $-1 $171 forward single #
loop $-1 $172 $173 $80 #
cone-surface $-1 0 0 -1.0675298318430126 0 0 1 0.5 0 0 1 I I 0 1 0.5 forward I I I I #
face $-1 $174 $175 $62 $-1 $176 reversed single #
loop $-1 $-1 $177 $81 #
plane-surface $-1 0 0 98.723715933713805 0 0 1 1 0 0 forward_v I I I I #
face $-1 $178 $179 $63 $-1 $180 forward single #
loop $-1 $181 $182 $82 #
cone-surface $-1 0 0 -1.0675298318430126 0 0 1 0.5 0 0 1 I I 0 1 0.5 forward I I I I #
face $-1 $183 $184 $64 $-1 $185 forward single #
loop $-1 $186 $187 $83 #
cone-surface $-1 0 0 -1.0675298318430126 0 0 1 0.5 0 0 1 I I 0 1 0.5 forward I I I I #
face $-1 $188 $189 $65 $-1 $190 reversed single #
loop $-1 $-1 $191 $84 #
plane-surface $-1 0 0 98.723715933713805 0 0 1 1 0 0 forward_v I I I I #
face $-1 $192 $193 $66 $-1 $194 forward single #
loop $-1 $195 $196 $85 #
cone-surface $-1 0 0 -1.0675298318430126 0 0 1 0.5 0 0 1 I I 0 1 0.5 forward I I I I #
face $-1 $197 $198 $67 $-1 $199 forward single #
loop $-1 $200 $201 $86 #
cone-surface $-1 0 0 -1.0675298318430126 0 0 1 0.5 0 0 1 I I 0 1 0.5 forward I I I I #
face $-1 $202 $203 $68 $-1 $204 reversed single #
loop $-1 $-1 $205 $87 #
plane-surface $-1 0 0 98.723715933713805 0 0 1 1 0 0 forward_v I I I I #
face $-1 $206 $207 $69 $-1 $208 forward single #
loop $-1 $209 $210 $88 #
cone-surface $-1 0 0 -1.0107882930997647 0 0 1 0.5 0 0 1 I I 0 1 0.5 forward I I I I #
face $-1 $211 $212 $70 $-1 $213 forward single #
loop $-1 $214 $215 $89 #
cone-surface $-1 0 0 -1.0107882930997647 0 0 1 0.5 0 0 1 I I 0 1 0.5 forward I I I I #
face $-1 $216 $217 $71 $-1 $218 forward single #
loop $-1 $219 $220 $90 #
cone-surface $-1 0 0 -1.0107882930997647 0 0 1 0.5 0 0 1 I I 0 1 0.5 forward I I I I #
face $-1 $221 $222 $72 $-1 $223 reversed single #
loop $-1 $-1 $224 $91 #
plane-surface $-1 0 0 98.723715933713805 0 0 1 1 0 0 forward_v I I I I #
face $-1 $225 $226 $73 $-1 $227 forward single #
loop $-1 $228 $229 $92 #
cone-surface $-1 0 0 -1.0107882930997647 0 0 1 0.5 0 0 1 I I 0 1 0.5 forward I I I I #
face $-1 $230 $231 $74 $-1 $232 forward single #
loop $-1 $233 $234 $93 #
cone-surface $-1 0 0 -1.0107882930997647 0 0 1 0.5 0 0 1 I I 0 1 0.5 forward I I I I #
face $-1 $235 $236 $75 $-1 $237 forward single #
loop $-1 $238 $239 $94 #
cone-surface $-1 0 0 -1.0107882930997647 0 0 1 0.5 0 0 1 I I 0 1 0.5 forward I I I I #
face $-1 $240 $241 $57 $-1 $242 reversed single #
loop $-1 $-1 $243 $95 #
plane-surface $-1 0 0 -10.024355870702779 0 0 1 1 0 0 forward_v I I I I #
coedge $-1 $244 $245 $246 $247 forward $96 $-1 #
face $-1 $248 $249 $58 $-1 $250 reversed single #
loop $-1 $-1 $251 $98 #
plane-surface $-1 0 0 -10.024355870702779 0 0 1 1 0 0 forward_v I I I I #
coedge $-1 $252 $253 $254 $255 forward $99 $-1 #
face $-1 $256 $257 $59 $-1 $258 reversed single #
loop $-1 $-1 $259 $101 #
plane-surface $-1 0 0 -98.723715933713805 0 0 1 1 0 0 forward_v I I I I #
coedge $-1 $260 $261 $262 $263 forward $102 $-1 #
face $-1 $-1 $264 $60 $-1 $265 forward single #
loop $-1 $-1 $266 $104 #
plane-surface $-1 0 0 -1.8850596636860253 0 0 -1 -1 0 0 forward_v I I I I #
loop $-1 $-1 $267 $79 #
coedge $-1 $168 $168 $266 $268 reversed $105 $-1 #
face $-1 $-1 $269 $61 $-1 $270 forward single #
loop $-1 $-1 $271 $107 #
plane-surface $-1 0 0 -1.8850596636860253 0 0 -1 -1 0 0 forward_v I I I I #
loop $-1 $-1 $272 $80 #
coedge $-1 $173 $173 $271 $273 reversed $108 $-1 #
face $-1 $274 $275 $62 $-1 $276 reversed single #
loop $-1 $-1 $277 $110 #
plane-surface $-1 0 0 -98.723715933713805 0 0 1 1 0 0 forward_v I I I I #
coedge $-1 $278 $279 $280 $281 forward $111 $-1 #
face $-1 $-1 $282 $63 $-1 $283 forward single #
loop $-1 $-1 $284 $113 #
plane-surface $-1 0 0 -1.8850596636860253 0 0 -1 -1 0 0 forward_v I I I I #
loop $-1 $-1 $285 $82 #
coedge $-1 $182 $182 $284 $286 reversed $114 $-1 #
face $-1 $-1 $287 $64 $-1 $288 forward single #
loop $-1 $-1 $289 $116 #
plane-surface $-1 0 0 -1.8850596636860253 0 0 -1 -1 0 0 forward_v I I I I #
loop $-1 $-1 $290 $83 #
coedge $-1 $187 $187 $289 $291 reversed $117 $-1 #
face $-1 $292 $293 $65 $-1 $294 reversed single #
loop $-1 $-1 $295 $119 #
plane-surface $-1 0 0 -98.723715933713805 0 0 1 1 0 0 forward_v I I I I #
coedge $-1 $296 $297 $298 $299 forward $120 $-1 #
face $-1 $-1 $300 $66 $-1 $301 forward single #
loop $-1 $-1 $302 $122 #
plane-surface $-1 0 0 -1.8850596636860253 0 0 -1 -1 0 0 forward_v I I I I #
loop $-1 $-1 $303 $85 #
coedge $-1 $196 $196 $302 $304 reversed $123 $-1 #
face $-1 $-1 $305 $67 $-1 $306 forward single #
loop $-1 $-1 $307 $125 #
plane-surface $-1 0 0 -1.8850596636860253 0 0 -1 -1 0 0 forward_v I I I I #
loop $-1 $-1 $308 $86 #
coedge $-1 $201 $201 $307 $309 reversed $126 $-1 #
face $-1 $310 $311 $68 $-1 $312 reversed single #
loop $-1 $-1 $313 $128 #
plane-surface $-1 0 0 -98.723715933713805 0 0 1 1 0 0 forward_v I I I I #
coedge $-1 $314 $315 $316 $317 forward $129 $-1 #
face $-1 $-1 $318 $69 $-1 $319 forward single #
loop $-1 $-1 $320 $131 #
plane-surface $-1 0 0 -1.7715765861995294 0 0 -1 -1 0 0 forward_v I I I I #
loop $-1 $-1 $321 $88 #
coedge $-1 $210 $210 $320 $322 reversed $132 $-1 #
face $-1 $-1 $323 $70 $-1 $324 forward single #
loop $-1 $-1 $325 $134 #
plane-surface $-1 0 0 -1.7715765861995294 0 0 -1 -1 0 0 forward_v I I I I #
loop $-1 $-1 $326 $89 #
coedge $-1 $215 $215 $325 $327 reversed $135 $-1 #
face $-1 $-1 $328 $71 $-1 $329 forward single #
loop $-1 $-1 $330 $137 #
plane-surface $-1 0 0 -1.7715765861995294 0 0 -1 -1 0 0 forward_v I I I I #
loop $-1 $-1 $331 $90 #
coedge $-1 $220 $220 $330 $332 reversed $138 $-1 #
face $-1 $333 $334 $72 $-1 $335 reversed single #
loop $-1 $-1 $336 $140 #
plane-surface $-1 0 0 -98.723715933713805 0 0 1 1 0 0 forward_v I I I I #
coedge $-1 $337 $338 $339 $340 forward $141 $-1 #
face $-1 $-1 $341 $73 $-1 $342 forward single #
loop $-1 $-1 $343 $143 #
plane-surface $-1 0 0 -1.7715765861995294 0 0 -1 -1 0 0 forward_v I I I I #
loop $-1 $-1 $344 $92 #
coedge $-1 $229 $229 $343 $345 reversed $144 $-1 #
face $-1 $-1 $346 $74 $-1 $347 forward single #
loop $-1 $-1 $348 $146 #
plane-surface $-1 0 0 -1.7715765861995294 0 0 -1 -1 0 0 forward_v I I I I #
loop $-1 $-1 $349 $93 #
coedge $-1 $234 $234 $348 $350 reversed $147 $-1 #
face $-1 $-1 $351 $75 $-1 $352 forward single #
loop $-1 $-1 $353 $149 #
plane-surface $-1 0 0 -1.7715765861995294 0 0 -1 -1 0 0 forward_v I I I I #
loop $-1 $-1 $354 $94 #
coedge $-1 $239 $239 $353 $355 reversed $150 $-1 #
face $-1 $356 $357 $57 $-1 $358 reversed single #
loop $-1 $-1 $359 $152 #
plane-surface $-1 0 -22.572953036499442 0 0 1 0 0 0 1 forward_v I I I I #
coedge $-1 $360 $361 $362 $363 forward $153 $-1 #
coedge $-1 $364 $155 $365 $366 forward $96 $-1 #
coedge $-1 $155 $364 $367 $368 forward $96 $-1 #
coedge $-1 $369 $370 $155 $247 reversed $371 $-1 #
edge $-1 $372 -22.572953036499442 $373 22.572953036499442 $246 $374 forward 7 unknown #
face $-1 $375 $376 $58 $-1 $377 reversed single #
loop $-1 $-1 $378 $156 #
plane-surface $-1 0 -6.3858943467816127 0 0 1 0 0 0 1 forward_v I I I I #
coedge $-1 $379 $380 $381 $382 forward $157 $-1 #
coedge $-1 $383 $159 $384 $385 forward $99 $-1 #
coedge $-1 $159 $383 $386 $387 forward $99 $-1 #
coedge $-1 $388 $389 $159 $255 reversed $390 $-1 #
edge $-1 $391 -6.3858943467816127 $392 6.3858943467816127 $254 $393 forward 7 unknown #
face $-1 $394 $395 $59 $-1 $396 reversed single #
loop $-1 $-1 $397 $160 #
plane-surface $-1 0 -3.3312137795300201 0 0 1 0 0 0 1 forward_v I I I I #
coedge $-1 $398 $399 $400 $401 forward $161 $-1 #
coedge $-1 $402 $163 $403 $404 forward $102 $-1 #
coedge $-1 $163 $402 $405 $406 forward $102 $-1 #
coedge $-1 $407 $408 $163 $263 reversed $409 $-1 #
edge $-1 $410 -3.3312137795300201 $411 3.3312137795300201 $262 $412 forward 7 unknown #
loop $-1 $413 $414 $164 #
cone-surface $-1 0 0 0 0 0 1 0.25 0 0 1 I I -0.70710678118654746 0.70710678118654746 0.25 forward I I I I #
coedge $-1 $266 $266 $168 $268 forward $165 $-1 #
coedge $-1 $267 $267 $414 $415 forward $167 $-1 #
edge $-1 $416 0 $416 6.2831853071796004 $266 $417 forward 7 unknown #
loop $-1 $418 $419 $169 #
cone-surface $-1 0 0 0 0 0 1 0.25 0 0 1 I I -0.70710678118654746 0.70710678118654746 0.25 forward I I I I #
coedge $-1 $271 $271 $173 $273 forward $170 $-1 #
coedge $-1 $272 $272 $419 $420 forward $172 $-1 #
edge $-1 $421 0 $421 6.2831853071796004 $271 $422 forward 7 unknown #
face $-1 $423 $424 $62 $-1 $425 reversed single #
loop $-1 $-1 $426 $174 #
plane-surface $-1 0 -3.3312137795300201 0 0 1 0 0 0 1 forward_v I I I I #
coedge $-1 $427 $428 $429 $430 forward $175 $-1 #
coedge $-1 $431 $177 $432 $433 forward $111 $-1 #
coedge $-1 $177 $431 $434 $435 forward $111 $-1 #
coedge $-1 $436 $437 $177 $281 reversed $438 $-1 #
edge $-1 $439 -3.3312137795300201 $440 3.3312137795300201 $280 $441 forward 7 unknown #
loop $-1 $442 $443 $178 #
cone-surface $-1 0 0 0 0 0 1 0.25 0 0 1 I I -0.70710678118654746 0.70710678118654746 0.25 forward I I I I #
coedge $-1 $284 $284 $182 $286 forward $179 $-1 #
coedge $-1 $285 $285 $443 $444 forward $181 $-1 #
edge $-1 $445 0 $445 6.2831853071796004 $284 $446 forward 7 unknown #
loop $-1 $447 $448 $183 #
cone-surface $-1 0 0 0 0 0 1 0.25 0 0 1 I I -0.70710678118654746 0.70710678118654746 0.25 forward I I I I #
coedge $-1 $289 $289 $187 $291 forward $184 $-1 #
coedge $-1 $290 $290 $448 $449 forward $186 $-1 #
edge $-1 $450 0 $450 6.2831853071796004 $289 $451 forward 7 unknown #
face $-1 $452 $453 $65 $-1 $454 reversed single #
loop $-1 $-1 $455 $188 #
plane-surface $-1 0 -3.3312137795300201 0 0 1 0 0 0 1 forward_v I I I I #
coedge $-1 $456 $457 $458 $459 forward $189 $-1 #
coedge $-1 $460 $191 $461 $462 forward $120 $-1 #
coedge $-1 $191 $460 $463 $464 forward $120 $-1 #
coedge $-1 $465 $466 $191 $299 reversed $467 $-1 #
edge $-1 $468 -3.3312137795300201 $469 3.3312137795300201 $298 $470 forward 7 unknown #
loop $-1 $471 $472 $192 #
cone-surface $-1 0 0 0 0 0 1 0.25 0 0 1 I I -0.70710678118654746 0.70710678118654746 0.25 forward I I I I #
coedge $-1 $302 $302 $196 $304 forward $193 $-1 #
coedge $-1 $303 $303 $472 $473 forward $195 $-1 #
edge $-1 $474 0 $474 6.2831853071796004 $302 $475 forward 7 unknown #
loop $-1 $476 $477 $197 #
cone-surface $-1 0 0 0 0 0 1 0.25 0 0 1 I I -0.70710678118654746 0.70710678118654746 0.25 forward I I I I #
coedge $-1 $307 $307 $201 $309 forward $198 $-1 #
coedge $-1 $308 $308 $477 $478 forward $200 $-1 #
edge $-1 $479 0 $479 6.2831853071796004 $307 $480 forward 7 unknown #
face $-1 $481 $482 $68 $-1 $483 reversed single #
loop $-1 $-1 $484 $202 #
plane-surface $-1 0 -3.2817610526086556 0 0 1 0 0 0 1 forward_v I I I I #
coedge $-1 $485 $486 $487 $488 forward $203 $-1 #
coedge $-1 $489 $205 $490 $491 forward $129 $-1 #
coedge $-1 $205 $489 $492 $493 forward $129 $-1 #
coedge $-1 $494 $495 $205 $317 reversed $496 $-1 #
edge $-1 $497 -3.2817610526086556 $498 3.2817610526086556 $316 $499 forward 7 unknown #
loop $-1 $500 $501 $206 #
cone-surface $-1 0 0 0 0 0 1 0.25 0 0 1 I I -0.70710678118654746 0.70710678118654746 0.25 forward I I I I #
coedge $-1 $320 $320 $210 $322 forward $207 $-1 #
coedge $-1 $321 $321 $501 $502 forward $209 $-1 #
edge $-1 $503 0 $503 6.2831853071796004 $320 $504 forward 7 unknown #
loop $-1 $505 $506 $211 #
cone-surface $-1 0 0 0 0 0 1 0.25 0 0 1 I I -0.70710678118654746 0.70710678118654746 0.25 forward I I I I #
coedge $-1 $325 $325 $215 $327 forward $212 $-1 #
coedge $-1 $326 $326 $506 $507 forward $214 $-1 #
edge $-1 $508 0 $508 6.2831853071796004 $325 $509 forward 7 unknown #
loop $-1 $510 $511 $216 #
cone-surface $-1 0 0 0 0 0 1 0.25 0 0 1 I I -0.70710678118654746 0.70710678118654746 0.25 forward I I I I #
coedge $-1 $330 $330 $220 $332 forward $217 $-1 #
coedge $-1 $331 $331 $511 $512 forward $219 $-1 #
edge $-1 $513 0 $513 6.2831853071796004 $330 $514 forward 7 unknown #
face $-1 $515 $516 $72 $-1 $517 reversed single #
loop $-1 $-1 $518 $221 #
plane-surface $-1 0 -3.2817610526086556 0 0 1 0 0 0 1 forward_v I I I I #
coedge $-1 $519 $520 $521 $522 forward $222 $-1 #
coedge $-1 $523 $224 $524 $525 forward $141 $-1 #
coedge $-1 $224 $523 $526 $527 forward $141 $-1 #
coedge $-1 $528 $529 $224 $340 reversed $530 $-1 #
edge $-1 $531 -3.2817610526086556 $532 3.2817610526086556 $339 $533 forward 7 unknown #
loop $-1 $534 $535 $225 #
cone-surface $-1 0 0 0 0 0 1 0.25 0 0 1 I I -0.70710678118654746 0.70710678118654746 0.25 forward I I I I #
coedge $-1 $343 $343 $229 $345 forward $226 $-1 #
coedge $-1 $344 $344 $535 $536 forward $228 $-1 #
edge $-1 $537 0 $537 6.2831853071796004 $343 $538 forward 7 unknown #
loop $-1 $539 $540 $230 #
cone-surface $-1 0 0 0 0 0 1 0.25 0 0 1 I I -0.70710678118654746 0.70710678118654746 0.25 forward I I I I #
coedge $-1 $348 $348 $234 $350 forward $231 $-1 #
coedge $-1 $349 $349 $540 $541 forward $233 $-1 #
edge $-1 $542 0 $542 6.2831853071796004 $348 $543 forward 7 unknown #
loop $-1 $544 $545 $235 #
cone-surface $-1 0 0 0 0 0 1 0.25 0 0 1 I I -0.70710678118654746 0.70710678118654746 0.25 forward I I I I #
coedge $-1 $353 $353 $239 $355 forward $236 $-1 #
coedge $-1 $354 $354 $545 $546 forward $238 $-1 #
edge $-1 $547 0 $547 6.2831853071796004 $353 $548 forward 7 unknown #
face $-1 $549 $550 $57 $-1 $551 reversed single #
loop $-1 $-1 $552 $240 #
plane-surface $-1 -49.361857966856903 0 0 1 0 0 0 0 -1 forward_v I I I I #
coedge $-1 $553 $367 $554 $555 forward $241 $-1 #
coedge $-1 $556 $243 $553 $557 forward $153 $-1 #
coedge $-1 $243 $556 $558 $559 forward $153 $-1 #
coedge $-1 $370 $369 $243 $363 reversed $371 $-1 #
edge $-1 $560 -22.572953036499442 $561 22.572953036499442 $362 $562 forward 7 unknown #
coedge $-1 $245 $244 $563 $564 forward $96 $-1 #
coedge $-1 $565 $566 $244 $366 reversed $550 $-1 #
edge $-1 $373 -49.361857966856903 $567 49.361857966856903 $365 $568 forward 7 unknown #
coedge $-1 $359 $569 $245 $368 reversed $241 $-1 #
edge $-1 $570 -49.361857966856903 $372 49.361857966856903 $367 $571 forward 7 unknown #
coedge $-1 $362 $246 $569 $572 forward $371 $-1 #
coedge $-1 $246 $362 $565 $573 reversed $371 $-1 #
loop $-1 $-1 $369 $549 #
vertex $-1 $247 $574 #
vertex $-1 $247 $575 #
straight-curve $-1 49.361857966856903 0 10.024355870702779 0 1 0 I I #
face $-1 $576 $577 $58 $-1 $578 reversed single #
loop $-1 $-1 $579 $248 #
plane-surface $-1 -1.6208392540839984 0 0 1 0 0 0 0 -1 forward_v I I I I #
coedge $-1 $580 $386 $581 $582 forward $249 $-1 #
coedge $-1 $583 $251 $580 $584 forward $157 $-1 #
coedge $-1 $251 $583 $585 $586 forward $157 $-1 #
coedge $-1 $389 $388 $251 $382 reversed $390 $-1 #
edge $-1 $587 -6.3858943467816127 $588 6.3858943467816127 $381 $589 forward 7 unknown #
coedge $-1 $253 $252 $590 $591 forward $99 $-1 #
coedge $-1 $592 $593 $252 $385 reversed $577 $-1 #
edge $-1 $392 -1.6208392540839984 $594 1.6208392540839984 $384 $595 forward 7 unknown #
coedge $-1 $378 $596 $253 $387 reversed $249 $-1 #
edge $-1 $597 -1.6208392540839984 $391 1.6208392540839984 $386 $598 forward 7 unknown #
coedge $-1 $381 $254 $596 $599 forward $390 $-1 #
coedge $-1 $254 $381 $592 $600 reversed $390 $-1 #
loop $-1 $-1 $388 $576 #
vertex $-1 $255 $601 #
vertex $-1 $255 $602 #
straight-curve $-1 1.6208392540839984 0 10.024355870702779 0 1 0 I I #
face $-1 $603 $604 $59 $-1 $605 reversed single #
loop $-1 $-1 $606 $256 #
plane-surface $-1 -197.44743186742761 0 0 1 0 0 0 0 -1 forward_v I I I I #
coedge $-1 $607 $405 $608 $609 forward $257 $-1 #
coedge $-1 $610 $259 $607 $611 forward $161 $-1 #
coedge $-1 $259 $610 $612 $613 forward $161 $-1 #
coedge $-1 $408 $407 $259 $401 reversed $409 $-1 #
edge $-1 $614 -3.3312137795300201 $615 3.3312137795300201 $400 $616 forward 7 unknown #
coedge $-1 $261 $260 $617 $618 forward $102 $-1 #
coedge $-1 $619 $620 $260 $404 reversed $604 $-1 #
edge $-1 $411 -197.44743186742761 $621 197.44743186742761 $403 $622 forward 7 unknown #
coedge $-1 $397 $623 $261 $406 reversed $257 $-1 #
edge $-1 $624 -197.44743186742761 $410 197.44743186742761 $405 $625 forward 7 unknown #
coedge $-1 $400 $262 $623 $626 forward $409 $-1 #
coedge $-1 $262 $400 $619 $627 reversed $409 $-1 #
loop $-1 $-1 $407 $603 #
vertex $-1 $263 $628 #
vertex $-1 $263 $629 #
straight-curve $-1 197.44743186742761 0 98.723715933713805 0 1 0 I I #
loop $-1 $-1 $630 $164 #
coedge $-1 $414 $414 $267 $415 reversed $264 $-1 #
edge $-1 $631 0 $631 6.2831853071796004 $414 $632 forward 7 unknown #
vertex $-1 $268 $633 #
ellipse-curve $-1 0 0 -1.8850596636860253 0 0 -1 0.5 0 0 1 I I #
loop $-1 $-1 $634 $169 #
coedge $-1 $419 $419 $272 $420 reversed $269 $-1 #
edge $-1 $635 0 $635 6.2831853071796004 $419 $636 forward 7 unknown #
vertex $-1 $273 $637 #
ellipse-curve $-1 0 0 -1.8850596636860253 0 0 -1 0.5 0 0 1 I I #
face $-1 $638 $639 $62 $-1 $640 reversed single #
loop $-1 $-1 $641 $274 #
plane-surface $-1 -197.44743186742761 0 0 1 0 0 0 0 -1 forward_v I I I I #
coedge $-1 $642 $434 $643 $644 forward $275 $-1 #
coedge $-1 $645 $277 $642 $646 forward $175 $-1 #
coedge $-1 $277 $645 $647 $648 forward $175 $-1 #
coedge $-1 $437 $436 $277 $430 reversed $438 $-1 #
edge $-1 $649 -3.3312137795300201 $650 3.3312137795300201 $429 $651 forward 7 unknown #
coedge $-1 $279 $278 $652 $653 forward $111 $-1 #
coedge $-1 $654 $655 $278 $433 reversed $639 $-1 #
edge $-1 $440 -197.44743186742761 $656 197.44743186742761 $432 $657 forward 7 unknown #
coedge $-1 $426 $658 $279 $435 reversed $275 $-1 #
edge $-1 $659 -197.44743186742761 $439 197.44743186742761 $434 $660 forward 7 unknown #
coedge $-1 $429 $280 $658 $661 forward $438 $-1 #
coedge $-1 $280 $429 $654 $662 reversed $438 $-1 #
loop $-1 $-1 $436 $638 #
vertex $-1 $281 $663 #
vertex $-1 $281 $664 #
straight-curve $-1 197.44743186742761 0 98.723715933713805 0 1 0 I I #
loop $-1 $-1 $665 $178 #
coedge $-1 $443 $443 $285 $444 reversed $282 $-1 #
edge $-1 $666 0 $666 6.2831853071796004 $443 $667 forward 7 unknown #
vertex $-1 $286 $668 #
ellipse-curve $-1 0 0 -1.8850596636860253 0 0 -1 0.5 0 0 1 I I #
loop $-1 $-1 $669 $183 #
coedge $-1 $448 $448 $290 $449 reversed $287 $-1 #
edge $-1 $670 0 $670 6.2831853071796004 $448 $671 forward 7 unknown #
vertex $-1 $291 $672 #
ellipse-curve $-1 0 0 -1.8850596636860253 0 0 -1 0.5 0 0 1 I I #
face $-1 $673 $674 $65 $-1 $675 reversed single #
loop $-1 $-1 $676 $292 #
plane-surface $-1 -197.44743186742761 0 0 1 0 0 0 0 -1 forward_v I I I I #
coedge $-1 $677 $463 $678 $679 forward $293 $-1 #
coedge $-1 $680 $295 $677 $681 forward $189 $-1 #
coedge $-1 $295 $680 $682 $683 forward $189 $-1 #
coedge $-1 $466 $465 $295 $459 reversed $467 $-1 #
edge $-1 $684 -3.3312137795300201 $685 3.3312137795300201 $458 $686 forward 7 unknown #
coedge $-1 $297 $296 $687 $688 forward $120 $-1 #
coedge $-1 $689 $690 $296 $462 reversed $674 $-1 #
edge $-1 $469 -197.44743186742761 $691 197.44743186742761 $461 $692 forward 7 unknown #
coedge $-1 $455 $693 $297 $464 reversed $293 $-1 #
edge $-1 $694 -197.44743186742761 $468 197.44743186742761 $463 $695 forward 7 unknown #
coedge $-1 $458 $298 $693 $696 forward $467 $-1 #
coedge $-1 $298 $458 $689 $697 reversed $467 $-1 #
loop $-1 $-1 $465 $673 #
vertex $-1 $299 $698 #
vertex $-1 $299 $699 #
straight-curve $-1 197.44743186742761 0 98.723715933713805 0 1 0 I I #
loop $-1 $-1 $700 $192 #
coedge $-1 $472 $472 $303 $473 reversed $300 $-1 #
edge $-1 $701 0 $701 6.2831853071796004 $472 $702 forward 7 unknown #
vertex $-1 $304 $703 #
ellipse-curve $-1 0 0 -1.8850596636860253 0 0 -1 0.5 0 0 1 I I #
loop $-1 $-1 $704 $197 #
coedge $-1 $477 $477 $308 $478 reversed $305 $-1 #
edge $-1 $705 0 $705 6.2831853071796004 $477 $706 forward 7 unknown #
vertex $-1 $309 $707 #
ellipse-curve $-1 0 0 -1.8850596636860253 0 0 -1 0.5 0 0 1 I I #
face $-1 $708 $709 $68 $-1 $710 reversed single #
loop $-1 $-1 $711 $310 #
plane-surface $-1 -197.44743186742761 0 0 1 0 0 0 0 -1 forward_v I I I I #
coedge $-1 $712 $492 $713 $714 forward $311 $-1 #
coedge $-1 $715 $313 $712 $716 forward $203 $-1 #
coedge $-1 $313 $715 $717 $718 forward $203 $-1 #
coedge $-1 $495 $494 $313 $488 reversed $496 $-1 #
edge $-1 $719 -3.2817610526086556 $720 3.2817610526086556 $487 $721 forward 7 unknown #
coedge $-1 $315 $314 $722 $723 forward $129 $-1 #
coedge $-1 $724 $725 $314 $491 reversed $709 $-1 #
edge $-1 $498 -197.44743186742761 $726 197.44743186742761 $490 $727 forward 7 unknown #
coedge $-1 $484 $728 $315 $493 reversed $311 $-1 #
edge $-1 $729 -197.44743186742761 $497 197.44743186742761 $492 $730 forward 7 unknown #
coedge $-1 $487 $316 $728 $731 forward $496 $-1 #
coedge $-1 $316 $487 $724 $732 reversed $496 $-1 #
loop $-1 $-1 $494 $708 #
vertex $-1 $317 $733 #
vertex $-1 $317 $734 #
straight-curve $-1 197.44743186742761 0 98.723715933713805 0 1 0 I I #
loop $-1 $-1 $735 $206 #
coedge $-1 $501 $501 $321 $502 reversed $318 $-1 #
edge $-1 $736 0 $736 6.2831853071796004 $501 $737 forward 7 unknown #
vertex $-1 $322 $738 #
ellipse-curve $-1 0 0 -1.7715765861995294 0 0 -1 0.5 0 0 1 I I #
loop $-1 $-1 $739 $211 #
coedge $-1 $506 $506 $326 $507 reversed $323 $-1 #
edge $-1 $740 0 $740 6.2831853071796004 $506 $741 forward 7 unknown #
vertex $-1 $327 $742 #
ellipse-curve $-1 0 0 -1.7715765861995294 0 0 -1 0.5 0 0 1 I I #
loop $-1 $-1 $743 $216 #
coedge $-1 $511 $511 $331 $512 reversed $328 $-1 #
edge $-1 $744 0 $744 6.2831853071796004 $511 $745 forward 7 unknown #
vertex $-1 $332 $746 #
ellipse-curve $-1 0 0 -1.7715765861995294 0 0 -1 0.5 0 0 1 I I #
face $-1 $747 $748 $72 $-1 $749 reversed single #
loop $-1 $-1 $750 $333 #
plane-surface $-1 -197.44743186742761 0 0 1 0 0 0 0 -1 forward_v I I I I #
coedge $-1 $751 $526 $752 $753 forward $334 $-1 #
coedge $-1 $754 $336 $751 $755 forward $222 $-1 #
coedge $-1 $336 $754 $756 $757 forward $222 $-1 #
coedge $-1 $529 $528 $336 $522 reversed $530 $-1 #
edge $-1 $758 -3.2817610526086556 $759 3.2817610526086556 $521 $760 forward 7 unknown #
coedge $-1 $338 $337 $761 $762 forward $141 $-1 #
coedge $-1 $763 $764 $337 $525 reversed $748 $-1 #
edge $-1 $532 -197.44743186742761 $765 197.44743186742761 $524 $766 forward 7 unknown #
coedge $-1 $518 $767 $338 $527 reversed $334 $-1 #
edge $-1 $768 -197.44743186742761 $531 197.44743186742761 $526 $769 forward 7 unknown #
coedge $-1 $521 $339 $767 $770 forward $530 $-1 #
coedge $-1 $339 $521 $763 $771 reversed $530 $-1 #
loop $-1 $-1 $528 $747 #
vertex $-1 $340 $772 #
vertex $-1 $340 $773 #
straight-curve $-1 197.44743186742761 0 98.723715933713805 0 1 0 I I #
loop $-1 $-1 $774 $225 #
coedge $-1 $535 $535 $344 $536 reversed $341 $-1 #
edge $-1 $775 0 $775 6.2831853071796004 $535 $776 forward 7 unknown #
vertex $-1 $345 $777 #
ellipse-curve $-1 0 0 -1.7715765861995294 0 0 -1 0.5 0 0 1 I I #
loop $-1 $-1 $778 $230 #
coedge $-1 $540 $540 $349 $541 reversed $346 $-1 #
edge $-1 $779 0 $779 6.2831853071796004 $540 $780 forward 7 unknown #
vertex $-1 $350 $781 #
ellipse-curve $-1 0 0 -1.7715765861995294 0 0 -1 0.5 0 0 1 I I #
loop $-1 $-1 $782 $235 #
coedge $-1 $545 $545 $354 $546 reversed $351 $-1 #
edge $-1 $783 0 $783 6.2831853071796004 $545 $784 forward 7 unknown #
vertex $-1 $355 $785 #
ellipse-curve $-1 0 0 -1.7715765861995294 0 0 -1 0.5 0 0 1 I I #
face $-1 $-1 $371 $57 $-1 $786 reversed single #
loop $-1 $-1 $565 $356 #
plane-surface $-1 0 22.572953036499442 0 0 -1 0 0 0 -1 forward_v I I I I #
coedge $-1 $787 $563 $566 $788 forward $357 $-1 #
coedge $-1 $569 $359 $360 $557 reversed $241 $-1 #
coedge $-1 $563 $787 $359 $555 reversed $357 $-1 #
edge $-1 $570 -10.024355870702779 $789 10.024355870702779 $554 $790 forward 7 unknown #
coedge $-1 $361 $360 $787 $791 forward $153 $-1 #
edge $-1 $561 -49.361857966856903 $789 49.361857966856903 $553 $792 forward 7 unknown #
coedge $-1 $566 $565 $361 $559 reversed $550 $-1 #
edge $-1 $793 -49.361857966856903 $560 49.361857966856903 $558 $794 forward 7 unknown #
vertex $-1 $363 $795 #
vertex $-1 $572 $796 #
straight-curve $-1 49.361857966856903 0 -10.024355870702779 0 -1 0 I I #
coedge $-1 $552 $554 $364 $564 reversed $357 $-1 #
edge $-1 $567 -22.572953036499442 $570 22.572953036499442 $563 $797 forward 7 unknown #
coedge $-1 $558 $365 $370 $573 forward $550 $-1 #
coedge $-1 $365 $558 $552 $788 reversed $550 $-1 #
vertex $-1 $366 $798 #
straight-curve $-1 0 22.572953036499442 10.024355870702779 -1 0 0 I I #
coedge $-1 $367 $553 $369 $572 reversed $241 $-1 #
vertex $-1 $564 $799 #
straight-curve $-1 0 -22.572953036499442 10.024355870702779 1 0 0 I I #
edge $-1 $372 -10.024355870702779 $561 10.024355870702779 $369 $800 forward 7 unknown #
edge $-1 $373 -10.024355870702779 $560 10.024355870702779 $370 $801 forward 7 unknown #
point $-1 49.361857966856903 -22.572953036499442 10.024355870702779 #
point $-1 49.361857966856903 22.572953036499442 10.024355870702779 #
face $-1 $-1 $390 $58 $-1 $802 reversed single #
loop $-1 $-1 $592 $375 #
plane-surface $-1 0 6.3858943467816127 0 0 -1 0 0 0 -1 forward_v I I I I #
coedge $-1 $803 $590 $593 $804 forward $376 $-1 #
coedge $-1 $596 $378 $379 $584 reversed $249 $-1 #
coedge $-1 $590 $803 $378 $582 reversed $376 $-1 #
edge $-1 $597 -10.024355870702779 $805 10.024355870702779 $581 $806 forward 7 unknown #
coedge $-1 $380 $379 $803 $807 forward $157 $-1 #
edge $-1 $588 -1.6208392540839984 $805 1.6208392540839984 $580 $808 forward 7 unknown #
coedge $-1 $593 $592 $380 $586 reversed $577 $-1 #
edge $-1 $809 -1.6208392540839984 $587 1.6208392540839984 $585 $810 forward 7 unknown #
vertex $-1 $382 $811 #
vertex $-1 $599 $812 #
straight-curve $-1 1.6208392540839984 0 -10.024355870702779 0 -1 0 I I #
coedge $-1 $579 $581 $383 $591 reversed $376 $-1 #
edge $-1 $594 -6.3858943467816127 $597 6.3858943467816127 $590 $813 forward 7 unknown #
coedge $-1 $585 $384 $389 $600 forward $577 $-1 #
coedge $-1 $384 $585 $579 $804 reversed $577 $-1 #
vertex $-1 $385 $814 #
straight-curve $-1 0 6.3858943467816127 10.024355870702779 -1 0 0 I I #
coedge $-1 $386 $580 $388 $599 reversed $249 $-1 #
vertex $-1 $591 $815 #
straight-curve $-1 0 -6.3858943467816127 10.024355870702779 1 0 0 I I #
edge $-1 $391 -10.024355870702779 $588 10.024355870702779 $388 $816 forward 7 unknown #
edge $-1 $392 -10.024355870702779 $587 10.024355870702779 $389 $817 forward 7 unknown #
point $-1 1.6208392540839984 -6.3858943467816127 10.024355870702779 #
point $-1 1.6208392540839984 6.3858943467816127 10.024355870702779 #
face $-1 $-1 $409 $59 $-1 $818 reversed single #
loop $-1 $-1 $619 $394 #
plane-surface $-1 0 3.3312137795300201 0 0 -1 0 0 0 -1 forward_v I I I I #
coedge $-1 $819 $617 $620 $820 forward $395 $-1 #
coedge $-1 $623 $397 $398 $611 reversed $257 $-1 #
coedge $-1 $617 $819 $397 $609 reversed $395 $-1 #
edge $-1 $624 -98.723715933713805 $821 98.723715933713805 $608 $822 forward 7 unknown #
coedge $-1 $399 $398 $819 $823 forward $161 $-1 #
edge $-1 $615 -197.44743186742761 $821 197.44743186742761 $607 $824 forward 7 unknown #
coedge $-1 $620 $619 $399 $613 reversed $604 $-1 #
edge $-1 $825 -197.44743186742761 $614 197.44743186742761 $612 $826 forward 7 unknown #
vertex $-1 $401 $827 #
vertex $-1 $626 $828 #
straight-curve $-1 197.44743186742761 0 -98.723715933713805 0 -1 0 I I #
coedge $-1 $606 $608 $402 $618 reversed $395 $-1 #
edge $-1 $621 -3.3312137795300201 $624 3.3312137795300201 $617 $829 forward 7 unknown #
coedge $-1 $612 $403 $408 $627 forward $604 $-1 #
coedge $-1 $403 $612 $606 $820 reversed $604 $-1 #
vertex $-1 $404 $830 #
straight-curve $-1 0 3.3312137795300201 98.723715933713805 -1 0 0 I I #
coedge $-1 $405 $607 $407 $626 reversed $257 $-1 #
vertex $-1 $618 $831 #
straight-curve $-1 0 -3.3312137795300201 98.723715933713805 1 0 0 I I #
edge $-1 $410 -98.723715933713805 $615 98.723715933713805 $407 $832 forward 7 unknown #
edge $-1 $411 -98.723715933713805 $614 98.723715933713805 $408 $833 forward 7 unknown #
point $-1 197.44743186742761 -3.3312137795300201 98.723715933713805 #
point $-1 197.44743186742761 3.3312137795300201 98.723715933713805 #
coedge $-1 $630 $630 $-1 $834 reversed $413 $-1 #
vertex $-1 $415 $835 #
ellipse-curve $-1 0 0 -0.25 0 0 -1 0.5 0 0 1 I I #
point $-1 0.5 0 -1.8850596636860253 #
coedge $-1 $634 $634 $-1 $836 reversed $418 $-1 #
vertex $-1 $420 $837 #
ellipse-curve $-1 0 0 -0.25 0 0 -1 0.5 0 0 1 I I #
point $-1 0.5 0 -1.8850596636860253 #
face $-1 $-1 $438 $62 $-1 $838 reversed single #
loop $-1 $-1 $654 $423 #
plane-surface $-1 0 3.3312137795300201 0 0 -1 0 0 0 -1 forward_v I I I I #
coedge $-1 $839 $652 $655 $840 forward $424 $-1 #
coedge $-1 $658 $426 $427 $646 reversed $275 $-1 #
coedge $-1 $652 $839 $426 $644 reversed $424 $-1 #
edge $-1 $659 -98.723715933713805 $841 98.723715933713805 $643 $842 forward 7 unknown #
coedge $-1 $428 $427 $839 $843 forward $175 $-1 #
edge $-1 $650 -197.44743186742761 $841 197.44743186742761 $642 $844 forward 7 unknown #
coedge $-1 $655 $654 $428 $648 reversed $639 $-1 #
edge $-1 $845 -197.44743186742761 $649 197.44743186742761 $647 $846 forward 7 unknown #
vertex $-1 $430 $847 #
vertex $-1 $661 $848 #
straight-curve $-1 197.44743186742761 0 -98.723715933713805 0 -1 0 I I #
coedge $-1 $641 $643 $431 $653 reversed $424 $-1 #
edge $-1 $656 -3.3312137795300201 $659 3.3312137795300201 $652 $849 forward 7 unknown #
coedge $-1 $647 $432 $437 $662 forward $639 $-1 #
coedge $-1 $432 $647 $641 $840 reversed $639 $-1 #
vertex $-1 $433 $850 #
straight-curve $-1 0 3.3312137795300201 98.723715933713805 -1 0 0 I I #
coedge $-1 $434 $642 $436 $661 reversed $275 $-1 #
vertex $-1 $653 $851 #
straight-curve $-1 0 -3.3312137795300201 98.723715933713805 1 0 0 I I #
edge $-1 $439 -98.723715933713805 $650 98.723715933713805 $436 $852 forward 7 unknown #
edge $-1 $440 -98.723715933713805 $649 98.723715933713805 $437 $853 forward 7 unknown #
point $-1 197.44743186742761 -3.3312137795300201 98.723715933713805 #
point $-1 197.44743186742761 3.3312137795300201 98.723715933713805 #
coedge $-1 $665 $665 $-1 $854 reversed $442 $-1 #
vertex $-1 $444 $855 #
ellipse-curve $-1 0 0 -0.25 0 0 -1 0.5 0 0 1 I I #
point $-1 0.5 0 -1.8850596636860253 #
coedge $-1 $669 $669 $-1 $856 reversed $447 $-1 #
vertex $-1 $449 $857 #
ellipse-curve $-1 0 0 -0.25 0 0 -1 0.5 0 0 1 I I #
point $-1 0.5 0 -1.8850596636860253 #
face $-1 $-1 $467 $65 $-1 $858 reversed single #
loop $-1 $-1 $689 $452 #
plane-surface $-1 0 3.3312137795300201 0 0 -1 0 0 0 -1 forward_v I I I I #
coedge $-1 $859 $687 $690 $860 forward $453 $-1 #
coedge $-1 $693 $455 $456 $681 reversed $293 $-1 #
coedge $-1 $687 $859 $455 $679 reversed $453 $-1 #
edge $-1 $694 -98.723715933713805 $861 98.723715933713805 $678 $862 forward 7 unknown #
coedge $-1 $457 $456 $859 $863 forward $189 $-1 #
edge $-1 $685 -197.44743186742761 $861 197.44743186742761 $677 $864 forward 7 unknown #
coedge $-1 $690 $689 $457 $683 reversed $674 $-1 #
edge $-1 $865 -197.44743186742761 $684 197.44743186742761 $682 $866 forward 7 unknown #
vertex $-1 $459 $867 #
vertex $-1 $696 $868 #
straight-curve $-1 197.44743186742761 0 -98.723715933713805 0 -1 0 I I #
coedge $-1 $676 $678 $460 $688 reversed $453 $-1 #
edge $-1 $691 -3.3312137795300201 $694 3.3312137795300201 $687 $869 forward 7 unknown #
coedge $-1 $682 $461 $466 $697 forward $674 $-1 #
coedge $-1 $461 $682 $676 $860 reversed $674 $-1 #
vertex $-1 $462 $870 #
straight-curve $-1 0 3.3312137795300201 98.723715933713805 -1 0 0 I I #
coedge $-1 $463 $677 $465 $696 reversed $293 $-1 #
vertex $-1 $688 $871 #
straight-curve $-1 0 -3.3312137795300201 98.723715933713805 1 0 0 I I #
edge $-1 $468 -98.723715933713805 $685 98.723715933713805 $465 $872 forward 7 unknown #
edge $-1 $469 -98.723715933713805 $684 98.723715933713805 $466 $873 forward 7 unknown #
point $-1 197.44743186742761 -3.3312137795300201 98.723715933713805 #
point $-1 197.44743186742761 3.3312137795300201 98.723715933713805 #
coedge $-1 $700 $700 $-1 $874 reversed $471 $-1 #
vertex $-1 $473 $875 #
ellipse-curve $-1 0 0 -0.25 0 0 -1 0.5 0 0 1 I I #
point $-1 0.5 0 -1.8850596636860253 #
coedge $-1 $704 $704 $-1 $876 reversed $476 $-1 #
vertex $-1 $478 $877 #
ellipse-curve $-1 0 0 -0.25 0 0 -1 0.5 0 0 1 I I #
point $-1 0.5 0 -1.8850596636860253 #
face $-1 $-1 $496 $68 $-1 $878 reversed single #
loop $-1 $-1 $724 $481 #
plane-surface $-1 0 3.2817610526086556 0 0 -1 0 0 0 -1 forward_v I I I I #
coedge $-1 $879 $722 $725 $880 forward $482 $-1 #
coedge $-1 $728 $484 $485 $716 reversed $311 $-1 #
coedge $-1 $722 $879 $484 $714 reversed $482 $-1 #
edge $-1 $729 -98.723715933713805 $881 98.723715933713805 $713 $882 forward 7 unknown #
coedge $-1 $486 $485 $879 $883 forward $203 $-1 #
edge $-1 $720 -197.44743186742761 $881 197.44743186742761 $712 $884 forward 7 unknown #
coedge $-1 $725 $724 $486 $718 reversed $709 $-1 #
edge $-1 $885 -197.44743186742761 $719 197.44743186742761 $717 $886 forward 7 unknown #
vertex $-1 $488 $887 #
vertex $-1 $731 $888 #
straight-curve $-1 197.44743186742761 0 -98.723715933713805 0 -1 0 I I #
coedge $-1 $711 $713 $489 $723 reversed $482 $-1 #
edge $-1 $726 -3.2817610526086556 $729 3.2817610526086556 $722 $889 forward 7 unknown #
coedge $-1 $717 $490 $495 $732 forward $709 $-1 #
coedge $-1 $490 $717 $711 $880 reversed $709 $-1 #
vertex $-1 $491 $890 #
straight-curve $-1 0 3.2817610526086556 98.723715933713805 -1 0 0 I I #
coedge $-1 $492 $712 $494 $731 reversed $311 $-1 #
vertex $-1 $723 $891 #
straight-curve $-1 0 -3.2817610526086556 98.723715933713805 1 0 0 I I #
edge $-1 $497 -98.723715933713805 $720 98.723715933713805 $494 $892 forward 7 unknown #
edge $-1 $498 -98.723715933713805 $719 98.723715933713805 $495 $893 forward 7 unknown #
point $-1 197.44743186742761 -3.2817610526086556 98.723715933713805 #
point $-1 197.44743186742761 3.2817610526086556 98.723715933713805 #
coedge $-1 $735 $735 $-1 $894 reversed $500 $-1 #
vertex $-1 $502 $895 #
ellipse-curve $-1 0 0 -0.25 0 0 -1 0.5 0 0 1 I I #
point $-1 0.5 0 -1.7715765861995294 #
coedge $-1 $739 $739 $-1 $896 reversed $505 $-1 #
vertex $-1 $507 $897 #
ellipse-curve $-1 0 0 -0.25 0 0 -1 0.5 0 0 1 I I #
point $-1 0.5 0 -1.7715765861995294 #
coedge $-1 $743 $743 $-1 $898 reversed $510 $-1 #
vertex $-1 $512 $899 #
ellipse-curve $-1 0 0 -0.25 0 0 -1 0.5 0 0 1 I I #
point $-1 0.5 0 -1.7715765861995294 #
face $-1 $-1 $530 $72 $-1 $900 reversed single #
loop $-1 $-1 $763 $515 #
plane-surface $-1 0 3.2817610526086556 0 0 -1 0 0 0 -1 forward_v I I I I #
coedge $-1 $901 $761 $764 $902 forward $516 $-1 #
coedge $-1 $767 $518 $519 $755 reversed $334 $-1 #
coedge $-1 $761 $901 $518 $753 reversed $516 $-1 #
edge $-1 $768 -98.723715933713805 $903 98.723715933713805 $752 $904 forward 7 unknown #
coedge $-1 $520 $519 $901 $905 forward $222 $-1 #
edge $-1 $759 -197.44743186742761 $903 197.44743186742761 $751 $906 forward 7 unknown #
coedge $-1 $764 $763 $520 $757 reversed $748 $-1 #
edge $-1 $907 -197.44743186742761 $758 197.44743186742761 $756 $908 forward 7 unknown #
vertex $-1 $522 $909 #
vertex $-1 $770 $910 #
straight-curve $-1 197.44743186742761 0 -98.723715933713805 0 -1 0 I I #
coedge $-1 $750 $752 $523 $762 reversed $516 $-1 #
edge $-1 $765 -3.2817610526086556 $768 3.2817610526086556 $761 $911 forward 7 unknown #
coedge $-1 $756 $524 $529 $771 forward $748 $-1 #
coedge $-1 $524 $756 $750 $902 reversed $748 $-1 #
vertex $-1 $525 $912 #
straight-curve $-1 0 3.2817610526086556 98.723715933713805 -1 0 0 I I #
coedge $-1 $526 $751 $528 $770 reversed $334 $-1 #
vertex $-1 $762 $913 #
straight-curve $-1 0 -3.2817610526086556 98.723715933713805 1 0 0 I I #
edge $-1 $531 -98.723715933713805 $759 98.723715933713805 $528 $914 forward 7 unknown #
edge $-1 $532 -98.723715933713805 $758 98.723715933713805 $529 $915 forward 7 unknown #
point $-1 197.44743186742761 -3.2817610526086556 98.723715933713805 #
point $-1 197.44743186742761 3.2817610526086556 98.723715933713805 #
coedge $-1 $774 $774 $-1 $916 reversed $534 $-1 #
vertex $-1 $536 $917 #
ellipse-curve $-1 0 0 -0.25 0 0 -1 0.5 0 0 1 I I #
point $-1 0.5 0 -1.7715765861995294 #
coedge $-1 $778 $778 $-1 $918 reversed $539 $-1 #
vertex $-1 $541 $919 #
ellipse-curve $-1 0 0 -0.25 0 0 -1 0.5 0 0 1 I I #
point $-1 0.5 0 -1.7715765861995294 #
coedge $-1 $782 $782 $-1 $920 reversed $544 $-1 #
vertex $-1 $546 $921 #
ellipse-curve $-1 0 0 -0.25 0 0 -1 0.5 0 0 1 I I #
point $-1 0.5 0 -1.7715765861995294 #
plane-surface $-1 49.361857966856903 0 0 -1 0 0 0 0 1 forward_v I I I I #
coedge $-1 $554 $552 $556 $791 reversed $357 $-1 #
edge $-1 $567 -10.024355870702779 $793 10.024355870702779 $566 $922 forward 7 unknown #
vertex $-1 $791 $923 #
straight-curve $-1 -49.361857966856903 -22.572953036499442 0 0 0 -1 I I #
edge $-1 $789 -22.572953036499442 $793 22.572953036499442 $787 $924 forward 7 unknown #
straight-curve $-1 0 -22.572953036499442 -10.024355870702779 -1 0 0 I I #
vertex $-1 $559 $925 #
straight-curve $-1 0 22.572953036499442 -10.024355870702779 1 0 0 I I #
point $-1 49.361857966856903 22.572953036499442 -10.024355870702779 #
point $-1 49.361857966856903 -22.572953036499442 -10.024355870702779 #
straight-curve $-1 -49.361857966856903 0 10.024355870702779 0 -1 0 I I #
point $-1 -49.361857966856903 22.572953036499442 10.024355870702779 #
point $-1 -49.361857966856903 -22.572953036499442 10.024355870702779 #
straight-curve $-1 49.361857966856903 -22.572953036499442 0 0 0 -1 I I #
straight-curve $-1 49.361857966856903 22.572953036499442 0 0 0 -1 I I #
plane-surface $-1 1.6208392540839984 0 0 -1 0 0 0 0 1 forward_v I I I I #
coedge $-1 $581 $579 $583 $807 reversed $376 $-1 #
edge $-1 $594 -10.024355870702779 $809 10.024355870702779 $593 $926 forward 7 unknown #
vertex $-1 $807 $927 #
straight-curve $-1 -1.6208392540839984 -6.3858943467816127 0 0 0 -1 I I #
edge $-1 $805 -6.3858943467816127 $809 6.3858943467816127 $803 $928 forward 7 unknown #
straight-curve $-1 0 -6.3858943467816127 -10.024355870702779 -1 0 0 I I #
vertex $-1 $586 $929 #
straight-curve $-1 0 6.3858943467816127 -10.024355870702779 1 0 0 I I #
point $-1 1.6208392540839984 6.3858943467816127 -10.024355870702779 #
point $-1 1.6208392540839984 -6.3858943467816127 -10.024355870702779 #
straight-curve $-1 -1.6208392540839984 0 10.024355870702779 0 -1 0 I I #
point $-1 -1.6208392540839984 6.3858943467816127 10.024355870702779 #
point $-1 -1.6208392540839984 -6.3858943467816127 10.024355870702779 #
straight-curve $-1 1.6208392540839984 -6.3858943467816127 0 0 0 -1 I I #
straight-curve $-1 1.6208392540839984 6.3858943467816127 0 0 0 -1 I I #
plane-surface $-1 197.44743186742761 0 0 -1 0 0 0 0 1 forward_v I I I I #
coedge $-1 $608 $606 $610 $823 reversed $395 $-1 #
edge $-1 $621 -98.723715933713805 $825 98.723715933713805 $620 $930 forward 7 unknown #
vertex $-1 $823 $931 #
straight-curve $-1 -197.44743186742761 -3.3312137795300201 0 0 0 -1 I I #
edge $-1 $821 -3.3312137795300201 $825 3.3312137795300201 $819 $932 forward 7 unknown #
straight-curve $-1 0 -3.3312137795300201 -98.723715933713805 -1 0 0 I I #
vertex $-1 $613 $933 #
straight-curve $-1 0 3.3312137795300201 -98.723715933713805 1 0 0 I I #
point $-1 197.44743186742761 3.3312137795300201 -98.723715933713805 #
point $-1 197.44743186742761 -3.3312137795300201 -98.723715933713805 #
straight-curve $-1 -197.44743186742761 0 98.723715933713805 0 -1 0 I I #
point $-1 -197.44743186742761 3.3312137795300201 98.723715933713805 #
point $-1 -197.44743186742761 -3.3312137795300201 98.723715933713805 #
straight-curve $-1 197.44743186742761 -3.3312137795300201 0 0 0 -1 I I #
straight-curve $-1 197.44743186742761 3.3312137795300201 0 0 0 -1 I I #
edge $-1 $934 1 $934 0 $630 $-1 forward 7 unknown #
point $-1 0.5 0 -0.25 #
edge $-1 $935 1 $935 0 $634 $-1 forward 7 unknown #
point $-1 0.5 0 -0.25 #
plane-surface $-1 197.44743186742761 0 0 -1 0 0 0 0 1 forward_v I I I I #
coedge $-1 $643 $641 $645 $843 reversed $424 $-1 #
edge $-1 $656 -98.723715933713805 $845 98.723715933713805 $655 $936 forward 7 unknown #
vertex $-1 $843 $937 #
straight-curve $-1 -197.44743186742761 -3.3312137795300201 0 0 0 -1 I I #
edge $-1 $841 -3.3312137795300201 $845 3.3312137795300201 $839 $938 forward 7 unknown #
straight-curve $-1 0 -3.3312137795300201 -98.723715933713805 -1 0 0 I I #
vertex $-1 $648 $939 #
straight-curve $-1 0 3.3312137795300201 -98.723715933713805 1 0 0 I I #
point $-1 197.44743186742761 3.3312137795300201 -98.723715933713805 #
point $-1 197.44743186742761 -3.3312137795300201 -98.723715933713805 #
straight-curve $-1 -197.44743186742761 0 98.723715933713805 0 -1 0 I I #
point $-1 -197.44743186742761 3.3312137795300201 98.723715933713805 #
point $-1 -197.44743186742761 -3.3312137795300201 98.723715933713805 #
straight-curve $-1 197.44743186742761 -3.3312137795300201 0 0 0 -1 I I #
straight-curve $-1 197.44743186742761 3.3312137795300201 0 0 0 -1 I I #
edge $-1 $940 1 $940 0 $665 $-1 forward 7 unknown #
point $-1 0.5 0 -0.25 #
edge $-1 $941 1 $941 0 $669 $-1 forward 7 unknown #
point $-1 0.5 0 -0.25 #
plane-surface $-1 197.44743186742761 0 0 -1 0 0 0 0 1 forward_v I I I I #
coedge $-1 $678 $676 $680 $863 reversed $453 $-1 #
edge $-1 $691 -98.723715933713805 $865 98.723715933713805 $690 $942 forward 7 unknown #
vertex $-1 $863 $943 #
straight-curve $-1 -197.44743186742761 -3.3312137795300201 0 0 0 -1 I I #
edge $-1 $861 -3.3312137795300201 $865 3.3312137795300201 $859 $944 forward 7 unknown #
straight-curve $-1 0 -3.3312137795300201 -98.723715933713805 -1 0 0 I I #
vertex $-1 $683 $945 #
straight-curve $-1 0 3.3312137795300201 -98.723715933713805 1 0 0 I I #
point $-1 197.44743186742761 3.3312137795300201 -98.723715933713805 #
point $-1 197.44743186742761 -3.3312137795300201 -98.723715933713805 #
straight-curve $-1 -197.44743186742761 0 98.723715933713805 0 -1 0 I I #
point $-1 -197.44743186742761 3.3312137795300201 98.723715933713805 #
point $-1 -197.44743186742761 -3.3312137795300201 98.723715933713805 #
straight-curve $-1 197.44743186742761 -3.3312137795300201 0 0 0 -1 I I #
straight-curve $-1 197.44743186742761 3.3312137795300201 0 0 0 -1 I I #
edge $-1 $946 1 $946 0 $700 $-1 forward 7 unknown #
point $-1 0.5 0 -0.25 #
edge $-1 $947 1 $947 0 $704 $-1 forward 7 unknown #
point $-1 0.5 0 -0.25 #
plane-surface $-1 197.44743186742761 0 0 -1 0 0 0 0 1 forward_v I I I I #
coedge $-1 $713 $711 $715 $883 reversed $482 $-1 #
edge $-1 $726 -98.723715933713805 $885 98.723715933713805 $725 $948 forward 7 unknown #
vertex $-1 $883 $949 #
straight-curve $-1 -197.44743186742761 -3.2817610526086556 0 0 0 -1 I I #
edge $-1 $881 -3.2817610526086556 $885 3.2817610526086556 $879 $950 forward 7 unknown #
straight-curve $-1 0 -3.2817610526086556 -98.723715933713805 -1 0 0 I I #
vertex $-1 $718 $951 #
straight-curve $-1 0 3.2817610526086556 -98.723715933713805 1 0 0 I I #
point $-1 197.44743186742761 3.2817610526086556 -98.723715933713805 #
point $-1 197.44743186742761 -3.2817610526086556 -98.723715933713805 #
straight-curve $-1 -197.44743186742761 0 98.723715933713805 0 -1 0 I I #
point $-1 -197.44743186742761 3.2817610526086556 98.723715933713805 #
point $-1 -197.44743186742761 -3.2817610526086556 98.723715933713805 #
straight-curve $-1 197.44743186742761 -3.2817610526086556 0 0 0 -1 I I #
straight-curve $-1 197.44743186742761 3.2817610526086556 0 0 0 -1 I I #
edge $-1 $952 1 $952 0 $735 $-1 forward 7 unknown #
point $-1 0.5 0 -0.25 #
edge $-1 $953 1 $953 0 $739 $-1 forward 7 unknown #
point $-1 0.5 0 -0.25 #
edge $-1 $954 1 $954 0 $743 $-1 forward 7 unknown #
point $-1 0.5 0 -0.25 #
plane-surface $-1 197.44743186742761 0 0 -1 0 0 0 0 1 forward_v I I I I #
coedge $-1 $752 $750 $754 $905 reversed $516 $-1 #
edge $-1 $765 -98.723715933713805 $907 98.723715933713805 $764 $955 forward 7 unknown #
vertex $-1 $905 $956 #
straight-curve $-1 -197.44743186742761 -3.2817610526086556 0 0 0 -1 I I #
edge $-1 $903 -3.2817610526086556 $907 3.2817610526086556 $901 $957 forward 7 unknown #
straight-curve $-1 0 -3.2817610526086556 -98.723715933713805 -1 0 0 I I #
vertex $-1 $757 $958 #
straight-curve $-1 0 3.2817610526086556 -98.723715933713805 1 0 0 I I #
point $-1 197.44743186742761 3.2817610526086556 -98.723715933713805 #
point $-1 197.44743186742761 -3.2817610526086556 -98.723715933713805 #
straight-curve $-1 -197.44743186742761 0 98.723715933713805 0 -1 0 I I #
point $-1 -197.44743186742761 3.2817610526086556 98.723715933713805 #
point $-1 -197.44743186742761 -3.2817610526086556 98.723715933713805 #
straight-curve $-1 197.44743186742761 -3.2817610526086556 0 0 0 -1 I I #
straight-curve $-1 197.44743186742761 3.2817610526086556 0 0 0 -1 I I #
edge $-1 $959 1 $959 0 $774 $-1 forward 7 unknown #
point $-1 0.5 0 -0.25 #
edge $-1 $960 1 $960 0 $778 $-1 forward 7 unknown #
point $-1 0.5 0 -0.25 #
edge $-1 $961 1 $961 0 $782 $-1 forward 7 unknown #
point $-1 0.5 0 -0.25 #
straight-curve $-1 -49.361857966856903 22.572953036499442 0 0 0 -1 I I #
point $-1 -49.361857966856903 -22.572953036499442 -10.024355870702779 #
straight-curve $-1 -49.361857966856903 0 -10.024355870702779 0 1 0 I I #
point $-1 -49.361857966856903 22.572953036499442 -10.024355870702779 #
straight-curve $-1 -1.6208392540839984 6.3858943467816127 0 0 0 -1 I I #
point $-1 -1.6208392540839984 -6.3858943467816127 -10.024355870702779 #
straight-curve $-1 -1.6208392540839984 0 -10.024355870702779 0 1 0 I I #
point $-1 -1.6208392540839984 6.3858943467816127 -10.024355870702779 #
straight-curve $-1 -197.44743186742761 3.3312137795300201 0 0 0 -1 I I #
point $-1 -197.44743186742761 -3.3312137795300201 -98.723715933713805 #
straight-curve $-1 -197.44743186742761 0 -98.723715933713805 0 1 0 I I #
point $-1 -197.44743186742761 3.3312137795300201 -98.723715933713805 #
vertex $-1 $834 $962 #
vertex $-1 $836 $963 #
straight-curve $-1 -197.44743186742761 3.3312137795300201 0 0 0 -1 I I #
point $-1 -197.44743186742761 -3.3312137795300201 -98.723715933713805 #
straight-curve $-1 -197.44743186742761 0 -98.723715933713805 0 1 0 I I #
point $-1 -197.44743186742761 3.3312137795300201 -98.723715933713805 #
vertex $-1 $854 $964 #
vertex $-1 $856 $965 #
straight-curve $-1 -197.44743186742761 3.3312137795300201 0 0 0 -1 I I #
point $-1 -197.44743186742761 -3.3312137795300201 -98.723715933713805 #
straight-curve $-1 -197.44743186742761 0 -98.723715933713805 0 1 0 I I #
point $-1 -197.44743186742761 3.3312137795300201 -98.723715933713805 #
vertex $-1 $874 $966 #
vertex $-1 $876 $967 #
straight-curve $-1 -197.44743186742761 3.2817610526086556 0 0 0 -1 I I #
point $-1 -197.44743186742761 -3.2817610526086556 -98.723715933713805 #
straight-curve $-1 -197.44743186742761 0 -98.723715933713805 0 1 0 I I #
point $-1 -197.44743186742761 3.2817610526086556 -98.723715933713805 #
vertex $-1 $894 $968 #
vertex $-1 $896 $969 #
vertex $-1 $898 $970 #
straight-curve $-1 -197.44743186742761 3.2817610526086556 0 0 0 -1 I I #
point $-1 -197.44743186742761 -3.2817610526086556 -98.723715933713805 #
straight-curve $-1 -197.44743186742761 0 -98.723715933713805 0 1 0 I I #
point $-1 -197.44743186742761 3.2817610526086556 -98.723715933713805 #
vertex $-1 $916 $971 #
vertex $-1 $918 $972 #
vertex $-1 $920 $973 #
point $-1 0 0 0.25 #
point $-1 0 0 0.25 #
point $-1 0 0 0.25 #
point $-1 0 0 0.25 #
point $-1 0 0 0.25 #
point $-1 0 0 0.25 #
point $-1 0 0 0.25 #
point $-1 0 0 0.25 #
point $-1 0 0 0.25 #
point $-1 0 0 0.25 #
point $-1 0 0 0.25 #
point $-1 0 0 0.25 #
End-of-ACIS-data 