500 0 10 0           
7 Unknown 11 ACIS 5.0 NT 24 Thu Mar 25 15:21:33 1999 
-1 9.9999999999999995e-007 1e-010 
body $-1 $10 $-1 $11 #
body $-1 $12 $-1 $13 #
body $-1 $14 $-1 $15 #
body $-1 $16 $-1 $17 #
body $-1 $18 $-1 $19 #
body $-1 $20 $-1 $21 #
body $-1 $22 $-1 $23 #
body $-1 $24 $-1 $25 #
body $-1 $26 $-1 $27 #
body $-1 $28 $-1 $29 #
lump $-1 $-1 $30 $0 #
transform $-1 1 0 0 0 1 0 0 0 1 61.096835230567336 27.943779743840462 11.22313683165574 1 rotate no_reflect no_shear #
lump $-1 $-1 $31 $1 #
transform $-1 1 0 0 0 1 0 0 0 1 61.096835230567336 27.943779743840462 11.22313683165574 1 rotate no_reflect no_shear #
lump $-1 $-1 $32 $2 #
transform $-1 1 0 0 0 1 0 0 0 1 61.096835230567336 27.943779743840462 11.22313683165574 1 rotate no_reflect no_shear #
lump $-1 $-1 $33 $3 #
transform $-1 1 0 0 0 1 0 0 0 1 61.096835230567336 27.943779743840462 11.22313683165574 1 rotate no_reflect no_shear #
lump $-1 $-1 $34 $4 #
transform $-1 1 0 0 0 1 0 0 0 1 61.096835230567336 27.943779743840462 11.22313683165574 1 rotate no_reflect no_shear #
lump $-1 $-1 $35 $5 #
transform $-1 1 0 0 0 1 0 0 0 1 61.096835230567336 27.943779743840462 11.22313683165574 1 rotate no_reflect no_shear #
lump $-1 $-1 $36 $6 #
transform $-1 1 0 0 0 1 0 0 0 1 61.096835230567336 27.943779743840462 11.22313683165574 1 rotate no_reflect no_shear #
lump $-1 $-1 $37 $7 #
transform $-1 1 0 0 0 1 0 0 0 1 61.096835230567336 27.943779743840462 11.22313683165574 1 rotate no_reflect no_shear #
lump $-1 $-1 $38 $8 #
transform $-1 1 0 0 0 1 0 0 0 1 61.096835230567336 27.943779743840462 11.22313683165574 1 rotate no_reflect no_shear #
lump $-1 $-1 $39 $9 #
transform $-1 1 0 0 0 1 0 0 0 1 61.096835230567336 27.943779743840462 11.22313683165574 1 rotate no_reflect no_shear #
shell $-1 $-1 $-1 $40 $-1 $10 #
shell $-1 $-1 $-1 $41 $-1 $12 #
shell $-1 $-1 $-1 $42 $-1 $14 #
shell $-1 $-1 $-1 $43 $-1 $16 #
shell $-1 $-1 $-1 $44 $-1 $18 #
shell $-1 $-1 $-1 $45 $-1 $20 #
shell $-1 $-1 $-1 $46 $-1 $22 #
shell $-1 $-1 $-1 $47 $-1 $24 #
shell $-1 $-1 $-1 $48 $-1 $26 #
shell $-1 $-1 $-1 $49 $-1 $28 #
face $-1 $50 $51 $30 $-1 $52 forward single #
face $-1 $53 $54 $31 $-1 $55 reversed single #
face $-1 $56 $57 $32 $-1 $58 reversed single #
face $-1 $59 $60 $33 $-1 $61 reversed single #
face $-1 $62 $63 $34 $-1 $64 forward single #
face $-1 $65 $66 $35 $-1 $67 forward single #
face $-1 $68 $69 $36 $-1 $70 reversed single #
face $-1 $71 $72 $37 $-1 $73 forward single #
face $-1 $74 $75 $38 $-1 $76 forward single #
face $-1 $77 $78 $39 $-1 $79 forward single #
face $-1 $80 $81 $30 $-1 $82 reversed single #
loop $-1 $-1 $83 $40 #
plane-surface $-1 0 0 11.22313683165574 0 0 1 1 0 0 forward_v I I I I #
face $-1 $84 $85 $31 $-1 $86 reversed single #
loop $-1 $-1 $87 $41 #
plane-surface $-1 -50.125521106555567 0 8.472925424148805 -1 0 0 0 0 1 forward_v I I I I #
face $-1 $88 $89 $32 $-1 $90 reversed single #
loop $-1 $-1 $91 $42 #
plane-surface $-1 55.611178168561452 0 5.72271401664187 0 0 1 1 0 0 forward_v I I I I #
face $-1 $92 $93 $33 $-1 $94 reversed single #
loop $-1 $-1 $95 $43 #
plane-surface $-1 -44.340442119505752 -14.868574270682728 36.055082186724746 0 0.64278761758704617 0.76604443648966558 1 0 0 forward_v I I I I #
face $-1 $96 $97 $34 $-1 $98 forward single #
loop $-1 $99 $100 $44 #
cone-surface $-1 -46.819761685384243 20.206595931497105 4.3331502696890363 0 -0.64278761758704617 -0.76604443648966558 1.5 0 0 1 I I 0 1 1.5 forward I I I I #
face $-1 $101 $102 $35 $-1 $103 forward single #
loop $-1 $104 $105 $45 #
cone-surface $-1 -41.861122553627261 20.206595931497105 4.3331502696890363 0 -0.64278761758704617 -0.76604443648966558 1.5 0 0 1 I I 0 1 1.5 forward I I I I #
face $-1 $106 $107 $36 $-1 $108 reversed single #
loop $-1 $-1 $109 $46 #
plane-surface $-1 -35.577845682527666 -94.495223380694014 105.35997610390936 -1 0 0 0 -0.54463904215088732 0.83867056331134215 forward_v I I I I #
face $-1 $110 $111 $37 $-1 $112 forward single #
loop $-1 $113 $114 $47 #
cone-surface $-1 -47.215986021749984 -20.943883413441615 6.1644069788402049 0 0.54463904215088732 -0.83867056331134215 1 0 0 1 I I 0 1 1 forward I I I I #
face $-1 $115 $116 $38 $-1 $117 forward single #
loop $-1 $118 $119 $48 #
cone-surface $-1 -42.851683394541617 -20.943883413441615 6.1644069788402049 0 0.54463904215088732 -0.83867056331134215 1 0 0 1 I I 0 1 1 forward I I I I #
face $-1 $120 $121 $39 $-1 $122 forward single #
loop $-1 $123 $124 $49 #
cone-surface $-1 -38.487380767333249 -20.943883413441615 6.1644069788402049 0 0.54463904215088732 -0.83867056331134215 1 0 0 1 I I 0 1 1 forward I I I I #
face $-1 $125 $126 $30 $-1 $127 reversed single #
loop $-1 $-1 $128 $50 #
plane-surface $-1 0 0 -11.22313683165574 0 0 1 1 0 0 forward_v I I I I #
coedge $-1 $129 $130 $131 $132 forward $51 $-1 #
face $-1 $133 $134 $31 $-1 $135 reversed single #
loop $-1 $-1 $136 $53 #
plane-surface $-1 -55.611178168561452 0 5.72271401664187 0 0 1 1 0 0 forward_v I I I I #
coedge $-1 $137 $138 $136 $139 reversed $54 $-1 #
face $-1 $140 $141 $32 $-1 $142 forward single #
loop $-1 $-1 $143 $56 #
plane-surface $-1 50.125521106555567 0 8.472925424148805 1 0 0 0 0 -1 forward_v I I I I #
coedge $-1 $144 $145 $146 $147 reversed $57 $-1 #
face $-1 $148 $149 $33 $-1 $150 reversed single #
loop $-1 $-1 $151 $59 #
plane-surface $-1 -38.555363132455938 63.676004049246643 129.66086361772855 -1 0 0 0 0.64278761758704617 0.76604443648966558 forward_v I I I I #
coedge $-1 $152 $153 $154 $155 reversed $60 $-1 #
face $-1 $-1 $156 $34 $-1 $157 forward single #
loop $-1 $158 $159 $62 #
cone-surface $-1 -46.819761685384243 18.59671867913973 2.4145733107409555 0 -0.64278761758704617 -0.76604443648966558 0.75 0 0 1 I I -0.70710678118654757 0.70710678118654757 0.75 forward I I I I #
loop $-1 $-1 $160 $44 #
coedge $-1 $100 $100 $161 $162 reversed $63 $-1 #
face $-1 $-1 $163 $35 $-1 $164 forward single #
loop $-1 $165 $166 $65 #
cone-surface $-1 -41.861122553627261 18.59671867913973 2.4145733107409555 0 -0.64278761758704617 -0.76604443648966558 0.75 0 0 1 I I -0.70710678118654757 0.70710678118654757 0.75 forward I I I I #
loop $-1 $-1 $167 $45 #
coedge $-1 $105 $105 $168 $169 reversed $66 $-1 #
face $-1 $170 $171 $36 $-1 $172 forward single #
loop $-1 $-1 $173 $68 #
plane-surface $-1 -42.851683394541617 -27.943779743840466 2.8797416651890444 0 -0.54463904215088732 0.83867056331134215 1 0 0 forward_v I I I I #
coedge $-1 $174 $175 $176 $177 reversed $69 $-1 #
face $-1 $-1 $178 $37 $-1 $179 forward single #
loop $-1 $180 $181 $71 #
cone-surface $-1 -47.215986021749984 -20.095518390357984 4.8580394276023462 0 0.54463904215088732 -0.83867056331134215 0.5 0 0 1 I I -0.70710678118654746 0.70710678118654746 0.5 forward I I I I #
loop $-1 $-1 $182 $47 #
coedge $-1 $114 $114 $183 $184 reversed $72 $-1 #
face $-1 $-1 $185 $38 $-1 $186 forward single #
loop $-1 $187 $188 $74 #
cone-surface $-1 -42.851683394541617 -20.095518390357984 4.8580394276023462 0 0.54463904215088732 -0.83867056331134215 0.5 0 0 1 I I -0.70710678118654746 0.70710678118654746 0.5 forward I I I I #
loop $-1 $-1 $189 $48 #
coedge $-1 $119 $119 $190 $191 reversed $75 $-1 #
face $-1 $-1 $192 $39 $-1 $193 forward single #
loop $-1 $194 $195 $77 #
cone-surface $-1 -38.487380767333249 -20.095518390357984 4.8580394276023462 0 0.54463904215088732 -0.83867056331134215 0.5 0 0 1 I I -0.70710678118654746 0.70710678118654746 0.5 forward I I I I #
loop $-1 $-1 $196 $49 #
coedge $-1 $124 $124 $197 $198 reversed $78 $-1 #
face $-1 $199 $200 $30 $-1 $201 reversed single #
loop $-1 $-1 $202 $80 #
plane-surface $-1 0 -27.943779743840462 0 0 1 0 0 0 1 forward_v I I I I #
coedge $-1 $203 $204 $205 $206 forward $81 $-1 #
coedge $-1 $207 $83 $208 $209 forward $51 $-1 #
coedge $-1 $83 $207 $210 $211 forward $51 $-1 #
coedge $-1 $212 $213 $83 $132 reversed $214 $-1 #
edge $-1 $215 -27.943779743840462 $216 27.943779743840462 $131 $217 forward 7 unknown #
face $-1 $218 $219 $31 $-1 $220 reversed single #
loop $-1 $-1 $221 $84 #
plane-surface $-1 0 27.943779743840462 0 0 -1 0 0 0 -1 forward_v I I I I #
coedge $-1 $222 $223 $87 $139 forward $85 $-1 #
coedge $-1 $224 $87 $221 $225 reversed $54 $-1 #
coedge $-1 $87 $224 $226 $227 reversed $54 $-1 #
edge $-1 $228 -27.943779743840462 $229 27.943779743840462 $87 $230 forward 7 unknown #
face $-1 $231 $232 $32 $-1 $233 reversed single #
loop $-1 $-1 $234 $88 #
plane-surface $-1 0 0 11.22313683165574 0 0 1 1 0 0 forward_v I I I I #
coedge $-1 $235 $236 $237 $238 reversed $89 $-1 #
coedge $-1 $239 $91 $240 $241 reversed $57 $-1 #
coedge $-1 $91 $239 $242 $243 reversed $57 $-1 #
coedge $-1 $244 $245 $91 $147 forward $246 $-1 #
edge $-1 $247 -27.943779743840462 $248 27.943779743840462 $146 $249 forward 7 unknown #
face $-1 $250 $251 $33 $-1 $252 forward single #
loop $-1 $-1 $253 $92 #
plane-surface $-1 0 27.943779743840462 0 0 -1 0 0 0 -1 forward_v I I I I #
coedge $-1 $254 $255 $256 $257 reversed $93 $-1 #
coedge $-1 $258 $95 $259 $260 reversed $60 $-1 #
coedge $-1 $95 $258 $254 $261 forward $60 $-1 #
coedge $-1 $256 $262 $95 $155 forward $251 $-1 #
edge $-1 $263 -27.955300046802691 $264 -16.385142072703061 $154 $265 forward 7 unknown #
loop $-1 $-1 $161 $96 #
plane-surface $-1 -44.340442119505752 -14.868574270682728 36.055082186724746 0 0.64278761758704617 0.76604443648966558 1 0 0 forward_v I I I I #
loop $-1 $-1 $266 $62 #
coedge $-1 $159 $159 $160 $267 reversed $97 $-1 #
coedge $-1 $160 $160 $159 $267 forward $99 $-1 #
coedge $-1 $161 $161 $100 $162 forward $156 $-1 #
edge $-1 $268 -8.7579237304154467e-016 $268 6.2831853071795996 $161 $269 forward 7 unknown #
loop $-1 $-1 $168 $101 #
plane-surface $-1 -44.340442119505752 -14.868574270682728 36.055082186724746 0 0.64278761758704617 0.76604443648966558 1 0 0 forward_v I I I I #
loop $-1 $-1 $270 $65 #
coedge $-1 $166 $166 $167 $271 reversed $102 $-1 #
coedge $-1 $167 $167 $166 $271 forward $104 $-1 #
coedge $-1 $168 $168 $105 $169 forward $163 $-1 #
edge $-1 $272 -8.7579237304154467e-016 $272 6.2831853071795996 $168 $273 forward 7 unknown #
face $-1 $274 $275 $36 $-1 $276 forward single #
loop $-1 $-1 $176 $106 #
plane-surface $-1 0 0 11.22313683165574 0 0 1 1 0 0 forward_v I I I I #
coedge $-1 $277 $278 $279 $280 reversed $107 $-1 #
coedge $-1 $175 $109 $281 $282 reversed $69 $-1 #
coedge $-1 $109 $174 $277 $283 reversed $69 $-1 #
coedge $-1 $279 $284 $109 $177 forward $171 $-1 #
edge $-1 $285 19.303831946506545 $286 32.151533603287874 $176 $287 forward 7 unknown #
loop $-1 $-1 $183 $110 #
plane-surface $-1 -42.851683394541617 -27.943779743840466 2.8797416651890444 0 -0.54463904215088732 0.83867056331134215 1 0 0 forward_v I I I I #
loop $-1 $-1 $288 $71 #
coedge $-1 $181 $181 $182 $289 reversed $111 $-1 #
coedge $-1 $182 $182 $181 $289 forward $113 $-1 #
coedge $-1 $183 $183 $114 $184 forward $178 $-1 #
edge $-1 $290 4.83736643764565e-016 $290 6.2831853071796013 $183 $291 forward 7 unknown #
loop $-1 $-1 $190 $115 #
plane-surface $-1 -42.851683394541617 -27.943779743840466 2.8797416651890444 0 -0.54463904215088732 0.83867056331134215 1 0 0 forward_v I I I I #
loop $-1 $-1 $292 $74 #
coedge $-1 $188 $188 $189 $293 reversed $116 $-1 #
coedge $-1 $189 $189 $188 $293 forward $118 $-1 #
coedge $-1 $190 $190 $119 $191 forward $185 $-1 #
edge $-1 $294 4.83736643764565e-016 $294 6.2831853071796013 $190 $295 forward 7 unknown #
loop $-1 $-1 $197 $120 #
plane-surface $-1 -42.851683394541617 -27.943779743840466 2.8797416651890444 0 -0.54463904215088732 0.83867056331134215 1 0 0 forward_v I I I I #
loop $-1 $-1 $296 $77 #
coedge $-1 $195 $195 $196 $297 reversed $121 $-1 #
coedge $-1 $196 $196 $195 $297 forward $123 $-1 #
coedge $-1 $197 $197 $124 $198 forward $192 $-1 #
edge $-1 $298 4.83736643764565e-016 $298 6.2831853071796013 $197 $299 forward 7 unknown #
face $-1 $300 $301 $30 $-1 $302 reversed single #
loop $-1 $-1 $303 $125 #
plane-surface $-1 -61.096835230567336 0 0 1 0 0 0 0 -1 forward_v I I I I #
coedge $-1 $304 $210 $305 $306 forward $126 $-1 #
coedge $-1 $307 $128 $304 $308 forward $81 $-1 #
coedge $-1 $128 $307 $309 $310 forward $81 $-1 #
coedge $-1 $213 $212 $128 $206 reversed $214 $-1 #
edge $-1 $311 -27.943779743840462 $312 27.943779743840462 $205 $313 forward 7 unknown #
coedge $-1 $130 $129 $314 $315 forward $51 $-1 #
coedge $-1 $316 $317 $129 $209 reversed $301 $-1 #
edge $-1 $216 -61.096835230567336 $318 61.096835230567336 $208 $319 forward 7 unknown #
coedge $-1 $202 $320 $130 $211 reversed $126 $-1 #
edge $-1 $321 -61.096835230567336 $215 61.096835230567336 $210 $322 forward 7 unknown #
coedge $-1 $205 $131 $320 $323 forward $214 $-1 #
coedge $-1 $131 $205 $316 $324 reversed $214 $-1 #
loop $-1 $-1 $212 $300 #
vertex $-1 $132 $325 #
vertex $-1 $132 $326 #
straight-curve $-1 61.096835230567336 0 11.22313683165574 0 1 0 I I #
face $-1 $327 $328 $31 $-1 $329 forward single #
loop $-1 $-1 $330 $133 #
plane-surface $-1 -61.096835230567336 0 0 1 0 0 0 0 -1 forward_v I I I I #
coedge $-1 $331 $332 $137 $225 forward $134 $-1 #
coedge $-1 $333 $136 $334 $335 reversed $85 $-1 #
coedge $-1 $136 $333 $331 $336 reversed $85 $-1 #
coedge $-1 $138 $137 $337 $338 reversed $54 $-1 #
edge $-1 $339 -6.9866741195813375 $228 -1.4862513045674675 $221 $340 forward 7 unknown #
coedge $-1 $341 $334 $138 $227 forward $342 $-1 #
edge $-1 $229 1.4862513045674675 $343 6.9866741195813375 $226 $344 forward 7 unknown #
vertex $-1 $336 $345 #
vertex $-1 $335 $346 #
straight-curve $-1 -50.125521106555567 0 5.72271401664187 0 -1 0 I I #
face $-1 $347 $348 $32 $-1 $349 reversed single #
loop $-1 $-1 $350 $140 #
plane-surface $-1 0 -27.943779743840462 0 0 1 0 0 0 1 forward_v I I I I #
coedge $-1 $351 $352 $236 $353 forward $141 $-1 #
coedge $-1 $354 $143 $239 $355 reversed $89 $-1 #
coedge $-1 $143 $354 $234 $353 reversed $89 $-1 #
coedge $-1 $356 $242 $143 $238 forward $348 $-1 #
edge $-1 $357 1.4862513045674675 $358 6.9866741195813375 $237 $359 forward 7 unknown #
coedge $-1 $145 $144 $235 $355 forward $57 $-1 #
coedge $-1 $360 $350 $144 $241 forward $232 $-1 #
edge $-1 $361 22.319932022274841 $247 33.29124614628661 $240 $362 forward 7 unknown #
coedge $-1 $237 $363 $145 $243 forward $348 $-1 #
edge $-1 $248 -33.29124614628661 $357 -22.319932022274841 $242 $364 forward 7 unknown #
coedge $-1 $365 $146 $363 $366 reversed $246 $-1 #
coedge $-1 $146 $365 $360 $367 forward $246 $-1 #
loop $-1 $-1 $146 $347 #
vertex $-1 $241 $368 #
vertex $-1 $147 $369 #
straight-curve $-1 61.096835230567336 0 5.72271401664187 0 1 0 I I #
face $-1 $-1 $370 $33 $-1 $371 forward single #
loop $-1 $-1 $256 $148 #
plane-surface $-1 0 0 11.22313683165574 0 0 1 1 0 0 forward_v I I I I #
coedge $-1 $372 $373 $255 $374 forward $149 $-1 #
coedge $-1 $255 $151 $153 $261 reversed $93 $-1 #
coedge $-1 $151 $254 $253 $374 reversed $93 $-1 #
coedge $-1 $375 $154 $151 $257 forward $251 $-1 #
edge $-1 $264 -17.113016827135372 $376 -3.8942222807828593 $256 $377 forward 7 unknown #
coedge $-1 $153 $152 $372 $378 reversed $60 $-1 #
coedge $-1 $379 $380 $152 $260 forward $370 $-1 #
edge $-1 $381 -41.327830771721665 $263 -24.071919865395479 $259 $382 forward 7 unknown #
edge $-1 $383 -55.887559487680917 $264 -38.631648581354739 $254 $384 forward 7 unknown #
coedge $-1 $154 $375 $379 $385 forward $251 $-1 #
vertex $-1 $260 $386 #
vertex $-1 $155 $387 #
straight-curve $-1 -22.170221059752876 14.724985197487953 11.22313683165574 1 0 0 I I #
coedge $-1 $266 $266 $-1 $388 reversed $158 $-1 #
edge $-1 $389 0 $389 6.2831853071796004 $159 $390 forward 7 unknown #
vertex $-1 $162 $391 #
ellipse-curve $-1 -46.819761685384243 21.334382470664206 5.6771939012698791 0 0.64278761758704617 0.76604443648966558 1.5 0 0 1 I I #
coedge $-1 $270 $270 $-1 $392 reversed $165 $-1 #
edge $-1 $393 0 $393 6.2831853071796004 $166 $394 forward 7 unknown #
vertex $-1 $169 $395 #
ellipse-curve $-1 -41.861122553627261 21.334382470664206 5.6771939012698791 0 0.64278761758704617 0.76604443648966558 1.5 0 0 1 I I #
face $-1 $-1 $396 $36 $-1 $397 reversed single #
loop $-1 $-1 $398 $170 #
plane-surface $-1 -50.125521106555567 0 8.472925424148805 -1 0 0 0 0 1 forward_v I I I I #
coedge $-1 $399 $173 $175 $283 forward $107 $-1 #
coedge $-1 $173 $399 $398 $400 forward $107 $-1 #
coedge $-1 $401 $176 $173 $280 forward $171 $-1 #
edge $-1 $286 14.152003985256858 $402 28.699679409284759 $279 $403 forward 7 unknown #
coedge $-1 $404 $405 $174 $282 forward $396 $-1 #
edge $-1 $406 -49.800246386765636 $285 -41.456851220298944 $281 $407 forward 7 unknown #
edge $-1 $286 -15.319127937499626 $406 -4.1888979916949389e-015 $175 $408 forward 7 unknown #
coedge $-1 $176 $401 $404 $409 forward $171 $-1 #
vertex $-1 $282 $410 #
vertex $-1 $177 $411 #
straight-curve $-1 -35.577845682527666 -47.247611690347007 11.223136831655744 0 1 0 I I #
coedge $-1 $288 $288 $-1 $412 reversed $180 $-1 #
edge $-1 $413 0 $413 6.2831853071796004 $181 $414 forward 7 unknown #
vertex $-1 $184 $415 #
ellipse-curve $-1 -47.215986021749984 -21.5199289154498 7.0514392484223913 0 -0.54463904215088732 0.83867056331134215 1 0 0 1 I I #
coedge $-1 $292 $292 $-1 $416 reversed $187 $-1 #
edge $-1 $417 0 $417 6.2831853071796004 $188 $418 forward 7 unknown #
vertex $-1 $191 $419 #
ellipse-curve $-1 -42.851683394541617 -21.5199289154498 7.0514392484223913 0 -0.54463904215088732 0.83867056331134215 1 0 0 1 I I #
coedge $-1 $296 $296 $-1 $420 reversed $194 $-1 #
edge $-1 $421 0 $421 6.2831853071796004 $195 $422 forward 7 unknown #
vertex $-1 $198 $423 #
ellipse-curve $-1 -38.487380767333249 -21.5199289154498 7.0514392484223913 0 -0.54463904215088732 0.83867056331134215 1 0 0 1 I I #
face $-1 $-1 $214 $30 $-1 $424 reversed single #
loop $-1 $-1 $316 $199 #
plane-surface $-1 0 27.943779743840462 0 0 -1 0 0 0 -1 forward_v I I I I #
coedge $-1 $425 $314 $317 $426 forward $200 $-1 #
coedge $-1 $320 $202 $203 $308 reversed $126 $-1 #
coedge $-1 $314 $425 $202 $306 reversed $200 $-1 #
edge $-1 $321 -11.22313683165574 $427 11.22313683165574 $305 $428 forward 7 unknown #
coedge $-1 $204 $203 $425 $429 forward $81 $-1 #
edge $-1 $312 -61.096835230567336 $427 61.096835230567336 $304 $430 forward 7 unknown #
coedge $-1 $317 $316 $204 $310 reversed $301 $-1 #
edge $-1 $431 -61.096835230567336 $311 61.096835230567336 $309 $432 forward 7 unknown #
vertex $-1 $206 $433 #
vertex $-1 $323 $434 #
straight-curve $-1 61.096835230567336 0 -11.22313683165574 0 -1 0 I I #
coedge $-1 $303 $305 $207 $315 reversed $200 $-1 #
edge $-1 $318 -27.943779743840462 $321 27.943779743840462 $314 $435 forward 7 unknown #
coedge $-1 $309 $208 $213 $324 forward $301 $-1 #
coedge $-1 $208 $309 $303 $426 reversed $301 $-1 #
vertex $-1 $209 $436 #
straight-curve $-1 0 27.943779743840462 11.22313683165574 -1 0 0 I I #
coedge $-1 $210 $304 $212 $323 reversed $126 $-1 #
vertex $-1 $315 $437 #
straight-curve $-1 0 -27.943779743840462 11.22313683165574 1 0 0 I I #
edge $-1 $215 -11.22313683165574 $312 11.22313683165574 $212 $438 forward 7 unknown #
edge $-1 $216 -11.22313683165574 $311 11.22313683165574 $213 $439 forward 7 unknown #
point $-1 61.096835230567336 -27.943779743840462 11.22313683165574 #
point $-1 61.096835230567336 27.943779743840462 11.22313683165574 #
face $-1 $-1 $342 $31 $-1 $440 reversed single #
loop $-1 $-1 $337 $218 #
plane-surface $-1 0 0 11.22313683165574 0 0 1 1 0 0 forward_v I I I I #
coedge $-1 $441 $442 $333 $443 forward $219 $-1 #
coedge $-1 $444 $221 $223 $336 forward $134 $-1 #
coedge $-1 $221 $444 $445 $446 reversed $134 $-1 #
coedge $-1 $223 $222 $330 $443 reversed $85 $-1 #
coedge $-1 $226 $447 $222 $335 forward $342 $-1 #
edge $-1 $448 -33.29124614628661 $229 -22.319932022274841 $334 $449 forward 7 unknown #
edge $-1 $228 22.319932022274841 $450 33.29124614628661 $331 $451 forward 7 unknown #
coedge $-1 $445 $452 $224 $338 forward $328 $-1 #
edge $-1 $343 -27.943779743840462 $339 27.943779743840462 $337 $453 forward 7 unknown #
vertex $-1 $446 $454 #
straight-curve $-1 -50.125521106555567 27.943779743840462 4.2364627120744025 0 0 -1 I I #
coedge $-1 $447 $226 $452 $455 reversed $342 $-1 #
loop $-1 $-1 $226 $327 #
vertex $-1 $227 $456 #
straight-curve $-1 -50.125521106555567 -27.943779743840462 4.2364627120744025 0 0 1 I I #
point $-1 -50.125521106555567 27.943779743840462 5.72271401664187 #
point $-1 -50.125521106555567 -27.943779743840462 5.72271401664187 #
face $-1 $-1 $246 $32 $-1 $457 reversed single #
loop $-1 $-1 $237 $231 #
plane-surface $-1 0 27.943779743840462 0 0 -1 0 0 0 -1 forward_v I I I I #
coedge $-1 $240 $458 $354 $459 forward $232 $-1 #
coedge $-1 $460 $234 $458 $461 forward $141 $-1 #
coedge $-1 $234 $460 $356 $462 forward $141 $-1 #
edge $-1 $358 -27.943779743840462 $463 27.943779743840462 $234 $464 forward 7 unknown #
coedge $-1 $236 $235 $350 $459 reversed $89 $-1 #
edge $-1 $361 -27.943779743840462 $357 27.943779743840462 $235 $465 forward 7 unknown #
coedge $-1 $363 $237 $352 $462 reversed $348 $-1 #
vertex $-1 $243 $466 #
vertex $-1 $238 $467 #
straight-curve $-1 50.125521106555567 27.943779743840462 4.2364627120744025 0 0 1 I I #
coedge $-1 $458 $240 $245 $367 reversed $232 $-1 #
vertex $-1 $241 $468 #
straight-curve $-1 27.805589084280726 -27.943779743840462 5.72271401664187 1 0 0 I I #
coedge $-1 $242 $356 $244 $366 forward $348 $-1 #
straight-curve $-1 27.805589084280726 27.943779743840462 5.72271401664187 -1 0 0 I I #
coedge $-1 $245 $244 $460 $469 reversed $246 $-1 #
edge $-1 $470 -11.22313683165574 $248 -5.72271401664187 $244 $471 forward 7 unknown #
edge $-1 $472 -11.22313683165574 $247 -5.72271401664187 $245 $473 forward 7 unknown #
point $-1 61.096835230567336 -27.943779743840462 5.72271401664187 #
point $-1 61.096835230567336 27.943779743840462 5.72271401664187 #
loop $-1 $-1 $259 $250 #
plane-surface $-1 -50.125521106555567 0 8.472925424148805 -1 0 0 0 0 1 forward_v I I I I #
coedge $-1 $474 $253 $258 $378 forward $149 $-1 #
coedge $-1 $253 $474 $375 $475 reversed $149 $-1 #
edge $-1 $376 53.607294977208539 $383 64.699180837980265 $253 $476 forward 7 unknown #
coedge $-1 $262 $256 $373 $475 forward $251 $-1 #
vertex $-1 $475 $477 #
straight-curve $-1 -38.555363132455938 31.838002024623322 11.223136831655737 0 1 0 I I #
edge $-1 $383 16.385142072703061 $381 27.955300046802691 $372 $478 forward 7 unknown #
coedge $-1 $380 $259 $262 $385 reversed $370 $-1 #
coedge $-1 $259 $379 $474 $479 reversed $370 $-1 #
vertex $-1 $479 $480 #
straight-curve $-1 -50.125521106555567 -3.7151750910233172 26.696268852679591 0 -0.76604443648966558 0.64278761758704617 I I #
vertex $-1 $378 $481 #
straight-curve $-1 -38.555363132455938 -14.868574270682728 36.055082186724746 0 -0.76604443648966558 0.64278761758704617 I I #
edge $-1 $482 -27.943779743840462 $263 -14.72498519748795 $262 $483 forward 7 unknown #
point $-1 -50.125521106555567 14.72498519748795 11.223136831655744 #
point $-1 -38.555363132455938 14.72498519748795 11.223136831655744 #
edge $-1 $484 1 $484 0 $266 $-1 forward 7 unknown #
vertex $-1 $267 $485 #
ellipse-curve $-1 -46.819761685384243 19.078809392330015 2.9891066381082045 0 0.64278761758704617 0.76604443648966558 1.5 0 0 1 I I #
point $-1 -45.319761685384243 21.334382470664195 5.6771939012698684 #
edge $-1 $486 1 $486 0 $270 $-1 forward 7 unknown #
vertex $-1 $271 $487 #
ellipse-curve $-1 -41.861122553627261 19.078809392330015 2.9891066381082045 0 0.64278761758704617 0.76604443648966558 1.5 0 0 1 I I #
point $-1 -40.361122553627261 21.334382470664195 5.6771939012698684 #
loop $-1 $-1 $281 $274 #
plane-surface $-1 0 -27.943779743840462 0 0 1 0 0 0 1 forward_v I I I I #
coedge $-1 $488 $489 $278 $400 reversed $275 $-1 #
coedge $-1 $278 $277 $405 $490 reversed $107 $-1 #
edge $-1 $491 4.1888979916949389e-015 $402 15.319127937499626 $398 $492 forward 7 unknown #
coedge $-1 $284 $279 $489 $493 forward $171 $-1 #
vertex $-1 $493 $494 #
straight-curve $-1 -21.425841697270808 -15.096078087059132 11.22313683165574 -1 0 0 I I #
coedge $-1 $495 $281 $284 $409 reversed $396 $-1 #
coedge $-1 $281 $495 $399 $490 forward $396 $-1 #
vertex $-1 $282 $496 #
straight-curve $-1 -35.577845682527666 -27.943779743840466 52.67998805195468 0 0 1 I I #
straight-curve $-1 -35.577845682527666 -27.943779743840466 2.8797416651890444 0 -0.83867056331134215 -0.54463904215088732 I I #
edge $-1 $497 -50.125521106555567 $285 -35.577845682527666 $404 $498 forward 7 unknown #
point $-1 -35.577845682527666 -27.943779743840462 11.22313683165574 #
point $-1 -35.577845682527666 -15.096078087059134 11.22313683165574 #
edge $-1 $499 1 $499 0 $288 $-1 forward 7 unknown #
vertex $-1 $289 $500 #
ellipse-curve $-1 -47.215986021749984 -20.367837911433426 5.2773747092580177 0 -0.54463904215088732 0.83867056331134215 1 0 0 1 I I #
point $-1 -46.215986021749984 -21.5199289154498 7.0514392484223922 #
edge $-1 $501 1 $501 0 $292 $-1 forward 7 unknown #
vertex $-1 $293 $502 #
ellipse-curve $-1 -42.851683394541617 -20.367837911433426 5.2773747092580177 0 -0.54463904215088732 0.83867056331134215 1 0 0 1 I I #
point $-1 -41.851683394541617 -21.5199289154498 7.0514392484223922 #
edge $-1 $503 1 $503 0 $296 $-1 forward 7 unknown #
vertex $-1 $297 $504 #
ellipse-curve $-1 -38.487380767333249 -20.367837911433426 5.2773747092580177 0 -0.54463904215088732 0.83867056331134215 1 0 0 1 I I #
point $-1 -37.487380767333249 -21.5199289154498 7.0514392484223922 #
plane-surface $-1 61.096835230567336 0 0 -1 0 0 0 0 1 forward_v I I I I #
coedge $-1 $305 $303 $307 $429 reversed $200 $-1 #
edge $-1 $318 -11.22313683165574 $431 11.22313683165574 $317 $505 forward 7 unknown #
vertex $-1 $429 $506 #
straight-curve $-1 -61.096835230567336 -27.943779743840462 0 0 0 -1 I I #
edge $-1 $427 -27.943779743840462 $431 27.943779743840462 $425 $507 forward 7 unknown #
straight-curve $-1 0 -27.943779743840462 -11.22313683165574 -1 0 0 I I #
vertex $-1 $310 $508 #
straight-curve $-1 0 27.943779743840462 -11.22313683165574 1 0 0 I I #
point $-1 61.096835230567336 27.943779743840462 -11.22313683165574 #
point $-1 61.096835230567336 -27.943779743840462 -11.22313683165574 #
straight-curve $-1 -61.096835230567336 0 11.22313683165574 0 -1 0 I I #
point $-1 -61.096835230567336 27.943779743840462 11.22313683165574 #
point $-1 -61.096835230567336 -27.943779743840462 11.22313683165574 #
straight-curve $-1 61.096835230567336 -27.943779743840462 0 0 0 -1 I I #
straight-curve $-1 61.096835230567336 27.943779743840462 0 0 0 -1 I I #
plane-surface $-1 0 -27.943779743840462 0 0 1 0 0 0 1 forward_v I I I I #
coedge $-1 $509 $330 $447 $510 reversed $219 $-1 #
coedge $-1 $330 $509 $444 $511 forward $219 $-1 #
edge $-1 $450 -27.943779743840462 $448 27.943779743840462 $330 $512 forward 7 unknown #
coedge $-1 $332 $331 $442 $511 reversed $134 $-1 #
coedge $-1 $513 $337 $332 $446 forward $328 $-1 #
edge $-1 $339 50.125521106555567 $514 61.096835230567336 $332 $515 forward 7 unknown #
coedge $-1 $334 $341 $441 $510 forward $342 $-1 #
vertex $-1 $443 $516 #
straight-curve $-1 -27.805589084280726 -27.943779743840462 5.72271401664187 1 0 0 I I #
vertex $-1 $443 $517 #
straight-curve $-1 -27.805589084280726 27.943779743840462 5.72271401664187 -1 0 0 I I #
coedge $-1 $337 $513 $341 $455 forward $328 $-1 #
straight-curve $-1 -50.125521106555567 0 11.22313683165574 0 1 0 I I #
point $-1 -50.125521106555567 27.943779743840462 11.22313683165574 #
edge $-1 $518 -61.096835230567336 $343 -50.125521106555567 $341 $519 forward 7 unknown #
point $-1 -50.125521106555567 -27.943779743840462 11.22313683165574 #
plane-surface $-1 61.096835230567336 0 0 -1 0 0 0 0 1 forward_v I I I I #
coedge $-1 $350 $360 $351 $461 reversed $232 $-1 #
edge $-1 $463 -6.9866741195813375 $361 -1.4862513045674675 $350 $520 forward 7 unknown #
coedge $-1 $352 $351 $365 $469 forward $141 $-1 #
edge $-1 $463 50.125521106555567 $472 61.096835230567336 $458 $521 forward 7 unknown #
edge $-1 $470 -61.096835230567336 $358 -50.125521106555567 $356 $522 forward 7 unknown #
vertex $-1 $461 $523 #
straight-curve $-1 50.125521106555567 0 11.22313683165574 0 -1 0 I I #
straight-curve $-1 50.125521106555567 0 5.72271401664187 0 1 0 I I #
point $-1 50.125521106555567 27.943779743840462 5.72271401664187 #
point $-1 50.125521106555567 27.943779743840462 11.22313683165574 #
point $-1 50.125521106555567 -27.943779743840462 5.72271401664187 #
edge $-1 $472 -27.943779743840462 $470 27.943779743840462 $365 $524 forward 7 unknown #
vertex $-1 $469 $525 #
straight-curve $-1 61.096835230567336 27.943779743840462 0 0 0 -1 I I #
vertex $-1 $469 $526 #
straight-curve $-1 61.096835230567336 -27.943779743840462 0 0 0 -1 I I #
coedge $-1 $373 $372 $380 $479 forward $149 $-1 #
edge $-1 $376 38.555363132455938 $482 50.125521106555567 $373 $527 forward 7 unknown #
straight-curve $-1 -38.555363132455938 27.943779743840462 64.830431808864276 0 0 -1 I I #
point $-1 -38.555363132455938 27.943779743840462 11.22313683165574 #
straight-curve $-1 -22.170221059752876 27.943779743840459 0.13125097088401105 -1 0 0 I I #
edge $-1 $381 -64.699180837980265 $482 -53.607294977208539 $474 $528 forward 7 unknown #
point $-1 -50.125521106555567 27.943779743840466 0.13125097088401105 #
point $-1 -38.555363132455938 27.943779743840466 0.13125097088401105 #
vertex $-1 $385 $529 #
straight-curve $-1 -50.125521106555567 0 11.22313683165574 0 -1 0 I I #
vertex $-1 $388 $530 #
point $-1 -45.319761685384243 19.078809392330015 2.9891066381082045 #
vertex $-1 $392 $531 #
point $-1 -40.361122553627261 19.078809392330015 2.9891066381082045 #
coedge $-1 $489 $398 $495 $532 reversed $275 $-1 #
coedge $-1 $398 $488 $401 $493 reversed $275 $-1 #
edge $-1 $491 -28.699679409284759 $406 -14.152003985256858 $405 $533 forward 7 unknown #
vertex $-1 $532 $534 #
straight-curve $-1 -50.125521106555567 -27.943779743840466 2.8797416651890444 0 0.83867056331134215 0.54463904215088732 I I #
edge $-1 $402 15.096078087059134 $497 27.943779743840462 $401 $535 forward 7 unknown #
point $-1 -50.125521106555567 -15.096078087059134 11.22313683165574 #
coedge $-1 $405 $404 $488 $532 forward $396 $-1 #
point $-1 -35.577845682527666 -27.943779743840462 2.8797416651890466 #
vertex $-1 $409 $536 #
straight-curve $-1 0 -27.943779743840462 11.22313683165574 1 0 0 I I #
vertex $-1 $412 $537 #
point $-1 -46.215986021749984 -20.367837911433426 5.2773747092580177 #
vertex $-1 $416 $538 #
point $-1 -41.851683394541617 -20.367837911433426 5.2773747092580177 #
vertex $-1 $420 $539 #
point $-1 -37.487380767333249 -20.367837911433426 5.2773747092580177 #
straight-curve $-1 -61.096835230567336 27.943779743840462 0 0 0 -1 I I #
point $-1 -61.096835230567336 -27.943779743840462 -11.22313683165574 #
straight-curve $-1 -61.096835230567336 0 -11.22313683165574 0 1 0 I I #
point $-1 -61.096835230567336 27.943779743840462 -11.22313683165574 #
coedge $-1 $442 $441 $513 $540 reversed $219 $-1 #
edge $-1 $518 -11.22313683165574 $448 -5.72271401664187 $441 $541 forward 7 unknown #
edge $-1 $514 -11.22313683165574 $450 -5.72271401664187 $444 $542 forward 7 unknown #
straight-curve $-1 -61.096835230567336 0 5.72271401664187 0 -1 0 I I #
coedge $-1 $452 $445 $509 $540 forward $328 $-1 #
vertex $-1 $446 $543 #
straight-curve $-1 0 27.943779743840462 11.22313683165574 -1 0 0 I I #
point $-1 -61.096835230567336 -27.943779743840462 5.72271401664187 #
point $-1 -61.096835230567336 27.943779743840462 5.72271401664187 #
vertex $-1 $540 $544 #
straight-curve $-1 0 -27.943779743840462 11.22313683165574 1 0 0 I I #
straight-curve $-1 50.125521106555567 -27.943779743840462 4.2364627120744025 0 0 -1 I I #
straight-curve $-1 0 -27.943779743840462 11.22313683165574 1 0 0 I I #
straight-curve $-1 0 27.943779743840462 11.22313683165574 -1 0 0 I I #
point $-1 50.125521106555567 -27.943779743840462 11.22313683165574 #
straight-curve $-1 61.096835230567336 0 11.22313683165574 0 1 0 I I #
point $-1 61.096835230567336 27.943779743840462 11.22313683165574 #
point $-1 61.096835230567336 -27.943779743840462 11.22313683165574 #
straight-curve $-1 0 27.943779743840462 11.22313683165574 -1 0 0 I I #
straight-curve $-1 -50.125521106555567 27.943779743840462 64.830431808864276 0 0 1 I I #
point $-1 -50.125521106555567 27.943779743840462 11.22313683165574 #
point $-1 -46.819761685384243 18.114627965949445 1.8400399833737064 #
point $-1 -41.861122553627261 18.114627965949445 1.8400399833737064 #
edge $-1 $497 41.456851220298944 $491 49.800246386765636 $495 $545 forward 7 unknown #
straight-curve $-1 -21.425841697270808 -27.943779743840462 2.8797416651890471 1 0 0 I I #
point $-1 -50.125521106555567 -27.943779743840462 2.8797416651890466 #
straight-curve $-1 -50.125521106555567 0 11.22313683165574 0 -1 0 I I #
point $-1 -50.125521106555567 -27.943779743840462 11.22313683165574 #
point $-1 -47.215986021749984 -19.823198869282542 4.4387041459466747 #
point $-1 -42.851683394541617 -19.823198869282542 4.4387041459466747 #
point $-1 -38.487380767333249 -19.823198869282542 4.4387041459466747 #
edge $-1 $514 -27.943779743840462 $518 27.943779743840462 $509 $546 forward 7 unknown #
straight-curve $-1 -61.096835230567336 -27.943779743840462 0 0 0 -1 I I #
straight-curve $-1 -61.096835230567336 27.943779743840462 0 0 0 -1 I I #
point $-1 -61.096835230567336 27.943779743840462 11.22313683165574 #
point $-1 -61.096835230567336 -27.943779743840462 11.22313683165574 #
straight-curve $-1 -50.125521106555567 -27.943779743840466 52.67998805195468 0 0 -1 I I #
straight-curve $-1 -61.096835230567336 0 11.22313683165574 0 -1 0 I I #
End-of-ACIS-data 