500 0 5 0           
7 Unknown 11 ACIS 5.0 NT 24 Fri Mar 26 18:41:14 1999 
-1 9.9999999999999995e-007 1e-010 
body $-1 $5 $-1 $6 #
body $-1 $7 $-1 $8 #
body $-1 $9 $-1 $10 #
body $-1 $11 $-1 $12 #
body $-1 $13 $-1 $14 #
lump $-1 $-1 $15 $0 #
transform $-1 1 0 0 0 1 0 0 0 1 61.271401104770042 32.203995608587014 10.856108740284167 1 rotate no_reflect no_shear #
lump $-1 $-1 $16 $1 #
transform $-1 1 0 0 0 1 0 0 0 1 61.271401104770042 32.203995608587014 10.856108740284167 1 rotate no_reflect no_shear #
lump $-1 $-1 $17 $2 #
transform $-1 1 0 0 0 1 0 0 0 1 61.271401104770042 32.203995608587014 10.856108740284167 1 rotate no_reflect no_shear #
lump $-1 $-1 $18 $3 #
transform $-1 1 0 0 0 1 0 0 0 1 61.271401104770042 32.203995608587014 10.856108740284167 1 rotate no_reflect no_shear #
lump $-1 $-1 $19 $4 #
transform $-1 1 0 0 0 1 0 0 0 1 61.271401104770042 32.203995608587014 10.856108740284167 1 rotate no_reflect no_shear #
shell $-1 $-1 $-1 $20 $-1 $5 #
shell $-1 $-1 $-1 $21 $-1 $7 #
shell $-1 $-1 $-1 $22 $-1 $9 #
shell $-1 $-1 $-1 $23 $-1 $11 #
shell $-1 $-1 $-1 $24 $-1 $13 #
face $-1 $25 $26 $15 $-1 $27 forward single #
face $-1 $28 $29 $16 $-1 $30 forward single #
face $-1 $31 $32 $17 $-1 $33 forward single #
face $-1 $34 $35 $18 $-1 $36 reversed single #
face $-1 $37 $38 $19 $-1 $39 reversed single #
face $-1 $40 $41 $15 $-1 $42 reversed single #
loop $-1 $-1 $43 $20 #
plane-surface $-1 0 0 10.856108740284167 0 0 1 1 0 0 forward_v I I I I #
face $-1 $44 $45 $16 $-1 $46 forward single #
loop $-1 $-1 $47 $21 #
plane-surface $-1 -52.165961554254054 -27.734132731375723 0 1 0 0 0 0 -1 forward_v I I I I #
face $-1 $48 $49 $17 $-1 $50 forward single #
loop $-1 $-1 $51 $22 #
plane-surface $-1 -150.89353412027108 23.890932573602008 88.489241760251659 0 1 0 -0.73135370988377701 0 0.68199835119979291 forward_v I I I I #
face $-1 $52 $53 $18 $-1 $54 reversed single #
loop $-1 $55 $56 $23 #
cone-surface $-1 -58.135755376963687 26.266093440740583 7.5446815455136766 0.73135370988377701 0 -0.68199835119979291 0.17049958779994823 0 0.18283842747094425 1 I I 0 1 0.25 forward I I I I #
face $-1 $57 $58 $19 $-1 $59 reversed single #
loop $-1 $60 $61 $24 #
cone-surface $-1 -58.135755376963687 29.828834741448439 7.5446815455136766 0.73135370988377701 0 -0.68199835119979291 0.17049958779994823 0 0.18283842747094425 1 I I 0 1 0.25 forward I I I I #
face $-1 $62 $63 $15 $-1 $64 reversed single #
loop $-1 $-1 $65 $25 #
plane-surface $-1 0 0 -10.856108740284167 0 0 1 1 0 0 forward_v I I I I #
coedge $-1 $66 $67 $68 $69 forward $26 $-1 #
face $-1 $70 $71 $16 $-1 $72 forward single #
loop $-1 $-1 $73 $28 #
plane-surface $-1 -50.371872548867145 -23.264269854164432 0 0 -1 0 0 0 -1 forward_v I I I I #
coedge $-1 $74 $75 $76 $77 reversed $29 $-1 #
face $-1 $78 $79 $17 $-1 $80 forward single #
loop $-1 $-1 $81 $31 #
plane-surface $-1 -61.271401104770021 28.047464091094511 4.9152527019429755 -0.73135370988377701 0 0.68199835119979291 0.68199835119979291 0 0.73135370988377701 forward_v I I I I #
coedge $-1 $82 $83 $84 $85 reversed $32 $-1 #
face $-1 $86 $87 $18 $-1 $88 forward single #
loop $-1 $89 $90 $34 #
cone-surface $-1 -57.678659308286328 26.266093440740583 7.1184325760138059 0.73135370988377701 0 -0.68199835119979291 0.085249793899974113 0 0.091419213735472127 1 I I -0.70710678118654746 0.70710678118654746 0.125 forward I I I I #
loop $-1 $-1 $91 $23 #
coedge $-1 $56 $56 $92 $93 reversed $35 $-1 #
face $-1 $94 $95 $19 $-1 $96 reversed single #
loop $-1 $97 $98 $37 #
cone-surface $-1 -57.678659308286328 29.828834741448439 7.1184325760138059 0.73135370988377701 0 -0.68199835119979291 0.085249793899974113 0 0.091419213735472127 1 I I -0.70710678118654746 0.70710678118654746 0.125 forward I I I I #
loop $-1 $-1 $99 $24 #
coedge $-1 $61 $61 $100 $101 reversed $38 $-1 #
face $-1 $102 $103 $15 $-1 $104 reversed single #
loop $-1 $-1 $105 $40 #
plane-surface $-1 0 -32.203995608587014 0 0 1 0 0 0 1 forward_v I I I I #
coedge $-1 $106 $107 $108 $109 forward $41 $-1 #
coedge $-1 $110 $43 $111 $112 forward $26 $-1 #
coedge $-1 $43 $110 $113 $114 forward $26 $-1 #
coedge $-1 $115 $116 $43 $69 reversed $117 $-1 #
edge $-1 $118 -32.203995608587014 $119 32.203995608587014 $68 $120 forward 7 unknown #
face $-1 $121 $122 $16 $-1 $123 forward single #
loop $-1 $-1 $124 $44 #
plane-surface $-1 -48.577783543480237 -27.734132731375723 0 -1 0 0 0 0 1 forward_v I I I I #
coedge $-1 $125 $126 $127 $128 reversed $45 $-1 #
coedge $-1 $129 $47 $130 $131 reversed $29 $-1 #
coedge $-1 $47 $129 $132 $133 reversed $29 $-1 #
coedge $-1 $126 $125 $47 $77 forward $45 $-1 #
edge $-1 $134 -10.856108740284167 $135 10.856108740284167 $76 $136 forward 7 unknown #
face $-1 $137 $138 $17 $-1 $139 reversed single #
loop $-1 $-1 $140 $48 #
plane-surface $-1 0 0 10.856108740284167 0 0 1 1 0 0 forward_v I I I I #
coedge $-1 $141 $142 $140 $143 reversed $49 $-1 #
coedge $-1 $83 $51 $142 $144 forward $32 $-1 #
coedge $-1 $51 $82 $145 $146 reversed $32 $-1 #
coedge $-1 $147 $140 $51 $85 forward $79 $-1 #
edge $-1 $148 -19.715303701094456 $149 -14.1753659553655 $84 $150 forward 7 unknown #
face $-1 $151 $152 $18 $-1 $153 forward single #
loop $-1 $-1 $154 $52 #
plane-surface $-1 -150.89353412027108 23.890932573602008 88.489241760251659 0 1 0 -0.73135370988377701 0 0.68199835119979291 forward_v I I I I #
loop $-1 $-1 $155 $34 #
coedge $-1 $90 $90 $91 $156 forward $53 $-1 #
coedge $-1 $91 $91 $90 $156 reversed $55 $-1 #
coedge $-1 $92 $92 $56 $93 forward $152 $-1 #
edge $-1 $157 0 $157 6.2831853071796004 $92 $158 forward 7 unknown #
face $-1 $159 $160 $19 $-1 $161 reversed single #
loop $-1 $162 $163 $57 #
cone-surface $-1 -58.135755376963687 26.266093440740583 7.5446815455136766 0.73135370988377701 0 -0.68199835119979291 0.17049958779994823 0 0.18283842747094425 1 I I 0 1 0.25 forward I I I I #
loop $-1 $-1 $164 $37 #
coedge $-1 $98 $98 $99 $165 forward $58 $-1 #
coedge $-1 $99 $99 $98 $165 reversed $60 $-1 #
coedge $-1 $100 $100 $61 $101 forward $166 $-1 #
edge $-1 $167 0 $167 6.2831853071796004 $100 $168 forward 7 unknown #
face $-1 $169 $170 $15 $-1 $171 reversed single #
loop $-1 $-1 $172 $62 #
plane-surface $-1 -61.271401104770042 0 0 1 0 0 0 0 -1 forward_v I I I I #
coedge $-1 $173 $113 $174 $175 forward $63 $-1 #
coedge $-1 $176 $65 $173 $177 forward $41 $-1 #
coedge $-1 $65 $176 $178 $179 forward $41 $-1 #
coedge $-1 $116 $115 $65 $109 reversed $117 $-1 #
edge $-1 $180 -32.203995608587014 $181 32.203995608587014 $108 $182 forward 7 unknown #
coedge $-1 $67 $66 $183 $184 forward $26 $-1 #
coedge $-1 $185 $186 $66 $112 reversed $170 $-1 #
edge $-1 $119 -61.271401104770042 $187 61.271401104770042 $111 $188 forward 7 unknown #
coedge $-1 $105 $189 $67 $114 reversed $63 $-1 #
edge $-1 $190 -61.271401104770042 $118 61.271401104770042 $113 $191 forward 7 unknown #
coedge $-1 $108 $68 $189 $192 forward $117 $-1 #
coedge $-1 $68 $108 $185 $193 reversed $117 $-1 #
loop $-1 $-1 $115 $169 #
vertex $-1 $69 $194 #
vertex $-1 $69 $195 #
straight-curve $-1 61.271401104770042 0 10.856108740284167 0 1 0 I I #
face $-1 $196 $197 $16 $-1 $198 reversed single #
loop $-1 $-1 $130 $70 #
plane-surface $-1 0 0 10.856108740284167 0 0 1 1 0 0 forward_v I I I I #
coedge $-1 $199 $200 $201 $202 reversed $71 $-1 #
coedge $-1 $76 $73 $203 $204 reversed $45 $-1 #
coedge $-1 $73 $76 $205 $206 reversed $45 $-1 #
coedge $-1 $200 $199 $73 $128 forward $71 $-1 #
edge $-1 $207 -10.856108740284167 $208 10.856108740284167 $127 $209 forward 7 unknown #
coedge $-1 $75 $74 $210 $211 reversed $29 $-1 #
coedge $-1 $203 $212 $74 $131 forward $122 $-1 #
edge $-1 $213 -18.336929242899153 $134 -9.3972034884765705 $130 $214 forward 7 unknown #
coedge $-1 $215 $205 $75 $133 forward $216 $-1 #
edge $-1 $135 9.3972034884765705 $217 18.336929242899153 $132 $218 forward 7 unknown #
vertex $-1 $131 $219 #
vertex $-1 $133 $220 #
straight-curve $-1 -52.165961554254054 -23.264269854164432 0 0 0 -1 I I #
face $-1 $221 $222 $17 $-1 $223 forward single #
loop $-1 $-1 $145 $78 #
plane-surface $-1 -61.271401104770042 0 0 1 0 0 0 0 -1 forward_v I I I I #
coedge $-1 $84 $224 $81 $143 forward $79 $-1 #
coedge $-1 $225 $81 $226 $227 reversed $49 $-1 #
coedge $-1 $81 $225 $82 $144 reversed $49 $-1 #
edge $-1 $228 -18.180263563039759 $148 -9.8672005280547523 $140 $229 forward 7 unknown #
edge $-1 $148 -8.1230955118628998 $230 3.1426556366807674e-014 $82 $231 forward 7 unknown #
coedge $-1 $232 $233 $83 $146 forward $138 $-1 #
edge $-1 $149 33.388512139841666 $230 39.329368178182875 $145 $234 forward 7 unknown #
coedge $-1 $235 $84 $233 $236 forward $79 $-1 #
vertex $-1 $143 $237 #
vertex $-1 $236 $238 #
straight-curve $-1 -75.446767060135542 23.890932573602008 10.856108740284171 -1 0 0 I I #
face $-1 $239 $240 $18 $-1 $241 forward single #
loop $-1 $242 $92 $86 #
plane-surface $-1 -61.271401104770021 28.047464091094511 4.9152527019429755 -0.73135370988377701 0 0.68199835119979291 0.68199835119979291 0 0.73135370988377701 forward_v I I I I #
coedge $-1 $243 $244 $245 $246 reversed $87 $-1 #
coedge $-1 $155 $155 $-1 $247 forward $89 $-1 #
edge $-1 $248 0 $248 6.2831853071796004 $90 $249 forward 7 unknown #
vertex $-1 $93 $250 #
ellipse-curve $-1 -58.501432231905561 26.266093440740583 7.8856807211135607 0.73135370988377701 0 -0.68199835119979291 0.17049958779994823 0 0.18283842747094425 1 I I #
face $-1 $251 $252 $19 $-1 $253 forward single #
loop $-1 $254 $255 $94 #
cone-surface $-1 -57.678659308286328 26.266093440740583 7.1184325760138059 0.73135370988377701 0 -0.68199835119979291 0.085249793899974113 0 0.091419213735472127 1 I I -0.70710678118654746 0.70710678118654746 0.125 forward I I I I #
loop $-1 $-1 $256 $57 #
coedge $-1 $163 $163 $257 $258 reversed $95 $-1 #
coedge $-1 $164 $164 $-1 $259 forward $97 $-1 #
edge $-1 $260 0 $260 6.2831853071796004 $98 $261 forward 7 unknown #
loop $-1 $262 $100 $251 #
vertex $-1 $101 $263 #
ellipse-curve $-1 -58.501432231905561 29.828834741448439 7.8856807211135607 0.73135370988377701 0 -0.68199835119979291 0.17049958779994823 0 0.18283842747094425 1 I I #
face $-1 $-1 $117 $15 $-1 $264 reversed single #
loop $-1 $-1 $185 $102 #
plane-surface $-1 0 32.203995608587014 0 0 -1 0 0 0 -1 forward_v I I I I #
coedge $-1 $265 $183 $186 $266 forward $103 $-1 #
coedge $-1 $189 $105 $106 $177 reversed $63 $-1 #
coedge $-1 $183 $265 $105 $175 reversed $103 $-1 #
edge $-1 $190 -10.856108740284167 $267 10.856108740284167 $174 $268 forward 7 unknown #
coedge $-1 $107 $106 $265 $269 forward $41 $-1 #
edge $-1 $181 -61.271401104770042 $267 61.271401104770042 $173 $270 forward 7 unknown #
coedge $-1 $186 $185 $107 $179 reversed $170 $-1 #
edge $-1 $271 -61.271401104770042 $180 61.271401104770042 $178 $272 forward 7 unknown #
vertex $-1 $109 $273 #
vertex $-1 $192 $274 #
straight-curve $-1 61.271401104770042 0 -10.856108740284167 0 -1 0 I I #
coedge $-1 $172 $174 $110 $184 reversed $103 $-1 #
edge $-1 $187 -32.203995608587014 $190 32.203995608587014 $183 $275 forward 7 unknown #
coedge $-1 $178 $111 $116 $193 forward $170 $-1 #
coedge $-1 $111 $178 $172 $266 reversed $170 $-1 #
vertex $-1 $112 $276 #
straight-curve $-1 0 32.203995608587014 10.856108740284167 -1 0 0 I I #
coedge $-1 $113 $173 $115 $192 reversed $63 $-1 #
vertex $-1 $184 $277 #
straight-curve $-1 0 -32.203995608587014 10.856108740284167 1 0 0 I I #
edge $-1 $118 -10.856108740284167 $181 10.856108740284167 $115 $278 forward 7 unknown #
edge $-1 $119 -10.856108740284167 $180 10.856108740284167 $116 $279 forward 7 unknown #
point $-1 61.271401104770042 -32.203995608587014 10.856108740284167 #
point $-1 61.271401104770042 32.203995608587014 10.856108740284167 #
face $-1 $280 $216 $16 $-1 $281 reversed single #
loop $-1 $-1 $201 $121 #
plane-surface $-1 0 -32.203995608587014 0 0 1 0 0 0 1 forward_v I I I I #
coedge $-1 $127 $124 $282 $283 reversed $71 $-1 #
coedge $-1 $124 $127 $284 $285 reversed $71 $-1 #
coedge $-1 $286 $287 $124 $202 forward $197 $-1 #
edge $-1 $288 -10.856108740284167 $289 10.856108740284167 $201 $290 forward 7 unknown #
coedge $-1 $282 $130 $125 $204 forward $122 $-1 #
edge $-1 $134 -26.980025279820481 $207 -23.391847269046664 $203 $291 forward 7 unknown #
coedge $-1 $132 $284 $126 $206 forward $216 $-1 #
edge $-1 $208 23.391847269046664 $135 26.980025279820481 $205 $292 forward 7 unknown #
vertex $-1 $204 $293 #
vertex $-1 $206 $294 #
straight-curve $-1 -48.577783543480237 -23.264269854164432 0 0 0 -1 I I #
coedge $-1 $295 $296 $129 $211 forward $297 $-1 #
edge $-1 $217 -10.856108740284167 $213 10.856108740284167 $210 $298 forward 7 unknown #
coedge $-1 $130 $299 $295 $300 forward $122 $-1 #
vertex $-1 $211 $301 #
straight-curve $-1 -52.165961554254054 -13.867066365687862 10.856108740284167 0 1 0 I I #
coedge $-1 $302 $132 $296 $303 forward $216 $-1 #
loop $-1 $-1 $132 $196 #
vertex $-1 $303 $304 #
straight-curve $-1 -52.165961554254054 -13.867066365687862 -10.856108740284167 0 -1 0 I I #
point $-1 -52.165961554254054 -23.264269854164432 10.856108740284167 #
point $-1 -52.165961554254054 -23.264269854164432 -10.856108740284167 #
face $-1 $305 $306 $17 $-1 $307 forward single #
loop $-1 $-1 $308 $137 #
plane-surface $-1 -52.165961554254054 -27.734132731375723 0 1 0 0 0 0 -1 forward_v I I I I #
coedge $-1 $140 $309 $310 $311 forward $79 $-1 #
coedge $-1 $142 $141 $232 $312 reversed $49 $-1 #
coedge $-1 $310 $313 $141 $227 forward $314 $-1 #
edge $-1 $315 -19.096103115286063 $228 -10.973007603423135 $226 $316 forward 7 unknown #
vertex $-1 $227 $317 #
straight-curve $-1 -55.731463359041086 14.023732045547256 10.856108740284167 0 -1 0 I I #
vertex $-1 $312 $318 #
straight-curve $-1 -61.271401104770021 23.890932573602008 4.9152527019429755 -0.68199835119979291 0 -0.73135370988377701 I I #
coedge $-1 $319 $145 $225 $312 forward $138 $-1 #
coedge $-1 $145 $320 $147 $236 reversed $138 $-1 #
straight-curve $-1 -61.271401104770042 23.890932573602008 44.244620880125829 0 0 -1 I I #
coedge $-1 $321 $147 $322 $323 forward $79 $-1 #
edge $-1 $149 -23.890932573602008 $324 32.203995608587014 $233 $325 forward 7 unknown #
point $-1 -55.731463359041086 23.890932573602008 10.856108740284167 #
point $-1 -61.271401104770042 23.890932573602008 10.856108740284167 #
face $-1 $326 $327 $18 $-1 $328 reversed single #
loop $-1 $-1 $329 $151 #
plane-surface $-1 0 0 10.856108740284167 0 0 1 1 0 0 forward_v I I I I #
loop $-1 $-1 $330 $86 #
coedge $-1 $244 $154 $331 $332 forward $87 $-1 #
coedge $-1 $154 $243 $333 $334 reversed $87 $-1 #
coedge $-1 $335 $329 $154 $246 forward $240 $-1 #
edge $-1 $336 -19.715303701094456 $337 -14.1753659553655 $245 $338 forward 7 unknown #
edge $-1 $339 1 $339 0 $155 $-1 forward 7 unknown #
vertex $-1 $156 $340 #
ellipse-curve $-1 -57.770078522021798 26.266093440740583 7.2036823699137802 -0.73135370988377701 0 0.68199835119979291 0.17049958779994823 0 0.18283842747094425 1 I I #
point $-1 -58.33093264410563 26.266093440740583 8.0685191485845174 #
face $-1 $341 $166 $19 $-1 $342 forward single #
loop $-1 $-1 $343 $159 #
plane-surface $-1 -150.89353412027108 23.890932573602008 88.489241760251659 0 1 0 -0.73135370988377701 0 0.68199835119979291 forward_v I I I I #
loop $-1 $-1 $344 $94 #
coedge $-1 $255 $255 $256 $345 forward $160 $-1 #
coedge $-1 $256 $256 $255 $345 reversed $162 $-1 #
coedge $-1 $257 $257 $163 $258 forward $262 $-1 #
edge $-1 $346 0 $346 6.2831853071796004 $257 $347 forward 7 unknown #
edge $-1 $348 1 $348 0 $164 $-1 forward 7 unknown #
vertex $-1 $165 $349 #
ellipse-curve $-1 -57.770078522021798 29.828834741448439 7.2036823699137802 -0.73135370988377701 0 0.68199835119979291 0.17049958779994823 0 0.18283842747094425 1 I I #
loop $-1 $350 $257 $251 #
point $-1 -58.33093264410563 29.828834741448439 8.0685191485845174 #
plane-surface $-1 61.271401104770042 0 0 -1 0 0 0 0 1 forward_v I I I I #
coedge $-1 $174 $172 $176 $269 reversed $103 $-1 #
edge $-1 $187 -10.856108740284167 $271 10.856108740284167 $186 $351 forward 7 unknown #
vertex $-1 $269 $352 #
straight-curve $-1 -61.271401104770042 -32.203995608587014 0 0 0 -1 I I #
edge $-1 $267 -32.203995608587014 $271 32.203995608587014 $265 $353 forward 7 unknown #
straight-curve $-1 0 -32.203995608587014 -10.856108740284167 -1 0 0 I I #
vertex $-1 $179 $354 #
straight-curve $-1 0 32.203995608587014 -10.856108740284167 1 0 0 I I #
point $-1 61.271401104770042 32.203995608587014 -10.856108740284167 #
point $-1 61.271401104770042 -32.203995608587014 -10.856108740284167 #
straight-curve $-1 -61.271401104770042 0 10.856108740284167 0 -1 0 I I #
point $-1 -61.271401104770042 32.203995608587014 10.856108740284167 #
point $-1 -61.271401104770042 -32.203995608587014 10.856108740284167 #
straight-curve $-1 61.271401104770042 -32.203995608587014 0 0 0 -1 I I #
straight-curve $-1 61.271401104770042 32.203995608587014 0 0 0 -1 I I #
face $-1 $355 $297 $16 $-1 $198 reversed single #
plane-surface $-1 0 0 -10.856108740284167 0 0 1 1 0 0 forward_v I I I I #
coedge $-1 $356 $203 $199 $283 forward $122 $-1 #
edge $-1 $207 9.3972034884765705 $288 18.336929242899153 $282 $357 forward 7 unknown #
coedge $-1 $205 $358 $200 $285 forward $216 $-1 #
edge $-1 $289 -18.336929242899153 $208 -9.3972034884765705 $284 $359 forward 7 unknown #
coedge $-1 $360 $201 $358 $361 reversed $197 $-1 #
coedge $-1 $201 $360 $356 $362 reversed $197 $-1 #
vertex $-1 $362 $363 #
vertex $-1 $202 $364 #
straight-curve $-1 -48.577783543480237 -32.203995608587014 0 0 0 -1 I I #
straight-curve $-1 -25.185936274433573 -23.264269854164432 10.856108740284167 1 0 0 I I #
straight-curve $-1 -25.185936274433573 -23.264269854164432 -10.856108740284167 -1 0 0 I I #
point $-1 -48.577783543480237 -23.264269854164432 10.856108740284167 #
point $-1 -48.577783543480237 -23.264269854164432 -10.856108740284167 #
coedge $-1 $365 $210 $212 $300 reversed $297 $-1 #
coedge $-1 $210 $365 $215 $303 reversed $297 $-1 #
loop $-1 $-1 $210 $280 #
straight-curve $-1 -52.165961554254054 -32.203995608587014 0 0 0 1 I I #
coedge $-1 $212 $366 $367 $368 forward $122 $-1 #
edge $-1 $369 -61.271401104770042 $213 -52.165961554254054 $295 $370 forward 7 unknown #
point $-1 -52.165961554254054 -32.203995608587014 10.856108740284167 #
coedge $-1 $371 $215 $372 $373 forward $216 $-1 #
edge $-1 $217 52.165961554254054 $374 61.271401104770042 $296 $375 forward 7 unknown #
point $-1 -52.165961554254054 -32.203995608587014 -10.856108740284167 #
face $-1 $376 $377 $17 $-1 $378 forward single #
loop $-1 $-1 $379 $221 #
plane-surface $-1 -50.371872548867145 -23.264269854164432 0 0 -1 0 0 0 -1 forward_v I I I I #
coedge $-1 $380 $381 $382 $383 reversed $222 $-1 #
coedge $-1 $224 $384 $385 $386 forward $79 $-1 #
coedge $-1 $387 $226 $224 $311 reversed $314 $-1 #
edge $-1 $388 -61.271401104770042 $228 55.731463359041086 $310 $389 forward 7 unknown #
edge $-1 $230 9.8672005280547523 $315 18.180263563039759 $232 $390 forward 7 unknown #
coedge $-1 $226 $391 $319 $392 reversed $314 $-1 #
loop $-1 $-1 $226 $393 #
vertex $-1 $392 $394 #
straight-curve $-1 -48.247890265803719 32.203995608587014 18.88125855963057 0.68199835119979291 0 0.73135370988377701 I I #
point $-1 -55.731463359041086 32.203995608587014 10.856108740284167 #
point $-1 -61.271401104770042 23.890932573602008 4.9152527019429524 #
coedge $-1 $395 $232 $313 $392 forward $138 $-1 #
coedge $-1 $233 $395 $396 $397 reversed $138 $-1 #
coedge $-1 $398 $235 $380 $399 forward $79 $-1 #
coedge $-1 $396 $400 $235 $323 reversed $401 $-1 #
edge $-1 $324 -61.271401104770042 $402 -52.165961554254054 $322 $403 forward 7 unknown #
vertex $-1 $236 $404 #
straight-curve $-1 -61.271401104770042 0 10.856108740284167 0 -1 0 I I #
face $-1 $405 $406 $18 $-1 $407 forward single #
loop $-1 $-1 $333 $239 #
plane-surface $-1 -61.271401104770042 0 0 1 0 0 0 0 -1 forward_v I I I I #
coedge $-1 $245 $408 $330 $409 forward $240 $-1 #
coedge $-1 $410 $331 $329 $409 reversed $242 $-1 #
coedge $-1 $330 $411 $243 $332 reversed $242 $-1 #
edge $-1 $336 -8.1230955118628998 $412 3.1426556366807674e-014 $243 $413 forward 7 unknown #
coedge $-1 $414 $415 $244 $334 forward $327 $-1 #
edge $-1 $337 33.388512139841666 $412 39.329368178182875 $333 $416 forward 7 unknown #
coedge $-1 $417 $245 $415 $418 forward $240 $-1 #
vertex $-1 $409 $419 #
vertex $-1 $418 $420 #
straight-curve $-1 -75.446767060135542 23.890932573602008 10.856108740284171 -1 0 0 I I #
vertex $-1 $247 $421 #
point $-1 -57.599578934221853 26.266093440740583 7.3865207973847244 #
face $-1 $422 $423 $19 $-1 $424 forward single #
plane-surface $-1 -61.271401104770021 28.047464091094511 4.9152527019429755 -0.73135370988377701 0 0.68199835119979291 0.68199835119979291 0 0.73135370988377701 forward_v I I I I #
coedge $-1 $425 $426 $427 $428 reversed $252 $-1 #
coedge $-1 $344 $344 $-1 $429 forward $254 $-1 #
edge $-1 $430 0 $430 6.2831853071796004 $255 $431 forward 7 unknown #
vertex $-1 $258 $432 #
ellipse-curve $-1 -58.501432231905561 26.266093440740583 7.8856807211135607 0.73135370988377701 0 -0.68199835119979291 0.17049958779994823 0 0.18283842747094425 1 I I #
vertex $-1 $259 $433 #
point $-1 -57.599578934221853 29.828834741448439 7.3865207973847244 #
loop $-1 $-1 $434 $251 #
straight-curve $-1 -61.271401104770042 32.203995608587014 0 0 0 -1 I I #
point $-1 -61.271401104770042 -32.203995608587014 -10.856108740284167 #
straight-curve $-1 -61.271401104770042 0 -10.856108740284167 0 1 0 I I #
point $-1 -61.271401104770042 32.203995608587014 -10.856108740284167 #
face $-1 $435 $436 $16 $-1 $437 reversed single #
coedge $-1 $438 $282 $287 $362 forward $122 $-1 #
straight-curve $-1 -48.577783543480237 -13.867066365687862 10.856108740284167 0 -1 0 I I #
coedge $-1 $284 $439 $286 $361 forward $216 $-1 #
straight-curve $-1 -48.577783543480237 -13.867066365687862 -10.856108740284167 0 1 0 I I #
coedge $-1 $287 $286 $440 $441 reversed $197 $-1 #
edge $-1 $442 -61.271401104770042 $289 48.577783543480237 $286 $375 forward 7 unknown #
edge $-1 $288 -48.577783543480237 $443 61.271401104770042 $287 $370 forward 7 unknown #
point $-1 -48.577783543480237 -32.203995608587014 10.856108740284167 #
point $-1 -48.577783543480237 -32.203995608587014 -10.856108740284167 #
coedge $-1 $296 $295 $444 $445 forward $297 $-1 #
coedge $-1 $299 $438 $446 $447 forward $122 $-1 #
coedge $-1 $448 $444 $299 $368 reversed $436 $-1 #
edge $-1 $449 -32.203995608587014 $369 32.203995608587014 $367 $450 forward 7 unknown #
vertex $-1 $368 $451 #
straight-curve $-1 0 -32.203995608587014 10.856108740284167 1 0 0 I I #
coedge $-1 $439 $302 $452 $453 forward $216 $-1 #
coedge $-1 $444 $448 $302 $373 reversed $436 $-1 #
edge $-1 $374 -32.203995608587014 $454 32.203995608587014 $372 $455 forward 7 unknown #
vertex $-1 $373 $456 #
straight-curve $-1 0 -32.203995608587014 -10.856108740284167 -1 0 0 I I #
face $-1 $457 $458 $17 $-1 $459 reversed single #
loop $-1 $-1 $460 $305 #
plane-surface $-1 -48.577783543480237 -27.734132731375723 0 -1 0 0 0 0 1 forward_v I I I I #
coedge $-1 $461 $462 $463 $464 reversed $306 $-1 #
coedge $-1 $465 $308 $321 $399 reversed $222 $-1 #
coedge $-1 $308 $465 $466 $467 reversed $222 $-1 #
coedge $-1 $462 $461 $308 $383 forward $306 $-1 #
edge $-1 $468 -10.856108740284167 $469 10.856108740284167 $382 $470 forward 7 unknown #
coedge $-1 $309 $471 $472 $473 forward $79 $-1 #
coedge $-1 $474 $475 $309 $386 reversed $476 $-1 #
edge $-1 $477 -32.203995608587014 $388 32.203995608587014 $385 $478 forward 7 unknown #
coedge $-1 $391 $310 $475 $479 forward $314 $-1 #
vertex $-1 $386 $480 #
straight-curve $-1 0 32.203995608587014 10.856108740284167 -1 0 0 I I #
straight-curve $-1 -61.271401104770042 14.023732045547256 4.9152527019429586 0 1 0 I I #
coedge $-1 $313 $387 $481 $482 reversed $314 $-1 #
edge $-1 $315 -4.9152527019429524 $483 10.856108740284167 $313 $484 forward 7 unknown #
face $-1 $485 $314 $17 $-1 $486 reversed single #
point $-1 -61.271401104770042 32.203995608587014 4.9152527019429524 #
coedge $-1 $320 $319 $487 $488 reversed $138 $-1 #
coedge $-1 $489 $322 $320 $397 forward $401 $-1 #
edge $-1 $324 -10.856108740284167 $490 10.856108740284167 $320 $491 forward 7 unknown #
coedge $-1 $471 $321 $461 $492 forward $79 $-1 #
edge $-1 $402 -18.336929242899153 $468 -9.3972034884765705 $321 $493 forward 7 unknown #
coedge $-1 $322 $489 $465 $494 forward $401 $-1 #
loop $-1 $-1 $400 $495 #
vertex $-1 $494 $496 #
straight-curve $-1 0 -32.203995608587014 10.856108740284167 1 0 0 I I #
point $-1 -61.271401104770042 -32.203995608587014 10.856108740284167 #
face $-1 $497 $498 $18 $-1 $499 forward single #
loop $-1 $-1 $500 $326 #
plane-surface $-1 -52.165961554254054 -27.734132731375723 0 1 0 0 0 0 -1 forward_v I I I I #
coedge $-1 $329 $501 $502 $503 forward $240 $-1 #
edge $-1 $504 -18.180263563039759 $336 -9.8672005280547523 $329 $505 forward 7 unknown #
coedge $-1 $411 $330 $506 $507 reversed $242 $-1 #
coedge $-1 $331 $410 $414 $508 reversed $242 $-1 #
vertex $-1 $508 $509 #
straight-curve $-1 -61.271401104770021 23.890932573602008 4.9152527019429755 -0.68199835119979291 0 -0.73135370988377701 I I #
coedge $-1 $510 $333 $411 $508 forward $327 $-1 #
coedge $-1 $333 $511 $335 $418 reversed $327 $-1 #
straight-curve $-1 -61.271401104770042 23.890932573602008 44.244620880125829 0 0 -1 I I #
coedge $-1 $512 $335 $513 $514 forward $240 $-1 #
edge $-1 $337 -23.890932573602008 $515 32.203995608587014 $415 $516 forward 7 unknown #
point $-1 -55.731463359041086 23.890932573602008 10.856108740284167 #
point $-1 -61.271401104770042 23.890932573602008 10.856108740284167 #
point $-1 -57.587240094550857 26.266093440740583 7.0331827821138315 #
face $-1 $517 $518 $19 $-1 $519 reversed single #
loop $-1 $-1 $520 $341 #
plane-surface $-1 0 0 10.856108740284167 0 0 1 1 0 0 forward_v I I I I #
coedge $-1 $426 $343 $521 $522 forward $252 $-1 #
coedge $-1 $343 $425 $523 $524 reversed $252 $-1 #
coedge $-1 $525 $520 $343 $428 forward $423 $-1 #
edge $-1 $526 -19.715303701094456 $527 -14.1753659553655 $427 $528 forward 7 unknown #
edge $-1 $529 1 $529 0 $344 $-1 forward 7 unknown #
vertex $-1 $345 $530 #
ellipse-curve $-1 -57.770078522021798 26.266093440740583 7.2036823699137802 -0.73135370988377701 0 0.68199835119979291 0.17049958779994823 0 0.18283842747094425 1 I I #
point $-1 -58.33093264410563 26.266093440740583 8.0685191485845174 #
point $-1 -57.587240094550857 29.828834741448439 7.0331827821138315 #
coedge $-1 $531 $521 $520 $532 reversed $350 $-1 #
face $-1 $533 $534 $16 $-1 $535 reversed single #
loop $-1 $-1 $448 $355 #
plane-surface $-1 -61.271401104770042 0 0 1 0 0 0 0 -1 forward_v I I I I #
coedge $-1 $366 $356 $536 $537 forward $122 $-1 #
coedge $-1 $358 $371 $538 $539 forward $216 $-1 #
coedge $-1 $538 $536 $360 $441 forward $540 $-1 #
edge $-1 $443 -10.856108740284167 $442 10.856108740284167 $440 $541 forward 7 unknown #
vertex $-1 $441 $542 #
vertex $-1 $537 $543 #
coedge $-1 $367 $372 $365 $445 reversed $436 $-1 #
edge $-1 $369 -10.856108740284167 $374 10.856108740284167 $444 $544 forward 7 unknown #
coedge $-1 $545 $546 $366 $447 reversed $534 $-1 #
edge $-1 $547 -61.271401104770042 $449 61.271401104770042 $446 $548 forward 7 unknown #
coedge $-1 $372 $367 $546 $549 forward $436 $-1 #
vertex $-1 $447 $550 #
straight-curve $-1 -61.271401104770042 0 10.856108740284167 0 -1 0 I I #
point $-1 -61.271401104770042 -32.203995608587014 10.856108740284167 #
coedge $-1 $546 $545 $371 $453 reversed $534 $-1 #
edge $-1 $454 -61.271401104770042 $551 61.271401104770042 $452 $552 forward 7 unknown #
vertex $-1 $453 $553 #
straight-curve $-1 -61.271401104770042 0 -10.856108740284167 0 1 0 I I #
point $-1 -61.271401104770042 -32.203995608587014 -10.856108740284167 #
face $-1 $495 $554 $17 $-1 $555 reversed single #
loop $-1 $-1 $556 $376 #
plane-surface $-1 0 -32.203995608587014 0 0 1 0 0 0 1 forward_v I I I I #
coedge $-1 $557 $558 $556 $559 reversed $377 $-1 #
coedge $-1 $382 $379 $398 $492 reversed $306 $-1 #
coedge $-1 $379 $382 $560 $561 reversed $306 $-1 #
coedge $-1 $558 $557 $379 $464 forward $377 $-1 #
edge $-1 $562 -10.856108740284167 $563 10.856108740284167 $463 $564 forward 7 unknown #
coedge $-1 $381 $380 $400 $494 reversed $222 $-1 #
coedge $-1 $565 $560 $381 $467 forward $554 $-1 #
edge $-1 $469 9.3972034884765705 $566 18.336929242899153 $466 $567 forward 7 unknown #
vertex $-1 $399 $568 #
vertex $-1 $467 $569 #
straight-curve $-1 -52.165961554254054 -23.264269854164432 0 0 0 -1 I I #
coedge $-1 $384 $398 $557 $570 forward $79 $-1 #
coedge $-1 $556 $571 $384 $473 reversed $458 $-1 #
edge $-1 $572 -48.577783543480237 $477 61.271401104770042 $472 $403 forward 7 unknown #
coedge $-1 $573 $385 $571 $574 forward $476 $-1 #
coedge $-1 $385 $573 $387 $479 reversed $476 $-1 #
loop $-1 $-1 $474 $485 #
vertex $-1 $386 $575 #
straight-curve $-1 61.271401104770042 0 10.856108740284167 0 1 0 I I #
edge $-1 $388 -10.856108740284167 $576 10.856108740284167 $475 $577 forward 7 unknown #
point $-1 61.271401104770042 32.203995608587014 10.856108740284167 #
coedge $-1 $578 $487 $391 $482 forward $554 $-1 #
edge $-1 $483 -61.271401104770042 $576 61.271401104770042 $391 $579 forward 7 unknown #
vertex $-1 $482 $580 #
straight-curve $-1 -61.271401104770042 32.203995608587014 0 0 0 -1 I I #
face $-1 $-1 $476 $17 $-1 $581 reversed single #
plane-surface $-1 0 32.203995608587014 0 0 -1 0 0 0 -1 forward_v I I I I #
coedge $-1 $481 $565 $395 $488 forward $554 $-1 #
edge $-1 $490 -32.203995608587014 $483 32.203995608587014 $395 $582 forward 7 unknown #
coedge $-1 $400 $396 $565 $583 reversed $401 $-1 #
vertex $-1 $488 $584 #
straight-curve $-1 -61.271401104770042 -32.203995608587014 0 0 0 -1 I I #
edge $-1 $468 -26.980025279820481 $562 -23.391847269046664 $398 $585 forward 7 unknown #
straight-curve $-1 -52.165961554254054 -13.867066365687862 10.856108740284167 0 1 0 I I #
edge $-1 $566 -10.856108740284167 $402 10.856108740284167 $400 $586 forward 7 unknown #
face $-1 $393 $401 $17 $-1 $459 reversed single #
point $-1 -52.165961554254054 -32.203995608587014 10.856108740284167 #
face $-1 $587 $588 $18 $-1 $589 forward single #
loop $-1 $-1 $590 $405 #
plane-surface $-1 -50.371872548867145 -23.264269854164432 0 0 -1 0 0 0 -1 forward_v I I I I #
coedge $-1 $591 $592 $593 $594 reversed $406 $-1 #
coedge $-1 $408 $595 $596 $597 forward $240 $-1 #
coedge $-1 $598 $506 $408 $503 reversed $599 $-1 #
edge $-1 $600 -61.271401104770042 $504 55.731463359041086 $502 $601 forward 7 unknown #
vertex $-1 $507 $602 #
straight-curve $-1 -55.731463359041086 14.023732045547256 10.856108740284167 0 -1 0 I I #
coedge $-1 $502 $603 $410 $507 forward $599 $-1 #
edge $-1 $604 -19.096103115286063 $504 -10.973007603423135 $506 $605 forward 7 unknown #
edge $-1 $412 9.8672005280547523 $604 18.180263563039759 $414 $606 forward 7 unknown #
point $-1 -61.271401104770042 23.890932573602008 4.9152527019429524 #
coedge $-1 $607 $414 $603 $608 forward $327 $-1 #
coedge $-1 $415 $607 $609 $610 reversed $327 $-1 #
coedge $-1 $611 $417 $591 $612 forward $240 $-1 #
coedge $-1 $609 $613 $417 $514 reversed $614 $-1 #
edge $-1 $515 -61.271401104770042 $615 -52.165961554254054 $513 $616 forward 7 unknown #
vertex $-1 $418 $617 #
straight-curve $-1 -61.271401104770042 0 10.856108740284167 0 -1 0 I I #
face $-1 $618 $619 $19 $-1 $620 forward single #
loop $-1 $-1 $523 $422 #
plane-surface $-1 -61.271401104770042 0 0 1 0 0 0 0 -1 forward_v I I I I #
coedge $-1 $427 $621 $434 $532 forward $423 $-1 #
coedge $-1 $434 $622 $425 $522 reversed $350 $-1 #
edge $-1 $526 -8.1230955118628998 $623 3.1426556366807674e-014 $425 $624 forward 7 unknown #
coedge $-1 $625 $626 $426 $524 forward $518 $-1 #
edge $-1 $527 33.388512139841666 $623 39.329368178182875 $523 $627 forward 7 unknown #
coedge $-1 $628 $427 $626 $629 forward $423 $-1 #
vertex $-1 $532 $630 #
vertex $-1 $629 $631 #
straight-curve $-1 -75.446767060135542 23.890932573602008 10.856108740284171 -1 0 0 I I #
vertex $-1 $429 $632 #
point $-1 -57.599578934221853 26.266093440740583 7.3865207973847244 #
coedge $-1 $622 $434 $633 $634 reversed $350 $-1 #
edge $-1 $635 -18.180263563039759 $526 -9.8672005280547523 $520 $636 forward 7 unknown #
face $-1 $-1 $540 $16 $-1 $637 reversed single #
loop $-1 $-1 $545 $435 #
plane-surface $-1 0 32.203995608587014 0 0 -1 0 0 0 -1 forward_v I I I I #
coedge $-1 $440 $638 $438 $537 reversed $540 $-1 #
edge $-1 $443 -32.203995608587014 $547 32.203995608587014 $536 $639 forward 7 unknown #
coedge $-1 $638 $440 $439 $539 reversed $540 $-1 #
edge $-1 $551 -32.203995608587014 $442 32.203995608587014 $538 $640 forward 7 unknown #
loop $-1 $-1 $440 $533 #
straight-curve $-1 61.271401104770042 -32.203995608587014 0 0 0 -1 I I #
point $-1 61.271401104770042 -32.203995608587014 -10.856108740284167 #
point $-1 61.271401104770042 -32.203995608587014 10.856108740284167 #
straight-curve $-1 -61.271401104770042 -32.203995608587014 0 0 0 -1 I I #
coedge $-1 $452 $446 $638 $641 forward $534 $-1 #
coedge $-1 $446 $452 $448 $549 reversed $534 $-1 #
vertex $-1 $537 $642 #
straight-curve $-1 0 32.203995608587014 10.856108740284167 -1 0 0 I I #
edge $-1 $449 -10.856108740284167 $454 10.856108740284167 $546 $643 forward 7 unknown #
point $-1 -61.271401104770042 32.203995608587014 10.856108740284167 #
vertex $-1 $539 $644 #
straight-curve $-1 0 32.203995608587014 -10.856108740284167 1 0 0 I I #
point $-1 -61.271401104770042 32.203995608587014 -10.856108740284167 #
loop $-1 $-1 $466 $457 #
plane-surface $-1 0 0 -10.856108740284167 0 0 1 1 0 0 forward_v I I I I #
coedge $-1 $645 $472 $460 $559 forward $458 $-1 #
coedge $-1 $463 $460 $471 $570 reversed $377 $-1 #
coedge $-1 $460 $463 $646 $647 reversed $377 $-1 #
edge $-1 $572 -10.856108740284167 $648 10.856108740284167 $556 $649 forward 7 unknown #
coedge $-1 $466 $646 $462 $561 forward $554 $-1 #
edge $-1 $563 23.391847269046664 $469 26.980025279820481 $560 $650 forward 7 unknown #
vertex $-1 $492 $651 #
vertex $-1 $561 $652 #
straight-curve $-1 -48.577783543480237 -23.264269854164432 0 0 0 -1 I I #
coedge $-1 $487 $466 $489 $583 forward $554 $-1 #
vertex $-1 $583 $653 #
straight-curve $-1 -52.165961554254054 -13.867066365687862 -10.856108740284167 0 -1 0 I I #
point $-1 -52.165961554254054 -23.264269854164432 10.856108740284167 #
point $-1 -52.165961554254054 -23.264269854164432 -10.856108740284167 #
edge $-1 $562 9.3972034884765705 $572 18.336929242899153 $471 $654 forward 7 unknown #
coedge $-1 $472 $645 $474 $574 reversed $458 $-1 #
vertex $-1 $473 $655 #
coedge $-1 $475 $474 $578 $656 reversed $476 $-1 #
edge $-1 $477 -10.856108740284167 $657 10.856108740284167 $474 $658 forward 7 unknown #
point $-1 61.271401104770042 -32.203995608587014 10.856108740284167 #
vertex $-1 $656 $659 #
straight-curve $-1 61.271401104770042 32.203995608587014 0 0 0 -1 I I #
coedge $-1 $660 $481 $573 $656 forward $554 $-1 #
straight-curve $-1 0 32.203995608587014 -10.856108740284167 1 0 0 I I #
point $-1 -61.271401104770042 32.203995608587014 -10.856108740284167 #
plane-surface $-1 61.271401104770042 0 0 -1 0 0 0 0 1 forward_v I I I I #
straight-curve $-1 -61.271401104770042 0 -10.856108740284167 0 1 0 I I #
edge $-1 $566 52.165961554254054 $490 61.271401104770042 $489 $661 forward 7 unknown #
point $-1 -61.271401104770042 -32.203995608587014 -10.856108740284167 #
straight-curve $-1 -25.185936274433573 -23.264269854164432 10.856108740284167 1 0 0 I I #
straight-curve $-1 -52.165961554254054 -32.203995608587014 0 0 0 1 I I #
face $-1 $662 $663 $18 $-1 $664 reversed single #
loop $-1 $-1 $665 $497 #
plane-surface $-1 -48.577783543480237 -27.734132731375723 0 -1 0 0 0 0 1 forward_v I I I I #
coedge $-1 $666 $667 $668 $669 reversed $498 $-1 #
coedge $-1 $670 $500 $512 $612 reversed $406 $-1 #
coedge $-1 $500 $670 $671 $672 reversed $406 $-1 #
coedge $-1 $667 $666 $500 $594 forward $498 $-1 #
edge $-1 $673 -10.856108740284167 $674 10.856108740284167 $593 $675 forward 7 unknown #
coedge $-1 $501 $676 $677 $678 forward $240 $-1 #
coedge $-1 $679 $680 $501 $597 reversed $681 $-1 #
edge $-1 $682 -32.203995608587014 $600 32.203995608587014 $596 $683 forward 7 unknown #
coedge $-1 $684 $502 $680 $685 forward $599 $-1 #
loop $-1 $-1 $506 $686 #
vertex $-1 $597 $687 #
straight-curve $-1 0 32.203995608587014 10.856108740284167 -1 0 0 I I #
point $-1 -55.731463359041086 32.203995608587014 10.856108740284167 #
coedge $-1 $506 $684 $510 $608 reversed $599 $-1 #
vertex $-1 $608 $688 #
straight-curve $-1 -48.247890265803719 32.203995608587014 18.88125855963057 0.68199835119979291 0 0.73135370988377701 I I #
straight-curve $-1 -61.271401104770042 14.023732045547256 4.9152527019429586 0 1 0 I I #
coedge $-1 $511 $510 $689 $690 reversed $327 $-1 #
edge $-1 $604 -4.9152527019429524 $691 10.856108740284167 $603 $692 forward 7 unknown #
coedge $-1 $693 $513 $511 $610 forward $614 $-1 #
edge $-1 $515 -10.856108740284167 $694 10.856108740284167 $511 $695 forward 7 unknown #
coedge $-1 $676 $512 $666 $696 forward $240 $-1 #
edge $-1 $615 -18.336929242899153 $673 -9.3972034884765705 $512 $697 forward 7 unknown #
coedge $-1 $513 $693 $670 $698 forward $614 $-1 #
loop $-1 $-1 $613 $699 #
vertex $-1 $698 $700 #
straight-curve $-1 0 -32.203995608587014 10.856108740284167 1 0 0 I I #
point $-1 -61.271401104770042 -32.203995608587014 10.856108740284167 #
face $-1 $701 $702 $19 $-1 $703 forward single #
loop $-1 $-1 $704 $517 #
plane-surface $-1 -52.165961554254054 -27.734132731375723 0 1 0 0 0 0 -1 forward_v I I I I #
coedge $-1 $520 $705 $706 $707 forward $423 $-1 #
coedge $-1 $521 $531 $625 $708 reversed $350 $-1 #
vertex $-1 $708 $709 #
straight-curve $-1 -61.271401104770021 23.890932573602008 4.9152527019429755 -0.68199835119979291 0 -0.73135370988377701 I I #
coedge $-1 $710 $523 $622 $708 forward $518 $-1 #
coedge $-1 $523 $711 $525 $629 reversed $518 $-1 #
straight-curve $-1 -61.271401104770042 23.890932573602008 44.244620880125829 0 0 -1 I I #
coedge $-1 $712 $525 $713 $714 forward $423 $-1 #
edge $-1 $527 -23.890932573602008 $715 32.203995608587014 $626 $716 forward 7 unknown #
point $-1 -55.731463359041086 23.890932573602008 10.856108740284167 #
point $-1 -61.271401104770042 23.890932573602008 10.856108740284167 #
point $-1 -57.587240094550857 26.266093440740583 7.0331827821138315 #
coedge $-1 $706 $717 $531 $634 forward $718 $-1 #
edge $-1 $719 -19.096103115286063 $635 -10.973007603423135 $633 $720 forward 7 unknown #
vertex $-1 $634 $721 #
straight-curve $-1 -55.731463359041086 14.023732045547256 10.856108740284167 0 -1 0 I I #
plane-surface $-1 61.271401104770042 0 0 -1 0 0 0 0 1 forward_v I I I I #
coedge $-1 $536 $538 $545 $641 reversed $540 $-1 #
straight-curve $-1 61.271401104770042 0 10.856108740284167 0 1 0 I I #
straight-curve $-1 61.271401104770042 0 -10.856108740284167 0 -1 0 I I #
edge $-1 $547 -10.856108740284167 $551 10.856108740284167 $638 $722 forward 7 unknown #
point $-1 61.271401104770042 32.203995608587014 10.856108740284167 #
straight-curve $-1 -61.271401104770042 32.203995608587014 0 0 0 -1 I I #
point $-1 61.271401104770042 32.203995608587014 -10.856108740284167 #
coedge $-1 $571 $556 $660 $723 reversed $458 $-1 #
coedge $-1 $560 $660 $558 $647 forward $554 $-1 #
edge $-1 $648 -18.336929242899153 $563 -9.3972034884765705 $646 $724 forward 7 unknown #
vertex $-1 $559 $725 #
straight-curve $-1 -48.577783543480237 -32.203995608587014 0 0 0 -1 I I #
straight-curve $-1 -25.185936274433573 -23.264269854164432 -10.856108740284167 -1 0 0 I I #
point $-1 -48.577783543480237 -23.264269854164432 10.856108740284167 #
point $-1 -48.577783543480237 -23.264269854164432 -10.856108740284167 #
point $-1 -52.165961554254054 -32.203995608587014 -10.856108740284167 #
straight-curve $-1 -48.577783543480237 -13.867066365687862 10.856108740284167 0 -1 0 I I #
point $-1 -48.577783543480237 -32.203995608587014 10.856108740284167 #
edge $-1 $576 -32.203995608587014 $657 32.203995608587014 $573 $726 forward 7 unknown #
vertex $-1 $574 $727 #
straight-curve $-1 61.271401104770042 -32.203995608587014 0 0 0 -1 I I #
point $-1 61.271401104770042 32.203995608587014 -10.856108740284167 #
coedge $-1 $646 $578 $645 $723 forward $554 $-1 #
straight-curve $-1 0 -32.203995608587014 -10.856108740284167 -1 0 0 I I #
face $-1 $699 $728 $18 $-1 $729 reversed single #
loop $-1 $-1 $730 $587 #
plane-surface $-1 0 -32.203995608587014 0 0 1 0 0 0 1 forward_v I I I I #
coedge $-1 $731 $732 $730 $733 reversed $588 $-1 #
coedge $-1 $593 $590 $611 $696 reversed $498 $-1 #
coedge $-1 $590 $593 $734 $735 reversed $498 $-1 #
coedge $-1 $732 $731 $590 $669 forward $588 $-1 #
edge $-1 $736 -10.856108740284167 $737 10.856108740284167 $668 $738 forward 7 unknown #
coedge $-1 $592 $591 $613 $698 reversed $406 $-1 #
coedge $-1 $739 $734 $592 $672 forward $728 $-1 #
edge $-1 $674 9.3972034884765705 $740 18.336929242899153 $671 $741 forward 7 unknown #
vertex $-1 $612 $742 #
vertex $-1 $672 $743 #
straight-curve $-1 -52.165961554254054 -23.264269854164432 0 0 0 -1 I I #
coedge $-1 $595 $611 $731 $744 forward $240 $-1 #
coedge $-1 $730 $745 $595 $678 reversed $663 $-1 #
edge $-1 $746 -48.577783543480237 $682 61.271401104770042 $677 $616 forward 7 unknown #
coedge $-1 $747 $596 $745 $748 forward $681 $-1 #
coedge $-1 $596 $747 $598 $685 reversed $681 $-1 #
loop $-1 $-1 $679 $749 #
vertex $-1 $597 $750 #
straight-curve $-1 61.271401104770042 0 10.856108740284167 0 1 0 I I #
coedge $-1 $603 $598 $751 $752 reversed $599 $-1 #
edge $-1 $600 -10.856108740284167 $753 10.856108740284167 $680 $754 forward 7 unknown #
face $-1 $749 $599 $18 $-1 $755 reversed single #
point $-1 61.271401104770042 32.203995608587014 10.856108740284167 #
point $-1 -61.271401104770042 32.203995608587014 4.9152527019429524 #
coedge $-1 $751 $739 $607 $690 forward $728 $-1 #
edge $-1 $694 -32.203995608587014 $691 32.203995608587014 $607 $756 forward 7 unknown #
vertex $-1 $752 $757 #
straight-curve $-1 -61.271401104770042 32.203995608587014 0 0 0 -1 I I #
coedge $-1 $613 $609 $739 $758 reversed $614 $-1 #
vertex $-1 $690 $759 #
straight-curve $-1 -61.271401104770042 -32.203995608587014 0 0 0 -1 I I #
edge $-1 $673 -26.980025279820481 $736 -23.391847269046664 $611 $760 forward 7 unknown #
straight-curve $-1 -52.165961554254054 -13.867066365687862 10.856108740284167 0 1 0 I I #
edge $-1 $740 -10.856108740284167 $615 10.856108740284167 $613 $761 forward 7 unknown #
face $-1 $686 $614 $18 $-1 $664 reversed single #
point $-1 -52.165961554254054 -32.203995608587014 10.856108740284167 #
face $-1 $762 $763 $19 $-1 $764 forward single #
loop $-1 $-1 $765 $618 #
plane-surface $-1 -50.371872548867145 -23.264269854164432 0 0 -1 0 0 0 -1 forward_v I I I I #
coedge $-1 $766 $767 $768 $769 reversed $619 $-1 #
coedge $-1 $621 $770 $771 $772 forward $423 $-1 #
coedge $-1 $773 $633 $621 $707 reversed $718 $-1 #
edge $-1 $774 -61.271401104770042 $635 55.731463359041086 $706 $775 forward 7 unknown #
edge $-1 $623 9.8672005280547523 $719 18.180263563039759 $625 $776 forward 7 unknown #
point $-1 -61.271401104770042 23.890932573602008 4.9152527019429524 #
coedge $-1 $777 $625 $717 $778 forward $518 $-1 #
coedge $-1 $626 $777 $779 $780 reversed $518 $-1 #
coedge $-1 $781 $628 $766 $782 forward $423 $-1 #
coedge $-1 $779 $783 $628 $714 reversed $784 $-1 #
edge $-1 $715 -61.271401104770042 $785 -52.165961554254054 $713 $786 forward 7 unknown #
vertex $-1 $629 $787 #
straight-curve $-1 -61.271401104770042 0 10.856108740284167 0 -1 0 I I #
coedge $-1 $633 $788 $710 $778 reversed $718 $-1 #
loop $-1 $-1 $633 $789 #
vertex $-1 $778 $790 #
straight-curve $-1 -48.247890265803719 32.203995608587014 18.88125855963057 0.68199835119979291 0 0.73135370988377701 I I #
point $-1 -55.731463359041086 32.203995608587014 10.856108740284167 #
straight-curve $-1 61.271401104770042 32.203995608587014 0 0 0 -1 I I #
edge $-1 $657 -61.271401104770042 $648 48.577783543480237 $645 $661 forward 7 unknown #
straight-curve $-1 -48.577783543480237 -13.867066365687862 -10.856108740284167 0 1 0 I I #
point $-1 -48.577783543480237 -32.203995608587014 -10.856108740284167 #
straight-curve $-1 61.271401104770042 0 -10.856108740284167 0 -1 0 I I #
point $-1 61.271401104770042 -32.203995608587014 -10.856108740284167 #
loop $-1 $-1 $671 $662 #
plane-surface $-1 0 0 -10.856108740284167 0 0 1 1 0 0 forward_v I I I I #
coedge $-1 $791 $677 $665 $733 forward $663 $-1 #
coedge $-1 $668 $665 $676 $744 reversed $588 $-1 #
coedge $-1 $665 $668 $792 $793 reversed $588 $-1 #
edge $-1 $746 -10.856108740284167 $794 10.856108740284167 $730 $795 forward 7 unknown #
coedge $-1 $671 $792 $667 $735 forward $728 $-1 #
edge $-1 $737 23.391847269046664 $674 26.980025279820481 $734 $796 forward 7 unknown #
vertex $-1 $696 $797 #
vertex $-1 $735 $798 #
straight-curve $-1 -48.577783543480237 -23.264269854164432 0 0 0 -1 I I #
coedge $-1 $689 $671 $693 $758 forward $728 $-1 #
vertex $-1 $758 $799 #
straight-curve $-1 -52.165961554254054 -13.867066365687862 -10.856108740284167 0 -1 0 I I #
point $-1 -52.165961554254054 -23.264269854164432 10.856108740284167 #
point $-1 -52.165961554254054 -23.264269854164432 -10.856108740284167 #
edge $-1 $736 9.3972034884765705 $746 18.336929242899153 $676 $800 forward 7 unknown #
coedge $-1 $677 $791 $679 $748 reversed $663 $-1 #
vertex $-1 $678 $801 #
coedge $-1 $680 $679 $802 $803 reversed $681 $-1 #
edge $-1 $682 -10.856108740284167 $804 10.856108740284167 $679 $805 forward 7 unknown #
face $-1 $-1 $681 $18 $-1 $806 reversed single #
point $-1 61.271401104770042 -32.203995608587014 10.856108740284167 #
coedge $-1 $802 $689 $684 $752 forward $728 $-1 #
edge $-1 $691 -61.271401104770042 $753 61.271401104770042 $684 $807 forward 7 unknown #
vertex $-1 $803 $808 #
straight-curve $-1 61.271401104770042 32.203995608587014 0 0 0 -1 I I #
plane-surface $-1 0 32.203995608587014 0 0 -1 0 0 0 -1 forward_v I I I I #
straight-curve $-1 -61.271401104770042 0 -10.856108740284167 0 1 0 I I #
point $-1 -61.271401104770042 32.203995608587014 -10.856108740284167 #
edge $-1 $740 52.165961554254054 $694 61.271401104770042 $693 $809 forward 7 unknown #
point $-1 -61.271401104770042 -32.203995608587014 -10.856108740284167 #
straight-curve $-1 -25.185936274433573 -23.264269854164432 10.856108740284167 1 0 0 I I #
straight-curve $-1 -52.165961554254054 -32.203995608587014 0 0 0 1 I I #
face $-1 $810 $811 $19 $-1 $812 reversed single #
loop $-1 $-1 $813 $701 #
plane-surface $-1 -48.577783543480237 -27.734132731375723 0 -1 0 0 0 0 1 forward_v I I I I #
coedge $-1 $814 $815 $816 $817 reversed $702 $-1 #
coedge $-1 $818 $704 $712 $782 reversed $619 $-1 #
coedge $-1 $704 $818 $819 $820 reversed $619 $-1 #
coedge $-1 $815 $814 $704 $769 forward $702 $-1 #
edge $-1 $821 -10.856108740284167 $822 10.856108740284167 $768 $823 forward 7 unknown #
coedge $-1 $705 $824 $825 $826 forward $423 $-1 #
coedge $-1 $827 $828 $705 $772 reversed $829 $-1 #
edge $-1 $830 -32.203995608587014 $774 32.203995608587014 $771 $831 forward 7 unknown #
coedge $-1 $788 $706 $828 $832 forward $718 $-1 #
vertex $-1 $772 $833 #
straight-curve $-1 0 32.203995608587014 10.856108740284167 -1 0 0 I I #
straight-curve $-1 -61.271401104770042 14.023732045547256 4.9152527019429586 0 1 0 I I #
coedge $-1 $711 $710 $834 $835 reversed $518 $-1 #
edge $-1 $719 -4.9152527019429524 $836 10.856108740284167 $717 $837 forward 7 unknown #
coedge $-1 $838 $713 $711 $780 forward $784 $-1 #
edge $-1 $715 -10.856108740284167 $839 10.856108740284167 $711 $840 forward 7 unknown #
coedge $-1 $824 $712 $814 $841 forward $423 $-1 #
edge $-1 $785 -18.336929242899153 $821 -9.3972034884765705 $712 $842 forward 7 unknown #
coedge $-1 $713 $838 $818 $843 forward $784 $-1 #
loop $-1 $-1 $783 $844 #
vertex $-1 $843 $845 #
straight-curve $-1 0 -32.203995608587014 10.856108740284167 1 0 0 I I #
point $-1 -61.271401104770042 -32.203995608587014 10.856108740284167 #
coedge $-1 $717 $773 $846 $847 reversed $718 $-1 #
face $-1 $848 $718 $19 $-1 $849 reversed single #
point $-1 -61.271401104770042 32.203995608587014 4.9152527019429524 #
coedge $-1 $745 $730 $850 $851 reversed $663 $-1 #
coedge $-1 $734 $850 $732 $793 forward $728 $-1 #
edge $-1 $794 -18.336929242899153 $737 -9.3972034884765705 $792 $852 forward 7 unknown #
vertex $-1 $733 $853 #
straight-curve $-1 -48.577783543480237 -32.203995608587014 0 0 0 -1 I I #
straight-curve $-1 -25.185936274433573 -23.264269854164432 -10.856108740284167 -1 0 0 I I #
point $-1 -48.577783543480237 -23.264269854164432 10.856108740284167 #
point $-1 -48.577783543480237 -23.264269854164432 -10.856108740284167 #
point $-1 -52.165961554254054 -32.203995608587014 -10.856108740284167 #
straight-curve $-1 -48.577783543480237 -13.867066365687862 10.856108740284167 0 -1 0 I I #
point $-1 -48.577783543480237 -32.203995608587014 10.856108740284167 #
coedge $-1 $850 $751 $747 $803 forward $728 $-1 #
edge $-1 $753 -32.203995608587014 $804 32.203995608587014 $747 $854 forward 7 unknown #
vertex $-1 $748 $855 #
straight-curve $-1 61.271401104770042 -32.203995608587014 0 0 0 -1 I I #
plane-surface $-1 61.271401104770042 0 0 -1 0 0 0 0 1 forward_v I I I I #
straight-curve $-1 0 32.203995608587014 -10.856108740284167 1 0 0 I I #
point $-1 61.271401104770042 32.203995608587014 -10.856108740284167 #
straight-curve $-1 0 -32.203995608587014 -10.856108740284167 -1 0 0 I I #
face $-1 $844 $856 $19 $-1 $857 reversed single #
loop $-1 $-1 $858 $762 #
plane-surface $-1 0 -32.203995608587014 0 0 1 0 0 0 1 forward_v I I I I #
coedge $-1 $859 $860 $858 $861 reversed $763 $-1 #
coedge $-1 $768 $765 $781 $841 reversed $702 $-1 #
coedge $-1 $765 $768 $862 $863 reversed $702 $-1 #
coedge $-1 $860 $859 $765 $817 forward $763 $-1 #
edge $-1 $864 -10.856108740284167 $865 10.856108740284167 $816 $866 forward 7 unknown #
coedge $-1 $767 $766 $783 $843 reversed $619 $-1 #
coedge $-1 $867 $862 $767 $820 forward $856 $-1 #
edge $-1 $822 9.3972034884765705 $868 18.336929242899153 $819 $869 forward 7 unknown #
vertex $-1 $782 $870 #
vertex $-1 $820 $871 #
straight-curve $-1 -52.165961554254054 -23.264269854164432 0 0 0 -1 I I #
coedge $-1 $770 $781 $859 $872 forward $423 $-1 #
coedge $-1 $858 $873 $770 $826 reversed $811 $-1 #
edge $-1 $874 -48.577783543480237 $830 61.271401104770042 $825 $786 forward 7 unknown #
coedge $-1 $875 $771 $873 $876 forward $829 $-1 #
coedge $-1 $771 $875 $773 $832 reversed $829 $-1 #
loop $-1 $-1 $827 $848 #
vertex $-1 $772 $877 #
straight-curve $-1 61.271401104770042 0 10.856108740284167 0 1 0 I I #
edge $-1 $774 -10.856108740284167 $878 10.856108740284167 $828 $879 forward 7 unknown #
point $-1 61.271401104770042 32.203995608587014 10.856108740284167 #
coedge $-1 $846 $867 $777 $835 forward $856 $-1 #
edge $-1 $839 -32.203995608587014 $836 32.203995608587014 $777 $880 forward 7 unknown #
vertex $-1 $847 $881 #
straight-curve $-1 -61.271401104770042 32.203995608587014 0 0 0 -1 I I #
coedge $-1 $783 $779 $867 $882 reversed $784 $-1 #
vertex $-1 $835 $883 #
straight-curve $-1 -61.271401104770042 -32.203995608587014 0 0 0 -1 I I #
edge $-1 $821 -26.980025279820481 $864 -23.391847269046664 $781 $884 forward 7 unknown #
straight-curve $-1 -52.165961554254054 -13.867066365687862 10.856108740284167 0 1 0 I I #
edge $-1 $868 -10.856108740284167 $785 10.856108740284167 $783 $885 forward 7 unknown #
face $-1 $789 $784 $19 $-1 $812 reversed single #
point $-1 -52.165961554254054 -32.203995608587014 10.856108740284167 #
coedge $-1 $886 $834 $788 $847 forward $856 $-1 #
edge $-1 $836 -61.271401104770042 $878 61.271401104770042 $788 $887 forward 7 unknown #
face $-1 $-1 $829 $19 $-1 $888 reversed single #
plane-surface $-1 0 32.203995608587014 0 0 -1 0 0 0 -1 forward_v I I I I #
coedge $-1 $792 $802 $791 $851 forward $728 $-1 #
edge $-1 $804 -61.271401104770042 $794 48.577783543480237 $791 $809 forward 7 unknown #
straight-curve $-1 -48.577783543480237 -13.867066365687862 -10.856108740284167 0 1 0 I I #
point $-1 -48.577783543480237 -32.203995608587014 -10.856108740284167 #
straight-curve $-1 61.271401104770042 0 -10.856108740284167 0 -1 0 I I #
point $-1 61.271401104770042 -32.203995608587014 -10.856108740284167 #
loop $-1 $-1 $819 $810 #
plane-surface $-1 0 0 -10.856108740284167 0 0 1 1 0 0 forward_v I I I I #
coedge $-1 $889 $825 $813 $861 forward $811 $-1 #
coedge $-1 $816 $813 $824 $872 reversed $763 $-1 #
coedge $-1 $813 $816 $890 $891 reversed $763 $-1 #
edge $-1 $874 -10.856108740284167 $892 10.856108740284167 $858 $893 forward 7 unknown #
coedge $-1 $819 $890 $815 $863 forward $856 $-1 #
edge $-1 $865 23.391847269046664 $822 26.980025279820481 $862 $894 forward 7 unknown #
vertex $-1 $841 $895 #
vertex $-1 $863 $896 #
straight-curve $-1 -48.577783543480237 -23.264269854164432 0 0 0 -1 I I #
coedge $-1 $834 $819 $838 $882 forward $856 $-1 #
vertex $-1 $882 $897 #
straight-curve $-1 -52.165961554254054 -13.867066365687862 -10.856108740284167 0 -1 0 I I #
point $-1 -52.165961554254054 -23.264269854164432 10.856108740284167 #
point $-1 -52.165961554254054 -23.264269854164432 -10.856108740284167 #
edge $-1 $864 9.3972034884765705 $874 18.336929242899153 $824 $898 forward 7 unknown #
coedge $-1 $825 $889 $827 $876 reversed $811 $-1 #
vertex $-1 $826 $899 #
coedge $-1 $828 $827 $886 $900 reversed $829 $-1 #
edge $-1 $830 -10.856108740284167 $901 10.856108740284167 $827 $902 forward 7 unknown #
point $-1 61.271401104770042 -32.203995608587014 10.856108740284167 #
vertex $-1 $900 $903 #
straight-curve $-1 61.271401104770042 32.203995608587014 0 0 0 -1 I I #
straight-curve $-1 -61.271401104770042 0 -10.856108740284167 0 1 0 I I #
point $-1 -61.271401104770042 32.203995608587014 -10.856108740284167 #
edge $-1 $868 52.165961554254054 $839 61.271401104770042 $838 $904 forward 7 unknown #
point $-1 -61.271401104770042 -32.203995608587014 -10.856108740284167 #
straight-curve $-1 -25.185936274433573 -23.264269854164432 10.856108740284167 1 0 0 I I #
straight-curve $-1 -52.165961554254054 -32.203995608587014 0 0 0 1 I I #
coedge $-1 $905 $846 $875 $900 forward $856 $-1 #
straight-curve $-1 0 32.203995608587014 -10.856108740284167 1 0 0 I I #
plane-surface $-1 61.271401104770042 0 0 -1 0 0 0 0 1 forward_v I I I I #
coedge $-1 $873 $858 $905 $906 reversed $811 $-1 #
coedge $-1 $862 $905 $860 $891 forward $856 $-1 #
edge $-1 $892 -18.336929242899153 $865 -9.3972034884765705 $890 $907 forward 7 unknown #
vertex $-1 $861 $908 #
straight-curve $-1 -48.577783543480237 -32.203995608587014 0 0 0 -1 I I #
straight-curve $-1 -25.185936274433573 -23.264269854164432 -10.856108740284167 -1 0 0 I I #
point $-1 -48.577783543480237 -23.264269854164432 10.856108740284167 #
point $-1 -48.577783543480237 -23.264269854164432 -10.856108740284167 #
point $-1 -52.165961554254054 -32.203995608587014 -10.856108740284167 #
straight-curve $-1 -48.577783543480237 -13.867066365687862 10.856108740284167 0 -1 0 I I #
point $-1 -48.577783543480237 -32.203995608587014 10.856108740284167 #
edge $-1 $878 -32.203995608587014 $901 32.203995608587014 $875 $909 forward 7 unknown #
vertex $-1 $876 $910 #
straight-curve $-1 61.271401104770042 -32.203995608587014 0 0 0 -1 I I #
point $-1 61.271401104770042 32.203995608587014 -10.856108740284167 #
straight-curve $-1 0 -32.203995608587014 -10.856108740284167 -1 0 0 I I #
coedge $-1 $890 $886 $889 $906 forward $856 $-1 #
edge $-1 $901 -61.271401104770042 $892 48.577783543480237 $889 $904 forward 7 unknown #
straight-curve $-1 -48.577783543480237 -13.867066365687862 -10.856108740284167 0 1 0 I I #
point $-1 -48.577783543480237 -32.203995608587014 -10.856108740284167 #
straight-curve $-1 61.271401104770042 0 -10.856108740284167 0 -1 0 I I #
point $-1 61.271401104770042 -32.203995608587014 -10.856108740284167 #
End-of-ACIS-data 