500 0 10 0           
7 Unknown 11 ACIS 5.0 NT 24 Thu Mar 25 21:42:02 1999 
-1 9.9999999999999995e-007 1e-010 
body $-1 $10 $-1 $11 #
body $-1 $12 $-1 $13 #
body $-1 $14 $-1 $15 #
body $-1 $16 $-1 $17 #
body $-1 $18 $-1 $19 #
body $-1 $20 $-1 $21 #
body $-1 $22 $-1 $23 #
body $-1 $24 $-1 $25 #
body $-1 $26 $-1 $27 #
body $-1 $28 $-1 $29 #
lump $-1 $-1 $30 $0 #
transform $-1 1 0 0 0 1 0 0 0 1 73.558153019806511 39.741427006590065 13.861288699918084 1 rotate no_reflect no_shear #
lump $-1 $-1 $31 $1 #
transform $-1 1 0 0 0 1 0 0 0 1 73.558153019806511 39.741427006590065 13.861288699918084 1 rotate no_reflect no_shear #
lump $-1 $-1 $32 $2 #
transform $-1 1 0 0 0 1 0 0 0 1 73.558153019806511 39.741427006590065 13.861288699918084 1 rotate no_reflect no_shear #
lump $-1 $-1 $33 $3 #
transform $-1 1 0 0 0 1 0 0 0 1 73.558153019806511 39.741427006590065 13.861288699918084 1 rotate no_reflect no_shear #
lump $-1 $-1 $34 $4 #
transform $-1 1 0 0 0 1 0 0 0 1 73.558153019806511 39.741427006590065 13.861288699918084 1 rotate no_reflect no_shear #
lump $-1 $-1 $35 $5 #
transform $-1 1 0 0 0 1 0 0 0 1 73.558153019806511 39.741427006590065 13.861288699918084 1 rotate no_reflect no_shear #
lump $-1 $-1 $36 $6 #
transform $-1 1 0 0 0 1 0 0 0 1 73.558153019806511 39.741427006590065 13.861288699918084 1 rotate no_reflect no_shear #
lump $-1 $-1 $37 $7 #
transform $-1 1 0 0 0 1 0 0 0 1 73.558153019806511 39.741427006590065 13.861288699918084 1 rotate no_reflect no_shear #
lump $-1 $-1 $38 $8 #
transform $-1 1 0 0 0 1 0 0 0 1 73.558153019806511 39.741427006590065 13.861288699918084 1 rotate no_reflect no_shear #
lump $-1 $-1 $39 $9 #
transform $-1 1 0 0 0 1 0 0 0 1 73.558153019806511 39.741427006590065 13.861288699918084 1 rotate no_reflect no_shear #
shell $-1 $-1 $-1 $40 $-1 $10 #
shell $-1 $-1 $-1 $41 $-1 $12 #
shell $-1 $-1 $-1 $42 $-1 $14 #
shell $-1 $-1 $-1 $43 $-1 $16 #
shell $-1 $-1 $-1 $44 $-1 $18 #
shell $-1 $-1 $-1 $45 $-1 $20 #
shell $-1 $-1 $-1 $46 $-1 $22 #
shell $-1 $-1 $-1 $47 $-1 $24 #
shell $-1 $-1 $-1 $48 $-1 $26 #
shell $-1 $-1 $-1 $49 $-1 $28 #
face $-1 $50 $51 $30 $-1 $52 forward single #
face $-1 $53 $54 $31 $-1 $55 forward single #
face $-1 $56 $57 $32 $-1 $58 reversed single #
face $-1 $59 $60 $33 $-1 $61 forward single #
face $-1 $62 $63 $34 $-1 $64 forward single #
face $-1 $65 $66 $35 $-1 $67 forward single #
face $-1 $68 $69 $36 $-1 $70 reversed single #
face $-1 $71 $72 $37 $-1 $73 forward single #
face $-1 $74 $75 $38 $-1 $76 forward single #
face $-1 $77 $78 $39 $-1 $79 forward single #
face $-1 $80 $81 $30 $-1 $82 reversed single #
loop $-1 $-1 $83 $40 #
plane-surface $-1 0 0 13.861288699918084 0 0 1 1 0 0 forward_v I I I I #
face $-1 $84 $85 $31 $-1 $86 reversed single #
loop $-1 $-1 $87 $41 #
plane-surface $-1 -73.558153019806511 0 0 1 0 0 0 0 -1 forward_v I I I I #
face $-1 $88 $89 $32 $-1 $90 reversed single #
loop $-1 $-1 $91 $42 #
plane-surface $-1 1.9709867302708517e-006 -32.942316143336086 135.18374811610732 0.86602541151947299 0 0.49999998660252726 0.49999998660252726 0 -0.86602541151947299 forward_v I I I I #
face $-1 $92 $93 $33 $-1 $94 forward single #
loop $-1 $95 $96 $43 #
cone-surface $-1 70.160708035816953 -37.021782661288469 9.8717729004823678 -0.86602541151947299 0 -0.49999998660252726 0.49999998660252726 0 -0.86602541151947299 1 I I 0 1 1 forward I I I I #
face $-1 $97 $98 $34 $-1 $99 forward single #
loop $-1 $100 $101 $44 #
cone-surface $-1 70.160708035816953 -32.942316143336079 9.8717729004823678 -0.86602541151947299 0 -0.49999998660252726 0.49999998660252726 0 -0.86602541151947299 1 I I 0 1 1 forward I I I I #
face $-1 $102 $103 $35 $-1 $104 forward single #
loop $-1 $105 $106 $45 #
cone-surface $-1 70.160708035816953 -28.862849625383692 9.8717729004823678 -0.86602541151947299 0 -0.49999998660252726 0.49999998660252726 0 -0.86602541151947299 1 I I 0 1 1 forward I I I I #
face $-1 $107 $108 $36 $-1 $109 reversed single #
loop $-1 $-1 $110 $46 #
plane-surface $-1 127.40646145016733 -3.5527136788005009e-015 208.74189916492713 0 1 0 0.86602541151947299 0 0.49999998660252726 forward_v I I I I #
face $-1 $111 $112 $37 $-1 $113 forward single #
loop $-1 $114 $115 $47 #
cone-surface $-1 70.160708035816953 2.7196443453015959 9.8717729004823678 -0.86602541151947299 0 -0.49999998660252726 0.49999998660252726 0 -0.86602541151947299 1 I I 0 1 1 forward I I I I #
face $-1 $116 $117 $38 $-1 $118 forward single #
loop $-1 $119 $120 $48 #
cone-surface $-1 70.160708035816953 6.7991108632539863 9.8717729004823678 -0.86602541151947299 0 -0.49999998660252726 0.49999998660252726 0 -0.86602541151947299 1 I I 0 1 1 forward I I I I #
face $-1 $121 $122 $39 $-1 $123 forward single #
loop $-1 $124 $125 $49 #
cone-surface $-1 70.160708035816953 10.878577381206377 9.8717729004823678 -0.86602541151947299 0 -0.49999998660252726 0.49999998660252726 0 -0.86602541151947299 1 I I 0 1 1 forward I I I I #
face $-1 $126 $127 $30 $-1 $128 reversed single #
loop $-1 $-1 $129 $50 #
plane-surface $-1 0 0 -13.861288699918084 0 0 1 1 0 0 forward_v I I I I #
coedge $-1 $130 $131 $132 $133 forward $51 $-1 #
face $-1 $134 $135 $31 $-1 $136 reversed single #
loop $-1 $-1 $137 $53 #
plane-surface $-1 0 0 -13.861288699918084 0 0 1 1 0 0 forward_v I I I I #
coedge $-1 $138 $139 $140 $141 forward $54 $-1 #
face $-1 $142 $143 $32 $-1 $144 reversed single #
loop $-1 $-1 $145 $56 #
plane-surface $-1 127.40646145016733 -26.143205280082103 208.74189916492713 0 -1 0 -0.86602541151947299 0 -0.49999998660252726 forward_v I I I I #
coedge $-1 $146 $147 $148 $149 reversed $57 $-1 #
face $-1 $-1 $150 $33 $-1 $151 forward single #
loop $-1 $152 $153 $59 #
cone-surface $-1 68.086549820379915 -37.021782661288469 8.6742571392410852 -0.86602541151947299 0 -0.49999998660252726 0.24999999330126363 0 -0.43301270575973649 1 I I -0.70710678118654746 0.70710678118654746 0.5 forward I I I I #
loop $-1 $-1 $154 $43 #
coedge $-1 $96 $96 $155 $156 reversed $60 $-1 #
face $-1 $-1 $157 $34 $-1 $158 forward single #
loop $-1 $159 $160 $62 #
cone-surface $-1 68.086549820379915 -32.942316143336079 8.6742571392410852 -0.86602541151947299 0 -0.49999998660252726 0.24999999330126363 0 -0.43301270575973649 1 I I -0.70710678118654746 0.70710678118654746 0.5 forward I I I I #
loop $-1 $-1 $161 $44 #
coedge $-1 $101 $101 $162 $163 reversed $63 $-1 #
face $-1 $-1 $164 $35 $-1 $165 forward single #
loop $-1 $166 $167 $65 #
cone-surface $-1 68.086549820379915 -28.862849625383692 8.6742571392410852 -0.86602541151947299 0 -0.49999998660252726 0.24999999330126363 0 -0.43301270575973649 1 I I -0.70710678118654746 0.70710678118654746 0.5 forward I I I I #
loop $-1 $-1 $168 $45 #
coedge $-1 $106 $106 $169 $170 reversed $66 $-1 #
face $-1 $171 $172 $36 $-1 $173 reversed single #
loop $-1 $-1 $174 $68 #
plane-surface $-1 1.9709867302708517e-006 6.7991108632539792 135.18374811610732 0.86602541151947299 0 0.49999998660252726 0.49999998660252726 0 -0.86602541151947299 forward_v I I I I #
coedge $-1 $175 $176 $177 $178 reversed $69 $-1 #
face $-1 $-1 $179 $37 $-1 $180 forward single #
loop $-1 $181 $182 $71 #
cone-surface $-1 68.086549820379915 2.7196443453015959 8.6742571392410852 -0.86602541151947299 0 -0.49999998660252726 0.24999999330126363 0 -0.43301270575973649 1 I I -0.70710678118654746 0.70710678118654746 0.5 forward I I I I #
loop $-1 $-1 $183 $47 #
coedge $-1 $115 $115 $184 $185 reversed $72 $-1 #
face $-1 $-1 $186 $38 $-1 $187 forward single #
loop $-1 $188 $189 $74 #
cone-surface $-1 68.086549820379915 6.7991108632539863 8.6742571392410852 -0.86602541151947299 0 -0.49999998660252726 0.24999999330126363 0 -0.43301270575973649 1 I I -0.70710678118654746 0.70710678118654746 0.5 forward I I I I #
loop $-1 $-1 $190 $48 #
coedge $-1 $120 $120 $191 $192 reversed $75 $-1 #
face $-1 $-1 $193 $39 $-1 $194 forward single #
loop $-1 $195 $196 $77 #
cone-surface $-1 68.086549820379915 10.878577381206377 8.6742571392410852 -0.86602541151947299 0 -0.49999998660252726 0.24999999330126363 0 -0.43301270575973649 1 I I -0.70710678118654746 0.70710678118654746 0.5 forward I I I I #
loop $-1 $-1 $197 $49 #
coedge $-1 $125 $125 $198 $199 reversed $78 $-1 #
face $-1 $200 $201 $30 $-1 $202 reversed single #
loop $-1 $-1 $203 $80 #
plane-surface $-1 0 -39.741427006590065 0 0 1 0 0 0 1 forward_v I I I I #
coedge $-1 $204 $205 $206 $207 forward $81 $-1 #
coedge $-1 $208 $83 $209 $210 forward $51 $-1 #
coedge $-1 $83 $208 $211 $212 forward $51 $-1 #
coedge $-1 $213 $214 $83 $133 reversed $215 $-1 #
edge $-1 $216 -39.741427006590065 $217 39.741427006590065 $132 $218 forward 7 unknown #
face $-1 $219 $220 $31 $-1 $221 reversed single #
loop $-1 $-1 $222 $84 #
plane-surface $-1 -80.006907449342208 -19.062314956385421 0 0 1 0 0 0 1 forward_v I I I I #
coedge $-1 $223 $224 $139 $225 forward $85 $-1 #
coedge $-1 $226 $87 $227 $228 reversed $54 $-1 #
coedge $-1 $87 $226 $137 $225 reversed $54 $-1 #
coedge $-1 $229 $230 $87 $141 reversed $231 $-1 #
edge $-1 $232 -13.861288699918084 $233 13.861288699918084 $140 $234 forward 7 unknown #
face $-1 $235 $236 $32 $-1 $237 reversed single #
loop $-1 $-1 $238 $88 #
plane-surface $-1 0 -39.741427006590065 0 0 1 0 0 0 1 forward_v I I I I #
coedge $-1 $239 $240 $241 $242 reversed $89 $-1 #
coedge $-1 $243 $91 $238 $244 reversed $57 $-1 #
coedge $-1 $91 $243 $239 $245 forward $57 $-1 #
coedge $-1 $241 $246 $91 $149 forward $236 $-1 #
edge $-1 $247 -23.270268934922022 $248 -9.6720472084140603 $148 $249 forward 7 unknown #
loop $-1 $-1 $155 $92 #
plane-surface $-1 1.9709867302708517e-006 -32.942316143336086 135.18374811610732 0.86602541151947299 0 0.49999998660252726 0.49999998660252726 0 -0.86602541151947299 forward_v I I I I #
loop $-1 $-1 $250 $59 #
coedge $-1 $153 $153 $154 $251 reversed $93 $-1 #
coedge $-1 $154 $154 $153 $251 forward $95 $-1 #
coedge $-1 $155 $155 $96 $156 forward $150 $-1 #
edge $-1 $252 0 $252 6.2831853071796004 $155 $253 forward 7 unknown #
loop $-1 $-1 $162 $97 #
plane-surface $-1 1.9709867302708517e-006 -32.942316143336086 135.18374811610732 0.86602541151947299 0 0.49999998660252726 0.49999998660252726 0 -0.86602541151947299 forward_v I I I I #
loop $-1 $-1 $254 $62 #
coedge $-1 $160 $160 $161 $255 reversed $98 $-1 #
coedge $-1 $161 $161 $160 $255 forward $100 $-1 #
coedge $-1 $162 $162 $101 $163 forward $157 $-1 #
edge $-1 $256 0 $256 6.2831853071796004 $162 $257 forward 7 unknown #
loop $-1 $-1 $169 $102 #
plane-surface $-1 1.9709867302708517e-006 -32.942316143336086 135.18374811610732 0.86602541151947299 0 0.49999998660252726 0.49999998660252726 0 -0.86602541151947299 forward_v I I I I #
loop $-1 $-1 $258 $65 #
coedge $-1 $167 $167 $168 $259 reversed $103 $-1 #
coedge $-1 $168 $168 $167 $259 forward $105 $-1 #
coedge $-1 $169 $169 $106 $170 forward $164 $-1 #
edge $-1 $260 0 $260 6.2831853071796004 $169 $261 forward 7 unknown #
face $-1 $262 $263 $36 $-1 $264 reversed single #
loop $-1 $-1 $265 $107 #
plane-surface $-1 127.40646145016733 13.598221726507962 208.74189916492713 0 -1 0 -0.86602541151947299 0 -0.49999998660252726 forward_v I I I I #
coedge $-1 $266 $267 $268 $269 reversed $108 $-1 #
coedge $-1 $176 $110 $270 $271 reversed $69 $-1 #
coedge $-1 $110 $175 $266 $272 reversed $69 $-1 #
coedge $-1 $268 $273 $110 $178 forward $263 $-1 #
edge $-1 $274 90.509660882545489 $275 96.593660945536783 $177 $276 forward 7 unknown #
loop $-1 $-1 $184 $111 #
plane-surface $-1 1.9709867302708517e-006 6.7991108632539792 135.18374811610732 0.86602541151947299 0 0.49999998660252726 0.49999998660252726 0 -0.86602541151947299 forward_v I I I I #
loop $-1 $-1 $277 $71 #
coedge $-1 $182 $182 $183 $278 reversed $112 $-1 #
coedge $-1 $183 $183 $182 $278 forward $114 $-1 #
coedge $-1 $184 $184 $115 $185 forward $179 $-1 #
edge $-1 $279 0 $279 6.2831853071796004 $184 $280 forward 7 unknown #
loop $-1 $-1 $191 $116 #
plane-surface $-1 1.9709867302708517e-006 6.7991108632539792 135.18374811610732 0.86602541151947299 0 0.49999998660252726 0.49999998660252726 0 -0.86602541151947299 forward_v I I I I #
loop $-1 $-1 $281 $74 #
coedge $-1 $189 $189 $190 $282 reversed $117 $-1 #
coedge $-1 $190 $190 $189 $282 forward $119 $-1 #
coedge $-1 $191 $191 $120 $192 forward $186 $-1 #
edge $-1 $283 0 $283 6.2831853071796004 $191 $284 forward 7 unknown #
loop $-1 $-1 $198 $121 #
plane-surface $-1 1.9709867302708517e-006 6.7991108632539792 135.18374811610732 0.86602541151947299 0 0.49999998660252726 0.49999998660252726 0 -0.86602541151947299 forward_v I I I I #
loop $-1 $-1 $285 $77 #
coedge $-1 $196 $196 $197 $286 reversed $122 $-1 #
coedge $-1 $197 $197 $196 $286 forward $124 $-1 #
coedge $-1 $198 $198 $125 $199 forward $193 $-1 #
edge $-1 $287 0 $287 6.2831853071796004 $198 $288 forward 7 unknown #
face $-1 $289 $290 $30 $-1 $291 reversed single #
loop $-1 $-1 $292 $126 #
plane-surface $-1 -73.558153019806511 0 0 1 0 0 0 0 -1 forward_v I I I I #
coedge $-1 $293 $211 $294 $295 forward $127 $-1 #
coedge $-1 $296 $129 $293 $297 forward $81 $-1 #
coedge $-1 $129 $296 $298 $299 forward $81 $-1 #
coedge $-1 $214 $213 $129 $207 reversed $215 $-1 #
edge $-1 $300 -39.741427006590065 $301 39.741427006590065 $206 $302 forward 7 unknown #
coedge $-1 $131 $130 $303 $304 forward $51 $-1 #
coedge $-1 $305 $306 $130 $210 reversed $290 $-1 #
edge $-1 $217 -73.558153019806511 $307 73.558153019806511 $209 $308 forward 7 unknown #
coedge $-1 $203 $309 $131 $212 reversed $127 $-1 #
edge $-1 $310 -73.558153019806511 $216 73.558153019806511 $211 $311 forward 7 unknown #
coedge $-1 $206 $132 $309 $312 forward $215 $-1 #
coedge $-1 $132 $206 $305 $313 reversed $215 $-1 #
loop $-1 $-1 $213 $289 #
vertex $-1 $133 $314 #
vertex $-1 $133 $315 #
straight-curve $-1 73.558153019806511 0 13.861288699918084 0 1 0 I I #
face $-1 $316 $231 $31 $-1 $317 reversed single #
loop $-1 $-1 $318 $134 #
plane-surface $-1 -86.455661878877905 -15.540582281569659 0 1 0 0 0 0 -1 forward_v I I I I #
coedge $-1 $319 $320 $321 $322 forward $135 $-1 #
coedge $-1 $323 $137 $319 $324 forward $85 $-1 #
coedge $-1 $137 $323 $229 $325 forward $85 $-1 #
edge $-1 $232 12.018849606753896 $326 19.062314956385421 $137 $327 forward 7 unknown #
coedge $-1 $139 $138 $328 $329 forward $54 $-1 #
coedge $-1 $330 $331 $138 $228 forward $332 $-1 #
edge $-1 $333 -19.062314956385421 $233 -12.018849606753896 $227 $334 forward 7 unknown #
coedge $-1 $335 $140 $224 $325 reversed $231 $-1 #
coedge $-1 $140 $335 $330 $336 reversed $231 $-1 #
loop $-1 $-1 $140 $219 #
vertex $-1 $225 $337 #
vertex $-1 $336 $338 #
straight-curve $-1 -73.558153019806511 -12.018849606753896 0 0 0 1 I I #
face $-1 $-1 $339 $32 $-1 $340 forward single #
loop $-1 $-1 $148 $142 #
plane-surface $-1 73.558153019806511 0 0 -1 0 0 0 0 1 forward_v I I I I #
coedge $-1 $341 $342 $146 $244 forward $143 $-1 #
coedge $-1 $240 $145 $147 $245 reversed $89 $-1 #
coedge $-1 $145 $239 $343 $344 reversed $89 $-1 #
coedge $-1 $345 $148 $145 $242 forward $236 $-1 #
edge $-1 $248 -96.593660945536783 $346 -90.509660882545489 $241 $347 forward 7 unknown #
coedge $-1 $147 $146 $348 $349 reversed $57 $-1 #
edge $-1 $350 81.554827900372459 $247 88.580025985861326 $238 $351 forward 7 unknown #
edge $-1 $352 140.09110795412411 $248 147.11630603961297 $239 $353 forward 7 unknown #
coedge $-1 $148 $345 $341 $354 forward $236 $-1 #
vertex $-1 $149 $355 #
vertex $-1 $149 $356 #
straight-curve $-1 73.558153019806511 -16.471158071668043 7.7772886369267837 0 1 0 I I #
coedge $-1 $250 $250 $-1 $357 reversed $152 $-1 #
edge $-1 $358 0 $358 6.2831853071796004 $153 $359 forward 7 unknown #
vertex $-1 $156 $360 #
ellipse-curve $-1 71.801853545494268 -37.021782661288469 10.819288668422397 0.86602541151947299 0 0.49999998660252726 0.49999998660252726 0 -0.86602541151947299 1 I I #
coedge $-1 $254 $254 $-1 $361 reversed $159 $-1 #
edge $-1 $362 0 $362 6.2831853071796004 $160 $363 forward 7 unknown #
vertex $-1 $163 $364 #
ellipse-curve $-1 71.801853545494268 -32.942316143336079 10.819288668422397 0.86602541151947299 0 0.49999998660252726 0.49999998660252726 0 -0.86602541151947299 1 I I #
coedge $-1 $258 $258 $-1 $365 reversed $166 $-1 #
edge $-1 $366 0 $366 6.2831853071796004 $167 $367 forward 7 unknown #
vertex $-1 $170 $368 #
ellipse-curve $-1 71.801853545494268 -28.862849625383692 10.819288668422397 0.86602541151947299 0 0.49999998660252726 0.49999998660252726 0 -0.86602541151947299 1 I I #
face $-1 $-1 $369 $36 $-1 $370 forward single #
loop $-1 $-1 $177 $171 #
plane-surface $-1 73.558153019806511 0 0 -1 0 0 0 0 1 forward_v I I I I #
coedge $-1 $371 $372 $373 $374 reversed $172 $-1 #
coedge $-1 $375 $174 $176 $272 forward $108 $-1 #
coedge $-1 $174 $375 $371 $376 forward $108 $-1 #
coedge $-1 $373 $177 $174 $269 forward $263 $-1 #
edge $-1 $275 -3.3995554316269931 $377 10.198666294880972 $268 $378 forward 7 unknown #
coedge $-1 $379 $380 $175 $271 forward $369 $-1 #
edge $-1 $381 6.3423233460983184 $274 9.8549222947228472 $270 $382 forward 7 unknown #
edge $-1 $275 -147.11630603961297 $381 -140.09110795412411 $176 $383 forward 7 unknown #
coedge $-1 $177 $373 $379 $384 reversed $263 $-1 #
vertex $-1 $384 $385 #
vertex $-1 $178 $386 #
straight-curve $-1 73.558153019806511 -3.5527136788005009e-015 104.37094958246357 0 0 -1 I I #
coedge $-1 $277 $277 $-1 $387 reversed $181 $-1 #
edge $-1 $388 0 $388 6.2831853071796004 $182 $389 forward 7 unknown #
vertex $-1 $185 $390 #
ellipse-curve $-1 71.801853545494268 2.7196443453015959 10.819288668422397 0.86602541151947299 0 0.49999998660252726 0.49999998660252726 0 -0.86602541151947299 1 I I #
coedge $-1 $281 $281 $-1 $391 reversed $188 $-1 #
edge $-1 $392 0 $392 6.2831853071796004 $189 $393 forward 7 unknown #
vertex $-1 $192 $394 #
ellipse-curve $-1 71.801853545494268 6.7991108632539863 10.819288668422397 0.86602541151947299 0 0.49999998660252726 0.49999998660252726 0 -0.86602541151947299 1 I I #
coedge $-1 $285 $285 $-1 $395 reversed $195 $-1 #
edge $-1 $396 0 $396 6.2831853071796004 $196 $397 forward 7 unknown #
vertex $-1 $199 $398 #
ellipse-curve $-1 71.801853545494268 10.878577381206377 10.819288668422397 0.86602541151947299 0 0.49999998660252726 0.49999998660252726 0 -0.86602541151947299 1 I I #
face $-1 $-1 $215 $30 $-1 $399 reversed single #
loop $-1 $-1 $305 $200 #
plane-surface $-1 0 39.741427006590065 0 0 -1 0 0 0 -1 forward_v I I I I #
coedge $-1 $400 $303 $306 $401 forward $201 $-1 #
coedge $-1 $309 $203 $204 $297 reversed $127 $-1 #
coedge $-1 $303 $400 $203 $295 reversed $201 $-1 #
edge $-1 $310 -13.861288699918084 $402 13.861288699918084 $294 $403 forward 7 unknown #
coedge $-1 $205 $204 $400 $404 forward $81 $-1 #
edge $-1 $301 -73.558153019806511 $402 73.558153019806511 $293 $405 forward 7 unknown #
coedge $-1 $306 $305 $205 $299 reversed $290 $-1 #
edge $-1 $406 -73.558153019806511 $300 73.558153019806511 $298 $407 forward 7 unknown #
vertex $-1 $207 $408 #
vertex $-1 $312 $409 #
straight-curve $-1 73.558153019806511 0 -13.861288699918084 0 -1 0 I I #
coedge $-1 $292 $294 $208 $304 reversed $201 $-1 #
edge $-1 $307 -39.741427006590065 $310 39.741427006590065 $303 $410 forward 7 unknown #
coedge $-1 $298 $209 $214 $313 forward $290 $-1 #
coedge $-1 $209 $298 $292 $401 reversed $290 $-1 #
vertex $-1 $210 $411 #
straight-curve $-1 0 39.741427006590065 13.861288699918084 -1 0 0 I I #
coedge $-1 $211 $293 $213 $312 reversed $127 $-1 #
vertex $-1 $304 $412 #
straight-curve $-1 0 -39.741427006590065 13.861288699918084 1 0 0 I I #
edge $-1 $216 -13.861288699918084 $301 13.861288699918084 $213 $413 forward 7 unknown #
edge $-1 $217 -13.861288699918084 $300 13.861288699918084 $214 $414 forward 7 unknown #
point $-1 73.558153019806511 -39.741427006590065 13.861288699918084 #
point $-1 73.558153019806511 39.741427006590065 13.861288699918084 #
face $-1 $-1 $332 $31 $-1 $415 forward single #
plane-surface $-1 -80.006907449342208 -12.018849606753896 0 0 -1 0 0 0 -1 forward_v I I I I #
coedge $-1 $416 $417 $335 $418 forward $220 $-1 #
coedge $-1 $328 $222 $223 $324 reversed $135 $-1 #
coedge $-1 $222 $328 $331 $419 reversed $135 $-1 #
coedge $-1 $417 $416 $222 $322 reversed $220 $-1 #
edge $-1 $420 -13.861288699918084 $421 13.861288699918084 $321 $422 forward 7 unknown #
coedge $-1 $224 $223 $416 $423 forward $85 $-1 #
edge $-1 $326 -6.4487544295356969 $421 6.4487544295356969 $319 $424 forward 7 unknown #
edge $-1 $425 -6.4487544295356969 $232 6.4487544295356969 $229 $426 forward 7 unknown #
vertex $-1 $324 $427 #
straight-curve $-1 -73.558153019806511 0 -13.861288699918084 0 -1 0 I I #
coedge $-1 $320 $319 $226 $329 reversed $135 $-1 #
edge $-1 $333 -13.861288699918084 $326 13.861288699918084 $328 $428 forward 7 unknown #
coedge $-1 $429 $227 $230 $336 forward $332 $-1 #
coedge $-1 $227 $429 $320 $419 forward $332 $-1 #
loop $-1 $-1 $227 $316 #
vertex $-1 $228 $430 #
straight-curve $-1 -73.558153019806511 0 13.861288699918084 0 1 0 I I #
coedge $-1 $230 $229 $318 $418 reversed $231 $-1 #
edge $-1 $233 -6.4487544295356969 $431 6.4487544295356969 $230 $432 forward 7 unknown #
point $-1 -73.558153019806511 -12.018849606753896 -13.861288699918084 #
point $-1 -73.558153019806511 -12.018849606753896 13.861288699918084 #
loop $-1 $-1 $348 $235 #
plane-surface $-1 0 0 13.861288699918084 0 0 1 1 0 0 forward_v I I I I #
coedge $-1 $342 $238 $246 $354 reversed $143 $-1 #
coedge $-1 $238 $341 $433 $434 reversed $143 $-1 #
coedge $-1 $348 $435 $240 $344 forward $339 $-1 #
edge $-1 $346 -9.8549222947228472 $352 -6.3423233460983184 $343 $436 forward 7 unknown #
coedge $-1 $246 $241 $435 $437 reversed $236 $-1 #
vertex $-1 $242 $438 #
straight-curve $-1 73.558153019806511 -26.143205280082103 104.37094958246357 0 0 1 I I #
coedge $-1 $433 $343 $243 $349 forward $339 $-1 #
edge $-1 $352 9.6720472084140603 $350 23.270268934922029 $348 $439 forward 7 unknown #
vertex $-1 $434 $440 #
straight-curve $-1 29.268141213624332 -39.741427006590065 84.489842093737934 0.49999998660252726 0 -0.86602541151947299 I I #
vertex $-1 $349 $441 #
straight-curve $-1 1.9709867302708517e-006 -26.143205280082103 135.18374811610732 0.49999998660252726 0 -0.86602541151947299 I I #
edge $-1 $442 -13.861288699918084 $247 -7.7772886369267713 $246 $443 forward 7 unknown #
point $-1 73.558153019806511 -39.741427006590065 7.7772886369267713 #
point $-1 73.558153019806511 -26.143205280082103 7.7772886369267837 #
edge $-1 $444 1 $444 0 $250 $-1 forward 7 unknown #
vertex $-1 $251 $445 #
ellipse-curve $-1 68.519562526139651 -37.021782661288469 8.9242571325423494 0.86602541151947299 0 0.49999998660252726 0.49999998660252726 0 -0.86602541151947299 1 I I #
point $-1 72.301853532096771 -37.021782661288469 9.9532632569029147 #
edge $-1 $446 1 $446 0 $254 $-1 forward 7 unknown #
vertex $-1 $255 $447 #
ellipse-curve $-1 68.519562526139651 -32.942316143336079 8.9242571325423494 0.86602541151947299 0 0.49999998660252726 0.49999998660252726 0 -0.86602541151947299 1 I I #
point $-1 72.301853532096771 -32.942316143336079 9.9532632569029147 #
edge $-1 $448 1 $448 0 $258 $-1 forward 7 unknown #
vertex $-1 $259 $449 #
ellipse-curve $-1 68.519562526139651 -28.862849625383692 8.9242571325423494 0.86602541151947299 0 0.49999998660252726 0.49999998660252726 0 -0.86602541151947299 1 I I #
point $-1 72.301853532096771 -28.862849625383692 9.9532632569029147 #
loop $-1 $-1 $270 $262 #
plane-surface $-1 0 0 13.861288699918084 0 0 1 1 0 0 forward_v I I I I #
coedge $-1 $372 $265 $267 $376 reversed $172 $-1 #
coedge $-1 $265 $371 $450 $451 reversed $172 $-1 #
coedge $-1 $273 $268 $265 $374 forward $263 $-1 #
edge $-1 $377 -96.593660945536783 $452 -90.509660882545489 $373 $453 forward 7 unknown #
coedge $-1 $267 $266 $380 $454 reversed $108 $-1 #
edge $-1 $455 140.09110795412411 $377 147.11630603961297 $371 $456 forward 7 unknown #
vertex $-1 $269 $457 #
straight-curve $-1 73.558153019806511 3.3995554316269896 7.7772886369267837 0 1 0 I I #
coedge $-1 $450 $270 $273 $384 forward $369 $-1 #
coedge $-1 $270 $450 $375 $454 forward $369 $-1 #
vertex $-1 $271 $458 #
straight-curve $-1 63.703230725083664 -3.5527136788005009e-015 13.861288699918077 1 0 0 I I #
straight-curve $-1 1.9709867302708517e-006 -3.5527136788005009e-015 135.18374811610732 -0.49999998660252726 0 0.86602541151947299 I I #
edge $-1 $274 -3.5527136788005009e-015 $452 13.598221726507962 $273 $459 forward 7 unknown #
point $-1 73.558153019806511 -3.5527136788005009e-015 13.861288699918084 #
point $-1 73.558153019806511 -3.5527136788005009e-015 7.7772886369267837 #
edge $-1 $460 1 $460 0 $277 $-1 forward 7 unknown #
vertex $-1 $278 $461 #
ellipse-curve $-1 68.519562526139651 2.7196443453015959 8.9242571325423494 0.86602541151947299 0 0.49999998660252726 0.49999998660252726 0 -0.86602541151947299 1 I I #
point $-1 72.301853532096771 2.7196443453015959 9.9532632569029147 #
edge $-1 $462 1 $462 0 $281 $-1 forward 7 unknown #
vertex $-1 $282 $463 #
ellipse-curve $-1 68.519562526139651 6.7991108632539863 8.9242571325423494 0.86602541151947299 0 0.49999998660252726 0.49999998660252726 0 -0.86602541151947299 1 I I #
point $-1 72.301853532096771 6.7991108632539863 9.9532632569029147 #
edge $-1 $464 1 $464 0 $285 $-1 forward 7 unknown #
vertex $-1 $286 $465 #
ellipse-curve $-1 68.519562526139651 10.878577381206377 8.9242571325423494 0.86602541151947299 0 0.49999998660252726 0.49999998660252726 0 -0.86602541151947299 1 I I #
point $-1 72.301853532096771 10.878577381206377 9.9532632569029147 #
plane-surface $-1 73.558153019806511 0 0 -1 0 0 0 0 1 forward_v I I I I #
coedge $-1 $294 $292 $296 $404 reversed $201 $-1 #
edge $-1 $307 -13.861288699918084 $406 13.861288699918084 $306 $466 forward 7 unknown #
vertex $-1 $404 $467 #
straight-curve $-1 -73.558153019806511 -39.741427006590065 0 0 0 -1 I I #
edge $-1 $402 -39.741427006590065 $406 39.741427006590065 $400 $468 forward 7 unknown #
straight-curve $-1 0 -39.741427006590065 -13.861288699918084 -1 0 0 I I #
vertex $-1 $299 $469 #
straight-curve $-1 0 39.741427006590065 -13.861288699918084 1 0 0 I I #
point $-1 73.558153019806511 39.741427006590065 -13.861288699918084 #
point $-1 73.558153019806511 -39.741427006590065 -13.861288699918084 #
straight-curve $-1 -73.558153019806511 0 13.861288699918084 0 -1 0 I I #
point $-1 -73.558153019806511 39.741427006590065 13.861288699918084 #
point $-1 -73.558153019806511 -39.741427006590065 13.861288699918084 #
straight-curve $-1 73.558153019806511 -39.741427006590065 0 0 0 -1 I I #
straight-curve $-1 73.558153019806511 39.741427006590065 0 0 0 -1 I I #
plane-surface $-1 0 0 13.861288699918084 0 0 1 1 0 0 forward_v I I I I #
coedge $-1 $321 $318 $323 $423 reversed $220 $-1 #
coedge $-1 $318 $321 $429 $470 reversed $220 $-1 #
edge $-1 $431 -13.861288699918084 $425 13.861288699918084 $335 $471 forward 7 unknown #
edge $-1 $420 -6.4487544295356969 $333 6.4487544295356969 $320 $472 forward 7 unknown #
vertex $-1 $470 $473 #
vertex $-1 $423 $474 #
straight-curve $-1 -86.455661878877905 -19.062314956385421 0 0 0 -1 I I #
edge $-1 $421 -3.5217326748157625 $425 3.5217326748157625 $416 $475 forward 7 unknown #
straight-curve $-1 -80.006907449342208 -19.062314956385421 -13.861288699918084 -1 0 0 I I #
vertex $-1 $325 $476 #
straight-curve $-1 -80.006907449342208 -12.018849606753896 -13.861288699918084 1 0 0 I I #
point $-1 -73.558153019806511 -19.062314956385421 -13.861288699918084 #
straight-curve $-1 -73.558153019806511 -19.062314956385421 0 0 0 -1 I I #
coedge $-1 $331 $330 $417 $470 forward $332 $-1 #
point $-1 -73.558153019806511 -19.062314956385421 13.861288699918084 #
vertex $-1 $336 $477 #
straight-curve $-1 -80.006907449342208 -12.018849606753896 13.861288699918084 -1 0 0 I I #
coedge $-1 $435 $348 $342 $434 forward $339 $-1 #
edge $-1 $350 70.045554071181982 $442 73.558153019806511 $342 $478 forward 7 unknown #
coedge $-1 $343 $433 $345 $437 forward $339 $-1 #
straight-curve $-1 63.703230725083664 -26.143205280082103 13.861288699918077 -1 0 0 I I #
edge $-1 $442 -39.741427006590065 $346 -26.143205280082103 $345 $479 forward 7 unknown #
point $-1 73.558153019806511 -26.143205280082103 13.861288699918084 #
straight-curve $-1 70.045554071181982 -16.471158071668043 13.861288699918077 0 -1 0 I I #
point $-1 70.045554071181982 -39.741427006590072 13.861288699918077 #
point $-1 70.045554071181982 -26.143205280082103 13.861288699918077 #
vertex $-1 $437 $480 #
straight-curve $-1 73.558153019806511 -39.741427006590065 0 0 0 -1 I I #
vertex $-1 $357 $481 #
point $-1 69.019562512742183 -37.021782661288469 8.0582317210228762 #
vertex $-1 $361 $482 #
point $-1 69.019562512742183 -32.942316143336079 8.0582317210228762 #
vertex $-1 $365 $483 #
point $-1 69.019562512742183 -28.862849625383692 8.0582317210228762 #
coedge $-1 $380 $379 $372 $451 forward $369 $-1 #
edge $-1 $452 -9.8549222947228472 $455 -6.3423233460983184 $450 $484 forward 7 unknown #
vertex $-1 $451 $485 #
straight-curve $-1 73.558153019806511 13.598221726507962 104.37094958246357 0 0 1 I I #
edge $-1 $455 -10.198666294880972 $381 3.3995554316269931 $380 $486 forward 7 unknown #
vertex $-1 $454 $487 #
straight-curve $-1 1.9709867302708517e-006 13.598221726507962 135.18374811610732 0.49999998660252726 0 -0.86602541151947299 I I #
point $-1 73.558153019806511 13.598221726507962 7.7772886369267837 #
point $-1 70.045554071181982 -3.5527136788005009e-015 13.861288699918077 #
straight-curve $-1 73.558153019806511 0 13.861288699918084 0 1 0 I I #
vertex $-1 $387 $488 #
point $-1 69.019562512742183 2.7196443453015959 8.0582317210228762 #
vertex $-1 $391 $489 #
point $-1 69.019562512742183 6.7991108632539863 8.0582317210228762 #
vertex $-1 $395 $490 #
point $-1 69.019562512742183 10.878577381206377 8.0582317210228762 #
straight-curve $-1 -73.558153019806511 39.741427006590065 0 0 0 -1 I I #
point $-1 -73.558153019806511 -39.741427006590065 -13.861288699918084 #
straight-curve $-1 -73.558153019806511 0 -13.861288699918084 0 1 0 I I #
point $-1 -73.558153019806511 39.741427006590065 -13.861288699918084 #
edge $-1 $431 -3.5217326748157625 $420 3.5217326748157625 $417 $491 forward 7 unknown #
straight-curve $-1 -86.455661878877905 -12.018849606753896 0 0 0 -1 I I #
straight-curve $-1 -80.006907449342208 -19.062314956385421 13.861288699918084 1 0 0 I I #
point $-1 -86.455661878877905 -19.062314956385421 13.861288699918084 #
point $-1 -86.455661878877905 -19.062314956385421 -13.861288699918084 #
straight-curve $-1 -86.455661878877905 -15.540582281569659 -13.861288699918084 0 1 0 I I #
point $-1 -86.455661878877905 -12.018849606753896 -13.861288699918084 #
point $-1 -86.455661878877905 -12.018849606753896 13.861288699918084 #
straight-curve $-1 0 -39.741427006590065 13.861288699918084 1 0 0 I I #
straight-curve $-1 73.558153019806511 0 13.861288699918084 0 1 0 I I #
point $-1 73.558153019806511 -39.741427006590065 13.861288699918084 #
point $-1 67.653537114620178 -37.021782661288469 8.424257145939821 #
point $-1 67.653537114620178 -32.942316143336079 8.424257145939821 #
point $-1 67.653537114620178 -28.862849625383692 8.424257145939821 #
straight-curve $-1 63.703230725083664 13.598221726507962 13.861288699918077 -1 0 0 I I #
point $-1 73.558153019806511 13.598221726507962 13.861288699918084 #
straight-curve $-1 70.045554071181982 3.3995554316269896 13.861288699918077 0 -1 0 I I #
point $-1 70.045554071181982 13.598221726507962 13.861288699918077 #
point $-1 67.653537114620178 2.7196443453015959 8.424257145939821 #
point $-1 67.653537114620178 6.7991108632539863 8.424257145939821 #
point $-1 67.653537114620178 10.878577381206377 8.424257145939821 #
straight-curve $-1 -86.455661878877905 -15.540582281569659 13.861288699918084 0 -1 0 I I #
End-of-ACIS-data 