500 0 4 0           
7 Unknown 11 ACIS 5.0 NT 24 Thu Mar 25 16:13:36 1999 
-1 9.9999999999999995e-007 1e-010 
body $-1 $4 $-1 $5 #
body $-1 $6 $-1 $7 #
body $-1 $8 $-1 $9 #
body $-1 $10 $-1 $11 #
lump $-1 $-1 $12 $0 #
transform $-1 1 0 0 0 1 0 0 0 1 58.471022675252541 39.376175043761251 16.791023927547926 1 rotate no_reflect no_shear #
lump $-1 $-1 $13 $1 #
transform $-1 1 0 0 0 1 0 0 0 1 58.471022675252541 39.376175043761251 16.791023927547926 1 rotate no_reflect no_shear #
lump $-1 $-1 $14 $2 #
transform $-1 1 0 0 0 1 0 0 0 1 58.471022675252541 39.376175043761251 16.791023927547926 1 rotate no_reflect no_shear #
lump $-1 $-1 $15 $3 #
transform $-1 1 0 0 0 1 0 0 0 1 58.471022675252541 39.376175043761251 16.791023927547926 1 rotate no_reflect no_shear #
shell $-1 $-1 $-1 $16 $-1 $4 #
shell $-1 $-1 $-1 $17 $-1 $6 #
shell $-1 $-1 $-1 $18 $-1 $8 #
shell $-1 $-1 $-1 $19 $-1 $10 #
face $-1 $20 $21 $12 $-1 $22 forward single #
face $-1 $23 $24 $13 $-1 $25 forward single #
face $-1 $26 $27 $14 $-1 $28 reversed single #
face $-1 $29 $30 $15 $-1 $31 reversed single #
face $-1 $32 $33 $12 $-1 $34 reversed single #
loop $-1 $-1 $35 $16 #
plane-surface $-1 0 0 16.791023927547926 0 0 1 1 0 0 forward_v I I I I #
face $-1 $36 $37 $13 $-1 $38 forward single #
loop $-1 $-1 $39 $17 #
plane-surface $-1 26.914836568759782 23.517311490414372 168.4473976375067 0 1 0 0.55919291073839883 0 0.82903756765294845 forward_v I I I I #
face $-1 $40 $41 $14 $-1 $42 reversed single #
loop $-1 $43 $44 $18 #
cone-surface $-1 49.840046822572802 28.04841536279919 10.396003054366659 -0.55919291073839883 0 -0.82903756765294845 0.82903756765294845 0 -0.55919291073839883 1 I I 0 1 1 forward I I I I #
face $-1 $45 $46 $15 $-1 $47 reversed single #
loop $-1 $48 $49 $19 #
cone-surface $-1 49.840046822572802 34.845071171376432 10.396003054366659 -0.55919291073839883 0 -0.82903756765294845 0.82903756765294845 0 -0.55919291073839883 1 I I 0 1 1 forward I I I I #
face $-1 $50 $51 $12 $-1 $52 reversed single #
loop $-1 $-1 $53 $20 #
plane-surface $-1 0 0 -16.791023927547926 0 0 1 1 0 0 forward_v I I I I #
coedge $-1 $54 $55 $56 $57 forward $21 $-1 #
face $-1 $58 $59 $13 $-1 $60 reversed single #
loop $-1 $-1 $61 $23 #
plane-surface $-1 -38.478326158491001 31.446743267087811 71.498048803763169 0.55919291073839883 0 0.82903756765294845 0.82903756765294845 0 -0.55919291073839883 forward_v I I I I #
coedge $-1 $62 $63 $64 $65 reversed $24 $-1 #
face $-1 $66 $67 $14 $-1 $68 forward single #
loop $-1 $69 $70 $26 #
cone-surface $-1 48.850899805778212 28.04841536279919 8.9295323228766676 -0.55919291073839883 0 -0.82903756765294845 0.41451878382647422 0 -0.27959645536919941 1 I I -0.70710678118654746 0.70710678118654746 0.5 forward I I I I #
loop $-1 $-1 $71 $18 #
coedge $-1 $44 $44 $72 $73 reversed $27 $-1 #
face $-1 $74 $75 $15 $-1 $76 reversed single #
loop $-1 $77 $78 $29 #
cone-surface $-1 48.850899805778212 34.845071171376432 8.9295323228766676 -0.55919291073839883 0 -0.82903756765294845 0.41451878382647422 0 -0.27959645536919941 1 I I -0.70710678118654746 0.70710678118654746 0.5 forward I I I I #
loop $-1 $-1 $79 $19 #
coedge $-1 $49 $49 $80 $81 reversed $30 $-1 #
face $-1 $82 $83 $12 $-1 $84 reversed single #
loop $-1 $-1 $85 $32 #
plane-surface $-1 0 -39.376175043761251 0 0 1 0 0 0 1 forward_v I I I I #
coedge $-1 $86 $87 $88 $89 forward $33 $-1 #
coedge $-1 $90 $35 $91 $92 forward $21 $-1 #
coedge $-1 $35 $90 $93 $94 forward $21 $-1 #
coedge $-1 $95 $96 $35 $57 reversed $97 $-1 #
edge $-1 $98 -39.376175043761251 $99 39.376175043761251 $56 $100 forward 7 unknown #
face $-1 $101 $102 $13 $-1 $103 forward single #
loop $-1 $-1 $104 $36 #
plane-surface $-1 58.471022675252541 0 0 -1 0 0 0 0 1 forward_v I I I I #
coedge $-1 $105 $106 $104 $107 reversed $37 $-1 #
coedge $-1 $63 $39 $106 $108 forward $24 $-1 #
coedge $-1 $39 $62 $109 $110 reversed $24 $-1 #
coedge $-1 $111 $104 $39 $65 forward $59 $-1 #
edge $-1 $112 -78.118812742240976 $113 -67.432674891205423 $64 $114 forward 7 unknown #
face $-1 $115 $116 $14 $-1 $117 forward single #
loop $-1 $-1 $118 $40 #
plane-surface $-1 26.914836568759782 23.517311490414372 168.4473976375067 0 1 0 0.55919291073839883 0 0.82903756765294845 forward_v I I I I #
loop $-1 $-1 $119 $26 #
coedge $-1 $70 $70 $71 $120 forward $41 $-1 #
coedge $-1 $71 $71 $70 $120 reversed $43 $-1 #
coedge $-1 $72 $72 $44 $73 forward $116 $-1 #
edge $-1 $121 0 $121 6.2831853071796004 $72 $122 forward 7 unknown #
face $-1 $123 $124 $15 $-1 $125 reversed single #
loop $-1 $126 $127 $45 #
cone-surface $-1 49.840046822572802 28.04841536279919 10.396003054366659 -0.55919291073839883 0 -0.82903756765294845 0.82903756765294845 0 -0.55919291073839883 1 I I 0 1 1 forward I I I I #
loop $-1 $-1 $128 $29 #
coedge $-1 $78 $78 $79 $129 forward $46 $-1 #
coedge $-1 $79 $79 $78 $129 reversed $48 $-1 #
coedge $-1 $80 $80 $49 $81 forward $130 $-1 #
edge $-1 $131 0 $131 6.2831853071796004 $80 $132 forward 7 unknown #
face $-1 $133 $134 $12 $-1 $135 reversed single #
loop $-1 $-1 $136 $50 #
plane-surface $-1 -58.471022675252541 0 0 1 0 0 0 0 -1 forward_v I I I I #
coedge $-1 $137 $93 $138 $139 forward $51 $-1 #
coedge $-1 $140 $53 $137 $141 forward $33 $-1 #
coedge $-1 $53 $140 $142 $143 forward $33 $-1 #
coedge $-1 $96 $95 $53 $89 reversed $97 $-1 #
edge $-1 $144 -39.376175043761251 $145 39.376175043761251 $88 $146 forward 7 unknown #
coedge $-1 $55 $54 $147 $148 forward $21 $-1 #
coedge $-1 $149 $150 $54 $92 reversed $134 $-1 #
edge $-1 $99 -58.471022675252541 $151 58.471022675252541 $91 $152 forward 7 unknown #
coedge $-1 $85 $153 $55 $94 reversed $51 $-1 #
edge $-1 $154 -58.471022675252541 $98 58.471022675252541 $93 $155 forward 7 unknown #
coedge $-1 $88 $56 $153 $156 forward $97 $-1 #
coedge $-1 $56 $88 $149 $157 reversed $97 $-1 #
loop $-1 $-1 $95 $133 #
vertex $-1 $57 $158 #
vertex $-1 $57 $159 #
straight-curve $-1 58.471022675252541 0 16.791023927547926 0 1 0 I I #
face $-1 $160 $161 $13 $-1 $162 reversed single #
loop $-1 $-1 $109 $58 #
plane-surface $-1 0 0 16.791023927547926 0 0 1 1 0 0 forward_v I I I I #
coedge $-1 $64 $163 $61 $107 forward $59 $-1 #
coedge $-1 $164 $61 $165 $166 reversed $37 $-1 #
coedge $-1 $61 $164 $62 $108 reversed $37 $-1 #
edge $-1 $167 -23.652803410217345 $112 -7.7939398568704661 $104 $168 forward 7 unknown #
edge $-1 $112 -116.94204535050511 $169 -97.832114509420578 $62 $170 forward 7 unknown #
coedge $-1 $171 $172 $63 $110 forward $102 $-1 #
edge $-1 $113 -45.013604390872651 $169 -29.170753808363877 $109 $173 forward 7 unknown #
coedge $-1 $174 $64 $172 $175 reversed $59 $-1 #
vertex $-1 $107 $176 #
vertex $-1 $110 $177 #
straight-curve $-1 58.471022675252541 23.517311490414372 84.223698818753348 0 0 1 I I #
face $-1 $178 $179 $14 $-1 $180 reversed single #
loop $-1 $181 $72 $66 #
plane-surface $-1 -38.478326158491001 31.446743267087811 71.498048803763169 0.55919291073839883 0 0.82903756765294845 0.82903756765294845 0 -0.55919291073839883 forward_v I I I I #
coedge $-1 $182 $183 $184 $185 reversed $67 $-1 #
coedge $-1 $119 $119 $-1 $186 forward $69 $-1 #
edge $-1 $187 0 $187 6.2831853071796004 $70 $188 forward 7 unknown #
vertex $-1 $73 $189 #
ellipse-curve $-1 50.549597383998176 28.04841536279919 11.447955002030145 -0.55919291073839883 0 -0.82903756765294845 0.82903756765294845 0 -0.55919291073839883 1 I I #
face $-1 $190 $191 $15 $-1 $192 forward single #
loop $-1 $193 $194 $74 #
cone-surface $-1 48.850899805778212 28.04841536279919 8.9295323228766676 -0.55919291073839883 0 -0.82903756765294845 0.41451878382647422 0 -0.27959645536919941 1 I I -0.70710678118654746 0.70710678118654746 0.5 forward I I I I #
loop $-1 $-1 $195 $45 #
coedge $-1 $127 $127 $196 $197 reversed $75 $-1 #
coedge $-1 $128 $128 $-1 $198 forward $77 $-1 #
edge $-1 $199 0 $199 6.2831853071796004 $78 $200 forward 7 unknown #
loop $-1 $201 $80 $190 #
vertex $-1 $81 $202 #
ellipse-curve $-1 50.549597383998176 34.845071171376432 11.447955002030145 -0.55919291073839883 0 -0.82903756765294845 0.82903756765294845 0 -0.55919291073839883 1 I I #
face $-1 $-1 $97 $12 $-1 $203 reversed single #
loop $-1 $-1 $149 $82 #
plane-surface $-1 0 39.376175043761251 0 0 -1 0 0 0 -1 forward_v I I I I #
coedge $-1 $204 $147 $150 $205 forward $83 $-1 #
coedge $-1 $153 $85 $86 $141 reversed $51 $-1 #
coedge $-1 $147 $204 $85 $139 reversed $83 $-1 #
edge $-1 $154 -16.791023927547926 $206 16.791023927547926 $138 $207 forward 7 unknown #
coedge $-1 $87 $86 $204 $208 forward $33 $-1 #
edge $-1 $145 -58.471022675252541 $206 58.471022675252541 $137 $209 forward 7 unknown #
coedge $-1 $150 $149 $87 $143 reversed $134 $-1 #
edge $-1 $210 -58.471022675252541 $144 58.471022675252541 $142 $211 forward 7 unknown #
vertex $-1 $89 $212 #
vertex $-1 $156 $213 #
straight-curve $-1 58.471022675252541 0 -16.791023927547926 0 -1 0 I I #
coedge $-1 $136 $138 $90 $148 reversed $83 $-1 #
edge $-1 $151 -39.376175043761251 $154 39.376175043761251 $147 $214 forward 7 unknown #
coedge $-1 $142 $91 $96 $157 forward $134 $-1 #
coedge $-1 $91 $142 $136 $205 reversed $134 $-1 #
vertex $-1 $92 $215 #
straight-curve $-1 0 39.376175043761251 16.791023927547926 -1 0 0 I I #
coedge $-1 $93 $137 $95 $156 reversed $51 $-1 #
vertex $-1 $148 $216 #
straight-curve $-1 0 -39.376175043761251 16.791023927547926 1 0 0 I I #
edge $-1 $98 -16.791023927547926 $145 16.791023927547926 $95 $217 forward 7 unknown #
edge $-1 $99 -16.791023927547926 $144 16.791023927547926 $96 $218 forward 7 unknown #
point $-1 58.471022675252541 -39.376175043761251 16.791023927547926 #
point $-1 58.471022675252541 39.376175043761251 16.791023927547926 #
face $-1 $219 $220 $13 $-1 $221 reversed single #
loop $-1 $-1 $222 $101 #
plane-surface $-1 0 0 -16.791023927547926 0 0 1 1 0 0 forward_v I I I I #
coedge $-1 $104 $223 $224 $225 reversed $59 $-1 #
coedge $-1 $106 $105 $171 $226 reversed $37 $-1 #
coedge $-1 $224 $227 $105 $166 forward $228 $-1 #
edge $-1 $229 61.89152453517827 $167 81.001455376262783 $165 $230 forward 7 unknown #
vertex $-1 $225 $231 #
straight-curve $-1 58.471022675252541 15.723371633543906 6.104886076512372 0 -1 0 I I #
vertex $-1 $226 $232 #
straight-curve $-1 -38.478326158491001 23.517311490414372 71.498048803763169 -0.82903756765294845 0 0.55919291073839883 I I #
coedge $-1 $233 $109 $164 $226 forward $102 $-1 #
coedge $-1 $109 $234 $111 $175 forward $102 $-1 #
straight-curve $-1 13.457418284379891 23.517311490414372 16.791023927547926 -1 0 0 I I #
coedge $-1 $223 $111 $235 $236 forward $59 $-1 #
edge $-1 $237 -39.376175043761251 $113 23.517311490414372 $111 $238 forward 7 unknown #
point $-1 58.471022675252541 23.517311490414372 6.104886076512372 #
point $-1 58.471022675252541 23.517311490414372 16.791023927547926 #
face $-1 $239 $240 $14 $-1 $241 forward single #
loop $-1 $-1 $242 $115 #
plane-surface $-1 58.471022675252541 0 0 -1 0 0 0 0 1 forward_v I I I I #
loop $-1 $-1 $243 $66 #
coedge $-1 $183 $118 $244 $245 forward $67 $-1 #
coedge $-1 $118 $182 $246 $247 reversed $67 $-1 #
coedge $-1 $248 $242 $118 $185 forward $179 $-1 #
edge $-1 $249 -78.118812742240976 $250 -67.432674891205423 $184 $251 forward 7 unknown #
edge $-1 $252 1 $252 0 $119 $-1 forward 7 unknown #
vertex $-1 $120 $253 #
ellipse-curve $-1 49.130496261147414 28.04841536279919 9.3440511067031427 0.55919291073839883 0 0.82903756765294845 0.82903756765294845 0 -0.55919291073839883 1 I I #
point $-1 51.378634951651144 28.04841536279919 10.888762091291776 #
face $-1 $254 $130 $15 $-1 $255 forward single #
loop $-1 $-1 $256 $123 #
plane-surface $-1 26.914836568759782 23.517311490414372 168.4473976375067 0 1 0 0.55919291073839883 0 0.82903756765294845 forward_v I I I I #
loop $-1 $-1 $257 $74 #
coedge $-1 $194 $194 $195 $258 forward $124 $-1 #
coedge $-1 $195 $195 $194 $258 reversed $126 $-1 #
coedge $-1 $196 $196 $127 $197 forward $201 $-1 #
edge $-1 $259 0 $259 6.2831853071796004 $196 $260 forward 7 unknown #
edge $-1 $261 1 $261 0 $128 $-1 forward 7 unknown #
vertex $-1 $129 $262 #
ellipse-curve $-1 49.130496261147414 34.845071171376432 9.3440511067031427 0.55919291073839883 0 0.82903756765294845 0.82903756765294845 0 -0.55919291073839883 1 I I #
loop $-1 $263 $196 $190 #
point $-1 51.378634951651144 34.845071171376432 10.888762091291776 #
plane-surface $-1 58.471022675252541 0 0 -1 0 0 0 0 1 forward_v I I I I #
coedge $-1 $138 $136 $140 $208 reversed $83 $-1 #
edge $-1 $151 -16.791023927547926 $210 16.791023927547926 $150 $264 forward 7 unknown #
vertex $-1 $208 $265 #
straight-curve $-1 -58.471022675252541 -39.376175043761251 0 0 0 -1 I I #
edge $-1 $206 -39.376175043761251 $210 39.376175043761251 $204 $266 forward 7 unknown #
straight-curve $-1 0 -39.376175043761251 -16.791023927547926 -1 0 0 I I #
vertex $-1 $143 $267 #
straight-curve $-1 0 39.376175043761251 -16.791023927547926 1 0 0 I I #
point $-1 58.471022675252541 39.376175043761251 -16.791023927547926 #
point $-1 58.471022675252541 -39.376175043761251 -16.791023927547926 #
straight-curve $-1 -58.471022675252541 0 16.791023927547926 0 -1 0 I I #
point $-1 -58.471022675252541 39.376175043761251 16.791023927547926 #
point $-1 -58.471022675252541 -39.376175043761251 16.791023927547926 #
straight-curve $-1 58.471022675252541 -39.376175043761251 0 0 0 -1 I I #
straight-curve $-1 58.471022675252541 39.376175043761251 0 0 0 -1 I I #
face $-1 $268 $269 $13 $-1 $270 reversed single #
loop $-1 $-1 $271 $160 #
plane-surface $-1 0 -39.376175043761251 0 0 1 0 0 0 1 forward_v I I I I #
coedge $-1 $272 $273 $223 $274 forward $161 $-1 #
coedge $-1 $163 $174 $222 $274 reversed $59 $-1 #
coedge $-1 $275 $165 $163 $225 forward $228 $-1 #
edge $-1 $167 -6.1048860765123765 $276 16.791023927547926 $163 $277 forward 7 unknown #
edge $-1 $169 7.7939398568704661 $229 23.652803410217345 $171 $278 forward 7 unknown #
coedge $-1 $165 $279 $233 $280 reversed $228 $-1 #
loop $-1 $-1 $165 $268 #
vertex $-1 $280 $281 #
straight-curve $-1 -8.6822268662332096 39.376175043761251 51.400325682411292 0.82903756765294845 0 -0.55919291073839883 I I #
point $-1 58.471022675252541 39.376175043761251 6.1048860765123765 #
point $-1 42.628172092743768 23.517311490414372 16.791023927547926 #
coedge $-1 $282 $171 $227 $280 forward $102 $-1 #
coedge $-1 $172 $282 $283 $284 forward $102 $-1 #
coedge $-1 $283 $285 $174 $236 reversed $220 $-1 #
edge $-1 $237 -16.791023927547926 $286 16.791023927547926 $174 $287 forward 7 unknown #
vertex $-1 $175 $288 #
straight-curve $-1 58.471022675252541 0 16.791023927547926 0 1 0 I I #
face $-1 $289 $290 $14 $-1 $291 reversed single #
loop $-1 $-1 $246 $178 #
plane-surface $-1 0 0 16.791023927547926 0 0 1 1 0 0 forward_v I I I I #
coedge $-1 $184 $292 $243 $293 forward $179 $-1 #
coedge $-1 $294 $244 $242 $293 reversed $181 $-1 #
coedge $-1 $243 $295 $182 $245 reversed $181 $-1 #
edge $-1 $249 -116.94204535050511 $296 -97.832114509420578 $182 $297 forward 7 unknown #
coedge $-1 $298 $299 $183 $247 forward $240 $-1 #
edge $-1 $250 -45.013604390872651 $296 -29.170753808363877 $246 $300 forward 7 unknown #
coedge $-1 $301 $184 $299 $302 reversed $179 $-1 #
vertex $-1 $293 $303 #
vertex $-1 $247 $304 #
straight-curve $-1 58.471022675252541 23.517311490414372 84.223698818753348 0 0 1 I I #
vertex $-1 $186 $305 #
point $-1 49.95953382880036 28.04841536279919 8.7848581959647429 #
face $-1 $306 $307 $15 $-1 $308 reversed single #
plane-surface $-1 -38.478326158491001 31.446743267087811 71.498048803763169 0.55919291073839883 0 0.82903756765294845 0.82903756765294845 0 -0.55919291073839883 forward_v I I I I #
coedge $-1 $309 $310 $311 $312 reversed $191 $-1 #
coedge $-1 $257 $257 $-1 $313 forward $193 $-1 #
edge $-1 $314 0 $314 6.2831853071796004 $194 $315 forward 7 unknown #
vertex $-1 $197 $316 #
ellipse-curve $-1 50.549597383998176 28.04841536279919 11.447955002030145 -0.55919291073839883 0 -0.82903756765294845 0.82903756765294845 0 -0.55919291073839883 1 I I #
vertex $-1 $198 $317 #
point $-1 49.95953382880036 34.845071171376432 8.7848581959647429 #
loop $-1 $-1 $318 $190 #
straight-curve $-1 -58.471022675252541 39.376175043761251 0 0 0 -1 I I #
point $-1 -58.471022675252541 -39.376175043761251 -16.791023927547926 #
straight-curve $-1 -58.471022675252541 0 -16.791023927547926 0 1 0 I I #
point $-1 -58.471022675252541 39.376175043761251 -16.791023927547926 #
face $-1 $-1 $228 $13 $-1 $319 reversed single #
loop $-1 $-1 $320 $219 #
plane-surface $-1 -58.471022675252541 0 0 1 0 0 0 0 -1 forward_v I I I I #
coedge $-1 $285 $283 $321 $322 forward $220 $-1 #
coedge $-1 $323 $222 $285 $324 forward $161 $-1 #
coedge $-1 $222 $323 $275 $325 forward $161 $-1 #
edge $-1 $276 -39.376175043761251 $286 39.376175043761251 $223 $326 forward 7 unknown #
coedge $-1 $279 $224 $273 $325 reversed $228 $-1 #
vertex $-1 $274 $327 #
straight-curve $-1 58.471022675252541 39.376175043761251 0 0 0 -1 I I #
straight-curve $-1 42.628172092743775 15.723371633543906 16.791023927547926 0 1 0 I I #
coedge $-1 $227 $275 $320 $328 reversed $228 $-1 #
edge $-1 $229 -42.628172092743768 $329 58.471022675252541 $227 $330 forward 7 unknown #
point $-1 42.628172092743768 39.376175043761251 16.791023927547926 #
coedge $-1 $234 $233 $331 $332 forward $102 $-1 #
coedge $-1 $271 $235 $234 $284 reversed $220 $-1 #
edge $-1 $333 -58.471022675252541 $237 58.471022675252541 $283 $334 forward 7 unknown #
coedge $-1 $235 $271 $272 $324 reversed $220 $-1 #
vertex $-1 $236 $335 #
straight-curve $-1 58.471022675252541 -39.376175043761251 0 0 0 -1 I I #
point $-1 58.471022675252541 -39.376175043761251 16.791023927547926 #
face $-1 $336 $337 $14 $-1 $338 reversed single #
loop $-1 $-1 $339 $239 #
plane-surface $-1 0 0 -16.791023927547926 0 0 1 1 0 0 forward_v I I I I #
coedge $-1 $242 $340 $341 $342 reversed $179 $-1 #
edge $-1 $343 -23.652803410217345 $249 -7.7939398568704661 $242 $344 forward 7 unknown #
coedge $-1 $295 $243 $345 $346 reversed $181 $-1 #
coedge $-1 $244 $294 $298 $347 reversed $181 $-1 #
vertex $-1 $347 $348 #
straight-curve $-1 -38.478326158491001 23.517311490414372 71.498048803763169 -0.82903756765294845 0 0.55919291073839883 I I #
coedge $-1 $349 $246 $295 $347 forward $240 $-1 #
coedge $-1 $246 $350 $248 $302 forward $240 $-1 #
straight-curve $-1 13.457418284379891 23.517311490414372 16.791023927547926 -1 0 0 I I #
coedge $-1 $340 $248 $351 $352 forward $179 $-1 #
edge $-1 $353 -39.376175043761251 $250 23.517311490414372 $248 $354 forward 7 unknown #
point $-1 58.471022675252541 23.517311490414372 6.104886076512372 #
point $-1 58.471022675252541 23.517311490414372 16.791023927547926 #
point $-1 48.571303350409011 28.04841536279919 8.5150135390501926 #
face $-1 $355 $356 $15 $-1 $357 forward single #
loop $-1 $-1 $358 $254 #
plane-surface $-1 58.471022675252541 0 0 -1 0 0 0 0 1 forward_v I I I I #
coedge $-1 $310 $256 $359 $360 forward $191 $-1 #
coedge $-1 $256 $309 $361 $362 reversed $191 $-1 #
coedge $-1 $363 $358 $256 $312 forward $307 $-1 #
edge $-1 $364 -78.118812742240976 $365 -67.432674891205423 $311 $366 forward 7 unknown #
edge $-1 $367 1 $367 0 $257 $-1 forward 7 unknown #
vertex $-1 $258 $368 #
ellipse-curve $-1 49.130496261147414 28.04841536279919 9.3440511067031427 0.55919291073839883 0 0.82903756765294845 0.82903756765294845 0 -0.55919291073839883 1 I I #
point $-1 51.378634951651144 28.04841536279919 10.888762091291776 #
point $-1 48.571303350409011 34.845071171376432 8.5150135390501926 #
coedge $-1 $369 $359 $358 $370 reversed $263 $-1 #
plane-surface $-1 0 39.376175043761251 0 0 -1 0 0 0 -1 forward_v I I I I #
coedge $-1 $371 $331 $279 $328 forward $269 $-1 #
coedge $-1 $331 $371 $271 $322 reversed $269 $-1 #
edge $-1 $333 -16.791023927547926 $372 16.791023927547926 $321 $373 forward 7 unknown #
coedge $-1 $273 $272 $371 $374 forward $161 $-1 #
edge $-1 $286 -58.471022675252541 $372 58.471022675252541 $285 $375 forward 7 unknown #
edge $-1 $376 -58.471022675252541 $276 58.471022675252541 $275 $377 forward 7 unknown #
straight-curve $-1 58.471022675252541 0 -16.791023927547926 0 -1 0 I I #
point $-1 58.471022675252541 39.376175043761251 -16.791023927547926 #
edge $-1 $329 -16.791023927547926 $376 16.791023927547926 $279 $378 forward 7 unknown #
vertex $-1 $280 $379 #
straight-curve $-1 0 39.376175043761251 16.791023927547926 -1 0 0 I I #
coedge $-1 $320 $321 $282 $332 reversed $269 $-1 #
edge $-1 $329 -39.376175043761251 $333 39.376175043761251 $331 $380 forward 7 unknown #
vertex $-1 $332 $381 #
straight-curve $-1 0 -39.376175043761251 16.791023927547926 1 0 0 I I #
point $-1 58.471022675252541 -39.376175043761251 -16.791023927547926 #
face $-1 $382 $383 $14 $-1 $384 reversed single #
loop $-1 $-1 $385 $289 #
plane-surface $-1 0 -39.376175043761251 0 0 1 0 0 0 1 forward_v I I I I #
coedge $-1 $386 $387 $340 $388 forward $290 $-1 #
coedge $-1 $292 $301 $339 $388 reversed $179 $-1 #
coedge $-1 $389 $345 $292 $342 forward $390 $-1 #
edge $-1 $343 -6.1048860765123765 $391 16.791023927547926 $292 $392 forward 7 unknown #
vertex $-1 $342 $393 #
straight-curve $-1 58.471022675252541 15.723371633543906 6.104886076512372 0 -1 0 I I #
coedge $-1 $341 $394 $294 $346 forward $390 $-1 #
edge $-1 $395 61.89152453517827 $343 81.001455376262783 $345 $396 forward 7 unknown #
edge $-1 $296 7.7939398568704661 $395 23.652803410217345 $298 $397 forward 7 unknown #
point $-1 42.628172092743768 23.517311490414372 16.791023927547926 #
coedge $-1 $398 $298 $394 $399 forward $240 $-1 #
coedge $-1 $299 $398 $400 $401 forward $240 $-1 #
coedge $-1 $400 $402 $301 $352 reversed $337 $-1 #
edge $-1 $353 -16.791023927547926 $403 16.791023927547926 $301 $404 forward 7 unknown #
vertex $-1 $302 $405 #
straight-curve $-1 58.471022675252541 0 16.791023927547926 0 1 0 I I #
face $-1 $406 $407 $15 $-1 $408 reversed single #
loop $-1 $-1 $361 $306 #
plane-surface $-1 0 0 16.791023927547926 0 0 1 1 0 0 forward_v I I I I #
coedge $-1 $311 $409 $318 $370 forward $307 $-1 #
coedge $-1 $318 $410 $309 $360 reversed $263 $-1 #
edge $-1 $364 -116.94204535050511 $411 -97.832114509420578 $309 $412 forward 7 unknown #
coedge $-1 $413 $414 $310 $362 forward $356 $-1 #
edge $-1 $365 -45.013604390872651 $411 -29.170753808363877 $361 $415 forward 7 unknown #
coedge $-1 $416 $311 $414 $417 reversed $307 $-1 #
vertex $-1 $370 $418 #
vertex $-1 $362 $419 #
straight-curve $-1 58.471022675252541 23.517311490414372 84.223698818753348 0 0 1 I I #
vertex $-1 $313 $420 #
point $-1 49.95953382880036 28.04841536279919 8.7848581959647429 #
coedge $-1 $410 $318 $421 $422 reversed $263 $-1 #
edge $-1 $423 -23.652803410217345 $364 -7.7939398568704661 $358 $424 forward 7 unknown #
coedge $-1 $321 $320 $323 $374 reversed $269 $-1 #
vertex $-1 $374 $425 #
straight-curve $-1 -58.471022675252541 -39.376175043761251 0 0 0 -1 I I #
edge $-1 $372 -39.376175043761251 $376 39.376175043761251 $371 $426 forward 7 unknown #
straight-curve $-1 0 -39.376175043761251 -16.791023927547926 -1 0 0 I I #
vertex $-1 $325 $427 #
straight-curve $-1 0 39.376175043761251 -16.791023927547926 1 0 0 I I #
straight-curve $-1 -58.471022675252541 39.376175043761251 0 0 0 -1 I I #
point $-1 -58.471022675252541 39.376175043761251 16.791023927547926 #
straight-curve $-1 -58.471022675252541 0 16.791023927547926 0 -1 0 I I #
point $-1 -58.471022675252541 -39.376175043761251 16.791023927547926 #
face $-1 $-1 $390 $14 $-1 $428 reversed single #
loop $-1 $-1 $429 $336 #
plane-surface $-1 -58.471022675252541 0 0 1 0 0 0 0 -1 forward_v I I I I #
coedge $-1 $402 $400 $430 $431 forward $337 $-1 #
coedge $-1 $432 $339 $402 $433 forward $290 $-1 #
coedge $-1 $339 $432 $389 $434 forward $290 $-1 #
edge $-1 $391 -39.376175043761251 $403 39.376175043761251 $340 $435 forward 7 unknown #
coedge $-1 $436 $341 $387 $434 reversed $390 $-1 #
loop $-1 $-1 $345 $382 #
vertex $-1 $388 $437 #
straight-curve $-1 58.471022675252541 39.376175043761251 0 0 0 -1 I I #
point $-1 58.471022675252541 39.376175043761251 6.1048860765123765 #
coedge $-1 $345 $436 $349 $399 reversed $390 $-1 #
vertex $-1 $399 $438 #
straight-curve $-1 -8.6822268662332096 39.376175043761251 51.400325682411292 0.82903756765294845 0 -0.55919291073839883 I I #
straight-curve $-1 42.628172092743775 15.723371633543906 16.791023927547926 0 1 0 I I #
coedge $-1 $350 $349 $439 $440 forward $240 $-1 #
edge $-1 $395 -42.628172092743768 $441 58.471022675252541 $394 $442 forward 7 unknown #
coedge $-1 $385 $351 $350 $401 reversed $337 $-1 #
edge $-1 $443 -58.471022675252541 $353 58.471022675252541 $400 $444 forward 7 unknown #
coedge $-1 $351 $385 $386 $433 reversed $337 $-1 #
vertex $-1 $352 $445 #
straight-curve $-1 58.471022675252541 -39.376175043761251 0 0 0 -1 I I #
point $-1 58.471022675252541 -39.376175043761251 16.791023927547926 #
face $-1 $446 $447 $15 $-1 $448 reversed single #
loop $-1 $-1 $449 $355 #
plane-surface $-1 0 0 -16.791023927547926 0 0 1 1 0 0 forward_v I I I I #
coedge $-1 $358 $450 $451 $452 reversed $307 $-1 #
coedge $-1 $359 $369 $413 $453 reversed $263 $-1 #
vertex $-1 $453 $454 #
straight-curve $-1 -38.478326158491001 23.517311490414372 71.498048803763169 -0.82903756765294845 0 0.55919291073839883 I I #
coedge $-1 $455 $361 $410 $453 forward $356 $-1 #
coedge $-1 $361 $456 $363 $417 forward $356 $-1 #
straight-curve $-1 13.457418284379891 23.517311490414372 16.791023927547926 -1 0 0 I I #
coedge $-1 $450 $363 $457 $458 forward $307 $-1 #
edge $-1 $459 -39.376175043761251 $365 23.517311490414372 $363 $460 forward 7 unknown #
point $-1 58.471022675252541 23.517311490414372 6.104886076512372 #
point $-1 58.471022675252541 23.517311490414372 16.791023927547926 #
point $-1 48.571303350409011 28.04841536279919 8.5150135390501926 #
coedge $-1 $451 $461 $369 $422 forward $462 $-1 #
edge $-1 $463 61.89152453517827 $423 81.001455376262783 $421 $464 forward 7 unknown #
vertex $-1 $452 $465 #
straight-curve $-1 58.471022675252541 15.723371633543906 6.104886076512372 0 -1 0 I I #
point $-1 -58.471022675252541 -39.376175043761251 -16.791023927547926 #
straight-curve $-1 -58.471022675252541 0 -16.791023927547926 0 1 0 I I #
point $-1 -58.471022675252541 39.376175043761251 -16.791023927547926 #
plane-surface $-1 0 39.376175043761251 0 0 -1 0 0 0 -1 forward_v I I I I #
coedge $-1 $466 $439 $436 $467 forward $383 $-1 #
coedge $-1 $439 $466 $385 $431 reversed $383 $-1 #
edge $-1 $443 -16.791023927547926 $468 16.791023927547926 $430 $469 forward 7 unknown #
coedge $-1 $387 $386 $466 $470 forward $290 $-1 #
edge $-1 $403 -58.471022675252541 $468 58.471022675252541 $402 $471 forward 7 unknown #
edge $-1 $472 -58.471022675252541 $391 58.471022675252541 $389 $473 forward 7 unknown #
straight-curve $-1 58.471022675252541 0 -16.791023927547926 0 -1 0 I I #
coedge $-1 $394 $389 $429 $467 reversed $390 $-1 #
point $-1 58.471022675252541 39.376175043761251 -16.791023927547926 #
point $-1 42.628172092743768 39.376175043761251 16.791023927547926 #
coedge $-1 $429 $430 $398 $440 reversed $383 $-1 #
edge $-1 $441 -39.376175043761251 $443 39.376175043761251 $439 $474 forward 7 unknown #
vertex $-1 $399 $475 #
straight-curve $-1 0 39.376175043761251 16.791023927547926 -1 0 0 I I #
vertex $-1 $440 $476 #
straight-curve $-1 0 -39.376175043761251 16.791023927547926 1 0 0 I I #
point $-1 58.471022675252541 -39.376175043761251 -16.791023927547926 #
face $-1 $477 $478 $15 $-1 $479 reversed single #
loop $-1 $-1 $480 $406 #
plane-surface $-1 0 -39.376175043761251 0 0 1 0 0 0 1 forward_v I I I I #
coedge $-1 $481 $482 $450 $483 forward $407 $-1 #
coedge $-1 $409 $416 $449 $483 reversed $307 $-1 #
coedge $-1 $484 $421 $409 $452 forward $462 $-1 #
edge $-1 $423 -6.1048860765123765 $485 16.791023927547926 $409 $486 forward 7 unknown #
edge $-1 $411 7.7939398568704661 $463 23.652803410217345 $413 $487 forward 7 unknown #
point $-1 42.628172092743768 23.517311490414372 16.791023927547926 #
coedge $-1 $488 $413 $461 $489 forward $356 $-1 #
coedge $-1 $414 $488 $490 $491 forward $356 $-1 #
coedge $-1 $490 $492 $416 $458 reversed $447 $-1 #
edge $-1 $459 -16.791023927547926 $493 16.791023927547926 $416 $494 forward 7 unknown #
vertex $-1 $417 $495 #
straight-curve $-1 58.471022675252541 0 16.791023927547926 0 1 0 I I #
coedge $-1 $421 $496 $455 $489 reversed $462 $-1 #
loop $-1 $-1 $421 $477 #
vertex $-1 $489 $497 #
straight-curve $-1 -8.6822268662332096 39.376175043761251 51.400325682411292 0.82903756765294845 0 -0.55919291073839883 I I #
point $-1 58.471022675252541 39.376175043761251 6.1048860765123765 #
coedge $-1 $430 $429 $432 $470 reversed $383 $-1 #
edge $-1 $441 -16.791023927547926 $472 16.791023927547926 $436 $498 forward 7 unknown #
vertex $-1 $470 $499 #
straight-curve $-1 -58.471022675252541 -39.376175043761251 0 0 0 -1 I I #
edge $-1 $468 -39.376175043761251 $472 39.376175043761251 $466 $500 forward 7 unknown #
straight-curve $-1 0 -39.376175043761251 -16.791023927547926 -1 0 0 I I #
vertex $-1 $434 $501 #
straight-curve $-1 0 39.376175043761251 -16.791023927547926 1 0 0 I I #
straight-curve $-1 -58.471022675252541 0 16.791023927547926 0 -1 0 I I #
point $-1 -58.471022675252541 39.376175043761251 16.791023927547926 #
point $-1 -58.471022675252541 -39.376175043761251 16.791023927547926 #
face $-1 $-1 $462 $15 $-1 $502 reversed single #
loop $-1 $-1 $503 $446 #
plane-surface $-1 -58.471022675252541 0 0 1 0 0 0 0 -1 forward_v I I I I #
coedge $-1 $492 $490 $504 $505 forward $447 $-1 #
coedge $-1 $506 $449 $492 $507 forward $407 $-1 #
coedge $-1 $449 $506 $484 $508 forward $407 $-1 #
edge $-1 $485 -39.376175043761251 $493 39.376175043761251 $450 $509 forward 7 unknown #
coedge $-1 $496 $451 $482 $508 reversed $462 $-1 #
vertex $-1 $483 $510 #
straight-curve $-1 58.471022675252541 39.376175043761251 0 0 0 -1 I I #
straight-curve $-1 42.628172092743775 15.723371633543906 16.791023927547926 0 1 0 I I #
coedge $-1 $456 $455 $511 $512 forward $356 $-1 #
edge $-1 $463 -42.628172092743768 $513 58.471022675252541 $461 $514 forward 7 unknown #
coedge $-1 $480 $457 $456 $491 reversed $447 $-1 #
edge $-1 $515 -58.471022675252541 $459 58.471022675252541 $490 $516 forward 7 unknown #
coedge $-1 $457 $480 $481 $507 reversed $447 $-1 #
vertex $-1 $458 $517 #
straight-curve $-1 58.471022675252541 -39.376175043761251 0 0 0 -1 I I #
point $-1 58.471022675252541 -39.376175043761251 16.791023927547926 #
coedge $-1 $461 $484 $503 $518 reversed $462 $-1 #
point $-1 42.628172092743768 39.376175043761251 16.791023927547926 #
straight-curve $-1 -58.471022675252541 39.376175043761251 0 0 0 -1 I I #
point $-1 -58.471022675252541 -39.376175043761251 -16.791023927547926 #
straight-curve $-1 -58.471022675252541 0 -16.791023927547926 0 1 0 I I #
point $-1 -58.471022675252541 39.376175043761251 -16.791023927547926 #
plane-surface $-1 0 39.376175043761251 0 0 -1 0 0 0 -1 forward_v I I I I #
coedge $-1 $519 $511 $496 $518 forward $478 $-1 #
coedge $-1 $511 $519 $480 $505 reversed $478 $-1 #
edge $-1 $515 -16.791023927547926 $520 16.791023927547926 $504 $521 forward 7 unknown #
coedge $-1 $482 $481 $519 $522 forward $407 $-1 #
edge $-1 $493 -58.471022675252541 $520 58.471022675252541 $492 $523 forward 7 unknown #
edge $-1 $524 -58.471022675252541 $485 58.471022675252541 $484 $525 forward 7 unknown #
straight-curve $-1 58.471022675252541 0 -16.791023927547926 0 -1 0 I I #
point $-1 58.471022675252541 39.376175043761251 -16.791023927547926 #
coedge $-1 $503 $504 $488 $512 reversed $478 $-1 #
edge $-1 $513 -39.376175043761251 $515 39.376175043761251 $511 $526 forward 7 unknown #
vertex $-1 $489 $527 #
straight-curve $-1 0 39.376175043761251 16.791023927547926 -1 0 0 I I #
vertex $-1 $512 $528 #
straight-curve $-1 0 -39.376175043761251 16.791023927547926 1 0 0 I I #
point $-1 58.471022675252541 -39.376175043761251 -16.791023927547926 #
edge $-1 $513 -16.791023927547926 $524 16.791023927547926 $496 $529 forward 7 unknown #
coedge $-1 $504 $503 $506 $522 reversed $478 $-1 #
vertex $-1 $522 $530 #
straight-curve $-1 -58.471022675252541 -39.376175043761251 0 0 0 -1 I I #
edge $-1 $520 -39.376175043761251 $524 39.376175043761251 $519 $531 forward 7 unknown #
straight-curve $-1 0 -39.376175043761251 -16.791023927547926 -1 0 0 I I #
vertex $-1 $508 $532 #
straight-curve $-1 0 39.376175043761251 -16.791023927547926 1 0 0 I I #
straight-curve $-1 -58.471022675252541 0 16.791023927547926 0 -1 0 I I #
point $-1 -58.471022675252541 39.376175043761251 16.791023927547926 #
point $-1 -58.471022675252541 -39.376175043761251 16.791023927547926 #
straight-curve $-1 -58.471022675252541 39.376175043761251 0 0 0 -1 I I #
point $-1 -58.471022675252541 -39.376175043761251 -16.791023927547926 #
straight-curve $-1 -58.471022675252541 0 -16.791023927547926 0 1 0 I I #
point $-1 -58.471022675252541 39.376175043761251 -16.791023927547926 #
End-of-ACIS-data 