500 0 7 0           
7 Unknown 11 ACIS 5.0 NT 24 Fri Mar 26 16:24:54 1999 
-1 9.9999999999999995e-007 1e-010 
body $-1 $7 $-1 $8 #
body $-1 $9 $-1 $10 #
body $-1 $11 $-1 $12 #
body $-1 $13 $-1 $14 #
body $-1 $15 $-1 $16 #
body $-1 $17 $-1 $18 #
body $-1 $19 $-1 $20 #
lump $-1 $-1 $21 $0 #
transform $-1 1 0 0 0 1 0 0 0 1 69.034089175084688 40.845503008030015 9.1107398414590826 1 rotate no_reflect no_shear #
lump $-1 $-1 $22 $1 #
transform $-1 1 0 0 0 1 0 0 0 1 69.034089175084688 40.845503008030015 9.1107398414590826 1 rotate no_reflect no_shear #
lump $-1 $-1 $23 $2 #
transform $-1 1 0 0 0 1 0 0 0 1 69.034089175084688 40.845503008030015 9.1107398414590826 1 rotate no_reflect no_shear #
lump $-1 $-1 $24 $3 #
transform $-1 1 0 0 0 1 0 0 0 1 69.034089175084688 40.845503008030015 9.1107398414590826 1 rotate no_reflect no_shear #
lump $-1 $-1 $25 $4 #
transform $-1 1 0 0 0 1 0 0 0 1 69.034089175084688 40.845503008030015 9.1107398414590826 1 rotate no_reflect no_shear #
lump $-1 $-1 $26 $5 #
transform $-1 1 0 0 0 1 0 0 0 1 69.034089175084688 40.845503008030015 9.1107398414590826 1 rotate no_reflect no_shear #
lump $-1 $-1 $27 $6 #
transform $-1 1 0 0 0 1 0 0 0 1 69.034089175084688 40.845503008030015 9.1107398414590826 1 rotate no_reflect no_shear #
shell $-1 $-1 $-1 $28 $-1 $7 #
shell $-1 $-1 $-1 $29 $-1 $9 #
shell $-1 $-1 $-1 $30 $-1 $11 #
shell $-1 $-1 $-1 $31 $-1 $13 #
shell $-1 $-1 $-1 $32 $-1 $15 #
shell $-1 $-1 $-1 $33 $-1 $17 #
shell $-1 $-1 $-1 $34 $-1 $19 #
face $-1 $35 $36 $21 $-1 $37 forward single #
face $-1 $38 $39 $22 $-1 $40 forward single #
face $-1 $41 $42 $23 $-1 $43 forward single #
face $-1 $44 $45 $24 $-1 $46 reversed single #
face $-1 $47 $48 $25 $-1 $49 forward single #
face $-1 $50 $51 $26 $-1 $52 forward single #
face $-1 $53 $54 $27 $-1 $55 forward single #
face $-1 $56 $57 $21 $-1 $58 reversed single #
loop $-1 $-1 $59 $28 #
plane-surface $-1 0 0 9.1107398414590826 0 0 1 1 0 0 forward_v I I I I #
face $-1 $60 $61 $22 $-1 $62 reversed single #
loop $-1 $-1 $63 $29 #
plane-surface $-1 -69.034089175084688 0 0 1 0 0 0 0 -1 forward_v I I I I #
face $-1 $64 $65 $23 $-1 $66 reversed single #
loop $-1 $-1 $67 $30 #
plane-surface $-1 69.034089175084688 0 0 -1 0 0 0 0 1 forward_v I I I I #
face $-1 $68 $69 $24 $-1 $70 reversed single #
loop $-1 $-1 $71 $31 #
plane-surface $-1 -8.7692267571874538 44.732589691579925 160.42117290525249 1 0 0 0 -0.52991927123019833 -0.84804809178421925 forward_v I I I I #
face $-1 $72 $73 $25 $-1 $74 forward single #
loop $-1 $75 $76 $32 #
cone-surface $-1 -6.2033728047436014 32.61201329961164 3.0120309098358833 0 -0.52991927123019833 -0.84804809178421925 1 0 0 1 I I 0 1 1 forward I I I I #
face $-1 $77 $78 $26 $-1 $79 forward single #
loop $-1 $80 $81 $33 #
cone-surface $-1 -2.3545918760778193 32.61201329961164 3.0120309098358833 0 -0.52991927123019833 -0.84804809178421925 1 0 0 1 I I 0 1 1 forward I I I I #
face $-1 $82 $83 $27 $-1 $84 forward single #
loop $-1 $85 $86 $34 #
cone-surface $-1 1.4941890525879558 32.61201329961164 3.0120309098358833 0 -0.52991927123019833 -0.84804809178421925 1 0 0 1 I I 0 1 1 forward I I I I #
face $-1 $87 $88 $21 $-1 $89 reversed single #
loop $-1 $-1 $90 $35 #
plane-surface $-1 0 0 -9.1107398414590826 0 0 1 1 0 0 forward_v I I I I #
coedge $-1 $91 $92 $93 $94 forward $36 $-1 #
face $-1 $95 $96 $22 $-1 $97 forward single #
loop $-1 $-1 $98 $38 #
plane-surface $-1 0 40.845503008030015 0 0 -1 0 0 0 -1 forward_v I I I I #
coedge $-1 $99 $100 $101 $102 forward $39 $-1 #
face $-1 $103 $104 $23 $-1 $105 forward single #
loop $-1 $-1 $106 $41 #
plane-surface $-1 0 40.845503008030015 0 0 -1 0 0 0 -1 forward_v I I I I #
coedge $-1 $107 $108 $109 $110 forward $42 $-1 #
face $-1 $111 $112 $24 $-1 $113 reversed single #
loop $-1 $-1 $114 $44 #
plane-surface $-1 -2.3545918760778193 -28.432398759822881 43.332717719268103 0 0.52991927123019833 0.84804809178421925 1 0 0 forward_v I I I I #
coedge $-1 $115 $116 $117 $118 reversed $45 $-1 #
face $-1 $-1 $119 $25 $-1 $120 forward single #
loop $-1 $121 $122 $47 #
cone-surface $-1 -6.2033728047436014 31.369208917279941 1.0231281804621908 0 -0.52991927123019833 -0.84804809178421925 0.5 0 0 1 I I -0.70710678118654746 0.70710678118654746 0.5 forward I I I I #
loop $-1 $-1 $123 $32 #
coedge $-1 $76 $76 $124 $125 reversed $48 $-1 #
face $-1 $-1 $126 $26 $-1 $127 forward single #
loop $-1 $128 $129 $50 #
cone-surface $-1 -2.3545918760778193 31.369208917279941 1.0231281804621908 0 -0.52991927123019833 -0.84804809178421925 0.5 0 0 1 I I -0.70710678118654746 0.70710678118654746 0.5 forward I I I I #
loop $-1 $-1 $130 $33 #
coedge $-1 $81 $81 $131 $132 reversed $51 $-1 #
face $-1 $-1 $133 $27 $-1 $134 forward single #
loop $-1 $135 $136 $53 #
cone-surface $-1 1.4941890525879558 31.369208917279941 1.0231281804621908 0 -0.52991927123019833 -0.84804809178421925 0.5 0 0 1 I I -0.70710678118654746 0.70710678118654746 0.5 forward I I I I #
loop $-1 $-1 $137 $34 #
coedge $-1 $86 $86 $138 $139 reversed $54 $-1 #
face $-1 $140 $141 $21 $-1 $142 reversed single #
loop $-1 $-1 $143 $56 #
plane-surface $-1 0 -40.845503008030015 0 0 1 0 0 0 1 forward_v I I I I #
coedge $-1 $144 $145 $146 $147 forward $57 $-1 #
coedge $-1 $148 $59 $149 $150 forward $36 $-1 #
coedge $-1 $59 $148 $151 $152 forward $36 $-1 #
coedge $-1 $153 $154 $59 $94 reversed $155 $-1 #
edge $-1 $156 -40.845503008030015 $157 40.845503008030015 $93 $158 forward 7 unknown #
face $-1 $159 $160 $22 $-1 $161 reversed single #
loop $-1 $-1 $101 $60 #
plane-surface $-1 -73.366404873101885 0 -6.1107398414590826 0 0 1 1 0 0 forward_v I I I I #
coedge $-1 $162 $163 $100 $164 forward $61 $-1 #
coedge $-1 $165 $63 $166 $167 reversed $39 $-1 #
coedge $-1 $63 $165 $98 $164 reversed $39 $-1 #
coedge $-1 $168 $169 $63 $102 reversed $96 $-1 #
edge $-1 $170 -40.845503008030015 $171 40.845503008030015 $101 $172 forward 7 unknown #
face $-1 $173 $174 $23 $-1 $175 reversed single #
loop $-1 $-1 $176 $64 #
plane-surface $-1 73.366404873101885 0 -6.1107398414590826 0 0 1 1 0 0 forward_v I I I I #
coedge $-1 $177 $178 $107 $179 forward $65 $-1 #
coedge $-1 $180 $67 $106 $179 reversed $42 $-1 #
coedge $-1 $67 $180 $181 $182 reversed $42 $-1 #
coedge $-1 $183 $184 $67 $110 reversed $104 $-1 #
edge $-1 $185 -40.845503008030015 $186 40.845503008030015 $109 $187 forward 7 unknown #
face $-1 $188 $189 $24 $-1 $190 reversed single #
loop $-1 $-1 $191 $68 #
plane-surface $-1 4.0600430050318153 44.732589691579925 160.42117290525249 -1 0 0 0 0.52991927123019833 0.84804809178421925 forward_v I I I I #
coedge $-1 $192 $193 $194 $195 reversed $69 $-1 #
coedge $-1 $116 $71 $196 $197 reversed $45 $-1 #
coedge $-1 $71 $115 $192 $198 reversed $45 $-1 #
coedge $-1 $194 $199 $71 $118 forward $200 $-1 #
edge $-1 $201 -18.479208162240052 $202 -3.9679182388364289 $117 $203 forward 7 unknown #
loop $-1 $-1 $124 $72 #
plane-surface $-1 -2.3545918760778193 -28.432398759822881 43.332717719268103 0 0.52991927123019833 0.84804809178421925 1 0 0 forward_v I I I I #
loop $-1 $-1 $204 $47 #
coedge $-1 $122 $122 $123 $205 reversed $73 $-1 #
coedge $-1 $123 $123 $122 $205 forward $75 $-1 #
coedge $-1 $124 $124 $76 $125 forward $119 $-1 #
edge $-1 $206 -2.0683976028465556e-015 $206 6.2831853071795987 $124 $207 forward 7 unknown #
loop $-1 $-1 $131 $77 #
plane-surface $-1 -2.3545918760778193 -28.432398759822881 43.332717719268103 0 0.52991927123019833 0.84804809178421925 1 0 0 forward_v I I I I #
loop $-1 $-1 $208 $50 #
coedge $-1 $129 $129 $130 $209 reversed $78 $-1 #
coedge $-1 $130 $130 $129 $209 forward $80 $-1 #
coedge $-1 $131 $131 $81 $132 forward $126 $-1 #
edge $-1 $210 -2.0683976028465556e-015 $210 6.2831853071795987 $131 $211 forward 7 unknown #
loop $-1 $-1 $138 $82 #
plane-surface $-1 -2.3545918760778193 -28.432398759822881 43.332717719268103 0 0.52991927123019833 0.84804809178421925 1 0 0 forward_v I I I I #
loop $-1 $-1 $212 $53 #
coedge $-1 $136 $136 $137 $213 reversed $83 $-1 #
coedge $-1 $137 $137 $136 $213 forward $85 $-1 #
coedge $-1 $138 $138 $86 $139 forward $133 $-1 #
edge $-1 $214 -2.0683976028465556e-015 $214 6.2831853071795987 $138 $215 forward 7 unknown #
face $-1 $216 $217 $21 $-1 $218 reversed single #
loop $-1 $-1 $219 $87 #
plane-surface $-1 -69.034089175084688 0 0 1 0 0 0 0 -1 forward_v I I I I #
coedge $-1 $220 $151 $219 $221 forward $88 $-1 #
coedge $-1 $222 $90 $220 $223 forward $57 $-1 #
coedge $-1 $90 $222 $224 $225 forward $57 $-1 #
coedge $-1 $154 $153 $90 $147 reversed $155 $-1 #
edge $-1 $226 -40.845503008030015 $227 40.845503008030015 $146 $228 forward 7 unknown #
coedge $-1 $92 $91 $229 $230 forward $36 $-1 #
coedge $-1 $231 $232 $91 $150 reversed $217 $-1 #
edge $-1 $157 -69.034089175084688 $233 69.034089175084688 $149 $234 forward 7 unknown #
coedge $-1 $143 $235 $92 $152 reversed $88 $-1 #
edge $-1 $236 -69.034089175084688 $156 69.034089175084688 $151 $237 forward 7 unknown #
coedge $-1 $146 $93 $235 $238 forward $155 $-1 #
coedge $-1 $93 $146 $231 $239 reversed $155 $-1 #
loop $-1 $-1 $154 $216 #
vertex $-1 $94 $240 #
vertex $-1 $94 $241 #
straight-curve $-1 69.034089175084688 0 9.1107398414590826 0 1 0 I I #
face $-1 $242 $243 $22 $-1 $244 reversed single #
loop $-1 $-1 $245 $95 #
plane-surface $-1 -77.698720571119082 0 -7.6107398414590826 1 0 0 0 0 -1 forward_v I I I I #
coedge $-1 $246 $98 $247 $248 reversed $61 $-1 #
coedge $-1 $98 $246 $168 $249 reversed $61 $-1 #
edge $-1 $170 6.1107398414590826 $250 9.1107398414590826 $98 $251 forward 7 unknown #
coedge $-1 $100 $99 $252 $253 reversed $39 $-1 #
coedge $-1 $254 $255 $99 $167 forward $256 $-1 #
edge $-1 $257 -9.1107398414590826 $171 -6.1107398414590826 $166 $258 forward 7 unknown #
coedge $-1 $259 $101 $163 $249 forward $96 $-1 #
coedge $-1 $101 $259 $254 $260 forward $96 $-1 #
vertex $-1 $164 $261 #
vertex $-1 $260 $262 #
straight-curve $-1 -69.034089175084688 0 -6.1107398414590826 0 -1 0 I I #
face $-1 $263 $264 $23 $-1 $265 reversed single #
loop $-1 $-1 $266 $103 #
plane-surface $-1 77.698720571119082 0 -7.6107398414590826 -1 0 0 0 0 1 forward_v I I I I #
coedge $-1 $184 $183 $267 $268 forward $104 $-1 #
coedge $-1 $269 $106 $184 $270 reversed $65 $-1 #
coedge $-1 $106 $269 $271 $272 reversed $65 $-1 #
edge $-1 $273 -9.1107398414590826 $186 -6.1107398414590826 $106 $274 forward 7 unknown #
coedge $-1 $108 $107 $275 $276 reversed $42 $-1 #
coedge $-1 $277 $278 $108 $182 forward $279 $-1 #
edge $-1 $185 6.1107398414590826 $280 9.1107398414590826 $181 $281 forward 7 unknown #
coedge $-1 $176 $109 $278 $282 forward $104 $-1 #
coedge $-1 $109 $176 $177 $270 forward $104 $-1 #
vertex $-1 $182 $283 #
vertex $-1 $270 $284 #
straight-curve $-1 69.034089175084688 0 -6.1107398414590826 0 1 0 I I #
face $-1 $-1 $200 $24 $-1 $285 forward single #
loop $-1 $-1 $286 $111 #
plane-surface $-1 0 40.845503008030015 0 0 -1 0 0 0 -1 forward_v I I I I #
coedge $-1 $287 $288 $289 $290 reversed $112 $-1 #
coedge $-1 $291 $114 $116 $198 forward $69 $-1 #
coedge $-1 $114 $291 $287 $292 forward $69 $-1 #
coedge $-1 $289 $117 $114 $195 forward $200 $-1 #
edge $-1 $202 -7.5919308191485442 $293 5.2373389430707249 $194 $294 forward 7 unknown #
coedge $-1 $295 $296 $115 $197 forward $189 $-1 #
edge $-1 $297 -80.167507107450433 $201 -71.099846611167166 $196 $298 forward 7 unknown #
edge $-1 $202 64.579606245236747 $297 81.691006016060044 $116 $299 forward 7 unknown #
coedge $-1 $117 $289 $295 $300 forward $200 $-1 #
loop $-1 $-1 $289 $188 #
vertex $-1 $197 $301 #
vertex $-1 $118 $302 #
straight-curve $-1 -8.7692267571874538 22.366294845789962 9.110739841459079 0 -1 0 I I #
coedge $-1 $204 $204 $-1 $303 reversed $121 $-1 #
edge $-1 $304 0 $304 6.2831853071796004 $122 $305 forward 7 unknown #
vertex $-1 $125 $306 #
ellipse-curve $-1 -6.2033728047436014 33.589858046328217 4.5769095933174402 0 0.52991927123019833 0.84804809178421925 1 0 0 1 I I #
coedge $-1 $208 $208 $-1 $307 reversed $128 $-1 #
edge $-1 $308 0 $308 6.2831853071796004 $129 $309 forward 7 unknown #
vertex $-1 $132 $310 #
ellipse-curve $-1 -2.3545918760778193 33.589858046328217 4.5769095933174402 0 0.52991927123019833 0.84804809178421925 1 0 0 1 I I #
coedge $-1 $212 $212 $-1 $311 reversed $135 $-1 #
edge $-1 $312 0 $312 6.2831853071796004 $136 $313 forward 7 unknown #
vertex $-1 $139 $314 #
ellipse-curve $-1 1.4941890525879558 33.589858046328217 4.5769095933174402 0 0.52991927123019833 0.84804809178421925 1 0 0 1 I I #
face $-1 $-1 $155 $21 $-1 $315 reversed single #
loop $-1 $-1 $231 $140 #
plane-surface $-1 0 40.845503008030015 0 0 -1 0 0 0 -1 forward_v I I I I #
coedge $-1 $229 $316 $143 $221 reversed $141 $-1 #
coedge $-1 $235 $143 $144 $223 reversed $88 $-1 #
edge $-1 $236 -9.1107398414590826 $317 9.1107398414590826 $219 $318 forward 7 unknown #
coedge $-1 $145 $144 $316 $319 forward $57 $-1 #
edge $-1 $227 -69.034089175084688 $317 69.034089175084688 $220 $320 forward 7 unknown #
coedge $-1 $232 $231 $145 $225 reversed $217 $-1 #
edge $-1 $321 -69.034089175084688 $226 69.034089175084688 $224 $322 forward 7 unknown #
vertex $-1 $147 $323 #
vertex $-1 $238 $324 #
straight-curve $-1 69.034089175084688 0 -9.1107398414590826 0 -1 0 I I #
coedge $-1 $325 $219 $148 $230 reversed $141 $-1 #
edge $-1 $233 -40.845503008030015 $236 40.845503008030015 $229 $326 forward 7 unknown #
coedge $-1 $224 $149 $154 $239 forward $217 $-1 #
coedge $-1 $149 $224 $325 $327 reversed $217 $-1 #
vertex $-1 $150 $328 #
straight-curve $-1 0 40.845503008030015 9.1107398414590826 -1 0 0 I I #
coedge $-1 $151 $220 $153 $238 reversed $88 $-1 #
vertex $-1 $230 $329 #
straight-curve $-1 0 -40.845503008030015 9.1107398414590826 1 0 0 I I #
edge $-1 $156 -9.1107398414590826 $227 9.1107398414590826 $153 $330 forward 7 unknown #
edge $-1 $157 -9.1107398414590826 $226 9.1107398414590826 $154 $331 forward 7 unknown #
point $-1 69.034089175084688 -40.845503008030015 9.1107398414590826 #
point $-1 69.034089175084688 40.845503008030015 9.1107398414590826 #
face $-1 $-1 $256 $22 $-1 $332 reversed single #
loop $-1 $-1 $252 $159 #
plane-surface $-1 0 0 -9.1107398414590826 0 0 1 1 0 0 forward_v I I I I #
coedge $-1 $333 $334 $246 $335 forward $160 $-1 #
coedge $-1 $163 $162 $245 $335 reversed $61 $-1 #
coedge $-1 $252 $336 $162 $248 forward $243 $-1 #
edge $-1 $337 -77.698720571119082 $250 -69.034089175084688 $162 $338 forward 7 unknown #
edge $-1 $170 -4.3323156980171973 $339 4.3323156980171973 $163 $340 forward 7 unknown #
vertex $-1 $164 $341 #
straight-curve $-1 -69.034089175084688 40.845503008030015 0 0 0 -1 I I #
coedge $-1 $342 $247 $165 $253 forward $243 $-1 #
edge $-1 $250 -40.845503008030015 $257 40.845503008030015 $252 $343 forward 7 unknown #
coedge $-1 $344 $166 $169 $260 reversed $256 $-1 #
coedge $-1 $166 $344 $342 $345 reversed $256 $-1 #
loop $-1 $-1 $166 $242 #
vertex $-1 $345 $346 #
straight-curve $-1 -69.034089175084688 -40.845503008030015 0 0 0 1 I I #
coedge $-1 $169 $168 $334 $347 forward $96 $-1 #
edge $-1 $348 -4.3323156980171973 $171 4.3323156980171973 $254 $349 forward 7 unknown #
point $-1 -69.034089175084688 40.845503008030015 -6.1107398414590826 #
point $-1 -69.034089175084688 -40.845503008030015 -6.1107398414590826 #
face $-1 $-1 $279 $23 $-1 $350 reversed single #
loop $-1 $-1 $275 $173 #
plane-surface $-1 0 0 -9.1107398414590826 0 0 1 1 0 0 forward_v I I I I #
coedge $-1 $351 $267 $352 $353 forward $174 $-1 #
coedge $-1 $266 $354 $176 $268 reversed $174 $-1 #
edge $-1 $355 -40.845503008030015 $356 40.845503008030015 $267 $357 forward 7 unknown #
coedge $-1 $178 $177 $354 $358 forward $65 $-1 #
edge $-1 $356 -4.3323156980171973 $186 4.3323156980171973 $177 $359 forward 7 unknown #
coedge $-1 $360 $275 $178 $272 forward $264 $-1 #
edge $-1 $273 -4.3323156980171973 $361 4.3323156980171973 $178 $362 forward 7 unknown #
vertex $-1 $272 $363 #
straight-curve $-1 69.034089175084688 40.845503008030015 0 0 0 1 I I #
coedge $-1 $271 $364 $180 $276 forward $264 $-1 #
edge $-1 $280 -40.845503008030015 $273 40.845503008030015 $275 $365 forward 7 unknown #
coedge $-1 $352 $181 $364 $366 reversed $279 $-1 #
coedge $-1 $181 $352 $183 $282 reversed $279 $-1 #
loop $-1 $-1 $181 $263 #
vertex $-1 $182 $367 #
straight-curve $-1 69.034089175084688 -40.845503008030015 0 0 0 -1 I I #
edge $-1 $185 -4.3323156980171973 $355 4.3323156980171973 $278 $368 forward 7 unknown #
point $-1 69.034089175084688 -40.845503008030015 -6.1107398414590826 #
point $-1 69.034089175084688 40.845503008030015 -6.1107398414590826 #
plane-surface $-1 0 0 9.1107398414590826 0 0 1 1 0 0 forward_v I I I I #
coedge $-1 $296 $295 $288 $369 forward $189 $-1 #
coedge $-1 $288 $191 $193 $292 reversed $112 $-1 #
coedge $-1 $191 $287 $286 $369 reversed $112 $-1 #
coedge $-1 $199 $194 $191 $290 forward $200 $-1 #
edge $-1 $293 3.9679182388364289 $370 18.479208162240052 $289 $371 forward 7 unknown #
coedge $-1 $193 $192 $296 $372 reversed $69 $-1 #
edge $-1 $373 -81.691006016060044 $293 -64.579606245236747 $287 $374 forward 7 unknown #
vertex $-1 $195 $375 #
straight-curve $-1 -1.1772959380389096 26.334213084626398 9.110739841459079 1 0 0 I I #
coedge $-1 $286 $196 $199 $300 reversed $189 $-1 #
coedge $-1 $196 $286 $291 $372 forward $189 $-1 #
vertex $-1 $197 $376 #
straight-curve $-1 -8.7692267571874538 40.845503008030015 80.210586452626245 0 0 1 I I #
straight-curve $-1 -8.7692267571874538 -28.432398759822881 43.332717719268103 0 0.84804809178421925 -0.52991927123019833 I I #
edge $-1 $370 -4.0600430050318153 $201 8.7692267571874538 $295 $377 forward 7 unknown #
point $-1 -8.7692267571874538 40.845503008030015 9.1107398414590826 #
point $-1 -8.7692267571874538 26.334213084626391 9.110739841459079 #
edge $-1 $378 1 $378 0 $204 $-1 forward 7 unknown #
vertex $-1 $205 $379 #
ellipse-curve $-1 -6.2033728047436014 31.634168552895041 1.4471522263543004 0 0.52991927123019833 0.84804809178421925 1 0 0 1 I I #
point $-1 -5.2033728047436014 33.589858046328231 4.5769095933174668 #
edge $-1 $380 1 $380 0 $208 $-1 forward 7 unknown #
vertex $-1 $209 $381 #
ellipse-curve $-1 -2.3545918760778193 31.634168552895041 1.4471522263543004 0 0.52991927123019833 0.84804809178421925 1 0 0 1 I I #
point $-1 -1.3545918760778193 33.589858046328231 4.5769095933174668 #
edge $-1 $382 1 $382 0 $212 $-1 forward 7 unknown #
vertex $-1 $213 $383 #
ellipse-curve $-1 1.4941890525879558 31.634168552895041 1.4471522263543004 0 0.52991927123019833 0.84804809178421925 1 0 0 1 I I #
point $-1 2.4941890525879558 33.589858046328231 4.5769095933174668 #
plane-surface $-1 69.034089175084688 0 0 -1 0 0 0 0 1 forward_v I I I I #
coedge $-1 $219 $325 $222 $319 reversed $141 $-1 #
vertex $-1 $319 $384 #
straight-curve $-1 -69.034089175084688 -40.845503008030015 0 0 0 -1 I I #
edge $-1 $317 -40.845503008030015 $321 40.845503008030015 $316 $385 forward 7 unknown #
straight-curve $-1 0 -40.845503008030015 -9.1107398414590826 -1 0 0 I I #
vertex $-1 $225 $386 #
straight-curve $-1 0 40.845503008030015 -9.1107398414590826 1 0 0 I I #
point $-1 69.034089175084688 40.845503008030015 -9.1107398414590826 #
point $-1 69.034089175084688 -40.845503008030015 -9.1107398414590826 #
coedge $-1 $316 $229 $232 $327 forward $141 $-1 #
straight-curve $-1 -69.034089175084688 0 9.1107398414590826 0 -1 0 I I #
edge $-1 $233 -9.1107398414590826 $321 9.1107398414590826 $232 $387 forward 7 unknown #
point $-1 -69.034089175084688 40.845503008030015 9.1107398414590826 #
point $-1 -69.034089175084688 -40.845503008030015 9.1107398414590826 #
straight-curve $-1 69.034089175084688 -40.845503008030015 0 0 0 -1 I I #
straight-curve $-1 69.034089175084688 40.845503008030015 0 0 0 -1 I I #
plane-surface $-1 0 -40.845503008030015 0 0 1 0 0 0 1 forward_v I I I I #
coedge $-1 $388 $245 $336 $389 reversed $160 $-1 #
coedge $-1 $245 $388 $259 $347 reversed $160 $-1 #
edge $-1 $339 -1.5 $337 1.5 $246 $390 forward 7 unknown #
coedge $-1 $247 $342 $333 $389 forward $243 $-1 #
vertex $-1 $248 $391 #
straight-curve $-1 0 40.845503008030015 -9.1107398414590826 1 0 0 I I #
vertex $-1 $249 $392 #
straight-curve $-1 -73.366404873101885 40.845503008030015 -6.1107398414590826 -1 0 0 I I #
point $-1 -69.034089175084688 40.845503008030015 -9.1107398414590826 #
coedge $-1 $336 $252 $255 $345 forward $243 $-1 #
straight-curve $-1 -69.034089175084688 0 -9.1107398414590826 0 -1 0 I I #
coedge $-1 $255 $254 $388 $393 forward $256 $-1 #
edge $-1 $257 -4.3323156980171973 $394 4.3323156980171973 $255 $395 forward 7 unknown #
point $-1 -69.034089175084688 -40.845503008030015 -9.1107398414590826 #
edge $-1 $339 -40.845503008030015 $348 40.845503008030015 $334 $396 forward 7 unknown #
vertex $-1 $347 $397 #
straight-curve $-1 -73.366404873101885 -40.845503008030015 -6.1107398414590826 1 0 0 I I #
plane-surface $-1 0 -40.845503008030015 0 0 1 0 0 0 1 forward_v I I I I #
coedge $-1 $354 $266 $360 $398 reversed $174 $-1 #
coedge $-1 $278 $277 $266 $353 reversed $279 $-1 #
edge $-1 $355 -1.5 $399 1.5 $266 $400 forward 7 unknown #
coedge $-1 $267 $351 $269 $358 reversed $174 $-1 #
vertex $-1 $268 $401 #
vertex $-1 $268 $402 #
straight-curve $-1 77.698720571119082 0 -6.1107398414590826 0 1 0 I I #
edge $-1 $356 -1.5 $361 1.5 $354 $403 forward 7 unknown #
straight-curve $-1 73.366404873101885 40.845503008030015 -6.1107398414590826 -1 0 0 I I #
coedge $-1 $364 $271 $351 $398 forward $264 $-1 #
vertex $-1 $398 $404 #
straight-curve $-1 73.366404873101885 40.845503008030015 -9.1107398414590826 1 0 0 I I #
point $-1 69.034089175084688 40.845503008030015 -9.1107398414590826 #
coedge $-1 $275 $360 $277 $366 forward $264 $-1 #
straight-curve $-1 69.034089175084688 0 -9.1107398414590826 0 1 0 I I #
edge $-1 $399 -4.3323156980171973 $280 4.3323156980171973 $277 $405 forward 7 unknown #
point $-1 69.034089175084688 -40.845503008030015 -9.1107398414590826 #
straight-curve $-1 73.366404873101885 -40.845503008030015 -6.1107398414590826 1 0 0 I I #
edge $-1 $370 71.099846611167166 $373 80.167507107450433 $286 $406 forward 7 unknown #
vertex $-1 $300 $407 #
straight-curve $-1 4.0600430050318153 22.366294845789962 9.110739841459079 0 1 0 I I #
edge $-1 $373 -5.2373389430707249 $297 7.5919308191485442 $296 $408 forward 7 unknown #
vertex $-1 $372 $409 #
straight-curve $-1 4.0600430050318153 -28.432398759822881 43.332717719268103 0 -0.84804809178421925 0.52991927123019833 I I #
point $-1 4.0600430050318153 26.334213084626391 9.110739841459079 #
point $-1 -8.7692267571874538 40.845503008030015 0.043079345175819128 #
straight-curve $-1 0 40.845503008030015 9.1107398414590826 -1 0 0 I I #
vertex $-1 $303 $410 #
point $-1 -5.2033728047436014 31.634168552895041 1.4471522263543004 #
vertex $-1 $307 $411 #
point $-1 -1.3545918760778193 31.634168552895041 1.4471522263543004 #
vertex $-1 $311 $412 #
point $-1 2.4941890525879558 31.634168552895041 1.4471522263543004 #
point $-1 -69.034089175084688 -40.845503008030015 -9.1107398414590826 #
straight-curve $-1 -69.034089175084688 0 -9.1107398414590826 0 1 0 I I #
point $-1 -69.034089175084688 40.845503008030015 -9.1107398414590826 #
straight-curve $-1 -69.034089175084688 40.845503008030015 0 0 0 -1 I I #
coedge $-1 $334 $333 $344 $393 reversed $160 $-1 #
edge $-1 $394 -40.845503008030015 $337 40.845503008030015 $333 $413 forward 7 unknown #
straight-curve $-1 -77.698720571119082 40.845503008030015 -7.6107398414590826 0 0 -1 I I #
point $-1 -77.698720571119082 40.845503008030015 -9.1107398414590826 #
point $-1 -77.698720571119082 40.845503008030015 -6.1107398414590826 #
edge $-1 $348 -1.5 $394 1.5 $388 $414 forward 7 unknown #
vertex $-1 $389 $415 #
straight-curve $-1 -73.366404873101885 -40.845503008030015 -9.1107398414590826 -1 0 0 I I #
straight-curve $-1 -77.698720571119082 0 -6.1107398414590826 0 -1 0 I I #
point $-1 -77.698720571119082 -40.845503008030015 -6.1107398414590826 #
edge $-1 $361 -40.845503008030015 $399 40.845503008030015 $351 $416 forward 7 unknown #
vertex $-1 $353 $417 #
straight-curve $-1 77.698720571119082 -40.845503008030015 -7.6107398414590826 0 0 -1 I I #
point $-1 77.698720571119082 -40.845503008030015 -6.1107398414590826 #
point $-1 77.698720571119082 40.845503008030015 -6.1107398414590826 #
straight-curve $-1 77.698720571119082 40.845503008030015 -7.6107398414590826 0 0 -1 I I #
point $-1 77.698720571119082 40.845503008030015 -9.1107398414590826 #
straight-curve $-1 73.366404873101885 -40.845503008030015 -9.1107398414590826 -1 0 0 I I #
straight-curve $-1 4.0600430050318153 40.845503008030015 80.210586452626245 0 0 -1 I I #
point $-1 4.0600430050318153 40.845503008030015 9.1107398414590826 #
straight-curve $-1 -1.1772959380389096 40.845503008030015 0.043079345175815575 -1 0 0 I I #
point $-1 4.0600430050318153 40.845503008030015 0.043079345175819128 #
point $-1 -6.2033728047436014 31.104249281664842 0.59910413457008116 #
point $-1 -2.3545918760778193 31.104249281664842 0.59910413457008116 #
point $-1 1.4941890525879558 31.104249281664842 0.59910413457008116 #
straight-curve $-1 -77.698720571119082 0 -9.1107398414590826 0 1 0 I I #
straight-curve $-1 -77.698720571119082 -40.845503008030015 -7.6107398414590826 0 0 -1 I I #
point $-1 -77.698720571119082 -40.845503008030015 -9.1107398414590826 #
straight-curve $-1 77.698720571119082 0 -9.1107398414590826 0 -1 0 I I #
point $-1 77.698720571119082 -40.845503008030015 -9.1107398414590826 #
End-of-ACIS-data 