500 0 14 0           
7 Unknown 11 ACIS 5.0 NT 24 Thu Mar 25 23:04:35 1999 
-1 9.9999999999999995e-007 1e-010 
body $-1 $14 $-1 $15 #
body $-1 $16 $-1 $17 #
body $-1 $18 $-1 $19 #
body $-1 $20 $-1 $21 #
body $-1 $22 $-1 $23 #
body $-1 $24 $-1 $25 #
body $-1 $26 $-1 $27 #
body $-1 $28 $-1 $29 #
body $-1 $30 $-1 $31 #
body $-1 $32 $-1 $33 #
body $-1 $34 $-1 $35 #
body $-1 $36 $-1 $37 #
body $-1 $38 $-1 $39 #
body $-1 $40 $-1 $41 #
lump $-1 $-1 $42 $0 #
transform $-1 1 0 0 0 1 0 0 0 1 42.596514786217838 25.546339030683388 5.8139809580832926 1 rotate no_reflect no_shear #
lump $-1 $-1 $43 $1 #
transform $-1 1 0 0 0 1 0 0 0 1 42.596514786217838 25.546339030683388 5.8139809580832926 1 rotate no_reflect no_shear #
lump $-1 $-1 $44 $2 #
transform $-1 1 0 0 0 1 0 0 0 1 42.596514786217838 25.546339030683388 5.8139809580832926 1 rotate no_reflect no_shear #
lump $-1 $-1 $45 $3 #
transform $-1 1 0 0 0 1 0 0 0 1 42.596514786217838 25.546339030683388 5.8139809580832926 1 rotate no_reflect no_shear #
lump $-1 $-1 $46 $4 #
transform $-1 1 0 0 0 1 0 0 0 1 42.596514786217838 25.546339030683388 5.8139809580832926 1 rotate no_reflect no_shear #
lump $-1 $-1 $47 $5 #
transform $-1 1 0 0 0 1 0 0 0 1 42.596514786217838 25.546339030683388 5.8139809580832926 1 rotate no_reflect no_shear #
lump $-1 $-1 $48 $6 #
transform $-1 1 0 0 0 1 0 0 0 1 42.596514786217838 25.546339030683388 5.8139809580832926 1 rotate no_reflect no_shear #
lump $-1 $-1 $49 $7 #
transform $-1 1 0 0 0 1 0 0 0 1 42.596514786217838 25.546339030683388 5.8139809580832926 1 rotate no_reflect no_shear #
lump $-1 $-1 $50 $8 #
transform $-1 1 0 0 0 1 0 0 0 1 42.596514786217838 25.546339030683388 5.8139809580832926 1 rotate no_reflect no_shear #
lump $-1 $-1 $51 $9 #
transform $-1 1 0 0 0 1 0 0 0 1 42.596514786217838 25.546339030683388 5.8139809580832926 1 rotate no_reflect no_shear #
lump $-1 $-1 $52 $10 #
transform $-1 1 0 0 0 1 0 0 0 1 42.596514786217838 25.546339030683388 5.8139809580832926 1 rotate no_reflect no_shear #
lump $-1 $-1 $53 $11 #
transform $-1 1 0 0 0 1 0 0 0 1 42.596514786217838 25.546339030683388 5.8139809580832926 1 rotate no_reflect no_shear #
lump $-1 $-1 $54 $12 #
transform $-1 1 0 0 0 1 0 0 0 1 42.596514786217838 25.546339030683388 5.8139809580832926 1 rotate no_reflect no_shear #
lump $-1 $-1 $55 $13 #
transform $-1 1 0 0 0 1 0 0 0 1 42.596514786217838 25.546339030683388 5.8139809580832926 1 rotate no_reflect no_shear #
shell $-1 $-1 $-1 $56 $-1 $14 #
shell $-1 $-1 $-1 $57 $-1 $16 #
shell $-1 $-1 $-1 $58 $-1 $18 #
shell $-1 $-1 $-1 $59 $-1 $20 #
shell $-1 $-1 $-1 $60 $-1 $22 #
shell $-1 $-1 $-1 $61 $-1 $24 #
shell $-1 $-1 $-1 $62 $-1 $26 #
shell $-1 $-1 $-1 $63 $-1 $28 #
shell $-1 $-1 $-1 $64 $-1 $30 #
shell $-1 $-1 $-1 $65 $-1 $32 #
shell $-1 $-1 $-1 $66 $-1 $34 #
shell $-1 $-1 $-1 $67 $-1 $36 #
shell $-1 $-1 $-1 $68 $-1 $38 #
shell $-1 $-1 $-1 $69 $-1 $40 #
face $-1 $70 $71 $42 $-1 $72 forward single #
face $-1 $73 $74 $43 $-1 $75 forward single #
face $-1 $76 $77 $44 $-1 $78 reversed single #
face $-1 $79 $80 $45 $-1 $81 forward single #
face $-1 $82 $83 $46 $-1 $84 forward single #
face $-1 $85 $86 $47 $-1 $87 reversed single #
face $-1 $88 $89 $48 $-1 $90 forward single #
face $-1 $91 $92 $49 $-1 $93 forward single #
face $-1 $94 $95 $50 $-1 $96 reversed single #
face $-1 $97 $98 $51 $-1 $99 forward single #
face $-1 $100 $101 $52 $-1 $102 forward single #
face $-1 $103 $104 $53 $-1 $105 reversed single #
face $-1 $106 $107 $54 $-1 $108 forward single #
face $-1 $109 $110 $55 $-1 $111 forward single #
face $-1 $112 $113 $42 $-1 $114 reversed single #
loop $-1 $-1 $115 $56 #
plane-surface $-1 0 0 5.8139809580832926 0 0 1 1 0 0 forward_v I I I I #
face $-1 $116 $117 $43 $-1 $118 reversed single #
loop $-1 $-1 $119 $57 #
plane-surface $-1 -39.045378439950994 0 3.714590096619133 0 0 1 1 0 0 forward_v I I I I #
face $-1 $120 $121 $44 $-1 $122 reversed single #
loop $-1 $-1 $123 $58 #
plane-surface $-1 -31.386118236124616 -14.715240404045126 31.664908106612856 0 0.61566148304635926 0.78801074757464917 1 0 0 forward_v I I I I #
face $-1 $124 $125 $45 $-1 $126 forward single #
loop $-1 $127 $128 $59 #
cone-surface $-1 -33.146742746507272 20.853256535984592 1.5957639735940694 0 -0.61566148304635926 -0.78801074757464917 1 0 0 1 I I 0 1 1 forward I I I I #
face $-1 $129 $130 $46 $-1 $131 forward single #
loop $-1 $132 $133 $60 #
cone-surface $-1 -29.625493725741961 20.853256535984592 1.5957639735940694 0 -0.61566148304635926 -0.78801074757464917 1 0 0 1 I I 0 1 1 forward I I I I #
face $-1 $134 $135 $47 $-1 $136 reversed single #
loop $-1 $-1 $137 $61 #
plane-surface $-1 11.767384061385906 37.734826527732963 98.797931028137086 -1 0 0 0 0.61566148304635926 0.78801074757464917 forward_v I I I I #
face $-1 $138 $139 $48 $-1 $140 forward single #
loop $-1 $141 $142 $62 #
cone-surface $-1 5.8986356934437225 20.853256535984592 1.5957639735940694 0 -0.61566148304635926 -0.78801074757464917 1 0 0 1 I I 0 1 1 forward I I I I #
face $-1 $143 $144 $49 $-1 $145 forward single #
loop $-1 $146 $147 $63 #
cone-surface $-1 9.4198847142090329 20.853256535984592 1.5957639735940694 0 -0.61566148304635926 -0.78801074757464917 1 0 0 1 I I 0 1 1 forward I I I I #
face $-1 $148 $149 $50 $-1 $150 reversed single #
loop $-1 $-1 $151 $64 #
plane-surface $-1 -31.386118236124616 -25.546339030683377 0.20911415854159543 0 -0.61566148304635926 0.78801074757464917 1 0 0 forward_v I I I I #
face $-1 $152 $153 $51 $-1 $154 forward single #
loop $-1 $155 $156 $65 #
cone-surface $-1 -33.146742746507272 -20.853256535984588 1.5957639735940694 0 0.61566148304635926 -0.78801074757464917 1 0 0 1 I I 0 1 1 forward I I I I #
face $-1 $157 $158 $52 $-1 $159 forward single #
loop $-1 $160 $161 $66 #
cone-surface $-1 -29.625493725741961 -20.853256535984588 1.5957639735940694 0 0.61566148304635926 -0.78801074757464917 1 0 0 1 I I 0 1 1 forward I I I I #
face $-1 $162 $163 $53 $-1 $164 reversed single #
loop $-1 $-1 $165 $67 #
plane-surface $-1 3.5511363462668495 -77.996405962461466 67.342137080065825 1 0 0 0 0.61566148304635926 -0.78801074757464917 forward_v I I I I #
face $-1 $166 $167 $54 $-1 $168 forward single #
loop $-1 $169 $170 $68 #
cone-surface $-1 5.8986356934437225 -20.853256535984588 1.5957639735940694 0 0.61566148304635926 -0.78801074757464917 1 0 0 1 I I 0 1 1 forward I I I I #
face $-1 $171 $172 $55 $-1 $173 forward single #
loop $-1 $174 $175 $69 #
cone-surface $-1 9.4198847142090329 -20.853256535984588 1.5957639735940694 0 0.61566148304635926 -0.78801074757464917 1 0 0 1 I I 0 1 1 forward I I I I #
face $-1 $176 $177 $42 $-1 $178 reversed single #
loop $-1 $-1 $179 $70 #
plane-surface $-1 0 0 -5.8139809580832926 0 0 1 1 0 0 forward_v I I I I #
coedge $-1 $180 $181 $182 $183 forward $71 $-1 #
face $-1 $184 $185 $43 $-1 $186 reversed single #
loop $-1 $-1 $187 $73 #
plane-surface $-1 -39.045378439950994 0 0.71459009661913209 0 0 1 1 0 0 forward_v I I I I #
coedge $-1 $188 $189 $190 $191 forward $74 $-1 #
face $-1 $192 $193 $44 $-1 $194 forward single #
loop $-1 $-1 $195 $76 #
plane-surface $-1 -27.27799437856509 37.734826527732963 98.797931028137086 -1 0 0 0 0.61566148304635926 0.78801074757464917 forward_v I I I I #
coedge $-1 $196 $197 $198 $199 reversed $77 $-1 #
face $-1 $-1 $200 $45 $-1 $201 forward single #
loop $-1 $202 $203 $79 #
cone-surface $-1 -33.146742746507272 19.439294407138124 -0.21402498491163602 0 -0.61566148304635926 -0.78801074757464917 0.5 0 0 1 I I -0.70710678118654746 0.70710678118654746 0.5 forward I I I I #
loop $-1 $-1 $204 $59 #
coedge $-1 $128 $128 $205 $206 reversed $80 $-1 #
face $-1 $-1 $207 $46 $-1 $208 forward single #
loop $-1 $209 $210 $82 #
cone-surface $-1 -29.625493725741961 19.439294407138124 -0.21402498491163602 0 -0.61566148304635926 -0.78801074757464917 0.5 0 0 1 I I -0.70710678118654746 0.70710678118654746 0.5 forward I I I I #
loop $-1 $-1 $211 $60 #
coedge $-1 $133 $133 $212 $213 reversed $83 $-1 #
face $-1 $214 $215 $47 $-1 $216 reversed single #
loop $-1 $-1 $217 $85 #
plane-surface $-1 7.6592602038263777 -14.715240404045126 31.664908106612856 0 0.61566148304635926 0.78801074757464917 1 0 0 forward_v I I I I #
coedge $-1 $218 $219 $220 $221 reversed $86 $-1 #
face $-1 $-1 $222 $48 $-1 $223 forward single #
loop $-1 $224 $225 $88 #
cone-surface $-1 5.8986356934437225 19.439294407138124 -0.21402498491163602 0 -0.61566148304635926 -0.78801074757464917 0.5 0 0 1 I I -0.70710678118654746 0.70710678118654746 0.5 forward I I I I #
loop $-1 $-1 $226 $62 #
coedge $-1 $142 $142 $227 $228 reversed $89 $-1 #
face $-1 $-1 $229 $49 $-1 $230 forward single #
loop $-1 $231 $232 $91 #
cone-surface $-1 9.4198847142090329 19.439294407138124 -0.21402498491163602 0 -0.61566148304635926 -0.78801074757464917 0.5 0 0 1 I I -0.70710678118654746 0.70710678118654746 0.5 forward I I I I #
loop $-1 $-1 $233 $63 #
coedge $-1 $147 $147 $234 $235 reversed $92 $-1 #
face $-1 $236 $237 $50 $-1 $238 forward single #
loop $-1 $-1 $239 $94 #
plane-surface $-1 -27.27799437856509 -77.996405962461466 67.342137080065825 -1 0 0 0 -0.61566148304635926 0.78801074757464917 forward_v I I I I #
coedge $-1 $240 $241 $242 $243 reversed $95 $-1 #
face $-1 $-1 $244 $51 $-1 $245 forward single #
loop $-1 $246 $247 $97 #
cone-surface $-1 -33.146742746507272 -19.439294407138121 -0.21402498491163602 0 0.61566148304635926 -0.78801074757464917 0.5 0 0 1 I I -0.70710678118654746 0.70710678118654746 0.5 forward I I I I #
loop $-1 $-1 $248 $65 #
coedge $-1 $156 $156 $249 $250 reversed $98 $-1 #
face $-1 $-1 $251 $52 $-1 $252 forward single #
loop $-1 $253 $254 $100 #
cone-surface $-1 -29.625493725741961 -19.439294407138121 -0.21402498491163602 0 0.61566148304635926 -0.78801074757464917 0.5 0 0 1 I I -0.70710678118654746 0.70710678118654746 0.5 forward I I I I #
loop $-1 $-1 $255 $66 #
coedge $-1 $161 $161 $256 $257 reversed $101 $-1 #
face $-1 $258 $259 $53 $-1 $260 reversed single #
loop $-1 $-1 $261 $103 #
plane-surface $-1 7.6592602038263777 -25.546339030683377 0.20911415854159543 0 -0.61566148304635926 0.78801074757464917 1 0 0 forward_v I I I I #
coedge $-1 $262 $263 $264 $265 reversed $104 $-1 #
face $-1 $-1 $266 $54 $-1 $267 forward single #
loop $-1 $268 $269 $106 #
cone-surface $-1 5.8986356934437225 -19.439294407138121 -0.21402498491163602 0 0.61566148304635926 -0.78801074757464917 0.5 0 0 1 I I -0.70710678118654746 0.70710678118654746 0.5 forward I I I I #
loop $-1 $-1 $270 $68 #
coedge $-1 $170 $170 $271 $272 reversed $107 $-1 #
face $-1 $-1 $273 $55 $-1 $274 forward single #
loop $-1 $275 $276 $109 #
cone-surface $-1 9.4198847142090329 -19.439294407138121 -0.21402498491163602 0 0.61566148304635926 -0.78801074757464917 0.5 0 0 1 I I -0.70710678118654746 0.70710678118654746 0.5 forward I I I I #
loop $-1 $-1 $277 $69 #
coedge $-1 $175 $175 $278 $279 reversed $110 $-1 #
face $-1 $280 $281 $42 $-1 $282 reversed single #
loop $-1 $-1 $283 $112 #
plane-surface $-1 0 -25.546339030683388 0 0 1 0 0 0 1 forward_v I I I I #
coedge $-1 $284 $285 $286 $287 forward $113 $-1 #
coedge $-1 $288 $115 $289 $290 forward $71 $-1 #
coedge $-1 $115 $288 $291 $292 forward $71 $-1 #
coedge $-1 $293 $294 $115 $183 reversed $295 $-1 #
edge $-1 $296 -25.546339030683388 $297 25.546339030683388 $182 $298 forward 7 unknown #
face $-1 $299 $300 $43 $-1 $301 reversed single #
loop $-1 $-1 $302 $116 #
plane-surface $-1 -35.49424209368415 0 2.2145900966191325 -1 0 0 0 0 1 forward_v I I I I #
coedge $-1 $303 $304 $305 $306 forward $117 $-1 #
coedge $-1 $307 $119 $308 $309 reversed $74 $-1 #
coedge $-1 $119 $307 $310 $311 reversed $74 $-1 #
coedge $-1 $302 $312 $119 $191 reversed $185 $-1 #
edge $-1 $313 -25.546339030683388 $314 25.546339030683388 $190 $315 forward 7 unknown #
face $-1 $316 $317 $44 $-1 $318 forward single #
loop $-1 $-1 $319 $120 #
plane-surface $-1 -35.49424209368415 0 2.2145900966191325 -1 0 0 0 0 1 forward_v I I I I #
coedge $-1 $320 $321 $322 $323 reversed $121 $-1 #
coedge $-1 $324 $123 $319 $325 forward $77 $-1 #
coedge $-1 $123 $324 $320 $326 forward $77 $-1 #
coedge $-1 $322 $327 $123 $199 forward $317 $-1 #
edge $-1 $328 -19.801182975621835 $329 -11.584935260502782 $198 $330 forward 7 unknown #
loop $-1 $-1 $205 $124 #
plane-surface $-1 -31.386118236124616 -14.715240404045126 31.664908106612856 0 0.61566148304635926 0.78801074757464917 1 0 0 forward_v I I I I #
loop $-1 $-1 $331 $79 #
coedge $-1 $203 $203 $204 $332 reversed $125 $-1 #
coedge $-1 $204 $204 $203 $332 forward $127 $-1 #
coedge $-1 $205 $205 $128 $206 forward $200 $-1 #
edge $-1 $333 1.2246151792417231e-015 $333 6.2831853071796013 $205 $334 forward 7 unknown #
loop $-1 $-1 $212 $129 #
plane-surface $-1 -31.386118236124616 -14.715240404045126 31.664908106612856 0 0.61566148304635926 0.78801074757464917 1 0 0 forward_v I I I I #
loop $-1 $-1 $335 $82 #
coedge $-1 $210 $210 $211 $336 reversed $130 $-1 #
coedge $-1 $211 $211 $210 $336 forward $132 $-1 #
coedge $-1 $212 $212 $133 $213 forward $207 $-1 #
edge $-1 $337 1.2246151792417231e-015 $337 6.2831853071796013 $212 $338 forward 7 unknown #
face $-1 $339 $340 $47 $-1 $341 reversed single #
loop $-1 $-1 $342 $134 #
plane-surface $-1 3.5511363462668495 37.734826527732963 98.797931028137086 1 0 0 0 -0.61566148304635926 -0.78801074757464917 forward_v I I I I #
coedge $-1 $343 $344 $345 $346 reversed $135 $-1 #
coedge $-1 $219 $137 $347 $348 reversed $86 $-1 #
coedge $-1 $137 $218 $343 $349 reversed $86 $-1 #
coedge $-1 $345 $350 $137 $221 forward $340 $-1 #
edge $-1 $351 43.584984555985251 $352 49.18985135552694 $220 $353 forward 7 unknown #
loop $-1 $-1 $227 $138 #
plane-surface $-1 7.6592602038263777 -14.715240404045126 31.664908106612856 0 0.61566148304635926 0.78801074757464917 1 0 0 forward_v I I I I #
loop $-1 $-1 $354 $88 #
coedge $-1 $225 $225 $226 $355 reversed $139 $-1 #
coedge $-1 $226 $226 $225 $355 forward $141 $-1 #
coedge $-1 $227 $227 $142 $228 forward $222 $-1 #
edge $-1 $356 1.2246151792417231e-015 $356 6.2831853071796013 $227 $357 forward 7 unknown #
loop $-1 $-1 $234 $143 #
plane-surface $-1 7.6592602038263777 -14.715240404045126 31.664908106612856 0 0.61566148304635926 0.78801074757464917 1 0 0 forward_v I I I I #
loop $-1 $-1 $358 $91 #
coedge $-1 $232 $232 $233 $359 reversed $144 $-1 #
coedge $-1 $233 $233 $232 $359 forward $146 $-1 #
coedge $-1 $234 $234 $147 $235 forward $229 $-1 #
edge $-1 $360 1.2246151792417231e-015 $360 6.2831853071796013 $234 $361 forward 7 unknown #
face $-1 $362 $363 $50 $-1 $364 forward single #
loop $-1 $-1 $365 $148 #
plane-surface $-1 0 0 5.8139809580832926 0 0 1 1 0 0 forward_v I I I I #
coedge $-1 $366 $367 $368 $369 reversed $149 $-1 #
coedge $-1 $370 $151 $371 $372 forward $95 $-1 #
coedge $-1 $151 $370 $366 $373 forward $95 $-1 #
coedge $-1 $368 $374 $151 $243 forward $375 $-1 #
edge $-1 $376 -19.801182975621835 $377 -11.584935260502782 $242 $378 forward 7 unknown #
loop $-1 $-1 $249 $152 #
plane-surface $-1 -31.386118236124616 -25.546339030683377 0.20911415854159543 0 -0.61566148304635926 0.78801074757464917 1 0 0 forward_v I I I I #
loop $-1 $-1 $379 $97 #
coedge $-1 $247 $247 $248 $380 reversed $153 $-1 #
coedge $-1 $248 $248 $247 $380 forward $155 $-1 #
coedge $-1 $249 $249 $156 $250 forward $244 $-1 #
edge $-1 $381 -4.6987966115670795e-016 $381 6.2831853071795996 $249 $382 forward 7 unknown #
loop $-1 $-1 $256 $157 #
plane-surface $-1 -31.386118236124616 -25.546339030683377 0.20911415854159543 0 -0.61566148304635926 0.78801074757464917 1 0 0 forward_v I I I I #
loop $-1 $-1 $383 $100 #
coedge $-1 $254 $254 $255 $384 reversed $158 $-1 #
coedge $-1 $255 $255 $254 $384 forward $160 $-1 #
coedge $-1 $256 $256 $161 $257 forward $251 $-1 #
edge $-1 $385 -4.6987966115670795e-016 $385 6.2831853071795996 $256 $386 forward 7 unknown #
face $-1 $387 $388 $53 $-1 $389 forward single #
loop $-1 $-1 $390 $162 #
plane-surface $-1 11.767384061385906 -77.996405962461466 67.342137080065825 -1 0 0 0 -0.61566148304635926 0.78801074757464917 forward_v I I I I #
coedge $-1 $391 $392 $393 $394 reversed $163 $-1 #
coedge $-1 $263 $165 $395 $396 reversed $104 $-1 #
coedge $-1 $165 $262 $391 $397 reversed $104 $-1 #
coedge $-1 $393 $398 $165 $265 forward $399 $-1 #
edge $-1 $400 27.857087581949621 $401 33.461954381491324 $264 $402 forward 7 unknown #
loop $-1 $-1 $271 $166 #
plane-surface $-1 7.6592602038263777 -25.546339030683377 0.20911415854159543 0 -0.61566148304635926 0.78801074757464917 1 0 0 forward_v I I I I #
loop $-1 $-1 $403 $106 #
coedge $-1 $269 $269 $270 $404 reversed $167 $-1 #
coedge $-1 $270 $270 $269 $404 forward $169 $-1 #
coedge $-1 $271 $271 $170 $272 forward $266 $-1 #
edge $-1 $405 -4.6987966115670795e-016 $405 6.2831853071795996 $271 $406 forward 7 unknown #
loop $-1 $-1 $278 $171 #
plane-surface $-1 7.6592602038263777 -25.546339030683377 0.20911415854159543 0 -0.61566148304635926 0.78801074757464917 1 0 0 forward_v I I I I #
loop $-1 $-1 $407 $109 #
coedge $-1 $276 $276 $277 $408 reversed $172 $-1 #
coedge $-1 $277 $277 $276 $408 forward $174 $-1 #
coedge $-1 $278 $278 $175 $279 forward $273 $-1 #
edge $-1 $409 -4.6987966115670795e-016 $409 6.2831853071795996 $278 $410 forward 7 unknown #
face $-1 $411 $412 $42 $-1 $413 reversed single #
loop $-1 $-1 $414 $176 #
plane-surface $-1 -42.596514786217838 0 0 1 0 0 0 0 -1 forward_v I I I I #
coedge $-1 $415 $291 $416 $417 forward $177 $-1 #
coedge $-1 $418 $179 $415 $419 forward $113 $-1 #
coedge $-1 $179 $418 $420 $421 forward $113 $-1 #
coedge $-1 $294 $293 $179 $287 reversed $295 $-1 #
edge $-1 $422 -25.546339030683388 $423 25.546339030683388 $286 $424 forward 7 unknown #
coedge $-1 $181 $180 $425 $426 forward $71 $-1 #
coedge $-1 $427 $428 $180 $290 reversed $412 $-1 #
edge $-1 $297 -42.596514786217838 $429 42.596514786217838 $289 $430 forward 7 unknown #
coedge $-1 $283 $431 $181 $292 reversed $177 $-1 #
edge $-1 $432 -42.596514786217838 $296 42.596514786217838 $291 $433 forward 7 unknown #
coedge $-1 $286 $182 $431 $434 forward $295 $-1 #
coedge $-1 $182 $286 $427 $435 reversed $295 $-1 #
loop $-1 $-1 $293 $411 #
vertex $-1 $183 $436 #
vertex $-1 $183 $437 #
straight-curve $-1 42.596514786217838 0 5.8139809580832926 0 1 0 I I #
face $-1 $438 $439 $43 $-1 $440 reversed single #
loop $-1 $-1 $441 $184 #
plane-surface $-1 0 -25.546339030683388 0 0 1 0 0 0 1 forward_v I I I I #
coedge $-1 $305 $190 $442 $443 reversed $185 $-1 #
coedge $-1 $444 $187 $441 $445 reversed $117 $-1 #
coedge $-1 $187 $444 $446 $447 reversed $117 $-1 #
coedge $-1 $312 $302 $187 $306 reversed $185 $-1 #
edge $-1 $448 -25.546339030683388 $449 25.546339030683388 $305 $450 forward 7 unknown #
coedge $-1 $189 $188 $451 $452 reversed $74 $-1 #
coedge $-1 $453 $454 $188 $309 forward $455 $-1 #
edge $-1 $456 -23.073825566242341 $314 -15.971552873708653 $308 $457 forward 7 unknown #
coedge $-1 $458 $442 $189 $311 forward $300 $-1 #
edge $-1 $313 15.971552873708653 $459 23.073825566242341 $310 $460 forward 7 unknown #
coedge $-1 $190 $305 $453 $461 reversed $185 $-1 #
vertex $-1 $311 $462 #
vertex $-1 $309 $463 #
straight-curve $-1 -35.49424209368415 0 3.714590096619133 0 1 0 I I #
face $-1 $-1 $464 $44 $-1 $465 reversed single #
loop $-1 $-1 $322 $192 #
plane-surface $-1 0 0 5.8139809580832926 0 0 1 1 0 0 forward_v I I I I #
coedge $-1 $466 $467 $196 $325 reversed $193 $-1 #
coedge $-1 $321 $195 $197 $326 reversed $121 $-1 #
coedge $-1 $195 $320 $468 $469 reversed $121 $-1 #
coedge $-1 $470 $198 $195 $323 forward $317 $-1 #
edge $-1 $329 -0.49497644793412832 $471 6.6789257668169064 $322 $472 forward 7 unknown #
coedge $-1 $197 $196 $473 $474 reversed $77 $-1 #
edge $-1 $328 41.988865408010241 $475 51.092678061366783 $319 $476 forward 7 unknown #
edge $-1 $477 -51.092678061366783 $329 -41.988865408010241 $320 $478 forward 7 unknown #
coedge $-1 $198 $470 $466 $479 forward $317 $-1 #
vertex $-1 $479 $480 #
vertex $-1 $199 $481 #
straight-curve $-1 -15.693059118062308 18.37243681593236 5.8139809580832882 1 0 0 I I #
coedge $-1 $331 $331 $-1 $482 reversed $202 $-1 #
edge $-1 $483 0 $483 6.2831853071796004 $203 $484 forward 7 unknown #
vertex $-1 $206 $485 #
ellipse-curve $-1 -33.146742746507272 21.959387923307876 3.0115475583124431 0 0.61566148304635926 0.78801074757464917 1 0 0 1 I I #
coedge $-1 $335 $335 $-1 $486 reversed $209 $-1 #
edge $-1 $487 0 $487 6.2831853071796004 $210 $488 forward 7 unknown #
vertex $-1 $213 $489 #
ellipse-curve $-1 -29.625493725741961 21.959387923307876 3.0115475583124431 0 0.61566148304635926 0.78801074757464917 1 0 0 1 I I #
face $-1 $-1 $490 $47 $-1 $491 forward single #
loop $-1 $-1 $220 $214 #
plane-surface $-1 0 25.546339030683388 0 0 -1 0 0 0 -1 forward_v I I I I #
coedge $-1 $492 $493 $494 $495 reversed $215 $-1 #
coedge $-1 $496 $217 $219 $349 forward $135 $-1 #
coedge $-1 $217 $496 $492 $497 forward $135 $-1 #
coedge $-1 $494 $220 $217 $346 forward $340 $-1 #
edge $-1 $352 -7.9377539594727171 $498 0.27849375564633938 $345 $499 forward 7 unknown #
coedge $-1 $500 $501 $218 $348 forward $490 $-1 #
edge $-1 $502 -0.49497644793412832 $351 6.6789257668169064 $347 $503 forward 7 unknown #
edge $-1 $352 -51.092678061366783 $502 -41.988865408010241 $219 $504 forward 7 unknown #
coedge $-1 $220 $494 $500 $505 reversed $340 $-1 #
vertex $-1 $505 $506 #
vertex $-1 $221 $507 #
straight-curve $-1 11.767384061385906 25.546339030683388 49.398965514068543 0 0 -1 I I #
coedge $-1 $354 $354 $-1 $508 reversed $224 $-1 #
edge $-1 $509 0 $509 6.2831853071796004 $225 $510 forward 7 unknown #
vertex $-1 $228 $511 #
ellipse-curve $-1 5.8986356934437225 21.959387923307876 3.0115475583124431 0 0.61566148304635926 0.78801074757464917 1 0 0 1 I I #
coedge $-1 $358 $358 $-1 $512 reversed $231 $-1 #
edge $-1 $513 0 $513 6.2831853071796004 $232 $514 forward 7 unknown #
vertex $-1 $235 $515 #
ellipse-curve $-1 9.4198847142090329 21.959387923307876 3.0115475583124431 0 0.61566148304635926 0.78801074757464917 1 0 0 1 I I #
face $-1 $-1 $375 $50 $-1 $516 reversed single #
loop $-1 $-1 $371 $236 #
plane-surface $-1 -35.49424209368415 0 2.2145900966191325 -1 0 0 0 0 1 forward_v I I I I #
coedge $-1 $517 $518 $367 $519 forward $237 $-1 #
coedge $-1 $367 $239 $241 $373 reversed $149 $-1 #
coedge $-1 $239 $366 $365 $519 reversed $149 $-1 #
coedge $-1 $520 $242 $239 $369 forward $375 $-1 #
edge $-1 $377 -33.461954381491324 $521 -27.857087581949621 $368 $522 forward 7 unknown #
coedge $-1 $241 $240 $517 $523 reversed $95 $-1 #
coedge $-1 $524 $525 $240 $372 reversed $363 $-1 #
edge $-1 $376 -1.3525141339747834e-014 $526 9.10381265335654 $371 $527 forward 7 unknown #
edge $-1 $528 -9.10381265335654 $377 1.3525141339747834e-014 $366 $529 forward 7 unknown #
coedge $-1 $242 $520 $524 $530 forward $375 $-1 #
loop $-1 $-1 $368 $362 #
vertex $-1 $243 $531 #
vertex $-1 $243 $532 #
straight-curve $-1 -15.693059118062308 -25.546339030683388 0.20911415854158916 1 0 0 I I #
coedge $-1 $379 $379 $-1 $533 reversed $246 $-1 #
edge $-1 $534 0 $534 6.2831853071796004 $247 $535 forward 7 unknown #
vertex $-1 $250 $536 #
ellipse-curve $-1 -33.146742746507272 -21.959387923307869 3.0115475583124374 0 -0.61566148304635926 0.78801074757464917 1 0 0 1 I I #
coedge $-1 $383 $383 $-1 $537 reversed $253 $-1 #
edge $-1 $538 0 $538 6.2831853071796004 $254 $539 forward 7 unknown #
vertex $-1 $257 $540 #
ellipse-curve $-1 -29.625493725741961 -21.959387923307869 3.0115475583124374 0 -0.61566148304635926 0.78801074757464917 1 0 0 1 I I #
face $-1 $-1 $399 $53 $-1 $541 reversed single #
loop $-1 $-1 $542 $258 #
plane-surface $-1 0 0 5.8139809580832926 0 0 1 1 0 0 forward_v I I I I #
coedge $-1 $543 $544 $545 $546 reversed $259 $-1 #
coedge $-1 $547 $261 $263 $397 forward $163 $-1 #
coedge $-1 $261 $547 $543 $548 forward $163 $-1 #
coedge $-1 $545 $264 $261 $394 forward $399 $-1 #
edge $-1 $401 -0.27849375564633938 $549 7.9377539594727171 $393 $550 forward 7 unknown #
coedge $-1 $551 $552 $262 $396 forward $388 $-1 #
edge $-1 $553 -20.625766165298394 $400 -13.451863950547345 $395 $554 forward 7 unknown #
edge $-1 $401 -1.3525141339747834e-014 $553 9.10381265335654 $263 $555 forward 7 unknown #
coedge $-1 $264 $545 $551 $556 reversed $399 $-1 #
loop $-1 $-1 $545 $387 #
vertex $-1 $556 $557 #
vertex $-1 $265 $558 #
straight-curve $-1 3.5511363462668495 -25.546339030683388 33.671068540032913 0 0 -1 I I #
coedge $-1 $403 $403 $-1 $559 reversed $268 $-1 #
edge $-1 $560 0 $560 6.2831853071796004 $269 $561 forward 7 unknown #
vertex $-1 $272 $562 #
ellipse-curve $-1 5.8986356934437225 -21.959387923307869 3.0115475583124374 0 -0.61566148304635926 0.78801074757464917 1 0 0 1 I I #
coedge $-1 $407 $407 $-1 $563 reversed $275 $-1 #
edge $-1 $564 0 $564 6.2831853071796004 $276 $565 forward 7 unknown #
vertex $-1 $279 $566 #
ellipse-curve $-1 9.4198847142090329 -21.959387923307869 3.0115475583124374 0 -0.61566148304635926 0.78801074757464917 1 0 0 1 I I #
face $-1 $-1 $295 $42 $-1 $567 reversed single #
loop $-1 $-1 $427 $280 #
plane-surface $-1 0 25.546339030683388 0 0 -1 0 0 0 -1 forward_v I I I I #
coedge $-1 $568 $425 $428 $569 forward $281 $-1 #
coedge $-1 $431 $283 $284 $419 reversed $177 $-1 #
coedge $-1 $425 $568 $283 $417 reversed $281 $-1 #
edge $-1 $432 -5.8139809580832926 $570 5.8139809580832926 $416 $571 forward 7 unknown #
coedge $-1 $285 $284 $568 $572 forward $113 $-1 #
edge $-1 $423 -42.596514786217838 $570 42.596514786217838 $415 $573 forward 7 unknown #
coedge $-1 $428 $427 $285 $421 reversed $412 $-1 #
edge $-1 $574 -42.596514786217838 $422 42.596514786217838 $420 $575 forward 7 unknown #
vertex $-1 $287 $576 #
vertex $-1 $434 $577 #
straight-curve $-1 42.596514786217838 0 -5.8139809580832926 0 -1 0 I I #
coedge $-1 $414 $416 $288 $426 reversed $281 $-1 #
edge $-1 $429 -25.546339030683388 $432 25.546339030683388 $425 $578 forward 7 unknown #
coedge $-1 $420 $289 $294 $435 forward $412 $-1 #
coedge $-1 $289 $420 $414 $569 reversed $412 $-1 #
vertex $-1 $290 $579 #
straight-curve $-1 0 25.546339030683388 5.8139809580832926 -1 0 0 I I #
coedge $-1 $291 $415 $293 $434 reversed $177 $-1 #
vertex $-1 $426 $580 #
straight-curve $-1 0 -25.546339030683388 5.8139809580832926 1 0 0 I I #
edge $-1 $296 -5.8139809580832926 $423 5.8139809580832926 $293 $581 forward 7 unknown #
edge $-1 $297 -5.8139809580832926 $422 5.8139809580832926 $294 $582 forward 7 unknown #
point $-1 42.596514786217838 -25.546339030683388 5.8139809580832926 #
point $-1 42.596514786217838 25.546339030683388 5.8139809580832926 #
face $-1 $-1 $455 $43 $-1 $583 reversed single #
loop $-1 $-1 $584 $299 #
plane-surface $-1 -42.596514786217838 0 0 1 0 0 0 0 -1 forward_v I I I I #
coedge $-1 $442 $458 $303 $445 forward $300 $-1 #
coedge $-1 $310 $441 $302 $443 forward $300 $-1 #
edge $-1 $449 -0.39270495169043418 $313 2.6072950483095667 $442 $585 forward 7 unknown #
coedge $-1 $304 $303 $584 $586 reversed $117 $-1 #
edge $-1 $587 -23.073825566242341 $449 -15.971552873708653 $441 $588 forward 7 unknown #
coedge $-1 $454 $453 $304 $447 forward $455 $-1 #
edge $-1 $448 15.971552873708653 $589 23.073825566242341 $446 $590 forward 7 unknown #
vertex $-1 $447 $591 #
vertex $-1 $445 $592 #
straight-curve $-1 -35.49424209368415 0 0.71459009661913209 0 -1 0 I I #
coedge $-1 $593 $594 $307 $452 forward $439 $-1 #
edge $-1 $459 -25.546339030683388 $456 25.546339030683388 $451 $595 forward 7 unknown #
coedge $-1 $446 $308 $312 $461 forward $455 $-1 #
coedge $-1 $308 $446 $593 $596 reversed $455 $-1 #
loop $-1 $-1 $446 $438 #
vertex $-1 $596 $597 #
straight-curve $-1 -19.522689219975497 25.546339030683388 3.714590096619133 1 0 0 I I #
coedge $-1 $441 $310 $594 $598 forward $300 $-1 #
vertex $-1 $598 $599 #
straight-curve $-1 -19.522689219975497 -25.546339030683388 3.714590096619133 -1 0 0 I I #
edge $-1 $314 -2.6072950483095667 $448 0.39270495169043418 $453 $600 forward 7 unknown #
point $-1 -35.49424209368415 -25.546339030683388 3.714590096619133 #
point $-1 -35.49424209368415 25.546339030683388 3.714590096619133 #
loop $-1 $-1 $601 $316 #
plane-surface $-1 0 25.546339030683388 0 0 -1 0 0 0 -1 forward_v I I I I #
coedge $-1 $467 $319 $327 $479 reversed $193 $-1 #
coedge $-1 $319 $466 $601 $602 reversed $193 $-1 #
coedge $-1 $473 $603 $321 $469 forward $464 $-1 #
edge $-1 $471 43.584984555985251 $477 49.18985135552694 $468 $604 forward 7 unknown #
coedge $-1 $327 $322 $603 $605 forward $317 $-1 #
vertex $-1 $605 $606 #
straight-curve $-1 -27.27799437856509 18.867413263866482 5.8139809580832917 0 1 0 I I #
coedge $-1 $601 $468 $324 $474 forward $464 $-1 #
edge $-1 $477 11.584935260502782 $475 19.801182975621835 $473 $607 forward 7 unknown #
vertex $-1 $602 $608 #
straight-curve $-1 -35.494242093684143 -14.715240404045126 31.664908106612856 0 0.78801074757464917 -0.61566148304635926 I I #
vertex $-1 $474 $609 #
straight-curve $-1 -27.27799437856509 -14.715240404045126 31.664908106612856 0 -0.78801074757464917 0.61566148304635926 I I #
edge $-1 $610 -6.6789257668169064 $328 0.49497644793412832 $327 $611 forward 7 unknown #
point $-1 -35.494242093684143 18.372436815932353 5.8139809580832953 #
point $-1 -27.27799437856509 18.372436815932353 5.8139809580832953 #
edge $-1 $612 1 $612 0 $331 $-1 forward 7 unknown #
vertex $-1 $332 $613 #
ellipse-curve $-1 -33.146742746507272 19.747125148661304 0.17998038887568857 0 0.61566148304635926 0.78801074757464917 1 0 0 1 I I #
point $-1 -32.146742746507272 21.959387923307883 3.0115475583124502 #
edge $-1 $614 1 $614 0 $335 $-1 forward 7 unknown #
vertex $-1 $336 $615 #
ellipse-curve $-1 -29.625493725741961 19.747125148661304 0.17998038887568857 0 0.61566148304635926 0.78801074757464917 1 0 0 1 I I #
point $-1 -28.625493725741961 21.959387923307883 3.0115475583124502 #
loop $-1 $-1 $347 $339 #
plane-surface $-1 0 0 5.8139809580832926 0 0 1 1 0 0 forward_v I I I I #
coedge $-1 $493 $342 $344 $497 reversed $215 $-1 #
coedge $-1 $342 $492 $616 $617 reversed $215 $-1 #
coedge $-1 $350 $345 $342 $495 forward $340 $-1 #
edge $-1 $498 -49.18985135552694 $618 -43.584984555985251 $494 $619 forward 7 unknown #
coedge $-1 $344 $343 $501 $620 reversed $135 $-1 #
edge $-1 $621 41.988865408010241 $498 51.092678061366783 $492 $622 forward 7 unknown #
vertex $-1 $346 $623 #
straight-curve $-1 3.8296301019131889 25.546339030683392 0.20911415854159721 -1 0 0 I I #
coedge $-1 $616 $347 $350 $505 forward $490 $-1 #
coedge $-1 $347 $616 $496 $620 forward $490 $-1 #
vertex $-1 $348 $624 #
straight-curve $-1 11.767384061385906 18.867413263866482 5.8139809580832917 0 1 0 I I #
straight-curve $-1 11.767384061385906 -14.715240404045126 31.664908106612856 0 -0.78801074757464917 0.61566148304635926 I I #
edge $-1 $351 -11.767384061385906 $618 -3.5511363462668495 $350 $625 forward 7 unknown #
point $-1 11.767384061385906 25.546339030683388 5.8139809580832926 #
point $-1 11.767384061385906 25.546339030683392 0.20911415854159898 #
edge $-1 $626 1 $626 0 $354 $-1 forward 7 unknown #
vertex $-1 $355 $627 #
ellipse-curve $-1 5.8986356934437225 19.747125148661304 0.17998038887568857 0 0.61566148304635926 0.78801074757464917 1 0 0 1 I I #
point $-1 6.8986356934437225 21.959387923307883 3.0115475583124502 #
edge $-1 $628 1 $628 0 $358 $-1 forward 7 unknown #
vertex $-1 $359 $629 #
ellipse-curve $-1 9.4198847142090329 19.747125148661304 0.17998038887568857 0 0.61566148304635926 0.78801074757464917 1 0 0 1 I I #
point $-1 10.419884714209033 21.959387923307883 3.0115475583124502 #
plane-surface $-1 0 -25.546339030683388 0 0 1 0 0 0 1 forward_v I I I I #
coedge $-1 $630 $365 $370 $523 forward $237 $-1 #
coedge $-1 $365 $630 $520 $631 forward $237 $-1 #
edge $-1 $521 13.451863950547345 $528 20.625766165298394 $365 $632 forward 7 unknown #
coedge $-1 $374 $368 $518 $631 reversed $375 $-1 #
vertex $-1 $519 $633 #
straight-curve $-1 -27.27799437856509 -25.546339030683388 33.671068540032913 0 0 1 I I #
edge $-1 $528 11.584935260502782 $526 19.801182975621835 $517 $634 forward 7 unknown #
coedge $-1 $525 $371 $374 $530 reversed $363 $-1 #
coedge $-1 $371 $524 $630 $635 reversed $363 $-1 #
vertex $-1 $635 $636 #
straight-curve $-1 -35.494242093684143 -25.546339030683377 0.20911415854159543 0 0.78801074757464917 0.61566148304635926 I I #
vertex $-1 $523 $637 #
straight-curve $-1 -27.27799437856509 -25.546339030683377 0.20911415854159543 0 -0.78801074757464917 -0.61566148304635926 I I #
edge $-1 $638 27.857087581949621 $376 33.461954381491324 $374 $639 forward 7 unknown #
point $-1 -35.494242093684143 -25.546339030683388 0.2091141585415871 #
point $-1 -27.27799437856509 -25.546339030683388 0.2091141585415871 #
edge $-1 $640 1 $640 0 $379 $-1 forward 7 unknown #
vertex $-1 $380 $641 #
ellipse-curve $-1 -33.146742746507272 -19.747125148661301 0.17998038887568857 0 -0.61566148304635926 0.78801074757464917 1 0 0 1 I I #
point $-1 -32.146742746507272 -21.959387923307879 3.0115475583124502 #
edge $-1 $642 1 $642 0 $383 $-1 forward 7 unknown #
vertex $-1 $384 $643 #
ellipse-curve $-1 -29.625493725741961 -19.747125148661301 0.17998038887568857 0 -0.61566148304635926 0.78801074757464917 1 0 0 1 I I #
point $-1 -28.625493725741961 -21.959387923307879 3.0115475583124502 #
plane-surface $-1 0 -25.546339030683388 0 0 1 0 0 0 1 forward_v I I I I #
coedge $-1 $552 $551 $544 $644 forward $388 $-1 #
coedge $-1 $544 $390 $392 $548 reversed $259 $-1 #
coedge $-1 $390 $543 $542 $644 reversed $259 $-1 #
coedge $-1 $398 $393 $390 $546 forward $399 $-1 #
edge $-1 $549 -33.461954381491324 $645 -27.857087581949621 $545 $646 forward 7 unknown #
coedge $-1 $392 $391 $552 $647 reversed $163 $-1 #
edge $-1 $648 -9.10381265335654 $549 1.3525141339747834e-014 $543 $649 forward 7 unknown #
vertex $-1 $394 $650 #
straight-curve $-1 3.8296301019131889 -25.546339030683388 0.20911415854158916 1 0 0 I I #
coedge $-1 $542 $395 $398 $556 forward $388 $-1 #
coedge $-1 $395 $542 $547 $647 forward $388 $-1 #
vertex $-1 $396 $651 #
straight-curve $-1 3.5511363462668495 -38.998202981230733 5.8139809580832917 0 -1 0 I I #
straight-curve $-1 3.5511363462668495 -25.546339030683377 0.20911415854159543 0 0.78801074757464917 0.61566148304635926 I I #
edge $-1 $400 3.5511363462668495 $645 11.767384061385906 $398 $652 forward 7 unknown #
point $-1 3.5511363462668495 -25.546339030683388 5.8139809580832926 #
point $-1 3.5511363462668495 -25.546339030683388 0.2091141585415871 #
edge $-1 $653 1 $653 0 $403 $-1 forward 7 unknown #
vertex $-1 $404 $654 #
ellipse-curve $-1 5.8986356934437225 -19.747125148661301 0.17998038887568857 0 -0.61566148304635926 0.78801074757464917 1 0 0 1 I I #
point $-1 6.8986356934437225 -21.959387923307879 3.0115475583124502 #
edge $-1 $655 1 $655 0 $407 $-1 forward 7 unknown #
vertex $-1 $408 $656 #
ellipse-curve $-1 9.4198847142090329 -19.747125148661301 0.17998038887568857 0 -0.61566148304635926 0.78801074757464917 1 0 0 1 I I #
point $-1 10.419884714209033 -21.959387923307879 3.0115475583124502 #
plane-surface $-1 42.596514786217838 0 0 -1 0 0 0 0 1 forward_v I I I I #
coedge $-1 $416 $414 $418 $572 reversed $281 $-1 #
edge $-1 $429 -5.8139809580832926 $574 5.8139809580832926 $428 $657 forward 7 unknown #
vertex $-1 $572 $658 #
straight-curve $-1 -42.596514786217838 -25.546339030683388 0 0 0 -1 I I #
edge $-1 $570 -25.546339030683388 $574 25.546339030683388 $568 $659 forward 7 unknown #
straight-curve $-1 0 -25.546339030683388 -5.8139809580832926 -1 0 0 I I #
vertex $-1 $421 $660 #
straight-curve $-1 0 25.546339030683388 -5.8139809580832926 1 0 0 I I #
point $-1 42.596514786217838 25.546339030683388 -5.8139809580832926 #
point $-1 42.596514786217838 -25.546339030683388 -5.8139809580832926 #
straight-curve $-1 -42.596514786217838 0 5.8139809580832926 0 -1 0 I I #
point $-1 -42.596514786217838 25.546339030683388 5.8139809580832926 #
point $-1 -42.596514786217838 -25.546339030683388 5.8139809580832926 #
straight-curve $-1 42.596514786217838 -25.546339030683388 0 0 0 -1 I I #
straight-curve $-1 42.596514786217838 25.546339030683388 0 0 0 -1 I I #
plane-surface $-1 0 25.546339030683388 0 0 -1 0 0 0 -1 forward_v I I I I #
coedge $-1 $594 $593 $444 $586 forward $439 $-1 #
straight-curve $-1 -35.49424209368415 -25.546339030683388 1.1072950483095663 0 0 1 I I #
edge $-1 $589 -25.546339030683388 $587 25.546339030683388 $584 $661 forward 7 unknown #
vertex $-1 $445 $662 #
straight-curve $-1 -19.522689219975497 -25.546339030683388 0.71459009661913209 1 0 0 I I #
vertex $-1 $447 $663 #
straight-curve $-1 -19.522689219975497 25.546339030683388 0.71459009661913209 -1 0 0 I I #
point $-1 -35.49424209368415 25.546339030683388 0.71459009661913209 #
point $-1 -35.49424209368415 -25.546339030683388 0.71459009661913209 #
coedge $-1 $584 $451 $454 $596 forward $439 $-1 #
coedge $-1 $451 $584 $458 $598 reversed $439 $-1 #
straight-curve $-1 -42.596514786217838 0 3.714590096619133 0 1 0 I I #
edge $-1 $456 -3.714590096619133 $589 -0.71459009661913209 $454 $664 forward 7 unknown #
point $-1 -42.596514786217838 25.546339030683388 3.714590096619133 #
edge $-1 $459 -3.714590096619133 $587 -0.71459009661913209 $594 $665 forward 7 unknown #
point $-1 -42.596514786217838 -25.546339030683388 3.714590096619133 #
straight-curve $-1 -35.49424209368415 25.546339030683388 1.1072950483095663 0 0 -1 I I #
coedge $-1 $603 $473 $467 $602 forward $464 $-1 #
edge $-1 $475 -49.18985135552694 $610 -43.584984555985251 $601 $666 forward 7 unknown #
coedge $-1 $468 $601 $470 $605 reversed $464 $-1 #
straight-curve $-1 -27.27799437856509 25.546339030683388 49.398965514068543 0 0 -1 I I #
edge $-1 $471 27.27799437856509 $610 35.494242093684143 $603 $667 forward 7 unknown #
point $-1 -27.27799437856509 25.546339030683388 5.8139809580832926 #
straight-curve $-1 -15.693059118062308 25.546339030683392 0.20911415854159721 -1 0 0 I I #
point $-1 -35.494242093684143 25.546339030683392 0.20911415854159898 #
point $-1 -27.27799437856509 25.546339030683392 0.20911415854159898 #
vertex $-1 $479 $668 #
straight-curve $-1 -35.494242093684143 18.867413263866482 5.8139809580832917 0 -1 0 I I #
vertex $-1 $482 $669 #
point $-1 -32.146742746507272 19.747125148661304 0.17998038887568857 #
vertex $-1 $486 $670 #
point $-1 -28.625493725741961 19.747125148661304 0.17998038887568857 #
coedge $-1 $501 $500 $493 $617 forward $490 $-1 #
edge $-1 $618 -6.6789257668169064 $621 0.49497644793412832 $616 $671 forward 7 unknown #
vertex $-1 $617 $672 #
straight-curve $-1 3.5511363462668495 25.546339030683388 49.398965514068543 0 0 1 I I #
edge $-1 $621 -0.27849375564633938 $502 7.9377539594727171 $501 $673 forward 7 unknown #
vertex $-1 $620 $674 #
straight-curve $-1 3.5511363462668495 -14.715240404045126 31.664908106612856 0 0.78801074757464917 -0.61566148304635926 I I #
point $-1 3.5511363462668495 25.546339030683392 0.20911415854159898 #
point $-1 11.767384061385906 18.372436815932353 5.8139809580832953 #
straight-curve $-1 0 25.546339030683388 5.8139809580832926 -1 0 0 I I #
vertex $-1 $508 $675 #
point $-1 6.8986356934437225 19.747125148661304 0.17998038887568857 #
vertex $-1 $512 $676 #
point $-1 10.419884714209033 19.747125148661304 0.17998038887568857 #
coedge $-1 $518 $517 $525 $635 forward $237 $-1 #
edge $-1 $638 -35.494242093684143 $521 -27.27799437856509 $520 $677 forward 7 unknown #
straight-curve $-1 -27.27799437856509 -38.998202981230733 5.8139809580832917 0 1 0 I I #
point $-1 -27.27799437856509 -25.546339030683388 5.8139809580832926 #
straight-curve $-1 -15.693059118062308 -18.372436815932343 5.8139809580832926 -1 0 0 I I #
edge $-1 $526 -20.625766165298394 $638 -13.451863950547345 $630 $678 forward 7 unknown #
point $-1 -35.494242093684143 -18.372436815932339 5.8139809580832926 #
point $-1 -27.27799437856509 -18.372436815932339 5.8139809580832926 #
vertex $-1 $631 $679 #
straight-curve $-1 -35.494242093684143 -25.546339030683388 33.671068540032913 0 0 -1 I I #
vertex $-1 $533 $680 #
point $-1 -32.146742746507272 -19.747125148661301 0.17998038887568857 #
vertex $-1 $537 $681 #
point $-1 -28.625493725741961 -19.747125148661301 0.17998038887568857 #
edge $-1 $645 13.451863950547345 $648 20.625766165298394 $542 $682 forward 7 unknown #
vertex $-1 $546 $683 #
straight-curve $-1 11.767384061385906 -25.546339030683388 33.671068540032913 0 0 1 I I #
edge $-1 $648 -7.9377539594727171 $553 0.27849375564633938 $552 $684 forward 7 unknown #
vertex $-1 $647 $685 #
straight-curve $-1 11.767384061385906 -25.546339030683377 0.20911415854159543 0 -0.78801074757464917 -0.61566148304635926 I I #
point $-1 11.767384061385906 -25.546339030683388 0.2091141585415871 #
point $-1 3.5511363462668495 -18.372436815932339 5.8139809580832926 #
straight-curve $-1 0 -25.546339030683388 5.8139809580832926 1 0 0 I I #
vertex $-1 $559 $686 #
point $-1 6.8986356934437225 -19.747125148661301 0.17998038887568857 #
vertex $-1 $563 $687 #
point $-1 10.419884714209033 -19.747125148661301 0.17998038887568857 #
straight-curve $-1 -42.596514786217838 25.546339030683388 0 0 0 -1 I I #
point $-1 -42.596514786217838 -25.546339030683388 -5.8139809580832926 #
straight-curve $-1 -42.596514786217838 0 -5.8139809580832926 0 1 0 I I #
point $-1 -42.596514786217838 25.546339030683388 -5.8139809580832926 #
straight-curve $-1 -42.596514786217838 0 0.71459009661913209 0 -1 0 I I #
point $-1 -42.596514786217838 -25.546339030683388 0.71459009661913209 #
point $-1 -42.596514786217838 25.546339030683388 0.71459009661913209 #
straight-curve $-1 -42.596514786217838 25.546339030683388 0 0 0 -1 I I #
straight-curve $-1 -42.596514786217838 -25.546339030683388 0 0 0 -1 I I #
straight-curve $-1 -35.494242093684143 25.546339030683388 49.398965514068543 0 0 1 I I #
straight-curve $-1 0 25.546339030683388 5.8139809580832926 -1 0 0 I I #
point $-1 -35.494242093684143 25.546339030683388 5.8139809580832926 #
point $-1 -33.146742746507272 19.131463665614945 -0.6080303586989606 #
point $-1 -29.625493725741961 19.131463665614945 -0.6080303586989606 #
straight-curve $-1 3.5511363462668495 18.867413263866482 5.8139809580832917 0 -1 0 I I #
point $-1 3.5511363462668495 25.546339030683388 5.8139809580832926 #
straight-curve $-1 3.8296301019131889 18.37243681593236 5.8139809580832882 1 0 0 I I #
point $-1 3.5511363462668495 18.372436815932353 5.8139809580832953 #
point $-1 5.8986356934437225 19.131463665614945 -0.6080303586989606 #
point $-1 9.4198847142090329 19.131463665614945 -0.6080303586989606 #
straight-curve $-1 0 -25.546339030683388 5.8139809580832926 1 0 0 I I #
straight-curve $-1 -35.494242093684143 -38.998202981230733 5.8139809580832917 0 -1 0 I I #
point $-1 -35.494242093684143 -25.546339030683388 5.8139809580832926 #
point $-1 -33.146742746507272 -19.131463665614941 -0.6080303586989606 #
point $-1 -29.625493725741961 -19.131463665614941 -0.6080303586989606 #
straight-curve $-1 11.767384061385906 -38.998202981230733 5.8139809580832917 0 1 0 I I #
point $-1 11.767384061385906 -25.546339030683388 5.8139809580832926 #
straight-curve $-1 3.8296301019131889 -18.372436815932343 5.8139809580832926 -1 0 0 I I #
point $-1 11.767384061385906 -18.372436815932339 5.8139809580832926 #
point $-1 5.8986356934437225 -19.131463665614941 -0.6080303586989606 #
point $-1 9.4198847142090329 -19.131463665614941 -0.6080303586989606 #
End-of-ACIS-data 