500 0 12 0           
7 Unknown 11 ACIS 5.0 NT 24 Fri Mar 26 16:13:37 1999 
-1 9.9999999999999995e-007 1e-010 
body $-1 $12 $-1 $13 #
body $-1 $14 $-1 $15 #
body $-1 $16 $-1 $17 #
body $-1 $18 $-1 $19 #
body $-1 $20 $-1 $21 #
body $-1 $22 $-1 $23 #
body $-1 $24 $-1 $25 #
body $-1 $26 $-1 $27 #
body $-1 $28 $-1 $29 #
body $-1 $30 $-1 $31 #
body $-1 $32 $-1 $33 #
body $-1 $34 $-1 $35 #
lump $-1 $-1 $36 $0 #
transform $-1 1 0 0 0 1 0 0 0 1 70.750450148014778 28.707620775259574 7.9072774604030824 1 rotate no_reflect no_shear #
lump $-1 $-1 $37 $1 #
transform $-1 1 0 0 0 1 0 0 0 1 70.750450148014778 28.707620775259574 7.9072774604030824 1 rotate no_reflect no_shear #
lump $-1 $-1 $38 $2 #
transform $-1 1 0 0 0 1 0 0 0 1 70.750450148014778 28.707620775259574 7.9072774604030824 1 rotate no_reflect no_shear #
lump $-1 $-1 $39 $3 #
transform $-1 1 0 0 0 1 0 0 0 1 70.750450148014778 28.707620775259574 7.9072774604030824 1 rotate no_reflect no_shear #
lump $-1 $-1 $40 $4 #
transform $-1 1 0 0 0 1 0 0 0 1 70.750450148014778 28.707620775259574 7.9072774604030824 1 rotate no_reflect no_shear #
lump $-1 $-1 $41 $5 #
transform $-1 1 0 0 0 1 0 0 0 1 70.750450148014778 28.707620775259574 7.9072774604030824 1 rotate no_reflect no_shear #
lump $-1 $-1 $42 $6 #
transform $-1 1 0 0 0 1 0 0 0 1 70.750450148014778 28.707620775259574 7.9072774604030824 1 rotate no_reflect no_shear #
lump $-1 $-1 $43 $7 #
transform $-1 1 0 0 0 1 0 0 0 1 70.750450148014778 28.707620775259574 7.9072774604030824 1 rotate no_reflect no_shear #
lump $-1 $-1 $44 $8 #
transform $-1 1 0 0 0 1 0 0 0 1 70.750450148014778 28.707620775259574 7.9072774604030824 1 rotate no_reflect no_shear #
lump $-1 $-1 $45 $9 #
transform $-1 1 0 0 0 1 0 0 0 1 70.750450148014778 28.707620775259574 7.9072774604030824 1 rotate no_reflect no_shear #
lump $-1 $-1 $46 $10 #
transform $-1 1 0 0 0 1 0 0 0 1 70.750450148014778 28.707620775259574 7.9072774604030824 1 rotate no_reflect no_shear #
lump $-1 $-1 $47 $11 #
transform $-1 1 0 0 0 1 0 0 0 1 70.750450148014778 28.707620775259574 7.9072774604030824 1 rotate no_reflect no_shear #
shell $-1 $-1 $-1 $48 $-1 $12 #
shell $-1 $-1 $-1 $49 $-1 $14 #
shell $-1 $-1 $-1 $50 $-1 $16 #
shell $-1 $-1 $-1 $51 $-1 $18 #
shell $-1 $-1 $-1 $52 $-1 $20 #
shell $-1 $-1 $-1 $53 $-1 $22 #
shell $-1 $-1 $-1 $54 $-1 $24 #
shell $-1 $-1 $-1 $55 $-1 $26 #
shell $-1 $-1 $-1 $56 $-1 $28 #
shell $-1 $-1 $-1 $57 $-1 $30 #
shell $-1 $-1 $-1 $58 $-1 $32 #
shell $-1 $-1 $-1 $59 $-1 $34 #
face $-1 $60 $61 $36 $-1 $62 forward single #
face $-1 $63 $64 $37 $-1 $65 forward single #
face $-1 $66 $67 $38 $-1 $68 reversed single #
face $-1 $69 $70 $39 $-1 $71 forward single #
face $-1 $72 $73 $40 $-1 $74 forward single #
face $-1 $75 $76 $41 $-1 $77 forward single #
face $-1 $78 $79 $42 $-1 $80 reversed single #
face $-1 $81 $82 $43 $-1 $83 forward single #
face $-1 $84 $85 $44 $-1 $86 forward single #
face $-1 $87 $88 $45 $-1 $89 reversed single #
face $-1 $90 $91 $46 $-1 $92 forward single #
face $-1 $93 $94 $47 $-1 $95 forward single #
face $-1 $96 $97 $36 $-1 $98 reversed single #
loop $-1 $-1 $99 $48 #
plane-surface $-1 0 0 7.9072774604030824 0 0 1 1 0 0 forward_v I I I I #
face $-1 $100 $101 $37 $-1 $102 reversed single #
loop $-1 $-1 $103 $49 #
plane-surface $-1 -70.750450148014778 0 0 1 0 0 0 0 -1 forward_v I I I I #
face $-1 $104 $105 $38 $-1 $106 reversed single #
loop $-1 $-1 $107 $50 #
plane-surface $-1 -39.782823980412516 90.610873662612235 144.16601388910723 1 0 0 0 -0.71933980857756763 -0.69465836192734942 forward_v I I I I #
face $-1 $108 $109 $39 $-1 $110 forward single #
loop $-1 $111 $112 $51 #
cone-surface $-1 -35.949698196026709 26.736643155051109 5.8913902551563293 0 -0.71933980857756763 -0.69465836192734942 0.5 0 0 1 I I 0 1 0.5 forward I I I I #
face $-1 $113 $114 $40 $-1 $115 forward single #
loop $-1 $116 $117 $52 #
cone-surface $-1 -30.200009519447995 26.736643155051109 5.8913902551563293 0 -0.71933980857756763 -0.69465836192734942 0.5 0 0 1 I I 0 1 0.5 forward I I I I #
face $-1 $118 $119 $41 $-1 $120 forward single #
loop $-1 $121 $122 $53 #
cone-surface $-1 -24.450320842869282 26.736643155051109 5.8913902551563293 0 -0.71933980857756763 -0.69465836192734942 0.5 0 0 1 I I 0 1 0.5 forward I I I I #
face $-1 $123 $124 $42 $-1 $125 reversed single #
loop $-1 $-1 $126 $54 #
plane-surface $-1 4.4819400405027068 -144.61837367242902 84.062036513678805 -1 0 0 0 -0.81915205242281985 0.57357642473473569 forward_v I I I I #
face $-1 $127 $128 $43 $-1 $129 forward single #
loop $-1 $130 $131 $55 #
cone-surface $-1 -13.782066868458102 -25.044836025412931 4.0665559876022019 0 0.81915205242281985 -0.57357642473473569 1.5 0 0 1 I I 0 1 1.5 forward I I I I #
face $-1 $132 $133 $44 $-1 $134 forward single #
loop $-1 $135 $136 $56 #
cone-surface $-1 -2.8236627230816254 -25.044836025412931 4.0665559876022019 0 0.81915205242281985 -0.57357642473473569 1.5 0 0 1 I I 0 1 1.5 forward I I I I #
face $-1 $137 $138 $45 $-1 $139 reversed single #
loop $-1 $-1 $140 $57 #
plane-surface $-1 30.051549713047841 -144.61837367242902 84.062036513678805 -1 0 0 0 -0.81915205242281985 0.57357642473473569 forward_v I I I I #
face $-1 $141 $142 $46 $-1 $143 forward single #
loop $-1 $144 $145 $58 #
cone-surface $-1 11.787542804087025 -25.044836025412931 4.0665559876022019 0 0.81915205242281985 -0.57357642473473569 1.5 0 0 1 I I 0 1 1.5 forward I I I I #
face $-1 $146 $147 $47 $-1 $148 forward single #
loop $-1 $149 $150 $59 #
cone-surface $-1 22.745946949463502 -25.044836025412931 4.0665559876022019 0 0.81915205242281985 -0.57357642473473569 1.5 0 0 1 I I 0 1 1.5 forward I I I I #
face $-1 $151 $152 $36 $-1 $153 reversed single #
loop $-1 $-1 $154 $60 #
plane-surface $-1 0 0 -7.9072774604030824 0 0 1 1 0 0 forward_v I I I I #
coedge $-1 $155 $156 $157 $158 forward $61 $-1 #
face $-1 $159 $160 $37 $-1 $161 forward single #
loop $-1 $-1 $162 $63 #
plane-surface $-1 0 28.707620775259574 0 0 -1 0 0 0 -1 forward_v I I I I #
coedge $-1 $163 $164 $165 $166 forward $64 $-1 #
face $-1 $167 $168 $38 $-1 $169 reversed single #
loop $-1 $-1 $170 $66 #
plane-surface $-1 -30.200009519447995 -11.176356869887144 45.871230278222143 0 0.71933980857756763 0.69465836192734942 1 0 0 forward_v I I I I #
coedge $-1 $171 $172 $173 $174 reversed $67 $-1 #
face $-1 $-1 $175 $39 $-1 $176 forward single #
loop $-1 $177 $178 $69 #
cone-surface $-1 -35.949698196026709 26.197138298617933 5.3703964837108176 0 -0.71933980857756763 -0.69465836192734942 0.25 0 0 1 I I -0.70710678118654746 0.70710678118654746 0.25 forward I I I I #
loop $-1 $-1 $179 $51 #
coedge $-1 $112 $112 $180 $181 reversed $70 $-1 #
face $-1 $-1 $182 $40 $-1 $183 forward single #
loop $-1 $184 $185 $72 #
cone-surface $-1 -30.200009519447995 26.197138298617933 5.3703964837108176 0 -0.71933980857756763 -0.69465836192734942 0.25 0 0 1 I I -0.70710678118654746 0.70710678118654746 0.25 forward I I I I #
loop $-1 $-1 $186 $52 #
coedge $-1 $117 $117 $187 $188 reversed $73 $-1 #
face $-1 $-1 $189 $41 $-1 $190 forward single #
loop $-1 $191 $192 $75 #
cone-surface $-1 -24.450320842869282 26.197138298617933 5.3703964837108176 0 -0.71933980857756763 -0.69465836192734942 0.25 0 0 1 I I -0.70710678118654746 0.70710678118654746 0.25 forward I I I I #
loop $-1 $-1 $193 $53 #
coedge $-1 $122 $122 $194 $195 reversed $76 $-1 #
face $-1 $196 $197 $42 $-1 $198 reversed single #
loop $-1 $-1 $199 $78 #
plane-surface $-1 -8.3028647957698567 -28.707620775259613 2.9004560251358669 0 -0.81915205242281985 0.57357642473473569 1 0 0 forward_v I I I I #
coedge $-1 $200 $201 $202 $203 reversed $79 $-1 #
face $-1 $-1 $204 $43 $-1 $205 forward single #
loop $-1 $206 $207 $81 #
cone-surface $-1 -13.782066868458102 -22.520594239064984 2.2990629138838843 0 0.81915205242281985 -0.57357642473473569 0.75 0 0 1 I I -0.70710678118654757 0.70710678118654757 0.75 forward I I I I #
loop $-1 $-1 $208 $55 #
coedge $-1 $131 $131 $209 $210 reversed $82 $-1 #
face $-1 $-1 $211 $44 $-1 $212 forward single #
loop $-1 $213 $214 $84 #
cone-surface $-1 -2.8236627230816254 -22.520594239064984 2.2990629138838843 0 0.81915205242281985 -0.57357642473473569 0.75 0 0 1 I I -0.70710678118654757 0.70710678118654757 0.75 forward I I I I #
loop $-1 $-1 $215 $56 #
coedge $-1 $136 $136 $216 $217 reversed $85 $-1 #
face $-1 $218 $219 $45 $-1 $220 reversed single #
loop $-1 $-1 $221 $87 #
plane-surface $-1 -8.3028647957698567 -28.707620775259613 2.9004560251358669 0 -0.81915205242281985 0.57357642473473569 1 0 0 forward_v I I I I #
coedge $-1 $222 $223 $224 $225 reversed $88 $-1 #
face $-1 $-1 $226 $46 $-1 $227 forward single #
loop $-1 $228 $229 $90 #
cone-surface $-1 11.787542804087025 -22.520594239064984 2.2990629138838843 0 0.81915205242281985 -0.57357642473473569 0.75 0 0 1 I I -0.70710678118654757 0.70710678118654757 0.75 forward I I I I #
loop $-1 $-1 $230 $58 #
coedge $-1 $145 $145 $231 $232 reversed $91 $-1 #
face $-1 $-1 $233 $47 $-1 $234 forward single #
loop $-1 $235 $236 $93 #
cone-surface $-1 22.745946949463502 -22.520594239064984 2.2990629138838843 0 0.81915205242281985 -0.57357642473473569 0.75 0 0 1 I I -0.70710678118654757 0.70710678118654757 0.75 forward I I I I #
loop $-1 $-1 $237 $59 #
coedge $-1 $150 $150 $238 $239 reversed $94 $-1 #
face $-1 $240 $241 $36 $-1 $242 reversed single #
loop $-1 $-1 $243 $96 #
plane-surface $-1 0 -28.707620775259574 0 0 1 0 0 0 1 forward_v I I I I #
coedge $-1 $244 $245 $246 $247 forward $97 $-1 #
coedge $-1 $248 $99 $249 $250 forward $61 $-1 #
coedge $-1 $99 $248 $251 $252 forward $61 $-1 #
coedge $-1 $253 $254 $99 $158 reversed $255 $-1 #
edge $-1 $256 -28.707620775259574 $257 28.707620775259574 $157 $258 forward 7 unknown #
face $-1 $259 $260 $37 $-1 $261 reversed single #
loop $-1 $-1 $165 $100 #
plane-surface $-1 -75.232390188517485 0 3.0501995319823494 0 0 1 1 0 0 forward_v I I I I #
coedge $-1 $262 $263 $164 $264 forward $101 $-1 #
coedge $-1 $265 $103 $266 $267 reversed $64 $-1 #
coedge $-1 $103 $265 $162 $264 reversed $64 $-1 #
coedge $-1 $268 $269 $103 $166 reversed $160 $-1 #
edge $-1 $270 -28.707620775259574 $271 28.707620775259574 $165 $272 forward 7 unknown #
face $-1 $273 $274 $38 $-1 $275 forward single #
loop $-1 $-1 $276 $104 #
plane-surface $-1 -20.617195058483475 90.610873662612235 144.16601388910723 -1 0 0 0 0.71933980857756763 0.69465836192734942 forward_v I I I I #
coedge $-1 $277 $278 $279 $280 reversed $105 $-1 #
coedge $-1 $172 $107 $281 $282 reversed $67 $-1 #
coedge $-1 $107 $171 $277 $283 reversed $67 $-1 #
coedge $-1 $279 $284 $107 $174 forward $274 $-1 #
edge $-1 $285 16.597816056046543 $286 19.820431487885919 $173 $287 forward 7 unknown #
loop $-1 $-1 $180 $108 #
plane-surface $-1 -30.200009519447995 -11.176356869887144 45.871230278222143 0 0.71933980857756763 0.69465836192734942 1 0 0 forward_v I I I I #
loop $-1 $-1 $288 $69 #
coedge $-1 $178 $178 $179 $289 reversed $109 $-1 #
coedge $-1 $179 $179 $178 $289 forward $111 $-1 #
coedge $-1 $180 $180 $112 $181 forward $175 $-1 #
edge $-1 $290 -1.9792930938341505e-015 $290 6.2831853071795987 $180 $291 forward 7 unknown #
loop $-1 $-1 $187 $113 #
plane-surface $-1 -30.200009519447995 -11.176356869887144 45.871230278222143 0 0.71933980857756763 0.69465836192734942 1 0 0 forward_v I I I I #
loop $-1 $-1 $292 $72 #
coedge $-1 $185 $185 $186 $293 reversed $114 $-1 #
coedge $-1 $186 $186 $185 $293 forward $116 $-1 #
coedge $-1 $187 $187 $117 $188 forward $182 $-1 #
edge $-1 $294 -1.9792930938341505e-015 $294 6.2831853071795987 $187 $295 forward 7 unknown #
loop $-1 $-1 $194 $118 #
plane-surface $-1 -30.200009519447995 -11.176356869887144 45.871230278222143 0 0.71933980857756763 0.69465836192734942 1 0 0 forward_v I I I I #
loop $-1 $-1 $296 $75 #
coedge $-1 $192 $192 $193 $297 reversed $119 $-1 #
coedge $-1 $193 $193 $192 $297 forward $121 $-1 #
coedge $-1 $194 $194 $122 $195 forward $189 $-1 #
edge $-1 $298 -1.9792930938341505e-015 $298 6.2831853071795987 $194 $299 forward 7 unknown #
face $-1 $300 $301 $42 $-1 $302 reversed single #
loop $-1 $-1 $303 $123 #
plane-surface $-1 -21.08766963204242 -144.61837367242902 84.062036513678805 1 0 0 0 0.81915205242281985 -0.57357642473473569 forward_v I I I I #
coedge $-1 $304 $305 $306 $307 reversed $124 $-1 #
coedge $-1 $201 $126 $308 $309 reversed $79 $-1 #
coedge $-1 $126 $200 $304 $310 reversed $79 $-1 #
coedge $-1 $306 $311 $126 $203 forward $312 $-1 #
edge $-1 $313 43.601566060954937 $314 47.107380066586515 $202 $315 forward 7 unknown #
loop $-1 $-1 $209 $127 #
plane-surface $-1 -8.3028647957698567 -28.707620775259613 2.9004560251358669 0 -0.81915205242281985 0.57357642473473569 1 0 0 forward_v I I I I #
loop $-1 $-1 $316 $81 #
coedge $-1 $207 $207 $208 $317 reversed $128 $-1 #
coedge $-1 $208 $208 $207 $317 forward $130 $-1 #
coedge $-1 $209 $209 $131 $210 forward $204 $-1 #
edge $-1 $318 1.0063060303858345e-016 $318 6.2831853071796004 $209 $319 forward 7 unknown #
loop $-1 $-1 $216 $132 #
plane-surface $-1 -8.3028647957698567 -28.707620775259613 2.9004560251358669 0 -0.81915205242281985 0.57357642473473569 1 0 0 forward_v I I I I #
loop $-1 $-1 $320 $84 #
coedge $-1 $214 $214 $215 $321 reversed $133 $-1 #
coedge $-1 $215 $215 $214 $321 forward $135 $-1 #
coedge $-1 $216 $216 $136 $217 forward $211 $-1 #
edge $-1 $322 1.0063060303858345e-016 $322 6.2831853071796004 $216 $323 forward 7 unknown #
face $-1 $324 $325 $45 $-1 $326 forward single #
loop $-1 $-1 $327 $137 #
plane-surface $-1 0 -28.707620775259574 0 0 1 0 0 0 1 forward_v I I I I #
coedge $-1 $328 $329 $330 $331 reversed $138 $-1 #
coedge $-1 $223 $140 $332 $333 reversed $88 $-1 #
coedge $-1 $140 $222 $334 $335 reversed $88 $-1 #
coedge $-1 $336 $327 $140 $225 forward $219 $-1 #
edge $-1 $337 -39.130562231703479 $338 -34.123740796436323 $224 $339 forward 7 unknown #
loop $-1 $-1 $231 $141 #
plane-surface $-1 -8.3028647957698567 -28.707620775259613 2.9004560251358669 0 -0.81915205242281985 0.57357642473473569 1 0 0 forward_v I I I I #
loop $-1 $-1 $340 $90 #
coedge $-1 $229 $229 $230 $341 reversed $142 $-1 #
coedge $-1 $230 $230 $229 $341 forward $144 $-1 #
coedge $-1 $231 $231 $145 $232 forward $226 $-1 #
edge $-1 $342 1.0063060303858345e-016 $342 6.2831853071796004 $231 $343 forward 7 unknown #
loop $-1 $-1 $238 $146 #
plane-surface $-1 -8.3028647957698567 -28.707620775259613 2.9004560251358669 0 -0.81915205242281985 0.57357642473473569 1 0 0 forward_v I I I I #
loop $-1 $-1 $344 $93 #
coedge $-1 $236 $236 $237 $345 reversed $147 $-1 #
coedge $-1 $237 $237 $236 $345 forward $149 $-1 #
coedge $-1 $238 $238 $150 $239 forward $233 $-1 #
edge $-1 $346 1.0063060303858345e-016 $346 6.2831853071796004 $238 $347 forward 7 unknown #
face $-1 $348 $349 $36 $-1 $350 reversed single #
loop $-1 $-1 $351 $151 #
plane-surface $-1 -70.750450148014778 0 0 1 0 0 0 0 -1 forward_v I I I I #
coedge $-1 $352 $251 $351 $353 forward $152 $-1 #
coedge $-1 $354 $154 $352 $355 forward $97 $-1 #
coedge $-1 $154 $354 $356 $357 forward $97 $-1 #
coedge $-1 $254 $253 $154 $247 reversed $255 $-1 #
edge $-1 $358 -28.707620775259574 $359 28.707620775259574 $246 $360 forward 7 unknown #
coedge $-1 $156 $155 $361 $362 forward $61 $-1 #
coedge $-1 $363 $364 $155 $250 reversed $349 $-1 #
edge $-1 $257 -70.750450148014778 $365 70.750450148014778 $249 $366 forward 7 unknown #
coedge $-1 $243 $367 $156 $252 reversed $152 $-1 #
edge $-1 $368 -70.750450148014778 $256 70.750450148014778 $251 $369 forward 7 unknown #
coedge $-1 $246 $157 $367 $370 forward $255 $-1 #
coedge $-1 $157 $246 $363 $371 reversed $255 $-1 #
loop $-1 $-1 $253 $348 #
vertex $-1 $158 $372 #
vertex $-1 $158 $373 #
straight-curve $-1 70.750450148014778 0 7.9072774604030824 0 1 0 I I #
face $-1 $374 $375 $37 $-1 $376 reversed single #
loop $-1 $-1 $377 $159 #
plane-surface $-1 -75.232390188517485 0 -0.35388498329027174 0 0 1 1 0 0 forward_v I I I I #
coedge $-1 $378 $162 $379 $380 reversed $101 $-1 #
coedge $-1 $162 $378 $268 $381 reversed $101 $-1 #
edge $-1 $270 -3.0501995319823494 $382 0.35388498329027174 $162 $383 forward 7 unknown #
coedge $-1 $164 $163 $377 $384 forward $64 $-1 #
coedge $-1 $385 $386 $163 $267 forward $387 $-1 #
edge $-1 $388 -0.35388498329027174 $271 3.0501995319823494 $266 $389 forward 7 unknown #
coedge $-1 $390 $165 $263 $381 forward $160 $-1 #
coedge $-1 $165 $390 $385 $391 forward $160 $-1 #
vertex $-1 $264 $392 #
vertex $-1 $391 $393 #
straight-curve $-1 -70.750450148014778 0 3.0501995319823494 0 -1 0 I I #
face $-1 $-1 $394 $38 $-1 $395 reversed single #
loop $-1 $-1 $173 $167 #
plane-surface $-1 0 0 7.9072774604030824 0 0 1 1 0 0 forward_v I I I I #
coedge $-1 $396 $397 $398 $399 reversed $168 $-1 #
coedge $-1 $400 $170 $172 $283 forward $105 $-1 #
coedge $-1 $170 $400 $396 $401 forward $105 $-1 #
coedge $-1 $398 $173 $170 $280 forward $274 $-1 #
edge $-1 $286 -24.682819220688518 $402 -5.517190298759477 $279 $403 forward 7 unknown #
coedge $-1 $404 $405 $171 $282 forward $394 $-1 #
edge $-1 $406 -67.51284553271671 $285 -64.175729484150537 $281 $407 forward 7 unknown #
edge $-1 $286 52.776104373939077 $406 57.415241550519141 $172 $408 forward 7 unknown #
coedge $-1 $173 $398 $404 $409 forward $274 $-1 #
vertex $-1 $282 $410 #
vertex $-1 $174 $411 #
straight-curve $-1 -39.782823980412516 45.305436831306118 7.9072774604030798 0 -1 0 I I #
coedge $-1 $288 $288 $-1 $412 reversed $177 $-1 #
edge $-1 $413 0 $413 6.2831853071796004 $178 $414 forward 7 unknown #
vertex $-1 $181 $415 #
ellipse-curve $-1 -35.949698196026709 27.096313059339877 6.2387194361199896 0 0.71933980857756763 0.69465836192734942 0.5 0 0 1 I I #
coedge $-1 $292 $292 $-1 $416 reversed $184 $-1 #
edge $-1 $417 0 $417 6.2831853071796004 $185 $418 forward 7 unknown #
vertex $-1 $188 $419 #
ellipse-curve $-1 -30.200009519447995 27.096313059339877 6.2387194361199896 0 0.71933980857756763 0.69465836192734942 0.5 0 0 1 I I #
coedge $-1 $296 $296 $-1 $420 reversed $191 $-1 #
edge $-1 $421 0 $421 6.2831853071796004 $192 $422 forward 7 unknown #
vertex $-1 $195 $423 #
ellipse-curve $-1 -24.450320842869282 27.096313059339877 6.2387194361199896 0 0.71933980857756763 0.69465836192734942 0.5 0 0 1 I I #
face $-1 $-1 $312 $42 $-1 $424 forward single #
loop $-1 $-1 $425 $196 #
plane-surface $-1 0 -28.707620775259574 0 0 1 0 0 0 1 forward_v I I I I #
coedge $-1 $426 $427 $428 $429 reversed $197 $-1 #
coedge $-1 $430 $199 $201 $310 forward $124 $-1 #
coedge $-1 $199 $430 $426 $431 forward $124 $-1 #
coedge $-1 $428 $202 $199 $307 forward $312 $-1 #
edge $-1 $314 -8.6333724383876351 $432 16.936237234157492 $306 $433 forward 7 unknown #
coedge $-1 $434 $435 $200 $309 forward $301 $-1 #
edge $-1 $436 -39.130562231703479 $313 -34.123740796436323 $308 $437 forward 7 unknown #
edge $-1 $314 -6.1122003179488535 $436 -6.8251130961064291e-014 $201 $438 forward 7 unknown #
coedge $-1 $202 $428 $434 $439 forward $312 $-1 #
loop $-1 $-1 $428 $300 #
vertex $-1 $309 $440 #
vertex $-1 $203 $441 #
straight-curve $-1 4.4819400405027068 -72.309186836214508 7.9072774604030798 0 1 0 I I #
coedge $-1 $316 $316 $-1 $442 reversed $206 $-1 #
edge $-1 $443 0 $443 6.2831853071796004 $207 $444 forward 7 unknown #
vertex $-1 $210 $445 #
ellipse-curve $-1 -13.782066868458102 -26.954713772443796 5.4038667427694893 0 -0.81915205242281985 0.57357642473473569 1.5 0 0 1 I I #
coedge $-1 $320 $320 $-1 $446 reversed $213 $-1 #
edge $-1 $447 0 $447 6.2831853071796004 $214 $448 forward 7 unknown #
vertex $-1 $217 $449 #
ellipse-curve $-1 -2.8236627230816254 -26.954713772443796 5.4038667427694893 0 -0.81915205242281985 0.57357642473473569 1.5 0 0 1 I I #
face $-1 $-1 $450 $45 $-1 $451 forward single #
loop $-1 $-1 $452 $218 #
plane-surface $-1 4.4819400405027068 -144.61837367242902 84.062036513678805 -1 0 0 0 -0.81915205242281985 0.57357642473473569 forward_v I I I I #
coedge $-1 $224 $453 $329 $454 forward $219 $-1 #
coedge $-1 $332 $221 $455 $456 reversed $138 $-1 #
coedge $-1 $221 $332 $327 $454 reversed $138 $-1 #
coedge $-1 $457 $452 $221 $331 forward $325 $-1 #
edge $-1 $458 -6.1122003179488535 $459 -6.8251130961064291e-014 $330 $460 forward 7 unknown #
coedge $-1 $329 $328 $222 $333 forward $138 $-1 #
edge $-1 $461 -6.1122003179488535 $337 -6.8251130961064291e-014 $222 $462 forward 7 unknown #
coedge $-1 $455 $463 $223 $335 forward $450 $-1 #
edge $-1 $338 43.601566060954937 $461 47.107380066586515 $334 $464 forward 7 unknown #
coedge $-1 $453 $224 $463 $465 reversed $219 $-1 #
vertex $-1 $225 $466 #
vertex $-1 $225 $467 #
straight-curve $-1 30.051549713047841 -28.707620775259571 42.031018256839403 0 0 1 I I #
coedge $-1 $340 $340 $-1 $468 reversed $228 $-1 #
edge $-1 $469 0 $469 6.2831853071796004 $229 $470 forward 7 unknown #
vertex $-1 $232 $471 #
ellipse-curve $-1 11.787542804087025 -26.954713772443796 5.4038667427694893 0 -0.81915205242281985 0.57357642473473569 1.5 0 0 1 I I #
coedge $-1 $344 $344 $-1 $472 reversed $235 $-1 #
edge $-1 $473 0 $473 6.2831853071796004 $236 $474 forward 7 unknown #
vertex $-1 $239 $475 #
ellipse-curve $-1 22.745946949463502 -26.954713772443796 5.4038667427694893 0 -0.81915205242281985 0.57357642473473569 1.5 0 0 1 I I #
face $-1 $-1 $255 $36 $-1 $476 reversed single #
loop $-1 $-1 $363 $240 #
plane-surface $-1 0 28.707620775259574 0 0 -1 0 0 0 -1 forward_v I I I I #
coedge $-1 $361 $477 $243 $353 reversed $241 $-1 #
coedge $-1 $367 $243 $244 $355 reversed $152 $-1 #
edge $-1 $368 -7.9072774604030824 $478 7.9072774604030824 $351 $479 forward 7 unknown #
coedge $-1 $245 $244 $477 $480 forward $97 $-1 #
edge $-1 $359 -70.750450148014778 $478 70.750450148014778 $352 $481 forward 7 unknown #
coedge $-1 $364 $363 $245 $357 reversed $349 $-1 #
edge $-1 $482 -70.750450148014778 $358 70.750450148014778 $356 $483 forward 7 unknown #
vertex $-1 $247 $484 #
vertex $-1 $370 $485 #
straight-curve $-1 70.750450148014778 0 -7.9072774604030824 0 -1 0 I I #
coedge $-1 $486 $351 $248 $362 reversed $241 $-1 #
edge $-1 $365 -28.707620775259574 $368 28.707620775259574 $361 $487 forward 7 unknown #
coedge $-1 $356 $249 $254 $371 forward $349 $-1 #
coedge $-1 $249 $356 $486 $488 reversed $349 $-1 #
vertex $-1 $250 $489 #
straight-curve $-1 0 28.707620775259574 7.9072774604030824 -1 0 0 I I #
coedge $-1 $251 $352 $253 $370 reversed $152 $-1 #
vertex $-1 $362 $490 #
straight-curve $-1 0 -28.707620775259574 7.9072774604030824 1 0 0 I I #
edge $-1 $256 -7.9072774604030824 $359 7.9072774604030824 $253 $491 forward 7 unknown #
edge $-1 $257 -7.9072774604030824 $358 7.9072774604030824 $254 $492 forward 7 unknown #
point $-1 70.750450148014778 -28.707620775259574 7.9072774604030824 #
point $-1 70.750450148014778 28.707620775259574 7.9072774604030824 #
face $-1 $-1 $387 $37 $-1 $493 reversed single #
loop $-1 $-1 $494 $259 #
plane-surface $-1 -79.714330229020192 0 1.3481572743460388 1 0 0 0 0 -1 forward_v I I I I #
coedge $-1 $495 $379 $265 $384 reversed $260 $-1 #
coedge $-1 $263 $262 $494 $496 reversed $101 $-1 #
coedge $-1 $377 $497 $262 $380 forward $260 $-1 #
edge $-1 $498 -4.4819400405027068 $382 4.4819400405027068 $262 $499 forward 7 unknown #
edge $-1 $270 -4.4819400405027068 $500 4.4819400405027068 $263 $501 forward 7 unknown #
vertex $-1 $264 $502 #
straight-curve $-1 -70.750450148014778 28.707620775259574 0 0 0 -1 I I #
edge $-1 $388 -28.707620775259574 $382 28.707620775259574 $377 $503 forward 7 unknown #
coedge $-1 $504 $266 $269 $391 reversed $387 $-1 #
coedge $-1 $266 $504 $495 $505 reversed $387 $-1 #
loop $-1 $-1 $266 $374 #
vertex $-1 $267 $506 #
straight-curve $-1 -70.750450148014778 -28.707620775259574 0 0 0 1 I I #
coedge $-1 $269 $268 $507 $508 forward $160 $-1 #
edge $-1 $509 -4.4819400405027068 $271 4.4819400405027068 $385 $510 forward 7 unknown #
point $-1 -70.750450148014778 28.707620775259574 3.0501995319823494 #
point $-1 -70.750450148014778 -28.707620775259574 3.0501995319823494 #
loop $-1 $-1 $281 $273 #
plane-surface $-1 0 28.707620775259574 0 0 -1 0 0 0 -1 forward_v I I I I #
coedge $-1 $397 $276 $278 $401 reversed $168 $-1 #
coedge $-1 $276 $396 $511 $512 reversed $168 $-1 #
coedge $-1 $284 $279 $276 $399 forward $274 $-1 #
edge $-1 $402 -19.820431487885919 $513 -16.597816056046543 $398 $514 forward 7 unknown #
coedge $-1 $278 $277 $405 $515 reversed $105 $-1 #
edge $-1 $516 -57.415241550519141 $402 -52.776104373939077 $396 $517 forward 7 unknown #
vertex $-1 $280 $518 #
straight-curve $-1 -15.100004759723998 25.485005343420191 7.9072774604030869 1 0 0 I I #
coedge $-1 $511 $281 $284 $409 reversed $394 $-1 #
coedge $-1 $281 $511 $400 $515 forward $394 $-1 #
vertex $-1 $282 $519 #
straight-curve $-1 -39.782823980412516 28.707620775259574 72.083006944553617 0 0 1 I I #
straight-curve $-1 -39.782823980412516 -11.176356869887144 45.871230278222143 0 0.69465836192734942 -0.71933980857756763 I I #
edge $-1 $513 20.617195058483475 $285 39.782823980412516 $404 $520 forward 7 unknown #
point $-1 -39.782823980412516 28.707620775259574 7.9072774604030824 #
point $-1 -39.782823980412516 25.485005343420198 7.9072774604030798 #
edge $-1 $521 1 $521 0 $288 $-1 forward 7 unknown #
vertex $-1 $289 $522 #
ellipse-curve $-1 -35.949698196026709 26.376973250762326 5.5440610741926548 0 0.71933980857756763 0.69465836192734942 0.5 0 0 1 I I #
point $-1 -35.449698196026709 27.096313059339892 6.2387194361200047 #
edge $-1 $523 1 $523 0 $292 $-1 forward 7 unknown #
vertex $-1 $293 $524 #
ellipse-curve $-1 -30.200009519447995 26.376973250762326 5.5440610741926548 0 0.71933980857756763 0.69465836192734942 0.5 0 0 1 I I #
point $-1 -29.700009519447995 27.096313059339892 6.2387194361200047 #
edge $-1 $525 1 $525 0 $296 $-1 forward 7 unknown #
vertex $-1 $297 $526 #
ellipse-curve $-1 -24.450320842869282 26.376973250762326 5.5440610741926548 0 0.71933980857756763 0.69465836192734942 0.5 0 0 1 I I #
point $-1 -23.950320842869282 27.096313059339892 6.2387194361200047 #
plane-surface $-1 0 0 7.9072774604030824 0 0 1 1 0 0 forward_v I I I I #
coedge $-1 $435 $434 $427 $527 forward $301 $-1 #
coedge $-1 $427 $303 $305 $431 reversed $197 $-1 #
coedge $-1 $303 $426 $425 $527 reversed $197 $-1 #
coedge $-1 $311 $306 $303 $429 forward $312 $-1 #
edge $-1 $432 -47.107380066586515 $528 -43.601566060954937 $428 $529 forward 7 unknown #
coedge $-1 $305 $304 $435 $530 reversed $124 $-1 #
edge $-1 $531 6.8251130961064291e-014 $432 6.1122003179488535 $426 $532 forward 7 unknown #
vertex $-1 $307 $533 #
straight-curve $-1 -4.1514323978849283 -25.201806769627996 7.9072774604030824 -1 0 0 I I #
coedge $-1 $425 $308 $311 $439 reversed $301 $-1 #
coedge $-1 $308 $425 $430 $530 forward $301 $-1 #
vertex $-1 $309 $534 #
straight-curve $-1 4.4819400405027068 -28.707620775259571 42.031018256839403 0 0 1 I I #
straight-curve $-1 4.4819400405027068 -28.707620775259613 2.9004560251358669 0 -0.57357642473473569 -0.81915205242281985 I I #
edge $-1 $528 -21.08766963204242 $313 4.4819400405027068 $434 $535 forward 7 unknown #
point $-1 4.4819400405027068 -28.707620775259574 7.9072774604030824 #
point $-1 4.4819400405027068 -25.201806769627996 7.9072774604030824 #
edge $-1 $536 1 $536 0 $316 $-1 forward 7 unknown #
vertex $-1 $317 $537 #
ellipse-curve $-1 -13.782066868458102 -23.134958278382097 2.7292452324349359 0 -0.81915205242281985 0.57357642473473569 1.5 0 0 1 I I #
point $-1 -12.282066868458102 -26.954713772443764 5.4038667427694671 #
edge $-1 $538 1 $538 0 $320 $-1 forward 7 unknown #
vertex $-1 $321 $539 #
ellipse-curve $-1 -2.8236627230816254 -23.134958278382097 2.7292452324349359 0 -0.81915205242281985 0.57357642473473569 1.5 0 0 1 I I #
point $-1 -1.3236627230816254 -26.954713772443764 5.4038667427694671 #
loop $-1 $-1 $455 $324 #
plane-surface $-1 0 0 7.9072774604030824 0 0 1 1 0 0 forward_v I I I I #
coedge $-1 $330 $457 $540 $541 reversed $325 $-1 #
coedge $-1 $327 $336 $457 $542 forward $219 $-1 #
edge $-1 $459 8.6333724383876351 $337 34.202982110932766 $327 $543 forward 7 unknown #
coedge $-1 $540 $334 $328 $456 forward $450 $-1 #
edge $-1 $461 -34.202982110932766 $458 -8.6333724383876351 $455 $544 forward 7 unknown #
coedge $-1 $452 $330 $453 $542 reversed $325 $-1 #
vertex $-1 $456 $545 #
vertex $-1 $454 $546 #
straight-curve $-1 4.4819400405027068 -28.707620775259613 2.9004560251358669 0 -0.57357642473473569 -0.81915205242281985 I I #
vertex $-1 $335 $547 #
straight-curve $-1 30.051549713047841 -28.707620775259613 2.9004560251358669 0 -0.57357642473473569 -0.81915205242281985 I I #
coedge $-1 $334 $540 $336 $465 forward $450 $-1 #
straight-curve $-1 30.051549713047841 -72.309186836214508 7.9072774604030798 0 1 0 I I #
edge $-1 $548 4.4819400405027068 $338 30.051549713047841 $336 $549 forward 7 unknown #
point $-1 30.051549713047841 -28.707620775259574 2.9004560251359228 #
point $-1 30.051549713047841 -28.707620775259574 7.9072774604030824 #
edge $-1 $550 1 $550 0 $340 $-1 forward 7 unknown #
vertex $-1 $341 $551 #
ellipse-curve $-1 11.787542804087025 -23.134958278382097 2.7292452324349359 0 -0.81915205242281985 0.57357642473473569 1.5 0 0 1 I I #
point $-1 13.287542804087025 -26.954713772443764 5.4038667427694671 #
edge $-1 $552 1 $552 0 $344 $-1 forward 7 unknown #
vertex $-1 $345 $553 #
ellipse-curve $-1 22.745946949463502 -23.134958278382097 2.7292452324349359 0 -0.81915205242281985 0.57357642473473569 1.5 0 0 1 I I #
point $-1 24.245946949463502 -26.954713772443764 5.4038667427694671 #
plane-surface $-1 70.750450148014778 0 0 -1 0 0 0 0 1 forward_v I I I I #
coedge $-1 $351 $486 $354 $480 reversed $241 $-1 #
vertex $-1 $480 $554 #
straight-curve $-1 -70.750450148014778 -28.707620775259574 0 0 0 -1 I I #
edge $-1 $478 -28.707620775259574 $482 28.707620775259574 $477 $555 forward 7 unknown #
straight-curve $-1 0 -28.707620775259574 -7.9072774604030824 -1 0 0 I I #
vertex $-1 $357 $556 #
straight-curve $-1 0 28.707620775259574 -7.9072774604030824 1 0 0 I I #
point $-1 70.750450148014778 28.707620775259574 -7.9072774604030824 #
point $-1 70.750450148014778 -28.707620775259574 -7.9072774604030824 #
coedge $-1 $477 $361 $364 $488 forward $241 $-1 #
straight-curve $-1 -70.750450148014778 0 7.9072774604030824 0 -1 0 I I #
edge $-1 $365 -7.9072774604030824 $482 7.9072774604030824 $364 $557 forward 7 unknown #
point $-1 -70.750450148014778 28.707620775259574 7.9072774604030824 #
point $-1 -70.750450148014778 -28.707620775259574 7.9072774604030824 #
straight-curve $-1 70.750450148014778 -28.707620775259574 0 0 0 -1 I I #
straight-curve $-1 70.750450148014778 28.707620775259574 0 0 0 -1 I I #
plane-surface $-1 0 -28.707620775259574 0 0 1 0 0 0 1 forward_v I I I I #
coedge $-1 $558 $507 $378 $496 forward $375 $-1 #
coedge $-1 $497 $377 $386 $505 forward $260 $-1 #
edge $-1 $500 -1.7020422576363106 $498 1.7020422576363106 $378 $559 forward 7 unknown #
coedge $-1 $379 $495 $558 $560 forward $260 $-1 #
vertex $-1 $380 $561 #
straight-curve $-1 -75.232390188517485 28.707620775259574 -0.35388498329027174 1 0 0 I I #
vertex $-1 $381 $562 #
straight-curve $-1 -75.232390188517485 28.707620775259574 3.0501995319823494 -1 0 0 I I #
point $-1 -70.750450148014778 28.707620775259574 -0.35388498329027174 #
straight-curve $-1 -70.750450148014778 0 -0.35388498329027174 0 1 0 I I #
coedge $-1 $386 $385 $563 $564 forward $387 $-1 #
edge $-1 $388 -4.4819400405027068 $565 4.4819400405027068 $386 $566 forward 7 unknown #
point $-1 -70.750450148014778 -28.707620775259574 -0.35388498329027174 #
coedge $-1 $494 $563 $390 $508 reversed $375 $-1 #
edge $-1 $500 -28.707620775259574 $509 28.707620775259574 $507 $567 forward 7 unknown #
vertex $-1 $508 $568 #
straight-curve $-1 -75.232390188517485 -28.707620775259574 3.0501995319823494 1 0 0 I I #
coedge $-1 $405 $404 $397 $512 forward $394 $-1 #
edge $-1 $513 64.175729484150537 $516 67.51284553271671 $511 $569 forward 7 unknown #
vertex $-1 $409 $570 #
straight-curve $-1 -20.617195058483475 45.305436831306118 7.9072774604030798 0 1 0 I I #
edge $-1 $516 5.517190298759477 $406 24.682819220688518 $405 $571 forward 7 unknown #
vertex $-1 $515 $572 #
straight-curve $-1 -20.617195058483475 -11.176356869887144 45.871230278222143 0 -0.69465836192734942 0.71933980857756763 I I #
point $-1 -20.617195058483475 25.485005343420198 7.9072774604030798 #
point $-1 -39.782823980412516 28.707620775259571 4.5701614118368994 #
straight-curve $-1 0 28.707620775259574 7.9072774604030824 -1 0 0 I I #
vertex $-1 $412 $573 #
point $-1 -35.449698196026709 26.376973250762326 5.5440610741926548 #
vertex $-1 $416 $574 #
point $-1 -29.700009519447995 26.376973250762326 5.5440610741926548 #
vertex $-1 $420 $575 #
point $-1 -23.950320842869282 26.376973250762326 5.5440610741926548 #
edge $-1 $528 34.123740796436323 $531 39.130562231703479 $425 $576 forward 7 unknown #
vertex $-1 $439 $577 #
straight-curve $-1 -21.08766963204242 -72.309186836214508 7.9072774604030798 0 -1 0 I I #
edge $-1 $531 -16.936237234157492 $436 8.6333724383876351 $435 $578 forward 7 unknown #
vertex $-1 $530 $579 #
straight-curve $-1 -21.08766963204242 -28.707620775259613 2.9004560251358669 0 0.57357642473473569 0.81915205242281985 I I #
point $-1 -21.08766963204242 -25.201806769627996 7.9072774604030824 #
point $-1 4.4819400405027068 -28.707620775259574 2.9004560251359228 #
straight-curve $-1 0 -28.707620775259574 7.9072774604030824 1 0 0 I I #
vertex $-1 $442 $580 #
point $-1 -12.282066868458102 -23.134958278382097 2.7292452324349359 #
vertex $-1 $446 $581 #
point $-1 -1.3236627230816254 -23.134958278382097 2.7292452324349359 #
coedge $-1 $463 $455 $452 $541 forward $450 $-1 #
edge $-1 $458 -47.107380066586515 $548 -43.601566060954937 $540 $582 forward 7 unknown #
edge $-1 $548 34.123740796436323 $459 39.130562231703479 $453 $583 forward 7 unknown #
straight-curve $-1 -4.1514323978849283 -28.707620775259574 2.9004560251359224 1 0 0 I I #
straight-curve $-1 -4.1514323978849283 -25.201806769627996 7.9072774604030824 -1 0 0 I I #
point $-1 4.4819400405027068 -25.201806769627996 7.9072774604030824 #
point $-1 4.4819400405027068 -28.707620775259574 2.9004560251359228 #
point $-1 30.051549713047841 -25.201806769627996 7.9072774604030824 #
vertex $-1 $465 $584 #
straight-curve $-1 0 -28.707620775259574 7.9072774604030824 1 0 0 I I #
vertex $-1 $468 $585 #
point $-1 13.287542804087025 -23.134958278382097 2.7292452324349359 #
vertex $-1 $472 $586 #
point $-1 24.245946949463502 -23.134958278382097 2.7292452324349359 #
point $-1 -70.750450148014778 -28.707620775259574 -7.9072774604030824 #
straight-curve $-1 -70.750450148014778 0 -7.9072774604030824 0 1 0 I I #
point $-1 -70.750450148014778 28.707620775259574 -7.9072774604030824 #
straight-curve $-1 -70.750450148014778 28.707620775259574 0 0 0 -1 I I #
coedge $-1 $563 $494 $497 $560 reversed $375 $-1 #
straight-curve $-1 -79.714330229020192 28.707620775259574 1.3481572743460388 0 0 -1 I I #
edge $-1 $565 -28.707620775259574 $498 28.707620775259574 $558 $587 forward 7 unknown #
point $-1 -79.714330229020192 28.707620775259574 -0.35388498329027174 #
point $-1 -79.714330229020192 28.707620775259574 3.0501995319823494 #
coedge $-1 $507 $558 $504 $564 reversed $375 $-1 #
edge $-1 $509 -1.7020422576363106 $565 1.7020422576363106 $563 $588 forward 7 unknown #
vertex $-1 $560 $589 #
straight-curve $-1 -75.232390188517485 -28.707620775259574 -0.35388498329027174 -1 0 0 I I #
straight-curve $-1 -79.714330229020192 0 3.0501995319823494 0 -1 0 I I #
point $-1 -79.714330229020192 -28.707620775259574 3.0501995319823494 #
straight-curve $-1 -20.617195058483475 28.707620775259574 72.083006944553617 0 0 -1 I I #
point $-1 -20.617195058483475 28.707620775259574 7.9072774604030824 #
straight-curve $-1 -15.100004759723998 28.707620775259578 4.5701614118368923 -1 0 0 I I #
point $-1 -20.617195058483475 28.707620775259571 4.5701614118368994 #
point $-1 -35.949698196026709 26.01730334647354 5.1967318932289803 #
point $-1 -30.200009519447995 26.01730334647354 5.1967318932289803 #
point $-1 -24.450320842869282 26.01730334647354 5.1967318932289803 #
straight-curve $-1 -21.08766963204242 -28.707620775259571 42.031018256839403 0 0 -1 I I #
point $-1 -21.08766963204242 -28.707620775259574 7.9072774604030824 #
straight-curve $-1 -4.1514323978849283 -28.707620775259574 2.9004560251359224 1 0 0 I I #
point $-1 -21.08766963204242 -28.707620775259574 2.9004560251359228 #
point $-1 -13.782066868458102 -21.906230199747871 1.8688805953328325 #
point $-1 -2.8236627230816254 -21.906230199747871 1.8688805953328325 #
straight-curve $-1 4.4819400405027068 -72.309186836214508 7.9072774604030798 0 -1 0 I I #
straight-curve $-1 4.4819400405027068 -28.707620775259571 42.031018256839403 0 0 -1 I I #
point $-1 4.4819400405027068 -28.707620775259574 7.9072774604030824 #
point $-1 11.787542804087025 -21.906230199747871 1.8688805953328325 #
point $-1 22.745946949463502 -21.906230199747871 1.8688805953328325 #
straight-curve $-1 -79.714330229020192 0 -0.35388498329027174 0 1 0 I I #
straight-curve $-1 -79.714330229020192 -28.707620775259574 1.3481572743460388 0 0 -1 I I #
point $-1 -79.714330229020192 -28.707620775259574 -0.35388498329027174 #
End-of-ACIS-data 