500 0 15 0           
7 Unknown 11 ACIS 5.0 NT 24 Thu Mar 25 20:19:28 1999 
-1 9.9999999999999995e-007 1e-010 
body $-1 $15 $-1 $16 #
body $-1 $17 $-1 $18 #
body $-1 $19 $-1 $20 #
body $-1 $21 $-1 $22 #
body $-1 $23 $-1 $24 #
body $-1 $25 $-1 $26 #
body $-1 $27 $-1 $28 #
body $-1 $29 $-1 $30 #
body $-1 $31 $-1 $32 #
body $-1 $33 $-1 $34 #
body $-1 $35 $-1 $36 #
body $-1 $37 $-1 $38 #
body $-1 $39 $-1 $40 #
body $-1 $41 $-1 $42 #
body $-1 $43 $-1 $44 #
lump $-1 $-1 $45 $0 #
transform $-1 1 0 0 0 1 0 0 0 1 40.737327188940093 28.319945364836119 12.329681587746181 1 rotate no_reflect no_shear #
lump $-1 $-1 $46 $1 #
transform $-1 1 0 0 0 1 0 0 0 1 40.737327188940093 28.319945364836119 12.329681587746181 1 rotate no_reflect no_shear #
lump $-1 $-1 $47 $2 #
transform $-1 1 0 0 0 1 0 0 0 1 40.737327188940093 28.319945364836119 12.329681587746181 1 rotate no_reflect no_shear #
lump $-1 $-1 $48 $3 #
transform $-1 1 0 0 0 1 0 0 0 1 40.737327188940093 28.319945364836119 12.329681587746181 1 rotate no_reflect no_shear #
lump $-1 $-1 $49 $4 #
transform $-1 1 0 0 0 1 0 0 0 1 40.737327188940093 28.319945364836119 12.329681587746181 1 rotate no_reflect no_shear #
lump $-1 $-1 $50 $5 #
transform $-1 1 0 0 0 1 0 0 0 1 40.737327188940093 28.319945364836119 12.329681587746181 1 rotate no_reflect no_shear #
lump $-1 $-1 $51 $6 #
transform $-1 1 0 0 0 1 0 0 0 1 40.737327188940093 28.319945364836119 12.329681587746181 1 rotate no_reflect no_shear #
lump $-1 $-1 $52 $7 #
transform $-1 1 0 0 0 1 0 0 0 1 40.737327188940093 28.319945364836119 12.329681587746181 1 rotate no_reflect no_shear #
lump $-1 $-1 $53 $8 #
transform $-1 1 0 0 0 1 0 0 0 1 40.737327188940093 28.319945364836119 12.329681587746181 1 rotate no_reflect no_shear #
lump $-1 $-1 $54 $9 #
transform $-1 1 0 0 0 1 0 0 0 1 40.737327188940093 28.319945364836119 12.329681587746181 1 rotate no_reflect no_shear #
lump $-1 $-1 $55 $10 #
transform $-1 1 0 0 0 1 0 0 0 1 40.737327188940093 28.319945364836119 12.329681587746181 1 rotate no_reflect no_shear #
lump $-1 $-1 $56 $11 #
transform $-1 1 0 0 0 1 0 0 0 1 40.737327188940093 28.319945364836119 12.329681587746181 1 rotate no_reflect no_shear #
lump $-1 $-1 $57 $12 #
transform $-1 1 0 0 0 1 0 0 0 1 40.737327188940093 28.319945364836119 12.329681587746181 1 rotate no_reflect no_shear #
lump $-1 $-1 $58 $13 #
transform $-1 1 0 0 0 1 0 0 0 1 40.737327188940093 28.319945364836119 12.329681587746181 1 rotate no_reflect no_shear #
lump $-1 $-1 $59 $14 #
transform $-1 1 0 0 0 1 0 0 0 1 40.737327188940093 28.319945364836119 12.329681587746181 1 rotate no_reflect no_shear #
shell $-1 $-1 $-1 $60 $-1 $15 #
shell $-1 $-1 $-1 $61 $-1 $17 #
shell $-1 $-1 $-1 $62 $-1 $19 #
shell $-1 $-1 $-1 $63 $-1 $21 #
shell $-1 $-1 $-1 $64 $-1 $23 #
shell $-1 $-1 $-1 $65 $-1 $25 #
shell $-1 $-1 $-1 $66 $-1 $27 #
shell $-1 $-1 $-1 $67 $-1 $29 #
shell $-1 $-1 $-1 $68 $-1 $31 #
shell $-1 $-1 $-1 $69 $-1 $33 #
shell $-1 $-1 $-1 $70 $-1 $35 #
shell $-1 $-1 $-1 $71 $-1 $37 #
shell $-1 $-1 $-1 $72 $-1 $39 #
shell $-1 $-1 $-1 $73 $-1 $41 #
shell $-1 $-1 $-1 $74 $-1 $43 #
face $-1 $75 $76 $45 $-1 $77 forward single #
face $-1 $78 $79 $46 $-1 $80 forward single #
face $-1 $81 $82 $47 $-1 $83 forward single #
face $-1 $84 $85 $48 $-1 $86 reversed single #
face $-1 $87 $88 $49 $-1 $89 forward single #
face $-1 $90 $91 $50 $-1 $92 forward single #
face $-1 $93 $94 $51 $-1 $95 reversed single #
face $-1 $96 $97 $52 $-1 $98 forward single #
face $-1 $99 $100 $53 $-1 $101 forward single #
face $-1 $102 $103 $54 $-1 $104 reversed single #
face $-1 $105 $106 $55 $-1 $107 forward single #
face $-1 $108 $109 $56 $-1 $110 forward single #
face $-1 $111 $112 $57 $-1 $113 reversed single #
face $-1 $114 $115 $58 $-1 $116 forward single #
face $-1 $117 $118 $59 $-1 $119 forward single #
face $-1 $120 $121 $45 $-1 $122 reversed single #
loop $-1 $-1 $123 $60 #
plane-surface $-1 0 0 12.329681587746181 0 0 1 1 0 0 forward_v I I I I #
face $-1 $124 $125 $46 $-1 $126 reversed single #
loop $-1 $-1 $127 $61 #
plane-surface $-1 0 -28.319945364836119 0 0 1 0 0 0 1 forward_v I I I I #
face $-1 $128 $129 $47 $-1 $130 reversed single #
loop $-1 $-1 $131 $62 #
plane-surface $-1 0 28.319945364836119 0 0 -1 0 0 0 -1 forward_v I I I I #
face $-1 $132 $133 $48 $-1 $134 reversed single #
loop $-1 $-1 $135 $63 #
plane-surface $-1 62.722829971397765 -5.4722227480813004 114.08221487108524 0 -1 0 -0.82903758062907751 0 -0.55919289150049634 forward_v I I I I #
face $-1 $136 $137 $49 $-1 $138 forward single #
loop $-1 $139 $140 $64 #
cone-surface $-1 36.493939125190771 -10.044870683940509 6.373552826866236 -0.82903758062907751 0 -0.55919289150049634 0.27959644575024817 0 -0.41451879031453875 1 I I 0 1 0.5 forward I I I I #
face $-1 $141 $142 $50 $-1 $143 forward single #
loop $-1 $144 $145 $65 #
cone-surface $-1 36.493939125190771 -7.3012819224249839 6.373552826866236 -0.82903758062907751 0 -0.55919289150049634 0.27959644575024817 0 -0.41451879031453875 1 I I 0 1 0.5 forward I I I I #
face $-1 $146 $147 $51 $-1 $148 reversed single #
loop $-1 $-1 $149 $66 #
plane-surface $-1 62.722829971397765 5.4722227480813039 114.08221487108524 0 -1 0 -0.82903758062907751 0 -0.55919289150049634 forward_v I I I I #
face $-1 $150 $151 $52 $-1 $152 forward single #
loop $-1 $153 $154 $67 #
cone-surface $-1 36.493939125190771 0.89957481222209523 6.373552826866236 -0.82903758062907751 0 -0.55919289150049634 0.27959644575024817 0 -0.41451879031453875 1 I I 0 1 0.5 forward I I I I #
face $-1 $155 $156 $53 $-1 $157 forward single #
loop $-1 $158 $159 $68 #
cone-surface $-1 36.493939125190771 3.6431635737376205 6.373552826866236 -0.82903758062907751 0 -0.55919289150049634 0.27959644575024817 0 -0.41451879031453875 1 I I 0 1 0.5 forward I I I I #
face $-1 $160 $161 $54 $-1 $162 reversed single #
loop $-1 $-1 $163 $69 #
plane-surface $-1 62.722829971397765 16.416668244243905 114.08221487108524 0 -1 0 -0.82903758062907751 0 -0.55919289150049634 forward_v I I I I #
face $-1 $164 $165 $55 $-1 $166 forward single #
loop $-1 $167 $168 $70 #
cone-surface $-1 36.493939125190771 11.844020308384696 6.373552826866236 -0.82903758062907751 0 -0.55919289150049634 0.27959644575024817 0 -0.41451879031453875 1 I I 0 1 0.5 forward I I I I #
face $-1 $169 $170 $56 $-1 $171 forward single #
loop $-1 $172 $173 $71 #
cone-surface $-1 36.493939125190771 14.587609069900221 6.373552826866236 -0.82903758062907751 0 -0.55919289150049634 0.27959644575024817 0 -0.41451879031453875 1 I I 0 1 0.5 forward I I I I #
face $-1 $174 $175 $57 $-1 $176 reversed single #
loop $-1 $-1 $177 $72 #
plane-surface $-1 -93.108226170225691 -8.8121302603419913 71.419436308167676 0 1 0 -0.64278761758704617 0 0.76604443648966558 forward_v I I I I #
face $-1 $178 $179 $58 $-1 $180 forward single #
loop $-1 $181 $182 $73 #
cone-surface $-1 -38.134387525876789 -7.0461797486622544 9.926003240613575 0.64278761758704617 0 -0.76604443648966558 0.38302221824483279 0 0.32139380879352308 1 I I 0 1 0.5 forward I I I I #
face $-1 $183 $184 $59 $-1 $185 forward single #
loop $-1 $186 $187 $74 #
cone-surface $-1 -38.134387525876789 -4.3972539811426472 9.926003240613575 0.64278761758704617 0 -0.76604443648966558 0.38302221824483279 0 0.32139380879352308 1 I I 0 1 0.5 forward I I I I #
face $-1 $188 $189 $45 $-1 $190 reversed single #
loop $-1 $-1 $191 $75 #
plane-surface $-1 0 0 -12.329681587746181 0 0 1 1 0 0 forward_v I I I I #
coedge $-1 $192 $193 $194 $195 forward $76 $-1 #
face $-1 $196 $197 $46 $-1 $198 forward single #
loop $-1 $-1 $199 $78 #
plane-surface $-1 -40.737327188940093 0 0 1 0 0 0 0 -1 forward_v I I I I #
coedge $-1 $200 $201 $202 $203 forward $79 $-1 #
face $-1 $204 $205 $47 $-1 $206 forward single #
loop $-1 $-1 $207 $81 #
plane-surface $-1 40.737327188940093 0 0 -1 0 0 0 0 1 forward_v I I I I #
coedge $-1 $208 $209 $210 $211 forward $82 $-1 #
face $-1 $212 $213 $48 $-1 $214 reversed single #
loop $-1 $-1 $215 $84 #
plane-surface $-1 -4.8227203766303077 -8.6730763031827465 68.522167305514841 0.82903758062907751 0 0.55919289150049634 0.55919289150049634 0 -0.82903758062907751 forward_v I I I I #
coedge $-1 $216 $217 $218 $219 reversed $85 $-1 #
face $-1 $-1 $220 $49 $-1 $221 forward single #
loop $-1 $222 $223 $87 #
cone-surface $-1 35.87216093971896 -10.044870683940509 5.9541581582408636 -0.82903758062907751 0 -0.55919289150049634 0.13979822287512408 0 -0.20725939515726938 1 I I -0.70710678118654746 0.70710678118654746 0.25 forward I I I I #
loop $-1 $-1 $224 $64 #
coedge $-1 $140 $140 $225 $226 reversed $88 $-1 #
face $-1 $-1 $227 $50 $-1 $228 forward single #
loop $-1 $229 $230 $90 #
cone-surface $-1 35.87216093971896 -7.3012819224249839 5.9541581582408636 -0.82903758062907751 0 -0.55919289150049634 0.13979822287512408 0 -0.20725939515726938 1 I I -0.70710678118654746 0.70710678118654746 0.25 forward I I I I #
loop $-1 $-1 $231 $65 #
coedge $-1 $145 $145 $232 $233 reversed $91 $-1 #
face $-1 $234 $235 $51 $-1 $236 reversed single #
loop $-1 $-1 $237 $93 #
plane-surface $-1 -4.8227203766303077 2.2713691929798578 68.522167305514841 0.82903758062907751 0 0.55919289150049634 0.55919289150049634 0 -0.82903758062907751 forward_v I I I I #
coedge $-1 $238 $239 $240 $241 reversed $94 $-1 #
face $-1 $-1 $242 $52 $-1 $243 forward single #
loop $-1 $244 $245 $96 #
cone-surface $-1 35.87216093971896 0.89957481222209523 5.9541581582408636 -0.82903758062907751 0 -0.55919289150049634 0.13979822287512408 0 -0.20725939515726938 1 I I -0.70710678118654746 0.70710678118654746 0.25 forward I I I I #
loop $-1 $-1 $246 $67 #
coedge $-1 $154 $154 $247 $248 reversed $97 $-1 #
face $-1 $-1 $249 $53 $-1 $250 forward single #
loop $-1 $251 $252 $99 #
cone-surface $-1 35.87216093971896 3.6431635737376205 5.9541581582408636 -0.82903758062907751 0 -0.55919289150049634 0.13979822287512408 0 -0.20725939515726938 1 I I -0.70710678118654746 0.70710678118654746 0.25 forward I I I I #
loop $-1 $-1 $253 $68 #
coedge $-1 $159 $159 $254 $255 reversed $100 $-1 #
face $-1 $256 $257 $54 $-1 $258 reversed single #
loop $-1 $-1 $259 $102 #
plane-surface $-1 -4.8227203766303077 13.215814689142459 68.522167305514841 0.82903758062907751 0 0.55919289150049634 0.55919289150049634 0 -0.82903758062907751 forward_v I I I I #
coedge $-1 $260 $261 $262 $263 reversed $103 $-1 #
face $-1 $-1 $264 $55 $-1 $265 forward single #
loop $-1 $266 $267 $105 #
cone-surface $-1 35.87216093971896 11.844020308384696 5.9541581582408636 -0.82903758062907751 0 -0.55919289150049634 0.13979822287512408 0 -0.20725939515726938 1 I I -0.70710678118654746 0.70710678118654746 0.25 forward I I I I #
loop $-1 $-1 $268 $70 #
coedge $-1 $168 $168 $269 $270 reversed $106 $-1 #
face $-1 $-1 $271 $56 $-1 $272 forward single #
loop $-1 $273 $274 $108 #
cone-surface $-1 35.87216093971896 14.587609069900221 5.9541581582408636 -0.82903758062907751 0 -0.55919289150049634 0.13979822287512408 0 -0.20725939515726938 1 I I -0.70710678118654746 0.70710678118654746 0.25 forward I I I I #
loop $-1 $-1 $275 $71 #
coedge $-1 $173 $173 $276 $277 reversed $109 $-1 #
face $-1 $278 $279 $57 $-1 $280 reversed single #
loop $-1 $-1 $281 $111 #
plane-surface $-1 -40.737327188940085 -5.7217168649024508 9.0062306070741869 -0.64278761758704617 0 0.76604443648966558 0.76604443648966558 0 0.64278761758704617 forward_v I I I I #
coedge $-1 $282 $283 $284 $285 reversed $112 $-1 #
face $-1 $-1 $286 $58 $-1 $287 forward single #
loop $-1 $288 $289 $114 #
cone-surface $-1 -37.351118239951319 -7.0461797486622544 8.9925392746945558 0.64278761758704617 0 -0.76604443648966558 0.1915111091224164 0 0.16069690439676154 1 I I -0.70710678118654746 0.70710678118654746 0.25 forward I I I I #
loop $-1 $-1 $290 $73 #
coedge $-1 $182 $182 $291 $292 reversed $115 $-1 #
face $-1 $-1 $293 $59 $-1 $294 forward single #
loop $-1 $295 $296 $117 #
cone-surface $-1 -37.351118239951319 -4.3972539811426472 8.9925392746945558 0.64278761758704617 0 -0.76604443648966558 0.1915111091224164 0 0.16069690439676154 1 I I -0.70710678118654746 0.70710678118654746 0.25 forward I I I I #
loop $-1 $-1 $297 $74 #
coedge $-1 $187 $187 $298 $299 reversed $118 $-1 #
face $-1 $300 $301 $45 $-1 $302 reversed single #
loop $-1 $-1 $303 $120 #
plane-surface $-1 0 -28.319945364836119 0 0 1 0 0 0 1 forward_v I I I I #
coedge $-1 $304 $305 $306 $307 forward $121 $-1 #
coedge $-1 $308 $123 $309 $310 forward $76 $-1 #
coedge $-1 $123 $308 $311 $312 forward $76 $-1 #
coedge $-1 $313 $314 $123 $195 reversed $315 $-1 #
edge $-1 $316 -28.319945364836119 $317 28.319945364836119 $194 $318 forward 7 unknown #
face $-1 $319 $320 $46 $-1 $321 reversed single #
loop $-1 $-1 $322 $124 #
plane-surface $-1 0 -34.271583925132227 -3.1364821074876352 0 0 1 1 0 0 forward_v I I I I #
coedge $-1 $323 $324 $201 $325 forward $125 $-1 #
coedge $-1 $326 $127 $327 $328 reversed $79 $-1 #
coedge $-1 $127 $326 $199 $325 reversed $79 $-1 #
coedge $-1 $329 $322 $127 $203 reversed $197 $-1 #
edge $-1 $330 -40.737327188940093 $331 40.737327188940093 $202 $332 forward 7 unknown #
face $-1 $333 $334 $47 $-1 $335 reversed single #
loop $-1 $-1 $336 $128 #
plane-surface $-1 0 34.271583925132234 -3.1364821074876352 0 0 1 1 0 0 forward_v I I I I #
coedge $-1 $337 $338 $209 $339 forward $129 $-1 #
coedge $-1 $340 $131 $341 $342 reversed $82 $-1 #
coedge $-1 $131 $340 $207 $339 reversed $82 $-1 #
coedge $-1 $336 $343 $131 $211 reversed $205 $-1 #
edge $-1 $344 -40.737327188940093 $345 40.737327188940093 $210 $346 forward 7 unknown #
face $-1 $347 $348 $48 $-1 $349 forward single #
loop $-1 $-1 $350 $132 #
plane-surface $-1 62.722829971397765 -11.873929858284193 114.08221487108524 0 1 0 0.82903758062907751 0 0.55919289150049634 forward_v I I I I #
coedge $-1 $351 $352 $353 $354 reversed $133 $-1 #
coedge $-1 $217 $135 $355 $356 reversed $85 $-1 #
coedge $-1 $135 $216 $351 $357 reversed $85 $-1 #
coedge $-1 $353 $358 $135 $219 forward $348 $-1 #
edge $-1 $359 -9.3759122032412101 $360 -1.7181736563716434 $218 $361 forward 7 unknown #
loop $-1 $-1 $225 $136 #
plane-surface $-1 -4.8227203766303077 -8.6730763031827465 68.522167305514841 0.82903758062907751 0 0.55919289150049634 0.55919289150049634 0 -0.82903758062907751 forward_v I I I I #
loop $-1 $-1 $362 $87 #
coedge $-1 $223 $223 $224 $363 reversed $137 $-1 #
coedge $-1 $224 $224 $223 $363 forward $139 $-1 #
coedge $-1 $225 $225 $140 $226 forward $220 $-1 #
edge $-1 $364 0 $364 6.2831853071796004 $225 $365 forward 7 unknown #
loop $-1 $-1 $232 $141 #
plane-surface $-1 -4.8227203766303077 -8.6730763031827465 68.522167305514841 0.82903758062907751 0 0.55919289150049634 0.55919289150049634 0 -0.82903758062907751 forward_v I I I I #
loop $-1 $-1 $366 $90 #
coedge $-1 $230 $230 $231 $367 reversed $142 $-1 #
coedge $-1 $231 $231 $230 $367 forward $144 $-1 #
coedge $-1 $232 $232 $145 $233 forward $227 $-1 #
edge $-1 $368 0 $368 6.2831853071796004 $232 $369 forward 7 unknown #
face $-1 $370 $371 $51 $-1 $372 reversed single #
loop $-1 $-1 $373 $146 #
plane-surface $-1 62.722829971397765 -0.92948436212158825 114.08221487108524 0 1 0 0.82903758062907751 0 0.55919289150049634 forward_v I I I I #
coedge $-1 $374 $375 $376 $377 reversed $147 $-1 #
coedge $-1 $239 $149 $378 $379 reversed $94 $-1 #
coedge $-1 $149 $238 $374 $380 reversed $94 $-1 #
coedge $-1 $376 $381 $149 $241 forward $382 $-1 #
edge $-1 $383 -9.3759122032412101 $384 -1.7181736563716434 $240 $385 forward 7 unknown #
loop $-1 $-1 $247 $150 #
plane-surface $-1 -4.8227203766303077 2.2713691929798578 68.522167305514841 0.82903758062907751 0 0.55919289150049634 0.55919289150049634 0 -0.82903758062907751 forward_v I I I I #
loop $-1 $-1 $386 $96 #
coedge $-1 $245 $245 $246 $387 reversed $151 $-1 #
coedge $-1 $246 $246 $245 $387 forward $153 $-1 #
coedge $-1 $247 $247 $154 $248 forward $242 $-1 #
edge $-1 $388 0 $388 6.2831853071796004 $247 $389 forward 7 unknown #
loop $-1 $-1 $254 $155 #
plane-surface $-1 -4.8227203766303077 2.2713691929798578 68.522167305514841 0.82903758062907751 0 0.55919289150049634 0.55919289150049634 0 -0.82903758062907751 forward_v I I I I #
loop $-1 $-1 $390 $99 #
coedge $-1 $252 $252 $253 $391 reversed $156 $-1 #
coedge $-1 $253 $253 $252 $391 forward $158 $-1 #
coedge $-1 $254 $254 $159 $255 forward $249 $-1 #
edge $-1 $392 0 $392 6.2831853071796004 $254 $393 forward 7 unknown #
face $-1 $394 $395 $54 $-1 $396 reversed single #
loop $-1 $-1 $397 $160 #
plane-surface $-1 62.722829971397765 10.014961134041013 114.08221487108524 0 1 0 0.82903758062907751 0 0.55919289150049634 forward_v I I I I #
coedge $-1 $398 $399 $400 $401 reversed $161 $-1 #
coedge $-1 $261 $163 $402 $403 reversed $103 $-1 #
coedge $-1 $163 $260 $398 $404 reversed $103 $-1 #
coedge $-1 $400 $405 $163 $263 forward $406 $-1 #
edge $-1 $407 -9.3759122032412101 $408 -1.7181736563716434 $262 $409 forward 7 unknown #
loop $-1 $-1 $269 $164 #
plane-surface $-1 -4.8227203766303077 13.215814689142459 68.522167305514841 0.82903758062907751 0 0.55919289150049634 0.55919289150049634 0 -0.82903758062907751 forward_v I I I I #
loop $-1 $-1 $410 $105 #
coedge $-1 $267 $267 $268 $411 reversed $165 $-1 #
coedge $-1 $268 $268 $267 $411 forward $167 $-1 #
coedge $-1 $269 $269 $168 $270 forward $264 $-1 #
edge $-1 $412 0 $412 6.2831853071796004 $269 $413 forward 7 unknown #
loop $-1 $-1 $276 $169 #
plane-surface $-1 -4.8227203766303077 13.215814689142459 68.522167305514841 0.82903758062907751 0 0.55919289150049634 0.55919289150049634 0 -0.82903758062907751 forward_v I I I I #
loop $-1 $-1 $414 $108 #
coedge $-1 $274 $274 $275 $415 reversed $170 $-1 #
coedge $-1 $275 $275 $274 $415 forward $172 $-1 #
coedge $-1 $276 $276 $173 $277 forward $271 $-1 #
edge $-1 $416 0 $416 6.2831853071796004 $276 $417 forward 7 unknown #
face $-1 $418 $419 $57 $-1 $420 reversed single #
loop $-1 $-1 $421 $174 #
plane-surface $-1 -93.108226170225691 -2.6313034694629103 71.419436308167676 0 -1 0 0.64278761758704617 0 -0.76604443648966558 forward_v I I I I #
coedge $-1 $422 $423 $424 $425 reversed $175 $-1 #
coedge $-1 $283 $177 $426 $427 reversed $112 $-1 #
coedge $-1 $177 $282 $422 $428 reversed $112 $-1 #
coedge $-1 $424 $429 $177 $285 forward $430 $-1 #
edge $-1 $431 5.8167858961727532 $432 9.7775204592419342 $284 $433 forward 7 unknown #
loop $-1 $-1 $291 $178 #
plane-surface $-1 -40.737327188940085 -5.7217168649024508 9.0062306070741869 -0.64278761758704617 0 0.76604443648966558 0.76604443648966558 0 0.64278761758704617 forward_v I I I I #
loop $-1 $-1 $434 $114 #
coedge $-1 $289 $289 $290 $435 reversed $179 $-1 #
coedge $-1 $290 $290 $289 $435 forward $181 $-1 #
coedge $-1 $291 $291 $182 $292 forward $286 $-1 #
edge $-1 $436 0 $436 6.2831853071796004 $291 $437 forward 7 unknown #
loop $-1 $-1 $298 $183 #
plane-surface $-1 -40.737327188940085 -5.7217168649024508 9.0062306070741869 -0.64278761758704617 0 0.76604443648966558 0.76604443648966558 0 0.64278761758704617 forward_v I I I I #
loop $-1 $-1 $438 $117 #
coedge $-1 $296 $296 $297 $439 reversed $184 $-1 #
coedge $-1 $297 $297 $296 $439 forward $186 $-1 #
coedge $-1 $298 $298 $187 $299 forward $293 $-1 #
edge $-1 $440 0 $440 6.2831853071796004 $298 $441 forward 7 unknown #
face $-1 $442 $443 $45 $-1 $444 reversed single #
loop $-1 $-1 $445 $188 #
plane-surface $-1 -40.737327188940093 0 0 1 0 0 0 0 -1 forward_v I I I I #
coedge $-1 $446 $311 $447 $448 forward $189 $-1 #
coedge $-1 $449 $191 $446 $450 forward $121 $-1 #
coedge $-1 $191 $449 $451 $452 forward $121 $-1 #
coedge $-1 $314 $313 $191 $307 reversed $315 $-1 #
edge $-1 $453 -28.319945364836119 $454 28.319945364836119 $306 $455 forward 7 unknown #
coedge $-1 $193 $192 $456 $457 forward $76 $-1 #
coedge $-1 $458 $459 $192 $310 reversed $443 $-1 #
edge $-1 $317 -40.737327188940093 $460 40.737327188940093 $309 $461 forward 7 unknown #
coedge $-1 $303 $462 $193 $312 reversed $189 $-1 #
edge $-1 $463 -40.737327188940093 $316 40.737327188940093 $311 $464 forward 7 unknown #
coedge $-1 $306 $194 $462 $465 forward $315 $-1 #
coedge $-1 $194 $306 $458 $466 reversed $315 $-1 #
loop $-1 $-1 $313 $442 #
vertex $-1 $195 $467 #
vertex $-1 $195 $468 #
straight-curve $-1 40.737327188940093 0 12.329681587746181 0 1 0 I I #
face $-1 $469 $470 $46 $-1 $471 reversed single #
loop $-1 $-1 $472 $196 #
plane-surface $-1 0 -34.271583925132227 -9.4116115964920599 0 0 1 1 0 0 forward_v I I I I #
coedge $-1 $202 $473 $474 $475 forward $197 $-1 #
coedge $-1 $476 $199 $477 $478 reversed $125 $-1 #
coedge $-1 $199 $476 $329 $479 reversed $125 $-1 #
edge $-1 $330 3.1364821074876352 $480 9.4116115964920599 $199 $481 forward 7 unknown #
coedge $-1 $201 $200 $482 $483 forward $79 $-1 #
coedge $-1 $474 $484 $200 $328 forward $485 $-1 #
edge $-1 $486 -9.4116115964920599 $331 -3.1364821074876352 $327 $487 forward 7 unknown #
coedge $-1 $473 $202 $324 $479 forward $197 $-1 #
vertex $-1 $325 $488 #
vertex $-1 $475 $489 #
straight-curve $-1 0 -28.319945364836119 -3.1364821074876352 1 0 0 I I #
face $-1 $490 $491 $47 $-1 $492 reversed single #
loop $-1 $-1 $493 $204 #
plane-surface $-1 0 34.271583925132234 -9.4116115964920599 0 0 1 1 0 0 forward_v I I I I #
coedge $-1 $494 $210 $338 $495 forward $205 $-1 #
coedge $-1 $496 $207 $493 $497 reversed $129 $-1 #
coedge $-1 $207 $496 $336 $495 reversed $129 $-1 #
edge $-1 $344 3.1364821074876352 $498 9.4116115964920599 $207 $499 forward 7 unknown #
coedge $-1 $209 $208 $500 $501 forward $82 $-1 #
coedge $-1 $502 $503 $208 $342 forward $504 $-1 #
edge $-1 $505 -9.4116115964920599 $345 -3.1364821074876352 $341 $506 forward 7 unknown #
coedge $-1 $210 $494 $502 $507 forward $205 $-1 #
vertex $-1 $339 $508 #
vertex $-1 $507 $509 #
straight-curve $-1 0 28.319945364836119 -3.1364821074876352 -1 0 0 I I #
face $-1 $-1 $510 $48 $-1 $511 reversed single #
loop $-1 $-1 $218 $212 #
plane-surface $-1 0 0 12.329681587746181 0 0 1 1 0 0 forward_v I I I I #
coedge $-1 $512 $513 $514 $515 reversed $213 $-1 #
coedge $-1 $516 $215 $217 $357 forward $133 $-1 #
coedge $-1 $215 $516 $512 $517 forward $133 $-1 #
coedge $-1 $514 $218 $215 $354 forward $348 $-1 #
edge $-1 $360 1.1356845964899271 $518 7.5373917066928193 $353 $519 forward 7 unknown #
coedge $-1 $520 $521 $216 $356 forward $510 $-1 #
edge $-1 $522 -56.064490478055852 $359 -44.711425847796441 $355 $523 forward 7 unknown #
edge $-1 $360 67.780384183705578 $522 81.474654377880199 $217 $524 forward 7 unknown #
coedge $-1 $218 $514 $520 $525 forward $348 $-1 #
vertex $-1 $356 $526 #
vertex $-1 $219 $527 #
straight-curve $-1 31.361414985698882 -5.4722227480813004 12.32968158774618 -1 0 0 I I #
coedge $-1 $362 $362 $-1 $528 reversed $222 $-1 #
edge $-1 $529 0 $529 6.2831853071796004 $223 $530 forward 7 unknown #
vertex $-1 $226 $531 #
ellipse-curve $-1 36.908457915505295 -10.044870683940509 6.653149272616476 0.82903758062907751 0 0.55919289150049634 0.27959644575024817 0 -0.41451879031453875 1 I I #
coedge $-1 $366 $366 $-1 $532 reversed $229 $-1 #
edge $-1 $533 0 $533 6.2831853071796004 $230 $534 forward 7 unknown #
vertex $-1 $233 $535 #
ellipse-curve $-1 36.908457915505295 -7.3012819224249839 6.653149272616476 0.82903758062907751 0 0.55919289150049634 0.27959644575024817 0 -0.41451879031453875 1 I I #
face $-1 $-1 $382 $51 $-1 $536 forward single #
loop $-1 $-1 $537 $234 #
plane-surface $-1 40.737327188940093 0 0 -1 0 0 0 0 1 forward_v I I I I #
coedge $-1 $538 $539 $540 $541 reversed $235 $-1 #
coedge $-1 $542 $237 $239 $380 forward $147 $-1 #
coedge $-1 $237 $542 $538 $543 forward $147 $-1 #
coedge $-1 $540 $240 $237 $377 forward $382 $-1 #
edge $-1 $384 -4.336538151591375 $544 2.0651689586115172 $376 $545 forward 7 unknown #
coedge $-1 $546 $547 $238 $379 forward $371 $-1 #
edge $-1 $548 -56.064490478055852 $383 -44.711425847796441 $378 $549 forward 7 unknown #
edge $-1 $384 67.780384183705578 $548 81.474654377880199 $239 $550 forward 7 unknown #
coedge $-1 $240 $540 $546 $551 forward $382 $-1 #
loop $-1 $-1 $540 $370 #
vertex $-1 $379 $552 #
vertex $-1 $241 $553 #
straight-curve $-1 31.361414985698882 5.4722227480813039 12.32968158774618 -1 0 0 I I #
coedge $-1 $386 $386 $-1 $554 reversed $244 $-1 #
edge $-1 $555 0 $555 6.2831853071796004 $245 $556 forward 7 unknown #
vertex $-1 $248 $557 #
ellipse-curve $-1 36.908457915505295 0.89957481222209523 6.653149272616476 0.82903758062907751 0 0.55919289150049634 0.27959644575024817 0 -0.41451879031453875 1 I I #
coedge $-1 $390 $390 $-1 $558 reversed $251 $-1 #
edge $-1 $559 0 $559 6.2831853071796004 $252 $560 forward 7 unknown #
vertex $-1 $255 $561 #
ellipse-curve $-1 36.908457915505295 3.6431635737376205 6.653149272616476 0.82903758062907751 0 0.55919289150049634 0.27959644575024817 0 -0.41451879031453875 1 I I #
face $-1 $-1 $406 $54 $-1 $562 forward single #
loop $-1 $-1 $563 $256 #
plane-surface $-1 40.737327188940093 0 0 -1 0 0 0 0 1 forward_v I I I I #
coedge $-1 $564 $565 $566 $567 reversed $257 $-1 #
coedge $-1 $568 $259 $261 $404 forward $161 $-1 #
coedge $-1 $259 $568 $564 $569 forward $161 $-1 #
coedge $-1 $566 $262 $259 $401 forward $406 $-1 #
edge $-1 $408 -9.8087608996726754 $570 -3.4070537894697832 $400 $571 forward 7 unknown #
coedge $-1 $572 $573 $260 $403 forward $395 $-1 #
edge $-1 $574 -56.064490478055852 $407 -44.711425847796441 $402 $575 forward 7 unknown #
edge $-1 $408 67.780384183705578 $574 81.474654377880199 $261 $576 forward 7 unknown #
coedge $-1 $262 $566 $572 $577 forward $406 $-1 #
loop $-1 $-1 $566 $394 #
vertex $-1 $403 $578 #
vertex $-1 $263 $579 #
straight-curve $-1 31.361414985698882 16.416668244243905 12.32968158774618 -1 0 0 I I #
coedge $-1 $410 $410 $-1 $580 reversed $266 $-1 #
edge $-1 $581 0 $581 6.2831853071796004 $267 $582 forward 7 unknown #
vertex $-1 $270 $583 #
ellipse-curve $-1 36.908457915505295 11.844020308384696 6.653149272616476 0.82903758062907751 0 0.55919289150049634 0.27959644575024817 0 -0.41451879031453875 1 I I #
coedge $-1 $414 $414 $-1 $584 reversed $273 $-1 #
edge $-1 $585 0 $585 6.2831853071796004 $274 $586 forward 7 unknown #
vertex $-1 $277 $587 #
ellipse-curve $-1 36.908457915505295 14.587609069900221 6.653149272616476 0.82903758062907751 0 0.55919289150049634 0.27959644575024817 0 -0.41451879031453875 1 I I #
face $-1 $-1 $430 $57 $-1 $588 forward single #
loop $-1 $-1 $589 $278 #
plane-surface $-1 -40.737327188940093 0 0 1 0 0 0 0 -1 forward_v I I I I #
coedge $-1 $590 $591 $592 $593 reversed $279 $-1 #
coedge $-1 $594 $281 $283 $428 forward $175 $-1 #
coedge $-1 $281 $594 $590 $595 forward $175 $-1 #
coedge $-1 $592 $284 $281 $425 forward $430 $-1 #
edge $-1 $432 -5.9512718278907659 $596 0.22955496298831513 $424 $597 forward 7 unknown #
coedge $-1 $598 $599 $282 $427 forward $419 $-1 #
edge $-1 $600 -26.703487547009658 $431 -23.380036566337658 $426 $601 forward 7 unknown #
edge $-1 $432 -5.17037181448495 $600 8.8685336385193395e-015 $283 $602 forward 7 unknown #
coedge $-1 $284 $592 $598 $603 forward $430 $-1 #
loop $-1 $-1 $592 $418 #
vertex $-1 $427 $604 #
vertex $-1 $285 $605 #
straight-curve $-1 -46.554113085112846 -8.8121302603419913 12.32968158774618 1 0 0 I I #
coedge $-1 $434 $434 $-1 $606 reversed $288 $-1 #
edge $-1 $607 0 $607 6.2831853071796004 $289 $608 forward 7 unknown #
vertex $-1 $292 $609 #
ellipse-curve $-1 -38.756959907405502 -7.0461797486622544 10.66795609741018 -0.64278761758704617 0 0.76604443648966558 0.38302221824483279 0 0.32139380879352308 1 I I #
coedge $-1 $438 $438 $-1 $610 reversed $295 $-1 #
edge $-1 $611 0 $611 6.2831853071796004 $296 $612 forward 7 unknown #
vertex $-1 $299 $613 #
ellipse-curve $-1 -38.756959907405502 -4.3972539811426472 10.66795609741018 -0.64278761758704617 0 0.76604443648966558 0.38302221824483279 0 0.32139380879352308 1 I I #
face $-1 $-1 $315 $45 $-1 $614 reversed single #
loop $-1 $-1 $459 $300 #
plane-surface $-1 0 28.319945364836119 0 0 -1 0 0 0 -1 forward_v I I I I #
coedge $-1 $615 $456 $459 $616 forward $301 $-1 #
coedge $-1 $462 $303 $304 $450 reversed $189 $-1 #
coedge $-1 $456 $615 $303 $448 reversed $301 $-1 #
edge $-1 $463 -12.329681587746181 $617 12.329681587746181 $447 $618 forward 7 unknown #
coedge $-1 $305 $304 $615 $619 forward $121 $-1 #
edge $-1 $454 -40.737327188940093 $617 40.737327188940093 $446 $620 forward 7 unknown #
coedge $-1 $459 $458 $305 $452 reversed $443 $-1 #
edge $-1 $621 -40.737327188940093 $453 40.737327188940093 $451 $622 forward 7 unknown #
vertex $-1 $307 $623 #
vertex $-1 $465 $624 #
straight-curve $-1 40.737327188940093 0 -12.329681587746181 0 -1 0 I I #
coedge $-1 $445 $447 $308 $457 reversed $301 $-1 #
edge $-1 $460 -28.319945364836119 $463 28.319945364836119 $456 $625 forward 7 unknown #
coedge $-1 $451 $309 $314 $466 forward $443 $-1 #
coedge $-1 $309 $451 $445 $616 reversed $443 $-1 #
vertex $-1 $310 $626 #
straight-curve $-1 0 28.319945364836119 12.329681587746181 -1 0 0 I I #
coedge $-1 $311 $446 $313 $465 reversed $189 $-1 #
vertex $-1 $457 $627 #
straight-curve $-1 0 -28.319945364836119 12.329681587746181 1 0 0 I I #
edge $-1 $316 -12.329681587746181 $454 12.329681587746181 $313 $628 forward 7 unknown #
edge $-1 $317 -12.329681587746181 $453 12.329681587746181 $314 $629 forward 7 unknown #
point $-1 40.737327188940093 -28.319945364836119 12.329681587746181 #
point $-1 40.737327188940093 28.319945364836119 12.329681587746181 #
face $-1 $-1 $485 $46 $-1 $630 reversed single #
loop $-1 $-1 $631 $319 #
plane-surface $-1 0 -40.223222485428337 -6.2740468519898478 0 1 0 0 0 1 forward_v I I I I #
coedge $-1 $632 $482 $484 $633 forward $320 $-1 #
coedge $-1 $322 $329 $634 $635 forward $197 $-1 #
coedge $-1 $636 $327 $322 $475 reversed $485 $-1 #
edge $-1 $637 -5.9516385602961108 $331 5.9516385602961073 $474 $638 forward 7 unknown #
coedge $-1 $324 $323 $631 $639 reversed $125 $-1 #
coedge $-1 $482 $632 $323 $478 forward $320 $-1 #
edge $-1 $640 -5.9516385602961108 $480 5.9516385602961073 $323 $641 forward 7 unknown #
edge $-1 $330 -5.9516385602961073 $642 5.9516385602961108 $324 $643 forward 7 unknown #
vertex $-1 $325 $644 #
straight-curve $-1 -40.737327188940093 -28.319945364836119 0 0 0 -1 I I #
coedge $-1 $472 $477 $326 $483 reversed $320 $-1 #
edge $-1 $486 -40.737327188940093 $480 40.737327188940093 $482 $645 forward 7 unknown #
coedge $-1 $327 $636 $472 $633 reversed $485 $-1 #
loop $-1 $-1 $327 $469 #
vertex $-1 $328 $646 #
straight-curve $-1 40.737327188940093 -28.319945364836119 0 0 0 1 I I #
point $-1 -40.737327188940093 -28.319945364836119 -3.1364821074876352 #
point $-1 40.737327188940093 -28.319945364836119 -3.1364821074876352 #
face $-1 $-1 $504 $47 $-1 $647 reversed single #
loop $-1 $-1 $648 $333 #
plane-surface $-1 0 40.223222485428337 -6.2740468519898478 0 -1 0 0 0 -1 forward_v I I I I #
coedge $-1 $500 $649 $337 $497 forward $334 $-1 #
coedge $-1 $343 $336 $650 $651 forward $205 $-1 #
edge $-1 $344 -5.9516385602961073 $652 5.9516385602961037 $338 $653 forward 7 unknown #
coedge $-1 $338 $337 $648 $654 reversed $129 $-1 #
edge $-1 $655 -5.9516385602961037 $498 5.9516385602961073 $337 $656 forward 7 unknown #
vertex $-1 $339 $657 #
straight-curve $-1 40.737327188940093 28.319945364836119 0 0 0 -1 I I #
coedge $-1 $658 $493 $340 $501 reversed $334 $-1 #
edge $-1 $505 -40.737327188940093 $498 40.737327188940093 $500 $659 forward 7 unknown #
coedge $-1 $660 $341 $343 $507 reversed $504 $-1 #
coedge $-1 $341 $660 $658 $661 reversed $504 $-1 #
loop $-1 $-1 $341 $490 #
vertex $-1 $342 $662 #
straight-curve $-1 -40.737327188940093 28.319945364836119 0 0 0 1 I I #
edge $-1 $663 -5.9516385602961037 $345 5.9516385602961073 $502 $664 forward 7 unknown #
point $-1 40.737327188940093 28.319945364836126 -3.1364821074876352 #
point $-1 -40.737327188940093 28.319945364836126 -3.1364821074876352 #
loop $-1 $-1 $355 $347 #
plane-surface $-1 40.737327188940093 0 0 -1 0 0 0 0 1 forward_v I I I I #
coedge $-1 $513 $350 $352 $517 reversed $213 $-1 #
coedge $-1 $350 $512 $665 $666 reversed $213 $-1 #
coedge $-1 $358 $353 $350 $515 forward $348 $-1 #
edge $-1 $518 1.7181736563716434 $667 9.3759122032412101 $514 $668 forward 7 unknown #
coedge $-1 $352 $351 $521 $669 reversed $133 $-1 #
edge $-1 $670 -81.474654377880199 $518 -67.780384183705578 $512 $671 forward 7 unknown #
vertex $-1 $354 $672 #
straight-curve $-1 33.079588642070526 -4.3365381515913732 12.32968158774618 0 -1 0 I I #
coedge $-1 $665 $355 $358 $525 reversed $510 $-1 #
coedge $-1 $355 $665 $516 $669 forward $510 $-1 #
vertex $-1 $356 $673 #
straight-curve $-1 40.737327188940093 -5.4722227480813004 57.041107435542621 0 0 1 I I #
straight-curve $-1 -4.8227203766303077 -5.4722227480813004 68.522167305514841 0.55919289150049634 0 -0.82903758062907751 I I #
edge $-1 $667 -11.873929858284193 $359 -5.4722227480813004 $520 $674 forward 7 unknown #
point $-1 40.737327188940093 -5.4722227480813004 12.329681587746181 #
point $-1 33.079588642070526 -5.4722227480813004 12.32968158774618 #
edge $-1 $675 1 $675 0 $362 $-1 forward 7 unknown #
vertex $-1 $363 $676 #
ellipse-curve $-1 36.079420334876232 -10.044870683940509 6.093956381115988 0.82903758062907751 0 0.55919289150049634 0.27959644575024817 0 -0.41451879031453875 1 I I #
point $-1 37.188054361255553 -10.044870683940509 6.2386304823019456 #
edge $-1 $677 1 $677 0 $366 $-1 forward 7 unknown #
vertex $-1 $367 $678 #
ellipse-curve $-1 36.079420334876232 -7.3012819224249839 6.093956381115988 0.82903758062907751 0 0.55919289150049634 0.27959644575024817 0 -0.41451879031453875 1 I I #
point $-1 37.188054361255553 -7.3012819224249839 6.2386304823019456 #
plane-surface $-1 0 0 12.329681587746181 0 0 1 1 0 0 forward_v I I I I #
coedge $-1 $547 $546 $539 $679 forward $371 $-1 #
coedge $-1 $539 $373 $375 $543 reversed $235 $-1 #
coedge $-1 $373 $538 $537 $679 reversed $235 $-1 #
coedge $-1 $381 $376 $373 $541 forward $382 $-1 #
edge $-1 $544 1.7181736563716434 $680 9.3759122032412101 $540 $681 forward 7 unknown #
coedge $-1 $375 $374 $547 $682 reversed $147 $-1 #
edge $-1 $683 -81.474654377880199 $544 -67.780384183705578 $538 $684 forward 7 unknown #
vertex $-1 $377 $685 #
straight-curve $-1 33.079588642070526 1.1356845964899289 12.32968158774618 0 -1 0 I I #
coedge $-1 $537 $378 $381 $551 reversed $371 $-1 #
coedge $-1 $378 $537 $542 $682 forward $371 $-1 #
vertex $-1 $379 $686 #
straight-curve $-1 40.737327188940093 5.4722227480813039 57.041107435542621 0 0 1 I I #
straight-curve $-1 -4.8227203766303077 5.4722227480813039 68.522167305514841 0.55919289150049634 0 -0.82903758062907751 I I #
edge $-1 $680 -0.92948436212158825 $383 5.4722227480813039 $546 $687 forward 7 unknown #
point $-1 40.737327188940093 5.4722227480813039 12.329681587746181 #
point $-1 33.079588642070526 5.4722227480813039 12.32968158774618 #
edge $-1 $688 1 $688 0 $386 $-1 forward 7 unknown #
vertex $-1 $387 $689 #
ellipse-curve $-1 36.079420334876232 0.89957481222209523 6.093956381115988 0.82903758062907751 0 0.55919289150049634 0.27959644575024817 0 -0.41451879031453875 1 I I #
point $-1 37.188054361255553 0.89957481222209523 6.2386304823019456 #
edge $-1 $690 1 $690 0 $390 $-1 forward 7 unknown #
vertex $-1 $391 $691 #
ellipse-curve $-1 36.079420334876232 3.6431635737376205 6.093956381115988 0.82903758062907751 0 0.55919289150049634 0.27959644575024817 0 -0.41451879031453875 1 I I #
point $-1 37.188054361255553 3.6431635737376205 6.2386304823019456 #
plane-surface $-1 0 0 12.329681587746181 0 0 1 1 0 0 forward_v I I I I #
coedge $-1 $573 $572 $565 $692 forward $395 $-1 #
coedge $-1 $565 $397 $399 $569 reversed $257 $-1 #
coedge $-1 $397 $564 $563 $692 reversed $257 $-1 #
coedge $-1 $405 $400 $397 $567 forward $406 $-1 #
edge $-1 $570 1.7181736563716434 $693 9.3759122032412101 $566 $694 forward 7 unknown #
coedge $-1 $399 $398 $573 $695 reversed $161 $-1 #
edge $-1 $696 -81.474654377880199 $570 -67.780384183705578 $564 $697 forward 7 unknown #
vertex $-1 $401 $698 #
straight-curve $-1 33.079588642070526 6.6079073445712293 12.32968158774618 0 -1 0 I I #
coedge $-1 $563 $402 $405 $577 reversed $395 $-1 #
coedge $-1 $402 $563 $568 $695 forward $395 $-1 #
vertex $-1 $403 $699 #
straight-curve $-1 40.737327188940093 16.416668244243905 57.041107435542621 0 0 1 I I #
straight-curve $-1 -4.8227203766303077 16.416668244243905 68.522167305514841 0.55919289150049634 0 -0.82903758062907751 I I #
edge $-1 $693 10.014961134041013 $407 16.416668244243905 $572 $700 forward 7 unknown #
point $-1 40.737327188940093 16.416668244243905 12.329681587746181 #
point $-1 33.079588642070526 16.416668244243905 12.32968158774618 #
edge $-1 $701 1 $701 0 $410 $-1 forward 7 unknown #
vertex $-1 $411 $702 #
ellipse-curve $-1 36.079420334876232 11.844020308384696 6.093956381115988 0.82903758062907751 0 0.55919289150049634 0.27959644575024817 0 -0.41451879031453875 1 I I #
point $-1 37.188054361255553 11.844020308384696 6.2386304823019456 #
edge $-1 $703 1 $703 0 $414 $-1 forward 7 unknown #
vertex $-1 $415 $704 #
ellipse-curve $-1 36.079420334876232 14.587609069900221 6.093956381115988 0.82903758062907751 0 0.55919289150049634 0.27959644575024817 0 -0.41451879031453875 1 I I #
point $-1 37.188054361255553 14.587609069900221 6.2386304823019456 #
plane-surface $-1 0 0 12.329681587746181 0 0 1 1 0 0 forward_v I I I I #
coedge $-1 $599 $598 $591 $705 forward $419 $-1 #
coedge $-1 $591 $421 $423 $595 reversed $279 $-1 #
coedge $-1 $421 $590 $589 $705 reversed $279 $-1 #
coedge $-1 $429 $424 $421 $593 forward $430 $-1 #
edge $-1 $596 -9.7775204592419342 $706 -5.8167858961727532 $592 $707 forward 7 unknown #
coedge $-1 $423 $422 $599 $708 reversed $175 $-1 #
edge $-1 $709 -8.8685336385193395e-015 $596 5.17037181448495 $590 $710 forward 7 unknown #
vertex $-1 $425 $711 #
straight-curve $-1 -36.776592625870911 -2.8608584324512254 12.329681587746183 0 1 0 I I #
coedge $-1 $589 $426 $429 $603 reversed $419 $-1 #
coedge $-1 $426 $589 $594 $708 forward $419 $-1 #
vertex $-1 $427 $712 #
straight-curve $-1 -40.737327188940093 -8.8121302603419913 35.709718154083838 0 0 1 I I #
straight-curve $-1 -40.737327188940085 -8.8121302603419913 9.0062306070741869 -0.76604443648966558 0 -0.64278761758704617 I I #
edge $-1 $706 2.6313034694629103 $431 8.8121302603419913 $598 $713 forward 7 unknown #
point $-1 -40.737327188940093 -8.8121302603419913 12.329681587746181 #
point $-1 -36.776592625870911 -8.8121302603419913 12.329681587746181 #
edge $-1 $714 1 $714 0 $434 $-1 forward 7 unknown #
vertex $-1 $435 $715 #
ellipse-curve $-1 -37.511815144348077 -7.0461797486622544 9.184050383816972 -0.64278761758704617 0 0.76604443648966558 0.38302221824483279 0 0.32139380879352308 1 I I #
point $-1 -38.37393768916067 -7.0461797486622544 10.989349906203699 #
edge $-1 $716 1 $716 0 $438 $-1 forward 7 unknown #
vertex $-1 $439 $717 #
ellipse-curve $-1 -37.511815144348077 -4.3972539811426472 9.184050383816972 -0.64278761758704617 0 0.76604443648966558 0.38302221824483279 0 0.32139380879352308 1 I I #
point $-1 -38.37393768916067 -4.3972539811426472 10.989349906203699 #
plane-surface $-1 40.737327188940093 0 0 -1 0 0 0 0 1 forward_v I I I I #
coedge $-1 $447 $445 $449 $619 reversed $301 $-1 #
edge $-1 $460 -12.329681587746181 $621 12.329681587746181 $459 $718 forward 7 unknown #
vertex $-1 $619 $719 #
straight-curve $-1 -40.737327188940093 -28.319945364836119 0 0 0 -1 I I #
edge $-1 $617 -28.319945364836119 $621 28.319945364836119 $615 $720 forward 7 unknown #
straight-curve $-1 0 -28.319945364836119 -12.329681587746181 -1 0 0 I I #
vertex $-1 $452 $721 #
straight-curve $-1 0 28.319945364836119 -12.329681587746181 1 0 0 I I #
point $-1 40.737327188940093 28.319945364836119 -12.329681587746181 #
point $-1 40.737327188940093 -28.319945364836119 -12.329681587746181 #
straight-curve $-1 -40.737327188940093 0 12.329681587746181 0 -1 0 I I #
point $-1 -40.737327188940093 28.319945364836119 12.329681587746181 #
point $-1 -40.737327188940093 -28.319945364836119 12.329681587746181 #
straight-curve $-1 40.737327188940093 -28.319945364836119 0 0 0 -1 I I #
straight-curve $-1 40.737327188940093 28.319945364836119 0 0 0 -1 I I #
plane-surface $-1 40.737327188940093 0 0 -1 0 0 0 0 1 forward_v I I I I #
coedge $-1 $722 $634 $476 $639 forward $470 $-1 #
coedge $-1 $477 $472 $722 $723 forward $320 $-1 #
edge $-1 $486 -5.9516385602961073 $724 5.9516385602961108 $484 $725 forward 7 unknown #
coedge $-1 $631 $726 $473 $635 reversed $470 $-1 #
edge $-1 $642 -40.737327188940093 $637 40.737327188940093 $634 $727 forward 7 unknown #
coedge $-1 $484 $474 $726 $728 forward $485 $-1 #
vertex $-1 $475 $729 #
straight-curve $-1 40.737327188940093 -34.271583925132227 -3.1364821074876352 0 1 0 I I #
edge $-1 $642 -3.1375647445022126 $640 3.1375647445022121 $476 $730 forward 7 unknown #
vertex $-1 $478 $731 #
straight-curve $-1 -40.737327188940093 -34.271583925132227 -9.4116115964920599 0 1 0 I I #
vertex $-1 $479 $732 #
straight-curve $-1 -40.737327188940093 -34.271583925132227 -3.1364821074876352 0 -1 0 I I #
point $-1 -40.737327188940093 -28.319945364836119 -9.4116115964920599 #
straight-curve $-1 0 -28.319945364836119 -9.4116115964920599 -1 0 0 I I #
point $-1 40.737327188940093 -28.319945364836119 -9.4116115964920599 #
plane-surface $-1 -40.737327188940093 0 0 1 0 0 0 0 -1 forward_v I I I I #
coedge $-1 $733 $650 $496 $654 forward $491 $-1 #
coedge $-1 $493 $658 $733 $734 forward $334 $-1 #
coedge $-1 $648 $735 $494 $651 reversed $491 $-1 #
edge $-1 $652 -40.737327188940093 $663 40.737327188940093 $650 $736 forward 7 unknown #
vertex $-1 $495 $737 #
straight-curve $-1 40.737327188940093 34.271583925132234 -3.1364821074876352 0 1 0 I I #
edge $-1 $652 -3.1375647445022126 $655 3.1375647445022121 $496 $738 forward 7 unknown #
vertex $-1 $497 $739 #
straight-curve $-1 40.737327188940093 34.271583925132234 -9.4116115964920599 0 -1 0 I I #
point $-1 40.737327188940093 28.319945364836126 -9.4116115964920599 #
coedge $-1 $649 $500 $503 $661 forward $334 $-1 #
straight-curve $-1 0 28.319945364836119 -9.4116115964920599 1 0 0 I I #
coedge $-1 $503 $502 $735 $740 forward $504 $-1 #
edge $-1 $505 -5.9516385602961073 $741 5.9516385602961037 $503 $742 forward 7 unknown #
point $-1 -40.737327188940093 28.319945364836126 -9.4116115964920599 #
vertex $-1 $651 $743 #
straight-curve $-1 -40.737327188940093 34.271583925132234 -3.1364821074876352 0 -1 0 I I #
coedge $-1 $521 $520 $513 $666 forward $510 $-1 #
edge $-1 $667 44.711425847796441 $670 56.064490478055852 $665 $744 forward 7 unknown #
vertex $-1 $525 $745 #
straight-curve $-1 31.361414985698882 -11.873929858284193 12.32968158774618 1 0 0 I I #
edge $-1 $670 -7.5373917066928193 $522 -1.1356845964899271 $521 $746 forward 7 unknown #
vertex $-1 $669 $747 #
straight-curve $-1 -4.8227203766303077 -11.873929858284193 68.522167305514841 -0.55919289150049634 0 0.82903758062907751 I I #
point $-1 33.079588642070526 -11.873929858284193 12.32968158774618 #
point $-1 40.737327188940093 -5.4722227480813004 0.97661695748676891 #
straight-curve $-1 40.737327188940093 0 12.329681587746181 0 1 0 I I #
vertex $-1 $528 $748 #
point $-1 36.359016780626476 -10.044870683940509 5.6794375908014487 #
vertex $-1 $532 $749 #
point $-1 36.359016780626476 -7.3012819224249839 5.6794375908014487 #
edge $-1 $680 44.711425847796441 $683 56.064490478055852 $537 $750 forward 7 unknown #
vertex $-1 $551 $751 #
straight-curve $-1 31.361414985698882 -0.92948436212158825 12.32968158774618 1 0 0 I I #
edge $-1 $683 -2.0651689586115172 $548 4.336538151591375 $547 $752 forward 7 unknown #
vertex $-1 $682 $753 #
straight-curve $-1 -4.8227203766303077 -0.92948436212158825 68.522167305514841 -0.55919289150049634 0 0.82903758062907751 I I #
point $-1 33.079588642070526 -0.92948436212158825 12.32968158774618 #
point $-1 40.737327188940093 5.4722227480813039 0.97661695748676891 #
straight-curve $-1 40.737327188940093 0 12.329681587746181 0 1 0 I I #
vertex $-1 $554 $754 #
point $-1 36.359016780626476 0.89957481222209523 5.6794375908014487 #
vertex $-1 $558 $755 #
point $-1 36.359016780626476 3.6431635737376205 5.6794375908014487 #
edge $-1 $693 44.711425847796441 $696 56.064490478055852 $563 $756 forward 7 unknown #
vertex $-1 $577 $757 #
straight-curve $-1 31.361414985698882 10.014961134041013 12.32968158774618 1 0 0 I I #
edge $-1 $696 3.4070537894697832 $574 9.8087608996726754 $573 $758 forward 7 unknown #
vertex $-1 $695 $759 #
straight-curve $-1 -4.8227203766303077 10.014961134041013 68.522167305514841 -0.55919289150049634 0 0.82903758062907751 I I #
point $-1 33.079588642070526 10.014961134041013 12.32968158774618 #
point $-1 40.737327188940093 16.416668244243905 0.97661695748676891 #
straight-curve $-1 40.737327188940093 0 12.329681587746181 0 1 0 I I #
vertex $-1 $580 $760 #
point $-1 36.359016780626476 11.844020308384696 5.6794375908014487 #
vertex $-1 $584 $761 #
point $-1 36.359016780626476 14.587609069900221 5.6794375908014487 #
edge $-1 $706 23.380036566337658 $709 26.703487547009658 $589 $762 forward 7 unknown #
vertex $-1 $603 $763 #
straight-curve $-1 -46.554113085112846 -2.6313034694629103 12.32968158774618 -1 0 0 I I #
edge $-1 $709 -0.22955496298831513 $600 5.9512718278907659 $599 $764 forward 7 unknown #
vertex $-1 $708 $765 #
straight-curve $-1 -40.737327188940085 -2.6313034694629103 9.0062306070741869 0.76604443648966558 0 0.64278761758704617 I I #
point $-1 -36.776592625870911 -2.6313034694629103 12.329681587746181 #
point $-1 -40.737327188940093 -8.8121302603419913 9.0062306070741815 #
straight-curve $-1 -40.737327188940093 0 12.329681587746181 0 -1 0 I I #
vertex $-1 $606 $766 #
point $-1 -37.128792926103245 -7.0461797486622544 9.5054441926104953 #
vertex $-1 $610 $767 #
point $-1 -37.128792926103245 -4.3972539811426472 9.5054441926104953 #
straight-curve $-1 -40.737327188940093 28.319945364836119 0 0 0 -1 I I #
point $-1 -40.737327188940093 -28.319945364836119 -12.329681587746181 #
straight-curve $-1 -40.737327188940093 0 -12.329681587746181 0 1 0 I I #
point $-1 -40.737327188940093 28.319945364836119 -12.329681587746181 #
coedge $-1 $726 $631 $632 $723 reversed $470 $-1 #
edge $-1 $724 -40.737327188940093 $640 40.737327188940093 $722 $768 forward 7 unknown #
vertex $-1 $728 $769 #
straight-curve $-1 40.737327188940093 -34.271583925132227 -9.4116115964920599 0 -1 0 I I #
coedge $-1 $634 $722 $636 $728 reversed $470 $-1 #
straight-curve $-1 0 -40.223222485428337 -3.1364821074876352 1 0 0 I I #
edge $-1 $637 -3.1375647445022126 $724 3.1375647445022121 $636 $770 forward 7 unknown #
point $-1 40.737327188940093 -40.223222485428337 -3.1364821074876352 #
straight-curve $-1 -40.737327188940093 -40.223222485428337 -6.2740468519898478 0 0 -1 I I #
point $-1 -40.737327188940093 -40.223222485428337 -9.4116115964920599 #
point $-1 -40.737327188940093 -40.223222485428337 -3.1364821074876352 #
coedge $-1 $735 $648 $649 $734 reversed $491 $-1 #
edge $-1 $741 -40.737327188940093 $655 40.737327188940093 $733 $771 forward 7 unknown #
coedge $-1 $650 $733 $660 $740 reversed $491 $-1 #
straight-curve $-1 0 40.223222485428337 -3.1364821074876352 -1 0 0 I I #
point $-1 40.737327188940093 40.223222485428337 -3.1364821074876352 #
straight-curve $-1 40.737327188940093 40.223222485428337 -6.2740468519898478 0 0 -1 I I #
point $-1 40.737327188940093 40.223222485428337 -9.4116115964920599 #
edge $-1 $663 -3.1375647445022126 $741 3.1375647445022121 $735 $772 forward 7 unknown #
vertex $-1 $734 $773 #
straight-curve $-1 -40.737327188940093 34.271583925132234 -9.4116115964920599 0 1 0 I I #
point $-1 -40.737327188940093 40.223222485428337 -3.1364821074876352 #
straight-curve $-1 40.737327188940093 -11.873929858284193 57.041107435542621 0 0 -1 I I #
point $-1 40.737327188940093 -11.873929858284193 12.329681587746181 #
straight-curve $-1 40.7373271889401 -4.3365381515913732 0.97661695748676181 0 1 0 I I #
point $-1 40.737327188940093 -11.873929858284193 0.97661695748676891 #
point $-1 35.664901544561687 -10.044870683940509 5.8143599353657391 #
point $-1 35.664901544561687 -7.3012819224249839 5.8143599353657391 #
straight-curve $-1 40.737327188940093 -0.92948436212158825 57.041107435542621 0 0 -1 I I #
point $-1 40.737327188940093 -0.92948436212158825 12.329681587746181 #
straight-curve $-1 40.7373271889401 1.1356845964899289 0.97661695748676181 0 1 0 I I #
point $-1 40.737327188940093 -0.92948436212158825 0.97661695748676891 #
point $-1 35.664901544561687 0.89957481222209523 5.8143599353657391 #
point $-1 35.664901544561687 3.6431635737376205 5.8143599353657391 #
straight-curve $-1 40.737327188940093 10.014961134041013 57.041107435542621 0 0 -1 I I #
point $-1 40.737327188940093 10.014961134041013 12.329681587746181 #
straight-curve $-1 40.7373271889401 6.6079073445712293 0.97661695748676181 0 1 0 I I #
point $-1 40.737327188940093 10.014961134041013 0.97661695748676891 #
point $-1 35.664901544561687 11.844020308384696 5.8143599353657391 #
point $-1 35.664901544561687 14.587609069900221 5.8143599353657391 #
straight-curve $-1 -40.737327188940093 -2.6313034694629103 35.709718154083838 0 0 -1 I I #
point $-1 -40.737327188940093 -2.6313034694629103 12.329681587746181 #
straight-curve $-1 -40.737327188940093 -2.8608584324512254 9.0062306070741798 0 -1 0 I I #
point $-1 -40.737327188940093 -2.6313034694629103 9.0062306070741815 #
point $-1 -37.190421335554561 -7.0461797486622544 8.8010281655721396 #
point $-1 -37.190421335554561 -4.3972539811426472 8.8010281655721396 #
straight-curve $-1 0 -40.223222485428337 -9.4116115964920599 -1 0 0 I I #
point $-1 40.737327188940093 -40.223222485428337 -9.4116115964920599 #
straight-curve $-1 40.737327188940093 -40.223222485428337 -6.2740468519898478 0 0 -1 I I #
straight-curve $-1 0 40.223222485428337 -9.4116115964920599 1 0 0 I I #
straight-curve $-1 -40.737327188940093 40.223222485428337 -6.2740468519898478 0 0 -1 I I #
point $-1 -40.737327188940093 40.223222485428337 -9.4116115964920599 #
End-of-ACIS-data 