500 0 7 0           
7 Unknown 11 ACIS 5.0 NT 24 Thu Mar 25 17:10:20 1999 
-1 9.9999999999999995e-007 1e-010 
body $-1 $7 $-1 $8 #
body $-1 $9 $-1 $10 #
body $-1 $11 $-1 $12 #
body $-1 $13 $-1 $14 #
body $-1 $15 $-1 $16 #
body $-1 $17 $-1 $18 #
body $-1 $19 $-1 $20 #
lump $-1 $-1 $21 $0 #
transform $-1 1 0 0 0 1 0 0 0 1 79.840083010345779 41.118605207458394 14.75536385605575 1 rotate no_reflect no_shear #
lump $-1 $-1 $22 $1 #
transform $-1 1 0 0 0 1 0 0 0 1 79.840083010345779 41.118605207458394 14.75536385605575 1 rotate no_reflect no_shear #
lump $-1 $-1 $23 $2 #
transform $-1 1 0 0 0 1 0 0 0 1 79.840083010345779 41.118605207458394 14.75536385605575 1 rotate no_reflect no_shear #
lump $-1 $-1 $24 $3 #
transform $-1 1 0 0 0 1 0 0 0 1 79.840083010345779 41.118605207458394 14.75536385605575 1 rotate no_reflect no_shear #
lump $-1 $-1 $25 $4 #
transform $-1 1 0 0 0 1 0 0 0 1 79.840083010345779 41.118605207458394 14.75536385605575 1 rotate no_reflect no_shear #
lump $-1 $-1 $26 $5 #
transform $-1 1 0 0 0 1 0 0 0 1 79.840083010345779 41.118605207458394 14.75536385605575 1 rotate no_reflect no_shear #
lump $-1 $-1 $27 $6 #
transform $-1 1 0 0 0 1 0 0 0 1 79.840083010345779 41.118605207458394 14.75536385605575 1 rotate no_reflect no_shear #
shell $-1 $-1 $-1 $28 $-1 $7 #
shell $-1 $-1 $-1 $29 $-1 $9 #
shell $-1 $-1 $-1 $30 $-1 $11 #
shell $-1 $-1 $-1 $31 $-1 $13 #
shell $-1 $-1 $-1 $32 $-1 $15 #
shell $-1 $-1 $-1 $33 $-1 $17 #
shell $-1 $-1 $-1 $34 $-1 $19 #
face $-1 $35 $36 $21 $-1 $37 forward single #
face $-1 $38 $39 $22 $-1 $40 forward single #
face $-1 $41 $42 $23 $-1 $43 reversed single #
face $-1 $44 $45 $24 $-1 $46 forward single #
face $-1 $47 $48 $25 $-1 $49 reversed single #
face $-1 $50 $51 $26 $-1 $52 forward single #
face $-1 $53 $54 $27 $-1 $55 forward single #
face $-1 $56 $57 $21 $-1 $58 reversed single #
loop $-1 $-1 $59 $28 #
plane-surface $-1 0 0 14.75536385605575 0 0 1 1 0 0 forward_v I I I I #
face $-1 $60 $61 $22 $-1 $62 reversed single #
loop $-1 $-1 $63 $29 #
plane-surface $-1 0 -35.893579876512135 8.0941209692480456 0 0 1 1 0 0 forward_v I I I I #
face $-1 $64 $65 $23 $-1 $66 reversed single #
loop $-1 $-1 $67 $30 #
plane-surface $-1 87.721154879015131 33.921486200388479 233.57800405922706 0 1 0 0.73135370988377701 0 0.68199835119979291 forward_v I I I I #
face $-1 $68 $69 $24 $-1 $70 forward single #
loop $-1 $71 $72 $31 #
cone-surface $-1 75.883909862106648 37.520045703923437 10.61873940579626 -0.73135370988377701 0 -0.68199835119979291 1.0229975267996894 0 -1.0970305648256655 1 I I 0 1 1.5 forward I I I I #
face $-1 $73 $74 $25 $-1 $75 reversed single #
loop $-1 $-1 $76 $32 #
plane-surface $-1 -186.68697060828856 -16.485868643306063 124.3141040576305 0 1 0 -0.66913061440640931 0 0.74314481823134659 forward_v I I I I #
face $-1 $77 $78 $26 $-1 $79 forward single #
loop $-1 $80 $81 $33 #
cone-surface $-1 -74.084410339528986 -13.193416031271024 9.4260730360166463 0.66913061440640931 0 -0.74314481823134659 1.1147172273470198 0 1.003695921609614 1 I I 0 1 1.5 forward I I I I #
face $-1 $82 $83 $27 $-1 $84 forward single #
loop $-1 $85 $86 $34 #
cone-surface $-1 -74.084410339528986 -8.2547371132184679 9.4260730360166463 0.66913061440640931 0 -0.74314481823134659 1.1147172273470198 0 1.003695921609614 1 I I 0 1 1.5 forward I I I I #
face $-1 $87 $88 $21 $-1 $89 reversed single #
loop $-1 $-1 $90 $35 #
plane-surface $-1 0 0 -14.75536385605575 0 0 1 1 0 0 forward_v I I I I #
coedge $-1 $91 $92 $93 $94 forward $36 $-1 #
face $-1 $95 $96 $22 $-1 $97 reversed single #
loop $-1 $-1 $98 $38 #
plane-surface $-1 0 -35.893579876512135 0.73143442121854196 0 0 1 1 0 0 forward_v I I I I #
coedge $-1 $99 $100 $101 $102 reversed $39 $-1 #
face $-1 $103 $104 $23 $-1 $105 forward single #
loop $-1 $-1 $106 $41 #
plane-surface $-1 -29.061526935075065 37.520045703923437 124.67639411380621 0.73135370988377701 0 0.68199835119979291 0.68199835119979291 0 -0.73135370988377701 forward_v I I I I #
coedge $-1 $107 $108 $109 $110 reversed $42 $-1 #
face $-1 $-1 $111 $24 $-1 $112 forward single #
loop $-1 $113 $114 $44 #
cone-surface $-1 74.578518149779143 37.520045703923437 9.4014419703067933 -0.73135370988377701 0 -0.68199835119979291 0.51149876339984468 0 -0.54851528241283276 1 I I -0.70710678118654757 0.70710678118654757 0.75 forward I I I I #
loop $-1 $-1 $115 $31 #
coedge $-1 $72 $72 $116 $117 reversed $45 $-1 #
face $-1 $118 $119 $25 $-1 $120 reversed single #
loop $-1 $-1 $121 $47 #
plane-surface $-1 -79.840083010345779 -10.724076572244744 5.6486161050324313 -0.66913061440640931 0 0.74314481823134659 0.74314481823134659 0 0.66913061440640931 forward_v I I I I #
coedge $-1 $122 $123 $124 $125 reversed $48 $-1 #
face $-1 $-1 $126 $26 $-1 $127 forward single #
loop $-1 $128 $129 $50 #
cone-surface $-1 -72.883923608617906 -13.193416031271024 8.0927974778156884 0.66913061440640931 0 -0.74314481823134659 0.55735861367350992 0 0.50184796080480698 1 I I -0.70710678118654757 0.70710678118654757 0.75 forward I I I I #
loop $-1 $-1 $130 $33 #
coedge $-1 $81 $81 $131 $132 reversed $51 $-1 #
face $-1 $-1 $133 $27 $-1 $134 forward single #
loop $-1 $135 $136 $53 #
cone-surface $-1 -72.883923608617906 -8.2547371132184679 8.0927974778156884 0.66913061440640931 0 -0.74314481823134659 0.55735861367350992 0 0.50184796080480698 1 I I -0.70710678118654757 0.70710678118654757 0.75 forward I I I I #
loop $-1 $-1 $137 $34 #
coedge $-1 $86 $86 $138 $139 reversed $54 $-1 #
face $-1 $140 $141 $21 $-1 $142 reversed single #
loop $-1 $-1 $143 $56 #
plane-surface $-1 0 -41.118605207458394 0 0 1 0 0 0 1 forward_v I I I I #
coedge $-1 $144 $145 $146 $147 forward $57 $-1 #
coedge $-1 $148 $59 $149 $150 forward $36 $-1 #
coedge $-1 $59 $148 $151 $152 forward $36 $-1 #
coedge $-1 $153 $154 $59 $94 reversed $155 $-1 #
edge $-1 $156 -41.118605207458394 $157 41.118605207458394 $93 $158 forward 7 unknown #
face $-1 $159 $160 $22 $-1 $161 reversed single #
loop $-1 $-1 $162 $60 #
plane-surface $-1 0 -30.668554545565872 4.4127776952332933 0 -1 0 0 0 -1 forward_v I I I I #
coedge $-1 $163 $164 $165 $166 reversed $61 $-1 #
coedge $-1 $167 $63 $168 $169 forward $39 $-1 #
coedge $-1 $63 $167 $170 $171 reversed $39 $-1 #
coedge $-1 $172 $173 $63 $102 forward $174 $-1 #
edge $-1 $175 12.721764607309805 $176 23.171815269202327 $101 $177 forward 7 unknown #
face $-1 $178 $179 $23 $-1 $180 reversed single #
loop $-1 $-1 $181 $64 #
plane-surface $-1 0 0 14.75536385605575 0 0 1 1 0 0 forward_v I I I I #
coedge $-1 $182 $183 $184 $185 reversed $65 $-1 #
coedge $-1 $108 $67 $186 $187 reversed $42 $-1 #
coedge $-1 $67 $107 $182 $188 reversed $42 $-1 #
coedge $-1 $184 $189 $67 $110 forward $179 $-1 #
edge $-1 $190 102.03363817355778 $191 108.89528972989751 $109 $192 forward 7 unknown #
loop $-1 $-1 $116 $68 #
plane-surface $-1 -29.061526935075065 37.520045703923437 124.67639411380621 0.73135370988377701 0 0.68199835119979291 0.68199835119979291 0 -0.73135370988377701 forward_v I I I I #
loop $-1 $-1 $193 $44 #
coedge $-1 $114 $114 $115 $194 reversed $69 $-1 #
coedge $-1 $115 $115 $114 $194 forward $71 $-1 #
coedge $-1 $116 $116 $72 $117 forward $111 $-1 #
edge $-1 $195 0 $195 6.2831853071796004 $116 $196 forward 7 unknown #
face $-1 $197 $198 $25 $-1 $199 reversed single #
loop $-1 $-1 $200 $73 #
plane-surface $-1 -186.68697060828856 -4.9622845011834258 124.3141040576305 0 -1 0 0.66913061440640931 0 -0.74314481823134659 forward_v I I I I #
coedge $-1 $201 $202 $203 $204 reversed $74 $-1 #
coedge $-1 $123 $76 $205 $206 reversed $48 $-1 #
coedge $-1 $76 $122 $201 $207 reversed $48 $-1 #
coedge $-1 $203 $208 $76 $125 forward $209 $-1 #
edge $-1 $210 13.503402293798501 $211 23.617470095219545 $124 $212 forward 7 unknown #
loop $-1 $-1 $131 $77 #
plane-surface $-1 -79.840083010345779 -10.724076572244744 5.6486161050324313 -0.66913061440640931 0 0.74314481823134659 0.74314481823134659 0 0.66913061440640931 forward_v I I I I #
loop $-1 $-1 $213 $50 #
coedge $-1 $129 $129 $130 $214 reversed $78 $-1 #
coedge $-1 $130 $130 $129 $214 forward $80 $-1 #
coedge $-1 $131 $131 $81 $132 forward $126 $-1 #
edge $-1 $215 0 $215 6.2831853071796004 $131 $216 forward 7 unknown #
loop $-1 $-1 $138 $82 #
plane-surface $-1 -79.840083010345779 -10.724076572244744 5.6486161050324313 -0.66913061440640931 0 0.74314481823134659 0.74314481823134659 0 0.66913061440640931 forward_v I I I I #
loop $-1 $-1 $217 $53 #
coedge $-1 $136 $136 $137 $218 reversed $83 $-1 #
coedge $-1 $137 $137 $136 $218 forward $85 $-1 #
coedge $-1 $138 $138 $86 $139 forward $133 $-1 #
edge $-1 $219 0 $219 6.2831853071796004 $138 $220 forward 7 unknown #
face $-1 $221 $222 $21 $-1 $223 reversed single #
loop $-1 $-1 $224 $87 #
plane-surface $-1 -79.840083010345779 0 0 1 0 0 0 0 -1 forward_v I I I I #
coedge $-1 $225 $151 $226 $227 forward $88 $-1 #
coedge $-1 $228 $90 $225 $229 forward $57 $-1 #
coedge $-1 $90 $228 $230 $231 forward $57 $-1 #
coedge $-1 $154 $153 $90 $147 reversed $155 $-1 #
edge $-1 $232 -41.118605207458394 $233 41.118605207458394 $146 $234 forward 7 unknown #
coedge $-1 $92 $91 $235 $236 forward $36 $-1 #
coedge $-1 $237 $238 $91 $150 reversed $222 $-1 #
edge $-1 $157 -79.840083010345779 $239 79.840083010345779 $149 $240 forward 7 unknown #
coedge $-1 $143 $241 $92 $152 reversed $88 $-1 #
edge $-1 $242 -79.840083010345779 $156 79.840083010345779 $151 $243 forward 7 unknown #
coedge $-1 $146 $93 $241 $244 forward $155 $-1 #
coedge $-1 $93 $146 $237 $245 reversed $155 $-1 #
loop $-1 $-1 $153 $221 #
vertex $-1 $94 $246 #
vertex $-1 $94 $247 #
straight-curve $-1 79.840083010345779 0 14.75536385605575 0 1 0 I I #
face $-1 $248 $249 $22 $-1 $250 reversed single #
loop $-1 $-1 $251 $95 #
plane-surface $-1 -79.840083010345779 0 0 1 0 0 0 0 -1 forward_v I I I I #
coedge $-1 $252 $168 $173 $253 reversed $96 $-1 #
coedge $-1 $254 $98 $255 $256 reversed $61 $-1 #
coedge $-1 $98 $254 $252 $257 forward $61 $-1 #
coedge $-1 $173 $172 $98 $166 forward $174 $-1 #
edge $-1 $258 -23.171815269202327 $259 -12.721764607309805 $165 $260 forward 7 unknown #
coedge $-1 $100 $99 $251 $261 reversed $39 $-1 #
coedge $-1 $162 $262 $99 $169 reversed $96 $-1 #
edge $-1 $175 -79.840083010345779 $263 79.840083010345779 $168 $264 forward 7 unknown #
coedge $-1 $265 $266 $100 $171 forward $249 $-1 #
edge $-1 $176 -79.840083010345779 $267 79.840083010345779 $170 $268 forward 7 unknown #
coedge $-1 $165 $101 $266 $269 forward $174 $-1 #
coedge $-1 $101 $165 $162 $253 forward $174 $-1 #
loop $-1 $-1 $101 $248 #
vertex $-1 $102 $270 #
vertex $-1 $269 $271 #
straight-curve $-1 79.840083010345779 -17.946789938256067 8.0941209692480456 0 -1 0 I I #
face $-1 $-1 $272 $23 $-1 $273 reversed single #
loop $-1 $-1 $109 $103 #
plane-surface $-1 79.840083010345779 0 0 -1 0 0 0 0 1 forward_v I I I I #
coedge $-1 $186 $274 $275 $276 forward $104 $-1 #
coedge $-1 $275 $106 $108 $188 forward $65 $-1 #
coedge $-1 $106 $275 $277 $278 reversed $65 $-1 #
coedge $-1 $279 $109 $106 $185 forward $179 $-1 #
edge $-1 $191 15.161463348426761 $280 22.358582355496676 $184 $281 forward 7 unknown #
coedge $-1 $282 $181 $107 $187 forward $104 $-1 #
edge $-1 $283 29.580912134189248 $190 35.979505570838214 $186 $284 forward 7 unknown #
edge $-1 $191 -159.68016602069156 $283 -150.29804152524025 $108 $285 forward 7 unknown #
coedge $-1 $109 $279 $282 $286 reversed $179 $-1 #
vertex $-1 $286 $287 #
vertex $-1 $110 $288 #
straight-curve $-1 79.840083010345779 33.921486200388479 116.78900202961353 0 0 -1 I I #
coedge $-1 $193 $193 $-1 $289 reversed $113 $-1 #
edge $-1 $290 0 $290 6.2831853071796004 $114 $291 forward 7 unknown #
vertex $-1 $117 $292 #
ellipse-curve $-1 76.640786292021303 37.520045703923437 11.324538077885871 0.73135370988377701 0 0.68199835119979291 1.0229975267996894 0 -1.0970305648256655 1 I I #
face $-1 $-1 $209 $25 $-1 $293 forward single #
loop $-1 $-1 $294 $118 #
plane-surface $-1 -79.840083010345779 0 0 1 0 0 0 0 -1 forward_v I I I I #
coedge $-1 $295 $296 $297 $298 reversed $119 $-1 #
coedge $-1 $299 $121 $123 $207 forward $74 $-1 #
coedge $-1 $121 $299 $295 $300 forward $74 $-1 #
coedge $-1 $297 $124 $121 $204 forward $209 $-1 #
edge $-1 $211 -11.123830357183691 $301 0.39975378493894631 $203 $302 forward 7 unknown #
coedge $-1 $303 $304 $122 $206 forward $198 $-1 #
edge $-1 $305 -56.50843592378282 $210 -47.401688172759499 $205 $306 forward 7 unknown #
edge $-1 $211 -13.609820795752977 $305 0 $123 $307 forward 7 unknown #
coedge $-1 $124 $297 $303 $308 forward $209 $-1 #
loop $-1 $-1 $297 $197 #
vertex $-1 $206 $309 #
vertex $-1 $125 $310 #
straight-curve $-1 -93.343485304144281 -16.485868643306063 14.755363856055752 1 0 0 I I #
coedge $-1 $213 $213 $-1 $311 reversed $128 $-1 #
edge $-1 $312 0 $312 6.2831853071796004 $129 $313 forward 7 unknown #
vertex $-1 $132 $314 #
ellipse-curve $-1 -74.783049109635257 -13.193416031271024 10.201989980544091 -0.66913061440640931 0 0.74314481823134659 1.1147172273470198 0 1.003695921609614 1 I I #
coedge $-1 $217 $217 $-1 $315 reversed $135 $-1 #
edge $-1 $316 0 $316 6.2831853071796004 $136 $317 forward 7 unknown #
vertex $-1 $139 $318 #
ellipse-curve $-1 -74.783049109635257 -8.2547371132184679 10.201989980544091 -0.66913061440640931 0 0.74314481823134659 1.1147172273470198 0 1.003695921609614 1 I I #
face $-1 $-1 $155 $21 $-1 $319 reversed single #
loop $-1 $-1 $237 $140 #
plane-surface $-1 0 41.118605207458394 0 0 -1 0 0 0 -1 forward_v I I I I #
coedge $-1 $320 $235 $238 $321 forward $141 $-1 #
coedge $-1 $241 $143 $144 $229 reversed $88 $-1 #
coedge $-1 $235 $320 $143 $227 reversed $141 $-1 #
edge $-1 $242 -14.75536385605575 $322 14.75536385605575 $226 $323 forward 7 unknown #
coedge $-1 $145 $144 $320 $324 forward $57 $-1 #
edge $-1 $233 -79.840083010345779 $322 79.840083010345779 $225 $325 forward 7 unknown #
coedge $-1 $238 $237 $145 $231 reversed $222 $-1 #
edge $-1 $326 -79.840083010345779 $232 79.840083010345779 $230 $327 forward 7 unknown #
vertex $-1 $147 $328 #
vertex $-1 $244 $329 #
straight-curve $-1 79.840083010345779 0 -14.75536385605575 0 -1 0 I I #
coedge $-1 $224 $226 $148 $236 reversed $141 $-1 #
edge $-1 $239 -41.118605207458394 $242 41.118605207458394 $235 $330 forward 7 unknown #
coedge $-1 $230 $149 $154 $245 forward $222 $-1 #
coedge $-1 $149 $230 $224 $321 reversed $222 $-1 #
vertex $-1 $150 $331 #
straight-curve $-1 0 41.118605207458394 14.75536385605575 -1 0 0 I I #
coedge $-1 $151 $225 $153 $244 reversed $88 $-1 #
vertex $-1 $236 $332 #
straight-curve $-1 0 -41.118605207458394 14.75536385605575 1 0 0 I I #
edge $-1 $156 -14.75536385605575 $233 14.75536385605575 $153 $333 forward 7 unknown #
edge $-1 $157 -14.75536385605575 $232 14.75536385605575 $154 $334 forward 7 unknown #
point $-1 79.840083010345779 -41.118605207458394 14.75536385605575 #
point $-1 79.840083010345779 41.118605207458394 14.75536385605575 #
face $-1 $-1 $174 $22 $-1 $335 reversed single #
loop $-1 $-1 $170 $159 #
plane-surface $-1 0 -41.118605207458394 0 0 1 0 0 0 1 forward_v I I I I #
coedge $-1 $336 $337 $167 $261 forward $160 $-1 #
coedge $-1 $262 $162 $164 $257 reversed $96 $-1 #
edge $-1 $259 -1.4749544263981047 $175 5.8877321216313989 $173 $338 forward 7 unknown #
coedge $-1 $164 $163 $339 $340 reversed $61 $-1 #
coedge $-1 $266 $265 $163 $256 forward $249 $-1 #
edge $-1 $341 -79.840083010345779 $258 79.840083010345779 $255 $342 forward 7 unknown #
edge $-1 $343 -79.840083010345779 $259 79.840083010345779 $252 $344 forward 7 unknown #
vertex $-1 $256 $345 #
vertex $-1 $166 $346 #
straight-curve $-1 79.840083010345779 -17.946789938256067 0.73143442121854196 0 1 0 I I #
edge $-1 $267 -23.171815269202327 $263 -12.721764607309805 $251 $347 forward 7 unknown #
coedge $-1 $168 $252 $336 $348 reversed $96 $-1 #
vertex $-1 $261 $349 #
straight-curve $-1 0 -30.668554545565872 8.0941209692480456 -1 0 0 I I #
coedge $-1 $255 $170 $337 $350 forward $249 $-1 #
coedge $-1 $170 $255 $172 $269 reversed $249 $-1 #
vertex $-1 $350 $351 #
straight-curve $-1 0 -41.118605207458394 8.0941209692480456 -1 0 0 I I #
edge $-1 $176 -8.0941209692480456 $258 -0.73143442121854196 $172 $352 forward 7 unknown #
point $-1 79.840083010345779 -30.668554545565872 8.0941209692480456 #
point $-1 79.840083010345779 -41.118605207458394 8.0941209692480456 #
loop $-1 $-1 $277 $178 #
plane-surface $-1 0 41.118605207458394 0 0 -1 0 0 0 -1 forward_v I I I I #
coedge $-1 $181 $282 $353 $354 forward $104 $-1 #
coedge $-1 $183 $182 $181 $276 reversed $65 $-1 #
edge $-1 $355 -22.358582355496676 $283 -15.161463348426761 $181 $356 forward 7 unknown #
coedge $-1 $353 $357 $183 $278 forward $272 $-1 #
edge $-1 $280 -104.17893760912473 $355 -94.796813113673437 $277 $358 forward 7 unknown #
coedge $-1 $189 $184 $357 $359 reversed $179 $-1 #
vertex $-1 $278 $360 #
straight-curve $-1 79.840083010345779 18.760022851961718 7.8937122997160145 0 1 0 I I #
coedge $-1 $274 $186 $189 $286 forward $104 $-1 #
vertex $-1 $187 $361 #
straight-curve $-1 43.860577439507566 33.921486200388479 14.755363856055752 1 0 0 I I #
straight-curve $-1 -29.061526935075065 33.921486200388479 124.67639411380621 -0.68199835119979291 0 0.73135370988377701 I I #
edge $-1 $190 33.921486200388479 $362 41.118605207458394 $189 $363 forward 7 unknown #
point $-1 79.840083010345779 33.921486200388479 14.75536385605575 #
point $-1 79.840083010345779 33.921486200388479 7.8937122997160145 #
edge $-1 $364 1 $364 0 $193 $-1 forward 7 unknown #
vertex $-1 $194 $365 #
ellipse-curve $-1 75.127033432191979 37.520045703923437 9.9129407337066375 0.73135370988377701 0 0.68199835119979291 1.0229975267996894 0 -1.0970305648256655 1 I I #
point $-1 77.663783818821003 37.520045703923437 10.227507513060214 #
plane-surface $-1 0 0 14.75536385605575 0 0 1 1 0 0 forward_v I I I I #
coedge $-1 $304 $303 $296 $366 forward $198 $-1 #
coedge $-1 $296 $200 $202 $300 reversed $119 $-1 #
coedge $-1 $200 $295 $294 $366 reversed $119 $-1 #
coedge $-1 $208 $203 $200 $298 forward $209 $-1 #
edge $-1 $301 -23.617470095219545 $367 -13.503402293798501 $297 $368 forward 7 unknown #
coedge $-1 $202 $201 $304 $369 reversed $74 $-1 #
edge $-1 $370 0 $301 13.609820795752977 $295 $371 forward 7 unknown #
vertex $-1 $204 $372 #
straight-curve $-1 -69.726015208924721 -5.3620382861223721 14.755363856055748 0 1 0 I I #
coedge $-1 $294 $205 $208 $308 reversed $198 $-1 #
coedge $-1 $205 $294 $299 $369 forward $198 $-1 #
vertex $-1 $206 $373 #
straight-curve $-1 -79.840083010345779 -16.485868643306063 62.157052028815251 0 0 1 I I #
straight-curve $-1 -79.840083010345779 -16.485868643306063 5.6486161050324313 -0.74314481823134659 0 -0.66913061440640931 I I #
edge $-1 $367 4.9622845011834258 $210 16.485868643306063 $303 $374 forward 7 unknown #
point $-1 -79.840083010345779 -16.485868643306063 14.75536385605575 #
point $-1 -69.726015208924736 -16.485868643306063 14.75536385605575 #
edge $-1 $375 1 $375 0 $213 $-1 forward 7 unknown #
vertex $-1 $214 $376 #
ellipse-curve $-1 -73.385771569422715 -13.193416031271024 8.6501560914891975 -0.66913061440640931 0 0.74314481823134659 1.1147172273470198 0 1.003695921609614 1 I I #
point $-1 -73.668331882288228 -13.193416031271024 11.205685902153707 #
edge $-1 $377 1 $377 0 $217 $-1 forward 7 unknown #
vertex $-1 $218 $378 #
ellipse-curve $-1 -73.385771569422715 -8.2547371132184679 8.6501560914891975 -0.66913061440640931 0 0.74314481823134659 1.1147172273470198 0 1.003695921609614 1 I I #
point $-1 -73.668331882288228 -8.2547371132184679 11.205685902153707 #
plane-surface $-1 79.840083010345779 0 0 -1 0 0 0 0 1 forward_v I I I I #
coedge $-1 $226 $224 $228 $324 reversed $141 $-1 #
edge $-1 $239 -14.75536385605575 $326 14.75536385605575 $238 $379 forward 7 unknown #
vertex $-1 $324 $380 #
straight-curve $-1 -79.840083010345779 -41.118605207458394 0 0 0 -1 I I #
edge $-1 $322 -41.118605207458394 $326 41.118605207458394 $320 $381 forward 7 unknown #
straight-curve $-1 0 -41.118605207458394 -14.75536385605575 -1 0 0 I I #
vertex $-1 $231 $382 #
straight-curve $-1 0 41.118605207458394 -14.75536385605575 1 0 0 I I #
point $-1 79.840083010345779 41.118605207458394 -14.75536385605575 #
point $-1 79.840083010345779 -41.118605207458394 -14.75536385605575 #
straight-curve $-1 -79.840083010345779 0 14.75536385605575 0 -1 0 I I #
point $-1 -79.840083010345779 41.118605207458394 14.75536385605575 #
point $-1 -79.840083010345779 -41.118605207458394 14.75536385605575 #
straight-curve $-1 79.840083010345779 -41.118605207458394 0 0 0 -1 I I #
straight-curve $-1 79.840083010345779 41.118605207458394 0 0 0 -1 I I #
plane-surface $-1 79.840083010345779 0 0 -1 0 0 0 0 1 forward_v I I I I #
coedge $-1 $339 $251 $262 $348 forward $160 $-1 #
coedge $-1 $251 $339 $265 $350 reversed $160 $-1 #
straight-curve $-1 79.840083010345779 -30.668554545565872 2.2063888476166467 0 0 1 I I #
coedge $-1 $337 $336 $254 $340 forward $160 $-1 #
edge $-1 $343 12.721764607309805 $341 23.171815269202327 $339 $383 forward 7 unknown #
vertex $-1 $256 $384 #
straight-curve $-1 0 -41.118605207458394 0.73143442121854196 1 0 0 I I #
vertex $-1 $340 $385 #
straight-curve $-1 0 -30.668554545565872 0.73143442121854196 1 0 0 I I #
point $-1 79.840083010345779 -41.118605207458394 0.73143442121854196 #
point $-1 79.840083010345779 -30.668554545565872 0.73143442121854196 #
straight-curve $-1 -79.840083010345779 -17.946789938256067 8.0941209692480456 0 1 0 I I #
edge $-1 $263 -5.8877321216313989 $343 1.4749544263981047 $336 $386 forward 7 unknown #
point $-1 -79.840083010345779 -30.668554545565872 8.0941209692480456 #
edge $-1 $267 -8.0941209692480456 $341 -0.73143442121854196 $337 $387 forward 7 unknown #
point $-1 -79.840083010345779 -41.118605207458394 8.0941209692480456 #
straight-curve $-1 79.840083010345779 -41.118605207458394 0 0 0 -1 I I #
coedge $-1 $357 $277 $274 $354 reversed $272 $-1 #
edge $-1 $362 -79.840083010345779 $355 -73.441489573696813 $353 $388 forward 7 unknown #
vertex $-1 $278 $389 #
straight-curve $-1 73.441489573696828 18.760022851961718 14.755363856055737 0 -1 0 I I #
coedge $-1 $277 $353 $279 $359 forward $272 $-1 #
straight-curve $-1 8.7902193311766048 41.118605207458394 84.085364811899922 -0.68199835119979291 0 0.73135370988377701 I I #
edge $-1 $362 -14.75536385605575 $280 -7.8937122997160145 $279 $390 forward 7 unknown #
point $-1 79.840083010345779 41.118605207458394 7.8937122997160145 #
point $-1 73.441489573696813 33.921486200388479 14.755363856055766 #
vertex $-1 $286 $391 #
straight-curve $-1 79.840083010345779 0 14.75536385605575 0 1 0 I I #
vertex $-1 $289 $392 #
point $-1 76.150030958991664 37.520045703923437 8.815910168880972 #
edge $-1 $367 47.401688172759499 $370 56.50843592378282 $294 $393 forward 7 unknown #
vertex $-1 $308 $394 #
straight-curve $-1 -93.343485304144281 -4.9622845011834258 14.755363856055752 -1 0 0 I I #
edge $-1 $370 -0.39975378493894631 $305 11.123830357183691 $304 $395 forward 7 unknown #
vertex $-1 $369 $396 #
straight-curve $-1 -79.840083010345779 -4.9622845011834258 5.6486161050324313 0.74314481823134659 0 0.66913061440640931 I I #
point $-1 -69.726015208924736 -4.9622845011834258 14.75536385605575 #
point $-1 -79.840083010345779 -16.485868643306063 5.6486161050324313 #
straight-curve $-1 -79.840083010345779 0 14.75536385605575 0 -1 0 I I #
vertex $-1 $311 $397 #
point $-1 -72.271054342075686 -13.193416031271024 9.6538520130988132 #
vertex $-1 $315 $398 #
point $-1 -72.271054342075686 -8.2547371132184679 9.6538520130988132 #
straight-curve $-1 -79.840083010345779 41.118605207458394 0 0 0 -1 I I #
point $-1 -79.840083010345779 -41.118605207458394 -14.75536385605575 #
straight-curve $-1 -79.840083010345779 0 -14.75536385605575 0 1 0 I I #
point $-1 -79.840083010345779 41.118605207458394 -14.75536385605575 #
straight-curve $-1 -79.840083010345779 -17.946789938256067 0.73143442121854196 0 -1 0 I I #
point $-1 -79.840083010345779 -41.118605207458394 0.73143442121854196 #
point $-1 -79.840083010345779 -30.668554545565872 0.73143442121854196 #
straight-curve $-1 -79.840083010345779 -30.668554545565872 2.2063888476166467 0 0 -1 I I #
straight-curve $-1 -79.840083010345779 -41.118605207458394 0 0 0 -1 I I #
straight-curve $-1 0 41.118605207458394 14.75536385605575 -1 0 0 I I #
point $-1 73.441489573696813 41.118605207458394 14.755363856055766 #
straight-curve $-1 79.840083010345779 41.118605207458394 0 0 0 -1 I I #
point $-1 79.840083010345779 41.118605207458394 14.75536385605575 #
point $-1 74.030002867366306 37.520045703923437 8.8899432069069491 #
straight-curve $-1 -79.840083010345779 -4.9622845011834258 62.157052028815251 0 0 -1 I I #
point $-1 -79.840083010345779 -4.9622845011834258 14.75536385605575 #
straight-curve $-1 -79.840083010345779 -5.3620382861223721 5.6486161050324295 0 -1 0 I I #
point $-1 -79.840083010345779 -4.9622845011834258 5.6486161050324313 #
point $-1 -72.382075647813096 -13.193416031271024 7.5354388641421783 #
point $-1 -72.382075647813096 -8.2547371132184679 7.5354388641421783 #
End-of-ACIS-data 