500 0 4 0           
7 Unknown 11 ACIS 5.0 NT 24 Fri Mar 26 00:08:11 1999 
-1 9.9999999999999995e-007 1e-010 
body $-1 $4 $-1 $5 #
body $-1 $6 $-1 $7 #
body $-1 $8 $-1 $9 #
body $-1 $10 $-1 $11 #
lump $-1 $-1 $12 $0 #
transform $-1 1 0 0 0 1 0 0 0 1 78.519241920224616 38.363648043642321 8.7966989108280345 1 rotate no_reflect no_shear #
lump $-1 $-1 $13 $1 #
transform $-1 1 0 0 0 1 0 0 0 1 78.519241920224616 38.363648043642321 8.7966989108280345 1 rotate no_reflect no_shear #
lump $-1 $-1 $14 $2 #
transform $-1 1 0 0 0 1 0 0 0 1 78.519241920224616 38.363648043642321 8.7966989108280345 1 rotate no_reflect no_shear #
lump $-1 $-1 $15 $3 #
transform $-1 1 0 0 0 1 0 0 0 1 78.519241920224616 38.363648043642321 8.7966989108280345 1 rotate no_reflect no_shear #
shell $-1 $-1 $-1 $16 $-1 $4 #
shell $-1 $-1 $-1 $17 $-1 $6 #
shell $-1 $-1 $-1 $18 $-1 $8 #
shell $-1 $-1 $-1 $19 $-1 $10 #
face $-1 $20 $21 $12 $-1 $22 forward single #
face $-1 $23 $24 $13 $-1 $25 reversed single #
face $-1 $26 $27 $14 $-1 $28 forward single #
face $-1 $29 $30 $15 $-1 $31 reversed single #
face $-1 $32 $33 $12 $-1 $34 reversed single #
loop $-1 $-1 $35 $16 #
plane-surface $-1 0 0 8.7966989108280345 0 0 1 1 0 0 forward_v I I I I #
face $-1 $36 $37 $13 $-1 $38 reversed single #
loop $-1 $-1 $39 $17 #
plane-surface $-1 0 -41.422481494586037 5.6048451545977178 0 0 1 1 0 0 forward_v I I I I #
face $-1 $40 $41 $14 $-1 $42 forward single #
loop $-1 $-1 $43 $18 #
plane-surface $-1 -39.485992097080398 122.99307622160595 158.46826281811317 1 0 0 0 -0.81915205242281985 -0.57357642473473569 forward_v I I I I #
face $-1 $44 $45 $15 $-1 $46 reversed single #
loop $-1 $47 $48 $19 #
cone-surface $-1 -24.539131796247219 36.720840253089392 6.8172659839892651 0 -0.81915205242281985 -0.57357642473473569 0.5 0 0 1 I I 0 1 0.5 forward I I I I #
face $-1 $49 $50 $12 $-1 $51 reversed single #
loop $-1 $-1 $52 $20 #
plane-surface $-1 0 0 -8.7966989108280345 0 0 1 1 0 0 forward_v I I I I #
coedge $-1 $53 $54 $55 $56 forward $21 $-1 #
face $-1 $57 $58 $13 $-1 $59 forward single #
loop $-1 $-1 $60 $23 #
plane-surface $-1 0 -44.481314945529753 7.2007720327128766 0 1 0 0 0 1 forward_v I I I I #
coedge $-1 $61 $62 $63 $64 forward $24 $-1 #
face $-1 $65 $66 $14 $-1 $67 forward single #
loop $-1 $-1 $68 $26 #
plane-surface $-1 -24.539131796247219 -5.6453201256658758 68.394690711144733 0 0.81915205242281985 0.57357642473473569 1 0 0 forward_v I I I I #
coedge $-1 $69 $70 $71 $72 reversed $27 $-1 #
face $-1 $73 $74 $15 $-1 $75 forward single #
loop $-1 $76 $77 $29 #
cone-surface $-1 -24.539131796247219 36.012247603475494 6.3211040841847748 0 -0.81915205242281985 -0.57357642473473569 0.25 0 0 1 I I -0.70710678118654746 0.70710678118654746 0.25 forward I I I I #
loop $-1 $-1 $78 $19 #
coedge $-1 $48 $48 $79 $80 reversed $30 $-1 #
face $-1 $81 $82 $12 $-1 $83 reversed single #
loop $-1 $-1 $84 $32 #
plane-surface $-1 0 -38.363648043642321 0 0 1 0 0 0 1 forward_v I I I I #
coedge $-1 $85 $86 $87 $88 forward $33 $-1 #
coedge $-1 $89 $35 $90 $91 forward $21 $-1 #
coedge $-1 $35 $89 $92 $93 forward $21 $-1 #
coedge $-1 $94 $95 $35 $56 reversed $96 $-1 #
edge $-1 $97 -38.363648043642321 $98 38.363648043642321 $55 $99 forward 7 unknown #
face $-1 $100 $101 $13 $-1 $102 reversed single #
loop $-1 $-1 $103 $36 #
plane-surface $-1 0 0 8.7966989108280345 0 0 1 1 0 0 forward_v I I I I #
coedge $-1 $104 $105 $106 $107 forward $37 $-1 #
coedge $-1 $108 $39 $104 $109 forward $24 $-1 #
coedge $-1 $39 $108 $110 $111 reversed $24 $-1 #
coedge $-1 $112 $113 $39 $64 reversed $114 $-1 #
edge $-1 $115 -3.0588334509437161 $116 3.0588334509437161 $63 $117 forward 7 unknown #
face $-1 $118 $119 $14 $-1 $120 forward single #
loop $-1 $-1 $121 $40 #
plane-surface $-1 -9.5922714954140353 122.99307622160595 158.46826281811317 -1 0 0 0 0.81915205242281985 0.57357642473473569 forward_v I I I I #
coedge $-1 $122 $123 $124 $125 reversed $41 $-1 #
coedge $-1 $70 $43 $123 $126 forward $27 $-1 #
coedge $-1 $43 $69 $127 $128 reversed $27 $-1 #
coedge $-1 $129 $124 $43 $72 forward $119 $-1 #
edge $-1 $130 -25.410896375250111 $131 -23.132890067160652 $71 $132 forward 7 unknown #
face $-1 $133 $134 $15 $-1 $135 forward single #
loop $-1 $-1 $136 $44 #
plane-surface $-1 -39.485992097080398 122.99307622160595 158.46826281811317 1 0 0 0 -0.81915205242281985 -0.57357642473473569 forward_v I I I I #
loop $-1 $-1 $137 $29 #
coedge $-1 $77 $77 $78 $138 forward $45 $-1 #
coedge $-1 $78 $78 $77 $138 reversed $47 $-1 #
coedge $-1 $79 $79 $48 $80 forward $134 $-1 #
edge $-1 $139 -2.0347332158398754e-015 $139 6.2831853071795987 $79 $140 forward 7 unknown #
face $-1 $141 $142 $12 $-1 $143 reversed single #
loop $-1 $-1 $144 $49 #
plane-surface $-1 -78.519241920224616 0 0 1 0 0 0 0 -1 forward_v I I I I #
coedge $-1 $145 $92 $146 $147 forward $50 $-1 #
coedge $-1 $148 $52 $145 $149 forward $33 $-1 #
coedge $-1 $52 $148 $150 $151 forward $33 $-1 #
coedge $-1 $95 $94 $52 $88 reversed $96 $-1 #
edge $-1 $152 -38.363648043642321 $153 38.363648043642321 $87 $154 forward 7 unknown #
coedge $-1 $54 $53 $155 $156 forward $21 $-1 #
coedge $-1 $157 $158 $53 $91 reversed $142 $-1 #
edge $-1 $98 -78.519241920224616 $159 78.519241920224616 $90 $160 forward 7 unknown #
coedge $-1 $84 $161 $54 $93 reversed $50 $-1 #
edge $-1 $162 -78.519241920224616 $97 78.519241920224616 $92 $163 forward 7 unknown #
coedge $-1 $87 $55 $161 $164 forward $96 $-1 #
coedge $-1 $55 $87 $157 $165 reversed $96 $-1 #
loop $-1 $-1 $94 $141 #
vertex $-1 $56 $166 #
vertex $-1 $56 $167 #
straight-curve $-1 78.519241920224616 0 8.7966989108280345 0 1 0 I I #
face $-1 $168 $169 $13 $-1 $170 reversed single #
loop $-1 $-1 $171 $57 #
plane-surface $-1 0 0 -8.7966989108280345 0 0 1 1 0 0 forward_v I I I I #
coedge $-1 $172 $173 $174 $175 forward $58 $-1 #
coedge $-1 $176 $60 $61 $109 reversed $37 $-1 #
coedge $-1 $60 $176 $173 $177 reversed $37 $-1 #
coedge $-1 $178 $179 $60 $107 reversed $180 $-1 #
edge $-1 $181 -1.5959268781151579 $182 1.5959268781151588 $106 $183 forward 7 unknown #
coedge $-1 $62 $61 $179 $184 forward $24 $-1 #
edge $-1 $116 -78.519241920224616 $182 78.519241920224616 $104 $185 forward 7 unknown #
coedge $-1 $186 $187 $62 $111 forward $169 $-1 #
edge $-1 $115 -78.519241920224616 $188 78.519241920224616 $110 $189 forward 7 unknown #
coedge $-1 $190 $63 $187 $191 forward $114 $-1 #
coedge $-1 $63 $174 $176 $192 forward $114 $-1 #
loop $-1 $-1 $112 $193 #
vertex $-1 $191 $194 #
vertex $-1 $192 $195 #
straight-curve $-1 78.519241920224616 -41.422481494586037 5.6048451545977178 0 -1 0 I I #
face $-1 $196 $197 $14 $-1 $198 reversed single #
loop $-1 $-1 $199 $65 #
plane-surface $-1 0 0 8.7966989108280345 0 0 1 1 0 0 forward_v I I I I #
coedge $-1 $200 $201 $199 $202 reversed $66 $-1 #
coedge $-1 $203 $68 $201 $204 reversed $41 $-1 #
coedge $-1 $68 $203 $69 $126 reversed $41 $-1 #
coedge $-1 $71 $199 $68 $125 forward $119 $-1 #
edge $-1 $205 -2.677294402709574 $130 27.216426198956789 $124 $206 forward 7 unknown #
edge $-1 $130 72.755713208607276 $207 76.727296087284643 $69 $208 forward 7 unknown #
coedge $-1 $209 $210 $70 $128 forward $211 $-1 #
edge $-1 $131 70.43743249822856 $207 73.69076276466447 $127 $212 forward 7 unknown #
coedge $-1 $213 $71 $210 $214 forward $119 $-1 #
vertex $-1 $125 $215 #
vertex $-1 $214 $216 #
straight-curve $-1 -39.485992097080398 61.496538110802973 8.7966989108280416 0 1 0 I I #
face $-1 $217 $218 $15 $-1 $219 forward single #
loop $-1 $220 $79 $73 #
plane-surface $-1 -24.539131796247219 -5.6453201256658758 68.394690711144733 0 0.81915205242281985 0.57357642473473569 1 0 0 forward_v I I I I #
coedge $-1 $221 $222 $223 $224 reversed $74 $-1 #
coedge $-1 $137 $137 $-1 $225 forward $76 $-1 #
edge $-1 $226 0 $226 6.2831853071796004 $77 $227 forward 7 unknown #
vertex $-1 $80 $228 #
ellipse-curve $-1 -24.539131796247219 37.224644889597592 7.1700337776100769 0 -0.81915205242281985 -0.57357642473473569 0.5 0 0 1 I I #
face $-1 $-1 $96 $12 $-1 $229 reversed single #
loop $-1 $-1 $157 $81 #
plane-surface $-1 0 38.363648043642321 0 0 -1 0 0 0 -1 forward_v I I I I #
coedge $-1 $230 $155 $158 $231 forward $82 $-1 #
coedge $-1 $161 $84 $85 $149 reversed $50 $-1 #
coedge $-1 $155 $230 $84 $147 reversed $82 $-1 #
edge $-1 $162 -8.7966989108280345 $232 8.7966989108280345 $146 $233 forward 7 unknown #
coedge $-1 $86 $85 $230 $234 forward $33 $-1 #
edge $-1 $153 -78.519241920224616 $232 78.519241920224616 $145 $235 forward 7 unknown #
coedge $-1 $158 $157 $86 $151 reversed $142 $-1 #
edge $-1 $236 -78.519241920224616 $152 78.519241920224616 $150 $237 forward 7 unknown #
vertex $-1 $88 $238 #
vertex $-1 $164 $239 #
straight-curve $-1 78.519241920224616 0 -8.7966989108280345 0 -1 0 I I #
coedge $-1 $144 $146 $89 $156 reversed $82 $-1 #
edge $-1 $159 -38.363648043642321 $162 38.363648043642321 $155 $240 forward 7 unknown #
coedge $-1 $150 $90 $95 $165 forward $142 $-1 #
coedge $-1 $90 $150 $144 $231 reversed $142 $-1 #
vertex $-1 $91 $241 #
straight-curve $-1 0 38.363648043642321 8.7966989108280345 -1 0 0 I I #
coedge $-1 $92 $145 $94 $164 reversed $50 $-1 #
vertex $-1 $156 $242 #
straight-curve $-1 0 -38.363648043642321 8.7966989108280345 1 0 0 I I #
edge $-1 $97 -8.7966989108280345 $153 8.7966989108280345 $94 $243 forward 7 unknown #
edge $-1 $98 -8.7966989108280345 $152 8.7966989108280345 $95 $244 forward 7 unknown #
point $-1 78.519241920224616 -38.363648043642321 8.7966989108280345 #
point $-1 78.519241920224616 38.363648043642321 8.7966989108280345 #
face $-1 $245 $180 $13 $-1 $246 reversed single #
loop $-1 $-1 $110 $100 #
plane-surface $-1 0 -38.363648043642321 0 0 1 0 0 0 1 forward_v I I I I #
coedge $-1 $247 $248 $190 $249 forward $101 $-1 #
coedge $-1 $250 $103 $251 $252 forward $58 $-1 #
coedge $-1 $103 $250 $105 $177 forward $58 $-1 #
coedge $-1 $113 $253 $103 $175 reversed $114 $-1 #
edge $-1 $254 -44.481314945529753 $255 38.363648043642321 $174 $256 forward 7 unknown #
coedge $-1 $105 $104 $113 $192 reversed $37 $-1 #
edge $-1 $181 -78.519241920224616 $254 78.519241920224616 $105 $257 forward 7 unknown #
coedge $-1 $258 $106 $250 $259 reversed $180 $-1 #
coedge $-1 $106 $260 $108 $184 reversed $180 $-1 #
loop $-1 $-1 $258 $168 #
vertex $-1 $259 $261 #
vertex $-1 $184 $262 #
straight-curve $-1 -78.519241920224616 -44.481314945529753 7.2007720327128766 0 0 -1 I I #
edge $-1 $182 -3.0588334509437161 $188 3.0588334509437161 $179 $263 forward 7 unknown #
straight-curve $-1 0 -44.481314945529753 5.6048451545977178 -1 0 0 I I #
coedge $-1 $264 $110 $260 $265 forward $169 $-1 #
coedge $-1 $110 $264 $112 $191 reversed $169 $-1 #
vertex $-1 $265 $266 #
straight-curve $-1 0 -38.363648043642321 5.6048451545977178 -1 0 0 I I #
coedge $-1 $253 $112 $171 $249 reversed $114 $-1 #
edge $-1 $115 -5.6048451545977178 $267 8.7966989108280345 $112 $268 forward 7 unknown #
edge $-1 $254 -1.5959268781151579 $116 1.5959268781151588 $113 $269 forward 7 unknown #
face $-1 $-1 $114 $13 $-1 $270 reversed single #
point $-1 78.519241920224616 -38.363648043642321 5.6048451545977178 #
point $-1 78.519241920224616 -44.481314945529753 5.6048451545977178 #
face $-1 $271 $272 $14 $-1 $273 reversed single #
loop $-1 $-1 $274 $118 #
plane-surface $-1 0 -41.422481494586037 5.6048451545977178 0 0 1 1 0 0 forward_v I I I I #
coedge $-1 $124 $275 $121 $202 forward $119 $-1 #
coedge $-1 $201 $121 $276 $277 reversed $66 $-1 #
coedge $-1 $121 $200 $122 $204 forward $66 $-1 #
edge $-1 $278 23.132890067160652 $205 25.410896375250111 $199 $279 forward 7 unknown #
coedge $-1 $123 $122 $209 $280 reversed $41 $-1 #
edge $-1 $281 -76.727296087284643 $205 -72.755713208607276 $201 $282 forward 7 unknown #
vertex $-1 $125 $283 #
straight-curve $-1 -12.269565898123609 36.085641735552869 8.7966989108280345 -1 0 0 I I #
vertex $-1 $280 $284 #
straight-curve $-1 -39.485992097080398 -5.6453201256658758 68.394690711144733 0 0.57357642473473569 -0.81915205242281985 I I #
coedge $-1 $276 $127 $203 $280 forward $211 $-1 #
coedge $-1 $127 $285 $129 $214 reversed $211 $-1 #
loop $-1 $-1 $276 $286 #
straight-curve $-1 -39.485992097080398 38.363648043642321 79.234131409056587 0 0 -1 I I #
coedge $-1 $287 $129 $288 $289 forward $119 $-1 #
edge $-1 $131 39.485992097080398 $290 78.519241920224616 $210 $291 forward 7 unknown #
point $-1 -39.485992097080398 36.085641735552862 8.7966989108280274 #
point $-1 -39.485992097080398 38.363648043642321 8.7966989108280345 #
face $-1 $292 $293 $15 $-1 $294 forward single #
loop $-1 $-1 $295 $133 #
plane-surface $-1 -9.5922714954140353 122.99307622160595 158.46826281811317 -1 0 0 0 0.81915205242281985 0.57357642473473569 forward_v I I I I #
loop $-1 $-1 $296 $73 #
coedge $-1 $222 $136 $297 $298 forward $74 $-1 #
coedge $-1 $136 $221 $299 $300 reversed $74 $-1 #
coedge $-1 $301 $302 $136 $224 forward $293 $-1 #
edge $-1 $303 -25.410896375250111 $304 -23.132890067160652 $223 $305 forward 7 unknown #
edge $-1 $306 1 $306 0 $137 $-1 forward 7 unknown #
vertex $-1 $138 $307 #
ellipse-curve $-1 -24.539131796247219 36.2170356165812 6.4644981903684586 0 0.81915205242281985 0.57357642473473569 0.5 0 0 1 I I #
point $-1 -24.039131796247219 37.224644889597585 7.1700337776100707 #
plane-surface $-1 78.519241920224616 0 0 -1 0 0 0 0 1 forward_v I I I I #
coedge $-1 $146 $144 $148 $234 reversed $82 $-1 #
edge $-1 $159 -8.7966989108280345 $236 8.7966989108280345 $158 $308 forward 7 unknown #
vertex $-1 $234 $309 #
straight-curve $-1 -78.519241920224616 -38.363648043642321 0 0 0 -1 I I #
edge $-1 $232 -38.363648043642321 $236 38.363648043642321 $230 $310 forward 7 unknown #
straight-curve $-1 0 -38.363648043642321 -8.7966989108280345 -1 0 0 I I #
vertex $-1 $151 $311 #
straight-curve $-1 0 38.363648043642321 -8.7966989108280345 1 0 0 I I #
point $-1 78.519241920224616 38.363648043642321 -8.7966989108280345 #
point $-1 78.519241920224616 -38.363648043642321 -8.7966989108280345 #
straight-curve $-1 -78.519241920224616 0 8.7966989108280345 0 -1 0 I I #
point $-1 -78.519241920224616 38.363648043642321 8.7966989108280345 #
point $-1 -78.519241920224616 -38.363648043642321 8.7966989108280345 #
straight-curve $-1 78.519241920224616 -38.363648043642321 0 0 0 -1 I I #
straight-curve $-1 78.519241920224616 38.363648043642321 0 0 0 -1 I I #
face $-1 $193 $312 $13 $-1 $313 reversed single #
plane-surface $-1 -78.519241920224616 0 0 1 0 0 0 0 -1 forward_v I I I I #
coedge $-1 $314 $171 $264 $315 forward $101 $-1 #
coedge $-1 $171 $314 $316 $317 forward $101 $-1 #
edge $-1 $318 -38.363648043642321 $267 38.363648043642321 $190 $319 forward 7 unknown #
coedge $-1 $173 $172 $178 $259 forward $58 $-1 #
coedge $-1 $320 $321 $172 $252 reversed $312 $-1 #
edge $-1 $255 -78.519241920224616 $322 78.519241920224616 $251 $323 forward 7 unknown #
coedge $-1 $174 $190 $320 $324 reversed $114 $-1 #
vertex $-1 $175 $325 #
vertex $-1 $175 $326 #
straight-curve $-1 78.519241920224616 0 8.7966989108280345 0 1 0 I I #
straight-curve $-1 0 -44.481314945529753 8.7966989108280345 1 0 0 I I #
coedge $-1 $327 $178 $321 $328 forward $180 $-1 #
edge $-1 $322 -38.363648043642321 $181 44.481314945529753 $178 $329 forward 7 unknown #
coedge $-1 $179 $327 $186 $265 reversed $180 $-1 #
point $-1 -78.519241920224616 -44.481314945529753 8.7966989108280345 #
point $-1 -78.519241920224616 -44.481314945529753 5.6048451545977178 #
straight-curve $-1 -78.519241920224616 -41.422481494586037 5.6048451545977178 0 1 0 I I #
coedge $-1 $187 $186 $247 $315 reversed $169 $-1 #
edge $-1 $188 -5.6048451545977178 $330 8.7966989108280345 $260 $331 forward 7 unknown #
point $-1 -78.519241920224616 -38.363648043642321 5.6048451545977178 #
vertex $-1 $191 $332 #
straight-curve $-1 78.519241920224616 -38.363648043642321 0 0 0 -1 I I #
straight-curve $-1 78.519241920224616 -44.481314945529753 7.2007720327128766 0 0 -1 I I #
plane-surface $-1 78.519241920224616 0 0 -1 0 0 0 0 1 forward_v I I I I #
face $-1 $333 $334 $14 $-1 $335 reversed single #
loop $-1 $-1 $336 $196 #
plane-surface $-1 0 -44.481314945529753 7.2007720327128766 0 1 0 0 0 1 forward_v I I I I #
coedge $-1 $337 $338 $339 $340 forward $197 $-1 #
coedge $-1 $199 $341 $342 $343 forward $119 $-1 #
coedge $-1 $342 $209 $200 $277 forward $211 $-1 #
edge $-1 $281 -73.69076276466447 $278 -70.43743249822856 $276 $344 forward 7 unknown #
vertex $-1 $277 $345 #
straight-curve $-1 -9.5922714954140353 61.496538110802973 8.7966989108280416 0 -1 0 I I #
edge $-1 $207 -27.216426198956789 $281 2.677294402709574 $209 $346 forward 7 unknown #
vertex $-1 $280 $347 #
straight-curve $-1 -9.5922714954140353 -5.6453201256658758 68.394690711144733 0 -0.57357642473473569 0.81915205242281985 I I #
point $-1 -9.5922714954140353 36.085641735552862 8.7966989108280274 #
point $-1 -39.485992097080398 38.363648043642321 5.5433686443921246 #
coedge $-1 $210 $348 $349 $350 reversed $211 $-1 #
face $-1 $351 $211 $14 $-1 $352 reversed single #
coedge $-1 $341 $213 $353 $354 forward $119 $-1 #
coedge $-1 $349 $355 $213 $289 reversed $356 $-1 #
edge $-1 $290 -38.363648043642321 $357 44.481314945529753 $288 $358 forward 7 unknown #
vertex $-1 $214 $359 #
straight-curve $-1 0 38.363648043642321 8.7966989108280345 -1 0 0 I I #
face $-1 $360 $361 $15 $-1 $362 reversed single #
loop $-1 $-1 $363 $217 #
plane-surface $-1 0 0 8.7966989108280345 0 0 1 1 0 0 forward_v I I I I #
coedge $-1 $364 $365 $363 $366 reversed $218 $-1 #
coedge $-1 $367 $297 $302 $368 reversed $220 $-1 #
coedge $-1 $296 $369 $221 $298 reversed $220 $-1 #
edge $-1 $303 72.755713208607276 $370 76.727296087284643 $221 $371 forward 7 unknown #
coedge $-1 $372 $373 $222 $300 forward $374 $-1 #
edge $-1 $304 70.43743249822856 $370 73.69076276466447 $299 $375 forward 7 unknown #
coedge $-1 $376 $223 $373 $377 forward $293 $-1 #
coedge $-1 $223 $363 $296 $368 forward $293 $-1 #
vertex $-1 $368 $378 #
vertex $-1 $377 $379 #
straight-curve $-1 -39.485992097080398 61.496538110802973 8.7966989108280416 0 1 0 I I #
vertex $-1 $225 $380 #
point $-1 -24.039131796247219 36.2170356165812 6.4644981903684586 #
straight-curve $-1 -78.519241920224616 38.363648043642321 0 0 0 -1 I I #
point $-1 -78.519241920224616 -38.363648043642321 -8.7966989108280345 #
straight-curve $-1 -78.519241920224616 0 -8.7966989108280345 0 1 0 I I #
point $-1 -78.519241920224616 38.363648043642321 -8.7966989108280345 #
loop $-1 $-1 $320 $245 #
plane-surface $-1 0 38.363648043642321 0 0 -1 0 0 0 -1 forward_v I I I I #
coedge $-1 $248 $247 $327 $381 forward $101 $-1 #
edge $-1 $267 -78.519241920224616 $330 78.519241920224616 $264 $382 forward 7 unknown #
coedge $-1 $321 $320 $248 $317 reversed $312 $-1 #
edge $-1 $383 -78.519241920224616 $318 78.519241920224616 $316 $384 forward 7 unknown #
vertex $-1 $249 $385 #
straight-curve $-1 78.519241920224616 0 -8.7966989108280345 0 -1 0 I I #
coedge $-1 $316 $251 $253 $324 forward $312 $-1 #
coedge $-1 $251 $316 $258 $328 reversed $312 $-1 #
vertex $-1 $252 $386 #
straight-curve $-1 0 38.363648043642321 8.7966989108280345 -1 0 0 I I #
edge $-1 $255 -8.7966989108280345 $318 8.7966989108280345 $253 $387 forward 7 unknown #
point $-1 78.519241920224616 -44.481314945529753 8.7966989108280345 #
point $-1 78.519241920224616 38.363648043642321 8.7966989108280345 #
coedge $-1 $260 $258 $314 $381 reversed $180 $-1 #
edge $-1 $322 -8.7966989108280345 $383 8.7966989108280345 $321 $388 forward 7 unknown #
straight-curve $-1 -78.519241920224616 0 8.7966989108280345 0 -1 0 I I #
vertex $-1 $381 $389 #
straight-curve $-1 -78.519241920224616 -38.363648043642321 0 0 0 -1 I I #
point $-1 78.519241920224616 -38.363648043642321 -8.7966989108280345 #
face $-1 $390 $391 $14 $-1 $392 reversed single #
loop $-1 $-1 $393 $271 #
plane-surface $-1 0 0 -8.7966989108280345 0 0 1 1 0 0 forward_v I I I I #
coedge $-1 $394 $353 $355 $395 forward $272 $-1 #
coedge $-1 $396 $274 $394 $397 forward $197 $-1 #
coedge $-1 $274 $396 $398 $399 reversed $197 $-1 #
coedge $-1 $400 $401 $274 $340 reversed $402 $-1 #
edge $-1 $403 -3.0588334509437161 $404 3.0588334509437161 $339 $405 forward 7 unknown #
coedge $-1 $275 $287 $406 $407 forward $119 $-1 #
coedge $-1 $408 $276 $275 $343 reversed $211 $-1 #
edge $-1 $409 -78.519241920224616 $278 9.5922714954140353 $342 $291 forward 7 unknown #
straight-curve $-1 -9.5922714954140353 38.363648043642321 79.234131409056587 0 0 1 I I #
point $-1 -9.5922714954140353 38.363648043642321 8.7966989108280345 #
straight-curve $-1 -12.269565898123609 38.363648043642328 5.5433686443921175 1 0 0 I I #
point $-1 -9.5922714954140353 38.363648043642321 5.5433686443921246 #
coedge $-1 $285 $408 $410 $411 reversed $211 $-1 #
coedge $-1 $412 $288 $285 $350 forward $356 $-1 #
edge $-1 $290 -8.7966989108280345 $413 8.7966989108280345 $285 $414 forward 7 unknown #
face $-1 $-1 $402 $14 $-1 $415 reversed single #
plane-surface $-1 0 38.363648043642321 0 0 -1 0 0 0 -1 forward_v I I I I #
coedge $-1 $336 $416 $287 $354 reversed $272 $-1 #
edge $-1 $357 -78.519241920224616 $417 78.519241920224616 $353 $418 forward 7 unknown #
coedge $-1 $288 $419 $336 $395 reversed $356 $-1 #
loop $-1 $-1 $349 $390 #
vertex $-1 $289 $420 #
straight-curve $-1 -78.519241920224616 0 8.7966989108280345 0 -1 0 I I #
point $-1 -78.519241920224616 38.363648043642321 8.7966989108280345 #
face $-1 $421 $422 $15 $-1 $423 reversed single #
loop $-1 $-1 $424 $292 #
plane-surface $-1 0 -41.422481494586037 5.6048451545977178 0 0 1 1 0 0 forward_v I I I I #
coedge $-1 $302 $425 $295 $366 forward $293 $-1 #
coedge $-1 $365 $295 $426 $427 reversed $218 $-1 #
coedge $-1 $295 $364 $367 $428 forward $218 $-1 #
edge $-1 $429 23.132890067160652 $430 25.410896375250111 $363 $431 forward 7 unknown #
coedge $-1 $369 $296 $365 $428 reversed $220 $-1 #
edge $-1 $430 -2.677294402709574 $303 27.216426198956789 $302 $432 forward 7 unknown #
coedge $-1 $297 $367 $372 $433 reversed $220 $-1 #
vertex $-1 $433 $434 #
straight-curve $-1 -39.485992097080398 -5.6453201256658758 68.394690711144733 0 0.57357642473473569 -0.81915205242281985 I I #
coedge $-1 $426 $299 $369 $433 forward $374 $-1 #
coedge $-1 $299 $435 $301 $377 reversed $374 $-1 #
loop $-1 $-1 $426 $436 #
straight-curve $-1 -39.485992097080398 38.363648043642321 79.234131409056587 0 0 -1 I I #
coedge $-1 $437 $301 $438 $439 forward $293 $-1 #
edge $-1 $304 39.485992097080398 $440 78.519241920224616 $373 $441 forward 7 unknown #
point $-1 -39.485992097080398 36.085641735552862 8.7966989108280274 #
point $-1 -39.485992097080398 38.363648043642321 8.7966989108280345 #
point $-1 -24.539131796247219 35.807459590369788 6.1777099780010909 #
edge $-1 $330 -38.363648043642321 $383 38.363648043642321 $327 $442 forward 7 unknown #
straight-curve $-1 0 -38.363648043642321 -8.7966989108280345 -1 0 0 I I #
vertex $-1 $317 $443 #
straight-curve $-1 0 38.363648043642321 -8.7966989108280345 1 0 0 I I #
point $-1 78.519241920224616 38.363648043642321 -8.7966989108280345 #
point $-1 -78.519241920224616 38.363648043642321 8.7966989108280345 #
straight-curve $-1 78.519241920224616 38.363648043642321 0 0 0 -1 I I #
straight-curve $-1 -78.519241920224616 38.363648043642321 0 0 0 -1 I I #
point $-1 -78.519241920224616 -38.363648043642321 -8.7966989108280345 #
face $-1 $286 $356 $14 $-1 $444 reversed single #
loop $-1 $-1 $398 $333 #
plane-surface $-1 0 -38.363648043642321 0 0 1 0 0 0 1 forward_v I I I I #
coedge $-1 $445 $410 $446 $447 forward $334 $-1 #
coedge $-1 $416 $336 $337 $397 reversed $272 $-1 #
edge $-1 $357 -1.5959268781151579 $448 1.5959268781151588 $355 $449 forward 7 unknown #
coedge $-1 $338 $337 $419 $450 forward $197 $-1 #
edge $-1 $404 -78.519241920224616 $448 78.519241920224616 $394 $451 forward 7 unknown #
coedge $-1 $452 $453 $338 $399 forward $391 $-1 #
edge $-1 $403 -78.519241920224616 $454 78.519241920224616 $398 $455 forward 7 unknown #
coedge $-1 $446 $339 $453 $456 forward $402 $-1 #
coedge $-1 $339 $406 $416 $457 forward $402 $-1 #
loop $-1 $-1 $400 $351 #
vertex $-1 $456 $458 #
vertex $-1 $457 $459 #
straight-curve $-1 78.519241920224616 -41.422481494586037 5.6048451545977178 0 -1 0 I I #
coedge $-1 $401 $460 $341 $407 reversed $402 $-1 #
edge $-1 $417 -44.481314945529753 $409 38.363648043642321 $406 $461 forward 7 unknown #
coedge $-1 $348 $342 $460 $462 forward $211 $-1 #
vertex $-1 $407 $463 #
coedge $-1 $393 $464 $348 $411 forward $334 $-1 #
edge $-1 $413 -78.519241920224616 $465 78.519241920224616 $348 $466 forward 7 unknown #
coedge $-1 $467 $349 $464 $468 reversed $356 $-1 #
vertex $-1 $411 $469 #
straight-curve $-1 -78.519241920224616 38.363648043642321 0 0 0 -1 I I #
plane-surface $-1 78.519241920224616 0 0 -1 0 0 0 0 1 forward_v I I I I #
coedge $-1 $353 $394 $401 $457 reversed $272 $-1 #
vertex $-1 $407 $470 #
straight-curve $-1 0 -44.481314945529753 8.7966989108280345 1 0 0 I I #
coedge $-1 $355 $467 $396 $450 reversed $356 $-1 #
point $-1 -78.519241920224616 -44.481314945529753 8.7966989108280345 #
face $-1 $471 $472 $15 $-1 $473 reversed single #
loop $-1 $-1 $474 $360 #
plane-surface $-1 0 -44.481314945529753 7.2007720327128766 0 1 0 0 0 1 forward_v I I I I #
coedge $-1 $475 $476 $477 $478 forward $361 $-1 #
coedge $-1 $363 $479 $480 $481 forward $293 $-1 #
coedge $-1 $480 $372 $364 $427 forward $374 $-1 #
edge $-1 $482 -73.69076276466447 $429 -70.43743249822856 $426 $483 forward 7 unknown #
edge $-1 $482 -76.727296087284643 $430 -72.755713208607276 $365 $484 forward 7 unknown #
vertex $-1 $427 $485 #
vertex $-1 $368 $486 #
straight-curve $-1 -9.5922714954140353 61.496538110802973 8.7966989108280416 0 -1 0 I I #
straight-curve $-1 -12.269565898123609 36.085641735552869 8.7966989108280345 -1 0 0 I I #
edge $-1 $370 -27.216426198956789 $482 2.677294402709574 $372 $487 forward 7 unknown #
point $-1 -39.485992097080398 38.363648043642321 5.5433686443921246 #
coedge $-1 $373 $488 $489 $490 reversed $374 $-1 #
face $-1 $491 $374 $15 $-1 $492 reversed single #
coedge $-1 $479 $376 $493 $494 forward $293 $-1 #
coedge $-1 $489 $495 $376 $439 reversed $496 $-1 #
edge $-1 $440 -38.363648043642321 $497 44.481314945529753 $438 $498 forward 7 unknown #
vertex $-1 $377 $499 #
straight-curve $-1 0 38.363648043642321 8.7966989108280345 -1 0 0 I I #
straight-curve $-1 -78.519241920224616 0 -8.7966989108280345 0 1 0 I I #
point $-1 -78.519241920224616 38.363648043642321 -8.7966989108280345 #
plane-surface $-1 -78.519241920224616 0 0 1 0 0 0 0 -1 forward_v I I I I #
coedge $-1 $464 $393 $500 $501 forward $334 $-1 #
coedge $-1 $460 $400 $393 $447 reversed $402 $-1 #
edge $-1 $465 -38.363648043642321 $502 38.363648043642321 $446 $503 forward 7 unknown #
vertex $-1 $450 $504 #
straight-curve $-1 -78.519241920224616 -44.481314945529753 7.2007720327128766 0 0 -1 I I #
edge $-1 $448 -3.0588334509437161 $454 3.0588334509437161 $419 $505 forward 7 unknown #
straight-curve $-1 0 -44.481314945529753 5.6048451545977178 -1 0 0 I I #
coedge $-1 $500 $398 $467 $506 forward $391 $-1 #
coedge $-1 $398 $500 $400 $456 reversed $391 $-1 #
vertex $-1 $506 $507 #
straight-curve $-1 0 -38.363648043642321 5.6048451545977178 -1 0 0 I I #
edge $-1 $403 -5.6048451545977178 $502 8.7966989108280345 $400 $508 forward 7 unknown #
edge $-1 $417 -1.5959268781151579 $404 1.5959268781151588 $401 $509 forward 7 unknown #
point $-1 78.519241920224616 -38.363648043642321 5.6048451545977178 #
point $-1 78.519241920224616 -44.481314945529753 5.6048451545977178 #
coedge $-1 $406 $446 $408 $462 reversed $402 $-1 #
straight-curve $-1 78.519241920224616 0 8.7966989108280345 0 1 0 I I #
edge $-1 $409 -8.7966989108280345 $465 8.7966989108280345 $460 $510 forward 7 unknown #
point $-1 78.519241920224616 38.363648043642321 8.7966989108280345 #
coedge $-1 $410 $445 $412 $468 forward $334 $-1 #
vertex $-1 $447 $511 #
straight-curve $-1 0 38.363648043642321 -8.7966989108280345 1 0 0 I I #
coedge $-1 $419 $412 $452 $506 reversed $356 $-1 #
edge $-1 $512 -38.363648043642321 $413 38.363648043642321 $412 $513 forward 7 unknown #
point $-1 -78.519241920224616 38.363648043642321 -8.7966989108280345 #
point $-1 78.519241920224616 -44.481314945529753 8.7966989108280345 #
face $-1 $514 $515 $15 $-1 $516 reversed single #
loop $-1 $-1 $517 $421 #
plane-surface $-1 0 0 -8.7966989108280345 0 0 1 1 0 0 forward_v I I I I #
coedge $-1 $518 $493 $495 $519 forward $422 $-1 #
coedge $-1 $520 $424 $518 $521 forward $361 $-1 #
coedge $-1 $424 $520 $522 $523 reversed $361 $-1 #
coedge $-1 $524 $525 $424 $478 reversed $526 $-1 #
edge $-1 $527 -3.0588334509437161 $528 3.0588334509437161 $477 $529 forward 7 unknown #
coedge $-1 $425 $437 $530 $531 forward $293 $-1 #
coedge $-1 $532 $426 $425 $481 reversed $374 $-1 #
edge $-1 $533 -78.519241920224616 $429 9.5922714954140353 $480 $441 forward 7 unknown #
vertex $-1 $433 $534 #
straight-curve $-1 -9.5922714954140353 38.363648043642321 79.234131409056587 0 0 1 I I #
straight-curve $-1 -9.5922714954140353 -5.6453201256658758 68.394690711144733 0 -0.57357642473473569 0.81915205242281985 I I #
point $-1 -9.5922714954140353 38.363648043642321 8.7966989108280345 #
point $-1 -9.5922714954140353 36.085641735552862 8.7966989108280274 #
straight-curve $-1 -12.269565898123609 38.363648043642328 5.5433686443921175 1 0 0 I I #
coedge $-1 $435 $532 $535 $536 reversed $374 $-1 #
coedge $-1 $537 $438 $435 $490 forward $496 $-1 #
edge $-1 $440 -8.7966989108280345 $538 8.7966989108280345 $435 $539 forward 7 unknown #
face $-1 $-1 $526 $15 $-1 $540 reversed single #
plane-surface $-1 0 38.363648043642321 0 0 -1 0 0 0 -1 forward_v I I I I #
coedge $-1 $474 $541 $437 $494 reversed $422 $-1 #
edge $-1 $497 -78.519241920224616 $542 78.519241920224616 $493 $543 forward 7 unknown #
coedge $-1 $438 $544 $474 $519 reversed $496 $-1 #
loop $-1 $-1 $489 $514 #
vertex $-1 $439 $545 #
straight-curve $-1 -78.519241920224616 0 8.7966989108280345 0 -1 0 I I #
point $-1 -78.519241920224616 38.363648043642321 8.7966989108280345 #
coedge $-1 $453 $452 $445 $501 reversed $391 $-1 #
edge $-1 $502 -78.519241920224616 $512 78.519241920224616 $500 $546 forward 7 unknown #
vertex $-1 $456 $547 #
straight-curve $-1 78.519241920224616 0 -8.7966989108280345 0 -1 0 I I #
point $-1 -78.519241920224616 -44.481314945529753 5.6048451545977178 #
straight-curve $-1 -78.519241920224616 -41.422481494586037 5.6048451545977178 0 1 0 I I #
edge $-1 $454 -5.6048451545977178 $512 8.7966989108280345 $467 $548 forward 7 unknown #
point $-1 -78.519241920224616 -38.363648043642321 5.6048451545977178 #
straight-curve $-1 78.519241920224616 -38.363648043642321 0 0 0 -1 I I #
straight-curve $-1 78.519241920224616 -44.481314945529753 7.2007720327128766 0 0 -1 I I #
straight-curve $-1 78.519241920224616 38.363648043642321 0 0 0 -1 I I #
point $-1 78.519241920224616 38.363648043642321 -8.7966989108280345 #
vertex $-1 $468 $549 #
straight-curve $-1 -78.519241920224616 0 -8.7966989108280345 0 1 0 I I #
face $-1 $436 $496 $15 $-1 $550 reversed single #
loop $-1 $-1 $522 $471 #
plane-surface $-1 0 -38.363648043642321 0 0 1 0 0 0 1 forward_v I I I I #
coedge $-1 $551 $535 $552 $553 forward $472 $-1 #
coedge $-1 $541 $474 $475 $521 reversed $422 $-1 #
edge $-1 $497 -1.5959268781151579 $554 1.5959268781151588 $495 $555 forward 7 unknown #
coedge $-1 $476 $475 $544 $556 forward $361 $-1 #
edge $-1 $528 -78.519241920224616 $554 78.519241920224616 $518 $557 forward 7 unknown #
coedge $-1 $558 $559 $476 $523 forward $515 $-1 #
edge $-1 $527 -78.519241920224616 $560 78.519241920224616 $522 $561 forward 7 unknown #
coedge $-1 $552 $477 $559 $562 forward $526 $-1 #
coedge $-1 $477 $530 $541 $563 forward $526 $-1 #
loop $-1 $-1 $524 $491 #
vertex $-1 $562 $564 #
vertex $-1 $563 $565 #
straight-curve $-1 78.519241920224616 -41.422481494586037 5.6048451545977178 0 -1 0 I I #
coedge $-1 $525 $566 $479 $531 reversed $526 $-1 #
edge $-1 $542 -44.481314945529753 $533 38.363648043642321 $530 $567 forward 7 unknown #
coedge $-1 $488 $480 $566 $568 forward $374 $-1 #
vertex $-1 $531 $569 #
point $-1 -9.5922714954140353 38.363648043642321 5.5433686443921246 #
coedge $-1 $517 $570 $488 $536 forward $472 $-1 #
edge $-1 $538 -78.519241920224616 $571 78.519241920224616 $488 $572 forward 7 unknown #
coedge $-1 $573 $489 $570 $574 reversed $496 $-1 #
vertex $-1 $536 $575 #
straight-curve $-1 -78.519241920224616 38.363648043642321 0 0 0 -1 I I #
plane-surface $-1 78.519241920224616 0 0 -1 0 0 0 0 1 forward_v I I I I #
coedge $-1 $493 $518 $525 $563 reversed $422 $-1 #
vertex $-1 $531 $576 #
straight-curve $-1 0 -44.481314945529753 8.7966989108280345 1 0 0 I I #
coedge $-1 $495 $573 $520 $556 reversed $496 $-1 #
point $-1 -78.519241920224616 -44.481314945529753 8.7966989108280345 #
straight-curve $-1 0 -38.363648043642321 -8.7966989108280345 -1 0 0 I I #
point $-1 78.519241920224616 -38.363648043642321 -8.7966989108280345 #
straight-curve $-1 -78.519241920224616 -38.363648043642321 0 0 0 -1 I I #
point $-1 -78.519241920224616 -38.363648043642321 -8.7966989108280345 #
plane-surface $-1 -78.519241920224616 0 0 1 0 0 0 0 -1 forward_v I I I I #
coedge $-1 $570 $517 $577 $578 forward $472 $-1 #
coedge $-1 $566 $524 $517 $553 reversed $526 $-1 #
edge $-1 $571 -38.363648043642321 $579 38.363648043642321 $552 $580 forward 7 unknown #
vertex $-1 $556 $581 #
straight-curve $-1 -78.519241920224616 -44.481314945529753 7.2007720327128766 0 0 -1 I I #
edge $-1 $554 -3.0588334509437161 $560 3.0588334509437161 $544 $582 forward 7 unknown #
straight-curve $-1 0 -44.481314945529753 5.6048451545977178 -1 0 0 I I #
coedge $-1 $577 $522 $573 $583 forward $515 $-1 #
coedge $-1 $522 $577 $524 $562 reversed $515 $-1 #
vertex $-1 $583 $584 #
straight-curve $-1 0 -38.363648043642321 5.6048451545977178 -1 0 0 I I #
edge $-1 $527 -5.6048451545977178 $579 8.7966989108280345 $524 $585 forward 7 unknown #
edge $-1 $542 -1.5959268781151579 $528 1.5959268781151588 $525 $586 forward 7 unknown #
point $-1 78.519241920224616 -38.363648043642321 5.6048451545977178 #
point $-1 78.519241920224616 -44.481314945529753 5.6048451545977178 #
coedge $-1 $530 $552 $532 $568 reversed $526 $-1 #
straight-curve $-1 78.519241920224616 0 8.7966989108280345 0 1 0 I I #
edge $-1 $533 -8.7966989108280345 $571 8.7966989108280345 $566 $587 forward 7 unknown #
point $-1 78.519241920224616 38.363648043642321 8.7966989108280345 #
coedge $-1 $535 $551 $537 $574 forward $472 $-1 #
vertex $-1 $553 $588 #
straight-curve $-1 0 38.363648043642321 -8.7966989108280345 1 0 0 I I #
coedge $-1 $544 $537 $558 $583 reversed $496 $-1 #
edge $-1 $589 -38.363648043642321 $538 38.363648043642321 $537 $590 forward 7 unknown #
point $-1 -78.519241920224616 38.363648043642321 -8.7966989108280345 #
point $-1 78.519241920224616 -44.481314945529753 8.7966989108280345 #
coedge $-1 $559 $558 $551 $578 reversed $515 $-1 #
edge $-1 $579 -78.519241920224616 $589 78.519241920224616 $577 $591 forward 7 unknown #
vertex $-1 $562 $592 #
straight-curve $-1 78.519241920224616 0 -8.7966989108280345 0 -1 0 I I #
point $-1 -78.519241920224616 -44.481314945529753 5.6048451545977178 #
straight-curve $-1 -78.519241920224616 -41.422481494586037 5.6048451545977178 0 1 0 I I #
edge $-1 $560 -5.6048451545977178 $589 8.7966989108280345 $573 $593 forward 7 unknown #
point $-1 -78.519241920224616 -38.363648043642321 5.6048451545977178 #
straight-curve $-1 78.519241920224616 -38.363648043642321 0 0 0 -1 I I #
straight-curve $-1 78.519241920224616 -44.481314945529753 7.2007720327128766 0 0 -1 I I #
straight-curve $-1 78.519241920224616 38.363648043642321 0 0 0 -1 I I #
point $-1 78.519241920224616 38.363648043642321 -8.7966989108280345 #
vertex $-1 $574 $594 #
straight-curve $-1 -78.519241920224616 0 -8.7966989108280345 0 1 0 I I #
straight-curve $-1 0 -38.363648043642321 -8.7966989108280345 -1 0 0 I I #
point $-1 78.519241920224616 -38.363648043642321 -8.7966989108280345 #
straight-curve $-1 -78.519241920224616 -38.363648043642321 0 0 0 -1 I I #
point $-1 -78.519241920224616 -38.363648043642321 -8.7966989108280345 #
End-of-ACIS-data 