500 0 2 0           
7 Unknown 11 ACIS 5.0 NT 24 Fri Mar 26 00:40:41 1999 
-1 9.9999999999999995e-007 1e-010 
body $-1 $2 $-1 $3 #
body $-1 $4 $-1 $5 #
lump $-1 $-1 $6 $0 #
transform $-1 1 0 0 0 1 0 0 0 1 67.390972624897003 26.965644074123727 12.769570176377545 1 rotate no_reflect no_shear #
lump $-1 $-1 $7 $1 #
transform $-1 1 0 0 0 1 0 0 0 1 67.390972624897003 26.965644074123727 12.769570176377545 1 rotate no_reflect no_shear #
shell $-1 $-1 $-1 $8 $-1 $2 #
shell $-1 $-1 $-1 $9 $-1 $4 #
face $-1 $10 $11 $6 $-1 $12 forward single #
face $-1 $13 $14 $7 $-1 $15 reversed single #
face $-1 $16 $17 $6 $-1 $18 reversed single #
loop $-1 $-1 $19 $8 #
plane-surface $-1 0 0 12.769570176377545 0 0 1 1 0 0 forward_v I I I I #
face $-1 $20 $21 $7 $-1 $22 reversed single #
loop $-1 $-1 $23 $9 #
plane-surface $-1 -79.929578310758714 -23.611308267393344 0 1 0 0 0 0 -1 forward_v I I I I #
face $-1 $24 $25 $6 $-1 $26 reversed single #
loop $-1 $-1 $27 $10 #
plane-surface $-1 0 0 -12.769570176377545 0 0 1 1 0 0 forward_v I I I I #
coedge $-1 $28 $29 $30 $31 forward $11 $-1 #
face $-1 $32 $33 $7 $-1 $34 forward single #
loop $-1 $-1 $35 $13 #
plane-surface $-1 -73.660275467827859 -20.256972460662961 0 0 -1 0 0 0 -1 forward_v I I I I #
coedge $-1 $36 $37 $38 $39 forward $14 $-1 #
face $-1 $40 $41 $6 $-1 $42 reversed single #
loop $-1 $-1 $43 $16 #
plane-surface $-1 0 -26.965644074123727 0 0 1 0 0 0 1 forward_v I I I I #
coedge $-1 $44 $45 $46 $47 forward $17 $-1 #
coedge $-1 $48 $19 $49 $50 forward $11 $-1 #
coedge $-1 $19 $48 $51 $52 forward $11 $-1 #
coedge $-1 $53 $54 $19 $31 reversed $55 $-1 #
edge $-1 $56 -26.965644074123727 $57 26.965644074123727 $30 $58 forward 7 unknown #
face $-1 $59 $60 $7 $-1 $61 reversed single #
loop $-1 $-1 $62 $20 #
plane-surface $-1 0 0 12.769570176377545 0 0 1 1 0 0 forward_v I I I I #
coedge $-1 $63 $64 $65 $66 reversed $21 $-1 #
coedge $-1 $67 $23 $68 $69 reversed $14 $-1 #
coedge $-1 $23 $67 $70 $71 reversed $14 $-1 #
coedge $-1 $64 $63 $23 $39 reversed $21 $-1 #
edge $-1 $72 -12.769570176377545 $73 12.769570176377545 $38 $74 forward 7 unknown #
face $-1 $75 $76 $6 $-1 $77 reversed single #
loop $-1 $-1 $78 $24 #
plane-surface $-1 -67.390972624897003 0 0 1 0 0 0 0 -1 forward_v I I I I #
coedge $-1 $79 $51 $80 $81 forward $25 $-1 #
coedge $-1 $82 $27 $79 $83 forward $17 $-1 #
coedge $-1 $27 $82 $84 $85 forward $17 $-1 #
coedge $-1 $54 $53 $27 $47 reversed $55 $-1 #
edge $-1 $86 -26.965644074123727 $87 26.965644074123727 $46 $88 forward 7 unknown #
coedge $-1 $29 $28 $89 $90 forward $11 $-1 #
coedge $-1 $91 $92 $28 $50 reversed $76 $-1 #
edge $-1 $57 -67.390972624897003 $93 67.390972624897003 $49 $94 forward 7 unknown #
coedge $-1 $43 $95 $29 $52 reversed $25 $-1 #
edge $-1 $96 -67.390972624897003 $56 67.390972624897003 $51 $97 forward 7 unknown #
coedge $-1 $46 $30 $95 $98 forward $55 $-1 #
coedge $-1 $30 $46 $91 $99 reversed $55 $-1 #
loop $-1 $-1 $53 $75 #
vertex $-1 $31 $100 #
vertex $-1 $31 $101 #
straight-curve $-1 67.390972624897003 0 12.769570176377545 0 1 0 I I #
face $-1 $102 $103 $7 $-1 $104 reversed single #
loop $-1 $-1 $105 $32 #
plane-surface $-1 0 0 -12.769570176377545 0 0 1 1 0 0 forward_v I I I I #
coedge $-1 $106 $107 $108 $109 forward $33 $-1 #
coedge $-1 $38 $35 $110 $111 reversed $21 $-1 #
coedge $-1 $35 $38 $112 $113 reversed $21 $-1 #
coedge $-1 $114 $115 $35 $66 forward $116 $-1 #
edge $-1 $117 -12.769570176377545 $118 12.769570176377545 $65 $119 forward 7 unknown #
coedge $-1 $37 $36 $120 $121 reversed $14 $-1 #
coedge $-1 $110 $122 $36 $69 forward $60 $-1 #
edge $-1 $123 -3.3543358067303828 $73 3.3543358067303828 $36 $124 forward 7 unknown #
coedge $-1 $107 $112 $37 $71 forward $33 $-1 #
edge $-1 $72 -3.3543358067303828 $125 3.3543358067303828 $37 $126 forward 7 unknown #
vertex $-1 $113 $127 #
vertex $-1 $111 $128 #
straight-curve $-1 -79.929578310758714 -20.256972460662961 0 0 0 -1 I I #
face $-1 $-1 $55 $6 $-1 $129 reversed single #
loop $-1 $-1 $91 $40 #
plane-surface $-1 0 26.965644074123727 0 0 -1 0 0 0 -1 forward_v I I I I #
coedge $-1 $130 $89 $92 $131 forward $41 $-1 #
coedge $-1 $95 $43 $44 $83 reversed $25 $-1 #
coedge $-1 $89 $130 $43 $81 reversed $41 $-1 #
edge $-1 $96 -12.769570176377545 $132 12.769570176377545 $80 $133 forward 7 unknown #
coedge $-1 $45 $44 $130 $134 forward $17 $-1 #
edge $-1 $87 -67.390972624897003 $132 67.390972624897003 $79 $135 forward 7 unknown #
coedge $-1 $92 $91 $45 $85 reversed $76 $-1 #
edge $-1 $136 -67.390972624897003 $86 67.390972624897003 $84 $137 forward 7 unknown #
vertex $-1 $47 $138 #
vertex $-1 $98 $139 #
straight-curve $-1 67.390972624897003 0 -12.769570176377545 0 -1 0 I I #
coedge $-1 $78 $80 $48 $90 reversed $41 $-1 #
edge $-1 $93 -26.965644074123727 $96 26.965644074123727 $89 $140 forward 7 unknown #
coedge $-1 $84 $49 $54 $99 forward $76 $-1 #
coedge $-1 $49 $84 $78 $131 reversed $76 $-1 #
vertex $-1 $50 $141 #
straight-curve $-1 0 26.965644074123727 12.769570176377545 -1 0 0 I I #
coedge $-1 $51 $79 $53 $98 reversed $25 $-1 #
vertex $-1 $90 $142 #
straight-curve $-1 0 -26.965644074123727 12.769570176377545 1 0 0 I I #
edge $-1 $56 -12.769570176377545 $87 12.769570176377545 $53 $143 forward 7 unknown #
edge $-1 $57 -12.769570176377545 $86 12.769570176377545 $54 $144 forward 7 unknown #
point $-1 67.390972624897003 -26.965644074123727 12.769570176377545 #
point $-1 67.390972624897003 26.965644074123727 12.769570176377545 #
face $-1 $145 $116 $7 $-1 $146 reversed single #
loop $-1 $-1 $147 $59 #
plane-surface $-1 0 -26.965644074123727 0 0 1 0 0 0 1 forward_v I I I I #
coedge $-1 $122 $148 $149 $150 forward $60 $-1 #
coedge $-1 $151 $62 $152 $153 forward $33 $-1 #
coedge $-1 $62 $70 $154 $155 forward $33 $-1 #
coedge $-1 $156 $157 $62 $109 reversed $158 $-1 #
edge $-1 $159 -26.965644074123727 $160 26.965644074123727 $108 $161 forward 7 unknown #
coedge $-1 $162 $68 $63 $111 forward $60 $-1 #
edge $-1 $73 -6.2693028429308555 $117 6.2693028429308555 $63 $163 forward 7 unknown #
coedge $-1 $70 $151 $64 $113 forward $33 $-1 #
edge $-1 $118 -6.2693028429308555 $72 6.2693028429308555 $64 $164 forward 7 unknown #
coedge $-1 $165 $65 $151 $166 reversed $116 $-1 #
coedge $-1 $65 $165 $162 $167 reversed $116 $-1 #
loop $-1 $-1 $65 $102 #
vertex $-1 $167 $168 #
vertex $-1 $113 $169 #
straight-curve $-1 -67.390972624897003 -20.256972460662961 0 0 0 1 I I #
coedge $-1 $147 $154 $67 $121 forward $103 $-1 #
edge $-1 $125 -12.769570176377545 $123 12.769570176377545 $67 $170 forward 7 unknown #
coedge $-1 $68 $105 $147 $171 forward $60 $-1 #
vertex $-1 $69 $172 #
straight-curve $-1 -79.929578310758714 -23.611308267393344 -12.769570176377545 0 1 0 I I #
vertex $-1 $71 $173 #
straight-curve $-1 -79.929578310758714 -23.611308267393344 12.769570176377545 0 -1 0 I I #
point $-1 -79.929578310758714 -20.256972460662961 12.769570176377545 #
point $-1 -79.929578310758714 -20.256972460662961 -12.769570176377545 #
plane-surface $-1 67.390972624897003 0 0 -1 0 0 0 0 1 forward_v I I I I #
coedge $-1 $80 $78 $82 $134 reversed $41 $-1 #
edge $-1 $93 -12.769570176377545 $136 12.769570176377545 $92 $174 forward 7 unknown #
vertex $-1 $134 $175 #
straight-curve $-1 -67.390972624897003 -26.965644074123727 0 0 0 -1 I I #
edge $-1 $132 -26.965644074123727 $136 26.965644074123727 $130 $176 forward 7 unknown #
straight-curve $-1 0 -26.965644074123727 -12.769570176377545 -1 0 0 I I #
vertex $-1 $85 $177 #
straight-curve $-1 0 26.965644074123727 -12.769570176377545 1 0 0 I I #
point $-1 67.390972624897003 26.965644074123727 -12.769570176377545 #
point $-1 67.390972624897003 -26.965644074123727 -12.769570176377545 #
straight-curve $-1 -67.390972624897003 0 12.769570176377545 0 -1 0 I I #
point $-1 -67.390972624897003 26.965644074123727 12.769570176377545 #
point $-1 -67.390972624897003 -26.965644074123727 12.769570176377545 #
straight-curve $-1 67.390972624897003 -26.965644074123727 0 0 0 -1 I I #
straight-curve $-1 67.390972624897003 26.965644074123727 0 0 0 -1 I I #
face $-1 $178 $179 $7 $-1 $180 reversed single #
plane-surface $-1 -67.390972624897003 0 0 1 0 0 0 0 -1 forward_v I I I I #
coedge $-1 $181 $120 $122 $171 reversed $103 $-1 #
coedge $-1 $105 $162 $182 $183 forward $60 $-1 #
coedge $-1 $157 $156 $105 $150 reversed $158 $-1 #
edge $-1 $184 -26.965644074123727 $185 26.965644074123727 $149 $186 forward 7 unknown #
coedge $-1 $112 $106 $114 $166 forward $33 $-1 #
coedge $-1 $187 $188 $106 $153 reversed $179 $-1 #
edge $-1 $160 -67.390972624897003 $189 67.390972624897003 $152 $190 forward 7 unknown #
coedge $-1 $120 $181 $107 $155 reversed $103 $-1 #
edge $-1 $125 -79.929578310758714 $159 67.390972624897003 $154 $191 forward 7 unknown #
coedge $-1 $149 $108 $181 $192 forward $158 $-1 #
coedge $-1 $108 $149 $187 $193 reversed $158 $-1 #
loop $-1 $-1 $156 $178 #
vertex $-1 $109 $194 #
vertex $-1 $109 $195 #
straight-curve $-1 67.390972624897003 0 12.769570176377545 0 1 0 I I #
coedge $-1 $148 $110 $115 $167 forward $60 $-1 #
straight-curve $-1 -73.660275467827859 -20.256972460662961 -12.769570176377545 1 0 0 I I #
straight-curve $-1 -73.660275467827859 -20.256972460662961 12.769570176377545 -1 0 0 I I #
coedge $-1 $115 $114 $188 $196 forward $116 $-1 #
edge $-1 $189 -26.965644074123727 $118 20.256972460662961 $114 $197 forward 7 unknown #
edge $-1 $117 -20.256972460662961 $198 26.965644074123727 $115 $199 forward 7 unknown #
point $-1 -67.390972624897003 -20.256972460662961 -12.769570176377545 #
point $-1 -67.390972624897003 -20.256972460662961 12.769570176377545 #
straight-curve $-1 -79.929578310758714 -26.965644074123727 0 0 0 -1 I I #
edge $-1 $185 -141.05124809272485 $123 6.2693028429308555 $147 $200 forward 7 unknown #
point $-1 -79.929578310758714 -26.965644074123727 -12.769570176377545 #
point $-1 -79.929578310758714 -26.965644074123727 12.769570176377545 #
straight-curve $-1 -67.390972624897003 26.965644074123727 0 0 0 -1 I I #
point $-1 -67.390972624897003 -26.965644074123727 -12.769570176377545 #
straight-curve $-1 -67.390972624897003 0 -12.769570176377545 0 1 0 I I #
point $-1 -67.390972624897003 26.965644074123727 -12.769570176377545 #
face $-1 $-1 $158 $7 $-1 $201 reversed single #
loop $-1 $-1 $187 $145 #
plane-surface $-1 0 26.965644074123727 0 0 -1 0 0 0 -1 forward_v I I I I #
coedge $-1 $154 $147 $156 $192 reversed $103 $-1 #
coedge $-1 $188 $187 $148 $183 reversed $179 $-1 #
edge $-1 $198 -67.390972624897003 $184 67.390972624897003 $182 $202 forward 7 unknown #
vertex $-1 $150 $203 #
vertex $-1 $192 $204 #
straight-curve $-1 67.390972624897003 0 -12.769570176377545 0 -1 0 I I #
coedge $-1 $182 $152 $157 $193 forward $179 $-1 #
coedge $-1 $152 $182 $165 $196 reversed $179 $-1 #
vertex $-1 $153 $205 #
straight-curve $-1 0 26.965644074123727 12.769570176377545 -1 0 0 I I #
straight-curve $-1 0 -26.965644074123727 12.769570176377545 1 0 0 I I #
edge $-1 $159 -12.769570176377545 $185 12.769570176377545 $156 $206 forward 7 unknown #
edge $-1 $160 -12.769570176377545 $184 12.769570176377545 $157 $207 forward 7 unknown #
point $-1 67.390972624897003 -26.965644074123727 12.769570176377545 #
point $-1 67.390972624897003 26.965644074123727 12.769570176377545 #
edge $-1 $189 -12.769570176377545 $198 12.769570176377545 $188 $208 forward 7 unknown #
straight-curve $-1 -67.390972624897003 0 12.769570176377545 0 -1 0 I I #
vertex $-1 $183 $209 #
straight-curve $-1 -67.390972624897003 0 -12.769570176377545 0 1 0 I I #
straight-curve $-1 -73.660275467827859 -26.965644074123727 -12.769570176377545 -1 0 0 I I #
plane-surface $-1 67.390972624897003 0 0 -1 0 0 0 0 1 forward_v I I I I #
straight-curve $-1 0 26.965644074123727 -12.769570176377545 1 0 0 I I #
point $-1 67.390972624897003 26.965644074123727 -12.769570176377545 #
point $-1 67.390972624897003 -26.965644074123727 -12.769570176377545 #
point $-1 -67.390972624897003 26.965644074123727 12.769570176377545 #
straight-curve $-1 67.390972624897003 -26.965644074123727 0 0 0 -1 I I #
straight-curve $-1 67.390972624897003 26.965644074123727 0 0 0 -1 I I #
straight-curve $-1 -67.390972624897003 26.965644074123727 0 0 0 -1 I I #
point $-1 -67.390972624897003 26.965644074123727 -12.769570176377545 #
End-of-ACIS-data 