500 0 10 0           
7 Unknown 11 ACIS 5.0 NT 24 Thu Mar 25 23:04:41 1999 
-1 9.9999999999999995e-007 1e-010 
body $-1 $10 $-1 $11 #
body $-1 $12 $-1 $13 #
body $-1 $14 $-1 $15 #
body $-1 $16 $-1 $17 #
body $-1 $18 $-1 $19 #
body $-1 $20 $-1 $21 #
body $-1 $22 $-1 $23 #
body $-1 $24 $-1 $25 #
body $-1 $26 $-1 $27 #
body $-1 $28 $-1 $29 #
lump $-1 $-1 $30 $0 #
transform $-1 1 0 0 0 1 0 0 0 1 72.059083834345529 35.112942102049161 16.633506573577915 1 rotate no_reflect no_shear #
lump $-1 $-1 $31 $1 #
transform $-1 1 0 0 0 1 0 0 0 1 72.059083834345529 35.112942102049161 16.633506573577915 1 rotate no_reflect no_shear #
lump $-1 $-1 $32 $2 #
transform $-1 1 0 0 0 1 0 0 0 1 72.059083834345529 35.112942102049161 16.633506573577915 1 rotate no_reflect no_shear #
lump $-1 $-1 $33 $3 #
transform $-1 1 0 0 0 1 0 0 0 1 72.059083834345529 35.112942102049161 16.633506573577915 1 rotate no_reflect no_shear #
lump $-1 $-1 $34 $4 #
transform $-1 1 0 0 0 1 0 0 0 1 72.059083834345529 35.112942102049161 16.633506573577915 1 rotate no_reflect no_shear #
lump $-1 $-1 $35 $5 #
transform $-1 1 0 0 0 1 0 0 0 1 72.059083834345529 35.112942102049161 16.633506573577915 1 rotate no_reflect no_shear #
lump $-1 $-1 $36 $6 #
transform $-1 1 0 0 0 1 0 0 0 1 72.059083834345529 35.112942102049161 16.633506573577915 1 rotate no_reflect no_shear #
lump $-1 $-1 $37 $7 #
transform $-1 1 0 0 0 1 0 0 0 1 72.059083834345529 35.112942102049161 16.633506573577915 1 rotate no_reflect no_shear #
lump $-1 $-1 $38 $8 #
transform $-1 1 0 0 0 1 0 0 0 1 72.059083834345529 35.112942102049161 16.633506573577915 1 rotate no_reflect no_shear #
lump $-1 $-1 $39 $9 #
transform $-1 1 0 0 0 1 0 0 0 1 72.059083834345529 35.112942102049161 16.633506573577915 1 rotate no_reflect no_shear #
shell $-1 $-1 $-1 $40 $-1 $10 #
shell $-1 $-1 $-1 $41 $-1 $12 #
shell $-1 $-1 $-1 $42 $-1 $14 #
shell $-1 $-1 $-1 $43 $-1 $16 #
shell $-1 $-1 $-1 $44 $-1 $18 #
shell $-1 $-1 $-1 $45 $-1 $20 #
shell $-1 $-1 $-1 $46 $-1 $22 #
shell $-1 $-1 $-1 $47 $-1 $24 #
shell $-1 $-1 $-1 $48 $-1 $26 #
shell $-1 $-1 $-1 $49 $-1 $28 #
face $-1 $50 $51 $30 $-1 $52 forward single #
face $-1 $53 $54 $31 $-1 $55 reversed single #
face $-1 $56 $57 $32 $-1 $58 reversed single #
face $-1 $59 $60 $33 $-1 $61 forward single #
face $-1 $62 $63 $34 $-1 $64 forward single #
face $-1 $65 $66 $35 $-1 $67 reversed single #
face $-1 $68 $69 $36 $-1 $70 forward single #
face $-1 $71 $72 $37 $-1 $73 forward single #
face $-1 $74 $75 $38 $-1 $76 reversed single #
face $-1 $77 $78 $39 $-1 $79 forward single #
face $-1 $80 $81 $30 $-1 $82 reversed single #
loop $-1 $-1 $83 $40 #
plane-surface $-1 0 0 16.633506573577915 0 0 1 1 0 0 forward_v I I I I #
face $-1 $84 $85 $31 $-1 $86 reversed single #
loop $-1 $-1 $87 $41 #
plane-surface $-1 -64.906239446054954 0 12.713284463982502 0 0 1 1 0 0 forward_v I I I I #
face $-1 $88 $89 $32 $-1 $90 reversed single #
loop $-1 $-1 $91 $42 #
plane-surface $-1 -44.364093781734724 -14.544256257339811 55.928687428909157 0 0.70710678939079041 0.70710677298230451 1 0 0 forward_v I I I I #
face $-1 $92 $93 $33 $-1 $94 forward single #
loop $-1 $95 $96 $43 #
cone-surface $-1 -50.10236575717601 29.170380155132939 10.690944524107735 0 -0.70710678939079041 -0.70710677298230451 2 0 0 1 I I 0 1 2 forward I I I I #
face $-1 $97 $98 $34 $-1 $99 forward single #
loop $-1 $100 $101 $44 #
cone-surface $-1 -38.625821806293445 29.170380155132939 10.690944524107735 0 -0.70710678939079041 -0.70710677298230451 2 0 0 1 I I 0 1 2 forward I I I I #
face $-1 $102 $103 $35 $-1 $104 reversed single #
loop $-1 $-1 $105 $45 #
plane-surface $-1 7.1528443882905712 87.362678575751943 157.83561989723998 1 0 0 0 -0.70710678939079041 -0.70710677298230451 forward_v I I I I #
face $-1 $106 $107 $36 $-1 $108 forward single #
loop $-1 $109 $110 $46 #
cone-surface $-1 14.803873688878951 29.170380155132939 10.690944524107735 0 -0.70710678939079041 -0.70710677298230451 2 0 0 1 I I 0 1 2 forward I I I I #
face $-1 $111 $112 $37 $-1 $113 forward single #
loop $-1 $114 $115 $47 #
cone-surface $-1 26.280417639761509 29.170380155132939 10.690944524107735 0 -0.70710678939079041 -0.70710677298230451 2 0 0 1 I I 0 1 2 forward I I I I #
face $-1 $116 $117 $38 $-1 $118 reversed single #
loop $-1 $-1 $119 $48 #
plane-surface $-1 -36.296521772826601 -125.80944486292545 115.57076855449652 -1 0 0 0 -0.62932039886446345 0.77714595512881146 forward_v I I I I #
face $-1 $120 $121 $39 $-1 $122 forward single #
loop $-1 $123 $124 $49 #
cone-surface $-1 -47.024958415295494 -24.553765625729625 7.023012054979163 0 0.62932039886446345 -0.77714595512881146 2 0 0 1 I I 0 1 2 forward I I I I #
face $-1 $125 $126 $30 $-1 $127 reversed single #
loop $-1 $-1 $128 $50 #
plane-surface $-1 0 0 -16.633506573577915 0 0 1 1 0 0 forward_v I I I I #
coedge $-1 $129 $130 $131 $132 forward $51 $-1 #
face $-1 $133 $134 $31 $-1 $135 reversed single #
loop $-1 $-1 $136 $53 #
plane-surface $-1 -57.753395057764386 0 14.673395518780207 -1 0 0 0 0 1 forward_v I I I I #
coedge $-1 $137 $138 $136 $139 forward $54 $-1 #
face $-1 $140 $141 $32 $-1 $142 forward single #
loop $-1 $-1 $143 $56 #
plane-surface $-1 -30.974792505705064 87.362678575751943 157.83561989723998 -1 0 0 0 0.70710678939079041 0.70710677298230451 forward_v I I I I #
coedge $-1 $144 $145 $146 $147 reversed $57 $-1 #
face $-1 $-1 $148 $33 $-1 $149 forward single #
loop $-1 $150 $151 $59 #
cone-surface $-1 -50.10236575717601 27.701720626779135 9.2222850298343282 0 -0.70710678939079041 -0.70710677298230451 1 0 0 1 I I -0.70710678118654746 0.70710678118654746 1 forward I I I I #
loop $-1 $-1 $152 $43 #
coedge $-1 $96 $96 $153 $154 reversed $60 $-1 #
face $-1 $-1 $155 $34 $-1 $156 forward single #
loop $-1 $157 $158 $62 #
cone-surface $-1 -38.625821806293445 27.701720626779135 9.2222850298343282 0 -0.70710678939079041 -0.70710677298230451 1 0 0 1 I I -0.70710678118654746 0.70710678118654746 1 forward I I I I #
loop $-1 $-1 $159 $44 #
coedge $-1 $101 $101 $160 $161 reversed $63 $-1 #
face $-1 $162 $163 $35 $-1 $164 reversed single #
loop $-1 $-1 $165 $65 #
plane-surface $-1 20.54214566432023 -14.544256257339811 55.928687428909157 0 0.70710678939079041 0.70710677298230451 1 0 0 forward_v I I I I #
coedge $-1 $166 $167 $168 $169 reversed $66 $-1 #
face $-1 $-1 $170 $36 $-1 $171 forward single #
loop $-1 $172 $173 $68 #
cone-surface $-1 14.803873688878951 27.701720626779135 9.2222850298343282 0 -0.70710678939079041 -0.70710677298230451 1 0 0 1 I I -0.70710678118654746 0.70710678118654746 1 forward I I I I #
loop $-1 $-1 $174 $46 #
coedge $-1 $110 $110 $175 $176 reversed $69 $-1 #
face $-1 $-1 $177 $37 $-1 $178 forward single #
loop $-1 $179 $180 $71 #
cone-surface $-1 26.280417639761509 27.701720626779135 9.2222850298343282 0 -0.70710678939079041 -0.70710677298230451 1 0 0 1 I I -0.70710678118654746 0.70710678118654746 1 forward I I I I #
loop $-1 $-1 $181 $47 #
coedge $-1 $115 $115 $182 $183 reversed $72 $-1 #
face $-1 $184 $185 $38 $-1 $186 forward single #
loop $-1 $-1 $187 $74 #
plane-surface $-1 -47.024958415295494 -35.112942102049175 3.5699174901974118 0 -0.62932039886446345 0.77714595512881146 1 0 0 forward_v I I I I #
coedge $-1 $188 $189 $190 $191 reversed $75 $-1 #
face $-1 $-1 $192 $39 $-1 $193 forward single #
loop $-1 $194 $195 $77 #
cone-surface $-1 -47.024958415295494 -21.4313630913081 3.167166122941854 0 0.62932039886446345 -0.77714595512881146 1 0 0 1 I I -0.70710678118654746 0.70710678118654746 1 forward I I I I #
loop $-1 $-1 $196 $49 #
coedge $-1 $124 $124 $197 $198 reversed $78 $-1 #
face $-1 $199 $200 $30 $-1 $201 reversed single #
loop $-1 $-1 $202 $80 #
plane-surface $-1 0 -35.112942102049161 0 0 1 0 0 0 1 forward_v I I I I #
coedge $-1 $203 $204 $205 $206 forward $81 $-1 #
coedge $-1 $207 $83 $208 $209 forward $51 $-1 #
coedge $-1 $83 $207 $210 $211 forward $51 $-1 #
coedge $-1 $212 $213 $83 $132 reversed $214 $-1 #
edge $-1 $215 -35.112942102049161 $216 35.112942102049161 $131 $217 forward 7 unknown #
face $-1 $218 $219 $31 $-1 $220 reversed single #
loop $-1 $-1 $221 $84 #
plane-surface $-1 0 35.112942102049161 0 0 -1 0 0 0 -1 forward_v I I I I #
coedge $-1 $222 $223 $87 $139 reversed $85 $-1 #
coedge $-1 $224 $87 $225 $226 reversed $54 $-1 #
coedge $-1 $87 $224 $227 $228 reversed $54 $-1 #
edge $-1 $229 -35.112942102049161 $230 35.112942102049161 $136 $231 forward 7 unknown #
face $-1 $232 $233 $32 $-1 $234 reversed single #
loop $-1 $-1 $146 $88 #
plane-surface $-1 0 0 16.633506573577915 0 0 1 1 0 0 forward_v I I I I #
coedge $-1 $235 $236 $237 $238 reversed $89 $-1 #
coedge $-1 $239 $91 $240 $241 reversed $57 $-1 #
coedge $-1 $91 $239 $235 $242 forward $57 $-1 #
coedge $-1 $237 $243 $91 $147 forward $141 $-1 #
edge $-1 $244 -35.571348166897025 $245 -8.7927456148377026 $146 $246 forward 7 unknown #
loop $-1 $-1 $153 $92 #
plane-surface $-1 -44.364093781734724 -14.544256257339811 55.928687428909157 0 0.70710678939079041 0.70710677298230451 1 0 0 forward_v I I I I #
loop $-1 $-1 $247 $59 #
coedge $-1 $151 $151 $152 $248 reversed $93 $-1 #
coedge $-1 $152 $152 $151 $248 forward $95 $-1 #
coedge $-1 $153 $153 $96 $154 forward $148 $-1 #
edge $-1 $249 6.2803690331836313e-016 $249 6.2831853071796013 $153 $250 forward 7 unknown #
loop $-1 $-1 $160 $97 #
plane-surface $-1 -44.364093781734724 -14.544256257339811 55.928687428909157 0 0.70710678939079041 0.70710677298230451 1 0 0 forward_v I I I I #
loop $-1 $-1 $251 $62 #
coedge $-1 $158 $158 $159 $252 reversed $98 $-1 #
coedge $-1 $159 $159 $158 $252 forward $100 $-1 #
coedge $-1 $160 $160 $101 $161 forward $155 $-1 #
edge $-1 $253 6.2803690331836313e-016 $253 6.2831853071796013 $160 $254 forward 7 unknown #
face $-1 $255 $256 $35 $-1 $257 forward single #
loop $-1 $-1 $258 $102 #
plane-surface $-1 33.931446940349886 87.362678575751943 157.83561989723998 -1 0 0 0 0.70710678939079041 0.70710677298230451 forward_v I I I I #
coedge $-1 $259 $260 $261 $262 reversed $103 $-1 #
coedge $-1 $167 $105 $263 $264 reversed $66 $-1 #
coedge $-1 $105 $166 $259 $265 reversed $66 $-1 #
coedge $-1 $261 $266 $105 $169 forward $256 $-1 #
edge $-1 $267 8.5683971858268109 $268 18.930415601733266 $168 $269 forward 7 unknown #
loop $-1 $-1 $175 $106 #
plane-surface $-1 20.54214566432023 -14.544256257339811 55.928687428909157 0 0.70710678939079041 0.70710677298230451 1 0 0 forward_v I I I I #
loop $-1 $-1 $270 $68 #
coedge $-1 $173 $173 $174 $271 reversed $107 $-1 #
coedge $-1 $174 $174 $173 $271 forward $109 $-1 #
coedge $-1 $175 $175 $110 $176 forward $170 $-1 #
edge $-1 $272 6.2803690331836313e-016 $272 6.2831853071796013 $175 $273 forward 7 unknown #
loop $-1 $-1 $182 $111 #
plane-surface $-1 20.54214566432023 -14.544256257339811 55.928687428909157 0 0.70710678939079041 0.70710677298230451 1 0 0 forward_v I I I I #
loop $-1 $-1 $274 $71 #
coedge $-1 $180 $180 $181 $275 reversed $112 $-1 #
coedge $-1 $181 $181 $180 $275 forward $114 $-1 #
coedge $-1 $182 $182 $115 $183 forward $177 $-1 #
edge $-1 $276 6.2803690331836313e-016 $276 6.2831853071796013 $182 $277 forward 7 unknown #
face $-1 $278 $279 $38 $-1 $280 forward single #
loop $-1 $-1 $281 $116 #
plane-surface $-1 -57.753395057764386 0 14.673395518780207 -1 0 0 0 0 1 forward_v I I I I #
coedge $-1 $282 $283 $284 $285 reversed $117 $-1 #
coedge $-1 $189 $119 $286 $287 reversed $75 $-1 #
coedge $-1 $119 $188 $282 $288 reversed $75 $-1 #
coedge $-1 $284 $289 $119 $191 forward $279 $-1 #
edge $-1 $290 27.791780329413562 $291 43.923969010938485 $190 $292 forward 7 unknown #
loop $-1 $-1 $197 $120 #
plane-surface $-1 -47.024958415295494 -35.112942102049175 3.5699174901974118 0 -0.62932039886446345 0.77714595512881146 1 0 0 forward_v I I I I #
loop $-1 $-1 $293 $77 #
coedge $-1 $195 $195 $196 $294 reversed $121 $-1 #
coedge $-1 $196 $196 $195 $294 forward $123 $-1 #
coedge $-1 $197 $197 $124 $198 forward $192 $-1 #
edge $-1 $295 -5.9271571888034139e-016 $295 6.2831853071795996 $197 $296 forward 7 unknown #
face $-1 $297 $298 $30 $-1 $299 reversed single #
loop $-1 $-1 $300 $125 #
plane-surface $-1 -72.059083834345529 0 0 1 0 0 0 0 -1 forward_v I I I I #
coedge $-1 $301 $210 $302 $303 forward $126 $-1 #
coedge $-1 $304 $128 $301 $305 forward $81 $-1 #
coedge $-1 $128 $304 $306 $307 forward $81 $-1 #
coedge $-1 $213 $212 $128 $206 reversed $214 $-1 #
edge $-1 $308 -35.112942102049161 $309 35.112942102049161 $205 $310 forward 7 unknown #
coedge $-1 $130 $129 $311 $312 forward $51 $-1 #
coedge $-1 $313 $314 $129 $209 reversed $298 $-1 #
edge $-1 $216 -72.059083834345529 $315 72.059083834345529 $208 $316 forward 7 unknown #
coedge $-1 $202 $317 $130 $211 reversed $126 $-1 #
edge $-1 $318 -72.059083834345529 $215 72.059083834345529 $210 $319 forward 7 unknown #
coedge $-1 $205 $131 $317 $320 forward $214 $-1 #
coedge $-1 $131 $205 $313 $321 reversed $214 $-1 #
loop $-1 $-1 $212 $297 #
vertex $-1 $132 $322 #
vertex $-1 $132 $323 #
straight-curve $-1 72.059083834345529 0 16.633506573577915 0 1 0 I I #
face $-1 $324 $325 $31 $-1 $326 forward single #
loop $-1 $-1 $327 $133 #
plane-surface $-1 -72.059083834345529 0 0 1 0 0 0 0 -1 forward_v I I I I #
coedge $-1 $227 $328 $222 $329 forward $134 $-1 #
coedge $-1 $330 $136 $221 $329 reversed $85 $-1 #
coedge $-1 $136 $330 $331 $332 reversed $85 $-1 #
coedge $-1 $138 $137 $327 $333 reversed $54 $-1 #
coedge $-1 $331 $334 $137 $226 forward $335 $-1 #
edge $-1 $336 -39.605964111318052 $230 -25.300275334736909 $225 $337 forward 7 unknown #
coedge $-1 $338 $221 $138 $228 forward $134 $-1 #
edge $-1 $229 25.300275334736909 $339 39.605964111318052 $227 $340 forward 7 unknown #
vertex $-1 $228 $341 #
vertex $-1 $226 $342 #
straight-curve $-1 -57.753395057764386 0 12.713284463982502 0 -1 0 I I #
face $-1 $-1 $343 $32 $-1 $344 forward single #
loop $-1 $-1 $345 $140 #
plane-surface $-1 0 35.112942102049161 0 0 -1 0 0 0 -1 forward_v I I I I #
coedge $-1 $236 $143 $145 $242 reversed $89 $-1 #
coedge $-1 $143 $235 $345 $346 reversed $89 $-1 #
coedge $-1 $347 $146 $143 $238 forward $141 $-1 #
edge $-1 $245 -18.930415601733266 $348 -8.5683971858268109 $237 $349 forward 7 unknown #
coedge $-1 $145 $144 $350 $351 reversed $57 $-1 #
coedge $-1 $352 $353 $144 $241 forward $343 $-1 #
edge $-1 $354 -50.497764646345161 $244 -35.843657498985444 $240 $355 forward 7 unknown #
edge $-1 $356 -70.225884204098364 $245 -55.57177705673864 $235 $357 forward 7 unknown #
coedge $-1 $146 $347 $352 $358 forward $141 $-1 #
vertex $-1 $241 $359 #
vertex $-1 $147 $360 #
straight-curve $-1 -22.182046890867362 24.750923686142713 16.633506573577911 1 0 0 I I #
coedge $-1 $247 $247 $-1 $361 reversed $150 $-1 #
edge $-1 $362 0 $362 6.2831853071796004 $151 $363 forward 7 unknown #
vertex $-1 $154 $364 #
ellipse-curve $-1 -50.10236575717601 29.93193289409594 11.452497245398828 0 0.70710678939079041 0.70710677298230451 2 0 0 1 I I #
coedge $-1 $251 $251 $-1 $365 reversed $157 $-1 #
edge $-1 $366 0 $366 6.2831853071796004 $158 $367 forward 7 unknown #
vertex $-1 $161 $368 #
ellipse-curve $-1 -38.625821806293445 29.93193289409594 11.452497245398828 0 0.70710678939079041 0.70710677298230451 2 0 0 1 I I #
face $-1 $-1 $369 $35 $-1 $370 reversed single #
loop $-1 $-1 $168 $162 #
plane-surface $-1 0 0 16.633506573577915 0 0 1 1 0 0 forward_v I I I I #
coedge $-1 $371 $372 $373 $374 reversed $163 $-1 #
coedge $-1 $375 $165 $167 $265 forward $103 $-1 #
coedge $-1 $165 $375 $371 $376 forward $103 $-1 #
coedge $-1 $373 $168 $165 $262 forward $256 $-1 #
edge $-1 $268 -3.118228443869544 $377 23.660374108189771 $261 $378 forward 7 unknown #
coedge $-1 $379 $380 $166 $264 forward $369 $-1 #
edge $-1 $381 -72.646322031400246 $267 -62.284303375042072 $263 $382 forward 7 unknown #
edge $-1 $268 55.57177705673864 $381 70.225884204098364 $167 $383 forward 7 unknown #
coedge $-1 $168 $373 $379 $384 forward $256 $-1 #
vertex $-1 $169 $385 #
vertex $-1 $169 $386 #
straight-curve $-1 7.1528443882905712 43.681339287875971 16.633506573577918 0 -1 0 I I #
coedge $-1 $270 $270 $-1 $387 reversed $172 $-1 #
edge $-1 $388 0 $388 6.2831853071796004 $173 $389 forward 7 unknown #
vertex $-1 $176 $390 #
ellipse-curve $-1 14.803873688878951 29.93193289409594 11.452497245398828 0 0.70710678939079041 0.70710677298230451 2 0 0 1 I I #
coedge $-1 $274 $274 $-1 $391 reversed $179 $-1 #
edge $-1 $392 0 $392 6.2831853071796004 $180 $393 forward 7 unknown #
vertex $-1 $183 $394 #
ellipse-curve $-1 26.280417639761509 29.93193289409594 11.452497245398828 0 0.70710678939079041 0.70710677298230451 2 0 0 1 I I #
face $-1 $-1 $395 $38 $-1 $396 reversed single #
loop $-1 $-1 $284 $184 #
plane-surface $-1 0 0 16.633506573577915 0 0 1 1 0 0 forward_v I I I I #
coedge $-1 $397 $398 $283 $399 reversed $185 $-1 #
coedge $-1 $400 $187 $189 $288 forward $117 $-1 #
coedge $-1 $187 $400 $281 $399 forward $117 $-1 #
coedge $-1 $401 $190 $187 $285 forward $279 $-1 #
edge $-1 $291 12.784042565178854 $402 34.240915850116636 $284 $403 forward 7 unknown #
coedge $-1 $404 $405 $188 $287 forward $395 $-1 #
edge $-1 $406 -54.215466787050836 $290 -41.151877703670351 $286 $407 forward 7 unknown #
edge $-1 $291 -20.758248273776367 $406 -1.8310242626372826e-014 $189 $408 forward 7 unknown #
coedge $-1 $190 $401 $404 $409 forward $279 $-1 #
vertex $-1 $287 $410 #
vertex $-1 $191 $411 #
straight-curve $-1 -36.296521772826601 -62.904722431462723 16.633506573577918 0 1 0 I I #
coedge $-1 $293 $293 $-1 $412 reversed $194 $-1 #
edge $-1 $413 0 $413 6.2831853071796004 $195 $414 forward 7 unknown #
vertex $-1 $198 $415 #
ellipse-curve $-1 -47.024958415295494 -27.046847761286696 10.101712031887672 0 -0.62932039886446345 0.77714595512881146 2 0 0 1 I I #
face $-1 $-1 $214 $30 $-1 $416 reversed single #
loop $-1 $-1 $313 $199 #
plane-surface $-1 0 35.112942102049161 0 0 -1 0 0 0 -1 forward_v I I I I #
coedge $-1 $417 $311 $314 $418 forward $200 $-1 #
coedge $-1 $317 $202 $203 $305 reversed $126 $-1 #
coedge $-1 $311 $417 $202 $303 reversed $200 $-1 #
edge $-1 $318 -16.633506573577915 $419 16.633506573577915 $302 $420 forward 7 unknown #
coedge $-1 $204 $203 $417 $421 forward $81 $-1 #
edge $-1 $309 -72.059083834345529 $419 72.059083834345529 $301 $422 forward 7 unknown #
coedge $-1 $314 $313 $204 $307 reversed $298 $-1 #
edge $-1 $423 -72.059083834345529 $308 72.059083834345529 $306 $424 forward 7 unknown #
vertex $-1 $206 $425 #
vertex $-1 $320 $426 #
straight-curve $-1 72.059083834345529 0 -16.633506573577915 0 -1 0 I I #
coedge $-1 $300 $302 $207 $312 reversed $200 $-1 #
edge $-1 $315 -35.112942102049161 $318 35.112942102049161 $311 $427 forward 7 unknown #
coedge $-1 $306 $208 $213 $321 forward $298 $-1 #
coedge $-1 $208 $306 $300 $418 reversed $298 $-1 #
vertex $-1 $209 $428 #
straight-curve $-1 0 35.112942102049161 16.633506573577915 -1 0 0 I I #
coedge $-1 $210 $301 $212 $320 reversed $126 $-1 #
vertex $-1 $312 $429 #
straight-curve $-1 0 -35.112942102049161 16.633506573577915 1 0 0 I I #
edge $-1 $215 -16.633506573577915 $309 16.633506573577915 $212 $430 forward 7 unknown #
edge $-1 $216 -16.633506573577915 $308 16.633506573577915 $213 $431 forward 7 unknown #
point $-1 72.059083834345529 -35.112942102049161 16.633506573577915 #
point $-1 72.059083834345529 35.112942102049161 16.633506573577915 #
face $-1 $-1 $335 $31 $-1 $432 reversed single #
loop $-1 $-1 $433 $218 #
plane-surface $-1 0 0 16.633506573577915 0 0 1 1 0 0 forward_v I I I I #
coedge $-1 $434 $435 $224 $333 forward $219 $-1 #
coedge $-1 $221 $338 $436 $437 reversed $134 $-1 #
edge $-1 $438 -9.2968088141878074 $229 -5.3765867045923983 $221 $439 forward 7 unknown #
coedge $-1 $223 $222 $433 $440 reversed $85 $-1 #
coedge $-1 $441 $225 $223 $332 forward $335 $-1 #
edge $-1 $230 5.3765867045923983 $442 9.2968088141878074 $331 $443 forward 7 unknown #
edge $-1 $339 -35.112942102049161 $336 35.112942102049161 $327 $444 forward 7 unknown #
coedge $-1 $225 $441 $434 $445 forward $335 $-1 #
loop $-1 $-1 $331 $324 #
vertex $-1 $333 $446 #
straight-curve $-1 -32.453119723027477 -35.112942102049161 12.713284463982502 1 0 0 I I #
coedge $-1 $328 $227 $435 $447 reversed $134 $-1 #
vertex $-1 $333 $448 #
straight-curve $-1 -32.453119723027477 35.112942102049161 12.713284463982502 -1 0 0 I I #
point $-1 -57.753395057764386 35.112942102049161 12.713284463982502 #
point $-1 -57.753395057764386 -35.112942102049161 12.713284463982502 #
loop $-1 $-1 $240 $232 #
plane-surface $-1 -57.753395057764386 0 14.673395518780207 -1 0 0 0 0 1 forward_v I I I I #
coedge $-1 $350 $449 $236 $346 forward $233 $-1 #
edge $-1 $348 62.284303375042072 $356 72.646322031400246 $345 $450 forward 7 unknown #
coedge $-1 $243 $237 $449 $451 forward $141 $-1 #
vertex $-1 $451 $452 #
straight-curve $-1 -30.974792505705064 43.681339287875971 16.633506573577918 0 1 0 I I #
coedge $-1 $453 $345 $239 $351 forward $233 $-1 #
edge $-1 $356 8.7927456148377026 $354 35.571348166897018 $350 $454 forward 7 unknown #
coedge $-1 $353 $240 $243 $358 reversed $343 $-1 #
coedge $-1 $240 $352 $453 $455 reversed $343 $-1 #
vertex $-1 $455 $456 #
straight-curve $-1 -57.753395057764386 -0.59436929984786691 41.97880014770864 0 -0.70710677298230462 0.70710678939079052 I I #
vertex $-1 $351 $457 #
straight-curve $-1 -30.974792505705064 -14.544256257339811 55.928687428909157 0 -0.70710677298230451 0.70710678939079041 I I #
edge $-1 $458 -35.112942102049161 $244 -24.750923686142706 $243 $459 forward 7 unknown #
point $-1 -57.753395057764386 24.750923686142706 16.633506573577915 #
point $-1 -30.974792505705064 24.750923686142706 16.633506573577918 #
edge $-1 $460 1 $460 0 $247 $-1 forward 7 unknown #
vertex $-1 $248 $461 #
ellipse-curve $-1 -50.10236575717601 28.408827416169924 9.9293918028166335 0 0.70710678939079041 0.70710677298230451 2 0 0 1 I I #
point $-1 -48.10236575717601 29.931932894095951 11.452497245398837 #
edge $-1 $462 1 $462 0 $251 $-1 forward 7 unknown #
vertex $-1 $252 $463 #
ellipse-curve $-1 -38.625821806293445 28.408827416169924 9.9293918028166335 0 0.70710678939079041 0.70710677298230451 2 0 0 1 I I #
point $-1 -36.625821806293445 29.931932894095951 11.452497245398837 #
loop $-1 $-1 $263 $255 #
plane-surface $-1 0 35.112942102049161 0 0 -1 0 0 0 -1 forward_v I I I I #
coedge $-1 $372 $258 $260 $376 reversed $163 $-1 #
coedge $-1 $258 $371 $464 $465 reversed $163 $-1 #
coedge $-1 $266 $261 $258 $374 forward $256 $-1 #
edge $-1 $377 -18.930415601733266 $466 -8.5683971858268109 $373 $467 forward 7 unknown #
coedge $-1 $260 $259 $380 $468 reversed $103 $-1 #
edge $-1 $469 -70.225884204098364 $377 -55.57177705673864 $371 $470 forward 7 unknown #
vertex $-1 $262 $471 #
straight-curve $-1 10.271072832160115 24.750923686142713 16.633506573577911 1 0 0 I I #
coedge $-1 $464 $263 $266 $384 reversed $369 $-1 #
coedge $-1 $263 $464 $375 $468 forward $369 $-1 #
vertex $-1 $264 $472 #
straight-curve $-1 7.1528443882905712 35.112942102049161 78.91780994861999 0 0 1 I I #
straight-curve $-1 7.1528443882905712 -14.544256257339811 55.928687428909157 0 0.70710677298230451 -0.70710678939079041 I I #
edge $-1 $466 -33.931446940349886 $267 -7.1528443882905712 $379 $473 forward 7 unknown #
point $-1 7.1528443882905712 35.112942102049161 16.633506573577915 #
point $-1 7.1528443882905712 24.750923686142706 16.633506573577918 #
edge $-1 $474 1 $474 0 $270 $-1 forward 7 unknown #
vertex $-1 $271 $475 #
ellipse-curve $-1 14.803873688878951 28.408827416169924 9.9293918028166335 0 0.70710678939079041 0.70710677298230451 2 0 0 1 I I #
point $-1 16.803873688878951 29.931932894095951 11.452497245398837 #
edge $-1 $476 1 $476 0 $274 $-1 forward 7 unknown #
vertex $-1 $275 $477 #
ellipse-curve $-1 26.280417639761509 28.408827416169924 9.9293918028166335 0 0.70710678939079041 0.70710677298230451 2 0 0 1 I I #
point $-1 28.280417639761509 29.931932894095951 11.452497245398837 #
loop $-1 $-1 $286 $278 #
plane-surface $-1 0 -35.112942102049161 0 0 1 0 0 0 1 forward_v I I I I #
coedge $-1 $398 $281 $478 $479 reversed $185 $-1 #
coedge $-1 $281 $397 $401 $480 reversed $185 $-1 #
edge $-1 $481 1.8310242626372826e-014 $402 20.758248273776367 $281 $482 forward 7 unknown #
coedge $-1 $283 $282 $405 $483 reversed $117 $-1 #
coedge $-1 $289 $284 $398 $480 forward $279 $-1 #
vertex $-1 $480 $484 #
straight-curve $-1 -23.512479207647747 -18.980753420524238 16.633506573577915 -1 0 0 I I #
coedge $-1 $478 $286 $289 $409 reversed $395 $-1 #
coedge $-1 $286 $478 $400 $483 forward $395 $-1 #
vertex $-1 $287 $485 #
straight-curve $-1 -36.296521772826601 -35.112942102049161 57.785384277248262 0 0 1 I I #
straight-curve $-1 -36.296521772826601 -35.112942102049175 3.5699174901974118 0 -0.77714595512881146 -0.62932039886446345 I I #
edge $-1 $486 -57.753395057764386 $290 -36.296521772826601 $404 $487 forward 7 unknown #
point $-1 -36.296521772826601 -35.112942102049161 16.633506573577915 #
point $-1 -36.296521772826601 -18.980753420524238 16.633506573577915 #
edge $-1 $488 1 $488 0 $293 $-1 forward 7 unknown #
vertex $-1 $294 $489 #
ellipse-curve $-1 -47.024958415295494 -22.060683490172565 3.9443120780706655 0 -0.62932039886446345 0.77714595512881146 2 0 0 1 I I #
point $-1 -45.024958415295494 -27.046847761286688 10.101712031887661 #
plane-surface $-1 72.059083834345529 0 0 -1 0 0 0 0 1 forward_v I I I I #
coedge $-1 $302 $300 $304 $421 reversed $200 $-1 #
edge $-1 $315 -16.633506573577915 $423 16.633506573577915 $314 $490 forward 7 unknown #
vertex $-1 $421 $491 #
straight-curve $-1 -72.059083834345529 -35.112942102049161 0 0 0 -1 I I #
edge $-1 $419 -35.112942102049161 $423 35.112942102049161 $417 $492 forward 7 unknown #
straight-curve $-1 0 -35.112942102049161 -16.633506573577915 -1 0 0 I I #
vertex $-1 $307 $493 #
straight-curve $-1 0 35.112942102049161 -16.633506573577915 1 0 0 I I #
point $-1 72.059083834345529 35.112942102049161 -16.633506573577915 #
point $-1 72.059083834345529 -35.112942102049161 -16.633506573577915 #
straight-curve $-1 -72.059083834345529 0 16.633506573577915 0 -1 0 I I #
point $-1 -72.059083834345529 35.112942102049161 16.633506573577915 #
point $-1 -72.059083834345529 -35.112942102049161 16.633506573577915 #
straight-curve $-1 72.059083834345529 -35.112942102049161 0 0 0 -1 I I #
straight-curve $-1 72.059083834345529 35.112942102049161 0 0 0 -1 I I #
plane-surface $-1 0 -35.112942102049161 0 0 1 0 0 0 1 forward_v I I I I #
coedge $-1 $436 $494 $330 $440 forward $325 $-1 #
coedge $-1 $495 $327 $334 $445 reversed $219 $-1 #
coedge $-1 $327 $495 $338 $447 forward $219 $-1 #
coedge $-1 $496 $433 $328 $437 forward $325 $-1 #
edge $-1 $438 57.753395057764386 $497 72.059083834345529 $328 $498 forward 7 unknown #
vertex $-1 $437 $499 #
straight-curve $-1 -57.753395057764386 35.112942102049161 7.3366977593901037 0 0 -1 I I #
edge $-1 $442 -35.112942102049161 $438 35.112942102049161 $433 $500 forward 7 unknown #
coedge $-1 $334 $331 $494 $501 reversed $335 $-1 #
vertex $-1 $332 $502 #
straight-curve $-1 -57.753395057764386 -35.112942102049161 7.3366977593901037 0 0 1 I I #
straight-curve $-1 -72.059083834345529 0 12.713284463982502 0 -1 0 I I #
edge $-1 $503 -16.633506573577915 $336 -12.713284463982502 $434 $504 forward 7 unknown #
point $-1 -72.059083834345529 -35.112942102049161 12.713284463982502 #
edge $-1 $497 -16.633506573577915 $339 -12.713284463982502 $338 $505 forward 7 unknown #
point $-1 -72.059083834345529 35.112942102049161 12.713284463982502 #
coedge $-1 $345 $453 $347 $451 reversed $233 $-1 #
straight-curve $-1 -30.974792505705064 35.112942102049161 78.91780994861999 0 0 -1 I I #
edge $-1 $348 30.974792505705064 $458 57.753395057764386 $449 $506 forward 7 unknown #
point $-1 -30.974792505705064 35.112942102049161 16.633506573577915 #
coedge $-1 $449 $350 $353 $455 forward $233 $-1 #
straight-curve $-1 -22.182046890867362 35.112942102049153 6.2714879172197584 -1 0 0 I I #
edge $-1 $354 -72.646322031400246 $458 -62.284303375042079 $453 $507 forward 7 unknown #
point $-1 -57.753395057764379 35.112942102049161 6.2714879172197513 #
point $-1 -30.974792505705064 35.112942102049161 6.2714879172197513 #
vertex $-1 $358 $508 #
straight-curve $-1 -57.753395057764386 0 16.633506573577915 0 -1 0 I I #
vertex $-1 $361 $509 #
point $-1 -48.10236575717601 28.408827416169924 9.9293918028166335 #
vertex $-1 $365 $510 #
point $-1 -36.625821806293445 28.408827416169924 9.9293918028166335 #
coedge $-1 $380 $379 $372 $465 forward $369 $-1 #
edge $-1 $466 62.284303375042072 $469 72.646322031400246 $464 $511 forward 7 unknown #
vertex $-1 $384 $512 #
straight-curve $-1 33.931446940349886 43.681339287875971 16.633506573577918 0 1 0 I I #
edge $-1 $469 -23.660374108189771 $381 3.118228443869544 $380 $513 forward 7 unknown #
vertex $-1 $468 $514 #
straight-curve $-1 33.931446940349886 -14.544256257339811 55.928687428909157 0 -0.70710677298230451 0.70710678939079041 I I #
point $-1 33.931446940349886 24.750923686142706 16.633506573577918 #
point $-1 7.1528443882905712 35.112942102049161 6.2714879172197513 #
straight-curve $-1 0 35.112942102049161 16.633506573577915 -1 0 0 I I #
vertex $-1 $387 $515 #
point $-1 16.803873688878951 28.408827416169924 9.9293918028166335 #
vertex $-1 $391 $516 #
point $-1 28.280417639761509 28.408827416169924 9.9293918028166335 #
coedge $-1 $405 $404 $397 $479 forward $395 $-1 #
edge $-1 $486 41.151877703670351 $481 54.215466787050836 $478 $517 forward 7 unknown #
edge $-1 $402 18.980753420524238 $486 35.112942102049161 $401 $518 forward 7 unknown #
vertex $-1 $479 $519 #
straight-curve $-1 -57.753395057764386 -35.112942102049175 3.5699174901974118 0 0.77714595512881146 0.62932039886446345 I I #
edge $-1 $481 -34.240915850116636 $406 -12.784042565178854 $405 $520 forward 7 unknown #
point $-1 -57.753395057764386 -18.980753420524238 16.633506573577915 #
point $-1 -36.296521772826601 -35.112942102049161 3.5699174901974233 #
vertex $-1 $409 $521 #
straight-curve $-1 0 -35.112942102049161 16.633506573577915 1 0 0 I I #
vertex $-1 $412 $522 #
point $-1 -45.024958415295494 -22.060683490172565 3.9443120780706655 #
straight-curve $-1 -72.059083834345529 35.112942102049161 0 0 0 -1 I I #
point $-1 -72.059083834345529 -35.112942102049161 -16.633506573577915 #
straight-curve $-1 -72.059083834345529 0 -16.633506573577915 0 1 0 I I #
point $-1 -72.059083834345529 35.112942102049161 -16.633506573577915 #
coedge $-1 $433 $496 $441 $501 forward $325 $-1 #
coedge $-1 $435 $434 $496 $523 reversed $219 $-1 #
coedge $-1 $494 $436 $495 $523 forward $325 $-1 #
vertex $-1 $437 $524 #
straight-curve $-1 0 35.112942102049161 16.633506573577915 -1 0 0 I I #
point $-1 -57.753395057764386 35.112942102049161 16.633506573577911 #
straight-curve $-1 -57.753395057764386 0 16.633506573577915 0 1 0 I I #
edge $-1 $503 -72.059083834345529 $442 -57.753395057764386 $441 $525 forward 7 unknown #
point $-1 -57.753395057764386 -35.112942102049161 16.633506573577911 #
vertex $-1 $523 $526 #
straight-curve $-1 -72.059083834345529 -35.112942102049161 0 0 0 -1 I I #
straight-curve $-1 -72.059083834345529 35.112942102049161 0 0 0 -1 I I #
straight-curve $-1 0 35.112942102049161 16.633506573577915 -1 0 0 I I #
straight-curve $-1 -57.753395057764379 35.112942102049161 78.91780994861999 0 0 1 I I #
point $-1 -57.753395057764386 35.112942102049161 16.633506573577911 #
point $-1 -50.10236575717601 26.994613837388346 8.5151782568520229 #
point $-1 -38.625821806293445 26.994613837388346 8.5151782568520229 #
straight-curve $-1 33.931446940349886 35.112942102049161 78.91780994861999 0 0 -1 I I #
point $-1 33.931446940349886 35.112942102049161 16.633506573577915 #
straight-curve $-1 10.271072832160115 35.112942102049153 6.2714879172197584 -1 0 0 I I #
point $-1 33.931446940349886 35.112942102049161 6.2714879172197513 #
point $-1 14.803873688878951 26.994613837388346 8.5151782568520229 #
point $-1 26.280417639761509 26.994613837388346 8.5151782568520229 #
straight-curve $-1 -57.753395057764386 -35.112942102049161 57.785384277248262 0 0 -1 I I #
straight-curve $-1 -57.753395057764386 0 16.633506573577915 0 -1 0 I I #
point $-1 -57.753395057764386 -35.112942102049161 3.5699174901974233 #
straight-curve $-1 -23.512479207647747 -35.112942102049161 3.5699174901974216 1 0 0 I I #
point $-1 -57.753395057764386 -35.112942102049161 16.633506573577911 #
point $-1 -47.024958415295494 -20.802042692443635 2.3900201678130424 #
edge $-1 $497 -35.112942102049161 $503 35.112942102049161 $495 $527 forward 7 unknown #
point $-1 -72.059083834345529 35.112942102049161 16.633506573577915 #
straight-curve $-1 0 -35.112942102049161 16.633506573577915 1 0 0 I I #
point $-1 -72.059083834345529 -35.112942102049161 16.633506573577915 #
straight-curve $-1 -72.059083834345529 0 16.633506573577915 0 -1 0 I I #
End-of-ACIS-data 