500 0 6 0           
7 Unknown 11 ACIS 5.0 NT 24 Fri Mar 26 15:14:08 1999 
-1 9.9999999999999995e-007 1e-010 
body $-1 $6 $-1 $7 #
body $-1 $8 $-1 $9 #
body $-1 $10 $-1 $11 #
body $-1 $12 $-1 $13 #
body $-1 $14 $-1 $15 #
body $-1 $16 $-1 $17 #
lump $-1 $-1 $18 $0 #
transform $-1 1 0 0 0 1 0 0 0 1 71.298562578203672 44.033341211281972 19.523996738249803 1 rotate no_reflect no_shear #
lump $-1 $-1 $19 $1 #
transform $-1 1 0 0 0 1 0 0 0 1 71.298562578203672 44.033341211281972 19.523996738249803 1 rotate no_reflect no_shear #
lump $-1 $-1 $20 $2 #
transform $-1 1 0 0 0 1 0 0 0 1 71.298562578203672 44.033341211281972 19.523996738249803 1 rotate no_reflect no_shear #
lump $-1 $-1 $21 $3 #
transform $-1 1 0 0 0 1 0 0 0 1 71.298562578203672 44.033341211281972 19.523996738249803 1 rotate no_reflect no_shear #
lump $-1 $-1 $22 $4 #
transform $-1 1 0 0 0 1 0 0 0 1 71.298562578203672 44.033341211281972 19.523996738249803 1 rotate no_reflect no_shear #
lump $-1 $-1 $23 $5 #
transform $-1 1 0 0 0 1 0 0 0 1 71.298562578203672 44.033341211281972 19.523996738249803 1 rotate no_reflect no_shear #
shell $-1 $-1 $-1 $24 $-1 $6 #
shell $-1 $-1 $-1 $25 $-1 $8 #
shell $-1 $-1 $-1 $26 $-1 $10 #
shell $-1 $-1 $-1 $27 $-1 $12 #
shell $-1 $-1 $-1 $28 $-1 $14 #
shell $-1 $-1 $-1 $29 $-1 $16 #
face $-1 $30 $31 $18 $-1 $32 forward single #
face $-1 $33 $34 $19 $-1 $35 forward single #
face $-1 $36 $37 $20 $-1 $38 reversed single #
face $-1 $39 $40 $21 $-1 $41 forward single #
face $-1 $42 $43 $22 $-1 $44 reversed single #
face $-1 $45 $46 $23 $-1 $47 forward single #
face $-1 $48 $49 $18 $-1 $50 reversed single #
loop $-1 $-1 $51 $24 #
plane-surface $-1 0 0 19.523996738249803 0 0 1 1 0 0 forward_v I I I I #
face $-1 $52 $53 $19 $-1 $54 forward single #
loop $-1 $-1 $55 $25 #
plane-surface $-1 -71.298562578203672 0 0 1 0 0 0 0 -1 forward_v I I I I #
face $-1 $56 $57 $20 $-1 $58 reversed single #
loop $-1 $-1 $59 $26 #
plane-surface $-1 51.755272640578333 -146.60912992500346 115.50766467879954 -1 0 0 0 -0.71933980857756763 0.69465836192734942 forward_v I I I I #
face $-1 $60 $61 $21 $-1 $62 forward single #
loop $-1 $63 $64 $27 #
cone-surface $-1 35.431206710579147 -41.426170497054109 16.902664603547915 0 0.71933980857756763 -0.69465836192734942 1 0 0 1 I I 0 1 1 forward I I I I #
face $-1 $65 $66 $22 $-1 $67 reversed single #
loop $-1 $-1 $68 $28 #
plane-surface $-1 19.107140780579961 85.432872572969103 178.85753515470813 1 0 0 0 -0.71933980857756763 -0.69465836192734942 forward_v I I I I #
face $-1 $69 $70 $23 $-1 $71 forward single #
loop $-1 $72 $73 $29 #
cone-surface $-1 35.431206710579147 41.426170497054116 16.902664603547922 0 -0.71933980857756763 -0.69465836192734942 1 0 0 1 I I 0 1 1 forward I I I I #
face $-1 $74 $75 $18 $-1 $76 reversed single #
loop $-1 $-1 $77 $30 #
plane-surface $-1 0 0 -19.523996738249803 0 0 1 1 0 0 forward_v I I I I #
coedge $-1 $78 $79 $80 $81 forward $31 $-1 #
face $-1 $82 $83 $19 $-1 $84 reversed single #
loop $-1 $-1 $85 $33 #
plane-surface $-1 0 0 19.523996738249803 0 0 1 1 0 0 forward_v I I I I #
coedge $-1 $86 $87 $88 $89 forward $34 $-1 #
face $-1 $90 $91 $20 $-1 $92 reversed single #
loop $-1 $-1 $93 $36 #
plane-surface $-1 35.431206710579147 -44.03334121128195 16.451379302100392 0 -0.71933980857756763 0.69465836192734942 1 0 0 forward_v I I I I #
coedge $-1 $94 $95 $96 $97 reversed $37 $-1 #
face $-1 $-1 $98 $21 $-1 $99 forward single #
loop $-1 $100 $101 $39 #
cone-surface $-1 35.431206710579147 -39.942925927006968 15.470312005957066 0 0.71933980857756763 -0.69465836192734942 0.5 0 0 1 I I -0.70710678118654879 0.70710678118654635 0.5 forward I I I I #
loop $-1 $-1 $102 $27 #
coedge $-1 $64 $64 $103 $104 reversed $40 $-1 #
face $-1 $105 $106 $22 $-1 $107 reversed single #
loop $-1 $-1 $108 $42 #
plane-surface $-1 35.431206710579147 -17.142916140752405 79.80124977800898 0 0.71933980857756763 0.69465836192734942 1 0 0 forward_v I I I I #
coedge $-1 $109 $110 $111 $112 reversed $43 $-1 #
face $-1 $-1 $113 $23 $-1 $114 forward single #
loop $-1 $115 $116 $45 #
cone-surface $-1 35.431206710579147 39.942925927006975 15.470312005957073 0 -0.71933980857756763 -0.69465836192734942 0.5 0 0 1 I I -0.70710678118654879 0.70710678118654635 0.5 forward I I I I #
loop $-1 $-1 $117 $29 #
coedge $-1 $73 $73 $118 $119 reversed $46 $-1 #
face $-1 $120 $121 $18 $-1 $122 reversed single #
loop $-1 $-1 $123 $48 #
plane-surface $-1 0 -44.033341211281972 0 0 1 0 0 0 1 forward_v I I I I #
coedge $-1 $124 $125 $126 $127 forward $49 $-1 #
coedge $-1 $128 $51 $129 $130 forward $31 $-1 #
coedge $-1 $51 $128 $131 $132 forward $31 $-1 #
coedge $-1 $133 $134 $51 $81 reversed $135 $-1 #
edge $-1 $136 -44.033341211281972 $137 44.033341211281972 $80 $138 forward 7 unknown #
face $-1 $139 $140 $19 $-1 $141 reversed single #
loop $-1 $-1 $142 $52 #
plane-surface $-1 -96.940070349861344 -41.399058488436538 0 1 0 0 0 0 -1 forward_v I I I I #
coedge $-1 $143 $144 $86 $145 forward $53 $-1 #
coedge $-1 $146 $55 $85 $145 reversed $34 $-1 #
coedge $-1 $55 $146 $147 $148 reversed $34 $-1 #
coedge $-1 $149 $150 $55 $89 reversed $140 $-1 #
edge $-1 $151 -19.523996738249803 $152 19.523996738249803 $88 $153 forward 7 unknown #
face $-1 $154 $155 $20 $-1 $156 forward single #
loop $-1 $-1 $157 $56 #
plane-surface $-1 19.107140780579961 -146.60912992500346 115.50766467879954 1 0 0 0 0.71933980857756763 -0.69465836192734942 forward_v I I I I #
coedge $-1 $158 $159 $160 $161 reversed $57 $-1 #
coedge $-1 $95 $59 $162 $163 reversed $37 $-1 #
coedge $-1 $59 $94 $158 $164 reversed $37 $-1 #
coedge $-1 $160 $165 $59 $97 forward $155 $-1 #
edge $-1 $166 29.271223751219758 $167 32.238415848158766 $96 $168 forward 7 unknown #
loop $-1 $-1 $103 $60 #
plane-surface $-1 35.431206710579147 -44.03334121128195 16.451379302100392 0 -0.71933980857756763 0.69465836192734942 1 0 0 forward_v I I I I #
loop $-1 $-1 $169 $39 #
coedge $-1 $101 $101 $102 $170 reversed $61 $-1 #
coedge $-1 $102 $102 $101 $170 forward $63 $-1 #
coedge $-1 $103 $103 $64 $104 forward $98 $-1 #
edge $-1 $171 1.7537222625362957e-016 $171 6.2831853071796004 $103 $172 forward 7 unknown #
face $-1 $173 $174 $22 $-1 $175 reversed single #
loop $-1 $-1 $176 $65 #
plane-surface $-1 51.755272640578333 85.432872572969103 178.85753515470813 -1 0 0 0 0.71933980857756763 0.69465836192734942 forward_v I I I I #
coedge $-1 $177 $178 $179 $180 reversed $66 $-1 #
coedge $-1 $110 $68 $181 $182 reversed $43 $-1 #
coedge $-1 $68 $109 $177 $183 reversed $43 $-1 #
coedge $-1 $179 $184 $68 $112 forward $185 $-1 #
edge $-1 $186 -1.3169049247974201 $187 1.6502871721415744 $111 $188 forward 7 unknown #
loop $-1 $-1 $118 $69 #
plane-surface $-1 35.431206710579147 -17.142916140752405 79.80124977800898 0 0.71933980857756763 0.69465836192734942 1 0 0 forward_v I I I I #
loop $-1 $-1 $189 $45 #
coedge $-1 $116 $116 $117 $190 reversed $70 $-1 #
coedge $-1 $117 $117 $116 $190 forward $72 $-1 #
coedge $-1 $118 $118 $73 $119 forward $113 $-1 #
edge $-1 $191 -2.7309806038928889e-015 $191 6.2831853071795978 $118 $192 forward 7 unknown #
face $-1 $193 $194 $18 $-1 $195 reversed single #
loop $-1 $-1 $196 $74 #
plane-surface $-1 -71.298562578203672 0 0 1 0 0 0 0 -1 forward_v I I I I #
coedge $-1 $197 $131 $198 $199 forward $75 $-1 #
coedge $-1 $200 $77 $197 $201 forward $49 $-1 #
coedge $-1 $77 $200 $202 $203 forward $49 $-1 #
coedge $-1 $134 $133 $77 $127 reversed $135 $-1 #
edge $-1 $204 -44.033341211281972 $205 44.033341211281972 $126 $206 forward 7 unknown #
coedge $-1 $79 $78 $196 $207 forward $31 $-1 #
coedge $-1 $208 $209 $78 $130 reversed $194 $-1 #
edge $-1 $137 -71.298562578203672 $210 71.298562578203672 $129 $211 forward 7 unknown #
coedge $-1 $123 $212 $79 $132 reversed $75 $-1 #
edge $-1 $213 -71.298562578203672 $136 71.298562578203672 $131 $214 forward 7 unknown #
coedge $-1 $126 $80 $212 $215 forward $135 $-1 #
coedge $-1 $80 $126 $208 $216 reversed $135 $-1 #
loop $-1 $-1 $133 $193 #
vertex $-1 $81 $217 #
vertex $-1 $81 $218 #
straight-curve $-1 71.298562578203672 0 19.523996738249803 0 1 0 I I #
face $-1 $219 $220 $19 $-1 $221 reversed single #
loop $-1 $-1 $88 $82 #
plane-surface $-1 -84.119316464032508 -38.764775765591111 0 0 -1 0 0 0 -1 forward_v I I I I #
coedge $-1 $222 $223 $224 $225 forward $83 $-1 #
coedge $-1 $226 $85 $150 $227 forward $53 $-1 #
coedge $-1 $85 $226 $228 $229 forward $53 $-1 #
edge $-1 $230 -44.033341211281972 $152 -38.764775765591111 $85 $231 forward 7 unknown #
coedge $-1 $87 $86 $232 $233 reversed $34 $-1 #
coedge $-1 $234 $235 $87 $148 forward $220 $-1 #
edge $-1 $151 38.764775765591111 $236 44.033341211281972 $147 $237 forward 7 unknown #
coedge $-1 $224 $88 $235 $238 reversed $140 $-1 #
coedge $-1 $88 $224 $143 $227 reversed $140 $-1 #
vertex $-1 $148 $239 #
vertex $-1 $227 $240 #
straight-curve $-1 -71.298562578203672 -38.764775765591111 0 0 0 1 I I #
face $-1 $-1 $241 $20 $-1 $242 reversed single #
loop $-1 $-1 $96 $90 #
plane-surface $-1 0 0 19.523996738249803 0 0 1 1 0 0 forward_v I I I I #
coedge $-1 $243 $244 $245 $246 reversed $91 $-1 #
coedge $-1 $247 $93 $95 $164 forward $57 $-1 #
coedge $-1 $93 $247 $243 $248 forward $57 $-1 #
coedge $-1 $245 $96 $93 $161 forward $155 $-1 #
edge $-1 $167 -34.03966928528876 $249 -1.3915374252903874 $160 $250 forward 7 unknown #
coedge $-1 $251 $252 $94 $163 forward $241 $-1 #
edge $-1 $253 -41.302453037299401 $166 -38.229835601149972 $162 $254 forward 7 unknown #
edge $-1 $167 -4.2714408399352273 $253 3.0141183852910207e-014 $95 $255 forward 7 unknown #
coedge $-1 $96 $245 $251 $256 forward $155 $-1 #
vertex $-1 $97 $257 #
vertex $-1 $97 $258 #
straight-curve $-1 51.755272640578333 -73.304564962501729 19.523996738249807 0 1 0 I I #
coedge $-1 $169 $169 $-1 $259 reversed $100 $-1 #
edge $-1 $260 0 $260 6.2831853071796004 $101 $261 forward 7 unknown #
vertex $-1 $104 $262 #
ellipse-curve $-1 35.431206710579147 -42.549745162812464 17.987688020175089 0 -0.71933980857756763 0.69465836192734942 1 0 0 1 I I #
face $-1 $-1 $185 $22 $-1 $263 forward single #
loop $-1 $-1 $264 $105 #
plane-surface $-1 0 44.033341211281972 0 0 -1 0 0 0 -1 forward_v I I I I #
coedge $-1 $265 $266 $267 $268 reversed $106 $-1 #
coedge $-1 $269 $108 $110 $183 forward $66 $-1 #
coedge $-1 $108 $269 $265 $270 forward $66 $-1 #
coedge $-1 $267 $111 $108 $180 forward $185 $-1 #
edge $-1 $187 1.3915374252903874 $271 34.03966928528876 $179 $272 forward 7 unknown #
coedge $-1 $273 $274 $109 $182 forward $174 $-1 #
edge $-1 $275 -72.977388275253674 $186 -69.904770839104259 $181 $276 forward 7 unknown #
edge $-1 $187 83.795241582628734 $275 88.066682422563957 $110 $277 forward 7 unknown #
coedge $-1 $111 $267 $273 $278 forward $185 $-1 #
loop $-1 $-1 $267 $173 #
vertex $-1 $182 $279 #
vertex $-1 $112 $280 #
straight-curve $-1 19.107140780579961 42.716436286484551 19.523996738249807 0 -1 0 I I #
coedge $-1 $189 $189 $-1 $281 reversed $115 $-1 #
edge $-1 $282 0 $282 6.2831853071796004 $116 $283 forward 7 unknown #
vertex $-1 $119 $284 #
ellipse-curve $-1 35.431206710579147 42.549745162812471 17.987688020175092 0 0.71933980857756763 0.69465836192734942 1 0 0 1 I I #
face $-1 $-1 $135 $18 $-1 $285 reversed single #
loop $-1 $-1 $208 $120 #
plane-surface $-1 0 44.033341211281972 0 0 -1 0 0 0 -1 forward_v I I I I #
coedge $-1 $286 $198 $128 $207 reversed $121 $-1 #
coedge $-1 $212 $123 $124 $201 reversed $75 $-1 #
coedge $-1 $196 $287 $123 $199 reversed $121 $-1 #
edge $-1 $213 -19.523996738249803 $288 19.523996738249803 $198 $289 forward 7 unknown #
coedge $-1 $125 $124 $287 $290 forward $49 $-1 #
edge $-1 $205 -71.298562578203672 $288 71.298562578203672 $197 $291 forward 7 unknown #
coedge $-1 $209 $208 $125 $203 reversed $194 $-1 #
edge $-1 $292 -71.298562578203672 $204 71.298562578203672 $202 $293 forward 7 unknown #
vertex $-1 $127 $294 #
vertex $-1 $215 $295 #
straight-curve $-1 71.298562578203672 0 -19.523996738249803 0 -1 0 I I #
edge $-1 $210 -44.033341211281972 $213 44.033341211281972 $196 $296 forward 7 unknown #
coedge $-1 $202 $129 $134 $216 forward $194 $-1 #
coedge $-1 $129 $202 $286 $297 reversed $194 $-1 #
vertex $-1 $130 $298 #
straight-curve $-1 0 44.033341211281972 19.523996738249803 -1 0 0 I I #
coedge $-1 $131 $197 $133 $215 reversed $75 $-1 #
vertex $-1 $207 $299 #
straight-curve $-1 0 -44.033341211281972 19.523996738249803 1 0 0 I I #
edge $-1 $136 -19.523996738249803 $205 19.523996738249803 $133 $300 forward 7 unknown #
edge $-1 $137 -19.523996738249803 $204 19.523996738249803 $134 $301 forward 7 unknown #
point $-1 71.298562578203672 -44.033341211281972 19.523996738249803 #
point $-1 71.298562578203672 44.033341211281972 19.523996738249803 #
face $-1 $-1 $302 $19 $-1 $303 reversed single #
loop $-1 $-1 $147 $139 #
plane-surface $-1 0 0 -19.523996738249803 0 0 1 1 0 0 forward_v I I I I #
coedge $-1 $304 $142 $305 $306 reversed $83 $-1 #
coedge $-1 $142 $304 $226 $307 reversed $83 $-1 #
coedge $-1 $150 $149 $142 $225 reversed $140 $-1 #
edge $-1 $308 -19.523996738249803 $309 19.523996738249803 $224 $310 forward 7 unknown #
coedge $-1 $144 $143 $223 $307 forward $53 $-1 #
edge $-1 $152 -12.820753885828836 $308 12.820753885828836 $150 $311 forward 7 unknown #
coedge $-1 $312 $232 $144 $229 reversed $302 $-1 #
edge $-1 $313 -96.940070349861344 $230 -71.298562578203672 $228 $314 forward 7 unknown #
vertex $-1 $233 $315 #
straight-curve $-1 -71.298562578203672 0 19.523996738249803 0 1 0 I I #
coedge $-1 $228 $316 $146 $233 forward $302 $-1 #
edge $-1 $236 -19.523996738249803 $230 19.523996738249803 $232 $317 forward 7 unknown #
coedge $-1 $305 $147 $316 $318 forward $220 $-1 #
coedge $-1 $147 $305 $149 $238 forward $220 $-1 #
vertex $-1 $318 $319 #
straight-curve $-1 -71.298562578203672 0 -19.523996738249803 0 -1 0 I I #
edge $-1 $309 -12.820753885828836 $151 12.820753885828836 $149 $320 forward 7 unknown #
point $-1 -71.298562578203672 -38.764775765591111 -19.523996738249803 #
point $-1 -71.298562578203672 -38.764775765591111 19.523996738249803 #
loop $-1 $-1 $162 $154 #
plane-surface $-1 0 -44.033341211281972 0 0 1 0 0 0 1 forward_v I I I I #
coedge $-1 $244 $157 $159 $248 reversed $91 $-1 #
coedge $-1 $157 $243 $321 $322 reversed $91 $-1 #
coedge $-1 $165 $160 $157 $246 forward $155 $-1 #
edge $-1 $249 -32.238415848158766 $323 -29.271223751219758 $245 $324 forward 7 unknown #
coedge $-1 $159 $158 $252 $325 reversed $57 $-1 #
edge $-1 $326 -3.0141183852910207e-014 $249 4.2714408399352273 $243 $327 forward 7 unknown #
vertex $-1 $161 $328 #
straight-curve $-1 17.715603355289574 -41.066149114342963 19.523996738249803 -1 0 0 I I #
coedge $-1 $321 $162 $165 $256 reversed $241 $-1 #
coedge $-1 $162 $321 $247 $325 forward $241 $-1 #
vertex $-1 $163 $329 #
straight-curve $-1 51.755272640578333 -44.033341211281972 57.753832339399771 0 0 1 I I #
straight-curve $-1 51.755272640578333 -44.03334121128195 16.451379302100392 0 -0.69465836192734942 -0.71933980857756763 I I #
edge $-1 $323 19.107140780579961 $166 51.755272640578333 $251 $330 forward 7 unknown #
point $-1 51.755272640578333 -44.033341211281972 19.523996738249803 #
point $-1 51.755272640578333 -41.066149114342963 19.523996738249803 #
edge $-1 $331 1 $331 0 $169 $-1 forward 7 unknown #
vertex $-1 $170 $332 #
ellipse-curve $-1 35.431206710579147 -40.302595831295747 15.817641186920739 0 -0.71933980857756763 0.69465836192734942 1 0 0 1 I I #
point $-1 36.431206710579147 -42.549745162812471 17.987688020175096 #
plane-surface $-1 0 0 19.523996738249803 0 0 1 1 0 0 forward_v I I I I #
coedge $-1 $274 $273 $266 $333 forward $174 $-1 #
coedge $-1 $266 $176 $178 $270 reversed $106 $-1 #
coedge $-1 $176 $265 $264 $333 reversed $106 $-1 #
coedge $-1 $184 $179 $176 $268 forward $185 $-1 #
edge $-1 $271 -1.6502871721415744 $334 1.3169049247974201 $267 $335 forward 7 unknown #
coedge $-1 $178 $177 $274 $336 reversed $66 $-1 #
edge $-1 $337 -88.066682422563957 $271 -83.795241582628734 $265 $338 forward 7 unknown #
vertex $-1 $180 $339 #
straight-curve $-1 17.715603355289574 41.06614911434297 19.523996738249799 1 0 0 I I #
coedge $-1 $264 $181 $184 $278 reversed $174 $-1 #
coedge $-1 $181 $264 $269 $336 forward $174 $-1 #
vertex $-1 $182 $340 #
straight-curve $-1 19.107140780579961 44.033341211281972 89.428767577354066 0 0 1 I I #
straight-curve $-1 19.107140780579961 -17.142916140752405 79.80124977800898 0 0.69465836192734942 -0.71933980857756763 I I #
edge $-1 $334 -51.755272640578333 $186 -19.107140780579961 $273 $341 forward 7 unknown #
point $-1 19.107140780579961 44.033341211281972 19.523996738249803 #
point $-1 19.107140780579961 41.066149114342977 19.523996738249799 #
edge $-1 $342 1 $342 0 $189 $-1 forward 7 unknown #
vertex $-1 $190 $343 #
ellipse-curve $-1 35.431206710579147 40.302595831295754 15.817641186920746 0 0.71933980857756763 0.69465836192734942 1 0 0 1 I I #
point $-1 36.431206710579147 42.549745162812478 17.987688020175103 #
plane-surface $-1 71.298562578203672 0 0 -1 0 0 0 0 1 forward_v I I I I #
coedge $-1 $287 $196 $209 $297 forward $121 $-1 #
coedge $-1 $198 $286 $200 $290 reversed $121 $-1 #
vertex $-1 $290 $344 #
straight-curve $-1 -71.298562578203672 -44.033341211281972 0 0 0 -1 I I #
edge $-1 $288 -44.033341211281972 $292 44.033341211281972 $287 $345 forward 7 unknown #
straight-curve $-1 0 -44.033341211281972 -19.523996738249803 -1 0 0 I I #
vertex $-1 $203 $346 #
straight-curve $-1 0 44.033341211281972 -19.523996738249803 1 0 0 I I #
point $-1 71.298562578203672 44.033341211281972 -19.523996738249803 #
point $-1 71.298562578203672 -44.033341211281972 -19.523996738249803 #
straight-curve $-1 -71.298562578203672 0 19.523996738249803 0 -1 0 I I #
edge $-1 $210 -19.523996738249803 $292 19.523996738249803 $209 $347 forward 7 unknown #
point $-1 -71.298562578203672 44.033341211281972 19.523996738249803 #
point $-1 -71.298562578203672 -44.033341211281972 19.523996738249803 #
straight-curve $-1 71.298562578203672 -44.033341211281972 0 0 0 -1 I I #
straight-curve $-1 71.298562578203672 44.033341211281972 0 0 0 -1 I I #
loop $-1 $-1 $232 $219 #
plane-surface $-1 0 -44.033341211281972 0 0 1 0 0 0 1 forward_v I I I I #
coedge $-1 $223 $222 $312 $348 reversed $83 $-1 #
coedge $-1 $235 $234 $222 $306 forward $220 $-1 #
edge $-1 $349 -2.6342827228454269 $309 2.6342827228454269 $222 $350 forward 7 unknown #
edge $-1 $308 -2.6342827228454269 $313 2.6342827228454269 $223 $351 forward 7 unknown #
vertex $-1 $227 $352 #
vertex $-1 $238 $353 #
straight-curve $-1 -96.940070349861344 -38.764775765591111 0 0 0 -1 I I #
straight-curve $-1 -84.119316464032508 -38.764775765591111 19.523996738249803 -1 0 0 I I #
coedge $-1 $316 $228 $304 $348 forward $302 $-1 #
vertex $-1 $307 $354 #
straight-curve $-1 0 -44.033341211281972 19.523996738249803 1 0 0 I I #
point $-1 -71.298562578203672 -44.033341211281972 19.523996738249803 #
coedge $-1 $232 $312 $234 $318 reversed $302 $-1 #
straight-curve $-1 -71.298562578203672 -44.033341211281972 0 0 0 1 I I #
edge $-1 $236 -12.820753885828836 $349 12.820753885828836 $316 $355 forward 7 unknown #
point $-1 -71.298562578203672 -44.033341211281972 -19.523996738249803 #
straight-curve $-1 -84.119316464032508 -38.764775765591111 -19.523996738249803 1 0 0 I I #
coedge $-1 $252 $251 $244 $322 forward $241 $-1 #
edge $-1 $323 38.229835601149972 $326 41.302453037299401 $321 $356 forward 7 unknown #
vertex $-1 $256 $357 #
straight-curve $-1 19.107140780579961 -73.304564962501729 19.523996738249807 0 -1 0 I I #
edge $-1 $326 1.3915374252903874 $253 34.03966928528876 $252 $358 forward 7 unknown #
vertex $-1 $325 $359 #
straight-curve $-1 19.107140780579961 -44.03334121128195 16.451379302100392 0 0.69465836192734942 0.71933980857756763 I I #
point $-1 19.107140780579961 -41.066149114342963 19.523996738249803 #
point $-1 51.755272640578333 -44.033341211281972 16.451379302100371 #
straight-curve $-1 0 -44.033341211281972 19.523996738249803 1 0 0 I I #
vertex $-1 $259 $360 #
point $-1 36.431206710579147 -40.302595831295747 15.817641186920739 #
edge $-1 $334 69.904770839104259 $337 72.977388275253674 $264 $361 forward 7 unknown #
vertex $-1 $278 $362 #
straight-curve $-1 51.755272640578333 42.716436286484551 19.523996738249807 0 1 0 I I #
edge $-1 $337 -34.03966928528876 $275 -1.3915374252903874 $274 $363 forward 7 unknown #
vertex $-1 $336 $364 #
straight-curve $-1 51.755272640578333 -17.142916140752405 79.80124977800898 0 -0.69465836192734942 0.71933980857756763 I I #
point $-1 51.755272640578333 41.066149114342977 19.523996738249799 #
point $-1 19.107140780579961 44.033341211281972 16.451379302100385 #
straight-curve $-1 0 44.033341211281972 19.523996738249803 -1 0 0 I I #
vertex $-1 $281 $365 #
point $-1 36.431206710579147 40.302595831295754 15.817641186920746 #
point $-1 -71.298562578203672 -44.033341211281972 -19.523996738249803 #
straight-curve $-1 -71.298562578203672 0 -19.523996738249803 0 1 0 I I #
point $-1 -71.298562578203672 44.033341211281972 -19.523996738249803 #
straight-curve $-1 -71.298562578203672 44.033341211281972 0 0 0 -1 I I #
edge $-1 $313 -19.523996738249803 $349 19.523996738249803 $304 $366 forward 7 unknown #
vertex $-1 $306 $367 #
straight-curve $-1 -96.940070349861344 -41.399058488436538 -19.523996738249803 0 1 0 I I #
straight-curve $-1 -96.940070349861344 -41.399058488436538 19.523996738249803 0 -1 0 I I #
point $-1 -96.940070349861344 -38.764775765591111 19.523996738249803 #
point $-1 -96.940070349861344 -38.764775765591111 -19.523996738249803 #
point $-1 -96.940070349861344 -44.033341211281964 19.523996738249803 #
straight-curve $-1 -84.119316464032508 -44.033341211281964 -19.523996738249803 -1 0 0 I I #
straight-curve $-1 19.107140780579961 -44.033341211281972 57.753832339399771 0 0 -1 I I #
point $-1 19.107140780579961 -44.033341211281972 19.523996738249803 #
straight-curve $-1 17.715603355289574 -44.033341211281972 16.451379302100374 1 0 0 I I #
point $-1 19.107140780579961 -44.033341211281972 16.451379302100371 #
point $-1 35.431206710579147 -39.583256022718189 15.122982824993393 #
straight-curve $-1 51.755272640578333 44.033341211281972 89.428767577354066 0 0 -1 I I #
point $-1 51.755272640578333 44.033341211281972 19.523996738249803 #
straight-curve $-1 17.715603355289574 44.033341211281972 16.451379302100388 -1 0 0 I I #
point $-1 51.755272640578333 44.033341211281972 16.451379302100385 #
point $-1 35.431206710579147 39.583256022718196 15.1229828249934 #
straight-curve $-1 -96.940070349861344 -44.033341211281964 0 0 0 -1 I I #
point $-1 -96.940070349861344 -44.033341211281964 -19.523996738249803 #
End-of-ACIS-data 