500 0 9 0           
7 Unknown 11 ACIS 5.0 NT 24 Thu Mar 25 22:46:09 1999 
-1 9.9999999999999995e-007 1e-010 
body $-1 $9 $-1 $10 #
body $-1 $11 $-1 $12 #
body $-1 $13 $-1 $14 #
body $-1 $15 $-1 $16 #
body $-1 $17 $-1 $18 #
body $-1 $19 $-1 $20 #
body $-1 $21 $-1 $22 #
body $-1 $23 $-1 $24 #
body $-1 $25 $-1 $26 #
lump $-1 $-1 $27 $0 #
transform $-1 1 0 0 0 1 0 0 0 1 41.643116550187692 17.694289471265396 4.4496275290147667 1 rotate no_reflect no_shear #
lump $-1 $-1 $28 $1 #
transform $-1 1 0 0 0 1 0 0 0 1 41.643116550187692 17.694289471265396 4.4496275290147667 1 rotate no_reflect no_shear #
lump $-1 $-1 $29 $2 #
transform $-1 1 0 0 0 1 0 0 0 1 41.643116550187692 17.694289471265396 4.4496275290147667 1 rotate no_reflect no_shear #
lump $-1 $-1 $30 $3 #
transform $-1 1 0 0 0 1 0 0 0 1 41.643116550187692 17.694289471265396 4.4496275290147667 1 rotate no_reflect no_shear #
lump $-1 $-1 $31 $4 #
transform $-1 1 0 0 0 1 0 0 0 1 41.643116550187692 17.694289471265396 4.4496275290147667 1 rotate no_reflect no_shear #
lump $-1 $-1 $32 $5 #
transform $-1 1 0 0 0 1 0 0 0 1 41.643116550187692 17.694289471265396 4.4496275290147667 1 rotate no_reflect no_shear #
lump $-1 $-1 $33 $6 #
transform $-1 1 0 0 0 1 0 0 0 1 41.643116550187692 17.694289471265396 4.4496275290147667 1 rotate no_reflect no_shear #
lump $-1 $-1 $34 $7 #
transform $-1 1 0 0 0 1 0 0 0 1 41.643116550187692 17.694289471265396 4.4496275290147667 1 rotate no_reflect no_shear #
lump $-1 $-1 $35 $8 #
transform $-1 1 0 0 0 1 0 0 0 1 41.643116550187692 17.694289471265396 4.4496275290147667 1 rotate no_reflect no_shear #
shell $-1 $-1 $-1 $36 $-1 $9 #
shell $-1 $-1 $-1 $37 $-1 $11 #
shell $-1 $-1 $-1 $38 $-1 $13 #
shell $-1 $-1 $-1 $39 $-1 $15 #
shell $-1 $-1 $-1 $40 $-1 $17 #
shell $-1 $-1 $-1 $41 $-1 $19 #
shell $-1 $-1 $-1 $42 $-1 $21 #
shell $-1 $-1 $-1 $43 $-1 $23 #
shell $-1 $-1 $-1 $44 $-1 $25 #
face $-1 $45 $46 $27 $-1 $47 forward single #
face $-1 $48 $49 $28 $-1 $50 reversed single #
face $-1 $51 $52 $29 $-1 $53 forward single #
face $-1 $54 $55 $30 $-1 $56 reversed single #
face $-1 $57 $58 $31 $-1 $59 forward single #
face $-1 $60 $61 $32 $-1 $62 forward single #
face $-1 $63 $64 $33 $-1 $65 reversed single #
face $-1 $66 $67 $34 $-1 $68 forward single #
face $-1 $69 $70 $35 $-1 $71 forward single #
face $-1 $72 $73 $27 $-1 $74 reversed single #
loop $-1 $-1 $75 $36 #
plane-surface $-1 0 0 4.4496275290147667 0 0 1 1 0 0 forward_v I I I I #
face $-1 $76 $77 $28 $-1 $78 reversed single #
loop $-1 $-1 $79 $37 #
plane-surface $-1 -26.072477329337765 -82.419849859403342 53.021145606116413 -1 0 0 0 -0.77714596973225614 0.62932038083071107 forward_v I I I I #
face $-1 $80 $81 $29 $-1 $82 forward single #
loop $-1 $83 $84 $38 #
cone-surface $-1 -33.857796939762729 -15.5025950779961 2.0134890473877078 0 0.77714596973225614 -0.62932038083071107 0.5 0 0 1 I I 0 1 0.5 forward I I I I #
face $-1 $85 $86 $30 $-1 $87 reversed single #
loop $-1 $-1 $88 $39 #
plane-surface $-1 -39.050497972436013 66.952664875542609 76.046862980260187 1 0 0 0 -0.82903758062907751 -0.55919289150049634 forward_v I I I I #
face $-1 $89 $90 $31 $-1 $91 forward single #
loop $-1 $92 $93 $40 #
cone-surface $-1 -36.07666140137033 14.629018555418995 1.2063480190613689 0 -0.82903758062907751 -0.55919289150049634 1 0 0 1 I I 0 1 1 forward I I I I #
face $-1 $94 $95 $32 $-1 $96 forward single #
loop $-1 $97 $98 $41 #
cone-surface $-1 -31.615906544771804 14.629018555418995 1.2063480190613689 0 -0.82903758062907751 -0.55919289150049634 1 0 0 1 I I 0 1 1 forward I I I I #
face $-1 $99 $100 $33 $-1 $101 reversed single #
loop $-1 $-1 $102 $42 #
plane-surface $-1 2.592618577751681 66.952664875542609 76.046862980260187 1 0 0 0 -0.82903758062907751 -0.55919289150049634 forward_v I I I I #
face $-1 $103 $104 $34 $-1 $105 forward single #
loop $-1 $106 $107 $43 #
cone-surface $-1 5.5664551488173615 14.629018555418995 1.2063480190613689 0 -0.82903758062907751 -0.55919289150049634 1 0 0 1 I I 0 1 1 forward I I I I #
face $-1 $108 $109 $35 $-1 $110 forward single #
loop $-1 $111 $112 $44 #
cone-surface $-1 10.027210005415888 14.629018555418995 1.2063480190613689 0 -0.82903758062907751 -0.55919289150049634 1 0 0 1 I I 0 1 1 forward I I I I #
face $-1 $113 $114 $27 $-1 $115 reversed single #
loop $-1 $-1 $116 $45 #
plane-surface $-1 0 0 -4.4496275290147667 0 0 1 1 0 0 forward_v I I I I #
coedge $-1 $117 $118 $119 $120 forward $46 $-1 #
face $-1 $121 $122 $28 $-1 $123 forward single #
loop $-1 $-1 $124 $48 #
plane-surface $-1 -33.857796939762729 -17.694289471265378 0.60742167343279618 0 -0.77714596973225614 0.62932038083071107 1 0 0 forward_v I I I I #
coedge $-1 $125 $126 $127 $128 reversed $49 $-1 #
face $-1 $-1 $129 $29 $-1 $130 forward single #
loop $-1 $131 $132 $51 #
cone-surface $-1 -33.857796939762729 -14.672292627516066 1.3411233983439521 0 0.77714596973225614 -0.62932038083071107 0.25 0 0 1 I I -0.70710678118654746 0.70710678118654746 0.25 forward I I I I #
loop $-1 $-1 $133 $38 #
coedge $-1 $84 $84 $134 $135 reversed $52 $-1 #
face $-1 $136 $137 $30 $-1 $138 reversed single #
loop $-1 $-1 $139 $54 #
plane-surface $-1 -33.846283973071067 -2.0947523137019886 29.473793470676931 0 0.82903758062907751 0.55919289150049634 1 0 0 forward_v I I I I #
coedge $-1 $140 $141 $142 $143 reversed $55 $-1 #
face $-1 $-1 $144 $31 $-1 $145 forward single #
loop $-1 $146 $147 $57 #
cone-surface $-1 -36.07666140137033 12.604243477328431 -0.15937997326493392 0 -0.82903758062907751 -0.55919289150049634 0.5 0 0 1 I I -0.70710678118654746 0.70710678118654746 0.5 forward I I I I #
loop $-1 $-1 $148 $40 #
coedge $-1 $93 $93 $149 $150 reversed $58 $-1 #
face $-1 $-1 $151 $32 $-1 $152 forward single #
loop $-1 $153 $154 $60 #
cone-surface $-1 -31.615906544771804 12.604243477328431 -0.15937997326493392 0 -0.82903758062907751 -0.55919289150049634 0.5 0 0 1 I I -0.70710678118654746 0.70710678118654746 0.5 forward I I I I #
loop $-1 $-1 $155 $41 #
coedge $-1 $98 $98 $156 $157 reversed $61 $-1 #
face $-1 $158 $159 $33 $-1 $160 reversed single #
loop $-1 $-1 $161 $63 #
plane-surface $-1 7.7968325771166249 -2.0947523137019886 29.473793470676931 0 0.82903758062907751 0.55919289150049634 1 0 0 forward_v I I I I #
coedge $-1 $162 $163 $164 $165 reversed $64 $-1 #
face $-1 $-1 $166 $34 $-1 $167 forward single #
loop $-1 $168 $169 $66 #
cone-surface $-1 5.5664551488173615 12.604243477328431 -0.15937997326493392 0 -0.82903758062907751 -0.55919289150049634 0.5 0 0 1 I I -0.70710678118654746 0.70710678118654746 0.5 forward I I I I #
loop $-1 $-1 $170 $43 #
coedge $-1 $107 $107 $171 $172 reversed $67 $-1 #
face $-1 $-1 $173 $35 $-1 $174 forward single #
loop $-1 $175 $176 $69 #
cone-surface $-1 10.027210005415888 12.604243477328431 -0.15937997326493392 0 -0.82903758062907751 -0.55919289150049634 0.5 0 0 1 I I -0.70710678118654746 0.70710678118654746 0.5 forward I I I I #
loop $-1 $-1 $177 $44 #
coedge $-1 $112 $112 $178 $179 reversed $70 $-1 #
face $-1 $180 $181 $27 $-1 $182 reversed single #
loop $-1 $-1 $183 $72 #
plane-surface $-1 0 -17.694289471265396 0 0 1 0 0 0 1 forward_v I I I I #
coedge $-1 $184 $185 $186 $187 forward $73 $-1 #
coedge $-1 $188 $75 $189 $190 forward $46 $-1 #
coedge $-1 $75 $188 $191 $192 forward $46 $-1 #
coedge $-1 $193 $194 $75 $120 reversed $195 $-1 #
edge $-1 $196 -17.694289471265396 $197 17.694289471265396 $119 $198 forward 7 unknown #
face $-1 $199 $200 $28 $-1 $201 reversed single #
loop $-1 $-1 $127 $76 #
plane-surface $-1 0 0 4.4496275290147667 0 0 1 1 0 0 forward_v I I I I #
coedge $-1 $202 $203 $204 $205 reversed $77 $-1 #
coedge $-1 $126 $79 $206 $207 reversed $49 $-1 #
coedge $-1 $79 $125 $202 $208 reversed $49 $-1 #
coedge $-1 $204 $209 $79 $128 forward $122 $-1 #
edge $-1 $210 23.515635458436275 $211 26.626992328880952 $127 $212 forward 7 unknown #
loop $-1 $-1 $134 $80 #
plane-surface $-1 -33.857796939762729 -17.694289471265378 0.60742167343279618 0 -0.77714596973225614 0.62932038083071107 1 0 0 forward_v I I I I #
loop $-1 $-1 $213 $51 #
coedge $-1 $132 $132 $133 $214 reversed $81 $-1 #
coedge $-1 $133 $133 $132 $214 forward $83 $-1 #
coedge $-1 $134 $134 $84 $135 forward $129 $-1 #
edge $-1 $215 1.4404788170456024e-015 $215 6.2831853071796022 $134 $216 forward 7 unknown #
face $-1 $217 $218 $30 $-1 $219 forward single #
loop $-1 $-1 $220 $85 #
plane-surface $-1 -28.642069973706121 66.952664875542609 76.046862980260187 -1 0 0 0 0.82903758062907751 0.55919289150049634 forward_v I I I I #
coedge $-1 $221 $222 $223 $224 reversed $86 $-1 #
coedge $-1 $141 $88 $225 $226 reversed $55 $-1 #
coedge $-1 $88 $140 $221 $227 reversed $55 $-1 #
coedge $-1 $223 $228 $88 $143 forward $218 $-1 #
edge $-1 $229 15.782042966505909 $230 18.692072222646676 $142 $231 forward 7 unknown #
loop $-1 $-1 $149 $89 #
plane-surface $-1 -33.846283973071067 -2.0947523137019886 29.473793470676931 0 0.82903758062907751 0.55919289150049634 1 0 0 forward_v I I I I #
loop $-1 $-1 $232 $57 #
coedge $-1 $147 $147 $148 $233 reversed $90 $-1 #
coedge $-1 $148 $148 $147 $233 forward $92 $-1 #
coedge $-1 $149 $149 $93 $150 forward $144 $-1 #
edge $-1 $234 -8.1286190408483429e-016 $234 6.2831853071795996 $149 $235 forward 7 unknown #
loop $-1 $-1 $156 $94 #
plane-surface $-1 -33.846283973071067 -2.0947523137019886 29.473793470676931 0 0.82903758062907751 0.55919289150049634 1 0 0 forward_v I I I I #
loop $-1 $-1 $236 $60 #
coedge $-1 $154 $154 $155 $237 reversed $95 $-1 #
coedge $-1 $155 $155 $154 $237 forward $97 $-1 #
coedge $-1 $156 $156 $98 $157 forward $151 $-1 #
edge $-1 $238 -8.1286190408483429e-016 $238 6.2831853071795996 $156 $239 forward 7 unknown #
face $-1 $240 $241 $33 $-1 $242 forward single #
loop $-1 $-1 $243 $99 #
plane-surface $-1 13.001046576481569 66.952664875542609 76.046862980260187 -1 0 0 0 0.82903758062907751 0.55919289150049634 forward_v I I I I #
coedge $-1 $244 $245 $246 $247 reversed $100 $-1 #
coedge $-1 $163 $102 $248 $249 reversed $64 $-1 #
coedge $-1 $102 $162 $244 $250 reversed $64 $-1 #
coedge $-1 $246 $251 $102 $165 forward $241 $-1 #
edge $-1 $252 15.782042966505909 $253 18.692072222646676 $164 $254 forward 7 unknown #
loop $-1 $-1 $171 $103 #
plane-surface $-1 7.7968325771166249 -2.0947523137019886 29.473793470676931 0 0.82903758062907751 0.55919289150049634 1 0 0 forward_v I I I I #
loop $-1 $-1 $255 $66 #
coedge $-1 $169 $169 $170 $256 reversed $104 $-1 #
coedge $-1 $170 $170 $169 $256 forward $106 $-1 #
coedge $-1 $171 $171 $107 $172 forward $166 $-1 #
edge $-1 $257 -8.1286190408483429e-016 $257 6.2831853071795996 $171 $258 forward 7 unknown #
loop $-1 $-1 $178 $108 #
plane-surface $-1 7.7968325771166249 -2.0947523137019886 29.473793470676931 0 0.82903758062907751 0.55919289150049634 1 0 0 forward_v I I I I #
loop $-1 $-1 $259 $69 #
coedge $-1 $176 $176 $177 $260 reversed $109 $-1 #
coedge $-1 $177 $177 $176 $260 forward $111 $-1 #
coedge $-1 $178 $178 $112 $179 forward $173 $-1 #
edge $-1 $261 -8.1286190408483429e-016 $261 6.2831853071795996 $178 $262 forward 7 unknown #
face $-1 $263 $264 $27 $-1 $265 reversed single #
loop $-1 $-1 $266 $113 #
plane-surface $-1 -41.643116550187692 0 0 1 0 0 0 0 -1 forward_v I I I I #
coedge $-1 $267 $191 $268 $269 forward $114 $-1 #
coedge $-1 $270 $116 $267 $271 forward $73 $-1 #
coedge $-1 $116 $270 $272 $273 forward $73 $-1 #
coedge $-1 $194 $193 $116 $187 reversed $195 $-1 #
edge $-1 $274 -17.694289471265396 $275 17.694289471265396 $186 $276 forward 7 unknown #
coedge $-1 $118 $117 $277 $278 forward $46 $-1 #
coedge $-1 $279 $280 $117 $190 reversed $264 $-1 #
edge $-1 $197 -41.643116550187692 $281 41.643116550187692 $189 $282 forward 7 unknown #
coedge $-1 $183 $283 $118 $192 reversed $114 $-1 #
edge $-1 $284 -41.643116550187692 $196 41.643116550187692 $191 $285 forward 7 unknown #
coedge $-1 $186 $119 $283 $286 forward $195 $-1 #
coedge $-1 $119 $186 $279 $287 reversed $195 $-1 #
loop $-1 $-1 $193 $263 #
vertex $-1 $120 $288 #
vertex $-1 $120 $289 #
straight-curve $-1 41.643116550187692 0 4.4496275290147667 0 1 0 I I #
face $-1 $-1 $290 $28 $-1 $291 reversed single #
loop $-1 $-1 $292 $121 #
plane-surface $-1 -41.643116550187692 0 0 1 0 0 0 0 -1 forward_v I I I I #
coedge $-1 $293 $124 $126 $208 forward $77 $-1 #
coedge $-1 $124 $293 $292 $294 reversed $77 $-1 #
coedge $-1 $295 $127 $124 $205 forward $122 $-1 #
edge $-1 $211 9.1435788594564009 $296 24.714218080306328 $204 $297 forward 7 unknown #
coedge $-1 $298 $299 $125 $207 forward $290 $-1 #
edge $-1 $300 -25.903151129625432 $210 -22.060945274043441 $206 $301 forward 7 unknown #
edge $-1 $211 -4.9439950861556881 $300 2.8262521538635673e-014 $126 $302 forward 7 unknown #
coedge $-1 $127 $295 $298 $303 forward $122 $-1 #
vertex $-1 $207 $304 #
vertex $-1 $128 $305 #
straight-curve $-1 -26.072477329337765 -41.209924929701671 4.4496275290147658 0 1 0 I I #
coedge $-1 $213 $213 $-1 $306 reversed $131 $-1 #
edge $-1 $307 0 $307 6.2831853071796004 $132 $308 forward 7 unknown #
vertex $-1 $135 $309 #
ellipse-curve $-1 -33.857796939762729 -16.138611036043056 2.5285246012237734 0 -0.77714596973225614 0.62932038083071107 0.5 0 0 1 I I #
face $-1 $-1 $310 $30 $-1 $311 reversed single #
loop $-1 $-1 $142 $136 #
plane-surface $-1 0 0 4.4496275290147667 0 0 1 1 0 0 forward_v I I I I #
coedge $-1 $312 $313 $314 $315 reversed $137 $-1 #
coedge $-1 $316 $139 $141 $227 forward $86 $-1 #
coedge $-1 $139 $316 $312 $317 forward $86 $-1 #
coedge $-1 $314 $142 $139 $224 forward $218 $-1 #
edge $-1 $230 -22.127355985900479 $318 -11.718927987170588 $223 $319 forward 7 unknown #
coedge $-1 $320 $321 $140 $226 forward $310 $-1 #
edge $-1 $322 -37.888099887870027 $229 -33.573803961115324 $225 $323 forward 7 unknown #
edge $-1 $230 30.184597811203822 $322 35.38857894253082 $141 $324 forward 7 unknown #
coedge $-1 $142 $314 $320 $325 forward $218 $-1 #
vertex $-1 $226 $326 #
vertex $-1 $143 $327 #
straight-curve $-1 -39.050497972436013 33.476332437771305 4.4496275290147693 0 -1 0 I I #
coedge $-1 $232 $232 $-1 $328 reversed $146 $-1 #
edge $-1 $329 0 $329 6.2831853071796004 $147 $330 forward 7 unknown #
vertex $-1 $150 $331 #
ellipse-curve $-1 -36.07666140137033 16.239274843195012 2.2924795656374179 0 0.82903758062907751 0.55919289150049634 1 0 0 1 I I #
coedge $-1 $236 $236 $-1 $332 reversed $153 $-1 #
edge $-1 $333 0 $333 6.2831853071796004 $154 $334 forward 7 unknown #
vertex $-1 $157 $335 #
ellipse-curve $-1 -31.615906544771804 16.239274843195012 2.2924795656374179 0 0.82903758062907751 0.55919289150049634 1 0 0 1 I I #
face $-1 $-1 $336 $33 $-1 $337 reversed single #
loop $-1 $-1 $164 $158 #
plane-surface $-1 0 0 4.4496275290147667 0 0 1 1 0 0 forward_v I I I I #
coedge $-1 $338 $339 $340 $341 reversed $159 $-1 #
coedge $-1 $342 $161 $163 $250 forward $100 $-1 #
coedge $-1 $161 $342 $338 $343 forward $100 $-1 #
coedge $-1 $340 $164 $161 $247 forward $241 $-1 #
edge $-1 $253 -1.3057977108066314 $344 9.1026302879232563 $246 $345 forward 7 unknown #
coedge $-1 $346 $347 $162 $249 forward $336 $-1 #
edge $-1 $348 -37.888099887870027 $252 -33.573803961115324 $248 $349 forward 7 unknown #
edge $-1 $253 30.184597811203822 $348 35.38857894253082 $163 $350 forward 7 unknown #
coedge $-1 $164 $340 $346 $351 forward $241 $-1 #
vertex $-1 $165 $352 #
vertex $-1 $165 $353 #
straight-curve $-1 2.592618577751681 33.476332437771305 4.4496275290147693 0 -1 0 I I #
coedge $-1 $255 $255 $-1 $354 reversed $168 $-1 #
edge $-1 $355 0 $355 6.2831853071796004 $169 $356 forward 7 unknown #
vertex $-1 $172 $357 #
ellipse-curve $-1 5.5664551488173615 16.239274843195012 2.2924795656374179 0 0.82903758062907751 0.55919289150049634 1 0 0 1 I I #
coedge $-1 $259 $259 $-1 $358 reversed $175 $-1 #
edge $-1 $359 0 $359 6.2831853071796004 $176 $360 forward 7 unknown #
vertex $-1 $179 $361 #
ellipse-curve $-1 10.027210005415888 16.239274843195012 2.2924795656374179 0 0.82903758062907751 0.55919289150049634 1 0 0 1 I I #
face $-1 $-1 $195 $27 $-1 $362 reversed single #
loop $-1 $-1 $279 $180 #
plane-surface $-1 0 17.694289471265396 0 0 -1 0 0 0 -1 forward_v I I I I #
coedge $-1 $363 $277 $280 $364 forward $181 $-1 #
coedge $-1 $283 $183 $184 $271 reversed $114 $-1 #
coedge $-1 $277 $363 $183 $269 reversed $181 $-1 #
edge $-1 $284 -4.4496275290147667 $365 4.4496275290147667 $268 $366 forward 7 unknown #
coedge $-1 $185 $184 $363 $367 forward $73 $-1 #
edge $-1 $275 -41.643116550187692 $365 41.643116550187692 $267 $368 forward 7 unknown #
coedge $-1 $280 $279 $185 $273 reversed $264 $-1 #
edge $-1 $369 -41.643116550187692 $274 41.643116550187692 $272 $370 forward 7 unknown #
vertex $-1 $187 $371 #
vertex $-1 $286 $372 #
straight-curve $-1 41.643116550187692 0 -4.4496275290147667 0 -1 0 I I #
coedge $-1 $266 $268 $188 $278 reversed $181 $-1 #
edge $-1 $281 -17.694289471265396 $284 17.694289471265396 $277 $373 forward 7 unknown #
coedge $-1 $272 $189 $194 $287 forward $264 $-1 #
coedge $-1 $189 $272 $266 $364 reversed $264 $-1 #
vertex $-1 $190 $374 #
straight-curve $-1 0 17.694289471265396 4.4496275290147667 -1 0 0 I I #
coedge $-1 $191 $267 $193 $286 reversed $114 $-1 #
vertex $-1 $278 $375 #
straight-curve $-1 0 -17.694289471265396 4.4496275290147667 1 0 0 I I #
edge $-1 $196 -4.4496275290147667 $275 4.4496275290147667 $193 $376 forward 7 unknown #
edge $-1 $197 -4.4496275290147667 $274 4.4496275290147667 $194 $377 forward 7 unknown #
point $-1 41.643116550187692 -17.694289471265396 4.4496275290147667 #
point $-1 41.643116550187692 17.694289471265396 4.4496275290147667 #
loop $-1 $-1 $206 $199 #
plane-surface $-1 0 -17.694289471265396 0 0 1 0 0 0 1 forward_v I I I I #
coedge $-1 $378 $379 $203 $294 forward $200 $-1 #
coedge $-1 $203 $202 $299 $380 reversed $77 $-1 #
edge $-1 $296 0.38766575541893633 $381 5.331660841574652 $292 $382 forward 7 unknown #
coedge $-1 $209 $204 $379 $383 forward $122 $-1 #
vertex $-1 $383 $384 #
straight-curve $-1 -16.928898469881364 -14.582932600820717 4.4496275290147667 -1 0 0 I I #
coedge $-1 $385 $206 $209 $303 reversed $290 $-1 #
coedge $-1 $206 $385 $293 $380 forward $290 $-1 #
vertex $-1 $207 $386 #
straight-curve $-1 -26.072477329337765 -17.694289471265392 26.510572803058206 0 0 1 I I #
straight-curve $-1 -26.072477329337765 -17.694289471265378 0.60742167343279618 0 -0.62932038083071107 -0.77714596973225614 I I #
edge $-1 $387 -41.643116550187692 $210 -26.072477329337765 $298 $388 forward 7 unknown #
point $-1 -26.072477329337765 -17.694289471265396 4.4496275290147667 #
point $-1 -26.072477329337765 -14.582932600820717 4.4496275290147675 #
edge $-1 $389 1 $389 0 $213 $-1 forward 7 unknown #
vertex $-1 $214 $390 #
ellipse-curve $-1 -33.857796939762729 -14.86657911994913 1.4984534935516298 0 -0.77714596973225614 0.62932038083071107 0.5 0 0 1 I I #
point $-1 -33.357796939762729 -16.13861103604307 2.5285246012237859 #
loop $-1 $-1 $225 $217 #
plane-surface $-1 0 17.694289471265396 0 0 -1 0 0 0 -1 forward_v I I I I #
coedge $-1 $313 $220 $222 $317 reversed $137 $-1 #
coedge $-1 $220 $312 $391 $392 reversed $137 $-1 #
coedge $-1 $228 $223 $220 $315 forward $218 $-1 #
edge $-1 $318 -18.692072222646676 $393 -15.782042966505909 $314 $394 forward 7 unknown #
coedge $-1 $222 $221 $321 $395 reversed $86 $-1 #
edge $-1 $396 -35.38857894253082 $318 -30.184597811203822 $312 $397 forward 7 unknown #
vertex $-1 $224 $398 #
straight-curve $-1 -16.923141986535533 14.784260215124631 4.4496275290147658 1 0 0 I I #
coedge $-1 $391 $225 $228 $325 reversed $310 $-1 #
coedge $-1 $225 $391 $316 $395 forward $310 $-1 #
vertex $-1 $226 $399 #
straight-curve $-1 -39.050497972436013 17.694289471265396 38.023431490130093 0 0 1 I I #
straight-curve $-1 -39.050497972436013 -2.0947523137019886 29.473793470676931 0 0.55919289150049634 -0.82903758062907751 I I #
edge $-1 $393 28.642069973706121 $229 39.050497972436013 $320 $400 forward 7 unknown #
point $-1 -39.050497972436013 17.694289471265396 4.4496275290147667 #
point $-1 -39.050497972436013 14.784260215124629 4.4496275290147658 #
edge $-1 $401 1 $401 0 $232 $-1 forward 7 unknown #
vertex $-1 $233 $402 #
ellipse-curve $-1 -36.07666140137033 13.01876226764297 0.12021647248531425 0 0.82903758062907751 0.55919289150049634 1 0 0 1 I I #
point $-1 -35.07666140137033 16.23927484319502 2.2924795656374237 #
edge $-1 $403 1 $403 0 $236 $-1 forward 7 unknown #
vertex $-1 $237 $404 #
ellipse-curve $-1 -31.615906544771804 13.01876226764297 0.12021647248531425 0 0.82903758062907751 0.55919289150049634 1 0 0 1 I I #
point $-1 -30.615906544771804 16.23927484319502 2.2924795656374237 #
loop $-1 $-1 $248 $240 #
plane-surface $-1 0 17.694289471265396 0 0 -1 0 0 0 -1 forward_v I I I I #
coedge $-1 $339 $243 $245 $343 reversed $159 $-1 #
coedge $-1 $243 $338 $405 $406 reversed $159 $-1 #
coedge $-1 $251 $246 $243 $341 forward $241 $-1 #
edge $-1 $344 -18.692072222646676 $407 -15.782042966505909 $340 $408 forward 7 unknown #
coedge $-1 $245 $244 $347 $409 reversed $100 $-1 #
edge $-1 $410 -35.38857894253082 $344 -30.184597811203822 $338 $411 forward 7 unknown #
vertex $-1 $247 $412 #
straight-curve $-1 3.8984162885583125 14.784260215124631 4.4496275290147658 1 0 0 I I #
coedge $-1 $405 $248 $251 $351 reversed $336 $-1 #
coedge $-1 $248 $405 $342 $409 forward $336 $-1 #
vertex $-1 $249 $413 #
straight-curve $-1 2.592618577751681 17.694289471265396 38.023431490130093 0 0 1 I I #
straight-curve $-1 2.592618577751681 -2.0947523137019886 29.473793470676931 0 0.55919289150049634 -0.82903758062907751 I I #
edge $-1 $407 -13.001046576481569 $252 -2.592618577751681 $346 $414 forward 7 unknown #
point $-1 2.592618577751681 17.694289471265396 4.4496275290147667 #
point $-1 2.592618577751681 14.784260215124629 4.4496275290147658 #
edge $-1 $415 1 $415 0 $255 $-1 forward 7 unknown #
vertex $-1 $256 $416 #
ellipse-curve $-1 5.5664551488173615 13.01876226764297 0.12021647248531425 0 0.82903758062907751 0.55919289150049634 1 0 0 1 I I #
point $-1 6.5664551488173615 16.23927484319502 2.2924795656374237 #
edge $-1 $417 1 $417 0 $259 $-1 forward 7 unknown #
vertex $-1 $260 $418 #
ellipse-curve $-1 10.027210005415888 13.01876226764297 0.12021647248531425 0 0.82903758062907751 0.55919289150049634 1 0 0 1 I I #
point $-1 11.027210005415888 16.23927484319502 2.2924795656374237 #
plane-surface $-1 41.643116550187692 0 0 -1 0 0 0 0 1 forward_v I I I I #
coedge $-1 $268 $266 $270 $367 reversed $181 $-1 #
edge $-1 $281 -4.4496275290147667 $369 4.4496275290147667 $280 $419 forward 7 unknown #
vertex $-1 $367 $420 #
straight-curve $-1 -41.643116550187692 -17.694289471265396 0 0 0 -1 I I #
edge $-1 $365 -17.694289471265396 $369 17.694289471265396 $363 $421 forward 7 unknown #
straight-curve $-1 0 -17.694289471265396 -4.4496275290147667 -1 0 0 I I #
vertex $-1 $273 $422 #
straight-curve $-1 0 17.694289471265396 -4.4496275290147667 1 0 0 I I #
point $-1 41.643116550187692 17.694289471265396 -4.4496275290147667 #
point $-1 41.643116550187692 -17.694289471265396 -4.4496275290147667 #
straight-curve $-1 -41.643116550187692 0 4.4496275290147667 0 -1 0 I I #
point $-1 -41.643116550187692 17.694289471265396 4.4496275290147667 #
point $-1 -41.643116550187692 -17.694289471265396 4.4496275290147667 #
straight-curve $-1 41.643116550187692 -17.694289471265396 0 0 0 -1 I I #
straight-curve $-1 41.643116550187692 17.694289471265396 0 0 0 -1 I I #
coedge $-1 $379 $292 $385 $423 reversed $200 $-1 #
coedge $-1 $292 $378 $295 $383 reversed $200 $-1 #
edge $-1 $381 -24.714218080306328 $300 -9.1435788594564009 $299 $424 forward 7 unknown #
vertex $-1 $294 $425 #
straight-curve $-1 -41.643116550187692 -14.338966639985447 4.7509004084418045 0 -0.62932038083071107 -0.77714596973225614 I I #
edge $-1 $296 14.582932600820717 $387 17.694289471265396 $379 $426 forward 7 unknown #
point $-1 -41.643116550187692 -14.582932600820717 4.4496275290147675 #
coedge $-1 $299 $298 $378 $423 forward $290 $-1 #
point $-1 -26.072477329337765 -17.694289471265396 0.6074216734327742 #
vertex $-1 $383 $427 #
straight-curve $-1 0 -17.694289471265396 4.4496275290147667 1 0 0 I I #
vertex $-1 $306 $428 #
point $-1 -33.357796939762729 -14.86657911994913 1.4984534935516298 #
coedge $-1 $321 $320 $313 $392 forward $310 $-1 #
edge $-1 $393 33.573803961115324 $396 37.888099887870027 $391 $429 forward 7 unknown #
vertex $-1 $325 $430 #
straight-curve $-1 -28.642069973706121 33.476332437771305 4.4496275290147693 0 1 0 I I #
edge $-1 $396 11.718927987170588 $322 22.127355985900479 $321 $431 forward 7 unknown #
vertex $-1 $395 $432 #
straight-curve $-1 -28.642069973706121 -2.0947523137019886 29.473793470676931 0 -0.55919289150049634 0.82903758062907751 I I #
point $-1 -28.642069973706121 14.784260215124629 4.4496275290147658 #
point $-1 -39.050497972436013 17.6942894712654 0.13533160226006302 #
straight-curve $-1 0 17.694289471265396 4.4496275290147667 -1 0 0 I I #
vertex $-1 $328 $433 #
point $-1 -35.07666140137033 13.01876226764297 0.12021647248531425 #
vertex $-1 $332 $434 #
point $-1 -30.615906544771804 13.01876226764297 0.12021647248531425 #
coedge $-1 $347 $346 $339 $406 forward $336 $-1 #
edge $-1 $407 33.573803961115324 $410 37.888099887870027 $405 $435 forward 7 unknown #
vertex $-1 $351 $436 #
straight-curve $-1 13.001046576481569 33.476332437771305 4.4496275290147693 0 1 0 I I #
edge $-1 $410 -9.1026302879232563 $348 1.3057977108066314 $347 $437 forward 7 unknown #
vertex $-1 $409 $438 #
straight-curve $-1 13.001046576481569 -2.0947523137019886 29.473793470676931 0 -0.55919289150049634 0.82903758062907751 I I #
point $-1 13.001046576481569 14.784260215124629 4.4496275290147658 #
point $-1 2.592618577751681 17.6942894712654 0.13533160226006302 #
straight-curve $-1 0 17.694289471265396 4.4496275290147667 -1 0 0 I I #
vertex $-1 $354 $439 #
point $-1 6.5664551488173615 13.01876226764297 0.12021647248531425 #
vertex $-1 $358 $440 #
point $-1 11.027210005415888 13.01876226764297 0.12021647248531425 #
straight-curve $-1 -41.643116550187692 17.694289471265396 0 0 0 -1 I I #
point $-1 -41.643116550187692 -17.694289471265396 -4.4496275290147667 #
straight-curve $-1 -41.643116550187692 0 -4.4496275290147667 0 1 0 I I #
point $-1 -41.643116550187692 17.694289471265396 -4.4496275290147667 #
edge $-1 $387 -4.4496275290147667 $381 -0.6074216734327742 $378 $441 forward 7 unknown #
straight-curve $-1 -16.928898469881364 -17.694289471265396 0.60742167343277087 1 0 0 I I #
point $-1 -41.643116550187692 -17.694289471265396 0.6074216734327742 #
straight-curve $-1 -41.643116550187692 0 4.4496275290147667 0 -1 0 I I #
point $-1 -41.643116550187692 -17.694289471265396 4.4496275290147667 #
point $-1 -33.857796939762729 -14.478006135083003 1.1837933031362744 #
straight-curve $-1 -28.642069973706121 17.694289471265396 38.023431490130093 0 0 -1 I I #
point $-1 -28.642069973706121 17.694289471265396 4.4496275290147667 #
straight-curve $-1 -16.923141986535533 17.6942894712654 0.13533160226006302 -1 0 0 I I #
point $-1 -28.642069973706121 17.6942894712654 0.13533160226006302 #
point $-1 -36.07666140137033 12.189724687013893 -0.43897641901518208 #
point $-1 -31.615906544771804 12.189724687013893 -0.43897641901518208 #
straight-curve $-1 13.001046576481569 17.694289471265396 38.023431490130093 0 0 -1 I I #
point $-1 13.001046576481569 17.694289471265396 4.4496275290147667 #
straight-curve $-1 3.8984162885583125 17.6942894712654 0.13533160226006302 -1 0 0 I I #
point $-1 13.001046576481569 17.6942894712654 0.13533160226006302 #
point $-1 5.5664551488173615 12.189724687013893 -0.43897641901518208 #
point $-1 10.027210005415888 12.189724687013893 -0.43897641901518208 #
straight-curve $-1 -41.643116550187692 -17.694289471265396 0 0 0 -1 I I #
End-of-ACIS-data 