500 0 10 0           
7 Unknown 11 ACIS 5.0 NT 24 Thu Mar 25 18:30:08 1999 
-1 9.9999999999999995e-007 1e-010 
body $-1 $10 $-1 $11 #
body $-1 $12 $-1 $13 #
body $-1 $14 $-1 $15 #
body $-1 $16 $-1 $17 #
body $-1 $18 $-1 $19 #
body $-1 $20 $-1 $21 #
body $-1 $22 $-1 $23 #
body $-1 $24 $-1 $25 #
body $-1 $26 $-1 $27 #
body $-1 $28 $-1 $29 #
lump $-1 $-1 $30 $0 #
transform $-1 1 0 0 0 1 0 0 0 1 53.546555986205632 27.971771726440725 13.390972452894225 1 rotate no_reflect no_shear #
lump $-1 $-1 $31 $1 #
transform $-1 1 0 0 0 1 0 0 0 1 53.546555986205632 27.971771726440725 13.390972452894225 1 rotate no_reflect no_shear #
lump $-1 $-1 $32 $2 #
transform $-1 1 0 0 0 1 0 0 0 1 53.546555986205632 27.971771726440725 13.390972452894225 1 rotate no_reflect no_shear #
lump $-1 $-1 $33 $3 #
transform $-1 1 0 0 0 1 0 0 0 1 53.546555986205632 27.971771726440725 13.390972452894225 1 rotate no_reflect no_shear #
lump $-1 $-1 $34 $4 #
transform $-1 1 0 0 0 1 0 0 0 1 53.546555986205632 27.971771726440725 13.390972452894225 1 rotate no_reflect no_shear #
lump $-1 $-1 $35 $5 #
transform $-1 1 0 0 0 1 0 0 0 1 53.546555986205632 27.971771726440725 13.390972452894225 1 rotate no_reflect no_shear #
lump $-1 $-1 $36 $6 #
transform $-1 1 0 0 0 1 0 0 0 1 53.546555986205632 27.971771726440725 13.390972452894225 1 rotate no_reflect no_shear #
lump $-1 $-1 $37 $7 #
transform $-1 1 0 0 0 1 0 0 0 1 53.546555986205632 27.971771726440725 13.390972452894225 1 rotate no_reflect no_shear #
lump $-1 $-1 $38 $8 #
transform $-1 1 0 0 0 1 0 0 0 1 53.546555986205632 27.971771726440725 13.390972452894225 1 rotate no_reflect no_shear #
lump $-1 $-1 $39 $9 #
transform $-1 1 0 0 0 1 0 0 0 1 53.546555986205632 27.971771726440725 13.390972452894225 1 rotate no_reflect no_shear #
shell $-1 $-1 $-1 $40 $-1 $10 #
shell $-1 $-1 $-1 $41 $-1 $12 #
shell $-1 $-1 $-1 $42 $-1 $14 #
shell $-1 $-1 $-1 $43 $-1 $16 #
shell $-1 $-1 $-1 $44 $-1 $18 #
shell $-1 $-1 $-1 $45 $-1 $20 #
shell $-1 $-1 $-1 $46 $-1 $22 #
shell $-1 $-1 $-1 $47 $-1 $24 #
shell $-1 $-1 $-1 $48 $-1 $26 #
shell $-1 $-1 $-1 $49 $-1 $28 #
face $-1 $50 $51 $30 $-1 $52 forward single #
face $-1 $53 $54 $31 $-1 $55 forward single #
face $-1 $56 $57 $32 $-1 $58 reversed single #
face $-1 $59 $60 $33 $-1 $61 forward single #
face $-1 $62 $63 $34 $-1 $64 forward single #
face $-1 $65 $66 $35 $-1 $67 forward single #
face $-1 $68 $69 $36 $-1 $70 reversed single #
face $-1 $71 $72 $37 $-1 $73 forward single #
face $-1 $74 $75 $38 $-1 $76 forward single #
face $-1 $77 $78 $39 $-1 $79 forward single #
face $-1 $80 $81 $30 $-1 $82 reversed single #
loop $-1 $-1 $83 $40 #
plane-surface $-1 0 0 13.390972452894225 0 0 1 1 0 0 forward_v I I I I #
face $-1 $84 $85 $31 $-1 $86 reversed single #
loop $-1 $-1 $87 $41 #
plane-surface $-1 -53.546555986205632 0 0 1 0 0 0 0 -1 forward_v I I I I #
face $-1 $88 $89 $32 $-1 $90 reversed single #
loop $-1 $-1 $91 $42 #
plane-surface $-1 24.648051928098866 -12.299664095935771 148.80818507407164 0 -1 0 -0.55919291073839883 0 -0.82903756765294845 forward_v I I I I #
face $-1 $92 $93 $33 $-1 $94 forward single #
loop $-1 $95 $96 $43 #
cone-surface $-1 43.265347615009311 -19.498232604235874 6.0867409328098994 -0.55919291073839883 0 -0.82903756765294845 0.41451878382647422 0 -0.27959645536919941 1 I I 0 1 0.5 forward I I I I #
face $-1 $97 $98 $34 $-1 $99 forward single #
loop $-1 $100 $101 $44 #
cone-surface $-1 43.265347615009311 -16.798769413623337 6.0867409328098994 -0.55919291073839883 0 -0.82903756765294845 0.41451878382647422 0 -0.27959645536919941 1 I I 0 1 0.5 forward I I I I #
face $-1 $102 $103 $35 $-1 $104 forward single #
loop $-1 $105 $106 $45 #
cone-surface $-1 43.265347615009311 -14.099306223010798 6.0867409328098994 -0.55919291073839883 0 -0.82903756765294845 0.41451878382647422 0 -0.27959645536919941 1 I I 0 1 0.5 forward I I I I #
face $-1 $107 $108 $36 $-1 $109 reversed single #
loop $-1 $-1 $110 $46 #
plane-surface $-1 24.648051928098866 15.67210763050495 148.80818507407164 0 -1 0 -0.55919291073839883 0 -0.82903756765294845 forward_v I I I I #
face $-1 $111 $112 $37 $-1 $113 forward single #
loop $-1 $114 $115 $47 #
cone-surface $-1 43.265347615009311 8.4735391222048513 6.0867409328098994 -0.55919291073839883 0 -0.82903756765294845 0.41451878382647422 0 -0.27959645536919941 1 I I 0 1 0.5 forward I I I I #
face $-1 $116 $117 $38 $-1 $118 forward single #
loop $-1 $119 $120 $48 #
cone-surface $-1 43.265347615009311 11.173002312817385 6.0867409328098994 -0.55919291073839883 0 -0.82903756765294845 0.41451878382647422 0 -0.27959645536919941 1 I I 0 1 0.5 forward I I I I #
face $-1 $121 $122 $39 $-1 $123 forward single #
loop $-1 $124 $125 $49 #
cone-surface $-1 43.265347615009311 13.872465503429925 6.0867409328098994 -0.55919291073839883 0 -0.82903756765294845 0.41451878382647422 0 -0.27959645536919941 1 I I 0 1 0.5 forward I I I I #
face $-1 $126 $127 $30 $-1 $128 reversed single #
loop $-1 $-1 $129 $50 #
plane-surface $-1 0 0 -13.390972452894225 0 0 1 1 0 0 forward_v I I I I #
coedge $-1 $130 $131 $132 $133 forward $51 $-1 #
face $-1 $134 $135 $31 $-1 $136 reversed single #
loop $-1 $-1 $137 $53 #
plane-surface $-1 0 27.971771726440725 0 0 -1 0 0 0 -1 forward_v I I I I #
coedge $-1 $138 $139 $140 $141 forward $54 $-1 #
face $-1 $142 $143 $32 $-1 $144 reversed single #
loop $-1 $-1 $145 $56 #
plane-surface $-1 -35.237657075787055 -16.798769413623337 60.023972012078957 0.55919291073839883 0 0.82903756765294845 0.82903756765294845 0 -0.55919291073839883 forward_v I I I I #
coedge $-1 $146 $147 $148 $149 reversed $57 $-1 #
face $-1 $-1 $150 $33 $-1 $151 forward single #
loop $-1 $152 $153 $59 #
cone-surface $-1 42.668315705237291 -19.498232604235874 5.2016047431629175 -0.55919291073839883 0 -0.82903756765294845 0.20725939191323711 0 -0.13979822768459971 1 I I -0.70710678118654746 0.70710678118654746 0.25 forward I I I I #
loop $-1 $-1 $154 $43 #
coedge $-1 $96 $96 $155 $156 reversed $60 $-1 #
face $-1 $-1 $157 $34 $-1 $158 forward single #
loop $-1 $159 $160 $62 #
cone-surface $-1 42.668315705237291 -16.798769413623337 5.2016047431629175 -0.55919291073839883 0 -0.82903756765294845 0.20725939191323711 0 -0.13979822768459971 1 I I -0.70710678118654746 0.70710678118654746 0.25 forward I I I I #
loop $-1 $-1 $161 $44 #
coedge $-1 $101 $101 $162 $163 reversed $63 $-1 #
face $-1 $-1 $164 $35 $-1 $165 forward single #
loop $-1 $166 $167 $65 #
cone-surface $-1 42.668315705237291 -14.099306223010798 5.2016047431629175 -0.55919291073839883 0 -0.82903756765294845 0.20725939191323711 0 -0.13979822768459971 1 I I -0.70710678118654746 0.70710678118654746 0.25 forward I I I I #
loop $-1 $-1 $168 $45 #
coedge $-1 $106 $106 $169 $170 reversed $66 $-1 #
face $-1 $171 $172 $36 $-1 $173 reversed single #
loop $-1 $-1 $174 $68 #
plane-surface $-1 -35.237657075787055 11.173002312817385 60.023972012078957 0.55919291073839883 0 0.82903756765294845 0.82903756765294845 0 -0.55919291073839883 forward_v I I I I #
coedge $-1 $175 $176 $177 $178 reversed $69 $-1 #
face $-1 $-1 $179 $37 $-1 $180 forward single #
loop $-1 $181 $182 $71 #
cone-surface $-1 42.668315705237291 8.4735391222048513 5.2016047431629175 -0.55919291073839883 0 -0.82903756765294845 0.20725939191323711 0 -0.13979822768459971 1 I I -0.70710678118654746 0.70710678118654746 0.25 forward I I I I #
loop $-1 $-1 $183 $47 #
coedge $-1 $115 $115 $184 $185 reversed $72 $-1 #
face $-1 $-1 $186 $38 $-1 $187 forward single #
loop $-1 $188 $189 $74 #
cone-surface $-1 42.668315705237291 11.173002312817385 5.2016047431629175 -0.55919291073839883 0 -0.82903756765294845 0.20725939191323711 0 -0.13979822768459971 1 I I -0.70710678118654746 0.70710678118654746 0.25 forward I I I I #
loop $-1 $-1 $190 $48 #
coedge $-1 $120 $120 $191 $192 reversed $75 $-1 #
face $-1 $-1 $193 $39 $-1 $194 forward single #
loop $-1 $195 $196 $77 #
cone-surface $-1 42.668315705237291 13.872465503429925 5.2016047431629175 -0.55919291073839883 0 -0.82903756765294845 0.20725939191323711 0 -0.13979822768459971 1 I I -0.70710678118654746 0.70710678118654746 0.25 forward I I I I #
loop $-1 $-1 $197 $49 #
coedge $-1 $125 $125 $198 $199 reversed $78 $-1 #
face $-1 $200 $201 $30 $-1 $202 reversed single #
loop $-1 $-1 $203 $80 #
plane-surface $-1 0 -27.971771726440725 0 0 1 0 0 0 1 forward_v I I I I #
coedge $-1 $204 $205 $206 $207 forward $81 $-1 #
coedge $-1 $208 $83 $209 $210 forward $51 $-1 #
coedge $-1 $83 $208 $211 $212 forward $51 $-1 #
coedge $-1 $213 $214 $83 $133 reversed $215 $-1 #
edge $-1 $216 -27.971771726440725 $217 27.971771726440725 $132 $218 forward 7 unknown #
face $-1 $219 $220 $31 $-1 $221 reversed single #
loop $-1 $-1 $140 $84 #
plane-surface $-1 -58.443527580896145 0 6.8791027895467352 0 0 1 1 0 0 forward_v I I I I #
coedge $-1 $222 $223 $138 $224 forward $85 $-1 #
coedge $-1 $225 $87 $137 $224 reversed $54 $-1 #
coedge $-1 $87 $225 $226 $227 reversed $54 $-1 #
coedge $-1 $228 $229 $87 $141 reversed $135 $-1 #
edge $-1 $230 -27.971771726440725 $231 27.971771726440725 $140 $232 forward 7 unknown #
face $-1 $233 $234 $32 $-1 $235 forward single #
loop $-1 $-1 $236 $88 #
plane-surface $-1 24.648051928098866 -21.297874731310902 148.80818507407164 0 1 0 0.55919291073839883 0 0.82903756765294845 forward_v I I I I #
coedge $-1 $237 $238 $239 $240 reversed $89 $-1 #
coedge $-1 $147 $91 $241 $242 reversed $57 $-1 #
coedge $-1 $91 $146 $237 $243 reversed $57 $-1 #
coedge $-1 $239 $244 $91 $149 forward $234 $-1 #
edge $-1 $245 -41.222530022156199 $246 -21.574580643938383 $148 $247 forward 7 unknown #
loop $-1 $-1 $155 $92 #
plane-surface $-1 -35.237657075787055 -16.798769413623337 60.023972012078957 0.55919291073839883 0 0.82903756765294845 0.82903756765294845 0 -0.55919291073839883 forward_v I I I I #
loop $-1 $-1 $248 $59 #
coedge $-1 $153 $153 $154 $249 reversed $93 $-1 #
coedge $-1 $154 $154 $153 $249 forward $95 $-1 #
coedge $-1 $155 $155 $96 $156 forward $150 $-1 #
edge $-1 $250 0 $250 6.2831853071796004 $155 $251 forward 7 unknown #
loop $-1 $-1 $162 $97 #
plane-surface $-1 -35.237657075787055 -16.798769413623337 60.023972012078957 0.55919291073839883 0 0.82903756765294845 0.82903756765294845 0 -0.55919291073839883 forward_v I I I I #
loop $-1 $-1 $252 $62 #
coedge $-1 $160 $160 $161 $253 reversed $98 $-1 #
coedge $-1 $161 $161 $160 $253 forward $100 $-1 #
coedge $-1 $162 $162 $101 $163 forward $157 $-1 #
edge $-1 $254 0 $254 6.2831853071796004 $162 $255 forward 7 unknown #
loop $-1 $-1 $169 $102 #
plane-surface $-1 -35.237657075787055 -16.798769413623337 60.023972012078957 0.55919291073839883 0 0.82903756765294845 0.82903756765294845 0 -0.55919291073839883 forward_v I I I I #
loop $-1 $-1 $256 $65 #
coedge $-1 $167 $167 $168 $257 reversed $103 $-1 #
coedge $-1 $168 $168 $167 $257 forward $105 $-1 #
coedge $-1 $169 $169 $106 $170 forward $164 $-1 #
edge $-1 $258 0 $258 6.2831853071796004 $169 $259 forward 7 unknown #
face $-1 $260 $261 $36 $-1 $262 reversed single #
loop $-1 $-1 $263 $107 #
plane-surface $-1 24.648051928098866 6.6738969951298195 148.80818507407164 0 1 0 0.55919291073839883 0 0.82903756765294845 forward_v I I I I #
coedge $-1 $264 $265 $266 $267 reversed $108 $-1 #
coedge $-1 $176 $110 $268 $269 reversed $69 $-1 #
coedge $-1 $110 $175 $264 $270 reversed $69 $-1 #
coedge $-1 $266 $271 $110 $178 forward $272 $-1 #
edge $-1 $273 -41.222530022156199 $274 -21.574580643938383 $177 $275 forward 7 unknown #
loop $-1 $-1 $184 $111 #
plane-surface $-1 -35.237657075787055 11.173002312817385 60.023972012078957 0.55919291073839883 0 0.82903756765294845 0.82903756765294845 0 -0.55919291073839883 forward_v I I I I #
loop $-1 $-1 $276 $71 #
coedge $-1 $182 $182 $183 $277 reversed $112 $-1 #
coedge $-1 $183 $183 $182 $277 forward $114 $-1 #
coedge $-1 $184 $184 $115 $185 forward $179 $-1 #
edge $-1 $278 0 $278 6.2831853071796004 $184 $279 forward 7 unknown #
loop $-1 $-1 $191 $116 #
plane-surface $-1 -35.237657075787055 11.173002312817385 60.023972012078957 0.55919291073839883 0 0.82903756765294845 0.82903756765294845 0 -0.55919291073839883 forward_v I I I I #
loop $-1 $-1 $280 $74 #
coedge $-1 $189 $189 $190 $281 reversed $117 $-1 #
coedge $-1 $190 $190 $189 $281 forward $119 $-1 #
coedge $-1 $191 $191 $120 $192 forward $186 $-1 #
edge $-1 $282 0 $282 6.2831853071796004 $191 $283 forward 7 unknown #
loop $-1 $-1 $198 $121 #
plane-surface $-1 -35.237657075787055 11.173002312817385 60.023972012078957 0.55919291073839883 0 0.82903756765294845 0.82903756765294845 0 -0.55919291073839883 forward_v I I I I #
loop $-1 $-1 $284 $77 #
coedge $-1 $196 $196 $197 $285 reversed $122 $-1 #
coedge $-1 $197 $197 $196 $285 forward $124 $-1 #
coedge $-1 $198 $198 $125 $199 forward $193 $-1 #
edge $-1 $286 0 $286 6.2831853071796004 $198 $287 forward 7 unknown #
face $-1 $288 $289 $30 $-1 $290 reversed single #
loop $-1 $-1 $291 $126 #
plane-surface $-1 -53.546555986205632 0 0 1 0 0 0 0 -1 forward_v I I I I #
coedge $-1 $292 $211 $293 $294 forward $127 $-1 #
coedge $-1 $295 $129 $292 $296 forward $81 $-1 #
coedge $-1 $129 $295 $297 $298 forward $81 $-1 #
coedge $-1 $214 $213 $129 $207 reversed $215 $-1 #
edge $-1 $299 -27.971771726440725 $300 27.971771726440725 $206 $301 forward 7 unknown #
coedge $-1 $131 $130 $302 $303 forward $51 $-1 #
coedge $-1 $304 $305 $130 $210 reversed $289 $-1 #
edge $-1 $217 -53.546555986205632 $306 53.546555986205632 $209 $307 forward 7 unknown #
coedge $-1 $203 $308 $131 $212 reversed $127 $-1 #
edge $-1 $309 -53.546555986205632 $216 53.546555986205632 $211 $310 forward 7 unknown #
coedge $-1 $206 $132 $308 $311 forward $215 $-1 #
coedge $-1 $132 $206 $304 $312 reversed $215 $-1 #
loop $-1 $-1 $213 $288 #
vertex $-1 $133 $313 #
vertex $-1 $133 $314 #
straight-curve $-1 53.546555986205632 0 13.390972452894225 0 1 0 I I #
face $-1 $315 $316 $31 $-1 $317 forward single #
loop $-1 $-1 $318 $134 #
plane-surface $-1 -63.340499175586658 0 10.13503762122048 1 0 0 0 0 -1 forward_v I I I I #
coedge $-1 $319 $137 $229 $320 reversed $85 $-1 #
coedge $-1 $137 $319 $321 $322 reversed $85 $-1 #
edge $-1 $323 -13.390972452894225 $231 -6.8791027895467352 $137 $324 forward 7 unknown #
coedge $-1 $139 $138 $325 $326 reversed $54 $-1 #
coedge $-1 $327 $328 $139 $227 forward $329 $-1 #
edge $-1 $230 6.8791027895467352 $330 13.390972452894225 $226 $331 forward 7 unknown #
coedge $-1 $332 $140 $328 $333 forward $135 $-1 #
coedge $-1 $140 $332 $222 $320 forward $135 $-1 #
vertex $-1 $227 $334 #
vertex $-1 $224 $335 #
straight-curve $-1 -53.546555986205632 0 6.8791027895467352 0 1 0 I I #
face $-1 $-1 $336 $32 $-1 $337 reversed single #
loop $-1 $-1 $148 $142 #
plane-surface $-1 0 0 13.390972452894225 0 0 1 1 0 0 forward_v I I I I #
coedge $-1 $338 $339 $340 $341 reversed $143 $-1 #
coedge $-1 $342 $145 $147 $243 forward $89 $-1 #
coedge $-1 $145 $342 $338 $343 forward $89 $-1 #
coedge $-1 $340 $148 $145 $240 forward $234 $-1 #
edge $-1 $246 3.900279389124103 $344 12.898490024499234 $239 $345 forward 7 unknown #
coedge $-1 $346 $347 $146 $242 forward $336 $-1 #
edge $-1 $348 -74.265829528842787 $245 -61.013120084141597 $241 $349 forward 7 unknown #
edge $-1 $246 83.393402640972567 $348 107.09311197241125 $147 $350 forward 7 unknown #
coedge $-1 $148 $340 $346 $351 forward $234 $-1 #
vertex $-1 $242 $352 #
vertex $-1 $149 $353 #
straight-curve $-1 12.324025964049433 -12.299664095935771 13.390972452894218 -1 0 0 I I #
coedge $-1 $248 $248 $-1 $354 reversed $152 $-1 #
edge $-1 $355 0 $355 6.2831853071796004 $153 $356 forward 7 unknown #
vertex $-1 $156 $357 #
ellipse-curve $-1 43.722581297096724 -19.498232604235874 6.7646177305436312 0.55919291073839883 0 0.82903756765294845 0.41451878382647422 0 -0.27959645536919941 1 I I #
coedge $-1 $252 $252 $-1 $358 reversed $159 $-1 #
edge $-1 $359 0 $359 6.2831853071796004 $160 $360 forward 7 unknown #
vertex $-1 $163 $361 #
ellipse-curve $-1 43.722581297096724 -16.798769413623337 6.7646177305436312 0.55919291073839883 0 0.82903756765294845 0.41451878382647422 0 -0.27959645536919941 1 I I #
coedge $-1 $256 $256 $-1 $362 reversed $166 $-1 #
edge $-1 $363 0 $363 6.2831853071796004 $167 $364 forward 7 unknown #
vertex $-1 $170 $365 #
ellipse-curve $-1 43.722581297096724 -14.099306223010798 6.7646177305436312 0.55919291073839883 0 0.82903756765294845 0.41451878382647422 0 -0.27959645536919941 1 I I #
face $-1 $-1 $272 $36 $-1 $366 forward single #
loop $-1 $-1 $367 $171 #
plane-surface $-1 53.546555986205632 0 0 -1 0 0 0 0 1 forward_v I I I I #
coedge $-1 $368 $369 $370 $371 reversed $172 $-1 #
coedge $-1 $372 $174 $176 $270 forward $108 $-1 #
coedge $-1 $174 $372 $368 $373 forward $108 $-1 #
coedge $-1 $370 $177 $174 $267 forward $272 $-1 #
edge $-1 $274 -10.085606474096258 $374 -1.0873958387211271 $266 $375 forward 7 unknown #
coedge $-1 $376 $377 $175 $269 forward $261 $-1 #
edge $-1 $378 -74.265829528842787 $273 -61.013120084141597 $268 $379 forward 7 unknown #
edge $-1 $274 83.393402640972567 $378 107.09311197241125 $176 $380 forward 7 unknown #
coedge $-1 $177 $370 $376 $381 forward $272 $-1 #
loop $-1 $-1 $370 $260 #
vertex $-1 $269 $382 #
vertex $-1 $178 $383 #
straight-curve $-1 12.324025964049433 15.67210763050495 13.390972452894218 -1 0 0 I I #
coedge $-1 $276 $276 $-1 $384 reversed $181 $-1 #
edge $-1 $385 0 $385 6.2831853071796004 $182 $386 forward 7 unknown #
vertex $-1 $185 $387 #
ellipse-curve $-1 43.722581297096724 8.4735391222048513 6.7646177305436312 0.55919291073839883 0 0.82903756765294845 0.41451878382647422 0 -0.27959645536919941 1 I I #
coedge $-1 $280 $280 $-1 $388 reversed $188 $-1 #
edge $-1 $389 0 $389 6.2831853071796004 $189 $390 forward 7 unknown #
vertex $-1 $192 $391 #
ellipse-curve $-1 43.722581297096724 11.173002312817385 6.7646177305436312 0.55919291073839883 0 0.82903756765294845 0.41451878382647422 0 -0.27959645536919941 1 I I #
coedge $-1 $284 $284 $-1 $392 reversed $195 $-1 #
edge $-1 $393 0 $393 6.2831853071796004 $196 $394 forward 7 unknown #
vertex $-1 $199 $395 #
ellipse-curve $-1 43.722581297096724 13.872465503429925 6.7646177305436312 0.55919291073839883 0 0.82903756765294845 0.41451878382647422 0 -0.27959645536919941 1 I I #
face $-1 $-1 $215 $30 $-1 $396 reversed single #
loop $-1 $-1 $304 $200 #
plane-surface $-1 0 27.971771726440725 0 0 -1 0 0 0 -1 forward_v I I I I #
coedge $-1 $397 $302 $305 $398 forward $201 $-1 #
coedge $-1 $308 $203 $204 $296 reversed $127 $-1 #
coedge $-1 $302 $397 $203 $294 reversed $201 $-1 #
edge $-1 $309 -13.390972452894225 $399 13.390972452894225 $293 $400 forward 7 unknown #
coedge $-1 $205 $204 $397 $401 forward $81 $-1 #
edge $-1 $300 -53.546555986205632 $399 53.546555986205632 $292 $402 forward 7 unknown #
coedge $-1 $305 $304 $205 $298 reversed $289 $-1 #
edge $-1 $403 -53.546555986205632 $299 53.546555986205632 $297 $404 forward 7 unknown #
vertex $-1 $207 $405 #
vertex $-1 $311 $406 #
straight-curve $-1 53.546555986205632 0 -13.390972452894225 0 -1 0 I I #
coedge $-1 $291 $293 $208 $303 reversed $201 $-1 #
edge $-1 $306 -27.971771726440725 $309 27.971771726440725 $302 $407 forward 7 unknown #
coedge $-1 $297 $209 $214 $312 forward $289 $-1 #
coedge $-1 $209 $297 $291 $398 reversed $289 $-1 #
vertex $-1 $210 $408 #
straight-curve $-1 0 27.971771726440725 13.390972452894225 -1 0 0 I I #
coedge $-1 $211 $292 $213 $311 reversed $127 $-1 #
vertex $-1 $303 $409 #
straight-curve $-1 0 -27.971771726440725 13.390972452894225 1 0 0 I I #
edge $-1 $216 -13.390972452894225 $300 13.390972452894225 $213 $410 forward 7 unknown #
edge $-1 $217 -13.390972452894225 $299 13.390972452894225 $214 $411 forward 7 unknown #
point $-1 53.546555986205632 -27.971771726440725 13.390972452894225 #
point $-1 53.546555986205632 27.971771726440725 13.390972452894225 #
face $-1 $-1 $329 $31 $-1 $412 reversed single #
loop $-1 $-1 $325 $219 #
plane-surface $-1 0 0 13.390972452894225 0 0 1 1 0 0 forward_v I I I I #
coedge $-1 $413 $414 $319 $415 forward $220 $-1 #
coedge $-1 $223 $222 $318 $415 reversed $85 $-1 #
edge $-1 $416 -4.8969715946905126 $231 4.8969715946905126 $222 $417 forward 7 unknown #
coedge $-1 $418 $325 $223 $322 forward $316 $-1 #
edge $-1 $323 53.546555986205632 $419 63.340499175586658 $223 $420 forward 7 unknown #
vertex $-1 $322 $421 #
straight-curve $-1 -53.546555986205632 27.971771726440725 0 0 0 -1 I I #
coedge $-1 $321 $422 $225 $326 forward $316 $-1 #
edge $-1 $330 -27.971771726440725 $323 27.971771726440725 $325 $423 forward 7 unknown #
coedge $-1 $424 $226 $422 $425 reversed $329 $-1 #
coedge $-1 $226 $424 $228 $333 reversed $329 $-1 #
loop $-1 $-1 $226 $315 #
vertex $-1 $227 $426 #
straight-curve $-1 -53.546555986205632 -27.971771726440725 0 0 0 1 I I #
coedge $-1 $229 $228 $413 $427 forward $135 $-1 #
edge $-1 $230 -4.8969715946905126 $428 4.8969715946905126 $328 $429 forward 7 unknown #
point $-1 -53.546555986205632 -27.971771726440725 6.8791027895467352 #
point $-1 -53.546555986205632 27.971771726440725 6.8791027895467352 #
loop $-1 $-1 $241 $233 #
plane-surface $-1 53.546555986205632 0 0 -1 0 0 0 0 1 forward_v I I I I #
coedge $-1 $339 $236 $238 $343 reversed $143 $-1 #
coedge $-1 $236 $338 $430 $431 reversed $143 $-1 #
coedge $-1 $244 $239 $236 $341 forward $234 $-1 #
edge $-1 $344 21.574580643938383 $432 41.222530022156199 $340 $433 forward 7 unknown #
coedge $-1 $238 $237 $347 $434 reversed $89 $-1 #
edge $-1 $435 -107.09311197241125 $344 -83.393402640972567 $338 $436 forward 7 unknown #
vertex $-1 $240 $437 #
straight-curve $-1 33.89860660798783 -8.3993847068116683 13.390972452894228 0 -1 0 I I #
coedge $-1 $430 $241 $244 $351 reversed $336 $-1 #
coedge $-1 $241 $430 $342 $434 forward $336 $-1 #
vertex $-1 $242 $438 #
straight-curve $-1 53.546555986205632 -12.299664095935771 74.404092537035822 0 0 1 I I #
straight-curve $-1 -35.237657075787055 -12.299664095935771 60.023972012078957 0.82903756765294845 0 -0.55919291073839883 I I #
edge $-1 $432 -21.297874731310902 $245 -12.299664095935771 $346 $439 forward 7 unknown #
point $-1 53.546555986205632 -12.299664095935771 13.390972452894225 #
point $-1 33.898606607987816 -12.299664095935771 13.390972452894225 #
edge $-1 $440 1 $440 0 $248 $-1 forward 7 unknown #
vertex $-1 $249 $441 #
ellipse-curve $-1 42.808113932921891 -19.498232604235874 5.408864135076155 0.55919291073839883 0 0.82903756765294845 0.41451878382647422 0 -0.27959645536919941 1 I I #
point $-1 44.137100080923204 -19.498232604235874 6.4850212751744447 #
edge $-1 $442 1 $442 0 $252 $-1 forward 7 unknown #
vertex $-1 $253 $443 #
ellipse-curve $-1 42.808113932921891 -16.798769413623337 5.408864135076155 0.55919291073839883 0 0.82903756765294845 0.41451878382647422 0 -0.27959645536919941 1 I I #
point $-1 44.137100080923204 -16.798769413623337 6.4850212751744447 #
edge $-1 $444 1 $444 0 $256 $-1 forward 7 unknown #
vertex $-1 $257 $445 #
ellipse-curve $-1 42.808113932921891 -14.099306223010798 5.408864135076155 0.55919291073839883 0 0.82903756765294845 0.41451878382647422 0 -0.27959645536919941 1 I I #
point $-1 44.137100080923204 -14.099306223010798 6.4850212751744447 #
plane-surface $-1 0 0 13.390972452894225 0 0 1 1 0 0 forward_v I I I I #
coedge $-1 $377 $376 $369 $446 forward $261 $-1 #
coedge $-1 $369 $263 $265 $373 reversed $172 $-1 #
coedge $-1 $263 $368 $367 $446 reversed $172 $-1 #
coedge $-1 $271 $266 $263 $371 forward $272 $-1 #
edge $-1 $374 21.574580643938383 $447 41.222530022156199 $370 $448 forward 7 unknown #
coedge $-1 $265 $264 $377 $449 reversed $108 $-1 #
edge $-1 $450 -107.09311197241125 $374 -83.393402640972567 $368 $451 forward 7 unknown #
vertex $-1 $267 $452 #
straight-curve $-1 33.89860660798783 5.5865011564086924 13.390972452894228 0 -1 0 I I #
coedge $-1 $367 $268 $271 $381 reversed $261 $-1 #
coedge $-1 $268 $367 $372 $449 forward $261 $-1 #
vertex $-1 $269 $453 #
straight-curve $-1 53.546555986205632 15.67210763050495 74.404092537035822 0 0 1 I I #
straight-curve $-1 -35.237657075787055 15.67210763050495 60.023972012078957 0.82903756765294845 0 -0.55919291073839883 I I #
edge $-1 $447 6.6738969951298195 $273 15.67210763050495 $376 $454 forward 7 unknown #
point $-1 53.546555986205632 15.67210763050495 13.390972452894225 #
point $-1 33.898606607987816 15.67210763050495 13.390972452894225 #
edge $-1 $455 1 $455 0 $276 $-1 forward 7 unknown #
vertex $-1 $277 $456 #
ellipse-curve $-1 42.808113932921891 8.4735391222048513 5.408864135076155 0.55919291073839883 0 0.82903756765294845 0.41451878382647422 0 -0.27959645536919941 1 I I #
point $-1 44.137100080923204 8.4735391222048513 6.4850212751744447 #
edge $-1 $457 1 $457 0 $280 $-1 forward 7 unknown #
vertex $-1 $281 $458 #
ellipse-curve $-1 42.808113932921891 11.173002312817385 5.408864135076155 0.55919291073839883 0 0.82903756765294845 0.41451878382647422 0 -0.27959645536919941 1 I I #
point $-1 44.137100080923204 11.173002312817385 6.4850212751744447 #
edge $-1 $459 1 $459 0 $284 $-1 forward 7 unknown #
vertex $-1 $285 $460 #
ellipse-curve $-1 42.808113932921891 13.872465503429925 5.408864135076155 0.55919291073839883 0 0.82903756765294845 0.41451878382647422 0 -0.27959645536919941 1 I I #
point $-1 44.137100080923204 13.872465503429925 6.4850212751744447 #
plane-surface $-1 53.546555986205632 0 0 -1 0 0 0 0 1 forward_v I I I I #
coedge $-1 $293 $291 $295 $401 reversed $201 $-1 #
edge $-1 $306 -13.390972452894225 $403 13.390972452894225 $305 $461 forward 7 unknown #
vertex $-1 $401 $462 #
straight-curve $-1 -53.546555986205632 -27.971771726440725 0 0 0 -1 I I #
edge $-1 $399 -27.971771726440725 $403 27.971771726440725 $397 $463 forward 7 unknown #
straight-curve $-1 0 -27.971771726440725 -13.390972452894225 -1 0 0 I I #
vertex $-1 $298 $464 #
straight-curve $-1 0 27.971771726440725 -13.390972452894225 1 0 0 I I #
point $-1 53.546555986205632 27.971771726440725 -13.390972452894225 #
point $-1 53.546555986205632 -27.971771726440725 -13.390972452894225 #
straight-curve $-1 -53.546555986205632 0 13.390972452894225 0 -1 0 I I #
point $-1 -53.546555986205632 27.971771726440725 13.390972452894225 #
point $-1 -53.546555986205632 -27.971771726440725 13.390972452894225 #
straight-curve $-1 53.546555986205632 -27.971771726440725 0 0 0 -1 I I #
straight-curve $-1 53.546555986205632 27.971771726440725 0 0 0 -1 I I #
plane-surface $-1 0 -27.971771726440725 0 0 1 0 0 0 1 forward_v I I I I #
coedge $-1 $465 $318 $332 $427 reversed $220 $-1 #
coedge $-1 $318 $465 $418 $466 reversed $220 $-1 #
edge $-1 $419 -3.2559348316737449 $416 3.2559348316737449 $319 $467 forward 7 unknown #
vertex $-1 $320 $468 #
straight-curve $-1 -58.443527580896145 27.971771726440725 6.8791027895467352 1 0 0 I I #
coedge $-1 $422 $321 $414 $466 forward $316 $-1 #
vertex $-1 $322 $469 #
straight-curve $-1 0 27.971771726440725 13.390972452894225 -1 0 0 I I #
point $-1 -53.546555986205632 27.971771726440725 13.390972452894225 #
coedge $-1 $325 $418 $327 $425 forward $316 $-1 #
straight-curve $-1 -53.546555986205632 0 13.390972452894225 0 1 0 I I #
coedge $-1 $328 $327 $465 $470 forward $329 $-1 #
edge $-1 $471 -63.340499175586658 $330 -53.546555986205632 $327 $472 forward 7 unknown #
point $-1 -53.546555986205632 -27.971771726440725 13.390972452894225 #
edge $-1 $428 -27.971771726440725 $416 27.971771726440725 $413 $473 forward 7 unknown #
vertex $-1 $427 $474 #
straight-curve $-1 -58.443527580896145 -27.971771726440725 6.8791027895467352 -1 0 0 I I #
coedge $-1 $347 $346 $339 $431 forward $336 $-1 #
edge $-1 $432 61.013120084141597 $435 74.265829528842787 $430 $475 forward 7 unknown #
vertex $-1 $351 $476 #
straight-curve $-1 12.324025964049433 -21.297874731310902 13.390972452894218 1 0 0 I I #
edge $-1 $435 -12.898490024499234 $348 -3.900279389124103 $347 $477 forward 7 unknown #
vertex $-1 $434 $478 #
straight-curve $-1 -35.237657075787055 -21.297874731310902 60.023972012078957 -0.82903756765294845 0 0.55919291073839883 I I #
point $-1 33.898606607987816 -21.297874731310902 13.390972452894225 #
point $-1 53.546555986205632 -12.299664095935771 0.13826300819303583 #
straight-curve $-1 53.546555986205632 0 13.390972452894225 0 1 0 I I #
vertex $-1 $354 $479 #
point $-1 43.222632716748365 -19.498232604235874 5.1292676797069552 #
vertex $-1 $358 $480 #
point $-1 43.222632716748365 -16.798769413623337 5.1292676797069552 #
vertex $-1 $362 $481 #
point $-1 43.222632716748365 -14.099306223010798 5.1292676797069552 #
edge $-1 $447 61.013120084141597 $450 74.265829528842787 $367 $482 forward 7 unknown #
vertex $-1 $381 $483 #
straight-curve $-1 12.324025964049433 6.6738969951298195 13.390972452894218 1 0 0 I I #
edge $-1 $450 1.0873958387211271 $378 10.085606474096258 $377 $484 forward 7 unknown #
vertex $-1 $449 $485 #
straight-curve $-1 -35.237657075787055 6.6738969951298195 60.023972012078957 -0.82903756765294845 0 0.55919291073839883 I I #
point $-1 33.898606607987816 6.6738969951298195 13.390972452894225 #
point $-1 53.546555986205632 15.67210763050495 0.13826300819303583 #
straight-curve $-1 53.546555986205632 0 13.390972452894225 0 1 0 I I #
vertex $-1 $384 $486 #
point $-1 43.222632716748365 8.4735391222048513 5.1292676797069552 #
vertex $-1 $388 $487 #
point $-1 43.222632716748365 11.173002312817385 5.1292676797069552 #
vertex $-1 $392 $488 #
point $-1 43.222632716748365 13.872465503429925 5.1292676797069552 #
straight-curve $-1 -53.546555986205632 27.971771726440725 0 0 0 -1 I I #
point $-1 -53.546555986205632 -27.971771726440725 -13.390972452894225 #
straight-curve $-1 -53.546555986205632 0 -13.390972452894225 0 1 0 I I #
point $-1 -53.546555986205632 27.971771726440725 -13.390972452894225 #
coedge $-1 $414 $413 $424 $470 reversed $220 $-1 #
edge $-1 $419 -27.971771726440725 $471 27.971771726440725 $414 $489 forward 7 unknown #
straight-curve $-1 -63.340499175586658 27.971771726440725 10.13503762122048 0 0 -1 I I #
point $-1 -63.340499175586658 27.971771726440725 6.8791027895467352 #
point $-1 -63.340499175586658 27.971771726440725 13.390972452894225 #
edge $-1 $471 -3.2559348316737449 $428 3.2559348316737449 $465 $490 forward 7 unknown #
vertex $-1 $466 $491 #
straight-curve $-1 0 -27.971771726440725 13.390972452894225 1 0 0 I I #
straight-curve $-1 -63.340499175586658 0 6.8791027895467352 0 1 0 I I #
point $-1 -63.340499175586658 -27.971771726440725 6.8791027895467352 #
straight-curve $-1 53.546555986205632 -21.297874731310902 74.404092537035822 0 0 -1 I I #
point $-1 53.546555986205632 -21.297874731310902 13.390972452894225 #
straight-curve $-1 53.546555986205639 -8.3993847068116683 0.13826300819303228 0 1 0 I I #
point $-1 53.546555986205632 -21.297874731310902 0.13826300819303583 #
point $-1 42.52851747755269 -19.498232604235874 4.99434535124968 #
point $-1 42.52851747755269 -16.798769413623337 4.99434535124968 #
point $-1 42.52851747755269 -14.099306223010798 4.99434535124968 #
straight-curve $-1 53.546555986205632 6.6738969951298195 74.404092537035822 0 0 -1 I I #
point $-1 53.546555986205632 6.6738969951298195 13.390972452894225 #
straight-curve $-1 53.546555986205639 5.5865011564086924 0.13826300819303228 0 1 0 I I #
point $-1 53.546555986205632 6.6738969951298195 0.13826300819303583 #
point $-1 42.52851747755269 8.4735391222048513 4.99434535124968 #
point $-1 42.52851747755269 11.173002312817385 4.99434535124968 #
point $-1 42.52851747755269 13.872465503429925 4.99434535124968 #
straight-curve $-1 -63.340499175586658 0 13.390972452894225 0 -1 0 I I #
straight-curve $-1 -63.340499175586658 -27.971771726440725 10.13503762122048 0 0 -1 I I #
point $-1 -63.340499175586658 -27.971771726440725 13.390972452894225 #
End-of-ACIS-data 