500 0 8 0           
7 Unknown 11 ACIS 5.0 NT 24 Fri Mar 26 01:52:53 1999 
-1 9.9999999999999995e-007 1e-010 
body $-1 $8 $-1 $9 #
body $-1 $10 $-1 $11 #
body $-1 $12 $-1 $13 #
body $-1 $14 $-1 $15 #
body $-1 $16 $-1 $17 #
body $-1 $18 $-1 $19 #
body $-1 $20 $-1 $21 #
body $-1 $22 $-1 $23 #
lump $-1 $-1 $24 $0 #
transform $-1 1 0 0 0 1 0 0 0 1 73.364055299539174 32.501886311098374 7.8611773913189475 1 rotate no_reflect no_shear #
lump $-1 $-1 $25 $1 #
transform $-1 1 0 0 0 1 0 0 0 1 73.364055299539174 32.501886311098374 7.8611773913189475 1 rotate no_reflect no_shear #
lump $-1 $-1 $26 $2 #
transform $-1 1 0 0 0 1 0 0 0 1 73.364055299539174 32.501886311098374 7.8611773913189475 1 rotate no_reflect no_shear #
lump $-1 $-1 $27 $3 #
transform $-1 1 0 0 0 1 0 0 0 1 73.364055299539174 32.501886311098374 7.8611773913189475 1 rotate no_reflect no_shear #
lump $-1 $-1 $28 $4 #
transform $-1 1 0 0 0 1 0 0 0 1 73.364055299539174 32.501886311098374 7.8611773913189475 1 rotate no_reflect no_shear #
lump $-1 $-1 $29 $5 #
transform $-1 1 0 0 0 1 0 0 0 1 73.364055299539174 32.501886311098374 7.8611773913189475 1 rotate no_reflect no_shear #
lump $-1 $-1 $30 $6 #
transform $-1 1 0 0 0 1 0 0 0 1 73.364055299539174 32.501886311098374 7.8611773913189475 1 rotate no_reflect no_shear #
lump $-1 $-1 $31 $7 #
transform $-1 1 0 0 0 1 0 0 0 1 73.364055299539174 32.501886311098374 7.8611773913189475 1 rotate no_reflect no_shear #
shell $-1 $-1 $-1 $32 $-1 $8 #
shell $-1 $-1 $-1 $33 $-1 $10 #
shell $-1 $-1 $-1 $34 $-1 $12 #
shell $-1 $-1 $-1 $35 $-1 $14 #
shell $-1 $-1 $-1 $36 $-1 $16 #
shell $-1 $-1 $-1 $37 $-1 $18 #
shell $-1 $-1 $-1 $38 $-1 $20 #
shell $-1 $-1 $-1 $39 $-1 $22 #
face $-1 $40 $41 $24 $-1 $42 reversed single #
face $-1 $43 $44 $25 $-1 $45 forward single #
face $-1 $46 $47 $26 $-1 $48 reversed single #
face $-1 $49 $50 $27 $-1 $51 forward single #
face $-1 $52 $53 $28 $-1 $54 forward single #
face $-1 $55 $56 $29 $-1 $57 reversed single #
face $-1 $58 $59 $30 $-1 $60 forward single #
face $-1 $61 $62 $31 $-1 $63 forward single #
face $-1 $64 $65 $24 $-1 $66 forward single #
loop $-1 $-1 $67 $32 #
plane-surface $-1 0 -32.501886311098374 0 0 1 0 0 0 1 forward_v I I I I #
face $-1 $68 $69 $25 $-1 $70 forward single #
loop $-1 $-1 $71 $33 #
plane-surface $-1 0 -32.501886311098374 0 0 1 0 0 0 1 forward_v I I I I #
face $-1 $72 $73 $26 $-1 $74 reversed single #
loop $-1 $-1 $75 $34 #
plane-surface $-1 -188.98738551916412 25.819056100296763 93.258492983330456 0 1 0 -0.78801076186113728 0 0.61566146476048833 forward_v I I I I #
face $-1 $76 $77 $27 $-1 $78 forward single #
loop $-1 $79 $80 $35 #
cone-surface $-1 -70.823254814320492 27.728436160525796 4.9142738784806816 0.78801076186113728 0 -0.61566146476048833 0.30783073238024417 0 0.39400538093056864 1 I I 0 1 0.5 forward I I I I #
face $-1 $81 $82 $28 $-1 $83 forward single #
loop $-1 $84 $85 $36 #
cone-surface $-1 -70.823254814320492 30.592506250869341 4.9142738784806816 0.78801076186113728 0 -0.61566146476048833 0.30783073238024417 0 0.39400538093056864 1 I I 0 1 0.5 forward I I I I #
face $-1 $86 $87 $29 $-1 $88 reversed single #
loop $-1 $-1 $89 $37 #
plane-surface $-1 127.07027432882744 -11.272673413282538 203.82351596458506 0 -1 0 -0.86602541151947299 0 -0.49999998660252726 forward_v I I I I #
face $-1 $90 $91 $30 $-1 $92 forward single #
loop $-1 $93 $94 $38 #
cone-surface $-1 71.231631737942294 -21.305113266939244 5.1393596902237828 -0.86602541151947299 0 -0.49999998660252726 0.49999998660252726 0 -0.86602541151947299 1 I I 0 1 1 forward I I I I #
face $-1 $95 $96 $31 $-1 $97 forward single #
loop $-1 $98 $99 $39 #
cone-surface $-1 71.231631737942294 -15.285649354745225 5.1393596902237828 -0.86602541151947299 0 -0.49999998660252726 0.49999998660252726 0 -0.86602541151947299 1 I I 0 1 1 forward I I I I #
face $-1 $100 $101 $24 $-1 $102 reversed single #
loop $-1 $-1 $103 $40 #
plane-surface $-1 0 0 7.8611773913189475 0 0 1 1 0 0 forward_v I I I I #
coedge $-1 $104 $105 $106 $107 reversed $41 $-1 #
face $-1 $108 $109 $25 $-1 $110 reversed single #
loop $-1 $-1 $111 $43 #
plane-surface $-1 0 0 7.8611773913189475 0 0 1 1 0 0 forward_v I I I I #
coedge $-1 $112 $113 $114 $115 forward $44 $-1 #
face $-1 $116 $117 $26 $-1 $118 reversed single #
loop $-1 $-1 $119 $46 #
plane-surface $-1 -73.364055299539174 29.160471205697569 2.9236494903629477 -0.78801076186113728 0 0.61566146476048833 0.61566146476048833 0 0.78801076186113728 forward_v I I I I #
coedge $-1 $120 $121 $122 $123 reversed $47 $-1 #
face $-1 $-1 $124 $27 $-1 $125 forward single #
loop $-1 $126 $127 $49 #
cone-surface $-1 -70.014261375078945 27.728436160525796 4.2822189499302974 0.78801076186113728 0 -0.61566146476048833 0.15391536619012208 0 0.19700269046528432 1 I I -0.70710678118654746 0.70710678118654746 0.25 forward I I I I #
loop $-1 $-1 $128 $35 #
coedge $-1 $80 $80 $129 $130 reversed $50 $-1 #
face $-1 $-1 $131 $28 $-1 $132 forward single #
loop $-1 $133 $134 $52 #
cone-surface $-1 -70.014261375078945 30.592506250869341 4.2822189499302974 0.78801076186113728 0 -0.61566146476048833 0.15391536619012208 0 0.19700269046528432 1 I I -0.70710678118654746 0.70710678118654746 0.25 forward I I I I #
loop $-1 $-1 $135 $36 #
coedge $-1 $85 $85 $136 $137 reversed $53 $-1 #
face $-1 $138 $139 $29 $-1 $140 reversed single #
loop $-1 $-1 $141 $55 #
plane-surface $-1 1.9657858700838915e-006 -18.295381310842231 130.45946263083175 0.86602541151947299 0 0.49999998660252726 0.49999998660252726 0 -0.86602541151947299 forward_v I I I I #
coedge $-1 $142 $143 $144 $145 reversed $56 $-1 #
face $-1 $-1 $146 $30 $-1 $147 forward single #
loop $-1 $148 $149 $58 #
cone-surface $-1 69.957146909255314 -21.305113266939244 4.4035355575917512 -0.86602541151947299 0 -0.49999998660252726 0.24999999330126363 0 -0.43301270575973649 1 I I -0.70710678118654746 0.70710678118654746 0.5 forward I I I I #
loop $-1 $-1 $150 $38 #
coedge $-1 $94 $94 $151 $152 reversed $59 $-1 #
face $-1 $-1 $153 $31 $-1 $154 forward single #
loop $-1 $155 $156 $61 #
cone-surface $-1 69.957146909255314 -15.285649354745225 4.4035355575917512 -0.86602541151947299 0 -0.49999998660252726 0.24999999330126363 0 -0.43301270575973649 1 I I -0.70710678118654746 0.70710678118654746 0.5 forward I I I I #
loop $-1 $-1 $157 $39 #
coedge $-1 $99 $99 $158 $159 reversed $62 $-1 #
face $-1 $160 $161 $24 $-1 $162 reversed single #
loop $-1 $-1 $163 $64 #
plane-surface $-1 0 0 -7.8611773913189475 0 0 1 1 0 0 forward_v I I I I #
coedge $-1 $164 $165 $166 $167 forward $65 $-1 #
coedge $-1 $168 $67 $169 $170 reversed $41 $-1 #
coedge $-1 $67 $168 $171 $172 forward $41 $-1 #
coedge $-1 $173 $163 $67 $107 forward $101 $-1 #
edge $-1 $174 -73.364055299539174 $175 73.364055299539174 $67 $176 forward 7 unknown #
face $-1 $177 $178 $25 $-1 $179 reversed single #
loop $-1 $-1 $180 $68 #
plane-surface $-1 -73.364055299539174 0 0 1 0 0 0 0 -1 forward_v I I I I #
coedge $-1 $181 $182 $113 $183 forward $69 $-1 #
coedge $-1 $184 $71 $185 $186 reversed $44 $-1 #
coedge $-1 $71 $184 $111 $183 reversed $44 $-1 #
coedge $-1 $187 $188 $71 $115 reversed $189 $-1 #
edge $-1 $190 -7.8611773913189475 $191 7.8611773913189475 $114 $192 forward 7 unknown #
face $-1 $193 $194 $26 $-1 $195 reversed single #
loop $-1 $-1 $196 $72 #
plane-surface $-1 0 32.501886311098374 0 0 -1 0 0 0 -1 forward_v I I I I #
coedge $-1 $197 $198 $199 $200 reversed $73 $-1 #
coedge $-1 $121 $75 $201 $202 reversed $47 $-1 #
coedge $-1 $75 $120 $197 $203 reversed $47 $-1 #
coedge $-1 $199 $204 $75 $123 forward $205 $-1 #
edge $-1 $206 21.129637460042886 $207 24.987256932927735 $122 $208 forward 7 unknown #
loop $-1 $-1 $129 $76 #
plane-surface $-1 -73.364055299539174 29.160471205697569 2.9236494903629477 -0.78801076186113728 0 0.61566146476048833 0.61566146476048833 0 0.78801076186113728 forward_v I I I I #
loop $-1 $-1 $209 $49 #
coedge $-1 $127 $127 $128 $210 reversed $77 $-1 #
coedge $-1 $128 $128 $127 $210 forward $79 $-1 #
coedge $-1 $129 $129 $80 $130 forward $124 $-1 #
edge $-1 $211 0 $211 6.2831853071796004 $129 $212 forward 7 unknown #
loop $-1 $-1 $136 $81 #
plane-surface $-1 -73.364055299539174 29.160471205697569 2.9236494903629477 -0.78801076186113728 0 0.61566146476048833 0.61566146476048833 0 0.78801076186113728 forward_v I I I I #
loop $-1 $-1 $213 $52 #
coedge $-1 $134 $134 $135 $214 reversed $82 $-1 #
coedge $-1 $135 $135 $134 $214 forward $84 $-1 #
coedge $-1 $136 $136 $85 $137 forward $131 $-1 #
edge $-1 $215 0 $215 6.2831853071796004 $136 $216 forward 7 unknown #
face $-1 $217 $218 $29 $-1 $219 reversed single #
loop $-1 $-1 $220 $86 #
plane-surface $-1 127.07027432882744 -25.318089208401922 203.82351596458506 0 1 0 0.86602541151947299 0 0.49999998660252726 forward_v I I I I #
coedge $-1 $221 $222 $223 $224 reversed $87 $-1 #
coedge $-1 $143 $89 $225 $226 reversed $56 $-1 #
coedge $-1 $89 $142 $221 $227 reversed $56 $-1 #
coedge $-1 $223 $228 $89 $145 forward $229 $-1 #
edge $-1 $230 -9.8289181351254555 $231 -7.2470152577861811 $144 $232 forward 7 unknown #
loop $-1 $-1 $151 $90 #
plane-surface $-1 1.9657858700838915e-006 -18.295381310842231 130.45946263083175 0.86602541151947299 0 0.49999998660252726 0.49999998660252726 0 -0.86602541151947299 forward_v I I I I #
loop $-1 $-1 $233 $58 #
coedge $-1 $149 $149 $150 $234 reversed $91 $-1 #
coedge $-1 $150 $150 $149 $234 forward $93 $-1 #
coedge $-1 $151 $151 $94 $152 forward $146 $-1 #
edge $-1 $235 0 $235 6.2831853071796004 $151 $236 forward 7 unknown #
loop $-1 $-1 $158 $95 #
plane-surface $-1 1.9657858700838915e-006 -18.295381310842231 130.45946263083175 0.86602541151947299 0 0.49999998660252726 0.49999998660252726 0 -0.86602541151947299 forward_v I I I I #
loop $-1 $-1 $237 $61 #
coedge $-1 $156 $156 $157 $238 reversed $96 $-1 #
coedge $-1 $157 $157 $156 $238 forward $98 $-1 #
coedge $-1 $158 $158 $99 $159 forward $153 $-1 #
edge $-1 $239 0 $239 6.2831853071796004 $158 $240 forward 7 unknown #
face $-1 $241 $242 $24 $-1 $243 reversed single #
loop $-1 $-1 $244 $100 #
plane-surface $-1 -73.364055299539174 0 0 1 0 0 0 0 -1 forward_v I I I I #
coedge $-1 $106 $245 $246 $247 forward $101 $-1 #
coedge $-1 $248 $103 $249 $250 forward $65 $-1 #
coedge $-1 $103 $248 $168 $251 forward $65 $-1 #
coedge $-1 $169 $252 $103 $167 reversed $253 $-1 #
edge $-1 $254 -32.501886311098374 $255 32.501886311098374 $166 $256 forward 7 unknown #
coedge $-1 $105 $104 $165 $251 reversed $41 $-1 #
coedge $-1 $246 $166 $104 $170 forward $253 $-1 #
edge $-1 $254 -7.8611773913189475 $174 7.8611773913189475 $169 $257 forward 7 unknown #
coedge $-1 $258 $259 $105 $172 reversed $161 $-1 #
edge $-1 $260 -7.8611773913189475 $175 7.8611773913189475 $171 $261 forward 7 unknown #
coedge $-1 $245 $106 $259 $262 forward $101 $-1 #
vertex $-1 $170 $263 #
vertex $-1 $262 $264 #
straight-curve $-1 0 -32.501886311098374 -7.8611773913189475 -1 0 0 I I #
face $-1 $265 $189 $25 $-1 $266 reversed single #
loop $-1 $-1 $267 $108 #
plane-surface $-1 -71.5767872184787 -39.68568341379482 0 0 1 0 0 0 1 forward_v I I I I #
coedge $-1 $268 $269 $184 $270 forward $109 $-1 #
coedge $-1 $271 $111 $269 $272 forward $69 $-1 #
coedge $-1 $111 $271 $187 $273 forward $69 $-1 #
edge $-1 $190 69.789519137418225 $274 73.364055299539174 $111 $275 forward 7 unknown #
coedge $-1 $113 $112 $180 $270 reversed $44 $-1 #
coedge $-1 $276 $277 $112 $186 forward $278 $-1 #
edge $-1 $279 -73.364055299539174 $191 -69.789519137418225 $185 $280 forward 7 unknown #
coedge $-1 $281 $114 $182 $273 reversed $189 $-1 #
coedge $-1 $114 $281 $276 $282 reversed $189 $-1 #
loop $-1 $-1 $281 $177 #
vertex $-1 $183 $283 #
vertex $-1 $282 $284 #
straight-curve $-1 -69.789519137418225 -32.501886311098374 0 0 0 -1 I I #
face $-1 $-1 $205 $26 $-1 $285 forward single #
loop $-1 $-1 $286 $116 #
plane-surface $-1 -73.364055299539174 0 0 1 0 0 0 0 -1 forward_v I I I I #
coedge $-1 $287 $288 $198 $289 forward $117 $-1 #
coedge $-1 $290 $119 $121 $203 forward $73 $-1 #
coedge $-1 $119 $290 $196 $289 reversed $73 $-1 #
coedge $-1 $291 $122 $119 $200 forward $205 $-1 #
edge $-1 $207 11.238820497447978 $292 17.92165070824959 $199 $293 forward 7 unknown #
coedge $-1 $294 $286 $120 $202 forward $194 $-1 #
edge $-1 $295 -43.70559700130228 $206 -38.768069100346281 $201 $296 forward 7 unknown #
edge $-1 $207 -6.2658127781078283 $295 0 $121 $297 forward 7 unknown #
coedge $-1 $122 $291 $294 $298 forward $205 $-1 #
loop $-1 $-1 $199 $193 #
vertex $-1 $202 $299 #
vertex $-1 $123 $300 #
straight-curve $-1 -94.493692759582061 25.819056100296763 7.8611773913189467 1 0 0 I I #
coedge $-1 $209 $209 $-1 $301 reversed $126 $-1 #
edge $-1 $302 0 $302 6.2831853071796004 $127 $303 forward 7 unknown #
vertex $-1 $130 $304 #
ellipse-curve $-1 -71.435245563096757 27.728436160525796 5.3924134408409428 -0.78801076186113728 0 0.61566146476048833 0.30783073238024417 0 0.39400538093056864 1 I I #
coedge $-1 $213 $213 $-1 $305 reversed $133 $-1 #
edge $-1 $306 0 $306 6.2831853071796004 $134 $307 forward 7 unknown #
vertex $-1 $137 $308 #
ellipse-curve $-1 -71.435245563096757 30.592506250869341 5.3924134408409428 -0.78801076186113728 0 0.61566146476048833 0.30783073238024417 0 0.39400538093056864 1 I I #
face $-1 $-1 $229 $29 $-1 $309 forward single #
loop $-1 $-1 $310 $138 #
plane-surface $-1 73.364055299539174 0 0 -1 0 0 0 0 1 forward_v I I I I #
coedge $-1 $311 $312 $313 $314 reversed $139 $-1 #
coedge $-1 $315 $141 $143 $227 forward $87 $-1 #
coedge $-1 $141 $315 $311 $316 forward $87 $-1 #
coedge $-1 $313 $144 $141 $224 forward $229 $-1 #
edge $-1 $231 2.1249827578614227 $317 16.170398552980807 $223 $318 forward 7 unknown #
coedge $-1 $319 $320 $142 $226 forward $218 $-1 #
edge $-1 $321 -98.52256771450233 $230 -94.050580590973581 $225 $322 forward 7 unknown #
edge $-1 $231 141.5643047060359 $321 146.72811059907832 $143 $323 forward 7 unknown #
coedge $-1 $144 $313 $319 $324 forward $229 $-1 #
loop $-1 $-1 $313 $217 #
vertex $-1 $226 $325 #
vertex $-1 $145 $326 #
straight-curve $-1 63.535137164413719 -11.272673413282538 7.8611773913189467 -1 0 0 I I #
coedge $-1 $233 $233 $-1 $327 reversed $148 $-1 #
edge $-1 $328 0 $328 6.2831853071796004 $149 $329 forward 7 unknown #
vertex $-1 $152 $330 #
ellipse-curve $-1 72.073103860869537 -21.305113266939244 5.6251838295545546 0.86602541151947299 0 0.49999998660252726 0.49999998660252726 0 -0.86602541151947299 1 I I #
coedge $-1 $237 $237 $-1 $331 reversed $155 $-1 #
edge $-1 $332 0 $332 6.2831853071796004 $156 $333 forward 7 unknown #
vertex $-1 $159 $334 #
ellipse-curve $-1 72.073103860869537 -15.285649354745225 5.6251838295545546 0.86602541151947299 0 0.49999998660252726 0.49999998660252726 0 -0.86602541151947299 1 I I #
face $-1 $-1 $253 $24 $-1 $335 reversed single #
loop $-1 $-1 $336 $160 #
plane-surface $-1 0 32.501886311098374 0 0 -1 0 0 0 -1 forward_v I I I I #
coedge $-1 $259 $258 $337 $338 forward $161 $-1 #
coedge $-1 $163 $173 $339 $340 forward $101 $-1 #
coedge $-1 $252 $169 $163 $247 reversed $253 $-1 #
edge $-1 $341 -32.501886311098374 $174 32.501886311098374 $246 $342 forward 7 unknown #
coedge $-1 $165 $164 $258 $343 forward $65 $-1 #
coedge $-1 $336 $337 $164 $250 reversed $242 $-1 #
edge $-1 $255 -73.364055299539174 $344 73.364055299539174 $249 $345 forward 7 unknown #
edge $-1 $260 -73.364055299539174 $254 73.364055299539174 $168 $346 forward 7 unknown #
coedge $-1 $166 $246 $336 $347 reversed $253 $-1 #
loop $-1 $-1 $169 $241 #
vertex $-1 $167 $348 #
vertex $-1 $167 $349 #
straight-curve $-1 73.364055299539174 0 7.8611773913189475 0 1 0 I I #
straight-curve $-1 73.364055299539174 -32.501886311098374 0 0 0 -1 I I #
coedge $-1 $244 $171 $248 $343 reversed $161 $-1 #
coedge $-1 $171 $244 $173 $262 reversed $161 $-1 #
vertex $-1 $343 $350 #
straight-curve $-1 -73.364055299539174 -32.501886311098374 0 0 0 -1 I I #
edge $-1 $175 -32.501886311098374 $351 32.501886311098374 $259 $352 forward 7 unknown #
point $-1 73.364055299539174 -32.501886311098374 -7.8611773913189475 #
point $-1 -73.364055299539174 -32.501886311098374 -7.8611773913189475 #
face $-1 $-1 $278 $25 $-1 $353 reversed single #
plane-surface $-1 -69.789519137418225 -36.093784862446597 0 -1 0 0 0 0 1 forward_v I I I I #
coedge $-1 $354 $355 $356 $357 forward $178 $-1 #
coedge $-1 $356 $180 $277 $358 reversed $109 $-1 #
coedge $-1 $180 $356 $181 $272 reversed $109 $-1 #
edge $-1 $274 -7.8611773913189475 $279 7.8611773913189475 $180 $359 forward 7 unknown #
coedge $-1 $182 $181 $355 $360 forward $69 $-1 #
edge $-1 $274 32.501886311098374 $361 39.68568341379482 $269 $362 forward 7 unknown #
edge $-1 $363 -3.5918985513482227 $190 3.5918985513482227 $187 $364 forward 7 unknown #
vertex $-1 $272 $365 #
straight-curve $-1 0 -32.501886311098374 7.8611773913189475 -1 0 0 I I #
coedge $-1 $366 $185 $188 $282 forward $278 $-1 #
coedge $-1 $185 $366 $268 $358 forward $278 $-1 #
loop $-1 $-1 $185 $265 #
vertex $-1 $270 $367 #
straight-curve $-1 0 -32.501886311098374 -7.8611773913189475 1 0 0 I I #
coedge $-1 $188 $187 $368 $369 forward $189 $-1 #
edge $-1 $191 -3.5918985513482227 $370 3.5918985513482227 $188 $371 forward 7 unknown #
point $-1 -69.789519137418225 -32.501886311098374 7.8611773913189475 #
point $-1 -69.789519137418225 -32.501886311098374 -7.8611773913189475 #
plane-surface $-1 0 0 7.8611773913189475 0 0 1 1 0 0 forward_v I I I I #
coedge $-1 $201 $372 $290 $373 forward $194 $-1 #
coedge $-1 $288 $196 $372 $374 reversed $117 $-1 #
coedge $-1 $196 $287 $291 $375 reversed $117 $-1 #
edge $-1 $292 15.165964463976136 $376 21.431777242083964 $196 $377 forward 7 unknown #
coedge $-1 $198 $197 $286 $373 reversed $73 $-1 #
coedge $-1 $204 $199 $288 $375 forward $205 $-1 #
vertex $-1 $375 $378 #
straight-curve $-1 -69.506435826654325 14.580235602848784 7.8611773913189467 0 1 0 I I #
coedge $-1 $372 $201 $204 $298 reversed $194 $-1 #
vertex $-1 $202 $379 #
straight-curve $-1 -73.364055299539174 25.819056100296763 46.629246491665228 0 0 1 I I #
straight-curve $-1 -73.364055299539174 25.819056100296763 2.9236494903629477 -0.61566146476048833 0 -0.78801076186113728 I I #
edge $-1 $380 -32.501886311098374 $206 -25.819056100296763 $294 $381 forward 7 unknown #
point $-1 -73.364055299539174 25.819056100296763 7.8611773913189475 #
point $-1 -69.506435826654325 25.819056100296763 7.8611773913189475 #
edge $-1 $382 1 $382 0 $209 $-1 forward 7 unknown #
vertex $-1 $210 $383 #
ellipse-curve $-1 -70.211264065544228 27.728436160525796 4.4361343161204196 -0.78801076186113728 0 0.61566146476048833 0.30783073238024417 0 0.39400538093056864 1 I I #
point $-1 -71.127414830716504 27.728436160525796 5.7864188217715125 #
edge $-1 $384 1 $384 0 $213 $-1 forward 7 unknown #
vertex $-1 $214 $385 #
ellipse-curve $-1 -70.211264065544228 30.592506250869341 4.4361343161204196 -0.78801076186113728 0 0.61566146476048833 0.30783073238024417 0 0.39400538093056864 1 I I #
point $-1 -71.127414830716504 30.592506250869341 5.7864188217715125 #
plane-surface $-1 0 0 7.8611773913189475 0 0 1 1 0 0 forward_v I I I I #
coedge $-1 $320 $319 $312 $386 forward $218 $-1 #
coedge $-1 $312 $220 $222 $316 reversed $139 $-1 #
coedge $-1 $220 $311 $310 $386 reversed $139 $-1 #
coedge $-1 $228 $223 $220 $314 forward $229 $-1 #
edge $-1 $317 7.2470152577861811 $387 9.8289181351254555 $313 $388 forward 7 unknown #
coedge $-1 $222 $221 $320 $389 reversed $87 $-1 #
edge $-1 $390 -146.72811059907832 $317 -141.5643047060359 $311 $391 forward 7 unknown #
vertex $-1 $224 $392 #
straight-curve $-1 70.782152422199914 -9.1476906554211155 7.8611773913189467 0 -1 0 I I #
coedge $-1 $310 $225 $228 $324 reversed $218 $-1 #
coedge $-1 $225 $310 $315 $389 forward $218 $-1 #
vertex $-1 $226 $393 #
straight-curve $-1 73.364055299539174 -11.272673413282538 101.91175798229253 0 0 1 I I #
straight-curve $-1 1.9657858700838915e-006 -11.272673413282538 130.45946263083175 0.49999998660252726 0 -0.86602541151947299 I I #
edge $-1 $387 -25.318089208401922 $230 -11.272673413282538 $319 $394 forward 7 unknown #
point $-1 73.364055299539174 -11.272673413282538 7.8611773913189475 #
point $-1 70.7821524221999 -11.272673413282538 7.8611773913189467 #
edge $-1 $395 1 $395 0 $233 $-1 forward 7 unknown #
vertex $-1 $234 $396 #
ellipse-curve $-1 70.390159615015051 -21.305113266939244 4.6535355508930145 0.86602541151947299 0 0.49999998660252726 0.49999998660252726 0 -0.86602541151947299 1 I I #
point $-1 72.573103847472069 -21.305113266939244 4.7591584180350779 #
edge $-1 $397 1 $397 0 $237 $-1 forward 7 unknown #
vertex $-1 $238 $398 #
ellipse-curve $-1 70.390159615015051 -15.285649354745225 4.6535355508930145 0.86602541151947299 0 0.49999998660252726 0.49999998660252726 0 -0.86602541151947299 1 I I #
point $-1 72.573103847472069 -15.285649354745225 4.7591584180350779 #
plane-surface $-1 73.364055299539174 0 0 -1 0 0 0 0 1 forward_v I I I I #
coedge $-1 $339 $249 $252 $347 forward $242 $-1 #
coedge $-1 $249 $339 $244 $338 reversed $242 $-1 #
edge $-1 $344 -7.8611773913189475 $351 7.8611773913189475 $337 $399 forward 7 unknown #
coedge $-1 $337 $336 $245 $340 reversed $242 $-1 #
edge $-1 $351 -73.364055299539174 $341 73.364055299539174 $339 $400 forward 7 unknown #
vertex $-1 $247 $401 #
straight-curve $-1 73.364055299539174 0 -7.8611773913189475 0 -1 0 I I #
edge $-1 $344 -32.501886311098374 $260 32.501886311098374 $258 $402 forward 7 unknown #
vertex $-1 $250 $403 #
straight-curve $-1 0 32.501886311098374 7.8611773913189475 -1 0 0 I I #
straight-curve $-1 0 -32.501886311098374 7.8611773913189475 1 0 0 I I #
edge $-1 $255 -7.8611773913189475 $341 7.8611773913189475 $252 $404 forward 7 unknown #
point $-1 73.364055299539174 -32.501886311098374 7.8611773913189475 #
point $-1 73.364055299539174 32.501886311098374 7.8611773913189475 #
point $-1 -73.364055299539174 -32.501886311098374 7.8611773913189475 #
vertex $-1 $340 $405 #
straight-curve $-1 -73.364055299539174 0 -7.8611773913189475 0 1 0 I I #
plane-surface $-1 0 0 -7.8611773913189475 0 0 1 1 0 0 forward_v I I I I #
coedge $-1 $368 $267 $366 $406 reversed $178 $-1 #
coedge $-1 $267 $368 $271 $360 reversed $178 $-1 #
coedge $-1 $269 $268 $267 $357 reversed $109 $-1 #
edge $-1 $361 -7.8611773913189475 $407 7.8611773913189475 $356 $408 forward 7 unknown #
edge $-1 $407 -39.68568341379482 $279 -32.501886311098374 $268 $409 forward 7 unknown #
straight-curve $-1 -73.364055299539174 -32.501886311098374 0 0 0 -1 I I #
edge $-1 $361 -1.7872680810604749 $363 1.7872680810604749 $355 $410 forward 7 unknown #
vertex $-1 $272 $411 #
straight-curve $-1 -73.364055299539174 0 7.8611773913189475 0 -1 0 I I #
vertex $-1 $273 $412 #
straight-curve $-1 -69.789519137418225 -36.093784862446597 7.8611773913189475 0 1 0 I I #
point $-1 -73.364055299539174 -32.501886311098374 7.8611773913189475 #
coedge $-1 $277 $276 $354 $406 forward $278 $-1 #
point $-1 -73.364055299539174 -32.501886311098374 -7.8611773913189475 #
coedge $-1 $355 $354 $281 $369 reversed $178 $-1 #
edge $-1 $363 -7.8611773913189475 $370 7.8611773913189475 $281 $413 forward 7 unknown #
vertex $-1 $369 $414 #
straight-curve $-1 -69.789519137418225 -36.093784862446597 -7.8611773913189475 0 -1 0 I I #
coedge $-1 $286 $294 $287 $374 forward $194 $-1 #
edge $-1 $376 -17.92165070824959 $295 -11.238820497447978 $286 $415 forward 7 unknown #
edge $-1 $380 -7.8611773913189475 $376 -2.9236494903629477 $287 $416 forward 7 unknown #
edge $-1 $292 69.506435826654325 $380 73.364055299539174 $288 $417 forward 7 unknown #
vertex $-1 $373 $418 #
straight-curve $-1 -60.169335930257262 32.501886311098374 19.812120602935714 -0.61566146476048833 0 -0.78801076186113728 I I #
point $-1 -69.506435826654325 32.501886311098374 7.8611773913189475 #
point $-1 -73.364055299539174 25.819056100296763 2.9236494903629477 #
vertex $-1 $375 $419 #
straight-curve $-1 -73.364055299539174 0 7.8611773913189475 0 -1 0 I I #
vertex $-1 $301 $420 #
point $-1 -69.903433333163989 27.728436160525796 4.8301396970509884 #
vertex $-1 $305 $421 #
point $-1 -69.903433333163989 30.592506250869341 4.8301396970509884 #
edge $-1 $387 94.050580590973581 $390 98.52256771450233 $310 $422 forward 7 unknown #
vertex $-1 $324 $423 #
straight-curve $-1 63.535137164413719 -25.318089208401922 7.8611773913189467 1 0 0 I I #
edge $-1 $390 -16.170398552980807 $321 -2.1249827578614227 $320 $424 forward 7 unknown #
vertex $-1 $389 $425 #
straight-curve $-1 1.9657858700838915e-006 -25.318089208401922 130.45946263083175 -0.49999998660252726 0 0.86602541151947299 I I #
point $-1 70.7821524221999 -25.318089208401922 7.8611773913189467 #
point $-1 73.364055299539174 -11.272673413282538 3.3891902677901982 #
straight-curve $-1 73.364055299539174 0 7.8611773913189475 0 1 0 I I #
vertex $-1 $327 $426 #
point $-1 70.890159601617583 -21.305113266939244 3.7875101393735418 #
vertex $-1 $331 $427 #
point $-1 70.890159601617583 -15.285649354745225 3.7875101393735418 #
straight-curve $-1 -73.364055299539174 32.501886311098374 0 0 0 -1 I I #
straight-curve $-1 0 32.501886311098374 -7.8611773913189475 1 0 0 I I #
point $-1 73.364055299539174 32.501886311098374 -7.8611773913189475 #
straight-curve $-1 -73.364055299539174 0 7.8611773913189475 0 -1 0 I I #
point $-1 -73.364055299539174 32.501886311098374 7.8611773913189475 #
straight-curve $-1 73.364055299539174 32.501886311098374 0 0 0 -1 I I #
point $-1 -73.364055299539174 32.501886311098374 -7.8611773913189475 #
edge $-1 $370 -1.7872680810604749 $407 1.7872680810604749 $354 $428 forward 7 unknown #
vertex $-1 $358 $429 #
straight-curve $-1 -73.364055299539174 -39.68568341379482 0 0 0 -1 I I #
straight-curve $-1 -73.364055299539174 0 -7.8611773913189475 0 1 0 I I #
straight-curve $-1 -71.5767872184787 -39.68568341379482 7.8611773913189475 1 0 0 I I #
point $-1 -73.364055299539174 -39.68568341379482 7.8611773913189475 #
point $-1 -69.789519137418225 -39.68568341379482 7.8611773913189475 #
straight-curve $-1 -69.789519137418225 -39.68568341379482 0 0 0 -1 I I #
point $-1 -69.789519137418225 -39.68568341379482 -7.8611773913189475 #
straight-curve $-1 -73.364055299539174 14.580235602848784 2.923649490362946 0 -1 0 I I #
straight-curve $-1 -73.364055299539174 32.501886311098374 0 0 0 -1 I I #
straight-curve $-1 0 32.501886311098374 7.8611773913189475 -1 0 0 I I #
point $-1 -73.364055299539174 32.501886311098374 2.9236494903629477 #
point $-1 -73.364055299539174 32.501886311098374 7.8611773913189475 #
point $-1 -69.817258684613662 27.728436160525796 4.1283035837401751 #
point $-1 -69.817258684613662 30.592506250869341 4.1283035837401751 #
straight-curve $-1 73.364055299539174 -25.318089208401922 101.91175798229253 0 0 -1 I I #
point $-1 73.364055299539174 -25.318089208401922 7.8611773913189475 #
straight-curve $-1 73.364055299539174 -9.1476906554211155 3.389190267790184 0 1 0 I I #
point $-1 73.364055299539174 -25.318089208401922 3.3891902677901982 #
point $-1 69.524134203495578 -21.305113266939244 4.1535355642904879 #
point $-1 69.524134203495578 -15.285649354745225 4.1535355642904879 #
straight-curve $-1 -71.5767872184787 -39.68568341379482 -7.8611773913189475 -1 0 0 I I #
point $-1 -73.364055299539174 -39.68568341379482 -7.8611773913189475 #
End-of-ACIS-data 