500 0 7 0           
7 Unknown 11 ACIS 5.0 NT 24 Thu Mar 25 18:30:00 1999 
-1 9.9999999999999995e-007 1e-010 
body $-1 $7 $-1 $8 #
body $-1 $9 $-1 $10 #
body $-1 $11 $-1 $12 #
body $-1 $13 $-1 $14 #
body $-1 $15 $-1 $16 #
body $-1 $17 $-1 $18 #
body $-1 $19 $-1 $20 #
lump $-1 $-1 $21 $0 #
transform $-1 1 0 0 0 1 0 0 0 1 48.740501113925596 28.625952137423049 5.7996229700459807 1 rotate no_reflect no_shear #
lump $-1 $-1 $22 $1 #
transform $-1 1 0 0 0 1 0 0 0 1 48.740501113925596 28.625952137423049 5.7996229700459807 1 rotate no_reflect no_shear #
lump $-1 $-1 $23 $2 #
transform $-1 1 0 0 0 1 0 0 0 1 48.740501113925596 28.625952137423049 5.7996229700459807 1 rotate no_reflect no_shear #
lump $-1 $-1 $24 $3 #
transform $-1 1 0 0 0 1 0 0 0 1 48.740501113925596 28.625952137423049 5.7996229700459807 1 rotate no_reflect no_shear #
lump $-1 $-1 $25 $4 #
transform $-1 1 0 0 0 1 0 0 0 1 48.740501113925596 28.625952137423049 5.7996229700459807 1 rotate no_reflect no_shear #
lump $-1 $-1 $26 $5 #
transform $-1 1 0 0 0 1 0 0 0 1 48.740501113925596 28.625952137423049 5.7996229700459807 1 rotate no_reflect no_shear #
lump $-1 $-1 $27 $6 #
transform $-1 1 0 0 0 1 0 0 0 1 48.740501113925596 28.625952137423049 5.7996229700459807 1 rotate no_reflect no_shear #
shell $-1 $-1 $-1 $28 $-1 $7 #
shell $-1 $-1 $-1 $29 $-1 $9 #
shell $-1 $-1 $-1 $30 $-1 $11 #
shell $-1 $-1 $-1 $31 $-1 $13 #
shell $-1 $-1 $-1 $32 $-1 $15 #
shell $-1 $-1 $-1 $33 $-1 $17 #
shell $-1 $-1 $-1 $34 $-1 $19 #
face $-1 $35 $36 $21 $-1 $37 forward single #
face $-1 $38 $39 $22 $-1 $40 forward single #
face $-1 $41 $42 $23 $-1 $43 reversed single #
face $-1 $44 $45 $24 $-1 $46 forward single #
face $-1 $47 $48 $25 $-1 $49 forward single #
face $-1 $50 $51 $26 $-1 $52 reversed single #
face $-1 $53 $54 $27 $-1 $55 forward single #
face $-1 $56 $57 $21 $-1 $58 reversed single #
loop $-1 $-1 $59 $28 #
plane-surface $-1 0 0 5.7996229700459807 0 0 1 1 0 0 forward_v I I I I #
face $-1 $60 $61 $22 $-1 $62 reversed single #
loop $-1 $-1 $63 $29 #
plane-surface $-1 0 -26.547072177479837 -1.4029376801760076 0 0 1 1 0 0 forward_v I I I I #
face $-1 $64 $65 $23 $-1 $66 reversed single #
loop $-1 $-1 $67 $30 #
plane-surface $-1 55.955483076524082 20.399240505006912 139.13096846195978 0 1 0 0.74314483375859142 0 0.66913059716165679 forward_v I I I I #
face $-1 $68 $69 $24 $-1 $70 forward single #
loop $-1 $71 $72 $31 #
cone-surface $-1 46.415646715235262 22.7497295428401 3.2957182034839381 -0.74314483375859142 0 -0.66913059716165679 0.3345652985808284 0 -0.37157241687929571 1 I I 0 1 0.5 forward I I I I #
face $-1 $73 $74 $25 $-1 $75 forward single #
loop $-1 $76 $77 $32 #
cone-surface $-1 46.415646715235262 26.275463099589871 3.2957182034839381 -0.74314483375859142 0 -0.66913059716165679 0.3345652985808284 0 -0.37157241687929571 1 I I 0 1 0.5 forward I I I I #
face $-1 $78 $79 $26 $-1 $80 reversed single #
loop $-1 $-1 $81 $33 #
plane-surface $-1 -118.86246659645752 17.051749674290686 69.696158186213211 0 1 0 -0.71933980857756763 0 0.69465836192734942 forward_v I I I I #
face $-1 $82 $83 $27 $-1 $84 forward single #
loop $-1 $85 $86 $34 #
cone-surface $-1 -46.294626475736067 22.838850905856866 3.3088672194982243 0.71933980857756763 0 -0.69465836192734942 0.69465836192734942 0 0.71933980857756763 1 I I 0 1 1 forward I I I I #
face $-1 $87 $88 $21 $-1 $89 reversed single #
loop $-1 $-1 $90 $35 #
plane-surface $-1 0 0 -5.7996229700459807 0 0 1 1 0 0 forward_v I I I I #
coedge $-1 $91 $92 $93 $94 forward $36 $-1 #
face $-1 $95 $96 $22 $-1 $97 reversed single #
loop $-1 $-1 $98 $38 #
plane-surface $-1 0 -26.547072177479837 -4.4029376801760076 0 0 1 1 0 0 forward_v I I I I #
coedge $-1 $99 $100 $101 $102 reversed $39 $-1 #
face $-1 $103 $104 $23 $-1 $105 forward single #
loop $-1 $-1 $106 $41 #
plane-surface $-1 -16.487020118713268 24.512596321214978 73.903447229320918 0.74314483375859142 0 0.66913059716165679 0.66913059716165679 0 -0.74314483375859142 forward_v I I I I #
coedge $-1 $107 $108 $109 $110 reversed $42 $-1 #
face $-1 $-1 $111 $24 $-1 $112 forward single #
loop $-1 $113 $114 $44 #
cone-surface $-1 45.858288089916321 22.7497295428401 2.7938702556126955 -0.74314483375859142 0 -0.66913059716165679 0.1672826492904142 0 -0.18578620843964785 1 I I -0.70710678118654746 0.70710678118654746 0.25 forward I I I I #
loop $-1 $-1 $115 $31 #
coedge $-1 $72 $72 $116 $117 reversed $45 $-1 #
face $-1 $-1 $118 $25 $-1 $119 forward single #
loop $-1 $120 $121 $47 #
cone-surface $-1 45.858288089916321 26.275463099589871 2.7938702556126955 -0.74314483375859142 0 -0.66913059716165679 0.1672826492904142 0 -0.18578620843964785 1 I I -0.70710678118654746 0.70710678118654746 0.25 forward I I I I #
loop $-1 $-1 $122 $32 #
coedge $-1 $77 $77 $123 $124 reversed $48 $-1 #
face $-1 $125 $126 $26 $-1 $127 reversed single #
loop $-1 $-1 $128 $50 #
plane-surface $-1 -48.740501113925603 22.838850905856866 1.9801648595777976 -0.71933980857756763 0 0.69465836192734942 0.69465836192734942 0 0.71933980857756763 forward_v I I I I #
coedge $-1 $129 $130 $131 $132 reversed $51 $-1 #
face $-1 $-1 $133 $27 $-1 $134 forward single #
loop $-1 $135 $136 $53 #
cone-surface $-1 -45.33328580104763 22.838850905856866 2.3805113432208849 0.71933980857756763 0 -0.69465836192734942 0.34732918096367471 0 0.35966990428878381 1 I I -0.70710678118654746 0.70710678118654746 0.5 forward I I I I #
loop $-1 $-1 $137 $34 #
coedge $-1 $86 $86 $138 $139 reversed $54 $-1 #
face $-1 $140 $141 $21 $-1 $142 reversed single #
loop $-1 $-1 $143 $56 #
plane-surface $-1 0 -28.625952137423049 0 0 1 0 0 0 1 forward_v I I I I #
coedge $-1 $144 $145 $146 $147 forward $57 $-1 #
coedge $-1 $148 $59 $149 $150 forward $36 $-1 #
coedge $-1 $59 $148 $151 $152 forward $36 $-1 #
coedge $-1 $153 $154 $59 $94 reversed $155 $-1 #
edge $-1 $156 -28.625952137423049 $157 28.625952137423049 $93 $158 forward 7 unknown #
face $-1 $159 $160 $22 $-1 $161 reversed single #
loop $-1 $-1 $162 $60 #
plane-surface $-1 0 -24.468192217536625 -2.9029376801760076 0 -1 0 0 0 -1 forward_v I I I I #
coedge $-1 $163 $164 $165 $166 reversed $61 $-1 #
coedge $-1 $167 $63 $168 $169 forward $39 $-1 #
coedge $-1 $63 $167 $170 $171 reversed $39 $-1 #
coedge $-1 $172 $173 $63 $102 forward $174 $-1 #
edge $-1 $175 11.194656128796707 $176 15.35241604868313 $101 $177 forward 7 unknown #
face $-1 $178 $179 $23 $-1 $180 reversed single #
loop $-1 $-1 $181 $64 #
plane-surface $-1 0 0 5.7996229700459807 0 0 1 1 0 0 forward_v I I I I #
coedge $-1 $182 $183 $184 $185 reversed $65 $-1 #
coedge $-1 $108 $67 $186 $187 reversed $42 $-1 #
coedge $-1 $67 $107 $182 $188 reversed $42 $-1 #
coedge $-1 $184 $189 $67 $110 forward $179 $-1 #
edge $-1 $190 63.76586126093391 $191 68.104540196896323 $109 $192 forward 7 unknown #
loop $-1 $-1 $116 $68 #
plane-surface $-1 -16.487020118713268 24.512596321214978 73.903447229320918 0.74314483375859142 0 0.66913059716165679 0.66913059716165679 0 -0.74314483375859142 forward_v I I I I #
loop $-1 $-1 $193 $44 #
coedge $-1 $114 $114 $115 $194 reversed $69 $-1 #
coedge $-1 $115 $115 $114 $194 forward $71 $-1 #
coedge $-1 $116 $116 $72 $117 forward $111 $-1 #
edge $-1 $195 0 $195 6.2831853071796004 $116 $196 forward 7 unknown #
loop $-1 $-1 $123 $73 #
plane-surface $-1 -16.487020118713268 24.512596321214978 73.903447229320918 0.74314483375859142 0 0.66913059716165679 0.66913059716165679 0 -0.74314483375859142 forward_v I I I I #
loop $-1 $-1 $197 $47 #
coedge $-1 $121 $121 $122 $198 reversed $74 $-1 #
coedge $-1 $122 $122 $121 $198 forward $76 $-1 #
coedge $-1 $123 $123 $77 $124 forward $118 $-1 #
edge $-1 $199 0 $199 6.2831853071796004 $123 $200 forward 7 unknown #
face $-1 $201 $202 $26 $-1 $203 forward single #
loop $-1 $-1 $204 $78 #
plane-surface $-1 0 28.625952137423049 0 0 -1 0 0 0 -1 forward_v I I I I #
coedge $-1 $205 $206 $207 $208 reversed $79 $-1 #
coedge $-1 $130 $81 $209 $210 reversed $51 $-1 #
coedge $-1 $81 $129 $205 $211 reversed $51 $-1 #
coedge $-1 $207 $212 $81 $132 forward $202 $-1 #
edge $-1 $213 10.690732184303165 $214 14.37913991988291 $131 $215 forward 7 unknown #
loop $-1 $-1 $138 $82 #
plane-surface $-1 -48.740501113925603 22.838850905856866 1.9801648595777976 -0.71933980857756763 0 0.69465836192734942 0.69465836192734942 0 0.71933980857756763 forward_v I I I I #
loop $-1 $-1 $216 $53 #
coedge $-1 $136 $136 $137 $217 reversed $83 $-1 #
coedge $-1 $137 $137 $136 $217 forward $85 $-1 #
coedge $-1 $138 $138 $86 $139 forward $133 $-1 #
edge $-1 $218 0 $218 6.2831853071796004 $138 $219 forward 7 unknown #
face $-1 $220 $221 $21 $-1 $222 reversed single #
loop $-1 $-1 $223 $87 #
plane-surface $-1 -48.740501113925596 0 0 1 0 0 0 0 -1 forward_v I I I I #
coedge $-1 $224 $151 $225 $226 forward $88 $-1 #
coedge $-1 $227 $90 $224 $228 forward $57 $-1 #
coedge $-1 $90 $227 $229 $230 forward $57 $-1 #
coedge $-1 $154 $153 $90 $147 reversed $155 $-1 #
edge $-1 $231 -28.625952137423049 $232 28.625952137423049 $146 $233 forward 7 unknown #
coedge $-1 $92 $91 $234 $235 forward $36 $-1 #
coedge $-1 $236 $237 $91 $150 reversed $221 $-1 #
edge $-1 $157 -48.740501113925596 $238 48.740501113925596 $149 $239 forward 7 unknown #
coedge $-1 $143 $240 $92 $152 reversed $88 $-1 #
edge $-1 $241 -48.740501113925596 $156 48.740501113925596 $151 $242 forward 7 unknown #
coedge $-1 $146 $93 $240 $243 forward $155 $-1 #
coedge $-1 $93 $146 $236 $244 reversed $155 $-1 #
loop $-1 $-1 $153 $220 #
vertex $-1 $94 $245 #
vertex $-1 $94 $246 #
straight-curve $-1 48.740501113925596 0 5.7996229700459807 0 1 0 I I #
face $-1 $247 $248 $22 $-1 $249 reversed single #
loop $-1 $-1 $250 $95 #
plane-surface $-1 -48.740501113925596 0 0 1 0 0 0 0 -1 forward_v I I I I #
coedge $-1 $251 $168 $173 $252 reversed $96 $-1 #
coedge $-1 $253 $98 $254 $255 reversed $61 $-1 #
coedge $-1 $98 $253 $251 $256 forward $61 $-1 #
coedge $-1 $173 $172 $98 $166 forward $174 $-1 #
edge $-1 $257 -15.35241604868313 $258 -11.194656128796707 $165 $259 forward 7 unknown #
coedge $-1 $100 $99 $250 $260 reversed $39 $-1 #
coedge $-1 $162 $261 $99 $169 reversed $96 $-1 #
edge $-1 $175 -48.740501113925596 $262 48.740501113925596 $168 $263 forward 7 unknown #
coedge $-1 $264 $265 $100 $171 forward $248 $-1 #
edge $-1 $176 -48.740501113925596 $266 48.740501113925596 $170 $267 forward 7 unknown #
coedge $-1 $165 $101 $265 $268 forward $174 $-1 #
coedge $-1 $101 $165 $162 $252 forward $174 $-1 #
loop $-1 $-1 $101 $247 #
vertex $-1 $102 $269 #
vertex $-1 $268 $270 #
straight-curve $-1 48.740501113925596 -13.273536088739919 -1.4029376801760076 0 -1 0 I I #
face $-1 $-1 $271 $23 $-1 $272 reversed single #
loop $-1 $-1 $109 $103 #
plane-surface $-1 48.740501113925596 0 0 -1 0 0 0 0 1 forward_v I I I I #
coedge $-1 $186 $273 $274 $275 forward $104 $-1 #
coedge $-1 $274 $106 $108 $188 forward $65 $-1 #
coedge $-1 $106 $274 $276 $277 reversed $65 $-1 #
coedge $-1 $278 $109 $106 $185 forward $179 $-1 #
edge $-1 $191 8.1429423443994224 $279 16.369653976815556 $184 $280 forward 7 unknown #
coedge $-1 $281 $181 $107 $187 forward $104 $-1 #
edge $-1 $282 16.856195612041486 $190 20.762759575663555 $186 $283 forward 7 unknown #
edge $-1 $191 -97.481002227851178 $282 -91.642733913424848 $108 $284 forward 7 unknown #
coedge $-1 $109 $278 $281 $285 reversed $179 $-1 #
vertex $-1 $285 $286 #
vertex $-1 $110 $287 #
straight-curve $-1 48.740501113925596 20.399240505006912 69.565484230979891 0 0 -1 I I #
coedge $-1 $193 $193 $-1 $288 reversed $113 $-1 #
edge $-1 $289 0 $289 6.2831853071796004 $114 $290 forward 7 unknown #
vertex $-1 $117 $291 #
ellipse-curve $-1 46.787219132114558 22.7497295428401 3.6302835020647666 0.74314483375859142 0 0.66913059716165679 0.3345652985808284 0 -0.37157241687929571 1 I I #
coedge $-1 $197 $197 $-1 $292 reversed $120 $-1 #
edge $-1 $293 0 $293 6.2831853071796004 $121 $294 forward 7 unknown #
vertex $-1 $124 $295 #
ellipse-curve $-1 46.787219132114558 26.275463099589871 3.6302835020647666 0.74314483375859142 0 0.66913059716165679 0.3345652985808284 0 -0.37157241687929571 1 I I #
face $-1 $-1 $296 $26 $-1 $297 reversed single #
loop $-1 $-1 $207 $125 #
plane-surface $-1 0 0 5.7996229700459807 0 0 1 1 0 0 forward_v I I I I #
coedge $-1 $298 $299 $206 $300 forward $126 $-1 #
coedge $-1 $301 $128 $130 $211 forward $79 $-1 #
coedge $-1 $128 $301 $204 $300 reversed $79 $-1 #
coedge $-1 $302 $131 $128 $208 forward $202 $-1 #
edge $-1 $214 5.6323242213622535 $303 17.206526684494612 $207 $304 forward 7 unknown #
coedge $-1 $305 $306 $129 $210 forward $296 $-1 #
edge $-1 $307 -32.867914233528801 $213 -29.048456123060625 $209 $308 forward 7 unknown #
edge $-1 $214 -5.3096715417722153 $307 -1.0206786807905858e-014 $130 $309 forward 7 unknown #
coedge $-1 $131 $302 $305 $310 forward $202 $-1 #
vertex $-1 $210 $311 #
vertex $-1 $132 $312 #
straight-curve $-1 -59.431233298228761 17.051749674290686 5.7996229700459807 1 0 0 I I #
coedge $-1 $216 $216 $-1 $313 reversed $135 $-1 #
edge $-1 $314 0 $314 6.2831853071796004 $136 $315 forward 7 unknown #
vertex $-1 $139 $316 #
ellipse-curve $-1 -46.896297246135724 22.838850905856866 3.8898939148118941 -0.71933980857756763 0 0.69465836192734942 0.69465836192734942 0 0.71933980857756763 1 I I #
face $-1 $-1 $155 $21 $-1 $317 reversed single #
loop $-1 $-1 $236 $140 #
plane-surface $-1 0 28.625952137423049 0 0 -1 0 0 0 -1 forward_v I I I I #
coedge $-1 $318 $234 $237 $319 forward $141 $-1 #
coedge $-1 $240 $143 $144 $228 reversed $88 $-1 #
coedge $-1 $234 $318 $143 $226 reversed $141 $-1 #
edge $-1 $241 -5.7996229700459807 $320 5.7996229700459807 $225 $321 forward 7 unknown #
coedge $-1 $145 $144 $318 $322 forward $57 $-1 #
edge $-1 $232 -48.740501113925596 $320 48.740501113925596 $224 $323 forward 7 unknown #
coedge $-1 $237 $236 $145 $230 reversed $221 $-1 #
edge $-1 $324 -48.740501113925596 $231 48.740501113925596 $229 $325 forward 7 unknown #
vertex $-1 $147 $326 #
vertex $-1 $243 $327 #
straight-curve $-1 48.740501113925596 0 -5.7996229700459807 0 -1 0 I I #
coedge $-1 $223 $225 $148 $235 reversed $141 $-1 #
edge $-1 $238 -28.625952137423049 $241 28.625952137423049 $234 $328 forward 7 unknown #
coedge $-1 $229 $149 $154 $244 forward $221 $-1 #
coedge $-1 $149 $229 $223 $319 reversed $221 $-1 #
vertex $-1 $150 $329 #
straight-curve $-1 0 28.625952137423049 5.7996229700459807 -1 0 0 I I #
coedge $-1 $151 $224 $153 $243 reversed $88 $-1 #
vertex $-1 $235 $330 #
straight-curve $-1 0 -28.625952137423049 5.7996229700459807 1 0 0 I I #
edge $-1 $156 -5.7996229700459807 $232 5.7996229700459807 $153 $331 forward 7 unknown #
edge $-1 $157 -5.7996229700459807 $231 5.7996229700459807 $154 $332 forward 7 unknown #
point $-1 48.740501113925596 -28.625952137423049 5.7996229700459807 #
point $-1 48.740501113925596 28.625952137423049 5.7996229700459807 #
face $-1 $-1 $174 $22 $-1 $333 reversed single #
loop $-1 $-1 $170 $159 #
plane-surface $-1 0 -28.625952137423049 0 0 1 0 0 0 1 forward_v I I I I #
coedge $-1 $334 $335 $167 $260 forward $160 $-1 #
coedge $-1 $261 $162 $164 $256 reversed $96 $-1 #
edge $-1 $258 -2.9514688400880038 $175 0.048531159911996191 $173 $336 forward 7 unknown #
coedge $-1 $164 $163 $337 $338 reversed $61 $-1 #
coedge $-1 $265 $264 $163 $255 forward $248 $-1 #
edge $-1 $339 -48.740501113925596 $257 48.740501113925596 $254 $340 forward 7 unknown #
edge $-1 $341 -48.740501113925596 $258 48.740501113925596 $251 $342 forward 7 unknown #
vertex $-1 $255 $343 #
vertex $-1 $166 $344 #
straight-curve $-1 48.740501113925596 -13.273536088739919 -4.4029376801760076 0 1 0 I I #
edge $-1 $266 -15.35241604868313 $262 -11.194656128796707 $250 $345 forward 7 unknown #
coedge $-1 $168 $251 $334 $346 reversed $96 $-1 #
vertex $-1 $260 $347 #
straight-curve $-1 0 -24.468192217536625 -1.4029376801760076 -1 0 0 I I #
coedge $-1 $254 $170 $335 $348 forward $248 $-1 #
coedge $-1 $170 $254 $172 $268 reversed $248 $-1 #
vertex $-1 $348 $349 #
straight-curve $-1 0 -28.625952137423049 -1.4029376801760076 -1 0 0 I I #
edge $-1 $176 1.4029376801760076 $257 4.4029376801760076 $172 $350 forward 7 unknown #
point $-1 48.740501113925596 -24.468192217536625 -1.4029376801760076 #
point $-1 48.740501113925596 -28.625952137423049 -1.4029376801760076 #
loop $-1 $-1 $276 $178 #
plane-surface $-1 0 28.625952137423049 0 0 -1 0 0 0 -1 forward_v I I I I #
coedge $-1 $181 $281 $351 $352 forward $104 $-1 #
coedge $-1 $183 $182 $181 $275 reversed $65 $-1 #
edge $-1 $353 -16.369653976815556 $282 -8.1429423443994224 $181 $354 forward 7 unknown #
coedge $-1 $351 $355 $183 $277 forward $271 $-1 #
edge $-1 $279 -64.50453491641548 $353 -58.66626660198915 $276 $356 forward 7 unknown #
coedge $-1 $189 $184 $355 $357 reversed $179 $-1 #
vertex $-1 $277 $358 #
straight-curve $-1 48.740501113925596 12.256298160607489 1.4609440340835675 0 1 0 I I #
coedge $-1 $273 $186 $189 $285 forward $104 $-1 #
vertex $-1 $187 $359 #
straight-curve $-1 27.977741538262041 20.399240505006912 5.7996229700459878 1 0 0 I I #
straight-curve $-1 -16.487020118713268 20.399240505006912 73.903447229320918 -0.66913059716165679 0 0.74314483375859142 I I #
edge $-1 $190 20.399240505006912 $360 28.625952137423049 $189 $361 forward 7 unknown #
point $-1 48.740501113925596 20.399240505006912 5.7996229700459807 #
point $-1 48.740501113925596 20.399240505006912 1.4609440340835675 #
edge $-1 $362 1 $362 0 $193 $-1 forward 7 unknown #
vertex $-1 $194 $363 #
ellipse-curve $-1 46.044074298355966 22.7497295428401 2.9611529049031096 0.74314483375859142 0 0.66913059716165679 0.3345652985808284 0 -0.37157241687929571 1 I I #
point $-1 47.121784430695392 22.7497295428401 3.258711085185471 #
edge $-1 $364 1 $364 0 $197 $-1 forward 7 unknown #
vertex $-1 $198 $365 #
ellipse-curve $-1 46.044074298355966 26.275463099589871 2.9611529049031096 0.74314483375859142 0 0.66913059716165679 0.3345652985808284 0 -0.37157241687929571 1 I I #
point $-1 47.121784430695392 26.275463099589871 3.258711085185471 #
loop $-1 $-1 $209 $201 #
plane-surface $-1 -48.740501113925596 0 0 1 0 0 0 0 -1 forward_v I I I I #
coedge $-1 $299 $204 $366 $367 reversed $126 $-1 #
coedge $-1 $204 $298 $302 $368 reversed $126 $-1 #
edge $-1 $303 10.907121084366278 $369 16.216792626138481 $204 $370 forward 7 unknown #
coedge $-1 $206 $205 $306 $371 reversed $79 $-1 #
coedge $-1 $212 $207 $299 $368 forward $202 $-1 #
vertex $-1 $368 $372 #
straight-curve $-1 -45.052093378345845 11.419425452928433 5.7996229700459807 0 1 0 I I #
coedge $-1 $366 $209 $212 $310 reversed $296 $-1 #
coedge $-1 $209 $366 $301 $371 forward $296 $-1 #
vertex $-1 $210 $373 #
straight-curve $-1 -48.740501113925596 17.051749674290686 34.848079093106605 0 0 1 I I #
straight-curve $-1 -48.740501113925603 17.051749674290686 1.9801648595777976 -0.69465836192734942 0 -0.71933980857756763 I I #
edge $-1 $374 -28.625952137423049 $213 -17.051749674290686 $305 $375 forward 7 unknown #
point $-1 -48.740501113925596 17.051749674290686 5.7996229700459807 #
point $-1 -45.052093378345852 17.051749674290686 5.7996229700459807 #
edge $-1 $376 1 $376 0 $216 $-1 forward 7 unknown #
vertex $-1 $217 $377 #
ellipse-curve $-1 -45.692955705336416 22.838850905856866 2.7278405241845594 -0.71933980857756763 0 0.69465836192734942 0.69465836192734942 0 0.71933980857756763 1 I I #
point $-1 -46.201638884208364 22.838850905856866 4.6092337233894565 #
plane-surface $-1 48.740501113925596 0 0 -1 0 0 0 0 1 forward_v I I I I #
coedge $-1 $225 $223 $227 $322 reversed $141 $-1 #
edge $-1 $238 -5.7996229700459807 $324 5.7996229700459807 $237 $378 forward 7 unknown #
vertex $-1 $322 $379 #
straight-curve $-1 -48.740501113925596 -28.625952137423049 0 0 0 -1 I I #
edge $-1 $320 -28.625952137423049 $324 28.625952137423049 $318 $380 forward 7 unknown #
straight-curve $-1 0 -28.625952137423049 -5.7996229700459807 -1 0 0 I I #
vertex $-1 $230 $381 #
straight-curve $-1 0 28.625952137423049 -5.7996229700459807 1 0 0 I I #
point $-1 48.740501113925596 28.625952137423049 -5.7996229700459807 #
point $-1 48.740501113925596 -28.625952137423049 -5.7996229700459807 #
straight-curve $-1 -48.740501113925596 0 5.7996229700459807 0 -1 0 I I #
point $-1 -48.740501113925596 28.625952137423049 5.7996229700459807 #
point $-1 -48.740501113925596 -28.625952137423049 5.7996229700459807 #
straight-curve $-1 48.740501113925596 -28.625952137423049 0 0 0 -1 I I #
straight-curve $-1 48.740501113925596 28.625952137423049 0 0 0 -1 I I #
plane-surface $-1 48.740501113925596 0 0 -1 0 0 0 0 1 forward_v I I I I #
coedge $-1 $337 $250 $261 $346 forward $160 $-1 #
coedge $-1 $250 $337 $264 $348 reversed $160 $-1 #
straight-curve $-1 48.740501113925596 -24.468192217536625 -1.4514688400880038 0 0 1 I I #
coedge $-1 $335 $334 $253 $338 forward $160 $-1 #
edge $-1 $341 11.194656128796707 $339 15.35241604868313 $337 $382 forward 7 unknown #
vertex $-1 $255 $383 #
straight-curve $-1 0 -28.625952137423049 -4.4029376801760076 1 0 0 I I #
vertex $-1 $338 $384 #
straight-curve $-1 0 -24.468192217536625 -4.4029376801760076 1 0 0 I I #
point $-1 48.740501113925596 -28.625952137423049 -4.4029376801760076 #
point $-1 48.740501113925596 -24.468192217536625 -4.4029376801760076 #
straight-curve $-1 -48.740501113925596 -13.273536088739919 -1.4029376801760076 0 1 0 I I #
edge $-1 $262 -0.048531159911996191 $341 2.9514688400880038 $334 $385 forward 7 unknown #
point $-1 -48.740501113925596 -24.468192217536625 -1.4029376801760076 #
edge $-1 $266 1.4029376801760076 $339 4.4029376801760076 $335 $386 forward 7 unknown #
point $-1 -48.740501113925596 -28.625952137423049 -1.4029376801760076 #
straight-curve $-1 48.740501113925596 -28.625952137423049 0 0 0 -1 I I #
coedge $-1 $355 $276 $273 $352 reversed $271 $-1 #
edge $-1 $360 -48.740501113925596 $353 -44.833937150303527 $351 $387 forward 7 unknown #
vertex $-1 $277 $388 #
straight-curve $-1 44.833937150303512 12.256298160607489 5.7996229700459807 0 -1 0 I I #
coedge $-1 $276 $351 $278 $357 forward $271 $-1 #
straight-curve $-1 5.5785431456695527 28.625952137423049 49.397155911218412 -0.66913059716165679 0 0.74314483375859142 I I #
edge $-1 $360 -5.7996229700459807 $279 -1.4609440340835675 $278 $389 forward 7 unknown #
point $-1 48.740501113925596 28.625952137423045 1.4609440340835675 #
point $-1 44.833937150303527 20.399240505006912 5.7996229700459736 #
vertex $-1 $285 $390 #
straight-curve $-1 48.740501113925596 0 5.7996229700459807 0 1 0 I I #
vertex $-1 $288 $391 #
point $-1 46.3786395969368 22.7497295428401 2.589580488023814 #
vertex $-1 $292 $392 #
point $-1 46.3786395969368 26.275463099589871 2.589580488023814 #
coedge $-1 $306 $305 $298 $367 forward $296 $-1 #
edge $-1 $374 -5.7996229700459807 $369 -1.980164859577805 $298 $393 forward 7 unknown #
edge $-1 $303 45.052093378345852 $374 48.740501113925596 $299 $394 forward 7 unknown #
vertex $-1 $300 $395 #
straight-curve $-1 -37.47537051253672 28.625952137423049 13.645549363006372 -0.69465836192734942 0 -0.71933980857756763 I I #
edge $-1 $369 -17.206526684494612 $307 -5.6323242213622535 $306 $396 forward 7 unknown #
point $-1 -45.052093378345852 28.625952137423045 5.7996229700459807 #
point $-1 -48.740501113925596 17.051749674290686 1.980164859577805 #
vertex $-1 $368 $397 #
straight-curve $-1 -48.740501113925596 0 5.7996229700459807 0 -1 0 I I #
vertex $-1 $313 $398 #
point $-1 -44.998297343409064 22.838850905856866 3.4471803327621271 #
straight-curve $-1 -48.740501113925596 28.625952137423049 0 0 0 -1 I I #
point $-1 -48.740501113925596 -28.625952137423049 -5.7996229700459807 #
straight-curve $-1 -48.740501113925596 0 -5.7996229700459807 0 1 0 I I #
point $-1 -48.740501113925596 28.625952137423049 -5.7996229700459807 #
straight-curve $-1 -48.740501113925596 -13.273536088739919 -4.4029376801760076 0 -1 0 I I #
point $-1 -48.740501113925596 -28.625952137423049 -4.4029376801760076 #
point $-1 -48.740501113925596 -24.468192217536625 -4.4029376801760076 #
straight-curve $-1 -48.740501113925596 -24.468192217536625 -1.4514688400880038 0 0 -1 I I #
straight-curve $-1 -48.740501113925596 -28.625952137423049 0 0 0 -1 I I #
straight-curve $-1 0 28.625952137423049 5.7996229700459807 -1 0 0 I I #
point $-1 44.833937150303527 28.625952137423045 5.7996229700459736 #
straight-curve $-1 48.740501113925596 28.625952137423049 0 0 0 -1 I I #
point $-1 48.740501113925596 28.625952137423049 5.7996229700459807 #
point $-1 45.672501881476677 22.7497295428401 2.6265876063222815 #
point $-1 45.672501881476677 26.275463099589871 2.6265876063222815 #
straight-curve $-1 -48.740501113925596 28.625952137423049 0 0 0 -1 I I #
straight-curve $-1 0 28.625952137423049 5.7996229700459807 -1 0 0 I I #
point $-1 -48.740501113925596 28.625952137423045 1.980164859577805 #
straight-curve $-1 -48.740501113925596 11.419425452928433 1.9801648595778092 0 -1 0 I I #
point $-1 -48.740501113925596 28.625952137423049 5.7996229700459807 #
point $-1 -44.973615896758844 22.838850905856866 2.0331821622572104 #
End-of-ACIS-data 