500 0 11 0           
7 Unknown 11 ACIS 5.0 NT 24 Thu Mar 25 21:55:43 1999 
-1 9.9999999999999995e-007 1e-010 
body $-1 $11 $-1 $12 #
body $-1 $13 $-1 $14 #
body $-1 $15 $-1 $16 #
body $-1 $17 $-1 $18 #
body $-1 $19 $-1 $20 #
body $-1 $21 $-1 $22 #
body $-1 $23 $-1 $24 #
body $-1 $25 $-1 $26 #
body $-1 $27 $-1 $28 #
body $-1 $29 $-1 $30 #
body $-1 $31 $-1 $32 #
lump $-1 $-1 $33 $0 #
transform $-1 1 0 0 0 1 0 0 0 1 48.323007904293952 24.955949716423326 5.3716183280423015 1 rotate no_reflect no_shear #
lump $-1 $-1 $34 $1 #
transform $-1 1 0 0 0 1 0 0 0 1 48.323007904293952 24.955949716423326 5.3716183280423015 1 rotate no_reflect no_shear #
lump $-1 $-1 $35 $2 #
transform $-1 1 0 0 0 1 0 0 0 1 48.323007904293952 24.955949716423326 5.3716183280423015 1 rotate no_reflect no_shear #
lump $-1 $-1 $36 $3 #
transform $-1 1 0 0 0 1 0 0 0 1 48.323007904293952 24.955949716423326 5.3716183280423015 1 rotate no_reflect no_shear #
lump $-1 $-1 $37 $4 #
transform $-1 1 0 0 0 1 0 0 0 1 48.323007904293952 24.955949716423326 5.3716183280423015 1 rotate no_reflect no_shear #
lump $-1 $-1 $38 $5 #
transform $-1 1 0 0 0 1 0 0 0 1 48.323007904293952 24.955949716423326 5.3716183280423015 1 rotate no_reflect no_shear #
lump $-1 $-1 $39 $6 #
transform $-1 1 0 0 0 1 0 0 0 1 48.323007904293952 24.955949716423326 5.3716183280423015 1 rotate no_reflect no_shear #
lump $-1 $-1 $40 $7 #
transform $-1 1 0 0 0 1 0 0 0 1 48.323007904293952 24.955949716423326 5.3716183280423015 1 rotate no_reflect no_shear #
lump $-1 $-1 $41 $8 #
transform $-1 1 0 0 0 1 0 0 0 1 48.323007904293952 24.955949716423326 5.3716183280423015 1 rotate no_reflect no_shear #
lump $-1 $-1 $42 $9 #
transform $-1 1 0 0 0 1 0 0 0 1 48.323007904293952 24.955949716423326 5.3716183280423015 1 rotate no_reflect no_shear #
lump $-1 $-1 $43 $10 #
transform $-1 1 0 0 0 1 0 0 0 1 48.323007904293952 24.955949716423326 5.3716183280423015 1 rotate no_reflect no_shear #
shell $-1 $-1 $-1 $44 $-1 $11 #
shell $-1 $-1 $-1 $45 $-1 $13 #
shell $-1 $-1 $-1 $46 $-1 $15 #
shell $-1 $-1 $-1 $47 $-1 $17 #
shell $-1 $-1 $-1 $48 $-1 $19 #
shell $-1 $-1 $-1 $49 $-1 $21 #
shell $-1 $-1 $-1 $50 $-1 $23 #
shell $-1 $-1 $-1 $51 $-1 $25 #
shell $-1 $-1 $-1 $52 $-1 $27 #
shell $-1 $-1 $-1 $53 $-1 $29 #
shell $-1 $-1 $-1 $54 $-1 $31 #
face $-1 $55 $56 $33 $-1 $57 forward single #
face $-1 $58 $59 $34 $-1 $60 forward single #
face $-1 $61 $62 $35 $-1 $63 forward single #
face $-1 $64 $65 $36 $-1 $66 reversed single #
face $-1 $67 $68 $37 $-1 $69 forward single #
face $-1 $70 $71 $38 $-1 $72 forward single #
face $-1 $73 $74 $39 $-1 $75 reversed single #
face $-1 $76 $77 $40 $-1 $78 forward single #
face $-1 $79 $80 $41 $-1 $81 forward single #
face $-1 $82 $83 $42 $-1 $84 reversed single #
face $-1 $85 $86 $43 $-1 $87 forward single #
face $-1 $88 $89 $33 $-1 $90 reversed single #
loop $-1 $-1 $91 $44 #
plane-surface $-1 0 0 5.3716183280423015 0 0 1 1 0 0 forward_v I I I I #
face $-1 $92 $93 $34 $-1 $94 reversed single #
loop $-1 $-1 $95 $45 #
plane-surface $-1 0 -22.21436372144624 4.5480708642386336 0 0 1 1 0 0 forward_v I I I I #
face $-1 $96 $97 $35 $-1 $98 reversed single #
loop $-1 $-1 $99 $46 #
plane-surface $-1 0 22.21436372144624 4.5480708642386336 0 0 1 1 0 0 forward_v I I I I #
face $-1 $100 $101 $36 $-1 $102 reversed single #
loop $-1 $-1 $103 $47 #
plane-surface $-1 -121.26268272645467 -10.780552589564088 63.759275283041831 0 -1 0 0.75470958851134928 0 -0.65605901945558964 forward_v I I I I #
face $-1 $104 $105 $37 $-1 $106 forward single #
loop $-1 $107 $108 $48 #
cone-surface $-1 -45.764685147453882 -16.989284830210565 2.5346721129784777 0.75470958851134928 0 -0.65605901945558964 0.32802950972779482 0 0.37735479425567464 1 I I 0 1 0.5 forward I I I I #
face $-1 $109 $110 $38 $-1 $111 forward single #
loop $-1 $112 $113 $49 #
cone-surface $-1 -45.764685147453882 -13.264045485822679 2.5346721129784777 0.75470958851134928 0 -0.65605901945558964 0.32802950972779482 0 0.37735479425567464 1 I I 0 1 0.5 forward I I I I #
face $-1 $114 $115 $39 $-1 $116 reversed single #
loop $-1 $-1 $117 $50 #
plane-surface $-1 -121.26268272645467 0 63.759275283041831 0 1 0 -0.75470958851134928 0 0.65605901945558964 forward_v I I I I #
face $-1 $118 $119 $40 $-1 $120 forward single #
loop $-1 $121 $122 $51 #
cone-surface $-1 -45.764685147453882 2.4834928962585892 2.5346721129784777 0.75470958851134928 0 -0.65605901945558964 0.32802950972779482 0 0.37735479425567464 1 I I 0 1 0.5 forward I I I I #
face $-1 $123 $124 $41 $-1 $125 forward single #
loop $-1 $126 $127 $52 #
cone-surface $-1 -45.764685147453882 6.2087322406464764 2.5346721129784777 0.75470958851134928 0 -0.65605901945558964 0.32802950972779482 0 0.37735479425567464 1 I I 0 1 0.5 forward I I I I #
face $-1 $128 $129 $42 $-1 $130 reversed single #
loop $-1 $-1 $131 $53 #
plane-surface $-1 53.093006679904796 12.883532697891047 137.76498491008968 0 -1 0 -0.73135370988377701 0 -0.68199835119979291 forward_v I I I I #
face $-1 $132 $133 $43 $-1 $134 forward single #
loop $-1 $135 $136 $54 #
cone-surface $-1 45.67849438091902 9.5305476335269361 2.6316003074521577 -0.73135370988377701 0 -0.68199835119979291 0.68199835119979291 0 -0.73135370988377701 1 I I 0 1 1 forward I I I I #
face $-1 $137 $138 $33 $-1 $139 reversed single #
loop $-1 $-1 $140 $55 #
plane-surface $-1 0 0 -5.3716183280423015 0 0 1 1 0 0 forward_v I I I I #
coedge $-1 $141 $142 $143 $144 forward $56 $-1 #
face $-1 $145 $146 $34 $-1 $147 reversed single #
loop $-1 $-1 $148 $58 #
plane-surface $-1 0 -22.21436372144624 1.5480708642386323 0 0 1 1 0 0 forward_v I I I I #
coedge $-1 $149 $150 $151 $152 reversed $59 $-1 #
face $-1 $153 $154 $35 $-1 $155 reversed single #
loop $-1 $-1 $156 $61 #
plane-surface $-1 0 22.21436372144624 1.5480708642386323 0 0 1 1 0 0 forward_v I I I I #
coedge $-1 $157 $158 $159 $160 reversed $62 $-1 #
face $-1 $161 $162 $36 $-1 $163 forward single #
loop $-1 $-1 $164 $64 #
plane-surface $-1 -48.323007904293931 -15.126665158016621 0.3537849173702341 -0.75470958851134928 0 0.65605901945558964 0.65605901945558964 0 0.75470958851134928 forward_v I I I I #
coedge $-1 $165 $166 $167 $168 reversed $65 $-1 #
face $-1 $-1 $169 $37 $-1 $170 forward single #
loop $-1 $171 $172 $67 #
cone-surface $-1 -45.198652956070369 -16.989284830210565 2.0426278483867852 0.75470958851134928 0 -0.65605901945558964 0.16401475486389741 0 0.18867739712783732 1 I I -0.70710678118654746 0.70710678118654746 0.25 forward I I I I #
loop $-1 $-1 $173 $48 #
coedge $-1 $108 $108 $174 $175 reversed $68 $-1 #
face $-1 $-1 $176 $38 $-1 $177 forward single #
loop $-1 $178 $179 $70 #
cone-surface $-1 -45.198652956070369 -13.264045485822679 2.0426278483867852 0.75470958851134928 0 -0.65605901945558964 0.16401475486389741 0 0.18867739712783732 1 I I -0.70710678118654746 0.70710678118654746 0.25 forward I I I I #
loop $-1 $-1 $180 $49 #
coedge $-1 $113 $113 $181 $182 reversed $71 $-1 #
face $-1 $183 $184 $39 $-1 $185 reversed single #
loop $-1 $-1 $186 $73 #
plane-surface $-1 -48.323007904293931 4.3461125684525328 0.3537849173702341 -0.75470958851134928 0 0.65605901945558964 0.65605901945558964 0 0.75470958851134928 forward_v I I I I #
coedge $-1 $187 $188 $189 $190 reversed $74 $-1 #
face $-1 $-1 $191 $40 $-1 $192 forward single #
loop $-1 $193 $194 $76 #
cone-surface $-1 -45.198652956070369 2.4834928962585892 2.0426278483867852 0.75470958851134928 0 -0.65605901945558964 0.16401475486389741 0 0.18867739712783732 1 I I -0.70710678118654746 0.70710678118654746 0.25 forward I I I I #
loop $-1 $-1 $195 $51 #
coedge $-1 $122 $122 $196 $197 reversed $77 $-1 #
face $-1 $-1 $198 $41 $-1 $199 forward single #
loop $-1 $200 $201 $79 #
cone-surface $-1 -45.198652956070369 6.2087322406464764 2.0426278483867852 0.75470958851134928 0 -0.65605901945558964 0.16401475486389741 0 0.18867739712783732 1 I I -0.70710678118654746 0.70710678118654746 0.25 forward I I I I #
loop $-1 $-1 $202 $52 #
coedge $-1 $127 $127 $203 $204 reversed $80 $-1 #
face $-1 $205 $206 $42 $-1 $207 reversed single #
loop $-1 $-1 $208 $82 #
plane-surface $-1 -17.589415527192124 9.5305476335269361 71.852561478603604 0.73135370988377701 0 0.68199835119979291 0.68199835119979291 0 -0.73135370988377701 forward_v I I I I #
coedge $-1 $209 $210 $211 $212 reversed $83 $-1 #
face $-1 $-1 $213 $43 $-1 $214 forward single #
loop $-1 $215 $216 $85 #
cone-surface $-1 44.627275257163227 9.5305476335269361 1.6513226395299236 -0.73135370988377701 0 -0.68199835119979291 0.34099917559989645 0 -0.36567685494188851 1 I I -0.70710678118654746 0.70710678118654746 0.5 forward I I I I #
loop $-1 $-1 $217 $54 #
coedge $-1 $136 $136 $218 $219 reversed $86 $-1 #
face $-1 $220 $221 $33 $-1 $222 reversed single #
loop $-1 $-1 $223 $88 #
plane-surface $-1 0 -24.955949716423326 0 0 1 0 0 0 1 forward_v I I I I #
coedge $-1 $224 $225 $226 $227 forward $89 $-1 #
coedge $-1 $228 $91 $229 $230 forward $56 $-1 #
coedge $-1 $91 $228 $231 $232 forward $56 $-1 #
coedge $-1 $233 $234 $91 $144 reversed $235 $-1 #
edge $-1 $236 -24.955949716423326 $237 24.955949716423326 $143 $238 forward 7 unknown #
face $-1 $239 $240 $34 $-1 $241 reversed single #
loop $-1 $-1 $242 $92 #
plane-surface $-1 0 -19.472777726469154 3.0480708642386327 0 -1 0 0 0 -1 forward_v I I I I #
coedge $-1 $243 $244 $245 $246 reversed $93 $-1 #
coedge $-1 $247 $95 $248 $249 forward $59 $-1 #
coedge $-1 $95 $247 $250 $251 reversed $59 $-1 #
coedge $-1 $252 $253 $95 $152 forward $254 $-1 #
edge $-1 $255 8.3655958657460339 $256 13.848767855700206 $151 $257 forward 7 unknown #
face $-1 $258 $259 $35 $-1 $260 reversed single #
loop $-1 $-1 $261 $96 #
plane-surface $-1 0 19.472777726469154 3.0480708642386327 0 1 0 0 0 1 forward_v I I I I #
coedge $-1 $262 $263 $264 $265 reversed $97 $-1 #
coedge $-1 $266 $99 $267 $268 reversed $62 $-1 #
coedge $-1 $99 $266 $269 $270 forward $62 $-1 #
coedge $-1 $271 $272 $99 $160 forward $259 $-1 #
edge $-1 $273 -13.848767855700206 $274 -8.3655958657460339 $159 $275 forward 7 unknown #
face $-1 $276 $277 $36 $-1 $278 reversed single #
loop $-1 $-1 $279 $100 #
plane-surface $-1 0 0 5.3716183280423015 0 0 1 1 0 0 forward_v I I I I #
coedge $-1 $280 $281 $282 $283 reversed $101 $-1 #
coedge $-1 $166 $103 $284 $285 reversed $65 $-1 #
coedge $-1 $103 $165 $280 $286 reversed $65 $-1 #
coedge $-1 $282 $287 $103 $168 forward $277 $-1 #
edge $-1 $288 26.508019313478613 $289 31.525852724150706 $167 $290 forward 7 unknown #
loop $-1 $-1 $174 $104 #
plane-surface $-1 -48.323007904293931 -15.126665158016621 0.3537849173702341 -0.75470958851134928 0 0.65605901945558964 0.65605901945558964 0 0.75470958851134928 forward_v I I I I #
loop $-1 $-1 $291 $67 #
coedge $-1 $172 $172 $173 $292 reversed $105 $-1 #
coedge $-1 $173 $173 $172 $292 forward $107 $-1 #
coedge $-1 $174 $174 $108 $175 forward $169 $-1 #
edge $-1 $293 0 $293 6.2831853071796004 $174 $294 forward 7 unknown #
loop $-1 $-1 $181 $109 #
plane-surface $-1 -48.323007904293931 -15.126665158016621 0.3537849173702341 -0.75470958851134928 0 0.65605901945558964 0.65605901945558964 0 0.75470958851134928 forward_v I I I I #
loop $-1 $-1 $295 $70 #
coedge $-1 $179 $179 $180 $296 reversed $110 $-1 #
coedge $-1 $180 $180 $179 $296 forward $112 $-1 #
coedge $-1 $181 $181 $113 $182 forward $176 $-1 #
edge $-1 $297 0 $297 6.2831853071796004 $181 $298 forward 7 unknown #
face $-1 $299 $300 $39 $-1 $301 forward single #
loop $-1 $-1 $302 $114 #
plane-surface $-1 -121.26268272645467 8.6922251369050656 63.759275283041831 0 -1 0 0.75470958851134928 0 -0.65605901945558964 forward_v I I I I #
coedge $-1 $303 $304 $305 $306 reversed $115 $-1 #
coedge $-1 $188 $117 $307 $308 reversed $74 $-1 #
coedge $-1 $117 $187 $303 $309 reversed $74 $-1 #
coedge $-1 $305 $310 $117 $190 forward $300 $-1 #
edge $-1 $311 12.308333458933383 $312 16.670269384102198 $189 $313 forward 7 unknown #
loop $-1 $-1 $196 $118 #
plane-surface $-1 -48.323007904293931 4.3461125684525328 0.3537849173702341 -0.75470958851134928 0 0.65605901945558964 0.65605901945558964 0 0.75470958851134928 forward_v I I I I #
loop $-1 $-1 $314 $76 #
coedge $-1 $194 $194 $195 $315 reversed $119 $-1 #
coedge $-1 $195 $195 $194 $315 forward $121 $-1 #
coedge $-1 $196 $196 $122 $197 forward $191 $-1 #
edge $-1 $316 0 $316 6.2831853071796004 $196 $317 forward 7 unknown #
loop $-1 $-1 $203 $123 #
plane-surface $-1 -48.323007904293931 4.3461125684525328 0.3537849173702341 -0.75470958851134928 0 0.65605901945558964 0.65605901945558964 0 0.75470958851134928 forward_v I I I I #
loop $-1 $-1 $318 $79 #
coedge $-1 $201 $201 $202 $319 reversed $124 $-1 #
coedge $-1 $202 $202 $201 $319 forward $126 $-1 #
coedge $-1 $203 $203 $127 $204 forward $198 $-1 #
edge $-1 $320 0 $320 6.2831853071796004 $203 $321 forward 7 unknown #
face $-1 $322 $323 $42 $-1 $324 reversed single #
loop $-1 $-1 $325 $128 #
plane-surface $-1 53.093006679904796 6.1775625691628253 137.76498491008968 0 1 0 0.73135370988377701 0 0.68199835119979291 forward_v I I I I #
coedge $-1 $326 $327 $328 $329 reversed $129 $-1 #
coedge $-1 $210 $131 $330 $331 reversed $83 $-1 #
coedge $-1 $131 $209 $326 $332 reversed $83 $-1 #
coedge $-1 $328 $333 $131 $212 forward $334 $-1 #
edge $-1 $335 -21.776504564341554 $336 -17.858562055219512 $211 $337 forward 7 unknown #
loop $-1 $-1 $218 $132 #
plane-surface $-1 -17.589415527192124 9.5305476335269361 71.852561478603604 0.73135370988377701 0 0.68199835119979291 0.68199835119979291 0 -0.73135370988377701 forward_v I I I I #
loop $-1 $-1 $338 $85 #
coedge $-1 $216 $216 $217 $339 reversed $133 $-1 #
coedge $-1 $217 $217 $216 $339 forward $135 $-1 #
coedge $-1 $218 $218 $136 $219 forward $213 $-1 #
edge $-1 $340 0 $340 6.2831853071796004 $218 $341 forward 7 unknown #
face $-1 $342 $343 $33 $-1 $344 reversed single #
loop $-1 $-1 $345 $137 #
plane-surface $-1 -48.323007904293952 0 0 1 0 0 0 0 -1 forward_v I I I I #
coedge $-1 $346 $231 $347 $348 forward $138 $-1 #
coedge $-1 $349 $140 $346 $350 forward $89 $-1 #
coedge $-1 $140 $349 $351 $352 forward $89 $-1 #
coedge $-1 $234 $233 $140 $227 reversed $235 $-1 #
edge $-1 $353 -24.955949716423326 $354 24.955949716423326 $226 $355 forward 7 unknown #
coedge $-1 $142 $141 $356 $357 forward $56 $-1 #
coedge $-1 $358 $359 $141 $230 reversed $343 $-1 #
edge $-1 $237 -48.323007904293952 $360 48.323007904293952 $229 $361 forward 7 unknown #
coedge $-1 $223 $362 $142 $232 reversed $138 $-1 #
edge $-1 $363 -48.323007904293952 $236 48.323007904293952 $231 $364 forward 7 unknown #
coedge $-1 $226 $143 $362 $365 forward $235 $-1 #
coedge $-1 $143 $226 $358 $366 reversed $235 $-1 #
loop $-1 $-1 $233 $342 #
vertex $-1 $144 $367 #
vertex $-1 $144 $368 #
straight-curve $-1 48.323007904293952 0 5.3716183280423015 0 1 0 I I #
face $-1 $369 $370 $34 $-1 $371 reversed single #
loop $-1 $-1 $372 $145 #
plane-surface $-1 -48.323007904293952 0 0 1 0 0 0 0 -1 forward_v I I I I #
coedge $-1 $373 $248 $253 $374 reversed $146 $-1 #
coedge $-1 $375 $148 $376 $377 reversed $93 $-1 #
coedge $-1 $148 $375 $373 $378 forward $93 $-1 #
coedge $-1 $253 $252 $148 $246 forward $254 $-1 #
edge $-1 $379 -13.848767855700206 $380 -8.3655958657460339 $245 $381 forward 7 unknown #
coedge $-1 $150 $149 $372 $382 reversed $59 $-1 #
coedge $-1 $242 $383 $149 $249 reversed $146 $-1 #
edge $-1 $255 -48.323007904293952 $384 48.323007904293952 $248 $385 forward 7 unknown #
coedge $-1 $386 $387 $150 $251 forward $370 $-1 #
edge $-1 $256 -48.323007904293952 $388 48.323007904293952 $250 $389 forward 7 unknown #
coedge $-1 $245 $151 $387 $390 forward $254 $-1 #
coedge $-1 $151 $245 $242 $374 forward $254 $-1 #
loop $-1 $-1 $151 $369 #
vertex $-1 $152 $391 #
vertex $-1 $390 $392 #
straight-curve $-1 48.323007904293952 -11.10718186072312 4.5480708642386336 0 -1 0 I I #
face $-1 $393 $394 $35 $-1 $395 reversed single #
loop $-1 $-1 $159 $153 #
plane-surface $-1 48.323007904293952 0 0 -1 0 0 0 0 1 forward_v I I I I #
coedge $-1 $396 $269 $397 $398 reversed $154 $-1 #
coedge $-1 $399 $156 $396 $400 forward $97 $-1 #
coedge $-1 $156 $399 $401 $402 reversed $97 $-1 #
coedge $-1 $272 $271 $156 $265 forward $259 $-1 #
edge $-1 $403 8.3655958657460339 $404 13.848767855700206 $264 $405 forward 7 unknown #
coedge $-1 $158 $157 $406 $407 reversed $62 $-1 #
coedge $-1 $408 $409 $157 $268 forward $410 $-1 #
edge $-1 $411 -48.323007904293952 $273 48.323007904293952 $267 $412 forward 7 unknown #
coedge $-1 $261 $413 $158 $270 reversed $154 $-1 #
edge $-1 $414 -48.323007904293952 $274 48.323007904293952 $269 $415 forward 7 unknown #
coedge $-1 $264 $159 $413 $416 forward $259 $-1 #
coedge $-1 $159 $264 $408 $417 reversed $259 $-1 #
vertex $-1 $417 $418 #
vertex $-1 $160 $419 #
straight-curve $-1 48.323007904293952 11.10718186072312 4.5480708642386336 0 -1 0 I I #
face $-1 $-1 $420 $36 $-1 $421 forward single #
loop $-1 $-1 $422 $161 #
plane-surface $-1 -48.323007904293952 0 0 1 0 0 0 0 -1 forward_v I I I I #
coedge $-1 $423 $424 $425 $426 forward $162 $-1 #
coedge $-1 $427 $164 $166 $286 forward $101 $-1 #
coedge $-1 $164 $427 $428 $429 forward $101 $-1 #
coedge $-1 $422 $167 $164 $283 forward $277 $-1 #
edge $-1 $289 3.2172200105557778 $430 11.909445147460843 $282 $431 forward 7 unknown #
coedge $-1 $424 $423 $165 $285 forward $162 $-1 #
edge $-1 $432 -16.670269384102198 $288 -12.308333458933383 $284 $433 forward 7 unknown #
edge $-1 $289 -3.2502239876883887e-014 $432 6.6486943945811676 $166 $434 forward 7 unknown #
coedge $-1 $167 $422 $424 $435 reversed $277 $-1 #
vertex $-1 $435 $436 #
vertex $-1 $168 $437 #
straight-curve $-1 -48.323007904293952 -10.780552589564088 31.879637641520915 0 0 -1 I I #
coedge $-1 $291 $291 $-1 $438 reversed $171 $-1 #
edge $-1 $439 0 $439 6.2831853071796004 $172 $440 forward 7 unknown #
vertex $-1 $175 $441 #
ellipse-curve $-1 -46.142039941709541 -16.989284830210565 2.8627016227062585 -0.75470958851134928 0 0.65605901945558964 0.32802950972779482 0 0.37735479425567464 1 I I #
coedge $-1 $295 $295 $-1 $442 reversed $178 $-1 #
edge $-1 $443 0 $443 6.2831853071796004 $179 $444 forward 7 unknown #
vertex $-1 $182 $445 #
ellipse-curve $-1 -46.142039941709541 -13.264045485822679 2.8627016227062585 -0.75470958851134928 0 0.65605901945558964 0.32802950972779482 0 0.37735479425567464 1 I I #
face $-1 $-1 $446 $39 $-1 $447 reversed single #
loop $-1 $-1 $189 $183 #
plane-surface $-1 0 0 5.3716183280423015 0 0 1 1 0 0 forward_v I I I I #
coedge $-1 $448 $449 $450 $451 reversed $184 $-1 #
coedge $-1 $452 $186 $188 $309 forward $115 $-1 #
coedge $-1 $186 $452 $448 $453 forward $115 $-1 #
coedge $-1 $450 $189 $186 $306 forward $300 $-1 #
edge $-1 $312 -2.1730562842262664 $454 6.5191688526787992 $305 $455 forward 7 unknown #
coedge $-1 $456 $457 $187 $308 forward $446 $-1 #
edge $-1 $458 -31.525852724150706 $311 -26.508019313478613 $307 $459 forward 7 unknown #
edge $-1 $312 -6.6486943945811676 $458 3.2502239876883887e-014 $188 $460 forward 7 unknown #
coedge $-1 $189 $450 $456 $461 forward $300 $-1 #
vertex $-1 $190 $462 #
vertex $-1 $190 $463 #
straight-curve $-1 -60.631341363227335 0 5.3716183280423024 1 0 0 I I #
coedge $-1 $314 $314 $-1 $464 reversed $193 $-1 #
edge $-1 $465 0 $465 6.2831853071796004 $194 $466 forward 7 unknown #
vertex $-1 $197 $467 #
ellipse-curve $-1 -46.142039941709541 2.4834928962585892 2.8627016227062585 -0.75470958851134928 0 0.65605901945558964 0.32802950972779482 0 0.37735479425567464 1 I I #
coedge $-1 $318 $318 $-1 $468 reversed $200 $-1 #
edge $-1 $469 0 $469 6.2831853071796004 $201 $470 forward 7 unknown #
vertex $-1 $204 $471 #
ellipse-curve $-1 -46.142039941709541 6.2087322406464764 2.8627016227062585 -0.75470958851134928 0 0.65605901945558964 0.32802950972779482 0 0.37735479425567464 1 I I #
face $-1 $-1 $334 $42 $-1 $472 forward single #
loop $-1 $-1 $473 $205 #
plane-surface $-1 48.323007904293952 0 0 -1 0 0 0 0 1 forward_v I I I I #
coedge $-1 $474 $475 $476 $477 reversed $206 $-1 #
coedge $-1 $478 $208 $210 $332 forward $129 $-1 #
coedge $-1 $208 $478 $474 $479 forward $129 $-1 #
coedge $-1 $476 $211 $208 $329 forward $334 $-1 #
edge $-1 $336 -8.1182588811275789 $480 -1.4122887523993573 $328 $481 forward 7 unknown #
coedge $-1 $482 $483 $209 $331 forward $323 $-1 #
edge $-1 $484 -67.712353183538156 $335 -63.510874127002538 $330 $485 forward 7 unknown #
edge $-1 $336 90.901218182274761 $484 96.64601580858789 $210 $486 forward 7 unknown #
coedge $-1 $211 $476 $482 $487 forward $334 $-1 #
loop $-1 $-1 $476 $322 #
vertex $-1 $331 $488 #
vertex $-1 $212 $489 #
straight-curve $-1 26.546503339952398 12.883532697891047 5.3716183280423024 -1 0 0 I I #
coedge $-1 $338 $338 $-1 $490 reversed $215 $-1 #
edge $-1 $491 0 $491 6.2831853071796004 $216 $492 forward 7 unknown #
vertex $-1 $219 $493 #
ellipse-curve $-1 46.364036649732924 9.5305476335269361 3.2708787997744917 0.73135370988377701 0 0.68199835119979291 0.68199835119979291 0 -0.73135370988377701 1 I I #
face $-1 $-1 $235 $33 $-1 $494 reversed single #
loop $-1 $-1 $358 $220 #
plane-surface $-1 0 24.955949716423326 0 0 -1 0 0 0 -1 forward_v I I I I #
coedge $-1 $495 $356 $359 $496 forward $221 $-1 #
coedge $-1 $362 $223 $224 $350 reversed $138 $-1 #
coedge $-1 $356 $495 $223 $348 reversed $221 $-1 #
edge $-1 $363 -5.3716183280423015 $497 5.3716183280423015 $347 $498 forward 7 unknown #
coedge $-1 $225 $224 $495 $499 forward $89 $-1 #
edge $-1 $354 -48.323007904293952 $497 48.323007904293952 $346 $500 forward 7 unknown #
coedge $-1 $359 $358 $225 $352 reversed $343 $-1 #
edge $-1 $501 -48.323007904293952 $353 48.323007904293952 $351 $502 forward 7 unknown #
vertex $-1 $227 $503 #
vertex $-1 $365 $504 #
straight-curve $-1 48.323007904293952 0 -5.3716183280423015 0 -1 0 I I #
coedge $-1 $345 $347 $228 $357 reversed $221 $-1 #
edge $-1 $360 -24.955949716423326 $363 24.955949716423326 $356 $505 forward 7 unknown #
coedge $-1 $351 $229 $234 $366 forward $343 $-1 #
coedge $-1 $229 $351 $345 $496 reversed $343 $-1 #
vertex $-1 $230 $506 #
straight-curve $-1 0 24.955949716423326 5.3716183280423015 -1 0 0 I I #
coedge $-1 $231 $346 $233 $365 reversed $138 $-1 #
vertex $-1 $357 $507 #
straight-curve $-1 0 -24.955949716423326 5.3716183280423015 1 0 0 I I #
edge $-1 $236 -5.3716183280423015 $354 5.3716183280423015 $233 $508 forward 7 unknown #
edge $-1 $237 -5.3716183280423015 $353 5.3716183280423015 $234 $509 forward 7 unknown #
point $-1 48.323007904293952 -24.955949716423326 5.3716183280423015 #
point $-1 48.323007904293952 24.955949716423326 5.3716183280423015 #
face $-1 $-1 $254 $34 $-1 $510 reversed single #
loop $-1 $-1 $250 $239 #
plane-surface $-1 0 -24.955949716423326 0 0 1 0 0 0 1 forward_v I I I I #
coedge $-1 $511 $512 $247 $382 forward $240 $-1 #
coedge $-1 $383 $242 $244 $378 reversed $146 $-1 #
edge $-1 $380 0.024035432119315914 $255 3.0240354321193172 $253 $513 forward 7 unknown #
coedge $-1 $244 $243 $514 $515 reversed $93 $-1 #
coedge $-1 $387 $386 $243 $377 forward $370 $-1 #
edge $-1 $516 -48.323007904293952 $379 48.323007904293952 $376 $517 forward 7 unknown #
edge $-1 $518 -48.323007904293952 $380 48.323007904293952 $373 $519 forward 7 unknown #
vertex $-1 $377 $520 #
vertex $-1 $246 $521 #
straight-curve $-1 48.323007904293952 -11.10718186072312 1.5480708642386323 0 1 0 I I #
edge $-1 $388 -13.848767855700206 $384 -8.3655958657460339 $372 $522 forward 7 unknown #
coedge $-1 $248 $373 $511 $523 reversed $146 $-1 #
vertex $-1 $382 $524 #
straight-curve $-1 0 -19.472777726469154 4.5480708642386336 -1 0 0 I I #
coedge $-1 $376 $250 $512 $525 forward $370 $-1 #
coedge $-1 $250 $376 $252 $390 reversed $370 $-1 #
vertex $-1 $525 $526 #
straight-curve $-1 0 -24.955949716423326 4.5480708642386336 -1 0 0 I I #
edge $-1 $256 -4.5480708642386336 $379 -1.5480708642386323 $252 $527 forward 7 unknown #
point $-1 48.323007904293952 -19.472777726469154 4.5480708642386336 #
point $-1 48.323007904293952 -24.955949716423326 4.5480708642386336 #
face $-1 $-1 $410 $35 $-1 $528 reversed single #
loop $-1 $-1 $406 $258 #
plane-surface $-1 -48.323007904293952 0 0 1 0 0 0 0 -1 forward_v I I I I #
coedge $-1 $413 $261 $262 $400 reversed $154 $-1 #
coedge $-1 $406 $529 $261 $398 forward $394 $-1 #
edge $-1 $530 0.024035432119315914 $414 3.0240354321193172 $397 $531 forward 7 unknown #
coedge $-1 $263 $262 $529 $532 reversed $97 $-1 #
edge $-1 $403 -48.323007904293952 $530 48.323007904293952 $396 $533 forward 7 unknown #
coedge $-1 $409 $408 $263 $402 forward $410 $-1 #
edge $-1 $404 -48.323007904293952 $534 48.323007904293952 $401 $535 forward 7 unknown #
vertex $-1 $265 $536 #
vertex $-1 $402 $537 #
straight-curve $-1 48.323007904293952 11.10718186072312 1.5480708642386323 0 1 0 I I #
coedge $-1 $538 $397 $266 $407 forward $394 $-1 #
edge $-1 $414 8.3655958657460339 $411 13.848767855700206 $406 $539 forward 7 unknown #
coedge $-1 $401 $267 $272 $417 forward $410 $-1 #
coedge $-1 $267 $401 $538 $540 reversed $410 $-1 #
loop $-1 $-1 $267 $393 #
vertex $-1 $540 $541 #
straight-curve $-1 0 24.955949716423326 4.5480708642386336 1 0 0 I I #
coedge $-1 $269 $396 $271 $416 reversed $154 $-1 #
vertex $-1 $407 $542 #
straight-curve $-1 0 19.472777726469154 4.5480708642386336 1 0 0 I I #
edge $-1 $274 -3.0240354321193172 $403 -0.024035432119315914 $271 $543 forward 7 unknown #
edge $-1 $273 -4.5480708642386336 $404 -1.5480708642386323 $272 $544 forward 7 unknown #
point $-1 48.323007904293952 24.955949716423326 4.5480708642386336 #
point $-1 48.323007904293952 19.472777726469154 4.5480708642386336 #
loop $-1 $-1 $428 $276 #
plane-surface $-1 0 -19.472777726469154 3.0480708642386327 0 -1 0 0 0 -1 forward_v I I I I #
coedge $-1 $287 $282 $545 $546 forward $277 $-1 #
coedge $-1 $284 $279 $427 $547 forward $162 $-1 #
coedge $-1 $279 $284 $287 $435 forward $162 $-1 #
coedge $-1 $545 $428 $279 $426 reversed $420 $-1 #
edge $-1 $548 12.308333458933383 $549 16.670269384102198 $279 $550 forward 7 unknown #
coedge $-1 $281 $280 $423 $547 reversed $101 $-1 #
coedge $-1 $425 $545 $281 $429 reversed $420 $-1 #
edge $-1 $549 -6.6486943945811676 $430 3.2502239876883887e-014 $428 $551 forward 7 unknown #
vertex $-1 $283 $552 #
straight-curve $-1 -48.323007904293952 -7.5633325790083106 0.35378491737021767 0 -1 0 I I #
vertex $-1 $285 $553 #
straight-curve $-1 -60.631341363227335 -10.780552589564088 5.3716183280423024 -1 0 0 I I #
straight-curve $-1 -48.323007904293931 -10.780552589564088 0.3537849173702341 0.65605901945558964 0 0.75470958851134928 I I #
edge $-1 $288 10.780552589564088 $548 19.472777726469154 $287 $554 forward 7 unknown #
point $-1 -48.323007904293952 -10.780552589564088 5.3716183280423015 #
point $-1 -48.323007904293952 -10.780552589564088 0.35378491737020956 #
edge $-1 $555 1 $555 0 $291 $-1 forward 7 unknown #
vertex $-1 $292 $556 #
ellipse-curve $-1 -45.387330353198209 -16.989284830210565 2.2066426032506827 -0.75470958851134928 0 0.65605901945558964 0.32802950972779482 0 0.37735479425567464 1 I I #
point $-1 -45.814010431981764 -16.989284830210565 3.2400564169619468 #
edge $-1 $557 1 $557 0 $295 $-1 forward 7 unknown #
vertex $-1 $296 $558 #
ellipse-curve $-1 -45.387330353198209 -13.264045485822679 2.2066426032506827 -0.75470958851134928 0 0.65605901945558964 0.32802950972779482 0 0.37735479425567464 1 I I #
point $-1 -45.814010431981764 -13.264045485822679 3.2400564169619468 #
loop $-1 $-1 $307 $299 #
plane-surface $-1 -48.323007904293952 0 0 1 0 0 0 0 -1 forward_v I I I I #
coedge $-1 $449 $302 $304 $453 reversed $184 $-1 #
coedge $-1 $302 $448 $559 $560 reversed $184 $-1 #
coedge $-1 $310 $305 $302 $451 forward $300 $-1 #
edge $-1 $454 -16.670269384102198 $561 -12.308333458933383 $450 $562 forward 7 unknown #
coedge $-1 $304 $303 $457 $563 reversed $115 $-1 #
edge $-1 $564 -3.2502239876883887e-014 $454 6.6486943945811676 $448 $565 forward 7 unknown #
vertex $-1 $306 $566 #
straight-curve $-1 -43.961071979125137 2.1730562842262664 5.3716183280423007 0 1 0 I I #
coedge $-1 $559 $307 $310 $461 reversed $446 $-1 #
coedge $-1 $307 $559 $452 $563 forward $446 $-1 #
vertex $-1 $308 $567 #
straight-curve $-1 -48.323007904293952 0 31.879637641520915 0 0 1 I I #
straight-curve $-1 -48.323007904293931 0 0.3537849173702341 -0.65605901945558964 0 -0.75470958851134928 I I #
edge $-1 $561 -8.6922251369050656 $311 0 $456 $568 forward 7 unknown #
point $-1 -48.323007904293952 0 5.3716183280423015 #
point $-1 -43.961071979125137 0 5.3716183280423015 #
edge $-1 $569 1 $569 0 $314 $-1 forward 7 unknown #
vertex $-1 $315 $570 #
ellipse-curve $-1 -45.387330353198209 2.4834928962585892 2.2066426032506827 -0.75470958851134928 0 0.65605901945558964 0.32802950972779482 0 0.37735479425567464 1 I I #
point $-1 -45.814010431981764 2.4834928962585892 3.2400564169619468 #
edge $-1 $571 1 $571 0 $318 $-1 forward 7 unknown #
vertex $-1 $319 $572 #
ellipse-curve $-1 -45.387330353198209 6.2087322406464764 2.2066426032506827 -0.75470958851134928 0 0.65605901945558964 0.32802950972779482 0 0.37735479425567464 1 I I #
point $-1 -45.814010431981764 6.2087322406464764 3.2400564169619468 #
plane-surface $-1 0 0 5.3716183280423015 0 0 1 1 0 0 forward_v I I I I #
coedge $-1 $483 $482 $475 $573 forward $323 $-1 #
coedge $-1 $475 $325 $327 $479 reversed $206 $-1 #
coedge $-1 $325 $474 $473 $573 reversed $206 $-1 #
coedge $-1 $333 $328 $325 $477 forward $334 $-1 #
edge $-1 $480 17.858562055219512 $574 21.776504564341554 $476 $575 forward 7 unknown #
coedge $-1 $327 $326 $483 $576 reversed $129 $-1 #
edge $-1 $577 -96.64601580858789 $480 -90.901218182274761 $474 $578 forward 7 unknown #
vertex $-1 $329 $579 #
straight-curve $-1 44.405065395171917 4.7652738167634681 5.3716183280423024 0 -1 0 I I #
coedge $-1 $473 $330 $333 $487 reversed $323 $-1 #
coedge $-1 $330 $473 $478 $576 forward $323 $-1 #
vertex $-1 $331 $580 #
straight-curve $-1 48.323007904293952 12.883532697891047 68.88249245504484 0 0 1 I I #
straight-curve $-1 -17.589415527192124 12.883532697891047 71.852561478603604 0.68199835119979291 0 -0.73135370988377701 I I #
edge $-1 $574 6.1775625691628253 $335 12.883532697891047 $482 $581 forward 7 unknown #
point $-1 48.323007904293952 12.883532697891047 5.3716183280423015 #
point $-1 44.40506539517191 12.883532697891047 5.3716183280423024 #
edge $-1 $582 1 $582 0 $338 $-1 forward 7 unknown #
vertex $-1 $339 $583 #
ellipse-curve $-1 44.992952112105115 9.5305476335269361 1.9923218151298201 0.73135370988377701 0 0.68199835119979291 0.68199835119979291 0 -0.73135370988377701 1 I I #
point $-1 47.046035000932719 9.5305476335269361 2.5395250898907182 #
plane-surface $-1 48.323007904293952 0 0 -1 0 0 0 0 1 forward_v I I I I #
coedge $-1 $347 $345 $349 $499 reversed $221 $-1 #
edge $-1 $360 -5.3716183280423015 $501 5.3716183280423015 $359 $584 forward 7 unknown #
vertex $-1 $499 $585 #
straight-curve $-1 -48.323007904293952 -24.955949716423326 0 0 0 -1 I I #
edge $-1 $497 -24.955949716423326 $501 24.955949716423326 $495 $586 forward 7 unknown #
straight-curve $-1 0 -24.955949716423326 -5.3716183280423015 -1 0 0 I I #
vertex $-1 $352 $587 #
straight-curve $-1 0 24.955949716423326 -5.3716183280423015 1 0 0 I I #
point $-1 48.323007904293952 24.955949716423326 -5.3716183280423015 #
point $-1 48.323007904293952 -24.955949716423326 -5.3716183280423015 #
straight-curve $-1 -48.323007904293952 0 5.3716183280423015 0 -1 0 I I #
point $-1 -48.323007904293952 24.955949716423326 5.3716183280423015 #
point $-1 -48.323007904293952 -24.955949716423326 5.3716183280423015 #
straight-curve $-1 48.323007904293952 -24.955949716423326 0 0 0 -1 I I #
straight-curve $-1 48.323007904293952 24.955949716423326 0 0 0 -1 I I #
plane-surface $-1 48.323007904293952 0 0 -1 0 0 0 0 1 forward_v I I I I #
coedge $-1 $514 $372 $383 $523 forward $240 $-1 #
coedge $-1 $372 $514 $386 $525 reversed $240 $-1 #
straight-curve $-1 48.323007904293952 -19.472777726469154 1.5240354321193164 0 0 1 I I #
coedge $-1 $512 $511 $375 $515 forward $240 $-1 #
edge $-1 $518 8.3655958657460339 $516 13.848767855700206 $514 $588 forward 7 unknown #
vertex $-1 $377 $589 #
straight-curve $-1 0 -24.955949716423326 1.5480708642386323 1 0 0 I I #
vertex $-1 $515 $590 #
straight-curve $-1 0 -19.472777726469154 1.5480708642386323 1 0 0 I I #
point $-1 48.323007904293952 -24.955949716423326 1.5480708642386323 #
point $-1 48.323007904293952 -19.472777726469154 1.5480708642386323 #
straight-curve $-1 -48.323007904293952 -11.10718186072312 4.5480708642386336 0 1 0 I I #
edge $-1 $384 -3.0240354321193172 $518 -0.024035432119315914 $511 $591 forward 7 unknown #
point $-1 -48.323007904293952 -19.472777726469154 4.5480708642386336 #
edge $-1 $388 -4.5480708642386336 $516 -1.5480708642386323 $512 $592 forward 7 unknown #
point $-1 -48.323007904293952 -24.955949716423326 4.5480708642386336 #
straight-curve $-1 48.323007904293952 -24.955949716423326 0 0 0 -1 I I #
plane-surface $-1 0 24.955949716423326 0 0 -1 0 0 0 -1 forward_v I I I I #
coedge $-1 $397 $538 $399 $532 forward $394 $-1 #
vertex $-1 $532 $593 #
straight-curve $-1 -48.323007904293952 19.472777726469154 1.5240354321193164 0 0 1 I I #
edge $-1 $534 -13.848767855700206 $530 -8.3655958657460339 $529 $594 forward 7 unknown #
straight-curve $-1 0 19.472777726469154 1.5480708642386323 -1 0 0 I I #
vertex $-1 $402 $595 #
straight-curve $-1 0 24.955949716423326 1.5480708642386323 -1 0 0 I I #
point $-1 48.323007904293952 19.472777726469154 1.5480708642386323 #
point $-1 48.323007904293952 24.955949716423326 1.5480708642386323 #
coedge $-1 $529 $406 $409 $540 forward $394 $-1 #
straight-curve $-1 -48.323007904293952 11.10718186072312 4.5480708642386336 0 1 0 I I #
edge $-1 $411 -4.5480708642386336 $534 -1.5480708642386323 $409 $596 forward 7 unknown #
point $-1 -48.323007904293952 24.955949716423326 4.5480708642386336 #
point $-1 -48.323007904293952 19.472777726469154 4.5480708642386336 #
straight-curve $-1 48.323007904293952 19.472777726469154 1.5240354321193164 0 0 -1 I I #
straight-curve $-1 48.323007904293952 24.955949716423326 0 0 0 -1 I I #
coedge $-1 $428 $425 $422 $546 reversed $420 $-1 #
edge $-1 $430 -31.525852724150706 $548 -26.508019313478613 $422 $597 forward 7 unknown #
edge $-1 $549 -11.909445147460843 $432 -3.2172200105557778 $423 $598 forward 7 unknown #
vertex $-1 $426 $599 #
vertex $-1 $426 $600 #
straight-curve $-1 -60.631341363227335 -19.472777726469154 5.3716183280423024 1 0 0 I I #
straight-curve $-1 -48.323007904293931 -19.472777726469154 0.3537849173702341 -0.65605901945558964 0 -0.75470958851134928 I I #
point $-1 -48.323007904293952 -19.472777726469154 0.35378491737020956 #
point $-1 -43.961071979125137 -10.780552589564088 5.3716183280423015 #
straight-curve $-1 -48.323007904293952 0 5.3716183280423015 0 -1 0 I I #
vertex $-1 $438 $601 #
point $-1 -45.05930084347041 -16.989284830210565 2.5839973975063573 #
vertex $-1 $442 $602 #
point $-1 -45.05930084347041 -13.264045485822679 2.5839973975063573 #
coedge $-1 $457 $456 $449 $560 forward $446 $-1 #
edge $-1 $561 26.508019313478613 $564 31.525852724150706 $559 $603 forward 7 unknown #
vertex $-1 $461 $604 #
straight-curve $-1 -60.631341363227335 8.6922251369050656 5.3716183280423024 -1 0 0 I I #
edge $-1 $564 -6.5191688526787992 $458 2.1730562842262664 $457 $605 forward 7 unknown #
vertex $-1 $563 $606 #
straight-curve $-1 -48.323007904293931 8.6922251369050656 0.3537849173702341 0.65605901945558964 0 0.75470958851134928 I I #
point $-1 -43.961071979125137 8.6922251369050656 5.3716183280423015 #
point $-1 -48.323007904293952 0 0.35378491737020956 #
straight-curve $-1 -48.323007904293952 0 5.3716183280423015 0 -1 0 I I #
vertex $-1 $464 $607 #
point $-1 -45.05930084347041 2.4834928962585892 2.5839973975063573 #
vertex $-1 $468 $608 #
point $-1 -45.05930084347041 6.2087322406464764 2.5839973975063573 #
edge $-1 $574 63.510874127002538 $577 67.712353183538156 $473 $609 forward 7 unknown #
vertex $-1 $487 $610 #
straight-curve $-1 26.546503339952398 6.1775625691628253 5.3716183280423024 1 0 0 I I #
edge $-1 $577 1.4122887523993573 $484 8.1182588811275789 $483 $611 forward 7 unknown #
vertex $-1 $576 $612 #
straight-curve $-1 -17.589415527192124 6.1775625691628253 71.852561478603604 -0.68199835119979291 0 0.73135370988377701 I I #
point $-1 44.40506539517191 6.1775625691628253 5.3716183280423024 #
point $-1 48.323007904293952 12.883532697891047 1.1701392715066845 #
straight-curve $-1 48.323007904293952 0 5.3716183280423015 0 1 0 I I #
vertex $-1 $490 $613 #
point $-1 45.67495046330491 9.5305476335269361 1.2609681052460431 #
straight-curve $-1 -48.323007904293952 24.955949716423326 0 0 0 -1 I I #
point $-1 -48.323007904293952 -24.955949716423326 -5.3716183280423015 #
straight-curve $-1 -48.323007904293952 0 -5.3716183280423015 0 1 0 I I #
point $-1 -48.323007904293952 24.955949716423326 -5.3716183280423015 #
straight-curve $-1 -48.323007904293952 -11.10718186072312 1.5480708642386323 0 -1 0 I I #
point $-1 -48.323007904293952 -24.955949716423326 1.5480708642386323 #
point $-1 -48.323007904293952 -19.472777726469154 1.5480708642386323 #
straight-curve $-1 -48.323007904293952 -19.472777726469154 1.5240354321193164 0 0 -1 I I #
straight-curve $-1 -48.323007904293952 -24.955949716423326 0 0 0 -1 I I #
point $-1 -48.323007904293952 19.472777726469154 1.5480708642386323 #
straight-curve $-1 -48.323007904293952 11.10718186072312 1.5480708642386323 0 -1 0 I I #
point $-1 -48.323007904293952 24.955949716423326 1.5480708642386323 #
straight-curve $-1 -48.323007904293952 24.955949716423326 0 0 0 -1 I I #
straight-curve $-1 -48.323007904293952 -19.472777726469154 31.879637641520915 0 0 1 I I #
straight-curve $-1 -43.961071979125137 -7.5633325790083106 5.3716183280423007 0 1 0 I I #
point $-1 -48.323007904293952 -19.472777726469154 5.3716183280423015 #
point $-1 -43.961071979125137 -19.472777726469154 5.3716183280423015 #
point $-1 -45.009975558942529 -16.989284830210565 1.8786130935228877 #
point $-1 -45.009975558942529 -13.264045485822679 1.8786130935228877 #
straight-curve $-1 -48.323007904293952 8.6922251369050656 31.879637641520915 0 0 -1 I I #
point $-1 -48.323007904293952 8.6922251369050656 5.3716183280423015 #
straight-curve $-1 -48.323007904293952 2.1730562842262664 0.35378491737021767 0 -1 0 I I #
point $-1 -48.323007904293952 8.6922251369050656 0.35378491737020956 #
point $-1 -45.009975558942529 2.4834928962585892 1.8786130935228877 #
point $-1 -45.009975558942529 6.2087322406464764 1.8786130935228877 #
straight-curve $-1 48.323007904293952 6.1775625691628253 68.88249245504484 0 0 -1 I I #
point $-1 48.323007904293952 6.1775625691628253 5.3716183280423015 #
straight-curve $-1 48.323007904293945 4.7652738167634681 1.1701392715066774 0 1 0 I I #
point $-1 48.323007904293952 6.1775625691628253 1.1701392715066845 #
point $-1 44.261598402221338 9.5305476335269361 1.3103234639300272 #
End-of-ACIS-data 