500 0 5 0           
7 Unknown 11 ACIS 5.0 NT 24 Fri Mar 26 14:41:10 1999 
-1 9.9999999999999995e-007 1e-010 
body $-1 $5 $-1 $6 #
body $-1 $7 $-1 $8 #
body $-1 $9 $-1 $10 #
body $-1 $11 $-1 $12 #
body $-1 $13 $-1 $14 #
lump $-1 $-1 $15 $0 #
transform $-1 1 0 0 0 1 0 0 0 1 67.771843623157451 44.718827117546603 20.076865923832763 1 rotate no_reflect no_shear #
lump $-1 $-1 $16 $1 #
transform $-1 1 0 0 0 1 0 0 0 1 67.771843623157451 44.718827117546603 20.076865923832763 1 rotate no_reflect no_shear #
lump $-1 $-1 $17 $2 #
transform $-1 1 0 0 0 1 0 0 0 1 67.771843623157451 44.718827117546603 20.076865923832763 1 rotate no_reflect no_shear #
lump $-1 $-1 $18 $3 #
transform $-1 1 0 0 0 1 0 0 0 1 67.771843623157451 44.718827117546603 20.076865923832763 1 rotate no_reflect no_shear #
lump $-1 $-1 $19 $4 #
transform $-1 1 0 0 0 1 0 0 0 1 67.771843623157451 44.718827117546603 20.076865923832763 1 rotate no_reflect no_shear #
shell $-1 $-1 $-1 $20 $-1 $5 #
shell $-1 $-1 $-1 $21 $-1 $7 #
shell $-1 $-1 $-1 $22 $-1 $9 #
shell $-1 $-1 $-1 $23 $-1 $11 #
shell $-1 $-1 $-1 $24 $-1 $13 #
face $-1 $25 $26 $15 $-1 $27 forward single #
face $-1 $28 $29 $16 $-1 $30 reversed single #
face $-1 $31 $32 $17 $-1 $33 forward single #
face $-1 $34 $35 $18 $-1 $36 reversed single #
face $-1 $37 $38 $19 $-1 $39 reversed single #
face $-1 $40 $41 $15 $-1 $42 reversed single #
loop $-1 $-1 $43 $20 #
plane-surface $-1 0 0 20.076865923832763 0 0 1 1 0 0 forward_v I I I I #
face $-1 $44 $45 $16 $-1 $46 forward single #
loop $-1 $-1 $47 $21 #
plane-surface $-1 -59.273938049090305 0 -4.8666483914488801 0 0 1 1 0 0 forward_v I I I I #
face $-1 $48 $49 $17 $-1 $50 forward single #
loop $-1 $-1 $51 $22 #
plane-surface $-1 117.38427934229946 -24.424692683410388 187.91357951005972 0 -1 0 -0.86602541151947299 0 -0.49999998660252726 forward_v I I I I #
face $-1 $52 $53 $18 $-1 $54 reversed single #
loop $-1 $55 $56 $23 #
cone-surface $-1 60.667193256263666 -38.920502993507682 10.201858813185195 -0.86602541151947299 0 -0.49999998660252726 1.2499999665063182 0 -2.1650635287986826 1 I I 0 1 2.5 forward I I I I #
face $-1 $57 $58 $19 $-1 $59 reversed single #
loop $-1 $60 $61 $24 #
cone-surface $-1 60.667193256263666 -30.223016807449305 10.201858813185195 -0.86602541151947299 0 -0.49999998660252726 1.2499999665063182 0 -2.1650635287986826 1 I I 0 1 2.5 forward I I I I #
face $-1 $62 $63 $15 $-1 $64 reversed single #
loop $-1 $-1 $65 $25 #
plane-surface $-1 0 0 -20.076865923832763 0 0 1 1 0 0 forward_v I I I I #
coedge $-1 $66 $67 $68 $69 forward $26 $-1 #
face $-1 $70 $71 $16 $-1 $72 forward single #
loop $-1 $-1 $73 $28 #
plane-surface $-1 -59.273938049090305 0 -12.007853638870703 0 0 1 1 0 0 forward_v I I I I #
coedge $-1 $74 $75 $76 $77 reversed $29 $-1 #
face $-1 $78 $79 $17 $-1 $80 reversed single #
loop $-1 $-1 $81 $31 #
plane-surface $-1 1.815942852090302e-006 -34.571759900478497 120.14173770284512 0.86602541151947299 0 0.49999998660252726 0.49999998660252726 0 -0.86602541151947299 forward_v I I I I #
coedge $-1 $82 $83 $84 $85 reversed $32 $-1 #
face $-1 $86 $87 $18 $-1 $88 forward single #
loop $-1 $89 $90 $34 #
cone-surface $-1 57.479692731565734 -38.920502993507682 8.3615545929565727 -0.86602541151947299 0 -0.49999998660252726 0.62499998325315909 0 -1.0825317643993413 1 I I -0.70710678118654746 0.70710678118654746 1.25 forward I I I I #
loop $-1 $-1 $91 $23 #
coedge $-1 $56 $56 $92 $93 reversed $35 $-1 #
face $-1 $94 $95 $19 $-1 $96 reversed single #
loop $-1 $97 $98 $37 #
cone-surface $-1 57.479692731565734 -30.223016807449305 8.3615545929565727 -0.86602541151947299 0 -0.49999998660252726 0.62499998325315909 0 -1.0825317643993413 1 I I -0.70710678118654746 0.70710678118654746 1.25 forward I I I I #
loop $-1 $-1 $99 $24 #
coedge $-1 $61 $61 $100 $101 reversed $38 $-1 #
face $-1 $102 $103 $15 $-1 $104 reversed single #
loop $-1 $-1 $105 $40 #
plane-surface $-1 0 -44.718827117546603 0 0 1 0 0 0 1 forward_v I I I I #
coedge $-1 $106 $107 $108 $109 forward $41 $-1 #
coedge $-1 $110 $43 $111 $112 forward $26 $-1 #
coedge $-1 $43 $110 $113 $114 forward $26 $-1 #
coedge $-1 $115 $116 $43 $69 reversed $117 $-1 #
edge $-1 $118 -44.718827117546603 $119 44.718827117546603 $68 $120 forward 7 unknown #
face $-1 $121 $122 $16 $-1 $123 reversed single #
loop $-1 $-1 $124 $44 #
plane-surface $-1 -50.776032475023158 0 -8.4372510151597915 -1 0 0 0 0 1 forward_v I I I I #
coedge $-1 $125 $126 $127 $128 reversed $45 $-1 #
coedge $-1 $129 $47 $130 $131 reversed $29 $-1 #
coedge $-1 $47 $129 $132 $133 reversed $29 $-1 #
coedge $-1 $134 $124 $47 $77 forward $71 $-1 #
edge $-1 $135 -44.718827117546603 $136 44.718827117546603 $76 $137 forward 7 unknown #
face $-1 $138 $139 $17 $-1 $140 reversed single #
loop $-1 $-1 $141 $48 #
plane-surface $-1 67.771843623157451 0 0 -1 0 0 0 0 1 forward_v I I I I #
coedge $-1 $142 $143 $144 $145 reversed $49 $-1 #
coedge $-1 $83 $51 $143 $146 forward $32 $-1 #
coedge $-1 $51 $82 $141 $147 reversed $32 $-1 #
coedge $-1 $148 $144 $51 $85 forward $149 $-1 #
edge $-1 $150 -0.91965926118264463 $151 9.0797039520077192 $84 $152 forward 7 unknown #
face $-1 $153 $154 $18 $-1 $155 forward single #
loop $-1 $-1 $156 $52 #
plane-surface $-1 117.38427934229946 -24.424692683410388 187.91357951005972 0 -1 0 -0.86602541151947299 0 -0.49999998660252726 forward_v I I I I #
loop $-1 $-1 $157 $34 #
coedge $-1 $90 $90 $91 $158 forward $53 $-1 #
coedge $-1 $91 $91 $90 $158 reversed $55 $-1 #
coedge $-1 $92 $92 $56 $93 forward $154 $-1 #
edge $-1 $159 0 $159 6.2831853071796004 $92 $160 forward 7 unknown #
face $-1 $161 $162 $19 $-1 $163 reversed single #
loop $-1 $164 $165 $57 #
cone-surface $-1 60.667193256263666 -38.920502993507682 10.201858813185195 -0.86602541151947299 0 -0.49999998660252726 1.2499999665063182 0 -2.1650635287986826 1 I I 0 1 2.5 forward I I I I #
loop $-1 $-1 $166 $37 #
coedge $-1 $98 $98 $99 $167 forward $58 $-1 #
coedge $-1 $99 $99 $98 $167 reversed $60 $-1 #
coedge $-1 $100 $100 $61 $101 forward $168 $-1 #
edge $-1 $169 0 $169 6.2831853071796004 $100 $170 forward 7 unknown #
face $-1 $171 $172 $15 $-1 $173 reversed single #
loop $-1 $-1 $174 $62 #
plane-surface $-1 -67.771843623157451 0 0 1 0 0 0 0 -1 forward_v I I I I #
coedge $-1 $175 $113 $176 $177 forward $63 $-1 #
coedge $-1 $178 $65 $175 $179 forward $41 $-1 #
coedge $-1 $65 $178 $180 $181 forward $41 $-1 #
coedge $-1 $116 $115 $65 $109 reversed $117 $-1 #
edge $-1 $182 -44.718827117546603 $183 44.718827117546603 $108 $184 forward 7 unknown #
coedge $-1 $67 $66 $185 $186 forward $26 $-1 #
coedge $-1 $187 $188 $66 $112 reversed $172 $-1 #
edge $-1 $119 -67.771843623157451 $189 67.771843623157451 $111 $190 forward 7 unknown #
coedge $-1 $105 $191 $67 $114 reversed $63 $-1 #
edge $-1 $192 -67.771843623157451 $118 67.771843623157451 $113 $193 forward 7 unknown #
coedge $-1 $108 $68 $191 $194 forward $117 $-1 #
coedge $-1 $68 $108 $187 $195 reversed $117 $-1 #
loop $-1 $-1 $115 $171 #
vertex $-1 $69 $196 #
vertex $-1 $69 $197 #
straight-curve $-1 67.771843623157451 0 20.076865923832763 0 1 0 I I #
face $-1 $198 $199 $16 $-1 $123 reversed single #
loop $-1 $-1 $200 $70 #
plane-surface $-1 -67.771843623157451 0 0 1 0 0 0 0 -1 forward_v I I I I #
coedge $-1 $76 $127 $201 $202 reversed $71 $-1 #
coedge $-1 $203 $73 $204 $205 reversed $45 $-1 #
coedge $-1 $73 $203 $206 $207 reversed $45 $-1 #
coedge $-1 $124 $134 $73 $128 forward $71 $-1 #
edge $-1 $208 -44.718827117546603 $209 44.718827117546603 $127 $210 forward 7 unknown #
coedge $-1 $75 $74 $211 $212 reversed $29 $-1 #
coedge $-1 $201 $213 $74 $131 forward $214 $-1 #
edge $-1 $215 -38.134874598612299 $135 -21.139063450478005 $130 $216 forward 7 unknown #
coedge $-1 $217 $218 $75 $133 forward $219 $-1 #
edge $-1 $136 21.139063450478005 $220 38.134874598612299 $132 $221 forward 7 unknown #
coedge $-1 $127 $76 $218 $222 reversed $71 $-1 #
vertex $-1 $131 $223 #
vertex $-1 $133 $224 #
straight-curve $-1 -50.776032475023158 0 -4.8666483914488801 0 1 0 I I #
face $-1 $225 $226 $17 $-1 $227 forward single #
loop $-1 $-1 $228 $78 #
plane-surface $-1 -59.273938049090305 0 -4.8666483914488801 0 0 1 1 0 0 forward_v I I I I #
coedge $-1 $229 $230 $83 $147 forward $79 $-1 #
coedge $-1 $231 $81 $232 $233 reversed $49 $-1 #
coedge $-1 $81 $231 $82 $146 reversed $49 $-1 #
coedge $-1 $84 $234 $81 $145 forward $149 $-1 #
edge $-1 $235 -27.432947167307354 $150 -7.1388127331711395 $144 $236 forward 7 unknown #
edge $-1 $150 115.54496028406938 $237 135.5436872463149 $82 $238 forward 7 unknown #
edge $-1 $151 73.87992383119709 $237 91.199329578541352 $141 $239 forward 7 unknown #
coedge $-1 $240 $84 $230 $241 forward $149 $-1 #
loop $-1 $-1 $84 $242 #
vertex $-1 $145 $243 #
vertex $-1 $241 $244 #
straight-curve $-1 58.692139671149732 -24.424692683410388 20.07686592383277 1 0 0 I I #
face $-1 $245 $246 $18 $-1 $247 reversed single #
loop $-1 $248 $92 $86 #
plane-surface $-1 1.815942852090302e-006 -34.571759900478497 120.14173770284512 0.86602541151947299 0 0.49999998660252726 0.49999998660252726 0 -0.86602541151947299 forward_v I I I I #
coedge $-1 $249 $250 $251 $252 reversed $87 $-1 #
coedge $-1 $157 $157 $-1 $253 forward $89 $-1 #
edge $-1 $254 0 $254 6.2831853071796004 $90 $255 forward 7 unknown #
vertex $-1 $93 $256 #
ellipse-curve $-1 62.772162016562255 -38.920502993507682 11.417163050160656 -0.86602541151947299 0 -0.49999998660252726 1.2499999665063182 0 -2.1650635287986826 1 I I #
face $-1 $257 $258 $19 $-1 $259 forward single #
loop $-1 $260 $261 $94 #
cone-surface $-1 57.479692731565734 -38.920502993507682 8.3615545929565727 -0.86602541151947299 0 -0.49999998660252726 0.62499998325315909 0 -1.0825317643993413 1 I I -0.70710678118654746 0.70710678118654746 1.25 forward I I I I #
loop $-1 $-1 $262 $57 #
coedge $-1 $165 $165 $263 $264 reversed $95 $-1 #
coedge $-1 $166 $166 $-1 $265 forward $97 $-1 #
edge $-1 $266 0 $266 6.2831853071796004 $98 $267 forward 7 unknown #
loop $-1 $268 $100 $257 #
vertex $-1 $101 $269 #
ellipse-curve $-1 62.772162016562255 -30.223016807449305 11.417163050160656 -0.86602541151947299 0 -0.49999998660252726 1.2499999665063182 0 -2.1650635287986826 1 I I #
face $-1 $-1 $117 $15 $-1 $270 reversed single #
loop $-1 $-1 $187 $102 #
plane-surface $-1 0 44.718827117546603 0 0 -1 0 0 0 -1 forward_v I I I I #
coedge $-1 $271 $185 $188 $272 forward $103 $-1 #
coedge $-1 $191 $105 $106 $179 reversed $63 $-1 #
coedge $-1 $185 $271 $105 $177 reversed $103 $-1 #
edge $-1 $192 -20.076865923832763 $273 20.076865923832763 $176 $274 forward 7 unknown #
coedge $-1 $107 $106 $271 $275 forward $41 $-1 #
edge $-1 $183 -67.771843623157451 $273 67.771843623157451 $175 $276 forward 7 unknown #
coedge $-1 $188 $187 $107 $181 reversed $172 $-1 #
edge $-1 $277 -67.771843623157451 $182 67.771843623157451 $180 $278 forward 7 unknown #
vertex $-1 $109 $279 #
vertex $-1 $194 $280 #
straight-curve $-1 67.771843623157451 0 -20.076865923832763 0 -1 0 I I #
coedge $-1 $174 $176 $110 $186 reversed $103 $-1 #
edge $-1 $189 -44.718827117546603 $192 44.718827117546603 $185 $281 forward 7 unknown #
coedge $-1 $180 $111 $116 $195 forward $172 $-1 #
coedge $-1 $111 $180 $174 $272 reversed $172 $-1 #
vertex $-1 $112 $282 #
straight-curve $-1 0 44.718827117546603 20.076865923832763 -1 0 0 I I #
coedge $-1 $113 $175 $115 $194 reversed $63 $-1 #
vertex $-1 $186 $283 #
straight-curve $-1 0 -44.718827117546603 20.076865923832763 1 0 0 I I #
edge $-1 $118 -20.076865923832763 $183 20.076865923832763 $115 $284 forward 7 unknown #
edge $-1 $119 -20.076865923832763 $182 20.076865923832763 $116 $285 forward 7 unknown #
point $-1 67.771843623157451 -44.718827117546603 20.076865923832763 #
point $-1 67.771843623157451 44.718827117546603 20.076865923832763 #
face $-1 $286 $214 $16 $-1 $287 reversed single #
loop $-1 $-1 $211 $121 #
coedge $-1 $288 $289 $203 $290 forward $122 $-1 #
coedge $-1 $206 $130 $124 $202 forward $214 $-1 #
edge $-1 $135 0.64802288386898432 $209 7.7892281312908072 $201 $291 forward 7 unknown #
coedge $-1 $126 $125 $200 $290 reversed $45 $-1 #
coedge $-1 $218 $292 $125 $205 forward $219 $-1 #
edge $-1 $293 -38.134874598612299 $208 -21.139063450478005 $204 $294 forward 7 unknown #
coedge $-1 $295 $201 $126 $207 forward $214 $-1 #
edge $-1 $209 21.139063450478005 $296 38.134874598612299 $206 $297 forward 7 unknown #
vertex $-1 $205 $298 #
vertex $-1 $207 $299 #
straight-curve $-1 -50.776032475023158 0 -12.007853638870703 0 -1 0 I I #
coedge $-1 $300 $301 $129 $212 forward $199 $-1 #
edge $-1 $220 -44.718827117546603 $215 44.718827117546603 $211 $302 forward 7 unknown #
coedge $-1 $130 $303 $300 $304 forward $214 $-1 #
loop $-1 $-1 $130 $198 #
vertex $-1 $131 $305 #
straight-curve $-1 -29.636969024545152 -44.718827117546603 -4.8666483914488801 1 0 0 I I #
coedge $-1 $306 $132 $301 $307 reversed $219 $-1 #
coedge $-1 $132 $204 $134 $222 forward $219 $-1 #
loop $-1 $-1 $132 $308 #
vertex $-1 $212 $309 #
straight-curve $-1 -29.636969024545152 44.718827117546603 -4.8666483914488801 -1 0 0 I I #
edge $-1 $208 -7.7892281312908072 $136 -0.64802288386898432 $218 $310 forward 7 unknown #
point $-1 -50.776032475023158 -44.718827117546603 -4.8666483914488801 #
point $-1 -50.776032475023158 44.718827117546603 -4.8666483914488801 #
face $-1 $311 $312 $17 $-1 $313 forward single #
loop $-1 $-1 $314 $138 #
plane-surface $-1 -59.273938049090305 0 -12.007853638870703 0 0 1 1 0 0 forward_v I I I I #
coedge $-1 $315 $316 $317 $318 reversed $139 $-1 #
coedge $-1 $319 $141 $231 $320 forward $79 $-1 #
coedge $-1 $141 $321 $148 $241 reversed $79 $-1 #
coedge $-1 $143 $142 $229 $320 reversed $49 $-1 #
coedge $-1 $322 $323 $142 $233 forward $324 $-1 #
edge $-1 $325 -83.520788782915091 $235 -63.522061820669563 $232 $326 forward 7 unknown #
coedge $-1 $144 $327 $322 $328 forward $149 $-1 #
vertex $-1 $233 $329 #
straight-curve $-1 57.772480409967088 -17.285879950239249 20.076865923832763 0 1 0 I I #
vertex $-1 $320 $330 #
straight-curve $-1 1.815942852090302e-006 -24.424692683410388 120.14173770284512 0.49999998660252726 0 -0.86602541151947299 I I #
straight-curve $-1 67.771843623157451 -24.424692683410388 93.95678975502986 0 0 -1 I I #
coedge $-1 $327 $148 $331 $332 forward $149 $-1 #
edge $-1 $151 -24.424692683410388 $333 44.718827117546603 $230 $334 forward 7 unknown #
face $-1 $335 $149 $17 $-1 $336 forward single #
point $-1 57.772480409967088 -24.424692683410388 20.07686592383277 #
point $-1 67.771843623157451 -24.424692683410388 20.076865923832763 #
face $-1 $337 $338 $18 $-1 $339 reversed single #
loop $-1 $-1 $340 $153 #
plane-surface $-1 67.771843623157451 0 0 -1 0 0 0 0 1 forward_v I I I I #
loop $-1 $-1 $341 $86 #
coedge $-1 $250 $156 $342 $343 forward $87 $-1 #
coedge $-1 $156 $249 $340 $344 reversed $87 $-1 #
coedge $-1 $345 $346 $156 $252 forward $347 $-1 #
edge $-1 $348 -0.91965926118264463 $349 9.0797039520077192 $251 $350 forward 7 unknown #
edge $-1 $351 1 $351 0 $157 $-1 forward 7 unknown #
vertex $-1 $158 $352 #
ellipse-curve $-1 58.562224495965076 -38.920502993507682 8.9865545762097323 0.86602541151947299 0 0.49999998660252726 1.2499999665063182 0 -2.1650635287986826 1 I I #
point $-1 64.022161983068585 -38.920502993507682 9.252099521361977 #
face $-1 $353 $168 $19 $-1 $354 forward single #
loop $-1 $-1 $355 $161 #
plane-surface $-1 117.38427934229946 -24.424692683410388 187.91357951005972 0 -1 0 -0.86602541151947299 0 -0.49999998660252726 forward_v I I I I #
loop $-1 $-1 $356 $94 #
coedge $-1 $261 $261 $262 $357 forward $162 $-1 #
coedge $-1 $262 $262 $261 $357 reversed $164 $-1 #
coedge $-1 $263 $263 $165 $264 forward $268 $-1 #
edge $-1 $358 0 $358 6.2831853071796004 $263 $359 forward 7 unknown #
edge $-1 $360 1 $360 0 $166 $-1 forward 7 unknown #
vertex $-1 $167 $361 #
ellipse-curve $-1 58.562224495965076 -30.223016807449305 8.9865545762097323 0.86602541151947299 0 0.49999998660252726 1.2499999665063182 0 -2.1650635287986826 1 I I #
loop $-1 $362 $263 $257 #
point $-1 64.022161983068585 -30.223016807449305 9.252099521361977 #
plane-surface $-1 67.771843623157451 0 0 -1 0 0 0 0 1 forward_v I I I I #
coedge $-1 $176 $174 $178 $275 reversed $103 $-1 #
edge $-1 $189 -20.076865923832763 $277 20.076865923832763 $188 $363 forward 7 unknown #
vertex $-1 $275 $364 #
straight-curve $-1 -67.771843623157451 -44.718827117546603 0 0 0 -1 I I #
edge $-1 $273 -44.718827117546603 $277 44.718827117546603 $271 $365 forward 7 unknown #
straight-curve $-1 0 -44.718827117546603 -20.076865923832763 -1 0 0 I I #
vertex $-1 $181 $366 #
straight-curve $-1 0 44.718827117546603 -20.076865923832763 1 0 0 I I #
point $-1 67.771843623157451 44.718827117546603 -20.076865923832763 #
point $-1 67.771843623157451 -44.718827117546603 -20.076865923832763 #
straight-curve $-1 -67.771843623157451 0 20.076865923832763 0 -1 0 I I #
point $-1 -67.771843623157451 44.718827117546603 20.076865923832763 #
point $-1 -67.771843623157451 -44.718827117546603 20.076865923832763 #
straight-curve $-1 67.771843623157451 -44.718827117546603 0 0 0 -1 I I #
straight-curve $-1 67.771843623157451 44.718827117546603 0 0 0 -1 I I #
face $-1 $367 $368 $16 $-1 $369 forward single #
plane-surface $-1 0 -44.718827117546603 0 0 1 0 0 0 1 forward_v I I I I #
coedge $-1 $370 $200 $292 $371 forward $122 $-1 #
coedge $-1 $200 $370 $295 $372 reversed $122 $-1 #
edge $-1 $296 -44.718827117546603 $293 44.718827117546603 $200 $373 forward 7 unknown #
straight-curve $-1 -50.776032475023158 -44.718827117546603 -4.2186255075798957 0 0 -1 I I #
coedge $-1 $204 $374 $288 $371 reversed $219 $-1 #
vertex $-1 $371 $375 #
straight-curve $-1 -29.636969024545152 44.718827117546603 -12.007853638870703 1 0 0 I I #
coedge $-1 $376 $206 $289 $372 forward $214 $-1 #
vertex $-1 $372 $377 #
straight-curve $-1 -29.636969024545152 -44.718827117546603 -12.007853638870703 -1 0 0 I I #
point $-1 -50.776032475023158 44.718827117546603 -12.007853638870703 #
point $-1 -50.776032475023158 -44.718827117546603 -12.007853638870703 #
coedge $-1 $378 $211 $213 $304 reversed $199 $-1 #
coedge $-1 $211 $378 $217 $307 forward $199 $-1 #
straight-curve $-1 -67.771843623157451 0 -4.8666483914488801 0 -1 0 I I #
coedge $-1 $213 $379 $380 $381 reversed $214 $-1 #
edge $-1 $382 -20.076865923832763 $215 4.8666483914488801 $300 $383 forward 7 unknown #
point $-1 -67.771843623157451 -44.718827117546603 -4.8666483914488801 #
coedge $-1 $384 $217 $385 $386 reversed $219 $-1 #
edge $-1 $387 -20.076865923832763 $220 4.8666483914488801 $217 $388 forward 7 unknown #
face $-1 $389 $219 $16 $-1 $390 reversed single #
point $-1 -67.771843623157451 44.718827117546603 -4.8666483914488801 #
straight-curve $-1 -50.776032475023158 44.718827117546603 -4.2186255075798957 0 0 1 I I #
face $-1 $391 $392 $17 $-1 $393 reversed single #
loop $-1 $-1 $394 $225 #
plane-surface $-1 -50.776032475023158 0 -8.4372510151597915 -1 0 0 0 0 1 forward_v I I I I #
coedge $-1 $395 $396 $397 $398 reversed $226 $-1 #
coedge $-1 $399 $228 $400 $401 reversed $139 $-1 #
coedge $-1 $228 $399 $402 $403 reversed $139 $-1 #
coedge $-1 $404 $394 $228 $318 forward $312 $-1 #
edge $-1 $405 -44.718827117546603 $406 44.718827117546603 $317 $407 forward 7 unknown #
coedge $-1 $408 $229 $323 $409 forward $79 $-1 #
edge $-1 $237 7.1388127331711395 $325 27.432947167307354 $229 $410 forward 7 unknown #
coedge $-1 $230 $408 $411 $412 reversed $79 $-1 #
coedge $-1 $413 $232 $234 $328 reversed $324 $-1 #
coedge $-1 $232 $414 $319 $409 reversed $324 $-1 #
loop $-1 $-1 $232 $415 #
vertex $-1 $409 $416 #
straight-curve $-1 26.011450350667396 -44.718827117546603 75.08858565264353 -0.49999998660252726 0 0.86602541151947299 I I #
coedge $-1 $234 $240 $417 $418 forward $149 $-1 #
edge $-1 $419 -67.771843623157451 $235 57.772480409967088 $322 $420 forward 7 unknown #
point $-1 57.772480409967088 -44.718827117546603 20.076865923832763 #
point $-1 67.771843623157451 -24.424692683410388 2.7574601764885074 #
coedge $-1 $411 $421 $240 $332 reversed $422 $-1 #
edge $-1 $333 -67.771843623157451 $423 67.771843623157451 $331 $424 forward 7 unknown #
vertex $-1 $241 $425 #
straight-curve $-1 67.771843623157451 0 20.076865923832763 0 1 0 I I #
face $-1 $426 $427 $17 $-1 $428 reversed single #
plane-surface $-1 0 0 20.076865923832763 0 0 1 1 0 0 forward_v I I I I #
face $-1 $429 $430 $18 $-1 $431 forward single #
loop $-1 $-1 $432 $245 #
plane-surface $-1 -59.273938049090305 0 -4.8666483914488801 0 0 1 1 0 0 forward_v I I I I #
coedge $-1 $433 $434 $250 $344 forward $246 $-1 #
coedge $-1 $435 $342 $346 $436 reversed $248 $-1 #
coedge $-1 $341 $437 $249 $343 reversed $248 $-1 #
edge $-1 $348 115.54496028406938 $438 135.5436872463149 $249 $439 forward 7 unknown #
edge $-1 $349 73.87992383119709 $438 91.199329578541352 $340 $440 forward 7 unknown #
coedge $-1 $441 $251 $434 $442 forward $347 $-1 #
coedge $-1 $251 $443 $341 $436 forward $347 $-1 #
loop $-1 $-1 $251 $444 #
vertex $-1 $436 $445 #
vertex $-1 $442 $446 #
straight-curve $-1 58.692139671149732 -24.424692683410388 20.07686592383277 1 0 0 I I #
vertex $-1 $253 $447 #
point $-1 59.812224462471391 -38.920502993507682 6.8214910474110493 #
face $-1 $448 $449 $19 $-1 $450 reversed single #
plane-surface $-1 1.815942852090302e-006 -34.571759900478497 120.14173770284512 0.86602541151947299 0 0.49999998660252726 0.49999998660252726 0 -0.86602541151947299 forward_v I I I I #
coedge $-1 $451 $452 $453 $454 reversed $258 $-1 #
coedge $-1 $356 $356 $-1 $455 forward $260 $-1 #
edge $-1 $456 0 $456 6.2831853071796004 $261 $457 forward 7 unknown #
vertex $-1 $264 $458 #
ellipse-curve $-1 62.772162016562255 -38.920502993507682 11.417163050160656 -0.86602541151947299 0 -0.49999998660252726 1.2499999665063182 0 -2.1650635287986826 1 I I #
vertex $-1 $265 $459 #
point $-1 59.812224462471391 -30.223016807449305 6.8214910474110493 #
loop $-1 $-1 $460 $257 #
straight-curve $-1 -67.771843623157451 44.718827117546603 0 0 0 -1 I I #
point $-1 -67.771843623157451 -44.718827117546603 -20.076865923832763 #
straight-curve $-1 -67.771843623157451 0 -20.076865923832763 0 1 0 I I #
point $-1 -67.771843623157451 44.718827117546603 -20.076865923832763 #
face $-1 $308 $461 $16 $-1 $462 reversed single #
loop $-1 $-1 $463 $286 #
plane-surface $-1 0 0 20.076865923832763 0 0 1 1 0 0 forward_v I I I I #
coedge $-1 $289 $288 $464 $465 reversed $122 $-1 #
edge $-1 $293 12.007853638870703 $466 20.076865923832763 $292 $388 forward 7 unknown #
edge $-1 $296 12.007853638870703 $467 20.076865923832763 $289 $383 forward 7 unknown #
straight-curve $-1 -67.771843623157451 0 -12.007853638870703 0 1 0 I I #
coedge $-1 $292 $384 $468 $469 reversed $219 $-1 #
point $-1 -67.771843623157451 44.718827117546603 -12.007853638870703 #
coedge $-1 $379 $295 $470 $471 reversed $214 $-1 #
point $-1 -67.771843623157451 -44.718827117546603 -12.007853638870703 #
coedge $-1 $301 $300 $472 $473 reversed $199 $-1 #
coedge $-1 $303 $376 $474 $475 reversed $214 $-1 #
coedge $-1 $463 $472 $303 $381 forward $368 $-1 #
edge $-1 $382 -67.771843623157451 $476 67.771843623157451 $303 $477 forward 7 unknown #
vertex $-1 $473 $478 #
straight-curve $-1 -67.771843623157451 -44.718827117546603 0 0 0 -1 I I #
coedge $-1 $374 $306 $479 $480 forward $219 $-1 #
coedge $-1 $472 $463 $306 $386 forward $368 $-1 #
edge $-1 $481 -67.771843623157451 $387 67.771843623157451 $306 $482 forward 7 unknown #
vertex $-1 $386 $483 #
straight-curve $-1 -67.771843623157451 44.718827117546603 0 0 0 -1 I I #
face $-1 $-1 $484 $16 $-1 $485 reversed single #
plane-surface $-1 0 44.718827117546603 0 0 -1 0 0 0 -1 forward_v I I I I #
face $-1 $415 $486 $17 $-1 $393 reversed single #
loop $-1 $-1 $487 $311 #
plane-surface $-1 -67.771843623157451 0 0 1 0 0 0 0 -1 forward_v I I I I #
coedge $-1 $317 $397 $488 $489 reversed $312 $-1 #
coedge $-1 $490 $314 $491 $492 reversed $226 $-1 #
coedge $-1 $314 $490 $493 $494 reversed $226 $-1 #
coedge $-1 $394 $404 $314 $398 forward $312 $-1 #
edge $-1 $495 -44.718827117546603 $496 44.718827117546603 $397 $497 forward 7 unknown #
coedge $-1 $316 $315 $498 $499 reversed $139 $-1 #
coedge $-1 $488 $413 $315 $401 forward $324 $-1 #
edge $-1 $500 -38.134874598612299 $405 -21.139063450478005 $400 $501 forward 7 unknown #
coedge $-1 $421 $502 $316 $403 forward $422 $-1 #
edge $-1 $406 21.139063450478005 $503 38.134874598612299 $402 $504 forward 7 unknown #
coedge $-1 $397 $317 $502 $505 reversed $312 $-1 #
vertex $-1 $401 $506 #
vertex $-1 $403 $507 #
straight-curve $-1 -50.776032475023158 0 -4.8666483914488801 0 1 0 I I #
coedge $-1 $321 $319 $508 $509 reversed $79 $-1 #
edge $-1 $325 -2.7574601764885029 $510 20.076865923832763 $319 $511 forward 7 unknown #
straight-curve $-1 67.771843623157451 -17.285879950239249 2.7574601764885074 0 -1 0 I I #
coedge $-1 $512 $331 $321 $412 forward $422 $-1 #
edge $-1 $333 -20.076865923832763 $513 20.076865923832763 $321 $514 forward 7 unknown #
coedge $-1 $400 $322 $515 $516 forward $324 $-1 #
coedge $-1 $323 $517 $518 $519 reversed $324 $-1 #
face $-1 $242 $324 $17 $-1 $520 reversed single #
point $-1 67.771843623157451 -44.718827117546603 2.7574601764885029 #
coedge $-1 $521 $515 $327 $418 reversed $486 $-1 #
edge $-1 $423 -44.718827117546603 $419 44.718827117546603 $417 $522 forward 7 unknown #
vertex $-1 $418 $523 #
straight-curve $-1 0 -44.718827117546603 20.076865923832763 1 0 0 I I #
coedge $-1 $331 $402 $521 $524 reversed $422 $-1 #
loop $-1 $-1 $402 $426 #
vertex $-1 $332 $525 #
straight-curve $-1 0 44.718827117546603 20.076865923832763 -1 0 0 I I #
point $-1 67.771843623157451 44.718827117546603 20.076865923832763 #
face $-1 $-1 $422 $17 $-1 $526 reversed single #
loop $-1 $-1 $508 $335 #
plane-surface $-1 0 0 -20.076865923832763 0 0 1 1 0 0 forward_v I I I I #
face $-1 $527 $528 $18 $-1 $529 forward single #
loop $-1 $-1 $530 $337 #
plane-surface $-1 -59.273938049090305 0 -12.007853638870703 0 0 1 1 0 0 forward_v I I I I #
coedge $-1 $531 $532 $533 $534 reversed $338 $-1 #
coedge $-1 $535 $340 $437 $536 forward $246 $-1 #
coedge $-1 $340 $537 $345 $442 reversed $246 $-1 #
coedge $-1 $437 $341 $538 $539 reversed $248 $-1 #
edge $-1 $540 -27.432947167307354 $348 -7.1388127331711395 $346 $541 forward 7 unknown #
coedge $-1 $342 $435 $433 $536 reversed $248 $-1 #
vertex $-1 $536 $542 #
straight-curve $-1 1.815942852090302e-006 -24.424692683410388 120.14173770284512 0.49999998660252726 0 -0.86602541151947299 I I #
straight-curve $-1 67.771843623157451 -24.424692683410388 93.95678975502986 0 0 -1 I I #
coedge $-1 $543 $345 $544 $545 forward $347 $-1 #
edge $-1 $349 -24.424692683410388 $546 44.718827117546603 $434 $547 forward 7 unknown #
coedge $-1 $346 $543 $548 $549 forward $347 $-1 #
face $-1 $550 $347 $18 $-1 $551 forward single #
point $-1 57.772480409967088 -24.424692683410388 20.07686592383277 #
point $-1 67.771843623157451 -24.424692683410388 20.076865923832763 #
point $-1 56.397160967166393 -38.920502993507682 7.7365546097034139 #
face $-1 $552 $553 $19 $-1 $554 reversed single #
loop $-1 $-1 $555 $353 #
plane-surface $-1 67.771843623157451 0 0 -1 0 0 0 0 1 forward_v I I I I #
coedge $-1 $452 $355 $556 $557 forward $258 $-1 #
coedge $-1 $355 $451 $555 $558 reversed $258 $-1 #
coedge $-1 $559 $560 $355 $454 forward $561 $-1 #
edge $-1 $562 -0.91965926118264463 $563 9.0797039520077192 $453 $564 forward 7 unknown #
edge $-1 $565 1 $565 0 $356 $-1 forward 7 unknown #
vertex $-1 $357 $566 #
ellipse-curve $-1 58.562224495965076 -38.920502993507682 8.9865545762097323 0.86602541151947299 0 0.49999998660252726 1.2499999665063182 0 -2.1650635287986826 1 I I #
point $-1 64.022161983068585 -38.920502993507682 9.252099521361977 #
point $-1 56.397160967166393 -30.223016807449305 7.7365546097034139 #
coedge $-1 $567 $556 $560 $568 reversed $362 $-1 #
loop $-1 $-1 $569 $367 #
plane-surface $-1 0 0 -20.076865923832763 0 0 1 1 0 0 forward_v I I I I #
coedge $-1 $385 $380 $570 $571 forward $368 $-1 #
coedge $-1 $468 $470 $370 $465 forward $461 $-1 #
edge $-1 $467 -44.718827117546603 $466 44.718827117546603 $370 $572 forward 7 unknown #
vertex $-1 $469 $573 #
vertex $-1 $465 $574 #
coedge $-1 $569 $464 $374 $469 forward $461 $-1 #
edge $-1 $466 -67.771843623157451 $575 67.771843623157451 $374 $576 forward 7 unknown #
coedge $-1 $464 $569 $376 $471 forward $461 $-1 #
edge $-1 $577 -67.771843623157451 $467 67.771843623157451 $376 $578 forward 7 unknown #
coedge $-1 $380 $385 $378 $473 forward $368 $-1 #
edge $-1 $387 -44.718827117546603 $382 44.718827117546603 $378 $579 forward 7 unknown #
coedge $-1 $580 $570 $379 $475 forward $484 $-1 #
edge $-1 $476 -20.076865923832763 $577 20.076865923832763 $474 $581 forward 7 unknown #
vertex $-1 $571 $582 #
straight-curve $-1 0 -44.718827117546603 20.076865923832763 1 0 0 I I #
point $-1 -67.771843623157451 -44.718827117546603 20.076865923832763 #
coedge $-1 $570 $580 $384 $480 reversed $484 $-1 #
edge $-1 $481 -20.076865923832763 $575 20.076865923832763 $479 $583 forward 7 unknown #
vertex $-1 $571 $584 #
straight-curve $-1 0 44.718827117546603 20.076865923832763 -1 0 0 I I #
point $-1 -67.771843623157451 44.718827117546603 20.076865923832763 #
loop $-1 $-1 $474 $389 #
plane-surface $-1 67.771843623157451 0 0 -1 0 0 0 0 1 forward_v I I I I #
loop $-1 $-1 $498 $391 #
coedge $-1 $585 $586 $490 $587 forward $392 $-1 #
coedge $-1 $493 $400 $394 $489 forward $324 $-1 #
edge $-1 $405 0.64802288386898432 $496 7.7892281312908072 $488 $588 forward 7 unknown #
coedge $-1 $396 $395 $487 $587 reversed $226 $-1 #
coedge $-1 $502 $589 $395 $492 forward $422 $-1 #
edge $-1 $590 -38.134874598612299 $495 -21.139063450478005 $491 $591 forward 7 unknown #
coedge $-1 $517 $488 $396 $494 forward $324 $-1 #
edge $-1 $496 21.139063450478005 $592 38.134874598612299 $493 $593 forward 7 unknown #
vertex $-1 $492 $594 #
vertex $-1 $494 $595 #
straight-curve $-1 -50.776032475023158 0 -12.007853638870703 0 -1 0 I I #
coedge $-1 $515 $521 $399 $499 forward $486 $-1 #
edge $-1 $503 -44.718827117546603 $500 44.718827117546603 $498 $596 forward 7 unknown #
vertex $-1 $401 $597 #
straight-curve $-1 -29.636969024545152 -44.718827117546603 -4.8666483914488801 1 0 0 I I #
coedge $-1 $402 $491 $404 $505 forward $422 $-1 #
vertex $-1 $499 $598 #
straight-curve $-1 -29.636969024545152 44.718827117546603 -4.8666483914488801 -1 0 0 I I #
edge $-1 $495 -7.7892281312908072 $406 -0.64802288386898432 $502 $599 forward 7 unknown #
point $-1 -50.776032475023158 -44.718827117546603 -4.8666483914488801 #
point $-1 -50.776032475023158 44.718827117546603 -4.8666483914488801 #
coedge $-1 $518 $600 $408 $509 forward $427 $-1 #
edge $-1 $513 -44.718827117546603 $510 44.718827117546603 $408 $601 forward 7 unknown #
vertex $-1 $409 $602 #
straight-curve $-1 67.771843623157451 -44.718827117546603 0 0 0 -1 I I #
coedge $-1 $589 $411 $600 $603 reversed $422 $-1 #
vertex $-1 $509 $604 #
straight-curve $-1 67.771843623157451 44.718827117546603 0 0 0 -1 I I #
coedge $-1 $417 $498 $413 $516 reversed $486 $-1 #
edge $-1 $419 -20.076865923832763 $500 4.8666483914488801 $515 $605 forward 7 unknown #
coedge $-1 $414 $493 $586 $606 forward $324 $-1 #
coedge $-1 $607 $508 $414 $519 forward $427 $-1 #
edge $-1 $510 -67.771843623157451 $608 67.771843623157451 $414 $609 forward 7 unknown #
plane-surface $-1 0 -44.718827117546603 0 0 1 0 0 0 1 forward_v I I I I #
coedge $-1 $498 $417 $421 $524 forward $486 $-1 #
straight-curve $-1 -67.771843623157451 0 20.076865923832763 0 -1 0 I I #
point $-1 -67.771843623157451 -44.718827117546603 20.076865923832763 #
edge $-1 $423 -20.076865923832763 $503 4.8666483914488801 $421 $610 forward 7 unknown #
point $-1 -67.771843623157451 44.718827117546603 20.076865923832763 #
plane-surface $-1 0 44.718827117546603 0 0 -1 0 0 0 -1 forward_v I I I I #
face $-1 $611 $612 $18 $-1 $613 reversed single #
loop $-1 $-1 $614 $429 #
plane-surface $-1 -50.776032475023158 0 -8.4372510151597915 -1 0 0 0 0 1 forward_v I I I I #
coedge $-1 $615 $616 $617 $618 reversed $430 $-1 #
coedge $-1 $619 $432 $620 $621 reversed $338 $-1 #
coedge $-1 $432 $619 $622 $623 reversed $338 $-1 #
coedge $-1 $624 $614 $432 $534 forward $528 $-1 #
edge $-1 $625 -44.718827117546603 $626 44.718827117546603 $533 $627 forward 7 unknown #
coedge $-1 $628 $433 $629 $630 forward $246 $-1 #
edge $-1 $438 7.1388127331711395 $631 27.432947167307354 $433 $632 forward 7 unknown #
coedge $-1 $434 $628 $633 $634 reversed $246 $-1 #
coedge $-1 $548 $629 $435 $539 forward $635 $-1 #
edge $-1 $631 -83.520788782915091 $540 -63.522061820669563 $538 $636 forward 7 unknown #
vertex $-1 $539 $637 #
straight-curve $-1 57.772480409967088 -17.285879950239249 20.076865923832763 0 1 0 I I #
point $-1 67.771843623157451 -24.424692683410388 2.7574601764885074 #
coedge $-1 $443 $441 $638 $639 forward $347 $-1 #
coedge $-1 $633 $640 $441 $545 reversed $641 $-1 #
edge $-1 $546 -67.771843623157451 $642 67.771843623157451 $544 $643 forward 7 unknown #
vertex $-1 $442 $644 #
straight-curve $-1 67.771843623157451 0 20.076865923832763 0 1 0 I I #
coedge $-1 $645 $538 $443 $549 reversed $635 $-1 #
edge $-1 $646 -67.771843623157451 $540 57.772480409967088 $548 $647 forward 7 unknown #
face $-1 $648 $649 $18 $-1 $650 reversed single #
plane-surface $-1 0 0 20.076865923832763 0 0 1 1 0 0 forward_v I I I I #
face $-1 $651 $652 $19 $-1 $653 forward single #
loop $-1 $-1 $654 $448 #
plane-surface $-1 -59.273938049090305 0 -4.8666483914488801 0 0 1 1 0 0 forward_v I I I I #
coedge $-1 $655 $656 $452 $558 forward $449 $-1 #
coedge $-1 $460 $657 $451 $557 reversed $362 $-1 #
edge $-1 $562 115.54496028406938 $658 135.5436872463149 $451 $659 forward 7 unknown #
edge $-1 $563 73.87992383119709 $658 91.199329578541352 $555 $660 forward 7 unknown #
coedge $-1 $661 $453 $656 $662 forward $561 $-1 #
coedge $-1 $453 $663 $460 $568 forward $561 $-1 #
loop $-1 $-1 $453 $664 #
vertex $-1 $568 $665 #
vertex $-1 $662 $666 #
straight-curve $-1 58.692139671149732 -24.424692683410388 20.07686592383277 1 0 0 I I #
vertex $-1 $455 $667 #
point $-1 59.812224462471391 -38.920502993507682 6.8214910474110493 #
coedge $-1 $657 $460 $668 $669 reversed $362 $-1 #
edge $-1 $670 -27.432947167307354 $562 -7.1388127331711395 $560 $671 forward 7 unknown #
coedge $-1 $470 $468 $580 $672 forward $461 $-1 #
coedge $-1 $474 $479 $463 $571 reversed $484 $-1 #
edge $-1 $476 -44.718827117546603 $481 44.718827117546603 $570 $673 forward 7 unknown #
straight-curve $-1 -67.771843623157451 0 -20.076865923832763 0 1 0 I I #
point $-1 -67.771843623157451 44.718827117546603 -20.076865923832763 #
point $-1 -67.771843623157451 -44.718827117546603 -20.076865923832763 #
vertex $-1 $672 $674 #
straight-curve $-1 0 44.718827117546603 -20.076865923832763 1 0 0 I I #
vertex $-1 $475 $675 #
straight-curve $-1 0 -44.718827117546603 -20.076865923832763 -1 0 0 I I #
straight-curve $-1 -67.771843623157451 0 20.076865923832763 0 -1 0 I I #
coedge $-1 $479 $474 $569 $672 reversed $484 $-1 #
straight-curve $-1 67.771843623157451 -44.718827117546603 0 0 0 -1 I I #
point $-1 67.771843623157451 -44.718827117546603 20.076865923832763 #
straight-curve $-1 67.771843623157451 44.718827117546603 0 0 0 -1 I I #
point $-1 67.771843623157451 44.718827117546603 20.076865923832763 #
coedge $-1 $676 $487 $589 $677 forward $392 $-1 #
coedge $-1 $487 $676 $517 $606 reversed $392 $-1 #
edge $-1 $592 -44.718827117546603 $590 44.718827117546603 $487 $678 forward 7 unknown #
straight-curve $-1 -50.776032475023158 -44.718827117546603 -4.2186255075798957 0 0 -1 I I #
coedge $-1 $491 $512 $585 $677 reversed $422 $-1 #
vertex $-1 $677 $679 #
straight-curve $-1 -29.636969024545152 44.718827117546603 -12.007853638870703 1 0 0 I I #
vertex $-1 $606 $680 #
straight-curve $-1 -29.636969024545152 -44.718827117546603 -12.007853638870703 -1 0 0 I I #
point $-1 -50.776032475023158 44.718827117546603 -12.007853638870703 #
point $-1 -50.776032475023158 -44.718827117546603 -12.007853638870703 #
straight-curve $-1 -67.771843623157451 0 -4.8666483914488801 0 -1 0 I I #
point $-1 -67.771843623157451 -44.718827117546603 -4.8666483914488801 #
point $-1 -67.771843623157451 44.718827117546603 -4.8666483914488801 #
straight-curve $-1 -50.776032475023158 44.718827117546603 -4.2186255075798957 0 0 1 I I #
coedge $-1 $508 $607 $512 $603 forward $427 $-1 #
straight-curve $-1 67.771843623157451 0 -20.076865923832763 0 -1 0 I I #
point $-1 67.771843623157451 -44.718827117546603 -20.076865923832763 #
edge $-1 $681 -67.771843623157451 $513 67.771843623157451 $512 $682 forward 7 unknown #
point $-1 67.771843623157451 44.718827117546603 -20.076865923832763 #
straight-curve $-1 -67.771843623157451 -44.718827117546603 0 0 0 -1 I I #
edge $-1 $592 12.007853638870703 $608 20.076865923832763 $586 $605 forward 7 unknown #
coedge $-1 $600 $518 $676 $683 forward $427 $-1 #
vertex $-1 $683 $684 #
straight-curve $-1 0 -44.718827117546603 -20.076865923832763 -1 0 0 I I #
straight-curve $-1 -67.771843623157451 44.718827117546603 0 0 0 -1 I I #
face $-1 $685 $686 $18 $-1 $613 reversed single #
loop $-1 $-1 $687 $527 #
plane-surface $-1 -67.771843623157451 0 0 1 0 0 0 0 -1 forward_v I I I I #
coedge $-1 $533 $617 $688 $689 reversed $528 $-1 #
coedge $-1 $690 $530 $691 $692 reversed $430 $-1 #
coedge $-1 $530 $690 $693 $694 reversed $430 $-1 #
coedge $-1 $614 $624 $530 $618 forward $528 $-1 #
edge $-1 $695 -44.718827117546603 $696 44.718827117546603 $617 $697 forward 7 unknown #
coedge $-1 $532 $531 $698 $699 reversed $338 $-1 #
coedge $-1 $688 $645 $531 $621 forward $635 $-1 #
edge $-1 $700 -38.134874598612299 $625 -21.139063450478005 $620 $701 forward 7 unknown #
coedge $-1 $640 $702 $532 $623 forward $641 $-1 #
edge $-1 $626 21.139063450478005 $703 38.134874598612299 $622 $704 forward 7 unknown #
coedge $-1 $617 $533 $702 $705 reversed $528 $-1 #
vertex $-1 $621 $706 #
vertex $-1 $623 $707 #
straight-curve $-1 -50.776032475023158 0 -4.8666483914488801 0 1 0 I I #
coedge $-1 $537 $535 $708 $709 reversed $246 $-1 #
coedge $-1 $538 $710 $535 $630 reversed $635 $-1 #
edge $-1 $631 -2.7574601764885029 $711 20.076865923832763 $535 $712 forward 7 unknown #
vertex $-1 $630 $713 #
straight-curve $-1 67.771843623157451 -17.285879950239249 2.7574601764885074 0 -1 0 I I #
coedge $-1 $714 $544 $537 $634 forward $641 $-1 #
edge $-1 $546 -20.076865923832763 $715 20.076865923832763 $537 $716 forward 7 unknown #
loop $-1 $-1 $538 $685 #
straight-curve $-1 26.011450350667396 -44.718827117546603 75.08858565264353 -0.49999998660252726 0 0.86602541151947299 I I #
point $-1 57.772480409967088 -44.718827117546603 20.076865923832763 #
coedge $-1 $717 $718 $543 $639 reversed $686 $-1 #
edge $-1 $642 -44.718827117546603 $646 44.718827117546603 $638 $719 forward 7 unknown #
coedge $-1 $544 $622 $717 $720 reversed $641 $-1 #
loop $-1 $-1 $622 $648 #
vertex $-1 $545 $721 #
straight-curve $-1 0 44.718827117546603 20.076865923832763 -1 0 0 I I #
point $-1 67.771843623157451 44.718827117546603 20.076865923832763 #
coedge $-1 $620 $548 $718 $722 forward $635 $-1 #
vertex $-1 $639 $723 #
straight-curve $-1 0 -44.718827117546603 20.076865923832763 1 0 0 I I #
face $-1 $-1 $641 $18 $-1 $724 reversed single #
loop $-1 $-1 $708 $550 #
plane-surface $-1 0 0 -20.076865923832763 0 0 1 1 0 0 forward_v I I I I #
face $-1 $725 $726 $19 $-1 $727 forward single #
loop $-1 $-1 $728 $552 #
plane-surface $-1 -59.273938049090305 0 -12.007853638870703 0 0 1 1 0 0 forward_v I I I I #
coedge $-1 $729 $730 $731 $732 reversed $553 $-1 #
coedge $-1 $733 $555 $657 $734 forward $449 $-1 #
coedge $-1 $555 $735 $559 $662 reversed $449 $-1 #
coedge $-1 $556 $567 $655 $734 reversed $362 $-1 #
vertex $-1 $734 $736 #
straight-curve $-1 1.815942852090302e-006 -24.424692683410388 120.14173770284512 0.49999998660252726 0 -0.86602541151947299 I I #
straight-curve $-1 67.771843623157451 -24.424692683410388 93.95678975502986 0 0 -1 I I #
coedge $-1 $737 $559 $738 $739 forward $561 $-1 #
edge $-1 $563 -24.424692683410388 $740 44.718827117546603 $656 $741 forward 7 unknown #
coedge $-1 $560 $737 $742 $743 forward $561 $-1 #
face $-1 $744 $561 $19 $-1 $745 forward single #
point $-1 57.772480409967088 -24.424692683410388 20.07686592383277 #
point $-1 67.771843623157451 -24.424692683410388 20.076865923832763 #
point $-1 56.397160967166393 -38.920502993507682 7.7365546097034139 #
coedge $-1 $742 $746 $567 $669 forward $747 $-1 #
edge $-1 $748 -83.520788782915091 $670 -63.522061820669563 $668 $749 forward 7 unknown #
vertex $-1 $669 $750 #
straight-curve $-1 57.772480409967088 -17.285879950239249 20.076865923832763 0 1 0 I I #
edge $-1 $575 -44.718827117546603 $577 44.718827117546603 $580 $751 forward 7 unknown #
straight-curve $-1 67.771843623157451 0 20.076865923832763 0 1 0 I I #
point $-1 67.771843623157451 44.718827117546603 -20.076865923832763 #
point $-1 67.771843623157451 -44.718827117546603 -20.076865923832763 #
coedge $-1 $586 $585 $607 $683 reversed $392 $-1 #
edge $-1 $590 12.007853638870703 $681 20.076865923832763 $589 $610 forward 7 unknown #
straight-curve $-1 -67.771843623157451 0 -12.007853638870703 0 1 0 I I #
point $-1 -67.771843623157451 44.718827117546603 -12.007853638870703 #
point $-1 -67.771843623157451 -44.718827117546603 -12.007853638870703 #
vertex $-1 $603 $752 #
straight-curve $-1 0 44.718827117546603 -20.076865923832763 1 0 0 I I #
edge $-1 $608 -44.718827117546603 $681 44.718827117546603 $676 $753 forward 7 unknown #
point $-1 -67.771843623157451 -44.718827117546603 -20.076865923832763 #
face $-1 $444 $635 $18 $-1 $754 reversed single #
loop $-1 $-1 $698 $611 #
coedge $-1 $755 $756 $690 $757 forward $612 $-1 #
coedge $-1 $693 $620 $614 $689 forward $635 $-1 #
edge $-1 $625 0.64802288386898432 $696 7.7892281312908072 $688 $758 forward 7 unknown #
coedge $-1 $616 $615 $687 $757 reversed $430 $-1 #
coedge $-1 $702 $759 $615 $692 forward $641 $-1 #
edge $-1 $760 -38.134874598612299 $695 -21.139063450478005 $691 $761 forward 7 unknown #
coedge $-1 $762 $688 $616 $694 forward $635 $-1 #
edge $-1 $696 21.139063450478005 $763 38.134874598612299 $693 $764 forward 7 unknown #
vertex $-1 $692 $765 #
vertex $-1 $694 $766 #
straight-curve $-1 -50.776032475023158 0 -12.007853638870703 0 -1 0 I I #
coedge $-1 $718 $717 $619 $699 forward $686 $-1 #
edge $-1 $703 -44.718827117546603 $700 44.718827117546603 $698 $767 forward 7 unknown #
vertex $-1 $621 $768 #
straight-curve $-1 -29.636969024545152 -44.718827117546603 -4.8666483914488801 1 0 0 I I #
coedge $-1 $622 $691 $624 $705 forward $641 $-1 #
vertex $-1 $699 $769 #
straight-curve $-1 -29.636969024545152 44.718827117546603 -4.8666483914488801 -1 0 0 I I #
edge $-1 $695 -7.7892281312908072 $626 -0.64802288386898432 $702 $770 forward 7 unknown #
point $-1 -50.776032475023158 -44.718827117546603 -4.8666483914488801 #
point $-1 -50.776032475023158 44.718827117546603 -4.8666483914488801 #
coedge $-1 $771 $772 $628 $709 forward $649 $-1 #
edge $-1 $715 -44.718827117546603 $711 44.718827117546603 $628 $773 forward 7 unknown #
coedge $-1 $629 $762 $771 $774 reversed $635 $-1 #
vertex $-1 $630 $775 #
straight-curve $-1 67.771843623157451 -44.718827117546603 0 0 0 -1 I I #
point $-1 67.771843623157451 -44.718827117546603 2.7574601764885029 #
coedge $-1 $759 $633 $772 $776 reversed $641 $-1 #
vertex $-1 $709 $777 #
straight-curve $-1 67.771843623157451 44.718827117546603 0 0 0 -1 I I #
coedge $-1 $698 $638 $640 $720 forward $686 $-1 #
coedge $-1 $638 $698 $645 $722 reversed $686 $-1 #
straight-curve $-1 -67.771843623157451 0 20.076865923832763 0 -1 0 I I #
edge $-1 $642 -20.076865923832763 $703 4.8666483914488801 $640 $778 forward 7 unknown #
point $-1 -67.771843623157451 44.718827117546603 20.076865923832763 #
edge $-1 $646 -20.076865923832763 $700 4.8666483914488801 $718 $779 forward 7 unknown #
point $-1 -67.771843623157451 -44.718827117546603 20.076865923832763 #
plane-surface $-1 0 44.718827117546603 0 0 -1 0 0 0 -1 forward_v I I I I #
face $-1 $780 $781 $19 $-1 $782 reversed single #
loop $-1 $-1 $783 $651 #
plane-surface $-1 -50.776032475023158 0 -8.4372510151597915 -1 0 0 0 0 1 forward_v I I I I #
coedge $-1 $784 $785 $786 $787 reversed $652 $-1 #
coedge $-1 $788 $654 $789 $790 reversed $553 $-1 #
coedge $-1 $654 $788 $791 $792 reversed $553 $-1 #
coedge $-1 $793 $783 $654 $732 forward $726 $-1 #
edge $-1 $794 -44.718827117546603 $795 44.718827117546603 $731 $796 forward 7 unknown #
coedge $-1 $797 $655 $746 $798 forward $449 $-1 #
edge $-1 $658 7.1388127331711395 $748 27.432947167307354 $655 $799 forward 7 unknown #
coedge $-1 $656 $797 $800 $801 reversed $449 $-1 #
point $-1 67.771843623157451 -24.424692683410388 2.7574601764885074 #
coedge $-1 $663 $661 $802 $803 forward $561 $-1 #
coedge $-1 $800 $804 $661 $739 reversed $805 $-1 #
edge $-1 $740 -67.771843623157451 $806 67.771843623157451 $738 $807 forward 7 unknown #
vertex $-1 $662 $808 #
straight-curve $-1 67.771843623157451 0 20.076865923832763 0 1 0 I I #
coedge $-1 $809 $668 $663 $743 reversed $747 $-1 #
edge $-1 $810 -67.771843623157451 $670 57.772480409967088 $742 $811 forward 7 unknown #
face $-1 $812 $813 $19 $-1 $814 reversed single #
plane-surface $-1 0 0 20.076865923832763 0 0 1 1 0 0 forward_v I I I I #
coedge $-1 $668 $815 $733 $798 reversed $747 $-1 #
loop $-1 $-1 $668 $816 #
vertex $-1 $798 $817 #
straight-curve $-1 26.011450350667396 -44.718827117546603 75.08858565264353 -0.49999998660252726 0 0.86602541151947299 I I #
point $-1 57.772480409967088 -44.718827117546603 20.076865923832763 #
straight-curve $-1 67.771843623157451 0 -20.076865923832763 0 -1 0 I I #
point $-1 -67.771843623157451 44.718827117546603 -20.076865923832763 #
straight-curve $-1 -67.771843623157451 0 -20.076865923832763 0 1 0 I I #
plane-surface $-1 0 -44.718827117546603 0 0 1 0 0 0 1 forward_v I I I I #
coedge $-1 $818 $687 $759 $819 forward $612 $-1 #
coedge $-1 $687 $818 $762 $820 reversed $612 $-1 #
edge $-1 $763 -44.718827117546603 $760 44.718827117546603 $687 $821 forward 7 unknown #
straight-curve $-1 -50.776032475023158 -44.718827117546603 -4.2186255075798957 0 0 -1 I I #
coedge $-1 $691 $714 $755 $819 reversed $641 $-1 #
vertex $-1 $819 $822 #
straight-curve $-1 -29.636969024545152 44.718827117546603 -12.007853638870703 1 0 0 I I #
coedge $-1 $710 $693 $756 $820 forward $635 $-1 #
vertex $-1 $820 $823 #
straight-curve $-1 -29.636969024545152 -44.718827117546603 -12.007853638870703 -1 0 0 I I #
point $-1 -50.776032475023158 44.718827117546603 -12.007853638870703 #
point $-1 -50.776032475023158 -44.718827117546603 -12.007853638870703 #
straight-curve $-1 -67.771843623157451 0 -4.8666483914488801 0 -1 0 I I #
point $-1 -67.771843623157451 -44.718827117546603 -4.8666483914488801 #
point $-1 -67.771843623157451 44.718827117546603 -4.8666483914488801 #
straight-curve $-1 -50.776032475023158 44.718827117546603 -4.2186255075798957 0 0 1 I I #
coedge $-1 $824 $708 $710 $774 forward $649 $-1 #
coedge $-1 $708 $824 $714 $776 forward $649 $-1 #
straight-curve $-1 67.771843623157451 0 -20.076865923832763 0 -1 0 I I #
edge $-1 $711 -67.771843623157451 $825 67.771843623157451 $710 $826 forward 7 unknown #
point $-1 67.771843623157451 -44.718827117546603 -20.076865923832763 #
edge $-1 $827 -67.771843623157451 $715 67.771843623157451 $714 $828 forward 7 unknown #
point $-1 67.771843623157451 44.718827117546603 -20.076865923832763 #
straight-curve $-1 -67.771843623157451 44.718827117546603 0 0 0 -1 I I #
straight-curve $-1 -67.771843623157451 -44.718827117546603 0 0 0 -1 I I #
face $-1 $816 $829 $19 $-1 $782 reversed single #
loop $-1 $-1 $830 $725 #
plane-surface $-1 -67.771843623157451 0 0 1 0 0 0 0 -1 forward_v I I I I #
coedge $-1 $731 $786 $831 $832 reversed $726 $-1 #
coedge $-1 $833 $728 $834 $835 reversed $652 $-1 #
coedge $-1 $728 $833 $836 $837 reversed $652 $-1 #
coedge $-1 $783 $793 $728 $787 forward $726 $-1 #
edge $-1 $838 -44.718827117546603 $839 44.718827117546603 $786 $840 forward 7 unknown #
coedge $-1 $730 $729 $841 $842 reversed $553 $-1 #
coedge $-1 $831 $809 $729 $790 forward $747 $-1 #
edge $-1 $843 -38.134874598612299 $794 -21.139063450478005 $789 $844 forward 7 unknown #
coedge $-1 $804 $845 $730 $792 forward $805 $-1 #
edge $-1 $795 21.139063450478005 $846 38.134874598612299 $791 $847 forward 7 unknown #
coedge $-1 $786 $731 $845 $848 reversed $726 $-1 #
vertex $-1 $790 $849 #
vertex $-1 $792 $850 #
straight-curve $-1 -50.776032475023158 0 -4.8666483914488801 0 1 0 I I #
coedge $-1 $735 $733 $851 $852 reversed $449 $-1 #
edge $-1 $748 -2.7574601764885029 $853 20.076865923832763 $733 $854 forward 7 unknown #
straight-curve $-1 67.771843623157451 -17.285879950239249 2.7574601764885074 0 -1 0 I I #
coedge $-1 $855 $738 $735 $801 forward $805 $-1 #
edge $-1 $740 -20.076865923832763 $856 20.076865923832763 $735 $857 forward 7 unknown #
coedge $-1 $858 $859 $737 $803 reversed $829 $-1 #
edge $-1 $806 -44.718827117546603 $810 44.718827117546603 $802 $860 forward 7 unknown #
coedge $-1 $738 $791 $858 $861 reversed $805 $-1 #
loop $-1 $-1 $791 $812 #
vertex $-1 $739 $862 #
straight-curve $-1 0 44.718827117546603 20.076865923832763 -1 0 0 I I #
point $-1 67.771843623157451 44.718827117546603 20.076865923832763 #
coedge $-1 $789 $742 $859 $863 forward $747 $-1 #
vertex $-1 $803 $864 #
straight-curve $-1 0 -44.718827117546603 20.076865923832763 1 0 0 I I #
face $-1 $-1 $805 $19 $-1 $865 reversed single #
loop $-1 $-1 $851 $744 #
plane-surface $-1 0 0 -20.076865923832763 0 0 1 1 0 0 forward_v I I I I #
coedge $-1 $746 $866 $867 $868 reversed $747 $-1 #
face $-1 $664 $747 $19 $-1 $869 reversed single #
point $-1 67.771843623157451 -44.718827117546603 2.7574601764885029 #
coedge $-1 $756 $755 $824 $870 reversed $612 $-1 #
edge $-1 $760 12.007853638870703 $827 20.076865923832763 $759 $778 forward 7 unknown #
edge $-1 $763 12.007853638870703 $825 20.076865923832763 $756 $779 forward 7 unknown #
straight-curve $-1 -67.771843623157451 0 -12.007853638870703 0 1 0 I I #
point $-1 -67.771843623157451 44.718827117546603 -12.007853638870703 #
point $-1 -67.771843623157451 -44.718827117546603 -12.007853638870703 #
coedge $-1 $772 $771 $818 $870 forward $649 $-1 #
vertex $-1 $870 $871 #
straight-curve $-1 0 -44.718827117546603 -20.076865923832763 -1 0 0 I I #
vertex $-1 $776 $872 #
straight-curve $-1 0 44.718827117546603 -20.076865923832763 1 0 0 I I #
loop $-1 $-1 $841 $780 #
coedge $-1 $873 $874 $833 $875 forward $781 $-1 #
coedge $-1 $836 $789 $783 $832 forward $747 $-1 #
edge $-1 $794 0.64802288386898432 $839 7.7892281312908072 $831 $876 forward 7 unknown #
coedge $-1 $785 $784 $830 $875 reversed $652 $-1 #
coedge $-1 $845 $877 $784 $835 forward $805 $-1 #
edge $-1 $878 -38.134874598612299 $838 -21.139063450478005 $834 $879 forward 7 unknown #
coedge $-1 $866 $831 $785 $837 forward $747 $-1 #
edge $-1 $839 21.139063450478005 $880 38.134874598612299 $836 $881 forward 7 unknown #
vertex $-1 $835 $882 #
vertex $-1 $837 $883 #
straight-curve $-1 -50.776032475023158 0 -12.007853638870703 0 -1 0 I I #
coedge $-1 $859 $858 $788 $842 forward $829 $-1 #
edge $-1 $846 -44.718827117546603 $843 44.718827117546603 $841 $884 forward 7 unknown #
vertex $-1 $790 $885 #
straight-curve $-1 -29.636969024545152 -44.718827117546603 -4.8666483914488801 1 0 0 I I #
coedge $-1 $791 $834 $793 $848 forward $805 $-1 #
vertex $-1 $842 $886 #
straight-curve $-1 -29.636969024545152 44.718827117546603 -4.8666483914488801 -1 0 0 I I #
edge $-1 $838 -7.7892281312908072 $795 -0.64802288386898432 $845 $887 forward 7 unknown #
point $-1 -50.776032475023158 -44.718827117546603 -4.8666483914488801 #
point $-1 -50.776032475023158 44.718827117546603 -4.8666483914488801 #
coedge $-1 $867 $888 $797 $852 forward $813 $-1 #
edge $-1 $856 -44.718827117546603 $853 44.718827117546603 $797 $889 forward 7 unknown #
vertex $-1 $798 $890 #
straight-curve $-1 67.771843623157451 -44.718827117546603 0 0 0 -1 I I #
coedge $-1 $877 $800 $888 $891 reversed $805 $-1 #
vertex $-1 $852 $892 #
straight-curve $-1 67.771843623157451 44.718827117546603 0 0 0 -1 I I #
coedge $-1 $841 $802 $804 $861 forward $829 $-1 #
coedge $-1 $802 $841 $809 $863 reversed $829 $-1 #
straight-curve $-1 -67.771843623157451 0 20.076865923832763 0 -1 0 I I #
edge $-1 $806 -20.076865923832763 $846 4.8666483914488801 $804 $893 forward 7 unknown #
point $-1 -67.771843623157451 44.718827117546603 20.076865923832763 #
edge $-1 $810 -20.076865923832763 $843 4.8666483914488801 $859 $894 forward 7 unknown #
point $-1 -67.771843623157451 -44.718827117546603 20.076865923832763 #
plane-surface $-1 0 44.718827117546603 0 0 -1 0 0 0 -1 forward_v I I I I #
coedge $-1 $815 $836 $874 $895 forward $747 $-1 #
coedge $-1 $896 $851 $815 $868 forward $813 $-1 #
edge $-1 $853 -67.771843623157451 $897 67.771843623157451 $815 $898 forward 7 unknown #
plane-surface $-1 0 -44.718827117546603 0 0 1 0 0 0 1 forward_v I I I I #
edge $-1 $825 -44.718827117546603 $827 44.718827117546603 $818 $899 forward 7 unknown #
point $-1 -67.771843623157451 -44.718827117546603 -20.076865923832763 #
point $-1 -67.771843623157451 44.718827117546603 -20.076865923832763 #
coedge $-1 $900 $830 $877 $901 forward $781 $-1 #
coedge $-1 $830 $900 $866 $895 reversed $781 $-1 #
edge $-1 $880 -44.718827117546603 $878 44.718827117546603 $830 $902 forward 7 unknown #
straight-curve $-1 -50.776032475023158 -44.718827117546603 -4.2186255075798957 0 0 -1 I I #
coedge $-1 $834 $855 $873 $901 reversed $805 $-1 #
vertex $-1 $901 $903 #
straight-curve $-1 -29.636969024545152 44.718827117546603 -12.007853638870703 1 0 0 I I #
vertex $-1 $895 $904 #
straight-curve $-1 -29.636969024545152 -44.718827117546603 -12.007853638870703 -1 0 0 I I #
point $-1 -50.776032475023158 44.718827117546603 -12.007853638870703 #
point $-1 -50.776032475023158 -44.718827117546603 -12.007853638870703 #
straight-curve $-1 -67.771843623157451 0 -4.8666483914488801 0 -1 0 I I #
point $-1 -67.771843623157451 -44.718827117546603 -4.8666483914488801 #
point $-1 -67.771843623157451 44.718827117546603 -4.8666483914488801 #
straight-curve $-1 -50.776032475023158 44.718827117546603 -4.2186255075798957 0 0 1 I I #
coedge $-1 $851 $896 $855 $891 forward $813 $-1 #
straight-curve $-1 67.771843623157451 0 -20.076865923832763 0 -1 0 I I #
point $-1 67.771843623157451 -44.718827117546603 -20.076865923832763 #
edge $-1 $905 -67.771843623157451 $856 67.771843623157451 $855 $906 forward 7 unknown #
point $-1 67.771843623157451 44.718827117546603 -20.076865923832763 #
straight-curve $-1 -67.771843623157451 44.718827117546603 0 0 0 -1 I I #
straight-curve $-1 -67.771843623157451 -44.718827117546603 0 0 0 -1 I I #
edge $-1 $880 12.007853638870703 $897 20.076865923832763 $874 $894 forward 7 unknown #
coedge $-1 $888 $867 $900 $907 forward $813 $-1 #
vertex $-1 $907 $908 #
straight-curve $-1 0 -44.718827117546603 -20.076865923832763 -1 0 0 I I #
straight-curve $-1 -67.771843623157451 0 -20.076865923832763 0 1 0 I I #
coedge $-1 $874 $873 $896 $907 reversed $781 $-1 #
edge $-1 $878 12.007853638870703 $905 20.076865923832763 $877 $893 forward 7 unknown #
straight-curve $-1 -67.771843623157451 0 -12.007853638870703 0 1 0 I I #
point $-1 -67.771843623157451 44.718827117546603 -12.007853638870703 #
point $-1 -67.771843623157451 -44.718827117546603 -12.007853638870703 #
vertex $-1 $891 $909 #
straight-curve $-1 0 44.718827117546603 -20.076865923832763 1 0 0 I I #
edge $-1 $897 -44.718827117546603 $905 44.718827117546603 $900 $910 forward 7 unknown #
point $-1 -67.771843623157451 -44.718827117546603 -20.076865923832763 #
point $-1 -67.771843623157451 44.718827117546603 -20.076865923832763 #
straight-curve $-1 -67.771843623157451 0 -20.076865923832763 0 1 0 I I #
End-of-ACIS-data 