500 0 6 0           
7 Unknown 11 ACIS 5.0 NT 24 Fri Mar 26 19:33:07 1999 
-1 9.9999999999999995e-007 1e-010 
body $-1 $6 $-1 $7 #
body $-1 $8 $-1 $9 #
body $-1 $10 $-1 $11 #
body $-1 $12 $-1 $13 #
body $-1 $14 $-1 $15 #
body $-1 $16 $-1 $17 #
lump $-1 $-1 $18 $0 #
transform $-1 1 0 0 0 1 0 0 0 1 75.822626422925509 49.906824338932573 12.488053044824852 1 rotate no_reflect no_shear #
lump $-1 $-1 $19 $1 #
transform $-1 1 0 0 0 1 0 0 0 1 75.822626422925509 49.906824338932573 12.488053044824852 1 rotate no_reflect no_shear #
lump $-1 $-1 $20 $2 #
transform $-1 1 0 0 0 1 0 0 0 1 75.822626422925509 49.906824338932573 12.488053044824852 1 rotate no_reflect no_shear #
lump $-1 $-1 $21 $3 #
transform $-1 1 0 0 0 1 0 0 0 1 75.822626422925509 49.906824338932573 12.488053044824852 1 rotate no_reflect no_shear #
lump $-1 $-1 $22 $4 #
transform $-1 1 0 0 0 1 0 0 0 1 75.822626422925509 49.906824338932573 12.488053044824852 1 rotate no_reflect no_shear #
lump $-1 $-1 $23 $5 #
transform $-1 1 0 0 0 1 0 0 0 1 75.822626422925509 49.906824338932573 12.488053044824852 1 rotate no_reflect no_shear #
shell $-1 $-1 $-1 $24 $-1 $6 #
shell $-1 $-1 $-1 $25 $-1 $8 #
shell $-1 $-1 $-1 $26 $-1 $10 #
shell $-1 $-1 $-1 $27 $-1 $12 #
shell $-1 $-1 $-1 $28 $-1 $14 #
shell $-1 $-1 $-1 $29 $-1 $16 #
face $-1 $30 $31 $18 $-1 $32 forward single #
face $-1 $33 $34 $19 $-1 $35 reversed single #
face $-1 $36 $37 $20 $-1 $38 reversed single #
face $-1 $39 $40 $21 $-1 $41 forward single #
face $-1 $42 $43 $22 $-1 $44 reversed single #
face $-1 $45 $46 $23 $-1 $47 forward single #
face $-1 $48 $49 $18 $-1 $50 reversed single #
loop $-1 $-1 $51 $24 #
plane-surface $-1 0 0 12.488053044824852 0 0 1 1 0 0 forward_v I I I I #
face $-1 $52 $53 $19 $-1 $54 reversed single #
loop $-1 $-1 $55 $25 #
plane-surface $-1 -70.073495264776724 -45.823338733496747 0 0 1 0 0 0 1 forward_v I I I I #
face $-1 $56 $57 $20 $-1 $58 reversed single #
loop $-1 $-1 $59 $26 #
plane-surface $-1 -47.280638939196763 -160.81314259400912 107.38387881069556 -1 0 0 0 -0.73135370988377701 0.68199835119979291 forward_v I I I I #
face $-1 $60 $61 $21 $-1 $62 forward single #
loop $-1 $63 $64 $27 #
cone-surface $-1 -55.802501522912351 -44.336376749301031 6.7375656850393959 0 0.73135370988377701 -0.68199835119979291 1.5 0 0 1 I I 0 1 1.5 forward I I I I #
face $-1 $65 $66 $22 $-1 $67 reversed single #
loop $-1 $-1 $68 $28 #
plane-surface $-1 -64.324364106627939 92.740398768469703 180.38296106828821 1 0 0 0 -0.73135370988377701 -0.68199835119979291 forward_v I I I I #
face $-1 $69 $70 $23 $-1 $71 forward single #
loop $-1 $72 $73 $29 #
cone-surface $-1 -55.802501522912351 44.336376749301024 6.7375656850393959 0 -0.73135370988377701 -0.68199835119979291 1.5 0 0 1 I I 0 1 1.5 forward I I I I #
face $-1 $74 $75 $18 $-1 $76 reversed single #
loop $-1 $-1 $77 $30 #
plane-surface $-1 0 0 -12.488053044824852 0 0 1 1 0 0 forward_v I I I I #
coedge $-1 $78 $79 $80 $81 forward $31 $-1 #
face $-1 $82 $83 $19 $-1 $84 reversed single #
loop $-1 $-1 $85 $33 #
plane-surface $-1 -70.073495264776724 -40.731847420681014 0 0 -1 0 0 0 -1 forward_v I I I I #
coedge $-1 $86 $87 $88 $89 reversed $34 $-1 #
face $-1 $90 $91 $20 $-1 $92 reversed single #
loop $-1 $-1 $93 $36 #
plane-surface $-1 -55.802501522912351 -49.90682433893258 3.9620664025494676 0 -0.73135370988377701 0.68199835119979291 1 0 0 forward_v I I I I #
coedge $-1 $94 $95 $96 $97 reversed $37 $-1 #
face $-1 $-1 $98 $21 $-1 $99 forward single #
loop $-1 $100 $101 $39 #
cone-surface $-1 -55.802501522912351 -42.192719364739119 4.7385728829917895 0 0.73135370988377701 -0.68199835119979291 0.75 0 0 1 I I -0.70710678118654757 0.70710678118654757 0.75 forward I I I I #
loop $-1 $-1 $102 $27 #
coedge $-1 $64 $64 $103 $104 reversed $40 $-1 #
face $-1 $105 $106 $22 $-1 $107 reversed single #
loop $-1 $-1 $108 $42 #
plane-surface $-1 -55.802501522912351 -18.165919486606839 76.961148660142115 0 0.73135370988377701 0.68199835119979291 1 0 0 forward_v I I I I #
coedge $-1 $109 $110 $111 $112 reversed $43 $-1 #
face $-1 $-1 $113 $23 $-1 $114 forward single #
loop $-1 $115 $116 $45 #
cone-surface $-1 -55.802501522912351 42.192719364739112 4.7385728829917895 0 -0.73135370988377701 -0.68199835119979291 0.75 0 0 1 I I -0.70710678118654757 0.70710678118654757 0.75 forward I I I I #
loop $-1 $-1 $117 $29 #
coedge $-1 $73 $73 $118 $119 reversed $46 $-1 #
face $-1 $120 $121 $18 $-1 $122 reversed single #
loop $-1 $-1 $123 $48 #
plane-surface $-1 0 -49.906824338932573 0 0 1 0 0 0 1 forward_v I I I I #
coedge $-1 $124 $125 $126 $127 forward $49 $-1 #
coedge $-1 $128 $51 $129 $130 forward $31 $-1 #
coedge $-1 $51 $128 $131 $132 forward $31 $-1 #
coedge $-1 $133 $134 $51 $81 reversed $135 $-1 #
edge $-1 $136 -49.906824338932573 $137 49.906824338932573 $80 $138 forward 7 unknown #
face $-1 $139 $140 $19 $-1 $141 reversed single #
loop $-1 $-1 $142 $52 #
plane-surface $-1 -64.324364106627939 -43.277593077088881 0 -1 0 0 0 0 1 forward_v I I I I #
coedge $-1 $143 $144 $145 $146 forward $53 $-1 #
coedge $-1 $147 $55 $148 $149 reversed $34 $-1 #
coedge $-1 $55 $147 $150 $151 reversed $34 $-1 #
coedge $-1 $152 $153 $55 $89 forward $154 $-1 #
edge $-1 $155 -12.488053044824852 $156 12.488053044824852 $88 $157 forward 7 unknown #
face $-1 $158 $159 $20 $-1 $160 forward single #
loop $-1 $-1 $161 $56 #
plane-surface $-1 0 -49.906824338932573 0 0 1 0 0 0 1 forward_v I I I I #
coedge $-1 $162 $163 $164 $165 reversed $57 $-1 #
coedge $-1 $95 $59 $166 $167 reversed $37 $-1 #
coedge $-1 $59 $94 $162 $168 reversed $37 $-1 #
coedge $-1 $164 $169 $59 $97 forward $170 $-1 #
edge $-1 $171 30.499746958071988 $172 38.450357933036905 $96 $173 forward 7 unknown #
loop $-1 $-1 $103 $60 #
plane-surface $-1 -55.802501522912351 -49.90682433893258 3.9620664025494676 0 -0.73135370988377701 0.68199835119979291 1 0 0 forward_v I I I I #
loop $-1 $-1 $174 $39 #
coedge $-1 $101 $101 $102 $175 reversed $61 $-1 #
coedge $-1 $102 $102 $101 $175 forward $63 $-1 #
coedge $-1 $103 $103 $64 $104 forward $98 $-1 #
edge $-1 $176 -2.33793943891594e-016 $176 6.2831853071796004 $103 $177 forward 7 unknown #
face $-1 $178 $179 $22 $-1 $180 forward single #
loop $-1 $-1 $181 $65 #
plane-surface $-1 -47.280638939196763 92.740398768469703 180.38296106828821 -1 0 0 0 0.73135370988377701 0.68199835119979291 forward_v I I I I #
coedge $-1 $182 $183 $184 $185 reversed $66 $-1 #
coedge $-1 $110 $68 $186 $187 reversed $43 $-1 #
coedge $-1 $68 $109 $182 $188 reversed $43 $-1 #
coedge $-1 $184 $189 $68 $112 forward $179 $-1 #
edge $-1 $190 -3.5366249546977215 $191 4.4139860202671741 $111 $192 forward 7 unknown #
loop $-1 $-1 $118 $69 #
plane-surface $-1 -55.802501522912351 -18.165919486606839 76.961148660142115 0 0.73135370988377701 0.68199835119979291 1 0 0 forward_v I I I I #
loop $-1 $-1 $193 $45 #
coedge $-1 $116 $116 $117 $194 reversed $70 $-1 #
coedge $-1 $117 $117 $116 $194 forward $72 $-1 #
coedge $-1 $118 $118 $73 $119 forward $113 $-1 #
edge $-1 $195 -3.9850888859867493e-016 $195 6.2831853071796004 $118 $196 forward 7 unknown #
face $-1 $197 $198 $18 $-1 $199 reversed single #
loop $-1 $-1 $200 $74 #
plane-surface $-1 -75.822626422925509 0 0 1 0 0 0 0 -1 forward_v I I I I #
coedge $-1 $201 $131 $202 $203 forward $75 $-1 #
coedge $-1 $204 $77 $201 $205 forward $49 $-1 #
coedge $-1 $77 $204 $206 $207 forward $49 $-1 #
coedge $-1 $134 $133 $77 $127 reversed $135 $-1 #
edge $-1 $208 -49.906824338932573 $209 49.906824338932573 $126 $210 forward 7 unknown #
coedge $-1 $79 $78 $211 $212 forward $31 $-1 #
coedge $-1 $213 $214 $78 $130 reversed $198 $-1 #
edge $-1 $137 -75.822626422925509 $215 75.822626422925509 $129 $216 forward 7 unknown #
coedge $-1 $123 $217 $79 $132 reversed $75 $-1 #
edge $-1 $218 -75.822626422925509 $136 75.822626422925509 $131 $219 forward 7 unknown #
coedge $-1 $126 $80 $217 $220 forward $135 $-1 #
coedge $-1 $80 $126 $213 $221 reversed $135 $-1 #
loop $-1 $-1 $133 $197 #
vertex $-1 $81 $222 #
vertex $-1 $81 $223 #
straight-curve $-1 75.822626422925509 0 12.488053044824852 0 1 0 I I #
face $-1 $224 $225 $19 $-1 $226 forward single #
loop $-1 $-1 $227 $82 #
plane-surface $-1 0 0 -12.488053044824852 0 0 1 1 0 0 forward_v I I I I #
coedge $-1 $228 $229 $147 $230 forward $83 $-1 #
coedge $-1 $231 $85 $227 $232 reversed $53 $-1 #
coedge $-1 $85 $231 $233 $234 reversed $53 $-1 #
coedge $-1 $229 $228 $85 $146 reversed $83 $-1 #
edge $-1 $235 -12.488053044824852 $236 12.488053044824852 $145 $237 forward 7 unknown #
coedge $-1 $87 $86 $142 $230 reversed $34 $-1 #
coedge $-1 $238 $239 $86 $149 forward $140 $-1 #
edge $-1 $240 29.287616474239577 $155 40.785878790537147 $148 $241 forward 7 unknown #
coedge $-1 $242 $243 $87 $151 forward $225 $-1 #
edge $-1 $156 -40.785878790537147 $244 -29.287616474239577 $150 $245 forward 7 unknown #
coedge $-1 $246 $88 $243 $247 reversed $154 $-1 #
coedge $-1 $88 $246 $238 $248 reversed $154 $-1 #
loop $-1 $-1 $246 $224 #
vertex $-1 $248 $249 #
vertex $-1 $89 $250 #
straight-curve $-1 -75.822626422925509 -45.823338733496747 0 0 0 1 I I #
face $-1 $-1 $170 $20 $-1 $251 forward single #
loop $-1 $-1 $252 $90 #
plane-surface $-1 -64.324364106627939 -43.277593077088881 0 -1 0 0 0 0 1 forward_v I I I I #
coedge $-1 $253 $254 $255 $256 forward $91 $-1 #
coedge $-1 $257 $93 $95 $168 forward $57 $-1 #
coedge $-1 $93 $257 $252 $258 reversed $57 $-1 #
coedge $-1 $259 $96 $93 $165 forward $170 $-1 #
edge $-1 $172 19.379388177740587 $260 36.423113345171764 $164 $261 forward 7 unknown #
coedge $-1 $254 $253 $94 $167 forward $91 $-1 #
edge $-1 $262 -49.729873002798307 $171 -41.20388636052293 $166 $263 forward 7 unknown #
edge $-1 $172 -11.657815537204687 $262 -1.0367256691888158e-014 $95 $264 forward 7 unknown #
coedge $-1 $96 $259 $254 $265 forward $170 $-1 #
loop $-1 $-1 $259 $158 #
vertex $-1 $97 $266 #
vertex $-1 $97 $267 #
straight-curve $-1 -47.280638939196763 -80.406571297004561 12.488053044824852 0 1 0 I I #
coedge $-1 $174 $174 $-1 $268 reversed $100 $-1 #
edge $-1 $269 0 $269 6.2831853071796004 $101 $270 forward 7 unknown #
vertex $-1 $104 $271 #
ellipse-curve $-1 -55.802501522912351 -45.931518851450114 8.2250597236871634 0 -0.73135370988377701 0.68199835119979291 1.5 0 0 1 I I #
face $-1 $-1 $272 $22 $-1 $273 reversed single #
loop $-1 $-1 $111 $105 #
plane-surface $-1 0 0 12.488053044824852 0 0 1 1 0 0 forward_v I I I I #
coedge $-1 $274 $275 $276 $277 reversed $106 $-1 #
coedge $-1 $278 $108 $110 $188 forward $66 $-1 #
coedge $-1 $108 $278 $274 $279 forward $66 $-1 #
coedge $-1 $276 $111 $108 $185 forward $179 $-1 #
edge $-1 $191 -36.423113345171764 $280 -19.379388177740587 $184 $281 forward 7 unknown #
coedge $-1 $282 $283 $109 $187 forward $272 $-1 #
edge $-1 $284 -86.229414131594623 $190 -77.703427489319253 $186 $285 forward 7 unknown #
edge $-1 $191 88.155833140660476 $284 99.813648677865146 $110 $286 forward 7 unknown #
coedge $-1 $111 $276 $282 $287 forward $179 $-1 #
vertex $-1 $187 $288 #
vertex $-1 $112 $289 #
straight-curve $-1 -64.324364106627939 46.370199384234851 12.488053044824852 0 -1 0 I I #
coedge $-1 $193 $193 $-1 $290 reversed $115 $-1 #
edge $-1 $291 0 $291 6.2831853071796004 $116 $292 forward 7 unknown #
vertex $-1 $119 $293 #
ellipse-curve $-1 -55.802501522912351 45.931518851450114 8.2250597236871688 0 0.73135370988377701 0.68199835119979291 1.5 0 0 1 I I #
face $-1 $-1 $135 $18 $-1 $294 reversed single #
loop $-1 $-1 $213 $120 #
plane-surface $-1 0 49.906824338932573 0 0 -1 0 0 0 -1 forward_v I I I I #
coedge $-1 $295 $211 $214 $296 forward $121 $-1 #
coedge $-1 $217 $123 $124 $205 reversed $75 $-1 #
coedge $-1 $211 $295 $123 $203 reversed $121 $-1 #
edge $-1 $218 -12.488053044824852 $297 12.488053044824852 $202 $298 forward 7 unknown #
coedge $-1 $125 $124 $295 $299 forward $49 $-1 #
edge $-1 $209 -75.822626422925509 $297 75.822626422925509 $201 $300 forward 7 unknown #
coedge $-1 $214 $213 $125 $207 reversed $198 $-1 #
edge $-1 $301 -75.822626422925509 $208 75.822626422925509 $206 $302 forward 7 unknown #
vertex $-1 $127 $303 #
vertex $-1 $220 $304 #
straight-curve $-1 75.822626422925509 0 -12.488053044824852 0 -1 0 I I #
coedge $-1 $200 $202 $128 $212 reversed $121 $-1 #
edge $-1 $215 -49.906824338932573 $218 49.906824338932573 $211 $305 forward 7 unknown #
coedge $-1 $206 $129 $134 $221 forward $198 $-1 #
coedge $-1 $129 $206 $200 $296 reversed $198 $-1 #
vertex $-1 $130 $306 #
straight-curve $-1 0 49.906824338932573 12.488053044824852 -1 0 0 I I #
coedge $-1 $131 $201 $133 $220 reversed $75 $-1 #
vertex $-1 $212 $307 #
straight-curve $-1 0 -49.906824338932573 12.488053044824852 1 0 0 I I #
edge $-1 $136 -12.488053044824852 $209 12.488053044824852 $133 $308 forward 7 unknown #
edge $-1 $137 -12.488053044824852 $208 12.488053044824852 $134 $309 forward 7 unknown #
point $-1 75.822626422925509 -49.906824338932573 12.488053044824852 #
point $-1 75.822626422925509 49.906824338932573 12.488053044824852 #
face $-1 $-1 $154 $19 $-1 $310 reversed single #
loop $-1 $-1 $233 $139 #
plane-surface $-1 0 0 12.488053044824852 0 0 1 1 0 0 forward_v I I I I #
coedge $-1 $239 $238 $143 $232 forward $140 $-1 #
coedge $-1 $145 $142 $239 $311 reversed $83 $-1 #
coedge $-1 $142 $145 $242 $312 reversed $83 $-1 #
edge $-1 $244 -12.488053044824852 $240 12.488053044824852 $142 $313 forward 7 unknown #
coedge $-1 $144 $143 $246 $314 reversed $53 $-1 #
edge $-1 $315 -40.785878790537147 $236 -29.287616474239577 $227 $316 forward 7 unknown #
coedge $-1 $243 $242 $144 $234 forward $225 $-1 #
edge $-1 $235 29.287616474239577 $317 40.785878790537147 $233 $318 forward 7 unknown #
vertex $-1 $234 $319 #
vertex $-1 $232 $320 #
straight-curve $-1 -64.324364106627939 -40.731847420681014 0 0 0 -1 I I #
coedge $-1 $227 $148 $153 $248 forward $140 $-1 #
coedge $-1 $148 $227 $228 $311 forward $140 $-1 #
vertex $-1 $149 $321 #
straight-curve $-1 -35.036747632388362 -45.823338733496747 -12.488053044824852 -1 0 0 I I #
coedge $-1 $233 $150 $229 $312 forward $225 $-1 #
coedge $-1 $150 $233 $152 $247 forward $225 $-1 #
vertex $-1 $151 $322 #
straight-curve $-1 -35.036747632388362 -45.823338733496747 12.488053044824852 1 0 0 I I #
coedge $-1 $153 $152 $231 $314 forward $154 $-1 #
edge $-1 $317 40.731847420681014 $156 45.823338733496747 $152 $323 forward 7 unknown #
edge $-1 $155 -45.823338733496747 $315 -40.731847420681014 $153 $324 forward 7 unknown #
point $-1 -75.822626422925509 -45.823338733496747 -12.488053044824852 #
point $-1 -75.822626422925509 -45.823338733496747 12.488053044824852 #
plane-surface $-1 0 0 12.488053044824852 0 0 1 1 0 0 forward_v I I I I #
coedge $-1 $255 $325 $163 $258 forward $159 $-1 #
coedge $-1 $166 $161 $257 $326 forward $91 $-1 #
coedge $-1 $161 $166 $169 $265 reversed $91 $-1 #
coedge $-1 $325 $252 $161 $256 reversed $159 $-1 #
edge $-1 $327 41.20388636052293 $328 49.729873002798307 $161 $329 forward 7 unknown #
coedge $-1 $163 $162 $253 $326 reversed $57 $-1 #
edge $-1 $260 -10.846089123210133 $328 0.81172641399454282 $252 $330 forward 7 unknown #
coedge $-1 $169 $164 $325 $331 forward $170 $-1 #
vertex $-1 $331 $332 #
straight-curve $-1 -27.901250761456176 -41.956213363967656 12.488053044824852 -1 0 0 I I #
vertex $-1 $167 $333 #
straight-curve $-1 -47.280638939196763 -49.906824338932573 53.691939405347782 0 0 1 I I #
straight-curve $-1 -47.280638939196763 -49.90682433893258 3.9620664025494676 0 -0.68199835119979291 -0.73135370988377701 I I #
edge $-1 $327 -64.324364106627939 $171 -47.280638939196763 $254 $334 forward 7 unknown #
point $-1 -47.280638939196763 -49.906824338932573 12.488053044824852 #
point $-1 -47.280638939196763 -41.956213363967656 12.488053044824852 #
edge $-1 $335 1 $335 0 $174 $-1 forward 7 unknown #
vertex $-1 $175 $336 #
ellipse-curve $-1 -55.802501522912351 -42.741234647151956 5.2500716463916337 0 -0.73135370988377701 0.68199835119979291 1.5 0 0 1 I I #
point $-1 -54.302501522912351 -45.931518851450107 8.2250597236871563 #
loop $-1 $-1 $186 $178 #
plane-surface $-1 0 49.906824338932573 0 0 -1 0 0 0 -1 forward_v I I I I #
coedge $-1 $275 $181 $183 $279 reversed $106 $-1 #
coedge $-1 $181 $274 $337 $338 reversed $106 $-1 #
coedge $-1 $189 $184 $181 $277 forward $179 $-1 #
edge $-1 $280 -4.4139860202671741 $339 3.5366249546977215 $276 $340 forward 7 unknown #
coedge $-1 $183 $182 $283 $341 reversed $66 $-1 #
edge $-1 $342 -99.813648677865146 $280 -88.155833140660476 $274 $343 forward 7 unknown #
vertex $-1 $185 $344 #
straight-curve $-1 -27.901250761456176 41.956213363967677 12.488053044824852 1 0 0 I I #
coedge $-1 $337 $186 $189 $287 reversed $272 $-1 #
coedge $-1 $186 $337 $278 $341 forward $272 $-1 #
vertex $-1 $187 $345 #
straight-curve $-1 -64.324364106627939 49.906824338932573 90.191480534144105 0 0 1 I I #
straight-curve $-1 -64.324364106627939 -18.165919486606839 76.961148660142115 0 0.68199835119979291 -0.73135370988377701 I I #
edge $-1 $339 47.280638939196763 $190 64.324364106627939 $282 $346 forward 7 unknown #
point $-1 -64.324364106627939 49.906824338932573 12.488053044824852 #
point $-1 -64.324364106627939 41.956213363967677 12.488053044824852 #
edge $-1 $347 1 $347 0 $193 $-1 forward 7 unknown #
vertex $-1 $194 $348 #
ellipse-curve $-1 -55.802501522912351 42.741234647151941 5.2500716463916337 0 0.73135370988377701 0.68199835119979291 1.5 0 0 1 I I #
point $-1 -54.302501522912351 45.9315188514501 8.2250597236871563 #
plane-surface $-1 75.822626422925509 0 0 -1 0 0 0 0 1 forward_v I I I I #
coedge $-1 $202 $200 $204 $299 reversed $121 $-1 #
edge $-1 $215 -12.488053044824852 $301 12.488053044824852 $214 $349 forward 7 unknown #
vertex $-1 $299 $350 #
straight-curve $-1 -75.822626422925509 -49.906824338932573 0 0 0 -1 I I #
edge $-1 $297 -49.906824338932573 $301 49.906824338932573 $295 $351 forward 7 unknown #
straight-curve $-1 0 -49.906824338932573 -12.488053044824852 -1 0 0 I I #
vertex $-1 $207 $352 #
straight-curve $-1 0 49.906824338932573 -12.488053044824852 1 0 0 I I #
point $-1 75.822626422925509 49.906824338932573 -12.488053044824852 #
point $-1 75.822626422925509 -49.906824338932573 -12.488053044824852 #
straight-curve $-1 -75.822626422925509 0 12.488053044824852 0 -1 0 I I #
point $-1 -75.822626422925509 49.906824338932573 12.488053044824852 #
point $-1 -75.822626422925509 -49.906824338932573 12.488053044824852 #
straight-curve $-1 75.822626422925509 -49.906824338932573 0 0 0 -1 I I #
straight-curve $-1 75.822626422925509 49.906824338932573 0 0 0 -1 I I #
plane-surface $-1 -75.822626422925509 0 0 1 0 0 0 0 -1 forward_v I I I I #
edge $-1 $236 19.093050882136573 $240 24.184542194952307 $239 $353 forward 7 unknown #
edge $-1 $244 -24.184542194952307 $235 -19.093050882136573 $242 $354 forward 7 unknown #
straight-curve $-1 -64.324364106627939 -45.823338733496747 0 0 0 -1 I I #
edge $-1 $317 -12.488053044824852 $315 12.488053044824852 $246 $355 forward 7 unknown #
vertex $-1 $314 $356 #
straight-curve $-1 -35.036747632388362 -40.731847420681014 -12.488053044824852 1 0 0 I I #
vertex $-1 $247 $357 #
straight-curve $-1 -35.036747632388362 -40.731847420681014 12.488053044824852 -1 0 0 I I #
point $-1 -64.324364106627939 -40.731847420681014 12.488053044824852 #
point $-1 -64.324364106627939 -40.731847420681014 -12.488053044824852 #
point $-1 -64.324364106627939 -45.823338733496747 -12.488053044824852 #
point $-1 -64.324364106627939 -45.823338733496747 12.488053044824852 #
straight-curve $-1 -75.822626422925509 0 12.488053044824852 0 -1 0 I I #
straight-curve $-1 -75.822626422925509 0 -12.488053044824852 0 1 0 I I #
coedge $-1 $252 $255 $259 $331 reversed $159 $-1 #
edge $-1 $328 -36.423113345171764 $262 -19.379388177740587 $253 $358 forward 7 unknown #
vertex $-1 $265 $359 #
vertex $-1 $326 $360 #
straight-curve $-1 -64.324364106627939 -49.906824338932573 53.691939405347782 0 0 -1 I I #
straight-curve $-1 -64.324364106627939 -49.353228262962972 4.5557255268350367 0 -0.68199835119979291 -0.73135370988377701 I I #
edge $-1 $260 -38.450357933036905 $327 -30.499746958071988 $259 $361 forward 7 unknown #
point $-1 -64.324364106627939 -41.956213363967656 12.488053044824852 #
point $-1 -47.280638939196763 -49.906824338932573 3.9620664025494752 #
straight-curve $-1 0 -49.906824338932573 12.488053044824852 1 0 0 I I #
vertex $-1 $268 $362 #
point $-1 -54.302501522912351 -42.741234647151956 5.2500716463916337 #
coedge $-1 $283 $282 $275 $338 forward $272 $-1 #
edge $-1 $339 77.703427489319253 $342 86.229414131594623 $337 $363 forward 7 unknown #
vertex $-1 $287 $364 #
straight-curve $-1 -47.280638939196763 46.370199384234851 12.488053044824852 0 1 0 I I #
edge $-1 $342 19.379388177740587 $284 36.423113345171764 $283 $365 forward 7 unknown #
vertex $-1 $341 $366 #
straight-curve $-1 -47.280638939196763 -18.165919486606839 76.961148660142115 0 -0.68199835119979291 0.73135370988377701 I I #
point $-1 -47.280638939196763 41.956213363967677 12.488053044824852 #
point $-1 -64.324364106627939 49.90682433893258 3.9620664025494818 #
straight-curve $-1 0 49.906824338932573 12.488053044824852 -1 0 0 I I #
vertex $-1 $290 $367 #
point $-1 -54.302501522912351 42.741234647151941 5.2500716463916337 #
straight-curve $-1 -75.822626422925509 49.906824338932573 0 0 0 -1 I I #
point $-1 -75.822626422925509 -49.906824338932573 -12.488053044824852 #
straight-curve $-1 -75.822626422925509 0 -12.488053044824852 0 1 0 I I #
point $-1 -75.822626422925509 49.906824338932573 -12.488053044824852 #
straight-curve $-1 -64.324364106627939 -21.63879653854444 -12.488053044824852 0 -1 0 I I #
straight-curve $-1 -64.324364106627939 -21.63879653854444 12.488053044824852 0 1 0 I I #
straight-curve $-1 -75.822626422925509 -40.731847420681014 0 0 0 -1 I I #
point $-1 -75.822626422925509 -40.731847420681014 -12.488053044824852 #
point $-1 -75.822626422925509 -40.731847420681014 12.488053044824852 #
straight-curve $-1 -27.901250761456176 -49.906824338932573 3.9620664025494801 1 0 0 I I #
point $-1 -64.324364106627939 -49.906824338932573 12.488053044824852 #
point $-1 -64.324364106627939 -49.906824338932573 3.9620664025494752 #
straight-curve $-1 -64.324364106627939 -80.406571297004561 12.488053044824852 0 -1 0 I I #
point $-1 -55.802501522912351 -41.644204082326283 4.2270741195919452 #
straight-curve $-1 -47.280638939196763 49.906824338932573 90.191480534144105 0 0 -1 I I #
point $-1 -47.280638939196763 49.906824338932573 12.488053044824852 #
straight-curve $-1 -27.901250761456176 49.906824338932566 3.9620664025494889 -1 0 0 I I #
point $-1 -47.280638939196763 49.90682433893258 3.9620664025494818 #
point $-1 -55.802501522912351 41.644204082326283 4.2270741195919452 #
End-of-ACIS-data 