500 0 10 0           
7 Unknown 11 ACIS 5.0 NT 24 Fri Mar 26 15:23:08 1999 
-1 9.9999999999999995e-007 1e-010 
body $-1 $10 $-1 $11 #
body $-1 $12 $-1 $13 #
body $-1 $14 $-1 $15 #
body $-1 $16 $-1 $17 #
body $-1 $18 $-1 $19 #
body $-1 $20 $-1 $21 #
body $-1 $22 $-1 $23 #
body $-1 $24 $-1 $25 #
body $-1 $26 $-1 $27 #
body $-1 $28 $-1 $29 #
lump $-1 $-1 $30 $0 #
transform $-1 1 0 0 0 1 0 0 0 1 75.961790826136053 44.339365821647576 17.557263026804257 1 rotate no_reflect no_shear #
lump $-1 $-1 $31 $1 #
transform $-1 1 0 0 0 1 0 0 0 1 75.961790826136053 44.339365821647576 17.557263026804257 1 rotate no_reflect no_shear #
lump $-1 $-1 $32 $2 #
transform $-1 1 0 0 0 1 0 0 0 1 75.961790826136053 44.339365821647576 17.557263026804257 1 rotate no_reflect no_shear #
lump $-1 $-1 $33 $3 #
transform $-1 1 0 0 0 1 0 0 0 1 75.961790826136053 44.339365821647576 17.557263026804257 1 rotate no_reflect no_shear #
lump $-1 $-1 $34 $4 #
transform $-1 1 0 0 0 1 0 0 0 1 75.961790826136053 44.339365821647576 17.557263026804257 1 rotate no_reflect no_shear #
lump $-1 $-1 $35 $5 #
transform $-1 1 0 0 0 1 0 0 0 1 75.961790826136053 44.339365821647576 17.557263026804257 1 rotate no_reflect no_shear #
lump $-1 $-1 $36 $6 #
transform $-1 1 0 0 0 1 0 0 0 1 75.961790826136053 44.339365821647576 17.557263026804257 1 rotate no_reflect no_shear #
lump $-1 $-1 $37 $7 #
transform $-1 1 0 0 0 1 0 0 0 1 75.961790826136053 44.339365821647576 17.557263026804257 1 rotate no_reflect no_shear #
lump $-1 $-1 $38 $8 #
transform $-1 1 0 0 0 1 0 0 0 1 75.961790826136053 44.339365821647576 17.557263026804257 1 rotate no_reflect no_shear #
lump $-1 $-1 $39 $9 #
transform $-1 1 0 0 0 1 0 0 0 1 75.961790826136053 44.339365821647576 17.557263026804257 1 rotate no_reflect no_shear #
shell $-1 $-1 $-1 $40 $-1 $10 #
shell $-1 $-1 $-1 $41 $-1 $12 #
shell $-1 $-1 $-1 $42 $-1 $14 #
shell $-1 $-1 $-1 $43 $-1 $16 #
shell $-1 $-1 $-1 $44 $-1 $18 #
shell $-1 $-1 $-1 $45 $-1 $20 #
shell $-1 $-1 $-1 $46 $-1 $22 #
shell $-1 $-1 $-1 $47 $-1 $24 #
shell $-1 $-1 $-1 $48 $-1 $26 #
shell $-1 $-1 $-1 $49 $-1 $28 #
face $-1 $50 $51 $30 $-1 $52 reversed single #
face $-1 $53 $54 $31 $-1 $55 forward single #
face $-1 $56 $57 $32 $-1 $58 reversed single #
face $-1 $59 $60 $33 $-1 $61 forward single #
face $-1 $62 $63 $34 $-1 $64 reversed single #
face $-1 $65 $66 $35 $-1 $67 forward single #
face $-1 $68 $69 $36 $-1 $70 forward single #
face $-1 $71 $72 $37 $-1 $73 reversed single #
face $-1 $74 $75 $38 $-1 $76 forward single #
face $-1 $77 $78 $39 $-1 $79 forward single #
face $-1 $80 $81 $30 $-1 $82 forward single #
loop $-1 $-1 $83 $40 #
plane-surface $-1 0 -44.339365821647576 0 0 1 0 0 0 1 forward_v I I I I #
face $-1 $84 $85 $31 $-1 $86 forward single #
loop $-1 $-1 $87 $41 #
plane-surface $-1 0 -44.339365821647576 0 0 1 0 0 0 1 forward_v I I I I #
face $-1 $88 $89 $32 $-1 $90 reversed single #
loop $-1 $-1 $91 $42 #
plane-surface $-1 -194.02859001448866 24.468851021782612 98.948153556267982 0 1 0 -0.77714596973225614 0 0.62932038083071107 forward_v I I I I #
face $-1 $92 $93 $33 $-1 $94 forward single #
loop $-1 $95 $96 $43 #
cone-surface $-1 -64.463705966821266 34.404108421715094 5.799074457080434 0.77714596973225614 0 -0.62932038083071107 2.5172815233228443 0 3.1085838789290245 1 I I 0 1 4 forward I I I I #
face $-1 $97 $98 $34 $-1 $99 reversed single #
loop $-1 $-1 $100 $44 #
plane-surface $-1 38.653066811185766 11.108254789790521 221.44433992084294 0 -1 0 -0.57357644374324357 0 -0.81915203911291934 forward_v I I I I #
face $-1 $101 $102 $35 $-1 $103 forward single #
loop $-1 $104 $105 $45 #
cone-surface $-1 70.175759935169552 5.5203561575093758 13.297075761945466 -0.57357644374324357 0 -0.81915203911291934 0.40957601955645967 0 -0.28678822187162178 1 I I 0 1 0.5 forward I I I I #
face $-1 $106 $107 $36 $-1 $108 forward single #
loop $-1 $109 $110 $46 #
cone-surface $-1 70.175759935169552 8.8730953368780661 13.297075761945466 -0.57357644374324357 0 -0.81915203911291934 0.40957601955645967 0 -0.28678822187162178 1 I I 0 1 0.5 forward I I I I #
face $-1 $111 $112 $37 $-1 $113 reversed single #
loop $-1 $-1 $114 $47 #
plane-surface $-1 -48.486720873660758 7.1967257471937174 96.995828221046139 0.57357644374324357 0 0.81915203911291934 0.81915203911291934 0 -0.57357644374324357 forward_v I I I I #
face $-1 $115 $116 $38 $-1 $117 forward single #
loop $-1 $118 $119 $48 #
cone-surface $-1 70.175759935169552 13.343414242702984 13.297075761945466 -0.57357644374324357 0 -0.81915203911291934 0.40957601955645967 0 -0.28678822187162178 1 I I 0 1 0.5 forward I I I I #
face $-1 $120 $121 $39 $-1 $122 forward single #
loop $-1 $123 $124 $49 #
cone-surface $-1 70.175759935169552 16.696153422071674 13.297075761945466 -0.57357644374324357 0 -0.81915203911291934 0.40957601955645967 0 -0.28678822187162178 1 I I 0 1 0.5 forward I I I I #
face $-1 $125 $126 $30 $-1 $127 reversed single #
loop $-1 $-1 $128 $50 #
plane-surface $-1 0 0 17.557263026804257 0 0 1 1 0 0 forward_v I I I I #
coedge $-1 $129 $130 $131 $132 reversed $51 $-1 #
face $-1 $133 $134 $31 $-1 $135 reversed single #
loop $-1 $-1 $136 $53 #
plane-surface $-1 0 0 17.557263026804257 0 0 1 1 0 0 forward_v I I I I #
coedge $-1 $137 $138 $139 $140 forward $54 $-1 #
face $-1 $141 $142 $32 $-1 $143 reversed single #
loop $-1 $-1 $144 $56 #
plane-surface $-1 -75.961790826136053 34.404108421715094 3.3395472936944657 -0.77714596973225614 0 0.62932038083071107 0.62932038083071107 0 0.77714596973225614 forward_v I I I I #
coedge $-1 $145 $146 $147 $148 reversed $57 $-1 #
face $-1 $-1 $149 $33 $-1 $150 forward single #
loop $-1 $151 $152 $59 #
cone-surface $-1 -57.16796860785405 34.404108421715094 -0.10889700774993472 0.77714596973225614 0 -0.62932038083071107 1.2586407616614221 0 1.5542919394645123 1 I I -0.70710678118654746 0.70710678118654746 2 forward I I I I #
loop $-1 $-1 $153 $43 #
coedge $-1 $96 $96 $154 $155 reversed $60 $-1 #
face $-1 $156 $157 $34 $-1 $158 reversed single #
loop $-1 $-1 $159 $62 #
plane-surface $-1 -48.486720873660758 7.1967257471937174 96.995828221046139 0.57357644374324357 0 0.81915203911291934 0.81915203911291934 0 -0.57357644374324357 forward_v I I I I #
coedge $-1 $160 $161 $162 $163 reversed $63 $-1 #
face $-1 $-1 $164 $35 $-1 $165 forward single #
loop $-1 $166 $167 $65 #
cone-surface $-1 69.745577602362118 5.5203561575093758 12.682711732610777 -0.57357644374324357 0 -0.81915203911291934 0.20478800977822983 0 -0.14339411093581089 1 I I -0.70710678118654746 0.70710678118654746 0.25 forward I I I I #
loop $-1 $-1 $168 $45 #
coedge $-1 $105 $105 $169 $170 reversed $66 $-1 #
face $-1 $-1 $171 $36 $-1 $172 forward single #
loop $-1 $173 $174 $68 #
cone-surface $-1 69.745577602362118 8.8730953368780661 12.682711732610777 -0.57357644374324357 0 -0.81915203911291934 0.20478800977822983 0 -0.14339411093581089 1 I I -0.70710678118654746 0.70710678118654746 0.25 forward I I I I #
loop $-1 $-1 $175 $46 #
coedge $-1 $110 $110 $176 $177 reversed $69 $-1 #
face $-1 $178 $179 $37 $-1 $180 reversed single #
loop $-1 $-1 $181 $71 #
plane-surface $-1 38.653066811185766 18.93131287498413 221.44433992084294 0 -1 0 -0.57357644374324357 0 -0.81915203911291934 forward_v I I I I #
coedge $-1 $182 $183 $184 $185 reversed $72 $-1 #
face $-1 $-1 $186 $38 $-1 $187 forward single #
loop $-1 $188 $189 $74 #
cone-surface $-1 69.745577602362118 13.343414242702984 12.682711732610777 -0.57357644374324357 0 -0.81915203911291934 0.20478800977822983 0 -0.14339411093581089 1 I I -0.70710678118654746 0.70710678118654746 0.25 forward I I I I #
loop $-1 $-1 $190 $48 #
coedge $-1 $119 $119 $191 $192 reversed $75 $-1 #
face $-1 $-1 $193 $39 $-1 $194 forward single #
loop $-1 $195 $196 $77 #
cone-surface $-1 69.745577602362118 16.696153422071674 12.682711732610777 -0.57357644374324357 0 -0.81915203911291934 0.20478800977822983 0 -0.14339411093581089 1 I I -0.70710678118654746 0.70710678118654746 0.25 forward I I I I #
loop $-1 $-1 $197 $49 #
coedge $-1 $124 $124 $198 $199 reversed $78 $-1 #
face $-1 $200 $201 $30 $-1 $202 reversed single #
loop $-1 $-1 $203 $80 #
plane-surface $-1 0 0 -17.557263026804257 0 0 1 1 0 0 forward_v I I I I #
coedge $-1 $204 $205 $206 $207 forward $81 $-1 #
coedge $-1 $208 $83 $209 $210 reversed $51 $-1 #
coedge $-1 $83 $208 $211 $212 forward $51 $-1 #
coedge $-1 $213 $203 $83 $132 forward $126 $-1 #
edge $-1 $214 -75.961790826136053 $215 75.961790826136053 $83 $216 forward 7 unknown #
face $-1 $217 $218 $31 $-1 $219 reversed single #
loop $-1 $-1 $220 $84 #
plane-surface $-1 -75.961790826136053 0 0 1 0 0 0 0 -1 forward_v I I I I #
coedge $-1 $221 $222 $138 $223 forward $85 $-1 #
coedge $-1 $224 $87 $225 $226 reversed $54 $-1 #
coedge $-1 $87 $224 $136 $223 reversed $54 $-1 #
coedge $-1 $227 $228 $87 $140 reversed $229 $-1 #
edge $-1 $230 -17.557263026804257 $231 17.557263026804257 $139 $232 forward 7 unknown #
face $-1 $233 $234 $32 $-1 $235 reversed single #
loop $-1 $-1 $236 $88 #
plane-surface $-1 0 44.339365821647576 0 0 -1 0 0 0 -1 forward_v I I I I #
coedge $-1 $237 $238 $239 $240 reversed $89 $-1 #
coedge $-1 $146 $91 $241 $242 reversed $57 $-1 #
coedge $-1 $91 $145 $237 $243 reversed $57 $-1 #
coedge $-1 $239 $244 $91 $148 forward $245 $-1 #
edge $-1 $246 21.052504181108276 $247 32.565783060732471 $147 $248 forward 7 unknown #
loop $-1 $-1 $154 $92 #
plane-surface $-1 -75.961790826136053 34.404108421715094 3.3395472936944657 -0.77714596973225614 0 0.62932038083071107 0.62932038083071107 0 0.77714596973225614 forward_v I I I I #
loop $-1 $-1 $249 $59 #
coedge $-1 $152 $152 $153 $250 reversed $93 $-1 #
coedge $-1 $153 $153 $152 $250 forward $95 $-1 #
coedge $-1 $154 $154 $96 $155 forward $149 $-1 #
edge $-1 $251 0 $251 6.2831853071796004 $154 $252 forward 7 unknown #
face $-1 $253 $254 $34 $-1 $255 reversed single #
loop $-1 $-1 $256 $97 #
plane-surface $-1 38.653066811185766 3.2851967045969133 221.44433992084294 0 1 0 0.57357644374324357 0 0.81915203911291934 forward_v I I I I #
coedge $-1 $257 $258 $259 $260 reversed $98 $-1 #
coedge $-1 $161 $100 $261 $262 reversed $63 $-1 #
coedge $-1 $100 $160 $257 $263 reversed $63 $-1 #
coedge $-1 $259 $264 $100 $163 forward $265 $-1 #
edge $-1 $266 -56.635257420543169 $267 -45.636772082353417 $162 $268 forward 7 unknown #
loop $-1 $-1 $169 $101 #
plane-surface $-1 -48.486720873660758 7.1967257471937174 96.995828221046139 0.57357644374324357 0 0.81915203911291934 0.81915203911291934 0 -0.57357644374324357 forward_v I I I I #
loop $-1 $-1 $269 $65 #
coedge $-1 $167 $167 $168 $270 reversed $102 $-1 #
coedge $-1 $168 $168 $167 $270 forward $104 $-1 #
coedge $-1 $169 $169 $105 $170 forward $164 $-1 #
edge $-1 $271 0 $271 6.2831853071796004 $169 $272 forward 7 unknown #
loop $-1 $-1 $176 $106 #
plane-surface $-1 -48.486720873660758 7.1967257471937174 96.995828221046139 0.57357644374324357 0 0.81915203911291934 0.81915203911291934 0 -0.57357644374324357 forward_v I I I I #
loop $-1 $-1 $273 $68 #
coedge $-1 $174 $174 $175 $274 reversed $107 $-1 #
coedge $-1 $175 $175 $174 $274 forward $109 $-1 #
coedge $-1 $176 $176 $110 $177 forward $171 $-1 #
edge $-1 $275 0 $275 6.2831853071796004 $176 $276 forward 7 unknown #
face $-1 $277 $278 $37 $-1 $279 forward single #
loop $-1 $-1 $280 $111 #
plane-surface $-1 75.961790826136053 0 0 -1 0 0 0 0 1 forward_v I I I I #
coedge $-1 $281 $282 $283 $284 reversed $112 $-1 #
coedge $-1 $285 $114 $286 $287 reversed $72 $-1 #
coedge $-1 $114 $285 $280 $288 reversed $72 $-1 #
coedge $-1 $289 $290 $114 $185 forward $278 $-1 #
edge $-1 $291 138.49691015170393 $292 151.92358165227213 $184 $293 forward 7 unknown #
loop $-1 $-1 $191 $115 #
plane-surface $-1 -48.486720873660758 7.1967257471937174 96.995828221046139 0.57357644374324357 0 0.81915203911291934 0.81915203911291934 0 -0.57357644374324357 forward_v I I I I #
loop $-1 $-1 $294 $74 #
coedge $-1 $189 $189 $190 $295 reversed $116 $-1 #
coedge $-1 $190 $190 $189 $295 forward $118 $-1 #
coedge $-1 $191 $191 $119 $192 forward $186 $-1 #
edge $-1 $296 0 $296 6.2831853071796004 $191 $297 forward 7 unknown #
loop $-1 $-1 $198 $120 #
plane-surface $-1 -48.486720873660758 7.1967257471937174 96.995828221046139 0.57357644374324357 0 0.81915203911291934 0.81915203911291934 0 -0.57357644374324357 forward_v I I I I #
loop $-1 $-1 $298 $77 #
coedge $-1 $196 $196 $197 $299 reversed $121 $-1 #
coedge $-1 $197 $197 $196 $299 forward $123 $-1 #
coedge $-1 $198 $198 $124 $199 forward $193 $-1 #
edge $-1 $300 0 $300 6.2831853071796004 $198 $301 forward 7 unknown #
face $-1 $302 $303 $30 $-1 $304 reversed single #
loop $-1 $-1 $305 $125 #
plane-surface $-1 -75.961790826136053 0 0 1 0 0 0 0 -1 forward_v I I I I #
coedge $-1 $131 $306 $307 $308 forward $126 $-1 #
coedge $-1 $309 $128 $310 $311 forward $81 $-1 #
coedge $-1 $128 $309 $208 $312 forward $81 $-1 #
coedge $-1 $209 $313 $128 $207 reversed $314 $-1 #
edge $-1 $315 -44.339365821647576 $316 44.339365821647576 $206 $317 forward 7 unknown #
coedge $-1 $130 $129 $205 $312 reversed $51 $-1 #
coedge $-1 $307 $206 $129 $210 forward $314 $-1 #
edge $-1 $315 -17.557263026804257 $214 17.557263026804257 $209 $318 forward 7 unknown #
coedge $-1 $319 $320 $130 $212 reversed $201 $-1 #
edge $-1 $321 -17.557263026804257 $215 17.557263026804257 $211 $322 forward 7 unknown #
coedge $-1 $306 $131 $320 $323 forward $126 $-1 #
vertex $-1 $210 $324 #
vertex $-1 $323 $325 #
straight-curve $-1 0 -44.339365821647576 -17.557263026804257 -1 0 0 I I #
face $-1 $326 $229 $31 $-1 $327 reversed single #
loop $-1 $-1 $328 $133 #
plane-surface $-1 -70.895866472764652 -66.555875401228619 0 0 1 0 0 0 1 forward_v I I I I #
coedge $-1 $329 $330 $224 $331 forward $134 $-1 #
coedge $-1 $332 $136 $330 $333 forward $85 $-1 #
coedge $-1 $136 $332 $227 $334 forward $85 $-1 #
edge $-1 $230 65.829942119393252 $335 75.961790826136053 $136 $336 forward 7 unknown #
coedge $-1 $138 $137 $220 $331 reversed $54 $-1 #
coedge $-1 $337 $338 $137 $226 forward $339 $-1 #
edge $-1 $340 -75.961790826136053 $231 -65.829942119393252 $225 $341 forward 7 unknown #
coedge $-1 $342 $139 $222 $334 reversed $229 $-1 #
coedge $-1 $139 $342 $337 $343 reversed $229 $-1 #
loop $-1 $-1 $342 $217 #
vertex $-1 $223 $344 #
vertex $-1 $343 $345 #
straight-curve $-1 -65.829942119393252 -44.339365821647576 0 0 0 -1 I I #
face $-1 $-1 $245 $32 $-1 $346 forward single #
loop $-1 $-1 $347 $141 #
plane-surface $-1 -75.961790826136053 0 0 1 0 0 0 0 -1 forward_v I I I I #
coedge $-1 $348 $349 $238 $350 forward $142 $-1 #
coedge $-1 $351 $144 $146 $243 forward $89 $-1 #
coedge $-1 $144 $351 $236 $350 reversed $89 $-1 #
coedge $-1 $352 $147 $144 $240 forward $245 $-1 #
edge $-1 $247 7.2667968109250651 $353 27.137311610790029 $239 $354 forward 7 unknown #
coedge $-1 $355 $347 $145 $242 forward $234 $-1 #
edge $-1 $356 -46.134529484439526 $246 -31.916813751329734 $241 $357 forward 7 unknown #
edge $-1 $247 -18.294781529920446 $356 0 $146 $358 forward 7 unknown #
coedge $-1 $147 $352 $355 $359 forward $245 $-1 #
loop $-1 $-1 $239 $233 #
vertex $-1 $242 $360 #
vertex $-1 $148 $361 #
straight-curve $-1 -97.014295007244328 24.468851021782612 17.557263026804257 1 0 0 I I #
coedge $-1 $249 $249 $-1 $362 reversed $151 $-1 #
edge $-1 $363 0 $363 6.2831853071796004 $152 $364 forward 7 unknown #
vertex $-1 $155 $365 #
ellipse-curve $-1 -70.205151386323948 34.404108421715094 10.448405160249367 -0.77714596973225614 0 0.62932038083071107 2.5172815233228443 0 3.1085838789290245 1 I I #
face $-1 $-1 $265 $34 $-1 $366 forward single #
loop $-1 $-1 $367 $156 #
plane-surface $-1 75.961790826136053 0 0 -1 0 0 0 0 1 forward_v I I I I #
coedge $-1 $368 $369 $370 $371 reversed $157 $-1 #
coedge $-1 $372 $159 $161 $263 forward $98 $-1 #
coedge $-1 $159 $372 $368 $373 forward $98 $-1 #
coedge $-1 $370 $162 $159 $260 forward $265 $-1 #
edge $-1 $267 -7.5098919161936628 $374 0.31316616899994543 $259 $375 forward 7 unknown #
coedge $-1 $376 $377 $160 $262 forward $254 $-1 #
edge $-1 $378 -100.86612942422187 $266 -93.164906933617203 $261 $379 forward 7 unknown #
edge $-1 $267 138.49691015170393 $378 151.92358165227213 $161 $380 forward 7 unknown #
coedge $-1 $162 $370 $376 $381 forward $265 $-1 #
loop $-1 $-1 $370 $253 #
vertex $-1 $262 $382 #
vertex $-1 $163 $383 #
straight-curve $-1 19.326533405592883 11.108254789790521 17.557263026804264 -1 0 0 I I #
coedge $-1 $269 $269 $-1 $384 reversed $166 $-1 #
edge $-1 $385 0 $385 6.2831853071796004 $167 $386 forward 7 unknown #
vertex $-1 $170 $387 #
ellipse-curve $-1 70.462548157041184 5.5203561575093758 13.706651781501938 0.57357644374324357 0 0.81915203911291934 0.40957601955645967 0 -0.28678822187162178 1 I I #
coedge $-1 $273 $273 $-1 $388 reversed $173 $-1 #
edge $-1 $389 0 $389 6.2831853071796004 $174 $390 forward 7 unknown #
vertex $-1 $177 $391 #
ellipse-curve $-1 70.462548157041184 8.8730953368780661 13.706651781501938 0.57357644374324357 0 0.81915203911291934 0.40957601955645967 0 -0.28678822187162178 1 I I #
face $-1 $-1 $392 $37 $-1 $393 forward single #
loop $-1 $-1 $290 $178 #
plane-surface $-1 38.653066811185766 11.108254789790521 221.44433992084294 0 -1 0 -0.57357644374324357 0 -0.81915203911291934 forward_v I I I I #
coedge $-1 $283 $394 $183 $288 forward $179 $-1 #
coedge $-1 $282 $181 $285 $395 reversed $112 $-1 #
coedge $-1 $181 $281 $396 $397 reversed $112 $-1 #
coedge $-1 $398 $280 $181 $284 forward $179 $-1 #
edge $-1 $399 -100.86612942422187 $400 -93.164906933617203 $283 $401 forward 7 unknown #
coedge $-1 $183 $182 $281 $395 forward $72 $-1 #
coedge $-1 $402 $396 $182 $287 forward $392 $-1 #
edge $-1 $403 -15.332950001387271 $291 -7.5098919161936628 $286 $404 forward 7 unknown #
edge $-1 $292 7.5098919161936628 $399 15.332950001387271 $280 $405 forward 7 unknown #
coedge $-1 $290 $184 $394 $406 reversed $278 $-1 #
coedge $-1 $184 $289 $402 $407 reversed $278 $-1 #
vertex $-1 $287 $408 #
vertex $-1 $288 $409 #
straight-curve $-1 -48.486720873660758 11.108254789790521 96.995828221046139 0.81915203911291934 0 -0.57357644374324357 I I #
coedge $-1 $294 $294 $-1 $410 reversed $188 $-1 #
edge $-1 $411 0 $411 6.2831853071796004 $189 $412 forward 7 unknown #
vertex $-1 $192 $413 #
ellipse-curve $-1 70.462548157041184 13.343414242702984 13.706651781501938 0.57357644374324357 0 0.81915203911291934 0.40957601955645967 0 -0.28678822187162178 1 I I #
coedge $-1 $298 $298 $-1 $414 reversed $195 $-1 #
edge $-1 $415 0 $415 6.2831853071796004 $196 $416 forward 7 unknown #
vertex $-1 $199 $417 #
ellipse-curve $-1 70.462548157041184 16.696153422071674 13.706651781501938 0.57357644374324357 0 0.81915203911291934 0.40957601955645967 0 -0.28678822187162178 1 I I #
face $-1 $-1 $314 $30 $-1 $418 reversed single #
loop $-1 $-1 $419 $200 #
plane-surface $-1 0 44.339365821647576 0 0 -1 0 0 0 -1 forward_v I I I I #
coedge $-1 $320 $319 $420 $421 forward $201 $-1 #
coedge $-1 $203 $213 $422 $423 forward $126 $-1 #
coedge $-1 $313 $209 $203 $308 reversed $314 $-1 #
edge $-1 $424 -44.339365821647576 $214 44.339365821647576 $307 $425 forward 7 unknown #
coedge $-1 $205 $204 $319 $426 forward $81 $-1 #
coedge $-1 $419 $420 $204 $311 reversed $303 $-1 #
edge $-1 $316 -75.961790826136053 $427 75.961790826136053 $310 $428 forward 7 unknown #
edge $-1 $321 -75.961790826136053 $315 75.961790826136053 $208 $429 forward 7 unknown #
coedge $-1 $206 $307 $419 $430 reversed $314 $-1 #
loop $-1 $-1 $209 $302 #
vertex $-1 $207 $431 #
vertex $-1 $207 $432 #
straight-curve $-1 75.961790826136053 0 17.557263026804257 0 1 0 I I #
straight-curve $-1 75.961790826136053 -44.339365821647576 0 0 0 -1 I I #
coedge $-1 $305 $211 $309 $426 reversed $201 $-1 #
coedge $-1 $211 $305 $213 $323 reversed $201 $-1 #
vertex $-1 $426 $433 #
straight-curve $-1 -75.961790826136053 -44.339365821647576 0 0 0 -1 I I #
edge $-1 $215 -44.339365821647576 $434 44.339365821647576 $320 $435 forward 7 unknown #
point $-1 75.961790826136053 -44.339365821647576 -17.557263026804257 #
point $-1 -75.961790826136053 -44.339365821647576 -17.557263026804257 #
face $-1 $-1 $339 $31 $-1 $436 reversed single #
plane-surface $-1 -65.829942119393252 -55.447620611438097 0 -1 0 0 0 0 1 forward_v I I I I #
coedge $-1 $437 $438 $439 $440 forward $218 $-1 #
coedge $-1 $439 $220 $338 $441 reversed $134 $-1 #
coedge $-1 $220 $439 $221 $333 reversed $134 $-1 #
edge $-1 $335 -17.557263026804257 $340 17.557263026804257 $220 $442 forward 7 unknown #
coedge $-1 $222 $221 $438 $443 forward $85 $-1 #
edge $-1 $335 44.339365821647576 $444 66.555875401228619 $330 $445 forward 7 unknown #
edge $-1 $446 -11.108254789790521 $230 11.108254789790521 $227 $447 forward 7 unknown #
vertex $-1 $333 $448 #
straight-curve $-1 0 -44.339365821647576 17.557263026804257 -1 0 0 I I #
coedge $-1 $449 $225 $228 $343 forward $339 $-1 #
coedge $-1 $225 $449 $329 $441 forward $339 $-1 #
loop $-1 $-1 $225 $326 #
vertex $-1 $331 $450 #
straight-curve $-1 0 -44.339365821647576 -17.557263026804257 1 0 0 I I #
coedge $-1 $228 $227 $451 $452 forward $229 $-1 #
edge $-1 $231 -11.108254789790521 $453 11.108254789790521 $228 $454 forward 7 unknown #
point $-1 -65.829942119393252 -44.339365821647576 17.557263026804257 #
point $-1 -65.829942119393252 -44.339365821647576 -17.557263026804257 #
plane-surface $-1 0 0 17.557263026804257 0 0 1 1 0 0 forward_v I I I I #
coedge $-1 $241 $455 $351 $456 forward $234 $-1 #
coedge $-1 $349 $236 $455 $457 reversed $142 $-1 #
coedge $-1 $236 $348 $352 $458 reversed $142 $-1 #
edge $-1 $353 4.309712175710473 $459 22.604493705630919 $236 $460 forward 7 unknown #
coedge $-1 $238 $237 $347 $456 reversed $89 $-1 #
coedge $-1 $244 $239 $349 $458 forward $245 $-1 #
vertex $-1 $458 $461 #
straight-curve $-1 -64.448511946511857 17.202054210857547 17.557263026804257 0 1 0 I I #
coedge $-1 $455 $241 $244 $359 reversed $234 $-1 #
vertex $-1 $242 $462 #
straight-curve $-1 -75.961790826136053 24.468851021782612 49.474076778133991 0 0 1 I I #
straight-curve $-1 -75.961790826136053 24.468851021782612 3.3395472936944657 -0.62932038083071107 0 -0.77714596973225614 I I #
edge $-1 $463 -44.339365821647576 $246 -24.468851021782612 $355 $464 forward 7 unknown #
point $-1 -75.961790826136053 24.468851021782612 17.557263026804257 #
point $-1 -64.448511946511857 24.468851021782612 17.557263026804257 #
edge $-1 $465 1 $465 0 $249 $-1 forward 7 unknown #
vertex $-1 $250 $466 #
ellipse-curve $-1 -58.722260547318562 34.404108421715094 1.1497437539114874 -0.77714596973225614 0 0.62932038083071107 2.5172815233228443 0 3.1085838789290245 1 I I #
point $-1 -67.687869863001126 34.404108421715094 13.556989039178406 #
plane-surface $-1 0 0 17.557263026804257 0 0 1 1 0 0 forward_v I I I I #
coedge $-1 $377 $376 $369 $467 forward $254 $-1 #
coedge $-1 $369 $256 $258 $373 reversed $157 $-1 #
coedge $-1 $256 $368 $367 $467 reversed $157 $-1 #
coedge $-1 $264 $259 $256 $371 forward $265 $-1 #
edge $-1 $374 45.636772082353417 $468 56.635257420543169 $370 $469 forward 7 unknown #
coedge $-1 $258 $257 $377 $470 reversed $98 $-1 #
edge $-1 $471 -151.92358165227213 $374 -138.49691015170393 $368 $472 forward 7 unknown #
vertex $-1 $260 $473 #
straight-curve $-1 64.963305487946315 3.5983628735968587 17.557263026804264 0 -1 0 I I #
coedge $-1 $367 $261 $264 $381 reversed $254 $-1 #
coedge $-1 $261 $367 $372 $470 forward $254 $-1 #
vertex $-1 $262 $474 #
straight-curve $-1 75.961790826136053 11.108254789790521 110.72216996042147 0 0 1 I I #
straight-curve $-1 -48.486720873660758 11.108254789790521 96.995828221046139 0.81915203911291934 0 -0.57357644374324357 I I #
edge $-1 $468 3.2851967045969133 $266 11.108254789790521 $376 $475 forward 7 unknown #
point $-1 75.961790826136053 11.108254789790521 17.557263026804257 #
point $-1 64.9633054879463 11.108254789790521 17.557263026804264 #
edge $-1 $476 1 $476 0 $269 $-1 forward 7 unknown #
vertex $-1 $270 $477 #
ellipse-curve $-1 69.888971713297934 5.5203561575093758 12.887499742389007 0.57357644374324357 0 0.81915203911291934 0.40957601955645967 0 -0.28678822187162178 1 I I #
point $-1 70.872124176597637 5.5203561575093758 13.419863559630304 #
edge $-1 $478 1 $478 0 $273 $-1 forward 7 unknown #
vertex $-1 $274 $479 #
ellipse-curve $-1 69.888971713297934 8.8730953368780661 12.887499742389007 0.57357644374324357 0 0.81915203911291934 0.40957601955645967 0 -0.28678822187162178 1 I I #
point $-1 70.872124176597637 8.8730953368780661 13.419863559630304 #
loop $-1 $-1 $286 $277 #
plane-surface $-1 0 0 17.557263026804257 0 0 1 1 0 0 forward_v I I I I #
coedge $-1 $280 $398 $289 $406 forward $179 $-1 #
edge $-1 $403 138.49691015170393 $399 151.92358165227213 $281 $480 forward 7 unknown #
coedge $-1 $286 $481 $282 $397 forward $392 $-1 #
edge $-1 $400 -56.635257420543169 $403 -45.636772082353417 $396 $482 forward 7 unknown #
coedge $-1 $394 $283 $481 $483 reversed $179 $-1 #
vertex $-1 $284 $484 #
vertex $-1 $284 $485 #
straight-curve $-1 75.961790826136053 18.93131287498413 110.72216996042147 0 0 1 I I #
coedge $-1 $481 $286 $290 $407 forward $392 $-1 #
vertex $-1 $397 $486 #
straight-curve $-1 64.963305487946315 3.5983628735968587 17.557263026804264 0 -1 0 I I #
straight-curve $-1 75.961790826136053 3.5983628735968587 9.8560405361996004 0 1 0 I I #
edge $-1 $487 93.164906933617203 $292 100.86612942422187 $394 $488 forward 7 unknown #
edge $-1 $291 45.636772082353417 $487 56.635257420543169 $402 $489 forward 7 unknown #
point $-1 64.9633054879463 11.108254789790521 17.557263026804264 #
point $-1 75.961790826136053 11.108254789790521 9.8560405361996004 #
edge $-1 $490 1 $490 0 $294 $-1 forward 7 unknown #
vertex $-1 $295 $491 #
ellipse-curve $-1 69.888971713297934 13.343414242702984 12.887499742389007 0.57357644374324357 0 0.81915203911291934 0.40957601955645967 0 -0.28678822187162178 1 I I #
point $-1 70.872124176597637 13.343414242702984 13.419863559630304 #
edge $-1 $492 1 $492 0 $298 $-1 forward 7 unknown #
vertex $-1 $299 $493 #
ellipse-curve $-1 69.888971713297934 16.696153422071674 12.887499742389007 0.57357644374324357 0 0.81915203911291934 0.40957601955645967 0 -0.28678822187162178 1 I I #
point $-1 70.872124176597637 16.696153422071674 13.419863559630304 #
plane-surface $-1 75.961790826136053 0 0 -1 0 0 0 0 1 forward_v I I I I #
coedge $-1 $422 $310 $313 $430 forward $303 $-1 #
coedge $-1 $310 $422 $305 $421 reversed $303 $-1 #
edge $-1 $427 -17.557263026804257 $434 17.557263026804257 $420 $494 forward 7 unknown #
coedge $-1 $420 $419 $306 $423 reversed $303 $-1 #
edge $-1 $434 -75.961790826136053 $424 75.961790826136053 $422 $495 forward 7 unknown #
vertex $-1 $308 $496 #
straight-curve $-1 75.961790826136053 0 -17.557263026804257 0 -1 0 I I #
edge $-1 $427 -44.339365821647576 $321 44.339365821647576 $319 $497 forward 7 unknown #
vertex $-1 $311 $498 #
straight-curve $-1 0 44.339365821647576 17.557263026804257 -1 0 0 I I #
straight-curve $-1 0 -44.339365821647576 17.557263026804257 1 0 0 I I #
edge $-1 $316 -17.557263026804257 $424 17.557263026804257 $313 $499 forward 7 unknown #
point $-1 75.961790826136053 -44.339365821647576 17.557263026804257 #
point $-1 75.961790826136053 44.339365821647576 17.557263026804257 #
point $-1 -75.961790826136053 -44.339365821647576 17.557263026804257 #
vertex $-1 $423 $500 #
straight-curve $-1 -75.961790826136053 0 -17.557263026804257 0 1 0 I I #
plane-surface $-1 0 0 -17.557263026804257 0 0 1 1 0 0 forward_v I I I I #
coedge $-1 $451 $328 $449 $501 reversed $218 $-1 #
coedge $-1 $328 $451 $332 $443 reversed $218 $-1 #
coedge $-1 $330 $329 $328 $440 reversed $134 $-1 #
edge $-1 $444 -17.557263026804257 $502 17.557263026804257 $439 $503 forward 7 unknown #
edge $-1 $502 -66.555875401228619 $340 -44.339365821647576 $329 $504 forward 7 unknown #
straight-curve $-1 -75.961790826136053 -44.339365821647576 0 0 0 -1 I I #
edge $-1 $444 -5.0659243533714005 $446 5.0659243533714005 $438 $505 forward 7 unknown #
vertex $-1 $333 $506 #
straight-curve $-1 -75.961790826136053 0 17.557263026804257 0 -1 0 I I #
vertex $-1 $334 $507 #
straight-curve $-1 -65.829942119393252 -55.447620611438097 17.557263026804257 0 1 0 I I #
point $-1 -75.961790826136053 -44.339365821647576 17.557263026804257 #
coedge $-1 $338 $337 $437 $501 forward $339 $-1 #
point $-1 -75.961790826136053 -44.339365821647576 -17.557263026804257 #
coedge $-1 $438 $437 $342 $452 reversed $218 $-1 #
edge $-1 $446 -17.557263026804257 $453 17.557263026804257 $342 $508 forward 7 unknown #
vertex $-1 $452 $509 #
straight-curve $-1 -65.829942119393252 -55.447620611438097 -17.557263026804257 0 -1 0 I I #
coedge $-1 $347 $355 $348 $457 forward $234 $-1 #
edge $-1 $459 -27.137311610790029 $356 -7.2667968109250651 $347 $510 forward 7 unknown #
edge $-1 $463 -17.557263026804257 $459 -3.3395472936944657 $348 $511 forward 7 unknown #
edge $-1 $353 64.448511946511857 $463 75.961790826136053 $349 $512 forward 7 unknown #
vertex $-1 $456 $513 #
straight-curve $-1 -61.736322238822993 44.339365821647576 20.906538474863687 -0.62932038083071107 0 -0.77714596973225614 I I #
point $-1 -64.448511946511857 44.339365821647576 17.557263026804257 #
point $-1 -75.961790826136053 24.468851021782612 3.3395472936944657 #
vertex $-1 $458 $514 #
straight-curve $-1 -75.961790826136053 0 17.557263026804257 0 -1 0 I I #
vertex $-1 $362 $515 #
point $-1 -56.204979023995719 34.404108421715094 4.258327632840512 #
edge $-1 $468 93.164906933617203 $471 100.86612942422187 $367 $516 forward 7 unknown #
vertex $-1 $381 $517 #
straight-curve $-1 19.326533405592883 3.2851967045969133 17.557263026804264 1 0 0 I I #
edge $-1 $471 -0.31316616899994543 $378 7.5098919161936628 $377 $518 forward 7 unknown #
vertex $-1 $470 $519 #
straight-curve $-1 -48.486720873660758 3.2851967045969133 96.995828221046139 -0.81915203911291934 0 0.57357644374324357 I I #
point $-1 64.9633054879463 3.2851967045969133 17.557263026804264 #
point $-1 75.961790826136053 11.108254789790521 9.8560405361996004 #
straight-curve $-1 75.961790826136053 0 17.557263026804257 0 1 0 I I #
vertex $-1 $384 $520 #
point $-1 70.298547732854388 5.5203561575093758 12.600711520517384 #
vertex $-1 $388 $521 #
point $-1 70.298547732854388 8.8730953368780661 12.600711520517384 #
straight-curve $-1 -48.486720873660758 18.93131287498413 96.995828221046139 0.81915203911291934 0 -0.57357644374324357 I I #
coedge $-1 $396 $402 $398 $483 forward $392 $-1 #
straight-curve $-1 19.326533405592883 18.93131287498413 17.557263026804264 -1 0 0 I I #
edge $-1 $487 11.108254789790521 $400 18.93131287498413 $398 $522 forward 7 unknown #
point $-1 75.961790826136053 18.93131287498413 9.8560405361996004 #
point $-1 75.961790826136053 18.93131287498413 17.557263026804257 #
point $-1 64.9633054879463 18.93131287498413 17.557263026804264 #
vertex $-1 $483 $523 #
straight-curve $-1 75.961790826136053 11.108254789790521 110.72216996042147 0 0 -1 I I #
straight-curve $-1 19.326533405592883 11.108254789790521 17.557263026804264 1 0 0 I I #
vertex $-1 $410 $524 #
point $-1 70.298547732854388 13.343414242702984 12.600711520517384 #
vertex $-1 $414 $525 #
point $-1 70.298547732854388 16.696153422071674 12.600711520517384 #
straight-curve $-1 -75.961790826136053 44.339365821647576 0 0 0 -1 I I #
straight-curve $-1 0 44.339365821647576 -17.557263026804257 1 0 0 I I #
point $-1 75.961790826136053 44.339365821647576 -17.557263026804257 #
straight-curve $-1 -75.961790826136053 0 17.557263026804257 0 -1 0 I I #
point $-1 -75.961790826136053 44.339365821647576 17.557263026804257 #
straight-curve $-1 75.961790826136053 44.339365821647576 0 0 0 -1 I I #
point $-1 -75.961790826136053 44.339365821647576 -17.557263026804257 #
edge $-1 $453 -5.0659243533714005 $502 5.0659243533714005 $437 $526 forward 7 unknown #
vertex $-1 $441 $527 #
straight-curve $-1 -75.961790826136053 -66.555875401228619 0 0 0 -1 I I #
straight-curve $-1 -75.961790826136053 0 -17.557263026804257 0 1 0 I I #
straight-curve $-1 -70.895866472764652 -66.555875401228619 17.557263026804257 1 0 0 I I #
point $-1 -75.961790826136053 -66.555875401228619 17.557263026804257 #
point $-1 -65.829942119393252 -66.555875401228619 17.557263026804257 #
straight-curve $-1 -65.829942119393252 -66.555875401228619 0 0 0 -1 I I #
point $-1 -65.829942119393252 -66.555875401228619 -17.557263026804257 #
straight-curve $-1 -75.961790826136053 17.202054210857547 3.339547293694471 0 -1 0 I I #
straight-curve $-1 -75.961790826136053 44.339365821647576 0 0 0 -1 I I #
straight-curve $-1 0 44.339365821647576 17.557263026804257 -1 0 0 I I #
point $-1 -75.961790826136053 44.339365821647576 3.3395472936944657 #
point $-1 -75.961790826136053 44.339365821647576 17.557263026804257 #
point $-1 -55.613676668389537 34.404108421715094 -1.3675377694113569 #
straight-curve $-1 75.961790826136053 3.2851967045969133 110.72216996042147 0 0 -1 I I #
point $-1 75.961790826136053 3.2851967045969133 17.557263026804257 #
straight-curve $-1 75.961790826136053 3.5983628735968587 9.8560405361996004 0 1 0 I I #
point $-1 75.961790826136053 3.2851967045969133 9.8560405361996004 #
point $-1 69.602183491426302 5.5203561575093758 12.477923722832546 #
point $-1 69.602183491426302 8.8730953368780661 12.477923722832546 #
straight-curve $-1 75.961790826136053 0 17.557263026804257 0 1 0 I I #
point $-1 75.961790826136053 11.108254789790521 17.557263026804257 #
point $-1 69.602183491426302 13.343414242702984 12.477923722832546 #
point $-1 69.602183491426302 16.696153422071674 12.477923722832546 #
straight-curve $-1 -70.895866472764652 -66.555875401228619 -17.557263026804257 -1 0 0 I I #
point $-1 -75.961790826136053 -66.555875401228619 -17.557263026804257 #
End-of-ACIS-data 