500 0 9 0           
7 Unknown 11 ACIS 5.0 NT 24 Thu Mar 25 16:14:14 1999 
-1 9.9999999999999995e-007 1e-010 
body $-1 $9 $-1 $10 #
body $-1 $11 $-1 $12 #
body $-1 $13 $-1 $14 #
body $-1 $15 $-1 $16 #
body $-1 $17 $-1 $18 #
body $-1 $19 $-1 $20 #
body $-1 $21 $-1 $22 #
body $-1 $23 $-1 $24 #
body $-1 $25 $-1 $26 #
lump $-1 $-1 $27 $0 #
transform $-1 1 0 0 0 1 0 0 0 1 76.14734336375011 38.320237834739032 11.525074368650461 1 rotate no_reflect no_shear #
lump $-1 $-1 $28 $1 #
transform $-1 1 0 0 0 1 0 0 0 1 76.14734336375011 38.320237834739032 11.525074368650461 1 rotate no_reflect no_shear #
lump $-1 $-1 $29 $2 #
transform $-1 1 0 0 0 1 0 0 0 1 76.14734336375011 38.320237834739032 11.525074368650461 1 rotate no_reflect no_shear #
lump $-1 $-1 $30 $3 #
transform $-1 1 0 0 0 1 0 0 0 1 76.14734336375011 38.320237834739032 11.525074368650461 1 rotate no_reflect no_shear #
lump $-1 $-1 $31 $4 #
transform $-1 1 0 0 0 1 0 0 0 1 76.14734336375011 38.320237834739032 11.525074368650461 1 rotate no_reflect no_shear #
lump $-1 $-1 $32 $5 #
transform $-1 1 0 0 0 1 0 0 0 1 76.14734336375011 38.320237834739032 11.525074368650461 1 rotate no_reflect no_shear #
lump $-1 $-1 $33 $6 #
transform $-1 1 0 0 0 1 0 0 0 1 76.14734336375011 38.320237834739032 11.525074368650461 1 rotate no_reflect no_shear #
lump $-1 $-1 $34 $7 #
transform $-1 1 0 0 0 1 0 0 0 1 76.14734336375011 38.320237834739032 11.525074368650461 1 rotate no_reflect no_shear #
lump $-1 $-1 $35 $8 #
transform $-1 1 0 0 0 1 0 0 0 1 76.14734336375011 38.320237834739032 11.525074368650461 1 rotate no_reflect no_shear #
shell $-1 $-1 $-1 $36 $-1 $9 #
shell $-1 $-1 $-1 $37 $-1 $11 #
shell $-1 $-1 $-1 $38 $-1 $13 #
shell $-1 $-1 $-1 $39 $-1 $15 #
shell $-1 $-1 $-1 $40 $-1 $17 #
shell $-1 $-1 $-1 $41 $-1 $19 #
shell $-1 $-1 $-1 $42 $-1 $21 #
shell $-1 $-1 $-1 $43 $-1 $23 #
shell $-1 $-1 $-1 $44 $-1 $25 #
face $-1 $45 $46 $27 $-1 $47 forward single #
face $-1 $48 $49 $28 $-1 $50 forward single #
face $-1 $51 $52 $29 $-1 $53 reversed single #
face $-1 $54 $55 $30 $-1 $56 forward single #
face $-1 $57 $58 $31 $-1 $59 forward single #
face $-1 $60 $61 $32 $-1 $62 forward single #
face $-1 $63 $64 $33 $-1 $65 reversed single #
face $-1 $66 $67 $34 $-1 $68 forward single #
face $-1 $69 $70 $35 $-1 $71 forward single #
face $-1 $72 $73 $27 $-1 $74 reversed single #
loop $-1 $-1 $75 $36 #
plane-surface $-1 0 0 11.525074368650461 0 0 1 1 0 0 forward_v I I I I #
face $-1 $76 $77 $28 $-1 $78 reversed single #
loop $-1 $-1 $79 $37 #
plane-surface $-1 0 -33.545222991478106 8.6479174924399764 0 0 1 1 0 0 forward_v I I I I #
face $-1 $80 $81 $29 $-1 $82 reversed single #
loop $-1 $-1 $83 $38 #
plane-surface $-1 113.54720665041609 -2.8169637413563322 215.03963346216401 0 1 0 0.81915205242281985 0 0.57357642473473569 forward_v I I I I #
face $-1 $84 $85 $30 $-1 $86 forward single #
loop $-1 $87 $88 $39 #
cone-surface $-1 72.279245311728587 0.33794774267632022 6.6272511583298854 -0.81915205242281985 0 -0.57357642473473569 0.57357642473473569 0 -0.81915205242281985 1 I I 0 1 1 forward I I I I #
face $-1 $89 $90 $31 $-1 $91 forward single #
loop $-1 $92 $93 $40 #
cone-surface $-1 72.279245311728587 5.0703149687252989 6.6272511583298854 -0.81915205242281985 0 -0.57357642473473569 0.57357642473473569 0 -0.81915205242281985 1 I I 0 1 1 forward I I I I #
face $-1 $94 $95 $32 $-1 $96 forward single #
loop $-1 $97 $98 $41 #
cone-surface $-1 72.279245311728587 9.8026821947742775 6.6272511583298854 -0.81915205242281985 0 -0.57357642473473569 0.57357642473473569 0 -0.81915205242281985 1 I I 0 1 1 forward I I I I #
face $-1 $99 $100 $33 $-1 $101 reversed single #
loop $-1 $-1 $102 $42 #
plane-surface $-1 -189.32435301417499 -10.787216784231887 108.26287159418611 0 -1 0 0.74314483375859142 0 -0.66913059716165679 forward_v I I I I #
face $-1 $103 $104 $34 $-1 $105 forward single #
loop $-1 $106 $107 $43 #
cone-surface $-1 -72.871580857326279 -23.632210615649953 8.0865564065237869 0.74314483375859142 0 -0.66913059716165679 0.66913059716165679 0 0.74314483375859142 1 I I 0 1 1 forward I I I I #
face $-1 $108 $109 $35 $-1 $110 forward single #
loop $-1 $111 $112 $44 #
cone-surface $-1 -72.871580857326279 -15.925214316799114 8.0865564065237869 0.74314483375859142 0 -0.66913059716165679 0.66913059716165679 0 0.74314483375859142 1 I I 0 1 1 forward I I I I #
face $-1 $113 $114 $27 $-1 $115 reversed single #
loop $-1 $-1 $116 $45 #
plane-surface $-1 0 0 -11.525074368650461 0 0 1 1 0 0 forward_v I I I I #
coedge $-1 $117 $118 $119 $120 forward $46 $-1 #
face $-1 $121 $122 $28 $-1 $123 reversed single #
loop $-1 $-1 $124 $48 #
plane-surface $-1 0 -33.545222991478106 5.6479174924399764 0 0 1 1 0 0 forward_v I I I I #
coedge $-1 $125 $126 $127 $128 reversed $49 $-1 #
face $-1 $129 $130 $29 $-1 $131 reversed single #
loop $-1 $-1 $132 $51 #
plane-surface $-1 -11.205298555506104 5.0703149687252989 127.68699154290782 0.81915205242281985 0 0.57357642473473569 0.57357642473473569 0 -0.81915205242281985 forward_v I I I I #
coedge $-1 $133 $134 $135 $136 reversed $52 $-1 #
face $-1 $-1 $137 $30 $-1 $138 forward single #
loop $-1 $139 $140 $54 #
cone-surface $-1 71.00916839143332 0.33794774267632022 5.7379337514743334 -0.81915205242281985 0 -0.57357642473473569 0.28678821236736785 0 -0.40957602621140993 1 I I -0.70710678118654746 0.70710678118654746 0.5 forward I I I I #
loop $-1 $-1 $141 $39 #
coedge $-1 $88 $88 $142 $143 reversed $55 $-1 #
face $-1 $-1 $144 $31 $-1 $145 forward single #
loop $-1 $146 $147 $57 #
cone-surface $-1 71.00916839143332 5.0703149687252989 5.7379337514743334 -0.81915205242281985 0 -0.57357642473473569 0.28678821236736785 0 -0.40957602621140993 1 I I -0.70710678118654746 0.70710678118654746 0.5 forward I I I I #
loop $-1 $-1 $148 $40 #
coedge $-1 $93 $93 $149 $150 reversed $58 $-1 #
face $-1 $-1 $151 $32 $-1 $152 forward single #
loop $-1 $153 $154 $60 #
cone-surface $-1 71.00916839143332 9.8026821947742775 5.7379337514743334 -0.81915205242281985 0 -0.57357642473473569 0.28678821236736785 0 -0.40957602621140993 1 I I -0.70710678118654746 0.70710678118654746 0.5 forward I I I I #
loop $-1 $-1 $155 $41 #
coedge $-1 $98 $98 $156 $157 reversed $61 $-1 #
face $-1 $158 $159 $33 $-1 $160 forward single #
loop $-1 $-1 $161 $63 #
plane-surface $-1 -76.147343363750082 -19.778712466224533 6.3578369196664397 -0.74314483375859142 0 0.66913059716165679 0.66913059716165679 0 0.74314483375859142 forward_v I I I I #
coedge $-1 $162 $163 $164 $165 reversed $64 $-1 #
face $-1 $-1 $166 $34 $-1 $167 forward single #
loop $-1 $168 $169 $66 #
cone-surface $-1 -71.55054662458133 -23.632210615649953 6.8970918703082766 0.74314483375859142 0 -0.66913059716165679 0.3345652985808284 0 0.37157241687929571 1 I I -0.70710678118654746 0.70710678118654746 0.5 forward I I I I #
loop $-1 $-1 $170 $43 #
coedge $-1 $107 $107 $171 $172 reversed $67 $-1 #
face $-1 $-1 $173 $35 $-1 $174 forward single #
loop $-1 $175 $176 $69 #
cone-surface $-1 -71.55054662458133 -15.925214316799114 6.8970918703082766 0.74314483375859142 0 -0.66913059716165679 0.3345652985808284 0 0.37157241687929571 1 I I -0.70710678118654746 0.70710678118654746 0.5 forward I I I I #
loop $-1 $-1 $177 $44 #
coedge $-1 $112 $112 $178 $179 reversed $70 $-1 #
face $-1 $180 $181 $27 $-1 $182 reversed single #
loop $-1 $-1 $183 $72 #
plane-surface $-1 0 -38.320237834739032 0 0 1 0 0 0 1 forward_v I I I I #
coedge $-1 $184 $185 $186 $187 forward $73 $-1 #
coedge $-1 $188 $75 $189 $190 forward $46 $-1 #
coedge $-1 $75 $188 $191 $192 forward $46 $-1 #
coedge $-1 $193 $194 $75 $120 reversed $195 $-1 #
edge $-1 $196 -38.320237834739032 $197 38.320237834739032 $119 $198 forward 7 unknown #
face $-1 $199 $200 $28 $-1 $201 reversed single #
loop $-1 $-1 $202 $76 #
plane-surface $-1 0 -28.770208148217179 7.1479174924399764 0 -1 0 0 0 -1 forward_v I I I I #
coedge $-1 $203 $204 $205 $206 reversed $77 $-1 #
coedge $-1 $207 $79 $208 $209 forward $49 $-1 #
coedge $-1 $79 $207 $210 $211 reversed $49 $-1 #
coedge $-1 $212 $213 $79 $128 forward $214 $-1 #
edge $-1 $215 11.997596652478126 $216 21.547626338999979 $127 $217 forward 7 unknown #
face $-1 $218 $219 $29 $-1 $220 forward single #
loop $-1 $-1 $221 $80 #
plane-surface $-1 113.54720665041609 12.95759367880693 215.03963346216401 0 -1 0 -0.81915205242281985 0 -0.57357642473473569 forward_v I I I I #
coedge $-1 $222 $223 $224 $225 reversed $81 $-1 #
coedge $-1 $134 $83 $226 $227 reversed $52 $-1 #
coedge $-1 $83 $133 $222 $228 reversed $52 $-1 #
coedge $-1 $224 $229 $83 $136 forward $230 $-1 #
edge $-1 $231 95.994742362431538 $232 104.58533039409642 $135 $233 forward 7 unknown #
loop $-1 $-1 $142 $84 #
plane-surface $-1 -11.205298555506104 5.0703149687252989 127.68699154290782 0.81915205242281985 0 0.57357642473473569 0.57357642473473569 0 -0.81915205242281985 forward_v I I I I #
loop $-1 $-1 $234 $54 #
coedge $-1 $140 $140 $141 $235 reversed $85 $-1 #
coedge $-1 $141 $141 $140 $235 forward $87 $-1 #
coedge $-1 $142 $142 $88 $143 forward $137 $-1 #
edge $-1 $236 0 $236 6.2831853071796004 $142 $237 forward 7 unknown #
loop $-1 $-1 $149 $89 #
plane-surface $-1 -11.205298555506104 5.0703149687252989 127.68699154290782 0.81915205242281985 0 0.57357642473473569 0.57357642473473569 0 -0.81915205242281985 forward_v I I I I #
loop $-1 $-1 $238 $57 #
coedge $-1 $147 $147 $148 $239 reversed $90 $-1 #
coedge $-1 $148 $148 $147 $239 forward $92 $-1 #
coedge $-1 $149 $149 $93 $150 forward $144 $-1 #
edge $-1 $240 0 $240 6.2831853071796004 $149 $241 forward 7 unknown #
loop $-1 $-1 $156 $94 #
plane-surface $-1 -11.205298555506104 5.0703149687252989 127.68699154290782 0.81915205242281985 0 0.57357642473473569 0.57357642473473569 0 -0.81915205242281985 forward_v I I I I #
loop $-1 $-1 $242 $60 #
coedge $-1 $154 $154 $155 $243 reversed $95 $-1 #
coedge $-1 $155 $155 $154 $243 forward $97 $-1 #
coedge $-1 $156 $156 $98 $157 forward $151 $-1 #
edge $-1 $244 0 $244 6.2831853071796004 $156 $245 forward 7 unknown #
face $-1 $246 $247 $33 $-1 $248 forward single #
loop $-1 $-1 $249 $99 #
plane-surface $-1 0 -28.770208148217179 7.1479174924399764 0 -1 0 0 0 -1 forward_v I I I I #
coedge $-1 $250 $251 $252 $253 reversed $100 $-1 #
coedge $-1 $163 $102 $254 $255 reversed $64 $-1 #
coedge $-1 $102 $162 $250 $256 reversed $64 $-1 #
coedge $-1 $252 $257 $102 $165 forward $258 $-1 #
edge $-1 $259 42.606361428442597 $260 47.77359887742665 $164 $261 forward 7 unknown #
loop $-1 $-1 $171 $103 #
plane-surface $-1 -76.147343363750082 -19.778712466224533 6.3578369196664397 -0.74314483375859142 0 0.66913059716165679 0.66913059716165679 0 0.74314483375859142 forward_v I I I I #
loop $-1 $-1 $262 $66 #
coedge $-1 $169 $169 $170 $263 reversed $104 $-1 #
coedge $-1 $170 $170 $169 $263 forward $106 $-1 #
coedge $-1 $171 $171 $107 $172 forward $166 $-1 #
edge $-1 $264 0 $264 6.2831853071796004 $171 $265 forward 7 unknown #
loop $-1 $-1 $178 $108 #
plane-surface $-1 -76.147343363750082 -19.778712466224533 6.3578369196664397 -0.74314483375859142 0 0.66913059716165679 0.66913059716165679 0 0.74314483375859142 forward_v I I I I #
loop $-1 $-1 $266 $69 #
coedge $-1 $176 $176 $177 $267 reversed $109 $-1 #
coedge $-1 $177 $177 $176 $267 forward $111 $-1 #
coedge $-1 $178 $178 $112 $179 forward $173 $-1 #
edge $-1 $268 0 $268 6.2831853071796004 $178 $269 forward 7 unknown #
face $-1 $270 $271 $27 $-1 $272 reversed single #
loop $-1 $-1 $273 $113 #
plane-surface $-1 -76.14734336375011 0 0 1 0 0 0 0 -1 forward_v I I I I #
coedge $-1 $274 $191 $275 $276 forward $114 $-1 #
coedge $-1 $277 $116 $274 $278 forward $73 $-1 #
coedge $-1 $116 $277 $279 $280 forward $73 $-1 #
coedge $-1 $194 $193 $116 $187 reversed $195 $-1 #
edge $-1 $281 -38.320237834739032 $282 38.320237834739032 $186 $283 forward 7 unknown #
coedge $-1 $118 $117 $284 $285 forward $46 $-1 #
coedge $-1 $286 $287 $117 $190 reversed $271 $-1 #
edge $-1 $197 -76.14734336375011 $288 76.14734336375011 $189 $289 forward 7 unknown #
coedge $-1 $183 $290 $118 $192 reversed $114 $-1 #
edge $-1 $291 -76.14734336375011 $196 76.14734336375011 $191 $292 forward 7 unknown #
coedge $-1 $186 $119 $290 $293 forward $195 $-1 #
coedge $-1 $119 $186 $286 $294 reversed $195 $-1 #
loop $-1 $-1 $193 $270 #
vertex $-1 $120 $295 #
vertex $-1 $120 $296 #
straight-curve $-1 76.14734336375011 0 11.525074368650461 0 1 0 I I #
face $-1 $297 $298 $28 $-1 $299 reversed single #
loop $-1 $-1 $300 $121 #
plane-surface $-1 -76.14734336375011 0 0 1 0 0 0 0 -1 forward_v I I I I #
coedge $-1 $301 $208 $213 $302 reversed $122 $-1 #
coedge $-1 $303 $124 $304 $305 reversed $77 $-1 #
coedge $-1 $124 $303 $301 $306 forward $77 $-1 #
coedge $-1 $213 $212 $124 $206 forward $214 $-1 #
edge $-1 $307 -21.547626338999979 $308 -11.997596652478126 $205 $309 forward 7 unknown #
coedge $-1 $126 $125 $300 $310 reversed $49 $-1 #
coedge $-1 $202 $311 $125 $209 reversed $122 $-1 #
edge $-1 $215 -76.14734336375011 $312 76.14734336375011 $208 $313 forward 7 unknown #
coedge $-1 $314 $315 $126 $211 forward $298 $-1 #
edge $-1 $216 -76.14734336375011 $316 76.14734336375011 $210 $317 forward 7 unknown #
coedge $-1 $205 $127 $315 $318 forward $214 $-1 #
coedge $-1 $127 $205 $202 $302 forward $214 $-1 #
loop $-1 $-1 $127 $297 #
vertex $-1 $128 $319 #
vertex $-1 $318 $320 #
straight-curve $-1 76.14734336375011 -16.772611495739053 8.6479174924399764 0 -1 0 I I #
face $-1 $-1 $230 $29 $-1 $321 reversed single #
loop $-1 $-1 $322 $129 #
plane-surface $-1 0 0 11.525074368650461 0 0 1 1 0 0 forward_v I I I I #
coedge $-1 $323 $324 $325 $326 reversed $130 $-1 #
coedge $-1 $327 $132 $134 $228 forward $81 $-1 #
coedge $-1 $132 $327 $323 $328 forward $81 $-1 #
coedge $-1 $325 $135 $132 $225 forward $230 $-1 #
edge $-1 $232 -5.3521212257189816 $329 10.42243619444428 $224 $330 forward 7 unknown #
coedge $-1 $331 $332 $133 $227 forward $219 $-1 #
edge $-1 $333 13.358545722666747 $231 19.373740038542067 $226 $334 forward 7 unknown #
edge $-1 $232 -152.29468672750031 $333 -141.80751526005864 $134 $335 forward 7 unknown #
coedge $-1 $135 $325 $331 $336 reversed $230 $-1 #
loop $-1 $-1 $325 $218 #
vertex $-1 $336 $337 #
vertex $-1 $136 $338 #
straight-curve $-1 76.14734336375011 -2.8169637413563322 107.519816731082 0 0 -1 I I #
coedge $-1 $234 $234 $-1 $339 reversed $139 $-1 #
edge $-1 $340 0 $340 6.2831853071796004 $140 $341 forward 7 unknown #
vertex $-1 $143 $342 #
ellipse-curve $-1 73.139746205812429 0.33794774267632022 7.2297803528180529 0.81915205242281985 0 0.57357642473473569 0.57357642473473569 0 -0.81915205242281985 1 I I #
coedge $-1 $238 $238 $-1 $343 reversed $146 $-1 #
edge $-1 $344 0 $344 6.2831853071796004 $147 $345 forward 7 unknown #
vertex $-1 $150 $346 #
ellipse-curve $-1 73.139746205812429 5.0703149687252989 7.2297803528180529 0.81915205242281985 0 0.57357642473473569 0.57357642473473569 0 -0.81915205242281985 1 I I #
coedge $-1 $242 $242 $-1 $347 reversed $153 $-1 #
edge $-1 $348 0 $348 6.2831853071796004 $154 $349 forward 7 unknown #
vertex $-1 $157 $350 #
ellipse-curve $-1 73.139746205812429 9.8026821947742775 7.2297803528180529 0.81915205242281985 0 0.57357642473473569 0.57357642473473569 0 -0.81915205242281985 1 I I #
face $-1 $-1 $258 $33 $-1 $351 reversed single #
loop $-1 $-1 $352 $158 #
plane-surface $-1 0 0 11.525074368650461 0 0 1 1 0 0 forward_v I I I I #
coedge $-1 $353 $354 $251 $355 reversed $159 $-1 #
coedge $-1 $356 $161 $163 $256 forward $100 $-1 #
coedge $-1 $161 $356 $249 $355 forward $100 $-1 #
coedge $-1 $357 $164 $161 $253 forward $258 $-1 #
edge $-1 $260 0.89786055111962071 $358 18.880851915104913 $252 $359 forward 7 unknown #
coedge $-1 $360 $361 $162 $255 forward $247 $-1 #
edge $-1 $362 -23.167434524453839 $259 -18.514833143337384 $254 $363 forward 7 unknown #
edge $-1 $260 -4.2779462749537973e-014 $362 6.9532037555179826 $163 $364 forward 7 unknown #
coedge $-1 $164 $357 $360 $365 reversed $258 $-1 #
loop $-1 $-1 $252 $246 #
vertex $-1 $365 $366 #
vertex $-1 $165 $367 #
straight-curve $-1 -76.14734336375011 -10.787216784231887 54.131435797093054 0 0 -1 I I #
coedge $-1 $262 $262 $-1 $368 reversed $168 $-1 #
edge $-1 $369 0 $369 6.2831853071796004 $169 $370 forward 7 unknown #
vertex $-1 $172 $371 #
ellipse-curve $-1 -73.821042673191883 -23.632210615649953 8.9414556441584327 -0.74314483375859142 0 0.66913059716165679 0.66913059716165679 0 0.74314483375859142 1 I I #
coedge $-1 $266 $266 $-1 $372 reversed $175 $-1 #
edge $-1 $373 0 $373 6.2831853071796004 $176 $374 forward 7 unknown #
vertex $-1 $179 $375 #
ellipse-curve $-1 -73.821042673191883 -15.925214316799114 8.9414556441584327 -0.74314483375859142 0 0.66913059716165679 0.66913059716165679 0 0.74314483375859142 1 I I #
face $-1 $-1 $195 $27 $-1 $376 reversed single #
loop $-1 $-1 $286 $180 #
plane-surface $-1 0 38.320237834739032 0 0 -1 0 0 0 -1 forward_v I I I I #
coedge $-1 $377 $284 $287 $378 forward $181 $-1 #
coedge $-1 $290 $183 $184 $278 reversed $114 $-1 #
coedge $-1 $284 $377 $183 $276 reversed $181 $-1 #
edge $-1 $291 -11.525074368650461 $379 11.525074368650461 $275 $380 forward 7 unknown #
coedge $-1 $185 $184 $377 $381 forward $73 $-1 #
edge $-1 $282 -76.14734336375011 $379 76.14734336375011 $274 $382 forward 7 unknown #
coedge $-1 $287 $286 $185 $280 reversed $271 $-1 #
edge $-1 $383 -76.14734336375011 $281 76.14734336375011 $279 $384 forward 7 unknown #
vertex $-1 $187 $385 #
vertex $-1 $293 $386 #
straight-curve $-1 76.14734336375011 0 -11.525074368650461 0 -1 0 I I #
coedge $-1 $273 $275 $188 $285 reversed $181 $-1 #
edge $-1 $288 -38.320237834739032 $291 38.320237834739032 $284 $387 forward 7 unknown #
coedge $-1 $279 $189 $194 $294 forward $271 $-1 #
coedge $-1 $189 $279 $273 $378 reversed $271 $-1 #
vertex $-1 $190 $388 #
straight-curve $-1 0 38.320237834739032 11.525074368650461 -1 0 0 I I #
coedge $-1 $191 $274 $193 $293 reversed $114 $-1 #
vertex $-1 $285 $389 #
straight-curve $-1 0 -38.320237834739032 11.525074368650461 1 0 0 I I #
edge $-1 $196 -11.525074368650461 $282 11.525074368650461 $193 $390 forward 7 unknown #
edge $-1 $197 -11.525074368650461 $281 11.525074368650461 $194 $391 forward 7 unknown #
point $-1 76.14734336375011 -38.320237834739032 11.525074368650461 #
point $-1 76.14734336375011 38.320237834739032 11.525074368650461 #
face $-1 $-1 $214 $28 $-1 $392 reversed single #
loop $-1 $-1 $210 $199 #
plane-surface $-1 0 -38.320237834739032 0 0 1 0 0 0 1 forward_v I I I I #
coedge $-1 $393 $394 $207 $310 forward $200 $-1 #
coedge $-1 $311 $202 $204 $306 reversed $122 $-1 #
edge $-1 $308 2.0739587462199882 $215 5.0739587462199882 $213 $395 forward 7 unknown #
coedge $-1 $204 $203 $396 $397 reversed $77 $-1 #
coedge $-1 $315 $314 $203 $305 forward $298 $-1 #
edge $-1 $398 -76.14734336375011 $307 76.14734336375011 $304 $399 forward 7 unknown #
edge $-1 $400 -76.14734336375011 $308 76.14734336375011 $301 $401 forward 7 unknown #
vertex $-1 $305 $402 #
vertex $-1 $206 $403 #
straight-curve $-1 76.14734336375011 -16.772611495739053 5.6479174924399764 0 1 0 I I #
edge $-1 $316 -21.547626338999979 $312 -11.997596652478126 $300 $404 forward 7 unknown #
coedge $-1 $208 $301 $393 $405 reversed $122 $-1 #
vertex $-1 $310 $406 #
straight-curve $-1 0 -28.770208148217179 8.6479174924399764 -1 0 0 I I #
coedge $-1 $304 $210 $394 $407 forward $298 $-1 #
coedge $-1 $210 $304 $212 $318 reversed $298 $-1 #
vertex $-1 $407 $408 #
straight-curve $-1 0 -38.320237834739032 8.6479174924399764 -1 0 0 I I #
edge $-1 $216 -8.6479174924399764 $307 -5.6479174924399764 $212 $409 forward 7 unknown #
point $-1 76.14734336375011 -28.770208148217179 8.6479174924399764 #
point $-1 76.14734336375011 -38.320237834739032 8.6479174924399764 #
plane-surface $-1 76.14734336375011 0 0 -1 0 0 0 0 1 forward_v I I I I #
coedge $-1 $332 $331 $324 $410 forward $219 $-1 #
coedge $-1 $324 $221 $223 $328 reversed $130 $-1 #
coedge $-1 $221 $323 $322 $410 reversed $130 $-1 #
coedge $-1 $229 $224 $221 $326 forward $230 $-1 #
edge $-1 $329 -104.58533039409642 $411 -95.994742362431538 $325 $412 forward 7 unknown #
coedge $-1 $223 $222 $332 $413 reversed $81 $-1 #
edge $-1 $414 141.80751526005864 $329 152.29468672750031 $323 $415 forward 7 unknown #
vertex $-1 $225 $416 #
straight-curve $-1 76.14734336375011 2.5351574843626494 2.9344863369855716 0 1 0 I I #
coedge $-1 $322 $226 $229 $336 forward $219 $-1 #
coedge $-1 $226 $322 $327 $413 forward $219 $-1 #
vertex $-1 $227 $417 #
straight-curve $-1 56.773603325208043 -2.8169637413563322 11.525074368650465 1 0 0 I I #
straight-curve $-1 -11.205298555506104 -2.8169637413563322 127.68699154290782 -0.57357642473473569 0 0.81915205242281985 I I #
edge $-1 $231 -2.8169637413563322 $411 12.95759367880693 $229 $418 forward 7 unknown #
point $-1 76.14734336375011 -2.8169637413563322 11.525074368650461 #
point $-1 76.14734336375011 -2.8169637413563322 2.9344863369855858 #
edge $-1 $419 1 $419 0 $234 $-1 forward 7 unknown #
vertex $-1 $235 $420 #
ellipse-curve $-1 71.418744417644731 0.33794774267632022 6.0247219638417011 0.81915205242281985 0 0.57357642473473569 0.57357642473473569 0 -0.81915205242281985 1 I I #
point $-1 73.713322630547196 0.33794774267632022 6.4106283003952509 #
edge $-1 $421 1 $421 0 $238 $-1 forward 7 unknown #
vertex $-1 $239 $422 #
ellipse-curve $-1 71.418744417644731 5.0703149687252989 6.0247219638417011 0.81915205242281985 0 0.57357642473473569 0.57357642473473569 0 -0.81915205242281985 1 I I #
point $-1 73.713322630547196 5.0703149687252989 6.4106283003952509 #
edge $-1 $423 1 $423 0 $242 $-1 forward 7 unknown #
vertex $-1 $243 $424 #
ellipse-curve $-1 71.418744417644731 9.8026821947742775 6.0247219638417011 0.81915205242281985 0 0.57357642473473569 0.57357642473473569 0 -0.81915205242281985 1 I I #
point $-1 73.713322630547196 9.8026821947742775 6.4106283003952509 #
plane-surface $-1 -76.14734336375011 0 0 1 0 0 0 0 -1 forward_v I I I I #
coedge $-1 $361 $360 $353 $425 forward $247 $-1 #
coedge $-1 $354 $249 $352 $425 reversed $159 $-1 #
coedge $-1 $249 $353 $357 $426 reversed $159 $-1 #
edge $-1 $427 -6.9532037555179826 $358 4.2779462749537973e-014 $249 $428 forward 7 unknown #
coedge $-1 $251 $250 $361 $429 reversed $100 $-1 #
coedge $-1 $257 $252 $354 $426 forward $258 $-1 #
vertex $-1 $426 $430 #
straight-curve $-1 -76.14734336375011 -9.8893562331122666 6.357836919666414 0 -1 0 I I #
coedge $-1 $352 $254 $257 $365 forward $247 $-1 #
coedge $-1 $254 $352 $356 $429 forward $247 $-1 #
vertex $-1 $255 $431 #
straight-curve $-1 -94.662176507087494 -10.787216784231887 11.525074368650465 -1 0 0 I I #
straight-curve $-1 -76.147343363750082 -10.787216784231887 6.3578369196664397 0.66913059716165679 0 0.74314483375859142 I I #
edge $-1 $259 10.787216784231887 $432 28.770208148217179 $257 $433 forward 7 unknown #
point $-1 -76.14734336375011 -10.787216784231887 11.525074368650461 #
point $-1 -76.14734336375011 -10.787216784231887 6.3578369196664077 #
edge $-1 $434 1 $434 0 $262 $-1 forward 7 unknown #
vertex $-1 $263 $435 #
ellipse-curve $-1 -71.922119041460618 -23.632210615649953 7.2316571688891047 -0.74314483375859142 0 0.66913059716165679 0.66913059716165679 0 0.74314483375859142 1 I I #
point $-1 -73.151912076030271 -23.632210615649953 9.6846004779170602 #
edge $-1 $436 1 $436 0 $266 $-1 forward 7 unknown #
vertex $-1 $267 $437 #
ellipse-curve $-1 -71.922119041460618 -15.925214316799114 7.2316571688891047 -0.74314483375859142 0 0.66913059716165679 0.66913059716165679 0 0.74314483375859142 1 I I #
point $-1 -73.151912076030271 -15.925214316799114 9.6846004779170602 #
plane-surface $-1 76.14734336375011 0 0 -1 0 0 0 0 1 forward_v I I I I #
coedge $-1 $275 $273 $277 $381 reversed $181 $-1 #
edge $-1 $288 -11.525074368650461 $383 11.525074368650461 $287 $438 forward 7 unknown #
vertex $-1 $381 $439 #
straight-curve $-1 -76.14734336375011 -38.320237834739032 0 0 0 -1 I I #
edge $-1 $379 -38.320237834739032 $383 38.320237834739032 $377 $440 forward 7 unknown #
straight-curve $-1 0 -38.320237834739032 -11.525074368650461 -1 0 0 I I #
vertex $-1 $280 $441 #
straight-curve $-1 0 38.320237834739032 -11.525074368650461 1 0 0 I I #
point $-1 76.14734336375011 38.320237834739032 -11.525074368650461 #
point $-1 76.14734336375011 -38.320237834739032 -11.525074368650461 #
straight-curve $-1 -76.14734336375011 0 11.525074368650461 0 -1 0 I I #
point $-1 -76.14734336375011 38.320237834739032 11.525074368650461 #
point $-1 -76.14734336375011 -38.320237834739032 11.525074368650461 #
straight-curve $-1 76.14734336375011 -38.320237834739032 0 0 0 -1 I I #
straight-curve $-1 76.14734336375011 38.320237834739032 0 0 0 -1 I I #
plane-surface $-1 76.14734336375011 0 0 -1 0 0 0 0 1 forward_v I I I I #
coedge $-1 $396 $300 $311 $405 forward $200 $-1 #
coedge $-1 $300 $396 $314 $407 reversed $200 $-1 #
straight-curve $-1 76.14734336375011 -28.770208148217179 3.5739587462199882 0 0 1 I I #
coedge $-1 $394 $393 $303 $397 forward $200 $-1 #
edge $-1 $400 11.997596652478126 $398 21.547626338999979 $396 $442 forward 7 unknown #
vertex $-1 $305 $443 #
straight-curve $-1 0 -38.320237834739032 5.6479174924399764 1 0 0 I I #
vertex $-1 $397 $444 #
straight-curve $-1 0 -28.770208148217179 5.6479174924399764 1 0 0 I I #
point $-1 76.14734336375011 -38.320237834739032 5.6479174924399764 #
point $-1 76.14734336375011 -28.770208148217179 5.6479174924399764 #
straight-curve $-1 -76.14734336375011 -16.772611495739053 8.6479174924399764 0 1 0 I I #
edge $-1 $312 -5.0739587462199882 $400 -2.0739587462199882 $393 $445 forward 7 unknown #
point $-1 -76.14734336375011 -28.770208148217179 8.6479174924399764 #
edge $-1 $316 -8.6479174924399764 $398 -5.6479174924399764 $394 $446 forward 7 unknown #
point $-1 -76.14734336375011 -38.320237834739032 8.6479174924399764 #
straight-curve $-1 76.14734336375011 -38.320237834739032 0 0 0 -1 I I #
edge $-1 $411 -19.373740038542067 $414 -13.358545722666747 $322 $447 forward 7 unknown #
vertex $-1 $410 $448 #
straight-curve $-1 76.14734336375011 12.95759367880693 107.519816731082 0 0 1 I I #
edge $-1 $414 -10.42243619444428 $333 5.3521212257189816 $332 $449 forward 7 unknown #
vertex $-1 $413 $450 #
straight-curve $-1 -11.205298555506104 12.95759367880693 127.68699154290782 0.57357642473473569 0 -0.81915205242281985 I I #
point $-1 76.14734336375011 12.95759367880693 2.9344863369855858 #
point $-1 70.13214904787479 -2.8169637413563322 11.525074368650465 #
straight-curve $-1 76.14734336375011 0 11.525074368650461 0 1 0 I I #
vertex $-1 $339 $451 #
point $-1 71.99232084237947 0.33794774267632022 5.2055699114188814 #
vertex $-1 $343 $452 #
point $-1 71.99232084237947 5.0703149687252989 5.2055699114188814 #
vertex $-1 $347 $453 #
point $-1 71.99232084237947 9.8026821947742775 5.2055699114188814 #
edge $-1 $432 18.514833143337384 $427 23.167434524453839 $352 $454 forward 7 unknown #
edge $-1 $358 -47.77359887742665 $432 -42.606361428442597 $357 $455 forward 7 unknown #
vertex $-1 $429 $456 #
straight-curve $-1 -76.147343363750082 -28.770208148217179 6.3578369196664397 -0.66913059716165679 0 -0.74314483375859142 I I #
edge $-1 $427 -18.880851915104913 $362 -0.89786055111962071 $361 $457 forward 7 unknown #
point $-1 -76.14734336375011 -28.770208148217179 6.3578369196664077 #
point $-1 -71.494741982633656 -10.787216784231887 11.525074368650461 #
vertex $-1 $426 $458 #
straight-curve $-1 -76.14734336375011 0 11.525074368650461 0 -1 0 I I #
vertex $-1 $368 $459 #
point $-1 -71.252988444298964 -23.632210615649953 7.9748020026476967 #
vertex $-1 $372 $460 #
point $-1 -71.252988444298964 -15.925214316799114 7.9748020026476967 #
straight-curve $-1 -76.14734336375011 38.320237834739032 0 0 0 -1 I I #
point $-1 -76.14734336375011 -38.320237834739032 -11.525074368650461 #
straight-curve $-1 -76.14734336375011 0 -11.525074368650461 0 1 0 I I #
point $-1 -76.14734336375011 38.320237834739032 -11.525074368650461 #
straight-curve $-1 -76.14734336375011 -16.772611495739053 5.6479174924399764 0 -1 0 I I #
point $-1 -76.14734336375011 -38.320237834739032 5.6479174924399764 #
point $-1 -76.14734336375011 -28.770208148217179 5.6479174924399764 #
straight-curve $-1 -76.14734336375011 -28.770208148217179 3.5739587462199882 0 0 -1 I I #
straight-curve $-1 -76.14734336375011 -38.320237834739032 0 0 0 -1 I I #
straight-curve $-1 56.773603325208043 12.95759367880693 11.525074368650465 -1 0 0 I I #
point $-1 76.14734336375011 12.95759367880693 11.525074368650461 #
straight-curve $-1 70.132149047874805 2.5351574843626494 11.525074368650465 0 -1 0 I I #
point $-1 70.13214904787479 12.95759367880693 11.525074368650465 #
point $-1 70.599592365221909 0.33794774267632022 5.4511455391069656 #
point $-1 70.599592365221909 5.0703149687252989 5.4511455391069656 #
point $-1 70.599592365221909 9.8026821947742775 5.4511455391069656 #
straight-curve $-1 -94.662176507087494 -28.770208148217179 11.525074368650465 1 0 0 I I #
straight-curve $-1 -76.14734336375011 -28.770208148217179 54.131435797093054 0 0 1 I I #
point $-1 -71.494741982633656 -28.770208148217179 11.525074368650461 #
straight-curve $-1 -71.494741982633656 -9.8893562331122666 11.525074368650463 0 1 0 I I #
point $-1 -76.14734336375011 -28.770208148217179 11.525074368650461 #
point $-1 -71.178974207702041 -23.632210615649953 6.5625265717274486 #
point $-1 -71.178974207702041 -15.925214316799114 6.5625265717274486 #
End-of-ACIS-data 