500 0 10 0           
7 Unknown 11 ACIS 5.0 NT 24 Thu Mar 25 21:45:02 1999 
-1 9.9999999999999995e-007 1e-010 
body $-1 $10 $-1 $11 #
body $-1 $12 $-1 $13 #
body $-1 $14 $-1 $15 #
body $-1 $16 $-1 $17 #
body $-1 $18 $-1 $19 #
body $-1 $20 $-1 $21 #
body $-1 $22 $-1 $23 #
body $-1 $24 $-1 $25 #
body $-1 $26 $-1 $27 #
body $-1 $28 $-1 $29 #
lump $-1 $-1 $30 $0 #
transform $-1 1 0 0 0 1 0 0 0 1 41.403851435895874 22.251079496457059 5.1962419601089342 1 rotate no_reflect no_shear #
lump $-1 $-1 $31 $1 #
transform $-1 1 0 0 0 1 0 0 0 1 41.403851435895874 22.251079496457059 5.1962419601089342 1 rotate no_reflect no_shear #
lump $-1 $-1 $32 $2 #
transform $-1 1 0 0 0 1 0 0 0 1 41.403851435895874 22.251079496457059 5.1962419601089342 1 rotate no_reflect no_shear #
lump $-1 $-1 $33 $3 #
transform $-1 1 0 0 0 1 0 0 0 1 41.403851435895874 22.251079496457059 5.1962419601089342 1 rotate no_reflect no_shear #
lump $-1 $-1 $34 $4 #
transform $-1 1 0 0 0 1 0 0 0 1 41.403851435895874 22.251079496457059 5.1962419601089342 1 rotate no_reflect no_shear #
lump $-1 $-1 $35 $5 #
transform $-1 1 0 0 0 1 0 0 0 1 41.403851435895874 22.251079496457059 5.1962419601089342 1 rotate no_reflect no_shear #
lump $-1 $-1 $36 $6 #
transform $-1 1 0 0 0 1 0 0 0 1 41.403851435895874 22.251079496457059 5.1962419601089342 1 rotate no_reflect no_shear #
lump $-1 $-1 $37 $7 #
transform $-1 1 0 0 0 1 0 0 0 1 41.403851435895874 22.251079496457059 5.1962419601089342 1 rotate no_reflect no_shear #
lump $-1 $-1 $38 $8 #
transform $-1 1 0 0 0 1 0 0 0 1 41.403851435895874 22.251079496457059 5.1962419601089342 1 rotate no_reflect no_shear #
lump $-1 $-1 $39 $9 #
transform $-1 1 0 0 0 1 0 0 0 1 41.403851435895874 22.251079496457059 5.1962419601089342 1 rotate no_reflect no_shear #
shell $-1 $-1 $-1 $40 $-1 $10 #
shell $-1 $-1 $-1 $41 $-1 $12 #
shell $-1 $-1 $-1 $42 $-1 $14 #
shell $-1 $-1 $-1 $43 $-1 $16 #
shell $-1 $-1 $-1 $44 $-1 $18 #
shell $-1 $-1 $-1 $45 $-1 $20 #
shell $-1 $-1 $-1 $46 $-1 $22 #
shell $-1 $-1 $-1 $47 $-1 $24 #
shell $-1 $-1 $-1 $48 $-1 $26 #
shell $-1 $-1 $-1 $49 $-1 $28 #
face $-1 $50 $51 $30 $-1 $52 forward single #
face $-1 $53 $54 $31 $-1 $55 forward single #
face $-1 $56 $57 $32 $-1 $58 forward single #
face $-1 $59 $60 $33 $-1 $61 reversed single #
face $-1 $62 $63 $34 $-1 $64 forward single #
face $-1 $65 $66 $35 $-1 $67 forward single #
face $-1 $68 $69 $36 $-1 $70 forward single #
face $-1 $71 $72 $37 $-1 $73 reversed single #
face $-1 $74 $75 $38 $-1 $76 forward single #
face $-1 $77 $78 $39 $-1 $79 forward single #
face $-1 $80 $81 $30 $-1 $82 reversed single #
loop $-1 $-1 $83 $40 #
plane-surface $-1 0 0 5.1962419601089342 0 0 1 1 0 0 forward_v I I I I #
face $-1 $84 $85 $31 $-1 $86 reversed single #
loop $-1 $-1 $87 $41 #
plane-surface $-1 -38.852513601709255 0 2.5367796824659328 0 0 1 1 0 0 forward_v I I I I #
face $-1 $88 $89 $32 $-1 $90 reversed single #
loop $-1 $-1 $91 $42 #
plane-surface $-1 38.852513601709248 0 2.5367796824659328 0 0 1 1 0 0 forward_v I I I I #
face $-1 $92 $93 $33 $-1 $94 reversed single #
loop $-1 $-1 $95 $43 #
plane-surface $-1 30.478386079222773 -12.817100080235093 27.957597433631278 0 0.61566148304635926 0.78801074757464917 1 0 0 forward_v I I I I #
face $-1 $96 $97 $34 $-1 $98 forward single #
loop $-1 $99 $100 $44 #
cone-surface $-1 26.984712266242838 18.975761910264296 2.48378172091159 0 -0.61566148304635926 -0.78801074757464917 0.25 0 0 1 I I 0 1 0.25 forward I I I I #
face $-1 $101 $102 $35 $-1 $103 forward single #
loop $-1 $104 $105 $45 #
cone-surface $-1 30.478386079222773 18.975761910264296 2.48378172091159 0 -0.61566148304635926 -0.78801074757464917 0.25 0 0 1 I I 0 1 0.25 forward I I I I #
face $-1 $106 $107 $36 $-1 $108 forward single #
loop $-1 $109 $110 $46 #
cone-surface $-1 33.972059892202708 18.975761910264296 2.48378172091159 0 -0.61566148304635926 -0.78801074757464917 0.25 0 0 1 I I 0 1 0.25 forward I I I I #
face $-1 $111 $112 $37 $-1 $113 reversed single #
loop $-1 $-1 $114 $47 #
plane-surface $-1 6.443755772170892 -91.699463357018175 46.821199711003246 1 0 0 0 0.83867057594974714 -0.54463902268945019 forward_v I I I I #
face $-1 $115 $116 $38 $-1 $117 forward single #
loop $-1 $118 $119 $48 #
cone-surface $-1 9.6723065579665075 -20.366429877778941 2.9674916443523887 0 0.83867057594974714 -0.54463902268945019 1 0 0 1 I I 0 1 1 forward I I I I #
face $-1 $120 $121 $39 $-1 $122 forward single #
loop $-1 $123 $124 $49 #
cone-surface $-1 14.515132736659936 -20.366429877778941 2.9674916443523887 0 0.83867057594974714 -0.54463902268945019 1 0 0 1 I I 0 1 1 forward I I I I #
face $-1 $125 $126 $30 $-1 $127 reversed single #
loop $-1 $-1 $128 $50 #
plane-surface $-1 0 0 -5.1962419601089342 0 0 1 1 0 0 forward_v I I I I #
coedge $-1 $129 $130 $131 $132 forward $51 $-1 #
face $-1 $133 $134 $31 $-1 $135 reversed single #
loop $-1 $-1 $136 $53 #
plane-surface $-1 -38.852513601709255 0 -0.46322031753406723 0 0 1 1 0 0 forward_v I I I I #
coedge $-1 $137 $138 $139 $140 forward $54 $-1 #
face $-1 $141 $142 $32 $-1 $143 reversed single #
loop $-1 $-1 $144 $56 #
plane-surface $-1 38.852513601709248 0 -0.46322031753406723 0 0 1 1 0 0 forward_v I I I I #
coedge $-1 $145 $146 $147 $148 reversed $57 $-1 #
face $-1 $149 $150 $33 $-1 $151 forward single #
loop $-1 $-1 $152 $59 #
plane-surface $-1 24.655596390922888 38.164413077474478 93.210957278571314 1 0 0 0 -0.61566148304635926 -0.78801074757464917 forward_v I I I I #
coedge $-1 $153 $154 $155 $156 reversed $60 $-1 #
face $-1 $-1 $157 $34 $-1 $158 forward single #
loop $-1 $159 $160 $62 #
cone-surface $-1 26.984712266242838 18.590973483360322 1.9912750036774343 0 -0.61566148304635926 -0.78801074757464917 0.125 0 0 1 I I -0.70710678118654746 0.70710678118654746 0.125 forward I I I I #
loop $-1 $-1 $161 $44 #
coedge $-1 $100 $100 $162 $163 reversed $63 $-1 #
face $-1 $-1 $164 $35 $-1 $165 forward single #
loop $-1 $166 $167 $65 #
cone-surface $-1 30.478386079222773 18.590973483360322 1.9912750036774343 0 -0.61566148304635926 -0.78801074757464917 0.125 0 0 1 I I -0.70710678118654746 0.70710678118654746 0.125 forward I I I I #
loop $-1 $-1 $168 $45 #
coedge $-1 $105 $105 $169 $170 reversed $66 $-1 #
face $-1 $-1 $171 $36 $-1 $172 forward single #
loop $-1 $173 $174 $68 #
cone-surface $-1 33.972059892202708 18.590973483360322 1.9912750036774343 0 -0.61566148304635926 -0.78801074757464917 0.125 0 0 1 I I -0.70710678118654746 0.70710678118654746 0.125 forward I I I I #
loop $-1 $-1 $175 $46 #
coedge $-1 $110 $110 $176 $177 reversed $69 $-1 #
face $-1 $178 $179 $37 $-1 $180 reversed single #
loop $-1 $-1 $181 $71 #
plane-surface $-1 12.093719647313222 -22.251079496457066 1.7208933477522095 0 -0.83867057594974714 0.54463902268945019 1 0 0 forward_v I I I I #
coedge $-1 $182 $183 $184 $185 reversed $72 $-1 #
face $-1 $-1 $186 $38 $-1 $187 forward single #
loop $-1 $188 $189 $74 #
cone-surface $-1 9.6723065579665075 -19.190903823754464 2.2040961234294763 0 0.83867057594974714 -0.54463902268945019 0.5 0 0 1 I I -0.70710678118654746 0.70710678118654746 0.5 forward I I I I #
loop $-1 $-1 $190 $48 #
coedge $-1 $119 $119 $191 $192 reversed $75 $-1 #
face $-1 $-1 $193 $39 $-1 $194 forward single #
loop $-1 $195 $196 $77 #
cone-surface $-1 14.515132736659936 -19.190903823754464 2.2040961234294763 0 0.83867057594974714 -0.54463902268945019 0.5 0 0 1 I I -0.70710678118654746 0.70710678118654746 0.5 forward I I I I #
loop $-1 $-1 $197 $49 #
coedge $-1 $124 $124 $198 $199 reversed $78 $-1 #
face $-1 $200 $201 $30 $-1 $202 reversed single #
loop $-1 $-1 $203 $80 #
plane-surface $-1 0 -22.251079496457059 0 0 1 0 0 0 1 forward_v I I I I #
coedge $-1 $204 $205 $206 $207 forward $81 $-1 #
coedge $-1 $208 $83 $209 $210 forward $51 $-1 #
coedge $-1 $83 $208 $211 $212 forward $51 $-1 #
coedge $-1 $213 $214 $83 $132 reversed $215 $-1 #
edge $-1 $216 -22.251079496457059 $217 22.251079496457059 $131 $218 forward 7 unknown #
face $-1 $219 $220 $31 $-1 $221 reversed single #
loop $-1 $-1 $222 $84 #
plane-surface $-1 -36.301175767522636 0 1.0367796824659328 -1 0 0 0 0 1 forward_v I I I I #
coedge $-1 $223 $224 $225 $226 forward $85 $-1 #
coedge $-1 $227 $87 $228 $229 reversed $54 $-1 #
coedge $-1 $87 $227 $230 $231 reversed $54 $-1 #
coedge $-1 $222 $232 $87 $140 reversed $134 $-1 #
edge $-1 $233 -22.251079496457059 $234 22.251079496457059 $139 $235 forward 7 unknown #
face $-1 $236 $237 $32 $-1 $238 reversed single #
loop $-1 $-1 $239 $88 #
plane-surface $-1 36.301175767522629 0 1.0367796824659328 1 0 0 0 0 -1 forward_v I I I I #
coedge $-1 $240 $241 $242 $243 reversed $89 $-1 #
coedge $-1 $244 $91 $245 $246 reversed $57 $-1 #
coedge $-1 $91 $244 $247 $248 reversed $57 $-1 #
coedge $-1 $249 $250 $91 $148 forward $251 $-1 #
edge $-1 $252 -22.251079496457059 $253 22.251079496457059 $147 $254 forward 7 unknown #
face $-1 $255 $256 $33 $-1 $257 reversed single #
loop $-1 $-1 $258 $92 #
plane-surface $-1 36.301175767522629 0 1.0367796824659328 1 0 0 0 0 -1 forward_v I I I I #
coedge $-1 $259 $260 $261 $262 reversed $93 $-1 #
coedge $-1 $263 $95 $258 $264 reversed $60 $-1 #
coedge $-1 $95 $263 $259 $265 forward $60 $-1 #
coedge $-1 $261 $266 $95 $156 forward $256 $-1 #
edge $-1 $267 -21.061982727911243 $268 -9.4164033513115015 $155 $269 forward 7 unknown #
loop $-1 $-1 $162 $96 #
plane-surface $-1 30.478386079222773 -12.817100080235093 27.957597433631278 0 0.61566148304635926 0.78801074757464917 1 0 0 forward_v I I I I #
loop $-1 $-1 $270 $62 #
coedge $-1 $160 $160 $161 $271 reversed $97 $-1 #
coedge $-1 $161 $161 $160 $271 forward $99 $-1 #
coedge $-1 $162 $162 $100 $163 forward $157 $-1 #
edge $-1 $272 -4.636499330812849e-015 $272 6.283185307179596 $162 $273 forward 7 unknown #
loop $-1 $-1 $169 $101 #
plane-surface $-1 30.478386079222773 -12.817100080235093 27.957597433631278 0 0.61566148304635926 0.78801074757464917 1 0 0 forward_v I I I I #
loop $-1 $-1 $274 $65 #
coedge $-1 $167 $167 $168 $275 reversed $102 $-1 #
coedge $-1 $168 $168 $167 $275 forward $104 $-1 #
coedge $-1 $169 $169 $105 $170 forward $164 $-1 #
edge $-1 $276 -4.636499330812849e-015 $276 6.283185307179596 $169 $277 forward 7 unknown #
loop $-1 $-1 $176 $106 #
plane-surface $-1 30.478386079222773 -12.817100080235093 27.957597433631278 0 0.61566148304635926 0.78801074757464917 1 0 0 forward_v I I I I #
loop $-1 $-1 $278 $68 #
coedge $-1 $174 $174 $175 $279 reversed $107 $-1 #
coedge $-1 $175 $175 $174 $279 forward $109 $-1 #
coedge $-1 $176 $176 $110 $177 forward $171 $-1 #
edge $-1 $280 -4.636499330812849e-015 $280 6.283185307179596 $176 $281 forward 7 unknown #
face $-1 $282 $283 $37 $-1 $284 forward single #
loop $-1 $-1 $285 $111 #
plane-surface $-1 17.743683522455552 -91.699463357018175 46.821199711003246 -1 0 0 0 -0.83867057594974714 0.54463902268945019 forward_v I I I I #
coedge $-1 $286 $287 $288 $289 reversed $112 $-1 #
coedge $-1 $183 $114 $290 $291 reversed $72 $-1 #
coedge $-1 $114 $182 $286 $292 reversed $72 $-1 #
coedge $-1 $288 $293 $114 $185 forward $294 $-1 #
edge $-1 $295 18.214357895392688 $296 21.689706507749403 $184 $297 forward 7 unknown #
loop $-1 $-1 $191 $115 #
plane-surface $-1 12.093719647313222 -22.251079496457066 1.7208933477522095 0 -0.83867057594974714 0.54463902268945019 1 0 0 forward_v I I I I #
loop $-1 $-1 $298 $74 #
coedge $-1 $189 $189 $190 $299 reversed $116 $-1 #
coedge $-1 $190 $190 $189 $299 forward $118 $-1 #
coedge $-1 $191 $191 $119 $192 forward $186 $-1 #
edge $-1 $300 1.562501952519326e-015 $300 6.2831853071796022 $191 $301 forward 7 unknown #
loop $-1 $-1 $198 $120 #
plane-surface $-1 12.093719647313222 -22.251079496457066 1.7208933477522095 0 -0.83867057594974714 0.54463902268945019 1 0 0 forward_v I I I I #
loop $-1 $-1 $302 $77 #
coedge $-1 $196 $196 $197 $303 reversed $121 $-1 #
coedge $-1 $197 $197 $196 $303 forward $123 $-1 #
coedge $-1 $198 $198 $124 $199 forward $193 $-1 #
edge $-1 $304 1.562501952519326e-015 $304 6.2831853071796022 $198 $305 forward 7 unknown #
face $-1 $306 $307 $30 $-1 $308 reversed single #
loop $-1 $-1 $309 $125 #
plane-surface $-1 -41.403851435895874 0 0 1 0 0 0 0 -1 forward_v I I I I #
coedge $-1 $310 $211 $311 $312 forward $126 $-1 #
coedge $-1 $313 $128 $310 $314 forward $81 $-1 #
coedge $-1 $128 $313 $315 $316 forward $81 $-1 #
coedge $-1 $214 $213 $128 $207 reversed $215 $-1 #
edge $-1 $317 -22.251079496457059 $318 22.251079496457059 $206 $319 forward 7 unknown #
coedge $-1 $130 $129 $320 $321 forward $51 $-1 #
coedge $-1 $322 $323 $129 $210 reversed $307 $-1 #
edge $-1 $217 -41.403851435895874 $324 41.403851435895874 $209 $325 forward 7 unknown #
coedge $-1 $203 $326 $130 $212 reversed $126 $-1 #
edge $-1 $327 -41.403851435895874 $216 41.403851435895874 $211 $328 forward 7 unknown #
coedge $-1 $206 $131 $326 $329 forward $215 $-1 #
coedge $-1 $131 $206 $322 $330 reversed $215 $-1 #
loop $-1 $-1 $213 $306 #
vertex $-1 $132 $331 #
vertex $-1 $132 $332 #
straight-curve $-1 41.403851435895874 0 5.1962419601089342 0 1 0 I I #
face $-1 $333 $334 $31 $-1 $335 reversed single #
loop $-1 $-1 $336 $133 #
plane-surface $-1 0 -22.251079496457059 0 0 1 0 0 0 1 forward_v I I I I #
coedge $-1 $225 $139 $337 $338 reversed $134 $-1 #
coedge $-1 $339 $136 $336 $340 reversed $85 $-1 #
coedge $-1 $136 $339 $341 $342 reversed $85 $-1 #
coedge $-1 $232 $222 $136 $226 reversed $134 $-1 #
edge $-1 $343 -22.251079496457059 $344 22.251079496457059 $225 $345 forward 7 unknown #
coedge $-1 $138 $137 $346 $347 reversed $54 $-1 #
coedge $-1 $348 $349 $137 $229 forward $350 $-1 #
edge $-1 $351 -21.977594635041246 $234 -16.874918966668009 $228 $352 forward 7 unknown #
coedge $-1 $353 $337 $138 $231 forward $220 $-1 #
edge $-1 $233 16.874918966668009 $354 21.977594635041246 $230 $355 forward 7 unknown #
coedge $-1 $139 $225 $348 $356 reversed $134 $-1 #
vertex $-1 $231 $357 #
vertex $-1 $229 $358 #
straight-curve $-1 -36.301175767522636 0 2.5367796824659328 0 1 0 I I #
face $-1 $359 $360 $32 $-1 $361 reversed single #
loop $-1 $-1 $247 $141 #
plane-surface $-1 0 -22.251079496457059 0 0 1 0 0 0 1 forward_v I I I I #
coedge $-1 $362 $363 $364 $365 reversed $142 $-1 #
coedge $-1 $366 $144 $367 $368 reversed $89 $-1 #
coedge $-1 $144 $366 $369 $370 reversed $89 $-1 #
coedge $-1 $250 $249 $144 $243 forward $251 $-1 #
edge $-1 $371 -22.251079496457059 $372 22.251079496457059 $242 $373 forward 7 unknown #
coedge $-1 $146 $145 $363 $374 forward $57 $-1 #
coedge $-1 $375 $364 $145 $246 forward $360 $-1 #
edge $-1 $376 16.874918966668005 $252 21.977594635041243 $245 $377 forward 7 unknown #
coedge $-1 $378 $379 $146 $248 forward $237 $-1 #
edge $-1 $253 -21.977594635041243 $380 -16.874918966668005 $247 $381 forward 7 unknown #
coedge $-1 $242 $147 $379 $382 forward $251 $-1 #
coedge $-1 $147 $242 $375 $383 reversed $251 $-1 #
loop $-1 $-1 $147 $359 #
vertex $-1 $383 $384 #
vertex $-1 $382 $385 #
straight-curve $-1 41.403851435895874 0 2.5367796824659328 0 -1 0 I I #
face $-1 $-1 $386 $33 $-1 $387 forward single #
loop $-1 $-1 $266 $149 #
plane-surface $-1 0 22.251079496457059 0 0 -1 0 0 0 -1 forward_v I I I I #
coedge $-1 $388 $389 $153 $264 forward $150 $-1 #
coedge $-1 $260 $152 $154 $265 reversed $93 $-1 #
coedge $-1 $152 $259 $390 $391 reversed $93 $-1 #
coedge $-1 $392 $155 $152 $262 forward $256 $-1 #
edge $-1 $268 -46.046146409996759 $393 -41.409236679176722 $261 $394 forward 7 unknown #
coedge $-1 $154 $153 $395 $396 reversed $60 $-1 #
edge $-1 $397 23.633507618779163 $267 31.165097394179938 $258 $398 forward 7 unknown #
edge $-1 $399 36.970569217513344 $268 44.502158992914119 $259 $400 forward 7 unknown #
coedge $-1 $155 $392 $388 $401 forward $256 $-1 #
vertex $-1 $264 $402 #
vertex $-1 $156 $403 #
straight-curve $-1 15.239193039611386 22.251079496457059 0.55933222928889847 -1 0 0 I I #
coedge $-1 $270 $270 $-1 $404 reversed $159 $-1 #
edge $-1 $405 0 $405 6.2831853071796004 $160 $406 forward 7 unknown #
vertex $-1 $163 $407 #
ellipse-curve $-1 26.984712266242838 19.28359265178748 2.8777870946989172 0 0.61566148304635926 0.78801074757464917 0.25 0 0 1 I I #
coedge $-1 $274 $274 $-1 $408 reversed $166 $-1 #
edge $-1 $409 0 $409 6.2831853071796004 $167 $410 forward 7 unknown #
vertex $-1 $170 $411 #
ellipse-curve $-1 30.478386079222773 19.28359265178748 2.8777870946989172 0 0.61566148304635926 0.78801074757464917 0.25 0 0 1 I I #
coedge $-1 $278 $278 $-1 $412 reversed $173 $-1 #
edge $-1 $413 0 $413 6.2831853071796004 $174 $414 forward 7 unknown #
vertex $-1 $177 $415 #
ellipse-curve $-1 33.972059892202708 19.28359265178748 2.8777870946989172 0 0.61566148304635926 0.78801074757464917 0.25 0 0 1 I I #
face $-1 $-1 $294 $37 $-1 $416 reversed single #
loop $-1 $-1 $417 $178 #
plane-surface $-1 0 0 5.1962419601089342 0 0 1 1 0 0 forward_v I I I I #
coedge $-1 $418 $419 $420 $421 reversed $179 $-1 #
coedge $-1 $422 $181 $183 $292 forward $112 $-1 #
coedge $-1 $181 $422 $418 $423 forward $112 $-1 #
coedge $-1 $420 $184 $181 $289 forward $294 $-1 #
edge $-1 $296 0.39689594851428112 $424 11.696823698798941 $288 $425 forward 7 unknown #
coedge $-1 $426 $427 $182 $291 forward $283 $-1 #
edge $-1 $428 -25.855569887309059 $295 -23.598652182052028 $290 $429 forward 7 unknown #
edge $-1 $296 1.2994784570086186e-014 $428 4.1438780756330775 $183 $430 forward 7 unknown #
coedge $-1 $184 $420 $426 $431 reversed $294 $-1 #
loop $-1 $-1 $420 $282 #
vertex $-1 $431 $432 #
vertex $-1 $185 $433 #
straight-curve $-1 6.443755772170892 -22.251079496457059 23.410599855501623 0 0 -1 I I #
coedge $-1 $298 $298 $-1 $434 reversed $188 $-1 #
edge $-1 $435 0 $435 6.2831853071796004 $189 $436 forward 7 unknown #
vertex $-1 $192 $437 #
ellipse-curve $-1 9.6723065579665075 -21.122620643828544 3.4585676539305763 0 -0.83867057594974714 0.54463902268945019 1 0 0 1 I I #
coedge $-1 $302 $302 $-1 $438 reversed $195 $-1 #
edge $-1 $439 0 $439 6.2831853071796004 $196 $440 forward 7 unknown #
vertex $-1 $199 $441 #
ellipse-curve $-1 14.515132736659936 -21.122620643828544 3.4585676539305763 0 -0.83867057594974714 0.54463902268945019 1 0 0 1 I I #
face $-1 $-1 $215 $30 $-1 $442 reversed single #
loop $-1 $-1 $322 $200 #
plane-surface $-1 0 22.251079496457059 0 0 -1 0 0 0 -1 forward_v I I I I #
coedge $-1 $443 $320 $323 $444 forward $201 $-1 #
coedge $-1 $326 $203 $204 $314 reversed $126 $-1 #
coedge $-1 $320 $443 $203 $312 reversed $201 $-1 #
edge $-1 $327 -5.1962419601089342 $445 5.1962419601089342 $311 $446 forward 7 unknown #
coedge $-1 $205 $204 $443 $447 forward $81 $-1 #
edge $-1 $318 -41.403851435895874 $445 41.403851435895874 $310 $448 forward 7 unknown #
coedge $-1 $323 $322 $205 $316 reversed $307 $-1 #
edge $-1 $449 -41.403851435895874 $317 41.403851435895874 $315 $450 forward 7 unknown #
vertex $-1 $207 $451 #
vertex $-1 $329 $452 #
straight-curve $-1 41.403851435895874 0 -5.1962419601089342 0 -1 0 I I #
coedge $-1 $309 $311 $208 $321 reversed $201 $-1 #
edge $-1 $324 -22.251079496457059 $327 22.251079496457059 $320 $453 forward 7 unknown #
coedge $-1 $315 $209 $214 $330 forward $307 $-1 #
coedge $-1 $209 $315 $309 $444 reversed $307 $-1 #
vertex $-1 $210 $454 #
straight-curve $-1 0 22.251079496457059 5.1962419601089342 -1 0 0 I I #
coedge $-1 $211 $310 $213 $329 reversed $126 $-1 #
vertex $-1 $321 $455 #
straight-curve $-1 0 -22.251079496457059 5.1962419601089342 1 0 0 I I #
edge $-1 $216 -5.1962419601089342 $318 5.1962419601089342 $213 $456 forward 7 unknown #
edge $-1 $217 -5.1962419601089342 $317 5.1962419601089342 $214 $457 forward 7 unknown #
point $-1 41.403851435895874 -22.251079496457059 5.1962419601089342 #
point $-1 41.403851435895874 22.251079496457059 5.1962419601089342 #
face $-1 $-1 $350 $31 $-1 $458 reversed single #
loop $-1 $-1 $459 $219 #
plane-surface $-1 -41.403851435895874 0 0 1 0 0 0 0 -1 forward_v I I I I #
coedge $-1 $337 $353 $223 $340 forward $220 $-1 #
coedge $-1 $230 $336 $222 $338 forward $220 $-1 #
edge $-1 $344 -0.98161015876703361 $233 2.0183898412329664 $337 $460 forward 7 unknown #
coedge $-1 $224 $223 $459 $461 reversed $85 $-1 #
edge $-1 $462 -21.977594635041246 $344 -16.874918966668009 $336 $463 forward 7 unknown #
coedge $-1 $349 $348 $224 $342 forward $350 $-1 #
edge $-1 $343 16.874918966668009 $464 21.977594635041246 $341 $465 forward 7 unknown #
vertex $-1 $342 $466 #
vertex $-1 $340 $467 #
straight-curve $-1 -36.301175767522636 0 -0.46322031753406723 0 -1 0 I I #
coedge $-1 $468 $469 $227 $347 forward $334 $-1 #
edge $-1 $354 -22.251079496457059 $351 22.251079496457059 $346 $470 forward 7 unknown #
coedge $-1 $341 $228 $232 $356 forward $350 $-1 #
coedge $-1 $228 $341 $468 $471 reversed $350 $-1 #
loop $-1 $-1 $341 $333 #
vertex $-1 $471 $472 #
straight-curve $-1 -19.426256800854627 22.251079496457059 2.5367796824659328 1 0 0 I I #
coedge $-1 $336 $230 $469 $473 forward $220 $-1 #
vertex $-1 $473 $474 #
straight-curve $-1 -19.426256800854627 -22.251079496457059 2.5367796824659328 -1 0 0 I I #
edge $-1 $234 -2.0183898412329664 $343 0.98161015876703361 $348 $475 forward 7 unknown #
point $-1 -36.301175767522636 -22.251079496457059 2.5367796824659328 #
point $-1 -36.301175767522636 22.251079496457059 2.5367796824659328 #
face $-1 $-1 $251 $32 $-1 $476 reversed single #
loop $-1 $-1 $245 $236 #
plane-surface $-1 0 22.251079496457059 0 0 -1 0 0 0 -1 forward_v I I I I #
coedge $-1 $477 $239 $366 $478 reversed $142 $-1 #
coedge $-1 $239 $477 $244 $374 reversed $142 $-1 #
coedge $-1 $245 $369 $239 $365 forward $360 $-1 #
edge $-1 $479 -0.98161015876703361 $376 2.0183898412329664 $364 $480 forward 7 unknown #
coedge $-1 $241 $240 $362 $478 forward $89 $-1 #
coedge $-1 $379 $378 $240 $368 forward $237 $-1 #
edge $-1 $481 16.874918966668005 $371 21.977594635041243 $367 $482 forward 7 unknown #
coedge $-1 $364 $375 $241 $370 forward $360 $-1 #
edge $-1 $372 -21.977594635041243 $479 -16.874918966668005 $369 $483 forward 7 unknown #
vertex $-1 $243 $484 #
vertex $-1 $243 $485 #
straight-curve $-1 41.403851435895874 0 -0.46322031753406723 0 1 0 I I #
edge $-1 $376 -22.251079496457059 $380 22.251079496457059 $363 $486 forward 7 unknown #
coedge $-1 $369 $245 $250 $383 forward $360 $-1 #
vertex $-1 $246 $487 #
straight-curve $-1 19.426256800854624 22.251079496457059 2.5367796824659328 1 0 0 I I #
coedge $-1 $367 $247 $477 $488 forward $237 $-1 #
coedge $-1 $247 $367 $249 $382 reversed $237 $-1 #
vertex $-1 $248 $489 #
straight-curve $-1 19.426256800854624 -22.251079496457059 2.5367796824659328 -1 0 0 I I #
edge $-1 $253 -2.5367796824659328 $371 0.46322031753406723 $249 $490 forward 7 unknown #
edge $-1 $252 -2.5367796824659328 $372 0.46322031753406723 $250 $491 forward 7 unknown #
point $-1 41.403851435895866 22.251079496457059 2.5367796824659328 #
point $-1 41.403851435895866 -22.251079496457059 2.5367796824659328 #
loop $-1 $-1 $492 $255 #
plane-surface $-1 0 0 5.1962419601089342 0 0 1 1 0 0 forward_v I I I I #
coedge $-1 $389 $258 $266 $401 reversed $150 $-1 #
coedge $-1 $258 $388 $492 $493 reversed $150 $-1 #
coedge $-1 $395 $494 $260 $391 forward $386 $-1 #
edge $-1 $393 -3.1688729577198202 $399 2.7661007316193285 $390 $495 forward 7 unknown #
coedge $-1 $266 $261 $494 $496 reversed $256 $-1 #
vertex $-1 $391 $497 #
straight-curve $-1 24.655596390922888 22.251079496457059 46.605478639285657 0 0 1 I I #
coedge $-1 $492 $390 $263 $396 forward $386 $-1 #
edge $-1 $399 9.4164033513115015 $397 21.061982727911271 $395 $498 forward 7 unknown #
vertex $-1 $493 $499 #
straight-curve $-1 36.301175767522629 -2.3073521993674255 19.746482310273944 0 0.78801074757464917 -0.61566148304635926 I I #
vertex $-1 $396 $500 #
straight-curve $-1 24.655596390922888 -12.817100080235093 27.957597433631278 0 0.78801074757464917 -0.61566148304635926 I I #
edge $-1 $501 41.409236679176722 $267 46.046146409996759 $266 $502 forward 7 unknown #
point $-1 36.301175767522629 22.251079496457059 0.5593322292888957 #
point $-1 24.655596390922888 22.251079496457059 0.55933222928889847 #
edge $-1 $503 1 $503 0 $270 $-1 forward 7 unknown #
vertex $-1 $271 $504 #
ellipse-curve $-1 26.984712266242838 18.667931168741116 2.0897763471242654 0 0.61566148304635926 0.78801074757464917 0.25 0 0 1 I I #
point $-1 27.234712266242838 19.283592651787476 2.8777870946989146 #
edge $-1 $505 1 $505 0 $274 $-1 forward 7 unknown #
vertex $-1 $275 $506 #
ellipse-curve $-1 30.478386079222773 18.667931168741116 2.0897763471242654 0 0.61566148304635926 0.78801074757464917 0.25 0 0 1 I I #
point $-1 30.728386079222773 19.283592651787476 2.8777870946989146 #
edge $-1 $507 1 $507 0 $278 $-1 forward 7 unknown #
vertex $-1 $279 $508 #
ellipse-curve $-1 33.972059892202708 18.667931168741116 2.0897763471242654 0 0.61566148304635926 0.78801074757464917 0.25 0 0 1 I I #
point $-1 34.222059892202708 19.283592651787476 2.8777870946989146 #
plane-surface $-1 0 -22.251079496457059 0 0 1 0 0 0 1 forward_v I I I I #
coedge $-1 $427 $426 $419 $509 forward $283 $-1 #
coedge $-1 $419 $285 $287 $423 reversed $179 $-1 #
coedge $-1 $285 $418 $417 $509 reversed $179 $-1 #
coedge $-1 $293 $288 $285 $421 forward $294 $-1 #
edge $-1 $424 -21.689706507749403 $510 -18.214357895392688 $420 $511 forward 7 unknown #
coedge $-1 $287 $286 $427 $512 reversed $112 $-1 #
edge $-1 $513 -4.1438780756330775 $424 -1.2994784570086186e-014 $418 $514 forward 7 unknown #
vertex $-1 $289 $515 #
straight-curve $-1 6.0468598236566109 -22.251079496457059 1.7208933477522215 1 0 0 I I #
coedge $-1 $417 $290 $293 $431 forward $283 $-1 #
coedge $-1 $290 $417 $422 $512 forward $283 $-1 #
vertex $-1 $291 $516 #
straight-curve $-1 6.443755772170892 -45.849731678509087 5.1962419601089351 0 -1 0 I I #
straight-curve $-1 6.443755772170892 -22.251079496457066 1.7208933477522095 0 0.54463902268945019 0.83867057594974714 I I #
edge $-1 $295 6.443755772170892 $510 17.743683522455552 $293 $517 forward 7 unknown #
point $-1 6.443755772170892 -22.251079496457059 5.1962419601089342 #
point $-1 6.443755772170892 -22.251079496457059 1.7208933477522204 #
edge $-1 $518 1 $518 0 $298 $-1 forward 7 unknown #
vertex $-1 $299 $519 #
ellipse-curve $-1 9.6723065579665075 -19.610239111729339 2.4764156347742015 0 -0.83867057594974714 0.54463902268945019 1 0 0 1 I I #
point $-1 10.672306557966508 -21.12262064382854 3.4585676539305759 #
edge $-1 $520 1 $520 0 $302 $-1 forward 7 unknown #
vertex $-1 $303 $521 #
ellipse-curve $-1 14.515132736659936 -19.610239111729339 2.4764156347742015 0 -0.83867057594974714 0.54463902268945019 1 0 0 1 I I #
point $-1 15.515132736659936 -21.12262064382854 3.4585676539305759 #
plane-surface $-1 41.403851435895874 0 0 -1 0 0 0 0 1 forward_v I I I I #
coedge $-1 $311 $309 $313 $447 reversed $201 $-1 #
edge $-1 $324 -5.1962419601089342 $449 5.1962419601089342 $323 $522 forward 7 unknown #
vertex $-1 $447 $523 #
straight-curve $-1 -41.403851435895874 -22.251079496457059 0 0 0 -1 I I #
edge $-1 $445 -22.251079496457059 $449 22.251079496457059 $443 $524 forward 7 unknown #
straight-curve $-1 0 -22.251079496457059 -5.1962419601089342 -1 0 0 I I #
vertex $-1 $316 $525 #
straight-curve $-1 0 22.251079496457059 -5.1962419601089342 1 0 0 I I #
point $-1 41.403851435895874 22.251079496457059 -5.1962419601089342 #
point $-1 41.403851435895874 -22.251079496457059 -5.1962419601089342 #
straight-curve $-1 -41.403851435895874 0 5.1962419601089342 0 -1 0 I I #
point $-1 -41.403851435895874 22.251079496457059 5.1962419601089342 #
point $-1 -41.403851435895874 -22.251079496457059 5.1962419601089342 #
straight-curve $-1 41.403851435895874 -22.251079496457059 0 0 0 -1 I I #
straight-curve $-1 41.403851435895874 22.251079496457059 0 0 0 -1 I I #
plane-surface $-1 0 22.251079496457059 0 0 -1 0 0 0 -1 forward_v I I I I #
coedge $-1 $469 $468 $339 $461 forward $334 $-1 #
straight-curve $-1 -36.301175767522636 -22.251079496457059 0.51838984123296639 0 0 1 I I #
edge $-1 $464 -22.251079496457059 $462 22.251079496457059 $459 $526 forward 7 unknown #
vertex $-1 $340 $527 #
straight-curve $-1 -19.426256800854627 -22.251079496457059 -0.46322031753406723 1 0 0 I I #
vertex $-1 $342 $528 #
straight-curve $-1 -19.426256800854627 22.251079496457059 -0.46322031753406723 -1 0 0 I I #
point $-1 -36.301175767522636 22.251079496457059 -0.46322031753406723 #
point $-1 -36.301175767522636 -22.251079496457059 -0.46322031753406723 #
coedge $-1 $459 $346 $349 $471 forward $334 $-1 #
coedge $-1 $346 $459 $353 $473 reversed $334 $-1 #
straight-curve $-1 -41.403851435895874 0 2.5367796824659328 0 1 0 I I #
edge $-1 $351 -2.5367796824659328 $464 0.46322031753406723 $349 $529 forward 7 unknown #
point $-1 -41.403851435895874 22.251079496457059 2.5367796824659328 #
edge $-1 $354 -2.5367796824659328 $462 0.46322031753406723 $469 $530 forward 7 unknown #
point $-1 -41.403851435895874 -22.251079496457059 2.5367796824659328 #
straight-curve $-1 -36.301175767522636 22.251079496457059 0.51838984123296639 0 0 -1 I I #
plane-surface $-1 41.403851435895874 0 0 -1 0 0 0 0 1 forward_v I I I I #
coedge $-1 $363 $362 $378 $488 reversed $142 $-1 #
edge $-1 $481 -22.251079496457059 $479 22.251079496457059 $362 $531 forward 7 unknown #
vertex $-1 $370 $532 #
straight-curve $-1 36.301175767522629 22.251079496457059 0.51838984123296639 0 0 1 I I #
vertex $-1 $368 $533 #
straight-curve $-1 19.426256800854624 -22.251079496457059 -0.46322031753406723 1 0 0 I I #
straight-curve $-1 19.426256800854624 22.251079496457059 -0.46322031753406723 -1 0 0 I I #
point $-1 41.403851435895866 -22.251079496457059 -0.46322031753406723 #
point $-1 41.403851435895866 22.251079496457059 -0.46322031753406723 #
straight-curve $-1 36.301175767522629 0 2.5367796824659328 0 -1 0 I I #
point $-1 36.301175767522629 22.251079496457059 2.5367796824659328 #
edge $-1 $380 -2.0183898412329664 $481 0.98161015876703361 $378 $534 forward 7 unknown #
point $-1 36.301175767522629 -22.251079496457059 2.5367796824659328 #
straight-curve $-1 41.403851435895874 -22.251079496457059 0 0 0 -1 I I #
straight-curve $-1 41.403851435895874 22.251079496457059 0 0 0 -1 I I #
coedge $-1 $494 $395 $389 $493 forward $386 $-1 #
edge $-1 $397 -2.7661007316193285 $501 3.1688729577198202 $492 $535 forward 7 unknown #
coedge $-1 $390 $492 $392 $496 forward $386 $-1 #
straight-curve $-1 24.655596390922888 19.082206538737239 5.1962419601089351 0 -1 0 I I #
edge $-1 $501 -36.301175767522658 $393 -24.655596390922888 $392 $536 forward 7 unknown #
point $-1 24.655596390922888 22.251079496457059 5.1962419601089342 #
straight-curve $-1 15.239193039611386 16.316105807117911 5.1962419601089351 1 0 0 I I #
point $-1 36.301175767522658 16.316105807117911 5.1962419601089351 #
point $-1 24.655596390922888 16.316105807117911 5.1962419601089351 #
vertex $-1 $496 $537 #
straight-curve $-1 36.301175767522658 22.251079496457059 46.605478639285657 0 0 -1 I I #
vertex $-1 $404 $538 #
point $-1 27.234712266242838 18.667931168741116 2.0897763471242654 #
vertex $-1 $408 $539 #
point $-1 30.728386079222773 18.667931168741116 2.0897763471242654 #
vertex $-1 $412 $540 #
point $-1 34.222059892202708 18.667931168741116 2.0897763471242654 #
edge $-1 $510 23.598652182052028 $513 25.855569887309059 $417 $541 forward 7 unknown #
vertex $-1 $421 $542 #
straight-curve $-1 17.743683522455552 -22.251079496457059 23.410599855501623 0 0 1 I I #
edge $-1 $513 -11.696823698798941 $428 -0.39689594851428112 $427 $543 forward 7 unknown #
vertex $-1 $512 $544 #
straight-curve $-1 17.743683522455552 -22.251079496457066 1.7208933477522095 0 -0.54463902268945019 -0.83867057594974714 I I #
point $-1 17.743683522455552 -22.251079496457059 1.7208933477522204 #
point $-1 6.443755772170892 -19.994161791200028 5.1962419601089334 #
straight-curve $-1 0 -22.251079496457059 5.1962419601089342 1 0 0 I I #
vertex $-1 $434 $545 #
point $-1 10.672306557966508 -19.610239111729339 2.4764156347742015 #
vertex $-1 $438 $546 #
point $-1 15.515132736659936 -19.610239111729339 2.4764156347742015 #
straight-curve $-1 -41.403851435895874 22.251079496457059 0 0 0 -1 I I #
point $-1 -41.403851435895874 -22.251079496457059 -5.1962419601089342 #
straight-curve $-1 -41.403851435895874 0 -5.1962419601089342 0 1 0 I I #
point $-1 -41.403851435895874 22.251079496457059 -5.1962419601089342 #
straight-curve $-1 -41.403851435895874 0 -0.46322031753406723 0 -1 0 I I #
point $-1 -41.403851435895874 -22.251079496457059 -0.46322031753406723 #
point $-1 -41.403851435895874 22.251079496457059 -0.46322031753406723 #
straight-curve $-1 -41.403851435895874 22.251079496457059 0 0 0 -1 I I #
straight-curve $-1 -41.403851435895874 -22.251079496457059 0 0 0 -1 I I #
straight-curve $-1 36.301175767522629 0 -0.46322031753406723 0 1 0 I I #
point $-1 36.301175767522629 22.251079496457059 -0.46322031753406723 #
point $-1 36.301175767522629 -22.251079496457059 -0.46322031753406723 #
straight-curve $-1 36.301175767522629 -22.251079496457059 0.51838984123296639 0 0 -1 I I #
straight-curve $-1 36.301175767522658 19.082206538737239 5.1962419601089351 0 1 0 I I #
straight-curve $-1 0 22.251079496457059 5.1962419601089342 -1 0 0 I I #
point $-1 36.301175767522658 22.251079496457059 5.1962419601089342 #
point $-1 26.984712266242838 18.514015797979528 1.8927736602306031 #
point $-1 30.478386079222773 18.514015797979528 1.8927736602306031 #
point $-1 33.972059892202708 18.514015797979528 1.8927736602306031 #
straight-curve $-1 17.743683522455552 -45.849731678509087 5.1962419601089351 0 1 0 I I #
point $-1 17.743683522455552 -22.251079496457059 5.1962419601089342 #
straight-curve $-1 6.0468598236566109 -19.994161791200025 5.1962419601089342 -1 0 0 I I #
point $-1 17.743683522455552 -19.994161791200028 5.1962419601089334 #
point $-1 9.6723065579665075 -18.77156853577959 1.931776612084751 #
point $-1 14.515132736659936 -18.77156853577959 1.931776612084751 #
End-of-ACIS-data 