500 0 8 0           
7 Unknown 11 ACIS 5.0 NT 24 Fri Mar 26 17:55:37 1999 
-1 9.9999999999999995e-007 1e-010 
body $-1 $8 $-1 $9 #
body $-1 $10 $-1 $11 #
body $-1 $12 $-1 $13 #
body $-1 $14 $-1 $15 #
body $-1 $16 $-1 $17 #
body $-1 $18 $-1 $19 #
body $-1 $20 $-1 $21 #
body $-1 $22 $-1 $23 #
lump $-1 $-1 $24 $0 #
transform $-1 1 0 0 0 1 0 0 0 1 66.046937467574082 45.940183253874572 14.554991864735051 1 rotate no_reflect no_shear #
lump $-1 $-1 $25 $1 #
transform $-1 1 0 0 0 1 0 0 0 1 66.046937467574082 45.940183253874572 14.554991864735051 1 rotate no_reflect no_shear #
lump $-1 $-1 $26 $2 #
transform $-1 1 0 0 0 1 0 0 0 1 66.046937467574082 45.940183253874572 14.554991864735051 1 rotate no_reflect no_shear #
lump $-1 $-1 $27 $3 #
transform $-1 1 0 0 0 1 0 0 0 1 66.046937467574082 45.940183253874572 14.554991864735051 1 rotate no_reflect no_shear #
lump $-1 $-1 $28 $4 #
transform $-1 1 0 0 0 1 0 0 0 1 66.046937467574082 45.940183253874572 14.554991864735051 1 rotate no_reflect no_shear #
lump $-1 $-1 $29 $5 #
transform $-1 1 0 0 0 1 0 0 0 1 66.046937467574082 45.940183253874572 14.554991864735051 1 rotate no_reflect no_shear #
lump $-1 $-1 $30 $6 #
transform $-1 1 0 0 0 1 0 0 0 1 66.046937467574082 45.940183253874572 14.554991864735051 1 rotate no_reflect no_shear #
lump $-1 $-1 $31 $7 #
transform $-1 1 0 0 0 1 0 0 0 1 66.046937467574082 45.940183253874572 14.554991864735051 1 rotate no_reflect no_shear #
shell $-1 $-1 $-1 $32 $-1 $8 #
shell $-1 $-1 $-1 $33 $-1 $10 #
shell $-1 $-1 $-1 $34 $-1 $12 #
shell $-1 $-1 $-1 $35 $-1 $14 #
shell $-1 $-1 $-1 $36 $-1 $16 #
shell $-1 $-1 $-1 $37 $-1 $18 #
shell $-1 $-1 $-1 $38 $-1 $20 #
shell $-1 $-1 $-1 $39 $-1 $22 #
face $-1 $40 $41 $24 $-1 $42 forward single #
face $-1 $43 $44 $25 $-1 $45 reversed single #
face $-1 $46 $47 $26 $-1 $48 reversed single #
face $-1 $49 $50 $27 $-1 $51 forward single #
face $-1 $52 $53 $28 $-1 $54 forward single #
face $-1 $55 $56 $29 $-1 $57 reversed single #
face $-1 $58 $59 $30 $-1 $60 forward single #
face $-1 $61 $62 $31 $-1 $63 forward single #
face $-1 $64 $65 $24 $-1 $66 reversed single #
loop $-1 $-1 $67 $32 #
plane-surface $-1 0 0 14.554991864735051 0 0 1 1 0 0 forward_v I I I I #
face $-1 $68 $69 $25 $-1 $70 reversed single #
loop $-1 $-1 $71 $33 #
plane-surface $-1 0 -36.939430832071913 10.515911661297572 0 0 1 1 0 0 forward_v I I I I #
face $-1 $72 $73 $26 $-1 $74 reversed single #
loop $-1 $-1 $75 $34 #
plane-surface $-1 24.02406883204506 37.727787835263598 186.29788012384626 0 -1 0 -0.52991927123019833 0 -0.84804809178421925 forward_v I I I I #
face $-1 $76 $77 $27 $-1 $78 forward single #
loop $-1 $79 $80 $35 #
cone-surface $-1 57.557730606900044 32.076450613022438 8.9918876910273493 -0.52991927123019833 0 -0.84804809178421925 0.21201202294605481 0 -0.13247981780754958 1 I I 0 1 0.25 forward I I I I #
face $-1 $81 $82 $28 $-1 $83 forward single #
loop $-1 $84 $85 $36 #
cone-surface $-1 57.557730606900044 35.467252946367147 8.9918876910273493 -0.52991927123019833 0 -0.84804809178421925 0.21201202294605481 0 -0.13247981780754958 1 I I 0 1 0.25 forward I I I I #
face $-1 $86 $87 $29 $-1 $88 reversed single #
loop $-1 $-1 $89 $37 #
plane-surface $-1 -66.046937467574082 -19.964690065150869 6.0128838857874456 -0.82903758062907751 0 0.55919289150049634 0.55919289150049634 0 0.82903758062907751 forward_v I I I I #
face $-1 $90 $91 $30 $-1 $92 forward single #
loop $-1 $93 $94 $38 #
cone-surface $-1 -62.247598680771084 -23.382113641630177 9.6644176156326296 0.82903758062907751 0 -0.55919289150049634 0.55919289150049634 0 0.82903758062907751 1 I I 0 1 1 forward I I I I #
face $-1 $95 $96 $31 $-1 $97 forward single #
loop $-1 $98 $99 $39 #
cone-surface $-1 -62.247598680771084 -16.547266488671557 9.6644176156326296 0.82903758062907751 0 -0.55919289150049634 0.55919289150049634 0 0.82903758062907751 1 I I 0 1 1 forward I I I I #
face $-1 $100 $101 $24 $-1 $102 reversed single #
loop $-1 $-1 $103 $40 #
plane-surface $-1 0 0 -14.554991864735051 0 0 1 1 0 0 forward_v I I I I #
coedge $-1 $104 $105 $106 $107 forward $41 $-1 #
face $-1 $108 $109 $25 $-1 $110 reversed single #
loop $-1 $-1 $111 $43 #
plane-surface $-1 0 -27.938678410269254 12.535451763016312 0 -1 0 0 0 -1 forward_v I I I I #
coedge $-1 $112 $113 $114 $115 reversed $44 $-1 #
face $-1 $116 $117 $26 $-1 $118 reversed single #
loop $-1 $-1 $119 $46 #
plane-surface $-1 -45.975021107561616 33.771851779694778 74.275921548710542 0.52991927123019833 0 0.84804809178421925 0.84804809178421925 0 -0.52991927123019833 forward_v I I I I #
coedge $-1 $120 $121 $122 $123 reversed $47 $-1 #
face $-1 $-1 $124 $27 $-1 $125 forward single #
loop $-1 $126 $127 $49 #
cone-surface $-1 57.22653106238117 32.076450613022438 8.4618576336622127 -0.52991927123019833 0 -0.84804809178421925 0.10600601147302741 0 -0.066239908903774791 1 I I -0.70710678118654746 0.70710678118654746 0.125 forward I I I I #
loop $-1 $-1 $128 $35 #
coedge $-1 $80 $80 $129 $130 reversed $50 $-1 #
face $-1 $-1 $131 $28 $-1 $132 forward single #
loop $-1 $133 $134 $52 #
cone-surface $-1 57.22653106238117 35.467252946367147 8.4618576336622127 -0.52991927123019833 0 -0.84804809178421925 0.10600601147302741 0 -0.066239908903774791 1 I I -0.70710678118654746 0.70710678118654746 0.125 forward I I I I #
loop $-1 $-1 $135 $36 #
coedge $-1 $85 $85 $136 $137 reversed $53 $-1 #
face $-1 $138 $139 $29 $-1 $140 forward single #
loop $-1 $-1 $141 $55 #
plane-surface $-1 -175.55772395972926 -11.990701720032481 79.878839760277884 0 -1 0 0.82903758062907751 0 -0.55919289150049634 forward_v I I I I #
coedge $-1 $142 $143 $144 $145 reversed $56 $-1 #
face $-1 $-1 $146 $30 $-1 $147 forward single #
loop $-1 $148 $149 $58 #
cone-surface $-1 -60.914603305722004 -23.382113641630177 8.7653009102537602 0.82903758062907751 0 -0.55919289150049634 0.27959644575024817 0 0.41451879031453875 1 I I -0.70710678118654746 0.70710678118654746 0.5 forward I I I I #
loop $-1 $-1 $150 $38 #
coedge $-1 $94 $94 $151 $152 reversed $59 $-1 #
face $-1 $-1 $153 $31 $-1 $154 forward single #
loop $-1 $155 $156 $61 #
cone-surface $-1 -60.914603305722004 -16.547266488671557 8.7653009102537602 0.82903758062907751 0 -0.55919289150049634 0.27959644575024817 0 0.41451879031453875 1 I I -0.70710678118654746 0.70710678118654746 0.5 forward I I I I #
loop $-1 $-1 $157 $39 #
coedge $-1 $99 $99 $158 $159 reversed $62 $-1 #
face $-1 $160 $161 $24 $-1 $162 reversed single #
loop $-1 $-1 $163 $64 #
plane-surface $-1 0 -45.940183253874572 0 0 1 0 0 0 1 forward_v I I I I #
coedge $-1 $164 $165 $166 $167 forward $65 $-1 #
coedge $-1 $168 $67 $169 $170 forward $41 $-1 #
coedge $-1 $67 $168 $171 $172 forward $41 $-1 #
coedge $-1 $173 $174 $67 $107 reversed $175 $-1 #
edge $-1 $176 -45.940183253874572 $177 45.940183253874572 $106 $178 forward 7 unknown #
face $-1 $179 $180 $25 $-1 $181 reversed single #
loop $-1 $-1 $182 $68 #
plane-surface $-1 -66.046937467574082 0 0 1 0 0 0 0 -1 forward_v I I I I #
coedge $-1 $183 $184 $185 $186 reversed $69 $-1 #
coedge $-1 $187 $71 $188 $189 reversed $44 $-1 #
coedge $-1 $71 $187 $183 $190 forward $44 $-1 #
coedge $-1 $185 $191 $71 $115 forward $192 $-1 #
edge $-1 $193 -27.470467837838616 $194 -9.4689629942332978 $114 $195 forward 7 unknown #
face $-1 $196 $197 $26 $-1 $198 reversed single #
loop $-1 $-1 $199 $72 #
plane-surface $-1 24.02406883204506 29.815915724125958 186.29788012384626 0 1 0 0.52991927123019833 0 0.84804809178421925 forward_v I I I I #
coedge $-1 $200 $201 $202 $203 reversed $73 $-1 #
coedge $-1 $121 $75 $204 $205 reversed $47 $-1 #
coedge $-1 $75 $120 $200 $206 reversed $47 $-1 #
coedge $-1 $202 $207 $75 $123 forward $208 $-1 #
edge $-1 $209 -54.034903051551552 $210 -37.586408601433675 $122 $211 forward 7 unknown #
loop $-1 $-1 $129 $76 #
plane-surface $-1 -45.975021107561616 33.771851779694778 74.275921548710542 0.52991927123019833 0 0.84804809178421925 0.84804809178421925 0 -0.52991927123019833 forward_v I I I I #
loop $-1 $-1 $212 $49 #
coedge $-1 $127 $127 $128 $213 reversed $77 $-1 #
coedge $-1 $128 $128 $127 $213 forward $79 $-1 #
coedge $-1 $129 $129 $80 $130 forward $124 $-1 #
edge $-1 $214 0 $214 6.2831853071796004 $129 $215 forward 7 unknown #
loop $-1 $-1 $136 $81 #
plane-surface $-1 -45.975021107561616 33.771851779694778 74.275921548710542 0.52991927123019833 0 0.84804809178421925 0.84804809178421925 0 -0.52991927123019833 forward_v I I I I #
loop $-1 $-1 $216 $52 #
coedge $-1 $134 $134 $135 $217 reversed $82 $-1 #
coedge $-1 $135 $135 $134 $217 forward $84 $-1 #
coedge $-1 $136 $136 $85 $137 forward $131 $-1 #
edge $-1 $218 0 $218 6.2831853071796004 $136 $219 forward 7 unknown #
face $-1 $220 $221 $29 $-1 $222 reversed single #
loop $-1 $-1 $144 $86 #
plane-surface $-1 0 0 14.554991864735051 0 0 1 1 0 0 forward_v I I I I #
coedge $-1 $223 $224 $225 $226 reversed $87 $-1 #
coedge $-1 $227 $89 $228 $229 reversed $56 $-1 #
coedge $-1 $89 $227 $223 $230 forward $56 $-1 #
coedge $-1 $225 $231 $89 $145 forward $139 $-1 #
edge $-1 $232 -17.95633337769382 $233 -2.0083566874570469 $144 $234 forward 7 unknown #
loop $-1 $-1 $151 $90 #
plane-surface $-1 -66.046937467574082 -19.964690065150869 6.0128838857874456 -0.82903758062907751 0 0.55919289150049634 0.55919289150049634 0 0.82903758062907751 forward_v I I I I #
loop $-1 $-1 $235 $58 #
coedge $-1 $149 $149 $150 $236 reversed $91 $-1 #
coedge $-1 $150 $150 $149 $236 forward $93 $-1 #
coedge $-1 $151 $151 $94 $152 forward $146 $-1 #
edge $-1 $237 0 $237 6.2831853071796004 $151 $238 forward 7 unknown #
loop $-1 $-1 $158 $95 #
plane-surface $-1 -66.046937467574082 -19.964690065150869 6.0128838857874456 -0.82903758062907751 0 0.55919289150049634 0.55919289150049634 0 0.82903758062907751 forward_v I I I I #
loop $-1 $-1 $239 $61 #
coedge $-1 $156 $156 $157 $240 reversed $96 $-1 #
coedge $-1 $157 $157 $156 $240 forward $98 $-1 #
coedge $-1 $158 $158 $99 $159 forward $153 $-1 #
edge $-1 $241 0 $241 6.2831853071796004 $158 $242 forward 7 unknown #
face $-1 $243 $244 $24 $-1 $245 reversed single #
loop $-1 $-1 $246 $100 #
plane-surface $-1 -66.046937467574082 0 0 1 0 0 0 0 -1 forward_v I I I I #
coedge $-1 $247 $171 $248 $249 forward $101 $-1 #
coedge $-1 $250 $103 $247 $251 forward $65 $-1 #
coedge $-1 $103 $250 $252 $253 forward $65 $-1 #
coedge $-1 $174 $173 $103 $167 reversed $175 $-1 #
edge $-1 $254 -45.940183253874572 $255 45.940183253874572 $166 $256 forward 7 unknown #
coedge $-1 $105 $104 $257 $258 forward $41 $-1 #
coedge $-1 $259 $260 $104 $170 reversed $244 $-1 #
edge $-1 $177 -66.046937467574082 $261 66.046937467574082 $169 $262 forward 7 unknown #
coedge $-1 $163 $263 $105 $172 reversed $101 $-1 #
edge $-1 $264 -66.046937467574082 $176 66.046937467574082 $171 $265 forward 7 unknown #
coedge $-1 $166 $106 $263 $266 forward $175 $-1 #
coedge $-1 $106 $166 $259 $267 reversed $175 $-1 #
loop $-1 $-1 $173 $243 #
vertex $-1 $107 $268 #
vertex $-1 $107 $269 #
straight-curve $-1 66.046937467574082 0 14.554991864735051 0 1 0 I I #
face $-1 $270 $271 $25 $-1 $272 forward single #
loop $-1 $-1 $188 $108 #
plane-surface $-1 0 -45.940183253874572 0 0 1 0 0 0 1 forward_v I I I I #
coedge $-1 $273 $274 $275 $276 forward $109 $-1 #
coedge $-1 $275 $111 $113 $190 reversed $69 $-1 #
coedge $-1 $111 $275 $277 $278 reversed $69 $-1 #
coedge $-1 $279 $114 $111 $186 forward $192 $-1 #
edge $-1 $194 4.2481857797894165 $280 8.2872659832268951 $185 $281 forward 7 unknown #
coedge $-1 $113 $112 $273 $282 reversed $44 $-1 #
coedge $-1 $283 $284 $112 $189 forward $180 $-1 #
edge $-1 $285 -66.046937467574082 $193 66.046937467574082 $188 $286 forward 7 unknown #
edge $-1 $287 -66.046937467574082 $194 66.046937467574082 $183 $288 forward 7 unknown #
coedge $-1 $114 $279 $283 $289 forward $192 $-1 #
loop $-1 $-1 $185 $270 #
vertex $-1 $189 $290 #
vertex $-1 $115 $291 #
straight-curve $-1 66.046937467574082 -18.469715416035957 10.515911661297572 0 1 0 I I #
face $-1 $-1 $208 $26 $-1 $292 forward single #
loop $-1 $-1 $293 $116 #
plane-surface $-1 66.046937467574082 0 0 -1 0 0 0 0 1 forward_v I I I I #
coedge $-1 $294 $295 $296 $297 reversed $117 $-1 #
coedge $-1 $298 $119 $121 $206 forward $73 $-1 #
coedge $-1 $119 $298 $294 $299 forward $73 $-1 #
coedge $-1 $296 $122 $119 $203 forward $208 $-1 #
edge $-1 $210 -20.841861945416209 $300 -12.929989834278569 $202 $301 forward 7 unknown #
coedge $-1 $302 $303 $120 $205 forward $197 $-1 #
edge $-1 $304 -88.872108452819262 $209 -78.59394819718807 $204 $305 forward 7 unknown #
edge $-1 $210 112.69816541175112 $304 132.09387493514816 $121 $306 forward 7 unknown #
coedge $-1 $122 $296 $302 $307 forward $208 $-1 #
loop $-1 $-1 $296 $196 #
vertex $-1 $205 $308 #
vertex $-1 $123 $309 #
straight-curve $-1 12.01203441602253 37.727787835263598 14.554991864735044 -1 0 0 I I #
coedge $-1 $212 $212 $-1 $310 reversed $126 $-1 #
edge $-1 $311 0 $311 6.2831853071796004 $127 $312 forward 7 unknown #
vertex $-1 $130 $313 #
ellipse-curve $-1 57.822690242515151 32.076450613022438 9.4159117369194654 0.52991927123019833 0 0.84804809178421925 0.21201202294605481 0 -0.13247981780754958 1 I I #
coedge $-1 $216 $216 $-1 $314 reversed $133 $-1 #
edge $-1 $315 0 $315 6.2831853071796004 $134 $316 forward 7 unknown #
vertex $-1 $137 $317 #
ellipse-curve $-1 57.822690242515151 35.467252946367147 9.4159117369194654 0.52991927123019833 0 0.84804809178421925 0.21201202294605481 0 -0.13247981780754958 1 I I #
face $-1 $-1 $318 $29 $-1 $319 forward single #
loop $-1 $-1 $320 $138 #
plane-surface $-1 -66.046937467574082 0 0 1 0 0 0 0 -1 forward_v I I I I #
coedge $-1 $224 $141 $143 $230 reversed $87 $-1 #
coedge $-1 $141 $223 $320 $321 reversed $87 $-1 #
coedge $-1 $322 $144 $141 $226 forward $139 $-1 #
edge $-1 $233 -27.493648916427453 $323 -21.731924512290547 $225 $324 forward 7 unknown #
coedge $-1 $143 $142 $325 $326 reversed $56 $-1 #
coedge $-1 $327 $328 $142 $229 forward $318 $-1 #
edge $-1 $329 -21.170215914835989 $232 -10.866572052918638 $228 $330 forward 7 unknown #
edge $-1 $331 0 $233 10.303643861917353 $223 $332 forward 7 unknown #
coedge $-1 $144 $322 $327 $333 forward $139 $-1 #
vertex $-1 $229 $334 #
vertex $-1 $145 $335 #
straight-curve $-1 -60.285213063437176 -9.9823450325754344 14.554991864735053 0 1 0 I I #
coedge $-1 $235 $235 $-1 $336 reversed $148 $-1 #
edge $-1 $337 0 $337 6.2831853071796004 $149 $338 forward 7 unknown #
vertex $-1 $152 $339 #
ellipse-curve $-1 -63.166075265505626 -23.382113641630177 10.283937875261252 -0.82903758062907751 0 0.55919289150049634 0.55919289150049634 0 0.82903758062907751 1 I I #
coedge $-1 $239 $239 $-1 $340 reversed $155 $-1 #
edge $-1 $341 0 $341 6.2831853071796004 $156 $342 forward 7 unknown #
vertex $-1 $159 $343 #
ellipse-curve $-1 -63.166075265505626 -16.547266488671557 10.283937875261252 -0.82903758062907751 0 0.55919289150049634 0.55919289150049634 0 0.82903758062907751 1 I I #
face $-1 $-1 $175 $24 $-1 $344 reversed single #
loop $-1 $-1 $259 $160 #
plane-surface $-1 0 45.940183253874572 0 0 -1 0 0 0 -1 forward_v I I I I #
coedge $-1 $345 $257 $260 $346 forward $161 $-1 #
coedge $-1 $263 $163 $164 $251 reversed $101 $-1 #
coedge $-1 $257 $345 $163 $249 reversed $161 $-1 #
edge $-1 $264 -14.554991864735051 $347 14.554991864735051 $248 $348 forward 7 unknown #
coedge $-1 $165 $164 $345 $349 forward $65 $-1 #
edge $-1 $255 -66.046937467574082 $347 66.046937467574082 $247 $350 forward 7 unknown #
coedge $-1 $260 $259 $165 $253 reversed $244 $-1 #
edge $-1 $351 -66.046937467574082 $254 66.046937467574082 $252 $352 forward 7 unknown #
vertex $-1 $167 $353 #
vertex $-1 $266 $354 #
straight-curve $-1 66.046937467574082 0 -14.554991864735051 0 -1 0 I I #
coedge $-1 $246 $248 $168 $258 reversed $161 $-1 #
edge $-1 $261 -45.940183253874572 $264 45.940183253874572 $257 $355 forward 7 unknown #
coedge $-1 $252 $169 $174 $267 forward $244 $-1 #
coedge $-1 $169 $252 $246 $346 reversed $244 $-1 #
vertex $-1 $170 $356 #
straight-curve $-1 0 45.940183253874572 14.554991864735051 -1 0 0 I I #
coedge $-1 $171 $247 $173 $266 reversed $101 $-1 #
vertex $-1 $258 $357 #
straight-curve $-1 0 -45.940183253874572 14.554991864735051 1 0 0 I I #
edge $-1 $176 -14.554991864735051 $255 14.554991864735051 $173 $358 forward 7 unknown #
edge $-1 $177 -14.554991864735051 $254 14.554991864735051 $174 $359 forward 7 unknown #
point $-1 66.046937467574082 -45.940183253874572 14.554991864735051 #
point $-1 66.046937467574082 45.940183253874572 14.554991864735051 #
face $-1 $-1 $192 $25 $-1 $360 reversed single #
loop $-1 $-1 $277 $179 #
plane-surface $-1 0 0 14.554991864735051 0 0 1 1 0 0 forward_v I I I I #
coedge $-1 $361 $182 $187 $282 forward $109 $-1 #
coedge $-1 $182 $361 $362 $363 reversed $109 $-1 #
coedge $-1 $184 $183 $182 $276 reversed $69 $-1 #
edge $-1 $364 -8.2872659832268951 $287 -4.2481857797894165 $182 $365 forward 7 unknown #
coedge $-1 $362 $366 $184 $278 forward $271 $-1 #
edge $-1 $280 -66.046937467574082 $364 66.046937467574082 $277 $367 forward 7 unknown #
coedge $-1 $191 $185 $366 $368 reversed $192 $-1 #
vertex $-1 $186 $369 #
straight-curve $-1 66.046937467574082 -27.938678410269254 6.2677258815081558 0 0 1 I I #
edge $-1 $287 9.4689629942332978 $285 27.470467837838616 $273 $370 forward 7 unknown #
coedge $-1 $371 $188 $191 $289 reversed $180 $-1 #
coedge $-1 $188 $371 $361 $372 forward $180 $-1 #
vertex $-1 $189 $373 #
straight-curve $-1 0 -45.940183253874572 10.515911661297572 1 0 0 I I #
vertex $-1 $282 $374 #
straight-curve $-1 0 -27.938678410269254 10.515911661297572 1 0 0 I I #
edge $-1 $375 -14.554991864735051 $193 -10.515911661297572 $191 $376 forward 7 unknown #
point $-1 66.046937467574082 -45.940183253874572 10.515911661297572 #
point $-1 66.046937467574082 -27.938678410269254 10.515911661297572 #
plane-surface $-1 0 0 14.554991864735051 0 0 1 1 0 0 forward_v I I I I #
coedge $-1 $303 $302 $295 $377 forward $197 $-1 #
coedge $-1 $295 $199 $201 $299 reversed $117 $-1 #
coedge $-1 $199 $294 $293 $377 reversed $117 $-1 #
coedge $-1 $207 $202 $199 $297 forward $208 $-1 #
edge $-1 $300 37.586408601433675 $378 54.034903051551552 $296 $379 forward 7 unknown #
coedge $-1 $201 $200 $303 $380 reversed $73 $-1 #
edge $-1 $381 -132.09387493514816 $300 -112.69816541175112 $294 $382 forward 7 unknown #
vertex $-1 $203 $383 #
straight-curve $-1 49.598443017456219 16.885925889847389 14.554991864735044 0 -1 0 I I #
coedge $-1 $293 $204 $207 $307 reversed $197 $-1 #
coedge $-1 $204 $293 $298 $380 forward $197 $-1 #
vertex $-1 $205 $384 #
straight-curve $-1 66.046937467574082 37.727787835263598 93.148940061923128 0 0 1 I I #
straight-curve $-1 -45.975021107561616 37.727787835263598 74.275921548710542 0.84804809178421925 0 -0.52991927123019833 I I #
edge $-1 $378 29.815915724125958 $209 37.727787835263598 $302 $385 forward 7 unknown #
point $-1 66.046937467574082 37.727787835263598 14.554991864735051 #
point $-1 49.598443017456205 37.727787835263598 14.554991864735051 #
edge $-1 $386 1 $386 0 $212 $-1 forward 7 unknown #
vertex $-1 $213 $387 #
ellipse-curve $-1 57.292770971284945 32.076450613022438 8.5678636451352403 0.52991927123019833 0 0.84804809178421925 0.21201202294605481 0 -0.13247981780754958 1 I I #
point $-1 58.034702265461199 32.076450613022438 9.2834319191119103 #
edge $-1 $388 1 $388 0 $216 $-1 forward 7 unknown #
vertex $-1 $217 $389 #
ellipse-curve $-1 57.292770971284945 35.467252946367147 8.5678636451352403 0.52991927123019833 0 0.84804809178421925 0.21201202294605481 0 -0.13247981780754958 1 I I #
point $-1 58.034702265461199 35.467252946367147 9.2834319191119103 #
loop $-1 $-1 $228 $220 #
plane-surface $-1 0 -27.938678410269254 12.535451763016312 0 -1 0 0 0 -1 forward_v I I I I #
coedge $-1 $325 $390 $224 $321 forward $221 $-1 #
edge $-1 $323 25.384428015403891 $331 33.926535994351497 $320 $391 forward 7 unknown #
coedge $-1 $231 $225 $390 $392 forward $139 $-1 #
vertex $-1 $392 $393 #
straight-curve $-1 -87.778861979864629 -11.990701720032481 14.554991864735051 -1 0 0 I I #
coedge $-1 $394 $320 $227 $326 forward $221 $-1 #
edge $-1 $331 2.0083566874570469 $329 17.95633337769382 $325 $395 forward 7 unknown #
coedge $-1 $328 $228 $231 $333 reversed $318 $-1 #
coedge $-1 $228 $327 $394 $396 reversed $318 $-1 #
vertex $-1 $396 $397 #
straight-curve $-1 -54.208703216467121 -27.938678410269254 23.563788469218267 0.55919289150049634 0 0.82903758062907751 I I #
vertex $-1 $326 $398 #
straight-curve $-1 -66.046937467574082 -11.990701720032481 6.0128838857874456 0.55919289150049634 0 0.82903758062907751 I I #
edge $-1 $399 -66.046937467574082 $232 -60.285213063437176 $231 $400 forward 7 unknown #
point $-1 -60.285213063437176 -27.938678410269254 14.554991864735051 #
point $-1 -60.285213063437176 -11.990701720032481 14.554991864735051 #
edge $-1 $401 1 $401 0 $235 $-1 forward 7 unknown #
vertex $-1 $236 $402 #
ellipse-curve $-1 -61.329122096036542 -23.382113641630177 9.0448973560040091 -0.82903758062907751 0 0.55919289150049634 0.55919289150049634 0 0.82903758062907751 1 I I #
point $-1 -62.606882374005131 -23.382113641630177 11.112975455890329 #
edge $-1 $403 1 $403 0 $239 $-1 forward 7 unknown #
vertex $-1 $240 $404 #
ellipse-curve $-1 -61.329122096036542 -16.547266488671557 9.0448973560040091 -0.82903758062907751 0 0.55919289150049634 0.55919289150049634 0 0.82903758062907751 1 I I #
point $-1 -62.606882374005131 -16.547266488671557 11.112975455890329 #
plane-surface $-1 66.046937467574082 0 0 -1 0 0 0 0 1 forward_v I I I I #
coedge $-1 $248 $246 $250 $349 reversed $161 $-1 #
edge $-1 $261 -14.554991864735051 $351 14.554991864735051 $260 $405 forward 7 unknown #
vertex $-1 $349 $406 #
straight-curve $-1 -66.046937467574082 -45.940183253874572 0 0 0 -1 I I #
edge $-1 $347 -45.940183253874572 $351 45.940183253874572 $345 $407 forward 7 unknown #
straight-curve $-1 0 -45.940183253874572 -14.554991864735051 -1 0 0 I I #
vertex $-1 $253 $408 #
straight-curve $-1 0 45.940183253874572 -14.554991864735051 1 0 0 I I #
point $-1 66.046937467574082 45.940183253874572 -14.554991864735051 #
point $-1 66.046937467574082 -45.940183253874572 -14.554991864735051 #
straight-curve $-1 -66.046937467574082 0 14.554991864735051 0 -1 0 I I #
point $-1 -66.046937467574082 45.940183253874572 14.554991864735051 #
point $-1 -66.046937467574082 -45.940183253874572 14.554991864735051 #
straight-curve $-1 66.046937467574082 -45.940183253874572 0 0 0 -1 I I #
straight-curve $-1 66.046937467574082 45.940183253874572 0 0 0 -1 I I #
plane-surface $-1 66.046937467574082 0 0 -1 0 0 0 0 1 forward_v I I I I #
coedge $-1 $274 $273 $284 $372 reversed $109 $-1 #
coedge $-1 $409 $277 $274 $363 forward $271 $-1 #
edge $-1 $364 27.938678410269254 $410 45.940183253874572 $274 $411 forward 7 unknown #
vertex $-1 $363 $412 #
straight-curve $-1 -66.046937467574082 -27.938678410269254 6.2677258815081558 0 0 -1 I I #
coedge $-1 $277 $409 $279 $368 forward $271 $-1 #
straight-curve $-1 0 -27.938678410269254 14.554991864735051 -1 0 0 I I #
edge $-1 $375 -45.940183253874572 $280 -27.938678410269254 $279 $413 forward 7 unknown #
point $-1 66.046937467574082 -27.938678410269254 14.554991864735051 #
straight-curve $-1 -66.046937467574082 -18.469715416035957 10.515911661297572 0 -1 0 I I #
coedge $-1 $284 $283 $409 $414 reversed $180 $-1 #
edge $-1 $410 -14.554991864735051 $285 -10.515911661297572 $361 $415 forward 7 unknown #
point $-1 -66.046937467574082 -45.940183253874572 10.515911661297572 #
point $-1 -66.046937467574082 -27.938678410269254 10.515911661297572 #
vertex $-1 $368 $416 #
straight-curve $-1 66.046937467574082 -45.940183253874572 0 0 0 -1 I I #
edge $-1 $378 78.59394819718807 $381 88.872108452819262 $293 $417 forward 7 unknown #
vertex $-1 $307 $418 #
straight-curve $-1 12.01203441602253 29.815915724125958 14.554991864735044 1 0 0 I I #
edge $-1 $381 12.929989834278569 $304 20.841861945416209 $303 $419 forward 7 unknown #
vertex $-1 $380 $420 #
straight-curve $-1 -45.975021107561616 29.815915724125958 74.275921548710542 -0.84804809178421925 0 0.52991927123019833 I I #
point $-1 49.598443017456205 29.815915724125958 14.554991864735051 #
point $-1 66.046937467574097 37.727787835263598 4.2768316091038656 #
straight-curve $-1 66.046937467574082 0 14.554991864735051 0 1 0 I I #
vertex $-1 $310 $421 #
point $-1 57.504782994231 32.076450613022438 8.4353838273276907 #
vertex $-1 $314 $422 #
point $-1 57.504782994231 35.467252946367147 8.4353838273276907 #
coedge $-1 $320 $394 $322 $392 reversed $221 $-1 #
straight-curve $-1 -66.046937467574082 -11.990701720032481 39.939419880138942 0 0 -1 I I #
edge $-1 $323 11.990701720032481 $399 27.938678410269254 $390 $423 forward 7 unknown #
point $-1 -66.046937467574082 -11.990701720032481 14.554991864735051 #
coedge $-1 $390 $325 $328 $396 forward $221 $-1 #
straight-curve $-1 -66.046937467574082 -9.9823450325754344 6.0128838857874447 0 -1 0 I I #
edge $-1 $329 -33.926535994351497 $399 -25.384428015403891 $394 $424 forward 7 unknown #
point $-1 -66.046937467574082 -27.938678410269254 6.0128838857874456 #
point $-1 -66.046937467574082 -11.990701720032481 6.0128838857874456 #
vertex $-1 $396 $425 #
straight-curve $-1 0 -27.938678410269254 14.554991864735051 1 0 0 I I #
vertex $-1 $336 $426 #
point $-1 -60.769929204536048 -23.382113641630177 9.873934936633086 #
vertex $-1 $340 $427 #
point $-1 -60.769929204536048 -16.547266488671557 9.873934936633086 #
straight-curve $-1 -66.046937467574082 45.940183253874572 0 0 0 -1 I I #
point $-1 -66.046937467574082 -45.940183253874572 -14.554991864735051 #
straight-curve $-1 -66.046937467574082 0 -14.554991864735051 0 1 0 I I #
point $-1 -66.046937467574082 45.940183253874572 -14.554991864735051 #
coedge $-1 $366 $362 $371 $414 forward $271 $-1 #
vertex $-1 $363 $428 #
straight-curve $-1 -66.046937467574082 0 14.554991864735051 0 -1 0 I I #
point $-1 -66.046937467574082 -27.938678410269254 14.554991864735051 #
straight-curve $-1 66.046937467574082 0 14.554991864735051 0 1 0 I I #
edge $-1 $410 -66.046937467574082 $375 66.046937467574082 $371 $429 forward 7 unknown #
straight-curve $-1 -66.046937467574082 -45.940183253874572 0 0 0 -1 I I #
point $-1 66.046937467574082 -45.940183253874572 14.554991864735051 #
straight-curve $-1 66.046937467574082 29.815915724125958 93.148940061923128 0 0 -1 I I #
point $-1 66.046937467574082 29.815915724125958 14.554991864735051 #
straight-curve $-1 66.046937467574082 16.885925889847389 4.2768316091038727 0 1 0 I I #
point $-1 66.046937467574097 29.815915724125958 4.2768316091038656 #
point $-1 57.160291153477395 32.076450613022438 8.355851622189185 #
point $-1 57.160291153477395 35.467252946367147 8.355851622189185 #
straight-curve $-1 -66.046937467574082 0 14.554991864735051 0 -1 0 I I #
straight-curve $-1 -66.046937467574082 -27.938678410269254 39.939419880138942 0 0 1 I I #
point $-1 -66.046937467574082 -27.938678410269254 14.554991864735051 #
point $-1 -60.500084515407465 -23.382113641630177 8.4857044645035113 #
point $-1 -60.500084515407465 -16.547266488671557 8.4857044645035113 #
point $-1 -66.046937467574082 -45.940183253874572 14.554991864735051 #
straight-curve $-1 0 -45.940183253874572 14.554991864735051 1 0 0 I I #
End-of-ACIS-data 