500 0 10 0           
7 Unknown 11 ACIS 5.0 NT 24 Fri Mar 26 15:25:56 1999 
-1 9.9999999999999995e-007 1e-010 
body $-1 $10 $-1 $11 #
body $-1 $12 $-1 $13 #
body $-1 $14 $-1 $15 #
body $-1 $16 $-1 $17 #
body $-1 $18 $-1 $19 #
body $-1 $20 $-1 $21 #
body $-1 $22 $-1 $23 #
body $-1 $24 $-1 $25 #
body $-1 $26 $-1 $27 #
body $-1 $28 $-1 $29 #
lump $-1 $-1 $30 $0 #
transform $-1 1 0 0 0 1 0 0 0 1 79.848628192999058 36.39378971141646 14.063816750476656 1 rotate no_reflect no_shear #
lump $-1 $-1 $31 $1 #
transform $-1 1 0 0 0 1 0 0 0 1 79.848628192999058 36.39378971141646 14.063816750476656 1 rotate no_reflect no_shear #
lump $-1 $-1 $32 $2 #
transform $-1 1 0 0 0 1 0 0 0 1 79.848628192999058 36.39378971141646 14.063816750476656 1 rotate no_reflect no_shear #
lump $-1 $-1 $33 $3 #
transform $-1 1 0 0 0 1 0 0 0 1 79.848628192999058 36.39378971141646 14.063816750476656 1 rotate no_reflect no_shear #
lump $-1 $-1 $34 $4 #
transform $-1 1 0 0 0 1 0 0 0 1 79.848628192999058 36.39378971141646 14.063816750476656 1 rotate no_reflect no_shear #
lump $-1 $-1 $35 $5 #
transform $-1 1 0 0 0 1 0 0 0 1 79.848628192999058 36.39378971141646 14.063816750476656 1 rotate no_reflect no_shear #
lump $-1 $-1 $36 $6 #
transform $-1 1 0 0 0 1 0 0 0 1 79.848628192999058 36.39378971141646 14.063816750476656 1 rotate no_reflect no_shear #
lump $-1 $-1 $37 $7 #
transform $-1 1 0 0 0 1 0 0 0 1 79.848628192999058 36.39378971141646 14.063816750476656 1 rotate no_reflect no_shear #
lump $-1 $-1 $38 $8 #
transform $-1 1 0 0 0 1 0 0 0 1 79.848628192999058 36.39378971141646 14.063816750476656 1 rotate no_reflect no_shear #
lump $-1 $-1 $39 $9 #
transform $-1 1 0 0 0 1 0 0 0 1 79.848628192999058 36.39378971141646 14.063816750476656 1 rotate no_reflect no_shear #
shell $-1 $-1 $-1 $40 $-1 $10 #
shell $-1 $-1 $-1 $41 $-1 $12 #
shell $-1 $-1 $-1 $42 $-1 $14 #
shell $-1 $-1 $-1 $43 $-1 $16 #
shell $-1 $-1 $-1 $44 $-1 $18 #
shell $-1 $-1 $-1 $45 $-1 $20 #
shell $-1 $-1 $-1 $46 $-1 $22 #
shell $-1 $-1 $-1 $47 $-1 $24 #
shell $-1 $-1 $-1 $48 $-1 $26 #
shell $-1 $-1 $-1 $49 $-1 $28 #
face $-1 $50 $51 $30 $-1 $52 forward single #
face $-1 $53 $54 $31 $-1 $55 forward single #
face $-1 $56 $57 $32 $-1 $58 reversed single #
face $-1 $59 $60 $33 $-1 $61 forward single #
face $-1 $62 $63 $34 $-1 $64 forward single #
face $-1 $65 $66 $35 $-1 $67 forward single #
face $-1 $68 $69 $36 $-1 $70 reversed single #
face $-1 $71 $72 $37 $-1 $73 forward single #
face $-1 $74 $75 $38 $-1 $76 forward single #
face $-1 $77 $78 $39 $-1 $79 forward single #
face $-1 $80 $81 $30 $-1 $82 reversed single #
loop $-1 $-1 $83 $40 #
plane-surface $-1 0 0 14.063816750476656 0 0 1 1 0 0 forward_v I I I I #
face $-1 $84 $85 $31 $-1 $86 reversed single #
loop $-1 $-1 $87 $41 #
plane-surface $-1 -79.848628192999058 0 0 1 0 0 0 0 -1 forward_v I I I I #
face $-1 $88 $89 $32 $-1 $90 reversed single #
loop $-1 $-1 $91 $42 #
plane-surface $-1 70.756134954792913 -36.393789711416446 0.79854507934437891 0 -0.83867057594974714 0.54463902268945019 1 0 0 forward_v I I I I #
face $-1 $92 $93 $33 $-1 $94 forward single #
loop $-1 $95 $96 $43 #
cone-surface $-1 65.300639011869237 -31.408955572934481 6.9911746827673484 0 0.83867057594974714 -0.54463902268945019 1.5 0 0 1 I I 0 1 1.5 forward I I I I #
face $-1 $97 $98 $34 $-1 $99 forward single #
loop $-1 $100 $101 $44 #
cone-surface $-1 70.756134954792913 -31.408955572934481 6.9911746827673484 0 0.83867057594974714 -0.54463902268945019 1.5 0 0 1 I I 0 1 1.5 forward I I I I #
face $-1 $102 $103 $35 $-1 $104 forward single #
loop $-1 $105 $106 $45 #
cone-surface $-1 76.211630897716589 -31.408955572934481 6.9911746827673484 0 0.83867057594974714 -0.54463902268945019 1.5 0 0 1 I I 0 1 1.5 forward I I I I #
face $-1 $107 $108 $36 $-1 $109 reversed single #
loop $-1 $-1 $110 $46 #
plane-surface $-1 70.756134954792913 -3.249166409366012 61.84334623587965 0 0.83867057594974714 0.54463902268945019 1 0 0 forward_v I I I I #
face $-1 $111 $112 $37 $-1 $113 forward single #
loop $-1 $114 $115 $47 #
cone-surface $-1 65.300639011869237 31.408955572934467 6.9911746827673555 0 -0.83867057594974714 -0.54463902268945019 1.5 0 0 1 I I 0 1 1.5 forward I I I I #
face $-1 $116 $117 $38 $-1 $118 forward single #
loop $-1 $119 $120 $48 #
cone-surface $-1 70.756134954792913 31.408955572934467 6.9911746827673555 0 -0.83867057594974714 -0.54463902268945019 1.5 0 0 1 I I 0 1 1.5 forward I I I I #
face $-1 $121 $122 $39 $-1 $123 forward single #
loop $-1 $124 $125 $49 #
cone-surface $-1 76.211630897716589 31.408955572934467 6.9911746827673555 0 -0.83867057594974714 -0.54463902268945019 1.5 0 0 1 I I 0 1 1.5 forward I I I I #
face $-1 $126 $127 $30 $-1 $128 reversed single #
loop $-1 $-1 $129 $50 #
plane-surface $-1 0 0 -14.063816750476656 0 0 1 1 0 0 forward_v I I I I #
coedge $-1 $130 $131 $132 $133 forward $51 $-1 #
face $-1 $134 $135 $31 $-1 $136 forward single #
loop $-1 $-1 $137 $53 #
plane-surface $-1 0 36.39378971141646 0 0 -1 0 0 0 -1 forward_v I I I I #
coedge $-1 $138 $139 $140 $141 forward $54 $-1 #
face $-1 $142 $143 $32 $-1 $144 reversed single #
loop $-1 $-1 $145 $56 #
plane-surface $-1 61.663641716586781 -170.32717970225593 87.77590272360095 1 0 0 0 0.83867057594974714 -0.54463902268945019 forward_v I I I I #
coedge $-1 $146 $147 $148 $149 reversed $57 $-1 #
face $-1 $-1 $150 $33 $-1 $151 forward single #
loop $-1 $152 $153 $59 #
cone-surface $-1 65.300639011869237 -30.102402438434808 6.1426891836070947 0 0.83867057594974714 -0.54463902268945019 0.75 0 0 1 I I -0.70710678118654757 0.70710678118654757 0.75 forward I I I I #
loop $-1 $-1 $154 $43 #
coedge $-1 $96 $96 $155 $156 reversed $60 $-1 #
face $-1 $-1 $157 $34 $-1 $158 forward single #
loop $-1 $159 $160 $62 #
cone-surface $-1 70.756134954792913 -30.102402438434808 6.1426891836070947 0 0.83867057594974714 -0.54463902268945019 0.75 0 0 1 I I -0.70710678118654757 0.70710678118654757 0.75 forward I I I I #
loop $-1 $-1 $161 $44 #
coedge $-1 $101 $101 $162 $163 reversed $63 $-1 #
face $-1 $-1 $164 $35 $-1 $165 forward single #
loop $-1 $166 $167 $65 #
cone-surface $-1 76.211630897716589 -30.102402438434808 6.1426891836070947 0 0.83867057594974714 -0.54463902268945019 0.75 0 0 1 I I -0.70710678118654757 0.70710678118654757 0.75 forward I I I I #
loop $-1 $-1 $168 $45 #
coedge $-1 $106 $106 $169 $170 reversed $66 $-1 #
face $-1 $171 $172 $36 $-1 $173 forward single #
loop $-1 $-1 $174 $68 #
plane-surface $-1 61.663641716586781 130.68422358147347 148.82070388013622 1 0 0 0 -0.83867057594974714 -0.54463902268945019 forward_v I I I I #
coedge $-1 $175 $176 $177 $178 reversed $69 $-1 #
face $-1 $-1 $179 $37 $-1 $180 forward single #
loop $-1 $181 $182 $71 #
cone-surface $-1 65.300639011869237 30.102402438434794 6.1426891836071018 0 -0.83867057594974714 -0.54463902268945019 0.75 0 0 1 I I -0.70710678118654757 0.70710678118654757 0.75 forward I I I I #
loop $-1 $-1 $183 $47 #
coedge $-1 $115 $115 $184 $185 reversed $72 $-1 #
face $-1 $-1 $186 $38 $-1 $187 forward single #
loop $-1 $188 $189 $74 #
cone-surface $-1 70.756134954792913 30.102402438434794 6.1426891836071018 0 -0.83867057594974714 -0.54463902268945019 0.75 0 0 1 I I -0.70710678118654757 0.70710678118654757 0.75 forward I I I I #
loop $-1 $-1 $190 $48 #
coedge $-1 $120 $120 $191 $192 reversed $75 $-1 #
face $-1 $-1 $193 $39 $-1 $194 forward single #
loop $-1 $195 $196 $77 #
cone-surface $-1 76.211630897716589 30.102402438434794 6.1426891836071018 0 -0.83867057594974714 -0.54463902268945019 0.75 0 0 1 I I -0.70710678118654757 0.70710678118654757 0.75 forward I I I I #
loop $-1 $-1 $197 $49 #
coedge $-1 $125 $125 $198 $199 reversed $78 $-1 #
face $-1 $200 $201 $30 $-1 $202 reversed single #
loop $-1 $-1 $203 $80 #
plane-surface $-1 0 -36.39378971141646 0 0 1 0 0 0 1 forward_v I I I I #
coedge $-1 $204 $205 $206 $207 forward $81 $-1 #
coedge $-1 $208 $83 $209 $210 forward $51 $-1 #
coedge $-1 $83 $208 $211 $212 forward $51 $-1 #
coedge $-1 $213 $214 $83 $133 reversed $215 $-1 #
edge $-1 $216 -36.39378971141646 $217 36.39378971141646 $132 $218 forward 7 unknown #
face $-1 $219 $220 $31 $-1 $221 reversed single #
loop $-1 $-1 $140 $84 #
plane-surface $-1 -85.656220093769107 0 -5.9470883783869288 0 0 1 1 0 0 forward_v I I I I #
coedge $-1 $222 $223 $139 $224 forward $85 $-1 #
coedge $-1 $225 $87 $226 $227 reversed $54 $-1 #
coedge $-1 $87 $225 $137 $224 reversed $54 $-1 #
coedge $-1 $228 $229 $87 $141 reversed $135 $-1 #
edge $-1 $230 -36.39378971141646 $231 36.39378971141646 $140 $232 forward 7 unknown #
face $-1 $233 $234 $32 $-1 $235 forward single #
loop $-1 $-1 $236 $88 #
plane-surface $-1 0 -36.39378971141646 0 0 1 0 0 0 1 forward_v I I I I #
coedge $-1 $237 $238 $239 $240 reversed $89 $-1 #
coedge $-1 $241 $91 $242 $243 reversed $57 $-1 #
coedge $-1 $91 $241 $237 $244 forward $57 $-1 #
coedge $-1 $239 $245 $91 $149 forward $234 $-1 #
edge $-1 $246 -44.470560715602588 $247 -26.285574239190325 $148 $248 forward 7 unknown #
loop $-1 $-1 $155 $92 #
plane-surface $-1 70.756134954792913 -36.393789711416446 0.79854507934437891 0 -0.83867057594974714 0.54463902268945019 1 0 0 forward_v I I I I #
loop $-1 $-1 $249 $59 #
coedge $-1 $153 $153 $154 $250 reversed $93 $-1 #
coedge $-1 $154 $154 $153 $250 forward $95 $-1 #
coedge $-1 $155 $155 $96 $156 forward $150 $-1 #
edge $-1 $251 3.9962775262769978e-016 $251 6.2831853071796004 $155 $252 forward 7 unknown #
loop $-1 $-1 $162 $97 #
plane-surface $-1 70.756134954792913 -36.393789711416446 0.79854507934437891 0 -0.83867057594974714 0.54463902268945019 1 0 0 forward_v I I I I #
loop $-1 $-1 $253 $62 #
coedge $-1 $160 $160 $161 $254 reversed $98 $-1 #
coedge $-1 $161 $161 $160 $254 forward $100 $-1 #
coedge $-1 $162 $162 $101 $163 forward $157 $-1 #
edge $-1 $255 3.9962775262769978e-016 $255 6.2831853071796004 $162 $256 forward 7 unknown #
loop $-1 $-1 $169 $102 #
plane-surface $-1 70.756134954792913 -36.393789711416446 0.79854507934437891 0 -0.83867057594974714 0.54463902268945019 1 0 0 forward_v I I I I #
loop $-1 $-1 $257 $65 #
coedge $-1 $167 $167 $168 $258 reversed $103 $-1 #
coedge $-1 $168 $168 $167 $258 forward $105 $-1 #
coedge $-1 $169 $169 $106 $170 forward $164 $-1 #
edge $-1 $259 3.9962775262769978e-016 $259 6.2831853071796004 $169 $260 forward 7 unknown #
face $-1 $261 $262 $36 $-1 $263 reversed single #
loop $-1 $-1 $264 $107 #
plane-surface $-1 0 0 14.063816750476656 0 0 1 1 0 0 forward_v I I I I #
coedge $-1 $265 $266 $267 $268 reversed $108 $-1 #
coedge $-1 $269 $110 $270 $271 reversed $69 $-1 #
coedge $-1 $110 $269 $265 $272 forward $69 $-1 #
coedge $-1 $267 $273 $110 $178 forward $274 $-1 #
edge $-1 $275 -44.470560715602602 $276 -26.285574239190325 $177 $277 forward 7 unknown #
loop $-1 $-1 $184 $111 #
plane-surface $-1 70.756134954792913 -3.249166409366012 61.84334623587965 0 0.83867057594974714 0.54463902268945019 1 0 0 forward_v I I I I #
loop $-1 $-1 $278 $71 #
coedge $-1 $182 $182 $183 $279 reversed $112 $-1 #
coedge $-1 $183 $183 $182 $279 forward $114 $-1 #
coedge $-1 $184 $184 $115 $185 forward $179 $-1 #
edge $-1 $280 -9.6964985236327053e-017 $280 6.2831853071796004 $184 $281 forward 7 unknown #
loop $-1 $-1 $191 $116 #
plane-surface $-1 70.756134954792913 -3.249166409366012 61.84334623587965 0 0.83867057594974714 0.54463902268945019 1 0 0 forward_v I I I I #
loop $-1 $-1 $282 $74 #
coedge $-1 $189 $189 $190 $283 reversed $117 $-1 #
coedge $-1 $190 $190 $189 $283 forward $119 $-1 #
coedge $-1 $191 $191 $120 $192 forward $186 $-1 #
edge $-1 $284 -9.6964985236327053e-017 $284 6.2831853071796004 $191 $285 forward 7 unknown #
loop $-1 $-1 $198 $121 #
plane-surface $-1 70.756134954792913 -3.249166409366012 61.84334623587965 0 0.83867057594974714 0.54463902268945019 1 0 0 forward_v I I I I #
loop $-1 $-1 $286 $77 #
coedge $-1 $196 $196 $197 $287 reversed $122 $-1 #
coedge $-1 $197 $197 $196 $287 forward $124 $-1 #
coedge $-1 $198 $198 $125 $199 forward $193 $-1 #
edge $-1 $288 -9.6964985236327053e-017 $288 6.2831853071796004 $198 $289 forward 7 unknown #
face $-1 $290 $291 $30 $-1 $292 reversed single #
loop $-1 $-1 $293 $126 #
plane-surface $-1 -79.848628192999058 0 0 1 0 0 0 0 -1 forward_v I I I I #
coedge $-1 $294 $211 $293 $295 forward $127 $-1 #
coedge $-1 $296 $129 $294 $297 forward $81 $-1 #
coedge $-1 $129 $296 $298 $299 forward $81 $-1 #
coedge $-1 $214 $213 $129 $207 reversed $215 $-1 #
edge $-1 $300 -36.39378971141646 $301 36.39378971141646 $206 $302 forward 7 unknown #
coedge $-1 $131 $130 $303 $304 forward $51 $-1 #
coedge $-1 $305 $306 $130 $210 reversed $291 $-1 #
edge $-1 $217 -79.848628192999058 $307 79.848628192999058 $209 $308 forward 7 unknown #
coedge $-1 $203 $309 $131 $212 reversed $127 $-1 #
edge $-1 $310 -79.848628192999058 $216 79.848628192999058 $211 $311 forward 7 unknown #
coedge $-1 $206 $132 $309 $312 forward $215 $-1 #
coedge $-1 $132 $206 $305 $313 reversed $215 $-1 #
loop $-1 $-1 $213 $290 #
vertex $-1 $133 $314 #
vertex $-1 $133 $315 #
straight-curve $-1 79.848628192999058 0 14.063816750476656 0 1 0 I I #
face $-1 $316 $317 $31 $-1 $318 reversed single #
loop $-1 $-1 $319 $134 #
plane-surface $-1 -91.463811994539157 0 -10.005452564431792 1 0 0 0 0 -1 forward_v I I I I #
coedge $-1 $320 $137 $321 $322 reversed $85 $-1 #
coedge $-1 $137 $320 $228 $323 reversed $85 $-1 #
edge $-1 $230 5.9470883783869288 $324 14.063816750476656 $137 $325 forward 7 unknown #
coedge $-1 $139 $138 $326 $327 reversed $54 $-1 #
coedge $-1 $328 $329 $138 $227 forward $330 $-1 #
edge $-1 $331 -14.063816750476656 $231 -5.9470883783869288 $226 $332 forward 7 unknown #
coedge $-1 $333 $140 $223 $323 forward $135 $-1 #
coedge $-1 $140 $333 $328 $334 forward $135 $-1 #
vertex $-1 $224 $335 #
vertex $-1 $334 $336 #
straight-curve $-1 -79.848628192999058 0 -5.9470883783869288 0 -1 0 I I #
face $-1 $-1 $337 $32 $-1 $338 reversed single #
loop $-1 $-1 $239 $142 #
plane-surface $-1 0 0 14.063816750476656 0 0 1 1 0 0 forward_v I I I I #
coedge $-1 $339 $340 $238 $341 forward $143 $-1 #
coedge $-1 $238 $145 $147 $244 reversed $89 $-1 #
coedge $-1 $145 $237 $236 $341 reversed $89 $-1 #
coedge $-1 $342 $148 $145 $240 forward $234 $-1 #
edge $-1 $247 -57.384368011600756 $343 -48.769800139711506 $239 $344 forward 7 unknown #
coedge $-1 $147 $146 $339 $345 reversed $57 $-1 #
coedge $-1 $346 $347 $146 $243 forward $337 $-1 #
edge $-1 $348 -9.5758808993878421 $246 6.2411419598082443 $242 $349 forward 7 unknown #
edge $-1 $350 -2.6082680278521875e-014 $247 15.817022859196062 $237 $351 forward 7 unknown #
coedge $-1 $148 $342 $346 $352 forward $234 $-1 #
vertex $-1 $243 $353 #
vertex $-1 $149 $354 #
straight-curve $-1 35.378067477396456 -27.779221839527207 14.063816750476656 -1 0 0 I I #
coedge $-1 $249 $249 $-1 $355 reversed $152 $-1 #
edge $-1 $356 0 $356 6.2831853071796004 $153 $357 forward 7 unknown #
vertex $-1 $156 $358 #
ellipse-curve $-1 65.300639011869237 -32.086505775471835 7.4311809149105095 0 -0.83867057594974714 0.54463902268945019 1.5 0 0 1 I I #
coedge $-1 $253 $253 $-1 $359 reversed $159 $-1 #
edge $-1 $360 0 $360 6.2831853071796004 $160 $361 forward 7 unknown #
vertex $-1 $163 $362 #
ellipse-curve $-1 70.756134954792913 -32.086505775471835 7.4311809149105095 0 -0.83867057594974714 0.54463902268945019 1.5 0 0 1 I I #
coedge $-1 $257 $257 $-1 $363 reversed $166 $-1 #
edge $-1 $364 0 $364 6.2831853071796004 $167 $365 forward 7 unknown #
vertex $-1 $170 $366 #
ellipse-curve $-1 76.211630897716589 -32.086505775471835 7.4311809149105095 0 -0.83867057594974714 0.54463902268945019 1.5 0 0 1 I I #
face $-1 $-1 $274 $36 $-1 $367 reversed single #
loop $-1 $-1 $270 $171 #
plane-surface $-1 79.848628192999058 0 0 -1 0 0 0 0 1 forward_v I I I I #
coedge $-1 $368 $369 $266 $370 forward $172 $-1 #
coedge $-1 $266 $174 $176 $272 reversed $108 $-1 #
coedge $-1 $174 $265 $264 $370 reversed $108 $-1 #
coedge $-1 $371 $177 $174 $268 forward $274 $-1 #
edge $-1 $276 -73.611806860723732 $372 -60.346535189591457 $267 $373 forward 7 unknown #
coedge $-1 $176 $175 $368 $374 reversed $69 $-1 #
coedge $-1 $375 $376 $175 $271 forward $262 $-1 #
edge $-1 $377 30.152647751608235 $275 45.969670610804293 $270 $378 forward 7 unknown #
edge $-1 $379 56.97055656363689 $276 72.787579422832948 $265 $380 forward 7 unknown #
coedge $-1 $177 $371 $375 $381 forward $274 $-1 #
loop $-1 $-1 $267 $261 #
vertex $-1 $271 $382 #
vertex $-1 $178 $383 #
straight-curve $-1 35.378067477396456 36.39378971141646 0.79854507934437891 -1 0 0 I I #
coedge $-1 $278 $278 $-1 $384 reversed $181 $-1 #
edge $-1 $385 0 $385 6.2831853071796004 $182 $386 forward 7 unknown #
vertex $-1 $185 $387 #
ellipse-curve $-1 65.300639011869237 32.086505775471835 7.4311809149105263 0 0.83867057594974714 0.54463902268945019 1.5 0 0 1 I I #
coedge $-1 $282 $282 $-1 $388 reversed $188 $-1 #
edge $-1 $389 0 $389 6.2831853071796004 $189 $390 forward 7 unknown #
vertex $-1 $192 $391 #
ellipse-curve $-1 70.756134954792913 32.086505775471835 7.4311809149105263 0 0.83867057594974714 0.54463902268945019 1.5 0 0 1 I I #
coedge $-1 $286 $286 $-1 $392 reversed $195 $-1 #
edge $-1 $393 0 $393 6.2831853071796004 $196 $394 forward 7 unknown #
vertex $-1 $199 $395 #
ellipse-curve $-1 76.211630897716589 32.086505775471835 7.4311809149105263 0 0.83867057594974714 0.54463902268945019 1.5 0 0 1 I I #
face $-1 $-1 $215 $30 $-1 $396 reversed single #
loop $-1 $-1 $305 $200 #
plane-surface $-1 0 36.39378971141646 0 0 -1 0 0 0 -1 forward_v I I I I #
coedge $-1 $303 $397 $203 $295 reversed $201 $-1 #
coedge $-1 $309 $203 $204 $297 reversed $127 $-1 #
edge $-1 $310 -14.063816750476656 $398 14.063816750476656 $293 $399 forward 7 unknown #
coedge $-1 $205 $204 $397 $400 forward $81 $-1 #
edge $-1 $301 -79.848628192999058 $398 79.848628192999058 $294 $401 forward 7 unknown #
coedge $-1 $306 $305 $205 $299 reversed $291 $-1 #
edge $-1 $402 -79.848628192999058 $300 79.848628192999058 $298 $403 forward 7 unknown #
vertex $-1 $207 $404 #
vertex $-1 $312 $405 #
straight-curve $-1 79.848628192999058 0 -14.063816750476656 0 -1 0 I I #
coedge $-1 $406 $293 $208 $304 reversed $201 $-1 #
edge $-1 $307 -36.39378971141646 $310 36.39378971141646 $303 $407 forward 7 unknown #
coedge $-1 $298 $209 $214 $313 forward $291 $-1 #
coedge $-1 $209 $298 $406 $408 reversed $291 $-1 #
vertex $-1 $210 $409 #
straight-curve $-1 0 36.39378971141646 14.063816750476656 -1 0 0 I I #
coedge $-1 $211 $294 $213 $312 reversed $127 $-1 #
vertex $-1 $304 $410 #
straight-curve $-1 0 -36.39378971141646 14.063816750476656 1 0 0 I I #
edge $-1 $216 -14.063816750476656 $301 14.063816750476656 $213 $411 forward 7 unknown #
edge $-1 $217 -14.063816750476656 $300 14.063816750476656 $214 $412 forward 7 unknown #
point $-1 79.848628192999058 -36.39378971141646 14.063816750476656 #
point $-1 79.848628192999058 36.39378971141646 14.063816750476656 #
face $-1 $-1 $330 $31 $-1 $413 reversed single #
loop $-1 $-1 $326 $219 #
plane-surface $-1 0 0 -14.063816750476656 0 0 1 1 0 0 forward_v I I I I #
coedge $-1 $414 $415 $320 $416 forward $220 $-1 #
coedge $-1 $223 $222 $319 $416 reversed $85 $-1 #
coedge $-1 $326 $417 $222 $322 forward $317 $-1 #
edge $-1 $418 -91.463811994539157 $324 -79.848628192999058 $222 $419 forward 7 unknown #
edge $-1 $230 -5.8075919007700492 $420 5.8075919007700492 $223 $421 forward 7 unknown #
vertex $-1 $224 $422 #
straight-curve $-1 -79.848628192999058 36.39378971141646 0 0 0 -1 I I #
coedge $-1 $423 $321 $225 $327 forward $317 $-1 #
edge $-1 $324 -36.39378971141646 $331 36.39378971141646 $326 $424 forward 7 unknown #
coedge $-1 $425 $226 $229 $334 reversed $330 $-1 #
coedge $-1 $226 $425 $423 $426 reversed $330 $-1 #
loop $-1 $-1 $226 $316 #
vertex $-1 $426 $427 #
straight-curve $-1 -79.848628192999058 -36.39378971141646 0 0 0 1 I I #
coedge $-1 $229 $228 $415 $428 forward $135 $-1 #
edge $-1 $429 -5.8075919007700492 $231 5.8075919007700492 $328 $430 forward 7 unknown #
point $-1 -79.848628192999058 36.39378971141646 -5.9470883783869288 #
point $-1 -79.848628192999058 -36.39378971141646 -5.9470883783869288 #
loop $-1 $-1 $242 $233 #
plane-surface $-1 79.848628192999058 0 0 -1 0 0 0 0 1 forward_v I I I I #
coedge $-1 $431 $236 $241 $345 forward $143 $-1 #
coedge $-1 $236 $431 $342 $432 reversed $143 $-1 #
edge $-1 $343 29.824134611323821 $350 43.089406282456117 $236 $433 forward 7 unknown #
coedge $-1 $245 $239 $340 $432 forward $234 $-1 #
vertex $-1 $432 $434 #
straight-curve $-1 61.663641716586781 -85.163589851127966 14.063816750476654 0 -1 0 I I #
edge $-1 $350 26.285574239190325 $348 44.470560715602588 $339 $435 forward 7 unknown #
coedge $-1 $347 $242 $245 $352 reversed $337 $-1 #
coedge $-1 $242 $346 $431 $436 forward $337 $-1 #
vertex $-1 $345 $437 #
straight-curve $-1 79.848628192999058 -31.178391296983293 8.8295546284601425 0 0.54463902268945019 0.83867057594974714 I I #
vertex $-1 $345 $438 #
straight-curve $-1 61.663641716586781 -36.393789711416446 0.79854507934437891 0 0.54463902268945019 0.83867057594974714 I I #
edge $-1 $439 -36.39378971141646 $246 -27.77922183952721 $346 $440 forward 7 unknown #
point $-1 79.848628192999044 -27.77922183952721 14.063816750476656 #
point $-1 61.663641716586781 -27.77922183952721 14.063816750476656 #
edge $-1 $441 1 $441 0 $249 $-1 forward 7 unknown #
vertex $-1 $250 $442 #
ellipse-curve $-1 65.300639011869237 -30.73140537039712 6.5511684506241821 0 -0.83867057594974714 0.54463902268945019 1.5 0 0 1 I I #
point $-1 66.800639011869237 -32.086505775471842 7.4311809149105148 #
edge $-1 $443 1 $443 0 $253 $-1 forward 7 unknown #
vertex $-1 $254 $444 #
ellipse-curve $-1 70.756134954792913 -30.73140537039712 6.5511684506241821 0 -0.83867057594974714 0.54463902268945019 1.5 0 0 1 I I #
point $-1 72.256134954792913 -32.086505775471842 7.4311809149105148 #
edge $-1 $445 1 $445 0 $257 $-1 forward 7 unknown #
vertex $-1 $258 $446 #
ellipse-curve $-1 76.211630897716589 -30.73140537039712 6.5511684506241821 0 -0.83867057594974714 0.54463902268945019 1.5 0 0 1 I I #
point $-1 77.711630897716589 -32.086505775471842 7.4311809149105148 #
plane-surface $-1 0 36.39378971141646 0 0 -1 0 0 0 -1 forward_v I I I I #
coedge $-1 $447 $264 $269 $374 forward $172 $-1 #
coedge $-1 $264 $447 $371 $448 forward $172 $-1 #
edge $-1 $372 28.948322079320278 $379 37.562889951209513 $264 $449 forward 7 unknown #
coedge $-1 $273 $267 $369 $448 reversed $274 $-1 #
vertex $-1 $370 $450 #
straight-curve $-1 61.663641716586781 36.39378971141646 74.410351940068111 0 0 1 I I #
edge $-1 $379 26.285574239190325 $377 44.470560715602588 $368 $451 forward 7 unknown #
coedge $-1 $376 $270 $273 $381 reversed $262 $-1 #
coedge $-1 $270 $375 $447 $452 reversed $262 $-1 #
vertex $-1 $452 $453 #
straight-curve $-1 79.848628192999058 11.356913236592069 39.35195520672778 0 0.54463902268945019 -0.83867057594974714 I I #
vertex $-1 $374 $454 #
straight-curve $-1 61.663641716586781 -3.249166409366012 61.84334623587965 0 0.54463902268945019 -0.83867057594974714 I I #
edge $-1 $455 -14.063816750476656 $275 -0.79854507934438124 $375 $456 forward 7 unknown #
point $-1 79.848628192999058 36.39378971141646 0.79854507934438124 #
point $-1 61.663641716586781 36.39378971141646 0.79854507934437891 #
edge $-1 $457 1 $457 0 $278 $-1 forward 7 unknown #
vertex $-1 $279 $458 #
ellipse-curve $-1 65.300639011869237 30.731405370397106 6.5511684506241892 0 0.83867057594974714 0.54463902268945019 1.5 0 0 1 I I #
point $-1 66.800639011869237 32.086505775471828 7.4311809149105219 #
edge $-1 $459 1 $459 0 $282 $-1 forward 7 unknown #
vertex $-1 $283 $460 #
ellipse-curve $-1 70.756134954792913 30.731405370397106 6.5511684506241892 0 0.83867057594974714 0.54463902268945019 1.5 0 0 1 I I #
point $-1 72.256134954792913 32.086505775471828 7.4311809149105219 #
edge $-1 $461 1 $461 0 $286 $-1 forward 7 unknown #
vertex $-1 $287 $462 #
ellipse-curve $-1 76.211630897716589 30.731405370397106 6.5511684506241892 0 0.83867057594974714 0.54463902268945019 1.5 0 0 1 I I #
point $-1 77.711630897716589 32.086505775471828 7.4311809149105219 #
plane-surface $-1 79.848628192999058 0 0 -1 0 0 0 0 1 forward_v I I I I #
coedge $-1 $293 $406 $296 $400 reversed $201 $-1 #
vertex $-1 $400 $463 #
straight-curve $-1 -79.848628192999058 -36.39378971141646 0 0 0 -1 I I #
edge $-1 $398 -36.39378971141646 $402 36.39378971141646 $397 $464 forward 7 unknown #
straight-curve $-1 0 -36.39378971141646 -14.063816750476656 -1 0 0 I I #
vertex $-1 $299 $465 #
straight-curve $-1 0 36.39378971141646 -14.063816750476656 1 0 0 I I #
point $-1 79.848628192999058 36.39378971141646 -14.063816750476656 #
point $-1 79.848628192999058 -36.39378971141646 -14.063816750476656 #
coedge $-1 $397 $303 $306 $408 forward $201 $-1 #
straight-curve $-1 -79.848628192999058 0 14.063816750476656 0 -1 0 I I #
edge $-1 $307 -14.063816750476656 $402 14.063816750476656 $306 $466 forward 7 unknown #
point $-1 -79.848628192999058 36.39378971141646 14.063816750476656 #
point $-1 -79.848628192999058 -36.39378971141646 14.063816750476656 #
straight-curve $-1 79.848628192999058 -36.39378971141646 0 0 0 -1 I I #
straight-curve $-1 79.848628192999058 36.39378971141646 0 0 0 -1 I I #
plane-surface $-1 0 -36.39378971141646 0 0 1 0 0 0 1 forward_v I I I I #
coedge $-1 $467 $319 $417 $468 reversed $220 $-1 #
coedge $-1 $319 $467 $333 $428 reversed $220 $-1 #
edge $-1 $420 -4.0583641860448632 $418 4.0583641860448623 $320 $469 forward 7 unknown #
coedge $-1 $321 $423 $414 $468 forward $317 $-1 #
vertex $-1 $322 $470 #
straight-curve $-1 0 36.39378971141646 -14.063816750476656 1 0 0 I I #
vertex $-1 $323 $471 #
straight-curve $-1 -85.656220093769107 36.39378971141646 -5.9470883783869288 -1 0 0 I I #
point $-1 -79.848628192999058 36.39378971141646 -14.063816750476656 #
coedge $-1 $417 $326 $329 $426 forward $317 $-1 #
straight-curve $-1 -79.848628192999058 0 -14.063816750476656 0 -1 0 I I #
coedge $-1 $329 $328 $467 $472 forward $330 $-1 #
edge $-1 $331 -5.8075919007700492 $473 5.8075919007700492 $329 $474 forward 7 unknown #
point $-1 -79.848628192999058 -36.39378971141646 -14.063816750476656 #
edge $-1 $420 -36.39378971141646 $429 36.39378971141646 $415 $475 forward 7 unknown #
vertex $-1 $428 $476 #
straight-curve $-1 -85.656220093769107 -36.39378971141646 -5.9470883783869288 1 0 0 I I #
coedge $-1 $340 $339 $347 $436 reversed $143 $-1 #
edge $-1 $343 61.663641716586781 $439 79.848628192999058 $340 $477 forward 7 unknown #
straight-curve $-1 61.663641716586781 -36.39378971141646 43.887951361800475 0 0 -1 I I #
point $-1 61.663641716586781 -36.39378971141646 14.063816750476656 #
straight-curve $-1 35.378067477396456 -36.39378971141646 0.79854507934436048 1 0 0 I I #
edge $-1 $439 -14.063816750476656 $348 -0.79854507934435703 $347 $478 forward 7 unknown #
point $-1 79.848628192999044 -36.39378971141646 0.79854507934435703 #
point $-1 61.663641716586781 -36.39378971141646 0.79854507934435703 #
vertex $-1 $352 $479 #
straight-curve $-1 79.848628192999058 0 14.063816750476656 0 1 0 I I #
vertex $-1 $355 $480 #
point $-1 66.800639011869237 -30.73140537039712 6.5511684506241821 #
vertex $-1 $359 $481 #
point $-1 72.256134954792913 -30.73140537039712 6.5511684506241821 #
vertex $-1 $363 $482 #
point $-1 77.711630897716589 -30.73140537039712 6.5511684506241821 #
coedge $-1 $369 $368 $376 $452 forward $172 $-1 #
edge $-1 $455 -79.848628192999058 $372 -61.663641716586781 $371 $483 forward 7 unknown #
straight-curve $-1 61.663641716586781 65.342111790736737 14.063816750476661 0 -1 0 I I #
point $-1 61.663641716586781 36.39378971141646 14.063816750476656 #
straight-curve $-1 35.378067477396456 27.779221839527228 14.063816750476654 1 0 0 I I #
edge $-1 $377 27.779221839527224 $455 36.39378971141646 $376 $484 forward 7 unknown #
point $-1 79.848628192999044 27.779221839527224 14.063816750476654 #
point $-1 61.663641716586781 27.779221839527224 14.063816750476654 #
vertex $-1 $452 $485 #
straight-curve $-1 79.848628192999058 36.39378971141646 0 0 0 -1 I I #
vertex $-1 $384 $486 #
point $-1 66.800639011869237 30.731405370397106 6.5511684506241892 #
vertex $-1 $388 $487 #
point $-1 72.256134954792913 30.731405370397106 6.5511684506241892 #
vertex $-1 $392 $488 #
point $-1 77.711630897716589 30.731405370397106 6.5511684506241892 #
point $-1 -79.848628192999058 -36.39378971141646 -14.063816750476656 #
straight-curve $-1 -79.848628192999058 0 -14.063816750476656 0 1 0 I I #
point $-1 -79.848628192999058 36.39378971141646 -14.063816750476656 #
straight-curve $-1 -79.848628192999058 36.39378971141646 0 0 0 -1 I I #
coedge $-1 $415 $414 $425 $472 reversed $220 $-1 #
edge $-1 $473 -36.39378971141646 $418 36.39378971141646 $414 $489 forward 7 unknown #
straight-curve $-1 -91.463811994539157 36.39378971141646 -10.005452564431792 0 0 -1 I I #
point $-1 -91.463811994539157 36.39378971141646 -14.063816750476654 #
point $-1 -91.463811994539157 36.39378971141646 -5.9470883783869288 #
edge $-1 $429 -4.0583641860448632 $473 4.0583641860448623 $467 $490 forward 7 unknown #
vertex $-1 $468 $491 #
straight-curve $-1 -85.656220093769107 -36.39378971141646 -14.063816750476654 -1 0 0 I I #
straight-curve $-1 -91.463811994539157 0 -5.9470883783869288 0 -1 0 I I #
point $-1 -91.463811994539157 -36.39378971141646 -5.9470883783869288 #
straight-curve $-1 0 -36.39378971141646 14.063816750476656 1 0 0 I I #
straight-curve $-1 79.848628192999058 -36.39378971141646 0 0 0 -1 I I #
point $-1 79.848628192999058 -36.39378971141646 14.063816750476656 #
point $-1 65.300639011869237 -29.473399506472497 5.7342099165900073 #
point $-1 70.756134954792913 -29.473399506472497 5.7342099165900073 #
point $-1 76.211630897716589 -29.473399506472497 5.7342099165900073 #
straight-curve $-1 0 36.39378971141646 14.063816750476656 -1 0 0 I I #
straight-curve $-1 79.848628192999058 0 14.063816750476656 0 1 0 I I #
point $-1 79.848628192999058 36.39378971141646 14.063816750476656 #
point $-1 65.300639011869237 29.473399506472482 5.7342099165900144 #
point $-1 70.756134954792913 29.473399506472482 5.7342099165900144 #
point $-1 76.211630897716589 29.473399506472482 5.7342099165900144 #
straight-curve $-1 -91.463811994539157 0 -14.063816750476654 0 1 0 I I #
straight-curve $-1 -91.463811994539157 -36.39378971141646 -10.005452564431792 0 0 -1 I I #
point $-1 -91.463811994539157 -36.39378971141646 -14.063816750476654 #
End-of-ACIS-data 