500 0 5 0           
7 Unknown 11 ACIS 5.0 NT 24 Fri Mar 26 18:47:17 1999 
-1 9.9999999999999995e-007 1e-010 
body $-1 $5 $-1 $6 #
body $-1 $7 $-1 $8 #
body $-1 $9 $-1 $10 #
body $-1 $11 $-1 $12 #
body $-1 $13 $-1 $14 #
lump $-1 $-1 $15 $0 #
transform $-1 1 0 0 0 1 0 0 0 1 56.089358195745717 24.139632775293599 8.0677368231915576 1 rotate no_reflect no_shear #
lump $-1 $-1 $16 $1 #
transform $-1 1 0 0 0 1 0 0 0 1 56.089358195745717 24.139632775293599 8.0677368231915576 1 rotate no_reflect no_shear #
lump $-1 $-1 $17 $2 #
transform $-1 1 0 0 0 1 0 0 0 1 56.089358195745717 24.139632775293599 8.0677368231915576 1 rotate no_reflect no_shear #
lump $-1 $-1 $18 $3 #
transform $-1 1 0 0 0 1 0 0 0 1 56.089358195745717 24.139632775293599 8.0677368231915576 1 rotate no_reflect no_shear #
lump $-1 $-1 $19 $4 #
transform $-1 1 0 0 0 1 0 0 0 1 56.089358195745717 24.139632775293599 8.0677368231915576 1 rotate no_reflect no_shear #
shell $-1 $-1 $-1 $20 $-1 $5 #
shell $-1 $-1 $-1 $21 $-1 $7 #
shell $-1 $-1 $-1 $22 $-1 $9 #
shell $-1 $-1 $-1 $23 $-1 $11 #
shell $-1 $-1 $-1 $24 $-1 $13 #
face $-1 $25 $26 $15 $-1 $27 forward single #
face $-1 $28 $29 $16 $-1 $30 forward single #
face $-1 $31 $32 $17 $-1 $33 forward single #
face $-1 $34 $35 $18 $-1 $36 reversed single #
face $-1 $37 $38 $19 $-1 $39 reversed single #
face $-1 $40 $41 $15 $-1 $42 reversed single #
loop $-1 $-1 $43 $20 #
plane-surface $-1 0 0 8.0677368231915576 0 0 1 1 0 0 forward_v I I I I #
face $-1 $44 $45 $16 $-1 $46 forward single #
loop $-1 $-1 $47 $21 #
plane-surface $-1 -51.614700376358961 -11.004159128910484 0 0 1 0 0 0 1 forward_v I I I I #
face $-1 $48 $49 $17 $-1 $50 forward single #
loop $-1 $-1 $51 $22 #
plane-surface $-1 15.301958317713613 -99.201846197654589 85.236260410957641 -1 0 0 0 -0.66913061440640931 0.74314481823134659 forward_v I I I I #
face $-1 $52 $53 $18 $-1 $54 reversed single #
loop $-1 $55 $56 $23 #
cone-surface $-1 7.6732466894685345 -19.608770444565273 3.7590232525410583 0 0.66913061440640931 -0.74314481823134659 1 0 0 1 I I 0 1 1 forward I I I I #
face $-1 $57 $58 $19 $-1 $59 reversed single #
loop $-1 $60 $61 $24 #
cone-surface $-1 12.250473666415587 -19.608770444565273 3.7590232525410583 0 0.66913061440640931 -0.74314481823134659 1 0 0 1 I I 0 1 1 forward I I I I #
face $-1 $62 $63 $15 $-1 $64 reversed single #
loop $-1 $-1 $65 $25 #
plane-surface $-1 0 0 -8.0677368231915576 0 0 1 1 0 0 forward_v I I I I #
coedge $-1 $66 $67 $68 $69 forward $26 $-1 #
face $-1 $70 $71 $16 $-1 $72 forward single #
loop $-1 $-1 $73 $28 #
plane-surface $-1 -51.614700376358961 -8.0041591289104836 0 0 -1 0 0 0 -1 forward_v I I I I #
coedge $-1 $74 $75 $76 $77 reversed $29 $-1 #
face $-1 $78 $79 $17 $-1 $80 forward single #
loop $-1 $-1 $81 $31 #
plane-surface $-1 9.9618601779420572 -24.139632775293592 1.8712286087769598 0 -0.66913061440640931 0.74314481823134659 1 0 0 forward_v I I I I #
coedge $-1 $82 $83 $84 $85 reversed $32 $-1 #
face $-1 $86 $87 $18 $-1 $88 forward single #
loop $-1 $89 $90 $34 #
cone-surface $-1 7.6732466894685345 -18.184302517283975 2.1769913799821818 0 0.66913061440640931 -0.74314481823134659 0.5 0 0 1 I I -0.70710678118654746 0.70710678118654746 0.5 forward I I I I #
loop $-1 $-1 $91 $23 #
coedge $-1 $56 $56 $92 $93 reversed $35 $-1 #
face $-1 $94 $95 $19 $-1 $96 reversed single #
loop $-1 $97 $98 $37 #
cone-surface $-1 12.250473666415587 -18.184302517283975 2.1769913799821818 0 0.66913061440640931 -0.74314481823134659 0.5 0 0 1 I I -0.70710678118654746 0.70710678118654746 0.5 forward I I I I #
loop $-1 $-1 $99 $24 #
coedge $-1 $61 $61 $100 $101 reversed $38 $-1 #
face $-1 $102 $103 $15 $-1 $104 reversed single #
loop $-1 $-1 $105 $40 #
plane-surface $-1 0 -24.139632775293599 0 0 1 0 0 0 1 forward_v I I I I #
coedge $-1 $106 $107 $108 $109 forward $41 $-1 #
coedge $-1 $110 $43 $111 $112 forward $26 $-1 #
coedge $-1 $43 $110 $113 $114 forward $26 $-1 #
coedge $-1 $115 $116 $43 $69 reversed $117 $-1 #
edge $-1 $118 -24.139632775293599 $119 24.139632775293599 $68 $120 forward 7 unknown #
face $-1 $121 $122 $16 $-1 $123 forward single #
loop $-1 $-1 $124 $44 #
plane-surface $-1 -47.140042556972205 -9.5041591289104836 0 -1 0 0 0 0 1 forward_v I I I I #
coedge $-1 $125 $126 $127 $128 reversed $45 $-1 #
coedge $-1 $129 $47 $130 $131 reversed $29 $-1 #
coedge $-1 $47 $129 $132 $133 reversed $29 $-1 #
coedge $-1 $134 $135 $47 $77 forward $136 $-1 #
edge $-1 $137 -8.0677368231915576 $138 8.0677368231915576 $76 $139 forward 7 unknown #
face $-1 $140 $141 $17 $-1 $142 forward single #
loop $-1 $-1 $143 $48 #
plane-surface $-1 4.6217620381705018 -99.201846197654589 85.236260410957641 1 0 0 0 0.66913061440640931 -0.74314481823134659 forward_v I I I I #
coedge $-1 $144 $145 $146 $147 reversed $49 $-1 #
coedge $-1 $83 $51 $145 $148 forward $32 $-1 #
coedge $-1 $51 $82 $149 $150 reversed $32 $-1 #
coedge $-1 $151 $146 $51 $85 forward $141 $-1 #
edge $-1 $152 -32.343209744834169 $153 -25.461290323533696 $84 $154 forward 7 unknown #
face $-1 $155 $156 $18 $-1 $157 forward single #
loop $-1 $-1 $158 $52 #
plane-surface $-1 15.301958317713613 -99.201846197654589 85.236260410957641 -1 0 0 0 -0.66913061440640931 0.74314481823134659 forward_v I I I I #
loop $-1 $-1 $159 $34 #
coedge $-1 $90 $90 $91 $160 forward $53 $-1 #
coedge $-1 $91 $91 $90 $160 reversed $55 $-1 #
coedge $-1 $92 $92 $56 $93 forward $156 $-1 #
edge $-1 $161 -9.2566346899853389e-016 $161 6.2831853071795996 $92 $162 forward 7 unknown #
face $-1 $163 $164 $19 $-1 $165 reversed single #
loop $-1 $166 $167 $57 #
cone-surface $-1 7.6732466894685345 -19.608770444565273 3.7590232525410583 0 0.66913061440640931 -0.74314481823134659 1 0 0 1 I I 0 1 1 forward I I I I #
loop $-1 $-1 $168 $37 #
coedge $-1 $98 $98 $99 $169 forward $58 $-1 #
coedge $-1 $99 $99 $98 $169 reversed $60 $-1 #
coedge $-1 $100 $100 $61 $101 forward $170 $-1 #
edge $-1 $171 -9.2566346899853389e-016 $171 6.2831853071795996 $100 $172 forward 7 unknown #
face $-1 $173 $174 $15 $-1 $175 reversed single #
loop $-1 $-1 $176 $62 #
plane-surface $-1 -56.089358195745717 0 0 1 0 0 0 0 -1 forward_v I I I I #
coedge $-1 $177 $113 $178 $179 forward $63 $-1 #
coedge $-1 $180 $65 $177 $181 forward $41 $-1 #
coedge $-1 $65 $180 $182 $183 forward $41 $-1 #
coedge $-1 $116 $115 $65 $109 reversed $117 $-1 #
edge $-1 $184 -24.139632775293599 $185 24.139632775293599 $108 $186 forward 7 unknown #
coedge $-1 $67 $66 $187 $188 forward $26 $-1 #
coedge $-1 $189 $190 $66 $112 reversed $174 $-1 #
edge $-1 $119 -56.089358195745717 $191 56.089358195745717 $111 $192 forward 7 unknown #
coedge $-1 $105 $193 $67 $114 reversed $63 $-1 #
edge $-1 $194 -56.089358195745717 $118 56.089358195745717 $113 $195 forward 7 unknown #
coedge $-1 $108 $68 $193 $196 forward $117 $-1 #
coedge $-1 $68 $108 $189 $197 reversed $117 $-1 #
loop $-1 $-1 $115 $173 #
vertex $-1 $69 $198 #
vertex $-1 $69 $199 #
straight-curve $-1 56.089358195745717 0 8.0677368231915576 0 1 0 I I #
face $-1 $200 $136 $16 $-1 $201 reversed single #
loop $-1 $-1 $202 $70 #
plane-surface $-1 0 0 8.0677368231915576 0 0 1 1 0 0 forward_v I I I I #
coedge $-1 $203 $204 $129 $205 reversed $71 $-1 #
coedge $-1 $206 $73 $202 $207 reversed $45 $-1 #
coedge $-1 $73 $206 $208 $209 reversed $45 $-1 #
coedge $-1 $204 $203 $73 $128 forward $71 $-1 #
edge $-1 $210 -8.0677368231915576 $211 8.0677368231915576 $127 $212 forward 7 unknown #
coedge $-1 $75 $74 $124 $205 forward $29 $-1 #
coedge $-1 $213 $214 $74 $131 forward $122 $-1 #
edge $-1 $215 21.332692368792724 $137 30.282008007566237 $130 $216 forward 7 unknown #
coedge $-1 $217 $218 $75 $133 forward $219 $-1 #
edge $-1 $138 -30.282008007566237 $220 -21.332692368792724 $132 $221 forward 7 unknown #
coedge $-1 $222 $76 $218 $223 reversed $136 $-1 #
coedge $-1 $76 $222 $213 $224 reversed $136 $-1 #
loop $-1 $-1 $76 $121 #
vertex $-1 $224 $225 #
vertex $-1 $77 $226 #
straight-curve $-1 -56.089358195745717 -11.004159128910484 0 0 0 -1 I I #
face $-1 $227 $228 $17 $-1 $229 forward single #
loop $-1 $-1 $230 $78 #
plane-surface $-1 0 0 8.0677368231915576 0 0 1 1 0 0 forward_v I I I I #
coedge $-1 $231 $232 $230 $233 reversed $79 $-1 #
coedge $-1 $234 $81 $232 $235 reversed $49 $-1 #
coedge $-1 $81 $234 $82 $148 reversed $49 $-1 #
coedge $-1 $84 $230 $81 $147 forward $141 $-1 #
edge $-1 $236 -0.35916805080052683 $152 10.321028228742584 $146 $237 forward 7 unknown #
edge $-1 $152 -9.2605361061107114 $238 9.5890899667747578e-015 $82 $239 forward 7 unknown #
coedge $-1 $240 $241 $83 $150 forward $242 $-1 #
edge $-1 $153 34.550393382287261 $238 40.746901596701868 $149 $243 forward 7 unknown #
coedge $-1 $244 $84 $241 $245 forward $141 $-1 #
vertex $-1 $147 $246 #
vertex $-1 $245 $247 #
straight-curve $-1 15.301958317713613 -49.600923098827295 8.0677368231915594 0 -1 0 I I #
face $-1 $248 $249 $18 $-1 $250 forward single #
loop $-1 $251 $92 $86 #
plane-surface $-1 9.9618601779420572 -24.139632775293592 1.8712286087769598 0 -0.66913061440640931 0.74314481823134659 1 0 0 forward_v I I I I #
coedge $-1 $252 $253 $254 $255 reversed $87 $-1 #
coedge $-1 $159 $159 $-1 $256 forward $89 $-1 #
edge $-1 $257 0 $257 6.2831853071796004 $90 $258 forward 7 unknown #
vertex $-1 $93 $259 #
ellipse-curve $-1 7.6732466894685345 -20.698673064643362 4.9694827159842561 0 0.66913061440640931 -0.74314481823134659 1 0 0 1 I I #
face $-1 $260 $261 $19 $-1 $262 forward single #
loop $-1 $263 $264 $94 #
cone-surface $-1 7.6732466894685345 -18.184302517283975 2.1769913799821818 0 0.66913061440640931 -0.74314481823134659 0.5 0 0 1 I I -0.70710678118654746 0.70710678118654746 0.5 forward I I I I #
loop $-1 $-1 $265 $57 #
coedge $-1 $167 $167 $266 $267 reversed $95 $-1 #
coedge $-1 $168 $168 $-1 $268 forward $97 $-1 #
edge $-1 $269 0 $269 6.2831853071796004 $98 $270 forward 7 unknown #
loop $-1 $271 $100 $260 #
vertex $-1 $101 $272 #
ellipse-curve $-1 12.250473666415587 -20.698673064643362 4.9694827159842561 0 0.66913061440640931 -0.74314481823134659 1 0 0 1 I I #
face $-1 $-1 $117 $15 $-1 $273 reversed single #
loop $-1 $-1 $189 $102 #
plane-surface $-1 0 24.139632775293599 0 0 -1 0 0 0 -1 forward_v I I I I #
coedge $-1 $274 $187 $190 $275 forward $103 $-1 #
coedge $-1 $193 $105 $106 $181 reversed $63 $-1 #
coedge $-1 $187 $274 $105 $179 reversed $103 $-1 #
edge $-1 $194 -8.0677368231915576 $276 8.0677368231915576 $178 $277 forward 7 unknown #
coedge $-1 $107 $106 $274 $278 forward $41 $-1 #
edge $-1 $185 -56.089358195745717 $276 56.089358195745717 $177 $279 forward 7 unknown #
coedge $-1 $190 $189 $107 $183 reversed $174 $-1 #
edge $-1 $280 -56.089358195745717 $184 56.089358195745717 $182 $281 forward 7 unknown #
vertex $-1 $109 $282 #
vertex $-1 $196 $283 #
straight-curve $-1 56.089358195745717 0 -8.0677368231915576 0 -1 0 I I #
coedge $-1 $176 $178 $110 $188 reversed $103 $-1 #
edge $-1 $191 -24.139632775293599 $194 24.139632775293599 $187 $284 forward 7 unknown #
coedge $-1 $182 $111 $116 $197 forward $174 $-1 #
coedge $-1 $111 $182 $176 $275 reversed $174 $-1 #
vertex $-1 $112 $285 #
straight-curve $-1 0 24.139632775293599 8.0677368231915576 -1 0 0 I I #
coedge $-1 $113 $177 $115 $196 reversed $63 $-1 #
vertex $-1 $188 $286 #
straight-curve $-1 0 -24.139632775293599 8.0677368231915576 1 0 0 I I #
edge $-1 $118 -8.0677368231915576 $185 8.0677368231915576 $115 $287 forward 7 unknown #
edge $-1 $119 -8.0677368231915576 $184 8.0677368231915576 $116 $288 forward 7 unknown #
point $-1 56.089358195745717 -24.139632775293599 8.0677368231915576 #
point $-1 56.089358195745717 24.139632775293599 8.0677368231915576 #
face $-1 $289 $219 $16 $-1 $290 reversed single #
plane-surface $-1 -56.089358195745717 0 0 1 0 0 0 0 -1 forward_v I I I I #
coedge $-1 $214 $291 $125 $207 forward $122 $-1 #
coedge $-1 $127 $124 $214 $292 reversed $71 $-1 #
coedge $-1 $124 $127 $217 $293 reversed $71 $-1 #
edge $-1 $215 -8.0677368231915576 $220 8.0677368231915576 $124 $294 forward 7 unknown #
coedge $-1 $126 $125 $295 $296 reversed $45 $-1 #
edge $-1 $297 -30.282008007566237 $210 -21.332692368792724 $202 $298 forward 7 unknown #
coedge $-1 $299 $217 $126 $209 forward $219 $-1 #
edge $-1 $211 21.332692368792724 $300 30.282008007566237 $208 $301 forward 7 unknown #
vertex $-1 $207 $302 #
vertex $-1 $209 $303 #
straight-curve $-1 -47.140042556972205 -8.0041591289104836 0 0 0 -1 I I #
coedge $-1 $304 $130 $135 $224 forward $122 $-1 #
coedge $-1 $130 $202 $203 $292 forward $122 $-1 #
vertex $-1 $131 $305 #
straight-curve $-1 -25.80735018817948 -11.004159128910484 8.0677368231915576 -1 0 0 I I #
coedge $-1 $208 $132 $204 $293 forward $219 $-1 #
coedge $-1 $132 $306 $134 $223 forward $219 $-1 #
loop $-1 $-1 $208 $200 #
vertex $-1 $133 $307 #
straight-curve $-1 -25.80735018817948 -11.004159128910484 -8.0677368231915576 1 0 0 I I #
coedge $-1 $135 $134 $308 $309 reversed $136 $-1 #
edge $-1 $310 -24.139632775293599 $138 -11.004159128910484 $134 $311 forward 7 unknown #
edge $-1 $137 11.004159128910484 $312 24.139632775293599 $135 $313 forward 7 unknown #
point $-1 -56.089358195745717 -11.004159128910484 8.0677368231915576 #
point $-1 -56.089358195745717 -11.004159128910484 -8.0677368231915576 #
face $-1 $314 $315 $17 $-1 $316 forward single #
loop $-1 $-1 $317 $140 #
plane-surface $-1 -51.614700376358961 -11.004159128910484 0 0 1 0 0 0 1 forward_v I I I I #
coedge $-1 $146 $318 $143 $233 forward $141 $-1 #
coedge $-1 $232 $143 $319 $320 reversed $79 $-1 #
coedge $-1 $143 $231 $144 $235 forward $79 $-1 #
edge $-1 $321 25.461290323533696 $236 32.343209744834169 $230 $322 forward 7 unknown #
coedge $-1 $145 $144 $240 $323 reversed $49 $-1 #
edge $-1 $324 -9.5890899667747578e-015 $236 9.2605361061107114 $232 $325 forward 7 unknown #
vertex $-1 $147 $326 #
straight-curve $-1 4.9809300889710286 -17.257713353993125 8.0677368231915576 1 0 0 I I #
vertex $-1 $323 $327 #
straight-curve $-1 15.301958317713613 -24.139632775293592 1.8712286087769598 0 -0.74314481823134659 -0.66913061440640931 I I #
coedge $-1 $319 $149 $234 $323 forward $242 $-1 #
coedge $-1 $149 $328 $151 $245 reversed $242 $-1 #
loop $-1 $-1 $319 $329 #
straight-curve $-1 15.301958317713613 -24.139632775293599 42.61813020547882 0 0 -1 I I #
coedge $-1 $330 $151 $331 $332 forward $141 $-1 #
edge $-1 $153 15.301958317713613 $333 56.089358195745717 $241 $334 forward 7 unknown #
point $-1 15.301958317713613 -17.257713353993125 8.0677368231915576 #
point $-1 15.301958317713613 -24.139632775293599 8.0677368231915576 #
face $-1 $335 $336 $18 $-1 $337 forward single #
loop $-1 $-1 $338 $155 #
plane-surface $-1 4.6217620381705018 -99.201846197654589 85.236260410957641 1 0 0 0 0.66913061440640931 -0.74314481823134659 forward_v I I I I #
loop $-1 $-1 $339 $86 #
coedge $-1 $253 $158 $340 $341 forward $87 $-1 #
coedge $-1 $158 $252 $342 $343 reversed $87 $-1 #
coedge $-1 $344 $345 $158 $255 forward $336 $-1 #
edge $-1 $346 -32.343209744834169 $347 -25.461290323533696 $254 $348 forward 7 unknown #
edge $-1 $349 1 $349 0 $159 $-1 forward 7 unknown #
vertex $-1 $160 $350 #
ellipse-curve $-1 7.6732466894685345 -18.518867824487181 2.5485637890978552 0 -0.66913061440640931 0.74314481823134659 1 0 0 1 I I #
point $-1 8.6732466894685345 -20.698673064643366 4.9694827159842614 #
face $-1 $351 $170 $19 $-1 $352 forward single #
loop $-1 $-1 $353 $163 #
plane-surface $-1 15.301958317713613 -99.201846197654589 85.236260410957641 -1 0 0 0 -0.66913061440640931 0.74314481823134659 forward_v I I I I #
loop $-1 $-1 $354 $94 #
coedge $-1 $264 $264 $265 $355 forward $164 $-1 #
coedge $-1 $265 $265 $264 $355 reversed $166 $-1 #
coedge $-1 $266 $266 $167 $267 forward $271 $-1 #
edge $-1 $356 -9.2566346899853389e-016 $356 6.2831853071795996 $266 $357 forward 7 unknown #
edge $-1 $358 1 $358 0 $168 $-1 forward 7 unknown #
vertex $-1 $169 $359 #
ellipse-curve $-1 12.250473666415587 -18.518867824487181 2.5485637890978552 0 -0.66913061440640931 0.74314481823134659 1 0 0 1 I I #
loop $-1 $360 $266 $260 #
point $-1 13.250473666415587 -20.698673064643366 4.9694827159842614 #
plane-surface $-1 56.089358195745717 0 0 -1 0 0 0 0 1 forward_v I I I I #
coedge $-1 $178 $176 $180 $278 reversed $103 $-1 #
edge $-1 $191 -8.0677368231915576 $280 8.0677368231915576 $190 $361 forward 7 unknown #
vertex $-1 $278 $362 #
straight-curve $-1 -56.089358195745717 -24.139632775293599 0 0 0 -1 I I #
edge $-1 $276 -24.139632775293599 $280 24.139632775293599 $274 $363 forward 7 unknown #
straight-curve $-1 0 -24.139632775293599 -8.0677368231915576 -1 0 0 I I #
vertex $-1 $183 $364 #
straight-curve $-1 0 24.139632775293599 -8.0677368231915576 1 0 0 I I #
point $-1 56.089358195745717 24.139632775293599 -8.0677368231915576 #
point $-1 56.089358195745717 -24.139632775293599 -8.0677368231915576 #
straight-curve $-1 -56.089358195745717 0 8.0677368231915576 0 -1 0 I I #
point $-1 -56.089358195745717 24.139632775293599 8.0677368231915576 #
point $-1 -56.089358195745717 -24.139632775293599 8.0677368231915576 #
straight-curve $-1 56.089358195745717 -24.139632775293599 0 0 0 -1 I I #
straight-curve $-1 56.089358195745717 24.139632775293599 0 0 0 -1 I I #
face $-1 $365 $366 $16 $-1 $367 reversed single #
plane-surface $-1 0 0 -8.0677368231915576 0 0 1 1 0 0 forward_v I I I I #
coedge $-1 $202 $368 $369 $370 forward $122 $-1 #
edge $-1 $210 3.2520795644552418 $215 6.2520795644552418 $214 $371 forward 7 unknown #
edge $-1 $220 -6.2520795644552418 $211 -3.2520795644552418 $217 $372 forward 7 unknown #
straight-curve $-1 -47.140042556972205 -11.004159128910484 0 0 0 -1 I I #
coedge $-1 $369 $373 $206 $296 forward $374 $-1 #
edge $-1 $300 -8.0677368231915576 $297 8.0677368231915576 $295 $375 forward 7 unknown #
vertex $-1 $296 $376 #
straight-curve $-1 -25.80735018817948 -8.0041591289104836 8.0677368231915576 1 0 0 I I #
coedge $-1 $377 $208 $373 $378 forward $219 $-1 #
vertex $-1 $378 $379 #
straight-curve $-1 -25.80735018817948 -8.0041591289104836 -8.0677368231915576 -1 0 0 I I #
point $-1 -47.140042556972205 -8.0041591289104836 8.0677368231915576 #
point $-1 -47.140042556972205 -8.0041591289104836 -8.0677368231915576 #
coedge $-1 $380 $213 $381 $382 forward $122 $-1 #
point $-1 -47.140042556972205 -11.004159128910484 8.0677368231915576 #
coedge $-1 $218 $383 $384 $385 forward $219 $-1 #
point $-1 -47.140042556972205 -11.004159128910484 -8.0677368231915576 #
coedge $-1 $384 $381 $222 $309 forward $366 $-1 #
edge $-1 $312 -8.0677368231915576 $310 8.0677368231915576 $222 $386 forward 7 unknown #
vertex $-1 $223 $387 #
straight-curve $-1 -56.089358195745717 0 -8.0677368231915576 0 1 0 I I #
vertex $-1 $224 $388 #
straight-curve $-1 -56.089358195745717 0 8.0677368231915576 0 -1 0 I I #
face $-1 $389 $390 $17 $-1 $391 forward single #
loop $-1 $-1 $392 $227 #
plane-surface $-1 -51.614700376358961 -8.0041591289104836 0 0 -1 0 0 0 -1 forward_v I I I I #
coedge $-1 $393 $394 $395 $396 reversed $228 $-1 #
coedge $-1 $230 $397 $398 $399 forward $141 $-1 #
coedge $-1 $398 $240 $231 $320 forward $242 $-1 #
edge $-1 $324 -40.746901596701868 $321 -34.550393382287261 $319 $400 forward 7 unknown #
vertex $-1 $320 $401 #
straight-curve $-1 4.6217620381705018 -49.600923098827295 8.0677368231915594 0 1 0 I I #
edge $-1 $238 -10.321028228742584 $324 0.35916805080052683 $240 $402 forward 7 unknown #
vertex $-1 $323 $403 #
straight-curve $-1 4.6217620381705018 -24.139632775293592 1.8712286087769598 0 0.74314481823134659 0.66913061440640931 I I #
point $-1 4.6217620381705018 -17.257713353993125 8.0677368231915576 #
point $-1 15.301958317713613 -24.139632775293599 1.8712286087769534 #
coedge $-1 $241 $404 $405 $406 reversed $242 $-1 #
face $-1 $407 $242 $17 $-1 $408 reversed single #
coedge $-1 $409 $244 $410 $411 forward $141 $-1 #
coedge $-1 $405 $412 $244 $332 reversed $413 $-1 #
edge $-1 $333 -24.139632775293599 $414 24.139632775293599 $331 $415 forward 7 unknown #
vertex $-1 $332 $416 #
straight-curve $-1 0 -24.139632775293599 8.0677368231915576 1 0 0 I I #
face $-1 $417 $418 $18 $-1 $419 forward single #
loop $-1 $-1 $420 $248 #
plane-surface $-1 0 0 8.0677368231915576 0 0 1 1 0 0 forward_v I I I I #
coedge $-1 $421 $422 $420 $423 reversed $249 $-1 #
coedge $-1 $424 $340 $345 $425 reversed $251 $-1 #
coedge $-1 $339 $426 $252 $341 reversed $251 $-1 #
edge $-1 $346 -9.2605361061107114 $427 9.5890899667747578e-015 $252 $428 forward 7 unknown #
coedge $-1 $429 $430 $253 $343 forward $431 $-1 #
edge $-1 $347 34.550393382287261 $427 40.746901596701868 $342 $432 forward 7 unknown #
coedge $-1 $433 $254 $430 $434 forward $336 $-1 #
coedge $-1 $254 $420 $339 $425 forward $336 $-1 #
vertex $-1 $425 $435 #
vertex $-1 $434 $436 #
straight-curve $-1 15.301958317713613 -49.600923098827295 8.0677368231915594 0 -1 0 I I #
vertex $-1 $256 $437 #
point $-1 8.6732466894685345 -18.518867824487181 2.5485637890978552 #
face $-1 $438 $439 $19 $-1 $440 forward single #
plane-surface $-1 9.9618601779420572 -24.139632775293592 1.8712286087769598 0 -0.66913061440640931 0.74314481823134659 1 0 0 forward_v I I I I #
coedge $-1 $441 $442 $443 $444 reversed $261 $-1 #
coedge $-1 $354 $354 $-1 $445 forward $263 $-1 #
edge $-1 $446 0 $446 6.2831853071796004 $264 $447 forward 7 unknown #
vertex $-1 $267 $448 #
ellipse-curve $-1 7.6732466894685345 -20.698673064643362 4.9694827159842561 0 0.66913061440640931 -0.74314481823134659 1 0 0 1 I I #
vertex $-1 $268 $449 #
point $-1 13.250473666415587 -18.518867824487181 2.5485637890978552 #
loop $-1 $-1 $450 $260 #
straight-curve $-1 -56.089358195745717 24.139632775293599 0 0 0 -1 I I #
point $-1 -56.089358195745717 -24.139632775293599 -8.0677368231915576 #
straight-curve $-1 -56.089358195745717 0 -8.0677368231915576 0 1 0 I I #
point $-1 -56.089358195745717 24.139632775293599 -8.0677368231915576 #
face $-1 $451 $374 $16 $-1 $201 reversed single #
loop $-1 $-1 $308 $289 #
plane-surface $-1 0 -24.139632775293599 0 0 1 0 0 0 1 forward_v I I I I #
coedge $-1 $291 $380 $452 $453 forward $122 $-1 #
coedge $-1 $454 $295 $291 $370 reversed $374 $-1 #
edge $-1 $455 -24.139632775293599 $297 8.0041591289104836 $369 $313 forward 7 unknown #
straight-curve $-1 -47.140042556972205 -4.7520795644552418 8.0677368231915576 0 -1 0 I I #
straight-curve $-1 -47.140042556972205 -4.7520795644552418 -8.0677368231915576 0 1 0 I I #
coedge $-1 $295 $454 $299 $378 reversed $374 $-1 #
loop $-1 $-1 $295 $365 #
straight-curve $-1 -56.089358195745717 -8.0041591289104836 0 0 0 1 I I #
point $-1 -56.089358195745717 -8.0041591289104836 8.0677368231915576 #
coedge $-1 $383 $299 $456 $457 forward $219 $-1 #
edge $-1 $300 -8.0041591289104836 $458 24.139632775293599 $373 $311 forward 7 unknown #
point $-1 -56.089358195745717 -8.0041591289104836 -8.0677368231915576 #
coedge $-1 $368 $304 $459 $460 forward $122 $-1 #
coedge $-1 $308 $461 $304 $382 reversed $366 $-1 #
edge $-1 $312 -56.089358195745717 $462 56.089358195745717 $381 $463 forward 7 unknown #
coedge $-1 $306 $377 $464 $465 forward $219 $-1 #
coedge $-1 $461 $308 $306 $385 reversed $366 $-1 #
edge $-1 $466 -56.089358195745717 $310 56.089358195745717 $384 $467 forward 7 unknown #
straight-curve $-1 -56.089358195745717 -24.139632775293599 0 0 0 -1 I I #
point $-1 -56.089358195745717 -24.139632775293599 -8.0677368231915576 #
point $-1 -56.089358195745717 -24.139632775293599 8.0677368231915576 #
face $-1 $468 $469 $17 $-1 $470 reversed single #
loop $-1 $-1 $471 $314 #
plane-surface $-1 -47.140042556972205 -9.5041591289104836 0 -1 0 0 0 0 1 forward_v I I I I #
coedge $-1 $472 $473 $474 $475 reversed $315 $-1 #
coedge $-1 $476 $317 $477 $478 reversed $228 $-1 #
coedge $-1 $317 $476 $479 $480 reversed $228 $-1 #
coedge $-1 $481 $482 $317 $396 forward $469 $-1 #
edge $-1 $483 -8.0677368231915576 $484 8.0677368231915576 $395 $485 forward 7 unknown #
coedge $-1 $318 $477 $482 $486 forward $141 $-1 #
coedge $-1 $487 $319 $318 $399 reversed $242 $-1 #
edge $-1 $488 -56.089358195745717 $321 4.6217620381705018 $398 $334 forward 7 unknown #
straight-curve $-1 4.6217620381705018 -24.139632775293599 42.61813020547882 0 0 1 I I #
point $-1 4.6217620381705018 -24.139632775293599 8.0677368231915576 #
straight-curve $-1 4.9809300889710286 -24.139632775293599 1.8712286087769539 -1 0 0 I I #
point $-1 4.6217620381705018 -24.139632775293599 1.8712286087769534 #
coedge $-1 $328 $487 $489 $490 reversed $242 $-1 #
coedge $-1 $491 $331 $328 $406 forward $413 $-1 #
edge $-1 $333 -8.0677368231915576 $492 8.0677368231915576 $405 $493 forward 7 unknown #
face $-1 $494 $495 $17 $-1 $470 reversed single #
plane-surface $-1 0 -24.139632775293599 0 0 1 0 0 0 1 forward_v I I I I #
coedge $-1 $496 $330 $497 $498 forward $141 $-1 #
coedge $-1 $499 $500 $330 $411 reversed $501 $-1 #
edge $-1 $414 -56.089358195745717 $502 56.089358195745717 $410 $503 forward 7 unknown #
coedge $-1 $331 $491 $499 $504 reversed $413 $-1 #
loop $-1 $-1 $405 $505 #
vertex $-1 $332 $506 #
straight-curve $-1 56.089358195745717 0 8.0677368231915576 0 1 0 I I #
point $-1 56.089358195745717 -24.139632775293599 8.0677368231915576 #
face $-1 $507 $508 $18 $-1 $509 forward single #
loop $-1 $-1 $510 $335 #
plane-surface $-1 -51.614700376358961 -11.004159128910484 0 0 1 0 0 0 1 forward_v I I I I #
coedge $-1 $345 $511 $338 $423 forward $336 $-1 #
coedge $-1 $422 $338 $512 $513 reversed $249 $-1 #
coedge $-1 $338 $421 $424 $514 forward $249 $-1 #
edge $-1 $515 25.461290323533696 $516 32.343209744834169 $420 $517 forward 7 unknown #
coedge $-1 $426 $339 $422 $514 reversed $251 $-1 #
edge $-1 $516 -0.35916805080052683 $346 10.321028228742584 $345 $518 forward 7 unknown #
coedge $-1 $340 $424 $429 $519 reversed $251 $-1 #
vertex $-1 $519 $520 #
straight-curve $-1 15.301958317713613 -24.139632775293592 1.8712286087769598 0 -0.74314481823134659 -0.66913061440640931 I I #
coedge $-1 $512 $342 $426 $519 forward $431 $-1 #
coedge $-1 $342 $521 $344 $434 reversed $431 $-1 #
loop $-1 $-1 $512 $522 #
straight-curve $-1 15.301958317713613 -24.139632775293599 42.61813020547882 0 0 -1 I I #
coedge $-1 $523 $344 $524 $525 forward $336 $-1 #
edge $-1 $347 15.301958317713613 $526 56.089358195745717 $430 $527 forward 7 unknown #
point $-1 15.301958317713613 -17.257713353993125 8.0677368231915576 #
point $-1 15.301958317713613 -24.139632775293599 8.0677368231915576 #
point $-1 7.6732466894685345 -17.849737210080768 1.8054189708665085 #
face $-1 $528 $529 $19 $-1 $530 forward single #
loop $-1 $-1 $531 $351 #
plane-surface $-1 4.6217620381705018 -99.201846197654589 85.236260410957641 1 0 0 0 0.66913061440640931 -0.74314481823134659 forward_v I I I I #
coedge $-1 $442 $353 $532 $533 forward $261 $-1 #
coedge $-1 $353 $441 $534 $535 reversed $261 $-1 #
coedge $-1 $536 $537 $353 $444 forward $529 $-1 #
edge $-1 $538 -32.343209744834169 $539 -25.461290323533696 $443 $540 forward 7 unknown #
edge $-1 $541 1 $541 0 $354 $-1 forward 7 unknown #
vertex $-1 $355 $542 #
ellipse-curve $-1 7.6732466894685345 -18.518867824487181 2.5485637890978552 0 -0.66913061440640931 0.74314481823134659 1 0 0 1 I I #
point $-1 8.6732466894685345 -20.698673064643366 4.9694827159842614 #
point $-1 12.250473666415587 -17.849737210080768 1.8054189708665085 #
coedge $-1 $543 $532 $537 $544 reversed $360 $-1 #
face $-1 $545 $546 $16 $-1 $547 reversed single #
coedge $-1 $548 $549 $368 $453 reversed $546 $-1 #
edge $-1 $550 -56.089358195745717 $455 56.089358195745717 $452 $551 forward 7 unknown #
coedge $-1 $373 $369 $549 $552 forward $374 $-1 #
vertex $-1 $453 $553 #
coedge $-1 $549 $548 $377 $457 reversed $546 $-1 #
edge $-1 $458 -56.089358195745717 $554 56.089358195745717 $456 $555 forward 7 unknown #
vertex $-1 $457 $556 #
coedge $-1 $557 $558 $380 $460 reversed $559 $-1 #
edge $-1 $462 -24.139632775293599 $550 24.139632775293599 $459 $560 forward 7 unknown #
coedge $-1 $381 $384 $557 $561 reversed $366 $-1 #
vertex $-1 $460 $562 #
straight-curve $-1 0 -24.139632775293599 8.0677368231915576 1 0 0 I I #
coedge $-1 $558 $557 $383 $465 reversed $559 $-1 #
edge $-1 $554 -24.139632775293599 $466 24.139632775293599 $464 $563 forward 7 unknown #
vertex $-1 $561 $564 #
straight-curve $-1 0 -24.139632775293599 -8.0677368231915576 -1 0 0 I I #
face $-1 $329 $565 $17 $-1 $566 reversed single #
loop $-1 $-1 $395 $389 #
plane-surface $-1 -56.089358195745717 0 0 1 0 0 0 0 -1 forward_v I I I I #
coedge $-1 $567 $568 $476 $569 reversed $390 $-1 #
coedge $-1 $570 $392 $496 $571 reversed $315 $-1 #
coedge $-1 $392 $570 $572 $573 reversed $315 $-1 #
coedge $-1 $568 $567 $392 $475 forward $390 $-1 #
edge $-1 $574 -8.0677368231915576 $575 8.0677368231915576 $474 $576 forward 7 unknown #
coedge $-1 $394 $393 $471 $569 forward $228 $-1 #
coedge $-1 $397 $577 $393 $478 forward $141 $-1 #
edge $-1 $578 21.332692368792724 $483 30.282008007566237 $477 $579 forward 7 unknown #
coedge $-1 $580 $581 $394 $480 forward $565 $-1 #
edge $-1 $484 -30.282008007566237 $582 -21.332692368792724 $479 $583 forward 7 unknown #
coedge $-1 $584 $395 $581 $585 reversed $469 $-1 #
coedge $-1 $395 $584 $397 $486 reversed $469 $-1 #
vertex $-1 $486 $586 #
vertex $-1 $396 $587 #
straight-curve $-1 -56.089358195745717 -11.004159128910484 0 0 0 -1 I I #
edge $-1 $483 11.004159128910484 $488 24.139632775293599 $482 $588 forward 7 unknown #
coedge $-1 $404 $398 $584 $589 forward $242 $-1 #
vertex $-1 $486 $590 #
coedge $-1 $581 $591 $404 $490 forward $565 $-1 #
edge $-1 $492 -56.089358195745717 $592 56.089358195745717 $404 $593 forward 7 unknown #
coedge $-1 $412 $405 $591 $594 reversed $413 $-1 #
vertex $-1 $406 $595 #
straight-curve $-1 56.089358195745717 -24.139632775293599 0 0 0 -1 I I #
face $-1 $505 $501 $17 $-1 $596 reversed single #
loop $-1 $-1 $597 $407 #
coedge $-1 $577 $409 $472 $571 forward $141 $-1 #
coedge $-1 $598 $597 $409 $498 reversed $495 $-1 #
edge $-1 $502 -24.139632775293599 $599 8.0041591289104836 $497 $588 forward 7 unknown #
coedge $-1 $600 $410 $412 $504 forward $501 $-1 #
coedge $-1 $410 $600 $598 $601 reversed $501 $-1 #
loop $-1 $-1 $499 $494 #
vertex $-1 $411 $602 #
straight-curve $-1 0 24.139632775293599 8.0677368231915576 -1 0 0 I I #
edge $-1 $414 -8.0677368231915576 $603 8.0677368231915576 $412 $604 forward 7 unknown #
face $-1 $-1 $413 $17 $-1 $605 reversed single #
point $-1 56.089358195745717 24.139632775293599 8.0677368231915576 #
face $-1 $606 $607 $18 $-1 $608 forward single #
loop $-1 $-1 $609 $417 #
plane-surface $-1 -51.614700376358961 -8.0041591289104836 0 0 -1 0 0 0 -1 forward_v I I I I #
coedge $-1 $610 $611 $612 $613 reversed $418 $-1 #
coedge $-1 $420 $614 $615 $616 forward $336 $-1 #
coedge $-1 $615 $429 $421 $513 forward $431 $-1 #
edge $-1 $617 -40.746901596701868 $515 -34.550393382287261 $512 $618 forward 7 unknown #
edge $-1 $617 -9.5890899667747578e-015 $516 9.2605361061107114 $422 $619 forward 7 unknown #
vertex $-1 $513 $620 #
vertex $-1 $425 $621 #
straight-curve $-1 4.6217620381705018 -49.600923098827295 8.0677368231915594 0 1 0 I I #
straight-curve $-1 4.9809300889710286 -17.257713353993125 8.0677368231915576 1 0 0 I I #
edge $-1 $427 -10.321028228742584 $617 0.35916805080052683 $429 $622 forward 7 unknown #
point $-1 15.301958317713613 -24.139632775293599 1.8712286087769534 #
coedge $-1 $430 $623 $624 $625 reversed $431 $-1 #
face $-1 $626 $431 $18 $-1 $627 reversed single #
coedge $-1 $628 $433 $629 $630 forward $336 $-1 #
coedge $-1 $624 $631 $433 $525 reversed $632 $-1 #
edge $-1 $526 -24.139632775293599 $633 24.139632775293599 $524 $634 forward 7 unknown #
vertex $-1 $525 $635 #
straight-curve $-1 0 -24.139632775293599 8.0677368231915576 1 0 0 I I #
face $-1 $636 $637 $19 $-1 $638 forward single #
loop $-1 $-1 $639 $438 #
plane-surface $-1 0 0 8.0677368231915576 0 0 1 1 0 0 forward_v I I I I #
coedge $-1 $640 $641 $639 $642 reversed $439 $-1 #
coedge $-1 $450 $643 $441 $533 reversed $360 $-1 #
edge $-1 $538 -9.2605361061107114 $644 9.5890899667747578e-015 $441 $645 forward 7 unknown #
coedge $-1 $646 $647 $442 $535 forward $648 $-1 #
edge $-1 $539 34.550393382287261 $644 40.746901596701868 $534 $649 forward 7 unknown #
coedge $-1 $650 $443 $647 $651 forward $529 $-1 #
coedge $-1 $443 $639 $450 $544 forward $529 $-1 #
vertex $-1 $544 $652 #
vertex $-1 $651 $653 #
straight-curve $-1 15.301958317713613 -49.600923098827295 8.0677368231915594 0 -1 0 I I #
vertex $-1 $445 $654 #
point $-1 8.6732466894685345 -18.518867824487181 2.5485637890978552 #
coedge $-1 $643 $450 $641 $655 reversed $360 $-1 #
edge $-1 $656 -0.35916805080052683 $538 10.321028228742584 $537 $657 forward 7 unknown #
face $-1 $-1 $559 $16 $-1 $658 reversed single #
loop $-1 $-1 $548 $451 #
plane-surface $-1 0 24.139632775293599 0 0 -1 0 0 0 -1 forward_v I I I I #
coedge $-1 $456 $452 $558 $659 forward $546 $-1 #
coedge $-1 $452 $456 $454 $552 reversed $546 $-1 #
vertex $-1 $460 $660 #
straight-curve $-1 0 24.139632775293599 8.0677368231915576 -1 0 0 I I #
edge $-1 $455 -8.0677368231915576 $458 8.0677368231915576 $549 $661 forward 7 unknown #
point $-1 -56.089358195745717 24.139632775293599 8.0677368231915576 #
vertex $-1 $465 $662 #
straight-curve $-1 0 24.139632775293599 -8.0677368231915576 1 0 0 I I #
point $-1 -56.089358195745717 24.139632775293599 -8.0677368231915576 #
coedge $-1 $464 $459 $461 $561 forward $559 $-1 #
coedge $-1 $459 $464 $548 $659 reversed $559 $-1 #
loop $-1 $-1 $557 $545 #
straight-curve $-1 56.089358195745717 0 8.0677368231915576 0 1 0 I I #
edge $-1 $462 -8.0677368231915576 $466 8.0677368231915576 $557 $663 forward 7 unknown #
point $-1 56.089358195745717 -24.139632775293599 8.0677368231915576 #
straight-curve $-1 56.089358195745717 0 -8.0677368231915576 0 -1 0 I I #
point $-1 56.089358195745717 -24.139632775293599 -8.0677368231915576 #
loop $-1 $-1 $572 $468 #
plane-surface $-1 0 0 -8.0677368231915576 0 0 1 1 0 0 forward_v I I I I #
coedge $-1 $474 $471 $577 $664 reversed $390 $-1 #
coedge $-1 $471 $474 $580 $665 reversed $390 $-1 #
edge $-1 $578 -8.0677368231915576 $582 8.0677368231915576 $471 $666 forward 7 unknown #
coedge $-1 $473 $472 $597 $667 reversed $315 $-1 #
edge $-1 $599 -30.282008007566237 $574 -21.332692368792724 $496 $668 forward 7 unknown #
coedge $-1 $669 $580 $473 $573 forward $565 $-1 #
edge $-1 $575 21.332692368792724 $670 30.282008007566237 $572 $671 forward 7 unknown #
vertex $-1 $571 $672 #
vertex $-1 $573 $673 #
straight-curve $-1 -47.140042556972205 -8.0041591289104836 0 0 0 -1 I I #
coedge $-1 $477 $496 $567 $664 forward $141 $-1 #
vertex $-1 $478 $674 #
straight-curve $-1 -25.80735018817948 -11.004159128910484 8.0677368231915576 -1 0 0 I I #
coedge $-1 $572 $479 $568 $665 forward $565 $-1 #
coedge $-1 $479 $489 $481 $585 forward $565 $-1 #
vertex $-1 $480 $675 #
straight-curve $-1 -25.80735018817948 -11.004159128910484 -8.0677368231915576 1 0 0 I I #
coedge $-1 $482 $481 $487 $589 reversed $469 $-1 #
edge $-1 $592 -24.139632775293599 $484 -11.004159128910484 $481 $676 forward 7 unknown #
point $-1 -56.089358195745717 -11.004159128910484 8.0677368231915576 #
point $-1 -56.089358195745717 -11.004159128910484 -8.0677368231915576 #
straight-curve $-1 -56.089358195745717 0 8.0677368231915576 0 -1 0 I I #
edge $-1 $488 -8.0677368231915576 $592 8.0677368231915576 $584 $677 forward 7 unknown #
point $-1 -56.089358195745717 -24.139632775293599 8.0677368231915576 #
coedge $-1 $489 $678 $491 $594 forward $565 $-1 #
vertex $-1 $585 $679 #
straight-curve $-1 0 -24.139632775293599 -8.0677368231915576 -1 0 0 I I #
edge $-1 $603 -24.139632775293599 $492 24.139632775293599 $491 $680 forward 7 unknown #
point $-1 56.089358195745717 -24.139632775293599 -8.0677368231915576 #
plane-surface $-1 0 24.139632775293599 0 0 -1 0 0 0 -1 forward_v I I I I #
coedge $-1 $497 $681 $570 $667 forward $495 $-1 #
coedge $-1 $681 $497 $500 $601 forward $495 $-1 #
vertex $-1 $667 $682 #
coedge $-1 $500 $499 $678 $683 reversed $501 $-1 #
edge $-1 $502 -8.0677368231915576 $684 8.0677368231915576 $500 $685 forward 7 unknown #
point $-1 -56.089358195745717 24.139632775293599 8.0677368231915576 #
vertex $-1 $594 $686 #
straight-curve $-1 56.089358195745717 24.139632775293599 0 0 0 -1 I I #
plane-surface $-1 56.089358195745717 0 0 -1 0 0 0 0 1 forward_v I I I I #
face $-1 $687 $688 $18 $-1 $689 reversed single #
loop $-1 $-1 $690 $507 #
plane-surface $-1 -47.140042556972205 -9.5041591289104836 0 -1 0 0 0 0 1 forward_v I I I I #
coedge $-1 $691 $692 $693 $694 reversed $508 $-1 #
coedge $-1 $695 $510 $696 $697 reversed $418 $-1 #
coedge $-1 $510 $695 $698 $699 reversed $418 $-1 #
coedge $-1 $700 $701 $510 $613 forward $688 $-1 #
edge $-1 $702 -8.0677368231915576 $703 8.0677368231915576 $612 $704 forward 7 unknown #
coedge $-1 $511 $696 $701 $705 forward $336 $-1 #
coedge $-1 $706 $512 $511 $616 reversed $431 $-1 #
edge $-1 $707 -56.089358195745717 $515 4.6217620381705018 $615 $527 forward 7 unknown #
vertex $-1 $519 $708 #
straight-curve $-1 4.6217620381705018 -24.139632775293599 42.61813020547882 0 0 1 I I #
straight-curve $-1 4.6217620381705018 -24.139632775293592 1.8712286087769598 0 0.74314481823134659 0.66913061440640931 I I #
point $-1 4.6217620381705018 -24.139632775293599 8.0677368231915576 #
point $-1 4.6217620381705018 -17.257713353993125 8.0677368231915576 #
straight-curve $-1 4.9809300889710286 -24.139632775293599 1.8712286087769539 -1 0 0 I I #
coedge $-1 $521 $706 $709 $710 reversed $431 $-1 #
coedge $-1 $711 $524 $521 $625 forward $632 $-1 #
edge $-1 $526 -8.0677368231915576 $712 8.0677368231915576 $624 $713 forward 7 unknown #
face $-1 $714 $715 $18 $-1 $689 reversed single #
plane-surface $-1 0 -24.139632775293599 0 0 1 0 0 0 1 forward_v I I I I #
coedge $-1 $716 $523 $717 $718 forward $336 $-1 #
coedge $-1 $719 $720 $523 $630 reversed $721 $-1 #
edge $-1 $633 -56.089358195745717 $722 56.089358195745717 $629 $723 forward 7 unknown #
coedge $-1 $524 $711 $719 $724 reversed $632 $-1 #
loop $-1 $-1 $624 $725 #
vertex $-1 $525 $726 #
straight-curve $-1 56.089358195745717 0 8.0677368231915576 0 1 0 I I #
point $-1 56.089358195745717 -24.139632775293599 8.0677368231915576 #
face $-1 $727 $728 $19 $-1 $729 forward single #
loop $-1 $-1 $730 $528 #
plane-surface $-1 -51.614700376358961 -11.004159128910484 0 0 1 0 0 0 1 forward_v I I I I #
coedge $-1 $537 $731 $531 $642 forward $529 $-1 #
coedge $-1 $641 $531 $732 $733 reversed $439 $-1 #
coedge $-1 $531 $640 $543 $655 forward $439 $-1 #
edge $-1 $734 25.461290323533696 $656 32.343209744834169 $639 $735 forward 7 unknown #
coedge $-1 $532 $543 $646 $736 reversed $360 $-1 #
vertex $-1 $736 $737 #
straight-curve $-1 15.301958317713613 -24.139632775293592 1.8712286087769598 0 -0.74314481823134659 -0.66913061440640931 I I #
coedge $-1 $732 $534 $643 $736 forward $648 $-1 #
coedge $-1 $534 $738 $536 $651 reversed $648 $-1 #
loop $-1 $-1 $732 $739 #
straight-curve $-1 15.301958317713613 -24.139632775293599 42.61813020547882 0 0 -1 I I #
coedge $-1 $740 $536 $741 $742 forward $529 $-1 #
edge $-1 $539 15.301958317713613 $743 56.089358195745717 $647 $744 forward 7 unknown #
point $-1 15.301958317713613 -17.257713353993125 8.0677368231915576 #
point $-1 15.301958317713613 -24.139632775293599 8.0677368231915576 #
point $-1 7.6732466894685345 -17.849737210080768 1.8054189708665085 #
edge $-1 $745 -9.5890899667747578e-015 $656 9.2605361061107114 $641 $746 forward 7 unknown #
vertex $-1 $544 $747 #
straight-curve $-1 4.9809300889710286 -17.257713353993125 8.0677368231915576 1 0 0 I I #
plane-surface $-1 56.089358195745717 0 0 -1 0 0 0 0 1 forward_v I I I I #
edge $-1 $550 -8.0677368231915576 $554 8.0677368231915576 $558 $748 forward 7 unknown #
point $-1 56.089358195745717 24.139632775293599 8.0677368231915576 #
straight-curve $-1 -56.089358195745717 24.139632775293599 0 0 0 -1 I I #
point $-1 56.089358195745717 24.139632775293599 -8.0677368231915576 #
straight-curve $-1 56.089358195745717 -24.139632775293599 0 0 0 -1 I I #
edge $-1 $574 3.2520795644552418 $578 6.2520795644552418 $577 $749 forward 7 unknown #
edge $-1 $582 -6.2520795644552418 $575 -3.2520795644552418 $580 $750 forward 7 unknown #
straight-curve $-1 -47.140042556972205 -11.004159128910484 0 0 0 -1 I I #
edge $-1 $670 -8.0677368231915576 $599 8.0677368231915576 $597 $751 forward 7 unknown #
straight-curve $-1 -25.80735018817948 -8.0041591289104836 8.0677368231915576 1 0 0 I I #
coedge $-1 $678 $572 $681 $752 forward $565 $-1 #
vertex $-1 $752 $753 #
straight-curve $-1 -25.80735018817948 -8.0041591289104836 -8.0677368231915576 -1 0 0 I I #
point $-1 -47.140042556972205 -8.0041591289104836 8.0677368231915576 #
point $-1 -47.140042556972205 -8.0041591289104836 -8.0677368231915576 #
point $-1 -47.140042556972205 -11.004159128910484 8.0677368231915576 #
point $-1 -47.140042556972205 -11.004159128910484 -8.0677368231915576 #
straight-curve $-1 -56.089358195745717 0 -8.0677368231915576 0 1 0 I I #
straight-curve $-1 -56.089358195745717 -24.139632775293599 0 0 0 -1 I I #
coedge $-1 $591 $669 $600 $683 forward $565 $-1 #
point $-1 -56.089358195745717 -24.139632775293599 -8.0677368231915576 #
straight-curve $-1 56.089358195745717 0 -8.0677368231915576 0 -1 0 I I #
coedge $-1 $597 $598 $669 $752 reversed $495 $-1 #
point $-1 -56.089358195745717 -8.0041591289104836 8.0677368231915576 #
edge $-1 $684 -56.089358195745717 $603 56.089358195745717 $600 $754 forward 7 unknown #
vertex $-1 $683 $755 #
straight-curve $-1 -56.089358195745717 24.139632775293599 0 0 0 -1 I I #
point $-1 56.089358195745717 24.139632775293599 -8.0677368231915576 #
face $-1 $522 $756 $18 $-1 $757 reversed single #
loop $-1 $-1 $612 $606 #
plane-surface $-1 -56.089358195745717 0 0 1 0 0 0 0 -1 forward_v I I I I #
coedge $-1 $758 $759 $695 $760 reversed $607 $-1 #
coedge $-1 $761 $609 $716 $762 reversed $508 $-1 #
coedge $-1 $609 $761 $763 $764 reversed $508 $-1 #
coedge $-1 $759 $758 $609 $694 forward $607 $-1 #
edge $-1 $765 -8.0677368231915576 $766 8.0677368231915576 $693 $767 forward 7 unknown #
coedge $-1 $611 $610 $690 $760 forward $418 $-1 #
coedge $-1 $614 $768 $610 $697 forward $336 $-1 #
edge $-1 $769 21.332692368792724 $702 30.282008007566237 $696 $770 forward 7 unknown #
coedge $-1 $771 $772 $611 $699 forward $756 $-1 #
edge $-1 $703 -30.282008007566237 $773 -21.332692368792724 $698 $774 forward 7 unknown #
coedge $-1 $775 $612 $772 $776 reversed $688 $-1 #
coedge $-1 $612 $775 $614 $705 reversed $688 $-1 #
vertex $-1 $705 $777 #
vertex $-1 $613 $778 #
straight-curve $-1 -56.089358195745717 -11.004159128910484 0 0 0 -1 I I #
edge $-1 $702 11.004159128910484 $707 24.139632775293599 $701 $779 forward 7 unknown #
coedge $-1 $623 $615 $775 $780 forward $431 $-1 #
vertex $-1 $705 $781 #
point $-1 4.6217620381705018 -24.139632775293599 1.8712286087769534 #
coedge $-1 $772 $782 $623 $710 forward $756 $-1 #
edge $-1 $712 -56.089358195745717 $783 56.089358195745717 $623 $784 forward 7 unknown #
coedge $-1 $631 $624 $782 $785 reversed $632 $-1 #
vertex $-1 $625 $786 #
straight-curve $-1 56.089358195745717 -24.139632775293599 0 0 0 -1 I I #
face $-1 $725 $721 $18 $-1 $787 reversed single #
loop $-1 $-1 $788 $626 #
coedge $-1 $768 $628 $691 $762 forward $336 $-1 #
coedge $-1 $789 $788 $628 $718 reversed $715 $-1 #
edge $-1 $722 -24.139632775293599 $790 8.0041591289104836 $717 $779 forward 7 unknown #
coedge $-1 $791 $629 $631 $724 forward $721 $-1 #
coedge $-1 $629 $791 $789 $792 reversed $721 $-1 #
loop $-1 $-1 $719 $714 #
vertex $-1 $630 $793 #
straight-curve $-1 0 24.139632775293599 8.0677368231915576 -1 0 0 I I #
edge $-1 $633 -8.0677368231915576 $794 8.0677368231915576 $631 $795 forward 7 unknown #
face $-1 $-1 $632 $18 $-1 $796 reversed single #
point $-1 56.089358195745717 24.139632775293599 8.0677368231915576 #
face $-1 $797 $798 $19 $-1 $799 forward single #
loop $-1 $-1 $800 $636 #
plane-surface $-1 -51.614700376358961 -8.0041591289104836 0 0 -1 0 0 0 -1 forward_v I I I I #
coedge $-1 $801 $802 $803 $804 reversed $637 $-1 #
coedge $-1 $639 $805 $806 $807 forward $529 $-1 #
coedge $-1 $806 $646 $640 $733 forward $648 $-1 #
edge $-1 $745 -40.746901596701868 $734 -34.550393382287261 $732 $808 forward 7 unknown #
vertex $-1 $733 $809 #
straight-curve $-1 4.6217620381705018 -49.600923098827295 8.0677368231915594 0 1 0 I I #
edge $-1 $644 -10.321028228742584 $745 0.35916805080052683 $646 $810 forward 7 unknown #
point $-1 15.301958317713613 -24.139632775293599 1.8712286087769534 #
coedge $-1 $647 $811 $812 $813 reversed $648 $-1 #
face $-1 $814 $648 $19 $-1 $815 reversed single #
coedge $-1 $816 $650 $817 $818 forward $529 $-1 #
coedge $-1 $812 $819 $650 $742 reversed $820 $-1 #
edge $-1 $743 -24.139632775293599 $821 24.139632775293599 $741 $822 forward 7 unknown #
vertex $-1 $742 $823 #
straight-curve $-1 0 -24.139632775293599 8.0677368231915576 1 0 0 I I #
vertex $-1 $736 $824 #
straight-curve $-1 4.6217620381705018 -24.139632775293592 1.8712286087769598 0 0.74314481823134659 0.66913061440640931 I I #
point $-1 4.6217620381705018 -17.257713353993125 8.0677368231915576 #
straight-curve $-1 56.089358195745717 24.139632775293599 0 0 0 -1 I I #
straight-curve $-1 -47.140042556972205 -4.7520795644552418 8.0677368231915576 0 -1 0 I I #
straight-curve $-1 -47.140042556972205 -4.7520795644552418 -8.0677368231915576 0 1 0 I I #
straight-curve $-1 -56.089358195745717 -8.0041591289104836 0 0 0 1 I I #
edge $-1 $670 -8.0041591289104836 $684 24.139632775293599 $681 $676 forward 7 unknown #
point $-1 -56.089358195745717 -8.0041591289104836 -8.0677368231915576 #
straight-curve $-1 0 24.139632775293599 -8.0677368231915576 1 0 0 I I #
point $-1 -56.089358195745717 24.139632775293599 -8.0677368231915576 #
loop $-1 $-1 $763 $687 #
plane-surface $-1 0 0 -8.0677368231915576 0 0 1 1 0 0 forward_v I I I I #
coedge $-1 $693 $690 $768 $825 reversed $607 $-1 #
coedge $-1 $690 $693 $771 $826 reversed $607 $-1 #
edge $-1 $769 -8.0677368231915576 $773 8.0677368231915576 $690 $827 forward 7 unknown #
coedge $-1 $692 $691 $788 $828 reversed $508 $-1 #
edge $-1 $790 -30.282008007566237 $765 -21.332692368792724 $716 $829 forward 7 unknown #
coedge $-1 $830 $771 $692 $764 forward $756 $-1 #
edge $-1 $766 21.332692368792724 $831 30.282008007566237 $763 $832 forward 7 unknown #
vertex $-1 $762 $833 #
vertex $-1 $764 $834 #
straight-curve $-1 -47.140042556972205 -8.0041591289104836 0 0 0 -1 I I #
coedge $-1 $696 $716 $758 $825 forward $336 $-1 #
vertex $-1 $697 $835 #
straight-curve $-1 -25.80735018817948 -11.004159128910484 8.0677368231915576 -1 0 0 I I #
coedge $-1 $763 $698 $759 $826 forward $756 $-1 #
coedge $-1 $698 $709 $700 $776 forward $756 $-1 #
vertex $-1 $699 $836 #
straight-curve $-1 -25.80735018817948 -11.004159128910484 -8.0677368231915576 1 0 0 I I #
coedge $-1 $701 $700 $706 $780 reversed $688 $-1 #
edge $-1 $783 -24.139632775293599 $703 -11.004159128910484 $700 $837 forward 7 unknown #
point $-1 -56.089358195745717 -11.004159128910484 8.0677368231915576 #
point $-1 -56.089358195745717 -11.004159128910484 -8.0677368231915576 #
straight-curve $-1 -56.089358195745717 0 8.0677368231915576 0 -1 0 I I #
edge $-1 $707 -8.0677368231915576 $783 8.0677368231915576 $775 $838 forward 7 unknown #
point $-1 -56.089358195745717 -24.139632775293599 8.0677368231915576 #
coedge $-1 $709 $839 $711 $785 forward $756 $-1 #
vertex $-1 $776 $840 #
straight-curve $-1 0 -24.139632775293599 -8.0677368231915576 -1 0 0 I I #
edge $-1 $794 -24.139632775293599 $712 24.139632775293599 $711 $841 forward 7 unknown #
point $-1 56.089358195745717 -24.139632775293599 -8.0677368231915576 #
plane-surface $-1 0 24.139632775293599 0 0 -1 0 0 0 -1 forward_v I I I I #
coedge $-1 $717 $842 $761 $828 forward $715 $-1 #
coedge $-1 $842 $717 $720 $792 forward $715 $-1 #
vertex $-1 $828 $843 #
coedge $-1 $720 $719 $839 $844 reversed $721 $-1 #
edge $-1 $722 -8.0677368231915576 $845 8.0677368231915576 $720 $846 forward 7 unknown #
point $-1 -56.089358195745717 24.139632775293599 8.0677368231915576 #
vertex $-1 $785 $847 #
straight-curve $-1 56.089358195745717 24.139632775293599 0 0 0 -1 I I #
plane-surface $-1 56.089358195745717 0 0 -1 0 0 0 0 1 forward_v I I I I #
face $-1 $848 $849 $19 $-1 $850 reversed single #
loop $-1 $-1 $851 $727 #
plane-surface $-1 -47.140042556972205 -9.5041591289104836 0 -1 0 0 0 0 1 forward_v I I I I #
coedge $-1 $852 $853 $854 $855 reversed $728 $-1 #
coedge $-1 $856 $730 $857 $858 reversed $637 $-1 #
coedge $-1 $730 $856 $859 $860 reversed $637 $-1 #
coedge $-1 $861 $862 $730 $804 forward $849 $-1 #
edge $-1 $863 -8.0677368231915576 $864 8.0677368231915576 $803 $865 forward 7 unknown #
coedge $-1 $731 $857 $862 $866 forward $529 $-1 #
coedge $-1 $867 $732 $731 $807 reversed $648 $-1 #
edge $-1 $868 -56.089358195745717 $734 4.6217620381705018 $806 $744 forward 7 unknown #
straight-curve $-1 4.6217620381705018 -24.139632775293599 42.61813020547882 0 0 1 I I #
point $-1 4.6217620381705018 -24.139632775293599 8.0677368231915576 #
straight-curve $-1 4.9809300889710286 -24.139632775293599 1.8712286087769539 -1 0 0 I I #
coedge $-1 $738 $867 $869 $870 reversed $648 $-1 #
coedge $-1 $871 $741 $738 $813 forward $820 $-1 #
edge $-1 $743 -8.0677368231915576 $872 8.0677368231915576 $812 $873 forward 7 unknown #
face $-1 $874 $875 $19 $-1 $850 reversed single #
plane-surface $-1 0 -24.139632775293599 0 0 1 0 0 0 1 forward_v I I I I #
coedge $-1 $876 $740 $877 $878 forward $529 $-1 #
coedge $-1 $879 $880 $740 $818 reversed $881 $-1 #
edge $-1 $821 -56.089358195745717 $882 56.089358195745717 $817 $883 forward 7 unknown #
coedge $-1 $741 $871 $879 $884 reversed $820 $-1 #
loop $-1 $-1 $812 $885 #
vertex $-1 $742 $886 #
straight-curve $-1 56.089358195745717 0 8.0677368231915576 0 1 0 I I #
point $-1 56.089358195745717 -24.139632775293599 8.0677368231915576 #
point $-1 4.6217620381705018 -24.139632775293599 1.8712286087769534 #
edge $-1 $765 3.2520795644552418 $769 6.2520795644552418 $768 $887 forward 7 unknown #
edge $-1 $773 -6.2520795644552418 $766 -3.2520795644552418 $771 $888 forward 7 unknown #
straight-curve $-1 -47.140042556972205 -11.004159128910484 0 0 0 -1 I I #
edge $-1 $831 -8.0677368231915576 $790 8.0677368231915576 $788 $889 forward 7 unknown #
straight-curve $-1 -25.80735018817948 -8.0041591289104836 8.0677368231915576 1 0 0 I I #
coedge $-1 $839 $763 $842 $890 forward $756 $-1 #
vertex $-1 $890 $891 #
straight-curve $-1 -25.80735018817948 -8.0041591289104836 -8.0677368231915576 -1 0 0 I I #
point $-1 -47.140042556972205 -8.0041591289104836 8.0677368231915576 #
point $-1 -47.140042556972205 -8.0041591289104836 -8.0677368231915576 #
point $-1 -47.140042556972205 -11.004159128910484 8.0677368231915576 #
point $-1 -47.140042556972205 -11.004159128910484 -8.0677368231915576 #
straight-curve $-1 -56.089358195745717 0 -8.0677368231915576 0 1 0 I I #
straight-curve $-1 -56.089358195745717 -24.139632775293599 0 0 0 -1 I I #
coedge $-1 $782 $830 $791 $844 forward $756 $-1 #
point $-1 -56.089358195745717 -24.139632775293599 -8.0677368231915576 #
straight-curve $-1 56.089358195745717 0 -8.0677368231915576 0 -1 0 I I #
coedge $-1 $788 $789 $830 $890 reversed $715 $-1 #
point $-1 -56.089358195745717 -8.0041591289104836 8.0677368231915576 #
edge $-1 $845 -56.089358195745717 $794 56.089358195745717 $791 $892 forward 7 unknown #
vertex $-1 $844 $893 #
straight-curve $-1 -56.089358195745717 24.139632775293599 0 0 0 -1 I I #
point $-1 56.089358195745717 24.139632775293599 -8.0677368231915576 #
face $-1 $739 $894 $19 $-1 $895 reversed single #
loop $-1 $-1 $803 $797 #
plane-surface $-1 -56.089358195745717 0 0 1 0 0 0 0 -1 forward_v I I I I #
coedge $-1 $896 $897 $856 $898 reversed $798 $-1 #
coedge $-1 $899 $800 $876 $900 reversed $728 $-1 #
coedge $-1 $800 $899 $901 $902 reversed $728 $-1 #
coedge $-1 $897 $896 $800 $855 forward $798 $-1 #
edge $-1 $903 -8.0677368231915576 $904 8.0677368231915576 $854 $905 forward 7 unknown #
coedge $-1 $802 $801 $851 $898 forward $637 $-1 #
coedge $-1 $805 $906 $801 $858 forward $529 $-1 #
edge $-1 $907 21.332692368792724 $863 30.282008007566237 $857 $908 forward 7 unknown #
coedge $-1 $909 $910 $802 $860 forward $894 $-1 #
edge $-1 $864 -30.282008007566237 $911 -21.332692368792724 $859 $912 forward 7 unknown #
coedge $-1 $913 $803 $910 $914 reversed $849 $-1 #
coedge $-1 $803 $913 $805 $866 reversed $849 $-1 #
vertex $-1 $866 $915 #
vertex $-1 $804 $916 #
straight-curve $-1 -56.089358195745717 -11.004159128910484 0 0 0 -1 I I #
edge $-1 $863 11.004159128910484 $868 24.139632775293599 $862 $917 forward 7 unknown #
coedge $-1 $811 $806 $913 $918 forward $648 $-1 #
vertex $-1 $866 $919 #
coedge $-1 $910 $920 $811 $870 forward $894 $-1 #
edge $-1 $872 -56.089358195745717 $921 56.089358195745717 $811 $922 forward 7 unknown #
coedge $-1 $819 $812 $920 $923 reversed $820 $-1 #
vertex $-1 $813 $924 #
straight-curve $-1 56.089358195745717 -24.139632775293599 0 0 0 -1 I I #
face $-1 $885 $881 $19 $-1 $925 reversed single #
loop $-1 $-1 $926 $814 #
coedge $-1 $906 $816 $852 $900 forward $529 $-1 #
coedge $-1 $927 $926 $816 $878 reversed $875 $-1 #
edge $-1 $882 -24.139632775293599 $928 8.0041591289104836 $877 $917 forward 7 unknown #
coedge $-1 $929 $817 $819 $884 forward $881 $-1 #
coedge $-1 $817 $929 $927 $930 reversed $881 $-1 #
loop $-1 $-1 $879 $874 #
vertex $-1 $818 $931 #
straight-curve $-1 0 24.139632775293599 8.0677368231915576 -1 0 0 I I #
edge $-1 $821 -8.0677368231915576 $932 8.0677368231915576 $819 $933 forward 7 unknown #
face $-1 $-1 $820 $19 $-1 $934 reversed single #
point $-1 56.089358195745717 24.139632775293599 8.0677368231915576 #
straight-curve $-1 -47.140042556972205 -4.7520795644552418 8.0677368231915576 0 -1 0 I I #
straight-curve $-1 -47.140042556972205 -4.7520795644552418 -8.0677368231915576 0 1 0 I I #
straight-curve $-1 -56.089358195745717 -8.0041591289104836 0 0 0 1 I I #
edge $-1 $831 -8.0041591289104836 $845 24.139632775293599 $842 $837 forward 7 unknown #
point $-1 -56.089358195745717 -8.0041591289104836 -8.0677368231915576 #
straight-curve $-1 0 24.139632775293599 -8.0677368231915576 1 0 0 I I #
point $-1 -56.089358195745717 24.139632775293599 -8.0677368231915576 #
loop $-1 $-1 $901 $848 #
plane-surface $-1 0 0 -8.0677368231915576 0 0 1 1 0 0 forward_v I I I I #
coedge $-1 $854 $851 $906 $935 reversed $798 $-1 #
coedge $-1 $851 $854 $909 $936 reversed $798 $-1 #
edge $-1 $907 -8.0677368231915576 $911 8.0677368231915576 $851 $937 forward 7 unknown #
coedge $-1 $853 $852 $926 $938 reversed $728 $-1 #
edge $-1 $928 -30.282008007566237 $903 -21.332692368792724 $876 $939 forward 7 unknown #
coedge $-1 $940 $909 $853 $902 forward $894 $-1 #
edge $-1 $904 21.332692368792724 $941 30.282008007566237 $901 $942 forward 7 unknown #
vertex $-1 $900 $943 #
vertex $-1 $902 $944 #
straight-curve $-1 -47.140042556972205 -8.0041591289104836 0 0 0 -1 I I #
coedge $-1 $857 $876 $896 $935 forward $529 $-1 #
vertex $-1 $858 $945 #
straight-curve $-1 -25.80735018817948 -11.004159128910484 8.0677368231915576 -1 0 0 I I #
coedge $-1 $901 $859 $897 $936 forward $894 $-1 #
coedge $-1 $859 $869 $861 $914 forward $894 $-1 #
vertex $-1 $860 $946 #
straight-curve $-1 -25.80735018817948 -11.004159128910484 -8.0677368231915576 1 0 0 I I #
coedge $-1 $862 $861 $867 $918 reversed $849 $-1 #
edge $-1 $921 -24.139632775293599 $864 -11.004159128910484 $861 $947 forward 7 unknown #
point $-1 -56.089358195745717 -11.004159128910484 8.0677368231915576 #
point $-1 -56.089358195745717 -11.004159128910484 -8.0677368231915576 #
straight-curve $-1 -56.089358195745717 0 8.0677368231915576 0 -1 0 I I #
edge $-1 $868 -8.0677368231915576 $921 8.0677368231915576 $913 $948 forward 7 unknown #
point $-1 -56.089358195745717 -24.139632775293599 8.0677368231915576 #
coedge $-1 $869 $949 $871 $923 forward $894 $-1 #
vertex $-1 $914 $950 #
straight-curve $-1 0 -24.139632775293599 -8.0677368231915576 -1 0 0 I I #
edge $-1 $932 -24.139632775293599 $872 24.139632775293599 $871 $951 forward 7 unknown #
point $-1 56.089358195745717 -24.139632775293599 -8.0677368231915576 #
plane-surface $-1 0 24.139632775293599 0 0 -1 0 0 0 -1 forward_v I I I I #
coedge $-1 $877 $952 $899 $938 forward $875 $-1 #
coedge $-1 $952 $877 $880 $930 forward $875 $-1 #
vertex $-1 $938 $953 #
coedge $-1 $880 $879 $949 $954 reversed $881 $-1 #
edge $-1 $882 -8.0677368231915576 $955 8.0677368231915576 $880 $956 forward 7 unknown #
point $-1 -56.089358195745717 24.139632775293599 8.0677368231915576 #
vertex $-1 $923 $957 #
straight-curve $-1 56.089358195745717 24.139632775293599 0 0 0 -1 I I #
plane-surface $-1 56.089358195745717 0 0 -1 0 0 0 0 1 forward_v I I I I #
edge $-1 $903 3.2520795644552418 $907 6.2520795644552418 $906 $958 forward 7 unknown #
edge $-1 $911 -6.2520795644552418 $904 -3.2520795644552418 $909 $959 forward 7 unknown #
straight-curve $-1 -47.140042556972205 -11.004159128910484 0 0 0 -1 I I #
edge $-1 $941 -8.0677368231915576 $928 8.0677368231915576 $926 $960 forward 7 unknown #
straight-curve $-1 -25.80735018817948 -8.0041591289104836 8.0677368231915576 1 0 0 I I #
coedge $-1 $949 $901 $952 $961 forward $894 $-1 #
vertex $-1 $961 $962 #
straight-curve $-1 -25.80735018817948 -8.0041591289104836 -8.0677368231915576 -1 0 0 I I #
point $-1 -47.140042556972205 -8.0041591289104836 8.0677368231915576 #
point $-1 -47.140042556972205 -8.0041591289104836 -8.0677368231915576 #
point $-1 -47.140042556972205 -11.004159128910484 8.0677368231915576 #
point $-1 -47.140042556972205 -11.004159128910484 -8.0677368231915576 #
straight-curve $-1 -56.089358195745717 0 -8.0677368231915576 0 1 0 I I #
straight-curve $-1 -56.089358195745717 -24.139632775293599 0 0 0 -1 I I #
coedge $-1 $920 $940 $929 $954 forward $894 $-1 #
point $-1 -56.089358195745717 -24.139632775293599 -8.0677368231915576 #
straight-curve $-1 56.089358195745717 0 -8.0677368231915576 0 -1 0 I I #
coedge $-1 $926 $927 $940 $961 reversed $875 $-1 #
point $-1 -56.089358195745717 -8.0041591289104836 8.0677368231915576 #
edge $-1 $955 -56.089358195745717 $932 56.089358195745717 $929 $963 forward 7 unknown #
vertex $-1 $954 $964 #
straight-curve $-1 -56.089358195745717 24.139632775293599 0 0 0 -1 I I #
point $-1 56.089358195745717 24.139632775293599 -8.0677368231915576 #
straight-curve $-1 -47.140042556972205 -4.7520795644552418 8.0677368231915576 0 -1 0 I I #
straight-curve $-1 -47.140042556972205 -4.7520795644552418 -8.0677368231915576 0 1 0 I I #
straight-curve $-1 -56.089358195745717 -8.0041591289104836 0 0 0 1 I I #
edge $-1 $941 -8.0041591289104836 $955 24.139632775293599 $952 $947 forward 7 unknown #
point $-1 -56.089358195745717 -8.0041591289104836 -8.0677368231915576 #
straight-curve $-1 0 24.139632775293599 -8.0677368231915576 1 0 0 I I #
point $-1 -56.089358195745717 24.139632775293599 -8.0677368231915576 #
End-of-ACIS-data 