500 0 9 0           
7 Unknown 11 ACIS 5.0 NT 24 Thu Mar 25 18:00:50 1999 
-1 9.9999999999999995e-007 1e-010 
body $-1 $9 $-1 $10 #
body $-1 $11 $-1 $12 #
body $-1 $13 $-1 $14 #
body $-1 $15 $-1 $16 #
body $-1 $17 $-1 $18 #
body $-1 $19 $-1 $20 #
body $-1 $21 $-1 $22 #
body $-1 $23 $-1 $24 #
body $-1 $25 $-1 $26 #
lump $-1 $-1 $27 $0 #
transform $-1 1 0 0 0 1 0 0 0 1 63.980224005859554 40.666991773346311 18.666579884268863 1 rotate no_reflect no_shear #
lump $-1 $-1 $28 $1 #
transform $-1 1 0 0 0 1 0 0 0 1 63.980224005859554 40.666991773346311 18.666579884268863 1 rotate no_reflect no_shear #
lump $-1 $-1 $29 $2 #
transform $-1 1 0 0 0 1 0 0 0 1 63.980224005859554 40.666991773346311 18.666579884268863 1 rotate no_reflect no_shear #
lump $-1 $-1 $30 $3 #
transform $-1 1 0 0 0 1 0 0 0 1 63.980224005859554 40.666991773346311 18.666579884268863 1 rotate no_reflect no_shear #
lump $-1 $-1 $31 $4 #
transform $-1 1 0 0 0 1 0 0 0 1 63.980224005859554 40.666991773346311 18.666579884268863 1 rotate no_reflect no_shear #
lump $-1 $-1 $32 $5 #
transform $-1 1 0 0 0 1 0 0 0 1 63.980224005859554 40.666991773346311 18.666579884268863 1 rotate no_reflect no_shear #
lump $-1 $-1 $33 $6 #
transform $-1 1 0 0 0 1 0 0 0 1 63.980224005859554 40.666991773346311 18.666579884268863 1 rotate no_reflect no_shear #
lump $-1 $-1 $34 $7 #
transform $-1 1 0 0 0 1 0 0 0 1 63.980224005859554 40.666991773346311 18.666579884268863 1 rotate no_reflect no_shear #
lump $-1 $-1 $35 $8 #
transform $-1 1 0 0 0 1 0 0 0 1 63.980224005859554 40.666991773346311 18.666579884268863 1 rotate no_reflect no_shear #
shell $-1 $-1 $-1 $36 $-1 $9 #
shell $-1 $-1 $-1 $37 $-1 $11 #
shell $-1 $-1 $-1 $38 $-1 $13 #
shell $-1 $-1 $-1 $39 $-1 $15 #
shell $-1 $-1 $-1 $40 $-1 $17 #
shell $-1 $-1 $-1 $41 $-1 $19 #
shell $-1 $-1 $-1 $42 $-1 $21 #
shell $-1 $-1 $-1 $43 $-1 $23 #
shell $-1 $-1 $-1 $44 $-1 $25 #
face $-1 $45 $46 $27 $-1 $47 forward single #
face $-1 $48 $49 $28 $-1 $50 reversed single #
face $-1 $51 $52 $29 $-1 $53 reversed single #
face $-1 $54 $55 $30 $-1 $56 forward single #
face $-1 $57 $58 $31 $-1 $59 forward single #
face $-1 $60 $61 $32 $-1 $62 forward single #
face $-1 $63 $64 $33 $-1 $65 reversed single #
face $-1 $66 $67 $34 $-1 $68 forward single #
face $-1 $69 $70 $35 $-1 $71 forward single #
face $-1 $72 $73 $27 $-1 $74 reversed single #
loop $-1 $-1 $75 $36 #
plane-surface $-1 0 0 18.666579884268863 0 0 1 1 0 0 forward_v I I I I #
face $-1 $76 $77 $28 $-1 $78 reversed single #
loop $-1 $-1 $79 $37 #
plane-surface $-1 -35.337474593305629 -33.868595693232507 0 1 0 0 0 0 -1 forward_v I I I I #
face $-1 $80 $81 $29 $-1 $82 reversed single #
loop $-1 $-1 $83 $38 #
plane-surface $-1 110.81700136191179 8.9070088281335096 178.65230887431358 0 -1 0 -0.86602541151947299 0 -0.49999998660252726 forward_v I I I I #
face $-1 $84 $85 $30 $-1 $86 forward single #
loop $-1 $87 $88 $39 #
cone-surface $-1 58.919483163072961 -1.7749893501389309 10.807595408041248 -0.86602541151947299 0 -0.49999998660252726 0.24999999330126363 0 -0.43301270575973649 1 I I 0 1 0.5 forward I I I I #
face $-1 $89 $90 $31 $-1 $91 forward single #
loop $-1 $92 $93 $40 #
cone-surface $-1 58.919483163072961 2.2307599667132365 10.807595408041248 -0.86602541151947299 0 -0.49999998660252726 0.24999999330126363 0 -0.43301270575973649 1 I I 0 1 0.5 forward I I I I #
face $-1 $94 $95 $32 $-1 $96 forward single #
loop $-1 $97 $98 $41 #
cone-surface $-1 58.919483163072961 6.2365092835653968 10.807595408041248 -0.86602541151947299 0 -0.49999998660252726 0.24999999330126363 0 -0.43301270575973649 1 I I 0 1 0.5 forward I I I I #
face $-1 $99 $100 $33 $-1 $101 reversed single #
loop $-1 $-1 $102 $42 #
plane-surface $-1 -172.49683933955976 26.161388628728659 69.746049779804764 0 1 0 -0.84804810408105047 0 0.52991925155115449 forward_v I I I I #
face $-1 $103 $104 $34 $-1 $105 forward single #
loop $-1 $106 $107 $43 #
cone-surface $-1 -57.140413410009032 30.305846670047984 9.2940371393711203 0.84804810408105047 0 -0.52991925155115449 0.52991925155115449 0 0.84804810408105047 1 I I 0 1 1 forward I I I I #
face $-1 $108 $109 $35 $-1 $110 forward single #
loop $-1 $111 $112 $44 #
cone-surface $-1 -57.140413410009032 36.522533732026972 9.2940371393711203 0.84804810408105047 0 -0.52991925155115449 0.52991925155115449 0 0.84804810408105047 1 I I 0 1 1 forward I I I I #
face $-1 $113 $114 $27 $-1 $115 reversed single #
loop $-1 $-1 $116 $45 #
plane-surface $-1 0 0 -18.666579884268863 0 0 1 1 0 0 forward_v I I I I #
coedge $-1 $117 $118 $119 $120 forward $46 $-1 #
face $-1 $121 $122 $28 $-1 $123 reversed single #
loop $-1 $-1 $124 $48 #
plane-surface $-1 -30.992269415313729 -27.070199613118707 0 0 -1 0 0 0 -1 forward_v I I I I #
coedge $-1 $125 $126 $127 $128 forward $49 $-1 #
face $-1 $129 $130 $29 $-1 $131 reversed single #
loop $-1 $-1 $132 $51 #
plane-surface $-1 1.7143466095603799e-006 2.2307599667132365 114.67208658280063 0.86602541151947299 0 0.49999998660252726 0.49999998660252726 0 -0.86602541151947299 forward_v I I I I #
coedge $-1 $133 $134 $135 $136 reversed $52 $-1 #
face $-1 $-1 $137 $30 $-1 $138 forward single #
loop $-1 $139 $140 $54 #
cone-surface $-1 57.917945535262305 -1.7749893501389309 10.2293574096797 -0.86602541151947299 0 -0.49999998660252726 0.12499999665063181 0 -0.21650635287986825 1 I I -0.70710678118654746 0.70710678118654746 0.25 forward I I I I #
loop $-1 $-1 $141 $39 #
coedge $-1 $88 $88 $142 $143 reversed $55 $-1 #
face $-1 $-1 $144 $31 $-1 $145 forward single #
loop $-1 $146 $147 $57 #
cone-surface $-1 57.917945535262305 2.2307599667132365 10.2293574096797 -0.86602541151947299 0 -0.49999998660252726 0.12499999665063181 0 -0.21650635287986825 1 I I -0.70710678118654746 0.70710678118654746 0.25 forward I I I I #
loop $-1 $-1 $148 $40 #
coedge $-1 $93 $93 $149 $150 reversed $58 $-1 #
face $-1 $-1 $151 $32 $-1 $152 forward single #
loop $-1 $153 $154 $60 #
cone-surface $-1 57.917945535262305 6.2365092835653968 10.2293574096797 -0.86602541151947299 0 -0.49999998660252726 0.12499999665063181 0 -0.21650635287986825 1 I I -0.70710678118654746 0.70710678118654746 0.25 forward I I I I #
loop $-1 $-1 $155 $41 #
coedge $-1 $98 $98 $156 $157 reversed $61 $-1 #
face $-1 $158 $159 $33 $-1 $160 forward single #
loop $-1 $-1 $161 $63 #
plane-surface $-1 -63.98022400585954 33.414190201037485 1.9373449412841524 -0.84804810408105047 0 0.52991925155115449 0.52991925155115449 0 0.84804810408105047 forward_v I I I I #
coedge $-1 $162 $163 $164 $165 reversed $64 $-1 #
face $-1 $-1 $166 $34 $-1 $167 forward single #
loop $-1 $168 $169 $66 #
cone-surface $-1 -55.103371686569005 30.305846670047984 8.0211522401901618 0.84804810408105047 0 -0.52991925155115449 0.26495962577557725 0 0.42402405204052523 1 I I -0.70710678118654691 0.70710678118654813 0.5 forward I I I I #
loop $-1 $-1 $170 $43 #
coedge $-1 $107 $107 $171 $172 reversed $67 $-1 #
face $-1 $-1 $173 $35 $-1 $174 forward single #
loop $-1 $175 $176 $69 #
cone-surface $-1 -55.103371686569005 36.522533732026972 8.0211522401901618 0.84804810408105047 0 -0.52991925155115449 0.26495962577557725 0 0.42402405204052523 1 I I -0.70710678118654691 0.70710678118654813 0.5 forward I I I I #
loop $-1 $-1 $177 $44 #
coedge $-1 $112 $112 $178 $179 reversed $70 $-1 #
face $-1 $180 $181 $27 $-1 $182 reversed single #
loop $-1 $-1 $183 $72 #
plane-surface $-1 0 -40.666991773346311 0 0 1 0 0 0 1 forward_v I I I I #
coedge $-1 $184 $185 $186 $187 forward $73 $-1 #
coedge $-1 $188 $75 $189 $190 forward $46 $-1 #
coedge $-1 $75 $188 $191 $192 forward $46 $-1 #
coedge $-1 $193 $194 $75 $120 reversed $195 $-1 #
edge $-1 $196 -40.666991773346311 $197 40.666991773346311 $119 $198 forward 7 unknown #
face $-1 $199 $200 $28 $-1 $201 forward single #
loop $-1 $-1 $202 $76 #
plane-surface $-1 -26.647064237321825 -33.868595693232507 0 -1 0 0 0 0 1 forward_v I I I I #
coedge $-1 $203 $204 $205 $206 forward $77 $-1 #
coedge $-1 $207 $79 $208 $209 reversed $49 $-1 #
coedge $-1 $79 $207 $210 $211 reversed $49 $-1 #
coedge $-1 $204 $203 $79 $128 reversed $77 $-1 #
edge $-1 $212 -18.666579884268863 $213 18.666579884268863 $127 $214 forward 7 unknown #
face $-1 $215 $216 $29 $-1 $217 reversed single #
loop $-1 $-1 $218 $80 #
plane-surface $-1 110.81700136191179 -4.4454888947070366 178.65230887431358 0 1 0 0.86602541151947299 0 0.49999998660252726 forward_v I I I I #
coedge $-1 $219 $220 $221 $222 reversed $81 $-1 #
coedge $-1 $134 $83 $223 $224 reversed $52 $-1 #
coedge $-1 $83 $133 $219 $225 reversed $52 $-1 #
coedge $-1 $221 $226 $83 $136 forward $227 $-1 #
edge $-1 $228 -8.5717233249036582 $229 -0.020304189192067668 $135 $230 forward 7 unknown #
loop $-1 $-1 $142 $84 #
plane-surface $-1 1.7143466095603799e-006 2.2307599667132365 114.67208658280063 0.86602541151947299 0 0.49999998660252726 0.49999998660252726 0 -0.86602541151947299 forward_v I I I I #
loop $-1 $-1 $231 $54 #
coedge $-1 $140 $140 $141 $232 reversed $85 $-1 #
coedge $-1 $141 $141 $140 $232 forward $87 $-1 #
coedge $-1 $142 $142 $88 $143 forward $137 $-1 #
edge $-1 $233 0 $233 6.2831853071796004 $142 $234 forward 7 unknown #
loop $-1 $-1 $149 $89 #
plane-surface $-1 1.7143466095603799e-006 2.2307599667132365 114.67208658280063 0.86602541151947299 0 0.49999998660252726 0.49999998660252726 0 -0.86602541151947299 forward_v I I I I #
loop $-1 $-1 $235 $57 #
coedge $-1 $147 $147 $148 $236 reversed $90 $-1 #
coedge $-1 $148 $148 $147 $236 forward $92 $-1 #
coedge $-1 $149 $149 $93 $150 forward $144 $-1 #
edge $-1 $237 0 $237 6.2831853071796004 $149 $238 forward 7 unknown #
loop $-1 $-1 $156 $94 #
plane-surface $-1 1.7143466095603799e-006 2.2307599667132365 114.67208658280063 0.86602541151947299 0 0.49999998660252726 0.49999998660252726 0 -0.86602541151947299 forward_v I I I I #
loop $-1 $-1 $239 $60 #
coedge $-1 $154 $154 $155 $240 reversed $95 $-1 #
coedge $-1 $155 $155 $154 $240 forward $97 $-1 #
coedge $-1 $156 $156 $98 $157 forward $151 $-1 #
edge $-1 $241 0 $241 6.2831853071796004 $156 $242 forward 7 unknown #
face $-1 $243 $244 $33 $-1 $245 reversed single #
loop $-1 $-1 $164 $99 #
plane-surface $-1 0 0 18.666579884268863 0 0 1 1 0 0 forward_v I I I I #
coedge $-1 $246 $247 $248 $249 reversed $100 $-1 #
coedge $-1 $163 $102 $250 $251 reversed $64 $-1 #
coedge $-1 $102 $162 $246 $252 reversed $64 $-1 #
coedge $-1 $248 $253 $102 $165 forward $159 $-1 #
edge $-1 $254 22.268195663920324 $255 32.721781512822382 $164 $256 forward 7 unknown #
loop $-1 $-1 $171 $103 #
plane-surface $-1 -63.98022400585954 33.414190201037485 1.9373449412841524 -0.84804810408105047 0 0.52991925155115449 0.52991925155115449 0 0.84804810408105047 forward_v I I I I #
loop $-1 $-1 $257 $66 #
coedge $-1 $169 $169 $170 $258 reversed $104 $-1 #
coedge $-1 $170 $170 $169 $258 forward $106 $-1 #
coedge $-1 $171 $171 $107 $172 forward $166 $-1 #
edge $-1 $259 0 $259 6.2831853071796004 $171 $260 forward 7 unknown #
loop $-1 $-1 $178 $108 #
plane-surface $-1 -63.98022400585954 33.414190201037485 1.9373449412841524 -0.84804810408105047 0 0.52991925155115449 0.52991925155115449 0 0.84804810408105047 forward_v I I I I #
loop $-1 $-1 $261 $69 #
coedge $-1 $176 $176 $177 $262 reversed $109 $-1 #
coedge $-1 $177 $177 $176 $262 forward $111 $-1 #
coedge $-1 $178 $178 $112 $179 forward $173 $-1 #
edge $-1 $263 0 $263 6.2831853071796004 $178 $264 forward 7 unknown #
face $-1 $265 $266 $27 $-1 $267 reversed single #
loop $-1 $-1 $268 $113 #
plane-surface $-1 -63.980224005859554 0 0 1 0 0 0 0 -1 forward_v I I I I #
coedge $-1 $269 $191 $270 $271 forward $114 $-1 #
coedge $-1 $272 $116 $269 $273 forward $73 $-1 #
coedge $-1 $116 $272 $274 $275 forward $73 $-1 #
coedge $-1 $194 $193 $116 $187 reversed $195 $-1 #
edge $-1 $276 -40.666991773346311 $277 40.666991773346311 $186 $278 forward 7 unknown #
coedge $-1 $118 $117 $279 $280 forward $46 $-1 #
coedge $-1 $281 $282 $117 $190 reversed $266 $-1 #
edge $-1 $197 -63.980224005859554 $283 63.980224005859554 $189 $284 forward 7 unknown #
coedge $-1 $183 $285 $118 $192 reversed $114 $-1 #
edge $-1 $286 -63.980224005859554 $196 63.980224005859554 $191 $287 forward 7 unknown #
coedge $-1 $186 $119 $285 $288 forward $195 $-1 #
coedge $-1 $119 $186 $281 $289 reversed $195 $-1 #
loop $-1 $-1 $193 $265 #
vertex $-1 $120 $290 #
vertex $-1 $120 $291 #
straight-curve $-1 63.980224005859554 0 18.666579884268863 0 1 0 I I #
face $-1 $292 $293 $28 $-1 $294 reversed single #
loop $-1 $-1 $295 $121 #
plane-surface $-1 0 0 18.666579884268863 0 0 1 1 0 0 forward_v I I I I #
coedge $-1 $296 $297 $298 $299 reversed $122 $-1 #
coedge $-1 $127 $124 $300 $301 reversed $77 $-1 #
coedge $-1 $124 $127 $302 $303 reversed $77 $-1 #
coedge $-1 $297 $296 $124 $206 reversed $122 $-1 #
edge $-1 $304 -18.666579884268863 $305 18.666579884268863 $205 $306 forward 7 unknown #
coedge $-1 $126 $125 $307 $308 reversed $49 $-1 #
coedge $-1 $300 $309 $125 $209 forward $293 $-1 #
edge $-1 $310 -23.732693926730057 $213 -10.135901766502453 $208 $311 forward 7 unknown #
coedge $-1 $312 $302 $126 $211 forward $200 $-1 #
edge $-1 $212 10.135901766502453 $313 23.732693926730057 $210 $314 forward 7 unknown #
vertex $-1 $211 $315 #
vertex $-1 $209 $316 #
straight-curve $-1 -35.337474593305629 -27.070199613118707 0 0 0 -1 I I #
face $-1 $-1 $227 $29 $-1 $317 forward single #
loop $-1 $-1 $318 $129 #
plane-surface $-1 63.980224005859554 0 0 -1 0 0 0 0 1 forward_v I I I I #
coedge $-1 $319 $320 $321 $322 reversed $130 $-1 #
coedge $-1 $323 $132 $134 $225 forward $81 $-1 #
coedge $-1 $132 $323 $319 $324 forward $81 $-1 #
coedge $-1 $321 $135 $132 $222 forward $227 $-1 #
edge $-1 $229 -7.7916288447768913 $325 5.5608688780636548 $221 $326 forward 7 unknown #
coedge $-1 $327 $328 $133 $224 forward $216 $-1 #
edge $-1 $329 -85.47106750192134 $228 -70.659574552887932 $223 $330 forward 7 unknown #
edge $-1 $229 110.8576092820263 $329 127.96044801171911 $134 $331 forward 7 unknown #
coedge $-1 $135 $321 $327 $332 forward $227 $-1 #
loop $-1 $-1 $321 $215 #
vertex $-1 $224 $333 #
vertex $-1 $136 $334 #
straight-curve $-1 55.408500680955896 8.9070088281335096 18.666579884268856 -1 0 0 I I #
coedge $-1 $231 $231 $-1 $335 reversed $139 $-1 #
edge $-1 $336 0 $336 6.2831853071796004 $140 $337 forward 7 unknown #
vertex $-1 $143 $338 #
ellipse-curve $-1 59.704514438003748 -1.7749893501389309 11.260833409752161 0.86602541151947299 0 0.49999998660252726 0.24999999330126363 0 -0.43301270575973649 1 I I #
coedge $-1 $235 $235 $-1 $339 reversed $146 $-1 #
edge $-1 $340 0 $340 6.2831853071796004 $147 $341 forward 7 unknown #
vertex $-1 $150 $342 #
ellipse-curve $-1 59.704514438003748 2.2307599667132365 11.260833409752161 0.86602541151947299 0 0.49999998660252726 0.24999999330126363 0 -0.43301270575973649 1 I I #
coedge $-1 $239 $239 $-1 $343 reversed $153 $-1 #
edge $-1 $344 0 $344 6.2831853071796004 $154 $345 forward 7 unknown #
vertex $-1 $157 $346 #
ellipse-curve $-1 59.704514438003748 6.2365092835653968 11.260833409752161 0.86602541151947299 0 0.49999998660252726 0.24999999330126363 0 -0.43301270575973649 1 I I #
face $-1 $-1 $347 $33 $-1 $348 reversed single #
loop $-1 $-1 $349 $158 #
plane-surface $-1 0 40.666991773346311 0 0 -1 0 0 0 -1 forward_v I I I I #
coedge $-1 $350 $161 $163 $252 forward $100 $-1 #
coedge $-1 $161 $350 $349 $351 reversed $100 $-1 #
coedge $-1 $352 $164 $161 $249 forward $159 $-1 #
edge $-1 $255 9.4542935282099165 $353 23.959896672827568 $248 $354 forward 7 unknown #
coedge $-1 $355 $356 $162 $251 forward $347 $-1 #
edge $-1 $357 -32.935679948618251 $254 -16.206445005633519 $250 $358 forward 7 unknown #
edge $-1 $255 -19.726752365200557 $357 2.6737665129848107e-014 $163 $359 forward 7 unknown #
coedge $-1 $164 $352 $355 $360 forward $159 $-1 #
vertex $-1 $251 $361 #
vertex $-1 $165 $362 #
straight-curve $-1 -86.248419669779878 26.161388628728659 18.666579884268863 1 0 0 I I #
coedge $-1 $257 $257 $-1 $363 reversed $168 $-1 #
edge $-1 $364 0 $364 6.2831853071796004 $169 $365 forward 7 unknown #
vertex $-1 $172 $366 #
ellipse-curve $-1 -58.753431081408522 30.305846670047984 10.301962412776497 -0.84804810408105047 0 0.52991925155115449 0.52991925155115449 0 0.84804810408105047 1 I I #
coedge $-1 $261 $261 $-1 $367 reversed $175 $-1 #
edge $-1 $368 0 $368 6.2831853071796004 $176 $369 forward 7 unknown #
vertex $-1 $179 $370 #
ellipse-curve $-1 -58.753431081408522 36.522533732026972 10.301962412776497 -0.84804810408105047 0 0.52991925155115449 0.52991925155115449 0 0.84804810408105047 1 I I #
face $-1 $-1 $195 $27 $-1 $371 reversed single #
loop $-1 $-1 $281 $180 #
plane-surface $-1 0 40.666991773346311 0 0 -1 0 0 0 -1 forward_v I I I I #
coedge $-1 $372 $279 $282 $373 forward $181 $-1 #
coedge $-1 $285 $183 $184 $273 reversed $114 $-1 #
coedge $-1 $279 $372 $183 $271 reversed $181 $-1 #
edge $-1 $286 -18.666579884268863 $374 18.666579884268863 $270 $375 forward 7 unknown #
coedge $-1 $185 $184 $372 $376 forward $73 $-1 #
edge $-1 $277 -63.980224005859554 $374 63.980224005859554 $269 $377 forward 7 unknown #
coedge $-1 $282 $281 $185 $275 reversed $266 $-1 #
edge $-1 $378 -63.980224005859554 $276 63.980224005859554 $274 $379 forward 7 unknown #
vertex $-1 $187 $380 #
vertex $-1 $288 $381 #
straight-curve $-1 63.980224005859554 0 -18.666579884268863 0 -1 0 I I #
coedge $-1 $268 $270 $188 $280 reversed $181 $-1 #
edge $-1 $283 -40.666991773346311 $286 40.666991773346311 $279 $382 forward 7 unknown #
coedge $-1 $274 $189 $194 $289 forward $266 $-1 #
coedge $-1 $189 $274 $268 $373 reversed $266 $-1 #
vertex $-1 $190 $383 #
straight-curve $-1 0 40.666991773346311 18.666579884268863 -1 0 0 I I #
coedge $-1 $191 $269 $193 $288 reversed $114 $-1 #
vertex $-1 $280 $384 #
straight-curve $-1 0 -40.666991773346311 18.666579884268863 1 0 0 I I #
edge $-1 $196 -18.666579884268863 $277 18.666579884268863 $193 $385 forward 7 unknown #
edge $-1 $197 -18.666579884268863 $276 18.666579884268863 $194 $386 forward 7 unknown #
point $-1 63.980224005859554 -40.666991773346311 18.666579884268863 #
point $-1 63.980224005859554 40.666991773346311 18.666579884268863 #
face $-1 $-1 $387 $28 $-1 $388 reversed single #
loop $-1 $-1 $389 $199 #
plane-surface $-1 0 0 -18.666579884268863 0 0 1 1 0 0 forward_v I I I I #
coedge $-1 $302 $312 $297 $390 forward $200 $-1 #
coedge $-1 $205 $202 $389 $391 reversed $122 $-1 #
coedge $-1 $202 $205 $295 $390 reversed $122 $-1 #
coedge $-1 $392 $393 $202 $299 forward $387 $-1 #
edge $-1 $394 -18.666579884268863 $395 18.666579884268863 $298 $396 forward 7 unknown #
coedge $-1 $389 $208 $203 $301 forward $293 $-1 #
edge $-1 $213 -19.841339885648765 $305 -11.15092952966496 $300 $397 forward 7 unknown #
coedge $-1 $210 $295 $204 $303 forward $200 $-1 #
edge $-1 $304 11.15092952966496 $212 19.841339885648765 $302 $398 forward 7 unknown #
vertex $-1 $303 $399 #
vertex $-1 $301 $400 #
straight-curve $-1 -26.647064237321825 -27.070199613118707 0 0 0 -1 I I #
coedge $-1 $393 $392 $207 $308 forward $387 $-1 #
edge $-1 $313 -18.666579884268863 $310 18.666579884268863 $307 $401 forward 7 unknown #
coedge $-1 $208 $389 $393 $402 forward $293 $-1 #
vertex $-1 $209 $403 #
straight-curve $-1 -35.337474593305629 -16.934297846616253 -18.666579884268863 0 1 0 I I #
coedge $-1 $295 $210 $392 $404 forward $200 $-1 #
vertex $-1 $404 $405 #
straight-curve $-1 -35.337474593305629 -16.934297846616253 18.666579884268863 0 -1 0 I I #
point $-1 -35.337474593305629 -27.070199613118707 18.666579884268863 #
point $-1 -35.337474593305629 -27.070199613118707 -18.666579884268863 #
plane-surface $-1 0 0 18.666579884268863 0 0 1 1 0 0 forward_v I I I I #
coedge $-1 $328 $327 $320 $406 forward $216 $-1 #
coedge $-1 $320 $218 $220 $324 reversed $130 $-1 #
coedge $-1 $218 $319 $318 $406 reversed $130 $-1 #
coedge $-1 $226 $221 $218 $322 forward $227 $-1 #
edge $-1 $325 0.020304189192067668 $407 8.5717233249036582 $321 $408 forward 7 unknown #
coedge $-1 $220 $219 $328 $409 reversed $81 $-1 #
edge $-1 $410 -127.96044801171911 $325 -110.8576092820263 $319 $411 forward 7 unknown #
vertex $-1 $222 $412 #
straight-curve $-1 55.428804870147957 1.1153799833566183 18.666579884268863 0 -1 0 I I #
coedge $-1 $318 $223 $226 $332 reversed $216 $-1 #
coedge $-1 $223 $318 $323 $409 forward $216 $-1 #
vertex $-1 $224 $413 #
straight-curve $-1 63.980224005859554 8.9070088281335096 89.326154437156788 0 0 1 I I #
straight-curve $-1 1.7143466095603799e-006 8.9070088281335096 114.67208658280063 0.49999998660252726 0 -0.86602541151947299 I I #
edge $-1 $407 -4.4454888947070366 $228 8.9070088281335096 $327 $414 forward 7 unknown #
point $-1 63.980224005859554 8.9070088281335096 18.666579884268863 #
point $-1 55.428804870147964 8.9070088281335096 18.666579884268856 #
edge $-1 $415 1 $415 0 $231 $-1 forward 7 unknown #
vertex $-1 $232 $416 #
ellipse-curve $-1 58.134451888142173 -1.7749893501389309 10.354357406330331 0.86602541151947299 0 0.49999998660252726 0.24999999330126363 0 -0.43301270575973649 1 I I #
point $-1 59.954514431305014 -1.7749893501389309 10.827820703992428 #
edge $-1 $417 1 $417 0 $235 $-1 forward 7 unknown #
vertex $-1 $236 $418 #
ellipse-curve $-1 58.134451888142173 2.2307599667132365 10.354357406330331 0.86602541151947299 0 0.49999998660252726 0.24999999330126363 0 -0.43301270575973649 1 I I #
point $-1 59.954514431305014 2.2307599667132365 10.827820703992428 #
edge $-1 $419 1 $419 0 $239 $-1 forward 7 unknown #
vertex $-1 $240 $420 #
ellipse-curve $-1 58.134451888142173 6.2365092835653968 10.354357406330331 0.86602541151947299 0 0.49999998660252726 0.24999999330126363 0 -0.43301270575973649 1 I I #
point $-1 59.954514431305014 6.2365092835653968 10.827820703992428 #
loop $-1 $-1 $250 $243 #
plane-surface $-1 -63.980224005859554 0 0 1 0 0 0 0 -1 forward_v I I I I #
coedge $-1 $421 $422 $247 $351 forward $244 $-1 #
coedge $-1 $247 $246 $356 $423 reversed $100 $-1 #
edge $-1 $353 -3.59605700777393 $424 16.130695357426653 $349 $425 forward 7 unknown #
coedge $-1 $253 $248 $422 $426 forward $159 $-1 #
vertex $-1 $426 $427 #
straight-curve $-1 -53.526638156957496 16.707095100518742 18.666579884268863 0 1 0 I I #
coedge $-1 $428 $250 $253 $360 reversed $347 $-1 #
coedge $-1 $250 $428 $350 $423 forward $347 $-1 #
vertex $-1 $251 $429 #
straight-curve $-1 -63.980224005859554 26.161388628728659 34.873024889902382 0 0 1 I I #
straight-curve $-1 -63.98022400585954 26.161388628728659 1.9373449412841524 -0.52991925155115449 0 -0.84804810408105047 I I #
edge $-1 $430 -40.666991773346311 $254 -26.161388628728659 $355 $431 forward 7 unknown #
point $-1 -63.980224005859554 26.161388628728659 18.666579884268863 #
point $-1 -53.526638156957496 26.161388628728659 18.666579884268863 #
edge $-1 $432 1 $432 0 $257 $-1 forward 7 unknown #
vertex $-1 $258 $433 #
ellipse-curve $-1 -55.527395738609535 30.305846670047984 8.28611186596574 -0.84804810408105047 0 0.52991925155115449 0.52991925155115449 0 0.84804810408105047 1 I I #
point $-1 -58.223511829857372 30.305846670047984 11.150010516857552 #
edge $-1 $434 1 $434 0 $261 $-1 forward 7 unknown #
vertex $-1 $262 $435 #
ellipse-curve $-1 -55.527395738609535 36.522533732026972 8.28611186596574 -0.84804810408105047 0 0.52991925155115449 0.52991925155115449 0 0.84804810408105047 1 I I #
point $-1 -58.223511829857372 36.522533732026972 11.150010516857552 #
plane-surface $-1 63.980224005859554 0 0 -1 0 0 0 0 1 forward_v I I I I #
coedge $-1 $270 $268 $272 $376 reversed $181 $-1 #
edge $-1 $283 -18.666579884268863 $378 18.666579884268863 $282 $436 forward 7 unknown #
vertex $-1 $376 $437 #
straight-curve $-1 -63.980224005859554 -40.666991773346311 0 0 0 -1 I I #
edge $-1 $374 -40.666991773346311 $378 40.666991773346311 $372 $438 forward 7 unknown #
straight-curve $-1 0 -40.666991773346311 -18.666579884268863 -1 0 0 I I #
vertex $-1 $275 $439 #
straight-curve $-1 0 40.666991773346311 -18.666579884268863 1 0 0 I I #
point $-1 63.980224005859554 40.666991773346311 -18.666579884268863 #
point $-1 63.980224005859554 -40.666991773346311 -18.666579884268863 #
straight-curve $-1 -63.980224005859554 0 18.666579884268863 0 -1 0 I I #
point $-1 -63.980224005859554 40.666991773346311 18.666579884268863 #
point $-1 -63.980224005859554 -40.666991773346311 18.666579884268863 #
straight-curve $-1 63.980224005859554 -40.666991773346311 0 0 0 -1 I I #
straight-curve $-1 63.980224005859554 40.666991773346311 0 0 0 -1 I I #
loop $-1 $-1 $298 $292 #
plane-surface $-1 0 -40.666991773346311 0 0 1 0 0 0 1 forward_v I I I I #
coedge $-1 $309 $300 $296 $391 forward $293 $-1 #
edge $-1 $395 -23.732693926730057 $304 -10.135901766502453 $295 $440 forward 7 unknown #
edge $-1 $305 10.135901766502453 $394 23.732693926730057 $389 $441 forward 7 unknown #
coedge $-1 $307 $298 $312 $404 reversed $387 $-1 #
coedge $-1 $298 $307 $309 $402 reversed $387 $-1 #
vertex $-1 $402 $442 #
vertex $-1 $299 $443 #
straight-curve $-1 -26.647064237321825 -40.666991773346311 0 0 0 1 I I #
straight-curve $-1 -15.496134707656864 -27.070199613118707 -18.666579884268863 1 0 0 I I #
straight-curve $-1 -15.496134707656864 -27.070199613118707 18.666579884268863 -1 0 0 I I #
point $-1 -26.647064237321825 -27.070199613118707 18.666579884268863 #
point $-1 -26.647064237321825 -27.070199613118707 -18.666579884268863 #
straight-curve $-1 -35.337474593305629 -40.666991773346311 0 0 0 -1 I I #
edge $-1 $394 26.647064237321825 $310 35.337474593305629 $393 $444 forward 7 unknown #
point $-1 -35.337474593305629 -40.666991773346311 -18.666579884268863 #
edge $-1 $313 -35.337474593305629 $395 -26.647064237321825 $392 $445 forward 7 unknown #
point $-1 -35.337474593305629 -40.666991773346311 18.666579884268863 #
edge $-1 $407 70.659574552887932 $410 85.47106750192134 $318 $446 forward 7 unknown #
vertex $-1 $332 $447 #
straight-curve $-1 55.408500680955896 -4.4454888947070366 18.666579884268856 1 0 0 I I #
edge $-1 $410 -5.5608688780636548 $329 7.7916288447768913 $328 $448 forward 7 unknown #
vertex $-1 $409 $449 #
straight-curve $-1 1.7143466095603799e-006 -4.4454888947070366 114.67208658280063 -0.49999998660252726 0 0.86602541151947299 I I #
point $-1 55.428804870147964 -4.4454888947070366 18.666579884268856 #
point $-1 63.980224005859554 8.9070088281335096 3.8550869352354482 #
straight-curve $-1 63.980224005859554 0 18.666579884268863 0 1 0 I I #
vertex $-1 $335 $450 #
point $-1 58.384451881443439 -1.7749893501389309 9.9213447005705948 #
vertex $-1 $339 $451 #
point $-1 58.384451881443439 2.2307599667132365 9.9213447005705948 #
vertex $-1 $343 $452 #
point $-1 58.384451881443439 6.2365092835653968 9.9213447005705948 #
coedge $-1 $422 $349 $428 $453 reversed $244 $-1 #
coedge $-1 $349 $421 $352 $426 reversed $244 $-1 #
edge $-1 $424 -23.959896672827568 $357 -9.4542935282099165 $356 $454 forward 7 unknown #
vertex $-1 $351 $455 #
straight-curve $-1 -55.432257995052339 40.666991773346311 15.616950556658805 -0.52991925155115449 0 -0.84804810408105047 I I #
edge $-1 $353 53.526638156957496 $430 63.980224005859554 $422 $456 forward 7 unknown #
point $-1 -53.526638156957496 40.666991773346311 18.666579884268863 #
coedge $-1 $356 $355 $421 $453 forward $347 $-1 #
point $-1 -63.980224005859554 26.161388628728659 1.9373449412841297 #
vertex $-1 $426 $457 #
straight-curve $-1 -63.980224005859554 0 18.666579884268863 0 -1 0 I I #
vertex $-1 $363 $458 #
point $-1 -54.997476487058378 30.305846670047984 9.1341599700467899 #
vertex $-1 $367 $459 #
point $-1 -54.997476487058378 36.522533732026972 9.1341599700467899 #
straight-curve $-1 -63.980224005859554 40.666991773346311 0 0 0 -1 I I #
point $-1 -63.980224005859554 -40.666991773346311 -18.666579884268863 #
straight-curve $-1 -63.980224005859554 0 -18.666579884268863 0 1 0 I I #
point $-1 -63.980224005859554 40.666991773346311 -18.666579884268863 #
straight-curve $-1 -26.647064237321825 -16.934297846616253 18.666579884268863 0 1 0 I I #
straight-curve $-1 -26.647064237321825 -16.934297846616253 -18.666579884268863 0 -1 0 I I #
point $-1 -26.647064237321825 -40.666991773346311 -18.666579884268863 #
point $-1 -26.647064237321825 -40.666991773346311 18.666579884268863 #
straight-curve $-1 0 -40.666991773346311 -18.666579884268863 -1 0 0 I I #
straight-curve $-1 0 -40.666991773346311 18.666579884268863 1 0 0 I I #
straight-curve $-1 63.980224005859554 -4.4454888947070366 89.326154437156788 0 0 -1 I I #
point $-1 63.980224005859554 -4.4454888947070366 18.666579884268863 #
straight-curve $-1 63.980224005859554 1.1153799833566183 3.8550869352354482 0 1 0 I I #
point $-1 63.980224005859554 -4.4454888947070366 3.8550869352354482 #
point $-1 57.701439182382437 -1.7749893501389309 10.104357413029069 #
point $-1 57.701439182382437 2.2307599667132365 10.104357413029069 #
point $-1 57.701439182382437 6.2365092835653968 10.104357413029069 #
edge $-1 $430 -18.666579884268863 $424 -1.9373449412841297 $421 $460 forward 7 unknown #
straight-curve $-1 -63.980224005859554 16.707095100518742 1.9373449412841186 0 -1 0 I I #
point $-1 -63.980224005859554 40.666991773346311 1.9373449412841297 #
straight-curve $-1 0 40.666991773346311 18.666579884268863 -1 0 0 I I #
point $-1 -63.980224005859554 40.666991773346311 18.666579884268863 #
point $-1 -54.679347634528476 30.305846670047984 7.7561926144145845 #
point $-1 -54.679347634528476 36.522533732026972 7.7561926144145845 #
straight-curve $-1 -63.980224005859554 40.666991773346311 0 0 0 -1 I I #
End-of-ACIS-data 