500 0 8 0           
7 Unknown 11 ACIS 5.0 NT 24 Fri Mar 26 17:22:50 1999 
-1 9.9999999999999995e-007 1e-010 
body $-1 $8 $-1 $9 #
body $-1 $10 $-1 $11 #
body $-1 $12 $-1 $13 #
body $-1 $14 $-1 $15 #
body $-1 $16 $-1 $17 #
body $-1 $18 $-1 $19 #
body $-1 $20 $-1 $21 #
body $-1 $22 $-1 $23 #
lump $-1 $-1 $24 $0 #
transform $-1 1 0 0 0 1 0 0 0 1 47.434308908352918 30.619138096659594 12.135894964108324 1 rotate no_reflect no_shear #
lump $-1 $-1 $25 $1 #
transform $-1 1 0 0 0 1 0 0 0 1 47.434308908352918 30.619138096659594 12.135894964108324 1 rotate no_reflect no_shear #
lump $-1 $-1 $26 $2 #
transform $-1 1 0 0 0 1 0 0 0 1 47.434308908352918 30.619138096659594 12.135894964108324 1 rotate no_reflect no_shear #
lump $-1 $-1 $27 $3 #
transform $-1 1 0 0 0 1 0 0 0 1 47.434308908352918 30.619138096659594 12.135894964108324 1 rotate no_reflect no_shear #
lump $-1 $-1 $28 $4 #
transform $-1 1 0 0 0 1 0 0 0 1 47.434308908352918 30.619138096659594 12.135894964108324 1 rotate no_reflect no_shear #
lump $-1 $-1 $29 $5 #
transform $-1 1 0 0 0 1 0 0 0 1 47.434308908352918 30.619138096659594 12.135894964108324 1 rotate no_reflect no_shear #
lump $-1 $-1 $30 $6 #
transform $-1 1 0 0 0 1 0 0 0 1 47.434308908352918 30.619138096659594 12.135894964108324 1 rotate no_reflect no_shear #
lump $-1 $-1 $31 $7 #
transform $-1 1 0 0 0 1 0 0 0 1 47.434308908352918 30.619138096659594 12.135894964108324 1 rotate no_reflect no_shear #
shell $-1 $-1 $-1 $32 $-1 $8 #
shell $-1 $-1 $-1 $33 $-1 $10 #
shell $-1 $-1 $-1 $34 $-1 $12 #
shell $-1 $-1 $-1 $35 $-1 $14 #
shell $-1 $-1 $-1 $36 $-1 $16 #
shell $-1 $-1 $-1 $37 $-1 $18 #
shell $-1 $-1 $-1 $38 $-1 $20 #
shell $-1 $-1 $-1 $39 $-1 $22 #
face $-1 $40 $41 $24 $-1 $42 forward single #
face $-1 $43 $44 $25 $-1 $45 reversed single #
face $-1 $46 $47 $26 $-1 $48 reversed single #
face $-1 $49 $50 $27 $-1 $51 forward single #
face $-1 $52 $53 $28 $-1 $54 reversed single #
face $-1 $55 $56 $29 $-1 $57 forward single #
face $-1 $58 $59 $30 $-1 $60 reversed single #
face $-1 $61 $62 $31 $-1 $63 forward single #
face $-1 $64 $65 $24 $-1 $66 reversed single #
loop $-1 $-1 $67 $32 #
plane-surface $-1 0 0 12.135894964108324 0 0 1 1 0 0 forward_v I I I I #
face $-1 $68 $69 $25 $-1 $70 reversed single #
loop $-1 $-1 $71 $33 #
plane-surface $-1 -45.52709155193714 -14.616134480030528 0 0 -1 0 0 0 -1 forward_v I I I I #
face $-1 $72 $73 $26 $-1 $74 reversed single #
loop $-1 $-1 $75 $34 #
plane-surface $-1 47.434310465003293 4.1995613514446255 139.84866487880441 0 -1 0 -0.70710678939079041 0 -0.70710677298230451 forward_v I I I I #
face $-1 $76 $77 $27 $-1 $78 forward single #
loop $-1 $79 $80 $35 #
cone-surface $-1 43.233786459815008 1.1388048951298977 7.9353724633312339 -0.70710678939079041 0 -0.70710677298230451 0.70710677298230451 0 -0.70710678939079041 1 I I 0 1 1 forward I I I I #
face $-1 $81 $82 $28 $-1 $83 reversed single #
loop $-1 $-1 $84 $36 #
plane-surface $-1 47.434310465003293 17.924955177813896 139.84866487880441 0 -1 0 -0.70710678939079041 0 -0.70710677298230451 forward_v I I I I #
face $-1 $85 $86 $29 $-1 $87 forward single #
loop $-1 $88 $89 $37 #
cone-surface $-1 43.233786459815008 14.864198721499168 7.9353724633312339 -0.70710678939079041 0 -0.70710677298230451 0.70710677298230451 0 -0.70710678939079041 1 I I 0 1 1 forward I I I I #
face $-1 $90 $91 $30 $-1 $92 reversed single #
loop $-1 $-1 $93 $38 #
plane-surface $-1 -47.434308908352918 -8.6203170857101519 2.3233562039831099 -0.87461971476443456 0 0.48480960649040278 0.48480960649040278 0 0.87461971476443456 forward_v I I I I #
face $-1 $94 $95 $31 $-1 $96 forward single #
loop $-1 $97 $98 $39 #
cone-surface $-1 -42.966387584526622 -8.6203170857101519 6.2605094237282826 0.87461971476443456 0 -0.48480960649040278 0.96961921298080556 0 1.7492394295288691 1 I I 0 1 2 forward I I I I #
face $-1 $99 $100 $24 $-1 $101 reversed single #
loop $-1 $-1 $102 $40 #
plane-surface $-1 0 0 -12.135894964108324 0 0 1 1 0 0 forward_v I I I I #
coedge $-1 $103 $104 $105 $106 forward $41 $-1 #
face $-1 $107 $108 $25 $-1 $109 forward single #
loop $-1 $-1 $110 $43 #
plane-surface $-1 -43.619874195521362 -22.617636288345061 0 -1 0 0 0 0 1 forward_v I I I I #
coedge $-1 $111 $112 $113 $114 forward $44 $-1 #
face $-1 $115 $116 $26 $-1 $117 reversed single #
loop $-1 $-1 $118 $46 #
plane-surface $-1 -19.647933293309507 1.1388048951298977 72.766422677141989 0.70710678939079041 0 0.70710677298230451 0.70710677298230451 0 -0.70710678939079041 forward_v I I I I #
coedge $-1 $119 $120 $121 $122 reversed $47 $-1 #
face $-1 $-1 $123 $27 $-1 $124 forward single #
loop $-1 $125 $126 $49 #
cone-surface $-1 41.905568564364899 1.1388048951298977 6.6071545987025573 -0.70710678939079041 0 -0.70710677298230451 0.35355338649115226 0 -0.35355339469539521 1 I I -0.70710678118654746 0.70710678118654746 0.5 forward I I I I #
loop $-1 $-1 $127 $35 #
coedge $-1 $80 $80 $128 $129 reversed $50 $-1 #
face $-1 $130 $131 $28 $-1 $132 reversed single #
loop $-1 $-1 $133 $52 #
plane-surface $-1 -19.647933293309507 14.864198721499168 72.766422677141989 0.70710678939079041 0 0.70710677298230451 0.70710677298230451 0 -0.70710678939079041 forward_v I I I I #
coedge $-1 $134 $135 $136 $137 reversed $53 $-1 #
face $-1 $-1 $138 $29 $-1 $139 forward single #
loop $-1 $140 $141 $55 #
cone-surface $-1 41.905568564364899 14.864198721499168 6.6071545987025573 -0.70710678939079041 0 -0.70710677298230451 0.35355338649115226 0 -0.35355339469539521 1 I I -0.70710678118654746 0.70710678118654746 0.5 forward I I I I #
loop $-1 $-1 $142 $37 #
coedge $-1 $89 $89 $143 $144 reversed $56 $-1 #
face $-1 $145 $146 $30 $-1 $147 reversed single #
loop $-1 $-1 $148 $58 #
plane-surface $-1 -130.40827236329633 -2.6244996913897758 48.316573475988683 0 -1 0 0.87461971476443456 0 -0.48480960649040278 forward_v I I I I #
coedge $-1 $149 $150 $151 $152 reversed $59 $-1 #
face $-1 $-1 $153 $31 $-1 $154 forward single #
loop $-1 $155 $156 $61 #
cone-surface $-1 -40.343435971295115 -8.6203170857101519 4.806583656920445 0.87461971476443456 0 -0.48480960649040278 0.48480960649040278 0 0.87461971476443456 1 I I -0.70710678118654746 0.70710678118654746 1 forward I I I I #
loop $-1 $-1 $157 $39 #
coedge $-1 $98 $98 $158 $159 reversed $62 $-1 #
face $-1 $160 $161 $24 $-1 $162 reversed single #
loop $-1 $-1 $163 $64 #
plane-surface $-1 0 -30.619138096659594 0 0 1 0 0 0 1 forward_v I I I I #
coedge $-1 $164 $165 $166 $167 forward $65 $-1 #
coedge $-1 $168 $67 $169 $170 forward $41 $-1 #
coedge $-1 $67 $168 $171 $172 forward $41 $-1 #
coedge $-1 $173 $174 $67 $106 reversed $175 $-1 #
edge $-1 $176 -30.619138096659594 $177 30.619138096659594 $105 $178 forward 7 unknown #
face $-1 $179 $180 $25 $-1 $181 reversed single #
loop $-1 $-1 $182 $68 #
plane-surface $-1 0 0 12.135894964108324 0 0 1 1 0 0 forward_v I I I I #
coedge $-1 $183 $184 $185 $186 reversed $69 $-1 #
coedge $-1 $187 $71 $188 $189 reversed $44 $-1 #
coedge $-1 $71 $187 $190 $191 reversed $44 $-1 #
coedge $-1 $184 $183 $71 $114 reversed $69 $-1 #
edge $-1 $192 -12.135894964108324 $193 12.135894964108324 $113 $194 forward 7 unknown #
face $-1 $195 $196 $26 $-1 $197 reversed single #
loop $-1 $-1 $198 $72 #
plane-surface $-1 47.434310465003293 -1.9219515611848301 139.84866487880441 0 1 0 0.70710678939079041 0 0.70710677298230451 forward_v I I I I #
coedge $-1 $199 $200 $201 $202 reversed $73 $-1 #
coedge $-1 $120 $75 $203 $204 reversed $47 $-1 #
coedge $-1 $75 $119 $199 $205 reversed $47 $-1 #
coedge $-1 $201 $206 $75 $122 forward $207 $-1 #
edge $-1 $208 -23.717153675851272 $209 -17.26543778028487 $121 $210 forward 7 unknown #
loop $-1 $-1 $128 $76 #
plane-surface $-1 -19.647933293309507 1.1388048951298977 72.766422677141989 0.70710678939079041 0 0.70710677298230451 0.70710677298230451 0 -0.70710678939079041 forward_v I I I I #
loop $-1 $-1 $211 $49 #
coedge $-1 $126 $126 $127 $212 reversed $77 $-1 #
coedge $-1 $127 $127 $126 $212 forward $79 $-1 #
coedge $-1 $128 $128 $80 $129 forward $123 $-1 #
edge $-1 $213 0 $213 6.2831853071796004 $128 $214 forward 7 unknown #
face $-1 $215 $216 $28 $-1 $217 reversed single #
loop $-1 $-1 $218 $81 #
plane-surface $-1 47.434310465003293 11.80344226518444 139.84866487880441 0 1 0 0.70710678939079041 0 0.70710677298230451 forward_v I I I I #
coedge $-1 $219 $220 $221 $222 reversed $82 $-1 #
coedge $-1 $135 $84 $223 $224 reversed $53 $-1 #
coedge $-1 $84 $134 $219 $225 reversed $53 $-1 #
coedge $-1 $221 $226 $84 $137 forward $227 $-1 #
edge $-1 $228 -23.717153675851272 $229 -17.26543778028487 $136 $230 forward 7 unknown #
loop $-1 $-1 $143 $85 #
plane-surface $-1 -19.647933293309507 14.864198721499168 72.766422677141989 0.70710678939079041 0 0.70710677298230451 0.70710677298230451 0 -0.70710678939079041 forward_v I I I I #
loop $-1 $-1 $231 $55 #
coedge $-1 $141 $141 $142 $232 reversed $86 $-1 #
coedge $-1 $142 $142 $141 $232 forward $88 $-1 #
coedge $-1 $143 $143 $89 $144 forward $138 $-1 #
edge $-1 $233 0 $233 6.2831853071796004 $143 $234 forward 7 unknown #
face $-1 $235 $236 $30 $-1 $237 forward single #
loop $-1 $-1 $238 $90 #
plane-surface $-1 -47.434308908352918 0 0 1 0 0 0 0 -1 forward_v I I I I #
coedge $-1 $239 $240 $241 $242 reversed $91 $-1 #
coedge $-1 $243 $93 $244 $245 reversed $59 $-1 #
coedge $-1 $93 $243 $239 $246 forward $59 $-1 #
coedge $-1 $241 $247 $93 $152 forward $248 $-1 #
edge $-1 $249 -10.305975937175452 $250 1.6856588514653001 $151 $251 forward 7 unknown #
loop $-1 $-1 $158 $94 #
plane-surface $-1 -47.434308908352918 -8.6203170857101519 2.3233562039831099 -0.87461971476443456 0 0.48480960649040278 0.48480960649040278 0 0.87461971476443456 forward_v I I I I #
loop $-1 $-1 $252 $61 #
coedge $-1 $156 $156 $157 $253 reversed $95 $-1 #
coedge $-1 $157 $157 $156 $253 forward $97 $-1 #
coedge $-1 $158 $158 $98 $159 forward $153 $-1 #
edge $-1 $254 0 $254 6.2831853071796004 $158 $255 forward 7 unknown #
face $-1 $256 $257 $24 $-1 $258 reversed single #
loop $-1 $-1 $259 $99 #
plane-surface $-1 -47.434308908352918 0 0 1 0 0 0 0 -1 forward_v I I I I #
coedge $-1 $260 $171 $261 $262 forward $100 $-1 #
coedge $-1 $263 $102 $260 $264 forward $65 $-1 #
coedge $-1 $102 $263 $265 $266 forward $65 $-1 #
coedge $-1 $174 $173 $102 $167 reversed $175 $-1 #
edge $-1 $267 -30.619138096659594 $268 30.619138096659594 $166 $269 forward 7 unknown #
coedge $-1 $104 $103 $270 $271 forward $41 $-1 #
coedge $-1 $272 $273 $103 $170 reversed $257 $-1 #
edge $-1 $177 -47.434308908352918 $274 47.434308908352918 $169 $275 forward 7 unknown #
coedge $-1 $163 $276 $104 $172 reversed $100 $-1 #
edge $-1 $277 -47.434308908352918 $176 47.434308908352918 $171 $278 forward 7 unknown #
coedge $-1 $166 $105 $276 $279 forward $175 $-1 #
coedge $-1 $105 $166 $272 $280 reversed $175 $-1 #
loop $-1 $-1 $173 $256 #
vertex $-1 $106 $281 #
vertex $-1 $106 $282 #
straight-curve $-1 47.434308908352918 0 12.135894964108324 0 1 0 I I #
face $-1 $283 $284 $25 $-1 $285 reversed single #
loop $-1 $-1 $286 $107 #
plane-surface $-1 -47.434308908352918 0 0 1 0 0 0 0 -1 forward_v I I I I #
coedge $-1 $190 $287 $184 $288 forward $108 $-1 #
coedge $-1 $113 $110 $289 $290 reversed $69 $-1 #
coedge $-1 $110 $113 $182 $288 reversed $69 $-1 #
coedge $-1 $291 $292 $110 $186 forward $293 $-1 #
edge $-1 $294 -12.135894964108324 $295 12.135894964108324 $185 $296 forward 7 unknown #
coedge $-1 $112 $111 $286 $297 reversed $44 $-1 #
coedge $-1 $289 $298 $111 $189 forward $284 $-1 #
edge $-1 $299 -24.670763132384348 $193 -20.856328419552792 $188 $300 forward 7 unknown #
coedge $-1 $301 $182 $112 $191 forward $108 $-1 #
edge $-1 $192 20.856328419552792 $302 24.670763132384348 $190 $303 forward 7 unknown #
vertex $-1 $191 $304 #
vertex $-1 $189 $305 #
straight-curve $-1 -43.619874195521362 -14.616134480030528 0 0 0 -1 I I #
face $-1 $-1 $207 $26 $-1 $306 forward single #
loop $-1 $-1 $307 $115 #
plane-surface $-1 47.434308908352918 0 0 -1 0 0 0 0 1 forward_v I I I I #
coedge $-1 $308 $309 $310 $311 reversed $116 $-1 #
coedge $-1 $312 $118 $120 $205 forward $73 $-1 #
coedge $-1 $118 $312 $308 $313 forward $73 $-1 #
coedge $-1 $310 $121 $118 $202 forward $207 $-1 #
edge $-1 $209 -3.6301589038796767 $314 2.491354008749779 $201 $315 forward 7 unknown #
coedge $-1 $316 $317 $119 $204 forward $196 $-1 #
edge $-1 $318 -64.240153520573017 $208 -57.788437475293883 $203 $319 forward 7 unknown #
edge $-1 $209 85.744513590754892 $318 94.868617816705864 $120 $320 forward 7 unknown #
coedge $-1 $121 $310 $316 $321 forward $207 $-1 #
loop $-1 $-1 $310 $195 #
vertex $-1 $204 $322 #
vertex $-1 $122 $323 #
straight-curve $-1 23.717155232501646 4.1995613514446255 12.135894964108324 -1 0 0 I I #
coedge $-1 $211 $211 $-1 $324 reversed $125 $-1 #
edge $-1 $325 0 $325 6.2831853071796004 $126 $326 forward 7 unknown #
vertex $-1 $129 $327 #
ellipse-curve $-1 44.208450960569721 1.1388048951298977 8.910036941468757 0.70710678939079041 0 0.70710677298230451 0.70710677298230451 0 -0.70710678939079041 1 I I #
face $-1 $-1 $227 $28 $-1 $328 forward single #
loop $-1 $-1 $329 $130 #
plane-surface $-1 47.434308908352918 0 0 -1 0 0 0 0 1 forward_v I I I I #
coedge $-1 $330 $331 $332 $333 reversed $131 $-1 #
coedge $-1 $334 $133 $135 $225 forward $82 $-1 #
coedge $-1 $133 $334 $330 $335 forward $82 $-1 #
coedge $-1 $332 $136 $133 $222 forward $227 $-1 #
edge $-1 $229 -10.492855817064312 $336 -4.3713429044348562 $221 $337 forward 7 unknown #
coedge $-1 $338 $339 $134 $224 forward $216 $-1 #
edge $-1 $340 -64.240153520573017 $228 -57.788437475293883 $223 $341 forward 7 unknown #
edge $-1 $229 85.744513590754892 $340 94.868617816705864 $135 $342 forward 7 unknown #
coedge $-1 $136 $332 $338 $343 forward $227 $-1 #
loop $-1 $-1 $332 $215 #
vertex $-1 $224 $344 #
vertex $-1 $137 $345 #
straight-curve $-1 23.717155232501646 17.924955177813896 12.135894964108324 -1 0 0 I I #
coedge $-1 $231 $231 $-1 $346 reversed $140 $-1 #
edge $-1 $347 0 $347 6.2831853071796004 $141 $348 forward 7 unknown #
vertex $-1 $144 $349 #
ellipse-curve $-1 44.208450960569721 14.864198721499168 8.910036941468757 0.70710678939079041 0 0.70710677298230451 0.70710677298230451 0 -0.70710678939079041 1 I I #
face $-1 $-1 $248 $30 $-1 $350 forward single #
loop $-1 $-1 $244 $145 #
plane-surface $-1 -45.52709155193714 -14.616134480030528 0 0 -1 0 0 0 -1 forward_v I I I I #
coedge $-1 $351 $352 $240 $353 forward $146 $-1 #
coedge $-1 $240 $148 $150 $246 reversed $91 $-1 #
coedge $-1 $148 $239 $238 $353 reversed $91 $-1 #
coedge $-1 $354 $151 $148 $242 forward $248 $-1 #
edge $-1 $250 -23.209006124013712 $355 -17.769827273295249 $241 $356 forward 7 unknown #
coedge $-1 $150 $149 $351 $357 reversed $59 $-1 #
coedge $-1 $358 $359 $149 $245 forward $236 $-1 #
edge $-1 $360 0.55370792218414611 $249 11.772913931927558 $244 $361 forward 7 unknown #
edge $-1 $362 0 $250 11.219206009743413 $239 $363 forward 7 unknown #
coedge $-1 $151 $354 $358 $364 forward $248 $-1 #
loop $-1 $-1 $241 $235 #
vertex $-1 $152 $365 #
vertex $-1 $152 $366 #
straight-curve $-1 -41.995130057634455 -4.3101585428550759 12.135894964108324 0 1 0 I I #
coedge $-1 $252 $252 $-1 $367 reversed $155 $-1 #
edge $-1 $368 0 $368 6.2831853071796004 $156 $369 forward 7 unknown #
vertex $-1 $159 $370 #
ellipse-curve $-1 -44.714719482993686 -8.6203170857101519 7.2296255840457144 -0.87461971476443456 0 0.48480960649040278 0.96961921298080556 0 1.7492394295288691 1 I I #
face $-1 $-1 $175 $24 $-1 $371 reversed single #
loop $-1 $-1 $272 $160 #
plane-surface $-1 0 30.619138096659594 0 0 -1 0 0 0 -1 forward_v I I I I #
coedge $-1 $372 $270 $273 $373 forward $161 $-1 #
coedge $-1 $276 $163 $164 $264 reversed $100 $-1 #
coedge $-1 $270 $372 $163 $262 reversed $161 $-1 #
edge $-1 $277 -12.135894964108324 $374 12.135894964108324 $261 $375 forward 7 unknown #
coedge $-1 $165 $164 $372 $376 forward $65 $-1 #
edge $-1 $268 -47.434308908352918 $374 47.434308908352918 $260 $377 forward 7 unknown #
coedge $-1 $273 $272 $165 $266 reversed $257 $-1 #
edge $-1 $378 -47.434308908352918 $267 47.434308908352918 $265 $379 forward 7 unknown #
vertex $-1 $167 $380 #
vertex $-1 $279 $381 #
straight-curve $-1 47.434308908352918 0 -12.135894964108324 0 -1 0 I I #
coedge $-1 $259 $261 $168 $271 reversed $161 $-1 #
edge $-1 $274 -30.619138096659594 $277 30.619138096659594 $270 $382 forward 7 unknown #
coedge $-1 $265 $169 $174 $280 forward $257 $-1 #
coedge $-1 $169 $265 $259 $373 reversed $257 $-1 #
vertex $-1 $170 $383 #
straight-curve $-1 0 30.619138096659594 12.135894964108324 -1 0 0 I I #
coedge $-1 $171 $260 $173 $279 reversed $100 $-1 #
vertex $-1 $271 $384 #
straight-curve $-1 0 -30.619138096659594 12.135894964108324 1 0 0 I I #
edge $-1 $176 -12.135894964108324 $268 12.135894964108324 $173 $385 forward 7 unknown #
edge $-1 $177 -12.135894964108324 $267 12.135894964108324 $174 $386 forward 7 unknown #
point $-1 47.434308908352918 -30.619138096659594 12.135894964108324 #
point $-1 47.434308908352918 30.619138096659594 12.135894964108324 #
face $-1 $-1 $293 $25 $-1 $387 reversed single #
loop $-1 $-1 $289 $179 #
plane-surface $-1 0 0 -12.135894964108324 0 0 1 1 0 0 forward_v I I I I #
coedge $-1 $388 $389 $187 $297 forward $180 $-1 #
coedge $-1 $182 $301 $291 $390 forward $108 $-1 #
edge $-1 $295 -19.310319952487063 $192 -3.3073163358579976 $182 $391 forward 7 unknown #
coedge $-1 $392 $188 $183 $290 forward $284 $-1 #
edge $-1 $193 3.3073163358579976 $294 19.310319952487063 $289 $393 forward 7 unknown #
coedge $-1 $394 $185 $287 $390 reversed $293 $-1 #
coedge $-1 $185 $394 $392 $395 reversed $293 $-1 #
loop $-1 $-1 $185 $283 #
vertex $-1 $395 $396 #
vertex $-1 $186 $397 #
straight-curve $-1 -43.619874195521362 -30.619138096659594 0 0 0 1 I I #
edge $-1 $302 -12.135894964108324 $299 12.135894964108324 $286 $398 forward 7 unknown #
coedge $-1 $188 $392 $388 $399 forward $284 $-1 #
vertex $-1 $189 $400 #
straight-curve $-1 -22.76354577596857 -14.616134480030528 -12.135894964108324 1 0 0 I I #
coedge $-1 $287 $190 $389 $401 forward $108 $-1 #
vertex $-1 $401 $402 #
straight-curve $-1 -22.76354577596857 -14.616134480030528 12.135894964108324 -1 0 0 I I #
point $-1 -43.619874195521362 -14.616134480030528 12.135894964108324 #
point $-1 -43.619874195521362 -14.616134480030528 -12.135894964108324 #
plane-surface $-1 0 0 12.135894964108324 0 0 1 1 0 0 forward_v I I I I #
coedge $-1 $317 $316 $309 $403 forward $196 $-1 #
coedge $-1 $309 $198 $200 $313 reversed $116 $-1 #
coedge $-1 $198 $308 $307 $403 reversed $116 $-1 #
coedge $-1 $206 $201 $198 $311 forward $207 $-1 #
edge $-1 $314 17.26543778028487 $404 23.717153675851272 $310 $405 forward 7 unknown #
coedge $-1 $200 $199 $317 $406 reversed $73 $-1 #
edge $-1 $407 -94.868617816705864 $314 -85.744513590754892 $308 $408 forward 7 unknown #
vertex $-1 $202 $409 #
straight-curve $-1 40.982593012786516 0.56940244756494884 12.135894964108324 0 -1 0 I I #
coedge $-1 $307 $203 $206 $321 reversed $196 $-1 #
coedge $-1 $203 $307 $312 $406 forward $196 $-1 #
vertex $-1 $204 $410 #
straight-curve $-1 47.434308908352918 4.1995613514446255 69.924332439402207 0 0 1 I I #
straight-curve $-1 -19.647933293309507 4.1995613514446255 72.766422677141989 0.70710677298230451 0 -0.70710678939079041 I I #
edge $-1 $404 -1.9219515611848301 $208 4.1995613514446255 $316 $411 forward 7 unknown #
point $-1 47.434308908352918 4.1995613514446255 12.135894964108324 #
point $-1 40.982593012786516 4.1995613514446255 12.135894964108324 #
edge $-1 $412 1 $412 0 $211 $-1 forward 7 unknown #
vertex $-1 $212 $413 #
ellipse-curve $-1 42.259121959060295 1.1388048951298977 6.9607079851937099 0.70710678939079041 0 0.70710677298230451 0.70710677298230451 0 -0.70710678939079041 1 I I #
point $-1 44.915557733552028 1.1388048951298977 8.2029301520779683 #
plane-surface $-1 0 0 12.135894964108324 0 0 1 1 0 0 forward_v I I I I #
coedge $-1 $339 $338 $331 $414 forward $216 $-1 #
coedge $-1 $331 $218 $220 $335 reversed $131 $-1 #
coedge $-1 $218 $330 $329 $414 reversed $131 $-1 #
coedge $-1 $226 $221 $218 $333 forward $227 $-1 #
edge $-1 $336 17.26543778028487 $415 23.717153675851272 $332 $416 forward 7 unknown #
coedge $-1 $220 $219 $339 $417 reversed $82 $-1 #
edge $-1 $418 -94.868617816705864 $336 -85.744513590754892 $330 $419 forward 7 unknown #
vertex $-1 $222 $420 #
straight-curve $-1 40.982593012786516 7.432099360749584 12.135894964108324 0 -1 0 I I #
coedge $-1 $329 $223 $226 $343 reversed $216 $-1 #
coedge $-1 $223 $329 $334 $417 forward $216 $-1 #
vertex $-1 $224 $421 #
straight-curve $-1 47.434308908352918 17.924955177813896 69.924332439402207 0 0 1 I I #
straight-curve $-1 -19.647933293309507 17.924955177813896 72.766422677141989 0.70710677298230451 0 -0.70710678939079041 I I #
edge $-1 $415 11.80344226518444 $228 17.924955177813896 $338 $422 forward 7 unknown #
point $-1 47.434308908352918 17.924955177813896 12.135894964108324 #
point $-1 40.982593012786516 17.924955177813896 12.135894964108324 #
edge $-1 $423 1 $423 0 $231 $-1 forward 7 unknown #
vertex $-1 $232 $424 #
ellipse-curve $-1 42.259121959060295 14.864198721499168 6.9607079851937099 0.70710678939079041 0 0.70710677298230451 0.70710677298230451 0 -0.70710678939079041 1 I I #
point $-1 44.915557733552028 14.864198721499168 8.2029301520779683 #
plane-surface $-1 0 0 12.135894964108324 0 0 1 1 0 0 forward_v I I I I #
coedge $-1 $425 $238 $243 $357 forward $146 $-1 #
coedge $-1 $238 $425 $354 $426 reversed $146 $-1 #
edge $-1 $355 12.022391773886017 $362 21.834930534011232 $238 $427 forward 7 unknown #
coedge $-1 $247 $241 $352 $426 forward $248 $-1 #
vertex $-1 $426 $428 #
straight-curve $-1 -65.204136181648167 -2.6244996913897758 12.135894964108324 -1 0 0 I I #
edge $-1 $362 -1.6856588514653001 $360 10.305975937175452 $351 $429 forward 7 unknown #
coedge $-1 $359 $244 $247 $364 reversed $236 $-1 #
coedge $-1 $244 $358 $425 $430 reversed $236 $-1 #
vertex $-1 $430 $431 #
straight-curve $-1 -47.702751828217636 -14.616134480030528 1.8390723390196064 0.48480960649040278 0 0.87461971476443456 I I #
vertex $-1 $357 $432 #
straight-curve $-1 -47.434308908352918 -2.6244996913897758 2.3233562039831099 0.48480960649040278 0 0.87461971476443456 I I #
edge $-1 $433 -24.670763132384348 $249 -19.231584281665885 $247 $434 forward 7 unknown #
point $-1 -41.995130057634455 -14.616134480030528 12.135894964108324 #
point $-1 -41.995130057634455 -2.6244996913897758 12.135894964108324 #
edge $-1 $435 1 $435 0 $252 $-1 forward 7 unknown #
vertex $-1 $253 $436 #
ellipse-curve $-1 -41.21805568605955 -8.6203170857101519 5.291393263410848 -0.87461971476443456 0 0.48480960649040278 0.96961921298080556 0 1.7492394295288691 1 I I #
point $-1 -43.745100270012884 -8.6203170857101519 8.9788650135745858 #
plane-surface $-1 47.434308908352918 0 0 -1 0 0 0 0 1 forward_v I I I I #
coedge $-1 $261 $259 $263 $376 reversed $161 $-1 #
edge $-1 $274 -12.135894964108324 $378 12.135894964108324 $273 $437 forward 7 unknown #
vertex $-1 $376 $438 #
straight-curve $-1 -47.434308908352918 -30.619138096659594 0 0 0 -1 I I #
edge $-1 $374 -30.619138096659594 $378 30.619138096659594 $372 $439 forward 7 unknown #
straight-curve $-1 0 -30.619138096659594 -12.135894964108324 -1 0 0 I I #
vertex $-1 $266 $440 #
straight-curve $-1 0 30.619138096659594 -12.135894964108324 1 0 0 I I #
point $-1 47.434308908352918 30.619138096659594 -12.135894964108324 #
point $-1 47.434308908352918 -30.619138096659594 -12.135894964108324 #
straight-curve $-1 -47.434308908352918 0 12.135894964108324 0 -1 0 I I #
point $-1 -47.434308908352918 30.619138096659594 12.135894964108324 #
point $-1 -47.434308908352918 -30.619138096659594 12.135894964108324 #
straight-curve $-1 47.434308908352918 -30.619138096659594 0 0 0 -1 I I #
straight-curve $-1 47.434308908352918 30.619138096659594 0 0 0 -1 I I #
plane-surface $-1 0 -30.619138096659594 0 0 1 0 0 0 1 forward_v I I I I #
coedge $-1 $441 $286 $298 $399 reversed $180 $-1 #
coedge $-1 $286 $441 $301 $401 reversed $180 $-1 #
edge $-1 $442 -47.434308908352918 $295 -43.619874195521362 $291 $443 forward 7 unknown #
straight-curve $-1 -43.619874195521362 -11.30881814417253 12.135894964108324 0 1 0 I I #
coedge $-1 $298 $289 $292 $395 forward $284 $-1 #
straight-curve $-1 -43.619874195521362 -11.30881814417253 -12.135894964108324 0 -1 0 I I #
coedge $-1 $292 $291 $441 $444 forward $293 $-1 #
edge $-1 $294 43.619874195521362 $445 47.434308908352918 $292 $446 forward 7 unknown #
point $-1 -43.619874195521362 -30.619138096659594 -12.135894964108324 #
point $-1 -43.619874195521362 -30.619138096659594 12.135894964108324 #
straight-curve $-1 -47.434308908352918 -14.616134480030528 0 0 0 -1 I I #
edge $-1 $445 -30.619138096659594 $299 -14.616134480030528 $388 $447 forward 7 unknown #
point $-1 -47.434308908352918 -14.616134480030528 -12.135894964108324 #
edge $-1 $302 14.616134480030528 $442 30.619138096659594 $389 $448 forward 7 unknown #
point $-1 -47.434308908352918 -14.616134480030528 12.135894964108324 #
edge $-1 $404 57.788437475293883 $407 64.240153520573017 $307 $449 forward 7 unknown #
vertex $-1 $321 $450 #
straight-curve $-1 23.717155232501646 -1.9219515611848301 12.135894964108324 1 0 0 I I #
edge $-1 $407 -2.491354008749779 $318 3.6301589038796767 $317 $451 forward 7 unknown #
vertex $-1 $406 $452 #
straight-curve $-1 -19.647933293309507 -1.9219515611848301 72.766422677141989 -0.70710677298230451 0 0.70710678939079041 I I #
point $-1 40.982593012786516 -1.9219515611848301 12.135894964108324 #
point $-1 47.434308908352918 4.1995613514446255 5.6841789188291898 #
straight-curve $-1 47.434308908352918 0 12.135894964108324 0 1 0 I I #
vertex $-1 $324 $453 #
point $-1 42.966228732042595 1.1388048951298977 6.2536011958029194 #
edge $-1 $415 57.788437475293883 $418 64.240153520573017 $329 $454 forward 7 unknown #
vertex $-1 $343 $455 #
straight-curve $-1 23.717155232501646 11.80344226518444 12.135894964108324 1 0 0 I I #
edge $-1 $418 4.3713429044348562 $340 10.492855817064312 $339 $456 forward 7 unknown #
vertex $-1 $417 $457 #
straight-curve $-1 -19.647933293309507 11.80344226518444 72.766422677141989 -0.70710677298230451 0 0.70710678939079041 I I #
point $-1 40.982593012786516 11.80344226518444 12.135894964108324 #
point $-1 47.434308908352918 17.924955177813896 5.6841789188291898 #
straight-curve $-1 47.434308908352918 0 12.135894964108324 0 1 0 I I #
vertex $-1 $346 $458 #
point $-1 42.966228732042595 14.864198721499168 6.2536011958029194 #
coedge $-1 $352 $351 $359 $430 forward $146 $-1 #
edge $-1 $355 2.6244996913897758 $433 14.616134480030528 $352 $459 forward 7 unknown #
straight-curve $-1 -47.434308908352918 -2.6244996913897758 24.158286737994342 0 0 -1 I I #
point $-1 -47.434308908352918 -2.6244996913897758 12.135894964108324 #
straight-curve $-1 -47.434308908352918 -4.3101585428550759 2.3233562039831037 0 -1 0 I I #
edge $-1 $360 2.3233562039831099 $433 12.135894964108324 $425 $460 forward 7 unknown #
point $-1 -47.434308908352918 -14.616134480030528 2.3233562039831099 #
point $-1 -47.434308908352918 -2.6244996913897758 2.3233562039831099 #
vertex $-1 $430 $461 #
straight-curve $-1 -22.76354577596857 -14.616134480030528 12.135894964108324 1 0 0 I I #
vertex $-1 $367 $462 #
point $-1 -40.248436473078741 -8.6203170857101519 7.0406326929397167 #
straight-curve $-1 -47.434308908352918 30.619138096659594 0 0 0 -1 I I #
point $-1 -47.434308908352918 -30.619138096659594 -12.135894964108324 #
straight-curve $-1 -47.434308908352918 0 -12.135894964108324 0 1 0 I I #
point $-1 -47.434308908352918 30.619138096659594 -12.135894964108324 #
coedge $-1 $389 $388 $394 $444 reversed $180 $-1 #
vertex $-1 $401 $463 #
straight-curve $-1 0 -30.619138096659594 12.135894964108324 1 0 0 I I #
edge $-1 $442 -12.135894964108324 $445 12.135894964108324 $441 $464 forward 7 unknown #
vertex $-1 $399 $465 #
straight-curve $-1 0 -30.619138096659594 -12.135894964108324 -1 0 0 I I #
straight-curve $-1 -47.434308908352918 0 -12.135894964108324 0 1 0 I I #
straight-curve $-1 -47.434308908352918 0 12.135894964108324 0 -1 0 I I #
straight-curve $-1 47.434308908352918 -1.9219515611848301 69.924332439402207 0 0 -1 I I #
point $-1 47.434308908352918 -1.9219515611848301 12.135894964108324 #
straight-curve $-1 47.434308908352918 0.56940244756494884 5.6841789188291827 0 1 0 I I #
point $-1 47.434308908352918 -1.9219515611848301 5.6841789188291898 #
point $-1 41.552015169669502 1.1388048951298977 6.2536012122114046 #
straight-curve $-1 47.434308908352918 11.80344226518444 69.924332439402207 0 0 -1 I I #
point $-1 47.434308908352918 11.80344226518444 12.135894964108324 #
straight-curve $-1 47.434308908352918 7.432099360749584 5.6841789188291827 0 1 0 I I #
point $-1 47.434308908352918 11.80344226518444 5.6841789188291898 #
point $-1 41.552015169669502 14.864198721499168 6.2536012122114046 #
straight-curve $-1 -47.434308908352918 0 12.135894964108324 0 -1 0 I I #
straight-curve $-1 -47.434308908352918 -14.616134480030528 0 0 0 1 I I #
point $-1 -47.434308908352918 -14.616134480030528 12.135894964108324 #
point $-1 -39.46881625653068 -8.6203170857101519 4.3217740504300419 #
point $-1 -47.434308908352918 -30.619138096659594 12.135894964108324 #
straight-curve $-1 -47.434308908352918 -30.619138096659594 0 0 0 -1 I I #
point $-1 -47.434308908352918 -30.619138096659594 -12.135894964108324 #
End-of-ACIS-data 