500 0 9 0           
7 Unknown 11 ACIS 5.0 NT 24 Fri Mar 26 17:35:42 1999 
-1 9.9999999999999995e-007 1e-010 
body $-1 $9 $-1 $10 #
body $-1 $11 $-1 $12 #
body $-1 $13 $-1 $14 #
body $-1 $15 $-1 $16 #
body $-1 $17 $-1 $18 #
body $-1 $19 $-1 $20 #
body $-1 $21 $-1 $22 #
body $-1 $23 $-1 $24 #
body $-1 $25 $-1 $26 #
lump $-1 $-1 $27 $0 #
transform $-1 1 0 0 0 1 0 0 0 1 50.61922055726798 34.601567117218885 14.157845718374492 1 rotate no_reflect no_shear #
lump $-1 $-1 $28 $1 #
transform $-1 1 0 0 0 1 0 0 0 1 50.61922055726798 34.601567117218885 14.157845718374492 1 rotate no_reflect no_shear #
lump $-1 $-1 $29 $2 #
transform $-1 1 0 0 0 1 0 0 0 1 50.61922055726798 34.601567117218885 14.157845718374492 1 rotate no_reflect no_shear #
lump $-1 $-1 $30 $3 #
transform $-1 1 0 0 0 1 0 0 0 1 50.61922055726798 34.601567117218885 14.157845718374492 1 rotate no_reflect no_shear #
lump $-1 $-1 $31 $4 #
transform $-1 1 0 0 0 1 0 0 0 1 50.61922055726798 34.601567117218885 14.157845718374492 1 rotate no_reflect no_shear #
lump $-1 $-1 $32 $5 #
transform $-1 1 0 0 0 1 0 0 0 1 50.61922055726798 34.601567117218885 14.157845718374492 1 rotate no_reflect no_shear #
lump $-1 $-1 $33 $6 #
transform $-1 1 0 0 0 1 0 0 0 1 50.61922055726798 34.601567117218885 14.157845718374492 1 rotate no_reflect no_shear #
lump $-1 $-1 $34 $7 #
transform $-1 1 0 0 0 1 0 0 0 1 50.61922055726798 34.601567117218885 14.157845718374492 1 rotate no_reflect no_shear #
lump $-1 $-1 $35 $8 #
transform $-1 1 0 0 0 1 0 0 0 1 50.61922055726798 34.601567117218885 14.157845718374492 1 rotate no_reflect no_shear #
shell $-1 $-1 $-1 $36 $-1 $9 #
shell $-1 $-1 $-1 $37 $-1 $11 #
shell $-1 $-1 $-1 $38 $-1 $13 #
shell $-1 $-1 $-1 $39 $-1 $15 #
shell $-1 $-1 $-1 $40 $-1 $17 #
shell $-1 $-1 $-1 $41 $-1 $19 #
shell $-1 $-1 $-1 $42 $-1 $21 #
shell $-1 $-1 $-1 $43 $-1 $23 #
shell $-1 $-1 $-1 $44 $-1 $25 #
face $-1 $45 $46 $27 $-1 $47 forward single #
face $-1 $48 $49 $28 $-1 $50 forward single #
face $-1 $51 $52 $29 $-1 $53 reversed single #
face $-1 $54 $55 $30 $-1 $56 forward single #
face $-1 $57 $58 $31 $-1 $59 forward single #
face $-1 $60 $61 $32 $-1 $62 reversed single #
face $-1 $63 $64 $33 $-1 $65 forward single #
face $-1 $66 $67 $34 $-1 $68 forward single #
face $-1 $69 $70 $35 $-1 $71 forward single #
face $-1 $72 $73 $27 $-1 $74 reversed single #
loop $-1 $-1 $75 $36 #
plane-surface $-1 0 0 14.157845718374492 0 0 1 1 0 0 forward_v I I I I #
face $-1 $76 $77 $28 $-1 $78 reversed single #
loop $-1 $-1 $79 $37 #
plane-surface $-1 0 -29.786179909103666 -8.5341992092973307 0 0 1 1 0 0 forward_v I I I I #
face $-1 $80 $81 $29 $-1 $82 reversed single #
loop $-1 $-1 $83 $38 #
plane-surface $-1 23.30056814815218 -14.085809692819657 142.59460852390183 0 -1 0 -0.55919291073839883 0 -0.82903756765294845 forward_v I I I I #
face $-1 $84 $85 $30 $-1 $86 forward single #
loop $-1 $87 $88 $39 #
cone-surface $-1 40.751897509839353 -21.860797555797369 6.7800694595576472 -0.55919291073839883 0 -0.82903756765294845 0.82903756765294845 0 -0.55919291073839883 1 I I 0 1 1 forward I I I I #
face $-1 $89 $90 $31 $-1 $91 forward single #
loop $-1 $92 $93 $40 #
cone-surface $-1 40.751897509839353 -17.195804838010744 6.7800694595576472 -0.55919291073839883 0 -0.82903756765294845 0.82903756765294845 0 -0.55919291073839883 1 I I 0 1 1 forward I I I I #
face $-1 $94 $95 $32 $-1 $96 reversed single #
loop $-1 $-1 $97 $41 #
plane-surface $-1 -131.47183544574702 22.922407534555838 69.027463472181836 0 1 0 -0.79863551827123203 0 0.60181501223851219 forward_v I I I I #
face $-1 $98 $99 $33 $-1 $100 forward single #
loop $-1 $101 $102 $42 #
cone-surface $-1 -47.645943809798602 25.25823945108845 10.608493279051766 0.79863551827123203 0 -0.60181501223851219 0.60181501223851219 0 0.79863551827123203 1 I I 0 1 1 forward I I I I #
face $-1 $103 $104 $34 $-1 $105 forward single #
loop $-1 $106 $107 $43 #
cone-surface $-1 -47.645943809798602 28.761987325887361 10.608493279051766 0.79863551827123203 0 -0.60181501223851219 0.60181501223851219 0 0.79863551827123203 1 I I 0 1 1 forward I I I I #
face $-1 $108 $109 $35 $-1 $110 forward single #
loop $-1 $111 $112 $44 #
cone-surface $-1 -47.645943809798602 32.265735200686272 10.608493279051766 0.79863551827123203 0 -0.60181501223851219 0.60181501223851219 0 0.79863551827123203 1 I I 0 1 1 forward I I I I #
face $-1 $113 $114 $27 $-1 $115 reversed single #
loop $-1 $-1 $116 $45 #
plane-surface $-1 0 0 -14.157845718374492 0 0 1 1 0 0 forward_v I I I I #
coedge $-1 $117 $118 $119 $120 forward $46 $-1 #
face $-1 $121 $122 $28 $-1 $123 reversed single #
loop $-1 $-1 $124 $48 #
plane-surface $-1 0 -24.970792700988447 -11.346022463835912 0 -1 0 0 0 -1 forward_v I I I I #
coedge $-1 $125 $126 $127 $128 reversed $49 $-1 #
face $-1 $129 $130 $29 $-1 $131 reversed single #
loop $-1 $-1 $132 $51 #
plane-surface $-1 -33.311250417303171 -19.528301196904053 58.66413754933069 0.55919291073839883 0 0.82903756765294845 0.82903756765294845 0 -0.55919291073839883 forward_v I I I I #
coedge $-1 $133 $134 $135 $136 reversed $52 $-1 #
face $-1 $-1 $137 $30 $-1 $138 forward single #
loop $-1 $139 $140 $54 #
cone-surface $-1 39.578568557281827 -21.860797555797369 5.0405377841638987 -0.55919291073839883 0 -0.82903756765294845 0.41451878382647422 0 -0.27959645536919941 1 I I -0.70710678118654746 0.70710678118654746 0.5 forward I I I I #
loop $-1 $-1 $141 $39 #
coedge $-1 $88 $88 $142 $143 reversed $55 $-1 #
face $-1 $-1 $144 $31 $-1 $145 forward single #
loop $-1 $146 $147 $57 #
cone-surface $-1 39.578568557281827 -17.195804838010744 5.0405377841638987 -0.55919291073839883 0 -0.82903756765294845 0.41451878382647422 0 -0.27959645536919941 1 I I -0.70710678118654746 0.70710678118654746 0.5 forward I I I I #
loop $-1 $-1 $148 $40 #
coedge $-1 $93 $93 $149 $150 reversed $58 $-1 #
face $-1 $151 $152 $32 $-1 $153 reversed single #
loop $-1 $-1 $154 $60 #
plane-surface $-1 -50.619220557267994 28.761987325887361 8.1006497938294828 -0.79863551827123203 0 0.60181501223851219 0.60181501223851219 0 0.79863551827123203 forward_v I I I I #
coedge $-1 $155 $156 $157 $158 reversed $61 $-1 #
face $-1 $-1 $159 $33 $-1 $160 forward single #
loop $-1 $161 $162 $63 #
cone-surface $-1 -46.555561498909597 25.25823945108845 9.786831295882287 0.79863551827123203 0 -0.60181501223851219 0.3009075061192561 0 0.39931775913561601 1 I I -0.70710678118654746 0.70710678118654746 0.5 forward I I I I #
loop $-1 $-1 $163 $42 #
coedge $-1 $102 $102 $164 $165 reversed $64 $-1 #
face $-1 $-1 $166 $34 $-1 $167 forward single #
loop $-1 $168 $169 $66 #
cone-surface $-1 -46.555561498909597 28.761987325887361 9.786831295882287 0.79863551827123203 0 -0.60181501223851219 0.3009075061192561 0 0.39931775913561601 1 I I -0.70710678118654746 0.70710678118654746 0.5 forward I I I I #
loop $-1 $-1 $170 $43 #
coedge $-1 $107 $107 $171 $172 reversed $67 $-1 #
face $-1 $-1 $173 $35 $-1 $174 forward single #
loop $-1 $175 $176 $69 #
cone-surface $-1 -46.555561498909597 32.265735200686272 9.786831295882287 0.79863551827123203 0 -0.60181501223851219 0.3009075061192561 0 0.39931775913561601 1 I I -0.70710678118654746 0.70710678118654746 0.5 forward I I I I #
loop $-1 $-1 $177 $44 #
coedge $-1 $112 $112 $178 $179 reversed $70 $-1 #
face $-1 $180 $181 $27 $-1 $182 reversed single #
loop $-1 $-1 $183 $72 #
plane-surface $-1 0 -34.601567117218885 0 0 1 0 0 0 1 forward_v I I I I #
coedge $-1 $184 $185 $186 $187 forward $73 $-1 #
coedge $-1 $188 $75 $189 $190 forward $46 $-1 #
coedge $-1 $75 $188 $191 $192 forward $46 $-1 #
coedge $-1 $193 $194 $75 $120 reversed $195 $-1 #
edge $-1 $196 -34.601567117218885 $197 34.601567117218885 $119 $198 forward 7 unknown #
face $-1 $199 $200 $28 $-1 $201 reversed single #
loop $-1 $-1 $202 $76 #
plane-surface $-1 0 0 -14.157845718374492 0 0 1 1 0 0 forward_v I I I I #
coedge $-1 $203 $204 $205 $206 reversed $77 $-1 #
coedge $-1 $207 $79 $204 $208 forward $49 $-1 #
coedge $-1 $79 $207 $209 $210 reversed $49 $-1 #
coedge $-1 $211 $205 $79 $128 forward $200 $-1 #
edge $-1 $212 10.077702746436614 $213 19.708477162667052 $127 $214 forward 7 unknown #
face $-1 $215 $216 $29 $-1 $217 reversed single #
loop $-1 $-1 $218 $80 #
plane-surface $-1 23.30056814815218 -24.970792700988447 142.59460852390183 0 1 0 0.55919291073839883 0 0.82903756765294845 forward_v I I I I #
coedge $-1 $219 $220 $221 $222 reversed $81 $-1 #
coedge $-1 $134 $83 $223 $224 reversed $52 $-1 #
coedge $-1 $83 $133 $219 $225 reversed $52 $-1 #
coedge $-1 $221 $226 $83 $136 forward $227 $-1 #
edge $-1 $228 -38.968936483191889 $229 -21.021755382711298 $135 $230 forward 7 unknown #
loop $-1 $-1 $142 $84 #
plane-surface $-1 -33.311250417303171 -19.528301196904053 58.66413754933069 0.55919291073839883 0 0.82903756765294845 0.82903756765294845 0 -0.55919291073839883 forward_v I I I I #
loop $-1 $-1 $231 $54 #
coedge $-1 $140 $140 $141 $232 reversed $85 $-1 #
coedge $-1 $141 $141 $140 $232 forward $87 $-1 #
coedge $-1 $142 $142 $88 $143 forward $137 $-1 #
edge $-1 $233 0 $233 6.2831853071796004 $142 $234 forward 7 unknown #
loop $-1 $-1 $149 $89 #
plane-surface $-1 -33.311250417303171 -19.528301196904053 58.66413754933069 0.55919291073839883 0 0.82903756765294845 0.82903756765294845 0 -0.55919291073839883 forward_v I I I I #
loop $-1 $-1 $235 $57 #
coedge $-1 $147 $147 $148 $236 reversed $90 $-1 #
coedge $-1 $148 $148 $147 $236 forward $92 $-1 #
coedge $-1 $149 $149 $93 $150 forward $144 $-1 #
edge $-1 $237 0 $237 6.2831853071796004 $149 $238 forward 7 unknown #
face $-1 $239 $240 $32 $-1 $241 reversed single #
loop $-1 $-1 $242 $94 #
plane-surface $-1 0 34.601567117218885 0 0 -1 0 0 0 -1 forward_v I I I I #
coedge $-1 $243 $244 $245 $246 reversed $95 $-1 #
coedge $-1 $156 $97 $247 $248 reversed $61 $-1 #
coedge $-1 $97 $155 $243 $249 reversed $61 $-1 #
coedge $-1 $245 $250 $97 $158 forward $251 $-1 #
edge $-1 $252 15.11669716560553 $253 19.681121557037486 $157 $254 forward 7 unknown #
loop $-1 $-1 $164 $98 #
plane-surface $-1 -50.619220557267994 28.761987325887361 8.1006497938294828 -0.79863551827123203 0 0.60181501223851219 0.60181501223851219 0 0.79863551827123203 forward_v I I I I #
loop $-1 $-1 $255 $63 #
coedge $-1 $162 $162 $163 $256 reversed $99 $-1 #
coedge $-1 $163 $163 $162 $256 forward $101 $-1 #
coedge $-1 $164 $164 $102 $165 forward $159 $-1 #
edge $-1 $257 0 $257 6.2831853071796004 $164 $258 forward 7 unknown #
loop $-1 $-1 $171 $103 #
plane-surface $-1 -50.619220557267994 28.761987325887361 8.1006497938294828 -0.79863551827123203 0 0.60181501223851219 0.60181501223851219 0 0.79863551827123203 forward_v I I I I #
loop $-1 $-1 $259 $66 #
coedge $-1 $169 $169 $170 $260 reversed $104 $-1 #
coedge $-1 $170 $170 $169 $260 forward $106 $-1 #
coedge $-1 $171 $171 $107 $172 forward $166 $-1 #
edge $-1 $261 0 $261 6.2831853071796004 $171 $262 forward 7 unknown #
loop $-1 $-1 $178 $108 #
plane-surface $-1 -50.619220557267994 28.761987325887361 8.1006497938294828 -0.79863551827123203 0 0.60181501223851219 0.60181501223851219 0 0.79863551827123203 forward_v I I I I #
loop $-1 $-1 $263 $69 #
coedge $-1 $176 $176 $177 $264 reversed $109 $-1 #
coedge $-1 $177 $177 $176 $264 forward $111 $-1 #
coedge $-1 $178 $178 $112 $179 forward $173 $-1 #
edge $-1 $265 0 $265 6.2831853071796004 $178 $266 forward 7 unknown #
face $-1 $267 $268 $27 $-1 $269 reversed single #
loop $-1 $-1 $270 $113 #
plane-surface $-1 -50.61922055726798 0 0 1 0 0 0 0 -1 forward_v I I I I #
coedge $-1 $271 $191 $272 $273 forward $114 $-1 #
coedge $-1 $274 $116 $271 $275 forward $73 $-1 #
coedge $-1 $116 $274 $276 $277 forward $73 $-1 #
coedge $-1 $194 $193 $116 $187 reversed $195 $-1 #
edge $-1 $278 -34.601567117218885 $279 34.601567117218885 $186 $280 forward 7 unknown #
coedge $-1 $118 $117 $281 $282 forward $46 $-1 #
coedge $-1 $283 $284 $117 $190 reversed $268 $-1 #
edge $-1 $197 -50.61922055726798 $285 50.61922055726798 $189 $286 forward 7 unknown #
coedge $-1 $183 $287 $118 $192 reversed $114 $-1 #
edge $-1 $288 -50.61922055726798 $196 50.61922055726798 $191 $289 forward 7 unknown #
coedge $-1 $186 $119 $287 $290 forward $195 $-1 #
coedge $-1 $119 $186 $283 $291 reversed $195 $-1 #
loop $-1 $-1 $193 $267 #
vertex $-1 $120 $292 #
vertex $-1 $120 $293 #
straight-curve $-1 50.61922055726798 0 14.157845718374492 0 1 0 I I #
face $-1 $294 $295 $28 $-1 $296 reversed single #
loop $-1 $-1 $205 $121 #
plane-surface $-1 50.61922055726798 0 0 -1 0 0 0 0 1 forward_v I I I I #
coedge $-1 $297 $298 $203 $299 forward $122 $-1 #
coedge $-1 $300 $124 $202 $299 reversed $77 $-1 #
coedge $-1 $124 $300 $125 $208 reversed $77 $-1 #
coedge $-1 $127 $301 $124 $206 forward $200 $-1 #
edge $-1 $302 -8.4848344864565366 $212 -2.8611879773793749 $205 $303 forward 7 unknown #
coedge $-1 $126 $125 $304 $305 reversed $49 $-1 #
edge $-1 $212 -50.61922055726798 $306 50.61922055726798 $204 $307 forward 7 unknown #
coedge $-1 $308 $309 $126 $210 forward $295 $-1 #
edge $-1 $213 -50.61922055726798 $310 50.61922055726798 $209 $311 forward 7 unknown #
coedge $-1 $301 $127 $309 $312 forward $200 $-1 #
vertex $-1 $128 $313 #
vertex $-1 $312 $314 #
straight-curve $-1 50.61922055726798 -14.893089954551833 -8.5341992092973307 0 -1 0 I I #
face $-1 $-1 $227 $29 $-1 $315 forward single #
loop $-1 $-1 $316 $129 #
plane-surface $-1 50.61922055726798 0 0 -1 0 0 0 0 1 forward_v I I I I #
coedge $-1 $317 $318 $319 $320 reversed $130 $-1 #
coedge $-1 $321 $132 $134 $225 forward $81 $-1 #
coedge $-1 $132 $321 $317 $322 forward $81 $-1 #
coedge $-1 $319 $135 $132 $222 forward $227 $-1 #
edge $-1 $229 4.3216590943676305 $323 15.206642102536421 $221 $324 forward 7 unknown #
coedge $-1 $325 $326 $133 $224 forward $216 $-1 #
edge $-1 $327 -69.244985278075575 $228 -57.139458543576424 $223 $328 forward 7 unknown #
edge $-1 $229 79.590229018080478 $327 101.23844111453596 $134 $329 forward 7 unknown #
coedge $-1 $135 $319 $325 $330 forward $227 $-1 #
loop $-1 $-1 $319 $215 #
vertex $-1 $224 $331 #
vertex $-1 $136 $332 #
straight-curve $-1 11.65028407407609 -14.085809692819657 14.157845718374489 -1 0 0 I I #
coedge $-1 $231 $231 $-1 $333 reversed $139 $-1 #
edge $-1 $334 0 $334 6.2831853071796004 $140 $335 forward 7 unknown #
vertex $-1 $143 $336 #
ellipse-curve $-1 41.645630007027677 -21.860797555797369 8.1050823511249135 0.55919291073839883 0 0.82903756765294845 0.82903756765294845 0 -0.55919291073839883 1 I I #
coedge $-1 $235 $235 $-1 $337 reversed $146 $-1 #
edge $-1 $338 0 $338 6.2831853071796004 $147 $339 forward 7 unknown #
vertex $-1 $150 $340 #
ellipse-curve $-1 41.645630007027677 -17.195804838010744 8.1050823511249135 0.55919291073839883 0 0.82903756765294845 0.82903756765294845 0 -0.55919291073839883 1 I I #
face $-1 $-1 $251 $32 $-1 $341 forward single #
loop $-1 $-1 $342 $151 #
plane-surface $-1 -50.61922055726798 0 0 1 0 0 0 0 -1 forward_v I I I I #
coedge $-1 $343 $344 $244 $345 forward $152 $-1 #
coedge $-1 $346 $154 $156 $249 forward $95 $-1 #
coedge $-1 $154 $346 $242 $345 reversed $95 $-1 #
coedge $-1 $347 $157 $154 $246 forward $251 $-1 #
edge $-1 $253 8.541413871612157 $348 20.220573454275204 $245 $349 forward 7 unknown #
coedge $-1 $350 $342 $155 $248 forward $240 $-1 #
edge $-1 $351 -26.413081942261414 $252 -20.355886017716426 $247 $352 forward 7 unknown #
edge $-1 $253 -7.5844309274607928 $351 -2.4157584020108747e-014 $156 $353 forward 7 unknown #
coedge $-1 $157 $347 $350 $354 forward $251 $-1 #
loop $-1 $-1 $245 $239 #
vertex $-1 $248 $355 #
vertex $-1 $158 $356 #
straight-curve $-1 -65.735917722873509 22.922407534555838 14.157845718374492 1 0 0 I I #
coedge $-1 $255 $255 $-1 $357 reversed $161 $-1 #
edge $-1 $358 0 $358 6.2831853071796004 $162 $359 forward 7 unknown #
vertex $-1 $165 $360 #
ellipse-curve $-1 -48.337008361552002 25.25823945108845 11.129247756101996 -0.79863551827123203 0 0.60181501223851219 0.60181501223851219 0 0.79863551827123203 1 I I #
coedge $-1 $259 $259 $-1 $361 reversed $168 $-1 #
edge $-1 $362 0 $362 6.2831853071796004 $169 $363 forward 7 unknown #
vertex $-1 $172 $364 #
ellipse-curve $-1 -48.337008361552002 28.761987325887361 11.129247756101996 -0.79863551827123203 0 0.60181501223851219 0.60181501223851219 0 0.79863551827123203 1 I I #
coedge $-1 $263 $263 $-1 $365 reversed $175 $-1 #
edge $-1 $366 0 $366 6.2831853071796004 $176 $367 forward 7 unknown #
vertex $-1 $179 $368 #
ellipse-curve $-1 -48.337008361552002 32.265735200686272 11.129247756101996 -0.79863551827123203 0 0.60181501223851219 0.60181501223851219 0 0.79863551827123203 1 I I #
face $-1 $-1 $195 $27 $-1 $369 reversed single #
loop $-1 $-1 $283 $180 #
plane-surface $-1 0 34.601567117218885 0 0 -1 0 0 0 -1 forward_v I I I I #
coedge $-1 $370 $281 $284 $371 forward $181 $-1 #
coedge $-1 $287 $183 $184 $275 reversed $114 $-1 #
coedge $-1 $281 $370 $183 $273 reversed $181 $-1 #
edge $-1 $288 -14.157845718374492 $372 14.157845718374492 $272 $373 forward 7 unknown #
coedge $-1 $185 $184 $370 $374 forward $73 $-1 #
edge $-1 $279 -50.61922055726798 $372 50.61922055726798 $271 $375 forward 7 unknown #
coedge $-1 $284 $283 $185 $277 reversed $268 $-1 #
edge $-1 $376 -50.61922055726798 $278 50.61922055726798 $276 $377 forward 7 unknown #
vertex $-1 $187 $378 #
vertex $-1 $290 $379 #
straight-curve $-1 50.61922055726798 0 -14.157845718374492 0 -1 0 I I #
coedge $-1 $270 $272 $188 $282 reversed $181 $-1 #
edge $-1 $285 -34.601567117218885 $288 34.601567117218885 $281 $380 forward 7 unknown #
coedge $-1 $276 $189 $194 $291 forward $268 $-1 #
coedge $-1 $189 $276 $270 $371 reversed $268 $-1 #
vertex $-1 $190 $381 #
straight-curve $-1 0 34.601567117218885 14.157845718374492 -1 0 0 I I #
coedge $-1 $191 $271 $193 $290 reversed $114 $-1 #
vertex $-1 $282 $382 #
straight-curve $-1 0 -34.601567117218885 14.157845718374492 1 0 0 I I #
edge $-1 $196 -14.157845718374492 $279 14.157845718374492 $193 $383 forward 7 unknown #
edge $-1 $197 -14.157845718374492 $278 14.157845718374492 $194 $384 forward 7 unknown #
point $-1 50.61922055726798 -34.601567117218885 14.157845718374492 #
point $-1 50.61922055726798 34.601567117218885 14.157845718374492 #
face $-1 $-1 $385 $28 $-1 $386 reversed single #
loop $-1 $-1 $209 $199 #
plane-surface $-1 0 -34.601567117218885 0 0 1 0 0 0 1 forward_v I I I I #
coedge $-1 $387 $202 $301 $388 forward $122 $-1 #
coedge $-1 $202 $387 $389 $390 forward $122 $-1 #
edge $-1 $391 -50.61922055726798 $302 50.61922055726798 $202 $392 forward 7 unknown #
coedge $-1 $204 $203 $393 $394 reversed $77 $-1 #
coedge $-1 $205 $211 $297 $388 reversed $200 $-1 #
vertex $-1 $388 $395 #
straight-curve $-1 50.61922055726798 -24.970792700988447 -5.6730112319179558 0 0 1 I I #
coedge $-1 $393 $396 $207 $305 forward $385 $-1 #
edge $-1 $310 -19.708477162667052 $306 -10.077702746436614 $304 $397 forward 7 unknown #
vertex $-1 $305 $398 #
straight-curve $-1 0 -24.970792700988447 -8.5341992092973307 -1 0 0 I I #
coedge $-1 $399 $209 $396 $400 forward $295 $-1 #
coedge $-1 $209 $399 $211 $312 reversed $295 $-1 #
vertex $-1 $400 $401 #
straight-curve $-1 0 -34.601567117218885 -8.5341992092973307 -1 0 0 I I #
edge $-1 $213 8.5341992092973307 $402 14.157845718374492 $211 $403 forward 7 unknown #
point $-1 50.61922055726798 -24.970792700988447 -8.5341992092973307 #
point $-1 50.61922055726798 -34.601567117218885 -8.5341992092973307 #
plane-surface $-1 0 0 14.157845718374492 0 0 1 1 0 0 forward_v I I I I #
coedge $-1 $326 $325 $318 $404 forward $216 $-1 #
coedge $-1 $318 $218 $220 $322 reversed $130 $-1 #
coedge $-1 $218 $317 $316 $404 reversed $130 $-1 #
coedge $-1 $226 $221 $218 $320 forward $227 $-1 #
edge $-1 $323 21.021755382711298 $405 38.968936483191889 $319 $406 forward 7 unknown #
coedge $-1 $220 $219 $326 $407 reversed $81 $-1 #
edge $-1 $408 -101.23844111453596 $323 -79.590229018080478 $317 $409 forward 7 unknown #
vertex $-1 $222 $410 #
straight-curve $-1 32.672039456787374 -9.7641505984520265 14.157845718374492 0 -1 0 I I #
coedge $-1 $316 $223 $226 $330 reversed $216 $-1 #
coedge $-1 $223 $316 $321 $407 forward $216 $-1 #
vertex $-1 $224 $411 #
straight-curve $-1 50.61922055726798 -14.085809692819657 71.297304261950913 0 0 1 I I #
straight-curve $-1 -33.311250417303171 -14.085809692819657 58.66413754933069 0.82903756765294845 0 -0.55919291073839883 I I #
edge $-1 $405 -24.970792700988447 $228 -14.085809692819657 $325 $412 forward 7 unknown #
point $-1 50.61922055726798 -14.085809692819657 14.157845718374492 #
point $-1 32.672039456787388 -14.085809692819657 14.157845718374489 #
edge $-1 $413 1 $413 0 $231 $-1 forward 7 unknown #
vertex $-1 $232 $414 #
ellipse-curve $-1 39.858165012651028 -21.860797555797369 5.4550565679903729 0.55919291073839883 0 0.82903756765294845 0.82903756765294845 0 -0.55919291073839883 1 I I #
point $-1 42.47466757468063 -21.860797555797369 7.5458894403865244 #
edge $-1 $415 1 $415 0 $235 $-1 forward 7 unknown #
vertex $-1 $236 $416 #
ellipse-curve $-1 39.858165012651028 -17.195804838010744 5.4550565679903729 0.55919291073839883 0 0.82903756765294845 0.82903756765294845 0 -0.55919291073839883 1 I I #
point $-1 42.47466757468063 -17.195804838010744 7.5458894403865244 #
plane-surface $-1 0 0 14.157845718374492 0 0 1 1 0 0 forward_v I I I I #
coedge $-1 $247 $417 $346 $418 forward $240 $-1 #
coedge $-1 $344 $242 $417 $419 reversed $152 $-1 #
coedge $-1 $242 $343 $347 $420 reversed $152 $-1 #
edge $-1 $348 4.4125391689129252 $421 11.996970096373694 $242 $422 forward 7 unknown #
coedge $-1 $244 $243 $342 $418 reversed $95 $-1 #
coedge $-1 $250 $245 $344 $420 forward $251 $-1 #
vertex $-1 $420 $423 #
straight-curve $-1 -46.054796165836024 14.380993662943681 14.157845718374492 0 1 0 I I #
coedge $-1 $417 $247 $250 $354 reversed $240 $-1 #
vertex $-1 $248 $424 #
straight-curve $-1 -50.61922055726798 22.922407534555838 34.513731736090918 0 0 1 I I #
straight-curve $-1 -50.619220557267994 22.922407534555838 8.1006497938294828 -0.60181501223851219 0 -0.79863551827123203 I I #
edge $-1 $425 -34.601567117218885 $252 -22.922407534555838 $350 $426 forward 7 unknown #
point $-1 -50.61922055726798 22.922407534555838 14.157845718374492 #
point $-1 -46.054796165836024 22.922407534555838 14.157845718374492 #
edge $-1 $427 1 $427 0 $255 $-1 forward 7 unknown #
vertex $-1 $256 $428 #
ellipse-curve $-1 -46.95487925804521 25.25823945108845 10.087738802001542 -0.79863551827123203 0 0.60181501223851219 0.60181501223851219 0 0.79863551827123203 1 I I #
point $-1 -47.735193349313484 25.25823945108845 11.927883274373222 #
edge $-1 $429 1 $429 0 $259 $-1 forward 7 unknown #
vertex $-1 $260 $430 #
ellipse-curve $-1 -46.95487925804521 28.761987325887361 10.087738802001542 -0.79863551827123203 0 0.60181501223851219 0.60181501223851219 0 0.79863551827123203 1 I I #
point $-1 -47.735193349313484 28.761987325887361 11.927883274373222 #
edge $-1 $431 1 $431 0 $263 $-1 forward 7 unknown #
vertex $-1 $264 $432 #
ellipse-curve $-1 -46.95487925804521 32.265735200686272 10.087738802001542 -0.79863551827123203 0 0.60181501223851219 0.60181501223851219 0 0.79863551827123203 1 I I #
point $-1 -47.735193349313484 32.265735200686272 11.927883274373222 #
plane-surface $-1 50.61922055726798 0 0 -1 0 0 0 0 1 forward_v I I I I #
coedge $-1 $272 $270 $274 $374 reversed $181 $-1 #
edge $-1 $285 -14.157845718374492 $376 14.157845718374492 $284 $433 forward 7 unknown #
vertex $-1 $374 $434 #
straight-curve $-1 -50.61922055726798 -34.601567117218885 0 0 0 -1 I I #
edge $-1 $372 -34.601567117218885 $376 34.601567117218885 $370 $435 forward 7 unknown #
straight-curve $-1 0 -34.601567117218885 -14.157845718374492 -1 0 0 I I #
vertex $-1 $277 $436 #
straight-curve $-1 0 34.601567117218885 -14.157845718374492 1 0 0 I I #
point $-1 50.61922055726798 34.601567117218885 -14.157845718374492 #
point $-1 50.61922055726798 -34.601567117218885 -14.157845718374492 #
straight-curve $-1 -50.61922055726798 0 14.157845718374492 0 -1 0 I I #
point $-1 -50.61922055726798 34.601567117218885 14.157845718374492 #
point $-1 -50.61922055726798 -34.601567117218885 14.157845718374492 #
straight-curve $-1 50.61922055726798 -34.601567117218885 0 0 0 -1 I I #
straight-curve $-1 50.61922055726798 34.601567117218885 0 0 0 -1 I I #
loop $-1 $-1 $393 $294 #
plane-surface $-1 -50.61922055726798 0 0 1 0 0 0 0 -1 forward_v I I I I #
coedge $-1 $298 $297 $399 $437 forward $122 $-1 #
edge $-1 $302 24.970792700988447 $402 34.601567117218885 $301 $438 forward 7 unknown #
coedge $-1 $396 $393 $298 $390 reversed $385 $-1 #
edge $-1 $439 -34.601567117218885 $391 -24.970792700988447 $389 $440 forward 7 unknown #
vertex $-1 $394 $441 #
straight-curve $-1 0 -24.970792700988447 -14.157845718374492 1 0 0 I I #
coedge $-1 $389 $304 $300 $394 forward $385 $-1 #
edge $-1 $306 2.8611879773793749 $391 8.4848344864565366 $393 $442 forward 7 unknown #
point $-1 50.61922055726798 -24.970792700988447 -14.157845718374492 #
coedge $-1 $304 $389 $308 $400 reversed $385 $-1 #
straight-curve $-1 -50.61922055726798 -14.893089954551833 -8.5341992092973307 0 1 0 I I #
point $-1 -50.61922055726798 -24.970792700988447 -8.5341992092973307 #
coedge $-1 $309 $308 $387 $437 reversed $295 $-1 #
edge $-1 $310 8.5341992092973307 $439 14.157845718374492 $396 $443 forward 7 unknown #
point $-1 -50.61922055726798 -34.601567117218885 -8.5341992092973307 #
vertex $-1 $312 $444 #
straight-curve $-1 50.61922055726798 -34.601567117218885 0 0 0 -1 I I #
edge $-1 $405 57.139458543576424 $408 69.244985278075575 $316 $445 forward 7 unknown #
vertex $-1 $330 $446 #
straight-curve $-1 11.65028407407609 -24.970792700988447 14.157845718374489 1 0 0 I I #
edge $-1 $408 -15.206642102536421 $327 -4.3216590943676305 $326 $447 forward 7 unknown #
vertex $-1 $407 $448 #
straight-curve $-1 -33.311250417303171 -24.970792700988447 58.66413754933069 -0.82903756765294845 0 0.55919291073839883 I I #
point $-1 32.672039456787388 -24.970792700988447 14.157845718374489 #
point $-1 50.61922055726798 -14.085809692819657 2.0523189838753311 #
straight-curve $-1 50.61922055726798 0 14.157845718374492 0 1 0 I I #
vertex $-1 $333 $449 #
point $-1 40.687202580303975 -21.860797555797369 4.895863657251974 #
vertex $-1 $337 $450 #
point $-1 40.687202580303975 -17.195804838010744 4.895863657251974 #
coedge $-1 $342 $350 $343 $419 forward $240 $-1 #
edge $-1 $421 -20.220573454275204 $351 -8.541413871612157 $342 $451 forward 7 unknown #
edge $-1 $425 -14.157845718374492 $421 -8.1006497938295023 $343 $452 forward 7 unknown #
edge $-1 $348 46.054796165836024 $425 50.61922055726798 $344 $453 forward 7 unknown #
vertex $-1 $345 $454 #
straight-curve $-1 -43.399263851893778 34.601567117218885 17.681856224431378 -0.60181501223851219 0 -0.79863551827123203 I I #
point $-1 -46.054796165836024 34.601567117218885 14.157845718374492 #
point $-1 -50.61922055726798 22.922407534555838 8.1006497938295023 #
vertex $-1 $420 $455 #
straight-curve $-1 -50.61922055726798 0 14.157845718374492 0 -1 0 I I #
vertex $-1 $357 $456 #
point $-1 -46.353064245806699 25.25823945108845 10.886374320272775 #
vertex $-1 $361 $457 #
point $-1 -46.353064245806699 28.761987325887361 10.886374320272775 #
vertex $-1 $365 $458 #
point $-1 -46.353064245806699 32.265735200686272 10.886374320272775 #
straight-curve $-1 -50.61922055726798 34.601567117218885 0 0 0 -1 I I #
point $-1 -50.61922055726798 -34.601567117218885 -14.157845718374492 #
straight-curve $-1 -50.61922055726798 0 -14.157845718374492 0 1 0 I I #
point $-1 -50.61922055726798 34.601567117218885 -14.157845718374492 #
edge $-1 $402 -50.61922055726798 $439 50.61922055726798 $399 $459 forward 7 unknown #
straight-curve $-1 50.61922055726798 0 -14.157845718374492 0 -1 0 I I #
vertex $-1 $390 $460 #
straight-curve $-1 -50.61922055726798 0 -14.157845718374492 0 1 0 I I #
point $-1 -50.61922055726798 -24.970792700988447 -14.157845718374492 #
straight-curve $-1 -50.61922055726798 -24.970792700988447 -5.6730112319179558 0 0 -1 I I #
straight-curve $-1 -50.61922055726798 -34.601567117218885 0 0 0 -1 I I #
point $-1 50.61922055726798 -34.601567117218885 -14.157845718374492 #
straight-curve $-1 50.61922055726798 -24.970792700988447 71.297304261950913 0 0 -1 I I #
point $-1 50.61922055726798 -24.970792700988447 14.157845718374492 #
straight-curve $-1 50.619220557267987 -9.7641505984520265 2.0523189838753275 0 1 0 I I #
point $-1 50.61922055726798 -24.970792700988447 2.0523189838753311 #
point $-1 39.298972101912625 -21.860797555797369 4.6260190003374246 #
point $-1 39.298972101912625 -17.195804838010744 4.6260190003374246 #
straight-curve $-1 -50.61922055726798 14.380993662943681 8.1006497938294988 0 -1 0 I I #
straight-curve $-1 -50.61922055726798 34.601567117218885 0 0 0 -1 I I #
straight-curve $-1 0 34.601567117218885 14.157845718374492 -1 0 0 I I #
point $-1 -50.61922055726798 34.601567117218885 8.1006497938295023 #
point $-1 -50.61922055726798 34.601567117218885 14.157845718374492 #
point $-1 -46.156243739773984 25.25823945108845 9.4859237897630315 #
point $-1 -46.156243739773984 28.761987325887361 9.4859237897630315 #
point $-1 -46.156243739773984 32.265735200686272 9.4859237897630315 #
straight-curve $-1 0 -34.601567117218885 -14.157845718374492 -1 0 0 I I #
point $-1 -50.61922055726798 -34.601567117218885 -14.157845718374492 #
End-of-ACIS-data 