600 0 6 0           
109 GICL ACIS Healer - Source: /gicl/data5/repository/Drexel/CICIRELLO-THESISDATA/Part10014.smdg.deltas.sat - 6 0 18 ACIS 6.0.3 Solaris 24 Fri Apr 12 10:28:25 2002 
1 9.999999999999999547e-07 1.000000000000000036e-10 
body $-1 $6 $-1 $-1 #
body $-1 $7 $-1 $-1 #
body $-1 $8 $-1 $-1 #
body $-1 $9 $-1 $-1 #
body $-1 $10 $-1 $-1 #
body $-1 $11 $-1 $-1 #
lump $-1 $-1 $12 $0 #
lump $-1 $-1 $13 $1 #
lump $-1 $-1 $14 $2 #
lump $-1 $-1 $15 $3 #
lump $-1 $-1 $16 $4 #
lump $-1 $-1 $17 $5 #
shell $-1 $-1 $-1 $18 $-1 $6 #
shell $-1 $-1 $-1 $19 $-1 $7 #
shell $-1 $-1 $-1 $20 $-1 $8 #
shell $-1 $-1 $-1 $21 $-1 $9 #
shell $-1 $-1 $-1 $22 $-1 $10 #
shell $-1 $-1 $-1 $23 $-1 $11 #
face $-1 $24 $25 $12 $-1 $26 reversed single #
face $-1 $27 $28 $13 $-1 $29 forward single #
face $-1 $30 $31 $14 $-1 $32 forward single #
face $-1 $33 $34 $15 $-1 $35 reversed single #
face $-1 $36 $37 $16 $-1 $38 forward single #
face $-1 $39 $40 $17 $-1 $41 forward single #
face $-1 $42 $43 $12 $-1 $44 reversed single #
loop $-1 $-1 $45 $18 #
plane-surface $-1 50.23468733787041884 48.65683339310476185 6.50772339076759021 0 -1 0 0 0 -1 forward_v I I I I #
face $-1 $46 $47 $13 $-1 $48 reversed single #
loop $-1 $-1 $49 $19 #
plane-surface $-1 50.23468733787041884 0 6.50772339076759021 0 1 0 0 0 1 forward_v I I I I #
face $-1 $50 $51 $14 $-1 $52 reversed single #
loop $-1 $-1 $53 $20 #
plane-surface $-1 50.23468733787041884 48.65683339310476185 6.50772339076759021 0 -1 0 0 0 -1 forward_v I I I I #
face $-1 $54 $55 $15 $-1 $56 reversed single #
loop $-1 $-1 $57 $21 #
plane-surface $-1 97.98964846129923956 13.63379595946134515 149.8801417671899685 0 -1 0 -0.6946583786197038091 0 -0.7193397924579483238 forward_v I I I I #
face $-1 $58 $59 $16 $-1 $60 forward single #
loop $-1 $61 $62 $22 #
cone-surface $-1 97.07908104125752402 7.868310592629324418 9.692692006463415666 -0.6946583786197038091 0 -0.7193397924579483238 0.7193397924579483238 0 -0.6946583786197038091 1 I I 0 1 1 forward I I I I #
face $-1 $63 $64 $17 $-1 $65 forward single #
loop $-1 $66 $67 $23 #
cone-surface $-1 97.07908104125752402 11.3276018127285365 9.692692006463415666 -0.6946583786197038091 0 -0.7193397924579483238 0.7193397924579483238 0 -0.6946583786197038091 1 I I 0 1 1 forward I I I I #
face $-1 $68 $69 $12 $-1 $70 forward single #
loop $-1 $-1 $71 $24 #
plane-surface $-1 50.23468733787041884 0 6.50772339076759021 0 1 0 0 0 1 forward_v I I I I #
coedge $-1 $72 $73 $74 $75 reversed $25 $-1 #
face $-1 $76 $77 $13 $-1 $78 reversed single #
loop $-1 $-1 $79 $27 #
plane-surface $-1 50.23468733787041884 24.32841669655238093 0 0 0 1 1 0 0 forward_v I I I I #
coedge $-1 $80 $81 $82 $83 forward $28 $-1 #
face $-1 $84 $85 $14 $-1 $86 reversed single #
loop $-1 $-1 $87 $30 #
plane-surface $-1 50.23468733787041884 24.32841669655238093 0 0 0 1 1 0 0 forward_v I I I I #
coedge $-1 $88 $89 $90 $91 forward $31 $-1 #
face $-1 $92 $93 $15 $-1 $94 reversed single #
loop $-1 $-1 $95 $33 #
plane-surface $-1 28.19775554811357665 9.597956202678931348 77.60852263956272168 0.6946583786197038091 0 0.7193397924579483238 0.7193397924579483238 0 -0.6946583786197038091 forward_v I I I I #
coedge $-1 $96 $97 $98 $99 reversed $34 $-1 #
face $-1 $-1 $100 $16 $-1 $101 forward single #
loop $-1 $102 $103 $36 #
cone-surface $-1 96.033224484586313 7.868310592629324418 8.609675862741745789 -0.6946583786197038091 0 -0.7193397924579483238 0.3596698962289741619 0 -0.3473291893098519045 1 I I -0.7071067811865474617 0.7071067811865474617 0.5 forward I I I I #
loop $-1 $-1 $104 $22 #
coedge $-1 $62 $62 $105 $106 reversed $37 $-1 #
face $-1 $-1 $107 $17 $-1 $108 forward single #
loop $-1 $109 $110 $39 #
cone-surface $-1 96.033224484586313 11.3276018127285365 8.609675862741745789 -0.6946583786197038091 0 -0.7193397924579483238 0.3596698962289741619 0 -0.3473291893098519045 1 I I -0.7071067811865474617 0.7071067811865474617 0.5 forward I I I I #
loop $-1 $-1 $111 $23 #
coedge $-1 $67 $67 $112 $113 reversed $40 $-1 #
face $-1 $114 $115 $12 $-1 $116 reversed single #
loop $-1 $-1 $117 $42 #
plane-surface $-1 50.23468733787041884 24.32841669655238093 13.01544678153518042 0 0 1 1 0 0 forward_v I I I I #
coedge $-1 $118 $119 $120 $121 reversed $43 $-1 #
coedge $-1 $122 $45 $123 $124 reversed $25 $-1 #
coedge $-1 $45 $122 $125 $126 forward $25 $-1 #
coedge $-1 $127 $128 $45 $75 forward $115 $-1 #
edge $-1 $129 -50.23468733787041884 $130 50.23468733787041884 $45 $131 forward 7 unknown #
face $-1 $132 $133 $13 $-1 $134 reversed single #
loop $-1 $-1 $135 $46 #
plane-surface $-1 3.456507304562720151 -5.5621164458965211 6.50772339076759021 0 1 0 0 0 1 forward_v I I I I #
coedge $-1 $136 $137 $81 $138 forward $47 $-1 #
coedge $-1 $139 $49 $140 $141 reversed $28 $-1 #
coedge $-1 $49 $139 $79 $138 reversed $28 $-1 #
coedge $-1 $142 $143 $49 $83 reversed $133 $-1 #
edge $-1 $144 -6.50772339076759021 $145 6.50772339076759021 $82 $146 forward 7 unknown #
face $-1 $147 $148 $14 $-1 $149 reversed single #
loop $-1 $-1 $150 $50 #
plane-surface $-1 1.956507304562720151 51.4378916160530224 6.50772339076759021 1 0 0 0 0 -1 forward_v I I I I #
coedge $-1 $151 $152 $89 $153 forward $51 $-1 #
coedge $-1 $154 $53 $155 $156 reversed $31 $-1 #
coedge $-1 $53 $154 $87 $153 reversed $31 $-1 #
coedge $-1 $157 $158 $53 $91 reversed $159 $-1 #
edge $-1 $160 -6.50772339076759021 $161 6.50772339076759021 $90 $162 forward 7 unknown #
face $-1 $163 $164 $15 $-1 $165 forward single #
loop $-1 $-1 $166 $54 #
plane-surface $-1 97.98964846129923956 5.562116445896517547 149.8801417671899685 0 1 0 0.6946583786197038091 0 0.7193397924579483238 forward_v I I I I #
coedge $-1 $167 $168 $169 $170 reversed $55 $-1 #
coedge $-1 $97 $57 $171 $172 reversed $34 $-1 #
coedge $-1 $57 $96 $167 $173 reversed $34 $-1 #
coedge $-1 $169 $174 $57 $99 forward $164 $-1 #
edge $-1 $175 -26.35720677615600493 $176 -20.97367424191212137 $98 $177 forward 7 unknown #
loop $-1 $-1 $105 $58 #
plane-surface $-1 28.19775554811357665 9.597956202678931348 77.60852263956272168 0.6946583786197038091 0 0.7193397924579483238 0.7193397924579483238 0 -0.6946583786197038091 forward_v I I I I #
loop $-1 $-1 $178 $36 #
coedge $-1 $103 $103 $104 $179 reversed $59 $-1 #
coedge $-1 $104 $104 $103 $179 forward $61 $-1 #
coedge $-1 $105 $105 $62 $106 forward $100 $-1 #
edge $-1 $180 0 $180 6.283185307179586232 $105 $181 forward 7 unknown #
loop $-1 $-1 $112 $63 #
plane-surface $-1 28.19775554811357665 9.597956202678931348 77.60852263956272168 0.6946583786197038091 0 0.7193397924579483238 0.7193397924579483238 0 -0.6946583786197038091 forward_v I I I I #
loop $-1 $-1 $182 $39 #
coedge $-1 $110 $110 $111 $183 reversed $64 $-1 #
coedge $-1 $111 $111 $110 $183 forward $66 $-1 #
coedge $-1 $112 $112 $67 $113 forward $107 $-1 #
edge $-1 $184 0 $184 6.283185307179586232 $112 $185 forward 7 unknown #
face $-1 $186 $187 $12 $-1 $188 reversed single #
loop $-1 $-1 $127 $68 #
plane-surface $-1 50.23468733787041884 24.32841669655238093 0 0 0 1 1 0 0 forward_v I I I I #
coedge $-1 $189 $190 $191 $192 forward $69 $-1 #
coedge $-1 $193 $71 $194 $195 reversed $43 $-1 #
coedge $-1 $71 $193 $196 $197 forward $43 $-1 #
coedge $-1 $128 $127 $71 $121 forward $115 $-1 #
edge $-1 $198 -50.23468733787041884 $199 50.23468733787041884 $71 $200 forward 7 unknown #
coedge $-1 $73 $72 $189 $201 reversed $25 $-1 #
coedge $-1 $202 $203 $72 $124 forward $187 $-1 #
edge $-1 $204 -6.50772339076759021 $129 6.50772339076759021 $72 $205 forward 7 unknown #
coedge $-1 $191 $206 $73 $126 reversed $207 $-1 #
edge $-1 $208 -6.50772339076759021 $130 6.50772339076759021 $125 $209 forward 7 unknown #
coedge $-1 $120 $74 $206 $210 forward $115 $-1 #
coedge $-1 $74 $120 $202 $211 forward $115 $-1 #
vertex $-1 $75 $212 #
vertex $-1 $210 $213 #
straight-curve $-1 50.23468733787041884 48.65683339310476185 0 1 0 0 I I #
face $-1 $214 $215 $13 $-1 $216 reversed single #
loop $-1 $-1 $82 $76 #
plane-surface $-1 1.956507304562720151 -2.78105822294826055 6.50772339076759021 1 0 0 0 0 -1 forward_v I I I I #
coedge $-1 $217 $218 $219 $220 forward $77 $-1 #
coedge $-1 $221 $79 $222 $223 forward $47 $-1 #
coedge $-1 $79 $221 $142 $224 forward $47 $-1 #
edge $-1 $144 -48.27818003330769869 $225 -45.27818003330769869 $79 $226 forward 7 unknown #
coedge $-1 $81 $80 $227 $228 forward $28 $-1 #
coedge $-1 $229 $230 $80 $141 forward $231 $-1 #
edge $-1 $232 45.27818003330769869 $145 48.27818003330769869 $140 $233 forward 7 unknown #
coedge $-1 $219 $82 $137 $224 reversed $133 $-1 #
coedge $-1 $82 $219 $229 $234 reversed $133 $-1 #
vertex $-1 $138 $235 #
vertex $-1 $234 $236 #
straight-curve $-1 1.956507304562720151 0 6.50772339076759021 0 0 1 I I #
face $-1 $237 $159 $14 $-1 $238 reversed single #
loop $-1 $-1 $239 $84 #
plane-surface $-1 3.456507304562720151 54.21894983900128295 6.50772339076759021 0 -1 0 0 0 -1 forward_v I I I I #
coedge $-1 $240 $241 $242 $243 forward $85 $-1 #
coedge $-1 $244 $87 $240 $245 forward $51 $-1 #
coedge $-1 $87 $244 $157 $246 forward $51 $-1 #
edge $-1 $160 45.27818003330769869 $247 48.27818003330769869 $87 $248 forward 7 unknown #
coedge $-1 $89 $88 $249 $250 forward $31 $-1 #
coedge $-1 $251 $252 $88 $156 forward $253 $-1 #
edge $-1 $254 -48.27818003330769869 $161 -45.27818003330769869 $155 $255 forward 7 unknown #
coedge $-1 $256 $90 $152 $246 reversed $159 $-1 #
coedge $-1 $90 $256 $251 $257 reversed $159 $-1 #
loop $-1 $-1 $90 $147 #
vertex $-1 $153 $258 #
vertex $-1 $257 $259 #
straight-curve $-1 4.956507304562720151 48.65683339310476185 6.50772339076759021 0 0 1 I I #
face $-1 $-1 $260 $15 $-1 $261 reversed single #
loop $-1 $-1 $98 $92 #
plane-surface $-1 50.23468733787041884 24.32841669655238093 13.01544678153518042 0 0 1 1 0 0 forward_v I I I I #
coedge $-1 $262 $263 $264 $265 reversed $93 $-1 #
coedge $-1 $266 $95 $97 $173 forward $55 $-1 #
coedge $-1 $95 $266 $262 $267 forward $55 $-1 #
coedge $-1 $264 $98 $95 $170 forward $164 $-1 #
edge $-1 $176 3.3293904901543101 $268 11.4010700037191377 $169 $269 forward 7 unknown #
coedge $-1 $270 $271 $96 $172 forward $260 $-1 #
edge $-1 $272 -70.37730285260172991 $175 -65.17848579744361359 $171 $273 forward 7 unknown #
edge $-1 $176 92.98538367359061851 $272 100.4693746757408235 $97 $274 forward 7 unknown #
coedge $-1 $98 $264 $270 $275 forward $164 $-1 #
vertex $-1 $99 $276 #
vertex $-1 $99 $277 #
straight-curve $-1 74.11216789958483275 13.63379595946134515 13.01544678153518575 -1 0 0 I I #
coedge $-1 $178 $178 $-1 $278 reversed $102 $-1 #
edge $-1 $279 0 $279 6.283185307179586232 $103 $280 forward 7 unknown #
vertex $-1 $106 $281 #
ellipse-curve $-1 97.77760840861890301 7.868310592629324418 10.41603825395611693 0.6946583786197038091 0 0.7193397924579483238 0.7193397924579483238 0 -0.6946583786197038091 1 I I #
coedge $-1 $182 $182 $-1 $282 reversed $109 $-1 #
edge $-1 $283 0 $283 6.283185307179586232 $110 $284 forward 7 unknown #
vertex $-1 $113 $285 #
ellipse-curve $-1 97.77760840861890301 11.3276018127285365 10.41603825395611693 0.6946583786197038091 0 0.7193397924579483238 0.7193397924579483238 0 -0.6946583786197038091 1 I I #
face $-1 $-1 $207 $12 $-1 $286 reversed single #
loop $-1 $-1 $123 $114 #
plane-surface $-1 0 24.32841669655238093 6.50772339076759021 1 0 0 0 0 -1 forward_v I I I I #
coedge $-1 $287 $117 $122 $201 forward $69 $-1 #
coedge $-1 $117 $287 $193 $288 forward $69 $-1 #
coedge $-1 $194 $125 $117 $192 reversed $207 $-1 #
edge $-1 $289 -24.32841669655238093 $208 24.32841669655238093 $191 $290 forward 7 unknown #
coedge $-1 $119 $118 $190 $288 reversed $43 $-1 #
coedge $-1 $206 $191 $118 $195 forward $207 $-1 #
edge $-1 $289 -6.50772339076759021 $198 6.50772339076759021 $194 $291 forward 7 unknown #
coedge $-1 $203 $202 $119 $197 reversed $187 $-1 #
edge $-1 $292 -6.50772339076759021 $199 6.50772339076759021 $196 $293 forward 7 unknown #
vertex $-1 $195 $294 #
vertex $-1 $211 $295 #
straight-curve $-1 50.23468733787041884 0 0 -1 0 0 I I #
edge $-1 $208 -50.23468733787041884 $204 50.23468733787041884 $122 $296 forward 7 unknown #
coedge $-1 $196 $123 $128 $211 reversed $187 $-1 #
coedge $-1 $123 $196 $287 $297 reversed $187 $-1 #
vertex $-1 $201 $298 #
straight-curve $-1 0 48.65683339310476185 6.50772339076759021 0 0 -1 I I #
coedge $-1 $125 $194 $127 $210 reversed $207 $-1 #
loop $-1 $-1 $194 $186 #
vertex $-1 $192 $299 #
straight-curve $-1 100.4693746757408377 48.65683339310476185 6.50772339076759021 0 0 -1 I I #
edge $-1 $130 -24.32841669655238093 $198 24.32841669655238093 $206 $300 forward 7 unknown #
edge $-1 $199 -24.32841669655238093 $129 24.32841669655238093 $202 $301 forward 7 unknown #
point $-1 0 48.65683339310476185 0 #
point $-1 100.4693746757408377 48.65683339310476185 0 #
face $-1 $-1 $231 $13 $-1 $302 forward single #
loop $-1 $-1 $303 $132 #
plane-surface $-1 4.956507304562720151 -2.78105822294826055 6.50772339076759021 -1 0 0 0 0 1 forward_v I I I I #
coedge $-1 $304 $135 $221 $305 reversed $77 $-1 #
coedge $-1 $135 $304 $306 $307 reversed $77 $-1 #
coedge $-1 $143 $142 $135 $220 reversed $133 $-1 #
edge $-1 $308 -6.50772339076759021 $309 6.50772339076759021 $219 $310 forward 7 unknown #
coedge $-1 $137 $136 $217 $305 forward $47 $-1 #
coedge $-1 $227 $303 $136 $223 reversed $215 $-1 #
edge $-1 $225 -2.78105822294826055 $311 2.78105822294826055 $222 $312 forward 7 unknown #
edge $-1 $309 -2.78105822294826055 $144 2.78105822294826055 $142 $313 forward 7 unknown #
vertex $-1 $223 $314 #
straight-curve $-1 50.23468733787041884 0 0 1 0 0 I I #
coedge $-1 $315 $222 $139 $228 reversed $215 $-1 #
edge $-1 $232 -6.50772339076759021 $225 6.50772339076759021 $227 $316 forward 7 unknown #
coedge $-1 $306 $140 $143 $234 forward $231 $-1 #
coedge $-1 $140 $306 $315 $317 forward $231 $-1 #
loop $-1 $-1 $140 $214 #
vertex $-1 $141 $318 #
straight-curve $-1 50.23468733787041884 0 13.01544678153518042 -1 0 0 I I #
edge $-1 $145 -2.78105822294826055 $308 2.78105822294826055 $143 $319 forward 7 unknown #
point $-1 1.956507304562720151 0 0 #
point $-1 1.956507304562720151 0 13.01544678153518042 #
face $-1 $-1 $253 $14 $-1 $320 forward single #
plane-surface $-1 4.956507304562720151 51.4378916160530224 6.50772339076759021 -1 0 0 0 0 1 forward_v I I I I #
coedge $-1 $321 $322 $256 $323 forward $148 $-1 #
coedge $-1 $249 $150 $151 $245 reversed $85 $-1 #
coedge $-1 $150 $249 $252 $324 reversed $85 $-1 #
coedge $-1 $322 $321 $150 $243 reversed $148 $-1 #
edge $-1 $325 -6.50772339076759021 $326 6.50772339076759021 $242 $327 forward 7 unknown #
coedge $-1 $152 $151 $321 $328 forward $51 $-1 #
edge $-1 $247 -2.78105822294826055 $326 2.78105822294826055 $240 $329 forward 7 unknown #
edge $-1 $330 -2.78105822294826055 $160 2.78105822294826055 $157 $331 forward 7 unknown #
vertex $-1 $245 $332 #
straight-curve $-1 50.23468733787041884 48.65683339310476185 0 -1 0 0 I I #
coedge $-1 $241 $240 $154 $250 reversed $85 $-1 #
edge $-1 $254 -6.50772339076759021 $247 6.50772339076759021 $249 $333 forward 7 unknown #
coedge $-1 $334 $155 $158 $257 forward $253 $-1 #
coedge $-1 $155 $334 $241 $324 forward $253 $-1 #
loop $-1 $-1 $155 $237 #
vertex $-1 $156 $335 #
straight-curve $-1 50.23468733787041884 48.65683339310476185 13.01544678153518042 1 0 0 I I #
coedge $-1 $158 $157 $239 $323 reversed $159 $-1 #
edge $-1 $161 -2.78105822294826055 $336 2.78105822294826055 $158 $337 forward 7 unknown #
point $-1 4.956507304562720151 48.65683339310476185 0 #
point $-1 4.956507304562720151 48.65683339310476185 13.01544678153518042 #
loop $-1 $-1 $171 $163 #
plane-surface $-1 100.4693746757408377 24.32841669655238093 6.50772339076759021 -1 0 0 0 0 1 forward_v I I I I #
coedge $-1 $263 $166 $168 $267 reversed $93 $-1 #
coedge $-1 $166 $262 $338 $339 reversed $93 $-1 #
coedge $-1 $174 $169 $166 $265 forward $164 $-1 #
edge $-1 $268 20.97367424191212137 $340 26.35720677615600493 $264 $341 forward 7 unknown #
coedge $-1 $168 $167 $271 $342 reversed $55 $-1 #
edge $-1 $343 -100.4693746757408235 $268 -92.98538367359061851 $262 $344 forward 7 unknown #
vertex $-1 $170 $345 #
straight-curve $-1 95.08584214149695413 16.96318644961565525 13.01544678153517864 0 -1 0 I I #
coedge $-1 $338 $171 $174 $275 reversed $260 $-1 #
coedge $-1 $171 $338 $266 $342 forward $260 $-1 #
vertex $-1 $172 $346 #
straight-curve $-1 100.4693746757408377 13.63379595946134515 78.19393257897878868 0 0 1 I I #
straight-curve $-1 28.19775554811357665 13.63379595946134515 77.60852263956272168 0.7193397924579483238 0 -0.6946583786197038091 I I #
edge $-1 $340 -18.76630025065586338 $175 -10.69462073709103578 $270 $347 forward 7 unknown #
point $-1 100.4693746757408377 13.63379595946134515 13.01544678153518042 #
point $-1 95.08584214149695413 13.63379595946134515 13.01544678153518575 #
edge $-1 $348 1 $348 0 $178 $-1 forward 7 unknown #
vertex $-1 $179 $349 #
ellipse-curve $-1 96.38055367389617345 7.868310592629324418 8.969345758970719729 0.6946583786197038091 0 0.7193397924579483238 0.7193397924579483238 0 -0.6946583786197038091 1 I I #
point $-1 98.49694820107684734 7.868310592629324418 9.721379875336406684 #
edge $-1 $350 1 $350 0 $182 $-1 forward 7 unknown #
vertex $-1 $183 $351 #
ellipse-curve $-1 96.38055367389617345 11.3276018127285365 8.969345758970719729 0.6946583786197038091 0 0.7193397924579483238 0.7193397924579483238 0 -0.6946583786197038091 1 I I #
point $-1 98.49694820107684734 11.3276018127285365 9.721379875336406684 #
plane-surface $-1 100.4693746757408377 24.32841669655238093 6.50772339076759021 -1 0 0 0 0 1 forward_v I I I I #
coedge $-1 $190 $189 $203 $297 forward $69 $-1 #
edge $-1 $292 -50.23468733787041884 $289 50.23468733787041884 $193 $352 forward 7 unknown #
vertex $-1 $192 $353 #
straight-curve $-1 100.4693746757408377 24.32841669655238093 13.01544678153518042 0 1 0 I I #
straight-curve $-1 100.4693746757408377 0 6.50772339076759021 0 0 -1 I I #
vertex $-1 $297 $354 #
straight-curve $-1 0 0 6.50772339076759021 0 0 -1 I I #
point $-1 100.4693746757408377 0 0 #
point $-1 0 0 0 #
straight-curve $-1 50.23468733787041884 48.65683339310476185 13.01544678153518042 -1 0 0 I I #
edge $-1 $204 -24.32841669655238093 $292 24.32841669655238093 $203 $355 forward 7 unknown #
point $-1 0 48.65683339310476185 13.01544678153518042 #
point $-1 100.4693746757408377 48.65683339310476185 13.01544678153518042 #
straight-curve $-1 100.4693746757408377 24.32841669655238093 0 0 -1 0 I I #
straight-curve $-1 0 24.32841669655238093 0 0 1 0 I I #
plane-surface $-1 50.23468733787041884 24.32841669655238093 13.01544678153518042 0 0 1 1 0 0 forward_v I I I I #
coedge $-1 $222 $315 $304 $356 forward $215 $-1 #
coedge $-1 $218 $217 $303 $356 reversed $77 $-1 #
edge $-1 $311 -1.5 $309 1.5 $217 $357 forward 7 unknown #
coedge $-1 $230 $229 $218 $307 forward $231 $-1 #
edge $-1 $308 -1.5 $358 1.5 $218 $359 forward 7 unknown #
vertex $-1 $234 $360 #
vertex $-1 $224 $361 #
straight-curve $-1 1.956507304562720151 -5.5621164458965211 6.50772339076759021 0 0 -1 I I #
vertex $-1 $356 $362 #
straight-curve $-1 4.956507304562720151 -2.78105822294826055 0 0 -1 0 I I #
straight-curve $-1 1.956507304562720151 -2.78105822294826055 0 0 1 0 I I #
point $-1 4.956507304562720151 0 0 #
coedge $-1 $303 $227 $230 $317 reversed $215 $-1 #
straight-curve $-1 4.956507304562720151 0 6.50772339076759021 0 0 -1 I I #
edge $-1 $358 -2.78105822294826055 $232 2.78105822294826055 $315 $363 forward 7 unknown #
point $-1 4.956507304562720151 0 13.01544678153518042 #
straight-curve $-1 1.956507304562720151 -2.78105822294826055 13.01544678153518042 0 -1 0 I I #
plane-surface $-1 50.23468733787041884 24.32841669655238093 13.01544678153518042 0 0 1 1 0 0 forward_v I I I I #
coedge $-1 $242 $239 $244 $328 reversed $148 $-1 #
coedge $-1 $239 $242 $334 $364 reversed $148 $-1 #
edge $-1 $336 -6.50772339076759021 $330 6.50772339076759021 $256 $365 forward 7 unknown #
edge $-1 $325 -2.78105822294826055 $254 2.78105822294826055 $241 $366 forward 7 unknown #
vertex $-1 $364 $367 #
vertex $-1 $328 $368 #
straight-curve $-1 1.956507304562720151 54.21894983900128295 6.50772339076759021 0 0 -1 I I #
edge $-1 $326 -1.5 $330 1.5 $321 $369 forward 7 unknown #
straight-curve $-1 1.956507304562720151 51.4378916160530224 0 0 1 0 I I #
vertex $-1 $246 $370 #
straight-curve $-1 4.956507304562720151 51.4378916160530224 0 0 -1 0 I I #
point $-1 1.956507304562720151 48.65683339310476185 0 #
straight-curve $-1 1.956507304562720151 48.65683339310476185 6.50772339076759021 0 0 -1 I I #
coedge $-1 $252 $251 $322 $364 forward $253 $-1 #
point $-1 1.956507304562720151 48.65683339310476185 13.01544678153518042 #
vertex $-1 $257 $371 #
straight-curve $-1 4.956507304562720151 51.4378916160530224 13.01544678153518042 0 1 0 I I #
coedge $-1 $271 $270 $263 $339 forward $260 $-1 #
edge $-1 $340 65.17848579744361359 $343 70.37730285260172991 $338 $372 forward 7 unknown #
vertex $-1 $275 $373 #
straight-curve $-1 74.11216789958483275 5.562116445896517547 13.01544678153518575 1 0 0 I I #
edge $-1 $343 -11.4010700037191377 $272 -3.3293904901543101 $271 $374 forward 7 unknown #
vertex $-1 $342 $375 #
straight-curve $-1 28.19775554811357665 5.562116445896517547 77.60852263956272168 -0.7193397924579483238 0 0.6946583786197038091 I I #
point $-1 95.08584214149695413 5.562116445896517547 13.01544678153518575 #
point $-1 100.4693746757408377 13.63379595946134515 7.816629726377054332 #
straight-curve $-1 100.4693746757408377 24.32841669655238093 13.01544678153518042 0 1 0 I I #
vertex $-1 $278 $376 #
point $-1 97.09989346635410357 7.868310592629324418 8.274687380351016586 #
vertex $-1 $282 $377 #
point $-1 97.09989346635410357 11.3276018127285365 8.274687380351016586 #
straight-curve $-1 50.23468733787041884 0 13.01544678153518042 1 0 0 I I #
point $-1 100.4693746757408377 0 13.01544678153518042 #
point $-1 0 0 13.01544678153518042 #
straight-curve $-1 0 24.32841669655238093 13.01544678153518042 0 -1 0 I I #
edge $-1 $358 -6.50772339076759021 $311 6.50772339076759021 $303 $378 forward 7 unknown #
straight-curve $-1 3.456507304562720151 -5.5621164458965211 0 -1 0 0 I I #
vertex $-1 $317 $379 #
straight-curve $-1 3.456507304562720151 -5.5621164458965211 13.01544678153518042 1 0 0 I I #
point $-1 1.956507304562720151 -5.5621164458965211 13.01544678153518042 #
point $-1 1.956507304562720151 -5.5621164458965211 0 #
point $-1 4.956507304562720151 -5.5621164458965211 0 #
straight-curve $-1 4.956507304562720151 -2.78105822294826055 13.01544678153518042 0 1 0 I I #
edge $-1 $336 -1.5 $325 1.5 $322 $380 forward 7 unknown #
straight-curve $-1 4.956507304562720151 54.21894983900128295 6.50772339076759021 0 0 -1 I I #
straight-curve $-1 1.956507304562720151 51.4378916160530224 13.01544678153518042 0 -1 0 I I #
point $-1 1.956507304562720151 54.21894983900128295 13.01544678153518042 #
point $-1 1.956507304562720151 54.21894983900128295 0 #
straight-curve $-1 3.456507304562720151 54.21894983900128295 0 1 0 0 I I #
point $-1 4.956507304562720151 54.21894983900128295 0 #
point $-1 4.956507304562720151 54.21894983900128295 13.01544678153518042 #
straight-curve $-1 100.4693746757408377 5.562116445896517547 78.19393257897878868 0 0 -1 I I #
point $-1 100.4693746757408377 5.562116445896517547 13.01544678153518042 #
straight-curve $-1 100.4693746757408519 16.96318644961565525 7.816629726377061438 0 1 0 I I #
point $-1 100.4693746757408377 5.562116445896517547 7.816629726377054332 #
point $-1 95.68589529527645254 7.868310592629324418 8.250005966512771849 #
point $-1 95.68589529527645254 11.3276018127285365 8.250005966512771849 #
straight-curve $-1 4.956507304562720151 -5.5621164458965211 6.50772339076759021 0 0 -1 I I #
point $-1 4.956507304562720151 -5.5621164458965211 13.01544678153518042 #
straight-curve $-1 3.456507304562720151 54.21894983900128295 13.01544678153518042 -1 0 0 I I #
End-of-ACIS-data 