500 0 11 0           
7 Unknown 11 ACIS 5.0 NT 24 Thu Mar 25 21:35:06 1999 
-1 9.9999999999999995e-007 1e-010 
body $-1 $11 $-1 $12 #
body $-1 $13 $-1 $14 #
body $-1 $15 $-1 $16 #
body $-1 $17 $-1 $18 #
body $-1 $19 $-1 $20 #
body $-1 $21 $-1 $22 #
body $-1 $23 $-1 $24 #
body $-1 $25 $-1 $26 #
body $-1 $27 $-1 $28 #
body $-1 $29 $-1 $30 #
body $-1 $31 $-1 $32 #
lump $-1 $-1 $33 $0 #
transform $-1 1 0 0 0 1 0 0 0 1 58.970305490279856 35.948724392478411 13.678222487126188 1 rotate no_reflect no_shear #
lump $-1 $-1 $34 $1 #
transform $-1 1 0 0 0 1 0 0 0 1 58.970305490279856 35.948724392478411 13.678222487126188 1 rotate no_reflect no_shear #
lump $-1 $-1 $35 $2 #
transform $-1 1 0 0 0 1 0 0 0 1 58.970305490279856 35.948724392478411 13.678222487126188 1 rotate no_reflect no_shear #
lump $-1 $-1 $36 $3 #
transform $-1 1 0 0 0 1 0 0 0 1 58.970305490279856 35.948724392478411 13.678222487126188 1 rotate no_reflect no_shear #
lump $-1 $-1 $37 $4 #
transform $-1 1 0 0 0 1 0 0 0 1 58.970305490279856 35.948724392478411 13.678222487126188 1 rotate no_reflect no_shear #
lump $-1 $-1 $38 $5 #
transform $-1 1 0 0 0 1 0 0 0 1 58.970305490279856 35.948724392478411 13.678222487126188 1 rotate no_reflect no_shear #
lump $-1 $-1 $39 $6 #
transform $-1 1 0 0 0 1 0 0 0 1 58.970305490279856 35.948724392478411 13.678222487126188 1 rotate no_reflect no_shear #
lump $-1 $-1 $40 $7 #
transform $-1 1 0 0 0 1 0 0 0 1 58.970305490279856 35.948724392478411 13.678222487126188 1 rotate no_reflect no_shear #
lump $-1 $-1 $41 $8 #
transform $-1 1 0 0 0 1 0 0 0 1 58.970305490279856 35.948724392478411 13.678222487126188 1 rotate no_reflect no_shear #
lump $-1 $-1 $42 $9 #
transform $-1 1 0 0 0 1 0 0 0 1 58.970305490279856 35.948724392478411 13.678222487126188 1 rotate no_reflect no_shear #
lump $-1 $-1 $43 $10 #
transform $-1 1 0 0 0 1 0 0 0 1 58.970305490279856 35.948724392478411 13.678222487126188 1 rotate no_reflect no_shear #
shell $-1 $-1 $-1 $44 $-1 $11 #
shell $-1 $-1 $-1 $45 $-1 $13 #
shell $-1 $-1 $-1 $46 $-1 $15 #
shell $-1 $-1 $-1 $47 $-1 $17 #
shell $-1 $-1 $-1 $48 $-1 $19 #
shell $-1 $-1 $-1 $49 $-1 $21 #
shell $-1 $-1 $-1 $50 $-1 $23 #
shell $-1 $-1 $-1 $51 $-1 $25 #
shell $-1 $-1 $-1 $52 $-1 $27 #
shell $-1 $-1 $-1 $53 $-1 $29 #
shell $-1 $-1 $-1 $54 $-1 $31 #
face $-1 $55 $56 $33 $-1 $57 forward single #
face $-1 $58 $59 $34 $-1 $60 forward single #
face $-1 $61 $62 $35 $-1 $63 forward single #
face $-1 $64 $65 $36 $-1 $66 reversed single #
face $-1 $67 $68 $37 $-1 $69 forward single #
face $-1 $70 $71 $38 $-1 $72 forward single #
face $-1 $73 $74 $39 $-1 $75 forward single #
face $-1 $76 $77 $40 $-1 $78 reversed single #
face $-1 $79 $80 $41 $-1 $81 forward single #
face $-1 $82 $83 $42 $-1 $84 forward single #
face $-1 $85 $86 $43 $-1 $87 forward single #
face $-1 $88 $89 $33 $-1 $90 reversed single #
loop $-1 $-1 $91 $44 #
plane-surface $-1 0 0 13.678222487126188 0 0 1 1 0 0 forward_v I I I I #
face $-1 $92 $93 $34 $-1 $94 reversed single #
loop $-1 $-1 $95 $45 #
plane-surface $-1 -51.380012833539368 0 -6.0205236257977788 0 0 1 1 0 0 forward_v I I I I #
face $-1 $96 $97 $35 $-1 $98 reversed single #
loop $-1 $-1 $99 $46 #
plane-surface $-1 51.380012833539368 0 -6.0205236257977788 0 0 1 1 0 0 forward_v I I I I #
face $-1 $100 $101 $36 $-1 $102 reversed single #
loop $-1 $-1 $103 $47 #
plane-surface $-1 -11.444158119459246 102.13956712254141 124.70141778709373 -1 0 0 0 0.86602541151947299 0.49999998660252726 forward_v I I I I #
face $-1 $104 $105 $37 $-1 $106 forward single #
loop $-1 $107 $108 $48 #
cone-surface $-1 -22.310455502385935 32.177541656060065 8.0968869814647029 0 -0.86602541151947299 -0.49999998660252726 1 0 0 1 I I 0 1 1 forward I I I I #
face $-1 $109 $110 $38 $-1 $111 forward single #
loop $-1 $112 $113 $49 #
cone-surface $-1 -18.235593983788426 32.177541656060065 8.0968869814647029 0 -0.86602541151947299 -0.49999998660252726 1 0 0 1 I I 0 1 1 forward I I I I #
face $-1 $114 $115 $39 $-1 $116 forward single #
loop $-1 $117 $118 $50 #
cone-surface $-1 -14.160732465190918 32.177541656060065 8.0968869814647029 0 -0.86602541151947299 -0.49999998660252726 1 0 0 1 I I 0 1 1 forward I I I I #
face $-1 $119 $120 $40 $-1 $121 reversed single #
loop $-1 $-1 $122 $51 #
plane-surface $-1 -40.857529462550062 -111.759488741433 96.156946975188859 1 0 0 0 0.64278761758704617 -0.76604443648966558 forward_v I I I I #
face $-1 $123 $124 $41 $-1 $125 forward single #
loop $-1 $126 $127 $52 #
cone-surface $-1 -37.597629556496145 -30.894458971568678 9.308366914013952 0 0.64278761758704617 -0.76604443648966558 1 0 0 1 I I 0 1 1 forward I I I I #
face $-1 $128 $129 $42 $-1 $130 forward single #
loop $-1 $131 $132 $53 #
cone-surface $-1 -32.707779697415248 -30.894458971568678 9.308366914013952 0 0.64278761758704617 -0.76604443648966558 1 0 0 1 I I 0 1 1 forward I I I I #
face $-1 $133 $134 $43 $-1 $135 forward single #
loop $-1 $136 $137 $54 #
cone-surface $-1 -27.817929838334358 -30.894458971568678 9.308366914013952 0 0.64278761758704617 -0.76604443648966558 1 0 0 1 I I 0 1 1 forward I I I I #
face $-1 $138 $139 $33 $-1 $140 reversed single #
loop $-1 $-1 $141 $55 #
plane-surface $-1 0 0 -13.678222487126188 0 0 1 1 0 0 forward_v I I I I #
coedge $-1 $142 $143 $144 $145 forward $56 $-1 #
face $-1 $146 $147 $34 $-1 $148 reversed single #
loop $-1 $-1 $149 $58 #
plane-surface $-1 -51.380012833539368 0 -12.950093892553728 0 0 1 1 0 0 forward_v I I I I #
coedge $-1 $150 $151 $152 $153 forward $59 $-1 #
face $-1 $154 $155 $35 $-1 $156 reversed single #
loop $-1 $-1 $157 $61 #
plane-surface $-1 51.380012833539368 0 -12.950093892553728 0 0 1 1 0 0 forward_v I I I I #
coedge $-1 $158 $159 $160 $161 reversed $62 $-1 #
face $-1 $162 $163 $36 $-1 $164 reversed single #
loop $-1 $-1 $165 $64 #
plane-surface $-1 -18.235593983788426 9.6324410492343304e-007 65.731113876920006 0 0.86602541151947299 0.49999998660252726 1 0 0 forward_v I I I I #
coedge $-1 $166 $167 $168 $169 reversed $65 $-1 #
face $-1 $-1 $170 $37 $-1 $171 forward single #
loop $-1 $172 $173 $67 #
cone-surface $-1 -22.310455502385935 30.921333037342436 7.371614623201264 0 -0.86602541151947299 -0.49999998660252726 0.5 0 0 1 I I -0.70710678118654746 0.70710678118654746 0.5 forward I I I I #
loop $-1 $-1 $174 $48 #
coedge $-1 $108 $108 $175 $176 reversed $68 $-1 #
face $-1 $-1 $177 $38 $-1 $178 forward single #
loop $-1 $179 $180 $70 #
cone-surface $-1 -18.235593983788426 30.921333037342436 7.371614623201264 0 -0.86602541151947299 -0.49999998660252726 0.5 0 0 1 I I -0.70710678118654746 0.70710678118654746 0.5 forward I I I I #
loop $-1 $-1 $181 $49 #
coedge $-1 $113 $113 $182 $183 reversed $71 $-1 #
face $-1 $-1 $184 $39 $-1 $185 forward single #
loop $-1 $186 $187 $73 #
cone-surface $-1 -14.160732465190918 30.921333037342436 7.371614623201264 0 -0.86602541151947299 -0.49999998660252726 0.5 0 0 1 I I -0.70710678118654746 0.70710678118654746 0.5 forward I I I I #
loop $-1 $-1 $188 $50 #
coedge $-1 $118 $118 $189 $190 reversed $74 $-1 #
face $-1 $191 $192 $40 $-1 $193 reversed single #
loop $-1 $-1 $194 $76 #
plane-surface $-1 -32.707779697415248 -35.948724392478411 5.8091980973391344 0 -0.64278761758704617 0.76604443648966558 1 0 0 forward_v I I I I #
coedge $-1 $195 $196 $197 $198 reversed $77 $-1 #
face $-1 $-1 $199 $41 $-1 $200 forward single #
loop $-1 $201 $202 $79 #
cone-surface $-1 -37.597629556496145 -30.207768687025251 8.4900013175504156 0 0.64278761758704617 -0.76604443648966558 0.5 0 0 1 I I -0.70710678118654746 0.70710678118654746 0.5 forward I I I I #
loop $-1 $-1 $203 $52 #
coedge $-1 $127 $127 $204 $205 reversed $80 $-1 #
face $-1 $-1 $206 $42 $-1 $207 forward single #
loop $-1 $208 $209 $82 #
cone-surface $-1 -32.707779697415248 -30.207768687025251 8.4900013175504156 0 0.64278761758704617 -0.76604443648966558 0.5 0 0 1 I I -0.70710678118654746 0.70710678118654746 0.5 forward I I I I #
loop $-1 $-1 $210 $53 #
coedge $-1 $132 $132 $211 $212 reversed $83 $-1 #
face $-1 $-1 $213 $43 $-1 $214 forward single #
loop $-1 $215 $216 $85 #
cone-surface $-1 -27.817929838334358 -30.207768687025251 8.4900013175504156 0 0.64278761758704617 -0.76604443648966558 0.5 0 0 1 I I -0.70710678118654746 0.70710678118654746 0.5 forward I I I I #
loop $-1 $-1 $217 $54 #
coedge $-1 $137 $137 $218 $219 reversed $86 $-1 #
face $-1 $220 $221 $33 $-1 $222 reversed single #
loop $-1 $-1 $223 $88 #
plane-surface $-1 0 -35.948724392478411 0 0 1 0 0 0 1 forward_v I I I I #
coedge $-1 $224 $225 $226 $227 forward $89 $-1 #
coedge $-1 $228 $91 $229 $230 forward $56 $-1 #
coedge $-1 $91 $228 $231 $232 forward $56 $-1 #
coedge $-1 $233 $234 $91 $145 reversed $235 $-1 #
edge $-1 $236 -35.948724392478411 $237 35.948724392478411 $144 $238 forward 7 unknown #
face $-1 $239 $240 $34 $-1 $241 reversed single #
loop $-1 $-1 $242 $92 #
plane-surface $-1 -43.78972017679888 0 -9.4853087591757532 -1 0 0 0 0 1 forward_v I I I I #
coedge $-1 $243 $244 $245 $246 forward $93 $-1 #
coedge $-1 $247 $95 $248 $249 reversed $59 $-1 #
coedge $-1 $95 $247 $250 $251 reversed $59 $-1 #
coedge $-1 $242 $252 $95 $153 reversed $147 $-1 #
edge $-1 $253 -35.948724392478411 $254 35.948724392478411 $152 $255 forward 7 unknown #
face $-1 $256 $257 $35 $-1 $258 reversed single #
loop $-1 $-1 $259 $96 #
plane-surface $-1 43.78972017679888 0 -9.4853087591757532 1 0 0 0 0 -1 forward_v I I I I #
coedge $-1 $260 $261 $262 $263 reversed $97 $-1 #
coedge $-1 $264 $99 $265 $266 reversed $62 $-1 #
coedge $-1 $99 $264 $267 $268 reversed $62 $-1 #
coedge $-1 $269 $270 $99 $161 forward $271 $-1 #
edge $-1 $272 -35.948724392478411 $273 35.948724392478411 $160 $274 forward 7 unknown #
face $-1 $275 $276 $36 $-1 $277 reversed single #
loop $-1 $-1 $278 $100 #
plane-surface $-1 -25.027029848117607 102.13956712254141 124.70141778709373 1 0 0 0 -0.86602541151947299 -0.49999998660252726 forward_v I I I I #
coedge $-1 $279 $280 $281 $282 reversed $101 $-1 #
coedge $-1 $167 $103 $283 $284 reversed $65 $-1 #
coedge $-1 $103 $166 $279 $285 reversed $65 $-1 #
coedge $-1 $281 $286 $103 $169 forward $276 $-1 #
edge $-1 $287 48.672486406420674 $288 58.884612687819335 $168 $289 forward 7 unknown #
loop $-1 $-1 $175 $104 #
plane-surface $-1 -18.235593983788426 9.6324410492343304e-007 65.731113876920006 0 0.86602541151947299 0.49999998660252726 1 0 0 forward_v I I I I #
loop $-1 $-1 $290 $67 #
coedge $-1 $173 $173 $174 $291 reversed $105 $-1 #
coedge $-1 $174 $174 $173 $291 forward $107 $-1 #
coedge $-1 $175 $175 $108 $176 forward $170 $-1 #
edge $-1 $292 4.7597325791166719e-016 $292 6.2831853071796013 $175 $293 forward 7 unknown #
loop $-1 $-1 $182 $109 #
plane-surface $-1 -18.235593983788426 9.6324410492343304e-007 65.731113876920006 0 0.86602541151947299 0.49999998660252726 1 0 0 forward_v I I I I #
loop $-1 $-1 $294 $70 #
coedge $-1 $180 $180 $181 $295 reversed $110 $-1 #
coedge $-1 $181 $181 $180 $295 forward $112 $-1 #
coedge $-1 $182 $182 $113 $183 forward $177 $-1 #
edge $-1 $296 4.7597325791166719e-016 $296 6.2831853071796013 $182 $297 forward 7 unknown #
loop $-1 $-1 $189 $114 #
plane-surface $-1 -18.235593983788426 9.6324410492343304e-007 65.731113876920006 0 0.86602541151947299 0.49999998660252726 1 0 0 forward_v I I I I #
loop $-1 $-1 $298 $73 #
coedge $-1 $187 $187 $188 $299 reversed $115 $-1 #
coedge $-1 $188 $188 $187 $299 forward $117 $-1 #
coedge $-1 $189 $189 $118 $190 forward $184 $-1 #
edge $-1 $300 4.7597325791166719e-016 $300 6.2831853071796013 $189 $301 forward 7 unknown #
face $-1 $302 $303 $40 $-1 $304 forward single #
loop $-1 $-1 $305 $119 #
plane-surface $-1 -24.55802993228043 -111.759488741433 96.156946975188859 -1 0 0 0 -0.64278761758704617 0.76604443648966558 forward_v I I I I #
coedge $-1 $306 $307 $308 $309 reversed $120 $-1 #
coedge $-1 $196 $122 $310 $311 reversed $77 $-1 #
coedge $-1 $122 $195 $306 $312 reversed $77 $-1 #
coedge $-1 $308 $313 $122 $198 forward $314 $-1 #
edge $-1 $315 34.400251000468245 $316 42.269275390255295 $197 $317 forward 7 unknown #
loop $-1 $-1 $204 $123 #
plane-surface $-1 -32.707779697415248 -35.948724392478411 5.8091980973391344 0 -0.64278761758704617 0.76604443648966558 1 0 0 forward_v I I I I #
loop $-1 $-1 $318 $79 #
coedge $-1 $202 $202 $203 $319 reversed $124 $-1 #
coedge $-1 $203 $203 $202 $319 forward $126 $-1 #
coedge $-1 $204 $204 $127 $205 forward $199 $-1 #
edge $-1 $320 -2.2836403615650844e-015 $320 6.2831853071795978 $204 $321 forward 7 unknown #
loop $-1 $-1 $211 $128 #
plane-surface $-1 -32.707779697415248 -35.948724392478411 5.8091980973391344 0 -0.64278761758704617 0.76604443648966558 1 0 0 forward_v I I I I #
loop $-1 $-1 $322 $82 #
coedge $-1 $209 $209 $210 $323 reversed $129 $-1 #
coedge $-1 $210 $210 $209 $323 forward $131 $-1 #
coedge $-1 $211 $211 $132 $212 forward $206 $-1 #
edge $-1 $324 -2.2836403615650844e-015 $324 6.2831853071795978 $211 $325 forward 7 unknown #
loop $-1 $-1 $218 $133 #
plane-surface $-1 -32.707779697415248 -35.948724392478411 5.8091980973391344 0 -0.64278761758704617 0.76604443648966558 1 0 0 forward_v I I I I #
loop $-1 $-1 $326 $85 #
coedge $-1 $216 $216 $217 $327 reversed $134 $-1 #
coedge $-1 $217 $217 $216 $327 forward $136 $-1 #
coedge $-1 $218 $218 $137 $219 forward $213 $-1 #
edge $-1 $328 -2.2836403615650844e-015 $328 6.2831853071795978 $218 $329 forward 7 unknown #
face $-1 $330 $331 $33 $-1 $332 reversed single #
loop $-1 $-1 $333 $138 #
plane-surface $-1 -58.970305490279856 0 0 1 0 0 0 0 -1 forward_v I I I I #
coedge $-1 $334 $231 $335 $336 forward $139 $-1 #
coedge $-1 $337 $141 $334 $338 forward $89 $-1 #
coedge $-1 $141 $337 $339 $340 forward $89 $-1 #
coedge $-1 $234 $233 $141 $227 reversed $235 $-1 #
edge $-1 $341 -35.948724392478411 $342 35.948724392478411 $226 $343 forward 7 unknown #
coedge $-1 $143 $142 $344 $345 forward $56 $-1 #
coedge $-1 $346 $347 $142 $230 reversed $331 $-1 #
edge $-1 $237 -58.970305490279856 $348 58.970305490279856 $229 $349 forward 7 unknown #
coedge $-1 $223 $350 $143 $232 reversed $139 $-1 #
edge $-1 $351 -58.970305490279856 $236 58.970305490279856 $231 $352 forward 7 unknown #
coedge $-1 $226 $144 $350 $353 forward $235 $-1 #
coedge $-1 $144 $226 $346 $354 reversed $235 $-1 #
loop $-1 $-1 $233 $330 #
vertex $-1 $145 $355 #
vertex $-1 $145 $356 #
straight-curve $-1 58.970305490279856 0 13.678222487126188 0 1 0 I I #
face $-1 $357 $358 $34 $-1 $359 reversed single #
loop $-1 $-1 $360 $146 #
plane-surface $-1 0 -35.948724392478411 0 0 1 0 0 0 1 forward_v I I I I #
coedge $-1 $245 $152 $361 $362 reversed $147 $-1 #
coedge $-1 $363 $149 $360 $364 reversed $93 $-1 #
coedge $-1 $149 $363 $365 $366 reversed $93 $-1 #
coedge $-1 $252 $242 $149 $246 reversed $147 $-1 #
edge $-1 $367 -35.948724392478411 $368 35.948724392478411 $245 $369 forward 7 unknown #
coedge $-1 $151 $150 $370 $371 reversed $59 $-1 #
coedge $-1 $372 $373 $150 $249 forward $374 $-1 #
edge $-1 $375 -33.280299073510172 $254 -18.099713760029196 $248 $376 forward 7 unknown #
coedge $-1 $377 $361 $151 $251 forward $240 $-1 #
edge $-1 $253 18.099713760029196 $378 33.280299073510172 $250 $379 forward 7 unknown #
coedge $-1 $152 $245 $372 $380 reversed $147 $-1 #
vertex $-1 $251 $381 #
vertex $-1 $249 $382 #
straight-curve $-1 -43.78972017679888 0 -6.0205236257977788 0 1 0 I I #
face $-1 $383 $384 $35 $-1 $385 reversed single #
loop $-1 $-1 $267 $154 #
plane-surface $-1 0 -35.948724392478411 0 0 1 0 0 0 1 forward_v I I I I #
coedge $-1 $386 $387 $388 $389 reversed $155 $-1 #
coedge $-1 $390 $157 $391 $392 reversed $97 $-1 #
coedge $-1 $157 $390 $393 $394 reversed $97 $-1 #
coedge $-1 $270 $269 $157 $263 forward $271 $-1 #
edge $-1 $395 -35.948724392478411 $396 35.948724392478411 $262 $397 forward 7 unknown #
coedge $-1 $159 $158 $387 $398 forward $62 $-1 #
coedge $-1 $399 $388 $158 $266 forward $384 $-1 #
edge $-1 $400 18.099713760029196 $272 33.280299073510172 $265 $401 forward 7 unknown #
coedge $-1 $402 $403 $159 $268 forward $257 $-1 #
edge $-1 $273 -33.280299073510172 $404 -18.099713760029196 $267 $405 forward 7 unknown #
coedge $-1 $262 $160 $403 $406 forward $271 $-1 #
coedge $-1 $160 $262 $399 $407 reversed $271 $-1 #
loop $-1 $-1 $160 $383 #
vertex $-1 $407 $408 #
vertex $-1 $406 $409 #
straight-curve $-1 58.970305490279856 0 -6.0205236257977788 0 -1 0 I I #
face $-1 $-1 $410 $36 $-1 $411 forward single #
loop $-1 $-1 $168 $162 #
plane-surface $-1 0 35.948724392478411 0 0 -1 0 0 0 -1 forward_v I I I I #
coedge $-1 $412 $413 $414 $415 reversed $163 $-1 #
coedge $-1 $416 $165 $167 $285 forward $101 $-1 #
coedge $-1 $165 $416 $412 $417 forward $101 $-1 #
coedge $-1 $414 $168 $165 $282 forward $276 $-1 #
edge $-1 $288 2.3263611275650327 $418 15.909232856223394 $281 $419 forward 7 unknown #
coedge $-1 $420 $421 $166 $284 forward $410 $-1 #
edge $-1 $422 -21.0170328157132 $287 -15.121059168792293 $283 $423 forward 7 unknown #
edge $-1 $288 -71.897448784956836 $422 -60.105501175150422 $167 $424 forward 7 unknown #
coedge $-1 $168 $414 $420 $425 reversed $276 $-1 #
vertex $-1 $425 $426 #
vertex $-1 $169 $427 #
straight-curve $-1 -11.444158119459246 35.948724392478411 62.350708893546866 0 0 -1 I I #
coedge $-1 $290 $290 $-1 $428 reversed $172 $-1 #
edge $-1 $429 0 $429 6.2831853071796004 $173 $430 forward 7 unknown #
vertex $-1 $176 $431 #
ellipse-curve $-1 -22.310455502385935 33.00073756901795 8.5721593464268739 0 0.86602541151947299 0.49999998660252726 1 0 0 1 I I #
coedge $-1 $294 $294 $-1 $432 reversed $179 $-1 #
edge $-1 $433 0 $433 6.2831853071796004 $180 $434 forward 7 unknown #
vertex $-1 $183 $435 #
ellipse-curve $-1 -18.235593983788426 33.00073756901795 8.5721593464268739 0 0.86602541151947299 0.49999998660252726 1 0 0 1 I I #
coedge $-1 $298 $298 $-1 $436 reversed $186 $-1 #
edge $-1 $437 0 $437 6.2831853071796004 $187 $438 forward 7 unknown #
vertex $-1 $190 $439 #
ellipse-curve $-1 -14.160732465190918 33.00073756901795 8.5721593464268739 0 0.86602541151947299 0.49999998660252726 1 0 0 1 I I #
face $-1 $-1 $314 $40 $-1 $440 reversed single #
loop $-1 $-1 $441 $191 #
plane-surface $-1 0 0 13.678222487126188 0 0 1 1 0 0 forward_v I I I I #
coedge $-1 $442 $443 $444 $445 reversed $192 $-1 #
coedge $-1 $446 $194 $196 $312 forward $120 $-1 #
coedge $-1 $194 $446 $442 $447 forward $120 $-1 #
coedge $-1 $444 $197 $194 $309 forward $314 $-1 #
edge $-1 $316 -24.503639613842438 $448 -8.2041400835728062 $308 $449 forward 7 unknown #
coedge $-1 $450 $451 $195 $311 forward $303 $-1 #
edge $-1 $452 -29.308957868557741 $315 -19.931019978238091 $310 $453 forward 7 unknown #
edge $-1 $316 0 $452 12.242028586870578 $196 $454 forward 7 unknown #
coedge $-1 $197 $444 $450 $455 reversed $314 $-1 #
loop $-1 $-1 $444 $302 #
vertex $-1 $455 $456 #
vertex $-1 $198 $457 #
straight-curve $-1 -40.857529462550062 -35.948724392478411 48.07847348759443 0 0 -1 I I #
coedge $-1 $318 $318 $-1 $458 reversed $201 $-1 #
edge $-1 $459 0 $459 6.2831853071796004 $202 $460 forward 7 unknown #
vertex $-1 $205 $461 #
ellipse-curve $-1 -37.597629556496145 -31.259755447318586 9.7437102922326595 0 -0.64278761758704617 0.76604443648966558 1 0 0 1 I I #
coedge $-1 $322 $322 $-1 $462 reversed $208 $-1 #
edge $-1 $463 0 $463 6.2831853071796004 $209 $464 forward 7 unknown #
vertex $-1 $212 $465 #
ellipse-curve $-1 -32.707779697415248 -31.259755447318586 9.7437102922326595 0 -0.64278761758704617 0.76604443648966558 1 0 0 1 I I #
coedge $-1 $326 $326 $-1 $466 reversed $215 $-1 #
edge $-1 $467 0 $467 6.2831853071796004 $216 $468 forward 7 unknown #
vertex $-1 $219 $469 #
ellipse-curve $-1 -27.817929838334358 -31.259755447318586 9.7437102922326595 0 -0.64278761758704617 0.76604443648966558 1 0 0 1 I I #
face $-1 $-1 $235 $33 $-1 $470 reversed single #
loop $-1 $-1 $346 $220 #
plane-surface $-1 0 35.948724392478411 0 0 -1 0 0 0 -1 forward_v I I I I #
coedge $-1 $471 $344 $347 $472 forward $221 $-1 #
coedge $-1 $350 $223 $224 $338 reversed $139 $-1 #
coedge $-1 $344 $471 $223 $336 reversed $221 $-1 #
edge $-1 $351 -13.678222487126188 $473 13.678222487126188 $335 $474 forward 7 unknown #
coedge $-1 $225 $224 $471 $475 forward $89 $-1 #
edge $-1 $342 -58.970305490279856 $473 58.970305490279856 $334 $476 forward 7 unknown #
coedge $-1 $347 $346 $225 $340 reversed $331 $-1 #
edge $-1 $477 -58.970305490279856 $341 58.970305490279856 $339 $478 forward 7 unknown #
vertex $-1 $227 $479 #
vertex $-1 $353 $480 #
straight-curve $-1 58.970305490279856 0 -13.678222487126188 0 -1 0 I I #
coedge $-1 $333 $335 $228 $345 reversed $221 $-1 #
edge $-1 $348 -35.948724392478411 $351 35.948724392478411 $344 $481 forward 7 unknown #
coedge $-1 $339 $229 $234 $354 forward $331 $-1 #
coedge $-1 $229 $339 $333 $472 reversed $331 $-1 #
vertex $-1 $230 $482 #
straight-curve $-1 0 35.948724392478411 13.678222487126188 -1 0 0 I I #
coedge $-1 $231 $334 $233 $353 reversed $139 $-1 #
vertex $-1 $345 $483 #
straight-curve $-1 0 -35.948724392478411 13.678222487126188 1 0 0 I I #
edge $-1 $236 -13.678222487126188 $342 13.678222487126188 $233 $484 forward 7 unknown #
edge $-1 $237 -13.678222487126188 $341 13.678222487126188 $234 $485 forward 7 unknown #
point $-1 58.970305490279856 -35.948724392478411 13.678222487126188 #
point $-1 58.970305490279856 35.948724392478411 13.678222487126188 #
face $-1 $-1 $374 $34 $-1 $486 reversed single #
loop $-1 $-1 $487 $239 #
plane-surface $-1 -58.970305490279856 0 0 1 0 0 0 0 -1 forward_v I I I I #
coedge $-1 $361 $377 $243 $364 forward $240 $-1 #
coedge $-1 $250 $360 $242 $362 forward $240 $-1 #
edge $-1 $368 -8.2074395129658519 $253 -1.2778692462099022 $361 $488 forward 7 unknown #
coedge $-1 $244 $243 $487 $489 reversed $93 $-1 #
edge $-1 $490 -33.280299073510172 $368 -18.099713760029196 $360 $491 forward 7 unknown #
coedge $-1 $373 $372 $244 $366 forward $374 $-1 #
edge $-1 $367 18.099713760029196 $492 33.280299073510172 $365 $493 forward 7 unknown #
vertex $-1 $366 $494 #
vertex $-1 $364 $495 #
straight-curve $-1 -43.78972017679888 0 -12.950093892553728 0 -1 0 I I #
coedge $-1 $496 $497 $247 $371 forward $358 $-1 #
edge $-1 $378 -35.948724392478411 $375 35.948724392478411 $370 $498 forward 7 unknown #
coedge $-1 $365 $248 $252 $380 forward $374 $-1 #
coedge $-1 $248 $365 $496 $499 reversed $374 $-1 #
loop $-1 $-1 $365 $357 #
vertex $-1 $499 $500 #
straight-curve $-1 -25.690006416769684 35.948724392478411 -6.0205236257977788 1 0 0 I I #
coedge $-1 $360 $250 $497 $501 forward $240 $-1 #
vertex $-1 $501 $502 #
straight-curve $-1 -25.690006416769684 -35.948724392478411 -6.0205236257977788 -1 0 0 I I #
edge $-1 $254 1.2778692462099022 $367 8.2074395129658519 $372 $503 forward 7 unknown #
point $-1 -43.78972017679888 -35.948724392478411 -6.0205236257977788 #
point $-1 -43.78972017679888 35.948724392478411 -6.0205236257977788 #
face $-1 $-1 $271 $35 $-1 $504 reversed single #
loop $-1 $-1 $265 $256 #
plane-surface $-1 0 35.948724392478411 0 0 -1 0 0 0 -1 forward_v I I I I #
coedge $-1 $505 $259 $390 $506 reversed $155 $-1 #
coedge $-1 $259 $505 $264 $398 reversed $155 $-1 #
coedge $-1 $265 $393 $259 $389 forward $384 $-1 #
edge $-1 $507 -8.2074395129658519 $400 -1.2778692462099022 $388 $508 forward 7 unknown #
coedge $-1 $261 $260 $386 $506 forward $97 $-1 #
coedge $-1 $403 $402 $260 $392 forward $257 $-1 #
edge $-1 $509 18.099713760029196 $395 33.280299073510172 $391 $510 forward 7 unknown #
coedge $-1 $388 $399 $261 $394 forward $384 $-1 #
edge $-1 $396 -33.280299073510172 $507 -18.099713760029196 $393 $511 forward 7 unknown #
vertex $-1 $263 $512 #
vertex $-1 $263 $513 #
straight-curve $-1 58.970305490279856 0 -12.950093892553728 0 1 0 I I #
edge $-1 $400 -35.948724392478411 $404 35.948724392478411 $387 $514 forward 7 unknown #
coedge $-1 $393 $265 $270 $407 forward $384 $-1 #
vertex $-1 $266 $515 #
straight-curve $-1 25.690006416769684 35.948724392478411 -6.0205236257977788 1 0 0 I I #
coedge $-1 $391 $267 $505 $516 forward $257 $-1 #
coedge $-1 $267 $391 $269 $406 reversed $257 $-1 #
vertex $-1 $268 $517 #
straight-curve $-1 25.690006416769684 -35.948724392478411 -6.0205236257977788 -1 0 0 I I #
edge $-1 $273 6.0205236257977788 $395 12.950093892553728 $269 $518 forward 7 unknown #
edge $-1 $272 6.0205236257977788 $396 12.950093892553728 $270 $519 forward 7 unknown #
point $-1 58.970305490279856 35.948724392478411 -6.0205236257977788 #
point $-1 58.970305490279856 -35.948724392478411 -6.0205236257977788 #
loop $-1 $-1 $283 $275 #
plane-surface $-1 0 0 13.678222487126188 0 0 1 1 0 0 forward_v I I I I #
coedge $-1 $413 $278 $280 $417 reversed $163 $-1 #
coedge $-1 $278 $412 $520 $521 reversed $163 $-1 #
coedge $-1 $286 $281 $278 $415 forward $276 $-1 #
edge $-1 $418 -58.884612687819335 $522 -48.672486406420674 $414 $523 forward 7 unknown #
coedge $-1 $280 $279 $421 $524 reversed $101 $-1 #
edge $-1 $525 60.105501175150422 $418 71.897448784956836 $412 $526 forward 7 unknown #
vertex $-1 $282 $527 #
straight-curve $-1 -9.1177969918942132 35.948724392478411 3.4660962057275313 -1 0 0 I I #
coedge $-1 $520 $283 $286 $425 forward $410 $-1 #
coedge $-1 $283 $520 $416 $524 forward $410 $-1 #
vertex $-1 $284 $528 #
straight-curve $-1 -11.444158119459246 51.069783561270704 13.678222487126192 0 1 0 I I #
straight-curve $-1 -11.444158119459246 9.6324410492343304e-007 65.731113876920006 0 -0.49999998660252726 0.86602541151947299 I I #
edge $-1 $287 11.444158119459246 $522 25.027029848117607 $286 $529 forward 7 unknown #
point $-1 -11.444158119459246 35.948724392478411 13.678222487126188 #
point $-1 -11.444158119459246 35.948724392478411 3.4660962057275313 #
edge $-1 $530 1 $530 0 $290 $-1 forward 7 unknown #
vertex $-1 $291 $531 #
ellipse-curve $-1 -22.310455502385935 31.354345743102172 7.6216146165025274 0 0.86602541151947299 0.49999998660252726 1 0 0 1 I I #
point $-1 -21.310455502385935 33.000737569017957 8.5721593464268775 #
edge $-1 $532 1 $532 0 $294 $-1 forward 7 unknown #
vertex $-1 $295 $533 #
ellipse-curve $-1 -18.235593983788426 31.354345743102172 7.6216146165025274 0 0.86602541151947299 0.49999998660252726 1 0 0 1 I I #
point $-1 -17.235593983788426 33.000737569017957 8.5721593464268775 #
edge $-1 $534 1 $534 0 $298 $-1 forward 7 unknown #
vertex $-1 $299 $535 #
ellipse-curve $-1 -14.160732465190918 31.354345743102172 7.6216146165025274 0 0.86602541151947299 0.49999998660252726 1 0 0 1 I I #
point $-1 -13.160732465190918 33.000737569017957 8.5721593464268775 #
plane-surface $-1 0 -35.948724392478411 0 0 1 0 0 0 1 forward_v I I I I #
coedge $-1 $451 $450 $443 $536 forward $303 $-1 #
coedge $-1 $443 $305 $307 $447 reversed $192 $-1 #
coedge $-1 $305 $442 $441 $536 reversed $192 $-1 #
coedge $-1 $313 $308 $305 $445 forward $314 $-1 #
edge $-1 $448 -42.269275390255295 $537 -34.400251000468245 $444 $538 forward 7 unknown #
coedge $-1 $307 $306 $451 $539 reversed $120 $-1 #
edge $-1 $540 -12.242028586870578 $448 0 $442 $541 forward 7 unknown #
vertex $-1 $309 $542 #
straight-curve $-1 -16.353889848707624 -35.948724392478411 5.8091980973391308 1 0 0 I I #
coedge $-1 $441 $310 $313 $455 forward $303 $-1 #
coedge $-1 $310 $441 $446 $539 forward $303 $-1 #
vertex $-1 $311 $543 #
straight-curve $-1 -40.857529462550062 -55.879744370716502 13.678222487126185 0 -1 0 I I #
straight-curve $-1 -40.857529462550062 -35.948724392478411 5.8091980973391344 0 0.76604443648966558 0.64278761758704617 I I #
edge $-1 $315 -40.857529462550062 $537 -24.55802993228043 $313 $544 forward 7 unknown #
point $-1 -40.857529462550062 -35.948724392478411 13.678222487126188 #
point $-1 -40.857529462550062 -35.948724392478411 5.8091980973391344 #
edge $-1 $545 1 $545 0 $318 $-1 forward 7 unknown #
vertex $-1 $319 $546 #
ellipse-curve $-1 -37.597629556496145 -30.529162495818774 8.8730235357952481 0 -0.64278761758704617 0.76604443648966558 1 0 0 1 I I #
point $-1 -36.597629556496145 -31.259755447318586 9.7437102922326559 #
edge $-1 $547 1 $547 0 $322 $-1 forward 7 unknown #
vertex $-1 $323 $548 #
ellipse-curve $-1 -32.707779697415248 -30.529162495818774 8.8730235357952481 0 -0.64278761758704617 0.76604443648966558 1 0 0 1 I I #
point $-1 -31.707779697415248 -31.259755447318586 9.7437102922326559 #
edge $-1 $549 1 $549 0 $326 $-1 forward 7 unknown #
vertex $-1 $327 $550 #
ellipse-curve $-1 -27.817929838334358 -30.529162495818774 8.8730235357952481 0 -0.64278761758704617 0.76604443648966558 1 0 0 1 I I #
point $-1 -26.817929838334358 -31.259755447318586 9.7437102922326559 #
plane-surface $-1 58.970305490279856 0 0 -1 0 0 0 0 1 forward_v I I I I #
coedge $-1 $335 $333 $337 $475 reversed $221 $-1 #
edge $-1 $348 -13.678222487126188 $477 13.678222487126188 $347 $551 forward 7 unknown #
vertex $-1 $475 $552 #
straight-curve $-1 -58.970305490279856 -35.948724392478411 0 0 0 -1 I I #
edge $-1 $473 -35.948724392478411 $477 35.948724392478411 $471 $553 forward 7 unknown #
straight-curve $-1 0 -35.948724392478411 -13.678222487126188 -1 0 0 I I #
vertex $-1 $340 $554 #
straight-curve $-1 0 35.948724392478411 -13.678222487126188 1 0 0 I I #
point $-1 58.970305490279856 35.948724392478411 -13.678222487126188 #
point $-1 58.970305490279856 -35.948724392478411 -13.678222487126188 #
straight-curve $-1 -58.970305490279856 0 13.678222487126188 0 -1 0 I I #
point $-1 -58.970305490279856 35.948724392478411 13.678222487126188 #
point $-1 -58.970305490279856 -35.948724392478411 13.678222487126188 #
straight-curve $-1 58.970305490279856 -35.948724392478411 0 0 0 -1 I I #
straight-curve $-1 58.970305490279856 35.948724392478411 0 0 0 -1 I I #
plane-surface $-1 0 35.948724392478411 0 0 -1 0 0 0 -1 forward_v I I I I #
coedge $-1 $497 $496 $363 $489 forward $358 $-1 #
straight-curve $-1 -43.78972017679888 -35.948724392478411 -4.7426543795878766 0 0 1 I I #
edge $-1 $492 -35.948724392478411 $490 35.948724392478411 $487 $555 forward 7 unknown #
vertex $-1 $364 $556 #
straight-curve $-1 -25.690006416769684 -35.948724392478411 -12.950093892553728 1 0 0 I I #
vertex $-1 $366 $557 #
straight-curve $-1 -25.690006416769684 35.948724392478411 -12.950093892553728 -1 0 0 I I #
point $-1 -43.78972017679888 35.948724392478411 -12.950093892553728 #
point $-1 -43.78972017679888 -35.948724392478411 -12.950093892553728 #
coedge $-1 $487 $370 $373 $499 forward $358 $-1 #
coedge $-1 $370 $487 $377 $501 reversed $358 $-1 #
straight-curve $-1 -58.970305490279856 0 -6.0205236257977788 0 1 0 I I #
edge $-1 $375 6.0205236257977788 $492 12.950093892553728 $373 $558 forward 7 unknown #
point $-1 -58.970305490279856 35.948724392478411 -6.0205236257977788 #
edge $-1 $378 6.0205236257977788 $490 12.950093892553728 $497 $559 forward 7 unknown #
point $-1 -58.970305490279856 -35.948724392478411 -6.0205236257977788 #
straight-curve $-1 -43.78972017679888 35.948724392478411 -4.7426543795878766 0 0 -1 I I #
plane-surface $-1 58.970305490279856 0 0 -1 0 0 0 0 1 forward_v I I I I #
coedge $-1 $387 $386 $402 $516 reversed $155 $-1 #
edge $-1 $509 -35.948724392478411 $507 35.948724392478411 $386 $560 forward 7 unknown #
vertex $-1 $394 $561 #
straight-curve $-1 43.78972017679888 35.948724392478411 -4.7426543795878766 0 0 1 I I #
vertex $-1 $392 $562 #
straight-curve $-1 25.690006416769684 -35.948724392478411 -12.950093892553728 1 0 0 I I #
straight-curve $-1 25.690006416769684 35.948724392478411 -12.950093892553728 -1 0 0 I I #
point $-1 58.970305490279856 -35.948724392478411 -12.950093892553728 #
point $-1 58.970305490279856 35.948724392478411 -12.950093892553728 #
straight-curve $-1 43.78972017679888 0 -6.0205236257977788 0 -1 0 I I #
point $-1 43.78972017679888 35.948724392478411 -6.0205236257977788 #
edge $-1 $404 1.2778692462099022 $509 8.2074395129658519 $402 $563 forward 7 unknown #
point $-1 43.78972017679888 -35.948724392478411 -6.0205236257977788 #
straight-curve $-1 58.970305490279856 -35.948724392478411 0 0 0 -1 I I #
straight-curve $-1 58.970305490279856 35.948724392478411 0 0 0 -1 I I #
coedge $-1 $421 $420 $413 $521 forward $410 $-1 #
edge $-1 $522 15.121059168792293 $525 21.0170328157132 $520 $564 forward 7 unknown #
vertex $-1 $521 $565 #
straight-curve $-1 -25.027029848117607 35.948724392478411 62.350708893546866 0 0 1 I I #
edge $-1 $525 -15.909232856223394 $422 -2.3263611275650327 $421 $566 forward 7 unknown #
vertex $-1 $524 $567 #
straight-curve $-1 -25.027029848117607 9.6324410492343304e-007 65.731113876920006 0 0.49999998660252726 -0.86602541151947299 I I #
point $-1 -25.027029848117607 35.948724392478411 3.4660962057275313 #
point $-1 -11.444158119459246 30.052750745557503 13.678222487126192 #
straight-curve $-1 0 35.948724392478411 13.678222487126188 -1 0 0 I I #
vertex $-1 $428 $568 #
point $-1 -21.310455502385935 31.354345743102172 7.6216146165025274 #
vertex $-1 $432 $569 #
point $-1 -17.235593983788426 31.354345743102172 7.6216146165025274 #
vertex $-1 $436 $570 #
point $-1 -13.160732465190918 31.354345743102172 7.6216146165025274 #
edge $-1 $537 19.931019978238091 $540 29.308957868557741 $441 $571 forward 7 unknown #
vertex $-1 $445 $572 #
straight-curve $-1 -24.55802993228043 -35.948724392478411 48.07847348759443 0 0 1 I I #
edge $-1 $540 8.2041400835728062 $452 24.503639613842438 $451 $573 forward 7 unknown #
vertex $-1 $539 $574 #
straight-curve $-1 -24.55802993228043 -35.948724392478411 5.8091980973391344 0 -0.76604443648966558 -0.64278761758704617 I I #
point $-1 -24.55802993228043 -35.948724392478411 5.8091980973391344 #
point $-1 -40.857529462550062 -26.570786502158761 13.678222487126188 #
straight-curve $-1 0 -35.948724392478411 13.678222487126188 1 0 0 I I #
vertex $-1 $458 $575 #
point $-1 -36.597629556496145 -30.529162495818774 8.8730235357952481 #
vertex $-1 $462 $576 #
point $-1 -31.707779697415248 -30.529162495818774 8.8730235357952481 #
vertex $-1 $466 $577 #
point $-1 -26.817929838334358 -30.529162495818774 8.8730235357952481 #
straight-curve $-1 -58.970305490279856 35.948724392478411 0 0 0 -1 I I #
point $-1 -58.970305490279856 -35.948724392478411 -13.678222487126188 #
straight-curve $-1 -58.970305490279856 0 -13.678222487126188 0 1 0 I I #
point $-1 -58.970305490279856 35.948724392478411 -13.678222487126188 #
straight-curve $-1 -58.970305490279856 0 -12.950093892553728 0 -1 0 I I #
point $-1 -58.970305490279856 -35.948724392478411 -12.950093892553728 #
point $-1 -58.970305490279856 35.948724392478411 -12.950093892553728 #
straight-curve $-1 -58.970305490279856 35.948724392478411 0 0 0 -1 I I #
straight-curve $-1 -58.970305490279856 -35.948724392478411 0 0 0 -1 I I #
straight-curve $-1 43.78972017679888 0 -12.950093892553728 0 1 0 I I #
point $-1 43.78972017679888 35.948724392478411 -12.950093892553728 #
point $-1 43.78972017679888 -35.948724392478411 -12.950093892553728 #
straight-curve $-1 43.78972017679888 -35.948724392478411 -4.7426543795878766 0 0 -1 I I #
straight-curve $-1 -25.027029848117607 51.069783561270704 13.678222487126192 0 -1 0 I I #
point $-1 -25.027029848117607 35.948724392478411 13.678222487126188 #
straight-curve $-1 -9.1177969918942132 30.05275074555751 13.678222487126185 1 0 0 I I #
point $-1 -25.027029848117607 30.052750745557503 13.678222487126192 #
point $-1 -22.310455502385935 30.488320331582699 7.1216146299000007 #
point $-1 -18.235593983788426 30.488320331582699 7.1216146299000007 #
point $-1 -14.160732465190918 30.488320331582699 7.1216146299000007 #
straight-curve $-1 -24.55802993228043 -55.879744370716502 13.678222487126185 0 1 0 I I #
point $-1 -24.55802993228043 -35.948724392478411 13.678222487126188 #
straight-curve $-1 -16.353889848707624 -26.570786502158757 13.678222487126188 -1 0 0 I I #
point $-1 -24.55802993228043 -26.570786502158761 13.678222487126188 #
point $-1 -37.597629556496145 -29.886374878231727 8.1069790993055832 #
point $-1 -32.707779697415248 -29.886374878231727 8.1069790993055832 #
point $-1 -27.817929838334358 -29.886374878231727 8.1069790993055832 #
End-of-ACIS-data 