500 0 5 0           
7 Unknown 11 ACIS 5.0 NT 24 Thu Mar 25 16:28:19 1999 
-1 9.9999999999999995e-007 1e-010 
body $-1 $5 $-1 $6 #
body $-1 $7 $-1 $8 #
body $-1 $9 $-1 $10 #
body $-1 $11 $-1 $12 #
body $-1 $13 $-1 $14 #
lump $-1 $-1 $15 $0 #
transform $-1 1 0 0 0 1 0 0 0 1 74.159978026673173 33.445885289546524 7.8335046435323585 1 rotate no_reflect no_shear #
lump $-1 $-1 $16 $1 #
transform $-1 1 0 0 0 1 0 0 0 1 74.159978026673173 33.445885289546524 7.8335046435323585 1 rotate no_reflect no_shear #
lump $-1 $-1 $17 $2 #
transform $-1 1 0 0 0 1 0 0 0 1 74.159978026673173 33.445885289546524 7.8335046435323585 1 rotate no_reflect no_shear #
lump $-1 $-1 $18 $3 #
transform $-1 1 0 0 0 1 0 0 0 1 74.159978026673173 33.445885289546524 7.8335046435323585 1 rotate no_reflect no_shear #
lump $-1 $-1 $19 $4 #
transform $-1 1 0 0 0 1 0 0 0 1 74.159978026673173 33.445885289546524 7.8335046435323585 1 rotate no_reflect no_shear #
shell $-1 $-1 $-1 $20 $-1 $5 #
shell $-1 $-1 $-1 $21 $-1 $7 #
shell $-1 $-1 $-1 $22 $-1 $9 #
shell $-1 $-1 $-1 $23 $-1 $11 #
shell $-1 $-1 $-1 $24 $-1 $13 #
face $-1 $25 $26 $15 $-1 $27 forward single #
face $-1 $28 $29 $16 $-1 $30 reversed single #
face $-1 $31 $32 $17 $-1 $33 reversed single #
face $-1 $34 $35 $18 $-1 $36 forward single #
face $-1 $37 $38 $19 $-1 $39 forward single #
face $-1 $40 $41 $15 $-1 $42 reversed single #
loop $-1 $-1 $43 $20 #
plane-surface $-1 0 0 7.8335046435323585 0 0 1 1 0 0 forward_v I I I I #
face $-1 $44 $45 $16 $-1 $46 reversed single #
loop $-1 $-1 $47 $21 #
plane-surface $-1 -72.417873723933084 -26.218266979779095 0 0 -1 0 0 0 -1 forward_v I I I I #
face $-1 $48 $49 $17 $-1 $50 reversed single #
loop $-1 $-1 $51 $22 #
plane-surface $-1 -177.19167821563644 0.70805618636036272 109.4233241618501 0 1 0 -0.69465837861970381 0 0.71933979245794832 forward_v I I I I #
face $-1 $52 $53 $18 $-1 $54 forward single #
loop $-1 $55 $56 $23 #
cone-surface $-1 -69.937941874046771 5.0464438718196405 3.6459769172854974 0.69465837861970381 0 -0.71933979245794832 1.0790096886869225 0 1.0419875679295556 1 I I 0 1 1.5 forward I I I I #
face $-1 $57 $58 $19 $-1 $59 forward single #
loop $-1 $60 $61 $24 #
cone-surface $-1 -69.937941874046771 11.554025400008555 3.6459769172854974 0.69465837861970381 0 -0.71933979245794832 1.0790096886869225 0 1.0419875679295556 1 I I 0 1 1.5 forward I I I I #
face $-1 $62 $63 $15 $-1 $64 reversed single #
loop $-1 $-1 $65 $25 #
plane-surface $-1 0 0 -7.8335046435323585 0 0 1 1 0 0 forward_v I I I I #
coedge $-1 $66 $67 $68 $69 forward $26 $-1 #
face $-1 $70 $71 $16 $-1 $72 forward single #
loop $-1 $-1 $73 $28 #
plane-surface $-1 -70.675769421192996 -29.83207613466281 0 -1 0 0 0 0 1 forward_v I I I I #
coedge $-1 $74 $75 $76 $77 forward $29 $-1 #
face $-1 $78 $79 $17 $-1 $80 reversed single #
loop $-1 $-1 $81 $31 #
plane-surface $-1 -74.159978026673144 8.3002346359140944 2.7308777570639222 -0.69465837861970381 0 0.71933979245794832 0.71933979245794832 0 0.69465837861970381 forward_v I I I I #
coedge $-1 $82 $83 $84 $85 reversed $32 $-1 #
face $-1 $-1 $86 $18 $-1 $87 forward single #
loop $-1 $88 $89 $34 #
cone-surface $-1 -67.836874287924829 5.0464438718196405 1.4702577899293763 0.69465837861970381 0 -0.71933979245794832 0.53950484434346124 0 0.5209937839647778 1 I I -0.70710678118654757 0.70710678118654757 0.75 forward I I I I #
loop $-1 $-1 $90 $23 #
coedge $-1 $56 $56 $91 $92 reversed $35 $-1 #
face $-1 $-1 $93 $19 $-1 $94 forward single #
loop $-1 $95 $96 $37 #
cone-surface $-1 -67.836874287924829 11.554025400008555 1.4702577899293763 0.69465837861970381 0 -0.71933979245794832 0.53950484434346124 0 0.5209937839647778 1 I I -0.70710678118654757 0.70710678118654757 0.75 forward I I I I #
loop $-1 $-1 $97 $24 #
coedge $-1 $61 $61 $98 $99 reversed $38 $-1 #
face $-1 $100 $101 $15 $-1 $102 reversed single #
loop $-1 $-1 $103 $40 #
plane-surface $-1 0 -33.445885289546524 0 0 1 0 0 0 1 forward_v I I I I #
coedge $-1 $104 $105 $106 $107 forward $41 $-1 #
coedge $-1 $108 $43 $109 $110 forward $26 $-1 #
coedge $-1 $43 $108 $111 $112 forward $26 $-1 #
coedge $-1 $113 $114 $43 $69 reversed $115 $-1 #
edge $-1 $116 -33.445885289546524 $117 33.445885289546524 $68 $118 forward 7 unknown #
face $-1 $119 $120 $16 $-1 $121 reversed single #
loop $-1 $-1 $122 $44 #
plane-surface $-1 0 0 7.8335046435323585 0 0 1 1 0 0 forward_v I I I I #
coedge $-1 $123 $124 $125 $126 reversed $45 $-1 #
coedge $-1 $127 $47 $128 $129 reversed $29 $-1 #
coedge $-1 $47 $127 $130 $131 reversed $29 $-1 #
coedge $-1 $124 $123 $47 $77 reversed $45 $-1 #
edge $-1 $132 -7.8335046435323585 $133 7.8335046435323585 $76 $134 forward 7 unknown #
face $-1 $135 $136 $17 $-1 $137 reversed single #
loop $-1 $-1 $138 $48 #
plane-surface $-1 -177.19167821563644 15.892413085467826 109.4233241618501 0 -1 0 0.69465837861970381 0 -0.71933979245794832 forward_v I I I I #
coedge $-1 $139 $140 $141 $142 reversed $49 $-1 #
coedge $-1 $83 $51 $143 $144 reversed $32 $-1 #
coedge $-1 $51 $82 $139 $145 reversed $32 $-1 #
coedge $-1 $141 $146 $51 $85 forward $147 $-1 #
edge $-1 $148 14.435861081145049 $149 19.719785782083591 $84 $150 forward 7 unknown #
loop $-1 $-1 $91 $52 #
plane-surface $-1 -74.159978026673144 8.3002346359140944 2.7308777570639222 -0.69465837861970381 0 0.71933979245794832 0.71933979245794832 0 0.69465837861970381 forward_v I I I I #
loop $-1 $-1 $151 $34 #
coedge $-1 $89 $89 $90 $152 reversed $53 $-1 #
coedge $-1 $90 $90 $89 $152 forward $55 $-1 #
coedge $-1 $91 $91 $56 $92 forward $86 $-1 #
edge $-1 $153 0 $153 6.2831853071796004 $91 $154 forward 7 unknown #
loop $-1 $-1 $98 $57 #
plane-surface $-1 -74.159978026673144 8.3002346359140944 2.7308777570639222 -0.69465837861970381 0 0.71933979245794832 0.71933979245794832 0 0.69465837861970381 forward_v I I I I #
loop $-1 $-1 $155 $37 #
coedge $-1 $96 $96 $97 $156 reversed $58 $-1 #
coedge $-1 $97 $97 $96 $156 forward $60 $-1 #
coedge $-1 $98 $98 $61 $99 forward $93 $-1 #
edge $-1 $157 0 $157 6.2831853071796004 $98 $158 forward 7 unknown #
face $-1 $159 $160 $15 $-1 $161 reversed single #
loop $-1 $-1 $162 $62 #
plane-surface $-1 -74.159978026673173 0 0 1 0 0 0 0 -1 forward_v I I I I #
coedge $-1 $163 $111 $164 $165 forward $63 $-1 #
coedge $-1 $166 $65 $163 $167 forward $41 $-1 #
coedge $-1 $65 $166 $168 $169 forward $41 $-1 #
coedge $-1 $114 $113 $65 $107 reversed $115 $-1 #
edge $-1 $170 -33.445885289546524 $171 33.445885289546524 $106 $172 forward 7 unknown #
coedge $-1 $67 $66 $173 $174 forward $26 $-1 #
coedge $-1 $175 $176 $66 $110 reversed $160 $-1 #
edge $-1 $117 -74.159978026673173 $177 74.159978026673173 $109 $178 forward 7 unknown #
coedge $-1 $103 $179 $67 $112 reversed $63 $-1 #
edge $-1 $180 -74.159978026673173 $116 74.159978026673173 $111 $181 forward 7 unknown #
coedge $-1 $106 $68 $179 $182 forward $115 $-1 #
coedge $-1 $68 $106 $175 $183 reversed $115 $-1 #
loop $-1 $-1 $113 $159 #
vertex $-1 $69 $184 #
vertex $-1 $69 $185 #
straight-curve $-1 74.159978026673173 0 7.8335046435323585 0 1 0 I I #
face $-1 $186 $187 $16 $-1 $188 reversed single #
loop $-1 $-1 $189 $70 #
plane-surface $-1 -74.159978026673173 0 0 1 0 0 0 0 -1 forward_v I I I I #
coedge $-1 $130 $190 $124 $191 forward $71 $-1 #
coedge $-1 $76 $73 $192 $193 reversed $45 $-1 #
coedge $-1 $73 $76 $122 $191 reversed $45 $-1 #
coedge $-1 $194 $195 $73 $126 forward $196 $-1 #
edge $-1 $197 -7.8335046435323585 $198 7.8335046435323585 $125 $199 forward 7 unknown #
coedge $-1 $75 $74 $189 $200 reversed $29 $-1 #
coedge $-1 $192 $201 $74 $129 forward $187 $-1 #
edge $-1 $202 -37.951041164706631 $133 -34.466832559226454 $128 $203 forward 7 unknown #
coedge $-1 $204 $122 $75 $131 forward $71 $-1 #
edge $-1 $132 34.466832559226454 $205 37.951041164706631 $130 $206 forward 7 unknown #
vertex $-1 $131 $207 #
vertex $-1 $129 $208 #
straight-curve $-1 -70.675769421192996 -26.218266979779095 0 0 0 -1 I I #
face $-1 $-1 $147 $17 $-1 $209 forward single #
loop $-1 $-1 $210 $78 #
plane-surface $-1 -74.159978026673173 0 0 1 0 0 0 0 -1 forward_v I I I I #
coedge $-1 $211 $212 $213 $214 reversed $79 $-1 #
coedge $-1 $215 $81 $83 $145 forward $49 $-1 #
coedge $-1 $81 $215 $211 $216 forward $49 $-1 #
coedge $-1 $213 $84 $81 $142 forward $147 $-1 #
edge $-1 $149 -3.4420611315966845 $217 11.742295767510779 $141 $218 forward 7 unknown #
coedge $-1 $219 $220 $82 $144 forward $136 $-1 #
edge $-1 $221 -51.980784323861158 $148 -46.878157437392694 $143 $222 forward 7 unknown #
edge $-1 $149 -7.3455198173920078 $221 3.9571264572537829e-014 $83 $223 forward 7 unknown #
coedge $-1 $84 $213 $219 $224 forward $147 $-1 #
loop $-1 $-1 $213 $135 #
vertex $-1 $144 $225 #
vertex $-1 $85 $226 #
straight-curve $-1 -88.595839107818222 0.70805618636036272 7.8335046435323576 1 0 0 I I #
coedge $-1 $151 $151 $-1 $227 reversed $88 $-1 #
edge $-1 $228 0 $228 6.2831853071796004 $89 $229 forward 7 unknown #
vertex $-1 $92 $230 #
ellipse-curve $-1 -71.518015676203902 5.0464438718196405 5.2821912002981239 -0.69465837861970381 0 0.71933979245794832 1.0790096886869225 0 1.0419875679295556 1 I I #
coedge $-1 $155 $155 $-1 $231 reversed $95 $-1 #
edge $-1 $232 0 $232 6.2831853071796004 $96 $233 forward 7 unknown #
vertex $-1 $99 $234 #
ellipse-curve $-1 -71.518015676203902 11.554025400008555 5.2821912002981239 -0.69465837861970381 0 0.71933979245794832 1.0790096886869225 0 1.0419875679295556 1 I I #
face $-1 $-1 $115 $15 $-1 $235 reversed single #
loop $-1 $-1 $175 $100 #
plane-surface $-1 0 33.445885289546524 0 0 -1 0 0 0 -1 forward_v I I I I #
coedge $-1 $236 $173 $176 $237 forward $101 $-1 #
coedge $-1 $179 $103 $104 $167 reversed $63 $-1 #
coedge $-1 $173 $236 $103 $165 reversed $101 $-1 #
edge $-1 $180 -7.8335046435323585 $238 7.8335046435323585 $164 $239 forward 7 unknown #
coedge $-1 $105 $104 $236 $240 forward $41 $-1 #
edge $-1 $171 -74.159978026673173 $238 74.159978026673173 $163 $241 forward 7 unknown #
coedge $-1 $176 $175 $105 $169 reversed $160 $-1 #
edge $-1 $242 -74.159978026673173 $170 74.159978026673173 $168 $243 forward 7 unknown #
vertex $-1 $107 $244 #
vertex $-1 $182 $245 #
straight-curve $-1 74.159978026673173 0 -7.8335046435323585 0 -1 0 I I #
coedge $-1 $162 $164 $108 $174 reversed $101 $-1 #
edge $-1 $177 -33.445885289546524 $180 33.445885289546524 $173 $246 forward 7 unknown #
coedge $-1 $168 $109 $114 $183 forward $160 $-1 #
coedge $-1 $109 $168 $162 $237 reversed $160 $-1 #
vertex $-1 $110 $247 #
straight-curve $-1 0 33.445885289546524 7.8335046435323585 -1 0 0 I I #
coedge $-1 $111 $163 $113 $182 reversed $63 $-1 #
vertex $-1 $174 $248 #
straight-curve $-1 0 -33.445885289546524 7.8335046435323585 1 0 0 I I #
edge $-1 $116 -7.8335046435323585 $171 7.8335046435323585 $113 $249 forward 7 unknown #
edge $-1 $117 -7.8335046435323585 $170 7.8335046435323585 $114 $250 forward 7 unknown #
point $-1 74.159978026673173 -33.445885289546524 7.8335046435323585 #
point $-1 74.159978026673173 33.445885289546524 7.8335046435323585 #
face $-1 $-1 $196 $16 $-1 $251 reversed single #
loop $-1 $-1 $192 $119 #
plane-surface $-1 0 0 -7.8335046435323585 0 0 1 1 0 0 forward_v I I I I #
coedge $-1 $252 $253 $127 $200 forward $120 $-1 #
coedge $-1 $122 $204 $194 $254 forward $71 $-1 #
edge $-1 $198 -18.529847222215118 $132 -11.30222891244769 $122 $255 forward 7 unknown #
coedge $-1 $256 $128 $123 $193 forward $187 $-1 #
edge $-1 $133 11.30222891244769 $197 18.529847222215118 $192 $257 forward 7 unknown #
coedge $-1 $258 $125 $190 $254 reversed $196 $-1 #
coedge $-1 $125 $258 $256 $259 reversed $196 $-1 #
loop $-1 $-1 $125 $186 #
vertex $-1 $259 $260 #
vertex $-1 $126 $261 #
straight-curve $-1 -70.675769421192996 -33.445885289546524 0 0 0 1 I I #
edge $-1 $205 -7.8335046435323585 $202 7.8335046435323585 $189 $262 forward 7 unknown #
coedge $-1 $128 $256 $252 $263 forward $187 $-1 #
vertex $-1 $129 $264 #
straight-curve $-1 -36.208936861966542 -26.218266979779095 -7.8335046435323585 1 0 0 I I #
coedge $-1 $190 $130 $253 $265 forward $71 $-1 #
vertex $-1 $265 $266 #
straight-curve $-1 -36.208936861966542 -26.218266979779095 7.8335046435323585 -1 0 0 I I #
point $-1 -70.675769421192996 -26.218266979779095 7.8335046435323585 #
point $-1 -70.675769421192996 -26.218266979779095 -7.8335046435323585 #
plane-surface $-1 0 0 7.8335046435323585 0 0 1 1 0 0 forward_v I I I I #
coedge $-1 $220 $219 $212 $267 forward $136 $-1 #
coedge $-1 $212 $138 $140 $216 reversed $79 $-1 #
coedge $-1 $138 $211 $210 $267 reversed $79 $-1 #
coedge $-1 $146 $141 $138 $214 forward $147 $-1 #
edge $-1 $217 -19.719785782083591 $268 -14.435861081145049 $213 $269 forward 7 unknown #
coedge $-1 $140 $139 $220 $270 reversed $49 $-1 #
edge $-1 $271 -3.9571264572537829e-014 $217 7.3455198173920078 $211 $272 forward 7 unknown #
vertex $-1 $142 $273 #
straight-curve $-1 -68.876053325734631 4.1501173179570472 7.8335046435323594 0 1 0 I I #
coedge $-1 $210 $143 $146 $224 reversed $136 $-1 #
coedge $-1 $143 $210 $215 $270 forward $136 $-1 #
vertex $-1 $144 $274 #
straight-curve $-1 -74.159978026673173 0.70805618636036272 54.711662080925052 0 0 1 I I #
straight-curve $-1 -74.159978026673144 0.70805618636036272 2.7308777570639222 -0.71933979245794832 0 -0.69465837861970381 I I #
edge $-1 $268 -15.892413085467826 $148 -0.70805618636036272 $219 $275 forward 7 unknown #
point $-1 -74.159978026673173 0.70805618636036272 7.8335046435323585 #
point $-1 -68.876053325734631 0.70805618636036272 7.8335046435323585 #
edge $-1 $276 1 $276 0 $151 $-1 forward 7 unknown #
vertex $-1 $152 $277 #
ellipse-curve $-1 -68.357868071889612 5.0464438718196405 2.0097626342728376 -0.69465837861970381 0 0.71933979245794832 1.0790096886869225 0 1.0419875679295556 1 I I #
point $-1 -70.439005987517007 5.0464438718196405 6.3241787682277124 #
edge $-1 $278 1 $278 0 $155 $-1 forward 7 unknown #
vertex $-1 $156 $279 #
ellipse-curve $-1 -68.357868071889612 11.554025400008555 2.0097626342728376 -0.69465837861970381 0 0.71933979245794832 1.0790096886869225 0 1.0419875679295556 1 I I #
point $-1 -70.439005987517007 11.554025400008555 6.3241787682277124 #
plane-surface $-1 74.159978026673173 0 0 -1 0 0 0 0 1 forward_v I I I I #
coedge $-1 $164 $162 $166 $240 reversed $101 $-1 #
edge $-1 $177 -7.8335046435323585 $242 7.8335046435323585 $176 $280 forward 7 unknown #
vertex $-1 $240 $281 #
straight-curve $-1 -74.159978026673173 -33.445885289546524 0 0 0 -1 I I #
edge $-1 $238 -33.445885289546524 $242 33.445885289546524 $236 $282 forward 7 unknown #
straight-curve $-1 0 -33.445885289546524 -7.8335046435323585 -1 0 0 I I #
vertex $-1 $169 $283 #
straight-curve $-1 0 33.445885289546524 -7.8335046435323585 1 0 0 I I #
point $-1 74.159978026673173 33.445885289546524 -7.8335046435323585 #
point $-1 74.159978026673173 -33.445885289546524 -7.8335046435323585 #
straight-curve $-1 -74.159978026673173 0 7.8335046435323585 0 -1 0 I I #
point $-1 -74.159978026673173 33.445885289546524 7.8335046435323585 #
point $-1 -74.159978026673173 -33.445885289546524 7.8335046435323585 #
straight-curve $-1 74.159978026673173 -33.445885289546524 0 0 0 -1 I I #
straight-curve $-1 74.159978026673173 33.445885289546524 0 0 0 -1 I I #
plane-surface $-1 0 -33.445885289546524 0 0 1 0 0 0 1 forward_v I I I I #
coedge $-1 $284 $189 $201 $263 reversed $120 $-1 #
coedge $-1 $189 $284 $204 $265 reversed $120 $-1 #
edge $-1 $285 -74.159978026673173 $198 -70.675769421192996 $194 $286 forward 7 unknown #
straight-curve $-1 -70.675769421192996 -14.916038067331405 7.8335046435323585 0 1 0 I I #
coedge $-1 $201 $192 $195 $259 forward $187 $-1 #
straight-curve $-1 -70.675769421192996 -14.916038067331405 -7.8335046435323585 0 -1 0 I I #
coedge $-1 $195 $194 $284 $287 forward $196 $-1 #
edge $-1 $197 70.675769421192996 $288 74.159978026673173 $195 $289 forward 7 unknown #
point $-1 -70.675769421192996 -33.445885289546524 -7.8335046435323585 #
point $-1 -70.675769421192996 -33.445885289546524 7.8335046435323585 #
straight-curve $-1 -74.159978026673173 -26.218266979779095 0 0 0 -1 I I #
edge $-1 $288 -33.445885289546524 $202 -26.218266979779095 $252 $290 forward 7 unknown #
point $-1 -74.159978026673173 -26.218266979779095 -7.8335046435323585 #
edge $-1 $205 26.218266979779095 $285 33.445885289546524 $253 $291 forward 7 unknown #
point $-1 -74.159978026673173 -26.218266979779095 7.8335046435323585 #
edge $-1 $268 46.878157437392694 $271 51.980784323861158 $210 $292 forward 7 unknown #
vertex $-1 $224 $293 #
straight-curve $-1 -88.595839107818222 15.892413085467826 7.8335046435323576 -1 0 0 I I #
edge $-1 $271 -11.742295767510779 $221 3.4420611315966845 $220 $294 forward 7 unknown #
vertex $-1 $270 $295 #
straight-curve $-1 -74.159978026673144 15.892413085467826 2.7308777570639222 0.71933979245794832 0 0.69465837861970381 I I #
point $-1 -68.876053325734631 15.892413085467826 7.8335046435323585 #
point $-1 -74.159978026673173 0.70805618636036272 2.7308777570638947 #
straight-curve $-1 -74.159978026673173 0 7.8335046435323585 0 -1 0 I I #
vertex $-1 $227 $296 #
point $-1 -67.278858383202689 5.0464438718196405 3.0517502022023932 #
vertex $-1 $231 $297 #
point $-1 -67.278858383202689 11.554025400008555 3.0517502022023932 #
straight-curve $-1 -74.159978026673173 33.445885289546524 0 0 0 -1 I I #
point $-1 -74.159978026673173 -33.445885289546524 -7.8335046435323585 #
straight-curve $-1 -74.159978026673173 0 -7.8335046435323585 0 1 0 I I #
point $-1 -74.159978026673173 33.445885289546524 -7.8335046435323585 #
coedge $-1 $253 $252 $258 $287 reversed $120 $-1 #
vertex $-1 $265 $298 #
straight-curve $-1 0 -33.445885289546524 7.8335046435323585 1 0 0 I I #
edge $-1 $285 -7.8335046435323585 $288 7.8335046435323585 $284 $299 forward 7 unknown #
vertex $-1 $263 $300 #
straight-curve $-1 0 -33.445885289546524 -7.8335046435323585 -1 0 0 I I #
straight-curve $-1 -74.159978026673173 0 -7.8335046435323585 0 1 0 I I #
straight-curve $-1 -74.159978026673173 0 7.8335046435323585 0 -1 0 I I #
straight-curve $-1 -74.159978026673173 15.892413085467826 54.711662080925052 0 0 -1 I I #
point $-1 -74.159978026673173 15.892413085467826 7.8335046435323585 #
straight-curve $-1 -74.159978026673173 4.1501173179570472 2.7308777570638965 0 -1 0 I I #
point $-1 -74.159978026673173 15.892413085467826 2.7308777570638947 #
point $-1 -67.315880503960045 5.0464438718196405 0.93075294558591504 #
point $-1 -67.315880503960045 11.554025400008555 0.93075294558591504 #
point $-1 -74.159978026673173 -33.445885289546524 7.8335046435323585 #
straight-curve $-1 -74.159978026673173 -33.445885289546524 0 0 0 -1 I I #
point $-1 -74.159978026673173 -33.445885289546524 -7.8335046435323585 #
End-of-ACIS-data 