500 0 11 0           
7 Unknown 11 ACIS 5.0 NT 24 Fri Mar 26 17:22:18 1999 
-1 9.9999999999999995e-007 1e-010 
body $-1 $11 $-1 $12 #
body $-1 $13 $-1 $14 #
body $-1 $15 $-1 $16 #
body $-1 $17 $-1 $18 #
body $-1 $19 $-1 $20 #
body $-1 $21 $-1 $22 #
body $-1 $23 $-1 $24 #
body $-1 $25 $-1 $26 #
body $-1 $27 $-1 $28 #
body $-1 $29 $-1 $30 #
body $-1 $31 $-1 $32 #
lump $-1 $-1 $33 $0 #
transform $-1 1 0 0 0 1 0 0 0 1 40.928983428449357 23.150788041664576 10.426156317393719 1 rotate no_reflect no_shear #
lump $-1 $-1 $34 $1 #
transform $-1 1 0 0 0 1 0 0 0 1 40.928983428449357 23.150788041664576 10.426156317393719 1 rotate no_reflect no_shear #
lump $-1 $-1 $35 $2 #
transform $-1 1 0 0 0 1 0 0 0 1 40.928983428449357 23.150788041664576 10.426156317393719 1 rotate no_reflect no_shear #
lump $-1 $-1 $36 $3 #
transform $-1 1 0 0 0 1 0 0 0 1 40.928983428449357 23.150788041664576 10.426156317393719 1 rotate no_reflect no_shear #
lump $-1 $-1 $37 $4 #
transform $-1 1 0 0 0 1 0 0 0 1 40.928983428449357 23.150788041664576 10.426156317393719 1 rotate no_reflect no_shear #
lump $-1 $-1 $38 $5 #
transform $-1 1 0 0 0 1 0 0 0 1 40.928983428449357 23.150788041664576 10.426156317393719 1 rotate no_reflect no_shear #
lump $-1 $-1 $39 $6 #
transform $-1 1 0 0 0 1 0 0 0 1 40.928983428449357 23.150788041664576 10.426156317393719 1 rotate no_reflect no_shear #
lump $-1 $-1 $40 $7 #
transform $-1 1 0 0 0 1 0 0 0 1 40.928983428449357 23.150788041664576 10.426156317393719 1 rotate no_reflect no_shear #
lump $-1 $-1 $41 $8 #
transform $-1 1 0 0 0 1 0 0 0 1 40.928983428449357 23.150788041664576 10.426156317393719 1 rotate no_reflect no_shear #
lump $-1 $-1 $42 $9 #
transform $-1 1 0 0 0 1 0 0 0 1 40.928983428449357 23.150788041664576 10.426156317393719 1 rotate no_reflect no_shear #
lump $-1 $-1 $43 $10 #
transform $-1 1 0 0 0 1 0 0 0 1 40.928983428449357 23.150788041664576 10.426156317393719 1 rotate no_reflect no_shear #
shell $-1 $-1 $-1 $44 $-1 $11 #
shell $-1 $-1 $-1 $45 $-1 $13 #
shell $-1 $-1 $-1 $46 $-1 $15 #
shell $-1 $-1 $-1 $47 $-1 $17 #
shell $-1 $-1 $-1 $48 $-1 $19 #
shell $-1 $-1 $-1 $49 $-1 $21 #
shell $-1 $-1 $-1 $50 $-1 $23 #
shell $-1 $-1 $-1 $51 $-1 $25 #
shell $-1 $-1 $-1 $52 $-1 $27 #
shell $-1 $-1 $-1 $53 $-1 $29 #
shell $-1 $-1 $-1 $54 $-1 $31 #
face $-1 $55 $56 $33 $-1 $57 forward single #
face $-1 $58 $59 $34 $-1 $60 forward single #
face $-1 $61 $62 $35 $-1 $63 forward single #
face $-1 $64 $65 $36 $-1 $66 reversed single #
face $-1 $67 $68 $37 $-1 $69 forward single #
face $-1 $70 $71 $38 $-1 $72 forward single #
face $-1 $73 $74 $39 $-1 $75 forward single #
face $-1 $76 $77 $40 $-1 $78 reversed single #
face $-1 $79 $80 $41 $-1 $81 forward single #
face $-1 $82 $83 $42 $-1 $84 forward single #
face $-1 $85 $86 $43 $-1 $87 forward single #
face $-1 $88 $89 $33 $-1 $90 reversed single #
loop $-1 $-1 $91 $44 #
plane-surface $-1 0 0 10.426156317393719 0 0 1 1 0 0 forward_v I I I I #
face $-1 $92 $93 $34 $-1 $94 reversed single #
loop $-1 $-1 $95 $45 #
plane-surface $-1 0 -23.150788041664576 0 0 1 0 0 0 1 forward_v I I I I #
face $-1 $96 $97 $35 $-1 $98 reversed single #
loop $-1 $-1 $99 $46 #
plane-surface $-1 0 16.529302164602292 -7.4261563173937191 0 0 1 1 0 0 forward_v I I I I #
face $-1 $100 $101 $36 $-1 $102 reversed single #
loop $-1 $-1 $103 $47 #
plane-surface $-1 26.820823044881735 -5.6027695313899466 120.95880787376197 0 -1 0 -0.61566148304635926 0 -0.78801074757464917 forward_v I I I I #
face $-1 $104 $105 $37 $-1 $106 forward single #
loop $-1 $107 $108 $48 #
cone-surface $-1 37.825054090401949 -10.468630849474048 7.8475992557287269 -0.61566148304635926 0 -0.78801074757464917 0.39400537378732459 0 -0.30783074152317963 1 I I 0 1 0.5 forward I I I I #
face $-1 $109 $110 $38 $-1 $111 forward single #
loop $-1 $112 $113 $49 #
cone-surface $-1 37.825054090401949 -8.6439328551925101 7.8475992557287269 -0.61566148304635926 0 -0.78801074757464917 0.39400537378732459 0 -0.30783074152317963 1 I I 0 1 0.5 forward I I I I #
face $-1 $114 $115 $39 $-1 $116 forward single #
loop $-1 $117 $118 $50 #
cone-surface $-1 37.825054090401949 -6.8192348609109708 7.8475992557287269 -0.61566148304635926 0 -0.78801074757464917 0.39400537378732459 0 -0.30783074152317963 1 I I 0 1 0.5 forward I I I I #
face $-1 $119 $120 $40 $-1 $121 reversed single #
loop $-1 $-1 $122 $51 #
plane-surface $-1 -91.325780702727343 -11.685096178995074 70.562010599483983 0 1 0 -0.61566148304635926 0 0.78801074757464917 forward_v I I I I #
face $-1 $123 $124 $41 $-1 $125 forward single #
loop $-1 $126 $127 $52 #
cone-surface $-1 -37.825054090401956 -10.468630849474048 7.8475992557287197 0.61566148304635926 0 -0.78801074757464917 0.39400537378732459 0 0.30783074152317963 1 I I 0 1 0.5 forward I I I I #
face $-1 $128 $129 $42 $-1 $130 forward single #
loop $-1 $131 $132 $53 #
cone-surface $-1 -37.825054090401956 -8.6439328551925101 7.8475992557287197 0.61566148304635926 0 -0.78801074757464917 0.39400537378732459 0 0.30783074152317963 1 I I 0 1 0.5 forward I I I I #
face $-1 $133 $134 $43 $-1 $135 forward single #
loop $-1 $136 $137 $54 #
cone-surface $-1 -37.825054090401956 -6.8192348609109708 7.8475992557287197 0.61566148304635926 0 -0.78801074757464917 0.39400537378732459 0 0.30783074152317963 1 I I 0 1 0.5 forward I I I I #
face $-1 $138 $139 $33 $-1 $140 reversed single #
loop $-1 $-1 $141 $55 #
plane-surface $-1 0 0 -10.426156317393719 0 0 1 1 0 0 forward_v I I I I #
coedge $-1 $142 $143 $144 $145 forward $56 $-1 #
face $-1 $146 $147 $34 $-1 $148 forward single #
loop $-1 $-1 $149 $58 #
plane-surface $-1 -40.928983428449357 0 0 1 0 0 0 0 -1 forward_v I I I I #
coedge $-1 $150 $151 $152 $153 forward $59 $-1 #
face $-1 $154 $155 $35 $-1 $156 reversed single #
loop $-1 $-1 $157 $61 #
plane-surface $-1 0 9.9078162875400082 -8.9261563173937191 0 1 0 0 0 1 forward_v I I I I #
coedge $-1 $158 $159 $160 $161 reversed $62 $-1 #
face $-1 $162 $163 $36 $-1 $164 reversed single #
loop $-1 $-1 $165 $64 #
plane-surface $-1 -23.575974229396252 -8.6439328551925101 56.453850215916361 0.61566148304635926 0 0.78801074757464917 0.78801074757464917 0 -0.61566148304635926 forward_v I I I I #
coedge $-1 $166 $167 $168 $169 reversed $65 $-1 #
face $-1 $-1 $170 $37 $-1 $171 forward single #
loop $-1 $172 $173 $67 #
cone-surface $-1 37.363307978117177 -10.468630849474048 7.25659119504774 -0.61566148304635926 0 -0.78801074757464917 0.19700268689366229 0 -0.15391537076158981 1 I I -0.70710678118654746 0.70710678118654746 0.25 forward I I I I #
loop $-1 $-1 $174 $48 #
coedge $-1 $108 $108 $175 $176 reversed $68 $-1 #
face $-1 $-1 $177 $38 $-1 $178 forward single #
loop $-1 $179 $180 $70 #
cone-surface $-1 37.363307978117177 -8.6439328551925101 7.25659119504774 -0.61566148304635926 0 -0.78801074757464917 0.19700268689366229 0 -0.15391537076158981 1 I I -0.70710678118654746 0.70710678118654746 0.25 forward I I I I #
loop $-1 $-1 $181 $49 #
coedge $-1 $113 $113 $182 $183 reversed $71 $-1 #
face $-1 $-1 $184 $39 $-1 $185 forward single #
loop $-1 $186 $187 $73 #
cone-surface $-1 37.363307978117177 -6.8192348609109708 7.25659119504774 -0.61566148304635926 0 -0.78801074757464917 0.19700268689366229 0 -0.15391537076158981 1 I I -0.70710678118654746 0.70710678118654746 0.25 forward I I I I #
loop $-1 $-1 $188 $50 #
coedge $-1 $118 $118 $189 $190 reversed $74 $-1 #
face $-1 $191 $192 $40 $-1 $193 reversed single #
loop $-1 $-1 $194 $76 #
plane-surface $-1 -40.928983428449357 -8.6439328551925101 6.0570529416383749 -0.61566148304635926 0 0.78801074757464917 0.78801074757464917 0 0.61566148304635926 forward_v I I I I #
coedge $-1 $195 $196 $197 $198 reversed $77 $-1 #
face $-1 $-1 $199 $41 $-1 $200 forward single #
loop $-1 $201 $202 $79 #
cone-surface $-1 -37.363307978117184 -10.468630849474048 7.2565911950477329 0.61566148304635926 0 -0.78801074757464917 0.19700268689366229 0 0.15391537076158981 1 I I -0.70710678118654746 0.70710678118654746 0.25 forward I I I I #
loop $-1 $-1 $203 $52 #
coedge $-1 $127 $127 $204 $205 reversed $80 $-1 #
face $-1 $-1 $206 $42 $-1 $207 forward single #
loop $-1 $208 $209 $82 #
cone-surface $-1 -37.363307978117184 -8.6439328551925101 7.2565911950477329 0.61566148304635926 0 -0.78801074757464917 0.19700268689366229 0 0.15391537076158981 1 I I -0.70710678118654746 0.70710678118654746 0.25 forward I I I I #
loop $-1 $-1 $210 $53 #
coedge $-1 $132 $132 $211 $212 reversed $83 $-1 #
face $-1 $-1 $213 $43 $-1 $214 forward single #
loop $-1 $215 $216 $85 #
cone-surface $-1 -37.363307978117184 -6.8192348609109708 7.2565911950477329 0.61566148304635926 0 -0.78801074757464917 0.19700268689366229 0 0.15391537076158981 1 I I -0.70710678118654746 0.70710678118654746 0.25 forward I I I I #
loop $-1 $-1 $217 $54 #
coedge $-1 $137 $137 $218 $219 reversed $86 $-1 #
face $-1 $220 $221 $33 $-1 $222 reversed single #
loop $-1 $-1 $223 $88 #
plane-surface $-1 0 -23.150788041664576 0 0 1 0 0 0 1 forward_v I I I I #
coedge $-1 $224 $225 $226 $227 forward $89 $-1 #
coedge $-1 $228 $91 $229 $230 forward $56 $-1 #
coedge $-1 $91 $228 $231 $232 forward $56 $-1 #
coedge $-1 $233 $234 $91 $145 reversed $235 $-1 #
edge $-1 $236 -23.150788041664576 $237 23.150788041664576 $144 $238 forward 7 unknown #
face $-1 $239 $240 $34 $-1 $241 reversed single #
loop $-1 $-1 $242 $92 #
plane-surface $-1 0 -28.883633972999327 1.9517893768781471 0 0 1 1 0 0 forward_v I I I I #
coedge $-1 $243 $244 $151 $245 forward $93 $-1 #
coedge $-1 $246 $95 $247 $248 reversed $59 $-1 #
coedge $-1 $95 $246 $149 $245 reversed $59 $-1 #
coedge $-1 $249 $242 $95 $153 reversed $147 $-1 #
edge $-1 $250 -40.928983428449357 $251 40.928983428449357 $152 $252 forward 7 unknown #
face $-1 $253 $254 $35 $-1 $255 reversed single #
loop $-1 $-1 $160 $96 #
plane-surface $-1 40.928983428449357 0 0 -1 0 0 0 0 1 forward_v I I I I #
coedge $-1 $256 $257 $258 $259 reversed $97 $-1 #
coedge $-1 $260 $99 $261 $262 reversed $62 $-1 #
coedge $-1 $99 $260 $257 $263 forward $62 $-1 #
coedge $-1 $264 $265 $99 $161 forward $155 $-1 #
edge $-1 $266 -14.88613695936343 $267 -1.6431652052388621 $160 $268 forward 7 unknown #
face $-1 $269 $270 $36 $-1 $271 forward single #
loop $-1 $-1 $272 $100 #
plane-surface $-1 26.820823044881735 -11.685096178995074 120.95880787376197 0 1 0 0.61566148304635926 0 0.78801074757464917 forward_v I I I I #
coedge $-1 $273 $274 $275 $276 reversed $101 $-1 #
coedge $-1 $167 $103 $277 $278 reversed $65 $-1 #
coedge $-1 $103 $166 $273 $279 reversed $65 $-1 #
coedge $-1 $275 $280 $103 $169 forward $270 $-1 #
edge $-1 $281 -27.518571906008489 $282 -21.926374712960047 $168 $283 forward 7 unknown #
loop $-1 $-1 $175 $104 #
plane-surface $-1 -23.575974229396252 -8.6439328551925101 56.453850215916361 0.61566148304635926 0 0.78801074757464917 0.78801074757464917 0 -0.61566148304635926 forward_v I I I I #
loop $-1 $-1 $284 $67 #
coedge $-1 $173 $173 $174 $285 reversed $105 $-1 #
coedge $-1 $174 $174 $173 $285 forward $107 $-1 #
coedge $-1 $175 $175 $108 $176 forward $170 $-1 #
edge $-1 $286 0 $286 6.2831853071796004 $175 $287 forward 7 unknown #
loop $-1 $-1 $182 $109 #
plane-surface $-1 -23.575974229396252 -8.6439328551925101 56.453850215916361 0.61566148304635926 0 0.78801074757464917 0.78801074757464917 0 -0.61566148304635926 forward_v I I I I #
loop $-1 $-1 $288 $70 #
coedge $-1 $180 $180 $181 $289 reversed $110 $-1 #
coedge $-1 $181 $181 $180 $289 forward $112 $-1 #
coedge $-1 $182 $182 $113 $183 forward $177 $-1 #
edge $-1 $290 0 $290 6.2831853071796004 $182 $291 forward 7 unknown #
loop $-1 $-1 $189 $114 #
plane-surface $-1 -23.575974229396252 -8.6439328551925101 56.453850215916361 0.61566148304635926 0 0.78801074757464917 0.78801074757464917 0 -0.61566148304635926 forward_v I I I I #
loop $-1 $-1 $292 $73 #
coedge $-1 $187 $187 $188 $293 reversed $115 $-1 #
coedge $-1 $188 $188 $187 $293 forward $117 $-1 #
coedge $-1 $189 $189 $118 $190 forward $184 $-1 #
edge $-1 $294 0 $294 6.2831853071796004 $189 $295 forward 7 unknown #
face $-1 $296 $297 $40 $-1 $298 reversed single #
loop $-1 $-1 $299 $119 #
plane-surface $-1 -91.325780702727343 -5.6027695313899466 70.562010599483983 0 -1 0 0.61566148304635926 0 -0.78801074757464917 forward_v I I I I #
coedge $-1 $300 $301 $302 $303 reversed $120 $-1 #
coedge $-1 $196 $122 $304 $305 reversed $77 $-1 #
coedge $-1 $122 $195 $300 $306 reversed $77 $-1 #
coedge $-1 $302 $307 $122 $198 forward $308 $-1 #
edge $-1 $309 4.7339069229143149 $310 10.326104115962757 $197 $311 forward 7 unknown #
loop $-1 $-1 $204 $123 #
plane-surface $-1 -40.928983428449357 -8.6439328551925101 6.0570529416383749 -0.61566148304635926 0 0.78801074757464917 0.78801074757464917 0 0.61566148304635926 forward_v I I I I #
loop $-1 $-1 $312 $79 #
coedge $-1 $202 $202 $203 $313 reversed $124 $-1 #
coedge $-1 $203 $203 $202 $313 forward $126 $-1 #
coedge $-1 $204 $204 $127 $205 forward $199 $-1 #
edge $-1 $314 0 $314 6.2831853071796004 $204 $315 forward 7 unknown #
loop $-1 $-1 $211 $128 #
plane-surface $-1 -40.928983428449357 -8.6439328551925101 6.0570529416383749 -0.61566148304635926 0 0.78801074757464917 0.78801074757464917 0 0.61566148304635926 forward_v I I I I #
loop $-1 $-1 $316 $82 #
coedge $-1 $209 $209 $210 $317 reversed $129 $-1 #
coedge $-1 $210 $210 $209 $317 forward $131 $-1 #
coedge $-1 $211 $211 $132 $212 forward $206 $-1 #
edge $-1 $318 0 $318 6.2831853071796004 $211 $319 forward 7 unknown #
loop $-1 $-1 $218 $133 #
plane-surface $-1 -40.928983428449357 -8.6439328551925101 6.0570529416383749 -0.61566148304635926 0 0.78801074757464917 0.78801074757464917 0 0.61566148304635926 forward_v I I I I #
loop $-1 $-1 $320 $85 #
coedge $-1 $216 $216 $217 $321 reversed $134 $-1 #
coedge $-1 $217 $217 $216 $321 forward $136 $-1 #
coedge $-1 $218 $218 $137 $219 forward $213 $-1 #
edge $-1 $322 0 $322 6.2831853071796004 $218 $323 forward 7 unknown #
face $-1 $324 $325 $33 $-1 $326 reversed single #
loop $-1 $-1 $327 $138 #
plane-surface $-1 -40.928983428449357 0 0 1 0 0 0 0 -1 forward_v I I I I #
coedge $-1 $328 $231 $329 $330 forward $139 $-1 #
coedge $-1 $331 $141 $328 $332 forward $89 $-1 #
coedge $-1 $141 $331 $333 $334 forward $89 $-1 #
coedge $-1 $234 $233 $141 $227 reversed $235 $-1 #
edge $-1 $335 -23.150788041664576 $336 23.150788041664576 $226 $337 forward 7 unknown #
coedge $-1 $143 $142 $338 $339 forward $56 $-1 #
coedge $-1 $340 $341 $142 $230 reversed $325 $-1 #
edge $-1 $237 -40.928983428449357 $342 40.928983428449357 $229 $343 forward 7 unknown #
coedge $-1 $223 $344 $143 $232 reversed $139 $-1 #
edge $-1 $345 -40.928983428449357 $236 40.928983428449357 $231 $346 forward 7 unknown #
coedge $-1 $226 $144 $344 $347 forward $235 $-1 #
coedge $-1 $144 $226 $340 $348 reversed $235 $-1 #
loop $-1 $-1 $233 $324 #
vertex $-1 $145 $349 #
vertex $-1 $145 $350 #
straight-curve $-1 40.928983428449357 0 10.426156317393719 0 1 0 I I #
face $-1 $351 $352 $34 $-1 $353 reversed single #
loop $-1 $-1 $354 $146 #
plane-surface $-1 0 -28.883633972999327 -1.779888105318272 0 0 1 1 0 0 forward_v I I I I #
coedge $-1 $152 $355 $356 $357 forward $147 $-1 #
coedge $-1 $358 $149 $359 $360 reversed $93 $-1 #
coedge $-1 $149 $358 $249 $361 reversed $93 $-1 #
edge $-1 $250 -1.9517893768781471 $362 1.779888105318272 $149 $363 forward 7 unknown #
coedge $-1 $151 $150 $364 $365 forward $59 $-1 #
coedge $-1 $356 $366 $150 $248 forward $367 $-1 #
edge $-1 $368 -1.779888105318272 $251 1.9517893768781471 $247 $369 forward 7 unknown #
coedge $-1 $355 $152 $244 $361 forward $147 $-1 #
vertex $-1 $245 $370 #
vertex $-1 $357 $371 #
straight-curve $-1 0 -23.150788041664576 1.9517893768781471 1 0 0 I I #
face $-1 $372 $373 $35 $-1 $374 reversed single #
loop $-1 $-1 $375 $154 #
plane-surface $-1 0 0 -10.426156317393719 0 0 1 1 0 0 forward_v I I I I #
coedge $-1 $376 $157 $375 $377 reversed $97 $-1 #
coedge $-1 $157 $376 $159 $263 reversed $97 $-1 #
coedge $-1 $378 $379 $157 $259 forward $373 $-1 #
edge $-1 $380 -5.9630781586968595 $381 -2.9630781586968595 $258 $382 forward 7 unknown #
coedge $-1 $159 $158 $378 $383 reversed $62 $-1 #
coedge $-1 $384 $385 $158 $262 forward $386 $-1 #
edge $-1 $387 -40.928983428449357 $266 40.928983428449357 $261 $388 forward 7 unknown #
edge $-1 $381 -40.928983428449357 $267 40.928983428449357 $257 $389 forward 7 unknown #
coedge $-1 $390 $160 $376 $391 forward $155 $-1 #
coedge $-1 $160 $390 $384 $392 reversed $155 $-1 #
vertex $-1 $392 $393 #
vertex $-1 $161 $394 #
straight-curve $-1 40.928983428449357 8.2646510823011461 -7.4261563173937191 0 -1 0 I I #
face $-1 $-1 $395 $36 $-1 $396 reversed single #
loop $-1 $-1 $168 $162 #
plane-surface $-1 0 0 10.426156317393719 0 0 1 1 0 0 forward_v I I I I #
coedge $-1 $397 $398 $399 $400 reversed $163 $-1 #
coedge $-1 $401 $165 $167 $279 forward $101 $-1 #
coedge $-1 $165 $401 $397 $402 forward $101 $-1 #
coedge $-1 $399 $168 $165 $276 forward $270 $-1 #
edge $-1 $282 1.2808031037936916 $403 7.3631297513988194 $275 $404 forward 7 unknown #
coedge $-1 $405 $406 $166 $278 forward $395 $-1 #
edge $-1 $407 -54.42235099524261 $281 -50.053247619487266 $277 $408 forward 7 unknown #
edge $-1 $282 74.761366702319364 $407 81.857966856898713 $167 $409 forward 7 unknown #
coedge $-1 $168 $399 $405 $410 forward $270 $-1 #
vertex $-1 $278 $411 #
vertex $-1 $169 $412 #
straight-curve $-1 13.410411522440867 -5.6027695313899466 10.426156317393719 -1 0 0 I I #
coedge $-1 $284 $284 $-1 $413 reversed $172 $-1 #
edge $-1 $414 0 $414 6.2831853071796004 $173 $415 forward 7 unknown #
vertex $-1 $176 $416 #
ellipse-curve $-1 38.132884831925132 -10.468630849474048 8.2416046295160577 0.61566148304635926 0 0.78801074757464917 0.39400537378732459 0 -0.30783074152317963 1 I I #
coedge $-1 $288 $288 $-1 $417 reversed $179 $-1 #
edge $-1 $418 0 $418 6.2831853071796004 $180 $419 forward 7 unknown #
vertex $-1 $183 $420 #
ellipse-curve $-1 38.132884831925132 -8.6439328551925101 8.2416046295160577 0.61566148304635926 0 0.78801074757464917 0.39400537378732459 0 -0.30783074152317963 1 I I #
coedge $-1 $292 $292 $-1 $421 reversed $186 $-1 #
edge $-1 $422 0 $422 6.2831853071796004 $187 $423 forward 7 unknown #
vertex $-1 $190 $424 #
ellipse-curve $-1 38.132884831925132 -6.8192348609109708 8.2416046295160577 0.61566148304635926 0 0.78801074757464917 0.39400537378732459 0 -0.30783074152317963 1 I I #
face $-1 $-1 $308 $40 $-1 $425 forward single #
loop $-1 $-1 $426 $191 #
plane-surface $-1 -40.928983428449357 0 0 1 0 0 0 0 -1 forward_v I I I I #
coedge $-1 $427 $428 $429 $430 reversed $192 $-1 #
coedge $-1 $431 $194 $196 $306 forward $120 $-1 #
coedge $-1 $194 $431 $427 $432 forward $120 $-1 #
coedge $-1 $429 $197 $194 $303 forward $308 $-1 #
edge $-1 $310 -7.3631297513988194 $433 -1.2808031037936916 $302 $434 forward 7 unknown #
coedge $-1 $435 $436 $195 $305 forward $297 $-1 #
edge $-1 $437 -29.223952358103617 $309 -24.854848982348273 $304 $438 forward 7 unknown #
edge $-1 $310 -7.0966001545793471 $437 0 $196 $439 forward 7 unknown #
coedge $-1 $197 $429 $435 $440 forward $308 $-1 #
loop $-1 $-1 $429 $296 #
vertex $-1 $305 $441 #
vertex $-1 $198 $442 #
straight-curve $-1 -45.662890351363671 -11.685096178995074 10.426156317393719 1 0 0 I I #
coedge $-1 $312 $312 $-1 $443 reversed $201 $-1 #
edge $-1 $444 0 $444 6.2831853071796004 $202 $445 forward 7 unknown #
vertex $-1 $205 $446 #
ellipse-curve $-1 -38.132884831925139 -10.468630849474048 8.2416046295160452 -0.61566148304635926 0 0.78801074757464917 0.39400537378732459 0 0.30783074152317963 1 I I #
coedge $-1 $316 $316 $-1 $447 reversed $208 $-1 #
edge $-1 $448 0 $448 6.2831853071796004 $209 $449 forward 7 unknown #
vertex $-1 $212 $450 #
ellipse-curve $-1 -38.132884831925139 -8.6439328551925101 8.2416046295160452 -0.61566148304635926 0 0.78801074757464917 0.39400537378732459 0 0.30783074152317963 1 I I #
coedge $-1 $320 $320 $-1 $451 reversed $215 $-1 #
edge $-1 $452 0 $452 6.2831853071796004 $216 $453 forward 7 unknown #
vertex $-1 $219 $454 #
ellipse-curve $-1 -38.132884831925139 -6.8192348609109708 8.2416046295160452 -0.61566148304635926 0 0.78801074757464917 0.39400537378732459 0 0.30783074152317963 1 I I #
face $-1 $-1 $235 $33 $-1 $455 reversed single #
loop $-1 $-1 $340 $220 #
plane-surface $-1 0 23.150788041664576 0 0 -1 0 0 0 -1 forward_v I I I I #
coedge $-1 $456 $338 $341 $457 forward $221 $-1 #
coedge $-1 $344 $223 $224 $332 reversed $139 $-1 #
coedge $-1 $338 $456 $223 $330 reversed $221 $-1 #
edge $-1 $345 -10.426156317393719 $458 10.426156317393719 $329 $459 forward 7 unknown #
coedge $-1 $225 $224 $456 $460 forward $89 $-1 #
edge $-1 $336 -40.928983428449357 $458 40.928983428449357 $328 $461 forward 7 unknown #
coedge $-1 $341 $340 $225 $334 reversed $325 $-1 #
edge $-1 $462 -40.928983428449357 $335 40.928983428449357 $333 $463 forward 7 unknown #
vertex $-1 $227 $464 #
vertex $-1 $347 $465 #
straight-curve $-1 40.928983428449357 0 -10.426156317393719 0 -1 0 I I #
coedge $-1 $327 $329 $228 $339 reversed $221 $-1 #
edge $-1 $342 -23.150788041664576 $345 23.150788041664576 $338 $466 forward 7 unknown #
coedge $-1 $333 $229 $234 $348 forward $325 $-1 #
coedge $-1 $229 $333 $327 $457 reversed $325 $-1 #
vertex $-1 $230 $467 #
straight-curve $-1 0 23.150788041664576 10.426156317393719 -1 0 0 I I #
coedge $-1 $231 $328 $233 $347 reversed $139 $-1 #
vertex $-1 $339 $468 #
straight-curve $-1 0 -23.150788041664576 10.426156317393719 1 0 0 I I #
edge $-1 $236 -10.426156317393719 $336 10.426156317393719 $233 $469 forward 7 unknown #
edge $-1 $237 -10.426156317393719 $335 10.426156317393719 $234 $470 forward 7 unknown #
point $-1 40.928983428449357 -23.150788041664576 10.426156317393719 #
point $-1 40.928983428449357 23.150788041664576 10.426156317393719 #
face $-1 $-1 $367 $34 $-1 $471 reversed single #
loop $-1 $-1 $472 $239 #
plane-surface $-1 0 -34.616479904334078 0.085950635779937556 0 1 0 0 0 1 forward_v I I I I #
coedge $-1 $473 $364 $366 $474 forward $240 $-1 #
coedge $-1 $242 $249 $475 $476 forward $147 $-1 #
coedge $-1 $477 $247 $242 $357 reversed $367 $-1 #
edge $-1 $478 -5.7328459313347508 $251 5.7328459313347508 $356 $479 forward 7 unknown #
coedge $-1 $244 $243 $472 $480 reversed $93 $-1 #
coedge $-1 $364 $473 $243 $360 forward $240 $-1 #
edge $-1 $481 -5.7328459313347508 $362 5.7328459313347508 $243 $482 forward 7 unknown #
edge $-1 $250 -5.7328459313347508 $483 5.7328459313347508 $244 $484 forward 7 unknown #
vertex $-1 $245 $485 #
straight-curve $-1 -40.928983428449357 -23.150788041664576 0 0 0 -1 I I #
coedge $-1 $354 $359 $246 $365 reversed $240 $-1 #
edge $-1 $368 -40.928983428449357 $362 40.928983428449357 $364 $486 forward 7 unknown #
coedge $-1 $247 $477 $354 $474 reversed $367 $-1 #
loop $-1 $-1 $247 $351 #
vertex $-1 $248 $487 #
straight-curve $-1 40.928983428449357 -23.150788041664576 0 0 0 1 I I #
point $-1 -40.928983428449357 -23.150788041664576 1.9517893768781471 #
point $-1 40.928983428449357 -23.150788041664576 1.9517893768781471 #
face $-1 $-1 $386 $35 $-1 $488 reversed single #
loop $-1 $-1 $378 $253 #
plane-surface $-1 -40.928983428449357 0 0 1 0 0 0 0 -1 forward_v I I I I #
coedge $-1 $489 $490 $256 $377 forward $254 $-1 #
coedge $-1 $257 $256 $264 $391 reversed $97 $-1 #
edge $-1 $491 -40.928983428449357 $380 40.928983428449357 $375 $492 forward 7 unknown #
coedge $-1 $493 $258 $260 $383 forward $373 $-1 #
coedge $-1 $258 $493 $489 $494 reversed $373 $-1 #
vertex $-1 $494 $495 #
vertex $-1 $383 $496 #
straight-curve $-1 -40.928983428449357 9.9078162875400082 -4.4630781586968595 0 0 1 I I #
edge $-1 $381 1.6431652052388621 $387 14.88613695936343 $378 $497 forward 7 unknown #
coedge $-1 $498 $261 $265 $392 forward $386 $-1 #
coedge $-1 $261 $498 $493 $499 reversed $386 $-1 #
loop $-1 $-1 $261 $372 #
vertex $-1 $499 $500 #
straight-curve $-1 0 23.150788041664576 -7.4261563173937191 1 0 0 I I #
straight-curve $-1 0 9.9078162875400082 -7.4261563173937191 1 0 0 I I #
coedge $-1 $265 $264 $490 $501 reversed $155 $-1 #
edge $-1 $267 2.9630781586968595 $491 5.9630781586968595 $264 $502 forward 7 unknown #
edge $-1 $266 7.4261563173937191 $503 10.426156317393719 $265 $504 forward 7 unknown #
point $-1 40.928983428449357 23.150788041664576 -7.4261563173937191 #
point $-1 40.928983428449357 9.9078162875400082 -7.4261563173937191 #
loop $-1 $-1 $277 $269 #
plane-surface $-1 40.928983428449357 0 0 -1 0 0 0 0 1 forward_v I I I I #
coedge $-1 $398 $272 $274 $402 reversed $163 $-1 #
coedge $-1 $272 $397 $505 $506 reversed $163 $-1 #
coedge $-1 $280 $275 $272 $400 forward $270 $-1 #
edge $-1 $403 21.926374712960047 $507 27.518571906008489 $399 $508 forward 7 unknown #
coedge $-1 $274 $273 $406 $509 reversed $101 $-1 #
edge $-1 $510 -81.857966856898713 $403 -74.761366702319364 $397 $511 forward 7 unknown #
vertex $-1 $276 $512 #
straight-curve $-1 35.336786235400922 -4.321966427596255 10.426156317393716 0 -1 0 I I #
coedge $-1 $505 $277 $280 $410 reversed $395 $-1 #
coedge $-1 $277 $505 $401 $509 forward $395 $-1 #
vertex $-1 $278 $513 #
straight-curve $-1 40.928983428449357 -5.6027695313899466 60.479403936880985 0 0 1 I I #
straight-curve $-1 -23.575974229396252 -5.6027695313899466 56.453850215916361 0.78801074757464917 0 -0.61566148304635926 I I #
edge $-1 $507 -11.685096178995074 $281 -5.6027695313899466 $405 $514 forward 7 unknown #
point $-1 40.928983428449357 -5.6027695313899466 10.426156317393719 #
point $-1 35.336786235400915 -5.6027695313899466 10.426156317393719 #
edge $-1 $515 1 $515 0 $284 $-1 forward 7 unknown #
vertex $-1 $285 $516 #
ellipse-curve $-1 37.517223348878765 -10.468630849474048 7.4535938819414023 0.61566148304635926 0 0.78801074757464917 0.39400537378732459 0 -0.30783074152317963 1 I I #
point $-1 38.526890205712448 -10.468630849474048 7.9337738879928716 #
edge $-1 $517 1 $517 0 $288 $-1 forward 7 unknown #
vertex $-1 $289 $518 #
ellipse-curve $-1 37.517223348878765 -8.6439328551925101 7.4535938819414023 0.61566148304635926 0 0.78801074757464917 0.39400537378732459 0 -0.30783074152317963 1 I I #
point $-1 38.526890205712448 -8.6439328551925101 7.9337738879928716 #
edge $-1 $519 1 $519 0 $292 $-1 forward 7 unknown #
vertex $-1 $293 $520 #
ellipse-curve $-1 37.517223348878765 -6.8192348609109708 7.4535938819414023 0.61566148304635926 0 0.78801074757464917 0.39400537378732459 0 -0.30783074152317963 1 I I #
point $-1 38.526890205712448 -6.8192348609109708 7.9337738879928716 #
plane-surface $-1 0 0 10.426156317393719 0 0 1 1 0 0 forward_v I I I I #
coedge $-1 $436 $435 $428 $521 forward $297 $-1 #
coedge $-1 $428 $299 $301 $432 reversed $192 $-1 #
coedge $-1 $299 $427 $426 $521 reversed $192 $-1 #
coedge $-1 $307 $302 $299 $430 forward $308 $-1 #
edge $-1 $433 -10.326104115962757 $522 -4.7339069229143149 $429 $523 forward 7 unknown #
coedge $-1 $301 $300 $436 $524 reversed $120 $-1 #
edge $-1 $525 0 $433 7.0966001545793471 $427 $526 forward 7 unknown #
vertex $-1 $303 $527 #
straight-curve $-1 -35.336786235400915 -4.321966427596255 10.426156317393719 0 1 0 I I #
coedge $-1 $426 $304 $307 $440 reversed $297 $-1 #
coedge $-1 $304 $426 $431 $524 forward $297 $-1 #
vertex $-1 $305 $528 #
straight-curve $-1 -40.928983428449357 -11.685096178995074 35.281005299741992 0 0 1 I I #
straight-curve $-1 -40.928983428449357 -11.685096178995074 6.0570529416383749 -0.78801074757464917 0 -0.61566148304635926 I I #
edge $-1 $522 5.6027695313899466 $309 11.685096178995074 $435 $529 forward 7 unknown #
point $-1 -40.928983428449357 -11.685096178995074 10.426156317393719 #
point $-1 -35.336786235400915 -11.685096178995074 10.426156317393719 #
edge $-1 $530 1 $530 0 $312 $-1 forward 7 unknown #
vertex $-1 $313 $531 #
ellipse-curve $-1 -37.517223348878773 -10.468630849474048 7.4535938819413952 -0.61566148304635926 0 0.78801074757464917 0.39400537378732459 0 0.30783074152317963 1 I I #
point $-1 -37.738879458137809 -10.468630849474048 8.5494353710392232 #
edge $-1 $532 1 $532 0 $316 $-1 forward 7 unknown #
vertex $-1 $317 $533 #
ellipse-curve $-1 -37.517223348878773 -8.6439328551925101 7.4535938819413952 -0.61566148304635926 0 0.78801074757464917 0.39400537378732459 0 0.30783074152317963 1 I I #
point $-1 -37.738879458137809 -8.6439328551925101 8.5494353710392232 #
edge $-1 $534 1 $534 0 $320 $-1 forward 7 unknown #
vertex $-1 $321 $535 #
ellipse-curve $-1 -37.517223348878773 -6.8192348609109708 7.4535938819413952 -0.61566148304635926 0 0.78801074757464917 0.39400537378732459 0 0.30783074152317963 1 I I #
point $-1 -37.738879458137809 -6.8192348609109708 8.5494353710392232 #
plane-surface $-1 40.928983428449357 0 0 -1 0 0 0 0 1 forward_v I I I I #
coedge $-1 $329 $327 $331 $460 reversed $221 $-1 #
edge $-1 $342 -10.426156317393719 $462 10.426156317393719 $341 $536 forward 7 unknown #
vertex $-1 $460 $537 #
straight-curve $-1 -40.928983428449357 -23.150788041664576 0 0 0 -1 I I #
edge $-1 $458 -23.150788041664576 $462 23.150788041664576 $456 $538 forward 7 unknown #
straight-curve $-1 0 -23.150788041664576 -10.426156317393719 -1 0 0 I I #
vertex $-1 $334 $539 #
straight-curve $-1 0 23.150788041664576 -10.426156317393719 1 0 0 I I #
point $-1 40.928983428449357 23.150788041664576 -10.426156317393719 #
point $-1 40.928983428449357 -23.150788041664576 -10.426156317393719 #
straight-curve $-1 -40.928983428449357 0 10.426156317393719 0 -1 0 I I #
point $-1 -40.928983428449357 23.150788041664576 10.426156317393719 #
point $-1 -40.928983428449357 -23.150788041664576 10.426156317393719 #
straight-curve $-1 40.928983428449357 -23.150788041664576 0 0 0 -1 I I #
straight-curve $-1 40.928983428449357 23.150788041664576 0 0 0 -1 I I #
plane-surface $-1 40.928983428449357 0 0 -1 0 0 0 0 1 forward_v I I I I #
coedge $-1 $540 $475 $358 $480 forward $352 $-1 #
coedge $-1 $359 $354 $540 $541 forward $240 $-1 #
edge $-1 $368 -5.7328459313347508 $542 5.7328459313347508 $366 $543 forward 7 unknown #
coedge $-1 $472 $544 $355 $476 reversed $352 $-1 #
edge $-1 $483 -40.928983428449357 $478 40.928983428449357 $475 $545 forward 7 unknown #
coedge $-1 $366 $356 $544 $546 forward $367 $-1 #
vertex $-1 $357 $547 #
straight-curve $-1 40.928983428449357 -28.883633972999327 1.9517893768781471 0 1 0 I I #
edge $-1 $483 -1.8658387410982096 $481 1.8658387410982096 $358 $548 forward 7 unknown #
vertex $-1 $360 $549 #
straight-curve $-1 -40.928983428449357 -28.883633972999327 -1.779888105318272 0 1 0 I I #
vertex $-1 $361 $550 #
straight-curve $-1 -40.928983428449357 -28.883633972999327 1.9517893768781471 0 -1 0 I I #
point $-1 -40.928983428449357 -23.150788041664576 -1.779888105318272 #
straight-curve $-1 0 -23.150788041664576 -1.779888105318272 -1 0 0 I I #
point $-1 40.928983428449357 -23.150788041664576 -1.779888105318272 #
plane-surface $-1 0 23.150788041664576 0 0 -1 0 0 0 -1 forward_v I I I I #
coedge $-1 $551 $375 $379 $494 forward $254 $-1 #
coedge $-1 $375 $551 $390 $501 forward $254 $-1 #
vertex $-1 $377 $552 #
straight-curve $-1 0 9.9078162875400082 -10.426156317393719 -1 0 0 I I #
coedge $-1 $379 $378 $385 $499 forward $373 $-1 #
edge $-1 $380 9.9078162875400082 $553 23.150788041664576 $379 $554 forward 7 unknown #
point $-1 -40.928983428449357 9.9078162875400082 -10.426156317393719 #
point $-1 -40.928983428449357 9.9078162875400082 -7.4261563173937191 #
straight-curve $-1 -40.928983428449357 8.2646510823011461 -7.4261563173937191 0 1 0 I I #
coedge $-1 $385 $384 $551 $555 reversed $386 $-1 #
edge $-1 $387 7.4261563173937191 $553 10.426156317393719 $385 $556 forward 7 unknown #
point $-1 -40.928983428449357 23.150788041664576 -7.4261563173937191 #
edge $-1 $503 -23.150788041664576 $491 -9.9078162875400082 $390 $557 forward 7 unknown #
straight-curve $-1 40.928983428449357 9.9078162875400082 -4.4630781586968595 0 0 -1 I I #
vertex $-1 $501 $558 #
straight-curve $-1 40.928983428449357 23.150788041664576 0 0 0 -1 I I #
coedge $-1 $406 $405 $398 $506 forward $395 $-1 #
edge $-1 $507 50.053247619487266 $510 54.42235099524261 $505 $559 forward 7 unknown #
vertex $-1 $410 $560 #
straight-curve $-1 13.410411522440867 -11.685096178995074 10.426156317393719 1 0 0 I I #
edge $-1 $510 -7.3631297513988194 $407 -1.2808031037936916 $406 $561 forward 7 unknown #
vertex $-1 $509 $562 #
straight-curve $-1 -23.575974229396252 -11.685096178995074 56.453850215916361 -0.78801074757464917 0 0.61566148304635926 I I #
point $-1 35.336786235400915 -11.685096178995074 10.426156317393719 #
point $-1 40.928983428449357 -5.6027695313899466 6.0570529416383749 #
straight-curve $-1 40.928983428449357 0 10.426156317393719 0 1 0 I I #
vertex $-1 $413 $563 #
point $-1 37.911228722666088 -10.468630849474048 7.1457631404182225 #
vertex $-1 $417 $564 #
point $-1 37.911228722666088 -8.6439328551925101 7.1457631404182225 #
vertex $-1 $421 $565 #
point $-1 37.911228722666088 -6.8192348609109708 7.1457631404182225 #
edge $-1 $522 24.854848982348273 $525 29.223952358103617 $426 $566 forward 7 unknown #
vertex $-1 $440 $567 #
straight-curve $-1 -45.662890351363671 -5.6027695313899466 10.426156317393719 -1 0 0 I I #
edge $-1 $525 1.2808031037936916 $437 7.3631297513988194 $436 $568 forward 7 unknown #
vertex $-1 $524 $569 #
straight-curve $-1 -40.928983428449357 -5.6027695313899466 6.0570529416383749 0.78801074757464917 0 0.61566148304635926 I I #
point $-1 -35.336786235400915 -5.6027695313899466 10.426156317393719 #
point $-1 -40.928983428449357 -11.685096178995074 6.0570529416383749 #
straight-curve $-1 -40.928983428449357 0 10.426156317393719 0 -1 0 I I #
vertex $-1 $443 $570 #
point $-1 -37.12321797509145 -10.468630849474048 7.761424623464575 #
vertex $-1 $447 $571 #
point $-1 -37.12321797509145 -8.6439328551925101 7.761424623464575 #
vertex $-1 $451 $572 #
point $-1 -37.12321797509145 -6.8192348609109708 7.761424623464575 #
straight-curve $-1 -40.928983428449357 23.150788041664576 0 0 0 -1 I I #
point $-1 -40.928983428449357 -23.150788041664576 -10.426156317393719 #
straight-curve $-1 -40.928983428449357 0 -10.426156317393719 0 1 0 I I #
point $-1 -40.928983428449357 23.150788041664576 -10.426156317393719 #
coedge $-1 $544 $472 $473 $541 reversed $352 $-1 #
edge $-1 $542 -40.928983428449357 $481 40.928983428449357 $540 $573 forward 7 unknown #
vertex $-1 $546 $574 #
straight-curve $-1 40.928983428449357 -28.883633972999327 -1.779888105318272 0 -1 0 I I #
coedge $-1 $475 $540 $477 $546 reversed $352 $-1 #
straight-curve $-1 0 -34.616479904334078 1.9517893768781471 1 0 0 I I #
edge $-1 $478 -1.8658387410982096 $542 1.8658387410982096 $477 $575 forward 7 unknown #
point $-1 40.928983428449357 -34.616479904334078 1.9517893768781471 #
straight-curve $-1 -40.928983428449357 -34.616479904334078 0.085950635779937556 0 0 -1 I I #
point $-1 -40.928983428449357 -34.616479904334078 -1.779888105318272 #
point $-1 -40.928983428449357 -34.616479904334078 1.9517893768781471 #
coedge $-1 $490 $489 $498 $555 forward $254 $-1 #
point $-1 40.928983428449357 9.9078162875400082 -10.426156317393719 #
vertex $-1 $555 $576 #
straight-curve $-1 -40.928983428449357 0 -10.426156317393719 0 1 0 I I #
edge $-1 $553 -40.928983428449357 $503 40.928983428449357 $498 $577 forward 7 unknown #
straight-curve $-1 -40.928983428449357 23.150788041664576 0 0 0 -1 I I #
straight-curve $-1 40.928983428449357 0 -10.426156317393719 0 -1 0 I I #
point $-1 40.928983428449357 23.150788041664576 -10.426156317393719 #
straight-curve $-1 40.928983428449357 -11.685096178995074 60.479403936880985 0 0 -1 I I #
point $-1 40.928983428449357 -11.685096178995074 10.426156317393719 #
straight-curve $-1 40.928983428449357 -4.321966427596255 6.0570529416383785 0 1 0 I I #
point $-1 40.928983428449357 -11.685096178995074 6.0570529416383749 #
point $-1 37.209392607355589 -10.468630849474048 7.0595885081540777 #
point $-1 37.209392607355589 -8.6439328551925101 7.0595885081540777 #
point $-1 37.209392607355589 -6.8192348609109708 7.0595885081540777 #
straight-curve $-1 -40.928983428449357 -5.6027695313899466 35.281005299741992 0 0 -1 I I #
point $-1 -40.928983428449357 -5.6027695313899466 10.426156317393719 #
straight-curve $-1 -40.928983428449357 -4.321966427596255 6.0570529416383785 0 -1 0 I I #
point $-1 -40.928983428449357 -5.6027695313899466 6.0570529416383749 #
point $-1 -37.209392607355596 -10.468630849474048 7.0595885081540706 #
point $-1 -37.209392607355596 -8.6439328551925101 7.0595885081540706 #
point $-1 -37.209392607355596 -6.8192348609109708 7.0595885081540706 #
straight-curve $-1 0 -34.616479904334078 -1.779888105318272 -1 0 0 I I #
point $-1 40.928983428449357 -34.616479904334078 -1.779888105318272 #
straight-curve $-1 40.928983428449357 -34.616479904334078 0.085950635779937556 0 0 -1 I I #
point $-1 -40.928983428449357 23.150788041664576 -10.426156317393719 #
straight-curve $-1 0 23.150788041664576 -10.426156317393719 1 0 0 I I #
End-of-ACIS-data 