500 0 8 0           
7 Unknown 11 ACIS 5.0 NT 24 Thu Mar 25 21:52:41 1999 
-1 9.9999999999999995e-007 1e-010 
body $-1 $8 $-1 $9 #
body $-1 $10 $-1 $11 #
body $-1 $12 $-1 $13 #
body $-1 $14 $-1 $15 #
body $-1 $16 $-1 $17 #
body $-1 $18 $-1 $19 #
body $-1 $20 $-1 $21 #
body $-1 $22 $-1 $23 #
lump $-1 $-1 $24 $0 #
transform $-1 1 0 0 0 1 0 0 0 1 67.926877651295513 36.690298619419359 15.777041155663282 1 rotate no_reflect no_shear #
lump $-1 $-1 $25 $1 #
transform $-1 1 0 0 0 1 0 0 0 1 67.926877651295513 36.690298619419359 15.777041155663282 1 rotate no_reflect no_shear #
lump $-1 $-1 $26 $2 #
transform $-1 1 0 0 0 1 0 0 0 1 67.926877651295513 36.690298619419359 15.777041155663282 1 rotate no_reflect no_shear #
lump $-1 $-1 $27 $3 #
transform $-1 1 0 0 0 1 0 0 0 1 67.926877651295513 36.690298619419359 15.777041155663282 1 rotate no_reflect no_shear #
lump $-1 $-1 $28 $4 #
transform $-1 1 0 0 0 1 0 0 0 1 67.926877651295513 36.690298619419359 15.777041155663282 1 rotate no_reflect no_shear #
lump $-1 $-1 $29 $5 #
transform $-1 1 0 0 0 1 0 0 0 1 67.926877651295513 36.690298619419359 15.777041155663282 1 rotate no_reflect no_shear #
lump $-1 $-1 $30 $6 #
transform $-1 1 0 0 0 1 0 0 0 1 67.926877651295513 36.690298619419359 15.777041155663282 1 rotate no_reflect no_shear #
lump $-1 $-1 $31 $7 #
transform $-1 1 0 0 0 1 0 0 0 1 67.926877651295513 36.690298619419359 15.777041155663282 1 rotate no_reflect no_shear #
shell $-1 $-1 $-1 $32 $-1 $8 #
shell $-1 $-1 $-1 $33 $-1 $10 #
shell $-1 $-1 $-1 $34 $-1 $12 #
shell $-1 $-1 $-1 $35 $-1 $14 #
shell $-1 $-1 $-1 $36 $-1 $16 #
shell $-1 $-1 $-1 $37 $-1 $18 #
shell $-1 $-1 $-1 $38 $-1 $20 #
shell $-1 $-1 $-1 $39 $-1 $22 #
face $-1 $40 $41 $24 $-1 $42 forward single #
face $-1 $43 $44 $25 $-1 $45 reversed single #
face $-1 $46 $47 $26 $-1 $48 reversed single #
face $-1 $49 $50 $27 $-1 $51 forward single #
face $-1 $52 $53 $28 $-1 $54 forward single #
face $-1 $55 $56 $29 $-1 $57 forward single #
face $-1 $58 $59 $30 $-1 $60 reversed single #
face $-1 $61 $62 $31 $-1 $63 forward single #
face $-1 $64 $65 $24 $-1 $66 reversed single #
loop $-1 $-1 $67 $32 #
plane-surface $-1 0 0 15.777041155663282 0 0 1 1 0 0 forward_v I I I I #
face $-1 $68 $69 $25 $-1 $70 reversed single #
loop $-1 $-1 $71 $33 #
plane-surface $-1 -42.061235527390352 -27.568769076414398 0 1 0 0 0 0 -1 forward_v I I I I #
face $-1 $72 $73 $26 $-1 $74 reversed single #
loop $-1 $-1 $75 $34 #
plane-surface $-1 -176.42451192647343 1.4026906370595356 87.160616303274182 0 1 0 -0.79863551827123203 0 0.60181501223851219 forward_v I I I I #
face $-1 $76 $77 $27 $-1 $78 forward single #
loop $-1 $79 $80 $35 #
cone-surface $-1 -63.241733573168965 2.8454481640542966 10.004666079672061 0.79863551827123203 0 -0.60181501223851219 0.3009075061192561 0 0.39931775913561601 1 I I 0 1 0.5 forward I I I I #
face $-1 $81 $82 $28 $-1 $83 forward single #
loop $-1 $84 $85 $36 #
cone-surface $-1 -63.241733573168965 5.0095844545464416 10.004666079672061 0.79863551827123203 0 -0.60181501223851219 0.3009075061192561 0 0.39931775913561601 1 I I 0 1 0.5 forward I I I I #
face $-1 $86 $87 $29 $-1 $88 forward single #
loop $-1 $89 $90 $37 #
cone-surface $-1 -63.241733573168965 7.1737207450385867 10.004666079672061 0.79863551827123203 0 -0.60181501223851219 0.3009075061192561 0 0.39931775913561601 1 I I 0 1 0.5 forward I I I I #
face $-1 $91 $92 $30 $-1 $93 reversed single #
loop $-1 $-1 $94 $38 #
plane-surface $-1 34.564510809655474 -2.0912793538594823 192.20210492505757 0 -1 0 -0.57357644374324357 0 -0.81915203911291934 forward_v I I I I #
face $-1 $95 $96 $31 $-1 $97 forward single #
loop $-1 $98 $99 $39 #
cone-surface $-1 57.47077616124151 -10.269259443634461 7.4884789680765564 -0.57357644374324357 0 -0.81915203911291934 1.6383040782258387 0 -1.1471528874864871 1 I I 0 1 2 forward I I I I #
face $-1 $100 $101 $24 $-1 $102 reversed single #
loop $-1 $-1 $103 $40 #
plane-surface $-1 0 0 -15.777041155663282 0 0 1 1 0 0 forward_v I I I I #
coedge $-1 $104 $105 $106 $107 forward $41 $-1 #
face $-1 $108 $109 $25 $-1 $110 reversed single #
loop $-1 $-1 $111 $43 #
plane-surface $-1 -39.217015433679649 -18.447239533409437 0 0 -1 0 0 0 -1 forward_v I I I I #
coedge $-1 $112 $113 $114 $115 forward $44 $-1 #
face $-1 $116 $117 $26 $-1 $118 reversed single #
loop $-1 $-1 $119 $46 #
plane-surface $-1 -67.926877651295513 5.0095844545464416 5.4017868931975244 -0.79863551827123203 0 0.60181501223851219 0.60181501223851219 0 0.79863551827123203 forward_v I I I I #
coedge $-1 $120 $121 $122 $123 reversed $47 $-1 #
face $-1 $-1 $124 $27 $-1 $125 forward single #
loop $-1 $126 $127 $49 #
cone-surface $-1 -62.266087939493673 2.8454481640542966 9.2694643818540872 0.79863551827123203 0 -0.60181501223851219 0.15045375305962805 0 0.19965887956780801 1 I I -0.70710678118654746 0.70710678118654746 0.25 forward I I I I #
loop $-1 $-1 $128 $35 #
coedge $-1 $80 $80 $129 $130 reversed $50 $-1 #
face $-1 $-1 $131 $28 $-1 $132 forward single #
loop $-1 $133 $134 $52 #
cone-surface $-1 -62.266087939493673 5.0095844545464416 9.2694643818540872 0.79863551827123203 0 -0.60181501223851219 0.15045375305962805 0 0.19965887956780801 1 I I -0.70710678118654746 0.70710678118654746 0.25 forward I I I I #
loop $-1 $-1 $135 $36 #
coedge $-1 $85 $85 $136 $137 reversed $53 $-1 #
face $-1 $-1 $138 $29 $-1 $139 forward single #
loop $-1 $140 $141 $55 #
cone-surface $-1 -62.266087939493673 7.1737207450385867 9.2694643818540872 0.79863551827123203 0 -0.60181501223851219 0.15045375305962805 0 0.19965887956780801 1 I I -0.70710678118654746 0.70710678118654746 0.25 forward I I I I #
loop $-1 $-1 $142 $37 #
coedge $-1 $90 $90 $143 $144 reversed $56 $-1 #
face $-1 $145 $146 $30 $-1 $147 reversed single #
loop $-1 $-1 $148 $58 #
plane-surface $-1 -43.358003025969509 -10.269259443634461 80.917224247792547 0.57357644374324357 0 0.81915203911291934 0.81915203911291934 0 -0.57357644374324357 forward_v I I I I #
coedge $-1 $149 $150 $151 $152 reversed $59 $-1 #
face $-1 $-1 $153 $31 $-1 $154 forward single #
loop $-1 $155 $156 $61 #
cone-surface $-1 55.568628138555283 -10.269259443634461 4.7719301131247622 -0.57357644374324357 0 -0.81915203911291934 0.81915203911291934 0 -0.57357644374324357 1 I I -0.70710678118654746 0.70710678118654746 1 forward I I I I #
loop $-1 $-1 $157 $39 #
coedge $-1 $99 $99 $158 $159 reversed $62 $-1 #
face $-1 $160 $161 $24 $-1 $162 reversed single #
loop $-1 $-1 $163 $64 #
plane-surface $-1 0 -36.690298619419359 0 0 1 0 0 0 1 forward_v I I I I #
coedge $-1 $164 $165 $166 $167 forward $65 $-1 #
coedge $-1 $168 $67 $169 $170 forward $41 $-1 #
coedge $-1 $67 $168 $171 $172 forward $41 $-1 #
coedge $-1 $173 $174 $67 $107 reversed $175 $-1 #
edge $-1 $176 -36.690298619419359 $177 36.690298619419359 $106 $178 forward 7 unknown #
face $-1 $179 $180 $25 $-1 $181 forward single #
loop $-1 $-1 $182 $68 #
plane-surface $-1 -36.372795339968945 -27.568769076414398 0 -1 0 0 0 0 1 forward_v I I I I #
coedge $-1 $183 $184 $185 $186 forward $69 $-1 #
coedge $-1 $187 $71 $188 $189 reversed $44 $-1 #
coedge $-1 $71 $187 $190 $191 reversed $44 $-1 #
coedge $-1 $184 $183 $71 $115 reversed $69 $-1 #
edge $-1 $192 -15.777041155663282 $193 15.777041155663282 $114 $194 forward 7 unknown #
face $-1 $195 $196 $26 $-1 $197 reversed single #
loop $-1 $-1 $198 $72 #
plane-surface $-1 -176.42451192647343 8.6164782720333477 87.160616303274182 0 -1 0 0.79863551827123203 0 -0.60181501223851219 forward_v I I I I #
coedge $-1 $199 $200 $201 $202 reversed $73 $-1 #
coedge $-1 $121 $75 $203 $204 reversed $47 $-1 #
coedge $-1 $75 $120 $199 $205 reversed $47 $-1 #
coedge $-1 $201 $206 $75 $123 forward $207 $-1 #
edge $-1 $208 20.285378311941201 $209 28.103692959979341 $122 $210 forward 7 unknown #
loop $-1 $-1 $129 $76 #
plane-surface $-1 -67.926877651295513 5.0095844545464416 5.4017868931975244 -0.79863551827123203 0 0.60181501223851219 0.60181501223851219 0 0.79863551827123203 forward_v I I I I #
loop $-1 $-1 $211 $49 #
coedge $-1 $127 $127 $128 $212 reversed $77 $-1 #
coedge $-1 $128 $128 $127 $212 forward $79 $-1 #
coedge $-1 $129 $129 $80 $130 forward $124 $-1 #
edge $-1 $213 0 $213 6.2831853071796004 $129 $214 forward 7 unknown #
loop $-1 $-1 $136 $81 #
plane-surface $-1 -67.926877651295513 5.0095844545464416 5.4017868931975244 -0.79863551827123203 0 0.60181501223851219 0.60181501223851219 0 0.79863551827123203 forward_v I I I I #
loop $-1 $-1 $215 $52 #
coedge $-1 $134 $134 $135 $216 reversed $82 $-1 #
coedge $-1 $135 $135 $134 $216 forward $84 $-1 #
coedge $-1 $136 $136 $85 $137 forward $131 $-1 #
edge $-1 $217 0 $217 6.2831853071796004 $136 $218 forward 7 unknown #
loop $-1 $-1 $143 $86 #
plane-surface $-1 -67.926877651295513 5.0095844545464416 5.4017868931975244 -0.79863551827123203 0 0.60181501223851219 0.60181501223851219 0 0.79863551827123203 forward_v I I I I #
loop $-1 $-1 $219 $55 #
coedge $-1 $141 $141 $142 $220 reversed $87 $-1 #
coedge $-1 $142 $142 $141 $220 forward $89 $-1 #
coedge $-1 $143 $143 $90 $144 forward $138 $-1 #
edge $-1 $221 0 $221 6.2831853071796004 $143 $222 forward 7 unknown #
face $-1 $223 $224 $30 $-1 $225 forward single #
loop $-1 $-1 $226 $91 #
plane-surface $-1 34.564510809655474 -18.447239533409437 192.20210492505757 0 1 0 0.57357644374324357 0 0.81915203911291934 forward_v I I I I #
coedge $-1 $227 $228 $229 $230 reversed $92 $-1 #
coedge $-1 $150 $94 $231 $232 reversed $59 $-1 #
coedge $-1 $94 $149 $227 $233 reversed $59 $-1 #
coedge $-1 $229 $234 $94 $152 forward $224 $-1 #
edge $-1 $235 -50.644622246467776 $236 -32.389562424245753 $151 $237 forward 7 unknown #
loop $-1 $-1 $158 $95 #
plane-surface $-1 -43.358003025969509 -10.269259443634461 80.917224247792547 0.57357644374324357 0 0.81915203911291934 0.81915203911291934 0 -0.57357644374324357 forward_v I I I I #
loop $-1 $-1 $238 $61 #
coedge $-1 $156 $156 $157 $239 reversed $96 $-1 #
coedge $-1 $157 $157 $156 $239 forward $98 $-1 #
coedge $-1 $158 $158 $99 $159 forward $153 $-1 #
edge $-1 $240 0 $240 6.2831853071796004 $158 $241 forward 7 unknown #
face $-1 $242 $243 $24 $-1 $244 reversed single #
loop $-1 $-1 $245 $100 #
plane-surface $-1 -67.926877651295513 0 0 1 0 0 0 0 -1 forward_v I I I I #
coedge $-1 $246 $171 $247 $248 forward $101 $-1 #
coedge $-1 $249 $103 $246 $250 forward $65 $-1 #
coedge $-1 $103 $249 $251 $252 forward $65 $-1 #
coedge $-1 $174 $173 $103 $167 reversed $175 $-1 #
edge $-1 $253 -36.690298619419359 $254 36.690298619419359 $166 $255 forward 7 unknown #
coedge $-1 $105 $104 $256 $257 forward $41 $-1 #
coedge $-1 $258 $259 $104 $170 reversed $243 $-1 #
edge $-1 $177 -67.926877651295513 $260 67.926877651295513 $169 $261 forward 7 unknown #
coedge $-1 $163 $262 $105 $172 reversed $101 $-1 #
edge $-1 $263 -67.926877651295513 $176 67.926877651295513 $171 $264 forward 7 unknown #
coedge $-1 $166 $106 $262 $265 forward $175 $-1 #
coedge $-1 $106 $166 $258 $266 reversed $175 $-1 #
loop $-1 $-1 $173 $242 #
vertex $-1 $107 $267 #
vertex $-1 $107 $268 #
straight-curve $-1 67.926877651295513 0 15.777041155663282 0 1 0 I I #
face $-1 $269 $270 $25 $-1 $271 reversed single #
loop $-1 $-1 $272 $108 #
plane-surface $-1 0 0 15.777041155663282 0 0 1 1 0 0 forward_v I I I I #
coedge $-1 $273 $274 $275 $276 reversed $109 $-1 #
coedge $-1 $114 $111 $277 $278 reversed $69 $-1 #
coedge $-1 $111 $114 $279 $280 reversed $69 $-1 #
coedge $-1 $274 $273 $111 $186 reversed $109 $-1 #
edge $-1 $281 -15.777041155663282 $282 15.777041155663282 $185 $283 forward 7 unknown #
coedge $-1 $113 $112 $284 $285 reversed $44 $-1 #
coedge $-1 $277 $286 $112 $189 forward $270 $-1 #
edge $-1 $287 -22.90591408121216 $193 -4.6628549952022382 $188 $288 forward 7 unknown #
coedge $-1 $289 $279 $113 $191 forward $180 $-1 #
edge $-1 $192 4.6628549952022382 $290 22.90591408121216 $190 $291 forward 7 unknown #
vertex $-1 $191 $292 #
vertex $-1 $189 $293 #
straight-curve $-1 -42.061235527390352 -18.447239533409437 0 0 0 -1 I I #
face $-1 $-1 $207 $26 $-1 $294 forward single #
loop $-1 $-1 $295 $116 #
plane-surface $-1 -67.926877651295513 0 0 1 0 0 0 0 -1 forward_v I I I I #
coedge $-1 $296 $297 $298 $299 reversed $117 $-1 #
coedge $-1 $300 $119 $121 $205 forward $73 $-1 #
coedge $-1 $119 $300 $296 $301 forward $73 $-1 #
coedge $-1 $298 $122 $119 $202 forward $207 $-1 #
edge $-1 $209 -1.1021015902136853 $302 6.1116860447601269 $201 $303 forward 7 unknown #
coedge $-1 $304 $305 $120 $204 forward $196 $-1 #
edge $-1 $306 -38.178521258439567 $208 -27.803266995973807 $203 $307 forward 7 unknown #
edge $-1 $209 -12.99122569069376 $306 0 $121 $308 forward 7 unknown #
coedge $-1 $122 $298 $304 $309 forward $207 $-1 #
loop $-1 $-1 $298 $195 #
vertex $-1 $204 $310 #
vertex $-1 $123 $311 #
straight-curve $-1 -88.212255963236714 1.4026906370595356 15.777041155663284 1 0 0 I I #
coedge $-1 $211 $211 $-1 $312 reversed $126 $-1 #
edge $-1 $313 0 $313 6.2831853071796004 $127 $314 forward 7 unknown #
vertex $-1 $130 $315 #
ellipse-curve $-1 -64.017720327276436 2.8454481640542966 10.589414024430402 -0.79863551827123203 0 0.60181501223851219 0.3009075061192561 0 0.39931775913561601 1 I I #
coedge $-1 $215 $215 $-1 $316 reversed $133 $-1 #
edge $-1 $317 0 $317 6.2831853071796004 $134 $318 forward 7 unknown #
vertex $-1 $137 $319 #
ellipse-curve $-1 -64.017720327276436 5.0095844545464416 10.589414024430402 -0.79863551827123203 0 0.60181501223851219 0.3009075061192561 0 0.39931775913561601 1 I I #
coedge $-1 $219 $219 $-1 $320 reversed $140 $-1 #
edge $-1 $321 0 $321 6.2831853071796004 $141 $322 forward 7 unknown #
vertex $-1 $144 $323 #
ellipse-curve $-1 -64.017720327276436 7.1737207450385867 10.589414024430402 -0.79863551827123203 0 0.60181501223851219 0.3009075061192561 0 0.39931775913561601 1 I I #
face $-1 $-1 $324 $30 $-1 $325 reversed single #
loop $-1 $-1 $151 $145 #
plane-surface $-1 0 0 15.777041155663282 0 0 1 1 0 0 forward_v I I I I #
coedge $-1 $326 $327 $328 $329 reversed $146 $-1 #
coedge $-1 $330 $148 $150 $233 forward $92 $-1 #
coedge $-1 $148 $330 $326 $331 forward $92 $-1 #
coedge $-1 $328 $151 $148 $230 forward $224 $-1 #
edge $-1 $236 -3.043350367957748 $332 13.312609811592207 $229 $333 forward 7 unknown #
coedge $-1 $334 $335 $149 $232 forward $324 $-1 #
edge $-1 $336 -93.106342050361221 $235 -80.324011306865501 $231 $337 forward 7 unknown #
edge $-1 $236 113.56844201448533 $336 135.85375530259103 $150 $338 forward 7 unknown #
coedge $-1 $151 $328 $334 $339 forward $224 $-1 #
vertex $-1 $232 $340 #
vertex $-1 $152 $341 #
straight-curve $-1 17.282255404827737 -2.0912793538594823 15.777041155663284 -1 0 0 I I #
coedge $-1 $238 $238 $-1 $342 reversed $155 $-1 #
edge $-1 $343 0 $343 6.2831853071796004 $156 $344 forward 7 unknown #
vertex $-1 $159 $345 #
ellipse-curve $-1 58.799347740184501 -10.269259443634461 9.3858757839154396 0.57357644374324357 0 0.81915203911291934 1.6383040782258387 0 -1.1471528874864871 1 I I #
face $-1 $-1 $175 $24 $-1 $346 reversed single #
loop $-1 $-1 $258 $160 #
plane-surface $-1 0 36.690298619419359 0 0 -1 0 0 0 -1 forward_v I I I I #
coedge $-1 $347 $256 $259 $348 forward $161 $-1 #
coedge $-1 $262 $163 $164 $250 reversed $101 $-1 #
coedge $-1 $256 $347 $163 $248 reversed $161 $-1 #
edge $-1 $263 -15.777041155663282 $349 15.777041155663282 $247 $350 forward 7 unknown #
coedge $-1 $165 $164 $347 $351 forward $65 $-1 #
edge $-1 $254 -67.926877651295513 $349 67.926877651295513 $246 $352 forward 7 unknown #
coedge $-1 $259 $258 $165 $252 reversed $243 $-1 #
edge $-1 $353 -67.926877651295513 $253 67.926877651295513 $251 $354 forward 7 unknown #
vertex $-1 $167 $355 #
vertex $-1 $265 $356 #
straight-curve $-1 67.926877651295513 0 -15.777041155663282 0 -1 0 I I #
coedge $-1 $245 $247 $168 $257 reversed $161 $-1 #
edge $-1 $260 -36.690298619419359 $263 36.690298619419359 $256 $357 forward 7 unknown #
coedge $-1 $251 $169 $174 $266 forward $243 $-1 #
coedge $-1 $169 $251 $245 $348 reversed $243 $-1 #
vertex $-1 $170 $358 #
straight-curve $-1 0 36.690298619419359 15.777041155663282 -1 0 0 I I #
coedge $-1 $171 $246 $173 $265 reversed $101 $-1 #
vertex $-1 $257 $359 #
straight-curve $-1 0 -36.690298619419359 15.777041155663282 1 0 0 I I #
edge $-1 $176 -15.777041155663282 $254 15.777041155663282 $173 $360 forward 7 unknown #
edge $-1 $177 -15.777041155663282 $253 15.777041155663282 $174 $361 forward 7 unknown #
point $-1 67.926877651295513 -36.690298619419359 15.777041155663282 #
point $-1 67.926877651295513 36.690298619419359 15.777041155663282 #
face $-1 $-1 $362 $25 $-1 $363 reversed single #
loop $-1 $-1 $364 $179 #
plane-surface $-1 0 0 -15.777041155663282 0 0 1 1 0 0 forward_v I I I I #
coedge $-1 $279 $289 $274 $365 forward $180 $-1 #
coedge $-1 $185 $182 $364 $366 reversed $109 $-1 #
coedge $-1 $182 $185 $272 $365 reversed $109 $-1 #
coedge $-1 $367 $368 $182 $276 forward $362 $-1 #
edge $-1 $369 -15.777041155663282 $370 15.777041155663282 $275 $371 forward 7 unknown #
coedge $-1 $364 $188 $183 $278 forward $270 $-1 #
edge $-1 $193 -22.452727810550527 $282 -16.764287623129121 $277 $372 forward 7 unknown #
coedge $-1 $190 $272 $184 $280 forward $180 $-1 #
edge $-1 $281 16.764287623129121 $192 22.452727810550527 $279 $373 forward 7 unknown #
vertex $-1 $280 $374 #
vertex $-1 $278 $375 #
straight-curve $-1 -36.372795339968945 -18.447239533409437 0 0 0 -1 I I #
coedge $-1 $368 $367 $187 $285 forward $362 $-1 #
edge $-1 $290 -15.777041155663282 $287 15.777041155663282 $284 $376 forward 7 unknown #
coedge $-1 $188 $364 $368 $377 forward $270 $-1 #
vertex $-1 $189 $378 #
straight-curve $-1 -42.061235527390352 -13.784384538207199 -15.777041155663282 0 1 0 I I #
coedge $-1 $272 $190 $367 $379 forward $180 $-1 #
vertex $-1 $379 $380 #
straight-curve $-1 -42.061235527390352 -13.784384538207199 15.777041155663282 0 -1 0 I I #
point $-1 -42.061235527390352 -18.447239533409437 15.777041155663282 #
point $-1 -42.061235527390352 -18.447239533409437 -15.777041155663282 #
plane-surface $-1 0 0 15.777041155663282 0 0 1 1 0 0 forward_v I I I I #
coedge $-1 $305 $304 $297 $381 forward $196 $-1 #
coedge $-1 $297 $198 $200 $301 reversed $117 $-1 #
coedge $-1 $198 $296 $295 $381 reversed $117 $-1 #
coedge $-1 $206 $201 $198 $299 forward $207 $-1 #
edge $-1 $302 -28.103692959979341 $382 -20.285378311941201 $298 $383 forward 7 unknown #
coedge $-1 $200 $199 $305 $384 reversed $73 $-1 #
edge $-1 $385 0 $302 12.99122569069376 $296 $386 forward 7 unknown #
vertex $-1 $202 $387 #
straight-curve $-1 -60.108563003257366 2.5047922272732208 15.777041155663282 0 1 0 I I #
coedge $-1 $295 $203 $206 $309 reversed $196 $-1 #
coedge $-1 $203 $295 $300 $384 forward $196 $-1 #
vertex $-1 $204 $388 #
straight-curve $-1 -67.926877651295513 1.4026906370595356 43.580308151637091 0 0 1 I I #
straight-curve $-1 -67.926877651295513 1.4026906370595356 5.4017868931975244 -0.60181501223851219 0 -0.79863551827123203 I I #
edge $-1 $382 -8.6164782720333477 $208 -1.4026906370595356 $304 $389 forward 7 unknown #
point $-1 -67.926877651295513 1.4026906370595356 15.777041155663282 #
point $-1 -60.108563003257373 1.4026906370595356 15.777041155663282 #
edge $-1 $390 1 $390 0 $211 $-1 forward 7 unknown #
vertex $-1 $212 $391 #
ellipse-curve $-1 -62.465746819061479 2.8454481640542966 9.4199181349137149 -0.79863551827123203 0 0.60181501223851219 0.3009075061192561 0 0.39931775913561601 1 I I #
point $-1 -63.716812821157191 2.8454481640542966 10.988731783566021 #
edge $-1 $392 1 $392 0 $215 $-1 forward 7 unknown #
vertex $-1 $216 $393 #
ellipse-curve $-1 -62.465746819061479 5.0095844545464416 9.4199181349137149 -0.79863551827123203 0 0.60181501223851219 0.3009075061192561 0 0.39931775913561601 1 I I #
point $-1 -63.716812821157191 5.0095844545464416 10.988731783566021 #
edge $-1 $394 1 $394 0 $219 $-1 forward 7 unknown #
vertex $-1 $220 $395 #
ellipse-curve $-1 -62.465746819061479 7.1737207450385867 9.4199181349137149 -0.79863551827123203 0 0.60181501223851219 0.3009075061192561 0 0.39931775913561601 1 I I #
point $-1 -63.716812821157191 7.1737207450385867 10.988731783566021 #
loop $-1 $-1 $231 $223 #
plane-surface $-1 67.926877651295513 0 0 -1 0 0 0 0 1 forward_v I I I I #
coedge $-1 $327 $226 $228 $331 reversed $146 $-1 #
coedge $-1 $226 $326 $396 $397 reversed $146 $-1 #
coedge $-1 $234 $229 $226 $329 forward $224 $-1 #
edge $-1 $332 32.389562424245753 $398 50.644622246467776 $328 $399 forward 7 unknown #
coedge $-1 $228 $227 $335 $400 reversed $92 $-1 #
edge $-1 $401 -135.85375530259103 $332 -113.56844201448533 $326 $402 forward 7 unknown #
vertex $-1 $230 $403 #
straight-curve $-1 49.671817829073468 -5.1346297218172303 15.777041155663291 0 -1 0 I I #
coedge $-1 $396 $231 $234 $339 reversed $324 $-1 #
coedge $-1 $231 $396 $330 $400 forward $324 $-1 #
vertex $-1 $232 $404 #
straight-curve $-1 67.926877651295513 -2.0912793538594823 96.101052462528784 0 0 1 I I #
straight-curve $-1 -43.358003025969509 -2.0912793538594823 80.917224247792547 0.81915203911291934 0 -0.57357644374324357 I I #
edge $-1 $398 -18.447239533409437 $235 -2.0912793538594823 $334 $405 forward 7 unknown #
point $-1 67.926877651295513 -2.0912793538594823 15.777041155663282 #
point $-1 49.67181782907349 -2.0912793538594823 15.777041155663284 #
edge $-1 $406 1 $406 0 $238 $-1 forward 7 unknown #
vertex $-1 $239 $407 #
ellipse-curve $-1 56.142204582298525 -10.269259443634461 5.5910821522376812 0.57357644374324357 0 0.81915203911291934 1.6383040782258387 0 -1.1471528874864871 1 I I #
point $-1 60.43765181841033 -10.269259443634461 8.2387228964289427 #
plane-surface $-1 67.926877651295513 0 0 -1 0 0 0 0 1 forward_v I I I I #
coedge $-1 $247 $245 $249 $351 reversed $161 $-1 #
edge $-1 $260 -15.777041155663282 $353 15.777041155663282 $259 $408 forward 7 unknown #
vertex $-1 $351 $409 #
straight-curve $-1 -67.926877651295513 -36.690298619419359 0 0 0 -1 I I #
edge $-1 $349 -36.690298619419359 $353 36.690298619419359 $347 $410 forward 7 unknown #
straight-curve $-1 0 -36.690298619419359 -15.777041155663282 -1 0 0 I I #
vertex $-1 $252 $411 #
straight-curve $-1 0 36.690298619419359 -15.777041155663282 1 0 0 I I #
point $-1 67.926877651295513 36.690298619419359 -15.777041155663282 #
point $-1 67.926877651295513 -36.690298619419359 -15.777041155663282 #
straight-curve $-1 -67.926877651295513 0 15.777041155663282 0 -1 0 I I #
point $-1 -67.926877651295513 36.690298619419359 15.777041155663282 #
point $-1 -67.926877651295513 -36.690298619419359 15.777041155663282 #
straight-curve $-1 67.926877651295513 -36.690298619419359 0 0 0 -1 I I #
straight-curve $-1 67.926877651295513 36.690298619419359 0 0 0 -1 I I #
loop $-1 $-1 $275 $269 #
plane-surface $-1 0 -36.690298619419359 0 0 1 0 0 0 1 forward_v I I I I #
coedge $-1 $286 $277 $273 $366 forward $270 $-1 #
edge $-1 $370 -22.90591408121216 $281 -4.6628549952022382 $272 $412 forward 7 unknown #
edge $-1 $282 4.6628549952022382 $369 22.90591408121216 $364 $413 forward 7 unknown #
coedge $-1 $284 $275 $289 $379 reversed $362 $-1 #
coedge $-1 $275 $284 $286 $377 reversed $362 $-1 #
vertex $-1 $377 $414 #
vertex $-1 $276 $415 #
straight-curve $-1 -36.372795339968945 -36.690298619419359 0 0 0 1 I I #
straight-curve $-1 -19.608507716839824 -18.447239533409437 -15.777041155663282 1 0 0 I I #
straight-curve $-1 -19.608507716839824 -18.447239533409437 15.777041155663282 -1 0 0 I I #
point $-1 -36.372795339968945 -18.447239533409437 15.777041155663282 #
point $-1 -36.372795339968945 -18.447239533409437 -15.777041155663282 #
straight-curve $-1 -42.061235527390352 -36.690298619419359 0 0 0 -1 I I #
edge $-1 $369 36.372795339968945 $287 42.061235527390352 $368 $416 forward 7 unknown #
point $-1 -42.061235527390352 -36.690298619419359 -15.777041155663282 #
edge $-1 $290 -42.061235527390352 $370 -36.372795339968945 $367 $417 forward 7 unknown #
point $-1 -42.061235527390352 -36.690298619419359 15.777041155663282 #
edge $-1 $382 27.803266995973807 $385 38.178521258439567 $295 $418 forward 7 unknown #
vertex $-1 $309 $419 #
straight-curve $-1 -88.212255963236714 8.6164782720333477 15.777041155663284 -1 0 0 I I #
edge $-1 $385 -6.1116860447601269 $306 1.1021015902136853 $305 $420 forward 7 unknown #
vertex $-1 $384 $421 #
straight-curve $-1 -67.926877651295513 8.6164782720333477 5.4017868931975244 0.60181501223851219 0 0.79863551827123203 I I #
point $-1 -60.108563003257373 8.6164782720333477 15.777041155663282 #
point $-1 -67.926877651295513 1.4026906370595356 5.4017868931975244 #
straight-curve $-1 -67.926877651295513 0 15.777041155663282 0 -1 0 I I #
vertex $-1 $312 $422 #
point $-1 -62.164839312942227 2.8454481640542966 9.8192358940493314 #
vertex $-1 $316 $423 #
point $-1 -62.164839312942227 5.0095844545464416 9.8192358940493314 #
vertex $-1 $320 $424 #
point $-1 -62.164839312942227 7.1737207450385867 9.8192358940493314 #
coedge $-1 $335 $334 $327 $397 forward $324 $-1 #
edge $-1 $398 80.324011306865501 $401 93.106342050361221 $396 $425 forward 7 unknown #
vertex $-1 $339 $426 #
straight-curve $-1 17.282255404827737 -18.447239533409437 15.777041155663284 1 0 0 I I #
edge $-1 $401 -13.312609811592207 $336 3.043350367957748 $335 $427 forward 7 unknown #
vertex $-1 $400 $428 #
straight-curve $-1 -43.358003025969509 -18.447239533409437 80.917224247792547 -0.81915203911291934 0 0.57357644374324357 I I #
point $-1 49.67181782907349 -18.447239533409437 15.777041155663284 #
point $-1 67.926877651295513 -2.0912793538594823 2.9947104121675636 #
straight-curve $-1 67.926877651295513 0 15.777041155663282 0 1 0 I I #
vertex $-1 $342 $429 #
point $-1 57.780508660524362 -10.269259443634461 4.4439292647511941 #
straight-curve $-1 -67.926877651295513 36.690298619419359 0 0 0 -1 I I #
point $-1 -67.926877651295513 -36.690298619419359 -15.777041155663282 #
straight-curve $-1 -67.926877651295513 0 -15.777041155663282 0 1 0 I I #
point $-1 -67.926877651295513 36.690298619419359 -15.777041155663282 #
straight-curve $-1 -36.372795339968945 -13.784384538207199 15.777041155663282 0 1 0 I I #
straight-curve $-1 -36.372795339968945 -13.784384538207199 -15.777041155663282 0 -1 0 I I #
point $-1 -36.372795339968945 -36.690298619419359 -15.777041155663282 #
point $-1 -36.372795339968945 -36.690298619419359 15.777041155663282 #
straight-curve $-1 0 -36.690298619419359 -15.777041155663282 -1 0 0 I I #
straight-curve $-1 0 -36.690298619419359 15.777041155663282 1 0 0 I I #
straight-curve $-1 -67.926877651295513 8.6164782720333477 43.580308151637091 0 0 -1 I I #
point $-1 -67.926877651295513 8.6164782720333477 15.777041155663282 #
straight-curve $-1 -67.926877651295513 2.5047922272732208 5.4017868931975244 0 -1 0 I I #
point $-1 -67.926877651295513 8.6164782720333477 5.4017868931975244 #
point $-1 -62.066429059925866 2.8454481640542966 9.1190106287944594 #
point $-1 -62.066429059925866 5.0095844545464416 9.1190106287944594 #
point $-1 -62.066429059925866 7.1737207450385867 9.1190106287944594 #
straight-curve $-1 67.926877651295513 -18.447239533409437 96.101052462528784 0 0 -1 I I #
point $-1 67.926877651295513 -18.447239533409437 15.777041155663282 #
straight-curve $-1 67.926877651295513 -5.1346297218172303 2.9947104121675636 0 1 0 I I #
point $-1 67.926877651295513 -18.447239533409437 2.9947104121675636 #
point $-1 54.995051694812041 -10.269259443634461 3.9527780740118428 #
End-of-ACIS-data 