500 0 12 0           
7 Unknown 11 ACIS 5.0 NT 24 Thu Mar 25 16:05:26 1999 
-1 9.9999999999999995e-007 1e-010 
body $-1 $12 $-1 $13 #
body $-1 $14 $-1 $15 #
body $-1 $16 $-1 $17 #
body $-1 $18 $-1 $19 #
body $-1 $20 $-1 $21 #
body $-1 $22 $-1 $23 #
body $-1 $24 $-1 $25 #
body $-1 $26 $-1 $27 #
body $-1 $28 $-1 $29 #
body $-1 $30 $-1 $31 #
body $-1 $32 $-1 $33 #
body $-1 $34 $-1 $35 #
lump $-1 $-1 $36 $0 #
transform $-1 1 0 0 0 1 0 0 0 1 48.458510086367383 32.038045135594864 12.977525115992416 1 rotate no_reflect no_shear #
lump $-1 $-1 $37 $1 #
transform $-1 1 0 0 0 1 0 0 0 1 48.458510086367383 32.038045135594864 12.977525115992416 1 rotate no_reflect no_shear #
lump $-1 $-1 $38 $2 #
transform $-1 1 0 0 0 1 0 0 0 1 48.458510086367383 32.038045135594864 12.977525115992416 1 rotate no_reflect no_shear #
lump $-1 $-1 $39 $3 #
transform $-1 1 0 0 0 1 0 0 0 1 48.458510086367383 32.038045135594864 12.977525115992416 1 rotate no_reflect no_shear #
lump $-1 $-1 $40 $4 #
transform $-1 1 0 0 0 1 0 0 0 1 48.458510086367383 32.038045135594864 12.977525115992416 1 rotate no_reflect no_shear #
lump $-1 $-1 $41 $5 #
transform $-1 1 0 0 0 1 0 0 0 1 48.458510086367383 32.038045135594864 12.977525115992416 1 rotate no_reflect no_shear #
lump $-1 $-1 $42 $6 #
transform $-1 1 0 0 0 1 0 0 0 1 48.458510086367383 32.038045135594864 12.977525115992416 1 rotate no_reflect no_shear #
lump $-1 $-1 $43 $7 #
transform $-1 1 0 0 0 1 0 0 0 1 48.458510086367383 32.038045135594864 12.977525115992416 1 rotate no_reflect no_shear #
lump $-1 $-1 $44 $8 #
transform $-1 1 0 0 0 1 0 0 0 1 48.458510086367383 32.038045135594864 12.977525115992416 1 rotate no_reflect no_shear #
lump $-1 $-1 $45 $9 #
transform $-1 1 0 0 0 1 0 0 0 1 48.458510086367383 32.038045135594864 12.977525115992416 1 rotate no_reflect no_shear #
lump $-1 $-1 $46 $10 #
transform $-1 1 0 0 0 1 0 0 0 1 48.458510086367383 32.038045135594864 12.977525115992416 1 rotate no_reflect no_shear #
lump $-1 $-1 $47 $11 #
transform $-1 1 0 0 0 1 0 0 0 1 48.458510086367383 32.038045135594864 12.977525115992416 1 rotate no_reflect no_shear #
shell $-1 $-1 $-1 $48 $-1 $12 #
shell $-1 $-1 $-1 $49 $-1 $14 #
shell $-1 $-1 $-1 $50 $-1 $16 #
shell $-1 $-1 $-1 $51 $-1 $18 #
shell $-1 $-1 $-1 $52 $-1 $20 #
shell $-1 $-1 $-1 $53 $-1 $22 #
shell $-1 $-1 $-1 $54 $-1 $24 #
shell $-1 $-1 $-1 $55 $-1 $26 #
shell $-1 $-1 $-1 $56 $-1 $28 #
shell $-1 $-1 $-1 $57 $-1 $30 #
shell $-1 $-1 $-1 $58 $-1 $32 #
shell $-1 $-1 $-1 $59 $-1 $34 #
face $-1 $60 $61 $36 $-1 $62 forward single #
face $-1 $63 $64 $37 $-1 $65 reversed single #
face $-1 $66 $67 $38 $-1 $68 forward single #
face $-1 $69 $70 $39 $-1 $71 reversed single #
face $-1 $72 $73 $40 $-1 $74 forward single #
face $-1 $75 $76 $41 $-1 $77 reversed single #
face $-1 $78 $79 $42 $-1 $80 forward single #
face $-1 $81 $82 $43 $-1 $83 reversed single #
face $-1 $84 $85 $44 $-1 $86 forward single #
face $-1 $87 $88 $45 $-1 $89 reversed single #
face $-1 $90 $91 $46 $-1 $92 forward single #
face $-1 $93 $94 $47 $-1 $95 forward single #
face $-1 $96 $97 $36 $-1 $98 reversed single #
loop $-1 $-1 $99 $48 #
plane-surface $-1 0 0 12.977525115992416 0 0 1 1 0 0 forward_v I I I I #
face $-1 $100 $101 $37 $-1 $102 reversed single #
loop $-1 $-1 $103 $49 #
plane-surface $-1 -110.75557058683526 -27.84943738937416 78.175960203704193 0 1 0 -0.64278761758704617 0 0.76604443648966558 forward_v I I I I #
face $-1 $104 $105 $38 $-1 $106 forward single #
loop $-1 $107 $108 $50 #
cone-surface $-1 -42.388283599089057 -23.583352711699341 7.6438666109893409 0.64278761758704617 0 -0.76604443648966558 1.1490666547344983 0 0.96418142638056925 1 I I 0 1 1.5 forward I I I I #
face $-1 $109 $110 $39 $-1 $111 reversed single #
loop $-1 $-1 $112 $51 #
plane-surface $-1 -110.75557058683526 -11.830414821576726 78.175960203704193 0 1 0 -0.64278761758704617 0 0.76604443648966558 forward_v I I I I #
face $-1 $113 $114 $40 $-1 $115 forward single #
loop $-1 $116 $117 $52 #
cone-surface $-1 -42.388283599089057 -7.5643301439019091 7.6438666109893409 0.64278761758704617 0 -0.76604443648966558 1.1490666547344983 0 0.96418142638056925 1 I I 0 1 1.5 forward I I I I #
face $-1 $118 $119 $41 $-1 $120 reversed single #
loop $-1 $-1 $121 $53 #
plane-surface $-1 -110.75557058683526 4.1886077462207059 78.175960203704193 0 1 0 -0.64278761758704617 0 0.76604443648966558 forward_v I I I I #
face $-1 $122 $123 $42 $-1 $124 forward single #
loop $-1 $125 $126 $54 #
cone-surface $-1 -42.388283599089057 8.4546924238955228 7.6438666109893409 0.64278761758704617 0 -0.76604443648966558 1.1490666547344983 0 0.96418142638056925 1 I I 0 1 1.5 forward I I I I #
face $-1 $127 $128 $43 $-1 $129 reversed single #
loop $-1 $-1 $130 $55 #
plane-surface $-1 -110.75557058683526 20.207630314018132 78.175960203704193 0 1 0 -0.64278761758704617 0 0.76604443648966558 forward_v I I I I #
face $-1 $131 $132 $44 $-1 $133 forward single #
loop $-1 $134 $135 $56 #
cone-surface $-1 -42.388283599089057 24.473714991692951 7.6438666109893409 0.64278761758704617 0 -0.76604443648966558 1.1490666547344983 0 0.96418142638056925 1 I I 0 1 1.5 forward I I I I #
face $-1 $136 $137 $45 $-1 $138 reversed single #
loop $-1 $-1 $139 $57 #
plane-surface $-1 76.95517206511613 -0.91492398216433735 134.89661358067073 0 -1 0 -0.83867057594974714 0 -0.54463902268945019 forward_v I I I I #
face $-1 $140 $141 $46 $-1 $142 forward single #
loop $-1 $143 $144 $58 #
cone-surface $-1 42.777388341192406 -8.9851607351661116 5.7759949239950128 -0.83867057594974714 0 -0.54463902268945019 0.81695853403417529 0 -1.2580058639246208 1 I I 0 1 1.5 forward I I I I #
face $-1 $145 $146 $47 $-1 $147 forward single #
loop $-1 $148 $149 $59 #
cone-surface $-1 42.777388341192406 -4.143018683365046 5.7759949239950128 -0.83867057594974714 0 -0.54463902268945019 0.81695853403417529 0 -1.2580058639246208 1 I I 0 1 1.5 forward I I I I #
face $-1 $150 $151 $36 $-1 $152 reversed single #
loop $-1 $-1 $153 $60 #
plane-surface $-1 0 0 -12.977525115992416 0 0 1 1 0 0 forward_v I I I I #
coedge $-1 $154 $155 $156 $157 forward $61 $-1 #
face $-1 $158 $159 $37 $-1 $160 reversed single #
loop $-1 $-1 $161 $63 #
plane-surface $-1 -48.45851008636739 -23.583352711699341 3.9332160992240404 -0.64278761758704617 0 0.76604443648966558 0.76604443648966558 0 0.64278761758704617 forward_v I I I I #
coedge $-1 $162 $163 $164 $165 reversed $64 $-1 #
face $-1 $-1 $166 $38 $-1 $167 forward single #
loop $-1 $168 $169 $66 #
cone-surface $-1 -41.22526016737487 -23.583352711699341 6.2578292870032062 0.64278761758704617 0 -0.76604443648966558 0.57453332736724916 0 0.48209071319028463 1 I I -0.70710678118654757 0.70710678118654757 0.75 forward I I I I #
loop $-1 $-1 $170 $50 #
coedge $-1 $108 $108 $171 $172 reversed $67 $-1 #
face $-1 $173 $174 $39 $-1 $175 reversed single #
loop $-1 $-1 $176 $69 #
plane-surface $-1 -48.45851008636739 -7.5643301439019091 3.9332160992240404 -0.64278761758704617 0 0.76604443648966558 0.76604443648966558 0 0.64278761758704617 forward_v I I I I #
coedge $-1 $177 $178 $179 $180 reversed $70 $-1 #
face $-1 $-1 $181 $40 $-1 $182 forward single #
loop $-1 $183 $184 $72 #
cone-surface $-1 -41.22526016737487 -7.5643301439019091 6.2578292870032062 0.64278761758704617 0 -0.76604443648966558 0.57453332736724916 0 0.48209071319028463 1 I I -0.70710678118654757 0.70710678118654757 0.75 forward I I I I #
loop $-1 $-1 $185 $52 #
coedge $-1 $117 $117 $186 $187 reversed $73 $-1 #
face $-1 $188 $189 $41 $-1 $190 reversed single #
loop $-1 $-1 $191 $75 #
plane-surface $-1 -48.45851008636739 8.4546924238955228 3.9332160992240404 -0.64278761758704617 0 0.76604443648966558 0.76604443648966558 0 0.64278761758704617 forward_v I I I I #
coedge $-1 $192 $193 $194 $195 reversed $76 $-1 #
face $-1 $-1 $196 $42 $-1 $197 forward single #
loop $-1 $198 $199 $78 #
cone-surface $-1 -41.22526016737487 8.4546924238955228 6.2578292870032062 0.64278761758704617 0 -0.76604443648966558 0.57453332736724916 0 0.48209071319028463 1 I I -0.70710678118654757 0.70710678118654757 0.75 forward I I I I #
loop $-1 $-1 $200 $54 #
coedge $-1 $126 $126 $201 $202 reversed $79 $-1 #
face $-1 $203 $204 $43 $-1 $205 reversed single #
loop $-1 $-1 $206 $81 #
plane-surface $-1 -48.45851008636739 24.473714991692951 3.9332160992240404 -0.64278761758704617 0 0.76604443648966558 0.76604443648966558 0 0.64278761758704617 forward_v I I I I #
coedge $-1 $207 $208 $209 $210 reversed $82 $-1 #
face $-1 $-1 $211 $44 $-1 $212 forward single #
loop $-1 $213 $214 $84 #
cone-surface $-1 -41.22526016737487 24.473714991692951 6.2578292870032062 0.64278761758704617 0 -0.76604443648966558 0.57453332736724916 0 0.48209071319028463 1 I I -0.70710678118654757 0.70710678118654757 0.75 forward I I I I #
loop $-1 $-1 $215 $56 #
coedge $-1 $135 $135 $216 $217 reversed $85 $-1 #
face $-1 $218 $219 $45 $-1 $220 reversed single #
loop $-1 $-1 $221 $87 #
plane-surface $-1 -4.3262810624845969 -6.5640897092655806 82.111822431818737 0.83867057594974714 0 0.54463902268945019 0.54463902268945019 0 -0.83867057594974714 forward_v I I I I #
coedge $-1 $222 $223 $224 $225 reversed $88 $-1 #
face $-1 $-1 $226 $46 $-1 $227 forward single #
loop $-1 $228 $229 $90 #
cone-surface $-1 40.411491147110226 -8.9851607351661116 4.2395633708677192 -0.83867057594974714 0 -0.54463902268945019 0.40847926701708764 0 -0.62900293196231039 1 I I -0.70710678118654757 0.70710678118654757 0.75 forward I I I I #
loop $-1 $-1 $230 $58 #
coedge $-1 $144 $144 $231 $232 reversed $91 $-1 #
face $-1 $-1 $233 $47 $-1 $234 forward single #
loop $-1 $235 $236 $93 #
cone-surface $-1 40.411491147110226 -4.143018683365046 4.2395633708677192 -0.83867057594974714 0 -0.54463902268945019 0.40847926701708764 0 -0.62900293196231039 1 I I -0.70710678118654757 0.70710678118654757 0.75 forward I I I I #
loop $-1 $-1 $237 $59 #
coedge $-1 $149 $149 $238 $239 reversed $94 $-1 #
face $-1 $240 $241 $36 $-1 $242 reversed single #
loop $-1 $-1 $243 $96 #
plane-surface $-1 0 -32.038045135594864 0 0 1 0 0 0 1 forward_v I I I I #
coedge $-1 $244 $245 $246 $247 forward $97 $-1 #
coedge $-1 $248 $99 $249 $250 forward $61 $-1 #
coedge $-1 $99 $248 $251 $252 forward $61 $-1 #
coedge $-1 $253 $254 $99 $157 reversed $255 $-1 #
edge $-1 $256 -32.038045135594864 $257 32.038045135594864 $156 $258 forward 7 unknown #
face $-1 $259 $260 $37 $-1 $261 reversed single #
loop $-1 $-1 $262 $100 #
plane-surface $-1 -110.75557058683526 -19.317268034024522 78.175960203704193 0 -1 0 0.64278761758704617 0 -0.76604443648966558 forward_v I I I I #
coedge $-1 $263 $264 $265 $266 reversed $101 $-1 #
coedge $-1 $163 $103 $267 $268 reversed $64 $-1 #
coedge $-1 $103 $162 $263 $269 reversed $64 $-1 #
coedge $-1 $265 $270 $103 $165 forward $271 $-1 #
edge $-1 $272 6.9192752070502479 $273 17.697862744559075 $164 $274 forward 7 unknown #
loop $-1 $-1 $171 $104 #
plane-surface $-1 -48.45851008636739 -23.583352711699341 3.9332160992240404 -0.64278761758704617 0 0.76604443648966558 0.76604443648966558 0 0.64278761758704617 forward_v I I I I #
loop $-1 $-1 $275 $66 #
coedge $-1 $169 $169 $170 $276 reversed $105 $-1 #
coedge $-1 $170 $170 $169 $276 forward $107 $-1 #
coedge $-1 $171 $171 $108 $172 forward $166 $-1 #
edge $-1 $277 0 $277 6.2831853071796004 $171 $278 forward 7 unknown #
face $-1 $279 $280 $39 $-1 $281 forward single #
loop $-1 $-1 $282 $109 #
plane-surface $-1 -110.75557058683526 -3.2982454662270921 78.175960203704193 0 -1 0 0.64278761758704617 0 -0.76604443648966558 forward_v I I I I #
coedge $-1 $283 $284 $285 $286 reversed $110 $-1 #
coedge $-1 $178 $112 $287 $288 reversed $70 $-1 #
coedge $-1 $112 $177 $283 $289 reversed $70 $-1 #
coedge $-1 $285 $290 $112 $180 forward $280 $-1 #
edge $-1 $291 6.9192752070502479 $292 17.697862744559075 $179 $293 forward 7 unknown #
loop $-1 $-1 $186 $113 #
plane-surface $-1 -48.45851008636739 -7.5643301439019091 3.9332160992240404 -0.64278761758704617 0 0.76604443648966558 0.76604443648966558 0 0.64278761758704617 forward_v I I I I #
loop $-1 $-1 $294 $72 #
coedge $-1 $184 $184 $185 $295 reversed $114 $-1 #
coedge $-1 $185 $185 $184 $295 forward $116 $-1 #
coedge $-1 $186 $186 $117 $187 forward $181 $-1 #
edge $-1 $296 0 $296 6.2831853071796004 $186 $297 forward 7 unknown #
face $-1 $298 $299 $41 $-1 $300 forward single #
loop $-1 $-1 $301 $118 #
plane-surface $-1 -110.75557058683526 12.72077710157034 78.175960203704193 0 -1 0 0.64278761758704617 0 -0.76604443648966558 forward_v I I I I #
coedge $-1 $302 $303 $304 $305 reversed $119 $-1 #
coedge $-1 $193 $121 $306 $307 reversed $76 $-1 #
coedge $-1 $121 $192 $302 $308 reversed $76 $-1 #
coedge $-1 $304 $309 $121 $195 forward $299 $-1 #
edge $-1 $310 6.9192752070502479 $311 17.697862744559075 $194 $312 forward 7 unknown #
loop $-1 $-1 $201 $122 #
plane-surface $-1 -48.45851008636739 8.4546924238955228 3.9332160992240404 -0.64278761758704617 0 0.76604443648966558 0.76604443648966558 0 0.64278761758704617 forward_v I I I I #
loop $-1 $-1 $313 $78 #
coedge $-1 $199 $199 $200 $314 reversed $123 $-1 #
coedge $-1 $200 $200 $199 $314 forward $125 $-1 #
coedge $-1 $201 $201 $126 $202 forward $196 $-1 #
edge $-1 $315 0 $315 6.2831853071796004 $201 $316 forward 7 unknown #
face $-1 $317 $318 $43 $-1 $319 forward single #
loop $-1 $-1 $320 $127 #
plane-surface $-1 -110.75557058683526 28.73979966936777 78.175960203704193 0 -1 0 0.64278761758704617 0 -0.76604443648966558 forward_v I I I I #
coedge $-1 $321 $322 $323 $324 reversed $128 $-1 #
coedge $-1 $208 $130 $325 $326 reversed $82 $-1 #
coedge $-1 $130 $207 $321 $327 reversed $82 $-1 #
coedge $-1 $323 $328 $130 $210 forward $318 $-1 #
edge $-1 $329 6.9192752070502479 $330 17.697862744559075 $209 $331 forward 7 unknown #
loop $-1 $-1 $216 $131 #
plane-surface $-1 -48.45851008636739 24.473714991692951 3.9332160992240404 -0.64278761758704617 0 0.76604443648966558 0.76604443648966558 0 0.64278761758704617 forward_v I I I I #
loop $-1 $-1 $332 $84 #
coedge $-1 $214 $214 $215 $333 reversed $132 $-1 #
coedge $-1 $215 $215 $214 $333 forward $134 $-1 #
coedge $-1 $216 $216 $135 $217 forward $211 $-1 #
edge $-1 $334 0 $334 6.2831853071796004 $216 $335 forward 7 unknown #
face $-1 $336 $337 $45 $-1 $338 forward single #
loop $-1 $-1 $339 $136 #
plane-surface $-1 76.95517206511613 -12.213255436366824 134.89661358067073 0 1 0 0.83867057594974714 0 0.54463902268945019 forward_v I I I I #
coedge $-1 $340 $341 $342 $343 reversed $137 $-1 #
coedge $-1 $223 $139 $344 $345 reversed $88 $-1 #
coedge $-1 $139 $222 $340 $346 reversed $88 $-1 #
coedge $-1 $342 $347 $139 $225 forward $337 $-1 #
edge $-1 $348 -9.9809240538093178 $349 -2.0924690876991221 $224 $350 forward 7 unknown #
loop $-1 $-1 $231 $140 #
plane-surface $-1 -4.3262810624845969 -6.5640897092655806 82.111822431818737 0.83867057594974714 0 0.54463902268945019 0.54463902268945019 0 -0.83867057594974714 forward_v I I I I #
loop $-1 $-1 $351 $90 #
coedge $-1 $229 $229 $230 $352 reversed $141 $-1 #
coedge $-1 $230 $230 $229 $352 forward $143 $-1 #
coedge $-1 $231 $231 $144 $232 forward $226 $-1 #
edge $-1 $353 0 $353 6.2831853071796004 $231 $354 forward 7 unknown #
loop $-1 $-1 $238 $145 #
plane-surface $-1 -4.3262810624845969 -6.5640897092655806 82.111822431818737 0.83867057594974714 0 0.54463902268945019 0.54463902268945019 0 -0.83867057594974714 forward_v I I I I #
loop $-1 $-1 $355 $93 #
coedge $-1 $236 $236 $237 $356 reversed $146 $-1 #
coedge $-1 $237 $237 $236 $356 forward $148 $-1 #
coedge $-1 $238 $238 $149 $239 forward $233 $-1 #
edge $-1 $357 0 $357 6.2831853071796004 $238 $358 forward 7 unknown #
face $-1 $359 $360 $36 $-1 $361 reversed single #
loop $-1 $-1 $362 $150 #
plane-surface $-1 -48.458510086367383 0 0 1 0 0 0 0 -1 forward_v I I I I #
coedge $-1 $363 $251 $364 $365 forward $151 $-1 #
coedge $-1 $366 $153 $363 $367 forward $97 $-1 #
coedge $-1 $153 $366 $368 $369 forward $97 $-1 #
coedge $-1 $254 $253 $153 $247 reversed $255 $-1 #
edge $-1 $370 -32.038045135594864 $371 32.038045135594864 $246 $372 forward 7 unknown #
coedge $-1 $155 $154 $373 $374 forward $61 $-1 #
coedge $-1 $375 $376 $154 $250 reversed $360 $-1 #
edge $-1 $257 -48.458510086367383 $377 48.458510086367383 $249 $378 forward 7 unknown #
coedge $-1 $243 $379 $155 $252 reversed $151 $-1 #
edge $-1 $380 -48.458510086367383 $256 48.458510086367383 $251 $381 forward 7 unknown #
coedge $-1 $246 $156 $379 $382 forward $255 $-1 #
coedge $-1 $156 $246 $375 $383 reversed $255 $-1 #
loop $-1 $-1 $253 $359 #
vertex $-1 $157 $384 #
vertex $-1 $157 $385 #
straight-curve $-1 48.458510086367383 0 12.977525115992416 0 1 0 I I #
face $-1 $-1 $271 $37 $-1 $386 forward single #
loop $-1 $-1 $387 $158 #
plane-surface $-1 -48.458510086367383 0 0 1 0 0 0 0 -1 forward_v I I I I #
coedge $-1 $388 $389 $390 $391 reversed $159 $-1 #
coedge $-1 $392 $161 $163 $269 forward $101 $-1 #
coedge $-1 $161 $392 $388 $393 forward $101 $-1 #
coedge $-1 $390 $164 $161 $266 forward $271 $-1 #
edge $-1 $273 -16.057761033524489 $394 -7.5255916781748518 $265 $395 forward 7 unknown #
coedge $-1 $396 $397 $162 $268 forward $260 $-1 #
edge $-1 $398 -35.154764002628049 $272 -26.110454985859683 $267 $399 forward 7 unknown #
edge $-1 $273 -14.070446861935071 $398 -9.1539886837149753e-015 $163 $400 forward 7 unknown #
coedge $-1 $164 $390 $396 $401 forward $271 $-1 #
loop $-1 $-1 $390 $259 #
vertex $-1 $268 $402 #
vertex $-1 $165 $403 #
straight-curve $-1 -55.377785293417631 -27.84943738937416 12.977525115992414 1 0 0 I I #
coedge $-1 $275 $275 $-1 $404 reversed $168 $-1 #
edge $-1 $405 0 $405 6.2831853071796004 $169 $406 forward 7 unknown #
vertex $-1 $172 $407 #
ellipse-curve $-1 -43.069216317612963 -23.583352711699341 8.4553706076082324 -0.64278761758704617 0 0.76604443648966558 1.1490666547344983 0 0.96418142638056925 1 I I #
face $-1 $-1 $408 $39 $-1 $409 reversed single #
loop $-1 $-1 $179 $173 #
plane-surface $-1 0 0 12.977525115992416 0 0 1 1 0 0 forward_v I I I I #
coedge $-1 $410 $411 $412 $413 reversed $174 $-1 #
coedge $-1 $414 $176 $178 $289 forward $110 $-1 #
coedge $-1 $176 $414 $410 $415 forward $110 $-1 #
coedge $-1 $412 $179 $176 $286 forward $280 $-1 #
edge $-1 $292 -8.0482497496257714 $416 0.48391960572386239 $285 $417 forward 7 unknown #
coedge $-1 $418 $419 $177 $288 forward $408 $-1 #
edge $-1 $420 -35.154764002628049 $291 -26.110454985859683 $287 $421 forward 7 unknown #
edge $-1 $292 -14.070446861935071 $420 -9.1539886837149753e-015 $178 $422 forward 7 unknown #
coedge $-1 $179 $412 $418 $423 forward $280 $-1 #
vertex $-1 $180 $424 #
vertex $-1 $180 $425 #
straight-curve $-1 -55.377785293417631 -11.830414821576726 12.977525115992414 1 0 0 I I #
coedge $-1 $294 $294 $-1 $426 reversed $183 $-1 #
edge $-1 $427 0 $427 6.2831853071796004 $184 $428 forward 7 unknown #
vertex $-1 $187 $429 #
ellipse-curve $-1 -43.069216317612963 -7.5643301439019091 8.4553706076082324 -0.64278761758704617 0 0.76604443648966558 1.1490666547344983 0 0.96418142638056925 1 I I #
face $-1 $-1 $430 $41 $-1 $431 reversed single #
loop $-1 $-1 $194 $188 #
plane-surface $-1 0 0 12.977525115992416 0 0 1 1 0 0 forward_v I I I I #
coedge $-1 $432 $433 $434 $435 reversed $189 $-1 #
coedge $-1 $436 $191 $193 $308 forward $119 $-1 #
coedge $-1 $191 $436 $432 $437 forward $119 $-1 #
coedge $-1 $434 $194 $191 $305 forward $299 $-1 #
edge $-1 $311 -0.038738465727055527 $438 8.4934308896225783 $304 $439 forward 7 unknown #
coedge $-1 $440 $441 $192 $307 forward $430 $-1 #
edge $-1 $442 -35.154764002628049 $310 -26.110454985859683 $306 $443 forward 7 unknown #
edge $-1 $311 -14.070446861935071 $442 -9.1539886837149753e-015 $193 $444 forward 7 unknown #
coedge $-1 $194 $434 $440 $445 forward $299 $-1 #
vertex $-1 $195 $446 #
vertex $-1 $195 $447 #
straight-curve $-1 -55.377785293417631 4.1886077462207059 12.977525115992414 1 0 0 I I #
coedge $-1 $313 $313 $-1 $448 reversed $198 $-1 #
edge $-1 $449 0 $449 6.2831853071796004 $199 $450 forward 7 unknown #
vertex $-1 $202 $451 #
ellipse-curve $-1 -43.069216317612963 8.4546924238955228 8.4553706076082324 -0.64278761758704617 0 0.76604443648966558 1.1490666547344983 0 0.96418142638056925 1 I I #
face $-1 $-1 $452 $43 $-1 $453 reversed single #
loop $-1 $-1 $209 $203 #
plane-surface $-1 0 0 12.977525115992416 0 0 1 1 0 0 forward_v I I I I #
coedge $-1 $454 $455 $456 $457 reversed $204 $-1 #
coedge $-1 $458 $206 $208 $327 forward $128 $-1 #
coedge $-1 $206 $458 $454 $459 forward $128 $-1 #
coedge $-1 $456 $209 $206 $324 forward $318 $-1 #
edge $-1 $330 7.9707728181716568 $460 16.502942173521294 $323 $461 forward 7 unknown #
coedge $-1 $462 $463 $207 $326 forward $452 $-1 #
edge $-1 $464 -35.154764002628049 $329 -26.110454985859683 $325 $465 forward 7 unknown #
edge $-1 $330 -14.070446861935071 $464 -9.1539886837149753e-015 $208 $466 forward 7 unknown #
coedge $-1 $209 $456 $462 $467 forward $318 $-1 #
vertex $-1 $210 $468 #
vertex $-1 $210 $469 #
straight-curve $-1 -55.377785293417631 20.207630314018132 12.977525115992414 1 0 0 I I #
coedge $-1 $332 $332 $-1 $470 reversed $213 $-1 #
edge $-1 $471 0 $471 6.2831853071796004 $214 $472 forward 7 unknown #
vertex $-1 $217 $473 #
ellipse-curve $-1 -43.069216317612963 24.473714991692951 8.4553706076082324 -0.64278761758704617 0 0.76604443648966558 1.1490666547344983 0 0.96418142638056925 1 I I #
face $-1 $-1 $474 $45 $-1 $475 reversed single #
loop $-1 $-1 $224 $218 #
plane-surface $-1 0 0 12.977525115992416 0 0 1 1 0 0 forward_v I I I I #
coedge $-1 $476 $477 $478 $479 reversed $219 $-1 #
coedge $-1 $480 $221 $223 $346 forward $137 $-1 #
coedge $-1 $221 $480 $476 $481 forward $137 $-1 #
coedge $-1 $478 $224 $221 $343 forward $337 $-1 #
edge $-1 $349 -2.3671208724684529 $482 8.9312105817340335 $342 $483 forward 7 unknown #
coedge $-1 $484 $485 $222 $345 forward $474 $-1 #
edge $-1 $486 -66.617937486117327 $348 -54.470781674342952 $344 $487 forward 7 unknown #
edge $-1 $349 82.433197608650602 $486 96.917020172734738 $223 $488 forward 7 unknown #
coedge $-1 $224 $478 $484 $489 forward $337 $-1 #
vertex $-1 $345 $490 #
vertex $-1 $225 $491 #
straight-curve $-1 38.477586032558065 -0.91492398216433735 12.977525115992414 -1 0 0 I I #
coedge $-1 $351 $351 $-1 $492 reversed $228 $-1 #
edge $-1 $493 0 $493 6.2831853071796004 $229 $494 forward 7 unknown #
vertex $-1 $232 $495 #
ellipse-curve $-1 44.514282603312282 -8.9851607351661116 6.9039472101052208 0.83867057594974714 0 0.54463902268945019 0.81695853403417529 0 -1.2580058639246208 1 I I #
coedge $-1 $355 $355 $-1 $496 reversed $235 $-1 #
edge $-1 $497 0 $497 6.2831853071796004 $236 $498 forward 7 unknown #
vertex $-1 $239 $499 #
ellipse-curve $-1 44.514282603312282 -4.143018683365046 6.9039472101052208 0.83867057594974714 0 0.54463902268945019 0.81695853403417529 0 -1.2580058639246208 1 I I #
face $-1 $-1 $255 $36 $-1 $500 reversed single #
loop $-1 $-1 $375 $240 #
plane-surface $-1 0 32.038045135594864 0 0 -1 0 0 0 -1 forward_v I I I I #
coedge $-1 $501 $373 $376 $502 forward $241 $-1 #
coedge $-1 $379 $243 $244 $367 reversed $151 $-1 #
coedge $-1 $373 $501 $243 $365 reversed $241 $-1 #
edge $-1 $380 -12.977525115992416 $503 12.977525115992416 $364 $504 forward 7 unknown #
coedge $-1 $245 $244 $501 $505 forward $97 $-1 #
edge $-1 $371 -48.458510086367383 $503 48.458510086367383 $363 $506 forward 7 unknown #
coedge $-1 $376 $375 $245 $369 reversed $360 $-1 #
edge $-1 $507 -48.458510086367383 $370 48.458510086367383 $368 $508 forward 7 unknown #
vertex $-1 $247 $509 #
vertex $-1 $382 $510 #
straight-curve $-1 48.458510086367383 0 -12.977525115992416 0 -1 0 I I #
coedge $-1 $362 $364 $248 $374 reversed $241 $-1 #
edge $-1 $377 -32.038045135594864 $380 32.038045135594864 $373 $511 forward 7 unknown #
coedge $-1 $368 $249 $254 $383 forward $360 $-1 #
coedge $-1 $249 $368 $362 $502 reversed $360 $-1 #
vertex $-1 $250 $512 #
straight-curve $-1 0 32.038045135594864 12.977525115992416 -1 0 0 I I #
coedge $-1 $251 $363 $253 $382 reversed $151 $-1 #
vertex $-1 $374 $513 #
straight-curve $-1 0 -32.038045135594864 12.977525115992416 1 0 0 I I #
edge $-1 $256 -12.977525115992416 $371 12.977525115992416 $253 $514 forward 7 unknown #
edge $-1 $257 -12.977525115992416 $370 12.977525115992416 $254 $515 forward 7 unknown #
point $-1 48.458510086367383 -32.038045135594864 12.977525115992416 #
point $-1 48.458510086367383 32.038045135594864 12.977525115992416 #
plane-surface $-1 0 0 12.977525115992416 0 0 1 1 0 0 forward_v I I I I #
coedge $-1 $397 $396 $389 $516 forward $260 $-1 #
coedge $-1 $389 $262 $264 $393 reversed $159 $-1 #
coedge $-1 $262 $388 $387 $516 reversed $159 $-1 #
coedge $-1 $270 $265 $262 $391 forward $271 $-1 #
edge $-1 $394 -17.697862744559075 $517 -6.9192752070502479 $390 $518 forward 7 unknown #
coedge $-1 $264 $263 $397 $519 reversed $101 $-1 #
edge $-1 $520 9.1539886837149753e-015 $394 14.070446861935071 $388 $521 forward 7 unknown #
vertex $-1 $266 $522 #
straight-curve $-1 -37.679922548858549 -11.79167635584967 12.977525115992416 0 1 0 I I #
coedge $-1 $387 $267 $270 $401 reversed $260 $-1 #
coedge $-1 $267 $387 $392 $519 forward $260 $-1 #
vertex $-1 $268 $523 #
straight-curve $-1 -48.458510086367383 -27.84943738937416 39.087980101852096 0 0 1 I I #
straight-curve $-1 -48.45851008636739 -27.84943738937416 3.9332160992240404 -0.76604443648966558 0 -0.64278761758704617 I I #
edge $-1 $517 19.317268034024522 $272 27.84943738937416 $396 $524 forward 7 unknown #
point $-1 -48.458510086367383 -27.84943738937416 12.977525115992416 #
point $-1 -37.679922548858556 -27.84943738937416 12.977525115992416 #
edge $-1 $525 1 $525 0 $275 $-1 forward 7 unknown #
vertex $-1 $276 $526 #
ellipse-curve $-1 -41.707350880565151 -23.583352711699341 6.8323626143704557 -0.64278761758704617 0 0.76604443648966558 1.1490666547344983 0 0.96418142638056925 1 I I #
point $-1 -41.920149662878465 -23.583352711699341 9.419552033988797 #
loop $-1 $-1 $287 $279 #
plane-surface $-1 -48.458510086367383 0 0 1 0 0 0 0 -1 forward_v I I I I #
coedge $-1 $411 $282 $284 $415 reversed $174 $-1 #
coedge $-1 $282 $410 $527 $528 reversed $174 $-1 #
coedge $-1 $290 $285 $282 $413 forward $280 $-1 #
edge $-1 $416 -17.697862744559075 $529 -6.9192752070502479 $412 $530 forward 7 unknown #
coedge $-1 $284 $283 $419 $531 reversed $110 $-1 #
edge $-1 $532 9.1539886837149753e-015 $416 14.070446861935071 $410 $533 forward 7 unknown #
vertex $-1 $286 $534 #
straight-curve $-1 -37.679922548858549 -3.7821650719509545 12.977525115992416 0 1 0 I I #
coedge $-1 $527 $287 $290 $423 reversed $408 $-1 #
coedge $-1 $287 $527 $414 $531 forward $408 $-1 #
vertex $-1 $288 $535 #
straight-curve $-1 -48.458510086367383 -11.830414821576726 39.087980101852096 0 0 1 I I #
straight-curve $-1 -48.45851008636739 -11.830414821576726 3.9332160992240404 -0.76604443648966558 0 -0.64278761758704617 I I #
edge $-1 $529 3.2982454662270921 $291 11.830414821576726 $418 $536 forward 7 unknown #
point $-1 -48.458510086367383 -11.830414821576726 12.977525115992416 #
point $-1 -37.679922548858556 -11.830414821576726 12.977525115992416 #
edge $-1 $537 1 $537 0 $294 $-1 forward 7 unknown #
vertex $-1 $295 $538 #
ellipse-curve $-1 -41.707350880565151 -7.5643301439019091 6.8323626143704557 -0.64278761758704617 0 0.76604443648966558 1.1490666547344983 0 0.96418142638056925 1 I I #
point $-1 -41.920149662878465 -7.5643301439019091 9.419552033988797 #
loop $-1 $-1 $306 $298 #
plane-surface $-1 -48.458510086367383 0 0 1 0 0 0 0 -1 forward_v I I I I #
coedge $-1 $433 $301 $303 $437 reversed $189 $-1 #
coedge $-1 $301 $432 $539 $540 reversed $189 $-1 #
coedge $-1 $309 $304 $301 $435 forward $299 $-1 #
edge $-1 $438 -17.697862744559075 $541 -6.9192752070502479 $434 $542 forward 7 unknown #
coedge $-1 $303 $302 $441 $543 reversed $119 $-1 #
edge $-1 $544 9.1539886837149753e-015 $438 14.070446861935071 $432 $545 forward 7 unknown #
vertex $-1 $305 $546 #
straight-curve $-1 -37.679922548858549 4.2273462119477614 12.977525115992416 0 1 0 I I #
coedge $-1 $539 $306 $309 $445 reversed $430 $-1 #
coedge $-1 $306 $539 $436 $543 forward $430 $-1 #
vertex $-1 $307 $547 #
straight-curve $-1 -48.458510086367383 4.1886077462207059 39.087980101852096 0 0 1 I I #
straight-curve $-1 -48.45851008636739 4.1886077462207059 3.9332160992240404 -0.76604443648966558 0 -0.64278761758704617 I I #
edge $-1 $541 -12.72077710157034 $310 -4.1886077462207059 $440 $548 forward 7 unknown #
point $-1 -48.458510086367383 4.1886077462207059 12.977525115992416 #
point $-1 -37.679922548858556 4.1886077462207059 12.977525115992416 #
edge $-1 $549 1 $549 0 $313 $-1 forward 7 unknown #
vertex $-1 $314 $550 #
ellipse-curve $-1 -41.707350880565151 8.4546924238955228 6.8323626143704557 -0.64278761758704617 0 0.76604443648966558 1.1490666547344983 0 0.96418142638056925 1 I I #
point $-1 -41.920149662878465 8.4546924238955228 9.419552033988797 #
loop $-1 $-1 $325 $317 #
plane-surface $-1 -48.458510086367383 0 0 1 0 0 0 0 -1 forward_v I I I I #
coedge $-1 $455 $320 $322 $459 reversed $204 $-1 #
coedge $-1 $320 $454 $551 $552 reversed $204 $-1 #
coedge $-1 $328 $323 $320 $457 forward $318 $-1 #
edge $-1 $460 -17.697862744559075 $553 -6.9192752070502479 $456 $554 forward 7 unknown #
coedge $-1 $322 $321 $463 $555 reversed $128 $-1 #
edge $-1 $556 9.1539886837149753e-015 $460 14.070446861935071 $454 $557 forward 7 unknown #
vertex $-1 $324 $558 #
straight-curve $-1 -37.679922548858549 12.236857495846476 12.977525115992416 0 1 0 I I #
coedge $-1 $551 $325 $328 $467 reversed $452 $-1 #
coedge $-1 $325 $551 $458 $555 forward $452 $-1 #
vertex $-1 $326 $559 #
straight-curve $-1 -48.458510086367383 20.207630314018132 39.087980101852096 0 0 1 I I #
straight-curve $-1 -48.45851008636739 20.207630314018132 3.9332160992240404 -0.76604443648966558 0 -0.64278761758704617 I I #
edge $-1 $553 -28.73979966936777 $329 -20.207630314018132 $462 $560 forward 7 unknown #
point $-1 -48.458510086367383 20.207630314018132 12.977525115992416 #
point $-1 -37.679922548858556 20.207630314018132 12.977525115992416 #
edge $-1 $561 1 $561 0 $332 $-1 forward 7 unknown #
vertex $-1 $333 $562 #
ellipse-curve $-1 -41.707350880565151 24.473714991692951 6.8323626143704557 -0.64278761758704617 0 0.76604443648966558 1.1490666547344983 0 0.96418142638056925 1 I I #
point $-1 -41.920149662878465 24.473714991692951 9.419552033988797 #
loop $-1 $-1 $344 $336 #
plane-surface $-1 48.458510086367383 0 0 -1 0 0 0 0 1 forward_v I I I I #
coedge $-1 $477 $339 $341 $481 reversed $219 $-1 #
coedge $-1 $339 $476 $563 $564 reversed $219 $-1 #
coedge $-1 $347 $342 $339 $479 forward $337 $-1 #
edge $-1 $482 2.0924690876991221 $565 9.9809240538093178 $478 $566 forward 7 unknown #
coedge $-1 $341 $340 $485 $567 reversed $137 $-1 #
edge $-1 $568 -96.917020172734738 $482 -82.433197608650602 $476 $569 forward 7 unknown #
vertex $-1 $343 $570 #
straight-curve $-1 40.570055120257194 -3.2820448546327903 12.977525115992421 0 -1 0 I I #
coedge $-1 $563 $344 $347 $489 reversed $474 $-1 #
coedge $-1 $344 $563 $480 $567 forward $474 $-1 #
vertex $-1 $345 $571 #
straight-curve $-1 48.458510086367383 -0.91492398216433735 67.448306790335366 0 0 1 I I #
straight-curve $-1 -4.3262810624845969 -0.91492398216433735 82.111822431818737 0.54463902268945019 0 -0.83867057594974714 I I #
edge $-1 $565 -12.213255436366824 $348 -0.91492398216433735 $484 $572 forward 7 unknown #
point $-1 48.458510086367383 -0.91492398216433735 12.977525115992416 #
point $-1 40.570055120257187 -0.91492398216433735 12.977525115992421 #
edge $-1 $573 1 $573 0 $351 $-1 forward 7 unknown #
vertex $-1 $352 $574 #
ellipse-curve $-1 41.040494079072538 -8.9851607351661116 4.6480426378848065 0.83867057594974714 0 0.54463902268945019 0.81695853403417529 0 -1.2580058639246208 1 I I #
point $-1 45.331241137346453 -8.9851607351661116 5.6459413461805967 #
edge $-1 $575 1 $575 0 $355 $-1 forward 7 unknown #
vertex $-1 $356 $576 #
ellipse-curve $-1 41.040494079072538 -4.143018683365046 4.6480426378848065 0.83867057594974714 0 0.54463902268945019 0.81695853403417529 0 -1.2580058639246208 1 I I #
point $-1 45.331241137346453 -4.143018683365046 5.6459413461805967 #
plane-surface $-1 48.458510086367383 0 0 -1 0 0 0 0 1 forward_v I I I I #
coedge $-1 $364 $362 $366 $505 reversed $241 $-1 #
edge $-1 $377 -12.977525115992416 $507 12.977525115992416 $376 $577 forward 7 unknown #
vertex $-1 $505 $578 #
straight-curve $-1 -48.458510086367383 -32.038045135594864 0 0 0 -1 I I #
edge $-1 $503 -32.038045135594864 $507 32.038045135594864 $501 $579 forward 7 unknown #
straight-curve $-1 0 -32.038045135594864 -12.977525115992416 -1 0 0 I I #
vertex $-1 $369 $580 #
straight-curve $-1 0 32.038045135594864 -12.977525115992416 1 0 0 I I #
point $-1 48.458510086367383 32.038045135594864 -12.977525115992416 #
point $-1 48.458510086367383 -32.038045135594864 -12.977525115992416 #
straight-curve $-1 -48.458510086367383 0 12.977525115992416 0 -1 0 I I #
point $-1 -48.458510086367383 32.038045135594864 12.977525115992416 #
point $-1 -48.458510086367383 -32.038045135594864 12.977525115992416 #
straight-curve $-1 48.458510086367383 -32.038045135594864 0 0 0 -1 I I #
straight-curve $-1 48.458510086367383 32.038045135594864 0 0 0 -1 I I #
edge $-1 $517 26.110454985859683 $520 35.154764002628049 $387 $581 forward 7 unknown #
vertex $-1 $401 $582 #
straight-curve $-1 -55.377785293417631 -19.317268034024522 12.977525115992414 -1 0 0 I I #
edge $-1 $520 7.5255916781748518 $398 16.057761033524489 $397 $583 forward 7 unknown #
vertex $-1 $519 $584 #
straight-curve $-1 -48.45851008636739 -19.317268034024522 3.9332160992240404 0.76604443648966558 0 0.64278761758704617 I I #
point $-1 -37.679922548858556 -19.317268034024522 12.977525115992416 #
point $-1 -48.458510086367383 -27.84943738937416 3.9332160992240461 #
straight-curve $-1 -48.458510086367383 0 12.977525115992416 0 -1 0 I I #
vertex $-1 $404 $585 #
point $-1 -40.558284225830654 -23.583352711699341 7.7965440407510247 #
coedge $-1 $419 $418 $411 $528 forward $408 $-1 #
edge $-1 $529 26.110454985859683 $532 35.154764002628049 $527 $586 forward 7 unknown #
vertex $-1 $423 $587 #
straight-curve $-1 -55.377785293417631 -3.2982454662270921 12.977525115992414 -1 0 0 I I #
edge $-1 $532 -0.48391960572386239 $420 8.0482497496257714 $419 $588 forward 7 unknown #
vertex $-1 $531 $589 #
straight-curve $-1 -48.45851008636739 -3.2982454662270921 3.9332160992240404 0.76604443648966558 0 0.64278761758704617 I I #
point $-1 -37.679922548858556 -3.2982454662270921 12.977525115992416 #
point $-1 -48.458510086367383 -11.830414821576726 3.9332160992240461 #
straight-curve $-1 -48.458510086367383 0 12.977525115992416 0 -1 0 I I #
vertex $-1 $426 $590 #
point $-1 -40.558284225830654 -7.5643301439019091 7.7965440407510247 #
coedge $-1 $441 $440 $433 $540 forward $430 $-1 #
edge $-1 $541 26.110454985859683 $544 35.154764002628049 $539 $591 forward 7 unknown #
vertex $-1 $445 $592 #
straight-curve $-1 -55.377785293417631 12.72077710157034 12.977525115992414 -1 0 0 I I #
edge $-1 $544 -8.4934308896225783 $442 0.038738465727055527 $441 $593 forward 7 unknown #
vertex $-1 $543 $594 #
straight-curve $-1 -48.45851008636739 12.72077710157034 3.9332160992240404 0.76604443648966558 0 0.64278761758704617 I I #
point $-1 -37.679922548858556 12.72077710157034 12.977525115992416 #
point $-1 -48.458510086367383 4.1886077462207059 3.9332160992240461 #
straight-curve $-1 -48.458510086367383 0 12.977525115992416 0 -1 0 I I #
vertex $-1 $448 $595 #
point $-1 -40.558284225830654 8.4546924238955228 7.7965440407510247 #
coedge $-1 $463 $462 $455 $552 forward $452 $-1 #
edge $-1 $553 26.110454985859683 $556 35.154764002628049 $551 $596 forward 7 unknown #
vertex $-1 $467 $597 #
straight-curve $-1 -55.377785293417631 28.73979966936777 12.977525115992414 -1 0 0 I I #
edge $-1 $556 -16.502942173521294 $464 -7.9707728181716568 $463 $598 forward 7 unknown #
vertex $-1 $555 $599 #
straight-curve $-1 -48.45851008636739 28.73979966936777 3.9332160992240404 0.76604443648966558 0 0.64278761758704617 I I #
point $-1 -37.679922548858556 28.73979966936777 12.977525115992416 #
point $-1 -48.458510086367383 20.207630314018132 3.9332160992240461 #
straight-curve $-1 -48.458510086367383 0 12.977525115992416 0 -1 0 I I #
vertex $-1 $470 $600 #
point $-1 -40.558284225830654 24.473714991692951 7.7965440407510247 #
coedge $-1 $485 $484 $477 $564 forward $474 $-1 #
edge $-1 $565 54.470781674342952 $568 66.617937486117327 $563 $601 forward 7 unknown #
vertex $-1 $489 $602 #
straight-curve $-1 38.477586032558065 -12.213255436366824 12.977525115992414 1 0 0 I I #
edge $-1 $568 -8.9312105817340335 $486 2.3671208724684529 $485 $603 forward 7 unknown #
vertex $-1 $567 $604 #
straight-curve $-1 -4.3262810624845969 -12.213255436366824 82.111822431818737 -0.54463902268945019 0 0.83867057594974714 I I #
point $-1 40.570055120257187 -12.213255436366824 12.977525115992421 #
point $-1 48.458510086367383 -0.91492398216433735 0.83036930421803845 #
straight-curve $-1 48.458510086367383 0 12.977525115992416 0 1 0 I I #
vertex $-1 $492 $605 #
point $-1 41.857452613106709 -8.9851607351661116 3.390036773960186 #
vertex $-1 $496 $606 #
point $-1 41.857452613106709 -4.143018683365046 3.390036773960186 #
straight-curve $-1 -48.458510086367383 32.038045135594864 0 0 0 -1 I I #
point $-1 -48.458510086367383 -32.038045135594864 -12.977525115992416 #
straight-curve $-1 -48.458510086367383 0 -12.977525115992416 0 1 0 I I #
point $-1 -48.458510086367383 32.038045135594864 -12.977525115992416 #
straight-curve $-1 -48.458510086367383 -19.317268034024522 39.087980101852096 0 0 -1 I I #
point $-1 -48.458510086367383 -19.317268034024522 12.977525115992416 #
straight-curve $-1 -48.458510086367383 -11.79167635584967 3.9332160992240448 0 -1 0 I I #
point $-1 -48.458510086367383 -19.317268034024522 3.9332160992240461 #
point $-1 -40.743169454184589 -23.583352711699341 5.6832959596359567 #
straight-curve $-1 -48.458510086367383 -3.2982454662270921 39.087980101852096 0 0 -1 I I #
point $-1 -48.458510086367383 -3.2982454662270921 12.977525115992416 #
straight-curve $-1 -48.458510086367383 -3.7821650719509545 3.9332160992240448 0 -1 0 I I #
point $-1 -48.458510086367383 -3.2982454662270921 3.9332160992240461 #
point $-1 -40.743169454184589 -7.5643301439019091 5.6832959596359567 #
straight-curve $-1 -48.458510086367383 12.72077710157034 39.087980101852096 0 0 -1 I I #
point $-1 -48.458510086367383 12.72077710157034 12.977525115992416 #
straight-curve $-1 -48.458510086367383 4.2273462119477614 3.9332160992240448 0 -1 0 I I #
point $-1 -48.458510086367383 12.72077710157034 3.9332160992240461 #
point $-1 -40.743169454184589 8.4546924238955228 5.6832959596359567 #
straight-curve $-1 -48.458510086367383 28.73979966936777 39.087980101852096 0 0 -1 I I #
point $-1 -48.458510086367383 28.73979966936777 12.977525115992416 #
straight-curve $-1 -48.458510086367383 12.236857495846476 3.9332160992240448 0 -1 0 I I #
point $-1 -48.458510086367383 28.73979966936777 3.9332160992240461 #
point $-1 -40.743169454184589 24.473714991692951 5.6832959596359567 #
straight-curve $-1 48.458510086367383 -12.213255436366824 67.448306790335366 0 0 -1 I I #
point $-1 48.458510086367383 -12.213255436366824 12.977525115992416 #
straight-curve $-1 48.458510086367383 -3.2820448546327903 0.83036930421803845 0 1 0 I I #
point $-1 48.458510086367383 -12.213255436366824 0.83036930421803845 #
point $-1 39.782488215147914 -8.9851607351661116 3.8310841038506314 #
point $-1 39.782488215147914 -4.143018683365046 3.8310841038506314 #
End-of-ACIS-data 