500 0 14 0           
7 Unknown 11 ACIS 5.0 NT 24 Thu Mar 25 18:25:38 1999 
-1 9.9999999999999995e-007 1e-010 
body $-1 $14 $-1 $15 #
body $-1 $16 $-1 $17 #
body $-1 $18 $-1 $19 #
body $-1 $20 $-1 $21 #
body $-1 $22 $-1 $23 #
body $-1 $24 $-1 $25 #
body $-1 $26 $-1 $27 #
body $-1 $28 $-1 $29 #
body $-1 $30 $-1 $31 #
body $-1 $32 $-1 $33 #
body $-1 $34 $-1 $35 #
body $-1 $36 $-1 $37 #
body $-1 $38 $-1 $39 #
body $-1 $40 $-1 $41 #
lump $-1 $-1 $42 $0 #
transform $-1 1 0 0 0 1 0 0 0 1 55.283669545579393 22.550783628230054 5.790651980588021 1 rotate no_reflect no_shear #
lump $-1 $-1 $43 $1 #
transform $-1 1 0 0 0 1 0 0 0 1 55.283669545579393 22.550783628230054 5.790651980588021 1 rotate no_reflect no_shear #
lump $-1 $-1 $44 $2 #
transform $-1 1 0 0 0 1 0 0 0 1 55.283669545579393 22.550783628230054 5.790651980588021 1 rotate no_reflect no_shear #
lump $-1 $-1 $45 $3 #
transform $-1 1 0 0 0 1 0 0 0 1 55.283669545579393 22.550783628230054 5.790651980588021 1 rotate no_reflect no_shear #
lump $-1 $-1 $46 $4 #
transform $-1 1 0 0 0 1 0 0 0 1 55.283669545579393 22.550783628230054 5.790651980588021 1 rotate no_reflect no_shear #
lump $-1 $-1 $47 $5 #
transform $-1 1 0 0 0 1 0 0 0 1 55.283669545579393 22.550783628230054 5.790651980588021 1 rotate no_reflect no_shear #
lump $-1 $-1 $48 $6 #
transform $-1 1 0 0 0 1 0 0 0 1 55.283669545579393 22.550783628230054 5.790651980588021 1 rotate no_reflect no_shear #
lump $-1 $-1 $49 $7 #
transform $-1 1 0 0 0 1 0 0 0 1 55.283669545579393 22.550783628230054 5.790651980588021 1 rotate no_reflect no_shear #
lump $-1 $-1 $50 $8 #
transform $-1 1 0 0 0 1 0 0 0 1 55.283669545579393 22.550783628230054 5.790651980588021 1 rotate no_reflect no_shear #
lump $-1 $-1 $51 $9 #
transform $-1 1 0 0 0 1 0 0 0 1 55.283669545579393 22.550783628230054 5.790651980588021 1 rotate no_reflect no_shear #
lump $-1 $-1 $52 $10 #
transform $-1 1 0 0 0 1 0 0 0 1 55.283669545579393 22.550783628230054 5.790651980588021 1 rotate no_reflect no_shear #
lump $-1 $-1 $53 $11 #
transform $-1 1 0 0 0 1 0 0 0 1 55.283669545579393 22.550783628230054 5.790651980588021 1 rotate no_reflect no_shear #
lump $-1 $-1 $54 $12 #
transform $-1 1 0 0 0 1 0 0 0 1 55.283669545579393 22.550783628230054 5.790651980588021 1 rotate no_reflect no_shear #
lump $-1 $-1 $55 $13 #
transform $-1 1 0 0 0 1 0 0 0 1 55.283669545579393 22.550783628230054 5.790651980588021 1 rotate no_reflect no_shear #
shell $-1 $-1 $-1 $56 $-1 $14 #
shell $-1 $-1 $-1 $57 $-1 $16 #
shell $-1 $-1 $-1 $58 $-1 $18 #
shell $-1 $-1 $-1 $59 $-1 $20 #
shell $-1 $-1 $-1 $60 $-1 $22 #
shell $-1 $-1 $-1 $61 $-1 $24 #
shell $-1 $-1 $-1 $62 $-1 $26 #
shell $-1 $-1 $-1 $63 $-1 $28 #
shell $-1 $-1 $-1 $64 $-1 $30 #
shell $-1 $-1 $-1 $65 $-1 $32 #
shell $-1 $-1 $-1 $66 $-1 $34 #
shell $-1 $-1 $-1 $67 $-1 $36 #
shell $-1 $-1 $-1 $68 $-1 $38 #
shell $-1 $-1 $-1 $69 $-1 $40 #
face $-1 $70 $71 $42 $-1 $72 forward single #
face $-1 $73 $74 $43 $-1 $75 forward single #
face $-1 $76 $77 $44 $-1 $78 reversed single #
face $-1 $79 $80 $45 $-1 $81 forward single #
face $-1 $82 $83 $46 $-1 $84 forward single #
face $-1 $85 $86 $47 $-1 $87 reversed single #
face $-1 $88 $89 $48 $-1 $90 forward single #
face $-1 $91 $92 $49 $-1 $93 forward single #
face $-1 $94 $95 $50 $-1 $96 reversed single #
face $-1 $97 $98 $51 $-1 $99 forward single #
face $-1 $100 $101 $52 $-1 $102 forward single #
face $-1 $103 $104 $53 $-1 $105 reversed single #
face $-1 $106 $107 $54 $-1 $108 forward single #
face $-1 $109 $110 $55 $-1 $111 forward single #
face $-1 $112 $113 $42 $-1 $114 reversed single #
loop $-1 $-1 $115 $56 #
plane-surface $-1 0 0 5.790651980588021 0 0 1 1 0 0 forward_v I I I I #
face $-1 $116 $117 $43 $-1 $118 reversed single #
loop $-1 $-1 $119 $57 #
plane-surface $-1 -55.283669545579393 0 0 1 0 0 0 0 -1 forward_v I I I I #
face $-1 $120 $121 $44 $-1 $122 reversed single #
loop $-1 $-1 $123 $58 #
plane-surface $-1 2.2609998017774409 -79.497173859189473 95.410645685487921 -1 0 0 0 -0.51503808176128008 0.85716729658548041 forward_v I I I I #
face $-1 $124 $125 $45 $-1 $126 forward single #
loop $-1 $127 $128 $59 #
cone-surface $-1 -14.929775043549668 -16.587157602590082 0.4269848999276169 0 0.51503808176128008 -0.85716729658548041 2.5 0 0 1 I I 0 1 2.5 forward I I I I #
face $-1 $129 $130 $46 $-1 $131 forward single #
loop $-1 $132 $133 $60 #
cone-surface $-1 -4.6153101363534077 -16.587157602590082 0.4269848999276169 0 0.51503808176128008 -0.85716729658548041 2.5 0 0 1 I I 0 1 2.5 forward I I I I #
face $-1 $134 $135 $47 $-1 $136 reversed single #
loop $-1 $-1 $137 $61 #
plane-surface $-1 26.328084585235398 -79.497173859189473 95.410645685487921 -1 0 0 0 -0.51503808176128008 0.85716729658548041 forward_v I I I I #
face $-1 $138 $139 $48 $-1 $140 forward single #
loop $-1 $141 $142 $62 #
cone-surface $-1 9.1373097399082823 -16.587157602590082 0.4269848999276169 0 0.51503808176128008 -0.85716729658548041 2.5 0 0 1 I I 0 1 2.5 forward I I I I #
face $-1 $143 $144 $49 $-1 $145 forward single #
loop $-1 $146 $147 $63 #
cone-surface $-1 19.451774647104536 -16.587157602590082 0.4269848999276169 0 0.51503808176128008 -0.85716729658548041 2.5 0 0 1 I I 0 1 2.5 forward I I I I #
face $-1 $148 $149 $50 $-1 $150 reversed single #
loop $-1 $-1 $151 $64 #
plane-surface $-1 -26.237399698966566 78.259552081205669 107.77430029521139 1 0 0 0 -0.7660444514056185 -0.64278759981090561 forward_v I I I I #
face $-1 $152 $153 $51 $-1 $154 forward single #
loop $-1 $155 $156 $65 #
cone-surface $-1 -19.683291091830377 20.641660927084885 3.6505224087977255 0 -0.7660444514056185 -0.64278759981090561 0.5 0 0 1 I I 0 1 0.5 forward I I I I #
face $-1 $157 $158 $52 $-1 $159 forward single #
loop $-1 $160 $161 $66 #
cone-surface $-1 -9.8521281811260835 20.641660927084885 3.6505224087977255 0 -0.7660444514056185 -0.64278759981090561 0.5 0 0 1 I I 0 1 0.5 forward I I I I #
face $-1 $162 $163 $53 $-1 $164 reversed single #
loop $-1 $-1 $165 $67 #
plane-surface $-1 26.785270044835389 78.259552081205669 107.77430029521139 1 0 0 0 -0.7660444514056185 -0.64278759981090561 forward_v I I I I #
face $-1 $166 $167 $54 $-1 $168 forward single #
loop $-1 $169 $170 $68 #
cone-surface $-1 33.339378651971593 20.641660927084885 3.6505224087977255 0 -0.7660444514056185 -0.64278759981090561 0.5 0 0 1 I I 0 1 0.5 forward I I I I #
face $-1 $171 $172 $55 $-1 $173 forward single #
loop $-1 $174 $175 $69 #
cone-surface $-1 43.170541562675872 20.641660927084885 3.6505224087977255 0 -0.7660444514056185 -0.64278759981090561 0.5 0 0 1 I I 0 1 0.5 forward I I I I #
face $-1 $176 $177 $42 $-1 $178 reversed single #
loop $-1 $-1 $179 $70 #
plane-surface $-1 0 0 -5.790651980588021 0 0 1 1 0 0 forward_v I I I I #
coedge $-1 $180 $181 $182 $183 forward $71 $-1 #
face $-1 $184 $185 $43 $-1 $186 reversed single #
loop $-1 $-1 $187 $73 #
plane-surface $-1 0 0 -5.790651980588021 0 0 1 1 0 0 forward_v I I I I #
coedge $-1 $188 $189 $190 $191 forward $74 $-1 #
face $-1 $192 $193 $44 $-1 $194 reversed single #
loop $-1 $-1 $195 $76 #
plane-surface $-1 -9.7725425899515344 -22.550783628230057 0.63593854606924083 0 -0.51503808176128008 0.85716729658548041 1 0 0 forward_v I I I I #
coedge $-1 $196 $197 $198 $199 reversed $77 $-1 #
face $-1 $-1 $200 $45 $-1 $201 forward single #
loop $-1 $202 $203 $79 #
cone-surface $-1 -14.929775043549668 -14.269175800321392 -3.4307845842052465 0 0.51503808176128008 -0.85716729658548041 1.25 0 0 1 I I -0.70710678118654757 0.70710678118654735 1.25 forward I I I I #
loop $-1 $-1 $204 $59 #
coedge $-1 $128 $128 $205 $206 reversed $80 $-1 #
face $-1 $-1 $207 $46 $-1 $208 forward single #
loop $-1 $209 $210 $82 #
cone-surface $-1 -4.6153101363534077 -14.269175800321392 -3.4307845842052465 0 0.51503808176128008 -0.85716729658548041 1.25 0 0 1 I I -0.70710678118654757 0.70710678118654735 1.25 forward I I I I #
loop $-1 $-1 $211 $60 #
coedge $-1 $133 $133 $212 $213 reversed $83 $-1 #
face $-1 $214 $215 $47 $-1 $216 forward single #
loop $-1 $-1 $217 $85 #
plane-surface $-1 -9.7725425899515344 -22.550783628230057 0.63593854606924083 0 -0.51503808176128008 0.85716729658548041 1 0 0 forward_v I I I I #
coedge $-1 $218 $219 $220 $221 reversed $86 $-1 #
face $-1 $-1 $222 $48 $-1 $223 forward single #
loop $-1 $224 $225 $88 #
cone-surface $-1 9.1373097399082823 -14.269175800321392 -3.4307845842052465 0 0.51503808176128008 -0.85716729658548041 1.25 0 0 1 I I -0.70710678118654757 0.70710678118654735 1.25 forward I I I I #
loop $-1 $-1 $226 $62 #
coedge $-1 $142 $142 $227 $228 reversed $89 $-1 #
face $-1 $-1 $229 $49 $-1 $230 forward single #
loop $-1 $231 $232 $91 #
cone-surface $-1 19.451774647104536 -14.269175800321392 -3.4307845842052465 0 0.51503808176128008 -0.85716729658548041 1.25 0 0 1 I I -0.70710678118654757 0.70710678118654735 1.25 forward I I I I #
loop $-1 $-1 $233 $63 #
coedge $-1 $147 $147 $234 $235 reversed $92 $-1 #
face $-1 $236 $237 $50 $-1 $238 reversed single #
loop $-1 $-1 $239 $94 #
plane-surface $-1 -14.767709636478223 -6.4399445362600574 36.702985783326923 0 0.7660444514056185 0.64278759981090561 1 0 0 forward_v I I I I #
coedge $-1 $240 $241 $242 $243 reversed $95 $-1 #
face $-1 $-1 $244 $51 $-1 $245 forward single #
loop $-1 $246 $247 $97 #
cone-surface $-1 -19.683291091830377 20.067127588530671 3.1684317089395462 0 -0.7660444514056185 -0.64278759981090561 0.25 0 0 1 I I -0.70710678118654746 0.70710678118654746 0.25 forward I I I I #
loop $-1 $-1 $248 $65 #
coedge $-1 $156 $156 $249 $250 reversed $98 $-1 #
face $-1 $-1 $251 $52 $-1 $252 forward single #
loop $-1 $253 $254 $100 #
cone-surface $-1 -9.8521281811260835 20.067127588530671 3.1684317089395462 0 -0.7660444514056185 -0.64278759981090561 0.25 0 0 1 I I -0.70710678118654746 0.70710678118654746 0.25 forward I I I I #
loop $-1 $-1 $255 $66 #
coedge $-1 $161 $161 $256 $257 reversed $101 $-1 #
face $-1 $258 $259 $53 $-1 $260 reversed single #
loop $-1 $-1 $261 $103 #
plane-surface $-1 38.254960107323733 -6.4399445362600574 36.702985783326923 0 0.7660444514056185 0.64278759981090561 1 0 0 forward_v I I I I #
coedge $-1 $262 $263 $264 $265 reversed $104 $-1 #
face $-1 $-1 $266 $54 $-1 $267 forward single #
loop $-1 $268 $269 $106 #
cone-surface $-1 33.339378651971593 20.067127588530671 3.1684317089395462 0 -0.7660444514056185 -0.64278759981090561 0.25 0 0 1 I I -0.70710678118654746 0.70710678118654746 0.25 forward I I I I #
loop $-1 $-1 $270 $68 #
coedge $-1 $170 $170 $271 $272 reversed $107 $-1 #
face $-1 $-1 $273 $55 $-1 $274 forward single #
loop $-1 $275 $276 $109 #
cone-surface $-1 43.170541562675872 20.067127588530671 3.1684317089395462 0 -0.7660444514056185 -0.64278759981090561 0.25 0 0 1 I I -0.70710678118654746 0.70710678118654746 0.25 forward I I I I #
loop $-1 $-1 $277 $69 #
coedge $-1 $175 $175 $278 $279 reversed $110 $-1 #
face $-1 $280 $281 $42 $-1 $282 reversed single #
loop $-1 $-1 $283 $112 #
plane-surface $-1 0 -22.550783628230054 0 0 1 0 0 0 1 forward_v I I I I #
coedge $-1 $284 $285 $286 $287 forward $113 $-1 #
coedge $-1 $288 $115 $289 $290 forward $71 $-1 #
coedge $-1 $115 $288 $291 $292 forward $71 $-1 #
coedge $-1 $293 $294 $115 $183 reversed $295 $-1 #
edge $-1 $296 -22.550783628230054 $297 22.550783628230054 $182 $298 forward 7 unknown #
face $-1 $299 $300 $43 $-1 $301 reversed single #
loop $-1 $-1 $302 $116 #
plane-surface $-1 -57.54466934735683 -13.990543408261697 0 0 1 0 0 0 1 forward_v I I I I #
coedge $-1 $303 $304 $189 $305 forward $117 $-1 #
coedge $-1 $306 $119 $307 $308 reversed $74 $-1 #
coedge $-1 $119 $306 $187 $305 reversed $74 $-1 #
coedge $-1 $309 $310 $119 $191 reversed $311 $-1 #
edge $-1 $312 -5.790651980588021 $313 5.790651980588021 $190 $314 forward 7 unknown #
face $-1 $315 $316 $44 $-1 $317 forward single #
loop $-1 $-1 $318 $120 #
plane-surface $-1 -21.80608498168051 -79.497173859189473 95.410645685487921 1 0 0 0 0.51503808176128008 -0.85716729658548041 forward_v I I I I #
coedge $-1 $319 $320 $321 $322 reversed $121 $-1 #
coedge $-1 $197 $123 $323 $324 reversed $77 $-1 #
coedge $-1 $123 $196 $319 $325 reversed $77 $-1 #
coedge $-1 $321 $326 $123 $199 forward $316 $-1 #
edge $-1 $327 17.197803301364683 $328 25.776686952510438 $198 $329 forward 7 unknown #
loop $-1 $-1 $205 $124 #
plane-surface $-1 -9.7725425899515344 -22.550783628230057 0.63593854606924083 0 -0.51503808176128008 0.85716729658548041 1 0 0 forward_v I I I I #
loop $-1 $-1 $330 $79 #
coedge $-1 $203 $203 $204 $331 reversed $125 $-1 #
coedge $-1 $204 $204 $203 $331 forward $127 $-1 #
coedge $-1 $205 $205 $128 $206 forward $200 $-1 #
edge $-1 $332 4.8619485656928458e-016 $332 6.2831853071796013 $205 $333 forward 7 unknown #
loop $-1 $-1 $212 $129 #
plane-surface $-1 -9.7725425899515344 -22.550783628230057 0.63593854606924083 0 -0.51503808176128008 0.85716729658548041 1 0 0 forward_v I I I I #
loop $-1 $-1 $334 $82 #
coedge $-1 $210 $210 $211 $335 reversed $130 $-1 #
coedge $-1 $211 $211 $210 $335 forward $132 $-1 #
coedge $-1 $212 $212 $133 $213 forward $207 $-1 #
edge $-1 $336 4.8619485656928458e-016 $336 6.2831853071796013 $212 $337 forward 7 unknown #
face $-1 $338 $339 $47 $-1 $340 forward single #
loop $-1 $-1 $341 $134 #
plane-surface $-1 0 0 5.790651980588021 0 0 1 1 0 0 forward_v I I I I #
coedge $-1 $342 $343 $344 $345 reversed $135 $-1 #
coedge $-1 $219 $137 $346 $347 reversed $86 $-1 #
coedge $-1 $137 $218 $341 $348 reversed $86 $-1 #
coedge $-1 $349 $350 $137 $221 forward $351 $-1 #
edge $-1 $352 -47.06938429667472 $353 -41.914670862155937 $220 $354 forward 7 unknown #
loop $-1 $-1 $227 $138 #
plane-surface $-1 -9.7725425899515344 -22.550783628230057 0.63593854606924083 0 -0.51503808176128008 0.85716729658548041 1 0 0 forward_v I I I I #
loop $-1 $-1 $355 $88 #
coedge $-1 $225 $225 $226 $356 reversed $139 $-1 #
coedge $-1 $226 $226 $225 $356 forward $141 $-1 #
coedge $-1 $227 $227 $142 $228 forward $222 $-1 #
edge $-1 $357 4.8619485656928458e-016 $357 6.2831853071796013 $227 $358 forward 7 unknown #
loop $-1 $-1 $234 $143 #
plane-surface $-1 -9.7725425899515344 -22.550783628230057 0.63593854606924083 0 -0.51503808176128008 0.85716729658548041 1 0 0 forward_v I I I I #
loop $-1 $-1 $359 $91 #
coedge $-1 $232 $232 $233 $360 reversed $144 $-1 #
coedge $-1 $233 $233 $232 $360 forward $146 $-1 #
coedge $-1 $234 $234 $147 $235 forward $229 $-1 #
edge $-1 $361 4.8619485656928458e-016 $361 6.2831853071796013 $234 $362 forward 7 unknown #
face $-1 $363 $364 $50 $-1 $365 reversed single #
loop $-1 $-1 $366 $148 #
plane-surface $-1 -3.2980195739898797 78.259552081205669 107.77430029521139 -1 0 0 0 0.7660444514056185 0.64278759981090561 forward_v I I I I #
coedge $-1 $367 $368 $369 $370 reversed $149 $-1 #
coedge $-1 $241 $151 $371 $372 reversed $95 $-1 #
coedge $-1 $151 $240 $367 $373 reversed $95 $-1 #
coedge $-1 $369 $374 $151 $243 forward $375 $-1 #
edge $-1 $376 16.578992412372781 $377 19.631193363257477 $242 $378 forward 7 unknown #
loop $-1 $-1 $249 $152 #
plane-surface $-1 -14.767709636478223 -6.4399445362600574 36.702985783326923 0 0.7660444514056185 0.64278759981090561 1 0 0 forward_v I I I I #
loop $-1 $-1 $379 $97 #
coedge $-1 $247 $247 $248 $380 reversed $153 $-1 #
coedge $-1 $248 $248 $247 $380 forward $155 $-1 #
coedge $-1 $249 $249 $156 $250 forward $244 $-1 #
edge $-1 $381 2.916945056141314e-015 $381 6.2831853071796031 $249 $382 forward 7 unknown #
loop $-1 $-1 $256 $157 #
plane-surface $-1 -14.767709636478223 -6.4399445362600574 36.702985783326923 0 0.7660444514056185 0.64278759981090561 1 0 0 forward_v I I I I #
loop $-1 $-1 $383 $100 #
coedge $-1 $254 $254 $255 $384 reversed $158 $-1 #
coedge $-1 $255 $255 $254 $384 forward $160 $-1 #
coedge $-1 $256 $256 $161 $257 forward $251 $-1 #
edge $-1 $385 2.916945056141314e-015 $385 6.2831853071796031 $256 $386 forward 7 unknown #
face $-1 $387 $388 $53 $-1 $389 forward single #
loop $-1 $-1 $390 $162 #
plane-surface $-1 49.72465016981208 78.259552081205669 107.77430029521139 -1 0 0 0 0.7660444514056185 0.64278759981090561 forward_v I I I I #
coedge $-1 $391 $392 $393 $394 reversed $163 $-1 #
coedge $-1 $263 $165 $395 $396 reversed $104 $-1 #
coedge $-1 $165 $262 $391 $397 reversed $104 $-1 #
coedge $-1 $393 $398 $165 $265 forward $388 $-1 #
edge $-1 $399 16.578992412372781 $400 19.631193363257477 $264 $401 forward 7 unknown #
loop $-1 $-1 $271 $166 #
plane-surface $-1 38.254960107323733 -6.4399445362600574 36.702985783326923 0 0.7660444514056185 0.64278759981090561 1 0 0 forward_v I I I I #
loop $-1 $-1 $402 $106 #
coedge $-1 $269 $269 $270 $403 reversed $167 $-1 #
coedge $-1 $270 $270 $269 $403 forward $169 $-1 #
coedge $-1 $271 $271 $170 $272 forward $266 $-1 #
edge $-1 $404 2.916945056141314e-015 $404 6.2831853071796031 $271 $405 forward 7 unknown #
loop $-1 $-1 $278 $171 #
plane-surface $-1 38.254960107323733 -6.4399445362600574 36.702985783326923 0 0.7660444514056185 0.64278759981090561 1 0 0 forward_v I I I I #
loop $-1 $-1 $406 $109 #
coedge $-1 $276 $276 $277 $407 reversed $172 $-1 #
coedge $-1 $277 $277 $276 $407 forward $174 $-1 #
coedge $-1 $278 $278 $175 $279 forward $273 $-1 #
edge $-1 $408 2.916945056141314e-015 $408 6.2831853071796031 $278 $409 forward 7 unknown #
face $-1 $410 $411 $42 $-1 $412 reversed single #
loop $-1 $-1 $413 $176 #
plane-surface $-1 -55.283669545579393 0 0 1 0 0 0 0 -1 forward_v I I I I #
coedge $-1 $414 $291 $415 $416 forward $177 $-1 #
coedge $-1 $417 $179 $414 $418 forward $113 $-1 #
coedge $-1 $179 $417 $419 $420 forward $113 $-1 #
coedge $-1 $294 $293 $179 $287 reversed $295 $-1 #
edge $-1 $421 -22.550783628230054 $422 22.550783628230054 $286 $423 forward 7 unknown #
coedge $-1 $181 $180 $424 $425 forward $71 $-1 #
coedge $-1 $426 $427 $180 $290 reversed $411 $-1 #
edge $-1 $297 -55.283669545579393 $428 55.283669545579393 $289 $429 forward 7 unknown #
coedge $-1 $283 $430 $181 $292 reversed $177 $-1 #
edge $-1 $431 -55.283669545579393 $296 55.283669545579393 $291 $432 forward 7 unknown #
coedge $-1 $286 $182 $430 $433 forward $295 $-1 #
coedge $-1 $182 $286 $426 $434 reversed $295 $-1 #
loop $-1 $-1 $293 $410 #
vertex $-1 $183 $435 #
vertex $-1 $183 $436 #
straight-curve $-1 55.283669545579393 0 5.790651980588021 0 1 0 I I #
face $-1 $437 $311 $43 $-1 $438 reversed single #
loop $-1 $-1 $439 $184 #
plane-surface $-1 -59.805669149134268 -12.480011537657855 0 1 0 0 0 0 -1 forward_v I I I I #
coedge $-1 $440 $441 $442 $443 forward $185 $-1 #
coedge $-1 $444 $187 $440 $445 forward $117 $-1 #
coedge $-1 $187 $444 $309 $446 forward $117 $-1 #
edge $-1 $312 10.969479667054014 $447 13.990543408261697 $187 $448 forward 7 unknown #
coedge $-1 $189 $188 $449 $450 forward $74 $-1 #
coedge $-1 $451 $452 $188 $308 forward $453 $-1 #
edge $-1 $454 -13.990543408261697 $313 -10.969479667054014 $307 $455 forward 7 unknown #
coedge $-1 $456 $190 $304 $446 reversed $311 $-1 #
coedge $-1 $190 $456 $451 $457 reversed $311 $-1 #
loop $-1 $-1 $190 $299 #
vertex $-1 $305 $458 #
vertex $-1 $457 $459 #
straight-curve $-1 -55.283669545579393 -10.969479667054014 0 0 0 1 I I #
face $-1 $-1 $460 $44 $-1 $461 reversed single #
loop $-1 $-1 $198 $192 #
plane-surface $-1 0 0 5.790651980588021 0 0 1 1 0 0 forward_v I I I I #
coedge $-1 $462 $463 $464 $465 reversed $193 $-1 #
coedge $-1 $466 $195 $197 $325 forward $121 $-1 #
coedge $-1 $195 $466 $462 $467 forward $121 $-1 #
coedge $-1 $464 $198 $195 $322 forward $316 $-1 #
edge $-1 $328 -7.147271096753208 $468 16.919813686704742 $321 $469 forward 7 unknown #
coedge $-1 $470 $471 $196 $324 forward $460 $-1 #
edge $-1 $472 -47.06938429667472 $327 -41.914670862155937 $323 $473 forward 7 unknown #
edge $-1 $328 -10.00841222631764 $472 -4.1317035397669616e-015 $197 $474 forward 7 unknown #
coedge $-1 $198 $464 $470 $475 forward $316 $-1 #
vertex $-1 $199 $476 #
vertex $-1 $199 $477 #
straight-curve $-1 2.2609998017774409 -39.748586929594737 5.7906519805880237 0 1 0 I I #
coedge $-1 $330 $330 $-1 $478 reversed $202 $-1 #
edge $-1 $479 0 $479 6.2831853071796004 $203 $480 forward 7 unknown #
vertex $-1 $206 $481 #
ellipse-curve $-1 -14.929775043549668 -18.261341802657174 3.2132952633286327 0 -0.51503808176128008 0.85716729658548041 2.5 0 0 1 I I #
coedge $-1 $334 $334 $-1 $482 reversed $209 $-1 #
edge $-1 $483 0 $483 6.2831853071796004 $210 $484 forward 7 unknown #
vertex $-1 $213 $485 #
ellipse-curve $-1 -4.6153101363534077 -18.261341802657174 3.2132952633286327 0 -0.51503808176128008 0.85716729658548041 2.5 0 0 1 I I #
face $-1 $-1 $351 $47 $-1 $486 reversed single #
loop $-1 $-1 $487 $214 #
plane-surface $-1 2.2609998017774409 -79.497173859189473 95.410645685487921 -1 0 0 0 -0.51503808176128008 0.85716729658548041 forward_v I I I I #
coedge $-1 $488 $489 $219 $348 forward $215 $-1 #
coedge $-1 $346 $217 $488 $490 reversed $135 $-1 #
coedge $-1 $217 $346 $350 $491 reversed $135 $-1 #
coedge $-1 $492 $487 $217 $345 forward $339 $-1 #
edge $-1 $493 -10.00841222631764 $494 -4.1317035397669616e-015 $344 $495 forward 7 unknown #
coedge $-1 $343 $342 $218 $347 forward $135 $-1 #
edge $-1 $496 -10.00841222631764 $352 -4.1317035397669616e-015 $218 $497 forward 7 unknown #
edge $-1 $353 17.197803301364683 $496 25.776686952510438 $341 $498 forward 7 unknown #
coedge $-1 $499 $220 $489 $500 reversed $351 $-1 #
coedge $-1 $220 $499 $343 $491 forward $351 $-1 #
loop $-1 $-1 $220 $338 #
vertex $-1 $221 $501 #
vertex $-1 $348 $502 #
straight-curve $-1 26.328084585235398 -22.550783628230054 47.705322842743961 0 0 1 I I #
coedge $-1 $355 $355 $-1 $503 reversed $224 $-1 #
edge $-1 $504 0 $504 6.2831853071796004 $225 $505 forward 7 unknown #
vertex $-1 $228 $506 #
ellipse-curve $-1 9.1373097399082823 -18.261341802657174 3.2132952633286327 0 -0.51503808176128008 0.85716729658548041 2.5 0 0 1 I I #
coedge $-1 $359 $359 $-1 $507 reversed $231 $-1 #
edge $-1 $508 0 $508 6.2831853071796004 $232 $509 forward 7 unknown #
vertex $-1 $235 $510 #
ellipse-curve $-1 19.451774647104536 -18.261341802657174 3.2132952633286327 0 -0.51503808176128008 0.85716729658548041 2.5 0 0 1 I I #
face $-1 $-1 $375 $50 $-1 $511 forward single #
loop $-1 $-1 $512 $236 #
plane-surface $-1 0 22.550783628230054 0 0 -1 0 0 0 -1 forward_v I I I I #
coedge $-1 $513 $514 $515 $516 reversed $237 $-1 #
coedge $-1 $517 $239 $241 $373 forward $149 $-1 #
coedge $-1 $239 $517 $513 $518 forward $149 $-1 #
coedge $-1 $515 $242 $239 $370 forward $375 $-1 #
edge $-1 $377 -18.853544880727455 $519 4.0858352442492318 $369 $520 forward 7 unknown #
coedge $-1 $521 $522 $240 $372 forward $364 $-1 #
edge $-1 $523 -51.733969710787342 $376 -48.096498167017671 $371 $524 forward 7 unknown #
edge $-1 $377 40.353185439849774 $523 45.101567256460093 $241 $525 forward 7 unknown #
coedge $-1 $242 $515 $521 $526 forward $375 $-1 #
loop $-1 $-1 $515 $363 #
vertex $-1 $372 $527 #
vertex $-1 $243 $528 #
straight-curve $-1 -26.237399698966566 39.129776040602835 5.7906519805880237 0 -1 0 I I #
coedge $-1 $379 $379 $-1 $529 reversed $246 $-1 #
edge $-1 $530 0 $530 6.2831853071796004 $247 $531 forward 7 unknown #
vertex $-1 $250 $532 #
ellipse-curve $-1 -19.683291091830377 21.024683152787699 3.971916208703183 0 0.7660444514056185 0.64278759981090561 0.5 0 0 1 I I #
coedge $-1 $383 $383 $-1 $533 reversed $253 $-1 #
edge $-1 $534 0 $534 6.2831853071796004 $254 $535 forward 7 unknown #
vertex $-1 $257 $536 #
ellipse-curve $-1 -9.8521281811260835 21.024683152787699 3.971916208703183 0 0.7660444514056185 0.64278759981090561 0.5 0 0 1 I I #
face $-1 $-1 $537 $53 $-1 $538 reversed single #
loop $-1 $-1 $264 $258 #
plane-surface $-1 0 0 5.790651980588021 0 0 1 1 0 0 forward_v I I I I #
coedge $-1 $539 $540 $541 $542 reversed $259 $-1 #
coedge $-1 $543 $261 $263 $397 forward $163 $-1 #
coedge $-1 $261 $543 $539 $544 forward $163 $-1 #
coedge $-1 $541 $264 $261 $394 forward $388 $-1 #
edge $-1 $400 7.657789991173523 $545 30.597170116150213 $393 $546 forward 7 unknown #
coedge $-1 $547 $548 $262 $396 forward $537 $-1 #
edge $-1 $549 -51.733969710787342 $399 -48.096498167017671 $395 $550 forward 7 unknown #
edge $-1 $400 40.353185439849774 $549 45.101567256460093 $263 $551 forward 7 unknown #
coedge $-1 $264 $541 $547 $552 forward $388 $-1 #
vertex $-1 $265 $553 #
vertex $-1 $265 $554 #
straight-curve $-1 26.785270044835389 39.129776040602835 5.7906519805880237 0 -1 0 I I #
coedge $-1 $402 $402 $-1 $555 reversed $268 $-1 #
edge $-1 $556 0 $556 6.2831853071796004 $269 $557 forward 7 unknown #
vertex $-1 $272 $558 #
ellipse-curve $-1 33.339378651971593 21.024683152787699 3.971916208703183 0 0.7660444514056185 0.64278759981090561 0.5 0 0 1 I I #
coedge $-1 $406 $406 $-1 $559 reversed $275 $-1 #
edge $-1 $560 0 $560 6.2831853071796004 $276 $561 forward 7 unknown #
vertex $-1 $279 $562 #
ellipse-curve $-1 43.170541562675872 21.024683152787699 3.971916208703183 0 0.7660444514056185 0.64278759981090561 0.5 0 0 1 I I #
face $-1 $-1 $295 $42 $-1 $563 reversed single #
loop $-1 $-1 $426 $280 #
plane-surface $-1 0 22.550783628230054 0 0 -1 0 0 0 -1 forward_v I I I I #
coedge $-1 $564 $424 $427 $565 forward $281 $-1 #
coedge $-1 $430 $283 $284 $418 reversed $177 $-1 #
coedge $-1 $424 $564 $283 $416 reversed $281 $-1 #
edge $-1 $431 -5.790651980588021 $566 5.790651980588021 $415 $567 forward 7 unknown #
coedge $-1 $285 $284 $564 $568 forward $113 $-1 #
edge $-1 $422 -55.283669545579393 $566 55.283669545579393 $414 $569 forward 7 unknown #
coedge $-1 $427 $426 $285 $420 reversed $411 $-1 #
edge $-1 $570 -55.283669545579393 $421 55.283669545579393 $419 $571 forward 7 unknown #
vertex $-1 $287 $572 #
vertex $-1 $433 $573 #
straight-curve $-1 55.283669545579393 0 -5.790651980588021 0 -1 0 I I #
coedge $-1 $413 $415 $288 $425 reversed $281 $-1 #
edge $-1 $428 -22.550783628230054 $431 22.550783628230054 $424 $574 forward 7 unknown #
coedge $-1 $419 $289 $294 $434 forward $411 $-1 #
coedge $-1 $289 $419 $413 $565 reversed $411 $-1 #
vertex $-1 $290 $575 #
straight-curve $-1 0 22.550783628230054 5.790651980588021 -1 0 0 I I #
coedge $-1 $291 $414 $293 $433 reversed $177 $-1 #
vertex $-1 $425 $576 #
straight-curve $-1 0 -22.550783628230054 5.790651980588021 1 0 0 I I #
edge $-1 $296 -5.790651980588021 $422 5.790651980588021 $293 $577 forward 7 unknown #
edge $-1 $297 -5.790651980588021 $421 5.790651980588021 $294 $578 forward 7 unknown #
point $-1 55.283669545579393 -22.550783628230054 5.790651980588021 #
point $-1 55.283669545579393 22.550783628230054 5.790651980588021 #
face $-1 $-1 $453 $43 $-1 $579 forward single #
plane-surface $-1 -57.54466934735683 -10.969479667054014 0 0 -1 0 0 0 -1 forward_v I I I I #
coedge $-1 $580 $581 $456 $582 forward $300 $-1 #
coedge $-1 $449 $302 $303 $445 reversed $185 $-1 #
coedge $-1 $302 $449 $452 $583 reversed $185 $-1 #
coedge $-1 $581 $580 $302 $443 reversed $300 $-1 #
edge $-1 $584 -5.790651980588021 $585 5.790651980588021 $442 $586 forward 7 unknown #
coedge $-1 $304 $303 $580 $587 forward $117 $-1 #
edge $-1 $447 -2.2609998017774373 $585 2.2609998017774373 $440 $588 forward 7 unknown #
edge $-1 $589 -2.2609998017774373 $312 2.2609998017774373 $309 $590 forward 7 unknown #
vertex $-1 $445 $591 #
straight-curve $-1 -55.283669545579393 0 -5.790651980588021 0 -1 0 I I #
coedge $-1 $441 $440 $306 $450 reversed $185 $-1 #
edge $-1 $454 -5.790651980588021 $447 5.790651980588021 $449 $592 forward 7 unknown #
coedge $-1 $593 $307 $310 $457 forward $453 $-1 #
coedge $-1 $307 $593 $441 $583 forward $453 $-1 #
loop $-1 $-1 $307 $437 #
vertex $-1 $308 $594 #
straight-curve $-1 -55.283669545579393 0 5.790651980588021 0 1 0 I I #
coedge $-1 $310 $309 $439 $582 reversed $311 $-1 #
edge $-1 $313 -2.2609998017774373 $595 2.2609998017774373 $310 $596 forward 7 unknown #
point $-1 -55.283669545579393 -10.969479667054014 -5.790651980588021 #
point $-1 -55.283669545579393 -10.969479667054014 5.790651980588021 #
loop $-1 $-1 $323 $315 #
plane-surface $-1 0 -22.550783628230054 0 0 1 0 0 0 1 forward_v I I I I #
coedge $-1 $463 $318 $320 $467 reversed $193 $-1 #
coedge $-1 $318 $462 $597 $598 reversed $193 $-1 #
coedge $-1 $326 $321 $318 $465 forward $316 $-1 #
edge $-1 $468 -25.776686952510438 $599 -17.197803301364683 $464 $600 forward 7 unknown #
coedge $-1 $320 $319 $471 $601 reversed $121 $-1 #
edge $-1 $602 4.1317035397669616e-015 $468 10.00841222631764 $462 $603 forward 7 unknown #
vertex $-1 $322 $604 #
straight-curve $-1 -4.8862712949757672 -13.971899977084297 5.790651980588021 -1 0 0 I I #
coedge $-1 $597 $323 $326 $475 reversed $460 $-1 #
coedge $-1 $323 $597 $466 $601 forward $460 $-1 #
vertex $-1 $324 $605 #
straight-curve $-1 2.2609998017774409 -22.550783628230054 47.705322842743961 0 0 1 I I #
straight-curve $-1 2.2609998017774409 -22.550783628230057 0.63593854606924083 0 -0.85716729658548041 -0.51503808176128008 I I #
edge $-1 $599 -21.80608498168051 $327 2.2609998017774409 $470 $606 forward 7 unknown #
point $-1 2.2609998017774409 -22.550783628230054 5.790651980588021 #
point $-1 2.2609998017774409 -13.971899977084297 5.790651980588021 #
edge $-1 $607 1 $607 0 $330 $-1 forward 7 unknown #
vertex $-1 $331 $608 #
ellipse-curve $-1 -14.929775043549668 -14.912973402522992 -2.3593254634733962 0 -0.51503808176128008 0.85716729658548041 2.5 0 0 1 I I #
point $-1 -12.429775043549668 -18.261341802657171 3.2132952633286291 #
edge $-1 $609 1 $609 0 $334 $-1 forward 7 unknown #
vertex $-1 $335 $610 #
ellipse-curve $-1 -4.6153101363534077 -14.912973402522992 -2.3593254634733962 0 -0.51503808176128008 0.85716729658548041 2.5 0 0 1 I I #
point $-1 -2.1153101363534077 -18.261341802657171 3.2132952633286291 #
plane-surface $-1 0 -22.550783628230054 0 0 1 0 0 0 1 forward_v I I I I #
coedge $-1 $344 $492 $611 $612 reversed $339 $-1 #
coedge $-1 $611 $341 $342 $490 forward $215 $-1 #
coedge $-1 $341 $611 $349 $500 forward $215 $-1 #
edge $-1 $496 -31.214355880211166 $493 -7.147271096753208 $488 $613 forward 7 unknown #
edge $-1 $494 7.147271096753208 $352 31.214355880211166 $350 $614 forward 7 unknown #
coedge $-1 $487 $344 $499 $615 reversed $339 $-1 #
vertex $-1 $490 $616 #
vertex $-1 $491 $617 #
straight-curve $-1 2.2609998017774409 -22.550783628230057 0.63593854606924083 0 -0.85716729658548041 -0.51503808176128008 I I #
vertex $-1 $348 $618 #
straight-curve $-1 26.328084585235398 -22.550783628230057 0.63593854606924083 0 -0.85716729658548041 -0.51503808176128008 I I #
straight-curve $-1 26.328084585235398 -39.748586929594737 5.7906519805880237 0 1 0 I I #
coedge $-1 $350 $349 $492 $615 forward $351 $-1 #
edge $-1 $619 2.2609998017774409 $353 26.328084585235398 $349 $620 forward 7 unknown #
point $-1 26.328084585235398 -22.550783628230054 0.63593854606924294 #
point $-1 26.328084585235398 -22.550783628230054 5.790651980588021 #
edge $-1 $621 1 $621 0 $355 $-1 forward 7 unknown #
vertex $-1 $356 $622 #
ellipse-curve $-1 9.1373097399082823 -14.912973402522992 -2.3593254634733962 0 -0.51503808176128008 0.85716729658548041 2.5 0 0 1 I I #
point $-1 11.637309739908282 -18.261341802657171 3.2132952633286291 #
edge $-1 $623 1 $623 0 $359 $-1 forward 7 unknown #
vertex $-1 $360 $624 #
ellipse-curve $-1 19.451774647104536 -14.912973402522992 -2.3593254634733962 0 -0.51503808176128008 0.85716729658548041 2.5 0 0 1 I I #
point $-1 21.951774647104536 -18.261341802657171 3.2132952633286291 #
plane-surface $-1 0 0 5.790651980588021 0 0 1 1 0 0 forward_v I I I I #
coedge $-1 $522 $521 $514 $625 forward $364 $-1 #
coedge $-1 $514 $366 $368 $518 reversed $237 $-1 #
coedge $-1 $366 $513 $512 $625 reversed $237 $-1 #
coedge $-1 $374 $369 $366 $516 forward $375 $-1 #
edge $-1 $519 -19.631193363257477 $626 -16.578992412372781 $515 $627 forward 7 unknown #
coedge $-1 $368 $367 $522 $628 reversed $149 $-1 #
edge $-1 $629 -45.101567256460093 $519 -40.353185439849774 $513 $630 forward 7 unknown #
vertex $-1 $370 $631 #
straight-curve $-1 -7.3838548182391115 19.498582677345357 5.7906519805880201 1 0 0 I I #
coedge $-1 $512 $371 $374 $526 reversed $364 $-1 #
coedge $-1 $371 $512 $517 $628 forward $364 $-1 #
vertex $-1 $372 $632 #
straight-curve $-1 -26.237399698966566 22.550783628230054 53.887150147605695 0 0 1 I I #
straight-curve $-1 -26.237399698966566 -6.4399445362600574 36.702985783326923 0 0.64278759981090561 -0.7660444514056185 I I #
edge $-1 $626 3.2980195739898797 $376 26.237399698966566 $521 $633 forward 7 unknown #
point $-1 -26.237399698966566 22.550783628230054 5.790651980588021 #
point $-1 -26.237399698966566 19.498582677345357 5.7906519805880166 #
edge $-1 $634 1 $634 0 $379 $-1 forward 7 unknown #
vertex $-1 $380 $635 #
ellipse-curve $-1 -19.683291091830377 20.258638701382075 3.3291286088922725 0 0.7660444514056185 0.64278759981090561 0.5 0 0 1 I I #
point $-1 -19.183291091830377 21.024683152787695 3.9719162087031781 #
edge $-1 $636 1 $636 0 $383 $-1 forward 7 unknown #
vertex $-1 $384 $637 #
ellipse-curve $-1 -9.8521281811260835 20.258638701382075 3.3291286088922725 0 0.7660444514056185 0.64278759981090561 0.5 0 0 1 I I #
point $-1 -9.3521281811260835 21.024683152787695 3.9719162087031781 #
loop $-1 $-1 $395 $387 #
plane-surface $-1 0 22.550783628230054 0 0 -1 0 0 0 -1 forward_v I I I I #
coedge $-1 $540 $390 $392 $544 reversed $259 $-1 #
coedge $-1 $390 $539 $638 $639 reversed $259 $-1 #
coedge $-1 $398 $393 $390 $542 forward $388 $-1 #
edge $-1 $545 -19.631193363257477 $640 -16.578992412372781 $541 $641 forward 7 unknown #
coedge $-1 $392 $391 $548 $642 reversed $163 $-1 #
edge $-1 $643 -45.101567256460093 $545 -40.353185439849774 $539 $644 forward 7 unknown #
vertex $-1 $394 $645 #
straight-curve $-1 19.127480053661866 19.498582677345357 5.7906519805880201 1 0 0 I I #
coedge $-1 $638 $395 $398 $552 reversed $537 $-1 #
coedge $-1 $395 $638 $543 $642 forward $537 $-1 #
vertex $-1 $396 $646 #
straight-curve $-1 26.785270044835389 22.550783628230054 53.887150147605695 0 0 1 I I #
straight-curve $-1 26.785270044835389 -6.4399445362600574 36.702985783326923 0 0.64278759981090561 -0.7660444514056185 I I #
edge $-1 $640 -49.72465016981208 $399 -26.785270044835389 $547 $647 forward 7 unknown #
point $-1 26.785270044835389 22.550783628230054 5.790651980588021 #
point $-1 26.785270044835389 19.498582677345357 5.7906519805880166 #
edge $-1 $648 1 $648 0 $402 $-1 forward 7 unknown #
vertex $-1 $403 $649 #
ellipse-curve $-1 33.339378651971593 20.258638701382075 3.3291286088922725 0 0.7660444514056185 0.64278759981090561 0.5 0 0 1 I I #
point $-1 33.839378651971593 21.024683152787695 3.9719162087031781 #
edge $-1 $650 1 $650 0 $406 $-1 forward 7 unknown #
vertex $-1 $407 $651 #
ellipse-curve $-1 43.170541562675872 20.258638701382075 3.3291286088922725 0 0.7660444514056185 0.64278759981090561 0.5 0 0 1 I I #
point $-1 43.670541562675872 21.024683152787695 3.9719162087031781 #
plane-surface $-1 55.283669545579393 0 0 -1 0 0 0 0 1 forward_v I I I I #
coedge $-1 $415 $413 $417 $568 reversed $281 $-1 #
edge $-1 $428 -5.790651980588021 $570 5.790651980588021 $427 $652 forward 7 unknown #
vertex $-1 $568 $653 #
straight-curve $-1 -55.283669545579393 -22.550783628230054 0 0 0 -1 I I #
edge $-1 $566 -22.550783628230054 $570 22.550783628230054 $564 $654 forward 7 unknown #
straight-curve $-1 0 -22.550783628230054 -5.790651980588021 -1 0 0 I I #
vertex $-1 $420 $655 #
straight-curve $-1 0 22.550783628230054 -5.790651980588021 1 0 0 I I #
point $-1 55.283669545579393 22.550783628230054 -5.790651980588021 #
point $-1 55.283669545579393 -22.550783628230054 -5.790651980588021 #
straight-curve $-1 -55.283669545579393 0 5.790651980588021 0 -1 0 I I #
point $-1 -55.283669545579393 22.550783628230054 5.790651980588021 #
point $-1 -55.283669545579393 -22.550783628230054 5.790651980588021 #
straight-curve $-1 55.283669545579393 -22.550783628230054 0 0 0 -1 I I #
straight-curve $-1 55.283669545579393 22.550783628230054 0 0 0 -1 I I #
plane-surface $-1 0 0 5.790651980588021 0 0 1 1 0 0 forward_v I I I I #
coedge $-1 $442 $439 $444 $587 reversed $300 $-1 #
coedge $-1 $439 $442 $593 $656 reversed $300 $-1 #
edge $-1 $595 -5.790651980588021 $589 5.790651980588021 $456 $657 forward 7 unknown #
edge $-1 $584 -2.2609998017774373 $454 2.2609998017774373 $441 $658 forward 7 unknown #
vertex $-1 $656 $659 #
vertex $-1 $587 $660 #
straight-curve $-1 -59.805669149134268 -13.990543408261697 0 0 0 -1 I I #
edge $-1 $585 -1.5105318706038418 $589 1.5105318706038418 $580 $661 forward 7 unknown #
straight-curve $-1 -57.54466934735683 -13.990543408261697 -5.790651980588021 -1 0 0 I I #
vertex $-1 $446 $662 #
straight-curve $-1 -57.54466934735683 -10.969479667054014 -5.790651980588021 1 0 0 I I #
point $-1 -55.283669545579393 -13.990543408261697 -5.790651980588021 #
straight-curve $-1 -55.283669545579393 -13.990543408261697 0 0 0 -1 I I #
coedge $-1 $452 $451 $581 $656 forward $453 $-1 #
point $-1 -55.283669545579393 -13.990543408261697 5.790651980588021 #
vertex $-1 $457 $663 #
straight-curve $-1 -57.54466934735683 -10.969479667054014 5.790651980588021 -1 0 0 I I #
coedge $-1 $471 $470 $463 $598 forward $460 $-1 #
edge $-1 $599 41.914670862155937 $602 47.06938429667472 $597 $664 forward 7 unknown #
vertex $-1 $475 $665 #
straight-curve $-1 -21.80608498168051 -39.748586929594737 5.7906519805880237 0 -1 0 I I #
edge $-1 $602 -16.919813686704742 $472 7.147271096753208 $471 $666 forward 7 unknown #
vertex $-1 $601 $667 #
straight-curve $-1 -21.80608498168051 -22.550783628230057 0.63593854606924083 0 0.85716729658548041 0.51503808176128008 I I #
point $-1 -21.80608498168051 -13.971899977084297 5.790651980588021 #
point $-1 2.2609998017774409 -22.550783628230054 0.63593854606924294 #
straight-curve $-1 0 -22.550783628230054 5.790651980588021 1 0 0 I I #
vertex $-1 $478 $668 #
point $-1 -12.429775043549668 -14.912973402522992 -2.3593254634733962 #
vertex $-1 $482 $669 #
point $-1 -2.1153101363534077 -14.912973402522992 -2.3593254634733962 #
coedge $-1 $489 $488 $487 $612 forward $215 $-1 #
edge $-1 $493 -25.776686952510438 $619 -17.197803301364683 $611 $670 forward 7 unknown #
straight-curve $-1 -4.8862712949757672 -13.971899977084297 5.790651980588021 -1 0 0 I I #
straight-curve $-1 -4.8862712949757672 -22.550783628230054 0.63593854606924305 1 0 0 I I #
edge $-1 $619 41.914670862155937 $494 47.06938429667472 $499 $671 forward 7 unknown #
point $-1 2.2609998017774409 -13.971899977084297 5.790651980588021 #
point $-1 2.2609998017774409 -22.550783628230054 0.63593854606924294 #
point $-1 26.328084585235398 -13.971899977084297 5.790651980588021 #
vertex $-1 $500 $672 #
straight-curve $-1 0 -22.550783628230054 5.790651980588021 1 0 0 I I #
vertex $-1 $503 $673 #
point $-1 11.637309739908282 -14.912973402522992 -2.3593254634733962 #
vertex $-1 $507 $674 #
point $-1 21.951774647104536 -14.912973402522992 -2.3593254634733962 #
edge $-1 $626 48.096498167017671 $629 51.733969710787342 $512 $675 forward 7 unknown #
vertex $-1 $526 $676 #
straight-curve $-1 -3.2980195739898797 39.129776040602835 5.7906519805880237 0 1 0 I I #
edge $-1 $629 -4.0858352442492318 $523 18.853544880727455 $522 $677 forward 7 unknown #
vertex $-1 $628 $678 #
straight-curve $-1 -3.2980195739898797 -6.4399445362600574 36.702985783326923 0 -0.64278759981090561 0.7660444514056185 I I #
point $-1 -3.2980195739898797 19.498582677345357 5.7906519805880166 #
point $-1 -26.237399698966566 22.550783628230054 2.1531804368183529 #
straight-curve $-1 0 22.550783628230054 5.790651980588021 -1 0 0 I I #
vertex $-1 $529 $679 #
point $-1 -19.183291091830377 20.258638701382075 3.3291286088922725 #
vertex $-1 $533 $680 #
point $-1 -9.3521281811260835 20.258638701382075 3.3291286088922725 #
coedge $-1 $548 $547 $540 $639 forward $537 $-1 #
edge $-1 $640 48.096498167017671 $643 51.733969710787342 $638 $681 forward 7 unknown #
vertex $-1 $552 $682 #
straight-curve $-1 49.72465016981208 39.129776040602835 5.7906519805880237 0 1 0 I I #
edge $-1 $643 -30.597170116150213 $549 -7.657789991173523 $548 $683 forward 7 unknown #
vertex $-1 $642 $684 #
straight-curve $-1 49.72465016981208 -6.4399445362600574 36.702985783326923 0 -0.64278759981090561 0.7660444514056185 I I #
point $-1 49.72465016981208 19.498582677345357 5.7906519805880166 #
point $-1 26.785270044835389 22.550783628230054 2.1531804368183529 #
straight-curve $-1 0 22.550783628230054 5.790651980588021 -1 0 0 I I #
vertex $-1 $555 $685 #
point $-1 33.839378651971593 20.258638701382075 3.3291286088922725 #
vertex $-1 $559 $686 #
point $-1 43.670541562675872 20.258638701382075 3.3291286088922725 #
straight-curve $-1 -55.283669545579393 22.550783628230054 0 0 0 -1 I I #
point $-1 -55.283669545579393 -22.550783628230054 -5.790651980588021 #
straight-curve $-1 -55.283669545579393 0 -5.790651980588021 0 1 0 I I #
point $-1 -55.283669545579393 22.550783628230054 -5.790651980588021 #
edge $-1 $595 -1.5105318706038418 $584 1.5105318706038418 $581 $687 forward 7 unknown #
straight-curve $-1 -59.805669149134268 -10.969479667054014 0 0 0 -1 I I #
straight-curve $-1 -57.54466934735683 -13.990543408261697 5.790651980588021 1 0 0 I I #
point $-1 -59.805669149134268 -13.990543408261697 5.790651980588021 #
point $-1 -59.805669149134268 -13.990543408261697 -5.790651980588021 #
straight-curve $-1 -59.805669149134268 -12.480011537657855 -5.790651980588021 0 1 0 I I #
point $-1 -59.805669149134268 -10.969479667054014 -5.790651980588021 #
point $-1 -59.805669149134268 -10.969479667054014 5.790651980588021 #
straight-curve $-1 -21.80608498168051 -22.550783628230054 47.705322842743961 0 0 -1 I I #
point $-1 -21.80608498168051 -22.550783628230054 5.790651980588021 #
straight-curve $-1 -4.8862712949757672 -22.550783628230054 0.63593854606924305 1 0 0 I I #
point $-1 -21.80608498168051 -22.550783628230054 0.63593854606924294 #
point $-1 -14.929775043549668 -13.625378198119792 -4.5022437049370971 #
point $-1 -4.6153101363534077 -13.625378198119792 -4.5022437049370971 #
straight-curve $-1 2.2609998017774409 -39.748586929594737 5.7906519805880237 0 -1 0 I I #
straight-curve $-1 2.2609998017774409 -22.550783628230054 47.705322842743961 0 0 -1 I I #
point $-1 2.2609998017774409 -22.550783628230054 5.790651980588021 #
point $-1 9.1373097399082823 -13.625378198119792 -4.5022437049370971 #
point $-1 19.451774647104536 -13.625378198119792 -4.5022437049370971 #
straight-curve $-1 -3.2980195739898797 22.550783628230054 53.887150147605695 0 0 -1 I I #
point $-1 -3.2980195739898797 22.550783628230054 5.790651980588021 #
straight-curve $-1 -7.3838548182391115 22.550783628230054 2.1531804368183494 -1 0 0 I I #
point $-1 -3.2980195739898797 22.550783628230054 2.1531804368183529 #
point $-1 -19.683291091830377 19.875616475679266 3.0077348089868199 #
point $-1 -9.8521281811260835 19.875616475679266 3.0077348089868199 #
straight-curve $-1 49.72465016981208 22.550783628230054 53.887150147605695 0 0 -1 I I #
point $-1 49.72465016981208 22.550783628230054 5.790651980588021 #
straight-curve $-1 19.127480053661866 22.550783628230054 2.1531804368183494 -1 0 0 I I #
point $-1 49.72465016981208 22.550783628230054 2.1531804368183529 #
point $-1 33.339378651971593 19.875616475679266 3.0077348089868199 #
point $-1 43.170541562675872 19.875616475679266 3.0077348089868199 #
straight-curve $-1 -59.805669149134268 -12.480011537657855 5.790651980588021 0 -1 0 I I #
End-of-ACIS-data 