500 0 5 0           
7 Unknown 11 ACIS 5.0 NT 24 Thu Mar 25 21:43:01 1999 
-1 9.9999999999999995e-007 1e-010 
body $-1 $5 $-1 $6 #
body $-1 $7 $-1 $8 #
body $-1 $9 $-1 $10 #
body $-1 $11 $-1 $12 #
body $-1 $13 $-1 $14 #
lump $-1 $-1 $15 $0 #
transform $-1 1 0 0 0 1 0 0 0 1 54.626911221655931 23.268660176214432 9.7751522809430877 1 rotate no_reflect no_shear #
lump $-1 $-1 $16 $1 #
transform $-1 1 0 0 0 1 0 0 0 1 54.626911221655931 23.268660176214432 9.7751522809430877 1 rotate no_reflect no_shear #
lump $-1 $-1 $17 $2 #
transform $-1 1 0 0 0 1 0 0 0 1 54.626911221655931 23.268660176214432 9.7751522809430877 1 rotate no_reflect no_shear #
lump $-1 $-1 $18 $3 #
transform $-1 1 0 0 0 1 0 0 0 1 54.626911221655931 23.268660176214432 9.7751522809430877 1 rotate no_reflect no_shear #
lump $-1 $-1 $19 $4 #
transform $-1 1 0 0 0 1 0 0 0 1 54.626911221655931 23.268660176214432 9.7751522809430877 1 rotate no_reflect no_shear #
shell $-1 $-1 $-1 $20 $-1 $5 #
shell $-1 $-1 $-1 $21 $-1 $7 #
shell $-1 $-1 $-1 $22 $-1 $9 #
shell $-1 $-1 $-1 $23 $-1 $11 #
shell $-1 $-1 $-1 $24 $-1 $13 #
face $-1 $25 $26 $15 $-1 $27 forward single #
face $-1 $28 $29 $16 $-1 $30 forward single #
face $-1 $31 $32 $17 $-1 $33 forward single #
face $-1 $34 $35 $18 $-1 $36 reversed single #
face $-1 $37 $38 $19 $-1 $39 forward single #
face $-1 $40 $41 $15 $-1 $42 reversed single #
loop $-1 $-1 $43 $20 #
plane-surface $-1 0 0 9.7751522809430877 0 0 1 1 0 0 forward_v I I I I #
face $-1 $44 $45 $16 $-1 $46 reversed single #
loop $-1 $-1 $47 $21 #
plane-surface $-1 0 -18.923128117895821 1.0382487892549874 0 0 1 1 0 0 forward_v I I I I #
face $-1 $48 $49 $17 $-1 $50 reversed single #
loop $-1 $-1 $51 $22 #
plane-surface $-1 0 18.923128117895821 1.0382487892549874 0 0 1 1 0 0 forward_v I I I I #
face $-1 $52 $53 $18 $-1 $54 reversed single #
loop $-1 $-1 $55 $23 #
plane-surface $-1 -54.626911221655931 10.861221205794259 0.80081071761503608 -0.57357644374324357 0 0.81915203911291934 0.81915203911291934 0 0.57357644374324357 forward_v I I I I #
face $-1 $56 $57 $19 $-1 $58 forward single #
loop $-1 $59 $60 $24 #
cone-surface $-1 -47.479917213676778 10.861221205794259 4.2330798182445672 0.57357644374324357 0 -0.81915203911291934 1.228728058669379 0 0.86036466561486535 1 I I 0 1 1.5 forward I I I I #
face $-1 $61 $62 $15 $-1 $63 reversed single #
loop $-1 $-1 $64 $25 #
plane-surface $-1 0 0 -9.7751522809430877 0 0 1 1 0 0 forward_v I I I I #
coedge $-1 $65 $66 $67 $68 forward $26 $-1 #
face $-1 $69 $70 $16 $-1 $71 reversed single #
loop $-1 $-1 $72 $28 #
plane-surface $-1 0 -18.923128117895821 -3.7018065893852508 0 0 1 1 0 0 forward_v I I I I #
coedge $-1 $73 $74 $75 $76 reversed $29 $-1 #
face $-1 $77 $78 $17 $-1 $79 reversed single #
loop $-1 $-1 $80 $31 #
plane-surface $-1 0 18.923128117895821 -3.7018065893852508 0 0 1 1 0 0 forward_v I I I I #
coedge $-1 $81 $82 $83 $84 reversed $32 $-1 #
face $-1 $85 $86 $18 $-1 $87 forward single #
loop $-1 $-1 $88 $34 #
plane-surface $-1 -117.29233016404652 7.1448463520113066 90.296302152934786 0 1 0 -0.57357644374324357 0 0.81915203911291934 forward_v I I I I #
coedge $-1 $89 $90 $91 $92 reversed $35 $-1 #
face $-1 $-1 $93 $19 $-1 $94 forward single #
loop $-1 $95 $96 $37 #
cone-surface $-1 -46.311084757551846 10.861221205794259 2.5638141078753733 0.57357644374324357 0 -0.81915203911291934 0.61436402933468948 0 0.43018233280743268 1 I I -0.70710678118654757 0.70710678118654757 0.75 forward I I I I #
loop $-1 $-1 $97 $24 #
coedge $-1 $60 $60 $98 $99 reversed $38 $-1 #
face $-1 $100 $101 $15 $-1 $102 reversed single #
loop $-1 $-1 $103 $40 #
plane-surface $-1 0 -23.268660176214432 0 0 1 0 0 0 1 forward_v I I I I #
coedge $-1 $104 $105 $106 $107 forward $41 $-1 #
coedge $-1 $108 $43 $109 $110 forward $26 $-1 #
coedge $-1 $43 $108 $111 $112 forward $26 $-1 #
coedge $-1 $113 $114 $43 $68 reversed $115 $-1 #
edge $-1 $116 -23.268660176214432 $117 23.268660176214432 $67 $118 forward 7 unknown #
face $-1 $119 $120 $16 $-1 $121 reversed single #
loop $-1 $-1 $122 $44 #
plane-surface $-1 0 -14.57759605957721 -1.3317789000651317 0 -1 0 0 0 -1 forward_v I I I I #
coedge $-1 $123 $124 $125 $126 reversed $45 $-1 #
coedge $-1 $127 $47 $128 $129 forward $29 $-1 #
coedge $-1 $47 $127 $130 $131 reversed $29 $-1 #
coedge $-1 $132 $133 $47 $76 forward $134 $-1 #
edge $-1 $135 5.1160320006292999 $136 13.807096117266521 $75 $137 forward 7 unknown #
face $-1 $138 $139 $17 $-1 $140 reversed single #
loop $-1 $-1 $141 $48 #
plane-surface $-1 0 14.57759605957721 -1.3317789000651317 0 1 0 0 0 1 forward_v I I I I #
coedge $-1 $142 $143 $144 $145 reversed $49 $-1 #
coedge $-1 $146 $51 $147 $148 reversed $32 $-1 #
coedge $-1 $51 $146 $149 $150 forward $32 $-1 #
coedge $-1 $151 $152 $51 $84 forward $139 $-1 #
edge $-1 $153 -13.807096117266521 $154 -5.1160320006292999 $83 $155 forward 7 unknown #
face $-1 $156 $157 $18 $-1 $158 reversed single #
loop $-1 $-1 $159 $52 #
plane-surface $-1 0 14.57759605957721 -1.3317789000651317 0 1 0 0 0 1 forward_v I I I I #
coedge $-1 $160 $161 $162 $163 reversed $53 $-1 #
coedge $-1 $164 $55 $159 $165 reversed $35 $-1 #
coedge $-1 $55 $164 $160 $166 forward $35 $-1 #
coedge $-1 $162 $167 $55 $92 forward $157 $-1 #
edge $-1 $168 -9.1469854566800812 $169 -1.7142357491141773 $91 $170 forward 7 unknown #
loop $-1 $-1 $98 $56 #
plane-surface $-1 -54.626911221655931 10.861221205794259 0.80081071761503608 -0.57357644374324357 0 0.81915203911291934 0.81915203911291934 0 0.57357644374324357 forward_v I I I I #
loop $-1 $-1 $171 $37 #
coedge $-1 $96 $96 $97 $172 reversed $57 $-1 #
coedge $-1 $97 $97 $96 $172 forward $59 $-1 #
coedge $-1 $98 $98 $60 $99 forward $93 $-1 #
edge $-1 $173 0 $173 6.2831853071796004 $98 $174 forward 7 unknown #
face $-1 $175 $176 $15 $-1 $177 reversed single #
loop $-1 $-1 $178 $61 #
plane-surface $-1 -54.626911221655931 0 0 1 0 0 0 0 -1 forward_v I I I I #
coedge $-1 $179 $111 $180 $181 forward $62 $-1 #
coedge $-1 $182 $64 $179 $183 forward $41 $-1 #
coedge $-1 $64 $182 $184 $185 forward $41 $-1 #
coedge $-1 $114 $113 $64 $107 reversed $115 $-1 #
edge $-1 $186 -23.268660176214432 $187 23.268660176214432 $106 $188 forward 7 unknown #
coedge $-1 $66 $65 $189 $190 forward $26 $-1 #
coedge $-1 $191 $192 $65 $110 reversed $176 $-1 #
edge $-1 $117 -54.626911221655931 $193 54.626911221655931 $109 $194 forward 7 unknown #
coedge $-1 $103 $195 $66 $112 reversed $62 $-1 #
edge $-1 $196 -54.626911221655931 $116 54.626911221655931 $111 $197 forward 7 unknown #
coedge $-1 $106 $67 $195 $198 forward $115 $-1 #
coedge $-1 $67 $106 $191 $199 reversed $115 $-1 #
loop $-1 $-1 $113 $175 #
vertex $-1 $68 $200 #
vertex $-1 $68 $201 #
straight-curve $-1 54.626911221655931 0 9.7751522809430877 0 1 0 I I #
face $-1 $202 $203 $16 $-1 $204 reversed single #
loop $-1 $-1 $205 $69 #
plane-surface $-1 -54.626911221655931 0 0 1 0 0 0 0 -1 forward_v I I I I #
coedge $-1 $206 $128 $133 $207 reversed $70 $-1 #
coedge $-1 $208 $72 $209 $210 reversed $45 $-1 #
coedge $-1 $72 $208 $206 $211 forward $45 $-1 #
coedge $-1 $133 $132 $72 $126 forward $134 $-1 #
edge $-1 $212 -13.807096117266521 $213 -5.1160320006292999 $125 $214 forward 7 unknown #
coedge $-1 $74 $73 $205 $215 reversed $29 $-1 #
coedge $-1 $122 $216 $73 $129 reversed $70 $-1 #
edge $-1 $135 -54.626911221655931 $217 54.626911221655931 $128 $218 forward 7 unknown #
coedge $-1 $219 $220 $74 $131 forward $203 $-1 #
edge $-1 $136 -54.626911221655931 $221 54.626911221655931 $130 $222 forward 7 unknown #
coedge $-1 $125 $75 $220 $223 forward $134 $-1 #
coedge $-1 $75 $125 $122 $207 forward $134 $-1 #
loop $-1 $-1 $75 $202 #
vertex $-1 $76 $224 #
vertex $-1 $223 $225 #
straight-curve $-1 54.626911221655931 -9.4615640589479106 1.0382487892549874 0 -1 0 I I #
face $-1 $226 $227 $17 $-1 $228 reversed single #
loop $-1 $-1 $83 $77 #
plane-surface $-1 54.626911221655931 0 0 -1 0 0 0 0 1 forward_v I I I I #
coedge $-1 $229 $149 $230 $231 reversed $78 $-1 #
coedge $-1 $232 $80 $229 $233 forward $49 $-1 #
coedge $-1 $80 $232 $234 $235 reversed $49 $-1 #
coedge $-1 $152 $151 $80 $145 forward $139 $-1 #
edge $-1 $236 5.1160320006292999 $237 13.807096117266521 $144 $238 forward 7 unknown #
coedge $-1 $82 $81 $239 $240 reversed $32 $-1 #
coedge $-1 $241 $242 $81 $148 forward $243 $-1 #
edge $-1 $244 -54.626911221655931 $153 54.626911221655931 $147 $245 forward 7 unknown #
coedge $-1 $141 $246 $82 $150 reversed $78 $-1 #
edge $-1 $247 -54.626911221655931 $154 54.626911221655931 $149 $248 forward 7 unknown #
coedge $-1 $144 $83 $246 $249 forward $139 $-1 #
coedge $-1 $83 $144 $241 $250 reversed $139 $-1 #
vertex $-1 $250 $251 #
vertex $-1 $84 $252 #
straight-curve $-1 54.626911221655931 9.4615640589479106 1.0382487892549874 0 -1 0 I I #
face $-1 $-1 $253 $18 $-1 $254 forward single #
loop $-1 $-1 $167 $85 #
plane-surface $-1 -54.626911221655931 0 0 1 0 0 0 0 -1 forward_v I I I I #
coedge $-1 $255 $256 $89 $165 forward $86 $-1 #
coedge $-1 $161 $88 $90 $166 reversed $53 $-1 #
coedge $-1 $88 $160 $257 $258 reversed $53 $-1 #
coedge $-1 $259 $91 $88 $163 forward $157 $-1 #
edge $-1 $169 -44.347340358852357 $260 -35.372998795524303 $162 $261 forward 7 unknown #
coedge $-1 $90 $89 $262 $263 reversed $35 $-1 #
edge $-1 $264 6.1159844346478618 $168 21.762271274393559 $159 $265 forward 7 unknown #
edge $-1 $266 -15.646286839745699 $169 0 $160 $267 forward 7 unknown #
coedge $-1 $91 $259 $255 $268 forward $157 $-1 #
vertex $-1 $165 $269 #
vertex $-1 $92 $270 #
straight-curve $-1 -54.626911221655931 5.4306106028971293 0.80081071761503642 0 -1 0 I I #
coedge $-1 $171 $171 $-1 $271 reversed $95 $-1 #
edge $-1 $272 0 $272 6.2831853071796004 $96 $273 forward 7 unknown #
vertex $-1 $99 $274 #
ellipse-curve $-1 -48.218567336994269 10.861221205794259 5.2879814992790601 -0.57357644374324357 0 0.81915203911291934 1.228728058669379 0 0.86036466561486535 1 I I #
face $-1 $-1 $115 $15 $-1 $275 reversed single #
loop $-1 $-1 $191 $100 #
plane-surface $-1 0 23.268660176214432 0 0 -1 0 0 0 -1 forward_v I I I I #
coedge $-1 $276 $189 $192 $277 forward $101 $-1 #
coedge $-1 $195 $103 $104 $183 reversed $62 $-1 #
coedge $-1 $189 $276 $103 $181 reversed $101 $-1 #
edge $-1 $196 -9.7751522809430877 $278 9.7751522809430877 $180 $279 forward 7 unknown #
coedge $-1 $105 $104 $276 $280 forward $41 $-1 #
edge $-1 $187 -54.626911221655931 $278 54.626911221655931 $179 $281 forward 7 unknown #
coedge $-1 $192 $191 $105 $185 reversed $176 $-1 #
edge $-1 $282 -54.626911221655931 $186 54.626911221655931 $184 $283 forward 7 unknown #
vertex $-1 $107 $284 #
vertex $-1 $198 $285 #
straight-curve $-1 54.626911221655931 0 -9.7751522809430877 0 -1 0 I I #
coedge $-1 $178 $180 $108 $190 reversed $101 $-1 #
edge $-1 $193 -23.268660176214432 $196 23.268660176214432 $189 $286 forward 7 unknown #
coedge $-1 $184 $109 $114 $199 forward $176 $-1 #
coedge $-1 $109 $184 $178 $277 reversed $176 $-1 #
vertex $-1 $110 $287 #
straight-curve $-1 0 23.268660176214432 9.7751522809430877 -1 0 0 I I #
coedge $-1 $111 $179 $113 $198 reversed $62 $-1 #
vertex $-1 $190 $288 #
straight-curve $-1 0 -23.268660176214432 9.7751522809430877 1 0 0 I I #
edge $-1 $116 -9.7751522809430877 $187 9.7751522809430877 $113 $289 forward 7 unknown #
edge $-1 $117 -9.7751522809430877 $186 9.7751522809430877 $114 $290 forward 7 unknown #
point $-1 54.626911221655931 -23.268660176214432 9.7751522809430877 #
point $-1 54.626911221655931 23.268660176214432 9.7751522809430877 #
face $-1 $-1 $134 $16 $-1 $291 reversed single #
loop $-1 $-1 $130 $119 #
plane-surface $-1 0 -23.268660176214432 0 0 1 0 0 0 1 forward_v I I I I #
coedge $-1 $292 $293 $127 $215 forward $120 $-1 #
coedge $-1 $216 $122 $124 $211 reversed $70 $-1 #
edge $-1 $213 -3.0359171393526849 $135 1.7041382392875533 $133 $294 forward 7 unknown #
coedge $-1 $124 $123 $295 $296 reversed $45 $-1 #
coedge $-1 $220 $219 $123 $210 forward $203 $-1 #
edge $-1 $297 -54.626911221655931 $212 54.626911221655931 $209 $298 forward 7 unknown #
edge $-1 $299 -54.626911221655931 $213 54.626911221655931 $206 $300 forward 7 unknown #
vertex $-1 $210 $301 #
vertex $-1 $126 $302 #
straight-curve $-1 54.626911221655931 -9.4615640589479106 -3.7018065893852508 0 1 0 I I #
edge $-1 $221 -13.807096117266521 $217 -5.1160320006292999 $205 $303 forward 7 unknown #
coedge $-1 $128 $206 $292 $304 reversed $70 $-1 #
vertex $-1 $215 $305 #
straight-curve $-1 0 -14.57759605957721 1.0382487892549874 -1 0 0 I I #
coedge $-1 $209 $130 $293 $306 forward $203 $-1 #
coedge $-1 $130 $209 $132 $223 reversed $203 $-1 #
vertex $-1 $306 $307 #
straight-curve $-1 0 -23.268660176214432 1.0382487892549874 -1 0 0 I I #
edge $-1 $136 -1.0382487892549874 $212 3.7018065893852508 $132 $308 forward 7 unknown #
point $-1 54.626911221655931 -14.57759605957721 1.0382487892549874 #
point $-1 54.626911221655931 -23.268660176214432 1.0382487892549874 #
face $-1 $-1 $243 $17 $-1 $309 reversed single #
loop $-1 $-1 $239 $138 #
plane-surface $-1 -54.626911221655931 0 0 1 0 0 0 0 -1 forward_v I I I I #
coedge $-1 $246 $141 $142 $233 reversed $78 $-1 #
coedge $-1 $239 $310 $141 $231 forward $227 $-1 #
edge $-1 $311 -3.0359171393526849 $247 1.7041382392875533 $230 $312 forward 7 unknown #
coedge $-1 $143 $142 $310 $313 reversed $49 $-1 #
edge $-1 $236 -54.626911221655931 $311 54.626911221655931 $229 $314 forward 7 unknown #
coedge $-1 $242 $241 $143 $235 forward $243 $-1 #
edge $-1 $237 -54.626911221655931 $315 54.626911221655931 $234 $316 forward 7 unknown #
vertex $-1 $145 $317 #
vertex $-1 $235 $318 #
straight-curve $-1 54.626911221655931 9.4615640589479106 -3.7018065893852508 0 1 0 I I #
coedge $-1 $319 $230 $146 $240 forward $227 $-1 #
edge $-1 $247 5.1160320006292999 $244 13.807096117266521 $239 $320 forward 7 unknown #
coedge $-1 $234 $147 $152 $250 forward $243 $-1 #
coedge $-1 $147 $234 $319 $321 reversed $243 $-1 #
loop $-1 $-1 $147 $226 #
vertex $-1 $321 $322 #
straight-curve $-1 0 23.268660176214432 1.0382487892549874 1 0 0 I I #
coedge $-1 $149 $229 $151 $249 reversed $78 $-1 #
vertex $-1 $240 $323 #
straight-curve $-1 0 14.57759605957721 1.0382487892549874 1 0 0 I I #
edge $-1 $154 -1.7041382392875533 $236 3.0359171393526849 $151 $324 forward 7 unknown #
edge $-1 $153 -1.0382487892549874 $237 3.7018065893852508 $152 $325 forward 7 unknown #
point $-1 54.626911221655931 23.268660176214432 1.0382487892549874 #
point $-1 54.626911221655931 14.57759605957721 1.0382487892549874 #
loop $-1 $-1 $326 $156 #
plane-surface $-1 0 0 9.7751522809430877 0 0 1 1 0 0 forward_v I I I I #
coedge $-1 $256 $159 $167 $268 reversed $86 $-1 #
coedge $-1 $159 $255 $326 $327 reversed $86 $-1 #
coedge $-1 $262 $328 $161 $258 forward $253 $-1 #
edge $-1 $260 4.0192538603673285 $266 16.835941629690652 $257 $329 forward 7 unknown #
coedge $-1 $167 $162 $328 $330 reversed $157 $-1 #
vertex $-1 $258 $331 #
straight-curve $-1 -54.626911221655931 7.1448463520113066 45.148151076467393 0 0 1 I I #
coedge $-1 $326 $257 $164 $263 forward $253 $-1 #
edge $-1 $266 1.7142357491141773 $264 9.1469854566800812 $262 $332 forward 7 unknown #
vertex $-1 $327 $333 #
straight-curve $-1 -36.800302331507936 14.57759605957721 13.283136882957439 -0.81915203911291934 0 -0.57357644374324357 I I #
vertex $-1 $263 $334 #
straight-curve $-1 -54.626911221655931 7.1448463520113066 0.80081071761503608 -0.81915203911291934 0 -0.57357644374324357 I I #
edge $-1 $335 35.372998795524303 $168 44.347340358852357 $167 $336 forward 7 unknown #
point $-1 -54.626911221655931 14.57759605957721 0.80081071761503608 #
point $-1 -54.626911221655931 7.1448463520113066 0.80081071761503608 #
edge $-1 $337 1 $337 0 $171 $-1 forward 7 unknown #
vertex $-1 $172 $338 #
ellipse-curve $-1 -46.74126709035928 10.861221205794259 3.1781781372100628 -0.57357644374324357 0 0.81915203911291934 1.228728058669379 0 0.86036466561486535 1 I I #
point $-1 -46.989839278324901 10.861221205794259 6.1483461648939377 #
plane-surface $-1 54.626911221655931 0 0 -1 0 0 0 0 1 forward_v I I I I #
coedge $-1 $180 $178 $182 $280 reversed $101 $-1 #
edge $-1 $193 -9.7751522809430877 $282 9.7751522809430877 $192 $339 forward 7 unknown #
vertex $-1 $280 $340 #
straight-curve $-1 -54.626911221655931 -23.268660176214432 0 0 0 -1 I I #
edge $-1 $278 -23.268660176214432 $282 23.268660176214432 $276 $341 forward 7 unknown #
straight-curve $-1 0 -23.268660176214432 -9.7751522809430877 -1 0 0 I I #
vertex $-1 $185 $342 #
straight-curve $-1 0 23.268660176214432 -9.7751522809430877 1 0 0 I I #
point $-1 54.626911221655931 23.268660176214432 -9.7751522809430877 #
point $-1 54.626911221655931 -23.268660176214432 -9.7751522809430877 #
straight-curve $-1 -54.626911221655931 0 9.7751522809430877 0 -1 0 I I #
point $-1 -54.626911221655931 23.268660176214432 9.7751522809430877 #
point $-1 -54.626911221655931 -23.268660176214432 9.7751522809430877 #
straight-curve $-1 54.626911221655931 -23.268660176214432 0 0 0 -1 I I #
straight-curve $-1 54.626911221655931 23.268660176214432 0 0 0 -1 I I #
plane-surface $-1 54.626911221655931 0 0 -1 0 0 0 0 1 forward_v I I I I #
coedge $-1 $295 $205 $216 $304 forward $120 $-1 #
coedge $-1 $205 $295 $219 $306 reversed $120 $-1 #
straight-curve $-1 54.626911221655931 -14.57759605957721 -0.66588945003256583 0 0 1 I I #
coedge $-1 $293 $292 $208 $296 forward $120 $-1 #
edge $-1 $299 5.1160320006292999 $297 13.807096117266521 $295 $343 forward 7 unknown #
vertex $-1 $210 $344 #
straight-curve $-1 0 -23.268660176214432 -3.7018065893852508 1 0 0 I I #
vertex $-1 $296 $345 #
straight-curve $-1 0 -14.57759605957721 -3.7018065893852508 1 0 0 I I #
point $-1 54.626911221655931 -23.268660176214432 -3.7018065893852508 #
point $-1 54.626911221655931 -14.57759605957721 -3.7018065893852508 #
straight-curve $-1 -54.626911221655931 -9.4615640589479106 1.0382487892549874 0 1 0 I I #
edge $-1 $217 -1.7041382392875533 $299 3.0359171393526849 $292 $346 forward 7 unknown #
point $-1 -54.626911221655931 -14.57759605957721 1.0382487892549874 #
edge $-1 $221 -1.0382487892549874 $297 3.7018065893852508 $293 $347 forward 7 unknown #
point $-1 -54.626911221655931 -23.268660176214432 1.0382487892549874 #
straight-curve $-1 54.626911221655931 -23.268660176214432 0 0 0 -1 I I #
plane-surface $-1 0 23.268660176214432 0 0 -1 0 0 0 -1 forward_v I I I I #
coedge $-1 $230 $319 $232 $313 forward $227 $-1 #
vertex $-1 $313 $348 #
straight-curve $-1 -54.626911221655931 14.57759605957721 -0.66588945003256583 0 0 1 I I #
edge $-1 $315 -13.807096117266521 $311 -5.1160320006292999 $310 $349 forward 7 unknown #
straight-curve $-1 0 14.57759605957721 -3.7018065893852508 -1 0 0 I I #
vertex $-1 $235 $350 #
straight-curve $-1 0 23.268660176214432 -3.7018065893852508 -1 0 0 I I #
point $-1 54.626911221655931 14.57759605957721 -3.7018065893852508 #
point $-1 54.626911221655931 23.268660176214432 -3.7018065893852508 #
coedge $-1 $310 $239 $242 $321 forward $227 $-1 #
straight-curve $-1 -54.626911221655931 9.4615640589479106 1.0382487892549874 0 1 0 I I #
edge $-1 $244 -1.0382487892549874 $315 3.7018065893852508 $242 $351 forward 7 unknown #
point $-1 -54.626911221655931 23.268660176214432 1.0382487892549874 #
point $-1 -54.626911221655931 14.57759605957721 1.0382487892549874 #
straight-curve $-1 54.626911221655931 14.57759605957721 -0.66588945003256583 0 0 -1 I I #
straight-curve $-1 54.626911221655931 23.268660176214432 0 0 0 -1 I I #
coedge $-1 $328 $262 $256 $327 forward $253 $-1 #
edge $-1 $264 -16.835941629690652 $335 -4.0192538603673285 $326 $352 forward 7 unknown #
coedge $-1 $257 $326 $259 $330 forward $253 $-1 #
straight-curve $-1 -58.646165082023259 7.1448463520113066 9.7751522809430895 1 0 0 I I #
edge $-1 $335 -14.57759605957721 $260 -7.1448463520113066 $259 $353 forward 7 unknown #
point $-1 -54.626911221655931 7.1448463520113066 9.7751522809430877 #
straight-curve $-1 -41.810223452332608 5.4306106028971293 9.7751522809430895 0 1 0 I I #
point $-1 -41.810223452332608 14.57759605957721 9.7751522809430877 #
point $-1 -41.810223452332608 7.1448463520113066 9.7751522809430877 #
vertex $-1 $330 $354 #
straight-curve $-1 -54.626911221655931 14.57759605957721 45.148151076467393 0 0 -1 I I #
vertex $-1 $271 $355 #
point $-1 -45.512539031689897 10.861221205794259 4.0385428028249279 #
straight-curve $-1 -54.626911221655931 23.268660176214432 0 0 0 -1 I I #
point $-1 -54.626911221655931 -23.268660176214432 -9.7751522809430877 #
straight-curve $-1 -54.626911221655931 0 -9.7751522809430877 0 1 0 I I #
point $-1 -54.626911221655931 23.268660176214432 -9.7751522809430877 #
straight-curve $-1 -54.626911221655931 -9.4615640589479106 -3.7018065893852508 0 -1 0 I I #
point $-1 -54.626911221655931 -23.268660176214432 -3.7018065893852508 #
point $-1 -54.626911221655931 -14.57759605957721 -3.7018065893852508 #
straight-curve $-1 -54.626911221655931 -14.57759605957721 -0.66588945003256583 0 0 -1 I I #
straight-curve $-1 -54.626911221655931 -23.268660176214432 0 0 0 -1 I I #
point $-1 -54.626911221655931 14.57759605957721 -3.7018065893852508 #
straight-curve $-1 -54.626911221655931 9.4615640589479106 -3.7018065893852508 0 -1 0 I I #
point $-1 -54.626911221655931 23.268660176214432 -3.7018065893852508 #
straight-curve $-1 -54.626911221655931 23.268660176214432 0 0 0 -1 I I #
straight-curve $-1 -58.646165082023259 14.57759605957721 9.7751522809430895 -1 0 0 I I #
straight-curve $-1 -54.626911221655931 0 9.7751522809430877 0 -1 0 I I #
point $-1 -54.626911221655931 14.57759605957721 9.7751522809430877 #
point $-1 -45.880902424744413 10.861221205794259 1.9494500785406839 #
End-of-ACIS-data 