500 0 4 0           
7 Unknown 11 ACIS 5.0 NT 24 Fri Mar 26 18:59:22 1999 
-1 9.9999999999999995e-007 1e-010 
body $-1 $4 $-1 $5 #
body $-1 $6 $-1 $7 #
body $-1 $8 $-1 $9 #
body $-1 $10 $-1 $11 #
lump $-1 $-1 $12 $0 #
transform $-1 1 0 0 0 1 0 0 0 1 43.653675954466387 27.751864938501964 11.261919714156148 1 rotate no_reflect no_shear #
lump $-1 $-1 $13 $1 #
transform $-1 1 0 0 0 1 0 0 0 1 43.653675954466387 27.751864938501964 11.261919714156148 1 rotate no_reflect no_shear #
lump $-1 $-1 $14 $2 #
transform $-1 1 0 0 0 1 0 0 0 1 43.653675954466387 27.751864938501964 11.261919714156148 1 rotate no_reflect no_shear #
lump $-1 $-1 $15 $3 #
transform $-1 1 0 0 0 1 0 0 0 1 43.653675954466387 27.751864938501964 11.261919714156148 1 rotate no_reflect no_shear #
shell $-1 $-1 $-1 $16 $-1 $4 #
shell $-1 $-1 $-1 $17 $-1 $6 #
shell $-1 $-1 $-1 $18 $-1 $8 #
shell $-1 $-1 $-1 $19 $-1 $10 #
face $-1 $20 $21 $12 $-1 $22 forward single #
face $-1 $23 $24 $13 $-1 $25 forward single #
face $-1 $26 $27 $14 $-1 $28 reversed single #
face $-1 $29 $30 $15 $-1 $31 forward single #
face $-1 $32 $33 $12 $-1 $34 reversed single #
loop $-1 $-1 $35 $16 #
plane-surface $-1 0 0 11.261919714156148 0 0 1 1 0 0 forward_v I I I I #
face $-1 $36 $37 $13 $-1 $38 forward single #
loop $-1 $-1 $39 $17 #
plane-surface $-1 0 -27.751864938501964 0 0 1 0 0 0 1 forward_v I I I I #
face $-1 $40 $41 $14 $-1 $42 reversed single #
loop $-1 $-1 $43 $18 #
plane-surface $-1 31.410076822512366 28.753513053086092 109.65050244769843 1 0 0 0 -0.54463904215088732 -0.83867056331134215 forward_v I I I I #
face $-1 $44 $45 $15 $-1 $46 forward single #
loop $-1 $47 $48 $19 #
cone-surface $-1 37.531876388489373 22.565961389565434 6.7474957988025448 0 -0.54463904215088732 -0.83867056331134215 1.5 0 0 1 I I 0 1 1.5 forward I I I I #
face $-1 $49 $50 $12 $-1 $51 reversed single #
loop $-1 $-1 $52 $20 #
plane-surface $-1 0 0 -11.261919714156148 0 0 1 1 0 0 forward_v I I I I #
coedge $-1 $53 $54 $55 $56 forward $21 $-1 #
face $-1 $57 $58 $13 $-1 $59 reversed single #
loop $-1 $-1 $60 $23 #
plane-surface $-1 0 0 11.261919714156148 0 0 1 1 0 0 forward_v I I I I #
coedge $-1 $61 $62 $63 $64 forward $24 $-1 #
face $-1 $65 $66 $14 $-1 $67 reversed single #
loop $-1 $-1 $68 $26 #
plane-surface $-1 37.531876388489373 -18.797479463325498 36.428396441012197 0 0.54463904215088732 0.83867056331134215 1 0 0 forward_v I I I I #
coedge $-1 $69 $70 $71 $72 reversed $27 $-1 #
face $-1 $-1 $73 $15 $-1 $74 forward single #
loop $-1 $75 $76 $29 #
cone-surface $-1 37.531876388489373 20.86976323369478 4.1355797355439048 0 -0.54463904215088732 -0.83867056331134215 0.75 0 0 1 I I -0.70710678118654757 0.70710678118654757 0.75 forward I I I I #
loop $-1 $-1 $77 $19 #
coedge $-1 $48 $48 $78 $79 reversed $30 $-1 #
face $-1 $80 $81 $12 $-1 $82 reversed single #
loop $-1 $-1 $83 $32 #
plane-surface $-1 0 -27.751864938501964 0 0 1 0 0 0 1 forward_v I I I I #
coedge $-1 $84 $85 $86 $87 forward $33 $-1 #
coedge $-1 $88 $35 $89 $90 forward $21 $-1 #
coedge $-1 $35 $88 $91 $92 forward $21 $-1 #
coedge $-1 $93 $94 $35 $56 reversed $95 $-1 #
edge $-1 $96 -27.751864938501964 $97 27.751864938501964 $55 $98 forward 7 unknown #
face $-1 $99 $100 $13 $-1 $101 reversed single #
loop $-1 $-1 $102 $36 #
plane-surface $-1 -43.653675954466387 0 0 1 0 0 0 0 -1 forward_v I I I I #
coedge $-1 $103 $104 $105 $106 forward $37 $-1 #
coedge $-1 $105 $39 $102 $107 reversed $24 $-1 #
coedge $-1 $39 $105 $108 $109 reversed $24 $-1 #
coedge $-1 $110 $111 $39 $64 reversed $100 $-1 #
edge $-1 $112 -43.653675954466387 $113 43.653675954466387 $63 $114 forward 7 unknown #
face $-1 $115 $116 $14 $-1 $117 forward single #
loop $-1 $-1 $118 $40 #
plane-surface $-1 43.653675954466387 0 0 -1 0 0 0 0 1 forward_v I I I I #
coedge $-1 $119 $120 $121 $122 reversed $41 $-1 #
coedge $-1 $70 $43 $123 $124 reversed $27 $-1 #
coedge $-1 $43 $69 $119 $125 reversed $27 $-1 #
coedge $-1 $121 $126 $43 $72 forward $116 $-1 #
edge $-1 $127 -13.375108411958918 $128 -5.5787390626008158 $71 $129 forward 7 unknown #
loop $-1 $-1 $78 $44 #
plane-surface $-1 37.531876388489373 -18.797479463325498 36.428396441012197 0 0.54463904215088732 0.83867056331134215 1 0 0 forward_v I I I I #
loop $-1 $-1 $130 $29 #
coedge $-1 $76 $76 $77 $131 reversed $45 $-1 #
coedge $-1 $77 $77 $76 $131 forward $47 $-1 #
coedge $-1 $78 $78 $48 $79 forward $73 $-1 #
edge $-1 $132 -5.4213349875790395e-016 $132 6.2831853071795996 $78 $133 forward 7 unknown #
face $-1 $134 $135 $12 $-1 $136 reversed single #
loop $-1 $-1 $137 $49 #
plane-surface $-1 -43.653675954466387 0 0 1 0 0 0 0 -1 forward_v I I I I #
coedge $-1 $138 $91 $139 $140 forward $50 $-1 #
coedge $-1 $141 $52 $138 $142 forward $33 $-1 #
coedge $-1 $52 $141 $143 $144 forward $33 $-1 #
coedge $-1 $94 $93 $52 $87 reversed $95 $-1 #
edge $-1 $145 -27.751864938501964 $146 27.751864938501964 $86 $147 forward 7 unknown #
coedge $-1 $54 $53 $148 $149 forward $21 $-1 #
coedge $-1 $150 $151 $53 $90 reversed $135 $-1 #
edge $-1 $97 -43.653675954466387 $152 43.653675954466387 $89 $153 forward 7 unknown #
coedge $-1 $83 $154 $54 $92 reversed $50 $-1 #
edge $-1 $155 -43.653675954466387 $96 43.653675954466387 $91 $156 forward 7 unknown #
coedge $-1 $86 $55 $154 $157 forward $95 $-1 #
coedge $-1 $55 $86 $150 $158 reversed $95 $-1 #
loop $-1 $-1 $93 $134 #
vertex $-1 $56 $159 #
vertex $-1 $56 $160 #
straight-curve $-1 43.653675954466387 0 11.261919714156148 0 1 0 I I #
face $-1 $161 $162 $13 $-1 $163 reversed single #
loop $-1 $-1 $110 $57 #
plane-surface $-1 0 -32.339477549891534 8.0948893055724138 0 0 1 1 0 0 forward_v I I I I #
coedge $-1 $164 $165 $61 $107 forward $58 $-1 #
coedge $-1 $166 $60 $165 $167 forward $37 $-1 #
coedge $-1 $60 $166 $168 $169 forward $37 $-1 #
coedge $-1 $62 $61 $60 $106 reversed $24 $-1 #
edge $-1 $170 -43.653675954466387 $171 43.653675954466387 $60 $172 forward 7 unknown #
edge $-1 $171 -11.261919714156148 $113 -8.0948893055724138 $102 $173 forward 7 unknown #
coedge $-1 $168 $174 $62 $109 forward $175 $-1 #
edge $-1 $112 8.0948893055724138 $170 11.261919714156148 $108 $176 forward 7 unknown #
coedge $-1 $177 $63 $174 $178 forward $100 $-1 #
coedge $-1 $63 $177 $164 $179 forward $100 $-1 #
vertex $-1 $109 $180 #
vertex $-1 $107 $181 #
straight-curve $-1 0 -27.751864938501964 8.0948893055724138 -1 0 0 I I #
face $-1 $-1 $182 $14 $-1 $183 reversed single #
loop $-1 $-1 $121 $65 #
plane-surface $-1 0 0 11.261919714156148 0 0 1 1 0 0 forward_v I I I I #
coedge $-1 $184 $185 $120 $186 forward $66 $-1 #
coedge $-1 $187 $68 $70 $125 forward $41 $-1 #
coedge $-1 $68 $187 $118 $186 reversed $41 $-1 #
coedge $-1 $188 $71 $68 $122 forward $116 $-1 #
edge $-1 $128 12.64413862826768 $189 24.887737760221693 $121 $190 forward 7 unknown #
coedge $-1 $191 $192 $69 $124 forward $182 $-1 #
edge $-1 $193 -48.626353058850029 $127 -43.563331509693064 $123 $194 forward 7 unknown #
edge $-1 $128 46.207625196072343 $193 55.503729877003934 $70 $195 forward 7 unknown #
coedge $-1 $71 $188 $191 $196 forward $116 $-1 #
vertex $-1 $124 $197 #
vertex $-1 $72 $198 #
straight-curve $-1 31.410076822512366 14.376756526543046 11.26191971415615 0 -1 0 I I #
coedge $-1 $130 $130 $-1 $199 reversed $75 $-1 #
edge $-1 $200 0 $200 6.2831853071796004 $76 $201 forward 7 unknown #
vertex $-1 $79 $202 #
ellipse-curve $-1 37.531876388489373 23.853680263822916 8.7304089395776661 0 0.54463904215088732 0.83867056331134215 1.5 0 0 1 I I #
face $-1 $-1 $95 $12 $-1 $203 reversed single #
loop $-1 $-1 $150 $80 #
plane-surface $-1 0 27.751864938501964 0 0 -1 0 0 0 -1 forward_v I I I I #
coedge $-1 $204 $148 $151 $205 forward $81 $-1 #
coedge $-1 $154 $83 $84 $142 reversed $50 $-1 #
coedge $-1 $148 $204 $83 $140 reversed $81 $-1 #
edge $-1 $155 -11.261919714156148 $206 11.261919714156148 $139 $207 forward 7 unknown #
coedge $-1 $85 $84 $204 $208 forward $33 $-1 #
edge $-1 $146 -43.653675954466387 $206 43.653675954466387 $138 $209 forward 7 unknown #
coedge $-1 $151 $150 $85 $144 reversed $135 $-1 #
edge $-1 $210 -43.653675954466387 $145 43.653675954466387 $143 $211 forward 7 unknown #
vertex $-1 $87 $212 #
vertex $-1 $157 $213 #
straight-curve $-1 43.653675954466387 0 -11.261919714156148 0 -1 0 I I #
coedge $-1 $137 $139 $88 $149 reversed $81 $-1 #
edge $-1 $152 -27.751864938501964 $155 27.751864938501964 $148 $214 forward 7 unknown #
coedge $-1 $143 $89 $94 $158 forward $135 $-1 #
coedge $-1 $89 $143 $137 $205 reversed $135 $-1 #
vertex $-1 $90 $215 #
straight-curve $-1 0 27.751864938501964 11.261919714156148 -1 0 0 I I #
coedge $-1 $91 $138 $93 $157 reversed $50 $-1 #
vertex $-1 $149 $216 #
straight-curve $-1 0 -27.751864938501964 11.261919714156148 1 0 0 I I #
edge $-1 $96 -11.261919714156148 $146 11.261919714156148 $93 $217 forward 7 unknown #
edge $-1 $97 -11.261919714156148 $145 11.261919714156148 $94 $218 forward 7 unknown #
point $-1 43.653675954466387 -27.751864938501964 11.261919714156148 #
point $-1 43.653675954466387 27.751864938501964 11.261919714156148 #
face $-1 $-1 $175 $13 $-1 $219 reversed single #
loop $-1 $-1 $220 $99 #
plane-surface $-1 0 -36.9270901612811 9.678404509864281 0 1 0 0 0 1 forward_v I I I I #
coedge $-1 $221 $102 $111 $179 reversed $58 $-1 #
coedge $-1 $102 $221 $103 $167 reversed $58 $-1 #
coedge $-1 $104 $103 $222 $223 forward $37 $-1 #
edge $-1 $171 27.751864938501964 $224 36.9270901612811 $165 $225 forward 7 unknown #
coedge $-1 $226 $108 $104 $169 reversed $175 $-1 #
edge $-1 $227 -36.9270901612811 $170 -27.751864938501964 $168 $228 forward 7 unknown #
vertex $-1 $109 $229 #
vertex $-1 $167 $230 #
straight-curve $-1 0 -27.751864938501964 11.261919714156148 -1 0 0 I I #
straight-curve $-1 -43.653675954466387 -27.751864938501964 0 0 0 -1 I I #
coedge $-1 $108 $226 $110 $178 reversed $175 $-1 #
loop $-1 $-1 $108 $161 #
straight-curve $-1 43.653675954466387 -27.751864938501964 0 0 0 1 I I #
coedge $-1 $111 $110 $231 $232 forward $100 $-1 #
edge $-1 $112 -4.5876126113895701 $233 4.5876126113895666 $174 $234 forward 7 unknown #
edge $-1 $235 -4.5876126113895666 $113 4.5876126113895701 $164 $236 forward 7 unknown #
point $-1 43.653675954466387 -27.751864938501964 8.0948893055724138 #
point $-1 -43.653675954466387 -27.751864938501964 8.0948893055724138 #
loop $-1 $-1 $123 $115 #
plane-surface $-1 0 27.751864938501964 0 0 -1 0 0 0 -1 forward_v I I I I #
coedge $-1 $185 $118 $237 $238 reversed $66 $-1 #
coedge $-1 $118 $184 $188 $239 reversed $66 $-1 #
edge $-1 $189 28.405015378539218 $240 37.70112005947081 $118 $241 forward 7 unknown #
coedge $-1 $120 $119 $192 $242 reversed $41 $-1 #
coedge $-1 $126 $121 $185 $239 forward $116 $-1 #
vertex $-1 $239 $243 #
straight-curve $-1 18.765938194244686 19.955495589143858 11.26191971415615 1 0 0 I I #
coedge $-1 $237 $123 $126 $196 reversed $182 $-1 #
coedge $-1 $123 $237 $187 $242 forward $182 $-1 #
vertex $-1 $124 $244 #
straight-curve $-1 31.410076822512366 27.751864938501964 54.825251223849214 0 0 1 I I #
straight-curve $-1 31.410076822512366 -18.797479463325498 36.428396441012197 0 0.83867056331134215 -0.54463904215088732 I I #
edge $-1 $245 -43.653675954466387 $127 -31.410076822512366 $191 $246 forward 7 unknown #
point $-1 31.410076822512366 27.751864938501964 11.261919714156148 #
point $-1 31.410076822512366 19.955495589143862 11.26191971415615 #
edge $-1 $247 1 $247 0 $130 $-1 forward 7 unknown #
vertex $-1 $131 $248 #
ellipse-curve $-1 37.531876388489373 21.278242515307944 4.7645826580274111 0 0.54463904215088732 0.83867056331134215 1.5 0 0 1 I I #
point $-1 39.031876388489373 23.853680263822923 8.7304089395776785 #
plane-surface $-1 43.653675954466387 0 0 -1 0 0 0 0 1 forward_v I I I I #
coedge $-1 $139 $137 $141 $208 reversed $81 $-1 #
edge $-1 $152 -11.261919714156148 $210 11.261919714156148 $151 $249 forward 7 unknown #
vertex $-1 $208 $250 #
straight-curve $-1 -43.653675954466387 -27.751864938501964 0 0 0 -1 I I #
edge $-1 $206 -27.751864938501964 $210 27.751864938501964 $204 $251 forward 7 unknown #
straight-curve $-1 0 -27.751864938501964 -11.261919714156148 -1 0 0 I I #
vertex $-1 $144 $252 #
straight-curve $-1 0 27.751864938501964 -11.261919714156148 1 0 0 I I #
point $-1 43.653675954466387 27.751864938501964 -11.261919714156148 #
point $-1 43.653675954466387 -27.751864938501964 -11.261919714156148 #
straight-curve $-1 -43.653675954466387 0 11.261919714156148 0 -1 0 I I #
point $-1 -43.653675954466387 27.751864938501964 11.261919714156148 #
point $-1 -43.653675954466387 -27.751864938501964 11.261919714156148 #
straight-curve $-1 43.653675954466387 -27.751864938501964 0 0 0 -1 I I #
straight-curve $-1 43.653675954466387 27.751864938501964 0 0 0 -1 I I #
plane-surface $-1 43.653675954466387 0 0 -1 0 0 0 0 1 forward_v I I I I #
coedge $-1 $231 $222 $221 $253 forward $162 $-1 #
coedge $-1 $165 $164 $220 $253 reversed $58 $-1 #
coedge $-1 $220 $254 $166 $223 reversed $162 $-1 #
edge $-1 $224 -43.653675954466387 $227 43.653675954466387 $222 $255 forward 7 unknown #
vertex $-1 $167 $256 #
straight-curve $-1 -43.653675954466387 0 11.261919714156148 0 -1 0 I I #
coedge $-1 $174 $168 $254 $257 forward $175 $-1 #
vertex $-1 $169 $258 #
straight-curve $-1 43.653675954466387 0 11.261919714156148 0 1 0 I I #
point $-1 43.653675954466387 -27.751864938501964 11.261919714156148 #
point $-1 -43.653675954466387 -27.751864938501964 11.261919714156148 #
coedge $-1 $254 $220 $177 $232 reversed $162 $-1 #
edge $-1 $233 -43.653675954466387 $235 43.653675954466387 $231 $259 forward 7 unknown #
vertex $-1 $257 $260 #
straight-curve $-1 43.653675954466387 -32.339477549891534 8.0948893055724138 0 -1 0 I I #
vertex $-1 $179 $261 #
straight-curve $-1 -43.653675954466387 -32.339477549891534 8.0948893055724138 0 1 0 I I #
coedge $-1 $192 $191 $184 $238 forward $182 $-1 #
edge $-1 $245 -11.261919714156148 $240 -6.1988981649991857 $184 $262 forward 7 unknown #
edge $-1 $189 19.955495589143862 $245 27.751864938501964 $185 $263 forward 7 unknown #
vertex $-1 $186 $264 #
straight-curve $-1 43.653675954466387 -3.8669546592429587 26.732400082204972 0 0.83867056331134215 -0.54463904215088732 I I #
edge $-1 $240 -24.887737760221693 $193 -12.64413862826768 $192 $265 forward 7 unknown #
point $-1 43.653675954466379 19.955495589143862 11.26191971415615 #
point $-1 31.410076822512366 27.751864938501964 6.1988981649991857 #
vertex $-1 $239 $266 #
straight-curve $-1 0 27.751864938501964 11.261919714156148 -1 0 0 I I #
vertex $-1 $199 $267 #
point $-1 39.031876388489373 21.278242515307944 4.7645826580274111 #
straight-curve $-1 -43.653675954466387 27.751864938501964 0 0 0 -1 I I #
point $-1 -43.653675954466387 -27.751864938501964 -11.261919714156148 #
straight-curve $-1 -43.653675954466387 0 -11.261919714156148 0 1 0 I I #
point $-1 -43.653675954466387 27.751864938501964 -11.261919714156148 #
edge $-1 $224 -1.5835152042918672 $235 1.5835152042918672 $221 $268 forward 7 unknown #
coedge $-1 $222 $231 $226 $257 reversed $162 $-1 #
straight-curve $-1 0 -36.9270901612811 11.261919714156148 1 0 0 I I #
point $-1 -43.653675954466387 -36.9270901612811 11.261919714156148 #
edge $-1 $227 -1.5835152042918672 $233 1.5835152042918672 $226 $269 forward 7 unknown #
point $-1 43.653675954466387 -36.9270901612811 11.261919714156148 #
straight-curve $-1 0 -36.9270901612811 8.0948893055724138 -1 0 0 I I #
point $-1 43.653675954466387 -36.9270901612811 8.0948893055724138 #
point $-1 -43.653675954466387 -36.9270901612811 8.0948893055724138 #
straight-curve $-1 43.653675954466387 27.751864938501964 0 0 0 -1 I I #
straight-curve $-1 43.653675954466387 0 11.261919714156148 0 1 0 I I #
point $-1 43.653675954466379 27.751864938501964 6.1988981649991857 #
straight-curve $-1 18.765938194244686 27.751864938501964 6.198898164999191 -1 0 0 I I #
point $-1 43.653675954466387 27.751864938501964 11.261919714156148 #
point $-1 37.531876388489373 20.461283952081615 3.506576813060398 #
straight-curve $-1 -43.653675954466387 -36.9270901612811 9.678404509864281 0 0 -1 I I #
straight-curve $-1 43.653675954466387 -36.9270901612811 9.678404509864281 0 0 -1 I I #
End-of-ACIS-data 