500 0 10 0           
7 Unknown 11 ACIS 5.0 NT 24 Thu Mar 25 20:29:27 1999 
-1 9.9999999999999995e-007 1e-010 
body $-1 $10 $-1 $11 #
body $-1 $12 $-1 $13 #
body $-1 $14 $-1 $15 #
body $-1 $16 $-1 $17 #
body $-1 $18 $-1 $19 #
body $-1 $20 $-1 $21 #
body $-1 $22 $-1 $23 #
body $-1 $24 $-1 $25 #
body $-1 $26 $-1 $27 #
body $-1 $28 $-1 $29 #
lump $-1 $-1 $30 $0 #
transform $-1 1 0 0 0 1 0 0 0 1 64.782250434888766 40.469778488327968 11.191900135126241 1 rotate no_reflect no_shear #
lump $-1 $-1 $31 $1 #
transform $-1 1 0 0 0 1 0 0 0 1 64.782250434888766 40.469778488327968 11.191900135126241 1 rotate no_reflect no_shear #
lump $-1 $-1 $32 $2 #
transform $-1 1 0 0 0 1 0 0 0 1 64.782250434888766 40.469778488327968 11.191900135126241 1 rotate no_reflect no_shear #
lump $-1 $-1 $33 $3 #
transform $-1 1 0 0 0 1 0 0 0 1 64.782250434888766 40.469778488327968 11.191900135126241 1 rotate no_reflect no_shear #
lump $-1 $-1 $34 $4 #
transform $-1 1 0 0 0 1 0 0 0 1 64.782250434888766 40.469778488327968 11.191900135126241 1 rotate no_reflect no_shear #
lump $-1 $-1 $35 $5 #
transform $-1 1 0 0 0 1 0 0 0 1 64.782250434888766 40.469778488327968 11.191900135126241 1 rotate no_reflect no_shear #
lump $-1 $-1 $36 $6 #
transform $-1 1 0 0 0 1 0 0 0 1 64.782250434888766 40.469778488327968 11.191900135126241 1 rotate no_reflect no_shear #
lump $-1 $-1 $37 $7 #
transform $-1 1 0 0 0 1 0 0 0 1 64.782250434888766 40.469778488327968 11.191900135126241 1 rotate no_reflect no_shear #
lump $-1 $-1 $38 $8 #
transform $-1 1 0 0 0 1 0 0 0 1 64.782250434888766 40.469778488327968 11.191900135126241 1 rotate no_reflect no_shear #
lump $-1 $-1 $39 $9 #
transform $-1 1 0 0 0 1 0 0 0 1 64.782250434888766 40.469778488327968 11.191900135126241 1 rotate no_reflect no_shear #
shell $-1 $-1 $-1 $40 $-1 $10 #
shell $-1 $-1 $-1 $41 $-1 $12 #
shell $-1 $-1 $-1 $42 $-1 $14 #
shell $-1 $-1 $-1 $43 $-1 $16 #
shell $-1 $-1 $-1 $44 $-1 $18 #
shell $-1 $-1 $-1 $45 $-1 $20 #
shell $-1 $-1 $-1 $46 $-1 $22 #
shell $-1 $-1 $-1 $47 $-1 $24 #
shell $-1 $-1 $-1 $48 $-1 $26 #
shell $-1 $-1 $-1 $49 $-1 $28 #
face $-1 $50 $51 $30 $-1 $52 forward single #
face $-1 $53 $54 $31 $-1 $55 forward single #
face $-1 $56 $57 $32 $-1 $58 reversed single #
face $-1 $59 $60 $33 $-1 $61 forward single #
face $-1 $62 $63 $34 $-1 $64 forward single #
face $-1 $65 $66 $35 $-1 $67 forward single #
face $-1 $68 $69 $36 $-1 $70 reversed single #
face $-1 $71 $72 $37 $-1 $73 forward single #
face $-1 $74 $75 $38 $-1 $76 forward single #
face $-1 $77 $78 $39 $-1 $79 forward single #
face $-1 $80 $81 $30 $-1 $82 reversed single #
loop $-1 $-1 $83 $40 #
plane-surface $-1 0 0 11.191900135126241 0 0 1 1 0 0 forward_v I I I I #
face $-1 $84 $85 $31 $-1 $86 reversed single #
loop $-1 $-1 $87 $41 #
plane-surface $-1 0 -40.469778488327968 0 0 1 0 0 0 1 forward_v I I I I #
face $-1 $88 $89 $32 $-1 $90 reversed single #
loop $-1 $-1 $91 $42 #
plane-surface $-1 -175.8407049273747 -28.657714492080906 72.203999726747668 0 1 0 -0.85716730853699208 0 0.51503806187062418 forward_v I I I I #
face $-1 $92 $93 $33 $-1 $94 forward single #
loop $-1 $95 $96 $43 #
cone-surface $-1 -62.635641146350544 -26.833315756169831 8.0751061923991436 0.85716730853699208 0 -0.51503806187062418 0.25751903093531209 0 0.42858365426849604 1 I I 0 1 0.5 forward I I I I #
face $-1 $97 $98 $34 $-1 $99 forward single #
loop $-1 $100 $101 $44 #
cone-surface $-1 -62.635641146350544 -24.09671765230323 8.0751061923991436 0.85716730853699208 0 -0.51503806187062418 0.25751903093531209 0 0.42858365426849604 1 I I 0 1 0.5 forward I I I I #
face $-1 $102 $103 $35 $-1 $104 forward single #
loop $-1 $105 $106 $45 #
cone-surface $-1 -62.635641146350544 -21.360119548436629 8.0751061923991436 0.85716730853699208 0 -0.51503806187062418 0.25751903093531209 0 0.42858365426849604 1 I I 0 1 0.5 forward I I I I #
face $-1 $107 $108 $36 $-1 $109 reversed single #
loop $-1 $-1 $110 $46 #
plane-surface $-1 109.11005551216968 -19.535720812525561 183.26245421923366 0 -1 0 -0.85716730853699208 0 -0.51503806187062418 forward_v I I I I #
face $-1 $111 $112 $37 $-1 $113 forward single #
loop $-1 $114 $115 $47 #
cone-surface $-1 62.63564114635053 -26.833315756169831 8.0751061923991436 -0.85716730853699208 0 -0.51503806187062418 0.25751903093531209 0 -0.42858365426849604 1 I I 0 1 0.5 forward I I I I #
face $-1 $116 $117 $38 $-1 $118 forward single #
loop $-1 $119 $120 $48 #
cone-surface $-1 62.63564114635053 -24.09671765230323 8.0751061923991436 -0.85716730853699208 0 -0.51503806187062418 0.25751903093531209 0 -0.42858365426849604 1 I I 0 1 0.5 forward I I I I #
face $-1 $121 $122 $39 $-1 $123 forward single #
loop $-1 $124 $125 $49 #
cone-surface $-1 62.63564114635053 -21.360119548436629 8.0751061923991436 -0.85716730853699208 0 -0.51503806187062418 0.25751903093531209 0 -0.42858365426849604 1 I I 0 1 0.5 forward I I I I #
face $-1 $126 $127 $30 $-1 $128 reversed single #
loop $-1 $-1 $129 $50 #
plane-surface $-1 0 0 -11.191900135126241 0 0 1 1 0 0 forward_v I I I I #
coedge $-1 $130 $131 $132 $133 forward $51 $-1 #
face $-1 $134 $135 $31 $-1 $136 reversed single #
loop $-1 $-1 $137 $53 #
plane-surface $-1 0 0 -11.191900135126241 0 0 1 1 0 0 forward_v I I I I #
coedge $-1 $138 $139 $140 $141 forward $54 $-1 #
face $-1 $142 $143 $32 $-1 $144 reversed single #
loop $-1 $-1 $145 $56 #
plane-surface $-1 -64.782250434888724 -24.096717652303234 5.4733503115426458 -0.85716730853699208 0 0.51503806187062418 0.51503806187062418 0 0.85716730853699208 forward_v I I I I #
coedge $-1 $146 $147 $148 $149 reversed $57 $-1 #
face $-1 $-1 $150 $33 $-1 $151 forward single #
loop $-1 $152 $153 $59 #
cone-surface $-1 -61.992765664947797 -26.833315756169831 7.6888276459961755 0.85716730853699208 0 -0.51503806187062418 0.12875951546765604 0 0.21429182713424802 1 I I -0.70710678118654746 0.70710678118654746 0.25 forward I I I I #
loop $-1 $-1 $154 $43 #
coedge $-1 $96 $96 $155 $156 reversed $60 $-1 #
face $-1 $-1 $157 $34 $-1 $158 forward single #
loop $-1 $159 $160 $62 #
cone-surface $-1 -61.992765664947797 -24.09671765230323 7.6888276459961755 0.85716730853699208 0 -0.51503806187062418 0.12875951546765604 0 0.21429182713424802 1 I I -0.70710678118654746 0.70710678118654746 0.25 forward I I I I #
loop $-1 $-1 $161 $44 #
coedge $-1 $101 $101 $162 $163 reversed $63 $-1 #
face $-1 $-1 $164 $35 $-1 $165 forward single #
loop $-1 $166 $167 $65 #
cone-surface $-1 -61.992765664947797 -21.360119548436629 7.6888276459961755 0.85716730853699208 0 -0.51503806187062418 0.12875951546765604 0 0.21429182713424802 1 I I -0.70710678118654746 0.70710678118654746 0.25 forward I I I I #
loop $-1 $-1 $168 $45 #
coedge $-1 $106 $106 $169 $170 reversed $66 $-1 #
face $-1 $171 $172 $36 $-1 $173 reversed single #
loop $-1 $-1 $174 $68 #
plane-surface $-1 -1.9483989803162984 -24.096717652303234 116.53180480402864 0.85716730853699208 0 0.51503806187062418 0.51503806187062418 0 -0.85716730853699208 forward_v I I I I #
coedge $-1 $175 $176 $177 $178 reversed $69 $-1 #
face $-1 $-1 $179 $37 $-1 $180 forward single #
loop $-1 $181 $182 $71 #
cone-surface $-1 61.992765664947783 -26.833315756169831 7.6888276459961755 -0.85716730853699208 0 -0.51503806187062418 0.12875951546765604 0 -0.21429182713424802 1 I I -0.70710678118654746 0.70710678118654746 0.25 forward I I I I #
loop $-1 $-1 $183 $47 #
coedge $-1 $115 $115 $184 $185 reversed $72 $-1 #
face $-1 $-1 $186 $38 $-1 $187 forward single #
loop $-1 $188 $189 $74 #
cone-surface $-1 61.992765664947783 -24.09671765230323 7.6888276459961755 -0.85716730853699208 0 -0.51503806187062418 0.12875951546765604 0 -0.21429182713424802 1 I I -0.70710678118654746 0.70710678118654746 0.25 forward I I I I #
loop $-1 $-1 $190 $48 #
coedge $-1 $120 $120 $191 $192 reversed $75 $-1 #
face $-1 $-1 $193 $39 $-1 $194 forward single #
loop $-1 $195 $196 $77 #
cone-surface $-1 61.992765664947783 -21.360119548436629 7.6888276459961755 -0.85716730853699208 0 -0.51503806187062418 0.12875951546765604 0 -0.21429182713424802 1 I I -0.70710678118654746 0.70710678118654746 0.25 forward I I I I #
loop $-1 $-1 $197 $49 #
coedge $-1 $125 $125 $198 $199 reversed $78 $-1 #
face $-1 $200 $201 $30 $-1 $202 reversed single #
loop $-1 $-1 $203 $80 #
plane-surface $-1 0 -40.469778488327968 0 0 1 0 0 0 1 forward_v I I I I #
coedge $-1 $204 $205 $206 $207 forward $81 $-1 #
coedge $-1 $208 $83 $209 $210 forward $51 $-1 #
coedge $-1 $83 $208 $211 $212 forward $51 $-1 #
coedge $-1 $213 $214 $83 $133 reversed $215 $-1 #
edge $-1 $216 -40.469778488327968 $217 40.469778488327968 $132 $218 forward 7 unknown #
face $-1 $219 $220 $31 $-1 $221 forward single #
loop $-1 $-1 $222 $84 #
plane-surface $-1 64.782250434888766 0 0 -1 0 0 0 0 1 forward_v I I I I #
coedge $-1 $223 $224 $225 $226 forward $85 $-1 #
coedge $-1 $225 $87 $222 $227 reversed $54 $-1 #
coedge $-1 $87 $225 $228 $229 reversed $54 $-1 #
coedge $-1 $230 $231 $87 $141 reversed $220 $-1 #
edge $-1 $232 -64.782250434888766 $233 64.782250434888766 $140 $234 forward 7 unknown #
face $-1 $235 $236 $32 $-1 $237 forward single #
loop $-1 $-1 $238 $88 #
plane-surface $-1 -175.8407049273747 -19.535720812525561 72.203999726747668 0 -1 0 0.85716730853699208 0 -0.51503806187062418 forward_v I I I I #
coedge $-1 $239 $240 $241 $242 reversed $89 $-1 #
coedge $-1 $147 $91 $243 $244 reversed $57 $-1 #
coedge $-1 $91 $146 $239 $245 reversed $57 $-1 #
coedge $-1 $241 $246 $91 $149 forward $236 $-1 #
edge $-1 $247 23.138102028798585 $248 26.5741532973381 $148 $249 forward 7 unknown #
loop $-1 $-1 $155 $92 #
plane-surface $-1 -64.782250434888724 -24.096717652303234 5.4733503115426458 -0.85716730853699208 0 0.51503806187062418 0.51503806187062418 0 0.85716730853699208 forward_v I I I I #
loop $-1 $-1 $250 $59 #
coedge $-1 $153 $153 $154 $251 reversed $93 $-1 #
coedge $-1 $154 $154 $153 $251 forward $95 $-1 #
coedge $-1 $155 $155 $96 $156 forward $150 $-1 #
edge $-1 $252 0 $252 6.2831853071796004 $155 $253 forward 7 unknown #
loop $-1 $-1 $162 $97 #
plane-surface $-1 -64.782250434888724 -24.096717652303234 5.4733503115426458 -0.85716730853699208 0 0.51503806187062418 0.51503806187062418 0 0.85716730853699208 forward_v I I I I #
loop $-1 $-1 $254 $62 #
coedge $-1 $160 $160 $161 $255 reversed $98 $-1 #
coedge $-1 $161 $161 $160 $255 forward $100 $-1 #
coedge $-1 $162 $162 $101 $163 forward $157 $-1 #
edge $-1 $256 0 $256 6.2831853071796004 $162 $257 forward 7 unknown #
loop $-1 $-1 $169 $102 #
plane-surface $-1 -64.782250434888724 -24.096717652303234 5.4733503115426458 -0.85716730853699208 0 0.51503806187062418 0.51503806187062418 0 0.85716730853699208 forward_v I I I I #
loop $-1 $-1 $258 $65 #
coedge $-1 $167 $167 $168 $259 reversed $103 $-1 #
coedge $-1 $168 $168 $167 $259 forward $105 $-1 #
coedge $-1 $169 $169 $106 $170 forward $164 $-1 #
edge $-1 $260 0 $260 6.2831853071796004 $169 $261 forward 7 unknown #
face $-1 $262 $263 $36 $-1 $264 reversed single #
loop $-1 $-1 $265 $107 #
plane-surface $-1 109.11005551216968 -28.657714492080906 183.26245421923366 0 1 0 0.85716730853699208 0 0.51503806187062418 forward_v I I I I #
coedge $-1 $266 $267 $268 $269 reversed $108 $-1 #
coedge $-1 $176 $110 $270 $271 reversed $69 $-1 #
coedge $-1 $110 $175 $266 $272 reversed $69 $-1 #
coedge $-1 $268 $273 $110 $178 forward $274 $-1 #
edge $-1 $275 -10.227222678803926 $276 -6.7911714102644183 $177 $277 forward 7 unknown #
loop $-1 $-1 $184 $111 #
plane-surface $-1 -1.9483989803162984 -24.096717652303234 116.53180480402864 0.85716730853699208 0 0.51503806187062418 0.51503806187062418 0 -0.85716730853699208 forward_v I I I I #
loop $-1 $-1 $278 $71 #
coedge $-1 $182 $182 $183 $279 reversed $112 $-1 #
coedge $-1 $183 $183 $182 $279 forward $114 $-1 #
coedge $-1 $184 $184 $115 $185 forward $179 $-1 #
edge $-1 $280 0 $280 6.2831853071796004 $184 $281 forward 7 unknown #
loop $-1 $-1 $191 $116 #
plane-surface $-1 -1.9483989803162984 -24.096717652303234 116.53180480402864 0.85716730853699208 0 0.51503806187062418 0.51503806187062418 0 -0.85716730853699208 forward_v I I I I #
loop $-1 $-1 $282 $74 #
coedge $-1 $189 $189 $190 $283 reversed $117 $-1 #
coedge $-1 $190 $190 $189 $283 forward $119 $-1 #
coedge $-1 $191 $191 $120 $192 forward $186 $-1 #
edge $-1 $284 0 $284 6.2831853071796004 $191 $285 forward 7 unknown #
loop $-1 $-1 $198 $121 #
plane-surface $-1 -1.9483989803162984 -24.096717652303234 116.53180480402864 0.85716730853699208 0 0.51503806187062418 0.51503806187062418 0 -0.85716730853699208 forward_v I I I I #
loop $-1 $-1 $286 $77 #
coedge $-1 $196 $196 $197 $287 reversed $122 $-1 #
coedge $-1 $197 $197 $196 $287 forward $124 $-1 #
coedge $-1 $198 $198 $125 $199 forward $193 $-1 #
edge $-1 $288 0 $288 6.2831853071796004 $198 $289 forward 7 unknown #
face $-1 $290 $291 $30 $-1 $292 reversed single #
loop $-1 $-1 $293 $126 #
plane-surface $-1 -64.782250434888766 0 0 1 0 0 0 0 -1 forward_v I I I I #
coedge $-1 $211 $294 $213 $295 reversed $127 $-1 #
coedge $-1 $296 $129 $294 $297 forward $81 $-1 #
coedge $-1 $129 $296 $298 $299 forward $81 $-1 #
coedge $-1 $214 $213 $129 $207 reversed $215 $-1 #
edge $-1 $300 -40.469778488327968 $301 40.469778488327968 $206 $302 forward 7 unknown #
coedge $-1 $131 $130 $303 $304 forward $51 $-1 #
coedge $-1 $305 $306 $130 $210 reversed $291 $-1 #
edge $-1 $217 -64.782250434888766 $307 64.782250434888766 $209 $308 forward 7 unknown #
coedge $-1 $309 $203 $131 $212 reversed $127 $-1 #
edge $-1 $310 -64.782250434888766 $216 64.782250434888766 $211 $311 forward 7 unknown #
coedge $-1 $206 $132 $203 $295 forward $215 $-1 #
coedge $-1 $132 $206 $305 $312 reversed $215 $-1 #
loop $-1 $-1 $213 $290 #
vertex $-1 $133 $313 #
vertex $-1 $133 $314 #
straight-curve $-1 64.782250434888766 0 11.191900135126241 0 1 0 I I #
face $-1 $315 $316 $31 $-1 $317 reversed single #
loop $-1 $-1 $231 $134 #
plane-surface $-1 0 -46.375810486451499 -8.1919001351262413 0 0 1 1 0 0 forward_v I I I I #
coedge $-1 $318 $319 $138 $227 forward $135 $-1 #
coedge $-1 $320 $137 $319 $321 forward $85 $-1 #
coedge $-1 $137 $320 $322 $323 forward $85 $-1 #
coedge $-1 $139 $138 $137 $226 reversed $54 $-1 #
edge $-1 $324 -64.782250434888766 $325 64.782250434888766 $137 $326 forward 7 unknown #
edge $-1 $325 -11.191900135126241 $233 -8.1919001351262413 $222 $327 forward 7 unknown #
coedge $-1 $322 $328 $139 $229 forward $329 $-1 #
edge $-1 $232 8.1919001351262413 $324 11.191900135126241 $228 $330 forward 7 unknown #
coedge $-1 $331 $140 $328 $332 forward $220 $-1 #
coedge $-1 $140 $331 $318 $333 forward $220 $-1 #
vertex $-1 $229 $334 #
vertex $-1 $333 $335 #
straight-curve $-1 0 -40.469778488327968 -8.1919001351262413 1 0 0 I I #
face $-1 $-1 $336 $32 $-1 $337 reversed single #
loop $-1 $-1 $148 $142 #
plane-surface $-1 0 0 11.191900135126241 0 0 1 1 0 0 forward_v I I I I #
coedge $-1 $338 $339 $340 $341 reversed $143 $-1 #
coedge $-1 $342 $145 $147 $245 forward $89 $-1 #
coedge $-1 $145 $342 $338 $343 forward $89 $-1 #
coedge $-1 $340 $148 $145 $242 forward $236 $-1 #
edge $-1 $248 -16.609355665929289 $344 -7.4873619863739442 $241 $345 forward 7 unknown #
coedge $-1 $346 $347 $146 $244 forward $336 $-1 #
edge $-1 $348 -30.628649551831259 $247 -24.910099728247594 $243 $349 forward 7 unknown #
edge $-1 $248 -6.6714511468525126 $348 8.2862793651327634e-014 $147 $350 forward 7 unknown #
coedge $-1 $148 $340 $346 $351 forward $236 $-1 #
vertex $-1 $244 $352 #
vertex $-1 $149 $353 #
straight-curve $-1 -87.920352463687351 -28.657714492080906 11.191900135126239 1 0 0 I I #
coedge $-1 $250 $250 $-1 $354 reversed $152 $-1 #
edge $-1 $355 0 $355 6.2831853071796004 $153 $356 forward 7 unknown #
vertex $-1 $156 $357 #
ellipse-curve $-1 -63.064224800618994 -26.833315756169831 8.3326252233344302 -0.85716730853699208 0 0.51503806187062418 0.25751903093531209 0 0.42858365426849604 1 I I #
coedge $-1 $254 $254 $-1 $358 reversed $159 $-1 #
edge $-1 $359 0 $359 6.2831853071796004 $160 $360 forward 7 unknown #
vertex $-1 $163 $361 #
ellipse-curve $-1 -63.064224800618994 -24.09671765230323 8.3326252233344302 -0.85716730853699208 0 0.51503806187062418 0.25751903093531209 0 0.42858365426849604 1 I I #
coedge $-1 $258 $258 $-1 $362 reversed $166 $-1 #
edge $-1 $363 0 $363 6.2831853071796004 $167 $364 forward 7 unknown #
vertex $-1 $170 $365 #
ellipse-curve $-1 -63.064224800618994 -21.360119548436629 8.3326252233344302 -0.85716730853699208 0 0.51503806187062418 0.25751903093531209 0 0.42858365426849604 1 I I #
face $-1 $-1 $274 $36 $-1 $366 forward single #
loop $-1 $-1 $367 $171 #
plane-surface $-1 64.782250434888766 0 0 -1 0 0 0 0 1 forward_v I I I I #
coedge $-1 $368 $369 $370 $371 reversed $172 $-1 #
coedge $-1 $372 $174 $176 $272 forward $108 $-1 #
coedge $-1 $174 $372 $368 $373 forward $108 $-1 #
coedge $-1 $370 $177 $174 $269 forward $274 $-1 #
edge $-1 $276 7.4873619863739442 $374 16.609355665929289 $268 $375 forward 7 unknown #
coedge $-1 $376 $377 $175 $271 forward $263 $-1 #
edge $-1 $378 -86.157876798074227 $275 -80.439326974490584 $270 $379 forward 7 unknown #
edge $-1 $276 122.89304972292506 $378 129.56450086977765 $176 $380 forward 7 unknown #
coedge $-1 $177 $370 $376 $381 forward $274 $-1 #
loop $-1 $-1 $370 $262 #
vertex $-1 $271 $382 #
vertex $-1 $178 $383 #
straight-curve $-1 54.55502775608484 -19.535720812525561 11.191900135126247 -1 0 0 I I #
coedge $-1 $278 $278 $-1 $384 reversed $181 $-1 #
edge $-1 $385 0 $385 6.2831853071796004 $182 $386 forward 7 unknown #
vertex $-1 $185 $387 #
ellipse-curve $-1 63.064224800619002 -26.833315756169831 8.3326252233344409 0.85716730853699208 0 0.51503806187062418 0.25751903093531209 0 -0.42858365426849604 1 I I #
coedge $-1 $282 $282 $-1 $388 reversed $188 $-1 #
edge $-1 $389 0 $389 6.2831853071796004 $189 $390 forward 7 unknown #
vertex $-1 $192 $391 #
ellipse-curve $-1 63.064224800619002 -24.09671765230323 8.3326252233344409 0.85716730853699208 0 0.51503806187062418 0.25751903093531209 0 -0.42858365426849604 1 I I #
coedge $-1 $286 $286 $-1 $392 reversed $195 $-1 #
edge $-1 $393 0 $393 6.2831853071796004 $196 $394 forward 7 unknown #
vertex $-1 $199 $395 #
ellipse-curve $-1 63.064224800619002 -21.360119548436629 8.3326252233344409 0.85716730853699208 0 0.51503806187062418 0.25751903093531209 0 -0.42858365426849604 1 I I #
face $-1 $-1 $215 $30 $-1 $396 reversed single #
loop $-1 $-1 $305 $200 #
plane-surface $-1 0 40.469778488327968 0 0 -1 0 0 0 -1 forward_v I I I I #
coedge $-1 $397 $303 $306 $398 forward $201 $-1 #
coedge $-1 $203 $309 $204 $297 reversed $127 $-1 #
edge $-1 $216 -11.191900135126241 $301 11.191900135126241 $213 $399 forward 7 unknown #
coedge $-1 $205 $204 $397 $400 forward $81 $-1 #
edge $-1 $301 -64.782250434888766 $401 64.782250434888766 $294 $402 forward 7 unknown #
coedge $-1 $306 $305 $205 $299 reversed $291 $-1 #
edge $-1 $403 -64.782250434888766 $300 64.782250434888766 $298 $404 forward 7 unknown #
vertex $-1 $207 $405 #
vertex $-1 $295 $406 #
straight-curve $-1 64.782250434888766 0 -11.191900135126241 0 -1 0 I I #
coedge $-1 $293 $407 $208 $304 reversed $201 $-1 #
edge $-1 $307 -40.469778488327968 $310 40.469778488327968 $303 $408 forward 7 unknown #
coedge $-1 $298 $209 $214 $312 forward $291 $-1 #
coedge $-1 $209 $298 $293 $398 reversed $291 $-1 #
vertex $-1 $210 $409 #
straight-curve $-1 0 40.469778488327968 11.191900135126241 -1 0 0 I I #
coedge $-1 $294 $211 $407 $410 forward $127 $-1 #
vertex $-1 $304 $411 #
straight-curve $-1 0 -40.469778488327968 11.191900135126241 1 0 0 I I #
edge $-1 $217 -11.191900135126241 $300 11.191900135126241 $214 $412 forward 7 unknown #
point $-1 64.782250434888766 -40.469778488327968 11.191900135126241 #
point $-1 64.782250434888766 40.469778488327968 11.191900135126241 #
face $-1 $-1 $329 $31 $-1 $413 reversed single #
loop $-1 $-1 $414 $219 #
plane-surface $-1 0 -52.28184248457503 -9.6919001351262413 0 1 0 0 0 1 forward_v I I I I #
coedge $-1 $415 $222 $231 $333 reversed $135 $-1 #
coedge $-1 $222 $415 $223 $321 reversed $135 $-1 #
coedge $-1 $224 $223 $416 $417 forward $85 $-1 #
edge $-1 $325 40.469778488327968 $418 52.28184248457503 $319 $419 forward 7 unknown #
coedge $-1 $420 $228 $224 $323 reversed $329 $-1 #
edge $-1 $421 -52.28184248457503 $324 -40.469778488327968 $322 $422 forward 7 unknown #
vertex $-1 $229 $423 #
vertex $-1 $321 $424 #
straight-curve $-1 0 -40.469778488327968 -11.191900135126241 1 0 0 I I #
straight-curve $-1 64.782250434888766 -40.469778488327968 0 0 0 1 I I #
coedge $-1 $228 $420 $230 $332 reversed $329 $-1 #
loop $-1 $-1 $228 $315 #
straight-curve $-1 -64.782250434888766 -40.469778488327968 0 0 0 -1 I I #
coedge $-1 $231 $230 $425 $426 forward $220 $-1 #
edge $-1 $232 -5.906031998123531 $427 5.906031998123531 $328 $428 forward 7 unknown #
edge $-1 $429 -5.906031998123531 $233 5.906031998123531 $318 $430 forward 7 unknown #
point $-1 -64.782250434888766 -40.469778488327968 -8.1919001351262413 #
point $-1 64.782250434888766 -40.469778488327968 -8.1919001351262413 #
loop $-1 $-1 $243 $235 #
plane-surface $-1 -64.782250434888766 0 0 1 0 0 0 0 -1 forward_v I I I I #
coedge $-1 $339 $238 $240 $343 reversed $143 $-1 #
coedge $-1 $238 $338 $431 $432 reversed $143 $-1 #
coedge $-1 $246 $241 $238 $341 forward $236 $-1 #
edge $-1 $344 -26.5741532973381 $433 -23.138102028798585 $340 $434 forward 7 unknown #
coedge $-1 $240 $239 $347 $435 reversed $89 $-1 #
edge $-1 $436 -8.2862793651327634e-014 $344 6.6714511468525126 $338 $437 forward 7 unknown #
vertex $-1 $242 $438 #
straight-curve $-1 -61.346199166349251 -12.048358826151617 11.191900135126241 0 1 0 I I #
coedge $-1 $431 $243 $246 $351 reversed $336 $-1 #
coedge $-1 $243 $431 $342 $435 forward $336 $-1 #
vertex $-1 $244 $439 #
straight-curve $-1 -64.782250434888766 -28.657714492080906 36.101999863373834 0 0 1 I I #
straight-curve $-1 -64.782250434888724 -28.657714492080906 5.4733503115426458 -0.51503806187062418 0 -0.85716730853699208 I I #
edge $-1 $433 19.535720812525561 $247 28.657714492080906 $346 $440 forward 7 unknown #
point $-1 -64.782250434888766 -28.657714492080906 11.191900135126241 #
point $-1 -61.346199166349251 -28.657714492080906 11.191900135126241 #
edge $-1 $441 1 $441 0 $250 $-1 forward 7 unknown #
vertex $-1 $251 $442 #
ellipse-curve $-1 -62.207057492082043 -26.833315756169831 7.8175871614638313 -0.85716730853699208 0 0.51503806187062418 0.25751903093531209 0 0.42858365426849604 1 I I #
point $-1 -62.806705769683724 -26.833315756169831 8.761208877602952 #
edge $-1 $443 1 $443 0 $254 $-1 forward 7 unknown #
vertex $-1 $255 $444 #
ellipse-curve $-1 -62.207057492082043 -24.09671765230323 7.8175871614638313 -0.85716730853699208 0 0.51503806187062418 0.25751903093531209 0 0.42858365426849604 1 I I #
point $-1 -62.806705769683724 -24.09671765230323 8.761208877602952 #
edge $-1 $445 1 $445 0 $258 $-1 forward 7 unknown #
vertex $-1 $259 $446 #
ellipse-curve $-1 -62.207057492082043 -21.360119548436629 7.8175871614638313 -0.85716730853699208 0 0.51503806187062418 0.25751903093531209 0 0.42858365426849604 1 I I #
point $-1 -62.806705769683724 -21.360119548436629 8.761208877602952 #
plane-surface $-1 0 0 11.191900135126241 0 0 1 1 0 0 forward_v I I I I #
coedge $-1 $377 $376 $369 $447 forward $263 $-1 #
coedge $-1 $369 $265 $267 $373 reversed $172 $-1 #
coedge $-1 $265 $368 $367 $447 reversed $172 $-1 #
coedge $-1 $273 $268 $265 $371 forward $274 $-1 #
edge $-1 $374 6.7911714102644183 $448 10.227222678803926 $370 $449 forward 7 unknown #
coedge $-1 $267 $266 $377 $450 reversed $108 $-1 #
edge $-1 $451 -129.56450086977765 $374 -122.89304972292506 $368 $452 forward 7 unknown #
vertex $-1 $269 $453 #
straight-curve $-1 61.346199166349258 -12.048358826151617 11.191900135126232 0 -1 0 I I #
coedge $-1 $367 $270 $273 $381 reversed $263 $-1 #
coedge $-1 $270 $367 $372 $450 forward $263 $-1 #
vertex $-1 $271 $454 #
straight-curve $-1 64.782250434888766 -19.535720812525561 91.63122710961683 0 0 1 I I #
straight-curve $-1 -1.9483989803162984 -19.535720812525561 116.53180480402864 0.51503806187062418 0 -0.85716730853699208 I I #
edge $-1 $448 -28.657714492080906 $275 -19.535720812525561 $376 $455 forward 7 unknown #
point $-1 64.782250434888766 -19.535720812525561 11.191900135126241 #
point $-1 61.346199166349258 -19.535720812525561 11.191900135126247 #
edge $-1 $456 1 $456 0 $278 $-1 forward 7 unknown #
vertex $-1 $279 $457 #
ellipse-curve $-1 62.207057492082029 -26.833315756169831 7.8175871614638313 0.85716730853699208 0 0.51503806187062418 0.25751903093531209 0 -0.42858365426849604 1 I I #
point $-1 63.321743831554336 -26.833315756169831 7.90404156906596 #
edge $-1 $458 1 $458 0 $282 $-1 forward 7 unknown #
vertex $-1 $283 $459 #
ellipse-curve $-1 62.207057492082029 -24.09671765230323 7.8175871614638313 0.85716730853699208 0 0.51503806187062418 0.25751903093531209 0 -0.42858365426849604 1 I I #
point $-1 63.321743831554336 -24.09671765230323 7.90404156906596 #
edge $-1 $460 1 $460 0 $286 $-1 forward 7 unknown #
vertex $-1 $287 $461 #
ellipse-curve $-1 62.207057492082029 -21.360119548436629 7.8175871614638313 0.85716730853699208 0 0.51503806187062418 0.25751903093531209 0 -0.42858365426849604 1 I I #
point $-1 63.321743831554336 -21.360119548436629 7.90404156906596 #
plane-surface $-1 64.782250434888766 0 0 -1 0 0 0 0 1 forward_v I I I I #
coedge $-1 $407 $293 $296 $400 reversed $201 $-1 #
edge $-1 $307 -11.191900135126241 $403 11.191900135126241 $306 $462 forward 7 unknown #
straight-curve $-1 64.782250434888766 -40.469778488327968 0 0 0 -1 I I #
edge $-1 $401 -40.469778488327968 $403 40.469778488327968 $397 $463 forward 7 unknown #
vertex $-1 $400 $464 #
straight-curve $-1 0 -40.469778488327968 -11.191900135126241 -1 0 0 I I #
vertex $-1 $299 $465 #
straight-curve $-1 0 40.469778488327968 -11.191900135126241 1 0 0 I I #
point $-1 64.782250434888766 40.469778488327968 -11.191900135126241 #
point $-1 64.782250434888766 -40.469778488327968 -11.191900135126241 #
coedge $-1 $303 $397 $309 $410 reversed $201 $-1 #
straight-curve $-1 -64.782250434888766 0 11.191900135126241 0 -1 0 I I #
point $-1 -64.782250434888766 40.469778488327968 11.191900135126241 #
edge $-1 $310 -11.191900135126241 $401 11.191900135126241 $407 $466 forward 7 unknown #
point $-1 -64.782250434888766 -40.469778488327968 11.191900135126241 #
straight-curve $-1 64.782250434888766 40.469778488327968 0 0 0 -1 I I #
plane-surface $-1 -64.782250434888766 0 0 1 0 0 0 0 -1 forward_v I I I I #
coedge $-1 $416 $425 $420 $467 forward $316 $-1 #
coedge $-1 $319 $318 $468 $469 forward $135 $-1 #
coedge $-1 $468 $414 $320 $417 reversed $316 $-1 #
edge $-1 $418 -64.782250434888766 $421 64.782250434888766 $416 $470 forward 7 unknown #
vertex $-1 $469 $471 #
straight-curve $-1 64.782250434888766 0 -11.191900135126241 0 -1 0 I I #
coedge $-1 $328 $322 $414 $467 reversed $329 $-1 #
vertex $-1 $323 $472 #
straight-curve $-1 -64.782250434888766 0 -11.191900135126241 0 1 0 I I #
point $-1 -64.782250434888766 -40.469778488327968 -11.191900135126241 #
point $-1 64.782250434888766 -40.469778488327968 -11.191900135126241 #
coedge $-1 $414 $468 $331 $426 reversed $316 $-1 #
edge $-1 $427 -64.782250434888766 $429 64.782250434888766 $425 $473 forward 7 unknown #
vertex $-1 $332 $474 #
straight-curve $-1 -64.782250434888766 -46.375810486451499 -8.1919001351262413 0 -1 0 I I #
vertex $-1 $333 $475 #
straight-curve $-1 64.782250434888766 -46.375810486451499 -8.1919001351262413 0 1 0 I I #
coedge $-1 $347 $346 $339 $432 forward $336 $-1 #
edge $-1 $433 24.910099728247594 $436 30.628649551831259 $431 $476 forward 7 unknown #
vertex $-1 $351 $477 #
straight-curve $-1 -87.920352463687351 -19.535720812525561 11.191900135126239 -1 0 0 I I #
edge $-1 $436 7.4873619863739442 $348 16.609355665929289 $347 $478 forward 7 unknown #
vertex $-1 $435 $479 #
straight-curve $-1 -64.782250434888724 -19.535720812525561 5.4733503115426458 0.51503806187062418 0 0.85716730853699208 I I #
point $-1 -61.346199166349251 -19.535720812525561 11.191900135126241 #
point $-1 -64.782250434888766 -28.657714492080906 5.4733503115425748 #
straight-curve $-1 -64.782250434888766 0 11.191900135126241 0 -1 0 I I #
vertex $-1 $354 $480 #
point $-1 -61.94953846114673 -26.833315756169831 8.2461708157323272 #
vertex $-1 $358 $481 #
point $-1 -61.94953846114673 -24.09671765230323 8.2461708157323272 #
vertex $-1 $362 $482 #
point $-1 -61.94953846114673 -21.360119548436629 8.2461708157323272 #
edge $-1 $448 80.439326974490584 $451 86.157876798074227 $367 $483 forward 7 unknown #
vertex $-1 $381 $484 #
straight-curve $-1 54.55502775608484 -28.657714492080906 11.191900135126247 1 0 0 I I #
edge $-1 $451 -16.609355665929289 $378 -7.4873619863739442 $377 $485 forward 7 unknown #
vertex $-1 $450 $486 #
straight-curve $-1 -1.9483989803162984 -28.657714492080906 116.53180480402864 -0.51503806187062418 0 0.85716730853699208 I I #
point $-1 61.346199166349258 -28.657714492080906 11.191900135126247 #
point $-1 64.782250434888766 -19.535720812525561 5.4733503115426032 #
straight-curve $-1 64.782250434888766 0 11.191900135126241 0 1 0 I I #
vertex $-1 $384 $487 #
point $-1 62.464576523017342 -26.833315756169831 7.3890035071953353 #
vertex $-1 $388 $488 #
point $-1 62.464576523017342 -24.09671765230323 7.3890035071953353 #
vertex $-1 $392 $489 #
point $-1 62.464576523017342 -21.360119548436629 7.3890035071953353 #
straight-curve $-1 -64.782250434888766 40.469778488327968 0 0 0 -1 I I #
straight-curve $-1 -64.782250434888766 0 -11.191900135126241 0 1 0 I I #
point $-1 -64.782250434888766 -40.469778488327968 -11.191900135126241 #
point $-1 -64.782250434888766 40.469778488327968 -11.191900135126241 #
straight-curve $-1 -64.782250434888766 -40.469778488327968 0 0 0 -1 I I #
edge $-1 $427 -1.5 $421 1.5 $420 $490 forward 7 unknown #
coedge $-1 $425 $416 $415 $469 reversed $316 $-1 #
edge $-1 $429 -1.5 $418 1.5 $415 $491 forward 7 unknown #
straight-curve $-1 0 -52.28184248457503 -11.191900135126241 -1 0 0 I I #
point $-1 64.782250434888766 -52.28184248457503 -11.191900135126241 #
point $-1 -64.782250434888766 -52.28184248457503 -11.191900135126241 #
straight-curve $-1 0 -52.28184248457503 -8.1919001351262413 1 0 0 I I #
point $-1 -64.782250434888766 -52.28184248457503 -8.1919001351262413 #
point $-1 64.782250434888766 -52.28184248457503 -8.1919001351262413 #
straight-curve $-1 -64.782250434888766 -19.535720812525561 36.101999863373834 0 0 -1 I I #
point $-1 -64.782250434888766 -19.535720812525561 11.191900135126241 #
straight-curve $-1 -64.782250434888766 -12.048358826151617 5.4733503115425517 0 -1 0 I I #
point $-1 -64.782250434888766 -19.535720812525561 5.4733503115425748 #
point $-1 -61.77847383781355 -26.833315756169831 7.5600681305285198 #
point $-1 -61.77847383781355 -24.09671765230323 7.5600681305285198 #
point $-1 -61.77847383781355 -21.360119548436629 7.5600681305285198 #
straight-curve $-1 64.782250434888766 -28.657714492080906 91.63122710961683 0 0 -1 I I #
point $-1 64.782250434888766 -28.657714492080906 11.191900135126241 #
straight-curve $-1 64.782250434888766 -12.048358826151617 5.473350311542589 0 1 0 I I #
point $-1 64.782250434888766 -28.657714492080906 5.4733503115426032 #
point $-1 61.778473837813536 -26.833315756169831 7.5600681305285198 #
point $-1 61.778473837813536 -24.09671765230323 7.5600681305285198 #
point $-1 61.778473837813536 -21.360119548436629 7.5600681305285198 #
straight-curve $-1 -64.782250434888766 -52.28184248457503 -9.6919001351262413 0 0 -1 I I #
straight-curve $-1 64.782250434888766 -52.28184248457503 -9.6919001351262413 0 0 -1 I I #
End-of-ACIS-data 