500 0 3 0           
7 Unknown 11 ACIS 5.0 NT 24 Fri Mar 26 00:47:02 1999 
-1 9.9999999999999995e-007 1e-010 
body $-1 $3 $-1 $4 #
body $-1 $5 $-1 $6 #
body $-1 $7 $-1 $8 #
lump $-1 $-1 $9 $0 #
transform $-1 1 0 0 0 1 0 0 0 1 61.104159672841575 27.679156822657557 13.120885011728051 1 rotate no_reflect no_shear #
lump $-1 $-1 $10 $1 #
transform $-1 1 0 0 0 1 0 0 0 1 61.104159672841575 27.679156822657557 13.120885011728051 1 rotate no_reflect no_shear #
lump $-1 $-1 $11 $2 #
transform $-1 1 0 0 0 1 0 0 0 1 61.104159672841575 27.679156822657557 13.120885011728051 1 rotate no_reflect no_shear #
shell $-1 $-1 $-1 $12 $-1 $3 #
shell $-1 $-1 $-1 $13 $-1 $5 #
shell $-1 $-1 $-1 $14 $-1 $7 #
face $-1 $15 $16 $9 $-1 $17 forward single #
face $-1 $18 $19 $10 $-1 $20 forward single #
face $-1 $21 $22 $11 $-1 $23 forward single #
face $-1 $24 $25 $9 $-1 $26 reversed single #
loop $-1 $-1 $27 $12 #
plane-surface $-1 0 0 13.120885011728051 0 0 1 1 0 0 forward_v I I I I #
face $-1 $28 $29 $10 $-1 $30 reversed single #
loop $-1 $-1 $31 $13 #
plane-surface $-1 -52.518375002039669 0 0.35440929749819272 0 0 1 1 0 0 forward_v I I I I #
face $-1 $32 $33 $11 $-1 $34 reversed single #
loop $-1 $-1 $35 $14 #
plane-surface $-1 52.518375002039676 0 0.35440929749819272 0 0 1 1 0 0 forward_v I I I I #
face $-1 $36 $37 $9 $-1 $38 reversed single #
loop $-1 $-1 $39 $15 #
plane-surface $-1 0 0 -13.120885011728051 0 0 1 1 0 0 forward_v I I I I #
coedge $-1 $40 $41 $42 $43 forward $16 $-1 #
face $-1 $44 $45 $10 $-1 $46 reversed single #
loop $-1 $-1 $47 $18 #
plane-surface $-1 -52.518375002039669 0 -3.9341143482003771 0 0 1 1 0 0 forward_v I I I I #
coedge $-1 $48 $49 $50 $51 forward $19 $-1 #
face $-1 $52 $53 $11 $-1 $54 reversed single #
loop $-1 $-1 $55 $21 #
plane-surface $-1 52.518375002039676 0 -3.9341143482003771 0 0 1 1 0 0 forward_v I I I I #
coedge $-1 $56 $57 $58 $59 reversed $22 $-1 #
face $-1 $60 $61 $9 $-1 $62 reversed single #
loop $-1 $-1 $63 $24 #
plane-surface $-1 0 -27.679156822657557 0 0 1 0 0 0 1 forward_v I I I I #
coedge $-1 $64 $65 $66 $67 forward $25 $-1 #
coedge $-1 $68 $27 $69 $70 forward $16 $-1 #
coedge $-1 $27 $68 $71 $72 forward $16 $-1 #
coedge $-1 $73 $74 $27 $43 reversed $75 $-1 #
edge $-1 $76 -27.679156822657557 $77 27.679156822657557 $42 $78 forward 7 unknown #
face $-1 $79 $80 $10 $-1 $81 reversed single #
loop $-1 $-1 $82 $28 #
plane-surface $-1 -43.932590331237762 0 -1.7898525253510922 -1 0 0 0 0 1 forward_v I I I I #
coedge $-1 $83 $84 $85 $86 forward $29 $-1 #
coedge $-1 $87 $31 $88 $89 reversed $19 $-1 #
coedge $-1 $31 $87 $90 $91 reversed $19 $-1 #
coedge $-1 $82 $92 $31 $51 reversed $45 $-1 #
edge $-1 $93 -27.679156822657557 $94 27.679156822657557 $50 $95 forward 7 unknown #
face $-1 $96 $97 $11 $-1 $98 reversed single #
loop $-1 $-1 $99 $32 #
plane-surface $-1 43.932590331237769 0 -1.7898525253510922 1 0 0 0 0 -1 forward_v I I I I #
coedge $-1 $100 $101 $102 $103 reversed $33 $-1 #
coedge $-1 $104 $35 $105 $106 reversed $22 $-1 #
coedge $-1 $35 $104 $107 $108 reversed $22 $-1 #
coedge $-1 $109 $110 $35 $59 forward $111 $-1 #
edge $-1 $112 -27.679156822657557 $113 27.679156822657557 $58 $114 forward 7 unknown #
face $-1 $115 $116 $9 $-1 $117 reversed single #
loop $-1 $-1 $118 $36 #
plane-surface $-1 -61.104159672841575 0 0 1 0 0 0 0 -1 forward_v I I I I #
coedge $-1 $119 $71 $120 $121 forward $37 $-1 #
coedge $-1 $122 $39 $119 $123 forward $25 $-1 #
coedge $-1 $39 $122 $124 $125 forward $25 $-1 #
coedge $-1 $74 $73 $39 $67 reversed $75 $-1 #
edge $-1 $126 -27.679156822657557 $127 27.679156822657557 $66 $128 forward 7 unknown #
coedge $-1 $41 $40 $129 $130 forward $16 $-1 #
coedge $-1 $131 $132 $40 $70 reversed $116 $-1 #
edge $-1 $77 -61.104159672841575 $133 61.104159672841575 $69 $134 forward 7 unknown #
coedge $-1 $63 $135 $41 $72 reversed $37 $-1 #
edge $-1 $136 -61.104159672841575 $76 61.104159672841575 $71 $137 forward 7 unknown #
coedge $-1 $66 $42 $135 $138 forward $75 $-1 #
coedge $-1 $42 $66 $131 $139 reversed $75 $-1 #
loop $-1 $-1 $73 $115 #
vertex $-1 $43 $140 #
vertex $-1 $43 $141 #
straight-curve $-1 61.104159672841575 0 13.120885011728051 0 1 0 I I #
face $-1 $142 $143 $10 $-1 $144 reversed single #
loop $-1 $-1 $145 $44 #
plane-surface $-1 0 -27.679156822657557 0 0 1 0 0 0 1 forward_v I I I I #
coedge $-1 $85 $50 $146 $147 reversed $45 $-1 #
coedge $-1 $148 $47 $145 $149 reversed $29 $-1 #
coedge $-1 $47 $148 $150 $151 reversed $29 $-1 #
coedge $-1 $92 $82 $47 $86 reversed $45 $-1 #
edge $-1 $152 -27.679156822657557 $153 27.679156822657557 $85 $154 forward 7 unknown #
coedge $-1 $49 $48 $155 $156 reversed $19 $-1 #
coedge $-1 $157 $158 $48 $89 forward $159 $-1 #
edge $-1 $160 -34.844972171821738 $94 -17.673402830217928 $88 $161 forward 7 unknown #
coedge $-1 $162 $146 $49 $91 forward $80 $-1 #
edge $-1 $93 17.673402830217928 $163 34.844972171821738 $90 $164 forward 7 unknown #
coedge $-1 $50 $85 $157 $165 reversed $45 $-1 #
vertex $-1 $91 $166 #
vertex $-1 $89 $167 #
straight-curve $-1 -43.932590331237762 0 0.35440929749819272 0 1 0 I I #
face $-1 $168 $169 $11 $-1 $170 reversed single #
loop $-1 $-1 $107 $52 #
plane-surface $-1 0 -27.679156822657557 0 0 1 0 0 0 1 forward_v I I I I #
coedge $-1 $171 $172 $173 $174 reversed $53 $-1 #
coedge $-1 $175 $55 $176 $177 reversed $33 $-1 #
coedge $-1 $55 $175 $178 $179 reversed $33 $-1 #
coedge $-1 $110 $109 $55 $103 forward $111 $-1 #
edge $-1 $180 -27.679156822657557 $181 27.679156822657557 $102 $182 forward 7 unknown #
coedge $-1 $57 $56 $172 $183 forward $22 $-1 #
coedge $-1 $184 $173 $56 $106 forward $169 $-1 #
edge $-1 $185 17.673402830217931 $112 34.844972171821745 $105 $186 forward 7 unknown #
coedge $-1 $187 $188 $57 $108 forward $97 $-1 #
edge $-1 $113 -34.844972171821745 $189 -17.673402830217931 $107 $190 forward 7 unknown #
coedge $-1 $102 $58 $188 $191 forward $111 $-1 #
coedge $-1 $58 $102 $184 $192 reversed $111 $-1 #
loop $-1 $-1 $58 $168 #
vertex $-1 $192 $193 #
vertex $-1 $191 $194 #
straight-curve $-1 61.104159672841575 0 0.35440929749819272 0 -1 0 I I #
face $-1 $-1 $75 $9 $-1 $195 reversed single #
loop $-1 $-1 $131 $60 #
plane-surface $-1 0 27.679156822657557 0 0 -1 0 0 0 -1 forward_v I I I I #
coedge $-1 $196 $129 $132 $197 forward $61 $-1 #
coedge $-1 $135 $63 $64 $123 reversed $37 $-1 #
coedge $-1 $129 $196 $63 $121 reversed $61 $-1 #
edge $-1 $136 -13.120885011728051 $198 13.120885011728051 $120 $199 forward 7 unknown #
coedge $-1 $65 $64 $196 $200 forward $25 $-1 #
edge $-1 $127 -61.104159672841575 $198 61.104159672841575 $119 $201 forward 7 unknown #
coedge $-1 $132 $131 $65 $125 reversed $116 $-1 #
edge $-1 $202 -61.104159672841575 $126 61.104159672841575 $124 $203 forward 7 unknown #
vertex $-1 $67 $204 #
vertex $-1 $138 $205 #
straight-curve $-1 61.104159672841575 0 -13.120885011728051 0 -1 0 I I #
coedge $-1 $118 $120 $68 $130 reversed $61 $-1 #
edge $-1 $133 -27.679156822657557 $136 27.679156822657557 $129 $206 forward 7 unknown #
coedge $-1 $124 $69 $74 $139 forward $116 $-1 #
coedge $-1 $69 $124 $118 $197 reversed $116 $-1 #
vertex $-1 $70 $207 #
straight-curve $-1 0 27.679156822657557 13.120885011728051 -1 0 0 I I #
coedge $-1 $71 $119 $73 $138 reversed $37 $-1 #
vertex $-1 $130 $208 #
straight-curve $-1 0 -27.679156822657557 13.120885011728051 1 0 0 I I #
edge $-1 $76 -13.120885011728051 $127 13.120885011728051 $73 $209 forward 7 unknown #
edge $-1 $77 -13.120885011728051 $126 13.120885011728051 $74 $210 forward 7 unknown #
point $-1 61.104159672841575 -27.679156822657557 13.120885011728051 #
point $-1 61.104159672841575 27.679156822657557 13.120885011728051 #
face $-1 $-1 $159 $10 $-1 $211 reversed single #
loop $-1 $-1 $212 $79 #
plane-surface $-1 -61.104159672841575 0 0 1 0 0 0 0 -1 forward_v I I I I #
coedge $-1 $146 $162 $83 $149 forward $80 $-1 #
coedge $-1 $90 $145 $82 $147 forward $80 $-1 #
edge $-1 $153 -3.039188085524831 $93 1.2493355601737388 $146 $213 forward 7 unknown #
coedge $-1 $84 $83 $212 $214 reversed $29 $-1 #
edge $-1 $215 -34.844972171821738 $153 -17.673402830217928 $145 $216 forward 7 unknown #
coedge $-1 $158 $157 $84 $151 forward $159 $-1 #
edge $-1 $152 17.673402830217928 $217 34.844972171821738 $150 $218 forward 7 unknown #
vertex $-1 $151 $219 #
vertex $-1 $149 $220 #
straight-curve $-1 -43.932590331237762 0 -3.9341143482003771 0 -1 0 I I #
coedge $-1 $221 $222 $87 $156 forward $143 $-1 #
edge $-1 $163 -27.679156822657557 $160 27.679156822657557 $155 $223 forward 7 unknown #
coedge $-1 $150 $88 $92 $165 forward $159 $-1 #
coedge $-1 $88 $150 $221 $224 reversed $159 $-1 #
loop $-1 $-1 $150 $142 #
vertex $-1 $224 $225 #
straight-curve $-1 -26.259187501019834 27.679156822657557 0.35440929749819272 1 0 0 I I #
coedge $-1 $145 $90 $222 $226 forward $80 $-1 #
vertex $-1 $226 $227 #
straight-curve $-1 -26.259187501019834 -27.679156822657557 0.35440929749819272 -1 0 0 I I #
edge $-1 $94 -1.2493355601737388 $152 3.039188085524831 $157 $228 forward 7 unknown #
point $-1 -43.932590331237762 -27.679156822657557 0.35440929749819272 #
point $-1 -43.932590331237762 27.679156822657557 0.35440929749819272 #
face $-1 $-1 $111 $11 $-1 $229 reversed single #
loop $-1 $-1 $105 $96 #
plane-surface $-1 0 27.679156822657557 0 0 -1 0 0 0 -1 forward_v I I I I #
coedge $-1 $230 $99 $175 $231 reversed $53 $-1 #
coedge $-1 $99 $230 $104 $183 reversed $53 $-1 #
coedge $-1 $105 $178 $99 $174 forward $169 $-1 #
edge $-1 $232 -3.039188085524831 $185 1.2493355601737388 $173 $233 forward 7 unknown #
coedge $-1 $101 $100 $171 $231 forward $33 $-1 #
coedge $-1 $188 $187 $100 $177 forward $97 $-1 #
edge $-1 $234 17.673402830217931 $180 34.844972171821745 $176 $235 forward 7 unknown #
coedge $-1 $173 $184 $101 $179 forward $169 $-1 #
edge $-1 $181 -34.844972171821745 $232 -17.673402830217931 $178 $236 forward 7 unknown #
vertex $-1 $103 $237 #
vertex $-1 $103 $238 #
straight-curve $-1 61.104159672841575 0 -3.9341143482003771 0 1 0 I I #
edge $-1 $185 -27.679156822657557 $189 27.679156822657557 $172 $239 forward 7 unknown #
coedge $-1 $178 $105 $110 $192 forward $169 $-1 #
vertex $-1 $106 $240 #
straight-curve $-1 26.259187501019838 27.679156822657557 0.35440929749819272 1 0 0 I I #
coedge $-1 $176 $107 $230 $241 forward $97 $-1 #
coedge $-1 $107 $176 $109 $191 reversed $97 $-1 #
vertex $-1 $108 $242 #
straight-curve $-1 26.259187501019838 -27.679156822657557 0.35440929749819272 -1 0 0 I I #
edge $-1 $113 -0.35440929749819272 $180 3.9341143482003771 $109 $243 forward 7 unknown #
edge $-1 $112 -0.35440929749819272 $181 3.9341143482003771 $110 $244 forward 7 unknown #
point $-1 61.104159672841583 27.679156822657557 0.35440929749819272 #
point $-1 61.104159672841583 -27.679156822657557 0.35440929749819272 #
plane-surface $-1 61.104159672841575 0 0 -1 0 0 0 0 1 forward_v I I I I #
coedge $-1 $120 $118 $122 $200 reversed $61 $-1 #
edge $-1 $133 -13.120885011728051 $202 13.120885011728051 $132 $245 forward 7 unknown #
vertex $-1 $200 $246 #
straight-curve $-1 -61.104159672841575 -27.679156822657557 0 0 0 -1 I I #
edge $-1 $198 -27.679156822657557 $202 27.679156822657557 $196 $247 forward 7 unknown #
straight-curve $-1 0 -27.679156822657557 -13.120885011728051 -1 0 0 I I #
vertex $-1 $125 $248 #
straight-curve $-1 0 27.679156822657557 -13.120885011728051 1 0 0 I I #
point $-1 61.104159672841575 27.679156822657557 -13.120885011728051 #
point $-1 61.104159672841575 -27.679156822657557 -13.120885011728051 #
straight-curve $-1 -61.104159672841575 0 13.120885011728051 0 -1 0 I I #
point $-1 -61.104159672841575 27.679156822657557 13.120885011728051 #
point $-1 -61.104159672841575 -27.679156822657557 13.120885011728051 #
straight-curve $-1 61.104159672841575 -27.679156822657557 0 0 0 -1 I I #
straight-curve $-1 61.104159672841575 27.679156822657557 0 0 0 -1 I I #
plane-surface $-1 0 27.679156822657557 0 0 -1 0 0 0 -1 forward_v I I I I #
coedge $-1 $222 $221 $148 $214 forward $143 $-1 #
straight-curve $-1 -43.932590331237762 -27.679156822657557 -0.89492626267554609 0 0 1 I I #
edge $-1 $217 -27.679156822657557 $215 27.679156822657557 $212 $249 forward 7 unknown #
vertex $-1 $149 $250 #
straight-curve $-1 -26.259187501019834 -27.679156822657557 -3.9341143482003771 1 0 0 I I #
vertex $-1 $151 $251 #
straight-curve $-1 -26.259187501019834 27.679156822657557 -3.9341143482003771 -1 0 0 I I #
point $-1 -43.932590331237762 27.679156822657557 -3.9341143482003771 #
point $-1 -43.932590331237762 -27.679156822657557 -3.9341143482003771 #
coedge $-1 $212 $155 $158 $224 forward $143 $-1 #
coedge $-1 $155 $212 $162 $226 reversed $143 $-1 #
straight-curve $-1 -61.104159672841575 0 0.35440929749819272 0 1 0 I I #
edge $-1 $160 -0.35440929749819272 $217 3.9341143482003771 $158 $252 forward 7 unknown #
point $-1 -61.104159672841575 27.679156822657557 0.35440929749819272 #
edge $-1 $163 -0.35440929749819272 $215 3.9341143482003771 $222 $253 forward 7 unknown #
point $-1 -61.104159672841575 -27.679156822657557 0.35440929749819272 #
straight-curve $-1 -43.932590331237762 27.679156822657557 -0.89492626267554609 0 0 -1 I I #
plane-surface $-1 61.104159672841575 0 0 -1 0 0 0 0 1 forward_v I I I I #
coedge $-1 $172 $171 $187 $241 reversed $53 $-1 #
edge $-1 $234 -27.679156822657557 $232 27.679156822657557 $171 $254 forward 7 unknown #
vertex $-1 $179 $255 #
straight-curve $-1 43.932590331237769 27.679156822657557 -0.89492626267554609 0 0 1 I I #
vertex $-1 $177 $256 #
straight-curve $-1 26.259187501019838 -27.679156822657557 -3.9341143482003771 1 0 0 I I #
straight-curve $-1 26.259187501019838 27.679156822657557 -3.9341143482003771 -1 0 0 I I #
point $-1 61.104159672841583 -27.679156822657557 -3.9341143482003771 #
point $-1 61.104159672841583 27.679156822657557 -3.9341143482003771 #
straight-curve $-1 43.932590331237769 0 0.35440929749819272 0 -1 0 I I #
point $-1 43.932590331237769 27.679156822657557 0.35440929749819272 #
edge $-1 $189 -1.2493355601737388 $234 3.039188085524831 $187 $257 forward 7 unknown #
point $-1 43.932590331237769 -27.679156822657557 0.35440929749819272 #
straight-curve $-1 61.104159672841575 -27.679156822657557 0 0 0 -1 I I #
straight-curve $-1 61.104159672841575 27.679156822657557 0 0 0 -1 I I #
straight-curve $-1 -61.104159672841575 27.679156822657557 0 0 0 -1 I I #
point $-1 -61.104159672841575 -27.679156822657557 -13.120885011728051 #
straight-curve $-1 -61.104159672841575 0 -13.120885011728051 0 1 0 I I #
point $-1 -61.104159672841575 27.679156822657557 -13.120885011728051 #
straight-curve $-1 -61.104159672841575 0 -3.9341143482003771 0 -1 0 I I #
point $-1 -61.104159672841575 -27.679156822657557 -3.9341143482003771 #
point $-1 -61.104159672841575 27.679156822657557 -3.9341143482003771 #
straight-curve $-1 -61.104159672841575 27.679156822657557 0 0 0 -1 I I #
straight-curve $-1 -61.104159672841575 -27.679156822657557 0 0 0 -1 I I #
straight-curve $-1 43.932590331237769 0 -3.9341143482003771 0 1 0 I I #
point $-1 43.932590331237769 27.679156822657557 -3.9341143482003771 #
point $-1 43.932590331237769 -27.679156822657557 -3.9341143482003771 #
straight-curve $-1 43.932590331237769 -27.679156822657557 -0.89492626267554609 0 0 -1 I I #
End-of-ACIS-data 