500 0 13 0           
7 Unknown 11 ACIS 5.0 NT 24 Thu Mar 25 17:06:58 1999 
-1 9.9999999999999995e-007 1e-010 
body $-1 $13 $-1 $14 #
body $-1 $15 $-1 $16 #
body $-1 $17 $-1 $18 #
body $-1 $19 $-1 $20 #
body $-1 $21 $-1 $22 #
body $-1 $23 $-1 $24 #
body $-1 $25 $-1 $26 #
body $-1 $27 $-1 $28 #
body $-1 $29 $-1 $30 #
body $-1 $31 $-1 $32 #
body $-1 $33 $-1 $34 #
body $-1 $35 $-1 $36 #
body $-1 $37 $-1 $38 #
lump $-1 $-1 $39 $0 #
transform $-1 1 0 0 0 1 0 0 0 1 57.13309121982482 32.553325390610354 10.451994845559719 1 rotate no_reflect no_shear #
lump $-1 $-1 $40 $1 #
transform $-1 1 0 0 0 1 0 0 0 1 57.13309121982482 32.553325390610354 10.451994845559719 1 rotate no_reflect no_shear #
lump $-1 $-1 $41 $2 #
transform $-1 1 0 0 0 1 0 0 0 1 57.13309121982482 32.553325390610354 10.451994845559719 1 rotate no_reflect no_shear #
lump $-1 $-1 $42 $3 #
transform $-1 1 0 0 0 1 0 0 0 1 57.13309121982482 32.553325390610354 10.451994845559719 1 rotate no_reflect no_shear #
lump $-1 $-1 $43 $4 #
transform $-1 1 0 0 0 1 0 0 0 1 57.13309121982482 32.553325390610354 10.451994845559719 1 rotate no_reflect no_shear #
lump $-1 $-1 $44 $5 #
transform $-1 1 0 0 0 1 0 0 0 1 57.13309121982482 32.553325390610354 10.451994845559719 1 rotate no_reflect no_shear #
lump $-1 $-1 $45 $6 #
transform $-1 1 0 0 0 1 0 0 0 1 57.13309121982482 32.553325390610354 10.451994845559719 1 rotate no_reflect no_shear #
lump $-1 $-1 $46 $7 #
transform $-1 1 0 0 0 1 0 0 0 1 57.13309121982482 32.553325390610354 10.451994845559719 1 rotate no_reflect no_shear #
lump $-1 $-1 $47 $8 #
transform $-1 1 0 0 0 1 0 0 0 1 57.13309121982482 32.553325390610354 10.451994845559719 1 rotate no_reflect no_shear #
lump $-1 $-1 $48 $9 #
transform $-1 1 0 0 0 1 0 0 0 1 57.13309121982482 32.553325390610354 10.451994845559719 1 rotate no_reflect no_shear #
lump $-1 $-1 $49 $10 #
transform $-1 1 0 0 0 1 0 0 0 1 57.13309121982482 32.553325390610354 10.451994845559719 1 rotate no_reflect no_shear #
lump $-1 $-1 $50 $11 #
transform $-1 1 0 0 0 1 0 0 0 1 57.13309121982482 32.553325390610354 10.451994845559719 1 rotate no_reflect no_shear #
lump $-1 $-1 $51 $12 #
transform $-1 1 0 0 0 1 0 0 0 1 57.13309121982482 32.553325390610354 10.451994845559719 1 rotate no_reflect no_shear #
shell $-1 $-1 $-1 $52 $-1 $13 #
shell $-1 $-1 $-1 $53 $-1 $15 #
shell $-1 $-1 $-1 $54 $-1 $17 #
shell $-1 $-1 $-1 $55 $-1 $19 #
shell $-1 $-1 $-1 $56 $-1 $21 #
shell $-1 $-1 $-1 $57 $-1 $23 #
shell $-1 $-1 $-1 $58 $-1 $25 #
shell $-1 $-1 $-1 $59 $-1 $27 #
shell $-1 $-1 $-1 $60 $-1 $29 #
shell $-1 $-1 $-1 $61 $-1 $31 #
shell $-1 $-1 $-1 $62 $-1 $33 #
shell $-1 $-1 $-1 $63 $-1 $35 #
shell $-1 $-1 $-1 $64 $-1 $37 #
face $-1 $65 $66 $39 $-1 $67 reversed single #
face $-1 $68 $69 $40 $-1 $70 forward single #
face $-1 $71 $72 $41 $-1 $73 reversed single #
face $-1 $74 $75 $42 $-1 $76 forward single #
face $-1 $77 $78 $43 $-1 $79 forward single #
face $-1 $80 $81 $44 $-1 $82 reversed single #
face $-1 $83 $84 $45 $-1 $85 forward single #
face $-1 $86 $87 $46 $-1 $88 forward single #
face $-1 $89 $90 $47 $-1 $91 forward single #
face $-1 $92 $93 $48 $-1 $94 reversed single #
face $-1 $95 $96 $49 $-1 $97 forward single #
face $-1 $98 $99 $50 $-1 $100 forward single #
face $-1 $101 $102 $51 $-1 $103 forward single #
face $-1 $104 $105 $39 $-1 $106 forward single #
loop $-1 $-1 $107 $52 #
plane-surface $-1 0 -32.553325390610354 0 0 1 0 0 0 1 forward_v I I I I #
face $-1 $108 $109 $40 $-1 $110 reversed single #
loop $-1 $-1 $111 $53 #
plane-surface $-1 0 -32.553325390610354 0 0 1 0 0 0 1 forward_v I I I I #
face $-1 $112 $113 $41 $-1 $114 reversed single #
loop $-1 $-1 $115 $54 #
plane-surface $-1 -142.04941437316711 -19.570165974034506 80.308601135886036 0 1 0 -0.74314483375859142 0 0.66913059716165679 forward_v I I I I #
face $-1 $116 $117 $42 $-1 $118 forward single #
loop $-1 $119 $120 $55 #
cone-surface $-1 -53.187439341217271 -16.285089723767104 6.2744880268844492 0.74314483375859142 0 -0.66913059716165679 0.66913059716165679 0 0.74314483375859142 1 I I 0 1 1 forward I I I I #
face $-1 $121 $122 $43 $-1 $123 forward single #
loop $-1 $124 $125 $56 #
cone-surface $-1 -53.187439341217271 -11.357475348366002 6.2744880268844492 0.74314483375859142 0 -0.66913059716165679 0.66913059716165679 0 0.74314483375859142 1 I I 0 1 1 forward I I I I #
face $-1 $126 $127 $44 $-1 $128 reversed single #
loop $-1 $-1 $129 $57 #
plane-surface $-1 82.412400044284084 -7.3276519075822151 161.24243694232044 0 -1 0 -0.80901700255871778 0 -0.5877852410284794 forward_v I I I I #
face $-1 $130 $131 $45 $-1 $132 forward single #
loop $-1 $133 $134 $58 #
cone-surface $-1 53.525686228914594 -12.989715408258178 5.7496932745025493 -0.80901700255871778 0 -0.5877852410284794 0.2938926205142397 0 -0.40450850127935889 1 I I 0 1 0.5 forward I I I I #
face $-1 $135 $136 $46 $-1 $137 forward single #
loop $-1 $138 $139 $59 #
cone-surface $-1 53.525686228914594 -10.866441595504693 5.7496932745025493 -0.80901700255871778 0 -0.5877852410284794 0.2938926205142397 0 -0.40450850127935889 1 I I 0 1 0.5 forward I I I I #
face $-1 $140 $141 $47 $-1 $142 forward single #
loop $-1 $143 $144 $60 #
cone-surface $-1 53.525686228914594 -8.7431677827512075 5.7496932745025493 -0.80901700255871778 0 -0.5877852410284794 0.2938926205142397 0 -0.40450850127935889 1 I I 0 1 0.5 forward I I I I #
face $-1 $145 $146 $48 $-1 $147 reversed single #
loop $-1 $-1 $148 $61 #
plane-surface $-1 82.412400044284084 27.388390700003018 161.24243694232044 0 -1 0 -0.80901700255871778 0 -0.5877852410284794 forward_v I I I I #
face $-1 $149 $150 $49 $-1 $151 forward single #
loop $-1 $152 $153 $62 #
cone-surface $-1 53.525686228914594 21.726327199327059 5.7496932745025493 -0.80901700255871778 0 -0.5877852410284794 0.2938926205142397 0 -0.40450850127935889 1 I I 0 1 0.5 forward I I I I #
face $-1 $154 $155 $50 $-1 $156 forward single #
loop $-1 $157 $158 $63 #
cone-surface $-1 53.525686228914594 23.849601012080541 5.7496932745025493 -0.80901700255871778 0 -0.5877852410284794 0.2938926205142397 0 -0.40450850127935889 1 I I 0 1 0.5 forward I I I I #
face $-1 $159 $160 $51 $-1 $161 forward single #
loop $-1 $162 $163 $64 #
cone-surface $-1 53.525686228914594 25.97287482483403 5.7496932745025493 -0.80901700255871778 0 -0.5877852410284794 0.2938926205142397 0 -0.40450850127935889 1 I I 0 1 0.5 forward I I I I #
face $-1 $164 $165 $39 $-1 $166 reversed single #
loop $-1 $-1 $167 $65 #
plane-surface $-1 0 0 10.451994845559719 0 0 1 1 0 0 forward_v I I I I #
coedge $-1 $168 $169 $170 $171 reversed $66 $-1 #
face $-1 $172 $173 $40 $-1 $174 reversed single #
loop $-1 $-1 $175 $68 #
plane-surface $-1 0 0 -10.451994845559719 0 0 1 1 0 0 forward_v I I I I #
coedge $-1 $176 $177 $178 $179 forward $69 $-1 #
face $-1 $180 $181 $41 $-1 $182 reversed single #
loop $-1 $-1 $183 $71 #
plane-surface $-1 -57.133091219824806 -13.821282536066551 3.8496022446604456 -0.74314483375859142 0 0.66913059716165679 0.66913059716165679 0 0.74314483375859142 forward_v I I I I #
coedge $-1 $184 $185 $186 $187 reversed $72 $-1 #
face $-1 $-1 $188 $42 $-1 $189 forward single #
loop $-1 $190 $191 $74 #
cone-surface $-1 -51.842625471697652 -16.285089723767104 5.063612210077979 0.74314483375859142 0 -0.66913059716165679 0.3345652985808284 0 0.37157241687929571 1 I I -0.70710678118654746 0.70710678118654746 0.5 forward I I I I #
loop $-1 $-1 $192 $55 #
coedge $-1 $120 $120 $193 $194 reversed $75 $-1 #
face $-1 $-1 $195 $43 $-1 $196 forward single #
loop $-1 $197 $198 $77 #
cone-surface $-1 -51.842625471697652 -11.357475348366002 5.063612210077979 0.74314483375859142 0 -0.66913059716165679 0.3345652985808284 0 0.37157241687929571 1 I I -0.70710678118654746 0.70710678118654746 0.5 forward I I I I #
loop $-1 $-1 $199 $56 #
coedge $-1 $125 $125 $200 $201 reversed $78 $-1 #
face $-1 $202 $203 $44 $-1 $204 reversed single #
loop $-1 $-1 $205 $80 #
plane-surface $-1 -10.030884366868861 -10.866441595504693 94.078461355626771 0.80901700255871778 0 0.5877852410284794 0.5877852410284794 0 -0.80901700255871778 forward_v I I I I #
coedge $-1 $206 $207 $208 $209 reversed $81 $-1 #
face $-1 $-1 $210 $45 $-1 $211 forward single #
loop $-1 $212 $213 $83 #
cone-surface $-1 52.918923476995559 -12.989715408258178 5.3088543437311895 -0.80901700255871778 0 -0.5877852410284794 0.14694631025711985 0 -0.20225425063967944 1 I I -0.70710678118654746 0.70710678118654746 0.25 forward I I I I #
loop $-1 $-1 $214 $58 #
coedge $-1 $134 $134 $215 $216 reversed $84 $-1 #
face $-1 $-1 $217 $46 $-1 $218 forward single #
loop $-1 $219 $220 $86 #
cone-surface $-1 52.918923476995559 -10.866441595504693 5.3088543437311895 -0.80901700255871778 0 -0.5877852410284794 0.14694631025711985 0 -0.20225425063967944 1 I I -0.70710678118654746 0.70710678118654746 0.25 forward I I I I #
loop $-1 $-1 $221 $59 #
coedge $-1 $139 $139 $222 $223 reversed $87 $-1 #
face $-1 $-1 $224 $47 $-1 $225 forward single #
loop $-1 $226 $227 $89 #
cone-surface $-1 52.918923476995559 -8.7431677827512075 5.3088543437311895 -0.80901700255871778 0 -0.5877852410284794 0.14694631025711985 0 -0.20225425063967944 1 I I -0.70710678118654746 0.70710678118654746 0.25 forward I I I I #
loop $-1 $-1 $228 $60 #
coedge $-1 $144 $144 $229 $230 reversed $90 $-1 #
face $-1 $231 $232 $48 $-1 $233 reversed single #
loop $-1 $-1 $234 $92 #
plane-surface $-1 -10.030884366868861 23.849601012080541 94.078461355626771 0.80901700255871778 0 0.5877852410284794 0.5877852410284794 0 -0.80901700255871778 forward_v I I I I #
coedge $-1 $235 $236 $237 $238 reversed $93 $-1 #
face $-1 $-1 $239 $49 $-1 $240 forward single #
loop $-1 $241 $242 $95 #
cone-surface $-1 52.918923476995559 21.726327199327059 5.3088543437311895 -0.80901700255871778 0 -0.5877852410284794 0.14694631025711985 0 -0.20225425063967944 1 I I -0.70710678118654746 0.70710678118654746 0.25 forward I I I I #
loop $-1 $-1 $243 $62 #
coedge $-1 $153 $153 $244 $245 reversed $96 $-1 #
face $-1 $-1 $246 $50 $-1 $247 forward single #
loop $-1 $248 $249 $98 #
cone-surface $-1 52.918923476995559 23.849601012080541 5.3088543437311895 -0.80901700255871778 0 -0.5877852410284794 0.14694631025711985 0 -0.20225425063967944 1 I I -0.70710678118654746 0.70710678118654746 0.25 forward I I I I #
loop $-1 $-1 $250 $63 #
coedge $-1 $158 $158 $251 $252 reversed $99 $-1 #
face $-1 $-1 $253 $51 $-1 $254 forward single #
loop $-1 $255 $256 $101 #
cone-surface $-1 52.918923476995559 25.97287482483403 5.3088543437311895 -0.80901700255871778 0 -0.5877852410284794 0.14694631025711985 0 -0.20225425063967944 1 I I -0.70710678118654746 0.70710678118654746 0.25 forward I I I I #
loop $-1 $-1 $257 $64 #
coedge $-1 $163 $163 $258 $259 reversed $102 $-1 #
face $-1 $260 $261 $39 $-1 $262 reversed single #
loop $-1 $-1 $263 $104 #
plane-surface $-1 0 0 -10.451994845559719 0 0 1 1 0 0 forward_v I I I I #
coedge $-1 $264 $265 $266 $267 forward $105 $-1 #
coedge $-1 $268 $107 $269 $270 reversed $66 $-1 #
coedge $-1 $107 $268 $271 $272 forward $66 $-1 #
coedge $-1 $273 $263 $107 $171 forward $165 $-1 #
edge $-1 $274 -57.13309121982482 $275 57.13309121982482 $107 $276 forward 7 unknown #
face $-1 $277 $278 $40 $-1 $279 reversed single #
loop $-1 $-1 $280 $108 #
plane-surface $-1 -44.093438374339286 -45.536484807186199 0 0 1 0 0 0 1 forward_v I I I I #
coedge $-1 $281 $282 $177 $283 forward $109 $-1 #
coedge $-1 $284 $111 $285 $286 reversed $69 $-1 #
coedge $-1 $111 $284 $175 $283 reversed $69 $-1 #
coedge $-1 $287 $288 $111 $179 reversed $278 $-1 #
edge $-1 $289 -10.451994845559719 $290 10.451994845559719 $178 $291 forward 7 unknown #
face $-1 $292 $293 $41 $-1 $294 reversed single #
loop $-1 $-1 $295 $112 #
plane-surface $-1 -142.04941437316711 -8.0723990980985967 80.308601135886036 0 -1 0 0.74314483375859142 0 -0.66913059716165679 forward_v I I I I #
coedge $-1 $296 $297 $298 $299 reversed $113 $-1 #
coedge $-1 $185 $115 $300 $301 reversed $72 $-1 #
coedge $-1 $115 $184 $296 $302 reversed $72 $-1 #
coedge $-1 $298 $303 $115 $187 forward $304 $-1 #
edge $-1 $305 13.891615966758735 $306 19.836436818693201 $186 $307 forward 7 unknown #
loop $-1 $-1 $193 $116 #
plane-surface $-1 -57.133091219824806 -13.821282536066551 3.8496022446604456 -0.74314483375859142 0 0.66913059716165679 0.66913059716165679 0 0.74314483375859142 forward_v I I I I #
loop $-1 $-1 $308 $74 #
coedge $-1 $191 $191 $192 $309 reversed $117 $-1 #
coedge $-1 $192 $192 $191 $309 forward $119 $-1 #
coedge $-1 $193 $193 $120 $194 forward $188 $-1 #
edge $-1 $310 0 $310 6.2831853071796004 $193 $311 forward 7 unknown #
loop $-1 $-1 $200 $121 #
plane-surface $-1 -57.133091219824806 -13.821282536066551 3.8496022446604456 -0.74314483375859142 0 0.66913059716165679 0.66913059716165679 0 0.74314483375859142 forward_v I I I I #
loop $-1 $-1 $312 $77 #
coedge $-1 $198 $198 $199 $313 reversed $122 $-1 #
coedge $-1 $199 $199 $198 $313 forward $124 $-1 #
coedge $-1 $200 $200 $125 $201 forward $195 $-1 #
edge $-1 $314 0 $314 6.2831853071796004 $200 $315 forward 7 unknown #
face $-1 $316 $317 $44 $-1 $318 forward single #
loop $-1 $-1 $319 $126 #
plane-surface $-1 82.412400044284084 -14.40523128342717 161.24243694232044 0 1 0 0.80901700255871778 0 0.5877852410284794 forward_v I I I I #
coedge $-1 $320 $321 $322 $323 reversed $127 $-1 #
coedge $-1 $207 $129 $324 $325 reversed $81 $-1 #
coedge $-1 $129 $206 $320 $326 reversed $81 $-1 #
coedge $-1 $322 $327 $129 $209 forward $317 $-1 #
edge $-1 $328 -15.926891197682778 $329 -9.5210982184210522 $208 $330 forward 7 unknown #
loop $-1 $-1 $215 $130 #
plane-surface $-1 -10.030884366868861 -10.866441595504693 94.078461355626771 0.80901700255871778 0 0.5877852410284794 0.5877852410284794 0 -0.80901700255871778 forward_v I I I I #
loop $-1 $-1 $331 $83 #
coedge $-1 $213 $213 $214 $332 reversed $131 $-1 #
coedge $-1 $214 $214 $213 $332 forward $133 $-1 #
coedge $-1 $215 $215 $134 $216 forward $210 $-1 #
edge $-1 $333 0 $333 6.2831853071796004 $215 $334 forward 7 unknown #
loop $-1 $-1 $222 $135 #
plane-surface $-1 -10.030884366868861 -10.866441595504693 94.078461355626771 0.80901700255871778 0 0.5877852410284794 0.5877852410284794 0 -0.80901700255871778 forward_v I I I I #
loop $-1 $-1 $335 $86 #
coedge $-1 $220 $220 $221 $336 reversed $136 $-1 #
coedge $-1 $221 $221 $220 $336 forward $138 $-1 #
coedge $-1 $222 $222 $139 $223 forward $217 $-1 #
edge $-1 $337 0 $337 6.2831853071796004 $222 $338 forward 7 unknown #
loop $-1 $-1 $229 $140 #
plane-surface $-1 -10.030884366868861 -10.866441595504693 94.078461355626771 0.80901700255871778 0 0.5877852410284794 0.5877852410284794 0 -0.80901700255871778 forward_v I I I I #
loop $-1 $-1 $339 $89 #
coedge $-1 $227 $227 $228 $340 reversed $141 $-1 #
coedge $-1 $228 $228 $227 $340 forward $143 $-1 #
coedge $-1 $229 $229 $144 $230 forward $224 $-1 #
edge $-1 $341 0 $341 6.2831853071796004 $229 $342 forward 7 unknown #
face $-1 $343 $344 $48 $-1 $345 reversed single #
loop $-1 $-1 $346 $145 #
plane-surface $-1 82.412400044284084 20.310811324158063 161.24243694232044 0 1 0 0.80901700255871778 0 0.5877852410284794 forward_v I I I I #
coedge $-1 $347 $348 $349 $350 reversed $146 $-1 #
coedge $-1 $236 $148 $351 $352 reversed $93 $-1 #
coedge $-1 $148 $235 $347 $353 reversed $93 $-1 #
coedge $-1 $349 $354 $148 $238 forward $355 $-1 #
edge $-1 $356 -15.926891197682778 $357 -9.5210982184210522 $237 $358 forward 7 unknown #
loop $-1 $-1 $244 $149 #
plane-surface $-1 -10.030884366868861 23.849601012080541 94.078461355626771 0.80901700255871778 0 0.5877852410284794 0.5877852410284794 0 -0.80901700255871778 forward_v I I I I #
loop $-1 $-1 $359 $95 #
coedge $-1 $242 $242 $243 $360 reversed $150 $-1 #
coedge $-1 $243 $243 $242 $360 forward $152 $-1 #
coedge $-1 $244 $244 $153 $245 forward $239 $-1 #
edge $-1 $361 0 $361 6.2831853071796004 $244 $362 forward 7 unknown #
loop $-1 $-1 $251 $154 #
plane-surface $-1 -10.030884366868861 23.849601012080541 94.078461355626771 0.80901700255871778 0 0.5877852410284794 0.5877852410284794 0 -0.80901700255871778 forward_v I I I I #
loop $-1 $-1 $363 $98 #
coedge $-1 $249 $249 $250 $364 reversed $155 $-1 #
coedge $-1 $250 $250 $249 $364 forward $157 $-1 #
coedge $-1 $251 $251 $158 $252 forward $246 $-1 #
edge $-1 $365 0 $365 6.2831853071796004 $251 $366 forward 7 unknown #
loop $-1 $-1 $258 $159 #
plane-surface $-1 -10.030884366868861 23.849601012080541 94.078461355626771 0.80901700255871778 0 0.5877852410284794 0.5877852410284794 0 -0.80901700255871778 forward_v I I I I #
loop $-1 $-1 $367 $101 #
coedge $-1 $256 $256 $257 $368 reversed $160 $-1 #
coedge $-1 $257 $257 $256 $368 forward $162 $-1 #
coedge $-1 $258 $258 $163 $259 forward $253 $-1 #
edge $-1 $369 0 $369 6.2831853071796004 $258 $370 forward 7 unknown #
face $-1 $371 $372 $39 $-1 $373 reversed single #
loop $-1 $-1 $374 $164 #
plane-surface $-1 -57.13309121982482 0 0 1 0 0 0 0 -1 forward_v I I I I #
coedge $-1 $170 $375 $376 $377 forward $165 $-1 #
coedge $-1 $378 $167 $379 $380 forward $105 $-1 #
coedge $-1 $167 $378 $268 $381 forward $105 $-1 #
coedge $-1 $269 $382 $167 $267 reversed $383 $-1 #
edge $-1 $384 -32.553325390610354 $385 32.553325390610354 $266 $386 forward 7 unknown #
coedge $-1 $169 $168 $265 $381 reversed $66 $-1 #
coedge $-1 $376 $266 $168 $270 forward $383 $-1 #
edge $-1 $384 -10.451994845559719 $274 10.451994845559719 $269 $387 forward 7 unknown #
coedge $-1 $388 $389 $169 $272 reversed $261 $-1 #
edge $-1 $390 -10.451994845559719 $275 10.451994845559719 $271 $391 forward 7 unknown #
coedge $-1 $375 $170 $389 $392 forward $165 $-1 #
vertex $-1 $270 $393 #
vertex $-1 $392 $394 #
straight-curve $-1 0 -32.553325390610354 -10.451994845559719 -1 0 0 I I #
face $-1 $395 $396 $40 $-1 $397 reversed single #
loop $-1 $-1 $178 $172 #
plane-surface $-1 -46.497043121790874 -39.044905098898276 0 1 0 0 0 0 -1 forward_v I I I I #
coedge $-1 $398 $399 $400 $401 forward $173 $-1 #
coedge $-1 $402 $175 $403 $404 forward $109 $-1 #
coedge $-1 $175 $402 $287 $405 forward $109 $-1 #
edge $-1 $289 -46.497043121790874 $406 -41.689833626887697 $175 $407 forward 7 unknown #
coedge $-1 $177 $176 $408 $409 forward $69 $-1 #
coedge $-1 $410 $411 $176 $286 forward $412 $-1 #
edge $-1 $413 41.689833626887697 $290 46.497043121790874 $285 $414 forward 7 unknown #
coedge $-1 $400 $178 $282 $405 reversed $278 $-1 #
coedge $-1 $178 $400 $410 $415 reversed $278 $-1 #
vertex $-1 $283 $416 #
vertex $-1 $415 $417 #
straight-curve $-1 -46.497043121790874 -32.553325390610354 0 0 0 1 I I #
face $-1 $-1 $304 $41 $-1 $418 forward single #
loop $-1 $-1 $419 $180 #
plane-surface $-1 -57.13309121982482 0 0 1 0 0 0 0 -1 forward_v I I I I #
coedge $-1 $420 $421 $422 $423 reversed $181 $-1 #
coedge $-1 $424 $183 $185 $302 forward $113 $-1 #
coedge $-1 $183 $424 $420 $425 forward $113 $-1 #
coedge $-1 $422 $186 $183 $299 forward $304 $-1 #
edge $-1 $306 -12.65952470600123 $426 -1.1617578300653211 $298 $427 forward 7 unknown #
coedge $-1 $428 $429 $184 $301 forward $293 $-1 #
edge $-1 $430 -36.304698323282587 $305 -29.702305722383301 $300 $431 forward 7 unknown #
edge $-1 $306 -8.8843954784782113 $430 2.1389731374768986e-014 $185 $432 forward 7 unknown #
coedge $-1 $186 $422 $428 $433 forward $304 $-1 #
loop $-1 $-1 $422 $292 #
vertex $-1 $301 $434 #
vertex $-1 $187 $435 #
straight-curve $-1 -71.024707186583555 -19.570165974034506 10.451994845559717 1 0 0 I I #
coedge $-1 $308 $308 $-1 $436 reversed $190 $-1 #
edge $-1 $437 0 $437 6.2831853071796004 $191 $438 forward 7 unknown #
vertex $-1 $194 $439 #
ellipse-curve $-1 -54.16068079385758 -16.285089723767104 7.1507985451100788 -0.74314483375859142 0 0.66913059716165679 0.66913059716165679 0 0.74314483375859142 1 I I #
coedge $-1 $312 $312 $-1 $440 reversed $197 $-1 #
edge $-1 $441 0 $441 6.2831853071796004 $198 $442 forward 7 unknown #
vertex $-1 $201 $443 #
ellipse-curve $-1 -54.16068079385758 -11.357475348366002 7.1507985451100788 -0.74314483375859142 0 0.66913059716165679 0.66913059716165679 0 0.74314483375859142 1 I I #
face $-1 $-1 $444 $44 $-1 $445 reversed single #
loop $-1 $-1 $208 $202 #
plane-surface $-1 0 0 10.451994845559719 0 0 1 1 0 0 forward_v I I I I #
coedge $-1 $446 $447 $448 $449 reversed $203 $-1 #
coedge $-1 $450 $205 $207 $326 forward $127 $-1 #
coedge $-1 $205 $450 $446 $451 forward $127 $-1 #
coedge $-1 $448 $208 $205 $323 forward $317 $-1 #
edge $-1 $329 1.8944311098298687 $452 8.972010485674824 $322 $453 forward 7 unknown #
coedge $-1 $454 $455 $206 $325 forward $444 $-1 #
edge $-1 $456 -78.986041526686421 $328 -70.169223625600495 $324 $457 forward 7 unknown #
edge $-1 $329 103.36799627891318 $456 114.26618243964967 $207 $458 forward 7 unknown #
coedge $-1 $208 $448 $454 $459 forward $317 $-1 #
vertex $-1 $209 $460 #
vertex $-1 $209 $461 #
straight-curve $-1 41.206200022142042 -7.3276519075822151 10.451994845559724 -1 0 0 I I #
coedge $-1 $331 $331 $-1 $462 reversed $212 $-1 #
edge $-1 $463 0 $463 6.2831853071796004 $213 $464 forward 7 unknown #
vertex $-1 $216 $465 #
ellipse-curve $-1 53.930194730193939 -12.989715408258178 6.0435858950167809 0.80901700255871778 0 0.5877852410284794 0.2938926205142397 0 -0.40450850127935889 1 I I #
coedge $-1 $335 $335 $-1 $466 reversed $219 $-1 #
edge $-1 $467 0 $467 6.2831853071796004 $220 $468 forward 7 unknown #
vertex $-1 $223 $469 #
ellipse-curve $-1 53.930194730193939 -10.866441595504693 6.0435858950167809 0.80901700255871778 0 0.5877852410284794 0.2938926205142397 0 -0.40450850127935889 1 I I #
coedge $-1 $339 $339 $-1 $470 reversed $226 $-1 #
edge $-1 $471 0 $471 6.2831853071796004 $227 $472 forward 7 unknown #
vertex $-1 $230 $473 #
ellipse-curve $-1 53.930194730193939 -8.7431677827512075 6.0435858950167809 0.80901700255871778 0 0.5877852410284794 0.2938926205142397 0 -0.40450850127935889 1 I I #
face $-1 $-1 $355 $48 $-1 $474 forward single #
loop $-1 $-1 $475 $231 #
plane-surface $-1 57.13309121982482 0 0 -1 0 0 0 0 1 forward_v I I I I #
coedge $-1 $476 $477 $478 $479 reversed $232 $-1 #
coedge $-1 $480 $234 $236 $353 forward $146 $-1 #
coedge $-1 $234 $480 $476 $481 forward $146 $-1 #
coedge $-1 $478 $237 $234 $350 forward $355 $-1 #
edge $-1 $357 -15.463590193962748 $482 -8.3860108181177928 $349 $483 forward 7 unknown #
coedge $-1 $484 $485 $235 $352 forward $344 $-1 #
edge $-1 $486 -78.986041526686421 $356 -70.169223625600495 $351 $487 forward 7 unknown #
edge $-1 $357 103.36799627891318 $486 114.26618243964967 $236 $488 forward 7 unknown #
coedge $-1 $237 $478 $484 $489 forward $355 $-1 #
loop $-1 $-1 $478 $343 #
vertex $-1 $352 $490 #
vertex $-1 $238 $491 #
straight-curve $-1 41.206200022142042 27.388390700003018 10.451994845559724 -1 0 0 I I #
coedge $-1 $359 $359 $-1 $492 reversed $241 $-1 #
edge $-1 $493 0 $493 6.2831853071796004 $242 $494 forward 7 unknown #
vertex $-1 $245 $495 #
ellipse-curve $-1 53.930194730193939 21.726327199327059 6.0435858950167809 0.80901700255871778 0 0.5877852410284794 0.2938926205142397 0 -0.40450850127935889 1 I I #
coedge $-1 $363 $363 $-1 $496 reversed $248 $-1 #
edge $-1 $497 0 $497 6.2831853071796004 $249 $498 forward 7 unknown #
vertex $-1 $252 $499 #
ellipse-curve $-1 53.930194730193939 23.849601012080541 6.0435858950167809 0.80901700255871778 0 0.5877852410284794 0.2938926205142397 0 -0.40450850127935889 1 I I #
coedge $-1 $367 $367 $-1 $500 reversed $255 $-1 #
edge $-1 $501 0 $501 6.2831853071796004 $256 $502 forward 7 unknown #
vertex $-1 $259 $503 #
ellipse-curve $-1 53.930194730193939 25.97287482483403 6.0435858950167809 0.80901700255871778 0 0.5877852410284794 0.2938926205142397 0 -0.40450850127935889 1 I I #
face $-1 $-1 $383 $39 $-1 $504 reversed single #
loop $-1 $-1 $505 $260 #
plane-surface $-1 0 32.553325390610354 0 0 -1 0 0 0 -1 forward_v I I I I #
coedge $-1 $389 $388 $506 $507 forward $261 $-1 #
coedge $-1 $263 $273 $508 $509 forward $165 $-1 #
coedge $-1 $382 $269 $263 $377 reversed $383 $-1 #
edge $-1 $510 -32.553325390610354 $274 32.553325390610354 $376 $511 forward 7 unknown #
coedge $-1 $265 $264 $388 $512 forward $105 $-1 #
coedge $-1 $505 $506 $264 $380 reversed $372 $-1 #
edge $-1 $385 -57.13309121982482 $513 57.13309121982482 $379 $514 forward 7 unknown #
edge $-1 $390 -57.13309121982482 $384 57.13309121982482 $268 $515 forward 7 unknown #
coedge $-1 $266 $376 $505 $516 reversed $383 $-1 #
loop $-1 $-1 $269 $371 #
vertex $-1 $267 $517 #
vertex $-1 $267 $518 #
straight-curve $-1 57.13309121982482 0 10.451994845559719 0 1 0 I I #
straight-curve $-1 57.13309121982482 -32.553325390610354 0 0 0 -1 I I #
coedge $-1 $374 $271 $378 $512 reversed $261 $-1 #
coedge $-1 $271 $374 $273 $392 reversed $261 $-1 #
vertex $-1 $512 $519 #
straight-curve $-1 -57.13309121982482 -32.553325390610354 0 0 0 -1 I I #
edge $-1 $275 -32.553325390610354 $520 32.553325390610354 $389 $521 forward 7 unknown #
point $-1 57.13309121982482 -32.553325390610354 -10.451994845559719 #
point $-1 -57.13309121982482 -32.553325390610354 -10.451994845559719 #
face $-1 $-1 $412 $40 $-1 $522 forward single #
loop $-1 $-1 $523 $277 #
plane-surface $-1 -41.689833626887697 -39.044905098898276 0 -1 0 0 0 0 1 forward_v I I I I #
coedge $-1 $524 $280 $402 $525 reversed $173 $-1 #
coedge $-1 $280 $524 $526 $527 reversed $173 $-1 #
coedge $-1 $288 $287 $280 $401 reversed $278 $-1 #
edge $-1 $528 -10.451994845559719 $529 10.451994845559719 $400 $530 forward 7 unknown #
coedge $-1 $282 $281 $398 $525 forward $109 $-1 #
coedge $-1 $408 $523 $281 $404 reversed $396 $-1 #
edge $-1 $406 -6.4915797082879223 $531 6.4915797082879223 $403 $532 forward 7 unknown #
edge $-1 $529 -6.4915797082879223 $289 6.4915797082879223 $287 $533 forward 7 unknown #
vertex $-1 $404 $534 #
straight-curve $-1 0 -32.553325390610354 -10.451994845559719 1 0 0 I I #
coedge $-1 $535 $403 $284 $409 reversed $396 $-1 #
edge $-1 $413 -10.451994845559719 $406 10.451994845559719 $408 $536 forward 7 unknown #
coedge $-1 $526 $285 $288 $415 forward $412 $-1 #
coedge $-1 $285 $526 $535 $537 forward $412 $-1 #
loop $-1 $-1 $285 $395 #
vertex $-1 $286 $538 #
straight-curve $-1 0 -32.553325390610354 10.451994845559719 -1 0 0 I I #
edge $-1 $290 -6.4915797082879223 $528 6.4915797082879223 $288 $539 forward 7 unknown #
point $-1 -46.497043121790874 -32.553325390610354 -10.451994845559719 #
point $-1 -46.497043121790874 -32.553325390610354 10.451994845559719 #
plane-surface $-1 0 0 10.451994845559719 0 0 1 1 0 0 forward_v I I I I #
coedge $-1 $429 $428 $421 $540 forward $293 $-1 #
coedge $-1 $421 $295 $297 $425 reversed $181 $-1 #
coedge $-1 $295 $420 $419 $540 reversed $181 $-1 #
coedge $-1 $303 $298 $295 $423 forward $304 $-1 #
edge $-1 $426 -19.836436818693201 $541 -13.891615966758735 $422 $542 forward 7 unknown #
coedge $-1 $297 $296 $429 $543 reversed $113 $-1 #
edge $-1 $544 -2.1389731374768986e-014 $426 8.8843954784782113 $420 $545 forward 7 unknown #
vertex $-1 $299 $546 #
straight-curve $-1 -51.188270367890354 -6.9106412680332756 10.451994845559719 0 1 0 I I #
coedge $-1 $419 $300 $303 $433 reversed $293 $-1 #
coedge $-1 $300 $419 $424 $543 forward $293 $-1 #
vertex $-1 $301 $547 #
straight-curve $-1 -57.13309121982482 -19.570165974034506 40.154300567943018 0 0 1 I I #
straight-curve $-1 -57.133091219824806 -19.570165974034506 3.8496022446604456 -0.66913059716165679 0 -0.74314483375859142 I I #
edge $-1 $541 8.0723990980985967 $305 19.570165974034506 $428 $548 forward 7 unknown #
point $-1 -57.13309121982482 -19.570165974034506 10.451994845559719 #
point $-1 -51.188270367890354 -19.570165974034506 10.451994845559717 #
edge $-1 $549 1 $549 0 $308 $-1 forward 7 unknown #
vertex $-1 $309 $550 #
ellipse-curve $-1 -52.214197888576948 -16.285089723767104 5.3981775086588071 -0.74314483375859142 0 0.66913059716165679 0.66913059716165679 0 0.74314483375859142 1 I I #
point $-1 -53.49155019669594 -16.285089723767104 7.8939433788686824 #
edge $-1 $551 1 $551 0 $312 $-1 forward 7 unknown #
vertex $-1 $313 $552 #
ellipse-curve $-1 -52.214197888576948 -11.357475348366002 5.3981775086588071 -0.74314483375859142 0 0.66913059716165679 0.66913059716165679 0 0.74314483375859142 1 I I #
point $-1 -53.49155019669594 -11.357475348366002 7.8939433788686824 #
loop $-1 $-1 $324 $316 #
plane-surface $-1 57.13309121982482 0 0 -1 0 0 0 0 1 forward_v I I I I #
coedge $-1 $447 $319 $321 $451 reversed $203 $-1 #
coedge $-1 $319 $446 $553 $554 reversed $203 $-1 #
coedge $-1 $327 $322 $319 $449 forward $317 $-1 #
edge $-1 $452 9.5210982184210522 $555 15.926891197682778 $448 $556 forward 7 unknown #
coedge $-1 $321 $320 $455 $557 reversed $127 $-1 #
edge $-1 $558 -114.26618243964967 $452 -103.36799627891318 $446 $559 forward 7 unknown #
vertex $-1 $323 $560 #
straight-curve $-1 50.727298240563094 -5.4332207977523463 10.451994845559717 0 -1 0 I I #
coedge $-1 $553 $324 $327 $459 reversed $444 $-1 #
coedge $-1 $324 $553 $450 $557 forward $444 $-1 #
vertex $-1 $325 $561 #
straight-curve $-1 57.13309121982482 -7.3276519075822151 80.621218471160219 0 0 1 I I #
straight-curve $-1 -10.030884366868861 -7.3276519075822151 94.078461355626771 0.5877852410284794 0 -0.80901700255871778 I I #
edge $-1 $555 -14.40523128342717 $328 -7.3276519075822151 $454 $562 forward 7 unknown #
point $-1 57.13309121982482 -7.3276519075822151 10.451994845559719 #
point $-1 50.727298240563094 -7.3276519075822151 10.451994845559724 #
edge $-1 $563 1 $563 0 $331 $-1 forward 7 unknown #
vertex $-1 $332 $564 #
ellipse-curve $-1 53.121177727635235 -12.989715408258178 5.4558006539883097 0.80901700255871778 0 0.5877852410284794 0.2938926205142397 0 -0.40450850127935889 1 I I #
point $-1 54.224087350708196 -12.989715408258178 5.6390773937374297 #
edge $-1 $565 1 $565 0 $335 $-1 forward 7 unknown #
vertex $-1 $336 $566 #
ellipse-curve $-1 53.121177727635235 -10.866441595504693 5.4558006539883097 0.80901700255871778 0 0.5877852410284794 0.2938926205142397 0 -0.40450850127935889 1 I I #
point $-1 54.224087350708196 -10.866441595504693 5.6390773937374297 #
edge $-1 $567 1 $567 0 $339 $-1 forward 7 unknown #
vertex $-1 $340 $568 #
ellipse-curve $-1 53.121177727635235 -8.7431677827512075 5.4558006539883097 0.80901700255871778 0 0.5877852410284794 0.2938926205142397 0 -0.40450850127935889 1 I I #
point $-1 54.224087350708196 -8.7431677827512075 5.6390773937374297 #
plane-surface $-1 0 0 10.451994845559719 0 0 1 1 0 0 forward_v I I I I #
coedge $-1 $485 $484 $477 $569 forward $344 $-1 #
coedge $-1 $477 $346 $348 $481 reversed $232 $-1 #
coedge $-1 $346 $476 $475 $569 reversed $232 $-1 #
coedge $-1 $354 $349 $346 $479 forward $355 $-1 #
edge $-1 $482 9.5210982184210522 $570 15.926891197682778 $478 $571 forward 7 unknown #
coedge $-1 $348 $347 $485 $572 reversed $146 $-1 #
edge $-1 $573 -114.26618243964967 $482 -103.36799627891318 $476 $574 forward 7 unknown #
vertex $-1 $350 $575 #
straight-curve $-1 50.727298240563094 11.92480050604027 10.451994845559717 0 -1 0 I I #
coedge $-1 $475 $351 $354 $489 reversed $344 $-1 #
coedge $-1 $351 $475 $480 $572 forward $344 $-1 #
vertex $-1 $352 $576 #
straight-curve $-1 57.13309121982482 27.388390700003018 80.621218471160219 0 0 1 I I #
straight-curve $-1 -10.030884366868861 27.388390700003018 94.078461355626771 0.5877852410284794 0 -0.80901700255871778 I I #
edge $-1 $570 20.310811324158063 $356 27.388390700003018 $484 $577 forward 7 unknown #
point $-1 57.13309121982482 27.388390700003018 10.451994845559719 #
point $-1 50.727298240563094 27.388390700003018 10.451994845559724 #
edge $-1 $578 1 $578 0 $359 $-1 forward 7 unknown #
vertex $-1 $360 $579 #
ellipse-curve $-1 53.121177727635235 21.726327199327059 5.4558006539883097 0.80901700255871778 0 0.5877852410284794 0.2938926205142397 0 -0.40450850127935889 1 I I #
point $-1 54.224087350708196 21.726327199327059 5.6390773937374297 #
edge $-1 $580 1 $580 0 $363 $-1 forward 7 unknown #
vertex $-1 $364 $581 #
ellipse-curve $-1 53.121177727635235 23.849601012080541 5.4558006539883097 0.80901700255871778 0 0.5877852410284794 0.2938926205142397 0 -0.40450850127935889 1 I I #
point $-1 54.224087350708196 23.849601012080541 5.6390773937374297 #
edge $-1 $582 1 $582 0 $367 $-1 forward 7 unknown #
vertex $-1 $368 $583 #
ellipse-curve $-1 53.121177727635235 25.97287482483403 5.4558006539883097 0.80901700255871778 0 0.5877852410284794 0.2938926205142397 0 -0.40450850127935889 1 I I #
point $-1 54.224087350708196 25.97287482483403 5.6390773937374297 #
plane-surface $-1 57.13309121982482 0 0 -1 0 0 0 0 1 forward_v I I I I #
coedge $-1 $508 $379 $382 $516 forward $372 $-1 #
coedge $-1 $379 $508 $374 $507 reversed $372 $-1 #
edge $-1 $513 -10.451994845559719 $520 10.451994845559719 $506 $584 forward 7 unknown #
coedge $-1 $506 $505 $375 $509 reversed $372 $-1 #
edge $-1 $520 -57.13309121982482 $510 57.13309121982482 $508 $585 forward 7 unknown #
vertex $-1 $377 $586 #
straight-curve $-1 57.13309121982482 0 -10.451994845559719 0 -1 0 I I #
edge $-1 $513 -32.553325390610354 $390 32.553325390610354 $388 $587 forward 7 unknown #
vertex $-1 $380 $588 #
straight-curve $-1 0 32.553325390610354 10.451994845559719 -1 0 0 I I #
straight-curve $-1 0 -32.553325390610354 10.451994845559719 1 0 0 I I #
edge $-1 $385 -10.451994845559719 $510 10.451994845559719 $382 $589 forward 7 unknown #
point $-1 57.13309121982482 -32.553325390610354 10.451994845559719 #
point $-1 57.13309121982482 32.553325390610354 10.451994845559719 #
point $-1 -57.13309121982482 -32.553325390610354 10.451994845559719 #
vertex $-1 $509 $590 #
straight-curve $-1 -57.13309121982482 0 -10.451994845559719 0 1 0 I I #
plane-surface $-1 0 0 10.451994845559719 0 0 1 1 0 0 forward_v I I I I #
coedge $-1 $403 $535 $524 $591 forward $396 $-1 #
coedge $-1 $399 $398 $523 $591 reversed $173 $-1 #
edge $-1 $531 -2.4036047474515883 $529 2.4036047474515883 $398 $592 forward 7 unknown #
coedge $-1 $411 $410 $399 $527 forward $412 $-1 #
edge $-1 $528 -2.4036047474515883 $593 2.4036047474515883 $399 $594 forward 7 unknown #
vertex $-1 $415 $595 #
vertex $-1 $405 $596 #
straight-curve $-1 -46.497043121790874 -45.536484807186199 0 0 0 -1 I I #
vertex $-1 $591 $597 #
straight-curve $-1 -41.689833626887697 -39.044905098898276 -10.451994845559719 0 -1 0 I I #
straight-curve $-1 -46.497043121790874 -39.044905098898276 -10.451994845559719 0 1 0 I I #
point $-1 -41.689833626887697 -32.553325390610354 -10.451994845559719 #
coedge $-1 $523 $408 $411 $537 reversed $396 $-1 #
straight-curve $-1 -41.689833626887697 -32.553325390610354 0 0 0 -1 I I #
edge $-1 $593 -6.4915797082879223 $413 6.4915797082879223 $535 $598 forward 7 unknown #
point $-1 -41.689833626887697 -32.553325390610354 10.451994845559719 #
straight-curve $-1 -46.497043121790874 -39.044905098898276 10.451994845559719 0 -1 0 I I #
edge $-1 $541 29.702305722383301 $544 36.304698323282587 $419 $599 forward 7 unknown #
vertex $-1 $433 $600 #
straight-curve $-1 -71.024707186583555 -8.0723990980985967 10.451994845559717 -1 0 0 I I #
edge $-1 $544 1.1617578300653211 $430 12.65952470600123 $429 $601 forward 7 unknown #
vertex $-1 $543 $602 #
straight-curve $-1 -57.133091219824806 -8.0723990980985967 3.8496022446604456 0.66913059716165679 0 0.74314483375859142 I I #
point $-1 -51.188270367890354 -8.0723990980985967 10.451994845559717 #
point $-1 -57.13309121982482 -19.570165974034506 3.8496022446604297 #
straight-curve $-1 -57.13309121982482 0 10.451994845559719 0 -1 0 I I #
vertex $-1 $436 $603 #
point $-1 -51.545067291415293 -16.285089723767104 6.141322342417399 #
vertex $-1 $440 $604 #
point $-1 -51.545067291415293 -11.357475348366002 6.141322342417399 #
coedge $-1 $455 $454 $447 $554 forward $444 $-1 #
edge $-1 $555 70.169223625600495 $558 78.986041526686421 $553 $605 forward 7 unknown #
vertex $-1 $459 $606 #
straight-curve $-1 41.206200022142042 -14.40523128342717 10.451994845559724 1 0 0 I I #
edge $-1 $558 -8.972010485674824 $456 -1.8944311098298687 $455 $607 forward 7 unknown #
vertex $-1 $557 $608 #
straight-curve $-1 -10.030884366868861 -14.40523128342717 94.078461355626771 -0.5877852410284794 0 0.80901700255871778 I I #
point $-1 50.727298240563094 -14.40523128342717 10.451994845559724 #
point $-1 57.13309121982482 -7.3276519075822151 1.6351769444737982 #
straight-curve $-1 57.13309121982482 0 10.451994845559719 0 1 0 I I #
vertex $-1 $462 $609 #
point $-1 53.415070348149477 -12.989715408258178 5.0512921527089505 #
vertex $-1 $466 $610 #
point $-1 53.415070348149477 -10.866441595504693 5.0512921527089505 #
vertex $-1 $470 $611 #
point $-1 53.415070348149477 -8.7431677827512075 5.0512921527089505 #
edge $-1 $570 70.169223625600495 $573 78.986041526686421 $475 $612 forward 7 unknown #
vertex $-1 $489 $613 #
straight-curve $-1 41.206200022142042 20.310811324158063 10.451994845559724 1 0 0 I I #
edge $-1 $573 8.3860108181177928 $486 15.463590193962748 $485 $614 forward 7 unknown #
vertex $-1 $572 $615 #
straight-curve $-1 -10.030884366868861 20.310811324158063 94.078461355626771 -0.5877852410284794 0 0.80901700255871778 I I #
point $-1 50.727298240563094 20.310811324158063 10.451994845559724 #
point $-1 57.13309121982482 27.388390700003018 1.6351769444737982 #
straight-curve $-1 57.13309121982482 0 10.451994845559719 0 1 0 I I #
vertex $-1 $492 $616 #
point $-1 53.415070348149477 21.726327199327059 5.0512921527089505 #
vertex $-1 $496 $617 #
point $-1 53.415070348149477 23.849601012080541 5.0512921527089505 #
vertex $-1 $500 $618 #
point $-1 53.415070348149477 25.97287482483403 5.0512921527089505 #
straight-curve $-1 -57.13309121982482 32.553325390610354 0 0 0 -1 I I #
straight-curve $-1 0 32.553325390610354 -10.451994845559719 1 0 0 I I #
point $-1 57.13309121982482 32.553325390610354 -10.451994845559719 #
straight-curve $-1 -57.13309121982482 0 10.451994845559719 0 -1 0 I I #
point $-1 -57.13309121982482 32.553325390610354 10.451994845559719 #
straight-curve $-1 57.13309121982482 32.553325390610354 0 0 0 -1 I I #
point $-1 -57.13309121982482 32.553325390610354 -10.451994845559719 #
edge $-1 $593 -10.451994845559719 $531 10.451994845559719 $523 $619 forward 7 unknown #
straight-curve $-1 -44.093438374339286 -45.536484807186199 -10.451994845559719 -1 0 0 I I #
vertex $-1 $537 $620 #
straight-curve $-1 -44.093438374339286 -45.536484807186199 10.451994845559719 1 0 0 I I #
point $-1 -46.497043121790874 -45.536484807186199 10.451994845559719 #
point $-1 -46.497043121790874 -45.536484807186199 -10.451994845559719 #
point $-1 -41.689833626887697 -45.536484807186199 -10.451994845559719 #
straight-curve $-1 -41.689833626887697 -39.044905098898276 10.451994845559719 0 1 0 I I #
straight-curve $-1 -57.13309121982482 -8.0723990980985967 40.154300567943018 0 0 -1 I I #
point $-1 -57.13309121982482 -8.0723990980985967 10.451994845559719 #
straight-curve $-1 -57.13309121982482 -6.9106412680332756 3.8496022446604323 0 -1 0 I I #
point $-1 -57.13309121982482 -8.0723990980985967 3.8496022446604297 #
point $-1 -51.471053054818356 -16.285089723767104 4.729046911497151 #
point $-1 -51.471053054818356 -11.357475348366002 4.729046911497151 #
straight-curve $-1 57.13309121982482 -14.40523128342717 80.621218471160219 0 0 -1 I I #
point $-1 57.13309121982482 -14.40523128342717 10.451994845559719 #
straight-curve $-1 57.13309121982482 -5.4332207977523463 1.6351769444738053 0 1 0 I I #
point $-1 57.13309121982482 -14.40523128342717 1.6351769444737982 #
point $-1 52.716669226355883 -12.989715408258178 5.1619080334740692 #
point $-1 52.716669226355883 -10.866441595504693 5.1619080334740692 #
point $-1 52.716669226355883 -8.7431677827512075 5.1619080334740692 #
straight-curve $-1 57.13309121982482 20.310811324158063 80.621218471160219 0 0 -1 I I #
point $-1 57.13309121982482 20.310811324158063 10.451994845559719 #
straight-curve $-1 57.13309121982482 11.92480050604027 1.6351769444738053 0 1 0 I I #
point $-1 57.13309121982482 20.310811324158063 1.6351769444737982 #
point $-1 52.716669226355883 21.726327199327059 5.1619080334740692 #
point $-1 52.716669226355883 23.849601012080541 5.1619080334740692 #
point $-1 52.716669226355883 25.97287482483403 5.1619080334740692 #
straight-curve $-1 -41.689833626887697 -45.536484807186199 0 0 0 -1 I I #
point $-1 -41.689833626887697 -45.536484807186199 10.451994845559719 #
End-of-ACIS-data 