500 0 9 0           
7 Unknown 11 ACIS 5.0 NT 24 Thu Mar 25 23:10:21 1999 
-1 9.9999999999999995e-007 1e-010 
body $-1 $9 $-1 $10 #
body $-1 $11 $-1 $12 #
body $-1 $13 $-1 $14 #
body $-1 $15 $-1 $16 #
body $-1 $17 $-1 $18 #
body $-1 $19 $-1 $20 #
body $-1 $21 $-1 $22 #
body $-1 $23 $-1 $24 #
body $-1 $25 $-1 $26 #
lump $-1 $-1 $27 $0 #
transform $-1 1 0 0 0 1 0 0 0 1 48.513443403424176 30.314128574371448 6.4103090576439641 1 rotate no_reflect no_shear #
lump $-1 $-1 $28 $1 #
transform $-1 0.64278759981090561 0 -0.7660444514056185 0 1 0 0.7660444514056185 0 0.64278759981090561 108.98611539469707 10.394965124096824 146.12168886466134 1 rotate no_reflect no_shear #
lump $-1 $-1 $29 $2 #
transform $-1 0.64278759981090561 0 -0.7660444514056185 0 -1 0 -0.7660444514056185 0 -0.64278759981090561 94.741337315015528 10.394965124096824 10.400723458564528 1 rotate no_reflect no_shear #
lump $-1 $-1 $30 $3 #
transform $-1 0.64278759981090561 0 -0.7660444514056185 0 1 0 0.7660444514056185 0 0.64278759981090561 108.98611539469707 23.674407424279906 146.12168886466134 1 rotate no_reflect no_shear #
lump $-1 $-1 $31 $4 #
transform $-1 0.64278759981090561 0 -0.7660444514056185 0 -1 0 -0.7660444514056185 0 -0.64278759981090561 94.741337315015528 23.674407424279906 10.400723458564528 1 rotate no_reflect no_shear #
lump $-1 $-1 $32 $5 #
transform $-1 0.64278759981090561 0 -0.7660444514056185 0 1 0 0.7660444514056185 0 0.64278759981090561 108.98611539469707 36.953849724462991 146.12168886466134 1 rotate no_reflect no_shear #
lump $-1 $-1 $33 $6 #
transform $-1 0.64278759981090561 0 -0.7660444514056185 0 -1 0 -0.7660444514056185 0 -0.64278759981090561 94.741337315015528 36.953849724462991 10.400723458564528 1 rotate no_reflect no_shear #
lump $-1 $-1 $34 $7 #
transform $-1 0.64278759981090561 0 -0.7660444514056185 0 1 0 0.7660444514056185 0 0.64278759981090561 108.98611539469707 50.233292024646076 146.12168886466134 1 rotate no_reflect no_shear #
lump $-1 $-1 $35 $8 #
transform $-1 0.64278759981090561 0 -0.7660444514056185 0 -1 0 -0.7660444514056185 0 -0.64278759981090561 94.741337315015528 50.233292024646076 10.400723458564528 1 rotate no_reflect no_shear #
shell $-1 $-1 $-1 $36 $-1 $9 #
shell $-1 $-1 $-1 $37 $-1 $11 #
shell $-1 $-1 $-1 $38 $-1 $13 #
shell $-1 $-1 $-1 $39 $-1 $15 #
shell $-1 $-1 $-1 $40 $-1 $17 #
shell $-1 $-1 $-1 $41 $-1 $19 #
shell $-1 $-1 $-1 $42 $-1 $21 #
shell $-1 $-1 $-1 $43 $-1 $23 #
shell $-1 $-1 $-1 $44 $-1 $25 #
face $-1 $45 $46 $27 $-1 $47 forward single #
face $-1 $48 $49 $28 $-1 $50 forward single #
face $-1 $51 $52 $29 $-1 $53 forward single #
face $-1 $54 $55 $30 $-1 $56 forward single #
face $-1 $57 $58 $31 $-1 $59 forward single #
face $-1 $60 $61 $32 $-1 $62 forward single #
face $-1 $63 $64 $33 $-1 $65 forward single #
face $-1 $66 $67 $34 $-1 $68 forward single #
face $-1 $69 $70 $35 $-1 $71 forward single #
face $-1 $72 $73 $27 $-1 $74 reversed single #
loop $-1 $-1 $75 $36 #
plane-surface $-1 0 0 6.4103090576439641 0 0 1 1 0 0 forward_v I I I I #
face $-1 $76 $77 $28 $-1 $78 reversed single #
loop $-1 $-1 $79 $37 #
plane-surface $-1 0 0 97.026886806848353 0 0 1 1 0 0 forward_v I I I I #
face $-1 $80 $81 $29 $-1 $82 forward single #
loop $-1 $83 $84 $38 #
cone-surface $-1 0 0 -0.625 0 0 1 0.25 0 0 1 I I 0 1 0.25 forward I I I I #
face $-1 $85 $86 $30 $-1 $87 reversed single #
loop $-1 $-1 $88 $39 #
plane-surface $-1 0 0 97.026886806848353 0 0 1 1 0 0 forward_v I I I I #
face $-1 $89 $90 $31 $-1 $91 forward single #
loop $-1 $92 $93 $40 #
cone-surface $-1 0 0 -0.625 0 0 1 0.25 0 0 1 I I 0 1 0.25 forward I I I I #
face $-1 $94 $95 $32 $-1 $96 reversed single #
loop $-1 $-1 $97 $41 #
plane-surface $-1 0 0 97.026886806848353 0 0 1 1 0 0 forward_v I I I I #
face $-1 $98 $99 $33 $-1 $100 forward single #
loop $-1 $101 $102 $42 #
cone-surface $-1 0 0 -0.625 0 0 1 0.25 0 0 1 I I 0 1 0.25 forward I I I I #
face $-1 $103 $104 $34 $-1 $105 reversed single #
loop $-1 $-1 $106 $43 #
plane-surface $-1 0 0 97.026886806848353 0 0 1 1 0 0 forward_v I I I I #
face $-1 $107 $108 $35 $-1 $109 forward single #
loop $-1 $110 $111 $44 #
cone-surface $-1 0 0 -0.625 0 0 1 0.25 0 0 1 I I 0 1 0.25 forward I I I I #
face $-1 $112 $113 $27 $-1 $114 reversed single #
loop $-1 $-1 $115 $45 #
plane-surface $-1 0 0 -6.4103090576439641 0 0 1 1 0 0 forward_v I I I I #
coedge $-1 $116 $117 $118 $119 forward $46 $-1 #
face $-1 $120 $121 $28 $-1 $122 reversed single #
loop $-1 $-1 $123 $48 #
plane-surface $-1 0 0 -97.026886806848353 0 0 1 1 0 0 forward_v I I I I #
coedge $-1 $124 $125 $126 $127 forward $49 $-1 #
face $-1 $-1 $128 $29 $-1 $129 forward single #
loop $-1 $-1 $130 $51 #
plane-surface $-1 0 0 -1.125 0 0 -1 -1 0 0 forward_v I I I I #
loop $-1 $-1 $131 $38 #
coedge $-1 $84 $84 $130 $132 reversed $52 $-1 #
face $-1 $133 $134 $30 $-1 $135 reversed single #
loop $-1 $-1 $136 $54 #
plane-surface $-1 0 0 -97.026886806848353 0 0 1 1 0 0 forward_v I I I I #
coedge $-1 $137 $138 $139 $140 forward $55 $-1 #
face $-1 $-1 $141 $31 $-1 $142 forward single #
loop $-1 $-1 $143 $57 #
plane-surface $-1 0 0 -1.125 0 0 -1 -1 0 0 forward_v I I I I #
loop $-1 $-1 $144 $40 #
coedge $-1 $93 $93 $143 $145 reversed $58 $-1 #
face $-1 $146 $147 $32 $-1 $148 reversed single #
loop $-1 $-1 $149 $60 #
plane-surface $-1 0 0 -97.026886806848353 0 0 1 1 0 0 forward_v I I I I #
coedge $-1 $150 $151 $152 $153 forward $61 $-1 #
face $-1 $-1 $154 $33 $-1 $155 forward single #
loop $-1 $-1 $156 $63 #
plane-surface $-1 0 0 -1.125 0 0 -1 -1 0 0 forward_v I I I I #
loop $-1 $-1 $157 $42 #
coedge $-1 $102 $102 $156 $158 reversed $64 $-1 #
face $-1 $159 $160 $34 $-1 $161 reversed single #
loop $-1 $-1 $162 $66 #
plane-surface $-1 0 0 -97.026886806848353 0 0 1 1 0 0 forward_v I I I I #
coedge $-1 $163 $164 $165 $166 forward $67 $-1 #
face $-1 $-1 $167 $35 $-1 $168 forward single #
loop $-1 $-1 $169 $69 #
plane-surface $-1 0 0 -1.125 0 0 -1 -1 0 0 forward_v I I I I #
loop $-1 $-1 $170 $44 #
coedge $-1 $111 $111 $169 $171 reversed $70 $-1 #
face $-1 $172 $173 $27 $-1 $174 reversed single #
loop $-1 $-1 $175 $72 #
plane-surface $-1 0 -30.314128574371448 0 0 1 0 0 0 1 forward_v I I I I #
coedge $-1 $176 $177 $178 $179 forward $73 $-1 #
coedge $-1 $180 $75 $181 $182 forward $46 $-1 #
coedge $-1 $75 $180 $183 $184 forward $46 $-1 #
coedge $-1 $185 $186 $75 $119 reversed $187 $-1 #
edge $-1 $188 -30.314128574371448 $189 30.314128574371448 $118 $190 forward 7 unknown #
face $-1 $191 $192 $28 $-1 $193 reversed single #
loop $-1 $-1 $194 $76 #
plane-surface $-1 0 -4.7620991630888989 0 0 1 0 0 0 1 forward_v I I I I #
coedge $-1 $195 $196 $197 $198 forward $77 $-1 #
coedge $-1 $199 $79 $200 $201 forward $49 $-1 #
coedge $-1 $79 $199 $202 $203 forward $49 $-1 #
coedge $-1 $204 $205 $79 $127 reversed $206 $-1 #
edge $-1 $207 -4.7620991630888989 $208 4.7620991630888989 $126 $209 forward 7 unknown #
loop $-1 $210 $211 $80 #
cone-surface $-1 0 0 0 0 0 1 0.125 0 0 1 I I -0.70710678118654746 0.70710678118654746 0.125 forward I I I I #
coedge $-1 $130 $130 $84 $132 forward $81 $-1 #
coedge $-1 $131 $131 $211 $212 forward $83 $-1 #
edge $-1 $213 0 $213 6.2831853071796004 $130 $214 forward 7 unknown #
face $-1 $215 $216 $30 $-1 $217 reversed single #
loop $-1 $-1 $218 $85 #
plane-surface $-1 0 -4.7620991630888989 0 0 1 0 0 0 1 forward_v I I I I #
coedge $-1 $219 $220 $221 $222 forward $86 $-1 #
coedge $-1 $223 $88 $224 $225 forward $55 $-1 #
coedge $-1 $88 $223 $226 $227 forward $55 $-1 #
coedge $-1 $228 $229 $88 $140 reversed $230 $-1 #
edge $-1 $231 -4.7620991630888989 $232 4.7620991630888989 $139 $233 forward 7 unknown #
loop $-1 $234 $235 $89 #
cone-surface $-1 0 0 0 0 0 1 0.125 0 0 1 I I -0.70710678118654746 0.70710678118654746 0.125 forward I I I I #
coedge $-1 $143 $143 $93 $145 forward $90 $-1 #
coedge $-1 $144 $144 $235 $236 forward $92 $-1 #
edge $-1 $237 0 $237 6.2831853071796004 $143 $238 forward 7 unknown #
face $-1 $239 $240 $32 $-1 $241 reversed single #
loop $-1 $-1 $242 $94 #
plane-surface $-1 0 -4.7620991630888989 0 0 1 0 0 0 1 forward_v I I I I #
coedge $-1 $243 $244 $245 $246 forward $95 $-1 #
coedge $-1 $247 $97 $248 $249 forward $61 $-1 #
coedge $-1 $97 $247 $250 $251 forward $61 $-1 #
coedge $-1 $252 $253 $97 $153 reversed $254 $-1 #
edge $-1 $255 -4.7620991630888989 $256 4.7620991630888989 $152 $257 forward 7 unknown #
loop $-1 $258 $259 $98 #
cone-surface $-1 0 0 0 0 0 1 0.125 0 0 1 I I -0.70710678118654746 0.70710678118654746 0.125 forward I I I I #
coedge $-1 $156 $156 $102 $158 forward $99 $-1 #
coedge $-1 $157 $157 $259 $260 forward $101 $-1 #
edge $-1 $261 0 $261 6.2831853071796004 $156 $262 forward 7 unknown #
face $-1 $263 $264 $34 $-1 $265 reversed single #
loop $-1 $-1 $266 $103 #
plane-surface $-1 0 -4.7620991630888989 0 0 1 0 0 0 1 forward_v I I I I #
coedge $-1 $267 $268 $269 $270 forward $104 $-1 #
coedge $-1 $271 $106 $272 $273 forward $67 $-1 #
coedge $-1 $106 $271 $274 $275 forward $67 $-1 #
coedge $-1 $276 $277 $106 $166 reversed $278 $-1 #
edge $-1 $279 -4.7620991630888989 $280 4.7620991630888989 $165 $281 forward 7 unknown #
loop $-1 $282 $283 $107 #
cone-surface $-1 0 0 0 0 0 1 0.125 0 0 1 I I -0.70710678118654746 0.70710678118654746 0.125 forward I I I I #
coedge $-1 $169 $169 $111 $171 forward $108 $-1 #
coedge $-1 $170 $170 $283 $284 forward $110 $-1 #
edge $-1 $285 0 $285 6.2831853071796004 $169 $286 forward 7 unknown #
face $-1 $287 $288 $27 $-1 $289 reversed single #
loop $-1 $-1 $290 $112 #
plane-surface $-1 -48.513443403424176 0 0 1 0 0 0 0 -1 forward_v I I I I #
coedge $-1 $291 $183 $292 $293 forward $113 $-1 #
coedge $-1 $294 $115 $291 $295 forward $73 $-1 #
coedge $-1 $115 $294 $296 $297 forward $73 $-1 #
coedge $-1 $186 $185 $115 $179 reversed $187 $-1 #
edge $-1 $298 -30.314128574371448 $299 30.314128574371448 $178 $300 forward 7 unknown #
coedge $-1 $117 $116 $301 $302 forward $46 $-1 #
coedge $-1 $303 $304 $116 $182 reversed $288 $-1 #
edge $-1 $189 -48.513443403424176 $305 48.513443403424176 $181 $306 forward 7 unknown #
coedge $-1 $175 $307 $117 $184 reversed $113 $-1 #
edge $-1 $308 -48.513443403424176 $188 48.513443403424176 $183 $309 forward 7 unknown #
coedge $-1 $178 $118 $307 $310 forward $187 $-1 #
coedge $-1 $118 $178 $303 $311 reversed $187 $-1 #
loop $-1 $-1 $185 $287 #
vertex $-1 $119 $312 #
vertex $-1 $119 $313 #
straight-curve $-1 48.513443403424176 0 6.4103090576439641 0 1 0 I I #
face $-1 $314 $315 $28 $-1 $316 reversed single #
loop $-1 $-1 $317 $120 #
plane-surface $-1 -194.05377361369671 0 0 1 0 0 0 0 -1 forward_v I I I I #
coedge $-1 $318 $202 $319 $320 forward $121 $-1 #
coedge $-1 $321 $123 $318 $322 forward $77 $-1 #
coedge $-1 $123 $321 $323 $324 forward $77 $-1 #
coedge $-1 $205 $204 $123 $198 reversed $206 $-1 #
edge $-1 $325 -4.7620991630888989 $326 4.7620991630888989 $197 $327 forward 7 unknown #
coedge $-1 $125 $124 $328 $329 forward $49 $-1 #
coedge $-1 $330 $331 $124 $201 reversed $315 $-1 #
edge $-1 $208 -194.05377361369671 $332 194.05377361369671 $200 $333 forward 7 unknown #
coedge $-1 $194 $334 $125 $203 reversed $121 $-1 #
edge $-1 $335 -194.05377361369671 $207 194.05377361369671 $202 $336 forward 7 unknown #
coedge $-1 $197 $126 $334 $337 forward $206 $-1 #
coedge $-1 $126 $197 $330 $338 reversed $206 $-1 #
loop $-1 $-1 $204 $314 #
vertex $-1 $127 $339 #
vertex $-1 $127 $340 #
straight-curve $-1 194.05377361369671 0 97.026886806848353 0 1 0 I I #
loop $-1 $-1 $341 $80 #
coedge $-1 $211 $211 $131 $212 reversed $128 $-1 #
edge $-1 $342 0 $342 6.2831853071796004 $211 $343 forward 7 unknown #
vertex $-1 $132 $344 #
ellipse-curve $-1 0 0 -1.125 0 0 -1 0.25 0 0 1 I I #
face $-1 $345 $346 $30 $-1 $347 reversed single #
loop $-1 $-1 $348 $133 #
plane-surface $-1 -194.05377361369671 0 0 1 0 0 0 0 -1 forward_v I I I I #
coedge $-1 $349 $226 $350 $351 forward $134 $-1 #
coedge $-1 $352 $136 $349 $353 forward $86 $-1 #
coedge $-1 $136 $352 $354 $355 forward $86 $-1 #
coedge $-1 $229 $228 $136 $222 reversed $230 $-1 #
edge $-1 $356 -4.7620991630888989 $357 4.7620991630888989 $221 $358 forward 7 unknown #
coedge $-1 $138 $137 $359 $360 forward $55 $-1 #
coedge $-1 $361 $362 $137 $225 reversed $346 $-1 #
edge $-1 $232 -194.05377361369671 $363 194.05377361369671 $224 $364 forward 7 unknown #
coedge $-1 $218 $365 $138 $227 reversed $134 $-1 #
edge $-1 $366 -194.05377361369671 $231 194.05377361369671 $226 $367 forward 7 unknown #
coedge $-1 $221 $139 $365 $368 forward $230 $-1 #
coedge $-1 $139 $221 $361 $369 reversed $230 $-1 #
loop $-1 $-1 $228 $345 #
vertex $-1 $140 $370 #
vertex $-1 $140 $371 #
straight-curve $-1 194.05377361369671 0 97.026886806848353 0 1 0 I I #
loop $-1 $-1 $372 $89 #
coedge $-1 $235 $235 $144 $236 reversed $141 $-1 #
edge $-1 $373 0 $373 6.2831853071796004 $235 $374 forward 7 unknown #
vertex $-1 $145 $375 #
ellipse-curve $-1 0 0 -1.125 0 0 -1 0.25 0 0 1 I I #
face $-1 $376 $377 $32 $-1 $378 reversed single #
loop $-1 $-1 $379 $146 #
plane-surface $-1 -194.05377361369671 0 0 1 0 0 0 0 -1 forward_v I I I I #
coedge $-1 $380 $250 $381 $382 forward $147 $-1 #
coedge $-1 $383 $149 $380 $384 forward $95 $-1 #
coedge $-1 $149 $383 $385 $386 forward $95 $-1 #
coedge $-1 $253 $252 $149 $246 reversed $254 $-1 #
edge $-1 $387 -4.7620991630888989 $388 4.7620991630888989 $245 $389 forward 7 unknown #
coedge $-1 $151 $150 $390 $391 forward $61 $-1 #
coedge $-1 $392 $393 $150 $249 reversed $377 $-1 #
edge $-1 $256 -194.05377361369671 $394 194.05377361369671 $248 $395 forward 7 unknown #
coedge $-1 $242 $396 $151 $251 reversed $147 $-1 #
edge $-1 $397 -194.05377361369671 $255 194.05377361369671 $250 $398 forward 7 unknown #
coedge $-1 $245 $152 $396 $399 forward $254 $-1 #
coedge $-1 $152 $245 $392 $400 reversed $254 $-1 #
loop $-1 $-1 $252 $376 #
vertex $-1 $153 $401 #
vertex $-1 $153 $402 #
straight-curve $-1 194.05377361369671 0 97.026886806848353 0 1 0 I I #
loop $-1 $-1 $403 $98 #
coedge $-1 $259 $259 $157 $260 reversed $154 $-1 #
edge $-1 $404 0 $404 6.2831853071796004 $259 $405 forward 7 unknown #
vertex $-1 $158 $406 #
ellipse-curve $-1 0 0 -1.125 0 0 -1 0.25 0 0 1 I I #
face $-1 $407 $408 $34 $-1 $409 reversed single #
loop $-1 $-1 $410 $159 #
plane-surface $-1 -194.05377361369671 0 0 1 0 0 0 0 -1 forward_v I I I I #
coedge $-1 $411 $274 $412 $413 forward $160 $-1 #
coedge $-1 $414 $162 $411 $415 forward $104 $-1 #
coedge $-1 $162 $414 $416 $417 forward $104 $-1 #
coedge $-1 $277 $276 $162 $270 reversed $278 $-1 #
edge $-1 $418 -4.7620991630888989 $419 4.7620991630888989 $269 $420 forward 7 unknown #
coedge $-1 $164 $163 $421 $422 forward $67 $-1 #
coedge $-1 $423 $424 $163 $273 reversed $408 $-1 #
edge $-1 $280 -194.05377361369671 $425 194.05377361369671 $272 $426 forward 7 unknown #
coedge $-1 $266 $427 $164 $275 reversed $160 $-1 #
edge $-1 $428 -194.05377361369671 $279 194.05377361369671 $274 $429 forward 7 unknown #
coedge $-1 $269 $165 $427 $430 forward $278 $-1 #
coedge $-1 $165 $269 $423 $431 reversed $278 $-1 #
loop $-1 $-1 $276 $407 #
vertex $-1 $166 $432 #
vertex $-1 $166 $433 #
straight-curve $-1 194.05377361369671 0 97.026886806848353 0 1 0 I I #
loop $-1 $-1 $434 $107 #
coedge $-1 $283 $283 $170 $284 reversed $167 $-1 #
edge $-1 $435 0 $435 6.2831853071796004 $283 $436 forward 7 unknown #
vertex $-1 $171 $437 #
ellipse-curve $-1 0 0 -1.125 0 0 -1 0.25 0 0 1 I I #
face $-1 $-1 $187 $27 $-1 $438 reversed single #
loop $-1 $-1 $303 $172 #
plane-surface $-1 0 30.314128574371448 0 0 -1 0 0 0 -1 forward_v I I I I #
coedge $-1 $439 $301 $304 $440 forward $173 $-1 #
coedge $-1 $307 $175 $176 $295 reversed $113 $-1 #
coedge $-1 $301 $439 $175 $293 reversed $173 $-1 #
edge $-1 $308 -6.4103090576439641 $441 6.4103090576439641 $292 $442 forward 7 unknown #
coedge $-1 $177 $176 $439 $443 forward $73 $-1 #
edge $-1 $299 -48.513443403424176 $441 48.513443403424176 $291 $444 forward 7 unknown #
coedge $-1 $304 $303 $177 $297 reversed $288 $-1 #
edge $-1 $445 -48.513443403424176 $298 48.513443403424176 $296 $446 forward 7 unknown #
vertex $-1 $179 $447 #
vertex $-1 $310 $448 #
straight-curve $-1 48.513443403424176 0 -6.4103090576439641 0 -1 0 I I #
coedge $-1 $290 $292 $180 $302 reversed $173 $-1 #
edge $-1 $305 -30.314128574371448 $308 30.314128574371448 $301 $449 forward 7 unknown #
coedge $-1 $296 $181 $186 $311 forward $288 $-1 #
coedge $-1 $181 $296 $290 $440 reversed $288 $-1 #
vertex $-1 $182 $450 #
straight-curve $-1 0 30.314128574371448 6.4103090576439641 -1 0 0 I I #
coedge $-1 $183 $291 $185 $310 reversed $113 $-1 #
vertex $-1 $302 $451 #
straight-curve $-1 0 -30.314128574371448 6.4103090576439641 1 0 0 I I #
edge $-1 $188 -6.4103090576439641 $299 6.4103090576439641 $185 $452 forward 7 unknown #
edge $-1 $189 -6.4103090576439641 $298 6.4103090576439641 $186 $453 forward 7 unknown #
point $-1 48.513443403424176 -30.314128574371448 6.4103090576439641 #
point $-1 48.513443403424176 30.314128574371448 6.4103090576439641 #
face $-1 $-1 $206 $28 $-1 $454 reversed single #
loop $-1 $-1 $330 $191 #
plane-surface $-1 0 4.7620991630888989 0 0 -1 0 0 0 -1 forward_v I I I I #
coedge $-1 $455 $328 $331 $456 forward $192 $-1 #
coedge $-1 $334 $194 $195 $322 reversed $121 $-1 #
coedge $-1 $328 $455 $194 $320 reversed $192 $-1 #
edge $-1 $335 -97.026886806848353 $457 97.026886806848353 $319 $458 forward 7 unknown #
coedge $-1 $196 $195 $455 $459 forward $77 $-1 #
edge $-1 $326 -194.05377361369671 $457 194.05377361369671 $318 $460 forward 7 unknown #
coedge $-1 $331 $330 $196 $324 reversed $315 $-1 #
edge $-1 $461 -194.05377361369671 $325 194.05377361369671 $323 $462 forward 7 unknown #
vertex $-1 $198 $463 #
vertex $-1 $337 $464 #
straight-curve $-1 194.05377361369671 0 -97.026886806848353 0 -1 0 I I #
coedge $-1 $317 $319 $199 $329 reversed $192 $-1 #
edge $-1 $332 -4.7620991630888989 $335 4.7620991630888989 $328 $465 forward 7 unknown #
coedge $-1 $323 $200 $205 $338 forward $315 $-1 #
coedge $-1 $200 $323 $317 $456 reversed $315 $-1 #
vertex $-1 $201 $466 #
straight-curve $-1 0 4.7620991630888989 97.026886806848353 -1 0 0 I I #
coedge $-1 $202 $318 $204 $337 reversed $121 $-1 #
vertex $-1 $329 $467 #
straight-curve $-1 0 -4.7620991630888989 97.026886806848353 1 0 0 I I #
edge $-1 $207 -97.026886806848353 $326 97.026886806848353 $204 $468 forward 7 unknown #
edge $-1 $208 -97.026886806848353 $325 97.026886806848353 $205 $469 forward 7 unknown #
point $-1 194.05377361369671 -4.7620991630888989 97.026886806848353 #
point $-1 194.05377361369671 4.7620991630888989 97.026886806848353 #
coedge $-1 $341 $341 $-1 $470 reversed $210 $-1 #
vertex $-1 $212 $471 #
ellipse-curve $-1 0 0 -0.125 0 0 -1 0.25 0 0 1 I I #
point $-1 0.25 0 -1.125 #
face $-1 $-1 $230 $30 $-1 $472 reversed single #
loop $-1 $-1 $361 $215 #
plane-surface $-1 0 4.7620991630888989 0 0 -1 0 0 0 -1 forward_v I I I I #
coedge $-1 $473 $359 $362 $474 forward $216 $-1 #
coedge $-1 $365 $218 $219 $353 reversed $134 $-1 #
coedge $-1 $359 $473 $218 $351 reversed $216 $-1 #
edge $-1 $366 -97.026886806848353 $475 97.026886806848353 $350 $476 forward 7 unknown #
coedge $-1 $220 $219 $473 $477 forward $86 $-1 #
edge $-1 $357 -194.05377361369671 $475 194.05377361369671 $349 $478 forward 7 unknown #
coedge $-1 $362 $361 $220 $355 reversed $346 $-1 #
edge $-1 $479 -194.05377361369671 $356 194.05377361369671 $354 $480 forward 7 unknown #
vertex $-1 $222 $481 #
vertex $-1 $368 $482 #
straight-curve $-1 194.05377361369671 0 -97.026886806848353 0 -1 0 I I #
coedge $-1 $348 $350 $223 $360 reversed $216 $-1 #
edge $-1 $363 -4.7620991630888989 $366 4.7620991630888989 $359 $483 forward 7 unknown #
coedge $-1 $354 $224 $229 $369 forward $346 $-1 #
coedge $-1 $224 $354 $348 $474 reversed $346 $-1 #
vertex $-1 $225 $484 #
straight-curve $-1 0 4.7620991630888989 97.026886806848353 -1 0 0 I I #
coedge $-1 $226 $349 $228 $368 reversed $134 $-1 #
vertex $-1 $360 $485 #
straight-curve $-1 0 -4.7620991630888989 97.026886806848353 1 0 0 I I #
edge $-1 $231 -97.026886806848353 $357 97.026886806848353 $228 $486 forward 7 unknown #
edge $-1 $232 -97.026886806848353 $356 97.026886806848353 $229 $487 forward 7 unknown #
point $-1 194.05377361369671 -4.7620991630888989 97.026886806848353 #
point $-1 194.05377361369671 4.7620991630888989 97.026886806848353 #
coedge $-1 $372 $372 $-1 $488 reversed $234 $-1 #
vertex $-1 $236 $489 #
ellipse-curve $-1 0 0 -0.125 0 0 -1 0.25 0 0 1 I I #
point $-1 0.25 0 -1.125 #
face $-1 $-1 $254 $32 $-1 $490 reversed single #
loop $-1 $-1 $392 $239 #
plane-surface $-1 0 4.7620991630888989 0 0 -1 0 0 0 -1 forward_v I I I I #
coedge $-1 $491 $390 $393 $492 forward $240 $-1 #
coedge $-1 $396 $242 $243 $384 reversed $147 $-1 #
coedge $-1 $390 $491 $242 $382 reversed $240 $-1 #
edge $-1 $397 -97.026886806848353 $493 97.026886806848353 $381 $494 forward 7 unknown #
coedge $-1 $244 $243 $491 $495 forward $95 $-1 #
edge $-1 $388 -194.05377361369671 $493 194.05377361369671 $380 $496 forward 7 unknown #
coedge $-1 $393 $392 $244 $386 reversed $377 $-1 #
edge $-1 $497 -194.05377361369671 $387 194.05377361369671 $385 $498 forward 7 unknown #
vertex $-1 $246 $499 #
vertex $-1 $399 $500 #
straight-curve $-1 194.05377361369671 0 -97.026886806848353 0 -1 0 I I #
coedge $-1 $379 $381 $247 $391 reversed $240 $-1 #
edge $-1 $394 -4.7620991630888989 $397 4.7620991630888989 $390 $501 forward 7 unknown #
coedge $-1 $385 $248 $253 $400 forward $377 $-1 #
coedge $-1 $248 $385 $379 $492 reversed $377 $-1 #
vertex $-1 $249 $502 #
straight-curve $-1 0 4.7620991630888989 97.026886806848353 -1 0 0 I I #
coedge $-1 $250 $380 $252 $399 reversed $147 $-1 #
vertex $-1 $391 $503 #
straight-curve $-1 0 -4.7620991630888989 97.026886806848353 1 0 0 I I #
edge $-1 $255 -97.026886806848353 $388 97.026886806848353 $252 $504 forward 7 unknown #
edge $-1 $256 -97.026886806848353 $387 97.026886806848353 $253 $505 forward 7 unknown #
point $-1 194.05377361369671 -4.7620991630888989 97.026886806848353 #
point $-1 194.05377361369671 4.7620991630888989 97.026886806848353 #
coedge $-1 $403 $403 $-1 $506 reversed $258 $-1 #
vertex $-1 $260 $507 #
ellipse-curve $-1 0 0 -0.125 0 0 -1 0.25 0 0 1 I I #
point $-1 0.25 0 -1.125 #
face $-1 $-1 $278 $34 $-1 $508 reversed single #
loop $-1 $-1 $423 $263 #
plane-surface $-1 0 4.7620991630888989 0 0 -1 0 0 0 -1 forward_v I I I I #
coedge $-1 $509 $421 $424 $510 forward $264 $-1 #
coedge $-1 $427 $266 $267 $415 reversed $160 $-1 #
coedge $-1 $421 $509 $266 $413 reversed $264 $-1 #
edge $-1 $428 -97.026886806848353 $511 97.026886806848353 $412 $512 forward 7 unknown #
coedge $-1 $268 $267 $509 $513 forward $104 $-1 #
edge $-1 $419 -194.05377361369671 $511 194.05377361369671 $411 $514 forward 7 unknown #
coedge $-1 $424 $423 $268 $417 reversed $408 $-1 #
edge $-1 $515 -194.05377361369671 $418 194.05377361369671 $416 $516 forward 7 unknown #
vertex $-1 $270 $517 #
vertex $-1 $430 $518 #
straight-curve $-1 194.05377361369671 0 -97.026886806848353 0 -1 0 I I #
coedge $-1 $410 $412 $271 $422 reversed $264 $-1 #
edge $-1 $425 -4.7620991630888989 $428 4.7620991630888989 $421 $519 forward 7 unknown #
coedge $-1 $416 $272 $277 $431 forward $408 $-1 #
coedge $-1 $272 $416 $410 $510 reversed $408 $-1 #
vertex $-1 $273 $520 #
straight-curve $-1 0 4.7620991630888989 97.026886806848353 -1 0 0 I I #
coedge $-1 $274 $411 $276 $430 reversed $160 $-1 #
vertex $-1 $422 $521 #
straight-curve $-1 0 -4.7620991630888989 97.026886806848353 1 0 0 I I #
edge $-1 $279 -97.026886806848353 $419 97.026886806848353 $276 $522 forward 7 unknown #
edge $-1 $280 -97.026886806848353 $418 97.026886806848353 $277 $523 forward 7 unknown #
point $-1 194.05377361369671 -4.7620991630888989 97.026886806848353 #
point $-1 194.05377361369671 4.7620991630888989 97.026886806848353 #
coedge $-1 $434 $434 $-1 $524 reversed $282 $-1 #
vertex $-1 $284 $525 #
ellipse-curve $-1 0 0 -0.125 0 0 -1 0.25 0 0 1 I I #
point $-1 0.25 0 -1.125 #
plane-surface $-1 48.513443403424176 0 0 -1 0 0 0 0 1 forward_v I I I I #
coedge $-1 $292 $290 $294 $443 reversed $173 $-1 #
edge $-1 $305 -6.4103090576439641 $445 6.4103090576439641 $304 $526 forward 7 unknown #
vertex $-1 $443 $527 #
straight-curve $-1 -48.513443403424176 -30.314128574371448 0 0 0 -1 I I #
edge $-1 $441 -30.314128574371448 $445 30.314128574371448 $439 $528 forward 7 unknown #
straight-curve $-1 0 -30.314128574371448 -6.4103090576439641 -1 0 0 I I #
vertex $-1 $297 $529 #
straight-curve $-1 0 30.314128574371448 -6.4103090576439641 1 0 0 I I #
point $-1 48.513443403424176 30.314128574371448 -6.4103090576439641 #
point $-1 48.513443403424176 -30.314128574371448 -6.4103090576439641 #
straight-curve $-1 -48.513443403424176 0 6.4103090576439641 0 -1 0 I I #
point $-1 -48.513443403424176 30.314128574371448 6.4103090576439641 #
point $-1 -48.513443403424176 -30.314128574371448 6.4103090576439641 #
straight-curve $-1 48.513443403424176 -30.314128574371448 0 0 0 -1 I I #
straight-curve $-1 48.513443403424176 30.314128574371448 0 0 0 -1 I I #
plane-surface $-1 194.05377361369671 0 0 -1 0 0 0 0 1 forward_v I I I I #
coedge $-1 $319 $317 $321 $459 reversed $192 $-1 #
edge $-1 $332 -97.026886806848353 $461 97.026886806848353 $331 $530 forward 7 unknown #
vertex $-1 $459 $531 #
straight-curve $-1 -194.05377361369671 -4.7620991630888989 0 0 0 -1 I I #
edge $-1 $457 -4.7620991630888989 $461 4.7620991630888989 $455 $532 forward 7 unknown #
straight-curve $-1 0 -4.7620991630888989 -97.026886806848353 -1 0 0 I I #
vertex $-1 $324 $533 #
straight-curve $-1 0 4.7620991630888989 -97.026886806848353 1 0 0 I I #
point $-1 194.05377361369671 4.7620991630888989 -97.026886806848353 #
point $-1 194.05377361369671 -4.7620991630888989 -97.026886806848353 #
straight-curve $-1 -194.05377361369671 0 97.026886806848353 0 -1 0 I I #
point $-1 -194.05377361369671 4.7620991630888989 97.026886806848353 #
point $-1 -194.05377361369671 -4.7620991630888989 97.026886806848353 #
straight-curve $-1 194.05377361369671 -4.7620991630888989 0 0 0 -1 I I #
straight-curve $-1 194.05377361369671 4.7620991630888989 0 0 0 -1 I I #
edge $-1 $534 1 $534 0 $341 $-1 forward 7 unknown #
point $-1 0.25 0 -0.125 #
plane-surface $-1 194.05377361369671 0 0 -1 0 0 0 0 1 forward_v I I I I #
coedge $-1 $350 $348 $352 $477 reversed $216 $-1 #
edge $-1 $363 -97.026886806848353 $479 97.026886806848353 $362 $535 forward 7 unknown #
vertex $-1 $477 $536 #
straight-curve $-1 -194.05377361369671 -4.7620991630888989 0 0 0 -1 I I #
edge $-1 $475 -4.7620991630888989 $479 4.7620991630888989 $473 $537 forward 7 unknown #
straight-curve $-1 0 -4.7620991630888989 -97.026886806848353 -1 0 0 I I #
vertex $-1 $355 $538 #
straight-curve $-1 0 4.7620991630888989 -97.026886806848353 1 0 0 I I #
point $-1 194.05377361369671 4.7620991630888989 -97.026886806848353 #
point $-1 194.05377361369671 -4.7620991630888989 -97.026886806848353 #
straight-curve $-1 -194.05377361369671 0 97.026886806848353 0 -1 0 I I #
point $-1 -194.05377361369671 4.7620991630888989 97.026886806848353 #
point $-1 -194.05377361369671 -4.7620991630888989 97.026886806848353 #
straight-curve $-1 194.05377361369671 -4.7620991630888989 0 0 0 -1 I I #
straight-curve $-1 194.05377361369671 4.7620991630888989 0 0 0 -1 I I #
edge $-1 $539 1 $539 0 $372 $-1 forward 7 unknown #
point $-1 0.25 0 -0.125 #
plane-surface $-1 194.05377361369671 0 0 -1 0 0 0 0 1 forward_v I I I I #
coedge $-1 $381 $379 $383 $495 reversed $240 $-1 #
edge $-1 $394 -97.026886806848353 $497 97.026886806848353 $393 $540 forward 7 unknown #
vertex $-1 $495 $541 #
straight-curve $-1 -194.05377361369671 -4.7620991630888989 0 0 0 -1 I I #
edge $-1 $493 -4.7620991630888989 $497 4.7620991630888989 $491 $542 forward 7 unknown #
straight-curve $-1 0 -4.7620991630888989 -97.026886806848353 -1 0 0 I I #
vertex $-1 $386 $543 #
straight-curve $-1 0 4.7620991630888989 -97.026886806848353 1 0 0 I I #
point $-1 194.05377361369671 4.7620991630888989 -97.026886806848353 #
point $-1 194.05377361369671 -4.7620991630888989 -97.026886806848353 #
straight-curve $-1 -194.05377361369671 0 97.026886806848353 0 -1 0 I I #
point $-1 -194.05377361369671 4.7620991630888989 97.026886806848353 #
point $-1 -194.05377361369671 -4.7620991630888989 97.026886806848353 #
straight-curve $-1 194.05377361369671 -4.7620991630888989 0 0 0 -1 I I #
straight-curve $-1 194.05377361369671 4.7620991630888989 0 0 0 -1 I I #
edge $-1 $544 1 $544 0 $403 $-1 forward 7 unknown #
point $-1 0.25 0 -0.125 #
plane-surface $-1 194.05377361369671 0 0 -1 0 0 0 0 1 forward_v I I I I #
coedge $-1 $412 $410 $414 $513 reversed $264 $-1 #
edge $-1 $425 -97.026886806848353 $515 97.026886806848353 $424 $545 forward 7 unknown #
vertex $-1 $513 $546 #
straight-curve $-1 -194.05377361369671 -4.7620991630888989 0 0 0 -1 I I #
edge $-1 $511 -4.7620991630888989 $515 4.7620991630888989 $509 $547 forward 7 unknown #
straight-curve $-1 0 -4.7620991630888989 -97.026886806848353 -1 0 0 I I #
vertex $-1 $417 $548 #
straight-curve $-1 0 4.7620991630888989 -97.026886806848353 1 0 0 I I #
point $-1 194.05377361369671 4.7620991630888989 -97.026886806848353 #
point $-1 194.05377361369671 -4.7620991630888989 -97.026886806848353 #
straight-curve $-1 -194.05377361369671 0 97.026886806848353 0 -1 0 I I #
point $-1 -194.05377361369671 4.7620991630888989 97.026886806848353 #
point $-1 -194.05377361369671 -4.7620991630888989 97.026886806848353 #
straight-curve $-1 194.05377361369671 -4.7620991630888989 0 0 0 -1 I I #
straight-curve $-1 194.05377361369671 4.7620991630888989 0 0 0 -1 I I #
edge $-1 $549 1 $549 0 $434 $-1 forward 7 unknown #
point $-1 0.25 0 -0.125 #
straight-curve $-1 -48.513443403424176 30.314128574371448 0 0 0 -1 I I #
point $-1 -48.513443403424176 -30.314128574371448 -6.4103090576439641 #
straight-curve $-1 -48.513443403424176 0 -6.4103090576439641 0 1 0 I I #
point $-1 -48.513443403424176 30.314128574371448 -6.4103090576439641 #
straight-curve $-1 -194.05377361369671 4.7620991630888989 0 0 0 -1 I I #
point $-1 -194.05377361369671 -4.7620991630888989 -97.026886806848353 #
straight-curve $-1 -194.05377361369671 0 -97.026886806848353 0 1 0 I I #
point $-1 -194.05377361369671 4.7620991630888989 -97.026886806848353 #
vertex $-1 $470 $550 #
straight-curve $-1 -194.05377361369671 4.7620991630888989 0 0 0 -1 I I #
point $-1 -194.05377361369671 -4.7620991630888989 -97.026886806848353 #
straight-curve $-1 -194.05377361369671 0 -97.026886806848353 0 1 0 I I #
point $-1 -194.05377361369671 4.7620991630888989 -97.026886806848353 #
vertex $-1 $488 $551 #
straight-curve $-1 -194.05377361369671 4.7620991630888989 0 0 0 -1 I I #
point $-1 -194.05377361369671 -4.7620991630888989 -97.026886806848353 #
straight-curve $-1 -194.05377361369671 0 -97.026886806848353 0 1 0 I I #
point $-1 -194.05377361369671 4.7620991630888989 -97.026886806848353 #
vertex $-1 $506 $552 #
straight-curve $-1 -194.05377361369671 4.7620991630888989 0 0 0 -1 I I #
point $-1 -194.05377361369671 -4.7620991630888989 -97.026886806848353 #
straight-curve $-1 -194.05377361369671 0 -97.026886806848353 0 1 0 I I #
point $-1 -194.05377361369671 4.7620991630888989 -97.026886806848353 #
vertex $-1 $524 $553 #
point $-1 0 0 0.125 #
point $-1 0 0 0.125 #
point $-1 0 0 0.125 #
point $-1 0 0 0.125 #
End-of-ACIS-data 