500 0 8 0           
7 Unknown 11 ACIS 5.0 NT 24 Thu Mar 25 23:44:41 1999 
-1 9.9999999999999995e-007 1e-010 
body $-1 $8 $-1 $9 #
body $-1 $10 $-1 $11 #
body $-1 $12 $-1 $13 #
body $-1 $14 $-1 $15 #
body $-1 $16 $-1 $17 #
body $-1 $18 $-1 $19 #
body $-1 $20 $-1 $21 #
body $-1 $22 $-1 $23 #
lump $-1 $-1 $24 $0 #
transform $-1 1 0 0 0 1 0 0 0 1 41.018097476119266 23.161761844588895 7.8011460385581959 1 rotate no_reflect no_shear #
lump $-1 $-1 $25 $1 #
transform $-1 1 0 0 0 1 0 0 0 1 41.018097476119266 23.161761844588895 7.8011460385581959 1 rotate no_reflect no_shear #
lump $-1 $-1 $26 $2 #
transform $-1 1 0 0 0 1 0 0 0 1 41.018097476119266 23.161761844588895 7.8011460385581959 1 rotate no_reflect no_shear #
lump $-1 $-1 $27 $3 #
transform $-1 1 0 0 0 1 0 0 0 1 41.018097476119266 23.161761844588895 7.8011460385581959 1 rotate no_reflect no_shear #
lump $-1 $-1 $28 $4 #
transform $-1 1 0 0 0 1 0 0 0 1 41.018097476119266 23.161761844588895 7.8011460385581959 1 rotate no_reflect no_shear #
lump $-1 $-1 $29 $5 #
transform $-1 1 0 0 0 1 0 0 0 1 41.018097476119266 23.161761844588895 7.8011460385581959 1 rotate no_reflect no_shear #
lump $-1 $-1 $30 $6 #
transform $-1 1 0 0 0 1 0 0 0 1 41.018097476119266 23.161761844588895 7.8011460385581959 1 rotate no_reflect no_shear #
lump $-1 $-1 $31 $7 #
transform $-1 1 0 0 0 1 0 0 0 1 41.018097476119266 23.161761844588895 7.8011460385581959 1 rotate no_reflect no_shear #
shell $-1 $-1 $-1 $32 $-1 $8 #
shell $-1 $-1 $-1 $33 $-1 $10 #
shell $-1 $-1 $-1 $34 $-1 $12 #
shell $-1 $-1 $-1 $35 $-1 $14 #
shell $-1 $-1 $-1 $36 $-1 $16 #
shell $-1 $-1 $-1 $37 $-1 $18 #
shell $-1 $-1 $-1 $38 $-1 $20 #
shell $-1 $-1 $-1 $39 $-1 $22 #
face $-1 $40 $41 $24 $-1 $42 forward single #
face $-1 $43 $44 $25 $-1 $45 forward single #
face $-1 $46 $47 $26 $-1 $48 reversed single #
face $-1 $49 $50 $27 $-1 $51 forward single #
face $-1 $52 $53 $28 $-1 $54 forward single #
face $-1 $55 $56 $29 $-1 $57 reversed single #
face $-1 $58 $59 $30 $-1 $60 forward single #
face $-1 $61 $62 $31 $-1 $63 forward single #
face $-1 $64 $65 $24 $-1 $66 reversed single #
loop $-1 $-1 $67 $32 #
plane-surface $-1 0 0 7.8011460385581959 0 0 1 1 0 0 forward_v I I I I #
face $-1 $68 $69 $25 $-1 $70 forward single #
loop $-1 $-1 $71 $33 #
plane-surface $-1 0 -23.161761844588895 0 0 1 0 0 0 1 forward_v I I I I #
face $-1 $72 $73 $26 $-1 $74 reversed single #
loop $-1 $-1 $75 $34 #
plane-surface $-1 -109.02918606333844 2.3099817645702601 49.236046132980498 0 1 0 -0.82903758062907751 0 0.55919289150049634 forward_v I I I I #
face $-1 $76 $77 $27 $-1 $78 forward single #
loop $-1 $79 $80 $35 #
cone-surface $-1 -38.15288508135373 4.8677177438583072 4.6587806764249571 0.82903758062907751 0 -0.55919289150049634 0.55919289150049634 0 0.82903758062907751 1 I I 0 1 1 forward I I I I #
face $-1 $81 $82 $28 $-1 $83 forward single #
loop $-1 $84 $85 $36 #
cone-surface $-1 -38.15288508135373 8.7043217127903816 4.6587806764249571 0.82903758062907751 0 -0.55919289150049634 0.55919289150049634 0 0.82903758062907751 1 I I 0 1 1 forward I I I I #
face $-1 $86 $87 $29 $-1 $88 reversed single #
loop $-1 $-1 $89 $37 #
plane-surface $-1 63.155129000297762 11.262057692078429 117.24713472019967 0 -1 0 -0.82903758062907751 0 -0.55919289150049634 forward_v I I I I #
face $-1 $90 $91 $30 $-1 $92 forward single #
loop $-1 $93 $94 $38 #
cone-surface $-1 38.152885081353745 4.8677177438583072 4.6587806764249677 -0.82903758062907751 0 -0.55919289150049634 0.55919289150049634 0 -0.82903758062907751 1 I I 0 1 1 forward I I I I #
face $-1 $95 $96 $31 $-1 $97 forward single #
loop $-1 $98 $99 $39 #
cone-surface $-1 38.152885081353745 8.7043217127903816 4.6587806764249677 -0.82903758062907751 0 -0.55919289150049634 0.55919289150049634 0 -0.82903758062907751 1 I I 0 1 1 forward I I I I #
face $-1 $100 $101 $24 $-1 $102 reversed single #
loop $-1 $-1 $103 $40 #
plane-surface $-1 0 0 -7.8011460385581959 0 0 1 1 0 0 forward_v I I I I #
coedge $-1 $104 $105 $106 $107 forward $41 $-1 #
face $-1 $108 $109 $25 $-1 $110 reversed single #
loop $-1 $-1 $111 $43 #
plane-surface $-1 0 0 7.8011460385581959 0 0 1 1 0 0 forward_v I I I I #
coedge $-1 $112 $113 $114 $115 forward $44 $-1 #
face $-1 $116 $117 $26 $-1 $118 reversed single #
loop $-1 $-1 $119 $46 #
plane-surface $-1 -41.018097476119266 6.7860197283243444 3.3619890699398098 -0.82903758062907751 0 0.55919289150049634 0.55919289150049634 0 0.82903758062907751 forward_v I I I I #
coedge $-1 $120 $121 $122 $123 reversed $47 $-1 #
face $-1 $-1 $124 $27 $-1 $125 forward single #
loop $-1 $126 $127 $49 #
cone-surface $-1 -36.370278441111957 4.8677177438583072 3.4563973528506597 0.82903758062907751 0 -0.55919289150049634 0.27959644575024817 0 0.41451879031453875 1 I I -0.70710678118654746 0.70710678118654746 0.5 forward I I I I #
loop $-1 $-1 $128 $35 #
coedge $-1 $80 $80 $129 $130 reversed $50 $-1 #
face $-1 $-1 $131 $28 $-1 $132 forward single #
loop $-1 $133 $134 $52 #
cone-surface $-1 -36.370278441111957 8.7043217127903816 3.4563973528506597 0.82903758062907751 0 -0.55919289150049634 0.27959644575024817 0 0.41451879031453875 1 I I -0.70710678118654746 0.70710678118654746 0.5 forward I I I I #
loop $-1 $-1 $135 $36 #
coedge $-1 $85 $85 $136 $137 reversed $53 $-1 #
face $-1 $138 $139 $29 $-1 $140 reversed single #
loop $-1 $-1 $141 $55 #
plane-surface $-1 -4.8559595869214149 6.7860197283243444 71.373077657158973 0.82903758062907751 0 0.55919289150049634 0.55919289150049634 0 -0.82903758062907751 forward_v I I I I #
coedge $-1 $142 $143 $144 $145 reversed $56 $-1 #
face $-1 $-1 $146 $30 $-1 $147 forward single #
loop $-1 $148 $149 $58 #
cone-surface $-1 36.370278441111964 4.8677177438583072 3.4563973528506704 -0.82903758062907751 0 -0.55919289150049634 0.27959644575024817 0 -0.41451879031453875 1 I I -0.70710678118654746 0.70710678118654746 0.5 forward I I I I #
loop $-1 $-1 $150 $38 #
coedge $-1 $94 $94 $151 $152 reversed $59 $-1 #
face $-1 $-1 $153 $31 $-1 $154 forward single #
loop $-1 $155 $156 $61 #
cone-surface $-1 36.370278441111964 8.7043217127903816 3.4563973528506704 -0.82903758062907751 0 -0.55919289150049634 0.27959644575024817 0 -0.41451879031453875 1 I I -0.70710678118654746 0.70710678118654746 0.5 forward I I I I #
loop $-1 $-1 $157 $39 #
coedge $-1 $99 $99 $158 $159 reversed $62 $-1 #
face $-1 $160 $161 $24 $-1 $162 reversed single #
loop $-1 $-1 $163 $64 #
plane-surface $-1 0 -23.161761844588895 0 0 1 0 0 0 1 forward_v I I I I #
coedge $-1 $164 $165 $166 $167 forward $65 $-1 #
coedge $-1 $168 $67 $169 $170 forward $41 $-1 #
coedge $-1 $67 $168 $171 $172 forward $41 $-1 #
coedge $-1 $173 $174 $67 $107 reversed $175 $-1 #
edge $-1 $176 -23.161761844588895 $177 23.161761844588895 $106 $178 forward 7 unknown #
face $-1 $179 $180 $25 $-1 $181 reversed single #
loop $-1 $-1 $182 $68 #
plane-surface $-1 -41.018097476119266 0 0 1 0 0 0 0 -1 forward_v I I I I #
coedge $-1 $183 $184 $185 $186 forward $69 $-1 #
coedge $-1 $185 $71 $182 $187 reversed $44 $-1 #
coedge $-1 $71 $185 $188 $189 reversed $44 $-1 #
coedge $-1 $190 $191 $71 $115 reversed $180 $-1 #
edge $-1 $192 -41.018097476119266 $193 41.018097476119266 $114 $194 forward 7 unknown #
face $-1 $195 $196 $26 $-1 $197 forward single #
loop $-1 $-1 $198 $72 #
plane-surface $-1 -109.02918606333844 11.262057692078429 49.236046132980498 0 -1 0 0.82903758062907751 0 -0.55919289150049634 forward_v I I I I #
coedge $-1 $199 $200 $201 $202 reversed $73 $-1 #
coedge $-1 $121 $75 $203 $204 reversed $47 $-1 #
coedge $-1 $75 $120 $199 $205 reversed $47 $-1 #
coedge $-1 $201 $206 $75 $123 forward $196 $-1 #
edge $-1 $207 13.496495555549956 $208 16.490744645226542 $122 $209 forward 7 unknown #
loop $-1 $-1 $129 $76 #
plane-surface $-1 -41.018097476119266 6.7860197283243444 3.3619890699398098 -0.82903758062907751 0 0.55919289150049634 0.55919289150049634 0 0.82903758062907751 forward_v I I I I #
loop $-1 $-1 $210 $49 #
coedge $-1 $127 $127 $128 $211 reversed $77 $-1 #
coedge $-1 $128 $128 $127 $211 forward $79 $-1 #
coedge $-1 $129 $129 $80 $130 forward $124 $-1 #
edge $-1 $212 0 $212 6.2831853071796004 $129 $213 forward 7 unknown #
loop $-1 $-1 $136 $81 #
plane-surface $-1 -41.018097476119266 6.7860197283243444 3.3619890699398098 -0.82903758062907751 0 0.55919289150049634 0.55919289150049634 0 0.82903758062907751 forward_v I I I I #
loop $-1 $-1 $214 $52 #
coedge $-1 $134 $134 $135 $215 reversed $82 $-1 #
coedge $-1 $135 $135 $134 $215 forward $84 $-1 #
coedge $-1 $136 $136 $85 $137 forward $131 $-1 #
edge $-1 $216 0 $216 6.2831853071796004 $136 $217 forward 7 unknown #
face $-1 $218 $219 $29 $-1 $220 reversed single #
loop $-1 $-1 $221 $86 #
plane-surface $-1 63.155129000297762 2.3099817645702601 117.24713472019967 0 1 0 0.82903758062907751 0 0.55919289150049634 forward_v I I I I #
coedge $-1 $222 $223 $224 $225 reversed $87 $-1 #
coedge $-1 $143 $89 $226 $227 reversed $56 $-1 #
coedge $-1 $89 $142 $222 $228 reversed $56 $-1 #
coedge $-1 $224 $229 $89 $145 forward $230 $-1 #
edge $-1 $231 -9.4405329759703847 $232 -6.4462838862937986 $144 $233 forward 7 unknown #
loop $-1 $-1 $151 $90 #
plane-surface $-1 -4.8559595869214149 6.7860197283243444 71.373077657158973 0.82903758062907751 0 0.55919289150049634 0.55919289150049634 0 -0.82903758062907751 forward_v I I I I #
loop $-1 $-1 $234 $58 #
coedge $-1 $149 $149 $150 $235 reversed $91 $-1 #
coedge $-1 $150 $150 $149 $235 forward $93 $-1 #
coedge $-1 $151 $151 $94 $152 forward $146 $-1 #
edge $-1 $236 0 $236 6.2831853071796004 $151 $237 forward 7 unknown #
loop $-1 $-1 $158 $95 #
plane-surface $-1 -4.8559595869214149 6.7860197283243444 71.373077657158973 0.82903758062907751 0 0.55919289150049634 0.55919289150049634 0 -0.82903758062907751 forward_v I I I I #
loop $-1 $-1 $238 $61 #
coedge $-1 $156 $156 $157 $239 reversed $96 $-1 #
coedge $-1 $157 $157 $156 $239 forward $98 $-1 #
coedge $-1 $158 $158 $99 $159 forward $153 $-1 #
edge $-1 $240 0 $240 6.2831853071796004 $158 $241 forward 7 unknown #
face $-1 $242 $243 $24 $-1 $244 reversed single #
loop $-1 $-1 $245 $100 #
plane-surface $-1 -41.018097476119266 0 0 1 0 0 0 0 -1 forward_v I I I I #
coedge $-1 $246 $171 $247 $248 forward $101 $-1 #
coedge $-1 $249 $103 $246 $250 forward $65 $-1 #
coedge $-1 $103 $249 $251 $252 forward $65 $-1 #
coedge $-1 $174 $173 $103 $167 reversed $175 $-1 #
edge $-1 $253 -23.161761844588895 $254 23.161761844588895 $166 $255 forward 7 unknown #
coedge $-1 $105 $104 $256 $257 forward $41 $-1 #
coedge $-1 $258 $259 $104 $170 reversed $243 $-1 #
edge $-1 $177 -41.018097476119266 $260 41.018097476119266 $169 $261 forward 7 unknown #
coedge $-1 $163 $262 $105 $172 reversed $101 $-1 #
edge $-1 $263 -41.018097476119266 $176 41.018097476119266 $171 $264 forward 7 unknown #
coedge $-1 $166 $106 $262 $265 forward $175 $-1 #
coedge $-1 $106 $166 $258 $266 reversed $175 $-1 #
loop $-1 $-1 $173 $242 #
vertex $-1 $107 $267 #
vertex $-1 $107 $268 #
straight-curve $-1 41.018097476119266 0 7.8011460385581959 0 1 0 I I #
face $-1 $269 $270 $25 $-1 $271 reversed single #
loop $-1 $-1 $190 $108 #
plane-surface $-1 0 -27.711922464469332 4.8011460385581959 0 0 1 1 0 0 forward_v I I I I #
coedge $-1 $272 $273 $112 $187 forward $109 $-1 #
coedge $-1 $274 $111 $273 $275 forward $69 $-1 #
coedge $-1 $111 $274 $276 $277 forward $69 $-1 #
coedge $-1 $113 $112 $111 $186 reversed $44 $-1 #
edge $-1 $278 -41.018097476119266 $279 41.018097476119266 $111 $280 forward 7 unknown #
edge $-1 $279 -7.8011460385581959 $193 -4.8011460385581959 $182 $281 forward 7 unknown #
coedge $-1 $276 $282 $113 $189 forward $283 $-1 #
edge $-1 $192 4.8011460385581959 $278 7.8011460385581959 $188 $284 forward 7 unknown #
coedge $-1 $285 $114 $282 $286 forward $180 $-1 #
coedge $-1 $114 $285 $272 $287 forward $180 $-1 #
vertex $-1 $189 $288 #
vertex $-1 $187 $289 #
straight-curve $-1 0 -23.161761844588895 4.8011460385581959 -1 0 0 I I #
face $-1 $-1 $290 $26 $-1 $291 reversed single #
loop $-1 $-1 $122 $116 #
plane-surface $-1 0 0 7.8011460385581959 0 0 1 1 0 0 forward_v I I I I #
coedge $-1 $292 $293 $294 $295 reversed $117 $-1 #
coedge $-1 $296 $119 $121 $205 forward $73 $-1 #
coedge $-1 $119 $296 $292 $297 forward $73 $-1 #
coedge $-1 $294 $122 $119 $202 forward $196 $-1 #
edge $-1 $208 -1.0830280995919122 $298 7.8690478279162566 $201 $299 forward 7 unknown #
coedge $-1 $300 $301 $120 $204 forward $290 $-1 #
edge $-1 $302 -21.256033996550439 $207 -16.816877027932051 $203 $303 forward 7 unknown #
edge $-1 $208 -5.3545907596250757 $302 0 $121 $304 forward 7 unknown #
coedge $-1 $122 $294 $300 $305 forward $196 $-1 #
vertex $-1 $204 $306 #
vertex $-1 $123 $307 #
straight-curve $-1 -54.514593031669222 2.3099817645702601 7.8011460385581941 1 0 0 I I #
coedge $-1 $210 $210 $-1 $308 reversed $126 $-1 #
edge $-1 $309 0 $309 6.2831853071796004 $127 $310 forward 7 unknown #
vertex $-1 $130 $311 #
ellipse-curve $-1 -39.520972931280973 4.8677177438583072 5.5815675542490073 -0.82903758062907751 0 0.55919289150049634 0.55919289150049634 0 0.82903758062907751 1 I I #
coedge $-1 $214 $214 $-1 $312 reversed $133 $-1 #
edge $-1 $313 0 $313 6.2831853071796004 $134 $314 forward 7 unknown #
vertex $-1 $137 $315 #
ellipse-curve $-1 -39.520972931280973 8.7043217127903816 5.5815675542490073 -0.82903758062907751 0 0.55919289150049634 0.55919289150049634 0 0.82903758062907751 1 I I #
face $-1 $-1 $230 $29 $-1 $316 forward single #
loop $-1 $-1 $317 $138 #
plane-surface $-1 41.018097476119266 0 0 -1 0 0 0 0 1 forward_v I I I I #
coedge $-1 $318 $319 $320 $321 reversed $139 $-1 #
coedge $-1 $322 $141 $143 $228 forward $87 $-1 #
coedge $-1 $141 $322 $318 $323 forward $87 $-1 #
coedge $-1 $320 $144 $141 $225 forward $230 $-1 #
edge $-1 $232 -7.8690478279162566 $324 1.0830280995919122 $224 $325 forward 7 unknown #
coedge $-1 $326 $327 $142 $227 forward $219 $-1 #
edge $-1 $328 -55.261578290160024 $231 -50.82242132154164 $226 $329 forward 7 unknown #
edge $-1 $232 76.681604192613449 $328 82.036194952238532 $143 $330 forward 7 unknown #
coedge $-1 $144 $320 $326 $331 forward $230 $-1 #
loop $-1 $-1 $320 $218 #
vertex $-1 $227 $332 #
vertex $-1 $145 $333 #
straight-curve $-1 31.577564500148881 11.262057692078429 7.8011460385581941 -1 0 0 I I #
coedge $-1 $234 $234 $-1 $334 reversed $148 $-1 #
edge $-1 $335 0 $335 6.2831853071796004 $149 $336 forward 7 unknown #
vertex $-1 $152 $337 #
ellipse-curve $-1 39.520972931280966 4.8677177438583072 5.5815675542490055 0.82903758062907751 0 0.55919289150049634 0.55919289150049634 0 -0.82903758062907751 1 I I #
coedge $-1 $238 $238 $-1 $338 reversed $155 $-1 #
edge $-1 $339 0 $339 6.2831853071796004 $156 $340 forward 7 unknown #
vertex $-1 $159 $341 #
ellipse-curve $-1 39.520972931280966 8.7043217127903816 5.5815675542490055 0.82903758062907751 0 0.55919289150049634 0.55919289150049634 0 -0.82903758062907751 1 I I #
face $-1 $-1 $175 $24 $-1 $342 reversed single #
loop $-1 $-1 $258 $160 #
plane-surface $-1 0 23.161761844588895 0 0 -1 0 0 0 -1 forward_v I I I I #
coedge $-1 $343 $256 $259 $344 forward $161 $-1 #
coedge $-1 $262 $163 $164 $250 reversed $101 $-1 #
coedge $-1 $256 $343 $163 $248 reversed $161 $-1 #
edge $-1 $263 -7.8011460385581959 $345 7.8011460385581959 $247 $346 forward 7 unknown #
coedge $-1 $165 $164 $343 $347 forward $65 $-1 #
edge $-1 $254 -41.018097476119266 $345 41.018097476119266 $246 $348 forward 7 unknown #
coedge $-1 $259 $258 $165 $252 reversed $243 $-1 #
edge $-1 $349 -41.018097476119266 $253 41.018097476119266 $251 $350 forward 7 unknown #
vertex $-1 $167 $351 #
vertex $-1 $265 $352 #
straight-curve $-1 41.018097476119266 0 -7.8011460385581959 0 -1 0 I I #
coedge $-1 $245 $247 $168 $257 reversed $161 $-1 #
edge $-1 $260 -23.161761844588895 $263 23.161761844588895 $256 $353 forward 7 unknown #
coedge $-1 $251 $169 $174 $266 forward $243 $-1 #
coedge $-1 $169 $251 $245 $344 reversed $243 $-1 #
vertex $-1 $170 $354 #
straight-curve $-1 0 23.161761844588895 7.8011460385581959 -1 0 0 I I #
coedge $-1 $171 $246 $173 $265 reversed $101 $-1 #
vertex $-1 $257 $355 #
straight-curve $-1 0 -23.161761844588895 7.8011460385581959 1 0 0 I I #
edge $-1 $176 -7.8011460385581959 $254 7.8011460385581959 $173 $356 forward 7 unknown #
edge $-1 $177 -7.8011460385581959 $253 7.8011460385581959 $174 $357 forward 7 unknown #
point $-1 41.018097476119266 -23.161761844588895 7.8011460385581959 #
point $-1 41.018097476119266 23.161761844588895 7.8011460385581959 #
face $-1 $-1 $283 $25 $-1 $358 reversed single #
loop $-1 $-1 $359 $179 #
plane-surface $-1 0 -32.262083084349769 6.3011460385581959 0 1 0 0 0 1 forward_v I I I I #
coedge $-1 $360 $182 $191 $287 reversed $109 $-1 #
coedge $-1 $182 $360 $183 $275 reversed $109 $-1 #
coedge $-1 $184 $183 $361 $362 forward $69 $-1 #
edge $-1 $279 23.161761844588895 $363 32.262083084349769 $273 $364 forward 7 unknown #
coedge $-1 $365 $188 $184 $277 reversed $283 $-1 #
edge $-1 $366 -32.262083084349769 $278 -23.161761844588895 $276 $367 forward 7 unknown #
vertex $-1 $189 $368 #
vertex $-1 $275 $369 #
straight-curve $-1 0 -23.161761844588895 7.8011460385581959 -1 0 0 I I #
straight-curve $-1 -41.018097476119266 -23.161761844588895 0 0 0 -1 I I #
coedge $-1 $188 $365 $190 $286 reversed $283 $-1 #
loop $-1 $-1 $188 $269 #
straight-curve $-1 41.018097476119266 -23.161761844588895 0 0 0 1 I I #
coedge $-1 $191 $190 $370 $371 forward $180 $-1 #
edge $-1 $192 -4.5501606198804367 $372 4.5501606198804367 $282 $373 forward 7 unknown #
edge $-1 $374 -4.5501606198804367 $193 4.5501606198804367 $272 $375 forward 7 unknown #
point $-1 41.018097476119266 -23.161761844588895 4.8011460385581959 #
point $-1 -41.018097476119266 -23.161761844588895 4.8011460385581959 #
loop $-1 $-1 $203 $195 #
plane-surface $-1 -41.018097476119266 0 0 1 0 0 0 0 -1 forward_v I I I I #
coedge $-1 $293 $198 $200 $297 reversed $117 $-1 #
coedge $-1 $198 $292 $376 $377 reversed $117 $-1 #
coedge $-1 $206 $201 $198 $295 forward $196 $-1 #
edge $-1 $298 -16.490744645226542 $378 -13.496495555549956 $294 $379 forward 7 unknown #
coedge $-1 $200 $199 $301 $380 reversed $73 $-1 #
edge $-1 $381 0 $298 5.3545907596250757 $292 $382 forward 7 unknown #
vertex $-1 $202 $383 #
straight-curve $-1 -38.02384838644268 3.3930098641621722 7.8011460385581959 0 1 0 I I #
coedge $-1 $376 $203 $206 $305 reversed $290 $-1 #
coedge $-1 $203 $376 $296 $380 forward $290 $-1 #
vertex $-1 $204 $384 #
straight-curve $-1 -41.018097476119266 2.3099817645702601 24.618023066490249 0 0 1 I I #
straight-curve $-1 -41.018097476119266 2.3099817645702601 3.3619890699398098 -0.55919289150049634 0 -0.82903758062907751 I I #
edge $-1 $378 -11.262057692078429 $207 -2.3099817645702601 $300 $385 forward 7 unknown #
point $-1 -41.018097476119266 2.3099817645702601 7.8011460385581959 #
point $-1 -38.02384838644268 2.3099817645702601 7.8011460385581959 #
edge $-1 $386 1 $386 0 $210 $-1 forward 7 unknown #
vertex $-1 $211 $387 #
ellipse-curve $-1 -36.784797231426495 4.8677177438583072 3.7359937986009077 -0.82903758062907751 0 0.55919289150049634 0.55919289150049634 0 0.82903758062907751 1 I I #
point $-1 -38.961780039780479 4.8677177438583072 6.4106051348780824 #
edge $-1 $388 1 $388 0 $214 $-1 forward 7 unknown #
vertex $-1 $215 $389 #
ellipse-curve $-1 -36.784797231426495 8.7043217127903816 3.7359937986009077 -0.82903758062907751 0 0.55919289150049634 0.55919289150049634 0 0.82903758062907751 1 I I #
point $-1 -38.961780039780479 8.7043217127903816 6.4106051348780824 #
plane-surface $-1 0 0 7.8011460385581959 0 0 1 1 0 0 forward_v I I I I #
coedge $-1 $327 $326 $319 $390 forward $219 $-1 #
coedge $-1 $319 $221 $223 $323 reversed $139 $-1 #
coedge $-1 $221 $318 $317 $390 reversed $139 $-1 #
coedge $-1 $229 $224 $221 $321 forward $230 $-1 #
edge $-1 $324 6.4462838862937986 $391 9.4405329759703847 $320 $392 forward 7 unknown #
coedge $-1 $223 $222 $327 $393 reversed $87 $-1 #
edge $-1 $394 -82.036194952238532 $324 -76.681604192613449 $318 $395 forward 7 unknown #
vertex $-1 $225 $396 #
straight-curve $-1 38.02384838644268 3.3930098641621722 7.8011460385581941 0 -1 0 I I #
coedge $-1 $317 $226 $229 $331 reversed $219 $-1 #
coedge $-1 $226 $317 $322 $393 forward $219 $-1 #
vertex $-1 $227 $397 #
straight-curve $-1 41.018097476119266 11.262057692078429 58.623567360099834 0 0 1 I I #
straight-curve $-1 -4.8559595869214149 11.262057692078429 71.373077657158973 0.55919289150049634 0 -0.82903758062907751 I I #
edge $-1 $391 2.3099817645702601 $231 11.262057692078429 $326 $398 forward 7 unknown #
point $-1 41.018097476119266 11.262057692078429 7.8011460385581959 #
point $-1 38.02384838644268 11.262057692078429 7.8011460385581941 #
edge $-1 $399 1 $399 0 $234 $-1 forward 7 unknown #
vertex $-1 $235 $400 #
ellipse-curve $-1 36.784797231426502 4.8677177438583072 3.7359937986009184 0.82903758062907751 0 0.55919289150049634 0.55919289150049634 0 -0.82903758062907751 1 I I #
point $-1 40.080165822781474 4.8677177438583072 4.7525299736199385 #
edge $-1 $401 1 $401 0 $238 $-1 forward 7 unknown #
vertex $-1 $239 $402 #
ellipse-curve $-1 36.784797231426502 8.7043217127903816 3.7359937986009184 0.82903758062907751 0 0.55919289150049634 0.55919289150049634 0 -0.82903758062907751 1 I I #
point $-1 40.080165822781474 8.7043217127903816 4.7525299736199385 #
plane-surface $-1 41.018097476119266 0 0 -1 0 0 0 0 1 forward_v I I I I #
coedge $-1 $247 $245 $249 $347 reversed $161 $-1 #
edge $-1 $260 -7.8011460385581959 $349 7.8011460385581959 $259 $403 forward 7 unknown #
vertex $-1 $347 $404 #
straight-curve $-1 -41.018097476119266 -23.161761844588895 0 0 0 -1 I I #
edge $-1 $345 -23.161761844588895 $349 23.161761844588895 $343 $405 forward 7 unknown #
straight-curve $-1 0 -23.161761844588895 -7.8011460385581959 -1 0 0 I I #
vertex $-1 $252 $406 #
straight-curve $-1 0 23.161761844588895 -7.8011460385581959 1 0 0 I I #
point $-1 41.018097476119266 23.161761844588895 -7.8011460385581959 #
point $-1 41.018097476119266 -23.161761844588895 -7.8011460385581959 #
straight-curve $-1 -41.018097476119266 0 7.8011460385581959 0 -1 0 I I #
point $-1 -41.018097476119266 23.161761844588895 7.8011460385581959 #
point $-1 -41.018097476119266 -23.161761844588895 7.8011460385581959 #
straight-curve $-1 41.018097476119266 -23.161761844588895 0 0 0 -1 I I #
straight-curve $-1 41.018097476119266 23.161761844588895 0 0 0 -1 I I #
plane-surface $-1 41.018097476119266 0 0 -1 0 0 0 0 1 forward_v I I I I #
coedge $-1 $370 $361 $360 $407 forward $270 $-1 #
coedge $-1 $273 $272 $359 $407 reversed $109 $-1 #
coedge $-1 $359 $408 $274 $362 reversed $270 $-1 #
edge $-1 $363 -41.018097476119266 $366 41.018097476119266 $361 $409 forward 7 unknown #
vertex $-1 $275 $410 #
straight-curve $-1 -41.018097476119266 0 7.8011460385581959 0 -1 0 I I #
coedge $-1 $282 $276 $408 $411 forward $283 $-1 #
vertex $-1 $277 $412 #
straight-curve $-1 41.018097476119266 0 7.8011460385581959 0 1 0 I I #
point $-1 41.018097476119266 -23.161761844588895 7.8011460385581959 #
point $-1 -41.018097476119266 -23.161761844588895 7.8011460385581959 #
coedge $-1 $408 $359 $285 $371 reversed $270 $-1 #
edge $-1 $372 -41.018097476119266 $374 41.018097476119266 $370 $413 forward 7 unknown #
vertex $-1 $411 $414 #
straight-curve $-1 41.018097476119266 -27.711922464469332 4.8011460385581959 0 -1 0 I I #
vertex $-1 $287 $415 #
straight-curve $-1 -41.018097476119266 -27.711922464469332 4.8011460385581959 0 1 0 I I #
coedge $-1 $301 $300 $293 $377 forward $290 $-1 #
edge $-1 $378 16.816877027932051 $381 21.256033996550439 $376 $416 forward 7 unknown #
vertex $-1 $305 $417 #
straight-curve $-1 -54.514593031669222 11.262057692078429 7.8011460385581941 -1 0 0 I I #
edge $-1 $381 -7.8690478279162566 $302 1.0830280995919122 $301 $418 forward 7 unknown #
vertex $-1 $380 $419 #
straight-curve $-1 -41.018097476119266 11.262057692078429 3.3619890699398098 0.55919289150049634 0 0.82903758062907751 I I #
point $-1 -38.02384838644268 11.262057692078429 7.8011460385581959 #
point $-1 -41.018097476119266 2.3099817645702601 3.3619890699398098 #
straight-curve $-1 -41.018097476119266 0 7.8011460385581959 0 -1 0 I I #
vertex $-1 $308 $420 #
point $-1 -36.225604339926001 4.8677177438583072 4.5650313792299855 #
vertex $-1 $312 $421 #
point $-1 -36.225604339926001 8.7043217127903816 4.5650313792299855 #
edge $-1 $391 50.82242132154164 $394 55.261578290160024 $317 $422 forward 7 unknown #
vertex $-1 $331 $423 #
straight-curve $-1 31.577564500148881 2.3099817645702601 7.8011460385581941 1 0 0 I I #
edge $-1 $394 -1.0830280995919122 $328 7.8690478279162566 $327 $424 forward 7 unknown #
vertex $-1 $393 $425 #
straight-curve $-1 -4.8559595869214149 2.3099817645702601 71.373077657158973 -0.55919289150049634 0 0.82903758062907751 I I #
point $-1 38.02384838644268 2.3099817645702601 7.8011460385581941 #
point $-1 41.018097476119266 11.262057692078429 3.3619890699398098 #
straight-curve $-1 41.018097476119266 0 7.8011460385581959 0 1 0 I I #
vertex $-1 $334 $426 #
point $-1 37.343990122926996 4.8677177438583072 2.9069562179718411 #
vertex $-1 $338 $427 #
point $-1 37.343990122926996 8.7043217127903816 2.9069562179718411 #
straight-curve $-1 -41.018097476119266 23.161761844588895 0 0 0 -1 I I #
point $-1 -41.018097476119266 -23.161761844588895 -7.8011460385581959 #
straight-curve $-1 -41.018097476119266 0 -7.8011460385581959 0 1 0 I I #
point $-1 -41.018097476119266 23.161761844588895 -7.8011460385581959 #
edge $-1 $363 -1.5 $374 1.5 $360 $428 forward 7 unknown #
coedge $-1 $361 $370 $365 $411 reversed $270 $-1 #
straight-curve $-1 0 -32.262083084349769 7.8011460385581959 1 0 0 I I #
point $-1 -41.018097476119266 -32.262083084349769 7.8011460385581959 #
edge $-1 $366 -1.5 $372 1.5 $365 $429 forward 7 unknown #
point $-1 41.018097476119266 -32.262083084349769 7.8011460385581959 #
straight-curve $-1 0 -32.262083084349769 4.8011460385581959 -1 0 0 I I #
point $-1 41.018097476119266 -32.262083084349769 4.8011460385581959 #
point $-1 -41.018097476119266 -32.262083084349769 4.8011460385581959 #
straight-curve $-1 -41.018097476119266 11.262057692078429 24.618023066490249 0 0 -1 I I #
point $-1 -41.018097476119266 11.262057692078429 7.8011460385581959 #
straight-curve $-1 -41.018097476119266 3.3930098641621722 3.3619890699398107 0 -1 0 I I #
point $-1 -41.018097476119266 11.262057692078429 3.3619890699398098 #
point $-1 -35.955759650797418 4.8677177438583072 3.1768009071004117 #
point $-1 -35.955759650797418 8.7043217127903816 3.1768009071004117 #
straight-curve $-1 41.018097476119266 2.3099817645702601 58.623567360099834 0 0 -1 I I #
point $-1 41.018097476119266 2.3099817645702601 7.8011460385581959 #
straight-curve $-1 41.018097476119266 3.3930098641621722 3.3619890699398027 0 1 0 I I #
point $-1 41.018097476119266 2.3099817645702601 3.3619890699398098 #
point $-1 35.955759650797425 4.8677177438583072 3.1768009071004224 #
point $-1 35.955759650797425 8.7043217127903816 3.1768009071004224 #
straight-curve $-1 -41.018097476119266 -32.262083084349769 6.3011460385581959 0 0 -1 I I #
straight-curve $-1 41.018097476119266 -32.262083084349769 6.3011460385581959 0 0 -1 I I #
End-of-ACIS-data 