500 0 11 0           
7 Unknown 11 ACIS 5.0 NT 24 Thu Mar 25 18:56:28 1999 
-1 9.9999999999999995e-007 1e-010 
body $-1 $11 $-1 $12 #
body $-1 $13 $-1 $14 #
body $-1 $15 $-1 $16 #
body $-1 $17 $-1 $18 #
body $-1 $19 $-1 $20 #
body $-1 $21 $-1 $22 #
body $-1 $23 $-1 $24 #
body $-1 $25 $-1 $26 #
body $-1 $27 $-1 $28 #
body $-1 $29 $-1 $30 #
body $-1 $31 $-1 $32 #
lump $-1 $-1 $33 $0 #
transform $-1 1 0 0 0 1 0 0 0 1 66.703695791497552 40.352814728127065 8.7684583924600208 1 rotate no_reflect no_shear #
lump $-1 $-1 $34 $1 #
transform $-1 1 0 0 0 1 0 0 0 1 66.703695791497552 40.352814728127065 8.7684583924600208 1 rotate no_reflect no_shear #
lump $-1 $-1 $35 $2 #
transform $-1 1 0 0 0 1 0 0 0 1 66.703695791497552 40.352814728127065 8.7684583924600208 1 rotate no_reflect no_shear #
lump $-1 $-1 $36 $3 #
transform $-1 1 0 0 0 1 0 0 0 1 66.703695791497552 40.352814728127065 8.7684583924600208 1 rotate no_reflect no_shear #
lump $-1 $-1 $37 $4 #
transform $-1 1 0 0 0 1 0 0 0 1 66.703695791497552 40.352814728127065 8.7684583924600208 1 rotate no_reflect no_shear #
lump $-1 $-1 $38 $5 #
transform $-1 1 0 0 0 1 0 0 0 1 66.703695791497552 40.352814728127065 8.7684583924600208 1 rotate no_reflect no_shear #
lump $-1 $-1 $39 $6 #
transform $-1 1 0 0 0 1 0 0 0 1 66.703695791497552 40.352814728127065 8.7684583924600208 1 rotate no_reflect no_shear #
lump $-1 $-1 $40 $7 #
transform $-1 1 0 0 0 1 0 0 0 1 66.703695791497552 40.352814728127065 8.7684583924600208 1 rotate no_reflect no_shear #
lump $-1 $-1 $41 $8 #
transform $-1 1 0 0 0 1 0 0 0 1 66.703695791497552 40.352814728127065 8.7684583924600208 1 rotate no_reflect no_shear #
lump $-1 $-1 $42 $9 #
transform $-1 1 0 0 0 1 0 0 0 1 66.703695791497552 40.352814728127065 8.7684583924600208 1 rotate no_reflect no_shear #
lump $-1 $-1 $43 $10 #
transform $-1 1 0 0 0 1 0 0 0 1 66.703695791497552 40.352814728127065 8.7684583924600208 1 rotate no_reflect no_shear #
shell $-1 $-1 $-1 $44 $-1 $11 #
shell $-1 $-1 $-1 $45 $-1 $13 #
shell $-1 $-1 $-1 $46 $-1 $15 #
shell $-1 $-1 $-1 $47 $-1 $17 #
shell $-1 $-1 $-1 $48 $-1 $19 #
shell $-1 $-1 $-1 $49 $-1 $21 #
shell $-1 $-1 $-1 $50 $-1 $23 #
shell $-1 $-1 $-1 $51 $-1 $25 #
shell $-1 $-1 $-1 $52 $-1 $27 #
shell $-1 $-1 $-1 $53 $-1 $29 #
shell $-1 $-1 $-1 $54 $-1 $31 #
face $-1 $55 $56 $33 $-1 $57 forward single #
face $-1 $58 $59 $34 $-1 $60 forward single #
face $-1 $61 $62 $35 $-1 $63 reversed single #
face $-1 $64 $65 $36 $-1 $66 forward single #
face $-1 $67 $68 $37 $-1 $69 forward single #
face $-1 $70 $71 $38 $-1 $72 reversed single #
face $-1 $73 $74 $39 $-1 $75 forward single #
face $-1 $76 $77 $40 $-1 $78 forward single #
face $-1 $79 $80 $41 $-1 $81 reversed single #
face $-1 $82 $83 $42 $-1 $84 forward single #
face $-1 $85 $86 $43 $-1 $87 forward single #
face $-1 $88 $89 $33 $-1 $90 reversed single #
loop $-1 $-1 $91 $44 #
plane-surface $-1 0 0 8.7684583924600208 0 0 1 1 0 0 forward_v I I I I #
face $-1 $92 $93 $34 $-1 $94 reversed single #
loop $-1 $-1 $95 $45 #
plane-surface $-1 0 -36.716110859569213 -4.4646430805323352 0 0 1 1 0 0 forward_v I I I I #
face $-1 $96 $97 $35 $-1 $98 reversed single #
loop $-1 $-1 $99 $46 #
plane-surface $-1 -141.30416340480994 -33.079406991011354 114.31850876850852 0 1 0 -0.55919291073839883 0 0.82903756765294845 forward_v I I I I #
face $-1 $100 $101 $36 $-1 $102 forward single #
loop $-1 $103 $104 $47 #
cone-surface $-1 -62.482807085818848 -30.148572323074429 5.5354644347359558 0.55919291073839883 0 -0.82903756765294845 0.82903756765294845 0 0.55919291073839883 1 I I 0 1 1 forward I I I I #
face $-1 $105 $106 $37 $-1 $107 forward single #
loop $-1 $108 $109 $48 #
cone-surface $-1 -62.482807085818848 -25.752320321169041 5.5354644347359558 0.55919291073839883 0 -0.82903756765294845 0.82903756765294845 0 0.55919291073839883 1 I I 0 1 1 forward I I I I #
face $-1 $110 $111 $38 $-1 $112 reversed single #
loop $-1 $-1 $113 $49 #
plane-surface $-1 56.829653919120531 -4.0690264223610182 193.88596621642384 0 -1 0 -0.66913061440640931 0 -0.74314481823134659 forward_v I I I I #
face $-1 $114 $115 $39 $-1 $116 forward single #
loop $-1 $117 $118 $50 #
cone-surface $-1 63.759555687771197 -11.876896628630295 5.8827568022337973 -0.66913061440640931 0 -0.74314481823134659 0.74314481823134659 0 -0.66913061440640931 1 I I 0 1 1 forward I I I I #
face $-1 $119 $120 $40 $-1 $121 forward single #
loop $-1 $122 $123 $51 #
cone-surface $-1 63.759555687771197 -7.1921745048687313 5.8827568022337973 -0.66913061440640931 0 -0.74314481823134659 0.74314481823134659 0 -0.66913061440640931 1 I I 0 1 1 forward I I I I #
face $-1 $124 $125 $41 $-1 $126 reversed single #
loop $-1 $-1 $127 $52 #
plane-surface $-1 56.829653919120531 22.273452448253721 193.88596621642384 0 -1 0 -0.66913061440640931 0 -0.74314481823134659 forward_v I I I I #
face $-1 $128 $129 $42 $-1 $130 forward single #
loop $-1 $131 $132 $53 #
cone-surface $-1 63.759555687771197 14.465582241984443 5.8827568022337973 -0.66913061440640931 0 -0.74314481823134659 0.74314481823134659 0 -0.66913061440640931 1 I I 0 1 1 forward I I I I #
face $-1 $133 $134 $43 $-1 $135 forward single #
loop $-1 $136 $137 $54 #
cone-surface $-1 63.759555687771197 19.15030436574601 5.8827568022337973 -0.66913061440640931 0 -0.74314481823134659 0.74314481823134659 0 -0.66913061440640931 1 I I 0 1 1 forward I I I I #
face $-1 $138 $139 $33 $-1 $140 reversed single #
loop $-1 $-1 $141 $55 #
plane-surface $-1 0 0 -8.7684583924600208 0 0 1 1 0 0 forward_v I I I I #
coedge $-1 $142 $143 $144 $145 forward $56 $-1 #
face $-1 $146 $147 $34 $-1 $148 reversed single #
loop $-1 $-1 $149 $58 #
plane-surface $-1 0 -33.079406991011361 -6.616550736496178 0 -1 0 0 0 -1 forward_v I I I I #
coedge $-1 $150 $151 $152 $153 reversed $59 $-1 #
face $-1 $154 $155 $35 $-1 $156 reversed single #
loop $-1 $-1 $157 $61 #
plane-surface $-1 -66.703695791497537 -27.950446322121735 3.7187693436178364 -0.55919291073839883 0 0.82903756765294845 0.82903756765294845 0 0.55919291073839883 forward_v I I I I #
coedge $-1 $158 $159 $160 $161 reversed $62 $-1 #
face $-1 $-1 $162 $36 $-1 $163 forward single #
loop $-1 $164 $165 $64 #
cone-surface $-1 -61.725557797457398 -30.148572323074429 4.4127962176065125 0.55919291073839883 0 -0.82903756765294845 0.41451878382647422 0 0.27959645536919941 1 I I -0.70710678118654691 0.70710678118654813 0.5 forward I I I I #
loop $-1 $-1 $166 $47 #
coedge $-1 $104 $104 $167 $168 reversed $65 $-1 #
face $-1 $-1 $169 $37 $-1 $170 forward single #
loop $-1 $171 $172 $67 #
cone-surface $-1 -61.725557797457398 -25.752320321169041 4.4127962176065125 0.55919291073839883 0 -0.82903756765294845 0.41451878382647422 0 0.27959645536919941 1 I I -0.70710678118654691 0.70710678118654813 0.5 forward I I I I #
loop $-1 $-1 $173 $48 #
coedge $-1 $109 $109 $174 $175 reversed $68 $-1 #
face $-1 $176 $177 $38 $-1 $178 reversed single #
loop $-1 $-1 $179 $70 #
plane-surface $-1 -32.437315977165426 -9.5345355667495113 94.744954447760861 0.66913061440640931 0 0.74314481823134659 0.74314481823134659 0 -0.66913061440640931 forward_v I I I I #
coedge $-1 $180 $181 $182 $183 reversed $71 $-1 #
face $-1 $-1 $184 $39 $-1 $185 forward single #
loop $-1 $186 $187 $73 #
cone-surface $-1 62.308070950807604 -11.876896628630295 4.2707197233844436 -0.66913061440640931 0 -0.74314481823134659 0.3715724091156733 0 -0.33456530720320465 1 I I -0.70710678118654746 0.70710678118654746 0.5 forward I I I I #
loop $-1 $-1 $188 $50 #
coedge $-1 $118 $118 $189 $190 reversed $74 $-1 #
face $-1 $-1 $191 $40 $-1 $192 forward single #
loop $-1 $193 $194 $76 #
cone-surface $-1 62.308070950807604 -7.1921745048687313 4.2707197233844436 -0.66913061440640931 0 -0.74314481823134659 0.3715724091156733 0 -0.33456530720320465 1 I I -0.70710678118654746 0.70710678118654746 0.5 forward I I I I #
loop $-1 $-1 $195 $51 #
coedge $-1 $123 $123 $196 $197 reversed $77 $-1 #
face $-1 $198 $199 $41 $-1 $200 reversed single #
loop $-1 $-1 $201 $79 #
plane-surface $-1 -32.437315977165426 16.80794330386523 94.744954447760861 0.66913061440640931 0 0.74314481823134659 0.74314481823134659 0 -0.66913061440640931 forward_v I I I I #
coedge $-1 $202 $203 $204 $205 reversed $80 $-1 #
face $-1 $-1 $206 $42 $-1 $207 forward single #
loop $-1 $208 $209 $82 #
cone-surface $-1 62.308070950807604 14.465582241984443 4.2707197233844436 -0.66913061440640931 0 -0.74314481823134659 0.3715724091156733 0 -0.33456530720320465 1 I I -0.70710678118654746 0.70710678118654746 0.5 forward I I I I #
loop $-1 $-1 $210 $53 #
coedge $-1 $132 $132 $211 $212 reversed $83 $-1 #
face $-1 $-1 $213 $43 $-1 $214 forward single #
loop $-1 $215 $216 $85 #
cone-surface $-1 62.308070950807604 19.15030436574601 4.2707197233844436 -0.66913061440640931 0 -0.74314481823134659 0.3715724091156733 0 -0.33456530720320465 1 I I -0.70710678118654746 0.70710678118654746 0.5 forward I I I I #
loop $-1 $-1 $217 $54 #
coedge $-1 $137 $137 $218 $219 reversed $86 $-1 #
face $-1 $220 $221 $33 $-1 $222 reversed single #
loop $-1 $-1 $223 $88 #
plane-surface $-1 0 -40.352814728127065 0 0 1 0 0 0 1 forward_v I I I I #
coedge $-1 $224 $225 $226 $227 forward $89 $-1 #
coedge $-1 $228 $91 $229 $230 forward $56 $-1 #
coedge $-1 $91 $228 $231 $232 forward $56 $-1 #
coedge $-1 $233 $234 $91 $145 reversed $235 $-1 #
edge $-1 $236 -40.352814728127065 $237 40.352814728127065 $144 $238 forward 7 unknown #
face $-1 $239 $240 $34 $-1 $241 reversed single #
loop $-1 $-1 $242 $92 #
plane-surface $-1 0 0 -8.7684583924600208 0 0 1 1 0 0 forward_v I I I I #
coedge $-1 $243 $244 $245 $246 reversed $93 $-1 #
coedge $-1 $247 $95 $244 $248 forward $59 $-1 #
coedge $-1 $95 $247 $249 $250 reversed $59 $-1 #
coedge $-1 $251 $245 $95 $153 forward $240 $-1 #
edge $-1 $252 14.721351561226754 $253 21.994759298342458 $152 $254 forward 7 unknown #
face $-1 $255 $256 $35 $-1 $257 forward single #
loop $-1 $-1 $258 $96 #
plane-surface $-1 -141.30416340480994 -22.821485653232116 114.31850876850852 0 -1 0 0.55919291073839883 0 -0.82903756765294845 forward_v I I I I #
coedge $-1 $259 $260 $261 $262 reversed $97 $-1 #
coedge $-1 $159 $99 $263 $264 reversed $62 $-1 #
coedge $-1 $99 $158 $259 $265 reversed $62 $-1 #
coedge $-1 $261 $266 $99 $161 forward $256 $-1 #
edge $-1 $267 3.9483859109074189 $268 11.434857656280336 $160 $269 forward 7 unknown #
loop $-1 $-1 $167 $100 #
plane-surface $-1 -66.703695791497537 -27.950446322121735 3.7187693436178364 -0.55919291073839883 0 0.82903756765294845 0.82903756765294845 0 0.55919291073839883 forward_v I I I I #
loop $-1 $-1 $270 $64 #
coedge $-1 $165 $165 $166 $271 reversed $101 $-1 #
coedge $-1 $166 $166 $165 $271 forward $103 $-1 #
coedge $-1 $167 $167 $104 $168 forward $162 $-1 #
edge $-1 $272 0 $272 6.2831853071796004 $167 $273 forward 7 unknown #
loop $-1 $-1 $174 $105 #
plane-surface $-1 -66.703695791497537 -27.950446322121735 3.7187693436178364 -0.55919291073839883 0 0.82903756765294845 0.82903756765294845 0 0.55919291073839883 forward_v I I I I #
loop $-1 $-1 $274 $67 #
coedge $-1 $172 $172 $173 $275 reversed $106 $-1 #
coedge $-1 $173 $173 $172 $275 forward $108 $-1 #
coedge $-1 $174 $174 $109 $175 forward $169 $-1 #
edge $-1 $276 0 $276 6.2831853071796004 $174 $277 forward 7 unknown #
face $-1 $278 $279 $38 $-1 $280 reversed single #
loop $-1 $-1 $281 $110 #
plane-surface $-1 56.829653919120531 -15.000044711138004 193.88596621642384 0 1 0 0.66913061440640931 0 0.74314481823134659 forward_v I I I I #
coedge $-1 $282 $283 $284 $285 reversed $111 $-1 #
coedge $-1 $181 $113 $286 $287 reversed $71 $-1 #
coedge $-1 $113 $180 $282 $288 reversed $71 $-1 #
coedge $-1 $284 $289 $113 $183 forward $290 $-1 #
edge $-1 $291 -38.288868831937286 $292 -34.63442748400535 $182 $293 forward 7 unknown #
loop $-1 $-1 $189 $114 #
plane-surface $-1 -32.437315977165426 -9.5345355667495113 94.744954447760861 0.66913061440640931 0 0.74314481823134659 0.74314481823134659 0 -0.66913061440640931 forward_v I I I I #
loop $-1 $-1 $294 $73 #
coedge $-1 $187 $187 $188 $295 reversed $115 $-1 #
coedge $-1 $188 $188 $187 $295 forward $117 $-1 #
coedge $-1 $189 $189 $118 $190 forward $184 $-1 #
edge $-1 $296 0 $296 6.2831853071796004 $189 $297 forward 7 unknown #
loop $-1 $-1 $196 $119 #
plane-surface $-1 -32.437315977165426 -9.5345355667495113 94.744954447760861 0.66913061440640931 0 0.74314481823134659 0.74314481823134659 0 -0.66913061440640931 forward_v I I I I #
loop $-1 $-1 $298 $76 #
coedge $-1 $194 $194 $195 $299 reversed $120 $-1 #
coedge $-1 $195 $195 $194 $299 forward $122 $-1 #
coedge $-1 $196 $196 $123 $197 forward $191 $-1 #
edge $-1 $300 0 $300 6.2831853071796004 $196 $301 forward 7 unknown #
face $-1 $302 $303 $41 $-1 $304 reversed single #
loop $-1 $-1 $305 $124 #
plane-surface $-1 56.829653919120531 11.342434159476737 193.88596621642384 0 1 0 0.66913061440640931 0 0.74314481823134659 forward_v I I I I #
coedge $-1 $306 $307 $308 $309 reversed $125 $-1 #
coedge $-1 $203 $127 $310 $311 reversed $80 $-1 #
coedge $-1 $127 $202 $306 $312 reversed $80 $-1 #
coedge $-1 $308 $313 $127 $205 forward $314 $-1 #
edge $-1 $315 -38.288868831937286 $316 -34.63442748400535 $204 $317 forward 7 unknown #
loop $-1 $-1 $211 $128 #
plane-surface $-1 -32.437315977165426 16.80794330386523 94.744954447760861 0.66913061440640931 0 0.74314481823134659 0.74314481823134659 0 -0.66913061440640931 forward_v I I I I #
loop $-1 $-1 $318 $82 #
coedge $-1 $209 $209 $210 $319 reversed $129 $-1 #
coedge $-1 $210 $210 $209 $319 forward $131 $-1 #
coedge $-1 $211 $211 $132 $212 forward $206 $-1 #
edge $-1 $320 0 $320 6.2831853071796004 $211 $321 forward 7 unknown #
loop $-1 $-1 $218 $133 #
plane-surface $-1 -32.437315977165426 16.80794330386523 94.744954447760861 0.66913061440640931 0 0.74314481823134659 0.74314481823134659 0 -0.66913061440640931 forward_v I I I I #
loop $-1 $-1 $322 $85 #
coedge $-1 $216 $216 $217 $323 reversed $134 $-1 #
coedge $-1 $217 $217 $216 $323 forward $136 $-1 #
coedge $-1 $218 $218 $137 $219 forward $213 $-1 #
edge $-1 $324 0 $324 6.2831853071796004 $218 $325 forward 7 unknown #
face $-1 $326 $327 $33 $-1 $328 reversed single #
loop $-1 $-1 $329 $138 #
plane-surface $-1 -66.703695791497552 0 0 1 0 0 0 0 -1 forward_v I I I I #
coedge $-1 $330 $231 $331 $332 forward $139 $-1 #
coedge $-1 $333 $141 $330 $334 forward $89 $-1 #
coedge $-1 $141 $333 $335 $336 forward $89 $-1 #
coedge $-1 $234 $233 $141 $227 reversed $235 $-1 #
edge $-1 $337 -40.352814728127065 $338 40.352814728127065 $226 $339 forward 7 unknown #
coedge $-1 $143 $142 $340 $341 forward $56 $-1 #
coedge $-1 $342 $343 $142 $230 reversed $327 $-1 #
edge $-1 $237 -66.703695791497552 $344 66.703695791497552 $229 $345 forward 7 unknown #
coedge $-1 $223 $346 $143 $232 reversed $139 $-1 #
edge $-1 $347 -66.703695791497552 $236 66.703695791497552 $231 $348 forward 7 unknown #
coedge $-1 $226 $144 $346 $349 forward $235 $-1 #
coedge $-1 $144 $226 $342 $350 reversed $235 $-1 #
loop $-1 $-1 $233 $326 #
vertex $-1 $145 $351 #
vertex $-1 $145 $352 #
straight-curve $-1 66.703695791497552 0 8.7684583924600208 0 1 0 I I #
face $-1 $353 $354 $34 $-1 $355 reversed single #
loop $-1 $-1 $245 $146 #
plane-surface $-1 66.703695791497552 0 0 -1 0 0 0 0 1 forward_v I I I I #
coedge $-1 $356 $357 $243 $358 forward $147 $-1 #
coedge $-1 $359 $149 $242 $358 reversed $93 $-1 #
coedge $-1 $149 $359 $150 $248 reversed $93 $-1 #
coedge $-1 $152 $360 $149 $246 forward $240 $-1 #
edge $-1 $361 -5.4601830242119318 $252 -1.1563677122842462 $245 $362 forward 7 unknown #
coedge $-1 $151 $150 $363 $364 reversed $59 $-1 #
edge $-1 $252 -66.703695791497552 $365 66.703695791497552 $244 $366 forward 7 unknown #
coedge $-1 $367 $368 $151 $250 forward $354 $-1 #
edge $-1 $253 -66.703695791497552 $369 66.703695791497552 $249 $370 forward 7 unknown #
coedge $-1 $360 $152 $368 $371 forward $240 $-1 #
vertex $-1 $153 $372 #
vertex $-1 $371 $373 #
straight-curve $-1 66.703695791497552 -18.358055429784606 -4.4646430805323352 0 -1 0 I I #
face $-1 $-1 $374 $35 $-1 $375 reversed single #
loop $-1 $-1 $160 $154 #
plane-surface $-1 0 0 8.7684583924600208 0 0 1 1 0 0 forward_v I I I I #
coedge $-1 $376 $377 $378 $379 reversed $155 $-1 #
coedge $-1 $380 $157 $159 $265 forward $97 $-1 #
coedge $-1 $157 $380 $376 $381 forward $97 $-1 #
coedge $-1 $378 $160 $157 $262 forward $256 $-1 #
edge $-1 $268 -19.104183829950486 $382 -8.8462624921712489 $261 $383 forward 7 unknown #
coedge $-1 $384 $385 $158 $264 forward $374 $-1 #
edge $-1 $386 -53.440485040636432 $267 -48.390795991794242 $263 $387 forward 7 unknown #
edge $-1 $268 -9.0303166436323519 $386 1.7244626260799089e-014 $159 $388 forward 7 unknown #
coedge $-1 $160 $378 $384 $389 forward $256 $-1 #
vertex $-1 $264 $390 #
vertex $-1 $161 $391 #
straight-curve $-1 -70.652081702404971 -33.079406991011354 8.768458392460019 1 0 0 I I #
coedge $-1 $270 $270 $-1 $392 reversed $164 $-1 #
edge $-1 $393 0 $393 6.2831853071796004 $165 $394 forward 7 unknown #
vertex $-1 $168 $395 #
ellipse-curve $-1 -62.960459918811097 -30.148572323074429 6.2436138680389215 -0.55919291073839883 0 0.82903756765294845 0.82903756765294845 0 0.55919291073839883 1 I I #
coedge $-1 $274 $274 $-1 $396 reversed $171 $-1 #
edge $-1 $397 0 $397 6.2831853071796004 $172 $398 forward 7 unknown #
vertex $-1 $175 $399 #
ellipse-curve $-1 -62.960459918811097 -25.752320321169041 6.2436138680389215 -0.55919291073839883 0 0.82903756765294845 0.82903756765294845 0 0.55919291073839883 1 I I #
face $-1 $-1 $290 $38 $-1 $400 forward single #
loop $-1 $-1 $401 $176 #
plane-surface $-1 66.703695791497552 0 0 -1 0 0 0 0 1 forward_v I I I I #
coedge $-1 $402 $403 $404 $405 reversed $177 $-1 #
coedge $-1 $406 $179 $181 $288 forward $111 $-1 #
coedge $-1 $179 $406 $402 $407 forward $111 $-1 #
coedge $-1 $404 $182 $179 $285 forward $290 $-1 #
edge $-1 $292 -0.69824136101373746 $408 10.232776927763249 $284 $409 forward 7 unknown #
coedge $-1 $410 $411 $180 $287 forward $279 $-1 #
edge $-1 $412 -91.464998556737015 $291 -88.1745247157519 $286 $413 forward 7 unknown #
edge $-1 $292 128.48985564884254 $412 133.4073915829951 $181 $414 forward 7 unknown #
coedge $-1 $182 $404 $410 $415 forward $290 $-1 #
loop $-1 $-1 $404 $278 #
vertex $-1 $287 $416 #
vertex $-1 $183 $417 #
straight-curve $-1 28.414826959560266 -4.0690264223610182 8.768458392460019 -1 0 0 I I #
coedge $-1 $294 $294 $-1 $418 reversed $186 $-1 #
edge $-1 $419 0 $419 6.2831853071796004 $187 $420 forward 7 unknown #
vertex $-1 $190 $421 #
ellipse-curve $-1 64.876475117531584 -11.876896628630295 7.123221471967474 0.66913061440640931 0 0.74314481823134659 0.74314481823134659 0 -0.66913061440640931 1 I I #
coedge $-1 $298 $298 $-1 $422 reversed $193 $-1 #
edge $-1 $423 0 $423 6.2831853071796004 $194 $424 forward 7 unknown #
vertex $-1 $197 $425 #
ellipse-curve $-1 64.876475117531584 -7.1921745048687313 7.123221471967474 0.66913061440640931 0 0.74314481823134659 0.74314481823134659 0 -0.66913061440640931 1 I I #
face $-1 $-1 $314 $41 $-1 $426 forward single #
loop $-1 $-1 $427 $198 #
plane-surface $-1 66.703695791497552 0 0 -1 0 0 0 0 1 forward_v I I I I #
coedge $-1 $428 $429 $430 $431 reversed $199 $-1 #
coedge $-1 $432 $201 $203 $312 forward $125 $-1 #
coedge $-1 $201 $432 $428 $433 forward $125 $-1 #
coedge $-1 $430 $204 $201 $309 forward $314 $-1 #
edge $-1 $316 -13.869480796321106 $434 -2.9384625075441217 $308 $435 forward 7 unknown #
coedge $-1 $436 $437 $202 $311 forward $303 $-1 #
edge $-1 $438 -91.464998556737015 $315 -88.1745247157519 $310 $439 forward 7 unknown #
edge $-1 $316 128.48985564884254 $438 133.4073915829951 $203 $440 forward 7 unknown #
coedge $-1 $204 $430 $436 $441 forward $314 $-1 #
loop $-1 $-1 $430 $302 #
vertex $-1 $311 $442 #
vertex $-1 $205 $443 #
straight-curve $-1 28.414826959560266 22.273452448253721 8.768458392460019 -1 0 0 I I #
coedge $-1 $318 $318 $-1 $444 reversed $208 $-1 #
edge $-1 $445 0 $445 6.2831853071796004 $209 $446 forward 7 unknown #
vertex $-1 $212 $447 #
ellipse-curve $-1 64.876475117531584 14.465582241984443 7.123221471967474 0.66913061440640931 0 0.74314481823134659 0.74314481823134659 0 -0.66913061440640931 1 I I #
coedge $-1 $322 $322 $-1 $448 reversed $215 $-1 #
edge $-1 $449 0 $449 6.2831853071796004 $216 $450 forward 7 unknown #
vertex $-1 $219 $451 #
ellipse-curve $-1 64.876475117531584 19.15030436574601 7.123221471967474 0.66913061440640931 0 0.74314481823134659 0.74314481823134659 0 -0.66913061440640931 1 I I #
face $-1 $-1 $235 $33 $-1 $452 reversed single #
loop $-1 $-1 $342 $220 #
plane-surface $-1 0 40.352814728127065 0 0 -1 0 0 0 -1 forward_v I I I I #
coedge $-1 $453 $340 $343 $454 forward $221 $-1 #
coedge $-1 $346 $223 $224 $334 reversed $139 $-1 #
coedge $-1 $340 $453 $223 $332 reversed $221 $-1 #
edge $-1 $347 -8.7684583924600208 $455 8.7684583924600208 $331 $456 forward 7 unknown #
coedge $-1 $225 $224 $453 $457 forward $89 $-1 #
edge $-1 $338 -66.703695791497552 $455 66.703695791497552 $330 $458 forward 7 unknown #
coedge $-1 $343 $342 $225 $336 reversed $327 $-1 #
edge $-1 $459 -66.703695791497552 $337 66.703695791497552 $335 $460 forward 7 unknown #
vertex $-1 $227 $461 #
vertex $-1 $349 $462 #
straight-curve $-1 66.703695791497552 0 -8.7684583924600208 0 -1 0 I I #
coedge $-1 $329 $331 $228 $341 reversed $221 $-1 #
edge $-1 $344 -40.352814728127065 $347 40.352814728127065 $340 $463 forward 7 unknown #
coedge $-1 $335 $229 $234 $350 forward $327 $-1 #
coedge $-1 $229 $335 $329 $454 reversed $327 $-1 #
vertex $-1 $230 $464 #
straight-curve $-1 0 40.352814728127065 8.7684583924600208 -1 0 0 I I #
coedge $-1 $231 $330 $233 $349 reversed $139 $-1 #
vertex $-1 $341 $465 #
straight-curve $-1 0 -40.352814728127065 8.7684583924600208 1 0 0 I I #
edge $-1 $236 -8.7684583924600208 $338 8.7684583924600208 $233 $466 forward 7 unknown #
edge $-1 $237 -8.7684583924600208 $337 8.7684583924600208 $234 $467 forward 7 unknown #
point $-1 66.703695791497552 -40.352814728127065 8.7684583924600208 #
point $-1 66.703695791497552 40.352814728127065 8.7684583924600208 #
face $-1 $-1 $468 $34 $-1 $469 reversed single #
loop $-1 $-1 $249 $239 #
plane-surface $-1 0 -40.352814728127065 0 0 1 0 0 0 1 forward_v I I I I #
coedge $-1 $470 $242 $360 $471 forward $147 $-1 #
coedge $-1 $242 $470 $472 $473 forward $147 $-1 #
edge $-1 $474 -66.703695791497552 $361 66.703695791497552 $242 $475 forward 7 unknown #
coedge $-1 $244 $243 $476 $477 reversed $93 $-1 #
coedge $-1 $245 $251 $356 $471 reversed $240 $-1 #
vertex $-1 $471 $478 #
straight-curve $-1 66.703695791497552 -33.079406991011361 -3.308275368248089 0 0 1 I I #
coedge $-1 $476 $479 $247 $364 forward $468 $-1 #
edge $-1 $369 -21.994759298342458 $365 -14.721351561226754 $363 $480 forward 7 unknown #
vertex $-1 $364 $481 #
straight-curve $-1 0 -33.079406991011361 -4.4646430805323352 -1 0 0 I I #
coedge $-1 $482 $249 $479 $483 forward $354 $-1 #
coedge $-1 $249 $482 $251 $371 reversed $354 $-1 #
vertex $-1 $483 $484 #
straight-curve $-1 0 -40.352814728127065 -4.4646430805323352 -1 0 0 I I #
edge $-1 $253 4.4646430805323352 $485 8.7684583924600208 $251 $486 forward 7 unknown #
point $-1 66.703695791497552 -33.079406991011361 -4.4646430805323352 #
point $-1 66.703695791497552 -40.352814728127065 -4.4646430805323352 #
loop $-1 $-1 $263 $255 #
plane-surface $-1 -66.703695791497552 0 0 1 0 0 0 0 -1 forward_v I I I I #
coedge $-1 $377 $258 $260 $381 reversed $155 $-1 #
coedge $-1 $258 $376 $487 $488 reversed $155 $-1 #
coedge $-1 $266 $261 $258 $379 forward $256 $-1 #
edge $-1 $382 -11.434857656280336 $489 -3.9483859109074189 $378 $490 forward 7 unknown #
coedge $-1 $260 $259 $385 $491 reversed $97 $-1 #
edge $-1 $492 -1.7244626260799089e-014 $382 9.0303166436323519 $376 $493 forward 7 unknown #
vertex $-1 $262 $494 #
straight-curve $-1 -59.217224046124642 -13.975223161060867 8.768458392460019 0 1 0 I I #
coedge $-1 $487 $263 $266 $389 reversed $374 $-1 #
coedge $-1 $263 $487 $380 $491 forward $374 $-1 #
vertex $-1 $264 $495 #
straight-curve $-1 -66.703695791497552 -33.079406991011354 57.159254384254261 0 0 1 I I #
straight-curve $-1 -66.703695791497537 -33.079406991011354 3.7187693436178364 -0.82903756765294845 0 -0.55919291073839883 I I #
edge $-1 $489 22.821485653232116 $267 33.079406991011354 $384 $496 forward 7 unknown #
point $-1 -66.703695791497552 -33.079406991011354 8.7684583924600208 #
point $-1 -59.217224046124635 -33.079406991011354 8.7684583924600208 #
edge $-1 $497 1 $497 0 $270 $-1 forward 7 unknown #
vertex $-1 $271 $498 #
ellipse-curve $-1 -62.0051542528266 -30.148572323074429 4.8273150014329875 -0.55919291073839883 0 0.82903756765294845 0.82903756765294845 0 0.55919291073839883 1 I I #
point $-1 -62.13142235115815 -30.148572323074429 6.802806778777323 #
edge $-1 $499 1 $499 0 $274 $-1 forward 7 unknown #
vertex $-1 $275 $500 #
ellipse-curve $-1 -62.0051542528266 -25.752320321169041 4.8273150014329875 -0.55919291073839883 0 0.82903756765294845 0.82903756765294845 0 0.55919291073839883 1 I I #
point $-1 -62.13142235115815 -25.752320321169041 6.802806778777323 #
plane-surface $-1 0 0 8.7684583924600208 0 0 1 1 0 0 forward_v I I I I #
coedge $-1 $411 $410 $403 $501 forward $279 $-1 #
coedge $-1 $403 $281 $283 $407 reversed $177 $-1 #
coedge $-1 $281 $402 $401 $501 reversed $177 $-1 #
coedge $-1 $289 $284 $281 $405 forward $290 $-1 #
edge $-1 $408 34.63442748400535 $502 38.288868831937286 $404 $503 forward 7 unknown #
coedge $-1 $283 $282 $411 $504 reversed $111 $-1 #
edge $-1 $505 -133.4073915829951 $408 -128.48985564884254 $402 $506 forward 7 unknown #
vertex $-1 $285 $507 #
straight-curve $-1 63.049254443565623 -4.7672677833747557 8.768458392460019 0 -1 0 I I #
coedge $-1 $401 $286 $289 $415 reversed $279 $-1 #
coedge $-1 $286 $401 $406 $504 forward $279 $-1 #
vertex $-1 $287 $508 #
straight-curve $-1 66.703695791497552 -4.0690264223610182 96.942983108211919 0 0 1 I I #
straight-curve $-1 -32.437315977165426 -4.0690264223610182 94.744954447760861 0.74314481823134659 0 -0.66913061440640931 I I #
edge $-1 $502 -15.000044711138004 $291 -4.0690264223610182 $410 $509 forward 7 unknown #
point $-1 66.703695791497552 -4.0690264223610182 8.7684583924600208 #
point $-1 63.049254443565616 -4.0690264223610182 8.768458392460019 #
edge $-1 $510 1 $510 0 $294 $-1 forward 7 unknown #
vertex $-1 $295 $511 #
ellipse-curve $-1 62.64263625801081 -11.876896628630295 4.642292132500117 0.66913061440640931 0 0.74314481823134659 0.74314481823134659 0 -0.66913061440640931 1 I I #
point $-1 65.619619935762927 -11.876896628630295 6.4540908575610691 #
edge $-1 $512 1 $512 0 $298 $-1 forward 7 unknown #
vertex $-1 $299 $513 #
ellipse-curve $-1 62.64263625801081 -7.1921745048687313 4.642292132500117 0.66913061440640931 0 0.74314481823134659 0.74314481823134659 0 -0.66913061440640931 1 I I #
point $-1 65.619619935762927 -7.1921745048687313 6.4540908575610691 #
plane-surface $-1 0 0 8.7684583924600208 0 0 1 1 0 0 forward_v I I I I #
coedge $-1 $437 $436 $429 $514 forward $303 $-1 #
coedge $-1 $429 $305 $307 $433 reversed $199 $-1 #
coedge $-1 $305 $428 $427 $514 reversed $199 $-1 #
coedge $-1 $313 $308 $305 $431 forward $314 $-1 #
edge $-1 $434 34.63442748400535 $515 38.288868831937286 $430 $516 forward 7 unknown #
coedge $-1 $307 $306 $437 $517 reversed $125 $-1 #
edge $-1 $518 -133.4073915829951 $434 -128.48985564884254 $428 $519 forward 7 unknown #
vertex $-1 $309 $520 #
straight-curve $-1 63.049254443565623 8.4039716519326149 8.768458392460019 0 -1 0 I I #
coedge $-1 $427 $310 $313 $441 reversed $303 $-1 #
coedge $-1 $310 $427 $432 $517 forward $303 $-1 #
vertex $-1 $311 $521 #
straight-curve $-1 66.703695791497552 22.273452448253721 96.942983108211919 0 0 1 I I #
straight-curve $-1 -32.437315977165426 22.273452448253721 94.744954447760861 0.74314481823134659 0 -0.66913061440640931 I I #
edge $-1 $515 11.342434159476737 $315 22.273452448253721 $436 $522 forward 7 unknown #
point $-1 66.703695791497552 22.273452448253721 8.7684583924600208 #
point $-1 63.049254443565616 22.273452448253721 8.768458392460019 #
edge $-1 $523 1 $523 0 $318 $-1 forward 7 unknown #
vertex $-1 $319 $524 #
ellipse-curve $-1 62.64263625801081 14.465582241984443 4.642292132500117 0.66913061440640931 0 0.74314481823134659 0.74314481823134659 0 -0.66913061440640931 1 I I #
point $-1 65.619619935762927 14.465582241984443 6.4540908575610691 #
edge $-1 $525 1 $525 0 $322 $-1 forward 7 unknown #
vertex $-1 $323 $526 #
ellipse-curve $-1 62.64263625801081 19.15030436574601 4.642292132500117 0.66913061440640931 0 0.74314481823134659 0.74314481823134659 0 -0.66913061440640931 1 I I #
point $-1 65.619619935762927 19.15030436574601 6.4540908575610691 #
plane-surface $-1 66.703695791497552 0 0 -1 0 0 0 0 1 forward_v I I I I #
coedge $-1 $331 $329 $333 $457 reversed $221 $-1 #
edge $-1 $344 -8.7684583924600208 $459 8.7684583924600208 $343 $527 forward 7 unknown #
vertex $-1 $457 $528 #
straight-curve $-1 -66.703695791497552 -40.352814728127065 0 0 0 -1 I I #
edge $-1 $455 -40.352814728127065 $459 40.352814728127065 $453 $529 forward 7 unknown #
straight-curve $-1 0 -40.352814728127065 -8.7684583924600208 -1 0 0 I I #
vertex $-1 $336 $530 #
straight-curve $-1 0 40.352814728127065 -8.7684583924600208 1 0 0 I I #
point $-1 66.703695791497552 40.352814728127065 -8.7684583924600208 #
point $-1 66.703695791497552 -40.352814728127065 -8.7684583924600208 #
straight-curve $-1 -66.703695791497552 0 8.7684583924600208 0 -1 0 I I #
point $-1 -66.703695791497552 40.352814728127065 8.7684583924600208 #
point $-1 -66.703695791497552 -40.352814728127065 8.7684583924600208 #
straight-curve $-1 66.703695791497552 -40.352814728127065 0 0 0 -1 I I #
straight-curve $-1 66.703695791497552 40.352814728127065 0 0 0 -1 I I #
loop $-1 $-1 $476 $353 #
plane-surface $-1 -66.703695791497552 0 0 1 0 0 0 0 -1 forward_v I I I I #
coedge $-1 $357 $356 $482 $531 forward $147 $-1 #
edge $-1 $361 33.079406991011361 $485 40.352814728127065 $360 $532 forward 7 unknown #
coedge $-1 $479 $476 $357 $473 reversed $468 $-1 #
edge $-1 $533 -40.352814728127065 $474 -33.079406991011361 $472 $534 forward 7 unknown #
vertex $-1 $477 $535 #
straight-curve $-1 0 -33.079406991011361 -8.7684583924600208 1 0 0 I I #
coedge $-1 $472 $363 $359 $477 forward $468 $-1 #
edge $-1 $365 1.1563677122842462 $474 5.4601830242119318 $476 $536 forward 7 unknown #
point $-1 66.703695791497552 -33.079406991011361 -8.7684583924600208 #
coedge $-1 $363 $472 $367 $483 reversed $468 $-1 #
straight-curve $-1 -66.703695791497552 -18.358055429784606 -4.4646430805323352 0 1 0 I I #
point $-1 -66.703695791497552 -33.079406991011361 -4.4646430805323352 #
coedge $-1 $368 $367 $470 $531 reversed $354 $-1 #
edge $-1 $369 4.4646430805323352 $533 8.7684583924600208 $479 $537 forward 7 unknown #
point $-1 -66.703695791497552 -40.352814728127065 -4.4646430805323352 #
vertex $-1 $371 $538 #
straight-curve $-1 66.703695791497552 -40.352814728127065 0 0 0 -1 I I #
coedge $-1 $385 $384 $377 $488 forward $374 $-1 #
edge $-1 $489 48.390795991794242 $492 53.440485040636432 $487 $539 forward 7 unknown #
vertex $-1 $389 $540 #
straight-curve $-1 -70.652081702404971 -22.821485653232116 8.768458392460019 -1 0 0 I I #
edge $-1 $492 8.8462624921712489 $386 19.104183829950486 $385 $541 forward 7 unknown #
vertex $-1 $491 $542 #
straight-curve $-1 -66.703695791497537 -22.821485653232116 3.7187693436178364 0.82903756765294845 0 0.55919291073839883 I I #
point $-1 -59.217224046124635 -22.821485653232116 8.7684583924600208 #
point $-1 -66.703695791497552 -33.079406991011354 3.7187693436178266 #
straight-curve $-1 -66.703695791497552 0 8.7684583924600208 0 -1 0 I I #
vertex $-1 $392 $543 #
point $-1 -61.176116685173646 -30.148572323074429 5.3865079121713864 #
vertex $-1 $396 $544 #
point $-1 -61.176116685173646 -25.752320321169041 5.3865079121713864 #
edge $-1 $502 88.1745247157519 $505 91.464998556737015 $401 $545 forward 7 unknown #
vertex $-1 $415 $546 #
straight-curve $-1 28.414826959560266 -15.000044711138004 8.768458392460019 1 0 0 I I #
edge $-1 $505 -10.232776927763249 $412 0.69824136101373746 $411 $547 forward 7 unknown #
vertex $-1 $504 $548 #
straight-curve $-1 -32.437315977165426 -15.000044711138004 94.744954447760861 -0.74314481823134659 0 0.66913061440640931 I I #
point $-1 63.049254443565616 -15.000044711138004 8.768458392460019 #
point $-1 66.703695791497552 -4.0690264223610182 5.4779845514749042 #
straight-curve $-1 66.703695791497552 0 8.7684583924600208 0 1 0 I I #
vertex $-1 $418 $549 #
point $-1 63.385781076242154 -11.876896628630295 3.9731615180937077 #
vertex $-1 $422 $550 #
point $-1 63.385781076242154 -7.1921745048687313 3.9731615180937077 #
edge $-1 $515 88.1745247157519 $518 91.464998556737015 $427 $551 forward 7 unknown #
vertex $-1 $441 $552 #
straight-curve $-1 28.414826959560266 11.342434159476737 8.768458392460019 1 0 0 I I #
edge $-1 $518 2.9384625075441217 $438 13.869480796321106 $437 $553 forward 7 unknown #
vertex $-1 $517 $554 #
straight-curve $-1 -32.437315977165426 11.342434159476737 94.744954447760861 -0.74314481823134659 0 0.66913061440640931 I I #
point $-1 63.049254443565616 11.342434159476737 8.768458392460019 #
point $-1 66.703695791497552 22.273452448253721 5.4779845514749042 #
straight-curve $-1 66.703695791497552 0 8.7684583924600208 0 1 0 I I #
vertex $-1 $444 $555 #
point $-1 63.385781076242154 14.465582241984443 3.9731615180937077 #
vertex $-1 $448 $556 #
point $-1 63.385781076242154 19.15030436574601 3.9731615180937077 #
straight-curve $-1 -66.703695791497552 40.352814728127065 0 0 0 -1 I I #
point $-1 -66.703695791497552 -40.352814728127065 -8.7684583924600208 #
straight-curve $-1 -66.703695791497552 0 -8.7684583924600208 0 1 0 I I #
point $-1 -66.703695791497552 40.352814728127065 -8.7684583924600208 #
edge $-1 $485 -66.703695791497552 $533 66.703695791497552 $482 $557 forward 7 unknown #
straight-curve $-1 66.703695791497552 0 -8.7684583924600208 0 -1 0 I I #
vertex $-1 $473 $558 #
straight-curve $-1 -66.703695791497552 0 -8.7684583924600208 0 1 0 I I #
point $-1 -66.703695791497552 -33.079406991011361 -8.7684583924600208 #
straight-curve $-1 -66.703695791497552 -33.079406991011361 -3.308275368248089 0 0 -1 I I #
straight-curve $-1 -66.703695791497552 -40.352814728127065 0 0 0 -1 I I #
point $-1 66.703695791497552 -40.352814728127065 -8.7684583924600208 #
straight-curve $-1 -66.703695791497552 -22.821485653232116 57.159254384254261 0 0 -1 I I #
point $-1 -66.703695791497552 -22.821485653232116 8.7684583924600208 #
straight-curve $-1 -66.703695791497552 -13.975223161060867 3.7187693436178337 0 -1 0 I I #
point $-1 -66.703695791497552 -22.821485653232116 3.7187693436178266 #
point $-1 -61.445961342088196 -30.148572323074429 3.9982774337800375 #
point $-1 -61.445961342088196 -25.752320321169041 3.9982774337800375 #
straight-curve $-1 66.703695791497552 -15.000044711138004 96.942983108211919 0 0 -1 I I #
point $-1 66.703695791497552 -15.000044711138004 8.7684583924600208 #
straight-curve $-1 66.703695791497552 -4.7672677833747557 5.4779845514749042 0 1 0 I I #
point $-1 66.703695791497552 -15.000044711138004 5.4779845514749042 #
point $-1 61.973505643604398 -11.876896628630295 3.8991473142687703 #
point $-1 61.973505643604398 -7.1921745048687313 3.8991473142687703 #
straight-curve $-1 66.703695791497552 11.342434159476737 96.942983108211919 0 0 -1 I I #
point $-1 66.703695791497552 11.342434159476737 8.7684583924600208 #
straight-curve $-1 66.703695791497552 8.4039716519326149 5.4779845514749042 0 1 0 I I #
point $-1 66.703695791497552 11.342434159476737 5.4779845514749042 #
point $-1 61.973505643604398 14.465582241984443 3.8991473142687703 #
point $-1 61.973505643604398 19.15030436574601 3.8991473142687703 #
straight-curve $-1 0 -40.352814728127065 -8.7684583924600208 -1 0 0 I I #
point $-1 -66.703695791497552 -40.352814728127065 -8.7684583924600208 #
End-of-ACIS-data 