500 0 10 0           
7 Unknown 11 ACIS 5.0 NT 24 Fri Mar 26 14:28:32 1999 
-1 9.9999999999999995e-007 1e-010 
body $-1 $10 $-1 $11 #
body $-1 $12 $-1 $13 #
body $-1 $14 $-1 $15 #
body $-1 $16 $-1 $17 #
body $-1 $18 $-1 $19 #
body $-1 $20 $-1 $21 #
body $-1 $22 $-1 $23 #
body $-1 $24 $-1 $25 #
body $-1 $26 $-1 $27 #
body $-1 $28 $-1 $29 #
lump $-1 $-1 $30 $0 #
transform $-1 1 0 0 0 1 0 0 0 1 67.077242347483747 40.56712557987764 16.053523483051773 1 rotate no_reflect no_shear #
lump $-1 $-1 $31 $1 #
transform $-1 1 0 0 0 1 0 0 0 1 67.077242347483747 40.56712557987764 16.053523483051773 1 rotate no_reflect no_shear #
lump $-1 $-1 $32 $2 #
transform $-1 1 0 0 0 1 0 0 0 1 67.077242347483747 40.56712557987764 16.053523483051773 1 rotate no_reflect no_shear #
lump $-1 $-1 $33 $3 #
transform $-1 1 0 0 0 1 0 0 0 1 67.077242347483747 40.56712557987764 16.053523483051773 1 rotate no_reflect no_shear #
lump $-1 $-1 $34 $4 #
transform $-1 1 0 0 0 1 0 0 0 1 67.077242347483747 40.56712557987764 16.053523483051773 1 rotate no_reflect no_shear #
lump $-1 $-1 $35 $5 #
transform $-1 1 0 0 0 1 0 0 0 1 67.077242347483747 40.56712557987764 16.053523483051773 1 rotate no_reflect no_shear #
lump $-1 $-1 $36 $6 #
transform $-1 1 0 0 0 1 0 0 0 1 67.077242347483747 40.56712557987764 16.053523483051773 1 rotate no_reflect no_shear #
lump $-1 $-1 $37 $7 #
transform $-1 1 0 0 0 1 0 0 0 1 67.077242347483747 40.56712557987764 16.053523483051773 1 rotate no_reflect no_shear #
lump $-1 $-1 $38 $8 #
transform $-1 1 0 0 0 1 0 0 0 1 67.077242347483747 40.56712557987764 16.053523483051773 1 rotate no_reflect no_shear #
lump $-1 $-1 $39 $9 #
transform $-1 1 0 0 0 1 0 0 0 1 67.077242347483747 40.56712557987764 16.053523483051773 1 rotate no_reflect no_shear #
shell $-1 $-1 $-1 $40 $-1 $10 #
shell $-1 $-1 $-1 $41 $-1 $12 #
shell $-1 $-1 $-1 $42 $-1 $14 #
shell $-1 $-1 $-1 $43 $-1 $16 #
shell $-1 $-1 $-1 $44 $-1 $18 #
shell $-1 $-1 $-1 $45 $-1 $20 #
shell $-1 $-1 $-1 $46 $-1 $22 #
shell $-1 $-1 $-1 $47 $-1 $24 #
shell $-1 $-1 $-1 $48 $-1 $26 #
shell $-1 $-1 $-1 $49 $-1 $28 #
face $-1 $50 $51 $30 $-1 $52 forward single #
face $-1 $53 $54 $31 $-1 $55 forward single #
face $-1 $56 $57 $32 $-1 $58 forward single #
face $-1 $59 $60 $33 $-1 $61 reversed single #
face $-1 $62 $63 $34 $-1 $64 forward single #
face $-1 $65 $66 $35 $-1 $67 reversed single #
face $-1 $68 $69 $36 $-1 $70 forward single #
face $-1 $71 $72 $37 $-1 $73 reversed single #
face $-1 $74 $75 $38 $-1 $76 forward single #
face $-1 $77 $78 $39 $-1 $79 forward single #
face $-1 $80 $81 $30 $-1 $82 reversed single #
loop $-1 $-1 $83 $40 #
plane-surface $-1 0 0 16.053523483051773 0 0 1 1 0 0 forward_v I I I I #
face $-1 $84 $85 $31 $-1 $86 reversed single #
loop $-1 $-1 $87 $41 #
plane-surface $-1 0 -33.681796941033696 11.066575074769043 0 0 1 1 0 0 forward_v I I I I #
face $-1 $88 $89 $32 $-1 $90 reversed single #
loop $-1 $-1 $91 $42 #
plane-surface $-1 0 33.681796941033696 11.066575074769043 0 0 1 1 0 0 forward_v I I I I #
face $-1 $92 $93 $33 $-1 $94 reversed single #
loop $-1 $-1 $95 $43 #
plane-surface $-1 -183.2584351626258 -12.443869404885668 79.825211113758058 0 -1 0 0.86602541151947299 0 -0.49999998660252726 forward_v I I I I #
face $-1 $96 $97 $34 $-1 $98 forward single #
loop $-1 $99 $100 $44 #
cone-surface $-1 -65.689998741883954 -17.276211982882142 14.150747030027301 0.86602541151947299 0 -0.49999998660252726 0.24999999330126363 0 0.43301270575973649 1 I I 0 1 0.5 forward I I I I #
face $-1 $101 $102 $35 $-1 $103 reversed single #
loop $-1 $-1 $104 $45 #
plane-surface $-1 -183.2584351626258 14.35259889730408 79.825211113758058 0 -1 0 0.86602541151947299 0 -0.49999998660252726 forward_v I I I I #
face $-1 $105 $106 $36 $-1 $107 forward single #
loop $-1 $108 $109 $46 #
cone-surface $-1 -65.689998741883954 9.520256319307606 14.150747030027301 0.86602541151947299 0 -0.49999998660252726 0.24999999330126363 0 0.43301270575973649 1 I I 0 1 0.5 forward I I I I #
face $-1 $110 $111 $37 $-1 $112 reversed single #
loop $-1 $-1 $113 $47 #
plane-surface $-1 70.388369104370071 12.365273766810972 189.70096828307584 0 1 0 0.71933980857756763 0 0.69465836192734942 forward_v I I I I #
face $-1 $114 $115 $38 $-1 $116 forward single #
loop $-1 $117 $118 $48 #
cone-surface $-1 58.280740856993283 16.488472205490623 7.0177024916415967 -0.71933980857756763 0 -0.69465836192734942 1.0419875428910241 0 -1.0790097128663514 1 I I 0 1 1.5 forward I I I I #
face $-1 $119 $120 $39 $-1 $121 forward single #
loop $-1 $122 $123 $49 #
cone-surface $-1 58.280740856993283 22.6732698635101 7.0177024916415967 -0.71933980857756763 0 -0.69465836192734942 1.0419875428910241 0 -1.0790097128663514 1 I I 0 1 1.5 forward I I I I #
face $-1 $124 $125 $30 $-1 $126 reversed single #
loop $-1 $-1 $127 $50 #
plane-surface $-1 0 0 -16.053523483051773 0 0 1 1 0 0 forward_v I I I I #
coedge $-1 $128 $129 $130 $131 forward $51 $-1 #
face $-1 $132 $133 $31 $-1 $134 reversed single #
loop $-1 $-1 $135 $53 #
plane-surface $-1 0 -33.681796941033696 7.0412154250772812 0 0 1 1 0 0 forward_v I I I I #
coedge $-1 $136 $137 $138 $139 reversed $54 $-1 #
face $-1 $140 $141 $32 $-1 $142 reversed single #
loop $-1 $-1 $143 $56 #
plane-surface $-1 0 33.681796941033696 7.0412154250772812 0 0 1 1 0 0 forward_v I I I I #
coedge $-1 $144 $145 $146 $147 reversed $57 $-1 #
face $-1 $148 $149 $33 $-1 $150 reversed single #
loop $-1 $-1 $151 $59 #
plane-surface $-1 -67.077242347483732 -17.276211982882142 12.747970563605364 -0.86602541151947299 0 0.49999998660252726 0.49999998660252726 0 0.86602541151947299 forward_v I I I I #
coedge $-1 $152 $153 $154 $155 reversed $60 $-1 #
face $-1 $-1 $156 $34 $-1 $157 forward single #
loop $-1 $158 $159 $62 #
cone-surface $-1 -65.040479683244357 -17.276211982882142 13.775747040075405 0.86602541151947299 0 -0.49999998660252726 0.12499999665063181 0 0.21650635287986825 1 I I -0.70710678118654746 0.70710678118654746 0.25 forward I I I I #
loop $-1 $-1 $160 $44 #
coedge $-1 $100 $100 $161 $162 reversed $63 $-1 #
face $-1 $163 $164 $35 $-1 $165 reversed single #
loop $-1 $-1 $166 $65 #
plane-surface $-1 -67.077242347483732 9.520256319307606 12.747970563605364 -0.86602541151947299 0 0.49999998660252726 0.49999998660252726 0 0.86602541151947299 forward_v I I I I #
coedge $-1 $167 $168 $169 $170 reversed $66 $-1 #
face $-1 $-1 $171 $36 $-1 $172 forward single #
loop $-1 $173 $174 $68 #
cone-surface $-1 -65.040479683244357 9.520256319307606 13.775747040075405 0.86602541151947299 0 -0.49999998660252726 0.12499999665063181 0 0.21650635287986825 1 I I -0.70710678118654746 0.70710678118654746 0.25 forward I I I I #
loop $-1 $-1 $175 $46 #
coedge $-1 $109 $109 $176 $177 reversed $69 $-1 #
face $-1 $178 $179 $37 $-1 $180 forward single #
loop $-1 $-1 $181 $71 #
plane-surface $-1 -26.114292235930066 19.580871034500362 96.509433699662054 0.71933980857756763 0 0.69465836192734942 0.69465836192734942 0 -0.71933980857756763 forward_v I I I I #
coedge $-1 $182 $183 $184 $185 reversed $72 $-1 #
face $-1 $-1 $186 $38 $-1 $187 forward single #
loop $-1 $188 $189 $74 #
cone-surface $-1 56.692818042302136 16.488472205490623 5.4842632906308388 -0.71933980857756763 0 -0.69465836192734942 0.52099377144551207 0 -0.53950485643317569 1 I I -0.70710678118654757 0.70710678118654757 0.75 forward I I I I #
loop $-1 $-1 $190 $48 #
coedge $-1 $118 $118 $191 $192 reversed $75 $-1 #
face $-1 $-1 $193 $39 $-1 $194 forward single #
loop $-1 $195 $196 $77 #
cone-surface $-1 56.692818042302136 22.6732698635101 5.4842632906308388 -0.71933980857756763 0 -0.69465836192734942 0.52099377144551207 0 -0.53950485643317569 1 I I -0.70710678118654757 0.70710678118654757 0.75 forward I I I I #
loop $-1 $-1 $197 $49 #
coedge $-1 $123 $123 $198 $199 reversed $78 $-1 #
face $-1 $200 $201 $30 $-1 $202 reversed single #
loop $-1 $-1 $203 $80 #
plane-surface $-1 0 -40.56712557987764 0 0 1 0 0 0 1 forward_v I I I I #
coedge $-1 $204 $205 $206 $207 forward $81 $-1 #
coedge $-1 $208 $83 $209 $210 forward $51 $-1 #
coedge $-1 $83 $208 $211 $212 forward $51 $-1 #
coedge $-1 $213 $214 $83 $131 reversed $215 $-1 #
edge $-1 $216 -40.56712557987764 $217 40.56712557987764 $130 $218 forward 7 unknown #
face $-1 $219 $220 $31 $-1 $221 reversed single #
loop $-1 $-1 $222 $84 #
plane-surface $-1 0 -26.796468302189751 9.053895249923162 0 -1 0 0 0 -1 forward_v I I I I #
coedge $-1 $223 $224 $225 $226 reversed $85 $-1 #
coedge $-1 $227 $87 $228 $229 forward $54 $-1 #
coedge $-1 $87 $227 $230 $231 reversed $54 $-1 #
coedge $-1 $232 $233 $87 $139 forward $234 $-1 #
edge $-1 $235 9.9555698316729035 $236 23.726227109360792 $138 $237 forward 7 unknown #
face $-1 $238 $239 $32 $-1 $240 reversed single #
loop $-1 $-1 $241 $88 #
plane-surface $-1 0 26.796468302189751 9.053895249923162 0 1 0 0 0 1 forward_v I I I I #
coedge $-1 $242 $243 $244 $245 reversed $89 $-1 #
coedge $-1 $246 $91 $247 $248 reversed $57 $-1 #
coedge $-1 $91 $246 $241 $249 forward $57 $-1 #
coedge $-1 $250 $251 $91 $147 forward $239 $-1 #
edge $-1 $252 -23.726227109360792 $253 -9.9555698316729035 $146 $254 forward 7 unknown #
face $-1 $255 $256 $33 $-1 $257 reversed single #
loop $-1 $-1 $258 $92 #
plane-surface $-1 -183.2584351626258 -22.108554560878616 79.825211113758058 0 1 0 -0.86602541151947299 0 0.49999998660252726 forward_v I I I I #
coedge $-1 $259 $260 $261 $262 reversed $93 $-1 #
coedge $-1 $153 $95 $263 $264 reversed $60 $-1 #
coedge $-1 $95 $152 $259 $265 reversed $60 $-1 #
coedge $-1 $261 $266 $95 $155 forward $256 $-1 #
edge $-1 $267 23.859082073827256 $268 27.16463499327369 $154 $269 forward 7 unknown #
loop $-1 $-1 $161 $96 #
plane-surface $-1 -67.077242347483732 -17.276211982882142 12.747970563605364 -0.86602541151947299 0 0.49999998660252726 0.49999998660252726 0 0.86602541151947299 forward_v I I I I #
loop $-1 $-1 $270 $62 #
coedge $-1 $159 $159 $160 $271 reversed $97 $-1 #
coedge $-1 $160 $160 $159 $271 forward $99 $-1 #
coedge $-1 $161 $161 $100 $162 forward $156 $-1 #
edge $-1 $272 0 $272 6.2831853071796004 $161 $273 forward 7 unknown #
face $-1 $274 $275 $35 $-1 $276 forward single #
loop $-1 $-1 $277 $101 #
plane-surface $-1 -183.2584351626258 4.6879137413111316 79.825211113758058 0 1 0 -0.86602541151947299 0 0.49999998660252726 forward_v I I I I #
coedge $-1 $278 $279 $280 $281 reversed $102 $-1 #
coedge $-1 $168 $104 $282 $283 reversed $66 $-1 #
coedge $-1 $104 $167 $278 $284 reversed $66 $-1 #
coedge $-1 $280 $285 $104 $170 forward $286 $-1 #
edge $-1 $287 23.859082073827256 $288 27.16463499327369 $169 $289 forward 7 unknown #
loop $-1 $-1 $176 $105 #
plane-surface $-1 -67.077242347483732 9.520256319307606 12.747970563605364 -0.86602541151947299 0 0.49999998660252726 0.49999998660252726 0 0.86602541151947299 forward_v I I I I #
loop $-1 $-1 $290 $68 #
coedge $-1 $174 $174 $175 $291 reversed $106 $-1 #
coedge $-1 $175 $175 $174 $291 forward $108 $-1 #
coedge $-1 $176 $176 $109 $177 forward $171 $-1 #
edge $-1 $292 0 $292 6.2831853071796004 $176 $293 forward 7 unknown #
face $-1 $294 $295 $37 $-1 $296 forward single #
loop $-1 $-1 $297 $110 #
plane-surface $-1 0 0 16.053523483051773 0 0 1 1 0 0 forward_v I I I I #
coedge $-1 $298 $299 $300 $301 reversed $111 $-1 #
coedge $-1 $183 $113 $302 $303 reversed $72 $-1 #
coedge $-1 $113 $182 $298 $304 reversed $72 $-1 #
coedge $-1 $300 $305 $113 $185 forward $306 $-1 #
edge $-1 $307 78.796960658486142 $308 94.84371178217603 $184 $309 forward 7 unknown #
loop $-1 $-1 $191 $114 #
plane-surface $-1 -26.114292235930066 19.580871034500362 96.509433699662054 0.71933980857756763 0 0.69465836192734942 0.69465836192734942 0 -0.71933980857756763 forward_v I I I I #
loop $-1 $-1 $310 $74 #
coedge $-1 $189 $189 $190 $311 reversed $115 $-1 #
coedge $-1 $190 $190 $189 $311 forward $117 $-1 #
coedge $-1 $191 $191 $118 $192 forward $186 $-1 #
edge $-1 $312 0 $312 6.2831853071796004 $191 $313 forward 7 unknown #
loop $-1 $-1 $198 $119 #
plane-surface $-1 -26.114292235930066 19.580871034500362 96.509433699662054 0.71933980857756763 0 0.69465836192734942 0.69465836192734942 0 -0.71933980857756763 forward_v I I I I #
loop $-1 $-1 $314 $77 #
coedge $-1 $196 $196 $197 $315 reversed $120 $-1 #
coedge $-1 $197 $197 $196 $315 forward $122 $-1 #
coedge $-1 $198 $198 $123 $199 forward $193 $-1 #
edge $-1 $316 0 $316 6.2831853071796004 $198 $317 forward 7 unknown #
face $-1 $318 $319 $30 $-1 $320 reversed single #
loop $-1 $-1 $321 $124 #
plane-surface $-1 -67.077242347483747 0 0 1 0 0 0 0 -1 forward_v I I I I #
coedge $-1 $322 $211 $323 $324 forward $125 $-1 #
coedge $-1 $325 $127 $322 $326 forward $81 $-1 #
coedge $-1 $127 $325 $327 $328 forward $81 $-1 #
coedge $-1 $214 $213 $127 $207 reversed $215 $-1 #
edge $-1 $329 -40.56712557987764 $330 40.56712557987764 $206 $331 forward 7 unknown #
coedge $-1 $129 $128 $332 $333 forward $51 $-1 #
coedge $-1 $334 $335 $128 $210 reversed $319 $-1 #
edge $-1 $217 -67.077242347483747 $336 67.077242347483747 $209 $337 forward 7 unknown #
coedge $-1 $203 $338 $129 $212 reversed $125 $-1 #
edge $-1 $339 -67.077242347483747 $216 67.077242347483747 $211 $340 forward 7 unknown #
coedge $-1 $206 $130 $338 $341 forward $215 $-1 #
coedge $-1 $130 $206 $334 $342 reversed $215 $-1 #
loop $-1 $-1 $213 $318 #
vertex $-1 $131 $343 #
vertex $-1 $131 $344 #
straight-curve $-1 67.077242347483747 0 16.053523483051773 0 1 0 I I #
face $-1 $345 $346 $31 $-1 $347 reversed single #
loop $-1 $-1 $348 $132 #
plane-surface $-1 -67.077242347483747 0 0 1 0 0 0 0 -1 forward_v I I I I #
coedge $-1 $349 $228 $233 $350 reversed $133 $-1 #
coedge $-1 $351 $135 $352 $353 reversed $85 $-1 #
coedge $-1 $135 $351 $349 $354 forward $85 $-1 #
coedge $-1 $233 $232 $135 $226 forward $234 $-1 #
edge $-1 $355 -23.726227109360792 $356 -9.9555698316729035 $225 $357 forward 7 unknown #
coedge $-1 $137 $136 $348 $358 reversed $54 $-1 #
coedge $-1 $222 $359 $136 $229 reversed $133 $-1 #
edge $-1 $235 -67.077242347483747 $360 67.077242347483747 $228 $361 forward 7 unknown #
coedge $-1 $362 $363 $137 $231 forward $346 $-1 #
edge $-1 $236 -67.077242347483747 $364 67.077242347483747 $230 $365 forward 7 unknown #
coedge $-1 $225 $138 $363 $366 forward $234 $-1 #
coedge $-1 $138 $225 $222 $350 forward $234 $-1 #
loop $-1 $-1 $138 $345 #
vertex $-1 $139 $367 #
vertex $-1 $366 $368 #
straight-curve $-1 67.077242347483747 -16.840898470516848 11.066575074769043 0 -1 0 I I #
face $-1 $369 $370 $32 $-1 $371 reversed single #
loop $-1 $-1 $146 $140 #
plane-surface $-1 67.077242347483747 0 0 -1 0 0 0 0 1 forward_v I I I I #
coedge $-1 $372 $373 $145 $249 reversed $141 $-1 #
coedge $-1 $374 $143 $375 $376 forward $89 $-1 #
coedge $-1 $143 $374 $377 $378 reversed $89 $-1 #
coedge $-1 $251 $250 $143 $245 forward $239 $-1 #
edge $-1 $379 9.9555698316729035 $380 23.726227109360792 $244 $381 forward 7 unknown #
coedge $-1 $145 $144 $382 $383 reversed $57 $-1 #
coedge $-1 $384 $385 $144 $248 forward $386 $-1 #
edge $-1 $387 -67.077242347483747 $252 67.077242347483747 $247 $388 forward 7 unknown #
edge $-1 $389 -67.077242347483747 $253 67.077242347483747 $241 $390 forward 7 unknown #
coedge $-1 $244 $146 $373 $391 forward $239 $-1 #
coedge $-1 $146 $244 $384 $392 reversed $239 $-1 #
vertex $-1 $392 $393 #
vertex $-1 $147 $394 #
straight-curve $-1 67.077242347483747 16.840898470516848 11.066575074769043 0 -1 0 I I #
face $-1 $-1 $395 $33 $-1 $396 forward single #
loop $-1 $-1 $154 $148 #
plane-surface $-1 -67.077242347483747 0 0 1 0 0 0 0 -1 forward_v I I I I #
coedge $-1 $397 $398 $399 $400 reversed $149 $-1 #
coedge $-1 $401 $151 $153 $265 forward $93 $-1 #
coedge $-1 $151 $401 $397 $402 forward $93 $-1 #
coedge $-1 $399 $154 $151 $262 forward $256 $-1 #
edge $-1 $268 3.8057634134445966 $403 13.470448569437545 $261 $404 forward 7 unknown #
coedge $-1 $405 $406 $152 $264 forward $395 $-1 #
edge $-1 $407 -26.460437033509265 $267 -24.551975233829154 $263 $408 forward 7 unknown #
edge $-1 $268 -2.8642609447069912e-014 $407 3.8169237016344555 $153 $409 forward 7 unknown #
coedge $-1 $154 $399 $405 $410 reversed $256 $-1 #
vertex $-1 $410 $411 #
vertex $-1 $155 $412 #
straight-curve $-1 -67.077242347483747 -12.443869404885668 39.912605556879029 0 0 -1 I I #
coedge $-1 $270 $270 $-1 $413 reversed $158 $-1 #
edge $-1 $414 0 $414 6.2831853071796004 $159 $415 forward 7 unknown #
vertex $-1 $162 $416 #
ellipse-curve $-1 -66.123011447643691 -17.276211982882142 14.400747023328563 -0.86602541151947299 0 0.49999998660252726 0.24999999330126363 0 0.43301270575973649 1 I I #
face $-1 $-1 $286 $35 $-1 $417 reversed single #
loop $-1 $-1 $418 $163 #
plane-surface $-1 0 0 16.053523483051773 0 0 1 1 0 0 forward_v I I I I #
coedge $-1 $419 $420 $421 $422 reversed $164 $-1 #
coedge $-1 $423 $166 $168 $284 forward $102 $-1 #
coedge $-1 $166 $423 $419 $424 forward $102 $-1 #
coedge $-1 $421 $169 $166 $281 forward $286 $-1 #
edge $-1 $288 -9.5924707376502774 $425 0.072214418342671394 $280 $426 forward 7 unknown #
coedge $-1 $427 $428 $167 $283 forward $275 $-1 #
edge $-1 $429 -26.460437033509265 $287 -24.551975233829154 $282 $430 forward 7 unknown #
edge $-1 $288 -2.8642609447069912e-014 $429 3.8169237016344555 $168 $431 forward 7 unknown #
coedge $-1 $169 $421 $427 $432 reversed $286 $-1 #
loop $-1 $-1 $421 $274 #
vertex $-1 $432 $433 #
vertex $-1 $170 $434 #
straight-curve $-1 -67.077242347483747 14.35259889730408 39.912605556879029 0 0 -1 I I #
coedge $-1 $290 $290 $-1 $435 reversed $173 $-1 #
edge $-1 $436 0 $436 6.2831853071796004 $174 $437 forward 7 unknown #
vertex $-1 $177 $438 #
ellipse-curve $-1 -66.123011447643691 9.520256319307606 14.400747023328563 -0.86602541151947299 0 0.49999998660252726 0.24999999330126363 0 0.43301270575973649 1 I I #
face $-1 $-1 $306 $37 $-1 $439 reversed single #
loop $-1 $-1 $440 $178 #
plane-surface $-1 0 26.796468302189751 9.053895249923162 0 1 0 0 0 1 forward_v I I I I #
coedge $-1 $441 $442 $443 $444 forward $179 $-1 #
coedge $-1 $445 $181 $183 $304 forward $111 $-1 #
coedge $-1 $181 $445 $440 $446 forward $111 $-1 #
coedge $-1 $447 $184 $181 $301 forward $306 $-1 #
edge $-1 $308 2.5748382495607913 $448 17.00603278493957 $300 $449 forward 7 unknown #
coedge $-1 $442 $441 $182 $303 forward $179 $-1 #
edge $-1 $450 16.386890730833684 $307 31.883057795298711 $302 $451 forward 7 unknown #
edge $-1 $308 -134.15448469496752 $450 -111.84687578420676 $183 $452 forward 7 unknown #
coedge $-1 $184 $447 $442 $453 reversed $306 $-1 #
loop $-1 $-1 $447 $294 #
vertex $-1 $453 $454 #
vertex $-1 $185 $455 #
straight-curve $-1 67.077242347483747 12.365273766810972 94.850484141537919 0 0 -1 I I #
coedge $-1 $310 $310 $-1 $456 reversed $188 $-1 #
edge $-1 $457 0 $457 6.2831853071796004 $189 $458 forward 7 unknown #
vertex $-1 $192 $459 #
ellipse-curve $-1 59.32915881525124 16.488472205490623 8.0301479212068294 0.71933980857756763 0 0.69465836192734942 1.0419875428910241 0 -1.0790097128663514 1 I I #
coedge $-1 $314 $314 $-1 $460 reversed $195 $-1 #
edge $-1 $461 0 $461 6.2831853071796004 $196 $462 forward 7 unknown #
vertex $-1 $199 $463 #
ellipse-curve $-1 59.32915881525124 22.6732698635101 8.0301479212068294 0.71933980857756763 0 0.69465836192734942 1.0419875428910241 0 -1.0790097128663514 1 I I #
face $-1 $-1 $215 $30 $-1 $464 reversed single #
loop $-1 $-1 $334 $200 #
plane-surface $-1 0 40.56712557987764 0 0 -1 0 0 0 -1 forward_v I I I I #
coedge $-1 $465 $332 $335 $466 forward $201 $-1 #
coedge $-1 $338 $203 $204 $326 reversed $125 $-1 #
coedge $-1 $332 $465 $203 $324 reversed $201 $-1 #
edge $-1 $339 -16.053523483051773 $467 16.053523483051773 $323 $468 forward 7 unknown #
coedge $-1 $205 $204 $465 $469 forward $81 $-1 #
edge $-1 $330 -67.077242347483747 $467 67.077242347483747 $322 $470 forward 7 unknown #
coedge $-1 $335 $334 $205 $328 reversed $319 $-1 #
edge $-1 $471 -67.077242347483747 $329 67.077242347483747 $327 $472 forward 7 unknown #
vertex $-1 $207 $473 #
vertex $-1 $341 $474 #
straight-curve $-1 67.077242347483747 0 -16.053523483051773 0 -1 0 I I #
coedge $-1 $321 $323 $208 $333 reversed $201 $-1 #
edge $-1 $336 -40.56712557987764 $339 40.56712557987764 $332 $475 forward 7 unknown #
coedge $-1 $327 $209 $214 $342 forward $319 $-1 #
coedge $-1 $209 $327 $321 $466 reversed $319 $-1 #
vertex $-1 $210 $476 #
straight-curve $-1 0 40.56712557987764 16.053523483051773 -1 0 0 I I #
coedge $-1 $211 $322 $213 $341 reversed $125 $-1 #
vertex $-1 $333 $477 #
straight-curve $-1 0 -40.56712557987764 16.053523483051773 1 0 0 I I #
edge $-1 $216 -16.053523483051773 $330 16.053523483051773 $213 $478 forward 7 unknown #
edge $-1 $217 -16.053523483051773 $329 16.053523483051773 $214 $479 forward 7 unknown #
point $-1 67.077242347483747 -40.56712557987764 16.053523483051773 #
point $-1 67.077242347483747 40.56712557987764 16.053523483051773 #
face $-1 $-1 $234 $31 $-1 $480 reversed single #
loop $-1 $-1 $230 $219 #
plane-surface $-1 0 -40.56712557987764 0 0 1 0 0 0 1 forward_v I I I I #
coedge $-1 $481 $482 $227 $358 forward $220 $-1 #
coedge $-1 $359 $222 $224 $354 reversed $133 $-1 #
edge $-1 $356 2.5142678001157002 $235 6.5396274498074618 $233 $483 forward 7 unknown #
coedge $-1 $224 $223 $484 $485 reversed $85 $-1 #
coedge $-1 $363 $362 $223 $353 forward $346 $-1 #
edge $-1 $486 -67.077242347483747 $355 67.077242347483747 $352 $487 forward 7 unknown #
edge $-1 $488 -67.077242347483747 $356 67.077242347483747 $349 $489 forward 7 unknown #
vertex $-1 $353 $490 #
vertex $-1 $226 $491 #
straight-curve $-1 67.077242347483747 -16.840898470516848 7.0412154250772812 0 1 0 I I #
edge $-1 $364 -23.726227109360792 $360 -9.9555698316729035 $348 $492 forward 7 unknown #
coedge $-1 $228 $349 $481 $493 reversed $133 $-1 #
vertex $-1 $358 $494 #
straight-curve $-1 0 -26.796468302189751 11.066575074769043 -1 0 0 I I #
coedge $-1 $352 $230 $482 $495 forward $346 $-1 #
coedge $-1 $230 $352 $232 $366 reversed $346 $-1 #
vertex $-1 $495 $496 #
straight-curve $-1 0 -40.56712557987764 11.066575074769043 -1 0 0 I I #
edge $-1 $236 -11.066575074769043 $355 -7.0412154250772812 $232 $497 forward 7 unknown #
point $-1 67.077242347483747 -26.796468302189751 11.066575074769043 #
point $-1 67.077242347483747 -40.56712557987764 11.066575074769043 #
face $-1 $-1 $386 $32 $-1 $498 reversed single #
loop $-1 $-1 $382 $238 #
plane-surface $-1 -67.077242347483747 0 0 1 0 0 0 0 -1 forward_v I I I I #
coedge $-1 $375 $241 $499 $500 reversed $141 $-1 #
coedge $-1 $241 $375 $250 $391 reversed $141 $-1 #
coedge $-1 $243 $242 $501 $502 reversed $89 $-1 #
coedge $-1 $373 $372 $242 $376 reversed $141 $-1 #
edge $-1 $379 -67.077242347483747 $503 67.077242347483747 $375 $504 forward 7 unknown #
coedge $-1 $385 $384 $243 $378 forward $386 $-1 #
edge $-1 $380 -67.077242347483747 $505 67.077242347483747 $377 $506 forward 7 unknown #
vertex $-1 $245 $507 #
vertex $-1 $378 $508 #
straight-curve $-1 67.077242347483747 16.840898470516848 7.0412154250772812 0 1 0 I I #
coedge $-1 $509 $499 $246 $383 forward $370 $-1 #
edge $-1 $389 9.9555698316729035 $387 23.726227109360792 $382 $510 forward 7 unknown #
coedge $-1 $377 $247 $251 $392 forward $386 $-1 #
coedge $-1 $247 $377 $509 $511 reversed $386 $-1 #
loop $-1 $-1 $247 $369 #
vertex $-1 $511 $512 #
straight-curve $-1 0 40.56712557987764 11.066575074769043 1 0 0 I I #
vertex $-1 $383 $513 #
straight-curve $-1 0 26.796468302189751 11.066575074769043 1 0 0 I I #
edge $-1 $253 -6.5396274498074618 $379 -2.5142678001157002 $250 $514 forward 7 unknown #
edge $-1 $252 -11.066575074769043 $380 -7.0412154250772812 $251 $515 forward 7 unknown #
point $-1 67.077242347483747 40.56712557987764 11.066575074769043 #
point $-1 67.077242347483747 26.796468302189751 11.066575074769043 #
loop $-1 $-1 $263 $255 #
plane-surface $-1 0 0 16.053523483051773 0 0 1 1 0 0 forward_v I I I I #
coedge $-1 $398 $258 $260 $402 reversed $149 $-1 #
coedge $-1 $258 $397 $516 $517 reversed $149 $-1 #
coedge $-1 $266 $261 $258 $400 forward $256 $-1 #
edge $-1 $403 -27.16463499327369 $518 -23.859082073827256 $399 $519 forward 7 unknown #
coedge $-1 $260 $259 $406 $520 reversed $93 $-1 #
edge $-1 $521 -3.8169237016344555 $403 2.8642609447069912e-014 $397 $522 forward 7 unknown #
vertex $-1 $262 $523 #
straight-curve $-1 -67.077242347483747 -8.6381059914410709 12.74797056360535 0 -1 0 I I #
coedge $-1 $516 $263 $266 $410 forward $395 $-1 #
coedge $-1 $263 $516 $401 $520 forward $395 $-1 #
vertex $-1 $264 $524 #
straight-curve $-1 -91.629217581312901 -12.443869404885668 16.053523483051773 -1 0 0 I I #
straight-curve $-1 -67.077242347483732 -12.443869404885668 12.747970563605364 0.49999998660252726 0 0.86602541151947299 I I #
edge $-1 $267 12.443869404885668 $518 22.108554560878616 $266 $525 forward 7 unknown #
point $-1 -67.077242347483747 -12.443869404885668 16.053523483051773 #
point $-1 -67.077242347483747 -12.443869404885668 12.747970563605339 #
edge $-1 $526 1 $526 0 $270 $-1 forward 7 unknown #
vertex $-1 $271 $527 #
ellipse-curve $-1 -65.256986036124218 -17.276211982882142 13.900747036726036 -0.86602541151947299 0 0.49999998660252726 0.24999999330126363 0 0.43301270575973649 1 I I #
point $-1 -65.873011454342432 -17.276211982882142 14.833759729088301 #
plane-surface $-1 -67.077242347483747 0 0 1 0 0 0 0 -1 forward_v I I I I #
coedge $-1 $428 $427 $420 $528 forward $275 $-1 #
coedge $-1 $420 $277 $279 $424 reversed $164 $-1 #
coedge $-1 $277 $419 $418 $528 reversed $164 $-1 #
coedge $-1 $285 $280 $277 $422 forward $286 $-1 #
edge $-1 $425 -27.16463499327369 $529 -23.859082073827256 $421 $530 forward 7 unknown #
coedge $-1 $279 $278 $428 $531 reversed $102 $-1 #
edge $-1 $532 -3.8169237016344555 $425 2.8642609447069912e-014 $419 $533 forward 7 unknown #
vertex $-1 $281 $534 #
straight-curve $-1 -67.077242347483747 4.760128159653803 12.74797056360535 0 -1 0 I I #
coedge $-1 $418 $282 $285 $432 forward $275 $-1 #
coedge $-1 $282 $418 $423 $531 forward $275 $-1 #
vertex $-1 $283 $535 #
straight-curve $-1 -91.629217581312901 14.35259889730408 16.053523483051773 -1 0 0 I I #
straight-curve $-1 -67.077242347483732 14.35259889730408 12.747970563605364 0.49999998660252726 0 0.86602541151947299 I I #
edge $-1 $287 -14.35259889730408 $529 -4.6879137413111316 $285 $536 forward 7 unknown #
point $-1 -67.077242347483747 14.35259889730408 16.053523483051773 #
point $-1 -67.077242347483747 14.35259889730408 12.747970563605339 #
edge $-1 $537 1 $537 0 $290 $-1 forward 7 unknown #
vertex $-1 $291 $538 #
ellipse-curve $-1 -65.256986036124218 9.520256319307606 13.900747036726036 -0.86602541151947299 0 0.49999998660252726 0.24999999330126363 0 0.43301270575973649 1 I I #
point $-1 -65.873011454342432 9.520256319307606 14.833759729088301 #
plane-surface $-1 67.077242347483747 0 0 -1 0 0 0 0 1 forward_v I I I I #
coedge $-1 $443 $539 $299 $446 reversed $295 $-1 #
coedge $-1 $302 $297 $445 $540 forward $179 $-1 #
coedge $-1 $297 $302 $305 $453 forward $179 $-1 #
coedge $-1 $539 $440 $297 $444 reversed $295 $-1 #
edge $-1 $541 -31.883057795298711 $542 -16.386890730833684 $297 $543 forward 7 unknown #
coedge $-1 $299 $298 $441 $540 reversed $111 $-1 #
edge $-1 $542 111.84687578420676 $448 134.15448469496752 $440 $544 forward 7 unknown #
coedge $-1 $305 $300 $539 $545 forward $306 $-1 #
vertex $-1 $545 $546 #
straight-curve $-1 67.077242347483747 9.7904355172501809 0.0067723593618893574 0 1 0 I I #
vertex $-1 $303 $547 #
straight-curve $-1 35.194184552185035 12.365273766810972 16.053523483051777 1 0 0 I I #
straight-curve $-1 -26.114292235930066 12.365273766810972 96.509433699662054 -0.69465836192734942 0 0.71933980857756763 I I #
edge $-1 $307 12.365273766810972 $541 26.796468302189751 $305 $548 forward 7 unknown #
point $-1 67.077242347483747 12.365273766810972 16.053523483051773 #
point $-1 67.077242347483747 12.365273766810972 0.0067723593618893574 #
edge $-1 $549 1 $549 0 $310 $-1 forward 7 unknown #
vertex $-1 $311 $550 #
ellipse-curve $-1 57.232322898735312 16.488472205490623 6.0052570620763506 0.71933980857756763 0 0.69465836192734942 1.0419875428910241 0 -1.0790097128663514 1 I I #
point $-1 60.371146358142276 16.488472205490623 6.9511382083404918 #
edge $-1 $551 1 $551 0 $314 $-1 forward 7 unknown #
vertex $-1 $315 $552 #
ellipse-curve $-1 57.232322898735312 22.6732698635101 6.0052570620763506 0.71933980857756763 0 0.69465836192734942 1.0419875428910241 0 -1.0790097128663514 1 I I #
point $-1 60.371146358142276 22.6732698635101 6.9511382083404918 #
plane-surface $-1 67.077242347483747 0 0 -1 0 0 0 0 1 forward_v I I I I #
coedge $-1 $323 $321 $325 $469 reversed $201 $-1 #
edge $-1 $336 -16.053523483051773 $471 16.053523483051773 $335 $553 forward 7 unknown #
vertex $-1 $469 $554 #
straight-curve $-1 -67.077242347483747 -40.56712557987764 0 0 0 -1 I I #
edge $-1 $467 -40.56712557987764 $471 40.56712557987764 $465 $555 forward 7 unknown #
straight-curve $-1 0 -40.56712557987764 -16.053523483051773 -1 0 0 I I #
vertex $-1 $328 $556 #
straight-curve $-1 0 40.56712557987764 -16.053523483051773 1 0 0 I I #
point $-1 67.077242347483747 40.56712557987764 -16.053523483051773 #
point $-1 67.077242347483747 -40.56712557987764 -16.053523483051773 #
straight-curve $-1 -67.077242347483747 0 16.053523483051773 0 -1 0 I I #
point $-1 -67.077242347483747 40.56712557987764 16.053523483051773 #
point $-1 -67.077242347483747 -40.56712557987764 16.053523483051773 #
straight-curve $-1 67.077242347483747 -40.56712557987764 0 0 0 -1 I I #
straight-curve $-1 67.077242347483747 40.56712557987764 0 0 0 -1 I I #
plane-surface $-1 67.077242347483747 0 0 -1 0 0 0 0 1 forward_v I I I I #
coedge $-1 $484 $348 $359 $493 forward $220 $-1 #
coedge $-1 $348 $484 $362 $495 reversed $220 $-1 #
straight-curve $-1 67.077242347483747 -26.796468302189751 4.526947624961581 0 0 1 I I #
coedge $-1 $482 $481 $351 $485 forward $220 $-1 #
edge $-1 $488 9.9555698316729035 $486 23.726227109360792 $484 $557 forward 7 unknown #
vertex $-1 $353 $558 #
straight-curve $-1 0 -40.56712557987764 7.0412154250772812 1 0 0 I I #
vertex $-1 $485 $559 #
straight-curve $-1 0 -26.796468302189751 7.0412154250772812 1 0 0 I I #
point $-1 67.077242347483747 -40.56712557987764 7.0412154250772812 #
point $-1 67.077242347483747 -26.796468302189751 7.0412154250772812 #
straight-curve $-1 -67.077242347483747 -16.840898470516848 11.066575074769043 0 1 0 I I #
edge $-1 $360 -6.5396274498074618 $488 -2.5142678001157002 $481 $560 forward 7 unknown #
point $-1 -67.077242347483747 -26.796468302189751 11.066575074769043 #
edge $-1 $364 -11.066575074769043 $486 -7.0412154250772812 $482 $561 forward 7 unknown #
point $-1 -67.077242347483747 -40.56712557987764 11.066575074769043 #
straight-curve $-1 67.077242347483747 -40.56712557987764 0 0 0 -1 I I #
plane-surface $-1 0 40.56712557987764 0 0 -1 0 0 0 -1 forward_v I I I I #
coedge $-1 $382 $501 $372 $500 forward $370 $-1 #
edge $-1 $503 2.5142678001157002 $389 6.5396274498074618 $499 $562 forward 7 unknown #
coedge $-1 $499 $509 $374 $502 forward $370 $-1 #
edge $-1 $505 -23.726227109360792 $503 -9.9555698316729035 $501 $563 forward 7 unknown #
vertex $-1 $502 $564 #
straight-curve $-1 0 26.796468302189751 7.0412154250772812 -1 0 0 I I #
vertex $-1 $378 $565 #
straight-curve $-1 0 40.56712557987764 7.0412154250772812 -1 0 0 I I #
point $-1 67.077242347483747 26.796468302189751 7.0412154250772812 #
point $-1 67.077242347483747 40.56712557987764 7.0412154250772812 #
coedge $-1 $501 $382 $385 $511 forward $370 $-1 #
straight-curve $-1 -67.077242347483747 16.840898470516848 11.066575074769043 0 1 0 I I #
edge $-1 $387 -11.066575074769043 $505 -7.0412154250772812 $385 $566 forward 7 unknown #
point $-1 -67.077242347483747 40.56712557987764 11.066575074769043 #
point $-1 -67.077242347483747 26.796468302189751 11.066575074769043 #
straight-curve $-1 67.077242347483747 26.796468302189751 4.526947624961581 0 0 -1 I I #
straight-curve $-1 67.077242347483747 40.56712557987764 0 0 0 -1 I I #
coedge $-1 $406 $405 $398 $517 forward $395 $-1 #
edge $-1 $518 24.551975233829154 $521 26.460437033509265 $516 $567 forward 7 unknown #
vertex $-1 $517 $568 #
straight-curve $-1 -67.077242347483747 -22.108554560878616 39.912605556879029 0 0 1 I I #
edge $-1 $521 -13.470448569437545 $407 -3.8057634134445966 $406 $569 forward 7 unknown #
vertex $-1 $520 $570 #
straight-curve $-1 -67.077242347483732 -22.108554560878616 12.747970563605364 -0.49999998660252726 0 -0.86602541151947299 I I #
point $-1 -67.077242347483747 -22.108554560878616 12.747970563605339 #
point $-1 -65.168780547803635 -12.443869404885668 16.053523483051773 #
straight-curve $-1 -67.077242347483747 0 16.053523483051773 0 -1 0 I I #
vertex $-1 $413 $571 #
point $-1 -65.006986042822959 -17.276211982882142 14.333759742485773 #
edge $-1 $529 24.551975233829154 $532 26.460437033509265 $418 $572 forward 7 unknown #
vertex $-1 $528 $573 #
straight-curve $-1 -67.077242347483747 4.6879137413111316 39.912605556879029 0 0 1 I I #
edge $-1 $532 -0.072214418342671394 $429 9.5924707376502774 $428 $574 forward 7 unknown #
vertex $-1 $531 $575 #
straight-curve $-1 -67.077242347483732 4.6879137413111316 12.747970563605364 -0.49999998660252726 0 -0.86602541151947299 I I #
point $-1 -67.077242347483747 4.6879137413111316 12.747970563605339 #
point $-1 -65.168780547803635 14.35259889730408 16.053523483051773 #
straight-curve $-1 -67.077242347483747 0 16.053523483051773 0 -1 0 I I #
vertex $-1 $435 $576 #
point $-1 -65.006986042822959 9.520256319307606 14.333759742485773 #
coedge $-1 $440 $443 $447 $545 reversed $295 $-1 #
edge $-1 $542 -17.00603278493957 $450 -2.5748382495607913 $441 $577 forward 7 unknown #
vertex $-1 $545 $578 #
vertex $-1 $444 $579 #
straight-curve $-1 35.194184552185035 26.796468302189751 16.053523483051777 -1 0 0 I I #
straight-curve $-1 -26.114292235930066 26.796468302189751 96.509433699662054 0.69465836192734942 0 -0.71933980857756763 I I #
edge $-1 $448 -94.84371178217603 $541 -78.796960658486142 $447 $580 forward 7 unknown #
point $-1 67.077242347483747 26.796468302189751 0.0067723593618893574 #
point $-1 51.58107528301872 12.365273766810972 16.053523483051777 #
straight-curve $-1 67.077242347483747 0 16.053523483051773 0 1 0 I I #
vertex $-1 $456 $581 #
point $-1 58.274310441626334 16.488472205490623 4.9262473492099996 #
vertex $-1 $460 $582 #
point $-1 58.274310441626334 22.6732698635101 4.9262473492099996 #
straight-curve $-1 -67.077242347483747 40.56712557987764 0 0 0 -1 I I #
point $-1 -67.077242347483747 -40.56712557987764 -16.053523483051773 #
straight-curve $-1 -67.077242347483747 0 -16.053523483051773 0 1 0 I I #
point $-1 -67.077242347483747 40.56712557987764 -16.053523483051773 #
straight-curve $-1 -67.077242347483747 -16.840898470516848 7.0412154250772812 0 -1 0 I I #
point $-1 -67.077242347483747 -40.56712557987764 7.0412154250772812 #
point $-1 -67.077242347483747 -26.796468302189751 7.0412154250772812 #
straight-curve $-1 -67.077242347483747 -26.796468302189751 4.526947624961581 0 0 -1 I I #
straight-curve $-1 -67.077242347483747 -40.56712557987764 0 0 0 -1 I I #
straight-curve $-1 -67.077242347483747 26.796468302189751 4.526947624961581 0 0 1 I I #
straight-curve $-1 -67.077242347483747 16.840898470516848 7.0412154250772812 0 -1 0 I I #
point $-1 -67.077242347483747 26.796468302189751 7.0412154250772812 #
point $-1 -67.077242347483747 40.56712557987764 7.0412154250772812 #
straight-curve $-1 -67.077242347483747 40.56712557987764 0 0 0 -1 I I #
straight-curve $-1 -91.629217581312901 -22.108554560878616 16.053523483051773 1 0 0 I I #
point $-1 -67.077242347483747 -22.108554560878616 16.053523483051773 #
straight-curve $-1 -65.168780547803635 -8.6381059914410709 16.053523483051773 0 1 0 I I #
point $-1 -65.168780547803635 -22.108554560878616 16.053523483051773 #
point $-1 -64.823973330364495 -17.276211982882142 13.650747043424774 #
straight-curve $-1 -91.629217581312901 4.6879137413111316 16.053523483051773 1 0 0 I I #
point $-1 -67.077242347483747 4.6879137413111316 16.053523483051773 #
straight-curve $-1 -65.168780547803635 4.760128159653803 16.053523483051773 0 1 0 I I #
point $-1 -65.168780547803635 4.6879137413111316 16.053523483051773 #
point $-1 -64.823973330364495 9.520256319307606 13.650747043424774 #
straight-curve $-1 51.581075283018727 9.7904355172501809 16.053523483051784 0 -1 0 I I #
point $-1 67.077242347483747 26.796468302189751 16.053523483051773 #
point $-1 51.58107528301872 26.796468302189751 16.053523483051777 #
straight-curve $-1 67.077242347483747 26.796468302189751 94.850484141537919 0 0 1 I I #
point $-1 56.15331318586896 16.488472205490623 4.9632695191853271 #
point $-1 56.15331318586896 22.6732698635101 4.9632695191853271 #
End-of-ACIS-data 