500 0 8 0           
7 Unknown 11 ACIS 5.0 NT 24 Thu Mar 25 16:58:16 1999 
-1 9.9999999999999995e-007 1e-010 
body $-1 $8 $-1 $9 #
body $-1 $10 $-1 $11 #
body $-1 $12 $-1 $13 #
body $-1 $14 $-1 $15 #
body $-1 $16 $-1 $17 #
body $-1 $18 $-1 $19 #
body $-1 $20 $-1 $21 #
body $-1 $22 $-1 $23 #
lump $-1 $-1 $24 $0 #
transform $-1 1 0 0 0 1 0 0 0 1 60.659810174871055 30.258076704160128 13.278758854655045 1 rotate no_reflect no_shear #
lump $-1 $-1 $25 $1 #
transform $-1 1 0 0 0 1 0 0 0 1 60.659810174871055 30.258076704160128 13.278758854655045 1 rotate no_reflect no_shear #
lump $-1 $-1 $26 $2 #
transform $-1 1 0 0 0 1 0 0 0 1 60.659810174871055 30.258076704160128 13.278758854655045 1 rotate no_reflect no_shear #
lump $-1 $-1 $27 $3 #
transform $-1 1 0 0 0 1 0 0 0 1 60.659810174871055 30.258076704160128 13.278758854655045 1 rotate no_reflect no_shear #
lump $-1 $-1 $28 $4 #
transform $-1 1 0 0 0 1 0 0 0 1 60.659810174871055 30.258076704160128 13.278758854655045 1 rotate no_reflect no_shear #
lump $-1 $-1 $29 $5 #
transform $-1 1 0 0 0 1 0 0 0 1 60.659810174871055 30.258076704160128 13.278758854655045 1 rotate no_reflect no_shear #
lump $-1 $-1 $30 $6 #
transform $-1 1 0 0 0 1 0 0 0 1 60.659810174871055 30.258076704160128 13.278758854655045 1 rotate no_reflect no_shear #
lump $-1 $-1 $31 $7 #
transform $-1 1 0 0 0 1 0 0 0 1 60.659810174871055 30.258076704160128 13.278758854655045 1 rotate no_reflect no_shear #
shell $-1 $-1 $-1 $32 $-1 $8 #
shell $-1 $-1 $-1 $33 $-1 $10 #
shell $-1 $-1 $-1 $34 $-1 $12 #
shell $-1 $-1 $-1 $35 $-1 $14 #
shell $-1 $-1 $-1 $36 $-1 $16 #
shell $-1 $-1 $-1 $37 $-1 $18 #
shell $-1 $-1 $-1 $38 $-1 $20 #
shell $-1 $-1 $-1 $39 $-1 $22 #
face $-1 $40 $41 $24 $-1 $42 forward single #
face $-1 $43 $44 $25 $-1 $45 forward single #
face $-1 $46 $47 $26 $-1 $48 reversed single #
face $-1 $49 $50 $27 $-1 $51 forward single #
face $-1 $52 $53 $28 $-1 $54 forward single #
face $-1 $55 $56 $29 $-1 $57 reversed single #
face $-1 $58 $59 $30 $-1 $60 forward single #
face $-1 $61 $62 $31 $-1 $63 forward single #
face $-1 $64 $65 $24 $-1 $66 reversed single #
loop $-1 $-1 $67 $32 #
plane-surface $-1 0 0 13.278758854655045 0 0 1 1 0 0 forward_v I I I I #
face $-1 $68 $69 $25 $-1 $70 forward single #
loop $-1 $-1 $71 $33 #
plane-surface $-1 -60.659810174871055 0 0 1 0 0 0 0 -1 forward_v I I I I #
face $-1 $72 $73 $26 $-1 $74 reversed single #
loop $-1 $-1 $75 $34 #
plane-surface $-1 -25.384173000565141 -127.14823457864553 73.022006962335922 -1 0 0 0 -0.79863551827123203 0.60181501223851219 forward_v I I I I #
face $-1 $76 $77 $27 $-1 $78 forward single #
loop $-1 $79 $80 $35 #
cone-surface $-1 -41.326432923264591 -23.670663662294356 5.447706425542461 0 0.79863551827123203 -0.60181501223851219 1.5 0 0 1 I I 0 1 1.5 forward I I I I #
face $-1 $81 $82 $28 $-1 $83 forward single #
loop $-1 $84 $85 $36 #
cone-surface $-1 -31.761076969644918 -23.670663662294356 5.447706425542461 0 0.79863551827123203 -0.60181501223851219 1.5 0 0 1 I I 0 1 1.5 forward I I I I #
face $-1 $86 $87 $29 $-1 $88 reversed single #
loop $-1 $-1 $89 $37 #
plane-surface $-1 -47.703336892344375 107.02779592958045 114.5910419898799 1 0 0 0 -0.87461971476443456 -0.48480960649040278 forward_v I I I I #
face $-1 $90 $91 $30 $-1 $92 forward single #
loop $-1 $93 $94 $38 #
cone-surface $-1 -40.497772729620742 26.464927601209101 7.5624076669000999 0 -0.87461971476443456 -0.48480960649040278 2 0 0 1 I I 0 1 2 forward I I I I #
face $-1 $95 $96 $31 $-1 $97 forward single #
loop $-1 $98 $99 $39 #
cone-surface $-1 -29.689426485535297 26.464927601209101 7.5624076669000999 0 -0.87461971476443456 -0.48480960649040278 2 0 0 1 I I 0 1 2 forward I I I I #
face $-1 $100 $101 $24 $-1 $102 reversed single #
loop $-1 $-1 $103 $40 #
plane-surface $-1 0 0 -13.278758854655045 0 0 1 1 0 0 forward_v I I I I #
coedge $-1 $104 $105 $106 $107 forward $41 $-1 #
face $-1 $108 $109 $25 $-1 $110 reversed single #
loop $-1 $-1 $111 $43 #
plane-surface $-1 0 0 13.278758854655045 0 0 1 1 0 0 forward_v I I I I #
coedge $-1 $112 $113 $114 $115 forward $44 $-1 #
face $-1 $116 $117 $26 $-1 $118 reversed single #
loop $-1 $-1 $119 $46 #
plane-surface $-1 -36.543754946454754 -30.258076704160132 0.010038156784219154 0 -0.79863551827123203 0.60181501223851219 1 0 0 forward_v I I I I #
coedge $-1 $120 $121 $122 $123 reversed $47 $-1 #
face $-1 $-1 $124 $27 $-1 $125 forward single #
loop $-1 $126 $127 $49 #
cone-surface $-1 -41.326432923264591 -21.483622950366041 3.7996530861863995 0 0.79863551827123203 -0.60181501223851219 0.75 0 0 1 I I -0.70710678118654757 0.70710678118654757 0.75 forward I I I I #
loop $-1 $-1 $128 $35 #
coedge $-1 $80 $80 $129 $130 reversed $50 $-1 #
face $-1 $-1 $131 $28 $-1 $132 forward single #
loop $-1 $133 $134 $52 #
cone-surface $-1 -31.761076969644918 -21.483622950366041 3.7996530861863995 0 0.79863551827123203 -0.60181501223851219 0.75 0 0 1 I I -0.70710678118654757 0.70710678118654757 0.75 forward I I I I #
loop $-1 $-1 $135 $36 #
coedge $-1 $85 $85 $136 $137 reversed $53 $-1 #
face $-1 $138 $139 $29 $-1 $140 reversed single #
loop $-1 $-1 $141 $55 #
plane-surface $-1 -35.093599607578021 0.9192641839595268 55.774124588556369 0 0.87461971476443456 0.48480960649040278 1 0 0 forward_v I I I I #
coedge $-1 $142 $143 $144 $145 reversed $56 $-1 #
face $-1 $-1 $146 $30 $-1 $147 forward single #
loop $-1 $148 $149 $58 #
cone-surface $-1 -40.497772729620742 24.688782544906875 6.577874422017004 0 -0.87461971476443456 -0.48480960649040278 1 0 0 1 I I -0.70710678118654746 0.70710678118654746 1 forward I I I I #
loop $-1 $-1 $150 $38 #
coedge $-1 $94 $94 $151 $152 reversed $59 $-1 #
face $-1 $-1 $153 $31 $-1 $154 forward single #
loop $-1 $155 $156 $61 #
cone-surface $-1 -29.689426485535297 24.688782544906875 6.577874422017004 0 -0.87461971476443456 -0.48480960649040278 1 0 0 1 I I -0.70710678118654746 0.70710678118654746 1 forward I I I I #
loop $-1 $-1 $157 $39 #
coedge $-1 $99 $99 $158 $159 reversed $62 $-1 #
face $-1 $160 $161 $24 $-1 $162 reversed single #
loop $-1 $-1 $163 $64 #
plane-surface $-1 0 -30.258076704160128 0 0 1 0 0 0 1 forward_v I I I I #
coedge $-1 $164 $165 $166 $167 forward $65 $-1 #
coedge $-1 $168 $67 $169 $170 forward $41 $-1 #
coedge $-1 $67 $168 $171 $172 forward $41 $-1 #
coedge $-1 $173 $174 $67 $107 reversed $175 $-1 #
edge $-1 $176 -30.258076704160128 $177 30.258076704160128 $106 $178 forward 7 unknown #
face $-1 $179 $180 $25 $-1 $181 reversed single #
loop $-1 $-1 $182 $68 #
plane-surface $-1 -73.616283457397728 -26.740484164889178 0 1 0 0 0 0 -1 forward_v I I I I #
coedge $-1 $183 $184 $112 $185 forward $69 $-1 #
coedge $-1 $186 $71 $111 $185 reversed $44 $-1 #
coedge $-1 $71 $186 $187 $188 reversed $44 $-1 #
coedge $-1 $189 $190 $71 $115 reversed $180 $-1 #
edge $-1 $191 -13.278758854655045 $192 13.278758854655045 $114 $193 forward 7 unknown #
face $-1 $194 $195 $26 $-1 $196 forward single #
loop $-1 $-1 $197 $72 #
plane-surface $-1 -47.703336892344367 -127.14823457864553 73.022006962335922 1 0 0 0 0.79863551827123203 -0.60181501223851219 forward_v I I I I #
coedge $-1 $198 $199 $200 $201 reversed $73 $-1 #
coedge $-1 $121 $75 $202 $203 reversed $47 $-1 #
coedge $-1 $75 $120 $198 $204 reversed $47 $-1 #
coedge $-1 $200 $205 $75 $123 forward $195 $-1 #
edge $-1 $206 33.316040585162639 $207 43.314738522444415 $122 $208 forward 7 unknown #
loop $-1 $-1 $129 $76 #
plane-surface $-1 -36.543754946454754 -30.258076704160132 0.010038156784219154 0 -0.79863551827123203 0.60181501223851219 1 0 0 forward_v I I I I #
loop $-1 $-1 $209 $49 #
coedge $-1 $127 $127 $128 $210 reversed $77 $-1 #
coedge $-1 $128 $128 $127 $210 forward $79 $-1 #
coedge $-1 $129 $129 $80 $130 forward $124 $-1 #
edge $-1 $211 -6.7226189891019967e-018 $211 6.2831853071796004 $129 $212 forward 7 unknown #
loop $-1 $-1 $136 $81 #
plane-surface $-1 -36.543754946454754 -30.258076704160132 0.010038156784219154 0 -0.79863551827123203 0.60181501223851219 1 0 0 forward_v I I I I #
loop $-1 $-1 $213 $52 #
coedge $-1 $134 $134 $135 $214 reversed $82 $-1 #
coedge $-1 $135 $135 $134 $214 forward $84 $-1 #
coedge $-1 $136 $136 $85 $137 forward $131 $-1 #
edge $-1 $215 -6.7226189891019967e-018 $215 6.2831853071796004 $136 $216 forward 7 unknown #
face $-1 $217 $218 $29 $-1 $219 reversed single #
loop $-1 $-1 $220 $86 #
plane-surface $-1 -22.483862322811667 107.02779592958045 114.5910419898799 -1 0 0 0 0.87461971476443456 0.48480960649040278 forward_v I I I I #
coedge $-1 $221 $222 $223 $224 reversed $87 $-1 #
coedge $-1 $143 $89 $225 $226 reversed $56 $-1 #
coedge $-1 $89 $142 $221 $227 reversed $56 $-1 #
coedge $-1 $223 $228 $89 $145 forward $229 $-1 #
edge $-1 $230 23.255821260630096 $231 29.039068783456585 $144 $232 forward 7 unknown #
loop $-1 $-1 $151 $90 #
plane-surface $-1 -35.093599607578021 0.9192641839595268 55.774124588556369 0 0.87461971476443456 0.48480960649040278 1 0 0 forward_v I I I I #
loop $-1 $-1 $233 $58 #
coedge $-1 $149 $149 $150 $234 reversed $91 $-1 #
coedge $-1 $150 $150 $149 $234 forward $93 $-1 #
coedge $-1 $151 $151 $94 $152 forward $146 $-1 #
edge $-1 $235 -6.0806534770180727e-016 $235 6.2831853071795996 $151 $236 forward 7 unknown #
loop $-1 $-1 $158 $95 #
plane-surface $-1 -35.093599607578021 0.9192641839595268 55.774124588556369 0 0.87461971476443456 0.48480960649040278 1 0 0 forward_v I I I I #
loop $-1 $-1 $237 $61 #
coedge $-1 $156 $156 $157 $238 reversed $96 $-1 #
coedge $-1 $157 $157 $156 $238 forward $98 $-1 #
coedge $-1 $158 $158 $99 $159 forward $153 $-1 #
edge $-1 $239 -6.0806534770180727e-016 $239 6.2831853071795996 $158 $240 forward 7 unknown #
face $-1 $241 $242 $24 $-1 $243 reversed single #
loop $-1 $-1 $244 $100 #
plane-surface $-1 -60.659810174871055 0 0 1 0 0 0 0 -1 forward_v I I I I #
coedge $-1 $245 $171 $246 $247 forward $101 $-1 #
coedge $-1 $248 $103 $245 $249 forward $65 $-1 #
coedge $-1 $103 $248 $250 $251 forward $65 $-1 #
coedge $-1 $174 $173 $103 $167 reversed $175 $-1 #
edge $-1 $252 -30.258076704160128 $253 30.258076704160128 $166 $254 forward 7 unknown #
coedge $-1 $105 $104 $244 $255 forward $41 $-1 #
coedge $-1 $256 $257 $104 $170 reversed $242 $-1 #
edge $-1 $177 -60.659810174871055 $258 60.659810174871055 $169 $259 forward 7 unknown #
coedge $-1 $163 $260 $105 $172 reversed $101 $-1 #
edge $-1 $261 -60.659810174871055 $176 60.659810174871055 $171 $262 forward 7 unknown #
coedge $-1 $166 $106 $260 $263 forward $175 $-1 #
coedge $-1 $106 $166 $256 $264 reversed $175 $-1 #
loop $-1 $-1 $173 $241 #
vertex $-1 $107 $265 #
vertex $-1 $107 $266 #
straight-curve $-1 60.659810174871055 0 13.278758854655045 0 1 0 I I #
face $-1 $267 $268 $25 $-1 $269 reversed single #
loop $-1 $-1 $114 $108 #
plane-surface $-1 -67.138046816134391 -23.222891625618228 0 0 -1 0 0 0 -1 forward_v I I I I #
coedge $-1 $270 $271 $272 $273 forward $109 $-1 #
coedge $-1 $274 $111 $190 $275 forward $69 $-1 #
coedge $-1 $111 $274 $276 $277 forward $69 $-1 #
edge $-1 $278 -30.258076704160128 $192 -23.222891625618228 $111 $279 forward 7 unknown #
coedge $-1 $113 $112 $280 $281 reversed $44 $-1 #
coedge $-1 $282 $283 $113 $188 forward $268 $-1 #
edge $-1 $191 23.222891625618228 $284 30.258076704160128 $187 $285 forward 7 unknown #
coedge $-1 $272 $114 $283 $286 reversed $180 $-1 #
coedge $-1 $114 $272 $183 $275 reversed $180 $-1 #
vertex $-1 $188 $287 #
vertex $-1 $275 $288 #
straight-curve $-1 -60.659810174871055 -23.222891625618228 0 0 0 1 I I #
face $-1 $-1 $289 $26 $-1 $290 reversed single #
loop $-1 $-1 $122 $116 #
plane-surface $-1 0 0 13.278758854655045 0 0 1 1 0 0 forward_v I I I I #
coedge $-1 $291 $292 $293 $294 reversed $117 $-1 #
coedge $-1 $295 $119 $121 $204 forward $73 $-1 #
coedge $-1 $119 $295 $291 $296 forward $73 $-1 #
coedge $-1 $293 $122 $119 $201 forward $195 $-1 #
edge $-1 $207 7.1122955273377642 $297 29.43145941911699 $200 $298 forward 7 unknown #
coedge $-1 $299 $300 $120 $203 forward $289 $-1 #
edge $-1 $301 -36.500965324383735 $206 -23.232244626512916 $202 $302 forward 7 unknown #
edge $-1 $207 -16.614238152834712 $301 -5.9036256503623736e-015 $121 $303 forward 7 unknown #
coedge $-1 $122 $293 $299 $304 forward $195 $-1 #
vertex $-1 $123 $305 #
vertex $-1 $123 $306 #
straight-curve $-1 -25.384173000565141 -63.574117289322764 13.278758854655045 0 1 0 I I #
coedge $-1 $209 $209 $-1 $307 reversed $126 $-1 #
edge $-1 $308 0 $308 6.2831853071796004 $127 $309 forward 7 unknown #
vertex $-1 $130 $310 #
ellipse-curve $-1 -41.326432923264591 -25.258727735519241 6.6443985057196349 0 -0.79863551827123203 0.60181501223851219 1.5 0 0 1 I I #
coedge $-1 $213 $213 $-1 $311 reversed $133 $-1 #
edge $-1 $312 0 $312 6.2831853071796004 $134 $313 forward 7 unknown #
vertex $-1 $137 $314 #
ellipse-curve $-1 -31.761076969644918 -25.258727735519241 6.6443985057196349 0 -0.79863551827123203 0.60181501223851219 1.5 0 0 1 I I #
face $-1 $-1 $229 $29 $-1 $315 forward single #
loop $-1 $-1 $316 $138 #
plane-surface $-1 0 30.258076704160128 0 0 -1 0 0 0 -1 forward_v I I I I #
coedge $-1 $317 $318 $319 $320 reversed $139 $-1 #
coedge $-1 $321 $141 $143 $227 forward $87 $-1 #
coedge $-1 $141 $321 $317 $322 forward $87 $-1 #
coedge $-1 $319 $144 $141 $224 forward $229 $-1 #
edge $-1 $231 -30.156537088555364 $323 -4.9370625190226569 $223 $324 forward 7 unknown #
coedge $-1 $325 $326 $142 $226 forward $218 $-1 #
edge $-1 $327 -54.450017239009426 $230 -44.016762140284904 $225 $328 forward 7 unknown #
edge $-1 $231 48.587248854031152 $327 60.516153408320285 $143 $329 forward 7 unknown #
coedge $-1 $144 $319 $325 $330 forward $229 $-1 #
loop $-1 $-1 $319 $217 #
vertex $-1 $226 $331 #
vertex $-1 $145 $332 #
straight-curve $-1 -47.703336892344375 53.513897964790225 13.278758854655045 0 -1 0 I I #
coedge $-1 $233 $233 $-1 $333 reversed $148 $-1 #
edge $-1 $334 0 $334 6.2831853071796004 $149 $335 forward 7 unknown #
vertex $-1 $152 $336 #
ellipse-curve $-1 -40.497772729620742 27.366452942746882 8.0621313052927874 0 0.87461971476443456 0.48480960649040278 2 0 0 1 I I #
coedge $-1 $237 $237 $-1 $337 reversed $155 $-1 #
edge $-1 $338 0 $338 6.2831853071796004 $156 $339 forward 7 unknown #
vertex $-1 $159 $340 #
ellipse-curve $-1 -29.689426485535297 27.366452942746882 8.0621313052927874 0 0.87461971476443456 0.48480960649040278 2 0 0 1 I I #
face $-1 $-1 $175 $24 $-1 $341 reversed single #
loop $-1 $-1 $256 $160 #
plane-surface $-1 0 30.258076704160128 0 0 -1 0 0 0 -1 forward_v I I I I #
coedge $-1 $342 $246 $168 $255 reversed $161 $-1 #
coedge $-1 $260 $163 $164 $249 reversed $101 $-1 #
coedge $-1 $244 $343 $163 $247 reversed $161 $-1 #
edge $-1 $261 -13.278758854655045 $344 13.278758854655045 $246 $345 forward 7 unknown #
coedge $-1 $165 $164 $343 $346 forward $65 $-1 #
edge $-1 $253 -60.659810174871055 $344 60.659810174871055 $245 $347 forward 7 unknown #
coedge $-1 $257 $256 $165 $251 reversed $242 $-1 #
edge $-1 $348 -60.659810174871055 $252 60.659810174871055 $250 $349 forward 7 unknown #
vertex $-1 $167 $350 #
vertex $-1 $263 $351 #
straight-curve $-1 60.659810174871055 0 -13.278758854655045 0 -1 0 I I #
edge $-1 $258 -30.258076704160128 $261 30.258076704160128 $244 $352 forward 7 unknown #
coedge $-1 $250 $169 $174 $264 forward $242 $-1 #
coedge $-1 $169 $250 $342 $353 reversed $242 $-1 #
vertex $-1 $170 $354 #
straight-curve $-1 0 30.258076704160128 13.278758854655045 -1 0 0 I I #
coedge $-1 $171 $245 $173 $263 reversed $101 $-1 #
vertex $-1 $255 $355 #
straight-curve $-1 0 -30.258076704160128 13.278758854655045 1 0 0 I I #
edge $-1 $176 -13.278758854655045 $253 13.278758854655045 $173 $356 forward 7 unknown #
edge $-1 $177 -13.278758854655045 $252 13.278758854655045 $174 $357 forward 7 unknown #
point $-1 60.659810174871055 -30.258076704160128 13.278758854655045 #
point $-1 60.659810174871055 30.258076704160128 13.278758854655045 #
face $-1 $-1 $358 $25 $-1 $359 reversed single #
loop $-1 $-1 $187 $179 #
plane-surface $-1 0 0 -13.278758854655045 0 0 1 1 0 0 forward_v I I I I #
coedge $-1 $360 $182 $361 $362 reversed $109 $-1 #
coedge $-1 $182 $360 $274 $363 reversed $109 $-1 #
coedge $-1 $190 $189 $182 $273 reversed $180 $-1 #
edge $-1 $364 -13.278758854655045 $365 13.278758854655045 $272 $366 forward 7 unknown #
coedge $-1 $184 $183 $271 $363 forward $69 $-1 #
edge $-1 $192 -6.4782366412633436 $364 6.4782366412633365 $190 $367 forward 7 unknown #
coedge $-1 $368 $280 $184 $277 reversed $358 $-1 #
edge $-1 $369 -73.616283457397728 $278 -60.659810174871055 $276 $370 forward 7 unknown #
vertex $-1 $281 $371 #
straight-curve $-1 -60.659810174871055 0 13.278758854655045 0 1 0 I I #
coedge $-1 $276 $372 $186 $281 forward $358 $-1 #
edge $-1 $284 -13.278758854655045 $278 13.278758854655045 $280 $373 forward 7 unknown #
coedge $-1 $361 $187 $372 $374 forward $268 $-1 #
coedge $-1 $187 $361 $189 $286 forward $268 $-1 #
vertex $-1 $374 $375 #
straight-curve $-1 -60.659810174871055 0 -13.278758854655045 0 -1 0 I I #
edge $-1 $365 -6.4782366412633365 $191 6.4782366412633436 $189 $376 forward 7 unknown #
point $-1 -60.659810174871048 -23.222891625618228 -13.278758854655045 #
point $-1 -60.659810174871048 -23.222891625618228 13.278758854655045 #
loop $-1 $-1 $202 $194 #
plane-surface $-1 0 -30.258076704160128 0 0 1 0 0 0 1 forward_v I I I I #
coedge $-1 $292 $197 $199 $296 reversed $117 $-1 #
coedge $-1 $197 $291 $377 $378 reversed $117 $-1 #
coedge $-1 $205 $200 $197 $294 forward $195 $-1 #
edge $-1 $297 -43.314738522444415 $379 -33.316040585162639 $293 $380 forward 7 unknown #
coedge $-1 $199 $198 $300 $381 reversed $73 $-1 #
edge $-1 $382 5.9036256503623736e-015 $297 16.614238152834712 $291 $383 forward 7 unknown #
vertex $-1 $201 $384 #
straight-curve $-1 -18.271877473227377 -20.259378766878353 13.278758854655045 -1 0 0 I I #
coedge $-1 $377 $202 $205 $304 reversed $289 $-1 #
coedge $-1 $202 $377 $295 $381 forward $289 $-1 #
vertex $-1 $203 $385 #
straight-curve $-1 -25.384173000565141 -30.258076704160132 36.511003481167961 0 0 1 I I #
straight-curve $-1 -25.384173000565141 -30.258076704160132 0.010038156784219154 0 -0.60181501223851219 -0.79863551827123203 I I #
edge $-1 $379 -47.703336892344367 $206 -25.384173000565141 $299 $386 forward 7 unknown #
point $-1 -25.384173000565141 -30.258076704160128 13.278758854655045 #
point $-1 -25.384173000565141 -20.259378766878353 13.278758854655047 #
edge $-1 $387 1 $387 0 $209 $-1 forward 7 unknown #
vertex $-1 $210 $388 #
ellipse-curve $-1 -41.326432923264591 -22.082599589069464 4.2510143453652836 0 -0.79863551827123203 0.60181501223851219 1.5 0 0 1 I I #
point $-1 -39.826432923264591 -25.258727735519244 6.6443985057196375 #
edge $-1 $389 1 $389 0 $213 $-1 forward 7 unknown #
vertex $-1 $214 $390 #
ellipse-curve $-1 -31.761076969644918 -22.082599589069464 4.2510143453652836 0 -0.79863551827123203 0.60181501223851219 1.5 0 0 1 I I #
point $-1 -30.261076969644918 -25.258727735519244 6.6443985057196375 #
plane-surface $-1 0 0 13.278758854655045 0 0 1 1 0 0 forward_v I I I I #
coedge $-1 $326 $325 $318 $391 forward $218 $-1 #
coedge $-1 $318 $220 $222 $322 reversed $139 $-1 #
coedge $-1 $220 $317 $316 $391 reversed $139 $-1 #
coedge $-1 $228 $223 $220 $320 forward $229 $-1 #
edge $-1 $323 -29.039068783456585 $392 -23.255821260630096 $319 $393 forward 7 unknown #
coedge $-1 $222 $221 $326 $394 reversed $87 $-1 #
edge $-1 $395 -60.516153408320285 $323 -48.587248854031152 $317 $396 forward 7 unknown #
vertex $-1 $224 $397 #
straight-curve $-1 -17.54679980378901 24.474829181333643 13.278758854655045 1 0 0 I I #
coedge $-1 $316 $225 $228 $330 reversed $218 $-1 #
coedge $-1 $225 $316 $321 $394 forward $218 $-1 #
vertex $-1 $226 $398 #
straight-curve $-1 -47.703336892344375 30.258076704160132 57.295520994939949 0 0 1 I I #
straight-curve $-1 -47.703336892344375 0.9192641839595268 55.774124588556369 0 0.48480960649040278 -0.87461971476443456 I I #
edge $-1 $392 22.483862322811667 $230 47.703336892344375 $325 $399 forward 7 unknown #
point $-1 -47.703336892344375 30.258076704160128 13.278758854655045 #
point $-1 -47.703336892344375 24.474829181333639 13.278758854655045 #
edge $-1 $400 1 $400 0 $233 $-1 forward 7 unknown #
vertex $-1 $234 $401 #
ellipse-curve $-1 -40.497772729620742 25.56340225967131 7.0626840285074071 0 0.87461971476443456 0.48480960649040278 2 0 0 1 I I #
point $-1 -38.497772729620742 27.366452942746889 8.0621313052927928 #
edge $-1 $402 1 $402 0 $237 $-1 forward 7 unknown #
vertex $-1 $238 $403 #
ellipse-curve $-1 -29.689426485535297 25.56340225967131 7.0626840285074071 0 0.87461971476443456 0.48480960649040278 2 0 0 1 I I #
point $-1 -27.689426485535297 27.366452942746889 8.0621313052927928 #
plane-surface $-1 60.659810174871055 0 0 -1 0 0 0 0 1 forward_v I I I I #
coedge $-1 $343 $244 $257 $353 forward $161 $-1 #
coedge $-1 $246 $342 $248 $346 reversed $161 $-1 #
vertex $-1 $346 $404 #
straight-curve $-1 -60.659810174871055 -30.258076704160128 0 0 0 -1 I I #
edge $-1 $344 -30.258076704160128 $348 30.258076704160128 $343 $405 forward 7 unknown #
straight-curve $-1 0 -30.258076704160128 -13.278758854655045 -1 0 0 I I #
vertex $-1 $251 $406 #
straight-curve $-1 0 30.258076704160128 -13.278758854655045 1 0 0 I I #
point $-1 60.659810174871055 30.258076704160128 -13.278758854655045 #
point $-1 60.659810174871055 -30.258076704160128 -13.278758854655045 #
straight-curve $-1 -60.659810174871055 0 13.278758854655045 0 -1 0 I I #
edge $-1 $258 -13.278758854655045 $348 13.278758854655045 $257 $407 forward 7 unknown #
point $-1 -60.659810174871055 30.258076704160128 13.278758854655045 #
point $-1 -60.659810174871055 -30.258076704160128 13.278758854655045 #
straight-curve $-1 60.659810174871055 -30.258076704160128 0 0 0 -1 I I #
straight-curve $-1 60.659810174871055 30.258076704160128 0 0 0 -1 I I #
loop $-1 $-1 $280 $267 #
plane-surface $-1 0 -30.258076704160128 0 0 1 0 0 0 1 forward_v I I I I #
coedge $-1 $271 $270 $368 $408 reversed $109 $-1 #
coedge $-1 $283 $282 $270 $362 forward $268 $-1 #
edge $-1 $409 -3.5175925392709502 $365 3.5175925392709502 $270 $410 forward 7 unknown #
edge $-1 $364 -3.5175925392709502 $369 3.5175925392709502 $271 $411 forward 7 unknown #
vertex $-1 $275 $412 #
vertex $-1 $286 $413 #
straight-curve $-1 -73.616283457397728 -23.222891625618228 0 0 0 -1 I I #
straight-curve $-1 -67.138046816134391 -23.222891625618228 13.278758854655045 -1 0 0 I I #
coedge $-1 $372 $276 $360 $408 forward $358 $-1 #
vertex $-1 $363 $414 #
straight-curve $-1 0 -30.258076704160128 13.278758854655045 1 0 0 I I #
point $-1 -60.659810174871055 -30.258076704160128 13.278758854655045 #
coedge $-1 $280 $368 $282 $374 reversed $358 $-1 #
straight-curve $-1 -60.659810174871055 -30.258076704160128 0 0 0 1 I I #
edge $-1 $284 -6.4782366412633365 $409 6.4782366412633365 $372 $415 forward 7 unknown #
point $-1 -60.659810174871055 -30.258076704160128 -13.278758854655045 #
straight-curve $-1 -67.138046816134391 -23.222891625618228 -13.278758854655045 1 0 0 I I #
coedge $-1 $300 $299 $292 $378 forward $289 $-1 #
edge $-1 $379 23.232244626512916 $382 36.500965324383735 $377 $416 forward 7 unknown #
vertex $-1 $304 $417 #
straight-curve $-1 -47.703336892344367 -63.574117289322764 13.278758854655045 0 -1 0 I I #
edge $-1 $382 -29.43145941911699 $301 -7.1122955273377642 $300 $418 forward 7 unknown #
vertex $-1 $381 $419 #
straight-curve $-1 -47.703336892344367 -30.258076704160132 0.010038156784219154 0 0.60181501223851219 0.79863551827123203 I I #
point $-1 -47.703336892344367 -20.259378766878353 13.278758854655047 #
point $-1 -25.384173000565141 -30.258076704160128 0.010038156784223869 #
straight-curve $-1 0 -30.258076704160128 13.278758854655045 1 0 0 I I #
vertex $-1 $307 $420 #
point $-1 -39.826432923264591 -22.082599589069464 4.2510143453652836 #
vertex $-1 $311 $421 #
point $-1 -30.261076969644918 -22.082599589069464 4.2510143453652836 #
edge $-1 $392 44.016762140284904 $395 54.450017239009426 $316 $422 forward 7 unknown #
vertex $-1 $330 $423 #
straight-curve $-1 -22.483862322811667 53.513897964790225 13.278758854655045 0 1 0 I I #
edge $-1 $395 4.9370625190226569 $327 30.156537088555364 $326 $424 forward 7 unknown #
vertex $-1 $394 $425 #
straight-curve $-1 -22.483862322811667 0.9192641839595268 55.774124588556369 0 -0.48480960649040278 0.87461971476443456 I I #
point $-1 -22.483862322811667 24.474829181333639 13.278758854655045 #
point $-1 -47.703336892344375 30.258076704160128 2.8455037559305225 #
straight-curve $-1 0 30.258076704160128 13.278758854655045 -1 0 0 I I #
vertex $-1 $333 $426 #
point $-1 -38.497772729620742 25.56340225967131 7.0626840285074071 #
vertex $-1 $337 $427 #
point $-1 -27.689426485535297 25.56340225967131 7.0626840285074071 #
point $-1 -60.659810174871055 -30.258076704160128 -13.278758854655045 #
straight-curve $-1 -60.659810174871055 0 -13.278758854655045 0 1 0 I I #
point $-1 -60.659810174871055 30.258076704160128 -13.278758854655045 #
straight-curve $-1 -60.659810174871055 30.258076704160128 0 0 0 -1 I I #
edge $-1 $369 -13.278758854655045 $409 13.278758854655045 $360 $428 forward 7 unknown #
vertex $-1 $362 $429 #
straight-curve $-1 -73.616283457397728 -26.740484164889178 -13.278758854655045 0 1 0 I I #
straight-curve $-1 -73.616283457397728 -26.740484164889178 13.278758854655045 0 -1 0 I I #
point $-1 -73.616283457397728 -23.222891625618228 13.278758854655045 #
point $-1 -73.616283457397728 -23.222891625618228 -13.278758854655045 #
point $-1 -73.616283457397728 -30.258076704160128 13.278758854655045 #
straight-curve $-1 -67.138046816134391 -30.258076704160128 -13.278758854655045 -1 0 0 I I #
straight-curve $-1 -47.703336892344367 -30.258076704160132 36.511003481167961 0 0 -1 I I #
point $-1 -47.703336892344367 -30.258076704160128 13.278758854655045 #
straight-curve $-1 -18.271877473227377 -30.258076704160128 0.010038156784226523 1 0 0 I I #
point $-1 -47.703336892344367 -30.258076704160128 0.010038156784223869 #
point $-1 -41.326432923264591 -20.884646311662618 3.3482918270075155 #
point $-1 -31.761076969644918 -20.884646311662618 3.3482918270075155 #
straight-curve $-1 -22.483862322811667 30.258076704160132 57.295520994939949 0 0 -1 I I #
point $-1 -22.483862322811667 30.258076704160128 13.278758854655045 #
straight-curve $-1 -17.54679980378901 30.258076704160128 2.845503755930519 -1 0 0 I I #
point $-1 -22.483862322811667 30.258076704160128 2.8455037559305225 #
point $-1 -40.497772729620742 23.81416283014244 6.093064815526601 #
point $-1 -29.689426485535297 23.81416283014244 6.093064815526601 #
straight-curve $-1 -73.616283457397728 -30.258076704160128 0 0 0 -1 I I #
point $-1 -73.616283457397728 -30.258076704160128 -13.278758854655045 #
End-of-ACIS-data 