500 0 4 0           
7 Unknown 11 ACIS 5.0 NT 24 Fri Mar 26 03:22:33 1999 
-1 9.9999999999999995e-007 1e-010 
body $-1 $4 $-1 $5 #
body $-1 $6 $-1 $7 #
body $-1 $8 $-1 $9 #
body $-1 $10 $-1 $11 #
lump $-1 $-1 $12 $0 #
transform $-1 1 0 0 0 1 0 0 0 1 46.115909298989834 23.982890578670496 10.682329468875333 1 rotate no_reflect no_shear #
lump $-1 $-1 $13 $1 #
transform $-1 1 0 0 0 1 0 0 0 1 46.115909298989834 23.982890578670496 10.682329468875333 1 rotate no_reflect no_shear #
lump $-1 $-1 $14 $2 #
transform $-1 1 0 0 0 1 0 0 0 1 46.115909298989834 23.982890578670496 10.682329468875333 1 rotate no_reflect no_shear #
lump $-1 $-1 $15 $3 #
transform $-1 1 0 0 0 1 0 0 0 1 46.115909298989834 23.982890578670496 10.682329468875333 1 rotate no_reflect no_shear #
shell $-1 $-1 $-1 $16 $-1 $4 #
shell $-1 $-1 $-1 $17 $-1 $6 #
shell $-1 $-1 $-1 $18 $-1 $8 #
shell $-1 $-1 $-1 $19 $-1 $10 #
face $-1 $20 $21 $12 $-1 $22 forward single #
face $-1 $23 $24 $13 $-1 $25 reversed single #
face $-1 $26 $27 $14 $-1 $28 forward single #
face $-1 $29 $30 $15 $-1 $31 reversed single #
face $-1 $32 $33 $12 $-1 $34 reversed single #
loop $-1 $-1 $35 $16 #
plane-surface $-1 0 0 10.682329468875333 0 0 1 1 0 0 forward_v I I I I #
face $-1 $36 $37 $13 $-1 $38 reversed single #
loop $-1 $-1 $39 $17 #
plane-surface $-1 -51.966482301956383 0 7.6823294688753325 0 0 1 1 0 0 forward_v I I I I #
face $-1 $40 $41 $14 $-1 $42 forward single #
loop $-1 $-1 $43 $18 #
plane-surface $-1 -2.55037877774744 73.624410467705985 97.55546465091264 1 0 0 0 -0.82903758062907751 -0.55919289150049634 forward_v I I I I #
face $-1 $44 $45 $15 $-1 $46 reversed single #
loop $-1 $47 $48 $19 #
cone-surface $-1 5.3322486442960937 21.519377791941082 7.8031415656154506 0 -0.82903758062907751 -0.55919289150049634 1 0 0 1 I I 0 1 1 forward I I I I #
face $-1 $49 $50 $12 $-1 $51 reversed single #
loop $-1 $-1 $52 $20 #
plane-surface $-1 0 0 -10.682329468875333 0 0 1 1 0 0 forward_v I I I I #
coedge $-1 $53 $54 $55 $56 forward $21 $-1 #
face $-1 $57 $58 $13 $-1 $59 forward single #
loop $-1 $-1 $60 $23 #
plane-surface $-1 -57.817055304922931 0 9.1823294688753325 1 0 0 0 0 -1 forward_v I I I I #
coedge $-1 $61 $62 $63 $64 reversed $24 $-1 #
face $-1 $65 $66 $14 $-1 $67 forward single #
loop $-1 $-1 $68 $26 #
plane-surface $-1 5.3322486442960937 -2.8392332797830306 45.980087320759132 0 0.82903758062907751 0.55919289150049634 1 0 0 forward_v I I I I #
coedge $-1 $69 $70 $71 $72 reversed $27 $-1 #
face $-1 $73 $74 $15 $-1 $75 forward single #
loop $-1 $76 $77 $29 #
cone-surface $-1 5.3322486442960937 20.148089366619406 6.8781958724962937 0 -0.82903758062907751 -0.55919289150049634 0.5 0 0 1 I I -0.70710678118654746 0.70710678118654746 0.5 forward I I I I #
loop $-1 $-1 $78 $19 #
coedge $-1 $48 $48 $79 $80 reversed $30 $-1 #
face $-1 $81 $82 $12 $-1 $83 reversed single #
loop $-1 $-1 $84 $32 #
plane-surface $-1 0 -23.982890578670496 0 0 1 0 0 0 1 forward_v I I I I #
coedge $-1 $85 $86 $87 $88 forward $33 $-1 #
coedge $-1 $89 $35 $90 $91 forward $21 $-1 #
coedge $-1 $35 $89 $92 $93 forward $21 $-1 #
coedge $-1 $94 $95 $35 $56 reversed $96 $-1 #
edge $-1 $97 -23.982890578670496 $98 23.982890578670496 $55 $99 forward 7 unknown #
face $-1 $100 $101 $13 $-1 $102 reversed single #
loop $-1 $-1 $103 $36 #
plane-surface $-1 0 0 10.682329468875333 0 0 1 1 0 0 forward_v I I I I #
coedge $-1 $104 $105 $106 $107 forward $37 $-1 #
coedge $-1 $108 $39 $109 $110 forward $24 $-1 #
coedge $-1 $39 $108 $111 $112 forward $24 $-1 #
coedge $-1 $113 $114 $39 $64 forward $115 $-1 #
edge $-1 $116 -23.982890578670496 $117 23.982890578670496 $63 $118 forward 7 unknown #
face $-1 $119 $120 $14 $-1 $121 forward single #
loop $-1 $-1 $122 $40 #
plane-surface $-1 13.214876066339627 73.624410467705985 97.55546465091264 -1 0 0 0 0.82903758062907751 0.55919289150049634 forward_v I I I I #
coedge $-1 $123 $124 $125 $126 reversed $41 $-1 #
coedge $-1 $70 $43 $124 $127 forward $27 $-1 #
coedge $-1 $43 $69 $128 $129 reversed $27 $-1 #
coedge $-1 $130 $125 $43 $72 forward $120 $-1 #
edge $-1 $131 -15.842800958627031 $132 -12.829314655182497 $71 $133 forward 7 unknown #
face $-1 $134 $135 $15 $-1 $136 forward single #
loop $-1 $-1 $137 $44 #
plane-surface $-1 -2.55037877774744 73.624410467705985 97.55546465091264 1 0 0 0 -0.82903758062907751 -0.55919289150049634 forward_v I I I I #
loop $-1 $-1 $138 $29 #
coedge $-1 $77 $77 $78 $139 forward $45 $-1 #
coedge $-1 $78 $78 $77 $139 reversed $47 $-1 #
coedge $-1 $79 $79 $48 $80 forward $135 $-1 #
edge $-1 $140 -9.5868091821877876e-016 $140 6.2831853071795996 $79 $141 forward 7 unknown #
face $-1 $142 $143 $12 $-1 $144 reversed single #
loop $-1 $-1 $145 $49 #
plane-surface $-1 -46.115909298989834 0 0 1 0 0 0 0 -1 forward_v I I I I #
coedge $-1 $146 $92 $147 $148 forward $50 $-1 #
coedge $-1 $149 $52 $146 $150 forward $33 $-1 #
coedge $-1 $52 $149 $151 $152 forward $33 $-1 #
coedge $-1 $95 $94 $52 $88 reversed $96 $-1 #
edge $-1 $153 -23.982890578670496 $154 23.982890578670496 $87 $155 forward 7 unknown #
coedge $-1 $54 $53 $156 $157 forward $21 $-1 #
coedge $-1 $158 $159 $53 $91 reversed $143 $-1 #
edge $-1 $98 -46.115909298989834 $160 46.115909298989834 $90 $161 forward 7 unknown #
coedge $-1 $84 $162 $54 $93 reversed $50 $-1 #
edge $-1 $163 -46.115909298989834 $97 46.115909298989834 $92 $164 forward 7 unknown #
coedge $-1 $87 $55 $162 $165 forward $96 $-1 #
coedge $-1 $55 $87 $158 $166 reversed $96 $-1 #
loop $-1 $-1 $94 $142 #
vertex $-1 $56 $167 #
vertex $-1 $56 $168 #
straight-curve $-1 46.115909298989834 0 10.682329468875333 0 1 0 I I #
face $-1 $169 $170 $13 $-1 $171 reversed single #
loop $-1 $-1 $172 $57 #
plane-surface $-1 0 0 -10.682329468875333 0 0 1 1 0 0 forward_v I I I I #
coedge $-1 $173 $174 $175 $176 forward $58 $-1 #
coedge $-1 $177 $60 $108 $178 reversed $37 $-1 #
coedge $-1 $60 $177 $179 $180 reversed $37 $-1 #
coedge $-1 $181 $111 $60 $107 reversed $182 $-1 #
edge $-1 $183 -1.5 $184 1.5 $106 $185 forward 7 unknown #
coedge $-1 $62 $61 $104 $178 forward $24 $-1 #
coedge $-1 $186 $187 $61 $110 reversed $170 $-1 #
edge $-1 $116 -5.8505730029665486 $188 5.8505730029665486 $109 $189 forward 7 unknown #
coedge $-1 $106 $190 $62 $112 reversed $182 $-1 #
edge $-1 $184 -5.8505730029665486 $117 5.8505730029665486 $111 $191 forward 7 unknown #
coedge $-1 $192 $63 $190 $193 forward $115 $-1 #
coedge $-1 $63 $192 $186 $194 reversed $115 $-1 #
loop $-1 $-1 $63 $169 #
vertex $-1 $194 $195 #
vertex $-1 $193 $196 #
straight-curve $-1 -46.115909298989834 0 7.6823294688753325 0 1 0 I I #
face $-1 $197 $198 $14 $-1 $199 reversed single #
loop $-1 $-1 $200 $65 #
plane-surface $-1 0 0 10.682329468875333 0 0 1 1 0 0 forward_v I I I I #
coedge $-1 $201 $202 $200 $203 reversed $66 $-1 #
coedge $-1 $204 $68 $202 $205 reversed $41 $-1 #
coedge $-1 $68 $204 $69 $127 reversed $41 $-1 #
coedge $-1 $71 $200 $68 $126 forward $120 $-1 #
edge $-1 $206 -10.548751744191581 $131 5.2165030998954869 $125 $207 forward 7 unknown #
edge $-1 $131 42.576788648229552 $208 47.965781157340984 $69 $209 forward 7 unknown #
coedge $-1 $210 $211 $70 $129 forward $212 $-1 #
edge $-1 $132 38.095402856580989 $208 42.563080168362944 $128 $213 forward 7 unknown #
coedge $-1 $214 $71 $211 $215 forward $120 $-1 #
vertex $-1 $126 $216 #
vertex $-1 $215 $217 #
straight-curve $-1 -2.55037877774744 36.812205233852993 10.682329468875331 0 1 0 I I #
face $-1 $218 $219 $15 $-1 $220 forward single #
loop $-1 $221 $79 $73 #
plane-surface $-1 5.3322486442960937 -2.8392332797830306 45.980087320759132 0 0.82903758062907751 0.55919289150049634 1 0 0 forward_v I I I I #
coedge $-1 $222 $223 $224 $225 reversed $74 $-1 #
coedge $-1 $138 $138 $-1 $226 forward $76 $-1 #
edge $-1 $227 0 $227 6.2831853071796004 $77 $228 forward 7 unknown #
vertex $-1 $80 $229 #
ellipse-curve $-1 5.3322486442960937 22.476147426948224 8.4484908129843621 0 -0.82903758062907751 -0.55919289150049634 1 0 0 1 I I #
face $-1 $-1 $96 $12 $-1 $230 reversed single #
loop $-1 $-1 $158 $81 #
plane-surface $-1 0 23.982890578670496 0 0 -1 0 0 0 -1 forward_v I I I I #
coedge $-1 $231 $156 $159 $232 forward $82 $-1 #
coedge $-1 $162 $84 $85 $150 reversed $50 $-1 #
coedge $-1 $156 $231 $84 $148 reversed $82 $-1 #
edge $-1 $163 -10.682329468875333 $233 10.682329468875333 $147 $234 forward 7 unknown #
coedge $-1 $86 $85 $231 $235 forward $33 $-1 #
edge $-1 $154 -46.115909298989834 $233 46.115909298989834 $146 $236 forward 7 unknown #
coedge $-1 $159 $158 $86 $152 reversed $143 $-1 #
edge $-1 $237 -46.115909298989834 $153 46.115909298989834 $151 $238 forward 7 unknown #
vertex $-1 $88 $239 #
vertex $-1 $165 $240 #
straight-curve $-1 46.115909298989834 0 -10.682329468875333 0 -1 0 I I #
coedge $-1 $145 $147 $89 $157 reversed $82 $-1 #
edge $-1 $160 -23.982890578670496 $163 23.982890578670496 $156 $241 forward 7 unknown #
coedge $-1 $151 $90 $95 $166 forward $143 $-1 #
coedge $-1 $90 $151 $145 $232 reversed $143 $-1 #
vertex $-1 $91 $242 #
straight-curve $-1 0 23.982890578670496 10.682329468875333 -1 0 0 I I #
coedge $-1 $92 $146 $94 $165 reversed $50 $-1 #
vertex $-1 $157 $243 #
straight-curve $-1 0 -23.982890578670496 10.682329468875333 1 0 0 I I #
edge $-1 $97 -10.682329468875333 $154 10.682329468875333 $94 $244 forward 7 unknown #
edge $-1 $98 -10.682329468875333 $153 10.682329468875333 $95 $245 forward 7 unknown #
point $-1 46.115909298989834 -23.982890578670496 10.682329468875333 #
point $-1 46.115909298989834 23.982890578670496 10.682329468875333 #
face $-1 $246 $115 $13 $-1 $247 reversed single #
loop $-1 $-1 $186 $100 #
plane-surface $-1 0 -23.982890578670496 0 0 1 0 0 0 1 forward_v I I I I #
coedge $-1 $248 $249 $250 $251 forward $101 $-1 #
coedge $-1 $179 $103 $181 $252 forward $58 $-1 #
coedge $-1 $103 $179 $253 $254 forward $58 $-1 #
coedge $-1 $255 $256 $103 $176 reversed $257 $-1 #
edge $-1 $258 -23.982890578670496 $259 23.982890578670496 $175 $260 forward 7 unknown #
coedge $-1 $105 $104 $187 $261 reversed $37 $-1 #
edge $-1 $188 -23.982890578670496 $184 23.982890578670496 $104 $262 forward 7 unknown #
coedge $-1 $174 $173 $105 $180 forward $58 $-1 #
edge $-1 $183 -23.982890578670496 $263 23.982890578670496 $105 $264 forward 7 unknown #
coedge $-1 $265 $106 $173 $252 reversed $182 $-1 #
loop $-1 $-1 $265 $246 #
vertex $-1 $252 $266 #
vertex $-1 $112 $267 #
straight-curve $-1 -57.817055304922931 23.982890578670496 9.1823294688753325 0 0 -1 I I #
coedge $-1 $268 $109 $114 $194 forward $170 $-1 #
coedge $-1 $109 $253 $177 $261 forward $170 $-1 #
vertex $-1 $178 $269 #
straight-curve $-1 -51.966482301956383 -23.982890578670496 7.6823294688753325 -1 0 0 I I #
coedge $-1 $111 $270 $113 $193 reversed $182 $-1 #
straight-curve $-1 -51.966482301956383 23.982890578670496 7.6823294688753325 1 0 0 I I #
coedge $-1 $114 $113 $271 $272 reversed $115 $-1 #
edge $-1 $117 -7.6823294688753325 $273 10.682329468875333 $190 $274 forward 7 unknown #
edge $-1 $116 -7.6823294688753325 $275 10.682329468875333 $114 $276 forward 7 unknown #
point $-1 -46.115909298989834 -23.982890578670496 7.6823294688753325 #
point $-1 -46.115909298989834 23.982890578670496 7.6823294688753325 #
face $-1 $277 $278 $14 $-1 $279 reversed single #
loop $-1 $-1 $280 $119 #
plane-surface $-1 -51.966482301956383 0 7.6823294688753325 0 0 1 1 0 0 forward_v I I I I #
coedge $-1 $125 $281 $122 $203 forward $120 $-1 #
coedge $-1 $202 $122 $282 $283 reversed $66 $-1 #
coedge $-1 $122 $201 $123 $205 forward $66 $-1 #
edge $-1 $284 12.829314655182497 $206 15.842800958627031 $200 $285 forward 7 unknown #
coedge $-1 $124 $123 $210 $286 reversed $41 $-1 #
edge $-1 $287 -47.965781157340984 $206 -42.576788648229552 $202 $288 forward 7 unknown #
vertex $-1 $126 $289 #
straight-curve $-1 2.6661243221480468 20.969404275225966 10.682329468875331 -1 0 0 I I #
vertex $-1 $286 $290 #
straight-curve $-1 -2.55037877774744 -2.8392332797830306 45.980087320759132 0 0.55919289150049634 -0.82903758062907751 I I #
coedge $-1 $282 $128 $204 $286 forward $212 $-1 #
coedge $-1 $128 $291 $130 $215 reversed $212 $-1 #
loop $-1 $-1 $282 $292 #
straight-curve $-1 -2.55037877774744 23.982890578670496 48.77773232545632 0 0 -1 I I #
coedge $-1 $293 $130 $294 $295 forward $120 $-1 #
edge $-1 $132 2.55037877774744 $296 57.817055304922931 $211 $297 forward 7 unknown #
point $-1 -2.55037877774744 20.969404275225962 10.682329468875331 #
point $-1 -2.55037877774744 23.982890578670496 10.682329468875333 #
face $-1 $298 $299 $15 $-1 $300 forward single #
loop $-1 $-1 $301 $134 #
plane-surface $-1 13.214876066339627 73.624410467705985 97.55546465091264 -1 0 0 0 0.82903758062907751 0.55919289150049634 forward_v I I I I #
loop $-1 $-1 $302 $73 #
coedge $-1 $223 $137 $303 $304 forward $74 $-1 #
coedge $-1 $137 $222 $305 $306 reversed $74 $-1 #
coedge $-1 $307 $308 $137 $225 forward $299 $-1 #
edge $-1 $309 -15.842800958627031 $310 -12.829314655182497 $224 $311 forward 7 unknown #
edge $-1 $312 1 $312 0 $138 $-1 forward 7 unknown #
vertex $-1 $139 $313 #
ellipse-curve $-1 5.3322486442960937 20.562608156933944 7.1577923182465417 0 0.82903758062907751 0.55919289150049634 1 0 0 1 I I #
point $-1 6.3322486442960937 22.47614742694822 8.4484908129843586 #
plane-surface $-1 46.115909298989834 0 0 -1 0 0 0 0 1 forward_v I I I I #
coedge $-1 $147 $145 $149 $235 reversed $82 $-1 #
edge $-1 $160 -10.682329468875333 $237 10.682329468875333 $159 $314 forward 7 unknown #
vertex $-1 $235 $315 #
straight-curve $-1 -46.115909298989834 -23.982890578670496 0 0 0 -1 I I #
edge $-1 $233 -23.982890578670496 $237 23.982890578670496 $231 $316 forward 7 unknown #
straight-curve $-1 0 -23.982890578670496 -10.682329468875333 -1 0 0 I I #
vertex $-1 $152 $317 #
straight-curve $-1 0 23.982890578670496 -10.682329468875333 1 0 0 I I #
point $-1 46.115909298989834 23.982890578670496 -10.682329468875333 #
point $-1 46.115909298989834 -23.982890578670496 -10.682329468875333 #
straight-curve $-1 -46.115909298989834 0 10.682329468875333 0 -1 0 I I #
point $-1 -46.115909298989834 23.982890578670496 10.682329468875333 #
point $-1 -46.115909298989834 -23.982890578670496 10.682329468875333 #
straight-curve $-1 46.115909298989834 -23.982890578670496 0 0 0 -1 I I #
straight-curve $-1 46.115909298989834 23.982890578670496 0 0 0 -1 I I #
face $-1 $318 $182 $13 $-1 $319 reversed single #
plane-surface $-1 -46.115909298989834 0 0 1 0 0 0 0 -1 forward_v I I I I #
coedge $-1 $271 $172 $268 $320 forward $101 $-1 #
coedge $-1 $172 $271 $270 $321 forward $101 $-1 #
coedge $-1 $256 $255 $172 $251 reversed $257 $-1 #
edge $-1 $322 -23.982890578670496 $323 23.982890578670496 $250 $324 forward 7 unknown #
edge $-1 $259 -46.115909298989834 $183 57.817055304922931 $181 $325 forward 7 unknown #
coedge $-1 $187 $326 $174 $254 reversed $170 $-1 #
edge $-1 $263 -57.817055304922931 $258 46.115909298989834 $253 $327 forward 7 unknown #
coedge $-1 $250 $175 $326 $328 forward $257 $-1 #
coedge $-1 $175 $250 $265 $329 reversed $257 $-1 #
loop $-1 $-1 $255 $318 #
vertex $-1 $176 $330 #
vertex $-1 $176 $331 #
straight-curve $-1 46.115909298989834 0 10.682329468875333 0 1 0 I I #
edge $-1 $263 -1.5 $188 1.5 $177 $332 forward 7 unknown #
straight-curve $-1 -57.817055304922931 0 7.6823294688753325 0 1 0 I I #
vertex $-1 $180 $333 #
straight-curve $-1 -57.817055304922931 0 10.682329468875333 0 -1 0 I I #
coedge $-1 $270 $181 $256 $329 forward $182 $-1 #
point $-1 -57.817055304922931 23.982890578670496 10.682329468875333 #
point $-1 -57.817055304922931 23.982890578670496 7.6823294688753325 #
coedge $-1 $326 $186 $248 $320 reversed $170 $-1 #
point $-1 -57.817055304922931 -23.982890578670496 7.6823294688753325 #
coedge $-1 $190 $265 $249 $321 reversed $182 $-1 #
coedge $-1 $249 $248 $192 $272 forward $101 $-1 #
edge $-1 $275 -23.982890578670496 $273 23.982890578670496 $192 $334 forward 7 unknown #
vertex $-1 $321 $335 #
straight-curve $-1 -46.115909298989834 23.982890578670496 0 0 0 -1 I I #
vertex $-1 $272 $336 #
straight-curve $-1 -46.115909298989834 -23.982890578670496 0 0 0 -1 I I #
face $-1 $337 $338 $14 $-1 $339 reversed single #
loop $-1 $-1 $340 $197 #
plane-surface $-1 -57.817055304922931 0 9.1823294688753325 1 0 0 0 0 -1 forward_v I I I I #
coedge $-1 $341 $342 $343 $344 reversed $198 $-1 #
coedge $-1 $200 $345 $346 $347 forward $120 $-1 #
coedge $-1 $346 $210 $201 $283 forward $212 $-1 #
edge $-1 $287 -42.563080168362944 $284 -38.095402856580989 $282 $348 forward 7 unknown #
vertex $-1 $283 $349 #
straight-curve $-1 13.214876066339627 36.812205233852993 10.682329468875331 0 -1 0 I I #
edge $-1 $208 -5.2165030998954869 $287 10.548751744191581 $210 $350 forward 7 unknown #
vertex $-1 $286 $351 #
straight-curve $-1 13.214876066339627 -2.8392332797830306 45.980087320759132 0 -0.55919289150049634 0.82903758062907751 I I #
point $-1 13.214876066339627 20.969404275225962 10.682329468875331 #
point $-1 -2.55037877774744 23.982890578670496 6.2146521570933757 #
coedge $-1 $211 $352 $340 $353 reversed $212 $-1 #
face $-1 $354 $212 $14 $-1 $355 reversed single #
coedge $-1 $345 $214 $356 $357 forward $120 $-1 #
coedge $-1 $340 $358 $214 $295 reversed $278 $-1 #
edge $-1 $296 -23.982890578670496 $359 23.982890578670496 $294 $360 forward 7 unknown #
vertex $-1 $215 $361 #
straight-curve $-1 0 23.982890578670496 10.682329468875333 -1 0 0 I I #
face $-1 $362 $363 $15 $-1 $364 reversed single #
loop $-1 $-1 $365 $218 #
plane-surface $-1 0 0 10.682329468875333 0 0 1 1 0 0 forward_v I I I I #
coedge $-1 $366 $367 $365 $368 reversed $219 $-1 #
coedge $-1 $369 $303 $308 $370 reversed $221 $-1 #
coedge $-1 $302 $371 $222 $304 reversed $221 $-1 #
edge $-1 $309 42.576788648229552 $372 47.965781157340984 $222 $373 forward 7 unknown #
coedge $-1 $374 $375 $223 $306 forward $376 $-1 #
edge $-1 $310 38.095402856580989 $372 42.563080168362944 $305 $377 forward 7 unknown #
coedge $-1 $378 $224 $375 $379 forward $299 $-1 #
coedge $-1 $224 $365 $302 $370 forward $299 $-1 #
vertex $-1 $370 $380 #
vertex $-1 $379 $381 #
straight-curve $-1 -2.55037877774744 36.812205233852993 10.682329468875331 0 1 0 I I #
vertex $-1 $226 $382 #
point $-1 6.3322486442960937 20.562608156933944 7.1577923182465417 #
straight-curve $-1 -46.115909298989834 23.982890578670496 0 0 0 -1 I I #
point $-1 -46.115909298989834 -23.982890578670496 -10.682329468875333 #
straight-curve $-1 -46.115909298989834 0 -10.682329468875333 0 1 0 I I #
point $-1 -46.115909298989834 23.982890578670496 -10.682329468875333 #
face $-1 $-1 $257 $13 $-1 $383 reversed single #
plane-surface $-1 0 23.982890578670496 0 0 -1 0 0 0 -1 forward_v I I I I #
edge $-1 $323 -46.115909298989834 $275 46.115909298989834 $268 $384 forward 7 unknown #
edge $-1 $273 -46.115909298989834 $322 46.115909298989834 $270 $385 forward 7 unknown #
vertex $-1 $251 $386 #
vertex $-1 $328 $387 #
straight-curve $-1 46.115909298989834 0 -10.682329468875333 0 -1 0 I I #
straight-curve $-1 0 23.982890578670496 10.682329468875333 -1 0 0 I I #
coedge $-1 $253 $268 $255 $328 reversed $170 $-1 #
straight-curve $-1 0 -23.982890578670496 10.682329468875333 1 0 0 I I #
edge $-1 $258 -10.682329468875333 $323 10.682329468875333 $255 $388 forward 7 unknown #
edge $-1 $259 -10.682329468875333 $322 10.682329468875333 $256 $389 forward 7 unknown #
point $-1 46.115909298989834 -23.982890578670496 10.682329468875333 #
point $-1 46.115909298989834 23.982890578670496 10.682329468875333 #
straight-curve $-1 -57.817055304922931 -23.982890578670496 9.1823294688753325 0 0 -1 I I #
point $-1 -57.817055304922931 -23.982890578670496 10.682329468875333 #
straight-curve $-1 -46.115909298989834 0 -10.682329468875333 0 1 0 I I #
point $-1 -46.115909298989834 23.982890578670496 -10.682329468875333 #
point $-1 -46.115909298989834 -23.982890578670496 -10.682329468875333 #
face $-1 $390 $391 $14 $-1 $392 reversed single #
loop $-1 $-1 $393 $277 #
plane-surface $-1 0 0 -10.682329468875333 0 0 1 1 0 0 forward_v I I I I #
coedge $-1 $394 $294 $291 $353 forward $278 $-1 #
coedge $-1 $395 $280 $396 $397 forward $198 $-1 #
coedge $-1 $280 $395 $352 $398 forward $198 $-1 #
coedge $-1 $399 $400 $280 $344 forward $401 $-1 #
edge $-1 $402 -23.982890578670496 $403 23.982890578670496 $343 $404 forward 7 unknown #
coedge $-1 $281 $293 $405 $406 forward $120 $-1 #
coedge $-1 $407 $282 $281 $347 reversed $212 $-1 #
edge $-1 $408 -46.115909298989834 $284 -13.214876066339627 $346 $297 forward 7 unknown #
straight-curve $-1 13.214876066339627 23.982890578670496 48.77773232545632 0 0 1 I I #
point $-1 13.214876066339627 23.982890578670496 10.682329468875333 #
straight-curve $-1 2.6661243221480468 23.982890578670499 6.2146521570933686 1 0 0 I I #
point $-1 13.214876066339627 23.982890578670496 6.2146521570933757 #
coedge $-1 $291 $409 $342 $398 reversed $212 $-1 #
edge $-1 $296 -1.5 $410 1.5 $291 $411 forward 7 unknown #
face $-1 $-1 $412 $14 $-1 $413 reversed single #
plane-surface $-1 0 23.982890578670496 0 0 -1 0 0 0 -1 forward_v I I I I #
coedge $-1 $414 $415 $293 $357 reversed $391 $-1 #
edge $-1 $359 -57.817055304922931 $416 46.115909298989834 $356 $417 forward 7 unknown #
coedge $-1 $294 $394 $414 $418 reversed $278 $-1 #
vertex $-1 $295 $419 #
straight-curve $-1 -57.817055304922931 0 10.682329468875333 0 -1 0 I I #
point $-1 -57.817055304922931 23.982890578670496 10.682329468875333 #
face $-1 $420 $421 $15 $-1 $422 reversed single #
loop $-1 $-1 $423 $298 #
plane-surface $-1 -51.966482301956383 0 7.6823294688753325 0 0 1 1 0 0 forward_v I I I I #
coedge $-1 $308 $424 $301 $368 forward $299 $-1 #
coedge $-1 $367 $301 $425 $426 reversed $219 $-1 #
coedge $-1 $301 $366 $369 $427 forward $219 $-1 #
edge $-1 $428 12.829314655182497 $429 15.842800958627031 $365 $430 forward 7 unknown #
coedge $-1 $371 $302 $367 $427 reversed $221 $-1 #
edge $-1 $429 -10.548751744191581 $309 5.2165030998954869 $308 $431 forward 7 unknown #
coedge $-1 $303 $369 $374 $432 reversed $221 $-1 #
vertex $-1 $432 $433 #
straight-curve $-1 -2.55037877774744 -2.8392332797830306 45.980087320759132 0 0.55919289150049634 -0.82903758062907751 I I #
coedge $-1 $425 $305 $371 $432 forward $376 $-1 #
coedge $-1 $305 $434 $307 $379 reversed $376 $-1 #
loop $-1 $-1 $425 $435 #
straight-curve $-1 -2.55037877774744 23.982890578670496 48.77773232545632 0 0 -1 I I #
coedge $-1 $436 $307 $437 $438 forward $299 $-1 #
edge $-1 $310 2.55037877774744 $439 57.817055304922931 $375 $440 forward 7 unknown #
point $-1 -2.55037877774744 20.969404275225962 10.682329468875331 #
point $-1 -2.55037877774744 23.982890578670496 10.682329468875333 #
point $-1 5.3322486442960937 19.733570576304867 6.5985994267460457 #
plane-surface $-1 46.115909298989834 0 0 -1 0 0 0 0 1 forward_v I I I I #
straight-curve $-1 0 -23.982890578670496 -10.682329468875333 -1 0 0 I I #
straight-curve $-1 0 23.982890578670496 -10.682329468875333 1 0 0 I I #
point $-1 46.115909298989834 23.982890578670496 -10.682329468875333 #
point $-1 46.115909298989834 -23.982890578670496 -10.682329468875333 #
straight-curve $-1 46.115909298989834 -23.982890578670496 0 0 0 -1 I I #
straight-curve $-1 46.115909298989834 23.982890578670496 0 0 0 -1 I I #
face $-1 $292 $401 $14 $-1 $441 reversed single #
loop $-1 $-1 $442 $337 #
plane-surface $-1 0 -23.982890578670496 0 0 1 0 0 0 1 forward_v I I I I #
coedge $-1 $443 $444 $445 $446 forward $338 $-1 #
coedge $-1 $358 $340 $395 $447 reversed $278 $-1 #
coedge $-1 $342 $341 $394 $447 forward $198 $-1 #
coedge $-1 $442 $414 $341 $397 reversed $391 $-1 #
edge $-1 $402 -5.8505730029665486 $448 5.8505730029665486 $396 $449 forward 7 unknown #
edge $-1 $410 -5.8505730029665486 $403 5.8505730029665486 $352 $450 forward 7 unknown #
coedge $-1 $451 $343 $409 $452 forward $401 $-1 #
coedge $-1 $343 $451 $442 $453 reversed $401 $-1 #
loop $-1 $-1 $343 $390 #
vertex $-1 $453 $454 #
vertex $-1 $452 $455 #
straight-curve $-1 -46.115909298989834 0 7.6823294688753325 0 1 0 I I #
coedge $-1 $456 $457 $345 $406 reversed $412 $-1 #
edge $-1 $416 -23.982890578670496 $408 23.982890578670496 $405 $458 forward 7 unknown #
coedge $-1 $459 $346 $457 $460 forward $212 $-1 #
vertex $-1 $406 $461 #
coedge $-1 $352 $459 $399 $452 reversed $212 $-1 #
vertex $-1 $398 $462 #
straight-curve $-1 -57.817055304922931 23.982890578670496 9.1823294688753325 0 0 -1 I I #
loop $-1 $-1 $456 $354 #
plane-surface $-1 46.115909298989834 0 0 -1 0 0 0 0 1 forward_v I I I I #
coedge $-1 $396 $356 $358 $418 forward $391 $-1 #
coedge $-1 $356 $463 $456 $464 reversed $391 $-1 #
vertex $-1 $406 $465 #
straight-curve $-1 0 -23.982890578670496 10.682329468875333 1 0 0 I I #
edge $-1 $359 -1.5 $448 1.5 $358 $466 forward 7 unknown #
point $-1 -57.817055304922931 -23.982890578670496 10.682329468875333 #
face $-1 $467 $468 $15 $-1 $469 reversed single #
loop $-1 $-1 $470 $362 #
plane-surface $-1 -57.817055304922931 0 9.1823294688753325 1 0 0 0 0 -1 forward_v I I I I #
coedge $-1 $471 $472 $473 $474 reversed $363 $-1 #
coedge $-1 $365 $475 $476 $477 forward $299 $-1 #
coedge $-1 $476 $374 $366 $426 forward $376 $-1 #
edge $-1 $478 -42.563080168362944 $428 -38.095402856580989 $425 $479 forward 7 unknown #
edge $-1 $478 -47.965781157340984 $429 -42.576788648229552 $367 $480 forward 7 unknown #
vertex $-1 $426 $481 #
vertex $-1 $370 $482 #
straight-curve $-1 13.214876066339627 36.812205233852993 10.682329468875331 0 -1 0 I I #
straight-curve $-1 2.6661243221480468 20.969404275225966 10.682329468875331 -1 0 0 I I #
edge $-1 $372 -5.2165030998954869 $478 10.548751744191581 $374 $483 forward 7 unknown #
point $-1 -2.55037877774744 23.982890578670496 6.2146521570933757 #
coedge $-1 $375 $484 $470 $485 reversed $376 $-1 #
face $-1 $486 $376 $15 $-1 $487 reversed single #
coedge $-1 $475 $378 $488 $489 forward $299 $-1 #
coedge $-1 $470 $490 $378 $438 reversed $421 $-1 #
edge $-1 $439 -23.982890578670496 $491 23.982890578670496 $437 $492 forward 7 unknown #
vertex $-1 $379 $493 #
straight-curve $-1 0 23.982890578670496 10.682329468875333 -1 0 0 I I #
plane-surface $-1 -46.115909298989834 0 0 1 0 0 0 0 -1 forward_v I I I I #
coedge $-1 $463 $396 $400 $453 forward $391 $-1 #
coedge $-1 $494 $393 $463 $495 forward $338 $-1 #
coedge $-1 $393 $494 $459 $496 forward $338 $-1 #
coedge $-1 $457 $456 $393 $446 reversed $412 $-1 #
edge $-1 $497 -23.982890578670496 $498 23.982890578670496 $445 $499 forward 7 unknown #
edge $-1 $448 -23.982890578670496 $410 23.982890578670496 $394 $500 forward 7 unknown #
vertex $-1 $447 $501 #
straight-curve $-1 -51.966482301956383 -23.982890578670496 7.6823294688753325 -1 0 0 I I #
straight-curve $-1 -51.966482301956383 23.982890578670496 7.6823294688753325 1 0 0 I I #
coedge $-1 $400 $399 $494 $502 reversed $401 $-1 #
edge $-1 $403 -7.6823294688753325 $503 10.682329468875333 $409 $504 forward 7 unknown #
edge $-1 $402 -7.6823294688753325 $505 10.682329468875333 $400 $506 forward 7 unknown #
point $-1 -46.115909298989834 -23.982890578670496 7.6823294688753325 #
point $-1 -46.115909298989834 23.982890578670496 7.6823294688753325 #
coedge $-1 $445 $405 $415 $464 forward $412 $-1 #
coedge $-1 $405 $445 $407 $460 reversed $412 $-1 #
straight-curve $-1 46.115909298989834 0 10.682329468875333 0 1 0 I I #
coedge $-1 $409 $407 $444 $496 reversed $212 $-1 #
edge $-1 $408 -10.682329468875333 $497 10.682329468875333 $457 $507 forward 7 unknown #
point $-1 46.115909298989834 23.982890578670496 10.682329468875333 #
point $-1 -57.817055304922931 23.982890578670496 7.6823294688753325 #
coedge $-1 $415 $442 $443 $495 reversed $391 $-1 #
edge $-1 $416 -10.682329468875333 $498 10.682329468875333 $456 $508 forward 7 unknown #
point $-1 46.115909298989834 -23.982890578670496 10.682329468875333 #
straight-curve $-1 -57.817055304922931 -23.982890578670496 9.1823294688753325 0 0 -1 I I #
face $-1 $509 $510 $15 $-1 $511 reversed single #
loop $-1 $-1 $512 $420 #
plane-surface $-1 0 0 -10.682329468875333 0 0 1 1 0 0 forward_v I I I I #
coedge $-1 $513 $437 $434 $485 forward $421 $-1 #
coedge $-1 $514 $423 $515 $516 forward $363 $-1 #
coedge $-1 $423 $514 $484 $517 forward $363 $-1 #
coedge $-1 $518 $519 $423 $474 forward $520 $-1 #
edge $-1 $521 -23.982890578670496 $522 23.982890578670496 $473 $523 forward 7 unknown #
coedge $-1 $424 $436 $524 $525 forward $299 $-1 #
coedge $-1 $526 $425 $424 $477 reversed $376 $-1 #
edge $-1 $527 -46.115909298989834 $428 -13.214876066339627 $476 $440 forward 7 unknown #
vertex $-1 $432 $528 #
straight-curve $-1 13.214876066339627 23.982890578670496 48.77773232545632 0 0 1 I I #
straight-curve $-1 13.214876066339627 -2.8392332797830306 45.980087320759132 0 -0.55919289150049634 0.82903758062907751 I I #
point $-1 13.214876066339627 23.982890578670496 10.682329468875333 #
point $-1 13.214876066339627 20.969404275225962 10.682329468875331 #
straight-curve $-1 2.6661243221480468 23.982890578670499 6.2146521570933686 1 0 0 I I #
coedge $-1 $434 $529 $472 $517 reversed $376 $-1 #
edge $-1 $439 -1.5 $530 1.5 $434 $531 forward 7 unknown #
face $-1 $-1 $532 $15 $-1 $533 reversed single #
plane-surface $-1 0 23.982890578670496 0 0 -1 0 0 0 -1 forward_v I I I I #
coedge $-1 $534 $535 $436 $489 reversed $510 $-1 #
edge $-1 $491 -57.817055304922931 $536 46.115909298989834 $488 $537 forward 7 unknown #
coedge $-1 $437 $513 $534 $538 reversed $421 $-1 #
vertex $-1 $438 $539 #
straight-curve $-1 -57.817055304922931 0 10.682329468875333 0 -1 0 I I #
point $-1 -57.817055304922931 23.982890578670496 10.682329468875333 #
coedge $-1 $444 $443 $451 $502 forward $338 $-1 #
edge $-1 $498 -46.115909298989834 $505 46.115909298989834 $463 $540 forward 7 unknown #
edge $-1 $503 -46.115909298989834 $497 46.115909298989834 $459 $541 forward 7 unknown #
vertex $-1 $446 $542 #
vertex $-1 $464 $543 #
straight-curve $-1 46.115909298989834 0 -10.682329468875333 0 -1 0 I I #
straight-curve $-1 -57.817055304922931 0 7.6823294688753325 0 1 0 I I #
point $-1 -57.817055304922931 -23.982890578670496 7.6823294688753325 #
edge $-1 $505 -23.982890578670496 $503 23.982890578670496 $451 $544 forward 7 unknown #
vertex $-1 $496 $545 #
straight-curve $-1 -46.115909298989834 23.982890578670496 0 0 0 -1 I I #
vertex $-1 $502 $546 #
straight-curve $-1 -46.115909298989834 -23.982890578670496 0 0 0 -1 I I #
straight-curve $-1 46.115909298989834 23.982890578670496 0 0 0 -1 I I #
straight-curve $-1 46.115909298989834 -23.982890578670496 0 0 0 -1 I I #
face $-1 $435 $520 $15 $-1 $547 reversed single #
loop $-1 $-1 $548 $467 #
plane-surface $-1 0 -23.982890578670496 0 0 1 0 0 0 1 forward_v I I I I #
coedge $-1 $549 $550 $551 $552 forward $468 $-1 #
coedge $-1 $490 $470 $514 $553 reversed $421 $-1 #
coedge $-1 $472 $471 $513 $553 forward $363 $-1 #
coedge $-1 $548 $534 $471 $516 reversed $510 $-1 #
edge $-1 $521 -5.8505730029665486 $554 5.8505730029665486 $515 $555 forward 7 unknown #
edge $-1 $530 -5.8505730029665486 $522 5.8505730029665486 $484 $556 forward 7 unknown #
coedge $-1 $557 $473 $529 $558 forward $520 $-1 #
coedge $-1 $473 $557 $548 $559 reversed $520 $-1 #
loop $-1 $-1 $473 $509 #
vertex $-1 $559 $560 #
vertex $-1 $558 $561 #
straight-curve $-1 -46.115909298989834 0 7.6823294688753325 0 1 0 I I #
coedge $-1 $562 $563 $475 $525 reversed $532 $-1 #
edge $-1 $536 -23.982890578670496 $527 23.982890578670496 $524 $564 forward 7 unknown #
coedge $-1 $565 $476 $563 $566 forward $376 $-1 #
vertex $-1 $525 $567 #
point $-1 13.214876066339627 23.982890578670496 6.2146521570933757 #
coedge $-1 $484 $565 $518 $558 reversed $376 $-1 #
vertex $-1 $517 $568 #
straight-curve $-1 -57.817055304922931 23.982890578670496 9.1823294688753325 0 0 -1 I I #
loop $-1 $-1 $562 $486 #
plane-surface $-1 46.115909298989834 0 0 -1 0 0 0 0 1 forward_v I I I I #
coedge $-1 $515 $488 $490 $538 forward $510 $-1 #
coedge $-1 $488 $569 $562 $570 reversed $510 $-1 #
vertex $-1 $525 $571 #
straight-curve $-1 0 -23.982890578670496 10.682329468875333 1 0 0 I I #
edge $-1 $491 -1.5 $554 1.5 $490 $572 forward 7 unknown #
point $-1 -57.817055304922931 -23.982890578670496 10.682329468875333 #
straight-curve $-1 0 -23.982890578670496 -10.682329468875333 -1 0 0 I I #
straight-curve $-1 0 23.982890578670496 -10.682329468875333 1 0 0 I I #
point $-1 46.115909298989834 23.982890578670496 -10.682329468875333 #
point $-1 46.115909298989834 -23.982890578670496 -10.682329468875333 #
straight-curve $-1 -46.115909298989834 0 -10.682329468875333 0 1 0 I I #
point $-1 -46.115909298989834 23.982890578670496 -10.682329468875333 #
point $-1 -46.115909298989834 -23.982890578670496 -10.682329468875333 #
plane-surface $-1 -46.115909298989834 0 0 1 0 0 0 0 -1 forward_v I I I I #
coedge $-1 $569 $515 $519 $559 forward $510 $-1 #
coedge $-1 $573 $512 $569 $574 forward $468 $-1 #
coedge $-1 $512 $573 $565 $575 forward $468 $-1 #
coedge $-1 $563 $562 $512 $552 reversed $532 $-1 #
edge $-1 $576 -23.982890578670496 $577 23.982890578670496 $551 $578 forward 7 unknown #
edge $-1 $554 -23.982890578670496 $530 23.982890578670496 $513 $579 forward 7 unknown #
vertex $-1 $553 $580 #
straight-curve $-1 -51.966482301956383 -23.982890578670496 7.6823294688753325 -1 0 0 I I #
straight-curve $-1 -51.966482301956383 23.982890578670496 7.6823294688753325 1 0 0 I I #
coedge $-1 $519 $518 $573 $581 reversed $520 $-1 #
edge $-1 $522 -7.6823294688753325 $582 10.682329468875333 $529 $583 forward 7 unknown #
edge $-1 $521 -7.6823294688753325 $584 10.682329468875333 $519 $585 forward 7 unknown #
point $-1 -46.115909298989834 -23.982890578670496 7.6823294688753325 #
point $-1 -46.115909298989834 23.982890578670496 7.6823294688753325 #
coedge $-1 $551 $524 $535 $570 forward $532 $-1 #
coedge $-1 $524 $551 $526 $566 reversed $532 $-1 #
straight-curve $-1 46.115909298989834 0 10.682329468875333 0 1 0 I I #
coedge $-1 $529 $526 $550 $575 reversed $376 $-1 #
edge $-1 $527 -10.682329468875333 $576 10.682329468875333 $563 $586 forward 7 unknown #
point $-1 46.115909298989834 23.982890578670496 10.682329468875333 #
point $-1 -57.817055304922931 23.982890578670496 7.6823294688753325 #
coedge $-1 $535 $548 $549 $574 reversed $510 $-1 #
edge $-1 $536 -10.682329468875333 $577 10.682329468875333 $562 $587 forward 7 unknown #
point $-1 46.115909298989834 -23.982890578670496 10.682329468875333 #
straight-curve $-1 -57.817055304922931 -23.982890578670496 9.1823294688753325 0 0 -1 I I #
coedge $-1 $550 $549 $557 $581 forward $468 $-1 #
edge $-1 $577 -46.115909298989834 $584 46.115909298989834 $569 $588 forward 7 unknown #
edge $-1 $582 -46.115909298989834 $576 46.115909298989834 $565 $589 forward 7 unknown #
vertex $-1 $552 $590 #
vertex $-1 $570 $591 #
straight-curve $-1 46.115909298989834 0 -10.682329468875333 0 -1 0 I I #
straight-curve $-1 -57.817055304922931 0 7.6823294688753325 0 1 0 I I #
point $-1 -57.817055304922931 -23.982890578670496 7.6823294688753325 #
edge $-1 $584 -23.982890578670496 $582 23.982890578670496 $557 $592 forward 7 unknown #
vertex $-1 $575 $593 #
straight-curve $-1 -46.115909298989834 23.982890578670496 0 0 0 -1 I I #
vertex $-1 $581 $594 #
straight-curve $-1 -46.115909298989834 -23.982890578670496 0 0 0 -1 I I #
straight-curve $-1 46.115909298989834 23.982890578670496 0 0 0 -1 I I #
straight-curve $-1 46.115909298989834 -23.982890578670496 0 0 0 -1 I I #
straight-curve $-1 0 -23.982890578670496 -10.682329468875333 -1 0 0 I I #
straight-curve $-1 0 23.982890578670496 -10.682329468875333 1 0 0 I I #
point $-1 46.115909298989834 23.982890578670496 -10.682329468875333 #
point $-1 46.115909298989834 -23.982890578670496 -10.682329468875333 #
straight-curve $-1 -46.115909298989834 0 -10.682329468875333 0 1 0 I I #
point $-1 -46.115909298989834 23.982890578670496 -10.682329468875333 #
point $-1 -46.115909298989834 -23.982890578670496 -10.682329468875333 #
End-of-ACIS-data 