500 0 12 0           
7 Unknown 11 ACIS 5.0 NT 24 Fri Mar 26 02:06:55 1999 
-1 9.9999999999999995e-007 1e-010 
body $-1 $12 $-1 $13 #
body $-1 $14 $-1 $15 #
body $-1 $16 $-1 $17 #
body $-1 $18 $-1 $19 #
body $-1 $20 $-1 $21 #
body $-1 $22 $-1 $23 #
body $-1 $24 $-1 $25 #
body $-1 $26 $-1 $27 #
body $-1 $28 $-1 $29 #
body $-1 $30 $-1 $31 #
body $-1 $32 $-1 $33 #
body $-1 $34 $-1 $35 #
lump $-1 $-1 $36 $0 #
transform $-1 1 0 0 0 1 0 0 0 1 72.072511978514967 43.342046831770908 10.847350183211882 1 rotate no_reflect no_shear #
lump $-1 $-1 $37 $1 #
transform $-1 1 0 0 0 1 0 0 0 1 72.072511978514967 43.342046831770908 10.847350183211882 1 rotate no_reflect no_shear #
lump $-1 $-1 $38 $2 #
transform $-1 1 0 0 0 1 0 0 0 1 72.072511978514967 43.342046831770908 10.847350183211882 1 rotate no_reflect no_shear #
lump $-1 $-1 $39 $3 #
transform $-1 1 0 0 0 1 0 0 0 1 72.072511978514967 43.342046831770908 10.847350183211882 1 rotate no_reflect no_shear #
lump $-1 $-1 $40 $4 #
transform $-1 1 0 0 0 1 0 0 0 1 72.072511978514967 43.342046831770908 10.847350183211882 1 rotate no_reflect no_shear #
lump $-1 $-1 $41 $5 #
transform $-1 1 0 0 0 1 0 0 0 1 72.072511978514967 43.342046831770908 10.847350183211882 1 rotate no_reflect no_shear #
lump $-1 $-1 $42 $6 #
transform $-1 1 0 0 0 1 0 0 0 1 72.072511978514967 43.342046831770908 10.847350183211882 1 rotate no_reflect no_shear #
lump $-1 $-1 $43 $7 #
transform $-1 1 0 0 0 1 0 0 0 1 72.072511978514967 43.342046831770908 10.847350183211882 1 rotate no_reflect no_shear #
lump $-1 $-1 $44 $8 #
transform $-1 1 0 0 0 1 0 0 0 1 72.072511978514967 43.342046831770908 10.847350183211882 1 rotate no_reflect no_shear #
lump $-1 $-1 $45 $9 #
transform $-1 1 0 0 0 1 0 0 0 1 72.072511978514967 43.342046831770908 10.847350183211882 1 rotate no_reflect no_shear #
lump $-1 $-1 $46 $10 #
transform $-1 1 0 0 0 1 0 0 0 1 72.072511978514967 43.342046831770908 10.847350183211882 1 rotate no_reflect no_shear #
lump $-1 $-1 $47 $11 #
transform $-1 1 0 0 0 1 0 0 0 1 72.072511978514967 43.342046831770908 10.847350183211882 1 rotate no_reflect no_shear #
shell $-1 $-1 $-1 $48 $-1 $12 #
shell $-1 $-1 $-1 $49 $-1 $14 #
shell $-1 $-1 $-1 $50 $-1 $16 #
shell $-1 $-1 $-1 $51 $-1 $18 #
shell $-1 $-1 $-1 $52 $-1 $20 #
shell $-1 $-1 $-1 $53 $-1 $22 #
shell $-1 $-1 $-1 $54 $-1 $24 #
shell $-1 $-1 $-1 $55 $-1 $26 #
shell $-1 $-1 $-1 $56 $-1 $28 #
shell $-1 $-1 $-1 $57 $-1 $30 #
shell $-1 $-1 $-1 $58 $-1 $32 #
shell $-1 $-1 $-1 $59 $-1 $34 #
face $-1 $60 $61 $36 $-1 $62 forward single #
face $-1 $63 $64 $37 $-1 $65 reversed single #
face $-1 $66 $67 $38 $-1 $68 reversed single #
face $-1 $69 $70 $39 $-1 $71 forward single #
face $-1 $72 $73 $40 $-1 $74 reversed single #
face $-1 $75 $76 $41 $-1 $77 forward single #
face $-1 $78 $79 $42 $-1 $80 forward single #
face $-1 $81 $82 $43 $-1 $83 forward single #
face $-1 $84 $85 $44 $-1 $86 reversed single #
face $-1 $87 $88 $45 $-1 $89 forward single #
face $-1 $90 $91 $46 $-1 $92 forward single #
face $-1 $93 $94 $47 $-1 $95 forward single #
face $-1 $96 $97 $36 $-1 $98 reversed single #
loop $-1 $-1 $99 $48 #
plane-surface $-1 0 0 10.847350183211882 0 0 1 1 0 0 forward_v I I I I #
face $-1 $100 $101 $37 $-1 $102 reversed single #
loop $-1 $-1 $103 $49 #
plane-surface $-1 -66.447386097792233 0 7.8473501832118817 0 0 1 1 0 0 forward_v I I I I #
face $-1 $104 $105 $38 $-1 $106 reversed single #
loop $-1 $-1 $107 $50 #
plane-surface $-1 -49.552749466580877 -2.5935232038033433 78.307578160818579 0 0.84804810408105047 0.52991925155115449 1 0 0 forward_v I I I I #
face $-1 $108 $109 $39 $-1 $110 forward single #
loop $-1 $111 $112 $51 #
cone-surface $-1 -49.552749466580877 39.903274918104621 6.8540878777155916 0 -0.84804810408105047 -0.52991925155115449 1.5 0 0 1 I I 0 1 1.5 forward I I I I #
face $-1 $113 $114 $40 $-1 $115 reversed single #
loop $-1 $-1 $116 $52 #
plane-surface $-1 -18.443209613604541 -132.08658605490896 114.58649901451389 -1 0 0 0 -0.61566148304635926 0.78801074757464917 forward_v I I I I #
face $-1 $117 $118 $41 $-1 $119 forward single #
loop $-1 $120 $121 $53 #
cone-surface $-1 -35.500560036847851 -35.045057995360445 3.3706512710060723 0 0.61566148304635926 -0.78801074757464917 2 0 0 1 I I 0 1 2 forward I I I I #
face $-1 $122 $123 $42 $-1 $124 forward single #
loop $-1 $125 $126 $54 #
cone-surface $-1 -29.104053628131609 -35.045057995360445 3.3706512710060723 0 0.61566148304635926 -0.78801074757464917 2 0 0 1 I I 0 1 2 forward I I I I #
face $-1 $127 $128 $43 $-1 $129 forward single #
loop $-1 $130 $131 $55 #
cone-surface $-1 -22.707547219415368 -35.045057995360445 3.3706512710060723 0 0.61566148304635926 -0.78801074757464917 2 0 0 1 I I 0 1 2 forward I I I I #
face $-1 $132 $133 $44 $-1 $134 reversed single #
loop $-1 $-1 $135 $56 #
plane-surface $-1 51.01514940410415 -132.08658605490896 114.58649901451389 -1 0 0 0 -0.61566148304635926 0.78801074757464917 forward_v I I I I #
face $-1 $136 $137 $45 $-1 $138 forward single #
loop $-1 $139 $140 $57 #
cone-surface $-1 33.957798980860844 -35.045057995360445 3.3706512710060723 0 0.61566148304635926 -0.78801074757464917 2 0 0 1 I I 0 1 2 forward I I I I #
face $-1 $141 $142 $46 $-1 $143 forward single #
loop $-1 $144 $145 $58 #
cone-surface $-1 40.354305389577078 -35.045057995360445 3.3706512710060723 0 0.61566148304635926 -0.78801074757464917 2 0 0 1 I I 0 1 2 forward I I I I #
face $-1 $146 $147 $47 $-1 $148 forward single #
loop $-1 $149 $150 $59 #
cone-surface $-1 46.750811798293313 -35.045057995360445 3.3706512710060723 0 0.61566148304635926 -0.78801074757464917 2 0 0 1 I I 0 1 2 forward I I I I #
face $-1 $151 $152 $36 $-1 $153 reversed single #
loop $-1 $-1 $154 $60 #
plane-surface $-1 0 0 -10.847350183211882 0 0 1 1 0 0 forward_v I I I I #
coedge $-1 $155 $156 $157 $158 forward $61 $-1 #
face $-1 $159 $160 $37 $-1 $161 reversed single #
loop $-1 $-1 $162 $63 #
plane-surface $-1 -60.822260217069498 0 9.3473501832118817 -1 0 0 0 0 1 forward_v I I I I #
coedge $-1 $163 $164 $165 $166 forward $64 $-1 #
face $-1 $167 $168 $38 $-1 $169 forward single #
loop $-1 $-1 $170 $66 #
plane-surface $-1 -38.283238716092256 119.64839107567349 154.69280137095112 -1 0 0 0 0.84804810408105047 0.52991925155115449 forward_v I I I I #
coedge $-1 $171 $172 $173 $174 reversed $67 $-1 #
face $-1 $-1 $175 $39 $-1 $176 forward single #
loop $-1 $177 $178 $69 #
cone-surface $-1 -49.552749466580877 37.719338177521188 5.4894127874279857 0 -0.84804810408105047 -0.52991925155115449 0.75 0 0 1 I I -0.70710678118654757 0.70710678118654757 0.75 forward I I I I #
loop $-1 $-1 $179 $51 #
coedge $-1 $112 $112 $180 $181 reversed $70 $-1 #
face $-1 $182 $183 $40 $-1 $184 reversed single #
loop $-1 $-1 $185 $72 #
plane-surface $-1 -29.104053628131609 -43.342046831770929 0.99867092696901238 0 -0.61566148304635926 0.78801074757464917 1 0 0 forward_v I I I I #
coedge $-1 $186 $187 $188 $189 reversed $73 $-1 #
face $-1 $-1 $190 $41 $-1 $191 forward single #
loop $-1 $192 $193 $75 #
cone-surface $-1 -35.500560036847851 -32.43527484970609 0.030281239347049294 0 0.61566148304635926 -0.78801074757464917 1 0 0 1 I I -0.70710678118654735 0.70710678118654768 1 forward I I I I #
loop $-1 $-1 $194 $53 #
coedge $-1 $121 $121 $195 $196 reversed $76 $-1 #
face $-1 $-1 $197 $42 $-1 $198 forward single #
loop $-1 $199 $200 $78 #
cone-surface $-1 -29.104053628131609 -32.43527484970609 0.030281239347049294 0 0.61566148304635926 -0.78801074757464917 1 0 0 1 I I -0.70710678118654735 0.70710678118654768 1 forward I I I I #
loop $-1 $-1 $201 $54 #
coedge $-1 $126 $126 $202 $203 reversed $79 $-1 #
face $-1 $-1 $204 $43 $-1 $205 forward single #
loop $-1 $206 $207 $81 #
cone-surface $-1 -22.707547219415368 -32.43527484970609 0.030281239347049294 0 0.61566148304635926 -0.78801074757464917 1 0 0 1 I I -0.70710678118654735 0.70710678118654768 1 forward I I I I #
loop $-1 $-1 $208 $55 #
coedge $-1 $131 $131 $209 $210 reversed $82 $-1 #
face $-1 $211 $212 $44 $-1 $213 reversed single #
loop $-1 $-1 $214 $84 #
plane-surface $-1 40.354305389577078 -43.342046831770929 0.99867092696901238 0 -0.61566148304635926 0.78801074757464917 1 0 0 forward_v I I I I #
coedge $-1 $215 $216 $217 $218 reversed $85 $-1 #
face $-1 $-1 $219 $45 $-1 $220 forward single #
loop $-1 $221 $222 $87 #
cone-surface $-1 33.957798980860844 -32.43527484970609 0.030281239347049294 0 0.61566148304635926 -0.78801074757464917 1 0 0 1 I I -0.70710678118654735 0.70710678118654768 1 forward I I I I #
loop $-1 $-1 $223 $57 #
coedge $-1 $140 $140 $224 $225 reversed $88 $-1 #
face $-1 $-1 $226 $46 $-1 $227 forward single #
loop $-1 $228 $229 $90 #
cone-surface $-1 40.354305389577078 -32.43527484970609 0.030281239347049294 0 0.61566148304635926 -0.78801074757464917 1 0 0 1 I I -0.70710678118654735 0.70710678118654768 1 forward I I I I #
loop $-1 $-1 $230 $58 #
coedge $-1 $145 $145 $231 $232 reversed $91 $-1 #
face $-1 $-1 $233 $47 $-1 $234 forward single #
loop $-1 $235 $236 $93 #
cone-surface $-1 46.750811798293313 -32.43527484970609 0.030281239347049294 0 0.61566148304635926 -0.78801074757464917 1 0 0 1 I I -0.70710678118654735 0.70710678118654768 1 forward I I I I #
loop $-1 $-1 $237 $59 #
coedge $-1 $150 $150 $238 $239 reversed $94 $-1 #
face $-1 $240 $241 $36 $-1 $242 reversed single #
loop $-1 $-1 $243 $96 #
plane-surface $-1 0 -43.342046831770908 0 0 1 0 0 0 1 forward_v I I I I #
coedge $-1 $244 $245 $246 $247 forward $97 $-1 #
coedge $-1 $248 $99 $249 $250 forward $61 $-1 #
coedge $-1 $99 $248 $251 $252 forward $61 $-1 #
coedge $-1 $253 $254 $99 $158 reversed $255 $-1 #
edge $-1 $256 -43.342046831770908 $257 43.342046831770908 $157 $258 forward 7 unknown #
face $-1 $259 $260 $37 $-1 $261 reversed single #
loop $-1 $-1 $262 $100 #
plane-surface $-1 0 43.342046831770908 0 0 -1 0 0 0 -1 forward_v I I I I #
coedge $-1 $263 $264 $265 $266 reversed $101 $-1 #
coedge $-1 $267 $103 $268 $269 reversed $64 $-1 #
coedge $-1 $103 $267 $270 $271 reversed $64 $-1 #
coedge $-1 $264 $263 $103 $166 reversed $101 $-1 #
edge $-1 $272 -43.342046831770908 $273 43.342046831770908 $165 $274 forward 7 unknown #
face $-1 $275 $276 $38 $-1 $277 reversed single #
loop $-1 $-1 $173 $104 #
plane-surface $-1 0 0 10.847350183211882 0 0 1 1 0 0 forward_v I I I I #
coedge $-1 $278 $279 $280 $281 reversed $105 $-1 #
coedge $-1 $282 $107 $283 $284 reversed $67 $-1 #
coedge $-1 $107 $282 $278 $285 forward $67 $-1 #
coedge $-1 $280 $286 $107 $174 forward $168 $-1 #
edge $-1 $287 -36.04588548377906 $288 -13.506863982801818 $173 $289 forward 7 unknown #
loop $-1 $-1 $180 $108 #
plane-surface $-1 -49.552749466580877 -2.5935232038033433 78.307578160818579 0 0.84804810408105047 0.52991925155115449 1 0 0 forward_v I I I I #
loop $-1 $-1 $290 $69 #
coedge $-1 $178 $178 $179 $291 reversed $109 $-1 #
coedge $-1 $179 $179 $178 $291 forward $111 $-1 #
coedge $-1 $180 $180 $112 $181 forward $175 $-1 #
edge $-1 $292 -5.0267026812223208e-016 $292 6.2831853071795996 $180 $293 forward 7 unknown #
face $-1 $294 $295 $40 $-1 $296 reversed single #
loop $-1 $-1 $297 $113 #
plane-surface $-1 -39.764897642658681 -132.08658605490896 114.58649901451389 1 0 0 0 0.61566148304635926 -0.78801074757464917 forward_v I I I I #
coedge $-1 $298 $299 $300 $301 reversed $114 $-1 #
coedge $-1 $187 $116 $302 $303 reversed $73 $-1 #
coedge $-1 $116 $186 $298 $304 reversed $73 $-1 #
coedge $-1 $300 $305 $116 $189 forward $306 $-1 #
edge $-1 $307 22.701246195683574 $308 35.306980543288489 $188 $309 forward 7 unknown #
loop $-1 $-1 $195 $117 #
plane-surface $-1 -29.104053628131609 -43.342046831770929 0.99867092696901238 0 -0.61566148304635926 0.78801074757464917 1 0 0 forward_v I I I I #
loop $-1 $-1 $310 $75 #
coedge $-1 $193 $193 $194 $311 reversed $118 $-1 #
coedge $-1 $194 $194 $193 $311 forward $120 $-1 #
coedge $-1 $195 $195 $121 $196 forward $190 $-1 #
edge $-1 $312 -4.8132689654384008e-016 $312 6.2831853071795996 $195 $313 forward 7 unknown #
loop $-1 $-1 $202 $122 #
plane-surface $-1 -29.104053628131609 -43.342046831770929 0.99867092696901238 0 -0.61566148304635926 0.78801074757464917 1 0 0 forward_v I I I I #
loop $-1 $-1 $314 $78 #
coedge $-1 $200 $200 $201 $315 reversed $123 $-1 #
coedge $-1 $201 $201 $200 $315 forward $125 $-1 #
coedge $-1 $202 $202 $126 $203 forward $197 $-1 #
edge $-1 $316 -4.8132689654384008e-016 $316 6.2831853071795996 $202 $317 forward 7 unknown #
loop $-1 $-1 $209 $127 #
plane-surface $-1 -29.104053628131609 -43.342046831770929 0.99867092696901238 0 -0.61566148304635926 0.78801074757464917 1 0 0 forward_v I I I I #
loop $-1 $-1 $318 $81 #
coedge $-1 $207 $207 $208 $319 reversed $128 $-1 #
coedge $-1 $208 $208 $207 $319 forward $130 $-1 #
coedge $-1 $209 $209 $131 $210 forward $204 $-1 #
edge $-1 $320 -4.8132689654384008e-016 $320 6.2831853071795996 $209 $321 forward 7 unknown #
face $-1 $322 $323 $44 $-1 $324 reversed single #
loop $-1 $-1 $325 $132 #
plane-surface $-1 29.69346137505001 -132.08658605490896 114.58649901451389 1 0 0 0 0.61566148304635926 -0.78801074757464917 forward_v I I I I #
coedge $-1 $326 $327 $328 $329 reversed $133 $-1 #
coedge $-1 $216 $135 $330 $331 reversed $85 $-1 #
coedge $-1 $135 $215 $326 $332 reversed $85 $-1 #
coedge $-1 $328 $333 $135 $218 forward $334 $-1 #
edge $-1 $335 22.701246195683574 $336 35.306980543288489 $217 $337 forward 7 unknown #
loop $-1 $-1 $224 $136 #
plane-surface $-1 40.354305389577078 -43.342046831770929 0.99867092696901238 0 -0.61566148304635926 0.78801074757464917 1 0 0 forward_v I I I I #
loop $-1 $-1 $338 $87 #
coedge $-1 $222 $222 $223 $339 reversed $137 $-1 #
coedge $-1 $223 $223 $222 $339 forward $139 $-1 #
coedge $-1 $224 $224 $140 $225 forward $219 $-1 #
edge $-1 $340 -4.8132689654384008e-016 $340 6.2831853071795996 $224 $341 forward 7 unknown #
loop $-1 $-1 $231 $141 #
plane-surface $-1 40.354305389577078 -43.342046831770929 0.99867092696901238 0 -0.61566148304635926 0.78801074757464917 1 0 0 forward_v I I I I #
loop $-1 $-1 $342 $90 #
coedge $-1 $229 $229 $230 $343 reversed $142 $-1 #
coedge $-1 $230 $230 $229 $343 forward $144 $-1 #
coedge $-1 $231 $231 $145 $232 forward $226 $-1 #
edge $-1 $344 -4.8132689654384008e-016 $344 6.2831853071795996 $231 $345 forward 7 unknown #
loop $-1 $-1 $238 $146 #
plane-surface $-1 40.354305389577078 -43.342046831770929 0.99867092696901238 0 -0.61566148304635926 0.78801074757464917 1 0 0 forward_v I I I I #
loop $-1 $-1 $346 $93 #
coedge $-1 $236 $236 $237 $347 reversed $147 $-1 #
coedge $-1 $237 $237 $236 $347 forward $149 $-1 #
coedge $-1 $238 $238 $150 $239 forward $233 $-1 #
edge $-1 $348 -4.8132689654384008e-016 $348 6.2831853071795996 $238 $349 forward 7 unknown #
face $-1 $350 $351 $36 $-1 $352 reversed single #
loop $-1 $-1 $353 $151 #
plane-surface $-1 -72.072511978514967 0 0 1 0 0 0 0 -1 forward_v I I I I #
coedge $-1 $354 $251 $355 $356 forward $152 $-1 #
coedge $-1 $357 $154 $354 $358 forward $97 $-1 #
coedge $-1 $154 $357 $359 $360 forward $97 $-1 #
coedge $-1 $254 $253 $154 $247 reversed $255 $-1 #
edge $-1 $361 -43.342046831770908 $362 43.342046831770908 $246 $363 forward 7 unknown #
coedge $-1 $156 $155 $364 $365 forward $61 $-1 #
coedge $-1 $366 $367 $155 $250 reversed $351 $-1 #
edge $-1 $257 -72.072511978514967 $368 72.072511978514967 $249 $369 forward 7 unknown #
coedge $-1 $243 $370 $156 $252 reversed $152 $-1 #
edge $-1 $371 -72.072511978514967 $256 72.072511978514967 $251 $372 forward 7 unknown #
coedge $-1 $246 $157 $370 $373 forward $255 $-1 #
coedge $-1 $157 $246 $366 $374 reversed $255 $-1 #
loop $-1 $-1 $253 $350 #
vertex $-1 $158 $375 #
vertex $-1 $158 $376 #
straight-curve $-1 72.072511978514967 0 10.847350183211882 0 1 0 I I #
face $-1 $377 $378 $37 $-1 $379 forward single #
loop $-1 $-1 $380 $159 #
plane-surface $-1 -72.072511978514967 0 0 1 0 0 0 0 -1 forward_v I I I I #
coedge $-1 $270 $381 $264 $382 forward $160 $-1 #
coedge $-1 $165 $162 $383 $384 reversed $101 $-1 #
coedge $-1 $162 $165 $262 $382 reversed $101 $-1 #
coedge $-1 $385 $386 $162 $266 forward $378 $-1 #
edge $-1 $387 -43.342046831770908 $388 43.342046831770908 $265 $389 forward 7 unknown #
coedge $-1 $164 $163 $380 $390 reversed $64 $-1 #
coedge $-1 $383 $391 $163 $269 forward $392 $-1 #
edge $-1 $393 -38.848818929618851 $273 -27.598567168173382 $268 $394 forward 7 unknown #
coedge $-1 $395 $262 $164 $271 forward $160 $-1 #
edge $-1 $272 27.598567168173382 $396 38.848818929618851 $270 $397 forward 7 unknown #
vertex $-1 $271 $398 #
vertex $-1 $269 $399 #
straight-curve $-1 -60.822260217069498 0 7.8473501832118817 0 -1 0 I I #
face $-1 $-1 $400 $38 $-1 $401 forward single #
loop $-1 $-1 $402 $167 #
plane-surface $-1 0 43.342046831770908 0 0 -1 0 0 0 -1 forward_v I I I I #
coedge $-1 $279 $170 $172 $285 reversed $105 $-1 #
coedge $-1 $170 $278 $402 $403 reversed $105 $-1 #
coedge $-1 $404 $173 $170 $281 forward $168 $-1 #
edge $-1 $288 -20.26389120835313 $405 -16.482148706065836 $280 $406 forward 7 unknown #
coedge $-1 $172 $171 $407 $408 reversed $67 $-1 #
coedge $-1 $409 $410 $171 $284 forward $400 $-1 #
edge $-1 $411 -56.756119429318623 $287 -49.619668939517481 $283 $412 forward 7 unknown #
edge $-1 $413 -86.684093663541816 $288 -79.547643173740667 $278 $414 forward 7 unknown #
coedge $-1 $173 $404 $409 $415 forward $168 $-1 #
vertex $-1 $284 $416 #
vertex $-1 $174 $417 #
straight-curve $-1 -24.776374733290439 39.560304329483628 10.84735018321188 1 0 0 I I #
coedge $-1 $290 $290 $-1 $418 reversed $177 $-1 #
edge $-1 $419 0 $419 6.2831853071796004 $178 $420 forward 7 unknown #
vertex $-1 $181 $421 #
ellipse-curve $-1 -49.552749466580877 41.451175580627257 7.8213235293398258 0 0.84804810408105047 0.52991925155115449 1.5 0 0 1 I I #
face $-1 $-1 $306 $40 $-1 $422 forward single #
loop $-1 $-1 $423 $182 #
plane-surface $-1 0 -43.342046831770908 0 0 1 0 0 0 1 forward_v I I I I #
coedge $-1 $424 $425 $426 $427 reversed $183 $-1 #
coedge $-1 $428 $185 $187 $304 forward $114 $-1 #
coedge $-1 $185 $428 $424 $429 forward $114 $-1 #
coedge $-1 $426 $188 $185 $301 forward $306 $-1 #
edge $-1 $308 3.8911827995387362 $430 25.212870828592877 $300 $431 forward 7 unknown #
coedge $-1 $432 $433 $186 $303 forward $295 $-1 #
edge $-1 $434 -56.294578580287919 $307 -46.445899324045065 $302 $435 forward 7 unknown #
edge $-1 $308 -15.996906623929995 $434 -2.7050282679495667e-014 $187 $436 forward 7 unknown #
coedge $-1 $188 $426 $432 $437 forward $306 $-1 #
loop $-1 $-1 $426 $294 #
vertex $-1 $303 $438 #
vertex $-1 $189 $439 #
straight-curve $-1 -18.443209613604541 -66.043293027454482 10.84735018321188 0 1 0 I I #
coedge $-1 $310 $310 $-1 $440 reversed $192 $-1 #
edge $-1 $441 0 $441 6.2831853071796004 $193 $442 forward 7 unknown #
vertex $-1 $196 $443 #
ellipse-curve $-1 -35.500560036847851 -37.039179657968447 5.9230105550904568 0 -0.61566148304635926 0.78801074757464917 2 0 0 1 I I #
coedge $-1 $314 $314 $-1 $444 reversed $199 $-1 #
edge $-1 $445 0 $445 6.2831853071796004 $200 $446 forward 7 unknown #
vertex $-1 $203 $447 #
ellipse-curve $-1 -29.104053628131609 -37.039179657968447 5.9230105550904568 0 -0.61566148304635926 0.78801074757464917 2 0 0 1 I I #
coedge $-1 $318 $318 $-1 $448 reversed $206 $-1 #
edge $-1 $449 0 $449 6.2831853071796004 $207 $450 forward 7 unknown #
vertex $-1 $210 $451 #
ellipse-curve $-1 -22.707547219415368 -37.039179657968447 5.9230105550904568 0 -0.61566148304635926 0.78801074757464917 2 0 0 1 I I #
face $-1 $-1 $334 $44 $-1 $452 forward single #
loop $-1 $-1 $453 $211 #
plane-surface $-1 0 -43.342046831770908 0 0 1 0 0 0 1 forward_v I I I I #
coedge $-1 $454 $455 $456 $457 reversed $212 $-1 #
coedge $-1 $458 $214 $216 $332 forward $133 $-1 #
coedge $-1 $214 $458 $454 $459 forward $133 $-1 #
coedge $-1 $456 $217 $214 $329 forward $334 $-1 #
edge $-1 $336 -30.837996709315611 $460 -9.5163086802614707 $328 $461 forward 7 unknown #
coedge $-1 $462 $463 $215 $331 forward $323 $-1 #
edge $-1 $464 -56.294578580287919 $335 -46.445899324045065 $330 $465 forward 7 unknown #
edge $-1 $336 -15.996906623929995 $464 -2.7050282679495667e-014 $216 $466 forward 7 unknown #
coedge $-1 $217 $456 $462 $467 forward $334 $-1 #
loop $-1 $-1 $456 $322 #
vertex $-1 $331 $468 #
vertex $-1 $218 $469 #
straight-curve $-1 51.01514940410415 -66.043293027454482 10.84735018321188 0 1 0 I I #
coedge $-1 $338 $338 $-1 $470 reversed $221 $-1 #
edge $-1 $471 0 $471 6.2831853071796004 $222 $472 forward 7 unknown #
vertex $-1 $225 $473 #
ellipse-curve $-1 33.957798980860844 -37.039179657968447 5.9230105550904568 0 -0.61566148304635926 0.78801074757464917 2 0 0 1 I I #
coedge $-1 $342 $342 $-1 $474 reversed $228 $-1 #
edge $-1 $475 0 $475 6.2831853071796004 $229 $476 forward 7 unknown #
vertex $-1 $232 $477 #
ellipse-curve $-1 40.354305389577078 -37.039179657968447 5.9230105550904568 0 -0.61566148304635926 0.78801074757464917 2 0 0 1 I I #
coedge $-1 $346 $346 $-1 $478 reversed $235 $-1 #
edge $-1 $479 0 $479 6.2831853071796004 $236 $480 forward 7 unknown #
vertex $-1 $239 $481 #
ellipse-curve $-1 46.750811798293313 -37.039179657968447 5.9230105550904568 0 -0.61566148304635926 0.78801074757464917 2 0 0 1 I I #
face $-1 $-1 $255 $36 $-1 $482 reversed single #
loop $-1 $-1 $366 $240 #
plane-surface $-1 0 43.342046831770908 0 0 -1 0 0 0 -1 forward_v I I I I #
coedge $-1 $483 $364 $367 $484 forward $241 $-1 #
coedge $-1 $370 $243 $244 $358 reversed $152 $-1 #
coedge $-1 $364 $483 $243 $356 reversed $241 $-1 #
edge $-1 $371 -10.847350183211882 $485 10.847350183211882 $355 $486 forward 7 unknown #
coedge $-1 $245 $244 $483 $487 forward $97 $-1 #
edge $-1 $362 -72.072511978514967 $485 72.072511978514967 $354 $488 forward 7 unknown #
coedge $-1 $367 $366 $245 $360 reversed $351 $-1 #
edge $-1 $489 -72.072511978514967 $361 72.072511978514967 $359 $490 forward 7 unknown #
vertex $-1 $247 $491 #
vertex $-1 $373 $492 #
straight-curve $-1 72.072511978514967 0 -10.847350183211882 0 -1 0 I I #
coedge $-1 $353 $355 $248 $365 reversed $241 $-1 #
edge $-1 $368 -43.342046831770908 $371 43.342046831770908 $364 $493 forward 7 unknown #
coedge $-1 $359 $249 $254 $374 forward $351 $-1 #
coedge $-1 $249 $359 $353 $484 reversed $351 $-1 #
vertex $-1 $250 $494 #
straight-curve $-1 0 43.342046831770908 10.847350183211882 -1 0 0 I I #
coedge $-1 $251 $354 $253 $373 reversed $152 $-1 #
vertex $-1 $365 $495 #
straight-curve $-1 0 -43.342046831770908 10.847350183211882 1 0 0 I I #
edge $-1 $256 -10.847350183211882 $362 10.847350183211882 $253 $496 forward 7 unknown #
edge $-1 $257 -10.847350183211882 $361 10.847350183211882 $254 $497 forward 7 unknown #
point $-1 72.072511978514967 -43.342046831770908 10.847350183211882 #
point $-1 72.072511978514967 43.342046831770908 10.847350183211882 #
face $-1 $-1 $392 $37 $-1 $498 reversed single #
loop $-1 $-1 $265 $259 #
plane-surface $-1 0 0 10.847350183211882 0 0 1 1 0 0 forward_v I I I I #
coedge $-1 $499 $500 $267 $390 forward $260 $-1 #
coedge $-1 $262 $395 $385 $501 reversed $160 $-1 #
edge $-1 $388 -6.1736750916059409 $272 -3.1736750916059409 $262 $502 forward 7 unknown #
coedge $-1 $503 $268 $263 $384 forward $392 $-1 #
edge $-1 $273 3.1736750916059409 $387 6.1736750916059409 $383 $504 forward 7 unknown #
coedge $-1 $505 $265 $381 $501 forward $378 $-1 #
coedge $-1 $265 $505 $503 $506 forward $378 $-1 #
vertex $-1 $384 $507 #
vertex $-1 $501 $508 #
straight-curve $-1 -60.822260217069498 0 10.847350183211882 0 1 0 I I #
edge $-1 $396 -43.342046831770908 $393 43.342046831770908 $380 $509 forward 7 unknown #
coedge $-1 $268 $503 $499 $510 forward $392 $-1 #
loop $-1 $-1 $383 $377 #
vertex $-1 $390 $511 #
straight-curve $-1 -33.223693048896116 -43.342046831770908 7.8473501832118817 1 0 0 I I #
coedge $-1 $381 $270 $500 $512 reversed $160 $-1 #
vertex $-1 $390 $513 #
straight-curve $-1 -33.223693048896116 43.342046831770908 7.8473501832118817 -1 0 0 I I #
point $-1 -60.822260217069498 43.342046831770908 7.8473501832118817 #
point $-1 -60.822260217069498 -43.342046831770908 7.8473501832118817 #
loop $-1 $-1 $283 $275 #
plane-surface $-1 -60.822260217069498 0 9.3473501832118817 -1 0 0 0 0 1 forward_v I I I I #
coedge $-1 $407 $514 $279 $403 forward $276 $-1 #
edge $-1 $405 66.499050502263671 $413 72.551103810007817 $402 $515 forward 7 unknown #
coedge $-1 $286 $280 $514 $516 forward $168 $-1 #
vertex $-1 $516 $517 #
straight-curve $-1 -38.283238716092256 59.824195537836744 10.847350183211887 0 1 0 I I #
coedge $-1 $518 $402 $282 $408 forward $276 $-1 #
edge $-1 $413 13.506863982801818 $411 36.04588548377906 $407 $519 forward 7 unknown #
coedge $-1 $410 $283 $286 $415 reversed $400 $-1 #
coedge $-1 $283 $409 $518 $520 reversed $400 $-1 #
vertex $-1 $520 $521 #
straight-curve $-1 -60.822260217069498 13.265886502838448 52.927216352499073 0 -0.52991925155115449 0.84804810408105047 I I #
vertex $-1 $408 $522 #
straight-curve $-1 -38.283238716092256 -2.5935232038033433 78.307578160818579 0 -0.52991925155115449 0.84804810408105047 I I #
edge $-1 $523 -43.342046831770908 $287 -39.560304329483621 $286 $524 forward 7 unknown #
point $-1 -60.822260217069498 39.560304329483621 10.847350183211882 #
point $-1 -38.283238716092256 39.560304329483614 10.847350183211887 #
edge $-1 $525 1 $525 0 $290 $-1 forward 7 unknown #
vertex $-1 $291 $526 #
ellipse-curve $-1 -49.552749466580877 38.355374255581978 5.8868522260913512 0 0.84804810408105047 0.52991925155115449 1.5 0 0 1 I I #
point $-1 -48.052749466580877 41.451175580627265 7.8213235293398311 #
plane-surface $-1 0 0 10.847350183211882 0 0 1 1 0 0 forward_v I I I I #
coedge $-1 $433 $432 $425 $527 forward $295 $-1 #
coedge $-1 $425 $297 $299 $429 reversed $183 $-1 #
coedge $-1 $297 $424 $423 $527 reversed $183 $-1 #
coedge $-1 $305 $300 $297 $427 forward $306 $-1 #
edge $-1 $430 -35.306980543288489 $528 -22.701246195683574 $426 $529 forward 7 unknown #
coedge $-1 $299 $298 $433 $530 reversed $114 $-1 #
edge $-1 $531 2.7050282679495667e-014 $430 15.996906623929995 $424 $532 forward 7 unknown #
vertex $-1 $301 $533 #
straight-curve $-1 -14.552026814065805 -30.736312484166 10.847350183211882 -1 0 0 I I #
coedge $-1 $423 $302 $305 $437 reversed $295 $-1 #
coedge $-1 $302 $423 $428 $530 forward $295 $-1 #
vertex $-1 $303 $534 #
straight-curve $-1 -18.443209613604541 -43.342046831770908 57.293249507256945 0 0 1 I I #
straight-curve $-1 -18.443209613604541 -43.342046831770929 0.99867092696901238 0 -0.78801074757464917 -0.61566148304635926 I I #
edge $-1 $528 -39.764897642658681 $307 -18.443209613604541 $432 $535 forward 7 unknown #
point $-1 -18.443209613604541 -43.342046831770908 10.847350183211882 #
point $-1 -18.443209613604541 -30.736312484165996 10.847350183211882 #
edge $-1 $536 1 $536 0 $310 $-1 forward 7 unknown #
vertex $-1 $311 $537 #
ellipse-curve $-1 -35.500560036847851 -33.05093633275245 0.8182919869216988 0 -0.61566148304635926 0.78801074757464917 2 0 0 1 I I #
point $-1 -33.500560036847851 -37.03917965796844 5.9230105550904462 #
edge $-1 $538 1 $538 0 $314 $-1 forward 7 unknown #
vertex $-1 $315 $539 #
ellipse-curve $-1 -29.104053628131609 -33.05093633275245 0.8182919869216988 0 -0.61566148304635926 0.78801074757464917 2 0 0 1 I I #
point $-1 -27.104053628131609 -37.03917965796844 5.9230105550904462 #
edge $-1 $540 1 $540 0 $318 $-1 forward 7 unknown #
vertex $-1 $319 $541 #
ellipse-curve $-1 -22.707547219415368 -33.05093633275245 0.8182919869216988 0 -0.61566148304635926 0.78801074757464917 2 0 0 1 I I #
point $-1 -20.707547219415368 -37.03917965796844 5.9230105550904462 #
plane-surface $-1 0 0 10.847350183211882 0 0 1 1 0 0 forward_v I I I I #
coedge $-1 $463 $462 $455 $542 forward $323 $-1 #
coedge $-1 $455 $325 $327 $459 reversed $212 $-1 #
coedge $-1 $325 $454 $453 $542 reversed $212 $-1 #
coedge $-1 $333 $328 $325 $457 forward $334 $-1 #
edge $-1 $460 -35.306980543288489 $543 -22.701246195683574 $456 $544 forward 7 unknown #
coedge $-1 $327 $326 $463 $545 reversed $133 $-1 #
edge $-1 $546 2.7050282679495667e-014 $460 15.996906623929995 $454 $547 forward 7 unknown #
vertex $-1 $329 $548 #
straight-curve $-1 20.177152694788539 -30.736312484166 10.847350183211882 -1 0 0 I I #
coedge $-1 $453 $330 $333 $467 reversed $323 $-1 #
coedge $-1 $330 $453 $458 $545 forward $323 $-1 #
vertex $-1 $331 $549 #
straight-curve $-1 51.01514940410415 -43.342046831770908 57.293249507256945 0 0 1 I I #
straight-curve $-1 51.01514940410415 -43.342046831770929 0.99867092696901238 0 -0.78801074757464917 -0.61566148304635926 I I #
edge $-1 $543 29.69346137505001 $335 51.01514940410415 $462 $550 forward 7 unknown #
point $-1 51.01514940410415 -43.342046831770908 10.847350183211882 #
point $-1 51.01514940410415 -30.736312484165996 10.847350183211882 #
edge $-1 $551 1 $551 0 $338 $-1 forward 7 unknown #
vertex $-1 $339 $552 #
ellipse-curve $-1 33.957798980860844 -33.05093633275245 0.8182919869216988 0 -0.61566148304635926 0.78801074757464917 2 0 0 1 I I #
point $-1 35.957798980860844 -37.03917965796844 5.9230105550904462 #
edge $-1 $553 1 $553 0 $342 $-1 forward 7 unknown #
vertex $-1 $343 $554 #
ellipse-curve $-1 40.354305389577078 -33.05093633275245 0.8182919869216988 0 -0.61566148304635926 0.78801074757464917 2 0 0 1 I I #
point $-1 42.354305389577078 -37.03917965796844 5.9230105550904462 #
edge $-1 $555 1 $555 0 $346 $-1 forward 7 unknown #
vertex $-1 $347 $556 #
ellipse-curve $-1 46.750811798293313 -33.05093633275245 0.8182919869216988 0 -0.61566148304635926 0.78801074757464917 2 0 0 1 I I #
point $-1 48.750811798293313 -37.03917965796844 5.9230105550904462 #
plane-surface $-1 72.072511978514967 0 0 -1 0 0 0 0 1 forward_v I I I I #
coedge $-1 $355 $353 $357 $487 reversed $241 $-1 #
edge $-1 $368 -10.847350183211882 $489 10.847350183211882 $367 $557 forward 7 unknown #
vertex $-1 $487 $558 #
straight-curve $-1 -72.072511978514967 -43.342046831770908 0 0 0 -1 I I #
edge $-1 $485 -43.342046831770908 $489 43.342046831770908 $483 $559 forward 7 unknown #
straight-curve $-1 0 -43.342046831770908 -10.847350183211882 -1 0 0 I I #
vertex $-1 $360 $560 #
straight-curve $-1 0 43.342046831770908 -10.847350183211882 1 0 0 I I #
point $-1 72.072511978514967 43.342046831770908 -10.847350183211882 #
point $-1 72.072511978514967 -43.342046831770908 -10.847350183211882 #
straight-curve $-1 -72.072511978514967 0 10.847350183211882 0 -1 0 I I #
point $-1 -72.072511978514967 43.342046831770908 10.847350183211882 #
point $-1 -72.072511978514967 -43.342046831770908 10.847350183211882 #
straight-curve $-1 72.072511978514967 -43.342046831770908 0 0 0 -1 I I #
straight-curve $-1 72.072511978514967 43.342046831770908 0 0 0 -1 I I #
plane-surface $-1 0 -43.342046831770908 0 0 1 0 0 0 1 forward_v I I I I #
coedge $-1 $561 $380 $391 $510 reversed $260 $-1 #
coedge $-1 $380 $561 $395 $512 forward $260 $-1 #
edge $-1 $388 60.822260217069498 $562 72.072511978514967 $381 $563 forward 7 unknown #
straight-curve $-1 -60.822260217069498 43.342046831770908 4.6736750916059409 0 0 -1 I I #
coedge $-1 $391 $383 $386 $506 reversed $392 $-1 #
straight-curve $-1 -60.822260217069498 -43.342046831770908 4.6736750916059409 0 0 1 I I #
coedge $-1 $386 $385 $561 $564 forward $378 $-1 #
edge $-1 $565 -72.072511978514967 $387 -60.822260217069498 $503 $566 forward 7 unknown #
point $-1 -60.822260217069498 -43.342046831770908 10.847350183211882 #
point $-1 -60.822260217069498 43.342046831770908 10.847350183211882 #
straight-curve $-1 -72.072511978514967 0 7.8473501832118817 0 -1 0 I I #
edge $-1 $565 -10.847350183211882 $393 -7.8473501832118817 $499 $567 forward 7 unknown #
point $-1 -72.072511978514967 -43.342046831770908 7.8473501832118817 #
edge $-1 $562 -10.847350183211882 $396 -7.8473501832118817 $395 $568 forward 7 unknown #
point $-1 -72.072511978514967 43.342046831770908 7.8473501832118817 #
coedge $-1 $402 $518 $404 $516 reversed $276 $-1 #
straight-curve $-1 -38.283238716092256 43.342046831770908 77.346400685475558 0 0 -1 I I #
edge $-1 $405 38.283238716092256 $523 60.822260217069498 $514 $569 forward 7 unknown #
point $-1 -38.283238716092256 43.342046831770908 10.847350183211882 #
coedge $-1 $514 $407 $410 $520 forward $276 $-1 #
straight-curve $-1 -24.776374733290439 43.342046831770901 4.7952968754677485 -1 0 0 I I #
edge $-1 $411 -72.551103810007817 $523 -66.499050502263671 $518 $570 forward 7 unknown #
point $-1 -60.822260217069498 43.342046831770908 4.7952968754677414 #
point $-1 -38.283238716092256 43.342046831770908 4.7952968754677414 #
vertex $-1 $415 $571 #
straight-curve $-1 -60.822260217069498 0 10.847350183211882 0 -1 0 I I #
vertex $-1 $418 $572 #
point $-1 -48.052749466580877 38.355374255581978 5.8868522260913512 #
edge $-1 $528 46.445899324045065 $531 56.294578580287919 $423 $573 forward 7 unknown #
vertex $-1 $437 $574 #
straight-curve $-1 -39.764897642658681 -66.043293027454482 10.84735018321188 0 -1 0 I I #
edge $-1 $531 -25.212870828592877 $434 -3.8911827995387362 $433 $575 forward 7 unknown #
vertex $-1 $530 $576 #
straight-curve $-1 -39.764897642658681 -43.342046831770929 0.99867092696901238 0 0.78801074757464917 0.61566148304635926 I I #
point $-1 -39.764897642658681 -30.736312484165996 10.847350183211882 #
point $-1 -18.443209613604541 -43.342046831770908 0.99867092696902904 #
straight-curve $-1 0 -43.342046831770908 10.847350183211882 1 0 0 I I #
vertex $-1 $440 $577 #
point $-1 -33.500560036847851 -33.05093633275245 0.8182919869216988 #
vertex $-1 $444 $578 #
point $-1 -27.104053628131609 -33.05093633275245 0.8182919869216988 #
vertex $-1 $448 $579 #
point $-1 -20.707547219415368 -33.05093633275245 0.8182919869216988 #
edge $-1 $543 46.445899324045065 $546 56.294578580287919 $453 $580 forward 7 unknown #
vertex $-1 $467 $581 #
straight-curve $-1 29.69346137505001 -66.043293027454482 10.84735018321188 0 -1 0 I I #
edge $-1 $546 9.5163086802614707 $464 30.837996709315611 $463 $582 forward 7 unknown #
vertex $-1 $545 $583 #
straight-curve $-1 29.69346137505001 -43.342046831770929 0.99867092696901238 0 0.78801074757464917 0.61566148304635926 I I #
point $-1 29.69346137505001 -30.736312484165996 10.847350183211882 #
point $-1 51.01514940410415 -43.342046831770908 0.99867092696902904 #
straight-curve $-1 0 -43.342046831770908 10.847350183211882 1 0 0 I I #
vertex $-1 $470 $584 #
point $-1 35.957798980860844 -33.05093633275245 0.8182919869216988 #
vertex $-1 $474 $585 #
point $-1 42.354305389577078 -33.05093633275245 0.8182919869216988 #
vertex $-1 $478 $586 #
point $-1 48.750811798293313 -33.05093633275245 0.8182919869216988 #
straight-curve $-1 -72.072511978514967 43.342046831770908 0 0 0 -1 I I #
point $-1 -72.072511978514967 -43.342046831770908 -10.847350183211882 #
straight-curve $-1 -72.072511978514967 0 -10.847350183211882 0 1 0 I I #
point $-1 -72.072511978514967 43.342046831770908 -10.847350183211882 #
coedge $-1 $500 $499 $505 $564 reversed $260 $-1 #
vertex $-1 $501 $587 #
straight-curve $-1 0 43.342046831770908 10.847350183211882 -1 0 0 I I #
edge $-1 $562 -43.342046831770908 $565 43.342046831770908 $561 $588 forward 7 unknown #
vertex $-1 $564 $589 #
straight-curve $-1 0 -43.342046831770908 10.847350183211882 1 0 0 I I #
straight-curve $-1 -72.072511978514967 -43.342046831770908 0 0 0 -1 I I #
straight-curve $-1 -72.072511978514967 43.342046831770908 0 0 0 -1 I I #
straight-curve $-1 0 43.342046831770908 10.847350183211882 -1 0 0 I I #
straight-curve $-1 -60.822260217069498 43.342046831770908 77.346400685475558 0 0 1 I I #
point $-1 -60.822260217069498 43.342046831770908 10.847350183211882 #
point $-1 -49.552749466580877 37.083302099460397 5.0919733487646202 #
straight-curve $-1 -39.764897642658681 -43.342046831770908 57.293249507256945 0 0 -1 I I #
point $-1 -39.764897642658681 -43.342046831770908 10.847350183211882 #
straight-curve $-1 -14.552026814065805 -43.342046831770908 0.9986709269690246 1 0 0 I I #
point $-1 -39.764897642658681 -43.342046831770908 0.99867092696902904 #
point $-1 -35.500560036847851 -31.819613366659731 -0.75772950822760021 #
point $-1 -29.104053628131609 -31.819613366659731 -0.75772950822760021 #
point $-1 -22.707547219415368 -31.819613366659731 -0.75772950822760021 #
straight-curve $-1 29.69346137505001 -43.342046831770908 57.293249507256945 0 0 -1 I I #
point $-1 29.69346137505001 -43.342046831770908 10.847350183211882 #
straight-curve $-1 20.177152694788539 -43.342046831770908 0.9986709269690246 1 0 0 I I #
point $-1 29.69346137505001 -43.342046831770908 0.99867092696902904 #
point $-1 33.957798980860844 -31.819613366659731 -0.75772950822760021 #
point $-1 40.354305389577078 -31.819613366659731 -0.75772950822760021 #
point $-1 46.750811798293313 -31.819613366659731 -0.75772950822760021 #
point $-1 -72.072511978514967 43.342046831770908 10.847350183211882 #
straight-curve $-1 -72.072511978514967 0 10.847350183211882 0 -1 0 I I #
point $-1 -72.072511978514967 -43.342046831770908 10.847350183211882 #
End-of-ACIS-data 