500 0 8 0           
7 Unknown 11 ACIS 5.0 NT 24 Thu Mar 25 15:34:51 1999 
-1 9.9999999999999995e-007 1e-010 
body $-1 $8 $-1 $9 #
body $-1 $10 $-1 $11 #
body $-1 $12 $-1 $13 #
body $-1 $14 $-1 $15 #
body $-1 $16 $-1 $17 #
body $-1 $18 $-1 $19 #
body $-1 $20 $-1 $21 #
body $-1 $22 $-1 $23 #
lump $-1 $-1 $24 $0 #
transform $-1 1 0 0 0 1 0 0 0 1 49.400921658986178 21.930016979261058 10.288776635757872 1 rotate no_reflect no_shear #
lump $-1 $-1 $25 $1 #
transform $-1 1 0 0 0 1 0 0 0 1 49.400921658986178 21.930016979261058 10.288776635757872 1 rotate no_reflect no_shear #
lump $-1 $-1 $26 $2 #
transform $-1 1 0 0 0 1 0 0 0 1 49.400921658986178 21.930016979261058 10.288776635757872 1 rotate no_reflect no_shear #
lump $-1 $-1 $27 $3 #
transform $-1 1 0 0 0 1 0 0 0 1 49.400921658986178 21.930016979261058 10.288776635757872 1 rotate no_reflect no_shear #
lump $-1 $-1 $28 $4 #
transform $-1 1 0 0 0 1 0 0 0 1 49.400921658986178 21.930016979261058 10.288776635757872 1 rotate no_reflect no_shear #
lump $-1 $-1 $29 $5 #
transform $-1 1 0 0 0 1 0 0 0 1 49.400921658986178 21.930016979261058 10.288776635757872 1 rotate no_reflect no_shear #
lump $-1 $-1 $30 $6 #
transform $-1 1 0 0 0 1 0 0 0 1 49.400921658986178 21.930016979261058 10.288776635757872 1 rotate no_reflect no_shear #
lump $-1 $-1 $31 $7 #
transform $-1 1 0 0 0 1 0 0 0 1 49.400921658986178 21.930016979261058 10.288776635757872 1 rotate no_reflect no_shear #
shell $-1 $-1 $-1 $32 $-1 $8 #
shell $-1 $-1 $-1 $33 $-1 $10 #
shell $-1 $-1 $-1 $34 $-1 $12 #
shell $-1 $-1 $-1 $35 $-1 $14 #
shell $-1 $-1 $-1 $36 $-1 $16 #
shell $-1 $-1 $-1 $37 $-1 $18 #
shell $-1 $-1 $-1 $38 $-1 $20 #
shell $-1 $-1 $-1 $39 $-1 $22 #
face $-1 $40 $41 $24 $-1 $42 forward single #
face $-1 $43 $44 $25 $-1 $45 reversed single #
face $-1 $46 $47 $26 $-1 $48 reversed single #
face $-1 $49 $50 $27 $-1 $51 forward single #
face $-1 $52 $53 $28 $-1 $54 forward single #
face $-1 $55 $56 $29 $-1 $57 reversed single #
face $-1 $58 $59 $30 $-1 $60 forward single #
face $-1 $61 $62 $31 $-1 $63 forward single #
face $-1 $64 $65 $24 $-1 $66 reversed single #
loop $-1 $-1 $67 $32 #
plane-surface $-1 0 0 10.288776635757872 0 0 1 1 0 0 forward_v I I I I #
face $-1 $68 $69 $25 $-1 $70 reversed single #
loop $-1 $-1 $71 $33 #
plane-surface $-1 -31.823368387470435 -16.321514309449356 0 1 0 0 0 0 -1 forward_v I I I I #
face $-1 $72 $73 $26 $-1 $74 reversed single #
loop $-1 $-1 $75 $34 #
plane-surface $-1 -132.26312049936672 3.1732658317715003 60.350039577130531 0 1 0 -0.83867057594974714 0 0.54463902268945019 forward_v I I I I #
face $-1 $76 $77 $27 $-1 $78 forward single #
loop $-1 $79 $80 $35 #
cone-surface $-1 -47.705457027788704 5.0371717514168708 8.1034510788347873 0.83867057594974714 0 -0.54463902268945019 0.2723195113447251 0 0.41933528797487357 1 I I 0 1 0.5 forward I I I I #
face $-1 $81 $82 $28 $-1 $83 forward single #
loop $-1 $84 $85 $36 #
cone-surface $-1 -47.705457027788704 7.8330306308849238 8.1034510788347873 0.83867057594974714 0 -0.54463902268945019 0.2723195113447251 0 0.41933528797487357 1 I I 0 1 0.5 forward I I I I #
face $-1 $86 $87 $29 $-1 $88 reversed single #
loop $-1 $-1 $89 $37 #
plane-surface $-1 71.259027498655826 9.4764416990119322 144.44457011233987 0 -1 0 -0.80901700255871778 0 -0.5877852410284794 forward_v I I I I #
face $-1 $90 $91 $30 $-1 $92 forward single #
loop $-1 $93 $94 $38 #
cone-surface $-1 47.411177238574645 4.7553273240934359 7.9340819726419793 -0.80901700255871778 0 -0.5877852410284794 0.2938926205142397 0 -0.40450850127935889 1 I I 0 1 0.5 forward I I I I #
face $-1 $95 $96 $31 $-1 $97 forward single #
loop $-1 $98 $99 $39 #
cone-surface $-1 47.411177238574645 7.5879959490445366 7.9340819726419793 -0.80901700255871778 0 -0.5877852410284794 0.2938926205142397 0 -0.40450850127935889 1 I I 0 1 0.5 forward I I I I #
face $-1 $100 $101 $24 $-1 $102 reversed single #
loop $-1 $-1 $103 $40 #
plane-surface $-1 0 0 -10.288776635757872 0 0 1 1 0 0 forward_v I I I I #
coedge $-1 $104 $105 $106 $107 forward $41 $-1 #
face $-1 $108 $109 $25 $-1 $110 reversed single #
loop $-1 $-1 $111 $43 #
plane-surface $-1 -30.323368387470435 -10.713011639637653 0 0 -1 0 0 0 -1 forward_v I I I I #
coedge $-1 $112 $113 $114 $115 forward $44 $-1 #
face $-1 $116 $117 $26 $-1 $118 reversed single #
loop $-1 $-1 $119 $46 #
plane-surface $-1 -49.400921658986164 6.4351011911508955 6.538700192513879 -0.83867057594974714 0 0.54463902268945019 0.54463902268945019 0 0.83867057594974714 forward_v I I I I #
coedge $-1 $120 $121 $122 $123 reversed $47 $-1 #
face $-1 $-1 $124 $27 $-1 $125 forward single #
loop $-1 $126 $127 $49 #
cone-surface $-1 -47.017988772082589 5.0371717514168708 7.6570039878613283 0.83867057594974714 0 -0.54463902268945019 0.13615975567236255 0 0.20966764398743679 1 I I -0.70710678118654746 0.70710678118654746 0.25 forward I I I I #
loop $-1 $-1 $128 $35 #
coedge $-1 $80 $80 $129 $130 reversed $50 $-1 #
face $-1 $-1 $131 $28 $-1 $132 forward single #
loop $-1 $133 $134 $52 #
cone-surface $-1 -47.017988772082589 7.8330306308849238 7.6570039878613283 0.83867057594974714 0 -0.54463902268945019 0.13615975567236255 0 0.20966764398743679 1 I I -0.70710678118654746 0.70710678118654746 0.25 forward I I I I #
loop $-1 $-1 $135 $36 #
coedge $-1 $85 $85 $136 $137 reversed $53 $-1 #
face $-1 $138 $139 $29 $-1 $140 reversed single #
loop $-1 $-1 $141 $55 #
plane-surface $-1 -8.6733436297262472 6.1716616365689845 86.370304823627436 0.80901700255871778 0 0.5877852410284794 0.5877852410284794 0 -0.80901700255871778 forward_v I I I I #
coedge $-1 $142 $143 $144 $145 reversed $56 $-1 #
face $-1 $-1 $146 $30 $-1 $147 forward single #
loop $-1 $148 $149 $58 #
cone-surface $-1 46.618079109040607 4.7553273240934359 7.3578624695252142 -0.80901700255871778 0 -0.5877852410284794 0.14694631025711985 0 -0.20225425063967944 1 I I -0.70710678118654746 0.70710678118654746 0.25 forward I I I I #
loop $-1 $-1 $150 $38 #
coedge $-1 $94 $94 $151 $152 reversed $59 $-1 #
face $-1 $-1 $153 $31 $-1 $154 forward single #
loop $-1 $155 $156 $61 #
cone-surface $-1 46.618079109040607 7.5879959490445366 7.3578624695252142 -0.80901700255871778 0 -0.5877852410284794 0.14694631025711985 0 -0.20225425063967944 1 I I -0.70710678118654746 0.70710678118654746 0.25 forward I I I I #
loop $-1 $-1 $157 $39 #
coedge $-1 $99 $99 $158 $159 reversed $62 $-1 #
face $-1 $160 $161 $24 $-1 $162 reversed single #
loop $-1 $-1 $163 $64 #
plane-surface $-1 0 -21.930016979261058 0 0 1 0 0 0 1 forward_v I I I I #
coedge $-1 $164 $165 $166 $167 forward $65 $-1 #
coedge $-1 $168 $67 $169 $170 forward $41 $-1 #
coedge $-1 $67 $168 $171 $172 forward $41 $-1 #
coedge $-1 $173 $174 $67 $107 reversed $175 $-1 #
edge $-1 $176 -21.930016979261058 $177 21.930016979261058 $106 $178 forward 7 unknown #
face $-1 $179 $180 $25 $-1 $181 forward single #
loop $-1 $-1 $182 $68 #
plane-surface $-1 -28.823368387470435 -16.321514309449356 0 -1 0 0 0 0 1 forward_v I I I I #
coedge $-1 $183 $184 $185 $186 forward $69 $-1 #
coedge $-1 $187 $71 $188 $189 reversed $44 $-1 #
coedge $-1 $71 $187 $190 $191 reversed $44 $-1 #
coedge $-1 $184 $183 $71 $115 reversed $69 $-1 #
edge $-1 $192 -10.288776635757872 $193 10.288776635757872 $114 $194 forward 7 unknown #
face $-1 $195 $196 $26 $-1 $197 reversed single #
loop $-1 $-1 $198 $72 #
plane-surface $-1 -132.26312049936672 9.6969365505302907 60.350039577130531 0 -1 0 0.83867057594974714 0 -0.54463902268945019 forward_v I I I I #
coedge $-1 $199 $200 $201 $202 reversed $73 $-1 #
coedge $-1 $121 $75 $203 $204 reversed $47 $-1 #
coedge $-1 $75 $120 $199 $205 reversed $47 $-1 #
coedge $-1 $201 $206 $75 $123 forward $207 $-1 #
edge $-1 $208 16.730638590697183 $209 19.165966629654797 $122 $210 forward 7 unknown #
loop $-1 $-1 $129 $76 #
plane-surface $-1 -49.400921658986164 6.4351011911508955 6.538700192513879 -0.83867057594974714 0 0.54463902268945019 0.54463902268945019 0 0.83867057594974714 forward_v I I I I #
loop $-1 $-1 $211 $49 #
coedge $-1 $127 $127 $128 $212 reversed $77 $-1 #
coedge $-1 $128 $128 $127 $212 forward $79 $-1 #
coedge $-1 $129 $129 $80 $130 forward $124 $-1 #
edge $-1 $213 0 $213 6.2831853071796004 $129 $214 forward 7 unknown #
loop $-1 $-1 $136 $81 #
plane-surface $-1 -49.400921658986164 6.4351011911508955 6.538700192513879 -0.83867057594974714 0 0.54463902268945019 0.54463902268945019 0 0.83867057594974714 forward_v I I I I #
loop $-1 $-1 $215 $52 #
coedge $-1 $134 $134 $135 $216 reversed $82 $-1 #
coedge $-1 $135 $135 $134 $216 forward $84 $-1 #
coedge $-1 $136 $136 $85 $137 forward $131 $-1 #
edge $-1 $217 0 $217 6.2831853071796004 $136 $218 forward 7 unknown #
face $-1 $219 $220 $29 $-1 $221 forward single #
loop $-1 $-1 $222 $86 #
plane-surface $-1 71.259027498655826 2.8668815741260367 144.44457011233987 0 1 0 0.80901700255871778 0 0.5877852410284794 forward_v I I I I #
coedge $-1 $223 $224 $225 $226 reversed $87 $-1 #
coedge $-1 $143 $89 $227 $228 reversed $56 $-1 #
coedge $-1 $89 $142 $223 $229 reversed $56 $-1 #
coedge $-1 $225 $230 $89 $145 forward $220 $-1 #
edge $-1 $231 -13.771407909658265 $232 -10.973606826623957 $144 $233 forward 7 unknown #
loop $-1 $-1 $151 $90 #
plane-surface $-1 -8.6733436297262472 6.1716616365689845 86.370304823627436 0.80901700255871778 0 0.5877852410284794 0.5877852410284794 0 -0.80901700255871778 forward_v I I I I #
loop $-1 $-1 $234 $58 #
coedge $-1 $149 $149 $150 $235 reversed $91 $-1 #
coedge $-1 $150 $150 $149 $235 forward $93 $-1 #
coedge $-1 $151 $151 $94 $152 forward $146 $-1 #
edge $-1 $236 0 $236 6.2831853071796004 $151 $237 forward 7 unknown #
loop $-1 $-1 $158 $95 #
plane-surface $-1 -8.6733436297262472 6.1716616365689845 86.370304823627436 0.80901700255871778 0 0.5877852410284794 0.5877852410284794 0 -0.80901700255871778 forward_v I I I I #
loop $-1 $-1 $238 $61 #
coedge $-1 $156 $156 $157 $239 reversed $96 $-1 #
coedge $-1 $157 $157 $156 $239 forward $98 $-1 #
coedge $-1 $158 $158 $99 $159 forward $153 $-1 #
edge $-1 $240 0 $240 6.2831853071796004 $158 $241 forward 7 unknown #
face $-1 $242 $243 $24 $-1 $244 reversed single #
loop $-1 $-1 $245 $100 #
plane-surface $-1 -49.400921658986178 0 0 1 0 0 0 0 -1 forward_v I I I I #
coedge $-1 $246 $171 $247 $248 forward $101 $-1 #
coedge $-1 $249 $103 $246 $250 forward $65 $-1 #
coedge $-1 $103 $249 $251 $252 forward $65 $-1 #
coedge $-1 $174 $173 $103 $167 reversed $175 $-1 #
edge $-1 $253 -21.930016979261058 $254 21.930016979261058 $166 $255 forward 7 unknown #
coedge $-1 $105 $104 $256 $257 forward $41 $-1 #
coedge $-1 $258 $259 $104 $170 reversed $243 $-1 #
edge $-1 $177 -49.400921658986178 $260 49.400921658986178 $169 $261 forward 7 unknown #
coedge $-1 $163 $262 $105 $172 reversed $101 $-1 #
edge $-1 $263 -49.400921658986178 $176 49.400921658986178 $171 $264 forward 7 unknown #
coedge $-1 $166 $106 $262 $265 forward $175 $-1 #
coedge $-1 $106 $166 $258 $266 reversed $175 $-1 #
loop $-1 $-1 $173 $242 #
vertex $-1 $107 $267 #
vertex $-1 $107 $268 #
straight-curve $-1 49.400921658986178 0 10.288776635757872 0 1 0 I I #
face $-1 $269 $270 $25 $-1 $271 reversed single #
loop $-1 $-1 $272 $108 #
plane-surface $-1 0 0 10.288776635757872 0 0 1 1 0 0 forward_v I I I I #
coedge $-1 $273 $274 $275 $276 reversed $109 $-1 #
coedge $-1 $114 $111 $277 $278 reversed $69 $-1 #
coedge $-1 $111 $114 $279 $280 reversed $69 $-1 #
coedge $-1 $274 $273 $111 $186 reversed $109 $-1 #
edge $-1 $281 -10.288776635757872 $282 10.288776635757872 $185 $283 forward 7 unknown #
coedge $-1 $113 $112 $284 $285 reversed $44 $-1 #
coedge $-1 $277 $286 $112 $189 forward $270 $-1 #
edge $-1 $287 -13.76925982453638 $193 -2.5522544849129751 $188 $288 forward 7 unknown #
coedge $-1 $289 $279 $113 $191 forward $180 $-1 #
edge $-1 $192 2.5522544849129751 $290 13.76925982453638 $190 $291 forward 7 unknown #
vertex $-1 $191 $292 #
vertex $-1 $189 $293 #
straight-curve $-1 -31.823368387470435 -10.713011639637653 0 0 0 -1 I I #
face $-1 $-1 $207 $26 $-1 $294 forward single #
loop $-1 $-1 $295 $116 #
plane-surface $-1 -49.400921658986178 0 0 1 0 0 0 0 -1 forward_v I I I I #
coedge $-1 $296 $297 $298 $299 reversed $117 $-1 #
coedge $-1 $300 $119 $121 $205 forward $73 $-1 #
coedge $-1 $119 $300 $296 $301 forward $73 $-1 #
coedge $-1 $298 $122 $119 $202 forward $207 $-1 #
edge $-1 $209 -0.044284763803947413 $302 6.4793859549548429 $201 $303 forward 7 unknown #
coedge $-1 $304 $305 $120 $204 forward $196 $-1 #
edge $-1 $306 -23.636319596051408 $208 -19.886243152807396 $203 $307 forward 7 unknown #
edge $-1 $209 -4.4714534535771007 $306 2.636201369357039e-014 $121 $308 forward 7 unknown #
coedge $-1 $122 $298 $304 $309 forward $207 $-1 #
loop $-1 $-1 $298 $195 #
vertex $-1 $204 $310 #
vertex $-1 $123 $311 #
straight-curve $-1 -66.131560249683361 3.1732658317715003 10.28877663575787 1 0 0 I I #
coedge $-1 $211 $211 $-1 $312 reversed $126 $-1 #
edge $-1 $313 0 $313 6.2831853071796004 $127 $314 forward 7 unknown #
vertex $-1 $130 $315 #
ellipse-curve $-1 -48.183257639507367 5.0371717514168708 8.4137384141358726 -0.83867057594974714 0 0.54463902268945019 0.2723195113447251 0 0.41933528797487357 1 I I #
coedge $-1 $215 $215 $-1 $316 reversed $133 $-1 #
edge $-1 $317 0 $317 6.2831853071796004 $134 $318 forward 7 unknown #
vertex $-1 $137 $319 #
ellipse-curve $-1 -48.183257639507367 7.8330306308849238 8.4137384141358726 -0.83867057594974714 0 0.54463902268945019 0.2723195113447251 0 0.41933528797487357 1 I I #
face $-1 $-1 $320 $29 $-1 $321 reversed single #
loop $-1 $-1 $144 $138 #
plane-surface $-1 0 0 10.288776635757872 0 0 1 1 0 0 forward_v I I I I #
coedge $-1 $322 $323 $324 $325 reversed $139 $-1 #
coedge $-1 $326 $141 $143 $229 forward $87 $-1 #
coedge $-1 $141 $326 $322 $327 forward $87 $-1 #
coedge $-1 $324 $144 $141 $226 forward $220 $-1 #
edge $-1 $232 -6.39061088072744 $328 0.21894924415845551 $225 $329 forward 7 unknown #
coedge $-1 $330 $331 $142 $228 forward $320 $-1 #
edge $-1 $332 -65.78435136092456 $231 -61.933508420412068 $227 $333 forward 7 unknown #
edge $-1 $232 94.04193972097346 $332 98.801843317972327 $143 $334 forward 7 unknown #
coedge $-1 $144 $324 $330 $335 forward $220 $-1 #
vertex $-1 $228 $336 #
vertex $-1 $145 $337 #
straight-curve $-1 35.629513749327913 9.4764416990119322 10.28877663575787 -1 0 0 I I #
coedge $-1 $234 $234 $-1 $338 reversed $148 $-1 #
edge $-1 $339 0 $339 6.2831853071796004 $149 $340 forward 7 unknown #
vertex $-1 $152 $341 #
ellipse-curve $-1 48.00202111746902 4.7553273240934359 8.3633551655016376 0.80901700255871778 0 0.5877852410284794 0.2938926205142397 0 -0.40450850127935889 1 I I #
coedge $-1 $238 $238 $-1 $342 reversed $155 $-1 #
edge $-1 $343 0 $343 6.2831853071796004 $156 $344 forward 7 unknown #
vertex $-1 $159 $345 #
ellipse-curve $-1 48.00202111746902 7.5879959490445366 8.3633551655016376 0.80901700255871778 0 0.5877852410284794 0.2938926205142397 0 -0.40450850127935889 1 I I #
face $-1 $-1 $175 $24 $-1 $346 reversed single #
loop $-1 $-1 $258 $160 #
plane-surface $-1 0 21.930016979261058 0 0 -1 0 0 0 -1 forward_v I I I I #
coedge $-1 $347 $256 $259 $348 forward $161 $-1 #
coedge $-1 $262 $163 $164 $250 reversed $101 $-1 #
coedge $-1 $256 $347 $163 $248 reversed $161 $-1 #
edge $-1 $263 -10.288776635757872 $349 10.288776635757872 $247 $350 forward 7 unknown #
coedge $-1 $165 $164 $347 $351 forward $65 $-1 #
edge $-1 $254 -49.400921658986178 $349 49.400921658986178 $246 $352 forward 7 unknown #
coedge $-1 $259 $258 $165 $252 reversed $243 $-1 #
edge $-1 $353 -49.400921658986178 $253 49.400921658986178 $251 $354 forward 7 unknown #
vertex $-1 $167 $355 #
vertex $-1 $265 $356 #
straight-curve $-1 49.400921658986178 0 -10.288776635757872 0 -1 0 I I #
coedge $-1 $245 $247 $168 $257 reversed $161 $-1 #
edge $-1 $260 -21.930016979261058 $263 21.930016979261058 $256 $357 forward 7 unknown #
coedge $-1 $251 $169 $174 $266 forward $243 $-1 #
coedge $-1 $169 $251 $245 $348 reversed $243 $-1 #
vertex $-1 $170 $358 #
straight-curve $-1 0 21.930016979261058 10.288776635757872 -1 0 0 I I #
coedge $-1 $171 $246 $173 $265 reversed $101 $-1 #
vertex $-1 $257 $359 #
straight-curve $-1 0 -21.930016979261058 10.288776635757872 1 0 0 I I #
edge $-1 $176 -10.288776635757872 $254 10.288776635757872 $173 $360 forward 7 unknown #
edge $-1 $177 -10.288776635757872 $253 10.288776635757872 $174 $361 forward 7 unknown #
point $-1 49.400921658986178 -21.930016979261058 10.288776635757872 #
point $-1 49.400921658986178 21.930016979261058 10.288776635757872 #
face $-1 $-1 $362 $25 $-1 $363 reversed single #
loop $-1 $-1 $364 $179 #
plane-surface $-1 0 0 -10.288776635757872 0 0 1 1 0 0 forward_v I I I I #
coedge $-1 $279 $289 $274 $365 forward $180 $-1 #
coedge $-1 $185 $182 $364 $366 reversed $109 $-1 #
coedge $-1 $182 $185 $272 $365 reversed $109 $-1 #
coedge $-1 $367 $368 $182 $276 forward $362 $-1 #
edge $-1 $369 -10.288776635757872 $370 10.288776635757872 $275 $371 forward 7 unknown #
coedge $-1 $364 $188 $183 $278 forward $270 $-1 #
edge $-1 $193 -16.661684193735219 $282 -13.661684193735217 $277 $372 forward 7 unknown #
coedge $-1 $190 $272 $184 $280 forward $180 $-1 #
edge $-1 $281 13.661684193735217 $192 16.661684193735219 $279 $373 forward 7 unknown #
vertex $-1 $280 $374 #
vertex $-1 $278 $375 #
straight-curve $-1 -28.823368387470435 -10.713011639637653 0 0 0 -1 I I #
coedge $-1 $368 $367 $187 $285 forward $362 $-1 #
edge $-1 $290 -10.288776635757872 $287 10.288776635757872 $284 $376 forward 7 unknown #
coedge $-1 $188 $364 $368 $377 forward $270 $-1 #
vertex $-1 $189 $378 #
straight-curve $-1 -31.823368387470435 -8.1607571547246778 -10.288776635757872 0 1 0 I I #
coedge $-1 $272 $190 $367 $379 forward $180 $-1 #
vertex $-1 $379 $380 #
straight-curve $-1 -31.823368387470435 -8.1607571547246778 10.288776635757872 0 -1 0 I I #
point $-1 -31.823368387470435 -10.713011639637653 10.288776635757872 #
point $-1 -31.823368387470435 -10.713011639637653 -10.288776635757872 #
plane-surface $-1 0 0 10.288776635757872 0 0 1 1 0 0 forward_v I I I I #
coedge $-1 $305 $304 $297 $381 forward $196 $-1 #
coedge $-1 $297 $198 $200 $301 reversed $117 $-1 #
coedge $-1 $198 $296 $295 $381 reversed $117 $-1 #
coedge $-1 $206 $201 $198 $299 forward $207 $-1 #
edge $-1 $302 -19.165966629654797 $382 -16.730638590697183 $298 $383 forward 7 unknown #
coedge $-1 $200 $199 $305 $384 reversed $73 $-1 #
edge $-1 $385 -2.636201369357039e-014 $302 4.4714534535771007 $296 $386 forward 7 unknown #
vertex $-1 $202 $387 #
straight-curve $-1 -46.965593620028571 3.2175505955754478 10.288776635757873 0 1 0 I I #
coedge $-1 $295 $203 $206 $309 reversed $196 $-1 #
coedge $-1 $203 $295 $300 $384 forward $196 $-1 #
vertex $-1 $204 $388 #
straight-curve $-1 -49.400921658986178 3.1732658317715003 30.175019788565265 0 0 1 I I #
straight-curve $-1 -49.400921658986164 3.1732658317715003 6.538700192513879 -0.54463902268945019 0 -0.83867057594974714 I I #
edge $-1 $382 -9.6969365505302907 $208 -3.1732658317715003 $304 $389 forward 7 unknown #
point $-1 -49.400921658986178 3.1732658317715003 10.288776635757872 #
point $-1 -46.965593620028564 3.1732658317715003 10.288776635757872 #
edge $-1 $390 1 $390 0 $211 $-1 forward 7 unknown #
vertex $-1 $212 $391 #
ellipse-curve $-1 -47.227656416070026 5.0371717514168708 7.7931637435336905 -0.83867057594974714 0 0.54463902268945019 0.2723195113447251 0 0.41933528797487357 1 I I #
point $-1 -47.910938128162655 5.0371717514168708 8.8330737021107559 #
edge $-1 $392 1 $392 0 $215 $-1 forward 7 unknown #
vertex $-1 $216 $393 #
ellipse-curve $-1 -47.227656416070026 7.8330306308849238 7.7931637435336905 -0.83867057594974714 0 0.54463902268945019 0.2723195113447251 0 0.41933528797487357 1 I I #
point $-1 -47.910938128162655 7.8330306308849238 8.8330737021107559 #
loop $-1 $-1 $227 $219 #
plane-surface $-1 49.400921658986178 0 0 -1 0 0 0 0 1 forward_v I I I I #
coedge $-1 $323 $222 $224 $327 reversed $139 $-1 #
coedge $-1 $222 $322 $394 $395 reversed $139 $-1 #
coedge $-1 $230 $225 $222 $325 forward $220 $-1 #
edge $-1 $328 10.973606826623957 $396 13.771407909658265 $324 $397 forward 7 unknown #
coedge $-1 $224 $223 $331 $398 reversed $87 $-1 #
edge $-1 $399 -98.801843317972327 $328 -94.04193972097346 $322 $400 forward 7 unknown #
vertex $-1 $226 $401 #
straight-curve $-1 46.60312057595187 3.0858308182844922 10.28877663575787 0 -1 0 I I #
coedge $-1 $394 $227 $230 $335 reversed $320 $-1 #
coedge $-1 $227 $394 $326 $398 forward $320 $-1 #
vertex $-1 $228 $402 #
straight-curve $-1 49.400921658986178 9.4764416990119322 72.222285056169937 0 0 1 I I #
straight-curve $-1 -8.6733436297262472 9.4764416990119322 86.370304823627436 0.5877852410284794 0 -0.80901700255871778 I I #
edge $-1 $396 2.8668815741260367 $231 9.4764416990119322 $330 $403 forward 7 unknown #
point $-1 49.400921658986178 9.4764416990119322 10.288776635757872 #
point $-1 46.60312057595187 9.4764416990119322 10.28877663575787 #
edge $-1 $404 1 $404 0 $234 $-1 forward 7 unknown #
vertex $-1 $235 $405 #
ellipse-curve $-1 46.820333359680284 4.7553273240934359 7.5048087797823344 0.80901700255871778 0 0.5877852410284794 0.2938926205142397 0 -0.40450850127935889 1 I I #
point $-1 48.295913737983241 4.7553273240934359 7.9588466642222668 #
edge $-1 $406 1 $406 0 $238 $-1 forward 7 unknown #
vertex $-1 $239 $407 #
ellipse-curve $-1 46.820333359680284 7.5879959490445366 7.5048087797823344 0.80901700255871778 0 0.5877852410284794 0.2938926205142397 0 -0.40450850127935889 1 I I #
point $-1 48.295913737983241 7.5879959490445366 7.9588466642222668 #
plane-surface $-1 49.400921658986178 0 0 -1 0 0 0 0 1 forward_v I I I I #
coedge $-1 $247 $245 $249 $351 reversed $161 $-1 #
edge $-1 $260 -10.288776635757872 $353 10.288776635757872 $259 $408 forward 7 unknown #
vertex $-1 $351 $409 #
straight-curve $-1 -49.400921658986178 -21.930016979261058 0 0 0 -1 I I #
edge $-1 $349 -21.930016979261058 $353 21.930016979261058 $347 $410 forward 7 unknown #
straight-curve $-1 0 -21.930016979261058 -10.288776635757872 -1 0 0 I I #
vertex $-1 $252 $411 #
straight-curve $-1 0 21.930016979261058 -10.288776635757872 1 0 0 I I #
point $-1 49.400921658986178 21.930016979261058 -10.288776635757872 #
point $-1 49.400921658986178 -21.930016979261058 -10.288776635757872 #
straight-curve $-1 -49.400921658986178 0 10.288776635757872 0 -1 0 I I #
point $-1 -49.400921658986178 21.930016979261058 10.288776635757872 #
point $-1 -49.400921658986178 -21.930016979261058 10.288776635757872 #
straight-curve $-1 49.400921658986178 -21.930016979261058 0 0 0 -1 I I #
straight-curve $-1 49.400921658986178 21.930016979261058 0 0 0 -1 I I #
loop $-1 $-1 $275 $269 #
plane-surface $-1 0 -21.930016979261058 0 0 1 0 0 0 1 forward_v I I I I #
coedge $-1 $286 $277 $273 $366 forward $270 $-1 #
edge $-1 $370 -13.76925982453638 $281 -2.5522544849129751 $272 $412 forward 7 unknown #
edge $-1 $282 2.5522544849129751 $369 13.76925982453638 $364 $413 forward 7 unknown #
coedge $-1 $284 $275 $289 $379 reversed $362 $-1 #
coedge $-1 $275 $284 $286 $377 reversed $362 $-1 #
vertex $-1 $377 $414 #
vertex $-1 $276 $415 #
straight-curve $-1 -28.823368387470435 -21.930016979261058 0 0 0 1 I I #
straight-curve $-1 -15.161684193735217 -10.713011639637653 -10.288776635757872 1 0 0 I I #
straight-curve $-1 -15.161684193735217 -10.713011639637653 10.288776635757872 -1 0 0 I I #
point $-1 -28.823368387470435 -10.713011639637653 10.288776635757872 #
point $-1 -28.823368387470435 -10.713011639637653 -10.288776635757872 #
straight-curve $-1 -31.823368387470435 -21.930016979261058 0 0 0 -1 I I #
edge $-1 $369 28.823368387470435 $287 31.823368387470435 $368 $416 forward 7 unknown #
point $-1 -31.823368387470435 -21.930016979261058 -10.288776635757872 #
edge $-1 $290 -31.823368387470435 $370 -28.823368387470435 $367 $417 forward 7 unknown #
point $-1 -31.823368387470435 -21.930016979261058 10.288776635757872 #
edge $-1 $382 19.886243152807396 $385 23.636319596051408 $295 $418 forward 7 unknown #
vertex $-1 $309 $419 #
straight-curve $-1 -66.131560249683361 9.6969365505302907 10.28877663575787 -1 0 0 I I #
edge $-1 $385 -6.4793859549548429 $306 0.044284763803947413 $305 $420 forward 7 unknown #
vertex $-1 $384 $421 #
straight-curve $-1 -49.400921658986164 9.6969365505302907 6.538700192513879 0.54463902268945019 0 0.83867057594974714 I I #
point $-1 -46.965593620028564 9.6969365505302907 10.288776635757872 #
point $-1 -49.400921658986178 3.1732658317715003 6.5387001925138568 #
straight-curve $-1 -49.400921658986178 0 10.288776635757872 0 -1 0 I I #
vertex $-1 $312 $422 #
point $-1 -46.9553369047253 5.0371717514168708 8.212499031508564 #
vertex $-1 $316 $423 #
point $-1 -46.9553369047253 7.8330306308849238 8.212499031508564 #
coedge $-1 $331 $330 $323 $395 forward $320 $-1 #
edge $-1 $396 61.933508420412068 $399 65.78435136092456 $394 $424 forward 7 unknown #
vertex $-1 $335 $425 #
straight-curve $-1 35.629513749327913 2.8668815741260367 10.28877663575787 1 0 0 I I #
edge $-1 $399 -0.21894924415845551 $332 6.39061088072744 $331 $426 forward 7 unknown #
vertex $-1 $398 $427 #
straight-curve $-1 -8.6733436297262472 2.8668815741260367 86.370304823627436 -0.5877852410284794 0 0.80901700255871778 I I #
point $-1 46.60312057595187 2.8668815741260367 10.28877663575787 #
point $-1 49.400921658986171 9.4764416990119322 6.437933695245377 #
straight-curve $-1 49.400921658986178 0 10.288776635757872 0 1 0 I I #
vertex $-1 $338 $428 #
point $-1 47.114225980194526 4.7553273240934359 7.1003002785029752 #
vertex $-1 $342 $429 #
point $-1 47.114225980194526 7.5879959490445366 7.1003002785029752 #
straight-curve $-1 -49.400921658986178 21.930016979261058 0 0 0 -1 I I #
point $-1 -49.400921658986178 -21.930016979261058 -10.288776635757872 #
straight-curve $-1 -49.400921658986178 0 -10.288776635757872 0 1 0 I I #
point $-1 -49.400921658986178 21.930016979261058 -10.288776635757872 #
straight-curve $-1 -28.823368387470435 -8.1607571547246778 10.288776635757872 0 1 0 I I #
straight-curve $-1 -28.823368387470435 -8.1607571547246778 -10.288776635757872 0 -1 0 I I #
point $-1 -28.823368387470435 -21.930016979261058 -10.288776635757872 #
point $-1 -28.823368387470435 -21.930016979261058 10.288776635757872 #
straight-curve $-1 0 -21.930016979261058 -10.288776635757872 -1 0 0 I I #
straight-curve $-1 0 -21.930016979261058 10.288776635757872 1 0 0 I I #
straight-curve $-1 -49.400921658986178 9.6969365505302907 30.175019788565265 0 0 -1 I I #
point $-1 -49.400921658986178 9.6969365505302907 10.288776635757872 #
straight-curve $-1 -49.400921658986178 3.2175505955754478 6.5387001925138595 0 -1 0 I I #
point $-1 -49.400921658986178 9.6969365505302907 6.5387001925138568 #
point $-1 -46.808321128095152 5.0371717514168708 7.5208442321889661 #
point $-1 -46.808321128095152 7.8330306308849238 7.5208442321889661 #
straight-curve $-1 49.400921658986178 2.8668815741260367 72.222285056169937 0 0 -1 I I #
point $-1 49.400921658986178 2.8668815741260367 10.288776635757872 #
straight-curve $-1 49.400921658986178 3.0858308182844922 6.4379336952453698 0 1 0 I I #
point $-1 49.400921658986171 2.8668815741260367 6.437933695245377 #
point $-1 46.415824858400931 4.7553273240934359 7.2109161592680939 #
point $-1 46.415824858400931 7.5879959490445366 7.2109161592680939 #
End-of-ACIS-data 