500 0 9 0           
7 Unknown 11 ACIS 5.0 NT 24 Fri Mar 26 18:08:42 1999 
-1 9.9999999999999995e-007 1e-010 
body $-1 $9 $-1 $10 #
body $-1 $11 $-1 $12 #
body $-1 $13 $-1 $14 #
body $-1 $15 $-1 $16 #
body $-1 $17 $-1 $18 #
body $-1 $19 $-1 $20 #
body $-1 $21 $-1 $22 #
body $-1 $23 $-1 $24 #
body $-1 $25 $-1 $26 #
lump $-1 $-1 $27 $0 #
transform $-1 1 0 0 0 1 0 0 0 1 54.094668416394541 26.444924939569006 7.5593246084924814 1 rotate no_reflect no_shear #
lump $-1 $-1 $28 $1 #
transform $-1 1 0 0 0 1 0 0 0 1 54.094668416394541 26.444924939569006 7.5593246084924814 1 rotate no_reflect no_shear #
lump $-1 $-1 $29 $2 #
transform $-1 1 0 0 0 1 0 0 0 1 54.094668416394541 26.444924939569006 7.5593246084924814 1 rotate no_reflect no_shear #
lump $-1 $-1 $30 $3 #
transform $-1 1 0 0 0 1 0 0 0 1 54.094668416394541 26.444924939569006 7.5593246084924814 1 rotate no_reflect no_shear #
lump $-1 $-1 $31 $4 #
transform $-1 1 0 0 0 1 0 0 0 1 54.094668416394541 26.444924939569006 7.5593246084924814 1 rotate no_reflect no_shear #
lump $-1 $-1 $32 $5 #
transform $-1 1 0 0 0 1 0 0 0 1 54.094668416394541 26.444924939569006 7.5593246084924814 1 rotate no_reflect no_shear #
lump $-1 $-1 $33 $6 #
transform $-1 1 0 0 0 1 0 0 0 1 54.094668416394541 26.444924939569006 7.5593246084924814 1 rotate no_reflect no_shear #
lump $-1 $-1 $34 $7 #
transform $-1 1 0 0 0 1 0 0 0 1 54.094668416394541 26.444924939569006 7.5593246084924814 1 rotate no_reflect no_shear #
lump $-1 $-1 $35 $8 #
transform $-1 1 0 0 0 1 0 0 0 1 54.094668416394541 26.444924939569006 7.5593246084924814 1 rotate no_reflect no_shear #
shell $-1 $-1 $-1 $36 $-1 $9 #
shell $-1 $-1 $-1 $37 $-1 $11 #
shell $-1 $-1 $-1 $38 $-1 $13 #
shell $-1 $-1 $-1 $39 $-1 $15 #
shell $-1 $-1 $-1 $40 $-1 $17 #
shell $-1 $-1 $-1 $41 $-1 $19 #
shell $-1 $-1 $-1 $42 $-1 $21 #
shell $-1 $-1 $-1 $43 $-1 $23 #
shell $-1 $-1 $-1 $44 $-1 $25 #
face $-1 $45 $46 $27 $-1 $47 forward single #
face $-1 $48 $49 $28 $-1 $50 reversed single #
face $-1 $51 $52 $29 $-1 $53 reversed single #
face $-1 $54 $55 $30 $-1 $56 reversed single #
face $-1 $57 $58 $31 $-1 $59 forward single #
face $-1 $60 $61 $32 $-1 $62 forward single #
face $-1 $63 $64 $33 $-1 $65 reversed single #
face $-1 $66 $67 $34 $-1 $68 forward single #
face $-1 $69 $70 $35 $-1 $71 forward single #
face $-1 $72 $73 $27 $-1 $74 reversed single #
loop $-1 $-1 $75 $36 #
plane-surface $-1 0 0 7.5593246084924814 0 0 1 1 0 0 forward_v I I I I #
face $-1 $76 $77 $28 $-1 $78 reversed single #
loop $-1 $-1 $79 $37 #
plane-surface $-1 0 -22.521601554961414 3.0828811489671537 0 0 1 1 0 0 forward_v I I I I #
face $-1 $80 $81 $29 $-1 $82 reversed single #
loop $-1 $-1 $83 $38 #
plane-surface $-1 0 22.521601554961414 3.0828811489671537 0 0 1 1 0 0 forward_v I I I I #
face $-1 $84 $85 $30 $-1 $86 reversed single #
loop $-1 $-1 $87 $39 #
plane-surface $-1 27.526007611031972 -12.405409294496703 152.52133046369499 0 -1 0 -0.57357644374324357 0 -0.81915203911291934 forward_v I I I I #
face $-1 $88 $89 $31 $-1 $90 forward single #
loop $-1 $91 $92 $40 #
cone-surface $-1 49.533040159478496 -16.828887062966071 4.0160300156583988 -0.57357644374324357 0 -0.81915203911291934 0.40957601955645967 0 -0.28678822187162178 1 I I 0 1 0.5 forward I I I I #
face $-1 $93 $94 $32 $-1 $95 forward single #
loop $-1 $96 $97 $41 #
cone-surface $-1 49.533040159478496 -14.17480040188445 4.0160300156583988 -0.57357644374324357 0 -0.81915203911291934 0.40957601955645967 0 -0.28678822187162178 1 I I 0 1 0.5 forward I I I I #
face $-1 $98 $99 $33 $-1 $100 reversed single #
loop $-1 $-1 $101 $42 #
plane-surface $-1 -109.81629692577923 -10.063173611372378 93.745849577990185 0 1 0 -0.51503808176128008 0 0.85716729658548041 forward_v I I I I #
face $-1 $102 $103 $34 $-1 $104 forward single #
loop $-1 $105 $106 $43 #
cone-surface $-1 -48.36373529103809 -7.855908302796724 3.8174860580397603 0.51503808176128008 0 -0.85716729658548041 0.85716729658548041 0 0.51503808176128008 1 I I 0 1 1 forward I I I I #
face $-1 $107 $108 $35 $-1 $109 forward single #
loop $-1 $110 $111 $44 #
cone-surface $-1 -48.36373529103809 -4.5450103399332455 3.8174860580397603 0.51503808176128008 0 -0.85716729658548041 0.85716729658548041 0 0.51503808176128008 1 I I 0 1 1 forward I I I I #
face $-1 $112 $113 $27 $-1 $114 reversed single #
loop $-1 $-1 $115 $45 #
plane-surface $-1 0 0 -7.5593246084924814 0 0 1 1 0 0 forward_v I I I I #
coedge $-1 $116 $117 $118 $119 forward $46 $-1 #
face $-1 $120 $121 $28 $-1 $122 reversed single #
loop $-1 $-1 $123 $48 #
plane-surface $-1 0 -18.598278170353822 5.3211028787298176 0 -1 0 0 0 -1 forward_v I I I I #
coedge $-1 $124 $125 $126 $127 reversed $49 $-1 #
face $-1 $128 $129 $29 $-1 $130 forward single #
loop $-1 $-1 $131 $51 #
plane-surface $-1 0 18.598278170353822 5.3211028787298176 0 1 0 0 0 1 forward_v I I I I #
coedge $-1 $132 $133 $134 $135 reversed $52 $-1 #
face $-1 $136 $137 $30 $-1 $138 forward single #
loop $-1 $-1 $139 $54 #
plane-surface $-1 -34.528847460459104 -15.501843732425261 63.897814586841349 0.57357644374324357 0 0.81915203911291934 0.81915203911291934 0 -0.57357644374324357 forward_v I I I I #
coedge $-1 $140 $141 $142 $143 reversed $55 $-1 #
face $-1 $-1 $144 $31 $-1 $145 forward single #
loop $-1 $146 $147 $57 #
cone-surface $-1 48.909925420017203 -16.828887062966071 3.126129959617181 -0.57357644374324357 0 -0.81915203911291934 0.20478800977822983 0 -0.14339411093581089 1 I I -0.70710678118654746 0.70710678118654746 0.25 forward I I I I #
loop $-1 $-1 $148 $40 #
coedge $-1 $92 $92 $149 $150 reversed $58 $-1 #
face $-1 $-1 $151 $32 $-1 $152 forward single #
loop $-1 $153 $154 $60 #
cone-surface $-1 48.909925420017203 -14.17480040188445 3.126129959617181 -0.57357644374324357 0 -0.81915203911291934 0.20478800977822983 0 -0.14339411093581089 1 I I -0.70710678118654746 0.70710678118654746 0.25 forward I I I I #
loop $-1 $-1 $155 $41 #
coedge $-1 $97 $97 $156 $157 reversed $61 $-1 #
face $-1 $158 $159 $33 $-1 $160 reversed single #
loop $-1 $-1 $161 $63 #
plane-surface $-1 -54.094668416394533 -6.2004593213649848 1.0094882056524312 -0.51503808176128008 0 0.85716729658548041 0.85716729658548041 0 0.51503808176128008 forward_v I I I I #
coedge $-1 $162 $163 $164 $165 reversed $64 $-1 #
face $-1 $-1 $166 $34 $-1 $167 forward single #
loop $-1 $168 $169 $66 #
cone-surface $-1 -47.82566219512168 -7.855908302796724 2.9219820607143276 0.51503808176128008 0 -0.85716729658548041 0.4285836482927402 0 0.25751904088064004 1 I I -0.70710678118654746 0.70710678118654746 0.5 forward I I I I #
loop $-1 $-1 $170 $43 #
coedge $-1 $106 $106 $171 $172 reversed $67 $-1 #
face $-1 $-1 $173 $35 $-1 $174 forward single #
loop $-1 $175 $176 $69 #
cone-surface $-1 -47.82566219512168 -4.5450103399332455 2.9219820607143276 0.51503808176128008 0 -0.85716729658548041 0.4285836482927402 0 0.25751904088064004 1 I I -0.70710678118654746 0.70710678118654746 0.5 forward I I I I #
loop $-1 $-1 $177 $44 #
coedge $-1 $111 $111 $178 $179 reversed $70 $-1 #
face $-1 $180 $181 $27 $-1 $182 reversed single #
loop $-1 $-1 $183 $72 #
plane-surface $-1 0 -26.444924939569006 0 0 1 0 0 0 1 forward_v I I I I #
coedge $-1 $184 $185 $186 $187 forward $73 $-1 #
coedge $-1 $188 $75 $189 $190 forward $46 $-1 #
coedge $-1 $75 $188 $191 $192 forward $46 $-1 #
coedge $-1 $193 $194 $75 $119 reversed $195 $-1 #
edge $-1 $196 -26.444924939569006 $197 26.444924939569006 $118 $198 forward 7 unknown #
face $-1 $199 $200 $28 $-1 $201 reversed single #
loop $-1 $-1 $202 $76 #
plane-surface $-1 -54.094668416394541 0 0 1 0 0 0 0 -1 forward_v I I I I #
coedge $-1 $203 $204 $125 $205 reversed $77 $-1 #
coedge $-1 $206 $79 $207 $208 reversed $49 $-1 #
coedge $-1 $79 $206 $123 $205 forward $49 $-1 #
coedge $-1 $209 $210 $79 $127 forward $211 $-1 #
edge $-1 $212 -15.184124162088299 $213 -7.3374773928731152 $126 $214 forward 7 unknown #
face $-1 $215 $216 $29 $-1 $217 reversed single #
loop $-1 $-1 $218 $80 #
plane-surface $-1 0 0 7.5593246084924814 0 0 1 1 0 0 forward_v I I I I #
coedge $-1 $219 $220 $221 $222 reversed $81 $-1 #
coedge $-1 $223 $83 $219 $224 forward $52 $-1 #
coedge $-1 $83 $223 $225 $226 reversed $52 $-1 #
coedge $-1 $227 $228 $83 $135 forward $216 $-1 #
edge $-1 $229 7.3374773928731152 $230 15.184124162088299 $134 $231 forward 7 unknown #
face $-1 $232 $233 $30 $-1 $234 forward single #
loop $-1 $-1 $142 $84 #
plane-surface $-1 0 0 7.5593246084924814 0 0 1 1 0 0 forward_v I I I I #
coedge $-1 $235 $236 $237 $238 reversed $85 $-1 #
coedge $-1 $141 $87 $239 $240 reversed $55 $-1 #
coedge $-1 $87 $140 $235 $241 reversed $55 $-1 #
coedge $-1 $237 $242 $87 $143 forward $137 $-1 #
edge $-1 $243 -40.331664610878555 $244 -32.167849354097434 $142 $245 forward 7 unknown #
loop $-1 $-1 $149 $88 #
plane-surface $-1 -34.528847460459104 -15.501843732425261 63.897814586841349 0.57357644374324357 0 0.81915203911291934 0.81915203911291934 0 -0.57357644374324357 forward_v I I I I #
loop $-1 $-1 $246 $57 #
coedge $-1 $147 $147 $148 $247 reversed $89 $-1 #
coedge $-1 $148 $148 $147 $247 forward $91 $-1 #
coedge $-1 $149 $149 $92 $150 forward $144 $-1 #
edge $-1 $248 0 $248 6.2831853071796004 $149 $249 forward 7 unknown #
loop $-1 $-1 $156 $93 #
plane-surface $-1 -34.528847460459104 -15.501843732425261 63.897814586841349 0.57357644374324357 0 0.81915203911291934 0.81915203911291934 0 -0.57357644374324357 forward_v I I I I #
loop $-1 $-1 $250 $60 #
coedge $-1 $154 $154 $155 $251 reversed $94 $-1 #
coedge $-1 $155 $155 $154 $251 forward $96 $-1 #
coedge $-1 $156 $156 $97 $157 forward $151 $-1 #
edge $-1 $252 0 $252 6.2831853071796004 $156 $253 forward 7 unknown #
face $-1 $254 $255 $33 $-1 $256 reversed single #
loop $-1 $-1 $257 $98 #
plane-surface $-1 -109.81629692577923 -2.337745031357592 93.745849577990185 0 -1 0 0.51503808176128008 0 -0.85716729658548041 forward_v I I I I #
coedge $-1 $258 $259 $260 $261 reversed $99 $-1 #
coedge $-1 $163 $101 $262 $263 reversed $64 $-1 #
coedge $-1 $101 $162 $258 $264 reversed $64 $-1 #
coedge $-1 $260 $265 $101 $165 forward $266 $-1 #
edge $-1 $267 0.81348004649507288 $268 11.714238187136417 $164 $269 forward 7 unknown #
loop $-1 $-1 $171 $102 #
plane-surface $-1 -54.094668416394533 -6.2004593213649848 1.0094882056524312 -0.51503808176128008 0 0.85716729658548041 0.85716729658548041 0 0.51503808176128008 forward_v I I I I #
loop $-1 $-1 $270 $66 #
coedge $-1 $169 $169 $170 $271 reversed $103 $-1 #
coedge $-1 $170 $170 $169 $271 forward $105 $-1 #
coedge $-1 $171 $171 $106 $172 forward $166 $-1 #
edge $-1 $272 0 $272 6.2831853071796004 $171 $273 forward 7 unknown #
loop $-1 $-1 $178 $107 #
plane-surface $-1 -54.094668416394533 -6.2004593213649848 1.0094882056524312 -0.51503808176128008 0 0.85716729658548041 0.85716729658548041 0 0.51503808176128008 forward_v I I I I #
loop $-1 $-1 $274 $69 #
coedge $-1 $176 $176 $177 $275 reversed $108 $-1 #
coedge $-1 $177 $177 $176 $275 forward $110 $-1 #
coedge $-1 $178 $178 $111 $179 forward $173 $-1 #
edge $-1 $276 0 $276 6.2831853071796004 $178 $277 forward 7 unknown #
face $-1 $278 $279 $27 $-1 $280 reversed single #
loop $-1 $-1 $281 $112 #
plane-surface $-1 -54.094668416394541 0 0 1 0 0 0 0 -1 forward_v I I I I #
coedge $-1 $282 $191 $283 $284 forward $113 $-1 #
coedge $-1 $285 $115 $282 $286 forward $73 $-1 #
coedge $-1 $115 $285 $287 $288 forward $73 $-1 #
coedge $-1 $194 $193 $115 $187 reversed $195 $-1 #
edge $-1 $289 -26.444924939569006 $290 26.444924939569006 $186 $291 forward 7 unknown #
coedge $-1 $117 $116 $292 $293 forward $46 $-1 #
coedge $-1 $294 $295 $116 $190 reversed $279 $-1 #
edge $-1 $197 -54.094668416394541 $296 54.094668416394541 $189 $297 forward 7 unknown #
coedge $-1 $183 $298 $117 $192 reversed $113 $-1 #
edge $-1 $299 -54.094668416394541 $196 54.094668416394541 $191 $300 forward 7 unknown #
coedge $-1 $186 $118 $298 $301 forward $195 $-1 #
coedge $-1 $118 $186 $294 $302 reversed $195 $-1 #
loop $-1 $-1 $193 $278 #
vertex $-1 $119 $303 #
vertex $-1 $119 $304 #
straight-curve $-1 54.094668416394541 0 7.5593246084924814 0 1 0 I I #
face $-1 $305 $306 $28 $-1 $307 forward single #
loop $-1 $-1 $207 $120 #
plane-surface $-1 0 -26.444924939569006 0 0 1 0 0 0 1 forward_v I I I I #
coedge $-1 $308 $309 $203 $310 forward $121 $-1 #
coedge $-1 $311 $123 $202 $310 reversed $77 $-1 #
coedge $-1 $123 $311 $209 $312 reversed $77 $-1 #
edge $-1 $313 -54.094668416394541 $213 54.094668416394541 $123 $314 forward 7 unknown #
coedge $-1 $125 $124 $308 $315 reversed $49 $-1 #
coedge $-1 $316 $317 $124 $208 forward $200 $-1 #
edge $-1 $318 -54.094668416394541 $212 54.094668416394541 $207 $319 forward 7 unknown #
coedge $-1 $320 $126 $204 $312 forward $211 $-1 #
coedge $-1 $126 $320 $316 $321 forward $211 $-1 #
loop $-1 $-1 $209 $305 #
vertex $-1 $208 $322 #
vertex $-1 $127 $323 #
straight-curve $-1 54.094668416394541 -11.260800777480707 3.0828811489671537 0 1 0 I I #
face $-1 $324 $325 $29 $-1 $326 reversed single #
loop $-1 $-1 $228 $128 #
plane-surface $-1 54.094668416394541 0 0 -1 0 0 0 0 1 forward_v I I I I #
coedge $-1 $327 $328 $220 $329 forward $129 $-1 #
coedge $-1 $330 $131 $132 $224 reversed $81 $-1 #
coedge $-1 $131 $330 $218 $329 reversed $81 $-1 #
coedge $-1 $331 $332 $131 $222 forward $325 $-1 #
edge $-1 $333 0.42232970960224492 $334 4.8987731691275727 $221 $335 forward 7 unknown #
coedge $-1 $133 $132 $332 $336 reversed $52 $-1 #
edge $-1 $229 -54.094668416394541 $333 54.094668416394541 $219 $337 forward 7 unknown #
coedge $-1 $338 $339 $133 $226 forward $340 $-1 #
edge $-1 $230 -54.094668416394541 $341 54.094668416394541 $225 $342 forward 7 unknown #
coedge $-1 $343 $134 $339 $344 reversed $216 $-1 #
coedge $-1 $134 $343 $330 $345 forward $216 $-1 #
vertex $-1 $135 $346 #
vertex $-1 $226 $347 #
straight-curve $-1 54.094668416394541 11.260800777480707 3.0828811489671537 0 1 0 I I #
face $-1 $-1 $348 $30 $-1 $349 reversed single #
loop $-1 $-1 $350 $136 #
plane-surface $-1 0 -18.598278170353822 5.3211028787298176 0 -1 0 0 0 -1 forward_v I I I I #
coedge $-1 $351 $139 $141 $241 forward $85 $-1 #
coedge $-1 $139 $351 $350 $352 forward $85 $-1 #
coedge $-1 $353 $142 $139 $238 forward $137 $-1 #
edge $-1 $244 4.6544874282840727 $354 10.847356304141188 $237 $355 forward 7 unknown #
coedge $-1 $356 $357 $140 $240 forward $348 $-1 #
edge $-1 $358 -74.417705716497224 $243 -68.701340623355009 $239 $359 forward 7 unknown #
edge $-1 $244 98.223158556993141 $358 108.18933683278908 $141 $360 forward 7 unknown #
coedge $-1 $142 $353 $356 $361 forward $137 $-1 #
vertex $-1 $240 $362 #
vertex $-1 $143 $363 #
straight-curve $-1 13.763003805515986 -12.405409294496703 7.5593246084924886 -1 0 0 I I #
coedge $-1 $246 $246 $-1 $364 reversed $146 $-1 #
edge $-1 $365 0 $365 6.2831853071796004 $147 $366 forward 7 unknown #
vertex $-1 $150 $367 #
ellipse-curve $-1 50.012760788003973 -16.828887062966071 4.7011420619213737 0.57357644374324357 0 0.81915203911291934 0.40957601955645967 0 -0.28678822187162178 1 I I #
coedge $-1 $250 $250 $-1 $368 reversed $153 $-1 #
edge $-1 $369 0 $369 6.2831853071796004 $154 $370 forward 7 unknown #
vertex $-1 $157 $371 #
ellipse-curve $-1 50.012760788003973 -14.17480040188445 4.7011420619213737 0.57357644374324357 0 0.81915203911291934 0.40957601955645967 0 -0.28678822187162178 1 I I #
face $-1 $-1 $266 $33 $-1 $372 forward single #
loop $-1 $-1 $373 $158 #
plane-surface $-1 -54.094668416394541 0 0 1 0 0 0 0 -1 forward_v I I I I #
coedge $-1 $374 $375 $376 $377 reversed $159 $-1 #
coedge $-1 $378 $161 $163 $264 forward $99 $-1 #
coedge $-1 $161 $378 $374 $379 forward $99 $-1 #
coedge $-1 $376 $164 $161 $261 forward $266 $-1 #
edge $-1 $268 -6.9629439506898851 $380 0.76248462932490035 $260 $381 forward 7 unknown #
coedge $-1 $382 $383 $162 $263 forward $255 $-1 #
edge $-1 $384 -45.863436583342668 $267 -39.313600180502611 $262 $385 forward 7 unknown #
edge $-1 $268 -12.717188562914645 $384 8.2634070795339233e-015 $163 $386 forward 7 unknown #
coedge $-1 $164 $376 $382 $387 forward $266 $-1 #
loop $-1 $-1 $376 $254 #
vertex $-1 $263 $388 #
vertex $-1 $165 $389 #
straight-curve $-1 -54.908148462889613 -10.063173611372378 7.5593246084924814 1 0 0 I I #
coedge $-1 $270 $270 $-1 $390 reversed $168 $-1 #
edge $-1 $391 0 $391 6.2831853071796004 $169 $392 forward 7 unknown #
vertex $-1 $172 $393 #
ellipse-curve $-1 -48.644289346073862 -7.855908302796724 4.2844064070724563 -0.51503808176128008 0 0.85716729658548041 0.85716729658548041 0 0.51503808176128008 1 I I #
coedge $-1 $274 $274 $-1 $394 reversed $175 $-1 #
edge $-1 $395 0 $395 6.2831853071796004 $176 $396 forward 7 unknown #
vertex $-1 $179 $397 #
ellipse-curve $-1 -48.644289346073862 -4.5450103399332455 4.2844064070724563 -0.51503808176128008 0 0.85716729658548041 0.85716729658548041 0 0.51503808176128008 1 I I #
face $-1 $-1 $195 $27 $-1 $398 reversed single #
loop $-1 $-1 $294 $180 #
plane-surface $-1 0 26.444924939569006 0 0 -1 0 0 0 -1 forward_v I I I I #
coedge $-1 $399 $292 $295 $400 forward $181 $-1 #
coedge $-1 $298 $183 $184 $286 reversed $113 $-1 #
coedge $-1 $292 $399 $183 $284 reversed $181 $-1 #
edge $-1 $299 -7.5593246084924814 $401 7.5593246084924814 $283 $402 forward 7 unknown #
coedge $-1 $185 $184 $399 $403 forward $73 $-1 #
edge $-1 $290 -54.094668416394541 $401 54.094668416394541 $282 $404 forward 7 unknown #
coedge $-1 $295 $294 $185 $288 reversed $279 $-1 #
edge $-1 $405 -54.094668416394541 $289 54.094668416394541 $287 $406 forward 7 unknown #
vertex $-1 $187 $407 #
vertex $-1 $301 $408 #
straight-curve $-1 54.094668416394541 0 -7.5593246084924814 0 -1 0 I I #
coedge $-1 $281 $283 $188 $293 reversed $181 $-1 #
edge $-1 $296 -26.444924939569006 $299 26.444924939569006 $292 $409 forward 7 unknown #
coedge $-1 $287 $189 $194 $302 forward $279 $-1 #
coedge $-1 $189 $287 $281 $400 reversed $279 $-1 #
vertex $-1 $190 $410 #
straight-curve $-1 0 26.444924939569006 7.5593246084924814 -1 0 0 I I #
coedge $-1 $191 $282 $193 $301 reversed $113 $-1 #
vertex $-1 $293 $411 #
straight-curve $-1 0 -26.444924939569006 7.5593246084924814 1 0 0 I I #
edge $-1 $196 -7.5593246084924814 $290 7.5593246084924814 $193 $412 forward 7 unknown #
edge $-1 $197 -7.5593246084924814 $289 7.5593246084924814 $194 $413 forward 7 unknown #
point $-1 54.094668416394541 -26.444924939569006 7.5593246084924814 #
point $-1 54.094668416394541 26.444924939569006 7.5593246084924814 #
face $-1 $-1 $211 $28 $-1 $414 reversed single #
loop $-1 $-1 $415 $199 #
plane-surface $-1 0 0 7.5593246084924814 0 0 1 1 0 0 forward_v I I I I #
coedge $-1 $416 $202 $206 $315 forward $121 $-1 #
coedge $-1 $202 $416 $417 $418 reversed $121 $-1 #
edge $-1 $419 -4.8987731691275727 $313 -0.42232970960224492 $202 $420 forward 7 unknown #
coedge $-1 $204 $203 $415 $421 reversed $77 $-1 #
edge $-1 $213 0.42232970960224492 $422 4.8987731691275727 $209 $423 forward 7 unknown #
vertex $-1 $315 $424 #
straight-curve $-1 0 -18.598278170353822 3.0828811489671537 1 0 0 I I #
edge $-1 $313 7.3374773928731152 $318 15.184124162088299 $308 $425 forward 7 unknown #
coedge $-1 $426 $207 $210 $321 reversed $200 $-1 #
coedge $-1 $207 $426 $416 $427 forward $200 $-1 #
vertex $-1 $208 $428 #
straight-curve $-1 0 -26.444924939569006 3.0828811489671537 1 0 0 I I #
coedge $-1 $210 $209 $429 $430 reversed $211 $-1 #
edge $-1 $431 -7.5593246084924814 $212 -3.0828811489671537 $210 $432 forward 7 unknown #
point $-1 54.094668416394541 -26.444924939569006 3.0828811489671537 #
point $-1 54.094668416394541 -18.598278170353822 3.0828811489671537 #
face $-1 $-1 $340 $29 $-1 $433 reversed single #
loop $-1 $-1 $221 $215 #
plane-surface $-1 -54.094668416394541 0 0 1 0 0 0 0 -1 forward_v I I I I #
coedge $-1 $434 $218 $343 $435 forward $129 $-1 #
coedge $-1 $218 $434 $331 $436 forward $129 $-1 #
edge $-1 $334 -54.094668416394541 $437 54.094668416394541 $218 $438 forward 7 unknown #
coedge $-1 $220 $219 $228 $345 reversed $81 $-1 #
coedge $-1 $439 $221 $328 $436 reversed $325 $-1 #
coedge $-1 $221 $439 $223 $336 forward $325 $-1 #
vertex $-1 $336 $440 #
vertex $-1 $222 $441 #
straight-curve $-1 -54.094668416394541 18.598278170353822 2.6605514393649088 0 0 1 I I #
edge $-1 $341 -15.184124162088299 $333 -7.3374773928731152 $332 $442 forward 7 unknown #
straight-curve $-1 0 18.598278170353822 3.0828811489671537 -1 0 0 I I #
coedge $-1 $443 $225 $439 $444 reversed $340 $-1 #
coedge $-1 $225 $443 $227 $344 forward $340 $-1 #
loop $-1 $-1 $225 $324 #
vertex $-1 $226 $445 #
straight-curve $-1 0 26.444924939569006 3.0828811489671537 -1 0 0 I I #
coedge $-1 $228 $227 $327 $435 reversed $216 $-1 #
edge $-1 $446 -7.5593246084924814 $230 -3.0828811489671537 $227 $447 forward 7 unknown #
edge $-1 $437 -4.8987731691275727 $229 -0.42232970960224492 $228 $448 forward 7 unknown #
point $-1 54.094668416394541 18.598278170353822 3.0828811489671537 #
point $-1 54.094668416394541 26.444924939569006 3.0828811489671537 #
loop $-1 $-1 $239 $232 #
plane-surface $-1 54.094668416394541 0 0 -1 0 0 0 0 1 forward_v I I I I #
coedge $-1 $449 $450 $236 $352 reversed $233 $-1 #
coedge $-1 $236 $235 $357 $451 reversed $85 $-1 #
edge $-1 $452 -108.18933683278908 $354 -98.223158556993141 $350 $453 forward 7 unknown #
coedge $-1 $242 $237 $450 $454 forward $137 $-1 #
vertex $-1 $454 $455 #
straight-curve $-1 45.930853159613413 -7.7509218662126305 7.5593246084924886 0 -1 0 I I #
coedge $-1 $456 $239 $242 $361 reversed $348 $-1 #
coedge $-1 $239 $456 $351 $451 forward $348 $-1 #
vertex $-1 $240 $457 #
straight-curve $-1 54.094668416394541 -12.405409294496703 76.260665231847497 0 0 1 I I #
straight-curve $-1 -34.528847460459104 -12.405409294496703 63.897814586841349 0.81915203911291934 0 -0.57357644374324357 I I #
edge $-1 $458 -18.598278170353822 $243 -12.405409294496703 $356 $459 forward 7 unknown #
point $-1 54.094668416394541 -12.405409294496703 7.5593246084924814 #
point $-1 45.93085315961342 -12.405409294496703 7.5593246084924814 #
edge $-1 $460 1 $460 0 $246 $-1 forward 7 unknown #
vertex $-1 $247 $461 #
ellipse-curve $-1 49.053319530953011 -16.828887062966071 3.330917969395411 0.57357644374324357 0 0.81915203911291934 0.40957601955645967 0 -0.28678822187162178 1 I I #
point $-1 50.422336807560441 -16.828887062966071 4.4143538400497651 #
edge $-1 $462 1 $462 0 $250 $-1 forward 7 unknown #
vertex $-1 $251 $463 #
ellipse-curve $-1 49.053319530953011 -14.17480040188445 3.330917969395411 0.57357644374324357 0 0.81915203911291934 0.40957601955645967 0 -0.28678822187162178 1 I I #
point $-1 50.422336807560441 -14.17480040188445 4.4143538400497651 #
plane-surface $-1 0 0 7.5593246084924814 0 0 1 1 0 0 forward_v I I I I #
coedge $-1 $383 $382 $375 $464 forward $255 $-1 #
coedge $-1 $375 $257 $259 $379 reversed $159 $-1 #
coedge $-1 $257 $374 $373 $464 reversed $159 $-1 #
coedge $-1 $265 $260 $257 $377 forward $266 $-1 #
edge $-1 $380 -11.714238187136417 $465 -0.81348004649507288 $376 $466 forward 7 unknown #
coedge $-1 $259 $258 $383 $467 reversed $99 $-1 #
edge $-1 $468 -8.2634070795339233e-015 $380 12.717188562914645 $374 $469 forward 7 unknown #
vertex $-1 $261 $470 #
straight-curve $-1 -43.193910275753197 -3.1002296606824924 7.5593246084924806 0 1 0 I I #
coedge $-1 $373 $262 $265 $387 reversed $255 $-1 #
coedge $-1 $262 $373 $378 $467 forward $255 $-1 #
vertex $-1 $263 $471 #
straight-curve $-1 -54.094668416394541 -10.063173611372378 46.872924788995093 0 0 1 I I #
straight-curve $-1 -54.094668416394533 -10.063173611372378 1.0094882056524312 -0.85716729658548041 0 -0.51503808176128008 I I #
edge $-1 $465 2.337745031357592 $267 10.063173611372378 $382 $472 forward 7 unknown #
point $-1 -54.094668416394541 -10.063173611372378 7.5593246084924814 #
point $-1 -43.193910275753197 -10.063173611372378 7.5593246084924814 #
edge $-1 $473 1 $473 0 $270 $-1 forward 7 unknown #
vertex $-1 $271 $474 #
ellipse-curve $-1 -48.083181236002318 -7.855908302796724 3.3505657090070677 -0.51503808176128008 0 0.85716729658548041 0.85716729658548041 0 0.51503808176128008 1 I I #
point $-1 -47.787122049488381 -7.855908302796724 4.7994444888337329 #
edge $-1 $475 1 $475 0 $274 $-1 forward 7 unknown #
vertex $-1 $275 $476 #
ellipse-curve $-1 -48.083181236002318 -4.5450103399332455 3.3505657090070677 -0.51503808176128008 0 0.85716729658548041 0.85716729658548041 0 0.51503808176128008 1 I I #
point $-1 -47.787122049488381 -4.5450103399332455 4.7994444888337329 #
plane-surface $-1 54.094668416394541 0 0 -1 0 0 0 0 1 forward_v I I I I #
coedge $-1 $283 $281 $285 $403 reversed $181 $-1 #
edge $-1 $296 -7.5593246084924814 $405 7.5593246084924814 $295 $477 forward 7 unknown #
vertex $-1 $403 $478 #
straight-curve $-1 -54.094668416394541 -26.444924939569006 0 0 0 -1 I I #
edge $-1 $401 -26.444924939569006 $405 26.444924939569006 $399 $479 forward 7 unknown #
straight-curve $-1 0 -26.444924939569006 -7.5593246084924814 -1 0 0 I I #
vertex $-1 $288 $480 #
straight-curve $-1 0 26.444924939569006 -7.5593246084924814 1 0 0 I I #
point $-1 54.094668416394541 26.444924939569006 -7.5593246084924814 #
point $-1 54.094668416394541 -26.444924939569006 -7.5593246084924814 #
straight-curve $-1 -54.094668416394541 0 7.5593246084924814 0 -1 0 I I #
point $-1 -54.094668416394541 26.444924939569006 7.5593246084924814 #
point $-1 -54.094668416394541 -26.444924939569006 7.5593246084924814 #
straight-curve $-1 54.094668416394541 -26.444924939569006 0 0 0 -1 I I #
straight-curve $-1 54.094668416394541 26.444924939569006 0 0 0 -1 I I #
plane-surface $-1 54.094668416394541 0 0 -1 0 0 0 0 1 forward_v I I I I #
coedge $-1 $417 $429 $311 $421 forward $306 $-1 #
coedge $-1 $309 $308 $317 $427 reversed $121 $-1 #
coedge $-1 $481 $415 $309 $418 forward $306 $-1 #
edge $-1 $419 18.598278170353822 $482 26.444924939569006 $309 $483 forward 7 unknown #
vertex $-1 $418 $484 #
straight-curve $-1 -54.094668416394541 -18.598278170353822 2.6605514393649088 0 0 -1 I I #
edge $-1 $422 -54.094668416394541 $419 54.094668416394541 $415 $485 forward 7 unknown #
vertex $-1 $312 $486 #
straight-curve $-1 54.094668416394541 -18.598278170353822 2.6605514393649088 0 0 1 I I #
point $-1 -54.094668416394541 -18.598278170353822 3.0828811489671537 #
straight-curve $-1 -54.094668416394541 -11.260800777480707 3.0828811489671537 0 -1 0 I I #
coedge $-1 $317 $316 $481 $487 reversed $200 $-1 #
edge $-1 $482 -7.5593246084924814 $318 -3.0828811489671537 $416 $488 forward 7 unknown #
point $-1 -54.094668416394541 -26.444924939569006 3.0828811489671537 #
coedge $-1 $415 $481 $320 $430 forward $306 $-1 #
edge $-1 $431 -26.444924939569006 $422 -18.598278170353822 $320 $489 forward 7 unknown #
vertex $-1 $430 $490 #
straight-curve $-1 54.094668416394541 -26.444924939569006 0 0 0 -1 I I #
plane-surface $-1 0 26.444924939569006 0 0 -1 0 0 0 -1 forward_v I I I I #
coedge $-1 $328 $327 $443 $491 forward $129 $-1 #
edge $-1 $437 18.598278170353822 $446 26.444924939569006 $343 $492 forward 7 unknown #
edge $-1 $493 -26.444924939569006 $334 -18.598278170353822 $331 $494 forward 7 unknown #
vertex $-1 $435 $495 #
straight-curve $-1 0 18.598278170353822 7.5593246084924814 1 0 0 I I #
coedge $-1 $332 $331 $338 $444 forward $325 $-1 #
point $-1 -54.094668416394541 18.598278170353822 3.0828811489671537 #
point $-1 -54.094668416394541 18.598278170353822 7.5593246084924814 #
straight-curve $-1 -54.094668416394541 11.260800777480707 3.0828811489671537 0 -1 0 I I #
coedge $-1 $339 $338 $434 $491 reversed $340 $-1 #
edge $-1 $493 -7.5593246084924814 $341 -3.0828811489671537 $338 $496 forward 7 unknown #
point $-1 -54.094668416394541 26.444924939569006 3.0828811489671537 #
vertex $-1 $435 $497 #
straight-curve $-1 54.094668416394541 26.444924939569006 0 0 0 -1 I I #
straight-curve $-1 54.094668416394541 18.598278170353822 2.6605514393649088 0 0 -1 I I #
coedge $-1 $450 $350 $456 $498 reversed $233 $-1 #
coedge $-1 $350 $449 $353 $454 reversed $233 $-1 #
edge $-1 $452 -10.847356304141188 $358 -4.6544874282840727 $357 $499 forward 7 unknown #
vertex $-1 $498 $500 #
straight-curve $-1 -34.528847460459104 -18.598278170353819 63.897814586841349 -0.81915203911291934 0 0.57357644374324357 I I #
edge $-1 $354 45.93085315961342 $458 54.094668416394541 $353 $501 forward 7 unknown #
point $-1 45.93085315961342 -18.598278170353819 7.5593246084924814 #
coedge $-1 $357 $356 $449 $498 forward $348 $-1 #
point $-1 54.094668416394541 -12.405409294496703 1.8429595153502731 #
vertex $-1 $361 $502 #
straight-curve $-1 54.094668416394541 0 7.5593246084924814 0 1 0 I I #
vertex $-1 $364 $503 #
point $-1 49.462895550509472 -16.828887062966071 3.044129747523789 #
vertex $-1 $368 $504 #
point $-1 49.462895550509472 -14.17480040188445 3.044129747523789 #
edge $-1 $465 39.313600180502611 $468 45.863436583342668 $373 $505 forward 7 unknown #
vertex $-1 $387 $506 #
straight-curve $-1 -54.908148462889613 -2.337745031357592 7.5593246084924814 -1 0 0 I I #
edge $-1 $468 -0.76248462932490035 $384 6.9629439506898851 $383 $507 forward 7 unknown #
vertex $-1 $467 $508 #
straight-curve $-1 -54.094668416394533 -2.337745031357592 1.0094882056524312 0.85716729658548041 0 0.51503808176128008 I I #
point $-1 -43.193910275753197 -2.337745031357592 7.5593246084924814 #
point $-1 -54.094668416394541 -10.063173611372378 1.009488205652427 #
straight-curve $-1 -54.094668416394541 0 7.5593246084924814 0 -1 0 I I #
vertex $-1 $390 $509 #
point $-1 -47.226013939416838 -7.855908302796724 3.8656037907683478 #
vertex $-1 $394 $510 #
point $-1 -47.226013939416838 -4.5450103399332455 3.8656037907683478 #
straight-curve $-1 -54.094668416394541 26.444924939569006 0 0 0 -1 I I #
point $-1 -54.094668416394541 -26.444924939569006 -7.5593246084924814 #
straight-curve $-1 -54.094668416394541 0 -7.5593246084924814 0 1 0 I I #
point $-1 -54.094668416394541 26.444924939569006 -7.5593246084924814 #
coedge $-1 $429 $417 $426 $487 forward $306 $-1 #
vertex $-1 $418 $511 #
straight-curve $-1 -54.094668416394541 0 7.5593246084924814 0 -1 0 I I #
point $-1 -54.094668416394541 -18.598278170353822 7.5593246084924814 #
straight-curve $-1 0 -18.598278170353822 7.5593246084924814 -1 0 0 I I #
point $-1 54.094668416394541 -18.598278170353822 7.5593246084924814 #
edge $-1 $482 -54.094668416394541 $431 54.094668416394541 $426 $512 forward 7 unknown #
straight-curve $-1 -54.094668416394541 -26.444924939569006 0 0 0 -1 I I #
straight-curve $-1 54.094668416394541 0 7.5593246084924814 0 1 0 I I #
point $-1 54.094668416394541 -26.444924939569006 7.5593246084924814 #
edge $-1 $446 -54.094668416394541 $493 54.094668416394541 $443 $513 forward 7 unknown #
straight-curve $-1 54.094668416394541 0 7.5593246084924814 0 1 0 I I #
vertex $-1 $491 $514 #
straight-curve $-1 -54.094668416394541 0 7.5593246084924814 0 -1 0 I I #
point $-1 54.094668416394541 18.598278170353822 7.5593246084924814 #
straight-curve $-1 -54.094668416394541 26.444924939569006 0 0 0 -1 I I #
point $-1 54.094668416394541 26.444924939569006 7.5593246084924814 #
edge $-1 $458 68.701340623355009 $452 74.417705716497224 $456 $515 forward 7 unknown #
straight-curve $-1 54.094668416394548 -7.7509218662126305 1.8429595153502696 0 1 0 I I #
point $-1 54.094668416394541 -18.598278170353819 1.8429595153502731 #
straight-curve $-1 0 -18.598278170353822 7.5593246084924814 1 0 0 I I #
point $-1 54.094668416394541 -18.598278170353822 7.5593246084924814 #
point $-1 48.766531309081394 -16.828887062966071 2.921341949838951 #
point $-1 48.766531309081394 -14.17480040188445 2.921341949838951 #
straight-curve $-1 -54.094668416394541 -2.337745031357592 46.872924788995093 0 0 -1 I I #
point $-1 -54.094668416394541 -2.337745031357592 7.5593246084924814 #
straight-curve $-1 -54.094668416394541 -3.1002296606824924 1.0094882056524277 0 -1 0 I I #
point $-1 -54.094668416394541 -2.337745031357592 1.009488205652427 #
point $-1 -47.568143154241042 -7.855908302796724 2.4933984124215876 #
point $-1 -47.568143154241042 -4.5450103399332455 2.4933984124215876 #
point $-1 -54.094668416394541 -26.444924939569006 7.5593246084924814 #
straight-curve $-1 0 -26.444924939569006 7.5593246084924814 1 0 0 I I #
straight-curve $-1 0 26.444924939569006 7.5593246084924814 -1 0 0 I I #
point $-1 -54.094668416394541 26.444924939569006 7.5593246084924814 #
straight-curve $-1 54.094668416394541 -18.598278170353819 76.260665231847497 0 0 -1 I I #
End-of-ACIS-data 