500 0 7 0           
7 Unknown 11 ACIS 5.0 NT 24 Fri Mar 26 16:49:40 1999 
-1 9.9999999999999995e-007 1e-010 
body $-1 $7 $-1 $8 #
body $-1 $9 $-1 $10 #
body $-1 $11 $-1 $12 #
body $-1 $13 $-1 $14 #
body $-1 $15 $-1 $16 #
body $-1 $17 $-1 $18 #
body $-1 $19 $-1 $20 #
lump $-1 $-1 $21 $0 #
transform $-1 1 0 0 0 1 0 0 0 1 79.028290658284249 51.498024555891071 14.099837565255324 1 rotate no_reflect no_shear #
lump $-1 $-1 $22 $1 #
transform $-1 1 0 0 0 1 0 0 0 1 79.028290658284249 51.498024555891071 14.099837565255324 1 rotate no_reflect no_shear #
lump $-1 $-1 $23 $2 #
transform $-1 1 0 0 0 1 0 0 0 1 79.028290658284249 51.498024555891071 14.099837565255324 1 rotate no_reflect no_shear #
lump $-1 $-1 $24 $3 #
transform $-1 1 0 0 0 1 0 0 0 1 79.028290658284249 51.498024555891071 14.099837565255324 1 rotate no_reflect no_shear #
lump $-1 $-1 $25 $4 #
transform $-1 1 0 0 0 1 0 0 0 1 79.028290658284249 51.498024555891071 14.099837565255324 1 rotate no_reflect no_shear #
lump $-1 $-1 $26 $5 #
transform $-1 1 0 0 0 1 0 0 0 1 79.028290658284249 51.498024555891071 14.099837565255324 1 rotate no_reflect no_shear #
lump $-1 $-1 $27 $6 #
transform $-1 1 0 0 0 1 0 0 0 1 79.028290658284249 51.498024555891071 14.099837565255324 1 rotate no_reflect no_shear #
shell $-1 $-1 $-1 $28 $-1 $7 #
shell $-1 $-1 $-1 $29 $-1 $9 #
shell $-1 $-1 $-1 $30 $-1 $11 #
shell $-1 $-1 $-1 $31 $-1 $13 #
shell $-1 $-1 $-1 $32 $-1 $15 #
shell $-1 $-1 $-1 $33 $-1 $17 #
shell $-1 $-1 $-1 $34 $-1 $19 #
face $-1 $35 $36 $21 $-1 $37 reversed single #
face $-1 $38 $39 $22 $-1 $40 forward single #
face $-1 $41 $42 $23 $-1 $43 forward single #
face $-1 $44 $45 $24 $-1 $46 reversed single #
face $-1 $47 $48 $25 $-1 $49 forward single #
face $-1 $50 $51 $26 $-1 $52 reversed single #
face $-1 $53 $54 $27 $-1 $55 forward single #
face $-1 $56 $57 $21 $-1 $58 forward single #
loop $-1 $-1 $59 $28 #
plane-surface $-1 79.028290658284249 0 0 -1 0 0 0 0 1 forward_v I I I I #
face $-1 $60 $61 $22 $-1 $62 forward single #
loop $-1 $-1 $63 $29 #
plane-surface $-1 -79.028290658284249 0 0 1 0 0 0 0 -1 forward_v I I I I #
face $-1 $64 $65 $23 $-1 $66 reversed single #
loop $-1 $-1 $67 $30 #
plane-surface $-1 79.028290658284249 0 0 -1 0 0 0 0 1 forward_v I I I I #
face $-1 $68 $69 $24 $-1 $70 reversed single #
loop $-1 $-1 $71 $31 #
plane-surface $-1 32.556952992632525 127.95976111218997 178.1514974175472 1 0 0 0 -0.83867057594974714 -0.54463902268945019 forward_v I I I I #
face $-1 $72 $73 $25 $-1 $74 forward single #
loop $-1 $75 $76 $32 #
cone-surface $-1 48.484540942324898 46.573140904081995 8.4694133166280992 0 -0.83867057594974714 -0.54463902268945019 1.5 0 0 1 I I 0 1 1.5 forward I I I I #
face $-1 $77 $78 $26 $-1 $79 reversed single #
loop $-1 $-1 $80 $33 #
plane-surface $-1 -44.975065747436162 -163.26090631273422 117.80855929970356 -1 0 0 0 -0.70710678939079041 0.70710677298230451 forward_v I I I I #
face $-1 $81 $82 $27 $-1 $83 forward single #
loop $-1 $84 $85 $34 #
cone-surface $-1 -54.693597319726706 -45.965077358346441 8.5668903092057569 0 0.70710678939079041 -0.70710677298230451 2.5 0 0 1 I I 0 1 2.5 forward I I I I #
face $-1 $86 $87 $21 $-1 $88 reversed single #
loop $-1 $-1 $89 $35 #
plane-surface $-1 0 0 14.099837565255324 0 0 1 1 0 0 forward_v I I I I #
coedge $-1 $90 $91 $92 $93 reversed $36 $-1 #
face $-1 $94 $95 $22 $-1 $96 reversed single #
loop $-1 $-1 $97 $38 #
plane-surface $-1 0 0 14.099837565255324 0 0 1 1 0 0 forward_v I I I I #
coedge $-1 $98 $99 $100 $101 forward $39 $-1 #
face $-1 $102 $103 $23 $-1 $104 reversed single #
loop $-1 $-1 $105 $41 #
plane-surface $-1 0 -51.498024555891071 0 0 1 0 0 0 1 forward_v I I I I #
coedge $-1 $106 $107 $108 $109 forward $42 $-1 #
face $-1 $110 $111 $24 $-1 $112 reversed single #
loop $-1 $-1 $113 $44 #
plane-surface $-1 48.484540942324884 -4.5976429732245663 92.067715439655728 0 0.83867057594974714 0.54463902268945019 1 0 0 forward_v I I I I #
coedge $-1 $114 $115 $116 $117 reversed $45 $-1 #
face $-1 $-1 $118 $25 $-1 $119 forward single #
loop $-1 $120 $121 $47 #
cone-surface $-1 48.484540942324898 43.750622940854406 6.6364487783469777 0 -0.83867057594974714 -0.54463902268945019 0.75 0 0 1 I I -0.70710678118654757 0.70710678118654757 0.75 forward I I I I #
loop $-1 $-1 $122 $32 #
coedge $-1 $76 $76 $123 $124 reversed $48 $-1 #
face $-1 $125 $126 $26 $-1 $127 reversed single #
loop $-1 $-1 $128 $50 #
plane-surface $-1 -54.693597319726706 -51.498024555891078 6.045680136329608 0 -0.70710678939079041 0.70710677298230451 1 0 0 forward_v I I I I #
coedge $-1 $129 $130 $131 $132 reversed $51 $-1 #
face $-1 $-1 $133 $27 $-1 $134 forward single #
loop $-1 $135 $136 $53 #
cone-surface $-1 -54.693597319726706 -43.57532529507742 6.1771383013911745 0 0.70710678939079041 -0.70710677298230451 1.25 0 0 1 I I -0.70710678118654746 0.70710678118654746 1.25 forward I I I I #
loop $-1 $-1 $137 $34 #
coedge $-1 $85 $85 $138 $139 reversed $54 $-1 #
face $-1 $140 $141 $21 $-1 $142 reversed single #
loop $-1 $-1 $92 $56 #
plane-surface $-1 0 0 -14.099837565255324 0 0 1 1 0 0 forward_v I I I I #
coedge $-1 $143 $144 $145 $146 forward $57 $-1 #
coedge $-1 $145 $59 $147 $148 reversed $36 $-1 #
coedge $-1 $59 $145 $149 $150 forward $36 $-1 #
coedge $-1 $151 $152 $59 $93 forward $87 $-1 #
edge $-1 $153 -51.498024555891071 $154 51.498024555891071 $59 $155 forward 7 unknown #
face $-1 $156 $157 $22 $-1 $158 reversed single #
loop $-1 $-1 $159 $60 #
plane-surface $-1 -93.644452424551247 -47.981262494379116 0 1 0 0 0 0 -1 forward_v I I I I #
coedge $-1 $160 $161 $98 $162 forward $61 $-1 #
coedge $-1 $163 $63 $97 $162 reversed $39 $-1 #
coedge $-1 $63 $163 $164 $165 reversed $39 $-1 #
coedge $-1 $166 $167 $63 $101 reversed $157 $-1 #
edge $-1 $168 -14.099837565255324 $169 14.099837565255324 $100 $170 forward 7 unknown #
face $-1 $171 $172 $23 $-1 $173 reversed single #
loop $-1 $-1 $174 $64 #
plane-surface $-1 0 0 -14.099837565255324 0 0 1 1 0 0 forward_v I I I I #
coedge $-1 $175 $176 $177 $178 forward $65 $-1 #
coedge $-1 $177 $67 $174 $179 reversed $42 $-1 #
coedge $-1 $67 $177 $180 $181 reversed $42 $-1 #
coedge $-1 $182 $183 $67 $109 reversed $172 $-1 #
edge $-1 $184 -14.099837565255324 $185 14.099837565255324 $108 $186 forward 7 unknown #
face $-1 $187 $188 $24 $-1 $189 reversed single #
loop $-1 $-1 $190 $68 #
plane-surface $-1 64.41212889201725 127.95976111218997 178.1514974175472 -1 0 0 0 0.83867057594974714 0.54463902268945019 forward_v I I I I #
coedge $-1 $191 $192 $193 $194 reversed $69 $-1 #
coedge $-1 $115 $71 $195 $196 reversed $45 $-1 #
coedge $-1 $71 $114 $191 $197 reversed $45 $-1 #
coedge $-1 $193 $198 $71 $117 forward $199 $-1 #
edge $-1 $200 12.481856000203912 $201 17.94459324129155 $116 $202 forward 7 unknown #
loop $-1 $-1 $123 $72 #
plane-surface $-1 48.484540942324884 -4.5976429732245663 92.067715439655728 0 0.83867057594974714 0.54463902268945019 1 0 0 forward_v I I I I #
loop $-1 $-1 $203 $47 #
coedge $-1 $121 $121 $122 $204 reversed $73 $-1 #
coedge $-1 $122 $122 $121 $204 forward $75 $-1 #
coedge $-1 $123 $123 $76 $124 forward $118 $-1 #
edge $-1 $205 -3.9962775262769978e-016 $205 6.2831853071796004 $123 $206 forward 7 unknown #
face $-1 $207 $208 $26 $-1 $209 forward single #
loop $-1 $-1 $210 $77 #
plane-surface $-1 -64.41212889201725 -163.26090631273422 117.80855929970356 1 0 0 0 0.70710678939079041 -0.70710677298230451 forward_v I I I I #
coedge $-1 $211 $212 $213 $214 reversed $78 $-1 #
coedge $-1 $130 $80 $215 $216 reversed $51 $-1 #
coedge $-1 $80 $129 $211 $217 reversed $51 $-1 #
coedge $-1 $213 $218 $80 $132 forward $208 $-1 #
edge $-1 $219 30.13242860047604 $220 38.186585842504194 $131 $221 forward 7 unknown #
loop $-1 $-1 $138 $81 #
plane-surface $-1 -54.693597319726706 -51.498024555891078 6.045680136329608 0 -0.70710678939079041 0.70710677298230451 1 0 0 forward_v I I I I #
loop $-1 $-1 $222 $53 #
coedge $-1 $136 $136 $137 $223 reversed $82 $-1 #
coedge $-1 $137 $137 $136 $223 forward $84 $-1 #
coedge $-1 $138 $138 $85 $139 forward $133 $-1 #
edge $-1 $224 -9.3271443184267575e-023 $224 6.2831853071796004 $138 $225 forward 7 unknown #
face $-1 $226 $227 $21 $-1 $228 reversed single #
loop $-1 $-1 $229 $86 #
plane-surface $-1 0 -51.498024555891071 0 0 1 0 0 0 1 forward_v I I I I #
coedge $-1 $230 $89 $231 $232 forward $57 $-1 #
coedge $-1 $89 $230 $233 $234 forward $57 $-1 #
coedge $-1 $91 $90 $89 $146 reversed $36 $-1 #
edge $-1 $235 -51.498024555891071 $236 51.498024555891071 $145 $237 forward 7 unknown #
coedge $-1 $238 $231 $90 $148 forward $239 $-1 #
edge $-1 $236 -14.099837565255324 $153 14.099837565255324 $90 $240 forward 7 unknown #
coedge $-1 $233 $241 $91 $150 reversed $141 $-1 #
edge $-1 $235 -14.099837565255324 $154 14.099837565255324 $91 $242 forward 7 unknown #
coedge $-1 $243 $92 $241 $244 forward $87 $-1 #
coedge $-1 $92 $243 $238 $245 forward $87 $-1 #
vertex $-1 $93 $246 #
vertex $-1 $150 $247 #
straight-curve $-1 79.028290658284249 0 -14.099837565255324 0 -1 0 I I #
face $-1 $248 $249 $22 $-1 $250 reversed single #
loop $-1 $-1 $100 $94 #
plane-surface $-1 -86.336371541417748 -44.464500432867162 0 0 -1 0 0 0 -1 forward_v I I I I #
coedge $-1 $251 $252 $253 $254 forward $95 $-1 #
coedge $-1 $255 $97 $167 $256 forward $61 $-1 #
coedge $-1 $97 $255 $257 $258 forward $61 $-1 #
edge $-1 $259 -51.498024555891071 $169 -44.464500432867162 $97 $260 forward 7 unknown #
coedge $-1 $99 $98 $261 $262 reversed $39 $-1 #
coedge $-1 $263 $264 $99 $165 forward $249 $-1 #
edge $-1 $168 44.464500432867162 $265 51.498024555891071 $164 $266 forward 7 unknown #
coedge $-1 $253 $100 $264 $267 reversed $157 $-1 #
coedge $-1 $100 $253 $160 $256 reversed $157 $-1 #
vertex $-1 $165 $268 #
vertex $-1 $256 $269 #
straight-curve $-1 -79.028290658284249 -44.464500432867162 0 0 0 1 I I #
face $-1 $270 $271 $23 $-1 $272 reversed single #
loop $-1 $-1 $273 $102 #
plane-surface $-1 86.336371541417748 -44.464500432867162 0 0 -1 0 0 0 -1 forward_v I I I I #
coedge $-1 $274 $275 $106 $179 forward $103 $-1 #
coedge $-1 $276 $105 $275 $277 reversed $65 $-1 #
coedge $-1 $105 $276 $278 $279 reversed $65 $-1 #
coedge $-1 $107 $106 $105 $178 reversed $42 $-1 #
edge $-1 $280 -14.099837565255324 $281 14.099837565255324 $105 $282 forward 7 unknown #
edge $-1 $281 -51.498024555891071 $185 -44.464500432867162 $174 $283 forward 7 unknown #
coedge $-1 $278 $284 $107 $181 forward $285 $-1 #
edge $-1 $184 44.464500432867162 $280 51.498024555891071 $180 $286 forward 7 unknown #
coedge $-1 $273 $108 $284 $287 reversed $172 $-1 #
coedge $-1 $108 $273 $274 $288 reversed $172 $-1 #
vertex $-1 $181 $289 #
vertex $-1 $288 $290 #
straight-curve $-1 79.028290658284249 -44.464500432867162 0 0 0 -1 I I #
face $-1 $-1 $199 $24 $-1 $291 forward single #
loop $-1 $-1 $292 $110 #
plane-surface $-1 0 51.498024555891071 0 0 -1 0 0 0 -1 forward_v I I I I #
coedge $-1 $293 $294 $295 $296 reversed $111 $-1 #
coedge $-1 $297 $113 $115 $197 forward $69 $-1 #
coedge $-1 $113 $297 $293 $298 forward $69 $-1 #
coedge $-1 $295 $116 $113 $194 forward $199 $-1 #
edge $-1 $201 8.3146825214700826 $299 40.169858420854808 $193 $300 forward 7 unknown #
coedge $-1 $301 $302 $114 $196 forward $188 $-1 #
edge $-1 $303 -83.387789098244639 $200 -74.975911143518275 $195 $304 forward 7 unknown #
edge $-1 $201 92.966034710477558 $303 102.99604911178214 $115 $305 forward 7 unknown #
coedge $-1 $116 $295 $301 $306 forward $199 $-1 #
loop $-1 $-1 $295 $187 #
vertex $-1 $196 $307 #
vertex $-1 $117 $308 #
straight-curve $-1 32.556952992632525 63.979880556094983 14.099837565255328 0 -1 0 I I #
coedge $-1 $203 $203 $-1 $309 reversed $120 $-1 #
edge $-1 $310 0 $310 6.2831853071796004 $121 $311 forward 7 unknown #
vertex $-1 $124 $312 #
ellipse-curve $-1 48.484540942324898 48.766655935347259 9.8938985878921262 0 0.83867057594974714 0.54463902268945019 1.5 0 0 1 I I #
face $-1 $-1 $313 $26 $-1 $314 reversed single #
loop $-1 $-1 $131 $125 #
plane-surface $-1 0 0 14.099837565255324 0 0 1 1 0 0 forward_v I I I I #
coedge $-1 $315 $316 $317 $318 reversed $126 $-1 #
coedge $-1 $319 $128 $130 $217 forward $78 $-1 #
coedge $-1 $128 $319 $315 $320 forward $78 $-1 #
coedge $-1 $317 $131 $128 $214 forward $208 $-1 #
edge $-1 $220 17.628267087572809 $321 37.065330232153897 $213 $322 forward 7 unknown #
coedge $-1 $323 $324 $129 $216 forward $313 $-1 #
edge $-1 $325 -52.858599513522165 $219 -44.804442084596459 $215 $326 forward 7 unknown #
edge $-1 $220 -11.390298537318239 $325 -1.0048591735576163e-014 $130 $327 forward 7 unknown #
coedge $-1 $131 $317 $323 $328 forward $208 $-1 #
vertex $-1 $132 $329 #
vertex $-1 $132 $330 #
straight-curve $-1 -44.975065747436162 -81.630453156367111 14.099837565255328 0 1 0 I I #
coedge $-1 $222 $222 $-1 $331 reversed $135 $-1 #
edge $-1 $332 0 $332 6.2831853071796004 $136 $333 forward 7 unknown #
vertex $-1 $139 $334 #
ellipse-curve $-1 -54.693597319726706 -47.470945934876994 10.072758850792471 0 -0.70710678939079041 0.70710677298230451 2.5 0 0 1 I I #
face $-1 $-1 $239 $21 $-1 $335 reversed single #
loop $-1 $-1 $336 $140 #
plane-surface $-1 -79.028290658284249 0 0 1 0 0 0 0 -1 forward_v I I I I #
coedge $-1 $241 $233 $337 $338 forward $141 $-1 #
coedge $-1 $144 $143 $336 $339 forward $57 $-1 #
coedge $-1 $147 $340 $143 $232 reversed $239 $-1 #
edge $-1 $236 -79.028290658284249 $341 79.028290658284249 $231 $342 forward 7 unknown #
coedge $-1 $229 $149 $144 $234 reversed $141 $-1 #
edge $-1 $343 -79.028290658284249 $235 79.028290658284249 $233 $344 forward 7 unknown #
vertex $-1 $146 $345 #
vertex $-1 $146 $346 #
straight-curve $-1 79.028290658284249 0 14.099837565255324 0 1 0 I I #
coedge $-1 $340 $147 $152 $245 reversed $239 $-1 #
loop $-1 $-1 $147 $226 #
straight-curve $-1 79.028290658284249 51.498024555891071 0 0 0 -1 I I #
coedge $-1 $149 $229 $151 $244 reversed $141 $-1 #
straight-curve $-1 79.028290658284249 -51.498024555891071 0 0 0 -1 I I #
coedge $-1 $152 $151 $347 $348 forward $87 $-1 #
edge $-1 $154 -79.028290658284249 $349 79.028290658284249 $241 $350 forward 7 unknown #
edge $-1 $351 -79.028290658284249 $153 79.028290658284249 $238 $352 forward 7 unknown #
point $-1 79.028290658284249 51.498024555891071 -14.099837565255324 #
point $-1 79.028290658284249 -51.498024555891071 -14.099837565255324 #
face $-1 $-1 $353 $22 $-1 $354 reversed single #
loop $-1 $-1 $164 $156 #
plane-surface $-1 0 0 -14.099837565255324 0 0 1 1 0 0 forward_v I I I I #
coedge $-1 $355 $159 $356 $357 reversed $95 $-1 #
coedge $-1 $159 $355 $255 $358 reversed $95 $-1 #
coedge $-1 $167 $166 $159 $254 reversed $157 $-1 #
edge $-1 $359 -14.099837565255324 $360 14.099837565255324 $253 $361 forward 7 unknown #
coedge $-1 $161 $160 $252 $358 forward $61 $-1 #
edge $-1 $169 -7.3080808831334991 $359 7.3080808831334991 $167 $362 forward 7 unknown #
coedge $-1 $363 $261 $161 $258 reversed $353 $-1 #
edge $-1 $364 -93.644452424551247 $259 -79.028290658284249 $257 $365 forward 7 unknown #
vertex $-1 $262 $366 #
straight-curve $-1 -79.028290658284249 0 14.099837565255324 0 1 0 I I #
coedge $-1 $257 $367 $163 $262 forward $353 $-1 #
edge $-1 $265 -14.099837565255324 $259 14.099837565255324 $261 $368 forward 7 unknown #
coedge $-1 $356 $164 $367 $369 forward $249 $-1 #
coedge $-1 $164 $356 $166 $267 forward $249 $-1 #
vertex $-1 $369 $370 #
straight-curve $-1 -79.028290658284249 0 -14.099837565255324 0 -1 0 I I #
edge $-1 $360 -7.3080808831334991 $168 7.3080808831334991 $166 $371 forward 7 unknown #
point $-1 -79.028290658284249 -44.464500432867162 -14.099837565255324 #
point $-1 -79.028290658284249 -44.464500432867162 14.099837565255324 #
face $-1 $-1 $285 $23 $-1 $372 forward single #
loop $-1 $-1 $373 $171 #
plane-surface $-1 93.644452424551247 -47.981262494379116 0 -1 0 0 0 0 1 forward_v I I I I #
coedge $-1 $183 $182 $374 $375 forward $172 $-1 #
coedge $-1 $376 $174 $183 $288 forward $103 $-1 #
coedge $-1 $174 $376 $175 $277 forward $103 $-1 #
coedge $-1 $176 $175 $373 $377 reversed $65 $-1 #
edge $-1 $378 -7.3080808831334991 $281 7.3080808831334991 $175 $379 forward 7 unknown #
coedge $-1 $380 $180 $176 $279 forward $285 $-1 #
edge $-1 $280 -7.3080808831334991 $381 7.3080808831334991 $176 $382 forward 7 unknown #
vertex $-1 $279 $383 #
vertex $-1 $179 $384 #
straight-curve $-1 79.028290658284249 -51.498024555891071 0 0 0 -1 I I #
straight-curve $-1 79.028290658284249 0 -14.099837565255324 0 1 0 I I #
coedge $-1 $180 $380 $182 $287 forward $285 $-1 #
loop $-1 $-1 $180 $270 #
straight-curve $-1 79.028290658284249 0 14.099837565255324 0 -1 0 I I #
edge $-1 $385 -7.3080808831334991 $184 7.3080808831334991 $182 $386 forward 7 unknown #
edge $-1 $185 -7.3080808831334991 $387 7.3080808831334991 $183 $388 forward 7 unknown #
point $-1 79.028290658284249 -44.464500432867162 14.099837565255324 #
point $-1 79.028290658284249 -44.464500432867162 -14.099837565255324 #
plane-surface $-1 0 0 14.099837565255324 0 0 1 1 0 0 forward_v I I I I #
coedge $-1 $302 $301 $294 $389 forward $188 $-1 #
coedge $-1 $294 $190 $192 $298 reversed $111 $-1 #
coedge $-1 $190 $293 $292 $389 reversed $111 $-1 #
coedge $-1 $198 $193 $190 $296 forward $199 $-1 #
edge $-1 $299 -17.94459324129155 $390 -12.481856000203912 $295 $391 forward 7 unknown #
coedge $-1 $192 $191 $302 $392 reversed $69 $-1 #
edge $-1 $393 -102.99604911178214 $299 -92.966034710477558 $293 $394 forward 7 unknown #
vertex $-1 $194 $395 #
straight-curve $-1 24.242270471162442 46.035287314803433 14.099837565255328 1 0 0 I I #
coedge $-1 $292 $195 $198 $306 reversed $188 $-1 #
coedge $-1 $195 $292 $297 $392 forward $188 $-1 #
vertex $-1 $196 $396 #
straight-curve $-1 32.556952992632525 51.498024555891071 89.075748708773602 0 0 1 I I #
straight-curve $-1 32.556952992632525 -4.5976429732245663 92.067715439655728 0 0.54463902268945019 -0.83867057594974714 I I #
edge $-1 $390 -64.41212889201725 $200 -32.556952992632525 $301 $397 forward 7 unknown #
point $-1 32.556952992632525 51.498024555891071 14.099837565255324 #
point $-1 32.556952992632525 46.035287314803433 14.099837565255328 #
edge $-1 $398 1 $398 0 $203 $-1 forward 7 unknown #
vertex $-1 $204 $399 #
ellipse-curve $-1 48.484540942324898 44.379625872816717 7.044928045364065 0 0.83867057594974714 0.54463902268945019 1.5 0 0 1 I I #
point $-1 49.984540942324898 48.766655935347266 9.8938985878921315 #
loop $-1 $-1 $215 $207 #
plane-surface $-1 0 -51.498024555891071 0 0 1 0 0 0 1 forward_v I I I I #
coedge $-1 $316 $210 $212 $320 reversed $126 $-1 #
coedge $-1 $210 $315 $400 $401 reversed $126 $-1 #
coedge $-1 $218 $213 $210 $318 forward $208 $-1 #
edge $-1 $321 -38.186585842504194 $402 -30.13242860047604 $317 $403 forward 7 unknown #
coedge $-1 $212 $211 $324 $404 reversed $78 $-1 #
edge $-1 $405 1.0048591735576163e-014 $321 11.390298537318239 $315 $406 forward 7 unknown #
vertex $-1 $214 $407 #
straight-curve $-1 -27.346798659863353 -43.44386731386291 14.099837565255324 -1 0 0 I I #
coedge $-1 $400 $215 $218 $328 reversed $313 $-1 #
coedge $-1 $215 $400 $319 $404 forward $313 $-1 #
vertex $-1 $216 $408 #
straight-curve $-1 -44.975065747436162 -51.498024555891071 58.90427964985178 0 0 1 I I #
straight-curve $-1 -44.975065747436162 -51.498024555891078 6.045680136329608 0 -0.70710677298230451 -0.70710678939079041 I I #
edge $-1 $402 -150.748500433435 $219 -131.31143728885391 $323 $409 forward 7 unknown #
point $-1 -44.975065747436162 -51.498024555891071 14.099837565255324 #
point $-1 -44.975065747436162 -43.443867313862917 14.099837565255324 #
edge $-1 $410 1 $410 0 $222 $-1 forward 7 unknown #
vertex $-1 $223 $411 #
ellipse-curve $-1 -54.693597319726706 -44.45920878181591 7.0610217676190548 0 -0.70710678939079041 0.70710677298230451 2.5 0 0 1 I I #
point $-1 -52.193597319726706 -47.47094593487698 10.072758850792457 #
plane-surface $-1 0 51.498024555891071 0 0 -1 0 0 0 -1 forward_v I I I I #
coedge $-1 $412 $337 $230 $339 reversed $227 $-1 #
coedge $-1 $336 $347 $229 $338 reversed $227 $-1 #
edge $-1 $343 -14.099837565255324 $349 14.099837565255324 $337 $413 forward 7 unknown #
edge $-1 $341 -51.498024555891071 $343 51.498024555891071 $336 $414 forward 7 unknown #
coedge $-1 $231 $238 $412 $415 reversed $239 $-1 #
vertex $-1 $232 $416 #
straight-curve $-1 0 51.498024555891071 14.099837565255324 -1 0 0 I I #
vertex $-1 $339 $417 #
straight-curve $-1 0 -51.498024555891071 14.099837565255324 1 0 0 I I #
point $-1 79.028290658284249 -51.498024555891071 14.099837565255324 #
point $-1 79.028290658284249 51.498024555891071 14.099837565255324 #
coedge $-1 $337 $412 $243 $348 reversed $227 $-1 #
edge $-1 $349 -51.498024555891071 $351 51.498024555891071 $347 $418 forward 7 unknown #
vertex $-1 $348 $419 #
straight-curve $-1 0 -51.498024555891071 -14.099837565255324 -1 0 0 I I #
vertex $-1 $245 $420 #
straight-curve $-1 0 51.498024555891071 -14.099837565255324 1 0 0 I I #
loop $-1 $-1 $261 $248 #
plane-surface $-1 0 -51.498024555891071 0 0 1 0 0 0 1 forward_v I I I I #
coedge $-1 $252 $251 $363 $421 reversed $95 $-1 #
coedge $-1 $264 $263 $251 $357 forward $249 $-1 #
edge $-1 $422 -3.5167620615119546 $360 3.5167620615119546 $251 $423 forward 7 unknown #
edge $-1 $359 -3.5167620615119546 $364 3.5167620615119546 $252 $424 forward 7 unknown #
vertex $-1 $256 $425 #
vertex $-1 $267 $426 #
straight-curve $-1 -93.644452424551247 -44.464500432867162 0 0 0 -1 I I #
straight-curve $-1 -86.336371541417748 -44.464500432867162 14.099837565255324 -1 0 0 I I #
coedge $-1 $367 $257 $355 $421 forward $353 $-1 #
vertex $-1 $358 $427 #
straight-curve $-1 0 -51.498024555891071 14.099837565255324 1 0 0 I I #
point $-1 -79.028290658284249 -51.498024555891071 14.099837565255324 #
coedge $-1 $261 $363 $263 $369 reversed $353 $-1 #
straight-curve $-1 -79.028290658284249 -51.498024555891071 0 0 0 1 I I #
edge $-1 $265 -7.3080808831334991 $422 7.3080808831334991 $367 $428 forward 7 unknown #
point $-1 -79.028290658284249 -51.498024555891071 -14.099837565255324 #
straight-curve $-1 -86.336371541417748 -44.464500432867162 -14.099837565255324 1 0 0 I I #
plane-surface $-1 0 0 14.099837565255324 0 0 1 1 0 0 forward_v I I I I #
coedge $-1 $429 $430 $276 $377 forward $271 $-1 #
coedge $-1 $430 $429 $273 $375 reversed $271 $-1 #
edge $-1 $385 -14.099837565255324 $387 14.099837565255324 $374 $431 forward 7 unknown #
coedge $-1 $275 $274 $429 $432 forward $103 $-1 #
edge $-1 $381 -14.099837565255324 $378 14.099837565255324 $373 $433 forward 7 unknown #
vertex $-1 $377 $434 #
straight-curve $-1 86.336371541417748 -51.498024555891071 -14.099837565255324 -1 0 0 I I #
coedge $-1 $284 $278 $430 $435 forward $285 $-1 #
vertex $-1 $435 $436 #
straight-curve $-1 86.336371541417748 -51.498024555891071 14.099837565255324 1 0 0 I I #
point $-1 79.028290658284249 -51.498024555891071 14.099837565255324 #
point $-1 79.028290658284249 -51.498024555891071 -14.099837565255324 #
vertex $-1 $435 $437 #
straight-curve $-1 86.336371541417748 -44.464500432867162 14.099837565255324 -1 0 0 I I #
vertex $-1 $432 $438 #
straight-curve $-1 86.336371541417748 -44.464500432867162 -14.099837565255324 1 0 0 I I #
edge $-1 $390 74.975911143518275 $393 83.387789098244639 $292 $439 forward 7 unknown #
vertex $-1 $306 $440 #
straight-curve $-1 64.41212889201725 63.979880556094983 14.099837565255328 0 1 0 I I #
edge $-1 $393 -40.169858420854808 $303 -8.3146825214700826 $302 $441 forward 7 unknown #
vertex $-1 $392 $442 #
straight-curve $-1 64.41212889201725 -4.5976429732245663 92.067715439655728 0 -0.54463902268945019 0.83867057594974714 I I #
point $-1 64.41212889201725 46.035287314803433 14.099837565255328 #
point $-1 32.556952992632525 51.498024555891071 5.6879596105289636 #
straight-curve $-1 0 51.498024555891071 14.099837565255324 -1 0 0 I I #
vertex $-1 $309 $443 #
point $-1 49.984540942324898 44.379625872816717 7.044928045364065 #
coedge $-1 $324 $323 $316 $401 forward $313 $-1 #
edge $-1 $402 44.804442084596459 $405 52.858599513522165 $400 $444 forward 7 unknown #
vertex $-1 $328 $445 #
straight-curve $-1 -64.41212889201725 -81.630453156367111 14.099837565255328 0 -1 0 I I #
edge $-1 $405 -37.065330232153897 $325 -17.628267087572809 $324 $446 forward 7 unknown #
vertex $-1 $404 $447 #
straight-curve $-1 -64.41212889201725 -51.498024555891078 6.045680136329608 0 0.70710677298230451 0.70710678939079041 I I #
point $-1 -64.41212889201725 -43.443867313862917 14.099837565255324 #
point $-1 -44.975065747436162 -51.498024555891071 6.0456801363296151 #
straight-curve $-1 86.336371541417748 -51.498024555891071 14.099837565255324 1 0 0 I I #
vertex $-1 $331 $448 #
point $-1 -52.193597319726706 -44.45920878181591 7.0610217676190548 #
coedge $-1 $347 $336 $340 $415 forward $227 $-1 #
straight-curve $-1 -79.028290658284249 -51.498024555891071 0 0 0 -1 I I #
straight-curve $-1 -79.028290658284249 0 14.099837565255324 0 -1 0 I I #
edge $-1 $341 -14.099837565255324 $351 14.099837565255324 $340 $449 forward 7 unknown #
point $-1 -79.028290658284249 51.498024555891071 14.099837565255324 #
point $-1 -79.028290658284249 -51.498024555891071 14.099837565255324 #
straight-curve $-1 -79.028290658284249 0 -14.099837565255324 0 1 0 I I #
point $-1 -79.028290658284249 -51.498024555891071 -14.099837565255324 #
point $-1 -79.028290658284249 51.498024555891071 -14.099837565255324 #
edge $-1 $364 -14.099837565255324 $422 14.099837565255324 $355 $450 forward 7 unknown #
vertex $-1 $357 $451 #
straight-curve $-1 -93.644452424551247 -47.981262494379116 -14.099837565255324 0 1 0 I I #
straight-curve $-1 -93.644452424551247 -47.981262494379116 14.099837565255324 0 -1 0 I I #
point $-1 -93.644452424551247 -44.464500432867162 14.099837565255324 #
point $-1 -93.644452424551247 -44.464500432867162 -14.099837565255324 #
point $-1 -93.644452424551247 -51.498024555891071 14.099837565255324 #
straight-curve $-1 -86.336371541417748 -51.498024555891071 -14.099837565255324 -1 0 0 I I #
coedge $-1 $374 $373 $376 $432 reversed $271 $-1 #
coedge $-1 $373 $374 $380 $435 reversed $271 $-1 #
straight-curve $-1 93.644452424551247 -44.464500432867162 0 0 0 -1 I I #
edge $-1 $387 -3.5167620615119546 $378 3.5167620615119546 $429 $452 forward 7 unknown #
straight-curve $-1 93.644452424551247 -51.498024555891071 0 0 0 -1 I I #
point $-1 93.644452424551247 -51.498024555891071 -14.099837565255324 #
edge $-1 $381 -3.5167620615119546 $385 3.5167620615119546 $430 $453 forward 7 unknown #
point $-1 93.644452424551247 -51.498024555891071 14.099837565255324 #
point $-1 93.644452424551247 -44.464500432867162 14.099837565255324 #
point $-1 93.644452424551247 -44.464500432867162 -14.099837565255324 #
straight-curve $-1 64.41212889201725 51.498024555891071 89.075748708773602 0 0 -1 I I #
point $-1 64.41212889201725 51.498024555891071 14.099837565255324 #
straight-curve $-1 24.242270471162442 51.498024555891071 5.6879596105289636 -1 0 0 I I #
point $-1 64.41212889201725 51.498024555891071 5.6879596105289636 #
point $-1 48.484540942324898 43.121620008892094 6.2279695113298903 #
straight-curve $-1 -64.41212889201725 -51.498024555891071 58.90427964985178 0 0 -1 I I #
point $-1 -64.41212889201725 -51.498024555891071 14.099837565255324 #
straight-curve $-1 -27.346798659863353 -51.498024555891071 6.0456801363296213 1 0 0 I I #
point $-1 -64.41212889201725 -51.498024555891071 6.0456801363296151 #
point $-1 -54.693597319726706 -42.691441808338929 5.2932548351632942 #
straight-curve $-1 -79.028290658284249 51.498024555891071 0 0 0 -1 I I #
straight-curve $-1 -93.644452424551247 -51.498024555891071 0 0 0 -1 I I #
point $-1 -93.644452424551247 -51.498024555891071 -14.099837565255324 #
straight-curve $-1 93.644452424551247 -47.981262494379116 -14.099837565255324 0 -1 0 I I #
straight-curve $-1 93.644452424551247 -47.981262494379116 14.099837565255324 0 1 0 I I #
End-of-ACIS-data 