500 0 8 0           
7 Unknown 11 ACIS 5.0 NT 24 Thu Mar 25 17:00:49 1999 
-1 9.9999999999999995e-007 1e-010 
body $-1 $8 $-1 $9 #
body $-1 $10 $-1 $11 #
body $-1 $12 $-1 $13 #
body $-1 $14 $-1 $15 #
body $-1 $16 $-1 $17 #
body $-1 $18 $-1 $19 #
body $-1 $20 $-1 $21 #
body $-1 $22 $-1 $23 #
lump $-1 $-1 $24 $0 #
transform $-1 1 0 0 0 1 0 0 0 1 52.367320780053106 25.714117287356803 6.6592085044503202 1 rotate no_reflect no_shear #
lump $-1 $-1 $25 $1 #
transform $-1 1 0 0 0 1 0 0 0 1 52.367320780053106 25.714117287356803 6.6592085044503202 1 rotate no_reflect no_shear #
lump $-1 $-1 $26 $2 #
transform $-1 1 0 0 0 1 0 0 0 1 52.367320780053106 25.714117287356803 6.6592085044503202 1 rotate no_reflect no_shear #
lump $-1 $-1 $27 $3 #
transform $-1 1 0 0 0 1 0 0 0 1 52.367320780053106 25.714117287356803 6.6592085044503202 1 rotate no_reflect no_shear #
lump $-1 $-1 $28 $4 #
transform $-1 1 0 0 0 1 0 0 0 1 52.367320780053106 25.714117287356803 6.6592085044503202 1 rotate no_reflect no_shear #
lump $-1 $-1 $29 $5 #
transform $-1 1 0 0 0 1 0 0 0 1 52.367320780053106 25.714117287356803 6.6592085044503202 1 rotate no_reflect no_shear #
lump $-1 $-1 $30 $6 #
transform $-1 1 0 0 0 1 0 0 0 1 52.367320780053106 25.714117287356803 6.6592085044503202 1 rotate no_reflect no_shear #
lump $-1 $-1 $31 $7 #
transform $-1 1 0 0 0 1 0 0 0 1 52.367320780053106 25.714117287356803 6.6592085044503202 1 rotate no_reflect no_shear #
shell $-1 $-1 $-1 $32 $-1 $8 #
shell $-1 $-1 $-1 $33 $-1 $10 #
shell $-1 $-1 $-1 $34 $-1 $12 #
shell $-1 $-1 $-1 $35 $-1 $14 #
shell $-1 $-1 $-1 $36 $-1 $16 #
shell $-1 $-1 $-1 $37 $-1 $18 #
shell $-1 $-1 $-1 $38 $-1 $20 #
shell $-1 $-1 $-1 $39 $-1 $22 #
face $-1 $40 $41 $24 $-1 $42 forward single #
face $-1 $43 $44 $25 $-1 $45 reversed single #
face $-1 $46 $47 $26 $-1 $48 forward single #
face $-1 $49 $50 $27 $-1 $51 forward single #
face $-1 $52 $53 $28 $-1 $54 forward single #
face $-1 $55 $56 $29 $-1 $57 reversed single #
face $-1 $58 $59 $30 $-1 $60 forward single #
face $-1 $61 $62 $31 $-1 $63 forward single #
face $-1 $64 $65 $24 $-1 $66 reversed single #
loop $-1 $-1 $67 $32 #
plane-surface $-1 0 0 6.6592085044503202 0 0 1 1 0 0 forward_v I I I I #
face $-1 $68 $69 $25 $-1 $70 reversed single #
loop $-1 $-1 $71 $33 #
plane-surface $-1 26.647048823100448 -9.1605539564536365 148.49001938432352 0 -1 0 -0.57357644374324357 0 -0.81915203911291934 forward_v I I I I #
face $-1 $72 $73 $26 $-1 $74 forward single #
loop $-1 $75 $76 $34 #
cone-surface $-1 49.198453128262258 -17.020987040989791 4.2315787035850798 -0.57357644374324357 0 -0.81915203911291934 0.40957601955645967 0 -0.28678822187162178 1 I I 0 1 0.5 forward I I I I #
face $-1 $77 $78 $27 $-1 $79 forward single #
loop $-1 $80 $81 $35 #
cone-surface $-1 49.198453128262258 -14.073324634288733 4.2315787035850798 -0.57357644374324357 0 -0.81915203911291934 0.40957601955645967 0 -0.28678822187162178 1 I I 0 1 0.5 forward I I I I #
face $-1 $82 $83 $28 $-1 $84 forward single #
loop $-1 $85 $86 $36 #
cone-surface $-1 49.198453128262258 -11.125662227587675 4.2315787035850798 -0.57357644374324357 0 -0.81915203911291934 0.40957601955645967 0 -0.28678822187162178 1 I I 0 1 0.5 forward I I I I #
face $-1 $87 $88 $29 $-1 $89 reversed single #
loop $-1 $-1 $90 $37 #
plane-surface $-1 -109.40989563936589 17.741927708435142 89.242044548764156 0 1 0 -0.54463904215088732 0 0.83867056331134215 forward_v I I I I #
face $-1 $91 $92 $30 $-1 $93 forward single #
loop $-1 $94 $95 $38 #
cone-surface $-1 -47.945746316790199 20.019696159555611 3.4533840354552456 0.54463904215088732 0 -0.83867056331134215 0.41933528165567108 0 0.27231952107544366 1 I I 0 1 0.5 forward I I I I #
face $-1 $96 $97 $31 $-1 $98 forward single #
loop $-1 $99 $100 $39 #
cone-surface $-1 -47.945746316790199 23.436348836236323 3.4533840354552456 0.54463904215088732 0 -0.83867056331134215 0.41933528165567108 0 0.27231952107544366 1 I I 0 1 0.5 forward I I I I #
face $-1 $101 $102 $24 $-1 $103 reversed single #
loop $-1 $-1 $104 $40 #
plane-surface $-1 0 0 -6.6592085044503202 0 0 1 1 0 0 forward_v I I I I #
coedge $-1 $105 $106 $107 $108 forward $41 $-1 #
face $-1 $109 $110 $25 $-1 $111 reversed single #
loop $-1 $-1 $112 $43 #
plane-surface $-1 -33.426274419668594 -14.073324634288733 62.69642418460181 0.57357644374324357 0 0.81915203911291934 0.81915203911291934 0 -0.57357644374324357 forward_v I I I I #
coedge $-1 $113 $114 $115 $116 reversed $44 $-1 #
face $-1 $-1 $117 $26 $-1 $118 forward single #
loop $-1 $119 $120 $46 #
cone-surface $-1 48.768270795454825 -17.020987040989791 3.6172146742503903 -0.57357644374324357 0 -0.81915203911291934 0.20478800977822983 0 -0.14339411093581089 1 I I -0.70710678118654746 0.70710678118654746 0.25 forward I I I I #
loop $-1 $-1 $121 $34 #
coedge $-1 $76 $76 $122 $123 reversed $47 $-1 #
face $-1 $-1 $124 $27 $-1 $125 forward single #
loop $-1 $126 $127 $49 #
cone-surface $-1 48.768270795454825 -14.073324634288733 3.6172146742503903 -0.57357644374324357 0 -0.81915203911291934 0.20478800977822983 0 -0.14339411093581089 1 I I -0.70710678118654746 0.70710678118654746 0.25 forward I I I I #
loop $-1 $-1 $128 $35 #
coedge $-1 $81 $81 $129 $130 reversed $50 $-1 #
face $-1 $-1 $131 $28 $-1 $132 forward single #
loop $-1 $133 $134 $52 #
cone-surface $-1 48.768270795454825 -11.125662227587675 3.6172146742503903 -0.57357644374324357 0 -0.81915203911291934 0.20478800977822983 0 -0.14339411093581089 1 I I -0.70710678118654746 0.70710678118654746 0.25 forward I I I I #
loop $-1 $-1 $135 $36 #
coedge $-1 $86 $86 $136 $137 reversed $53 $-1 #
face $-1 $138 $139 $29 $-1 $140 forward single #
loop $-1 $-1 $141 $55 #
plane-surface $-1 -52.36732078005312 21.728022497895974 1.4041837133383694 -0.54463904215088732 0 0.83867056331134215 0.83867056331134215 0 0.54463904215088732 forward_v I I I I #
coedge $-1 $142 $143 $144 $145 reversed $56 $-1 #
face $-1 $-1 $146 $30 $-1 $147 forward single #
loop $-1 $148 $149 $58 #
cone-surface $-1 -47.434026297527581 20.019696159555611 2.6654043211883112 0.54463904215088732 0 -0.83867056331134215 0.20966764082783554 0 0.13615976053772183 1 I I -0.70710678118654746 0.70710678118654746 0.25 forward I I I I #
loop $-1 $-1 $150 $38 #
coedge $-1 $95 $95 $151 $152 reversed $59 $-1 #
face $-1 $-1 $153 $31 $-1 $154 forward single #
loop $-1 $155 $156 $61 #
cone-surface $-1 -47.434026297527581 23.436348836236323 2.6654043211883112 0.54463904215088732 0 -0.83867056331134215 0.20966764082783554 0 0.13615976053772183 1 I I -0.70710678118654746 0.70710678118654746 0.25 forward I I I I #
loop $-1 $-1 $157 $39 #
coedge $-1 $100 $100 $158 $159 reversed $62 $-1 #
face $-1 $160 $161 $24 $-1 $162 reversed single #
loop $-1 $-1 $163 $64 #
plane-surface $-1 0 -25.714117287356803 0 0 1 0 0 0 1 forward_v I I I I #
coedge $-1 $164 $165 $166 $167 forward $65 $-1 #
coedge $-1 $168 $67 $169 $170 forward $41 $-1 #
coedge $-1 $67 $168 $171 $172 forward $41 $-1 #
coedge $-1 $173 $174 $67 $108 reversed $175 $-1 #
edge $-1 $176 -25.714117287356803 $177 25.714117287356803 $107 $178 forward 7 unknown #
face $-1 $179 $180 $25 $-1 $181 forward single #
loop $-1 $-1 $182 $68 #
plane-surface $-1 26.647048823100448 -18.98609531212383 148.49001938432352 0 1 0 0.57357644374324357 0 0.81915203911291934 forward_v I I I I #
coedge $-1 $183 $184 $185 $186 reversed $69 $-1 #
coedge $-1 $114 $71 $187 $188 reversed $44 $-1 #
coedge $-1 $71 $113 $183 $189 reversed $44 $-1 #
coedge $-1 $185 $190 $71 $116 forward $180 $-1 #
edge $-1 $191 -39.043796368502882 $192 -33.279637508664443 $115 $193 forward 7 unknown #
loop $-1 $-1 $122 $72 #
plane-surface $-1 -33.426274419668594 -14.073324634288733 62.69642418460181 0.57357644374324357 0 0.81915203911291934 0.81915203911291934 0 -0.57357644374324357 forward_v I I I I #
loop $-1 $-1 $194 $46 #
coedge $-1 $120 $120 $121 $195 reversed $73 $-1 #
coedge $-1 $121 $121 $120 $195 forward $75 $-1 #
coedge $-1 $122 $122 $76 $123 forward $117 $-1 #
edge $-1 $196 0 $196 6.2831853071796004 $122 $197 forward 7 unknown #
loop $-1 $-1 $129 $77 #
plane-surface $-1 -33.426274419668594 -14.073324634288733 62.69642418460181 0.57357644374324357 0 0.81915203911291934 0.81915203911291934 0 -0.57357644374324357 forward_v I I I I #
loop $-1 $-1 $198 $49 #
coedge $-1 $127 $127 $128 $199 reversed $78 $-1 #
coedge $-1 $128 $128 $127 $199 forward $80 $-1 #
coedge $-1 $129 $129 $81 $130 forward $124 $-1 #
edge $-1 $200 0 $200 6.2831853071796004 $129 $201 forward 7 unknown #
loop $-1 $-1 $136 $82 #
plane-surface $-1 -33.426274419668594 -14.073324634288733 62.69642418460181 0.57357644374324357 0 0.81915203911291934 0.81915203911291934 0 -0.57357644374324357 forward_v I I I I #
loop $-1 $-1 $202 $52 #
coedge $-1 $134 $134 $135 $203 reversed $83 $-1 #
coedge $-1 $135 $135 $134 $203 forward $85 $-1 #
coedge $-1 $136 $136 $86 $137 forward $131 $-1 #
edge $-1 $204 0 $204 6.2831853071796004 $136 $205 forward 7 unknown #
face $-1 $206 $207 $29 $-1 $208 reversed single #
loop $-1 $-1 $144 $87 #
plane-surface $-1 0 0 6.6592085044503202 0 0 1 1 0 0 forward_v I I I I #
coedge $-1 $209 $210 $211 $212 reversed $88 $-1 #
coedge $-1 $143 $90 $213 $214 reversed $56 $-1 #
coedge $-1 $90 $142 $209 $215 reversed $56 $-1 #
coedge $-1 $211 $216 $90 $145 forward $139 $-1 #
edge $-1 $217 2.3376270396298366 $218 10.429655448705837 $144 $219 forward 7 unknown #
loop $-1 $-1 $151 $91 #
plane-surface $-1 -52.36732078005312 21.728022497895974 1.4041837133383694 -0.54463904215088732 0 0.83867056331134215 0.83867056331134215 0 0.54463904215088732 forward_v I I I I #
loop $-1 $-1 $220 $58 #
coedge $-1 $149 $149 $150 $221 reversed $92 $-1 #
coedge $-1 $150 $150 $149 $221 forward $94 $-1 #
coedge $-1 $151 $151 $95 $152 forward $146 $-1 #
edge $-1 $222 0 $222 6.2831853071796004 $151 $223 forward 7 unknown #
loop $-1 $-1 $158 $96 #
plane-surface $-1 -52.36732078005312 21.728022497895974 1.4041837133383694 -0.54463904215088732 0 0.83867056331134215 0.83867056331134215 0 0.54463904215088732 forward_v I I I I #
loop $-1 $-1 $224 $61 #
coedge $-1 $156 $156 $157 $225 reversed $97 $-1 #
coedge $-1 $157 $157 $156 $225 forward $99 $-1 #
coedge $-1 $158 $158 $100 $159 forward $153 $-1 #
edge $-1 $226 0 $226 6.2831853071796004 $158 $227 forward 7 unknown #
face $-1 $228 $229 $24 $-1 $230 reversed single #
loop $-1 $-1 $231 $101 #
plane-surface $-1 -52.367320780053106 0 0 1 0 0 0 0 -1 forward_v I I I I #
coedge $-1 $232 $171 $233 $234 forward $102 $-1 #
coedge $-1 $235 $104 $232 $236 forward $65 $-1 #
coedge $-1 $104 $235 $237 $238 forward $65 $-1 #
coedge $-1 $174 $173 $104 $167 reversed $175 $-1 #
edge $-1 $239 -25.714117287356803 $240 25.714117287356803 $166 $241 forward 7 unknown #
coedge $-1 $106 $105 $242 $243 forward $41 $-1 #
coedge $-1 $244 $245 $105 $170 reversed $229 $-1 #
edge $-1 $177 -52.367320780053106 $246 52.367320780053106 $169 $247 forward 7 unknown #
coedge $-1 $163 $248 $106 $172 reversed $102 $-1 #
edge $-1 $249 -52.367320780053106 $176 52.367320780053106 $171 $250 forward 7 unknown #
coedge $-1 $166 $107 $248 $251 forward $175 $-1 #
coedge $-1 $107 $166 $244 $252 reversed $175 $-1 #
loop $-1 $-1 $173 $228 #
vertex $-1 $108 $253 #
vertex $-1 $108 $254 #
straight-curve $-1 52.367320780053106 0 6.6592085044503202 0 1 0 I I #
face $-1 $-1 $255 $25 $-1 $256 reversed single #
loop $-1 $-1 $115 $109 #
plane-surface $-1 0 0 6.6592085044503202 0 0 1 1 0 0 forward_v I I I I #
coedge $-1 $257 $258 $259 $260 reversed $110 $-1 #
coedge $-1 $261 $112 $114 $189 forward $69 $-1 #
coedge $-1 $112 $261 $257 $262 forward $69 $-1 #
coedge $-1 $259 $115 $112 $186 forward $180 $-1 #
edge $-1 $192 2.1238916393092699 $263 11.949432994979464 $185 $264 forward 7 unknown #
coedge $-1 $265 $266 $113 $188 forward $255 $-1 #
edge $-1 $267 -71.62190875032897 $191 -67.585801187711439 $187 $268 forward 7 unknown #
edge $-1 $192 97.697902853967349 $267 104.73464156010618 $114 $269 forward 7 unknown #
coedge $-1 $115 $259 $265 $270 forward $180 $-1 #
vertex $-1 $188 $271 #
vertex $-1 $116 $272 #
straight-curve $-1 13.323524411550224 -9.1605539564536365 6.6592085044503193 -1 0 0 I I #
coedge $-1 $194 $194 $-1 $273 reversed $119 $-1 #
edge $-1 $274 0 $274 6.2831853071796004 $120 $275 forward 7 unknown #
vertex $-1 $123 $276 #
ellipse-curve $-1 49.485241350133883 -17.020987040989791 4.6411547231415451 0.57357644374324357 0 0.81915203911291934 0.40957601955645967 0 -0.28678822187162178 1 I I #
coedge $-1 $198 $198 $-1 $277 reversed $126 $-1 #
edge $-1 $278 0 $278 6.2831853071796004 $127 $279 forward 7 unknown #
vertex $-1 $130 $280 #
ellipse-curve $-1 49.485241350133883 -14.073324634288733 4.6411547231415451 0.57357644374324357 0 0.81915203911291934 0.40957601955645967 0 -0.28678822187162178 1 I I #
coedge $-1 $202 $202 $-1 $281 reversed $133 $-1 #
edge $-1 $282 0 $282 6.2831853071796004 $134 $283 forward 7 unknown #
vertex $-1 $137 $284 #
ellipse-curve $-1 49.485241350133883 -11.125662227587675 4.6411547231415451 0.57357644374324357 0 0.81915203911291934 0.40957601955645967 0 -0.28678822187162178 1 I I #
face $-1 $-1 $285 $29 $-1 $286 reversed single #
loop $-1 $-1 $287 $138 #
plane-surface $-1 0 25.714117287356803 0 0 -1 0 0 0 -1 forward_v I I I I #
coedge $-1 $288 $141 $143 $215 forward $88 $-1 #
coedge $-1 $141 $288 $287 $289 reversed $88 $-1 #
coedge $-1 $290 $144 $141 $212 forward $139 $-1 #
edge $-1 $218 6.8779164594871549 $291 14.850106038408819 $211 $292 forward 7 unknown #
coedge $-1 $293 $294 $142 $214 forward $285 $-1 #
edge $-1 $295 -43.216838561043701 $217 -37.961813769931759 $213 $296 forward 7 unknown #
edge $-1 $218 -9.6486376928815449 $295 -1.699746028866204e-014 $143 $297 forward 7 unknown #
coedge $-1 $144 $290 $293 $298 forward $139 $-1 #
vertex $-1 $214 $299 #
vertex $-1 $145 $300 #
straight-curve $-1 -54.704947819682943 17.741927708435142 6.6592085044503193 1 0 0 I I #
coedge $-1 $220 $220 $-1 $301 reversed $148 $-1 #
edge $-1 $302 0 $302 6.2831853071796004 $149 $303 forward 7 unknown #
vertex $-1 $152 $304 #
ellipse-curve $-1 -48.321306575515102 20.019696159555611 4.0316961088943515 -0.54463904215088732 0 0.83867056331134215 0.41933528165567108 0 0.27231952107544366 1 I I #
coedge $-1 $224 $224 $-1 $305 reversed $155 $-1 #
edge $-1 $306 0 $306 6.2831853071796004 $156 $307 forward 7 unknown #
vertex $-1 $159 $308 #
ellipse-curve $-1 -48.321306575515102 23.436348836236323 4.0316961088943515 -0.54463904215088732 0 0.83867056331134215 0.41933528165567108 0 0.27231952107544366 1 I I #
face $-1 $-1 $175 $24 $-1 $309 reversed single #
loop $-1 $-1 $244 $160 #
plane-surface $-1 0 25.714117287356803 0 0 -1 0 0 0 -1 forward_v I I I I #
coedge $-1 $310 $242 $245 $311 forward $161 $-1 #
coedge $-1 $248 $163 $164 $236 reversed $102 $-1 #
coedge $-1 $242 $310 $163 $234 reversed $161 $-1 #
edge $-1 $249 -6.6592085044503202 $312 6.6592085044503202 $233 $313 forward 7 unknown #
coedge $-1 $165 $164 $310 $314 forward $65 $-1 #
edge $-1 $240 -52.367320780053106 $312 52.367320780053106 $232 $315 forward 7 unknown #
coedge $-1 $245 $244 $165 $238 reversed $229 $-1 #
edge $-1 $316 -52.367320780053106 $239 52.367320780053106 $237 $317 forward 7 unknown #
vertex $-1 $167 $318 #
vertex $-1 $251 $319 #
straight-curve $-1 52.367320780053106 0 -6.6592085044503202 0 -1 0 I I #
coedge $-1 $231 $233 $168 $243 reversed $161 $-1 #
edge $-1 $246 -25.714117287356803 $249 25.714117287356803 $242 $320 forward 7 unknown #
coedge $-1 $237 $169 $174 $252 forward $229 $-1 #
coedge $-1 $169 $237 $231 $311 reversed $229 $-1 #
vertex $-1 $170 $321 #
straight-curve $-1 0 25.714117287356803 6.6592085044503202 -1 0 0 I I #
coedge $-1 $171 $232 $173 $251 reversed $102 $-1 #
vertex $-1 $243 $322 #
straight-curve $-1 0 -25.714117287356803 6.6592085044503202 1 0 0 I I #
edge $-1 $176 -6.6592085044503202 $240 6.6592085044503202 $173 $323 forward 7 unknown #
edge $-1 $177 -6.6592085044503202 $239 6.6592085044503202 $174 $324 forward 7 unknown #
point $-1 52.367320780053106 -25.714117287356803 6.6592085044503202 #
point $-1 52.367320780053106 25.714117287356803 6.6592085044503202 #
loop $-1 $-1 $187 $179 #
plane-surface $-1 52.367320780053106 0 0 -1 0 0 0 0 1 forward_v I I I I #
coedge $-1 $258 $182 $184 $262 reversed $110 $-1 #
coedge $-1 $182 $257 $325 $326 reversed $110 $-1 #
coedge $-1 $190 $185 $182 $260 forward $180 $-1 #
edge $-1 $263 33.279637508664443 $327 39.043796368502882 $259 $328 forward 7 unknown #
coedge $-1 $184 $183 $266 $329 reversed $69 $-1 #
edge $-1 $330 -104.73464156010618 $263 -97.697902853967349 $257 $331 forward 7 unknown #
vertex $-1 $186 $332 #
straight-curve $-1 46.603161920214674 -7.0366623171443665 6.6592085044503193 0 -1 0 I I #
coedge $-1 $325 $187 $190 $270 reversed $255 $-1 #
coedge $-1 $187 $325 $261 $329 forward $255 $-1 #
vertex $-1 $188 $333 #
straight-curve $-1 52.367320780053106 -9.1605539564536365 74.245009692161759 0 0 1 I I #
straight-curve $-1 -33.426274419668594 -9.1605539564536365 62.69642418460181 0.81915203911291934 0 -0.57357644374324357 I I #
edge $-1 $327 -18.98609531212383 $191 -9.1605539564536365 $265 $334 forward 7 unknown #
point $-1 52.367320780053106 -9.1605539564536365 6.6592085044503202 #
point $-1 46.603161920214667 -9.1605539564536365 6.6592085044503264 #
edge $-1 $335 1 $335 0 $194 $-1 forward 7 unknown #
vertex $-1 $195 $336 #
ellipse-curve $-1 48.911664906390634 -17.020987040989791 3.8220026840286203 0.57357644374324357 0 0.81915203911291934 0.40957601955645967 0 -0.28678822187162178 1 I I #
point $-1 49.894817369690337 -17.020987040989791 4.3543665012699178 #
edge $-1 $337 1 $337 0 $198 $-1 forward 7 unknown #
vertex $-1 $199 $338 #
ellipse-curve $-1 48.911664906390634 -14.073324634288733 3.8220026840286203 0.57357644374324357 0 0.81915203911291934 0.40957601955645967 0 -0.28678822187162178 1 I I #
point $-1 49.894817369690337 -14.073324634288733 4.3543665012699178 #
edge $-1 $339 1 $339 0 $202 $-1 forward 7 unknown #
vertex $-1 $203 $340 #
ellipse-curve $-1 48.911664906390634 -11.125662227587675 3.8220026840286203 0.57357644374324357 0 0.81915203911291934 0.40957601955645967 0 -0.28678822187162178 1 I I #
point $-1 49.894817369690337 -11.125662227587675 4.3543665012699178 #
loop $-1 $-1 $213 $206 #
plane-surface $-1 -52.367320780053106 0 0 1 0 0 0 0 -1 forward_v I I I I #
coedge $-1 $341 $342 $210 $289 forward $207 $-1 #
coedge $-1 $210 $209 $294 $343 reversed $88 $-1 #
edge $-1 $291 11.928440879656661 $344 21.577078572538191 $287 $345 forward 7 unknown #
coedge $-1 $216 $211 $342 $346 forward $139 $-1 #
vertex $-1 $346 $347 #
straight-curve $-1 -44.275292370977112 10.864011248947987 6.6592085044503184 0 1 0 I I #
coedge $-1 $348 $213 $216 $298 reversed $285 $-1 #
coedge $-1 $213 $348 $288 $343 forward $285 $-1 #
vertex $-1 $214 $349 #
straight-curve $-1 -52.367320780053106 17.741927708435142 44.621022274382078 0 0 1 I I #
straight-curve $-1 -52.36732078005312 17.741927708435142 1.4041837133383694 -0.83867056331134215 0 -0.54463904215088732 I I #
edge $-1 $350 -25.714117287356803 $217 -17.741927708435142 $293 $351 forward 7 unknown #
point $-1 -52.367320780053106 17.741927708435142 6.6592085044503202 #
point $-1 -44.275292370977105 17.741927708435142 6.6592085044503202 #
edge $-1 $352 1 $352 0 $220 $-1 forward 7 unknown #
vertex $-1 $221 $353 #
ellipse-curve $-1 -47.570186058065303 20.019696159555611 2.8750719620161469 -0.54463904215088732 0 0.83867056331134215 0.41933528165567108 0 0.27231952107544366 1 I I #
point $-1 -47.901971293859432 20.019696159555611 4.304015629969788 #
edge $-1 $354 1 $354 0 $224 $-1 forward 7 unknown #
vertex $-1 $225 $355 #
ellipse-curve $-1 -47.570186058065303 23.436348836236323 2.8750719620161469 -0.54463904215088732 0 0.83867056331134215 0.41933528165567108 0 0.27231952107544366 1 I I #
point $-1 -47.901971293859432 23.436348836236323 4.304015629969788 #
plane-surface $-1 52.367320780053106 0 0 -1 0 0 0 0 1 forward_v I I I I #
coedge $-1 $233 $231 $235 $314 reversed $161 $-1 #
edge $-1 $246 -6.6592085044503202 $316 6.6592085044503202 $245 $356 forward 7 unknown #
vertex $-1 $314 $357 #
straight-curve $-1 -52.367320780053106 -25.714117287356803 0 0 0 -1 I I #
edge $-1 $312 -25.714117287356803 $316 25.714117287356803 $310 $358 forward 7 unknown #
straight-curve $-1 0 -25.714117287356803 -6.6592085044503202 -1 0 0 I I #
vertex $-1 $238 $359 #
straight-curve $-1 0 25.714117287356803 -6.6592085044503202 1 0 0 I I #
point $-1 52.367320780053106 25.714117287356803 -6.6592085044503202 #
point $-1 52.367320780053106 -25.714117287356803 -6.6592085044503202 #
straight-curve $-1 -52.367320780053106 0 6.6592085044503202 0 -1 0 I I #
point $-1 -52.367320780053106 25.714117287356803 6.6592085044503202 #
point $-1 -52.367320780053106 -25.714117287356803 6.6592085044503202 #
straight-curve $-1 52.367320780053106 -25.714117287356803 0 0 0 -1 I I #
straight-curve $-1 52.367320780053106 25.714117287356803 0 0 0 -1 I I #
coedge $-1 $266 $265 $258 $326 forward $255 $-1 #
edge $-1 $327 67.585801187711439 $330 71.62190875032897 $325 $360 forward 7 unknown #
vertex $-1 $270 $361 #
straight-curve $-1 13.323524411550224 -18.98609531212383 6.6592085044503193 1 0 0 I I #
edge $-1 $330 -11.949432994979464 $267 -2.1238916393092699 $266 $362 forward 7 unknown #
vertex $-1 $329 $363 #
straight-curve $-1 -33.426274419668594 -18.98609531212383 62.69642418460181 -0.81915203911291934 0 0.57357644374324357 I I #
point $-1 46.603161920214667 -18.98609531212383 6.6592085044503264 #
point $-1 52.367320780053099 -9.1605539564536365 2.6231009418327886 #
straight-curve $-1 52.367320780053106 0 6.6592085044503202 0 1 0 I I #
vertex $-1 $273 $364 #
point $-1 49.321240925947095 -17.020987040989791 3.5352144621569983 #
vertex $-1 $277 $365 #
point $-1 49.321240925947095 -14.073324634288733 3.5352144621569983 #
vertex $-1 $281 $366 #
point $-1 49.321240925947095 -11.125662227587675 3.5352144621569983 #
coedge $-1 $342 $287 $348 $367 reversed $207 $-1 #
coedge $-1 $287 $341 $290 $346 reversed $207 $-1 #
edge $-1 $344 -14.850106038408819 $295 -6.8779164594871549 $294 $368 forward 7 unknown #
vertex $-1 $289 $369 #
straight-curve $-1 -34.271260139009414 25.714117287356803 13.155903119500016 -0.83867056331134215 0 -0.54463904215088732 I I #
edge $-1 $291 44.275292370977105 $350 52.367320780053106 $342 $370 forward 7 unknown #
point $-1 -44.275292370977105 25.714117287356807 6.6592085044503202 #
coedge $-1 $294 $293 $341 $367 forward $285 $-1 #
point $-1 -52.367320780053106 17.741927708435142 1.4041837133383788 #
vertex $-1 $346 $371 #
straight-curve $-1 -52.367320780053106 0 6.6592085044503202 0 -1 0 I I #
vertex $-1 $301 $372 #
point $-1 -47.150850776409634 20.019696159555611 3.1473914830915906 #
vertex $-1 $305 $373 #
point $-1 -47.150850776409634 23.436348836236323 3.1473914830915906 #
straight-curve $-1 -52.367320780053106 25.714117287356803 0 0 0 -1 I I #
point $-1 -52.367320780053106 -25.714117287356803 -6.6592085044503202 #
straight-curve $-1 -52.367320780053106 0 -6.6592085044503202 0 1 0 I I #
point $-1 -52.367320780053106 25.714117287356803 -6.6592085044503202 #
straight-curve $-1 52.367320780053106 -18.98609531212383 74.245009692161759 0 0 -1 I I #
point $-1 52.367320780053106 -18.98609531212383 6.6592085044503202 #
straight-curve $-1 52.367320780053113 -7.0366623171443665 2.623100941832778 0 1 0 I I #
point $-1 52.367320780053099 -18.98609531212383 2.6231009418327886 #
point $-1 48.624876684519016 -17.020987040989791 3.4124266644721604 #
point $-1 48.624876684519016 -14.073324634288733 3.4124266644721604 #
point $-1 48.624876684519016 -11.125662227587675 3.4124266644721604 #
edge $-1 $350 -6.6592085044503202 $344 -1.4041837133383788 $341 $374 forward 7 unknown #
straight-curve $-1 -52.367320780053106 10.864011248947987 1.4041837133383763 0 -1 0 I I #
point $-1 -52.367320780053106 25.714117287356807 1.4041837133383788 #
straight-curve $-1 0 25.714117287356803 6.6592085044503202 -1 0 0 I I #
point $-1 -52.367320780053106 25.714117287356803 6.6592085044503202 #
point $-1 -47.297866536989858 20.019696159555611 2.4557366803604754 #
point $-1 -47.297866536989858 23.436348836236323 2.4557366803604754 #
straight-curve $-1 -52.367320780053106 25.714117287356803 0 0 0 -1 I I #
End-of-ACIS-data 