500 0 13 0           
7 Unknown 11 ACIS 5.0 NT 24 Thu Mar 25 20:07:50 1999 
-1 9.9999999999999995e-007 1e-010 
body $-1 $13 $-1 $14 #
body $-1 $15 $-1 $16 #
body $-1 $17 $-1 $18 #
body $-1 $19 $-1 $20 #
body $-1 $21 $-1 $22 #
body $-1 $23 $-1 $24 #
body $-1 $25 $-1 $26 #
body $-1 $27 $-1 $28 #
body $-1 $29 $-1 $30 #
body $-1 $31 $-1 $32 #
body $-1 $33 $-1 $34 #
body $-1 $35 $-1 $36 #
body $-1 $37 $-1 $38 #
lump $-1 $-1 $39 $0 #
transform $-1 1 0 0 0 1 0 0 0 1 68.737449262978004 33.466685897913131 14.324072482798929 1 rotate no_reflect no_shear #
lump $-1 $-1 $40 $1 #
transform $-1 1 0 0 0 1 0 0 0 1 68.737449262978004 33.466685897913131 14.324072482798929 1 rotate no_reflect no_shear #
lump $-1 $-1 $41 $2 #
transform $-1 1 0 0 0 1 0 0 0 1 68.737449262978004 33.466685897913131 14.324072482798929 1 rotate no_reflect no_shear #
lump $-1 $-1 $42 $3 #
transform $-1 1 0 0 0 1 0 0 0 1 68.737449262978004 33.466685897913131 14.324072482798929 1 rotate no_reflect no_shear #
lump $-1 $-1 $43 $4 #
transform $-1 1 0 0 0 1 0 0 0 1 68.737449262978004 33.466685897913131 14.324072482798929 1 rotate no_reflect no_shear #
lump $-1 $-1 $44 $5 #
transform $-1 1 0 0 0 1 0 0 0 1 68.737449262978004 33.466685897913131 14.324072482798929 1 rotate no_reflect no_shear #
lump $-1 $-1 $45 $6 #
transform $-1 1 0 0 0 1 0 0 0 1 68.737449262978004 33.466685897913131 14.324072482798929 1 rotate no_reflect no_shear #
lump $-1 $-1 $46 $7 #
transform $-1 1 0 0 0 1 0 0 0 1 68.737449262978004 33.466685897913131 14.324072482798929 1 rotate no_reflect no_shear #
lump $-1 $-1 $47 $8 #
transform $-1 1 0 0 0 1 0 0 0 1 68.737449262978004 33.466685897913131 14.324072482798929 1 rotate no_reflect no_shear #
lump $-1 $-1 $48 $9 #
transform $-1 1 0 0 0 1 0 0 0 1 68.737449262978004 33.466685897913131 14.324072482798929 1 rotate no_reflect no_shear #
lump $-1 $-1 $49 $10 #
transform $-1 1 0 0 0 1 0 0 0 1 68.737449262978004 33.466685897913131 14.324072482798929 1 rotate no_reflect no_shear #
lump $-1 $-1 $50 $11 #
transform $-1 1 0 0 0 1 0 0 0 1 68.737449262978004 33.466685897913131 14.324072482798929 1 rotate no_reflect no_shear #
lump $-1 $-1 $51 $12 #
transform $-1 1 0 0 0 1 0 0 0 1 68.737449262978004 33.466685897913131 14.324072482798929 1 rotate no_reflect no_shear #
shell $-1 $-1 $-1 $52 $-1 $13 #
shell $-1 $-1 $-1 $53 $-1 $15 #
shell $-1 $-1 $-1 $54 $-1 $17 #
shell $-1 $-1 $-1 $55 $-1 $19 #
shell $-1 $-1 $-1 $56 $-1 $21 #
shell $-1 $-1 $-1 $57 $-1 $23 #
shell $-1 $-1 $-1 $58 $-1 $25 #
shell $-1 $-1 $-1 $59 $-1 $27 #
shell $-1 $-1 $-1 $60 $-1 $29 #
shell $-1 $-1 $-1 $61 $-1 $31 #
shell $-1 $-1 $-1 $62 $-1 $33 #
shell $-1 $-1 $-1 $63 $-1 $35 #
shell $-1 $-1 $-1 $64 $-1 $37 #
face $-1 $65 $66 $39 $-1 $67 forward single #
face $-1 $68 $69 $40 $-1 $70 reversed single #
face $-1 $71 $72 $41 $-1 $73 reversed single #
face $-1 $74 $75 $42 $-1 $76 forward single #
face $-1 $77 $78 $43 $-1 $79 forward single #
face $-1 $80 $81 $44 $-1 $82 forward single #
face $-1 $83 $84 $45 $-1 $85 reversed single #
face $-1 $86 $87 $46 $-1 $88 forward single #
face $-1 $89 $90 $47 $-1 $91 forward single #
face $-1 $92 $93 $48 $-1 $94 forward single #
face $-1 $95 $96 $49 $-1 $97 reversed single #
face $-1 $98 $99 $50 $-1 $100 forward single #
face $-1 $101 $102 $51 $-1 $103 forward single #
face $-1 $104 $105 $39 $-1 $106 reversed single #
loop $-1 $-1 $107 $52 #
plane-surface $-1 0 0 14.324072482798929 0 0 1 1 0 0 forward_v I I I I #
face $-1 $108 $109 $40 $-1 $110 reversed single #
loop $-1 $-1 $111 $53 #
plane-surface $-1 -43.6082690690112 -27.027817069668505 0 1 0 0 0 0 -1 forward_v I I I I #
face $-1 $112 $113 $41 $-1 $114 reversed single #
loop $-1 $-1 $115 $54 #
plane-surface $-1 28.315495728011967 6.4388688282446278 197.65452726330977 0 -1 0 -0.54463904215088732 0 -0.83867056331134215 forward_v I I I I #
face $-1 $116 $117 $42 $-1 $118 forward single #
loop $-1 $119 $120 $55 #
cone-surface $-1 63.097503343194738 -1.9197065130124891 10.328693413912669 -0.54463904215088732 0 -0.83867056331134215 0.41933528165567108 0 -0.27231952107544366 1 I I 0 1 0.5 forward I I I I #
face $-1 $121 $122 $43 $-1 $123 forward single #
loop $-1 $124 $125 $56 #
cone-surface $-1 63.097503343194738 1.21475923995893 10.328693413912669 -0.54463904215088732 0 -0.83867056331134215 0.41933528165567108 0 -0.27231952107544366 1 I I 0 1 0.5 forward I I I I #
face $-1 $126 $127 $44 $-1 $128 forward single #
loop $-1 $129 $130 $57 #
cone-surface $-1 63.097503343194738 4.3492249929303455 10.328693413912669 -0.54463904215088732 0 -0.83867056331134215 0.41933528165567108 0 -0.27231952107544366 1 I I 0 1 0.5 forward I I I I #
face $-1 $131 $132 $45 $-1 $133 reversed single #
loop $-1 $-1 $134 $58 #
plane-surface $-1 -46.558701324955138 1.21475923995893 82.358376675376647 0.54463904215088732 0 0.83867056331134215 0.83867056331134215 0 -0.54463904215088732 forward_v I I I I #
face $-1 $135 $136 $46 $-1 $137 forward single #
loop $-1 $138 $139 $59 #
cone-surface $-1 63.097503343194738 8.5285126635589066 10.328693413912669 -0.54463904215088732 0 -0.83867056331134215 0.41933528165567108 0 -0.27231952107544366 1 I I 0 1 0.5 forward I I I I #
face $-1 $140 $141 $47 $-1 $142 forward single #
loop $-1 $143 $144 $60 #
cone-surface $-1 63.097503343194738 11.662978416530322 10.328693413912669 -0.54463904215088732 0 -0.83867056331134215 0.41933528165567108 0 -0.27231952107544366 1 I I 0 1 0.5 forward I I I I #
face $-1 $145 $146 $48 $-1 $147 forward single #
loop $-1 $148 $149 $61 #
cone-surface $-1 63.097503343194738 14.797444169501738 10.328693413912669 -0.54463904215088732 0 -0.83867056331134215 0.41933528165567108 0 -0.27231952107544366 1 I I 0 1 0.5 forward I I I I #
face $-1 $150 $151 $49 $-1 $152 reversed single #
loop $-1 $-1 $153 $62 #
plane-surface $-1 -174.04933248633705 -20.588948241423878 90.139710726538084 0 1 0 -0.7660444514056185 0 0.64278759981090561 forward_v I I I I #
face $-1 $154 $155 $50 $-1 $156 forward single #
loop $-1 $157 $158 $63 #
cone-surface $-1 -61.747001561605749 -16.04050635649034 6.6013185544304385 0.7660444514056185 0 -0.64278759981090561 0.96418139971635841 0 1.1490666771084277 1 I I 0 1 1.5 forward I I I I #
face $-1 $159 $160 $51 $-1 $161 forward single #
loop $-1 $162 $163 $64 #
cone-surface $-1 -61.747001561605749 -9.2178435290900325 6.6013185544304385 0.7660444514056185 0 -0.64278759981090561 0.96418139971635841 0 1.1490666771084277 1 I I 0 1 1.5 forward I I I I #
face $-1 $164 $165 $39 $-1 $166 reversed single #
loop $-1 $-1 $167 $65 #
plane-surface $-1 0 0 -14.324072482798929 0 0 1 1 0 0 forward_v I I I I #
coedge $-1 $168 $169 $170 $171 forward $66 $-1 #
face $-1 $172 $173 $40 $-1 $174 reversed single #
loop $-1 $-1 $175 $68 #
plane-surface $-1 -41.848786683195669 -20.588948241423878 0 0 -1 0 0 0 -1 forward_v I I I I #
coedge $-1 $176 $177 $178 $179 forward $69 $-1 #
face $-1 $180 $181 $41 $-1 $182 reversed single #
loop $-1 $-1 $183 $71 #
plane-surface $-1 -46.558701324955138 1.21475923995893 82.358376675376647 0.54463904215088732 0 0.83867056331134215 0.83867056331134215 0 -0.54463904215088732 forward_v I I I I #
coedge $-1 $184 $185 $186 $187 reversed $72 $-1 #
face $-1 $-1 $188 $42 $-1 $189 forward single #
loop $-1 $190 $191 $74 #
cone-surface $-1 62.587653250756119 -1.9197065130124891 9.5435931343932729 -0.54463904215088732 0 -0.83867056331134215 0.20966764082783554 0 -0.13615976053772183 1 I I -0.70710678118654746 0.70710678118654746 0.25 forward I I I I #
loop $-1 $-1 $192 $55 #
coedge $-1 $120 $120 $193 $194 reversed $75 $-1 #
face $-1 $-1 $195 $43 $-1 $196 forward single #
loop $-1 $197 $198 $77 #
cone-surface $-1 62.587653250756119 1.21475923995893 9.5435931343932729 -0.54463904215088732 0 -0.83867056331134215 0.20966764082783554 0 -0.13615976053772183 1 I I -0.70710678118654746 0.70710678118654746 0.25 forward I I I I #
loop $-1 $-1 $199 $56 #
coedge $-1 $125 $125 $200 $201 reversed $78 $-1 #
face $-1 $-1 $202 $44 $-1 $203 forward single #
loop $-1 $204 $205 $80 #
cone-surface $-1 62.587653250756119 4.3492249929303455 9.5435931343932729 -0.54463904215088732 0 -0.83867056331134215 0.20966764082783554 0 -0.13615976053772183 1 I I -0.70710678118654746 0.70710678118654746 0.25 forward I I I I #
loop $-1 $-1 $206 $57 #
coedge $-1 $130 $130 $207 $208 reversed $81 $-1 #
face $-1 $209 $210 $45 $-1 $211 reversed single #
loop $-1 $-1 $212 $83 #
plane-surface $-1 28.315495728011967 16.887088004816022 197.65452726330977 0 -1 0 -0.54463904215088732 0 -0.83867056331134215 forward_v I I I I #
coedge $-1 $213 $214 $215 $216 reversed $84 $-1 #
face $-1 $-1 $217 $46 $-1 $218 forward single #
loop $-1 $219 $220 $86 #
cone-surface $-1 62.587653250756119 8.5285126635589066 9.5435931343932729 -0.54463904215088732 0 -0.83867056331134215 0.20966764082783554 0 -0.13615976053772183 1 I I -0.70710678118654746 0.70710678118654746 0.25 forward I I I I #
loop $-1 $-1 $221 $59 #
coedge $-1 $139 $139 $222 $223 reversed $87 $-1 #
face $-1 $-1 $224 $47 $-1 $225 forward single #
loop $-1 $226 $227 $89 #
cone-surface $-1 62.587653250756119 11.662978416530322 9.5435931343932729 -0.54463904215088732 0 -0.83867056331134215 0.20966764082783554 0 -0.13615976053772183 1 I I -0.70710678118654746 0.70710678118654746 0.25 forward I I I I #
loop $-1 $-1 $228 $60 #
coedge $-1 $144 $144 $229 $230 reversed $90 $-1 #
face $-1 $-1 $231 $48 $-1 $232 forward single #
loop $-1 $233 $234 $92 #
cone-surface $-1 62.587653250756119 14.797444169501738 9.5435931343932729 -0.54463904215088732 0 -0.83867056331134215 0.20966764082783554 0 -0.13615976053772183 1 I I -0.70710678118654746 0.70710678118654746 0.25 forward I I I I #
loop $-1 $-1 $235 $61 #
coedge $-1 $149 $149 $236 $237 reversed $93 $-1 #
face $-1 $238 $239 $49 $-1 $240 reversed single #
loop $-1 $-1 $241 $95 #
plane-surface $-1 -68.737449262978004 -12.629174942790186 1.7725506687910126 -0.7660444514056185 0 0.64278759981090561 0.64278759981090561 0 0.7660444514056185 forward_v I I I I #
coedge $-1 $242 $243 $244 $245 reversed $96 $-1 #
face $-1 $-1 $246 $50 $-1 $247 forward single #
loop $-1 $248 $249 $98 #
cone-surface $-1 -59.448009046233182 -16.04050635649034 4.6722348332077175 0.7660444514056185 0 -0.64278759981090561 0.48209069985817921 0 0.57453333855421385 1 I I -0.70710678118654757 0.70710678118654757 0.75 forward I I I I #
loop $-1 $-1 $250 $63 #
coedge $-1 $158 $158 $251 $252 reversed $99 $-1 #
face $-1 $-1 $253 $51 $-1 $254 forward single #
loop $-1 $255 $256 $101 #
cone-surface $-1 -59.448009046233182 -9.2178435290900325 4.6722348332077175 0.7660444514056185 0 -0.64278759981090561 0.48209069985817921 0 0.57453333855421385 1 I I -0.70710678118654757 0.70710678118654757 0.75 forward I I I I #
loop $-1 $-1 $257 $64 #
coedge $-1 $163 $163 $258 $259 reversed $102 $-1 #
face $-1 $260 $261 $39 $-1 $262 reversed single #
loop $-1 $-1 $263 $104 #
plane-surface $-1 0 -33.466685897913131 0 0 1 0 0 0 1 forward_v I I I I #
coedge $-1 $264 $265 $266 $267 forward $105 $-1 #
coedge $-1 $268 $107 $269 $270 forward $66 $-1 #
coedge $-1 $107 $268 $271 $272 forward $66 $-1 #
coedge $-1 $273 $274 $107 $171 reversed $275 $-1 #
edge $-1 $276 -33.466685897913131 $277 33.466685897913131 $170 $278 forward 7 unknown #
face $-1 $279 $280 $40 $-1 $281 forward single #
loop $-1 $-1 $282 $108 #
plane-surface $-1 -40.089304297380139 -27.027817069668505 0 -1 0 0 0 0 1 forward_v I I I I #
coedge $-1 $283 $284 $285 $286 forward $109 $-1 #
coedge $-1 $287 $111 $288 $289 reversed $69 $-1 #
coedge $-1 $111 $287 $290 $291 reversed $69 $-1 #
coedge $-1 $284 $283 $111 $179 reversed $109 $-1 #
edge $-1 $292 -14.324072482798929 $293 14.324072482798929 $178 $294 forward 7 unknown #
face $-1 $295 $296 $41 $-1 $297 reversed single #
loop $-1 $-1 $298 $112 #
plane-surface $-1 28.315495728011967 -4.0093503483267678 197.65452726330977 0 1 0 0.54463904215088732 0 0.83867056331134215 forward_v I I I I #
coedge $-1 $299 $300 $301 $302 reversed $113 $-1 #
coedge $-1 $185 $115 $303 $304 reversed $72 $-1 #
coedge $-1 $115 $184 $299 $305 reversed $72 $-1 #
coedge $-1 $301 $306 $115 $187 forward $307 $-1 #
edge $-1 $308 -54.57970139897202 $309 -44.047190223207309 $186 $310 forward 7 unknown #
loop $-1 $-1 $193 $116 #
plane-surface $-1 -46.558701324955138 1.21475923995893 82.358376675376647 0.54463904215088732 0 0.83867056331134215 0.83867056331134215 0 -0.54463904215088732 forward_v I I I I #
loop $-1 $-1 $311 $74 #
coedge $-1 $191 $191 $192 $312 reversed $117 $-1 #
coedge $-1 $192 $192 $191 $312 forward $119 $-1 #
coedge $-1 $193 $193 $120 $194 forward $188 $-1 #
edge $-1 $313 0 $313 6.2831853071796004 $193 $314 forward 7 unknown #
loop $-1 $-1 $200 $121 #
plane-surface $-1 -46.558701324955138 1.21475923995893 82.358376675376647 0.54463904215088732 0 0.83867056331134215 0.83867056331134215 0 -0.54463904215088732 forward_v I I I I #
loop $-1 $-1 $315 $77 #
coedge $-1 $198 $198 $199 $316 reversed $122 $-1 #
coedge $-1 $199 $199 $198 $316 forward $124 $-1 #
coedge $-1 $200 $200 $125 $201 forward $195 $-1 #
edge $-1 $317 0 $317 6.2831853071796004 $200 $318 forward 7 unknown #
loop $-1 $-1 $207 $126 #
plane-surface $-1 -46.558701324955138 1.21475923995893 82.358376675376647 0.54463904215088732 0 0.83867056331134215 0.83867056331134215 0 -0.54463904215088732 forward_v I I I I #
loop $-1 $-1 $319 $80 #
coedge $-1 $205 $205 $206 $320 reversed $127 $-1 #
coedge $-1 $206 $206 $205 $320 forward $129 $-1 #
coedge $-1 $207 $207 $130 $208 forward $202 $-1 #
edge $-1 $321 0 $321 6.2831853071796004 $207 $322 forward 7 unknown #
face $-1 $323 $324 $45 $-1 $325 forward single #
loop $-1 $-1 $326 $131 #
plane-surface $-1 68.737449262978004 0 0 -1 0 0 0 0 1 forward_v I I I I #
coedge $-1 $327 $328 $329 $330 reversed $132 $-1 #
coedge $-1 $331 $134 $332 $333 reversed $84 $-1 #
coedge $-1 $134 $331 $326 $334 reversed $84 $-1 #
coedge $-1 $335 $336 $134 $216 forward $324 $-1 #
edge $-1 $337 124.91631874919725 $338 137.47489852595606 $215 $339 forward 7 unknown #
loop $-1 $-1 $222 $135 #
plane-surface $-1 -46.558701324955138 1.21475923995893 82.358376675376647 0.54463904215088732 0 0.83867056331134215 0.83867056331134215 0 -0.54463904215088732 forward_v I I I I #
loop $-1 $-1 $340 $86 #
coedge $-1 $220 $220 $221 $341 reversed $136 $-1 #
coedge $-1 $221 $221 $220 $341 forward $138 $-1 #
coedge $-1 $222 $222 $139 $223 forward $217 $-1 #
edge $-1 $342 0 $342 6.2831853071796004 $222 $343 forward 7 unknown #
loop $-1 $-1 $229 $140 #
plane-surface $-1 -46.558701324955138 1.21475923995893 82.358376675376647 0.54463904215088732 0 0.83867056331134215 0.83867056331134215 0 -0.54463904215088732 forward_v I I I I #
loop $-1 $-1 $344 $89 #
coedge $-1 $227 $227 $228 $345 reversed $141 $-1 #
coedge $-1 $228 $228 $227 $345 forward $143 $-1 #
coedge $-1 $229 $229 $144 $230 forward $224 $-1 #
edge $-1 $346 0 $346 6.2831853071796004 $229 $347 forward 7 unknown #
loop $-1 $-1 $236 $145 #
plane-surface $-1 -46.558701324955138 1.21475923995893 82.358376675376647 0.54463904215088732 0 0.83867056331134215 0.83867056331134215 0 -0.54463904215088732 forward_v I I I I #
loop $-1 $-1 $348 $92 #
coedge $-1 $234 $234 $235 $349 reversed $146 $-1 #
coedge $-1 $235 $235 $234 $349 forward $148 $-1 #
coedge $-1 $236 $236 $149 $237 forward $231 $-1 #
edge $-1 $350 0 $350 6.2831853071796004 $236 $351 forward 7 unknown #
face $-1 $352 $353 $49 $-1 $354 reversed single #
loop $-1 $-1 $355 $150 #
plane-surface $-1 -174.04933248633705 -4.6694016441564941 90.139710726538084 0 -1 0 0.7660444514056185 0 -0.64278759981090561 forward_v I I I I #
coedge $-1 $356 $357 $358 $359 reversed $151 $-1 #
coedge $-1 $243 $153 $360 $361 reversed $96 $-1 #
coedge $-1 $153 $242 $356 $362 reversed $96 $-1 #
coedge $-1 $358 $363 $153 $245 forward $364 $-1 #
edge $-1 $365 18.287216980190522 $366 28.819194029298352 $244 $367 forward 7 unknown #
loop $-1 $-1 $251 $154 #
plane-surface $-1 -68.737449262978004 -12.629174942790186 1.7725506687910126 -0.7660444514056185 0 0.64278759981090561 0.64278759981090561 0 0.7660444514056185 forward_v I I I I #
loop $-1 $-1 $368 $98 #
coedge $-1 $249 $249 $250 $369 reversed $155 $-1 #
coedge $-1 $250 $250 $249 $369 forward $157 $-1 #
coedge $-1 $251 $251 $158 $252 forward $246 $-1 #
edge $-1 $370 0 $370 6.2831853071796004 $251 $371 forward 7 unknown #
loop $-1 $-1 $258 $159 #
plane-surface $-1 -68.737449262978004 -12.629174942790186 1.7725506687910126 -0.7660444514056185 0 0.64278759981090561 0.64278759981090561 0 0.7660444514056185 forward_v I I I I #
loop $-1 $-1 $372 $101 #
coedge $-1 $256 $256 $257 $373 reversed $160 $-1 #
coedge $-1 $257 $257 $256 $373 forward $162 $-1 #
coedge $-1 $258 $258 $163 $259 forward $253 $-1 #
edge $-1 $374 0 $374 6.2831853071796004 $258 $375 forward 7 unknown #
face $-1 $376 $377 $39 $-1 $378 reversed single #
loop $-1 $-1 $379 $164 #
plane-surface $-1 -68.737449262978004 0 0 1 0 0 0 0 -1 forward_v I I I I #
coedge $-1 $380 $271 $381 $382 forward $165 $-1 #
coedge $-1 $383 $167 $380 $384 forward $105 $-1 #
coedge $-1 $167 $383 $385 $386 forward $105 $-1 #
coedge $-1 $274 $273 $167 $267 reversed $275 $-1 #
edge $-1 $387 -33.466685897913131 $388 33.466685897913131 $266 $389 forward 7 unknown #
coedge $-1 $169 $168 $390 $391 forward $66 $-1 #
coedge $-1 $392 $393 $168 $270 reversed $377 $-1 #
edge $-1 $277 -68.737449262978004 $394 68.737449262978004 $269 $395 forward 7 unknown #
coedge $-1 $263 $396 $169 $272 reversed $165 $-1 #
edge $-1 $397 -68.737449262978004 $276 68.737449262978004 $271 $398 forward 7 unknown #
coedge $-1 $266 $170 $396 $399 forward $275 $-1 #
coedge $-1 $170 $266 $392 $400 reversed $275 $-1 #
loop $-1 $-1 $273 $376 #
vertex $-1 $171 $401 #
vertex $-1 $171 $402 #
straight-curve $-1 68.737449262978004 0 14.324072482798929 0 1 0 I I #
face $-1 $403 $404 $40 $-1 $405 reversed single #
loop $-1 $-1 $406 $172 #
plane-surface $-1 0 0 14.324072482798929 0 0 1 1 0 0 forward_v I I I I #
coedge $-1 $407 $408 $409 $410 reversed $173 $-1 #
coedge $-1 $178 $175 $411 $412 reversed $109 $-1 #
coedge $-1 $175 $178 $413 $414 reversed $109 $-1 #
coedge $-1 $408 $407 $175 $286 reversed $173 $-1 #
edge $-1 $415 -14.324072482798929 $416 14.324072482798929 $285 $417 forward 7 unknown #
coedge $-1 $177 $176 $418 $419 reversed $69 $-1 #
coedge $-1 $411 $420 $176 $289 forward $404 $-1 #
edge $-1 $421 -19.95277736307888 $293 -7.0750397065896262 $288 $422 forward 7 unknown #
coedge $-1 $423 $413 $177 $291 forward $280 $-1 #
edge $-1 $292 7.0750397065896262 $424 19.95277736307888 $290 $425 forward 7 unknown #
vertex $-1 $291 $426 #
vertex $-1 $289 $427 #
straight-curve $-1 -43.6082690690112 -20.588948241423878 0 0 0 -1 I I #
face $-1 $-1 $307 $41 $-1 $428 forward single #
loop $-1 $-1 $429 $180 #
plane-surface $-1 68.737449262978004 0 0 -1 0 0 0 0 1 forward_v I I I I #
coedge $-1 $430 $431 $432 $433 reversed $181 $-1 #
coedge $-1 $434 $183 $185 $305 forward $113 $-1 #
coedge $-1 $183 $434 $430 $435 forward $113 $-1 #
coedge $-1 $432 $186 $183 $302 forward $307 $-1 #
edge $-1 $309 -5.8314892082651628 $436 4.6167299683062328 $301 $437 forward 7 unknown #
coedge $-1 $438 $439 $184 $304 forward $296 $-1 #
edge $-1 $440 -91.343084009245374 $308 -84.503191148855962 $303 $441 forward 7 unknown #
edge $-1 $309 124.91631874919725 $440 137.47489852595606 $185 $442 forward 7 unknown #
coedge $-1 $186 $432 $438 $443 forward $307 $-1 #
loop $-1 $-1 $432 $295 #
vertex $-1 $304 $444 #
vertex $-1 $187 $445 #
straight-curve $-1 14.157747864005984 6.4388688282446278 14.324072482798925 -1 0 0 I I #
coedge $-1 $311 $311 $-1 $446 reversed $190 $-1 #
edge $-1 $447 0 $447 6.2831853071796004 $191 $448 forward 7 unknown #
vertex $-1 $194 $449 #
ellipse-curve $-1 63.471193675095634 -1.9197065130124891 10.904126052604227 0.54463904215088732 0 0.83867056331134215 0.41933528165567108 0 -0.27231952107544366 1 I I #
coedge $-1 $315 $315 $-1 $450 reversed $197 $-1 #
edge $-1 $451 0 $451 6.2831853071796004 $198 $452 forward 7 unknown #
vertex $-1 $201 $453 #
ellipse-curve $-1 63.471193675095634 1.21475923995893 10.904126052604227 0.54463904215088732 0 0.83867056331134215 0.41933528165567108 0 -0.27231952107544366 1 I I #
coedge $-1 $319 $319 $-1 $454 reversed $204 $-1 #
edge $-1 $455 0 $455 6.2831853071796004 $205 $456 forward 7 unknown #
vertex $-1 $208 $457 #
ellipse-curve $-1 63.471193675095634 4.3492249929303455 10.904126052604227 0.54463904215088732 0 0.83867056331134215 0.41933528165567108 0 -0.27231952107544366 1 I I #
face $-1 $-1 $458 $45 $-1 $459 forward single #
loop $-1 $-1 $336 $209 #
plane-surface $-1 28.315495728011967 6.4388688282446278 197.65452726330977 0 -1 0 -0.54463904215088732 0 -0.83867056331134215 forward_v I I I I #
coedge $-1 $329 $460 $214 $334 forward $210 $-1 #
coedge $-1 $328 $212 $331 $461 reversed $132 $-1 #
coedge $-1 $212 $327 $462 $463 reversed $132 $-1 #
coedge $-1 $464 $326 $212 $330 forward $210 $-1 #
edge $-1 $465 -91.343084009245374 $466 -84.503191148855962 $329 $467 forward 7 unknown #
coedge $-1 $214 $213 $327 $461 forward $84 $-1 #
coedge $-1 $468 $462 $213 $333 forward $458 $-1 #
edge $-1 $469 -16.279708384836557 $337 -5.8314892082651628 $332 $470 forward 7 unknown #
edge $-1 $338 5.8314892082651628 $465 16.279708384836557 $326 $471 forward 7 unknown #
coedge $-1 $336 $215 $460 $472 reversed $324 $-1 #
coedge $-1 $215 $335 $468 $473 reversed $324 $-1 #
vertex $-1 $333 $474 #
vertex $-1 $334 $475 #
straight-curve $-1 -46.558701324955138 6.4388688282446278 82.358376675376647 0.83867056331134215 0 -0.54463904215088732 I I #
coedge $-1 $340 $340 $-1 $476 reversed $219 $-1 #
edge $-1 $477 0 $477 6.2831853071796004 $220 $478 forward 7 unknown #
vertex $-1 $223 $479 #
ellipse-curve $-1 63.471193675095634 8.5285126635589066 10.904126052604227 0.54463904215088732 0 0.83867056331134215 0.41933528165567108 0 -0.27231952107544366 1 I I #
coedge $-1 $344 $344 $-1 $480 reversed $226 $-1 #
edge $-1 $481 0 $481 6.2831853071796004 $227 $482 forward 7 unknown #
vertex $-1 $230 $483 #
ellipse-curve $-1 63.471193675095634 11.662978416530322 10.904126052604227 0.54463904215088732 0 0.83867056331134215 0.41933528165567108 0 -0.27231952107544366 1 I I #
coedge $-1 $348 $348 $-1 $484 reversed $233 $-1 #
edge $-1 $485 0 $485 6.2831853071796004 $234 $486 forward 7 unknown #
vertex $-1 $237 $487 #
ellipse-curve $-1 63.471193675095634 14.797444169501738 10.904126052604227 0.54463904215088732 0 0.83867056331134215 0.41933528165567108 0 -0.27231952107544366 1 I I #
face $-1 $-1 $364 $49 $-1 $488 forward single #
loop $-1 $-1 $489 $238 #
plane-surface $-1 -68.737449262978004 0 0 1 0 0 0 0 -1 forward_v I I I I #
coedge $-1 $490 $491 $492 $493 reversed $239 $-1 #
coedge $-1 $494 $241 $243 $362 forward $151 $-1 #
coedge $-1 $241 $494 $490 $495 forward $151 $-1 #
coedge $-1 $492 $244 $241 $359 forward $364 $-1 #
edge $-1 $366 -14.274360770028785 $496 1.6451858272385991 $358 $497 forward 7 unknown #
coedge $-1 $498 $499 $242 $361 forward $353 $-1 #
edge $-1 $500 -43.297304694478029 $365 -30.745782880470113 $360 $501 forward 7 unknown #
edge $-1 $366 -16.384847890976921 $500 0 $243 $502 forward 7 unknown #
coedge $-1 $244 $492 $498 $503 forward $364 $-1 #
loop $-1 $-1 $492 $352 #
vertex $-1 $361 $504 #
vertex $-1 $245 $505 #
straight-curve $-1 -87.024666243168525 -20.588948241423878 14.324072482798925 1 0 0 I I #
coedge $-1 $368 $368 $-1 $506 reversed $248 $-1 #
edge $-1 $507 0 $507 6.2831853071796004 $249 $508 forward 7 unknown #
vertex $-1 $252 $509 #
ellipse-curve $-1 -63.471460738424092 -16.04050635649034 8.0483115757949708 -0.7660444514056185 0 0.64278759981090561 0.96418139971635841 0 1.1490666771084277 1 I I #
coedge $-1 $372 $372 $-1 $510 reversed $255 $-1 #
edge $-1 $511 0 $511 6.2831853071796004 $256 $512 forward 7 unknown #
vertex $-1 $259 $513 #
ellipse-curve $-1 -63.471460738424092 -9.2178435290900325 8.0483115757949708 -0.7660444514056185 0 0.64278759981090561 0.96418139971635841 0 1.1490666771084277 1 I I #
face $-1 $-1 $275 $39 $-1 $514 reversed single #
loop $-1 $-1 $392 $260 #
plane-surface $-1 0 33.466685897913131 0 0 -1 0 0 0 -1 forward_v I I I I #
coedge $-1 $515 $390 $393 $516 forward $261 $-1 #
coedge $-1 $396 $263 $264 $384 reversed $165 $-1 #
coedge $-1 $390 $515 $263 $382 reversed $261 $-1 #
edge $-1 $397 -14.324072482798929 $517 14.324072482798929 $381 $518 forward 7 unknown #
coedge $-1 $265 $264 $515 $519 forward $105 $-1 #
edge $-1 $388 -68.737449262978004 $517 68.737449262978004 $380 $520 forward 7 unknown #
coedge $-1 $393 $392 $265 $386 reversed $377 $-1 #
edge $-1 $521 -68.737449262978004 $387 68.737449262978004 $385 $522 forward 7 unknown #
vertex $-1 $267 $523 #
vertex $-1 $399 $524 #
straight-curve $-1 68.737449262978004 0 -14.324072482798929 0 -1 0 I I #
coedge $-1 $379 $381 $268 $391 reversed $261 $-1 #
edge $-1 $394 -33.466685897913131 $397 33.466685897913131 $390 $525 forward 7 unknown #
coedge $-1 $385 $269 $274 $400 forward $377 $-1 #
coedge $-1 $269 $385 $379 $516 reversed $377 $-1 #
vertex $-1 $270 $526 #
straight-curve $-1 0 33.466685897913131 14.324072482798929 -1 0 0 I I #
coedge $-1 $271 $380 $273 $399 reversed $165 $-1 #
vertex $-1 $391 $527 #
straight-curve $-1 0 -33.466685897913131 14.324072482798929 1 0 0 I I #
edge $-1 $276 -14.324072482798929 $388 14.324072482798929 $273 $528 forward 7 unknown #
edge $-1 $277 -14.324072482798929 $387 14.324072482798929 $274 $529 forward 7 unknown #
point $-1 68.737449262978004 -33.466685897913131 14.324072482798929 #
point $-1 68.737449262978004 33.466685897913131 14.324072482798929 #
face $-1 $-1 $530 $40 $-1 $531 reversed single #
loop $-1 $-1 $532 $279 #
plane-surface $-1 0 0 -14.324072482798929 0 0 1 1 0 0 forward_v I I I I #
coedge $-1 $413 $423 $408 $533 forward $280 $-1 #
coedge $-1 $285 $282 $532 $534 reversed $173 $-1 #
coedge $-1 $282 $285 $406 $533 reversed $173 $-1 #
coedge $-1 $535 $536 $282 $410 forward $530 $-1 #
edge $-1 $537 -14.324072482798929 $538 14.324072482798929 $409 $539 forward 7 unknown #
coedge $-1 $532 $288 $283 $412 forward $404 $-1 #
edge $-1 $293 -22.683875727413366 $416 -19.164910955782304 $411 $540 forward 7 unknown #
coedge $-1 $290 $406 $284 $414 forward $280 $-1 #
edge $-1 $415 19.164910955782304 $292 22.683875727413366 $413 $541 forward 7 unknown #
vertex $-1 $414 $542 #
vertex $-1 $412 $543 #
straight-curve $-1 -40.089304297380139 -20.588948241423878 0 0 0 -1 I I #
coedge $-1 $536 $535 $287 $419 forward $530 $-1 #
edge $-1 $424 -14.324072482798929 $421 14.324072482798929 $418 $544 forward 7 unknown #
coedge $-1 $288 $532 $536 $545 forward $404 $-1 #
vertex $-1 $289 $546 #
straight-curve $-1 -43.6082690690112 -13.513908534834252 -14.324072482798929 0 1 0 I I #
coedge $-1 $406 $290 $535 $547 forward $280 $-1 #
vertex $-1 $547 $548 #
straight-curve $-1 -43.6082690690112 -13.513908534834252 14.324072482798929 0 -1 0 I I #
point $-1 -43.6082690690112 -20.588948241423878 14.324072482798929 #
point $-1 -43.6082690690112 -20.588948241423878 -14.324072482798929 #
plane-surface $-1 0 0 14.324072482798929 0 0 1 1 0 0 forward_v I I I I #
coedge $-1 $439 $438 $431 $549 forward $296 $-1 #
coedge $-1 $431 $298 $300 $435 reversed $181 $-1 #
coedge $-1 $298 $430 $429 $549 reversed $181 $-1 #
coedge $-1 $306 $301 $298 $433 forward $307 $-1 #
edge $-1 $436 44.047190223207309 $550 54.57970139897202 $432 $551 forward 7 unknown #
coedge $-1 $300 $299 $439 $552 reversed $113 $-1 #
edge $-1 $553 -137.47489852595606 $436 -124.91631874919725 $430 $554 forward 7 unknown #
vertex $-1 $302 $555 #
straight-curve $-1 58.2049380872133 0.60737961997946499 14.324072482798918 0 -1 0 I I #
coedge $-1 $429 $303 $306 $443 reversed $296 $-1 #
coedge $-1 $303 $429 $434 $552 forward $296 $-1 #
vertex $-1 $304 $556 #
straight-curve $-1 68.737449262978004 6.4388688282446278 98.827263631654887 0 0 1 I I #
straight-curve $-1 -46.558701324955138 6.4388688282446278 82.358376675376647 0.83867056331134215 0 -0.54463904215088732 I I #
edge $-1 $550 -4.0093503483267678 $308 6.4388688282446278 $438 $557 forward 7 unknown #
point $-1 68.737449262978004 6.4388688282446278 14.324072482798929 #
point $-1 58.204938087213293 6.4388688282446278 14.324072482798925 #
edge $-1 $558 1 $558 0 $311 $-1 forward 7 unknown #
vertex $-1 $312 $559 #
ellipse-curve $-1 62.723813011293842 -1.9197065130124891 9.7532607752211078 0.54463904215088732 0 0.83867056331134215 0.41933528165567108 0 -0.27231952107544366 1 I I #
point $-1 63.890528956751311 -1.9197065130124891 10.631806531528788 #
edge $-1 $560 1 $560 0 $315 $-1 forward 7 unknown #
vertex $-1 $316 $561 #
ellipse-curve $-1 62.723813011293842 1.21475923995893 9.7532607752211078 0.54463904215088732 0 0.83867056331134215 0.41933528165567108 0 -0.27231952107544366 1 I I #
point $-1 63.890528956751311 1.21475923995893 10.631806531528788 #
edge $-1 $562 1 $562 0 $319 $-1 forward 7 unknown #
vertex $-1 $320 $563 #
ellipse-curve $-1 62.723813011293842 4.3492249929303455 9.7532607752211078 0.54463904215088732 0 0.83867056331134215 0.41933528165567108 0 -0.27231952107544366 1 I I #
point $-1 63.890528956751311 4.3492249929303455 10.631806531528788 #
loop $-1 $-1 $332 $323 #
plane-surface $-1 0 0 14.324072482798929 0 0 1 1 0 0 forward_v I I I I #
coedge $-1 $326 $464 $335 $472 forward $210 $-1 #
edge $-1 $469 124.91631874919725 $465 137.47489852595606 $327 $564 forward 7 unknown #
coedge $-1 $332 $565 $328 $463 forward $458 $-1 #
edge $-1 $466 -54.57970139897202 $469 -44.047190223207309 $462 $566 forward 7 unknown #
coedge $-1 $460 $329 $565 $567 reversed $210 $-1 #
vertex $-1 $330 $568 #
vertex $-1 $330 $569 #
straight-curve $-1 68.737449262978004 16.887088004816022 98.827263631654887 0 0 1 I I #
coedge $-1 $565 $332 $336 $473 forward $458 $-1 #
vertex $-1 $463 $570 #
straight-curve $-1 58.2049380872133 0.60737961997946499 14.324072482798918 0 -1 0 I I #
straight-curve $-1 68.737449262978004 0.60737961997946499 7.4841796224095276 0 1 0 I I #
edge $-1 $571 84.503191148855962 $338 91.343084009245374 $460 $572 forward 7 unknown #
edge $-1 $337 44.047190223207309 $571 54.57970139897202 $468 $573 forward 7 unknown #
point $-1 58.204938087213293 6.4388688282446278 14.324072482798925 #
point $-1 68.737449262978018 6.4388688282446278 7.4841796224095134 #
edge $-1 $574 1 $574 0 $340 $-1 forward 7 unknown #
vertex $-1 $341 $575 #
ellipse-curve $-1 62.723813011293842 8.5285126635589066 9.7532607752211078 0.54463904215088732 0 0.83867056331134215 0.41933528165567108 0 -0.27231952107544366 1 I I #
point $-1 63.890528956751311 8.5285126635589066 10.631806531528788 #
edge $-1 $576 1 $576 0 $344 $-1 forward 7 unknown #
vertex $-1 $345 $577 #
ellipse-curve $-1 62.723813011293842 11.662978416530322 9.7532607752211078 0.54463904215088732 0 0.83867056331134215 0.41933528165567108 0 -0.27231952107544366 1 I I #
point $-1 63.890528956751311 11.662978416530322 10.631806531528788 #
edge $-1 $578 1 $578 0 $348 $-1 forward 7 unknown #
vertex $-1 $349 $579 #
ellipse-curve $-1 62.723813011293842 14.797444169501738 9.7532607752211078 0.54463904215088732 0 0.83867056331134215 0.41933528165567108 0 -0.27231952107544366 1 I I #
point $-1 63.890528956751311 14.797444169501738 10.631806531528788 #
plane-surface $-1 0 0 14.324072482798929 0 0 1 1 0 0 forward_v I I I I #
coedge $-1 $499 $498 $491 $580 forward $353 $-1 #
coedge $-1 $491 $355 $357 $495 reversed $239 $-1 #
coedge $-1 $355 $490 $489 $580 reversed $239 $-1 #
coedge $-1 $363 $358 $355 $493 forward $364 $-1 #
edge $-1 $496 -28.819194029298352 $581 -18.287216980190522 $492 $582 forward 7 unknown #
coedge $-1 $357 $356 $499 $583 reversed $151 $-1 #
edge $-1 $584 0 $496 16.384847890976921 $490 $585 forward 7 unknown #
vertex $-1 $359 $586 #
straight-curve $-1 -58.205472213870181 -6.3145874713950931 14.324072482798929 0 1 0 I I #
coedge $-1 $489 $360 $363 $503 reversed $353 $-1 #
coedge $-1 $360 $489 $494 $583 forward $353 $-1 #
vertex $-1 $361 $587 #
straight-curve $-1 -68.737449262978004 -20.588948241423878 45.069855363269042 0 0 1 I I #
straight-curve $-1 -68.737449262978004 -20.588948241423878 1.7725506687910126 -0.64278759981090561 0 -0.7660444514056185 I I #
edge $-1 $581 4.6694016441564941 $365 20.588948241423878 $498 $588 forward 7 unknown #
point $-1 -68.737449262978004 -20.588948241423878 14.324072482798929 #
point $-1 -58.205472213870173 -20.588948241423878 14.324072482798931 #
edge $-1 $589 1 $589 0 $368 $-1 forward 7 unknown #
vertex $-1 $369 $590 #
ellipse-curve $-1 -60.022542384787393 -16.04050635649034 5.1543255330658964 -0.7660444514056185 0 0.64278759981090561 0.96418139971635841 0 1.1490666771084277 1 I I #
point $-1 -62.50727933870774 -16.04050635649034 9.1973782529034072 #
edge $-1 $591 1 $591 0 $372 $-1 forward 7 unknown #
vertex $-1 $373 $592 #
ellipse-curve $-1 -60.022542384787393 -9.2178435290900325 5.1543255330658964 -0.7660444514056185 0 0.64278759981090561 0.96418139971635841 0 1.1490666771084277 1 I I #
point $-1 -62.50727933870774 -9.2178435290900325 9.1973782529034072 #
plane-surface $-1 68.737449262978004 0 0 -1 0 0 0 0 1 forward_v I I I I #
coedge $-1 $381 $379 $383 $519 reversed $261 $-1 #
edge $-1 $394 -14.324072482798929 $521 14.324072482798929 $393 $593 forward 7 unknown #
vertex $-1 $519 $594 #
straight-curve $-1 -68.737449262978004 -33.466685897913131 0 0 0 -1 I I #
edge $-1 $517 -33.466685897913131 $521 33.466685897913131 $515 $595 forward 7 unknown #
straight-curve $-1 0 -33.466685897913131 -14.324072482798929 -1 0 0 I I #
vertex $-1 $386 $596 #
straight-curve $-1 0 33.466685897913131 -14.324072482798929 1 0 0 I I #
point $-1 68.737449262978004 33.466685897913131 -14.324072482798929 #
point $-1 68.737449262978004 -33.466685897913131 -14.324072482798929 #
straight-curve $-1 -68.737449262978004 0 14.324072482798929 0 -1 0 I I #
point $-1 -68.737449262978004 33.466685897913131 14.324072482798929 #
point $-1 -68.737449262978004 -33.466685897913131 14.324072482798929 #
straight-curve $-1 68.737449262978004 -33.466685897913131 0 0 0 -1 I I #
straight-curve $-1 68.737449262978004 33.466685897913131 0 0 0 -1 I I #
loop $-1 $-1 $409 $403 #
plane-surface $-1 0 -33.466685897913131 0 0 1 0 0 0 1 forward_v I I I I #
coedge $-1 $420 $411 $407 $534 forward $404 $-1 #
edge $-1 $538 -19.95277736307888 $415 -7.0750397065896262 $406 $597 forward 7 unknown #
edge $-1 $416 7.0750397065896262 $537 19.95277736307888 $532 $598 forward 7 unknown #
coedge $-1 $418 $409 $423 $547 reversed $530 $-1 #
coedge $-1 $409 $418 $420 $545 reversed $530 $-1 #
vertex $-1 $545 $599 #
vertex $-1 $410 $600 #
straight-curve $-1 -40.089304297380139 -33.466685897913131 0 0 0 1 I I #
straight-curve $-1 -20.924393341597835 -20.588948241423878 -14.324072482798929 1 0 0 I I #
straight-curve $-1 -20.924393341597835 -20.588948241423878 14.324072482798929 -1 0 0 I I #
point $-1 -40.089304297380139 -20.588948241423878 14.324072482798929 #
point $-1 -40.089304297380139 -20.588948241423878 -14.324072482798929 #
straight-curve $-1 -43.6082690690112 -33.466685897913131 0 0 0 -1 I I #
edge $-1 $537 40.089304297380139 $421 43.6082690690112 $536 $601 forward 7 unknown #
point $-1 -43.6082690690112 -33.466685897913131 -14.324072482798929 #
edge $-1 $424 -43.6082690690112 $538 -40.089304297380139 $535 $602 forward 7 unknown #
point $-1 -43.6082690690112 -33.466685897913131 14.324072482798929 #
edge $-1 $550 84.503191148855962 $553 91.343084009245374 $429 $603 forward 7 unknown #
vertex $-1 $443 $604 #
straight-curve $-1 14.157747864005984 -4.0093503483267678 14.324072482798925 1 0 0 I I #
edge $-1 $553 -4.6167299683062328 $440 5.8314892082651628 $439 $605 forward 7 unknown #
vertex $-1 $552 $606 #
straight-curve $-1 -46.558701324955138 -4.0093503483267678 82.358376675376647 -0.83867056331134215 0 0.54463904215088732 I I #
point $-1 58.204938087213293 -4.0093503483267678 14.324072482798925 #
point $-1 68.737449262978018 6.4388688282446278 7.4841796224095134 #
straight-curve $-1 68.737449262978004 0 14.324072482798929 0 1 0 I I #
vertex $-1 $446 $607 #
point $-1 63.143148292949512 -1.9197065130124891 9.4809412541456641 #
vertex $-1 $450 $608 #
point $-1 63.143148292949512 1.21475923995893 9.4809412541456641 #
vertex $-1 $454 $609 #
point $-1 63.143148292949512 4.3492249929303455 9.4809412541456641 #
straight-curve $-1 -46.558701324955138 16.887088004816022 82.358376675376647 0.83867056331134215 0 -0.54463904215088732 I I #
coedge $-1 $462 $468 $464 $567 forward $458 $-1 #
straight-curve $-1 14.157747864005984 16.887088004816022 14.324072482798925 -1 0 0 I I #
edge $-1 $571 6.4388688282446278 $466 16.887088004816022 $464 $610 forward 7 unknown #
point $-1 68.737449262978018 16.887088004816022 7.4841796224095134 #
point $-1 68.737449262978004 16.887088004816022 14.324072482798929 #
point $-1 58.204938087213293 16.887088004816022 14.324072482798925 #
vertex $-1 $567 $611 #
straight-curve $-1 68.737449262978004 6.4388688282446278 98.827263631654887 0 0 -1 I I #
straight-curve $-1 14.157747864005984 6.4388688282446278 14.324072482798925 1 0 0 I I #
vertex $-1 $476 $612 #
point $-1 63.143148292949512 8.5285126635589066 9.4809412541456641 #
vertex $-1 $480 $613 #
point $-1 63.143148292949512 11.662978416530322 9.4809412541456641 #
vertex $-1 $484 $614 #
point $-1 63.143148292949512 14.797444169501738 9.4809412541456641 #
edge $-1 $581 30.745782880470113 $584 43.297304694478029 $489 $615 forward 7 unknown #
vertex $-1 $503 $616 #
straight-curve $-1 -87.024666243168525 -4.6694016441564941 14.324072482798925 -1 0 0 I I #
edge $-1 $584 -1.6451858272385991 $500 14.274360770028785 $499 $617 forward 7 unknown #
vertex $-1 $583 $618 #
straight-curve $-1 -68.737449262978004 -4.6694016441564941 1.7725506687910126 0.64278759981090561 0 0.7660444514056185 I I #
point $-1 -58.205472213870173 -4.6694016441564941 14.324072482798931 #
point $-1 -68.737449262978004 -20.588948241423878 1.7725506687910126 #
straight-curve $-1 -68.737449262978004 0 14.324072482798929 0 -1 0 I I #
vertex $-1 $506 $619 #
point $-1 -59.05836098507104 -16.04050635649034 6.3033922101743247 #
vertex $-1 $510 $620 #
point $-1 -59.05836098507104 -9.2178435290900325 6.3033922101743247 #
straight-curve $-1 -68.737449262978004 33.466685897913131 0 0 0 -1 I I #
point $-1 -68.737449262978004 -33.466685897913131 -14.324072482798929 #
straight-curve $-1 -68.737449262978004 0 -14.324072482798929 0 1 0 I I #
point $-1 -68.737449262978004 33.466685897913131 -14.324072482798929 #
straight-curve $-1 -40.089304297380139 -13.513908534834252 14.324072482798929 0 1 0 I I #
straight-curve $-1 -40.089304297380139 -13.513908534834252 -14.324072482798929 0 -1 0 I I #
point $-1 -40.089304297380139 -33.466685897913131 -14.324072482798929 #
point $-1 -40.089304297380139 -33.466685897913131 14.324072482798929 #
straight-curve $-1 0 -33.466685897913131 -14.324072482798929 -1 0 0 I I #
straight-curve $-1 0 -33.466685897913131 14.324072482798929 1 0 0 I I #
straight-curve $-1 68.737449262978004 -4.0093503483267678 98.827263631654887 0 0 -1 I I #
point $-1 68.737449262978004 -4.0093503483267678 14.324072482798929 #
straight-curve $-1 68.737449262978004 0.60737961997946499 7.4841796224095276 0 1 0 I I #
point $-1 68.737449262978018 -4.0093503483267678 7.4841796224095134 #
point $-1 62.451493490218397 -1.9197065130124891 9.3339254935654381 #
point $-1 62.451493490218397 1.21475923995893 9.3339254935654381 #
point $-1 62.451493490218397 4.3492249929303455 9.3339254935654381 #
straight-curve $-1 68.737449262978004 0 14.324072482798929 0 1 0 I I #
point $-1 68.737449262978004 6.4388688282446278 14.324072482798929 #
point $-1 62.451493490218397 8.5285126635589066 9.3339254935654381 #
point $-1 62.451493490218397 11.662978416530322 9.3339254935654381 #
point $-1 62.451493490218397 14.797444169501738 9.3339254935654381 #
straight-curve $-1 -68.737449262978004 -4.6694016441564941 45.069855363269042 0 0 -1 I I #
point $-1 -68.737449262978004 -4.6694016441564941 14.324072482798929 #
straight-curve $-1 -68.737449262978004 -6.3145874713950931 1.7725506687910078 0 -1 0 I I #
point $-1 -68.737449262978004 -4.6694016441564941 1.7725506687910126 #
point $-1 -58.873475707678971 -16.04050635649034 4.1901441333495386 #
point $-1 -58.873475707678971 -9.2178435290900325 4.1901441333495386 #
End-of-ACIS-data 