500 0 9 0           
7 Unknown 11 ACIS 5.0 NT 24 Thu Mar 25 17:30:43 1999 
-1 9.9999999999999995e-007 1e-010 
body $-1 $9 $-1 $10 #
body $-1 $11 $-1 $12 #
body $-1 $13 $-1 $14 #
body $-1 $15 $-1 $16 #
body $-1 $17 $-1 $18 #
body $-1 $19 $-1 $20 #
body $-1 $21 $-1 $22 #
body $-1 $23 $-1 $24 #
body $-1 $25 $-1 $26 #
lump $-1 $-1 $27 $0 #
transform $-1 1 0 0 0 1 0 0 0 1 53.496505630664998 33.759924397473583 16.186053416068297 1 rotate no_reflect no_shear #
lump $-1 $-1 $28 $1 #
transform $-1 1 0 0 0 1 0 0 0 1 53.496505630664998 33.759924397473583 16.186053416068297 1 rotate no_reflect no_shear #
lump $-1 $-1 $29 $2 #
transform $-1 1 0 0 0 1 0 0 0 1 53.496505630664998 33.759924397473583 16.186053416068297 1 rotate no_reflect no_shear #
lump $-1 $-1 $30 $3 #
transform $-1 1 0 0 0 1 0 0 0 1 53.496505630664998 33.759924397473583 16.186053416068297 1 rotate no_reflect no_shear #
lump $-1 $-1 $31 $4 #
transform $-1 1 0 0 0 1 0 0 0 1 53.496505630664998 33.759924397473583 16.186053416068297 1 rotate no_reflect no_shear #
lump $-1 $-1 $32 $5 #
transform $-1 1 0 0 0 1 0 0 0 1 53.496505630664998 33.759924397473583 16.186053416068297 1 rotate no_reflect no_shear #
lump $-1 $-1 $33 $6 #
transform $-1 1 0 0 0 1 0 0 0 1 53.496505630664998 33.759924397473583 16.186053416068297 1 rotate no_reflect no_shear #
lump $-1 $-1 $34 $7 #
transform $-1 1 0 0 0 1 0 0 0 1 53.496505630664998 33.759924397473583 16.186053416068297 1 rotate no_reflect no_shear #
lump $-1 $-1 $35 $8 #
transform $-1 1 0 0 0 1 0 0 0 1 53.496505630664998 33.759924397473583 16.186053416068297 1 rotate no_reflect no_shear #
shell $-1 $-1 $-1 $36 $-1 $9 #
shell $-1 $-1 $-1 $37 $-1 $11 #
shell $-1 $-1 $-1 $38 $-1 $13 #
shell $-1 $-1 $-1 $39 $-1 $15 #
shell $-1 $-1 $-1 $40 $-1 $17 #
shell $-1 $-1 $-1 $41 $-1 $19 #
shell $-1 $-1 $-1 $42 $-1 $21 #
shell $-1 $-1 $-1 $43 $-1 $23 #
shell $-1 $-1 $-1 $44 $-1 $25 #
face $-1 $45 $46 $27 $-1 $47 forward single #
face $-1 $48 $49 $28 $-1 $50 forward single #
face $-1 $51 $52 $29 $-1 $53 forward single #
face $-1 $54 $55 $30 $-1 $56 reversed single #
face $-1 $57 $58 $31 $-1 $59 forward single #
face $-1 $60 $61 $32 $-1 $62 forward single #
face $-1 $63 $64 $33 $-1 $65 reversed single #
face $-1 $66 $67 $34 $-1 $68 forward single #
face $-1 $69 $70 $35 $-1 $71 forward single #
face $-1 $72 $73 $27 $-1 $74 reversed single #
loop $-1 $-1 $75 $36 #
plane-surface $-1 0 0 16.186053416068297 0 0 1 1 0 0 forward_v I I I I #
face $-1 $76 $77 $28 $-1 $78 reversed single #
loop $-1 $-1 $79 $37 #
plane-surface $-1 -53.496505630664998 0 0 1 0 0 0 0 -1 forward_v I I I I #
face $-1 $80 $81 $29 $-1 $82 reversed single #
loop $-1 $-1 $83 $38 #
plane-surface $-1 53.496505630664998 0 0 -1 0 0 0 0 1 forward_v I I I I #
face $-1 $84 $85 $30 $-1 $86 reversed single #
loop $-1 $-1 $87 $39 #
plane-surface $-1 -12.988520779912461 -96.648839318691586 90.695223164845373 -1 0 0 0 -0.5877852598018023 0.80901698891910034 forward_v I I I I #
face $-1 $88 $89 $31 $-1 $90 forward single #
loop $-1 $91 $92 $40 #
cone-surface $-1 -19.419013355761351 -24.46138953730545 8.7766391199883458 0 0.5877852598018023 -0.80901698891910034 1 0 0 1 I I 0 1 1 forward I I I I #
face $-1 $93 $94 $32 $-1 $95 forward single #
loop $-1 $96 $97 $41 #
cone-surface $-1 -15.560717810252015 -24.46138953730545 8.7766391199883458 0 0.5877852598018023 -0.80901698891910034 1 0 0 1 I I 0 1 1 forward I I I I #
face $-1 $98 $99 $33 $-1 $100 reversed single #
loop $-1 $-1 $101 $42 #
plane-surface $-1 21.991210386100896 -96.648839318691586 90.695223164845373 -1 0 0 0 -0.5877852598018023 0.80901698891910034 forward_v I I I I #
face $-1 $102 $103 $34 $-1 $104 forward single #
loop $-1 $105 $106 $43 #
cone-surface $-1 15.560717810252015 -24.46138953730545 8.7766391199883458 0 0.5877852598018023 -0.80901698891910034 1 0 0 1 I I 0 1 1 forward I I I I #
face $-1 $107 $108 $35 $-1 $109 forward single #
loop $-1 $110 $111 $44 #
cone-surface $-1 19.419013355761351 -24.46138953730545 8.7766391199883458 0 0.5877852598018023 -0.80901698891910034 1 0 0 1 I I 0 1 1 forward I I I I #
face $-1 $112 $113 $27 $-1 $114 reversed single #
loop $-1 $-1 $115 $45 #
plane-surface $-1 0 0 -16.186053416068297 0 0 1 1 0 0 forward_v I I I I #
coedge $-1 $116 $117 $118 $119 forward $46 $-1 #
face $-1 $120 $121 $28 $-1 $122 forward single #
loop $-1 $-1 $123 $48 #
plane-surface $-1 0 33.759924397473583 0 0 -1 0 0 0 -1 forward_v I I I I #
coedge $-1 $124 $125 $126 $127 forward $49 $-1 #
face $-1 $128 $129 $29 $-1 $130 forward single #
loop $-1 $-1 $131 $51 #
plane-surface $-1 0 -33.759924397473583 0 0 1 0 0 0 1 forward_v I I I I #
coedge $-1 $132 $133 $134 $135 forward $52 $-1 #
face $-1 $136 $137 $30 $-1 $138 reversed single #
loop $-1 $-1 $139 $54 #
plane-surface $-1 -17.489865583006683 -33.759924397473576 4.1360593588167802 0 -0.5877852598018023 0.80901698891910034 1 0 0 forward_v I I I I #
coedge $-1 $140 $141 $142 $143 reversed $55 $-1 #
face $-1 $-1 $144 $31 $-1 $145 forward single #
loop $-1 $146 $147 $57 #
cone-surface $-1 -19.419013355761351 -23.161658866460716 6.9877133580745969 0 0.5877852598018023 -0.80901698891910034 0.5 0 0 1 I I -0.70710678118654691 0.70710678118654813 0.5 forward I I I I #
loop $-1 $-1 $148 $40 #
coedge $-1 $92 $92 $149 $150 reversed $58 $-1 #
face $-1 $-1 $151 $32 $-1 $152 forward single #
loop $-1 $153 $154 $60 #
cone-surface $-1 -15.560717810252015 -23.161658866460716 6.9877133580745969 0 0.5877852598018023 -0.80901698891910034 0.5 0 0 1 I I -0.70710678118654691 0.70710678118654813 0.5 forward I I I I #
loop $-1 $-1 $155 $41 #
coedge $-1 $97 $97 $156 $157 reversed $61 $-1 #
face $-1 $158 $159 $33 $-1 $160 reversed single #
loop $-1 $-1 $161 $63 #
plane-surface $-1 17.489865583006676 -33.759924397473576 4.1360593588167802 0 -0.5877852598018023 0.80901698891910034 1 0 0 forward_v I I I I #
coedge $-1 $162 $163 $164 $165 reversed $64 $-1 #
face $-1 $-1 $166 $34 $-1 $167 forward single #
loop $-1 $168 $169 $66 #
cone-surface $-1 15.560717810252015 -23.161658866460716 6.9877133580745969 0 0.5877852598018023 -0.80901698891910034 0.5 0 0 1 I I -0.70710678118654691 0.70710678118654813 0.5 forward I I I I #
loop $-1 $-1 $170 $43 #
coedge $-1 $106 $106 $171 $172 reversed $67 $-1 #
face $-1 $-1 $173 $35 $-1 $174 forward single #
loop $-1 $175 $176 $69 #
cone-surface $-1 19.419013355761351 -23.161658866460716 6.9877133580745969 0 0.5877852598018023 -0.80901698891910034 0.5 0 0 1 I I -0.70710678118654691 0.70710678118654813 0.5 forward I I I I #
loop $-1 $-1 $177 $44 #
coedge $-1 $111 $111 $178 $179 reversed $70 $-1 #
face $-1 $180 $181 $27 $-1 $182 reversed single #
loop $-1 $-1 $183 $72 #
plane-surface $-1 0 -33.759924397473583 0 0 1 0 0 0 1 forward_v I I I I #
coedge $-1 $184 $185 $186 $187 forward $73 $-1 #
coedge $-1 $188 $75 $189 $190 forward $46 $-1 #
coedge $-1 $75 $188 $191 $192 forward $46 $-1 #
coedge $-1 $193 $194 $75 $119 reversed $195 $-1 #
edge $-1 $196 -33.759924397473583 $197 33.759924397473583 $118 $198 forward 7 unknown #
face $-1 $199 $200 $28 $-1 $201 reversed single #
loop $-1 $-1 $126 $76 #
plane-surface $-1 -63.658805184596318 0 9.3372030788792575 0 0 1 1 0 0 forward_v I I I I #
coedge $-1 $202 $203 $125 $204 forward $77 $-1 #
coedge $-1 $205 $79 $206 $207 reversed $49 $-1 #
coedge $-1 $79 $205 $123 $204 reversed $49 $-1 #
coedge $-1 $208 $209 $79 $127 reversed $121 $-1 #
edge $-1 $210 -33.759924397473583 $211 33.759924397473583 $126 $212 forward 7 unknown #
face $-1 $213 $214 $29 $-1 $215 reversed single #
loop $-1 $-1 $216 $80 #
plane-surface $-1 63.658805184596318 0 9.3372030788792575 0 0 1 1 0 0 forward_v I I I I #
coedge $-1 $217 $218 $133 $219 forward $81 $-1 #
coedge $-1 $220 $83 $221 $222 reversed $52 $-1 #
coedge $-1 $83 $220 $131 $219 reversed $52 $-1 #
coedge $-1 $223 $224 $83 $135 reversed $129 $-1 #
edge $-1 $225 -33.759924397473583 $226 33.759924397473583 $134 $227 forward 7 unknown #
face $-1 $228 $229 $30 $-1 $230 forward single #
loop $-1 $-1 $231 $84 #
plane-surface $-1 -21.991210386100903 -96.648839318691586 90.695223164845373 1 0 0 0 0.5877852598018023 -0.80901698891910034 forward_v I I I I #
coedge $-1 $232 $233 $234 $235 reversed $85 $-1 #
coedge $-1 $141 $87 $236 $237 reversed $55 $-1 #
coedge $-1 $87 $140 $232 $238 reversed $55 $-1 #
coedge $-1 $234 $239 $87 $143 forward $229 $-1 #
edge $-1 $240 14.56449526187221 $241 31.149888900320828 $142 $242 forward 7 unknown #
loop $-1 $-1 $149 $88 #
plane-surface $-1 -17.489865583006683 -33.759924397473576 4.1360593588167802 0 -0.5877852598018023 0.80901698891910034 1 0 0 forward_v I I I I #
loop $-1 $-1 $243 $57 #
coedge $-1 $147 $147 $148 $244 reversed $89 $-1 #
coedge $-1 $148 $148 $147 $244 forward $91 $-1 #
coedge $-1 $149 $149 $92 $150 forward $144 $-1 #
edge $-1 $245 -1.3138026043115513e-015 $245 6.2831853071795996 $149 $246 forward 7 unknown #
loop $-1 $-1 $156 $93 #
plane-surface $-1 -17.489865583006683 -33.759924397473576 4.1360593588167802 0 -0.5877852598018023 0.80901698891910034 1 0 0 forward_v I I I I #
loop $-1 $-1 $247 $60 #
coedge $-1 $154 $154 $155 $248 reversed $94 $-1 #
coedge $-1 $155 $155 $154 $248 forward $96 $-1 #
coedge $-1 $156 $156 $97 $157 forward $151 $-1 #
edge $-1 $249 -1.3138026043115513e-015 $249 6.2831853071795996 $156 $250 forward 7 unknown #
face $-1 $251 $252 $33 $-1 $253 reversed single #
loop $-1 $-1 $254 $98 #
plane-surface $-1 12.988520779912454 -96.648839318691586 90.695223164845373 1 0 0 0 0.5877852598018023 -0.80901698891910034 forward_v I I I I #
coedge $-1 $255 $256 $257 $258 reversed $99 $-1 #
coedge $-1 $163 $101 $259 $260 reversed $64 $-1 #
coedge $-1 $101 $162 $255 $261 reversed $64 $-1 #
coedge $-1 $257 $262 $101 $165 forward $263 $-1 #
edge $-1 $264 14.56449526187221 $265 31.149888900320828 $164 $266 forward 7 unknown #
loop $-1 $-1 $171 $102 #
plane-surface $-1 17.489865583006676 -33.759924397473576 4.1360593588167802 0 -0.5877852598018023 0.80901698891910034 1 0 0 forward_v I I I I #
loop $-1 $-1 $267 $66 #
coedge $-1 $169 $169 $170 $268 reversed $103 $-1 #
coedge $-1 $170 $170 $169 $268 forward $105 $-1 #
coedge $-1 $171 $171 $106 $172 forward $166 $-1 #
edge $-1 $269 -1.3138026043115513e-015 $269 6.2831853071795996 $171 $270 forward 7 unknown #
loop $-1 $-1 $178 $107 #
plane-surface $-1 17.489865583006676 -33.759924397473576 4.1360593588167802 0 -0.5877852598018023 0.80901698891910034 1 0 0 forward_v I I I I #
loop $-1 $-1 $271 $69 #
coedge $-1 $176 $176 $177 $272 reversed $108 $-1 #
coedge $-1 $177 $177 $176 $272 forward $110 $-1 #
coedge $-1 $178 $178 $111 $179 forward $173 $-1 #
edge $-1 $273 -1.3138026043115513e-015 $273 6.2831853071795996 $178 $274 forward 7 unknown #
face $-1 $275 $276 $27 $-1 $277 reversed single #
loop $-1 $-1 $278 $112 #
plane-surface $-1 -53.496505630664998 0 0 1 0 0 0 0 -1 forward_v I I I I #
coedge $-1 $279 $191 $280 $281 forward $113 $-1 #
coedge $-1 $282 $115 $279 $283 forward $73 $-1 #
coedge $-1 $115 $282 $284 $285 forward $73 $-1 #
coedge $-1 $194 $193 $115 $187 reversed $195 $-1 #
edge $-1 $286 -33.759924397473583 $287 33.759924397473583 $186 $288 forward 7 unknown #
coedge $-1 $117 $116 $289 $290 forward $46 $-1 #
coedge $-1 $291 $292 $116 $190 reversed $276 $-1 #
edge $-1 $197 -53.496505630664998 $293 53.496505630664998 $189 $294 forward 7 unknown #
coedge $-1 $183 $295 $117 $192 reversed $113 $-1 #
edge $-1 $296 -53.496505630664998 $196 53.496505630664998 $191 $297 forward 7 unknown #
coedge $-1 $186 $118 $295 $298 forward $195 $-1 #
coedge $-1 $118 $186 $291 $299 reversed $195 $-1 #
loop $-1 $-1 $193 $275 #
vertex $-1 $119 $300 #
vertex $-1 $119 $301 #
straight-curve $-1 53.496505630664998 0 16.186053416068297 0 1 0 I I #
face $-1 $302 $303 $28 $-1 $304 reversed single #
loop $-1 $-1 $305 $120 #
plane-surface $-1 -63.658805184596318 0 2.3228678850108349 0 0 1 1 0 0 forward_v I I I I #
coedge $-1 $306 $123 $307 $308 reversed $77 $-1 #
coedge $-1 $123 $306 $208 $309 reversed $77 $-1 #
edge $-1 $210 -9.3372030788792575 $310 -2.3228678850108349 $123 $311 forward 7 unknown #
coedge $-1 $125 $124 $305 $312 forward $49 $-1 #
coedge $-1 $313 $314 $124 $207 forward $315 $-1 #
edge $-1 $316 2.3228678850108349 $211 9.3372030788792575 $206 $317 forward 7 unknown #
coedge $-1 $318 $126 $203 $309 forward $121 $-1 #
coedge $-1 $126 $318 $313 $319 forward $121 $-1 #
vertex $-1 $204 $320 #
vertex $-1 $319 $321 #
straight-curve $-1 -53.496505630664998 0 9.3372030788792575 0 -1 0 I I #
face $-1 $322 $323 $29 $-1 $324 reversed single #
loop $-1 $-1 $325 $128 #
plane-surface $-1 63.658805184596318 0 2.3228678850108349 0 0 1 1 0 0 forward_v I I I I #
coedge $-1 $224 $223 $326 $327 forward $129 $-1 #
coedge $-1 $328 $131 $329 $330 reversed $81 $-1 #
coedge $-1 $131 $328 $223 $331 reversed $81 $-1 #
edge $-1 $225 -9.3372030788792575 $332 -2.3228678850108349 $131 $333 forward 7 unknown #
coedge $-1 $133 $132 $334 $335 forward $52 $-1 #
coedge $-1 $336 $337 $132 $222 forward $338 $-1 #
edge $-1 $339 2.3228678850108349 $226 9.3372030788792575 $221 $340 forward 7 unknown #
coedge $-1 $216 $134 $218 $331 forward $129 $-1 #
coedge $-1 $134 $216 $336 $341 forward $129 $-1 #
vertex $-1 $219 $342 #
vertex $-1 $341 $343 #
straight-curve $-1 53.496505630664998 0 9.3372030788792575 0 1 0 I I #
face $-1 $-1 $344 $30 $-1 $345 reversed single #
loop $-1 $-1 $142 $136 #
plane-surface $-1 0 0 16.186053416068297 0 0 1 1 0 0 forward_v I I I I #
coedge $-1 $346 $347 $348 $349 reversed $137 $-1 #
coedge $-1 $350 $139 $141 $238 forward $85 $-1 #
coedge $-1 $139 $350 $346 $351 forward $85 $-1 #
coedge $-1 $348 $142 $139 $235 forward $229 $-1 #
edge $-1 $241 4.2435879884091197 $352 13.246277594597561 $234 $353 forward 7 unknown #
coedge $-1 $354 $355 $140 $237 forward $344 $-1 #
edge $-1 $356 -41.211552223605914 $240 -29.161558166354389 $236 $357 forward 7 unknown #
edge $-1 $241 -20.500674108967452 $356 8.8807605448725156e-015 $141 $358 forward 7 unknown #
coedge $-1 $142 $348 $354 $359 forward $229 $-1 #
vertex $-1 $237 $360 #
vertex $-1 $143 $361 #
straight-curve $-1 -12.988520779912461 -48.324419659345793 16.186053416068297 0 1 0 I I #
coedge $-1 $243 $243 $-1 $362 reversed $146 $-1 #
edge $-1 $363 0 $363 6.2831853071796004 $147 $364 forward 7 unknown #
vertex $-1 $150 $365 #
ellipse-curve $-1 -19.419013355761351 -25.467227578249275 10.161056387442533 0 -0.5877852598018023 0.80901698891910034 1 0 0 1 I I #
coedge $-1 $247 $247 $-1 $366 reversed $153 $-1 #
edge $-1 $367 0 $367 6.2831853071796004 $154 $368 forward 7 unknown #
vertex $-1 $157 $369 #
ellipse-curve $-1 -15.560717810252015 -25.467227578249275 10.161056387442533 0 -0.5877852598018023 0.80901698891910034 1 0 0 1 I I #
face $-1 $-1 $263 $33 $-1 $370 forward single #
loop $-1 $-1 $371 $158 #
plane-surface $-1 0 -33.759924397473583 0 0 1 0 0 0 1 forward_v I I I I #
coedge $-1 $372 $373 $374 $375 reversed $159 $-1 #
coedge $-1 $376 $161 $163 $261 forward $99 $-1 #
coedge $-1 $161 $376 $372 $377 forward $99 $-1 #
coedge $-1 $374 $164 $161 $258 forward $263 $-1 #
edge $-1 $265 -13.246277594597558 $378 -4.2435879884091161 $257 $379 forward 7 unknown #
coedge $-1 $380 $381 $162 $260 forward $252 $-1 #
edge $-1 $382 -41.211552223605914 $264 -29.161558166354389 $259 $383 forward 7 unknown #
edge $-1 $265 -20.500674108967452 $382 8.8807605448725156e-015 $163 $384 forward 7 unknown #
coedge $-1 $164 $374 $380 $385 forward $263 $-1 #
loop $-1 $-1 $374 $251 #
vertex $-1 $260 $386 #
vertex $-1 $165 $387 #
straight-curve $-1 21.991210386100896 -48.324419659345793 16.186053416068297 0 1 0 I I #
coedge $-1 $267 $267 $-1 $388 reversed $168 $-1 #
edge $-1 $389 0 $389 6.2831853071796004 $169 $390 forward 7 unknown #
vertex $-1 $172 $391 #
ellipse-curve $-1 15.560717810252015 -25.467227578249275 10.161056387442533 0 -0.5877852598018023 0.80901698891910034 1 0 0 1 I I #
coedge $-1 $271 $271 $-1 $392 reversed $175 $-1 #
edge $-1 $393 0 $393 6.2831853071796004 $176 $394 forward 7 unknown #
vertex $-1 $179 $395 #
ellipse-curve $-1 19.419013355761351 -25.467227578249275 10.161056387442533 0 -0.5877852598018023 0.80901698891910034 1 0 0 1 I I #
face $-1 $-1 $195 $27 $-1 $396 reversed single #
loop $-1 $-1 $291 $180 #
plane-surface $-1 0 33.759924397473583 0 0 -1 0 0 0 -1 forward_v I I I I #
coedge $-1 $397 $289 $292 $398 forward $181 $-1 #
coedge $-1 $295 $183 $184 $283 reversed $113 $-1 #
coedge $-1 $289 $397 $183 $281 reversed $181 $-1 #
edge $-1 $296 -16.186053416068297 $399 16.186053416068297 $280 $400 forward 7 unknown #
coedge $-1 $185 $184 $397 $401 forward $73 $-1 #
edge $-1 $287 -53.496505630664998 $399 53.496505630664998 $279 $402 forward 7 unknown #
coedge $-1 $292 $291 $185 $285 reversed $276 $-1 #
edge $-1 $403 -53.496505630664998 $286 53.496505630664998 $284 $404 forward 7 unknown #
vertex $-1 $187 $405 #
vertex $-1 $298 $406 #
straight-curve $-1 53.496505630664998 0 -16.186053416068297 0 -1 0 I I #
coedge $-1 $278 $280 $188 $290 reversed $181 $-1 #
edge $-1 $293 -33.759924397473583 $296 33.759924397473583 $289 $407 forward 7 unknown #
coedge $-1 $284 $189 $194 $299 forward $276 $-1 #
coedge $-1 $189 $284 $278 $398 reversed $276 $-1 #
vertex $-1 $190 $408 #
straight-curve $-1 0 33.759924397473583 16.186053416068297 -1 0 0 I I #
coedge $-1 $191 $279 $193 $298 reversed $113 $-1 #
vertex $-1 $290 $409 #
straight-curve $-1 0 -33.759924397473583 16.186053416068297 1 0 0 I I #
edge $-1 $196 -16.186053416068297 $287 16.186053416068297 $193 $410 forward 7 unknown #
edge $-1 $197 -16.186053416068297 $286 16.186053416068297 $194 $411 forward 7 unknown #
point $-1 53.496505630664998 -33.759924397473583 16.186053416068297 #
point $-1 53.496505630664998 33.759924397473583 16.186053416068297 #
face $-1 $-1 $315 $28 $-1 $412 reversed single #
loop $-1 $-1 $413 $199 #
plane-surface $-1 -73.821104738527637 0 5.8300354819450462 1 0 0 0 0 -1 forward_v I I I I #
coedge $-1 $414 $307 $205 $312 reversed $200 $-1 #
coedge $-1 $203 $202 $413 $415 reversed $77 $-1 #
coedge $-1 $305 $416 $202 $308 forward $200 $-1 #
edge $-1 $417 -10.162299553931319 $310 10.162299553931319 $202 $418 forward 7 unknown #
edge $-1 $210 -10.162299553931319 $419 10.162299553931319 $203 $420 forward 7 unknown #
vertex $-1 $204 $421 #
straight-curve $-1 -53.496505630664998 33.759924397473583 0 0 0 -1 I I #
edge $-1 $316 -33.759924397473583 $310 33.759924397473583 $305 $422 forward 7 unknown #
coedge $-1 $423 $206 $209 $319 reversed $315 $-1 #
coedge $-1 $206 $423 $414 $424 reversed $315 $-1 #
loop $-1 $-1 $206 $302 #
vertex $-1 $207 $425 #
straight-curve $-1 -53.496505630664998 -33.759924397473583 0 0 0 1 I I #
coedge $-1 $209 $208 $426 $427 forward $121 $-1 #
edge $-1 $428 -10.162299553931319 $211 10.162299553931319 $313 $429 forward 7 unknown #
point $-1 -53.496505630664998 33.759924397473583 9.3372030788792575 #
point $-1 -53.496505630664998 -33.759924397473583 9.3372030788792575 #
face $-1 $-1 $338 $29 $-1 $430 reversed single #
loop $-1 $-1 $431 $213 #
plane-surface $-1 73.821104738527637 0 5.8300354819450462 -1 0 0 0 0 1 forward_v I I I I #
coedge $-1 $329 $432 $433 $434 forward $214 $-1 #
coedge $-1 $431 $435 $216 $327 reversed $323 $-1 #
edge $-1 $436 -33.759924397473583 $437 33.759924397473583 $326 $438 forward 7 unknown #
coedge $-1 $218 $217 $431 $439 reversed $81 $-1 #
coedge $-1 $334 $325 $217 $330 forward $214 $-1 #
edge $-1 $440 -10.162299553931319 $332 10.162299553931319 $217 $441 forward 7 unknown #
edge $-1 $225 -10.162299553931319 $436 10.162299553931319 $218 $442 forward 7 unknown #
vertex $-1 $219 $443 #
straight-curve $-1 53.496505630664998 -33.759924397473583 0 0 0 -1 I I #
coedge $-1 $432 $329 $220 $335 reversed $214 $-1 #
edge $-1 $339 -33.759924397473583 $332 33.759924397473583 $334 $444 forward 7 unknown #
coedge $-1 $445 $221 $224 $341 reversed $338 $-1 #
coedge $-1 $221 $445 $432 $446 reversed $338 $-1 #
loop $-1 $-1 $221 $322 #
vertex $-1 $222 $447 #
straight-curve $-1 53.496505630664998 33.759924397473583 0 0 0 1 I I #
edge $-1 $437 -10.162299553931319 $226 10.162299553931319 $336 $448 forward 7 unknown #
point $-1 53.496505630664998 -33.759924397473583 9.3372030788792575 #
point $-1 53.496505630664998 33.759924397473583 9.3372030788792575 #
loop $-1 $-1 $236 $228 #
plane-surface $-1 0 -33.759924397473583 0 0 1 0 0 0 1 forward_v I I I I #
coedge $-1 $347 $231 $233 $351 reversed $137 $-1 #
coedge $-1 $231 $346 $449 $450 reversed $137 $-1 #
coedge $-1 $239 $234 $231 $349 forward $229 $-1 #
edge $-1 $352 -31.149888900320828 $451 -14.56449526187221 $348 $452 forward 7 unknown #
coedge $-1 $233 $232 $355 $453 reversed $85 $-1 #
edge $-1 $454 -8.8807605448725156e-015 $352 20.500674108967452 $346 $455 forward 7 unknown #
vertex $-1 $235 $456 #
straight-curve $-1 -8.7449327915033415 -17.174530759024965 16.186053416068297 -1 0 0 I I #
coedge $-1 $449 $236 $239 $359 reversed $344 $-1 #
coedge $-1 $236 $449 $350 $453 forward $344 $-1 #
vertex $-1 $237 $457 #
straight-curve $-1 -12.988520779912461 -33.759924397473583 45.347611582422687 0 0 1 I I #
straight-curve $-1 -12.988520779912461 -33.759924397473576 4.1360593588167802 0 -0.80901698891910034 -0.5877852598018023 I I #
edge $-1 $451 -21.991210386100903 $240 -12.988520779912461 $354 $458 forward 7 unknown #
point $-1 -12.988520779912461 -33.759924397473583 16.186053416068297 #
point $-1 -12.988520779912461 -17.174530759024965 16.186053416068297 #
edge $-1 $459 1 $459 0 $243 $-1 forward 7 unknown #
vertex $-1 $244 $460 #
ellipse-curve $-1 -19.419013355761351 -23.455551496361618 7.3922218525341474 0 -0.5877852598018023 0.80901698891910034 1 0 0 1 I I #
point $-1 -18.419013355761351 -25.467227578249286 10.161056387442546 #
edge $-1 $461 1 $461 0 $247 $-1 forward 7 unknown #
vertex $-1 $248 $462 #
ellipse-curve $-1 -15.560717810252015 -23.455551496361618 7.3922218525341474 0 -0.5877852598018023 0.80901698891910034 1 0 0 1 I I #
point $-1 -14.560717810252015 -25.467227578249286 10.161056387442546 #
plane-surface $-1 0 0 16.186053416068297 0 0 1 1 0 0 forward_v I I I I #
coedge $-1 $381 $380 $373 $463 forward $252 $-1 #
coedge $-1 $373 $254 $256 $377 reversed $159 $-1 #
coedge $-1 $254 $372 $371 $463 reversed $159 $-1 #
coedge $-1 $262 $257 $254 $375 forward $263 $-1 #
edge $-1 $378 -31.149888900320828 $464 -14.56449526187221 $374 $465 forward 7 unknown #
coedge $-1 $256 $255 $381 $466 reversed $99 $-1 #
edge $-1 $467 -8.8807605448725156e-015 $378 20.500674108967452 $372 $468 forward 7 unknown #
vertex $-1 $258 $469 #
straight-curve $-1 8.7449327915033379 -17.174530759024965 16.186053416068297 -1 0 0 I I #
coedge $-1 $371 $259 $262 $385 reversed $252 $-1 #
coedge $-1 $259 $371 $376 $466 forward $252 $-1 #
vertex $-1 $260 $470 #
straight-curve $-1 21.991210386100896 -33.759924397473583 45.347611582422687 0 0 1 I I #
straight-curve $-1 21.991210386100896 -33.759924397473576 4.1360593588167802 0 -0.80901698891910034 -0.5877852598018023 I I #
edge $-1 $464 12.988520779912454 $264 21.991210386100896 $380 $471 forward 7 unknown #
point $-1 21.991210386100896 -33.759924397473583 16.186053416068297 #
point $-1 21.991210386100896 -17.174530759024965 16.186053416068297 #
edge $-1 $472 1 $472 0 $267 $-1 forward 7 unknown #
vertex $-1 $268 $473 #
ellipse-curve $-1 15.560717810252015 -23.455551496361618 7.3922218525341474 0 -0.5877852598018023 0.80901698891910034 1 0 0 1 I I #
point $-1 16.560717810252015 -25.467227578249286 10.161056387442546 #
edge $-1 $474 1 $474 0 $271 $-1 forward 7 unknown #
vertex $-1 $272 $475 #
ellipse-curve $-1 19.419013355761351 -23.455551496361618 7.3922218525341474 0 -0.5877852598018023 0.80901698891910034 1 0 0 1 I I #
point $-1 20.419013355761351 -25.467227578249286 10.161056387442546 #
plane-surface $-1 53.496505630664998 0 0 -1 0 0 0 0 1 forward_v I I I I #
coedge $-1 $280 $278 $282 $401 reversed $181 $-1 #
edge $-1 $293 -16.186053416068297 $403 16.186053416068297 $292 $476 forward 7 unknown #
vertex $-1 $401 $477 #
straight-curve $-1 -53.496505630664998 -33.759924397473583 0 0 0 -1 I I #
edge $-1 $399 -33.759924397473583 $403 33.759924397473583 $397 $478 forward 7 unknown #
straight-curve $-1 0 -33.759924397473583 -16.186053416068297 -1 0 0 I I #
vertex $-1 $285 $479 #
straight-curve $-1 0 33.759924397473583 -16.186053416068297 1 0 0 I I #
point $-1 53.496505630664998 33.759924397473583 -16.186053416068297 #
point $-1 53.496505630664998 -33.759924397473583 -16.186053416068297 #
straight-curve $-1 -53.496505630664998 0 16.186053416068297 0 -1 0 I I #
point $-1 -53.496505630664998 33.759924397473583 16.186053416068297 #
point $-1 -53.496505630664998 -33.759924397473583 16.186053416068297 #
straight-curve $-1 53.496505630664998 -33.759924397473583 0 0 0 -1 I I #
straight-curve $-1 53.496505630664998 33.759924397473583 0 0 0 -1 I I #
plane-surface $-1 0 -33.759924397473583 0 0 1 0 0 0 1 forward_v I I I I #
coedge $-1 $480 $426 $306 $415 forward $303 $-1 #
coedge $-1 $416 $305 $314 $424 forward $200 $-1 #
edge $-1 $419 -3.5071675969342113 $417 3.5071675969342113 $306 $481 forward 7 unknown #
coedge $-1 $307 $414 $480 $482 forward $200 $-1 #
vertex $-1 $308 $483 #
straight-curve $-1 -63.658805184596318 33.759924397473583 2.3228678850108349 1 0 0 I I #
vertex $-1 $309 $484 #
straight-curve $-1 -63.658805184596318 33.759924397473583 9.3372030788792575 -1 0 0 I I #
point $-1 -53.496505630664998 33.759924397473583 2.3228678850108349 #
straight-curve $-1 -53.496505630664998 0 2.3228678850108349 0 1 0 I I #
coedge $-1 $314 $313 $485 $486 forward $315 $-1 #
edge $-1 $316 -10.162299553931319 $487 10.162299553931319 $314 $488 forward 7 unknown #
point $-1 -53.496505630664998 -33.759924397473583 2.3228678850108349 #
coedge $-1 $413 $485 $318 $427 reversed $303 $-1 #
edge $-1 $419 -33.759924397473583 $428 33.759924397473583 $426 $489 forward 7 unknown #
vertex $-1 $427 $490 #
straight-curve $-1 -63.658805184596318 -33.759924397473583 9.3372030788792575 1 0 0 I I #
plane-surface $-1 0 33.759924397473583 0 0 -1 0 0 0 -1 forward_v I I I I #
coedge $-1 $433 $326 $328 $439 forward $323 $-1 #
coedge $-1 $325 $334 $337 $446 forward $214 $-1 #
coedge $-1 $435 $431 $325 $434 reversed $323 $-1 #
edge $-1 $491 -33.759924397473583 $440 33.759924397473583 $433 $492 forward 7 unknown #
coedge $-1 $326 $433 $445 $493 reversed $323 $-1 #
vertex $-1 $327 $494 #
vertex $-1 $327 $495 #
straight-curve $-1 73.821104738527637 0 9.3372030788792575 0 1 0 I I #
edge $-1 $436 -3.5071675969342113 $440 3.5071675969342113 $431 $496 forward 7 unknown #
vertex $-1 $439 $497 #
straight-curve $-1 63.658805184596318 -33.759924397473583 2.3228678850108349 -1 0 0 I I #
straight-curve $-1 63.658805184596318 -33.759924397473583 9.3372030788792575 1 0 0 I I #
point $-1 53.496505630664998 -33.759924397473583 2.3228678850108349 #
straight-curve $-1 53.496505630664998 0 2.3228678850108349 0 -1 0 I I #
coedge $-1 $337 $336 $435 $493 forward $338 $-1 #
edge $-1 $339 -10.162299553931319 $491 10.162299553931319 $337 $498 forward 7 unknown #
point $-1 53.496505630664998 33.759924397473583 2.3228678850108349 #
straight-curve $-1 63.658805184596318 33.759924397473583 9.3372030788792575 -1 0 0 I I #
coedge $-1 $355 $354 $347 $450 forward $344 $-1 #
edge $-1 $451 29.161558166354389 $454 41.211552223605914 $449 $499 forward 7 unknown #
vertex $-1 $359 $500 #
straight-curve $-1 -21.991210386100903 -48.324419659345793 16.186053416068297 0 -1 0 I I #
edge $-1 $454 -13.246277594597561 $356 -4.2435879884091197 $355 $501 forward 7 unknown #
vertex $-1 $453 $502 #
straight-curve $-1 -21.991210386100903 -33.759924397473576 4.1360593588167802 0 0.80901698891910034 0.5877852598018023 I I #
point $-1 -21.991210386100903 -17.174530759024965 16.186053416068297 #
point $-1 -12.988520779912461 -33.759924397473583 4.1360593588167749 #
straight-curve $-1 0 -33.759924397473583 16.186053416068297 1 0 0 I I #
vertex $-1 $362 $503 #
point $-1 -18.419013355761351 -23.455551496361618 7.3922218525341474 #
vertex $-1 $366 $504 #
point $-1 -14.560717810252015 -23.455551496361618 7.3922218525341474 #
edge $-1 $464 29.161558166354389 $467 41.211552223605914 $371 $505 forward 7 unknown #
vertex $-1 $385 $506 #
straight-curve $-1 12.988520779912454 -48.324419659345793 16.186053416068297 0 -1 0 I I #
edge $-1 $467 4.2435879884091161 $382 13.246277594597558 $381 $507 forward 7 unknown #
vertex $-1 $466 $508 #
straight-curve $-1 12.988520779912454 -33.759924397473576 4.1360593588167802 0 0.80901698891910034 0.5877852598018023 I I #
point $-1 12.988520779912454 -17.174530759024965 16.186053416068297 #
point $-1 21.991210386100896 -33.759924397473583 4.1360593588167749 #
straight-curve $-1 0 -33.759924397473583 16.186053416068297 1 0 0 I I #
vertex $-1 $388 $509 #
point $-1 16.560717810252015 -23.455551496361618 7.3922218525341474 #
vertex $-1 $392 $510 #
point $-1 20.419013355761351 -23.455551496361618 7.3922218525341474 #
straight-curve $-1 -53.496505630664998 33.759924397473583 0 0 0 -1 I I #
point $-1 -53.496505630664998 -33.759924397473583 -16.186053416068297 #
straight-curve $-1 -53.496505630664998 0 -16.186053416068297 0 1 0 I I #
point $-1 -53.496505630664998 33.759924397473583 -16.186053416068297 #
coedge $-1 $485 $413 $416 $482 reversed $303 $-1 #
straight-curve $-1 -73.821104738527637 33.759924397473583 5.8300354819450462 0 0 -1 I I #
edge $-1 $487 -33.759924397473583 $417 33.759924397473583 $480 $511 forward 7 unknown #
point $-1 -73.821104738527637 33.759924397473583 2.3228678850108349 #
point $-1 -73.821104738527637 33.759924397473583 9.3372030788792575 #
coedge $-1 $426 $480 $423 $486 reversed $303 $-1 #
edge $-1 $428 -3.5071675969342113 $487 3.5071675969342113 $485 $512 forward 7 unknown #
vertex $-1 $482 $513 #
straight-curve $-1 -63.658805184596318 -33.759924397473583 2.3228678850108349 -1 0 0 I I #
straight-curve $-1 -73.821104738527637 0 9.3372030788792575 0 -1 0 I I #
point $-1 -73.821104738527637 -33.759924397473583 9.3372030788792575 #
vertex $-1 $434 $514 #
straight-curve $-1 73.821104738527637 0 2.3228678850108349 0 -1 0 I I #
edge $-1 $437 -3.5071675969342113 $491 3.5071675969342113 $435 $515 forward 7 unknown #
point $-1 73.821104738527637 -33.759924397473583 9.3372030788792575 #
point $-1 73.821104738527637 33.759924397473583 9.3372030788792575 #
straight-curve $-1 73.821104738527637 -33.759924397473583 5.8300354819450462 0 0 -1 I I #
point $-1 73.821104738527637 -33.759924397473583 2.3228678850108349 #
straight-curve $-1 63.658805184596318 33.759924397473583 2.3228678850108349 1 0 0 I I #
straight-curve $-1 -21.991210386100903 -33.759924397473583 45.347611582422687 0 0 -1 I I #
point $-1 -21.991210386100903 -33.759924397473583 16.186053416068297 #
straight-curve $-1 -8.7449327915033415 -33.759924397473583 4.1360593588167749 1 0 0 I I #
point $-1 -21.991210386100903 -33.759924397473583 4.1360593588167749 #
point $-1 -19.419013355761351 -22.867766236559813 6.5832048636150464 #
point $-1 -15.560717810252015 -22.867766236559813 6.5832048636150464 #
straight-curve $-1 12.988520779912454 -33.759924397473583 45.347611582422687 0 0 -1 I I #
point $-1 12.988520779912454 -33.759924397473583 16.186053416068297 #
straight-curve $-1 8.7449327915033379 -33.759924397473583 4.1360593588167749 1 0 0 I I #
point $-1 12.988520779912454 -33.759924397473583 4.1360593588167749 #
point $-1 15.560717810252015 -22.867766236559813 6.5832048636150464 #
point $-1 19.419013355761351 -22.867766236559813 6.5832048636150464 #
straight-curve $-1 -73.821104738527637 0 2.3228678850108349 0 1 0 I I #
straight-curve $-1 -73.821104738527637 -33.759924397473583 5.8300354819450462 0 0 -1 I I #
point $-1 -73.821104738527637 -33.759924397473583 2.3228678850108349 #
point $-1 73.821104738527637 33.759924397473583 2.3228678850108349 #
straight-curve $-1 73.821104738527637 33.759924397473583 5.8300354819450462 0 0 -1 I I #
End-of-ACIS-data 