500 0 6 0           
7 Unknown 11 ACIS 5.0 NT 24 Fri Mar 26 03:10:19 1999 
-1 9.9999999999999995e-007 1e-010 
body $-1 $6 $-1 $7 #
body $-1 $8 $-1 $9 #
body $-1 $10 $-1 $11 #
body $-1 $12 $-1 $13 #
body $-1 $14 $-1 $15 #
body $-1 $16 $-1 $17 #
lump $-1 $-1 $18 $0 #
transform $-1 1 0 0 0 1 0 0 0 1 64.651631214331502 34.788603353426581 12.742797754717607 1 rotate no_reflect no_shear #
lump $-1 $-1 $19 $1 #
transform $-1 1 0 0 0 1 0 0 0 1 64.651631214331502 34.788603353426581 12.742797754717607 1 rotate no_reflect no_shear #
lump $-1 $-1 $20 $2 #
transform $-1 1 0 0 0 1 0 0 0 1 64.651631214331502 34.788603353426581 12.742797754717607 1 rotate no_reflect no_shear #
lump $-1 $-1 $21 $3 #
transform $-1 1 0 0 0 1 0 0 0 1 64.651631214331502 34.788603353426581 12.742797754717607 1 rotate no_reflect no_shear #
lump $-1 $-1 $22 $4 #
transform $-1 1 0 0 0 1 0 0 0 1 64.651631214331502 34.788603353426581 12.742797754717607 1 rotate no_reflect no_shear #
lump $-1 $-1 $23 $5 #
transform $-1 1 0 0 0 1 0 0 0 1 64.651631214331502 34.788603353426581 12.742797754717607 1 rotate no_reflect no_shear #
shell $-1 $-1 $-1 $24 $-1 $6 #
shell $-1 $-1 $-1 $25 $-1 $8 #
shell $-1 $-1 $-1 $26 $-1 $10 #
shell $-1 $-1 $-1 $27 $-1 $12 #
shell $-1 $-1 $-1 $28 $-1 $14 #
shell $-1 $-1 $-1 $29 $-1 $16 #
face $-1 $30 $31 $18 $-1 $32 forward single #
face $-1 $33 $34 $19 $-1 $35 forward single #
face $-1 $36 $37 $20 $-1 $38 reversed single #
face $-1 $39 $40 $21 $-1 $41 forward single #
face $-1 $42 $43 $22 $-1 $44 reversed single #
face $-1 $45 $46 $23 $-1 $47 forward single #
face $-1 $48 $49 $18 $-1 $50 reversed single #
loop $-1 $-1 $51 $24 #
plane-surface $-1 0 0 12.742797754717607 0 0 1 1 0 0 forward_v I I I I #
face $-1 $52 $53 $19 $-1 $54 reversed single #
loop $-1 $-1 $55 $25 #
plane-surface $-1 0 -27.765520057675246 -4.3760719643192836 0 0 1 1 0 0 forward_v I I I I #
face $-1 $56 $57 $20 $-1 $58 reversed single #
loop $-1 $-1 $59 $26 #
plane-surface $-1 -154.47322584326457 -20.742436761923912 100.81090712559757 0 1 0 -0.69465837861970381 0 0.71933979245794832 forward_v I I I I #
face $-1 $60 $61 $21 $-1 $62 forward single #
loop $-1 $63 $64 $27 #
cone-surface $-1 -61.347569905062869 -17.707628986182989 9.5001561538570272 0.69465837861970381 0 -0.71933979245794832 0.71933979245794832 0 0.69465837861970381 1 I I 0 1 1 forward I I I I #
face $-1 $65 $66 $22 $-1 $67 reversed single #
loop $-1 $-1 $68 $28 #
plane-surface $-1 61.460243883694517 -14.672821210442066 190.63250175453069 0 -1 0 -0.69465837861970381 0 -0.71933979245794832 forward_v I I I I #
face $-1 $69 $70 $23 $-1 $71 forward single #
loop $-1 $72 $73 $29 #
cone-surface $-1 61.347569905062876 -17.707628986182989 9.5001561538570272 -0.69465837861970381 0 -0.71933979245794832 0.71933979245794832 0 -0.69465837861970381 1 I I 0 1 1 forward I I I I #
face $-1 $74 $75 $18 $-1 $76 reversed single #
loop $-1 $-1 $77 $30 #
plane-surface $-1 0 0 -12.742797754717607 0 0 1 1 0 0 forward_v I I I I #
coedge $-1 $78 $79 $80 $81 forward $31 $-1 #
face $-1 $82 $83 $19 $-1 $84 reversed single #
loop $-1 $-1 $85 $33 #
plane-surface $-1 0 -27.765520057675246 -10.065161241755845 0 0 1 1 0 0 forward_v I I I I #
coedge $-1 $86 $87 $88 $89 reversed $34 $-1 #
face $-1 $90 $91 $20 $-1 $92 reversed single #
loop $-1 $-1 $93 $36 #
plane-surface $-1 -64.651631214331459 -17.707628986182989 7.7979251660274969 -0.69465837861970381 0 0.71933979245794832 0.71933979245794832 0 0.69465837861970381 forward_v I I I I #
coedge $-1 $94 $95 $96 $97 reversed $37 $-1 #
face $-1 $-1 $98 $21 $-1 $99 forward single #
loop $-1 $100 $101 $39 #
cone-surface $-1 -60.256462080067912 -17.707628986182989 8.3702809511125125 0.69465837861970381 0 -0.71933979245794832 0.35966989622897416 0 0.3473291893098519 1 I I -0.70710678118654746 0.70710678118654746 0.5 forward I I I I #
loop $-1 $-1 $102 $27 #
coedge $-1 $64 $64 $103 $104 reversed $40 $-1 #
face $-1 $105 $106 $22 $-1 $107 reversed single #
loop $-1 $-1 $108 $42 #
plane-surface $-1 -28.361350745238596 -17.707628986182989 97.619519794960624 0.69465837861970381 0 0.71933979245794832 0.71933979245794832 0 -0.69465837861970381 forward_v I I I I #
coedge $-1 $109 $110 $111 $112 reversed $43 $-1 #
face $-1 $-1 $113 $23 $-1 $114 forward single #
loop $-1 $115 $116 $45 #
cone-surface $-1 60.256462080067919 -17.707628986182989 8.3702809511125125 -0.69465837861970381 0 -0.71933979245794832 0.35966989622897416 0 -0.3473291893098519 1 I I -0.70710678118654746 0.70710678118654746 0.5 forward I I I I #
loop $-1 $-1 $117 $29 #
coedge $-1 $73 $73 $118 $119 reversed $46 $-1 #
face $-1 $120 $121 $18 $-1 $122 reversed single #
loop $-1 $-1 $123 $48 #
plane-surface $-1 0 -34.788603353426581 0 0 1 0 0 0 1 forward_v I I I I #
coedge $-1 $124 $125 $126 $127 forward $49 $-1 #
coedge $-1 $128 $51 $129 $130 forward $31 $-1 #
coedge $-1 $51 $128 $131 $132 forward $31 $-1 #
coedge $-1 $133 $134 $51 $81 reversed $135 $-1 #
edge $-1 $136 -34.788603353426581 $137 34.788603353426581 $80 $138 forward 7 unknown #
face $-1 $139 $140 $19 $-1 $141 reversed single #
loop $-1 $-1 $142 $52 #
plane-surface $-1 0 -20.742436761923912 -7.2206166030375645 0 -1 0 0 0 -1 forward_v I I I I #
coedge $-1 $143 $144 $145 $146 reversed $53 $-1 #
coedge $-1 $147 $55 $148 $149 forward $34 $-1 #
coedge $-1 $55 $147 $150 $151 reversed $34 $-1 #
coedge $-1 $152 $153 $55 $89 forward $154 $-1 #
edge $-1 $155 6.8596767330862889 $156 20.905843324588957 $88 $157 forward 7 unknown #
face $-1 $158 $159 $20 $-1 $160 reversed single #
loop $-1 $-1 $161 $56 #
plane-surface $-1 -154.47322584326457 -14.672821210442066 100.81090712559757 0 -1 0 0.69465837861970381 0 -0.71933979245794832 forward_v I I I I #
coedge $-1 $162 $163 $164 $165 reversed $57 $-1 #
coedge $-1 $95 $59 $166 $167 reversed $37 $-1 #
coedge $-1 $59 $94 $162 $168 reversed $37 $-1 #
coedge $-1 $164 $169 $59 $97 forward $170 $-1 #
edge $-1 $171 12.584981707300784 $172 17.705547054467928 $96 $173 forward 7 unknown #
loop $-1 $-1 $103 $60 #
plane-surface $-1 -64.651631214331459 -17.707628986182989 7.7979251660274969 -0.69465837861970381 0 0.71933979245794832 0.71933979245794832 0 0.69465837861970381 forward_v I I I I #
loop $-1 $-1 $174 $39 #
coedge $-1 $101 $101 $102 $175 reversed $61 $-1 #
coedge $-1 $102 $102 $101 $175 forward $63 $-1 #
coedge $-1 $103 $103 $64 $104 forward $98 $-1 #
edge $-1 $176 0 $176 6.2831853071796004 $103 $177 forward 7 unknown #
face $-1 $178 $179 $22 $-1 $180 forward single #
loop $-1 $-1 $181 $65 #
plane-surface $-1 61.460243883694517 -20.742436761923912 190.63250175453069 0 1 0 0.69465837861970381 0 0.71933979245794832 forward_v I I I I #
coedge $-1 $182 $183 $184 $185 reversed $66 $-1 #
coedge $-1 $110 $68 $186 $187 reversed $43 $-1 #
coedge $-1 $68 $109 $182 $188 reversed $43 $-1 #
coedge $-1 $184 $189 $68 $112 forward $179 $-1 #
edge $-1 $190 -33.921509272484244 $191 -28.800943925317128 $111 $192 forward 7 unknown #
loop $-1 $-1 $118 $69 #
plane-surface $-1 -28.361350745238596 -17.707628986182989 97.619519794960624 0.69465837861970381 0 0.71933979245794832 0.71933979245794832 0 -0.69465837861970381 forward_v I I I I #
loop $-1 $-1 $193 $45 #
coedge $-1 $116 $116 $117 $194 reversed $70 $-1 #
coedge $-1 $117 $117 $116 $194 forward $72 $-1 #
coedge $-1 $118 $118 $73 $119 forward $113 $-1 #
edge $-1 $195 0 $195 6.2831853071796004 $118 $196 forward 7 unknown #
face $-1 $197 $198 $18 $-1 $199 reversed single #
loop $-1 $-1 $200 $74 #
plane-surface $-1 -64.651631214331502 0 0 1 0 0 0 0 -1 forward_v I I I I #
coedge $-1 $201 $131 $202 $203 forward $75 $-1 #
coedge $-1 $204 $77 $201 $205 forward $49 $-1 #
coedge $-1 $77 $204 $206 $207 forward $49 $-1 #
coedge $-1 $134 $133 $77 $127 reversed $135 $-1 #
edge $-1 $208 -34.788603353426581 $209 34.788603353426581 $126 $210 forward 7 unknown #
coedge $-1 $79 $78 $211 $212 forward $31 $-1 #
coedge $-1 $213 $214 $78 $130 reversed $198 $-1 #
edge $-1 $137 -64.651631214331502 $215 64.651631214331502 $129 $216 forward 7 unknown #
coedge $-1 $123 $217 $79 $132 reversed $75 $-1 #
edge $-1 $218 -64.651631214331502 $136 64.651631214331502 $131 $219 forward 7 unknown #
coedge $-1 $126 $80 $217 $220 forward $135 $-1 #
coedge $-1 $80 $126 $213 $221 reversed $135 $-1 #
loop $-1 $-1 $133 $197 #
vertex $-1 $81 $222 #
vertex $-1 $81 $223 #
straight-curve $-1 64.651631214331502 0 12.742797754717607 0 1 0 I I #
face $-1 $224 $225 $19 $-1 $226 reversed single #
loop $-1 $-1 $227 $82 #
plane-surface $-1 -64.651631214331502 0 0 1 0 0 0 0 -1 forward_v I I I I #
coedge $-1 $228 $148 $153 $229 reversed $83 $-1 #
coedge $-1 $230 $85 $231 $232 reversed $53 $-1 #
coedge $-1 $85 $230 $228 $233 forward $53 $-1 #
coedge $-1 $153 $152 $85 $146 forward $154 $-1 #
edge $-1 $234 -20.905843324588957 $235 -6.8596767330862889 $145 $236 forward 7 unknown #
coedge $-1 $87 $86 $227 $237 reversed $34 $-1 #
coedge $-1 $142 $238 $86 $149 reversed $83 $-1 #
edge $-1 $155 -64.651631214331502 $239 64.651631214331502 $148 $240 forward 7 unknown #
coedge $-1 $241 $242 $87 $151 forward $225 $-1 #
edge $-1 $156 -64.651631214331502 $243 64.651631214331502 $150 $244 forward 7 unknown #
coedge $-1 $145 $88 $242 $245 forward $154 $-1 #
coedge $-1 $88 $145 $142 $229 forward $154 $-1 #
loop $-1 $-1 $88 $224 #
vertex $-1 $89 $246 #
vertex $-1 $245 $247 #
straight-curve $-1 64.651631214331502 -13.882760028837623 -4.3760719643192836 0 -1 0 I I #
face $-1 $-1 $170 $20 $-1 $248 forward single #
loop $-1 $-1 $249 $90 #
plane-surface $-1 -64.651631214331502 0 0 1 0 0 0 0 -1 forward_v I I I I #
coedge $-1 $250 $251 $252 $253 reversed $91 $-1 #
coedge $-1 $254 $93 $95 $168 forward $57 $-1 #
coedge $-1 $93 $254 $250 $255 forward $57 $-1 #
coedge $-1 $252 $96 $93 $165 forward $170 $-1 #
edge $-1 $172 -11.888622268832417 $256 -5.8190067173505717 $164 $257 forward 7 unknown #
coedge $-1 $258 $259 $94 $167 forward $159 $-1 #
edge $-1 $260 -42.607528396771329 $171 -37.662655808081176 $166 $261 forward 7 unknown #
edge $-1 $172 -7.1184235890390344 $260 5.9048406568329785e-014 $95 $262 forward 7 unknown #
coedge $-1 $96 $252 $258 $263 forward $170 $-1 #
loop $-1 $-1 $252 $158 #
vertex $-1 $167 $264 #
vertex $-1 $97 $265 #
straight-curve $-1 -77.236612921632286 -20.742436761923912 12.742797754717607 1 0 0 I I #
coedge $-1 $174 $174 $-1 $266 reversed $100 $-1 #
edge $-1 $267 0 $267 6.2831853071796004 $101 $268 forward 7 unknown #
vertex $-1 $104 $269 #
ellipse-curve $-1 -62.09134854074793 -17.707628986182989 10.270361460372527 -0.69465837861970381 0 0.71933979245794832 0.71933979245794832 0 0.69465837861970381 1 I I #
face $-1 $-1 $270 $22 $-1 $271 reversed single #
loop $-1 $-1 $111 $105 #
plane-surface $-1 0 0 12.742797754717607 0 0 1 1 0 0 forward_v I I I I #
coedge $-1 $272 $273 $274 $275 reversed $106 $-1 #
coedge $-1 $276 $108 $110 $188 forward $66 $-1 #
coedge $-1 $108 $276 $272 $277 forward $66 $-1 #
coedge $-1 $274 $111 $108 $185 forward $179 $-1 #
edge $-1 $191 5.8190067173505717 $278 11.888622268832417 $184 $279 forward 7 unknown #
coedge $-1 $280 $281 $109 $187 forward $270 $-1 #
edge $-1 $282 -87.51832571123785 $190 -82.573453122547733 $186 $283 forward 7 unknown #
edge $-1 $191 122.18483883962398 $282 129.30326242866303 $110 $284 forward 7 unknown #
coedge $-1 $111 $274 $280 $285 forward $179 $-1 #
vertex $-1 $187 $286 #
vertex $-1 $112 $287 #
straight-curve $-1 30.730121941847258 -14.672821210442066 12.7427977547176 -1 0 0 I I #
coedge $-1 $193 $193 $-1 $288 reversed $115 $-1 #
edge $-1 $289 0 $289 6.2831853071796004 $116 $290 forward 7 unknown #
vertex $-1 $119 $291 #
ellipse-curve $-1 62.091348540747951 -17.707628986182989 10.270361460372539 0.69465837861970381 0 0.71933979245794832 0.71933979245794832 0 -0.69465837861970381 1 I I #
face $-1 $-1 $135 $18 $-1 $292 reversed single #
loop $-1 $-1 $213 $120 #
plane-surface $-1 0 34.788603353426581 0 0 -1 0 0 0 -1 forward_v I I I I #
coedge $-1 $293 $211 $214 $294 forward $121 $-1 #
coedge $-1 $217 $123 $124 $205 reversed $75 $-1 #
coedge $-1 $211 $293 $123 $203 reversed $121 $-1 #
edge $-1 $218 -12.742797754717607 $295 12.742797754717607 $202 $296 forward 7 unknown #
coedge $-1 $125 $124 $293 $297 forward $49 $-1 #
edge $-1 $209 -64.651631214331502 $295 64.651631214331502 $201 $298 forward 7 unknown #
coedge $-1 $214 $213 $125 $207 reversed $198 $-1 #
edge $-1 $299 -64.651631214331502 $208 64.651631214331502 $206 $300 forward 7 unknown #
vertex $-1 $127 $301 #
vertex $-1 $220 $302 #
straight-curve $-1 64.651631214331502 0 -12.742797754717607 0 -1 0 I I #
coedge $-1 $200 $202 $128 $212 reversed $121 $-1 #
edge $-1 $215 -34.788603353426581 $218 34.788603353426581 $211 $303 forward 7 unknown #
coedge $-1 $206 $129 $134 $221 forward $198 $-1 #
coedge $-1 $129 $206 $200 $294 reversed $198 $-1 #
vertex $-1 $130 $304 #
straight-curve $-1 0 34.788603353426581 12.742797754717607 -1 0 0 I I #
coedge $-1 $131 $201 $133 $220 reversed $75 $-1 #
vertex $-1 $212 $305 #
straight-curve $-1 0 -34.788603353426581 12.742797754717607 1 0 0 I I #
edge $-1 $136 -12.742797754717607 $209 12.742797754717607 $133 $306 forward 7 unknown #
edge $-1 $137 -12.742797754717607 $208 12.742797754717607 $134 $307 forward 7 unknown #
point $-1 64.651631214331502 -34.788603353426581 12.742797754717607 #
point $-1 64.651631214331502 34.788603353426581 12.742797754717607 #
face $-1 $-1 $154 $19 $-1 $308 reversed single #
loop $-1 $-1 $150 $139 #
plane-surface $-1 0 -34.788603353426581 0 0 1 0 0 0 1 forward_v I I I I #
coedge $-1 $309 $310 $147 $237 forward $140 $-1 #
coedge $-1 $238 $142 $144 $233 reversed $83 $-1 #
edge $-1 $235 -6.4548529402370631 $155 -0.76576366280050134 $153 $311 forward 7 unknown #
coedge $-1 $144 $143 $312 $313 reversed $53 $-1 #
coedge $-1 $242 $241 $143 $232 forward $225 $-1 #
edge $-1 $314 -64.651631214331502 $234 64.651631214331502 $231 $315 forward 7 unknown #
edge $-1 $316 -64.651631214331502 $235 64.651631214331502 $228 $317 forward 7 unknown #
vertex $-1 $232 $318 #
vertex $-1 $146 $319 #
straight-curve $-1 64.651631214331502 -13.882760028837623 -10.065161241755845 0 1 0 I I #
edge $-1 $243 -20.905843324588957 $239 -6.8596767330862889 $227 $320 forward 7 unknown #
coedge $-1 $148 $228 $309 $321 reversed $83 $-1 #
vertex $-1 $237 $322 #
straight-curve $-1 0 -20.742436761923912 -4.3760719643192836 -1 0 0 I I #
coedge $-1 $231 $150 $310 $323 forward $225 $-1 #
coedge $-1 $150 $231 $152 $245 reversed $225 $-1 #
vertex $-1 $323 $324 #
straight-curve $-1 0 -34.788603353426581 -4.3760719643192836 -1 0 0 I I #
edge $-1 $156 4.3760719643192836 $234 10.065161241755845 $152 $325 forward 7 unknown #
point $-1 64.651631214331502 -20.742436761923912 -4.3760719643192836 #
point $-1 64.651631214331502 -34.788603353426581 -4.3760719643192836 #
plane-surface $-1 0 0 12.742797754717607 0 0 1 1 0 0 forward_v I I I I #
coedge $-1 $259 $258 $251 $326 forward $159 $-1 #
coedge $-1 $251 $161 $163 $255 reversed $91 $-1 #
coedge $-1 $161 $250 $249 $326 reversed $91 $-1 #
coedge $-1 $169 $164 $161 $253 forward $170 $-1 #
edge $-1 $256 -17.705547054467928 $327 -12.584981707300784 $252 $328 forward 7 unknown #
coedge $-1 $163 $162 $259 $329 reversed $57 $-1 #
edge $-1 $330 -5.9048406568329785e-014 $256 7.1184235890390344 $250 $331 forward 7 unknown #
vertex $-1 $165 $332 #
straight-curve $-1 -59.531065867164358 -8.8538144930914946 12.742797754717607 0 1 0 I I #
coedge $-1 $249 $166 $169 $263 reversed $159 $-1 #
coedge $-1 $166 $249 $254 $329 forward $159 $-1 #
vertex $-1 $167 $333 #
straight-curve $-1 -64.651631214331502 -20.742436761923912 50.405453562798783 0 0 1 I I #
straight-curve $-1 -64.651631214331459 -20.742436761923912 7.7979251660274969 -0.71933979245794832 0 -0.69465837861970381 I I #
edge $-1 $327 14.672821210442066 $171 20.742436761923912 $258 $334 forward 7 unknown #
point $-1 -64.651631214331502 -20.742436761923912 12.742797754717607 #
point $-1 -59.531065867164358 -20.742436761923912 12.742797754717607 #
edge $-1 $335 1 $335 0 $174 $-1 forward 7 unknown #
vertex $-1 $175 $336 #
ellipse-curve $-1 -60.603791269377766 -17.707628986182989 8.7299508473414864 -0.69465837861970381 0 0.71933979245794832 0.71933979245794832 0 0.69465837861970381 1 I I #
point $-1 -61.372008748290021 -17.707628986182989 10.965019838992269 #
loop $-1 $-1 $186 $178 #
plane-surface $-1 64.651631214331502 0 0 -1 0 0 0 0 1 forward_v I I I I #
coedge $-1 $273 $181 $183 $277 reversed $106 $-1 #
coedge $-1 $181 $272 $337 $338 reversed $106 $-1 #
coedge $-1 $189 $184 $181 $275 forward $179 $-1 #
edge $-1 $278 28.800943925317128 $339 33.921509272484244 $274 $340 forward 7 unknown #
coedge $-1 $183 $182 $281 $341 reversed $66 $-1 #
edge $-1 $342 -129.30326242866303 $278 -122.18483883962398 $272 $343 forward 7 unknown #
vertex $-1 $185 $344 #
straight-curve $-1 59.531065867164401 -8.8538144930914946 12.7427977547176 0 -1 0 I I #
coedge $-1 $337 $186 $189 $285 reversed $270 $-1 #
coedge $-1 $186 $337 $276 $341 forward $270 $-1 #
vertex $-1 $187 $345 #
straight-curve $-1 64.651631214331502 -14.672821210442066 95.316250877265347 0 0 1 I I #
straight-curve $-1 -28.361350745238596 -14.672821210442066 97.619519794960624 0.71933979245794832 0 -0.69465837861970381 I I #
edge $-1 $339 -20.742436761923912 $190 -14.672821210442066 $280 $346 forward 7 unknown #
point $-1 64.651631214331502 -14.672821210442066 12.742797754717607 #
point $-1 59.531065867164386 -14.672821210442066 12.742797754717614 #
edge $-1 $347 1 $347 0 $193 $-1 forward 7 unknown #
vertex $-1 $194 $348 #
ellipse-curve $-1 60.603791269377773 -17.707628986182989 8.7299508473414864 0.69465837861970381 0 0.71933979245794832 0.71933979245794832 0 -0.69465837861970381 1 I I #
point $-1 62.810688333205924 -17.707628986182989 9.5757030817528612 #
plane-surface $-1 64.651631214331502 0 0 -1 0 0 0 0 1 forward_v I I I I #
coedge $-1 $202 $200 $204 $297 reversed $121 $-1 #
edge $-1 $215 -12.742797754717607 $299 12.742797754717607 $214 $349 forward 7 unknown #
vertex $-1 $297 $350 #
straight-curve $-1 -64.651631214331502 -34.788603353426581 0 0 0 -1 I I #
edge $-1 $295 -34.788603353426581 $299 34.788603353426581 $293 $351 forward 7 unknown #
straight-curve $-1 0 -34.788603353426581 -12.742797754717607 -1 0 0 I I #
vertex $-1 $207 $352 #
straight-curve $-1 0 34.788603353426581 -12.742797754717607 1 0 0 I I #
point $-1 64.651631214331502 34.788603353426581 -12.742797754717607 #
point $-1 64.651631214331502 -34.788603353426581 -12.742797754717607 #
straight-curve $-1 -64.651631214331502 0 12.742797754717607 0 -1 0 I I #
point $-1 -64.651631214331502 34.788603353426581 12.742797754717607 #
point $-1 -64.651631214331502 -34.788603353426581 12.742797754717607 #
straight-curve $-1 64.651631214331502 -34.788603353426581 0 0 0 -1 I I #
straight-curve $-1 64.651631214331502 34.788603353426581 0 0 0 -1 I I #
plane-surface $-1 64.651631214331502 0 0 -1 0 0 0 0 1 forward_v I I I I #
coedge $-1 $312 $227 $238 $321 forward $140 $-1 #
coedge $-1 $227 $312 $241 $323 reversed $140 $-1 #
straight-curve $-1 64.651631214331502 -20.742436761923912 -3.6103083015187822 0 0 1 I I #
coedge $-1 $310 $309 $230 $313 forward $140 $-1 #
edge $-1 $316 6.8596767330862889 $314 20.905843324588957 $312 $353 forward 7 unknown #
vertex $-1 $232 $354 #
straight-curve $-1 0 -34.788603353426581 -10.065161241755845 1 0 0 I I #
vertex $-1 $313 $355 #
straight-curve $-1 0 -20.742436761923912 -10.065161241755845 1 0 0 I I #
point $-1 64.651631214331502 -34.788603353426581 -10.065161241755845 #
point $-1 64.651631214331502 -20.742436761923912 -10.065161241755845 #
straight-curve $-1 -64.651631214331502 -13.882760028837623 -4.3760719643192836 0 1 0 I I #
edge $-1 $239 0.76576366280050134 $316 6.4548529402370631 $309 $356 forward 7 unknown #
point $-1 -64.651631214331502 -20.742436761923912 -4.3760719643192836 #
edge $-1 $243 4.3760719643192836 $314 10.065161241755845 $310 $357 forward 7 unknown #
point $-1 -64.651631214331502 -34.788603353426581 -4.3760719643192836 #
straight-curve $-1 64.651631214331502 -34.788603353426581 0 0 0 -1 I I #
edge $-1 $327 37.662655808081176 $330 42.607528396771329 $249 $358 forward 7 unknown #
vertex $-1 $263 $359 #
straight-curve $-1 -77.236612921632286 -14.672821210442066 12.742797754717607 -1 0 0 I I #
edge $-1 $330 5.8190067173505717 $260 11.888622268832417 $259 $360 forward 7 unknown #
vertex $-1 $329 $361 #
straight-curve $-1 -64.651631214331459 -14.672821210442066 7.7979251660274969 0.71933979245794832 0 0.69465837861970381 I I #
point $-1 -59.531065867164358 -14.672821210442066 12.742797754717607 #
point $-1 -64.651631214331502 -20.742436761923912 7.797925166027456 #
straight-curve $-1 -64.651631214331502 0 12.742797754717607 0 -1 0 I I #
vertex $-1 $266 $362 #
point $-1 -59.884451476919814 -17.707628986182989 9.4246092259611913 #
coedge $-1 $281 $280 $273 $338 forward $270 $-1 #
edge $-1 $339 82.573453122547733 $342 87.51832571123785 $337 $363 forward 7 unknown #
vertex $-1 $285 $364 #
straight-curve $-1 30.730121941847258 -20.742436761923912 12.7427977547176 1 0 0 I I #
edge $-1 $342 -11.888622268832417 $282 -5.8190067173505717 $281 $365 forward 7 unknown #
vertex $-1 $341 $366 #
straight-curve $-1 -28.361350745238596 -20.742436761923912 97.619519794960624 -0.71933979245794832 0 0.69465837861970381 I I #
point $-1 59.531065867164386 -20.742436761923912 12.742797754717614 #
point $-1 64.651631214331502 -14.672821210442066 7.7979251660274969 #
straight-curve $-1 64.651631214331502 0 12.742797754717607 0 1 0 I I #
vertex $-1 $288 $367 #
point $-1 61.323131061835717 -17.707628986182989 8.0352924687217833 #
straight-curve $-1 -64.651631214331502 34.788603353426581 0 0 0 -1 I I #
point $-1 -64.651631214331502 -34.788603353426581 -12.742797754717607 #
straight-curve $-1 -64.651631214331502 0 -12.742797754717607 0 1 0 I I #
point $-1 -64.651631214331502 34.788603353426581 -12.742797754717607 #
straight-curve $-1 -64.651631214331502 -13.882760028837623 -10.065161241755845 0 -1 0 I I #
point $-1 -64.651631214331502 -34.788603353426581 -10.065161241755845 #
point $-1 -64.651631214331502 -20.742436761923912 -10.065161241755845 #
straight-curve $-1 -64.651631214331502 -20.742436761923912 -3.6103083015187822 0 0 -1 I I #
straight-curve $-1 -64.651631214331502 -34.788603353426581 0 0 0 -1 I I #
straight-curve $-1 -64.651631214331502 -14.672821210442066 50.405453562798783 0 0 -1 I I #
point $-1 -64.651631214331502 -14.672821210442066 12.742797754717607 #
straight-curve $-1 -64.651631214331502 -8.8538144930914946 7.7979251660274542 0 -1 0 I I #
point $-1 -64.651631214331502 -14.672821210442066 7.797925166027456 #
point $-1 -59.909132890758059 -17.707628986182989 8.0106110548835385 #
straight-curve $-1 64.651631214331502 -20.742436761923912 95.316250877265347 0 0 -1 I I #
point $-1 64.651631214331502 -20.742436761923912 12.742797754717607 #
straight-curve $-1 64.651631214331502 -8.8538144930914946 7.797925166027504 0 1 0 I I #
point $-1 64.651631214331502 -20.742436761923912 7.7979251660274969 #
point $-1 59.909132890758066 -17.707628986182989 8.0106110548835385 #
End-of-ACIS-data 