500 0 8 0           
7 Unknown 11 ACIS 5.0 NT 24 Fri Mar 26 16:54:16 1999 
-1 9.9999999999999995e-007 1e-010 
body $-1 $8 $-1 $9 #
body $-1 $10 $-1 $11 #
body $-1 $12 $-1 $13 #
body $-1 $14 $-1 $15 #
body $-1 $16 $-1 $17 #
body $-1 $18 $-1 $19 #
body $-1 $20 $-1 $21 #
body $-1 $22 $-1 $23 #
lump $-1 $-1 $24 $0 #
transform $-1 1 0 0 0 1 0 0 0 1 77.039704580828271 37.644288888641 12.289911948458082 1 rotate no_reflect no_shear #
lump $-1 $-1 $25 $1 #
transform $-1 1 0 0 0 1 0 0 0 1 77.039704580828271 37.644288888641 12.289911948458082 1 rotate no_reflect no_shear #
lump $-1 $-1 $26 $2 #
transform $-1 1 0 0 0 1 0 0 0 1 77.039704580828271 37.644288888641 12.289911948458082 1 rotate no_reflect no_shear #
lump $-1 $-1 $27 $3 #
transform $-1 1 0 0 0 1 0 0 0 1 77.039704580828271 37.644288888641 12.289911948458082 1 rotate no_reflect no_shear #
lump $-1 $-1 $28 $4 #
transform $-1 1 0 0 0 1 0 0 0 1 77.039704580828271 37.644288888641 12.289911948458082 1 rotate no_reflect no_shear #
lump $-1 $-1 $29 $5 #
transform $-1 1 0 0 0 1 0 0 0 1 77.039704580828271 37.644288888641 12.289911948458082 1 rotate no_reflect no_shear #
lump $-1 $-1 $30 $6 #
transform $-1 1 0 0 0 1 0 0 0 1 77.039704580828271 37.644288888641 12.289911948458082 1 rotate no_reflect no_shear #
lump $-1 $-1 $31 $7 #
transform $-1 1 0 0 0 1 0 0 0 1 77.039704580828271 37.644288888641 12.289911948458082 1 rotate no_reflect no_shear #
shell $-1 $-1 $-1 $32 $-1 $8 #
shell $-1 $-1 $-1 $33 $-1 $10 #
shell $-1 $-1 $-1 $34 $-1 $12 #
shell $-1 $-1 $-1 $35 $-1 $14 #
shell $-1 $-1 $-1 $36 $-1 $16 #
shell $-1 $-1 $-1 $37 $-1 $18 #
shell $-1 $-1 $-1 $38 $-1 $20 #
shell $-1 $-1 $-1 $39 $-1 $22 #
face $-1 $40 $41 $24 $-1 $42 forward single #
face $-1 $43 $44 $25 $-1 $45 forward single #
face $-1 $46 $47 $26 $-1 $48 reversed single #
face $-1 $49 $50 $27 $-1 $51 forward single #
face $-1 $52 $53 $28 $-1 $54 forward single #
face $-1 $55 $56 $29 $-1 $57 reversed single #
face $-1 $58 $59 $30 $-1 $60 forward single #
face $-1 $61 $62 $31 $-1 $63 forward single #
face $-1 $64 $65 $24 $-1 $66 reversed single #
loop $-1 $-1 $67 $32 #
plane-surface $-1 0 0 12.289911948458082 0 0 1 1 0 0 forward_v I I I I #
face $-1 $68 $69 $25 $-1 $70 reversed single #
loop $-1 $-1 $71 $33 #
plane-surface $-1 -70.057791612805914 0 4.0692904788025377 0 0 1 1 0 0 forward_v I I I I #
face $-1 $72 $73 $26 $-1 $74 reversed single #
loop $-1 $-1 $75 $34 #
plane-surface $-1 -31.517092678554533 98.984150487435244 164.25572404018024 1 0 0 0 -0.73135370988377701 -0.68199835119979291 forward_v I I I I #
face $-1 $76 $77 $27 $-1 $78 forward single #
loop $-1 $79 $80 $35 #
cone-surface $-1 -21.552086620698248 31.983275381199945 6.4776181670083908 0 -0.73135370988377701 -0.68199835119979291 1.5 0 0 1 I I 0 1 1.5 forward I I I I #
face $-1 $81 $82 $28 $-1 $83 forward single #
loop $-1 $84 $85 $36 #
cone-surface $-1 -6.604577533913826 31.983275381199945 6.4776181670083908 0 -0.73135370988377701 -0.68199835119979291 1.5 0 0 1 I I 0 1 1.5 forward I I I I #
face $-1 $86 $87 $29 $-1 $88 reversed single #
loop $-1 $-1 $89 $37 #
plane-surface $-1 10.603397412102275 98.984150487435244 164.25572404018024 1 0 0 0 -0.73135370988377701 -0.68199835119979291 forward_v I I I I #
face $-1 $90 $91 $30 $-1 $92 forward single #
loop $-1 $93 $94 $38 #
cone-surface $-1 20.568403469958554 31.983275381199945 6.4776181670083908 0 -0.73135370988377701 -0.68199835119979291 1.5 0 0 1 I I 0 1 1.5 forward I I I I #
face $-1 $95 $96 $31 $-1 $97 forward single #
loop $-1 $98 $99 $39 #
cone-surface $-1 35.51591255674299 31.983275381199945 6.4776181670083908 0 -0.73135370988377701 -0.68199835119979291 1.5 0 0 1 I I 0 1 1.5 forward I I I I #
face $-1 $100 $101 $24 $-1 $102 reversed single #
loop $-1 $-1 $103 $40 #
plane-surface $-1 0 0 -12.289911948458082 0 0 1 1 0 0 forward_v I I I I #
coedge $-1 $104 $105 $106 $107 forward $41 $-1 #
face $-1 $108 $109 $25 $-1 $110 reversed single #
loop $-1 $-1 $111 $43 #
plane-surface $-1 -70.057791612805914 0 -1.7955258660950602 0 0 1 1 0 0 forward_v I I I I #
coedge $-1 $112 $113 $114 $115 forward $44 $-1 #
face $-1 $116 $117 $26 $-1 $118 reversed single #
loop $-1 $-1 $119 $46 #
plane-surface $-1 -14.078332077306037 -13.702397019642689 59.173821038092214 0 0.73135370988377701 0.68199835119979291 1 0 0 forward_v I I I I #
coedge $-1 $120 $121 $122 $123 reversed $47 $-1 #
face $-1 $-1 $124 $27 $-1 $125 forward single #
loop $-1 $126 $127 $49 #
cone-surface $-1 -21.552086620698248 29.587113814994453 4.2431614119860459 0 -0.73135370988377701 -0.68199835119979291 0.75 0 0 1 I I -0.70710678118654757 0.70710678118654757 0.75 forward I I I I #
loop $-1 $-1 $128 $35 #
coedge $-1 $80 $80 $129 $130 reversed $50 $-1 #
face $-1 $-1 $131 $28 $-1 $132 forward single #
loop $-1 $133 $134 $52 #
cone-surface $-1 -6.604577533913826 29.587113814994453 4.2431614119860459 0 -0.73135370988377701 -0.68199835119979291 0.75 0 0 1 I I -0.70710678118654757 0.70710678118654757 0.75 forward I I I I #
loop $-1 $-1 $135 $36 #
coedge $-1 $85 $85 $136 $137 reversed $53 $-1 #
face $-1 $138 $139 $29 $-1 $140 reversed single #
loop $-1 $-1 $141 $55 #
plane-surface $-1 28.042158013350772 -13.702397019642689 59.173821038092214 0 0.73135370988377701 0.68199835119979291 1 0 0 forward_v I I I I #
coedge $-1 $142 $143 $144 $145 reversed $56 $-1 #
face $-1 $-1 $146 $30 $-1 $147 forward single #
loop $-1 $148 $149 $58 #
cone-surface $-1 20.568403469958554 29.587113814994453 4.2431614119860459 0 -0.73135370988377701 -0.68199835119979291 0.75 0 0 1 I I -0.70710678118654757 0.70710678118654757 0.75 forward I I I I #
loop $-1 $-1 $150 $38 #
coedge $-1 $94 $94 $151 $152 reversed $59 $-1 #
face $-1 $-1 $153 $31 $-1 $154 forward single #
loop $-1 $155 $156 $61 #
cone-surface $-1 35.51591255674299 29.587113814994453 4.2431614119860459 0 -0.73135370988377701 -0.68199835119979291 0.75 0 0 1 I I -0.70710678118654757 0.70710678118654757 0.75 forward I I I I #
loop $-1 $-1 $157 $39 #
coedge $-1 $99 $99 $158 $159 reversed $62 $-1 #
face $-1 $160 $161 $24 $-1 $162 reversed single #
loop $-1 $-1 $163 $64 #
plane-surface $-1 0 -37.644288888641 0 0 1 0 0 0 1 forward_v I I I I #
coedge $-1 $164 $165 $166 $167 forward $65 $-1 #
coedge $-1 $168 $67 $169 $170 forward $41 $-1 #
coedge $-1 $67 $168 $171 $172 forward $41 $-1 #
coedge $-1 $173 $174 $67 $107 reversed $175 $-1 #
edge $-1 $176 -37.644288888641 $177 37.644288888641 $106 $178 forward 7 unknown #
face $-1 $179 $180 $25 $-1 $181 reversed single #
loop $-1 $-1 $182 $68 #
plane-surface $-1 -63.07587864478355 0 1.1368823063537388 -1 0 0 0 0 1 forward_v I I I I #
coedge $-1 $183 $184 $185 $186 forward $69 $-1 #
coedge $-1 $187 $71 $188 $189 reversed $44 $-1 #
coedge $-1 $71 $187 $190 $191 reversed $44 $-1 #
coedge $-1 $182 $192 $71 $115 reversed $109 $-1 #
edge $-1 $193 -37.644288888641 $194 37.644288888641 $114 $195 forward 7 unknown #
face $-1 $196 $197 $26 $-1 $198 forward single #
loop $-1 $-1 $199 $72 #
plane-surface $-1 3.3604285239424598 98.984150487435244 164.25572404018024 -1 0 0 0 0.73135370988377701 0.68199835119979291 forward_v I I I I #
coedge $-1 $200 $201 $202 $203 reversed $73 $-1 #
coedge $-1 $121 $75 $204 $205 reversed $47 $-1 #
coedge $-1 $75 $120 $200 $206 reversed $47 $-1 #
coedge $-1 $202 $207 $75 $123 forward $197 $-1 #
edge $-1 $208 11.847786355076622 $209 19.474520802373362 $122 $210 forward 7 unknown #
loop $-1 $-1 $129 $76 #
plane-surface $-1 -14.078332077306037 -13.702397019642689 59.173821038092214 0 0.73135370988377701 0.68199835119979291 1 0 0 forward_v I I I I #
loop $-1 $-1 $211 $49 #
coedge $-1 $127 $127 $128 $212 reversed $77 $-1 #
coedge $-1 $128 $128 $127 $212 forward $79 $-1 #
coedge $-1 $129 $129 $80 $130 forward $124 $-1 #
edge $-1 $213 9.3517577556637601e-016 $213 6.2831853071796013 $129 $214 forward 7 unknown #
loop $-1 $-1 $136 $81 #
plane-surface $-1 -14.078332077306037 -13.702397019642689 59.173821038092214 0 0.73135370988377701 0.68199835119979291 1 0 0 forward_v I I I I #
loop $-1 $-1 $215 $52 #
coedge $-1 $134 $134 $135 $216 reversed $82 $-1 #
coedge $-1 $135 $135 $134 $216 forward $84 $-1 #
coedge $-1 $136 $136 $85 $137 forward $131 $-1 #
edge $-1 $217 9.3517577556637601e-016 $217 6.2831853071796013 $136 $218 forward 7 unknown #
face $-1 $219 $220 $29 $-1 $221 forward single #
loop $-1 $-1 $222 $86 #
plane-surface $-1 45.480918614599268 98.984150487435244 164.25572404018024 -1 0 0 0 0.73135370988377701 0.68199835119979291 forward_v I I I I #
coedge $-1 $223 $224 $225 $226 reversed $87 $-1 #
coedge $-1 $143 $89 $227 $228 reversed $56 $-1 #
coedge $-1 $89 $142 $223 $229 reversed $56 $-1 #
coedge $-1 $225 $230 $89 $145 forward $220 $-1 #
edge $-1 $231 11.847786355076622 $232 19.474520802373362 $144 $233 forward 7 unknown #
loop $-1 $-1 $151 $90 #
plane-surface $-1 28.042158013350772 -13.702397019642689 59.173821038092214 0 0.73135370988377701 0.68199835119979291 1 0 0 forward_v I I I I #
loop $-1 $-1 $234 $58 #
coedge $-1 $149 $149 $150 $235 reversed $91 $-1 #
coedge $-1 $150 $150 $149 $235 forward $93 $-1 #
coedge $-1 $151 $151 $94 $152 forward $146 $-1 #
edge $-1 $236 9.3517577556637601e-016 $236 6.2831853071796013 $151 $237 forward 7 unknown #
loop $-1 $-1 $158 $95 #
plane-surface $-1 28.042158013350772 -13.702397019642689 59.173821038092214 0 0.73135370988377701 0.68199835119979291 1 0 0 forward_v I I I I #
loop $-1 $-1 $238 $61 #
coedge $-1 $156 $156 $157 $239 reversed $96 $-1 #
coedge $-1 $157 $157 $156 $239 forward $98 $-1 #
coedge $-1 $158 $158 $99 $159 forward $153 $-1 #
edge $-1 $240 9.3517577556637601e-016 $240 6.2831853071796013 $158 $241 forward 7 unknown #
face $-1 $242 $243 $24 $-1 $244 reversed single #
loop $-1 $-1 $245 $100 #
plane-surface $-1 -77.039704580828271 0 0 1 0 0 0 0 -1 forward_v I I I I #
coedge $-1 $246 $171 $247 $248 forward $101 $-1 #
coedge $-1 $249 $103 $246 $250 forward $65 $-1 #
coedge $-1 $103 $249 $251 $252 forward $65 $-1 #
coedge $-1 $174 $173 $103 $167 reversed $175 $-1 #
edge $-1 $253 -37.644288888641 $254 37.644288888641 $166 $255 forward 7 unknown #
coedge $-1 $105 $104 $256 $257 forward $41 $-1 #
coedge $-1 $258 $259 $104 $170 reversed $243 $-1 #
edge $-1 $177 -77.039704580828271 $260 77.039704580828271 $169 $261 forward 7 unknown #
coedge $-1 $163 $262 $105 $172 reversed $101 $-1 #
edge $-1 $263 -77.039704580828271 $176 77.039704580828271 $171 $264 forward 7 unknown #
coedge $-1 $166 $106 $262 $265 forward $175 $-1 #
coedge $-1 $106 $166 $258 $266 reversed $175 $-1 #
loop $-1 $-1 $173 $242 #
vertex $-1 $107 $267 #
vertex $-1 $107 $268 #
straight-curve $-1 77.039704580828271 0 12.289911948458082 0 1 0 I I #
face $-1 $269 $270 $25 $-1 $271 reversed single #
loop $-1 $-1 $272 $108 #
plane-surface $-1 0 -37.644288888641 0 0 1 0 0 0 1 forward_v I I I I #
coedge $-1 $185 $114 $273 $274 reversed $109 $-1 #
coedge $-1 $275 $111 $272 $276 reversed $69 $-1 #
coedge $-1 $111 $275 $277 $278 reversed $69 $-1 #
coedge $-1 $192 $182 $111 $186 reversed $109 $-1 #
edge $-1 $279 -37.644288888641 $280 37.644288888641 $185 $281 forward 7 unknown #
coedge $-1 $113 $112 $282 $283 reversed $44 $-1 #
coedge $-1 $284 $285 $112 $189 forward $286 $-1 #
edge $-1 $287 -42.010808774425314 $194 -28.046982838380593 $188 $288 forward 7 unknown #
coedge $-1 $289 $273 $113 $191 forward $180 $-1 #
edge $-1 $193 28.046982838380593 $290 42.010808774425314 $190 $291 forward 7 unknown #
coedge $-1 $114 $185 $284 $292 reversed $109 $-1 #
vertex $-1 $191 $293 #
vertex $-1 $189 $294 #
straight-curve $-1 -63.07587864478355 0 4.0692904788025377 0 1 0 I I #
face $-1 $-1 $295 $26 $-1 $296 reversed single #
loop $-1 $-1 $122 $116 #
plane-surface $-1 0 0 12.289911948458082 0 0 1 1 0 0 forward_v I I I I #
coedge $-1 $297 $298 $299 $300 reversed $117 $-1 #
coedge $-1 $301 $119 $121 $206 forward $73 $-1 #
coedge $-1 $119 $301 $297 $302 forward $73 $-1 #
coedge $-1 $299 $122 $119 $203 forward $197 $-1 #
edge $-1 $209 -24.477926639901515 $303 10.399594562595478 $202 $304 forward 7 unknown #
coedge $-1 $305 $306 $120 $205 forward $295 $-1 #
edge $-1 $307 -78.016621651286385 $208 -69.837950071632036 $204 $308 forward 7 unknown #
edge $-1 $209 64.105655657485727 $307 75.288577777282001 $121 $309 forward 7 unknown #
coedge $-1 $122 $299 $305 $310 forward $197 $-1 #
vertex $-1 $205 $311 #
vertex $-1 $123 $312 #
straight-curve $-1 -31.517092678554533 49.492075243717622 12.289911948458084 0 -1 0 I I #
coedge $-1 $211 $211 $-1 $313 reversed $126 $-1 #
edge $-1 $314 0 $314 6.2831853071796004 $127 $315 forward 7 unknown #
vertex $-1 $130 $316 #
ellipse-curve $-1 -21.552086620698248 33.83092166499263 8.2005761586309198 0 0.73135370988377701 0.68199835119979291 1.5 0 0 1 I I #
coedge $-1 $215 $215 $-1 $317 reversed $133 $-1 #
edge $-1 $318 0 $318 6.2831853071796004 $134 $319 forward 7 unknown #
vertex $-1 $137 $320 #
ellipse-curve $-1 -6.604577533913826 33.83092166499263 8.2005761586309198 0 0.73135370988377701 0.68199835119979291 1.5 0 0 1 I I #
face $-1 $-1 $321 $29 $-1 $322 reversed single #
loop $-1 $-1 $144 $138 #
plane-surface $-1 0 0 12.289911948458082 0 0 1 1 0 0 forward_v I I I I #
coedge $-1 $323 $324 $325 $326 reversed $139 $-1 #
coedge $-1 $327 $141 $143 $229 forward $87 $-1 #
coedge $-1 $141 $327 $323 $328 forward $87 $-1 #
coedge $-1 $325 $144 $141 $226 forward $220 $-1 #
edge $-1 $232 -3.4176815945731107 $329 31.459839607923882 $225 $330 forward 7 unknown #
coedge $-1 $331 $332 $142 $228 forward $321 $-1 #
edge $-1 $333 -78.016621651286385 $231 -69.837950071632036 $227 $334 forward 7 unknown #
edge $-1 $232 64.105655657485727 $333 75.288577777282001 $143 $335 forward 7 unknown #
coedge $-1 $144 $325 $331 $336 forward $220 $-1 #
vertex $-1 $145 $337 #
vertex $-1 $145 $338 #
straight-curve $-1 10.603397412102275 49.492075243717622 12.289911948458084 0 -1 0 I I #
coedge $-1 $234 $234 $-1 $339 reversed $148 $-1 #
edge $-1 $340 0 $340 6.2831853071796004 $149 $341 forward 7 unknown #
vertex $-1 $152 $342 #
ellipse-curve $-1 20.568403469958554 33.83092166499263 8.2005761586309198 0 0.73135370988377701 0.68199835119979291 1.5 0 0 1 I I #
coedge $-1 $238 $238 $-1 $343 reversed $155 $-1 #
edge $-1 $344 0 $344 6.2831853071796004 $156 $345 forward 7 unknown #
vertex $-1 $159 $346 #
ellipse-curve $-1 35.51591255674299 33.83092166499263 8.2005761586309198 0 0.73135370988377701 0.68199835119979291 1.5 0 0 1 I I #
face $-1 $-1 $175 $24 $-1 $347 reversed single #
loop $-1 $-1 $258 $160 #
plane-surface $-1 0 37.644288888641 0 0 -1 0 0 0 -1 forward_v I I I I #
coedge $-1 $348 $256 $259 $349 forward $161 $-1 #
coedge $-1 $262 $163 $164 $250 reversed $101 $-1 #
coedge $-1 $256 $348 $163 $248 reversed $161 $-1 #
edge $-1 $263 -12.289911948458082 $350 12.289911948458082 $247 $351 forward 7 unknown #
coedge $-1 $165 $164 $348 $352 forward $65 $-1 #
edge $-1 $254 -77.039704580828271 $350 77.039704580828271 $246 $353 forward 7 unknown #
coedge $-1 $259 $258 $165 $252 reversed $243 $-1 #
edge $-1 $354 -77.039704580828271 $253 77.039704580828271 $251 $355 forward 7 unknown #
vertex $-1 $167 $356 #
vertex $-1 $265 $357 #
straight-curve $-1 77.039704580828271 0 -12.289911948458082 0 -1 0 I I #
coedge $-1 $245 $247 $168 $257 reversed $161 $-1 #
edge $-1 $260 -37.644288888641 $263 37.644288888641 $256 $358 forward 7 unknown #
coedge $-1 $251 $169 $174 $266 forward $243 $-1 #
coedge $-1 $169 $251 $245 $349 reversed $243 $-1 #
vertex $-1 $170 $359 #
straight-curve $-1 0 37.644288888641 12.289911948458082 -1 0 0 I I #
coedge $-1 $171 $246 $173 $265 reversed $101 $-1 #
vertex $-1 $257 $360 #
straight-curve $-1 0 -37.644288888641 12.289911948458082 1 0 0 I I #
edge $-1 $176 -12.289911948458082 $254 12.289911948458082 $173 $361 forward 7 unknown #
edge $-1 $177 -12.289911948458082 $253 12.289911948458082 $174 $362 forward 7 unknown #
point $-1 77.039704580828271 -37.644288888641 12.289911948458082 #
point $-1 77.039704580828271 37.644288888641 12.289911948458082 #
face $-1 $-1 $286 $25 $-1 $363 reversed single #
loop $-1 $-1 $364 $179 #
plane-surface $-1 -77.039704580828271 0 0 1 0 0 0 0 -1 forward_v I I I I #
coedge $-1 $273 $289 $183 $276 forward $180 $-1 #
coedge $-1 $190 $272 $182 $274 forward $180 $-1 #
edge $-1 $280 -2.3639670192719295 $193 3.5008493256256683 $273 $365 forward 7 unknown #
coedge $-1 $184 $183 $364 $366 reversed $69 $-1 #
edge $-1 $367 -42.010808774425314 $280 -28.046982838380593 $272 $368 forward 7 unknown #
coedge $-1 $285 $284 $184 $278 forward $286 $-1 #
edge $-1 $279 28.046982838380593 $369 42.010808774425314 $277 $370 forward 7 unknown #
vertex $-1 $278 $371 #
vertex $-1 $276 $372 #
straight-curve $-1 -63.07587864478355 0 -1.7955258660950602 0 -1 0 I I #
coedge $-1 $373 $374 $187 $283 forward $270 $-1 #
edge $-1 $290 -37.644288888641 $287 37.644288888641 $282 $375 forward 7 unknown #
coedge $-1 $277 $188 $192 $292 forward $286 $-1 #
coedge $-1 $188 $277 $373 $376 reversed $286 $-1 #
loop $-1 $-1 $277 $269 #
vertex $-1 $376 $377 #
straight-curve $-1 -35.028895806402957 37.644288888641 4.0692904788025377 1 0 0 I I #
coedge $-1 $272 $190 $374 $378 forward $180 $-1 #
vertex $-1 $378 $379 #
straight-curve $-1 -35.028895806402957 -37.644288888641 4.0692904788025377 -1 0 0 I I #
edge $-1 $194 -3.5008493256256683 $279 2.3639670192719295 $284 $380 forward 7 unknown #
point $-1 -63.07587864478355 -37.644288888641 4.0692904788025377 #
point $-1 -63.07587864478355 37.644288888641 4.0692904788025377 #
loop $-1 $-1 $204 $196 #
plane-surface $-1 0 37.644288888641 0 0 -1 0 0 0 -1 forward_v I I I I #
coedge $-1 $298 $199 $201 $302 reversed $117 $-1 #
coedge $-1 $199 $297 $381 $382 reversed $117 $-1 #
coedge $-1 $207 $202 $199 $300 forward $197 $-1 #
edge $-1 $303 -19.474520802373362 $383 -11.847786355076622 $299 $384 forward 7 unknown #
coedge $-1 $201 $200 $306 $385 reversed $73 $-1 #
edge $-1 $386 -75.288577777282001 $303 -64.105655657485727 $297 $387 forward 7 unknown #
vertex $-1 $203 $388 #
straight-curve $-1 -7.0391660386530184 30.017554441344259 12.289911948458084 1 0 0 I I #
coedge $-1 $381 $204 $207 $310 reversed $295 $-1 #
coedge $-1 $204 $381 $301 $385 forward $295 $-1 #
vertex $-1 $205 $389 #
straight-curve $-1 -31.517092678554533 37.644288888641 82.12786202009012 0 0 1 I I #
straight-curve $-1 -31.517092678554533 -13.702397019642689 59.173821038092214 0 0.68199835119979291 -0.73135370988377701 I I #
edge $-1 $383 -3.3604285239424598 $208 31.517092678554533 $305 $390 forward 7 unknown #
point $-1 -31.517092678554533 37.644288888641 12.289911948458082 #
point $-1 -31.517092678554533 30.017554441344259 12.289911948458077 #
edge $-1 $391 1 $391 0 $211 $-1 forward 7 unknown #
vertex $-1 $212 $392 #
ellipse-curve $-1 -21.552086620698248 30.135629097407286 4.7546601753858901 0 0.73135370988377701 0.68199835119979291 1.5 0 0 1 I I #
point $-1 -20.052086620698248 33.830921664992601 8.2005761586308914 #
edge $-1 $393 1 $393 0 $215 $-1 forward 7 unknown #
vertex $-1 $216 $394 #
ellipse-curve $-1 -6.604577533913826 30.135629097407286 4.7546601753858901 0 0.73135370988377701 0.68199835119979291 1.5 0 0 1 I I #
point $-1 -5.104577533913826 33.830921664992601 8.2005761586308914 #
loop $-1 $-1 $227 $219 #
plane-surface $-1 0 37.644288888641 0 0 -1 0 0 0 -1 forward_v I I I I #
coedge $-1 $324 $222 $224 $328 reversed $139 $-1 #
coedge $-1 $222 $323 $395 $396 reversed $139 $-1 #
coedge $-1 $230 $225 $222 $326 forward $220 $-1 #
edge $-1 $329 -19.474520802373362 $397 -11.847786355076622 $325 $398 forward 7 unknown #
coedge $-1 $224 $223 $332 $399 reversed $87 $-1 #
edge $-1 $400 -75.288577777282001 $329 -64.105655657485727 $323 $401 forward 7 unknown #
vertex $-1 $226 $402 #
straight-curve $-1 14.021079006675386 30.017554441344259 12.289911948458084 1 0 0 I I #
coedge $-1 $395 $227 $230 $336 reversed $321 $-1 #
coedge $-1 $227 $395 $327 $399 forward $321 $-1 #
vertex $-1 $228 $403 #
straight-curve $-1 10.603397412102275 37.644288888641 82.12786202009012 0 0 1 I I #
straight-curve $-1 10.603397412102275 -13.702397019642689 59.173821038092214 0 0.68199835119979291 -0.73135370988377701 I I #
edge $-1 $397 -45.480918614599268 $231 -10.603397412102275 $331 $404 forward 7 unknown #
point $-1 10.603397412102275 37.644288888641 12.289911948458082 #
point $-1 10.603397412102275 30.017554441344259 12.289911948458077 #
edge $-1 $405 1 $405 0 $234 $-1 forward 7 unknown #
vertex $-1 $235 $406 #
ellipse-curve $-1 20.568403469958554 30.135629097407286 4.7546601753858901 0 0.73135370988377701 0.68199835119979291 1.5 0 0 1 I I #
point $-1 22.068403469958554 33.830921664992601 8.2005761586308914 #
edge $-1 $407 1 $407 0 $238 $-1 forward 7 unknown #
vertex $-1 $239 $408 #
ellipse-curve $-1 35.51591255674299 30.135629097407286 4.7546601753858901 0 0.73135370988377701 0.68199835119979291 1.5 0 0 1 I I #
point $-1 37.01591255674299 33.830921664992601 8.2005761586308914 #
plane-surface $-1 77.039704580828271 0 0 -1 0 0 0 0 1 forward_v I I I I #
coedge $-1 $247 $245 $249 $352 reversed $161 $-1 #
edge $-1 $260 -12.289911948458082 $354 12.289911948458082 $259 $409 forward 7 unknown #
vertex $-1 $352 $410 #
straight-curve $-1 -77.039704580828271 -37.644288888641 0 0 0 -1 I I #
edge $-1 $350 -37.644288888641 $354 37.644288888641 $348 $411 forward 7 unknown #
straight-curve $-1 0 -37.644288888641 -12.289911948458082 -1 0 0 I I #
vertex $-1 $252 $412 #
straight-curve $-1 0 37.644288888641 -12.289911948458082 1 0 0 I I #
point $-1 77.039704580828271 37.644288888641 -12.289911948458082 #
point $-1 77.039704580828271 -37.644288888641 -12.289911948458082 #
straight-curve $-1 -77.039704580828271 0 12.289911948458082 0 -1 0 I I #
point $-1 -77.039704580828271 37.644288888641 12.289911948458082 #
point $-1 -77.039704580828271 -37.644288888641 12.289911948458082 #
straight-curve $-1 77.039704580828271 -37.644288888641 0 0 0 -1 I I #
straight-curve $-1 77.039704580828271 37.644288888641 0 0 0 -1 I I #
plane-surface $-1 0 37.644288888641 0 0 -1 0 0 0 -1 forward_v I I I I #
coedge $-1 $374 $373 $275 $366 forward $270 $-1 #
straight-curve $-1 -63.07587864478355 -37.644288888641 0.56844115317686938 0 0 1 I I #
edge $-1 $369 -37.644288888641 $367 37.644288888641 $364 $413 forward 7 unknown #
vertex $-1 $276 $414 #
straight-curve $-1 -35.028895806402957 -37.644288888641 -1.7955258660950602 1 0 0 I I #
vertex $-1 $278 $415 #
straight-curve $-1 -35.028895806402957 37.644288888641 -1.7955258660950602 -1 0 0 I I #
point $-1 -63.07587864478355 37.644288888641 -1.7955258660950602 #
point $-1 -63.07587864478355 -37.644288888641 -1.7955258660950602 #
coedge $-1 $364 $282 $285 $376 forward $270 $-1 #
coedge $-1 $282 $364 $289 $378 reversed $270 $-1 #
straight-curve $-1 -77.039704580828271 0 4.0692904788025377 0 1 0 I I #
edge $-1 $287 -4.0692904788025377 $369 1.7955258660950602 $285 $416 forward 7 unknown #
point $-1 -77.039704580828271 37.644288888641 4.0692904788025377 #
edge $-1 $290 -4.0692904788025377 $367 1.7955258660950602 $374 $417 forward 7 unknown #
point $-1 -77.039704580828271 -37.644288888641 4.0692904788025377 #
straight-curve $-1 -63.07587864478355 37.644288888641 0.56844115317686938 0 0 -1 I I #
coedge $-1 $306 $305 $298 $382 forward $295 $-1 #
edge $-1 $383 69.837950071632036 $386 78.016621651286385 $381 $418 forward 7 unknown #
vertex $-1 $310 $419 #
straight-curve $-1 3.3604285239424598 49.492075243717622 12.289911948458084 0 1 0 I I #
edge $-1 $386 -10.399594562595478 $307 24.477926639901515 $306 $420 forward 7 unknown #
vertex $-1 $385 $421 #
straight-curve $-1 3.3604285239424598 -13.702397019642689 59.173821038092214 0 -0.68199835119979291 0.73135370988377701 I I #
point $-1 3.3604285239424598 30.017554441344259 12.289911948458077 #
point $-1 -31.517092678554533 37.644288888641007 4.1112403688037347 #
straight-curve $-1 0 37.644288888641 12.289911948458082 -1 0 0 I I #
vertex $-1 $313 $422 #
point $-1 -20.052086620698248 30.135629097407286 4.7546601753858901 #
vertex $-1 $317 $423 #
point $-1 -5.104577533913826 30.135629097407286 4.7546601753858901 #
coedge $-1 $332 $331 $324 $396 forward $321 $-1 #
edge $-1 $397 69.837950071632036 $400 78.016621651286385 $395 $424 forward 7 unknown #
vertex $-1 $336 $425 #
straight-curve $-1 45.480918614599268 49.492075243717622 12.289911948458084 0 1 0 I I #
edge $-1 $400 -31.459839607923882 $333 3.4176815945731107 $332 $426 forward 7 unknown #
vertex $-1 $399 $427 #
straight-curve $-1 45.480918614599268 -13.702397019642689 59.173821038092214 0 -0.68199835119979291 0.73135370988377701 I I #
point $-1 45.480918614599268 30.017554441344259 12.289911948458077 #
point $-1 10.603397412102275 37.644288888641007 4.1112403688037347 #
straight-curve $-1 0 37.644288888641 12.289911948458082 -1 0 0 I I #
vertex $-1 $339 $428 #
point $-1 22.068403469958554 30.135629097407286 4.7546601753858901 #
vertex $-1 $343 $429 #
point $-1 37.01591255674299 30.135629097407286 4.7546601753858901 #
straight-curve $-1 -77.039704580828271 37.644288888641 0 0 0 -1 I I #
point $-1 -77.039704580828271 -37.644288888641 -12.289911948458082 #
straight-curve $-1 -77.039704580828271 0 -12.289911948458082 0 1 0 I I #
point $-1 -77.039704580828271 37.644288888641 -12.289911948458082 #
straight-curve $-1 -77.039704580828271 0 -1.7955258660950602 0 -1 0 I I #
point $-1 -77.039704580828271 -37.644288888641 -1.7955258660950602 #
point $-1 -77.039704580828271 37.644288888641 -1.7955258660950602 #
straight-curve $-1 -77.039704580828271 37.644288888641 0 0 0 -1 I I #
straight-curve $-1 -77.039704580828271 -37.644288888641 0 0 0 -1 I I #
straight-curve $-1 3.3604285239424598 37.644288888641 82.12786202009012 0 0 -1 I I #
point $-1 3.3604285239424598 37.644288888641 12.289911948458082 #
straight-curve $-1 -7.0391660386530184 37.644288888641 4.1112403688037382 -1 0 0 I I #
point $-1 3.3604285239424598 37.644288888641007 4.1112403688037347 #
point $-1 -21.552086620698248 29.03859853258162 3.7316626485862012 #
point $-1 -6.604577533913826 29.03859853258162 3.7316626485862012 #
straight-curve $-1 45.480918614599268 37.644288888641 82.12786202009012 0 0 -1 I I #
point $-1 45.480918614599268 37.644288888641 12.289911948458082 #
straight-curve $-1 14.021079006675386 37.644288888641 4.1112403688037382 -1 0 0 I I #
point $-1 45.480918614599268 37.644288888641007 4.1112403688037347 #
point $-1 20.568403469958554 29.03859853258162 3.7316626485862012 #
point $-1 35.51591255674299 29.03859853258162 3.7316626485862012 #
End-of-ACIS-data 