500 0 17 0           
7 Unknown 11 ACIS 5.0 NT 24 Fri Mar 26 17:32:52 1999 
-1 9.9999999999999995e-007 1e-010 
body $-1 $17 $-1 $18 #
body $-1 $19 $-1 $20 #
body $-1 $21 $-1 $22 #
body $-1 $23 $-1 $24 #
body $-1 $25 $-1 $26 #
body $-1 $27 $-1 $28 #
body $-1 $29 $-1 $30 #
body $-1 $31 $-1 $32 #
body $-1 $33 $-1 $34 #
body $-1 $35 $-1 $36 #
body $-1 $37 $-1 $38 #
body $-1 $39 $-1 $40 #
body $-1 $41 $-1 $42 #
body $-1 $43 $-1 $44 #
body $-1 $45 $-1 $46 #
body $-1 $47 $-1 $48 #
body $-1 $49 $-1 $50 #
lump $-1 $-1 $51 $0 #
transform $-1 1 0 0 0 1 0 0 0 1 67.683950315866568 34.545729602118463 16.266445126442015 1 rotate no_reflect no_shear #
lump $-1 $-1 $52 $1 #
transform $-1 1 0 0 0 1 0 0 0 1 67.683950315866568 34.545729602118463 16.266445126442015 1 rotate no_reflect no_shear #
lump $-1 $-1 $53 $2 #
transform $-1 1 0 0 0 1 0 0 0 1 67.683950315866568 34.545729602118463 16.266445126442015 1 rotate no_reflect no_shear #
lump $-1 $-1 $54 $3 #
transform $-1 1 0 0 0 1 0 0 0 1 67.683950315866568 34.545729602118463 16.266445126442015 1 rotate no_reflect no_shear #
lump $-1 $-1 $55 $4 #
transform $-1 1 0 0 0 1 0 0 0 1 67.683950315866568 34.545729602118463 16.266445126442015 1 rotate no_reflect no_shear #
lump $-1 $-1 $56 $5 #
transform $-1 1 0 0 0 1 0 0 0 1 67.683950315866568 34.545729602118463 16.266445126442015 1 rotate no_reflect no_shear #
lump $-1 $-1 $57 $6 #
transform $-1 1 0 0 0 1 0 0 0 1 67.683950315866568 34.545729602118463 16.266445126442015 1 rotate no_reflect no_shear #
lump $-1 $-1 $58 $7 #
transform $-1 1 0 0 0 1 0 0 0 1 67.683950315866568 34.545729602118463 16.266445126442015 1 rotate no_reflect no_shear #
lump $-1 $-1 $59 $8 #
transform $-1 1 0 0 0 1 0 0 0 1 67.683950315866568 34.545729602118463 16.266445126442015 1 rotate no_reflect no_shear #
lump $-1 $-1 $60 $9 #
transform $-1 1 0 0 0 1 0 0 0 1 67.683950315866568 34.545729602118463 16.266445126442015 1 rotate no_reflect no_shear #
lump $-1 $-1 $61 $10 #
transform $-1 1 0 0 0 1 0 0 0 1 67.683950315866568 34.545729602118463 16.266445126442015 1 rotate no_reflect no_shear #
lump $-1 $-1 $62 $11 #
transform $-1 1 0 0 0 1 0 0 0 1 67.683950315866568 34.545729602118463 16.266445126442015 1 rotate no_reflect no_shear #
lump $-1 $-1 $63 $12 #
transform $-1 1 0 0 0 1 0 0 0 1 67.683950315866568 34.545729602118463 16.266445126442015 1 rotate no_reflect no_shear #
lump $-1 $-1 $64 $13 #
transform $-1 1 0 0 0 1 0 0 0 1 67.683950315866568 34.545729602118463 16.266445126442015 1 rotate no_reflect no_shear #
lump $-1 $-1 $65 $14 #
transform $-1 1 0 0 0 1 0 0 0 1 67.683950315866568 34.545729602118463 16.266445126442015 1 rotate no_reflect no_shear #
lump $-1 $-1 $66 $15 #
transform $-1 1 0 0 0 1 0 0 0 1 67.683950315866568 34.545729602118463 16.266445126442015 1 rotate no_reflect no_shear #
lump $-1 $-1 $67 $16 #
transform $-1 1 0 0 0 1 0 0 0 1 67.683950315866568 34.545729602118463 16.266445126442015 1 rotate no_reflect no_shear #
shell $-1 $-1 $-1 $68 $-1 $17 #
shell $-1 $-1 $-1 $69 $-1 $19 #
shell $-1 $-1 $-1 $70 $-1 $21 #
shell $-1 $-1 $-1 $71 $-1 $23 #
shell $-1 $-1 $-1 $72 $-1 $25 #
shell $-1 $-1 $-1 $73 $-1 $27 #
shell $-1 $-1 $-1 $74 $-1 $29 #
shell $-1 $-1 $-1 $75 $-1 $31 #
shell $-1 $-1 $-1 $76 $-1 $33 #
shell $-1 $-1 $-1 $77 $-1 $35 #
shell $-1 $-1 $-1 $78 $-1 $37 #
shell $-1 $-1 $-1 $79 $-1 $39 #
shell $-1 $-1 $-1 $80 $-1 $41 #
shell $-1 $-1 $-1 $81 $-1 $43 #
shell $-1 $-1 $-1 $82 $-1 $45 #
shell $-1 $-1 $-1 $83 $-1 $47 #
shell $-1 $-1 $-1 $84 $-1 $49 #
face $-1 $85 $86 $51 $-1 $87 forward single #
face $-1 $88 $89 $52 $-1 $90 reversed single #
face $-1 $91 $92 $53 $-1 $93 reversed single #
face $-1 $94 $95 $54 $-1 $96 forward single #
face $-1 $97 $98 $55 $-1 $99 forward single #
face $-1 $100 $101 $56 $-1 $102 reversed single #
face $-1 $103 $104 $57 $-1 $105 forward single #
face $-1 $106 $107 $58 $-1 $108 forward single #
face $-1 $109 $110 $59 $-1 $111 reversed single #
face $-1 $112 $113 $60 $-1 $114 forward single #
face $-1 $115 $116 $61 $-1 $117 forward single #
face $-1 $118 $119 $62 $-1 $120 reversed single #
face $-1 $121 $122 $63 $-1 $123 forward single #
face $-1 $124 $125 $64 $-1 $126 forward single #
face $-1 $127 $128 $65 $-1 $129 reversed single #
face $-1 $130 $131 $66 $-1 $132 forward single #
face $-1 $133 $134 $67 $-1 $135 forward single #
face $-1 $136 $137 $51 $-1 $138 reversed single #
loop $-1 $-1 $139 $68 #
plane-surface $-1 0 0 16.266445126442015 0 0 1 1 0 0 forward_v I I I I #
face $-1 $140 $141 $52 $-1 $142 reversed single #
loop $-1 $-1 $143 $69 #
plane-surface $-1 -52.266402902174789 -26.183643959207757 0 1 0 0 0 0 -1 forward_v I I I I #
face $-1 $144 $145 $53 $-1 $146 reversed single #
loop $-1 $-1 $147 $70 #
plane-surface $-1 -166.68576664206307 -17.82155831629705 101.12584414782134 0 1 0 -0.73135370988377701 0 0.68199835119979291 forward_v I I I I #
face $-1 $148 $149 $54 $-1 $150 forward single #
loop $-1 $151 $152 $71 #
cone-surface $-1 -63.515146980480225 -15.939261802148312 11.892438962970189 0.73135370988377701 0 -0.68199835119979291 0.34099917559989645 0 0.36567685494188851 1 I I 0 1 0.5 forward I I I I #
face $-1 $153 $154 $55 $-1 $155 forward single #
loop $-1 $156 $157 $72 #
cone-surface $-1 -63.515146980480225 -13.1158170309252 11.892438962970189 0.73135370988377701 0 -0.68199835119979291 0.34099917559989645 0 0.36567685494188851 1 I I 0 1 0.5 forward I I I I #
face $-1 $158 $159 $56 $-1 $160 reversed single #
loop $-1 $-1 $161 $73 #
plane-surface $-1 -166.68576664206307 -2.5618082766654116 101.12584414782134 0 1 0 -0.73135370988377701 0 0.68199835119979291 forward_v I I I I #
face $-1 $162 $163 $57 $-1 $164 forward single #
loop $-1 $165 $166 $74 #
cone-surface $-1 -63.515146980480225 -0.67951176251667533 11.892438962970189 0.73135370988377701 0 -0.68199835119979291 0.34099917559989645 0 0.36567685494188851 1 I I 0 1 0.5 forward I I I I #
face $-1 $167 $168 $58 $-1 $169 forward single #
loop $-1 $170 $171 $75 #
cone-surface $-1 -63.515146980480225 2.1439330087064405 11.892438962970189 0.73135370988377701 0 -0.68199835119979291 0.34099917559989645 0 0.36567685494188851 1 I I 0 1 0.5 forward I I I I #
face $-1 $172 $173 $59 $-1 $174 reversed single #
loop $-1 $-1 $175 $76 #
plane-surface $-1 -166.68576664206307 12.697941762966229 101.12584414782134 0 1 0 -0.73135370988377701 0 0.68199835119979291 forward_v I I I I #
face $-1 $176 $177 $60 $-1 $178 forward single #
loop $-1 $179 $180 $77 #
cone-surface $-1 -63.515146980480225 14.580238277114965 11.892438962970189 0.73135370988377701 0 -0.68199835119979291 0.34099917559989645 0 0.36567685494188851 1 I I 0 1 0.5 forward I I I I #
face $-1 $181 $182 $61 $-1 $183 forward single #
loop $-1 $184 $185 $78 #
cone-surface $-1 -63.515146980480225 17.403683048338081 11.892438962970189 0.73135370988377701 0 -0.68199835119979291 0.34099917559989645 0 0.36567685494188851 1 I I 0 1 0.5 forward I I I I #
face $-1 $186 $187 $62 $-1 $188 reversed single #
loop $-1 $-1 $189 $79 #
plane-surface $-1 -166.68576664206307 27.957691802597864 101.12584414782134 0 1 0 -0.73135370988377701 0 0.68199835119979291 forward_v I I I I #
face $-1 $190 $191 $63 $-1 $192 forward single #
loop $-1 $193 $194 $80 #
cone-surface $-1 -63.515146980480225 29.839988316746606 11.892438962970189 0.73135370988377701 0 -0.68199835119979291 0.34099917559989645 0 0.36567685494188851 1 I I 0 1 0.5 forward I I I I #
face $-1 $195 $196 $64 $-1 $197 forward single #
loop $-1 $198 $199 $81 #
cone-surface $-1 -63.515146980480225 32.663433087969729 11.892438962970189 0.73135370988377701 0 -0.68199835119979291 0.34099917559989645 0 0.36567685494188851 1 I I 0 1 0.5 forward I I I I #
face $-1 $200 $201 $65 $-1 $202 reversed single #
loop $-1 $-1 $203 $82 #
plane-surface $-1 84.36897155471992 1.8804041484059777 202.97826269439395 0 -1 0 -0.7660444514056185 0 -0.64278759981090561 forward_v I I I I #
face $-1 $204 $205 $66 $-1 $206 forward single #
loop $-1 $207 $208 $83 #
cone-surface $-1 64.742741750690172 -8.6064449911327117 13.206829132025479 -0.7660444514056185 0 -0.64278759981090561 0.64278759981090561 0 -0.7660444514056185 1 I I 0 1 1 forward I I I I #
face $-1 $209 $210 $67 $-1 $211 forward single #
loop $-1 $212 $213 $84 #
cone-surface $-1 64.742741750690172 -2.3143355074094956 13.206829132025479 -0.7660444514056185 0 -0.64278759981090561 0.64278759981090561 0 -0.7660444514056185 1 I I 0 1 1 forward I I I I #
face $-1 $214 $215 $51 $-1 $216 reversed single #
loop $-1 $-1 $217 $85 #
plane-surface $-1 0 0 -16.266445126442015 0 0 1 1 0 0 forward_v I I I I #
coedge $-1 $218 $219 $220 $221 forward $86 $-1 #
face $-1 $222 $223 $52 $-1 $224 reversed single #
loop $-1 $-1 $225 $88 #
plane-surface $-1 -49.634492378573064 -17.82155831629705 0 0 -1 0 0 0 -1 forward_v I I I I #
coedge $-1 $226 $227 $228 $229 forward $89 $-1 #
face $-1 $230 $231 $53 $-1 $232 reversed single #
loop $-1 $-1 $233 $91 #
plane-surface $-1 -67.683950315866568 -14.527539416536754 8.8051591116019381 -0.73135370988377701 0 0.68199835119979291 0.68199835119979291 0 0.73135370988377701 forward_v I I I I #
coedge $-1 $234 $235 $236 $237 reversed $92 $-1 #
face $-1 $-1 $238 $54 $-1 $239 forward single #
loop $-1 $240 $241 $94 #
cone-surface $-1 -62.642386018514514 -15.939261802148312 11.078576219118453 0.73135370988377701 0 -0.68199835119979291 0.17049958779994823 0 0.18283842747094425 1 I I -0.70710678118654746 0.70710678118654746 0.25 forward I I I I #
loop $-1 $-1 $242 $71 #
coedge $-1 $152 $152 $243 $244 reversed $95 $-1 #
face $-1 $-1 $245 $55 $-1 $246 forward single #
loop $-1 $247 $248 $97 #
cone-surface $-1 -62.642386018514514 -13.1158170309252 11.078576219118453 0.73135370988377701 0 -0.68199835119979291 0.17049958779994823 0 0.18283842747094425 1 I I -0.70710678118654746 0.70710678118654746 0.25 forward I I I I #
loop $-1 $-1 $249 $72 #
coedge $-1 $157 $157 $250 $251 reversed $98 $-1 #
face $-1 $252 $253 $56 $-1 $254 reversed single #
loop $-1 $-1 $255 $100 #
plane-surface $-1 -67.683950315866568 0.73221062309488616 8.8051591116019381 -0.73135370988377701 0 0.68199835119979291 0.68199835119979291 0 0.73135370988377701 forward_v I I I I #
coedge $-1 $256 $257 $258 $259 reversed $101 $-1 #
face $-1 $-1 $260 $57 $-1 $261 forward single #
loop $-1 $262 $263 $103 #
cone-surface $-1 -62.642386018514514 -0.67951176251667533 11.078576219118453 0.73135370988377701 0 -0.68199835119979291 0.17049958779994823 0 0.18283842747094425 1 I I -0.70710678118654746 0.70710678118654746 0.25 forward I I I I #
loop $-1 $-1 $264 $74 #
coedge $-1 $166 $166 $265 $266 reversed $104 $-1 #
face $-1 $-1 $267 $58 $-1 $268 forward single #
loop $-1 $269 $270 $106 #
cone-surface $-1 -62.642386018514514 2.1439330087064405 11.078576219118453 0.73135370988377701 0 -0.68199835119979291 0.17049958779994823 0 0.18283842747094425 1 I I -0.70710678118654746 0.70710678118654746 0.25 forward I I I I #
loop $-1 $-1 $271 $75 #
coedge $-1 $171 $171 $272 $273 reversed $107 $-1 #
face $-1 $274 $275 $59 $-1 $276 reversed single #
loop $-1 $-1 $277 $109 #
plane-surface $-1 -67.683950315866568 15.991960662726527 8.8051591116019381 -0.73135370988377701 0 0.68199835119979291 0.68199835119979291 0 0.73135370988377701 forward_v I I I I #
coedge $-1 $278 $279 $280 $281 reversed $110 $-1 #
face $-1 $-1 $282 $60 $-1 $283 forward single #
loop $-1 $284 $285 $112 #
cone-surface $-1 -62.642386018514514 14.580238277114965 11.078576219118453 0.73135370988377701 0 -0.68199835119979291 0.17049958779994823 0 0.18283842747094425 1 I I -0.70710678118654746 0.70710678118654746 0.25 forward I I I I #
loop $-1 $-1 $286 $77 #
coedge $-1 $180 $180 $287 $288 reversed $113 $-1 #
face $-1 $-1 $289 $61 $-1 $290 forward single #
loop $-1 $291 $292 $115 #
cone-surface $-1 -62.642386018514514 17.403683048338081 11.078576219118453 0.73135370988377701 0 -0.68199835119979291 0.17049958779994823 0 0.18283842747094425 1 I I -0.70710678118654746 0.70710678118654746 0.25 forward I I I I #
loop $-1 $-1 $293 $78 #
coedge $-1 $185 $185 $294 $295 reversed $116 $-1 #
face $-1 $296 $297 $62 $-1 $298 forward single #
loop $-1 $-1 $299 $118 #
plane-surface $-1 -67.683950315866568 31.25171070235816 8.8051591116019381 -0.73135370988377701 0 0.68199835119979291 0.68199835119979291 0 0.73135370988377701 forward_v I I I I #
coedge $-1 $300 $301 $302 $303 reversed $119 $-1 #
face $-1 $-1 $304 $63 $-1 $305 forward single #
loop $-1 $306 $307 $121 #
cone-surface $-1 -62.642386018514514 29.839988316746606 11.078576219118453 0.73135370988377701 0 -0.68199835119979291 0.17049958779994823 0 0.18283842747094425 1 I I -0.70710678118654746 0.70710678118654746 0.25 forward I I I I #
loop $-1 $-1 $308 $80 #
coedge $-1 $194 $194 $309 $310 reversed $122 $-1 #
face $-1 $-1 $311 $64 $-1 $312 forward single #
loop $-1 $313 $314 $124 #
cone-surface $-1 -62.642386018514514 32.663433087969729 11.078576219118453 0.73135370988377701 0 -0.68199835119979291 0.17049958779994823 0 0.18283842747094425 1 I I -0.70710678118654746 0.70710678118654746 0.25 forward I I I I #
loop $-1 $-1 $315 $81 #
coedge $-1 $199 $199 $316 $317 reversed $125 $-1 #
face $-1 $318 $319 $65 $-1 $320 reversed single #
loop $-1 $-1 $321 $127 #
plane-surface $-1 -19.328857622646368 -5.4603902492711072 115.96545475588103 0.7660444514056185 0 0.64278759981090561 0.64278759981090561 0 -0.7660444514056185 forward_v I I I I #
coedge $-1 $322 $323 $324 $325 reversed $128 $-1 #
face $-1 $-1 $326 $66 $-1 $327 forward single #
loop $-1 $328 $329 $130 #
cone-surface $-1 63.096214919791819 -8.6064449911327117 11.82522911166712 -0.7660444514056185 0 -0.64278759981090561 0.3213937999054528 0 -0.38302222570280925 1 I I -0.70710678118654624 0.70710678118654879 0.5 forward I I I I #
loop $-1 $-1 $330 $83 #
coedge $-1 $208 $208 $331 $332 reversed $131 $-1 #
face $-1 $-1 $333 $67 $-1 $334 forward single #
loop $-1 $335 $336 $133 #
cone-surface $-1 63.096214919791819 -2.3143355074094956 11.82522911166712 -0.7660444514056185 0 -0.64278759981090561 0.3213937999054528 0 -0.38302222570280925 1 I I -0.70710678118654624 0.70710678118654879 0.5 forward I I I I #
loop $-1 $-1 $337 $84 #
coedge $-1 $213 $213 $338 $339 reversed $134 $-1 #
face $-1 $340 $341 $51 $-1 $342 reversed single #
loop $-1 $-1 $343 $136 #
plane-surface $-1 0 -34.545729602118463 0 0 1 0 0 0 1 forward_v I I I I #
coedge $-1 $344 $345 $346 $347 forward $137 $-1 #
coedge $-1 $348 $139 $349 $350 forward $86 $-1 #
coedge $-1 $139 $348 $351 $352 forward $86 $-1 #
coedge $-1 $353 $354 $139 $221 reversed $355 $-1 #
edge $-1 $356 -34.545729602118463 $357 34.545729602118463 $220 $358 forward 7 unknown #
face $-1 $359 $360 $52 $-1 $361 forward single #
loop $-1 $-1 $362 $140 #
plane-surface $-1 -47.002581854971339 -26.183643959207757 0 -1 0 0 0 0 1 forward_v I I I I #
coedge $-1 $363 $364 $365 $366 forward $141 $-1 #
coedge $-1 $367 $143 $368 $369 reversed $89 $-1 #
coedge $-1 $143 $367 $370 $371 reversed $89 $-1 #
coedge $-1 $364 $363 $143 $229 reversed $141 $-1 #
edge $-1 $372 -16.266445126442015 $373 16.266445126442015 $228 $374 forward 7 unknown #
face $-1 $375 $376 $53 $-1 $377 reversed single #
loop $-1 $-1 $378 $144 #
plane-surface $-1 -166.68576664206307 -11.233520516776457 101.12584414782134 0 -1 0 0.73135370988377701 0 -0.68199835119979291 forward_v I I I I #
coedge $-1 $379 $380 $381 $382 reversed $145 $-1 #
coedge $-1 $235 $147 $383 $384 reversed $92 $-1 #
coedge $-1 $147 $234 $379 $385 reversed $92 $-1 #
coedge $-1 $381 $386 $147 $237 forward $387 $-1 #
edge $-1 $388 15.658933005164968 $389 22.61669460694813 $236 $390 forward 7 unknown #
loop $-1 $-1 $243 $148 #
plane-surface $-1 -67.683950315866568 -14.527539416536754 8.8051591116019381 -0.73135370988377701 0 0.68199835119979291 0.68199835119979291 0 0.73135370988377701 forward_v I I I I #
loop $-1 $-1 $391 $94 #
coedge $-1 $241 $241 $242 $392 reversed $149 $-1 #
coedge $-1 $242 $242 $241 $392 forward $151 $-1 #
coedge $-1 $243 $243 $152 $244 forward $238 $-1 #
edge $-1 $393 0 $393 6.2831853071796004 $243 $394 forward 7 unknown #
loop $-1 $-1 $250 $153 #
plane-surface $-1 -67.683950315866568 -14.527539416536754 8.8051591116019381 -0.73135370988377701 0 0.68199835119979291 0.68199835119979291 0 0.73135370988377701 forward_v I I I I #
loop $-1 $-1 $395 $97 #
coedge $-1 $248 $248 $249 $396 reversed $154 $-1 #
coedge $-1 $249 $249 $248 $396 forward $156 $-1 #
coedge $-1 $250 $250 $157 $251 forward $245 $-1 #
edge $-1 $397 0 $397 6.2831853071796004 $250 $398 forward 7 unknown #
face $-1 $399 $400 $56 $-1 $401 forward single #
loop $-1 $-1 $402 $158 #
plane-surface $-1 -166.68576664206307 4.0262295228551839 101.12584414782134 0 -1 0 0.73135370988377701 0 -0.68199835119979291 forward_v I I I I #
coedge $-1 $403 $404 $405 $406 reversed $159 $-1 #
coedge $-1 $257 $161 $407 $408 reversed $101 $-1 #
coedge $-1 $161 $256 $403 $409 reversed $101 $-1 #
coedge $-1 $405 $410 $161 $259 forward $400 $-1 #
edge $-1 $411 15.658933005164968 $412 22.61669460694813 $258 $413 forward 7 unknown #
loop $-1 $-1 $265 $162 #
plane-surface $-1 -67.683950315866568 0.73221062309488616 8.8051591116019381 -0.73135370988377701 0 0.68199835119979291 0.68199835119979291 0 0.73135370988377701 forward_v I I I I #
loop $-1 $-1 $414 $103 #
coedge $-1 $263 $263 $264 $415 reversed $163 $-1 #
coedge $-1 $264 $264 $263 $415 forward $165 $-1 #
coedge $-1 $265 $265 $166 $266 forward $260 $-1 #
edge $-1 $416 0 $416 6.2831853071796004 $265 $417 forward 7 unknown #
loop $-1 $-1 $272 $167 #
plane-surface $-1 -67.683950315866568 0.73221062309488616 8.8051591116019381 -0.73135370988377701 0 0.68199835119979291 0.68199835119979291 0 0.73135370988377701 forward_v I I I I #
loop $-1 $-1 $418 $106 #
coedge $-1 $270 $270 $271 $419 reversed $168 $-1 #
coedge $-1 $271 $271 $270 $419 forward $170 $-1 #
coedge $-1 $272 $272 $171 $273 forward $267 $-1 #
edge $-1 $420 0 $420 6.2831853071796004 $272 $421 forward 7 unknown #
face $-1 $422 $423 $59 $-1 $424 forward single #
loop $-1 $-1 $425 $172 #
plane-surface $-1 -166.68576664206307 19.285979562486823 101.12584414782134 0 -1 0 0.73135370988377701 0 -0.68199835119979291 forward_v I I I I #
coedge $-1 $426 $427 $428 $429 reversed $173 $-1 #
coedge $-1 $279 $175 $430 $431 reversed $110 $-1 #
coedge $-1 $175 $278 $426 $432 reversed $110 $-1 #
coedge $-1 $428 $433 $175 $281 forward $423 $-1 #
edge $-1 $434 15.658933005164968 $435 22.61669460694813 $280 $436 forward 7 unknown #
loop $-1 $-1 $287 $176 #
plane-surface $-1 -67.683950315866568 15.991960662726527 8.8051591116019381 -0.73135370988377701 0 0.68199835119979291 0.68199835119979291 0 0.73135370988377701 forward_v I I I I #
loop $-1 $-1 $437 $112 #
coedge $-1 $285 $285 $286 $438 reversed $177 $-1 #
coedge $-1 $286 $286 $285 $438 forward $179 $-1 #
coedge $-1 $287 $287 $180 $288 forward $282 $-1 #
edge $-1 $439 0 $439 6.2831853071796004 $287 $440 forward 7 unknown #
loop $-1 $-1 $294 $181 #
plane-surface $-1 -67.683950315866568 15.991960662726527 8.8051591116019381 -0.73135370988377701 0 0.68199835119979291 0.68199835119979291 0 0.73135370988377701 forward_v I I I I #
loop $-1 $-1 $441 $115 #
coedge $-1 $292 $292 $293 $442 reversed $182 $-1 #
coedge $-1 $293 $293 $292 $442 forward $184 $-1 #
coedge $-1 $294 $294 $185 $295 forward $289 $-1 #
edge $-1 $443 0 $443 6.2831853071796004 $294 $444 forward 7 unknown #
face $-1 $445 $446 $62 $-1 $447 reversed single #
loop $-1 $-1 $302 $186 #
plane-surface $-1 0 0 16.266445126442015 0 0 1 1 0 0 forward_v I I I I #
coedge $-1 $448 $449 $450 $451 reversed $187 $-1 #
coedge $-1 $301 $189 $452 $453 reversed $119 $-1 #
coedge $-1 $189 $300 $448 $454 reversed $119 $-1 #
coedge $-1 $450 $455 $189 $303 forward $297 $-1 #
edge $-1 $456 15.658933005164968 $457 22.61669460694813 $302 $458 forward 7 unknown #
loop $-1 $-1 $309 $190 #
plane-surface $-1 -67.683950315866568 31.25171070235816 8.8051591116019381 -0.73135370988377701 0 0.68199835119979291 0.68199835119979291 0 0.73135370988377701 forward_v I I I I #
loop $-1 $-1 $459 $121 #
coedge $-1 $307 $307 $308 $460 reversed $191 $-1 #
coedge $-1 $308 $308 $307 $460 forward $193 $-1 #
coedge $-1 $309 $309 $194 $310 forward $304 $-1 #
edge $-1 $461 0 $461 6.2831853071796004 $309 $462 forward 7 unknown #
loop $-1 $-1 $316 $195 #
plane-surface $-1 -67.683950315866568 31.25171070235816 8.8051591116019381 -0.73135370988377701 0 0.68199835119979291 0.68199835119979291 0 0.73135370988377701 forward_v I I I I #
loop $-1 $-1 $463 $124 #
coedge $-1 $314 $314 $315 $464 reversed $196 $-1 #
coedge $-1 $315 $315 $314 $464 forward $198 $-1 #
coedge $-1 $316 $316 $199 $317 forward $311 $-1 #
edge $-1 $465 0 $465 6.2831853071796004 $316 $466 forward 7 unknown #
face $-1 $467 $468 $65 $-1 $469 reversed single #
loop $-1 $-1 $470 $200 #
plane-surface $-1 84.36897155471992 -12.801184646948192 202.97826269439395 0 1 0 0.7660444514056185 0 0.64278759981090561 forward_v I I I I #
coedge $-1 $471 $472 $473 $474 reversed $201 $-1 #
coedge $-1 $323 $203 $475 $476 reversed $128 $-1 #
coedge $-1 $203 $322 $471 $477 reversed $128 $-1 #
coedge $-1 $473 $478 $203 $325 forward $479 $-1 #
edge $-1 $480 -25.499464538506608 $481 -22.144056618544916 $324 $482 forward 7 unknown #
loop $-1 $-1 $331 $204 #
plane-surface $-1 -19.328857622646368 -5.4603902492711072 115.96545475588103 0.7660444514056185 0 0.64278759981090561 0.64278759981090561 0 -0.7660444514056185 forward_v I I I I #
loop $-1 $-1 $483 $130 #
coedge $-1 $329 $329 $330 $484 reversed $205 $-1 #
coedge $-1 $330 $330 $329 $484 forward $207 $-1 #
coedge $-1 $331 $331 $208 $332 forward $326 $-1 #
edge $-1 $485 0 $485 6.2831853071796004 $331 $486 forward 7 unknown #
loop $-1 $-1 $338 $209 #
plane-surface $-1 -19.328857622646368 -5.4603902492711072 115.96545475588103 0.7660444514056185 0 0.64278759981090561 0.64278759981090561 0 -0.7660444514056185 forward_v I I I I #
loop $-1 $-1 $487 $133 #
coedge $-1 $336 $336 $337 $488 reversed $210 $-1 #
coedge $-1 $337 $337 $336 $488 forward $212 $-1 #
coedge $-1 $338 $338 $213 $339 forward $333 $-1 #
edge $-1 $489 0 $489 6.2831853071796004 $338 $490 forward 7 unknown #
face $-1 $491 $492 $51 $-1 $493 reversed single #
loop $-1 $-1 $494 $214 #
plane-surface $-1 -67.683950315866568 0 0 1 0 0 0 0 -1 forward_v I I I I #
coedge $-1 $495 $351 $496 $497 forward $215 $-1 #
coedge $-1 $498 $217 $495 $499 forward $137 $-1 #
coedge $-1 $217 $498 $500 $501 forward $137 $-1 #
coedge $-1 $354 $353 $217 $347 reversed $355 $-1 #
edge $-1 $502 -34.545729602118463 $503 34.545729602118463 $346 $504 forward 7 unknown #
coedge $-1 $219 $218 $505 $506 forward $86 $-1 #
coedge $-1 $507 $508 $218 $350 reversed $492 $-1 #
edge $-1 $357 -67.683950315866568 $509 67.683950315866568 $349 $510 forward 7 unknown #
coedge $-1 $343 $511 $219 $352 reversed $215 $-1 #
edge $-1 $512 -67.683950315866568 $356 67.683950315866568 $351 $513 forward 7 unknown #
coedge $-1 $346 $220 $511 $514 forward $355 $-1 #
coedge $-1 $220 $346 $507 $515 reversed $355 $-1 #
loop $-1 $-1 $353 $491 #
vertex $-1 $221 $516 #
vertex $-1 $221 $517 #
straight-curve $-1 67.683950315866568 0 16.266445126442015 0 1 0 I I #
face $-1 $518 $519 $52 $-1 $520 reversed single #
loop $-1 $-1 $521 $222 #
plane-surface $-1 0 0 16.266445126442015 0 0 1 1 0 0 forward_v I I I I #
coedge $-1 $522 $523 $524 $525 reversed $223 $-1 #
coedge $-1 $228 $225 $526 $527 reversed $141 $-1 #
coedge $-1 $225 $228 $528 $529 reversed $141 $-1 #
coedge $-1 $523 $522 $225 $366 reversed $223 $-1 #
edge $-1 $530 -16.266445126442015 $531 16.266445126442015 $365 $532 forward 7 unknown #
coedge $-1 $227 $226 $533 $534 reversed $89 $-1 #
coedge $-1 $526 $535 $226 $369 forward $519 $-1 #
edge $-1 $536 -21.453907622514585 $373 -4.7297363366931719 $368 $537 forward 7 unknown #
coedge $-1 $538 $528 $227 $371 forward $360 $-1 #
edge $-1 $372 4.7297363366931719 $539 21.453907622514585 $370 $540 forward 7 unknown #
vertex $-1 $371 $541 #
vertex $-1 $369 $542 #
straight-curve $-1 -52.266402902174789 -17.82155831629705 0 0 0 -1 I I #
face $-1 $-1 $387 $53 $-1 $543 forward single #
loop $-1 $-1 $544 $230 #
plane-surface $-1 -67.683950315866568 0 0 1 0 0 0 0 -1 forward_v I I I I #
coedge $-1 $545 $546 $547 $548 reversed $231 $-1 #
coedge $-1 $549 $233 $235 $385 forward $145 $-1 #
coedge $-1 $233 $549 $545 $550 forward $145 $-1 #
coedge $-1 $547 $236 $233 $382 forward $387 $-1 #
edge $-1 $389 -10.557788608028673 $551 -3.9697508085080795 $381 $552 forward 7 unknown #
coedge $-1 $553 $554 $234 $384 forward $376 $-1 #
edge $-1 $555 -41.757762962308732 $388 -34.296476947468655 $383 $556 forward 7 unknown #
edge $-1 $389 -10.202021147914579 $555 0 $235 $557 forward 7 unknown #
coedge $-1 $236 $547 $553 $558 forward $387 $-1 #
loop $-1 $-1 $547 $375 #
vertex $-1 $384 $559 #
vertex $-1 $237 $560 #
straight-curve $-1 -83.342883321031536 -17.82155831629705 16.266445126442015 1 0 0 I I #
coedge $-1 $391 $391 $-1 $561 reversed $240 $-1 #
edge $-1 $562 0 $562 6.2831853071796004 $241 $563 forward 7 unknown #
vertex $-1 $244 $564 #
ellipse-curve $-1 -64.20506951497498 -15.939261802148312 12.535802119021977 -0.73135370988377701 0 0.68199835119979291 0.34099917559989645 0 0.36567685494188851 1 I I #
coedge $-1 $395 $395 $-1 $565 reversed $247 $-1 #
edge $-1 $566 0 $566 6.2831853071796004 $248 $567 forward 7 unknown #
vertex $-1 $251 $568 #
ellipse-curve $-1 -64.20506951497498 -13.1158170309252 12.535802119021977 -0.73135370988377701 0 0.68199835119979291 0.34099917559989645 0 0.36567685494188851 1 I I #
face $-1 $-1 $569 $56 $-1 $570 reversed single #
loop $-1 $-1 $258 $252 #
plane-surface $-1 0 0 16.266445126442015 0 0 1 1 0 0 forward_v I I I I #
coedge $-1 $571 $572 $573 $574 reversed $253 $-1 #
coedge $-1 $575 $255 $257 $409 forward $159 $-1 #
coedge $-1 $255 $575 $571 $576 forward $159 $-1 #
coedge $-1 $573 $258 $255 $406 forward $400 $-1 #
edge $-1 $412 -2.9279135882128546 $577 3.6601242113077408 $405 $578 forward 7 unknown #
coedge $-1 $579 $580 $256 $408 forward $569 $-1 #
edge $-1 $581 -41.757762962308732 $411 -34.296476947468655 $407 $582 forward 7 unknown #
edge $-1 $412 -10.202021147914579 $581 0 $257 $583 forward 7 unknown #
coedge $-1 $258 $573 $579 $584 forward $400 $-1 #
vertex $-1 $408 $585 #
vertex $-1 $259 $586 #
straight-curve $-1 -83.342883321031536 -2.5618082766654116 16.266445126442015 1 0 0 I I #
coedge $-1 $414 $414 $-1 $587 reversed $262 $-1 #
edge $-1 $588 0 $588 6.2831853071796004 $263 $589 forward 7 unknown #
vertex $-1 $266 $590 #
ellipse-curve $-1 -64.20506951497498 -0.67951176251667533 12.535802119021977 -0.73135370988377701 0 0.68199835119979291 0.34099917559989645 0 0.36567685494188851 1 I I #
coedge $-1 $418 $418 $-1 $591 reversed $269 $-1 #
edge $-1 $592 0 $592 6.2831853071796004 $270 $593 forward 7 unknown #
vertex $-1 $273 $594 #
ellipse-curve $-1 -64.20506951497498 2.1439330087064405 12.535802119021977 -0.73135370988377701 0 0.68199835119979291 0.34099917559989645 0 0.36567685494188851 1 I I #
face $-1 $-1 $595 $59 $-1 $596 reversed single #
loop $-1 $-1 $280 $274 #
plane-surface $-1 0 0 16.266445126442015 0 0 1 1 0 0 forward_v I I I I #
coedge $-1 $597 $598 $599 $600 reversed $275 $-1 #
coedge $-1 $601 $277 $279 $432 forward $173 $-1 #
coedge $-1 $277 $601 $597 $602 forward $173 $-1 #
coedge $-1 $599 $280 $277 $429 forward $423 $-1 #
edge $-1 $435 4.7019614316029656 $603 11.289999231123559 $428 $604 forward 7 unknown #
coedge $-1 $605 $606 $278 $431 forward $595 $-1 #
edge $-1 $607 -41.757762962308732 $434 -34.296476947468655 $430 $608 forward 7 unknown #
edge $-1 $435 -10.202021147914579 $607 0 $279 $609 forward 7 unknown #
coedge $-1 $280 $599 $605 $610 forward $423 $-1 #
vertex $-1 $281 $611 #
vertex $-1 $281 $612 #
straight-curve $-1 -83.342883321031536 12.697941762966229 16.266445126442015 1 0 0 I I #
coedge $-1 $437 $437 $-1 $613 reversed $284 $-1 #
edge $-1 $614 0 $614 6.2831853071796004 $285 $615 forward 7 unknown #
vertex $-1 $288 $616 #
ellipse-curve $-1 -64.20506951497498 14.580238277114965 12.535802119021977 -0.73135370988377701 0 0.68199835119979291 0.34099917559989645 0 0.36567685494188851 1 I I #
coedge $-1 $441 $441 $-1 $617 reversed $291 $-1 #
edge $-1 $618 0 $618 6.2831853071796004 $292 $619 forward 7 unknown #
vertex $-1 $295 $620 #
ellipse-curve $-1 -64.20506951497498 17.403683048338081 12.535802119021977 -0.73135370988377701 0 0.68199835119979291 0.34099917559989645 0 0.36567685494188851 1 I I #
face $-1 $-1 $621 $62 $-1 $622 reversed single #
loop $-1 $-1 $623 $296 #
plane-surface $-1 0 34.545729602118463 0 0 -1 0 0 0 -1 forward_v I I I I #
coedge $-1 $624 $299 $301 $454 forward $187 $-1 #
coedge $-1 $299 $624 $623 $625 reversed $187 $-1 #
coedge $-1 $626 $302 $299 $451 forward $297 $-1 #
edge $-1 $457 12.331836451418784 $627 18.919874250939376 $450 $628 forward 7 unknown #
coedge $-1 $629 $630 $300 $453 forward $621 $-1 #
edge $-1 $631 -41.757762962308732 $456 -34.296476947468655 $452 $632 forward 7 unknown #
edge $-1 $457 -10.202021147914579 $631 0 $301 $633 forward 7 unknown #
coedge $-1 $302 $626 $629 $634 forward $297 $-1 #
vertex $-1 $453 $635 #
vertex $-1 $303 $636 #
straight-curve $-1 -83.342883321031536 27.957691802597864 16.266445126442015 1 0 0 I I #
coedge $-1 $459 $459 $-1 $637 reversed $306 $-1 #
edge $-1 $638 0 $638 6.2831853071796004 $307 $639 forward 7 unknown #
vertex $-1 $310 $640 #
ellipse-curve $-1 -64.20506951497498 29.839988316746606 12.535802119021977 -0.73135370988377701 0 0.68199835119979291 0.34099917559989645 0 0.36567685494188851 1 I I #
coedge $-1 $463 $463 $-1 $641 reversed $313 $-1 #
edge $-1 $642 0 $642 6.2831853071796004 $314 $643 forward 7 unknown #
vertex $-1 $317 $644 #
ellipse-curve $-1 -64.20506951497498 32.663433087969729 12.535802119021977 -0.73135370988377701 0 0.68199835119979291 0.34099917559989645 0 0.36567685494188851 1 I I #
face $-1 $-1 $479 $65 $-1 $645 forward single #
loop $-1 $-1 $646 $318 #
plane-surface $-1 67.683950315866568 0 0 -1 0 0 0 0 1 forward_v I I I I #
coedge $-1 $647 $648 $649 $650 reversed $319 $-1 #
coedge $-1 $651 $321 $323 $477 forward $201 $-1 #
coedge $-1 $321 $651 $647 $652 forward $201 $-1 #
coedge $-1 $649 $324 $321 $474 forward $479 $-1 #
edge $-1 $481 -4.6105992730415313 $653 10.070989522312638 $473 $654 forward 7 unknown #
coedge $-1 $655 $656 $322 $476 forward $468 $-1 #
edge $-1 $657 -89.221505768682249 $480 -85.222686220754952 $475 $658 forward 7 unknown #
edge $-1 $481 130.14781250161249 $657 135.36790063173319 $323 $659 forward 7 unknown #
coedge $-1 $324 $649 $655 $660 forward $479 $-1 #
loop $-1 $-1 $649 $467 #
vertex $-1 $476 $661 #
vertex $-1 $325 $662 #
straight-curve $-1 42.18448577735996 1.8804041484059777 16.266445126442022 -1 0 0 I I #
coedge $-1 $483 $483 $-1 $663 reversed $328 $-1 #
edge $-1 $664 0 $664 6.2831853071796004 $329 $665 forward 7 unknown #
vertex $-1 $332 $666 #
ellipse-curve $-1 66.006246355885708 -8.6064449911327117 14.267035352478381 0.7660444514056185 0 0.64278759981090561 0.64278759981090561 0 -0.7660444514056185 1 I I #
coedge $-1 $487 $487 $-1 $667 reversed $335 $-1 #
edge $-1 $668 0 $668 6.2831853071796004 $336 $669 forward 7 unknown #
vertex $-1 $339 $670 #
ellipse-curve $-1 66.006246355885708 -2.3143355074094956 14.267035352478381 0.7660444514056185 0 0.64278759981090561 0.64278759981090561 0 -0.7660444514056185 1 I I #
face $-1 $-1 $355 $51 $-1 $671 reversed single #
loop $-1 $-1 $507 $340 #
plane-surface $-1 0 34.545729602118463 0 0 -1 0 0 0 -1 forward_v I I I I #
coedge $-1 $672 $505 $508 $673 forward $341 $-1 #
coedge $-1 $511 $343 $344 $499 reversed $215 $-1 #
coedge $-1 $505 $672 $343 $497 reversed $341 $-1 #
edge $-1 $512 -16.266445126442015 $674 16.266445126442015 $496 $675 forward 7 unknown #
coedge $-1 $345 $344 $672 $676 forward $137 $-1 #
edge $-1 $503 -67.683950315866568 $674 67.683950315866568 $495 $677 forward 7 unknown #
coedge $-1 $508 $507 $345 $501 reversed $492 $-1 #
edge $-1 $678 -67.683950315866568 $502 67.683950315866568 $500 $679 forward 7 unknown #
vertex $-1 $347 $680 #
vertex $-1 $514 $681 #
straight-curve $-1 67.683950315866568 0 -16.266445126442015 0 -1 0 I I #
coedge $-1 $494 $496 $348 $506 reversed $341 $-1 #
edge $-1 $509 -34.545729602118463 $512 34.545729602118463 $505 $682 forward 7 unknown #
coedge $-1 $500 $349 $354 $515 forward $492 $-1 #
coedge $-1 $349 $500 $494 $673 reversed $492 $-1 #
vertex $-1 $350 $683 #
straight-curve $-1 0 34.545729602118463 16.266445126442015 -1 0 0 I I #
coedge $-1 $351 $495 $353 $514 reversed $215 $-1 #
vertex $-1 $506 $684 #
straight-curve $-1 0 -34.545729602118463 16.266445126442015 1 0 0 I I #
edge $-1 $356 -16.266445126442015 $503 16.266445126442015 $353 $685 forward 7 unknown #
edge $-1 $357 -16.266445126442015 $502 16.266445126442015 $354 $686 forward 7 unknown #
point $-1 67.683950315866568 -34.545729602118463 16.266445126442015 #
point $-1 67.683950315866568 34.545729602118463 16.266445126442015 #
face $-1 $-1 $687 $52 $-1 $688 reversed single #
loop $-1 $-1 $689 $359 #
plane-surface $-1 0 0 -16.266445126442015 0 0 1 1 0 0 forward_v I I I I #
coedge $-1 $528 $538 $523 $690 forward $360 $-1 #
coedge $-1 $365 $362 $689 $691 reversed $223 $-1 #
coedge $-1 $362 $365 $521 $690 reversed $223 $-1 #
coedge $-1 $692 $693 $362 $525 forward $687 $-1 #
edge $-1 $694 -16.266445126442015 $695 16.266445126442015 $524 $696 forward 7 unknown #
coedge $-1 $689 $368 $363 $527 forward $519 $-1 #
edge $-1 $373 -27.449156712888257 $531 -22.185335665684807 $526 $697 forward 7 unknown #
coedge $-1 $370 $521 $364 $529 forward $360 $-1 #
edge $-1 $530 22.185335665684807 $372 27.449156712888257 $528 $698 forward 7 unknown #
vertex $-1 $529 $699 #
vertex $-1 $527 $700 #
straight-curve $-1 -47.002581854971339 -17.82155831629705 0 0 0 -1 I I #
coedge $-1 $693 $692 $367 $534 forward $687 $-1 #
edge $-1 $539 -16.266445126442015 $536 16.266445126442015 $533 $701 forward 7 unknown #
coedge $-1 $368 $689 $693 $702 forward $519 $-1 #
vertex $-1 $369 $703 #
straight-curve $-1 -52.266402902174789 -13.091821979603878 -16.266445126442015 0 1 0 I I #
coedge $-1 $521 $370 $692 $704 forward $360 $-1 #
vertex $-1 $704 $705 #
straight-curve $-1 -52.266402902174789 -13.091821979603878 16.266445126442015 0 -1 0 I I #
point $-1 -52.266402902174789 -17.82155831629705 16.266445126442015 #
point $-1 -52.266402902174789 -17.82155831629705 -16.266445126442015 #
plane-surface $-1 0 0 16.266445126442015 0 0 1 1 0 0 forward_v I I I I #
coedge $-1 $554 $553 $546 $706 forward $376 $-1 #
coedge $-1 $546 $378 $380 $550 reversed $231 $-1 #
coedge $-1 $378 $545 $544 $706 reversed $231 $-1 #
coedge $-1 $386 $381 $378 $548 forward $387 $-1 #
edge $-1 $551 -22.61669460694813 $707 -15.658933005164968 $547 $708 forward 7 unknown #
coedge $-1 $380 $379 $554 $709 reversed $145 $-1 #
edge $-1 $710 0 $551 10.202021147914579 $545 $711 forward 7 unknown #
vertex $-1 $382 $712 #
straight-curve $-1 -60.726188714083406 -7.2637697082683772 16.266445126442015 0 1 0 I I #
coedge $-1 $544 $383 $386 $558 reversed $376 $-1 #
coedge $-1 $383 $544 $549 $709 forward $376 $-1 #
vertex $-1 $384 $713 #
straight-curve $-1 -67.683950315866568 -17.82155831629705 50.56292207391067 0 0 1 I I #
straight-curve $-1 -67.683950315866568 -17.82155831629705 8.8051591116019381 -0.68199835119979291 0 -0.73135370988377701 I I #
edge $-1 $707 11.233520516776457 $388 17.82155831629705 $553 $714 forward 7 unknown #
point $-1 -67.683950315866568 -17.82155831629705 16.266445126442015 #
point $-1 -60.726188714083406 -17.82155831629705 16.266445126442015 #
edge $-1 $715 1 $715 0 $391 $-1 forward 7 unknown #
vertex $-1 $392 $716 #
ellipse-curve $-1 -62.825224445985455 -15.939261802148312 11.249075806918402 -0.73135370988377701 0 0.68199835119979291 0.34099917559989645 0 0.36567685494188851 1 I I #
point $-1 -63.86407033937509 -15.939261802148312 12.901478973963869 #
edge $-1 $717 1 $717 0 $395 $-1 forward 7 unknown #
vertex $-1 $396 $718 #
ellipse-curve $-1 -62.825224445985455 -13.1158170309252 11.249075806918402 -0.73135370988377701 0 0.68199835119979291 0.34099917559989645 0 0.36567685494188851 1 I I #
point $-1 -63.86407033937509 -13.1158170309252 12.901478973963869 #
loop $-1 $-1 $407 $399 #
plane-surface $-1 -67.683950315866568 0 0 1 0 0 0 0 -1 forward_v I I I I #
coedge $-1 $572 $402 $404 $576 reversed $253 $-1 #
coedge $-1 $402 $571 $719 $720 reversed $253 $-1 #
coedge $-1 $410 $405 $402 $574 forward $400 $-1 #
edge $-1 $577 -22.61669460694813 $721 -15.658933005164968 $573 $722 forward 7 unknown #
coedge $-1 $404 $403 $580 $723 reversed $159 $-1 #
edge $-1 $724 0 $577 10.202021147914579 $571 $725 forward 7 unknown #
vertex $-1 $406 $726 #
straight-curve $-1 -60.726188714083406 0.36610531154744308 16.266445126442015 0 1 0 I I #
coedge $-1 $719 $407 $410 $584 reversed $569 $-1 #
coedge $-1 $407 $719 $575 $723 forward $569 $-1 #
vertex $-1 $408 $727 #
straight-curve $-1 -67.683950315866568 -2.5618082766654116 50.56292207391067 0 0 1 I I #
straight-curve $-1 -67.683950315866568 -2.5618082766654116 8.8051591116019381 -0.68199835119979291 0 -0.73135370988377701 I I #
edge $-1 $721 -4.0262295228551839 $411 2.5618082766654116 $579 $728 forward 7 unknown #
point $-1 -67.683950315866568 -2.5618082766654116 16.266445126442015 #
point $-1 -60.726188714083406 -2.5618082766654116 16.266445126442015 #
edge $-1 $729 1 $729 0 $414 $-1 forward 7 unknown #
vertex $-1 $415 $730 #
ellipse-curve $-1 -62.825224445985455 -0.67951176251667533 11.249075806918402 -0.73135370988377701 0 0.68199835119979291 0.34099917559989645 0 0.36567685494188851 1 I I #
point $-1 -63.86407033937509 -0.67951176251667533 12.901478973963869 #
edge $-1 $731 1 $731 0 $418 $-1 forward 7 unknown #
vertex $-1 $419 $732 #
ellipse-curve $-1 -62.825224445985455 2.1439330087064405 11.249075806918402 -0.73135370988377701 0 0.68199835119979291 0.34099917559989645 0 0.36567685494188851 1 I I #
point $-1 -63.86407033937509 2.1439330087064405 12.901478973963869 #
loop $-1 $-1 $430 $422 #
plane-surface $-1 -67.683950315866568 0 0 1 0 0 0 0 -1 forward_v I I I I #
coedge $-1 $598 $425 $427 $602 reversed $275 $-1 #
coedge $-1 $425 $597 $733 $734 reversed $275 $-1 #
coedge $-1 $433 $428 $425 $600 forward $423 $-1 #
edge $-1 $603 -22.61669460694813 $735 -15.658933005164968 $599 $736 forward 7 unknown #
coedge $-1 $427 $426 $606 $737 reversed $173 $-1 #
edge $-1 $738 0 $603 10.202021147914579 $597 $739 forward 7 unknown #
vertex $-1 $429 $740 #
straight-curve $-1 -60.726188714083406 7.9959803313632634 16.266445126442015 0 1 0 I I #
coedge $-1 $733 $430 $433 $610 reversed $595 $-1 #
coedge $-1 $430 $733 $601 $737 forward $595 $-1 #
vertex $-1 $431 $741 #
straight-curve $-1 -67.683950315866568 12.697941762966229 50.56292207391067 0 0 1 I I #
straight-curve $-1 -67.683950315866568 12.697941762966229 8.8051591116019381 -0.68199835119979291 0 -0.73135370988377701 I I #
edge $-1 $735 -19.285979562486823 $434 -12.697941762966229 $605 $742 forward 7 unknown #
point $-1 -67.683950315866568 12.697941762966229 16.266445126442015 #
point $-1 -60.726188714083406 12.697941762966229 16.266445126442015 #
edge $-1 $743 1 $743 0 $437 $-1 forward 7 unknown #
vertex $-1 $438 $744 #
ellipse-curve $-1 -62.825224445985455 14.580238277114965 11.249075806918402 -0.73135370988377701 0 0.68199835119979291 0.34099917559989645 0 0.36567685494188851 1 I I #
point $-1 -63.86407033937509 14.580238277114965 12.901478973963869 #
edge $-1 $745 1 $745 0 $441 $-1 forward 7 unknown #
vertex $-1 $442 $746 #
ellipse-curve $-1 -62.825224445985455 17.403683048338081 11.249075806918402 -0.73135370988377701 0 0.68199835119979291 0.34099917559989645 0 0.36567685494188851 1 I I #
point $-1 -63.86407033937509 17.403683048338081 12.901478973963869 #
loop $-1 $-1 $452 $445 #
plane-surface $-1 -67.683950315866568 0 0 1 0 0 0 0 -1 forward_v I I I I #
coedge $-1 $747 $748 $449 $625 forward $446 $-1 #
coedge $-1 $449 $448 $630 $749 reversed $187 $-1 #
edge $-1 $627 9.6583072199467637 $750 19.860328367861342 $623 $751 forward 7 unknown #
coedge $-1 $455 $450 $748 $752 forward $297 $-1 #
vertex $-1 $752 $753 #
straight-curve $-1 -60.726188714083406 15.62585535117908 16.266445126442015 0 1 0 I I #
coedge $-1 $754 $452 $455 $634 reversed $621 $-1 #
coedge $-1 $452 $754 $624 $749 forward $621 $-1 #
vertex $-1 $453 $755 #
straight-curve $-1 -67.683950315866568 27.957691802597864 50.56292207391067 0 0 1 I I #
straight-curve $-1 -67.683950315866568 27.957691802597864 8.8051591116019381 -0.68199835119979291 0 -0.73135370988377701 I I #
edge $-1 $756 -34.545729602118463 $456 -27.957691802597864 $629 $757 forward 7 unknown #
point $-1 -67.683950315866568 27.957691802597864 16.266445126442015 #
point $-1 -60.726188714083406 27.957691802597864 16.266445126442015 #
edge $-1 $758 1 $758 0 $459 $-1 forward 7 unknown #
vertex $-1 $460 $759 #
ellipse-curve $-1 -62.825224445985455 29.839988316746606 11.249075806918402 -0.73135370988377701 0 0.68199835119979291 0.34099917559989645 0 0.36567685494188851 1 I I #
point $-1 -63.86407033937509 29.839988316746606 12.901478973963869 #
edge $-1 $760 1 $760 0 $463 $-1 forward 7 unknown #
vertex $-1 $464 $761 #
ellipse-curve $-1 -62.825224445985455 32.663433087969729 11.249075806918402 -0.73135370988377701 0 0.68199835119979291 0.34099917559989645 0 0.36567685494188851 1 I I #
point $-1 -63.86407033937509 32.663433087969729 12.901478973963869 #
plane-surface $-1 0 0 16.266445126442015 0 0 1 1 0 0 forward_v I I I I #
coedge $-1 $656 $655 $648 $762 forward $468 $-1 #
coedge $-1 $648 $470 $472 $652 reversed $319 $-1 #
coedge $-1 $470 $647 $646 $762 reversed $319 $-1 #
coedge $-1 $478 $473 $470 $650 forward $479 $-1 #
edge $-1 $653 22.144056618544916 $763 25.499464538506608 $649 $764 forward 7 unknown #
coedge $-1 $472 $471 $656 $765 reversed $201 $-1 #
edge $-1 $766 -135.36790063173319 $653 -130.14781250161249 $647 $767 forward 7 unknown #
vertex $-1 $474 $768 #
straight-curve $-1 64.32854239590489 -2.7301951246355536 16.266445126442008 0 -1 0 I I #
coedge $-1 $646 $475 $478 $660 reversed $468 $-1 #
coedge $-1 $475 $646 $651 $765 forward $468 $-1 #
vertex $-1 $476 $769 #
straight-curve $-1 67.683950315866568 1.8804041484059777 101.48913134719697 0 0 1 I I #
straight-curve $-1 -19.328857622646368 1.8804041484059777 115.96545475588103 0.64278759981090561 0 -0.7660444514056185 I I #
edge $-1 $763 -12.801184646948192 $480 1.8804041484059777 $655 $770 forward 7 unknown #
point $-1 67.683950315866568 1.8804041484059777 16.266445126442015 #
point $-1 64.328542395904876 1.8804041484059777 16.266445126442022 #
edge $-1 $771 1 $771 0 $483 $-1 forward 7 unknown #
vertex $-1 $484 $772 #
ellipse-curve $-1 63.479237145494629 -8.6064449911327117 12.146622911572575 0.7660444514056185 0 0.64278759981090561 0.64278759981090561 0 -0.7660444514056185 1 I I #
point $-1 66.649033955696623 -8.6064449911327117 13.500990901072763 #
edge $-1 $773 1 $773 0 $487 $-1 forward 7 unknown #
vertex $-1 $488 $774 #
ellipse-curve $-1 63.479237145494629 -2.3143355074094956 12.146622911572575 0.7660444514056185 0 0.64278759981090561 0.64278759981090561 0 -0.7660444514056185 1 I I #
point $-1 66.649033955696623 -2.3143355074094956 13.500990901072763 #
plane-surface $-1 67.683950315866568 0 0 -1 0 0 0 0 1 forward_v I I I I #
coedge $-1 $496 $494 $498 $676 reversed $341 $-1 #
edge $-1 $509 -16.266445126442015 $678 16.266445126442015 $508 $775 forward 7 unknown #
vertex $-1 $676 $776 #
straight-curve $-1 -67.683950315866568 -34.545729602118463 0 0 0 -1 I I #
edge $-1 $674 -34.545729602118463 $678 34.545729602118463 $672 $777 forward 7 unknown #
straight-curve $-1 0 -34.545729602118463 -16.266445126442015 -1 0 0 I I #
vertex $-1 $501 $778 #
straight-curve $-1 0 34.545729602118463 -16.266445126442015 1 0 0 I I #
point $-1 67.683950315866568 34.545729602118463 -16.266445126442015 #
point $-1 67.683950315866568 -34.545729602118463 -16.266445126442015 #
straight-curve $-1 -67.683950315866568 0 16.266445126442015 0 -1 0 I I #
point $-1 -67.683950315866568 34.545729602118463 16.266445126442015 #
point $-1 -67.683950315866568 -34.545729602118463 16.266445126442015 #
straight-curve $-1 67.683950315866568 -34.545729602118463 0 0 0 -1 I I #
straight-curve $-1 67.683950315866568 34.545729602118463 0 0 0 -1 I I #
loop $-1 $-1 $524 $518 #
plane-surface $-1 0 -34.545729602118463 0 0 1 0 0 0 1 forward_v I I I I #
coedge $-1 $535 $526 $522 $691 forward $519 $-1 #
edge $-1 $695 -21.453907622514585 $530 -4.7297363366931719 $521 $779 forward 7 unknown #
edge $-1 $531 4.7297363366931719 $694 21.453907622514585 $689 $780 forward 7 unknown #
coedge $-1 $533 $524 $538 $704 reversed $687 $-1 #
coedge $-1 $524 $533 $535 $702 reversed $687 $-1 #
vertex $-1 $702 $781 #
vertex $-1 $525 $782 #
straight-curve $-1 -47.002581854971339 -34.545729602118463 0 0 0 1 I I #
straight-curve $-1 -24.817246189286532 -17.82155831629705 -16.266445126442015 1 0 0 I I #
straight-curve $-1 -24.817246189286532 -17.82155831629705 16.266445126442015 -1 0 0 I I #
point $-1 -47.002581854971339 -17.82155831629705 16.266445126442015 #
point $-1 -47.002581854971339 -17.82155831629705 -16.266445126442015 #
straight-curve $-1 -52.266402902174789 -34.545729602118463 0 0 0 -1 I I #
edge $-1 $694 47.002581854971339 $536 52.266402902174789 $693 $783 forward 7 unknown #
point $-1 -52.266402902174789 -34.545729602118463 -16.266445126442015 #
edge $-1 $539 -52.266402902174789 $695 -47.002581854971339 $692 $784 forward 7 unknown #
point $-1 -52.266402902174789 -34.545729602118463 16.266445126442015 #
edge $-1 $707 34.296476947468655 $710 41.757762962308732 $544 $785 forward 7 unknown #
vertex $-1 $558 $786 #
straight-curve $-1 -83.342883321031536 -11.233520516776457 16.266445126442015 -1 0 0 I I #
edge $-1 $710 3.9697508085080795 $555 10.557788608028673 $554 $787 forward 7 unknown #
vertex $-1 $709 $788 #
straight-curve $-1 -67.683950315866568 -11.233520516776457 8.8051591116019381 0.68199835119979291 0 0.73135370988377701 I I #
point $-1 -60.726188714083406 -11.233520516776457 16.266445126442015 #
point $-1 -67.683950315866568 -17.82155831629705 8.8051591116019381 #
straight-curve $-1 -67.683950315866568 0 16.266445126442015 0 -1 0 I I #
vertex $-1 $561 $789 #
point $-1 -62.484225270385565 -15.939261802148312 11.61475266186029 #
vertex $-1 $565 $790 #
point $-1 -62.484225270385565 -13.1158170309252 11.61475266186029 #
coedge $-1 $580 $579 $572 $720 forward $569 $-1 #
edge $-1 $721 34.296476947468655 $724 41.757762962308732 $719 $791 forward 7 unknown #
vertex $-1 $584 $792 #
straight-curve $-1 -83.342883321031536 4.0262295228551839 16.266445126442015 -1 0 0 I I #
edge $-1 $724 -3.6601242113077408 $581 2.9279135882128546 $580 $793 forward 7 unknown #
vertex $-1 $723 $794 #
straight-curve $-1 -67.683950315866568 4.0262295228551839 8.8051591116019381 0.68199835119979291 0 0.73135370988377701 I I #
point $-1 -60.726188714083406 4.0262295228551839 16.266445126442015 #
point $-1 -67.683950315866568 -2.5618082766654116 8.8051591116019381 #
straight-curve $-1 -67.683950315866568 0 16.266445126442015 0 -1 0 I I #
vertex $-1 $587 $795 #
point $-1 -62.484225270385565 -0.67951176251667533 11.61475266186029 #
vertex $-1 $591 $796 #
point $-1 -62.484225270385565 2.1439330087064405 11.61475266186029 #
coedge $-1 $606 $605 $598 $734 forward $595 $-1 #
edge $-1 $735 34.296476947468655 $738 41.757762962308732 $733 $797 forward 7 unknown #
vertex $-1 $610 $798 #
straight-curve $-1 -83.342883321031536 19.285979562486823 16.266445126442015 -1 0 0 I I #
edge $-1 $738 -11.289999231123559 $607 -4.7019614316029656 $606 $799 forward 7 unknown #
vertex $-1 $737 $800 #
straight-curve $-1 -67.683950315866568 19.285979562486823 8.8051591116019381 0.68199835119979291 0 0.73135370988377701 I I #
point $-1 -60.726188714083406 19.285979562486823 16.266445126442015 #
point $-1 -67.683950315866568 12.697941762966229 8.8051591116019381 #
straight-curve $-1 -67.683950315866568 0 16.266445126442015 0 -1 0 I I #
vertex $-1 $613 $801 #
point $-1 -62.484225270385565 14.580238277114965 11.61475266186029 #
vertex $-1 $617 $802 #
point $-1 -62.484225270385565 17.403683048338081 11.61475266186029 #
coedge $-1 $748 $623 $754 $803 reversed $446 $-1 #
coedge $-1 $623 $747 $626 $752 reversed $446 $-1 #
edge $-1 $750 -18.919874250939376 $631 -12.331836451418784 $630 $804 forward 7 unknown #
vertex $-1 $625 $805 #
straight-curve $-1 -54.139239114698654 34.545729602118463 23.330083942947347 -0.68199835119979291 0 -0.73135370988377701 I I #
edge $-1 $627 60.726188714083406 $756 67.683950315866568 $748 $806 forward 7 unknown #
point $-1 -60.726188714083406 34.545729602118456 16.266445126442015 #
coedge $-1 $630 $629 $747 $803 forward $621 $-1 #
point $-1 -67.683950315866568 27.957691802597864 8.8051591116019381 #
vertex $-1 $752 $807 #
straight-curve $-1 -67.683950315866568 0 16.266445126442015 0 -1 0 I I #
vertex $-1 $637 $808 #
point $-1 -62.484225270385565 29.839988316746606 11.61475266186029 #
vertex $-1 $641 $809 #
point $-1 -62.484225270385565 32.663433087969729 11.61475266186029 #
edge $-1 $763 85.222686220754952 $766 89.221505768682249 $646 $810 forward 7 unknown #
vertex $-1 $660 $811 #
straight-curve $-1 42.18448577735996 -12.801184646948192 16.266445126442022 1 0 0 I I #
edge $-1 $766 -10.070989522312638 $657 4.6105992730415313 $656 $812 forward 7 unknown #
vertex $-1 $765 $813 #
straight-curve $-1 -19.328857622646368 -12.801184646948192 115.96545475588103 -0.64278759981090561 0 0.7660444514056185 I I #
point $-1 64.328542395904876 -12.801184646948192 16.266445126442022 #
point $-1 67.683950315866568 1.8804041484059777 12.267625578514725 #
straight-curve $-1 67.683950315866568 0 16.266445126442015 0 1 0 I I #
vertex $-1 $663 $814 #
point $-1 64.122024745305538 -8.6064449911327117 11.380578460166955 #
vertex $-1 $667 $815 #
point $-1 64.122024745305538 -2.3143355074094956 11.380578460166955 #
straight-curve $-1 -67.683950315866568 34.545729602118463 0 0 0 -1 I I #
point $-1 -67.683950315866568 -34.545729602118463 -16.266445126442015 #
straight-curve $-1 -67.683950315866568 0 -16.266445126442015 0 1 0 I I #
point $-1 -67.683950315866568 34.545729602118463 -16.266445126442015 #
straight-curve $-1 -47.002581854971339 -13.091821979603878 16.266445126442015 0 1 0 I I #
straight-curve $-1 -47.002581854971339 -13.091821979603878 -16.266445126442015 0 -1 0 I I #
point $-1 -47.002581854971339 -34.545729602118463 -16.266445126442015 #
point $-1 -47.002581854971339 -34.545729602118463 16.266445126442015 #
straight-curve $-1 0 -34.545729602118463 -16.266445126442015 -1 0 0 I I #
straight-curve $-1 0 -34.545729602118463 16.266445126442015 1 0 0 I I #
straight-curve $-1 -67.683950315866568 -11.233520516776457 50.56292207391067 0 0 -1 I I #
point $-1 -67.683950315866568 -11.233520516776457 16.266445126442015 #
straight-curve $-1 -67.683950315866568 -7.2637697082683772 8.8051591116019416 0 -1 0 I I #
point $-1 -67.683950315866568 -11.233520516776457 8.8051591116019381 #
point $-1 -62.459547591043574 -15.939261802148312 10.908076631318504 #
point $-1 -62.459547591043574 -13.1158170309252 10.908076631318504 #
straight-curve $-1 -67.683950315866568 4.0262295228551839 50.56292207391067 0 0 -1 I I #
point $-1 -67.683950315866568 4.0262295228551839 16.266445126442015 #
straight-curve $-1 -67.683950315866568 0.36610531154744308 8.8051591116019416 0 -1 0 I I #
point $-1 -67.683950315866568 4.0262295228551839 8.8051591116019381 #
point $-1 -62.459547591043574 -0.67951176251667533 10.908076631318504 #
point $-1 -62.459547591043574 2.1439330087064405 10.908076631318504 #
straight-curve $-1 -67.683950315866568 19.285979562486823 50.56292207391067 0 0 -1 I I #
point $-1 -67.683950315866568 19.285979562486823 16.266445126442015 #
straight-curve $-1 -67.683950315866568 7.9959803313632634 8.8051591116019416 0 -1 0 I I #
point $-1 -67.683950315866568 19.285979562486823 8.8051591116019381 #
point $-1 -62.459547591043574 14.580238277114965 10.908076631318504 #
point $-1 -62.459547591043574 17.403683048338081 10.908076631318504 #
edge $-1 $756 -16.266445126442015 $750 -8.8051591116019381 $747 $816 forward 7 unknown #
straight-curve $-1 -67.683950315866568 15.62585535117908 8.8051591116019416 0 -1 0 I I #
point $-1 -67.683950315866568 34.545729602118456 8.8051591116019381 #
straight-curve $-1 0 34.545729602118463 16.266445126442015 -1 0 0 I I #
point $-1 -67.683950315866568 34.545729602118463 16.266445126442015 #
point $-1 -62.459547591043574 29.839988316746606 10.908076631318504 #
point $-1 -62.459547591043574 32.663433087969729 10.908076631318504 #
straight-curve $-1 67.683950315866568 -12.801184646948192 101.48913134719697 0 0 -1 I I #
point $-1 67.683950315866568 -12.801184646948192 16.266445126442015 #
straight-curve $-1 67.683950315866568 -2.7301951246355536 12.267625578514718 0 1 0 I I #
point $-1 67.683950315866568 -12.801184646948192 12.267625578514725 #
point $-1 62.71319269408901 -8.6064449911327117 11.503835311761666 #
point $-1 62.71319269408901 -2.3143355074094956 11.503835311761666 #
straight-curve $-1 -67.683950315866568 34.545729602118463 0 0 0 -1 I I #
End-of-ACIS-data 