500 0 11 0           
7 Unknown 11 ACIS 5.0 NT 24 Fri Mar 26 15:30:19 1999 
-1 9.9999999999999995e-007 1e-010 
body $-1 $11 $-1 $12 #
body $-1 $13 $-1 $14 #
body $-1 $15 $-1 $16 #
body $-1 $17 $-1 $18 #
body $-1 $19 $-1 $20 #
body $-1 $21 $-1 $22 #
body $-1 $23 $-1 $24 #
body $-1 $25 $-1 $26 #
body $-1 $27 $-1 $28 #
body $-1 $29 $-1 $30 #
body $-1 $31 $-1 $32 #
lump $-1 $-1 $33 $0 #
transform $-1 1 0 0 0 1 0 0 0 1 61.116367076631974 24.993790768159545 11.031226602652771 1 rotate no_reflect no_shear #
lump $-1 $-1 $34 $1 #
transform $-1 1 0 0 0 1 0 0 0 1 61.116367076631974 24.993790768159545 11.031226602652771 1 rotate no_reflect no_shear #
lump $-1 $-1 $35 $2 #
transform $-1 1 0 0 0 1 0 0 0 1 61.116367076631974 24.993790768159545 11.031226602652771 1 rotate no_reflect no_shear #
lump $-1 $-1 $36 $3 #
transform $-1 1 0 0 0 1 0 0 0 1 61.116367076631974 24.993790768159545 11.031226602652771 1 rotate no_reflect no_shear #
lump $-1 $-1 $37 $4 #
transform $-1 1 0 0 0 1 0 0 0 1 61.116367076631974 24.993790768159545 11.031226602652771 1 rotate no_reflect no_shear #
lump $-1 $-1 $38 $5 #
transform $-1 1 0 0 0 1 0 0 0 1 61.116367076631974 24.993790768159545 11.031226602652771 1 rotate no_reflect no_shear #
lump $-1 $-1 $39 $6 #
transform $-1 1 0 0 0 1 0 0 0 1 61.116367076631974 24.993790768159545 11.031226602652771 1 rotate no_reflect no_shear #
lump $-1 $-1 $40 $7 #
transform $-1 1 0 0 0 1 0 0 0 1 61.116367076631974 24.993790768159545 11.031226602652771 1 rotate no_reflect no_shear #
lump $-1 $-1 $41 $8 #
transform $-1 1 0 0 0 1 0 0 0 1 61.116367076631974 24.993790768159545 11.031226602652771 1 rotate no_reflect no_shear #
lump $-1 $-1 $42 $9 #
transform $-1 1 0 0 0 1 0 0 0 1 61.116367076631974 24.993790768159545 11.031226602652771 1 rotate no_reflect no_shear #
lump $-1 $-1 $43 $10 #
transform $-1 1 0 0 0 1 0 0 0 1 61.116367076631974 24.993790768159545 11.031226602652771 1 rotate no_reflect no_shear #
shell $-1 $-1 $-1 $44 $-1 $11 #
shell $-1 $-1 $-1 $45 $-1 $13 #
shell $-1 $-1 $-1 $46 $-1 $15 #
shell $-1 $-1 $-1 $47 $-1 $17 #
shell $-1 $-1 $-1 $48 $-1 $19 #
shell $-1 $-1 $-1 $49 $-1 $21 #
shell $-1 $-1 $-1 $50 $-1 $23 #
shell $-1 $-1 $-1 $51 $-1 $25 #
shell $-1 $-1 $-1 $52 $-1 $27 #
shell $-1 $-1 $-1 $53 $-1 $29 #
shell $-1 $-1 $-1 $54 $-1 $31 #
face $-1 $55 $56 $33 $-1 $57 forward single #
face $-1 $58 $59 $34 $-1 $60 forward single #
face $-1 $61 $62 $35 $-1 $63 reversed single #
face $-1 $64 $65 $36 $-1 $66 forward single #
face $-1 $67 $68 $37 $-1 $69 forward single #
face $-1 $70 $71 $38 $-1 $72 reversed single #
face $-1 $73 $74 $39 $-1 $75 forward single #
face $-1 $76 $77 $40 $-1 $78 forward single #
face $-1 $79 $80 $41 $-1 $81 reversed single #
face $-1 $82 $83 $42 $-1 $84 forward single #
face $-1 $85 $86 $43 $-1 $87 forward single #
face $-1 $88 $89 $33 $-1 $90 reversed single #
loop $-1 $-1 $91 $44 #
plane-surface $-1 0 0 11.031226602652771 0 0 1 1 0 0 forward_v I I I I #
face $-1 $92 $93 $34 $-1 $94 reversed single #
loop $-1 $-1 $95 $45 #
plane-surface $-1 0 -24.993790768159545 0 0 1 0 0 0 1 forward_v I I I I #
face $-1 $96 $97 $35 $-1 $98 reversed single #
loop $-1 $-1 $99 $46 #
plane-surface $-1 70.163329582141813 1.3178000003458372 174.92558039128582 0 -1 0 -0.74314483375859142 0 -0.66913059716165679 forward_v I I I I #
face $-1 $100 $101 $36 $-1 $102 forward single #
loop $-1 $103 $104 $47 #
cone-surface $-1 56.75571407039444 -3.5170105055238032 6.278519230016725 -0.74314483375859142 0 -0.66913059716165679 0.3345652985808284 0 -0.37157241687929571 1 I I 0 1 0.5 forward I I I I #
face $-1 $105 $106 $37 $-1 $107 forward single #
loop $-1 $108 $109 $48 #
cone-surface $-1 56.75571407039444 -0.61612420200201967 6.278519230016725 -0.74314483375859142 0 -0.66913059716165679 0.3345652985808284 0 -0.37157241687929571 1 I I 0 1 0.5 forward I I I I #
face $-1 $110 $111 $38 $-1 $112 reversed single #
loop $-1 $-1 $113 $49 #
plane-surface $-1 70.163329582141813 14.504647212820931 174.92558039128582 0 -1 0 -0.74314483375859142 0 -0.66913059716165679 forward_v I I I I #
face $-1 $114 $115 $39 $-1 $116 forward single #
loop $-1 $117 $118 $50 #
cone-surface $-1 56.75571407039444 9.6698367069512905 6.278519230016725 -0.74314483375859142 0 -0.66913059716165679 0.3345652985808284 0 -0.37157241687929571 1 I I 0 1 0.5 forward I I I I #
face $-1 $119 $120 $40 $-1 $121 forward single #
loop $-1 $122 $123 $51 #
cone-surface $-1 56.75571407039444 12.570723010473071 6.278519230016725 -0.74314483375859142 0 -0.66913059716165679 0.3345652985808284 0 -0.37157241687929571 1 I I 0 1 0.5 forward I I I I #
face $-1 $124 $125 $41 $-1 $126 reversed single #
loop $-1 $-1 $127 $52 #
plane-surface $-1 -136.37035346224184 -13.105873675940543 101.75018701400643 0 1 0 -0.61566148304635926 0 0.78801074757464917 forward_v I I I I #
face $-1 $128 $129 $42 $-1 $130 forward single #
loop $-1 $131 $132 $53 #
cone-surface $-1 -57.22358129198922 -11.230921162554587 7.8363473254388412 0.61566148304635926 0 -0.78801074757464917 0.39400537378732459 0 0.30783074152317963 1 I I 0 1 0.5 forward I I I I #
face $-1 $133 $134 $43 $-1 $135 forward single #
loop $-1 $136 $137 $54 #
cone-surface $-1 -57.22358129198922 -8.4184923924756525 7.8363473254388412 0.61566148304635926 0 -0.78801074757464917 0.39400537378732459 0 0.30783074152317963 1 I I 0 1 0.5 forward I I I I #
face $-1 $138 $139 $33 $-1 $140 reversed single #
loop $-1 $-1 $141 $55 #
plane-surface $-1 0 0 -11.031226602652771 0 0 1 1 0 0 forward_v I I I I #
coedge $-1 $142 $143 $144 $145 forward $56 $-1 #
face $-1 $146 $147 $34 $-1 $148 reversed single #
loop $-1 $-1 $149 $58 #
plane-surface $-1 0 0 -11.031226602652771 0 0 1 1 0 0 forward_v I I I I #
coedge $-1 $150 $151 $152 $153 forward $59 $-1 #
face $-1 $154 $155 $35 $-1 $156 reversed single #
loop $-1 $-1 $157 $61 #
plane-surface $-1 -20.673295320043607 -2.0665673537629097 93.135917994610281 0.74314483375859142 0 0.66913059716165679 0.66913059716165679 0 -0.74314483375859142 forward_v I I I I #
coedge $-1 $158 $159 $160 $161 reversed $62 $-1 #
face $-1 $-1 $162 $36 $-1 $163 forward single #
loop $-1 $164 $165 $64 #
cone-surface $-1 56.140408881451933 -3.5170105055238032 5.7244959632042285 -0.74314483375859142 0 -0.66913059716165679 0.1672826492904142 0 -0.18578620843964785 1 I I -0.70710678118654746 0.70710678118654746 0.25 forward I I I I #
loop $-1 $-1 $166 $47 #
coedge $-1 $104 $104 $167 $168 reversed $65 $-1 #
face $-1 $-1 $169 $37 $-1 $170 forward single #
loop $-1 $171 $172 $67 #
cone-surface $-1 56.140408881451933 -0.61612420200201967 5.7244959632042285 -0.74314483375859142 0 -0.66913059716165679 0.1672826492904142 0 -0.18578620843964785 1 I I -0.70710678118654746 0.70710678118654746 0.25 forward I I I I #
loop $-1 $-1 $173 $48 #
coedge $-1 $109 $109 $174 $175 reversed $68 $-1 #
face $-1 $176 $177 $38 $-1 $178 reversed single #
loop $-1 $-1 $179 $70 #
plane-surface $-1 -20.673295320043607 11.120279858712184 93.135917994610281 0.74314483375859142 0 0.66913059716165679 0.66913059716165679 0 -0.74314483375859142 forward_v I I I I #
coedge $-1 $180 $181 $182 $183 reversed $71 $-1 #
face $-1 $-1 $184 $39 $-1 $185 forward single #
loop $-1 $186 $187 $73 #
cone-surface $-1 56.140408881451933 9.6698367069512905 5.7244959632042285 -0.74314483375859142 0 -0.66913059716165679 0.1672826492904142 0 -0.18578620843964785 1 I I -0.70710678118654746 0.70710678118654746 0.25 forward I I I I #
loop $-1 $-1 $188 $50 #
coedge $-1 $118 $118 $189 $190 reversed $74 $-1 #
face $-1 $-1 $191 $40 $-1 $192 forward single #
loop $-1 $193 $194 $76 #
cone-surface $-1 56.140408881451933 12.570723010473071 5.7244959632042285 -0.74314483375859142 0 -0.66913059716165679 0.1672826492904142 0 -0.18578620843964785 1 I I -0.70710678118654746 0.70710678118654746 0.25 forward I I I I #
loop $-1 $-1 $195 $51 #
coedge $-1 $123 $123 $196 $197 reversed $77 $-1 #
face $-1 $198 $199 $41 $-1 $200 reversed single #
loop $-1 $-1 $201 $79 #
plane-surface $-1 -61.116367076631988 -9.8247067775151198 5.4294787957995538 -0.61566148304635926 0 0.78801074757464917 0.78801074757464917 0 0.61566148304635926 forward_v I I I I #
coedge $-1 $202 $203 $204 $205 reversed $80 $-1 #
face $-1 $-1 $206 $42 $-1 $207 forward single #
loop $-1 $208 $209 $82 #
cone-surface $-1 -56.761835179704448 -11.230921162554587 7.2453392647578543 0.61566148304635926 0 -0.78801074757464917 0.19700268689366229 0 0.15391537076158981 1 I I -0.70710678118654746 0.70710678118654746 0.25 forward I I I I #
loop $-1 $-1 $210 $53 #
coedge $-1 $132 $132 $211 $212 reversed $83 $-1 #
face $-1 $-1 $213 $43 $-1 $214 forward single #
loop $-1 $215 $216 $85 #
cone-surface $-1 -56.761835179704448 -8.4184923924756525 7.2453392647578543 0.61566148304635926 0 -0.78801074757464917 0.19700268689366229 0 0.15391537076158981 1 I I -0.70710678118654746 0.70710678118654746 0.25 forward I I I I #
loop $-1 $-1 $217 $54 #
coedge $-1 $137 $137 $218 $219 reversed $86 $-1 #
face $-1 $220 $221 $33 $-1 $222 reversed single #
loop $-1 $-1 $223 $88 #
plane-surface $-1 0 -24.993790768159545 0 0 1 0 0 0 1 forward_v I I I I #
coedge $-1 $224 $225 $226 $227 forward $89 $-1 #
coedge $-1 $228 $91 $229 $230 forward $56 $-1 #
coedge $-1 $91 $228 $231 $232 forward $56 $-1 #
coedge $-1 $233 $234 $91 $145 reversed $235 $-1 #
edge $-1 $236 -24.993790768159545 $237 24.993790768159545 $144 $238 forward 7 unknown #
face $-1 $239 $240 $34 $-1 $241 forward single #
loop $-1 $-1 $242 $92 #
plane-surface $-1 61.116367076631974 0 0 -1 0 0 0 0 1 forward_v I I I I #
coedge $-1 $243 $244 $245 $246 forward $93 $-1 #
coedge $-1 $245 $95 $242 $247 reversed $59 $-1 #
coedge $-1 $95 $245 $248 $249 reversed $59 $-1 #
coedge $-1 $250 $251 $95 $153 reversed $240 $-1 #
edge $-1 $252 -61.116367076631974 $253 61.116367076631974 $152 $254 forward 7 unknown #
face $-1 $255 $256 $35 $-1 $257 reversed single #
loop $-1 $-1 $258 $96 #
plane-surface $-1 70.163329582141813 -5.4509347078716566 174.92558039128582 0 1 0 0.74314483375859142 0 0.66913059716165679 forward_v I I I I #
coedge $-1 $259 $260 $261 $262 reversed $97 $-1 #
coedge $-1 $159 $99 $263 $264 reversed $62 $-1 #
coedge $-1 $99 $158 $259 $265 reversed $62 $-1 #
coedge $-1 $261 $266 $99 $161 forward $267 $-1 #
edge $-1 $268 -26.034702285561067 $269 -18.172434234091668 $160 $270 forward 7 unknown #
loop $-1 $-1 $167 $100 #
plane-surface $-1 -20.673295320043607 -2.0665673537629097 93.135917994610281 0.74314483375859142 0 0.66913059716165679 0.66913059716165679 0 -0.74314483375859142 forward_v I I I I #
loop $-1 $-1 $271 $64 #
coedge $-1 $165 $165 $166 $272 reversed $101 $-1 #
coedge $-1 $166 $166 $165 $272 forward $103 $-1 #
coedge $-1 $167 $167 $104 $168 forward $162 $-1 #
edge $-1 $273 0 $273 6.2831853071796004 $167 $274 forward 7 unknown #
loop $-1 $-1 $174 $105 #
plane-surface $-1 -20.673295320043607 -2.0665673537629097 93.135917994610281 0.74314483375859142 0 0.66913059716165679 0.66913059716165679 0 -0.74314483375859142 forward_v I I I I #
loop $-1 $-1 $275 $67 #
coedge $-1 $172 $172 $173 $276 reversed $106 $-1 #
coedge $-1 $173 $173 $172 $276 forward $108 $-1 #
coedge $-1 $174 $174 $109 $175 forward $169 $-1 #
edge $-1 $277 0 $277 6.2831853071796004 $174 $278 forward 7 unknown #
face $-1 $279 $280 $38 $-1 $281 reversed single #
loop $-1 $-1 $282 $110 #
plane-surface $-1 70.163329582141813 7.7359125046034372 174.92558039128582 0 1 0 0.74314483375859142 0 0.66913059716165679 forward_v I I I I #
coedge $-1 $283 $284 $285 $286 reversed $111 $-1 #
coedge $-1 $181 $113 $287 $288 reversed $71 $-1 #
coedge $-1 $113 $180 $283 $289 reversed $71 $-1 #
coedge $-1 $285 $290 $113 $183 forward $291 $-1 #
edge $-1 $292 -26.034702285561067 $293 -18.172434234091668 $182 $294 forward 7 unknown #
loop $-1 $-1 $189 $114 #
plane-surface $-1 -20.673295320043607 11.120279858712184 93.135917994610281 0.74314483375859142 0 0.66913059716165679 0.66913059716165679 0 -0.74314483375859142 forward_v I I I I #
loop $-1 $-1 $295 $73 #
coedge $-1 $187 $187 $188 $296 reversed $115 $-1 #
coedge $-1 $188 $188 $187 $296 forward $117 $-1 #
coedge $-1 $189 $189 $118 $190 forward $184 $-1 #
edge $-1 $297 0 $297 6.2831853071796004 $189 $298 forward 7 unknown #
loop $-1 $-1 $196 $119 #
plane-surface $-1 -20.673295320043607 11.120279858712184 93.135917994610281 0.74314483375859142 0 0.66913059716165679 0.66913059716165679 0 -0.74314483375859142 forward_v I I I I #
loop $-1 $-1 $299 $76 #
coedge $-1 $194 $194 $195 $300 reversed $120 $-1 #
coedge $-1 $195 $195 $194 $300 forward $122 $-1 #
coedge $-1 $196 $196 $123 $197 forward $191 $-1 #
edge $-1 $301 0 $301 6.2831853071796004 $196 $302 forward 7 unknown #
face $-1 $303 $304 $41 $-1 $305 forward single #
loop $-1 $-1 $306 $124 #
plane-surface $-1 -136.37035346224184 -6.5435398790896961 101.75018701400643 0 -1 0 0.61566148304635926 0 -0.78801074757464917 forward_v I I I I #
coedge $-1 $307 $308 $309 $310 reversed $125 $-1 #
coedge $-1 $203 $127 $311 $312 reversed $80 $-1 #
coedge $-1 $127 $202 $307 $313 reversed $80 $-1 #
coedge $-1 $309 $314 $127 $205 forward $304 $-1 #
edge $-1 $315 7.0688096544889447 $316 14.238719740728101 $204 $317 forward 7 unknown #
loop $-1 $-1 $211 $128 #
plane-surface $-1 -61.116367076631988 -9.8247067775151198 5.4294787957995538 -0.61566148304635926 0 0.78801074757464917 0.78801074757464917 0 0.61566148304635926 forward_v I I I I #
loop $-1 $-1 $318 $82 #
coedge $-1 $209 $209 $210 $319 reversed $129 $-1 #
coedge $-1 $210 $210 $209 $319 forward $131 $-1 #
coedge $-1 $211 $211 $132 $212 forward $206 $-1 #
edge $-1 $320 0 $320 6.2831853071796004 $211 $321 forward 7 unknown #
loop $-1 $-1 $218 $133 #
plane-surface $-1 -61.116367076631988 -9.8247067775151198 5.4294787957995538 -0.61566148304635926 0 0.78801074757464917 0.78801074757464917 0 0.61566148304635926 forward_v I I I I #
loop $-1 $-1 $322 $85 #
coedge $-1 $216 $216 $217 $323 reversed $134 $-1 #
coedge $-1 $217 $217 $216 $323 forward $136 $-1 #
coedge $-1 $218 $218 $137 $219 forward $213 $-1 #
edge $-1 $324 0 $324 6.2831853071796004 $218 $325 forward 7 unknown #
face $-1 $326 $327 $33 $-1 $328 reversed single #
loop $-1 $-1 $329 $138 #
plane-surface $-1 -61.116367076631974 0 0 1 0 0 0 0 -1 forward_v I I I I #
coedge $-1 $330 $231 $331 $332 forward $139 $-1 #
coedge $-1 $333 $141 $330 $334 forward $89 $-1 #
coedge $-1 $141 $333 $335 $336 forward $89 $-1 #
coedge $-1 $234 $233 $141 $227 reversed $235 $-1 #
edge $-1 $337 -24.993790768159545 $338 24.993790768159545 $226 $339 forward 7 unknown #
coedge $-1 $143 $142 $340 $341 forward $56 $-1 #
coedge $-1 $342 $343 $142 $230 reversed $327 $-1 #
edge $-1 $237 -61.116367076631974 $344 61.116367076631974 $229 $345 forward 7 unknown #
coedge $-1 $223 $346 $143 $232 reversed $139 $-1 #
edge $-1 $347 -61.116367076631974 $236 61.116367076631974 $231 $348 forward 7 unknown #
coedge $-1 $226 $144 $346 $349 forward $235 $-1 #
coedge $-1 $144 $226 $342 $350 reversed $235 $-1 #
loop $-1 $-1 $233 $326 #
vertex $-1 $145 $351 #
vertex $-1 $145 $352 #
straight-curve $-1 61.116367076631974 0 11.031226602652771 0 1 0 I I #
face $-1 $353 $354 $34 $-1 $355 reversed single #
loop $-1 $-1 $251 $146 #
plane-surface $-1 0 -29.520647020634186 -7.5335665890537005 0 0 1 1 0 0 forward_v I I I I #
coedge $-1 $356 $357 $150 $247 forward $147 $-1 #
coedge $-1 $358 $149 $357 $359 forward $93 $-1 #
coedge $-1 $149 $358 $360 $361 forward $93 $-1 #
coedge $-1 $151 $150 $149 $246 reversed $59 $-1 #
edge $-1 $362 -61.116367076631974 $363 61.116367076631974 $149 $364 forward 7 unknown #
edge $-1 $363 -11.031226602652771 $253 -7.5335665890537005 $242 $365 forward 7 unknown #
coedge $-1 $360 $366 $151 $249 forward $367 $-1 #
edge $-1 $252 7.5335665890537005 $362 11.031226602652771 $248 $368 forward 7 unknown #
coedge $-1 $369 $152 $366 $370 forward $240 $-1 #
coedge $-1 $152 $369 $356 $371 forward $240 $-1 #
vertex $-1 $249 $372 #
vertex $-1 $371 $373 #
straight-curve $-1 0 -24.993790768159545 -7.5335665890537005 1 0 0 I I #
face $-1 $-1 $267 $35 $-1 $374 forward single #
loop $-1 $-1 $375 $154 #
plane-surface $-1 61.116367076631974 0 0 -1 0 0 0 0 1 forward_v I I I I #
coedge $-1 $376 $377 $378 $379 reversed $155 $-1 #
coedge $-1 $380 $157 $159 $265 forward $97 $-1 #
coedge $-1 $157 $380 $376 $381 forward $97 $-1 #
coedge $-1 $378 $160 $157 $262 forward $267 $-1 #
edge $-1 $269 -2.3510836772272921 $382 4.4176510309902017 $261 $383 forward 7 unknown #
coedge $-1 $384 $385 $158 $264 forward $256 $-1 #
edge $-1 $386 -85.163497103218106 $268 -76.431563592990145 $263 $387 forward 7 unknown #
edge $-1 $269 110.48275876008982 $386 122.23273415326398 $159 $388 forward 7 unknown #
coedge $-1 $160 $378 $384 $389 forward $267 $-1 #
loop $-1 $-1 $378 $255 #
vertex $-1 $264 $390 #
vertex $-1 $161 $391 #
straight-curve $-1 35.081664791070907 1.3178000003458372 11.031226602652765 -1 0 0 I I #
coedge $-1 $271 $271 $-1 $392 reversed $164 $-1 #
edge $-1 $393 0 $393 6.2831853071796004 $165 $394 forward 7 unknown #
vertex $-1 $168 $395 #
ellipse-curve $-1 57.185233050897274 -3.5170105055238032 6.6652598475387856 0.74314483375859142 0 0.66913059716165679 0.3345652985808284 0 -0.37157241687929571 1 I I #
coedge $-1 $275 $275 $-1 $396 reversed $171 $-1 #
edge $-1 $397 0 $397 6.2831853071796004 $172 $398 forward 7 unknown #
vertex $-1 $175 $399 #
ellipse-curve $-1 57.185233050897274 -0.61612420200201967 6.6652598475387856 0.74314483375859142 0 0.66913059716165679 0.3345652985808284 0 -0.37157241687929571 1 I I #
face $-1 $-1 $291 $38 $-1 $400 forward single #
loop $-1 $-1 $401 $176 #
plane-surface $-1 61.116367076631974 0 0 -1 0 0 0 0 1 forward_v I I I I #
coedge $-1 $402 $403 $404 $405 reversed $177 $-1 #
coedge $-1 $406 $179 $181 $289 forward $111 $-1 #
coedge $-1 $179 $406 $402 $407 forward $111 $-1 #
coedge $-1 $404 $182 $179 $286 forward $291 $-1 #
edge $-1 $293 -8.9445072834648389 $408 -2.1757725752473451 $285 $409 forward 7 unknown #
coedge $-1 $410 $411 $180 $288 forward $280 $-1 #
edge $-1 $412 -85.163497103218106 $292 -76.431563592990145 $287 $413 forward 7 unknown #
edge $-1 $293 110.48275876008982 $412 122.23273415326398 $181 $414 forward 7 unknown #
coedge $-1 $182 $404 $410 $415 forward $291 $-1 #
loop $-1 $-1 $404 $279 #
vertex $-1 $288 $416 #
vertex $-1 $183 $417 #
straight-curve $-1 35.081664791070907 14.504647212820931 11.031226602652765 -1 0 0 I I #
coedge $-1 $295 $295 $-1 $418 reversed $186 $-1 #
edge $-1 $419 0 $419 6.2831853071796004 $187 $420 forward 7 unknown #
vertex $-1 $190 $421 #
ellipse-curve $-1 57.185233050897274 9.6698367069512905 6.6652598475387856 0.74314483375859142 0 0.66913059716165679 0.3345652985808284 0 -0.37157241687929571 1 I I #
coedge $-1 $299 $299 $-1 $422 reversed $193 $-1 #
edge $-1 $423 0 $423 6.2831853071796004 $194 $424 forward 7 unknown #
vertex $-1 $197 $425 #
ellipse-curve $-1 57.185233050897274 12.570723010473071 6.6652598475387856 0.74314483375859142 0 0.66913059716165679 0.3345652985808284 0 -0.37157241687929571 1 I I #
face $-1 $-1 $426 $41 $-1 $427 reversed single #
loop $-1 $-1 $204 $198 #
plane-surface $-1 0 0 11.031226602652771 0 0 1 1 0 0 forward_v I I I I #
coedge $-1 $428 $429 $430 $431 reversed $199 $-1 #
coedge $-1 $432 $201 $203 $313 forward $125 $-1 #
coedge $-1 $201 $432 $428 $433 forward $125 $-1 #
coedge $-1 $430 $204 $201 $310 forward $304 $-1 #
edge $-1 $316 -8.1935202871829844 $434 -1.6311864903321363 $309 $435 forward 7 unknown #
coedge $-1 $436 $437 $202 $312 forward $426 $-1 #
edge $-1 $438 -45.445614711203646 $315 -39.843866904350442 $311 $439 forward 7 unknown #
edge $-1 $316 -9.0987465695192871 $438 -1.830693040787162e-014 $203 $440 forward 7 unknown #
coedge $-1 $204 $430 $436 $441 forward $304 $-1 #
vertex $-1 $312 $442 #
vertex $-1 $205 $443 #
straight-curve $-1 -68.185176731120919 -13.105873675940543 11.031226602652772 1 0 0 I I #
coedge $-1 $318 $318 $-1 $444 reversed $208 $-1 #
edge $-1 $445 0 $445 6.2831853071796004 $209 $446 forward 7 unknown #
vertex $-1 $212 $447 #
ellipse-curve $-1 -57.531412033512403 -11.230921162554587 8.2303526992261666 -0.61566148304635926 0 0.78801074757464917 0.39400537378732459 0 0.30783074152317963 1 I I #
coedge $-1 $322 $322 $-1 $448 reversed $215 $-1 #
edge $-1 $449 0 $449 6.2831853071796004 $216 $450 forward 7 unknown #
vertex $-1 $219 $451 #
ellipse-curve $-1 -57.531412033512403 -8.4184923924756525 8.2303526992261666 -0.61566148304635926 0 0.78801074757464917 0.39400537378732459 0 0.30783074152317963 1 I I #
face $-1 $-1 $235 $33 $-1 $452 reversed single #
loop $-1 $-1 $342 $220 #
plane-surface $-1 0 24.993790768159545 0 0 -1 0 0 0 -1 forward_v I I I I #
coedge $-1 $453 $340 $343 $454 forward $221 $-1 #
coedge $-1 $346 $223 $224 $334 reversed $139 $-1 #
coedge $-1 $340 $453 $223 $332 reversed $221 $-1 #
edge $-1 $347 -11.031226602652771 $455 11.031226602652771 $331 $456 forward 7 unknown #
coedge $-1 $225 $224 $453 $457 forward $89 $-1 #
edge $-1 $338 -61.116367076631974 $455 61.116367076631974 $330 $458 forward 7 unknown #
coedge $-1 $343 $342 $225 $336 reversed $327 $-1 #
edge $-1 $459 -61.116367076631974 $337 61.116367076631974 $335 $460 forward 7 unknown #
vertex $-1 $227 $461 #
vertex $-1 $349 $462 #
straight-curve $-1 61.116367076631974 0 -11.031226602652771 0 -1 0 I I #
coedge $-1 $329 $331 $228 $341 reversed $221 $-1 #
edge $-1 $344 -24.993790768159545 $347 24.993790768159545 $340 $463 forward 7 unknown #
coedge $-1 $335 $229 $234 $350 forward $327 $-1 #
coedge $-1 $229 $335 $329 $454 reversed $327 $-1 #
vertex $-1 $230 $464 #
straight-curve $-1 0 24.993790768159545 11.031226602652771 -1 0 0 I I #
coedge $-1 $231 $330 $233 $349 reversed $139 $-1 #
vertex $-1 $341 $465 #
straight-curve $-1 0 -24.993790768159545 11.031226602652771 1 0 0 I I #
edge $-1 $236 -11.031226602652771 $338 11.031226602652771 $233 $466 forward 7 unknown #
edge $-1 $237 -11.031226602652771 $337 11.031226602652771 $234 $467 forward 7 unknown #
point $-1 61.116367076631974 -24.993790768159545 11.031226602652771 #
point $-1 61.116367076631974 24.993790768159545 11.031226602652771 #
face $-1 $-1 $367 $34 $-1 $468 reversed single #
loop $-1 $-1 $469 $239 #
plane-surface $-1 0 -34.047503273108823 -9.2823965958532355 0 1 0 0 0 1 forward_v I I I I #
coedge $-1 $470 $242 $251 $371 reversed $147 $-1 #
coedge $-1 $242 $470 $243 $359 reversed $147 $-1 #
coedge $-1 $244 $243 $471 $472 forward $93 $-1 #
edge $-1 $363 24.993790768159545 $473 34.047503273108823 $357 $474 forward 7 unknown #
coedge $-1 $475 $248 $244 $361 reversed $367 $-1 #
edge $-1 $476 -34.047503273108823 $362 -24.993790768159545 $360 $477 forward 7 unknown #
vertex $-1 $249 $478 #
vertex $-1 $359 $479 #
straight-curve $-1 0 -24.993790768159545 -11.031226602652771 1 0 0 I I #
straight-curve $-1 61.116367076631974 -24.993790768159545 0 0 0 1 I I #
coedge $-1 $248 $475 $250 $370 reversed $367 $-1 #
loop $-1 $-1 $248 $353 #
straight-curve $-1 -61.116367076631974 -24.993790768159545 0 0 0 -1 I I #
coedge $-1 $251 $250 $480 $481 forward $240 $-1 #
edge $-1 $252 -4.5268562524746372 $482 4.5268562524746372 $366 $483 forward 7 unknown #
edge $-1 $484 -4.5268562524746372 $253 4.5268562524746372 $356 $485 forward 7 unknown #
point $-1 -61.116367076631974 -24.993790768159549 -7.5335665890537005 #
point $-1 61.116367076631974 -24.993790768159549 -7.5335665890537005 #
plane-surface $-1 0 0 11.031226602652771 0 0 1 1 0 0 forward_v I I I I #
coedge $-1 $385 $384 $377 $486 forward $256 $-1 #
coedge $-1 $377 $258 $260 $381 reversed $155 $-1 #
coedge $-1 $258 $376 $375 $486 reversed $155 $-1 #
coedge $-1 $266 $261 $258 $379 forward $267 $-1 #
edge $-1 $382 18.172434234091668 $487 26.034702285561067 $378 $488 forward 7 unknown #
coedge $-1 $260 $259 $385 $489 reversed $97 $-1 #
edge $-1 $490 -122.23273415326398 $382 -110.48275876008982 $376 $491 forward 7 unknown #
vertex $-1 $262 $492 #
straight-curve $-1 53.254099025162567 -1.0332836768814548 11.031226602652772 0 -1 0 I I #
coedge $-1 $375 $263 $266 $389 reversed $256 $-1 #
coedge $-1 $263 $375 $380 $489 forward $256 $-1 #
vertex $-1 $264 $493 #
straight-curve $-1 61.116367076631974 1.3178000003458372 87.46279019564291 0 0 1 I I #
straight-curve $-1 -20.673295320043607 1.3178000003458372 93.135917994610281 0.66913059716165679 0 -0.74314483375859142 I I #
edge $-1 $487 -5.4509347078716566 $268 1.3178000003458372 $384 $494 forward 7 unknown #
point $-1 61.116367076631974 1.3178000003458372 11.031226602652771 #
point $-1 53.254099025162574 1.3178000003458372 11.031226602652765 #
edge $-1 $495 1 $495 0 $271 $-1 forward 7 unknown #
vertex $-1 $272 $496 #
ellipse-curve $-1 56.326195089891577 -3.5170105055238032 5.891778612494643 0.74314483375859142 0 0.66913059716165679 0.3345652985808284 0 -0.37157241687929571 1 I I #
point $-1 57.519798349478123 -3.5170105055238032 6.293687430659511 #
edge $-1 $497 1 $497 0 $275 $-1 forward 7 unknown #
vertex $-1 $276 $498 #
ellipse-curve $-1 56.326195089891577 -0.61612420200201967 5.891778612494643 0.74314483375859142 0 0.66913059716165679 0.3345652985808284 0 -0.37157241687929571 1 I I #
point $-1 57.519798349478123 -0.61612420200201967 6.293687430659511 #
plane-surface $-1 0 0 11.031226602652771 0 0 1 1 0 0 forward_v I I I I #
coedge $-1 $411 $410 $403 $499 forward $280 $-1 #
coedge $-1 $403 $282 $284 $407 reversed $177 $-1 #
coedge $-1 $282 $402 $401 $499 reversed $177 $-1 #
coedge $-1 $290 $285 $282 $405 forward $291 $-1 #
edge $-1 $408 18.172434234091668 $500 26.034702285561067 $404 $501 forward 7 unknown #
coedge $-1 $284 $283 $411 $502 reversed $111 $-1 #
edge $-1 $503 -122.23273415326398 $408 -110.48275876008982 $402 $504 forward 7 unknown #
vertex $-1 $286 $505 #
straight-curve $-1 53.254099025162567 5.560139929356092 11.031226602652772 0 -1 0 I I #
coedge $-1 $401 $287 $290 $415 reversed $280 $-1 #
coedge $-1 $287 $401 $406 $502 forward $280 $-1 #
vertex $-1 $288 $506 #
straight-curve $-1 61.116367076631974 14.504647212820931 87.46279019564291 0 0 1 I I #
straight-curve $-1 -20.673295320043607 14.504647212820931 93.135917994610281 0.66913059716165679 0 -0.74314483375859142 I I #
edge $-1 $500 7.7359125046034372 $292 14.504647212820931 $410 $507 forward 7 unknown #
point $-1 61.116367076631974 14.504647212820931 11.031226602652771 #
point $-1 53.254099025162574 14.504647212820931 11.031226602652765 #
edge $-1 $508 1 $508 0 $295 $-1 forward 7 unknown #
vertex $-1 $296 $509 #
ellipse-curve $-1 56.326195089891577 9.6698367069512905 5.891778612494643 0.74314483375859142 0 0.66913059716165679 0.3345652985808284 0 -0.37157241687929571 1 I I #
point $-1 57.519798349478123 9.6698367069512905 6.293687430659511 #
edge $-1 $510 1 $510 0 $299 $-1 forward 7 unknown #
vertex $-1 $300 $511 #
ellipse-curve $-1 56.326195089891577 12.570723010473071 5.891778612494643 0.74314483375859142 0 0.66913059716165679 0.3345652985808284 0 -0.37157241687929571 1 I I #
point $-1 57.519798349478123 12.570723010473071 6.293687430659511 #
loop $-1 $-1 $311 $303 #
plane-surface $-1 -61.116367076631974 0 0 1 0 0 0 0 -1 forward_v I I I I #
coedge $-1 $429 $306 $308 $433 reversed $199 $-1 #
coedge $-1 $306 $428 $512 $513 reversed $199 $-1 #
coedge $-1 $314 $309 $306 $431 forward $304 $-1 #
edge $-1 $434 -14.238719740728101 $514 -7.0688096544889447 $430 $515 forward 7 unknown #
coedge $-1 $308 $307 $437 $516 reversed $125 $-1 #
edge $-1 $517 1.830693040787162e-014 $434 9.0987465695192871 $428 $518 forward 7 unknown #
vertex $-1 $310 $519 #
straight-curve $-1 -53.946456990392818 -4.9123533887575599 11.031226602652771 0 1 0 I I #
coedge $-1 $512 $311 $314 $441 reversed $426 $-1 #
coedge $-1 $311 $512 $432 $516 forward $426 $-1 #
vertex $-1 $312 $520 #
straight-curve $-1 -61.116367076631974 -13.105873675940543 50.875093507003214 0 0 1 I I #
straight-curve $-1 -61.116367076631988 -13.105873675940543 5.4294787957995538 -0.78801074757464917 0 -0.61566148304635926 I I #
edge $-1 $514 6.5435398790896961 $315 13.105873675940543 $436 $521 forward 7 unknown #
point $-1 -61.116367076631974 -13.105873675940543 11.031226602652771 #
point $-1 -53.946456990392818 -13.105873675940543 11.031226602652771 #
edge $-1 $522 1 $522 0 $318 $-1 forward 7 unknown #
vertex $-1 $319 $523 #
ellipse-curve $-1 -56.915750550466036 -11.230921162554587 7.4423419516515166 -0.61566148304635926 0 0.78801074757464917 0.39400537378732459 0 0.30783074152317963 1 I I #
point $-1 -57.137406659725073 -11.230921162554587 8.5381834407493447 #
edge $-1 $524 1 $524 0 $322 $-1 forward 7 unknown #
vertex $-1 $323 $525 #
ellipse-curve $-1 -56.915750550466036 -8.4184923924756525 7.4423419516515166 -0.61566148304635926 0 0.78801074757464917 0.39400537378732459 0 0.30783074152317963 1 I I #
point $-1 -57.137406659725073 -8.4184923924756525 8.5381834407493447 #
plane-surface $-1 61.116367076631974 0 0 -1 0 0 0 0 1 forward_v I I I I #
coedge $-1 $331 $329 $333 $457 reversed $221 $-1 #
edge $-1 $344 -11.031226602652771 $459 11.031226602652771 $343 $526 forward 7 unknown #
vertex $-1 $457 $527 #
straight-curve $-1 -61.116367076631974 -24.993790768159545 0 0 0 -1 I I #
edge $-1 $455 -24.993790768159545 $459 24.993790768159545 $453 $528 forward 7 unknown #
straight-curve $-1 0 -24.993790768159545 -11.031226602652771 -1 0 0 I I #
vertex $-1 $336 $529 #
straight-curve $-1 0 24.993790768159545 -11.031226602652771 1 0 0 I I #
point $-1 61.116367076631974 24.993790768159545 -11.031226602652771 #
point $-1 61.116367076631974 -24.993790768159545 -11.031226602652771 #
straight-curve $-1 -61.116367076631974 0 11.031226602652771 0 -1 0 I I #
point $-1 -61.116367076631974 24.993790768159545 11.031226602652771 #
point $-1 -61.116367076631974 -24.993790768159545 11.031226602652771 #
straight-curve $-1 61.116367076631974 -24.993790768159545 0 0 0 -1 I I #
straight-curve $-1 61.116367076631974 24.993790768159545 0 0 0 -1 I I #
plane-surface $-1 -61.116367076631974 0 0 1 0 0 0 0 -1 forward_v I I I I #
coedge $-1 $471 $480 $475 $530 forward $354 $-1 #
coedge $-1 $357 $356 $531 $532 forward $147 $-1 #
coedge $-1 $531 $469 $358 $472 reversed $354 $-1 #
edge $-1 $473 -61.116367076631974 $476 61.116367076631974 $471 $533 forward 7 unknown #
vertex $-1 $532 $534 #
straight-curve $-1 61.116367076631974 0 -11.031226602652771 0 -1 0 I I #
coedge $-1 $366 $360 $469 $530 reversed $367 $-1 #
vertex $-1 $361 $535 #
straight-curve $-1 -61.116367076631974 0 -11.031226602652771 0 1 0 I I #
point $-1 -61.116367076631974 -24.993790768159545 -11.031226602652771 #
point $-1 61.116367076631974 -24.993790768159545 -11.031226602652771 #
coedge $-1 $469 $531 $369 $481 reversed $354 $-1 #
edge $-1 $482 -61.116367076631974 $484 61.116367076631974 $480 $536 forward 7 unknown #
vertex $-1 $370 $537 #
straight-curve $-1 -61.116367076631974 -29.520647020634186 -7.5335665890537005 0 -1 0 I I #
vertex $-1 $371 $538 #
straight-curve $-1 61.116367076631974 -29.520647020634186 -7.5335665890537005 0 1 0 I I #
edge $-1 $487 76.431563592990145 $490 85.163497103218106 $375 $539 forward 7 unknown #
vertex $-1 $389 $540 #
straight-curve $-1 35.081664791070907 -5.4509347078716566 11.031226602652765 1 0 0 I I #
edge $-1 $490 -4.4176510309902017 $386 2.3510836772272921 $385 $541 forward 7 unknown #
vertex $-1 $489 $542 #
straight-curve $-1 -20.673295320043607 -5.4509347078716566 93.135917994610281 -0.66913059716165679 0 0.74314483375859142 I I #
point $-1 53.254099025162574 -5.4509347078716566 11.031226602652765 #
point $-1 61.116367076631974 1.3178000003458372 2.2992930924248043 #
straight-curve $-1 61.116367076631974 0 11.031226602652771 0 1 0 I I #
vertex $-1 $392 $543 #
point $-1 56.660760388472411 -3.5170105055238032 5.520206195615347 #
vertex $-1 $396 $544 #
point $-1 56.660760388472411 -0.61612420200201967 5.520206195615347 #
edge $-1 $500 76.431563592990145 $503 85.163497103218106 $401 $545 forward 7 unknown #
vertex $-1 $415 $546 #
straight-curve $-1 35.081664791070907 7.7359125046034372 11.031226602652765 1 0 0 I I #
edge $-1 $503 2.1757725752473451 $412 8.9445072834648389 $411 $547 forward 7 unknown #
vertex $-1 $502 $548 #
straight-curve $-1 -20.673295320043607 7.7359125046034372 93.135917994610281 -0.66913059716165679 0 0.74314483375859142 I I #
point $-1 53.254099025162574 7.7359125046034372 11.031226602652765 #
point $-1 61.116367076631974 14.504647212820931 2.2992930924248043 #
straight-curve $-1 61.116367076631974 0 11.031226602652771 0 1 0 I I #
vertex $-1 $418 $549 #
point $-1 56.660760388472411 9.6698367069512905 5.520206195615347 #
vertex $-1 $422 $550 #
point $-1 56.660760388472411 12.570723010473071 5.520206195615347 #
coedge $-1 $437 $436 $429 $513 forward $426 $-1 #
edge $-1 $514 39.843866904350442 $517 45.445614711203646 $512 $551 forward 7 unknown #
vertex $-1 $441 $552 #
straight-curve $-1 -68.185176731120919 -6.5435398790896961 11.031226602652772 -1 0 0 I I #
edge $-1 $517 1.6311864903321363 $438 8.1935202871829844 $437 $553 forward 7 unknown #
vertex $-1 $516 $554 #
straight-curve $-1 -61.116367076631988 -6.5435398790896961 5.4294787957995538 0.78801074757464917 0 0.61566148304635926 I I #
point $-1 -53.946456990392818 -6.5435398790896961 11.031226602652771 #
point $-1 -61.116367076631974 -13.105873675940543 5.4294787957995654 #
straight-curve $-1 -61.116367076631974 0 11.031226602652771 0 -1 0 I I #
vertex $-1 $444 $555 #
point $-1 -56.521745176678714 -11.230921162554587 7.7501726931746964 #
vertex $-1 $448 $556 #
point $-1 -56.521745176678714 -8.4184923924756525 7.7501726931746964 #
straight-curve $-1 -61.116367076631974 24.993790768159545 0 0 0 -1 I I #
point $-1 -61.116367076631974 -24.993790768159545 -11.031226602652771 #
straight-curve $-1 -61.116367076631974 0 -11.031226602652771 0 1 0 I I #
point $-1 -61.116367076631974 24.993790768159545 -11.031226602652771 #
edge $-1 $482 -1.748830006799535 $476 1.748830006799535 $475 $557 forward 7 unknown #
coedge $-1 $480 $471 $470 $532 reversed $354 $-1 #
edge $-1 $484 -1.748830006799535 $473 1.748830006799535 $470 $558 forward 7 unknown #
straight-curve $-1 0 -34.047503273108823 -11.031226602652771 -1 0 0 I I #
point $-1 61.116367076631974 -34.047503273108823 -11.031226602652771 #
point $-1 -61.116367076631974 -34.047503273108823 -11.031226602652771 #
straight-curve $-1 0 -34.047503273108823 -7.5335665890537005 1 0 0 I I #
point $-1 -61.116367076631974 -34.047503273108823 -7.5335665890537005 #
point $-1 61.116367076631974 -34.047503273108823 -7.5335665890537005 #
straight-curve $-1 61.116367076631974 -5.4509347078716566 87.46279019564291 0 0 -1 I I #
point $-1 61.116367076631974 -5.4509347078716566 11.031226602652771 #
straight-curve $-1 61.116367076631974 -1.0332836768814548 2.2992930924248043 0 1 0 I I #
point $-1 61.116367076631974 -5.4509347078716566 2.2992930924248043 #
point $-1 55.954622673012288 -3.5170105055238032 5.557213313913814 #
point $-1 55.954622673012288 -0.61612420200201967 5.557213313913814 #
straight-curve $-1 61.116367076631974 7.7359125046034372 87.46279019564291 0 0 -1 I I #
point $-1 61.116367076631974 7.7359125046034372 11.031226602652771 #
straight-curve $-1 61.116367076631974 5.560139929356092 2.2992930924248043 0 1 0 I I #
point $-1 61.116367076631974 7.7359125046034372 2.2992930924248043 #
point $-1 55.954622673012288 9.6698367069512905 5.557213313913814 #
point $-1 55.954622673012288 12.570723010473071 5.557213313913814 #
straight-curve $-1 -61.116367076631974 -6.5435398790896961 50.875093507003214 0 0 -1 I I #
point $-1 -61.116367076631974 -6.5435398790896961 11.031226602652771 #
straight-curve $-1 -61.116367076631974 -4.9123533887575599 5.4294787957995663 0 -1 0 I I #
point $-1 -61.116367076631974 -6.5435398790896961 5.4294787957995654 #
point $-1 -56.60791980894286 -11.230921162554587 7.048336577864192 #
point $-1 -56.60791980894286 -8.4184923924756525 7.048336577864192 #
straight-curve $-1 -61.116367076631974 -34.047503273108823 -9.2823965958532355 0 0 -1 I I #
straight-curve $-1 61.116367076631974 -34.047503273108823 -9.2823965958532355 0 0 -1 I I #
End-of-ACIS-data 