500 0 6 0           
7 Unknown 11 ACIS 5.0 NT 24 Fri Mar 26 15:26:19 1999 
-1 9.9999999999999995e-007 1e-010 
body $-1 $6 $-1 $7 #
body $-1 $8 $-1 $9 #
body $-1 $10 $-1 $11 #
body $-1 $12 $-1 $13 #
body $-1 $14 $-1 $15 #
body $-1 $16 $-1 $17 #
lump $-1 $-1 $18 $0 #
transform $-1 1 0 0 0 1 0 0 0 1 76.917630542924286 52.176148742351522 11.439358274027326 1 rotate no_reflect no_shear #
lump $-1 $-1 $19 $1 #
transform $-1 1 0 0 0 1 0 0 0 1 76.917630542924286 52.176148742351522 11.439358274027326 1 rotate no_reflect no_shear #
lump $-1 $-1 $20 $2 #
transform $-1 1 0 0 0 1 0 0 0 1 76.917630542924286 52.176148742351522 11.439358274027326 1 rotate no_reflect no_shear #
lump $-1 $-1 $21 $3 #
transform $-1 1 0 0 0 1 0 0 0 1 76.917630542924286 52.176148742351522 11.439358274027326 1 rotate no_reflect no_shear #
lump $-1 $-1 $22 $4 #
transform $-1 1 0 0 0 1 0 0 0 1 76.917630542924286 52.176148742351522 11.439358274027326 1 rotate no_reflect no_shear #
lump $-1 $-1 $23 $5 #
transform $-1 1 0 0 0 1 0 0 0 1 76.917630542924286 52.176148742351522 11.439358274027326 1 rotate no_reflect no_shear #
shell $-1 $-1 $-1 $24 $-1 $6 #
shell $-1 $-1 $-1 $25 $-1 $8 #
shell $-1 $-1 $-1 $26 $-1 $10 #
shell $-1 $-1 $-1 $27 $-1 $12 #
shell $-1 $-1 $-1 $28 $-1 $14 #
shell $-1 $-1 $-1 $29 $-1 $16 #
face $-1 $30 $31 $18 $-1 $32 forward single #
face $-1 $33 $34 $19 $-1 $35 forward single #
face $-1 $36 $37 $20 $-1 $38 reversed single #
face $-1 $39 $40 $21 $-1 $41 forward single #
face $-1 $42 $43 $22 $-1 $44 forward single #
face $-1 $45 $46 $23 $-1 $47 forward single #
face $-1 $48 $49 $18 $-1 $50 reversed single #
loop $-1 $-1 $51 $24 #
plane-surface $-1 0 0 11.439358274027326 0 0 1 1 0 0 forward_v I I I I #
face $-1 $52 $53 $19 $-1 $54 reversed single #
loop $-1 $-1 $55 $25 #
plane-surface $-1 0 -52.176148742351522 0 0 1 0 0 0 1 forward_v I I I I #
face $-1 $56 $57 $20 $-1 $58 reversed single #
loop $-1 $-1 $59 $26 #
plane-surface $-1 34.542628771789879 96.672713137073742 184.9185883608863 1 0 0 0 -0.74314483375859142 -0.66913059716165679 forward_v I I I I #
face $-1 $60 $61 $21 $-1 $62 forward single #
loop $-1 $63 $64 $27 #
cone-surface $-1 43.017629126016757 48.227145229095761 7.220683069885073 0 -0.74314483375859142 -0.66913059716165679 1.5 0 0 1 I I 0 1 1.5 forward I I I I #
face $-1 $65 $66 $22 $-1 $67 forward single #
loop $-1 $68 $69 $28 #
cone-surface $-1 55.730129657357082 48.227145229095761 7.220683069885073 0 -0.74314483375859142 -0.66913059716165679 1.5 0 0 1 I I 0 1 1.5 forward I I I I #
face $-1 $70 $71 $23 $-1 $72 forward single #
loop $-1 $73 $74 $29 #
cone-surface $-1 68.442630188697393 48.227145229095761 7.220683069885073 0 -0.74314483375859142 -0.66913059716165679 1.5 0 0 1 I I 0 1 1.5 forward I I I I #
face $-1 $75 $76 $18 $-1 $77 reversed single #
loop $-1 $-1 $78 $30 #
plane-surface $-1 0 0 -11.439358274027326 0 0 1 1 0 0 forward_v I I I I #
coedge $-1 $79 $80 $81 $82 forward $31 $-1 #
face $-1 $83 $84 $19 $-1 $85 reversed single #
loop $-1 $-1 $86 $33 #
plane-surface $-1 0 0 -11.439358274027326 0 0 1 1 0 0 forward_v I I I I #
coedge $-1 $87 $88 $89 $90 forward $34 $-1 #
face $-1 $91 $92 $20 $-1 $93 forward single #
loop $-1 $-1 $94 $36 #
plane-surface $-1 55.730129657357082 -17.649166388778696 81.982708245993066 0 0.74314483375859142 0.66913059716165679 1 0 0 forward_v I I I I #
coedge $-1 $95 $96 $97 $98 reversed $37 $-1 #
face $-1 $-1 $99 $21 $-1 $100 forward single #
loop $-1 $101 $102 $39 #
cone-surface $-1 43.017629126016757 46.874682639974559 6.0029203151870423 0 -0.74314483375859142 -0.66913059716165679 0.75 0 0 1 I I -0.70710678118654757 0.70710678118654757 0.75 forward I I I I #
loop $-1 $-1 $103 $27 #
coedge $-1 $64 $64 $104 $105 reversed $40 $-1 #
face $-1 $-1 $106 $22 $-1 $107 forward single #
loop $-1 $108 $109 $42 #
cone-surface $-1 55.730129657357082 46.874682639974559 6.0029203151870423 0 -0.74314483375859142 -0.66913059716165679 0.75 0 0 1 I I -0.70710678118654757 0.70710678118654757 0.75 forward I I I I #
loop $-1 $-1 $110 $28 #
coedge $-1 $69 $69 $111 $112 reversed $43 $-1 #
face $-1 $-1 $113 $23 $-1 $114 forward single #
loop $-1 $115 $116 $45 #
cone-surface $-1 68.442630188697393 46.874682639974559 6.0029203151870423 0 -0.74314483375859142 -0.66913059716165679 0.75 0 0 1 I I -0.70710678118654757 0.70710678118654757 0.75 forward I I I I #
loop $-1 $-1 $117 $29 #
coedge $-1 $74 $74 $118 $119 reversed $46 $-1 #
face $-1 $120 $121 $18 $-1 $122 reversed single #
loop $-1 $-1 $123 $48 #
plane-surface $-1 0 -52.176148742351522 0 0 1 0 0 0 1 forward_v I I I I #
coedge $-1 $124 $125 $126 $127 forward $49 $-1 #
coedge $-1 $128 $51 $129 $130 forward $31 $-1 #
coedge $-1 $51 $128 $131 $132 forward $31 $-1 #
coedge $-1 $133 $134 $51 $82 reversed $135 $-1 #
edge $-1 $136 -52.176148742351522 $137 52.176148742351522 $81 $138 forward 7 unknown #
face $-1 $139 $140 $19 $-1 $141 reversed single #
loop $-1 $-1 $142 $52 #
plane-surface $-1 -61.548919225300764 -66.78025067545812 0 0 1 0 0 0 1 forward_v I I I I #
coedge $-1 $143 $144 $88 $145 forward $53 $-1 #
coedge $-1 $146 $55 $147 $148 reversed $34 $-1 #
coedge $-1 $55 $146 $86 $145 reversed $34 $-1 #
coedge $-1 $149 $150 $55 $90 reversed $140 $-1 #
edge $-1 $151 -11.439358274027326 $152 11.439358274027326 $89 $153 forward 7 unknown #
face $-1 $154 $155 $20 $-1 $156 reversed single #
loop $-1 $-1 $97 $56 #
plane-surface $-1 0 0 11.439358274027326 0 0 1 1 0 0 forward_v I I I I #
coedge $-1 $157 $158 $159 $160 reversed $57 $-1 #
coedge $-1 $96 $59 $161 $162 reversed $37 $-1 #
coedge $-1 $59 $95 $157 $163 reversed $37 $-1 #
coedge $-1 $159 $164 $59 $98 forward $92 $-1 #
edge $-1 $165 -3.8397921738146508 $166 2.4680069250923609 $97 $167 forward 7 unknown #
loop $-1 $-1 $104 $60 #
plane-surface $-1 55.730129657357082 -17.649166388778696 81.982708245993066 0 0.74314483375859142 0.66913059716165679 1 0 0 forward_v I I I I #
loop $-1 $-1 $168 $39 #
coedge $-1 $102 $102 $103 $169 reversed $61 $-1 #
coedge $-1 $103 $103 $102 $169 forward $63 $-1 #
coedge $-1 $104 $104 $64 $105 forward $99 $-1 #
edge $-1 $170 1.0589168353922982e-015 $170 6.2831853071796013 $104 $171 forward 7 unknown #
loop $-1 $-1 $111 $65 #
plane-surface $-1 55.730129657357082 -17.649166388778696 81.982708245993066 0 0.74314483375859142 0.66913059716165679 1 0 0 forward_v I I I I #
loop $-1 $-1 $172 $42 #
coedge $-1 $109 $109 $110 $173 reversed $66 $-1 #
coedge $-1 $110 $110 $109 $173 forward $68 $-1 #
coedge $-1 $111 $111 $69 $112 forward $106 $-1 #
edge $-1 $174 1.0589168353922982e-015 $174 6.2831853071796013 $111 $175 forward 7 unknown #
loop $-1 $-1 $118 $70 #
plane-surface $-1 55.730129657357082 -17.649166388778696 81.982708245993066 0 0.74314483375859142 0.66913059716165679 1 0 0 forward_v I I I I #
loop $-1 $-1 $176 $45 #
coedge $-1 $116 $116 $117 $177 reversed $71 $-1 #
coedge $-1 $117 $117 $116 $177 forward $73 $-1 #
coedge $-1 $118 $118 $74 $119 forward $113 $-1 #
edge $-1 $178 1.0589168353922982e-015 $178 6.2831853071796013 $118 $179 forward 7 unknown #
face $-1 $180 $181 $18 $-1 $182 reversed single #
loop $-1 $-1 $183 $75 #
plane-surface $-1 -76.917630542924286 0 0 1 0 0 0 0 -1 forward_v I I I I #
coedge $-1 $184 $131 $185 $186 forward $76 $-1 #
coedge $-1 $187 $78 $184 $188 forward $49 $-1 #
coedge $-1 $78 $187 $189 $190 forward $49 $-1 #
coedge $-1 $134 $133 $78 $127 reversed $135 $-1 #
edge $-1 $191 -52.176148742351522 $192 52.176148742351522 $126 $193 forward 7 unknown #
coedge $-1 $80 $79 $194 $195 forward $31 $-1 #
coedge $-1 $196 $197 $79 $130 reversed $181 $-1 #
edge $-1 $137 -76.917630542924286 $198 76.917630542924286 $129 $199 forward 7 unknown #
coedge $-1 $123 $200 $80 $132 reversed $76 $-1 #
edge $-1 $201 -76.917630542924286 $136 76.917630542924286 $131 $202 forward 7 unknown #
coedge $-1 $126 $81 $200 $203 forward $135 $-1 #
coedge $-1 $81 $126 $196 $204 reversed $135 $-1 #
loop $-1 $-1 $133 $180 #
vertex $-1 $82 $205 #
vertex $-1 $82 $206 #
straight-curve $-1 76.917630542924286 0 11.439358274027326 0 1 0 I I #
face $-1 $207 $208 $19 $-1 $209 reversed single #
loop $-1 $-1 $89 $83 #
plane-surface $-1 -63.718127655601641 -59.478199708904825 0 1 0 0 0 0 -1 forward_v I I I I #
coedge $-1 $210 $211 $212 $213 forward $84 $-1 #
coedge $-1 $214 $86 $215 $216 forward $53 $-1 #
coedge $-1 $86 $214 $149 $217 forward $53 $-1 #
edge $-1 $151 -63.718127655601641 $218 -59.379710794999887 $86 $219 forward 7 unknown #
coedge $-1 $88 $87 $220 $221 forward $34 $-1 #
coedge $-1 $222 $223 $87 $148 forward $224 $-1 #
edge $-1 $225 59.379710794999887 $152 63.718127655601641 $147 $226 forward 7 unknown #
coedge $-1 $212 $89 $144 $217 reversed $140 $-1 #
coedge $-1 $89 $212 $222 $227 reversed $140 $-1 #
vertex $-1 $145 $228 #
vertex $-1 $227 $229 #
straight-curve $-1 -63.718127655601641 -52.176148742351522 0 0 0 1 I I #
face $-1 $-1 $230 $20 $-1 $231 reversed single #
loop $-1 $-1 $232 $91 #
plane-surface $-1 76.917630542924286 0 0 -1 0 0 0 0 1 forward_v I I I I #
coedge $-1 $233 $94 $96 $163 forward $57 $-1 #
coedge $-1 $94 $233 $232 $234 reversed $57 $-1 #
coedge $-1 $235 $97 $94 $160 forward $92 $-1 #
edge $-1 $166 6.6775639431113376 $236 49.052565714245745 $159 $237 forward 7 unknown #
coedge $-1 $238 $239 $95 $162 forward $230 $-1 #
edge $-1 $240 -88.025456701046821 $165 -81.019935906415824 $161 $241 forward 7 unknown #
edge $-1 $166 94.925439520557234 $240 104.35229748470306 $96 $242 forward 7 unknown #
coedge $-1 $97 $235 $238 $243 forward $92 $-1 #
vertex $-1 $162 $244 #
vertex $-1 $98 $245 #
straight-curve $-1 34.542628771789879 48.336356568536871 11.439358274027327 0 -1 0 I I #
coedge $-1 $168 $168 $-1 $246 reversed $101 $-1 #
edge $-1 $247 0 $247 6.2831853071796004 $102 $248 forward 7 unknown #
vertex $-1 $105 $249 #
ellipse-curve $-1 43.017629126016757 49.022249192898009 7.9365978767118506 0 0.74314483375859142 0.66913059716165679 1.5 0 0 1 I I #
coedge $-1 $172 $172 $-1 $250 reversed $108 $-1 #
edge $-1 $251 0 $251 6.2831853071796004 $109 $252 forward 7 unknown #
vertex $-1 $112 $253 #
ellipse-curve $-1 55.730129657357082 49.022249192898009 7.9365978767118506 0 0.74314483375859142 0.66913059716165679 1.5 0 0 1 I I #
coedge $-1 $176 $176 $-1 $254 reversed $115 $-1 #
edge $-1 $255 0 $255 6.2831853071796004 $116 $256 forward 7 unknown #
vertex $-1 $119 $257 #
ellipse-curve $-1 68.442630188697393 49.022249192898009 7.9365978767118506 0 0.74314483375859142 0.66913059716165679 1.5 0 0 1 I I #
face $-1 $-1 $135 $18 $-1 $258 reversed single #
loop $-1 $-1 $196 $120 #
plane-surface $-1 0 52.176148742351522 0 0 -1 0 0 0 -1 forward_v I I I I #
coedge $-1 $259 $194 $197 $260 forward $121 $-1 #
coedge $-1 $200 $123 $124 $188 reversed $76 $-1 #
coedge $-1 $194 $259 $123 $186 reversed $121 $-1 #
edge $-1 $201 -11.439358274027326 $261 11.439358274027326 $185 $262 forward 7 unknown #
coedge $-1 $125 $124 $259 $263 forward $49 $-1 #
edge $-1 $192 -76.917630542924286 $261 76.917630542924286 $184 $264 forward 7 unknown #
coedge $-1 $197 $196 $125 $190 reversed $181 $-1 #
edge $-1 $265 -76.917630542924286 $191 76.917630542924286 $189 $266 forward 7 unknown #
vertex $-1 $127 $267 #
vertex $-1 $203 $268 #
straight-curve $-1 76.917630542924286 0 -11.439358274027326 0 -1 0 I I #
coedge $-1 $183 $185 $128 $195 reversed $121 $-1 #
edge $-1 $198 -52.176148742351522 $201 52.176148742351522 $194 $269 forward 7 unknown #
coedge $-1 $189 $129 $134 $204 forward $181 $-1 #
coedge $-1 $129 $189 $183 $260 reversed $181 $-1 #
vertex $-1 $130 $270 #
straight-curve $-1 0 52.176148742351522 11.439358274027326 -1 0 0 I I #
coedge $-1 $131 $184 $133 $203 reversed $76 $-1 #
vertex $-1 $195 $271 #
straight-curve $-1 0 -52.176148742351522 11.439358274027326 1 0 0 I I #
edge $-1 $136 -11.439358274027326 $192 11.439358274027326 $133 $272 forward 7 unknown #
edge $-1 $137 -11.439358274027326 $191 11.439358274027326 $134 $273 forward 7 unknown #
point $-1 76.917630542924286 -52.176148742351522 11.439358274027326 #
point $-1 76.917630542924286 52.176148742351522 11.439358274027326 #
face $-1 $-1 $224 $19 $-1 $274 forward single #
loop $-1 $-1 $275 $139 #
plane-surface $-1 -59.379710794999887 -59.478199708904825 0 -1 0 0 0 0 1 forward_v I I I I #
coedge $-1 $276 $142 $214 $277 reversed $84 $-1 #
coedge $-1 $142 $276 $278 $279 reversed $84 $-1 #
coedge $-1 $150 $149 $142 $213 reversed $140 $-1 #
edge $-1 $280 -11.439358274027326 $281 11.439358274027326 $212 $282 forward 7 unknown #
coedge $-1 $144 $143 $210 $277 forward $53 $-1 #
coedge $-1 $220 $275 $143 $216 reversed $208 $-1 #
edge $-1 $218 -7.3020509665533027 $283 7.3020509665532956 $215 $284 forward 7 unknown #
edge $-1 $281 -7.3020509665532956 $151 7.3020509665533027 $149 $285 forward 7 unknown #
vertex $-1 $216 $286 #
straight-curve $-1 0 -52.176148742351522 -11.439358274027326 1 0 0 I I #
coedge $-1 $287 $215 $146 $221 reversed $208 $-1 #
edge $-1 $225 -11.439358274027326 $218 11.439358274027326 $220 $288 forward 7 unknown #
coedge $-1 $278 $147 $150 $227 forward $224 $-1 #
coedge $-1 $147 $278 $287 $289 forward $224 $-1 #
loop $-1 $-1 $147 $207 #
vertex $-1 $148 $290 #
straight-curve $-1 0 -52.176148742351522 11.439358274027326 -1 0 0 I I #
edge $-1 $152 -7.3020509665533027 $280 7.3020509665532956 $150 $291 forward 7 unknown #
point $-1 -63.718127655601641 -52.176148742351522 -11.439358274027326 #
point $-1 -63.718127655601641 -52.176148742351522 11.439358274027326 #
loop $-1 $-1 $161 $154 #
plane-surface $-1 0 52.176148742351522 0 0 -1 0 0 0 -1 forward_v I I I I #
coedge $-1 $292 $293 $158 $234 forward $155 $-1 #
coedge $-1 $158 $157 $239 $294 reversed $57 $-1 #
edge $-1 $236 58.558127852718968 $295 67.984985816864778 $232 $296 forward 7 unknown #
coedge $-1 $164 $159 $293 $297 forward $92 $-1 #
vertex $-1 $297 $298 #
straight-curve $-1 27.865064828678541 45.86834964344451 11.439358274027327 1 0 0 I I #
coedge $-1 $299 $161 $164 $243 reversed $230 $-1 #
coedge $-1 $161 $299 $233 $294 forward $230 $-1 #
vertex $-1 $162 $300 #
straight-curve $-1 34.542628771789879 52.176148742351522 92.459294180443152 0 0 1 I I #
straight-curve $-1 34.542628771789879 -17.649166388778696 81.982708245993066 0 0.66913059716165679 -0.74314483375859142 I I #
edge $-1 $301 -76.917630542924286 $165 -34.542628771789879 $238 $302 forward 7 unknown #
point $-1 34.542628771789879 52.176148742351522 11.439358274027326 #
point $-1 34.542628771789879 45.86834964344451 11.439358274027327 #
edge $-1 $303 1 $303 0 $168 $-1 forward 7 unknown #
vertex $-1 $169 $304 #
ellipse-curve $-1 43.017629126016757 47.432041265293499 6.5047682630582848 0 0.74314483375859142 0.66913059716165679 1.5 0 0 1 I I #
point $-1 44.517629126016757 49.022249192898023 7.9365978767118612 #
edge $-1 $305 1 $305 0 $172 $-1 forward 7 unknown #
vertex $-1 $173 $306 #
ellipse-curve $-1 55.730129657357082 47.432041265293499 6.5047682630582848 0 0.74314483375859142 0.66913059716165679 1.5 0 0 1 I I #
point $-1 57.230129657357082 49.022249192898023 7.9365978767118612 #
edge $-1 $307 1 $307 0 $176 $-1 forward 7 unknown #
vertex $-1 $177 $308 #
ellipse-curve $-1 68.442630188697393 47.432041265293499 6.5047682630582848 0 0.74314483375859142 0.66913059716165679 1.5 0 0 1 I I #
point $-1 69.942630188697393 49.022249192898023 7.9365978767118612 #
plane-surface $-1 76.917630542924286 0 0 -1 0 0 0 0 1 forward_v I I I I #
coedge $-1 $185 $183 $187 $263 reversed $121 $-1 #
edge $-1 $198 -11.439358274027326 $265 11.439358274027326 $197 $309 forward 7 unknown #
vertex $-1 $263 $310 #
straight-curve $-1 -76.917630542924286 -52.176148742351522 0 0 0 -1 I I #
edge $-1 $261 -52.176148742351522 $265 52.176148742351522 $259 $311 forward 7 unknown #
straight-curve $-1 0 -52.176148742351522 -11.439358274027326 -1 0 0 I I #
vertex $-1 $190 $312 #
straight-curve $-1 0 52.176148742351522 -11.439358274027326 1 0 0 I I #
point $-1 76.917630542924286 52.176148742351522 -11.439358274027326 #
point $-1 76.917630542924286 -52.176148742351522 -11.439358274027326 #
straight-curve $-1 -76.917630542924286 0 11.439358274027326 0 -1 0 I I #
point $-1 -76.917630542924286 52.176148742351522 11.439358274027326 #
point $-1 -76.917630542924286 -52.176148742351522 11.439358274027326 #
straight-curve $-1 76.917630542924286 -52.176148742351522 0 0 0 -1 I I #
straight-curve $-1 76.917630542924286 52.176148742351522 0 0 0 -1 I I #
plane-surface $-1 0 0 11.439358274027326 0 0 1 1 0 0 forward_v I I I I #
coedge $-1 $215 $287 $276 $313 forward $208 $-1 #
coedge $-1 $211 $210 $275 $313 reversed $84 $-1 #
edge $-1 $283 -2.169208430300877 $281 2.169208430300877 $210 $314 forward 7 unknown #
coedge $-1 $223 $222 $211 $279 forward $224 $-1 #
edge $-1 $280 -2.169208430300877 $315 2.169208430300877 $211 $316 forward 7 unknown #
vertex $-1 $227 $317 #
vertex $-1 $217 $318 #
straight-curve $-1 -63.718127655601641 -66.78025067545812 0 0 0 -1 I I #
vertex $-1 $313 $319 #
straight-curve $-1 -59.379710794999887 -59.478199708904825 -11.439358274027326 0 -1 0 I I #
straight-curve $-1 -63.718127655601641 -59.478199708904825 -11.439358274027326 0 1 0 I I #
point $-1 -59.379710794999887 -52.176148742351522 -11.439358274027326 #
coedge $-1 $275 $220 $223 $289 reversed $208 $-1 #
straight-curve $-1 -59.379710794999887 -52.176148742351522 0 0 0 -1 I I #
edge $-1 $315 -7.3020509665532956 $225 7.3020509665533027 $287 $320 forward 7 unknown #
point $-1 -59.379710794999887 -52.176148742351522 11.439358274027326 #
straight-curve $-1 -63.718127655601641 -59.478199708904825 11.439358274027326 0 -1 0 I I #
coedge $-1 $293 $232 $299 $321 reversed $155 $-1 #
coedge $-1 $232 $292 $235 $297 reversed $155 $-1 #
edge $-1 $295 -49.052565714245745 $240 -6.6775639431113376 $239 $322 forward 7 unknown #
vertex $-1 $234 $323 #
straight-curve $-1 76.917630542924286 6.6853145846860187 54.956528462350505 0 0.66913059716165679 -0.74314483375859142 I I #
edge $-1 $236 45.86834964344451 $301 52.176148742351522 $293 $324 forward 7 unknown #
point $-1 76.917630542924286 45.86834964344451 11.439358274027327 #
coedge $-1 $239 $238 $292 $321 forward $230 $-1 #
point $-1 34.542628771789879 52.176148742351529 4.4338374793963311 #
vertex $-1 $297 $325 #
straight-curve $-1 0 52.176148742351522 11.439358274027326 -1 0 0 I I #
vertex $-1 $246 $326 #
point $-1 44.517629126016757 47.432041265293499 6.5047682630582848 #
vertex $-1 $250 $327 #
point $-1 57.230129657357082 47.432041265293499 6.5047682630582848 #
vertex $-1 $254 $328 #
point $-1 69.942630188697393 47.432041265293499 6.5047682630582848 #
straight-curve $-1 -76.917630542924286 52.176148742351522 0 0 0 -1 I I #
point $-1 -76.917630542924286 -52.176148742351522 -11.439358274027326 #
straight-curve $-1 -76.917630542924286 0 -11.439358274027326 0 1 0 I I #
point $-1 -76.917630542924286 52.176148742351522 -11.439358274027326 #
edge $-1 $315 -11.439358274027326 $283 11.439358274027326 $275 $329 forward 7 unknown #
straight-curve $-1 -61.548919225300764 -66.78025067545812 -11.439358274027326 -1 0 0 I I #
vertex $-1 $289 $330 #
straight-curve $-1 -61.548919225300764 -66.78025067545812 11.439358274027326 1 0 0 I I #
point $-1 -63.718127655601641 -66.78025067545812 11.439358274027326 #
point $-1 -63.718127655601641 -66.78025067545812 -11.439358274027326 #
point $-1 -59.379710794999887 -66.78025067545812 -11.439358274027326 #
straight-curve $-1 -59.379710794999887 -59.478199708904825 11.439358274027326 0 1 0 I I #
edge $-1 $301 -11.439358274027326 $295 -4.4338374793963311 $292 $331 forward 7 unknown #
straight-curve $-1 27.865064828678541 52.176148742351515 4.433837479396324 -1 0 0 I I #
point $-1 76.917630542924286 52.176148742351529 4.4338374793963311 #
straight-curve $-1 76.917630542924286 0 11.439358274027326 0 1 0 I I #
point $-1 76.917630542924286 52.176148742351522 11.439358274027326 #
point $-1 43.017629126016757 46.317324014655618 5.5010723673157997 #
point $-1 55.730129657357082 46.317324014655618 5.5010723673157997 #
point $-1 68.442630188697393 46.317324014655618 5.5010723673157997 #
straight-curve $-1 -59.379710794999887 -66.78025067545812 0 0 0 -1 I I #
point $-1 -59.379710794999887 -66.78025067545812 11.439358274027326 #
straight-curve $-1 76.917630542924286 52.176148742351522 0 0 0 -1 I I #
End-of-ACIS-data 