500 0 14 0           
7 Unknown 11 ACIS 5.0 NT 24 Fri Mar 26 19:09:41 1999 
-1 9.9999999999999995e-007 1e-010 
body $-1 $14 $-1 $15 #
body $-1 $16 $-1 $17 #
body $-1 $18 $-1 $19 #
body $-1 $20 $-1 $21 #
body $-1 $22 $-1 $23 #
body $-1 $24 $-1 $25 #
body $-1 $26 $-1 $27 #
body $-1 $28 $-1 $29 #
body $-1 $30 $-1 $31 #
body $-1 $32 $-1 $33 #
body $-1 $34 $-1 $35 #
body $-1 $36 $-1 $37 #
body $-1 $38 $-1 $39 #
body $-1 $40 $-1 $41 #
lump $-1 $-1 $42 $0 #
transform $-1 1 0 0 0 1 0 0 0 1 47.72606585894345 24.577751411999373 9.0784739658801001 1 rotate no_reflect no_shear #
lump $-1 $-1 $43 $1 #
transform $-1 1 0 0 0 1 0 0 0 1 47.72606585894345 24.577751411999373 9.0784739658801001 1 rotate no_reflect no_shear #
lump $-1 $-1 $44 $2 #
transform $-1 1 0 0 0 1 0 0 0 1 47.72606585894345 24.577751411999373 9.0784739658801001 1 rotate no_reflect no_shear #
lump $-1 $-1 $45 $3 #
transform $-1 1 0 0 0 1 0 0 0 1 47.72606585894345 24.577751411999373 9.0784739658801001 1 rotate no_reflect no_shear #
lump $-1 $-1 $46 $4 #
transform $-1 1 0 0 0 1 0 0 0 1 47.72606585894345 24.577751411999373 9.0784739658801001 1 rotate no_reflect no_shear #
lump $-1 $-1 $47 $5 #
transform $-1 1 0 0 0 1 0 0 0 1 47.72606585894345 24.577751411999373 9.0784739658801001 1 rotate no_reflect no_shear #
lump $-1 $-1 $48 $6 #
transform $-1 1 0 0 0 1 0 0 0 1 47.72606585894345 24.577751411999373 9.0784739658801001 1 rotate no_reflect no_shear #
lump $-1 $-1 $49 $7 #
transform $-1 1 0 0 0 1 0 0 0 1 47.72606585894345 24.577751411999373 9.0784739658801001 1 rotate no_reflect no_shear #
lump $-1 $-1 $50 $8 #
transform $-1 1 0 0 0 1 0 0 0 1 47.72606585894345 24.577751411999373 9.0784739658801001 1 rotate no_reflect no_shear #
lump $-1 $-1 $51 $9 #
transform $-1 1 0 0 0 1 0 0 0 1 47.72606585894345 24.577751411999373 9.0784739658801001 1 rotate no_reflect no_shear #
lump $-1 $-1 $52 $10 #
transform $-1 1 0 0 0 1 0 0 0 1 47.72606585894345 24.577751411999373 9.0784739658801001 1 rotate no_reflect no_shear #
lump $-1 $-1 $53 $11 #
transform $-1 1 0 0 0 1 0 0 0 1 47.72606585894345 24.577751411999373 9.0784739658801001 1 rotate no_reflect no_shear #
lump $-1 $-1 $54 $12 #
transform $-1 1 0 0 0 1 0 0 0 1 47.72606585894345 24.577751411999373 9.0784739658801001 1 rotate no_reflect no_shear #
lump $-1 $-1 $55 $13 #
transform $-1 1 0 0 0 1 0 0 0 1 47.72606585894345 24.577751411999373 9.0784739658801001 1 rotate no_reflect no_shear #
shell $-1 $-1 $-1 $56 $-1 $14 #
shell $-1 $-1 $-1 $57 $-1 $16 #
shell $-1 $-1 $-1 $58 $-1 $18 #
shell $-1 $-1 $-1 $59 $-1 $20 #
shell $-1 $-1 $-1 $60 $-1 $22 #
shell $-1 $-1 $-1 $61 $-1 $24 #
shell $-1 $-1 $-1 $62 $-1 $26 #
shell $-1 $-1 $-1 $63 $-1 $28 #
shell $-1 $-1 $-1 $64 $-1 $30 #
shell $-1 $-1 $-1 $65 $-1 $32 #
shell $-1 $-1 $-1 $66 $-1 $34 #
shell $-1 $-1 $-1 $67 $-1 $36 #
shell $-1 $-1 $-1 $68 $-1 $38 #
shell $-1 $-1 $-1 $69 $-1 $40 #
face $-1 $70 $71 $42 $-1 $72 forward single #
face $-1 $73 $74 $43 $-1 $75 reversed single #
face $-1 $76 $77 $44 $-1 $78 reversed single #
face $-1 $79 $80 $45 $-1 $81 forward single #
face $-1 $82 $83 $46 $-1 $84 forward single #
face $-1 $85 $86 $47 $-1 $87 reversed single #
face $-1 $88 $89 $48 $-1 $90 forward single #
face $-1 $91 $92 $49 $-1 $93 forward single #
face $-1 $94 $95 $50 $-1 $96 reversed single #
face $-1 $97 $98 $51 $-1 $99 forward single #
face $-1 $100 $101 $52 $-1 $102 forward single #
face $-1 $103 $104 $53 $-1 $105 reversed single #
face $-1 $106 $107 $54 $-1 $108 forward single #
face $-1 $109 $110 $55 $-1 $111 forward single #
face $-1 $112 $113 $42 $-1 $114 reversed single #
loop $-1 $-1 $115 $56 #
plane-surface $-1 0 0 9.0784739658801001 0 0 1 1 0 0 forward_v I I I I #
face $-1 $116 $117 $43 $-1 $118 reversed single #
loop $-1 $-1 $119 $57 #
plane-surface $-1 0 -19.347938655874223 5.5427814194711411 0 0 1 1 0 0 forward_v I I I I #
face $-1 $120 $121 $44 $-1 $122 reversed single #
loop $-1 $-1 $123 $58 #
plane-surface $-1 68.84310910070792 5.2298127561251491 134.13414617000291 0 -1 0 -0.80901700255871778 0 -0.5877852410284794 forward_v I I I I #
face $-1 $124 $125 $45 $-1 $126 forward single #
loop $-1 $127 $128 $59 #
cone-surface $-1 44.316548657182516 -0.64045487274439594 4.6485415780647408 -0.80901700255871778 0 -0.5877852410284794 0.2938926205142397 0 -0.40450850127935889 1 I I 0 1 0.5 forward I I I I #
face $-1 $129 $130 $46 $-1 $131 forward single #
loop $-1 $132 $133 $60 #
cone-surface $-1 44.316548657182516 2.8817057045773318 4.6485415780647408 -0.80901700255871778 0 -0.5877852410284794 0.2938926205142397 0 -0.40450850127935889 1 I I 0 1 0.5 forward I I I I #
face $-1 $134 $135 $47 $-1 $136 reversed single #
loop $-1 $-1 $137 $61 #
plane-surface $-1 -8.3792883895368533 1.1206254159164679 78.028791921522583 0.80901700255871778 0 0.5877852410284794 0.5877852410284794 0 -0.80901700255871778 forward_v I I I I #
face $-1 $138 $139 $48 $-1 $140 forward single #
loop $-1 $141 $142 $62 #
cone-surface $-1 44.316548657182516 7.5779198076729699 4.6485415780647408 -0.80901700255871778 0 -0.5877852410284794 0.2938926205142397 0 -0.40450850127935889 1 I I 0 1 0.5 forward I I I I #
face $-1 $143 $144 $49 $-1 $145 forward single #
loop $-1 $146 $147 $63 #
cone-surface $-1 44.316548657182516 11.100080384994698 4.6485415780647408 -0.80901700255871778 0 -0.5877852410284794 0.2938926205142397 0 -0.40450850127935889 1 I I 0 1 0.5 forward I I I I #
face $-1 $148 $149 $50 $-1 $150 reversed single #
loop $-1 $-1 $151 $64 #
plane-surface $-1 -124.94846334918822 -2.9885619242922132 56.911748679758141 0 1 0 -0.80901700255871778 0 0.5877852410284794 forward_v I I I I #
face $-1 $152 $153 $51 $-1 $154 forward single #
loop $-1 $155 $156 $65 #
cone-surface $-1 -44.316548657182508 -0.64045487274439594 4.6485415780647301 0.80901700255871778 0 -0.5877852410284794 0.2938926205142397 0 0.40450850127935889 1 I I 0 1 0.5 forward I I I I #
face $-1 $157 $158 $52 $-1 $159 forward single #
loop $-1 $160 $161 $66 #
cone-surface $-1 -44.316548657182508 2.8817057045773318 4.6485415780647301 0.80901700255871778 0 -0.5877852410284794 0.2938926205142397 0 0.40450850127935889 1 I I 0 1 0.5 forward I I I I #
face $-1 $162 $163 $53 $-1 $164 reversed single #
loop $-1 $-1 $165 $67 #
plane-surface $-1 -47.726065858943443 1.1206254159164679 0.80639443127782329 -0.80901700255871778 0 0.5877852410284794 0.5877852410284794 0 0.80901700255871778 forward_v I I I I #
face $-1 $166 $167 $54 $-1 $168 forward single #
loop $-1 $169 $170 $68 #
cone-surface $-1 -44.316548657182508 7.5779198076729699 4.6485415780647301 0.80901700255871778 0 -0.5877852410284794 0.2938926205142397 0 0.40450850127935889 1 I I 0 1 0.5 forward I I I I #
face $-1 $171 $172 $55 $-1 $173 forward single #
loop $-1 $174 $175 $69 #
cone-surface $-1 -44.316548657182508 11.100080384994698 4.6485415780647301 0.80901700255871778 0 -0.5877852410284794 0.2938926205142397 0 0.40450850127935889 1 I I 0 1 0.5 forward I I I I #
face $-1 $176 $177 $42 $-1 $178 reversed single #
loop $-1 $-1 $179 $70 #
plane-surface $-1 0 0 -9.0784739658801001 0 0 1 1 0 0 forward_v I I I I #
coedge $-1 $180 $181 $182 $183 forward $71 $-1 #
face $-1 $184 $185 $43 $-1 $186 reversed single #
loop $-1 $-1 $187 $73 #
plane-surface $-1 0 -14.118125899749074 7.3106276926756202 0 -1 0 0 0 -1 forward_v I I I I #
coedge $-1 $188 $189 $190 $191 reversed $74 $-1 #
face $-1 $192 $193 $44 $-1 $194 reversed single #
loop $-1 $-1 $195 $76 #
plane-surface $-1 -8.3792883895368533 1.1206254159164679 78.028791921522583 0.80901700255871778 0 0.5877852410284794 0.5877852410284794 0 -0.80901700255871778 forward_v I I I I #
coedge $-1 $196 $197 $198 $199 reversed $77 $-1 #
face $-1 $-1 $200 $45 $-1 $201 forward single #
loop $-1 $202 $203 $79 #
cone-surface $-1 43.70978590526348 -0.64045487274439594 4.2077026472933809 -0.80901700255871778 0 -0.5877852410284794 0.14694631025711985 0 -0.20225425063967944 1 I I -0.70710678118654746 0.70710678118654746 0.25 forward I I I I #
loop $-1 $-1 $204 $59 #
coedge $-1 $128 $128 $205 $206 reversed $80 $-1 #
face $-1 $-1 $207 $46 $-1 $208 forward single #
loop $-1 $209 $210 $82 #
cone-surface $-1 43.70978590526348 2.8817057045773318 4.2077026472933809 -0.80901700255871778 0 -0.5877852410284794 0.14694631025711985 0 -0.20225425063967944 1 I I -0.70710678118654746 0.70710678118654746 0.25 forward I I I I #
loop $-1 $-1 $211 $60 #
coedge $-1 $133 $133 $212 $213 reversed $83 $-1 #
face $-1 $214 $215 $47 $-1 $216 reversed single #
loop $-1 $-1 $217 $85 #
plane-surface $-1 68.84310910070792 13.448187436542515 134.13414617000291 0 -1 0 -0.80901700255871778 0 -0.5877852410284794 forward_v I I I I #
coedge $-1 $218 $219 $220 $221 reversed $86 $-1 #
face $-1 $-1 $222 $48 $-1 $223 forward single #
loop $-1 $224 $225 $88 #
cone-surface $-1 43.70978590526348 7.5779198076729699 4.2077026472933809 -0.80901700255871778 0 -0.5877852410284794 0.14694631025711985 0 -0.20225425063967944 1 I I -0.70710678118654746 0.70710678118654746 0.25 forward I I I I #
loop $-1 $-1 $226 $62 #
coedge $-1 $142 $142 $227 $228 reversed $89 $-1 #
face $-1 $-1 $229 $49 $-1 $230 forward single #
loop $-1 $231 $232 $91 #
cone-surface $-1 43.70978590526348 11.100080384994698 4.2077026472933809 -0.80901700255871778 0 -0.5877852410284794 0.14694631025711985 0 -0.20225425063967944 1 I I -0.70710678118654746 0.70710678118654746 0.25 forward I I I I #
loop $-1 $-1 $233 $63 #
coedge $-1 $147 $147 $234 $235 reversed $92 $-1 #
face $-1 $236 $237 $50 $-1 $238 reversed single #
loop $-1 $-1 $239 $94 #
plane-surface $-1 -47.726065858943443 1.1206254159164679 0.80639443127782329 -0.80901700255871778 0 0.5877852410284794 0.5877852410284794 0 0.80901700255871778 forward_v I I I I #
coedge $-1 $240 $241 $242 $243 reversed $95 $-1 #
face $-1 $-1 $244 $51 $-1 $245 forward single #
loop $-1 $246 $247 $97 #
cone-surface $-1 -43.709785905263473 -0.64045487274439594 4.2077026472933703 0.80901700255871778 0 -0.5877852410284794 0.14694631025711985 0 0.20225425063967944 1 I I -0.70710678118654746 0.70710678118654746 0.25 forward I I I I #
loop $-1 $-1 $248 $65 #
coedge $-1 $156 $156 $249 $250 reversed $98 $-1 #
face $-1 $-1 $251 $52 $-1 $252 forward single #
loop $-1 $253 $254 $100 #
cone-surface $-1 -43.709785905263473 2.8817057045773318 4.2077026472933703 0.80901700255871778 0 -0.5877852410284794 0.14694631025711985 0 0.20225425063967944 1 I I -0.70710678118654746 0.70710678118654746 0.25 forward I I I I #
loop $-1 $-1 $255 $66 #
coedge $-1 $161 $161 $256 $257 reversed $101 $-1 #
face $-1 $258 $259 $53 $-1 $260 forward single #
loop $-1 $-1 $261 $103 #
plane-surface $-1 -124.94846334918822 13.448187436542515 56.911748679758141 0 -1 0 0.80901700255871778 0 -0.5877852410284794 forward_v I I I I #
coedge $-1 $262 $263 $264 $265 reversed $104 $-1 #
face $-1 $-1 $266 $54 $-1 $267 forward single #
loop $-1 $268 $269 $106 #
cone-surface $-1 -43.709785905263473 7.5779198076729699 4.2077026472933703 0.80901700255871778 0 -0.5877852410284794 0.14694631025711985 0 0.20225425063967944 1 I I -0.70710678118654746 0.70710678118654746 0.25 forward I I I I #
loop $-1 $-1 $270 $68 #
coedge $-1 $170 $170 $271 $272 reversed $107 $-1 #
face $-1 $-1 $273 $55 $-1 $274 forward single #
loop $-1 $275 $276 $109 #
cone-surface $-1 -43.709785905263473 11.100080384994698 4.2077026472933703 0.80901700255871778 0 -0.5877852410284794 0.14694631025711985 0 0.20225425063967944 1 I I -0.70710678118654746 0.70710678118654746 0.25 forward I I I I #
loop $-1 $-1 $277 $69 #
coedge $-1 $175 $175 $278 $279 reversed $110 $-1 #
face $-1 $280 $281 $42 $-1 $282 reversed single #
loop $-1 $-1 $283 $112 #
plane-surface $-1 0 -24.577751411999373 0 0 1 0 0 0 1 forward_v I I I I #
coedge $-1 $284 $285 $286 $287 forward $113 $-1 #
coedge $-1 $288 $115 $289 $290 forward $71 $-1 #
coedge $-1 $115 $288 $291 $292 forward $71 $-1 #
coedge $-1 $293 $294 $115 $183 reversed $295 $-1 #
edge $-1 $296 -24.577751411999373 $297 24.577751411999373 $182 $298 forward 7 unknown #
face $-1 $299 $300 $43 $-1 $301 reversed single #
loop $-1 $-1 $302 $116 #
plane-surface $-1 -47.72606585894345 0 0 1 0 0 0 0 -1 forward_v I I I I #
coedge $-1 $303 $304 $305 $306 reversed $117 $-1 #
coedge $-1 $307 $119 $308 $309 reversed $74 $-1 #
coedge $-1 $119 $307 $303 $310 forward $74 $-1 #
coedge $-1 $305 $311 $119 $191 forward $312 $-1 #
edge $-1 $313 -14.903782084062261 $314 -4.4441565718119627 $190 $315 forward 7 unknown #
face $-1 $316 $317 $44 $-1 $318 reversed single #
loop $-1 $-1 $319 $120 #
plane-surface $-1 68.84310910070792 -2.9885619242922132 134.13414617000291 0 1 0 0.80901700255871778 0 0.5877852410284794 forward_v I I I I #
coedge $-1 $320 $321 $322 $323 reversed $121 $-1 #
coedge $-1 $197 $123 $324 $325 reversed $77 $-1 #
coedge $-1 $123 $196 $320 $326 reversed $77 $-1 #
coedge $-1 $322 $327 $123 $199 forward $328 $-1 #
edge $-1 $329 -13.30451130858949 $330 -7.2944939076263324 $198 $331 forward 7 unknown #
loop $-1 $-1 $205 $124 #
plane-surface $-1 -8.3792883895368533 1.1206254159164679 78.028791921522583 0.80901700255871778 0 0.5877852410284794 0.5877852410284794 0 -0.80901700255871778 forward_v I I I I #
loop $-1 $-1 $332 $79 #
coedge $-1 $203 $203 $204 $333 reversed $125 $-1 #
coedge $-1 $204 $204 $203 $333 forward $127 $-1 #
coedge $-1 $205 $205 $128 $206 forward $200 $-1 #
edge $-1 $334 0 $334 6.2831853071796004 $205 $335 forward 7 unknown #
loop $-1 $-1 $212 $129 #
plane-surface $-1 -8.3792883895368533 1.1206254159164679 78.028791921522583 0.80901700255871778 0 0.5877852410284794 0.5877852410284794 0 -0.80901700255871778 forward_v I I I I #
loop $-1 $-1 $336 $82 #
coedge $-1 $210 $210 $211 $337 reversed $130 $-1 #
coedge $-1 $211 $211 $210 $337 forward $132 $-1 #
coedge $-1 $212 $212 $133 $213 forward $207 $-1 #
edge $-1 $338 0 $338 6.2831853071796004 $212 $339 forward 7 unknown #
face $-1 $340 $341 $47 $-1 $342 forward single #
loop $-1 $-1 $343 $134 #
plane-surface $-1 47.72606585894345 0 0 -1 0 0 0 0 1 forward_v I I I I #
coedge $-1 $344 $345 $346 $347 reversed $135 $-1 #
coedge $-1 $348 $137 $349 $350 reversed $86 $-1 #
coedge $-1 $137 $348 $343 $351 reversed $86 $-1 #
coedge $-1 $352 $353 $137 $221 forward $341 $-1 #
edge $-1 $354 85.227279201265134 $355 95.452131717886886 $220 $356 forward 7 unknown #
loop $-1 $-1 $227 $138 #
plane-surface $-1 -8.3792883895368533 1.1206254159164679 78.028791921522583 0.80901700255871778 0 0.5877852410284794 0.5877852410284794 0 -0.80901700255871778 forward_v I I I I #
loop $-1 $-1 $357 $88 #
coedge $-1 $225 $225 $226 $358 reversed $139 $-1 #
coedge $-1 $226 $226 $225 $358 forward $141 $-1 #
coedge $-1 $227 $227 $142 $228 forward $222 $-1 #
edge $-1 $359 0 $359 6.2831853071796004 $227 $360 forward 7 unknown #
loop $-1 $-1 $234 $143 #
plane-surface $-1 -8.3792883895368533 1.1206254159164679 78.028791921522583 0.80901700255871778 0 0.5877852410284794 0.5877852410284794 0 -0.80901700255871778 forward_v I I I I #
loop $-1 $-1 $361 $91 #
coedge $-1 $232 $232 $233 $362 reversed $144 $-1 #
coedge $-1 $233 $233 $232 $362 forward $146 $-1 #
coedge $-1 $234 $234 $147 $235 forward $229 $-1 #
edge $-1 $363 0 $363 6.2831853071796004 $234 $364 forward 7 unknown #
face $-1 $365 $366 $50 $-1 $367 forward single #
loop $-1 $-1 $368 $148 #
plane-surface $-1 -124.94846334918822 5.2298127561251491 56.911748679758141 0 -1 0 0.80901700255871778 0 -0.5877852410284794 forward_v I I I I #
coedge $-1 $369 $370 $371 $372 reversed $149 $-1 #
coedge $-1 $241 $151 $373 $374 reversed $95 $-1 #
coedge $-1 $151 $240 $369 $375 reversed $95 $-1 #
coedge $-1 $371 $376 $151 $243 forward $366 $-1 #
edge $-1 $377 14.748165815650658 $378 20.758183216613823 $242 $379 forward 7 unknown #
loop $-1 $-1 $249 $152 #
plane-surface $-1 -47.726065858943443 1.1206254159164679 0.80639443127782329 -0.80901700255871778 0 0.5877852410284794 0.5877852410284794 0 0.80901700255871778 forward_v I I I I #
loop $-1 $-1 $380 $97 #
coedge $-1 $247 $247 $248 $381 reversed $153 $-1 #
coedge $-1 $248 $248 $247 $381 forward $155 $-1 #
coedge $-1 $249 $249 $156 $250 forward $244 $-1 #
edge $-1 $382 0 $382 6.2831853071796004 $249 $383 forward 7 unknown #
loop $-1 $-1 $256 $157 #
plane-surface $-1 -47.726065858943443 1.1206254159164679 0.80639443127782329 -0.80901700255871778 0 0.5877852410284794 0.5877852410284794 0 0.80901700255871778 forward_v I I I I #
loop $-1 $-1 $384 $100 #
coedge $-1 $254 $254 $255 $385 reversed $158 $-1 #
coedge $-1 $255 $255 $254 $385 forward $160 $-1 #
coedge $-1 $256 $256 $161 $257 forward $251 $-1 #
edge $-1 $386 0 $386 6.2831853071796004 $256 $387 forward 7 unknown #
face $-1 $388 $389 $53 $-1 $390 forward single #
loop $-1 $-1 $391 $162 #
plane-surface $-1 0 0 9.0784739658801001 0 0 1 1 0 0 forward_v I I I I #
coedge $-1 $392 $393 $394 $395 reversed $163 $-1 #
coedge $-1 $396 $165 $397 $398 reversed $104 $-1 #
coedge $-1 $165 $396 $391 $399 reversed $104 $-1 #
coedge $-1 $400 $401 $165 $265 forward $389 $-1 #
edge $-1 $402 -1.2080531203272332e-014 $403 10.224852516621732 $264 $404 forward 7 unknown #
loop $-1 $-1 $271 $166 #
plane-surface $-1 -47.726065858943443 1.1206254159164679 0.80639443127782329 -0.80901700255871778 0 0.5877852410284794 0.5877852410284794 0 0.80901700255871778 forward_v I I I I #
loop $-1 $-1 $405 $106 #
coedge $-1 $269 $269 $270 $406 reversed $167 $-1 #
coedge $-1 $270 $270 $269 $406 forward $169 $-1 #
coedge $-1 $271 $271 $170 $272 forward $266 $-1 #
edge $-1 $407 0 $407 6.2831853071796004 $271 $408 forward 7 unknown #
loop $-1 $-1 $278 $171 #
plane-surface $-1 -47.726065858943443 1.1206254159164679 0.80639443127782329 -0.80901700255871778 0 0.5877852410284794 0.5877852410284794 0 0.80901700255871778 forward_v I I I I #
loop $-1 $-1 $409 $109 #
coedge $-1 $276 $276 $277 $410 reversed $172 $-1 #
coedge $-1 $277 $277 $276 $410 forward $174 $-1 #
coedge $-1 $278 $278 $175 $279 forward $273 $-1 #
edge $-1 $411 0 $411 6.2831853071796004 $278 $412 forward 7 unknown #
face $-1 $413 $414 $42 $-1 $415 reversed single #
loop $-1 $-1 $416 $176 #
plane-surface $-1 -47.72606585894345 0 0 1 0 0 0 0 -1 forward_v I I I I #
coedge $-1 $417 $291 $418 $419 forward $177 $-1 #
coedge $-1 $420 $179 $417 $421 forward $113 $-1 #
coedge $-1 $179 $420 $422 $423 forward $113 $-1 #
coedge $-1 $294 $293 $179 $287 reversed $295 $-1 #
edge $-1 $424 -24.577751411999373 $425 24.577751411999373 $286 $426 forward 7 unknown #
coedge $-1 $181 $180 $427 $428 forward $71 $-1 #
coedge $-1 $429 $430 $180 $290 reversed $414 $-1 #
edge $-1 $297 -47.72606585894345 $431 47.72606585894345 $289 $432 forward 7 unknown #
coedge $-1 $283 $433 $181 $292 reversed $177 $-1 #
edge $-1 $434 -47.72606585894345 $296 47.72606585894345 $291 $435 forward 7 unknown #
coedge $-1 $286 $182 $433 $436 forward $295 $-1 #
coedge $-1 $182 $286 $429 $437 reversed $295 $-1 #
loop $-1 $-1 $293 $413 #
vertex $-1 $183 $438 #
vertex $-1 $183 $439 #
straight-curve $-1 47.72606585894345 0 9.0784739658801001 0 1 0 I I #
face $-1 $440 $441 $43 $-1 $442 forward single #
loop $-1 $-1 $308 $184 #
plane-surface $-1 0 -24.577751411999373 0 0 1 0 0 0 1 forward_v I I I I #
coedge $-1 $443 $444 $445 $446 forward $185 $-1 #
coedge $-1 $445 $187 $189 $310 reversed $117 $-1 #
coedge $-1 $187 $445 $447 $448 reversed $117 $-1 #
coedge $-1 $449 $190 $187 $306 forward $312 $-1 #
edge $-1 $314 1.887467573133331 $450 5.42316011954229 $305 $451 forward 7 unknown #
coedge $-1 $189 $188 $443 $452 reversed $74 $-1 #
coedge $-1 $453 $454 $188 $309 forward $300 $-1 #
edge $-1 $455 -47.72606585894345 $313 47.72606585894345 $308 $456 forward 7 unknown #
edge $-1 $457 -47.72606585894345 $314 47.72606585894345 $303 $458 forward 7 unknown #
coedge $-1 $190 $449 $453 $459 forward $312 $-1 #
loop $-1 $-1 $305 $440 #
vertex $-1 $309 $460 #
vertex $-1 $191 $461 #
straight-curve $-1 47.72606585894345 -9.6739693279371117 5.5427814194711411 0 1 0 I I #
face $-1 $-1 $328 $44 $-1 $462 forward single #
loop $-1 $-1 $463 $192 #
plane-surface $-1 47.72606585894345 0 0 -1 0 0 0 0 1 forward_v I I I I #
coedge $-1 $464 $465 $466 $467 reversed $193 $-1 #
coedge $-1 $468 $195 $197 $326 forward $121 $-1 #
coedge $-1 $195 $468 $464 $469 forward $121 $-1 #
coedge $-1 $466 $198 $195 $323 forward $328 $-1 #
edge $-1 $330 -4.6695000481669151 $470 3.5488746322504472 $322 $471 forward 7 unknown #
coedge $-1 $472 $473 $196 $325 forward $317 $-1 #
edge $-1 $474 -66.26067865372363 $329 -57.988599119121353 $324 $475 forward 7 unknown #
edge $-1 $330 85.227279201265134 $474 95.452131717886886 $197 $476 forward 7 unknown #
coedge $-1 $198 $466 $472 $477 forward $328 $-1 #
loop $-1 $-1 $466 $316 #
vertex $-1 $325 $478 #
vertex $-1 $199 $479 #
straight-curve $-1 34.42155455035396 5.2298127561251491 9.0784739658801001 -1 0 0 I I #
coedge $-1 $332 $332 $-1 $480 reversed $202 $-1 #
edge $-1 $481 0 $481 6.2831853071796004 $203 $482 forward 7 unknown #
vertex $-1 $206 $483 #
ellipse-curve $-1 44.721057158461861 -0.64045487274439594 4.9424341985789724 0.80901700255871778 0 0.5877852410284794 0.2938926205142397 0 -0.40450850127935889 1 I I #
coedge $-1 $336 $336 $-1 $484 reversed $209 $-1 #
edge $-1 $485 0 $485 6.2831853071796004 $210 $486 forward 7 unknown #
vertex $-1 $213 $487 #
ellipse-curve $-1 44.721057158461861 2.8817057045773318 4.9424341985789724 0.80901700255871778 0 0.5877852410284794 0.2938926205142397 0 -0.40450850127935889 1 I I #
face $-1 $-1 $488 $47 $-1 $489 forward single #
loop $-1 $-1 $353 $214 #
plane-surface $-1 68.84310910070792 5.2298127561251491 134.13414617000291 0 -1 0 -0.80901700255871778 0 -0.5877852410284794 forward_v I I I I #
coedge $-1 $346 $490 $219 $351 forward $215 $-1 #
coedge $-1 $345 $217 $348 $491 reversed $135 $-1 #
coedge $-1 $217 $344 $492 $493 reversed $135 $-1 #
coedge $-1 $494 $343 $217 $347 forward $215 $-1 #
edge $-1 $495 -66.26067865372363 $496 -57.988599119121353 $346 $497 forward 7 unknown #
coedge $-1 $219 $218 $344 $491 forward $86 $-1 #
coedge $-1 $498 $492 $218 $350 forward $488 $-1 #
edge $-1 $499 -12.887874728584281 $354 -4.6695000481669151 $349 $500 forward 7 unknown #
edge $-1 $355 4.6695000481669151 $495 12.887874728584281 $343 $501 forward 7 unknown #
coedge $-1 $353 $220 $490 $502 reversed $341 $-1 #
coedge $-1 $220 $352 $498 $503 reversed $341 $-1 #
vertex $-1 $350 $504 #
vertex $-1 $351 $505 #
straight-curve $-1 -8.3792883895368533 5.2298127561251491 78.028791921522583 0.5877852410284794 0 -0.80901700255871778 I I #
coedge $-1 $357 $357 $-1 $506 reversed $224 $-1 #
edge $-1 $507 0 $507 6.2831853071796004 $225 $508 forward 7 unknown #
vertex $-1 $228 $509 #
ellipse-curve $-1 44.721057158461861 7.5779198076729699 4.9424341985789724 0.80901700255871778 0 0.5877852410284794 0.2938926205142397 0 -0.40450850127935889 1 I I #
coedge $-1 $361 $361 $-1 $510 reversed $231 $-1 #
edge $-1 $511 0 $511 6.2831853071796004 $232 $512 forward 7 unknown #
vertex $-1 $235 $513 #
ellipse-curve $-1 44.721057158461861 11.100080384994698 4.9424341985789724 0.80901700255871778 0 0.5877852410284794 0.2938926205142397 0 -0.40450850127935889 1 I I #
face $-1 $-1 $514 $50 $-1 $515 reversed single #
loop $-1 $-1 $242 $236 #
plane-surface $-1 0 0 9.0784739658801001 0 0 1 1 0 0 forward_v I I I I #
coedge $-1 $516 $517 $518 $519 reversed $237 $-1 #
coedge $-1 $520 $239 $241 $375 forward $149 $-1 #
coedge $-1 $239 $520 $516 $521 forward $149 $-1 #
coedge $-1 $518 $242 $239 $372 forward $366 $-1 #
edge $-1 $378 -3.5488746322504472 $522 4.6695000481669151 $371 $523 forward 7 unknown #
coedge $-1 $524 $525 $240 $374 forward $514 $-1 #
edge $-1 $526 -27.649479908601258 $377 -19.37740037399897 $373 $527 forward 7 unknown #
edge $-1 $378 -10.224852516621732 $526 1.2080531203272332e-014 $241 $528 forward 7 unknown #
coedge $-1 $242 $518 $524 $529 forward $366 $-1 #
vertex $-1 $374 $530 #
vertex $-1 $243 $531 #
straight-curve $-1 -62.474231674594108 -2.9885619242922132 9.0784739658801001 1 0 0 I I #
coedge $-1 $380 $380 $-1 $532 reversed $246 $-1 #
edge $-1 $533 0 $533 6.2831853071796004 $247 $534 forward 7 unknown #
vertex $-1 $250 $535 #
ellipse-curve $-1 -44.721057158461861 -0.64045487274439594 4.9424341985789653 -0.80901700255871778 0 0.5877852410284794 0.2938926205142397 0 0.40450850127935889 1 I I #
coedge $-1 $384 $384 $-1 $536 reversed $253 $-1 #
edge $-1 $537 0 $537 6.2831853071796004 $254 $538 forward 7 unknown #
vertex $-1 $257 $539 #
ellipse-curve $-1 -44.721057158461861 2.8817057045773318 4.9424341985789653 -0.80901700255871778 0 0.5877852410284794 0.2938926205142397 0 0.40450850127935889 1 I I #
face $-1 $-1 $540 $53 $-1 $541 reversed single #
loop $-1 $-1 $400 $258 #
plane-surface $-1 -124.94846334918822 5.2298127561251491 56.911748679758141 0 -1 0 0.80901700255871778 0 -0.5877852410284794 forward_v I I I I #
coedge $-1 $394 $542 $263 $399 forward $259 $-1 #
coedge $-1 $393 $261 $396 $543 reversed $163 $-1 #
coedge $-1 $261 $392 $544 $545 reversed $163 $-1 #
coedge $-1 $546 $391 $261 $395 forward $259 $-1 #
edge $-1 $547 -20.758183216613823 $548 -14.748165815650658 $394 $549 forward 7 unknown #
coedge $-1 $263 $262 $392 $543 forward $104 $-1 #
coedge $-1 $550 $544 $262 $398 forward $540 $-1 #
edge $-1 $551 -12.887874728584281 $402 -4.6695000481669151 $397 $552 forward 7 unknown #
edge $-1 $403 4.6695000481669151 $547 12.887874728584281 $391 $553 forward 7 unknown #
coedge $-1 $401 $264 $542 $554 reversed $389 $-1 #
coedge $-1 $264 $400 $550 $555 reversed $389 $-1 #
vertex $-1 $398 $556 #
vertex $-1 $399 $557 #
straight-curve $-1 -47.726065858943443 5.2298127561251491 0.80639443127782329 0.5877852410284794 0 0.80901700255871778 I I #
coedge $-1 $405 $405 $-1 $558 reversed $268 $-1 #
edge $-1 $559 0 $559 6.2831853071796004 $269 $560 forward 7 unknown #
vertex $-1 $272 $561 #
ellipse-curve $-1 -44.721057158461861 7.5779198076729699 4.9424341985789653 -0.80901700255871778 0 0.5877852410284794 0.2938926205142397 0 0.40450850127935889 1 I I #
coedge $-1 $409 $409 $-1 $562 reversed $275 $-1 #
edge $-1 $563 0 $563 6.2831853071796004 $276 $564 forward 7 unknown #
vertex $-1 $279 $565 #
ellipse-curve $-1 -44.721057158461861 11.100080384994698 4.9424341985789653 -0.80901700255871778 0 0.5877852410284794 0.2938926205142397 0 0.40450850127935889 1 I I #
face $-1 $-1 $295 $42 $-1 $566 reversed single #
loop $-1 $-1 $429 $280 #
plane-surface $-1 0 24.577751411999373 0 0 -1 0 0 0 -1 forward_v I I I I #
coedge $-1 $567 $427 $430 $568 forward $281 $-1 #
coedge $-1 $433 $283 $284 $421 reversed $177 $-1 #
coedge $-1 $427 $567 $283 $419 reversed $281 $-1 #
edge $-1 $434 -9.0784739658801001 $569 9.0784739658801001 $418 $570 forward 7 unknown #
coedge $-1 $285 $284 $567 $571 forward $113 $-1 #
edge $-1 $425 -47.72606585894345 $569 47.72606585894345 $417 $572 forward 7 unknown #
coedge $-1 $430 $429 $285 $423 reversed $414 $-1 #
edge $-1 $573 -47.72606585894345 $424 47.72606585894345 $422 $574 forward 7 unknown #
vertex $-1 $287 $575 #
vertex $-1 $436 $576 #
straight-curve $-1 47.72606585894345 0 -9.0784739658801001 0 -1 0 I I #
coedge $-1 $416 $418 $288 $428 reversed $281 $-1 #
edge $-1 $431 -24.577751411999373 $434 24.577751411999373 $427 $577 forward 7 unknown #
coedge $-1 $422 $289 $294 $437 forward $414 $-1 #
coedge $-1 $289 $422 $416 $568 reversed $414 $-1 #
vertex $-1 $290 $578 #
straight-curve $-1 0 24.577751411999373 9.0784739658801001 -1 0 0 I I #
coedge $-1 $291 $417 $293 $436 reversed $177 $-1 #
vertex $-1 $428 $579 #
straight-curve $-1 0 -24.577751411999373 9.0784739658801001 1 0 0 I I #
edge $-1 $296 -9.0784739658801001 $425 9.0784739658801001 $293 $580 forward 7 unknown #
edge $-1 $297 -9.0784739658801001 $424 9.0784739658801001 $294 $581 forward 7 unknown #
point $-1 47.72606585894345 -24.577751411999373 9.0784739658801001 #
point $-1 47.72606585894345 24.577751411999373 9.0784739658801001 #
face $-1 $-1 $312 $43 $-1 $582 reversed single #
loop $-1 $-1 $447 $299 #
plane-surface $-1 0 0 9.0784739658801001 0 0 1 1 0 0 forward_v I I I I #
coedge $-1 $583 $302 $307 $452 forward $185 $-1 #
coedge $-1 $302 $583 $584 $585 reversed $185 $-1 #
coedge $-1 $304 $303 $302 $446 reversed $117 $-1 #
edge $-1 $586 -5.42316011954229 $457 -1.887467573133331 $302 $587 forward 7 unknown #
coedge $-1 $584 $588 $304 $448 forward $441 $-1 #
edge $-1 $450 -47.72606585894345 $586 47.72606585894345 $447 $589 forward 7 unknown #
coedge $-1 $311 $305 $588 $590 reversed $312 $-1 #
vertex $-1 $306 $591 #
straight-curve $-1 47.72606585894345 -14.118125899749074 3.6553138463378101 0 0 1 I I #
edge $-1 $457 4.4441565718119627 $455 14.903782084062261 $443 $592 forward 7 unknown #
coedge $-1 $593 $308 $311 $459 reversed $300 $-1 #
coedge $-1 $308 $593 $583 $594 forward $300 $-1 #
vertex $-1 $309 $595 #
straight-curve $-1 0 -24.577751411999373 5.5427814194711411 1 0 0 I I #
vertex $-1 $452 $596 #
straight-curve $-1 0 -14.118125899749074 5.5427814194711411 1 0 0 I I #
edge $-1 $597 -9.0784739658801001 $313 -5.5427814194711411 $311 $598 forward 7 unknown #
point $-1 47.72606585894345 -24.577751411999373 5.5427814194711411 #
point $-1 47.72606585894345 -14.118125899749074 5.5427814194711411 #
plane-surface $-1 0 0 9.0784739658801001 0 0 1 1 0 0 forward_v I I I I #
coedge $-1 $473 $472 $465 $599 forward $317 $-1 #
coedge $-1 $465 $319 $321 $469 reversed $193 $-1 #
coedge $-1 $319 $464 $463 $599 reversed $193 $-1 #
coedge $-1 $327 $322 $319 $467 forward $328 $-1 #
edge $-1 $470 7.2944939076263324 $600 13.30451130858949 $466 $601 forward 7 unknown #
coedge $-1 $321 $320 $473 $602 reversed $121 $-1 #
edge $-1 $603 -95.452131717886886 $470 -85.227279201265134 $464 $604 forward 7 unknown #
vertex $-1 $323 $605 #
straight-curve $-1 41.716048457980285 0.56031270795823396 9.0784739658801072 0 -1 0 I I #
coedge $-1 $463 $324 $327 $477 reversed $317 $-1 #
coedge $-1 $324 $463 $468 $602 forward $317 $-1 #
vertex $-1 $325 $606 #
straight-curve $-1 47.72606585894345 5.2298127561251491 67.067073085001454 0 0 1 I I #
straight-curve $-1 -8.3792883895368533 5.2298127561251491 78.028791921522583 0.5877852410284794 0 -0.80901700255871778 I I #
edge $-1 $600 -2.9885619242922132 $329 5.2298127561251491 $472 $607 forward 7 unknown #
point $-1 47.72606585894345 5.2298127561251491 9.0784739658801001 #
point $-1 41.716048457980293 5.2298127561251491 9.0784739658801072 #
edge $-1 $608 1 $608 0 $332 $-1 forward 7 unknown #
vertex $-1 $333 $609 #
ellipse-curve $-1 43.912040155903156 -0.64045487274439594 4.3546489575505012 0.80901700255871778 0 0.5877852410284794 0.2938926205142397 0 -0.40450850127935889 1 I I #
point $-1 45.014949778976117 -0.64045487274439594 4.5379256972996211 #
edge $-1 $610 1 $610 0 $336 $-1 forward 7 unknown #
vertex $-1 $337 $611 #
ellipse-curve $-1 43.912040155903156 2.8817057045773318 4.3546489575505012 0.80901700255871778 0 0.5877852410284794 0.2938926205142397 0 -0.40450850127935889 1 I I #
point $-1 45.014949778976117 2.8817057045773318 4.5379256972996211 #
loop $-1 $-1 $349 $340 #
plane-surface $-1 0 0 9.0784739658801001 0 0 1 1 0 0 forward_v I I I I #
coedge $-1 $343 $494 $352 $502 forward $215 $-1 #
edge $-1 $499 85.227279201265134 $495 95.452131717886886 $344 $612 forward 7 unknown #
coedge $-1 $349 $613 $345 $493 forward $488 $-1 #
edge $-1 $496 -13.30451130858949 $499 -7.2944939076263324 $492 $614 forward 7 unknown #
coedge $-1 $490 $346 $613 $615 reversed $215 $-1 #
vertex $-1 $347 $616 #
vertex $-1 $347 $617 #
straight-curve $-1 47.72606585894345 13.448187436542515 67.067073085001454 0 0 1 I I #
coedge $-1 $613 $349 $353 $503 forward $488 $-1 #
vertex $-1 $493 $618 #
straight-curve $-1 41.716048457980285 0.56031270795823396 9.0784739658801072 0 -1 0 I I #
straight-curve $-1 47.726065858943457 0.56031270795823396 0.80639443127782329 0 1 0 I I #
edge $-1 $619 57.988599119121353 $355 66.26067865372363 $490 $620 forward 7 unknown #
edge $-1 $354 7.2944939076263324 $619 13.30451130858949 $498 $621 forward 7 unknown #
point $-1 41.716048457980293 5.2298127561251491 9.0784739658801072 #
point $-1 47.72606585894345 5.2298127561251491 0.80639443127782329 #
edge $-1 $622 1 $622 0 $357 $-1 forward 7 unknown #
vertex $-1 $358 $623 #
ellipse-curve $-1 43.912040155903156 7.5779198076729699 4.3546489575505012 0.80901700255871778 0 0.5877852410284794 0.2938926205142397 0 -0.40450850127935889 1 I I #
point $-1 45.014949778976117 7.5779198076729699 4.5379256972996211 #
edge $-1 $624 1 $624 0 $361 $-1 forward 7 unknown #
vertex $-1 $362 $625 #
ellipse-curve $-1 43.912040155903156 11.100080384994698 4.3546489575505012 0.80901700255871778 0 0.5877852410284794 0.2938926205142397 0 -0.40450850127935889 1 I I #
point $-1 45.014949778976117 11.100080384994698 4.5379256972996211 #
loop $-1 $-1 $373 $365 #
plane-surface $-1 -47.72606585894345 0 0 1 0 0 0 0 -1 forward_v I I I I #
coedge $-1 $517 $368 $370 $521 reversed $237 $-1 #
coedge $-1 $368 $516 $626 $627 reversed $237 $-1 #
coedge $-1 $376 $371 $368 $519 forward $366 $-1 #
edge $-1 $522 -20.758183216613823 $628 -14.748165815650658 $518 $629 forward 7 unknown #
coedge $-1 $370 $369 $525 $630 reversed $149 $-1 #
edge $-1 $631 -1.2080531203272332e-014 $522 10.224852516621732 $516 $632 forward 7 unknown #
vertex $-1 $372 $633 #
straight-curve $-1 -41.716048457980285 0.56031270795823396 9.0784739658801001 0 1 0 I I #
coedge $-1 $626 $373 $376 $529 reversed $514 $-1 #
coedge $-1 $373 $626 $520 $630 forward $514 $-1 #
vertex $-1 $374 $634 #
straight-curve $-1 -47.72606585894345 -2.9885619242922132 28.45587433987907 0 0 1 I I #
straight-curve $-1 -47.726065858943443 -2.9885619242922132 0.80639443127782329 -0.5877852410284794 0 -0.80901700255871778 I I #
edge $-1 $628 -5.2298127561251491 $377 2.9885619242922132 $524 $635 forward 7 unknown #
point $-1 -47.72606585894345 -2.9885619242922132 9.0784739658801001 #
point $-1 -41.716048457980285 -2.9885619242922132 9.0784739658801001 #
edge $-1 $636 1 $636 0 $380 $-1 forward 7 unknown #
vertex $-1 $381 $637 #
ellipse-curve $-1 -43.912040155903149 -0.64045487274439594 4.3546489575504905 -0.80901700255871778 0 0.5877852410284794 0.2938926205142397 0 0.40450850127935889 1 I I #
point $-1 -44.427164537947633 -0.64045487274439594 5.346942699858328 #
edge $-1 $638 1 $638 0 $384 $-1 forward 7 unknown #
vertex $-1 $385 $639 #
ellipse-curve $-1 -43.912040155903149 2.8817057045773318 4.3546489575504905 -0.80901700255871778 0 0.5877852410284794 0.2938926205142397 0 0.40450850127935889 1 I I #
point $-1 -44.427164537947633 2.8817057045773318 5.346942699858328 #
loop $-1 $-1 $397 $388 #
plane-surface $-1 -47.72606585894345 0 0 1 0 0 0 0 -1 forward_v I I I I #
coedge $-1 $391 $546 $400 $554 forward $259 $-1 #
edge $-1 $551 -1.2080531203272332e-014 $547 10.224852516621732 $392 $640 forward 7 unknown #
coedge $-1 $397 $641 $393 $545 forward $540 $-1 #
edge $-1 $548 19.37740037399897 $551 27.649479908601258 $544 $642 forward 7 unknown #
coedge $-1 $542 $394 $641 $643 forward $259 $-1 #
vertex $-1 $395 $644 #
vertex $-1 $643 $645 #
straight-curve $-1 -62.474231674594108 13.448187436542515 9.0784739658801001 -1 0 0 I I #
coedge $-1 $641 $397 $401 $555 forward $540 $-1 #
vertex $-1 $545 $646 #
straight-curve $-1 -47.72606585894345 0.56031270795823396 0.80639443127780752 0 -1 0 I I #
straight-curve $-1 -41.716048457980285 0.56031270795823396 9.0784739658801001 0 1 0 I I #
edge $-1 $647 14.748165815650658 $403 20.758183216613823 $542 $648 forward 7 unknown #
edge $-1 $402 -27.649479908601258 $647 -19.37740037399897 $550 $649 forward 7 unknown #
point $-1 -47.72606585894345 5.2298127561251491 0.80639443127781352 #
point $-1 -41.716048457980285 5.2298127561251491 9.0784739658801001 #
edge $-1 $650 1 $650 0 $405 $-1 forward 7 unknown #
vertex $-1 $406 $651 #
ellipse-curve $-1 -43.912040155903149 7.5779198076729699 4.3546489575504905 -0.80901700255871778 0 0.5877852410284794 0.2938926205142397 0 0.40450850127935889 1 I I #
point $-1 -44.427164537947633 7.5779198076729699 5.346942699858328 #
edge $-1 $652 1 $652 0 $409 $-1 forward 7 unknown #
vertex $-1 $410 $653 #
ellipse-curve $-1 -43.912040155903149 11.100080384994698 4.3546489575504905 -0.80901700255871778 0 0.5877852410284794 0.2938926205142397 0 0.40450850127935889 1 I I #
point $-1 -44.427164537947633 11.100080384994698 5.346942699858328 #
plane-surface $-1 47.72606585894345 0 0 -1 0 0 0 0 1 forward_v I I I I #
coedge $-1 $418 $416 $420 $571 reversed $281 $-1 #
edge $-1 $431 -9.0784739658801001 $573 9.0784739658801001 $430 $654 forward 7 unknown #
vertex $-1 $571 $655 #
straight-curve $-1 -47.72606585894345 -24.577751411999373 0 0 0 -1 I I #
edge $-1 $569 -24.577751411999373 $573 24.577751411999373 $567 $656 forward 7 unknown #
straight-curve $-1 0 -24.577751411999373 -9.0784739658801001 -1 0 0 I I #
vertex $-1 $423 $657 #
straight-curve $-1 0 24.577751411999373 -9.0784739658801001 1 0 0 I I #
point $-1 47.72606585894345 24.577751411999373 -9.0784739658801001 #
point $-1 47.72606585894345 -24.577751411999373 -9.0784739658801001 #
straight-curve $-1 -47.72606585894345 0 9.0784739658801001 0 -1 0 I I #
point $-1 -47.72606585894345 24.577751411999373 9.0784739658801001 #
point $-1 -47.72606585894345 -24.577751411999373 9.0784739658801001 #
straight-curve $-1 47.72606585894345 -24.577751411999373 0 0 0 -1 I I #
straight-curve $-1 47.72606585894345 24.577751411999373 0 0 0 -1 I I #
plane-surface $-1 47.72606585894345 0 0 -1 0 0 0 0 1 forward_v I I I I #
coedge $-1 $444 $443 $454 $594 reversed $185 $-1 #
coedge $-1 $658 $447 $444 $585 forward $441 $-1 #
edge $-1 $586 14.118125899749074 $659 24.577751411999373 $444 $660 forward 7 unknown #
vertex $-1 $585 $661 #
straight-curve $-1 -47.72606585894345 -14.118125899749074 3.6553138463378101 0 0 -1 I I #
coedge $-1 $447 $658 $449 $590 forward $441 $-1 #
straight-curve $-1 0 -14.118125899749074 9.0784739658801001 -1 0 0 I I #
edge $-1 $597 -24.577751411999373 $450 -14.118125899749074 $449 $662 forward 7 unknown #
point $-1 47.72606585894345 -14.118125899749074 9.0784739658801001 #
straight-curve $-1 -47.72606585894345 -9.6739693279371117 5.5427814194711411 0 -1 0 I I #
coedge $-1 $454 $453 $658 $663 reversed $300 $-1 #
edge $-1 $659 -9.0784739658801001 $455 -5.5427814194711411 $583 $664 forward 7 unknown #
point $-1 -47.72606585894345 -24.577751411999373 5.5427814194711411 #
point $-1 -47.72606585894345 -14.118125899749074 5.5427814194711411 #
vertex $-1 $590 $665 #
straight-curve $-1 47.72606585894345 -24.577751411999373 0 0 0 -1 I I #
edge $-1 $600 57.988599119121353 $603 66.26067865372363 $463 $666 forward 7 unknown #
vertex $-1 $477 $667 #
straight-curve $-1 34.42155455035396 -2.9885619242922132 9.0784739658801001 1 0 0 I I #
edge $-1 $603 -3.5488746322504472 $474 4.6695000481669151 $473 $668 forward 7 unknown #
vertex $-1 $602 $669 #
straight-curve $-1 -8.3792883895368533 -2.9885619242922132 78.028791921522583 -0.5877852410284794 0 0.80901700255871778 I I #
point $-1 41.716048457980293 -2.9885619242922132 9.0784739658801072 #
point $-1 47.72606585894345 5.2298127561251491 0.80639443127782329 #
straight-curve $-1 47.72606585894345 0 9.0784739658801001 0 1 0 I I #
vertex $-1 $480 $670 #
point $-1 44.205932776417399 -0.64045487274439594 3.950140456271142 #
vertex $-1 $484 $671 #
point $-1 44.205932776417399 2.8817057045773318 3.950140456271142 #
straight-curve $-1 -8.3792883895368533 13.448187436542515 78.028791921522583 0.5877852410284794 0 -0.80901700255871778 I I #
coedge $-1 $492 $498 $494 $615 forward $488 $-1 #
straight-curve $-1 34.42155455035396 13.448187436542515 9.0784739658801001 -1 0 0 I I #
edge $-1 $619 5.2298127561251491 $496 13.448187436542515 $494 $672 forward 7 unknown #
point $-1 47.72606585894345 13.448187436542515 0.80639443127782329 #
point $-1 47.72606585894345 13.448187436542515 9.0784739658801001 #
point $-1 41.716048457980293 13.448187436542515 9.0784739658801072 #
vertex $-1 $615 $673 #
straight-curve $-1 47.72606585894345 5.2298127561251491 67.067073085001454 0 0 -1 I I #
straight-curve $-1 34.42155455035396 5.2298127561251491 9.0784739658801001 1 0 0 I I #
vertex $-1 $506 $674 #
point $-1 44.205932776417399 7.5779198076729699 3.950140456271142 #
vertex $-1 $510 $675 #
point $-1 44.205932776417399 11.100080384994698 3.950140456271142 #
coedge $-1 $525 $524 $517 $627 forward $514 $-1 #
edge $-1 $628 19.37740037399897 $631 27.649479908601258 $626 $676 forward 7 unknown #
vertex $-1 $529 $677 #
straight-curve $-1 -62.474231674594108 5.2298127561251491 9.0784739658801001 -1 0 0 I I #
edge $-1 $631 -4.6695000481669151 $526 3.5488746322504472 $525 $678 forward 7 unknown #
vertex $-1 $630 $679 #
straight-curve $-1 -47.726065858943443 5.2298127561251491 0.80639443127782329 0.5877852410284794 0 0.80901700255871778 I I #
point $-1 -41.716048457980285 5.2298127561251491 9.0784739658801001 #
point $-1 -47.72606585894345 -2.9885619242922132 0.80639443127781352 #
straight-curve $-1 -47.72606585894345 0 9.0784739658801001 0 -1 0 I I #
vertex $-1 $532 $680 #
point $-1 -43.618147535388914 -0.64045487274439594 4.7591574588298489 #
vertex $-1 $536 $681 #
point $-1 -43.618147535388914 2.8817057045773318 4.7591574588298489 #
straight-curve $-1 -47.726065858943443 13.448187436542515 0.80639443127782329 0.5877852410284794 0 0.80901700255871778 I I #
coedge $-1 $544 $550 $546 $643 reversed $540 $-1 #
straight-curve $-1 -47.72606585894345 13.448187436542515 28.45587433987907 0 0 -1 I I #
edge $-1 $548 -13.448187436542515 $647 -5.2298127561251491 $641 $682 forward 7 unknown #
point $-1 -41.716048457980285 13.448187436542515 9.0784739658801001 #
point $-1 -47.72606585894345 13.448187436542515 9.0784739658801001 #
point $-1 -47.72606585894345 13.448187436542515 0.80639443127781352 #
vertex $-1 $555 $683 #
straight-curve $-1 -62.474231674594108 5.2298127561251491 9.0784739658801001 1 0 0 I I #
straight-curve $-1 -47.72606585894345 5.2298127561251491 28.45587433987907 0 0 1 I I #
vertex $-1 $558 $684 #
point $-1 -43.618147535388914 7.5779198076729699 4.7591574588298489 #
vertex $-1 $562 $685 #
point $-1 -43.618147535388914 11.100080384994698 4.7591574588298489 #
straight-curve $-1 -47.72606585894345 24.577751411999373 0 0 0 -1 I I #
point $-1 -47.72606585894345 -24.577751411999373 -9.0784739658801001 #
straight-curve $-1 -47.72606585894345 0 -9.0784739658801001 0 1 0 I I #
point $-1 -47.72606585894345 24.577751411999373 -9.0784739658801001 #
coedge $-1 $588 $584 $593 $663 forward $441 $-1 #
vertex $-1 $585 $686 #
straight-curve $-1 -47.72606585894345 0 9.0784739658801001 0 -1 0 I I #
point $-1 -47.72606585894345 -14.118125899749074 9.0784739658801001 #
straight-curve $-1 47.72606585894345 0 9.0784739658801001 0 1 0 I I #
edge $-1 $659 -47.72606585894345 $597 47.72606585894345 $593 $687 forward 7 unknown #
straight-curve $-1 -47.72606585894345 -24.577751411999373 0 0 0 -1 I I #
point $-1 47.72606585894345 -24.577751411999373 9.0784739658801001 #
straight-curve $-1 47.72606585894345 -2.9885619242922132 67.067073085001454 0 0 -1 I I #
point $-1 47.72606585894345 -2.9885619242922132 9.0784739658801001 #
straight-curve $-1 47.726065858943457 0.56031270795823396 0.80639443127782329 0 1 0 I I #
point $-1 47.72606585894345 -2.9885619242922132 0.80639443127782329 #
point $-1 43.507531654623804 -0.64045487274439594 4.0607563370362607 #
point $-1 43.507531654623804 2.8817057045773318 4.0607563370362607 #
straight-curve $-1 47.72606585894345 0 9.0784739658801001 0 1 0 I I #
point $-1 47.72606585894345 5.2298127561251491 9.0784739658801001 #
point $-1 43.507531654623804 7.5779198076729699 4.0607563370362607 #
point $-1 43.507531654623804 11.100080384994698 4.0607563370362607 #
straight-curve $-1 -47.72606585894345 5.2298127561251491 28.45587433987907 0 0 -1 I I #
point $-1 -47.72606585894345 5.2298127561251491 9.0784739658801001 #
straight-curve $-1 -47.72606585894345 0.56031270795823396 0.80639443127780752 0 -1 0 I I #
point $-1 -47.72606585894345 5.2298127561251491 0.80639443127781352 #
point $-1 -43.507531654623797 -0.64045487274439594 4.0607563370362501 #
point $-1 -43.507531654623797 2.8817057045773318 4.0607563370362501 #
straight-curve $-1 -47.72606585894345 0 9.0784739658801001 0 -1 0 I I #
point $-1 -47.72606585894345 5.2298127561251491 9.0784739658801001 #
point $-1 -43.507531654623797 7.5779198076729699 4.0607563370362501 #
point $-1 -43.507531654623797 11.100080384994698 4.0607563370362501 #
point $-1 -47.72606585894345 -24.577751411999373 9.0784739658801001 #
straight-curve $-1 0 -24.577751411999373 9.0784739658801001 1 0 0 I I #
End-of-ACIS-data 