500 0 6 0           
7 Unknown 11 ACIS 5.0 NT 24 Thu Mar 25 16:20:21 1999 
-1 9.9999999999999995e-007 1e-010 
body $-1 $6 $-1 $7 #
body $-1 $8 $-1 $9 #
body $-1 $10 $-1 $11 #
body $-1 $12 $-1 $13 #
body $-1 $14 $-1 $15 #
body $-1 $16 $-1 $17 #
lump $-1 $-1 $18 $0 #
transform $-1 1 0 0 0 1 0 0 0 1 68.738670003357043 36.292389867613075 13.551802331192755 1 rotate no_reflect no_shear #
lump $-1 $-1 $19 $1 #
transform $-1 1 0 0 0 1 0 0 0 1 68.738670003357043 36.292389867613075 13.551802331192755 1 rotate no_reflect no_shear #
lump $-1 $-1 $20 $2 #
transform $-1 1 0 0 0 1 0 0 0 1 68.738670003357043 36.292389867613075 13.551802331192755 1 rotate no_reflect no_shear #
lump $-1 $-1 $21 $3 #
transform $-1 1 0 0 0 1 0 0 0 1 68.738670003357043 36.292389867613075 13.551802331192755 1 rotate no_reflect no_shear #
lump $-1 $-1 $22 $4 #
transform $-1 1 0 0 0 1 0 0 0 1 68.738670003357043 36.292389867613075 13.551802331192755 1 rotate no_reflect no_shear #
lump $-1 $-1 $23 $5 #
transform $-1 1 0 0 0 1 0 0 0 1 68.738670003357043 36.292389867613075 13.551802331192755 1 rotate no_reflect no_shear #
shell $-1 $-1 $-1 $24 $-1 $6 #
shell $-1 $-1 $-1 $25 $-1 $8 #
shell $-1 $-1 $-1 $26 $-1 $10 #
shell $-1 $-1 $-1 $27 $-1 $12 #
shell $-1 $-1 $-1 $28 $-1 $14 #
shell $-1 $-1 $-1 $29 $-1 $16 #
face $-1 $30 $31 $18 $-1 $32 forward single #
face $-1 $33 $34 $19 $-1 $35 reversed single #
face $-1 $36 $37 $20 $-1 $38 reversed single #
face $-1 $39 $40 $21 $-1 $41 forward single #
face $-1 $42 $43 $22 $-1 $44 reversed single #
face $-1 $45 $46 $23 $-1 $47 forward single #
face $-1 $48 $49 $18 $-1 $50 reversed single #
loop $-1 $-1 $51 $24 #
plane-surface $-1 0 0 13.551802331192755 0 0 1 1 0 0 forward_v I I I I #
face $-1 $52 $53 $19 $-1 $54 reversed single #
loop $-1 $-1 $55 $25 #
plane-surface $-1 -66.953161304996442 -28.802821931587314 0 1 0 0 0 0 -1 forward_v I I I I #
face $-1 $56 $57 $20 $-1 $58 reversed single #
loop $-1 $-1 $59 $26 #
plane-surface $-1 55.176456680022554 19.810157061432271 197.39825069627233 0 -1 0 -0.6560590369687036 0 -0.75470957328743171 forward_v I I I I #
face $-1 $60 $61 $21 $-1 $62 forward single #
loop $-1 $63 $64 $27 #
cone-surface $-1 60.897149612567659 12.553398329454737 6.1644362528171941 -0.6560590369687036 0 -0.75470957328743171 2.264128719862295 0 -1.9681771109061108 1 I I 0 1 3 forward I I I I #
face $-1 $65 $66 $22 $-1 $67 reversed single #
loop $-1 $-1 $68 $28 #
plane-surface $-1 -158.93192129318092 5.2966395974772027 107.20499940644845 0 1 0 -0.6560590369687036 0 0.75470957328743171 forward_v I I I I #
face $-1 $69 $70 $23 $-1 $71 forward single #
loop $-1 $72 $73 $29 #
cone-surface $-1 -60.897149612567681 12.553398329454737 6.164436252817187 0.6560590369687036 0 -0.75470957328743171 2.264128719862295 0 1.9681771109061108 1 I I 0 1 3 forward I I I I #
face $-1 $74 $75 $18 $-1 $76 reversed single #
loop $-1 $-1 $77 $30 #
plane-surface $-1 0 0 -13.551802331192755 0 0 1 1 0 0 forward_v I I I I #
coedge $-1 $78 $79 $80 $81 forward $31 $-1 #
face $-1 $82 $83 $19 $-1 $84 reversed single #
loop $-1 $-1 $85 $33 #
plane-surface $-1 -64.22373476351548 -21.313253995561553 0 0 -1 0 0 0 -1 forward_v I I I I #
coedge $-1 $86 $87 $88 $89 forward $34 $-1 #
face $-1 $90 $91 $20 $-1 $92 reversed single #
loop $-1 $-1 $93 $36 #
plane-surface $-1 -35.016794609801323 12.553398329454737 93.642786083113975 0.6560590369687036 0 0.75470957328743171 0.75470957328743171 0 -0.6560590369687036 forward_v I I I I #
coedge $-1 $94 $95 $96 $97 reversed $37 $-1 #
face $-1 $-1 $98 $21 $-1 $99 forward single #
loop $-1 $100 $101 $39 #
cone-surface $-1 57.882205250715145 12.553398329454737 2.6961395834618056 -0.6560590369687036 0 -0.75470957328743171 1.1320643599311475 0 -0.9840885554530554 1 I I -0.70710678118654757 0.70710678118654757 1.5 forward I I I I #
loop $-1 $-1 $102 $27 #
coedge $-1 $64 $64 $103 $104 reversed $40 $-1 #
face $-1 $105 $106 $22 $-1 $107 reversed single #
loop $-1 $-1 $108 $42 #
plane-surface $-1 -68.738670003357043 12.553398329454737 3.4495347932900984 -0.6560590369687036 0 0.75470957328743171 0.75470957328743171 0 0.6560590369687036 forward_v I I I I #
coedge $-1 $109 $110 $111 $112 reversed $43 $-1 #
face $-1 $-1 $113 $23 $-1 $114 forward single #
loop $-1 $115 $116 $45 #
cone-surface $-1 -57.882205250715167 12.553398329454737 2.6961395834617985 0.6560590369687036 0 -0.75470957328743171 1.1320643599311475 0 0.9840885554530554 1 I I -0.70710678118654757 0.70710678118654757 1.5 forward I I I I #
loop $-1 $-1 $117 $29 #
coedge $-1 $73 $73 $118 $119 reversed $46 $-1 #
face $-1 $120 $121 $18 $-1 $122 reversed single #
loop $-1 $-1 $123 $48 #
plane-surface $-1 0 -36.292389867613075 0 0 1 0 0 0 1 forward_v I I I I #
coedge $-1 $124 $125 $126 $127 forward $49 $-1 #
coedge $-1 $128 $51 $129 $130 forward $31 $-1 #
coedge $-1 $51 $128 $131 $132 forward $31 $-1 #
coedge $-1 $133 $134 $51 $81 reversed $135 $-1 #
edge $-1 $136 -36.292389867613075 $137 36.292389867613075 $80 $138 forward 7 unknown #
face $-1 $139 $140 $19 $-1 $141 forward single #
loop $-1 $-1 $142 $52 #
plane-surface $-1 -61.494308222034519 -28.802821931587314 0 -1 0 0 0 0 1 forward_v I I I I #
coedge $-1 $143 $144 $145 $146 forward $53 $-1 #
coedge $-1 $147 $55 $148 $149 reversed $34 $-1 #
coedge $-1 $55 $147 $150 $151 reversed $34 $-1 #
coedge $-1 $144 $143 $55 $89 reversed $53 $-1 #
edge $-1 $152 -13.551802331192755 $153 13.551802331192755 $88 $154 forward 7 unknown #
face $-1 $155 $156 $20 $-1 $157 reversed single #
loop $-1 $-1 $158 $56 #
plane-surface $-1 55.176456680022554 5.2966395974772027 197.39825069627233 0 1 0 0.6560590369687036 0 0.75470957328743171 forward_v I I I I #
coedge $-1 $159 $160 $161 $162 reversed $57 $-1 #
coedge $-1 $95 $59 $163 $164 reversed $37 $-1 #
coedge $-1 $59 $94 $159 $165 reversed $37 $-1 #
coedge $-1 $161 $166 $59 $97 forward $167 $-1 #
edge $-1 $168 -41.150441663345767 $169 -29.529112494565943 $96 $170 forward 7 unknown #
loop $-1 $-1 $103 $60 #
plane-surface $-1 -35.016794609801323 12.553398329454737 93.642786083113975 0.6560590369687036 0 0.75470957328743171 0.75470957328743171 0 -0.6560590369687036 forward_v I I I I #
loop $-1 $-1 $171 $39 #
coedge $-1 $101 $101 $102 $172 reversed $61 $-1 #
coedge $-1 $102 $102 $101 $172 forward $63 $-1 #
coedge $-1 $103 $103 $64 $104 forward $98 $-1 #
edge $-1 $173 0 $173 6.2831853071796004 $103 $174 forward 7 unknown #
face $-1 $175 $176 $22 $-1 $177 reversed single #
loop $-1 $-1 $178 $65 #
plane-surface $-1 -158.93192129318092 19.810157061432271 107.20499940644845 0 -1 0 0.6560590369687036 0 -0.75470957328743171 forward_v I I I I #
coedge $-1 $179 $180 $181 $182 reversed $66 $-1 #
coedge $-1 $110 $68 $183 $184 reversed $43 $-1 #
coedge $-1 $68 $109 $179 $185 reversed $43 $-1 #
coedge $-1 $181 $186 $68 $112 forward $187 $-1 #
edge $-1 $188 10.727290643233417 $189 22.348619812013226 $111 $190 forward 7 unknown #
loop $-1 $-1 $118 $69 #
plane-surface $-1 -68.738670003357043 12.553398329454737 3.4495347932900984 -0.6560590369687036 0 0.75470957328743171 0.75470957328743171 0 0.6560590369687036 forward_v I I I I #
loop $-1 $-1 $191 $45 #
coedge $-1 $116 $116 $117 $192 reversed $70 $-1 #
coedge $-1 $117 $117 $116 $192 forward $72 $-1 #
coedge $-1 $118 $118 $73 $119 forward $113 $-1 #
edge $-1 $193 0 $193 6.2831853071796004 $118 $194 forward 7 unknown #
face $-1 $195 $196 $18 $-1 $197 reversed single #
loop $-1 $-1 $198 $74 #
plane-surface $-1 -68.738670003357043 0 0 1 0 0 0 0 -1 forward_v I I I I #
coedge $-1 $199 $131 $200 $201 forward $75 $-1 #
coedge $-1 $202 $77 $199 $203 forward $49 $-1 #
coedge $-1 $77 $202 $204 $205 forward $49 $-1 #
coedge $-1 $134 $133 $77 $127 reversed $135 $-1 #
edge $-1 $206 -36.292389867613075 $207 36.292389867613075 $126 $208 forward 7 unknown #
coedge $-1 $79 $78 $209 $210 forward $31 $-1 #
coedge $-1 $211 $212 $78 $130 reversed $196 $-1 #
edge $-1 $137 -68.738670003357043 $213 68.738670003357043 $129 $214 forward 7 unknown #
coedge $-1 $123 $215 $79 $132 reversed $75 $-1 #
edge $-1 $216 -68.738670003357043 $136 68.738670003357043 $131 $217 forward 7 unknown #
coedge $-1 $126 $80 $215 $218 forward $135 $-1 #
coedge $-1 $80 $126 $211 $219 reversed $135 $-1 #
loop $-1 $-1 $133 $195 #
vertex $-1 $81 $220 #
vertex $-1 $81 $221 #
straight-curve $-1 68.738670003357043 0 13.551802331192755 0 1 0 I I #
face $-1 $222 $223 $19 $-1 $224 reversed single #
loop $-1 $-1 $225 $82 #
plane-surface $-1 0 0 13.551802331192755 0 0 1 1 0 0 forward_v I I I I #
coedge $-1 $226 $227 $228 $229 reversed $83 $-1 #
coedge $-1 $88 $85 $230 $231 reversed $53 $-1 #
coedge $-1 $85 $88 $232 $233 reversed $53 $-1 #
coedge $-1 $227 $226 $85 $146 reversed $83 $-1 #
edge $-1 $234 -13.551802331192755 $235 13.551802331192755 $145 $236 forward 7 unknown #
coedge $-1 $87 $86 $237 $238 reversed $34 $-1 #
coedge $-1 $230 $239 $86 $149 forward $223 $-1 #
edge $-1 $240 -21.890978901819416 $153 -6.9118430297678959 $148 $241 forward 7 unknown #
coedge $-1 $242 $232 $87 $151 forward $140 $-1 #
edge $-1 $152 6.9118430297678959 $243 21.890978901819416 $150 $244 forward 7 unknown #
vertex $-1 $151 $245 #
vertex $-1 $149 $246 #
straight-curve $-1 -66.953161304996442 -21.313253995561553 0 0 0 -1 I I #
face $-1 $-1 $167 $20 $-1 $247 forward single #
loop $-1 $-1 $248 $90 #
plane-surface $-1 68.738670003357043 0 0 -1 0 0 0 0 1 forward_v I I I I #
coedge $-1 $249 $250 $251 $252 reversed $91 $-1 #
coedge $-1 $253 $93 $95 $165 forward $57 $-1 #
coedge $-1 $93 $253 $249 $254 forward $57 $-1 #
coedge $-1 $251 $96 $93 $162 forward $167 $-1 #
edge $-1 $169 -13.533457896704903 $255 0.98005956725016574 $161 $256 forward 7 unknown #
coedge $-1 $257 $258 $94 $164 forward $156 $-1 #
edge $-1 $259 -95.24959055484608 $168 -85.147323016943403 $163 $260 forward 7 unknown #
edge $-1 $169 122.07892771659489 $259 137.47734000671414 $95 $261 forward 7 unknown #
coedge $-1 $96 $251 $257 $262 forward $167 $-1 #
loop $-1 $-1 $251 $155 #
vertex $-1 $164 $263 #
vertex $-1 $97 $264 #
straight-curve $-1 27.588228340011277 19.810157061432271 13.551802331192761 -1 0 0 I I #
coedge $-1 $171 $171 $-1 $265 reversed $100 $-1 #
edge $-1 $266 0 $266 6.2831853071796004 $101 $267 forward 7 unknown #
vertex $-1 $104 $268 #
ellipse-curve $-1 62.928005418967118 12.553398329454737 8.5006685622414402 0.6560590369687036 0 0.75470957328743171 2.264128719862295 0 -1.9681771109061108 1 I I #
face $-1 $-1 $187 $22 $-1 $269 forward single #
loop $-1 $-1 $270 $105 #
plane-surface $-1 -68.738670003357043 0 0 1 0 0 0 0 -1 forward_v I I I I #
coedge $-1 $271 $272 $273 $274 reversed $106 $-1 #
coedge $-1 $275 $108 $110 $185 forward $66 $-1 #
coedge $-1 $108 $275 $271 $276 forward $66 $-1 #
coedge $-1 $273 $111 $108 $182 forward $187 $-1 #
edge $-1 $189 -0.98005956725016574 $277 13.533457896704903 $181 $278 forward 7 unknown #
coedge $-1 $279 $280 $109 $184 forward $176 $-1 #
edge $-1 $281 -50.152964909934127 $188 -40.050697372031472 $183 $282 forward 7 unknown #
edge $-1 $189 -15.398412290119207 $281 0 $110 $283 forward 7 unknown #
coedge $-1 $111 $273 $279 $284 forward $187 $-1 #
loop $-1 $-1 $273 $175 #
vertex $-1 $184 $285 #
vertex $-1 $112 $286 #
straight-curve $-1 -79.46596064659046 5.2966395974772027 13.551802331192754 1 0 0 I I #
coedge $-1 $191 $191 $-1 $287 reversed $115 $-1 #
edge $-1 $288 0 $288 6.2831853071796004 $116 $289 forward 7 unknown #
vertex $-1 $119 $290 #
ellipse-curve $-1 -62.928005418967139 12.553398329454737 8.500668562241426 -0.6560590369687036 0 0.75470957328743171 2.264128719862295 0 1.9681771109061108 1 I I #
face $-1 $-1 $135 $18 $-1 $291 reversed single #
loop $-1 $-1 $211 $120 #
plane-surface $-1 0 36.292389867613075 0 0 -1 0 0 0 -1 forward_v I I I I #
coedge $-1 $292 $209 $212 $293 forward $121 $-1 #
coedge $-1 $215 $123 $124 $203 reversed $75 $-1 #
coedge $-1 $209 $292 $123 $201 reversed $121 $-1 #
edge $-1 $216 -13.551802331192755 $294 13.551802331192755 $200 $295 forward 7 unknown #
coedge $-1 $125 $124 $292 $296 forward $49 $-1 #
edge $-1 $207 -68.738670003357043 $294 68.738670003357043 $199 $297 forward 7 unknown #
coedge $-1 $212 $211 $125 $205 reversed $196 $-1 #
edge $-1 $298 -68.738670003357043 $206 68.738670003357043 $204 $299 forward 7 unknown #
vertex $-1 $127 $300 #
vertex $-1 $218 $301 #
straight-curve $-1 68.738670003357043 0 -13.551802331192755 0 -1 0 I I #
coedge $-1 $198 $200 $128 $210 reversed $121 $-1 #
edge $-1 $213 -36.292389867613075 $216 36.292389867613075 $209 $302 forward 7 unknown #
coedge $-1 $204 $129 $134 $219 forward $196 $-1 #
coedge $-1 $129 $204 $198 $293 reversed $196 $-1 #
vertex $-1 $130 $303 #
straight-curve $-1 0 36.292389867613075 13.551802331192755 -1 0 0 I I #
coedge $-1 $131 $199 $133 $218 reversed $75 $-1 #
vertex $-1 $210 $304 #
straight-curve $-1 0 -36.292389867613075 13.551802331192755 1 0 0 I I #
edge $-1 $136 -13.551802331192755 $207 13.551802331192755 $133 $305 forward 7 unknown #
edge $-1 $137 -13.551802331192755 $206 13.551802331192755 $134 $306 forward 7 unknown #
point $-1 68.738670003357043 -36.292389867613075 13.551802331192755 #
point $-1 68.738670003357043 36.292389867613075 13.551802331192755 #
face $-1 $-1 $307 $19 $-1 $308 reversed single #
loop $-1 $-1 $309 $139 #
plane-surface $-1 0 0 -13.551802331192755 0 0 1 1 0 0 forward_v I I I I #
coedge $-1 $232 $242 $227 $310 forward $140 $-1 #
coedge $-1 $145 $142 $309 $311 reversed $83 $-1 #
coedge $-1 $142 $145 $225 $310 reversed $83 $-1 #
coedge $-1 $312 $313 $142 $229 forward $307 $-1 #
edge $-1 $314 -13.551802331192755 $315 13.551802331192755 $228 $316 forward 7 unknown #
coedge $-1 $309 $148 $143 $231 forward $223 $-1 #
edge $-1 $153 -34.841293923238702 $235 -29.382440840276779 $230 $317 forward 7 unknown #
coedge $-1 $150 $225 $144 $233 forward $140 $-1 #
edge $-1 $234 29.382440840276779 $152 34.841293923238702 $232 $318 forward 7 unknown #
vertex $-1 $233 $319 #
vertex $-1 $231 $320 #
straight-curve $-1 -61.494308222034519 -21.313253995561553 0 0 0 -1 I I #
coedge $-1 $313 $312 $147 $238 forward $307 $-1 #
edge $-1 $243 -13.551802331192755 $240 13.551802331192755 $237 $321 forward 7 unknown #
coedge $-1 $148 $309 $313 $322 forward $223 $-1 #
vertex $-1 $149 $323 #
straight-curve $-1 -66.953161304996442 -14.401410965793657 -13.551802331192755 0 1 0 I I #
coedge $-1 $225 $150 $312 $324 forward $140 $-1 #
vertex $-1 $324 $325 #
straight-curve $-1 -66.953161304996442 -14.401410965793657 13.551802331192755 0 -1 0 I I #
point $-1 -66.953161304996442 -21.313253995561553 13.551802331192755 #
point $-1 -66.953161304996442 -21.313253995561553 -13.551802331192755 #
plane-surface $-1 0 0 13.551802331192755 0 0 1 1 0 0 forward_v I I I I #
coedge $-1 $258 $257 $250 $326 forward $156 $-1 #
coedge $-1 $250 $158 $160 $254 reversed $91 $-1 #
coedge $-1 $158 $249 $248 $326 reversed $91 $-1 #
coedge $-1 $166 $161 $158 $252 forward $167 $-1 #
edge $-1 $255 29.529112494565943 $327 41.150441663345767 $251 $328 forward 7 unknown #
coedge $-1 $160 $159 $258 $329 reversed $57 $-1 #
edge $-1 $330 -137.47734000671414 $255 -122.07892771659489 $249 $331 forward 7 unknown #
vertex $-1 $162 $332 #
straight-curve $-1 57.117340834577213 6.2766991647273684 13.551802331192768 0 -1 0 I I #
coedge $-1 $248 $163 $166 $262 reversed $156 $-1 #
coedge $-1 $163 $248 $253 $329 forward $156 $-1 #
vertex $-1 $164 $333 #
straight-curve $-1 68.738670003357043 19.810157061432271 98.699125348136164 0 0 1 I I #
straight-curve $-1 -35.016794609801323 19.810157061432271 93.642786083113975 0.75470957328743171 0 -0.6560590369687036 I I #
edge $-1 $327 5.2966395974772027 $168 19.810157061432271 $257 $334 forward 7 unknown #
point $-1 68.738670003357043 19.810157061432271 13.551802331192755 #
point $-1 57.11734083457722 19.810157061432271 13.551802331192761 #
edge $-1 $335 1 $335 0 $171 $-1 forward 7 unknown #
vertex $-1 $172 $336 #
ellipse-curve $-1 58.866293806168201 12.553398329454737 3.8282039433929533 0.6560590369687036 0 0.75470957328743171 2.264128719862295 0 -1.9681771109061108 1 I I #
point $-1 65.192134138829417 12.553398329454737 6.5324914513353249 #
plane-surface $-1 0 0 13.551802331192755 0 0 1 1 0 0 forward_v I I I I #
coedge $-1 $280 $279 $272 $337 forward $176 $-1 #
coedge $-1 $272 $178 $180 $276 reversed $106 $-1 #
coedge $-1 $178 $271 $270 $337 reversed $106 $-1 #
coedge $-1 $186 $181 $178 $274 forward $187 $-1 #
edge $-1 $277 -22.348619812013226 $338 -10.727290643233417 $273 $339 forward 7 unknown #
coedge $-1 $180 $179 $280 $340 reversed $66 $-1 #
edge $-1 $341 0 $277 15.398412290119207 $271 $342 forward 7 unknown #
vertex $-1 $182 $343 #
straight-curve $-1 -57.117340834577234 6.2766991647273684 13.551802331192757 0 1 0 I I #
coedge $-1 $270 $183 $186 $284 reversed $176 $-1 #
coedge $-1 $183 $270 $275 $340 forward $176 $-1 #
vertex $-1 $184 $344 #
straight-curve $-1 -68.738670003357043 5.2966395974772027 53.602499703224225 0 0 1 I I #
straight-curve $-1 -68.738670003357043 5.2966395974772027 3.4495347932900984 -0.75470957328743171 0 -0.6560590369687036 I I #
edge $-1 $338 -19.810157061432271 $188 -5.2966395974772027 $279 $345 forward 7 unknown #
point $-1 -68.738670003357043 5.2966395974772027 13.551802331192755 #
point $-1 -57.117340834577234 5.2966395974772027 13.551802331192755 #
edge $-1 $346 1 $346 0 $191 $-1 forward 7 unknown #
vertex $-1 $192 $347 #
ellipse-curve $-1 -58.866293806168223 12.553398329454737 3.8282039433929462 -0.6560590369687036 0 0.75470957328743171 2.264128719862295 0 1.9681771109061108 1 I I #
point $-1 -60.663876699104847 12.553398329454737 10.468845673147539 #
plane-surface $-1 68.738670003357043 0 0 -1 0 0 0 0 1 forward_v I I I I #
coedge $-1 $200 $198 $202 $296 reversed $121 $-1 #
edge $-1 $213 -13.551802331192755 $298 13.551802331192755 $212 $348 forward 7 unknown #
vertex $-1 $296 $349 #
straight-curve $-1 -68.738670003357043 -36.292389867613075 0 0 0 -1 I I #
edge $-1 $294 -36.292389867613075 $298 36.292389867613075 $292 $350 forward 7 unknown #
straight-curve $-1 0 -36.292389867613075 -13.551802331192755 -1 0 0 I I #
vertex $-1 $205 $351 #
straight-curve $-1 0 36.292389867613075 -13.551802331192755 1 0 0 I I #
point $-1 68.738670003357043 36.292389867613075 -13.551802331192755 #
point $-1 68.738670003357043 -36.292389867613075 -13.551802331192755 #
straight-curve $-1 -68.738670003357043 0 13.551802331192755 0 -1 0 I I #
point $-1 -68.738670003357043 36.292389867613075 13.551802331192755 #
point $-1 -68.738670003357043 -36.292389867613075 13.551802331192755 #
straight-curve $-1 68.738670003357043 -36.292389867613075 0 0 0 -1 I I #
straight-curve $-1 68.738670003357043 36.292389867613075 0 0 0 -1 I I #
loop $-1 $-1 $228 $222 #
plane-surface $-1 0 -36.292389867613075 0 0 1 0 0 0 1 forward_v I I I I #
coedge $-1 $239 $230 $226 $311 forward $223 $-1 #
edge $-1 $315 -21.890978901819416 $234 -6.9118430297678959 $225 $352 forward 7 unknown #
edge $-1 $235 6.9118430297678959 $314 21.890978901819416 $309 $353 forward 7 unknown #
coedge $-1 $237 $228 $242 $324 reversed $307 $-1 #
coedge $-1 $228 $237 $239 $322 reversed $307 $-1 #
vertex $-1 $322 $354 #
vertex $-1 $229 $355 #
straight-curve $-1 -61.494308222034519 -36.292389867613075 0 0 0 1 I I #
straight-curve $-1 -32.11186738175774 -21.313253995561553 -13.551802331192755 1 0 0 I I #
straight-curve $-1 -32.11186738175774 -21.313253995561553 13.551802331192755 -1 0 0 I I #
point $-1 -61.494308222034519 -21.313253995561553 13.551802331192755 #
point $-1 -61.494308222034519 -21.313253995561553 -13.551802331192755 #
straight-curve $-1 -66.953161304996442 -36.292389867613075 0 0 0 -1 I I #
edge $-1 $314 61.494308222034519 $240 66.953161304996442 $313 $356 forward 7 unknown #
point $-1 -66.953161304996442 -36.292389867613075 -13.551802331192755 #
edge $-1 $243 -66.953161304996442 $315 -61.494308222034519 $312 $357 forward 7 unknown #
point $-1 -66.953161304996442 -36.292389867613075 13.551802331192755 #
edge $-1 $327 85.147323016943403 $330 95.24959055484608 $248 $358 forward 7 unknown #
vertex $-1 $262 $359 #
straight-curve $-1 27.588228340011277 5.2966395974772027 13.551802331192761 1 0 0 I I #
edge $-1 $330 -0.98005956725016574 $259 13.533457896704903 $258 $360 forward 7 unknown #
vertex $-1 $329 $361 #
straight-curve $-1 -35.016794609801323 5.2966395974772027 93.642786083113975 -0.75470957328743171 0 0.6560590369687036 I I #
point $-1 57.11734083457722 5.2966395974772027 13.551802331192761 #
point $-1 68.738670003357058 19.810157061432271 3.4495347932900842 #
straight-curve $-1 68.738670003357043 0 13.551802331192755 0 1 0 I I #
vertex $-1 $265 $362 #
point $-1 61.130422526030493 12.553398329454737 1.8600268324868423 #
edge $-1 $338 40.050697372031472 $341 50.152964909934127 $270 $363 forward 7 unknown #
vertex $-1 $284 $364 #
straight-curve $-1 -79.46596064659046 19.810157061432271 13.551802331192754 -1 0 0 I I #
edge $-1 $341 -13.533457896704903 $281 0.98005956725016574 $280 $365 forward 7 unknown #
vertex $-1 $340 $366 #
straight-curve $-1 -68.738670003357043 19.810157061432271 3.4495347932900984 0.75470957328743171 0 0.6560590369687036 I I #
point $-1 -57.117340834577234 19.810157061432271 13.551802331192755 #
point $-1 -68.738670003357043 5.2966395974772027 3.4495347932900984 #
straight-curve $-1 -68.738670003357043 0 13.551802331192755 0 -1 0 I I #
vertex $-1 $287 $367 #
point $-1 -56.602165086305931 12.553398329454737 5.796381054299057 #
straight-curve $-1 -68.738670003357043 36.292389867613075 0 0 0 -1 I I #
point $-1 -68.738670003357043 -36.292389867613075 -13.551802331192755 #
straight-curve $-1 -68.738670003357043 0 -13.551802331192755 0 1 0 I I #
point $-1 -68.738670003357043 36.292389867613075 -13.551802331192755 #
straight-curve $-1 -61.494308222034519 -14.401410965793657 13.551802331192755 0 1 0 I I #
straight-curve $-1 -61.494308222034519 -14.401410965793657 -13.551802331192755 0 -1 0 I I #
point $-1 -61.494308222034519 -36.292389867613075 -13.551802331192755 #
point $-1 -61.494308222034519 -36.292389867613075 13.551802331192755 #
straight-curve $-1 0 -36.292389867613075 -13.551802331192755 -1 0 0 I I #
straight-curve $-1 0 -36.292389867613075 13.551802331192755 1 0 0 I I #
straight-curve $-1 68.738670003357043 5.2966395974772027 98.699125348136164 0 0 -1 I I #
point $-1 68.738670003357043 5.2966395974772027 13.551802331192755 #
straight-curve $-1 68.738670003357043 6.2766991647273684 3.4495347932900842 0 1 0 I I #
point $-1 68.738670003357058 5.2966395974772027 3.4495347932900842 #
point $-1 56.89811669526209 12.553398329454737 1.5640752235306581 #
straight-curve $-1 -68.738670003357043 19.810157061432271 53.602499703224225 0 0 -1 I I #
point $-1 -68.738670003357043 19.810157061432271 13.551802331192755 #
straight-curve $-1 -68.738670003357043 6.2766991647273684 3.4495347932900993 0 -1 0 I I #
point $-1 -68.738670003357043 19.810157061432271 3.4495347932900984 #
point $-1 -56.898116695262111 12.553398329454737 1.564075223530651 #
End-of-ACIS-data 