500 0 6 0           
7 Unknown 11 ACIS 5.0 NT 24 Thu Mar 25 15:28:45 1999 
-1 9.9999999999999995e-007 1e-010 
body $-1 $6 $-1 $7 #
body $-1 $8 $-1 $9 #
body $-1 $10 $-1 $11 #
body $-1 $12 $-1 $13 #
body $-1 $14 $-1 $15 #
body $-1 $16 $-1 $17 #
lump $-1 $-1 $18 $0 #
transform $-1 1 0 0 0 1 0 0 0 1 62.940153202917571 40.623069674587924 14.277024761880995 1 rotate no_reflect no_shear #
lump $-1 $-1 $19 $1 #
transform $-1 1 0 0 0 1 0 0 0 1 62.940153202917571 40.623069674587924 14.277024761880995 1 rotate no_reflect no_shear #
lump $-1 $-1 $20 $2 #
transform $-1 1 0 0 0 1 0 0 0 1 62.940153202917571 40.623069674587924 14.277024761880995 1 rotate no_reflect no_shear #
lump $-1 $-1 $21 $3 #
transform $-1 1 0 0 0 1 0 0 0 1 62.940153202917571 40.623069674587924 14.277024761880995 1 rotate no_reflect no_shear #
lump $-1 $-1 $22 $4 #
transform $-1 1 0 0 0 1 0 0 0 1 62.940153202917571 40.623069674587924 14.277024761880995 1 rotate no_reflect no_shear #
lump $-1 $-1 $23 $5 #
transform $-1 1 0 0 0 1 0 0 0 1 62.940153202917571 40.623069674587924 14.277024761880995 1 rotate no_reflect no_shear #
shell $-1 $-1 $-1 $24 $-1 $6 #
shell $-1 $-1 $-1 $25 $-1 $8 #
shell $-1 $-1 $-1 $26 $-1 $10 #
shell $-1 $-1 $-1 $27 $-1 $12 #
shell $-1 $-1 $-1 $28 $-1 $14 #
shell $-1 $-1 $-1 $29 $-1 $16 #
face $-1 $30 $31 $18 $-1 $32 forward single #
face $-1 $33 $34 $19 $-1 $35 forward single #
face $-1 $36 $37 $20 $-1 $38 reversed single #
face $-1 $39 $40 $21 $-1 $41 forward single #
face $-1 $42 $43 $22 $-1 $44 reversed single #
face $-1 $45 $46 $23 $-1 $47 forward single #
face $-1 $48 $49 $18 $-1 $50 reversed single #
loop $-1 $-1 $51 $24 #
plane-surface $-1 0 0 14.277024761880995 0 0 1 1 0 0 forward_v I I I I #
face $-1 $52 $53 $19 $-1 $54 reversed single #
loop $-1 $-1 $55 $25 #
plane-surface $-1 0 -31.792916998319427 -9.9924794787155982 0 0 1 1 0 0 forward_v I I I I #
face $-1 $56 $57 $20 $-1 $58 reversed single #
loop $-1 $-1 $59 $26 #
plane-surface $-1 -159.37006346634672 -4.5181763444224465 83.926714878773851 0 1 0 -0.7660444514056185 0 0.64278759981090561 forward_v I I I I #
face $-1 $60 $61 $21 $-1 $62 forward single #
loop $-1 $63 $64 $27 #
cone-surface $-1 -55.678312158976013 2.1559881659230271 6.5169510255915952 0.7660444514056185 0 -0.64278759981090561 1.2855751996218112 0 1.532088902811237 1 I I 0 1 2 forward I I I I #
face $-1 $65 $66 $22 $-1 $67 reversed single #
loop $-1 $-1 $68 $28 #
plane-surface $-1 -62.940153202917571 2.15598816592302 3.012414860705718 -0.7660444514056185 0 0.64278759981090561 0.64278759981090561 0 0.7660444514056185 forward_v I I I I #
face $-1 $69 $70 $23 $-1 $71 forward single #
loop $-1 $72 $73 $29 #
cone-surface $-1 -55.678312158976013 15.50431718661396 6.5169510255915952 0.7660444514056185 0 -0.64278759981090561 1.2855751996218112 0 1.532088902811237 1 I I 0 1 2 forward I I I I #
face $-1 $74 $75 $18 $-1 $76 reversed single #
loop $-1 $-1 $77 $30 #
plane-surface $-1 0 0 -14.277024761880995 0 0 1 1 0 0 forward_v I I I I #
coedge $-1 $78 $79 $80 $81 forward $31 $-1 #
face $-1 $82 $83 $19 $-1 $84 reversed single #
loop $-1 $-1 $85 $33 #
plane-surface $-1 0 -22.96276432205093 -12.134752120298296 0 -1 0 0 0 -1 forward_v I I I I #
coedge $-1 $86 $87 $88 $89 reversed $34 $-1 #
face $-1 $90 $91 $20 $-1 $92 reversed single #
loop $-1 $-1 $93 $36 #
plane-surface $-1 -62.940153202917571 2.15598816592302 3.012414860705718 -0.7660444514056185 0 0.64278759981090561 0.64278759981090561 0 0.7660444514056185 forward_v I I I I #
coedge $-1 $94 $95 $96 $97 reversed $37 $-1 #
face $-1 $-1 $98 $21 $-1 $99 forward single #
loop $-1 $100 $101 $39 #
cone-surface $-1 -52.376491546610836 2.1559881659230271 3.7463946400789254 0.7660444514056185 0 -0.64278759981090561 0.64278759981090561 0 0.7660444514056185 1 I I -0.70710678118654746 0.70710678118654746 1 forward I I I I #
loop $-1 $-1 $102 $27 #
coedge $-1 $64 $64 $103 $104 reversed $40 $-1 #
face $-1 $105 $106 $22 $-1 $107 forward single #
loop $-1 $-1 $108 $42 #
plane-surface $-1 -159.37006346634672 22.17848169695942 83.926714878773851 0 -1 0 0.7660444514056185 0 -0.64278759981090561 forward_v I I I I #
coedge $-1 $109 $110 $111 $112 reversed $43 $-1 #
face $-1 $-1 $113 $23 $-1 $114 forward single #
loop $-1 $115 $116 $45 #
cone-surface $-1 -52.376491546610836 15.50431718661396 3.7463946400789254 0.7660444514056185 0 -0.64278759981090561 0.64278759981090561 0 0.7660444514056185 1 I I -0.70710678118654746 0.70710678118654746 1 forward I I I I #
loop $-1 $-1 $117 $29 #
coedge $-1 $73 $73 $118 $119 reversed $46 $-1 #
face $-1 $120 $121 $18 $-1 $122 reversed single #
loop $-1 $-1 $123 $48 #
plane-surface $-1 0 -40.623069674587924 0 0 1 0 0 0 1 forward_v I I I I #
coedge $-1 $124 $125 $126 $127 forward $49 $-1 #
coedge $-1 $128 $51 $129 $130 forward $31 $-1 #
coedge $-1 $51 $128 $131 $132 forward $31 $-1 #
coedge $-1 $133 $134 $51 $81 reversed $135 $-1 #
edge $-1 $136 -40.623069674587924 $137 40.623069674587924 $80 $138 forward 7 unknown #
face $-1 $139 $140 $19 $-1 $141 reversed single #
loop $-1 $-1 $142 $52 #
plane-surface $-1 0 0 -14.277024761880995 0 0 1 1 0 0 forward_v I I I I #
coedge $-1 $143 $144 $145 $146 reversed $53 $-1 #
coedge $-1 $147 $55 $144 $148 forward $34 $-1 #
coedge $-1 $55 $147 $149 $150 reversed $34 $-1 #
coedge $-1 $151 $145 $55 $89 forward $140 $-1 #
edge $-1 $152 7.0663058228912163 $153 24.726611175428211 $88 $154 forward 7 unknown #
face $-1 $155 $156 $20 $-1 $157 forward single #
loop $-1 $-1 $158 $56 #
plane-surface $-1 -159.37006346634672 8.8301526762684865 83.926714878773851 0 -1 0 0.7660444514056185 0 -0.64278759981090561 forward_v I I I I #
coedge $-1 $159 $160 $161 $162 reversed $57 $-1 #
coedge $-1 $95 $59 $163 $164 reversed $37 $-1 #
coedge $-1 $59 $94 $159 $165 reversed $37 $-1 #
coedge $-1 $161 $166 $59 $97 forward $156 $-1 #
edge $-1 $167 16.744878530255789 $168 26.197008296219806 $96 $169 forward 7 unknown #
loop $-1 $-1 $103 $60 #
plane-surface $-1 -62.940153202917571 2.15598816592302 3.012414860705718 -0.7660444514056185 0 0.64278759981090561 0.64278759981090561 0 0.7660444514056185 forward_v I I I I #
loop $-1 $-1 $170 $39 #
coedge $-1 $101 $101 $102 $171 reversed $61 $-1 #
coedge $-1 $102 $102 $101 $171 forward $63 $-1 #
coedge $-1 $103 $103 $64 $104 forward $98 $-1 #
edge $-1 $172 0 $172 6.2831853071796004 $103 $173 forward 7 unknown #
face $-1 $174 $175 $22 $-1 $176 forward single #
loop $-1 $-1 $177 $65 #
plane-surface $-1 0 0 14.277024761880995 0 0 1 1 0 0 forward_v I I I I #
coedge $-1 $178 $179 $180 $181 reversed $66 $-1 #
coedge $-1 $182 $68 $183 $184 reversed $43 $-1 #
coedge $-1 $68 $182 $177 $185 reversed $43 $-1 #
coedge $-1 $186 $187 $68 $112 forward $175 $-1 #
edge $-1 $188 0 $189 14.704903717409346 $111 $190 forward 7 unknown #
loop $-1 $-1 $118 $69 #
plane-surface $-1 -62.940153202917571 2.15598816592302 3.012414860705718 -0.7660444514056185 0 0.64278759981090561 0.64278759981090561 0 0.7660444514056185 forward_v I I I I #
loop $-1 $-1 $191 $45 #
coedge $-1 $116 $116 $117 $192 reversed $70 $-1 #
coedge $-1 $117 $117 $116 $192 forward $72 $-1 #
coedge $-1 $118 $118 $73 $119 forward $113 $-1 #
edge $-1 $193 0 $193 6.2831853071796004 $118 $194 forward 7 unknown #
face $-1 $195 $196 $18 $-1 $197 reversed single #
loop $-1 $-1 $198 $74 #
plane-surface $-1 -62.940153202917571 0 0 1 0 0 0 0 -1 forward_v I I I I #
coedge $-1 $199 $131 $200 $201 forward $75 $-1 #
coedge $-1 $202 $77 $199 $203 forward $49 $-1 #
coedge $-1 $77 $202 $204 $205 forward $49 $-1 #
coedge $-1 $134 $133 $77 $127 reversed $135 $-1 #
edge $-1 $206 -40.623069674587924 $207 40.623069674587924 $126 $208 forward 7 unknown #
coedge $-1 $79 $78 $209 $210 forward $31 $-1 #
coedge $-1 $211 $212 $78 $130 reversed $196 $-1 #
edge $-1 $137 -62.940153202917571 $213 62.940153202917571 $129 $214 forward 7 unknown #
coedge $-1 $123 $215 $79 $132 reversed $75 $-1 #
edge $-1 $216 -62.940153202917571 $136 62.940153202917571 $131 $217 forward 7 unknown #
coedge $-1 $126 $80 $215 $218 forward $135 $-1 #
coedge $-1 $80 $126 $211 $219 reversed $135 $-1 #
loop $-1 $-1 $133 $195 #
vertex $-1 $81 $220 #
vertex $-1 $81 $221 #
straight-curve $-1 62.940153202917571 0 14.277024761880995 0 1 0 I I #
face $-1 $222 $223 $19 $-1 $224 reversed single #
loop $-1 $-1 $145 $82 #
plane-surface $-1 62.940153202917571 0 0 -1 0 0 0 0 1 forward_v I I I I #
coedge $-1 $225 $226 $143 $227 forward $83 $-1 #
coedge $-1 $228 $85 $142 $227 reversed $53 $-1 #
coedge $-1 $85 $228 $86 $148 reversed $53 $-1 #
coedge $-1 $88 $229 $85 $146 forward $140 $-1 #
edge $-1 $230 -8.2096487017318474 $152 -3.92510341856645 $145 $231 forward 7 unknown #
coedge $-1 $87 $86 $232 $233 reversed $34 $-1 #
edge $-1 $152 -62.940153202917571 $234 62.940153202917571 $144 $235 forward 7 unknown #
coedge $-1 $236 $237 $87 $150 forward $223 $-1 #
edge $-1 $153 -62.940153202917571 $238 62.940153202917571 $149 $239 forward 7 unknown #
coedge $-1 $229 $88 $237 $240 forward $140 $-1 #
vertex $-1 $89 $241 #
vertex $-1 $240 $242 #
straight-curve $-1 62.940153202917571 -15.896458499159714 -9.9924794787155982 0 -1 0 I I #
face $-1 $-1 $243 $20 $-1 $244 reversed single #
loop $-1 $-1 $96 $90 #
plane-surface $-1 0 0 14.277024761880995 0 0 1 1 0 0 forward_v I I I I #
coedge $-1 $245 $246 $247 $248 reversed $91 $-1 #
coedge $-1 $249 $93 $95 $165 forward $57 $-1 #
coedge $-1 $93 $249 $245 $250 forward $57 $-1 #
coedge $-1 $247 $96 $93 $162 forward $156 $-1 #
edge $-1 $168 -5.5961704273839565 $251 7.7521585933069765 $161 $252 forward 7 unknown #
coedge $-1 $253 $254 $94 $164 forward $243 $-1 #
edge $-1 $255 -38.950942578681207 $167 -27.686332677505931 $163 $256 forward 7 unknown #
edge $-1 $168 -14.704903717409346 $255 0 $95 $257 forward 7 unknown #
coedge $-1 $96 $247 $253 $258 forward $156 $-1 #
vertex $-1 $164 $259 #
vertex $-1 $97 $260 #
straight-curve $-1 -79.685031733173361 -4.5181763444224465 14.277024761880995 1 0 0 I I #
coedge $-1 $170 $170 $-1 $261 reversed $100 $-1 #
edge $-1 $262 0 $262 6.2831853071796004 $101 $263 forward 7 unknown #
vertex $-1 $104 $264 #
ellipse-curve $-1 -58.214088319935563 2.1559881659230271 8.6447198112933545 -0.7660444514056185 0 0.64278759981090561 1.2855751996218112 0 1.532088902811237 1 I I #
face $-1 $-1 $265 $22 $-1 $266 reversed single #
loop $-1 $-1 $186 $105 #
plane-surface $-1 -159.37006346634672 8.8301526762684865 83.926714878773851 0 -1 0 0.7660444514056185 0 -0.64278759981090561 forward_v I I I I #
coedge $-1 $180 $267 $110 $185 forward $106 $-1 #
coedge $-1 $179 $108 $182 $268 reversed $66 $-1 #
coedge $-1 $108 $178 $269 $270 reversed $66 $-1 #
coedge $-1 $271 $177 $108 $181 forward $106 $-1 #
edge $-1 $272 -26.197008296219806 $273 -16.744878530255789 $180 $274 forward 7 unknown #
coedge $-1 $110 $109 $178 $268 forward $43 $-1 #
coedge $-1 $275 $269 $109 $184 forward $265 $-1 #
edge $-1 $276 -21.10048761399791 $188 -7.7521585933069765 $183 $277 forward 7 unknown #
edge $-1 $189 7.7521585933069765 $272 21.10048761399791 $177 $278 forward 7 unknown #
coedge $-1 $187 $111 $267 $279 reversed $175 $-1 #
coedge $-1 $111 $186 $275 $280 reversed $175 $-1 #
vertex $-1 $184 $281 #
vertex $-1 $185 $282 #
straight-curve $-1 -62.940153202917571 8.8301526762684865 3.012414860705718 0.64278759981090561 0 0.7660444514056185 I I #
coedge $-1 $191 $191 $-1 $283 reversed $115 $-1 #
edge $-1 $284 0 $284 6.2831853071796004 $116 $285 forward 7 unknown #
vertex $-1 $119 $286 #
ellipse-curve $-1 -58.214088319935563 15.50431718661396 8.6447198112933545 -0.7660444514056185 0 0.64278759981090561 1.2855751996218112 0 1.532088902811237 1 I I #
face $-1 $-1 $135 $18 $-1 $287 reversed single #
loop $-1 $-1 $211 $120 #
plane-surface $-1 0 40.623069674587924 0 0 -1 0 0 0 -1 forward_v I I I I #
coedge $-1 $288 $209 $212 $289 forward $121 $-1 #
coedge $-1 $215 $123 $124 $203 reversed $75 $-1 #
coedge $-1 $209 $288 $123 $201 reversed $121 $-1 #
edge $-1 $216 -14.277024761880995 $290 14.277024761880995 $200 $291 forward 7 unknown #
coedge $-1 $125 $124 $288 $292 forward $49 $-1 #
edge $-1 $207 -62.940153202917571 $290 62.940153202917571 $199 $293 forward 7 unknown #
coedge $-1 $212 $211 $125 $205 reversed $196 $-1 #
edge $-1 $294 -62.940153202917571 $206 62.940153202917571 $204 $295 forward 7 unknown #
vertex $-1 $127 $296 #
vertex $-1 $218 $297 #
straight-curve $-1 62.940153202917571 0 -14.277024761880995 0 -1 0 I I #
coedge $-1 $198 $200 $128 $210 reversed $121 $-1 #
edge $-1 $213 -40.623069674587924 $216 40.623069674587924 $209 $298 forward 7 unknown #
coedge $-1 $204 $129 $134 $219 forward $196 $-1 #
coedge $-1 $129 $204 $198 $289 reversed $196 $-1 #
vertex $-1 $130 $299 #
straight-curve $-1 0 40.623069674587924 14.277024761880995 -1 0 0 I I #
coedge $-1 $131 $199 $133 $218 reversed $75 $-1 #
vertex $-1 $210 $300 #
straight-curve $-1 0 -40.623069674587924 14.277024761880995 1 0 0 I I #
edge $-1 $136 -14.277024761880995 $207 14.277024761880995 $133 $301 forward 7 unknown #
edge $-1 $137 -14.277024761880995 $206 14.277024761880995 $134 $302 forward 7 unknown #
point $-1 62.940153202917571 -40.623069674587924 14.277024761880995 #
point $-1 62.940153202917571 40.623069674587924 14.277024761880995 #
face $-1 $-1 $303 $19 $-1 $304 reversed single #
loop $-1 $-1 $149 $139 #
plane-surface $-1 0 -40.623069674587924 0 0 1 0 0 0 1 forward_v I I I I #
coedge $-1 $305 $142 $229 $306 forward $83 $-1 #
coedge $-1 $142 $305 $307 $308 forward $83 $-1 #
edge $-1 $309 -62.940153202917571 $230 62.940153202917571 $142 $310 forward 7 unknown #
coedge $-1 $144 $143 $311 $312 reversed $53 $-1 #
coedge $-1 $145 $151 $225 $306 reversed $140 $-1 #
vertex $-1 $306 $313 #
straight-curve $-1 62.940153202917571 -22.96276432205093 -6.0673760601491482 0 0 1 I I #
coedge $-1 $311 $314 $147 $233 forward $303 $-1 #
edge $-1 $238 -24.726611175428211 $234 -7.0663058228912163 $232 $315 forward 7 unknown #
vertex $-1 $233 $316 #
straight-curve $-1 0 -22.96276432205093 -9.9924794787155982 -1 0 0 I I #
coedge $-1 $317 $149 $314 $318 forward $223 $-1 #
coedge $-1 $149 $317 $151 $240 reversed $223 $-1 #
vertex $-1 $318 $319 #
straight-curve $-1 0 -40.623069674587924 -9.9924794787155982 -1 0 0 I I #
edge $-1 $153 9.9924794787155982 $320 14.277024761880995 $151 $321 forward 7 unknown #
point $-1 62.940153202917571 -22.96276432205093 -9.9924794787155982 #
point $-1 62.940153202917571 -40.623069674587924 -9.9924794787155982 #
loop $-1 $-1 $163 $155 #
plane-surface $-1 -62.940153202917571 0 0 1 0 0 0 0 -1 forward_v I I I I #
coedge $-1 $246 $158 $160 $250 reversed $91 $-1 #
coedge $-1 $158 $245 $322 $323 reversed $91 $-1 #
coedge $-1 $166 $161 $158 $248 forward $156 $-1 #
edge $-1 $251 -26.197008296219806 $324 -16.744878530255789 $247 $325 forward 7 unknown #
coedge $-1 $160 $159 $254 $326 reversed $57 $-1 #
edge $-1 $327 0 $251 14.704903717409346 $245 $328 forward 7 unknown #
vertex $-1 $162 $329 #
straight-curve $-1 -53.488023436953561 1.07799408296151 14.277024761880995 0 1 0 I I #
coedge $-1 $322 $163 $166 $258 reversed $243 $-1 #
coedge $-1 $163 $322 $249 $326 forward $243 $-1 #
vertex $-1 $164 $330 #
straight-curve $-1 -62.940153202917571 -4.5181763444224465 41.963357439386925 0 0 1 I I #
straight-curve $-1 -62.940153202917571 -4.5181763444224465 3.012414860705718 -0.64278759981090561 0 -0.7660444514056185 I I #
edge $-1 $324 -8.8301526762684865 $167 4.5181763444224465 $253 $331 forward 7 unknown #
point $-1 -62.940153202917571 -4.5181763444224465 14.277024761880995 #
point $-1 -53.488023436953554 -4.5181763444224465 14.277024761880995 #
edge $-1 $332 1 $332 0 $170 $-1 forward 7 unknown #
vertex $-1 $171 $333 #
ellipse-curve $-1 -53.142535998016456 2.1559881659230271 4.3891822398898306 -0.7660444514056185 0 0.64278759981090561 1.2855751996218112 0 1.532088902811237 1 I I #
point $-1 -56.92851312031376 2.1559881659230271 10.176808714104595 #
loop $-1 $-1 $183 $174 #
plane-surface $-1 -62.940153202917571 0 0 1 0 0 0 0 -1 forward_v I I I I #
coedge $-1 $177 $271 $186 $279 forward $106 $-1 #
edge $-1 $276 0 $272 14.704903717409346 $178 $334 forward 7 unknown #
coedge $-1 $183 $335 $179 $270 forward $265 $-1 #
edge $-1 $273 27.686332677505931 $276 38.950942578681207 $269 $336 forward 7 unknown #
coedge $-1 $267 $180 $335 $337 forward $106 $-1 #
vertex $-1 $181 $338 #
vertex $-1 $337 $339 #
straight-curve $-1 -79.685031733173361 22.17848169695942 14.277024761880995 -1 0 0 I I #
coedge $-1 $335 $183 $187 $280 forward $265 $-1 #
vertex $-1 $270 $340 #
straight-curve $-1 -62.940153202917571 1.07799408296151 3.0124148607057188 0 -1 0 I I #
straight-curve $-1 -53.488023436953561 1.07799408296151 14.277024761880995 0 1 0 I I #
edge $-1 $341 16.744878530255789 $189 26.197008296219806 $267 $342 forward 7 unknown #
edge $-1 $188 -38.950942578681207 $341 -27.686332677505931 $275 $343 forward 7 unknown #
point $-1 -62.940153202917571 8.8301526762684865 3.012414860705718 #
point $-1 -53.488023436953554 8.8301526762684865 14.277024761880995 #
edge $-1 $344 1 $344 0 $191 $-1 forward 7 unknown #
vertex $-1 $192 $345 #
ellipse-curve $-1 -53.142535998016456 15.50431718661396 4.3891822398898306 -0.7660444514056185 0 0.64278759981090561 1.2855751996218112 0 1.532088902811237 1 I I #
point $-1 -56.92851312031376 15.50431718661396 10.176808714104595 #
plane-surface $-1 62.940153202917571 0 0 -1 0 0 0 0 1 forward_v I I I I #
coedge $-1 $200 $198 $202 $292 reversed $121 $-1 #
edge $-1 $213 -14.277024761880995 $294 14.277024761880995 $212 $346 forward 7 unknown #
vertex $-1 $292 $347 #
straight-curve $-1 -62.940153202917571 -40.623069674587924 0 0 0 -1 I I #
edge $-1 $290 -40.623069674587924 $294 40.623069674587924 $288 $348 forward 7 unknown #
straight-curve $-1 0 -40.623069674587924 -14.277024761880995 -1 0 0 I I #
vertex $-1 $205 $349 #
straight-curve $-1 0 40.623069674587924 -14.277024761880995 1 0 0 I I #
point $-1 62.940153202917571 40.623069674587924 -14.277024761880995 #
point $-1 62.940153202917571 -40.623069674587924 -14.277024761880995 #
straight-curve $-1 -62.940153202917571 0 14.277024761880995 0 -1 0 I I #
point $-1 -62.940153202917571 40.623069674587924 14.277024761880995 #
point $-1 -62.940153202917571 -40.623069674587924 14.277024761880995 #
straight-curve $-1 62.940153202917571 -40.623069674587924 0 0 0 -1 I I #
straight-curve $-1 62.940153202917571 40.623069674587924 0 0 0 -1 I I #
loop $-1 $-1 $311 $222 #
plane-surface $-1 -62.940153202917571 0 0 1 0 0 0 0 -1 forward_v I I I I #
coedge $-1 $226 $225 $317 $350 forward $83 $-1 #
edge $-1 $230 22.96276432205093 $320 40.623069674587924 $229 $351 forward 7 unknown #
coedge $-1 $314 $311 $226 $308 reversed $303 $-1 #
edge $-1 $352 -40.623069674587924 $309 -22.96276432205093 $307 $353 forward 7 unknown #
vertex $-1 $312 $354 #
straight-curve $-1 0 -22.96276432205093 -14.277024761880995 1 0 0 I I #
coedge $-1 $307 $232 $228 $312 forward $303 $-1 #
edge $-1 $234 3.92510341856645 $309 8.2096487017318474 $311 $355 forward 7 unknown #
point $-1 62.940153202917571 -22.96276432205093 -14.277024761880995 #
coedge $-1 $232 $307 $236 $318 reversed $303 $-1 #
straight-curve $-1 -62.940153202917571 -15.896458499159714 -9.9924794787155982 0 1 0 I I #
point $-1 -62.940153202917571 -22.96276432205093 -9.9924794787155982 #
coedge $-1 $237 $236 $305 $350 reversed $223 $-1 #
edge $-1 $238 9.9924794787155982 $352 14.277024761880995 $314 $356 forward 7 unknown #
point $-1 -62.940153202917571 -40.623069674587924 -9.9924794787155982 #
vertex $-1 $240 $357 #
straight-curve $-1 62.940153202917571 -40.623069674587924 0 0 0 -1 I I #
coedge $-1 $254 $253 $246 $323 forward $243 $-1 #
edge $-1 $324 27.686332677505931 $327 38.950942578681207 $322 $358 forward 7 unknown #
vertex $-1 $258 $359 #
straight-curve $-1 -79.685031733173361 8.8301526762684865 14.277024761880995 -1 0 0 I I #
edge $-1 $327 -7.7521585933069765 $255 5.5961704273839565 $254 $360 forward 7 unknown #
vertex $-1 $326 $361 #
straight-curve $-1 -62.940153202917571 8.8301526762684865 3.012414860705718 0.64278759981090561 0 0.7660444514056185 I I #
point $-1 -53.488023436953554 8.8301526762684865 14.277024761880995 #
point $-1 -62.940153202917571 -4.5181763444224465 3.012414860705718 #
straight-curve $-1 -62.940153202917571 0 14.277024761880995 0 -1 0 I I #
vertex $-1 $261 $362 #
point $-1 -51.856960798394645 2.1559881659230271 5.9212711427010678 #
straight-curve $-1 -62.940153202917571 22.17848169695942 3.012414860705718 0.64278759981090561 0 0.7660444514056185 I I #
coedge $-1 $269 $275 $271 $337 reversed $265 $-1 #
straight-curve $-1 -62.940153202917571 22.17848169695942 41.963357439386925 0 0 -1 I I #
edge $-1 $273 -22.17848169695942 $341 -8.8301526762684865 $335 $363 forward 7 unknown #
point $-1 -53.488023436953554 22.17848169695942 14.277024761880995 #
point $-1 -62.940153202917571 22.17848169695942 14.277024761880995 #
point $-1 -62.940153202917571 22.17848169695942 3.012414860705718 #
vertex $-1 $280 $364 #
straight-curve $-1 -79.685031733173361 8.8301526762684865 14.277024761880995 1 0 0 I I #
straight-curve $-1 -62.940153202917571 8.8301526762684865 41.963357439386925 0 0 1 I I #
vertex $-1 $283 $365 #
point $-1 -51.856960798394645 15.50431718661396 5.9212711427010678 #
straight-curve $-1 -62.940153202917571 40.623069674587924 0 0 0 -1 I I #
point $-1 -62.940153202917571 -40.623069674587924 -14.277024761880995 #
straight-curve $-1 -62.940153202917571 0 -14.277024761880995 0 1 0 I I #
point $-1 -62.940153202917571 40.623069674587924 -14.277024761880995 #
edge $-1 $320 -62.940153202917571 $352 62.940153202917571 $317 $366 forward 7 unknown #
straight-curve $-1 62.940153202917571 0 -14.277024761880995 0 -1 0 I I #
vertex $-1 $308 $367 #
straight-curve $-1 -62.940153202917571 0 -14.277024761880995 0 1 0 I I #
point $-1 -62.940153202917571 -22.96276432205093 -14.277024761880995 #
straight-curve $-1 -62.940153202917571 -22.96276432205093 -6.0673760601491482 0 0 -1 I I #
straight-curve $-1 -62.940153202917571 -40.623069674587924 0 0 0 -1 I I #
point $-1 62.940153202917571 -40.623069674587924 -14.277024761880995 #
straight-curve $-1 -62.940153202917571 8.8301526762684865 41.963357439386925 0 0 -1 I I #
point $-1 -62.940153202917571 8.8301526762684865 14.277024761880995 #
straight-curve $-1 -62.940153202917571 1.07799408296151 3.0124148607057188 0 -1 0 I I #
point $-1 -62.940153202917571 8.8301526762684865 3.012414860705718 #
point $-1 -51.610447095205217 2.1559881659230271 3.1036070402680198 #
straight-curve $-1 -62.940153202917571 0 14.277024761880995 0 -1 0 I I #
point $-1 -62.940153202917571 8.8301526762684865 14.277024761880995 #
point $-1 -51.610447095205217 15.50431718661396 3.1036070402680198 #
straight-curve $-1 0 -40.623069674587924 -14.277024761880995 -1 0 0 I I #
point $-1 -62.940153202917571 -40.623069674587924 -14.277024761880995 #
End-of-ACIS-data 