500 0 8 0           
7 Unknown 11 ACIS 5.0 NT 24 Fri Mar 26 02:28:07 1999 
-1 9.9999999999999995e-007 1e-010 
body $-1 $8 $-1 $9 #
body $-1 $10 $-1 $11 #
body $-1 $12 $-1 $13 #
body $-1 $14 $-1 $15 #
body $-1 $16 $-1 $17 #
body $-1 $18 $-1 $19 #
body $-1 $20 $-1 $21 #
body $-1 $22 $-1 $23 #
lump $-1 $-1 $24 $0 #
transform $-1 1 0 0 0 1 0 0 0 1 52.095095675527205 30.614752078221592 13.786215180364113 1 rotate no_reflect no_shear #
lump $-1 $-1 $25 $1 #
transform $-1 1 0 0 0 1 0 0 0 1 52.095095675527205 30.614752078221592 13.786215180364113 1 rotate no_reflect no_shear #
lump $-1 $-1 $26 $2 #
transform $-1 1 0 0 0 1 0 0 0 1 52.095095675527205 30.614752078221592 13.786215180364113 1 rotate no_reflect no_shear #
lump $-1 $-1 $27 $3 #
transform $-1 1 0 0 0 1 0 0 0 1 52.095095675527205 30.614752078221592 13.786215180364113 1 rotate no_reflect no_shear #
lump $-1 $-1 $28 $4 #
transform $-1 1 0 0 0 1 0 0 0 1 52.095095675527205 30.614752078221592 13.786215180364113 1 rotate no_reflect no_shear #
lump $-1 $-1 $29 $5 #
transform $-1 1 0 0 0 1 0 0 0 1 52.095095675527205 30.614752078221592 13.786215180364113 1 rotate no_reflect no_shear #
lump $-1 $-1 $30 $6 #
transform $-1 1 0 0 0 1 0 0 0 1 52.095095675527205 30.614752078221592 13.786215180364113 1 rotate no_reflect no_shear #
lump $-1 $-1 $31 $7 #
transform $-1 1 0 0 0 1 0 0 0 1 52.095095675527205 30.614752078221592 13.786215180364113 1 rotate no_reflect no_shear #
shell $-1 $-1 $-1 $32 $-1 $8 #
shell $-1 $-1 $-1 $33 $-1 $10 #
shell $-1 $-1 $-1 $34 $-1 $12 #
shell $-1 $-1 $-1 $35 $-1 $14 #
shell $-1 $-1 $-1 $36 $-1 $16 #
shell $-1 $-1 $-1 $37 $-1 $18 #
shell $-1 $-1 $-1 $38 $-1 $20 #
shell $-1 $-1 $-1 $39 $-1 $22 #
face $-1 $40 $41 $24 $-1 $42 forward single #
face $-1 $43 $44 $25 $-1 $45 forward single #
face $-1 $46 $47 $26 $-1 $48 reversed single #
face $-1 $49 $50 $27 $-1 $51 forward single #
face $-1 $52 $53 $28 $-1 $54 forward single #
face $-1 $55 $56 $29 $-1 $57 reversed single #
face $-1 $58 $59 $30 $-1 $60 forward single #
face $-1 $61 $62 $31 $-1 $63 forward single #
face $-1 $64 $65 $24 $-1 $66 reversed single #
loop $-1 $-1 $67 $32 #
plane-surface $-1 0 0 13.786215180364113 0 0 1 1 0 0 forward_v I I I I #
face $-1 $68 $69 $25 $-1 $70 reversed single #
loop $-1 $-1 $71 $33 #
plane-surface $-1 -52.095095675527205 0 0 1 0 0 0 0 -1 forward_v I I I I #
face $-1 $72 $73 $26 $-1 $74 reversed single #
loop $-1 $-1 $75 $34 #
plane-surface $-1 -39.99525264511054 54.829210095338532 122.59004625323482 1 0 0 0 -0.66913061440640931 -0.74314481823134659 forward_v I I I I #
face $-1 $76 $77 $27 $-1 $78 forward single #
loop $-1 $79 $80 $35 #
cone-surface $-1 -36.021824059774147 24.024816481390666 7.5873875569585456 0 -0.66913061440640931 -0.74314481823134659 1 0 0 1 I I 0 1 1 forward I I I I #
face $-1 $81 $82 $28 $-1 $83 forward single #
loop $-1 $84 $85 $36 #
cone-surface $-1 -30.061681181769558 24.024816481390666 7.5873875569585456 0 -0.66913061440640931 -0.74314481823134659 1 0 0 1 I I 0 1 1 forward I I I I #
face $-1 $86 $87 $29 $-1 $88 reversed single #
loop $-1 $-1 $89 $37 #
plane-surface $-1 -26.088252596433165 -100.33159883207398 81.619510517234204 -1 0 0 0 -0.66913061440640931 0.74314481823134659 forward_v I I I I #
face $-1 $90 $91 $30 $-1 $92 forward single #
loop $-1 $93 $94 $38 #
cone-surface $-1 -36.021824059774147 -24.024816481390666 7.5873875569585421 0 0.66913061440640931 -0.74314481823134659 1 0 0 1 I I 0 1 1 forward I I I I #
face $-1 $95 $96 $31 $-1 $97 forward single #
loop $-1 $98 $99 $39 #
cone-surface $-1 -30.061681181769558 -24.024816481390666 7.5873875569585421 0 0.66913061440640931 -0.74314481823134659 1 0 0 1 I I 0 1 1 forward I I I I #
face $-1 $100 $101 $24 $-1 $102 reversed single #
loop $-1 $-1 $103 $40 #
plane-surface $-1 0 0 -13.786215180364113 0 0 1 1 0 0 forward_v I I I I #
coedge $-1 $104 $105 $106 $107 forward $41 $-1 #
face $-1 $108 $109 $25 $-1 $110 forward single #
loop $-1 $-1 $111 $43 #
plane-surface $-1 0 30.614752078221592 0 0 -1 0 0 0 -1 forward_v I I I I #
coedge $-1 $112 $113 $114 $115 forward $44 $-1 #
face $-1 $116 $117 $26 $-1 $118 reversed single #
loop $-1 $-1 $119 $46 #
plane-surface $-1 -33.041752620771852 -14.887636658513863 45.161645440166268 0 0.66913061440640931 0.74314481823134659 1 0 0 forward_v I I I I #
coedge $-1 $120 $121 $122 $123 reversed $47 $-1 #
face $-1 $-1 $124 $27 $-1 $125 forward single #
loop $-1 $126 $127 $49 #
cone-surface $-1 -36.021824059774147 22.428537572807805 5.8145402625365321 0 -0.66913061440640931 -0.74314481823134659 0.5 0 0 1 I I -0.70710678118654746 0.70710678118654746 0.5 forward I I I I #
loop $-1 $-1 $128 $35 #
coedge $-1 $80 $80 $129 $130 reversed $50 $-1 #
face $-1 $-1 $131 $28 $-1 $132 forward single #
loop $-1 $133 $134 $52 #
cone-surface $-1 -30.061681181769558 22.428537572807805 5.8145402625365321 0 -0.66913061440640931 -0.74314481823134659 0.5 0 0 1 I I -0.70710678118654746 0.70710678118654746 0.5 forward I I I I #
loop $-1 $-1 $135 $36 #
coedge $-1 $85 $85 $136 $137 reversed $53 $-1 #
face $-1 $138 $139 $29 $-1 $140 reversed single #
loop $-1 $-1 $141 $55 #
plane-surface $-1 -33.041752620771852 -30.614752078221585 4.1911097041656546 0 -0.66913061440640931 0.74314481823134659 1 0 0 forward_v I I I I #
coedge $-1 $142 $143 $144 $145 reversed $56 $-1 #
face $-1 $-1 $146 $30 $-1 $147 forward single #
loop $-1 $148 $149 $58 #
cone-surface $-1 -36.021824059774147 -22.428537572807805 5.8145402625365286 0 0.66913061440640931 -0.74314481823134659 0.5 0 0 1 I I -0.70710678118654746 0.70710678118654746 0.5 forward I I I I #
loop $-1 $-1 $150 $38 #
coedge $-1 $94 $94 $151 $152 reversed $59 $-1 #
face $-1 $-1 $153 $31 $-1 $154 forward single #
loop $-1 $155 $156 $61 #
cone-surface $-1 -30.061681181769558 -22.428537572807805 5.8145402625365286 0 0.66913061440640931 -0.74314481823134659 0.5 0 0 1 I I -0.70710678118654746 0.70710678118654746 0.5 forward I I I I #
loop $-1 $-1 $157 $39 #
coedge $-1 $99 $99 $158 $159 reversed $62 $-1 #
face $-1 $160 $161 $24 $-1 $162 reversed single #
loop $-1 $-1 $163 $64 #
plane-surface $-1 0 -30.614752078221592 0 0 1 0 0 0 1 forward_v I I I I #
coedge $-1 $164 $165 $166 $167 forward $65 $-1 #
coedge $-1 $168 $67 $169 $170 forward $41 $-1 #
coedge $-1 $67 $168 $171 $172 forward $41 $-1 #
coedge $-1 $173 $174 $67 $107 reversed $175 $-1 #
edge $-1 $176 -30.614752078221592 $177 30.614752078221592 $106 $178 forward 7 unknown #
face $-1 $179 $180 $25 $-1 $181 reversed single #
loop $-1 $-1 $114 $68 #
plane-surface $-1 -58.145017190735537 0 -7.4922921100992648 0 0 1 1 0 0 forward_v I I I I #
coedge $-1 $182 $183 $113 $184 forward $69 $-1 #
coedge $-1 $185 $71 $186 $187 reversed $44 $-1 #
coedge $-1 $71 $185 $111 $184 reversed $44 $-1 #
coedge $-1 $188 $189 $71 $115 reversed $109 $-1 #
edge $-1 $190 -30.614752078221592 $191 30.614752078221592 $114 $192 forward 7 unknown #
face $-1 $193 $194 $26 $-1 $195 forward single #
loop $-1 $-1 $196 $72 #
plane-surface $-1 -26.088252596433165 54.829210095338532 122.59004625323482 -1 0 0 0 0.66913061440640931 0.74314481823134659 forward_v I I I I #
coedge $-1 $197 $198 $199 $200 reversed $73 $-1 #
coedge $-1 $121 $75 $201 $202 reversed $47 $-1 #
coedge $-1 $75 $120 $197 $203 reversed $47 $-1 #
coedge $-1 $199 $204 $75 $123 forward $194 $-1 #
edge $-1 $205 -3.2001470305523263 $206 7.4562969603502189 $122 $207 forward 7 unknown #
loop $-1 $-1 $129 $76 #
plane-surface $-1 -33.041752620771852 -14.887636658513863 45.161645440166268 0 0.66913061440640931 0.74314481823134659 1 0 0 forward_v I I I I #
loop $-1 $-1 $208 $49 #
coedge $-1 $127 $127 $128 $209 reversed $77 $-1 #
coedge $-1 $128 $128 $127 $209 forward $79 $-1 #
coedge $-1 $129 $129 $80 $130 forward $124 $-1 #
edge $-1 $210 1.7145172920616828e-015 $210 6.2831853071796022 $129 $211 forward 7 unknown #
loop $-1 $-1 $136 $81 #
plane-surface $-1 -33.041752620771852 -14.887636658513863 45.161645440166268 0 0.66913061440640931 0.74314481823134659 1 0 0 forward_v I I I I #
loop $-1 $-1 $212 $52 #
coedge $-1 $134 $134 $135 $213 reversed $82 $-1 #
coedge $-1 $135 $135 $134 $213 forward $84 $-1 #
coedge $-1 $136 $136 $85 $137 forward $131 $-1 #
edge $-1 $214 1.7145172920616828e-015 $214 6.2831853071796022 $136 $215 forward 7 unknown #
face $-1 $216 $217 $29 $-1 $218 reversed single #
loop $-1 $-1 $219 $86 #
plane-surface $-1 -39.99525264511054 -100.33159883207398 81.619510517234204 1 0 0 0 0.66913061440640931 -0.74314481823134659 forward_v I I I I #
coedge $-1 $220 $221 $222 $223 reversed $87 $-1 #
coedge $-1 $143 $89 $224 $225 reversed $56 $-1 #
coedge $-1 $89 $142 $220 $226 reversed $56 $-1 #
coedge $-1 $222 $227 $89 $145 forward $228 $-1 #
edge $-1 $229 19.551047337815397 $230 30.207491328717939 $144 $231 forward 7 unknown #
loop $-1 $-1 $151 $90 #
plane-surface $-1 -33.041752620771852 -30.614752078221585 4.1911097041656546 0 -0.66913061440640931 0.74314481823134659 1 0 0 forward_v I I I I #
loop $-1 $-1 $232 $58 #
coedge $-1 $149 $149 $150 $233 reversed $91 $-1 #
coedge $-1 $150 $150 $149 $233 forward $93 $-1 #
coedge $-1 $151 $151 $94 $152 forward $146 $-1 #
edge $-1 $234 -1.4515660177073e-015 $234 6.2831853071795987 $151 $235 forward 7 unknown #
loop $-1 $-1 $158 $95 #
plane-surface $-1 -33.041752620771852 -30.614752078221585 4.1911097041656546 0 -0.66913061440640931 0.74314481823134659 1 0 0 forward_v I I I I #
loop $-1 $-1 $236 $61 #
coedge $-1 $156 $156 $157 $237 reversed $96 $-1 #
coedge $-1 $157 $157 $156 $237 forward $98 $-1 #
coedge $-1 $158 $158 $99 $159 forward $153 $-1 #
edge $-1 $238 -1.4515660177073e-015 $238 6.2831853071795987 $158 $239 forward 7 unknown #
face $-1 $240 $241 $24 $-1 $242 reversed single #
loop $-1 $-1 $243 $100 #
plane-surface $-1 -52.095095675527205 0 0 1 0 0 0 0 -1 forward_v I I I I #
coedge $-1 $244 $171 $245 $246 forward $101 $-1 #
coedge $-1 $247 $103 $244 $248 forward $65 $-1 #
coedge $-1 $103 $247 $249 $250 forward $65 $-1 #
coedge $-1 $174 $173 $103 $167 reversed $175 $-1 #
edge $-1 $251 -30.614752078221592 $252 30.614752078221592 $166 $253 forward 7 unknown #
coedge $-1 $105 $104 $254 $255 forward $41 $-1 #
coedge $-1 $256 $257 $104 $170 reversed $241 $-1 #
edge $-1 $177 -52.095095675527205 $258 52.095095675527205 $169 $259 forward 7 unknown #
coedge $-1 $163 $260 $105 $172 reversed $101 $-1 #
edge $-1 $261 -52.095095675527205 $176 52.095095675527205 $171 $262 forward 7 unknown #
coedge $-1 $166 $106 $260 $263 forward $175 $-1 #
coedge $-1 $106 $166 $256 $264 reversed $175 $-1 #
loop $-1 $-1 $173 $240 #
vertex $-1 $107 $265 #
vertex $-1 $107 $266 #
straight-curve $-1 52.095095675527205 0 13.786215180364113 0 1 0 I I #
face $-1 $267 $268 $25 $-1 $269 reversed single #
loop $-1 $-1 $270 $108 #
plane-surface $-1 -58.145017190735537 0 -11.610191290869423 0 0 1 1 0 0 forward_v I I I I #
coedge $-1 $271 $111 $272 $273 reversed $69 $-1 #
coedge $-1 $111 $271 $188 $274 reversed $69 $-1 #
edge $-1 $190 7.4922921100992648 $275 11.610191290869423 $111 $276 forward 7 unknown #
coedge $-1 $113 $112 $270 $277 forward $44 $-1 #
coedge $-1 $278 $279 $112 $187 forward $280 $-1 #
edge $-1 $281 -11.610191290869423 $191 -7.4922921100992648 $186 $282 forward 7 unknown #
coedge $-1 $283 $114 $183 $274 forward $109 $-1 #
coedge $-1 $114 $283 $278 $284 forward $109 $-1 #
vertex $-1 $184 $285 #
vertex $-1 $284 $286 #
straight-curve $-1 -52.095095675527205 0 -7.4922921100992648 0 -1 0 I I #
face $-1 $-1 $287 $26 $-1 $288 reversed single #
loop $-1 $-1 $122 $116 #
plane-surface $-1 0 0 13.786215180364113 0 0 1 1 0 0 forward_v I I I I #
coedge $-1 $289 $290 $291 $292 reversed $117 $-1 #
coedge $-1 $293 $119 $121 $203 forward $73 $-1 #
coedge $-1 $119 $293 $289 $294 forward $73 $-1 #
coedge $-1 $291 $122 $119 $200 forward $194 $-1 #
edge $-1 $206 -23.474376334724614 $295 -9.5673762860472387 $199 $296 forward 7 unknown #
coedge $-1 $297 $298 $120 $202 forward $287 $-1 #
edge $-1 $299 -57.103913422451768 $205 -47.508807946253299 $201 $300 forward 7 unknown #
edge $-1 $206 46.889844201248408 $299 61.229504156443184 $121 $301 forward 7 unknown #
coedge $-1 $122 $291 $297 $302 forward $194 $-1 #
vertex $-1 $202 $303 #
vertex $-1 $123 $304 #
straight-curve $-1 -39.99525264511054 27.414605047669266 13.78621518036411 0 -1 0 I I #
coedge $-1 $208 $208 $-1 $305 reversed $126 $-1 #
edge $-1 $306 0 $306 6.2831853071796004 $127 $307 forward 7 unknown #
vertex $-1 $130 $308 #
ellipse-curve $-1 -36.021824059774147 25.286530082770316 8.9886624422648804 0 0.66913061440640931 0.74314481823134659 1 0 0 1 I I #
coedge $-1 $212 $212 $-1 $309 reversed $133 $-1 #
edge $-1 $310 0 $310 6.2831853071796004 $134 $311 forward 7 unknown #
vertex $-1 $137 $312 #
ellipse-curve $-1 -30.061681181769558 25.286530082770316 8.9886624422648804 0 0.66913061440640931 0.74314481823134659 1 0 0 1 I I #
face $-1 $-1 $228 $29 $-1 $313 forward single #
loop $-1 $-1 $314 $138 #
plane-surface $-1 0 -30.614752078221592 0 0 1 0 0 0 1 forward_v I I I I #
coedge $-1 $315 $316 $317 $318 reversed $139 $-1 #
coedge $-1 $319 $141 $143 $226 forward $87 $-1 #
coedge $-1 $141 $319 $315 $320 forward $87 $-1 #
coedge $-1 $317 $144 $141 $223 forward $228 $-1 #
edge $-1 $230 9.5673762860472387 $321 23.474376334724614 $222 $322 forward 7 unknown #
coedge $-1 $323 $324 $142 $225 forward $217 $-1 #
edge $-1 $325 -36.618645554451454 $229 -27.023540078252989 $224 $326 forward 7 unknown #
edge $-1 $230 -14.339659955194767 $325 9.4405131238556439e-015 $143 $327 forward 7 unknown #
coedge $-1 $144 $317 $323 $328 forward $228 $-1 #
loop $-1 $-1 $317 $216 #
vertex $-1 $225 $329 #
vertex $-1 $145 $330 #
straight-curve $-1 -26.088252596433165 -50.16579941603699 13.78621518036411 0 1 0 I I #
coedge $-1 $232 $232 $-1 $331 reversed $148 $-1 #
edge $-1 $332 0 $332 6.2831853071796004 $149 $333 forward 7 unknown #
vertex $-1 $152 $334 #
ellipse-curve $-1 -36.021824059774147 -25.286530082770319 8.9886624422648804 0 -0.66913061440640931 0.74314481823134659 1 0 0 1 I I #
coedge $-1 $236 $236 $-1 $335 reversed $155 $-1 #
edge $-1 $336 0 $336 6.2831853071796004 $156 $337 forward 7 unknown #
vertex $-1 $159 $338 #
ellipse-curve $-1 -30.061681181769558 -25.286530082770319 8.9886624422648804 0 -0.66913061440640931 0.74314481823134659 1 0 0 1 I I #
face $-1 $-1 $175 $24 $-1 $339 reversed single #
loop $-1 $-1 $256 $160 #
plane-surface $-1 0 30.614752078221592 0 0 -1 0 0 0 -1 forward_v I I I I #
coedge $-1 $340 $254 $257 $341 forward $161 $-1 #
coedge $-1 $260 $163 $164 $248 reversed $101 $-1 #
coedge $-1 $254 $340 $163 $246 reversed $161 $-1 #
edge $-1 $261 -13.786215180364113 $342 13.786215180364113 $245 $343 forward 7 unknown #
coedge $-1 $165 $164 $340 $344 forward $65 $-1 #
edge $-1 $252 -52.095095675527205 $342 52.095095675527205 $244 $345 forward 7 unknown #
coedge $-1 $257 $256 $165 $250 reversed $241 $-1 #
edge $-1 $346 -52.095095675527205 $251 52.095095675527205 $249 $347 forward 7 unknown #
vertex $-1 $167 $348 #
vertex $-1 $263 $349 #
straight-curve $-1 52.095095675527205 0 -13.786215180364113 0 -1 0 I I #
coedge $-1 $243 $245 $168 $255 reversed $161 $-1 #
edge $-1 $258 -30.614752078221592 $261 30.614752078221592 $254 $350 forward 7 unknown #
coedge $-1 $249 $169 $174 $264 forward $241 $-1 #
coedge $-1 $169 $249 $243 $341 reversed $241 $-1 #
vertex $-1 $170 $351 #
straight-curve $-1 0 30.614752078221592 13.786215180364113 -1 0 0 I I #
coedge $-1 $171 $244 $173 $263 reversed $101 $-1 #
vertex $-1 $255 $352 #
straight-curve $-1 0 -30.614752078221592 13.786215180364113 1 0 0 I I #
edge $-1 $176 -13.786215180364113 $252 13.786215180364113 $173 $353 forward 7 unknown #
edge $-1 $177 -13.786215180364113 $251 13.786215180364113 $174 $354 forward 7 unknown #
point $-1 52.095095675527205 -30.614752078221592 13.786215180364113 #
point $-1 52.095095675527205 30.614752078221592 13.786215180364113 #
face $-1 $-1 $280 $25 $-1 $355 reversed single #
loop $-1 $-1 $356 $179 #
plane-surface $-1 -64.194938705943869 0 -9.5512417004843435 1 0 0 0 0 -1 forward_v I I I I #
coedge $-1 $357 $272 $185 $277 reversed $180 $-1 #
coedge $-1 $183 $182 $356 $358 reversed $69 $-1 #
coedge $-1 $270 $359 $182 $273 forward $180 $-1 #
edge $-1 $360 -6.0499215152083323 $275 6.0499215152083323 $182 $361 forward 7 unknown #
edge $-1 $190 -6.0499215152083323 $362 6.0499215152083323 $183 $363 forward 7 unknown #
vertex $-1 $184 $364 #
straight-curve $-1 -52.095095675527205 30.614752078221592 0 0 0 -1 I I #
edge $-1 $281 -30.614752078221592 $275 30.614752078221592 $270 $365 forward 7 unknown #
coedge $-1 $366 $186 $189 $284 reversed $280 $-1 #
coedge $-1 $186 $366 $357 $367 reversed $280 $-1 #
loop $-1 $-1 $186 $267 #
vertex $-1 $187 $368 #
straight-curve $-1 -52.095095675527205 -30.614752078221592 0 0 0 1 I I #
coedge $-1 $189 $188 $369 $370 forward $109 $-1 #
edge $-1 $371 -6.0499215152083323 $191 6.0499215152083323 $278 $372 forward 7 unknown #
point $-1 -52.095095675527205 30.614752078221592 -7.4922921100992648 #
point $-1 -52.095095675527205 -30.614752078221592 -7.4922921100992648 #
loop $-1 $-1 $201 $193 #
plane-surface $-1 0 30.614752078221592 0 0 -1 0 0 0 -1 forward_v I I I I #
coedge $-1 $290 $196 $198 $294 reversed $117 $-1 #
coedge $-1 $196 $289 $373 $374 reversed $117 $-1 #
coedge $-1 $204 $199 $196 $292 forward $194 $-1 #
edge $-1 $295 -7.4562969603502189 $375 3.2001470305523263 $291 $376 forward 7 unknown #
coedge $-1 $198 $197 $298 $377 reversed $73 $-1 #
edge $-1 $378 -61.229504156443184 $295 -46.889844201248408 $289 $379 forward 7 unknown #
vertex $-1 $200 $380 #
straight-curve $-1 -16.520876310385926 19.958308087319047 13.78621518036411 1 0 0 I I #
coedge $-1 $373 $201 $204 $302 reversed $287 $-1 #
coedge $-1 $201 $373 $293 $377 forward $287 $-1 #
vertex $-1 $202 $381 #
straight-curve $-1 -39.99525264511054 30.614752078221592 61.295023126617409 0 0 1 I I #
straight-curve $-1 -39.99525264511054 -14.887636658513863 45.161645440166268 0 0.74314481823134659 -0.66913061440640931 I I #
edge $-1 $375 26.088252596433165 $205 39.99525264511054 $297 $382 forward 7 unknown #
point $-1 -39.99525264511054 30.614752078221592 13.786215180364113 #
point $-1 -39.99525264511054 19.958308087319047 13.786215180364113 #
edge $-1 $383 1 $383 0 $208 $-1 forward 7 unknown #
vertex $-1 $209 $384 #
ellipse-curve $-1 -36.021824059774147 22.763102880011012 6.1861126716522055 0 0.66913061440640931 0.74314481823134659 1 0 0 1 I I #
point $-1 -35.021824059774147 25.286530082770323 8.9886624422648858 #
edge $-1 $385 1 $385 0 $212 $-1 forward 7 unknown #
vertex $-1 $213 $386 #
ellipse-curve $-1 -30.061681181769558 22.763102880011012 6.1861126716522055 0 0.66913061440640931 0.74314481823134659 1 0 0 1 I I #
point $-1 -29.061681181769558 25.286530082770323 8.9886624422648858 #
plane-surface $-1 0 0 13.786215180364113 0 0 1 1 0 0 forward_v I I I I #
coedge $-1 $324 $323 $316 $387 forward $217 $-1 #
coedge $-1 $316 $219 $221 $320 reversed $139 $-1 #
coedge $-1 $219 $315 $314 $387 reversed $139 $-1 #
coedge $-1 $227 $222 $219 $318 forward $228 $-1 #
edge $-1 $321 -30.207491328717939 $388 -19.551047337815397 $317 $389 forward 7 unknown #
coedge $-1 $221 $220 $324 $390 reversed $87 $-1 #
edge $-1 $391 -9.4405131238556439e-015 $321 14.339659955194767 $315 $392 forward 7 unknown #
vertex $-1 $223 $393 #
straight-curve $-1 -16.520876310385926 -19.95830808731905 13.786215180364113 -1 0 0 I I #
coedge $-1 $314 $224 $227 $328 reversed $217 $-1 #
coedge $-1 $224 $314 $319 $390 forward $217 $-1 #
vertex $-1 $225 $394 #
straight-curve $-1 -26.088252596433165 -30.614752078221592 40.809755258617102 0 0 1 I I #
straight-curve $-1 -26.088252596433165 -30.614752078221585 4.1911097041656546 0 -0.74314481823134659 -0.66913061440640931 I I #
edge $-1 $388 -39.99525264511054 $229 -26.088252596433165 $323 $395 forward 7 unknown #
point $-1 -26.088252596433165 -30.614752078221592 13.786215180364113 #
point $-1 -26.088252596433165 -19.95830808731905 13.786215180364113 #
edge $-1 $396 1 $396 0 $232 $-1 forward 7 unknown #
vertex $-1 $233 $397 #
ellipse-curve $-1 -36.021824059774147 -22.763102880011012 6.1861126716522019 0 -0.66913061440640931 0.74314481823134659 1 0 0 1 I I #
point $-1 -35.021824059774147 -25.286530082770323 8.9886624422648822 #
edge $-1 $398 1 $398 0 $236 $-1 forward 7 unknown #
vertex $-1 $237 $399 #
ellipse-curve $-1 -30.061681181769558 -22.763102880011012 6.1861126716522019 0 -0.66913061440640931 0.74314481823134659 1 0 0 1 I I #
point $-1 -29.061681181769558 -25.286530082770323 8.9886624422648822 #
plane-surface $-1 52.095095675527205 0 0 -1 0 0 0 0 1 forward_v I I I I #
coedge $-1 $245 $243 $247 $344 reversed $161 $-1 #
edge $-1 $258 -13.786215180364113 $346 13.786215180364113 $257 $400 forward 7 unknown #
vertex $-1 $344 $401 #
straight-curve $-1 -52.095095675527205 -30.614752078221592 0 0 0 -1 I I #
edge $-1 $342 -30.614752078221592 $346 30.614752078221592 $340 $402 forward 7 unknown #
straight-curve $-1 0 -30.614752078221592 -13.786215180364113 -1 0 0 I I #
vertex $-1 $250 $403 #
straight-curve $-1 0 30.614752078221592 -13.786215180364113 1 0 0 I I #
point $-1 52.095095675527205 30.614752078221592 -13.786215180364113 #
point $-1 52.095095675527205 -30.614752078221592 -13.786215180364113 #
straight-curve $-1 -52.095095675527205 0 13.786215180364113 0 -1 0 I I #
point $-1 -52.095095675527205 30.614752078221592 13.786215180364113 #
point $-1 -52.095095675527205 -30.614752078221592 13.786215180364113 #
straight-curve $-1 52.095095675527205 -30.614752078221592 0 0 0 -1 I I #
straight-curve $-1 52.095095675527205 30.614752078221592 0 0 0 -1 I I #
plane-surface $-1 0 -30.614752078221592 0 0 1 0 0 0 1 forward_v I I I I #
coedge $-1 $404 $369 $271 $358 forward $268 $-1 #
coedge $-1 $359 $270 $279 $367 forward $180 $-1 #
edge $-1 $362 -2.0589495903850787 $360 2.0589495903850796 $271 $405 forward 7 unknown #
coedge $-1 $272 $357 $404 $406 forward $180 $-1 #
vertex $-1 $273 $407 #
straight-curve $-1 -58.145017190735537 30.614752078221592 -11.610191290869423 1 0 0 I I #
vertex $-1 $274 $408 #
straight-curve $-1 -58.145017190735537 30.614752078221592 -7.4922921100992648 -1 0 0 I I #
point $-1 -52.095095675527205 30.614752078221592 -11.610191290869423 #
straight-curve $-1 -52.095095675527205 0 -11.610191290869423 0 1 0 I I #
coedge $-1 $279 $278 $409 $410 forward $280 $-1 #
edge $-1 $281 -6.0499215152083323 $411 6.0499215152083323 $279 $412 forward 7 unknown #
point $-1 -52.095095675527205 -30.614752078221592 -11.610191290869423 #
coedge $-1 $356 $409 $283 $370 reversed $268 $-1 #
edge $-1 $362 -30.614752078221592 $371 30.614752078221592 $369 $413 forward 7 unknown #
vertex $-1 $370 $414 #
straight-curve $-1 -58.145017190735537 -30.614752078221592 -7.4922921100992648 1 0 0 I I #
coedge $-1 $298 $297 $290 $374 forward $287 $-1 #
edge $-1 $375 47.508807946253299 $378 57.103913422451768 $373 $415 forward 7 unknown #
vertex $-1 $302 $416 #
straight-curve $-1 -26.088252596433165 27.414605047669266 13.78621518036411 0 1 0 I I #
edge $-1 $378 9.5673762860472387 $299 23.474376334724614 $298 $417 forward 7 unknown #
vertex $-1 $377 $418 #
straight-curve $-1 -26.088252596433165 -14.887636658513863 45.161645440166268 0 -0.74314481823134659 0.66913061440640931 I I #
point $-1 -26.088252596433165 19.958308087319047 13.786215180364113 #
point $-1 -39.99525264511054 30.614752078221592 4.1911097041656404 #
straight-curve $-1 0 30.614752078221592 13.786215180364113 -1 0 0 I I #
vertex $-1 $305 $419 #
point $-1 -35.021824059774147 22.763102880011012 6.1861126716522055 #
vertex $-1 $309 $420 #
point $-1 -29.061681181769558 22.763102880011012 6.1861126716522055 #
edge $-1 $388 27.023540078252989 $391 36.618645554451454 $314 $421 forward 7 unknown #
vertex $-1 $328 $422 #
straight-curve $-1 -39.99525264511054 -50.16579941603699 13.78621518036411 0 -1 0 I I #
edge $-1 $391 -23.474376334724614 $325 -9.5673762860472387 $324 $423 forward 7 unknown #
vertex $-1 $390 $424 #
straight-curve $-1 -39.99525264511054 -30.614752078221585 4.1911097041656546 0 0.74314481823134659 0.66913061440640931 I I #
point $-1 -39.99525264511054 -19.95830808731905 13.786215180364113 #
point $-1 -26.088252596433165 -30.614752078221592 4.1911097041656484 #
straight-curve $-1 0 -30.614752078221592 13.786215180364113 1 0 0 I I #
vertex $-1 $331 $425 #
point $-1 -35.021824059774147 -22.763102880011012 6.1861126716522019 #
vertex $-1 $335 $426 #
point $-1 -29.061681181769558 -22.763102880011012 6.1861126716522019 #
straight-curve $-1 -52.095095675527205 30.614752078221592 0 0 0 -1 I I #
point $-1 -52.095095675527205 -30.614752078221592 -13.786215180364113 #
straight-curve $-1 -52.095095675527205 0 -13.786215180364113 0 1 0 I I #
point $-1 -52.095095675527205 30.614752078221592 -13.786215180364113 #
coedge $-1 $409 $356 $359 $406 reversed $268 $-1 #
straight-curve $-1 -64.194938705943869 30.614752078221592 -9.5512417004843435 0 0 -1 I I #
edge $-1 $411 -30.614752078221592 $360 30.614752078221592 $404 $427 forward 7 unknown #
point $-1 -64.194938705943869 30.614752078221592 -11.610191290869423 #
point $-1 -64.194938705943869 30.614752078221592 -7.4922921100992648 #
coedge $-1 $369 $404 $366 $410 reversed $268 $-1 #
edge $-1 $371 -2.0589495903850787 $411 2.0589495903850796 $409 $428 forward 7 unknown #
vertex $-1 $406 $429 #
straight-curve $-1 -58.145017190735537 -30.614752078221592 -11.610191290869423 -1 0 0 I I #
straight-curve $-1 -64.194938705943869 0 -7.4922921100992648 0 -1 0 I I #
point $-1 -64.194938705943869 -30.614752078221592 -7.4922921100992648 #
straight-curve $-1 -26.088252596433165 30.614752078221592 61.295023126617409 0 0 -1 I I #
point $-1 -26.088252596433165 30.614752078221592 13.786215180364113 #
straight-curve $-1 -16.520876310385926 30.614752078221592 4.1911097041656475 -1 0 0 I I #
point $-1 -26.088252596433165 30.614752078221592 4.1911097041656404 #
point $-1 -36.021824059774147 22.093972265604599 5.4429678534208588 #
point $-1 -30.061681181769558 22.093972265604599 5.4429678534208588 #
straight-curve $-1 -39.99525264511054 -30.614752078221592 40.809755258617102 0 0 -1 I I #
point $-1 -39.99525264511054 -30.614752078221592 13.786215180364113 #
straight-curve $-1 -16.520876310385926 -30.614752078221592 4.1911097041656475 1 0 0 I I #
point $-1 -39.99525264511054 -30.614752078221592 4.1911097041656484 #
point $-1 -36.021824059774147 -22.093972265604599 5.4429678534208552 #
point $-1 -30.061681181769558 -22.093972265604599 5.4429678534208552 #
straight-curve $-1 -64.194938705943869 0 -11.610191290869423 0 1 0 I I #
straight-curve $-1 -64.194938705943869 -30.614752078221592 -9.5512417004843435 0 0 -1 I I #
point $-1 -64.194938705943869 -30.614752078221592 -11.610191290869423 #
End-of-ACIS-data 