500 0 4 0           
7 Unknown 11 ACIS 5.0 NT 24 Thu Mar 25 17:17:01 1999 
-1 9.9999999999999995e-007 1e-010 
body $-1 $4 $-1 $5 #
body $-1 $6 $-1 $7 #
body $-1 $8 $-1 $9 #
body $-1 $10 $-1 $11 #
lump $-1 $-1 $12 $0 #
transform $-1 1 0 0 0 1 0 0 0 1 67.598498489333778 35.560436968912143 9.2283278823648036 1 rotate no_reflect no_shear #
lump $-1 $-1 $13 $1 #
transform $-1 1 0 0 0 1 0 0 0 1 67.598498489333778 35.560436968912143 9.2283278823648036 1 rotate no_reflect no_shear #
lump $-1 $-1 $14 $2 #
transform $-1 1 0 0 0 1 0 0 0 1 67.598498489333778 35.560436968912143 9.2283278823648036 1 rotate no_reflect no_shear #
lump $-1 $-1 $15 $3 #
transform $-1 1 0 0 0 1 0 0 0 1 67.598498489333778 35.560436968912143 9.2283278823648036 1 rotate no_reflect no_shear #
shell $-1 $-1 $-1 $16 $-1 $4 #
shell $-1 $-1 $-1 $17 $-1 $6 #
shell $-1 $-1 $-1 $18 $-1 $8 #
shell $-1 $-1 $-1 $19 $-1 $10 #
face $-1 $20 $21 $12 $-1 $22 forward single #
face $-1 $23 $24 $13 $-1 $25 forward single #
face $-1 $26 $27 $14 $-1 $28 forward single #
face $-1 $29 $30 $15 $-1 $31 reversed single #
face $-1 $32 $33 $12 $-1 $34 reversed single #
loop $-1 $-1 $35 $16 #
plane-surface $-1 0 0 9.2283278823648036 0 0 1 1 0 0 forward_v I I I I #
face $-1 $36 $37 $13 $-1 $38 reversed single #
loop $-1 $-1 $39 $17 #
plane-surface $-1 0 -41.194335788070255 -3.1461479828700911 0 0 1 1 0 0 forward_v I I I I #
face $-1 $40 $41 $14 $-1 $42 forward single #
loop $-1 $-1 $43 $18 #
plane-surface $-1 -47.567953696330534 103.13330618983363 140.51441959846684 -1 0 0 0 0.80901700255871778 0.5877852410284794 forward_v I I I I #
face $-1 $44 $45 $15 $-1 $46 reversed single #
loop $-1 $47 $48 $19 #
cone-surface $-1 -57.583226092832156 31.871733427634542 5.1983249912261531 0 -0.80901700255871778 -0.5877852410284794 1.5 0 0 1 I I 0 1 1.5 forward I I I I #
face $-1 $49 $50 $12 $-1 $51 reversed single #
loop $-1 $-1 $52 $20 #
plane-surface $-1 0 0 -9.2283278823648036 0 0 1 1 0 0 forward_v I I I I #
coedge $-1 $53 $54 $55 $56 forward $21 $-1 #
face $-1 $57 $58 $13 $-1 $59 reversed single #
loop $-1 $-1 $60 $23 #
plane-surface $-1 0 -41.194335788070255 -6.1461479828700911 0 0 1 1 0 0 forward_v I I I I #
coedge $-1 $61 $62 $63 $64 forward $24 $-1 #
face $-1 $65 $66 $14 $-1 $67 reversed single #
loop $-1 $-1 $68 $26 #
plane-surface $-1 -57.583226092832156 -6.2433630607880133 61.047620143034138 0 0.80901700255871778 0.5877852410284794 1 0 0 forward_v I I I I #
coedge $-1 $69 $70 $71 $72 reversed $27 $-1 #
face $-1 $73 $74 $15 $-1 $75 forward single #
loop $-1 $76 $77 $29 #
cone-surface $-1 -57.583226092832156 29.653707901194451 3.5868351652489974 0 -0.80901700255871778 -0.5877852410284794 0.75 0 0 1 I I -0.70710678118654757 0.70710678118654757 0.75 forward I I I I #
loop $-1 $-1 $78 $19 #
coedge $-1 $48 $48 $79 $80 reversed $30 $-1 #
face $-1 $81 $82 $12 $-1 $83 reversed single #
loop $-1 $-1 $84 $32 #
plane-surface $-1 0 -35.560436968912143 0 0 1 0 0 0 1 forward_v I I I I #
coedge $-1 $85 $86 $87 $88 forward $33 $-1 #
coedge $-1 $89 $35 $90 $91 forward $21 $-1 #
coedge $-1 $35 $89 $92 $93 forward $21 $-1 #
coedge $-1 $94 $95 $35 $56 reversed $96 $-1 #
edge $-1 $97 -35.560436968912143 $98 35.560436968912143 $55 $99 forward 7 unknown #
face $-1 $100 $101 $13 $-1 $102 reversed single #
loop $-1 $-1 $103 $36 #
plane-surface $-1 0 -46.828234607228367 -4.6461479828700911 0 1 0 0 0 1 forward_v I I I I #
coedge $-1 $104 $105 $106 $107 forward $37 $-1 #
coedge $-1 $108 $39 $109 $110 reversed $24 $-1 #
coedge $-1 $39 $108 $111 $112 forward $24 $-1 #
coedge $-1 $113 $114 $39 $64 reversed $115 $-1 #
edge $-1 $116 -5.6338988191581123 $117 5.6338988191581123 $63 $118 forward 7 unknown #
face $-1 $119 $120 $14 $-1 $121 forward single #
loop $-1 $-1 $122 $40 #
plane-surface $-1 0 35.560436968912143 0 0 -1 0 0 0 -1 forward_v I I I I #
coedge $-1 $123 $124 $122 $125 reversed $41 $-1 #
coedge $-1 $70 $43 $124 $126 forward $27 $-1 #
coedge $-1 $43 $69 $127 $128 reversed $27 $-1 #
coedge $-1 $129 $122 $43 $72 forward $66 $-1 #
edge $-1 $130 -66.747585908734322 $131 -61.02888191686862 $71 $132 forward 7 unknown #
face $-1 $133 $134 $15 $-1 $135 forward single #
loop $-1 $-1 $136 $44 #
plane-surface $-1 -47.567953696330534 103.13330618983363 140.51441959846684 -1 0 0 0 0.80901700255871778 0.5877852410284794 forward_v I I I I #
loop $-1 $-1 $137 $29 #
coedge $-1 $77 $77 $78 $138 forward $45 $-1 #
coedge $-1 $78 $78 $77 $138 reversed $47 $-1 #
coedge $-1 $79 $79 $48 $80 forward $134 $-1 #
edge $-1 $139 1.2573117856050034e-015 $139 6.2831853071796013 $79 $140 forward 7 unknown #
face $-1 $141 $142 $12 $-1 $143 reversed single #
loop $-1 $-1 $144 $49 #
plane-surface $-1 -67.598498489333778 0 0 1 0 0 0 0 -1 forward_v I I I I #
coedge $-1 $145 $92 $146 $147 forward $50 $-1 #
coedge $-1 $148 $52 $145 $149 forward $33 $-1 #
coedge $-1 $52 $148 $150 $151 forward $33 $-1 #
coedge $-1 $95 $94 $52 $88 reversed $96 $-1 #
edge $-1 $152 -35.560436968912143 $153 35.560436968912143 $87 $154 forward 7 unknown #
coedge $-1 $54 $53 $155 $156 forward $21 $-1 #
coedge $-1 $157 $158 $53 $91 reversed $142 $-1 #
edge $-1 $98 -67.598498489333778 $159 67.598498489333778 $90 $160 forward 7 unknown #
coedge $-1 $84 $161 $54 $93 reversed $50 $-1 #
edge $-1 $162 -67.598498489333778 $97 67.598498489333778 $92 $163 forward 7 unknown #
coedge $-1 $87 $55 $161 $164 forward $96 $-1 #
coedge $-1 $55 $87 $157 $165 reversed $96 $-1 #
loop $-1 $-1 $94 $141 #
vertex $-1 $56 $166 #
vertex $-1 $56 $167 #
straight-curve $-1 67.598498489333778 0 9.2283278823648036 0 1 0 I I #
face $-1 $168 $169 $13 $-1 $102 reversed single #
loop $-1 $-1 $170 $57 #
plane-surface $-1 0 -35.560436968912143 0 0 1 0 0 0 1 forward_v I I I I #
coedge $-1 $171 $111 $172 $173 forward $58 $-1 #
coedge $-1 $174 $60 $171 $175 forward $37 $-1 #
coedge $-1 $60 $174 $170 $176 reversed $37 $-1 #
coedge $-1 $177 $113 $60 $107 reversed $115 $-1 #
edge $-1 $178 -5.6338988191581123 $179 5.6338988191581123 $106 $180 forward 7 unknown #
coedge $-1 $62 $61 $181 $182 forward $24 $-1 #
coedge $-1 $183 $184 $61 $110 forward $169 $-1 #
edge $-1 $185 -67.598498489333778 $117 67.598498489333778 $109 $186 forward 7 unknown #
coedge $-1 $103 $187 $62 $112 reversed $58 $-1 #
edge $-1 $188 -67.598498489333778 $116 67.598498489333778 $111 $189 forward 7 unknown #
coedge $-1 $106 $63 $187 $190 forward $115 $-1 #
coedge $-1 $63 $191 $183 $192 forward $115 $-1 #
loop $-1 $-1 $114 $193 #
vertex $-1 $64 $194 #
vertex $-1 $64 $195 #
straight-curve $-1 67.598498489333778 -41.194335788070255 -3.1461479828700911 0 1 0 I I #
face $-1 $196 $197 $14 $-1 $198 forward single #
loop $-1 $-1 $127 $65 #
plane-surface $-1 0 0 9.2283278823648036 0 0 1 1 0 0 forward_v I I I I #
coedge $-1 $71 $199 $68 $125 forward $66 $-1 #
coedge $-1 $200 $68 $201 $202 reversed $41 $-1 #
coedge $-1 $68 $200 $69 $126 reversed $41 $-1 #
edge $-1 $203 -38.806885442917704 $130 -18.776340649914456 $122 $204 forward 7 unknown #
edge $-1 $130 -71.1208739378243 $205 -64.052167132183769 $69 $206 forward 7 unknown #
coedge $-1 $207 $208 $70 $128 forward $120 $-1 #
edge $-1 $131 16.006216126004674 $205 20.16109765951775 $127 $209 forward 7 unknown #
coedge $-1 $210 $71 $208 $211 reversed $66 $-1 #
vertex $-1 $125 $212 #
vertex $-1 $128 $213 #
straight-curve $-1 -47.567953696330534 35.560436968912143 70.257209799233422 0 0 1 I I #
face $-1 $214 $215 $15 $-1 $216 reversed single #
loop $-1 $217 $79 $73 #
plane-surface $-1 -57.583226092832156 -6.2433630607880133 61.047620143034138 0 0.80901700255871778 0.5877852410284794 1 0 0 forward_v I I I I #
coedge $-1 $218 $219 $220 $221 reversed $74 $-1 #
coedge $-1 $137 $137 $-1 $222 forward $76 $-1 #
edge $-1 $223 0 $223 6.2831853071796004 $77 $224 forward 7 unknown #
vertex $-1 $80 $225 #
ellipse-curve $-1 -57.583226092832156 33.482996202155604 6.368975886431957 0 -0.80901700255871778 -0.5877852410284794 1.5 0 0 1 I I #
face $-1 $-1 $96 $12 $-1 $226 reversed single #
loop $-1 $-1 $157 $81 #
plane-surface $-1 0 35.560436968912143 0 0 -1 0 0 0 -1 forward_v I I I I #
coedge $-1 $227 $155 $158 $228 forward $82 $-1 #
coedge $-1 $161 $84 $85 $149 reversed $50 $-1 #
coedge $-1 $155 $227 $84 $147 reversed $82 $-1 #
edge $-1 $162 -9.2283278823648036 $229 9.2283278823648036 $146 $230 forward 7 unknown #
coedge $-1 $86 $85 $227 $231 forward $33 $-1 #
edge $-1 $153 -67.598498489333778 $229 67.598498489333778 $145 $232 forward 7 unknown #
coedge $-1 $158 $157 $86 $151 reversed $142 $-1 #
edge $-1 $233 -67.598498489333778 $152 67.598498489333778 $150 $234 forward 7 unknown #
vertex $-1 $88 $235 #
vertex $-1 $164 $236 #
straight-curve $-1 67.598498489333778 0 -9.2283278823648036 0 -1 0 I I #
coedge $-1 $144 $146 $89 $156 reversed $82 $-1 #
edge $-1 $159 -35.560436968912143 $162 35.560436968912143 $155 $237 forward 7 unknown #
coedge $-1 $150 $90 $95 $165 forward $142 $-1 #
coedge $-1 $90 $150 $144 $228 reversed $142 $-1 #
vertex $-1 $91 $238 #
straight-curve $-1 0 35.560436968912143 9.2283278823648036 -1 0 0 I I #
coedge $-1 $92 $145 $94 $164 reversed $50 $-1 #
vertex $-1 $156 $239 #
straight-curve $-1 0 -35.560436968912143 9.2283278823648036 1 0 0 I I #
edge $-1 $97 -9.2283278823648036 $153 9.2283278823648036 $94 $240 forward 7 unknown #
edge $-1 $98 -9.2283278823648036 $152 9.2283278823648036 $95 $241 forward 7 unknown #
point $-1 67.598498489333778 -35.560436968912143 9.2283278823648036 #
point $-1 67.598498489333778 35.560436968912143 9.2283278823648036 #
face $-1 $242 $243 $13 $-1 $244 forward single #
loop $-1 $-1 $109 $100 #
coedge $-1 $245 $246 $105 $176 forward $101 $-1 #
coedge $-1 $187 $103 $104 $175 reversed $58 $-1 #
coedge $-1 $181 $247 $103 $173 reversed $248 $-1 #
edge $-1 $188 -1.5 $249 1.5 $172 $250 forward 7 unknown #
coedge $-1 $105 $104 $247 $251 forward $37 $-1 #
edge $-1 $179 -67.598498489333778 $249 67.598498489333778 $171 $252 forward 7 unknown #
edge $-1 $178 -67.598498489333778 $253 67.598498489333778 $170 $254 forward 7 unknown #
coedge $-1 $255 $106 $246 $256 forward $115 $-1 #
vertex $-1 $256 $257 #
vertex $-1 $190 $258 #
straight-curve $-1 67.598498489333778 -41.194335788070255 -6.1461479828700911 0 -1 0 I I #
coedge $-1 $259 $172 $108 $182 reversed $248 $-1 #
edge $-1 $185 -5.6338988191581123 $188 5.6338988191581123 $181 $260 forward 7 unknown #
coedge $-1 $261 $109 $114 $192 reversed $169 $-1 #
coedge $-1 $109 $261 $259 $262 forward $169 $-1 #
vertex $-1 $262 $263 #
straight-curve $-1 0 -35.560436968912143 -3.1461479828700911 1 0 0 I I #
coedge $-1 $111 $171 $113 $190 reversed $58 $-1 #
vertex $-1 $182 $264 #
straight-curve $-1 0 -46.828234607228367 -3.1461479828700911 1 0 0 I I #
edge $-1 $116 -1.5 $179 1.5 $113 $265 forward 7 unknown #
coedge $-1 $114 $266 $267 $268 reversed $115 $-1 #
edge $-1 $269 -9.2283278823648036 $117 3.1461479828700911 $114 $270 forward 7 unknown #
face $-1 $-1 $115 $13 $-1 $271 reversed single #
point $-1 67.598498489333778 -46.828234607228367 -3.1461479828700911 #
point $-1 67.598498489333778 -35.560436968912143 -3.1461479828700911 #
face $-1 $272 $273 $14 $-1 $274 reversed single #
loop $-1 $-1 $275 $119 #
plane-surface $-1 0 -41.194335788070255 -3.1461479828700911 0 0 1 1 0 0 forward_v I I I I #
coedge $-1 $122 $276 $277 $278 reversed $66 $-1 #
coedge $-1 $124 $123 $207 $279 reversed $41 $-1 #
coedge $-1 $277 $280 $123 $202 forward $281 $-1 #
edge $-1 $282 37.523007470696633 $203 44.591714276337171 $201 $283 forward 7 unknown #
vertex $-1 $278 $284 #
straight-curve $-1 -28.791613046416078 35.560436968912143 3.5096238904990855 1 0 0 I I #
vertex $-1 $279 $285 #
straight-curve $-1 -47.567953696330534 -6.2433630607880133 61.047620143034138 0 -0.5877852410284794 0.80901700255871778 I I #
coedge $-1 $286 $127 $200 $279 forward $120 $-1 #
coedge $-1 $127 $287 $129 $211 forward $120 $-1 #
straight-curve $-1 -47.567953696330534 51.566653094916816 9.2283278823648089 0 -1 0 I I #
coedge $-1 $276 $129 $288 $289 forward $66 $-1 #
edge $-1 $290 -67.598498489333778 $131 47.567953696330534 $129 $291 forward 7 unknown #
point $-1 -47.567953696330534 35.560436968912143 3.5096238904990926 #
point $-1 -47.567953696330534 35.560436968912143 9.2283278823648036 #
face $-1 $292 $293 $15 $-1 $294 forward single #
loop $-1 $-1 $295 $133 #
plane-surface $-1 0 35.560436968912143 0 0 -1 0 0 0 -1 forward_v I I I I #
loop $-1 $-1 $296 $73 #
coedge $-1 $219 $136 $297 $298 forward $74 $-1 #
coedge $-1 $136 $218 $299 $300 reversed $74 $-1 #
coedge $-1 $301 $295 $136 $221 forward $215 $-1 #
edge $-1 $302 -66.747585908734322 $303 -61.02888191686862 $220 $304 forward 7 unknown #
edge $-1 $305 1 $305 0 $137 $-1 forward 7 unknown #
vertex $-1 $138 $306 #
ellipse-curve $-1 -57.583226092832156 30.26047065311349 4.0276740960203572 0 0.80901700255871778 0.5877852410284794 1.5 0 0 1 I I #
point $-1 -56.083226092832156 33.48299620215559 6.368975886431949 #
plane-surface $-1 67.598498489333778 0 0 -1 0 0 0 0 1 forward_v I I I I #
coedge $-1 $146 $144 $148 $231 reversed $82 $-1 #
edge $-1 $159 -9.2283278823648036 $233 9.2283278823648036 $158 $307 forward 7 unknown #
vertex $-1 $231 $308 #
straight-curve $-1 -67.598498489333778 -35.560436968912143 0 0 0 -1 I I #
edge $-1 $229 -35.560436968912143 $233 35.560436968912143 $227 $309 forward 7 unknown #
straight-curve $-1 0 -35.560436968912143 -9.2283278823648036 -1 0 0 I I #
vertex $-1 $151 $310 #
straight-curve $-1 0 35.560436968912143 -9.2283278823648036 1 0 0 I I #
point $-1 67.598498489333778 35.560436968912143 -9.2283278823648036 #
point $-1 67.598498489333778 -35.560436968912143 -9.2283278823648036 #
straight-curve $-1 -67.598498489333778 0 9.2283278823648036 0 -1 0 I I #
point $-1 -67.598498489333778 35.560436968912143 9.2283278823648036 #
point $-1 -67.598498489333778 -35.560436968912143 9.2283278823648036 #
straight-curve $-1 67.598498489333778 -35.560436968912143 0 0 0 -1 I I #
straight-curve $-1 67.598498489333778 35.560436968912143 0 0 0 -1 I I #
face $-1 $311 $312 $13 $-1 $313 reversed single #
loop $-1 $-1 $267 $168 #
plane-surface $-1 0 0 9.2283278823648036 0 0 1 1 0 0 forward_v I I I I #
coedge $-1 $314 $170 $315 $316 forward $101 $-1 #
coedge $-1 $170 $314 $177 $256 reversed $101 $-1 #
coedge $-1 $172 $315 $174 $251 reversed $248 $-1 #
loop $-1 $-1 $317 $311 #
vertex $-1 $251 $318 #
straight-curve $-1 -67.598498489333778 -46.828234607228367 -4.6461479828700911 0 0 -1 I I #
edge $-1 $249 -5.6338988191581123 $253 5.6338988191581123 $247 $319 forward 7 unknown #
straight-curve $-1 0 -46.828234607228367 -6.1461479828700911 -1 0 0 I I #
vertex $-1 $316 $320 #
straight-curve $-1 0 -35.560436968912143 -6.1461479828700911 -1 0 0 I I #
coedge $-1 $266 $177 $321 $322 reversed $115 $-1 #
edge $-1 $178 6.1461479828700911 $323 9.2283278823648036 $177 $270 forward 7 unknown #
point $-1 67.598498489333778 -35.560436968912143 -6.1461479828700911 #
point $-1 67.598498489333778 -46.828234607228367 -6.1461479828700911 #
coedge $-1 $324 $181 $184 $262 reversed $248 $-1 #
straight-curve $-1 -67.598498489333778 -41.194335788070255 -3.1461479828700911 0 -1 0 I I #
coedge $-1 $184 $183 $325 $326 reversed $169 $-1 #
edge $-1 $327 -9.2283278823648036 $185 3.1461479828700911 $259 $328 forward 7 unknown #
point $-1 -67.598498489333778 -35.560436968912143 -3.1461479828700911 #
point $-1 -67.598498489333778 -46.828234607228367 -3.1461479828700911 #
straight-curve $-1 67.598498489333778 -46.828234607228367 -4.6461479828700911 0 0 -1 I I #
coedge $-1 $191 $255 $329 $330 reversed $115 $-1 #
coedge $-1 $331 $325 $191 $268 forward $243 $-1 #
edge $-1 $269 -35.560436968912143 $332 35.560436968912143 $191 $333 forward 7 unknown #
vertex $-1 $268 $334 #
straight-curve $-1 67.598498489333778 -35.560436968912143 0 0 0 -1 I I #
plane-surface $-1 67.598498489333778 0 0 -1 0 0 0 0 1 forward_v I I I I #
face $-1 $335 $336 $14 $-1 $337 reversed single #
loop $-1 $-1 $338 $196 #
plane-surface $-1 0 -41.194335788070255 -6.1461479828700911 0 0 1 1 0 0 forward_v I I I I #
coedge $-1 $339 $340 $341 $342 forward $197 $-1 #
coedge $-1 $199 $210 $343 $344 reversed $66 $-1 #
coedge $-1 $345 $201 $199 $278 forward $281 $-1 #
edge $-1 $203 -3.5096238904990882 $346 9.2283278823648036 $199 $347 forward 7 unknown #
edge $-1 $205 18.776340649914456 $282 38.806885442917704 $207 $348 forward 7 unknown #
coedge $-1 $201 $349 $286 $350 reversed $281 $-1 #
loop $-1 $-1 $201 $351 #
vertex $-1 $350 $352 #
straight-curve $-1 -67.598498489333778 9.3500854451222146 39.585078913296172 0 0.5877852410284794 -0.80901700255871778 I I #
point $-1 -67.598498489333778 35.560436968912143 3.5096238904990882 #
point $-1 -47.567953696330534 31.405555435399066 9.2283278823648018 #
coedge $-1 $353 $207 $280 $350 forward $120 $-1 #
coedge $-1 $208 $353 $354 $355 forward $120 $-1 #
coedge $-1 $354 $356 $210 $289 reversed $357 $-1 #
edge $-1 $290 -9.2283278823648036 $358 9.2283278823648036 $288 $359 forward 7 unknown #
vertex $-1 $355 $360 #
straight-curve $-1 0 35.560436968912143 9.2283278823648036 -1 0 0 I I #
face $-1 $361 $362 $15 $-1 $363 forward single #
loop $-1 $-1 $299 $214 #
plane-surface $-1 0 0 9.2283278823648036 0 0 1 1 0 0 forward_v I I I I #
coedge $-1 $220 $364 $296 $365 forward $215 $-1 #
coedge $-1 $366 $297 $295 $365 reversed $217 $-1 #
coedge $-1 $296 $367 $218 $298 reversed $217 $-1 #
edge $-1 $302 -71.1208739378243 $368 -64.052167132183769 $218 $369 forward 7 unknown #
coedge $-1 $370 $371 $219 $300 forward $293 $-1 #
edge $-1 $303 16.006216126004674 $368 20.16109765951775 $299 $372 forward 7 unknown #
coedge $-1 $373 $220 $371 $374 reversed $215 $-1 #
vertex $-1 $365 $375 #
vertex $-1 $300 $376 #
straight-curve $-1 -47.567953696330534 35.560436968912143 70.257209799233422 0 0 1 I I #
vertex $-1 $222 $377 #
point $-1 -56.083226092832156 30.26047065311349 4.0276740960203572 #
straight-curve $-1 -67.598498489333778 35.560436968912143 0 0 0 -1 I I #
point $-1 -67.598498489333778 -35.560436968912143 -9.2283278823648036 #
straight-curve $-1 -67.598498489333778 0 -9.2283278823648036 0 1 0 I I #
point $-1 -67.598498489333778 35.560436968912143 -9.2283278823648036 #
face $-1 $378 $248 $13 $-1 $379 reversed single #
loop $-1 $-1 $321 $242 #
plane-surface $-1 0 0 -9.2283278823648036 0 0 1 1 0 0 forward_v I I I I #
coedge $-1 $246 $245 $380 $381 reversed $101 $-1 #
coedge $-1 $247 $382 $245 $316 reversed $248 $-1 #
edge $-1 $253 6.1461479828700911 $383 9.2283278823648036 $315 $328 forward 7 unknown #
coedge $-1 $382 $324 $384 $385 forward $248 $-1 #
point $-1 -67.598498489333778 -46.828234607228367 -6.1461479828700911 #
straight-curve $-1 -67.598498489333778 -41.194335788070255 -6.1461479828700911 0 1 0 I I #
point $-1 -67.598498489333778 -35.560436968912143 -6.1461479828700911 #
coedge $-1 $380 $386 $255 $322 forward $312 $-1 #
edge $-1 $387 -35.560436968912143 $323 35.560436968912143 $255 $388 forward 7 unknown #
vertex $-1 $256 $389 #
coedge $-1 $317 $259 $390 $391 reversed $248 $-1 #
coedge $-1 $267 $390 $261 $326 forward $243 $-1 #
edge $-1 $327 -67.598498489333778 $269 67.598498489333778 $261 $392 forward 7 unknown #
vertex $-1 $391 $393 #
straight-curve $-1 -67.598498489333778 -35.560436968912143 0 0 0 -1 I I #
coedge $-1 $394 $395 $266 $330 forward $396 $-1 #
edge $-1 $332 -9.2283278823648036 $387 9.2283278823648036 $266 $397 forward 7 unknown #
coedge $-1 $390 $267 $395 $398 forward $243 $-1 #
vertex $-1 $268 $399 #
straight-curve $-1 67.598498489333778 0 9.2283278823648036 0 1 0 I I #
point $-1 67.598498489333778 -35.560436968912143 9.2283278823648036 #
face $-1 $400 $401 $14 $-1 $402 reversed single #
loop $-1 $-1 $403 $272 #
plane-surface $-1 0 -46.828234607228367 -4.6461479828700911 0 1 0 0 0 1 forward_v I I I I #
coedge $-1 $404 $405 $406 $407 forward $273 $-1 #
coedge $-1 $408 $275 $409 $410 reversed $197 $-1 #
coedge $-1 $275 $408 $411 $412 forward $197 $-1 #
coedge $-1 $413 $414 $275 $342 reversed $357 $-1 #
edge $-1 $415 -5.6338988191581123 $416 5.6338988191581123 $341 $417 forward 7 unknown #
coedge $-1 $418 $419 $276 $344 forward $420 $-1 #
edge $-1 $346 -67.598498489333778 $358 67.598498489333778 $276 $421 forward 7 unknown #
coedge $-1 $422 $277 $419 $423 reversed $281 $-1 #
vertex $-1 $344 $424 #
straight-curve $-1 -67.598498489333778 35.560436968912143 0 0 0 -1 I I #
straight-curve $-1 -28.791613046416078 31.405555435399066 9.2283278823648089 -1 0 0 I I #
coedge $-1 $280 $425 $426 $427 reversed $281 $-1 #
edge $-1 $282 -31.405555435399066 $428 35.560436968912143 $280 $429 forward 7 unknown #
face $-1 $430 $281 $14 $-1 $431 reversed single #
point $-1 -67.598498489333778 31.405555435399066 9.2283278823648018 #
coedge $-1 $287 $286 $432 $433 forward $120 $-1 #
coedge $-1 $414 $288 $287 $355 reversed $357 $-1 #
edge $-1 $434 -35.560436968912143 $290 35.560436968912143 $354 $435 forward 7 unknown #
coedge $-1 $288 $436 $418 $437 reversed $357 $-1 #
loop $-1 $-1 $414 $430 #
vertex $-1 $437 $438 #
straight-curve $-1 67.598498489333778 35.560436968912143 0 0 0 -1 I I #
point $-1 67.598498489333778 35.560436968912143 9.2283278823648036 #
face $-1 $439 $440 $15 $-1 $441 reversed single #
loop $-1 $-1 $442 $292 #
plane-surface $-1 0 -41.194335788070255 -3.1461479828700911 0 0 1 1 0 0 forward_v I I I I #
coedge $-1 $295 $443 $444 $445 reversed $215 $-1 #
edge $-1 $446 -38.806885442917704 $302 -18.776340649914456 $295 $447 forward 7 unknown #
coedge $-1 $367 $296 $448 $449 reversed $217 $-1 #
coedge $-1 $297 $366 $370 $450 reversed $217 $-1 #
vertex $-1 $450 $451 #
straight-curve $-1 -47.567953696330534 -6.2433630607880133 61.047620143034138 0 -0.5877852410284794 0.80901700255871778 I I #
coedge $-1 $452 $299 $367 $450 forward $293 $-1 #
coedge $-1 $299 $453 $301 $374 forward $293 $-1 #
straight-curve $-1 -47.567953696330534 51.566653094916816 9.2283278823648089 0 -1 0 I I #
coedge $-1 $443 $301 $454 $455 forward $215 $-1 #
edge $-1 $456 -67.598498489333778 $303 47.567953696330534 $301 $457 forward 7 unknown #
point $-1 -47.567953696330534 35.560436968912143 3.5096238904990926 #
point $-1 -47.567953696330534 35.560436968912143 9.2283278823648036 #
point $-1 -57.583226092832156 29.046945149275412 3.145996234477638 #
face $-1 $193 $396 $13 $-1 $458 reversed single #
plane-surface $-1 -67.598498489333778 0 0 1 0 0 0 0 -1 forward_v I I I I #
coedge $-1 $459 $321 $314 $381 forward $312 $-1 #
edge $-1 $323 -67.598498489333778 $383 67.598498489333778 $314 $460 forward 7 unknown #
coedge $-1 $315 $317 $459 $461 reversed $248 $-1 #
vertex $-1 $461 $462 #
coedge $-1 $395 $394 $317 $385 reversed $396 $-1 #
edge $-1 $463 -9.2283278823648036 $464 9.2283278823648036 $384 $465 forward 7 unknown #
coedge $-1 $321 $459 $394 $466 forward $312 $-1 #
vertex $-1 $322 $467 #
straight-curve $-1 67.598498489333778 0 -9.2283278823648036 0 -1 0 I I #
point $-1 67.598498489333778 -35.560436968912143 -9.2283278823648036 #
coedge $-1 $325 $331 $324 $391 forward $243 $-1 #
edge $-1 $463 -35.560436968912143 $327 35.560436968912143 $324 $468 forward 7 unknown #
straight-curve $-1 0 -35.560436968912143 9.2283278823648036 1 0 0 I I #
point $-1 -67.598498489333778 -35.560436968912143 9.2283278823648036 #
coedge $-1 $384 $329 $386 $466 reversed $396 $-1 #
coedge $-1 $329 $384 $331 $398 reversed $396 $-1 #
loop $-1 $-1 $329 $378 #
straight-curve $-1 67.598498489333778 35.560436968912143 0 0 0 -1 I I #
edge $-1 $332 -67.598498489333778 $463 67.598498489333778 $395 $469 forward 7 unknown #
point $-1 67.598498489333778 35.560436968912143 9.2283278823648036 #
face $-1 $470 $471 $14 $-1 $402 reversed single #
loop $-1 $-1 $472 $335 #
plane-surface $-1 0 -35.560436968912143 0 0 1 0 0 0 1 forward_v I I I I #
coedge $-1 $473 $411 $474 $475 forward $336 $-1 #
coedge $-1 $476 $338 $473 $477 forward $273 $-1 #
coedge $-1 $338 $476 $472 $478 reversed $273 $-1 #
coedge $-1 $436 $413 $338 $407 reversed $357 $-1 #
edge $-1 $479 -5.6338988191581123 $480 5.6338988191581123 $406 $481 forward 7 unknown #
coedge $-1 $340 $339 $425 $482 forward $197 $-1 #
coedge $-1 $483 $426 $339 $410 forward $471 $-1 #
edge $-1 $484 -67.598498489333778 $416 67.598498489333778 $409 $485 forward 7 unknown #
coedge $-1 $403 $486 $340 $412 reversed $336 $-1 #
edge $-1 $487 -67.598498489333778 $415 67.598498489333778 $411 $488 forward 7 unknown #
coedge $-1 $406 $341 $486 $489 forward $357 $-1 #
coedge $-1 $341 $354 $483 $490 forward $357 $-1 #
vertex $-1 $342 $491 #
vertex $-1 $342 $492 #
straight-curve $-1 67.598498489333778 -41.194335788070255 -3.1461479828700911 0 1 0 I I #
coedge $-1 $493 $343 $356 $437 forward $420 $-1 #
coedge $-1 $343 $493 $345 $423 forward $420 $-1 #
loop $-1 $-1 $418 $470 #
straight-curve $-1 0 35.560436968912143 -9.2283278823648036 1 0 0 I I #
coedge $-1 $494 $345 $495 $496 reversed $281 $-1 #
edge $-1 $497 -35.560436968912143 $346 35.560436968912143 $345 $498 forward 7 unknown #
point $-1 -67.598498489333778 35.560436968912143 -9.2283278823648036 #
coedge $-1 $349 $474 $408 $482 reversed $281 $-1 #
coedge $-1 $409 $432 $349 $427 forward $471 $-1 #
edge $-1 $428 -9.2283278823648036 $484 3.1461479828700911 $349 $499 forward 7 unknown #
vertex $-1 $350 $500 #
straight-curve $-1 -67.598498489333778 0 9.2283278823648036 0 -1 0 I I #
face $-1 $-1 $357 $14 $-1 $501 reversed single #
plane-surface $-1 -67.598498489333778 0 0 1 0 0 0 0 -1 forward_v I I I I #
coedge $-1 $426 $483 $353 $433 reversed $471 $-1 #
edge $-1 $428 -67.598498489333778 $434 67.598498489333778 $432 $502 forward 7 unknown #
vertex $-1 $355 $503 #
straight-curve $-1 67.598498489333778 0 9.2283278823648036 0 1 0 I I #
coedge $-1 $356 $406 $504 $505 forward $357 $-1 #
edge $-1 $358 -35.560436968912143 $506 35.560436968912143 $356 $507 forward 7 unknown #
point $-1 67.598498489333778 35.560436968912143 -9.2283278823648036 #
face $-1 $508 $509 $15 $-1 $510 reversed single #
loop $-1 $-1 $511 $361 #
plane-surface $-1 0 -41.194335788070255 -6.1461479828700911 0 0 1 1 0 0 forward_v I I I I #
coedge $-1 $512 $513 $514 $515 forward $362 $-1 #
coedge $-1 $364 $373 $516 $517 reversed $215 $-1 #
coedge $-1 $518 $448 $364 $445 forward $519 $-1 #
edge $-1 $446 -3.5096238904990882 $520 9.2283278823648036 $364 $521 forward 7 unknown #
vertex $-1 $445 $522 #
straight-curve $-1 -28.791613046416078 35.560436968912143 3.5096238904990855 1 0 0 I I #
coedge $-1 $444 $523 $366 $449 forward $519 $-1 #
edge $-1 $524 37.523007470696633 $446 44.591714276337171 $448 $525 forward 7 unknown #
edge $-1 $368 18.776340649914456 $524 38.806885442917704 $370 $526 forward 7 unknown #
point $-1 -47.567953696330534 31.405555435399066 9.2283278823648018 #
coedge $-1 $527 $370 $523 $528 forward $293 $-1 #
coedge $-1 $371 $527 $529 $530 forward $293 $-1 #
coedge $-1 $529 $531 $373 $455 reversed $532 $-1 #
edge $-1 $456 -9.2283278823648036 $533 9.2283278823648036 $454 $534 forward 7 unknown #
vertex $-1 $530 $535 #
straight-curve $-1 0 35.560436968912143 9.2283278823648036 -1 0 0 I I #
plane-surface $-1 0 35.560436968912143 0 0 -1 0 0 0 -1 forward_v I I I I #
coedge $-1 $386 $380 $382 $461 forward $312 $-1 #
straight-curve $-1 0 -35.560436968912143 -9.2283278823648036 -1 0 0 I I #
edge $-1 $383 -35.560436968912143 $464 35.560436968912143 $382 $536 forward 7 unknown #
point $-1 -67.598498489333778 -35.560436968912143 -9.2283278823648036 #
vertex $-1 $398 $537 #
vertex $-1 $466 $538 #
straight-curve $-1 -67.598498489333778 35.560436968912143 0 0 0 -1 I I #
edge $-1 $464 -67.598498489333778 $387 67.598498489333778 $394 $539 forward 7 unknown #
point $-1 67.598498489333778 35.560436968912143 -9.2283278823648036 #
straight-curve $-1 -67.598498489333778 0 9.2283278823648036 0 -1 0 I I #
straight-curve $-1 0 35.560436968912143 9.2283278823648036 -1 0 0 I I #
face $-1 $351 $420 $14 $-1 $540 reversed single #
loop $-1 $-1 $409 $400 #
coedge $-1 $495 $504 $405 $478 forward $401 $-1 #
coedge $-1 $486 $403 $404 $477 reversed $336 $-1 #
coedge $-1 $425 $494 $403 $475 reversed $281 $-1 #
edge $-1 $487 -1.5 $541 1.5 $474 $542 forward 7 unknown #
coedge $-1 $405 $404 $494 $543 forward $273 $-1 #
edge $-1 $480 -67.598498489333778 $541 67.598498489333778 $473 $544 forward 7 unknown #
edge $-1 $479 -67.598498489333778 $545 67.598498489333778 $472 $546 forward 7 unknown #
vertex $-1 $505 $547 #
vertex $-1 $489 $548 #
straight-curve $-1 67.598498489333778 -41.194335788070255 -6.1461479828700911 0 -1 0 I I #
edge $-1 $484 -5.6338988191581123 $487 5.6338988191581123 $425 $549 forward 7 unknown #
coedge $-1 $432 $409 $414 $490 reversed $471 $-1 #
vertex $-1 $427 $550 #
straight-curve $-1 0 -35.560436968912143 -3.1461479828700911 1 0 0 I I #
coedge $-1 $411 $473 $413 $489 reversed $336 $-1 #
vertex $-1 $482 $551 #
straight-curve $-1 0 -46.828234607228367 -3.1461479828700911 1 0 0 I I #
edge $-1 $415 -1.5 $480 1.5 $413 $552 forward 7 unknown #
edge $-1 $434 -9.2283278823648036 $416 3.1461479828700911 $414 $553 forward 7 unknown #
point $-1 67.598498489333778 -46.828234607228367 -3.1461479828700911 #
point $-1 67.598498489333778 -35.560436968912143 -3.1461479828700911 #
coedge $-1 $419 $418 $554 $555 forward $420 $-1 #
coedge $-1 $474 $422 $476 $543 reversed $281 $-1 #
coedge $-1 $554 $472 $422 $496 forward $401 $-1 #
edge $-1 $545 6.1461479828700911 $497 9.2283278823648036 $422 $499 forward 7 unknown #
vertex $-1 $423 $556 #
straight-curve $-1 -67.598498489333778 0 -9.2283278823648036 0 1 0 I I #
straight-curve $-1 -67.598498489333778 -35.560436968912143 0 0 0 -1 I I #
point $-1 -67.598498489333778 -35.560436968912143 9.2283278823648036 #
plane-surface $-1 67.598498489333778 0 0 -1 0 0 0 0 1 forward_v I I I I #
straight-curve $-1 0 -35.560436968912143 9.2283278823648036 1 0 0 I I #
point $-1 67.598498489333778 -35.560436968912143 9.2283278823648036 #
coedge $-1 $472 $554 $436 $505 reversed $401 $-1 #
edge $-1 $479 6.1461479828700911 $506 9.2283278823648036 $436 $553 forward 7 unknown #
vertex $-1 $505 $557 #
straight-curve $-1 67.598498489333778 0 -9.2283278823648036 0 -1 0 I I #
face $-1 $558 $559 $15 $-1 $560 reversed single #
loop $-1 $-1 $561 $439 #
plane-surface $-1 0 -46.828234607228367 -4.6461479828700911 0 1 0 0 0 1 forward_v I I I I #
coedge $-1 $562 $563 $564 $565 forward $440 $-1 #
coedge $-1 $566 $442 $567 $568 reversed $362 $-1 #
coedge $-1 $442 $566 $569 $570 forward $362 $-1 #
coedge $-1 $571 $572 $442 $515 reversed $532 $-1 #
edge $-1 $573 -5.6338988191581123 $574 5.6338988191581123 $514 $575 forward 7 unknown #
coedge $-1 $576 $577 $443 $517 forward $578 $-1 #
edge $-1 $520 -67.598498489333778 $533 67.598498489333778 $443 $579 forward 7 unknown #
coedge $-1 $580 $444 $577 $581 reversed $519 $-1 #
loop $-1 $-1 $448 $582 #
vertex $-1 $517 $583 #
straight-curve $-1 -67.598498489333778 35.560436968912143 0 0 0 -1 I I #
point $-1 -67.598498489333778 35.560436968912143 3.5096238904990882 #
coedge $-1 $448 $584 $452 $528 reversed $519 $-1 #
vertex $-1 $528 $585 #
straight-curve $-1 -67.598498489333778 9.3500854451222146 39.585078913296172 0 0.5877852410284794 -0.80901700255871778 I I #
straight-curve $-1 -28.791613046416078 31.405555435399066 9.2283278823648089 -1 0 0 I I #
coedge $-1 $453 $452 $586 $587 forward $293 $-1 #
edge $-1 $524 -31.405555435399066 $588 35.560436968912143 $523 $589 forward 7 unknown #
coedge $-1 $572 $454 $453 $530 reversed $532 $-1 #
edge $-1 $590 -35.560436968912143 $456 35.560436968912143 $529 $591 forward 7 unknown #
coedge $-1 $454 $592 $576 $593 reversed $532 $-1 #
loop $-1 $-1 $572 $594 #
vertex $-1 $593 $595 #
straight-curve $-1 67.598498489333778 35.560436968912143 0 0 0 -1 I I #
point $-1 67.598498489333778 35.560436968912143 9.2283278823648036 #
straight-curve $-1 -67.598498489333778 0 -9.2283278823648036 0 1 0 I I #
point $-1 -67.598498489333778 35.560436968912143 9.2283278823648036 #
point $-1 -67.598498489333778 35.560436968912143 -9.2283278823648036 #
straight-curve $-1 0 35.560436968912143 -9.2283278823648036 1 0 0 I I #
plane-surface $-1 0 0 -9.2283278823648036 0 0 1 1 0 0 forward_v I I I I #
vertex $-1 $543 $596 #
straight-curve $-1 -67.598498489333778 -46.828234607228367 -4.6461479828700911 0 0 -1 I I #
edge $-1 $541 -5.6338988191581123 $545 5.6338988191581123 $494 $597 forward 7 unknown #
straight-curve $-1 0 -46.828234607228367 -6.1461479828700911 -1 0 0 I I #
vertex $-1 $496 $598 #
straight-curve $-1 0 -35.560436968912143 -6.1461479828700911 -1 0 0 I I #
point $-1 67.598498489333778 -35.560436968912143 -6.1461479828700911 #
point $-1 67.598498489333778 -46.828234607228367 -6.1461479828700911 #
straight-curve $-1 -67.598498489333778 -41.194335788070255 -3.1461479828700911 0 -1 0 I I #
point $-1 -67.598498489333778 -35.560436968912143 -3.1461479828700911 #
point $-1 -67.598498489333778 -46.828234607228367 -3.1461479828700911 #
straight-curve $-1 67.598498489333778 -46.828234607228367 -4.6461479828700911 0 0 -1 I I #
straight-curve $-1 67.598498489333778 -35.560436968912143 0 0 0 -1 I I #
coedge $-1 $504 $495 $493 $555 reversed $401 $-1 #
edge $-1 $506 -67.598498489333778 $497 67.598498489333778 $554 $599 forward 7 unknown #
point $-1 -67.598498489333778 -35.560436968912143 -9.2283278823648036 #
point $-1 67.598498489333778 -35.560436968912143 -9.2283278823648036 #
face $-1 $600 $601 $15 $-1 $560 reversed single #
loop $-1 $-1 $602 $508 #
plane-surface $-1 0 -35.560436968912143 0 0 1 0 0 0 1 forward_v I I I I #
coedge $-1 $603 $569 $604 $605 forward $509 $-1 #
coedge $-1 $606 $511 $603 $607 forward $440 $-1 #
coedge $-1 $511 $606 $602 $608 reversed $440 $-1 #
coedge $-1 $592 $571 $511 $565 reversed $532 $-1 #
edge $-1 $609 -5.6338988191581123 $610 5.6338988191581123 $564 $611 forward 7 unknown #
coedge $-1 $513 $512 $612 $613 forward $362 $-1 #
coedge $-1 $614 $615 $512 $568 forward $601 $-1 #
edge $-1 $616 -67.598498489333778 $574 67.598498489333778 $567 $617 forward 7 unknown #
coedge $-1 $561 $618 $513 $570 reversed $509 $-1 #
edge $-1 $619 -67.598498489333778 $573 67.598498489333778 $569 $620 forward 7 unknown #
coedge $-1 $564 $514 $618 $621 forward $532 $-1 #
coedge $-1 $514 $529 $614 $622 forward $532 $-1 #
vertex $-1 $515 $623 #
vertex $-1 $515 $624 #
straight-curve $-1 67.598498489333778 -41.194335788070255 -3.1461479828700911 0 1 0 I I #
coedge $-1 $625 $516 $531 $593 forward $578 $-1 #
coedge $-1 $516 $625 $518 $581 forward $578 $-1 #
loop $-1 $-1 $576 $600 #
straight-curve $-1 0 35.560436968912143 -9.2283278823648036 1 0 0 I I #
coedge $-1 $626 $518 $627 $628 reversed $519 $-1 #
edge $-1 $629 -35.560436968912143 $520 35.560436968912143 $518 $630 forward 7 unknown #
face $-1 $594 $519 $15 $-1 $631 reversed single #
point $-1 -67.598498489333778 35.560436968912143 -9.2283278823648036 #
coedge $-1 $523 $612 $615 $632 reversed $519 $-1 #
point $-1 -67.598498489333778 31.405555435399066 9.2283278823648018 #
coedge $-1 $615 $614 $527 $587 reversed $601 $-1 #
edge $-1 $588 -67.598498489333778 $590 67.598498489333778 $586 $633 forward 7 unknown #
vertex $-1 $528 $634 #
straight-curve $-1 -67.598498489333778 0 9.2283278823648036 0 -1 0 I I #
vertex $-1 $530 $635 #
straight-curve $-1 67.598498489333778 0 9.2283278823648036 0 1 0 I I #
coedge $-1 $531 $564 $636 $637 forward $532 $-1 #
edge $-1 $533 -35.560436968912143 $638 35.560436968912143 $531 $639 forward 7 unknown #
face $-1 $-1 $532 $15 $-1 $640 reversed single #
point $-1 67.598498489333778 35.560436968912143 -9.2283278823648036 #
point $-1 -67.598498489333778 -46.828234607228367 -6.1461479828700911 #
straight-curve $-1 -67.598498489333778 -41.194335788070255 -6.1461479828700911 0 1 0 I I #
point $-1 -67.598498489333778 -35.560436968912143 -6.1461479828700911 #
straight-curve $-1 0 -35.560436968912143 -9.2283278823648036 -1 0 0 I I #
face $-1 $582 $578 $15 $-1 $641 reversed single #
loop $-1 $-1 $567 $558 #
coedge $-1 $627 $636 $563 $608 forward $559 $-1 #
coedge $-1 $618 $561 $562 $607 reversed $509 $-1 #
coedge $-1 $612 $626 $561 $605 reversed $519 $-1 #
edge $-1 $619 -1.5 $642 1.5 $604 $643 forward 7 unknown #
coedge $-1 $563 $562 $626 $644 forward $440 $-1 #
edge $-1 $610 -67.598498489333778 $642 67.598498489333778 $603 $645 forward 7 unknown #
edge $-1 $609 -67.598498489333778 $646 67.598498489333778 $602 $647 forward 7 unknown #
vertex $-1 $637 $648 #
vertex $-1 $621 $649 #
straight-curve $-1 67.598498489333778 -41.194335788070255 -6.1461479828700911 0 -1 0 I I #
coedge $-1 $584 $604 $566 $613 reversed $519 $-1 #
edge $-1 $616 -5.6338988191581123 $619 5.6338988191581123 $612 $650 forward 7 unknown #
coedge $-1 $586 $567 $572 $622 reversed $601 $-1 #
coedge $-1 $567 $586 $584 $632 forward $601 $-1 #
vertex $-1 $632 $651 #
straight-curve $-1 0 -35.560436968912143 -3.1461479828700911 1 0 0 I I #
coedge $-1 $569 $603 $571 $621 reversed $509 $-1 #
vertex $-1 $613 $652 #
straight-curve $-1 0 -46.828234607228367 -3.1461479828700911 1 0 0 I I #
edge $-1 $573 -1.5 $610 1.5 $571 $653 forward 7 unknown #
edge $-1 $590 -9.2283278823648036 $574 3.1461479828700911 $572 $654 forward 7 unknown #
point $-1 67.598498489333778 -46.828234607228367 -3.1461479828700911 #
point $-1 67.598498489333778 -35.560436968912143 -3.1461479828700911 #
coedge $-1 $577 $576 $655 $656 forward $578 $-1 #
coedge $-1 $604 $580 $606 $644 reversed $519 $-1 #
coedge $-1 $655 $602 $580 $628 forward $559 $-1 #
edge $-1 $646 6.1461479828700911 $629 9.2283278823648036 $580 $657 forward 7 unknown #
vertex $-1 $581 $658 #
straight-curve $-1 -67.598498489333778 0 -9.2283278823648036 0 1 0 I I #
plane-surface $-1 -67.598498489333778 0 0 1 0 0 0 0 -1 forward_v I I I I #
edge $-1 $588 -9.2283278823648036 $616 3.1461479828700911 $584 $657 forward 7 unknown #
straight-curve $-1 0 -35.560436968912143 9.2283278823648036 1 0 0 I I #
point $-1 -67.598498489333778 -35.560436968912143 9.2283278823648036 #
point $-1 67.598498489333778 -35.560436968912143 9.2283278823648036 #
coedge $-1 $602 $655 $592 $637 reversed $559 $-1 #
edge $-1 $609 6.1461479828700911 $638 9.2283278823648036 $592 $654 forward 7 unknown #
vertex $-1 $637 $659 #
straight-curve $-1 67.598498489333778 0 -9.2283278823648036 0 -1 0 I I #
plane-surface $-1 67.598498489333778 0 0 -1 0 0 0 0 1 forward_v I I I I #
plane-surface $-1 0 0 -9.2283278823648036 0 0 1 1 0 0 forward_v I I I I #
vertex $-1 $644 $660 #
straight-curve $-1 -67.598498489333778 -46.828234607228367 -4.6461479828700911 0 0 -1 I I #
edge $-1 $642 -5.6338988191581123 $646 5.6338988191581123 $626 $661 forward 7 unknown #
straight-curve $-1 0 -46.828234607228367 -6.1461479828700911 -1 0 0 I I #
vertex $-1 $628 $662 #
straight-curve $-1 0 -35.560436968912143 -6.1461479828700911 -1 0 0 I I #
point $-1 67.598498489333778 -35.560436968912143 -6.1461479828700911 #
point $-1 67.598498489333778 -46.828234607228367 -6.1461479828700911 #
straight-curve $-1 -67.598498489333778 -41.194335788070255 -3.1461479828700911 0 -1 0 I I #
point $-1 -67.598498489333778 -35.560436968912143 -3.1461479828700911 #
point $-1 -67.598498489333778 -46.828234607228367 -3.1461479828700911 #
straight-curve $-1 67.598498489333778 -46.828234607228367 -4.6461479828700911 0 0 -1 I I #
straight-curve $-1 67.598498489333778 -35.560436968912143 0 0 0 -1 I I #
coedge $-1 $636 $627 $625 $656 reversed $559 $-1 #
edge $-1 $638 -67.598498489333778 $629 67.598498489333778 $655 $663 forward 7 unknown #
straight-curve $-1 -67.598498489333778 -35.560436968912143 0 0 0 -1 I I #
point $-1 -67.598498489333778 -35.560436968912143 -9.2283278823648036 #
point $-1 67.598498489333778 -35.560436968912143 -9.2283278823648036 #
point $-1 -67.598498489333778 -46.828234607228367 -6.1461479828700911 #
straight-curve $-1 -67.598498489333778 -41.194335788070255 -6.1461479828700911 0 1 0 I I #
point $-1 -67.598498489333778 -35.560436968912143 -6.1461479828700911 #
straight-curve $-1 0 -35.560436968912143 -9.2283278823648036 -1 0 0 I I #
End-of-ACIS-data 