500 0 10 0           
7 Unknown 11 ACIS 5.0 NT 24 Fri Mar 26 01:14:12 1999 
-1 9.9999999999999995e-007 1e-010 
body $-1 $10 $-1 $11 #
body $-1 $12 $-1 $13 #
body $-1 $14 $-1 $15 #
body $-1 $16 $-1 $17 #
body $-1 $18 $-1 $19 #
body $-1 $20 $-1 $21 #
body $-1 $22 $-1 $23 #
body $-1 $24 $-1 $25 #
body $-1 $26 $-1 $27 #
body $-1 $28 $-1 $29 #
lump $-1 $-1 $30 $0 #
transform $-1 1 0 0 0 1 0 0 0 1 72.405774101992847 42.867612392621247 18.135039612613777 1 rotate no_reflect no_shear #
lump $-1 $-1 $31 $1 #
transform $-1 1 0 0 0 1 0 0 0 1 72.405774101992847 42.867612392621247 18.135039612613777 1 rotate no_reflect no_shear #
lump $-1 $-1 $32 $2 #
transform $-1 1 0 0 0 1 0 0 0 1 72.405774101992847 42.867612392621247 18.135039612613777 1 rotate no_reflect no_shear #
lump $-1 $-1 $33 $3 #
transform $-1 1 0 0 0 1 0 0 0 1 72.405774101992847 42.867612392621247 18.135039612613777 1 rotate no_reflect no_shear #
lump $-1 $-1 $34 $4 #
transform $-1 1 0 0 0 1 0 0 0 1 72.405774101992847 42.867612392621247 18.135039612613777 1 rotate no_reflect no_shear #
lump $-1 $-1 $35 $5 #
transform $-1 1 0 0 0 1 0 0 0 1 72.405774101992847 42.867612392621247 18.135039612613777 1 rotate no_reflect no_shear #
lump $-1 $-1 $36 $6 #
transform $-1 1 0 0 0 1 0 0 0 1 72.405774101992847 42.867612392621247 18.135039612613777 1 rotate no_reflect no_shear #
lump $-1 $-1 $37 $7 #
transform $-1 1 0 0 0 1 0 0 0 1 72.405774101992847 42.867612392621247 18.135039612613777 1 rotate no_reflect no_shear #
lump $-1 $-1 $38 $8 #
transform $-1 1 0 0 0 1 0 0 0 1 72.405774101992847 42.867612392621247 18.135039612613777 1 rotate no_reflect no_shear #
lump $-1 $-1 $39 $9 #
transform $-1 1 0 0 0 1 0 0 0 1 72.405774101992847 42.867612392621247 18.135039612613777 1 rotate no_reflect no_shear #
shell $-1 $-1 $-1 $40 $-1 $10 #
shell $-1 $-1 $-1 $41 $-1 $12 #
shell $-1 $-1 $-1 $42 $-1 $14 #
shell $-1 $-1 $-1 $43 $-1 $16 #
shell $-1 $-1 $-1 $44 $-1 $18 #
shell $-1 $-1 $-1 $45 $-1 $20 #
shell $-1 $-1 $-1 $46 $-1 $22 #
shell $-1 $-1 $-1 $47 $-1 $24 #
shell $-1 $-1 $-1 $48 $-1 $26 #
shell $-1 $-1 $-1 $49 $-1 $28 #
face $-1 $50 $51 $30 $-1 $52 forward single #
face $-1 $53 $54 $31 $-1 $55 reversed single #
face $-1 $56 $57 $32 $-1 $58 forward single #
face $-1 $59 $60 $33 $-1 $61 forward single #
face $-1 $62 $63 $34 $-1 $64 reversed single #
face $-1 $65 $66 $35 $-1 $67 forward single #
face $-1 $68 $69 $36 $-1 $70 forward single #
face $-1 $71 $72 $37 $-1 $73 reversed single #
face $-1 $74 $75 $38 $-1 $76 forward single #
face $-1 $77 $78 $39 $-1 $79 forward single #
face $-1 $80 $81 $30 $-1 $82 reversed single #
loop $-1 $-1 $83 $40 #
plane-surface $-1 0 0 18.135039612613777 0 0 1 1 0 0 forward_v I I I I #
face $-1 $84 $85 $31 $-1 $86 reversed single #
loop $-1 $-1 $87 $41 #
plane-surface $-1 125.41048256623753 -9.26152638723444 202.807531759353 0 -1 0 -0.86602541151947299 0 -0.49999998660252726 forward_v I I I I #
face $-1 $88 $89 $32 $-1 $90 forward single #
loop $-1 $91 $92 $42 #
cone-surface $-1 67.697673651977865 -18.660408656525075 11.035562943920272 -0.86602541151947299 0 -0.49999998660252726 0.49999998660252726 0 -0.86602541151947299 1 I I 0 1 1 forward I I I I #
face $-1 $93 $94 $33 $-1 $95 forward single #
loop $-1 $96 $97 $43 #
cone-surface $-1 67.697673651977865 -13.021079294950695 11.035562943920272 -0.86602541151947299 0 -0.49999998660252726 0.49999998660252726 0 -0.86602541151947299 1 I I 0 1 1 forward I I I I #
face $-1 $98 $99 $34 $-1 $100 reversed single #
loop $-1 $-1 $101 $44 #
plane-surface $-1 125.41048256623753 22.41996156424133 202.807531759353 0 -1 0 -0.86602541151947299 0 -0.49999998660252726 forward_v I I I I #
face $-1 $102 $103 $35 $-1 $104 forward single #
loop $-1 $105 $106 $45 #
cone-surface $-1 67.697673651977865 13.021079294950702 11.035562943920272 -0.86602541151947299 0 -0.49999998660252726 0.49999998660252726 0 -0.86602541151947299 1 I I 0 1 1 forward I I I I #
face $-1 $107 $108 $36 $-1 $109 forward single #
loop $-1 $110 $111 $46 #
cone-surface $-1 67.697673651977865 18.660408656525078 11.035562943920272 -0.86602541151947299 0 -0.49999998660252726 0.49999998660252726 0 -0.86602541151947299 1 I I 0 1 1 forward I I I I #
face $-1 $112 $113 $37 $-1 $114 reversed single #
loop $-1 $-1 $115 $47 #
plane-surface $-1 -191.02845102781384 -15.594142462038231 93.956222047952409 0 1 0 -0.81915205242281985 0 0.57357642473473569 forward_v I I I I #
face $-1 $116 $117 $38 $-1 $118 forward single #
loop $-1 $119 $120 $48 #
cone-surface $-1 -68.465935905326191 -12.367984066084869 13.531363593916872 0.81915205242281985 0 -0.57357642473473569 0.86036463710210354 0 1.2287280786342298 1 I I 0 1 1.5 forward I I I I #
face $-1 $121 $122 $39 $-1 $123 forward single #
loop $-1 $124 $125 $49 #
cone-surface $-1 -68.465935905326191 -7.5287464721548147 13.531363593916872 0.81915205242281985 0 -0.57357642473473569 0.86036463710210354 0 1.2287280786342298 1 I I 0 1 1.5 forward I I I I #
face $-1 $126 $127 $30 $-1 $128 reversed single #
loop $-1 $-1 $129 $50 #
plane-surface $-1 0 0 -18.135039612613777 0 0 1 1 0 0 forward_v I I I I #
coedge $-1 $130 $131 $132 $133 forward $51 $-1 #
face $-1 $134 $135 $31 $-1 $136 reversed single #
loop $-1 $-1 $137 $53 #
plane-surface $-1 1.9401088167114722e-006 -15.840743975737883 130.40175959746892 0.86602541151947299 0 0.49999998660252726 0.49999998660252726 0 -0.86602541151947299 forward_v I I I I #
coedge $-1 $138 $139 $140 $141 reversed $54 $-1 #
face $-1 $-1 $142 $32 $-1 $143 forward single #
loop $-1 $144 $145 $56 #
cone-surface $-1 66.350837232848221 -18.660408656525075 10.257966602562252 -0.86602541151947299 0 -0.49999998660252726 0.24999999330126363 0 -0.43301270575973649 1 I I -0.70710678118654746 0.70710678118654746 0.5 forward I I I I #
loop $-1 $-1 $146 $42 #
coedge $-1 $92 $92 $147 $148 reversed $57 $-1 #
face $-1 $-1 $149 $33 $-1 $150 forward single #
loop $-1 $151 $152 $59 #
cone-surface $-1 66.350837232848221 -13.021079294950695 10.257966602562252 -0.86602541151947299 0 -0.49999998660252726 0.24999999330126363 0 -0.43301270575973649 1 I I -0.70710678118654746 0.70710678118654746 0.5 forward I I I I #
loop $-1 $-1 $153 $43 #
coedge $-1 $97 $97 $154 $155 reversed $60 $-1 #
face $-1 $156 $157 $34 $-1 $158 reversed single #
loop $-1 $-1 $159 $62 #
plane-surface $-1 1.9401088167114722e-006 15.840743975737887 130.40175959746892 0.86602541151947299 0 0.49999998660252726 0.49999998660252726 0 -0.86602541151947299 forward_v I I I I #
coedge $-1 $160 $161 $162 $163 reversed $63 $-1 #
face $-1 $-1 $164 $35 $-1 $165 forward single #
loop $-1 $166 $167 $65 #
cone-surface $-1 66.350837232848221 13.021079294950702 10.257966602562252 -0.86602541151947299 0 -0.49999998660252726 0.24999999330126363 0 -0.43301270575973649 1 I I -0.70710678118654746 0.70710678118654746 0.5 forward I I I I #
loop $-1 $-1 $168 $45 #
coedge $-1 $106 $106 $169 $170 reversed $66 $-1 #
face $-1 $-1 $171 $36 $-1 $172 forward single #
loop $-1 $173 $174 $68 #
cone-surface $-1 66.350837232848221 18.660408656525078 10.257966602562252 -0.86602541151947299 0 -0.49999998660252726 0.24999999330126363 0 -0.43301270575973649 1 I I -0.70710678118654746 0.70710678118654746 0.5 forward I I I I #
loop $-1 $-1 $175 $46 #
coedge $-1 $111 $111 $176 $177 reversed $69 $-1 #
face $-1 $178 $179 $37 $-1 $180 reversed single #
loop $-1 $-1 $181 $71 #
plane-surface $-1 -72.405774101992847 -9.9483652691198401 10.895731968808462 -0.81915205242281985 0 0.57357642473473569 0.57357642473473569 0 0.81915205242281985 forward_v I I I I #
coedge $-1 $182 $183 $184 $185 reversed $72 $-1 #
face $-1 $-1 $186 $38 $-1 $187 forward single #
loop $-1 $188 $189 $74 #
cone-surface $-1 -66.446242484651748 -12.367984066084869 12.117159078571575 0.81915205242281985 0 -0.57357642473473569 0.43018231855105177 0 0.61436403931711492 1 I I -0.70710678118654757 0.70710678118654757 0.75 forward I I I I #
loop $-1 $-1 $190 $48 #
coedge $-1 $120 $120 $191 $192 reversed $75 $-1 #
face $-1 $-1 $193 $39 $-1 $194 forward single #
loop $-1 $195 $196 $77 #
cone-surface $-1 -66.446242484651748 -7.5287464721548147 12.117159078571575 0.81915205242281985 0 -0.57357642473473569 0.43018231855105177 0 0.61436403931711492 1 I I -0.70710678118654757 0.70710678118654757 0.75 forward I I I I #
loop $-1 $-1 $197 $49 #
coedge $-1 $125 $125 $198 $199 reversed $78 $-1 #
face $-1 $200 $201 $30 $-1 $202 reversed single #
loop $-1 $-1 $203 $80 #
plane-surface $-1 0 -42.867612392621247 0 0 1 0 0 0 1 forward_v I I I I #
coedge $-1 $204 $205 $206 $207 forward $81 $-1 #
coedge $-1 $208 $83 $209 $210 forward $51 $-1 #
coedge $-1 $83 $208 $211 $212 forward $51 $-1 #
coedge $-1 $213 $214 $83 $133 reversed $215 $-1 #
edge $-1 $216 -42.867612392621247 $217 42.867612392621247 $132 $218 forward 7 unknown #
face $-1 $219 $220 $31 $-1 $221 forward single #
loop $-1 $-1 $222 $84 #
plane-surface $-1 125.41048256623753 -22.419961564241326 202.807531759353 0 1 0 0.86602541151947299 0 0.49999998660252726 forward_v I I I I #
coedge $-1 $223 $224 $225 $226 reversed $85 $-1 #
coedge $-1 $139 $87 $227 $228 reversed $54 $-1 #
coedge $-1 $87 $138 $223 $229 reversed $54 $-1 #
coedge $-1 $225 $230 $87 $141 forward $220 $-1 #
edge $-1 $231 -9.7005328188740805 $232 -2.1119793455840039 $140 $233 forward 7 unknown #
loop $-1 $-1 $147 $88 #
plane-surface $-1 1.9401088167114722e-006 -15.840743975737883 130.40175959746892 0.86602541151947299 0 0.49999998660252726 0.49999998660252726 0 -0.86602541151947299 forward_v I I I I #
loop $-1 $-1 $234 $56 #
coedge $-1 $145 $145 $146 $235 reversed $89 $-1 #
coedge $-1 $146 $146 $145 $235 forward $91 $-1 #
coedge $-1 $147 $147 $92 $148 forward $142 $-1 #
edge $-1 $236 0 $236 6.2831853071796004 $147 $237 forward 7 unknown #
loop $-1 $-1 $154 $93 #
plane-surface $-1 1.9401088167114722e-006 -15.840743975737883 130.40175959746892 0.86602541151947299 0 0.49999998660252726 0.49999998660252726 0 -0.86602541151947299 forward_v I I I I #
loop $-1 $-1 $238 $59 #
coedge $-1 $152 $152 $153 $239 reversed $94 $-1 #
coedge $-1 $153 $153 $152 $239 forward $96 $-1 #
coedge $-1 $154 $154 $97 $155 forward $149 $-1 #
edge $-1 $240 0 $240 6.2831853071796004 $154 $241 forward 7 unknown #
face $-1 $242 $243 $34 $-1 $244 reversed single #
loop $-1 $-1 $245 $98 #
plane-surface $-1 125.41048256623753 9.2615263872344435 202.807531759353 0 1 0 0.86602541151947299 0 0.49999998660252726 forward_v I I I I #
coedge $-1 $246 $247 $248 $249 reversed $99 $-1 #
coedge $-1 $161 $101 $250 $251 reversed $63 $-1 #
coedge $-1 $101 $160 $246 $252 reversed $63 $-1 #
coedge $-1 $248 $253 $101 $163 forward $254 $-1 #
edge $-1 $255 -9.7005328188740805 $256 -2.1119793455840039 $162 $257 forward 7 unknown #
loop $-1 $-1 $169 $102 #
plane-surface $-1 1.9401088167114722e-006 15.840743975737887 130.40175959746892 0.86602541151947299 0 0.49999998660252726 0.49999998660252726 0 -0.86602541151947299 forward_v I I I I #
loop $-1 $-1 $258 $65 #
coedge $-1 $167 $167 $168 $259 reversed $103 $-1 #
coedge $-1 $168 $168 $167 $259 forward $105 $-1 #
coedge $-1 $169 $169 $106 $170 forward $164 $-1 #
edge $-1 $260 0 $260 6.2831853071796004 $169 $261 forward 7 unknown #
loop $-1 $-1 $176 $107 #
plane-surface $-1 1.9401088167114722e-006 15.840743975737887 130.40175959746892 0.86602541151947299 0 0.49999998660252726 0.49999998660252726 0 -0.86602541151947299 forward_v I I I I #
loop $-1 $-1 $262 $68 #
coedge $-1 $174 $174 $175 $263 reversed $108 $-1 #
coedge $-1 $175 $175 $174 $263 forward $110 $-1 #
coedge $-1 $176 $176 $111 $177 forward $171 $-1 #
edge $-1 $264 0 $264 6.2831853071796004 $176 $265 forward 7 unknown #
face $-1 $266 $267 $37 $-1 $268 reversed single #
loop $-1 $-1 $269 $112 #
plane-surface $-1 -191.02845102781384 -4.3025880762014488 93.956222047952409 0 -1 0 0.81915205242281985 0 -0.57357642473473569 forward_v I I I I #
coedge $-1 $270 $271 $272 $273 reversed $113 $-1 #
coedge $-1 $183 $115 $274 $275 reversed $72 $-1 #
coedge $-1 $115 $182 $270 $276 reversed $72 $-1 #
coedge $-1 $272 $277 $115 $185 forward $278 $-1 #
edge $-1 $279 23.108451411914075 $280 28.177469042532692 $184 $281 forward 7 unknown #
loop $-1 $-1 $191 $116 #
plane-surface $-1 -72.405774101992847 -9.9483652691198401 10.895731968808462 -0.81915205242281985 0 0.57357642473473569 0.57357642473473569 0 0.81915205242281985 forward_v I I I I #
loop $-1 $-1 $282 $74 #
coedge $-1 $189 $189 $190 $283 reversed $117 $-1 #
coedge $-1 $190 $190 $189 $283 forward $119 $-1 #
coedge $-1 $191 $191 $120 $192 forward $186 $-1 #
edge $-1 $284 0 $284 6.2831853071796004 $191 $285 forward 7 unknown #
loop $-1 $-1 $198 $121 #
plane-surface $-1 -72.405774101992847 -9.9483652691198401 10.895731968808462 -0.81915205242281985 0 0.57357642473473569 0.57357642473473569 0 0.81915205242281985 forward_v I I I I #
loop $-1 $-1 $286 $77 #
coedge $-1 $196 $196 $197 $287 reversed $122 $-1 #
coedge $-1 $197 $197 $196 $287 forward $124 $-1 #
coedge $-1 $198 $198 $125 $199 forward $193 $-1 #
edge $-1 $288 0 $288 6.2831853071796004 $198 $289 forward 7 unknown #
face $-1 $290 $291 $30 $-1 $292 reversed single #
loop $-1 $-1 $293 $126 #
plane-surface $-1 -72.405774101992847 0 0 1 0 0 0 0 -1 forward_v I I I I #
coedge $-1 $294 $211 $295 $296 forward $127 $-1 #
coedge $-1 $297 $129 $294 $298 forward $81 $-1 #
coedge $-1 $129 $297 $299 $300 forward $81 $-1 #
coedge $-1 $214 $213 $129 $207 reversed $215 $-1 #
edge $-1 $301 -42.867612392621247 $302 42.867612392621247 $206 $303 forward 7 unknown #
coedge $-1 $131 $130 $304 $305 forward $51 $-1 #
coedge $-1 $306 $307 $130 $210 reversed $291 $-1 #
edge $-1 $217 -72.405774101992847 $308 72.405774101992847 $209 $309 forward 7 unknown #
coedge $-1 $203 $310 $131 $212 reversed $127 $-1 #
edge $-1 $311 -72.405774101992847 $216 72.405774101992847 $211 $312 forward 7 unknown #
coedge $-1 $206 $132 $310 $313 forward $215 $-1 #
coedge $-1 $132 $206 $306 $314 reversed $215 $-1 #
loop $-1 $-1 $213 $290 #
vertex $-1 $133 $315 #
vertex $-1 $133 $316 #
straight-curve $-1 72.405774101992847 0 18.135039612613777 0 1 0 I I #
face $-1 $-1 $317 $31 $-1 $318 reversed single #
loop $-1 $-1 $140 $134 #
plane-surface $-1 0 0 18.135039612613777 0 0 1 1 0 0 forward_v I I I I #
coedge $-1 $319 $320 $321 $322 reversed $135 $-1 #
coedge $-1 $323 $137 $139 $229 forward $85 $-1 #
coedge $-1 $137 $323 $319 $324 forward $85 $-1 #
coedge $-1 $321 $140 $137 $226 forward $220 $-1 #
edge $-1 $232 1.3411543993654984 $325 14.499589576372385 $225 $326 forward 7 unknown #
coedge $-1 $327 $328 $138 $228 forward $317 $-1 #
edge $-1 $329 -96.412486908336206 $231 -83.268726267062718 $227 $330 forward 7 unknown #
edge $-1 $232 129.63444085073567 $329 144.81154820398561 $139 $331 forward 7 unknown #
coedge $-1 $140 $321 $327 $332 forward $220 $-1 #
vertex $-1 $228 $333 #
vertex $-1 $141 $334 #
straight-curve $-1 62.705241283118767 -9.26152638723444 18.135039612613781 -1 0 0 I I #
coedge $-1 $234 $234 $-1 $335 reversed $144 $-1 #
edge $-1 $336 0 $336 6.2831853071796004 $145 $337 forward 7 unknown #
vertex $-1 $148 $338 #
ellipse-curve $-1 68.611497365347802 -18.660408656525075 11.563159291977048 0.86602541151947299 0 0.49999998660252726 0.49999998660252726 0 -0.86602541151947299 1 I I #
coedge $-1 $238 $238 $-1 $339 reversed $151 $-1 #
edge $-1 $340 0 $340 6.2831853071796004 $152 $341 forward 7 unknown #
vertex $-1 $155 $342 #
ellipse-curve $-1 68.611497365347802 -13.021079294950695 11.563159291977048 0.86602541151947299 0 0.49999998660252726 0.49999998660252726 0 -0.86602541151947299 1 I I #
face $-1 $-1 $254 $34 $-1 $343 forward single #
loop $-1 $-1 $344 $156 #
plane-surface $-1 72.405774101992847 0 0 -1 0 0 0 0 1 forward_v I I I I #
coedge $-1 $345 $346 $347 $348 reversed $157 $-1 #
coedge $-1 $349 $159 $161 $252 forward $99 $-1 #
coedge $-1 $159 $349 $345 $350 forward $99 $-1 #
coedge $-1 $347 $162 $159 $249 forward $254 $-1 #
edge $-1 $256 -14.499589576372387 $351 -1.3411543993655002 $248 $352 forward 7 unknown #
coedge $-1 $353 $354 $160 $251 forward $243 $-1 #
edge $-1 $355 -96.412486908336206 $255 -83.268726267062718 $250 $356 forward 7 unknown #
edge $-1 $256 129.63444085073567 $355 144.81154820398561 $161 $357 forward 7 unknown #
coedge $-1 $162 $347 $353 $358 forward $254 $-1 #
loop $-1 $-1 $347 $242 #
vertex $-1 $251 $359 #
vertex $-1 $163 $360 #
straight-curve $-1 62.705241283118767 22.41996156424133 18.135039612613781 -1 0 0 I I #
coedge $-1 $258 $258 $-1 $361 reversed $166 $-1 #
edge $-1 $362 0 $362 6.2831853071796004 $167 $363 forward 7 unknown #
vertex $-1 $170 $364 #
ellipse-curve $-1 68.611497365347802 13.021079294950702 11.563159291977048 0.86602541151947299 0 0.49999998660252726 0.49999998660252726 0 -0.86602541151947299 1 I I #
coedge $-1 $262 $262 $-1 $365 reversed $173 $-1 #
edge $-1 $366 0 $366 6.2831853071796004 $174 $367 forward 7 unknown #
vertex $-1 $177 $368 #
ellipse-curve $-1 68.611497365347802 18.660408656525078 11.563159291977048 0.86602541151947299 0 0.49999998660252726 0.49999998660252726 0 -0.86602541151947299 1 I I #
face $-1 $-1 $278 $37 $-1 $369 forward single #
loop $-1 $-1 $370 $178 #
plane-surface $-1 -72.405774101992847 0 0 1 0 0 0 0 -1 forward_v I I I I #
coedge $-1 $371 $372 $373 $374 reversed $179 $-1 #
coedge $-1 $375 $181 $183 $276 forward $113 $-1 #
coedge $-1 $181 $375 $371 $376 forward $113 $-1 #
coedge $-1 $373 $184 $181 $273 forward $278 $-1 #
edge $-1 $280 -10.619959827478311 $377 0.67159455835847126 $272 $378 forward 7 unknown #
coedge $-1 $379 $380 $182 $275 forward $267 $-1 #
edge $-1 $381 -36.082379055167742 $279 -28.843071411362427 $274 $382 forward 7 unknown #
edge $-1 $280 -8.8375627240308994 $381 0 $183 $383 forward 7 unknown #
coedge $-1 $184 $373 $379 $384 forward $278 $-1 #
loop $-1 $-1 $373 $266 #
vertex $-1 $275 $385 #
vertex $-1 $185 $386 #
straight-curve $-1 -95.514225513906922 -15.594142462038231 18.135039612613774 1 0 0 I I #
coedge $-1 $282 $282 $-1 $387 reversed $188 $-1 #
edge $-1 $388 0 $388 6.2831853071796004 $189 $389 forward 7 unknown #
vertex $-1 $192 $390 #
ellipse-curve $-1 -69.871265286683538 -12.367984066084869 14.515385790711125 -0.81915205242281985 0 0.57357642473473569 0.86036463710210354 0 1.2287280786342298 1 I I #
coedge $-1 $286 $286 $-1 $391 reversed $195 $-1 #
edge $-1 $392 0 $392 6.2831853071796004 $196 $393 forward 7 unknown #
vertex $-1 $199 $394 #
ellipse-curve $-1 -69.871265286683538 -7.5287464721548147 14.515385790711125 -0.81915205242281985 0 0.57357642473473569 0.86036463710210354 0 1.2287280786342298 1 I I #
face $-1 $-1 $215 $30 $-1 $395 reversed single #
loop $-1 $-1 $306 $200 #
plane-surface $-1 0 42.867612392621247 0 0 -1 0 0 0 -1 forward_v I I I I #
coedge $-1 $396 $304 $307 $397 forward $201 $-1 #
coedge $-1 $310 $203 $204 $298 reversed $127 $-1 #
coedge $-1 $304 $396 $203 $296 reversed $201 $-1 #
edge $-1 $311 -18.135039612613777 $398 18.135039612613777 $295 $399 forward 7 unknown #
coedge $-1 $205 $204 $396 $400 forward $81 $-1 #
edge $-1 $302 -72.405774101992847 $398 72.405774101992847 $294 $401 forward 7 unknown #
coedge $-1 $307 $306 $205 $300 reversed $291 $-1 #
edge $-1 $402 -72.405774101992847 $301 72.405774101992847 $299 $403 forward 7 unknown #
vertex $-1 $207 $404 #
vertex $-1 $313 $405 #
straight-curve $-1 72.405774101992847 0 -18.135039612613777 0 -1 0 I I #
coedge $-1 $293 $295 $208 $305 reversed $201 $-1 #
edge $-1 $308 -42.867612392621247 $311 42.867612392621247 $304 $406 forward 7 unknown #
coedge $-1 $299 $209 $214 $314 forward $291 $-1 #
coedge $-1 $209 $299 $293 $397 reversed $291 $-1 #
vertex $-1 $210 $407 #
straight-curve $-1 0 42.867612392621247 18.135039612613777 -1 0 0 I I #
coedge $-1 $211 $294 $213 $313 reversed $127 $-1 #
vertex $-1 $305 $408 #
straight-curve $-1 0 -42.867612392621247 18.135039612613777 1 0 0 I I #
edge $-1 $216 -18.135039612613777 $302 18.135039612613777 $213 $409 forward 7 unknown #
edge $-1 $217 -18.135039612613777 $301 18.135039612613777 $214 $410 forward 7 unknown #
point $-1 72.405774101992847 -42.867612392621247 18.135039612613777 #
point $-1 72.405774101992847 42.867612392621247 18.135039612613777 #
loop $-1 $-1 $227 $219 #
plane-surface $-1 72.405774101992847 0 0 -1 0 0 0 0 1 forward_v I I I I #
coedge $-1 $320 $222 $224 $324 reversed $135 $-1 #
coedge $-1 $222 $319 $411 $412 reversed $135 $-1 #
coedge $-1 $230 $225 $222 $322 forward $220 $-1 #
edge $-1 $325 2.1119793455840039 $413 9.7005328188740805 $321 $414 forward 7 unknown #
coedge $-1 $224 $223 $328 $415 reversed $85 $-1 #
edge $-1 $416 -144.81154820398561 $325 -129.63444085073567 $319 $417 forward 7 unknown #
vertex $-1 $226 $418 #
straight-curve $-1 64.817220628702756 -7.9203719878689416 18.135039612613781 0 -1 0 I I #
coedge $-1 $411 $227 $230 $332 reversed $317 $-1 #
coedge $-1 $227 $411 $323 $415 forward $317 $-1 #
vertex $-1 $228 $419 #
straight-curve $-1 72.405774101992847 -9.26152638723444 101.4037658796765 0 0 1 I I #
straight-curve $-1 1.9401088167114722e-006 -9.26152638723444 130.40175959746892 0.49999998660252726 0 -0.86602541151947299 I I #
edge $-1 $413 -22.419961564241326 $231 -9.26152638723444 $327 $420 forward 7 unknown #
point $-1 72.405774101992847 -9.26152638723444 18.135039612613777 #
point $-1 64.817220628702771 -9.26152638723444 18.135039612613781 #
edge $-1 $421 1 $421 0 $234 $-1 forward 7 unknown #
vertex $-1 $235 $422 #
ellipse-curve $-1 66.783849938607958 -18.660408656525075 10.507966595863516 0.86602541151947299 0 0.49999998660252726 0.49999998660252726 0 -0.86602541151947299 1 I I #
point $-1 69.111497351950291 -18.660408656525075 10.697133880457553 #
edge $-1 $423 1 $423 0 $238 $-1 forward 7 unknown #
vertex $-1 $239 $424 #
ellipse-curve $-1 66.783849938607958 -13.021079294950695 10.507966595863516 0.86602541151947299 0 0.49999998660252726 0.49999998660252726 0 -0.86602541151947299 1 I I #
point $-1 69.111497351950291 -13.021079294950695 10.697133880457553 #
plane-surface $-1 0 0 18.135039612613777 0 0 1 1 0 0 forward_v I I I I #
coedge $-1 $354 $353 $346 $425 forward $243 $-1 #
coedge $-1 $346 $245 $247 $350 reversed $157 $-1 #
coedge $-1 $245 $345 $344 $425 reversed $157 $-1 #
coedge $-1 $253 $248 $245 $348 forward $254 $-1 #
edge $-1 $351 2.1119793455840039 $426 9.7005328188740805 $347 $427 forward 7 unknown #
coedge $-1 $247 $246 $354 $428 reversed $99 $-1 #
edge $-1 $429 -144.81154820398561 $351 -129.63444085073567 $345 $430 forward 7 unknown #
vertex $-1 $249 $431 #
straight-curve $-1 64.817220628702756 7.9203719878689434 18.135039612613781 0 -1 0 I I #
coedge $-1 $344 $250 $253 $358 reversed $243 $-1 #
coedge $-1 $250 $344 $349 $428 forward $243 $-1 #
vertex $-1 $251 $432 #
straight-curve $-1 72.405774101992847 22.41996156424133 101.4037658796765 0 0 1 I I #
straight-curve $-1 1.9401088167114722e-006 22.41996156424133 130.40175959746892 0.49999998660252726 0 -0.86602541151947299 I I #
edge $-1 $426 9.2615263872344435 $255 22.41996156424133 $353 $433 forward 7 unknown #
point $-1 72.405774101992847 22.41996156424133 18.135039612613777 #
point $-1 64.817220628702771 22.41996156424133 18.135039612613781 #
edge $-1 $434 1 $434 0 $258 $-1 forward 7 unknown #
vertex $-1 $259 $435 #
ellipse-curve $-1 66.783849938607958 13.021079294950702 10.507966595863516 0.86602541151947299 0 0.49999998660252726 0.49999998660252726 0 -0.86602541151947299 1 I I #
point $-1 69.111497351950291 13.021079294950702 10.697133880457553 #
edge $-1 $436 1 $436 0 $262 $-1 forward 7 unknown #
vertex $-1 $263 $437 #
ellipse-curve $-1 66.783849938607958 18.660408656525078 10.507966595863516 0.86602541151947299 0 0.49999998660252726 0.49999998660252726 0 -0.86602541151947299 1 I I #
point $-1 69.111497351950291 18.660408656525078 10.697133880457553 #
plane-surface $-1 0 0 18.135039612613777 0 0 1 1 0 0 forward_v I I I I #
coedge $-1 $380 $379 $372 $438 forward $267 $-1 #
coedge $-1 $372 $269 $271 $376 reversed $179 $-1 #
coedge $-1 $269 $371 $370 $438 reversed $179 $-1 #
coedge $-1 $277 $272 $269 $374 forward $278 $-1 #
edge $-1 $377 -28.177469042532692 $439 -23.108451411914075 $373 $440 forward 7 unknown #
coedge $-1 $271 $270 $380 $441 reversed $113 $-1 #
edge $-1 $442 0 $377 8.8375627240308994 $371 $443 forward 7 unknown #
vertex $-1 $273 $444 #
straight-curve $-1 -67.336756471374244 -4.97418263455992 18.135039612613777 0 1 0 I I #
coedge $-1 $370 $274 $277 $384 reversed $267 $-1 #
coedge $-1 $274 $370 $375 $441 forward $267 $-1 #
vertex $-1 $275 $445 #
straight-curve $-1 -72.405774101992847 -15.594142462038231 46.978111023976204 0 0 1 I I #
straight-curve $-1 -72.405774101992847 -15.594142462038231 10.895731968808462 -0.57357642473473569 0 -0.81915205242281985 I I #
edge $-1 $439 4.3025880762014488 $279 15.594142462038231 $379 $446 forward 7 unknown #
point $-1 -72.405774101992847 -15.594142462038231 18.135039612613777 #
point $-1 -67.33675647137423 -15.594142462038231 18.135039612613777 #
edge $-1 $447 1 $447 0 $282 $-1 forward 7 unknown #
vertex $-1 $283 $448 #
ellipse-curve $-1 -67.060606523968858 -12.367984066084869 12.547341397122628 -0.81915205242281985 0 0.57357642473473569 0.86036463710210354 0 1.2287280786342298 1 I I #
point $-1 -69.01090064958143 -12.367984066084869 15.744113869345345 #
edge $-1 $449 1 $449 0 $286 $-1 forward 7 unknown #
vertex $-1 $287 $450 #
ellipse-curve $-1 -67.060606523968858 -7.5287464721548147 12.547341397122628 -0.81915205242281985 0 0.57357642473473569 0.86036463710210354 0 1.2287280786342298 1 I I #
point $-1 -69.01090064958143 -7.5287464721548147 15.744113869345345 #
plane-surface $-1 72.405774101992847 0 0 -1 0 0 0 0 1 forward_v I I I I #
coedge $-1 $295 $293 $297 $400 reversed $201 $-1 #
edge $-1 $308 -18.135039612613777 $402 18.135039612613777 $307 $451 forward 7 unknown #
vertex $-1 $400 $452 #
straight-curve $-1 -72.405774101992847 -42.867612392621247 0 0 0 -1 I I #
edge $-1 $398 -42.867612392621247 $402 42.867612392621247 $396 $453 forward 7 unknown #
straight-curve $-1 0 -42.867612392621247 -18.135039612613777 -1 0 0 I I #
vertex $-1 $300 $454 #
straight-curve $-1 0 42.867612392621247 -18.135039612613777 1 0 0 I I #
point $-1 72.405774101992847 42.867612392621247 -18.135039612613777 #
point $-1 72.405774101992847 -42.867612392621247 -18.135039612613777 #
straight-curve $-1 -72.405774101992847 0 18.135039612613777 0 -1 0 I I #
point $-1 -72.405774101992847 42.867612392621247 18.135039612613777 #
point $-1 -72.405774101992847 -42.867612392621247 18.135039612613777 #
straight-curve $-1 72.405774101992847 -42.867612392621247 0 0 0 -1 I I #
straight-curve $-1 72.405774101992847 42.867612392621247 0 0 0 -1 I I #
coedge $-1 $328 $327 $320 $412 forward $317 $-1 #
edge $-1 $413 83.268726267062718 $416 96.412486908336206 $411 $455 forward 7 unknown #
vertex $-1 $332 $456 #
straight-curve $-1 62.705241283118767 -22.419961564241326 18.135039612613781 1 0 0 I I #
edge $-1 $416 -14.499589576372385 $329 -1.3411543993654984 $328 $457 forward 7 unknown #
vertex $-1 $415 $458 #
straight-curve $-1 1.9401088167114722e-006 -22.419961564241326 130.40175959746892 -0.49999998660252726 0 0.86602541151947299 I I #
point $-1 64.817220628702771 -22.419961564241326 18.135039612613781 #
point $-1 72.405774101992847 -9.26152638723444 4.991278971340293 #
straight-curve $-1 72.405774101992847 0 18.135039612613777 0 1 0 I I #
vertex $-1 $335 $459 #
point $-1 67.28384992521049 -18.660408656525075 9.6419411843440432 #
vertex $-1 $339 $460 #
point $-1 67.28384992521049 -13.021079294950695 9.6419411843440432 #
edge $-1 $426 83.268726267062718 $429 96.412486908336206 $344 $461 forward 7 unknown #
vertex $-1 $358 $462 #
straight-curve $-1 62.705241283118767 9.2615263872344435 18.135039612613781 1 0 0 I I #
edge $-1 $429 1.3411543993655002 $355 14.499589576372387 $354 $463 forward 7 unknown #
vertex $-1 $428 $464 #
straight-curve $-1 1.9401088167114722e-006 9.2615263872344435 130.40175959746892 -0.49999998660252726 0 0.86602541151947299 I I #
point $-1 64.817220628702771 9.2615263872344435 18.135039612613781 #
point $-1 72.405774101992847 22.41996156424133 4.991278971340293 #
straight-curve $-1 72.405774101992847 0 18.135039612613777 0 1 0 I I #
vertex $-1 $361 $465 #
point $-1 67.28384992521049 13.021079294950702 9.6419411843440432 #
vertex $-1 $365 $466 #
point $-1 67.28384992521049 18.660408656525078 9.6419411843440432 #
edge $-1 $439 28.843071411362427 $442 36.082379055167742 $370 $467 forward 7 unknown #
vertex $-1 $384 $468 #
straight-curve $-1 -95.514225513906922 -4.3025880762014488 18.135039612613774 -1 0 0 I I #
edge $-1 $442 -0.67159455835847126 $381 10.619959827478311 $380 $469 forward 7 unknown #
vertex $-1 $441 $470 #
straight-curve $-1 -72.405774101992847 -4.3025880762014488 10.895731968808462 0.57357642473473569 0 0.81915205242281985 I I #
point $-1 -67.33675647137423 -4.3025880762014488 18.135039612613777 #
point $-1 -72.405774101992847 -15.594142462038231 10.895731968808462 #
straight-curve $-1 -72.405774101992847 0 18.135039612613777 0 -1 0 I I #
vertex $-1 $387 $471 #
point $-1 -66.200241886866763 -12.367984066084869 13.776069475756856 #
vertex $-1 $391 $472 #
point $-1 -66.200241886866763 -7.5287464721548147 13.776069475756856 #
straight-curve $-1 -72.405774101992847 42.867612392621247 0 0 0 -1 I I #
point $-1 -72.405774101992847 -42.867612392621247 -18.135039612613777 #
straight-curve $-1 -72.405774101992847 0 -18.135039612613777 0 1 0 I I #
point $-1 -72.405774101992847 42.867612392621247 -18.135039612613777 #
straight-curve $-1 72.405774101992847 -22.419961564241326 101.4037658796765 0 0 -1 I I #
point $-1 72.405774101992847 -22.419961564241326 18.135039612613777 #
straight-curve $-1 72.405774101992847 -7.9203719878689416 4.991278971340293 0 1 0 I I #
point $-1 72.405774101992847 -22.419961564241326 4.991278971340293 #
point $-1 65.917824527088484 -18.660408656525075 10.007966609260988 #
point $-1 65.917824527088484 -13.021079294950695 10.007966609260988 #
straight-curve $-1 72.405774101992847 9.2615263872344435 101.4037658796765 0 0 -1 I I #
point $-1 72.405774101992847 9.2615263872344435 18.135039612613777 #
straight-curve $-1 72.405774101992847 7.9203719878689434 4.991278971340293 0 1 0 I I #
point $-1 72.405774101992847 9.2615263872344435 4.991278971340293 #
point $-1 65.917824527088484 13.021079294950702 10.007966609260988 #
point $-1 65.917824527088484 18.660408656525078 10.007966609260988 #
straight-curve $-1 -72.405774101992847 -4.3025880762014488 46.978111023976204 0 0 -1 I I #
point $-1 -72.405774101992847 -4.3025880762014488 18.135039612613777 #
straight-curve $-1 -72.405774101992847 -4.97418263455992 10.89573196880847 0 -1 0 I I #
point $-1 -72.405774101992847 -4.3025880762014488 10.895731968808462 #
point $-1 -65.831878445334638 -12.367984066084869 11.686976760020523 #
point $-1 -65.831878445334638 -7.5287464721548147 11.686976760020523 #
End-of-ACIS-data 