500 0 4 0           
7 Unknown 11 ACIS 5.0 NT 24 Fri Mar 26 17:18:30 1999 
-1 9.9999999999999995e-007 1e-010 
body $-1 $4 $-1 $5 #
body $-1 $6 $-1 $7 #
body $-1 $8 $-1 $9 #
body $-1 $10 $-1 $11 #
lump $-1 $-1 $12 $0 #
transform $-1 1 0 0 0 1 0 0 0 1 40.279549546800133 24.535896636532687 9.4222126214531219 1 rotate no_reflect no_shear #
lump $-1 $-1 $13 $1 #
transform $-1 1 0 0 0 1 0 0 0 1 40.279549546800133 24.535896636532687 9.4222126214531219 1 rotate no_reflect no_shear #
lump $-1 $-1 $14 $2 #
transform $-1 1 0 0 0 1 0 0 0 1 40.279549546800133 24.535896636532687 9.4222126214531219 1 rotate no_reflect no_shear #
lump $-1 $-1 $15 $3 #
transform $-1 1 0 0 0 1 0 0 0 1 40.279549546800133 24.535896636532687 9.4222126214531219 1 rotate no_reflect no_shear #
shell $-1 $-1 $-1 $16 $-1 $4 #
shell $-1 $-1 $-1 $17 $-1 $6 #
shell $-1 $-1 $-1 $18 $-1 $8 #
shell $-1 $-1 $-1 $19 $-1 $10 #
face $-1 $20 $21 $12 $-1 $22 forward single #
face $-1 $23 $24 $13 $-1 $25 reversed single #
face $-1 $26 $27 $14 $-1 $28 forward single #
face $-1 $29 $30 $15 $-1 $31 reversed single #
face $-1 $32 $33 $12 $-1 $34 reversed single #
loop $-1 $-1 $35 $16 #
plane-surface $-1 0 0 9.4222126214531219 0 0 1 1 0 0 forward_v I I I I #
face $-1 $36 $37 $13 $-1 $38 forward single #
loop $-1 $-1 $39 $17 #
plane-surface $-1 0 -20.507820945213343 2.296162180316939 0 0 1 1 0 0 forward_v I I I I #
face $-1 $40 $41 $14 $-1 $42 forward single #
loop $-1 $-1 $43 $18 #
plane-surface $-1 -29.803940997713507 23.964164123642444 98.751085214880121 -1 0 0 0 0.51503808176128008 0.85716729658548041 forward_v I I I I #
face $-1 $44 $45 $15 $-1 $46 reversed single #
loop $-1 $47 $48 $19 #
cone-surface $-1 -35.041745272256819 19.636483421943794 5.6906567854384829 0 -0.51503808176128008 -0.85716729658548041 1.5 0 0 1 I I 0 1 1.5 forward I I I I #
face $-1 $49 $50 $12 $-1 $51 reversed single #
loop $-1 $-1 $52 $20 #
plane-surface $-1 0 0 -9.4222126214531219 0 0 1 1 0 0 forward_v I I I I #
coedge $-1 $53 $54 $55 $56 forward $21 $-1 #
face $-1 $57 $58 $13 $-1 $59 forward single #
loop $-1 $-1 $60 $23 #
plane-surface $-1 0 -20.507820945213343 -0.70383781968306103 0 0 1 1 0 0 forward_v I I I I #
coedge $-1 $61 $62 $63 $64 reversed $24 $-1 #
face $-1 $65 $66 $14 $-1 $67 reversed single #
loop $-1 $-1 $68 $26 #
plane-surface $-1 -35.041745272256819 -17.526839741942315 29.698460029456953 0 0.51503808176128008 0.85716729658548041 1 0 0 forward_v I I I I #
coedge $-1 $69 $70 $71 $72 reversed $27 $-1 #
face $-1 $73 $74 $15 $-1 $75 forward single #
loop $-1 $76 $77 $29 #
cone-surface $-1 -35.041745272256819 18.509488870648777 3.8150229109556513 0 -0.51503808176128008 -0.85716729658548041 0.75 0 0 1 I I -0.70710678118654757 0.70710678118654757 0.75 forward I I I I #
loop $-1 $-1 $78 $19 #
coedge $-1 $48 $48 $79 $80 reversed $30 $-1 #
face $-1 $81 $82 $12 $-1 $83 reversed single #
loop $-1 $-1 $84 $32 #
plane-surface $-1 0 -24.535896636532687 0 0 1 0 0 0 1 forward_v I I I I #
coedge $-1 $85 $86 $87 $88 forward $33 $-1 #
coedge $-1 $89 $35 $90 $91 forward $21 $-1 #
coedge $-1 $35 $89 $92 $93 forward $21 $-1 #
coedge $-1 $94 $95 $35 $56 reversed $96 $-1 #
edge $-1 $97 -24.535896636532687 $98 24.535896636532687 $55 $99 forward 7 unknown #
face $-1 $100 $101 $13 $-1 $102 reversed single #
loop $-1 $-1 $103 $36 #
plane-surface $-1 0 -16.479745253893999 0.79616218031693897 0 -1 0 0 0 -1 forward_v I I I I #
coedge $-1 $104 $105 $106 $107 reversed $37 $-1 #
coedge $-1 $108 $39 $109 $110 reversed $24 $-1 #
coedge $-1 $39 $108 $111 $112 reversed $24 $-1 #
coedge $-1 $113 $114 $39 $64 forward $101 $-1 #
edge $-1 $115 -14.281986163926016 $116 -6.2258347812873271 $63 $117 forward 7 unknown #
face $-1 $118 $119 $14 $-1 $120 forward single #
loop $-1 $-1 $121 $40 #
plane-surface $-1 0 24.535896636532687 0 0 -1 0 0 0 -1 forward_v I I I I #
coedge $-1 $122 $123 $121 $124 reversed $41 $-1 #
coedge $-1 $70 $43 $123 $125 forward $27 $-1 #
coedge $-1 $43 $69 $126 $127 reversed $27 $-1 #
coedge $-1 $128 $121 $43 $72 forward $66 $-1 #
edge $-1 $129 -44.950924853928782 $130 -39.95332998598694 $71 $131 forward 7 unknown #
face $-1 $132 $133 $15 $-1 $134 forward single #
loop $-1 $-1 $135 $44 #
plane-surface $-1 -29.803940997713507 23.964164123642444 98.751085214880121 -1 0 0 0 0.51503808176128008 0.85716729658548041 forward_v I I I I #
loop $-1 $-1 $136 $29 #
coedge $-1 $77 $77 $78 $137 forward $45 $-1 #
coedge $-1 $78 $78 $77 $137 reversed $47 $-1 #
coedge $-1 $79 $79 $48 $80 forward $133 $-1 #
edge $-1 $138 -5.0536095458606281e-016 $138 6.2831853071795996 $79 $139 forward 7 unknown #
face $-1 $140 $141 $12 $-1 $142 reversed single #
loop $-1 $-1 $143 $49 #
plane-surface $-1 -40.279549546800133 0 0 1 0 0 0 0 -1 forward_v I I I I #
coedge $-1 $144 $92 $145 $146 forward $50 $-1 #
coedge $-1 $147 $52 $144 $148 forward $33 $-1 #
coedge $-1 $52 $147 $149 $150 forward $33 $-1 #
coedge $-1 $95 $94 $52 $88 reversed $96 $-1 #
edge $-1 $151 -24.535896636532687 $152 24.535896636532687 $87 $153 forward 7 unknown #
coedge $-1 $54 $53 $154 $155 forward $21 $-1 #
coedge $-1 $156 $157 $53 $91 reversed $141 $-1 #
edge $-1 $98 -40.279549546800133 $158 40.279549546800133 $90 $159 forward 7 unknown #
coedge $-1 $84 $160 $54 $93 reversed $50 $-1 #
edge $-1 $161 -40.279549546800133 $97 40.279549546800133 $92 $162 forward 7 unknown #
coedge $-1 $87 $55 $160 $163 forward $96 $-1 #
coedge $-1 $55 $87 $156 $164 reversed $96 $-1 #
loop $-1 $-1 $94 $140 #
vertex $-1 $56 $165 #
vertex $-1 $56 $166 #
straight-curve $-1 40.279549546800133 0 9.4222126214531219 0 1 0 I I #
face $-1 $167 $168 $13 $-1 $169 reversed single #
loop $-1 $-1 $63 $57 #
plane-surface $-1 40.279549546800133 0 0 -1 0 0 0 0 1 forward_v I I I I #
coedge $-1 $111 $170 $113 $171 reversed $58 $-1 #
coedge $-1 $172 $60 $170 $173 reversed $37 $-1 #
coedge $-1 $60 $172 $174 $175 reversed $37 $-1 #
coedge $-1 $176 $113 $60 $107 forward $101 $-1 #
edge $-1 $177 6.2258347812873271 $178 14.281986163926016 $106 $179 forward 7 unknown #
coedge $-1 $62 $61 $180 $181 reversed $24 $-1 #
coedge $-1 $182 $183 $61 $110 forward $184 $-1 #
edge $-1 $185 -40.279549546800133 $115 40.279549546800133 $109 $186 forward 7 unknown #
coedge $-1 $187 $103 $62 $112 forward $58 $-1 #
edge $-1 $116 -40.279549546800133 $188 40.279549546800133 $111 $189 forward 7 unknown #
coedge $-1 $106 $63 $103 $171 forward $101 $-1 #
coedge $-1 $63 $190 $182 $191 forward $101 $-1 #
vertex $-1 $110 $192 #
vertex $-1 $64 $193 #
straight-curve $-1 40.279549546800133 -10.253910472606671 2.296162180316939 0 1 0 I I #
face $-1 $194 $195 $14 $-1 $196 reversed single #
loop $-1 $-1 $126 $65 #
plane-surface $-1 0 0 9.4222126214531219 0 0 1 1 0 0 forward_v I I I I #
coedge $-1 $71 $197 $68 $124 forward $66 $-1 #
coedge $-1 $198 $68 $199 $200 reversed $41 $-1 #
coedge $-1 $68 $198 $69 $125 reversed $41 $-1 #
edge $-1 $201 -22.758676910671724 $129 -12.283068361585098 $121 $202 forward 7 unknown #
edge $-1 $129 -49.071793273065367 $203 -39.36844308417929 $69 $204 forward 7 unknown #
coedge $-1 $205 $206 $70 $127 forward $119 $-1 #
edge $-1 $130 -12.553814574711465 $203 -4.2364201254817768 $126 $207 forward 7 unknown #
coedge $-1 $208 $71 $206 $209 reversed $66 $-1 #
vertex $-1 $124 $210 #
vertex $-1 $127 $211 #
straight-curve $-1 -29.803940997713507 24.535896636532687 49.37554260744006 0 0 1 I I #
face $-1 $212 $213 $15 $-1 $214 reversed single #
loop $-1 $215 $79 $73 #
plane-surface $-1 -35.041745272256819 -17.526839741942315 29.698460029456953 0 0.51503808176128008 0.85716729658548041 1 0 0 forward_v I I I I #
coedge $-1 $216 $217 $218 $219 reversed $74 $-1 #
coedge $-1 $136 $136 $-1 $220 forward $76 $-1 #
edge $-1 $221 0 $221 6.2831853071796004 $77 $222 forward 7 unknown #
vertex $-1 $80 $223 #
ellipse-curve $-1 -35.041745272256819 20.377199411917847 6.9234151874821999 0 -0.51503808176128008 -0.85716729658548041 1.5 0 0 1 I I #
face $-1 $-1 $96 $12 $-1 $224 reversed single #
loop $-1 $-1 $156 $81 #
plane-surface $-1 0 24.535896636532687 0 0 -1 0 0 0 -1 forward_v I I I I #
coedge $-1 $225 $154 $157 $226 forward $82 $-1 #
coedge $-1 $160 $84 $85 $148 reversed $50 $-1 #
coedge $-1 $154 $225 $84 $146 reversed $82 $-1 #
edge $-1 $161 -9.4222126214531219 $227 9.4222126214531219 $145 $228 forward 7 unknown #
coedge $-1 $86 $85 $225 $229 forward $33 $-1 #
edge $-1 $152 -40.279549546800133 $227 40.279549546800133 $144 $230 forward 7 unknown #
coedge $-1 $157 $156 $86 $150 reversed $141 $-1 #
edge $-1 $231 -40.279549546800133 $151 40.279549546800133 $149 $232 forward 7 unknown #
vertex $-1 $88 $233 #
vertex $-1 $163 $234 #
straight-curve $-1 40.279549546800133 0 -9.4222126214531219 0 -1 0 I I #
coedge $-1 $143 $145 $89 $155 reversed $82 $-1 #
edge $-1 $158 -24.535896636532687 $161 24.535896636532687 $154 $235 forward 7 unknown #
coedge $-1 $149 $90 $95 $164 forward $141 $-1 #
coedge $-1 $90 $149 $143 $226 reversed $141 $-1 #
vertex $-1 $91 $236 #
straight-curve $-1 0 24.535896636532687 9.4222126214531219 -1 0 0 I I #
coedge $-1 $92 $144 $94 $163 reversed $50 $-1 #
vertex $-1 $155 $237 #
straight-curve $-1 0 -24.535896636532687 9.4222126214531219 1 0 0 I I #
edge $-1 $97 -9.4222126214531219 $152 9.4222126214531219 $94 $238 forward 7 unknown #
edge $-1 $98 -9.4222126214531219 $151 9.4222126214531219 $95 $239 forward 7 unknown #
point $-1 40.279549546800133 -24.535896636532687 9.4222126214531219 #
point $-1 40.279549546800133 24.535896636532687 9.4222126214531219 #
face $-1 $240 $241 $13 $-1 $242 forward single #
loop $-1 $-1 $174 $100 #
plane-surface $-1 0 -24.535896636532687 0 0 1 0 0 0 1 forward_v I I I I #
coedge $-1 $103 $187 $104 $173 forward $58 $-1 #
edge $-1 $116 -1.8980810901584695 $177 1.1019189098415305 $113 $243 forward 7 unknown #
coedge $-1 $105 $104 $244 $245 reversed $37 $-1 #
edge $-1 $246 -40.279549546800133 $177 40.279549546800133 $170 $247 forward 7 unknown #
coedge $-1 $248 $249 $105 $175 forward $168 $-1 #
edge $-1 $178 -40.279549546800133 $250 40.279549546800133 $174 $251 forward 7 unknown #
coedge $-1 $252 $106 $249 $253 forward $101 $-1 #
vertex $-1 $107 $254 #
vertex $-1 $253 $255 #
straight-curve $-1 40.279549546800133 -10.253910472606671 -0.70383781968306103 0 -1 0 I I #
coedge $-1 $256 $257 $108 $181 forward $258 $-1 #
edge $-1 $188 6.2258347812873271 $185 14.281986163926016 $180 $259 forward 7 unknown #
coedge $-1 $260 $109 $114 $191 reversed $184 $-1 #
coedge $-1 $109 $260 $256 $261 forward $184 $-1 #
loop $-1 $-1 $109 $262 #
vertex $-1 $181 $263 #
straight-curve $-1 0 -24.535896636532687 2.296162180316939 1 0 0 I I #
coedge $-1 $170 $111 $257 $264 reversed $58 $-1 #
vertex $-1 $181 $265 #
straight-curve $-1 0 -16.479745253893999 2.296162180316939 -1 0 0 I I #
coedge $-1 $114 $266 $267 $268 reversed $101 $-1 #
edge $-1 $269 -9.4222126214531219 $115 -2.296162180316939 $114 $270 forward 7 unknown #
point $-1 40.279549546800133 -24.535896636532687 2.296162180316939 #
point $-1 40.279549546800133 -16.479745253893999 2.296162180316939 #
face $-1 $271 $272 $14 $-1 $273 forward single #
loop $-1 $-1 $274 $118 #
plane-surface $-1 0 -20.507820945213343 2.296162180316939 0 0 1 1 0 0 forward_v I I I I #
coedge $-1 $121 $275 $276 $277 reversed $66 $-1 #
coedge $-1 $123 $122 $205 $278 reversed $41 $-1 #
coedge $-1 $276 $279 $122 $200 forward $280 $-1 #
edge $-1 $281 24.208807222117681 $201 33.912157411003761 $199 $282 forward 7 unknown #
vertex $-1 $277 $283 #
straight-curve $-1 -17.520872636128409 24.535896636532684 4.4246177535112814 1 0 0 I I #
vertex $-1 $278 $284 #
straight-curve $-1 -29.803940997713507 -17.526839741942315 29.698460029456953 0 -0.85716729658548041 0.51503808176128008 I I #
coedge $-1 $285 $126 $198 $278 forward $119 $-1 #
coedge $-1 $126 $286 $128 $209 forward $119 $-1 #
straight-curve $-1 -29.803940997713507 11.982082061821222 9.4222126214531201 0 -1 0 I I #
coedge $-1 $275 $128 $287 $288 forward $66 $-1 #
edge $-1 $289 -40.279549546800133 $130 29.803940997713507 $128 $290 forward 7 unknown #
point $-1 -29.803940997713507 24.535896636532687 4.4246177535112778 #
point $-1 -29.803940997713507 24.535896636532687 9.4222126214531219 #
face $-1 $291 $292 $15 $-1 $293 forward single #
loop $-1 $-1 $294 $132 #
plane-surface $-1 0 24.535896636532687 0 0 -1 0 0 0 -1 forward_v I I I I #
loop $-1 $-1 $295 $73 #
coedge $-1 $217 $135 $296 $297 forward $74 $-1 #
coedge $-1 $135 $216 $298 $299 reversed $74 $-1 #
coedge $-1 $300 $294 $135 $219 forward $213 $-1 #
edge $-1 $301 -44.950924853928782 $302 -39.95332998598694 $218 $303 forward 7 unknown #
edge $-1 $304 1 $304 0 $136 $-1 forward 7 unknown #
vertex $-1 $137 $305 #
ellipse-curve $-1 -35.041745272256819 18.895767431969738 4.4578983833947614 0 0.51503808176128008 0.85716729658548041 1.5 0 0 1 I I #
point $-1 -33.541745272256819 20.37719941191785 6.9234151874822043 #
plane-surface $-1 40.279549546800133 0 0 -1 0 0 0 0 1 forward_v I I I I #
coedge $-1 $145 $143 $147 $229 reversed $82 $-1 #
edge $-1 $158 -9.4222126214531219 $231 9.4222126214531219 $157 $306 forward 7 unknown #
vertex $-1 $229 $307 #
straight-curve $-1 -40.279549546800133 -24.535896636532687 0 0 0 -1 I I #
edge $-1 $227 -24.535896636532687 $231 24.535896636532687 $225 $308 forward 7 unknown #
straight-curve $-1 0 -24.535896636532687 -9.4222126214531219 -1 0 0 I I #
vertex $-1 $150 $309 #
straight-curve $-1 0 24.535896636532687 -9.4222126214531219 1 0 0 I I #
point $-1 40.279549546800133 24.535896636532687 -9.4222126214531219 #
point $-1 40.279549546800133 -24.535896636532687 -9.4222126214531219 #
straight-curve $-1 -40.279549546800133 0 9.4222126214531219 0 -1 0 I I #
point $-1 -40.279549546800133 24.535896636532687 9.4222126214531219 #
point $-1 -40.279549546800133 -24.535896636532687 9.4222126214531219 #
straight-curve $-1 40.279549546800133 -24.535896636532687 0 0 0 -1 I I #
straight-curve $-1 40.279549546800133 24.535896636532687 0 0 0 -1 I I #
face $-1 $262 $310 $13 $-1 $311 reversed single #
loop $-1 $-1 $267 $167 #
plane-surface $-1 0 0 9.4222126214531219 0 0 1 1 0 0 forward_v I I I I #
straight-curve $-1 40.279549546800133 -16.479745253893999 0.39808109015846949 0 0 -1 I I #
coedge $-1 $257 $312 $172 $245 forward $258 $-1 #
edge $-1 $250 -14.281986163926016 $246 -6.2258347812873271 $244 $313 forward 7 unknown #
vertex $-1 $245 $314 #
straight-curve $-1 0 -16.479745253893999 -0.70383781968306103 1 0 0 I I #
coedge $-1 $315 $174 $312 $316 forward $168 $-1 #
coedge $-1 $174 $315 $176 $253 reversed $168 $-1 #
vertex $-1 $316 $317 #
straight-curve $-1 0 -24.535896636532687 -0.70383781968306103 -1 0 0 I I #
coedge $-1 $266 $176 $318 $319 reversed $101 $-1 #
edge $-1 $178 0.70383781968306103 $320 9.4222126214531219 $176 $270 forward 7 unknown #
point $-1 40.279549546800133 -16.479745253893999 -0.70383781968306103 #
point $-1 40.279549546800133 -24.535896636532687 -0.70383781968306103 #
coedge $-1 $321 $180 $183 $261 reversed $258 $-1 #
coedge $-1 $180 $244 $187 $264 forward $258 $-1 #
loop $-1 $-1 $180 $322 #
straight-curve $-1 -40.279549546800133 -10.253910472606671 2.296162180316939 0 -1 0 I I #
coedge $-1 $183 $182 $323 $324 reversed $184 $-1 #
edge $-1 $325 -9.4222126214531219 $185 -2.296162180316939 $256 $326 forward 7 unknown #
face $-1 $322 $184 $13 $-1 $169 reversed single #
point $-1 -40.279549546800133 -24.535896636532687 2.296162180316939 #
edge $-1 $246 -1.1019189098415305 $188 1.8980810901584695 $257 $327 forward 7 unknown #
point $-1 -40.279549546800133 -16.479745253893999 2.296162180316939 #
coedge $-1 $190 $252 $328 $329 reversed $101 $-1 #
coedge $-1 $330 $323 $190 $268 forward $241 $-1 #
edge $-1 $269 -24.535896636532687 $331 24.535896636532687 $190 $332 forward 7 unknown #
vertex $-1 $268 $333 #
straight-curve $-1 40.279549546800133 -24.535896636532687 0 0 0 -1 I I #
face $-1 $334 $335 $14 $-1 $336 forward single #
loop $-1 $-1 $337 $194 #
plane-surface $-1 0 -20.507820945213343 -0.70383781968306103 0 0 1 1 0 0 forward_v I I I I #
coedge $-1 $338 $339 $340 $341 reversed $195 $-1 #
coedge $-1 $197 $208 $342 $343 reversed $66 $-1 #
coedge $-1 $344 $199 $197 $277 forward $280 $-1 #
edge $-1 $201 -4.4246177535112787 $345 9.4222126214531219 $197 $346 forward 7 unknown #
edge $-1 $203 12.283068361585098 $281 22.758676910671717 $205 $347 forward 7 unknown #
coedge $-1 $199 $348 $285 $349 reversed $280 $-1 #
loop $-1 $-1 $199 $350 #
vertex $-1 $349 $351 #
straight-curve $-1 -40.279549546800133 -4.5324956528386684 21.890670254861234 0 0.85716729658548041 -0.51503808176128008 I I #
point $-1 -40.279549546800133 24.535896636532687 4.4246177535112787 #
point $-1 -29.803940997713507 16.218502187302999 9.4222126214531201 #
coedge $-1 $352 $205 $279 $349 forward $119 $-1 #
coedge $-1 $206 $352 $353 $354 forward $119 $-1 #
coedge $-1 $353 $355 $208 $288 reversed $356 $-1 #
edge $-1 $289 -9.4222126214531219 $357 9.4222126214531219 $287 $358 forward 7 unknown #
vertex $-1 $354 $359 #
straight-curve $-1 0 24.535896636532687 9.4222126214531219 -1 0 0 I I #
face $-1 $360 $361 $15 $-1 $362 reversed single #
loop $-1 $-1 $298 $212 #
plane-surface $-1 0 0 9.4222126214531219 0 0 1 1 0 0 forward_v I I I I #
coedge $-1 $218 $363 $295 $364 forward $213 $-1 #
coedge $-1 $365 $296 $294 $364 reversed $215 $-1 #
coedge $-1 $295 $366 $216 $297 reversed $215 $-1 #
edge $-1 $301 -49.071793273065367 $367 -39.36844308417929 $216 $368 forward 7 unknown #
coedge $-1 $369 $370 $217 $299 forward $292 $-1 #
edge $-1 $302 -12.553814574711465 $367 -4.2364201254817768 $298 $371 forward 7 unknown #
coedge $-1 $372 $218 $370 $373 reversed $213 $-1 #
vertex $-1 $364 $374 #
vertex $-1 $299 $375 #
straight-curve $-1 -29.803940997713507 24.535896636532687 49.37554260744006 0 0 1 I I #
vertex $-1 $220 $376 #
point $-1 -33.541745272256819 18.895767431969738 4.4578983833947614 #
straight-curve $-1 -40.279549546800133 24.535896636532687 0 0 0 -1 I I #
point $-1 -40.279549546800133 -24.535896636532687 -9.4222126214531219 #
straight-curve $-1 -40.279549546800133 0 -9.4222126214531219 0 1 0 I I #
point $-1 -40.279549546800133 24.535896636532687 -9.4222126214531219 #
loop $-1 $-1 $318 $240 #
plane-surface $-1 0 0 -9.4222126214531219 0 0 1 1 0 0 forward_v I I I I #
coedge $-1 $244 $377 $248 $316 reversed $258 $-1 #
straight-curve $-1 -40.279549546800133 -10.253910472606671 -0.70383781968306103 0 1 0 I I #
point $-1 -40.279549546800133 -16.479745253893999 -0.70383781968306103 #
coedge $-1 $249 $248 $378 $379 reversed $168 $-1 #
edge $-1 $250 0.70383781968306103 $380 9.4222126214531219 $312 $326 forward 7 unknown #
point $-1 -40.279549546800133 -24.535896636532687 -0.70383781968306103 #
coedge $-1 $378 $381 $252 $319 forward $310 $-1 #
edge $-1 $382 -24.535896636532687 $320 24.535896636532687 $252 $383 forward 7 unknown #
vertex $-1 $253 $384 #
coedge $-1 $385 $256 $386 $387 reversed $258 $-1 #
face $-1 $388 $258 $13 $-1 $389 reversed single #
coedge $-1 $267 $386 $260 $324 forward $241 $-1 #
edge $-1 $325 -40.279549546800133 $269 40.279549546800133 $260 $390 forward 7 unknown #
vertex $-1 $387 $391 #
straight-curve $-1 -40.279549546800133 -24.535896636532687 0 0 0 -1 I I #
straight-curve $-1 -40.279549546800133 -16.479745253893999 0.39808109015846949 0 0 1 I I #
coedge $-1 $392 $393 $266 $329 forward $394 $-1 #
edge $-1 $331 -9.4222126214531219 $382 9.4222126214531219 $266 $395 forward 7 unknown #
coedge $-1 $386 $267 $393 $396 forward $241 $-1 #
vertex $-1 $268 $397 #
straight-curve $-1 40.279549546800133 0 9.4222126214531219 0 1 0 I I #
point $-1 40.279549546800133 -24.535896636532687 9.4222126214531219 #
face $-1 $398 $356 $14 $-1 $399 reversed single #
loop $-1 $-1 $400 $271 #
plane-surface $-1 0 -16.479745253893999 0.79616218031693897 0 -1 0 0 0 -1 forward_v I I I I #
coedge $-1 $401 $402 $403 $404 reversed $272 $-1 #
coedge $-1 $405 $274 $406 $407 reversed $195 $-1 #
coedge $-1 $274 $405 $408 $409 reversed $195 $-1 #
coedge $-1 $410 $411 $274 $341 forward $356 $-1 #
edge $-1 $412 -14.281986163926016 $413 -6.2258347812873271 $340 $414 forward 7 unknown #
coedge $-1 $415 $416 $275 $343 forward $417 $-1 #
edge $-1 $345 -40.279549546800133 $357 40.279549546800133 $275 $418 forward 7 unknown #
coedge $-1 $419 $276 $416 $420 reversed $280 $-1 #
vertex $-1 $343 $421 #
straight-curve $-1 -40.279549546800133 24.535896636532687 0 0 0 -1 I I #
straight-curve $-1 -17.520872636128409 16.218502187302999 9.4222126214531219 -1 0 0 I I #
coedge $-1 $279 $422 $423 $424 reversed $280 $-1 #
edge $-1 $281 -16.218502187302999 $425 24.535896636532687 $279 $426 forward 7 unknown #
face $-1 $-1 $280 $14 $-1 $427 reversed single #
point $-1 -40.279549546800126 16.218502187302999 9.4222126214531201 #
coedge $-1 $286 $285 $428 $429 forward $119 $-1 #
coedge $-1 $411 $287 $286 $354 reversed $356 $-1 #
edge $-1 $430 -24.535896636532687 $289 24.535896636532687 $353 $431 forward 7 unknown #
coedge $-1 $287 $432 $415 $433 reversed $356 $-1 #
loop $-1 $-1 $340 $334 #
vertex $-1 $433 $434 #
straight-curve $-1 40.279549546800133 24.535896636532687 0 0 0 -1 I I #
point $-1 40.279549546800133 24.535896636532687 9.4222126214531219 #
face $-1 $435 $436 $15 $-1 $437 forward single #
loop $-1 $-1 $438 $291 #
plane-surface $-1 0 -20.507820945213343 2.296162180316939 0 0 1 1 0 0 forward_v I I I I #
coedge $-1 $294 $439 $440 $441 reversed $213 $-1 #
edge $-1 $442 -22.758676910671724 $301 -12.283068361585098 $294 $443 forward 7 unknown #
coedge $-1 $366 $295 $444 $445 reversed $215 $-1 #
coedge $-1 $296 $365 $369 $446 reversed $215 $-1 #
vertex $-1 $446 $447 #
straight-curve $-1 -29.803940997713507 -17.526839741942315 29.698460029456953 0 -0.85716729658548041 0.51503808176128008 I I #
coedge $-1 $448 $298 $366 $446 forward $292 $-1 #
coedge $-1 $298 $449 $300 $373 forward $292 $-1 #
straight-curve $-1 -29.803940997713507 11.982082061821222 9.4222126214531201 0 -1 0 I I #
coedge $-1 $439 $300 $450 $451 forward $213 $-1 #
edge $-1 $452 -40.279549546800133 $302 29.803940997713507 $300 $453 forward 7 unknown #
point $-1 -29.803940997713507 24.535896636532687 4.4246177535112778 #
point $-1 -29.803940997713507 24.535896636532687 9.4222126214531219 #
point $-1 -35.041745272256819 18.123210309327817 3.1721474385165411 #
coedge $-1 $312 $385 $454 $455 reversed $258 $-1 #
coedge $-1 $454 $318 $315 $379 forward $310 $-1 #
edge $-1 $320 -40.279549546800133 $380 40.279549546800133 $315 $456 forward 7 unknown #
vertex $-1 $455 $457 #
coedge $-1 $318 $454 $392 $458 forward $310 $-1 #
vertex $-1 $319 $459 #
straight-curve $-1 40.279549546800133 0 -9.4222126214531219 0 -1 0 I I #
point $-1 40.279549546800133 -24.535896636532687 -9.4222126214531219 #
coedge $-1 $377 $321 $460 $461 forward $258 $-1 #
coedge $-1 $323 $330 $321 $387 forward $241 $-1 #
edge $-1 $462 -24.535896636532687 $325 24.535896636532687 $321 $463 forward 7 unknown #
face $-1 $-1 $394 $13 $-1 $464 reversed single #
plane-surface $-1 -40.279549546800133 0 0 1 0 0 0 0 -1 forward_v I I I I #
straight-curve $-1 0 -24.535896636532687 9.4222126214531219 1 0 0 I I #
point $-1 -40.279549546800133 -24.535896636532687 9.4222126214531219 #
coedge $-1 $460 $328 $381 $458 reversed $394 $-1 #
coedge $-1 $328 $460 $330 $396 reversed $394 $-1 #
loop $-1 $-1 $328 $388 #
straight-curve $-1 40.279549546800133 24.535896636532687 0 0 0 -1 I I #
edge $-1 $331 -40.279549546800133 $462 40.279549546800133 $393 $465 forward 7 unknown #
point $-1 40.279549546800133 24.535896636532687 9.4222126214531219 #
face $-1 $466 $467 $14 $-1 $468 reversed single #
plane-surface $-1 40.279549546800133 0 0 -1 0 0 0 0 1 forward_v I I I I #
coedge $-1 $408 $469 $410 $470 reversed $335 $-1 #
coedge $-1 $471 $337 $469 $472 reversed $272 $-1 #
coedge $-1 $337 $471 $473 $474 reversed $272 $-1 #
coedge $-1 $432 $410 $337 $404 forward $356 $-1 #
edge $-1 $475 6.2258347812873271 $476 14.281986163926016 $403 $477 forward 7 unknown #
coedge $-1 $339 $338 $422 $478 reversed $195 $-1 #
coedge $-1 $479 $423 $338 $407 forward $480 $-1 #
edge $-1 $481 -40.279549546800133 $412 40.279549546800133 $406 $482 forward 7 unknown #
coedge $-1 $483 $400 $339 $409 forward $335 $-1 #
edge $-1 $413 -40.279549546800133 $484 40.279549546800133 $408 $485 forward 7 unknown #
coedge $-1 $403 $340 $400 $470 forward $356 $-1 #
coedge $-1 $340 $353 $479 $486 forward $356 $-1 #
vertex $-1 $407 $487 #
vertex $-1 $341 $488 #
straight-curve $-1 40.279549546800133 -10.253910472606671 2.296162180316939 0 1 0 I I #
coedge $-1 $489 $342 $355 $433 forward $417 $-1 #
coedge $-1 $342 $489 $344 $420 forward $417 $-1 #
loop $-1 $-1 $415 $466 #
straight-curve $-1 0 24.535896636532687 -9.4222126214531219 1 0 0 I I #
coedge $-1 $490 $344 $491 $492 reversed $280 $-1 #
edge $-1 $493 -24.535896636532687 $345 24.535896636532687 $344 $494 forward 7 unknown #
point $-1 -40.279549546800133 24.535896636532687 -9.4222126214531219 #
coedge $-1 $348 $495 $405 $478 forward $280 $-1 #
coedge $-1 $406 $428 $348 $424 forward $480 $-1 #
edge $-1 $425 -9.4222126214531219 $481 -2.296162180316939 $348 $496 forward 7 unknown #
vertex $-1 $349 $497 #
straight-curve $-1 -40.279549546800133 0 9.4222126214531219 0 -1 0 I I #
plane-surface $-1 -40.279549546800133 0 0 1 0 0 0 0 -1 forward_v I I I I #
coedge $-1 $423 $479 $352 $429 reversed $480 $-1 #
edge $-1 $425 -40.279549546800133 $430 40.279549546800133 $428 $498 forward 7 unknown #
vertex $-1 $354 $499 #
straight-curve $-1 40.279549546800133 0 9.4222126214531219 0 1 0 I I #
coedge $-1 $355 $403 $500 $501 forward $356 $-1 #
edge $-1 $357 -24.535896636532687 $502 24.535896636532687 $355 $503 forward 7 unknown #
point $-1 40.279549546800133 24.535896636532687 -9.4222126214531219 #
face $-1 $504 $505 $15 $-1 $506 forward single #
loop $-1 $-1 $507 $360 #
plane-surface $-1 0 -20.507820945213343 -0.70383781968306103 0 0 1 1 0 0 forward_v I I I I #
coedge $-1 $508 $509 $510 $511 reversed $361 $-1 #
coedge $-1 $363 $372 $512 $513 reversed $213 $-1 #
coedge $-1 $514 $444 $363 $441 forward $515 $-1 #
edge $-1 $442 -4.4246177535112787 $516 9.4222126214531219 $363 $517 forward 7 unknown #
vertex $-1 $441 $518 #
straight-curve $-1 -17.520872636128409 24.535896636532684 4.4246177535112814 1 0 0 I I #
coedge $-1 $440 $519 $365 $445 forward $515 $-1 #
edge $-1 $520 24.208807222117681 $442 33.912157411003761 $444 $521 forward 7 unknown #
edge $-1 $367 12.283068361585098 $520 22.758676910671717 $369 $522 forward 7 unknown #
point $-1 -29.803940997713507 16.218502187302999 9.4222126214531201 #
coedge $-1 $523 $369 $519 $524 forward $292 $-1 #
coedge $-1 $370 $523 $525 $526 forward $292 $-1 #
coedge $-1 $525 $527 $372 $451 reversed $528 $-1 #
edge $-1 $452 -9.4222126214531219 $529 9.4222126214531219 $450 $530 forward 7 unknown #
vertex $-1 $526 $531 #
straight-curve $-1 0 24.535896636532687 9.4222126214531219 -1 0 0 I I #
coedge $-1 $381 $378 $377 $455 forward $310 $-1 #
edge $-1 $380 -24.535896636532687 $532 24.535896636532687 $377 $533 forward 7 unknown #
straight-curve $-1 0 -24.535896636532687 -9.4222126214531219 -1 0 0 I I #
point $-1 -40.279549546800133 -24.535896636532687 -9.4222126214531219 #
edge $-1 $532 -40.279549546800133 $382 40.279549546800133 $392 $534 forward 7 unknown #
point $-1 40.279549546800133 24.535896636532687 -9.4222126214531219 #
coedge $-1 $393 $392 $385 $461 reversed $394 $-1 #
edge $-1 $462 -9.4222126214531219 $532 9.4222126214531219 $460 $535 forward 7 unknown #
vertex $-1 $396 $536 #
straight-curve $-1 -40.279549546800133 0 9.4222126214531219 0 -1 0 I I #
plane-surface $-1 0 24.535896636532687 0 0 -1 0 0 0 -1 forward_v I I I I #
straight-curve $-1 0 24.535896636532687 9.4222126214531219 -1 0 0 I I #
face $-1 $537 $417 $14 $-1 $538 reversed single #
loop $-1 $-1 $473 $398 #
plane-surface $-1 0 -24.535896636532687 0 0 1 0 0 0 1 forward_v I I I I #
coedge $-1 $400 $483 $401 $472 forward $335 $-1 #
edge $-1 $413 -1.8980810901584695 $475 1.1019189098415305 $410 $539 forward 7 unknown #
coedge $-1 $402 $401 $490 $540 reversed $272 $-1 #
edge $-1 $541 -40.279549546800133 $475 40.279549546800133 $469 $542 forward 7 unknown #
coedge $-1 $491 $500 $402 $474 forward $467 $-1 #
edge $-1 $476 -40.279549546800133 $543 40.279549546800133 $473 $544 forward 7 unknown #
vertex $-1 $404 $545 #
vertex $-1 $501 $546 #
straight-curve $-1 40.279549546800133 -10.253910472606671 -0.70383781968306103 0 -1 0 I I #
edge $-1 $484 6.2258347812873271 $481 14.281986163926016 $422 $547 forward 7 unknown #
coedge $-1 $428 $406 $411 $486 reversed $480 $-1 #
loop $-1 $-1 $406 $537 #
vertex $-1 $478 $548 #
straight-curve $-1 0 -24.535896636532687 2.296162180316939 1 0 0 I I #
coedge $-1 $469 $408 $495 $549 reversed $335 $-1 #
vertex $-1 $478 $550 #
straight-curve $-1 0 -16.479745253893999 2.296162180316939 -1 0 0 I I #
edge $-1 $430 -9.4222126214531219 $412 -2.296162180316939 $411 $551 forward 7 unknown #
point $-1 40.279549546800133 -24.535896636532687 2.296162180316939 #
point $-1 40.279549546800133 -16.479745253893999 2.296162180316939 #
coedge $-1 $416 $415 $552 $553 forward $417 $-1 #
coedge $-1 $495 $419 $471 $540 forward $280 $-1 #
coedge $-1 $552 $473 $419 $492 forward $467 $-1 #
edge $-1 $543 0.70383781968306103 $493 9.4222126214531219 $419 $496 forward 7 unknown #
vertex $-1 $420 $554 #
straight-curve $-1 -40.279549546800133 0 -9.4222126214531219 0 1 0 I I #
coedge $-1 $422 $490 $483 $549 forward $280 $-1 #
straight-curve $-1 -40.279549546800133 -24.535896636532687 0 0 0 -1 I I #
point $-1 -40.279549546800133 -24.535896636532687 9.4222126214531219 #
straight-curve $-1 0 -24.535896636532687 9.4222126214531219 1 0 0 I I #
point $-1 40.279549546800133 -24.535896636532687 9.4222126214531219 #
coedge $-1 $473 $552 $432 $501 reversed $467 $-1 #
edge $-1 $476 0.70383781968306103 $502 9.4222126214531219 $432 $551 forward 7 unknown #
vertex $-1 $501 $555 #
straight-curve $-1 40.279549546800133 0 -9.4222126214531219 0 -1 0 I I #
face $-1 $556 $528 $15 $-1 $557 reversed single #
loop $-1 $-1 $558 $435 #
plane-surface $-1 0 -16.479745253893999 0.79616218031693897 0 -1 0 0 0 -1 forward_v I I I I #
coedge $-1 $559 $560 $561 $562 reversed $436 $-1 #
coedge $-1 $563 $438 $564 $565 reversed $361 $-1 #
coedge $-1 $438 $563 $566 $567 reversed $361 $-1 #
coedge $-1 $568 $569 $438 $511 forward $528 $-1 #
edge $-1 $570 -14.281986163926016 $571 -6.2258347812873271 $510 $572 forward 7 unknown #
coedge $-1 $573 $574 $439 $513 forward $575 $-1 #
edge $-1 $516 -40.279549546800133 $529 40.279549546800133 $439 $576 forward 7 unknown #
coedge $-1 $577 $440 $574 $578 reversed $515 $-1 #
loop $-1 $-1 $444 $579 #
vertex $-1 $513 $580 #
straight-curve $-1 -40.279549546800133 24.535896636532687 0 0 0 -1 I I #
point $-1 -40.279549546800133 24.535896636532687 4.4246177535112787 #
coedge $-1 $444 $581 $448 $524 reversed $515 $-1 #
vertex $-1 $524 $582 #
straight-curve $-1 -40.279549546800133 -4.5324956528386684 21.890670254861234 0 0.85716729658548041 -0.51503808176128008 I I #
straight-curve $-1 -17.520872636128409 16.218502187302999 9.4222126214531219 -1 0 0 I I #
coedge $-1 $449 $448 $583 $584 forward $292 $-1 #
edge $-1 $520 -16.218502187302999 $585 24.535896636532687 $519 $586 forward 7 unknown #
coedge $-1 $569 $450 $449 $526 reversed $528 $-1 #
edge $-1 $587 -24.535896636532687 $452 24.535896636532687 $525 $588 forward 7 unknown #
coedge $-1 $450 $589 $573 $590 reversed $528 $-1 #
loop $-1 $-1 $510 $504 #
vertex $-1 $590 $591 #
straight-curve $-1 40.279549546800133 24.535896636532687 0 0 0 -1 I I #
point $-1 40.279549546800133 24.535896636532687 9.4222126214531219 #
vertex $-1 $458 $592 #
straight-curve $-1 -40.279549546800133 0 -9.4222126214531219 0 1 0 I I #
straight-curve $-1 0 24.535896636532687 -9.4222126214531219 1 0 0 I I #
straight-curve $-1 -40.279549546800133 24.535896636532687 0 0 0 -1 I I #
point $-1 -40.279549546800133 24.535896636532687 9.4222126214531219 #
face $-1 $350 $480 $14 $-1 $468 reversed single #
plane-surface $-1 0 0 -9.4222126214531219 0 0 1 1 0 0 forward_v I I I I #
straight-curve $-1 40.279549546800133 -16.479745253893999 0.39808109015846949 0 0 -1 I I #
edge $-1 $543 -14.281986163926016 $541 -6.2258347812873271 $490 $593 forward 7 unknown #
vertex $-1 $540 $594 #
straight-curve $-1 0 -16.479745253893999 -0.70383781968306103 1 0 0 I I #
vertex $-1 $492 $595 #
straight-curve $-1 0 -24.535896636532687 -0.70383781968306103 -1 0 0 I I #
point $-1 40.279549546800133 -16.479745253893999 -0.70383781968306103 #
point $-1 40.279549546800133 -24.535896636532687 -0.70383781968306103 #
straight-curve $-1 -40.279549546800133 -10.253910472606671 2.296162180316939 0 -1 0 I I #
point $-1 -40.279549546800133 -24.535896636532687 2.296162180316939 #
edge $-1 $541 -1.1019189098415305 $484 1.8980810901584695 $495 $596 forward 7 unknown #
point $-1 -40.279549546800133 -16.479745253893999 2.296162180316939 #
straight-curve $-1 40.279549546800133 -24.535896636532687 0 0 0 -1 I I #
coedge $-1 $500 $491 $489 $553 reversed $467 $-1 #
edge $-1 $502 -40.279549546800133 $493 40.279549546800133 $552 $597 forward 7 unknown #
point $-1 -40.279549546800133 -24.535896636532687 -9.4222126214531219 #
point $-1 40.279549546800133 -24.535896636532687 -9.4222126214531219 #
face $-1 $598 $599 $15 $-1 $600 reversed single #
plane-surface $-1 40.279549546800133 0 0 -1 0 0 0 0 1 forward_v I I I I #
coedge $-1 $566 $601 $568 $602 reversed $505 $-1 #
coedge $-1 $603 $507 $601 $604 reversed $436 $-1 #
coedge $-1 $507 $603 $605 $606 reversed $436 $-1 #
coedge $-1 $589 $568 $507 $562 forward $528 $-1 #
edge $-1 $607 6.2258347812873271 $608 14.281986163926016 $561 $609 forward 7 unknown #
coedge $-1 $509 $508 $610 $611 reversed $361 $-1 #
coedge $-1 $612 $613 $508 $565 forward $614 $-1 #
edge $-1 $615 -40.279549546800133 $570 40.279549546800133 $564 $616 forward 7 unknown #
coedge $-1 $617 $558 $509 $567 forward $505 $-1 #
edge $-1 $571 -40.279549546800133 $618 40.279549546800133 $566 $619 forward 7 unknown #
coedge $-1 $561 $510 $558 $602 forward $528 $-1 #
coedge $-1 $510 $525 $612 $620 forward $528 $-1 #
vertex $-1 $565 $621 #
vertex $-1 $511 $622 #
straight-curve $-1 40.279549546800133 -10.253910472606671 2.296162180316939 0 1 0 I I #
coedge $-1 $623 $512 $527 $590 forward $575 $-1 #
coedge $-1 $512 $623 $514 $578 forward $575 $-1 #
loop $-1 $-1 $573 $598 #
straight-curve $-1 0 24.535896636532687 -9.4222126214531219 1 0 0 I I #
coedge $-1 $624 $514 $625 $626 reversed $515 $-1 #
edge $-1 $627 -24.535896636532687 $516 24.535896636532687 $514 $628 forward 7 unknown #
face $-1 $-1 $515 $15 $-1 $629 reversed single #
point $-1 -40.279549546800133 24.535896636532687 -9.4222126214531219 #
coedge $-1 $519 $610 $613 $630 reversed $515 $-1 #
point $-1 -40.279549546800126 16.218502187302999 9.4222126214531201 #
coedge $-1 $613 $612 $523 $584 reversed $614 $-1 #
edge $-1 $585 -40.279549546800133 $587 40.279549546800133 $583 $631 forward 7 unknown #
vertex $-1 $524 $632 #
straight-curve $-1 -40.279549546800133 0 9.4222126214531219 0 -1 0 I I #
vertex $-1 $526 $633 #
straight-curve $-1 40.279549546800133 0 9.4222126214531219 0 1 0 I I #
coedge $-1 $527 $561 $634 $635 forward $528 $-1 #
edge $-1 $529 -24.535896636532687 $636 24.535896636532687 $527 $637 forward 7 unknown #
point $-1 40.279549546800133 24.535896636532687 -9.4222126214531219 #
point $-1 -40.279549546800133 24.535896636532687 -9.4222126214531219 #
straight-curve $-1 -40.279549546800133 -10.253910472606671 -0.70383781968306103 0 1 0 I I #
point $-1 -40.279549546800133 -16.479745253893999 -0.70383781968306103 #
point $-1 -40.279549546800133 -24.535896636532687 -0.70383781968306103 #
straight-curve $-1 -40.279549546800133 -16.479745253893999 0.39808109015846949 0 0 1 I I #
straight-curve $-1 0 -24.535896636532687 -9.4222126214531219 -1 0 0 I I #
face $-1 $638 $575 $15 $-1 $639 reversed single #
loop $-1 $-1 $605 $556 #
plane-surface $-1 0 -24.535896636532687 0 0 1 0 0 0 1 forward_v I I I I #
coedge $-1 $558 $617 $559 $604 forward $505 $-1 #
edge $-1 $571 -1.8980810901584695 $607 1.1019189098415305 $568 $640 forward 7 unknown #
coedge $-1 $560 $559 $624 $641 reversed $436 $-1 #
edge $-1 $642 -40.279549546800133 $607 40.279549546800133 $601 $643 forward 7 unknown #
coedge $-1 $625 $634 $560 $606 forward $599 $-1 #
edge $-1 $608 -40.279549546800133 $644 40.279549546800133 $605 $645 forward 7 unknown #
vertex $-1 $562 $646 #
vertex $-1 $635 $647 #
straight-curve $-1 40.279549546800133 -10.253910472606671 -0.70383781968306103 0 -1 0 I I #
coedge $-1 $581 $648 $563 $611 forward $515 $-1 #
edge $-1 $618 6.2258347812873271 $615 14.281986163926016 $610 $649 forward 7 unknown #
coedge $-1 $583 $564 $569 $620 reversed $614 $-1 #
coedge $-1 $564 $583 $581 $630 forward $614 $-1 #
loop $-1 $-1 $564 $638 #
vertex $-1 $611 $650 #
straight-curve $-1 0 -24.535896636532687 2.296162180316939 1 0 0 I I #
coedge $-1 $601 $566 $648 $651 reversed $505 $-1 #
vertex $-1 $611 $652 #
straight-curve $-1 0 -16.479745253893999 2.296162180316939 -1 0 0 I I #
edge $-1 $587 -9.4222126214531219 $570 -2.296162180316939 $569 $653 forward 7 unknown #
point $-1 40.279549546800133 -24.535896636532687 2.296162180316939 #
point $-1 40.279549546800133 -16.479745253893999 2.296162180316939 #
coedge $-1 $574 $573 $654 $655 forward $575 $-1 #
coedge $-1 $648 $577 $603 $641 forward $515 $-1 #
coedge $-1 $654 $605 $577 $626 forward $599 $-1 #
edge $-1 $644 0.70383781968306103 $627 9.4222126214531219 $577 $656 forward 7 unknown #
vertex $-1 $578 $657 #
straight-curve $-1 -40.279549546800133 0 -9.4222126214531219 0 1 0 I I #
plane-surface $-1 -40.279549546800133 0 0 1 0 0 0 0 -1 forward_v I I I I #
edge $-1 $585 -9.4222126214531219 $615 -2.296162180316939 $581 $656 forward 7 unknown #
straight-curve $-1 0 -24.535896636532687 9.4222126214531219 1 0 0 I I #
point $-1 -40.279549546800133 -24.535896636532687 9.4222126214531219 #
point $-1 40.279549546800133 -24.535896636532687 9.4222126214531219 #
coedge $-1 $605 $654 $589 $635 reversed $599 $-1 #
edge $-1 $608 0.70383781968306103 $636 9.4222126214531219 $589 $653 forward 7 unknown #
vertex $-1 $635 $658 #
straight-curve $-1 40.279549546800133 0 -9.4222126214531219 0 -1 0 I I #
face $-1 $579 $614 $15 $-1 $600 reversed single #
plane-surface $-1 0 0 -9.4222126214531219 0 0 1 1 0 0 forward_v I I I I #
straight-curve $-1 40.279549546800133 -16.479745253893999 0.39808109015846949 0 0 -1 I I #
edge $-1 $644 -14.281986163926016 $642 -6.2258347812873271 $624 $659 forward 7 unknown #
vertex $-1 $641 $660 #
straight-curve $-1 0 -16.479745253893999 -0.70383781968306103 1 0 0 I I #
vertex $-1 $626 $661 #
straight-curve $-1 0 -24.535896636532687 -0.70383781968306103 -1 0 0 I I #
point $-1 40.279549546800133 -16.479745253893999 -0.70383781968306103 #
point $-1 40.279549546800133 -24.535896636532687 -0.70383781968306103 #
coedge $-1 $610 $624 $617 $651 forward $515 $-1 #
straight-curve $-1 -40.279549546800133 -10.253910472606671 2.296162180316939 0 -1 0 I I #
point $-1 -40.279549546800133 -24.535896636532687 2.296162180316939 #
edge $-1 $642 -1.1019189098415305 $618 1.8980810901584695 $648 $662 forward 7 unknown #
point $-1 -40.279549546800133 -16.479745253893999 2.296162180316939 #
straight-curve $-1 40.279549546800133 -24.535896636532687 0 0 0 -1 I I #
coedge $-1 $634 $625 $623 $655 reversed $599 $-1 #
edge $-1 $636 -40.279549546800133 $627 40.279549546800133 $654 $663 forward 7 unknown #
straight-curve $-1 -40.279549546800133 -24.535896636532687 0 0 0 -1 I I #
point $-1 -40.279549546800133 -24.535896636532687 -9.4222126214531219 #
point $-1 40.279549546800133 -24.535896636532687 -9.4222126214531219 #
straight-curve $-1 -40.279549546800133 -10.253910472606671 -0.70383781968306103 0 1 0 I I #
point $-1 -40.279549546800133 -16.479745253893999 -0.70383781968306103 #
point $-1 -40.279549546800133 -24.535896636532687 -0.70383781968306103 #
straight-curve $-1 -40.279549546800133 -16.479745253893999 0.39808109015846949 0 0 1 I I #
straight-curve $-1 0 -24.535896636532687 -9.4222126214531219 -1 0 0 I I #
End-of-ACIS-data 