500 0 4 0           
7 Unknown 11 ACIS 5.0 NT 24 Thu Mar 25 15:52:40 1999 
-1 9.9999999999999995e-007 1e-010 
body $-1 $4 $-1 $5 #
body $-1 $6 $-1 $7 #
body $-1 $8 $-1 $9 #
body $-1 $10 $-1 $11 #
lump $-1 $-1 $12 $0 #
transform $-1 1 0 0 0 1 0 0 0 1 67.707144383068325 35.912661195035476 15.631383907462842 1 rotate no_reflect no_shear #
lump $-1 $-1 $13 $1 #
transform $-1 1 0 0 0 1 0 0 0 1 67.707144383068325 35.912661195035476 15.631383907462842 1 rotate no_reflect no_shear #
lump $-1 $-1 $14 $2 #
transform $-1 1 0 0 0 1 0 0 0 1 67.707144383068325 35.912661195035476 15.631383907462842 1 rotate no_reflect no_shear #
lump $-1 $-1 $15 $3 #
transform $-1 1 0 0 0 1 0 0 0 1 67.707144383068325 35.912661195035476 15.631383907462842 1 rotate no_reflect no_shear #
shell $-1 $-1 $-1 $16 $-1 $4 #
shell $-1 $-1 $-1 $17 $-1 $6 #
shell $-1 $-1 $-1 $18 $-1 $8 #
shell $-1 $-1 $-1 $19 $-1 $10 #
face $-1 $20 $21 $12 $-1 $22 forward single #
face $-1 $23 $24 $13 $-1 $25 forward single #
face $-1 $26 $27 $14 $-1 $28 forward single #
face $-1 $29 $30 $15 $-1 $31 reversed single #
face $-1 $32 $33 $12 $-1 $34 reversed single #
loop $-1 $-1 $35 $16 #
plane-surface $-1 0 0 15.631383907462842 0 0 1 1 0 0 forward_v I I I I #
face $-1 $36 $37 $13 $-1 $38 forward single #
loop $-1 $-1 $39 $17 #
plane-surface $-1 -61.246565136299893 -12.500075798531586 0 0 1 0 0 0 1 forward_v I I I I #
face $-1 $40 $41 $14 $-1 $42 forward single #
loop $-1 $-1 $43 $18 #
plane-surface $-1 -31.328595934273608 -30.195591747369726 99.953050199348326 0.68199836817093118 0 0.7313536940579346 0.7313536940579346 0 -0.68199836817093118 forward_v I I I I #
face $-1 $44 $45 $15 $-1 $46 reversed single #
loop $-1 $47 $48 $19 #
cone-surface $-1 62.486703860591739 -30.195591747369726 10.635344295676381 -0.68199836817093118 0 -0.7313536940579346 1.4627073881158692 0 -1.3639967363418624 1 I I 0 1 2 forward I I I I #
face $-1 $49 $50 $12 $-1 $51 reversed single #
loop $-1 $-1 $52 $20 #
plane-surface $-1 0 0 -15.631383907462842 0 0 1 1 0 0 forward_v I I I I #
coedge $-1 $53 $54 $55 $56 forward $21 $-1 #
face $-1 $57 $58 $13 $-1 $59 forward single #
loop $-1 $-1 $60 $23 #
plane-surface $-1 -61.246565136299893 -4.6498933801097913 0 0 -1 0 0 0 -1 forward_v I I I I #
coedge $-1 $61 $62 $63 $64 reversed $24 $-1 #
face $-1 $65 $66 $14 $-1 $67 reversed single #
loop $-1 $-1 $68 $26 #
plane-surface $-1 61.023728031258841 -24.478522299703975 198.98879051669024 0 -1 0 -0.68199836817093118 0 -0.7313536940579346 forward_v I I I I #
coedge $-1 $69 $70 $71 $72 reversed $27 $-1 #
face $-1 $73 $74 $15 $-1 $75 forward single #
loop $-1 $76 $77 $29 #
cone-surface $-1 60.890177879302044 -30.195591747369726 8.9232798266554791 -0.68199836817093118 0 -0.7313536940579346 0.7313536940579346 0 -0.68199836817093118 1 I I -0.70710678118654746 0.70710678118654746 1 forward I I I I #
loop $-1 $-1 $78 $19 #
coedge $-1 $48 $48 $79 $80 reversed $30 $-1 #
face $-1 $81 $82 $12 $-1 $83 reversed single #
loop $-1 $-1 $84 $32 #
plane-surface $-1 0 -35.912661195035476 0 0 1 0 0 0 1 forward_v I I I I #
coedge $-1 $85 $86 $87 $88 forward $33 $-1 #
coedge $-1 $89 $35 $90 $91 forward $21 $-1 #
coedge $-1 $35 $89 $92 $93 forward $21 $-1 #
coedge $-1 $94 $95 $35 $56 reversed $96 $-1 #
edge $-1 $97 -35.912661195035476 $98 35.912661195035476 $55 $99 forward 7 unknown #
face $-1 $100 $101 $13 $-1 $102 forward single #
loop $-1 $-1 $103 $36 #
plane-surface $-1 -54.78598588953146 -8.5749845893206889 0 -1 0 0 0 0 1 forward_v I I I I #
coedge $-1 $104 $105 $106 $107 reversed $37 $-1 #
coedge $-1 $108 $39 $109 $110 reversed $24 $-1 #
coedge $-1 $39 $108 $111 $112 reversed $24 $-1 #
coedge $-1 $113 $114 $39 $64 forward $115 $-1 #
edge $-1 $116 -15.631383907462842 $117 15.631383907462842 $63 $118 forward 7 unknown #
face $-1 $119 $120 $14 $-1 $121 reversed single #
loop $-1 $-1 $122 $40 #
plane-surface $-1 67.707144383068325 0 0 -1 0 0 0 0 1 forward_v I I I I #
coedge $-1 $123 $124 $122 $125 reversed $41 $-1 #
coedge $-1 $126 $43 $124 $127 reversed $27 $-1 #
coedge $-1 $43 $126 $128 $129 reversed $27 $-1 #
coedge $-1 $130 $122 $43 $72 forward $66 $-1 #
edge $-1 $131 9.3807264260191126 $132 20.814865321350613 $71 $133 forward 7 unknown #
face $-1 $134 $135 $15 $-1 $136 forward single #
loop $-1 $137 $79 $44 #
plane-surface $-1 -31.328595934273608 -30.195591747369726 99.953050199348326 0.68199836817093118 0 0.7313536940579346 0.7313536940579346 0 -0.68199836817093118 forward_v I I I I #
loop $-1 $-1 $138 $29 #
coedge $-1 $77 $77 $78 $139 forward $45 $-1 #
coedge $-1 $78 $78 $77 $139 reversed $47 $-1 #
coedge $-1 $79 $79 $48 $80 forward $74 $-1 #
edge $-1 $140 0 $140 6.2831853071796004 $79 $141 forward 7 unknown #
face $-1 $142 $143 $12 $-1 $144 reversed single #
loop $-1 $-1 $145 $49 #
plane-surface $-1 -67.707144383068325 0 0 1 0 0 0 0 -1 forward_v I I I I #
coedge $-1 $146 $92 $147 $148 forward $50 $-1 #
coedge $-1 $149 $52 $146 $150 forward $33 $-1 #
coedge $-1 $52 $149 $151 $152 forward $33 $-1 #
coedge $-1 $95 $94 $52 $88 reversed $96 $-1 #
edge $-1 $153 -35.912661195035476 $154 35.912661195035476 $87 $155 forward 7 unknown #
coedge $-1 $54 $53 $156 $157 forward $21 $-1 #
coedge $-1 $158 $159 $53 $91 reversed $143 $-1 #
edge $-1 $98 -67.707144383068325 $160 67.707144383068325 $90 $161 forward 7 unknown #
coedge $-1 $84 $162 $54 $93 reversed $50 $-1 #
edge $-1 $163 -67.707144383068325 $97 67.707144383068325 $92 $164 forward 7 unknown #
coedge $-1 $87 $55 $162 $165 forward $96 $-1 #
coedge $-1 $55 $87 $158 $166 reversed $96 $-1 #
loop $-1 $-1 $94 $142 #
vertex $-1 $56 $167 #
vertex $-1 $56 $168 #
straight-curve $-1 67.707144383068325 0 15.631383907462842 0 1 0 I I #
face $-1 $169 $115 $13 $-1 $170 reversed single #
loop $-1 $-1 $171 $57 #
plane-surface $-1 0 0 15.631383907462842 0 0 1 1 0 0 forward_v I I I I #
coedge $-1 $172 $173 $108 $174 reversed $58 $-1 #
coedge $-1 $175 $60 $171 $176 reversed $37 $-1 #
coedge $-1 $60 $175 $177 $178 reversed $37 $-1 #
coedge $-1 $173 $172 $60 $107 forward $58 $-1 #
edge $-1 $179 -15.631383907462842 $180 15.631383907462842 $106 $181 forward 7 unknown #
coedge $-1 $62 $61 $103 $174 forward $24 $-1 #
coedge $-1 $182 $183 $61 $110 forward $101 $-1 #
edge $-1 $184 24.162703321381514 $116 37.083861814918379 $109 $185 forward 7 unknown #
coedge $-1 $186 $187 $62 $112 forward $188 $-1 #
edge $-1 $117 -37.083861814918379 $189 -24.162703321381514 $111 $190 forward 7 unknown #
coedge $-1 $191 $63 $187 $192 reversed $115 $-1 #
coedge $-1 $63 $191 $182 $193 reversed $115 $-1 #
loop $-1 $-1 $63 $100 #
vertex $-1 $193 $194 #
vertex $-1 $64 $195 #
straight-curve $-1 -67.707144383068325 -12.500075798531586 0 0 0 -1 I I #
face $-1 $196 $197 $14 $-1 $198 forward single #
loop $-1 $-1 $128 $65 #
plane-surface $-1 0 -35.912661195035476 0 0 1 0 0 0 1 forward_v I I I I #
coedge $-1 $71 $199 $68 $125 forward $66 $-1 #
coedge $-1 $124 $68 $200 $201 reversed $41 $-1 #
coedge $-1 $68 $123 $69 $127 forward $41 $-1 #
edge $-1 $202 83.863011350882275 $131 91.893669024529274 $122 $203 forward 7 unknown #
coedge $-1 $70 $69 $204 $205 reversed $27 $-1 #
edge $-1 $206 123.63910271226879 $131 135.41428876613668 $124 $207 forward 7 unknown #
coedge $-1 $208 $209 $70 $129 forward $120 $-1 #
edge $-1 $132 -89.874238018215607 $210 -78.099051964347751 $128 $211 forward 7 unknown #
coedge $-1 $212 $71 $209 $213 forward $66 $-1 #
vertex $-1 $72 $214 #
vertex $-1 $213 $215 #
straight-curve $-1 67.707144383068325 -15.097795873684863 7.6007262338158696 0 -1 0 I I #
face $-1 $216 $217 $15 $-1 $218 reversed single #
loop $-1 $-1 $219 $73 #
plane-surface $-1 61.023728031258841 -24.478522299703975 198.98879051669024 0 -1 0 -0.68199836817093118 0 -0.7313536940579346 forward_v I I I I #
loop $-1 $-1 $220 $44 #
coedge $-1 $138 $138 $-1 $221 forward $76 $-1 #
edge $-1 $222 0 $222 6.2831853071796004 $77 $223 forward 7 unknown #
vertex $-1 $80 $224 #
ellipse-curve $-1 63.401231473710482 -30.195591747369726 11.616055070639327 -0.68199836817093118 0 -0.7313536940579346 1.4627073881158692 0 -1.3639967363418624 1 I I #
face $-1 $-1 $96 $12 $-1 $225 reversed single #
loop $-1 $-1 $158 $81 #
plane-surface $-1 0 35.912661195035476 0 0 -1 0 0 0 -1 forward_v I I I I #
coedge $-1 $226 $156 $159 $227 forward $82 $-1 #
coedge $-1 $162 $84 $85 $150 reversed $50 $-1 #
coedge $-1 $156 $226 $84 $148 reversed $82 $-1 #
edge $-1 $163 -15.631383907462842 $228 15.631383907462842 $147 $229 forward 7 unknown #
coedge $-1 $86 $85 $226 $230 forward $33 $-1 #
edge $-1 $154 -67.707144383068325 $228 67.707144383068325 $146 $231 forward 7 unknown #
coedge $-1 $159 $158 $86 $152 reversed $143 $-1 #
edge $-1 $232 -67.707144383068325 $153 67.707144383068325 $151 $233 forward 7 unknown #
vertex $-1 $88 $234 #
vertex $-1 $165 $235 #
straight-curve $-1 67.707144383068325 0 -15.631383907462842 0 -1 0 I I #
coedge $-1 $145 $147 $89 $157 reversed $82 $-1 #
edge $-1 $160 -35.912661195035476 $163 35.912661195035476 $156 $236 forward 7 unknown #
coedge $-1 $151 $90 $95 $166 forward $143 $-1 #
coedge $-1 $90 $151 $145 $227 reversed $143 $-1 #
vertex $-1 $91 $237 #
straight-curve $-1 0 35.912661195035476 15.631383907462842 -1 0 0 I I #
coedge $-1 $92 $146 $94 $165 reversed $50 $-1 #
vertex $-1 $157 $238 #
straight-curve $-1 0 -35.912661195035476 15.631383907462842 1 0 0 I I #
edge $-1 $97 -15.631383907462842 $154 15.631383907462842 $94 $239 forward 7 unknown #
edge $-1 $98 -15.631383907462842 $153 15.631383907462842 $95 $240 forward 7 unknown #
point $-1 67.707144383068325 -35.912661195035476 15.631383907462842 #
point $-1 67.707144383068325 35.912661195035476 15.631383907462842 #
face $-1 $241 $188 $13 $-1 $242 reversed single #
plane-surface $-1 -67.707144383068325 0 0 1 0 0 0 0 -1 forward_v I I I I #
coedge $-1 $183 $243 $104 $176 forward $101 $-1 #
coedge $-1 $106 $103 $183 $244 reversed $58 $-1 #
coedge $-1 $103 $106 $186 $245 reversed $58 $-1 #
edge $-1 $184 -15.631383907462842 $189 15.631383907462842 $103 $246 forward 7 unknown #
coedge $-1 $105 $104 $247 $248 reversed $37 $-1 #
edge $-1 $249 -37.083861814918379 $179 -24.162703321381514 $171 $250 forward 7 unknown #
coedge $-1 $251 $186 $105 $178 forward $188 $-1 #
edge $-1 $180 24.162703321381514 $252 37.083861814918379 $177 $253 forward 7 unknown #
vertex $-1 $176 $254 #
vertex $-1 $178 $255 #
straight-curve $-1 -54.78598588953146 -4.6498933801097913 0 0 0 -1 I I #
coedge $-1 $256 $109 $114 $193 forward $101 $-1 #
coedge $-1 $109 $171 $172 $244 forward $101 $-1 #
vertex $-1 $110 $257 #
straight-curve $-1 -30.623282568149946 -12.500075798531586 15.631383907462842 -1 0 0 I I #
coedge $-1 $177 $111 $173 $245 forward $188 $-1 #
coedge $-1 $111 $258 $113 $192 forward $188 $-1 #
loop $-1 $-1 $177 $169 #
vertex $-1 $112 $259 #
straight-curve $-1 -30.623282568149946 -12.500075798531586 -15.631383907462842 1 0 0 I I #
coedge $-1 $114 $113 $260 $261 reversed $115 $-1 #
edge $-1 $262 -35.912661195035476 $117 -12.500075798531586 $113 $263 forward 7 unknown #
edge $-1 $116 12.500075798531586 $264 35.912661195035476 $114 $265 forward 7 unknown #
point $-1 -67.707144383068325 -12.500075798531586 15.631383907462842 #
point $-1 -67.707144383068325 -12.500075798531586 -15.631383907462842 #
face $-1 $266 $267 $14 $-1 $268 forward single #
loop $-1 $-1 $269 $119 #
plane-surface $-1 -61.246565136299893 -12.500075798531586 0 0 1 0 0 0 1 forward_v I I I I #
coedge $-1 $122 $270 $271 $272 reversed $66 $-1 #
coedge $-1 $271 $204 $123 $201 forward $273 $-1 #
edge $-1 $206 28.583454548723161 $202 37.195280367438905 $200 $274 forward 7 unknown #
vertex $-1 $272 $275 #
straight-curve $-1 67.707144383068325 -24.478522299703975 99.494395258345122 0 0 -1 I I #
coedge $-1 $200 $276 $126 $205 forward $273 $-1 #
edge $-1 $210 -20.814865321350613 $206 -9.3807264260191126 $204 $277 forward 7 unknown #
vertex $-1 $205 $278 #
straight-curve $-1 -31.328595934273608 -24.478522299703975 99.953050199348326 0.7313536940579346 0 -0.68199836817093118 I I #
coedge $-1 $279 $128 $276 $280 reversed $120 $-1 #
coedge $-1 $128 $281 $130 $213 reversed $120 $-1 #
vertex $-1 $205 $282 #
straight-curve $-1 1.9772884078042701 -35.912661195035476 68.89480990284477 -0.7313536940579346 0 0.68199836817093118 I I #
coedge $-1 $270 $130 $283 $284 reversed $66 $-1 #
edge $-1 $132 -7.6007262338158652 $285 15.631383907462842 $130 $286 forward 7 unknown #
point $-1 67.707144383068325 -24.478522299703975 7.6007262338158483 #
point $-1 67.707144383068325 -35.912661195035476 7.6007262338158652 #
face $-1 $287 $288 $15 $-1 $289 reversed single #
loop $-1 $-1 $290 $134 #
plane-surface $-1 67.707144383068325 0 0 -1 0 0 0 0 1 forward_v I I I I #
coedge $-1 $291 $292 $290 $293 reversed $135 $-1 #
coedge $-1 $294 $295 $296 $297 reversed $137 $-1 #
edge $-1 $298 1 $298 0 $138 $-1 forward 7 unknown #
vertex $-1 $139 $299 #
ellipse-curve $-1 61.572176247472974 -30.195591747369726 9.6546335207134142 0.68199836817093118 0 0.7313536940579346 1.4627073881158692 0 -1.3639967363418624 1 I I #
point $-1 64.863938861826369 -30.195591747369726 10.252058334297486 #
plane-surface $-1 67.707144383068325 0 0 -1 0 0 0 0 1 forward_v I I I I #
coedge $-1 $147 $145 $149 $230 reversed $82 $-1 #
edge $-1 $160 -15.631383907462842 $232 15.631383907462842 $159 $300 forward 7 unknown #
vertex $-1 $230 $301 #
straight-curve $-1 -67.707144383068325 -35.912661195035476 0 0 0 -1 I I #
edge $-1 $228 -35.912661195035476 $232 35.912661195035476 $226 $302 forward 7 unknown #
straight-curve $-1 0 -35.912661195035476 -15.631383907462842 -1 0 0 I I #
vertex $-1 $152 $303 #
straight-curve $-1 0 35.912661195035476 -15.631383907462842 1 0 0 I I #
point $-1 67.707144383068325 35.912661195035476 -15.631383907462842 #
point $-1 67.707144383068325 -35.912661195035476 -15.631383907462842 #
straight-curve $-1 -67.707144383068325 0 15.631383907462842 0 -1 0 I I #
point $-1 -67.707144383068325 35.912661195035476 15.631383907462842 #
point $-1 -67.707144383068325 -35.912661195035476 15.631383907462842 #
straight-curve $-1 67.707144383068325 -35.912661195035476 0 0 0 -1 I I #
straight-curve $-1 67.707144383068325 35.912661195035476 0 0 0 -1 I I #
face $-1 $304 $305 $13 $-1 $306 reversed single #
plane-surface $-1 0 0 -15.631383907462842 0 0 1 1 0 0 forward_v I I I I #
coedge $-1 $171 $307 $308 $309 forward $101 $-1 #
edge $-1 $179 0.36240108544944682 $184 8.212583503871242 $183 $310 forward 7 unknown #
edge $-1 $189 -8.212583503871242 $180 -0.36240108544944682 $186 $311 forward 7 unknown #
straight-curve $-1 -54.78598588953146 -12.500075798531586 0 0 0 -1 I I #
coedge $-1 $308 $312 $175 $248 forward $313 $-1 #
edge $-1 $252 -15.631383907462842 $249 15.631383907462842 $247 $314 forward 7 unknown #
vertex $-1 $248 $315 #
straight-curve $-1 -30.623282568149946 -4.6498933801097913 15.631383907462842 1 0 0 I I #
coedge $-1 $316 $177 $312 $317 forward $188 $-1 #
vertex $-1 $317 $318 #
straight-curve $-1 -30.623282568149946 -4.6498933801097913 -15.631383907462842 -1 0 0 I I #
point $-1 -54.78598588953146 -4.6498933801097913 15.631383907462842 #
point $-1 -54.78598588953146 -4.6498933801097913 -15.631383907462842 #
coedge $-1 $319 $182 $320 $321 forward $101 $-1 #
point $-1 -54.78598588953146 -12.500075798531586 15.631383907462842 #
coedge $-1 $187 $322 $323 $324 forward $188 $-1 #
point $-1 -54.78598588953146 -12.500075798531586 -15.631383907462842 #
coedge $-1 $323 $320 $191 $261 forward $305 $-1 #
edge $-1 $264 -15.631383907462842 $262 15.631383907462842 $191 $325 forward 7 unknown #
vertex $-1 $192 $326 #
straight-curve $-1 -67.707144383068325 0 -15.631383907462842 0 1 0 I I #
vertex $-1 $193 $327 #
straight-curve $-1 -67.707144383068325 0 15.631383907462842 0 -1 0 I I #
face $-1 $328 $329 $14 $-1 $330 forward single #
loop $-1 $-1 $331 $196 #
plane-surface $-1 -61.246565136299893 -4.6498933801097913 0 0 -1 0 0 0 -1 forward_v I I I I #
coedge $-1 $332 $333 $334 $335 reversed $197 $-1 #
coedge $-1 $199 $212 $336 $337 reversed $66 $-1 #
coedge $-1 $338 $200 $199 $272 forward $273 $-1 #
edge $-1 $202 -24.478522299703975 $339 35.912661195035476 $199 $340 forward 7 unknown #
loop $-1 $-1 $200 $328 #
straight-curve $-1 30.511864015629421 -24.478522299703975 15.631383907462848 1 0 0 I I #
point $-1 67.707144383068325 -24.478522299703975 15.631383907462842 #
coedge $-1 $204 $341 $208 $280 forward $273 $-1 #
straight-curve $-1 59.095318564352596 -15.097795873684863 15.63138390746284 0 1 0 I I #
point $-1 59.095318564352581 -24.478522299703975 15.631383907462848 #
coedge $-1 $281 $208 $342 $343 forward $120 $-1 #
edge $-1 $344 -67.707144383068325 $210 59.095318564352581 $208 $345 forward 7 unknown #
coedge $-1 $209 $279 $346 $347 reversed $120 $-1 #
point $-1 59.095318564352581 -35.912661195035476 15.631383907462848 #
coedge $-1 $346 $348 $212 $284 forward $349 $-1 #
edge $-1 $350 -35.912661195035476 $285 35.912661195035476 $212 $351 forward 7 unknown #
vertex $-1 $213 $352 #
straight-curve $-1 67.707144383068325 -35.912661195035476 0 0 0 -1 I I #
face $-1 $353 $354 $15 $-1 $355 forward single #
loop $-1 $-1 $356 $216 #
plane-surface $-1 0 -35.912661195035476 0 0 1 0 0 0 1 forward_v I I I I #
coedge $-1 $296 $357 $219 $293 forward $217 $-1 #
coedge $-1 $292 $219 $358 $359 reversed $135 $-1 #
coedge $-1 $219 $291 $294 $360 forward $135 $-1 #
edge $-1 $361 83.863011350882275 $362 91.893669024529274 $290 $363 forward 7 unknown #
coedge $-1 $364 $220 $292 $360 reversed $137 $-1 #
coedge $-1 $220 $364 $356 $365 reversed $137 $-1 #
coedge $-1 $366 $290 $220 $297 forward $217 $-1 #
edge $-1 $362 9.3807264260191126 $367 20.814865321350613 $296 $368 forward 7 unknown #
vertex $-1 $221 $369 #
point $-1 63.034883635588841 -30.195591747369726 8.2906367843715518 #
straight-curve $-1 -67.707144383068325 35.912661195035476 0 0 0 -1 I I #
point $-1 -67.707144383068325 -35.912661195035476 -15.631383907462842 #
straight-curve $-1 -67.707144383068325 0 -15.631383907462842 0 1 0 I I #
point $-1 -67.707144383068325 35.912661195035476 -15.631383907462842 #
face $-1 $370 $313 $13 $-1 $170 reversed single #
loop $-1 $-1 $260 $241 #
plane-surface $-1 0 -35.912661195035476 0 0 1 0 0 0 1 forward_v I I I I #
coedge $-1 $243 $319 $371 $372 forward $101 $-1 #
coedge $-1 $373 $247 $243 $309 reversed $313 $-1 #
edge $-1 $374 -35.912661195035476 $249 4.6498933801097913 $308 $265 forward 7 unknown #
straight-curve $-1 -54.78598588953146 -4.2874922946603444 15.631383907462842 0 -1 0 I I #
straight-curve $-1 -54.78598588953146 -4.2874922946603444 -15.631383907462842 0 1 0 I I #
coedge $-1 $247 $373 $251 $317 reversed $313 $-1 #
loop $-1 $-1 $247 $304 #
straight-curve $-1 -67.707144383068325 -4.6498933801097913 0 0 0 1 I I #
point $-1 -67.707144383068325 -4.6498933801097913 15.631383907462842 #
coedge $-1 $322 $251 $375 $376 forward $188 $-1 #
edge $-1 $252 -4.6498933801097913 $377 35.912661195035476 $312 $263 forward 7 unknown #
point $-1 -67.707144383068325 -4.6498933801097913 -15.631383907462842 #
coedge $-1 $307 $256 $378 $379 forward $101 $-1 #
coedge $-1 $260 $380 $256 $321 reversed $305 $-1 #
edge $-1 $264 -67.707144383068325 $381 67.707144383068325 $320 $382 forward 7 unknown #
coedge $-1 $258 $316 $383 $384 forward $188 $-1 #
coedge $-1 $380 $260 $258 $324 reversed $305 $-1 #
edge $-1 $385 -67.707144383068325 $262 67.707144383068325 $323 $386 forward 7 unknown #
straight-curve $-1 -67.707144383068325 -35.912661195035476 0 0 0 -1 I I #
point $-1 -67.707144383068325 -35.912661195035476 -15.631383907462842 #
point $-1 -67.707144383068325 -35.912661195035476 15.631383907462842 #
face $-1 $387 $273 $14 $-1 $388 forward single #
loop $-1 $-1 $389 $266 #
plane-surface $-1 -54.78598588953146 -8.5749845893206889 0 -1 0 0 0 0 1 forward_v I I I I #
coedge $-1 $390 $391 $392 $393 reversed $267 $-1 #
coedge $-1 $394 $269 $395 $396 reversed $197 $-1 #
coedge $-1 $269 $394 $397 $398 reversed $197 $-1 #
coedge $-1 $399 $400 $269 $335 forward $401 $-1 #
edge $-1 $402 -15.631383907462842 $403 15.631383907462842 $334 $404 forward 7 unknown #
coedge $-1 $405 $406 $270 $337 forward $407 $-1 #
edge $-1 $339 -15.631383907462842 $350 15.631383907462842 $270 $408 forward 7 unknown #
coedge $-1 $409 $271 $406 $410 forward $273 $-1 #
vertex $-1 $272 $411 #
straight-curve $-1 67.707144383068325 0 15.631383907462842 0 1 0 I I #
coedge $-1 $276 $395 $400 $412 forward $273 $-1 #
coedge $-1 $400 $399 $279 $343 reversed $401 $-1 #
edge $-1 $344 -15.631383907462842 $413 15.631383907462842 $342 $414 forward 7 unknown #
vertex $-1 $412 $415 #
straight-curve $-1 0 -35.912661195035476 15.631383907462842 1 0 0 I I #
coedge $-1 $416 $283 $281 $347 forward $349 $-1 #
edge $-1 $285 -67.707144383068325 $413 67.707144383068325 $281 $417 forward 7 unknown #
coedge $-1 $283 $418 $405 $419 forward $349 $-1 #
loop $-1 $-1 $420 $421 #
vertex $-1 $284 $422 #
straight-curve $-1 67.707144383068325 0 -15.631383907462842 0 -1 0 I I #
point $-1 67.707144383068325 -35.912661195035476 -15.631383907462842 #
face $-1 $423 $424 $15 $-1 $425 forward single #
loop $-1 $-1 $426 $287 #
plane-surface $-1 -61.246565136299893 -12.500075798531586 0 0 1 0 0 0 1 forward_v I I I I #
coedge $-1 $427 $428 $295 $365 forward $288 $-1 #
coedge $-1 $290 $429 $430 $431 reversed $217 $-1 #
coedge $-1 $430 $432 $291 $359 forward $433 $-1 #
edge $-1 $434 28.583454548723161 $361 37.195280367438905 $358 $435 forward 7 unknown #
edge $-1 $434 123.63910271226879 $362 135.41428876613668 $292 $436 forward 7 unknown #
vertex $-1 $431 $437 #
vertex $-1 $297 $438 #
straight-curve $-1 67.707144383068325 -24.478522299703975 99.494395258345122 0 0 -1 I I #
coedge $-1 $295 $294 $432 $439 reversed $137 $-1 #
edge $-1 $367 -89.874238018215607 $440 -78.099051964347751 $356 $441 forward 7 unknown #
coedge $-1 $442 $296 $428 $443 forward $217 $-1 #
vertex $-1 $443 $444 #
straight-curve $-1 67.707144383068325 -15.097795873684863 7.6007262338158696 0 -1 0 I I #
point $-1 60.208179511131114 -30.195591747369726 8.1919261325975441 #
face $-1 $445 $446 $13 $-1 $447 reversed single #
coedge $-1 $448 $449 $307 $372 reversed $446 $-1 #
edge $-1 $450 -67.707144383068325 $374 67.707144383068325 $371 $451 forward 7 unknown #
coedge $-1 $312 $308 $449 $452 forward $313 $-1 #
vertex $-1 $372 $453 #
coedge $-1 $449 $448 $316 $376 reversed $446 $-1 #
edge $-1 $377 -67.707144383068325 $454 67.707144383068325 $375 $455 forward 7 unknown #
vertex $-1 $376 $456 #
coedge $-1 $457 $458 $319 $379 reversed $459 $-1 #
edge $-1 $381 -35.912661195035476 $450 35.912661195035476 $378 $460 forward 7 unknown #
coedge $-1 $320 $323 $457 $461 reversed $305 $-1 #
vertex $-1 $379 $462 #
straight-curve $-1 0 -35.912661195035476 15.631383907462842 1 0 0 I I #
coedge $-1 $458 $457 $322 $384 reversed $459 $-1 #
edge $-1 $454 -35.912661195035476 $385 35.912661195035476 $383 $463 forward 7 unknown #
vertex $-1 $461 $464 #
straight-curve $-1 0 -35.912661195035476 -15.631383907462842 -1 0 0 I I #
face $-1 $421 $401 $14 $-1 $465 reversed single #
plane-surface $-1 0 0 15.631383907462842 0 0 1 1 0 0 forward_v I I I I #
coedge $-1 $466 $467 $394 $468 reversed $329 $-1 #
coedge $-1 $469 $331 $470 $471 reversed $267 $-1 #
coedge $-1 $331 $469 $420 $472 reversed $267 $-1 #
coedge $-1 $467 $466 $331 $393 forward $329 $-1 #
edge $-1 $473 -15.631383907462842 $474 15.631383907462842 $392 $475 forward 7 unknown #
coedge $-1 $333 $332 $389 $468 forward $197 $-1 #
coedge $-1 $341 $476 $332 $396 forward $273 $-1 #
edge $-1 $477 24.162703321381514 $402 37.083861814918379 $395 $478 forward 7 unknown #
coedge $-1 $479 $416 $333 $398 forward $349 $-1 #
edge $-1 $403 -37.083861814918379 $480 -24.162703321381514 $397 $481 forward 7 unknown #
coedge $-1 $342 $334 $416 $482 reversed $401 $-1 #
coedge $-1 $334 $342 $341 $412 reversed $401 $-1 #
loop $-1 $-1 $334 $387 #
vertex $-1 $412 $483 #
vertex $-1 $335 $484 #
straight-curve $-1 -67.707144383068325 -12.500075798531586 0 0 0 -1 I I #
coedge $-1 $485 $336 $348 $419 reversed $407 $-1 #
coedge $-1 $336 $485 $338 $410 reversed $407 $-1 #
loop $-1 $-1 $336 $486 #
straight-curve $-1 67.707144383068325 35.912661195035476 0 0 0 -1 I I #
coedge $-1 $470 $338 $487 $488 forward $273 $-1 #
edge $-1 $339 -67.707144383068325 $489 67.707144383068325 $406 $490 forward 7 unknown #
point $-1 67.707144383068325 35.912661195035476 15.631383907462842 #
edge $-1 $402 12.500075798531586 $344 35.912661195035476 $400 $491 forward 7 unknown #
vertex $-1 $482 $492 #
straight-curve $-1 -67.707144383068325 -35.912661195035476 0 0 0 -1 I I #
point $-1 -67.707144383068325 -35.912661195035476 15.631383907462842 #
coedge $-1 $397 $346 $399 $482 forward $349 $-1 #
straight-curve $-1 0 -35.912661195035476 -15.631383907462842 -1 0 0 I I #
coedge $-1 $348 $420 $493 $494 forward $349 $-1 #
edge $-1 $495 -67.707144383068325 $350 67.707144383068325 $405 $496 forward 7 unknown #
coedge $-1 $418 $479 $391 $472 forward $349 $-1 #
face $-1 $497 $349 $14 $-1 $498 reversed single #
point $-1 67.707144383068325 35.912661195035476 -15.631383907462842 #
face $-1 $499 $500 $15 $-1 $501 forward single #
loop $-1 $-1 $502 $353 #
plane-surface $-1 -61.246565136299893 -4.6498933801097913 0 0 -1 0 0 0 -1 forward_v I I I I #
coedge $-1 $503 $504 $505 $506 reversed $354 $-1 #
coedge $-1 $507 $356 $508 $509 reversed $288 $-1 #
coedge $-1 $356 $510 $366 $443 reversed $288 $-1 #
coedge $-1 $357 $442 $511 $512 reversed $217 $-1 #
coedge $-1 $513 $358 $357 $431 forward $433 $-1 #
edge $-1 $361 -24.478522299703975 $514 35.912661195035476 $357 $515 forward 7 unknown #
coedge $-1 $358 $508 $364 $439 forward $433 $-1 #
loop $-1 $-1 $358 $499 #
vertex $-1 $439 $516 #
straight-curve $-1 30.511864015629421 -24.478522299703975 15.631383907462848 1 0 0 I I #
straight-curve $-1 -31.328595934273608 -24.478522299703975 99.953050199348326 0.7313536940579346 0 -0.68199836817093118 I I #
point $-1 67.707144383068325 -24.478522299703975 15.631383907462842 #
point $-1 67.707144383068325 -24.478522299703975 7.6007262338158483 #
edge $-1 $440 -20.814865321350613 $434 -9.3807264260191126 $432 $517 forward 7 unknown #
vertex $-1 $439 $518 #
straight-curve $-1 1.9772884078042701 -35.912661195035476 68.89480990284477 -0.7313536940579346 0 0.68199836817093118 I I #
coedge $-1 $429 $366 $519 $520 reversed $217 $-1 #
edge $-1 $367 -7.6007262338158652 $521 15.631383907462842 $366 $522 forward 7 unknown #
point $-1 67.707144383068325 -35.912661195035476 7.6007262338158652 #
face $-1 $-1 $459 $13 $-1 $523 reversed single #
loop $-1 $-1 $448 $370 #
plane-surface $-1 0 35.912661195035476 0 0 -1 0 0 0 -1 forward_v I I I I #
coedge $-1 $375 $371 $458 $524 forward $446 $-1 #
coedge $-1 $371 $375 $373 $452 reversed $446 $-1 #
vertex $-1 $379 $525 #
straight-curve $-1 0 35.912661195035476 15.631383907462842 -1 0 0 I I #
edge $-1 $374 -15.631383907462842 $377 15.631383907462842 $449 $526 forward 7 unknown #
point $-1 -67.707144383068325 35.912661195035476 15.631383907462842 #
vertex $-1 $384 $527 #
straight-curve $-1 0 35.912661195035476 -15.631383907462842 1 0 0 I I #
point $-1 -67.707144383068325 35.912661195035476 -15.631383907462842 #
coedge $-1 $383 $378 $380 $461 forward $459 $-1 #
coedge $-1 $378 $383 $448 $524 reversed $459 $-1 #
loop $-1 $-1 $457 $445 #
straight-curve $-1 67.707144383068325 0 15.631383907462842 0 1 0 I I #
edge $-1 $381 -15.631383907462842 $385 15.631383907462842 $457 $528 forward 7 unknown #
point $-1 67.707144383068325 -35.912661195035476 15.631383907462842 #
straight-curve $-1 67.707144383068325 0 -15.631383907462842 0 -1 0 I I #
point $-1 67.707144383068325 -35.912661195035476 -15.631383907462842 #
plane-surface $-1 -67.707144383068325 0 0 1 0 0 0 0 -1 forward_v I I I I #
coedge $-1 $392 $389 $476 $529 reversed $329 $-1 #
coedge $-1 $389 $392 $479 $530 reversed $329 $-1 #
edge $-1 $477 -15.631383907462842 $480 15.631383907462842 $389 $531 forward 7 unknown #
coedge $-1 $391 $390 $532 $533 reversed $267 $-1 #
coedge $-1 $476 $409 $390 $471 forward $273 $-1 #
edge $-1 $534 -37.083861814918379 $473 -24.162703321381514 $470 $535 forward 7 unknown #
edge $-1 $474 24.162703321381514 $536 37.083861814918379 $420 $537 forward 7 unknown #
vertex $-1 $471 $538 #
vertex $-1 $472 $539 #
straight-curve $-1 -54.78598588953146 -4.6498933801097913 0 0 0 -1 I I #
coedge $-1 $395 $470 $466 $529 forward $273 $-1 #
vertex $-1 $396 $540 #
straight-curve $-1 -30.623282568149946 -12.500075798531586 15.631383907462842 -1 0 0 I I #
coedge $-1 $420 $397 $467 $530 forward $349 $-1 #
vertex $-1 $398 $541 #
straight-curve $-1 -30.623282568149946 -12.500075798531586 -15.631383907462842 1 0 0 I I #
edge $-1 $413 -35.912661195035476 $403 -12.500075798531586 $399 $542 forward 7 unknown #
point $-1 -67.707144383068325 -12.500075798531586 15.631383907462842 #
point $-1 -67.707144383068325 -12.500075798531586 -15.631383907462842 #
coedge $-1 $406 $405 $543 $544 reversed $407 $-1 #
face $-1 $-1 $407 $14 $-1 $545 reversed single #
coedge $-1 $543 $532 $409 $488 reversed $546 $-1 #
edge $-1 $489 -35.912661195035476 $534 4.6498933801097913 $487 $491 forward 7 unknown #
vertex $-1 $410 $547 #
straight-curve $-1 0 35.912661195035476 15.631383907462842 -1 0 0 I I #
straight-curve $-1 -67.707144383068325 0 15.631383907462842 0 -1 0 I I #
point $-1 -67.707144383068325 -35.912661195035476 -15.631383907462842 #
coedge $-1 $532 $543 $418 $494 reversed $546 $-1 #
edge $-1 $536 -4.6498933801097913 $495 35.912661195035476 $493 $542 forward 7 unknown #
vertex $-1 $419 $548 #
straight-curve $-1 0 35.912661195035476 -15.631383907462842 1 0 0 I I #
face $-1 $486 $546 $14 $-1 $465 reversed single #
plane-surface $-1 0 0 -15.631383907462842 0 0 1 1 0 0 forward_v I I I I #
face $-1 $549 $433 $15 $-1 $550 forward single #
loop $-1 $-1 $551 $423 #
plane-surface $-1 -54.78598588953146 -8.5749845893206889 0 -1 0 0 0 0 1 forward_v I I I I #
coedge $-1 $552 $553 $554 $555 reversed $424 $-1 #
coedge $-1 $556 $426 $557 $558 reversed $354 $-1 #
coedge $-1 $426 $556 $559 $560 reversed $354 $-1 #
coedge $-1 $561 $562 $426 $506 forward $563 $-1 #
edge $-1 $564 -15.631383907462842 $565 15.631383907462842 $505 $566 forward 7 unknown #
coedge $-1 $510 $427 $567 $568 forward $288 $-1 #
coedge $-1 $432 $569 $427 $509 forward $433 $-1 #
edge $-1 $570 -67.707144383068325 $440 59.095318564352581 $427 $571 forward 7 unknown #
coedge $-1 $428 $507 $572 $573 reversed $288 $-1 #
coedge $-1 $574 $575 $429 $512 forward $576 $-1 #
edge $-1 $514 -15.631383907462842 $577 15.631383907462842 $429 $578 forward 7 unknown #
coedge $-1 $579 $430 $575 $580 forward $433 $-1 #
vertex $-1 $431 $581 #
straight-curve $-1 67.707144383068325 0 15.631383907462842 0 1 0 I I #
point $-1 59.095318564352581 -24.478522299703975 15.631383907462848 #
straight-curve $-1 59.095318564352596 -15.097795873684863 15.63138390746284 0 1 0 I I #
point $-1 59.095318564352581 -35.912661195035476 15.631383907462848 #
coedge $-1 $572 $582 $442 $520 forward $583 $-1 #
edge $-1 $577 -35.912661195035476 $521 35.912661195035476 $442 $584 forward 7 unknown #
vertex $-1 $443 $585 #
straight-curve $-1 67.707144383068325 -35.912661195035476 0 0 0 -1 I I #
plane-surface $-1 67.707144383068325 0 0 -1 0 0 0 0 1 forward_v I I I I #
edge $-1 $450 -15.631383907462842 $454 15.631383907462842 $458 $586 forward 7 unknown #
point $-1 67.707144383068325 35.912661195035476 15.631383907462842 #
straight-curve $-1 -67.707144383068325 35.912661195035476 0 0 0 -1 I I #
point $-1 67.707144383068325 35.912661195035476 -15.631383907462842 #
straight-curve $-1 67.707144383068325 -35.912661195035476 0 0 0 -1 I I #
edge $-1 $473 0.36240108544944682 $477 8.212583503871242 $476 $587 forward 7 unknown #
edge $-1 $480 -8.212583503871242 $474 -0.36240108544944682 $479 $588 forward 7 unknown #
straight-curve $-1 -54.78598588953146 -12.500075798531586 0 0 0 -1 I I #
coedge $-1 $487 $493 $469 $533 forward $546 $-1 #
edge $-1 $536 -15.631383907462842 $534 15.631383907462842 $532 $589 forward 7 unknown #
vertex $-1 $533 $590 #
straight-curve $-1 -30.623282568149946 -4.6498933801097913 15.631383907462842 1 0 0 I I #
vertex $-1 $494 $591 #
straight-curve $-1 -30.623282568149946 -4.6498933801097913 -15.631383907462842 -1 0 0 I I #
point $-1 -54.78598588953146 -4.6498933801097913 15.631383907462842 #
point $-1 -54.78598588953146 -4.6498933801097913 -15.631383907462842 #
point $-1 -54.78598588953146 -12.500075798531586 15.631383907462842 #
point $-1 -54.78598588953146 -12.500075798531586 -15.631383907462842 #
straight-curve $-1 -67.707144383068325 0 -15.631383907462842 0 1 0 I I #
coedge $-1 $493 $487 $485 $544 forward $546 $-1 #
edge $-1 $489 -15.631383907462842 $495 15.631383907462842 $485 $592 forward 7 unknown #
plane-surface $-1 0 35.912661195035476 0 0 -1 0 0 0 -1 forward_v I I I I #
loop $-1 $-1 $532 $497 #
point $-1 -67.707144383068325 35.912661195035476 15.631383907462842 #
point $-1 -67.707144383068325 35.912661195035476 -15.631383907462842 #
face $-1 $593 $563 $15 $-1 $594 reversed single #
plane-surface $-1 0 0 15.631383907462842 0 0 1 1 0 0 forward_v I I I I #
coedge $-1 $595 $596 $556 $597 reversed $500 $-1 #
coedge $-1 $598 $502 $599 $600 reversed $424 $-1 #
coedge $-1 $502 $598 $601 $602 reversed $424 $-1 #
coedge $-1 $596 $595 $502 $555 forward $500 $-1 #
edge $-1 $603 -15.631383907462842 $604 15.631383907462842 $554 $605 forward 7 unknown #
coedge $-1 $504 $503 $551 $597 forward $354 $-1 #
coedge $-1 $569 $606 $503 $558 forward $433 $-1 #
edge $-1 $607 24.162703321381514 $564 37.083861814918379 $557 $608 forward 7 unknown #
coedge $-1 $609 $610 $504 $560 forward $583 $-1 #
edge $-1 $565 -37.083861814918379 $611 -24.162703321381514 $559 $612 forward 7 unknown #
coedge $-1 $567 $505 $610 $613 reversed $563 $-1 #
coedge $-1 $505 $567 $569 $614 reversed $563 $-1 #
loop $-1 $-1 $505 $549 #
vertex $-1 $614 $615 #
vertex $-1 $506 $616 #
straight-curve $-1 -67.707144383068325 -12.500075798531586 0 0 0 -1 I I #
coedge $-1 $562 $561 $507 $568 reversed $563 $-1 #
edge $-1 $570 -15.631383907462842 $617 15.631383907462842 $567 $618 forward 7 unknown #
coedge $-1 $508 $557 $562 $614 forward $433 $-1 #
vertex $-1 $614 $619 #
straight-curve $-1 0 -35.912661195035476 15.631383907462842 1 0 0 I I #
coedge $-1 $610 $519 $510 $573 forward $583 $-1 #
edge $-1 $521 -67.707144383068325 $617 67.707144383068325 $510 $620 forward 7 unknown #
coedge $-1 $621 $511 $582 $622 reversed $576 $-1 #
coedge $-1 $511 $621 $513 $580 reversed $576 $-1 #
loop $-1 $-1 $511 $623 #
vertex $-1 $520 $624 #
straight-curve $-1 67.707144383068325 35.912661195035476 0 0 0 -1 I I #
coedge $-1 $599 $513 $625 $626 forward $433 $-1 #
edge $-1 $514 -67.707144383068325 $627 67.707144383068325 $575 $628 forward 7 unknown #
point $-1 67.707144383068325 35.912661195035476 15.631383907462842 #
coedge $-1 $519 $629 $574 $622 forward $583 $-1 #
loop $-1 $-1 $601 $593 #
straight-curve $-1 67.707144383068325 0 -15.631383907462842 0 -1 0 I I #
point $-1 67.707144383068325 -35.912661195035476 -15.631383907462842 #
straight-curve $-1 67.707144383068325 35.912661195035476 0 0 0 -1 I I #
straight-curve $-1 -54.78598588953146 -4.2874922946603444 15.631383907462842 0 -1 0 I I #
straight-curve $-1 -54.78598588953146 -4.2874922946603444 -15.631383907462842 0 1 0 I I #
straight-curve $-1 -67.707144383068325 -4.6498933801097913 0 0 0 1 I I #
point $-1 -67.707144383068325 -4.6498933801097913 15.631383907462842 #
point $-1 -67.707144383068325 -4.6498933801097913 -15.631383907462842 #
straight-curve $-1 -67.707144383068325 35.912661195035476 0 0 0 -1 I I #
face $-1 $630 $583 $15 $-1 $631 reversed single #
plane-surface $-1 -67.707144383068325 0 0 1 0 0 0 0 -1 forward_v I I I I #
coedge $-1 $554 $551 $606 $632 reversed $500 $-1 #
coedge $-1 $551 $554 $609 $633 reversed $500 $-1 #
edge $-1 $607 -15.631383907462842 $611 15.631383907462842 $551 $634 forward 7 unknown #
coedge $-1 $553 $552 $635 $636 reversed $424 $-1 #
coedge $-1 $606 $579 $552 $600 forward $433 $-1 #
edge $-1 $637 -37.083861814918379 $603 -24.162703321381514 $599 $638 forward 7 unknown #
coedge $-1 $629 $609 $553 $602 forward $583 $-1 #
edge $-1 $604 24.162703321381514 $639 37.083861814918379 $601 $640 forward 7 unknown #
vertex $-1 $600 $641 #
vertex $-1 $602 $642 #
straight-curve $-1 -54.78598588953146 -4.6498933801097913 0 0 0 -1 I I #
coedge $-1 $557 $599 $595 $632 forward $433 $-1 #
vertex $-1 $558 $643 #
straight-curve $-1 -30.623282568149946 -12.500075798531586 15.631383907462842 -1 0 0 I I #
coedge $-1 $601 $559 $596 $633 forward $583 $-1 #
coedge $-1 $559 $572 $561 $613 forward $583 $-1 #
vertex $-1 $560 $644 #
straight-curve $-1 -30.623282568149946 -12.500075798531586 -15.631383907462842 1 0 0 I I #
edge $-1 $617 -35.912661195035476 $565 -12.500075798531586 $561 $645 forward 7 unknown #
edge $-1 $564 12.500075798531586 $570 35.912661195035476 $562 $646 forward 7 unknown #
point $-1 -67.707144383068325 -12.500075798531586 15.631383907462842 #
point $-1 -67.707144383068325 -12.500075798531586 -15.631383907462842 #
vertex $-1 $613 $647 #
straight-curve $-1 -67.707144383068325 -35.912661195035476 0 0 0 -1 I I #
point $-1 -67.707144383068325 -35.912661195035476 15.631383907462842 #
straight-curve $-1 0 -35.912661195035476 -15.631383907462842 -1 0 0 I I #
coedge $-1 $575 $574 $648 $649 reversed $576 $-1 #
edge $-1 $650 -67.707144383068325 $577 67.707144383068325 $574 $651 forward 7 unknown #
face $-1 $-1 $576 $15 $-1 $652 reversed single #
point $-1 67.707144383068325 35.912661195035476 -15.631383907462842 #
coedge $-1 $648 $635 $579 $626 reversed $653 $-1 #
edge $-1 $627 -35.912661195035476 $637 4.6498933801097913 $625 $646 forward 7 unknown #
vertex $-1 $580 $654 #
straight-curve $-1 0 35.912661195035476 15.631383907462842 -1 0 0 I I #
coedge $-1 $582 $601 $655 $656 forward $583 $-1 #
face $-1 $623 $653 $15 $-1 $594 reversed single #
plane-surface $-1 0 0 -15.631383907462842 0 0 1 1 0 0 forward_v I I I I #
edge $-1 $603 0.36240108544944682 $607 8.212583503871242 $606 $657 forward 7 unknown #
edge $-1 $611 -8.212583503871242 $604 -0.36240108544944682 $609 $658 forward 7 unknown #
straight-curve $-1 -54.78598588953146 -12.500075798531586 0 0 0 -1 I I #
coedge $-1 $625 $655 $598 $636 forward $653 $-1 #
edge $-1 $639 -15.631383907462842 $637 15.631383907462842 $635 $659 forward 7 unknown #
vertex $-1 $636 $660 #
straight-curve $-1 -30.623282568149946 -4.6498933801097913 15.631383907462842 1 0 0 I I #
vertex $-1 $656 $661 #
straight-curve $-1 -30.623282568149946 -4.6498933801097913 -15.631383907462842 -1 0 0 I I #
point $-1 -54.78598588953146 -4.6498933801097913 15.631383907462842 #
point $-1 -54.78598588953146 -4.6498933801097913 -15.631383907462842 #
point $-1 -54.78598588953146 -12.500075798531586 15.631383907462842 #
point $-1 -54.78598588953146 -12.500075798531586 -15.631383907462842 #
straight-curve $-1 -67.707144383068325 0 -15.631383907462842 0 1 0 I I #
straight-curve $-1 -67.707144383068325 0 15.631383907462842 0 -1 0 I I #
point $-1 -67.707144383068325 -35.912661195035476 -15.631383907462842 #
coedge $-1 $655 $625 $621 $649 forward $653 $-1 #
edge $-1 $627 -15.631383907462842 $650 15.631383907462842 $621 $662 forward 7 unknown #
vertex $-1 $622 $663 #
straight-curve $-1 0 35.912661195035476 -15.631383907462842 1 0 0 I I #
plane-surface $-1 0 35.912661195035476 0 0 -1 0 0 0 -1 forward_v I I I I #
loop $-1 $-1 $635 $630 #
point $-1 -67.707144383068325 35.912661195035476 15.631383907462842 #
coedge $-1 $635 $648 $629 $656 reversed $653 $-1 #
edge $-1 $639 -4.6498933801097913 $650 35.912661195035476 $655 $645 forward 7 unknown #
straight-curve $-1 -54.78598588953146 -4.2874922946603444 15.631383907462842 0 -1 0 I I #
straight-curve $-1 -54.78598588953146 -4.2874922946603444 -15.631383907462842 0 1 0 I I #
straight-curve $-1 -67.707144383068325 -4.6498933801097913 0 0 0 1 I I #
point $-1 -67.707144383068325 -4.6498933801097913 15.631383907462842 #
point $-1 -67.707144383068325 -4.6498933801097913 -15.631383907462842 #
straight-curve $-1 -67.707144383068325 35.912661195035476 0 0 0 -1 I I #
point $-1 -67.707144383068325 35.912661195035476 -15.631383907462842 #
End-of-ACIS-data 