500 0 4 0           
7 Unknown 11 ACIS 5.0 NT 24 Fri Mar 26 01:47:49 1999 
-1 9.9999999999999995e-007 1e-010 
body $-1 $4 $-1 $5 #
body $-1 $6 $-1 $7 #
body $-1 $8 $-1 $9 #
body $-1 $10 $-1 $11 #
lump $-1 $-1 $12 $0 #
transform $-1 1 0 0 0 1 0 0 0 1 72.275154881435583 34.433430443391302 8.6798684278793754 1 rotate no_reflect no_shear #
lump $-1 $-1 $13 $1 #
transform $-1 1 0 0 0 1 0 0 0 1 72.275154881435583 34.433430443391302 8.6798684278793754 1 rotate no_reflect no_shear #
lump $-1 $-1 $14 $2 #
transform $-1 1 0 0 0 1 0 0 0 1 72.275154881435583 34.433430443391302 8.6798684278793754 1 rotate no_reflect no_shear #
lump $-1 $-1 $15 $3 #
transform $-1 1 0 0 0 1 0 0 0 1 72.275154881435583 34.433430443391302 8.6798684278793754 1 rotate no_reflect no_shear #
shell $-1 $-1 $-1 $16 $-1 $4 #
shell $-1 $-1 $-1 $17 $-1 $6 #
shell $-1 $-1 $-1 $18 $-1 $8 #
shell $-1 $-1 $-1 $19 $-1 $10 #
face $-1 $20 $21 $12 $-1 $22 forward single #
face $-1 $23 $24 $13 $-1 $25 reversed single #
face $-1 $26 $27 $14 $-1 $28 reversed single #
face $-1 $29 $30 $15 $-1 $31 forward single #
face $-1 $32 $33 $12 $-1 $34 reversed single #
loop $-1 $-1 $35 $16 #
plane-surface $-1 0 0 8.6798684278793754 0 0 1 1 0 0 forward_v I I I I #
face $-1 $36 $37 $13 $-1 $38 reversed single #
loop $-1 $-1 $39 $17 #
plane-surface $-1 -59.069792138486434 -31.178062570717721 0 1 0 0 0 0 -1 forward_v I I I I #
face $-1 $40 $41 $14 $-1 $42 reversed single #
loop $-1 $-1 $43 $18 #
plane-surface $-1 61.576378791688626 -8.8191517716334324 204.52481498989803 0 -1 0 -0.66913061440640931 0 -0.74314481823134659 forward_v I I I I #
face $-1 $44 $45 $15 $-1 $46 forward single #
loop $-1 $47 $48 $19 #
cone-surface $-1 65.470616237875902 -15.706261812012837 2.0915111256133914 -0.66913061440640931 0 -0.74314481823134659 1.4862896364626932 0 -1.3382612288128186 1 I I 0 1 2 forward I I I I #
face $-1 $49 $50 $12 $-1 $51 reversed single #
loop $-1 $-1 $52 $20 #
plane-surface $-1 0 0 -8.6798684278793754 0 0 1 1 0 0 forward_v I I I I #
coedge $-1 $53 $54 $55 $56 forward $21 $-1 #
face $-1 $57 $58 $13 $-1 $59 reversed single #
loop $-1 $-1 $60 $23 #
plane-surface $-1 -56.992605082081631 -27.92269469804414 0 0 -1 0 0 0 -1 forward_v I I I I #
coedge $-1 $61 $62 $63 $64 forward $24 $-1 #
face $-1 $65 $66 $14 $-1 $67 reversed single #
loop $-1 $-1 $68 $26 #
plane-surface $-1 -35.146658792578137 -15.706261812012837 97.103001315884299 0.66913061440640931 0 0.74314481823134659 0.74314481823134659 0 -0.66913061440640931 forward_v I I I I #
coedge $-1 $69 $70 $71 $72 reversed $27 $-1 #
face $-1 $-1 $73 $15 $-1 $74 forward single #
loop $-1 $75 $76 $29 #
cone-surface $-1 62.605935893317053 -15.706261812012837 -1.0900386467530065 -0.66913061440640931 0 -0.74314481823134659 0.74314481823134659 0 -0.66913061440640931 1 I I -0.70710678118654746 0.70710678118654746 1 forward I I I I #
loop $-1 $-1 $77 $19 #
coedge $-1 $48 $48 $78 $79 reversed $30 $-1 #
face $-1 $80 $81 $12 $-1 $82 reversed single #
loop $-1 $-1 $83 $32 #
plane-surface $-1 0 -34.433430443391302 0 0 1 0 0 0 1 forward_v I I I I #
coedge $-1 $84 $85 $86 $87 forward $33 $-1 #
coedge $-1 $88 $35 $89 $90 forward $21 $-1 #
coedge $-1 $35 $88 $91 $92 forward $21 $-1 #
coedge $-1 $93 $94 $35 $56 reversed $95 $-1 #
edge $-1 $96 -34.433430443391302 $97 34.433430443391302 $55 $98 forward 7 unknown #
face $-1 $99 $100 $13 $-1 $101 forward single #
loop $-1 $-1 $102 $36 #
plane-surface $-1 -54.915418025676829 -31.178062570717721 0 -1 0 0 0 0 1 forward_v I I I I #
coedge $-1 $103 $104 $105 $106 forward $37 $-1 #
coedge $-1 $107 $39 $108 $109 reversed $24 $-1 #
coedge $-1 $39 $107 $110 $111 reversed $24 $-1 #
coedge $-1 $104 $103 $39 $64 reversed $37 $-1 #
edge $-1 $112 -8.6798684278793754 $113 8.6798684278793754 $63 $114 forward 7 unknown #
face $-1 $115 $116 $14 $-1 $117 reversed single #
loop $-1 $-1 $118 $40 #
plane-surface $-1 61.576378791688626 -22.593371852392242 204.52481498989803 0 1 0 0.66913061440640931 0 0.74314481823134659 forward_v I I I I #
coedge $-1 $119 $120 $121 $122 reversed $41 $-1 #
coedge $-1 $70 $43 $123 $124 reversed $27 $-1 #
coedge $-1 $43 $69 $119 $125 reversed $27 $-1 #
coedge $-1 $121 $126 $43 $72 forward $127 $-1 #
edge $-1 $128 -41.48696548559127 $129 -32.268987658776837 $71 $130 forward 7 unknown #
loop $-1 $-1 $78 $44 #
plane-surface $-1 -35.146658792578137 -15.706261812012837 97.103001315884299 0.66913061440640931 0 0.74314481823134659 0.74314481823134659 0 -0.66913061440640931 forward_v I I I I #
loop $-1 $-1 $131 $29 #
coedge $-1 $76 $76 $77 $132 reversed $45 $-1 #
coedge $-1 $77 $77 $76 $132 forward $47 $-1 #
coedge $-1 $78 $78 $48 $79 forward $73 $-1 #
edge $-1 $133 0 $133 6.2831853071796004 $78 $134 forward 7 unknown #
face $-1 $135 $136 $12 $-1 $137 reversed single #
loop $-1 $-1 $138 $49 #
plane-surface $-1 -72.275154881435583 0 0 1 0 0 0 0 -1 forward_v I I I I #
coedge $-1 $139 $91 $140 $141 forward $50 $-1 #
coedge $-1 $142 $52 $139 $143 forward $33 $-1 #
coedge $-1 $52 $142 $144 $145 forward $33 $-1 #
coedge $-1 $94 $93 $52 $87 reversed $95 $-1 #
edge $-1 $146 -34.433430443391302 $147 34.433430443391302 $86 $148 forward 7 unknown #
coedge $-1 $54 $53 $149 $150 forward $21 $-1 #
coedge $-1 $151 $152 $53 $90 reversed $136 $-1 #
edge $-1 $97 -72.275154881435583 $153 72.275154881435583 $89 $154 forward 7 unknown #
coedge $-1 $83 $155 $54 $92 reversed $50 $-1 #
edge $-1 $156 -72.275154881435583 $96 72.275154881435583 $91 $157 forward 7 unknown #
coedge $-1 $86 $55 $155 $158 forward $95 $-1 #
coedge $-1 $55 $86 $151 $159 reversed $95 $-1 #
loop $-1 $-1 $93 $135 #
vertex $-1 $56 $160 #
vertex $-1 $56 $161 #
straight-curve $-1 72.275154881435583 0 8.6798684278793754 0 1 0 I I #
face $-1 $162 $163 $13 $-1 $164 reversed single #
loop $-1 $-1 $165 $57 #
plane-surface $-1 0 0 8.6798684278793754 0 0 1 1 0 0 forward_v I I I I #
coedge $-1 $166 $167 $168 $169 reversed $58 $-1 #
coedge $-1 $63 $60 $170 $171 reversed $37 $-1 #
coedge $-1 $60 $63 $172 $173 reversed $37 $-1 #
coedge $-1 $167 $166 $60 $106 reversed $58 $-1 #
edge $-1 $174 -8.6798684278793754 $175 8.6798684278793754 $105 $176 forward 7 unknown #
coedge $-1 $62 $61 $177 $178 reversed $24 $-1 #
coedge $-1 $170 $179 $61 $109 forward $163 $-1 #
edge $-1 $180 -18.844399158032441 $113 -12.333663412685279 $108 $181 forward 7 unknown #
coedge $-1 $182 $172 $62 $111 forward $100 $-1 #
edge $-1 $112 12.333663412685279 $183 18.844399158032441 $110 $184 forward 7 unknown #
vertex $-1 $111 $185 #
vertex $-1 $109 $186 #
straight-curve $-1 -59.069792138486434 -27.92269469804414 0 0 0 -1 I I #
face $-1 $-1 $127 $14 $-1 $187 forward single #
loop $-1 $-1 $188 $65 #
plane-surface $-1 72.275154881435583 0 0 -1 0 0 0 0 1 forward_v I I I I #
coedge $-1 $189 $190 $191 $192 reversed $66 $-1 #
coedge $-1 $193 $68 $70 $125 forward $41 $-1 #
coedge $-1 $68 $193 $189 $194 forward $41 $-1 #
coedge $-1 $191 $71 $68 $122 forward $127 $-1 #
edge $-1 $129 0.96602086562701395 $195 14.740240946385823 $121 $196 forward 7 unknown #
coedge $-1 $197 $198 $69 $124 forward $116 $-1 #
edge $-1 $199 -101.88244376333147 $128 -93.582539067069646 $123 $200 forward 7 unknown #
edge $-1 $129 132.14629697737823 $199 144.55030976287114 $70 $201 forward 7 unknown #
coedge $-1 $71 $191 $197 $202 forward $127 $-1 #
loop $-1 $-1 $191 $115 #
vertex $-1 $124 $203 #
vertex $-1 $72 $204 #
straight-curve $-1 30.788189395844313 -8.8191517716334324 8.6798684278793701 -1 0 0 I I #
coedge $-1 $131 $131 $-1 $205 reversed $75 $-1 #
edge $-1 $206 0 $206 6.2831853071796004 $76 $207 forward 7 unknown #
vertex $-1 $79 $208 #
ellipse-curve $-1 67.666165968028352 -15.706261812012837 4.5299160797484586 0.66913061440640931 0 0.74314481823134659 1.4862896364626932 0 -1.3382612288128186 1 I I #
face $-1 $-1 $95 $12 $-1 $209 reversed single #
loop $-1 $-1 $151 $80 #
plane-surface $-1 0 34.433430443391302 0 0 -1 0 0 0 -1 forward_v I I I I #
coedge $-1 $210 $149 $152 $211 forward $81 $-1 #
coedge $-1 $155 $83 $84 $143 reversed $50 $-1 #
coedge $-1 $149 $210 $83 $141 reversed $81 $-1 #
edge $-1 $156 -8.6798684278793754 $212 8.6798684278793754 $140 $213 forward 7 unknown #
coedge $-1 $85 $84 $210 $214 forward $33 $-1 #
edge $-1 $147 -72.275154881435583 $212 72.275154881435583 $139 $215 forward 7 unknown #
coedge $-1 $152 $151 $85 $145 reversed $136 $-1 #
edge $-1 $216 -72.275154881435583 $146 72.275154881435583 $144 $217 forward 7 unknown #
vertex $-1 $87 $218 #
vertex $-1 $158 $219 #
straight-curve $-1 72.275154881435583 0 -8.6798684278793754 0 -1 0 I I #
coedge $-1 $138 $140 $88 $150 reversed $81 $-1 #
edge $-1 $153 -34.433430443391302 $156 34.433430443391302 $149 $220 forward 7 unknown #
coedge $-1 $144 $89 $94 $159 forward $136 $-1 #
coedge $-1 $89 $144 $138 $211 reversed $136 $-1 #
vertex $-1 $90 $221 #
straight-curve $-1 0 34.433430443391302 8.6798684278793754 -1 0 0 I I #
coedge $-1 $91 $139 $93 $158 reversed $50 $-1 #
vertex $-1 $150 $222 #
straight-curve $-1 0 -34.433430443391302 8.6798684278793754 1 0 0 I I #
edge $-1 $96 -8.6798684278793754 $147 8.6798684278793754 $93 $223 forward 7 unknown #
edge $-1 $97 -8.6798684278793754 $146 8.6798684278793754 $94 $224 forward 7 unknown #
point $-1 72.275154881435583 -34.433430443391302 8.6798684278793754 #
point $-1 72.275154881435583 34.433430443391302 8.6798684278793754 #
face $-1 $-1 $225 $13 $-1 $226 reversed single #
loop $-1 $-1 $227 $99 #
plane-surface $-1 0 0 -8.6798684278793754 0 0 1 1 0 0 forward_v I I I I #
coedge $-1 $172 $182 $167 $228 forward $100 $-1 #
coedge $-1 $105 $102 $227 $229 reversed $58 $-1 #
coedge $-1 $102 $105 $165 $228 reversed $58 $-1 #
coedge $-1 $230 $231 $102 $169 forward $225 $-1 #
edge $-1 $232 -8.6798684278793754 $233 8.6798684278793754 $168 $234 forward 7 unknown #
coedge $-1 $227 $108 $103 $171 forward $163 $-1 #
edge $-1 $113 -30.573489597445619 $175 -26.419115484636013 $170 $235 forward 7 unknown #
coedge $-1 $110 $165 $104 $173 forward $100 $-1 #
edge $-1 $174 26.419115484636013 $112 30.573489597445619 $172 $236 forward 7 unknown #
vertex $-1 $173 $237 #
vertex $-1 $171 $238 #
straight-curve $-1 -54.915418025676829 -27.92269469804414 0 0 0 -1 I I #
coedge $-1 $231 $230 $107 $178 forward $225 $-1 #
edge $-1 $183 -8.6798684278793754 $180 8.6798684278793754 $177 $239 forward 7 unknown #
coedge $-1 $108 $227 $231 $240 forward $163 $-1 #
vertex $-1 $109 $241 #
straight-curve $-1 -59.069792138486434 -15.58903128535886 -8.6798684278793754 0 1 0 I I #
coedge $-1 $165 $110 $230 $242 forward $100 $-1 #
vertex $-1 $242 $243 #
straight-curve $-1 -59.069792138486434 -15.58903128535886 8.6798684278793754 0 -1 0 I I #
point $-1 -59.069792138486434 -27.92269469804414 8.6798684278793754 #
point $-1 -59.069792138486434 -27.92269469804414 -8.6798684278793754 #
plane-surface $-1 0 0 8.6798684278793754 0 0 1 1 0 0 forward_v I I I I #
coedge $-1 $198 $197 $190 $244 forward $116 $-1 #
coedge $-1 $190 $118 $120 $194 reversed $66 $-1 #
coedge $-1 $118 $189 $188 $244 reversed $66 $-1 #
coedge $-1 $126 $121 $118 $192 forward $127 $-1 #
edge $-1 $195 32.268987658776837 $245 41.48696548559127 $191 $246 forward 7 unknown #
coedge $-1 $120 $119 $198 $247 reversed $41 $-1 #
edge $-1 $248 -144.55030976287114 $195 -132.14629697737823 $189 $249 forward 7 unknown #
vertex $-1 $122 $250 #
straight-curve $-1 63.057177054621164 -7.8531309060064185 8.6798684278793701 0 -1 0 I I #
coedge $-1 $188 $123 $126 $202 reversed $116 $-1 #
coedge $-1 $123 $188 $193 $247 forward $116 $-1 #
vertex $-1 $124 $251 #
straight-curve $-1 72.275154881435583 -8.8191517716334324 102.26240749494902 0 0 1 I I #
straight-curve $-1 -35.146658792578137 -8.8191517716334324 97.103001315884299 0.74314481823134659 0 -0.66913061440640931 I I #
edge $-1 $245 -22.593371852392242 $128 -8.8191517716334324 $197 $252 forward 7 unknown #
point $-1 72.275154881435583 -8.8191517716334324 8.6798684278793754 #
point $-1 63.05717705462115 -8.8191517716334324 8.6798684278793701 #
edge $-1 $253 1 $253 0 $131 $-1 forward 7 unknown #
vertex $-1 $132 $254 #
ellipse-curve $-1 63.275066507723466 -15.706261812012837 -0.34689382852165995 0.66913061440640931 0 0.74314481823134659 1.4862896364626932 0 -1.3382612288128186 1 I I #
point $-1 69.152455604491038 -15.706261812012837 3.191654850935624 #
plane-surface $-1 72.275154881435583 0 0 -1 0 0 0 0 1 forward_v I I I I #
coedge $-1 $140 $138 $142 $214 reversed $81 $-1 #
edge $-1 $153 -8.6798684278793754 $216 8.6798684278793754 $152 $255 forward 7 unknown #
vertex $-1 $214 $256 #
straight-curve $-1 -72.275154881435583 -34.433430443391302 0 0 0 -1 I I #
edge $-1 $212 -34.433430443391302 $216 34.433430443391302 $210 $257 forward 7 unknown #
straight-curve $-1 0 -34.433430443391302 -8.6798684278793754 -1 0 0 I I #
vertex $-1 $145 $258 #
straight-curve $-1 0 34.433430443391302 -8.6798684278793754 1 0 0 I I #
point $-1 72.275154881435583 34.433430443391302 -8.6798684278793754 #
point $-1 72.275154881435583 -34.433430443391302 -8.6798684278793754 #
straight-curve $-1 -72.275154881435583 0 8.6798684278793754 0 -1 0 I I #
point $-1 -72.275154881435583 34.433430443391302 8.6798684278793754 #
point $-1 -72.275154881435583 -34.433430443391302 8.6798684278793754 #
straight-curve $-1 72.275154881435583 -34.433430443391302 0 0 0 -1 I I #
straight-curve $-1 72.275154881435583 34.433430443391302 0 0 0 -1 I I #
loop $-1 $-1 $168 $162 #
plane-surface $-1 0 -34.433430443391302 0 0 1 0 0 0 1 forward_v I I I I #
coedge $-1 $179 $170 $166 $229 forward $163 $-1 #
edge $-1 $233 -18.844399158032441 $174 -12.333663412685279 $165 $259 forward 7 unknown #
edge $-1 $175 12.333663412685279 $232 18.844399158032441 $227 $260 forward 7 unknown #
coedge $-1 $177 $168 $182 $242 reversed $225 $-1 #
coedge $-1 $168 $177 $179 $240 reversed $225 $-1 #
vertex $-1 $240 $261 #
vertex $-1 $169 $262 #
straight-curve $-1 -54.915418025676829 -34.433430443391302 0 0 0 1 I I #
straight-curve $-1 -28.496302541040816 -27.92269469804414 -8.6798684278793754 1 0 0 I I #
straight-curve $-1 -28.496302541040816 -27.92269469804414 8.6798684278793754 -1 0 0 I I #
point $-1 -54.915418025676829 -27.92269469804414 8.6798684278793754 #
point $-1 -54.915418025676829 -27.92269469804414 -8.6798684278793754 #
straight-curve $-1 -59.069792138486434 -34.433430443391302 0 0 0 -1 I I #
edge $-1 $232 54.915418025676829 $180 59.069792138486434 $231 $263 forward 7 unknown #
point $-1 -59.069792138486434 -34.433430443391302 -8.6798684278793754 #
edge $-1 $183 -59.069792138486434 $233 -54.915418025676829 $230 $264 forward 7 unknown #
point $-1 -59.069792138486434 -34.433430443391302 8.6798684278793754 #
edge $-1 $245 93.582539067069646 $248 101.88244376333147 $188 $265 forward 7 unknown #
vertex $-1 $202 $266 #
straight-curve $-1 30.788189395844313 -22.593371852392242 8.6798684278793701 1 0 0 I I #
edge $-1 $248 -14.740240946385823 $199 -0.96602086562701395 $198 $267 forward 7 unknown #
vertex $-1 $247 $268 #
straight-curve $-1 -35.146658792578137 -22.593371852392242 97.103001315884299 -0.74314481823134659 0 0.66913061440640931 I I #
point $-1 63.05717705462115 -22.593371852392242 8.6798684278793701 #
point $-1 72.275154881435583 -8.8191517716334324 0.37996373161755059 #
straight-curve $-1 72.275154881435583 0 8.6798684278793754 0 1 0 I I #
vertex $-1 $205 $269 #
point $-1 64.761356144186152 -15.706261812012837 -1.6851550573344785 #
straight-curve $-1 -72.275154881435583 34.433430443391302 0 0 0 -1 I I #
point $-1 -72.275154881435583 -34.433430443391302 -8.6798684278793754 #
straight-curve $-1 -72.275154881435583 0 -8.6798684278793754 0 1 0 I I #
point $-1 -72.275154881435583 34.433430443391302 -8.6798684278793754 #
straight-curve $-1 -54.915418025676829 -15.58903128535886 8.6798684278793754 0 1 0 I I #
straight-curve $-1 -54.915418025676829 -15.58903128535886 -8.6798684278793754 0 -1 0 I I #
point $-1 -54.915418025676829 -34.433430443391302 -8.6798684278793754 #
point $-1 -54.915418025676829 -34.433430443391302 8.6798684278793754 #
straight-curve $-1 0 -34.433430443391302 -8.6798684278793754 -1 0 0 I I #
straight-curve $-1 0 -34.433430443391302 8.6798684278793754 1 0 0 I I #
straight-curve $-1 72.275154881435583 -22.593371852392242 102.26240749494902 0 0 -1 I I #
point $-1 72.275154881435583 -22.593371852392242 8.6798684278793754 #
straight-curve $-1 72.275154881435583 -7.8531309060064185 0.37996373161755059 0 1 0 I I #
point $-1 72.275154881435583 -22.593371852392242 0.37996373161755059 #
point $-1 61.93680527891064 -15.706261812012837 -1.8331834649843533 #
End-of-ACIS-data 