500 0 7 0           
7 Unknown 11 ACIS 5.0 NT 24 Fri Mar 26 19:01:53 1999 
-1 9.9999999999999995e-007 1e-010 
body $-1 $7 $-1 $8 #
body $-1 $9 $-1 $10 #
body $-1 $11 $-1 $12 #
body $-1 $13 $-1 $14 #
body $-1 $15 $-1 $16 #
body $-1 $17 $-1 $18 #
body $-1 $19 $-1 $20 #
lump $-1 $-1 $21 $0 #
transform $-1 1 0 0 0 1 0 0 0 1 50.256660664693136 23.946569504619095 6.0293584315625006 1 rotate no_reflect no_shear #
lump $-1 $-1 $22 $1 #
transform $-1 1 0 0 0 1 0 0 0 1 50.256660664693136 23.946569504619095 6.0293584315625006 1 rotate no_reflect no_shear #
lump $-1 $-1 $23 $2 #
transform $-1 1 0 0 0 1 0 0 0 1 50.256660664693136 23.946569504619095 6.0293584315625006 1 rotate no_reflect no_shear #
lump $-1 $-1 $24 $3 #
transform $-1 1 0 0 0 1 0 0 0 1 50.256660664693136 23.946569504619095 6.0293584315625006 1 rotate no_reflect no_shear #
lump $-1 $-1 $25 $4 #
transform $-1 1 0 0 0 1 0 0 0 1 50.256660664693136 23.946569504619095 6.0293584315625006 1 rotate no_reflect no_shear #
lump $-1 $-1 $26 $5 #
transform $-1 1 0 0 0 1 0 0 0 1 50.256660664693136 23.946569504619095 6.0293584315625006 1 rotate no_reflect no_shear #
lump $-1 $-1 $27 $6 #
transform $-1 1 0 0 0 1 0 0 0 1 50.256660664693136 23.946569504619095 6.0293584315625006 1 rotate no_reflect no_shear #
shell $-1 $-1 $-1 $28 $-1 $7 #
shell $-1 $-1 $-1 $29 $-1 $9 #
shell $-1 $-1 $-1 $30 $-1 $11 #
shell $-1 $-1 $-1 $31 $-1 $13 #
shell $-1 $-1 $-1 $32 $-1 $15 #
shell $-1 $-1 $-1 $33 $-1 $17 #
shell $-1 $-1 $-1 $34 $-1 $19 #
face $-1 $35 $36 $21 $-1 $37 reversed single #
face $-1 $38 $39 $22 $-1 $40 forward single #
face $-1 $41 $42 $23 $-1 $43 forward single #
face $-1 $44 $45 $24 $-1 $46 reversed single #
face $-1 $47 $48 $25 $-1 $49 forward single #
face $-1 $50 $51 $26 $-1 $52 reversed single #
face $-1 $53 $54 $27 $-1 $55 forward single #
face $-1 $56 $57 $21 $-1 $58 forward single #
loop $-1 $-1 $59 $28 #
plane-surface $-1 50.256660664693136 0 0 -1 0 0 0 0 1 forward_v I I I I #
face $-1 $60 $61 $22 $-1 $62 reversed single #
loop $-1 $-1 $63 $29 #
plane-surface $-1 -50.256660664693136 0 0 1 0 0 0 0 -1 forward_v I I I I #
face $-1 $64 $65 $23 $-1 $66 reversed single #
loop $-1 $-1 $67 $30 #
plane-surface $-1 50.256660664693136 0 0 -1 0 0 0 0 1 forward_v I I I I #
face $-1 $68 $69 $24 $-1 $70 reversed single #
loop $-1 $-1 $71 $31 #
plane-surface $-1 -9.1065771478395376 87.047091109117787 91.946527905727081 1 0 0 0 -0.86602541151947299 -0.49999998660252726 forward_v I I I I #
face $-1 $72 $73 $25 $-1 $74 forward single #
loop $-1 $75 $76 $32 #
cone-surface $-1 -3.5887137369847366 21.295756747086894 2.5601892033974361 0 -0.86602541151947299 -0.49999998660252726 1.5 0 0 1 I I 0 1 1.5 forward I I I I #
face $-1 $77 $78 $26 $-1 $79 reversed single #
loop $-1 $-1 $80 $33 #
plane-surface $-1 -26.105349903517897 -105.2635554437404 59.386261282405755 -1 0 0 0 -0.80901700255871778 0.5877852410284794 forward_v I I I I #
face $-1 $81 $82 $27 $-1 $83 forward single #
loop $-1 $84 $85 $34 #
cone-surface $-1 -35.857830016398999 -20.478174298817542 2.1583235643461149 0 0.80901700255871778 -0.5877852410284794 1 0 0 1 I I 0 1 1 forward I I I I #
face $-1 $86 $87 $21 $-1 $88 reversed single #
loop $-1 $-1 $89 $35 #
plane-surface $-1 0 0 6.0293584315625006 0 0 1 1 0 0 forward_v I I I I #
coedge $-1 $90 $91 $92 $93 reversed $36 $-1 #
face $-1 $94 $95 $22 $-1 $96 forward single #
loop $-1 $-1 $97 $38 #
plane-surface $-1 0 23.946569504619095 0 0 -1 0 0 0 -1 forward_v I I I I #
coedge $-1 $98 $99 $100 $101 forward $39 $-1 #
face $-1 $102 $103 $23 $-1 $104 forward single #
loop $-1 $-1 $105 $41 #
plane-surface $-1 0 -23.946569504619095 0 0 1 0 0 0 1 forward_v I I I I #
coedge $-1 $106 $107 $108 $109 forward $42 $-1 #
face $-1 $110 $111 $24 $-1 $112 reversed single #
loop $-1 $-1 $113 $44 #
plane-surface $-1 -3.5887137369847366 6.4164701996105578e-007 41.689868587658424 0 0.86602541151947299 0.49999998660252726 1 0 0 forward_v I I I I #
coedge $-1 $114 $115 $116 $117 reversed $45 $-1 #
face $-1 $-1 $118 $25 $-1 $119 forward single #
loop $-1 $120 $121 $47 #
cone-surface $-1 -3.5887137369847366 19.674407161150807 1.6241026169499326 0 -0.86602541151947299 -0.49999998660252726 0.75 0 0 1 I I -0.70710678118654757 0.70710678118654757 0.75 forward I I I I #
loop $-1 $-1 $122 $32 #
coedge $-1 $76 $76 $123 $124 reversed $48 $-1 #
face $-1 $125 $126 $26 $-1 $127 reversed single #
loop $-1 $-1 $128 $50 #
plane-surface $-1 -35.857830016398999 -23.946569504619092 0.30601447823944739 0 -0.80901700255871778 0.5877852410284794 1 0 0 forward_v I I I I #
coedge $-1 $129 $130 $131 $132 reversed $51 $-1 #
face $-1 $-1 $133 $27 $-1 $134 forward single #
loop $-1 $135 $136 $53 #
cone-surface $-1 -35.857830016398999 -18.684396923107347 0.85506805327701851 0 0.80901700255871778 -0.5877852410284794 0.5 0 0 1 I I -0.70710678118654746 0.70710678118654746 0.5 forward I I I I #
loop $-1 $-1 $137 $34 #
coedge $-1 $85 $85 $138 $139 reversed $54 $-1 #
face $-1 $140 $141 $21 $-1 $142 reversed single #
loop $-1 $-1 $143 $56 #
plane-surface $-1 0 0 -6.0293584315625006 0 0 1 1 0 0 forward_v I I I I #
coedge $-1 $144 $145 $90 $146 forward $57 $-1 #
coedge $-1 $147 $59 $89 $146 reversed $36 $-1 #
coedge $-1 $59 $147 $143 $148 reversed $36 $-1 #
coedge $-1 $149 $150 $59 $93 forward $151 $-1 #
edge $-1 $152 -6.0293584315625006 $153 6.0293584315625006 $59 $154 forward 7 unknown #
face $-1 $155 $156 $22 $-1 $157 reversed single #
loop $-1 $-1 $100 $60 #
plane-surface $-1 -52.579835932399654 0 3.1116096116826371 0 0 1 1 0 0 forward_v I I I I #
coedge $-1 $158 $159 $99 $160 forward $61 $-1 #
coedge $-1 $161 $63 $162 $163 reversed $39 $-1 #
coedge $-1 $63 $161 $97 $160 reversed $39 $-1 #
coedge $-1 $164 $165 $63 $101 reversed $95 $-1 #
edge $-1 $166 -23.946569504619095 $167 23.946569504619095 $100 $168 forward 7 unknown #
face $-1 $169 $170 $23 $-1 $171 reversed single #
loop $-1 $-1 $172 $64 #
plane-surface $-1 52.579835932399654 0 3.1116096116826371 0 0 1 1 0 0 forward_v I I I I #
coedge $-1 $173 $174 $107 $175 forward $65 $-1 #
coedge $-1 $176 $67 $177 $178 reversed $42 $-1 #
coedge $-1 $67 $176 $105 $175 reversed $42 $-1 #
coedge $-1 $179 $180 $67 $109 reversed $103 $-1 #
edge $-1 $181 -23.946569504619095 $182 23.946569504619095 $108 $183 forward 7 unknown #
face $-1 $184 $185 $24 $-1 $186 reversed single #
loop $-1 $-1 $187 $68 #
plane-surface $-1 1.9291496738700644 87.047091109117787 91.946527905727081 -1 0 0 0 0.86602541151947299 0.49999998660252726 forward_v I I I I #
coedge $-1 $188 $189 $190 $191 reversed $69 $-1 #
coedge $-1 $115 $71 $192 $193 reversed $45 $-1 #
coedge $-1 $71 $114 $188 $194 reversed $45 $-1 #
coedge $-1 $190 $195 $71 $117 forward $196 $-1 #
edge $-1 $197 19.576976049939798 $198 22.934940510411234 $116 $199 forward 7 unknown #
loop $-1 $-1 $123 $72 #
plane-surface $-1 -3.5887137369847366 6.4164701996105578e-007 41.689868587658424 0 0.86602541151947299 0.49999998660252726 1 0 0 forward_v I I I I #
loop $-1 $-1 $200 $47 #
coedge $-1 $121 $121 $122 $201 reversed $73 $-1 #
coedge $-1 $122 $122 $121 $201 forward $75 $-1 #
coedge $-1 $123 $123 $76 $124 forward $118 $-1 #
edge $-1 $202 4.1505277977839433e-016 $202 6.2831853071796004 $123 $203 forward 7 unknown #
face $-1 $204 $205 $26 $-1 $206 forward single #
loop $-1 $-1 $207 $77 #
plane-surface $-1 -45.610310129280101 -105.2635554437404 59.386261282405755 1 0 0 0 0.80901700255871778 -0.5877852410284794 forward_v I I I I #
coedge $-1 $208 $209 $210 $211 reversed $78 $-1 #
coedge $-1 $130 $80 $212 $213 reversed $51 $-1 #
coedge $-1 $80 $129 $208 $214 reversed $51 $-1 #
coedge $-1 $210 $215 $80 $132 forward $205 $-1 #
edge $-1 $216 28.685208217251105 $217 32.843460879992541 $131 $218 forward 7 unknown #
loop $-1 $-1 $138 $81 #
plane-surface $-1 -35.857830016398999 -23.946569504619092 0.30601447823944739 0 -0.80901700255871778 0.5877852410284794 1 0 0 forward_v I I I I #
loop $-1 $-1 $219 $53 #
coedge $-1 $136 $136 $137 $220 reversed $82 $-1 #
coedge $-1 $137 $137 $136 $220 forward $84 $-1 #
coedge $-1 $138 $138 $85 $139 forward $133 $-1 #
edge $-1 $221 7.1855144284313413e-016 $221 6.2831853071796013 $138 $222 forward 7 unknown #
face $-1 $223 $224 $21 $-1 $225 reversed single #
loop $-1 $-1 $226 $86 #
plane-surface $-1 0 -23.946569504619095 0 0 1 0 0 0 1 forward_v I I I I #
coedge $-1 $227 $228 $91 $148 forward $87 $-1 #
coedge $-1 $229 $89 $150 $230 forward $57 $-1 #
coedge $-1 $89 $229 $231 $232 forward $57 $-1 #
edge $-1 $233 -23.946569504619095 $152 23.946569504619095 $90 $234 forward 7 unknown #
coedge $-1 $91 $90 $235 $236 forward $36 $-1 #
edge $-1 $153 -23.946569504619095 $237 23.946569504619095 $91 $238 forward 7 unknown #
coedge $-1 $239 $92 $228 $240 reversed $151 $-1 #
coedge $-1 $92 $239 $144 $230 reversed $151 $-1 #
loop $-1 $-1 $92 $223 #
vertex $-1 $146 $241 #
vertex $-1 $148 $242 #
straight-curve $-1 50.256660664693136 23.946569504619095 0 0 0 -1 I I #
face $-1 $243 $244 $22 $-1 $245 reversed single #
loop $-1 $-1 $246 $94 #
plane-surface $-1 -52.579835932399654 0 0.044322785330272563 0 0 1 1 0 0 forward_v I I I I #
coedge $-1 $247 $97 $248 $249 reversed $61 $-1 #
coedge $-1 $97 $247 $164 $250 reversed $61 $-1 #
edge $-1 $166 -3.1116096116826371 $251 -0.044322785330272563 $97 $252 forward 7 unknown #
coedge $-1 $99 $98 $246 $253 forward $39 $-1 #
coedge $-1 $254 $255 $98 $163 forward $256 $-1 #
edge $-1 $257 0.044322785330272563 $167 3.1116096116826371 $162 $258 forward 7 unknown #
coedge $-1 $259 $100 $159 $250 forward $95 $-1 #
coedge $-1 $100 $259 $254 $260 forward $95 $-1 #
vertex $-1 $160 $261 #
vertex $-1 $260 $262 #
straight-curve $-1 -50.256660664693136 0 3.1116096116826371 0 -1 0 I I #
face $-1 $263 $264 $23 $-1 $265 reversed single #
loop $-1 $-1 $266 $102 #
plane-surface $-1 52.579835932399654 0 0.044322785330272563 0 0 1 1 0 0 forward_v I I I I #
coedge $-1 $180 $179 $267 $268 forward $103 $-1 #
coedge $-1 $269 $105 $270 $271 reversed $65 $-1 #
coedge $-1 $105 $269 $179 $272 reversed $65 $-1 #
edge $-1 $181 -3.1116096116826371 $273 -0.044322785330272563 $105 $274 forward 7 unknown #
coedge $-1 $107 $106 $275 $276 forward $42 $-1 #
coedge $-1 $277 $278 $106 $178 forward $279 $-1 #
edge $-1 $280 0.044322785330272563 $182 3.1116096116826371 $177 $281 forward 7 unknown #
coedge $-1 $172 $108 $174 $272 forward $103 $-1 #
coedge $-1 $108 $172 $277 $282 forward $103 $-1 #
vertex $-1 $175 $283 #
vertex $-1 $282 $284 #
straight-curve $-1 50.256660664693136 0 3.1116096116826371 0 1 0 I I #
face $-1 $-1 $196 $24 $-1 $285 forward single #
loop $-1 $-1 $286 $110 #
plane-surface $-1 0 23.946569504619095 0 0 -1 0 0 0 -1 forward_v I I I I #
coedge $-1 $287 $288 $289 $290 reversed $111 $-1 #
coedge $-1 $291 $113 $115 $194 forward $69 $-1 #
coedge $-1 $113 $291 $287 $292 forward $69 $-1 #
coedge $-1 $289 $116 $113 $191 forward $196 $-1 #
edge $-1 $198 -7.3122202793471693 $293 3.7235065423624327 $190 $294 forward 7 unknown #
coedge $-1 $295 $296 $114 $193 forward $185 $-1 #
edge $-1 $297 -45.76007078463995 $197 -39.943905521301041 $192 $298 forward 7 unknown #
edge $-1 $198 41.17720990834237 $297 47.893139009238197 $115 $299 forward 7 unknown #
coedge $-1 $116 $289 $295 $300 forward $196 $-1 #
loop $-1 $-1 $289 $184 #
vertex $-1 $193 $301 #
vertex $-1 $117 $302 #
straight-curve $-1 -9.1065771478395376 43.523545554558893 6.0293584315624997 0 -1 0 I I #
coedge $-1 $200 $200 $-1 $303 reversed $120 $-1 #
edge $-1 $304 0 $304 6.2831853071796004 $121 $305 forward 7 unknown #
vertex $-1 $124 $306 #
ellipse-curve $-1 -3.5887137369847366 22.267587274383377 3.1212757998930423 0 0.86602541151947299 0.49999998660252726 1.5 0 0 1 I I #
face $-1 $-1 $307 $26 $-1 $308 reversed single #
loop $-1 $-1 $131 $125 #
plane-surface $-1 0 0 6.0293584315625006 0 0 1 1 0 0 forward_v I I I I #
coedge $-1 $309 $310 $311 $312 reversed $126 $-1 #
coedge $-1 $313 $128 $130 $214 forward $78 $-1 #
coedge $-1 $128 $313 $309 $314 forward $78 $-1 #
coedge $-1 $311 $131 $128 $211 forward $205 $-1 #
edge $-1 $217 8.1764348953183976 $315 27.681395121080602 $210 $316 forward 7 unknown #
coedge $-1 $317 $318 $129 $213 forward $307 $-1 #
edge $-1 $319 -29.387116162963434 $216 -23.663772209640378 $212 $320 forward 7 unknown #
edge $-1 $217 -7.074442113356767 $319 6.040265601636166e-015 $130 $321 forward 7 unknown #
coedge $-1 $131 $311 $317 $322 forward $205 $-1 #
vertex $-1 $213 $323 #
vertex $-1 $132 $324 #
straight-curve $-1 -26.105349903517897 -52.631777721870201 6.0293584315624997 0 1 0 I I #
coedge $-1 $219 $219 $-1 $325 reversed $135 $-1 #
edge $-1 $326 0 $326 6.2831853071796004 $136 $327 forward 7 unknown #
vertex $-1 $139 $328 #
ellipse-curve $-1 -35.857830016398999 -21.867443173248379 3.1676864549009709 0 -0.80901700255871778 0.5877852410284794 1 0 0 1 I I #
face $-1 $-1 $151 $21 $-1 $329 reversed single #
loop $-1 $-1 $330 $140 #
plane-surface $-1 -50.256660664693136 0 0 1 0 0 0 0 -1 forward_v I I I I #
coedge $-1 $331 $231 $330 $332 forward $141 $-1 #
coedge $-1 $333 $143 $331 $334 forward $87 $-1 #
coedge $-1 $143 $333 $149 $240 forward $87 $-1 #
coedge $-1 $145 $144 $335 $336 forward $57 $-1 #
edge $-1 $152 -50.256660664693136 $337 50.256660664693136 $150 $338 forward 7 unknown #
coedge $-1 $226 $235 $145 $232 reversed $141 $-1 #
edge $-1 $339 -50.256660664693136 $233 50.256660664693136 $231 $340 forward 7 unknown #
vertex $-1 $146 $341 #
straight-curve $-1 50.256660664693136 0 6.0293584315625006 0 1 0 I I #
coedge $-1 $231 $331 $147 $236 reversed $141 $-1 #
edge $-1 $233 -6.0293584315625006 $237 6.0293584315625006 $147 $342 forward 7 unknown #
vertex $-1 $236 $343 #
straight-curve $-1 50.256660664693136 0 -6.0293584315625006 0 -1 0 I I #
coedge $-1 $150 $149 $344 $345 reversed $151 $-1 #
edge $-1 $346 -50.256660664693136 $153 50.256660664693136 $149 $347 forward 7 unknown #
point $-1 50.256660664693136 23.946569504619095 6.0293584315625006 #
point $-1 50.256660664693136 23.946569504619095 -6.0293584315625006 #
face $-1 $-1 $256 $22 $-1 $348 reversed single #
loop $-1 $-1 $349 $155 #
plane-surface $-1 -54.903011200106171 0 1.5779661985064548 1 0 0 0 0 -1 forward_v I I I I #
coedge $-1 $350 $248 $161 $253 reversed $156 $-1 #
coedge $-1 $159 $158 $349 $351 reversed $61 $-1 #
coedge $-1 $246 $352 $158 $249 forward $156 $-1 #
edge $-1 $353 -2.3231752677065174 $251 2.3231752677065174 $158 $354 forward 7 unknown #
edge $-1 $166 -2.3231752677065174 $355 2.3231752677065174 $159 $356 forward 7 unknown #
vertex $-1 $160 $357 #
straight-curve $-1 -50.256660664693136 23.946569504619095 0 0 0 -1 I I #
edge $-1 $257 -23.946569504619095 $251 23.946569504619095 $246 $358 forward 7 unknown #
coedge $-1 $359 $162 $165 $260 reversed $256 $-1 #
coedge $-1 $162 $359 $350 $360 reversed $256 $-1 #
loop $-1 $-1 $162 $243 #
vertex $-1 $163 $361 #
straight-curve $-1 -50.256660664693136 -23.946569504619095 0 0 0 1 I I #
coedge $-1 $165 $164 $362 $363 forward $95 $-1 #
edge $-1 $364 -2.3231752677065174 $167 2.3231752677065174 $254 $365 forward 7 unknown #
point $-1 -50.256660664693136 23.946569504619095 3.1116096116826371 #
point $-1 -50.256660664693136 -23.946569504619095 3.1116096116826371 #
face $-1 $-1 $279 $23 $-1 $366 reversed single #
loop $-1 $-1 $367 $169 #
plane-surface $-1 54.903011200106171 0 1.5779661985064548 -1 0 0 0 0 1 forward_v I I I I #
coedge $-1 $270 $368 $369 $370 forward $170 $-1 #
coedge $-1 $367 $371 $172 $268 reversed $264 $-1 #
edge $-1 $372 -23.946569504619095 $373 23.946569504619095 $267 $374 forward 7 unknown #
coedge $-1 $174 $173 $367 $375 reversed $65 $-1 #
coedge $-1 $275 $266 $173 $271 forward $170 $-1 #
edge $-1 $376 -2.3231752677065174 $273 2.3231752677065174 $173 $377 forward 7 unknown #
edge $-1 $181 -2.3231752677065174 $372 2.3231752677065174 $174 $378 forward 7 unknown #
vertex $-1 $175 $379 #
straight-curve $-1 50.256660664693136 -23.946569504619095 0 0 0 -1 I I #
coedge $-1 $368 $270 $176 $276 reversed $170 $-1 #
edge $-1 $280 -23.946569504619095 $273 23.946569504619095 $275 $380 forward 7 unknown #
coedge $-1 $381 $177 $180 $282 reversed $279 $-1 #
coedge $-1 $177 $381 $368 $382 reversed $279 $-1 #
loop $-1 $-1 $177 $263 #
vertex $-1 $178 $383 #
straight-curve $-1 50.256660664693136 23.946569504619095 0 0 0 1 I I #
edge $-1 $373 -2.3231752677065174 $182 2.3231752677065174 $277 $384 forward 7 unknown #
point $-1 50.256660664693136 -23.946569504619095 3.1116096116826371 #
point $-1 50.256660664693136 23.946569504619095 3.1116096116826371 #
plane-surface $-1 0 0 6.0293584315625006 0 0 1 1 0 0 forward_v I I I I #
coedge $-1 $296 $295 $288 $385 forward $185 $-1 #
coedge $-1 $288 $187 $189 $292 reversed $111 $-1 #
coedge $-1 $187 $287 $286 $385 reversed $111 $-1 #
coedge $-1 $195 $190 $187 $290 forward $196 $-1 #
edge $-1 $293 -22.934940510411234 $386 -19.576976049939798 $289 $387 forward 7 unknown #
coedge $-1 $189 $188 $296 $388 reversed $69 $-1 #
edge $-1 $389 -47.893139009238197 $293 -41.17720990834237 $287 $390 forward 7 unknown #
vertex $-1 $191 $391 #
straight-curve $-1 -1.7943568684923683 20.588605044147656 6.0293584315624997 1 0 0 I I #
coedge $-1 $286 $192 $195 $300 reversed $185 $-1 #
coedge $-1 $192 $286 $291 $388 forward $185 $-1 #
vertex $-1 $193 $392 #
straight-curve $-1 -9.1065771478395376 23.946569504619095 45.97326395286354 0 0 1 I I #
straight-curve $-1 -9.1065771478395376 6.4164701996105578e-007 41.689868587658424 0 0.49999998660252726 -0.86602541151947299 I I #
edge $-1 $386 -1.9291496738700644 $197 9.1065771478395376 $295 $393 forward 7 unknown #
point $-1 -9.1065771478395376 23.946569504619095 6.0293584315625006 #
point $-1 -9.1065771478395376 20.588605044147659 6.0293584315624997 #
edge $-1 $394 1 $394 0 $200 $-1 forward 7 unknown #
vertex $-1 $201 $395 #
ellipse-curve $-1 -3.5887137369847366 20.323926219790412 1.9991026069018281 0 0.86602541151947299 0.49999998660252726 1.5 0 0 1 I I #
point $-1 -2.0887137369847366 22.267587274383381 3.1212757998930436 #
loop $-1 $-1 $212 $204 #
plane-surface $-1 0 -23.946569504619095 0 0 1 0 0 0 1 forward_v I I I I #
coedge $-1 $310 $207 $209 $314 reversed $126 $-1 #
coedge $-1 $207 $309 $396 $397 reversed $126 $-1 #
coedge $-1 $215 $210 $207 $312 forward $205 $-1 #
edge $-1 $315 -32.843460879992541 $398 -28.685208217251105 $311 $399 forward 7 unknown #
coedge $-1 $209 $208 $318 $400 reversed $78 $-1 #
edge $-1 $401 -6.040265601636166e-015 $315 7.074442113356767 $309 $402 forward 7 unknown #
vertex $-1 $211 $403 #
straight-curve $-1 -17.9289150081995 -19.788316841877659 6.0293584315625006 -1 0 0 I I #
coedge $-1 $396 $212 $215 $322 reversed $307 $-1 #
coedge $-1 $212 $396 $313 $400 forward $307 $-1 #
vertex $-1 $213 $404 #
straight-curve $-1 -26.105349903517897 -23.946569504619092 29.693130641202877 0 0 1 I I #
straight-curve $-1 -26.105349903517897 -23.946569504619092 0.30601447823944739 0 -0.5877852410284794 -0.80901700255871778 I I #
edge $-1 $398 -45.610310129280101 $216 -26.105349903517897 $317 $405 forward 7 unknown #
point $-1 -26.105349903517897 -23.946569504619095 6.0293584315625006 #
point $-1 -26.105349903517897 -19.788316841877659 6.0293584315625006 #
edge $-1 $406 1 $406 0 $219 $-1 forward 7 unknown #
vertex $-1 $220 $407 #
ellipse-curve $-1 -35.857830016398999 -19.088905424386706 1.1489606737912581 0 -0.80901700255871778 0.5877852410284794 1 0 0 1 I I #
point $-1 -34.857830016398999 -21.867443173248379 3.1676864549009718 #
plane-surface $-1 0 23.946569504619095 0 0 -1 0 0 0 -1 forward_v I I I I #
coedge $-1 $335 $408 $226 $332 reversed $224 $-1 #
coedge $-1 $235 $226 $227 $334 reversed $141 $-1 #
edge $-1 $339 -6.0293584315625006 $409 6.0293584315625006 $330 $410 forward 7 unknown #
coedge $-1 $228 $227 $408 $411 forward $87 $-1 #
edge $-1 $237 -50.256660664693136 $409 50.256660664693136 $331 $412 forward 7 unknown #
coedge $-1 $344 $330 $229 $336 reversed $224 $-1 #
edge $-1 $337 -23.946569504619095 $339 23.946569504619095 $335 $413 forward 7 unknown #
vertex $-1 $230 $414 #
straight-curve $-1 0 23.946569504619095 6.0293584315625006 -1 0 0 I I #
vertex $-1 $336 $415 #
straight-curve $-1 0 -23.946569504619095 6.0293584315625006 1 0 0 I I #
point $-1 50.256660664693136 -23.946569504619095 6.0293584315625006 #
straight-curve $-1 50.256660664693136 -23.946569504619095 0 0 0 -1 I I #
point $-1 50.256660664693136 -23.946569504619095 -6.0293584315625006 #
coedge $-1 $408 $335 $239 $345 forward $224 $-1 #
edge $-1 $337 -6.0293584315625006 $346 6.0293584315625006 $239 $416 forward 7 unknown #
vertex $-1 $240 $417 #
straight-curve $-1 0 23.946569504619095 -6.0293584315625006 1 0 0 I I #
plane-surface $-1 0 -23.946569504619095 0 0 1 0 0 0 1 forward_v I I I I #
coedge $-1 $418 $362 $247 $351 forward $244 $-1 #
coedge $-1 $352 $246 $255 $360 forward $156 $-1 #
edge $-1 $355 -1.5336434131761822 $353 1.5336434131761822 $247 $419 forward 7 unknown #
coedge $-1 $248 $350 $418 $420 forward $156 $-1 #
vertex $-1 $249 $421 #
straight-curve $-1 -52.579835932399654 23.946569504619095 0.044322785330272563 1 0 0 I I #
vertex $-1 $250 $422 #
straight-curve $-1 -52.579835932399654 23.946569504619095 3.1116096116826371 -1 0 0 I I #
point $-1 -50.256660664693136 23.946569504619095 0.044322785330272563 #
straight-curve $-1 -50.256660664693136 0 0.044322785330272563 0 1 0 I I #
coedge $-1 $255 $254 $423 $424 forward $256 $-1 #
edge $-1 $257 -2.3231752677065174 $425 2.3231752677065174 $255 $426 forward 7 unknown #
point $-1 -50.256660664693136 -23.946569504619095 0.044322785330272563 #
coedge $-1 $349 $423 $259 $363 reversed $244 $-1 #
edge $-1 $355 -23.946569504619095 $364 23.946569504619095 $362 $427 forward 7 unknown #
vertex $-1 $363 $428 #
straight-curve $-1 -52.579835932399654 -23.946569504619095 3.1116096116826371 1 0 0 I I #
plane-surface $-1 0 23.946569504619095 0 0 -1 0 0 0 -1 forward_v I I I I #
coedge $-1 $369 $267 $269 $375 forward $264 $-1 #
coedge $-1 $266 $275 $278 $382 forward $170 $-1 #
coedge $-1 $371 $367 $266 $370 reversed $264 $-1 #
edge $-1 $429 -23.946569504619095 $376 23.946569504619095 $369 $430 forward 7 unknown #
coedge $-1 $267 $369 $381 $431 reversed $264 $-1 #
vertex $-1 $268 $432 #
vertex $-1 $268 $433 #
straight-curve $-1 54.903011200106171 0 3.1116096116826371 0 1 0 I I #
edge $-1 $372 -1.5336434131761822 $376 1.5336434131761822 $367 $434 forward 7 unknown #
vertex $-1 $375 $435 #
straight-curve $-1 52.579835932399654 -23.946569504619095 0.044322785330272563 -1 0 0 I I #
straight-curve $-1 52.579835932399654 -23.946569504619095 3.1116096116826371 1 0 0 I I #
point $-1 50.256660664693136 -23.946569504619095 0.044322785330272563 #
straight-curve $-1 50.256660664693136 0 0.044322785330272563 0 -1 0 I I #
coedge $-1 $278 $277 $371 $431 forward $279 $-1 #
edge $-1 $280 -2.3231752677065174 $429 2.3231752677065174 $278 $436 forward 7 unknown #
point $-1 50.256660664693136 23.946569504619095 0.044322785330272563 #
straight-curve $-1 52.579835932399654 23.946569504619095 3.1116096116826371 -1 0 0 I I #
edge $-1 $386 39.943905521301041 $389 45.76007078463995 $286 $437 forward 7 unknown #
vertex $-1 $300 $438 #
straight-curve $-1 1.9291496738700644 43.523545554558893 6.0293584315624997 0 1 0 I I #
edge $-1 $389 -3.7235065423624327 $297 7.3122202793471693 $296 $439 forward 7 unknown #
vertex $-1 $388 $440 #
straight-curve $-1 1.9291496738700644 6.4164701996105578e-007 41.689868587658424 0 -0.49999998660252726 0.86602541151947299 I I #
point $-1 1.9291496738700644 20.588605044147659 6.0293584315624997 #
point $-1 -9.1065771478395376 23.946569504619095 0.21319316822359013 #
straight-curve $-1 0 23.946569504619095 6.0293584315625006 -1 0 0 I I #
vertex $-1 $303 $441 #
point $-1 -2.0887137369847366 20.323926219790412 1.9991026069018281 #
coedge $-1 $318 $317 $310 $397 forward $307 $-1 #
edge $-1 $398 23.663772209640378 $401 29.387116162963434 $396 $442 forward 7 unknown #
vertex $-1 $322 $443 #
straight-curve $-1 -45.610310129280101 -52.631777721870201 6.0293584315624997 0 -1 0 I I #
edge $-1 $401 -27.681395121080602 $319 -8.1764348953183976 $318 $444 forward 7 unknown #
vertex $-1 $400 $445 #
straight-curve $-1 -45.610310129280101 -23.946569504619092 0.30601447823944739 0 0.5877852410284794 0.80901700255871778 I I #
point $-1 -45.610310129280101 -19.788316841877659 6.0293584315625006 #
point $-1 -26.105349903517897 -23.946569504619095 0.3060144782394425 #
straight-curve $-1 0 -23.946569504619095 6.0293584315625006 1 0 0 I I #
vertex $-1 $325 $446 #
point $-1 -34.857830016398999 -19.088905424386706 1.1489606737912581 #
coedge $-1 $330 $344 $333 $411 reversed $224 $-1 #
vertex $-1 $411 $447 #
straight-curve $-1 -50.256660664693136 -23.946569504619095 0 0 0 -1 I I #
edge $-1 $409 -23.946569504619095 $346 23.946569504619095 $408 $448 forward 7 unknown #
straight-curve $-1 0 -23.946569504619095 -6.0293584315625006 -1 0 0 I I #
straight-curve $-1 -50.256660664693136 0 6.0293584315625006 0 -1 0 I I #
point $-1 -50.256660664693136 23.946569504619095 6.0293584315625006 #
point $-1 -50.256660664693136 -23.946569504619095 6.0293584315625006 #
straight-curve $-1 -50.256660664693136 23.946569504619095 0 0 0 -1 I I #
point $-1 -50.256660664693136 23.946569504619095 -6.0293584315625006 #
coedge $-1 $423 $349 $352 $420 reversed $244 $-1 #
straight-curve $-1 -54.903011200106171 23.946569504619095 1.5779661985064548 0 0 -1 I I #
edge $-1 $425 -23.946569504619095 $353 23.946569504619095 $418 $449 forward 7 unknown #
point $-1 -54.903011200106171 23.946569504619095 0.044322785330272563 #
point $-1 -54.903011200106171 23.946569504619095 3.1116096116826371 #
coedge $-1 $362 $418 $359 $424 reversed $244 $-1 #
edge $-1 $364 -1.5336434131761822 $425 1.5336434131761822 $423 $450 forward 7 unknown #
vertex $-1 $420 $451 #
straight-curve $-1 -52.579835932399654 -23.946569504619095 0.044322785330272563 -1 0 0 I I #
straight-curve $-1 -54.903011200106171 0 3.1116096116826371 0 -1 0 I I #
point $-1 -54.903011200106171 -23.946569504619095 3.1116096116826371 #
vertex $-1 $370 $452 #
straight-curve $-1 54.903011200106171 0 0.044322785330272563 0 -1 0 I I #
edge $-1 $373 -1.5336434131761822 $429 1.5336434131761822 $371 $453 forward 7 unknown #
point $-1 54.903011200106171 -23.946569504619095 3.1116096116826371 #
point $-1 54.903011200106171 23.946569504619095 3.1116096116826371 #
straight-curve $-1 54.903011200106171 -23.946569504619095 1.5779661985064548 0 0 -1 I I #
point $-1 54.903011200106171 -23.946569504619095 0.044322785330272563 #
straight-curve $-1 52.579835932399654 23.946569504619095 0.044322785330272563 1 0 0 I I #
straight-curve $-1 1.9291496738700644 23.946569504619095 45.97326395286354 0 0 -1 I I #
point $-1 1.9291496738700644 23.946569504619095 6.0293584315625006 #
straight-curve $-1 -1.7943568684923683 23.946569504619099 0.21319316822358658 -1 0 0 I I #
point $-1 1.9291496738700644 23.946569504619095 0.21319316822359013 #
point $-1 -3.5887137369847366 19.024888102511202 1.2491026269980372 #
straight-curve $-1 -45.610310129280101 -23.946569504619092 29.693130641202877 0 0 -1 I I #
point $-1 -45.610310129280101 -23.946569504619095 6.0293584315625006 #
straight-curve $-1 -17.9289150081995 -23.946569504619095 0.30601447823943845 1 0 0 I I #
point $-1 -45.610310129280101 -23.946569504619095 0.3060144782394425 #
point $-1 -35.857830016398999 -18.279888421827987 0.56117543276277881 #
point $-1 -50.256660664693136 -23.946569504619095 -6.0293584315625006 #
straight-curve $-1 -50.256660664693136 0 -6.0293584315625006 0 1 0 I I #
straight-curve $-1 -54.903011200106171 0 0.044322785330272563 0 1 0 I I #
straight-curve $-1 -54.903011200106171 -23.946569504619095 1.5779661985064548 0 0 -1 I I #
point $-1 -54.903011200106171 -23.946569504619095 0.044322785330272563 #
point $-1 54.903011200106171 23.946569504619095 0.044322785330272563 #
straight-curve $-1 54.903011200106171 23.946569504619095 1.5779661985064548 0 0 -1 I I #
End-of-ACIS-data 