500 0 13 0           
7 Unknown 11 ACIS 5.0 NT 24 Thu Mar 25 22:30:53 1999 
-1 9.9999999999999995e-007 1e-010 
body $-1 $13 $-1 $14 #
body $-1 $15 $-1 $16 #
body $-1 $17 $-1 $18 #
body $-1 $19 $-1 $20 #
body $-1 $21 $-1 $22 #
body $-1 $23 $-1 $24 #
body $-1 $25 $-1 $26 #
body $-1 $27 $-1 $28 #
body $-1 $29 $-1 $30 #
body $-1 $31 $-1 $32 #
body $-1 $33 $-1 $34 #
body $-1 $35 $-1 $36 #
body $-1 $37 $-1 $38 #
lump $-1 $-1 $39 $0 #
transform $-1 1 0 0 0 1 0 0 0 1 77.723319193090617 41.573329828838197 16.499284435351438 1 rotate no_reflect no_shear #
lump $-1 $-1 $40 $1 #
transform $-1 1 0 0 0 1 0 0 0 1 77.723319193090617 41.573329828838197 16.499284435351438 1 rotate no_reflect no_shear #
lump $-1 $-1 $41 $2 #
transform $-1 1 0 0 0 1 0 0 0 1 77.723319193090617 41.573329828838197 16.499284435351438 1 rotate no_reflect no_shear #
lump $-1 $-1 $42 $3 #
transform $-1 1 0 0 0 1 0 0 0 1 77.723319193090617 41.573329828838197 16.499284435351438 1 rotate no_reflect no_shear #
lump $-1 $-1 $43 $4 #
transform $-1 1 0 0 0 1 0 0 0 1 77.723319193090617 41.573329828838197 16.499284435351438 1 rotate no_reflect no_shear #
lump $-1 $-1 $44 $5 #
transform $-1 1 0 0 0 1 0 0 0 1 77.723319193090617 41.573329828838197 16.499284435351438 1 rotate no_reflect no_shear #
lump $-1 $-1 $45 $6 #
transform $-1 1 0 0 0 1 0 0 0 1 77.723319193090617 41.573329828838197 16.499284435351438 1 rotate no_reflect no_shear #
lump $-1 $-1 $46 $7 #
transform $-1 1 0 0 0 1 0 0 0 1 77.723319193090617 41.573329828838197 16.499284435351438 1 rotate no_reflect no_shear #
lump $-1 $-1 $47 $8 #
transform $-1 1 0 0 0 1 0 0 0 1 77.723319193090617 41.573329828838197 16.499284435351438 1 rotate no_reflect no_shear #
lump $-1 $-1 $48 $9 #
transform $-1 1 0 0 0 1 0 0 0 1 77.723319193090617 41.573329828838197 16.499284435351438 1 rotate no_reflect no_shear #
lump $-1 $-1 $49 $10 #
transform $-1 1 0 0 0 1 0 0 0 1 77.723319193090617 41.573329828838197 16.499284435351438 1 rotate no_reflect no_shear #
lump $-1 $-1 $50 $11 #
transform $-1 1 0 0 0 1 0 0 0 1 77.723319193090617 41.573329828838197 16.499284435351438 1 rotate no_reflect no_shear #
lump $-1 $-1 $51 $12 #
transform $-1 1 0 0 0 1 0 0 0 1 77.723319193090617 41.573329828838197 16.499284435351438 1 rotate no_reflect no_shear #
shell $-1 $-1 $-1 $52 $-1 $13 #
shell $-1 $-1 $-1 $53 $-1 $15 #
shell $-1 $-1 $-1 $54 $-1 $17 #
shell $-1 $-1 $-1 $55 $-1 $19 #
shell $-1 $-1 $-1 $56 $-1 $21 #
shell $-1 $-1 $-1 $57 $-1 $23 #
shell $-1 $-1 $-1 $58 $-1 $25 #
shell $-1 $-1 $-1 $59 $-1 $27 #
shell $-1 $-1 $-1 $60 $-1 $29 #
shell $-1 $-1 $-1 $61 $-1 $31 #
shell $-1 $-1 $-1 $62 $-1 $33 #
shell $-1 $-1 $-1 $63 $-1 $35 #
shell $-1 $-1 $-1 $64 $-1 $37 #
face $-1 $65 $66 $39 $-1 $67 forward single #
face $-1 $68 $69 $40 $-1 $70 reversed single #
face $-1 $71 $72 $41 $-1 $73 reversed single #
face $-1 $74 $75 $42 $-1 $76 forward single #
face $-1 $77 $78 $43 $-1 $79 forward single #
face $-1 $80 $81 $44 $-1 $82 reversed single #
face $-1 $83 $84 $45 $-1 $85 forward single #
face $-1 $86 $87 $46 $-1 $88 forward single #
face $-1 $89 $90 $47 $-1 $91 forward single #
face $-1 $92 $93 $48 $-1 $94 reversed single #
face $-1 $95 $96 $49 $-1 $97 forward single #
face $-1 $98 $99 $50 $-1 $100 forward single #
face $-1 $101 $102 $51 $-1 $103 forward single #
face $-1 $104 $105 $39 $-1 $106 reversed single #
loop $-1 $-1 $107 $52 #
plane-surface $-1 0 0 16.499284435351438 0 0 1 1 0 0 forward_v I I I I #
face $-1 $108 $109 $40 $-1 $110 reversed single #
loop $-1 $-1 $111 $53 #
plane-surface $-1 -66.845589257265985 -36.560451742113813 0 0 -1 0 0 0 -1 forward_v I I I I #
face $-1 $112 $113 $41 $-1 $114 reversed single #
loop $-1 $-1 $115 $54 #
plane-surface $-1 26.644930403084814 -157.09269607066872 106.70349461497285 -1 0 0 0 -0.74314483375859142 0.66913059716165679 forward_v I I I I #
face $-1 $116 $117 $42 $-1 $118 forward single #
loop $-1 $119 $120 $55 #
cone-surface $-1 15.828994709486665 -32.778748094092933 7.2736906262861867 0 0.74314483375859142 -0.66913059716165679 2 0 0 1 I I 0 1 2 forward I I I I #
face $-1 $121 $122 $43 $-1 $123 forward single #
loop $-1 $124 $125 $56 #
cone-surface $-1 22.318556125645557 -32.778748094092933 7.2736906262861867 0 0.74314483375859142 -0.66913059716165679 2 0 0 1 I I 0 1 2 forward I I I I #
face $-1 $126 $127 $44 $-1 $128 reversed single #
loop $-1 $-1 $129 $57 #
plane-surface $-1 -23.492397151092334 53.435133096703126 182.58064956391502 1 0 0 0 -0.52991927123019833 -0.84804809178421925 forward_v I I I I #
face $-1 $130 $131 $45 $-1 $132 forward single #
loop $-1 $133 $134 $58 #
cone-surface $-1 -20.536192939760681 32.872740431322754 10.229263935574735 0 -0.52991927123019833 -0.84804809178421925 1 0 0 1 I I 0 1 1 forward I I I I #
face $-1 $135 $136 $46 $-1 $137 forward single #
loop $-1 $138 $139 $59 #
cone-surface $-1 -16.10188662276321 32.872740431322754 10.229263935574735 0 -0.52991927123019833 -0.84804809178421925 1 0 0 1 I I 0 1 1 forward I I I I #
face $-1 $140 $141 $47 $-1 $142 forward single #
loop $-1 $143 $144 $60 #
cone-surface $-1 -11.667580305765739 32.872740431322754 10.229263935574735 0 -0.52991927123019833 -0.84804809178421925 1 0 0 1 I I 0 1 1 forward I I I I #
face $-1 $145 $146 $48 $-1 $147 reversed single #
loop $-1 $-1 $148 $61 #
plane-surface $-1 43.353192106173644 53.435133096703126 182.58064956391502 1 0 0 0 -0.52991927123019833 -0.84804809178421925 forward_v I I I I #
face $-1 $149 $150 $49 $-1 $151 forward single #
loop $-1 $152 $153 $62 #
cone-surface $-1 46.309396317505303 32.872740431322754 10.229263935574735 0 -0.52991927123019833 -0.84804809178421925 1 0 0 1 I I 0 1 1 forward I I I I #
face $-1 $154 $155 $50 $-1 $156 forward single #
loop $-1 $157 $158 $63 #
cone-surface $-1 50.743702634502768 32.872740431322754 10.229263935574735 0 -0.52991927123019833 -0.84804809178421925 1 0 0 1 I I 0 1 1 forward I I I I #
face $-1 $159 $160 $51 $-1 $161 forward single #
loop $-1 $162 $163 $64 #
cone-surface $-1 55.17800895150026 32.872740431322754 10.229263935574735 0 -0.52991927123019833 -0.84804809178421925 1 0 0 1 I I 0 1 1 forward I I I I #
face $-1 $164 $165 $39 $-1 $166 reversed single #
loop $-1 $-1 $167 $65 #
plane-surface $-1 0 0 -16.499284435351438 0 0 1 1 0 0 forward_v I I I I #
coedge $-1 $168 $169 $170 $171 forward $66 $-1 #
face $-1 $172 $173 $40 $-1 $174 forward single #
loop $-1 $-1 $175 $68 #
plane-surface $-1 -55.967859321441352 -39.066890785476005 0 -1 0 0 0 0 1 forward_v I I I I #
coedge $-1 $176 $177 $178 $179 forward $69 $-1 #
face $-1 $180 $181 $41 $-1 $182 reversed single #
loop $-1 $-1 $183 $71 #
plane-surface $-1 19.073775417566111 -41.573329828838197 2.6893926448552889 0 -0.74314483375859142 0.66913059716165679 1 0 0 forward_v I I I I #
coedge $-1 $184 $185 $186 $187 reversed $72 $-1 #
face $-1 $-1 $188 $42 $-1 $189 forward single #
loop $-1 $190 $191 $74 #
cone-surface $-1 15.828994709486665 -29.458262580590695 4.2839121153073414 0 0.74314483375859142 -0.66913059716165679 1 0 0 1 I I -0.70710678118654746 0.70710678118654746 1 forward I I I I #
loop $-1 $-1 $192 $55 #
coedge $-1 $120 $120 $193 $194 reversed $75 $-1 #
face $-1 $-1 $195 $43 $-1 $196 forward single #
loop $-1 $197 $198 $77 #
cone-surface $-1 22.318556125645557 -29.458262580590695 4.2839121153073414 0 0.74314483375859142 -0.66913059716165679 1 0 0 1 I I -0.70710678118654746 0.70710678118654746 1 forward I I I I #
loop $-1 $-1 $199 $56 #
coedge $-1 $125 $125 $200 $201 reversed $78 $-1 #
face $-1 $202 $203 $44 $-1 $204 reversed single #
loop $-1 $-1 $205 $80 #
plane-surface $-1 -16.10188662276321 -28.93903623208621 50.754424506242458 0 0.52991927123019833 0.84804809178421925 1 0 0 forward_v I I I I #
coedge $-1 $206 $207 $208 $209 reversed $81 $-1 #
face $-1 $-1 $210 $45 $-1 $211 forward single #
loop $-1 $212 $213 $83 #
cone-surface $-1 -20.536192939760681 31.75353320559303 8.4381579999710219 0 -0.52991927123019833 -0.84804809178421925 0.5 0 0 1 I I -0.70710678118654746 0.70710678118654746 0.5 forward I I I I #
loop $-1 $-1 $214 $58 #
coedge $-1 $134 $134 $215 $216 reversed $84 $-1 #
face $-1 $-1 $217 $46 $-1 $218 forward single #
loop $-1 $219 $220 $86 #
cone-surface $-1 -16.10188662276321 31.75353320559303 8.4381579999710219 0 -0.52991927123019833 -0.84804809178421925 0.5 0 0 1 I I -0.70710678118654746 0.70710678118654746 0.5 forward I I I I #
loop $-1 $-1 $221 $59 #
coedge $-1 $139 $139 $222 $223 reversed $87 $-1 #
face $-1 $-1 $224 $47 $-1 $225 forward single #
loop $-1 $226 $227 $89 #
cone-surface $-1 -11.667580305765739 31.75353320559303 8.4381579999710219 0 -0.52991927123019833 -0.84804809178421925 0.5 0 0 1 I I -0.70710678118654746 0.70710678118654746 0.5 forward I I I I #
loop $-1 $-1 $228 $60 #
coedge $-1 $144 $144 $229 $230 reversed $90 $-1 #
face $-1 $231 $232 $48 $-1 $233 reversed single #
loop $-1 $-1 $234 $92 #
plane-surface $-1 50.743702634502768 -28.93903623208621 50.754424506242458 0 0.52991927123019833 0.84804809178421925 1 0 0 forward_v I I I I #
coedge $-1 $235 $236 $237 $238 reversed $93 $-1 #
face $-1 $-1 $239 $49 $-1 $240 forward single #
loop $-1 $241 $242 $95 #
cone-surface $-1 46.309396317505303 31.75353320559303 8.4381579999710219 0 -0.52991927123019833 -0.84804809178421925 0.5 0 0 1 I I -0.70710678118654746 0.70710678118654746 0.5 forward I I I I #
loop $-1 $-1 $243 $62 #
coedge $-1 $153 $153 $244 $245 reversed $96 $-1 #
face $-1 $-1 $246 $50 $-1 $247 forward single #
loop $-1 $248 $249 $98 #
cone-surface $-1 50.743702634502768 31.75353320559303 8.4381579999710219 0 -0.52991927123019833 -0.84804809178421925 0.5 0 0 1 I I -0.70710678118654746 0.70710678118654746 0.5 forward I I I I #
loop $-1 $-1 $250 $63 #
coedge $-1 $158 $158 $251 $252 reversed $99 $-1 #
face $-1 $-1 $253 $51 $-1 $254 forward single #
loop $-1 $255 $256 $101 #
cone-surface $-1 55.17800895150026 31.75353320559303 8.4381579999710219 0 -0.52991927123019833 -0.84804809178421925 0.5 0 0 1 I I -0.70710678118654746 0.70710678118654746 0.5 forward I I I I #
loop $-1 $-1 $257 $64 #
coedge $-1 $163 $163 $258 $259 reversed $102 $-1 #
face $-1 $260 $261 $39 $-1 $262 reversed single #
loop $-1 $-1 $263 $104 #
plane-surface $-1 0 -41.573329828838197 0 0 1 0 0 0 1 forward_v I I I I #
coedge $-1 $264 $265 $266 $267 forward $105 $-1 #
coedge $-1 $268 $107 $269 $270 forward $66 $-1 #
coedge $-1 $107 $268 $271 $272 forward $66 $-1 #
coedge $-1 $273 $274 $107 $171 reversed $275 $-1 #
edge $-1 $276 -41.573329828838197 $277 41.573329828838197 $170 $278 forward 7 unknown #
face $-1 $279 $280 $40 $-1 $281 reversed single #
loop $-1 $-1 $282 $108 #
plane-surface $-1 0 0 16.499284435351438 0 0 1 1 0 0 forward_v I I I I #
coedge $-1 $283 $284 $285 $286 reversed $109 $-1 #
coedge $-1 $287 $111 $288 $289 reversed $69 $-1 #
coedge $-1 $111 $287 $290 $291 reversed $69 $-1 #
coedge $-1 $284 $283 $111 $179 reversed $109 $-1 #
edge $-1 $292 -16.499284435351438 $293 16.499284435351438 $178 $294 forward 7 unknown #
face $-1 $295 $296 $41 $-1 $297 forward single #
loop $-1 $-1 $298 $112 #
plane-surface $-1 11.502620432047408 -157.09269607066872 106.70349461497285 1 0 0 0 0.74314483375859142 -0.66913059716165679 forward_v I I I I #
coedge $-1 $299 $300 $301 $302 reversed $113 $-1 #
coedge $-1 $185 $115 $303 $304 reversed $72 $-1 #
coedge $-1 $115 $184 $299 $305 reversed $72 $-1 #
coedge $-1 $301 $306 $115 $187 forward $296 $-1 #
edge $-1 $307 36.973018206496164 $308 49.407500316499423 $186 $309 forward 7 unknown #
loop $-1 $-1 $193 $116 #
plane-surface $-1 19.073775417566111 -41.573329828838197 2.6893926448552889 0 -0.74314483375859142 0.66913059716165679 1 0 0 forward_v I I I I #
loop $-1 $-1 $310 $74 #
coedge $-1 $191 $191 $192 $311 reversed $117 $-1 #
coedge $-1 $192 $192 $191 $311 forward $119 $-1 #
coedge $-1 $193 $193 $120 $194 forward $188 $-1 #
edge $-1 $312 -7.9418762654422365e-016 $312 6.2831853071795996 $193 $313 forward 7 unknown #
loop $-1 $-1 $200 $121 #
plane-surface $-1 19.073775417566111 -41.573329828838197 2.6893926448552889 0 -0.74314483375859142 0.66913059716165679 1 0 0 forward_v I I I I #
loop $-1 $-1 $314 $77 #
coedge $-1 $198 $198 $199 $315 reversed $122 $-1 #
coedge $-1 $199 $199 $198 $315 forward $124 $-1 #
coedge $-1 $200 $200 $125 $201 forward $195 $-1 #
edge $-1 $316 -7.9418762654422365e-016 $316 6.2831853071795996 $200 $317 forward 7 unknown #
face $-1 $318 $319 $44 $-1 $320 reversed single #
loop $-1 $-1 $321 $126 #
plane-surface $-1 -8.7113760944340868 53.435133096703126 182.58064956391502 -1 0 0 0 0.52991927123019833 0.84804809178421925 forward_v I I I I #
coedge $-1 $322 $323 $324 $325 reversed $127 $-1 #
coedge $-1 $207 $129 $326 $327 reversed $81 $-1 #
coedge $-1 $129 $206 $322 $328 reversed $81 $-1 #
coedge $-1 $324 $329 $129 $209 forward $330 $-1 #
edge $-1 $331 -14.855763280486634 $332 0.83692033431500334 $208 $333 forward 7 unknown #
loop $-1 $-1 $215 $130 #
plane-surface $-1 -16.10188662276321 -28.93903623208621 50.754424506242458 0 0.52991927123019833 0.84804809178421925 1 0 0 forward_v I I I I #
loop $-1 $-1 $334 $83 #
coedge $-1 $213 $213 $214 $335 reversed $131 $-1 #
coedge $-1 $214 $214 $213 $335 forward $133 $-1 #
coedge $-1 $215 $215 $134 $216 forward $210 $-1 #
edge $-1 $336 1.8826514435595184e-015 $336 6.2831853071796022 $215 $337 forward 7 unknown #
loop $-1 $-1 $222 $135 #
plane-surface $-1 -16.10188662276321 -28.93903623208621 50.754424506242458 0 0.52991927123019833 0.84804809178421925 1 0 0 forward_v I I I I #
loop $-1 $-1 $338 $86 #
coedge $-1 $220 $220 $221 $339 reversed $136 $-1 #
coedge $-1 $221 $221 $220 $339 forward $138 $-1 #
coedge $-1 $222 $222 $139 $223 forward $217 $-1 #
edge $-1 $340 1.8826514435595184e-015 $340 6.2831853071796022 $222 $341 forward 7 unknown #
loop $-1 $-1 $229 $140 #
plane-surface $-1 -16.10188662276321 -28.93903623208621 50.754424506242458 0 0.52991927123019833 0.84804809178421925 1 0 0 forward_v I I I I #
loop $-1 $-1 $342 $89 #
coedge $-1 $227 $227 $228 $343 reversed $141 $-1 #
coedge $-1 $228 $228 $227 $343 forward $143 $-1 #
coedge $-1 $229 $229 $144 $230 forward $224 $-1 #
edge $-1 $344 1.8826514435595184e-015 $344 6.2831853071796022 $229 $345 forward 7 unknown #
face $-1 $346 $347 $48 $-1 $348 forward single #
loop $-1 $-1 $349 $145 #
plane-surface $-1 58.134213162831891 53.435133096703126 182.58064956391502 -1 0 0 0 0.52991927123019833 0.84804809178421925 forward_v I I I I #
coedge $-1 $350 $351 $352 $353 reversed $146 $-1 #
coedge $-1 $236 $148 $354 $355 reversed $93 $-1 #
coedge $-1 $148 $235 $350 $356 reversed $93 $-1 #
coedge $-1 $352 $357 $148 $238 forward $347 $-1 #
edge $-1 $358 -14.855763280486634 $359 0.83692033431500334 $237 $360 forward 7 unknown #
loop $-1 $-1 $244 $149 #
plane-surface $-1 50.743702634502768 -28.93903623208621 50.754424506242458 0 0.52991927123019833 0.84804809178421925 1 0 0 forward_v I I I I #
loop $-1 $-1 $361 $95 #
coedge $-1 $242 $242 $243 $362 reversed $150 $-1 #
coedge $-1 $243 $243 $242 $362 forward $152 $-1 #
coedge $-1 $244 $244 $153 $245 forward $239 $-1 #
edge $-1 $363 1.8826514435595184e-015 $363 6.2831853071796022 $244 $364 forward 7 unknown #
loop $-1 $-1 $251 $154 #
plane-surface $-1 50.743702634502768 -28.93903623208621 50.754424506242458 0 0.52991927123019833 0.84804809178421925 1 0 0 forward_v I I I I #
loop $-1 $-1 $365 $98 #
coedge $-1 $249 $249 $250 $366 reversed $155 $-1 #
coedge $-1 $250 $250 $249 $366 forward $157 $-1 #
coedge $-1 $251 $251 $158 $252 forward $246 $-1 #
edge $-1 $367 1.8826514435595184e-015 $367 6.2831853071796022 $251 $368 forward 7 unknown #
loop $-1 $-1 $258 $159 #
plane-surface $-1 50.743702634502768 -28.93903623208621 50.754424506242458 0 0.52991927123019833 0.84804809178421925 1 0 0 forward_v I I I I #
loop $-1 $-1 $369 $101 #
coedge $-1 $256 $256 $257 $370 reversed $160 $-1 #
coedge $-1 $257 $257 $256 $370 forward $162 $-1 #
coedge $-1 $258 $258 $163 $259 forward $253 $-1 #
edge $-1 $371 1.8826514435595184e-015 $371 6.2831853071796022 $258 $372 forward 7 unknown #
face $-1 $373 $374 $39 $-1 $375 reversed single #
loop $-1 $-1 $376 $164 #
plane-surface $-1 -77.723319193090617 0 0 1 0 0 0 0 -1 forward_v I I I I #
coedge $-1 $377 $271 $378 $379 forward $165 $-1 #
coedge $-1 $380 $167 $377 $381 forward $105 $-1 #
coedge $-1 $167 $380 $382 $383 forward $105 $-1 #
coedge $-1 $274 $273 $167 $267 reversed $275 $-1 #
edge $-1 $384 -41.573329828838197 $385 41.573329828838197 $266 $386 forward 7 unknown #
coedge $-1 $169 $168 $387 $388 forward $66 $-1 #
coedge $-1 $389 $390 $168 $270 reversed $374 $-1 #
edge $-1 $277 -77.723319193090617 $391 77.723319193090617 $269 $392 forward 7 unknown #
coedge $-1 $263 $393 $169 $272 reversed $165 $-1 #
edge $-1 $394 -77.723319193090617 $276 77.723319193090617 $271 $395 forward 7 unknown #
coedge $-1 $266 $170 $393 $396 forward $275 $-1 #
coedge $-1 $170 $266 $389 $397 reversed $275 $-1 #
loop $-1 $-1 $273 $373 #
vertex $-1 $171 $398 #
vertex $-1 $171 $399 #
straight-curve $-1 77.723319193090617 0 16.499284435351438 0 1 0 I I #
face $-1 $400 $401 $40 $-1 $402 reversed single #
loop $-1 $-1 $403 $172 #
plane-surface $-1 -77.723319193090617 0 0 1 0 0 0 0 -1 forward_v I I I I #
coedge $-1 $290 $404 $284 $405 forward $173 $-1 #
coedge $-1 $178 $175 $406 $407 reversed $109 $-1 #
coedge $-1 $175 $178 $282 $405 reversed $109 $-1 #
coedge $-1 $408 $409 $175 $286 forward $410 $-1 #
edge $-1 $411 -16.499284435351438 $412 16.499284435351438 $285 $413 forward 7 unknown #
coedge $-1 $177 $176 $403 $414 reversed $69 $-1 #
coedge $-1 $406 $415 $176 $289 forward $401 $-1 #
edge $-1 $416 -44.300524564457625 $293 -22.54506469280836 $288 $417 forward 7 unknown #
coedge $-1 $418 $282 $177 $291 forward $173 $-1 #
edge $-1 $292 22.54506469280836 $419 44.300524564457625 $290 $420 forward 7 unknown #
vertex $-1 $291 $421 #
vertex $-1 $289 $422 #
straight-curve $-1 -55.967859321441352 -36.560451742113813 0 0 0 -1 I I #
face $-1 $-1 $423 $41 $-1 $424 reversed single #
loop $-1 $-1 $186 $180 #
plane-surface $-1 0 0 16.499284435351438 0 0 1 1 0 0 forward_v I I I I #
coedge $-1 $425 $426 $427 $428 reversed $181 $-1 #
coedge $-1 $429 $183 $185 $305 forward $113 $-1 #
coedge $-1 $183 $429 $425 $430 forward $113 $-1 #
coedge $-1 $427 $186 $183 $302 forward $296 $-1 #
edge $-1 $308 -17.108042694301759 $431 -1.9657327232643524 $301 $432 forward 7 unknown #
coedge $-1 $433 $434 $184 $304 forward $423 $-1 #
edge $-1 $435 -50.662354662631138 $307 -36.852462872134993 $303 $436 forward 7 unknown #
edge $-1 $308 -18.583042178534818 $435 0 $185 $437 forward 7 unknown #
coedge $-1 $186 $427 $433 $438 forward $296 $-1 #
vertex $-1 $304 $439 #
vertex $-1 $187 $440 #
straight-curve $-1 26.644930403084814 -78.546348035334361 16.499284435351441 0 1 0 I I #
coedge $-1 $310 $310 $-1 $441 reversed $190 $-1 #
edge $-1 $442 0 $442 6.2831853071796004 $191 $443 forward 7 unknown #
vertex $-1 $194 $444 #
ellipse-curve $-1 15.828994709486665 -35.356088773836568 9.5943385401033652 0 -0.74314483375859142 0.66913059716165679 2 0 0 1 I I #
coedge $-1 $314 $314 $-1 $445 reversed $197 $-1 #
edge $-1 $446 0 $446 6.2831853071796004 $198 $447 forward 7 unknown #
vertex $-1 $201 $448 #
ellipse-curve $-1 22.318556125645557 -35.356088773836568 9.5943385401033652 0 -0.74314483375859142 0.66913059716165679 2 0 0 1 I I #
face $-1 $-1 $330 $44 $-1 $449 forward single #
loop $-1 $-1 $450 $202 #
plane-surface $-1 0 41.573329828838197 0 0 -1 0 0 0 -1 forward_v I I I I #
coedge $-1 $451 $452 $453 $454 reversed $203 $-1 #
coedge $-1 $455 $205 $207 $328 forward $127 $-1 #
coedge $-1 $205 $455 $451 $456 forward $127 $-1 #
coedge $-1 $453 $208 $205 $325 forward $330 $-1 #
edge $-1 $332 -15.441453839710729 $457 -0.66043278305248165 $324 $458 forward 7 unknown #
coedge $-1 $459 $460 $206 $327 forward $319 $-1 #
edge $-1 $461 -84.596917566736266 $331 -74.791040346606067 $326 $462 forward 7 unknown #
edge $-1 $332 64.642185952906203 $461 83.146659657676423 $207 $463 forward 7 unknown #
coedge $-1 $208 $453 $459 $464 forward $330 $-1 #
loop $-1 $-1 $453 $318 #
vertex $-1 $327 $465 #
vertex $-1 $209 $466 #
straight-curve $-1 -23.492397151092334 26.717566548351563 16.499284435351441 0 -1 0 I I #
coedge $-1 $334 $334 $-1 $467 reversed $212 $-1 #
edge $-1 $468 0 $468 6.2831853071796004 $213 $469 forward 7 unknown #
vertex $-1 $216 $470 #
ellipse-curve $-1 -20.536192939760681 33.726988021437379 11.596345825286344 0 0.52991927123019833 0.84804809178421925 1 0 0 1 I I #
coedge $-1 $338 $338 $-1 $471 reversed $219 $-1 #
edge $-1 $472 0 $472 6.2831853071796004 $220 $473 forward 7 unknown #
vertex $-1 $223 $474 #
ellipse-curve $-1 -16.10188662276321 33.726988021437379 11.596345825286344 0 0.52991927123019833 0.84804809178421925 1 0 0 1 I I #
coedge $-1 $342 $342 $-1 $475 reversed $226 $-1 #
edge $-1 $476 0 $476 6.2831853071796004 $227 $477 forward 7 unknown #
vertex $-1 $230 $478 #
ellipse-curve $-1 -11.667580305765739 33.726988021437379 11.596345825286344 0 0.52991927123019833 0.84804809178421925 1 0 0 1 I I #
face $-1 $-1 $479 $48 $-1 $480 reversed single #
loop $-1 $-1 $237 $231 #
plane-surface $-1 0 0 16.499284435351438 0 0 1 1 0 0 forward_v I I I I #
coedge $-1 $481 $482 $483 $484 reversed $232 $-1 #
coedge $-1 $485 $234 $236 $356 forward $146 $-1 #
coedge $-1 $234 $485 $481 $486 forward $146 $-1 #
coedge $-1 $483 $237 $234 $353 forward $347 $-1 #
edge $-1 $359 17.98134078892226 $487 32.762361845580507 $352 $488 forward 7 unknown #
coedge $-1 $489 $490 $235 $355 forward $479 $-1 #
edge $-1 $491 -84.596917566736266 $358 -74.791040346606067 $354 $492 forward 7 unknown #
edge $-1 $359 64.642185952906203 $491 83.146659657676423 $236 $493 forward 7 unknown #
coedge $-1 $237 $483 $489 $494 forward $347 $-1 #
vertex $-1 $355 $495 #
vertex $-1 $238 $496 #
straight-curve $-1 43.353192106173644 26.717566548351563 16.499284435351441 0 -1 0 I I #
coedge $-1 $361 $361 $-1 $497 reversed $241 $-1 #
edge $-1 $498 0 $498 6.2831853071796004 $242 $499 forward 7 unknown #
vertex $-1 $245 $500 #
ellipse-curve $-1 46.309396317505303 33.726988021437379 11.596345825286344 0 0.52991927123019833 0.84804809178421925 1 0 0 1 I I #
coedge $-1 $365 $365 $-1 $501 reversed $248 $-1 #
edge $-1 $502 0 $502 6.2831853071796004 $249 $503 forward 7 unknown #
vertex $-1 $252 $504 #
ellipse-curve $-1 50.743702634502768 33.726988021437379 11.596345825286344 0 0.52991927123019833 0.84804809178421925 1 0 0 1 I I #
coedge $-1 $369 $369 $-1 $505 reversed $255 $-1 #
edge $-1 $506 0 $506 6.2831853071796004 $256 $507 forward 7 unknown #
vertex $-1 $259 $508 #
ellipse-curve $-1 55.17800895150026 33.726988021437379 11.596345825286344 0 0.52991927123019833 0.84804809178421925 1 0 0 1 I I #
face $-1 $-1 $275 $39 $-1 $509 reversed single #
loop $-1 $-1 $389 $260 #
plane-surface $-1 0 41.573329828838197 0 0 -1 0 0 0 -1 forward_v I I I I #
coedge $-1 $510 $387 $390 $511 forward $261 $-1 #
coedge $-1 $393 $263 $264 $381 reversed $165 $-1 #
coedge $-1 $387 $510 $263 $379 reversed $261 $-1 #
edge $-1 $394 -16.499284435351438 $512 16.499284435351438 $378 $513 forward 7 unknown #
coedge $-1 $265 $264 $510 $514 forward $105 $-1 #
edge $-1 $385 -77.723319193090617 $512 77.723319193090617 $377 $515 forward 7 unknown #
coedge $-1 $390 $389 $265 $383 reversed $374 $-1 #
edge $-1 $516 -77.723319193090617 $384 77.723319193090617 $382 $517 forward 7 unknown #
vertex $-1 $267 $518 #
vertex $-1 $396 $519 #
straight-curve $-1 77.723319193090617 0 -16.499284435351438 0 -1 0 I I #
coedge $-1 $376 $378 $268 $388 reversed $261 $-1 #
edge $-1 $391 -41.573329828838197 $394 41.573329828838197 $387 $520 forward 7 unknown #
coedge $-1 $382 $269 $274 $397 forward $374 $-1 #
coedge $-1 $269 $382 $376 $511 reversed $374 $-1 #
vertex $-1 $270 $521 #
straight-curve $-1 0 41.573329828838197 16.499284435351438 -1 0 0 I I #
coedge $-1 $271 $377 $273 $396 reversed $165 $-1 #
vertex $-1 $388 $522 #
straight-curve $-1 0 -41.573329828838197 16.499284435351438 1 0 0 I I #
edge $-1 $276 -16.499284435351438 $385 16.499284435351438 $273 $523 forward 7 unknown #
edge $-1 $277 -16.499284435351438 $384 16.499284435351438 $274 $524 forward 7 unknown #
point $-1 77.723319193090617 -41.573329828838197 16.499284435351438 #
point $-1 77.723319193090617 41.573329828838197 16.499284435351438 #
face $-1 $-1 $410 $40 $-1 $525 reversed single #
loop $-1 $-1 $406 $279 #
plane-surface $-1 0 0 -16.499284435351438 0 0 1 1 0 0 forward_v I I I I #
coedge $-1 $526 $527 $287 $414 forward $280 $-1 #
coedge $-1 $282 $418 $408 $528 forward $173 $-1 #
edge $-1 $412 -22.039884436100195 $292 -17.02700634937581 $282 $529 forward 7 unknown #
coedge $-1 $530 $288 $283 $407 forward $401 $-1 #
edge $-1 $293 17.02700634937581 $411 22.039884436100195 $406 $531 forward 7 unknown #
coedge $-1 $532 $285 $404 $528 reversed $410 $-1 #
coedge $-1 $285 $532 $530 $533 reversed $410 $-1 #
loop $-1 $-1 $285 $400 #
vertex $-1 $533 $534 #
vertex $-1 $286 $535 #
straight-curve $-1 -55.967859321441352 -41.573329828838197 0 0 0 1 I I #
edge $-1 $419 -16.499284435351438 $416 16.499284435351438 $403 $536 forward 7 unknown #
coedge $-1 $288 $530 $526 $537 forward $401 $-1 #
vertex $-1 $289 $538 #
straight-curve $-1 -33.422794628632992 -36.560451742113813 -16.499284435351438 1 0 0 I I #
coedge $-1 $404 $290 $527 $539 forward $173 $-1 #
vertex $-1 $539 $540 #
straight-curve $-1 -33.422794628632992 -36.560451742113813 16.499284435351438 -1 0 0 I I #
point $-1 -55.967859321441352 -36.560451742113813 16.499284435351438 #
point $-1 -55.967859321441352 -36.560451742113813 -16.499284435351438 #
loop $-1 $-1 $303 $295 #
plane-surface $-1 0 -41.573329828838197 0 0 1 0 0 0 1 forward_v I I I I #
coedge $-1 $426 $298 $300 $430 reversed $181 $-1 #
coedge $-1 $298 $425 $541 $542 reversed $181 $-1 #
coedge $-1 $306 $301 $298 $428 forward $296 $-1 #
edge $-1 $431 -49.407500316499423 $543 -36.973018206496164 $427 $544 forward 7 unknown #
coedge $-1 $300 $299 $434 $545 reversed $113 $-1 #
edge $-1 $546 0 $431 18.583042178534818 $425 $547 forward 7 unknown #
vertex $-1 $302 $548 #
straight-curve $-1 9.5368877087830555 -29.138847718834935 16.499284435351438 -1 0 0 I I #
coedge $-1 $541 $303 $306 $438 reversed $423 $-1 #
coedge $-1 $303 $541 $429 $545 forward $423 $-1 #
vertex $-1 $304 $549 #
straight-curve $-1 26.644930403084814 -41.573329828838197 53.351747307486427 0 0 1 I I #
straight-curve $-1 26.644930403084814 -41.573329828838197 2.6893926448552889 0 -0.66913059716165679 -0.74314483375859142 I I #
edge $-1 $543 11.502620432047408 $307 26.644930403084814 $433 $550 forward 7 unknown #
point $-1 26.644930403084814 -41.573329828838197 16.499284435351438 #
point $-1 26.644930403084814 -29.138847718834938 16.499284435351438 #
edge $-1 $551 1 $551 0 $310 $-1 forward 7 unknown #
vertex $-1 $311 $552 #
ellipse-curve $-1 15.828994709486665 -30.201407414349287 4.9530427124689984 0 -0.74314483375859142 0.66913059716165679 2 0 0 1 I I #
point $-1 17.828994709486665 -35.356088773836582 9.5943385401033758 #
edge $-1 $553 1 $553 0 $314 $-1 forward 7 unknown #
vertex $-1 $315 $554 #
ellipse-curve $-1 22.318556125645557 -30.201407414349287 4.9530427124689984 0 -0.74314483375859142 0.66913059716165679 2 0 0 1 I I #
point $-1 24.318556125645557 -35.356088773836582 9.5943385401033758 #
plane-surface $-1 0 0 16.499284435351438 0 0 1 1 0 0 forward_v I I I I #
coedge $-1 $460 $459 $452 $555 forward $319 $-1 #
coedge $-1 $452 $321 $323 $456 reversed $203 $-1 #
coedge $-1 $321 $451 $450 $555 reversed $203 $-1 #
coedge $-1 $329 $324 $321 $454 forward $330 $-1 #
edge $-1 $457 -0.83692033431500334 $556 14.855763280486634 $453 $557 forward 7 unknown #
coedge $-1 $323 $322 $460 $558 reversed $127 $-1 #
edge $-1 $559 -83.146659657676423 $457 -64.642185952906203 $451 $560 forward 7 unknown #
vertex $-1 $325 $561 #
straight-curve $-1 -8.0509433113816051 25.88064621403656 16.499284435351438 1 0 0 I I #
coedge $-1 $450 $326 $329 $464 reversed $319 $-1 #
coedge $-1 $326 $450 $455 $558 forward $319 $-1 #
vertex $-1 $327 $562 #
straight-curve $-1 -23.492397151092334 41.573329828838197 91.290324781957509 0 0 1 I I #
straight-curve $-1 -23.492397151092334 -28.93903623208621 50.754424506242458 0 0.84804809178421925 -0.52991927123019833 I I #
edge $-1 $556 8.7113760944340868 $331 23.492397151092334 $459 $563 forward 7 unknown #
point $-1 -23.492397151092334 41.573329828838197 16.499284435351438 #
point $-1 -23.492397151092334 25.88064621403656 16.499284435351441 #
edge $-1 $564 1 $564 0 $334 $-1 forward 7 unknown #
vertex $-1 $335 $565 #
ellipse-curve $-1 -20.536192939760681 32.018492841208129 8.8621820458631309 0 0.52991927123019833 0.84804809178421925 1 0 0 1 I I #
point $-1 -19.536192939760681 33.726988021437379 11.59634582528634 #
edge $-1 $566 1 $566 0 $338 $-1 forward 7 unknown #
vertex $-1 $339 $567 #
ellipse-curve $-1 -16.10188662276321 32.018492841208129 8.8621820458631309 0 0.52991927123019833 0.84804809178421925 1 0 0 1 I I #
point $-1 -15.10188662276321 33.726988021437379 11.59634582528634 #
edge $-1 $568 1 $568 0 $342 $-1 forward 7 unknown #
vertex $-1 $343 $569 #
ellipse-curve $-1 -11.667580305765739 32.018492841208129 8.8621820458631309 0 0.52991927123019833 0.84804809178421925 1 0 0 1 I I #
point $-1 -10.667580305765739 33.726988021437379 11.59634582528634 #
loop $-1 $-1 $354 $346 #
plane-surface $-1 0 41.573329828838197 0 0 -1 0 0 0 -1 forward_v I I I I #
coedge $-1 $482 $349 $351 $486 reversed $232 $-1 #
coedge $-1 $349 $481 $570 $571 reversed $232 $-1 #
coedge $-1 $357 $352 $349 $484 forward $347 $-1 #
edge $-1 $487 -0.83692033431500334 $572 14.855763280486634 $483 $573 forward 7 unknown #
coedge $-1 $351 $350 $490 $574 reversed $146 $-1 #
edge $-1 $575 -83.146659657676423 $487 -64.642185952906203 $481 $576 forward 7 unknown #
vertex $-1 $353 $577 #
straight-curve $-1 25.371851317251384 25.88064621403656 16.499284435351438 1 0 0 I I #
coedge $-1 $570 $354 $357 $494 reversed $479 $-1 #
coedge $-1 $354 $570 $485 $574 forward $479 $-1 #
vertex $-1 $355 $578 #
straight-curve $-1 43.353192106173644 41.573329828838197 91.290324781957509 0 0 1 I I #
straight-curve $-1 43.353192106173644 -28.93903623208621 50.754424506242458 0 0.84804809178421925 -0.52991927123019833 I I #
edge $-1 $572 -58.134213162831891 $358 -43.353192106173644 $489 $579 forward 7 unknown #
point $-1 43.353192106173644 41.573329828838197 16.499284435351438 #
point $-1 43.353192106173644 25.88064621403656 16.499284435351441 #
edge $-1 $580 1 $580 0 $361 $-1 forward 7 unknown #
vertex $-1 $362 $581 #
ellipse-curve $-1 46.309396317505303 32.018492841208129 8.8621820458631309 0 0.52991927123019833 0.84804809178421925 1 0 0 1 I I #
point $-1 47.309396317505303 33.726988021437379 11.59634582528634 #
edge $-1 $582 1 $582 0 $365 $-1 forward 7 unknown #
vertex $-1 $366 $583 #
ellipse-curve $-1 50.743702634502768 32.018492841208129 8.8621820458631309 0 0.52991927123019833 0.84804809178421925 1 0 0 1 I I #
point $-1 51.743702634502768 33.726988021437379 11.59634582528634 #
edge $-1 $584 1 $584 0 $369 $-1 forward 7 unknown #
vertex $-1 $370 $585 #
ellipse-curve $-1 55.17800895150026 32.018492841208129 8.8621820458631309 0 0.52991927123019833 0.84804809178421925 1 0 0 1 I I #
point $-1 56.17800895150026 33.726988021437379 11.59634582528634 #
plane-surface $-1 77.723319193090617 0 0 -1 0 0 0 0 1 forward_v I I I I #
coedge $-1 $378 $376 $380 $514 reversed $261 $-1 #
edge $-1 $391 -16.499284435351438 $516 16.499284435351438 $390 $586 forward 7 unknown #
vertex $-1 $514 $587 #
straight-curve $-1 -77.723319193090617 -41.573329828838197 0 0 0 -1 I I #
edge $-1 $512 -41.573329828838197 $516 41.573329828838197 $510 $588 forward 7 unknown #
straight-curve $-1 0 -41.573329828838197 -16.499284435351438 -1 0 0 I I #
vertex $-1 $383 $589 #
straight-curve $-1 0 41.573329828838197 -16.499284435351438 1 0 0 I I #
point $-1 77.723319193090617 41.573329828838197 -16.499284435351438 #
point $-1 77.723319193090617 -41.573329828838197 -16.499284435351438 #
straight-curve $-1 -77.723319193090617 0 16.499284435351438 0 -1 0 I I #
point $-1 -77.723319193090617 41.573329828838197 16.499284435351438 #
point $-1 -77.723319193090617 -41.573329828838197 16.499284435351438 #
straight-curve $-1 77.723319193090617 -41.573329828838197 0 0 0 -1 I I #
straight-curve $-1 77.723319193090617 41.573329828838197 0 0 0 -1 I I #
plane-surface $-1 0 -41.573329828838197 0 0 1 0 0 0 1 forward_v I I I I #
coedge $-1 $590 $403 $415 $537 reversed $280 $-1 #
coedge $-1 $403 $590 $418 $539 reversed $280 $-1 #
edge $-1 $591 -77.723319193090617 $412 -55.967859321441352 $408 $592 forward 7 unknown #
straight-curve $-1 -55.967859321441352 -19.533445392738003 16.499284435351438 0 1 0 I I #
coedge $-1 $415 $406 $409 $533 forward $401 $-1 #
straight-curve $-1 -55.967859321441352 -19.533445392738003 -16.499284435351438 0 -1 0 I I #
coedge $-1 $409 $408 $590 $593 forward $410 $-1 #
edge $-1 $411 55.967859321441352 $594 77.723319193090617 $409 $595 forward 7 unknown #
point $-1 -55.967859321441352 -41.573329828838197 -16.499284435351438 #
point $-1 -55.967859321441352 -41.573329828838197 16.499284435351438 #
straight-curve $-1 -77.723319193090617 -36.560451742113813 0 0 0 -1 I I #
edge $-1 $594 -41.573329828838197 $416 -36.560451742113813 $526 $596 forward 7 unknown #
point $-1 -77.723319193090617 -36.560451742113813 -16.499284435351438 #
edge $-1 $419 36.560451742113813 $591 41.573329828838197 $527 $597 forward 7 unknown #
point $-1 -77.723319193090617 -36.560451742113813 16.499284435351438 #
coedge $-1 $434 $433 $426 $542 forward $423 $-1 #
edge $-1 $543 36.852462872134993 $546 50.662354662631138 $541 $598 forward 7 unknown #
vertex $-1 $438 $599 #
straight-curve $-1 11.502620432047408 -78.546348035334361 16.499284435351441 0 -1 0 I I #
edge $-1 $546 1.9657327232643524 $435 17.108042694301759 $434 $600 forward 7 unknown #
vertex $-1 $545 $601 #
straight-curve $-1 11.502620432047408 -41.573329828838197 2.6893926448552889 0 0.66913059716165679 0.74314483375859142 I I #
point $-1 11.502620432047408 -29.138847718834938 16.499284435351438 #
point $-1 26.644930403084814 -41.573329828838197 2.6893926448552889 #
straight-curve $-1 0 -41.573329828838197 16.499284435351438 1 0 0 I I #
vertex $-1 $441 $602 #
point $-1 17.828994709486665 -30.201407414349287 4.9530427124689984 #
vertex $-1 $445 $603 #
point $-1 24.318556125645557 -30.201407414349287 4.9530427124689984 #
edge $-1 $556 74.791040346606067 $559 84.596917566736266 $450 $604 forward 7 unknown #
vertex $-1 $464 $605 #
straight-curve $-1 -8.7113760944340868 26.717566548351563 16.499284435351441 0 1 0 I I #
edge $-1 $559 0.66043278305248165 $461 15.441453839710729 $460 $606 forward 7 unknown #
vertex $-1 $558 $607 #
straight-curve $-1 -8.7113760944340868 -28.93903623208621 50.754424506242458 0 -0.84804809178421925 0.52991927123019833 I I #
point $-1 -8.7113760944340868 25.88064621403656 16.499284435351441 #
point $-1 -23.492397151092334 41.573329828838197 6.6934072152212423 #
straight-curve $-1 0 41.573329828838197 16.499284435351438 -1 0 0 I I #
vertex $-1 $467 $608 #
point $-1 -19.536192939760681 32.018492841208129 8.8621820458631309 #
vertex $-1 $471 $609 #
point $-1 -15.10188662276321 32.018492841208129 8.8621820458631309 #
vertex $-1 $475 $610 #
point $-1 -10.667580305765739 32.018492841208129 8.8621820458631309 #
coedge $-1 $490 $489 $482 $571 forward $479 $-1 #
edge $-1 $572 74.791040346606067 $575 84.596917566736266 $570 $611 forward 7 unknown #
vertex $-1 $494 $612 #
straight-curve $-1 58.134213162831891 26.717566548351563 16.499284435351441 0 1 0 I I #
edge $-1 $575 -32.762361845580507 $491 -17.98134078892226 $490 $613 forward 7 unknown #
vertex $-1 $574 $614 #
straight-curve $-1 58.134213162831891 -28.93903623208621 50.754424506242458 0 -0.84804809178421925 0.52991927123019833 I I #
point $-1 58.134213162831891 25.88064621403656 16.499284435351441 #
point $-1 43.353192106173644 41.573329828838197 6.6934072152212423 #
straight-curve $-1 0 41.573329828838197 16.499284435351438 -1 0 0 I I #
vertex $-1 $497 $615 #
point $-1 47.309396317505303 32.018492841208129 8.8621820458631309 #
vertex $-1 $501 $616 #
point $-1 51.743702634502768 32.018492841208129 8.8621820458631309 #
vertex $-1 $505 $617 #
point $-1 56.17800895150026 32.018492841208129 8.8621820458631309 #
straight-curve $-1 -77.723319193090617 41.573329828838197 0 0 0 -1 I I #
point $-1 -77.723319193090617 -41.573329828838197 -16.499284435351438 #
straight-curve $-1 -77.723319193090617 0 -16.499284435351438 0 1 0 I I #
point $-1 -77.723319193090617 41.573329828838197 -16.499284435351438 #
coedge $-1 $527 $526 $532 $593 reversed $280 $-1 #
vertex $-1 $539 $618 #
straight-curve $-1 0 -41.573329828838197 16.499284435351438 1 0 0 I I #
edge $-1 $591 -16.499284435351438 $594 16.499284435351438 $590 $619 forward 7 unknown #
vertex $-1 $537 $620 #
straight-curve $-1 0 -41.573329828838197 -16.499284435351438 -1 0 0 I I #
straight-curve $-1 -77.723319193090617 0 -16.499284435351438 0 1 0 I I #
straight-curve $-1 -77.723319193090617 0 16.499284435351438 0 -1 0 I I #
straight-curve $-1 11.502620432047408 -41.573329828838197 53.351747307486427 0 0 -1 I I #
point $-1 11.502620432047408 -41.573329828838197 16.499284435351438 #
straight-curve $-1 9.5368877087830555 -41.573329828838197 2.6893926448552925 1 0 0 I I #
point $-1 11.502620432047408 -41.573329828838197 2.6893926448552889 #
point $-1 15.828994709486665 -28.715117746832103 3.6147815181456844 #
point $-1 22.318556125645557 -28.715117746832103 3.6147815181456844 #
straight-curve $-1 -8.7113760944340868 41.573329828838197 91.290324781957509 0 0 -1 I I #
point $-1 -8.7113760944340868 41.573329828838197 16.499284435351438 #
straight-curve $-1 -8.0509433113816051 41.573329828838204 6.6934072152212387 -1 0 0 I I #
point $-1 -8.7113760944340868 41.573329828838197 6.6934072152212423 #
point $-1 -20.536192939760681 31.48857356997793 8.0141339540789129 #
point $-1 -16.10188662276321 31.48857356997793 8.0141339540789129 #
point $-1 -11.667580305765739 31.48857356997793 8.0141339540789129 #
straight-curve $-1 58.134213162831891 41.573329828838197 91.290324781957509 0 0 -1 I I #
point $-1 58.134213162831891 41.573329828838197 16.499284435351438 #
straight-curve $-1 25.371851317251384 41.573329828838204 6.6934072152212387 -1 0 0 I I #
point $-1 58.134213162831891 41.573329828838197 6.6934072152212423 #
point $-1 46.309396317505303 31.48857356997793 8.0141339540789129 #
point $-1 50.743702634502768 31.48857356997793 8.0141339540789129 #
point $-1 55.17800895150026 31.48857356997793 8.0141339540789129 #
point $-1 -77.723319193090617 -41.573329828838197 16.499284435351438 #
straight-curve $-1 -77.723319193090617 -41.573329828838197 0 0 0 -1 I I #
point $-1 -77.723319193090617 -41.573329828838197 -16.499284435351438 #
End-of-ACIS-data 