500 0 12 0           
7 Unknown 11 ACIS 5.0 NT 24 Fri Mar 26 00:09:29 1999 
-1 9.9999999999999995e-007 1e-010 
body $-1 $12 $-1 $13 #
body $-1 $14 $-1 $15 #
body $-1 $16 $-1 $17 #
body $-1 $18 $-1 $19 #
body $-1 $20 $-1 $21 #
body $-1 $22 $-1 $23 #
body $-1 $24 $-1 $25 #
body $-1 $26 $-1 $27 #
body $-1 $28 $-1 $29 #
body $-1 $30 $-1 $31 #
body $-1 $32 $-1 $33 #
body $-1 $34 $-1 $35 #
lump $-1 $-1 $36 $0 #
transform $-1 1 0 0 0 1 0 0 0 1 40.336924344615007 16.468623123333217 5.4126268197305958 1 rotate no_reflect no_shear #
lump $-1 $-1 $37 $1 #
transform $-1 0.75470957328743171 0 -0.6560590369687036 0 1 0 0.6560590369687036 0 0.75470957328743171 72.715330249141559 10.221635776086906 119.46641313882706 1 rotate no_reflect no_shear #
lump $-1 $-1 $38 $2 #
transform $-1 0.75470957328743171 0 -0.6560590369687036 0 -1 0 -0.6560590369687036 0 -0.75470957328743171 76.755336355690702 8.1856512351580495 7.1535314678161299 1 rotate no_reflect no_shear #
lump $-1 $-1 $39 $3 #
transform $-1 0.75470957328743171 0 -0.6560590369687036 0 -1 0 -0.6560590369687036 0 -0.75470957328743171 76.755336355690702 10.221635776086906 7.1535314678161299 1 rotate no_reflect no_shear #
lump $-1 $-1 $40 $4 #
transform $-1 0.75470957328743171 0 -0.6560590369687036 0 -1 0 -0.6560590369687036 0 -0.75470957328743171 76.755336355690702 12.25762031701576 7.1535314678161299 1 rotate no_reflect no_shear #
lump $-1 $-1 $41 $5 #
transform $-1 0.75470957328743171 0 -0.6560590369687036 0 1 0 0.6560590369687036 0 0.75470957328743171 72.715330249141559 26.690258899420122 119.46641313882706 1 rotate no_reflect no_shear #
lump $-1 $-1 $42 $6 #
transform $-1 0.75470957328743171 0 -0.6560590369687036 0 -1 0 -0.6560590369687036 0 -0.75470957328743171 76.755336355690702 24.654274358491264 7.1535314678161299 1 rotate no_reflect no_shear #
lump $-1 $-1 $43 $7 #
transform $-1 0.75470957328743171 0 -0.6560590369687036 0 -1 0 -0.6560590369687036 0 -0.75470957328743171 76.755336355690702 26.690258899420122 7.1535314678161299 1 rotate no_reflect no_shear #
lump $-1 $-1 $44 $8 #
transform $-1 0.75470957328743171 0 -0.6560590369687036 0 -1 0 -0.6560590369687036 0 -0.75470957328743171 76.755336355690702 28.726243440348977 7.1535314678161299 1 rotate no_reflect no_shear #
lump $-1 $-1 $45 $9 #
transform $-1 0.5877852410284794 0 0.80901700255871778 0 1 0 -0.80901700255871778 0 0.5877852410284794 -65.266515251436417 8.2920376430744334 54.893526249976851 1 rotate no_reflect no_shear #
lump $-1 $-1 $46 $10 #
transform $-1 0.5877852410284794 0 0.80901700255871778 0 -1 0 0.80901700255871778 0 -0.5877852410284794 2.8928153246426316 6.972540397851926 7.9325250263947495 1 rotate no_reflect no_shear #
lump $-1 $-1 $47 $11 #
transform $-1 0.5877852410284794 0 0.80901700255871778 0 -1 0 0.80901700255871778 0 -0.5877852410284794 2.8928153246426316 9.6115348882969371 7.9325250263947495 1 rotate no_reflect no_shear #
shell $-1 $-1 $-1 $48 $-1 $12 #
shell $-1 $-1 $-1 $49 $-1 $14 #
shell $-1 $-1 $-1 $50 $-1 $16 #
shell $-1 $-1 $-1 $51 $-1 $18 #
shell $-1 $-1 $-1 $52 $-1 $20 #
shell $-1 $-1 $-1 $53 $-1 $22 #
shell $-1 $-1 $-1 $54 $-1 $24 #
shell $-1 $-1 $-1 $55 $-1 $26 #
shell $-1 $-1 $-1 $56 $-1 $28 #
shell $-1 $-1 $-1 $57 $-1 $30 #
shell $-1 $-1 $-1 $58 $-1 $32 #
shell $-1 $-1 $-1 $59 $-1 $34 #
face $-1 $60 $61 $36 $-1 $62 forward single #
face $-1 $63 $64 $37 $-1 $65 forward single #
face $-1 $66 $67 $38 $-1 $68 forward single #
face $-1 $69 $70 $39 $-1 $71 forward single #
face $-1 $72 $73 $40 $-1 $74 forward single #
face $-1 $75 $76 $41 $-1 $77 forward single #
face $-1 $78 $79 $42 $-1 $80 forward single #
face $-1 $81 $82 $43 $-1 $83 forward single #
face $-1 $84 $85 $44 $-1 $86 forward single #
face $-1 $87 $88 $45 $-1 $89 forward single #
face $-1 $90 $91 $46 $-1 $92 forward single #
face $-1 $93 $94 $47 $-1 $95 forward single #
face $-1 $96 $97 $36 $-1 $98 reversed single #
loop $-1 $-1 $99 $48 #
plane-surface $-1 0 0 5.4126268197305958 0 0 1 1 0 0 forward_v I I I I #
face $-1 $100 $101 $37 $-1 $102 reversed single #
loop $-1 $-1 $103 $49 #
plane-surface $-1 0 0 80.673848689230013 0 0 1 1 0 0 forward_v I I I I #
face $-1 $104 $105 $38 $-1 $106 forward single #
loop $-1 $107 $108 $50 #
cone-surface $-1 0 0 -0.84463789788506727 0 0 1 0.5 0 0 1 I I 0 1 0.5 forward I I I I #
face $-1 $109 $110 $39 $-1 $111 forward single #
loop $-1 $112 $113 $51 #
cone-surface $-1 0 0 -0.84463789788506727 0 0 1 0.5 0 0 1 I I 0 1 0.5 forward I I I I #
face $-1 $114 $115 $40 $-1 $116 forward single #
loop $-1 $117 $118 $52 #
cone-surface $-1 0 0 -0.84463789788506727 0 0 1 0.5 0 0 1 I I 0 1 0.5 forward I I I I #
face $-1 $119 $120 $41 $-1 $121 reversed single #
loop $-1 $-1 $122 $53 #
plane-surface $-1 0 0 80.673848689230013 0 0 1 1 0 0 forward_v I I I I #
face $-1 $123 $124 $42 $-1 $125 forward single #
loop $-1 $126 $127 $54 #
cone-surface $-1 0 0 -0.84463789788506727 0 0 1 0.5 0 0 1 I I 0 1 0.5 forward I I I I #
face $-1 $128 $129 $43 $-1 $130 forward single #
loop $-1 $131 $132 $55 #
cone-surface $-1 0 0 -0.84463789788506727 0 0 1 0.5 0 0 1 I I 0 1 0.5 forward I I I I #
face $-1 $133 $134 $44 $-1 $135 forward single #
loop $-1 $136 $137 $56 #
cone-surface $-1 0 0 -0.84463789788506727 0 0 1 0.5 0 0 1 I I 0 1 0.5 forward I I I I #
face $-1 $138 $139 $45 $-1 $140 reversed single #
loop $-1 $-1 $141 $57 #
plane-surface $-1 0 0 80.673848689230013 0 0 1 1 0 0 forward_v I I I I #
face $-1 $142 $143 $46 $-1 $144 forward single #
loop $-1 $145 $146 $58 #
cone-surface $-1 0 0 -1.1605960264900661 0 0 1 0.5 0 0 1 I I 0 1 0.5 forward I I I I #
face $-1 $147 $148 $47 $-1 $149 forward single #
loop $-1 $150 $151 $59 #
cone-surface $-1 0 0 -1.1605960264900661 0 0 1 0.5 0 0 1 I I 0 1 0.5 forward I I I I #
face $-1 $152 $153 $36 $-1 $154 reversed single #
loop $-1 $-1 $155 $60 #
plane-surface $-1 0 0 -5.4126268197305958 0 0 1 1 0 0 forward_v I I I I #
coedge $-1 $156 $157 $158 $159 forward $61 $-1 #
face $-1 $160 $161 $37 $-1 $162 reversed single #
loop $-1 $-1 $163 $63 #
plane-surface $-1 0 0 -80.673848689230013 0 0 1 1 0 0 forward_v I I I I #
coedge $-1 $164 $165 $166 $167 forward $64 $-1 #
face $-1 $-1 $168 $38 $-1 $169 forward single #
loop $-1 $-1 $170 $66 #
plane-surface $-1 0 0 -1.4392757957701345 0 0 -1 -1 0 0 forward_v I I I I #
loop $-1 $-1 $171 $50 #
coedge $-1 $108 $108 $170 $172 reversed $67 $-1 #
face $-1 $-1 $173 $39 $-1 $174 forward single #
loop $-1 $-1 $175 $69 #
plane-surface $-1 0 0 -1.4392757957701345 0 0 -1 -1 0 0 forward_v I I I I #
loop $-1 $-1 $176 $51 #
coedge $-1 $113 $113 $175 $177 reversed $70 $-1 #
face $-1 $-1 $178 $40 $-1 $179 forward single #
loop $-1 $-1 $180 $72 #
plane-surface $-1 0 0 -1.4392757957701345 0 0 -1 -1 0 0 forward_v I I I I #
loop $-1 $-1 $181 $52 #
coedge $-1 $118 $118 $180 $182 reversed $73 $-1 #
face $-1 $183 $184 $41 $-1 $185 reversed single #
loop $-1 $-1 $186 $75 #
plane-surface $-1 0 0 -80.673848689230013 0 0 1 1 0 0 forward_v I I I I #
coedge $-1 $187 $188 $189 $190 forward $76 $-1 #
face $-1 $-1 $191 $42 $-1 $192 forward single #
loop $-1 $-1 $193 $78 #
plane-surface $-1 0 0 -1.4392757957701345 0 0 -1 -1 0 0 forward_v I I I I #
loop $-1 $-1 $194 $54 #
coedge $-1 $127 $127 $193 $195 reversed $79 $-1 #
face $-1 $-1 $196 $43 $-1 $197 forward single #
loop $-1 $-1 $198 $81 #
plane-surface $-1 0 0 -1.4392757957701345 0 0 -1 -1 0 0 forward_v I I I I #
loop $-1 $-1 $199 $55 #
coedge $-1 $132 $132 $198 $200 reversed $82 $-1 #
face $-1 $-1 $201 $44 $-1 $202 forward single #
loop $-1 $-1 $203 $84 #
plane-surface $-1 0 0 -1.4392757957701345 0 0 -1 -1 0 0 forward_v I I I I #
loop $-1 $-1 $204 $56 #
coedge $-1 $137 $137 $203 $205 reversed $85 $-1 #
face $-1 $206 $207 $45 $-1 $208 reversed single #
loop $-1 $-1 $209 $87 #
plane-surface $-1 0 0 -80.673848689230013 0 0 1 1 0 0 forward_v I I I I #
coedge $-1 $210 $211 $212 $213 forward $88 $-1 #
face $-1 $-1 $214 $46 $-1 $215 forward single #
loop $-1 $-1 $216 $90 #
plane-surface $-1 0 0 -2.0711920529801322 0 0 -1 -1 0 0 forward_v I I I I #
loop $-1 $-1 $217 $58 #
coedge $-1 $146 $146 $216 $218 reversed $91 $-1 #
face $-1 $-1 $219 $47 $-1 $220 forward single #
loop $-1 $-1 $221 $93 #
plane-surface $-1 0 0 -2.0711920529801322 0 0 -1 -1 0 0 forward_v I I I I #
loop $-1 $-1 $222 $59 #
coedge $-1 $151 $151 $221 $223 reversed $94 $-1 #
face $-1 $224 $225 $36 $-1 $226 reversed single #
loop $-1 $-1 $227 $96 #
plane-surface $-1 0 -16.468623123333217 0 0 1 0 0 0 1 forward_v I I I I #
coedge $-1 $228 $229 $230 $231 forward $97 $-1 #
coedge $-1 $232 $99 $233 $234 forward $61 $-1 #
coedge $-1 $99 $232 $235 $236 forward $61 $-1 #
coedge $-1 $237 $238 $99 $159 reversed $239 $-1 #
edge $-1 $240 -16.468623123333217 $241 16.468623123333217 $158 $242 forward 7 unknown #
face $-1 $243 $244 $37 $-1 $245 reversed single #
loop $-1 $-1 $246 $100 #
plane-surface $-1 0 -3.3933075682147593 0 0 1 0 0 0 1 forward_v I I I I #
coedge $-1 $247 $248 $249 $250 forward $101 $-1 #
coedge $-1 $251 $103 $252 $253 forward $64 $-1 #
coedge $-1 $103 $251 $254 $255 forward $64 $-1 #
coedge $-1 $256 $257 $103 $167 reversed $258 $-1 #
edge $-1 $259 -3.3933075682147593 $260 3.3933075682147593 $166 $261 forward 7 unknown #
loop $-1 $262 $263 $104 #
cone-surface $-1 0 0 0 0 0 1 0.25 0 0 1 I I -0.70710678118654746 0.70710678118654746 0.25 forward I I I I #
coedge $-1 $170 $170 $108 $172 forward $105 $-1 #
coedge $-1 $171 $171 $263 $264 forward $107 $-1 #
edge $-1 $265 0 $265 6.2831853071796004 $170 $266 forward 7 unknown #
loop $-1 $267 $268 $109 #
cone-surface $-1 0 0 0 0 0 1 0.25 0 0 1 I I -0.70710678118654746 0.70710678118654746 0.25 forward I I I I #
coedge $-1 $175 $175 $113 $177 forward $110 $-1 #
coedge $-1 $176 $176 $268 $269 forward $112 $-1 #
edge $-1 $270 0 $270 6.2831853071796004 $175 $271 forward 7 unknown #
loop $-1 $272 $273 $114 #
cone-surface $-1 0 0 0 0 0 1 0.25 0 0 1 I I -0.70710678118654746 0.70710678118654746 0.25 forward I I I I #
coedge $-1 $180 $180 $118 $182 forward $115 $-1 #
coedge $-1 $181 $181 $273 $274 forward $117 $-1 #
edge $-1 $275 0 $275 6.2831853071796004 $180 $276 forward 7 unknown #
face $-1 $277 $278 $41 $-1 $279 reversed single #
loop $-1 $-1 $280 $119 #
plane-surface $-1 0 -3.3933075682147593 0 0 1 0 0 0 1 forward_v I I I I #
coedge $-1 $281 $282 $283 $284 forward $120 $-1 #
coedge $-1 $285 $122 $286 $287 forward $76 $-1 #
coedge $-1 $122 $285 $288 $289 forward $76 $-1 #
coedge $-1 $290 $291 $122 $190 reversed $292 $-1 #
edge $-1 $293 -3.3933075682147593 $294 3.3933075682147593 $189 $295 forward 7 unknown #
loop $-1 $296 $297 $123 #
cone-surface $-1 0 0 0 0 0 1 0.25 0 0 1 I I -0.70710678118654746 0.70710678118654746 0.25 forward I I I I #
coedge $-1 $193 $193 $127 $195 forward $124 $-1 #
coedge $-1 $194 $194 $297 $298 forward $126 $-1 #
edge $-1 $299 0 $299 6.2831853071796004 $193 $300 forward 7 unknown #
loop $-1 $301 $302 $128 #
cone-surface $-1 0 0 0 0 0 1 0.25 0 0 1 I I -0.70710678118654746 0.70710678118654746 0.25 forward I I I I #
coedge $-1 $198 $198 $132 $200 forward $129 $-1 #
coedge $-1 $199 $199 $302 $303 forward $131 $-1 #
edge $-1 $304 0 $304 6.2831853071796004 $198 $305 forward 7 unknown #
loop $-1 $306 $307 $133 #
cone-surface $-1 0 0 0 0 0 1 0.25 0 0 1 I I -0.70710678118654746 0.70710678118654746 0.25 forward I I I I #
coedge $-1 $203 $203 $137 $205 forward $134 $-1 #
coedge $-1 $204 $204 $307 $308 forward $136 $-1 #
edge $-1 $309 0 $309 6.2831853071796004 $203 $310 forward 7 unknown #
face $-1 $311 $312 $45 $-1 $313 reversed single #
loop $-1 $-1 $314 $138 #
plane-surface $-1 0 -3.0788269055191799 0 0 1 0 0 0 1 forward_v I I I I #
coedge $-1 $315 $316 $317 $318 forward $139 $-1 #
coedge $-1 $319 $141 $320 $321 forward $88 $-1 #
coedge $-1 $141 $319 $322 $323 forward $88 $-1 #
coedge $-1 $324 $325 $141 $213 reversed $326 $-1 #
edge $-1 $327 -3.0788269055191799 $328 3.0788269055191799 $212 $329 forward 7 unknown #
loop $-1 $330 $331 $142 #
cone-surface $-1 0 0 0 0 0 1 0.25 0 0 1 I I -0.70710678118654746 0.70710678118654746 0.25 forward I I I I #
coedge $-1 $216 $216 $146 $218 forward $143 $-1 #
coedge $-1 $217 $217 $331 $332 forward $145 $-1 #
edge $-1 $333 0 $333 6.2831853071796004 $216 $334 forward 7 unknown #
loop $-1 $335 $336 $147 #
cone-surface $-1 0 0 0 0 0 1 0.25 0 0 1 I I -0.70710678118654746 0.70710678118654746 0.25 forward I I I I #
coedge $-1 $221 $221 $151 $223 forward $148 $-1 #
coedge $-1 $222 $222 $336 $337 forward $150 $-1 #
edge $-1 $338 0 $338 6.2831853071796004 $221 $339 forward 7 unknown #
face $-1 $340 $341 $36 $-1 $342 reversed single #
loop $-1 $-1 $343 $152 #
plane-surface $-1 -40.336924344615007 0 0 1 0 0 0 0 -1 forward_v I I I I #
coedge $-1 $344 $235 $345 $346 forward $153 $-1 #
coedge $-1 $347 $155 $344 $348 forward $97 $-1 #
coedge $-1 $155 $347 $349 $350 forward $97 $-1 #
coedge $-1 $238 $237 $155 $231 reversed $239 $-1 #
edge $-1 $351 -16.468623123333217 $352 16.468623123333217 $230 $353 forward 7 unknown #
coedge $-1 $157 $156 $354 $355 forward $61 $-1 #
coedge $-1 $356 $357 $156 $234 reversed $341 $-1 #
edge $-1 $241 -40.336924344615007 $358 40.336924344615007 $233 $359 forward 7 unknown #
coedge $-1 $227 $360 $157 $236 reversed $153 $-1 #
edge $-1 $361 -40.336924344615007 $240 40.336924344615007 $235 $362 forward 7 unknown #
coedge $-1 $230 $158 $360 $363 forward $239 $-1 #
coedge $-1 $158 $230 $356 $364 reversed $239 $-1 #
loop $-1 $-1 $237 $340 #
vertex $-1 $159 $365 #
vertex $-1 $159 $366 #
straight-curve $-1 40.336924344615007 0 5.4126268197305958 0 1 0 I I #
face $-1 $367 $368 $37 $-1 $369 reversed single #
loop $-1 $-1 $370 $160 #
plane-surface $-1 -161.34769737846003 0 0 1 0 0 0 0 -1 forward_v I I I I #
coedge $-1 $371 $254 $372 $373 forward $161 $-1 #
coedge $-1 $374 $163 $371 $375 forward $101 $-1 #
coedge $-1 $163 $374 $376 $377 forward $101 $-1 #
coedge $-1 $257 $256 $163 $250 reversed $258 $-1 #
edge $-1 $378 -3.3933075682147593 $379 3.3933075682147593 $249 $380 forward 7 unknown #
coedge $-1 $165 $164 $381 $382 forward $64 $-1 #
coedge $-1 $383 $384 $164 $253 reversed $368 $-1 #
edge $-1 $260 -161.34769737846003 $385 161.34769737846003 $252 $386 forward 7 unknown #
coedge $-1 $246 $387 $165 $255 reversed $161 $-1 #
edge $-1 $388 -161.34769737846003 $259 161.34769737846003 $254 $389 forward 7 unknown #
coedge $-1 $249 $166 $387 $390 forward $258 $-1 #
coedge $-1 $166 $249 $383 $391 reversed $258 $-1 #
loop $-1 $-1 $256 $367 #
vertex $-1 $167 $392 #
vertex $-1 $167 $393 #
straight-curve $-1 161.34769737846003 0 80.673848689230013 0 1 0 I I #
loop $-1 $-1 $394 $104 #
coedge $-1 $263 $263 $171 $264 reversed $168 $-1 #
edge $-1 $395 0 $395 6.2831853071796004 $263 $396 forward 7 unknown #
vertex $-1 $172 $397 #
ellipse-curve $-1 0 0 -1.4392757957701345 0 0 -1 0.5 0 0 1 I I #
loop $-1 $-1 $398 $109 #
coedge $-1 $268 $268 $176 $269 reversed $173 $-1 #
edge $-1 $399 0 $399 6.2831853071796004 $268 $400 forward 7 unknown #
vertex $-1 $177 $401 #
ellipse-curve $-1 0 0 -1.4392757957701345 0 0 -1 0.5 0 0 1 I I #
loop $-1 $-1 $402 $114 #
coedge $-1 $273 $273 $181 $274 reversed $178 $-1 #
edge $-1 $403 0 $403 6.2831853071796004 $273 $404 forward 7 unknown #
vertex $-1 $182 $405 #
ellipse-curve $-1 0 0 -1.4392757957701345 0 0 -1 0.5 0 0 1 I I #
face $-1 $406 $407 $41 $-1 $408 reversed single #
loop $-1 $-1 $409 $183 #
plane-surface $-1 -161.34769737846003 0 0 1 0 0 0 0 -1 forward_v I I I I #
coedge $-1 $410 $288 $411 $412 forward $184 $-1 #
coedge $-1 $413 $186 $410 $414 forward $120 $-1 #
coedge $-1 $186 $413 $415 $416 forward $120 $-1 #
coedge $-1 $291 $290 $186 $284 reversed $292 $-1 #
edge $-1 $417 -3.3933075682147593 $418 3.3933075682147593 $283 $419 forward 7 unknown #
coedge $-1 $188 $187 $420 $421 forward $76 $-1 #
coedge $-1 $422 $423 $187 $287 reversed $407 $-1 #
edge $-1 $294 -161.34769737846003 $424 161.34769737846003 $286 $425 forward 7 unknown #
coedge $-1 $280 $426 $188 $289 reversed $184 $-1 #
edge $-1 $427 -161.34769737846003 $293 161.34769737846003 $288 $428 forward 7 unknown #
coedge $-1 $283 $189 $426 $429 forward $292 $-1 #
coedge $-1 $189 $283 $422 $430 reversed $292 $-1 #
loop $-1 $-1 $290 $406 #
vertex $-1 $190 $431 #
vertex $-1 $190 $432 #
straight-curve $-1 161.34769737846003 0 80.673848689230013 0 1 0 I I #
loop $-1 $-1 $433 $123 #
coedge $-1 $297 $297 $194 $298 reversed $191 $-1 #
edge $-1 $434 0 $434 6.2831853071796004 $297 $435 forward 7 unknown #
vertex $-1 $195 $436 #
ellipse-curve $-1 0 0 -1.4392757957701345 0 0 -1 0.5 0 0 1 I I #
loop $-1 $-1 $437 $128 #
coedge $-1 $302 $302 $199 $303 reversed $196 $-1 #
edge $-1 $438 0 $438 6.2831853071796004 $302 $439 forward 7 unknown #
vertex $-1 $200 $440 #
ellipse-curve $-1 0 0 -1.4392757957701345 0 0 -1 0.5 0 0 1 I I #
loop $-1 $-1 $441 $133 #
coedge $-1 $307 $307 $204 $308 reversed $201 $-1 #
edge $-1 $442 0 $442 6.2831853071796004 $307 $443 forward 7 unknown #
vertex $-1 $205 $444 #
ellipse-curve $-1 0 0 -1.4392757957701345 0 0 -1 0.5 0 0 1 I I #
face $-1 $445 $446 $45 $-1 $447 reversed single #
loop $-1 $-1 $448 $206 #
plane-surface $-1 -161.34769737846003 0 0 1 0 0 0 0 -1 forward_v I I I I #
coedge $-1 $449 $322 $450 $451 forward $207 $-1 #
coedge $-1 $452 $209 $449 $453 forward $139 $-1 #
coedge $-1 $209 $452 $454 $455 forward $139 $-1 #
coedge $-1 $325 $324 $209 $318 reversed $326 $-1 #
edge $-1 $456 -3.0788269055191799 $457 3.0788269055191799 $317 $458 forward 7 unknown #
coedge $-1 $211 $210 $459 $460 forward $88 $-1 #
coedge $-1 $461 $462 $210 $321 reversed $446 $-1 #
edge $-1 $328 -161.34769737846003 $463 161.34769737846003 $320 $464 forward 7 unknown #
coedge $-1 $314 $465 $211 $323 reversed $207 $-1 #
edge $-1 $466 -161.34769737846003 $327 161.34769737846003 $322 $467 forward 7 unknown #
coedge $-1 $317 $212 $465 $468 forward $326 $-1 #
coedge $-1 $212 $317 $461 $469 reversed $326 $-1 #
loop $-1 $-1 $324 $445 #
vertex $-1 $213 $470 #
vertex $-1 $213 $471 #
straight-curve $-1 161.34769737846003 0 80.673848689230013 0 1 0 I I #
loop $-1 $-1 $472 $142 #
coedge $-1 $331 $331 $217 $332 reversed $214 $-1 #
edge $-1 $473 0 $473 6.2831853071796004 $331 $474 forward 7 unknown #
vertex $-1 $218 $475 #
ellipse-curve $-1 0 0 -2.0711920529801322 0 0 -1 0.5 0 0 1 I I #
loop $-1 $-1 $476 $147 #
coedge $-1 $336 $336 $222 $337 reversed $219 $-1 #
edge $-1 $477 0 $477 6.2831853071796004 $336 $478 forward 7 unknown #
vertex $-1 $223 $479 #
ellipse-curve $-1 0 0 -2.0711920529801322 0 0 -1 0.5 0 0 1 I I #
face $-1 $-1 $239 $36 $-1 $480 reversed single #
loop $-1 $-1 $356 $224 #
plane-surface $-1 0 16.468623123333217 0 0 -1 0 0 0 -1 forward_v I I I I #
coedge $-1 $481 $354 $357 $482 forward $225 $-1 #
coedge $-1 $360 $227 $228 $348 reversed $153 $-1 #
coedge $-1 $354 $481 $227 $346 reversed $225 $-1 #
edge $-1 $361 -5.4126268197305958 $483 5.4126268197305958 $345 $484 forward 7 unknown #
coedge $-1 $229 $228 $481 $485 forward $97 $-1 #
edge $-1 $352 -40.336924344615007 $483 40.336924344615007 $344 $486 forward 7 unknown #
coedge $-1 $357 $356 $229 $350 reversed $341 $-1 #
edge $-1 $487 -40.336924344615007 $351 40.336924344615007 $349 $488 forward 7 unknown #
vertex $-1 $231 $489 #
vertex $-1 $363 $490 #
straight-curve $-1 40.336924344615007 0 -5.4126268197305958 0 -1 0 I I #
coedge $-1 $343 $345 $232 $355 reversed $225 $-1 #
edge $-1 $358 -16.468623123333217 $361 16.468623123333217 $354 $491 forward 7 unknown #
coedge $-1 $349 $233 $238 $364 forward $341 $-1 #
coedge $-1 $233 $349 $343 $482 reversed $341 $-1 #
vertex $-1 $234 $492 #
straight-curve $-1 0 16.468623123333217 5.4126268197305958 -1 0 0 I I #
coedge $-1 $235 $344 $237 $363 reversed $153 $-1 #
vertex $-1 $355 $493 #
straight-curve $-1 0 -16.468623123333217 5.4126268197305958 1 0 0 I I #
edge $-1 $240 -5.4126268197305958 $352 5.4126268197305958 $237 $494 forward 7 unknown #
edge $-1 $241 -5.4126268197305958 $351 5.4126268197305958 $238 $495 forward 7 unknown #
point $-1 40.336924344615007 -16.468623123333217 5.4126268197305958 #
point $-1 40.336924344615007 16.468623123333217 5.4126268197305958 #
face $-1 $-1 $258 $37 $-1 $496 reversed single #
loop $-1 $-1 $383 $243 #
plane-surface $-1 0 3.3933075682147593 0 0 -1 0 0 0 -1 forward_v I I I I #
coedge $-1 $497 $381 $384 $498 forward $244 $-1 #
coedge $-1 $387 $246 $247 $375 reversed $161 $-1 #
coedge $-1 $381 $497 $246 $373 reversed $244 $-1 #
edge $-1 $388 -80.673848689230013 $499 80.673848689230013 $372 $500 forward 7 unknown #
coedge $-1 $248 $247 $497 $501 forward $101 $-1 #
edge $-1 $379 -161.34769737846003 $499 161.34769737846003 $371 $502 forward 7 unknown #
coedge $-1 $384 $383 $248 $377 reversed $368 $-1 #
edge $-1 $503 -161.34769737846003 $378 161.34769737846003 $376 $504 forward 7 unknown #
vertex $-1 $250 $505 #
vertex $-1 $390 $506 #
straight-curve $-1 161.34769737846003 0 -80.673848689230013 0 -1 0 I I #
coedge $-1 $370 $372 $251 $382 reversed $244 $-1 #
edge $-1 $385 -3.3933075682147593 $388 3.3933075682147593 $381 $507 forward 7 unknown #
coedge $-1 $376 $252 $257 $391 forward $368 $-1 #
coedge $-1 $252 $376 $370 $498 reversed $368 $-1 #
vertex $-1 $253 $508 #
straight-curve $-1 0 3.3933075682147593 80.673848689230013 -1 0 0 I I #
coedge $-1 $254 $371 $256 $390 reversed $161 $-1 #
vertex $-1 $382 $509 #
straight-curve $-1 0 -3.3933075682147593 80.673848689230013 1 0 0 I I #
edge $-1 $259 -80.673848689230013 $379 80.673848689230013 $256 $510 forward 7 unknown #
edge $-1 $260 -80.673848689230013 $378 80.673848689230013 $257 $511 forward 7 unknown #
point $-1 161.34769737846003 -3.3933075682147593 80.673848689230013 #
point $-1 161.34769737846003 3.3933075682147593 80.673848689230013 #
coedge $-1 $394 $394 $-1 $512 reversed $262 $-1 #
vertex $-1 $264 $513 #
ellipse-curve $-1 0 0 -0.25 0 0 -1 0.5 0 0 1 I I #
point $-1 0.5 0 -1.4392757957701345 #
coedge $-1 $398 $398 $-1 $514 reversed $267 $-1 #
vertex $-1 $269 $515 #
ellipse-curve $-1 0 0 -0.25 0 0 -1 0.5 0 0 1 I I #
point $-1 0.5 0 -1.4392757957701345 #
coedge $-1 $402 $402 $-1 $516 reversed $272 $-1 #
vertex $-1 $274 $517 #
ellipse-curve $-1 0 0 -0.25 0 0 -1 0.5 0 0 1 I I #
point $-1 0.5 0 -1.4392757957701345 #
face $-1 $-1 $292 $41 $-1 $518 reversed single #
loop $-1 $-1 $422 $277 #
plane-surface $-1 0 3.3933075682147593 0 0 -1 0 0 0 -1 forward_v I I I I #
coedge $-1 $519 $420 $423 $520 forward $278 $-1 #
coedge $-1 $426 $280 $281 $414 reversed $184 $-1 #
coedge $-1 $420 $519 $280 $412 reversed $278 $-1 #
edge $-1 $427 -80.673848689230013 $521 80.673848689230013 $411 $522 forward 7 unknown #
coedge $-1 $282 $281 $519 $523 forward $120 $-1 #
edge $-1 $418 -161.34769737846003 $521 161.34769737846003 $410 $524 forward 7 unknown #
coedge $-1 $423 $422 $282 $416 reversed $407 $-1 #
edge $-1 $525 -161.34769737846003 $417 161.34769737846003 $415 $526 forward 7 unknown #
vertex $-1 $284 $527 #
vertex $-1 $429 $528 #
straight-curve $-1 161.34769737846003 0 -80.673848689230013 0 -1 0 I I #
coedge $-1 $409 $411 $285 $421 reversed $278 $-1 #
edge $-1 $424 -3.3933075682147593 $427 3.3933075682147593 $420 $529 forward 7 unknown #
coedge $-1 $415 $286 $291 $430 forward $407 $-1 #
coedge $-1 $286 $415 $409 $520 reversed $407 $-1 #
vertex $-1 $287 $530 #
straight-curve $-1 0 3.3933075682147593 80.673848689230013 -1 0 0 I I #
coedge $-1 $288 $410 $290 $429 reversed $184 $-1 #
vertex $-1 $421 $531 #
straight-curve $-1 0 -3.3933075682147593 80.673848689230013 1 0 0 I I #
edge $-1 $293 -80.673848689230013 $418 80.673848689230013 $290 $532 forward 7 unknown #
edge $-1 $294 -80.673848689230013 $417 80.673848689230013 $291 $533 forward 7 unknown #
point $-1 161.34769737846003 -3.3933075682147593 80.673848689230013 #
point $-1 161.34769737846003 3.3933075682147593 80.673848689230013 #
coedge $-1 $433 $433 $-1 $534 reversed $296 $-1 #
vertex $-1 $298 $535 #
ellipse-curve $-1 0 0 -0.25 0 0 -1 0.5 0 0 1 I I #
point $-1 0.5 0 -1.4392757957701345 #
coedge $-1 $437 $437 $-1 $536 reversed $301 $-1 #
vertex $-1 $303 $537 #
ellipse-curve $-1 0 0 -0.25 0 0 -1 0.5 0 0 1 I I #
point $-1 0.5 0 -1.4392757957701345 #
coedge $-1 $441 $441 $-1 $538 reversed $306 $-1 #
vertex $-1 $308 $539 #
ellipse-curve $-1 0 0 -0.25 0 0 -1 0.5 0 0 1 I I #
point $-1 0.5 0 -1.4392757957701345 #
face $-1 $-1 $326 $45 $-1 $540 reversed single #
loop $-1 $-1 $461 $311 #
plane-surface $-1 0 3.0788269055191799 0 0 -1 0 0 0 -1 forward_v I I I I #
coedge $-1 $541 $459 $462 $542 forward $312 $-1 #
coedge $-1 $465 $314 $315 $453 reversed $207 $-1 #
coedge $-1 $459 $541 $314 $451 reversed $312 $-1 #
edge $-1 $466 -80.673848689230013 $543 80.673848689230013 $450 $544 forward 7 unknown #
coedge $-1 $316 $315 $541 $545 forward $139 $-1 #
edge $-1 $457 -161.34769737846003 $543 161.34769737846003 $449 $546 forward 7 unknown #
coedge $-1 $462 $461 $316 $455 reversed $446 $-1 #
edge $-1 $547 -161.34769737846003 $456 161.34769737846003 $454 $548 forward 7 unknown #
vertex $-1 $318 $549 #
vertex $-1 $468 $550 #
straight-curve $-1 161.34769737846003 0 -80.673848689230013 0 -1 0 I I #
coedge $-1 $448 $450 $319 $460 reversed $312 $-1 #
edge $-1 $463 -3.0788269055191799 $466 3.0788269055191799 $459 $551 forward 7 unknown #
coedge $-1 $454 $320 $325 $469 forward $446 $-1 #
coedge $-1 $320 $454 $448 $542 reversed $446 $-1 #
vertex $-1 $321 $552 #
straight-curve $-1 0 3.0788269055191799 80.673848689230013 -1 0 0 I I #
coedge $-1 $322 $449 $324 $468 reversed $207 $-1 #
vertex $-1 $460 $553 #
straight-curve $-1 0 -3.0788269055191799 80.673848689230013 1 0 0 I I #
edge $-1 $327 -80.673848689230013 $457 80.673848689230013 $324 $554 forward 7 unknown #
edge $-1 $328 -80.673848689230013 $456 80.673848689230013 $325 $555 forward 7 unknown #
point $-1 161.34769737846003 -3.0788269055191799 80.673848689230013 #
point $-1 161.34769737846003 3.0788269055191799 80.673848689230013 #
coedge $-1 $472 $472 $-1 $556 reversed $330 $-1 #
vertex $-1 $332 $557 #
ellipse-curve $-1 0 0 -0.25 0 0 -1 0.5 0 0 1 I I #
point $-1 0.5 0 -2.0711920529801322 #
coedge $-1 $476 $476 $-1 $558 reversed $335 $-1 #
vertex $-1 $337 $559 #
ellipse-curve $-1 0 0 -0.25 0 0 -1 0.5 0 0 1 I I #
point $-1 0.5 0 -2.0711920529801322 #
plane-surface $-1 40.336924344615007 0 0 -1 0 0 0 0 1 forward_v I I I I #
coedge $-1 $345 $343 $347 $485 reversed $225 $-1 #
edge $-1 $358 -5.4126268197305958 $487 5.4126268197305958 $357 $560 forward 7 unknown #
vertex $-1 $485 $561 #
straight-curve $-1 -40.336924344615007 -16.468623123333217 0 0 0 -1 I I #
edge $-1 $483 -16.468623123333217 $487 16.468623123333217 $481 $562 forward 7 unknown #
straight-curve $-1 0 -16.468623123333217 -5.4126268197305958 -1 0 0 I I #
vertex $-1 $350 $563 #
straight-curve $-1 0 16.468623123333217 -5.4126268197305958 1 0 0 I I #
point $-1 40.336924344615007 16.468623123333217 -5.4126268197305958 #
point $-1 40.336924344615007 -16.468623123333217 -5.4126268197305958 #
straight-curve $-1 -40.336924344615007 0 5.4126268197305958 0 -1 0 I I #
point $-1 -40.336924344615007 16.468623123333217 5.4126268197305958 #
point $-1 -40.336924344615007 -16.468623123333217 5.4126268197305958 #
straight-curve $-1 40.336924344615007 -16.468623123333217 0 0 0 -1 I I #
straight-curve $-1 40.336924344615007 16.468623123333217 0 0 0 -1 I I #
plane-surface $-1 161.34769737846003 0 0 -1 0 0 0 0 1 forward_v I I I I #
coedge $-1 $372 $370 $374 $501 reversed $244 $-1 #
edge $-1 $385 -80.673848689230013 $503 80.673848689230013 $384 $564 forward 7 unknown #
vertex $-1 $501 $565 #
straight-curve $-1 -161.34769737846003 -3.3933075682147593 0 0 0 -1 I I #
edge $-1 $499 -3.3933075682147593 $503 3.3933075682147593 $497 $566 forward 7 unknown #
straight-curve $-1 0 -3.3933075682147593 -80.673848689230013 -1 0 0 I I #
vertex $-1 $377 $567 #
straight-curve $-1 0 3.3933075682147593 -80.673848689230013 1 0 0 I I #
point $-1 161.34769737846003 3.3933075682147593 -80.673848689230013 #
point $-1 161.34769737846003 -3.3933075682147593 -80.673848689230013 #
straight-curve $-1 -161.34769737846003 0 80.673848689230013 0 -1 0 I I #
point $-1 -161.34769737846003 3.3933075682147593 80.673848689230013 #
point $-1 -161.34769737846003 -3.3933075682147593 80.673848689230013 #
straight-curve $-1 161.34769737846003 -3.3933075682147593 0 0 0 -1 I I #
straight-curve $-1 161.34769737846003 3.3933075682147593 0 0 0 -1 I I #
edge $-1 $568 1 $568 0 $394 $-1 forward 7 unknown #
point $-1 0.5 0 -0.25 #
edge $-1 $569 1 $569 0 $398 $-1 forward 7 unknown #
point $-1 0.5 0 -0.25 #
edge $-1 $570 1 $570 0 $402 $-1 forward 7 unknown #
point $-1 0.5 0 -0.25 #
plane-surface $-1 161.34769737846003 0 0 -1 0 0 0 0 1 forward_v I I I I #
coedge $-1 $411 $409 $413 $523 reversed $278 $-1 #
edge $-1 $424 -80.673848689230013 $525 80.673848689230013 $423 $571 forward 7 unknown #
vertex $-1 $523 $572 #
straight-curve $-1 -161.34769737846003 -3.3933075682147593 0 0 0 -1 I I #
edge $-1 $521 -3.3933075682147593 $525 3.3933075682147593 $519 $573 forward 7 unknown #
straight-curve $-1 0 -3.3933075682147593 -80.673848689230013 -1 0 0 I I #
vertex $-1 $416 $574 #
straight-curve $-1 0 3.3933075682147593 -80.673848689230013 1 0 0 I I #
point $-1 161.34769737846003 3.3933075682147593 -80.673848689230013 #
point $-1 161.34769737846003 -3.3933075682147593 -80.673848689230013 #
straight-curve $-1 -161.34769737846003 0 80.673848689230013 0 -1 0 I I #
point $-1 -161.34769737846003 3.3933075682147593 80.673848689230013 #
point $-1 -161.34769737846003 -3.3933075682147593 80.673848689230013 #
straight-curve $-1 161.34769737846003 -3.3933075682147593 0 0 0 -1 I I #
straight-curve $-1 161.34769737846003 3.3933075682147593 0 0 0 -1 I I #
edge $-1 $575 1 $575 0 $433 $-1 forward 7 unknown #
point $-1 0.5 0 -0.25 #
edge $-1 $576 1 $576 0 $437 $-1 forward 7 unknown #
point $-1 0.5 0 -0.25 #
edge $-1 $577 1 $577 0 $441 $-1 forward 7 unknown #
point $-1 0.5 0 -0.25 #
plane-surface $-1 161.34769737846003 0 0 -1 0 0 0 0 1 forward_v I I I I #
coedge $-1 $450 $448 $452 $545 reversed $312 $-1 #
edge $-1 $463 -80.673848689230013 $547 80.673848689230013 $462 $578 forward 7 unknown #
vertex $-1 $545 $579 #
straight-curve $-1 -161.34769737846003 -3.0788269055191799 0 0 0 -1 I I #
edge $-1 $543 -3.0788269055191799 $547 3.0788269055191799 $541 $580 forward 7 unknown #
straight-curve $-1 0 -3.0788269055191799 -80.673848689230013 -1 0 0 I I #
vertex $-1 $455 $581 #
straight-curve $-1 0 3.0788269055191799 -80.673848689230013 1 0 0 I I #
point $-1 161.34769737846003 3.0788269055191799 -80.673848689230013 #
point $-1 161.34769737846003 -3.0788269055191799 -80.673848689230013 #
straight-curve $-1 -161.34769737846003 0 80.673848689230013 0 -1 0 I I #
point $-1 -161.34769737846003 3.0788269055191799 80.673848689230013 #
point $-1 -161.34769737846003 -3.0788269055191799 80.673848689230013 #
straight-curve $-1 161.34769737846003 -3.0788269055191799 0 0 0 -1 I I #
straight-curve $-1 161.34769737846003 3.0788269055191799 0 0 0 -1 I I #
edge $-1 $582 1 $582 0 $472 $-1 forward 7 unknown #
point $-1 0.5 0 -0.25 #
edge $-1 $583 1 $583 0 $476 $-1 forward 7 unknown #
point $-1 0.5 0 -0.25 #
straight-curve $-1 -40.336924344615007 16.468623123333217 0 0 0 -1 I I #
point $-1 -40.336924344615007 -16.468623123333217 -5.4126268197305958 #
straight-curve $-1 -40.336924344615007 0 -5.4126268197305958 0 1 0 I I #
point $-1 -40.336924344615007 16.468623123333217 -5.4126268197305958 #
straight-curve $-1 -161.34769737846003 3.3933075682147593 0 0 0 -1 I I #
point $-1 -161.34769737846003 -3.3933075682147593 -80.673848689230013 #
straight-curve $-1 -161.34769737846003 0 -80.673848689230013 0 1 0 I I #
point $-1 -161.34769737846003 3.3933075682147593 -80.673848689230013 #
vertex $-1 $512 $584 #
vertex $-1 $514 $585 #
vertex $-1 $516 $586 #
straight-curve $-1 -161.34769737846003 3.3933075682147593 0 0 0 -1 I I #
point $-1 -161.34769737846003 -3.3933075682147593 -80.673848689230013 #
straight-curve $-1 -161.34769737846003 0 -80.673848689230013 0 1 0 I I #
point $-1 -161.34769737846003 3.3933075682147593 -80.673848689230013 #
vertex $-1 $534 $587 #
vertex $-1 $536 $588 #
vertex $-1 $538 $589 #
straight-curve $-1 -161.34769737846003 3.0788269055191799 0 0 0 -1 I I #
point $-1 -161.34769737846003 -3.0788269055191799 -80.673848689230013 #
straight-curve $-1 -161.34769737846003 0 -80.673848689230013 0 1 0 I I #
point $-1 -161.34769737846003 3.0788269055191799 -80.673848689230013 #
vertex $-1 $556 $590 #
vertex $-1 $558 $591 #
point $-1 0 0 0.25 #
point $-1 0 0 0.25 #
point $-1 0 0 0.25 #
point $-1 0 0 0.25 #
point $-1 0 0 0.25 #
point $-1 0 0 0.25 #
point $-1 0 0 0.25 #
point $-1 0 0 0.25 #
End-of-ACIS-data 