500 0 13 0           
7 Unknown 11 ACIS 5.0 NT 24 Fri Mar 26 00:40:33 1999 
-1 9.9999999999999995e-007 1e-010 
body $-1 $13 $-1 $14 #
body $-1 $15 $-1 $16 #
body $-1 $17 $-1 $18 #
body $-1 $19 $-1 $20 #
body $-1 $21 $-1 $22 #
body $-1 $23 $-1 $24 #
body $-1 $25 $-1 $26 #
body $-1 $27 $-1 $28 #
body $-1 $29 $-1 $30 #
body $-1 $31 $-1 $32 #
body $-1 $33 $-1 $34 #
body $-1 $35 $-1 $36 #
body $-1 $37 $-1 $38 #
lump $-1 $-1 $39 $0 #
transform $-1 1 0 0 0 1 0 0 0 1 50.30549027985473 34.707671738478709 9.2876149206367042 1 rotate no_reflect no_shear #
lump $-1 $-1 $40 $1 #
transform $-1 1 0 0 0 1 0 0 0 1 50.30549027985473 34.707671738478709 9.2876149206367042 1 rotate no_reflect no_shear #
lump $-1 $-1 $41 $2 #
transform $-1 1 0 0 0 1 0 0 0 1 50.30549027985473 34.707671738478709 9.2876149206367042 1 rotate no_reflect no_shear #
lump $-1 $-1 $42 $3 #
transform $-1 1 0 0 0 1 0 0 0 1 50.30549027985473 34.707671738478709 9.2876149206367042 1 rotate no_reflect no_shear #
lump $-1 $-1 $43 $4 #
transform $-1 1 0 0 0 1 0 0 0 1 50.30549027985473 34.707671738478709 9.2876149206367042 1 rotate no_reflect no_shear #
lump $-1 $-1 $44 $5 #
transform $-1 1 0 0 0 1 0 0 0 1 50.30549027985473 34.707671738478709 9.2876149206367042 1 rotate no_reflect no_shear #
lump $-1 $-1 $45 $6 #
transform $-1 1 0 0 0 1 0 0 0 1 50.30549027985473 34.707671738478709 9.2876149206367042 1 rotate no_reflect no_shear #
lump $-1 $-1 $46 $7 #
transform $-1 1 0 0 0 1 0 0 0 1 50.30549027985473 34.707671738478709 9.2876149206367042 1 rotate no_reflect no_shear #
lump $-1 $-1 $47 $8 #
transform $-1 1 0 0 0 1 0 0 0 1 50.30549027985473 34.707671738478709 9.2876149206367042 1 rotate no_reflect no_shear #
lump $-1 $-1 $48 $9 #
transform $-1 1 0 0 0 1 0 0 0 1 50.30549027985473 34.707671738478709 9.2876149206367042 1 rotate no_reflect no_shear #
lump $-1 $-1 $49 $10 #
transform $-1 1 0 0 0 1 0 0 0 1 50.30549027985473 34.707671738478709 9.2876149206367042 1 rotate no_reflect no_shear #
lump $-1 $-1 $50 $11 #
transform $-1 1 0 0 0 1 0 0 0 1 50.30549027985473 34.707671738478709 9.2876149206367042 1 rotate no_reflect no_shear #
lump $-1 $-1 $51 $12 #
transform $-1 1 0 0 0 1 0 0 0 1 50.30549027985473 34.707671738478709 9.2876149206367042 1 rotate no_reflect no_shear #
shell $-1 $-1 $-1 $52 $-1 $13 #
shell $-1 $-1 $-1 $53 $-1 $15 #
shell $-1 $-1 $-1 $54 $-1 $17 #
shell $-1 $-1 $-1 $55 $-1 $19 #
shell $-1 $-1 $-1 $56 $-1 $21 #
shell $-1 $-1 $-1 $57 $-1 $23 #
shell $-1 $-1 $-1 $58 $-1 $25 #
shell $-1 $-1 $-1 $59 $-1 $27 #
shell $-1 $-1 $-1 $60 $-1 $29 #
shell $-1 $-1 $-1 $61 $-1 $31 #
shell $-1 $-1 $-1 $62 $-1 $33 #
shell $-1 $-1 $-1 $63 $-1 $35 #
shell $-1 $-1 $-1 $64 $-1 $37 #
face $-1 $65 $66 $39 $-1 $67 forward single #
face $-1 $68 $69 $40 $-1 $70 reversed single #
face $-1 $71 $72 $41 $-1 $73 reversed single #
face $-1 $74 $75 $42 $-1 $76 reversed single #
face $-1 $77 $78 $43 $-1 $79 forward single #
face $-1 $80 $81 $44 $-1 $82 reversed single #
face $-1 $83 $84 $45 $-1 $85 forward single #
face $-1 $86 $87 $46 $-1 $88 forward single #
face $-1 $89 $90 $47 $-1 $91 forward single #
face $-1 $92 $93 $48 $-1 $94 reversed single #
face $-1 $95 $96 $49 $-1 $97 forward single #
face $-1 $98 $99 $50 $-1 $100 forward single #
face $-1 $101 $102 $51 $-1 $103 forward single #
face $-1 $104 $105 $39 $-1 $106 reversed single #
loop $-1 $-1 $107 $52 #
plane-surface $-1 0 0 9.2876149206367042 0 0 1 1 0 0 forward_v I I I I #
face $-1 $108 $109 $40 $-1 $110 reversed single #
loop $-1 $-1 $111 $53 #
plane-surface $-1 -45.811432040242295 0 6.2876149206367042 0 0 1 1 0 0 forward_v I I I I #
face $-1 $112 $113 $41 $-1 $114 reversed single #
loop $-1 $-1 $115 $54 #
plane-surface $-1 46.567020485889991 0 6.2876149206367042 0 0 1 1 0 0 forward_v I I I I #
face $-1 $116 $117 $42 $-1 $118 reversed single #
loop $-1 $-1 $119 $55 #
plane-surface $-1 -23.761282357513885 35.554040014564123 124.44720136445171 1 0 0 0 -0.57357644374324357 -0.81915203911291934 forward_v I I I I #
face $-1 $120 $121 $43 $-1 $122 forward single #
loop $-1 $123 $124 $56 #
cone-surface $-1 -14.450326648145264 28.184415289901494 3.6470255291279066 0 -0.57357644374324357 -0.81915203911291934 2.5 0 0 1 I I 0 1 2.5 forward I I I I #
face $-1 $125 $126 $44 $-1 $127 reversed single #
loop $-1 $-1 $128 $57 #
plane-surface $-1 -3.6827840067188262 -118.11795564641939 57.95724067403011 -1 0 0 0 -0.82903758062907751 0.55919289150049634 forward_v I I I I #
face $-1 $129 $130 $45 $-1 $131 forward single #
loop $-1 $132 $133 $58 #
cone-surface $-1 -10.999039351403709 -31.62187056224122 5.1374359468873338 0 0.82903758062907751 -0.55919289150049634 0.5 0 0 1 I I 0 1 0.5 forward I I I I #
face $-1 $134 $135 $46 $-1 $136 forward single #
loop $-1 $137 $138 $59 #
cone-surface $-1 -8.2554435971468791 -31.62187056224122 5.1374359468873338 0 0.82903758062907751 -0.55919289150049634 0.5 0 0 1 I I 0 1 0.5 forward I I I I #
face $-1 $139 $140 $47 $-1 $141 forward single #
loop $-1 $142 $143 $60 #
cone-surface $-1 -5.5118478428900488 -31.62187056224122 5.1374359468873338 0 0.82903758062907751 -0.55919289150049634 0.5 0 0 1 I I 0 1 0.5 forward I I I I #
face $-1 $144 $145 $48 $-1 $146 reversed single #
loop $-1 $-1 $147 $61 #
plane-surface $-1 38.390178239558722 -118.11795564641939 57.95724067403011 -1 0 0 0 -0.82903758062907751 0.55919289150049634 forward_v I I I I #
face $-1 $148 $149 $49 $-1 $150 forward single #
loop $-1 $151 $152 $62 #
cone-surface $-1 31.073922894873839 -31.62187056224122 5.1374359468873338 0 0.82903758062907751 -0.55919289150049634 0.5 0 0 1 I I 0 1 0.5 forward I I I I #
face $-1 $153 $154 $50 $-1 $155 forward single #
loop $-1 $156 $157 $63 #
cone-surface $-1 33.817518649130669 -31.62187056224122 5.1374359468873338 0 0.82903758062907751 -0.55919289150049634 0.5 0 0 1 I I 0 1 0.5 forward I I I I #
face $-1 $158 $159 $51 $-1 $160 forward single #
loop $-1 $161 $162 $64 #
cone-surface $-1 36.561114403387499 -31.62187056224122 5.1374359468873338 0 0.82903758062907751 -0.55919289150049634 0.5 0 0 1 I I 0 1 0.5 forward I I I I #
face $-1 $163 $164 $39 $-1 $165 reversed single #
loop $-1 $-1 $166 $65 #
plane-surface $-1 0 0 -9.2876149206367042 0 0 1 1 0 0 forward_v I I I I #
coedge $-1 $167 $168 $169 $170 forward $66 $-1 #
face $-1 $171 $172 $40 $-1 $173 reversed single #
loop $-1 $-1 $174 $68 #
plane-surface $-1 -41.317373800629859 0 7.7876149206367042 -1 0 0 0 0 1 forward_v I I I I #
coedge $-1 $175 $176 $177 $178 forward $69 $-1 #
face $-1 $179 $180 $41 $-1 $181 forward single #
loop $-1 $-1 $182 $71 #
plane-surface $-1 42.828550691925251 0 7.7876149206367042 1 0 0 0 0 -1 forward_v I I I I #
coedge $-1 $183 $184 $185 $186 reversed $72 $-1 #
face $-1 $187 $188 $42 $-1 $189 reversed single #
loop $-1 $-1 $190 $74 #
plane-surface $-1 -14.450326648145264 -22.154048416394645 42.031511481815429 0 0.57357644374324357 0.81915203911291934 1 0 0 forward_v I I I I #
coedge $-1 $191 $192 $193 $194 reversed $75 $-1 #
face $-1 $-1 $195 $43 $-1 $196 forward single #
loop $-1 $197 $198 $77 #
cone-surface $-1 -14.450326648145264 25.993483509756416 0.51805073450310779 0 -0.57357644374324357 -0.81915203911291934 1.25 0 0 1 I I -0.70710678118654746 0.70710678118654746 1.25 forward I I I I #
loop $-1 $-1 $199 $56 #
coedge $-1 $124 $124 $200 $201 reversed $78 $-1 #
face $-1 $202 $203 $44 $-1 $204 reversed single #
loop $-1 $-1 $205 $80 #
plane-surface $-1 -8.2554435971468791 -34.707671738478695 1.6962955381459466 0 -0.82903758062907751 0.55919289150049634 1 0 0 forward_v I I I I #
coedge $-1 $206 $207 $208 $209 reversed $81 $-1 #
face $-1 $-1 $210 $45 $-1 $211 forward single #
loop $-1 $212 $213 $83 #
cone-surface $-1 -10.999039351403709 -30.889014699888502 4.6431184415082143 0 0.82903758062907751 -0.55919289150049634 0.25 0 0 1 I I -0.70710678118654746 0.70710678118654746 0.25 forward I I I I #
loop $-1 $-1 $214 $58 #
coedge $-1 $133 $133 $215 $216 reversed $84 $-1 #
face $-1 $-1 $217 $46 $-1 $218 forward single #
loop $-1 $219 $220 $86 #
cone-surface $-1 -8.2554435971468791 -30.889014699888502 4.6431184415082143 0 0.82903758062907751 -0.55919289150049634 0.25 0 0 1 I I -0.70710678118654746 0.70710678118654746 0.25 forward I I I I #
loop $-1 $-1 $221 $59 #
coedge $-1 $138 $138 $222 $223 reversed $87 $-1 #
face $-1 $-1 $224 $47 $-1 $225 forward single #
loop $-1 $226 $227 $89 #
cone-surface $-1 -5.5118478428900488 -30.889014699888502 4.6431184415082143 0 0.82903758062907751 -0.55919289150049634 0.25 0 0 1 I I -0.70710678118654746 0.70710678118654746 0.25 forward I I I I #
loop $-1 $-1 $228 $60 #
coedge $-1 $143 $143 $229 $230 reversed $90 $-1 #
face $-1 $231 $232 $48 $-1 $233 reversed single #
loop $-1 $-1 $234 $92 #
plane-surface $-1 33.817518649130669 -34.707671738478695 1.6962955381459466 0 -0.82903758062907751 0.55919289150049634 1 0 0 forward_v I I I I #
coedge $-1 $235 $236 $237 $238 reversed $93 $-1 #
face $-1 $-1 $239 $49 $-1 $240 forward single #
loop $-1 $241 $242 $95 #
cone-surface $-1 31.073922894873839 -30.889014699888502 4.6431184415082143 0 0.82903758062907751 -0.55919289150049634 0.25 0 0 1 I I -0.70710678118654746 0.70710678118654746 0.25 forward I I I I #
loop $-1 $-1 $243 $62 #
coedge $-1 $152 $152 $244 $245 reversed $96 $-1 #
face $-1 $-1 $246 $50 $-1 $247 forward single #
loop $-1 $248 $249 $98 #
cone-surface $-1 33.817518649130669 -30.889014699888502 4.6431184415082143 0 0.82903758062907751 -0.55919289150049634 0.25 0 0 1 I I -0.70710678118654746 0.70710678118654746 0.25 forward I I I I #
loop $-1 $-1 $250 $63 #
coedge $-1 $157 $157 $251 $252 reversed $99 $-1 #
face $-1 $-1 $253 $51 $-1 $254 forward single #
loop $-1 $255 $256 $101 #
cone-surface $-1 36.561114403387499 -30.889014699888502 4.6431184415082143 0 0.82903758062907751 -0.55919289150049634 0.25 0 0 1 I I -0.70710678118654746 0.70710678118654746 0.25 forward I I I I #
loop $-1 $-1 $257 $64 #
coedge $-1 $162 $162 $258 $259 reversed $102 $-1 #
face $-1 $260 $261 $39 $-1 $262 reversed single #
loop $-1 $-1 $263 $104 #
plane-surface $-1 0 -34.707671738478709 0 0 1 0 0 0 1 forward_v I I I I #
coedge $-1 $264 $265 $266 $267 forward $105 $-1 #
coedge $-1 $268 $107 $269 $270 forward $66 $-1 #
coedge $-1 $107 $268 $271 $272 forward $66 $-1 #
coedge $-1 $273 $274 $107 $170 reversed $275 $-1 #
edge $-1 $276 -34.707671738478709 $277 34.707671738478709 $169 $278 forward 7 unknown #
face $-1 $279 $280 $40 $-1 $281 reversed single #
loop $-1 $-1 $282 $108 #
plane-surface $-1 0 34.707671738478709 0 0 -1 0 0 0 -1 forward_v I I I I #
coedge $-1 $177 $283 $284 $285 reversed $109 $-1 #
coedge $-1 $286 $111 $287 $288 reversed $69 $-1 #
coedge $-1 $111 $286 $289 $290 reversed $69 $-1 #
coedge $-1 $291 $174 $111 $178 reversed $109 $-1 #
edge $-1 $292 -34.707671738478709 $293 34.707671738478709 $177 $294 forward 7 unknown #
face $-1 $295 $296 $41 $-1 $297 reversed single #
loop $-1 $-1 $298 $112 #
plane-surface $-1 0 0 9.2876149206367042 0 0 1 1 0 0 forward_v I I I I #
coedge $-1 $299 $300 $301 $302 reversed $113 $-1 #
coedge $-1 $303 $115 $304 $305 reversed $72 $-1 #
coedge $-1 $115 $303 $306 $307 reversed $72 $-1 #
coedge $-1 $308 $309 $115 $186 forward $310 $-1 #
edge $-1 $311 -34.707671738478709 $312 34.707671738478709 $185 $313 forward 7 unknown #
face $-1 $314 $315 $42 $-1 $316 reversed single #
loop $-1 $-1 $317 $116 #
plane-surface $-1 -5.1393709387766418 35.554040014564123 124.44720136445171 -1 0 0 0 0.57357644374324357 0.81915203911291934 forward_v I I I I #
coedge $-1 $318 $319 $320 $321 reversed $117 $-1 #
coedge $-1 $192 $119 $322 $323 reversed $75 $-1 #
coedge $-1 $119 $191 $318 $324 reversed $75 $-1 #
coedge $-1 $320 $325 $119 $194 forward $326 $-1 #
edge $-1 $327 -16.930651731196647 $328 -6.8320612849742872 $193 $329 forward 7 unknown #
loop $-1 $-1 $200 $120 #
plane-surface $-1 -14.450326648145264 -22.154048416394645 42.031511481815429 0 0.57357644374324357 0.81915203911291934 1 0 0 forward_v I I I I #
loop $-1 $-1 $330 $77 #
coedge $-1 $198 $198 $199 $331 reversed $121 $-1 #
coedge $-1 $199 $199 $198 $331 forward $123 $-1 #
coedge $-1 $200 $200 $124 $201 forward $195 $-1 #
edge $-1 $332 -8.431764444668718e-016 $332 6.2831853071795996 $200 $333 forward 7 unknown #
face $-1 $334 $335 $44 $-1 $336 forward single #
loop $-1 $-1 $337 $125 #
plane-surface $-1 -12.828103187574932 -118.11795564641939 57.95724067403011 1 0 0 0 0.82903758062907751 -0.55919289150049634 forward_v I I I I #
coedge $-1 $338 $339 $340 $341 reversed $126 $-1 #
coedge $-1 $207 $128 $342 $343 reversed $81 $-1 #
coedge $-1 $128 $206 $338 $344 reversed $81 $-1 #
coedge $-1 $340 $345 $128 $209 forward $335 $-1 #
edge $-1 $346 24.351306084730986 $347 29.47171550281508 $208 $348 forward 7 unknown #
loop $-1 $-1 $215 $129 #
plane-surface $-1 -8.2554435971468791 -34.707671738478695 1.6962955381459466 0 -0.82903758062907751 0.55919289150049634 1 0 0 forward_v I I I I #
loop $-1 $-1 $349 $83 #
coedge $-1 $213 $213 $214 $350 reversed $130 $-1 #
coedge $-1 $214 $214 $213 $350 forward $132 $-1 #
coedge $-1 $215 $215 $133 $216 forward $210 $-1 #
edge $-1 $351 -1.1665521130715569e-015 $351 6.2831853071795996 $215 $352 forward 7 unknown #
loop $-1 $-1 $222 $134 #
plane-surface $-1 -8.2554435971468791 -34.707671738478695 1.6962955381459466 0 -0.82903758062907751 0.55919289150049634 1 0 0 forward_v I I I I #
loop $-1 $-1 $353 $86 #
coedge $-1 $220 $220 $221 $354 reversed $135 $-1 #
coedge $-1 $221 $221 $220 $354 forward $137 $-1 #
coedge $-1 $222 $222 $138 $223 forward $217 $-1 #
edge $-1 $355 -1.1665521130715569e-015 $355 6.2831853071795996 $222 $356 forward 7 unknown #
loop $-1 $-1 $229 $139 #
plane-surface $-1 -8.2554435971468791 -34.707671738478695 1.6962955381459466 0 -0.82903758062907751 0.55919289150049634 1 0 0 forward_v I I I I #
loop $-1 $-1 $357 $89 #
coedge $-1 $227 $227 $228 $358 reversed $140 $-1 #
coedge $-1 $228 $228 $227 $358 forward $142 $-1 #
coedge $-1 $229 $229 $143 $230 forward $224 $-1 #
edge $-1 $359 -1.1665521130715569e-015 $359 6.2831853071795996 $229 $360 forward 7 unknown #
face $-1 $361 $362 $48 $-1 $363 reversed single #
loop $-1 $-1 $364 $144 #
plane-surface $-1 29.244859058702616 -118.11795564641939 57.95724067403011 1 0 0 0 0.82903758062907751 -0.55919289150049634 forward_v I I I I #
coedge $-1 $365 $366 $367 $368 reversed $145 $-1 #
coedge $-1 $236 $147 $369 $370 reversed $93 $-1 #
coedge $-1 $147 $235 $365 $371 reversed $93 $-1 #
coedge $-1 $367 $372 $147 $238 forward $373 $-1 #
edge $-1 $374 24.351306084730986 $375 29.47171550281508 $237 $376 forward 7 unknown #
loop $-1 $-1 $244 $148 #
plane-surface $-1 33.817518649130669 -34.707671738478695 1.6962955381459466 0 -0.82903758062907751 0.55919289150049634 1 0 0 forward_v I I I I #
loop $-1 $-1 $377 $95 #
coedge $-1 $242 $242 $243 $378 reversed $149 $-1 #
coedge $-1 $243 $243 $242 $378 forward $151 $-1 #
coedge $-1 $244 $244 $152 $245 forward $239 $-1 #
edge $-1 $379 -1.1665521130715569e-015 $379 6.2831853071795996 $244 $380 forward 7 unknown #
loop $-1 $-1 $251 $153 #
plane-surface $-1 33.817518649130669 -34.707671738478695 1.6962955381459466 0 -0.82903758062907751 0.55919289150049634 1 0 0 forward_v I I I I #
loop $-1 $-1 $381 $98 #
coedge $-1 $249 $249 $250 $382 reversed $154 $-1 #
coedge $-1 $250 $250 $249 $382 forward $156 $-1 #
coedge $-1 $251 $251 $157 $252 forward $246 $-1 #
edge $-1 $383 -1.1665521130715569e-015 $383 6.2831853071795996 $251 $384 forward 7 unknown #
loop $-1 $-1 $258 $158 #
plane-surface $-1 33.817518649130669 -34.707671738478695 1.6962955381459466 0 -0.82903758062907751 0.55919289150049634 1 0 0 forward_v I I I I #
loop $-1 $-1 $385 $101 #
coedge $-1 $256 $256 $257 $386 reversed $159 $-1 #
coedge $-1 $257 $257 $256 $386 forward $161 $-1 #
coedge $-1 $258 $258 $162 $259 forward $253 $-1 #
edge $-1 $387 -1.1665521130715569e-015 $387 6.2831853071795996 $258 $388 forward 7 unknown #
face $-1 $389 $390 $39 $-1 $391 reversed single #
loop $-1 $-1 $392 $163 #
plane-surface $-1 -50.30549027985473 0 0 1 0 0 0 0 -1 forward_v I I I I #
coedge $-1 $393 $271 $394 $395 forward $164 $-1 #
coedge $-1 $396 $166 $393 $397 forward $105 $-1 #
coedge $-1 $166 $396 $398 $399 forward $105 $-1 #
coedge $-1 $274 $273 $166 $267 reversed $275 $-1 #
edge $-1 $400 -34.707671738478709 $401 34.707671738478709 $266 $402 forward 7 unknown #
coedge $-1 $168 $167 $403 $404 forward $66 $-1 #
coedge $-1 $405 $406 $167 $270 reversed $390 $-1 #
edge $-1 $277 -50.30549027985473 $407 50.30549027985473 $269 $408 forward 7 unknown #
coedge $-1 $263 $409 $168 $272 reversed $164 $-1 #
edge $-1 $410 -50.30549027985473 $276 50.30549027985473 $271 $411 forward 7 unknown #
coedge $-1 $266 $169 $409 $412 forward $275 $-1 #
coedge $-1 $169 $266 $405 $413 reversed $275 $-1 #
loop $-1 $-1 $273 $389 #
vertex $-1 $170 $414 #
vertex $-1 $170 $415 #
straight-curve $-1 50.30549027985473 0 9.2876149206367042 0 1 0 I I #
face $-1 $416 $417 $40 $-1 $418 forward single #
loop $-1 $-1 $419 $171 #
plane-surface $-1 -50.30549027985473 0 0 1 0 0 0 0 -1 forward_v I I I I #
coedge $-1 $289 $420 $291 $421 forward $172 $-1 #
coedge $-1 $174 $291 $422 $423 reversed $109 $-1 #
coedge $-1 $424 $287 $174 $285 forward $425 $-1 #
edge $-1 $293 2.3938074603183521 $426 5.3938074603183521 $284 $427 forward 7 unknown #
coedge $-1 $176 $175 $419 $428 reversed $69 $-1 #
coedge $-1 $284 $429 $175 $288 forward $425 $-1 #
edge $-1 $430 -27.399774259733583 $293 -18.411657780508712 $287 $431 forward 7 unknown #
coedge $-1 $432 $282 $176 $290 forward $172 $-1 #
edge $-1 $292 18.411657780508712 $433 27.399774259733583 $289 $434 forward 7 unknown #
coedge $-1 $283 $177 $282 $421 reversed $109 $-1 #
vertex $-1 $290 $435 #
vertex $-1 $288 $436 #
straight-curve $-1 -41.317373800629859 0 6.2876149206367042 0 -1 0 I I #
face $-1 $437 $438 $41 $-1 $439 reversed single #
loop $-1 $-1 $440 $179 #
plane-surface $-1 0 -34.707671738478709 0 0 1 0 0 0 1 forward_v I I I I #
coedge $-1 $441 $442 $300 $443 forward $180 $-1 #
coedge $-1 $444 $182 $303 $445 reversed $113 $-1 #
coedge $-1 $182 $444 $298 $443 reversed $113 $-1 #
coedge $-1 $446 $306 $182 $302 forward $438 $-1 #
edge $-1 $447 2.3938074603183521 $448 5.3938074603183521 $301 $449 forward 7 unknown #
coedge $-1 $184 $183 $299 $445 forward $72 $-1 #
coedge $-1 $450 $440 $183 $305 forward $296 $-1 #
edge $-1 $451 19.545040448980256 $311 27.021980036909735 $304 $452 forward 7 unknown #
coedge $-1 $301 $453 $184 $307 forward $438 $-1 #
edge $-1 $312 -27.021980036909735 $447 -19.545040448980256 $306 $454 forward 7 unknown #
coedge $-1 $455 $185 $453 $456 reversed $310 $-1 #
coedge $-1 $185 $455 $450 $457 forward $310 $-1 #
loop $-1 $-1 $185 $437 #
vertex $-1 $305 $458 #
vertex $-1 $186 $459 #
straight-curve $-1 50.30549027985473 0 6.2876149206367042 0 1 0 I I #
face $-1 $-1 $326 $42 $-1 $460 forward single #
loop $-1 $-1 $461 $187 #
plane-surface $-1 0 34.707671738478709 0 0 -1 0 0 0 -1 forward_v I I I I #
coedge $-1 $462 $463 $464 $465 reversed $188 $-1 #
coedge $-1 $466 $190 $192 $324 forward $117 $-1 #
coedge $-1 $190 $466 $462 $467 forward $117 $-1 #
coedge $-1 $464 $193 $190 $321 forward $326 $-1 #
edge $-1 $328 -16.536119033441253 $468 2.0857923852959903 $320 $469 forward 7 unknown #
coedge $-1 $470 $471 $191 $323 forward $315 $-1 #
edge $-1 $472 -60.007095053139423 $327 -52.935985761589151 $322 $473 forward 7 unknown #
edge $-1 $328 57.087240800000913 $472 69.415343476957418 $192 $474 forward 7 unknown #
coedge $-1 $193 $464 $470 $475 forward $326 $-1 #
loop $-1 $-1 $464 $314 #
vertex $-1 $323 $476 #
vertex $-1 $194 $477 #
straight-curve $-1 -23.761282357513885 17.777020007282061 9.287614920636706 0 -1 0 I I #
coedge $-1 $330 $330 $-1 $478 reversed $197 $-1 #
edge $-1 $479 0 $479 6.2831853071796004 $198 $480 forward 7 unknown #
vertex $-1 $201 $481 #
ellipse-curve $-1 -14.450326648145264 29.658376515367525 5.7520602748615683 0 0.57357644374324357 0.81915203911291934 2.5 0 0 1 I I #
face $-1 $-1 $482 $44 $-1 $483 reversed single #
loop $-1 $-1 $208 $202 #
plane-surface $-1 0 0 9.2876149206367042 0 0 1 1 0 0 forward_v I I I I #
coedge $-1 $484 $485 $486 $487 reversed $203 $-1 #
coedge $-1 $488 $205 $207 $344 forward $126 $-1 #
coedge $-1 $205 $488 $484 $489 forward $126 $-1 #
coedge $-1 $486 $208 $205 $341 forward $335 $-1 #
edge $-1 $347 -0.44493779185461335 $490 8.7003813890014925 $340 $491 forward 7 unknown #
coedge $-1 $492 $493 $206 $343 forward $482 $-1 #
edge $-1 $494 -27.28232479886913 $346 -19.691005416378353 $342 $495 forward 7 unknown #
edge $-1 $347 -9.1567856028075703 $494 2.5434524534472062e-014 $207 $496 forward 7 unknown #
coedge $-1 $208 $486 $492 $497 forward $335 $-1 #
vertex $-1 $343 $498 #
vertex $-1 $209 $499 #
straight-curve $-1 -3.6827840067188262 -59.058977823209695 9.287614920636706 0 1 0 I I #
coedge $-1 $349 $349 $-1 $500 reversed $212 $-1 #
edge $-1 $501 0 $501 6.2831853071796004 $213 $502 forward 7 unknown #
vertex $-1 $216 $503 #
ellipse-curve $-1 -10.999039351403709 -32.147467029436655 5.491955229391321 0 -0.82903758062907751 0.55919289150049634 0.5 0 0 1 I I #
coedge $-1 $353 $353 $-1 $504 reversed $219 $-1 #
edge $-1 $505 0 $505 6.2831853071796004 $220 $506 forward 7 unknown #
vertex $-1 $223 $507 #
ellipse-curve $-1 -8.2554435971468791 -32.147467029436655 5.491955229391321 0 -0.82903758062907751 0.55919289150049634 0.5 0 0 1 I I #
coedge $-1 $357 $357 $-1 $508 reversed $226 $-1 #
edge $-1 $509 0 $509 6.2831853071796004 $227 $510 forward 7 unknown #
vertex $-1 $230 $511 #
ellipse-curve $-1 -5.5118478428900488 -32.147467029436655 5.491955229391321 0 -0.82903758062907751 0.55919289150049634 0.5 0 0 1 I I #
face $-1 $-1 $373 $48 $-1 $512 forward single #
loop $-1 $-1 $513 $231 #
plane-surface $-1 0 -34.707671738478709 0 0 1 0 0 0 1 forward_v I I I I #
coedge $-1 $514 $515 $516 $517 reversed $232 $-1 #
coedge $-1 $518 $234 $236 $371 forward $145 $-1 #
coedge $-1 $234 $518 $514 $519 forward $145 $-1 #
coedge $-1 $516 $237 $234 $368 forward $373 $-1 #
edge $-1 $375 -21.481418914993387 $520 -12.336099734137282 $367 $521 forward 7 unknown #
coedge $-1 $522 $523 $235 $370 forward $362 $-1 #
edge $-1 $524 -27.28232479886913 $374 -19.691005416378353 $369 $525 forward 7 unknown #
edge $-1 $375 -9.1567856028075703 $524 2.5434524534472062e-014 $236 $526 forward 7 unknown #
coedge $-1 $237 $516 $522 $527 forward $373 $-1 #
loop $-1 $-1 $516 $361 #
vertex $-1 $370 $528 #
vertex $-1 $238 $529 #
straight-curve $-1 38.390178239558722 -59.058977823209695 9.287614920636706 0 1 0 I I #
coedge $-1 $377 $377 $-1 $530 reversed $241 $-1 #
edge $-1 $531 0 $531 6.2831853071796004 $242 $532 forward 7 unknown #
vertex $-1 $245 $533 #
ellipse-curve $-1 31.073922894873839 -32.147467029436655 5.491955229391321 0 -0.82903758062907751 0.55919289150049634 0.5 0 0 1 I I #
coedge $-1 $381 $381 $-1 $534 reversed $248 $-1 #
edge $-1 $535 0 $535 6.2831853071796004 $249 $536 forward 7 unknown #
vertex $-1 $252 $537 #
ellipse-curve $-1 33.817518649130669 -32.147467029436655 5.491955229391321 0 -0.82903758062907751 0.55919289150049634 0.5 0 0 1 I I #
coedge $-1 $385 $385 $-1 $538 reversed $255 $-1 #
edge $-1 $539 0 $539 6.2831853071796004 $256 $540 forward 7 unknown #
vertex $-1 $259 $541 #
ellipse-curve $-1 36.561114403387499 -32.147467029436655 5.491955229391321 0 -0.82903758062907751 0.55919289150049634 0.5 0 0 1 I I #
face $-1 $-1 $275 $39 $-1 $542 reversed single #
loop $-1 $-1 $405 $260 #
plane-surface $-1 0 34.707671738478709 0 0 -1 0 0 0 -1 forward_v I I I I #
coedge $-1 $543 $403 $406 $544 forward $261 $-1 #
coedge $-1 $409 $263 $264 $397 reversed $164 $-1 #
coedge $-1 $403 $543 $263 $395 reversed $261 $-1 #
edge $-1 $410 -9.2876149206367042 $545 9.2876149206367042 $394 $546 forward 7 unknown #
coedge $-1 $265 $264 $543 $547 forward $105 $-1 #
edge $-1 $401 -50.30549027985473 $545 50.30549027985473 $393 $548 forward 7 unknown #
coedge $-1 $406 $405 $265 $399 reversed $390 $-1 #
edge $-1 $549 -50.30549027985473 $400 50.30549027985473 $398 $550 forward 7 unknown #
vertex $-1 $267 $551 #
vertex $-1 $412 $552 #
straight-curve $-1 50.30549027985473 0 -9.2876149206367042 0 -1 0 I I #
coedge $-1 $392 $394 $268 $404 reversed $261 $-1 #
edge $-1 $407 -34.707671738478709 $410 34.707671738478709 $403 $553 forward 7 unknown #
coedge $-1 $398 $269 $274 $413 forward $390 $-1 #
coedge $-1 $269 $398 $392 $544 reversed $390 $-1 #
vertex $-1 $270 $554 #
straight-curve $-1 0 34.707671738478709 9.2876149206367042 -1 0 0 I I #
coedge $-1 $271 $393 $273 $412 reversed $164 $-1 #
vertex $-1 $404 $555 #
straight-curve $-1 0 -34.707671738478709 9.2876149206367042 1 0 0 I I #
edge $-1 $276 -9.2876149206367042 $401 9.2876149206367042 $273 $556 forward 7 unknown #
edge $-1 $277 -9.2876149206367042 $400 9.2876149206367042 $274 $557 forward 7 unknown #
point $-1 50.30549027985473 -34.707671738478709 9.2876149206367042 #
point $-1 50.30549027985473 34.707671738478709 9.2876149206367042 #
face $-1 $-1 $425 $40 $-1 $558 reversed single #
loop $-1 $-1 $422 $279 #
plane-surface $-1 0 0 9.2876149206367042 0 0 1 1 0 0 forward_v I I I I #
coedge $-1 $559 $560 $286 $428 forward $280 $-1 #
coedge $-1 $282 $432 $561 $562 reversed $172 $-1 #
edge $-1 $563 -5.3938074603183521 $292 -2.3938074603183521 $282 $564 forward 7 unknown #
coedge $-1 $561 $565 $283 $423 forward $417 $-1 #
edge $-1 $426 -34.707671738478709 $563 34.707671738478709 $422 $566 forward 7 unknown #
coedge $-1 $429 $284 $565 $567 reversed $425 $-1 #
loop $-1 $-1 $284 $416 #
vertex $-1 $285 $568 #
straight-curve $-1 -41.317373800629859 -34.707671738478709 3.8938074603183521 0 0 1 I I #
edge $-1 $433 -34.707671738478709 $430 34.707671738478709 $419 $569 forward 7 unknown #
coedge $-1 $287 $424 $559 $570 forward $425 $-1 #
vertex $-1 $428 $571 #
straight-curve $-1 -22.905716020121147 -34.707671738478709 6.2876149206367042 1 0 0 I I #
coedge $-1 $420 $289 $560 $572 reversed $172 $-1 #
vertex $-1 $428 $573 #
straight-curve $-1 -22.905716020121147 34.707671738478709 6.2876149206367042 -1 0 0 I I #
point $-1 -41.317373800629859 34.707671738478709 6.2876149206367042 #
point $-1 -41.317373800629859 -34.707671738478709 6.2876149206367042 #
face $-1 $-1 $310 $41 $-1 $574 reversed single #
loop $-1 $-1 $301 $295 #
plane-surface $-1 0 34.707671738478709 0 0 -1 0 0 0 -1 forward_v I I I I #
coedge $-1 $304 $575 $444 $576 forward $296 $-1 #
coedge $-1 $577 $298 $575 $578 forward $180 $-1 #
coedge $-1 $298 $577 $446 $579 forward $180 $-1 #
edge $-1 $448 -34.707671738478709 $580 34.707671738478709 $298 $581 forward 7 unknown #
coedge $-1 $300 $299 $440 $576 reversed $113 $-1 #
edge $-1 $451 -34.707671738478709 $447 34.707671738478709 $299 $582 forward 7 unknown #
coedge $-1 $453 $301 $442 $579 reversed $438 $-1 #
vertex $-1 $307 $583 #
vertex $-1 $302 $584 #
straight-curve $-1 42.828550691925251 34.707671738478709 3.8938074603183521 0 0 1 I I #
coedge $-1 $575 $304 $309 $457 reversed $296 $-1 #
vertex $-1 $305 $585 #
straight-curve $-1 23.283510242944995 -34.707671738478709 6.2876149206367042 1 0 0 I I #
coedge $-1 $306 $446 $308 $456 forward $438 $-1 #
straight-curve $-1 23.283510242944995 34.707671738478709 6.2876149206367042 -1 0 0 I I #
coedge $-1 $309 $308 $577 $586 reversed $310 $-1 #
edge $-1 $587 -9.2876149206367042 $312 -6.2876149206367042 $308 $588 forward 7 unknown #
edge $-1 $589 -9.2876149206367042 $311 -6.2876149206367042 $309 $590 forward 7 unknown #
point $-1 50.30549027985473 -34.707671738478709 6.2876149206367042 #
point $-1 50.30549027985473 34.707671738478709 6.2876149206367042 #
plane-surface $-1 0 0 9.2876149206367042 0 0 1 1 0 0 forward_v I I I I #
coedge $-1 $471 $470 $463 $591 forward $315 $-1 #
coedge $-1 $463 $317 $319 $467 reversed $188 $-1 #
coedge $-1 $317 $462 $461 $591 reversed $188 $-1 #
coedge $-1 $325 $320 $317 $465 forward $326 $-1 #
edge $-1 $468 6.8320612849742872 $592 16.930651731196647 $464 $593 forward 7 unknown #
coedge $-1 $319 $318 $471 $594 reversed $117 $-1 #
edge $-1 $595 -69.415343476957418 $468 -57.087240800000913 $462 $596 forward 7 unknown #
vertex $-1 $321 $597 #
straight-curve $-1 -7.2251633240726321 24.609081292256349 9.2876149206367096 1 0 0 I I #
coedge $-1 $461 $322 $325 $475 reversed $315 $-1 #
coedge $-1 $322 $461 $466 $594 forward $315 $-1 #
vertex $-1 $323 $598 #
straight-curve $-1 -23.761282357513885 34.707671738478709 62.223600682225857 0 0 1 I I #
straight-curve $-1 -23.761282357513885 -22.154048416394645 42.031511481815429 0 0.81915203911291934 -0.57357644374324357 I I #
edge $-1 $592 5.1393709387766418 $327 23.761282357513885 $470 $599 forward 7 unknown #
point $-1 -23.761282357513885 34.707671738478709 9.2876149206367042 #
point $-1 -23.761282357513885 24.609081292256349 9.287614920636706 #
edge $-1 $600 1 $600 0 $330 $-1 forward 7 unknown #
vertex $-1 $331 $601 #
ellipse-curve $-1 -14.450326648145264 26.710454064435471 1.541990783394257 0 0.57357644374324357 0.81915203911291934 2.5 0 0 1 I I #
point $-1 -11.950326648145264 29.658376515367515 5.7520602748615568 #
loop $-1 $-1 $342 $334 #
plane-surface $-1 0 -34.707671738478709 0 0 1 0 0 0 1 forward_v I I I I #
coedge $-1 $485 $337 $339 $489 reversed $203 $-1 #
coedge $-1 $337 $484 $602 $603 reversed $203 $-1 #
coedge $-1 $345 $340 $337 $487 forward $335 $-1 #
edge $-1 $490 -29.47171550281508 $604 -24.351306084730986 $486 $605 forward 7 unknown #
coedge $-1 $339 $338 $493 $606 reversed $126 $-1 #
edge $-1 $607 -2.5434524534472062e-014 $490 9.1567856028075703 $484 $608 forward 7 unknown #
vertex $-1 $341 $609 #
straight-curve $-1 -4.1277217985734396 -29.587262320394615 9.2876149206367042 -1 0 0 I I #
coedge $-1 $602 $342 $345 $497 reversed $482 $-1 #
coedge $-1 $342 $602 $488 $606 forward $482 $-1 #
vertex $-1 $343 $610 #
straight-curve $-1 -3.6827840067188262 -34.707671738478709 28.978620337015055 0 0 1 I I #
straight-curve $-1 -3.6827840067188262 -34.707671738478695 1.6962955381459466 0 -0.55919289150049634 -0.82903758062907751 I I #
edge $-1 $604 -12.828103187574932 $346 -3.6827840067188262 $492 $611 forward 7 unknown #
point $-1 -3.6827840067188262 -34.707671738478709 9.2876149206367042 #
point $-1 -3.6827840067188262 -29.587262320394615 9.2876149206367025 #
edge $-1 $612 1 $612 0 $349 $-1 forward 7 unknown #
vertex $-1 $350 $613 #
ellipse-curve $-1 -10.999039351403709 -31.096274095045771 4.7829166643833387 0 -0.82903758062907751 0.55919289150049634 0.5 0 0 1 I I #
point $-1 -10.499039351403709 -32.147467029436669 5.4919552293913299 #
edge $-1 $614 1 $614 0 $353 $-1 forward 7 unknown #
vertex $-1 $354 $615 #
ellipse-curve $-1 -8.2554435971468791 -31.096274095045771 4.7829166643833387 0 -0.82903758062907751 0.55919289150049634 0.5 0 0 1 I I #
point $-1 -7.7554435971468791 -32.147467029436669 5.4919552293913299 #
edge $-1 $616 1 $616 0 $357 $-1 forward 7 unknown #
vertex $-1 $358 $617 #
ellipse-curve $-1 -5.5118478428900488 -31.096274095045771 4.7829166643833387 0 -0.82903758062907751 0.55919289150049634 0.5 0 0 1 I I #
point $-1 -5.0118478428900488 -32.147467029436669 5.4919552293913299 #
plane-surface $-1 0 0 9.2876149206367042 0 0 1 1 0 0 forward_v I I I I #
coedge $-1 $523 $522 $515 $618 forward $362 $-1 #
coedge $-1 $515 $364 $366 $519 reversed $232 $-1 #
coedge $-1 $364 $514 $513 $618 reversed $232 $-1 #
coedge $-1 $372 $367 $364 $517 forward $373 $-1 #
edge $-1 $520 -29.47171550281508 $619 -24.351306084730986 $516 $620 forward 7 unknown #
coedge $-1 $366 $365 $523 $621 reversed $145 $-1 #
edge $-1 $622 -2.5434524534472062e-014 $520 9.1567856028075703 $514 $623 forward 7 unknown #
vertex $-1 $368 $624 #
straight-curve $-1 16.908759324565334 -29.587262320394615 9.2876149206367042 -1 0 0 I I #
coedge $-1 $513 $369 $372 $527 reversed $362 $-1 #
coedge $-1 $369 $513 $518 $621 forward $362 $-1 #
vertex $-1 $370 $625 #
straight-curve $-1 38.390178239558722 -34.707671738478709 28.978620337015055 0 0 1 I I #
straight-curve $-1 38.390178239558722 -34.707671738478695 1.6962955381459466 0 -0.55919289150049634 -0.82903758062907751 I I #
edge $-1 $619 29.244859058702616 $374 38.390178239558722 $522 $626 forward 7 unknown #
point $-1 38.390178239558722 -34.707671738478709 9.2876149206367042 #
point $-1 38.390178239558722 -29.587262320394615 9.2876149206367025 #
edge $-1 $627 1 $627 0 $377 $-1 forward 7 unknown #
vertex $-1 $378 $628 #
ellipse-curve $-1 31.073922894873839 -31.096274095045771 4.7829166643833387 0 -0.82903758062907751 0.55919289150049634 0.5 0 0 1 I I #
point $-1 31.573922894873839 -32.147467029436669 5.4919552293913299 #
edge $-1 $629 1 $629 0 $381 $-1 forward 7 unknown #
vertex $-1 $382 $630 #
ellipse-curve $-1 33.817518649130669 -31.096274095045771 4.7829166643833387 0 -0.82903758062907751 0.55919289150049634 0.5 0 0 1 I I #
point $-1 34.317518649130669 -32.147467029436669 5.4919552293913299 #
edge $-1 $631 1 $631 0 $385 $-1 forward 7 unknown #
vertex $-1 $386 $632 #
ellipse-curve $-1 36.561114403387499 -31.096274095045771 4.7829166643833387 0 -0.82903758062907751 0.55919289150049634 0.5 0 0 1 I I #
point $-1 37.061114403387499 -32.147467029436669 5.4919552293913299 #
plane-surface $-1 50.30549027985473 0 0 -1 0 0 0 0 1 forward_v I I I I #
coedge $-1 $394 $392 $396 $547 reversed $261 $-1 #
edge $-1 $407 -9.2876149206367042 $549 9.2876149206367042 $406 $633 forward 7 unknown #
vertex $-1 $547 $634 #
straight-curve $-1 -50.30549027985473 -34.707671738478709 0 0 0 -1 I I #
edge $-1 $545 -34.707671738478709 $549 34.707671738478709 $543 $635 forward 7 unknown #
straight-curve $-1 0 -34.707671738478709 -9.2876149206367042 -1 0 0 I I #
vertex $-1 $399 $636 #
straight-curve $-1 0 34.707671738478709 -9.2876149206367042 1 0 0 I I #
point $-1 50.30549027985473 34.707671738478709 -9.2876149206367042 #
point $-1 50.30549027985473 -34.707671738478709 -9.2876149206367042 #
straight-curve $-1 -50.30549027985473 0 9.2876149206367042 0 -1 0 I I #
point $-1 -50.30549027985473 34.707671738478709 9.2876149206367042 #
point $-1 -50.30549027985473 -34.707671738478709 9.2876149206367042 #
straight-curve $-1 50.30549027985473 -34.707671738478709 0 0 0 -1 I I #
straight-curve $-1 50.30549027985473 34.707671738478709 0 0 0 -1 I I #
plane-surface $-1 0 -34.707671738478709 0 0 1 0 0 0 1 forward_v I I I I #
coedge $-1 $637 $419 $429 $570 reversed $280 $-1 #
coedge $-1 $419 $637 $432 $572 forward $280 $-1 #
coedge $-1 $638 $422 $420 $562 forward $417 $-1 #
edge $-1 $563 41.317373800629859 $639 50.30549027985473 $420 $640 forward 7 unknown #
vertex $-1 $562 $641 #
straight-curve $-1 -41.317373800629859 34.707671738478709 3.8938074603183521 0 0 -1 I I #
coedge $-1 $422 $638 $424 $567 forward $417 $-1 #
straight-curve $-1 -41.317373800629859 0 9.2876149206367042 0 1 0 I I #
edge $-1 $642 -50.30549027985473 $426 -41.317373800629859 $424 $643 forward 7 unknown #
point $-1 -41.317373800629859 -34.707671738478709 9.2876149206367042 #
straight-curve $-1 -50.30549027985473 0 6.2876149206367042 0 -1 0 I I #
edge $-1 $642 -9.2876149206367042 $430 -6.2876149206367042 $559 $644 forward 7 unknown #
point $-1 -50.30549027985473 -34.707671738478709 6.2876149206367042 #
edge $-1 $639 -9.2876149206367042 $433 -6.2876149206367042 $432 $645 forward 7 unknown #
point $-1 -50.30549027985473 34.707671738478709 6.2876149206367042 #
plane-surface $-1 50.30549027985473 0 0 -1 0 0 0 0 1 forward_v I I I I #
coedge $-1 $440 $450 $441 $578 reversed $296 $-1 #
edge $-1 $580 -5.3938074603183521 $451 -2.3938074603183521 $440 $646 forward 7 unknown #
coedge $-1 $442 $441 $455 $586 forward $180 $-1 #
edge $-1 $580 42.828550691925251 $589 50.30549027985473 $575 $647 forward 7 unknown #
edge $-1 $587 -50.30549027985473 $448 -42.828550691925251 $446 $648 forward 7 unknown #
vertex $-1 $578 $649 #
straight-curve $-1 42.828550691925251 0 9.2876149206367042 0 -1 0 I I #
straight-curve $-1 42.828550691925251 0 6.2876149206367042 0 1 0 I I #
point $-1 42.828550691925251 34.707671738478709 6.2876149206367042 #
point $-1 42.828550691925251 34.707671738478709 9.2876149206367042 #
point $-1 42.828550691925251 -34.707671738478709 6.2876149206367042 #
edge $-1 $589 -34.707671738478709 $587 34.707671738478709 $455 $650 forward 7 unknown #
vertex $-1 $586 $651 #
straight-curve $-1 50.30549027985473 34.707671738478709 0 0 0 -1 I I #
vertex $-1 $586 $652 #
straight-curve $-1 50.30549027985473 -34.707671738478709 0 0 0 -1 I I #
edge $-1 $592 52.935985761589151 $595 60.007095053139423 $461 $653 forward 7 unknown #
vertex $-1 $475 $654 #
straight-curve $-1 -5.1393709387766418 17.777020007282061 9.287614920636706 0 1 0 I I #
edge $-1 $595 -2.0857923852959903 $472 16.536119033441253 $471 $655 forward 7 unknown #
vertex $-1 $594 $656 #
straight-curve $-1 -5.1393709387766418 -22.154048416394645 42.031511481815429 0 -0.81915203911291934 0.57357644374324357 I I #
point $-1 -5.1393709387766418 24.609081292256349 9.287614920636706 #
point $-1 -23.761282357513885 34.707671738478709 2.2165056290864342 #
straight-curve $-1 0 34.707671738478709 9.2876149206367042 -1 0 0 I I #
vertex $-1 $478 $657 #
point $-1 -11.950326648145264 26.710454064435471 1.541990783394257 #
coedge $-1 $493 $492 $485 $603 forward $482 $-1 #
edge $-1 $604 19.691005416378353 $607 27.28232479886913 $602 $658 forward 7 unknown #
vertex $-1 $497 $659 #
straight-curve $-1 -12.828103187574932 -59.058977823209695 9.287614920636706 0 -1 0 I I #
edge $-1 $607 -8.7003813890014925 $494 0.44493779185461335 $493 $660 forward 7 unknown #
vertex $-1 $606 $661 #
straight-curve $-1 -12.828103187574932 -34.707671738478695 1.6962955381459466 0 0.55919289150049634 0.82903758062907751 I I #
point $-1 -12.828103187574932 -29.587262320394615 9.2876149206367025 #
point $-1 -3.6827840067188262 -34.707671738478709 1.6962955381459255 #
straight-curve $-1 0 -34.707671738478709 9.2876149206367042 1 0 0 I I #
vertex $-1 $500 $662 #
point $-1 -10.499039351403709 -31.096274095045771 4.7829166643833387 #
vertex $-1 $504 $663 #
point $-1 -7.7554435971468791 -31.096274095045771 4.7829166643833387 #
vertex $-1 $508 $664 #
point $-1 -5.0118478428900488 -31.096274095045771 4.7829166643833387 #
edge $-1 $619 19.691005416378353 $622 27.28232479886913 $513 $665 forward 7 unknown #
vertex $-1 $527 $666 #
straight-curve $-1 29.244859058702616 -59.058977823209695 9.287614920636706 0 -1 0 I I #
edge $-1 $622 12.336099734137282 $524 21.481418914993387 $523 $667 forward 7 unknown #
vertex $-1 $621 $668 #
straight-curve $-1 29.244859058702616 -34.707671738478695 1.6962955381459466 0 0.55919289150049634 0.82903758062907751 I I #
point $-1 29.244859058702616 -29.587262320394615 9.2876149206367025 #
point $-1 38.390178239558722 -34.707671738478709 1.6962955381459255 #
straight-curve $-1 0 -34.707671738478709 9.2876149206367042 1 0 0 I I #
vertex $-1 $530 $669 #
point $-1 31.573922894873839 -31.096274095045771 4.7829166643833387 #
vertex $-1 $534 $670 #
point $-1 34.317518649130669 -31.096274095045771 4.7829166643833387 #
vertex $-1 $538 $671 #
point $-1 37.061114403387499 -31.096274095045771 4.7829166643833387 #
straight-curve $-1 -50.30549027985473 34.707671738478709 0 0 0 -1 I I #
point $-1 -50.30549027985473 -34.707671738478709 -9.2876149206367042 #
straight-curve $-1 -50.30549027985473 0 -9.2876149206367042 0 1 0 I I #
point $-1 -50.30549027985473 34.707671738478709 -9.2876149206367042 #
coedge $-1 $560 $559 $638 $672 reversed $280 $-1 #
coedge $-1 $565 $561 $637 $672 forward $417 $-1 #
vertex $-1 $562 $673 #
straight-curve $-1 0 34.707671738478709 9.2876149206367042 -1 0 0 I I #
point $-1 -41.317373800629859 34.707671738478709 9.2876149206367042 #
vertex $-1 $672 $674 #
straight-curve $-1 0 -34.707671738478709 9.2876149206367042 1 0 0 I I #
straight-curve $-1 -50.30549027985473 -34.707671738478709 0 0 0 -1 I I #
straight-curve $-1 -50.30549027985473 34.707671738478709 0 0 0 -1 I I #
straight-curve $-1 42.828550691925251 -34.707671738478709 3.8938074603183521 0 0 -1 I I #
straight-curve $-1 0 -34.707671738478709 9.2876149206367042 1 0 0 I I #
straight-curve $-1 0 34.707671738478709 9.2876149206367042 -1 0 0 I I #
point $-1 42.828550691925251 -34.707671738478709 9.2876149206367042 #
straight-curve $-1 50.30549027985473 0 9.2876149206367042 0 1 0 I I #
point $-1 50.30549027985473 34.707671738478709 9.2876149206367042 #
point $-1 50.30549027985473 -34.707671738478709 9.2876149206367042 #
straight-curve $-1 -5.1393709387766418 34.707671738478709 62.223600682225857 0 0 -1 I I #
point $-1 -5.1393709387766418 34.707671738478709 9.2876149206367042 #
straight-curve $-1 -7.2251633240726321 34.707671738478709 2.2165056290864307 -1 0 0 I I #
point $-1 -5.1393709387766418 34.707671738478709 2.2165056290864342 #
point $-1 -14.450326648145264 25.276512955077362 -0.50588931438804141 #
straight-curve $-1 -12.828103187574932 -34.707671738478709 28.978620337015055 0 0 -1 I I #
point $-1 -12.828103187574932 -34.707671738478709 9.2876149206367042 #
straight-curve $-1 -4.1277217985734396 -34.707671738478709 1.6962955381459262 1 0 0 I I #
point $-1 -12.828103187574932 -34.707671738478709 1.6962955381459255 #
point $-1 -10.999039351403709 -30.681755304731233 4.5033202186330898 #
point $-1 -8.2554435971468791 -30.681755304731233 4.5033202186330898 #
point $-1 -5.5118478428900488 -30.681755304731233 4.5033202186330898 #
straight-curve $-1 29.244859058702616 -34.707671738478709 28.978620337015055 0 0 -1 I I #
point $-1 29.244859058702616 -34.707671738478709 9.2876149206367042 #
straight-curve $-1 16.908759324565334 -34.707671738478709 1.6962955381459262 1 0 0 I I #
point $-1 29.244859058702616 -34.707671738478709 1.6962955381459255 #
point $-1 31.073922894873839 -30.681755304731233 4.5033202186330898 #
point $-1 33.817518649130669 -30.681755304731233 4.5033202186330898 #
point $-1 36.561114403387499 -30.681755304731233 4.5033202186330898 #
edge $-1 $639 -34.707671738478709 $642 34.707671738478709 $637 $675 forward 7 unknown #
point $-1 -50.30549027985473 34.707671738478709 9.2876149206367042 #
point $-1 -50.30549027985473 -34.707671738478709 9.2876149206367042 #
straight-curve $-1 -50.30549027985473 0 9.2876149206367042 0 -1 0 I I #
End-of-ACIS-data 