500 0 6 0           
7 Unknown 11 ACIS 5.0 NT 24 Fri Mar 26 15:17:34 1999 
-1 9.9999999999999995e-007 1e-010 
body $-1 $6 $-1 $7 #
body $-1 $8 $-1 $9 #
body $-1 $10 $-1 $11 #
body $-1 $12 $-1 $13 #
body $-1 $14 $-1 $15 #
body $-1 $16 $-1 $17 #
lump $-1 $-1 $18 $0 #
transform $-1 1 0 0 0 1 0 0 0 1 57.256385998107852 25.976544518810734 8.2740134125301612 1 rotate no_reflect no_shear #
lump $-1 $-1 $19 $1 #
transform $-1 1 0 0 0 1 0 0 0 1 57.256385998107852 25.976544518810734 8.2740134125301612 1 rotate no_reflect no_shear #
lump $-1 $-1 $20 $2 #
transform $-1 1 0 0 0 1 0 0 0 1 57.256385998107852 25.976544518810734 8.2740134125301612 1 rotate no_reflect no_shear #
lump $-1 $-1 $21 $3 #
transform $-1 1 0 0 0 1 0 0 0 1 57.256385998107852 25.976544518810734 8.2740134125301612 1 rotate no_reflect no_shear #
lump $-1 $-1 $22 $4 #
transform $-1 1 0 0 0 1 0 0 0 1 57.256385998107852 25.976544518810734 8.2740134125301612 1 rotate no_reflect no_shear #
lump $-1 $-1 $23 $5 #
transform $-1 1 0 0 0 1 0 0 0 1 57.256385998107852 25.976544518810734 8.2740134125301612 1 rotate no_reflect no_shear #
shell $-1 $-1 $-1 $24 $-1 $6 #
shell $-1 $-1 $-1 $25 $-1 $8 #
shell $-1 $-1 $-1 $26 $-1 $10 #
shell $-1 $-1 $-1 $27 $-1 $12 #
shell $-1 $-1 $-1 $28 $-1 $14 #
shell $-1 $-1 $-1 $29 $-1 $16 #
face $-1 $30 $31 $18 $-1 $32 reversed single #
face $-1 $33 $34 $19 $-1 $35 forward single #
face $-1 $36 $37 $20 $-1 $38 reversed single #
face $-1 $39 $40 $21 $-1 $41 forward single #
face $-1 $42 $43 $22 $-1 $44 forward single #
face $-1 $45 $46 $23 $-1 $47 forward single #
face $-1 $48 $49 $18 $-1 $50 forward single #
loop $-1 $-1 $51 $24 #
plane-surface $-1 -57.256385998107852 0 0 1 0 0 0 0 -1 forward_v I I I I #
face $-1 $52 $53 $19 $-1 $54 reversed single #
loop $-1 $-1 $55 $25 #
plane-surface $-1 -57.256385998107852 0 0 1 0 0 0 0 -1 forward_v I I I I #
face $-1 $56 $57 $20 $-1 $58 reversed single #
loop $-1 $-1 $59 $26 #
plane-surface $-1 50.848491269864589 -25.976544518810726 4.251627072725114 0 -0.52991927123019833 0.84804809178421925 1 0 0 forward_v I I I I #
face $-1 $60 $61 $21 $-1 $62 forward single #
loop $-1 $63 $64 $27 #
cone-surface $-1 47.003754432918633 -21.823661999233398 4.7676265924762102 0 0.52991927123019833 -0.84804809178421925 1 0 0 1 I I 0 1 1 forward I I I I #
face $-1 $65 $66 $22 $-1 $67 forward single #
loop $-1 $68 $69 $28 #
cone-surface $-1 50.848491269864589 -21.823661999233398 4.7676265924762102 0 0.52991927123019833 -0.84804809178421925 1 0 0 1 I I 0 1 1 forward I I I I #
face $-1 $70 $71 $23 $-1 $72 forward single #
loop $-1 $73 $74 $29 #
cone-surface $-1 54.693228106810544 -21.823661999233398 4.7676265924762102 0 0.52991927123019833 -0.84804809178421925 1 0 0 1 I I 0 1 1 forward I I I I #
face $-1 $75 $76 $18 $-1 $77 reversed single #
loop $-1 $-1 $78 $30 #
plane-surface $-1 0 0 8.2740134125301612 0 0 1 1 0 0 forward_v I I I I #
coedge $-1 $79 $80 $81 $82 reversed $31 $-1 #
face $-1 $83 $84 $19 $-1 $85 reversed single #
loop $-1 $-1 $86 $33 #
plane-surface $-1 0 0 -8.2740134125301612 0 0 1 1 0 0 forward_v I I I I #
coedge $-1 $87 $88 $89 $90 forward $34 $-1 #
face $-1 $91 $92 $20 $-1 $93 reversed single #
loop $-1 $-1 $94 $36 #
plane-surface $-1 44.440596541621325 -86.659069201595216 101.36396484903722 1 0 0 0 0.52991927123019833 -0.84804809178421925 forward_v I I I I #
coedge $-1 $95 $96 $97 $98 reversed $37 $-1 #
face $-1 $-1 $99 $21 $-1 $100 forward single #
loop $-1 $101 $102 $39 #
cone-surface $-1 47.003754432918633 -20.624401659315939 2.8484088964326677 0 0.52991927123019833 -0.84804809178421925 0.5 0 0 1 I I -0.70710678118654724 0.70710678118654791 0.5 forward I I I I #
loop $-1 $-1 $103 $27 #
coedge $-1 $64 $64 $104 $105 reversed $40 $-1 #
face $-1 $-1 $106 $22 $-1 $107 forward single #
loop $-1 $108 $109 $42 #
cone-surface $-1 50.848491269864589 -20.624401659315939 2.8484088964326677 0 0.52991927123019833 -0.84804809178421925 0.5 0 0 1 I I -0.70710678118654724 0.70710678118654791 0.5 forward I I I I #
loop $-1 $-1 $110 $28 #
coedge $-1 $69 $69 $111 $112 reversed $43 $-1 #
face $-1 $-1 $113 $23 $-1 $114 forward single #
loop $-1 $115 $116 $45 #
cone-surface $-1 54.693228106810544 -20.624401659315939 2.8484088964326677 0 0.52991927123019833 -0.84804809178421925 0.5 0 0 1 I I -0.70710678118654724 0.70710678118654791 0.5 forward I I I I #
loop $-1 $-1 $117 $29 #
coedge $-1 $74 $74 $118 $119 reversed $46 $-1 #
face $-1 $120 $121 $18 $-1 $122 reversed single #
loop $-1 $-1 $123 $48 #
plane-surface $-1 0 0 -8.2740134125301612 0 0 1 1 0 0 forward_v I I I I #
coedge $-1 $124 $125 $126 $127 forward $49 $-1 #
coedge $-1 $128 $51 $129 $130 reversed $31 $-1 #
coedge $-1 $51 $128 $131 $132 forward $31 $-1 #
coedge $-1 $133 $134 $51 $82 forward $76 $-1 #
edge $-1 $135 -25.976544518810734 $136 25.976544518810734 $51 $137 forward 7 unknown #
face $-1 $138 $139 $19 $-1 $140 reversed single #
loop $-1 $-1 $141 $52 #
plane-surface $-1 -60.745266283084945 -25.476544518810734 0 0 1 0 0 0 1 forward_v I I I I #
coedge $-1 $142 $143 $88 $144 forward $53 $-1 #
coedge $-1 $145 $55 $146 $147 reversed $34 $-1 #
coedge $-1 $55 $145 $86 $144 reversed $34 $-1 #
coedge $-1 $148 $149 $55 $90 reversed $150 $-1 #
edge $-1 $151 -8.2740134125301612 $152 8.2740134125301612 $89 $153 forward 7 unknown #
face $-1 $154 $155 $20 $-1 $156 forward single #
loop $-1 $-1 $157 $56 #
plane-surface $-1 0 -25.976544518810734 0 0 1 0 0 0 1 forward_v I I I I #
coedge $-1 $158 $159 $160 $161 reversed $57 $-1 #
coedge $-1 $162 $59 $163 $164 reversed $37 $-1 #
coedge $-1 $59 $162 $158 $165 forward $37 $-1 #
coedge $-1 $160 $166 $59 $98 forward $155 $-1 #
edge $-1 $167 -31.832140363175558 $168 -19.016350906689031 $97 $169 forward 7 unknown #
loop $-1 $-1 $104 $60 #
plane-surface $-1 50.848491269864589 -25.976544518810726 4.251627072725114 0 -0.52991927123019833 0.84804809178421925 1 0 0 forward_v I I I I #
loop $-1 $-1 $170 $39 #
coedge $-1 $102 $102 $103 $171 reversed $61 $-1 #
coedge $-1 $103 $103 $102 $171 forward $63 $-1 #
coedge $-1 $104 $104 $64 $105 forward $99 $-1 #
edge $-1 $172 5.6353594053339759e-016 $172 6.2831853071796013 $104 $173 forward 7 unknown #
loop $-1 $-1 $111 $65 #
plane-surface $-1 50.848491269864589 -25.976544518810726 4.251627072725114 0 -0.52991927123019833 0.84804809178421925 1 0 0 forward_v I I I I #
loop $-1 $-1 $174 $42 #
coedge $-1 $109 $109 $110 $175 reversed $66 $-1 #
coedge $-1 $110 $110 $109 $175 forward $68 $-1 #
coedge $-1 $111 $111 $69 $112 forward $106 $-1 #
edge $-1 $176 5.6353594053339759e-016 $176 6.2831853071796013 $111 $177 forward 7 unknown #
loop $-1 $-1 $118 $70 #
plane-surface $-1 50.848491269864589 -25.976544518810726 4.251627072725114 0 -0.52991927123019833 0.84804809178421925 1 0 0 forward_v I I I I #
loop $-1 $-1 $178 $45 #
coedge $-1 $116 $116 $117 $179 reversed $71 $-1 #
coedge $-1 $117 $117 $116 $179 forward $73 $-1 #
coedge $-1 $118 $118 $74 $119 forward $113 $-1 #
edge $-1 $180 5.6353594053339759e-016 $180 6.2831853071796013 $118 $181 forward 7 unknown #
face $-1 $182 $183 $18 $-1 $184 reversed single #
loop $-1 $-1 $129 $75 #
plane-surface $-1 0 -25.976544518810734 0 0 1 0 0 0 1 forward_v I I I I #
coedge $-1 $134 $133 $185 $186 forward $76 $-1 #
coedge $-1 $187 $78 $188 $189 forward $49 $-1 #
coedge $-1 $78 $187 $190 $191 forward $49 $-1 #
coedge $-1 $192 $193 $78 $127 reversed $194 $-1 #
edge $-1 $195 -25.976544518810734 $196 25.976544518810734 $126 $197 forward 7 unknown #
coedge $-1 $80 $79 $187 $198 reversed $31 $-1 #
coedge $-1 $199 $190 $79 $130 forward $121 $-1 #
edge $-1 $200 -8.2740134125301612 $135 8.2740134125301612 $79 $201 forward 7 unknown #
coedge $-1 $188 $202 $80 $132 reversed $183 $-1 #
edge $-1 $203 -8.2740134125301612 $136 8.2740134125301612 $131 $204 forward 7 unknown #
coedge $-1 $123 $81 $202 $205 forward $76 $-1 #
coedge $-1 $81 $123 $199 $206 forward $76 $-1 #
vertex $-1 $82 $207 #
vertex $-1 $205 $208 #
straight-curve $-1 -57.256385998107852 0 -8.2740134125301612 0 1 0 I I #
face $-1 $209 $150 $19 $-1 $210 reversed single #
loop $-1 $-1 $211 $83 #
plane-surface $-1 -64.23414656806203 -23.347097742810242 0 1 0 0 0 0 -1 forward_v I I I I #
coedge $-1 $212 $213 $214 $215 forward $84 $-1 #
coedge $-1 $216 $86 $212 $217 forward $53 $-1 #
coedge $-1 $86 $216 $148 $218 forward $53 $-1 #
edge $-1 $151 21.217650966809749 $219 25.476544518810734 $86 $220 forward 7 unknown #
coedge $-1 $88 $87 $221 $222 forward $34 $-1 #
coedge $-1 $223 $224 $87 $147 forward $225 $-1 #
edge $-1 $226 -25.476544518810734 $152 -21.217650966809749 $146 $227 forward 7 unknown #
coedge $-1 $228 $89 $143 $218 reversed $150 $-1 #
coedge $-1 $89 $228 $223 $229 reversed $150 $-1 #
loop $-1 $-1 $89 $138 #
vertex $-1 $144 $230 #
vertex $-1 $229 $231 #
straight-curve $-1 -57.256385998107852 -21.217650966809749 0 0 0 1 I I #
face $-1 $-1 $232 $20 $-1 $233 reversed single #
loop $-1 $-1 $160 $91 #
plane-surface $-1 0 0 8.2740134125301612 0 0 1 1 0 0 forward_v I I I I #
coedge $-1 $234 $235 $159 $236 forward $92 $-1 #
coedge $-1 $159 $94 $96 $165 reversed $57 $-1 #
coedge $-1 $94 $158 $157 $236 reversed $57 $-1 #
coedge $-1 $237 $97 $94 $161 forward $155 $-1 #
edge $-1 $168 -23.790153712536856 $238 -17.352990081986874 $160 $239 forward 7 unknown #
coedge $-1 $96 $95 $234 $240 reversed $37 $-1 #
coedge $-1 $241 $242 $95 $164 forward $232 $-1 #
edge $-1 $243 -9.8881699452020992 $167 -2.2976055740156127 $163 $244 forward 7 unknown #
edge $-1 $245 -8.3790584163743152e-015 $168 7.5905643711864794 $158 $246 forward 7 unknown #
coedge $-1 $97 $237 $241 $247 forward $155 $-1 #
vertex $-1 $164 $248 #
vertex $-1 $98 $249 #
straight-curve $-1 25.424245634932294 -19.539380888260752 8.2740134125301612 -1 0 0 I I #
coedge $-1 $170 $170 $-1 $250 reversed $101 $-1 #
edge $-1 $251 0 $251 6.2831853071796004 $102 $252 forward 7 unknown #
vertex $-1 $105 $253 #
ellipse-curve $-1 47.003754432918633 -22.75796270353575 6.2628202426276314 0 -0.52991927123019833 0.84804809178421925 1 0 0 1 I I #
coedge $-1 $174 $174 $-1 $254 reversed $108 $-1 #
edge $-1 $255 0 $255 6.2831853071796004 $109 $256 forward 7 unknown #
vertex $-1 $112 $257 #
ellipse-curve $-1 50.848491269864589 -22.75796270353575 6.2628202426276314 0 -0.52991927123019833 0.84804809178421925 1 0 0 1 I I #
coedge $-1 $178 $178 $-1 $258 reversed $115 $-1 #
edge $-1 $259 0 $259 6.2831853071796004 $116 $260 forward 7 unknown #
vertex $-1 $119 $261 #
ellipse-curve $-1 54.693228106810544 -22.75796270353575 6.2628202426276314 0 -0.52991927123019833 0.84804809178421925 1 0 0 1 I I #
face $-1 $-1 $194 $18 $-1 $262 reversed single #
loop $-1 $-1 $263 $120 #
plane-surface $-1 0 25.976544518810734 0 0 -1 0 0 0 -1 forward_v I I I I #
coedge $-1 $193 $192 $123 $186 reversed $194 $-1 #
edge $-1 $264 -25.976544518810734 $265 25.976544518810734 $185 $266 forward 7 unknown #
coedge $-1 $125 $124 $128 $198 forward $49 $-1 #
coedge $-1 $263 $131 $124 $189 reversed $183 $-1 #
edge $-1 $196 -57.256385998107852 $203 57.256385998107852 $188 $267 forward 7 unknown #
coedge $-1 $129 $268 $125 $191 reversed $121 $-1 #
edge $-1 $200 -57.256385998107852 $195 57.256385998107852 $190 $269 forward 7 unknown #
coedge $-1 $185 $126 $268 $270 forward $194 $-1 #
coedge $-1 $126 $185 $263 $271 reversed $194 $-1 #
loop $-1 $-1 $192 $182 #
vertex $-1 $127 $272 #
vertex $-1 $127 $273 #
straight-curve $-1 57.256385998107852 0 8.2740134125301612 0 1 0 I I #
edge $-1 $203 -25.976544518810734 $200 25.976544518810734 $128 $274 forward 7 unknown #
coedge $-1 $268 $129 $134 $206 reversed $121 $-1 #
vertex $-1 $198 $275 #
straight-curve $-1 -57.256385998107852 -25.976544518810734 0 0 0 -1 I I #
coedge $-1 $131 $263 $133 $205 reversed $183 $-1 #
vertex $-1 $189 $276 #
straight-curve $-1 -57.256385998107852 25.976544518810734 0 0 0 -1 I I #
edge $-1 $136 -57.256385998107852 $264 57.256385998107852 $202 $277 forward 7 unknown #
edge $-1 $265 -57.256385998107852 $135 57.256385998107852 $199 $278 forward 7 unknown #
point $-1 -57.256385998107852 -25.976544518810734 -8.2740134125301612 #
point $-1 -57.256385998107852 25.976544518810734 -8.2740134125301612 #
face $-1 $-1 $225 $19 $-1 $279 forward single #
plane-surface $-1 -60.745266283084945 -21.217650966809749 0 0 -1 0 0 0 -1 forward_v I I I I #
coedge $-1 $280 $281 $228 $282 forward $139 $-1 #
coedge $-1 $221 $141 $142 $217 reversed $84 $-1 #
coedge $-1 $141 $221 $224 $283 reversed $84 $-1 #
coedge $-1 $281 $280 $141 $215 reversed $139 $-1 #
edge $-1 $284 -8.2740134125301612 $285 8.2740134125301612 $214 $286 forward 7 unknown #
coedge $-1 $143 $142 $280 $287 forward $53 $-1 #
edge $-1 $219 -3.4888802849770926 $285 3.4888802849770855 $212 $288 forward 7 unknown #
edge $-1 $289 -3.4888802849770855 $151 3.4888802849770926 $148 $290 forward 7 unknown #
vertex $-1 $217 $291 #
straight-curve $-1 -57.256385998107852 0 -8.2740134125301612 0 -1 0 I I #
coedge $-1 $213 $212 $145 $222 reversed $84 $-1 #
edge $-1 $226 -8.2740134125301612 $219 8.2740134125301612 $221 $292 forward 7 unknown #
coedge $-1 $293 $146 $149 $229 forward $225 $-1 #
coedge $-1 $146 $293 $213 $283 forward $225 $-1 #
loop $-1 $-1 $146 $209 #
vertex $-1 $147 $294 #
straight-curve $-1 -57.256385998107852 0 8.2740134125301612 0 1 0 I I #
coedge $-1 $149 $148 $211 $282 reversed $150 $-1 #
edge $-1 $152 -3.4888802849770926 $295 3.4888802849770855 $149 $296 forward 7 unknown #
point $-1 -57.256385998107852 -21.217650966809749 -8.2740134125301612 #
point $-1 -57.256385998107852 -21.217650966809749 8.2740134125301612 #
loop $-1 $-1 $163 $154 #
plane-surface $-1 57.256385998107852 0 0 -1 0 0 0 0 1 forward_v I I I I #
coedge $-1 $297 $157 $162 $240 forward $92 $-1 #
coedge $-1 $157 $297 $237 $298 reversed $92 $-1 #
edge $-1 $238 42.407969011988449 $245 46.430355351793501 $157 $299 forward 7 unknown #
coedge $-1 $166 $160 $235 $298 forward $155 $-1 #
vertex $-1 $298 $300 #
straight-curve $-1 44.440596541621325 -43.329534600797608 8.2740134125301594 0 -1 0 I I #
edge $-1 $245 19.016350906689031 $243 31.832140363175558 $234 $301 forward 7 unknown #
coedge $-1 $242 $163 $166 $247 reversed $232 $-1 #
coedge $-1 $163 $241 $297 $302 forward $232 $-1 #
vertex $-1 $240 $303 #
straight-curve $-1 57.256385998107852 -17.590900865544025 9.491558883886956 0 0.84804809178421925 0.52991927123019833 I I #
vertex $-1 $240 $304 #
straight-curve $-1 44.440596541621325 -25.976544518810726 4.251627072725114 0 0.84804809178421925 0.52991927123019833 I I #
edge $-1 $305 -25.976544518810734 $167 -19.539380888260752 $241 $306 forward 7 unknown #
point $-1 57.256385998107852 -19.539380888260752 8.2740134125301612 #
point $-1 44.440596541621325 -19.539380888260752 8.2740134125301612 #
edge $-1 $307 1 $307 0 $170 $-1 forward 7 unknown #
vertex $-1 $171 $308 #
ellipse-curve $-1 47.003754432918633 -20.889361294931039 3.2724329423247775 0 -0.52991927123019833 0.84804809178421925 1 0 0 1 I I #
point $-1 48.003754432918633 -22.757962703535757 6.2628202426276438 #
edge $-1 $309 1 $309 0 $174 $-1 forward 7 unknown #
vertex $-1 $175 $310 #
ellipse-curve $-1 50.848491269864589 -20.889361294931039 3.2724329423247775 0 -0.52991927123019833 0.84804809178421925 1 0 0 1 I I #
point $-1 51.848491269864589 -22.757962703535757 6.2628202426276438 #
edge $-1 $311 1 $311 0 $178 $-1 forward 7 unknown #
vertex $-1 $179 $312 #
ellipse-curve $-1 54.693228106810544 -20.889361294931039 3.2724329423247775 0 -0.52991927123019833 0.84804809178421925 1 0 0 1 I I #
point $-1 55.693228106810544 -22.757962703535757 6.2628202426276438 #
plane-surface $-1 57.256385998107852 0 0 -1 0 0 0 0 1 forward_v I I I I #
coedge $-1 $202 $188 $193 $271 forward $183 $-1 #
vertex $-1 $186 $313 #
vertex $-1 $270 $314 #
straight-curve $-1 57.256385998107852 0 -8.2740134125301612 0 -1 0 I I #
straight-curve $-1 0 25.976544518810734 8.2740134125301612 -1 0 0 I I #
coedge $-1 $190 $199 $192 $270 reversed $121 $-1 #
straight-curve $-1 0 -25.976544518810734 8.2740134125301612 1 0 0 I I #
edge $-1 $195 -8.2740134125301612 $265 8.2740134125301612 $192 $315 forward 7 unknown #
edge $-1 $196 -8.2740134125301612 $264 8.2740134125301612 $193 $316 forward 7 unknown #
point $-1 57.256385998107852 -25.976544518810734 8.2740134125301612 #
point $-1 57.256385998107852 25.976544518810734 8.2740134125301612 #
straight-curve $-1 -57.256385998107852 0 8.2740134125301612 0 -1 0 I I #
point $-1 -57.256385998107852 -25.976544518810734 8.2740134125301612 #
point $-1 -57.256385998107852 25.976544518810734 8.2740134125301612 #
straight-curve $-1 0 25.976544518810734 -8.2740134125301612 1 0 0 I I #
straight-curve $-1 0 -25.976544518810734 -8.2740134125301612 -1 0 0 I I #
plane-surface $-1 0 0 8.2740134125301612 0 0 1 1 0 0 forward_v I I I I #
coedge $-1 $214 $211 $216 $287 reversed $139 $-1 #
coedge $-1 $211 $214 $293 $317 reversed $139 $-1 #
edge $-1 $295 -8.2740134125301612 $289 8.2740134125301612 $228 $318 forward 7 unknown #
edge $-1 $284 -3.4888802849770855 $226 3.4888802849770926 $213 $319 forward 7 unknown #
vertex $-1 $317 $320 #
vertex $-1 $287 $321 #
straight-curve $-1 -64.23414656806203 -25.476544518810734 0 0 0 -1 I I #
edge $-1 $285 -2.129446776000492 $289 2.129446776000492 $280 $322 forward 7 unknown #
straight-curve $-1 -60.745266283084945 -25.476544518810734 -8.2740134125301612 -1 0 0 I I #
vertex $-1 $218 $323 #
straight-curve $-1 -60.745266283084945 -21.217650966809749 -8.2740134125301612 1 0 0 I I #
point $-1 -57.256385998107852 -25.476544518810734 -8.2740134125301612 #
straight-curve $-1 -57.256385998107852 -25.476544518810734 0 0 0 -1 I I #
coedge $-1 $224 $223 $281 $317 forward $225 $-1 #
point $-1 -57.256385998107852 -25.476544518810734 8.2740134125301612 #
vertex $-1 $229 $324 #
straight-curve $-1 -60.745266283084945 -21.217650966809749 8.2740134125301612 -1 0 0 I I #
coedge $-1 $235 $234 $242 $302 reversed $92 $-1 #
edge $-1 $238 44.440596541621325 $305 57.256385998107852 $235 $325 forward 7 unknown #
straight-curve $-1 44.440596541621325 -25.976544518810734 50.681982424518608 0 0 -1 I I #
point $-1 44.440596541621325 -25.976544518810734 8.2740134125301612 #
straight-curve $-1 25.424245634932294 -25.976544518810734 4.2516270727251095 1 0 0 I I #
edge $-1 $305 -8.2740134125301612 $243 -4.2516270727251095 $242 $326 forward 7 unknown #
point $-1 57.256385998107852 -25.976544518810734 4.2516270727251095 #
point $-1 44.440596541621325 -25.976544518810734 4.2516270727251095 #
vertex $-1 $247 $327 #
straight-curve $-1 57.256385998107852 0 8.2740134125301612 0 1 0 I I #
vertex $-1 $250 $328 #
point $-1 48.003754432918633 -20.889361294931039 3.2724329423247775 #
vertex $-1 $254 $329 #
point $-1 51.848491269864589 -20.889361294931039 3.2724329423247775 #
vertex $-1 $258 $330 #
point $-1 55.693228106810544 -20.889361294931039 3.2724329423247775 #
point $-1 57.256385998107852 25.976544518810734 -8.2740134125301612 #
point $-1 57.256385998107852 -25.976544518810734 -8.2740134125301612 #
straight-curve $-1 57.256385998107852 -25.976544518810734 0 0 0 -1 I I #
straight-curve $-1 57.256385998107852 25.976544518810734 0 0 0 -1 I I #
edge $-1 $295 -2.129446776000492 $284 2.129446776000492 $281 $331 forward 7 unknown #
straight-curve $-1 -64.23414656806203 -21.217650966809749 0 0 0 -1 I I #
straight-curve $-1 -60.745266283084945 -25.476544518810734 8.2740134125301612 1 0 0 I I #
point $-1 -64.23414656806203 -25.476544518810734 8.2740134125301612 #
point $-1 -64.23414656806203 -25.476544518810734 -8.2740134125301612 #
straight-curve $-1 -64.23414656806203 -23.347097742810242 -8.2740134125301612 0 1 0 I I #
point $-1 -64.23414656806203 -21.217650966809749 -8.2740134125301612 #
point $-1 -64.23414656806203 -21.217650966809749 8.2740134125301612 #
straight-curve $-1 0 -25.976544518810734 8.2740134125301612 1 0 0 I I #
straight-curve $-1 57.256385998107852 -25.976544518810734 0 0 0 -1 I I #
point $-1 57.256385998107852 -25.976544518810734 8.2740134125301612 #
point $-1 47.003754432918633 -20.35944202370084 2.4243848505405579 #
point $-1 50.848491269864589 -20.35944202370084 2.4243848505405579 #
point $-1 54.693228106810544 -20.35944202370084 2.4243848505405579 #
straight-curve $-1 -64.23414656806203 -23.347097742810242 8.2740134125301612 0 -1 0 I I #
End-of-ACIS-data 