500 0 15 0           
7 Unknown 11 ACIS 5.0 NT 24 Thu Mar 25 23:31:34 1999 
-1 9.9999999999999995e-007 1e-010 
body $-1 $15 $-1 $16 #
body $-1 $17 $-1 $18 #
body $-1 $19 $-1 $20 #
body $-1 $21 $-1 $22 #
body $-1 $23 $-1 $24 #
body $-1 $25 $-1 $26 #
body $-1 $27 $-1 $28 #
body $-1 $29 $-1 $30 #
body $-1 $31 $-1 $32 #
body $-1 $33 $-1 $34 #
body $-1 $35 $-1 $36 #
body $-1 $37 $-1 $38 #
body $-1 $39 $-1 $40 #
body $-1 $41 $-1 $42 #
body $-1 $43 $-1 $44 #
lump $-1 $-1 $45 $0 #
transform $-1 1 0 0 0 1 0 0 0 1 55.272682882168034 25.61753145318831 10.572635978298333 1 rotate no_reflect no_shear #
lump $-1 $-1 $46 $1 #
transform $-1 1 0 0 0 1 0 0 0 1 55.272682882168034 25.61753145318831 10.572635978298333 1 rotate no_reflect no_shear #
lump $-1 $-1 $47 $2 #
transform $-1 1 0 0 0 1 0 0 0 1 55.272682882168034 25.61753145318831 10.572635978298333 1 rotate no_reflect no_shear #
lump $-1 $-1 $48 $3 #
transform $-1 1 0 0 0 1 0 0 0 1 55.272682882168034 25.61753145318831 10.572635978298333 1 rotate no_reflect no_shear #
lump $-1 $-1 $49 $4 #
transform $-1 1 0 0 0 1 0 0 0 1 55.272682882168034 25.61753145318831 10.572635978298333 1 rotate no_reflect no_shear #
lump $-1 $-1 $50 $5 #
transform $-1 1 0 0 0 1 0 0 0 1 55.272682882168034 25.61753145318831 10.572635978298333 1 rotate no_reflect no_shear #
lump $-1 $-1 $51 $6 #
transform $-1 1 0 0 0 1 0 0 0 1 55.272682882168034 25.61753145318831 10.572635978298333 1 rotate no_reflect no_shear #
lump $-1 $-1 $52 $7 #
transform $-1 1 0 0 0 1 0 0 0 1 55.272682882168034 25.61753145318831 10.572635978298333 1 rotate no_reflect no_shear #
lump $-1 $-1 $53 $8 #
transform $-1 1 0 0 0 1 0 0 0 1 55.272682882168034 25.61753145318831 10.572635978298333 1 rotate no_reflect no_shear #
lump $-1 $-1 $54 $9 #
transform $-1 1 0 0 0 1 0 0 0 1 55.272682882168034 25.61753145318831 10.572635978298333 1 rotate no_reflect no_shear #
lump $-1 $-1 $55 $10 #
transform $-1 1 0 0 0 1 0 0 0 1 55.272682882168034 25.61753145318831 10.572635978298333 1 rotate no_reflect no_shear #
lump $-1 $-1 $56 $11 #
transform $-1 1 0 0 0 1 0 0 0 1 55.272682882168034 25.61753145318831 10.572635978298333 1 rotate no_reflect no_shear #
lump $-1 $-1 $57 $12 #
transform $-1 1 0 0 0 1 0 0 0 1 55.272682882168034 25.61753145318831 10.572635978298333 1 rotate no_reflect no_shear #
lump $-1 $-1 $58 $13 #
transform $-1 1 0 0 0 1 0 0 0 1 55.272682882168034 25.61753145318831 10.572635978298333 1 rotate no_reflect no_shear #
lump $-1 $-1 $59 $14 #
transform $-1 1 0 0 0 1 0 0 0 1 55.272682882168034 25.61753145318831 10.572635978298333 1 rotate no_reflect no_shear #
shell $-1 $-1 $-1 $60 $-1 $15 #
shell $-1 $-1 $-1 $61 $-1 $17 #
shell $-1 $-1 $-1 $62 $-1 $19 #
shell $-1 $-1 $-1 $63 $-1 $21 #
shell $-1 $-1 $-1 $64 $-1 $23 #
shell $-1 $-1 $-1 $65 $-1 $25 #
shell $-1 $-1 $-1 $66 $-1 $27 #
shell $-1 $-1 $-1 $67 $-1 $29 #
shell $-1 $-1 $-1 $68 $-1 $31 #
shell $-1 $-1 $-1 $69 $-1 $33 #
shell $-1 $-1 $-1 $70 $-1 $35 #
shell $-1 $-1 $-1 $71 $-1 $37 #
shell $-1 $-1 $-1 $72 $-1 $39 #
shell $-1 $-1 $-1 $73 $-1 $41 #
shell $-1 $-1 $-1 $74 $-1 $43 #
face $-1 $75 $76 $45 $-1 $77 forward single #
face $-1 $78 $79 $46 $-1 $80 forward single #
face $-1 $81 $82 $47 $-1 $83 forward single #
face $-1 $84 $85 $48 $-1 $86 reversed single #
face $-1 $87 $88 $49 $-1 $89 forward single #
face $-1 $90 $91 $50 $-1 $92 forward single #
face $-1 $93 $94 $51 $-1 $95 reversed single #
face $-1 $96 $97 $52 $-1 $98 forward single #
face $-1 $99 $100 $53 $-1 $101 forward single #
face $-1 $102 $103 $54 $-1 $104 reversed single #
face $-1 $105 $106 $55 $-1 $107 forward single #
face $-1 $108 $109 $56 $-1 $110 forward single #
face $-1 $111 $112 $57 $-1 $113 reversed single #
face $-1 $114 $115 $58 $-1 $116 forward single #
face $-1 $117 $118 $59 $-1 $119 forward single #
face $-1 $120 $121 $45 $-1 $122 reversed single #
loop $-1 $-1 $123 $60 #
plane-surface $-1 0 0 10.572635978298333 0 0 1 1 0 0 forward_v I I I I #
face $-1 $124 $125 $46 $-1 $126 reversed single #
loop $-1 $-1 $127 $61 #
plane-surface $-1 -55.272682882168034 0 0 1 0 0 0 0 -1 forward_v I I I I #
face $-1 $128 $129 $47 $-1 $130 reversed single #
loop $-1 $-1 $131 $62 #
plane-surface $-1 55.272682882168034 0 0 -1 0 0 0 0 1 forward_v I I I I #
face $-1 $132 $133 $48 $-1 $134 reversed single #
loop $-1 $-1 $135 $63 #
plane-surface $-1 -35.082371693151096 -118.32867702733949 63.121098909299576 -1 0 0 0 -0.83867057594974714 0.54463902268945019 forward_v I I I I #
face $-1 $136 $137 $49 $-1 $138 forward single #
loop $-1 $139 $140 $64 #
cone-surface $-1 -43.047034800769808 -21.991554373364995 6.0034561215045041 0 0.83867057594974714 -0.54463902268945019 1 0 0 1 I I 0 1 1 forward I I I I #
face $-1 $141 $142 $50 $-1 $143 forward single #
loop $-1 $144 $145 $65 #
cone-surface $-1 -38.268236936198576 -21.991554373364995 6.0034561215045041 0 0.83867057594974714 -0.54463902268945019 1 0 0 1 I I 0 1 1 forward I I I I #
face $-1 $146 $147 $51 $-1 $148 reversed single #
loop $-1 $-1 $149 $66 #
plane-surface $-1 46.232900043817281 -118.32867702733949 63.121098909299576 -1 0 0 0 -0.83867057594974714 0.54463902268945019 forward_v I I I I #
face $-1 $150 $151 $52 $-1 $152 forward single #
loop $-1 $153 $154 $67 #
cone-surface $-1 38.268236936198569 -21.991554373364995 6.0034561215045041 0 0.83867057594974714 -0.54463902268945019 1 0 0 1 I I 0 1 1 forward I I I I #
face $-1 $155 $156 $53 $-1 $157 forward single #
loop $-1 $158 $159 $68 #
cone-surface $-1 43.047034800769801 -21.991554373364995 6.0034561215045041 0 0.83867057594974714 -0.54463902268945019 1 0 0 1 I I 0 1 1 forward I I I I #
face $-1 $160 $161 $54 $-1 $162 reversed single #
loop $-1 $-1 $163 $69 #
plane-surface $-1 -46.232900043817288 90.424062438578048 106.09043862581198 1 0 0 0 -0.83867057594974714 -0.54463902268945019 forward_v I I I I #
face $-1 $164 $165 $55 $-1 $166 forward single #
loop $-1 $167 $168 $70 #
cone-surface $-1 -43.047034800769808 21.991554373364995 6.0034561215045112 0 -0.83867057594974714 -0.54463902268945019 1 0 0 1 I I 0 1 1 forward I I I I #
face $-1 $169 $170 $56 $-1 $171 forward single #
loop $-1 $172 $173 $71 #
cone-surface $-1 -38.268236936198576 21.991554373364995 6.0034561215045112 0 -0.83867057594974714 -0.54463902268945019 1 0 0 1 I I 0 1 1 forward I I I I #
face $-1 $174 $175 $57 $-1 $176 reversed single #
loop $-1 $-1 $177 $72 #
plane-surface $-1 35.082371693151089 90.424062438578048 106.09043862581198 1 0 0 0 -0.83867057594974714 -0.54463902268945019 forward_v I I I I #
face $-1 $178 $179 $58 $-1 $180 forward single #
loop $-1 $181 $182 $73 #
cone-surface $-1 38.268236936198569 21.991554373364995 6.0034561215045112 0 -0.83867057594974714 -0.54463902268945019 1 0 0 1 I I 0 1 1 forward I I I I #
face $-1 $183 $184 $59 $-1 $185 forward single #
loop $-1 $186 $187 $74 #
cone-surface $-1 43.047034800769801 21.991554373364995 6.0034561215045112 0 -0.83867057594974714 -0.54463902268945019 1 0 0 1 I I 0 1 1 forward I I I I #
face $-1 $188 $189 $45 $-1 $190 reversed single #
loop $-1 $-1 $191 $75 #
plane-surface $-1 0 0 -10.572635978298333 0 0 1 1 0 0 forward_v I I I I #
coedge $-1 $192 $193 $194 $195 forward $76 $-1 #
face $-1 $196 $197 $46 $-1 $198 forward single #
loop $-1 $-1 $199 $78 #
plane-surface $-1 0 25.61753145318831 0 0 -1 0 0 0 -1 forward_v I I I I #
coedge $-1 $200 $201 $202 $203 forward $79 $-1 #
face $-1 $204 $205 $47 $-1 $206 forward single #
loop $-1 $-1 $207 $81 #
plane-surface $-1 0 -25.61753145318831 0 0 1 0 0 0 1 forward_v I I I I #
coedge $-1 $208 $209 $210 $211 forward $82 $-1 #
face $-1 $212 $213 $48 $-1 $214 reversed single #
loop $-1 $-1 $215 $84 #
plane-surface $-1 -40.657635868484192 -25.617531453188306 2.913778936563773 0 -0.83867057594974714 0.54463902268945019 1 0 0 forward_v I I I I #
coedge $-1 $216 $217 $218 $219 reversed $85 $-1 #
face $-1 $-1 $220 $49 $-1 $221 forward single #
loop $-1 $222 $223 $87 #
cone-surface $-1 -43.047034800769808 -20.433101884610938 4.9913852742332274 0 0.83867057594974714 -0.54463902268945019 0.5 0 0 1 I I -0.70710678118654746 0.70710678118654746 0.5 forward I I I I #
loop $-1 $-1 $224 $64 #
coedge $-1 $140 $140 $225 $226 reversed $88 $-1 #
face $-1 $-1 $227 $50 $-1 $228 forward single #
loop $-1 $229 $230 $90 #
cone-surface $-1 -38.268236936198576 -20.433101884610938 4.9913852742332274 0 0.83867057594974714 -0.54463902268945019 0.5 0 0 1 I I -0.70710678118654746 0.70710678118654746 0.5 forward I I I I #
loop $-1 $-1 $231 $65 #
coedge $-1 $145 $145 $232 $233 reversed $91 $-1 #
face $-1 $234 $235 $51 $-1 $236 reversed single #
loop $-1 $-1 $237 $93 #
plane-surface $-1 40.657635868484185 -25.617531453188306 2.913778936563773 0 -0.83867057594974714 0.54463902268945019 1 0 0 forward_v I I I I #
coedge $-1 $238 $239 $240 $241 reversed $94 $-1 #
face $-1 $-1 $242 $52 $-1 $243 forward single #
loop $-1 $244 $245 $96 #
cone-surface $-1 38.268236936198569 -20.433101884610938 4.9913852742332274 0 0.83867057594974714 -0.54463902268945019 0.5 0 0 1 I I -0.70710678118654746 0.70710678118654746 0.5 forward I I I I #
loop $-1 $-1 $246 $67 #
coedge $-1 $154 $154 $247 $248 reversed $97 $-1 #
face $-1 $-1 $249 $53 $-1 $250 forward single #
loop $-1 $251 $252 $99 #
cone-surface $-1 43.047034800769801 -20.433101884610938 4.9913852742332274 0 0.83867057594974714 -0.54463902268945019 0.5 0 0 1 I I -0.70710678118654746 0.70710678118654746 0.5 forward I I I I #
loop $-1 $-1 $253 $68 #
coedge $-1 $159 $159 $254 $255 reversed $100 $-1 #
face $-1 $256 $257 $54 $-1 $258 reversed single #
loop $-1 $-1 $259 $102 #
plane-surface $-1 -40.657635868484192 -2.2870831355731411 45.883118653076181 0 0.83867057594974714 0.54463902268945019 1 0 0 forward_v I I I I #
coedge $-1 $260 $261 $262 $263 reversed $103 $-1 #
face $-1 $-1 $264 $55 $-1 $265 forward single #
loop $-1 $266 $267 $105 #
cone-surface $-1 -43.047034800769808 20.433101884610938 4.9913852742332345 0 -0.83867057594974714 -0.54463902268945019 0.5 0 0 1 I I -0.70710678118654746 0.70710678118654746 0.5 forward I I I I #
loop $-1 $-1 $268 $70 #
coedge $-1 $168 $168 $269 $270 reversed $106 $-1 #
face $-1 $-1 $271 $56 $-1 $272 forward single #
loop $-1 $273 $274 $108 #
cone-surface $-1 -38.268236936198576 20.433101884610938 4.9913852742332345 0 -0.83867057594974714 -0.54463902268945019 0.5 0 0 1 I I -0.70710678118654746 0.70710678118654746 0.5 forward I I I I #
loop $-1 $-1 $275 $71 #
coedge $-1 $173 $173 $276 $277 reversed $109 $-1 #
face $-1 $278 $279 $57 $-1 $280 reversed single #
loop $-1 $-1 $281 $111 #
plane-surface $-1 40.657635868484185 -2.2870831355731411 45.883118653076181 0 0.83867057594974714 0.54463902268945019 1 0 0 forward_v I I I I #
coedge $-1 $282 $283 $284 $285 reversed $112 $-1 #
face $-1 $-1 $286 $58 $-1 $287 forward single #
loop $-1 $288 $289 $114 #
cone-surface $-1 38.268236936198569 20.433101884610938 4.9913852742332345 0 -0.83867057594974714 -0.54463902268945019 0.5 0 0 1 I I -0.70710678118654746 0.70710678118654746 0.5 forward I I I I #
loop $-1 $-1 $290 $73 #
coedge $-1 $182 $182 $291 $292 reversed $115 $-1 #
face $-1 $-1 $293 $59 $-1 $294 forward single #
loop $-1 $295 $296 $117 #
cone-surface $-1 43.047034800769801 20.433101884610938 4.9913852742332345 0 -0.83867057594974714 -0.54463902268945019 0.5 0 0 1 I I -0.70710678118654746 0.70710678118654746 0.5 forward I I I I #
loop $-1 $-1 $297 $74 #
coedge $-1 $187 $187 $298 $299 reversed $118 $-1 #
face $-1 $300 $301 $45 $-1 $302 reversed single #
loop $-1 $-1 $303 $120 #
plane-surface $-1 0 -25.61753145318831 0 0 1 0 0 0 1 forward_v I I I I #
coedge $-1 $304 $305 $306 $307 forward $121 $-1 #
coedge $-1 $308 $123 $309 $310 forward $76 $-1 #
coedge $-1 $123 $308 $311 $312 forward $76 $-1 #
coedge $-1 $313 $314 $123 $195 reversed $315 $-1 #
edge $-1 $316 -25.61753145318831 $317 25.61753145318831 $194 $318 forward 7 unknown #
face $-1 $319 $320 $46 $-1 $321 reversed single #
loop $-1 $-1 $202 $124 #
plane-surface $-1 -59.792574301343407 0 3.5845713461831652 0 0 1 1 0 0 forward_v I I I I #
coedge $-1 $322 $323 $201 $324 forward $125 $-1 #
coedge $-1 $325 $127 $326 $327 reversed $79 $-1 #
coedge $-1 $127 $325 $199 $324 reversed $79 $-1 #
coedge $-1 $328 $329 $127 $203 reversed $197 $-1 #
edge $-1 $330 -25.61753145318831 $331 25.61753145318831 $202 $332 forward 7 unknown #
face $-1 $333 $334 $47 $-1 $335 reversed single #
loop $-1 $-1 $336 $128 #
plane-surface $-1 59.792574301343414 0 3.5845713461831652 0 0 1 1 0 0 forward_v I I I I #
coedge $-1 $337 $338 $209 $339 forward $129 $-1 #
coedge $-1 $340 $131 $341 $342 reversed $82 $-1 #
coedge $-1 $131 $340 $207 $339 reversed $82 $-1 #
coedge $-1 $343 $344 $131 $211 reversed $205 $-1 #
edge $-1 $345 -25.61753145318831 $346 25.61753145318831 $210 $347 forward 7 unknown #
face $-1 $348 $349 $48 $-1 $350 forward single #
loop $-1 $-1 $351 $132 #
plane-surface $-1 -46.232900043817288 -118.32867702733949 63.121098909299576 1 0 0 0 0.83867057594974714 -0.54463902268945019 forward_v I I I I #
coedge $-1 $352 $353 $354 $355 reversed $133 $-1 #
coedge $-1 $217 $135 $356 $357 reversed $85 $-1 #
coedge $-1 $135 $216 $352 $358 reversed $85 $-1 #
coedge $-1 $354 $359 $135 $219 forward $349 $-1 #
edge $-1 $360 33.546807060481441 $361 38.520526818569707 $218 $362 forward 7 unknown #
loop $-1 $-1 $225 $136 #
plane-surface $-1 -40.657635868484192 -25.617531453188306 2.913778936563773 0 -0.83867057594974714 0.54463902268945019 1 0 0 forward_v I I I I #
loop $-1 $-1 $363 $87 #
coedge $-1 $223 $223 $224 $364 reversed $137 $-1 #
coedge $-1 $224 $224 $223 $364 forward $139 $-1 #
coedge $-1 $225 $225 $140 $226 forward $220 $-1 #
edge $-1 $365 1.0446099212668148e-015 $365 6.2831853071796013 $225 $366 forward 7 unknown #
loop $-1 $-1 $232 $141 #
plane-surface $-1 -40.657635868484192 -25.617531453188306 2.913778936563773 0 -0.83867057594974714 0.54463902268945019 1 0 0 forward_v I I I I #
loop $-1 $-1 $367 $90 #
coedge $-1 $230 $230 $231 $368 reversed $142 $-1 #
coedge $-1 $231 $231 $230 $368 forward $144 $-1 #
coedge $-1 $232 $232 $145 $233 forward $227 $-1 #
edge $-1 $369 1.0446099212668148e-015 $369 6.2831853071796013 $232 $370 forward 7 unknown #
face $-1 $371 $372 $51 $-1 $373 reversed single #
loop $-1 $-1 $374 $146 #
plane-surface $-1 35.082371693151089 -118.32867702733949 63.121098909299576 1 0 0 0 0.83867057594974714 -0.54463902268945019 forward_v I I I I #
coedge $-1 $375 $376 $377 $378 reversed $147 $-1 #
coedge $-1 $239 $149 $379 $380 reversed $94 $-1 #
coedge $-1 $149 $238 $375 $381 reversed $94 $-1 #
coedge $-1 $377 $382 $149 $241 forward $383 $-1 #
edge $-1 $384 33.546807060481441 $385 38.520526818569707 $240 $386 forward 7 unknown #
loop $-1 $-1 $247 $150 #
plane-surface $-1 40.657635868484185 -25.617531453188306 2.913778936563773 0 -0.83867057594974714 0.54463902268945019 1 0 0 forward_v I I I I #
loop $-1 $-1 $387 $96 #
coedge $-1 $245 $245 $246 $388 reversed $151 $-1 #
coedge $-1 $246 $246 $245 $388 forward $153 $-1 #
coedge $-1 $247 $247 $154 $248 forward $242 $-1 #
edge $-1 $389 1.0446099212668148e-015 $389 6.2831853071796013 $247 $390 forward 7 unknown #
loop $-1 $-1 $254 $155 #
plane-surface $-1 40.657635868484185 -25.617531453188306 2.913778936563773 0 -0.83867057594974714 0.54463902268945019 1 0 0 forward_v I I I I #
loop $-1 $-1 $391 $99 #
coedge $-1 $252 $252 $253 $392 reversed $156 $-1 #
coedge $-1 $253 $253 $252 $392 forward $158 $-1 #
coedge $-1 $254 $254 $159 $255 forward $249 $-1 #
edge $-1 $393 1.0446099212668148e-015 $393 6.2831853071796013 $254 $394 forward 7 unknown #
face $-1 $395 $396 $54 $-1 $397 reversed single #
loop $-1 $-1 $398 $160 #
plane-surface $-1 -35.082371693151096 90.424062438578048 106.09043862581198 -1 0 0 0 0.83867057594974714 0.54463902268945019 forward_v I I I I #
coedge $-1 $399 $400 $401 $402 reversed $161 $-1 #
coedge $-1 $261 $163 $403 $404 reversed $103 $-1 #
coedge $-1 $163 $260 $399 $405 reversed $103 $-1 #
coedge $-1 $401 $406 $163 $263 forward $407 $-1 #
edge $-1 $408 19.594499766100714 $409 24.568219524188969 $262 $410 forward 7 unknown #
loop $-1 $-1 $269 $164 #
plane-surface $-1 -40.657635868484192 -2.2870831355731411 45.883118653076181 0 0.83867057594974714 0.54463902268945019 1 0 0 forward_v I I I I #
loop $-1 $-1 $411 $105 #
coedge $-1 $267 $267 $268 $412 reversed $165 $-1 #
coedge $-1 $268 $268 $267 $412 forward $167 $-1 #
coedge $-1 $269 $269 $168 $270 forward $264 $-1 #
edge $-1 $413 -4.4516829232526574e-016 $413 6.2831853071795996 $269 $414 forward 7 unknown #
loop $-1 $-1 $276 $169 #
plane-surface $-1 -40.657635868484192 -2.2870831355731411 45.883118653076181 0 0.83867057594974714 0.54463902268945019 1 0 0 forward_v I I I I #
loop $-1 $-1 $415 $108 #
coedge $-1 $274 $274 $275 $416 reversed $170 $-1 #
coedge $-1 $275 $275 $274 $416 forward $172 $-1 #
coedge $-1 $276 $276 $173 $277 forward $271 $-1 #
edge $-1 $417 -4.4516829232526574e-016 $417 6.2831853071795996 $276 $418 forward 7 unknown #
face $-1 $419 $420 $57 $-1 $421 forward single #
loop $-1 $-1 $422 $174 #
plane-surface $-1 46.232900043817281 90.424062438578048 106.09043862581198 -1 0 0 0 0.83867057594974714 0.54463902268945019 forward_v I I I I #
coedge $-1 $423 $424 $425 $426 reversed $175 $-1 #
coedge $-1 $283 $177 $427 $428 reversed $112 $-1 #
coedge $-1 $177 $282 $423 $429 reversed $112 $-1 #
coedge $-1 $425 $430 $177 $285 forward $420 $-1 #
edge $-1 $431 19.594499766100714 $432 24.568219524188969 $284 $433 forward 7 unknown #
loop $-1 $-1 $291 $178 #
plane-surface $-1 40.657635868484185 -2.2870831355731411 45.883118653076181 0 0.83867057594974714 0.54463902268945019 1 0 0 forward_v I I I I #
loop $-1 $-1 $434 $114 #
coedge $-1 $289 $289 $290 $435 reversed $179 $-1 #
coedge $-1 $290 $290 $289 $435 forward $181 $-1 #
coedge $-1 $291 $291 $182 $292 forward $286 $-1 #
edge $-1 $436 -4.4516829232526574e-016 $436 6.2831853071795996 $291 $437 forward 7 unknown #
loop $-1 $-1 $298 $183 #
plane-surface $-1 40.657635868484185 -2.2870831355731411 45.883118653076181 0 0.83867057594974714 0.54463902268945019 1 0 0 forward_v I I I I #
loop $-1 $-1 $438 $117 #
coedge $-1 $296 $296 $297 $439 reversed $184 $-1 #
coedge $-1 $297 $297 $296 $439 forward $186 $-1 #
coedge $-1 $298 $298 $187 $299 forward $293 $-1 #
edge $-1 $440 -4.4516829232526574e-016 $440 6.2831853071795996 $298 $441 forward 7 unknown #
face $-1 $442 $443 $45 $-1 $444 reversed single #
loop $-1 $-1 $445 $188 #
plane-surface $-1 -55.272682882168034 0 0 1 0 0 0 0 -1 forward_v I I I I #
coedge $-1 $446 $311 $447 $448 forward $189 $-1 #
coedge $-1 $449 $191 $446 $450 forward $121 $-1 #
coedge $-1 $191 $449 $451 $452 forward $121 $-1 #
coedge $-1 $314 $313 $191 $307 reversed $315 $-1 #
edge $-1 $453 -25.61753145318831 $454 25.61753145318831 $306 $455 forward 7 unknown #
coedge $-1 $193 $192 $456 $457 forward $76 $-1 #
coedge $-1 $458 $459 $192 $310 reversed $443 $-1 #
edge $-1 $317 -55.272682882168034 $460 55.272682882168034 $309 $461 forward 7 unknown #
coedge $-1 $303 $462 $193 $312 reversed $189 $-1 #
edge $-1 $463 -55.272682882168034 $316 55.272682882168034 $311 $464 forward 7 unknown #
coedge $-1 $306 $194 $462 $465 forward $315 $-1 #
coedge $-1 $194 $306 $458 $466 reversed $315 $-1 #
loop $-1 $-1 $313 $442 #
vertex $-1 $195 $467 #
vertex $-1 $195 $468 #
straight-curve $-1 55.272682882168034 0 10.572635978298333 0 1 0 I I #
face $-1 $469 $470 $46 $-1 $471 reversed single #
loop $-1 $-1 $472 $196 #
plane-surface $-1 -59.792574301343407 0 -0.95004309858776725 0 0 1 1 0 0 forward_v I I I I #
coedge $-1 $473 $199 $474 $475 reversed $125 $-1 #
coedge $-1 $199 $473 $328 $476 reversed $125 $-1 #
edge $-1 $330 -3.5845713461831652 $477 0.95004309858776725 $199 $478 forward 7 unknown #
coedge $-1 $201 $200 $472 $479 forward $79 $-1 #
coedge $-1 $480 $481 $200 $327 forward $482 $-1 #
edge $-1 $483 -0.95004309858776725 $331 3.5845713461831652 $326 $484 forward 7 unknown #
coedge $-1 $485 $202 $323 $476 forward $197 $-1 #
coedge $-1 $202 $485 $480 $486 forward $197 $-1 #
vertex $-1 $324 $487 #
vertex $-1 $486 $488 #
straight-curve $-1 -55.272682882168034 0 3.5845713461831652 0 -1 0 I I #
face $-1 $489 $490 $47 $-1 $491 reversed single #
loop $-1 $-1 $492 $204 #
plane-surface $-1 59.792574301343414 0 -0.95004309858776725 0 0 1 1 0 0 forward_v I I I I #
coedge $-1 $344 $343 $493 $494 forward $205 $-1 #
coedge $-1 $495 $207 $496 $497 reversed $129 $-1 #
coedge $-1 $207 $495 $343 $498 reversed $129 $-1 #
edge $-1 $345 -3.5845713461831652 $499 0.95004309858776725 $207 $500 forward 7 unknown #
coedge $-1 $209 $208 $501 $502 forward $82 $-1 #
coedge $-1 $503 $504 $208 $342 forward $505 $-1 #
edge $-1 $506 -0.95004309858776725 $346 3.5845713461831652 $341 $507 forward 7 unknown #
coedge $-1 $336 $210 $338 $498 forward $205 $-1 #
coedge $-1 $210 $336 $503 $508 forward $205 $-1 #
vertex $-1 $339 $509 #
vertex $-1 $508 $510 #
straight-curve $-1 55.272682882168034 0 3.5845713461831652 0 1 0 I I #
face $-1 $-1 $511 $48 $-1 $512 reversed single #
loop $-1 $-1 $218 $212 #
plane-surface $-1 0 0 10.572635978298333 0 0 1 1 0 0 forward_v I I I I #
coedge $-1 $513 $514 $515 $516 reversed $213 $-1 #
coedge $-1 $517 $215 $217 $358 forward $133 $-1 #
coedge $-1 $215 $517 $513 $518 forward $133 $-1 #
coedge $-1 $515 $218 $215 $355 forward $349 $-1 #
edge $-1 $361 14.753553758909 $519 25.904082109575192 $354 $520 forward 7 unknown #
coedge $-1 $521 $522 $216 $357 forward $511 $-1 #
edge $-1 $523 -28.646770518086022 $360 -20.987913476351455 $356 $524 forward 7 unknown #
edge $-1 $361 -9.1321399144847017 $523 6.4042811466935879e-015 $217 $525 forward 7 unknown #
coedge $-1 $218 $515 $521 $526 forward $349 $-1 #
vertex $-1 $357 $527 #
vertex $-1 $219 $528 #
straight-curve $-1 -35.082371693151096 -59.164338513669747 10.572635978298333 0 1 0 I I #
coedge $-1 $363 $363 $-1 $529 reversed $222 $-1 #
edge $-1 $530 0 $530 6.2831853071796004 $223 $531 forward 7 unknown #
vertex $-1 $226 $532 #
ellipse-curve $-1 -43.047034800769808 -23.130671574144174 6.743207457431053 0 -0.83867057594974714 0.54463902268945019 1 0 0 1 I I #
coedge $-1 $367 $367 $-1 $533 reversed $229 $-1 #
edge $-1 $534 0 $534 6.2831853071796004 $230 $535 forward 7 unknown #
vertex $-1 $233 $536 #
ellipse-curve $-1 -38.268236936198576 -23.130671574144174 6.743207457431053 0 -0.83867057594974714 0.54463902268945019 1 0 0 1 I I #
face $-1 $-1 $383 $51 $-1 $537 forward single #
loop $-1 $-1 $538 $234 #
plane-surface $-1 0 -25.61753145318831 0 0 1 0 0 0 1 forward_v I I I I #
coedge $-1 $539 $540 $541 $542 reversed $235 $-1 #
coedge $-1 $543 $237 $239 $381 forward $147 $-1 #
coedge $-1 $237 $543 $539 $544 forward $147 $-1 #
coedge $-1 $541 $240 $237 $378 forward $383 $-1 #
edge $-1 $385 -25.904082109575189 $545 -14.753553758908996 $377 $546 forward 7 unknown #
coedge $-1 $547 $548 $238 $380 forward $372 $-1 #
edge $-1 $549 -28.646770518086022 $384 -20.987913476351455 $379 $550 forward 7 unknown #
edge $-1 $385 -9.1321399144847017 $549 6.4042811466935879e-015 $239 $551 forward 7 unknown #
coedge $-1 $240 $541 $547 $552 forward $383 $-1 #
loop $-1 $-1 $541 $371 #
vertex $-1 $380 $553 #
vertex $-1 $241 $554 #
straight-curve $-1 46.232900043817281 -59.164338513669747 10.572635978298333 0 1 0 I I #
coedge $-1 $387 $387 $-1 $555 reversed $244 $-1 #
edge $-1 $556 0 $556 6.2831853071796004 $245 $557 forward 7 unknown #
vertex $-1 $248 $558 #
ellipse-curve $-1 38.268236936198569 -23.130671574144174 6.743207457431053 0 -0.83867057594974714 0.54463902268945019 1 0 0 1 I I #
coedge $-1 $391 $391 $-1 $559 reversed $251 $-1 #
edge $-1 $560 0 $560 6.2831853071796004 $252 $561 forward 7 unknown #
vertex $-1 $255 $562 #
ellipse-curve $-1 43.047034800769801 -23.130671574144174 6.743207457431053 0 -0.83867057594974714 0.54463902268945019 1 0 0 1 I I #
face $-1 $-1 $407 $54 $-1 $563 forward single #
loop $-1 $-1 $564 $256 #
plane-surface $-1 0 25.61753145318831 0 0 -1 0 0 0 -1 forward_v I I I I #
coedge $-1 $565 $566 $567 $568 reversed $257 $-1 #
coedge $-1 $569 $259 $261 $405 forward $161 $-1 #
coedge $-1 $259 $569 $565 $570 forward $161 $-1 #
coedge $-1 $567 $262 $259 $402 forward $407 $-1 #
edge $-1 $409 -25.904082109575192 $571 -14.753553758909 $401 $572 forward 7 unknown #
coedge $-1 $573 $574 $260 $404 forward $396 $-1 #
edge $-1 $575 -50.131440376342198 $408 -42.472583334607663 $403 $576 forward 7 unknown #
edge $-1 $409 42.102922991891916 $575 51.235062906376598 $261 $577 forward 7 unknown #
coedge $-1 $262 $567 $573 $578 forward $407 $-1 #
loop $-1 $-1 $567 $395 #
vertex $-1 $404 $579 #
vertex $-1 $263 $580 #
straight-curve $-1 -46.232900043817288 45.212031219289024 10.572635978298329 0 -1 0 I I #
coedge $-1 $411 $411 $-1 $581 reversed $266 $-1 #
edge $-1 $582 0 $582 6.2831853071796004 $267 $583 forward 7 unknown #
vertex $-1 $270 $584 #
ellipse-curve $-1 -43.047034800769808 23.130671574144181 6.7432074574310654 0 0.83867057594974714 0.54463902268945019 1 0 0 1 I I #
coedge $-1 $415 $415 $-1 $585 reversed $273 $-1 #
edge $-1 $586 0 $586 6.2831853071796004 $274 $587 forward 7 unknown #
vertex $-1 $277 $588 #
ellipse-curve $-1 -38.268236936198576 23.130671574144181 6.7432074574310654 0 0.83867057594974714 0.54463902268945019 1 0 0 1 I I #
face $-1 $-1 $589 $57 $-1 $590 reversed single #
loop $-1 $-1 $284 $278 #
plane-surface $-1 0 0 10.572635978298333 0 0 1 1 0 0 forward_v I I I I #
coedge $-1 $591 $592 $593 $594 reversed $279 $-1 #
coedge $-1 $595 $281 $283 $429 forward $175 $-1 #
coedge $-1 $281 $595 $591 $596 forward $175 $-1 #
coedge $-1 $593 $284 $281 $426 forward $420 $-1 #
edge $-1 $432 14.753553758908996 $597 25.904082109575189 $425 $598 forward 7 unknown #
coedge $-1 $599 $600 $282 $428 forward $589 $-1 #
edge $-1 $601 -50.131440376342198 $431 -42.472583334607663 $427 $602 forward 7 unknown #
edge $-1 $432 42.102922991891916 $601 51.235062906376598 $283 $603 forward 7 unknown #
coedge $-1 $284 $593 $599 $604 forward $420 $-1 #
vertex $-1 $285 $605 #
vertex $-1 $285 $606 #
straight-curve $-1 35.082371693151089 45.212031219289024 10.572635978298329 0 -1 0 I I #
coedge $-1 $434 $434 $-1 $607 reversed $288 $-1 #
edge $-1 $608 0 $608 6.2831853071796004 $289 $609 forward 7 unknown #
vertex $-1 $292 $610 #
ellipse-curve $-1 38.268236936198569 23.130671574144181 6.7432074574310654 0 0.83867057594974714 0.54463902268945019 1 0 0 1 I I #
coedge $-1 $438 $438 $-1 $611 reversed $295 $-1 #
edge $-1 $612 0 $612 6.2831853071796004 $296 $613 forward 7 unknown #
vertex $-1 $299 $614 #
ellipse-curve $-1 43.047034800769801 23.130671574144181 6.7432074574310654 0 0.83867057594974714 0.54463902268945019 1 0 0 1 I I #
face $-1 $-1 $315 $45 $-1 $615 reversed single #
loop $-1 $-1 $458 $300 #
plane-surface $-1 0 25.61753145318831 0 0 -1 0 0 0 -1 forward_v I I I I #
coedge $-1 $616 $456 $459 $617 forward $301 $-1 #
coedge $-1 $462 $303 $304 $450 reversed $189 $-1 #
coedge $-1 $456 $616 $303 $448 reversed $301 $-1 #
edge $-1 $463 -10.572635978298333 $618 10.572635978298333 $447 $619 forward 7 unknown #
coedge $-1 $305 $304 $616 $620 forward $121 $-1 #
edge $-1 $454 -55.272682882168034 $618 55.272682882168034 $446 $621 forward 7 unknown #
coedge $-1 $459 $458 $305 $452 reversed $443 $-1 #
edge $-1 $622 -55.272682882168034 $453 55.272682882168034 $451 $623 forward 7 unknown #
vertex $-1 $307 $624 #
vertex $-1 $465 $625 #
straight-curve $-1 55.272682882168034 0 -10.572635978298333 0 -1 0 I I #
coedge $-1 $445 $447 $308 $457 reversed $301 $-1 #
edge $-1 $460 -25.61753145318831 $463 25.61753145318831 $456 $626 forward 7 unknown #
coedge $-1 $451 $309 $314 $466 forward $443 $-1 #
coedge $-1 $309 $451 $445 $617 reversed $443 $-1 #
vertex $-1 $310 $627 #
straight-curve $-1 0 25.61753145318831 10.572635978298333 -1 0 0 I I #
coedge $-1 $311 $446 $313 $465 reversed $189 $-1 #
vertex $-1 $457 $628 #
straight-curve $-1 0 -25.61753145318831 10.572635978298333 1 0 0 I I #
edge $-1 $316 -10.572635978298333 $454 10.572635978298333 $313 $629 forward 7 unknown #
edge $-1 $317 -10.572635978298333 $453 10.572635978298333 $314 $630 forward 7 unknown #
point $-1 55.272682882168034 -25.61753145318831 10.572635978298333 #
point $-1 55.272682882168034 25.61753145318831 10.572635978298333 #
face $-1 $-1 $482 $46 $-1 $631 reversed single #
loop $-1 $-1 $632 $319 #
plane-surface $-1 -64.312465720518773 0 1.317264123797699 1 0 0 0 0 -1 forward_v I I I I #
coedge $-1 $633 $474 $325 $479 reversed $320 $-1 #
coedge $-1 $323 $322 $632 $634 reversed $125 $-1 #
coedge $-1 $472 $635 $322 $475 forward $320 $-1 #
edge $-1 $636 -4.5198914191753659 $477 4.519891419175373 $322 $637 forward 7 unknown #
edge $-1 $330 -4.519891419175373 $638 4.5198914191753659 $323 $639 forward 7 unknown #
vertex $-1 $324 $640 #
straight-curve $-1 -55.272682882168034 25.61753145318831 0 0 0 -1 I I #
edge $-1 $483 -25.61753145318831 $477 25.61753145318831 $472 $641 forward 7 unknown #
coedge $-1 $642 $326 $329 $486 reversed $482 $-1 #
coedge $-1 $326 $642 $633 $643 reversed $482 $-1 #
loop $-1 $-1 $326 $469 #
vertex $-1 $327 $644 #
straight-curve $-1 -55.272682882168034 -25.61753145318831 0 0 0 1 I I #
coedge $-1 $329 $328 $645 $646 forward $197 $-1 #
edge $-1 $647 -4.5198914191753659 $331 4.519891419175373 $480 $648 forward 7 unknown #
point $-1 -55.272682882168034 25.61753145318831 3.5845713461831652 #
point $-1 -55.272682882168034 -25.61753145318831 3.5845713461831652 #
face $-1 $-1 $505 $47 $-1 $649 reversed single #
loop $-1 $-1 $650 $333 #
plane-surface $-1 64.312465720518787 0 1.317264123797699 -1 0 0 0 0 1 forward_v I I I I #
coedge $-1 $496 $651 $652 $653 forward $334 $-1 #
coedge $-1 $650 $654 $336 $494 reversed $490 $-1 #
edge $-1 $655 -25.61753145318831 $656 25.61753145318831 $493 $657 forward 7 unknown #
coedge $-1 $338 $337 $650 $658 reversed $129 $-1 #
coedge $-1 $501 $492 $337 $497 forward $334 $-1 #
edge $-1 $659 -4.519891419175373 $499 4.519891419175373 $337 $660 forward 7 unknown #
edge $-1 $345 -4.519891419175373 $655 4.519891419175373 $338 $661 forward 7 unknown #
vertex $-1 $339 $662 #
straight-curve $-1 55.272682882168034 -25.61753145318831 0 0 0 -1 I I #
coedge $-1 $651 $496 $340 $502 reversed $334 $-1 #
edge $-1 $506 -25.61753145318831 $499 25.61753145318831 $501 $663 forward 7 unknown #
coedge $-1 $664 $341 $344 $508 reversed $505 $-1 #
coedge $-1 $341 $664 $651 $665 reversed $505 $-1 #
loop $-1 $-1 $341 $489 #
vertex $-1 $342 $666 #
straight-curve $-1 55.272682882168034 25.61753145318831 0 0 0 1 I I #
edge $-1 $656 -4.519891419175373 $346 4.519891419175373 $503 $667 forward 7 unknown #
point $-1 55.272682882168041 -25.61753145318831 3.5845713461831652 #
point $-1 55.272682882168041 25.61753145318831 3.5845713461831652 #
loop $-1 $-1 $356 $348 #
plane-surface $-1 0 -25.61753145318831 0 0 1 0 0 0 1 forward_v I I I I #
coedge $-1 $514 $351 $353 $518 reversed $213 $-1 #
coedge $-1 $351 $513 $668 $669 reversed $213 $-1 #
coedge $-1 $359 $354 $351 $516 forward $349 $-1 #
edge $-1 $519 -38.520526818569707 $670 -33.546807060481441 $515 $671 forward 7 unknown #
coedge $-1 $353 $352 $522 $672 reversed $133 $-1 #
edge $-1 $673 -6.4042811466935879e-015 $519 9.1321399144847017 $513 $674 forward 7 unknown #
vertex $-1 $355 $675 #
straight-curve $-1 -20.328817934242096 -20.643811695100041 10.572635978298333 -1 0 0 I I #
coedge $-1 $668 $356 $359 $526 reversed $511 $-1 #
coedge $-1 $356 $668 $517 $672 forward $511 $-1 #
vertex $-1 $357 $676 #
straight-curve $-1 -35.082371693151096 -25.617531453188306 31.560549454649788 0 0 1 I I #
straight-curve $-1 -35.082371693151096 -25.617531453188306 2.913778936563773 0 -0.54463902268945019 -0.83867057594974714 I I #
edge $-1 $670 -46.232900043817288 $360 -35.082371693151096 $521 $677 forward 7 unknown #
point $-1 -35.082371693151096 -25.61753145318831 10.572635978298333 #
point $-1 -35.082371693151096 -20.643811695100041 10.572635978298333 #
edge $-1 $678 1 $678 0 $363 $-1 forward 7 unknown #
vertex $-1 $364 $679 #
ellipse-curve $-1 -43.047034800769808 -20.852437172585812 5.2637047855779526 0 -0.83867057594974714 0.54463902268945019 1 0 0 1 I I #
point $-1 -42.047034800769808 -23.130671574144177 6.7432074574310565 #
edge $-1 $680 1 $680 0 $367 $-1 forward 7 unknown #
vertex $-1 $368 $681 #
ellipse-curve $-1 -38.268236936198576 -20.852437172585812 5.2637047855779526 0 -0.83867057594974714 0.54463902268945019 1 0 0 1 I I #
point $-1 -37.268236936198576 -23.130671574144177 6.7432074574310565 #
plane-surface $-1 0 0 10.572635978298333 0 0 1 1 0 0 forward_v I I I I #
coedge $-1 $548 $547 $540 $682 forward $372 $-1 #
coedge $-1 $540 $374 $376 $544 reversed $235 $-1 #
coedge $-1 $374 $539 $538 $682 reversed $235 $-1 #
coedge $-1 $382 $377 $374 $542 forward $383 $-1 #
edge $-1 $545 -38.520526818569707 $683 -33.546807060481441 $541 $684 forward 7 unknown #
coedge $-1 $376 $375 $548 $685 reversed $147 $-1 #
edge $-1 $686 -6.4042811466935879e-015 $545 9.1321399144847017 $539 $687 forward 7 unknown #
vertex $-1 $378 $688 #
straight-curve $-1 20.328817934242092 -20.643811695100041 10.572635978298333 -1 0 0 I I #
coedge $-1 $538 $379 $382 $552 reversed $372 $-1 #
coedge $-1 $379 $538 $543 $685 forward $372 $-1 #
vertex $-1 $380 $689 #
straight-curve $-1 46.232900043817281 -25.617531453188306 31.560549454649788 0 0 1 I I #
straight-curve $-1 46.232900043817281 -25.617531453188306 2.913778936563773 0 -0.54463902268945019 -0.83867057594974714 I I #
edge $-1 $683 35.082371693151089 $384 46.232900043817281 $547 $690 forward 7 unknown #
point $-1 46.232900043817281 -25.61753145318831 10.572635978298333 #
point $-1 46.232900043817281 -20.643811695100041 10.572635978298333 #
edge $-1 $691 1 $691 0 $387 $-1 forward 7 unknown #
vertex $-1 $388 $692 #
ellipse-curve $-1 38.268236936198569 -20.852437172585812 5.2637047855779526 0 -0.83867057594974714 0.54463902268945019 1 0 0 1 I I #
point $-1 39.268236936198569 -23.130671574144177 6.7432074574310565 #
edge $-1 $693 1 $693 0 $391 $-1 forward 7 unknown #
vertex $-1 $392 $694 #
ellipse-curve $-1 43.047034800769801 -20.852437172585812 5.2637047855779526 0 -0.83867057594974714 0.54463902268945019 1 0 0 1 I I #
point $-1 44.047034800769801 -23.130671574144177 6.7432074574310565 #
plane-surface $-1 0 0 10.572635978298333 0 0 1 1 0 0 forward_v I I I I #
coedge $-1 $574 $573 $566 $695 forward $396 $-1 #
coedge $-1 $566 $398 $400 $570 reversed $257 $-1 #
coedge $-1 $398 $565 $564 $695 reversed $257 $-1 #
coedge $-1 $406 $401 $398 $568 forward $407 $-1 #
edge $-1 $571 -24.568219524188969 $696 -19.594499766100714 $567 $697 forward 7 unknown #
coedge $-1 $400 $399 $574 $698 reversed $161 $-1 #
edge $-1 $699 -51.235062906376598 $571 -42.102922991891916 $565 $700 forward 7 unknown #
vertex $-1 $402 $701 #
straight-curve $-1 -20.328817934242096 20.643811695100055 10.572635978298333 1 0 0 I I #
coedge $-1 $564 $403 $406 $578 reversed $396 $-1 #
coedge $-1 $403 $564 $569 $698 forward $396 $-1 #
vertex $-1 $404 $702 #
straight-curve $-1 -46.232900043817288 25.617531453188306 53.045219312905992 0 0 1 I I #
straight-curve $-1 -46.232900043817288 -2.2870831355731411 45.883118653076181 0 0.54463902268945019 -0.83867057594974714 I I #
edge $-1 $696 35.082371693151096 $408 46.232900043817288 $573 $703 forward 7 unknown #
point $-1 -46.232900043817288 25.61753145318831 10.572635978298333 #
point $-1 -46.232900043817288 20.643811695100055 10.572635978298337 #
edge $-1 $704 1 $704 0 $411 $-1 forward 7 unknown #
vertex $-1 $412 $705 #
ellipse-curve $-1 -43.047034800769808 20.852437172585812 5.2637047855779597 0 0.83867057594974714 0.54463902268945019 1 0 0 1 I I #
point $-1 -42.047034800769808 23.130671574144177 6.7432074574310636 #
edge $-1 $706 1 $706 0 $415 $-1 forward 7 unknown #
vertex $-1 $416 $707 #
ellipse-curve $-1 -38.268236936198576 20.852437172585812 5.2637047855779597 0 0.83867057594974714 0.54463902268945019 1 0 0 1 I I #
point $-1 -37.268236936198576 23.130671574144177 6.7432074574310636 #
loop $-1 $-1 $427 $419 #
plane-surface $-1 0 25.61753145318831 0 0 -1 0 0 0 -1 forward_v I I I I #
coedge $-1 $592 $422 $424 $596 reversed $279 $-1 #
coedge $-1 $422 $591 $708 $709 reversed $279 $-1 #
coedge $-1 $430 $425 $422 $594 forward $420 $-1 #
edge $-1 $597 -24.568219524188969 $710 -19.594499766100714 $593 $711 forward 7 unknown #
coedge $-1 $424 $423 $600 $712 reversed $175 $-1 #
edge $-1 $713 -51.235062906376598 $597 -42.102922991891916 $591 $714 forward 7 unknown #
vertex $-1 $426 $715 #
straight-curve $-1 20.328817934242092 20.643811695100055 10.572635978298333 1 0 0 I I #
coedge $-1 $708 $427 $430 $604 reversed $589 $-1 #
coedge $-1 $427 $708 $595 $712 forward $589 $-1 #
vertex $-1 $428 $716 #
straight-curve $-1 35.082371693151089 25.617531453188306 53.045219312905992 0 0 1 I I #
straight-curve $-1 35.082371693151089 -2.2870831355731411 45.883118653076181 0 0.54463902268945019 -0.83867057594974714 I I #
edge $-1 $710 -46.232900043817281 $431 -35.082371693151089 $599 $717 forward 7 unknown #
point $-1 35.082371693151089 25.61753145318831 10.572635978298333 #
point $-1 35.082371693151089 20.643811695100055 10.572635978298337 #
edge $-1 $718 1 $718 0 $434 $-1 forward 7 unknown #
vertex $-1 $435 $719 #
ellipse-curve $-1 38.268236936198569 20.852437172585812 5.2637047855779597 0 0.83867057594974714 0.54463902268945019 1 0 0 1 I I #
point $-1 39.268236936198569 23.130671574144177 6.7432074574310636 #
edge $-1 $720 1 $720 0 $438 $-1 forward 7 unknown #
vertex $-1 $439 $721 #
ellipse-curve $-1 43.047034800769801 20.852437172585812 5.2637047855779597 0 0.83867057594974714 0.54463902268945019 1 0 0 1 I I #
point $-1 44.047034800769801 23.130671574144177 6.7432074574310636 #
plane-surface $-1 55.272682882168034 0 0 -1 0 0 0 0 1 forward_v I I I I #
coedge $-1 $447 $445 $449 $620 reversed $301 $-1 #
edge $-1 $460 -10.572635978298333 $622 10.572635978298333 $459 $722 forward 7 unknown #
vertex $-1 $620 $723 #
straight-curve $-1 -55.272682882168034 -25.61753145318831 0 0 0 -1 I I #
edge $-1 $618 -25.61753145318831 $622 25.61753145318831 $616 $724 forward 7 unknown #
straight-curve $-1 0 -25.61753145318831 -10.572635978298333 -1 0 0 I I #
vertex $-1 $452 $725 #
straight-curve $-1 0 25.61753145318831 -10.572635978298333 1 0 0 I I #
point $-1 55.272682882168034 25.61753145318831 -10.572635978298333 #
point $-1 55.272682882168034 -25.61753145318831 -10.572635978298333 #
straight-curve $-1 -55.272682882168034 0 10.572635978298333 0 -1 0 I I #
point $-1 -55.272682882168034 25.61753145318831 10.572635978298333 #
point $-1 -55.272682882168034 -25.61753145318831 10.572635978298333 #
straight-curve $-1 55.272682882168034 -25.61753145318831 0 0 0 -1 I I #
straight-curve $-1 55.272682882168034 25.61753145318831 0 0 0 -1 I I #
plane-surface $-1 0 -25.61753145318831 0 0 1 0 0 0 1 forward_v I I I I #
coedge $-1 $726 $645 $473 $634 forward $470 $-1 #
coedge $-1 $635 $472 $481 $643 forward $320 $-1 #
edge $-1 $638 -2.2673072223854662 $636 2.2673072223854662 $473 $727 forward 7 unknown #
coedge $-1 $474 $633 $726 $728 forward $320 $-1 #
vertex $-1 $475 $729 #
straight-curve $-1 -59.792574301343407 25.61753145318831 -0.95004309858776725 1 0 0 I I #
vertex $-1 $476 $730 #
straight-curve $-1 -59.792574301343407 25.61753145318831 3.5845713461831652 -1 0 0 I I #
point $-1 -55.272682882168034 25.61753145318831 -0.95004309858776725 #
straight-curve $-1 -55.272682882168034 0 -0.95004309858776725 0 1 0 I I #
coedge $-1 $481 $480 $731 $732 forward $482 $-1 #
edge $-1 $483 -4.519891419175373 $733 4.5198914191753659 $481 $734 forward 7 unknown #
point $-1 -55.272682882168034 -25.61753145318831 -0.95004309858776725 #
coedge $-1 $632 $731 $485 $646 reversed $470 $-1 #
edge $-1 $638 -25.61753145318831 $647 25.61753145318831 $645 $735 forward 7 unknown #
vertex $-1 $646 $736 #
straight-curve $-1 -59.792574301343407 -25.61753145318831 3.5845713461831652 1 0 0 I I #
plane-surface $-1 0 25.61753145318831 0 0 -1 0 0 0 -1 forward_v I I I I #
coedge $-1 $652 $493 $495 $658 forward $490 $-1 #
coedge $-1 $492 $501 $504 $665 forward $334 $-1 #
coedge $-1 $654 $650 $492 $653 reversed $490 $-1 #
edge $-1 $737 -25.61753145318831 $659 25.61753145318831 $652 $738 forward 7 unknown #
coedge $-1 $493 $652 $664 $739 reversed $490 $-1 #
vertex $-1 $494 $740 #
vertex $-1 $494 $741 #
straight-curve $-1 64.312465720518787 0 3.5845713461831652 0 1 0 I I #
edge $-1 $655 -2.2673072223854662 $659 2.2673072223854662 $650 $742 forward 7 unknown #
vertex $-1 $658 $743 #
straight-curve $-1 59.792574301343414 -25.61753145318831 -0.95004309858776725 -1 0 0 I I #
straight-curve $-1 59.792574301343414 -25.61753145318831 3.5845713461831652 1 0 0 I I #
point $-1 55.272682882168041 -25.61753145318831 -0.95004309858776725 #
straight-curve $-1 55.272682882168034 0 -0.95004309858776725 0 -1 0 I I #
coedge $-1 $504 $503 $654 $739 forward $505 $-1 #
edge $-1 $506 -4.519891419175373 $737 4.519891419175373 $504 $744 forward 7 unknown #
point $-1 55.272682882168041 25.61753145318831 -0.95004309858776725 #
straight-curve $-1 59.792574301343414 25.61753145318831 3.5845713461831652 -1 0 0 I I #
coedge $-1 $522 $521 $514 $669 forward $511 $-1 #
edge $-1 $670 20.987913476351455 $673 28.646770518086022 $668 $745 forward 7 unknown #
vertex $-1 $526 $746 #
straight-curve $-1 -46.232900043817288 -59.164338513669747 10.572635978298333 0 -1 0 I I #
edge $-1 $673 -25.904082109575192 $523 -14.753553758909 $522 $747 forward 7 unknown #
vertex $-1 $672 $748 #
straight-curve $-1 -46.232900043817288 -25.617531453188306 2.913778936563773 0 0.54463902268945019 0.83867057594974714 I I #
point $-1 -46.232900043817288 -20.643811695100041 10.572635978298333 #
point $-1 -35.082371693151096 -25.61753145318831 2.9137789365637676 #
straight-curve $-1 0 -25.61753145318831 10.572635978298333 1 0 0 I I #
vertex $-1 $529 $749 #
point $-1 -42.047034800769808 -20.852437172585812 5.2637047855779526 #
vertex $-1 $533 $750 #
point $-1 -37.268236936198576 -20.852437172585812 5.2637047855779526 #
edge $-1 $683 20.987913476351455 $686 28.646770518086022 $538 $751 forward 7 unknown #
vertex $-1 $552 $752 #
straight-curve $-1 35.082371693151089 -59.164338513669747 10.572635978298333 0 -1 0 I I #
edge $-1 $686 14.753553758908996 $549 25.904082109575189 $548 $753 forward 7 unknown #
vertex $-1 $685 $754 #
straight-curve $-1 35.082371693151089 -25.617531453188306 2.913778936563773 0 0.54463902268945019 0.83867057594974714 I I #
point $-1 35.082371693151089 -20.643811695100041 10.572635978298333 #
point $-1 46.232900043817281 -25.61753145318831 2.9137789365637676 #
straight-curve $-1 0 -25.61753145318831 10.572635978298333 1 0 0 I I #
vertex $-1 $555 $755 #
point $-1 39.268236936198569 -20.852437172585812 5.2637047855779526 #
vertex $-1 $559 $756 #
point $-1 44.047034800769801 -20.852437172585812 5.2637047855779526 #
edge $-1 $696 42.472583334607663 $699 50.131440376342198 $564 $757 forward 7 unknown #
vertex $-1 $578 $758 #
straight-curve $-1 -35.082371693151096 45.212031219289024 10.572635978298329 0 1 0 I I #
edge $-1 $699 14.753553758909 $575 25.904082109575192 $574 $759 forward 7 unknown #
vertex $-1 $698 $760 #
straight-curve $-1 -35.082371693151096 -2.2870831355731411 45.883118653076181 0 -0.54463902268945019 0.83867057594974714 I I #
point $-1 -35.082371693151096 20.643811695100055 10.572635978298337 #
point $-1 -46.232900043817288 25.61753145318831 2.9137789365637943 #
straight-curve $-1 0 25.61753145318831 10.572635978298333 -1 0 0 I I #
vertex $-1 $581 $761 #
point $-1 -42.047034800769808 20.852437172585812 5.2637047855779597 #
vertex $-1 $585 $762 #
point $-1 -37.268236936198576 20.852437172585812 5.2637047855779597 #
coedge $-1 $600 $599 $592 $709 forward $589 $-1 #
edge $-1 $710 42.472583334607663 $713 50.131440376342198 $708 $763 forward 7 unknown #
vertex $-1 $604 $764 #
straight-curve $-1 46.232900043817281 45.212031219289024 10.572635978298329 0 1 0 I I #
edge $-1 $713 -25.904082109575189 $601 -14.753553758908996 $600 $765 forward 7 unknown #
vertex $-1 $712 $766 #
straight-curve $-1 46.232900043817281 -2.2870831355731411 45.883118653076181 0 -0.54463902268945019 0.83867057594974714 I I #
point $-1 46.232900043817281 20.643811695100055 10.572635978298337 #
point $-1 35.082371693151089 25.61753145318831 2.9137789365637943 #
straight-curve $-1 0 25.61753145318831 10.572635978298333 -1 0 0 I I #
vertex $-1 $607 $767 #
point $-1 39.268236936198569 20.852437172585812 5.2637047855779597 #
vertex $-1 $611 $768 #
point $-1 44.047034800769801 20.852437172585812 5.2637047855779597 #
straight-curve $-1 -55.272682882168034 25.61753145318831 0 0 0 -1 I I #
point $-1 -55.272682882168034 -25.61753145318831 -10.572635978298333 #
straight-curve $-1 -55.272682882168034 0 -10.572635978298333 0 1 0 I I #
point $-1 -55.272682882168034 25.61753145318831 -10.572635978298333 #
coedge $-1 $731 $632 $635 $728 reversed $470 $-1 #
straight-curve $-1 -64.312465720518773 25.61753145318831 1.317264123797699 0 0 -1 I I #
edge $-1 $733 -25.61753145318831 $636 25.61753145318831 $726 $769 forward 7 unknown #
point $-1 -64.312465720518773 25.61753145318831 -0.95004309858776725 #
point $-1 -64.312465720518773 25.61753145318831 3.5845713461831652 #
coedge $-1 $645 $726 $642 $732 reversed $470 $-1 #
edge $-1 $647 -2.2673072223854662 $733 2.2673072223854662 $731 $770 forward 7 unknown #
vertex $-1 $728 $771 #
straight-curve $-1 -59.792574301343407 -25.61753145318831 -0.95004309858776725 -1 0 0 I I #
straight-curve $-1 -64.312465720518773 0 3.5845713461831652 0 -1 0 I I #
point $-1 -64.312465720518773 -25.61753145318831 3.5845713461831652 #
vertex $-1 $653 $772 #
straight-curve $-1 64.312465720518787 0 -0.95004309858776725 0 -1 0 I I #
edge $-1 $656 -2.2673072223854662 $737 2.2673072223854662 $654 $773 forward 7 unknown #
point $-1 64.312465720518787 -25.61753145318831 3.5845713461831652 #
point $-1 64.312465720518787 25.61753145318831 3.5845713461831652 #
straight-curve $-1 64.312465720518787 -25.61753145318831 1.317264123797699 0 0 -1 I I #
point $-1 64.312465720518787 -25.61753145318831 -0.95004309858776725 #
straight-curve $-1 59.792574301343414 25.61753145318831 -0.95004309858776725 1 0 0 I I #
straight-curve $-1 -46.232900043817288 -25.617531453188306 31.560549454649788 0 0 -1 I I #
point $-1 -46.232900043817288 -25.61753145318831 10.572635978298333 #
straight-curve $-1 -20.328817934242096 -25.61753145318831 2.9137789365637623 1 0 0 I I #
point $-1 -46.232900043817288 -25.61753145318831 2.9137789365637676 #
point $-1 -43.047034800769808 -20.013766596636064 4.7190657628885022 #
point $-1 -38.268236936198576 -20.013766596636064 4.7190657628885022 #
straight-curve $-1 35.082371693151089 -25.617531453188306 31.560549454649788 0 0 -1 I I #
point $-1 35.082371693151089 -25.61753145318831 10.572635978298333 #
straight-curve $-1 20.328817934242092 -25.61753145318831 2.9137789365637623 1 0 0 I I #
point $-1 35.082371693151089 -25.61753145318831 2.9137789365637676 #
point $-1 38.268236936198569 -20.013766596636064 4.7190657628885022 #
point $-1 43.047034800769801 -20.013766596636064 4.7190657628885022 #
straight-curve $-1 -35.082371693151096 25.617531453188306 53.045219312905992 0 0 -1 I I #
point $-1 -35.082371693151096 25.61753145318831 10.572635978298333 #
straight-curve $-1 -20.328817934242096 25.617531453188306 2.9137789365637943 -1 0 0 I I #
point $-1 -35.082371693151096 25.61753145318831 2.9137789365637943 #
point $-1 -43.047034800769808 20.013766596636064 4.7190657628885093 #
point $-1 -38.268236936198576 20.013766596636064 4.7190657628885093 #
straight-curve $-1 46.232900043817281 25.617531453188306 53.045219312905992 0 0 -1 I I #
point $-1 46.232900043817281 25.61753145318831 10.572635978298333 #
straight-curve $-1 20.328817934242092 25.617531453188306 2.9137789365637943 -1 0 0 I I #
point $-1 46.232900043817281 25.61753145318831 2.9137789365637943 #
point $-1 38.268236936198569 20.013766596636064 4.7190657628885093 #
point $-1 43.047034800769801 20.013766596636064 4.7190657628885093 #
straight-curve $-1 -64.312465720518773 0 -0.95004309858776725 0 1 0 I I #
straight-curve $-1 -64.312465720518773 -25.61753145318831 1.317264123797699 0 0 -1 I I #
point $-1 -64.312465720518773 -25.61753145318831 -0.95004309858776725 #
point $-1 64.312465720518787 25.61753145318831 -0.95004309858776725 #
straight-curve $-1 64.312465720518787 25.61753145318831 1.317264123797699 0 0 -1 I I #
End-of-ACIS-data 