500 0 12 0           
7 Unknown 11 ACIS 5.0 NT 24 Fri Mar 26 00:09:30 1999 
-1 9.9999999999999995e-007 1e-010 
body $-1 $12 $-1 $13 #
body $-1 $14 $-1 $15 #
body $-1 $16 $-1 $17 #
body $-1 $18 $-1 $19 #
body $-1 $20 $-1 $21 #
body $-1 $22 $-1 $23 #
body $-1 $24 $-1 $25 #
body $-1 $26 $-1 $27 #
body $-1 $28 $-1 $29 #
body $-1 $30 $-1 $31 #
body $-1 $32 $-1 $33 #
body $-1 $34 $-1 $35 #
lump $-1 $-1 $36 $0 #
transform $-1 1 0 0 0 1 0 0 0 1 40.336924344615007 16.468623123333217 5.4126268197305958 1 rotate no_reflect no_shear #
lump $-1 $-1 $37 $1 #
transform $-1 1 0 0 0 1 0 0 0 1 40.336924344615007 16.468623123333217 5.4126268197305958 1 rotate no_reflect no_shear #
lump $-1 $-1 $38 $2 #
transform $-1 1 0 0 0 1 0 0 0 1 40.336924344615007 16.468623123333217 5.4126268197305958 1 rotate no_reflect no_shear #
lump $-1 $-1 $39 $3 #
transform $-1 1 0 0 0 1 0 0 0 1 40.336924344615007 16.468623123333217 5.4126268197305958 1 rotate no_reflect no_shear #
lump $-1 $-1 $40 $4 #
transform $-1 1 0 0 0 1 0 0 0 1 40.336924344615007 16.468623123333217 5.4126268197305958 1 rotate no_reflect no_shear #
lump $-1 $-1 $41 $5 #
transform $-1 1 0 0 0 1 0 0 0 1 40.336924344615007 16.468623123333217 5.4126268197305958 1 rotate no_reflect no_shear #
lump $-1 $-1 $42 $6 #
transform $-1 1 0 0 0 1 0 0 0 1 40.336924344615007 16.468623123333217 5.4126268197305958 1 rotate no_reflect no_shear #
lump $-1 $-1 $43 $7 #
transform $-1 1 0 0 0 1 0 0 0 1 40.336924344615007 16.468623123333217 5.4126268197305958 1 rotate no_reflect no_shear #
lump $-1 $-1 $44 $8 #
transform $-1 1 0 0 0 1 0 0 0 1 40.336924344615007 16.468623123333217 5.4126268197305958 1 rotate no_reflect no_shear #
lump $-1 $-1 $45 $9 #
transform $-1 1 0 0 0 1 0 0 0 1 40.336924344615007 16.468623123333217 5.4126268197305958 1 rotate no_reflect no_shear #
lump $-1 $-1 $46 $10 #
transform $-1 1 0 0 0 1 0 0 0 1 40.336924344615007 16.468623123333217 5.4126268197305958 1 rotate no_reflect no_shear #
lump $-1 $-1 $47 $11 #
transform $-1 1 0 0 0 1 0 0 0 1 40.336924344615007 16.468623123333217 5.4126268197305958 1 rotate no_reflect no_shear #
shell $-1 $-1 $-1 $48 $-1 $12 #
shell $-1 $-1 $-1 $49 $-1 $14 #
shell $-1 $-1 $-1 $50 $-1 $16 #
shell $-1 $-1 $-1 $51 $-1 $18 #
shell $-1 $-1 $-1 $52 $-1 $20 #
shell $-1 $-1 $-1 $53 $-1 $22 #
shell $-1 $-1 $-1 $54 $-1 $24 #
shell $-1 $-1 $-1 $55 $-1 $26 #
shell $-1 $-1 $-1 $56 $-1 $28 #
shell $-1 $-1 $-1 $57 $-1 $30 #
shell $-1 $-1 $-1 $58 $-1 $32 #
shell $-1 $-1 $-1 $59 $-1 $34 #
face $-1 $60 $61 $36 $-1 $62 forward single #
face $-1 $63 $64 $37 $-1 $65 reversed single #
face $-1 $66 $67 $38 $-1 $68 forward single #
face $-1 $69 $70 $39 $-1 $71 forward single #
face $-1 $72 $73 $40 $-1 $74 forward single #
face $-1 $75 $76 $41 $-1 $77 reversed single #
face $-1 $78 $79 $42 $-1 $80 forward single #
face $-1 $81 $82 $43 $-1 $83 forward single #
face $-1 $84 $85 $44 $-1 $86 forward single #
face $-1 $87 $88 $45 $-1 $89 reversed single #
face $-1 $90 $91 $46 $-1 $92 forward single #
face $-1 $93 $94 $47 $-1 $95 forward single #
face $-1 $96 $97 $36 $-1 $98 reversed single #
loop $-1 $-1 $99 $48 #
plane-surface $-1 0 0 5.4126268197305958 0 0 1 1 0 0 forward_v I I I I #
face $-1 $100 $101 $37 $-1 $102 reversed single #
loop $-1 $-1 $103 $49 #
plane-surface $-1 32.378405904526552 -2.8536797790315513 114.05378631909647 0 -1 0 -0.6560590369687036 0 -0.75470957328743171 forward_v I I I I #
face $-1 $104 $105 $38 $-1 $106 forward single #
loop $-1 $107 $108 $50 #
cone-surface $-1 36.97254433694944 -8.2829718881751671 2.3783609555807663 -0.6560590369687036 0 -0.75470957328743171 0.37735478664371586 0 -0.3280295184843518 1 I I 0 1 0.5 forward I I I I #
face $-1 $109 $110 $39 $-1 $111 forward single #
loop $-1 $112 $113 $51 #
cone-surface $-1 36.97254433694944 -6.2469873472463107 2.3783609555807663 -0.6560590369687036 0 -0.75470957328743171 0.37735478664371586 0 -0.3280295184843518 1 I I 0 1 0.5 forward I I I I #
face $-1 $114 $115 $40 $-1 $116 forward single #
loop $-1 $117 $118 $52 #
cone-surface $-1 36.97254433694944 -4.211002806317456 2.3783609555807663 -0.6560590369687036 0 -0.75470957328743171 0.37735478664371586 0 -0.3280295184843518 1 I I 0 1 0.5 forward I I I I #
face $-1 $119 $120 $41 $-1 $121 reversed single #
loop $-1 $-1 $122 $53 #
plane-surface $-1 32.378405904526552 13.614943344301665 114.05378631909647 0 -1 0 -0.6560590369687036 0 -0.75470957328743171 forward_v I I I I #
face $-1 $123 $124 $42 $-1 $125 forward single #
loop $-1 $126 $127 $54 #
cone-surface $-1 36.97254433694944 8.1856512351580477 2.3783609555807663 -0.6560590369687036 0 -0.75470957328743171 0.37735478664371586 0 -0.3280295184843518 1 I I 0 1 0.5 forward I I I I #
face $-1 $128 $129 $43 $-1 $130 forward single #
loop $-1 $131 $132 $55 #
cone-surface $-1 36.97254433694944 10.221635776086906 2.3783609555807663 -0.6560590369687036 0 -0.75470957328743171 0.37735478664371586 0 -0.3280295184843518 1 I I 0 1 0.5 forward I I I I #
face $-1 $133 $134 $44 $-1 $135 forward single #
loop $-1 $136 $137 $56 #
cone-surface $-1 36.97254433694944 12.25762031701576 2.3783609555807663 -0.6560590369687036 0 -0.75470957328743171 0.37735478664371586 0 -0.3280295184843518 1 I I 0 1 0.5 forward I I I I #
face $-1 $138 $139 $45 $-1 $140 reversed single #
loop $-1 $-1 $141 $57 #
plane-surface $-1 -105.60343959605143 -11.255412385777962 49.480899430246254 0 1 0 -0.80901700255871778 0 0.5877852410284794 forward_v I I I I #
face $-1 $142 $143 $46 $-1 $144 forward single #
loop $-1 $145 $146 $58 #
cone-surface $-1 -38.383050938504923 -9.4960827254812905 3.2020794218313129 0.80901700255871778 0 -0.5877852410284794 0.2938926205142397 0 0.40450850127935889 1 I I 0 1 0.5 forward I I I I #
face $-1 $147 $148 $47 $-1 $149 forward single #
loop $-1 $150 $151 $59 #
cone-surface $-1 -38.383050938504923 -6.8570882350362794 3.2020794218313129 0.80901700255871778 0 -0.5877852410284794 0.2938926205142397 0 0.40450850127935889 1 I I 0 1 0.5 forward I I I I #
face $-1 $152 $153 $36 $-1 $154 reversed single #
loop $-1 $-1 $155 $60 #
plane-surface $-1 0 0 -5.4126268197305958 0 0 1 1 0 0 forward_v I I I I #
coedge $-1 $156 $157 $158 $159 forward $61 $-1 #
face $-1 $160 $161 $37 $-1 $162 reversed single #
loop $-1 $-1 $163 $63 #
plane-surface $-1 -20.548401575088604 -6.2469873472463107 53.168460399392856 0.6560590369687036 0 0.75470957328743171 0.75470957328743171 0 -0.6560590369687036 forward_v I I I I #
coedge $-1 $164 $165 $166 $167 reversed $64 $-1 #
face $-1 $-1 $168 $38 $-1 $169 forward single #
loop $-1 $170 $171 $66 #
cone-surface $-1 36.418412011075695 -8.2829718881751671 1.7409046480855341 -0.6560590369687036 0 -0.75470957328743171 0.18867739332185793 0 -0.1640147592421759 1 I I -0.70710678118654746 0.70710678118654746 0.25 forward I I I I #
loop $-1 $-1 $172 $50 #
coedge $-1 $108 $108 $173 $174 reversed $67 $-1 #
face $-1 $-1 $175 $39 $-1 $176 forward single #
loop $-1 $177 $178 $69 #
cone-surface $-1 36.418412011075695 -6.2469873472463107 1.7409046480855341 -0.6560590369687036 0 -0.75470957328743171 0.18867739332185793 0 -0.1640147592421759 1 I I -0.70710678118654746 0.70710678118654746 0.25 forward I I I I #
loop $-1 $-1 $179 $51 #
coedge $-1 $113 $113 $180 $181 reversed $70 $-1 #
face $-1 $-1 $182 $40 $-1 $183 forward single #
loop $-1 $184 $185 $72 #
cone-surface $-1 36.418412011075695 -4.211002806317456 1.7409046480855341 -0.6560590369687036 0 -0.75470957328743171 0.18867739332185793 0 -0.1640147592421759 1 I I -0.70710678118654746 0.70710678118654746 0.25 forward I I I I #
loop $-1 $-1 $186 $52 #
coedge $-1 $118 $118 $187 $188 reversed $73 $-1 #
face $-1 $189 $190 $41 $-1 $191 reversed single #
loop $-1 $-1 $192 $75 #
plane-surface $-1 -20.548401575088604 10.221635776086906 53.168460399392856 0.6560590369687036 0 0.75470957328743171 0.75470957328743171 0 -0.6560590369687036 forward_v I I I I #
coedge $-1 $193 $194 $195 $196 reversed $76 $-1 #
face $-1 $-1 $197 $42 $-1 $198 forward single #
loop $-1 $199 $200 $78 #
cone-surface $-1 36.418412011075695 8.1856512351580477 1.7409046480855341 -0.6560590369687036 0 -0.75470957328743171 0.18867739332185793 0 -0.1640147592421759 1 I I -0.70710678118654746 0.70710678118654746 0.25 forward I I I I #
loop $-1 $-1 $201 $54 #
coedge $-1 $127 $127 $202 $203 reversed $79 $-1 #
face $-1 $-1 $204 $43 $-1 $205 forward single #
loop $-1 $206 $207 $81 #
cone-surface $-1 36.418412011075695 10.221635776086906 1.7409046480855341 -0.6560590369687036 0 -0.75470957328743171 0.18867739332185793 0 -0.1640147592421759 1 I I -0.70710678118654746 0.70710678118654746 0.25 forward I I I I #
loop $-1 $-1 $208 $55 #
coedge $-1 $132 $132 $209 $210 reversed $82 $-1 #
face $-1 $-1 $211 $44 $-1 $212 forward single #
loop $-1 $213 $214 $84 #
cone-surface $-1 36.418412011075695 12.25762031701576 1.7409046480855341 -0.6560590369687036 0 -0.75470957328743171 0.18867739332185793 0 -0.1640147592421759 1 I I -0.70710678118654746 0.70710678118654746 0.25 forward I I I I #
loop $-1 $-1 $215 $56 #
coedge $-1 $137 $137 $216 $217 reversed $85 $-1 #
face $-1 $218 $219 $45 $-1 $220 reversed single #
loop $-1 $-1 $221 $87 #
plane-surface $-1 -40.336924344615028 -8.1765854802587832 2.0620018337521131 -0.80901700255871778 0 0.5877852410284794 0.5877852410284794 0 0.80901700255871778 forward_v I I I I #
coedge $-1 $222 $223 $224 $225 reversed $88 $-1 #
face $-1 $-1 $226 $46 $-1 $227 forward single #
loop $-1 $228 $229 $90 #
cone-surface $-1 -37.444109019972373 -9.4960827254812905 2.5198982066641538 0.80901700255871778 0 -0.5877852410284794 0.14694631025711985 0 0.20225425063967944 1 I I -0.70710678118654746 0.70710678118654746 0.25 forward I I I I #
loop $-1 $-1 $230 $58 #
coedge $-1 $146 $146 $231 $232 reversed $91 $-1 #
face $-1 $-1 $233 $47 $-1 $234 forward single #
loop $-1 $235 $236 $93 #
cone-surface $-1 -37.444109019972373 -6.8570882350362794 2.5198982066641538 0.80901700255871778 0 -0.5877852410284794 0.14694631025711985 0 0.20225425063967944 1 I I -0.70710678118654746 0.70710678118654746 0.25 forward I I I I #
loop $-1 $-1 $237 $59 #
coedge $-1 $151 $151 $238 $239 reversed $94 $-1 #
face $-1 $240 $241 $36 $-1 $242 reversed single #
loop $-1 $-1 $243 $96 #
plane-surface $-1 0 -16.468623123333217 0 0 1 0 0 0 1 forward_v I I I I #
coedge $-1 $244 $245 $246 $247 forward $97 $-1 #
coedge $-1 $248 $99 $249 $250 forward $61 $-1 #
coedge $-1 $99 $248 $251 $252 forward $61 $-1 #
coedge $-1 $253 $254 $99 $159 reversed $255 $-1 #
edge $-1 $256 -16.468623123333217 $257 16.468623123333217 $158 $258 forward 7 unknown #
face $-1 $259 $260 $37 $-1 $261 forward single #
loop $-1 $-1 $262 $100 #
plane-surface $-1 32.378405904526552 -9.6402949154610695 114.05378631909647 0 1 0 0.6560590369687036 0 0.75470957328743171 forward_v I I I I #
coedge $-1 $263 $264 $265 $266 reversed $101 $-1 #
coedge $-1 $165 $103 $267 $268 reversed $64 $-1 #
coedge $-1 $103 $164 $263 $269 reversed $64 $-1 #
coedge $-1 $265 $270 $103 $167 forward $260 $-1 #
edge $-1 $271 -24.14772139235173 $272 -18.199196510283745 $166 $273 forward 7 unknown #
loop $-1 $-1 $173 $104 #
plane-surface $-1 -20.548401575088604 -6.2469873472463107 53.168460399392856 0.6560590369687036 0 0.75470957328743171 0.75470957328743171 0 -0.6560590369687036 forward_v I I I I #
loop $-1 $-1 $274 $66 #
coedge $-1 $171 $171 $172 $275 reversed $105 $-1 #
coedge $-1 $172 $172 $171 $275 forward $107 $-1 #
coedge $-1 $173 $173 $108 $174 forward $168 $-1 #
edge $-1 $276 0 $276 6.2831853071796004 $173 $277 forward 7 unknown #
loop $-1 $-1 $180 $109 #
plane-surface $-1 -20.548401575088604 -6.2469873472463107 53.168460399392856 0.6560590369687036 0 0.75470957328743171 0.75470957328743171 0 -0.6560590369687036 forward_v I I I I #
loop $-1 $-1 $278 $69 #
coedge $-1 $178 $178 $179 $279 reversed $110 $-1 #
coedge $-1 $179 $179 $178 $279 forward $112 $-1 #
coedge $-1 $180 $180 $113 $181 forward $175 $-1 #
edge $-1 $280 0 $280 6.2831853071796004 $180 $281 forward 7 unknown #
loop $-1 $-1 $187 $114 #
plane-surface $-1 -20.548401575088604 -6.2469873472463107 53.168460399392856 0.6560590369687036 0 0.75470957328743171 0.75470957328743171 0 -0.6560590369687036 forward_v I I I I #
loop $-1 $-1 $282 $72 #
coedge $-1 $185 $185 $186 $283 reversed $115 $-1 #
coedge $-1 $186 $186 $185 $283 forward $117 $-1 #
coedge $-1 $187 $187 $118 $188 forward $182 $-1 #
edge $-1 $284 0 $284 6.2831853071796004 $187 $285 forward 7 unknown #
face $-1 $286 $287 $41 $-1 $288 reversed single #
loop $-1 $-1 $289 $119 #
plane-surface $-1 32.378405904526552 6.828328207872147 114.05378631909647 0 1 0 0.6560590369687036 0 0.75470957328743171 forward_v I I I I #
coedge $-1 $290 $291 $292 $293 reversed $120 $-1 #
coedge $-1 $194 $122 $294 $295 reversed $76 $-1 #
coedge $-1 $122 $193 $290 $296 reversed $76 $-1 #
coedge $-1 $292 $297 $122 $196 forward $298 $-1 #
edge $-1 $299 -24.14772139235173 $300 -18.199196510283745 $195 $301 forward 7 unknown #
loop $-1 $-1 $202 $123 #
plane-surface $-1 -20.548401575088604 10.221635776086906 53.168460399392856 0.6560590369687036 0 0.75470957328743171 0.75470957328743171 0 -0.6560590369687036 forward_v I I I I #
loop $-1 $-1 $302 $78 #
coedge $-1 $200 $200 $201 $303 reversed $124 $-1 #
coedge $-1 $201 $201 $200 $303 forward $126 $-1 #
coedge $-1 $202 $202 $127 $203 forward $197 $-1 #
edge $-1 $304 0 $304 6.2831853071796004 $202 $305 forward 7 unknown #
loop $-1 $-1 $209 $128 #
plane-surface $-1 -20.548401575088604 10.221635776086906 53.168460399392856 0.6560590369687036 0 0.75470957328743171 0.75470957328743171 0 -0.6560590369687036 forward_v I I I I #
loop $-1 $-1 $306 $81 #
coedge $-1 $207 $207 $208 $307 reversed $129 $-1 #
coedge $-1 $208 $208 $207 $307 forward $131 $-1 #
coedge $-1 $209 $209 $132 $210 forward $204 $-1 #
edge $-1 $308 0 $308 6.2831853071796004 $209 $309 forward 7 unknown #
loop $-1 $-1 $216 $133 #
plane-surface $-1 -20.548401575088604 10.221635776086906 53.168460399392856 0.6560590369687036 0 0.75470957328743171 0.75470957328743171 0 -0.6560590369687036 forward_v I I I I #
loop $-1 $-1 $310 $84 #
coedge $-1 $214 $214 $215 $311 reversed $134 $-1 #
coedge $-1 $215 $215 $214 $311 forward $136 $-1 #
coedge $-1 $216 $216 $137 $217 forward $211 $-1 #
edge $-1 $312 0 $312 6.2831853071796004 $216 $313 forward 7 unknown #
face $-1 $314 $315 $45 $-1 $316 reversed single #
loop $-1 $-1 $317 $138 #
plane-surface $-1 -105.60343959605143 -5.0977585747396033 49.480899430246254 0 -1 0 0.80901700255871778 0 -0.5877852410284794 forward_v I I I I #
coedge $-1 $318 $319 $320 $321 reversed $139 $-1 #
coedge $-1 $223 $141 $322 $323 reversed $88 $-1 #
coedge $-1 $141 $222 $318 $324 reversed $88 $-1 #
coedge $-1 $320 $325 $141 $225 forward $326 $-1 #
edge $-1 $327 12.464795453410709 $328 14.899166929845101 $224 $329 forward 7 unknown #
loop $-1 $-1 $231 $142 #
plane-surface $-1 -40.336924344615028 -8.1765854802587832 2.0620018337521131 -0.80901700255871778 0 0.5877852410284794 0.5877852410284794 0 0.80901700255871778 forward_v I I I I #
loop $-1 $-1 $330 $90 #
coedge $-1 $229 $229 $230 $331 reversed $143 $-1 #
coedge $-1 $230 $230 $229 $331 forward $145 $-1 #
coedge $-1 $231 $231 $146 $232 forward $226 $-1 #
edge $-1 $332 0 $332 6.2831853071796004 $231 $333 forward 7 unknown #
loop $-1 $-1 $238 $147 #
plane-surface $-1 -40.336924344615028 -8.1765854802587832 2.0620018337521131 -0.80901700255871778 0 0.5877852410284794 0.5877852410284794 0 0.80901700255871778 forward_v I I I I #
loop $-1 $-1 $334 $93 #
coedge $-1 $236 $236 $237 $335 reversed $148 $-1 #
coedge $-1 $237 $237 $236 $335 forward $150 $-1 #
coedge $-1 $238 $238 $151 $239 forward $233 $-1 #
edge $-1 $336 0 $336 6.2831853071796004 $238 $337 forward 7 unknown #
face $-1 $338 $339 $36 $-1 $340 reversed single #
loop $-1 $-1 $341 $152 #
plane-surface $-1 -40.336924344615007 0 0 1 0 0 0 0 -1 forward_v I I I I #
coedge $-1 $342 $251 $343 $344 forward $153 $-1 #
coedge $-1 $345 $155 $342 $346 forward $97 $-1 #
coedge $-1 $155 $345 $347 $348 forward $97 $-1 #
coedge $-1 $254 $253 $155 $247 reversed $255 $-1 #
edge $-1 $349 -16.468623123333217 $350 16.468623123333217 $246 $351 forward 7 unknown #
coedge $-1 $157 $156 $352 $353 forward $61 $-1 #
coedge $-1 $354 $355 $156 $250 reversed $339 $-1 #
edge $-1 $257 -40.336924344615007 $356 40.336924344615007 $249 $357 forward 7 unknown #
coedge $-1 $243 $358 $157 $252 reversed $153 $-1 #
edge $-1 $359 -40.336924344615007 $256 40.336924344615007 $251 $360 forward 7 unknown #
coedge $-1 $246 $158 $358 $361 forward $255 $-1 #
coedge $-1 $158 $246 $354 $362 reversed $255 $-1 #
loop $-1 $-1 $253 $338 #
vertex $-1 $159 $363 #
vertex $-1 $159 $364 #
straight-curve $-1 40.336924344615007 0 5.4126268197305958 0 1 0 I I #
face $-1 $-1 $365 $37 $-1 $366 reversed single #
loop $-1 $-1 $166 $160 #
plane-surface $-1 0 0 5.4126268197305958 0 0 1 1 0 0 forward_v I I I I #
coedge $-1 $367 $368 $369 $370 reversed $161 $-1 #
coedge $-1 $371 $163 $165 $269 forward $101 $-1 #
coedge $-1 $163 $371 $367 $372 forward $101 $-1 #
coedge $-1 $369 $166 $163 $266 forward $260 $-1 #
edge $-1 $272 -0.26981389459160399 $373 6.5168012418379142 $265 $374 forward 7 unknown #
coedge $-1 $375 $376 $164 $268 forward $365 $-1 #
edge $-1 $377 -56.785240239770538 $271 -51.61426633981764 $267 $378 forward 7 unknown #
edge $-1 $272 72.791975856801415 $377 80.673848689230027 $165 $379 forward 7 unknown #
coedge $-1 $166 $369 $375 $380 forward $260 $-1 #
vertex $-1 $268 $381 #
vertex $-1 $167 $382 #
straight-curve $-1 16.189202952263276 -2.8536797790315513 5.4126268197305976 -1 0 0 I I #
coedge $-1 $274 $274 $-1 $383 reversed $170 $-1 #
edge $-1 $384 0 $384 6.2831853071796004 $171 $385 forward 7 unknown #
vertex $-1 $174 $386 #
ellipse-curve $-1 37.362661903581021 -8.2829718881751671 2.8271398697541494 0.6560590369687036 0 0.75470957328743171 0.37735478664371586 0 -0.3280295184843518 1 I I #
coedge $-1 $278 $278 $-1 $387 reversed $177 $-1 #
edge $-1 $388 0 $388 6.2831853071796004 $178 $389 forward 7 unknown #
vertex $-1 $181 $390 #
ellipse-curve $-1 37.362661903581021 -6.2469873472463107 2.8271398697541494 0.6560590369687036 0 0.75470957328743171 0.37735478664371586 0 -0.3280295184843518 1 I I #
coedge $-1 $282 $282 $-1 $391 reversed $184 $-1 #
edge $-1 $392 0 $392 6.2831853071796004 $185 $393 forward 7 unknown #
vertex $-1 $188 $394 #
ellipse-curve $-1 37.362661903581021 -4.211002806317456 2.8271398697541494 0.6560590369687036 0 0.75470957328743171 0.37735478664371586 0 -0.3280295184843518 1 I I #
face $-1 $-1 $298 $41 $-1 $395 forward single #
loop $-1 $-1 $396 $189 #
plane-surface $-1 40.336924344615007 0 0 -1 0 0 0 0 1 forward_v I I I I #
coedge $-1 $397 $398 $399 $400 reversed $190 $-1 #
coedge $-1 $401 $192 $194 $296 forward $120 $-1 #
coedge $-1 $192 $401 $397 $402 forward $120 $-1 #
coedge $-1 $399 $195 $192 $293 forward $298 $-1 #
edge $-1 $300 -8.5041254562582118 $403 -1.7175103198286941 $292 $404 forward 7 unknown #
coedge $-1 $405 $406 $193 $295 forward $287 $-1 #
edge $-1 $407 -56.785240239770538 $299 -51.61426633981764 $294 $408 forward 7 unknown #
edge $-1 $300 72.791975856801415 $407 80.673848689230027 $194 $409 forward 7 unknown #
coedge $-1 $195 $399 $405 $410 forward $298 $-1 #
loop $-1 $-1 $399 $286 #
vertex $-1 $295 $411 #
vertex $-1 $196 $412 #
straight-curve $-1 16.189202952263276 13.614943344301665 5.4126268197305976 -1 0 0 I I #
coedge $-1 $302 $302 $-1 $413 reversed $199 $-1 #
edge $-1 $414 0 $414 6.2831853071796004 $200 $415 forward 7 unknown #
vertex $-1 $203 $416 #
ellipse-curve $-1 37.362661903581021 8.1856512351580477 2.8271398697541494 0.6560590369687036 0 0.75470957328743171 0.37735478664371586 0 -0.3280295184843518 1 I I #
coedge $-1 $306 $306 $-1 $417 reversed $206 $-1 #
edge $-1 $418 0 $418 6.2831853071796004 $207 $419 forward 7 unknown #
vertex $-1 $210 $420 #
ellipse-curve $-1 37.362661903581021 10.221635776086906 2.8271398697541494 0.6560590369687036 0 0.75470957328743171 0.37735478664371586 0 -0.3280295184843518 1 I I #
coedge $-1 $310 $310 $-1 $421 reversed $213 $-1 #
edge $-1 $422 0 $422 6.2831853071796004 $214 $423 forward 7 unknown #
vertex $-1 $217 $424 #
ellipse-curve $-1 37.362661903581021 12.25762031701576 2.8271398697541494 0.6560590369687036 0 0.75470957328743171 0.37735478664371586 0 -0.3280295184843518 1 I I #
face $-1 $-1 $326 $45 $-1 $425 forward single #
loop $-1 $-1 $426 $218 #
plane-surface $-1 -40.336924344615007 0 0 1 0 0 0 0 -1 forward_v I I I I #
coedge $-1 $427 $428 $429 $430 reversed $219 $-1 #
coedge $-1 $431 $221 $223 $324 forward $139 $-1 #
coedge $-1 $221 $431 $427 $432 forward $139 $-1 #
coedge $-1 $429 $224 $221 $321 forward $326 $-1 #
edge $-1 $328 -7.1671196456485706 $433 -1.0094658346102117 $320 $434 forward 7 unknown #
coedge $-1 $435 $436 $222 $323 forward $315 $-1 #
edge $-1 $437 -22.678447881370985 $327 -19.327822895392529 $322 $438 forward 7 unknown #
edge $-1 $328 -4.1416002078835152 $437 -3.6241593609816998e-014 $223 $439 forward 7 unknown #
coedge $-1 $224 $429 $435 $440 forward $326 $-1 #
loop $-1 $-1 $429 $314 #
vertex $-1 $323 $441 #
vertex $-1 $225 $442 #
straight-curve $-1 -52.801719798025715 -11.255412385777962 5.412626819730594 1 0 0 I I #
coedge $-1 $330 $330 $-1 $443 reversed $228 $-1 #
edge $-1 $444 0 $444 6.2831853071796004 $229 $445 forward 7 unknown #
vertex $-1 $232 $446 #
ellipse-curve $-1 -39.119738606397817 -9.4960827254812905 3.737314326741366 -0.80901700255871778 0 0.5877852410284794 0.2938926205142397 0 0.40450850127935889 1 I I #
coedge $-1 $334 $334 $-1 $447 reversed $235 $-1 #
edge $-1 $448 0 $448 6.2831853071796004 $236 $449 forward 7 unknown #
vertex $-1 $239 $450 #
ellipse-curve $-1 -39.119738606397817 -6.8570882350362794 3.737314326741366 -0.80901700255871778 0 0.5877852410284794 0.2938926205142397 0 0.40450850127935889 1 I I #
face $-1 $-1 $255 $36 $-1 $451 reversed single #
loop $-1 $-1 $354 $240 #
plane-surface $-1 0 16.468623123333217 0 0 -1 0 0 0 -1 forward_v I I I I #
coedge $-1 $452 $352 $355 $453 forward $241 $-1 #
coedge $-1 $358 $243 $244 $346 reversed $153 $-1 #
coedge $-1 $352 $452 $243 $344 reversed $241 $-1 #
edge $-1 $359 -5.4126268197305958 $454 5.4126268197305958 $343 $455 forward 7 unknown #
coedge $-1 $245 $244 $452 $456 forward $97 $-1 #
edge $-1 $350 -40.336924344615007 $454 40.336924344615007 $342 $457 forward 7 unknown #
coedge $-1 $355 $354 $245 $348 reversed $339 $-1 #
edge $-1 $458 -40.336924344615007 $349 40.336924344615007 $347 $459 forward 7 unknown #
vertex $-1 $247 $460 #
vertex $-1 $361 $461 #
straight-curve $-1 40.336924344615007 0 -5.4126268197305958 0 -1 0 I I #
coedge $-1 $341 $343 $248 $353 reversed $241 $-1 #
edge $-1 $356 -16.468623123333217 $359 16.468623123333217 $352 $462 forward 7 unknown #
coedge $-1 $347 $249 $254 $362 forward $339 $-1 #
coedge $-1 $249 $347 $341 $453 reversed $339 $-1 #
vertex $-1 $250 $463 #
straight-curve $-1 0 16.468623123333217 5.4126268197305958 -1 0 0 I I #
coedge $-1 $251 $342 $253 $361 reversed $153 $-1 #
vertex $-1 $353 $464 #
straight-curve $-1 0 -16.468623123333217 5.4126268197305958 1 0 0 I I #
edge $-1 $256 -5.4126268197305958 $350 5.4126268197305958 $253 $465 forward 7 unknown #
edge $-1 $257 -5.4126268197305958 $349 5.4126268197305958 $254 $466 forward 7 unknown #
point $-1 40.336924344615007 -16.468623123333217 5.4126268197305958 #
point $-1 40.336924344615007 16.468623123333217 5.4126268197305958 #
loop $-1 $-1 $267 $259 #
plane-surface $-1 40.336924344615007 0 0 -1 0 0 0 0 1 forward_v I I I I #
coedge $-1 $368 $262 $264 $372 reversed $161 $-1 #
coedge $-1 $262 $367 $467 $468 reversed $161 $-1 #
coedge $-1 $270 $265 $262 $370 forward $260 $-1 #
edge $-1 $373 18.199196510283745 $469 24.14772139235173 $369 $470 forward 7 unknown #
coedge $-1 $264 $263 $376 $471 reversed $101 $-1 #
edge $-1 $472 -80.673848689230027 $373 -72.791975856801415 $367 $473 forward 7 unknown #
vertex $-1 $266 $474 #
straight-curve $-1 34.388399462547028 -3.1234936736231553 5.4126268197306047 0 -1 0 I I #
coedge $-1 $467 $267 $270 $380 reversed $365 $-1 #
coedge $-1 $267 $467 $371 $471 forward $365 $-1 #
vertex $-1 $268 $475 #
straight-curve $-1 40.336924344615007 -2.8536797790315513 57.026893159548237 0 0 1 I I #
straight-curve $-1 -20.548401575088604 -2.8536797790315513 53.168460399392856 0.75470957328743171 0 -0.6560590369687036 I I #
edge $-1 $469 -9.6402949154610695 $271 -2.8536797790315513 $375 $476 forward 7 unknown #
point $-1 40.336924344615007 -2.8536797790315513 5.4126268197305958 #
point $-1 34.388399462547021 -2.8536797790315513 5.4126268197305976 #
edge $-1 $477 1 $477 0 $274 $-1 forward 7 unknown #
vertex $-1 $275 $478 #
ellipse-curve $-1 36.582426770317873 -8.2829718881751671 1.9295820414073921 0.6560590369687036 0 0.75470957328743171 0.37735478664371586 0 -0.3280295184843518 1 I I #
point $-1 37.740016690224728 -8.2829718881751671 2.4991103512697892 #
edge $-1 $479 1 $479 0 $278 $-1 forward 7 unknown #
vertex $-1 $279 $480 #
ellipse-curve $-1 36.582426770317873 -6.2469873472463107 1.9295820414073921 0.6560590369687036 0 0.75470957328743171 0.37735478664371586 0 -0.3280295184843518 1 I I #
point $-1 37.740016690224728 -6.2469873472463107 2.4991103512697892 #
edge $-1 $481 1 $481 0 $282 $-1 forward 7 unknown #
vertex $-1 $283 $482 #
ellipse-curve $-1 36.582426770317873 -4.211002806317456 1.9295820414073921 0.6560590369687036 0 0.75470957328743171 0.37735478664371586 0 -0.3280295184843518 1 I I #
point $-1 37.740016690224728 -4.211002806317456 2.4991103512697892 #
plane-surface $-1 0 0 5.4126268197305958 0 0 1 1 0 0 forward_v I I I I #
coedge $-1 $406 $405 $398 $483 forward $287 $-1 #
coedge $-1 $398 $289 $291 $402 reversed $190 $-1 #
coedge $-1 $289 $397 $396 $483 reversed $190 $-1 #
coedge $-1 $297 $292 $289 $400 forward $298 $-1 #
edge $-1 $403 18.199196510283745 $484 24.14772139235173 $399 $485 forward 7 unknown #
coedge $-1 $291 $290 $406 $486 reversed $120 $-1 #
edge $-1 $487 -80.673848689230027 $403 -72.791975856801415 $397 $488 forward 7 unknown #
vertex $-1 $293 $489 #
straight-curve $-1 34.388399462547028 5.1108178880434529 5.4126268197306047 0 -1 0 I I #
coedge $-1 $396 $294 $297 $410 reversed $287 $-1 #
coedge $-1 $294 $396 $401 $486 forward $287 $-1 #
vertex $-1 $295 $490 #
straight-curve $-1 40.336924344615007 13.614943344301665 57.026893159548237 0 0 1 I I #
straight-curve $-1 -20.548401575088604 13.614943344301665 53.168460399392856 0.75470957328743171 0 -0.6560590369687036 I I #
edge $-1 $484 6.828328207872147 $299 13.614943344301665 $405 $491 forward 7 unknown #
point $-1 40.336924344615007 13.614943344301665 5.4126268197305958 #
point $-1 34.388399462547021 13.614943344301665 5.4126268197305976 #
edge $-1 $492 1 $492 0 $302 $-1 forward 7 unknown #
vertex $-1 $303 $493 #
ellipse-curve $-1 36.582426770317873 8.1856512351580477 1.9295820414073921 0.6560590369687036 0 0.75470957328743171 0.37735478664371586 0 -0.3280295184843518 1 I I #
point $-1 37.740016690224728 8.1856512351580477 2.4991103512697892 #
edge $-1 $494 1 $494 0 $306 $-1 forward 7 unknown #
vertex $-1 $307 $495 #
ellipse-curve $-1 36.582426770317873 10.221635776086906 1.9295820414073921 0.6560590369687036 0 0.75470957328743171 0.37735478664371586 0 -0.3280295184843518 1 I I #
point $-1 37.740016690224728 10.221635776086906 2.4991103512697892 #
edge $-1 $496 1 $496 0 $310 $-1 forward 7 unknown #
vertex $-1 $311 $497 #
ellipse-curve $-1 36.582426770317873 12.25762031701576 1.9295820414073921 0.6560590369687036 0 0.75470957328743171 0.37735478664371586 0 -0.3280295184843518 1 I I #
point $-1 37.740016690224728 12.25762031701576 2.4991103512697892 #
plane-surface $-1 0 0 5.4126268197305958 0 0 1 1 0 0 forward_v I I I I #
coedge $-1 $436 $435 $428 $498 forward $315 $-1 #
coedge $-1 $428 $317 $319 $432 reversed $219 $-1 #
coedge $-1 $317 $427 $426 $498 reversed $219 $-1 #
coedge $-1 $325 $320 $317 $430 forward $326 $-1 #
edge $-1 $433 -14.899166929845101 $499 -12.464795453410709 $429 $500 forward 7 unknown #
coedge $-1 $319 $318 $436 $501 reversed $139 $-1 #
edge $-1 $502 3.6241593609816998e-014 $433 4.1416002078835152 $427 $503 forward 7 unknown #
vertex $-1 $321 $504 #
straight-curve $-1 -37.902552868180614 -4.0882927401293916 5.4126268197305967 0 1 0 I I #
coedge $-1 $426 $322 $325 $440 reversed $315 $-1 #
coedge $-1 $322 $426 $431 $501 forward $315 $-1 #
vertex $-1 $323 $505 #
straight-curve $-1 -40.336924344615007 -11.255412385777962 24.740449715123127 0 0 1 I I #
straight-curve $-1 -40.336924344615028 -11.255412385777962 2.0620018337521131 -0.5877852410284794 0 -0.80901700255871778 I I #
edge $-1 $499 5.0977585747396033 $327 11.255412385777962 $435 $506 forward 7 unknown #
point $-1 -40.336924344615007 -11.255412385777962 5.4126268197305958 #
point $-1 -37.902552868180614 -11.255412385777962 5.4126268197305958 #
edge $-1 $507 1 $507 0 $330 $-1 forward 7 unknown #
vertex $-1 $331 $508 #
ellipse-curve $-1 -37.646363270612049 -9.4960827254812905 2.6668445169212736 -0.80901700255871778 0 0.5877852410284794 0.2938926205142397 0 0.40450850127935889 1 I I #
point $-1 -38.825845985883561 -9.4960827254812905 4.141822828020711 #
edge $-1 $509 1 $509 0 $334 $-1 forward 7 unknown #
vertex $-1 $335 $510 #
ellipse-curve $-1 -37.646363270612049 -6.8570882350362794 2.6668445169212736 -0.80901700255871778 0 0.5877852410284794 0.2938926205142397 0 0.40450850127935889 1 I I #
point $-1 -38.825845985883561 -6.8570882350362794 4.141822828020711 #
plane-surface $-1 40.336924344615007 0 0 -1 0 0 0 0 1 forward_v I I I I #
coedge $-1 $343 $341 $345 $456 reversed $241 $-1 #
edge $-1 $356 -5.4126268197305958 $458 5.4126268197305958 $355 $511 forward 7 unknown #
vertex $-1 $456 $512 #
straight-curve $-1 -40.336924344615007 -16.468623123333217 0 0 0 -1 I I #
edge $-1 $454 -16.468623123333217 $458 16.468623123333217 $452 $513 forward 7 unknown #
straight-curve $-1 0 -16.468623123333217 -5.4126268197305958 -1 0 0 I I #
vertex $-1 $348 $514 #
straight-curve $-1 0 16.468623123333217 -5.4126268197305958 1 0 0 I I #
point $-1 40.336924344615007 16.468623123333217 -5.4126268197305958 #
point $-1 40.336924344615007 -16.468623123333217 -5.4126268197305958 #
straight-curve $-1 -40.336924344615007 0 5.4126268197305958 0 -1 0 I I #
point $-1 -40.336924344615007 16.468623123333217 5.4126268197305958 #
point $-1 -40.336924344615007 -16.468623123333217 5.4126268197305958 #
straight-curve $-1 40.336924344615007 -16.468623123333217 0 0 0 -1 I I #
straight-curve $-1 40.336924344615007 16.468623123333217 0 0 0 -1 I I #
coedge $-1 $376 $375 $368 $468 forward $365 $-1 #
edge $-1 $469 51.61426633981764 $472 56.785240239770538 $467 $515 forward 7 unknown #
vertex $-1 $380 $516 #
straight-curve $-1 16.189202952263276 -9.6402949154610695 5.4126268197305976 1 0 0 I I #
edge $-1 $472 -6.5168012418379142 $377 0.26981389459160399 $376 $517 forward 7 unknown #
vertex $-1 $471 $518 #
straight-curve $-1 -20.548401575088604 -9.6402949154610695 53.168460399392856 -0.75470957328743171 0 0.6560590369687036 I I #
point $-1 34.388399462547021 -9.6402949154610695 5.4126268197305976 #
point $-1 40.336924344615014 -2.8536797790315513 0.24165291977769954 #
straight-curve $-1 40.336924344615007 0 5.4126268197305958 0 1 0 I I #
vertex $-1 $383 $519 #
point $-1 36.959781556961588 -8.2829718881751671 1.6015525229230403 #
vertex $-1 $387 $520 #
point $-1 36.959781556961588 -6.2469873472463107 1.6015525229230403 #
vertex $-1 $391 $521 #
point $-1 36.959781556961588 -4.211002806317456 1.6015525229230403 #
edge $-1 $484 51.61426633981764 $487 56.785240239770538 $396 $522 forward 7 unknown #
vertex $-1 $410 $523 #
straight-curve $-1 16.189202952263276 6.828328207872147 5.4126268197305976 1 0 0 I I #
edge $-1 $487 1.7175103198286941 $407 8.5041254562582118 $406 $524 forward 7 unknown #
vertex $-1 $486 $525 #
straight-curve $-1 -20.548401575088604 6.828328207872147 53.168460399392856 -0.75470957328743171 0 0.6560590369687036 I I #
point $-1 34.388399462547021 6.828328207872147 5.4126268197305976 #
point $-1 40.336924344615014 13.614943344301665 0.24165291977769954 #
straight-curve $-1 40.336924344615007 0 5.4126268197305958 0 1 0 I I #
vertex $-1 $413 $526 #
point $-1 36.959781556961588 8.1856512351580477 1.6015525229230403 #
vertex $-1 $417 $527 #
point $-1 36.959781556961588 10.221635776086906 1.6015525229230403 #
vertex $-1 $421 $528 #
point $-1 36.959781556961588 12.25762031701576 1.6015525229230403 #
edge $-1 $499 19.327822895392529 $502 22.678447881370985 $426 $529 forward 7 unknown #
vertex $-1 $440 $530 #
straight-curve $-1 -52.801719798025715 -5.0977585747396033 5.412626819730594 -1 0 0 I I #
edge $-1 $502 1.0094658346102117 $437 7.1671196456485706 $436 $531 forward 7 unknown #
vertex $-1 $501 $532 #
straight-curve $-1 -40.336924344615028 -5.0977585747396033 2.0620018337521131 0.5877852410284794 0 0.80901700255871778 I I #
point $-1 -37.902552868180614 -5.0977585747396033 5.4126268197305958 #
point $-1 -40.336924344615007 -11.255412385777962 2.0620018337521424 #
straight-curve $-1 -40.336924344615007 0 5.4126268197305958 0 -1 0 I I #
vertex $-1 $443 $533 #
point $-1 -37.352470650097814 -9.4960827254812905 3.0713530182006323 #
vertex $-1 $447 $534 #
point $-1 -37.352470650097814 -6.8570882350362794 3.0713530182006323 #
straight-curve $-1 -40.336924344615007 16.468623123333217 0 0 0 -1 I I #
point $-1 -40.336924344615007 -16.468623123333217 -5.4126268197305958 #
straight-curve $-1 -40.336924344615007 0 -5.4126268197305958 0 1 0 I I #
point $-1 -40.336924344615007 16.468623123333217 -5.4126268197305958 #
straight-curve $-1 40.336924344615007 -9.6402949154610695 57.026893159548237 0 0 -1 I I #
point $-1 40.336924344615007 -9.6402949154610695 5.4126268197305958 #
straight-curve $-1 40.336924344614999 -3.1234936736231553 0.24165291977770664 0 1 0 I I #
point $-1 40.336924344615014 -9.6402949154610695 0.24165291977769954 #
point $-1 36.254397251833517 -8.2829718881751671 1.5522272547636762 #
point $-1 36.254397251833517 -6.2469873472463107 1.5522272547636762 #
point $-1 36.254397251833517 -4.211002806317456 1.5522272547636762 #
straight-curve $-1 40.336924344615007 6.828328207872147 57.026893159548237 0 0 -1 I I #
point $-1 40.336924344615007 6.828328207872147 5.4126268197305958 #
straight-curve $-1 40.336924344614999 5.1108178880434529 0.24165291977770664 0 1 0 I I #
point $-1 40.336924344615014 6.828328207872147 0.24165291977769954 #
point $-1 36.254397251833517 8.1856512351580477 1.5522272547636762 #
point $-1 36.254397251833517 10.221635776086906 1.5522272547636762 #
point $-1 36.254397251833517 12.25762031701576 1.5522272547636762 #
straight-curve $-1 -40.336924344615007 -5.0977585747396033 24.740449715123127 0 0 -1 I I #
point $-1 -40.336924344615007 -5.0977585747396033 5.4126268197305958 #
straight-curve $-1 -40.336924344615007 -4.0882927401293916 2.0620018337521366 0 -1 0 I I #
point $-1 -40.336924344615007 -5.0977585747396033 2.0620018337521424 #
point $-1 -37.241854769332697 -9.4960827254812905 2.372951896407034 #
point $-1 -37.241854769332697 -6.8570882350362794 2.372951896407034 #
End-of-ACIS-data 