500 0 16 0           
7 Unknown 11 ACIS 5.0 NT 24 Thu Mar 25 19:34:16 1999 
-1 9.9999999999999995e-007 1e-010 
body $-1 $16 $-1 $17 #
body $-1 $18 $-1 $19 #
body $-1 $20 $-1 $21 #
body $-1 $22 $-1 $23 #
body $-1 $24 $-1 $25 #
body $-1 $26 $-1 $27 #
body $-1 $28 $-1 $29 #
body $-1 $30 $-1 $31 #
body $-1 $32 $-1 $33 #
body $-1 $34 $-1 $35 #
body $-1 $36 $-1 $37 #
body $-1 $38 $-1 $39 #
body $-1 $40 $-1 $41 #
body $-1 $42 $-1 $43 #
body $-1 $44 $-1 $45 #
body $-1 $46 $-1 $47 #
lump $-1 $-1 $48 $0 #
transform $-1 1 0 0 0 1 0 0 0 1 40.936307870723596 27.370994655540912 8.9848065314024357 1 rotate no_reflect no_shear #
lump $-1 $-1 $49 $1 #
transform $-1 1 0 0 0 1 0 0 0 1 40.936307870723596 27.370994655540912 8.9848065314024357 1 rotate no_reflect no_shear #
lump $-1 $-1 $50 $2 #
transform $-1 1 0 0 0 1 0 0 0 1 40.936307870723596 27.370994655540912 8.9848065314024357 1 rotate no_reflect no_shear #
lump $-1 $-1 $51 $3 #
transform $-1 1 0 0 0 1 0 0 0 1 40.936307870723596 27.370994655540912 8.9848065314024357 1 rotate no_reflect no_shear #
lump $-1 $-1 $52 $4 #
transform $-1 1 0 0 0 1 0 0 0 1 40.936307870723596 27.370994655540912 8.9848065314024357 1 rotate no_reflect no_shear #
lump $-1 $-1 $53 $5 #
transform $-1 1 0 0 0 1 0 0 0 1 40.936307870723596 27.370994655540912 8.9848065314024357 1 rotate no_reflect no_shear #
lump $-1 $-1 $54 $6 #
transform $-1 1 0 0 0 1 0 0 0 1 40.936307870723596 27.370994655540912 8.9848065314024357 1 rotate no_reflect no_shear #
lump $-1 $-1 $55 $7 #
transform $-1 1 0 0 0 1 0 0 0 1 40.936307870723596 27.370994655540912 8.9848065314024357 1 rotate no_reflect no_shear #
lump $-1 $-1 $56 $8 #
transform $-1 1 0 0 0 1 0 0 0 1 40.936307870723596 27.370994655540912 8.9848065314024357 1 rotate no_reflect no_shear #
lump $-1 $-1 $57 $9 #
transform $-1 1 0 0 0 1 0 0 0 1 40.936307870723596 27.370994655540912 8.9848065314024357 1 rotate no_reflect no_shear #
lump $-1 $-1 $58 $10 #
transform $-1 1 0 0 0 1 0 0 0 1 40.936307870723596 27.370994655540912 8.9848065314024357 1 rotate no_reflect no_shear #
lump $-1 $-1 $59 $11 #
transform $-1 1 0 0 0 1 0 0 0 1 40.936307870723596 27.370994655540912 8.9848065314024357 1 rotate no_reflect no_shear #
lump $-1 $-1 $60 $12 #
transform $-1 1 0 0 0 1 0 0 0 1 40.936307870723596 27.370994655540912 8.9848065314024357 1 rotate no_reflect no_shear #
lump $-1 $-1 $61 $13 #
transform $-1 1 0 0 0 1 0 0 0 1 40.936307870723596 27.370994655540912 8.9848065314024357 1 rotate no_reflect no_shear #
lump $-1 $-1 $62 $14 #
transform $-1 1 0 0 0 1 0 0 0 1 40.936307870723596 27.370994655540912 8.9848065314024357 1 rotate no_reflect no_shear #
lump $-1 $-1 $63 $15 #
transform $-1 1 0 0 0 1 0 0 0 1 40.936307870723596 27.370994655540912 8.9848065314024357 1 rotate no_reflect no_shear #
shell $-1 $-1 $-1 $64 $-1 $16 #
shell $-1 $-1 $-1 $65 $-1 $18 #
shell $-1 $-1 $-1 $66 $-1 $20 #
shell $-1 $-1 $-1 $67 $-1 $22 #
shell $-1 $-1 $-1 $68 $-1 $24 #
shell $-1 $-1 $-1 $69 $-1 $26 #
shell $-1 $-1 $-1 $70 $-1 $28 #
shell $-1 $-1 $-1 $71 $-1 $30 #
shell $-1 $-1 $-1 $72 $-1 $32 #
shell $-1 $-1 $-1 $73 $-1 $34 #
shell $-1 $-1 $-1 $74 $-1 $36 #
shell $-1 $-1 $-1 $75 $-1 $38 #
shell $-1 $-1 $-1 $76 $-1 $40 #
shell $-1 $-1 $-1 $77 $-1 $42 #
shell $-1 $-1 $-1 $78 $-1 $44 #
shell $-1 $-1 $-1 $79 $-1 $46 #
face $-1 $80 $81 $48 $-1 $82 forward single #
face $-1 $83 $84 $49 $-1 $85 forward single #
face $-1 $86 $87 $50 $-1 $88 reversed single #
face $-1 $89 $90 $51 $-1 $91 forward single #
face $-1 $92 $93 $52 $-1 $94 reversed single #
face $-1 $95 $96 $53 $-1 $97 forward single #
face $-1 $98 $99 $54 $-1 $100 forward single #
face $-1 $101 $102 $55 $-1 $103 reversed single #
face $-1 $104 $105 $56 $-1 $106 forward single #
face $-1 $107 $108 $57 $-1 $109 forward single #
face $-1 $110 $111 $58 $-1 $112 reversed single #
face $-1 $113 $114 $59 $-1 $115 forward single #
face $-1 $116 $117 $60 $-1 $118 forward single #
face $-1 $119 $120 $61 $-1 $121 reversed single #
face $-1 $122 $123 $62 $-1 $124 forward single #
face $-1 $125 $126 $63 $-1 $127 forward single #
face $-1 $128 $129 $48 $-1 $130 reversed single #
loop $-1 $-1 $131 $64 #
plane-surface $-1 0 0 8.9848065314024357 0 0 1 1 0 0 forward_v I I I I #
face $-1 $132 $133 $49 $-1 $134 reversed single #
loop $-1 $-1 $135 $65 #
plane-surface $-1 0 -21.839436421235558 5.4761829348938509 0 0 1 1 0 0 forward_v I I I I #
face $-1 $136 $137 $50 $-1 $138 reversed single #
loop $-1 $-1 $139 $66 #
plane-surface $-1 38.915575959589376 4.760058490742832 117.3883590767105 0 1 0 0.69465837861970381 0 0.71933979245794832 forward_v I I I I #
face $-1 $140 $141 $51 $-1 $142 forward single #
loop $-1 $143 $144 $67 #
cone-surface $-1 35.73199967017802 9.3292074665459808 3.861887347794994 -0.69465837861970381 0 -0.71933979245794832 1.4386795849158966 0 -1.3893167572394076 1 I I 0 1 2 forward I I I I #
face $-1 $145 $146 $52 $-1 $147 reversed single #
loop $-1 $-1 $148 $68 #
plane-surface $-1 -97.809806375031343 -12.023769549341374 61.928368606294264 0 1 0 -0.69465837861970381 0 0.71933979245794832 forward_v I I I I #
face $-1 $149 $150 $53 $-1 $151 forward single #
loop $-1 $152 $153 $69 #
cone-surface $-1 -37.174433794824601 -10.127881099904528 5.3044570174922834 0.69465837861970381 0 -0.71933979245794832 0.35966989622897416 0 0.3473291893098519 1 I I 0 1 0.5 forward I I I I #
face $-1 $154 $155 $54 $-1 $156 forward single #
loop $-1 $157 $158 $70 #
cone-surface $-1 -37.174433794824601 -7.2840484257492619 5.3044570174922834 0.69465837861970381 0 -0.71933979245794832 0.35966989622897416 0 0.3473291893098519 1 I I 0 1 0.5 forward I I I I #
face $-1 $159 $160 $55 $-1 $161 reversed single #
loop $-1 $-1 $162 $71 #
plane-surface $-1 -97.809806375031343 -1.104051338723596 61.928368606294264 0 1 0 -0.69465837861970381 0 0.71933979245794832 forward_v I I I I #
face $-1 $163 $164 $56 $-1 $165 forward single #
loop $-1 $166 $167 $72 #
cone-surface $-1 -37.174433794824601 0.79183711071325291 5.3044570174922834 0.69465837861970381 0 -0.71933979245794832 0.35966989622897416 0 0.3473291893098519 1 I I 0 1 0.5 forward I I I I #
face $-1 $168 $169 $57 $-1 $170 forward single #
loop $-1 $171 $172 $73 #
cone-surface $-1 -37.174433794824601 3.6356697848685187 5.3044570174922834 0.69465837861970381 0 -0.71933979245794832 0.35966989622897416 0 0.3473291893098519 1 I I 0 1 0.5 forward I I I I #
face $-1 $173 $174 $58 $-1 $175 reversed single #
loop $-1 $-1 $176 $74 #
plane-surface $-1 -97.809806375031343 9.8156668718941837 61.928368606294264 0 1 0 -0.69465837861970381 0 0.71933979245794832 forward_v I I I I #
face $-1 $177 $178 $59 $-1 $179 forward single #
loop $-1 $180 $181 $75 #
cone-surface $-1 -37.174433794824601 11.711555321331033 5.3044570174922834 0.69465837861970381 0 -0.71933979245794832 0.35966989622897416 0 0.3473291893098519 1 I I 0 1 0.5 forward I I I I #
face $-1 $182 $183 $60 $-1 $184 forward single #
loop $-1 $185 $186 $76 #
cone-surface $-1 -37.174433794824601 14.555387995486299 5.3044570174922834 0.69465837861970381 0 -0.71933979245794832 0.35966989622897416 0 0.3473291893098519 1 I I 0 1 0.5 forward I I I I #
face $-1 $187 $188 $61 $-1 $189 reversed single #
loop $-1 $-1 $190 $77 #
plane-surface $-1 -97.809806375031343 20.735385082511964 61.928368606294264 0 1 0 -0.69465837861970381 0 0.71933979245794832 forward_v I I I I #
face $-1 $191 $192 $62 $-1 $193 forward single #
loop $-1 $194 $195 $78 #
cone-surface $-1 -37.174433794824601 22.631273531948814 5.3044570174922834 0.69465837861970381 0 -0.71933979245794832 0.35966989622897416 0 0.3473291893098519 1 I I 0 1 0.5 forward I I I I #
face $-1 $196 $197 $63 $-1 $198 forward single #
loop $-1 $199 $200 $79 #
cone-surface $-1 -37.174433794824601 25.47510620610408 5.3044570174922834 0.69465837861970381 0 -0.71933979245794832 0.35966989622897416 0 0.3473291893098519 1 I I 0 1 0.5 forward I I I I #
face $-1 $201 $202 $48 $-1 $203 reversed single #
loop $-1 $-1 $204 $80 #
plane-surface $-1 0 0 -8.9848065314024357 0 0 1 1 0 0 forward_v I I I I #
coedge $-1 $205 $206 $207 $208 forward $81 $-1 #
face $-1 $209 $210 $49 $-1 $211 reversed single #
loop $-1 $-1 $212 $83 #
plane-surface $-1 0 -21.839436421235558 0.93730227708860347 0 0 1 1 0 0 forward_v I I I I #
coedge $-1 $213 $214 $215 $216 reversed $84 $-1 #
face $-1 $217 $218 $50 $-1 $219 reversed single #
loop $-1 $-1 $220 $86 #
plane-surface $-1 -17.957922544718372 9.3292074665459808 58.494128661268526 0.69465837861970381 0 0.71933979245794832 0.71933979245794832 0 -0.69465837861970381 forward_v I I I I #
coedge $-1 $221 $222 $223 $224 reversed $87 $-1 #
face $-1 $-1 $225 $51 $-1 $226 forward single #
loop $-1 $227 $228 $89 #
cone-surface $-1 33.645946940364482 9.3292074665459808 1.7017165589504355 -0.69465837861970381 0 -0.71933979245794832 0.71933979245794832 0 -0.69465837861970381 1 I I -0.70710678118654746 0.70710678118654746 1 forward I I I I #
loop $-1 $-1 $229 $67 #
coedge $-1 $144 $144 $230 $231 reversed $90 $-1 #
face $-1 $232 $233 $52 $-1 $234 reversed single #
loop $-1 $-1 $235 $92 #
plane-surface $-1 -40.936307870723596 -8.7059647628268984 3.0341381908522891 -0.69465837861970381 0 0.71933979245794832 0.71933979245794832 0 0.69465837861970381 forward_v I I I I #
coedge $-1 $236 $237 $238 $239 reversed $93 $-1 #
face $-1 $-1 $240 $53 $-1 $241 forward single #
loop $-1 $242 $243 $95 #
cone-surface $-1 -36.31994378129756 -10.127881099904528 4.4196067257427121 0.69465837861970381 0 -0.71933979245794832 0.17983494811448708 0 0.17366459465492595 1 I I -0.70710678118654624 0.70710678118654879 0.25 forward I I I I #
loop $-1 $-1 $244 $69 #
coedge $-1 $153 $153 $245 $246 reversed $96 $-1 #
face $-1 $-1 $247 $54 $-1 $248 forward single #
loop $-1 $249 $250 $98 #
cone-surface $-1 -36.31994378129756 -7.2840484257492619 4.4196067257427121 0.69465837861970381 0 -0.71933979245794832 0.17983494811448708 0 0.17366459465492595 1 I I -0.70710678118654624 0.70710678118654879 0.25 forward I I I I #
loop $-1 $-1 $251 $70 #
coedge $-1 $158 $158 $252 $253 reversed $99 $-1 #
face $-1 $254 $255 $55 $-1 $256 reversed single #
loop $-1 $-1 $257 $101 #
plane-surface $-1 -40.936307870723596 2.2137534477908787 3.0341381908522891 -0.69465837861970381 0 0.71933979245794832 0.71933979245794832 0 0.69465837861970381 forward_v I I I I #
coedge $-1 $258 $259 $260 $261 reversed $102 $-1 #
face $-1 $-1 $262 $56 $-1 $263 forward single #
loop $-1 $264 $265 $104 #
cone-surface $-1 -36.31994378129756 0.79183711071325291 4.4196067257427121 0.69465837861970381 0 -0.71933979245794832 0.17983494811448708 0 0.17366459465492595 1 I I -0.70710678118654624 0.70710678118654879 0.25 forward I I I I #
loop $-1 $-1 $266 $72 #
coedge $-1 $167 $167 $267 $268 reversed $105 $-1 #
face $-1 $-1 $269 $57 $-1 $270 forward single #
loop $-1 $271 $272 $107 #
cone-surface $-1 -36.31994378129756 3.6356697848685187 4.4196067257427121 0.69465837861970381 0 -0.71933979245794832 0.17983494811448708 0 0.17366459465492595 1 I I -0.70710678118654624 0.70710678118654879 0.25 forward I I I I #
loop $-1 $-1 $273 $73 #
coedge $-1 $172 $172 $274 $275 reversed $108 $-1 #
face $-1 $276 $277 $58 $-1 $278 reversed single #
loop $-1 $-1 $279 $110 #
plane-surface $-1 -40.936307870723596 13.133471658408659 3.0341381908522891 -0.69465837861970381 0 0.71933979245794832 0.71933979245794832 0 0.69465837861970381 forward_v I I I I #
coedge $-1 $280 $281 $282 $283 reversed $111 $-1 #
face $-1 $-1 $284 $59 $-1 $285 forward single #
loop $-1 $286 $287 $113 #
cone-surface $-1 -36.31994378129756 11.711555321331033 4.4196067257427121 0.69465837861970381 0 -0.71933979245794832 0.17983494811448708 0 0.17366459465492595 1 I I -0.70710678118654624 0.70710678118654879 0.25 forward I I I I #
loop $-1 $-1 $288 $75 #
coedge $-1 $181 $181 $289 $290 reversed $114 $-1 #
face $-1 $-1 $291 $60 $-1 $292 forward single #
loop $-1 $293 $294 $116 #
cone-surface $-1 -36.31994378129756 14.555387995486299 4.4196067257427121 0.69465837861970381 0 -0.71933979245794832 0.17983494811448708 0 0.17366459465492595 1 I I -0.70710678118654624 0.70710678118654879 0.25 forward I I I I #
loop $-1 $-1 $295 $76 #
coedge $-1 $186 $186 $296 $297 reversed $117 $-1 #
face $-1 $298 $299 $61 $-1 $300 forward single #
loop $-1 $-1 $301 $119 #
plane-surface $-1 -40.936307870723596 24.05318986902644 3.0341381908522891 -0.69465837861970381 0 0.71933979245794832 0.71933979245794832 0 0.69465837861970381 forward_v I I I I #
coedge $-1 $302 $303 $304 $305 reversed $120 $-1 #
face $-1 $-1 $306 $62 $-1 $307 forward single #
loop $-1 $308 $309 $122 #
cone-surface $-1 -36.31994378129756 22.631273531948814 4.4196067257427121 0.69465837861970381 0 -0.71933979245794832 0.17983494811448708 0 0.17366459465492595 1 I I -0.70710678118654624 0.70710678118654879 0.25 forward I I I I #
loop $-1 $-1 $310 $78 #
coedge $-1 $195 $195 $311 $312 reversed $123 $-1 #
face $-1 $-1 $313 $63 $-1 $314 forward single #
loop $-1 $315 $316 $125 #
cone-surface $-1 -36.31994378129756 25.47510620610408 4.4196067257427121 0.69465837861970381 0 -0.71933979245794832 0.17983494811448708 0 0.17366459465492595 1 I I -0.70710678118654624 0.70710678118654879 0.25 forward I I I I #
loop $-1 $-1 $317 $79 #
coedge $-1 $200 $200 $318 $319 reversed $126 $-1 #
face $-1 $320 $321 $48 $-1 $322 reversed single #
loop $-1 $-1 $323 $128 #
plane-surface $-1 0 -27.370994655540912 0 0 1 0 0 0 1 forward_v I I I I #
coedge $-1 $324 $325 $326 $327 forward $129 $-1 #
coedge $-1 $328 $131 $329 $330 forward $81 $-1 #
coedge $-1 $131 $328 $331 $332 forward $81 $-1 #
coedge $-1 $333 $334 $131 $208 reversed $335 $-1 #
edge $-1 $336 -27.370994655540912 $337 27.370994655540912 $207 $338 forward 7 unknown #
face $-1 $339 $340 $49 $-1 $341 reversed single #
loop $-1 $-1 $342 $132 #
plane-surface $-1 0 -16.307878186930203 3.2067426059912272 0 -1 0 0 0 -1 forward_v I I I I #
coedge $-1 $343 $344 $345 $346 reversed $133 $-1 #
coedge $-1 $347 $135 $348 $349 forward $84 $-1 #
coedge $-1 $135 $347 $350 $351 reversed $84 $-1 #
coedge $-1 $352 $353 $135 $216 forward $354 $-1 #
edge $-1 $355 5.3881599763124246 $356 16.451276444923131 $215 $357 forward 7 unknown #
face $-1 $358 $359 $50 $-1 $360 forward single #
loop $-1 $-1 $361 $136 #
plane-surface $-1 38.915575959589376 13.898356442349129 117.3883590767105 0 -1 0 -0.69465837861970381 0 -0.71933979245794832 forward_v I I I I #
coedge $-1 $362 $363 $364 $365 reversed $137 $-1 #
coedge $-1 $222 $139 $366 $367 reversed $87 $-1 #
coedge $-1 $139 $221 $362 $368 reversed $87 $-1 #
coedge $-1 $364 $369 $139 $224 forward $370 $-1 #
edge $-1 $371 49.709373006952816 $372 57.073549381394457 $223 $373 forward 7 unknown #
loop $-1 $-1 $230 $140 #
plane-surface $-1 -17.957922544718372 9.3292074665459808 58.494128661268526 0.69465837861970381 0 0.71933979245794832 0.71933979245794832 0 -0.69465837861970381 forward_v I I I I #
loop $-1 $-1 $374 $89 #
coedge $-1 $228 $228 $229 $375 reversed $141 $-1 #
coedge $-1 $229 $229 $228 $375 forward $143 $-1 #
coedge $-1 $230 $230 $144 $231 forward $225 $-1 #
edge $-1 $376 0 $376 6.2831853071796004 $230 $377 forward 7 unknown #
face $-1 $378 $379 $52 $-1 $380 reversed single #
loop $-1 $-1 $381 $145 #
plane-surface $-1 -97.809806375031343 -5.3881599763124237 61.928368606294264 0 -1 0 0.69465837861970381 0 -0.71933979245794832 forward_v I I I I #
coedge $-1 $382 $383 $384 $385 reversed $146 $-1 #
coedge $-1 $237 $148 $386 $387 reversed $93 $-1 #
coedge $-1 $148 $236 $382 $388 reversed $93 $-1 #
coedge $-1 $384 $389 $148 $239 forward $390 $-1 #
edge $-1 $391 7.9685953167920758 $392 14.13069263084585 $238 $393 forward 7 unknown #
loop $-1 $-1 $245 $149 #
plane-surface $-1 -40.936307870723596 -8.7059647628268984 3.0341381908522891 -0.69465837861970381 0 0.71933979245794832 0.71933979245794832 0 0.69465837861970381 forward_v I I I I #
loop $-1 $-1 $394 $95 #
coedge $-1 $243 $243 $244 $395 reversed $150 $-1 #
coedge $-1 $244 $244 $243 $395 forward $152 $-1 #
coedge $-1 $245 $245 $153 $246 forward $240 $-1 #
edge $-1 $396 0 $396 6.2831853071796004 $245 $397 forward 7 unknown #
loop $-1 $-1 $252 $154 #
plane-surface $-1 -40.936307870723596 -8.7059647628268984 3.0341381908522891 -0.69465837861970381 0 0.71933979245794832 0.71933979245794832 0 0.69465837861970381 forward_v I I I I #
loop $-1 $-1 $398 $98 #
coedge $-1 $250 $250 $251 $399 reversed $155 $-1 #
coedge $-1 $251 $251 $250 $399 forward $157 $-1 #
coedge $-1 $252 $252 $158 $253 forward $247 $-1 #
edge $-1 $400 0 $400 6.2831853071796004 $252 $401 forward 7 unknown #
face $-1 $402 $403 $55 $-1 $404 forward single #
loop $-1 $-1 $405 $159 #
plane-surface $-1 -97.809806375031343 5.5315582343053533 61.928368606294264 0 -1 0 0.69465837861970381 0 -0.71933979245794832 forward_v I I I I #
coedge $-1 $406 $407 $408 $409 reversed $160 $-1 #
coedge $-1 $259 $162 $410 $411 reversed $102 $-1 #
coedge $-1 $162 $258 $406 $412 reversed $102 $-1 #
coedge $-1 $408 $413 $162 $261 forward $403 $-1 #
edge $-1 $414 7.9685953167920758 $415 14.13069263084585 $260 $416 forward 7 unknown #
loop $-1 $-1 $267 $163 #
plane-surface $-1 -40.936307870723596 2.2137534477908787 3.0341381908522891 -0.69465837861970381 0 0.71933979245794832 0.71933979245794832 0 0.69465837861970381 forward_v I I I I #
loop $-1 $-1 $417 $104 #
coedge $-1 $265 $265 $266 $418 reversed $164 $-1 #
coedge $-1 $266 $266 $265 $418 forward $166 $-1 #
coedge $-1 $267 $267 $167 $268 forward $262 $-1 #
edge $-1 $419 0 $419 6.2831853071796004 $267 $420 forward 7 unknown #
loop $-1 $-1 $274 $168 #
plane-surface $-1 -40.936307870723596 2.2137534477908787 3.0341381908522891 -0.69465837861970381 0 0.71933979245794832 0.71933979245794832 0 0.69465837861970381 forward_v I I I I #
loop $-1 $-1 $421 $107 #
coedge $-1 $272 $272 $273 $422 reversed $169 $-1 #
coedge $-1 $273 $273 $272 $422 forward $171 $-1 #
coedge $-1 $274 $274 $172 $275 forward $269 $-1 #
edge $-1 $423 0 $423 6.2831853071796004 $274 $424 forward 7 unknown #
face $-1 $425 $426 $58 $-1 $427 forward single #
loop $-1 $-1 $428 $173 #
plane-surface $-1 -97.809806375031343 16.451276444923135 61.928368606294264 0 -1 0 0.69465837861970381 0 -0.71933979245794832 forward_v I I I I #
coedge $-1 $429 $430 $431 $432 reversed $174 $-1 #
coedge $-1 $281 $176 $433 $434 reversed $111 $-1 #
coedge $-1 $176 $280 $429 $435 reversed $111 $-1 #
coedge $-1 $431 $436 $176 $283 forward $426 $-1 #
edge $-1 $437 7.9685953167920758 $438 14.13069263084585 $282 $439 forward 7 unknown #
loop $-1 $-1 $289 $177 #
plane-surface $-1 -40.936307870723596 13.133471658408659 3.0341381908522891 -0.69465837861970381 0 0.71933979245794832 0.71933979245794832 0 0.69465837861970381 forward_v I I I I #
loop $-1 $-1 $440 $113 #
coedge $-1 $287 $287 $288 $441 reversed $178 $-1 #
coedge $-1 $288 $288 $287 $441 forward $180 $-1 #
coedge $-1 $289 $289 $181 $290 forward $284 $-1 #
edge $-1 $442 0 $442 6.2831853071796004 $289 $443 forward 7 unknown #
loop $-1 $-1 $296 $182 #
plane-surface $-1 -40.936307870723596 13.133471658408659 3.0341381908522891 -0.69465837861970381 0 0.71933979245794832 0.71933979245794832 0 0.69465837861970381 forward_v I I I I #
loop $-1 $-1 $444 $116 #
coedge $-1 $294 $294 $295 $445 reversed $183 $-1 #
coedge $-1 $295 $295 $294 $445 forward $185 $-1 #
coedge $-1 $296 $296 $186 $297 forward $291 $-1 #
edge $-1 $446 0 $446 6.2831853071796004 $296 $447 forward 7 unknown #
face $-1 $448 $449 $61 $-1 $450 reversed single #
loop $-1 $-1 $304 $187 #
plane-surface $-1 0 0 8.9848065314024357 0 0 1 1 0 0 forward_v I I I I #
coedge $-1 $451 $452 $453 $454 reversed $188 $-1 #
coedge $-1 $303 $190 $455 $456 reversed $120 $-1 #
coedge $-1 $190 $302 $451 $457 reversed $120 $-1 #
coedge $-1 $453 $458 $190 $305 forward $299 $-1 #
edge $-1 $459 7.9685953167920758 $460 14.13069263084585 $304 $461 forward 7 unknown #
loop $-1 $-1 $311 $191 #
plane-surface $-1 -40.936307870723596 24.05318986902644 3.0341381908522891 -0.69465837861970381 0 0.71933979245794832 0.71933979245794832 0 0.69465837861970381 forward_v I I I I #
loop $-1 $-1 $462 $122 #
coedge $-1 $309 $309 $310 $463 reversed $192 $-1 #
coedge $-1 $310 $310 $309 $463 forward $194 $-1 #
coedge $-1 $311 $311 $195 $312 forward $306 $-1 #
edge $-1 $464 0 $464 6.2831853071796004 $311 $465 forward 7 unknown #
loop $-1 $-1 $318 $196 #
plane-surface $-1 -40.936307870723596 24.05318986902644 3.0341381908522891 -0.69465837861970381 0 0.71933979245794832 0.71933979245794832 0 0.69465837861970381 forward_v I I I I #
loop $-1 $-1 $466 $125 #
coedge $-1 $316 $316 $317 $467 reversed $197 $-1 #
coedge $-1 $317 $317 $316 $467 forward $199 $-1 #
coedge $-1 $318 $318 $200 $319 forward $313 $-1 #
edge $-1 $468 0 $468 6.2831853071796004 $318 $469 forward 7 unknown #
face $-1 $470 $471 $48 $-1 $472 reversed single #
loop $-1 $-1 $473 $201 #
plane-surface $-1 -40.936307870723596 0 0 1 0 0 0 0 -1 forward_v I I I I #
coedge $-1 $474 $331 $475 $476 forward $202 $-1 #
coedge $-1 $477 $204 $474 $478 forward $129 $-1 #
coedge $-1 $204 $477 $479 $480 forward $129 $-1 #
coedge $-1 $334 $333 $204 $327 reversed $335 $-1 #
edge $-1 $481 -27.370994655540912 $482 27.370994655540912 $326 $483 forward 7 unknown #
coedge $-1 $206 $205 $484 $485 forward $81 $-1 #
coedge $-1 $486 $487 $205 $330 reversed $471 $-1 #
edge $-1 $337 -40.936307870723596 $488 40.936307870723596 $329 $489 forward 7 unknown #
coedge $-1 $323 $490 $206 $332 reversed $202 $-1 #
edge $-1 $491 -40.936307870723596 $336 40.936307870723596 $331 $492 forward 7 unknown #
coedge $-1 $326 $207 $490 $493 forward $335 $-1 #
coedge $-1 $207 $326 $486 $494 reversed $335 $-1 #
loop $-1 $-1 $333 $470 #
vertex $-1 $208 $495 #
vertex $-1 $208 $496 #
straight-curve $-1 40.936307870723596 0 8.9848065314024357 0 1 0 I I #
face $-1 $497 $498 $49 $-1 $499 reversed single #
loop $-1 $-1 $500 $209 #
plane-surface $-1 -40.936307870723596 0 0 1 0 0 0 0 -1 forward_v I I I I #
coedge $-1 $501 $348 $353 $502 reversed $210 $-1 #
coedge $-1 $503 $212 $504 $505 reversed $133 $-1 #
coedge $-1 $212 $503 $501 $506 forward $133 $-1 #
coedge $-1 $353 $352 $212 $346 forward $354 $-1 #
edge $-1 $507 -16.451276444923131 $508 -5.3881599763124246 $345 $509 forward 7 unknown #
coedge $-1 $214 $213 $500 $510 reversed $84 $-1 #
coedge $-1 $342 $511 $213 $349 reversed $210 $-1 #
edge $-1 $355 -40.936307870723596 $512 40.936307870723596 $348 $513 forward 7 unknown #
coedge $-1 $514 $515 $214 $351 forward $498 $-1 #
edge $-1 $356 -40.936307870723596 $516 40.936307870723596 $350 $517 forward 7 unknown #
coedge $-1 $345 $215 $515 $518 forward $354 $-1 #
coedge $-1 $215 $345 $342 $502 forward $354 $-1 #
loop $-1 $-1 $215 $497 #
vertex $-1 $216 $519 #
vertex $-1 $518 $520 #
straight-curve $-1 40.936307870723596 -10.919718210617779 5.4761829348938509 0 -1 0 I I #
face $-1 $-1 $370 $50 $-1 $521 reversed single #
loop $-1 $-1 $522 $217 #
plane-surface $-1 0 0 8.9848065314024357 0 0 1 1 0 0 forward_v I I I I #
coedge $-1 $523 $524 $525 $526 reversed $218 $-1 #
coedge $-1 $527 $220 $222 $368 forward $137 $-1 #
coedge $-1 $220 $527 $523 $528 forward $137 $-1 #
coedge $-1 $525 $223 $220 $365 forward $370 $-1 #
edge $-1 $372 0.095454757469841667 $529 9.2337527090761391 $364 $530 forward 7 unknown #
coedge $-1 $531 $532 $221 $367 forward $359 $-1 #
edge $-1 $533 13.85269219222544 $371 21.478519890928908 $366 $534 forward 7 unknown #
edge $-1 $372 -81.872615741447163 $533 -71.271467607202595 $222 $535 forward 7 unknown #
coedge $-1 $223 $525 $531 $536 reversed $370 $-1 #
loop $-1 $-1 $525 $358 #
vertex $-1 $536 $537 #
vertex $-1 $224 $538 #
straight-curve $-1 40.936307870723596 4.760058490742832 58.69417953835525 0 0 -1 I I #
coedge $-1 $374 $374 $-1 $539 reversed $227 $-1 #
edge $-1 $540 0 $540 6.2831853071796004 $228 $541 forward 7 unknown #
vertex $-1 $231 $542 #
ellipse-curve $-1 37.123394021371858 9.3292074665459808 5.3027183441816046 0.69465837861970381 0 0.71933979245794832 1.4386795849158966 0 -1.3893167572394076 1 I I #
face $-1 $-1 $390 $52 $-1 $543 forward single #
loop $-1 $-1 $544 $232 #
plane-surface $-1 -40.936307870723596 0 0 1 0 0 0 0 -1 forward_v I I I I #
coedge $-1 $545 $546 $547 $548 reversed $233 $-1 #
coedge $-1 $549 $235 $237 $388 forward $146 $-1 #
coedge $-1 $235 $549 $545 $550 forward $146 $-1 #
coedge $-1 $547 $238 $235 $385 forward $390 $-1 #
edge $-1 $392 -7.6707871679279247 $551 -1.0351775948989745 $384 $552 forward 7 unknown #
coedge $-1 $553 $554 $236 $387 forward $379 $-1 #
edge $-1 $555 -27.930046112294843 $391 -21.979377771744694 $386 $556 forward 7 unknown #
edge $-1 $392 -8.5663234241472921 $555 0 $237 $557 forward 7 unknown #
coedge $-1 $238 $547 $553 $558 forward $390 $-1 #
loop $-1 $-1 $547 $378 #
vertex $-1 $387 $559 #
vertex $-1 $239 $560 #
straight-curve $-1 -48.904903187515671 -12.023769549341374 8.9848065314024339 1 0 0 I I #
coedge $-1 $394 $394 $-1 $561 reversed $242 $-1 #
edge $-1 $562 0 $562 6.2831853071796004 $243 $563 forward 7 unknown #
vertex $-1 $246 $564 #
ellipse-curve $-1 -37.855259213696712 -10.127881099904528 6.0094723611273624 -0.69465837861970381 0 0.71933979245794832 0.35966989622897416 0 0.3473291893098519 1 I I #
coedge $-1 $398 $398 $-1 $565 reversed $249 $-1 #
edge $-1 $566 0 $566 6.2831853071796004 $250 $567 forward 7 unknown #
vertex $-1 $253 $568 #
ellipse-curve $-1 -37.855259213696712 -7.2840484257492619 6.0094723611273624 -0.69465837861970381 0 0.71933979245794832 0.35966989622897416 0 0.3473291893098519 1 I I #
face $-1 $-1 $569 $55 $-1 $570 reversed single #
loop $-1 $-1 $260 $254 #
plane-surface $-1 0 0 8.9848065314024357 0 0 1 1 0 0 forward_v I I I I #
coedge $-1 $571 $572 $573 $574 reversed $255 $-1 #
coedge $-1 $575 $257 $259 $412 forward $160 $-1 #
coedge $-1 $257 $575 $571 $576 forward $160 $-1 #
coedge $-1 $573 $260 $257 $409 forward $403 $-1 #
edge $-1 $415 -2.2109280626190353 $577 4.424681510409914 $408 $578 forward 7 unknown #
coedge $-1 $579 $580 $258 $411 forward $569 $-1 #
edge $-1 $581 -27.930046112294843 $414 -21.979377771744694 $410 $582 forward 7 unknown #
edge $-1 $415 -8.5663234241472921 $581 0 $259 $583 forward 7 unknown #
coedge $-1 $260 $573 $579 $584 forward $403 $-1 #
vertex $-1 $261 $585 #
vertex $-1 $261 $586 #
straight-curve $-1 -48.904903187515671 -1.104051338723596 8.9848065314024339 1 0 0 I I #
coedge $-1 $417 $417 $-1 $587 reversed $264 $-1 #
edge $-1 $588 0 $588 6.2831853071796004 $265 $589 forward 7 unknown #
vertex $-1 $268 $590 #
ellipse-curve $-1 -37.855259213696712 0.79183711071325291 6.0094723611273624 -0.69465837861970381 0 0.71933979245794832 0.35966989622897416 0 0.3473291893098519 1 I I #
coedge $-1 $421 $421 $-1 $591 reversed $271 $-1 #
edge $-1 $592 0 $592 6.2831853071796004 $272 $593 forward 7 unknown #
vertex $-1 $275 $594 #
ellipse-curve $-1 -37.855259213696712 3.6356697848685187 6.0094723611273624 -0.69465837861970381 0 0.71933979245794832 0.35966989622897416 0 0.3473291893098519 1 I I #
face $-1 $-1 $595 $58 $-1 $596 reversed single #
loop $-1 $-1 $282 $276 #
plane-surface $-1 0 0 8.9848065314024357 0 0 1 1 0 0 forward_v I I I I #
coedge $-1 $597 $598 $599 $600 reversed $277 $-1 #
coedge $-1 $601 $279 $281 $435 forward $174 $-1 #
coedge $-1 $279 $601 $597 $602 forward $174 $-1 #
coedge $-1 $599 $282 $279 $432 forward $426 $-1 #
edge $-1 $438 3.2489310426898541 $603 9.8845406157188052 $431 $604 forward 7 unknown #
coedge $-1 $605 $606 $280 $434 forward $595 $-1 #
edge $-1 $607 -27.930046112294843 $437 -21.979377771744694 $433 $608 forward 7 unknown #
edge $-1 $438 -8.5663234241472921 $607 0 $281 $609 forward 7 unknown #
coedge $-1 $282 $599 $605 $610 forward $426 $-1 #
vertex $-1 $283 $611 #
vertex $-1 $283 $612 #
straight-curve $-1 -48.904903187515671 9.8156668718941837 8.9848065314024339 1 0 0 I I #
coedge $-1 $440 $440 $-1 $613 reversed $286 $-1 #
edge $-1 $614 0 $614 6.2831853071796004 $287 $615 forward 7 unknown #
vertex $-1 $290 $616 #
ellipse-curve $-1 -37.855259213696712 11.711555321331033 6.0094723611273624 -0.69465837861970381 0 0.71933979245794832 0.35966989622897416 0 0.3473291893098519 1 I I #
coedge $-1 $444 $444 $-1 $617 reversed $293 $-1 #
edge $-1 $618 0 $618 6.2831853071796004 $294 $619 forward 7 unknown #
vertex $-1 $297 $620 #
ellipse-curve $-1 -37.855259213696712 14.555387995486299 6.0094723611273624 -0.69465837861970381 0 0.71933979245794832 0.35966989622897416 0 0.3473291893098519 1 I I #
face $-1 $-1 $621 $61 $-1 $622 reversed single #
loop $-1 $-1 $623 $298 #
plane-surface $-1 0 27.370994655540912 0 0 -1 0 0 0 -1 forward_v I I I I #
coedge $-1 $624 $301 $303 $457 forward $188 $-1 #
coedge $-1 $301 $624 $623 $625 reversed $188 $-1 #
coedge $-1 $626 $304 $301 $454 forward $299 $-1 #
edge $-1 $460 8.7087901479987444 $627 15.344399721027695 $453 $628 forward 7 unknown #
coedge $-1 $629 $630 $302 $456 forward $621 $-1 #
edge $-1 $631 -27.930046112294843 $459 -21.979377771744694 $455 $632 forward 7 unknown #
edge $-1 $460 -8.5663234241472921 $631 0 $303 $633 forward 7 unknown #
coedge $-1 $304 $626 $629 $634 forward $299 $-1 #
vertex $-1 $456 $635 #
vertex $-1 $305 $636 #
straight-curve $-1 -48.904903187515671 20.735385082511964 8.9848065314024339 1 0 0 I I #
coedge $-1 $462 $462 $-1 $637 reversed $308 $-1 #
edge $-1 $638 0 $638 6.2831853071796004 $309 $639 forward 7 unknown #
vertex $-1 $312 $640 #
ellipse-curve $-1 -37.855259213696712 22.631273531948814 6.0094723611273624 -0.69465837861970381 0 0.71933979245794832 0.35966989622897416 0 0.3473291893098519 1 I I #
coedge $-1 $466 $466 $-1 $641 reversed $315 $-1 #
edge $-1 $642 0 $642 6.2831853071796004 $316 $643 forward 7 unknown #
vertex $-1 $319 $644 #
ellipse-curve $-1 -37.855259213696712 25.47510620610408 6.0094723611273624 -0.69465837861970381 0 0.71933979245794832 0.35966989622897416 0 0.3473291893098519 1 I I #
face $-1 $-1 $335 $48 $-1 $645 reversed single #
loop $-1 $-1 $486 $320 #
plane-surface $-1 0 27.370994655540912 0 0 -1 0 0 0 -1 forward_v I I I I #
coedge $-1 $646 $484 $487 $647 forward $321 $-1 #
coedge $-1 $490 $323 $324 $478 reversed $202 $-1 #
coedge $-1 $484 $646 $323 $476 reversed $321 $-1 #
edge $-1 $491 -8.9848065314024357 $648 8.9848065314024357 $475 $649 forward 7 unknown #
coedge $-1 $325 $324 $646 $650 forward $129 $-1 #
edge $-1 $482 -40.936307870723596 $648 40.936307870723596 $474 $651 forward 7 unknown #
coedge $-1 $487 $486 $325 $480 reversed $471 $-1 #
edge $-1 $652 -40.936307870723596 $481 40.936307870723596 $479 $653 forward 7 unknown #
vertex $-1 $327 $654 #
vertex $-1 $493 $655 #
straight-curve $-1 40.936307870723596 0 -8.9848065314024357 0 -1 0 I I #
coedge $-1 $473 $475 $328 $485 reversed $321 $-1 #
edge $-1 $488 -27.370994655540912 $491 27.370994655540912 $484 $656 forward 7 unknown #
coedge $-1 $479 $329 $334 $494 forward $471 $-1 #
coedge $-1 $329 $479 $473 $647 reversed $471 $-1 #
vertex $-1 $330 $657 #
straight-curve $-1 0 27.370994655540912 8.9848065314024357 -1 0 0 I I #
coedge $-1 $331 $474 $333 $493 reversed $202 $-1 #
vertex $-1 $485 $658 #
straight-curve $-1 0 -27.370994655540912 8.9848065314024357 1 0 0 I I #
edge $-1 $336 -8.9848065314024357 $482 8.9848065314024357 $333 $659 forward 7 unknown #
edge $-1 $337 -8.9848065314024357 $481 8.9848065314024357 $334 $660 forward 7 unknown #
point $-1 40.936307870723596 -27.370994655540912 8.9848065314024357 #
point $-1 40.936307870723596 27.370994655540912 8.9848065314024357 #
face $-1 $-1 $354 $49 $-1 $661 reversed single #
loop $-1 $-1 $350 $339 #
plane-surface $-1 0 -27.370994655540912 0 0 1 0 0 0 1 forward_v I I I I #
coedge $-1 $662 $663 $347 $510 forward $340 $-1 #
coedge $-1 $511 $342 $344 $506 reversed $210 $-1 #
edge $-1 $508 -0.66606902590701011 $355 3.8728116318982373 $353 $664 forward 7 unknown #
coedge $-1 $344 $343 $665 $666 reversed $133 $-1 #
coedge $-1 $515 $514 $343 $505 forward $498 $-1 #
edge $-1 $667 -40.936307870723596 $507 40.936307870723596 $504 $668 forward 7 unknown #
edge $-1 $669 -40.936307870723596 $508 40.936307870723596 $501 $670 forward 7 unknown #
vertex $-1 $505 $671 #
vertex $-1 $346 $672 #
straight-curve $-1 40.936307870723596 -10.919718210617779 0.93730227708860347 0 1 0 I I #
edge $-1 $516 -16.451276444923131 $512 -5.3881599763124246 $500 $673 forward 7 unknown #
coedge $-1 $348 $501 $662 $674 reversed $210 $-1 #
vertex $-1 $510 $675 #
straight-curve $-1 0 -16.307878186930203 5.4761829348938509 -1 0 0 I I #
coedge $-1 $504 $350 $663 $676 forward $498 $-1 #
coedge $-1 $350 $504 $352 $518 reversed $498 $-1 #
vertex $-1 $676 $677 #
straight-curve $-1 0 -27.370994655540912 5.4761829348938509 -1 0 0 I I #
edge $-1 $356 -5.4761829348938509 $507 -0.93730227708860347 $352 $678 forward 7 unknown #
point $-1 40.936307870723596 -16.307878186930203 5.4761829348938509 #
point $-1 40.936307870723596 -27.370994655540912 5.4761829348938509 #
plane-surface $-1 40.936307870723596 0 0 -1 0 0 0 0 1 forward_v I I I I #
coedge $-1 $532 $531 $524 $679 forward $359 $-1 #
coedge $-1 $524 $361 $363 $528 reversed $218 $-1 #
coedge $-1 $361 $523 $522 $679 reversed $218 $-1 #
coedge $-1 $369 $364 $361 $526 forward $370 $-1 #
edge $-1 $529 -57.073549381394457 $680 -49.709373006952816 $525 $681 forward 7 unknown #
coedge $-1 $363 $362 $532 $682 reversed $137 $-1 #
edge $-1 $683 71.271467607202595 $529 81.872615741447163 $523 $684 forward 7 unknown #
vertex $-1 $365 $685 #
straight-curve $-1 40.936307870723596 4.6646037332729904 1.620630156960793 0 1 0 I I #
coedge $-1 $522 $366 $369 $536 forward $359 $-1 #
coedge $-1 $366 $522 $527 $682 forward $359 $-1 #
vertex $-1 $367 $686 #
straight-curve $-1 19.457787979794688 4.760058490742832 8.9848065314024339 1 0 0 I I #
straight-curve $-1 -17.957922544718372 4.760058490742832 58.494128661268526 -0.71933979245794832 0 0.69465837861970381 I I #
edge $-1 $371 4.760058490742832 $680 13.898356442349129 $369 $687 forward 7 unknown #
point $-1 40.936307870723596 4.760058490742832 8.9848065314024357 #
point $-1 40.936307870723596 4.760058490742832 1.620630156960793 #
edge $-1 $688 1 $688 0 $374 $-1 forward 7 unknown #
vertex $-1 $375 $689 #
ellipse-curve $-1 34.340605318984188 9.3292074665459808 2.4210563514083838 0.69465837861970381 0 0.71933979245794832 1.4386795849158966 0 -1.3893167572394076 1 I I #
point $-1 38.562073606287754 9.3292074665459808 3.913401586942197 #
plane-surface $-1 0 0 8.9848065314024357 0 0 1 1 0 0 forward_v I I I I #
coedge $-1 $554 $553 $546 $690 forward $379 $-1 #
coedge $-1 $546 $381 $383 $550 reversed $233 $-1 #
coedge $-1 $381 $545 $544 $690 reversed $233 $-1 #
coedge $-1 $389 $384 $381 $548 forward $390 $-1 #
edge $-1 $551 -14.13069263084585 $691 -7.9685953167920758 $547 $692 forward 7 unknown #
coedge $-1 $383 $382 $554 $693 reversed $146 $-1 #
edge $-1 $694 0 $551 8.5663234241472921 $545 $695 forward 7 unknown #
vertex $-1 $385 $696 #
straight-curve $-1 -34.774210556669821 -4.3529823814134492 8.9848065314024357 0 1 0 I I #
coedge $-1 $544 $386 $389 $558 reversed $379 $-1 #
coedge $-1 $386 $544 $549 $693 forward $379 $-1 #
vertex $-1 $387 $697 #
straight-curve $-1 -40.936307870723596 -12.023769549341374 30.964184303147132 0 0 1 I I #
straight-curve $-1 -40.936307870723596 -12.023769549341374 3.0341381908522891 -0.71933979245794832 0 -0.69465837861970381 I I #
edge $-1 $691 5.3881599763124237 $391 12.023769549341374 $553 $698 forward 7 unknown #
point $-1 -40.936307870723596 -12.023769549341374 8.9848065314024357 #
point $-1 -34.774210556669821 -12.023769549341374 8.9848065314024375 #
edge $-1 $699 1 $699 0 $394 $-1 forward 7 unknown #
vertex $-1 $395 $700 #
ellipse-curve $-1 -36.493608375952483 -10.127881099904528 4.5994416738571999 -0.69465837861970381 0 0.71933979245794832 0.35966989622897416 0 0.3473291893098519 1 I I #
point $-1 -37.495589317467733 -10.127881099904528 6.3568015504372184 #
edge $-1 $701 1 $701 0 $398 $-1 forward 7 unknown #
vertex $-1 $399 $702 #
ellipse-curve $-1 -36.493608375952483 -7.2840484257492619 4.5994416738571999 -0.69465837861970381 0 0.71933979245794832 0.35966989622897416 0 0.3473291893098519 1 I I #
point $-1 -37.495589317467733 -7.2840484257492619 6.3568015504372184 #
loop $-1 $-1 $410 $402 #
plane-surface $-1 -40.936307870723596 0 0 1 0 0 0 0 -1 forward_v I I I I #
coedge $-1 $572 $405 $407 $576 reversed $255 $-1 #
coedge $-1 $405 $571 $703 $704 reversed $255 $-1 #
coedge $-1 $413 $408 $405 $574 forward $403 $-1 #
edge $-1 $577 -14.13069263084585 $705 -7.9685953167920758 $573 $706 forward 7 unknown #
coedge $-1 $407 $406 $580 $707 reversed $160 $-1 #
edge $-1 $708 0 $577 8.5663234241472921 $571 $709 forward 7 unknown #
vertex $-1 $409 $710 #
straight-curve $-1 -34.774210556669821 1.1068767238954393 8.9848065314024357 0 1 0 I I #
coedge $-1 $703 $410 $413 $584 reversed $569 $-1 #
coedge $-1 $410 $703 $575 $707 forward $569 $-1 #
vertex $-1 $411 $711 #
straight-curve $-1 -40.936307870723596 -1.104051338723596 30.964184303147132 0 0 1 I I #
straight-curve $-1 -40.936307870723596 -1.104051338723596 3.0341381908522891 -0.71933979245794832 0 -0.69465837861970381 I I #
edge $-1 $705 -5.5315582343053533 $414 1.104051338723596 $579 $712 forward 7 unknown #
point $-1 -40.936307870723596 -1.104051338723596 8.9848065314024357 #
point $-1 -34.774210556669821 -1.104051338723596 8.9848065314024375 #
edge $-1 $713 1 $713 0 $417 $-1 forward 7 unknown #
vertex $-1 $418 $714 #
ellipse-curve $-1 -36.493608375952483 0.79183711071325291 4.5994416738571999 -0.69465837861970381 0 0.71933979245794832 0.35966989622897416 0 0.3473291893098519 1 I I #
point $-1 -37.495589317467733 0.79183711071325291 6.3568015504372184 #
edge $-1 $715 1 $715 0 $421 $-1 forward 7 unknown #
vertex $-1 $422 $716 #
ellipse-curve $-1 -36.493608375952483 3.6356697848685187 4.5994416738571999 -0.69465837861970381 0 0.71933979245794832 0.35966989622897416 0 0.3473291893098519 1 I I #
point $-1 -37.495589317467733 3.6356697848685187 6.3568015504372184 #
loop $-1 $-1 $433 $425 #
plane-surface $-1 -40.936307870723596 0 0 1 0 0 0 0 -1 forward_v I I I I #
coedge $-1 $598 $428 $430 $602 reversed $277 $-1 #
coedge $-1 $428 $597 $717 $718 reversed $277 $-1 #
coedge $-1 $436 $431 $428 $600 forward $426 $-1 #
edge $-1 $603 -14.13069263084585 $719 -7.9685953167920758 $599 $720 forward 7 unknown #
coedge $-1 $430 $429 $606 $721 reversed $174 $-1 #
edge $-1 $722 0 $603 8.5663234241472921 $597 $723 forward 7 unknown #
vertex $-1 $432 $724 #
straight-curve $-1 -34.774210556669821 6.5667358292043296 8.9848065314024357 0 1 0 I I #
coedge $-1 $717 $433 $436 $610 reversed $595 $-1 #
coedge $-1 $433 $717 $601 $721 forward $595 $-1 #
vertex $-1 $434 $725 #
straight-curve $-1 -40.936307870723596 9.8156668718941837 30.964184303147132 0 0 1 I I #
straight-curve $-1 -40.936307870723596 9.8156668718941837 3.0341381908522891 -0.71933979245794832 0 -0.69465837861970381 I I #
edge $-1 $719 -16.451276444923135 $437 -9.8156668718941837 $605 $726 forward 7 unknown #
point $-1 -40.936307870723596 9.8156668718941837 8.9848065314024357 #
point $-1 -34.774210556669821 9.8156668718941837 8.9848065314024375 #
edge $-1 $727 1 $727 0 $440 $-1 forward 7 unknown #
vertex $-1 $441 $728 #
ellipse-curve $-1 -36.493608375952483 11.711555321331033 4.5994416738571999 -0.69465837861970381 0 0.71933979245794832 0.35966989622897416 0 0.3473291893098519 1 I I #
point $-1 -37.495589317467733 11.711555321331033 6.3568015504372184 #
edge $-1 $729 1 $729 0 $444 $-1 forward 7 unknown #
vertex $-1 $445 $730 #
ellipse-curve $-1 -36.493608375952483 14.555387995486299 4.5994416738571999 -0.69465837861970381 0 0.71933979245794832 0.35966989622897416 0 0.3473291893098519 1 I I #
point $-1 -37.495589317467733 14.555387995486299 6.3568015504372184 #
loop $-1 $-1 $455 $448 #
plane-surface $-1 -40.936307870723596 0 0 1 0 0 0 0 -1 forward_v I I I I #
coedge $-1 $731 $732 $452 $625 forward $449 $-1 #
coedge $-1 $452 $451 $630 $733 reversed $188 $-1 #
edge $-1 $627 5.103389421630415 $734 13.669712845777708 $623 $735 forward 7 unknown #
coedge $-1 $458 $453 $732 $736 forward $299 $-1 #
vertex $-1 $736 $737 #
straight-curve $-1 -34.774210556669821 12.02659493451322 8.9848065314024357 0 1 0 I I #
coedge $-1 $738 $455 $458 $634 reversed $621 $-1 #
coedge $-1 $455 $738 $624 $733 forward $621 $-1 #
vertex $-1 $456 $739 #
straight-curve $-1 -40.936307870723596 20.735385082511964 30.964184303147132 0 0 1 I I #
straight-curve $-1 -40.936307870723596 20.735385082511964 3.0341381908522891 -0.71933979245794832 0 -0.69465837861970381 I I #
edge $-1 $740 -27.370994655540912 $459 -20.735385082511964 $629 $741 forward 7 unknown #
point $-1 -40.936307870723596 20.735385082511964 8.9848065314024357 #
point $-1 -34.774210556669821 20.735385082511964 8.9848065314024375 #
edge $-1 $742 1 $742 0 $462 $-1 forward 7 unknown #
vertex $-1 $463 $743 #
ellipse-curve $-1 -36.493608375952483 22.631273531948814 4.5994416738571999 -0.69465837861970381 0 0.71933979245794832 0.35966989622897416 0 0.3473291893098519 1 I I #
point $-1 -37.495589317467733 22.631273531948814 6.3568015504372184 #
edge $-1 $744 1 $744 0 $466 $-1 forward 7 unknown #
vertex $-1 $467 $745 #
ellipse-curve $-1 -36.493608375952483 25.47510620610408 4.5994416738571999 -0.69465837861970381 0 0.71933979245794832 0.35966989622897416 0 0.3473291893098519 1 I I #
point $-1 -37.495589317467733 25.47510620610408 6.3568015504372184 #
plane-surface $-1 40.936307870723596 0 0 -1 0 0 0 0 1 forward_v I I I I #
coedge $-1 $475 $473 $477 $650 reversed $321 $-1 #
edge $-1 $488 -8.9848065314024357 $652 8.9848065314024357 $487 $746 forward 7 unknown #
vertex $-1 $650 $747 #
straight-curve $-1 -40.936307870723596 -27.370994655540912 0 0 0 -1 I I #
edge $-1 $648 -27.370994655540912 $652 27.370994655540912 $646 $748 forward 7 unknown #
straight-curve $-1 0 -27.370994655540912 -8.9848065314024357 -1 0 0 I I #
vertex $-1 $480 $749 #
straight-curve $-1 0 27.370994655540912 -8.9848065314024357 1 0 0 I I #
point $-1 40.936307870723596 27.370994655540912 -8.9848065314024357 #
point $-1 40.936307870723596 -27.370994655540912 -8.9848065314024357 #
straight-curve $-1 -40.936307870723596 0 8.9848065314024357 0 -1 0 I I #
point $-1 -40.936307870723596 27.370994655540912 8.9848065314024357 #
point $-1 -40.936307870723596 -27.370994655540912 8.9848065314024357 #
straight-curve $-1 40.936307870723596 -27.370994655540912 0 0 0 -1 I I #
straight-curve $-1 40.936307870723596 27.370994655540912 0 0 0 -1 I I #
plane-surface $-1 40.936307870723596 0 0 -1 0 0 0 0 1 forward_v I I I I #
coedge $-1 $665 $500 $511 $674 forward $340 $-1 #
coedge $-1 $500 $665 $514 $676 reversed $340 $-1 #
straight-curve $-1 40.936307870723596 -16.307878186930203 1.6033713029956136 0 0 1 I I #
coedge $-1 $663 $662 $503 $666 forward $340 $-1 #
edge $-1 $669 5.3881599763124246 $667 16.451276444923131 $665 $750 forward 7 unknown #
vertex $-1 $505 $751 #
straight-curve $-1 0 -27.370994655540912 0.93730227708860347 1 0 0 I I #
vertex $-1 $666 $752 #
straight-curve $-1 0 -16.307878186930203 0.93730227708860347 1 0 0 I I #
point $-1 40.936307870723596 -27.370994655540912 0.93730227708860347 #
point $-1 40.936307870723596 -16.307878186930203 0.93730227708860347 #
straight-curve $-1 -40.936307870723596 -10.919718210617779 5.4761829348938509 0 1 0 I I #
edge $-1 $512 -3.8728116318982373 $669 0.66606902590701011 $662 $753 forward 7 unknown #
point $-1 -40.936307870723596 -16.307878186930203 5.4761829348938509 #
edge $-1 $516 -5.4761829348938509 $667 -0.93730227708860347 $663 $754 forward 7 unknown #
point $-1 -40.936307870723596 -27.370994655540912 5.4761829348938509 #
straight-curve $-1 40.936307870723596 -27.370994655540912 0 0 0 -1 I I #
edge $-1 $680 -21.478519890928908 $683 -13.85269219222544 $522 $755 forward 7 unknown #
vertex $-1 $679 $756 #
straight-curve $-1 40.936307870723596 13.898356442349129 58.69417953835525 0 0 1 I I #
edge $-1 $683 -9.2337527090761391 $533 -0.095454757469841667 $532 $757 forward 7 unknown #
vertex $-1 $682 $758 #
straight-curve $-1 -17.957922544718372 13.898356442349129 58.494128661268526 0.71933979245794832 0 -0.69465837861970381 I I #
point $-1 40.936307870723596 13.898356442349129 1.620630156960793 #
point $-1 33.310480172020128 4.760058490742832 8.9848065314024268 #
straight-curve $-1 40.936307870723596 0 8.9848065314024357 0 1 0 I I #
vertex $-1 $539 $759 #
point $-1 35.779284903900084 9.3292074665459808 1.0317395941689762 #
edge $-1 $691 21.979377771744694 $694 27.930046112294843 $544 $760 forward 7 unknown #
vertex $-1 $558 $761 #
straight-curve $-1 -48.904903187515671 -5.3881599763124237 8.9848065314024339 -1 0 0 I I #
edge $-1 $694 1.0351775948989745 $555 7.6707871679279247 $554 $762 forward 7 unknown #
vertex $-1 $693 $763 #
straight-curve $-1 -40.936307870723596 -5.3881599763124237 3.0341381908522891 0.71933979245794832 0 0.69465837861970381 I I #
point $-1 -34.774210556669821 -5.3881599763124237 8.9848065314024375 #
point $-1 -40.936307870723596 -12.023769549341374 3.0341381908522891 #
straight-curve $-1 -40.936307870723596 0 8.9848065314024357 0 -1 0 I I #
vertex $-1 $561 $764 #
point $-1 -36.133938479723511 -10.127881099904528 4.9467708631670515 #
vertex $-1 $565 $765 #
point $-1 -36.133938479723511 -7.2840484257492619 4.9467708631670515 #
coedge $-1 $580 $579 $572 $704 forward $569 $-1 #
edge $-1 $705 21.979377771744694 $708 27.930046112294843 $703 $766 forward 7 unknown #
vertex $-1 $584 $767 #
straight-curve $-1 -48.904903187515671 5.5315582343053533 8.9848065314024339 -1 0 0 I I #
edge $-1 $708 -4.424681510409914 $581 2.2109280626190353 $580 $768 forward 7 unknown #
vertex $-1 $707 $769 #
straight-curve $-1 -40.936307870723596 5.5315582343053533 3.0341381908522891 0.71933979245794832 0 0.69465837861970381 I I #
point $-1 -34.774210556669821 5.5315582343053533 8.9848065314024375 #
point $-1 -40.936307870723596 -1.104051338723596 3.0341381908522891 #
straight-curve $-1 -40.936307870723596 0 8.9848065314024357 0 -1 0 I I #
vertex $-1 $587 $770 #
point $-1 -36.133938479723511 0.79183711071325291 4.9467708631670515 #
vertex $-1 $591 $771 #
point $-1 -36.133938479723511 3.6356697848685187 4.9467708631670515 #
coedge $-1 $606 $605 $598 $718 forward $595 $-1 #
edge $-1 $719 21.979377771744694 $722 27.930046112294843 $717 $772 forward 7 unknown #
vertex $-1 $610 $773 #
straight-curve $-1 -48.904903187515671 16.451276444923135 8.9848065314024339 -1 0 0 I I #
edge $-1 $722 -9.8845406157188052 $607 -3.2489310426898541 $606 $774 forward 7 unknown #
vertex $-1 $721 $775 #
straight-curve $-1 -40.936307870723596 16.451276444923135 3.0341381908522891 0.71933979245794832 0 0.69465837861970381 I I #
point $-1 -34.774210556669821 16.451276444923135 8.9848065314024375 #
point $-1 -40.936307870723596 9.8156668718941837 3.0341381908522891 #
straight-curve $-1 -40.936307870723596 0 8.9848065314024357 0 -1 0 I I #
vertex $-1 $613 $776 #
point $-1 -36.133938479723511 11.711555321331033 4.9467708631670515 #
vertex $-1 $617 $777 #
point $-1 -36.133938479723511 14.555387995486299 4.9467708631670515 #
coedge $-1 $732 $623 $738 $778 reversed $449 $-1 #
coedge $-1 $623 $731 $626 $736 reversed $449 $-1 #
edge $-1 $734 -15.344399721027695 $631 -8.7087901479987444 $630 $779 forward 7 unknown #
vertex $-1 $625 $780 #
straight-curve $-1 -31.103139469282109 27.370994655540912 12.529918752497169 -0.71933979245794832 0 -0.69465837861970381 I I #
edge $-1 $627 34.774210556669821 $740 40.936307870723596 $732 $781 forward 7 unknown #
point $-1 -34.774210556669821 27.370994655540915 8.9848065314024375 #
coedge $-1 $630 $629 $731 $778 forward $621 $-1 #
point $-1 -40.936307870723596 20.735385082511964 3.0341381908522891 #
vertex $-1 $736 $782 #
straight-curve $-1 -40.936307870723596 0 8.9848065314024357 0 -1 0 I I #
vertex $-1 $637 $783 #
point $-1 -36.133938479723511 22.631273531948814 4.9467708631670515 #
vertex $-1 $641 $784 #
point $-1 -36.133938479723511 25.47510620610408 4.9467708631670515 #
straight-curve $-1 -40.936307870723596 27.370994655540912 0 0 0 -1 I I #
point $-1 -40.936307870723596 -27.370994655540912 -8.9848065314024357 #
straight-curve $-1 -40.936307870723596 0 -8.9848065314024357 0 1 0 I I #
point $-1 -40.936307870723596 27.370994655540912 -8.9848065314024357 #
straight-curve $-1 -40.936307870723596 -10.919718210617779 0.93730227708860347 0 -1 0 I I #
point $-1 -40.936307870723596 -27.370994655540912 0.93730227708860347 #
point $-1 -40.936307870723596 -16.307878186930203 0.93730227708860347 #
straight-curve $-1 -40.936307870723596 -16.307878186930203 1.6033713029956136 0 0 -1 I I #
straight-curve $-1 -40.936307870723596 -27.370994655540912 0 0 0 -1 I I #
straight-curve $-1 19.457787979794688 13.898356442349129 8.9848065314024339 -1 0 0 I I #
point $-1 40.936307870723596 13.898356442349129 8.9848065314024357 #
straight-curve $-1 33.310480172020121 4.6646037332729904 8.9848065314024339 0 -1 0 I I #
point $-1 33.310480172020128 13.898356442349129 8.9848065314024268 #
point $-1 32.951288561744775 9.3292074665459808 0.98237676649248717 #
straight-curve $-1 -40.936307870723596 -5.3881599763124237 30.964184303147132 0 0 -1 I I #
point $-1 -40.936307870723596 -5.3881599763124237 8.9848065314024357 #
straight-curve $-1 -40.936307870723596 -4.3529823814134492 3.034138190852286 0 -1 0 I I #
point $-1 -40.936307870723596 -5.3881599763124237 3.0341381908522891 #
point $-1 -36.146279186642637 -10.127881099904528 4.2397717776282242 #
point $-1 -36.146279186642637 -7.2840484257492619 4.2397717776282242 #
straight-curve $-1 -40.936307870723596 5.5315582343053533 30.964184303147132 0 0 -1 I I #
point $-1 -40.936307870723596 5.5315582343053533 8.9848065314024357 #
straight-curve $-1 -40.936307870723596 1.1068767238954393 3.034138190852286 0 -1 0 I I #
point $-1 -40.936307870723596 5.5315582343053533 3.0341381908522891 #
point $-1 -36.146279186642637 0.79183711071325291 4.2397717776282242 #
point $-1 -36.146279186642637 3.6356697848685187 4.2397717776282242 #
straight-curve $-1 -40.936307870723596 16.451276444923135 30.964184303147132 0 0 -1 I I #
point $-1 -40.936307870723596 16.451276444923135 8.9848065314024357 #
straight-curve $-1 -40.936307870723596 6.5667358292043296 3.034138190852286 0 -1 0 I I #
point $-1 -40.936307870723596 16.451276444923135 3.0341381908522891 #
point $-1 -36.146279186642637 11.711555321331033 4.2397717776282242 #
point $-1 -36.146279186642637 14.555387995486299 4.2397717776282242 #
edge $-1 $740 -8.9848065314024357 $734 -3.0341381908522891 $731 $785 forward 7 unknown #
straight-curve $-1 -40.936307870723596 12.02659493451322 3.034138190852286 0 -1 0 I I #
point $-1 -40.936307870723596 27.370994655540915 3.0341381908522891 #
straight-curve $-1 0 27.370994655540912 8.9848065314024357 -1 0 0 I I #
point $-1 -40.936307870723596 27.370994655540912 8.9848065314024357 #
point $-1 -36.146279186642637 22.631273531948814 4.2397717776282242 #
point $-1 -36.146279186642637 25.47510620610408 4.2397717776282242 #
straight-curve $-1 -40.936307870723596 27.370994655540912 0 0 0 -1 I I #
End-of-ACIS-data 