500 0 4 0           
7 Unknown 11 ACIS 5.0 NT 24 Fri Mar 26 19:25:39 1999 
-1 9.9999999999999995e-007 1e-010 
body $-1 $4 $-1 $5 #
body $-1 $6 $-1 $7 #
body $-1 $8 $-1 $9 #
body $-1 $10 $-1 $11 #
lump $-1 $-1 $12 $0 #
transform $-1 1 0 0 0 1 0 0 0 1 40.371105075228122 25.278789979872599 6.3698816829679883 1 rotate no_reflect no_shear #
lump $-1 $-1 $13 $1 #
transform $-1 1 0 0 0 1 0 0 0 1 40.371105075228122 25.278789979872599 6.3698816829679883 1 rotate no_reflect no_shear #
lump $-1 $-1 $14 $2 #
transform $-1 1 0 0 0 1 0 0 0 1 40.371105075228122 25.278789979872599 6.3698816829679883 1 rotate no_reflect no_shear #
lump $-1 $-1 $15 $3 #
transform $-1 1 0 0 0 1 0 0 0 1 40.371105075228122 25.278789979872599 6.3698816829679883 1 rotate no_reflect no_shear #
shell $-1 $-1 $-1 $16 $-1 $4 #
shell $-1 $-1 $-1 $17 $-1 $6 #
shell $-1 $-1 $-1 $18 $-1 $8 #
shell $-1 $-1 $-1 $19 $-1 $10 #
face $-1 $20 $21 $12 $-1 $22 forward single #
face $-1 $23 $24 $13 $-1 $25 forward single #
face $-1 $26 $27 $14 $-1 $28 forward single #
face $-1 $29 $30 $15 $-1 $31 reversed single #
face $-1 $32 $33 $12 $-1 $34 reversed single #
loop $-1 $-1 $35 $16 #
plane-surface $-1 0 0 6.3698816829679883 0 0 1 1 0 0 forward_v I I I I #
face $-1 $36 $37 $13 $-1 $38 reversed single #
loop $-1 $-1 $39 $17 #
plane-surface $-1 0 -28.393679035582569 -2.6051838254887718 0 0 1 1 0 0 forward_v I I I I #
face $-1 $40 $41 $14 $-1 $42 forward single #
loop $-1 $-1 $43 $18 #
plane-surface $-1 -109.58068803522292 13.817117909288317 43.531218324940042 0 1 0 -0.85716730853699208 0 0.51503806187062418 forward_v I I I I #
face $-1 $44 $45 $15 $-1 $46 reversed single #
loop $-1 $47 $48 $19 #
cone-surface $-1 -37.713474233319552 19.547953944580463 3.3596300913865509 0.85716730853699208 0 -0.51503806187062418 0.51503806187062418 0 0.85716730853699208 1 I I 0 1 1 forward I I I I #
face $-1 $49 $50 $12 $-1 $51 reversed single #
loop $-1 $-1 $52 $20 #
plane-surface $-1 0 0 -6.3698816829679883 0 0 1 1 0 0 forward_v I I I I #
coedge $-1 $53 $54 $55 $56 forward $21 $-1 #
face $-1 $57 $58 $13 $-1 $59 forward single #
loop $-1 $-1 $60 $23 #
plane-surface $-1 0 -31.508568091292538 -4.48753275422838 0 1 0 0 0 1 forward_v I I I I #
coedge $-1 $61 $62 $63 $64 forward $24 $-1 #
face $-1 $65 $66 $14 $-1 $67 forward single #
loop $-1 $-1 $68 $26 #
plane-surface $-1 -40.371105075228144 19.547953944580456 1.9459068978984178 -0.85716730853699208 0 0.51503806187062418 0.51503806187062418 0 0.85716730853699208 forward_v I I I I #
coedge $-1 $69 $70 $71 $72 reversed $27 $-1 #
face $-1 $73 $74 $15 $-1 $75 forward single #
loop $-1 $76 $77 $29 #
cone-surface $-1 -35.956355805304305 19.547953944580463 2.3038468614045913 0.85716730853699208 0 -0.51503806187062418 0.25751903093531209 0 0.42858365426849604 1 I I -0.70710678118654746 0.70710678118654746 0.5 forward I I I I #
loop $-1 $-1 $78 $19 #
coedge $-1 $48 $48 $79 $80 reversed $30 $-1 #
face $-1 $81 $82 $12 $-1 $83 reversed single #
loop $-1 $-1 $84 $32 #
plane-surface $-1 0 -25.278789979872599 0 0 1 0 0 0 1 forward_v I I I I #
coedge $-1 $85 $86 $87 $88 forward $33 $-1 #
coedge $-1 $89 $35 $90 $91 forward $21 $-1 #
coedge $-1 $35 $89 $92 $93 forward $21 $-1 #
coedge $-1 $94 $95 $35 $56 reversed $96 $-1 #
edge $-1 $97 -25.278789979872599 $98 25.278789979872599 $55 $99 forward 7 unknown #
face $-1 $100 $101 $13 $-1 $102 reversed single #
loop $-1 $-1 $103 $36 #
plane-surface $-1 0 0 6.3698816829679883 0 0 1 1 0 0 forward_v I I I I #
coedge $-1 $104 $105 $106 $107 forward $37 $-1 #
coedge $-1 $108 $39 $109 $110 reversed $24 $-1 #
coedge $-1 $39 $108 $105 $111 forward $24 $-1 #
coedge $-1 $112 $113 $39 $64 reversed $114 $-1 #
edge $-1 $115 -3.1148890557099698 $116 3.1148890557099698 $63 $117 forward 7 unknown #
face $-1 $118 $119 $14 $-1 $120 reversed single #
loop $-1 $-1 $121 $40 #
plane-surface $-1 0 0 6.3698816829679883 0 0 1 1 0 0 forward_v I I I I #
coedge $-1 $122 $123 $121 $124 reversed $41 $-1 #
coedge $-1 $70 $43 $123 $125 forward $27 $-1 #
coedge $-1 $43 $69 $126 $127 reversed $27 $-1 #
coedge $-1 $128 $121 $43 $72 forward $66 $-1 #
edge $-1 $129 -17.077431078706972 $130 -14.419238942383338 $71 $131 forward 7 unknown #
face $-1 $132 $133 $15 $-1 $134 forward single #
loop $-1 $-1 $135 $44 #
plane-surface $-1 -109.58068803522292 13.817117909288317 43.531218324940042 0 1 0 -0.85716730853699208 0 0.51503806187062418 forward_v I I I I #
loop $-1 $-1 $136 $29 #
coedge $-1 $77 $77 $78 $137 forward $45 $-1 #
coedge $-1 $78 $78 $77 $137 reversed $47 $-1 #
coedge $-1 $79 $79 $48 $80 forward $133 $-1 #
edge $-1 $138 0 $138 6.2831853071796004 $79 $139 forward 7 unknown #
face $-1 $140 $141 $12 $-1 $142 reversed single #
loop $-1 $-1 $143 $49 #
plane-surface $-1 -40.371105075228122 0 0 1 0 0 0 0 -1 forward_v I I I I #
coedge $-1 $144 $92 $145 $146 forward $50 $-1 #
coedge $-1 $147 $52 $144 $148 forward $33 $-1 #
coedge $-1 $52 $147 $149 $150 forward $33 $-1 #
coedge $-1 $95 $94 $52 $88 reversed $96 $-1 #
edge $-1 $151 -25.278789979872599 $152 25.278789979872599 $87 $153 forward 7 unknown #
coedge $-1 $54 $53 $154 $155 forward $21 $-1 #
coedge $-1 $156 $157 $53 $91 reversed $141 $-1 #
edge $-1 $98 -40.371105075228122 $158 40.371105075228122 $90 $159 forward 7 unknown #
coedge $-1 $84 $160 $54 $93 reversed $50 $-1 #
edge $-1 $161 -40.371105075228122 $97 40.371105075228122 $92 $162 forward 7 unknown #
coedge $-1 $87 $55 $160 $163 forward $96 $-1 #
coedge $-1 $55 $87 $156 $164 reversed $96 $-1 #
loop $-1 $-1 $94 $140 #
vertex $-1 $56 $165 #
vertex $-1 $56 $166 #
straight-curve $-1 40.371105075228122 0 6.3698816829679883 0 1 0 I I #
face $-1 $167 $168 $13 $-1 $169 reversed single #
loop $-1 $-1 $170 $57 #
plane-surface $-1 0 0 -6.3698816829679883 0 0 1 1 0 0 forward_v I I I I #
coedge $-1 $171 $172 $173 $174 forward $58 $-1 #
coedge $-1 $175 $60 $176 $177 reversed $37 $-1 #
coedge $-1 $60 $175 $62 $111 reversed $37 $-1 #
coedge $-1 $178 $179 $60 $107 reversed $180 $-1 #
edge $-1 $181 -1.8823489287396082 $182 1.8823489287396082 $106 $183 forward 7 unknown #
coedge $-1 $62 $61 $178 $184 forward $24 $-1 #
coedge $-1 $185 $186 $61 $110 forward $168 $-1 #
edge $-1 $187 -40.371105075228122 $116 40.371105075228122 $109 $188 forward 7 unknown #
edge $-1 $181 -40.371105075228122 $115 40.371105075228122 $105 $189 forward 7 unknown #
coedge $-1 $190 $63 $175 $191 forward $114 $-1 #
coedge $-1 $63 $173 $185 $192 forward $114 $-1 #
loop $-1 $-1 $113 $193 #
vertex $-1 $64 $194 #
vertex $-1 $64 $195 #
straight-curve $-1 40.371105075228122 -28.393679035582569 -2.6051838254887718 0 1 0 I I #
face $-1 $196 $197 $14 $-1 $198 forward single #
loop $-1 $-1 $126 $65 #
plane-surface $-1 -40.371105075228122 0 0 1 0 0 0 0 -1 forward_v I I I I #
coedge $-1 $71 $199 $68 $124 forward $66 $-1 #
coedge $-1 $200 $68 $201 $202 reversed $41 $-1 #
coedge $-1 $68 $200 $69 $125 reversed $41 $-1 #
edge $-1 $203 -15.504813007582367 $129 -4.0431409369980891 $121 $204 forward 7 unknown #
edge $-1 $129 -5.1611566855254738 $205 -4.1431396825663817e-014 $69 $206 forward 7 unknown #
coedge $-1 $207 $208 $70 $127 forward $119 $-1 #
edge $-1 $130 15.395727479502032 $205 19.819702264571568 $126 $209 forward 7 unknown #
coedge $-1 $210 $71 $208 $211 forward $66 $-1 #
vertex $-1 $124 $212 #
vertex $-1 $211 $213 #
straight-curve $-1 -54.79034401761146 13.817117909288317 6.3698816829679892 -1 0 0 I I #
face $-1 $214 $215 $15 $-1 $216 forward single #
loop $-1 $217 $79 $73 #
plane-surface $-1 -40.371105075228144 19.547953944580456 1.9459068978984178 -0.85716730853699208 0 0.51503806187062418 0.51503806187062418 0 0.85716730853699208 forward_v I I I I #
coedge $-1 $218 $219 $220 $221 reversed $74 $-1 #
coedge $-1 $136 $136 $-1 $222 forward $76 $-1 #
edge $-1 $223 0 $223 6.2831853071796004 $77 $224 forward 7 unknown #
vertex $-1 $80 $225 #
ellipse-curve $-1 -39.042009007066312 19.547953944580463 4.1578942904332079 0.85716730853699208 0 -0.51503806187062418 0.51503806187062418 0 0.85716730853699208 1 I I #
face $-1 $-1 $96 $12 $-1 $226 reversed single #
loop $-1 $-1 $156 $81 #
plane-surface $-1 0 25.278789979872599 0 0 -1 0 0 0 -1 forward_v I I I I #
coedge $-1 $227 $154 $157 $228 forward $82 $-1 #
coedge $-1 $160 $84 $85 $148 reversed $50 $-1 #
coedge $-1 $154 $227 $84 $146 reversed $82 $-1 #
edge $-1 $161 -6.3698816829679883 $229 6.3698816829679883 $145 $230 forward 7 unknown #
coedge $-1 $86 $85 $227 $231 forward $33 $-1 #
edge $-1 $152 -40.371105075228122 $229 40.371105075228122 $144 $232 forward 7 unknown #
coedge $-1 $157 $156 $86 $150 reversed $141 $-1 #
edge $-1 $233 -40.371105075228122 $151 40.371105075228122 $149 $234 forward 7 unknown #
vertex $-1 $88 $235 #
vertex $-1 $163 $236 #
straight-curve $-1 40.371105075228122 0 -6.3698816829679883 0 -1 0 I I #
coedge $-1 $143 $145 $89 $155 reversed $82 $-1 #
edge $-1 $158 -25.278789979872599 $161 25.278789979872599 $154 $237 forward 7 unknown #
coedge $-1 $149 $90 $95 $164 forward $141 $-1 #
coedge $-1 $90 $149 $143 $228 reversed $141 $-1 #
vertex $-1 $91 $238 #
straight-curve $-1 0 25.278789979872599 6.3698816829679883 -1 0 0 I I #
coedge $-1 $92 $144 $94 $163 reversed $50 $-1 #
vertex $-1 $155 $239 #
straight-curve $-1 0 -25.278789979872599 6.3698816829679883 1 0 0 I I #
edge $-1 $97 -6.3698816829679883 $152 6.3698816829679883 $94 $240 forward 7 unknown #
edge $-1 $98 -6.3698816829679883 $151 6.3698816829679883 $95 $241 forward 7 unknown #
point $-1 40.371105075228122 -25.278789979872599 6.3698816829679883 #
point $-1 40.371105075228122 25.278789979872599 6.3698816829679883 #
face $-1 $242 $180 $13 $-1 $243 reversed single #
loop $-1 $-1 $109 $100 #
plane-surface $-1 0 -25.278789979872599 0 0 1 0 0 0 1 forward_v I I I I #
coedge $-1 $176 $244 $190 $245 forward $101 $-1 #
coedge $-1 $246 $103 $247 $248 forward $58 $-1 #
coedge $-1 $103 $246 $249 $250 forward $58 $-1 #
coedge $-1 $113 $251 $103 $174 reversed $114 $-1 #
edge $-1 $252 -25.278789979872599 $253 25.278789979872599 $173 $254 forward 7 unknown #
coedge $-1 $105 $104 $112 $191 reversed $37 $-1 #
coedge $-1 $255 $170 $104 $177 forward $101 $-1 #
edge $-1 $256 -40.371105075228122 $182 40.371105075228122 $104 $257 forward 7 unknown #
coedge $-1 $258 $106 $108 $184 reversed $180 $-1 #
coedge $-1 $106 $259 $255 $260 reversed $180 $-1 #
loop $-1 $-1 $259 $167 #
vertex $-1 $184 $261 #
vertex $-1 $260 $262 #
straight-curve $-1 -40.371105075228122 -31.508568091292538 -4.48753275422838 0 0 -1 I I #
edge $-1 $187 -3.1148890557099698 $181 3.1148890557099698 $178 $263 forward 7 unknown #
coedge $-1 $249 $109 $113 $192 reversed $168 $-1 #
coedge $-1 $109 $249 $258 $264 forward $168 $-1 #
vertex $-1 $264 $265 #
straight-curve $-1 0 -25.278789979872599 -2.6051838254887718 1 0 0 I I #
straight-curve $-1 0 -31.508568091292538 -2.6051838254887718 1 0 0 I I #
coedge $-1 $251 $112 $170 $245 reversed $114 $-1 #
edge $-1 $115 -1.8823489287396082 $256 1.8823489287396082 $112 $266 forward 7 unknown #
edge $-1 $252 -6.3698816829679883 $116 2.6051838254887718 $113 $267 forward 7 unknown #
face $-1 $-1 $114 $13 $-1 $268 reversed single #
point $-1 40.371105075228122 -31.508568091292538 -2.6051838254887718 #
point $-1 40.371105075228122 -25.278789979872599 -2.6051838254887718 #
face $-1 $269 $270 $14 $-1 $271 reversed single #
loop $-1 $-1 $272 $118 #
plane-surface $-1 0 -28.393679035582569 -2.6051838254887718 0 0 1 1 0 0 forward_v I I I I #
coedge $-1 $121 $273 $274 $275 forward $66 $-1 #
coedge $-1 $123 $122 $207 $276 reversed $41 $-1 #
coedge $-1 $274 $277 $122 $202 forward $278 $-1 #
edge $-1 $279 -9.5623439675927955 $203 -4.4011872820673643 $201 $280 forward 7 unknown #
vertex $-1 $202 $281 #
straight-curve $-1 -37.712912938904495 9.7739769722902281 6.3698816829679883 0 -1 0 I I #
vertex $-1 $276 $282 #
straight-curve $-1 -40.371105075228144 13.817117909288317 1.9459068978984178 -0.51503806187062418 0 -0.85716730853699208 I I #
coedge $-1 $283 $126 $200 $276 forward $119 $-1 #
coedge $-1 $126 $284 $128 $211 reversed $119 $-1 #
straight-curve $-1 -40.371105075228122 13.817117909288317 21.765609162470021 0 0 -1 I I #
coedge $-1 $273 $128 $285 $286 forward $66 $-1 #
edge $-1 $130 -13.817117909288317 $287 25.278789979872599 $208 $288 forward 7 unknown #
point $-1 -37.712912938904488 13.817117909288317 6.3698816829679883 #
point $-1 -40.371105075228122 13.817117909288317 6.3698816829679883 #
face $-1 $289 $290 $15 $-1 $291 reversed single #
loop $-1 $-1 $292 $132 #
plane-surface $-1 0 0 6.3698816829679883 0 0 1 1 0 0 forward_v I I I I #
loop $-1 $-1 $293 $73 #
coedge $-1 $219 $135 $294 $295 forward $74 $-1 #
coedge $-1 $135 $218 $296 $297 reversed $74 $-1 #
coedge $-1 $298 $292 $135 $221 forward $215 $-1 #
edge $-1 $299 -17.077431078706972 $300 -14.419238942383338 $220 $301 forward 7 unknown #
edge $-1 $302 1 $302 0 $136 $-1 forward 7 unknown #
vertex $-1 $137 $303 #
ellipse-curve $-1 -36.384939459572799 19.547953944580463 2.5613658923399032 -0.85716730853699208 0 0.51503806187062418 0.51503806187062418 0 0.85716730853699208 1 I I #
point $-1 -38.526970945195671 19.547953944580463 5.0150615989701919 #
plane-surface $-1 40.371105075228122 0 0 -1 0 0 0 0 1 forward_v I I I I #
coedge $-1 $145 $143 $147 $231 reversed $82 $-1 #
edge $-1 $158 -6.3698816829679883 $233 6.3698816829679883 $157 $304 forward 7 unknown #
vertex $-1 $231 $305 #
straight-curve $-1 -40.371105075228122 -25.278789979872599 0 0 0 -1 I I #
edge $-1 $229 -25.278789979872599 $233 25.278789979872599 $227 $306 forward 7 unknown #
straight-curve $-1 0 -25.278789979872599 -6.3698816829679883 -1 0 0 I I #
vertex $-1 $150 $307 #
straight-curve $-1 0 25.278789979872599 -6.3698816829679883 1 0 0 I I #
point $-1 40.371105075228122 25.278789979872599 -6.3698816829679883 #
point $-1 40.371105075228122 -25.278789979872599 -6.3698816829679883 #
straight-curve $-1 -40.371105075228122 0 6.3698816829679883 0 -1 0 I I #
point $-1 -40.371105075228122 25.278789979872599 6.3698816829679883 #
point $-1 -40.371105075228122 -25.278789979872599 6.3698816829679883 #
straight-curve $-1 40.371105075228122 -25.278789979872599 0 0 0 -1 I I #
straight-curve $-1 40.371105075228122 25.278789979872599 0 0 0 -1 I I #
face $-1 $193 $308 $13 $-1 $309 reversed single #
plane-surface $-1 -40.371105075228122 0 0 1 0 0 0 0 -1 forward_v I I I I #
coedge $-1 $170 $255 $310 $311 forward $101 $-1 #
edge $-1 $312 -25.278789979872599 $256 31.508568091292538 $190 $313 forward 7 unknown #
coedge $-1 $172 $171 $314 $315 forward $58 $-1 #
coedge $-1 $316 $317 $171 $248 reversed $308 $-1 #
edge $-1 $253 -40.371105075228122 $318 40.371105075228122 $247 $319 forward 7 unknown #
coedge $-1 $186 $185 $172 $250 reversed $168 $-1 #
edge $-1 $320 -40.371105075228122 $252 40.371105075228122 $249 $321 forward 7 unknown #
coedge $-1 $173 $190 $316 $322 reversed $114 $-1 #
vertex $-1 $174 $323 #
vertex $-1 $174 $324 #
straight-curve $-1 40.371105075228122 0 6.3698816829679883 0 1 0 I I #
coedge $-1 $244 $176 $179 $260 forward $101 $-1 #
vertex $-1 $191 $325 #
straight-curve $-1 0 -31.508568091292538 -6.3698816829679883 -1 0 0 I I #
coedge $-1 $314 $178 $186 $264 reversed $180 $-1 #
coedge $-1 $179 $314 $317 $326 forward $180 $-1 #
edge $-1 $182 -31.508568091292538 $327 25.278789979872599 $179 $328 forward 7 unknown #
point $-1 -40.371105075228122 -31.508568091292538 -2.6051838254887718 #
point $-1 -40.371105075228122 -31.508568091292538 -6.3698816829679883 #
straight-curve $-1 -40.371105075228122 -28.393679035582569 -2.6051838254887718 0 -1 0 I I #
edge $-1 $320 -6.3698816829679883 $187 2.6051838254887718 $258 $329 forward 7 unknown #
point $-1 -40.371105075228122 -25.278789979872599 -2.6051838254887718 #
straight-curve $-1 40.371105075228122 -31.508568091292538 -4.48753275422838 0 0 -1 I I #
straight-curve $-1 40.371105075228122 -25.278789979872599 0 0 0 -1 I I #
plane-surface $-1 40.371105075228122 0 0 -1 0 0 0 0 1 forward_v I I I I #
face $-1 $330 $331 $14 $-1 $332 reversed single #
loop $-1 $-1 $333 $196 #
plane-surface $-1 0 -31.508568091292538 -4.48753275422838 0 1 0 0 0 1 forward_v I I I I #
coedge $-1 $334 $335 $336 $337 forward $197 $-1 #
coedge $-1 $199 $210 $338 $339 forward $66 $-1 #
coedge $-1 $340 $201 $199 $275 reversed $278 $-1 #
edge $-1 $341 -40.371105075228122 $203 37.712912938904488 $274 $342 forward 7 unknown #
edge $-1 $205 4.0431409369980891 $279 15.504813007582367 $207 $343 forward 7 unknown #
coedge $-1 $201 $344 $283 $345 reversed $278 $-1 #
loop $-1 $-1 $201 $346 #
vertex $-1 $345 $347 #
straight-curve $-1 -35.44613397121887 25.278789979872599 10.142435539904909 0.51503806187062429 0 0.85716730853699219 I I #
point $-1 -37.712912938904488 25.278789979872595 6.3698816829679883 #
point $-1 -40.371105075228122 13.817117909288317 1.9459068978984533 #
coedge $-1 $348 $207 $277 $345 forward $119 $-1 #
coedge $-1 $208 $349 $350 $351 reversed $119 $-1 #
coedge $-1 $350 $352 $210 $286 reversed $353 $-1 #
edge $-1 $287 -40.371105075228122 $354 40.371105075228122 $285 $355 forward 7 unknown #
vertex $-1 $211 $356 #
straight-curve $-1 -40.371105075228122 0 6.3698816829679883 0 -1 0 I I #
face $-1 $357 $358 $15 $-1 $359 forward single #
loop $-1 $-1 $296 $214 #
plane-surface $-1 -40.371105075228122 0 0 1 0 0 0 0 -1 forward_v I I I I #
coedge $-1 $220 $360 $293 $361 forward $215 $-1 #
coedge $-1 $362 $294 $292 $361 reversed $217 $-1 #
coedge $-1 $293 $363 $218 $295 reversed $217 $-1 #
edge $-1 $299 -5.1611566855254738 $364 -4.1431396825663817e-014 $218 $365 forward 7 unknown #
coedge $-1 $366 $367 $219 $297 forward $290 $-1 #
edge $-1 $300 15.395727479502032 $364 19.819702264571568 $296 $368 forward 7 unknown #
coedge $-1 $369 $220 $367 $370 forward $215 $-1 #
vertex $-1 $361 $371 #
vertex $-1 $370 $372 #
straight-curve $-1 -54.79034401761146 13.817117909288317 6.3698816829679892 -1 0 0 I I #
vertex $-1 $222 $373 #
point $-1 -35.869901397702179 19.547953944580463 3.4185332008768956 #
straight-curve $-1 -40.371105075228122 25.278789979872599 0 0 0 -1 I I #
point $-1 -40.371105075228122 -25.278789979872599 -6.3698816829679883 #
straight-curve $-1 -40.371105075228122 0 -6.3698816829679883 0 1 0 I I #
point $-1 -40.371105075228122 25.278789979872599 -6.3698816829679883 #
loop $-1 $-1 $316 $242 #
plane-surface $-1 0 25.278789979872599 0 0 -1 0 0 0 -1 forward_v I I I I #
coedge $-1 $317 $316 $244 $311 reversed $308 $-1 #
edge $-1 $327 -40.371105075228122 $312 40.371105075228122 $310 $374 forward 7 unknown #
vertex $-1 $245 $375 #
straight-curve $-1 40.371105075228122 0 -6.3698816829679883 0 -1 0 I I #
coedge $-1 $259 $258 $246 $315 reversed $180 $-1 #
edge $-1 $318 -25.278789979872599 $320 25.278789979872599 $314 $376 forward 7 unknown #
coedge $-1 $310 $247 $251 $322 forward $308 $-1 #
coedge $-1 $247 $310 $259 $326 reversed $308 $-1 #
vertex $-1 $248 $377 #
straight-curve $-1 0 25.278789979872599 6.3698816829679883 -1 0 0 I I #
vertex $-1 $315 $378 #
straight-curve $-1 0 -25.278789979872599 6.3698816829679883 1 0 0 I I #
edge $-1 $253 -6.3698816829679883 $312 6.3698816829679883 $251 $379 forward 7 unknown #
point $-1 40.371105075228122 -25.278789979872599 6.3698816829679883 #
point $-1 40.371105075228122 25.278789979872599 6.3698816829679883 #
point $-1 40.371105075228122 -31.508568091292538 -6.3698816829679883 #
edge $-1 $318 -6.3698816829679883 $327 6.3698816829679883 $317 $380 forward 7 unknown #
vertex $-1 $311 $381 #
straight-curve $-1 -40.371105075228122 0 -6.3698816829679883 0 1 0 I I #
straight-curve $-1 -40.371105075228122 -25.278789979872599 0 0 0 -1 I I #
face $-1 $346 $353 $14 $-1 $382 reversed single #
loop $-1 $-1 $383 $269 #
plane-surface $-1 0 0 -6.3698816829679883 0 0 1 1 0 0 forward_v I I I I #
coedge $-1 $384 $385 $386 $387 forward $270 $-1 #
coedge $-1 $388 $272 $389 $390 reversed $197 $-1 #
coedge $-1 $272 $388 $385 $391 forward $197 $-1 #
coedge $-1 $392 $393 $272 $337 reversed $394 $-1 #
edge $-1 $395 -3.1148890557099698 $396 3.1148890557099698 $336 $397 forward 7 unknown #
coedge $-1 $393 $398 $273 $339 reversed $394 $-1 #
edge $-1 $354 -25.278789979872599 $341 25.278789979872599 $338 $399 forward 7 unknown #
coedge $-1 $344 $274 $398 $400 forward $278 $-1 #
vertex $-1 $339 $401 #
straight-curve $-1 0 25.278789979872599 6.3698816829679883 -1 0 0 I I #
straight-curve $-1 -40.371105075228122 9.7739769722902281 1.9459068978984528 0 1 0 I I #
coedge $-1 $277 $340 $402 $403 reversed $278 $-1 #
edge $-1 $279 -1.9459068978984533 $404 6.3698816829679883 $277 $405 forward 7 unknown #
face $-1 $406 $278 $14 $-1 $407 reversed single #
point $-1 -40.371105075228122 25.278789979872595 1.9459068978984533 #
coedge $-1 $386 $283 $408 $409 reversed $119 $-1 #
coedge $-1 $284 $386 $388 $410 reversed $119 $-1 #
coedge $-1 $389 $285 $284 $351 forward $353 $-1 #
edge $-1 $287 -6.3698816829679883 $411 2.6051838254887718 $284 $412 forward 7 unknown #
coedge $-1 $285 $389 $393 $413 reversed $353 $-1 #
loop $-1 $-1 $389 $330 #
vertex $-1 $339 $414 #
straight-curve $-1 0 -25.278789979872599 6.3698816829679883 1 0 0 I I #
point $-1 -40.371105075228122 -25.278789979872599 6.3698816829679883 #
face $-1 $415 $416 $15 $-1 $417 reversed single #
loop $-1 $-1 $418 $289 #
plane-surface $-1 0 -28.393679035582569 -2.6051838254887718 0 0 1 1 0 0 forward_v I I I I #
coedge $-1 $292 $419 $420 $421 forward $215 $-1 #
edge $-1 $422 -15.504813007582367 $299 -4.0431409369980891 $292 $423 forward 7 unknown #
coedge $-1 $363 $293 $424 $425 reversed $217 $-1 #
coedge $-1 $294 $362 $366 $426 reversed $217 $-1 #
vertex $-1 $426 $427 #
straight-curve $-1 -40.371105075228144 13.817117909288317 1.9459068978984178 -0.51503806187062418 0 -0.85716730853699208 I I #
coedge $-1 $428 $296 $363 $426 forward $290 $-1 #
coedge $-1 $296 $429 $298 $370 reversed $290 $-1 #
straight-curve $-1 -40.371105075228122 13.817117909288317 21.765609162470021 0 0 -1 I I #
coedge $-1 $419 $298 $430 $431 forward $215 $-1 #
edge $-1 $300 -13.817117909288317 $432 25.278789979872599 $367 $433 forward 7 unknown #
point $-1 -37.712912938904488 13.817117909288317 6.3698816829679883 #
point $-1 -40.371105075228122 13.817117909288317 6.3698816829679883 #
point $-1 -35.527772151035812 19.547953944580463 2.0463278304692794 #
straight-curve $-1 0 25.278789979872599 -6.3698816829679883 1 0 0 I I #
point $-1 40.371105075228122 25.278789979872599 -6.3698816829679883 #
straight-curve $-1 -40.371105075228122 0 6.3698816829679883 0 -1 0 I I #
point $-1 -40.371105075228122 25.278789979872599 6.3698816829679883 #
point $-1 -40.371105075228122 -25.278789979872599 6.3698816829679883 #
straight-curve $-1 40.371105075228122 25.278789979872599 0 0 0 -1 I I #
straight-curve $-1 -40.371105075228122 25.278789979872599 0 0 0 -1 I I #
point $-1 -40.371105075228122 25.278789979872599 -6.3698816829679883 #
plane-surface $-1 0 -25.278789979872599 0 0 1 0 0 0 1 forward_v I I I I #
coedge $-1 $434 $402 $435 $436 forward $331 $-1 #
coedge $-1 $437 $333 $434 $438 reversed $270 $-1 #
coedge $-1 $333 $437 $335 $391 reversed $270 $-1 #
coedge $-1 $349 $348 $333 $387 reversed $119 $-1 #
edge $-1 $439 -1.8823489287396082 $440 1.8823489287396082 $386 $441 forward 7 unknown #
coedge $-1 $335 $334 $349 $410 forward $197 $-1 #
coedge $-1 $352 $350 $334 $390 forward $353 $-1 #
edge $-1 $411 -40.371105075228122 $396 40.371105075228122 $389 $442 forward 7 unknown #
edge $-1 $439 -40.371105075228122 $395 40.371105075228122 $385 $443 forward 7 unknown #
coedge $-1 $435 $336 $437 $444 forward $394 $-1 #
coedge $-1 $336 $338 $352 $413 forward $394 $-1 #
loop $-1 $-1 $393 $406 #
vertex $-1 $337 $445 #
vertex $-1 $337 $446 #
straight-curve $-1 40.371105075228122 -28.393679035582569 -2.6051838254887718 0 1 0 I I #
coedge $-1 $338 $435 $340 $400 reversed $394 $-1 #
straight-curve $-1 40.371105075228122 0 6.3698816829679883 0 1 0 I I #
edge $-1 $341 -6.3698816829679883 $447 6.3698816829679883 $398 $448 forward 7 unknown #
point $-1 40.371105075228122 25.278789979872599 6.3698816829679883 #
coedge $-1 $383 $408 $344 $403 forward $331 $-1 #
edge $-1 $404 -40.371105075228122 $447 40.371105075228122 $344 $449 forward 7 unknown #
vertex $-1 $403 $450 #
straight-curve $-1 -40.371105075228122 25.278789979872599 0 0 0 -1 I I #
face $-1 $-1 $394 $14 $-1 $451 reversed single #
plane-surface $-1 0 25.278789979872599 0 0 -1 0 0 0 -1 forward_v I I I I #
coedge $-1 $402 $434 $348 $409 forward $331 $-1 #
edge $-1 $440 -31.508568091292538 $404 25.278789979872599 $348 $452 forward 7 unknown #
edge $-1 $411 -3.1148890557099698 $439 3.1148890557099698 $349 $453 forward 7 unknown #
vertex $-1 $351 $454 #
straight-curve $-1 -40.371105075228122 -25.278789979872599 0 0 0 -1 I I #
edge $-1 $354 -6.3698816829679883 $396 2.6051838254887718 $393 $455 forward 7 unknown #
point $-1 40.371105075228122 -25.278789979872599 6.3698816829679883 #
face $-1 $456 $457 $15 $-1 $458 reversed single #
loop $-1 $-1 $459 $357 #
plane-surface $-1 0 -31.508568091292538 -4.48753275422838 0 1 0 0 0 1 forward_v I I I I #
coedge $-1 $460 $461 $462 $463 forward $358 $-1 #
coedge $-1 $360 $369 $464 $465 forward $215 $-1 #
coedge $-1 $466 $424 $360 $421 reversed $467 $-1 #
edge $-1 $468 -40.371105075228122 $422 37.712912938904488 $420 $469 forward 7 unknown #
vertex $-1 $425 $470 #
straight-curve $-1 -37.712912938904495 9.7739769722902281 6.3698816829679883 0 -1 0 I I #
coedge $-1 $420 $471 $362 $425 forward $467 $-1 #
edge $-1 $472 -9.5623439675927955 $422 -4.4011872820673643 $424 $473 forward 7 unknown #
edge $-1 $364 4.0431409369980891 $472 15.504813007582367 $366 $474 forward 7 unknown #
point $-1 -40.371105075228122 13.817117909288317 1.9459068978984533 #
coedge $-1 $475 $366 $471 $476 forward $290 $-1 #
coedge $-1 $367 $477 $478 $479 reversed $290 $-1 #
coedge $-1 $478 $480 $369 $431 reversed $481 $-1 #
edge $-1 $432 -40.371105075228122 $482 40.371105075228122 $430 $483 forward 7 unknown #
vertex $-1 $370 $484 #
straight-curve $-1 -40.371105075228122 0 6.3698816829679883 0 -1 0 I I #
coedge $-1 $408 $383 $384 $438 forward $331 $-1 #
coedge $-1 $398 $392 $383 $436 reversed $394 $-1 #
edge $-1 $447 -25.278789979872599 $485 31.508568091292538 $435 $486 forward 7 unknown #
coedge $-1 $385 $384 $392 $444 reversed $270 $-1 #
edge $-1 $485 -40.371105075228122 $440 40.371105075228122 $384 $487 forward 7 unknown #
vertex $-1 $410 $488 #
vertex $-1 $409 $489 #
straight-curve $-1 -40.371105075228122 -31.508568091292538 -4.48753275422838 0 0 -1 I I #
straight-curve $-1 0 -25.278789979872599 -2.6051838254887718 1 0 0 I I #
straight-curve $-1 0 -31.508568091292538 -2.6051838254887718 1 0 0 I I #
edge $-1 $395 -1.8823489287396082 $485 1.8823489287396082 $392 $490 forward 7 unknown #
point $-1 40.371105075228122 -31.508568091292538 -2.6051838254887718 #
point $-1 40.371105075228122 -25.278789979872599 -2.6051838254887718 #
vertex $-1 $436 $491 #
straight-curve $-1 40.371105075228122 25.278789979872599 0 0 0 -1 I I #
straight-curve $-1 0 25.278789979872599 -6.3698816829679883 1 0 0 I I #
point $-1 -40.371105075228122 25.278789979872599 -6.3698816829679883 #
plane-surface $-1 40.371105075228122 0 0 -1 0 0 0 0 1 forward_v I I I I #
straight-curve $-1 -40.371105075228122 0 -6.3698816829679883 0 1 0 I I #
straight-curve $-1 -40.371105075228122 -28.393679035582569 -2.6051838254887718 0 -1 0 I I #
point $-1 -40.371105075228122 -25.278789979872599 -2.6051838254887718 #
straight-curve $-1 40.371105075228122 -25.278789979872599 0 0 0 -1 I I #
face $-1 $492 $481 $15 $-1 $493 reversed single #
loop $-1 $-1 $494 $415 #
plane-surface $-1 0 0 -6.3698816829679883 0 0 1 1 0 0 forward_v I I I I #
coedge $-1 $495 $496 $497 $498 forward $416 $-1 #
coedge $-1 $499 $418 $500 $501 reversed $358 $-1 #
coedge $-1 $418 $499 $496 $502 forward $358 $-1 #
coedge $-1 $503 $504 $418 $463 reversed $505 $-1 #
edge $-1 $506 -3.1148890557099698 $507 3.1148890557099698 $462 $508 forward 7 unknown #
coedge $-1 $504 $509 $419 $465 reversed $505 $-1 #
edge $-1 $482 -25.278789979872599 $468 25.278789979872599 $464 $510 forward 7 unknown #
coedge $-1 $511 $420 $509 $512 forward $467 $-1 #
loop $-1 $-1 $424 $492 #
vertex $-1 $465 $513 #
straight-curve $-1 0 25.278789979872599 6.3698816829679883 -1 0 0 I I #
point $-1 -37.712912938904488 25.278789979872595 6.3698816829679883 #
coedge $-1 $424 $511 $428 $476 reversed $467 $-1 #
vertex $-1 $476 $514 #
straight-curve $-1 -35.44613397121887 25.278789979872599 10.142435539904909 0.51503806187062429 0 0.85716730853699219 I I #
straight-curve $-1 -40.371105075228122 9.7739769722902281 1.9459068978984528 0 1 0 I I #
coedge $-1 $497 $428 $515 $516 reversed $290 $-1 #
edge $-1 $472 -1.9459068978984533 $517 6.3698816829679883 $471 $518 forward 7 unknown #
coedge $-1 $429 $497 $499 $519 reversed $290 $-1 #
coedge $-1 $500 $430 $429 $479 forward $481 $-1 #
edge $-1 $432 -6.3698816829679883 $520 2.6051838254887718 $429 $521 forward 7 unknown #
coedge $-1 $430 $500 $504 $522 reversed $481 $-1 #
loop $-1 $-1 $500 $456 #
vertex $-1 $465 $523 #
straight-curve $-1 0 -25.278789979872599 6.3698816829679883 1 0 0 I I #
point $-1 -40.371105075228122 -25.278789979872599 6.3698816829679883 #
vertex $-1 $444 $524 #
straight-curve $-1 40.371105075228122 0 -6.3698816829679883 0 -1 0 I I #
straight-curve $-1 0 -31.508568091292538 -6.3698816829679883 -1 0 0 I I #
point $-1 -40.371105075228122 -31.508568091292538 -2.6051838254887718 #
point $-1 -40.371105075228122 -31.508568091292538 -6.3698816829679883 #
straight-curve $-1 40.371105075228122 -31.508568091292538 -4.48753275422838 0 0 -1 I I #
point $-1 40.371105075228122 25.278789979872599 -6.3698816829679883 #
face $-1 $525 $467 $15 $-1 $526 reversed single #
plane-surface $-1 0 -25.278789979872599 0 0 1 0 0 0 1 forward_v I I I I #
coedge $-1 $527 $528 $529 $530 forward $457 $-1 #
coedge $-1 $531 $459 $527 $532 reversed $416 $-1 #
coedge $-1 $459 $531 $461 $502 reversed $416 $-1 #
coedge $-1 $477 $475 $459 $498 reversed $290 $-1 #
edge $-1 $533 -1.8823489287396082 $534 1.8823489287396082 $497 $535 forward 7 unknown #
coedge $-1 $461 $460 $477 $519 forward $358 $-1 #
coedge $-1 $480 $478 $460 $501 forward $481 $-1 #
edge $-1 $520 -40.371105075228122 $507 40.371105075228122 $500 $536 forward 7 unknown #
edge $-1 $533 -40.371105075228122 $506 40.371105075228122 $496 $537 forward 7 unknown #
coedge $-1 $529 $462 $531 $538 forward $505 $-1 #
coedge $-1 $462 $464 $480 $522 forward $505 $-1 #
loop $-1 $-1 $504 $525 #
vertex $-1 $463 $539 #
vertex $-1 $463 $540 #
straight-curve $-1 40.371105075228122 -28.393679035582569 -2.6051838254887718 0 1 0 I I #
coedge $-1 $464 $529 $466 $512 reversed $505 $-1 #
straight-curve $-1 40.371105075228122 0 6.3698816829679883 0 1 0 I I #
coedge $-1 $471 $466 $528 $541 reversed $467 $-1 #
edge $-1 $468 -6.3698816829679883 $542 6.3698816829679883 $509 $543 forward 7 unknown #
point $-1 40.371105075228122 25.278789979872599 6.3698816829679883 #
point $-1 -40.371105075228122 25.278789979872595 1.9459068978984533 #
coedge $-1 $528 $527 $475 $516 forward $457 $-1 #
edge $-1 $534 -31.508568091292538 $517 25.278789979872599 $475 $544 forward 7 unknown #
vertex $-1 $541 $545 #
straight-curve $-1 -40.371105075228122 25.278789979872599 0 0 0 -1 I I #
edge $-1 $520 -3.1148890557099698 $533 3.1148890557099698 $477 $546 forward 7 unknown #
vertex $-1 $479 $547 #
straight-curve $-1 -40.371105075228122 -25.278789979872599 0 0 0 -1 I I #
edge $-1 $482 -6.3698816829679883 $507 2.6051838254887718 $504 $548 forward 7 unknown #
point $-1 40.371105075228122 -25.278789979872599 6.3698816829679883 #
point $-1 40.371105075228122 -31.508568091292538 -6.3698816829679883 #
face $-1 $-1 $505 $15 $-1 $549 reversed single #
plane-surface $-1 0 25.278789979872599 0 0 -1 0 0 0 -1 forward_v I I I I #
coedge $-1 $515 $494 $495 $532 forward $457 $-1 #
coedge $-1 $494 $515 $511 $541 forward $457 $-1 #
coedge $-1 $509 $503 $494 $530 reversed $505 $-1 #
edge $-1 $542 -25.278789979872599 $550 31.508568091292538 $529 $551 forward 7 unknown #
coedge $-1 $496 $495 $503 $538 reversed $416 $-1 #
edge $-1 $550 -40.371105075228122 $534 40.371105075228122 $495 $552 forward 7 unknown #
vertex $-1 $519 $553 #
vertex $-1 $516 $554 #
straight-curve $-1 -40.371105075228122 -31.508568091292538 -4.48753275422838 0 0 -1 I I #
straight-curve $-1 0 -25.278789979872599 -2.6051838254887718 1 0 0 I I #
straight-curve $-1 0 -31.508568091292538 -2.6051838254887718 1 0 0 I I #
edge $-1 $506 -1.8823489287396082 $550 1.8823489287396082 $503 $555 forward 7 unknown #
point $-1 40.371105075228122 -31.508568091292538 -2.6051838254887718 #
point $-1 40.371105075228122 -25.278789979872599 -2.6051838254887718 #
edge $-1 $517 -40.371105075228122 $542 40.371105075228122 $511 $556 forward 7 unknown #
vertex $-1 $530 $557 #
straight-curve $-1 40.371105075228122 25.278789979872599 0 0 0 -1 I I #
straight-curve $-1 -40.371105075228122 0 -6.3698816829679883 0 1 0 I I #
point $-1 -40.371105075228122 25.278789979872599 -6.3698816829679883 #
straight-curve $-1 -40.371105075228122 -28.393679035582569 -2.6051838254887718 0 -1 0 I I #
point $-1 -40.371105075228122 -25.278789979872599 -2.6051838254887718 #
straight-curve $-1 40.371105075228122 -25.278789979872599 0 0 0 -1 I I #
plane-surface $-1 40.371105075228122 0 0 -1 0 0 0 0 1 forward_v I I I I #
vertex $-1 $538 $558 #
straight-curve $-1 40.371105075228122 0 -6.3698816829679883 0 -1 0 I I #
straight-curve $-1 0 -31.508568091292538 -6.3698816829679883 -1 0 0 I I #
point $-1 -40.371105075228122 -31.508568091292538 -2.6051838254887718 #
point $-1 -40.371105075228122 -31.508568091292538 -6.3698816829679883 #
straight-curve $-1 40.371105075228122 -31.508568091292538 -4.48753275422838 0 0 -1 I I #
straight-curve $-1 0 25.278789979872599 -6.3698816829679883 1 0 0 I I #
point $-1 40.371105075228122 25.278789979872599 -6.3698816829679883 #
point $-1 40.371105075228122 -31.508568091292538 -6.3698816829679883 #
End-of-ACIS-data 