500 0 13 0           
7 Unknown 11 ACIS 5.0 NT 24 Thu Mar 25 15:16:58 1999 
-1 9.9999999999999995e-007 1e-010 
body $-1 $13 $-1 $14 #
body $-1 $15 $-1 $16 #
body $-1 $17 $-1 $18 #
body $-1 $19 $-1 $20 #
body $-1 $21 $-1 $22 #
body $-1 $23 $-1 $24 #
body $-1 $25 $-1 $26 #
body $-1 $27 $-1 $28 #
body $-1 $29 $-1 $30 #
body $-1 $31 $-1 $32 #
body $-1 $33 $-1 $34 #
body $-1 $35 $-1 $36 #
body $-1 $37 $-1 $38 #
lump $-1 $-1 $39 $0 #
transform $-1 1 0 0 0 1 0 0 0 1 56.675313577684861 25.443612943565711 5.4863688239009836 1 rotate no_reflect no_shear #
lump $-1 $-1 $40 $1 #
transform $-1 1 0 0 0 1 0 0 0 1 56.675313577684861 25.443612943565711 5.4863688239009836 1 rotate no_reflect no_shear #
lump $-1 $-1 $41 $2 #
transform $-1 1 0 0 0 1 0 0 0 1 56.675313577684861 25.443612943565711 5.4863688239009836 1 rotate no_reflect no_shear #
lump $-1 $-1 $42 $3 #
transform $-1 1 0 0 0 1 0 0 0 1 56.675313577684861 25.443612943565711 5.4863688239009836 1 rotate no_reflect no_shear #
lump $-1 $-1 $43 $4 #
transform $-1 1 0 0 0 1 0 0 0 1 56.675313577684861 25.443612943565711 5.4863688239009836 1 rotate no_reflect no_shear #
lump $-1 $-1 $44 $5 #
transform $-1 1 0 0 0 1 0 0 0 1 56.675313577684861 25.443612943565711 5.4863688239009836 1 rotate no_reflect no_shear #
lump $-1 $-1 $45 $6 #
transform $-1 1 0 0 0 1 0 0 0 1 56.675313577684861 25.443612943565711 5.4863688239009836 1 rotate no_reflect no_shear #
lump $-1 $-1 $46 $7 #
transform $-1 1 0 0 0 1 0 0 0 1 56.675313577684861 25.443612943565711 5.4863688239009836 1 rotate no_reflect no_shear #
lump $-1 $-1 $47 $8 #
transform $-1 1 0 0 0 1 0 0 0 1 56.675313577684861 25.443612943565711 5.4863688239009836 1 rotate no_reflect no_shear #
lump $-1 $-1 $48 $9 #
transform $-1 1 0 0 0 1 0 0 0 1 56.675313577684861 25.443612943565711 5.4863688239009836 1 rotate no_reflect no_shear #
lump $-1 $-1 $49 $10 #
transform $-1 1 0 0 0 1 0 0 0 1 56.675313577684861 25.443612943565711 5.4863688239009836 1 rotate no_reflect no_shear #
lump $-1 $-1 $50 $11 #
transform $-1 1 0 0 0 1 0 0 0 1 56.675313577684861 25.443612943565711 5.4863688239009836 1 rotate no_reflect no_shear #
lump $-1 $-1 $51 $12 #
transform $-1 1 0 0 0 1 0 0 0 1 56.675313577684861 25.443612943565711 5.4863688239009836 1 rotate no_reflect no_shear #
shell $-1 $-1 $-1 $52 $-1 $13 #
shell $-1 $-1 $-1 $53 $-1 $15 #
shell $-1 $-1 $-1 $54 $-1 $17 #
shell $-1 $-1 $-1 $55 $-1 $19 #
shell $-1 $-1 $-1 $56 $-1 $21 #
shell $-1 $-1 $-1 $57 $-1 $23 #
shell $-1 $-1 $-1 $58 $-1 $25 #
shell $-1 $-1 $-1 $59 $-1 $27 #
shell $-1 $-1 $-1 $60 $-1 $29 #
shell $-1 $-1 $-1 $61 $-1 $31 #
shell $-1 $-1 $-1 $62 $-1 $33 #
shell $-1 $-1 $-1 $63 $-1 $35 #
shell $-1 $-1 $-1 $64 $-1 $37 #
face $-1 $65 $66 $39 $-1 $67 reversed single #
face $-1 $68 $69 $40 $-1 $70 forward single #
face $-1 $71 $72 $41 $-1 $73 forward single #
face $-1 $74 $75 $42 $-1 $76 reversed single #
face $-1 $77 $78 $43 $-1 $79 forward single #
face $-1 $80 $81 $44 $-1 $82 forward single #
face $-1 $83 $84 $45 $-1 $85 reversed single #
face $-1 $86 $87 $46 $-1 $88 forward single #
face $-1 $89 $90 $47 $-1 $91 forward single #
face $-1 $92 $93 $48 $-1 $94 reversed single #
face $-1 $95 $96 $49 $-1 $97 forward single #
face $-1 $98 $99 $50 $-1 $100 reversed single #
face $-1 $101 $102 $51 $-1 $103 forward single #
face $-1 $104 $105 $39 $-1 $106 reversed single #
loop $-1 $-1 $107 $52 #
plane-surface $-1 0 25.443612943565711 0 0 -1 0 0 0 -1 forward_v I I I I #
face $-1 $108 $109 $40 $-1 $110 reversed single #
loop $-1 $-1 $111 $53 #
plane-surface $-1 0 -25.443612943565711 0 0 1 0 0 0 1 forward_v I I I I #
face $-1 $112 $113 $41 $-1 $114 reversed single #
loop $-1 $-1 $115 $54 #
plane-surface $-1 0 25.443612943565711 0 0 -1 0 0 0 -1 forward_v I I I I #
face $-1 $116 $117 $42 $-1 $118 reversed single #
loop $-1 $-1 $119 $55 #
plane-surface $-1 28.839165828478812 -15.107924686291344 158.30644903678626 0 -1 0 -0.57357644374324357 0 -0.81915203911291934 forward_v I I I I #
face $-1 $120 $121 $43 $-1 $122 forward single #
loop $-1 $123 $124 $56 #
cone-surface $-1 52.761145032462252 -19.822510362627341 2.5195791174094233 -0.57357644374324357 0 -0.81915203911291934 0.40957601955645967 0 -0.28678822187162178 1 I I 0 1 0.5 forward I I I I #
face $-1 $125 $126 $44 $-1 $127 forward single #
loop $-1 $128 $129 $57 #
cone-surface $-1 52.761145032462252 -16.993758956825744 2.5195791174094233 -0.57357644374324357 0 -0.81915203911291934 0.40957601955645967 0 -0.28678822187162178 1 I I 0 1 0.5 forward I I I I #
face $-1 $130 $131 $45 $-1 $132 reversed single #
loop $-1 $-1 $133 $58 #
plane-surface $-1 28.839165828478812 21.708344633161733 158.30644903678626 0 -1 0 -0.57357644374324357 0 -0.81915203911291934 forward_v I I I I #
face $-1 $134 $135 $46 $-1 $136 forward single #
loop $-1 $137 $138 $59 #
cone-surface $-1 52.761145032462252 16.993758956825737 2.5195791174094233 -0.57357644374324357 0 -0.81915203911291934 0.40957601955645967 0 -0.28678822187162178 1 I I 0 1 0.5 forward I I I I #
face $-1 $139 $140 $47 $-1 $141 forward single #
loop $-1 $142 $143 $60 #
cone-surface $-1 52.761145032462252 19.822510362627334 2.5195791174094233 -0.57357644374324357 0 -0.81915203911291934 0.40957601955645967 0 -0.28678822187162178 1 I I 0 1 0.5 forward I I I I #
face $-1 $144 $145 $48 $-1 $146 reversed single #
loop $-1 $-1 $147 $61 #
plane-surface $-1 -138.21293201777576 -9.4688955035571674 80.657834820404091 0 1 0 -0.71933980857756763 0 0.69465836192734942 forward_v I I I I #
face $-1 $148 $149 $49 $-1 $150 forward single #
loop $-1 $151 $152 $62 #
cone-surface $-1 -53.974590049915399 -4.7344477517785855 2.7579715006199828 0.71933980857756763 0 -0.69465836192734942 0.69465836192734942 0 0.71933980857756763 1 I I 0 1 1 forward I I I I #
face $-1 $153 $154 $50 $-1 $155 reversed single #
loop $-1 $-1 $156 $63 #
plane-surface $-1 -56.675313577684861 -4.7344477517785855 1.917873837217229 -0.71933980857756763 0 0.69465836192734942 0.69465836192734942 0 0.71933980857756763 forward_v I I I I #
face $-1 $157 $158 $51 $-1 $159 forward single #
loop $-1 $160 $161 $64 #
cone-surface $-1 -53.974590049915399 4.7344477517785819 2.7579715006199828 0.71933980857756763 0 -0.69465836192734942 0.69465836192734942 0 0.71933980857756763 1 I I 0 1 1 forward I I I I #
face $-1 $162 $163 $39 $-1 $164 forward single #
loop $-1 $-1 $165 $65 #
plane-surface $-1 0 -25.443612943565711 0 0 1 0 0 0 1 forward_v I I I I #
coedge $-1 $166 $167 $168 $169 reversed $66 $-1 #
face $-1 $170 $171 $40 $-1 $172 reversed single #
loop $-1 $-1 $173 $68 #
plane-surface $-1 0 0 -5.4863688239009836 0 0 1 1 0 0 forward_v I I I I #
coedge $-1 $174 $175 $176 $177 forward $69 $-1 #
face $-1 $178 $179 $41 $-1 $180 reversed single #
loop $-1 $-1 $181 $71 #
plane-surface $-1 0 0 -5.4863688239009836 0 0 1 1 0 0 forward_v I I I I #
coedge $-1 $182 $183 $184 $185 forward $72 $-1 #
face $-1 $186 $187 $42 $-1 $188 reversed single #
loop $-1 $-1 $189 $74 #
plane-surface $-1 -36.176083791364491 -18.408134659726542 65.45505166773691 0.57357644374324357 0 0.81915203911291934 0.81915203911291934 0 -0.57357644374324357 forward_v I I I I #
coedge $-1 $190 $191 $192 $193 reversed $75 $-1 #
face $-1 $-1 $194 $43 $-1 $195 forward single #
loop $-1 $196 $197 $77 #
cone-surface $-1 52.307204448113012 -19.822510362627341 1.8712847891433082 -0.57357644374324357 0 -0.81915203911291934 0.20478800977822983 0 -0.14339411093581089 1 I I -0.70710678118654746 0.70710678118654746 0.25 forward I I I I #
loop $-1 $-1 $198 $56 #
coedge $-1 $124 $124 $199 $200 reversed $78 $-1 #
face $-1 $-1 $201 $44 $-1 $202 forward single #
loop $-1 $203 $204 $80 #
cone-surface $-1 52.307204448113012 -16.993758956825744 1.8712847891433082 -0.57357644374324357 0 -0.81915203911291934 0.20478800977822983 0 -0.14339411093581089 1 I I -0.70710678118654746 0.70710678118654746 0.25 forward I I I I #
loop $-1 $-1 $205 $57 #
coedge $-1 $129 $129 $206 $207 reversed $81 $-1 #
face $-1 $208 $209 $45 $-1 $210 reversed single #
loop $-1 $-1 $211 $83 #
plane-surface $-1 -36.176083791364491 18.408134659726535 65.45505166773691 0.57357644374324357 0 0.81915203911291934 0.81915203911291934 0 -0.57357644374324357 forward_v I I I I #
coedge $-1 $212 $213 $214 $215 reversed $84 $-1 #
face $-1 $-1 $216 $46 $-1 $217 forward single #
loop $-1 $218 $219 $86 #
cone-surface $-1 52.307204448113012 16.993758956825737 1.8712847891433082 -0.57357644374324357 0 -0.81915203911291934 0.20478800977822983 0 -0.14339411093581089 1 I I -0.70710678118654746 0.70710678118654746 0.25 forward I I I I #
loop $-1 $-1 $220 $59 #
coedge $-1 $138 $138 $221 $222 reversed $87 $-1 #
face $-1 $-1 $223 $47 $-1 $224 forward single #
loop $-1 $225 $226 $89 #
cone-surface $-1 52.307204448113012 19.822510362627334 1.8712847891433082 -0.57357644374324357 0 -0.81915203911291934 0.20478800977822983 0 -0.14339411093581089 1 I I -0.70710678118654746 0.70710678118654746 0.25 forward I I I I #
loop $-1 $-1 $227 $60 #
coedge $-1 $143 $143 $228 $229 reversed $90 $-1 #
face $-1 $230 $231 $48 $-1 $232 reversed single #
loop $-1 $-1 $233 $92 #
plane-surface $-1 -56.675313577684861 -4.7344477517785855 1.917873837217229 -0.71933980857756763 0 0.69465836192734942 0.69465836192734942 0 0.71933980857756763 forward_v I I I I #
coedge $-1 $234 $235 $236 $237 reversed $93 $-1 #
face $-1 $-1 $238 $49 $-1 $239 forward single #
loop $-1 $240 $241 $95 #
cone-surface $-1 -52.637224352758601 -4.7344477517785855 1.4664924897171785 0.71933980857756763 0 -0.69465836192734942 0.34732918096367471 0 0.35966990428878381 1 I I -0.70710678118654746 0.70710678118654746 0.5 forward I I I I #
loop $-1 $-1 $242 $62 #
coedge $-1 $152 $152 $243 $244 reversed $96 $-1 #
face $-1 $245 $246 $50 $-1 $247 reversed single #
loop $-1 $-1 $248 $98 #
plane-surface $-1 -138.21293201777576 9.4688955035571638 80.657834820404091 0 -1 0 0.71933980857756763 0 -0.69465836192734942 forward_v I I I I #
coedge $-1 $249 $250 $251 $252 reversed $99 $-1 #
face $-1 $-1 $253 $51 $-1 $254 forward single #
loop $-1 $255 $256 $101 #
cone-surface $-1 -52.637224352758601 4.7344477517785819 1.4664924897171785 0.71933980857756763 0 -0.69465836192734942 0.34732918096367471 0 0.35966990428878381 1 I I -0.70710678118654746 0.70710678118654746 0.5 forward I I I I #
loop $-1 $-1 $257 $64 #
coedge $-1 $161 $161 $258 $259 reversed $102 $-1 #
face $-1 $260 $261 $39 $-1 $262 reversed single #
loop $-1 $-1 $263 $104 #
plane-surface $-1 0 0 5.4863688239009836 0 0 1 1 0 0 forward_v I I I I #
coedge $-1 $264 $265 $266 $267 reversed $105 $-1 #
coedge $-1 $268 $107 $269 $270 reversed $66 $-1 #
coedge $-1 $107 $268 $271 $272 forward $66 $-1 #
coedge $-1 $273 $274 $107 $169 forward $261 $-1 #
edge $-1 $275 -56.675313577684861 $276 56.675313577684861 $107 $277 forward 7 unknown #
face $-1 $278 $279 $40 $-1 $280 reversed single #
loop $-1 $-1 $281 $108 #
plane-surface $-1 -51.960864984126957 -29.178881253969685 0 0 1 0 0 0 1 forward_v I I I I #
coedge $-1 $282 $283 $175 $284 forward $109 $-1 #
coedge $-1 $285 $111 $286 $287 reversed $69 $-1 #
coedge $-1 $111 $285 $173 $284 reversed $69 $-1 #
coedge $-1 $288 $289 $111 $177 reversed $279 $-1 #
edge $-1 $290 -5.4863688239009836 $291 5.4863688239009836 $176 $292 forward 7 unknown #
face $-1 $293 $294 $41 $-1 $295 reversed single #
loop $-1 $-1 $296 $112 #
plane-surface $-1 -53.460864984126957 27.311247098767694 0 1 0 0 0 0 -1 forward_v I I I I #
coedge $-1 $297 $298 $183 $299 forward $113 $-1 #
coedge $-1 $300 $115 $301 $302 reversed $72 $-1 #
coedge $-1 $115 $300 $181 $299 reversed $72 $-1 #
coedge $-1 $303 $304 $115 $185 reversed $305 $-1 #
edge $-1 $306 -5.4863688239009836 $307 5.4863688239009836 $184 $308 forward 7 unknown #
face $-1 $309 $310 $42 $-1 $311 forward single #
loop $-1 $-1 $312 $116 #
plane-surface $-1 28.839165828478812 -21.70834463316174 158.30644903678626 0 1 0 0.57357644374324357 0 0.81915203911291934 forward_v I I I I #
coedge $-1 $313 $314 $315 $316 reversed $117 $-1 #
coedge $-1 $191 $119 $317 $318 reversed $75 $-1 #
coedge $-1 $119 $190 $313 $319 reversed $75 $-1 #
coedge $-1 $315 $320 $119 $193 forward $310 $-1 #
edge $-1 $321 -42.255730663445455 $322 -35.048486519827073 $192 $323 forward 7 unknown #
loop $-1 $-1 $199 $120 #
plane-surface $-1 -36.176083791364491 -18.408134659726542 65.45505166773691 0.57357644374324357 0 0.81915203911291934 0.81915203911291934 0 -0.57357644374324357 forward_v I I I I #
loop $-1 $-1 $324 $77 #
coedge $-1 $197 $197 $198 $325 reversed $121 $-1 #
coedge $-1 $198 $198 $197 $325 forward $123 $-1 #
coedge $-1 $199 $199 $124 $200 forward $194 $-1 #
edge $-1 $326 0 $326 6.2831853071796004 $199 $327 forward 7 unknown #
loop $-1 $-1 $206 $125 #
plane-surface $-1 -36.176083791364491 -18.408134659726542 65.45505166773691 0.57357644374324357 0 0.81915203911291934 0.81915203911291934 0 -0.57357644374324357 forward_v I I I I #
loop $-1 $-1 $328 $80 #
coedge $-1 $204 $204 $205 $329 reversed $126 $-1 #
coedge $-1 $205 $205 $204 $329 forward $128 $-1 #
coedge $-1 $206 $206 $129 $207 forward $201 $-1 #
edge $-1 $330 0 $330 6.2831853071796004 $206 $331 forward 7 unknown #
face $-1 $332 $333 $45 $-1 $334 reversed single #
loop $-1 $-1 $335 $130 #
plane-surface $-1 28.839165828478812 15.107924686291337 158.30644903678626 0 1 0 0.57357644374324357 0 0.81915203911291934 forward_v I I I I #
coedge $-1 $336 $337 $338 $339 reversed $131 $-1 #
coedge $-1 $213 $133 $340 $341 reversed $84 $-1 #
coedge $-1 $133 $212 $336 $342 reversed $84 $-1 #
coedge $-1 $338 $343 $133 $215 forward $344 $-1 #
edge $-1 $345 -42.255730663445455 $346 -35.048486519827073 $214 $347 forward 7 unknown #
loop $-1 $-1 $221 $134 #
plane-surface $-1 -36.176083791364491 18.408134659726535 65.45505166773691 0.57357644374324357 0 0.81915203911291934 0.81915203911291934 0 -0.57357644374324357 forward_v I I I I #
loop $-1 $-1 $348 $86 #
coedge $-1 $219 $219 $220 $349 reversed $135 $-1 #
coedge $-1 $220 $220 $219 $349 forward $137 $-1 #
coedge $-1 $221 $221 $138 $222 forward $216 $-1 #
edge $-1 $350 0 $350 6.2831853071796004 $221 $351 forward 7 unknown #
loop $-1 $-1 $228 $139 #
plane-surface $-1 -36.176083791364491 18.408134659726535 65.45505166773691 0.57357644374324357 0 0.81915203911291934 0.81915203911291934 0 -0.57357644374324357 forward_v I I I I #
loop $-1 $-1 $352 $89 #
coedge $-1 $226 $226 $227 $353 reversed $140 $-1 #
coedge $-1 $227 $227 $226 $353 forward $142 $-1 #
coedge $-1 $228 $228 $143 $229 forward $223 $-1 #
edge $-1 $354 0 $354 6.2831853071796004 $228 $355 forward 7 unknown #
face $-1 $356 $357 $48 $-1 $358 reversed single #
loop $-1 $-1 $359 $144 #
plane-surface $-1 -138.21293201777576 -2.6645352591003757e-015 80.657834820404091 0 -1 0 0.71933980857756763 0 -0.69465836192734942 forward_v I I I I #
coedge $-1 $360 $361 $362 $363 reversed $145 $-1 #
coedge $-1 $235 $147 $364 $365 reversed $93 $-1 #
coedge $-1 $147 $234 $360 $366 reversed $93 $-1 #
coedge $-1 $362 $367 $147 $237 forward $368 $-1 #
edge $-1 $369 12.431152431203017 $370 15.877207901005917 $236 $371 forward 7 unknown #
loop $-1 $-1 $243 $148 #
plane-surface $-1 -56.675313577684861 -4.7344477517785855 1.917873837217229 -0.71933980857756763 0 0.69465836192734942 0.69465836192734942 0 0.71933980857756763 forward_v I I I I #
loop $-1 $-1 $372 $95 #
coedge $-1 $241 $241 $242 $373 reversed $149 $-1 #
coedge $-1 $242 $242 $241 $373 forward $151 $-1 #
coedge $-1 $243 $243 $152 $244 forward $238 $-1 #
edge $-1 $374 0 $374 6.2831853071796004 $243 $375 forward 7 unknown #
face $-1 $376 $377 $50 $-1 $378 forward single #
loop $-1 $-1 $379 $153 #
plane-surface $-1 -56.675313577684861 0 0 1 0 0 0 0 -1 forward_v I I I I #
coedge $-1 $380 $381 $382 $383 reversed $154 $-1 #
coedge $-1 $384 $156 $385 $386 reversed $99 $-1 #
coedge $-1 $156 $384 $387 $388 reversed $99 $-1 #
coedge $-1 $389 $390 $156 $252 forward $377 $-1 #
edge $-1 $391 0 $392 4.9607917483951667 $251 $393 forward 7 unknown #
loop $-1 $-1 $258 $157 #
plane-surface $-1 -56.675313577684861 -4.7344477517785855 1.917873837217229 -0.71933980857756763 0 0.69465836192734942 0.69465836192734942 0 0.71933980857756763 forward_v I I I I #
loop $-1 $-1 $394 $101 #
coedge $-1 $256 $256 $257 $395 reversed $158 $-1 #
coedge $-1 $257 $257 $256 $395 forward $160 $-1 #
coedge $-1 $258 $258 $161 $259 forward $253 $-1 #
edge $-1 $396 0 $396 6.2831853071796004 $258 $397 forward 7 unknown #
face $-1 $398 $399 $39 $-1 $400 reversed single #
loop $-1 $-1 $273 $162 #
plane-surface $-1 0 0 -5.4863688239009836 0 0 1 1 0 0 forward_v I I I I #
coedge $-1 $401 $402 $403 $404 forward $163 $-1 #
coedge $-1 $405 $165 $406 $407 reversed $105 $-1 #
coedge $-1 $165 $405 $408 $409 forward $105 $-1 #
coedge $-1 $274 $273 $165 $267 forward $261 $-1 #
edge $-1 $410 -56.675313577684861 $411 56.675313577684861 $165 $412 forward 7 unknown #
coedge $-1 $167 $166 $401 $413 reversed $66 $-1 #
coedge $-1 $414 $415 $166 $270 forward $399 $-1 #
edge $-1 $416 -5.4863688239009836 $275 5.4863688239009836 $166 $417 forward 7 unknown #
coedge $-1 $403 $418 $167 $272 reversed $419 $-1 #
edge $-1 $420 -5.4863688239009836 $276 5.4863688239009836 $271 $421 forward 7 unknown #
coedge $-1 $266 $168 $418 $422 forward $261 $-1 #
coedge $-1 $168 $266 $414 $423 forward $261 $-1 #
vertex $-1 $169 $424 #
vertex $-1 $422 $425 #
straight-curve $-1 0 25.443612943565711 -5.4863688239009836 1 0 0 I I #
face $-1 $426 $427 $40 $-1 $428 reversed single #
loop $-1 $-1 $176 $170 #
plane-surface $-1 -53.460864984126957 -27.311247098767698 0 1 0 0 0 0 -1 forward_v I I I I #
coedge $-1 $429 $430 $431 $432 forward $171 $-1 #
coedge $-1 $433 $173 $434 $435 forward $109 $-1 #
coedge $-1 $173 $433 $288 $436 forward $109 $-1 #
edge $-1 $290 -53.460864984126957 $437 -50.460864984126957 $173 $438 forward 7 unknown #
coedge $-1 $175 $174 $439 $440 forward $69 $-1 #
coedge $-1 $441 $442 $174 $287 forward $443 $-1 #
edge $-1 $444 50.460864984126957 $291 53.460864984126957 $286 $445 forward 7 unknown #
coedge $-1 $431 $176 $283 $436 reversed $279 $-1 #
coedge $-1 $176 $431 $441 $446 reversed $279 $-1 #
vertex $-1 $284 $447 #
vertex $-1 $446 $448 #
straight-curve $-1 -53.460864984126957 -25.443612943565711 0 0 0 1 I I #
face $-1 $449 $305 $41 $-1 $450 reversed single #
loop $-1 $-1 $451 $178 #
plane-surface $-1 -51.960864984126957 29.178881253969681 0 0 -1 0 0 0 -1 forward_v I I I I #
coedge $-1 $452 $453 $454 $455 forward $179 $-1 #
coedge $-1 $456 $181 $452 $457 forward $113 $-1 #
coedge $-1 $181 $456 $303 $458 forward $113 $-1 #
edge $-1 $306 50.460864984126957 $459 53.460864984126957 $181 $460 forward 7 unknown #
coedge $-1 $183 $182 $461 $462 forward $72 $-1 #
coedge $-1 $463 $464 $182 $302 forward $465 $-1 #
edge $-1 $466 -53.460864984126957 $307 -50.460864984126957 $301 $467 forward 7 unknown #
coedge $-1 $468 $184 $298 $458 reversed $305 $-1 #
coedge $-1 $184 $468 $463 $469 reversed $305 $-1 #
loop $-1 $-1 $184 $293 #
vertex $-1 $299 $470 #
vertex $-1 $469 $471 #
straight-curve $-1 -50.460864984126957 25.443612943565711 0 0 0 1 I I #
face $-1 $-1 $472 $42 $-1 $473 reversed single #
loop $-1 $-1 $192 $186 #
plane-surface $-1 0 0 5.4863688239009836 0 0 1 1 0 0 forward_v I I I I #
coedge $-1 $474 $475 $476 $477 reversed $187 $-1 #
coedge $-1 $478 $189 $191 $319 forward $117 $-1 #
coedge $-1 $189 $478 $474 $479 forward $117 $-1 #
coedge $-1 $476 $192 $189 $316 forward $310 $-1 #
edge $-1 $322 5.9038573564280732 $480 12.504277303298469 $315 $481 forward 7 unknown #
coedge $-1 $482 $483 $190 $318 forward $472 $-1 #
edge $-1 $484 -78.713422470499523 $321 -73.666855694492142 $317 $485 forward 7 unknown #
edge $-1 $322 104.55220659424495 $484 113.35062715536972 $191 $486 forward 7 unknown #
coedge $-1 $192 $476 $482 $487 forward $310 $-1 #
vertex $-1 $193 $488 #
vertex $-1 $193 $489 #
straight-curve $-1 14.419582914239406 -15.107924686291344 5.4863688239009889 -1 0 0 I I #
coedge $-1 $324 $324 $-1 $490 reversed $196 $-1 #
edge $-1 $491 0 $491 6.2831853071796004 $197 $492 forward 7 unknown #
vertex $-1 $200 $493 #
ellipse-curve $-1 53.071691505875677 -19.822510362627341 2.9630854358972956 0.57357644374324357 0 0.81915203911291934 0.40957601955645967 0 -0.28678822187162178 1 I I #
coedge $-1 $328 $328 $-1 $494 reversed $203 $-1 #
edge $-1 $495 0 $495 6.2831853071796004 $204 $496 forward 7 unknown #
vertex $-1 $207 $497 #
ellipse-curve $-1 53.071691505875677 -16.993758956825744 2.9630854358972956 0.57357644374324357 0 0.81915203911291934 0.40957601955645967 0 -0.28678822187162178 1 I I #
face $-1 $-1 $344 $45 $-1 $498 forward single #
loop $-1 $-1 $499 $208 #
plane-surface $-1 56.675313577684861 0 0 -1 0 0 0 0 1 forward_v I I I I #
coedge $-1 $500 $501 $502 $503 reversed $209 $-1 #
coedge $-1 $504 $211 $213 $342 forward $131 $-1 #
coedge $-1 $211 $504 $500 $505 forward $131 $-1 #
coedge $-1 $502 $214 $211 $339 forward $344 $-1 #
edge $-1 $346 -12.504277303298466 $506 -5.9038573564280696 $338 $507 forward 7 unknown #
coedge $-1 $508 $509 $212 $341 forward $333 $-1 #
edge $-1 $510 -78.713422470499523 $345 -73.666855694492142 $340 $511 forward 7 unknown #
edge $-1 $346 104.55220659424495 $510 113.35062715536972 $213 $512 forward 7 unknown #
coedge $-1 $214 $502 $508 $513 forward $344 $-1 #
loop $-1 $-1 $502 $332 #
vertex $-1 $341 $514 #
vertex $-1 $215 $515 #
straight-curve $-1 14.419582914239406 21.708344633161733 5.4863688239009889 -1 0 0 I I #
coedge $-1 $348 $348 $-1 $516 reversed $218 $-1 #
edge $-1 $517 0 $517 6.2831853071796004 $219 $518 forward 7 unknown #
vertex $-1 $222 $519 #
ellipse-curve $-1 53.071691505875677 16.993758956825737 2.9630854358972956 0.57357644374324357 0 0.81915203911291934 0.40957601955645967 0 -0.28678822187162178 1 I I #
coedge $-1 $352 $352 $-1 $520 reversed $225 $-1 #
edge $-1 $521 0 $521 6.2831853071796004 $226 $522 forward 7 unknown #
vertex $-1 $229 $523 #
ellipse-curve $-1 53.071691505875677 19.822510362627334 2.9630854358972956 0.57357644374324357 0 0.81915203911291934 0.40957601955645967 0 -0.28678822187162178 1 I I #
face $-1 $-1 $368 $48 $-1 $524 forward single #
loop $-1 $-1 $525 $230 #
plane-surface $-1 -56.675313577684861 0 0 1 0 0 0 0 -1 forward_v I I I I #
coedge $-1 $526 $527 $528 $529 reversed $231 $-1 #
coedge $-1 $530 $233 $235 $366 forward $145 $-1 #
coedge $-1 $233 $530 $526 $531 forward $145 $-1 #
coedge $-1 $528 $236 $233 $363 forward $368 $-1 #
edge $-1 $370 -7.1016716276678746 $532 2.3672238758892901 $362 $533 forward 7 unknown #
coedge $-1 $534 $535 $234 $365 forward $357 $-1 #
edge $-1 $536 -38.411043572984816 $369 -34.842548586301064 $364 $537 forward 7 unknown #
edge $-1 $370 -4.9607917483951667 $536 0 $235 $538 forward 7 unknown #
coedge $-1 $236 $528 $534 $539 forward $368 $-1 #
loop $-1 $-1 $528 $356 #
vertex $-1 $365 $540 #
vertex $-1 $237 $541 #
straight-curve $-1 -69.106466008887878 -9.4688955035571674 5.4863688239009818 1 0 0 I I #
coedge $-1 $372 $372 $-1 $542 reversed $240 $-1 #
edge $-1 $543 0 $543 6.2831853071796004 $241 $544 forward 7 unknown #
vertex $-1 $244 $545 #
ellipse-curve $-1 -54.952285842783411 -4.7344477517785855 3.7021213305591085 -0.71933980857756763 0 0.69465836192734942 0.69465836192734942 0 0.71933980857756763 1 I I #
face $-1 $-1 $546 $50 $-1 $547 forward single #
loop $-1 $-1 $389 $245 #
plane-surface $-1 -138.21293201777576 -2.6645352591003757e-015 80.657834820404091 0 -1 0 0.71933980857756763 0 -0.69465836192734942 forward_v I I I I #
coedge $-1 $385 $548 $381 $549 forward $246 $-1 #
coedge $-1 $381 $248 $384 $550 reversed $154 $-1 #
coedge $-1 $248 $380 $379 $549 reversed $154 $-1 #
coedge $-1 $551 $387 $248 $383 forward $546 $-1 #
edge $-1 $552 -15.877207901005917 $553 -12.431152431203017 $382 $554 forward 7 unknown #
coedge $-1 $250 $249 $380 $550 forward $99 $-1 #
coedge $-1 $555 $379 $249 $386 forward $246 $-1 #
edge $-1 $556 -11.836119379446457 $391 -2.3672238758892901 $385 $557 forward 7 unknown #
coedge $-1 $382 $558 $250 $388 forward $546 $-1 #
edge $-1 $392 2.3672238758892901 $552 11.836119379446457 $387 $559 forward 7 unknown #
coedge $-1 $390 $251 $558 $560 reversed $377 $-1 #
coedge $-1 $251 $389 $555 $561 reversed $377 $-1 #
vertex $-1 $386 $562 #
vertex $-1 $388 $563 #
straight-curve $-1 -56.675313577684861 -2.6645352591003757e-015 1.917873837217229 0.69465836192734942 0 0.71933980857756763 I I #
coedge $-1 $394 $394 $-1 $564 reversed $255 $-1 #
edge $-1 $565 0 $565 6.2831853071796004 $256 $566 forward 7 unknown #
vertex $-1 $259 $567 #
ellipse-curve $-1 -54.952285842783411 4.7344477517785819 3.7021213305591085 -0.71933980857756763 0 0.69465836192734942 0.69465836192734942 0 0.71933980857756763 1 I I #
face $-1 $-1 $419 $39 $-1 $568 reversed single #
loop $-1 $-1 $269 $260 #
plane-surface $-1 -56.675313577684861 0 0 1 0 0 0 0 -1 forward_v I I I I #
coedge $-1 $569 $263 $268 $413 forward $163 $-1 #
coedge $-1 $263 $569 $405 $570 forward $163 $-1 #
coedge $-1 $406 $271 $263 $404 reversed $419 $-1 #
edge $-1 $571 -25.443612943565711 $420 25.443612943565711 $403 $572 forward 7 unknown #
coedge $-1 $265 $264 $402 $570 reversed $105 $-1 #
coedge $-1 $418 $403 $264 $407 forward $419 $-1 #
edge $-1 $571 -5.4863688239009836 $410 5.4863688239009836 $406 $573 forward 7 unknown #
coedge $-1 $415 $414 $265 $409 reversed $399 $-1 #
edge $-1 $574 -5.4863688239009836 $411 5.4863688239009836 $408 $575 forward 7 unknown #
vertex $-1 $407 $576 #
vertex $-1 $423 $577 #
straight-curve $-1 0 -25.443612943565711 -5.4863688239009836 -1 0 0 I I #
edge $-1 $420 -56.675313577684861 $416 56.675313577684861 $268 $578 forward 7 unknown #
coedge $-1 $408 $269 $274 $423 reversed $399 $-1 #
coedge $-1 $269 $408 $569 $579 reversed $399 $-1 #
vertex $-1 $413 $580 #
straight-curve $-1 -56.675313577684861 25.443612943565711 0 0 0 -1 I I #
coedge $-1 $271 $406 $273 $422 reversed $419 $-1 #
loop $-1 $-1 $406 $398 #
vertex $-1 $404 $581 #
straight-curve $-1 56.675313577684861 25.443612943565711 0 0 0 -1 I I #
edge $-1 $276 -25.443612943565711 $410 25.443612943565711 $418 $582 forward 7 unknown #
edge $-1 $411 -25.443612943565711 $275 25.443612943565711 $414 $583 forward 7 unknown #
point $-1 -56.675313577684861 25.443612943565711 -5.4863688239009836 #
point $-1 56.675313577684861 25.443612943565711 -5.4863688239009836 #
face $-1 $-1 $443 $40 $-1 $584 forward single #
loop $-1 $-1 $585 $278 #
plane-surface $-1 -50.460864984126957 -27.311247098767698 0 -1 0 0 0 0 1 forward_v I I I I #
coedge $-1 $586 $281 $433 $587 reversed $171 $-1 #
coedge $-1 $281 $586 $588 $589 reversed $171 $-1 #
coedge $-1 $289 $288 $281 $432 reversed $279 $-1 #
edge $-1 $590 -5.4863688239009836 $591 5.4863688239009836 $431 $592 forward 7 unknown #
coedge $-1 $283 $282 $429 $587 forward $109 $-1 #
coedge $-1 $439 $585 $282 $435 reversed $427 $-1 #
edge $-1 $437 -1.8676341552019871 $593 1.8676341552019871 $434 $594 forward 7 unknown #
edge $-1 $591 -1.8676341552019871 $290 1.8676341552019871 $288 $595 forward 7 unknown #
vertex $-1 $435 $596 #
straight-curve $-1 0 -25.443612943565711 -5.4863688239009836 1 0 0 I I #
coedge $-1 $597 $434 $285 $440 reversed $427 $-1 #
edge $-1 $444 -5.4863688239009836 $437 5.4863688239009836 $439 $598 forward 7 unknown #
coedge $-1 $588 $286 $289 $446 forward $443 $-1 #
coedge $-1 $286 $588 $597 $599 forward $443 $-1 #
loop $-1 $-1 $286 $426 #
vertex $-1 $287 $600 #
straight-curve $-1 0 -25.443612943565711 5.4863688239009836 -1 0 0 I I #
edge $-1 $291 -1.8676341552019871 $590 1.8676341552019871 $289 $601 forward 7 unknown #
point $-1 -53.460864984126957 -25.443612943565711 -5.4863688239009836 #
point $-1 -53.460864984126957 -25.443612943565711 5.4863688239009836 #
face $-1 $-1 $465 $41 $-1 $602 forward single #
plane-surface $-1 -50.460864984126957 27.311247098767694 0 -1 0 0 0 0 1 forward_v I I I I #
coedge $-1 $603 $604 $468 $605 forward $294 $-1 #
coedge $-1 $461 $296 $297 $457 reversed $179 $-1 #
coedge $-1 $296 $461 $464 $606 reversed $179 $-1 #
coedge $-1 $604 $603 $296 $455 reversed $294 $-1 #
edge $-1 $607 -5.4863688239009836 $608 5.4863688239009836 $454 $609 forward 7 unknown #
coedge $-1 $298 $297 $603 $610 forward $113 $-1 #
edge $-1 $459 -1.8676341552019871 $608 1.8676341552019871 $452 $611 forward 7 unknown #
edge $-1 $612 -1.8676341552019871 $306 1.8676341552019871 $303 $613 forward 7 unknown #
vertex $-1 $457 $614 #
straight-curve $-1 0 25.443612943565711 -5.4863688239009836 -1 0 0 I I #
coedge $-1 $453 $452 $300 $462 reversed $179 $-1 #
edge $-1 $466 -5.4863688239009836 $459 5.4863688239009836 $461 $615 forward 7 unknown #
coedge $-1 $616 $301 $304 $469 forward $465 $-1 #
coedge $-1 $301 $616 $453 $606 forward $465 $-1 #
loop $-1 $-1 $301 $449 #
vertex $-1 $302 $617 #
straight-curve $-1 0 25.443612943565711 5.4863688239009836 1 0 0 I I #
coedge $-1 $304 $303 $451 $605 reversed $305 $-1 #
edge $-1 $307 -1.8676341552019871 $618 1.8676341552019871 $304 $619 forward 7 unknown #
point $-1 -50.460864984126957 25.443612943565707 -5.4863688239009836 #
point $-1 -50.460864984126957 25.443612943565707 5.4863688239009836 #
loop $-1 $-1 $317 $309 #
plane-surface $-1 56.675313577684861 0 0 -1 0 0 0 0 1 forward_v I I I I #
coedge $-1 $475 $312 $314 $479 reversed $187 $-1 #
coedge $-1 $312 $474 $620 $621 reversed $187 $-1 #
coedge $-1 $320 $315 $312 $477 forward $310 $-1 #
edge $-1 $480 35.048486519827073 $622 42.255730663445455 $476 $623 forward 7 unknown #
coedge $-1 $314 $313 $483 $624 reversed $117 $-1 #
edge $-1 $625 -113.35062715536972 $480 -104.55220659424495 $474 $626 forward 7 unknown #
vertex $-1 $316 $627 #
straight-curve $-1 49.468069434066479 -9.2040673298632711 5.4863688239009889 0 -1 0 I I #
coedge $-1 $620 $317 $320 $487 reversed $472 $-1 #
coedge $-1 $317 $620 $478 $624 forward $472 $-1 #
vertex $-1 $318 $628 #
straight-curve $-1 56.675313577684861 -15.107924686291344 79.153224518393131 0 0 1 I I #
straight-curve $-1 -36.176083791364491 -15.107924686291344 65.45505166773691 0.81915203911291934 0 -0.57357644374324357 I I #
edge $-1 $622 -21.70834463316174 $321 -15.107924686291344 $482 $629 forward 7 unknown #
point $-1 56.675313577684861 -15.107924686291344 5.4863688239009836 #
point $-1 49.468069434066479 -15.107924686291344 5.4863688239009818 #
edge $-1 $630 1 $630 0 $324 $-1 forward 7 unknown #
vertex $-1 $325 $631 #
ellipse-curve $-1 52.450598559048821 -19.822510362627341 2.0760727989215382 0.57357644374324357 0 0.81915203911291934 0.40957601955645967 0 -0.28678822187162178 1 I I #
point $-1 53.481267525432145 -19.822510362627341 2.6762972140256869 #
edge $-1 $632 1 $632 0 $328 $-1 forward 7 unknown #
vertex $-1 $329 $633 #
ellipse-curve $-1 52.450598559048821 -16.993758956825744 2.0760727989215382 0.57357644374324357 0 0.81915203911291934 0.40957601955645967 0 -0.28678822187162178 1 I I #
point $-1 53.481267525432145 -16.993758956825744 2.6762972140256869 #
plane-surface $-1 0 0 5.4863688239009836 0 0 1 1 0 0 forward_v I I I I #
coedge $-1 $509 $508 $501 $634 forward $333 $-1 #
coedge $-1 $501 $335 $337 $505 reversed $209 $-1 #
coedge $-1 $335 $500 $499 $634 reversed $209 $-1 #
coedge $-1 $343 $338 $335 $503 forward $344 $-1 #
edge $-1 $506 35.048486519827073 $635 42.255730663445455 $502 $636 forward 7 unknown #
coedge $-1 $337 $336 $509 $637 reversed $131 $-1 #
edge $-1 $638 -113.35062715536972 $506 -104.55220659424495 $500 $639 forward 7 unknown #
vertex $-1 $339 $640 #
straight-curve $-1 49.468069434066479 9.2040673298632676 5.4863688239009889 0 -1 0 I I #
coedge $-1 $499 $340 $343 $513 reversed $333 $-1 #
coedge $-1 $340 $499 $504 $637 forward $333 $-1 #
vertex $-1 $341 $641 #
straight-curve $-1 56.675313577684861 21.708344633161733 79.153224518393131 0 0 1 I I #
straight-curve $-1 -36.176083791364491 21.708344633161733 65.45505166773691 0.81915203911291934 0 -0.57357644374324357 I I #
edge $-1 $635 15.107924686291337 $345 21.708344633161733 $508 $642 forward 7 unknown #
point $-1 56.675313577684861 21.708344633161733 5.4863688239009836 #
point $-1 49.468069434066479 21.708344633161733 5.4863688239009818 #
edge $-1 $643 1 $643 0 $348 $-1 forward 7 unknown #
vertex $-1 $349 $644 #
ellipse-curve $-1 52.450598559048821 16.993758956825737 2.0760727989215382 0.57357644374324357 0 0.81915203911291934 0.40957601955645967 0 -0.28678822187162178 1 I I #
point $-1 53.481267525432145 16.993758956825737 2.6762972140256869 #
edge $-1 $645 1 $645 0 $352 $-1 forward 7 unknown #
vertex $-1 $353 $646 #
ellipse-curve $-1 52.450598559048821 19.822510362627334 2.0760727989215382 0.57357644374324357 0 0.81915203911291934 0.40957601955645967 0 -0.28678822187162178 1 I I #
point $-1 53.481267525432145 19.822510362627334 2.6762972140256869 #
plane-surface $-1 0 0 5.4863688239009836 0 0 1 1 0 0 forward_v I I I I #
coedge $-1 $535 $534 $527 $647 forward $357 $-1 #
coedge $-1 $527 $359 $361 $531 reversed $231 $-1 #
coedge $-1 $359 $526 $525 $647 reversed $231 $-1 #
coedge $-1 $367 $362 $359 $529 forward $368 $-1 #
edge $-1 $532 -15.877207901005917 $648 -12.431152431203017 $528 $649 forward 7 unknown #
coedge $-1 $361 $360 $535 $650 reversed $145 $-1 #
edge $-1 $651 0 $532 4.9607917483951667 $526 $652 forward 7 unknown #
vertex $-1 $363 $653 #
straight-curve $-1 -53.229258107881961 -2.3672238758892927 5.4863688239009853 0 1 0 I I #
coedge $-1 $525 $364 $367 $539 reversed $357 $-1 #
coedge $-1 $364 $525 $530 $650 forward $357 $-1 #
vertex $-1 $365 $654 #
straight-curve $-1 -56.675313577684861 -9.4688955035571674 40.328917410202045 0 0 1 I I #
straight-curve $-1 -56.675313577684861 -9.4688955035571674 1.917873837217229 -0.69465836192734942 0 -0.71933980857756763 I I #
edge $-1 $648 2.6645352591003757e-015 $369 9.4688955035571674 $534 $655 forward 7 unknown #
point $-1 -56.675313577684861 -9.4688955035571674 5.4863688239009836 #
point $-1 -53.229258107881961 -9.4688955035571674 5.4863688239009836 #
edge $-1 $656 1 $656 0 $372 $-1 forward 7 unknown #
vertex $-1 $373 $657 #
ellipse-curve $-1 -52.996894257047387 -4.7344477517785855 1.8138216706808532 -0.71933980857756763 0 0.69465836192734942 0.69465836192734942 0 0.71933980857756763 1 I I #
point $-1 -54.257627480856065 -4.7344477517785855 4.4214611391366807 #
loop $-1 $-1 $382 $376 #
plane-surface $-1 0 0 5.4863688239009836 0 0 1 1 0 0 forward_v I I I I #
coedge $-1 $379 $555 $551 $658 reversed $246 $-1 #
edge $-1 $553 34.842548586301064 $556 38.411043572984816 $379 $659 forward 7 unknown #
edge $-1 $556 0 $552 4.9607917483951667 $380 $660 forward 7 unknown #
coedge $-1 $558 $382 $548 $658 forward $546 $-1 #
vertex $-1 $383 $661 #
vertex $-1 $658 $662 #
straight-curve $-1 -69.106466008887878 9.4688955035571638 5.4863688239009818 -1 0 0 I I #
coedge $-1 $548 $385 $390 $561 forward $246 $-1 #
vertex $-1 $549 $663 #
straight-curve $-1 -56.675313577684861 -2.3672238758892927 1.9178738372172299 0 -1 0 I I #
coedge $-1 $387 $551 $389 $560 forward $546 $-1 #
straight-curve $-1 -53.229258107881961 -2.3672238758892927 5.4863688239009853 0 1 0 I I #
edge $-1 $664 12.431152431203017 $392 15.877207901005917 $558 $665 forward 7 unknown #
edge $-1 $391 -38.411043572984816 $664 -34.842548586301064 $555 $666 forward 7 unknown #
point $-1 -56.675313577684861 -2.6645352591003757e-015 1.917873837217229 #
point $-1 -53.229258107881961 -2.6645352591003757e-015 5.4863688239009836 #
edge $-1 $667 1 $667 0 $394 $-1 forward 7 unknown #
vertex $-1 $395 $668 #
ellipse-curve $-1 -52.996894257047387 4.7344477517785819 1.8138216706808532 -0.71933980857756763 0 0.69465836192734942 0.69465836192734942 0 0.71933980857756763 1 I I #
point $-1 -54.257627480856065 4.7344477517785819 4.4214611391366807 #
plane-surface $-1 56.675313577684861 0 0 -1 0 0 0 0 1 forward_v I I I I #
coedge $-1 $402 $401 $415 $579 forward $163 $-1 #
edge $-1 $574 -56.675313577684861 $571 56.675313577684861 $405 $669 forward 7 unknown #
vertex $-1 $404 $670 #
straight-curve $-1 56.675313577684861 0 5.4863688239009836 0 1 0 I I #
straight-curve $-1 56.675313577684861 -25.443612943565711 0 0 0 -1 I I #
vertex $-1 $579 $671 #
straight-curve $-1 -56.675313577684861 -25.443612943565711 0 0 0 -1 I I #
point $-1 56.675313577684861 -25.443612943565711 -5.4863688239009836 #
point $-1 -56.675313577684861 -25.443612943565711 -5.4863688239009836 #
straight-curve $-1 0 25.443612943565711 5.4863688239009836 -1 0 0 I I #
edge $-1 $416 -25.443612943565711 $574 25.443612943565711 $415 $672 forward 7 unknown #
point $-1 -56.675313577684861 25.443612943565711 5.4863688239009836 #
point $-1 56.675313577684861 25.443612943565711 5.4863688239009836 #
straight-curve $-1 56.675313577684861 0 -5.4863688239009836 0 -1 0 I I #
straight-curve $-1 -56.675313577684861 0 -5.4863688239009836 0 1 0 I I #
plane-surface $-1 0 0 5.4863688239009836 0 0 1 1 0 0 forward_v I I I I #
coedge $-1 $434 $597 $586 $673 forward $427 $-1 #
coedge $-1 $430 $429 $585 $673 reversed $171 $-1 #
edge $-1 $593 -1.5 $591 1.5 $429 $674 forward 7 unknown #
coedge $-1 $442 $441 $430 $589 forward $443 $-1 #
edge $-1 $590 -1.5 $675 1.5 $430 $676 forward 7 unknown #
vertex $-1 $446 $677 #
vertex $-1 $436 $678 #
straight-curve $-1 -53.460864984126957 -29.178881253969685 0 0 0 -1 I I #
vertex $-1 $673 $679 #
straight-curve $-1 -50.460864984126957 -27.311247098767698 -5.4863688239009836 0 -1 0 I I #
straight-curve $-1 -53.460864984126957 -27.311247098767698 -5.4863688239009836 0 1 0 I I #
point $-1 -50.460864984126957 -25.443612943565711 -5.4863688239009836 #
coedge $-1 $585 $439 $442 $599 reversed $427 $-1 #
straight-curve $-1 -50.460864984126957 -25.443612943565711 0 0 0 -1 I I #
edge $-1 $675 -1.8676341552019871 $444 1.8676341552019871 $597 $680 forward 7 unknown #
point $-1 -50.460864984126957 -25.443612943565711 5.4863688239009836 #
straight-curve $-1 -53.460864984126957 -27.311247098767698 5.4863688239009836 0 -1 0 I I #
plane-surface $-1 0 0 5.4863688239009836 0 0 1 1 0 0 forward_v I I I I #
coedge $-1 $454 $451 $456 $610 reversed $294 $-1 #
coedge $-1 $451 $454 $616 $681 reversed $294 $-1 #
edge $-1 $618 -5.4863688239009836 $612 5.4863688239009836 $468 $682 forward 7 unknown #
edge $-1 $607 -1.8676341552019871 $466 1.8676341552019871 $453 $683 forward 7 unknown #
vertex $-1 $681 $684 #
vertex $-1 $610 $685 #
straight-curve $-1 -53.460864984126957 29.178881253969681 0 0 0 -1 I I #
edge $-1 $608 -1.5 $612 1.5 $603 $686 forward 7 unknown #
straight-curve $-1 -53.460864984126957 27.311247098767694 -5.4863688239009836 0 1 0 I I #
vertex $-1 $458 $687 #
straight-curve $-1 -50.460864984126957 27.311247098767694 -5.4863688239009836 0 -1 0 I I #
point $-1 -53.460864984126957 25.443612943565707 -5.4863688239009836 #
straight-curve $-1 -53.460864984126957 25.443612943565711 0 0 0 -1 I I #
coedge $-1 $464 $463 $604 $681 forward $465 $-1 #
point $-1 -53.460864984126957 25.443612943565707 5.4863688239009836 #
vertex $-1 $469 $688 #
straight-curve $-1 -50.460864984126957 27.311247098767694 5.4863688239009836 0 1 0 I I #
coedge $-1 $483 $482 $475 $621 forward $472 $-1 #
edge $-1 $622 73.666855694492142 $625 78.713422470499523 $620 $689 forward 7 unknown #
vertex $-1 $487 $690 #
straight-curve $-1 14.419582914239406 -21.70834463316174 5.4863688239009889 1 0 0 I I #
edge $-1 $625 -12.504277303298469 $484 -5.9038573564280732 $483 $691 forward 7 unknown #
vertex $-1 $624 $692 #
straight-curve $-1 -36.176083791364491 -21.70834463316174 65.45505166773691 -0.81915203911291934 0 0.57357644374324357 I I #
point $-1 49.468069434066479 -21.70834463316174 5.4863688239009818 #
point $-1 56.675313577684861 -15.107924686291344 0.43980204789360755 #
straight-curve $-1 56.675313577684861 0 5.4863688239009836 0 1 0 I I #
vertex $-1 $490 $693 #
point $-1 52.860174578605282 -19.822510362627341 1.7892845770499162 #
vertex $-1 $494 $694 #
point $-1 52.860174578605282 -16.993758956825744 1.7892845770499162 #
edge $-1 $635 73.666855694492142 $638 78.713422470499523 $499 $695 forward 7 unknown #
vertex $-1 $513 $696 #
straight-curve $-1 14.419582914239406 15.107924686291337 5.4863688239009889 1 0 0 I I #
edge $-1 $638 5.9038573564280696 $510 12.504277303298466 $509 $697 forward 7 unknown #
vertex $-1 $637 $698 #
straight-curve $-1 -36.176083791364491 15.107924686291337 65.45505166773691 -0.81915203911291934 0 0.57357644374324357 I I #
point $-1 49.468069434066479 15.107924686291337 5.4863688239009818 #
point $-1 56.675313577684861 21.708344633161733 0.43980204789360755 #
straight-curve $-1 56.675313577684861 0 5.4863688239009836 0 1 0 I I #
vertex $-1 $516 $699 #
point $-1 52.860174578605282 16.993758956825737 1.7892845770499162 #
vertex $-1 $520 $700 #
point $-1 52.860174578605282 19.822510362627334 1.7892845770499162 #
edge $-1 $648 34.842548586301064 $651 38.411043572984816 $525 $701 forward 7 unknown #
vertex $-1 $539 $702 #
straight-curve $-1 -69.106466008887878 -2.6645352591003757e-015 5.4863688239009818 -1 0 0 I I #
edge $-1 $651 -2.3672238758892901 $536 7.1016716276678746 $535 $703 forward 7 unknown #
vertex $-1 $650 $704 #
straight-curve $-1 -56.675313577684861 -2.6645352591003757e-015 1.917873837217229 0.69465836192734942 0 0.71933980857756763 I I #
point $-1 -53.229258107881961 -2.6645352591003757e-015 5.4863688239009836 #
point $-1 -56.675313577684861 -9.4688955035571674 1.917873837217229 #
straight-curve $-1 -56.675313577684861 0 5.4863688239009836 0 -1 0 I I #
vertex $-1 $542 $705 #
point $-1 -52.302235895120035 -4.7344477517785855 2.5331614792584207 #
edge $-1 $553 -9.4688955035571638 $664 2.6645352591003757e-015 $548 $706 forward 7 unknown #
straight-curve $-1 -56.675313577684861 9.4688955035571638 40.328917410202045 0 0 -1 I I #
straight-curve $-1 -56.675313577684861 9.4688955035571638 1.917873837217229 0.69465836192734942 0 0.71933980857756763 I I #
point $-1 -53.229258107881961 9.4688955035571638 5.4863688239009836 #
point $-1 -56.675313577684861 9.4688955035571638 5.4863688239009836 #
point $-1 -56.675313577684861 9.4688955035571638 1.917873837217229 #
vertex $-1 $561 $707 #
straight-curve $-1 -69.106466008887878 -2.6645352591003757e-015 5.4863688239009818 1 0 0 I I #
straight-curve $-1 -56.675313577684861 -2.6645352591003757e-015 40.328917410202045 0 0 1 I I #
vertex $-1 $564 $708 #
point $-1 -52.302235895120035 4.7344477517785819 2.5331614792584207 #
straight-curve $-1 0 -25.443612943565711 5.4863688239009836 1 0 0 I I #
point $-1 56.675313577684861 -25.443612943565711 5.4863688239009836 #
point $-1 -56.675313577684861 -25.443612943565711 5.4863688239009836 #
straight-curve $-1 -56.675313577684861 0 5.4863688239009836 0 -1 0 I I #
edge $-1 $675 -5.4863688239009836 $593 5.4863688239009836 $585 $709 forward 7 unknown #
straight-curve $-1 -51.960864984126957 -29.178881253969685 -5.4863688239009836 -1 0 0 I I #
vertex $-1 $599 $710 #
straight-curve $-1 -51.960864984126957 -29.178881253969685 5.4863688239009836 1 0 0 I I #
point $-1 -53.460864984126957 -29.178881253969685 5.4863688239009836 #
point $-1 -53.460864984126957 -29.178881253969685 -5.4863688239009836 #
point $-1 -50.460864984126957 -29.178881253969685 -5.4863688239009836 #
straight-curve $-1 -50.460864984126957 -27.311247098767698 5.4863688239009836 0 1 0 I I #
edge $-1 $618 -1.5 $607 1.5 $604 $711 forward 7 unknown #
straight-curve $-1 -50.460864984126957 29.178881253969681 0 0 0 -1 I I #
straight-curve $-1 -53.460864984126957 27.311247098767694 5.4863688239009836 0 -1 0 I I #
point $-1 -53.460864984126957 29.178881253969681 5.4863688239009836 #
point $-1 -53.460864984126957 29.178881253969681 -5.4863688239009836 #
straight-curve $-1 -51.960864984126957 29.178881253969681 -5.4863688239009836 1 0 0 I I #
point $-1 -50.460864984126957 29.178881253969681 -5.4863688239009836 #
point $-1 -50.460864984126957 29.178881253969681 5.4863688239009836 #
straight-curve $-1 56.675313577684861 -21.70834463316174 79.153224518393131 0 0 -1 I I #
point $-1 56.675313577684861 -21.70834463316174 5.4863688239009836 #
straight-curve $-1 56.675313577684861 -9.2040673298632711 0.43980204789361466 0 1 0 I I #
point $-1 56.675313577684861 -21.70834463316174 0.43980204789360755 #
point $-1 52.163810337177203 -19.822510362627341 1.6664967793650785 #
point $-1 52.163810337177203 -16.993758956825744 1.6664967793650785 #
straight-curve $-1 56.675313577684861 15.107924686291337 79.153224518393131 0 0 -1 I I #
point $-1 56.675313577684861 15.107924686291337 5.4863688239009836 #
straight-curve $-1 56.675313577684861 9.2040673298632676 0.43980204789361466 0 1 0 I I #
point $-1 56.675313577684861 15.107924686291337 0.43980204789360755 #
point $-1 52.163810337177203 16.993758956825737 1.6664967793650785 #
point $-1 52.163810337177203 19.822510362627334 1.6664967793650785 #
straight-curve $-1 -56.675313577684861 -2.6645352591003757e-015 40.328917410202045 0 0 -1 I I #
point $-1 -56.675313577684861 -2.6645352591003757e-015 5.4863688239009836 #
straight-curve $-1 -56.675313577684861 -2.3672238758892927 1.9178738372172299 0 -1 0 I I #
point $-1 -56.675313577684861 -2.6645352591003757e-015 1.917873837217229 #
point $-1 -52.277554448469814 -4.7344477517785855 1.1191633087535038 #
straight-curve $-1 -56.675313577684861 0 5.4863688239009836 0 -1 0 I I #
point $-1 -56.675313577684861 -2.6645352591003757e-015 5.4863688239009836 #
point $-1 -52.277554448469814 4.7344477517785819 1.1191633087535038 #
straight-curve $-1 -50.460864984126957 -29.178881253969685 0 0 0 -1 I I #
point $-1 -50.460864984126957 -29.178881253969685 5.4863688239009836 #
straight-curve $-1 -51.960864984126957 29.178881253969681 5.4863688239009836 -1 0 0 I I #
End-of-ACIS-data 