500 0 13 0           
7 Unknown 11 ACIS 5.0 NT 24 Fri Mar 26 20:09:13 1999 
-1 9.9999999999999995e-007 1e-010 
body $-1 $13 $-1 $14 #
body $-1 $15 $-1 $16 #
body $-1 $17 $-1 $18 #
body $-1 $19 $-1 $20 #
body $-1 $21 $-1 $22 #
body $-1 $23 $-1 $24 #
body $-1 $25 $-1 $26 #
body $-1 $27 $-1 $28 #
body $-1 $29 $-1 $30 #
body $-1 $31 $-1 $32 #
body $-1 $33 $-1 $34 #
body $-1 $35 $-1 $36 #
body $-1 $37 $-1 $38 #
lump $-1 $-1 $39 $0 #
transform $-1 1 0 0 0 1 0 0 0 1 57.847224341563155 37.866125375522742 14.322494725765365 1 rotate no_reflect no_shear #
lump $-1 $-1 $40 $1 #
transform $-1 1 0 0 0 1 0 0 0 1 57.847224341563155 37.866125375522742 14.322494725765365 1 rotate no_reflect no_shear #
lump $-1 $-1 $41 $2 #
transform $-1 1 0 0 0 1 0 0 0 1 57.847224341563155 37.866125375522742 14.322494725765365 1 rotate no_reflect no_shear #
lump $-1 $-1 $42 $3 #
transform $-1 1 0 0 0 1 0 0 0 1 57.847224341563155 37.866125375522742 14.322494725765365 1 rotate no_reflect no_shear #
lump $-1 $-1 $43 $4 #
transform $-1 1 0 0 0 1 0 0 0 1 57.847224341563155 37.866125375522742 14.322494725765365 1 rotate no_reflect no_shear #
lump $-1 $-1 $44 $5 #
transform $-1 1 0 0 0 1 0 0 0 1 57.847224341563155 37.866125375522742 14.322494725765365 1 rotate no_reflect no_shear #
lump $-1 $-1 $45 $6 #
transform $-1 1 0 0 0 1 0 0 0 1 57.847224341563155 37.866125375522742 14.322494725765365 1 rotate no_reflect no_shear #
lump $-1 $-1 $46 $7 #
transform $-1 1 0 0 0 1 0 0 0 1 57.847224341563155 37.866125375522742 14.322494725765365 1 rotate no_reflect no_shear #
lump $-1 $-1 $47 $8 #
transform $-1 1 0 0 0 1 0 0 0 1 57.847224341563155 37.866125375522742 14.322494725765365 1 rotate no_reflect no_shear #
lump $-1 $-1 $48 $9 #
transform $-1 1 0 0 0 1 0 0 0 1 57.847224341563155 37.866125375522742 14.322494725765365 1 rotate no_reflect no_shear #
lump $-1 $-1 $49 $10 #
transform $-1 1 0 0 0 1 0 0 0 1 57.847224341563155 37.866125375522742 14.322494725765365 1 rotate no_reflect no_shear #
lump $-1 $-1 $50 $11 #
transform $-1 1 0 0 0 1 0 0 0 1 57.847224341563155 37.866125375522742 14.322494725765365 1 rotate no_reflect no_shear #
lump $-1 $-1 $51 $12 #
transform $-1 1 0 0 0 1 0 0 0 1 57.847224341563155 37.866125375522742 14.322494725765365 1 rotate no_reflect no_shear #
shell $-1 $-1 $-1 $52 $-1 $13 #
shell $-1 $-1 $-1 $53 $-1 $15 #
shell $-1 $-1 $-1 $54 $-1 $17 #
shell $-1 $-1 $-1 $55 $-1 $19 #
shell $-1 $-1 $-1 $56 $-1 $21 #
shell $-1 $-1 $-1 $57 $-1 $23 #
shell $-1 $-1 $-1 $58 $-1 $25 #
shell $-1 $-1 $-1 $59 $-1 $27 #
shell $-1 $-1 $-1 $60 $-1 $29 #
shell $-1 $-1 $-1 $61 $-1 $31 #
shell $-1 $-1 $-1 $62 $-1 $33 #
shell $-1 $-1 $-1 $63 $-1 $35 #
shell $-1 $-1 $-1 $64 $-1 $37 #
face $-1 $65 $66 $39 $-1 $67 forward single #
face $-1 $68 $69 $40 $-1 $70 forward single #
face $-1 $71 $72 $41 $-1 $73 forward single #
face $-1 $74 $75 $42 $-1 $76 reversed single #
face $-1 $77 $78 $43 $-1 $79 forward single #
face $-1 $80 $81 $44 $-1 $82 reversed single #
face $-1 $83 $84 $45 $-1 $85 forward single #
face $-1 $86 $87 $46 $-1 $88 reversed single #
face $-1 $89 $90 $47 $-1 $91 forward single #
face $-1 $92 $93 $48 $-1 $94 reversed single #
face $-1 $95 $96 $49 $-1 $97 forward single #
face $-1 $98 $99 $50 $-1 $100 reversed single #
face $-1 $101 $102 $51 $-1 $103 forward single #
face $-1 $104 $105 $39 $-1 $106 reversed single #
loop $-1 $-1 $107 $52 #
plane-surface $-1 0 0 14.322494725765365 0 0 1 1 0 0 forward_v I I I I #
face $-1 $108 $109 $40 $-1 $110 reversed single #
loop $-1 $-1 $111 $53 #
plane-surface $-1 -57.847224341563155 0 0 1 0 0 0 0 -1 forward_v I I I I #
face $-1 $112 $113 $41 $-1 $114 reversed single #
loop $-1 $-1 $115 $54 #
plane-surface $-1 57.847224341563155 0 0 -1 0 0 0 0 1 forward_v I I I I #
face $-1 $116 $117 $42 $-1 $118 reversed single #
loop $-1 $-1 $119 $55 #
plane-surface $-1 -24.830323026982516 -102.56164089091446 105.01015171198131 -1 0 0 0 -0.55919291073839883 0.82903756765294845 forward_v I I I I #
face $-1 $120 $121 $43 $-1 $122 forward single #
loop $-1 $123 $124 $56 #
cone-surface $-1 -34.12963314389139 -32.193972766431372 9.0443537073421449 0 0.55919291073839883 -0.82903756765294845 2 0 0 1 I I 0 1 2 forward I I I I #
face $-1 $125 $126 $44 $-1 $127 reversed single #
loop $-1 $-1 $128 $57 #
plane-surface $-1 -38.223593214790995 51.819989623216102 145.24831106004524 1 0 0 0 -0.62932039886446345 -0.77714595512881146 forward_v I I I I #
face $-1 $129 $130 $45 $-1 $131 forward single #
loop $-1 $132 $133 $58 #
cone-surface $-1 -33.458530116710286 33.091576634510687 10.170767091604056 0 -0.62932039886446345 -0.77714595512881146 1.5 0 0 1 I I 0 1 1.5 forward I I I I #
face $-1 $134 $135 $46 $-1 $136 reversed single #
loop $-1 $-1 $137 $59 #
plane-surface $-1 -16.509121584390869 51.819989623216102 145.24831106004524 1 0 0 0 -0.62932039886446345 -0.77714595512881146 forward_v I I I I #
face $-1 $138 $139 $47 $-1 $140 forward single #
loop $-1 $141 $142 $60 #
cone-surface $-1 -11.744058486310159 33.091576634510687 10.170767091604056 0 -0.62932039886446345 -0.77714595512881146 1.5 0 0 1 I I 0 1 1.5 forward I I I I #
face $-1 $143 $144 $48 $-1 $145 reversed single #
loop $-1 $-1 $146 $61 #
plane-surface $-1 5.2053500460092579 51.819989623216102 145.24831106004524 1 0 0 0 -0.62932039886446345 -0.77714595512881146 forward_v I I I I #
face $-1 $147 $148 $49 $-1 $149 forward single #
loop $-1 $150 $151 $62 #
cone-surface $-1 9.9704131440899673 33.091576634510687 10.170767091604056 0 -0.62932039886446345 -0.77714595512881146 1.5 0 0 1 I I 0 1 1.5 forward I I I I #
face $-1 $152 $153 $50 $-1 $154 reversed single #
loop $-1 $-1 $155 $63 #
plane-surface $-1 26.919821676409384 51.819989623216102 145.24831106004524 1 0 0 0 -0.62932039886446345 -0.77714595512881146 forward_v I I I I #
face $-1 $156 $157 $51 $-1 $158 forward single #
loop $-1 $159 $160 $64 #
cone-surface $-1 31.684884774490094 33.091576634510687 10.170767091604056 0 -0.62932039886446345 -0.77714595512881146 1.5 0 0 1 I I 0 1 1.5 forward I I I I #
face $-1 $161 $162 $39 $-1 $163 reversed single #
loop $-1 $-1 $164 $65 #
plane-surface $-1 0 0 -14.322494725765365 0 0 1 1 0 0 forward_v I I I I #
coedge $-1 $165 $166 $167 $168 forward $66 $-1 #
face $-1 $169 $170 $40 $-1 $171 forward single #
loop $-1 $-1 $172 $68 #
plane-surface $-1 0 37.866125375522742 0 0 -1 0 0 0 -1 forward_v I I I I #
coedge $-1 $173 $174 $175 $176 forward $69 $-1 #
face $-1 $177 $178 $41 $-1 $179 forward single #
loop $-1 $-1 $180 $71 #
plane-surface $-1 0 -37.866125375522742 0 0 1 0 0 0 1 forward_v I I I I #
coedge $-1 $181 $182 $183 $184 forward $72 $-1 #
face $-1 $185 $186 $42 $-1 $187 reversed single #
loop $-1 $-1 $188 $74 #
plane-surface $-1 -34.129633143891382 -37.866125375522742 9.0951073847734136 0 -0.55919291073839883 0.82903756765294845 1 0 0 forward_v I I I I #
coedge $-1 $189 $190 $191 $192 reversed $75 $-1 #
face $-1 $-1 $193 $43 $-1 $194 forward single #
loop $-1 $195 $196 $77 #
cone-surface $-1 -34.12963314389139 -29.837587392853507 5.5508687917619515 0 0.55919291073839883 -0.82903756765294845 1 0 0 1 I I -0.70710678118654724 0.70710678118654791 1 forward I I I I #
loop $-1 $-1 $197 $56 #
coedge $-1 $124 $124 $198 $199 reversed $78 $-1 #
face $-1 $200 $201 $44 $-1 $202 reversed single #
loop $-1 $-1 $203 $80 #
plane-surface $-1 -33.458530116710286 -20.988886968453144 55.336838235095783 0 0.62932039886446345 0.77714595512881146 1 0 0 forward_v I I I I #
coedge $-1 $204 $205 $206 $207 reversed $81 $-1 #
face $-1 $-1 $208 $45 $-1 $209 forward single #
loop $-1 $210 $211 $83 #
cone-surface $-1 -33.458530116710286 31.948296198602478 8.7589333612066955 0 -0.62932039886446345 -0.77714595512881146 0.75 0 0 1 I I -0.70710678118654757 0.70710678118654757 0.75 forward I I I I #
loop $-1 $-1 $212 $58 #
coedge $-1 $133 $133 $213 $214 reversed $84 $-1 #
face $-1 $215 $216 $46 $-1 $217 reversed single #
loop $-1 $-1 $218 $86 #
plane-surface $-1 -11.744058486310159 -20.988886968453144 55.336838235095783 0 0.62932039886446345 0.77714595512881146 1 0 0 forward_v I I I I #
coedge $-1 $219 $220 $221 $222 reversed $87 $-1 #
face $-1 $-1 $223 $47 $-1 $224 forward single #
loop $-1 $225 $226 $89 #
cone-surface $-1 -11.744058486310159 31.948296198602478 8.7589333612066955 0 -0.62932039886446345 -0.77714595512881146 0.75 0 0 1 I I -0.70710678118654757 0.70710678118654757 0.75 forward I I I I #
loop $-1 $-1 $227 $60 #
coedge $-1 $142 $142 $228 $229 reversed $90 $-1 #
face $-1 $230 $231 $48 $-1 $232 reversed single #
loop $-1 $-1 $233 $92 #
plane-surface $-1 9.9704131440899673 -20.988886968453144 55.336838235095783 0 0.62932039886446345 0.77714595512881146 1 0 0 forward_v I I I I #
coedge $-1 $234 $235 $236 $237 reversed $93 $-1 #
face $-1 $-1 $238 $49 $-1 $239 forward single #
loop $-1 $240 $241 $95 #
cone-surface $-1 9.9704131440899673 31.948296198602478 8.7589333612066955 0 -0.62932039886446345 -0.77714595512881146 0.75 0 0 1 I I -0.70710678118654757 0.70710678118654757 0.75 forward I I I I #
loop $-1 $-1 $242 $62 #
coedge $-1 $151 $151 $243 $244 reversed $96 $-1 #
face $-1 $245 $246 $50 $-1 $247 reversed single #
loop $-1 $-1 $248 $98 #
plane-surface $-1 31.684884774490094 -20.988886968453144 55.336838235095783 0 0.62932039886446345 0.77714595512881146 1 0 0 forward_v I I I I #
coedge $-1 $249 $250 $251 $252 reversed $99 $-1 #
face $-1 $-1 $253 $51 $-1 $254 forward single #
loop $-1 $255 $256 $101 #
cone-surface $-1 31.684884774490094 31.948296198602478 8.7589333612066955 0 -0.62932039886446345 -0.77714595512881146 0.75 0 0 1 I I -0.70710678118654757 0.70710678118654757 0.75 forward I I I I #
loop $-1 $-1 $257 $64 #
coedge $-1 $160 $160 $258 $259 reversed $102 $-1 #
face $-1 $260 $261 $39 $-1 $262 reversed single #
loop $-1 $-1 $263 $104 #
plane-surface $-1 0 -37.866125375522742 0 0 1 0 0 0 1 forward_v I I I I #
coedge $-1 $264 $265 $266 $267 forward $105 $-1 #
coedge $-1 $268 $107 $269 $270 forward $66 $-1 #
coedge $-1 $107 $268 $271 $272 forward $66 $-1 #
coedge $-1 $273 $274 $107 $168 reversed $275 $-1 #
edge $-1 $276 -37.866125375522742 $277 37.866125375522742 $167 $278 forward 7 unknown #
face $-1 $279 $280 $40 $-1 $281 reversed single #
loop $-1 $-1 $175 $108 #
plane-surface $-1 -65.056364881944603 0 3.7223400454455682 0 0 1 1 0 0 forward_v I I I I #
coedge $-1 $282 $283 $174 $284 forward $109 $-1 #
coedge $-1 $285 $111 $286 $287 reversed $69 $-1 #
coedge $-1 $111 $285 $172 $284 reversed $69 $-1 #
coedge $-1 $288 $289 $111 $176 reversed $170 $-1 #
edge $-1 $290 -37.866125375522742 $291 37.866125375522742 $175 $292 forward 7 unknown #
face $-1 $293 $294 $41 $-1 $295 reversed single #
loop $-1 $-1 $296 $112 #
plane-surface $-1 65.056364881944603 0 3.7223400454455682 0 0 1 1 0 0 forward_v I I I I #
coedge $-1 $297 $298 $182 $299 forward $113 $-1 #
coedge $-1 $300 $115 $301 $302 reversed $72 $-1 #
coedge $-1 $115 $300 $180 $299 reversed $72 $-1 #
coedge $-1 $303 $304 $115 $184 reversed $178 $-1 #
edge $-1 $305 -37.866125375522742 $306 37.866125375522742 $183 $307 forward 7 unknown #
face $-1 $308 $309 $42 $-1 $310 forward single #
loop $-1 $-1 $311 $116 #
plane-surface $-1 -43.428943260800253 -102.56164089091446 105.01015171198131 1 0 0 0 0.55919291073839883 -0.82903756765294845 forward_v I I I I #
coedge $-1 $312 $313 $314 $315 reversed $117 $-1 #
coedge $-1 $190 $119 $316 $317 reversed $75 $-1 #
coedge $-1 $119 $189 $312 $318 reversed $75 $-1 #
coedge $-1 $314 $319 $119 $192 forward $309 $-1 #
edge $-1 $320 13.414695069934488 $321 21.164615362438283 $191 $322 forward 7 unknown #
loop $-1 $-1 $198 $120 #
plane-surface $-1 -34.129633143891382 -37.866125375522742 9.0951073847734136 0 -0.55919291073839883 0.82903756765294845 1 0 0 forward_v I I I I #
loop $-1 $-1 $323 $77 #
coedge $-1 $196 $196 $197 $324 reversed $121 $-1 #
coedge $-1 $197 $197 $196 $324 forward $123 $-1 #
coedge $-1 $198 $198 $124 $199 forward $193 $-1 #
edge $-1 $325 -1.4899892273014328e-015 $325 6.2831853071795987 $198 $326 forward 7 unknown #
face $-1 $327 $328 $44 $-1 $329 reversed single #
loop $-1 $-1 $330 $125 #
plane-surface $-1 -28.693467018629576 51.819989623216102 145.24831106004524 -1 0 0 0 0.62932039886446345 0.77714595512881146 forward_v I I I I #
coedge $-1 $331 $332 $333 $334 reversed $126 $-1 #
coedge $-1 $205 $128 $335 $336 reversed $81 $-1 #
coedge $-1 $128 $204 $331 $337 reversed $81 $-1 #
coedge $-1 $333 $338 $128 $207 forward $339 $-1 #
edge $-1 $340 -11.956130563914691 $341 -3.7496133554102968 $206 $342 forward 7 unknown #
loop $-1 $-1 $213 $129 #
plane-surface $-1 -33.458530116710286 -20.988886968453144 55.336838235095783 0 0.62932039886446345 0.77714595512881146 1 0 0 forward_v I I I I #
loop $-1 $-1 $343 $83 #
coedge $-1 $211 $211 $212 $344 reversed $130 $-1 #
coedge $-1 $212 $212 $211 $344 forward $132 $-1 #
coedge $-1 $213 $213 $133 $214 forward $208 $-1 #
edge $-1 $345 2.2357951893939669e-015 $345 6.2831853071796031 $213 $346 forward 7 unknown #
face $-1 $347 $348 $46 $-1 $349 forward single #
loop $-1 $-1 $350 $134 #
plane-surface $-1 -6.9789953882294498 51.819989623216102 145.24831106004524 -1 0 0 0 0.62932039886446345 0.77714595512881146 forward_v I I I I #
coedge $-1 $351 $352 $353 $354 reversed $135 $-1 #
coedge $-1 $220 $137 $355 $356 reversed $87 $-1 #
coedge $-1 $137 $219 $351 $357 reversed $87 $-1 #
coedge $-1 $353 $358 $137 $222 forward $348 $-1 #
edge $-1 $359 -11.956130563914691 $360 -3.7496133554102968 $221 $361 forward 7 unknown #
loop $-1 $-1 $228 $138 #
plane-surface $-1 -11.744058486310159 -20.988886968453144 55.336838235095783 0 0.62932039886446345 0.77714595512881146 1 0 0 forward_v I I I I #
loop $-1 $-1 $362 $89 #
coedge $-1 $226 $226 $227 $363 reversed $139 $-1 #
coedge $-1 $227 $227 $226 $363 forward $141 $-1 #
coedge $-1 $228 $228 $142 $229 forward $223 $-1 #
edge $-1 $364 2.2357951893939669e-015 $364 6.2831853071796031 $228 $365 forward 7 unknown #
face $-1 $366 $367 $48 $-1 $368 forward single #
loop $-1 $-1 $369 $143 #
plane-surface $-1 14.735476242170677 51.819989623216102 145.24831106004524 -1 0 0 0 0.62932039886446345 0.77714595512881146 forward_v I I I I #
coedge $-1 $370 $371 $372 $373 reversed $144 $-1 #
coedge $-1 $235 $146 $374 $375 reversed $93 $-1 #
coedge $-1 $146 $234 $370 $376 reversed $93 $-1 #
coedge $-1 $372 $377 $146 $237 forward $367 $-1 #
edge $-1 $378 -11.956130563914691 $379 -3.7496133554102968 $236 $380 forward 7 unknown #
loop $-1 $-1 $243 $147 #
plane-surface $-1 9.9704131440899673 -20.988886968453144 55.336838235095783 0 0.62932039886446345 0.77714595512881146 1 0 0 forward_v I I I I #
loop $-1 $-1 $381 $95 #
coedge $-1 $241 $241 $242 $382 reversed $148 $-1 #
coedge $-1 $242 $242 $241 $382 forward $150 $-1 #
coedge $-1 $243 $243 $151 $244 forward $238 $-1 #
edge $-1 $383 2.2357951893939669e-015 $383 6.2831853071796031 $243 $384 forward 7 unknown #
face $-1 $385 $386 $50 $-1 $387 forward single #
loop $-1 $-1 $388 $152 #
plane-surface $-1 36.449947872570803 51.819989623216102 145.24831106004524 -1 0 0 0 0.62932039886446345 0.77714595512881146 forward_v I I I I #
coedge $-1 $389 $390 $391 $392 reversed $153 $-1 #
coedge $-1 $250 $155 $393 $394 reversed $99 $-1 #
coedge $-1 $155 $249 $389 $395 reversed $99 $-1 #
coedge $-1 $391 $396 $155 $252 forward $386 $-1 #
edge $-1 $397 -11.956130563914691 $398 -3.7496133554102968 $251 $399 forward 7 unknown #
loop $-1 $-1 $258 $156 #
plane-surface $-1 31.684884774490094 -20.988886968453144 55.336838235095783 0 0.62932039886446345 0.77714595512881146 1 0 0 forward_v I I I I #
loop $-1 $-1 $400 $101 #
coedge $-1 $256 $256 $257 $401 reversed $157 $-1 #
coedge $-1 $257 $257 $256 $401 forward $159 $-1 #
coedge $-1 $258 $258 $160 $259 forward $253 $-1 #
edge $-1 $402 2.2357951893939669e-015 $402 6.2831853071796031 $258 $403 forward 7 unknown #
face $-1 $404 $405 $39 $-1 $406 reversed single #
loop $-1 $-1 $407 $161 #
plane-surface $-1 -57.847224341563155 0 0 1 0 0 0 0 -1 forward_v I I I I #
coedge $-1 $408 $271 $409 $410 forward $162 $-1 #
coedge $-1 $411 $164 $408 $412 forward $105 $-1 #
coedge $-1 $164 $411 $413 $414 forward $105 $-1 #
coedge $-1 $274 $273 $164 $267 reversed $275 $-1 #
edge $-1 $415 -37.866125375522742 $416 37.866125375522742 $266 $417 forward 7 unknown #
coedge $-1 $166 $165 $418 $419 forward $66 $-1 #
coedge $-1 $420 $421 $165 $270 reversed $405 $-1 #
edge $-1 $277 -57.847224341563155 $422 57.847224341563155 $269 $423 forward 7 unknown #
coedge $-1 $263 $424 $166 $272 reversed $162 $-1 #
edge $-1 $425 -57.847224341563155 $276 57.847224341563155 $271 $426 forward 7 unknown #
coedge $-1 $266 $167 $424 $427 forward $275 $-1 #
coedge $-1 $167 $266 $420 $428 reversed $275 $-1 #
loop $-1 $-1 $273 $404 #
vertex $-1 $168 $429 #
vertex $-1 $168 $430 #
straight-curve $-1 57.847224341563155 0 14.322494725765365 0 1 0 I I #
face $-1 $431 $432 $40 $-1 $433 reversed single #
loop $-1 $-1 $434 $169 #
plane-surface $-1 -65.056364881944603 0 -2.2046646843872875 0 0 1 1 0 0 forward_v I I I I #
coedge $-1 $435 $172 $436 $437 reversed $109 $-1 #
coedge $-1 $172 $435 $288 $438 reversed $109 $-1 #
edge $-1 $290 -3.7223400454455682 $439 2.2046646843872875 $172 $440 forward 7 unknown #
coedge $-1 $174 $173 $434 $441 forward $69 $-1 #
coedge $-1 $442 $443 $173 $287 forward $444 $-1 #
edge $-1 $445 -2.2046646843872875 $291 3.7223400454455682 $286 $446 forward 7 unknown #
coedge $-1 $447 $175 $283 $438 forward $170 $-1 #
coedge $-1 $175 $447 $442 $448 forward $170 $-1 #
vertex $-1 $284 $449 #
vertex $-1 $448 $450 #
straight-curve $-1 -57.847224341563155 0 3.7223400454455682 0 -1 0 I I #
face $-1 $451 $452 $41 $-1 $453 reversed single #
loop $-1 $-1 $454 $177 #
plane-surface $-1 65.056364881944603 0 -2.2046646843872875 0 0 1 1 0 0 forward_v I I I I #
coedge $-1 $304 $303 $455 $456 forward $178 $-1 #
coedge $-1 $457 $180 $458 $459 reversed $113 $-1 #
coedge $-1 $180 $457 $303 $460 reversed $113 $-1 #
edge $-1 $305 -3.7223400454455682 $461 2.2046646843872875 $180 $462 forward 7 unknown #
coedge $-1 $182 $181 $463 $464 forward $72 $-1 #
coedge $-1 $465 $466 $181 $302 forward $467 $-1 #
edge $-1 $468 -2.2046646843872875 $306 3.7223400454455682 $301 $469 forward 7 unknown #
coedge $-1 $296 $183 $298 $460 forward $178 $-1 #
coedge $-1 $183 $296 $465 $470 forward $178 $-1 #
vertex $-1 $299 $471 #
vertex $-1 $470 $472 #
straight-curve $-1 57.847224341563155 0 3.7223400454455682 0 1 0 I I #
face $-1 $-1 $473 $42 $-1 $474 reversed single #
loop $-1 $-1 $191 $185 #
plane-surface $-1 0 0 14.322494725765365 0 0 1 1 0 0 forward_v I I I I #
coedge $-1 $475 $476 $477 $478 reversed $186 $-1 #
coedge $-1 $479 $188 $190 $318 forward $117 $-1 #
coedge $-1 $188 $479 $475 $480 forward $117 $-1 #
coedge $-1 $477 $191 $188 $315 forward $309 $-1 #
edge $-1 $321 7.7655064550368245 $481 26.364126688854562 $314 $482 forward 7 unknown #
coedge $-1 $483 $484 $189 $317 forward $473 $-1 #
edge $-1 $485 -43.40996847121724 $320 -38.182581130225287 $316 $486 forward 7 unknown #
edge $-1 $321 -9.3480930115679222 $485 0 $190 $487 forward 7 unknown #
coedge $-1 $191 $477 $483 $488 forward $309 $-1 #
vertex $-1 $317 $489 #
vertex $-1 $192 $490 #
straight-curve $-1 -24.830323026982516 -51.280820445457231 14.322494725765367 0 1 0 I I #
coedge $-1 $323 $323 $-1 $491 reversed $195 $-1 #
edge $-1 $492 0 $492 6.2831853071796004 $196 $493 forward 7 unknown #
vertex $-1 $199 $494 #
ellipse-curve $-1 -34.12963314389139 -33.991165229270841 11.708801055269392 0 -0.55919291073839883 0.82903756765294845 2 0 0 1 I I #
face $-1 $-1 $339 $44 $-1 $495 forward single #
loop $-1 $-1 $496 $200 #
plane-surface $-1 0 37.866125375522742 0 0 -1 0 0 0 -1 forward_v I I I I #
coedge $-1 $497 $498 $499 $500 reversed $201 $-1 #
coedge $-1 $501 $203 $205 $337 forward $126 $-1 #
coedge $-1 $203 $501 $497 $502 forward $126 $-1 #
coedge $-1 $499 $206 $203 $334 forward $339 $-1 #
edge $-1 $341 -21.494328156435852 $503 -11.964201960274433 $333 $504 forward 7 unknown #
coedge $-1 $505 $506 $204 $336 forward $328 $-1 #
edge $-1 $507 -64.947167544478333 $340 -58.301660804257253 $335 $508 forward 7 unknown #
edge $-1 $341 65.172436144348893 $507 75.732250751045484 $205 $509 forward 7 unknown #
coedge $-1 $206 $499 $505 $510 forward $339 $-1 #
loop $-1 $-1 $499 $327 #
vertex $-1 $336 $511 #
vertex $-1 $207 $512 #
straight-curve $-1 -38.223593214790995 25.909994811608051 14.322494725765367 0 -1 0 I I #
coedge $-1 $343 $343 $-1 $513 reversed $210 $-1 #
edge $-1 $514 0 $514 6.2831853071796004 $211 $515 forward 7 unknown #
vertex $-1 $214 $516 #
ellipse-curve $-1 -33.458530116710286 33.762866771270552 10.999741355654812 0 0.62932039886446345 0.77714595512881146 1.5 0 0 1 I I #
face $-1 $-1 $517 $46 $-1 $518 reversed single #
loop $-1 $-1 $221 $215 #
plane-surface $-1 0 0 14.322494725765365 0 0 1 1 0 0 forward_v I I I I #
coedge $-1 $519 $520 $521 $522 reversed $216 $-1 #
coedge $-1 $523 $218 $220 $357 forward $135 $-1 #
coedge $-1 $218 $523 $519 $524 forward $135 $-1 #
coedge $-1 $521 $221 $218 $354 forward $348 $-1 #
edge $-1 $360 -10.637092341235789 $525 -1.1069661450743702 $353 $526 forward 7 unknown #
coedge $-1 $527 $528 $219 $356 forward $517 $-1 #
edge $-1 $529 -64.947167544478333 $359 -58.301660804257253 $355 $530 forward 7 unknown #
edge $-1 $360 65.172436144348893 $529 75.732250751045484 $220 $531 forward 7 unknown #
coedge $-1 $221 $521 $527 $532 forward $348 $-1 #
vertex $-1 $222 $533 #
vertex $-1 $222 $534 #
straight-curve $-1 -16.509121584390869 25.909994811608051 14.322494725765367 0 -1 0 I I #
coedge $-1 $362 $362 $-1 $535 reversed $225 $-1 #
edge $-1 $536 0 $536 6.2831853071796004 $226 $537 forward 7 unknown #
vertex $-1 $229 $538 #
ellipse-curve $-1 -11.744058486310159 33.762866771270552 10.999741355654812 0 0.62932039886446345 0.77714595512881146 1.5 0 0 1 I I #
face $-1 $-1 $539 $48 $-1 $540 reversed single #
loop $-1 $-1 $236 $230 #
plane-surface $-1 0 0 14.322494725765365 0 0 1 1 0 0 forward_v I I I I #
coedge $-1 $541 $542 $543 $544 reversed $231 $-1 #
coedge $-1 $545 $233 $235 $376 forward $144 $-1 #
coedge $-1 $233 $545 $541 $546 forward $144 $-1 #
coedge $-1 $543 $236 $233 $373 forward $367 $-1 #
edge $-1 $379 0.22014347396427425 $547 9.750269670125693 $372 $548 forward 7 unknown #
coedge $-1 $549 $550 $234 $375 forward $539 $-1 #
edge $-1 $551 -64.947167544478333 $378 -58.301660804257253 $374 $552 forward 7 unknown #
edge $-1 $379 65.172436144348893 $551 75.732250751045484 $235 $553 forward 7 unknown #
coedge $-1 $236 $543 $549 $554 forward $367 $-1 #
vertex $-1 $237 $555 #
vertex $-1 $237 $556 #
straight-curve $-1 5.2053500460092579 25.909994811608051 14.322494725765367 0 -1 0 I I #
coedge $-1 $381 $381 $-1 $557 reversed $240 $-1 #
edge $-1 $558 0 $558 6.2831853071796004 $241 $559 forward 7 unknown #
vertex $-1 $244 $560 #
ellipse-curve $-1 9.9704131440899673 33.762866771270552 10.999741355654812 0 0.62932039886446345 0.77714595512881146 1.5 0 0 1 I I #
face $-1 $-1 $561 $50 $-1 $562 reversed single #
loop $-1 $-1 $251 $245 #
plane-surface $-1 0 0 14.322494725765365 0 0 1 1 0 0 forward_v I I I I #
coedge $-1 $563 $564 $565 $566 reversed $246 $-1 #
coedge $-1 $567 $248 $250 $395 forward $153 $-1 #
coedge $-1 $248 $567 $563 $568 forward $153 $-1 #
coedge $-1 $565 $251 $248 $392 forward $386 $-1 #
edge $-1 $398 11.077379289164337 $569 20.607505485325756 $391 $570 forward 7 unknown #
coedge $-1 $571 $572 $249 $394 forward $561 $-1 #
edge $-1 $573 -64.947167544478333 $397 -58.301660804257253 $393 $574 forward 7 unknown #
edge $-1 $398 65.172436144348893 $573 75.732250751045484 $250 $575 forward 7 unknown #
coedge $-1 $251 $565 $571 $576 forward $386 $-1 #
vertex $-1 $252 $577 #
vertex $-1 $252 $578 #
straight-curve $-1 26.919821676409384 25.909994811608051 14.322494725765367 0 -1 0 I I #
coedge $-1 $400 $400 $-1 $579 reversed $255 $-1 #
edge $-1 $580 0 $580 6.2831853071796004 $256 $581 forward 7 unknown #
vertex $-1 $259 $582 #
ellipse-curve $-1 31.684884774490094 33.762866771270552 10.999741355654812 0 0.62932039886446345 0.77714595512881146 1.5 0 0 1 I I #
face $-1 $-1 $275 $39 $-1 $583 reversed single #
loop $-1 $-1 $420 $260 #
plane-surface $-1 0 37.866125375522742 0 0 -1 0 0 0 -1 forward_v I I I I #
coedge $-1 $584 $418 $421 $585 forward $261 $-1 #
coedge $-1 $424 $263 $264 $412 reversed $162 $-1 #
coedge $-1 $418 $584 $263 $410 reversed $261 $-1 #
edge $-1 $425 -14.322494725765365 $586 14.322494725765365 $409 $587 forward 7 unknown #
coedge $-1 $265 $264 $584 $588 forward $105 $-1 #
edge $-1 $416 -57.847224341563155 $586 57.847224341563155 $408 $589 forward 7 unknown #
coedge $-1 $421 $420 $265 $414 reversed $405 $-1 #
edge $-1 $590 -57.847224341563155 $415 57.847224341563155 $413 $591 forward 7 unknown #
vertex $-1 $267 $592 #
vertex $-1 $427 $593 #
straight-curve $-1 57.847224341563155 0 -14.322494725765365 0 -1 0 I I #
coedge $-1 $407 $409 $268 $419 reversed $261 $-1 #
edge $-1 $422 -37.866125375522742 $425 37.866125375522742 $418 $594 forward 7 unknown #
coedge $-1 $413 $269 $274 $428 forward $405 $-1 #
coedge $-1 $269 $413 $407 $585 reversed $405 $-1 #
vertex $-1 $270 $595 #
straight-curve $-1 0 37.866125375522742 14.322494725765365 -1 0 0 I I #
coedge $-1 $271 $408 $273 $427 reversed $162 $-1 #
vertex $-1 $419 $596 #
straight-curve $-1 0 -37.866125375522742 14.322494725765365 1 0 0 I I #
edge $-1 $276 -14.322494725765365 $416 14.322494725765365 $273 $597 forward 7 unknown #
edge $-1 $277 -14.322494725765365 $415 14.322494725765365 $274 $598 forward 7 unknown #
point $-1 57.847224341563155 -37.866125375522742 14.322494725765365 #
point $-1 57.847224341563155 37.866125375522742 14.322494725765365 #
face $-1 $-1 $444 $40 $-1 $599 reversed single #
loop $-1 $-1 $600 $279 #
plane-surface $-1 -72.265505422326058 0 0.75883768052914036 1 0 0 0 0 -1 forward_v I I I I #
coedge $-1 $601 $436 $285 $441 reversed $280 $-1 #
coedge $-1 $283 $282 $600 $602 reversed $109 $-1 #
coedge $-1 $434 $603 $282 $437 forward $280 $-1 #
edge $-1 $604 -7.2091405403814548 $439 7.2091405403814548 $282 $605 forward 7 unknown #
edge $-1 $290 -7.2091405403814548 $606 7.2091405403814548 $283 $607 forward 7 unknown #
vertex $-1 $284 $608 #
straight-curve $-1 -57.847224341563155 37.866125375522742 0 0 0 -1 I I #
edge $-1 $445 -37.866125375522742 $439 37.866125375522742 $434 $609 forward 7 unknown #
coedge $-1 $610 $286 $289 $448 reversed $444 $-1 #
coedge $-1 $286 $610 $601 $611 reversed $444 $-1 #
loop $-1 $-1 $286 $431 #
vertex $-1 $287 $612 #
straight-curve $-1 -57.847224341563155 -37.866125375522742 0 0 0 1 I I #
coedge $-1 $289 $288 $613 $614 forward $170 $-1 #
edge $-1 $615 -7.2091405403814548 $291 7.2091405403814548 $442 $616 forward 7 unknown #
point $-1 -57.847224341563148 37.866125375522742 3.7223400454455682 #
point $-1 -57.847224341563148 -37.866125375522742 3.7223400454455682 #
face $-1 $-1 $467 $41 $-1 $617 reversed single #
loop $-1 $-1 $618 $293 #
plane-surface $-1 72.265505422326044 0 0.75883768052914036 -1 0 0 0 0 1 forward_v I I I I #
coedge $-1 $458 $619 $620 $621 forward $294 $-1 #
coedge $-1 $618 $622 $296 $456 reversed $452 $-1 #
edge $-1 $623 -37.866125375522742 $624 37.866125375522742 $455 $625 forward 7 unknown #
coedge $-1 $298 $297 $618 $626 reversed $113 $-1 #
coedge $-1 $463 $454 $297 $459 forward $294 $-1 #
edge $-1 $627 -7.2091405403814406 $461 7.2091405403814477 $297 $628 forward 7 unknown #
edge $-1 $305 -7.2091405403814477 $623 7.2091405403814406 $298 $629 forward 7 unknown #
vertex $-1 $299 $630 #
straight-curve $-1 57.847224341563155 -37.866125375522742 0 0 0 -1 I I #
coedge $-1 $619 $458 $300 $464 reversed $294 $-1 #
edge $-1 $468 -37.866125375522742 $461 37.866125375522742 $463 $631 forward 7 unknown #
coedge $-1 $632 $301 $304 $470 reversed $467 $-1 #
coedge $-1 $301 $632 $619 $633 reversed $467 $-1 #
loop $-1 $-1 $301 $451 #
vertex $-1 $302 $634 #
straight-curve $-1 57.847224341563155 37.866125375522742 0 0 0 1 I I #
edge $-1 $624 -7.2091405403814406 $306 7.2091405403814477 $465 $635 forward 7 unknown #
point $-1 57.847224341563155 -37.866125375522742 3.7223400454455682 #
point $-1 57.847224341563155 37.866125375522742 3.7223400454455682 #
loop $-1 $-1 $316 $308 #
plane-surface $-1 0 -37.866125375522742 0 0 1 0 0 0 1 forward_v I I I I #
coedge $-1 $476 $311 $313 $480 reversed $186 $-1 #
coedge $-1 $311 $475 $636 $637 reversed $186 $-1 #
coedge $-1 $319 $314 $311 $478 forward $309 $-1 #
edge $-1 $481 -21.164615362438283 $638 -13.414695069934488 $477 $639 forward 7 unknown #
coedge $-1 $313 $312 $484 $640 reversed $117 $-1 #
edge $-1 $641 0 $481 9.3480930115679222 $475 $642 forward 7 unknown #
vertex $-1 $315 $643 #
straight-curve $-1 -17.064816571945691 -30.116205083018947 14.322494725765365 -1 0 0 I I #
coedge $-1 $636 $316 $319 $488 reversed $473 $-1 #
coedge $-1 $316 $636 $479 $640 forward $473 $-1 #
vertex $-1 $317 $644 #
straight-curve $-1 -24.830323026982516 -37.866125375522742 52.505075855990654 0 0 1 I I #
straight-curve $-1 -24.830323026982516 -37.866125375522742 9.0951073847734136 0 -0.82903756765294845 -0.55919291073839883 I I #
edge $-1 $638 -43.428943260800253 $320 -24.830323026982516 $483 $645 forward 7 unknown #
point $-1 -24.830323026982516 -37.866125375522742 14.322494725765365 #
point $-1 -24.830323026982516 -30.116205083018947 14.322494725765365 #
edge $-1 $646 1 $646 0 $323 $-1 forward 7 unknown #
vertex $-1 $324 $647 #
ellipse-curve $-1 -34.12963314389139 -30.396780303591907 6.3799063594149006 0 -0.55919291073839883 0.82903756765294845 2 0 0 1 I I #
point $-1 -32.12963314389139 -33.991165229270841 11.708801055269387 #
plane-surface $-1 0 0 14.322494725765365 0 0 1 1 0 0 forward_v I I I I #
coedge $-1 $506 $505 $498 $648 forward $328 $-1 #
coedge $-1 $498 $330 $332 $502 reversed $201 $-1 #
coedge $-1 $330 $497 $496 $648 reversed $201 $-1 #
coedge $-1 $338 $333 $330 $500 forward $339 $-1 #
edge $-1 $503 3.7496133554102968 $649 11.956130563914691 $499 $650 forward 7 unknown #
coedge $-1 $332 $331 $506 $651 reversed $126 $-1 #
edge $-1 $652 -75.732250751045484 $503 -65.172436144348893 $497 $653 forward 7 unknown #
vertex $-1 $334 $654 #
straight-curve $-1 -16.729265058355143 29.659608167018352 14.322494725765367 1 0 0 I I #
coedge $-1 $496 $335 $338 $510 reversed $328 $-1 #
coedge $-1 $335 $496 $501 $651 forward $328 $-1 #
vertex $-1 $336 $655 #
straight-curve $-1 -38.223593214790995 37.866125375522742 72.62415553002262 0 0 1 I I #
straight-curve $-1 -38.223593214790995 -20.988886968453144 55.336838235095783 0 0.77714595512881146 -0.62932039886446345 I I #
edge $-1 $649 28.693467018629576 $340 38.223593214790995 $505 $656 forward 7 unknown #
point $-1 -38.223593214790995 37.866125375522742 14.322494725765365 #
point $-1 -38.223593214790995 29.659608167018348 14.322494725765367 #
edge $-1 $657 1 $657 0 $343 $-1 forward 7 unknown #
vertex $-1 $344 $658 #
ellipse-curve $-1 -33.458530116710286 32.420286497750823 9.341792827553304 0 0.62932039886446345 0.77714595512881146 1.5 0 0 1 I I #
point $-1 -31.958530116710286 33.762866771270552 10.999741355654807 #
loop $-1 $-1 $355 $347 #
plane-surface $-1 0 37.866125375522742 0 0 -1 0 0 0 -1 forward_v I I I I #
coedge $-1 $520 $350 $352 $524 reversed $216 $-1 #
coedge $-1 $350 $519 $659 $660 reversed $216 $-1 #
coedge $-1 $358 $353 $350 $522 forward $348 $-1 #
edge $-1 $525 3.7496133554102968 $661 11.956130563914691 $521 $662 forward 7 unknown #
coedge $-1 $352 $351 $528 $663 reversed $135 $-1 #
edge $-1 $664 -75.732250751045484 $525 -65.172436144348893 $519 $665 forward 7 unknown #
vertex $-1 $354 $666 #
straight-curve $-1 -5.8720292431550796 29.659608167018352 14.322494725765367 1 0 0 I I #
coedge $-1 $659 $355 $358 $532 reversed $517 $-1 #
coedge $-1 $355 $659 $523 $663 forward $517 $-1 #
vertex $-1 $356 $667 #
straight-curve $-1 -16.509121584390869 37.866125375522742 72.62415553002262 0 0 1 I I #
straight-curve $-1 -16.509121584390869 -20.988886968453144 55.336838235095783 0 0.77714595512881146 -0.62932039886446345 I I #
edge $-1 $661 6.9789953882294498 $359 16.509121584390869 $527 $668 forward 7 unknown #
point $-1 -16.509121584390869 37.866125375522742 14.322494725765365 #
point $-1 -16.509121584390869 29.659608167018348 14.322494725765367 #
edge $-1 $669 1 $669 0 $362 $-1 forward 7 unknown #
vertex $-1 $363 $670 #
ellipse-curve $-1 -11.744058486310159 32.420286497750823 9.341792827553304 0 0.62932039886446345 0.77714595512881146 1.5 0 0 1 I I #
point $-1 -10.244058486310159 33.762866771270552 10.999741355654807 #
loop $-1 $-1 $374 $366 #
plane-surface $-1 0 37.866125375522742 0 0 -1 0 0 0 -1 forward_v I I I I #
coedge $-1 $542 $369 $371 $546 reversed $231 $-1 #
coedge $-1 $369 $541 $671 $672 reversed $231 $-1 #
coedge $-1 $377 $372 $369 $544 forward $367 $-1 #
edge $-1 $547 3.7496133554102968 $673 11.956130563914691 $543 $674 forward 7 unknown #
coedge $-1 $371 $370 $550 $675 reversed $144 $-1 #
edge $-1 $676 -75.732250751045484 $547 -65.172436144348893 $541 $677 forward 7 unknown #
vertex $-1 $373 $678 #
straight-curve $-1 4.9852065720449836 29.659608167018352 14.322494725765367 1 0 0 I I #
coedge $-1 $671 $374 $377 $554 reversed $539 $-1 #
coedge $-1 $374 $671 $545 $675 forward $539 $-1 #
vertex $-1 $375 $679 #
straight-curve $-1 5.2053500460092579 37.866125375522742 72.62415553002262 0 0 1 I I #
straight-curve $-1 5.2053500460092579 -20.988886968453144 55.336838235095783 0 0.77714595512881146 -0.62932039886446345 I I #
edge $-1 $673 -14.735476242170677 $378 -5.2053500460092579 $549 $680 forward 7 unknown #
point $-1 5.2053500460092579 37.866125375522742 14.322494725765365 #
point $-1 5.2053500460092579 29.659608167018348 14.322494725765367 #
edge $-1 $681 1 $681 0 $381 $-1 forward 7 unknown #
vertex $-1 $382 $682 #
ellipse-curve $-1 9.9704131440899673 32.420286497750823 9.341792827553304 0 0.62932039886446345 0.77714595512881146 1.5 0 0 1 I I #
point $-1 11.470413144089967 33.762866771270552 10.999741355654807 #
loop $-1 $-1 $393 $385 #
plane-surface $-1 0 37.866125375522742 0 0 -1 0 0 0 -1 forward_v I I I I #
coedge $-1 $564 $388 $390 $568 reversed $246 $-1 #
coedge $-1 $388 $563 $683 $684 reversed $246 $-1 #
coedge $-1 $396 $391 $388 $566 forward $386 $-1 #
edge $-1 $569 3.7496133554102968 $685 11.956130563914691 $565 $686 forward 7 unknown #
coedge $-1 $390 $389 $572 $687 reversed $153 $-1 #
edge $-1 $688 -75.732250751045484 $569 -65.172436144348893 $563 $689 forward 7 unknown #
vertex $-1 $392 $690 #
straight-curve $-1 15.842442387245047 29.659608167018352 14.322494725765367 1 0 0 I I #
coedge $-1 $683 $393 $396 $576 reversed $561 $-1 #
coedge $-1 $393 $683 $567 $687 forward $561 $-1 #
vertex $-1 $394 $691 #
straight-curve $-1 26.919821676409384 37.866125375522742 72.62415553002262 0 0 1 I I #
straight-curve $-1 26.919821676409384 -20.988886968453144 55.336838235095783 0 0.77714595512881146 -0.62932039886446345 I I #
edge $-1 $685 -36.449947872570803 $397 -26.919821676409384 $571 $692 forward 7 unknown #
point $-1 26.919821676409384 37.866125375522742 14.322494725765365 #
point $-1 26.919821676409384 29.659608167018348 14.322494725765367 #
edge $-1 $693 1 $693 0 $400 $-1 forward 7 unknown #
vertex $-1 $401 $694 #
ellipse-curve $-1 31.684884774490094 32.420286497750823 9.341792827553304 0 0.62932039886446345 0.77714595512881146 1.5 0 0 1 I I #
point $-1 33.184884774490094 33.762866771270552 10.999741355654807 #
plane-surface $-1 57.847224341563155 0 0 -1 0 0 0 0 1 forward_v I I I I #
coedge $-1 $409 $407 $411 $588 reversed $261 $-1 #
edge $-1 $422 -14.322494725765365 $590 14.322494725765365 $421 $695 forward 7 unknown #
vertex $-1 $588 $696 #
straight-curve $-1 -57.847224341563155 -37.866125375522742 0 0 0 -1 I I #
edge $-1 $586 -37.866125375522742 $590 37.866125375522742 $584 $697 forward 7 unknown #
straight-curve $-1 0 -37.866125375522742 -14.322494725765365 -1 0 0 I I #
vertex $-1 $414 $698 #
straight-curve $-1 0 37.866125375522742 -14.322494725765365 1 0 0 I I #
point $-1 57.847224341563155 37.866125375522742 -14.322494725765365 #
point $-1 57.847224341563155 -37.866125375522742 -14.322494725765365 #
straight-curve $-1 -57.847224341563155 0 14.322494725765365 0 -1 0 I I #
point $-1 -57.847224341563155 37.866125375522742 14.322494725765365 #
point $-1 -57.847224341563155 -37.866125375522742 14.322494725765365 #
straight-curve $-1 57.847224341563155 -37.866125375522742 0 0 0 -1 I I #
straight-curve $-1 57.847224341563155 37.866125375522742 0 0 0 -1 I I #
plane-surface $-1 0 -37.866125375522742 0 0 1 0 0 0 1 forward_v I I I I #
coedge $-1 $699 $613 $435 $602 forward $432 $-1 #
coedge $-1 $603 $434 $443 $611 forward $280 $-1 #
edge $-1 $606 -2.9635023649164278 $604 2.9635023649164278 $435 $700 forward 7 unknown #
coedge $-1 $436 $601 $699 $701 forward $280 $-1 #
vertex $-1 $437 $702 #
straight-curve $-1 -65.056364881944603 37.866125375522742 -2.2046646843872875 1 0 0 I I #
vertex $-1 $438 $703 #
straight-curve $-1 -65.056364881944603 37.866125375522742 3.7223400454455682 -1 0 0 I I #
point $-1 -57.847224341563148 37.866125375522742 -2.2046646843872875 #
straight-curve $-1 -57.847224341563155 0 -2.2046646843872875 0 1 0 I I #
coedge $-1 $443 $442 $704 $705 forward $444 $-1 #
edge $-1 $445 -7.2091405403814548 $706 7.2091405403814548 $443 $707 forward 7 unknown #
point $-1 -57.847224341563148 -37.866125375522742 -2.2046646843872875 #
coedge $-1 $600 $704 $447 $614 reversed $432 $-1 #
edge $-1 $606 -37.866125375522742 $615 37.866125375522742 $613 $708 forward 7 unknown #
vertex $-1 $614 $709 #
straight-curve $-1 -65.056364881944603 -37.866125375522742 3.7223400454455682 1 0 0 I I #
plane-surface $-1 0 37.866125375522742 0 0 -1 0 0 0 -1 forward_v I I I I #
coedge $-1 $620 $455 $457 $626 forward $452 $-1 #
coedge $-1 $454 $463 $466 $633 forward $294 $-1 #
coedge $-1 $622 $618 $454 $621 reversed $452 $-1 #
edge $-1 $710 -37.866125375522742 $627 37.866125375522742 $620 $711 forward 7 unknown #
coedge $-1 $455 $620 $632 $712 reversed $452 $-1 #
vertex $-1 $456 $713 #
vertex $-1 $456 $714 #
straight-curve $-1 72.265505422326044 0 3.7223400454455682 0 1 0 I I #
edge $-1 $623 -2.9635023649164278 $627 2.9635023649164278 $618 $715 forward 7 unknown #
vertex $-1 $626 $716 #
straight-curve $-1 65.056364881944603 -37.866125375522742 -2.2046646843872875 -1 0 0 I I #
straight-curve $-1 65.056364881944603 -37.866125375522742 3.7223400454455682 1 0 0 I I #
point $-1 57.847224341563155 -37.866125375522742 -2.2046646843872875 #
straight-curve $-1 57.847224341563155 0 -2.2046646843872875 0 -1 0 I I #
coedge $-1 $466 $465 $622 $712 forward $467 $-1 #
edge $-1 $468 -7.2091405403814477 $710 7.2091405403814406 $466 $717 forward 7 unknown #
point $-1 57.847224341563155 37.866125375522742 -2.2046646843872875 #
straight-curve $-1 65.056364881944603 37.866125375522742 3.7223400454455682 -1 0 0 I I #
coedge $-1 $484 $483 $476 $637 forward $473 $-1 #
edge $-1 $638 38.182581130225287 $641 43.40996847121724 $636 $718 forward 7 unknown #
vertex $-1 $488 $719 #
straight-curve $-1 -43.428943260800253 -51.280820445457231 14.322494725765367 0 -1 0 I I #
edge $-1 $641 -26.364126688854562 $485 -7.7655064550368245 $484 $720 forward 7 unknown #
vertex $-1 $640 $721 #
straight-curve $-1 -43.428943260800253 -37.866125375522742 9.0951073847734136 0 0.82903756765294845 0.55919291073839883 I I #
point $-1 -43.428943260800253 -30.116205083018947 14.322494725765365 #
point $-1 -24.830323026982516 -37.866125375522742 9.0951073847734136 #
straight-curve $-1 0 -37.866125375522742 14.322494725765365 1 0 0 I I #
vertex $-1 $491 $722 #
point $-1 -32.12963314389139 -30.396780303591907 6.3799063594149006 #
edge $-1 $649 58.301660804257253 $652 64.947167544478333 $496 $723 forward 7 unknown #
vertex $-1 $510 $724 #
straight-curve $-1 -28.693467018629576 25.909994811608051 14.322494725765367 0 1 0 I I #
edge $-1 $652 11.964201960274433 $507 21.494328156435852 $506 $725 forward 7 unknown #
vertex $-1 $651 $726 #
straight-curve $-1 -28.693467018629576 -20.988886968453144 55.336838235095783 0 -0.77714595512881146 0.62932039886446345 I I #
point $-1 -28.693467018629576 29.659608167018348 14.322494725765367 #
point $-1 -38.223593214790995 37.866125375522749 7.6769879855442795 #
straight-curve $-1 0 37.866125375522742 14.322494725765365 -1 0 0 I I #
vertex $-1 $513 $727 #
point $-1 -31.958530116710286 32.420286497750823 9.341792827553304 #
coedge $-1 $528 $527 $520 $660 forward $517 $-1 #
edge $-1 $661 58.301660804257253 $664 64.947167544478333 $659 $728 forward 7 unknown #
vertex $-1 $532 $729 #
straight-curve $-1 -6.9789953882294498 25.909994811608051 14.322494725765367 0 1 0 I I #
edge $-1 $664 1.1069661450743702 $529 10.637092341235789 $528 $730 forward 7 unknown #
vertex $-1 $663 $731 #
straight-curve $-1 -6.9789953882294498 -20.988886968453144 55.336838235095783 0 -0.77714595512881146 0.62932039886446345 I I #
point $-1 -6.9789953882294498 29.659608167018348 14.322494725765367 #
point $-1 -16.509121584390869 37.866125375522749 7.6769879855442795 #
straight-curve $-1 0 37.866125375522742 14.322494725765365 -1 0 0 I I #
vertex $-1 $535 $732 #
point $-1 -10.244058486310159 32.420286497750823 9.341792827553304 #
coedge $-1 $550 $549 $542 $672 forward $539 $-1 #
edge $-1 $673 58.301660804257253 $676 64.947167544478333 $671 $733 forward 7 unknown #
vertex $-1 $554 $734 #
straight-curve $-1 14.735476242170677 25.909994811608051 14.322494725765367 0 1 0 I I #
edge $-1 $676 -9.750269670125693 $551 -0.22014347396427425 $550 $735 forward 7 unknown #
vertex $-1 $675 $736 #
straight-curve $-1 14.735476242170677 -20.988886968453144 55.336838235095783 0 -0.77714595512881146 0.62932039886446345 I I #
point $-1 14.735476242170677 29.659608167018348 14.322494725765367 #
point $-1 5.2053500460092579 37.866125375522749 7.6769879855442795 #
straight-curve $-1 0 37.866125375522742 14.322494725765365 -1 0 0 I I #
vertex $-1 $557 $737 #
point $-1 11.470413144089967 32.420286497750823 9.341792827553304 #
coedge $-1 $572 $571 $564 $684 forward $561 $-1 #
edge $-1 $685 58.301660804257253 $688 64.947167544478333 $683 $738 forward 7 unknown #
vertex $-1 $576 $739 #
straight-curve $-1 36.449947872570803 25.909994811608051 14.322494725765367 0 1 0 I I #
edge $-1 $688 -20.607505485325756 $573 -11.077379289164337 $572 $740 forward 7 unknown #
vertex $-1 $687 $741 #
straight-curve $-1 36.449947872570803 -20.988886968453144 55.336838235095783 0 -0.77714595512881146 0.62932039886446345 I I #
point $-1 36.449947872570803 29.659608167018348 14.322494725765367 #
point $-1 26.919821676409384 37.866125375522749 7.6769879855442795 #
straight-curve $-1 0 37.866125375522742 14.322494725765365 -1 0 0 I I #
vertex $-1 $579 $742 #
point $-1 33.184884774490094 32.420286497750823 9.341792827553304 #
straight-curve $-1 -57.847224341563155 37.866125375522742 0 0 0 -1 I I #
point $-1 -57.847224341563155 -37.866125375522742 -14.322494725765365 #
straight-curve $-1 -57.847224341563155 0 -14.322494725765365 0 1 0 I I #
point $-1 -57.847224341563155 37.866125375522742 -14.322494725765365 #
coedge $-1 $704 $600 $603 $701 reversed $432 $-1 #
straight-curve $-1 -72.265505422326058 37.866125375522742 0.75883768052914036 0 0 -1 I I #
edge $-1 $706 -37.866125375522742 $604 37.866125375522742 $699 $743 forward 7 unknown #
point $-1 -72.265505422326058 37.866125375522742 -2.2046646843872875 #
point $-1 -72.265505422326058 37.866125375522742 3.7223400454455682 #
coedge $-1 $613 $699 $610 $705 reversed $432 $-1 #
edge $-1 $615 -2.9635023649164278 $706 2.9635023649164278 $704 $744 forward 7 unknown #
vertex $-1 $701 $745 #
straight-curve $-1 -65.056364881944603 -37.866125375522742 -2.2046646843872875 -1 0 0 I I #
straight-curve $-1 -72.265505422326058 0 3.7223400454455682 0 -1 0 I I #
point $-1 -72.265505422326058 -37.866125375522742 3.7223400454455682 #
vertex $-1 $621 $746 #
straight-curve $-1 72.265505422326044 0 -2.2046646843872875 0 -1 0 I I #
edge $-1 $624 -2.9635023649164278 $710 2.9635023649164278 $622 $747 forward 7 unknown #
point $-1 72.265505422326044 -37.866125375522742 3.7223400454455682 #
point $-1 72.265505422326044 37.866125375522742 3.7223400454455682 #
straight-curve $-1 72.265505422326044 -37.866125375522742 0.75883768052914036 0 0 -1 I I #
point $-1 72.265505422326044 -37.866125375522742 -2.2046646843872875 #
straight-curve $-1 65.056364881944603 37.866125375522742 -2.2046646843872875 1 0 0 I I #
straight-curve $-1 -43.428943260800253 -37.866125375522742 52.505075855990654 0 0 -1 I I #
point $-1 -43.428943260800253 -37.866125375522742 14.322494725765365 #
straight-curve $-1 -17.064816571945691 -37.866125375522742 9.0951073847734119 1 0 0 I I #
point $-1 -43.428943260800253 -37.866125375522742 9.0951073847734136 #
point $-1 -34.12963314389139 -29.278394482115107 4.7218312241090024 #
straight-curve $-1 -28.693467018629576 37.866125375522742 72.62415553002262 0 0 -1 I I #
point $-1 -28.693467018629576 37.866125375522742 14.322494725765365 #
straight-curve $-1 -16.729265058355143 37.866125375522742 7.6769879855442795 -1 0 0 I I #
point $-1 -28.693467018629576 37.866125375522749 7.6769879855442795 #
point $-1 -33.458530116710286 31.476305899454129 8.1760738948600871 #
straight-curve $-1 -6.9789953882294498 37.866125375522742 72.62415553002262 0 0 -1 I I #
point $-1 -6.9789953882294498 37.866125375522742 14.322494725765365 #
straight-curve $-1 -5.8720292431550796 37.866125375522742 7.6769879855442795 -1 0 0 I I #
point $-1 -6.9789953882294498 37.866125375522749 7.6769879855442795 #
point $-1 -11.744058486310159 31.476305899454129 8.1760738948600871 #
straight-curve $-1 14.735476242170677 37.866125375522742 72.62415553002262 0 0 -1 I I #
point $-1 14.735476242170677 37.866125375522742 14.322494725765365 #
straight-curve $-1 4.9852065720449836 37.866125375522742 7.6769879855442795 -1 0 0 I I #
point $-1 14.735476242170677 37.866125375522749 7.6769879855442795 #
point $-1 9.9704131440899673 31.476305899454129 8.1760738948600871 #
straight-curve $-1 36.449947872570803 37.866125375522742 72.62415553002262 0 0 -1 I I #
point $-1 36.449947872570803 37.866125375522742 14.322494725765365 #
straight-curve $-1 15.842442387245047 37.866125375522742 7.6769879855442795 -1 0 0 I I #
point $-1 36.449947872570803 37.866125375522749 7.6769879855442795 #
point $-1 31.684884774490094 31.476305899454129 8.1760738948600871 #
straight-curve $-1 -72.265505422326058 0 -2.2046646843872875 0 1 0 I I #
straight-curve $-1 -72.265505422326058 -37.866125375522742 0.75883768052914036 0 0 -1 I I #
point $-1 -72.265505422326058 -37.866125375522742 -2.2046646843872875 #
point $-1 72.265505422326044 37.866125375522742 -2.2046646843872875 #
straight-curve $-1 72.265505422326044 37.866125375522742 0.75883768052914036 0 0 -1 I I #
End-of-ACIS-data 