500 0 7 0           
7 Unknown 11 ACIS 5.0 NT 24 Thu Mar 25 17:28:25 1999 
-1 9.9999999999999995e-007 1e-010 
body $-1 $7 $-1 $8 #
body $-1 $9 $-1 $10 #
body $-1 $11 $-1 $12 #
body $-1 $13 $-1 $14 #
body $-1 $15 $-1 $16 #
body $-1 $17 $-1 $18 #
body $-1 $19 $-1 $20 #
lump $-1 $-1 $21 $0 #
transform $-1 1 0 0 0 1 0 0 0 1 63.330790124210331 26.460662107440839 9.6000351308712037 1 rotate no_reflect no_shear #
lump $-1 $-1 $22 $1 #
transform $-1 1 0 0 0 1 0 0 0 1 63.330790124210331 26.460662107440839 9.6000351308712037 1 rotate no_reflect no_shear #
lump $-1 $-1 $23 $2 #
transform $-1 1 0 0 0 1 0 0 0 1 63.330790124210331 26.460662107440839 9.6000351308712037 1 rotate no_reflect no_shear #
lump $-1 $-1 $24 $3 #
transform $-1 1 0 0 0 1 0 0 0 1 63.330790124210331 26.460662107440839 9.6000351308712037 1 rotate no_reflect no_shear #
lump $-1 $-1 $25 $4 #
transform $-1 1 0 0 0 1 0 0 0 1 63.330790124210331 26.460662107440839 9.6000351308712037 1 rotate no_reflect no_shear #
lump $-1 $-1 $26 $5 #
transform $-1 1 0 0 0 1 0 0 0 1 63.330790124210331 26.460662107440839 9.6000351308712037 1 rotate no_reflect no_shear #
lump $-1 $-1 $27 $6 #
transform $-1 1 0 0 0 1 0 0 0 1 63.330790124210331 26.460662107440839 9.6000351308712037 1 rotate no_reflect no_shear #
shell $-1 $-1 $-1 $28 $-1 $7 #
shell $-1 $-1 $-1 $29 $-1 $9 #
shell $-1 $-1 $-1 $30 $-1 $11 #
shell $-1 $-1 $-1 $31 $-1 $13 #
shell $-1 $-1 $-1 $32 $-1 $15 #
shell $-1 $-1 $-1 $33 $-1 $17 #
shell $-1 $-1 $-1 $34 $-1 $19 #
face $-1 $35 $36 $21 $-1 $37 forward single #
face $-1 $38 $39 $22 $-1 $40 forward single #
face $-1 $41 $42 $23 $-1 $43 reversed single #
face $-1 $44 $45 $24 $-1 $46 forward single #
face $-1 $47 $48 $25 $-1 $49 forward single #
face $-1 $50 $51 $26 $-1 $52 reversed single #
face $-1 $53 $54 $27 $-1 $55 forward single #
face $-1 $56 $57 $21 $-1 $58 reversed single #
loop $-1 $-1 $59 $28 #
plane-surface $-1 0 0 9.6000351308712037 0 0 1 1 0 0 forward_v I I I I #
face $-1 $60 $61 $22 $-1 $62 reversed single #
loop $-1 $-1 $63 $29 #
plane-surface $-1 -63.330790124210331 0 0 1 0 0 0 0 -1 forward_v I I I I #
face $-1 $64 $65 $23 $-1 $66 reversed single #
loop $-1 $-1 $67 $30 #
plane-surface $-1 50.732557624648273 -26.460662107440854 4.8019299148524226 0 -0.79863551827123203 0.60181501223851219 1 0 0 forward_v I I I I #
face $-1 $68 $69 $24 $-1 $70 forward single #
loop $-1 $71 $72 $31 #
cone-surface $-1 45.333315124835956 -23.930809597684707 6.6568888195534051 0 0.79863551827123203 -0.60181501223851219 1.5 0 0 1 I I 0 1 1.5 forward I I I I #
face $-1 $73 $74 $25 $-1 $75 forward single #
loop $-1 $76 $77 $32 #
cone-surface $-1 56.131800124460575 -23.930809597684707 6.6568888195534051 0 0.79863551827123203 -0.60181501223851219 1.5 0 0 1 I I 0 1 1.5 forward I I I I #
face $-1 $78 $79 $26 $-1 $80 reversed single #
loop $-1 $-1 $81 $33 #
plane-surface $-1 -33.118730387210057 99.8613315956527 117.87192954790359 1 0 0 0 -0.81915205242281985 -0.57357642473473569 forward_v I I I I #
face $-1 $82 $83 $27 $-1 $84 forward single #
loop $-1 $85 $86 $34 #
cone-surface $-1 -21.231803860083183 22.727548055406665 5.0163560918933277 0 -0.81915205242281985 -0.57357642473473569 1.5 0 0 1 I I 0 1 1.5 forward I I I I #
face $-1 $87 $88 $21 $-1 $89 reversed single #
loop $-1 $-1 $90 $35 #
plane-surface $-1 0 0 -9.6000351308712037 0 0 1 1 0 0 forward_v I I I I #
coedge $-1 $91 $92 $93 $94 forward $36 $-1 #
face $-1 $95 $96 $22 $-1 $97 forward single #
loop $-1 $-1 $98 $38 #
plane-surface $-1 0 26.460662107440839 0 0 -1 0 0 0 -1 forward_v I I I I #
coedge $-1 $99 $100 $101 $102 forward $39 $-1 #
face $-1 $103 $104 $23 $-1 $105 reversed single #
loop $-1 $-1 $106 $41 #
plane-surface $-1 38.134325125086214 -127.61709889419153 81.028770382204996 1 0 0 0 0.79863551827123203 -0.60181501223851219 forward_v I I I I #
coedge $-1 $107 $108 $109 $110 reversed $42 $-1 #
face $-1 $-1 $111 $24 $-1 $112 forward single #
loop $-1 $113 $114 $44 #
cone-surface $-1 45.333315124835956 -22.609796207000738 5.6614338570661076 0 0.79863551827123203 -0.60181501223851219 0.75 0 0 1 I I -0.70710678118654757 0.70710678118654757 0.75 forward I I I I #
loop $-1 $-1 $115 $31 #
coedge $-1 $72 $72 $116 $117 reversed $45 $-1 #
face $-1 $-1 $118 $25 $-1 $119 forward single #
loop $-1 $120 $121 $47 #
cone-surface $-1 56.131800124460575 -22.609796207000738 5.6614338570661076 0 0.79863551827123203 -0.60181501223851219 0.75 0 0 1 I I -0.70710678118654757 0.70710678118654757 0.75 forward I I I I #
loop $-1 $-1 $122 $32 #
coedge $-1 $77 $77 $123 $124 reversed $48 $-1 #
face $-1 $125 $126 $26 $-1 $127 reversed single #
loop $-1 $-1 $128 $50 #
plane-surface $-1 -21.231803860083183 -3.893761827958798 45.221833197762649 0 0.81915205242281985 0.57357642473473569 1 0 0 forward_v I I I I #
coedge $-1 $129 $130 $131 $132 reversed $51 $-1 #
face $-1 $-1 $133 $27 $-1 $134 forward single #
loop $-1 $135 $136 $53 #
cone-surface $-1 -21.231803860083183 21.085956542653875 3.8669013746955745 0 -0.81915205242281985 -0.57357642473473569 0.75 0 0 1 I I -0.70710678118654757 0.70710678118654757 0.75 forward I I I I #
loop $-1 $-1 $137 $34 #
coedge $-1 $86 $86 $138 $139 reversed $54 $-1 #
face $-1 $140 $141 $21 $-1 $142 reversed single #
loop $-1 $-1 $143 $56 #
plane-surface $-1 0 -26.460662107440839 0 0 1 0 0 0 1 forward_v I I I I #
coedge $-1 $144 $145 $146 $147 forward $57 $-1 #
coedge $-1 $148 $59 $149 $150 forward $36 $-1 #
coedge $-1 $59 $148 $151 $152 forward $36 $-1 #
coedge $-1 $153 $154 $59 $94 reversed $155 $-1 #
edge $-1 $156 -26.460662107440839 $157 26.460662107440839 $93 $158 forward 7 unknown #
face $-1 $159 $160 $22 $-1 $161 reversed single #
loop $-1 $-1 $101 $60 #
plane-surface $-1 -67.294889472099385 0 0.00039576766233073712 0 0 1 1 0 0 forward_v I I I I #
coedge $-1 $162 $163 $100 $164 forward $61 $-1 #
coedge $-1 $165 $63 $166 $167 reversed $39 $-1 #
coedge $-1 $63 $165 $98 $164 reversed $39 $-1 #
coedge $-1 $168 $169 $63 $102 reversed $96 $-1 #
edge $-1 $170 -26.460662107440839 $171 26.460662107440839 $101 $172 forward 7 unknown #
face $-1 $173 $174 $23 $-1 $175 forward single #
loop $-1 $-1 $176 $64 #
plane-surface $-1 0 -26.460662107440839 0 0 1 0 0 0 1 forward_v I I I I #
coedge $-1 $177 $178 $179 $180 reversed $65 $-1 #
coedge $-1 $181 $67 $182 $183 reversed $42 $-1 #
coedge $-1 $67 $181 $177 $184 forward $42 $-1 #
coedge $-1 $179 $185 $67 $110 forward $174 $-1 #
edge $-1 $186 -37.964511311886199 $187 -12.768046312762078 $109 $188 forward 7 unknown #
loop $-1 $-1 $116 $68 #
plane-surface $-1 50.732557624648273 -26.460662107440854 4.8019299148524226 0 -0.79863551827123203 0.60181501223851219 1 0 0 forward_v I I I I #
loop $-1 $-1 $189 $44 #
coedge $-1 $114 $114 $115 $190 reversed $69 $-1 #
coedge $-1 $115 $115 $114 $190 forward $71 $-1 #
coedge $-1 $116 $116 $72 $117 forward $111 $-1 #
edge $-1 $191 1.3445237978203993e-017 $191 6.2831853071796004 $116 $192 forward 7 unknown #
loop $-1 $-1 $123 $73 #
plane-surface $-1 50.732557624648273 -26.460662107440854 4.8019299148524226 0 -0.79863551827123203 0.60181501223851219 1 0 0 forward_v I I I I #
loop $-1 $-1 $193 $47 #
coedge $-1 $121 $121 $122 $194 reversed $74 $-1 #
coedge $-1 $122 $122 $121 $194 forward $76 $-1 #
coedge $-1 $123 $123 $77 $124 forward $118 $-1 #
edge $-1 $195 1.3445237978203993e-017 $195 6.2831853071796004 $123 $196 forward 7 unknown #
face $-1 $197 $198 $26 $-1 $199 forward single #
loop $-1 $-1 $200 $78 #
plane-surface $-1 -9.34487733295631 99.8613315956527 117.87192954790359 -1 0 0 0 0.81915205242281985 0.57357642473473569 forward_v I I I I #
coedge $-1 $201 $202 $203 $204 reversed $79 $-1 #
coedge $-1 $130 $81 $205 $206 reversed $51 $-1 #
coedge $-1 $81 $129 $201 $207 reversed $51 $-1 #
coedge $-1 $203 $208 $81 $132 forward $198 $-1 #
edge $-1 $209 23.470003690385511 $210 28.881776847582536 $131 $211 forward 7 unknown #
loop $-1 $-1 $138 $82 #
plane-surface $-1 -21.231803860083183 -3.893761827958798 45.221833197762649 0 0.81915205242281985 0.57357642473473569 1 0 0 forward_v I I I I #
loop $-1 $-1 $212 $53 #
coedge $-1 $136 $136 $137 $213 reversed $83 $-1 #
coedge $-1 $137 $137 $136 $213 forward $85 $-1 #
coedge $-1 $138 $138 $86 $139 forward $133 $-1 #
edge $-1 $214 9.8617540270112691e-017 $214 6.2831853071796004 $138 $215 forward 7 unknown #
face $-1 $216 $217 $21 $-1 $218 reversed single #
loop $-1 $-1 $219 $87 #
plane-surface $-1 -63.330790124210331 0 0 1 0 0 0 0 -1 forward_v I I I I #
coedge $-1 $220 $151 $219 $221 forward $88 $-1 #
coedge $-1 $222 $90 $220 $223 forward $57 $-1 #
coedge $-1 $90 $222 $224 $225 forward $57 $-1 #
coedge $-1 $154 $153 $90 $147 reversed $155 $-1 #
edge $-1 $226 -26.460662107440839 $227 26.460662107440839 $146 $228 forward 7 unknown #
coedge $-1 $92 $91 $229 $230 forward $36 $-1 #
coedge $-1 $231 $232 $91 $150 reversed $217 $-1 #
edge $-1 $157 -63.330790124210331 $233 63.330790124210331 $149 $234 forward 7 unknown #
coedge $-1 $143 $235 $92 $152 reversed $88 $-1 #
edge $-1 $236 -63.330790124210331 $156 63.330790124210331 $151 $237 forward 7 unknown #
coedge $-1 $146 $93 $235 $238 forward $155 $-1 #
coedge $-1 $93 $146 $231 $239 reversed $155 $-1 #
loop $-1 $-1 $153 $216 #
vertex $-1 $94 $240 #
vertex $-1 $94 $241 #
straight-curve $-1 63.330790124210331 0 9.6000351308712037 0 1 0 I I #
face $-1 $242 $243 $22 $-1 $244 reversed single #
loop $-1 $-1 $245 $95 #
plane-surface $-1 -67.294889472099385 0 -3.9316722120557528 0 0 1 1 0 0 forward_v I I I I #
coedge $-1 $246 $98 $247 $248 reversed $61 $-1 #
coedge $-1 $98 $246 $168 $249 reversed $61 $-1 #
edge $-1 $170 -0.00039576766233073712 $250 3.9316722120557528 $98 $251 forward 7 unknown #
coedge $-1 $100 $99 $245 $252 forward $39 $-1 #
coedge $-1 $253 $254 $99 $167 forward $255 $-1 #
edge $-1 $256 -3.9316722120557528 $171 0.00039576766233073712 $166 $257 forward 7 unknown #
coedge $-1 $258 $101 $163 $249 forward $96 $-1 #
coedge $-1 $101 $258 $253 $259 forward $96 $-1 #
vertex $-1 $164 $260 #
vertex $-1 $259 $261 #
straight-curve $-1 -63.330790124210331 0 0.00039576766233073712 0 -1 0 I I #
face $-1 $-1 $262 $23 $-1 $263 reversed single #
loop $-1 $-1 $179 $103 #
plane-surface $-1 0 0 9.6000351308712037 0 0 1 1 0 0 forward_v I I I I #
coedge $-1 $264 $265 $178 $266 forward $104 $-1 #
coedge $-1 $178 $106 $108 $184 reversed $65 $-1 #
coedge $-1 $106 $177 $176 $266 reversed $65 $-1 #
coedge $-1 $267 $109 $106 $180 forward $174 $-1 #
edge $-1 $187 -40.963518855206082 $268 -37.347887339654925 $179 $269 forward 7 unknown #
coedge $-1 $108 $107 $264 $270 reversed $42 $-1 #
coedge $-1 $271 $272 $107 $183 forward $262 $-1 #
edge $-1 $273 -6.0447159518891524 $186 -0.036837381192735566 $182 $274 forward 7 unknown #
edge $-1 $275 2.3448253187574213e-014 $187 6.0078785706964402 $177 $276 forward 7 unknown #
coedge $-1 $109 $267 $271 $277 forward $174 $-1 #
vertex $-1 $183 $278 #
vertex $-1 $110 $279 #
straight-curve $-1 25.366278812324136 -22.845030591889678 9.6000351308712037 -1 0 0 I I #
coedge $-1 $189 $189 $-1 $280 reversed $113 $-1 #
edge $-1 $281 0 $281 6.2831853071796004 $114 $282 forward 7 unknown #
vertex $-1 $117 $283 #
ellipse-curve $-1 45.333315124835956 -24.652846349665261 7.2009825228618221 0 -0.79863551827123203 0.60181501223851219 1.5 0 0 1 I I #
coedge $-1 $193 $193 $-1 $284 reversed $120 $-1 #
edge $-1 $285 0 $285 6.2831853071796004 $121 $286 forward 7 unknown #
vertex $-1 $124 $287 #
ellipse-curve $-1 56.131800124460575 -24.652846349665261 7.2009825228618221 0 -0.79863551827123203 0.60181501223851219 1.5 0 0 1 I I #
face $-1 $-1 $288 $26 $-1 $289 reversed single #
loop $-1 $-1 $131 $125 #
plane-surface $-1 0 0 9.6000351308712037 0 0 1 1 0 0 forward_v I I I I #
coedge $-1 $290 $291 $292 $293 reversed $126 $-1 #
coedge $-1 $294 $128 $130 $207 forward $79 $-1 #
coedge $-1 $128 $294 $290 $295 forward $79 $-1 #
coedge $-1 $292 $131 $128 $204 forward $198 $-1 #
edge $-1 $210 -22.502828457168466 $296 1.2710245970852814 $203 $297 forward 7 unknown #
coedge $-1 $298 $299 $129 $206 forward $288 $-1 #
edge $-1 $300 -57.064742923742969 $209 -49.33592964308059 $205 $301 forward 7 unknown #
edge $-1 $210 43.486185454253885 $300 52.921324214881707 $130 $302 forward 7 unknown #
coedge $-1 $131 $292 $298 $303 forward $198 $-1 #
vertex $-1 $132 $304 #
vertex $-1 $132 $305 #
straight-curve $-1 -33.118730387210057 49.93066579782635 9.6000351308712055 0 -1 0 I I #
coedge $-1 $212 $212 $-1 $306 reversed $135 $-1 #
edge $-1 $307 0 $307 6.2831853071796004 $136 $308 forward 7 unknown #
vertex $-1 $139 $309 #
ellipse-curve $-1 -21.231803860083183 23.754775528842327 5.7356284905400194 0 0.81915205242281985 0.57357642473473569 1.5 0 0 1 I I #
face $-1 $-1 $155 $21 $-1 $310 reversed single #
loop $-1 $-1 $231 $140 #
plane-surface $-1 0 26.460662107440839 0 0 -1 0 0 0 -1 forward_v I I I I #
coedge $-1 $229 $311 $143 $221 reversed $141 $-1 #
coedge $-1 $235 $143 $144 $223 reversed $88 $-1 #
edge $-1 $236 -9.6000351308712037 $312 9.6000351308712037 $219 $313 forward 7 unknown #
coedge $-1 $145 $144 $311 $314 forward $57 $-1 #
edge $-1 $227 -63.330790124210331 $312 63.330790124210331 $220 $315 forward 7 unknown #
coedge $-1 $232 $231 $145 $225 reversed $217 $-1 #
edge $-1 $316 -63.330790124210331 $226 63.330790124210331 $224 $317 forward 7 unknown #
vertex $-1 $147 $318 #
vertex $-1 $238 $319 #
straight-curve $-1 63.330790124210331 0 -9.6000351308712037 0 -1 0 I I #
coedge $-1 $320 $219 $148 $230 reversed $141 $-1 #
edge $-1 $233 -26.460662107440839 $236 26.460662107440839 $229 $321 forward 7 unknown #
coedge $-1 $224 $149 $154 $239 forward $217 $-1 #
coedge $-1 $149 $224 $320 $322 reversed $217 $-1 #
vertex $-1 $150 $323 #
straight-curve $-1 0 26.460662107440839 9.6000351308712037 -1 0 0 I I #
coedge $-1 $151 $220 $153 $238 reversed $88 $-1 #
vertex $-1 $230 $324 #
straight-curve $-1 0 -26.460662107440839 9.6000351308712037 1 0 0 I I #
edge $-1 $156 -9.6000351308712037 $227 9.6000351308712037 $153 $325 forward 7 unknown #
edge $-1 $157 -9.6000351308712037 $226 9.6000351308712037 $154 $326 forward 7 unknown #
point $-1 63.330790124210331 -26.460662107440839 9.6000351308712037 #
point $-1 63.330790124210331 26.460662107440839 9.6000351308712037 #
face $-1 $-1 $255 $22 $-1 $327 reversed single #
loop $-1 $-1 $328 $159 #
plane-surface $-1 -71.258988819988431 0 -1.965638222196711 1 0 0 0 0 -1 forward_v I I I I #
coedge $-1 $329 $247 $165 $252 reversed $160 $-1 #
coedge $-1 $163 $162 $328 $330 reversed $61 $-1 #
coedge $-1 $245 $331 $162 $248 forward $160 $-1 #
edge $-1 $332 -3.9640993478890465 $250 3.9640993478890536 $162 $333 forward 7 unknown #
edge $-1 $170 -3.9640993478890536 $334 3.9640993478890465 $163 $335 forward 7 unknown #
vertex $-1 $164 $336 #
straight-curve $-1 -63.330790124210331 26.460662107440839 0 0 0 -1 I I #
edge $-1 $256 -26.460662107440839 $250 26.460662107440839 $245 $337 forward 7 unknown #
coedge $-1 $338 $166 $169 $259 reversed $255 $-1 #
coedge $-1 $166 $338 $329 $339 reversed $255 $-1 #
loop $-1 $-1 $166 $242 #
vertex $-1 $167 $340 #
straight-curve $-1 -63.330790124210331 -26.460662107440839 0 0 0 1 I I #
coedge $-1 $169 $168 $341 $342 forward $96 $-1 #
edge $-1 $343 -3.9640993478890465 $171 3.9640993478890536 $253 $344 forward 7 unknown #
point $-1 -63.330790124210331 26.460662107440839 0.00039576766233073712 #
point $-1 -63.330790124210331 -26.460662107440839 0.00039576766233073712 #
loop $-1 $-1 $182 $173 #
plane-surface $-1 63.330790124210331 0 0 -1 0 0 0 0 1 forward_v I I I I #
coedge $-1 $345 $176 $181 $270 forward $104 $-1 #
coedge $-1 $176 $345 $267 $346 reversed $104 $-1 #
edge $-1 $268 30.914350060231293 $275 35.712455276250054 $176 $347 forward 7 unknown #
coedge $-1 $185 $179 $265 $346 forward $174 $-1 #
vertex $-1 $346 $348 #
straight-curve $-1 38.134325125086214 -63.808549447095764 9.6000351308712055 0 -1 0 I I #
edge $-1 $275 12.768046312762078 $273 37.964511311886199 $264 $349 forward 7 unknown #
coedge $-1 $272 $182 $185 $277 reversed $262 $-1 #
coedge $-1 $182 $271 $345 $350 forward $262 $-1 #
vertex $-1 $270 $351 #
straight-curve $-1 63.330790124210331 -22.822861302876341 9.6294547718918189 0 0.60181501223851219 0.79863551827123203 I I #
vertex $-1 $270 $352 #
straight-curve $-1 38.134325125086214 -26.460662107440854 4.8019299148524226 0 0.60181501223851219 0.79863551827123203 I I #
edge $-1 $353 -26.460662107440839 $186 -22.845030591889682 $271 $354 forward 7 unknown #
point $-1 63.330790124210331 -22.845030591889682 9.6000351308712037 #
point $-1 38.134325125086214 -22.845030591889682 9.6000351308712037 #
edge $-1 $355 1 $355 0 $189 $-1 forward 7 unknown #
vertex $-1 $190 $356 #
ellipse-curve $-1 45.333315124835956 -23.208772845704161 6.1127951162449916 0 -0.79863551827123203 0.60181501223851219 1.5 0 0 1 I I #
point $-1 46.833315124835956 -24.652846349665253 7.2009825228618167 #
edge $-1 $357 1 $357 0 $193 $-1 forward 7 unknown #
vertex $-1 $194 $358 #
ellipse-curve $-1 56.131800124460575 -23.208772845704161 6.1127951162449916 0 -0.79863551827123203 0.60181501223851219 1.5 0 0 1 I I #
point $-1 57.631800124460575 -24.652846349665253 7.2009825228618167 #
loop $-1 $-1 $205 $197 #
plane-surface $-1 0 26.460662107440839 0 0 -1 0 0 0 -1 forward_v I I I I #
coedge $-1 $291 $200 $202 $295 reversed $126 $-1 #
coedge $-1 $200 $290 $359 $360 reversed $126 $-1 #
coedge $-1 $208 $203 $200 $293 forward $198 $-1 #
edge $-1 $296 -28.881776847582536 $361 -23.470003690385511 $292 $362 forward 7 unknown #
coedge $-1 $202 $201 $299 $363 reversed $79 $-1 #
edge $-1 $364 -52.921324214881707 $296 -43.486185454253885 $290 $365 forward 7 unknown #
vertex $-1 $204 $366 #
straight-curve $-1 -10.615901930041591 21.048888950243814 9.6000351308712055 1 0 0 I I #
coedge $-1 $359 $205 $208 $303 reversed $288 $-1 #
coedge $-1 $205 $359 $294 $363 forward $288 $-1 #
vertex $-1 $206 $367 #
straight-curve $-1 -33.118730387210057 26.460662107440839 58.935964773951795 0 0 1 I I #
straight-curve $-1 -33.118730387210057 -3.893761827958798 45.221833197762649 0 0.57357642473473569 -0.81915205242281985 I I #
edge $-1 $361 9.34487733295631 $209 33.118730387210057 $298 $368 forward 7 unknown #
point $-1 -33.118730387210057 26.460662107440839 9.6000351308712037 #
point $-1 -33.118730387210057 21.048888950243814 9.6000351308712055 #
edge $-1 $369 1 $369 0 $212 $-1 forward 7 unknown #
vertex $-1 $213 $370 #
ellipse-curve $-1 -21.231803860083183 21.700320581970988 4.2970836932466261 0 0.81915205242281985 0.57357642473473569 1.5 0 0 1 I I #
point $-1 -19.731803860083183 23.754775528842341 5.7356284905400292 #
plane-surface $-1 63.330790124210331 0 0 -1 0 0 0 0 1 forward_v I I I I #
coedge $-1 $219 $320 $222 $314 reversed $141 $-1 #
vertex $-1 $314 $371 #
straight-curve $-1 -63.330790124210331 -26.460662107440839 0 0 0 -1 I I #
edge $-1 $312 -26.460662107440839 $316 26.460662107440839 $311 $372 forward 7 unknown #
straight-curve $-1 0 -26.460662107440839 -9.6000351308712037 -1 0 0 I I #
vertex $-1 $225 $373 #
straight-curve $-1 0 26.460662107440839 -9.6000351308712037 1 0 0 I I #
point $-1 63.330790124210331 26.460662107440839 -9.6000351308712037 #
point $-1 63.330790124210331 -26.460662107440839 -9.6000351308712037 #
coedge $-1 $311 $229 $232 $322 forward $141 $-1 #
straight-curve $-1 -63.330790124210331 0 9.6000351308712037 0 -1 0 I I #
edge $-1 $233 -9.6000351308712037 $316 9.6000351308712037 $232 $374 forward 7 unknown #
point $-1 -63.330790124210331 26.460662107440839 9.6000351308712037 #
point $-1 -63.330790124210331 -26.460662107440839 9.6000351308712037 #
straight-curve $-1 63.330790124210331 -26.460662107440839 0 0 0 -1 I I #
straight-curve $-1 63.330790124210331 26.460662107440839 0 0 0 -1 I I #
plane-surface $-1 0 -26.460662107440839 0 0 1 0 0 0 1 forward_v I I I I #
coedge $-1 $375 $341 $246 $330 forward $243 $-1 #
coedge $-1 $331 $245 $254 $339 forward $160 $-1 #
edge $-1 $334 -1.9660339898590418 $332 1.9660339898590418 $246 $376 forward 7 unknown #
coedge $-1 $247 $329 $375 $377 forward $160 $-1 #
vertex $-1 $248 $378 #
straight-curve $-1 -67.294889472099385 26.460662107440839 -3.9316722120557528 1 0 0 I I #
vertex $-1 $249 $379 #
straight-curve $-1 -67.294889472099385 26.460662107440839 0.00039576766233073712 -1 0 0 I I #
point $-1 -63.330790124210331 26.460662107440839 -3.9316722120557528 #
straight-curve $-1 -63.330790124210331 0 -3.9316722120557528 0 1 0 I I #
coedge $-1 $254 $253 $380 $381 forward $255 $-1 #
edge $-1 $256 -3.9640993478890536 $382 3.9640993478890465 $254 $383 forward 7 unknown #
point $-1 -63.330790124210331 -26.460662107440839 -3.9316722120557528 #
coedge $-1 $328 $380 $258 $342 reversed $243 $-1 #
edge $-1 $334 -26.460662107440839 $343 26.460662107440839 $341 $384 forward 7 unknown #
vertex $-1 $342 $385 #
straight-curve $-1 -67.294889472099385 -26.460662107440839 0.00039576766233073712 1 0 0 I I #
coedge $-1 $265 $264 $272 $350 reversed $104 $-1 #
edge $-1 $268 38.134325125086214 $353 63.330790124210331 $265 $386 forward 7 unknown #
straight-curve $-1 38.134325125086214 -26.460662107440839 40.514385191102498 0 0 -1 I I #
point $-1 38.134325125086214 -26.460662107440839 9.6000351308712037 #
straight-curve $-1 25.366278812324136 -26.460662107440839 4.8019299148524404 1 0 0 I I #
edge $-1 $353 -9.6000351308712037 $273 -4.8019299148524413 $272 $387 forward 7 unknown #
point $-1 63.330790124210331 -26.460662107440839 4.8019299148524413 #
point $-1 38.134325125086214 -26.460662107440839 4.8019299148524413 #
vertex $-1 $277 $388 #
straight-curve $-1 63.330790124210331 0 9.6000351308712037 0 1 0 I I #
vertex $-1 $280 $389 #
point $-1 46.833315124835956 -23.208772845704161 6.1127951162449916 #
vertex $-1 $284 $390 #
point $-1 57.631800124460575 -23.208772845704161 6.1127951162449916 #
coedge $-1 $299 $298 $291 $360 forward $288 $-1 #
edge $-1 $361 49.33592964308059 $364 57.064742923742969 $359 $391 forward 7 unknown #
vertex $-1 $303 $392 #
straight-curve $-1 -9.34487733295631 49.93066579782635 9.6000351308712055 0 1 0 I I #
edge $-1 $364 -1.2710245970852814 $300 22.502828457168466 $299 $393 forward 7 unknown #
vertex $-1 $363 $394 #
straight-curve $-1 -9.34487733295631 -3.893761827958798 45.221833197762649 0 -0.57357642473473569 0.81915205242281985 I I #
point $-1 -9.34487733295631 21.048888950243814 9.6000351308712055 #
point $-1 -33.118730387210057 26.460662107440839 1.8712218502088263 #
straight-curve $-1 0 26.460662107440839 9.6000351308712037 -1 0 0 I I #
vertex $-1 $306 $395 #
point $-1 -19.731803860083183 21.700320581970988 4.2970836932466261 #
point $-1 -63.330790124210331 -26.460662107440839 -9.6000351308712037 #
straight-curve $-1 -63.330790124210331 0 -9.6000351308712037 0 1 0 I I #
point $-1 -63.330790124210331 26.460662107440839 -9.6000351308712037 #
straight-curve $-1 -63.330790124210331 26.460662107440839 0 0 0 -1 I I #
coedge $-1 $380 $328 $331 $377 reversed $243 $-1 #
straight-curve $-1 -71.258988819988431 26.460662107440839 -1.965638222196711 0 0 -1 I I #
edge $-1 $382 -26.460662107440839 $332 26.460662107440839 $375 $396 forward 7 unknown #
point $-1 -71.258988819988431 26.460662107440839 -3.9316722120557528 #
point $-1 -71.258988819988431 26.460662107440839 0.00039576766233073712 #
coedge $-1 $341 $375 $338 $381 reversed $243 $-1 #
edge $-1 $343 -1.9660339898590418 $382 1.9660339898590418 $380 $397 forward 7 unknown #
vertex $-1 $377 $398 #
straight-curve $-1 -67.294889472099385 -26.460662107440839 -3.9316722120557528 -1 0 0 I I #
straight-curve $-1 -71.258988819988431 0 0.00039576766233073712 0 -1 0 I I #
point $-1 -71.258988819988431 -26.460662107440839 0.00039576766233073712 #
straight-curve $-1 0 -26.460662107440839 9.6000351308712037 1 0 0 I I #
straight-curve $-1 63.330790124210331 -26.460662107440839 0 0 0 -1 I I #
point $-1 63.330790124210331 -26.460662107440839 9.6000351308712037 #
point $-1 45.333315124835956 -22.010819568297315 5.2100725978872235 #
point $-1 56.131800124460575 -22.010819568297315 5.2100725978872235 #
straight-curve $-1 -9.34487733295631 26.460662107440839 58.935964773951795 0 0 -1 I I #
point $-1 -9.34487733295631 26.460662107440839 9.6000351308712037 #
straight-curve $-1 -10.615901930041591 26.460662107440843 1.8712218502088263 -1 0 0 I I #
point $-1 -9.34487733295631 26.460662107440839 1.8712218502088263 #
point $-1 -21.231803860083183 20.471592503336762 3.4367190561445229 #
straight-curve $-1 -71.258988819988431 0 -3.9316722120557528 0 1 0 I I #
straight-curve $-1 -71.258988819988431 -26.460662107440839 -1.965638222196711 0 0 -1 I I #
point $-1 -71.258988819988431 -26.460662107440839 -3.9316722120557528 #
End-of-ACIS-data 