500 0 12 0           
7 Unknown 11 ACIS 5.0 NT 24 Fri Mar 26 20:17:07 1999 
-1 9.9999999999999995e-007 1e-010 
body $-1 $12 $-1 $13 #
body $-1 $14 $-1 $15 #
body $-1 $16 $-1 $17 #
body $-1 $18 $-1 $19 #
body $-1 $20 $-1 $21 #
body $-1 $22 $-1 $23 #
body $-1 $24 $-1 $25 #
body $-1 $26 $-1 $27 #
body $-1 $28 $-1 $29 #
body $-1 $30 $-1 $31 #
body $-1 $32 $-1 $33 #
body $-1 $34 $-1 $35 #
lump $-1 $-1 $36 $0 #
transform $-1 1 0 0 0 1 0 0 0 1 65.069124423963132 32.328236273456533 13.841540512553212 1 rotate no_reflect no_shear #
lump $-1 $-1 $37 $1 #
transform $-1 1 0 0 0 1 0 0 0 1 65.069124423963132 32.328236273456533 13.841540512553212 1 rotate no_reflect no_shear #
lump $-1 $-1 $38 $2 #
transform $-1 1 0 0 0 1 0 0 0 1 65.069124423963132 32.328236273456533 13.841540512553212 1 rotate no_reflect no_shear #
lump $-1 $-1 $39 $3 #
transform $-1 1 0 0 0 1 0 0 0 1 65.069124423963132 32.328236273456533 13.841540512553212 1 rotate no_reflect no_shear #
lump $-1 $-1 $40 $4 #
transform $-1 1 0 0 0 1 0 0 0 1 65.069124423963132 32.328236273456533 13.841540512553212 1 rotate no_reflect no_shear #
lump $-1 $-1 $41 $5 #
transform $-1 1 0 0 0 1 0 0 0 1 65.069124423963132 32.328236273456533 13.841540512553212 1 rotate no_reflect no_shear #
lump $-1 $-1 $42 $6 #
transform $-1 1 0 0 0 1 0 0 0 1 65.069124423963132 32.328236273456533 13.841540512553212 1 rotate no_reflect no_shear #
lump $-1 $-1 $43 $7 #
transform $-1 1 0 0 0 1 0 0 0 1 65.069124423963132 32.328236273456533 13.841540512553212 1 rotate no_reflect no_shear #
lump $-1 $-1 $44 $8 #
transform $-1 1 0 0 0 1 0 0 0 1 65.069124423963132 32.328236273456533 13.841540512553212 1 rotate no_reflect no_shear #
lump $-1 $-1 $45 $9 #
transform $-1 1 0 0 0 1 0 0 0 1 65.069124423963132 32.328236273456533 13.841540512553212 1 rotate no_reflect no_shear #
lump $-1 $-1 $46 $10 #
transform $-1 1 0 0 0 1 0 0 0 1 65.069124423963132 32.328236273456533 13.841540512553212 1 rotate no_reflect no_shear #
lump $-1 $-1 $47 $11 #
transform $-1 1 0 0 0 1 0 0 0 1 65.069124423963132 32.328236273456533 13.841540512553212 1 rotate no_reflect no_shear #
shell $-1 $-1 $-1 $48 $-1 $12 #
shell $-1 $-1 $-1 $49 $-1 $14 #
shell $-1 $-1 $-1 $50 $-1 $16 #
shell $-1 $-1 $-1 $51 $-1 $18 #
shell $-1 $-1 $-1 $52 $-1 $20 #
shell $-1 $-1 $-1 $53 $-1 $22 #
shell $-1 $-1 $-1 $54 $-1 $24 #
shell $-1 $-1 $-1 $55 $-1 $26 #
shell $-1 $-1 $-1 $56 $-1 $28 #
shell $-1 $-1 $-1 $57 $-1 $30 #
shell $-1 $-1 $-1 $58 $-1 $32 #
shell $-1 $-1 $-1 $59 $-1 $34 #
face $-1 $60 $61 $36 $-1 $62 forward single #
face $-1 $63 $64 $37 $-1 $65 forward single #
face $-1 $66 $67 $38 $-1 $68 reversed single #
face $-1 $69 $70 $39 $-1 $71 forward single #
face $-1 $72 $73 $40 $-1 $74 forward single #
face $-1 $75 $76 $41 $-1 $77 reversed single #
face $-1 $78 $79 $42 $-1 $80 forward single #
face $-1 $81 $82 $43 $-1 $83 forward single #
face $-1 $84 $85 $44 $-1 $86 reversed single #
face $-1 $87 $88 $45 $-1 $89 forward single #
face $-1 $90 $91 $46 $-1 $92 reversed single #
face $-1 $93 $94 $47 $-1 $95 forward single #
face $-1 $96 $97 $36 $-1 $98 reversed single #
loop $-1 $-1 $99 $48 #
plane-surface $-1 0 0 13.841540512553212 0 0 1 1 0 0 forward_v I I I I #
face $-1 $100 $101 $37 $-1 $102 reversed single #
loop $-1 $-1 $103 $49 #
plane-surface $-1 0 -32.328236273456533 0 0 1 0 0 0 1 forward_v I I I I #
face $-1 $104 $105 $38 $-1 $106 reversed single #
loop $-1 $-1 $107 $50 #
plane-surface $-1 -150.44749863592716 -8.6781661602788844 103.64082662306576 0 1 0 -0.6560590369687036 0 0.75470957328743171 forward_v I I I I #
face $-1 $108 $109 $39 $-1 $110 forward single #
loop $-1 $111 $112 $51 #
cone-surface $-1 -58.933740653125405 -6.235113712669655 8.144444485594466 0.6560590369687036 0 -0.75470957328743171 0.75470957328743171 0 0.6560590369687036 1 I I 0 1 1 forward I I I I #
face $-1 $113 $114 $40 $-1 $115 forward single #
loop $-1 $116 $117 $52 #
cone-surface $-1 -58.933740653125405 -2.570535041255809 8.144444485594466 0.6560590369687036 0 -0.75470957328743171 0.75470957328743171 0 0.6560590369687036 1 I I 0 1 1 forward I I I I #
face $-1 $118 $119 $41 $-1 $120 reversed single #
loop $-1 $-1 $121 $53 #
plane-surface $-1 -150.44749863592716 18.661514197221486 103.64082662306576 0 1 0 -0.6560590369687036 0 0.75470957328743171 forward_v I I I I #
face $-1 $122 $123 $42 $-1 $124 forward single #
loop $-1 $125 $126 $54 #
cone-surface $-1 -58.933740653125405 21.104566644830712 8.144444485594466 0.6560590369687036 0 -0.75470957328743171 0.75470957328743171 0 0.6560590369687036 1 I I 0 1 1 forward I I I I #
face $-1 $127 $128 $43 $-1 $129 forward single #
loop $-1 $130 $131 $55 #
cone-surface $-1 -58.933740653125405 24.769145316244554 8.144444485594466 0.6560590369687036 0 -0.75470957328743171 0.75470957328743171 0 0.6560590369687036 1 I I 0 1 1 forward I I I I #
face $-1 $132 $133 $44 $-1 $134 reversed single #
loop $-1 $-1 $135 $56 #
plane-surface $-1 112.70303225647254 -9.4483385022960888 187.48245718711414 0 -1 0 -0.86602541151947299 0 -0.49999998660252726 forward_v I I I I #
face $-1 $136 $137 $45 $-1 $138 forward single #
loop $-1 $139 $140 $57 #
cone-surface $-1 63.346403577770978 -15.899731471920148 11.469848314992266 -0.86602541151947299 0 -0.49999998660252726 0.24999999330126363 0 -0.43301270575973649 1 I I 0 1 0.5 forward I I I I #
face $-1 $141 $142 $46 $-1 $143 reversed single #
loop $-1 $-1 $144 $58 #
plane-surface $-1 112.70303225647254 19.425450334208424 187.48245718711414 0 1 0 0.86602541151947299 0 0.49999998660252726 forward_v I I I I #
face $-1 $145 $146 $47 $-1 $147 forward single #
loop $-1 $148 $149 $59 #
cone-surface $-1 63.346403577770978 25.876843303832473 11.469848314992266 -0.86602541151947299 0 -0.49999998660252726 0.24999999330126363 0 -0.43301270575973649 1 I I 0 1 0.5 forward I I I I #
face $-1 $150 $151 $36 $-1 $152 reversed single #
loop $-1 $-1 $153 $60 #
plane-surface $-1 0 0 -13.841540512553212 0 0 1 1 0 0 forward_v I I I I #
coedge $-1 $154 $155 $156 $157 forward $61 $-1 #
face $-1 $158 $159 $37 $-1 $160 reversed single #
loop $-1 $-1 $161 $63 #
plane-surface $-1 0 0 -13.841540512553212 0 0 1 1 0 0 forward_v I I I I #
coedge $-1 $162 $163 $164 $165 forward $64 $-1 #
face $-1 $166 $167 $38 $-1 $168 reversed single #
loop $-1 $-1 $169 $66 #
plane-surface $-1 -65.06912442396316 -4.4028243769627338 5.424244366673733 -0.6560590369687036 0 0.75470957328743171 0.75470957328743171 0 0.6560590369687036 forward_v I I I I #
coedge $-1 $170 $171 $172 $173 reversed $67 $-1 #
face $-1 $-1 $174 $39 $-1 $175 forward single #
loop $-1 $176 $177 $69 #
cone-surface $-1 -57.31182304065787 -6.235113712669655 6.2786417449317575 0.6560590369687036 0 -0.75470957328743171 0.37735478664371586 0 0.3280295184843518 1 I I -0.70710678118654746 0.70710678118654746 0.5 forward I I I I #
loop $-1 $-1 $178 $51 #
coedge $-1 $112 $112 $179 $180 reversed $70 $-1 #
face $-1 $-1 $181 $40 $-1 $182 forward single #
loop $-1 $183 $184 $72 #
cone-surface $-1 -57.31182304065787 -2.570535041255809 6.2786417449317575 0.6560590369687036 0 -0.75470957328743171 0.37735478664371586 0 0.3280295184843518 1 I I -0.70710678118654746 0.70710678118654746 0.5 forward I I I I #
loop $-1 $-1 $185 $52 #
coedge $-1 $117 $117 $186 $187 reversed $73 $-1 #
face $-1 $188 $189 $41 $-1 $190 reversed single #
loop $-1 $-1 $191 $75 #
plane-surface $-1 -65.06912442396316 22.936855980537636 5.424244366673733 -0.6560590369687036 0 0.75470957328743171 0.75470957328743171 0 0.6560590369687036 forward_v I I I I #
coedge $-1 $192 $193 $194 $195 reversed $76 $-1 #
face $-1 $-1 $196 $42 $-1 $197 forward single #
loop $-1 $198 $199 $78 #
cone-surface $-1 -57.31182304065787 21.104566644830712 6.2786417449317575 0.6560590369687036 0 -0.75470957328743171 0.37735478664371586 0 0.3280295184843518 1 I I -0.70710678118654746 0.70710678118654746 0.5 forward I I I I #
loop $-1 $-1 $200 $54 #
coedge $-1 $126 $126 $201 $202 reversed $79 $-1 #
face $-1 $-1 $203 $43 $-1 $204 forward single #
loop $-1 $205 $206 $81 #
cone-surface $-1 -57.31182304065787 24.769145316244554 6.2786417449317575 0.6560590369687036 0 -0.75470957328743171 0.37735478664371586 0 0.3280295184843518 1 I I -0.70710678118654746 0.70710678118654746 0.5 forward I I I I #
loop $-1 $-1 $207 $55 #
coedge $-1 $131 $131 $208 $209 reversed $82 $-1 #
face $-1 $210 $211 $44 $-1 $212 reversed single #
loop $-1 $-1 $213 $84 #
plane-surface $-1 1.7435236117080422e-006 -15.899731471920145 122.41333450667464 0.86602541151947299 0 0.49999998660252726 0.49999998660252726 0 -0.86602541151947299 forward_v I I I I #
coedge $-1 $214 $215 $216 $217 reversed $85 $-1 #
face $-1 $-1 $218 $45 $-1 $219 forward single #
loop $-1 $220 $221 $87 #
cone-surface $-1 62.599761594207479 -15.899731471920148 11.038774380194408 -0.86602541151947299 0 -0.49999998660252726 0.12499999665063181 0 -0.21650635287986825 1 I I -0.70710678118654746 0.70710678118654746 0.25 forward I I I I #
loop $-1 $-1 $222 $57 #
coedge $-1 $140 $140 $223 $224 reversed $88 $-1 #
face $-1 $225 $226 $46 $-1 $227 reversed single #
loop $-1 $-1 $228 $90 #
plane-surface $-1 1.7435236117080422e-006 25.87684330383248 122.41333450667464 0.86602541151947299 0 0.49999998660252726 0.49999998660252726 0 -0.86602541151947299 forward_v I I I I #
coedge $-1 $229 $230 $231 $232 reversed $91 $-1 #
face $-1 $-1 $233 $47 $-1 $234 forward single #
loop $-1 $235 $236 $93 #
cone-surface $-1 62.599761594207479 25.876843303832473 11.038774380194408 -0.86602541151947299 0 -0.49999998660252726 0.12499999665063181 0 -0.21650635287986825 1 I I -0.70710678118654746 0.70710678118654746 0.25 forward I I I I #
loop $-1 $-1 $237 $59 #
coedge $-1 $149 $149 $238 $239 reversed $94 $-1 #
face $-1 $240 $241 $36 $-1 $242 reversed single #
loop $-1 $-1 $243 $96 #
plane-surface $-1 0 -32.328236273456533 0 0 1 0 0 0 1 forward_v I I I I #
coedge $-1 $244 $245 $246 $247 forward $97 $-1 #
coedge $-1 $248 $99 $249 $250 forward $61 $-1 #
coedge $-1 $99 $248 $251 $252 forward $61 $-1 #
coedge $-1 $253 $254 $99 $157 reversed $255 $-1 #
edge $-1 $256 -32.328236273456533 $257 32.328236273456533 $156 $258 forward 7 unknown #
face $-1 $259 $260 $37 $-1 $261 forward single #
loop $-1 $-1 $262 $100 #
plane-surface $-1 65.069124423963132 0 0 -1 0 0 0 0 1 forward_v I I I I #
coedge $-1 $263 $264 $265 $266 forward $101 $-1 #
coedge $-1 $265 $103 $262 $267 reversed $64 $-1 #
coedge $-1 $103 $265 $268 $269 reversed $64 $-1 #
coedge $-1 $270 $271 $103 $165 reversed $260 $-1 #
edge $-1 $272 -65.069124423963132 $273 65.069124423963132 $164 $274 forward 7 unknown #
face $-1 $275 $276 $38 $-1 $277 forward single #
loop $-1 $-1 $278 $104 #
plane-surface $-1 -150.44749863592716 -0.1274825936465831 103.64082662306576 0 -1 0 0.6560590369687036 0 -0.75470957328743171 forward_v I I I I #
coedge $-1 $279 $280 $281 $282 reversed $105 $-1 #
coedge $-1 $171 $107 $283 $284 reversed $67 $-1 #
coedge $-1 $107 $170 $279 $285 reversed $67 $-1 #
coedge $-1 $281 $286 $107 $173 forward $276 $-1 #
edge $-1 $287 10.154624894000449 $288 19.837616247709477 $172 $289 forward 7 unknown #
loop $-1 $-1 $179 $108 #
plane-surface $-1 -65.06912442396316 -4.4028243769627338 5.424244366673733 -0.6560590369687036 0 0.75470957328743171 0.75470957328743171 0 0.6560590369687036 forward_v I I I I #
loop $-1 $-1 $290 $69 #
coedge $-1 $177 $177 $178 $291 reversed $109 $-1 #
coedge $-1 $178 $178 $177 $291 forward $111 $-1 #
coedge $-1 $179 $179 $112 $180 forward $174 $-1 #
edge $-1 $292 0 $292 6.2831853071796004 $179 $293 forward 7 unknown #
loop $-1 $-1 $186 $113 #
plane-surface $-1 -65.06912442396316 -4.4028243769627338 5.424244366673733 -0.6560590369687036 0 0.75470957328743171 0.75470957328743171 0 0.6560590369687036 forward_v I I I I #
loop $-1 $-1 $294 $72 #
coedge $-1 $184 $184 $185 $295 reversed $114 $-1 #
coedge $-1 $185 $185 $184 $295 forward $116 $-1 #
coedge $-1 $186 $186 $117 $187 forward $181 $-1 #
edge $-1 $296 0 $296 6.2831853071796004 $186 $297 forward 7 unknown #
face $-1 $298 $299 $41 $-1 $300 forward single #
loop $-1 $-1 $301 $118 #
plane-surface $-1 -150.44749863592716 27.212197763853787 103.64082662306576 0 -1 0 0.6560590369687036 0 -0.75470957328743171 forward_v I I I I #
coedge $-1 $302 $303 $304 $305 reversed $119 $-1 #
coedge $-1 $193 $121 $306 $307 reversed $76 $-1 #
coedge $-1 $121 $192 $302 $308 reversed $76 $-1 #
coedge $-1 $304 $309 $121 $195 forward $299 $-1 #
edge $-1 $310 10.154624894000449 $311 19.837616247709477 $194 $312 forward 7 unknown #
loop $-1 $-1 $201 $122 #
plane-surface $-1 -65.06912442396316 22.936855980537636 5.424244366673733 -0.6560590369687036 0 0.75470957328743171 0.75470957328743171 0 0.6560590369687036 forward_v I I I I #
loop $-1 $-1 $313 $78 #
coedge $-1 $199 $199 $200 $314 reversed $123 $-1 #
coedge $-1 $200 $200 $199 $314 forward $125 $-1 #
coedge $-1 $201 $201 $126 $202 forward $196 $-1 #
edge $-1 $315 0 $315 6.2831853071796004 $201 $316 forward 7 unknown #
loop $-1 $-1 $208 $127 #
plane-surface $-1 -65.06912442396316 22.936855980537636 5.424244366673733 -0.6560590369687036 0 0.75470957328743171 0.75470957328743171 0 0.6560590369687036 forward_v I I I I #
loop $-1 $-1 $317 $81 #
coedge $-1 $206 $206 $207 $318 reversed $128 $-1 #
coedge $-1 $207 $207 $206 $318 forward $130 $-1 #
coedge $-1 $208 $208 $131 $209 forward $203 $-1 #
edge $-1 $319 0 $319 6.2831853071796004 $208 $320 forward 7 unknown #
face $-1 $321 $322 $44 $-1 $323 reversed single #
loop $-1 $-1 $324 $132 #
plane-surface $-1 112.70303225647254 -22.351124441544201 187.48245718711414 0 1 0 0.86602541151947299 0 0.49999998660252726 forward_v I I I I #
coedge $-1 $325 $326 $327 $328 reversed $133 $-1 #
coedge $-1 $215 $135 $329 $330 reversed $85 $-1 #
coedge $-1 $135 $214 $325 $331 reversed $85 $-1 #
coedge $-1 $327 $332 $135 $217 forward $333 $-1 #
edge $-1 $334 -8.7176082957268619 $335 -6.3324378647097888 $216 $336 forward 7 unknown #
loop $-1 $-1 $223 $136 #
plane-surface $-1 1.7435236117080422e-006 -15.899731471920145 122.41333450667464 0.86602541151947299 0 0.49999998660252726 0.49999998660252726 0 -0.86602541151947299 forward_v I I I I #
loop $-1 $-1 $337 $87 #
coedge $-1 $221 $221 $222 $338 reversed $137 $-1 #
coedge $-1 $222 $222 $221 $338 forward $139 $-1 #
coedge $-1 $223 $223 $140 $224 forward $218 $-1 #
edge $-1 $339 0 $339 6.2831853071796004 $223 $340 forward 7 unknown #
face $-1 $341 $342 $46 $-1 $343 forward single #
loop $-1 $-1 $231 $141 #
plane-surface $-1 65.069124423963132 0 0 -1 0 0 0 0 1 forward_v I I I I #
coedge $-1 $344 $345 $346 $347 reversed $142 $-1 #
coedge $-1 $230 $144 $348 $349 reversed $91 $-1 #
coedge $-1 $144 $229 $344 $350 reversed $91 $-1 #
coedge $-1 $346 $351 $144 $232 forward $226 $-1 #
edge $-1 $352 79.899688081003859 $353 84.030924599831394 $231 $354 forward 7 unknown #
loop $-1 $-1 $238 $145 #
plane-surface $-1 1.7435236117080422e-006 25.87684330383248 122.41333450667464 0.86602541151947299 0 0.49999998660252726 0.49999998660252726 0 -0.86602541151947299 forward_v I I I I #
loop $-1 $-1 $355 $93 #
coedge $-1 $236 $236 $237 $356 reversed $146 $-1 #
coedge $-1 $237 $237 $236 $356 forward $148 $-1 #
coedge $-1 $238 $238 $149 $239 forward $233 $-1 #
edge $-1 $357 0 $357 6.2831853071796004 $238 $358 forward 7 unknown #
face $-1 $359 $360 $36 $-1 $361 reversed single #
loop $-1 $-1 $362 $150 #
plane-surface $-1 -65.069124423963132 0 0 1 0 0 0 0 -1 forward_v I I I I #
coedge $-1 $363 $251 $364 $365 forward $151 $-1 #
coedge $-1 $366 $153 $363 $367 forward $97 $-1 #
coedge $-1 $153 $366 $368 $369 forward $97 $-1 #
coedge $-1 $254 $253 $153 $247 reversed $255 $-1 #
edge $-1 $370 -32.328236273456533 $371 32.328236273456533 $246 $372 forward 7 unknown #
coedge $-1 $155 $154 $373 $374 forward $61 $-1 #
coedge $-1 $375 $376 $154 $250 reversed $360 $-1 #
edge $-1 $257 -65.069124423963132 $377 65.069124423963132 $249 $378 forward 7 unknown #
coedge $-1 $243 $379 $155 $252 reversed $151 $-1 #
edge $-1 $380 -65.069124423963132 $256 65.069124423963132 $251 $381 forward 7 unknown #
coedge $-1 $246 $156 $379 $382 forward $255 $-1 #
coedge $-1 $156 $246 $375 $383 reversed $255 $-1 #
loop $-1 $-1 $253 $359 #
vertex $-1 $157 $384 #
vertex $-1 $157 $385 #
straight-curve $-1 65.069124423963132 0 13.841540512553212 0 1 0 I I #
face $-1 $386 $387 $37 $-1 $388 reversed single #
loop $-1 $-1 $271 $158 #
plane-surface $-1 0 -37.316792189412695 -8.4609674321798103 0 0 1 1 0 0 forward_v I I I I #
coedge $-1 $389 $390 $162 $267 forward $159 $-1 #
coedge $-1 $391 $161 $390 $392 forward $101 $-1 #
coedge $-1 $161 $391 $393 $394 forward $101 $-1 #
coedge $-1 $163 $162 $161 $266 reversed $64 $-1 #
edge $-1 $395 -65.069124423963132 $396 65.069124423963132 $161 $397 forward 7 unknown #
edge $-1 $396 -13.841540512553212 $273 -8.4609674321798103 $262 $398 forward 7 unknown #
coedge $-1 $393 $399 $163 $269 forward $400 $-1 #
edge $-1 $272 8.4609674321798103 $395 13.841540512553212 $268 $401 forward 7 unknown #
coedge $-1 $402 $164 $399 $403 forward $260 $-1 #
coedge $-1 $164 $402 $389 $404 forward $260 $-1 #
vertex $-1 $269 $405 #
vertex $-1 $404 $406 #
straight-curve $-1 0 -32.328236273456533 -8.4609674321798103 1 0 0 I I #
face $-1 $-1 $407 $38 $-1 $408 reversed single #
loop $-1 $-1 $172 $166 #
plane-surface $-1 0 0 13.841540512553212 0 0 1 1 0 0 forward_v I I I I #
coedge $-1 $409 $410 $411 $412 reversed $167 $-1 #
coedge $-1 $413 $169 $171 $285 forward $105 $-1 #
coedge $-1 $169 $413 $409 $414 forward $105 $-1 #
coedge $-1 $411 $172 $169 $282 forward $276 $-1 #
edge $-1 $288 -6.4767539717975176 $415 2.0739295948347838 $281 $416 forward 7 unknown #
coedge $-1 $417 $418 $170 $284 forward $407 $-1 #
edge $-1 $419 -46.396168944859127 $287 -37.978872798979666 $283 $420 forward 7 unknown #
edge $-1 $288 -12.830089476049725 $419 -3.776566559949536e-014 $171 $421 forward 7 unknown #
coedge $-1 $172 $411 $417 $422 forward $276 $-1 #
vertex $-1 $284 $423 #
vertex $-1 $173 $424 #
straight-curve $-1 -75.223749317963581 -8.6781661602788844 13.841540512553209 1 0 0 I I #
coedge $-1 $290 $290 $-1 $425 reversed $176 $-1 #
edge $-1 $426 0 $426 6.2831853071796004 $177 $427 forward 7 unknown #
vertex $-1 $180 $428 #
ellipse-curve $-1 -60.227628747108618 -6.235113712669655 9.6328924396134887 -0.6560590369687036 0 0.75470957328743171 0.75470957328743171 0 0.6560590369687036 1 I I #
coedge $-1 $294 $294 $-1 $429 reversed $183 $-1 #
edge $-1 $430 0 $430 6.2831853071796004 $184 $431 forward 7 unknown #
vertex $-1 $187 $432 #
ellipse-curve $-1 -60.227628747108618 -2.570535041255809 9.6328924396134887 -0.6560590369687036 0 0.75470957328743171 0.75470957328743171 0 0.6560590369687036 1 I I #
face $-1 $-1 $433 $41 $-1 $434 reversed single #
loop $-1 $-1 $194 $188 #
plane-surface $-1 0 0 13.841540512553212 0 0 1 1 0 0 forward_v I I I I #
coedge $-1 $435 $436 $437 $438 reversed $189 $-1 #
coedge $-1 $439 $191 $193 $308 forward $119 $-1 #
coedge $-1 $191 $439 $435 $440 forward $119 $-1 #
coedge $-1 $437 $194 $191 $305 forward $299 $-1 #
edge $-1 $311 7.1930862069526675 $441 15.743769773584969 $304 $442 forward 7 unknown #
coedge $-1 $443 $444 $192 $307 forward $433 $-1 #
edge $-1 $445 -46.396168944859127 $310 -37.978872798979666 $306 $446 forward 7 unknown #
edge $-1 $311 -12.830089476049725 $445 -3.776566559949536e-014 $193 $447 forward 7 unknown #
coedge $-1 $194 $437 $443 $448 forward $299 $-1 #
vertex $-1 $195 $449 #
vertex $-1 $195 $450 #
straight-curve $-1 -75.223749317963581 18.661514197221486 13.841540512553209 1 0 0 I I #
coedge $-1 $313 $313 $-1 $451 reversed $198 $-1 #
edge $-1 $452 0 $452 6.2831853071796004 $199 $453 forward 7 unknown #
vertex $-1 $202 $454 #
ellipse-curve $-1 -60.227628747108618 21.104566644830712 9.6328924396134887 -0.6560590369687036 0 0.75470957328743171 0.75470957328743171 0 0.6560590369687036 1 I I #
coedge $-1 $317 $317 $-1 $455 reversed $205 $-1 #
edge $-1 $456 0 $456 6.2831853071796004 $206 $457 forward 7 unknown #
vertex $-1 $209 $458 #
ellipse-curve $-1 -60.227628747108618 24.769145316244554 9.6328924396134887 -0.6560590369687036 0 0.75470957328743171 0.75470957328743171 0 0.6560590369687036 1 I I #
face $-1 $-1 $333 $44 $-1 $459 forward single #
loop $-1 $-1 $460 $210 #
plane-surface $-1 65.069124423963132 0 0 -1 0 0 0 0 1 forward_v I I I I #
coedge $-1 $461 $462 $463 $464 reversed $211 $-1 #
coedge $-1 $465 $213 $215 $331 forward $133 $-1 #
coedge $-1 $213 $465 $461 $466 forward $133 $-1 #
coedge $-1 $463 $216 $213 $328 forward $333 $-1 #
edge $-1 $335 1.4984727663360164 $467 14.401258705584128 $327 $468 forward 7 unknown #
coedge $-1 $469 $470 $214 $330 forward $322 $-1 #
edge $-1 $471 -84.030924599831394 $334 -79.899688081003859 $329 $472 forward 7 unknown #
edge $-1 $335 125.36790785807113 $471 130.13824884792632 $215 $473 forward 7 unknown #
coedge $-1 $216 $463 $469 $474 forward $333 $-1 #
loop $-1 $-1 $463 $321 #
vertex $-1 $330 $475 #
vertex $-1 $217 $476 #
straight-curve $-1 56.35151612823627 -9.4483385022960888 13.841540512553209 -1 0 0 I I #
coedge $-1 $337 $337 $-1 $477 reversed $220 $-1 #
edge $-1 $478 0 $478 6.2831853071796004 $221 $479 forward 7 unknown #
vertex $-1 $224 $480 #
ellipse-curve $-1 63.876539208454581 -15.899731471920148 11.775922253139475 0.86602541151947299 0 0.49999998660252726 0.24999999330126363 0 -0.43301270575973649 1 I I #
face $-1 $-1 $481 $46 $-1 $482 reversed single #
loop $-1 $-1 $348 $225 #
plane-surface $-1 0 0 13.841540512553212 0 0 1 1 0 0 forward_v I I I I #
coedge $-1 $483 $228 $230 $350 forward $142 $-1 #
coedge $-1 $228 $483 $484 $485 reversed $142 $-1 #
coedge $-1 $486 $231 $228 $347 forward $226 $-1 #
edge $-1 $353 6.4870286822921841 $487 19.389814621540292 $346 $488 forward 7 unknown #
coedge $-1 $489 $490 $229 $349 forward $342 $-1 #
edge $-1 $491 6.3324378647097888 $352 8.7176082957268619 $348 $492 forward 7 unknown #
edge $-1 $353 -130.13824884792632 $491 -125.36790785807113 $230 $493 forward 7 unknown #
coedge $-1 $231 $486 $489 $494 reversed $226 $-1 #
vertex $-1 $494 $495 #
vertex $-1 $232 $496 #
straight-curve $-1 65.069124423963132 19.425450334208424 93.741228593557068 0 0 -1 I I #
coedge $-1 $355 $355 $-1 $497 reversed $235 $-1 #
edge $-1 $498 0 $498 6.2831853071796004 $236 $499 forward 7 unknown #
vertex $-1 $239 $500 #
ellipse-curve $-1 63.876539208454581 25.876843303832473 11.775922253139475 0.86602541151947299 0 0.49999998660252726 0.24999999330126363 0 -0.43301270575973649 1 I I #
face $-1 $-1 $255 $36 $-1 $501 reversed single #
loop $-1 $-1 $375 $240 #
plane-surface $-1 0 32.328236273456533 0 0 -1 0 0 0 -1 forward_v I I I I #
coedge $-1 $502 $373 $376 $503 forward $241 $-1 #
coedge $-1 $379 $243 $244 $367 reversed $151 $-1 #
coedge $-1 $373 $502 $243 $365 reversed $241 $-1 #
edge $-1 $380 -13.841540512553212 $504 13.841540512553212 $364 $505 forward 7 unknown #
coedge $-1 $245 $244 $502 $506 forward $97 $-1 #
edge $-1 $371 -65.069124423963132 $504 65.069124423963132 $363 $507 forward 7 unknown #
coedge $-1 $376 $375 $245 $369 reversed $360 $-1 #
edge $-1 $508 -65.069124423963132 $370 65.069124423963132 $368 $509 forward 7 unknown #
vertex $-1 $247 $510 #
vertex $-1 $382 $511 #
straight-curve $-1 65.069124423963132 0 -13.841540512553212 0 -1 0 I I #
coedge $-1 $362 $364 $248 $374 reversed $241 $-1 #
edge $-1 $377 -32.328236273456533 $380 32.328236273456533 $373 $512 forward 7 unknown #
coedge $-1 $368 $249 $254 $383 forward $360 $-1 #
coedge $-1 $249 $368 $362 $503 reversed $360 $-1 #
vertex $-1 $250 $513 #
straight-curve $-1 0 32.328236273456533 13.841540512553212 -1 0 0 I I #
coedge $-1 $251 $363 $253 $382 reversed $151 $-1 #
vertex $-1 $374 $514 #
straight-curve $-1 0 -32.328236273456533 13.841540512553212 1 0 0 I I #
edge $-1 $256 -13.841540512553212 $371 13.841540512553212 $253 $515 forward 7 unknown #
edge $-1 $257 -13.841540512553212 $370 13.841540512553212 $254 $516 forward 7 unknown #
point $-1 65.069124423963132 -32.328236273456533 13.841540512553212 #
point $-1 65.069124423963132 32.328236273456533 13.841540512553212 #
face $-1 $-1 $400 $37 $-1 $517 reversed single #
loop $-1 $-1 $518 $259 #
plane-surface $-1 0 -42.305348105368857 -11.151253972366511 0 1 0 0 0 1 forward_v I I I I #
coedge $-1 $519 $262 $271 $404 reversed $159 $-1 #
coedge $-1 $262 $519 $263 $392 reversed $159 $-1 #
coedge $-1 $264 $263 $520 $521 forward $101 $-1 #
edge $-1 $396 32.328236273456533 $522 42.305348105368857 $390 $523 forward 7 unknown #
coedge $-1 $524 $268 $264 $394 reversed $400 $-1 #
edge $-1 $525 -42.305348105368857 $395 -32.328236273456533 $393 $526 forward 7 unknown #
vertex $-1 $269 $527 #
vertex $-1 $392 $528 #
straight-curve $-1 0 -32.328236273456533 -13.841540512553212 1 0 0 I I #
straight-curve $-1 65.069124423963132 -32.328236273456533 0 0 0 1 I I #
coedge $-1 $268 $524 $270 $403 reversed $400 $-1 #
loop $-1 $-1 $268 $386 #
straight-curve $-1 -65.069124423963132 -32.328236273456533 0 0 0 -1 I I #
coedge $-1 $271 $270 $529 $530 forward $260 $-1 #
edge $-1 $272 -4.9885559159561623 $531 4.9885559159561623 $399 $532 forward 7 unknown #
edge $-1 $533 -4.9885559159561623 $273 4.9885559159561623 $389 $534 forward 7 unknown #
point $-1 -65.069124423963132 -32.328236273456533 -8.4609674321798103 #
point $-1 65.069124423963132 -32.328236273456533 -8.4609674321798103 #
loop $-1 $-1 $283 $275 #
plane-surface $-1 -65.069124423963132 0 0 1 0 0 0 0 -1 forward_v I I I I #
coedge $-1 $410 $278 $280 $414 reversed $167 $-1 #
coedge $-1 $278 $409 $535 $536 reversed $167 $-1 #
coedge $-1 $286 $281 $278 $412 forward $276 $-1 #
edge $-1 $415 -19.837616247709477 $537 -10.154624894000449 $411 $538 forward 7 unknown #
coedge $-1 $280 $279 $418 $539 reversed $105 $-1 #
edge $-1 $540 3.776566559949536e-014 $415 12.830089476049725 $409 $541 forward 7 unknown #
vertex $-1 $282 $542 #
straight-curve $-1 -55.386133070254111 -2.2014121884813669 13.841540512553214 0 1 0 I I #
coedge $-1 $535 $283 $286 $422 reversed $407 $-1 #
coedge $-1 $283 $535 $413 $539 forward $407 $-1 #
vertex $-1 $284 $543 #
straight-curve $-1 -65.069124423963132 -8.6781661602788844 51.820413311532882 0 0 1 I I #
straight-curve $-1 -65.06912442396316 -8.6781661602788844 5.424244366673733 -0.75470957328743171 0 -0.6560590369687036 I I #
edge $-1 $537 0.1274825936465831 $287 8.6781661602788844 $417 $544 forward 7 unknown #
point $-1 -65.069124423963132 -8.6781661602788844 13.841540512553212 #
point $-1 -55.386133070254104 -8.6781661602788844 13.841540512553212 #
edge $-1 $545 1 $545 0 $290 $-1 forward 7 unknown #
vertex $-1 $291 $546 #
ellipse-curve $-1 -57.63985255914222 -6.235113712669655 6.6559965315754734 -0.6560590369687036 0 0.75470957328743171 0.75470957328743171 0 0.6560590369687036 1 I I #
point $-1 -59.472919173821161 -6.235113712669655 10.288951476582163 #
edge $-1 $547 1 $547 0 $294 $-1 forward 7 unknown #
vertex $-1 $295 $548 #
ellipse-curve $-1 -57.63985255914222 -2.570535041255809 6.6559965315754734 -0.6560590369687036 0 0.75470957328743171 0.75470957328743171 0 0.6560590369687036 1 I I #
point $-1 -59.472919173821161 -2.570535041255809 10.288951476582163 #
loop $-1 $-1 $306 $298 #
plane-surface $-1 -65.069124423963132 0 0 1 0 0 0 0 -1 forward_v I I I I #
coedge $-1 $436 $301 $303 $440 reversed $189 $-1 #
coedge $-1 $301 $435 $549 $550 reversed $189 $-1 #
coedge $-1 $309 $304 $301 $438 forward $299 $-1 #
edge $-1 $441 -19.837616247709477 $551 -10.154624894000449 $437 $552 forward 7 unknown #
coedge $-1 $303 $302 $444 $553 reversed $119 $-1 #
edge $-1 $554 3.776566559949536e-014 $441 12.830089476049725 $435 $555 forward 7 unknown #
vertex $-1 $305 $556 #
straight-curve $-1 -55.386133070254111 11.468427990268818 13.841540512553214 0 1 0 I I #
coedge $-1 $549 $306 $309 $448 reversed $433 $-1 #
coedge $-1 $306 $549 $439 $553 forward $433 $-1 #
vertex $-1 $307 $557 #
straight-curve $-1 -65.069124423963132 18.661514197221486 51.820413311532882 0 0 1 I I #
straight-curve $-1 -65.06912442396316 18.661514197221486 5.424244366673733 -0.75470957328743171 0 -0.6560590369687036 I I #
edge $-1 $551 -27.212197763853787 $310 -18.661514197221486 $443 $558 forward 7 unknown #
point $-1 -65.069124423963132 18.661514197221486 13.841540512553212 #
point $-1 -55.386133070254104 18.661514197221486 13.841540512553212 #
edge $-1 $559 1 $559 0 $313 $-1 forward 7 unknown #
vertex $-1 $314 $560 #
ellipse-curve $-1 -57.63985255914222 21.104566644830712 6.6559965315754734 -0.6560590369687036 0 0.75470957328743171 0.75470957328743171 0 0.6560590369687036 1 I I #
point $-1 -59.472919173821161 21.104566644830712 10.288951476582163 #
edge $-1 $561 1 $561 0 $317 $-1 forward 7 unknown #
vertex $-1 $318 $562 #
ellipse-curve $-1 -57.63985255914222 24.769145316244554 6.6559965315754734 -0.6560590369687036 0 0.75470957328743171 0.75470957328743171 0 0.6560590369687036 1 I I #
point $-1 -59.472919173821161 24.769145316244554 10.288951476582163 #
plane-surface $-1 0 0 13.841540512553212 0 0 1 1 0 0 forward_v I I I I #
coedge $-1 $470 $469 $462 $563 forward $322 $-1 #
coedge $-1 $462 $324 $326 $466 reversed $211 $-1 #
coedge $-1 $324 $461 $460 $563 reversed $211 $-1 #
coedge $-1 $332 $327 $324 $464 forward $333 $-1 #
edge $-1 $467 6.3324378647097888 $564 8.7176082957268619 $463 $565 forward 7 unknown #
coedge $-1 $326 $325 $470 $566 reversed $133 $-1 #
edge $-1 $567 -130.13824884792632 $467 -125.36790785807113 $461 $568 forward 7 unknown #
vertex $-1 $328 $569 #
straight-curve $-1 62.683953992946051 -7.9498657359600724 13.841540512553209 0 -1 0 I I #
coedge $-1 $460 $329 $332 $474 reversed $322 $-1 #
coedge $-1 $329 $460 $465 $566 forward $322 $-1 #
vertex $-1 $330 $570 #
straight-curve $-1 65.069124423963132 -9.4483385022960888 93.741228593557068 0 0 1 I I #
straight-curve $-1 1.7435236117080422e-006 -9.4483385022960888 122.41333450667464 0.49999998660252726 0 -0.86602541151947299 I I #
edge $-1 $564 -22.351124441544201 $334 -9.4483385022960888 $469 $571 forward 7 unknown #
point $-1 65.069124423963132 -9.4483385022960888 13.841540512553212 #
point $-1 62.683953992946059 -9.4483385022960888 13.841540512553209 #
edge $-1 $572 1 $572 0 $337 $-1 forward 7 unknown #
vertex $-1 $338 $573 #
ellipse-curve $-1 62.816267947087347 -15.899731471920148 11.163774376845039 0.86602541151947299 0 0.49999998660252726 0.24999999330126363 0 -0.43301270575973649 1 I I #
point $-1 64.126539201755875 -15.899731471920148 11.342909547379755 #
loop $-1 $-1 $484 $341 #
plane-surface $-1 0 32.328236273456533 0 0 -1 0 0 0 -1 forward_v I I I I #
coedge $-1 $345 $344 $490 $574 reversed $142 $-1 #
coedge $-1 $575 $576 $345 $485 forward $481 $-1 #
edge $-1 $487 -77.131720088000293 $577 -72.361379098145122 $484 $578 forward 7 unknown #
coedge $-1 $351 $346 $576 $579 reversed $226 $-1 #
vertex $-1 $347 $580 #
straight-curve $-1 65.069124423963132 12.93842165191624 9.7103039937256739 0 1 0 I I #
coedge $-1 $581 $348 $351 $494 forward $342 $-1 #
coedge $-1 $348 $581 $483 $574 forward $342 $-1 #
vertex $-1 $349 $582 #
straight-curve $-1 56.35151612823627 19.425450334208424 13.841540512553209 1 0 0 I I #
straight-curve $-1 1.7435236117080422e-006 19.425450334208424 122.41333450667464 -0.49999998660252726 0 0.86602541151947299 I I #
edge $-1 $352 19.425450334208424 $583 32.328236273456533 $351 $584 forward 7 unknown #
point $-1 65.069124423963132 19.425450334208424 13.841540512553212 #
point $-1 65.069124423963132 19.425450334208424 9.7103039937256739 #
edge $-1 $585 1 $585 0 $355 $-1 forward 7 unknown #
vertex $-1 $356 $586 #
ellipse-curve $-1 62.816267947087347 25.876843303832473 11.163774376845039 0.86602541151947299 0 0.49999998660252726 0.24999999330126363 0 -0.43301270575973649 1 I I #
point $-1 64.126539201755875 25.876843303832473 11.342909547379755 #
plane-surface $-1 65.069124423963132 0 0 -1 0 0 0 0 1 forward_v I I I I #
coedge $-1 $364 $362 $366 $506 reversed $241 $-1 #
edge $-1 $377 -13.841540512553212 $508 13.841540512553212 $376 $587 forward 7 unknown #
vertex $-1 $506 $588 #
straight-curve $-1 -65.069124423963132 -32.328236273456533 0 0 0 -1 I I #
edge $-1 $504 -32.328236273456533 $508 32.328236273456533 $502 $589 forward 7 unknown #
straight-curve $-1 0 -32.328236273456533 -13.841540512553212 -1 0 0 I I #
vertex $-1 $369 $590 #
straight-curve $-1 0 32.328236273456533 -13.841540512553212 1 0 0 I I #
point $-1 65.069124423963132 32.328236273456533 -13.841540512553212 #
point $-1 65.069124423963132 -32.328236273456533 -13.841540512553212 #
straight-curve $-1 -65.069124423963132 0 13.841540512553212 0 -1 0 I I #
point $-1 -65.069124423963132 32.328236273456533 13.841540512553212 #
point $-1 -65.069124423963132 -32.328236273456533 13.841540512553212 #
straight-curve $-1 65.069124423963132 -32.328236273456533 0 0 0 -1 I I #
straight-curve $-1 65.069124423963132 32.328236273456533 0 0 0 -1 I I #
plane-surface $-1 -65.069124423963132 0 0 1 0 0 0 0 -1 forward_v I I I I #
coedge $-1 $520 $529 $524 $591 forward $387 $-1 #
coedge $-1 $390 $389 $592 $593 forward $159 $-1 #
coedge $-1 $592 $518 $391 $521 reversed $387 $-1 #
edge $-1 $522 -65.069124423963132 $525 65.069124423963132 $520 $594 forward 7 unknown #
vertex $-1 $593 $595 #
straight-curve $-1 65.069124423963132 0 -13.841540512553212 0 -1 0 I I #
coedge $-1 $399 $393 $518 $591 reversed $400 $-1 #
vertex $-1 $394 $596 #
straight-curve $-1 -65.069124423963132 0 -13.841540512553212 0 1 0 I I #
point $-1 -65.069124423963132 -32.328236273456533 -13.841540512553212 #
point $-1 65.069124423963132 -32.328236273456533 -13.841540512553212 #
coedge $-1 $518 $592 $402 $530 reversed $387 $-1 #
edge $-1 $531 -65.069124423963132 $533 65.069124423963132 $529 $597 forward 7 unknown #
vertex $-1 $403 $598 #
straight-curve $-1 -65.069124423963132 -37.316792189412695 -8.4609674321798103 0 -1 0 I I #
vertex $-1 $404 $599 #
straight-curve $-1 65.069124423963132 -37.316792189412695 -8.4609674321798103 0 1 0 I I #
coedge $-1 $418 $417 $410 $536 forward $407 $-1 #
edge $-1 $537 37.978872798979666 $540 46.396168944859127 $535 $600 forward 7 unknown #
vertex $-1 $422 $601 #
straight-curve $-1 -75.223749317963581 -0.1274825936465831 13.841540512553209 -1 0 0 I I #
edge $-1 $540 -2.0739295948347838 $419 6.4767539717975176 $418 $602 forward 7 unknown #
vertex $-1 $539 $603 #
straight-curve $-1 -65.06912442396316 -0.1274825936465831 5.424244366673733 0.75470957328743171 0 0.6560590369687036 I I #
point $-1 -55.386133070254104 -0.1274825936465831 13.841540512553212 #
point $-1 -65.069124423963132 -8.6781661602788844 5.4242443666737579 #
straight-curve $-1 -65.069124423963132 0 13.841540512553212 0 -1 0 I I #
vertex $-1 $425 $604 #
point $-1 -56.885142985854792 -6.235113712669655 7.312055568544177 #
vertex $-1 $429 $605 #
point $-1 -56.885142985854792 -2.570535041255809 7.312055568544177 #
coedge $-1 $444 $443 $436 $550 forward $433 $-1 #
edge $-1 $551 37.978872798979666 $554 46.396168944859127 $549 $606 forward 7 unknown #
vertex $-1 $448 $607 #
straight-curve $-1 -75.223749317963581 27.212197763853787 13.841540512553209 -1 0 0 I I #
edge $-1 $554 -15.743769773584969 $445 -7.1930862069526675 $444 $608 forward 7 unknown #
vertex $-1 $553 $609 #
straight-curve $-1 -65.06912442396316 27.212197763853787 5.424244366673733 0.75470957328743171 0 0.6560590369687036 I I #
point $-1 -55.386133070254104 27.212197763853787 13.841540512553212 #
point $-1 -65.069124423963132 18.661514197221486 5.4242443666737579 #
straight-curve $-1 -65.069124423963132 0 13.841540512553212 0 -1 0 I I #
vertex $-1 $451 $610 #
point $-1 -56.885142985854792 21.104566644830712 7.312055568544177 #
vertex $-1 $455 $611 #
point $-1 -56.885142985854792 24.769145316244554 7.312055568544177 #
edge $-1 $564 79.899688081003859 $567 84.030924599831394 $460 $612 forward 7 unknown #
vertex $-1 $474 $613 #
straight-curve $-1 56.35151612823627 -22.351124441544201 13.841540512553209 1 0 0 I I #
edge $-1 $567 -14.401258705584128 $471 -1.4984727663360164 $470 $614 forward 7 unknown #
vertex $-1 $566 $615 #
straight-curve $-1 1.7435236117080422e-006 -22.351124441544201 122.41333450667464 -0.49999998660252726 0 0.86602541151947299 I I #
point $-1 62.683953992946059 -22.351124441544201 13.841540512553209 #
point $-1 65.069124423963132 -9.4483385022960888 9.7103039937256739 #
straight-curve $-1 65.069124423963132 0 13.841540512553212 0 1 0 I I #
vertex $-1 $477 $616 #
point $-1 63.066267940388613 -15.899731471920148 10.730761671085302 #
edge $-1 $577 -19.3898146215403 $491 -6.4870286822921841 $490 $617 forward 7 unknown #
coedge $-1 $576 $484 $581 $618 reversed $481 $-1 #
coedge $-1 $484 $575 $486 $579 forward $481 $-1 #
vertex $-1 $485 $619 #
straight-curve $-1 26.503265413333096 32.328236273456533 76.508333624140931 -0.49999998660252726 0 0.86602541151947299 I I #
edge $-1 $583 -13.841540512553212 $487 -9.7103039937256757 $486 $620 forward 7 unknown #
point $-1 65.069124423963132 32.328236273456533 9.7103039937256757 #
coedge $-1 $490 $489 $575 $618 forward $342 $-1 #
point $-1 62.683953992946059 19.425450334208424 13.841540512553209 #
vertex $-1 $494 $621 #
straight-curve $-1 65.069124423963132 0 13.841540512553212 0 1 0 I I #
vertex $-1 $497 $622 #
point $-1 63.066267940388613 25.876843303832473 10.730761671085302 #
straight-curve $-1 -65.069124423963132 32.328236273456533 0 0 0 -1 I I #
point $-1 -65.069124423963132 -32.328236273456533 -13.841540512553212 #
straight-curve $-1 -65.069124423963132 0 -13.841540512553212 0 1 0 I I #
point $-1 -65.069124423963132 32.328236273456533 -13.841540512553212 #
edge $-1 $531 -2.6902865401867011 $525 2.6902865401867011 $524 $623 forward 7 unknown #
coedge $-1 $529 $520 $519 $593 reversed $387 $-1 #
edge $-1 $533 -2.6902865401867011 $522 2.6902865401867011 $519 $624 forward 7 unknown #
straight-curve $-1 0 -42.305348105368857 -13.841540512553212 -1 0 0 I I #
point $-1 65.069124423963132 -42.305348105368857 -13.841540512553212 #
point $-1 -65.069124423963132 -42.305348105368857 -13.841540512553212 #
straight-curve $-1 0 -42.305348105368857 -8.4609674321798103 1 0 0 I I #
point $-1 -65.069124423963132 -42.305348105368857 -8.4609674321798103 #
point $-1 65.069124423963132 -42.305348105368857 -8.4609674321798103 #
straight-curve $-1 -65.069124423963132 -0.1274825936465831 51.820413311532882 0 0 -1 I I #
point $-1 -65.069124423963132 -0.1274825936465831 13.841540512553212 #
straight-curve $-1 -65.069124423963132 -2.2014121884813669 5.4242443666737632 0 -1 0 I I #
point $-1 -65.069124423963132 -0.1274825936465831 5.4242443666737579 #
point $-1 -56.983793522173521 -6.235113712669655 5.9012869582880416 #
point $-1 -56.983793522173521 -2.570535041255809 5.9012869582880416 #
straight-curve $-1 -65.069124423963132 27.212197763853787 51.820413311532882 0 0 -1 I I #
point $-1 -65.069124423963132 27.212197763853787 13.841540512553212 #
straight-curve $-1 -65.069124423963132 11.468427990268818 5.4242443666737632 0 -1 0 I I #
point $-1 -65.069124423963132 27.212197763853787 5.4242443666737579 #
point $-1 -56.983793522173521 21.104566644830712 5.9012869582880416 #
point $-1 -56.983793522173521 24.769145316244554 5.9012869582880416 #
straight-curve $-1 65.069124423963132 -22.351124441544201 93.741228593557068 0 0 -1 I I #
point $-1 65.069124423963132 -22.351124441544201 13.841540512553212 #
straight-curve $-1 65.069124423963132 -7.9498657359600724 9.7103039937256739 0 1 0 I I #
point $-1 65.069124423963132 -22.351124441544201 9.7103039937256739 #
point $-1 62.38325524132761 -15.899731471920148 10.913774383543776 #
straight-curve $-1 62.683953992946051 12.93842165191624 13.841540512553209 0 -1 0 I I #
edge $-1 $583 -65.069124423963132 $577 -62.683953992946059 $575 $625 forward 7 unknown #
point $-1 62.683953992946059 32.32823627345654 13.841540512553209 #
straight-curve $-1 65.069124423963132 32.328236273456533 0 0 0 -1 I I #
point $-1 65.069124423963132 32.328236273456533 13.841540512553212 #
point $-1 62.38325524132761 25.876843303832473 10.913774383543776 #
straight-curve $-1 -65.069124423963132 -42.305348105368857 -11.151253972366511 0 0 -1 I I #
straight-curve $-1 65.069124423963132 -42.305348105368857 -11.151253972366511 0 0 -1 I I #
straight-curve $-1 0 32.328236273456533 13.841540512553212 -1 0 0 I I #
End-of-ACIS-data 