500 0 7 0           
7 Unknown 11 ACIS 5.0 NT 24 Fri Mar 26 15:50:40 1999 
-1 9.9999999999999995e-007 1e-010 
body $-1 $7 $-1 $8 #
body $-1 $9 $-1 $10 #
body $-1 $11 $-1 $12 #
body $-1 $13 $-1 $14 #
body $-1 $15 $-1 $16 #
body $-1 $17 $-1 $18 #
body $-1 $19 $-1 $20 #
lump $-1 $-1 $21 $0 #
transform $-1 1 0 0 0 1 0 0 0 1 58.693197424237795 33.561002072199059 11.706866590930755 1 rotate no_reflect no_shear #
lump $-1 $-1 $22 $1 #
transform $-1 1 0 0 0 1 0 0 0 1 58.693197424237795 33.561002072199059 11.706866590930755 1 rotate no_reflect no_shear #
lump $-1 $-1 $23 $2 #
transform $-1 1 0 0 0 1 0 0 0 1 58.693197424237795 33.561002072199059 11.706866590930755 1 rotate no_reflect no_shear #
lump $-1 $-1 $24 $3 #
transform $-1 1 0 0 0 1 0 0 0 1 58.693197424237795 33.561002072199059 11.706866590930755 1 rotate no_reflect no_shear #
lump $-1 $-1 $25 $4 #
transform $-1 1 0 0 0 1 0 0 0 1 58.693197424237795 33.561002072199059 11.706866590930755 1 rotate no_reflect no_shear #
lump $-1 $-1 $26 $5 #
transform $-1 1 0 0 0 1 0 0 0 1 58.693197424237795 33.561002072199059 11.706866590930755 1 rotate no_reflect no_shear #
lump $-1 $-1 $27 $6 #
transform $-1 1 0 0 0 1 0 0 0 1 58.693197424237795 33.561002072199059 11.706866590930755 1 rotate no_reflect no_shear #
shell $-1 $-1 $-1 $28 $-1 $7 #
shell $-1 $-1 $-1 $29 $-1 $9 #
shell $-1 $-1 $-1 $30 $-1 $11 #
shell $-1 $-1 $-1 $31 $-1 $13 #
shell $-1 $-1 $-1 $32 $-1 $15 #
shell $-1 $-1 $-1 $33 $-1 $17 #
shell $-1 $-1 $-1 $34 $-1 $19 #
face $-1 $35 $36 $21 $-1 $37 forward single #
face $-1 $38 $39 $22 $-1 $40 forward single #
face $-1 $41 $42 $23 $-1 $43 forward single #
face $-1 $44 $45 $24 $-1 $46 reversed single #
face $-1 $47 $48 $25 $-1 $49 forward single #
face $-1 $50 $51 $26 $-1 $52 reversed single #
face $-1 $53 $54 $27 $-1 $55 forward single #
face $-1 $56 $57 $21 $-1 $58 reversed single #
loop $-1 $-1 $59 $28 #
plane-surface $-1 0 0 11.706866590930755 0 0 1 1 0 0 forward_v I I I I #
face $-1 $60 $61 $22 $-1 $62 reversed single #
loop $-1 $-1 $63 $29 #
plane-surface $-1 0 -33.561002072199059 0 0 1 0 0 0 1 forward_v I I I I #
face $-1 $64 $65 $23 $-1 $66 reversed single #
loop $-1 $-1 $67 $30 #
plane-surface $-1 0 33.561002072199059 0 0 -1 0 0 0 -1 forward_v I I I I #
face $-1 $68 $69 $24 $-1 $70 reversed single #
loop $-1 $-1 $71 $31 #
plane-surface $-1 55.795935234002982 -1.4576295707897131 166.21691886247555 0 -1 0 -0.69465837861970381 0 -0.71933979245794832 forward_v I I I I #
face $-1 $72 $73 $25 $-1 $74 forward single #
loop $-1 $75 $76 $32 #
cone-surface $-1 50.897634175034874 -7.114464085521778 4.0492451129538489 -0.69465837861970381 0 -0.71933979245794832 1.7983494811448708 0 -1.7366459465492596 1 I I 0 1 2.5 forward I I I I #
face $-1 $77 $78 $26 $-1 $79 reversed single #
loop $-1 $-1 $80 $33 #
plane-surface $-1 -140.23664014169219 -12.771298600253843 84.673476145021112 0 1 0 -0.69465837861970381 0 0.71933979245794832 forward_v I I I I #
face $-1 $81 $82 $27 $-1 $83 forward single #
loop $-1 $84 $85 $34 #
cone-surface $-1 -50.897634175034874 -7.114464085521778 4.0492451129538258 0.69465837861970381 0 -0.71933979245794832 1.7983494811448708 0 1.7366459465492596 1 I I 0 1 2.5 forward I I I I #
face $-1 $86 $87 $21 $-1 $88 reversed single #
loop $-1 $-1 $89 $35 #
plane-surface $-1 0 0 -11.706866590930755 0 0 1 1 0 0 forward_v I I I I #
coedge $-1 $90 $91 $92 $93 forward $36 $-1 #
face $-1 $94 $95 $22 $-1 $96 reversed single #
loop $-1 $-1 $97 $38 #
plane-surface $-1 0 0 -11.706866590930755 0 0 1 1 0 0 forward_v I I I I #
coedge $-1 $98 $99 $100 $101 forward $39 $-1 #
face $-1 $102 $103 $23 $-1 $104 reversed single #
loop $-1 $-1 $105 $41 #
plane-surface $-1 0 0 -11.706866590930755 0 0 1 1 0 0 forward_v I I I I #
coedge $-1 $106 $107 $108 $109 forward $42 $-1 #
face $-1 $110 $111 $24 $-1 $112 reversed single #
loop $-1 $-1 $113 $44 #
plane-surface $-1 -25.747507483451429 -7.114464085521778 81.776213954786343 0.69465837861970381 0 0.71933979245794832 0.71933979245794832 0 -0.69465837861970381 forward_v I I I I #
coedge $-1 $114 $115 $116 $117 reversed $45 $-1 #
face $-1 $-1 $118 $25 $-1 $119 forward single #
loop $-1 $120 $121 $47 #
cone-surface $-1 48.174634598667353 -7.114464085521778 1.2294965712038994 -0.69465837861970381 0 -0.71933979245794832 0.8991747405724354 0 -0.86832297327462982 1 I I -0.70710678118654746 0.70710678118654746 1.25 forward I I I I #
loop $-1 $-1 $122 $32 #
coedge $-1 $76 $76 $123 $124 reversed $48 $-1 #
face $-1 $125 $126 $26 $-1 $127 reversed single #
loop $-1 $-1 $128 $50 #
plane-surface $-1 -58.693197424237781 -7.114464085521778 0.23277123733190308 -0.69465837861970381 0 0.71933979245794832 0.71933979245794832 0 0.69465837861970381 forward_v I I I I #
coedge $-1 $129 $130 $131 $132 reversed $51 $-1 #
face $-1 $-1 $133 $27 $-1 $134 forward single #
loop $-1 $135 $136 $53 #
cone-surface $-1 -48.174634598667353 -7.114464085521778 1.2294965712038763 0.69465837861970381 0 -0.71933979245794832 0.8991747405724354 0 0.86832297327462982 1 I I -0.70710678118654746 0.70710678118654746 1.25 forward I I I I #
loop $-1 $-1 $137 $34 #
coedge $-1 $85 $85 $138 $139 reversed $54 $-1 #
face $-1 $140 $141 $21 $-1 $142 reversed single #
loop $-1 $-1 $143 $56 #
plane-surface $-1 0 -33.561002072199059 0 0 1 0 0 0 1 forward_v I I I I #
coedge $-1 $144 $145 $146 $147 forward $57 $-1 #
coedge $-1 $148 $59 $149 $150 forward $36 $-1 #
coedge $-1 $59 $148 $151 $152 forward $36 $-1 #
coedge $-1 $153 $154 $59 $93 reversed $155 $-1 #
edge $-1 $156 -33.561002072199059 $157 33.561002072199059 $92 $158 forward 7 unknown #
face $-1 $159 $160 $22 $-1 $161 reversed single #
loop $-1 $-1 $162 $60 #
plane-surface $-1 -38.097765451801592 -43.207435848349917 0 0 1 0 0 0 1 forward_v I I I I #
coedge $-1 $163 $164 $99 $165 forward $61 $-1 #
coedge $-1 $166 $63 $167 $168 reversed $39 $-1 #
coedge $-1 $63 $166 $97 $165 reversed $39 $-1 #
coedge $-1 $169 $170 $63 $101 reversed $160 $-1 #
edge $-1 $171 -11.706866590930755 $172 11.706866590930755 $100 $173 forward 7 unknown #
face $-1 $174 $175 $23 $-1 $176 reversed single #
loop $-1 $-1 $177 $64 #
plane-surface $-1 -40.9160666612269 38.384218960274481 0 1 0 0 0 0 -1 forward_v I I I I #
coedge $-1 $178 $179 $107 $180 forward $65 $-1 #
coedge $-1 $181 $67 $182 $183 reversed $42 $-1 #
coedge $-1 $67 $181 $105 $180 reversed $42 $-1 #
coedge $-1 $184 $185 $67 $109 reversed $186 $-1 #
edge $-1 $187 -11.706866590930755 $188 11.706866590930755 $108 $189 forward 7 unknown #
face $-1 $190 $191 $24 $-1 $192 forward single #
loop $-1 $-1 $193 $68 #
plane-surface $-1 55.795935234002982 -12.771298600253843 166.21691886247555 0 1 0 0.69465837861970381 0 0.71933979245794832 forward_v I I I I #
coedge $-1 $194 $195 $196 $197 reversed $69 $-1 #
coedge $-1 $115 $71 $198 $199 reversed $45 $-1 #
coedge $-1 $71 $114 $194 $200 reversed $45 $-1 #
coedge $-1 $196 $201 $71 $117 forward $191 $-1 #
edge $-1 $202 -30.795229807236304 $203 -18.913456515016229 $116 $204 forward 7 unknown #
loop $-1 $-1 $123 $72 #
plane-surface $-1 -25.747507483451429 -7.114464085521778 81.776213954786343 0.69465837861970381 0 0.71933979245794832 0.71933979245794832 0 -0.69465837861970381 forward_v I I I I #
loop $-1 $-1 $205 $47 #
coedge $-1 $121 $121 $122 $206 reversed $73 $-1 #
coedge $-1 $122 $122 $121 $206 forward $75 $-1 #
coedge $-1 $123 $123 $76 $124 forward $118 $-1 #
edge $-1 $207 0 $207 6.2831853071796004 $123 $208 forward 7 unknown #
face $-1 $209 $210 $26 $-1 $211 reversed single #
loop $-1 $-1 $212 $77 #
plane-surface $-1 -140.23664014169219 -1.4576295707897131 84.673476145021112 0 -1 0 0.69465837861970381 0 -0.71933979245794832 forward_v I I I I #
coedge $-1 $213 $214 $215 $216 reversed $78 $-1 #
coedge $-1 $130 $80 $217 $218 reversed $51 $-1 #
coedge $-1 $80 $129 $213 $219 reversed $51 $-1 #
coedge $-1 $215 $220 $80 $132 forward $221 $-1 #
edge $-1 $222 11.425122646608301 $223 23.306895938828404 $131 $224 forward 7 unknown #
loop $-1 $-1 $138 $81 #
plane-surface $-1 -58.693197424237781 -7.114464085521778 0.23277123733190308 -0.69465837861970381 0 0.71933979245794832 0.71933979245794832 0 0.69465837861970381 forward_v I I I I #
loop $-1 $-1 $225 $53 #
coedge $-1 $136 $136 $137 $226 reversed $82 $-1 #
coedge $-1 $137 $137 $136 $226 forward $84 $-1 #
coedge $-1 $138 $138 $85 $139 forward $133 $-1 #
edge $-1 $227 0 $227 6.2831853071796004 $138 $228 forward 7 unknown #
face $-1 $229 $230 $21 $-1 $231 reversed single #
loop $-1 $-1 $232 $86 #
plane-surface $-1 -58.693197424237795 0 0 1 0 0 0 0 -1 forward_v I I I I #
coedge $-1 $233 $151 $234 $235 forward $87 $-1 #
coedge $-1 $236 $89 $233 $237 forward $57 $-1 #
coedge $-1 $89 $236 $238 $239 forward $57 $-1 #
coedge $-1 $154 $153 $89 $147 reversed $155 $-1 #
edge $-1 $240 -33.561002072199059 $241 33.561002072199059 $146 $242 forward 7 unknown #
coedge $-1 $91 $90 $243 $244 forward $36 $-1 #
coedge $-1 $245 $246 $90 $150 reversed $230 $-1 #
edge $-1 $157 -58.693197424237795 $247 58.693197424237795 $149 $248 forward 7 unknown #
coedge $-1 $143 $249 $91 $152 reversed $87 $-1 #
edge $-1 $250 -58.693197424237795 $156 58.693197424237795 $151 $251 forward 7 unknown #
coedge $-1 $146 $92 $249 $252 forward $155 $-1 #
coedge $-1 $92 $146 $245 $253 reversed $155 $-1 #
loop $-1 $-1 $153 $229 #
vertex $-1 $93 $254 #
vertex $-1 $93 $255 #
straight-curve $-1 58.693197424237795 0 11.706866590930755 0 1 0 I I #
face $-1 $256 $257 $22 $-1 $258 reversed single #
loop $-1 $-1 $100 $94 #
plane-surface $-1 -40.9160666612269 -38.384218960274488 0 1 0 0 0 0 -1 forward_v I I I I #
coedge $-1 $259 $260 $261 $262 forward $95 $-1 #
coedge $-1 $263 $97 $264 $265 forward $61 $-1 #
coedge $-1 $97 $263 $169 $266 forward $61 $-1 #
edge $-1 $171 -40.9160666612269 $267 -35.279464242376285 $97 $268 forward 7 unknown #
coedge $-1 $99 $98 $269 $270 forward $39 $-1 #
coedge $-1 $271 $272 $98 $168 forward $273 $-1 #
edge $-1 $274 35.279464242376285 $172 40.9160666612269 $167 $275 forward 7 unknown #
coedge $-1 $261 $100 $164 $266 reversed $160 $-1 #
coedge $-1 $100 $261 $271 $276 reversed $160 $-1 #
vertex $-1 $165 $277 #
vertex $-1 $276 $278 #
straight-curve $-1 -40.9160666612269 -33.561002072199059 0 0 0 1 I I #
face $-1 $279 $186 $23 $-1 $280 reversed single #
loop $-1 $-1 $281 $102 #
plane-surface $-1 -38.097765451801592 43.20743584834991 0 0 -1 0 0 0 -1 forward_v I I I I #
coedge $-1 $282 $283 $284 $285 forward $103 $-1 #
coedge $-1 $286 $105 $282 $287 forward $65 $-1 #
coedge $-1 $105 $286 $184 $288 forward $65 $-1 #
edge $-1 $187 35.279464242376285 $289 40.9160666612269 $105 $290 forward 7 unknown #
coedge $-1 $107 $106 $291 $292 forward $42 $-1 #
coedge $-1 $293 $294 $106 $183 forward $295 $-1 #
edge $-1 $296 -40.9160666612269 $188 -35.279464242376285 $182 $297 forward 7 unknown #
coedge $-1 $298 $108 $179 $288 reversed $186 $-1 #
coedge $-1 $108 $298 $293 $299 reversed $186 $-1 #
loop $-1 $-1 $108 $174 #
vertex $-1 $180 $300 #
vertex $-1 $299 $301 #
straight-curve $-1 -35.279464242376285 33.561002072199059 0 0 0 1 I I #
face $-1 $-1 $302 $24 $-1 $303 reversed single #
loop $-1 $-1 $116 $110 #
plane-surface $-1 0 0 11.706866590930755 0 0 1 1 0 0 forward_v I I I I #
coedge $-1 $304 $305 $306 $307 reversed $111 $-1 #
coedge $-1 $308 $113 $115 $200 forward $69 $-1 #
coedge $-1 $113 $308 $304 $309 forward $69 $-1 #
coedge $-1 $306 $116 $113 $197 forward $191 $-1 #
edge $-1 $203 -2.0996024719711759 $310 9.2140665574929539 $196 $311 forward 7 unknown #
coedge $-1 $312 $313 $114 $199 forward $302 $-1 #
edge $-1 $314 -82.875688193905859 $202 -71.401592840307018 $198 $315 forward 7 unknown #
edge $-1 $203 100.86878603995878 $314 117.38639484847562 $115 $316 forward 7 unknown #
coedge $-1 $116 $306 $312 $317 forward $191 $-1 #
vertex $-1 $117 $318 #
vertex $-1 $117 $319 #
straight-curve $-1 27.897967617001491 -1.4576295707897131 11.706866590930758 -1 0 0 I I #
coedge $-1 $205 $205 $-1 $320 reversed $120 $-1 #
edge $-1 $321 0 $321 6.2831853071796004 $121 $322 forward 7 unknown #
vertex $-1 $124 $323 #
ellipse-curve $-1 52.75231077812775 -7.114464085521778 5.9698189141313494 0.69465837861970381 0 0.71933979245794832 1.7983494811448708 0 -1.7366459465492596 1 I I #
face $-1 $-1 $221 $26 $-1 $324 forward single #
loop $-1 $-1 $325 $125 #
plane-surface $-1 -58.693197424237795 0 0 1 0 0 0 0 -1 forward_v I I I I #
coedge $-1 $326 $327 $328 $329 reversed $126 $-1 #
coedge $-1 $330 $128 $130 $219 forward $78 $-1 #
coedge $-1 $128 $330 $326 $331 forward $78 $-1 #
coedge $-1 $328 $131 $128 $216 forward $221 $-1 #
edge $-1 $223 -9.2140665574929539 $332 2.0996024719711759 $215 $333 forward 7 unknown #
coedge $-1 $334 $335 $129 $218 forward $210 $-1 #
edge $-1 $336 -42.103966835178667 $222 -30.629871481579801 $217 $337 forward 7 unknown #
edge $-1 $223 -16.517608808516847 $336 1.9747070999959293e-014 $130 $338 forward 7 unknown #
coedge $-1 $131 $328 $334 $339 forward $221 $-1 #
loop $-1 $-1 $328 $209 #
vertex $-1 $218 $340 #
vertex $-1 $132 $341 #
straight-curve $-1 -70.118320070846096 -12.771298600253843 11.706866590930758 1 0 0 I I #
coedge $-1 $225 $225 $-1 $342 reversed $135 $-1 #
edge $-1 $343 0 $343 6.2831853071796004 $136 $344 forward 7 unknown #
vertex $-1 $139 $345 #
ellipse-curve $-1 -52.752310778127743 -7.114464085521778 5.96981891413132 -0.69465837861970381 0 0.71933979245794832 1.7983494811448708 0 1.7366459465492596 1 I I #
face $-1 $-1 $155 $21 $-1 $346 reversed single #
loop $-1 $-1 $245 $140 #
plane-surface $-1 0 33.561002072199059 0 0 -1 0 0 0 -1 forward_v I I I I #
coedge $-1 $347 $243 $246 $348 forward $141 $-1 #
coedge $-1 $249 $143 $144 $237 reversed $87 $-1 #
coedge $-1 $243 $347 $143 $235 reversed $141 $-1 #
edge $-1 $250 -11.706866590930755 $349 11.706866590930755 $234 $350 forward 7 unknown #
coedge $-1 $145 $144 $347 $351 forward $57 $-1 #
edge $-1 $241 -58.693197424237795 $349 58.693197424237795 $233 $352 forward 7 unknown #
coedge $-1 $246 $245 $145 $239 reversed $230 $-1 #
edge $-1 $353 -58.693197424237795 $240 58.693197424237795 $238 $354 forward 7 unknown #
vertex $-1 $147 $355 #
vertex $-1 $252 $356 #
straight-curve $-1 58.693197424237795 0 -11.706866590930755 0 -1 0 I I #
coedge $-1 $232 $234 $148 $244 reversed $141 $-1 #
edge $-1 $247 -33.561002072199059 $250 33.561002072199059 $243 $357 forward 7 unknown #
coedge $-1 $238 $149 $154 $253 forward $230 $-1 #
coedge $-1 $149 $238 $232 $348 reversed $230 $-1 #
vertex $-1 $150 $358 #
straight-curve $-1 0 33.561002072199059 11.706866590930755 -1 0 0 I I #
coedge $-1 $151 $233 $153 $252 reversed $87 $-1 #
vertex $-1 $244 $359 #
straight-curve $-1 0 -33.561002072199059 11.706866590930755 1 0 0 I I #
edge $-1 $156 -11.706866590930755 $241 11.706866590930755 $153 $360 forward 7 unknown #
edge $-1 $157 -11.706866590930755 $240 11.706866590930755 $154 $361 forward 7 unknown #
point $-1 58.693197424237795 -33.561002072199059 11.706866590930755 #
point $-1 58.693197424237795 33.561002072199059 11.706866590930755 #
face $-1 $-1 $273 $22 $-1 $362 forward single #
loop $-1 $-1 $363 $159 #
plane-surface $-1 -35.279464242376285 -38.384218960274488 0 -1 0 0 0 0 1 forward_v I I I I #
coedge $-1 $364 $162 $263 $365 reversed $95 $-1 #
coedge $-1 $162 $364 $366 $367 reversed $95 $-1 #
coedge $-1 $170 $169 $162 $262 reversed $160 $-1 #
edge $-1 $368 -11.706866590930755 $369 11.706866590930755 $261 $370 forward 7 unknown #
coedge $-1 $164 $163 $259 $365 forward $61 $-1 #
coedge $-1 $269 $363 $163 $265 reversed $257 $-1 #
edge $-1 $267 -4.8232168880754287 $371 4.8232168880754287 $264 $372 forward 7 unknown #
edge $-1 $369 -4.8232168880754287 $171 4.8232168880754287 $169 $373 forward 7 unknown #
vertex $-1 $265 $374 #
straight-curve $-1 0 -33.561002072199059 -11.706866590930755 1 0 0 I I #
coedge $-1 $375 $264 $166 $270 reversed $257 $-1 #
edge $-1 $274 -11.706866590930755 $267 11.706866590930755 $269 $376 forward 7 unknown #
coedge $-1 $366 $167 $170 $276 forward $273 $-1 #
coedge $-1 $167 $366 $375 $377 forward $273 $-1 #
loop $-1 $-1 $167 $256 #
vertex $-1 $168 $378 #
straight-curve $-1 0 -33.561002072199059 11.706866590930755 -1 0 0 I I #
edge $-1 $172 -4.8232168880754287 $368 4.8232168880754287 $170 $379 forward 7 unknown #
point $-1 -40.9160666612269 -33.561002072199059 -11.706866590930755 #
point $-1 -40.9160666612269 -33.561002072199059 11.706866590930755 #
face $-1 $-1 $295 $23 $-1 $380 forward single #
plane-surface $-1 -35.279464242376285 38.384218960274481 0 -1 0 0 0 0 1 forward_v I I I I #
coedge $-1 $381 $382 $298 $383 forward $175 $-1 #
coedge $-1 $291 $177 $178 $287 reversed $103 $-1 #
coedge $-1 $177 $291 $294 $384 reversed $103 $-1 #
coedge $-1 $382 $381 $177 $285 reversed $175 $-1 #
edge $-1 $385 -11.706866590930755 $386 11.706866590930755 $284 $387 forward 7 unknown #
coedge $-1 $179 $178 $381 $388 forward $65 $-1 #
edge $-1 $289 -4.8232168880754287 $386 4.8232168880754287 $282 $389 forward 7 unknown #
edge $-1 $390 -4.8232168880754287 $187 4.8232168880754287 $184 $391 forward 7 unknown #
vertex $-1 $287 $392 #
straight-curve $-1 0 33.561002072199059 -11.706866590930755 -1 0 0 I I #
coedge $-1 $283 $282 $181 $292 reversed $103 $-1 #
edge $-1 $296 -11.706866590930755 $289 11.706866590930755 $291 $393 forward 7 unknown #
coedge $-1 $394 $182 $185 $299 forward $295 $-1 #
coedge $-1 $182 $394 $283 $384 forward $295 $-1 #
loop $-1 $-1 $182 $279 #
vertex $-1 $183 $395 #
straight-curve $-1 0 33.561002072199059 11.706866590930755 1 0 0 I I #
coedge $-1 $185 $184 $281 $383 reversed $186 $-1 #
edge $-1 $188 -4.8232168880754287 $396 4.8232168880754287 $185 $397 forward 7 unknown #
point $-1 -35.279464242376285 33.561002072199052 -11.706866590930755 #
point $-1 -35.279464242376285 33.561002072199052 11.706866590930755 #
loop $-1 $-1 $198 $190 #
plane-surface $-1 58.693197424237795 0 0 -1 0 0 0 0 1 forward_v I I I I #
coedge $-1 $305 $193 $195 $309 reversed $111 $-1 #
coedge $-1 $193 $304 $398 $399 reversed $111 $-1 #
coedge $-1 $201 $196 $193 $307 forward $191 $-1 #
edge $-1 $310 18.913456515016229 $400 30.795229807236304 $306 $401 forward 7 unknown #
coedge $-1 $195 $194 $313 $402 reversed $69 $-1 #
edge $-1 $403 -117.38639484847562 $310 -100.86878603995878 $304 $404 forward 7 unknown #
vertex $-1 $197 $405 #
straight-curve $-1 46.811424132017706 -3.557232042760889 11.706866590930758 0 -1 0 I I #
coedge $-1 $398 $198 $201 $317 reversed $302 $-1 #
coedge $-1 $198 $398 $308 $402 forward $302 $-1 #
vertex $-1 $199 $406 #
straight-curve $-1 58.693197424237795 -1.4576295707897131 83.108459431237776 0 0 1 I I #
straight-curve $-1 -25.747507483451429 -1.4576295707897131 81.776213954786343 0.71933979245794832 0 -0.69465837861970381 I I #
edge $-1 $400 -12.771298600253843 $202 -1.4576295707897131 $312 $407 forward 7 unknown #
point $-1 58.693197424237795 -1.4576295707897131 11.706866590930755 #
point $-1 46.81142413201772 -1.4576295707897131 11.706866590930758 #
edge $-1 $408 1 $408 0 $205 $-1 forward 7 unknown #
vertex $-1 $206 $409 #
ellipse-curve $-1 49.042957571941983 -7.114464085521778 2.1286713117763347 0.69465837861970381 0 0.71933979245794832 1.7983494811448708 0 -1.7366459465492596 1 I I #
point $-1 54.55066025927264 -7.114464085521778 4.233172967582103 #
plane-surface $-1 0 0 11.706866590930755 0 0 1 1 0 0 forward_v I I I I #
coedge $-1 $335 $334 $327 $410 forward $210 $-1 #
coedge $-1 $327 $212 $214 $331 reversed $126 $-1 #
coedge $-1 $212 $326 $325 $410 reversed $126 $-1 #
coedge $-1 $220 $215 $212 $329 forward $221 $-1 #
edge $-1 $332 -23.306895938828404 $411 -11.425122646608301 $328 $412 forward 7 unknown #
coedge $-1 $214 $213 $335 $413 reversed $78 $-1 #
edge $-1 $414 -1.9747070999959293e-014 $332 16.517608808516847 $326 $415 forward 7 unknown #
vertex $-1 $216 $416 #
straight-curve $-1 -46.811424132017684 -3.557232042760889 11.706866590930755 0 1 0 I I #
coedge $-1 $325 $217 $220 $339 reversed $210 $-1 #
coedge $-1 $217 $325 $330 $413 forward $210 $-1 #
vertex $-1 $218 $417 #
straight-curve $-1 -58.693197424237795 -12.771298600253843 42.336738072510556 0 0 1 I I #
straight-curve $-1 -58.693197424237781 -12.771298600253843 0.23277123733190308 -0.71933979245794832 0 -0.69465837861970381 I I #
edge $-1 $411 1.4576295707897131 $222 12.771298600253843 $334 $418 forward 7 unknown #
point $-1 -58.693197424237795 -12.771298600253843 11.706866590930755 #
point $-1 -46.811424132017692 -12.771298600253843 11.706866590930755 #
edge $-1 $419 1 $419 0 $225 $-1 forward 7 unknown #
vertex $-1 $226 $420 #
ellipse-curve $-1 -49.042957571941983 -7.114464085521778 2.1286713117763116 -0.69465837861970381 0 0.71933979245794832 1.7983494811448708 0 1.7366459465492596 1 I I #
point $-1 -50.953961296982897 -7.114464085521778 7.7064648606805992 #
plane-surface $-1 58.693197424237795 0 0 -1 0 0 0 0 1 forward_v I I I I #
coedge $-1 $234 $232 $236 $351 reversed $141 $-1 #
edge $-1 $247 -11.706866590930755 $353 11.706866590930755 $246 $421 forward 7 unknown #
vertex $-1 $351 $422 #
straight-curve $-1 -58.693197424237795 -33.561002072199059 0 0 0 -1 I I #
edge $-1 $349 -33.561002072199059 $353 33.561002072199059 $347 $423 forward 7 unknown #
straight-curve $-1 0 -33.561002072199059 -11.706866590930755 -1 0 0 I I #
vertex $-1 $239 $424 #
straight-curve $-1 0 33.561002072199059 -11.706866590930755 1 0 0 I I #
point $-1 58.693197424237795 33.561002072199059 -11.706866590930755 #
point $-1 58.693197424237795 -33.561002072199059 -11.706866590930755 #
straight-curve $-1 -58.693197424237795 0 11.706866590930755 0 -1 0 I I #
point $-1 -58.693197424237795 33.561002072199059 11.706866590930755 #
point $-1 -58.693197424237795 -33.561002072199059 11.706866590930755 #
straight-curve $-1 58.693197424237795 -33.561002072199059 0 0 0 -1 I I #
straight-curve $-1 58.693197424237795 33.561002072199059 0 0 0 -1 I I #
plane-surface $-1 0 0 11.706866590930755 0 0 1 1 0 0 forward_v I I I I #
coedge $-1 $264 $375 $364 $425 forward $257 $-1 #
coedge $-1 $260 $259 $363 $425 reversed $95 $-1 #
edge $-1 $371 -2.8183012094253073 $369 2.8183012094253073 $259 $426 forward 7 unknown #
coedge $-1 $272 $271 $260 $367 forward $273 $-1 #
edge $-1 $368 -2.8183012094253073 $427 2.8183012094253073 $260 $428 forward 7 unknown #
vertex $-1 $276 $429 #
vertex $-1 $266 $430 #
straight-curve $-1 -40.9160666612269 -43.207435848349917 0 0 0 -1 I I #
vertex $-1 $425 $431 #
straight-curve $-1 -35.279464242376285 -38.384218960274488 -11.706866590930755 0 -1 0 I I #
straight-curve $-1 -40.9160666612269 -38.384218960274488 -11.706866590930755 0 1 0 I I #
point $-1 -35.279464242376285 -33.561002072199059 -11.706866590930755 #
coedge $-1 $363 $269 $272 $377 reversed $257 $-1 #
straight-curve $-1 -35.279464242376285 -33.561002072199059 0 0 0 -1 I I #
edge $-1 $427 -4.8232168880754287 $274 4.8232168880754287 $375 $432 forward 7 unknown #
point $-1 -35.279464242376285 -33.561002072199059 11.706866590930755 #
straight-curve $-1 -40.9160666612269 -38.384218960274488 11.706866590930755 0 -1 0 I I #
plane-surface $-1 0 0 11.706866590930755 0 0 1 1 0 0 forward_v I I I I #
coedge $-1 $284 $281 $286 $388 reversed $175 $-1 #
coedge $-1 $281 $284 $394 $433 reversed $175 $-1 #
edge $-1 $396 -11.706866590930755 $390 11.706866590930755 $298 $434 forward 7 unknown #
edge $-1 $385 -4.8232168880754287 $296 4.8232168880754287 $283 $435 forward 7 unknown #
vertex $-1 $433 $436 #
vertex $-1 $388 $437 #
straight-curve $-1 -40.9160666612269 43.20743584834991 0 0 0 -1 I I #
edge $-1 $386 -2.8183012094253073 $390 2.8183012094253073 $381 $438 forward 7 unknown #
straight-curve $-1 -40.9160666612269 38.384218960274481 -11.706866590930755 0 1 0 I I #
vertex $-1 $288 $439 #
straight-curve $-1 -35.279464242376285 38.384218960274481 -11.706866590930755 0 -1 0 I I #
point $-1 -40.9160666612269 33.561002072199052 -11.706866590930755 #
straight-curve $-1 -40.9160666612269 33.561002072199059 0 0 0 -1 I I #
coedge $-1 $294 $293 $382 $433 forward $295 $-1 #
point $-1 -40.9160666612269 33.561002072199052 11.706866590930755 #
vertex $-1 $299 $440 #
straight-curve $-1 -35.279464242376285 38.384218960274481 11.706866590930755 0 1 0 I I #
coedge $-1 $313 $312 $305 $399 forward $302 $-1 #
edge $-1 $400 71.401592840307018 $403 82.875688193905859 $398 $441 forward 7 unknown #
vertex $-1 $317 $442 #
straight-curve $-1 27.897967617001491 -12.771298600253843 11.706866590930758 1 0 0 I I #
edge $-1 $403 -9.2140665574929539 $314 2.0996024719711759 $313 $443 forward 7 unknown #
vertex $-1 $402 $444 #
straight-curve $-1 -25.747507483451429 -12.771298600253843 81.776213954786343 -0.71933979245794832 0 0.69465837861970381 I I #
point $-1 46.81142413201772 -12.771298600253843 11.706866590930758 #
point $-1 58.693197424237795 -1.4576295707897131 0.23277123733191729 #
straight-curve $-1 58.693197424237795 0 11.706866590930755 0 1 0 I I #
vertex $-1 $320 $445 #
point $-1 50.841307053086851 -7.114464085521778 0.39202536522707521 #
edge $-1 $411 30.629871481579801 $414 42.103966835178667 $325 $446 forward 7 unknown #
vertex $-1 $339 $447 #
straight-curve $-1 -70.118320070846096 -1.4576295707897131 11.706866590930758 -1 0 0 I I #
edge $-1 $414 -2.0996024719711759 $336 9.2140665574929539 $335 $448 forward 7 unknown #
vertex $-1 $413 $449 #
straight-curve $-1 -58.693197424237781 -1.4576295707897131 0.23277123733190308 0.71933979245794832 0 0.69465837861970381 I I #
point $-1 -46.811424132017692 -1.4576295707897131 11.706866590930755 #
point $-1 -58.693197424237795 -12.771298600253843 0.23277123733188937 #
straight-curve $-1 -58.693197424237795 0 11.706866590930755 0 -1 0 I I #
vertex $-1 $342 $450 #
point $-1 -47.244608090797115 -7.114464085521778 3.8653172583255713 #
straight-curve $-1 -58.693197424237795 33.561002072199059 0 0 0 -1 I I #
point $-1 -58.693197424237795 -33.561002072199059 -11.706866590930755 #
straight-curve $-1 -58.693197424237795 0 -11.706866590930755 0 1 0 I I #
point $-1 -58.693197424237795 33.561002072199059 -11.706866590930755 #
edge $-1 $427 -11.706866590930755 $371 11.706866590930755 $363 $451 forward 7 unknown #
straight-curve $-1 -38.097765451801592 -43.207435848349917 -11.706866590930755 -1 0 0 I I #
vertex $-1 $377 $452 #
straight-curve $-1 -38.097765451801592 -43.207435848349917 11.706866590930755 1 0 0 I I #
point $-1 -40.9160666612269 -43.207435848349917 11.706866590930755 #
point $-1 -40.9160666612269 -43.207435848349917 -11.706866590930755 #
point $-1 -35.279464242376285 -43.207435848349917 -11.706866590930755 #
straight-curve $-1 -35.279464242376285 -38.384218960274488 11.706866590930755 0 1 0 I I #
edge $-1 $396 -2.8183012094253073 $385 2.8183012094253073 $382 $453 forward 7 unknown #
straight-curve $-1 -35.279464242376285 43.20743584834991 0 0 0 -1 I I #
straight-curve $-1 -40.9160666612269 38.384218960274481 11.706866590930755 0 -1 0 I I #
point $-1 -40.9160666612269 43.20743584834991 11.706866590930755 #
point $-1 -40.9160666612269 43.20743584834991 -11.706866590930755 #
straight-curve $-1 -38.097765451801592 43.20743584834991 -11.706866590930755 1 0 0 I I #
point $-1 -35.279464242376285 43.20743584834991 -11.706866590930755 #
point $-1 -35.279464242376285 43.20743584834991 11.706866590930755 #
straight-curve $-1 58.693197424237795 -12.771298600253843 83.108459431237776 0 0 -1 I I #
point $-1 58.693197424237795 -12.771298600253843 11.706866590930755 #
straight-curve $-1 58.693197424237781 -3.557232042760889 0.2327712373319315 0 1 0 I I #
point $-1 58.693197424237795 -12.771298600253843 0.23277123733191729 #
point $-1 47.306311625392723 -7.114464085521778 0.33032183063146403 #
straight-curve $-1 -58.693197424237795 -1.4576295707897131 42.336738072510556 0 0 -1 I I #
point $-1 -58.693197424237795 -1.4576295707897131 11.706866590930755 #
straight-curve $-1 -58.693197424237795 -3.557232042760889 0.23277123733188773 0 -1 0 I I #
point $-1 -58.693197424237795 -1.4576295707897131 0.23277123733188937 #
point $-1 -47.306311625392723 -7.114464085521778 0.33032183063144094 #
straight-curve $-1 -35.279464242376285 -43.207435848349917 0 0 0 -1 I I #
point $-1 -35.279464242376285 -43.207435848349917 11.706866590930755 #
straight-curve $-1 -38.097765451801592 43.20743584834991 11.706866590930755 -1 0 0 I I #
End-of-ACIS-data 