500 0 5 0           
7 Unknown 11 ACIS 5.0 NT 24 Thu Mar 25 23:07:06 1999 
-1 9.9999999999999995e-007 1e-010 
body $-1 $5 $-1 $6 #
body $-1 $7 $-1 $8 #
body $-1 $9 $-1 $10 #
body $-1 $11 $-1 $12 #
body $-1 $13 $-1 $14 #
lump $-1 $-1 $15 $0 #
transform $-1 1 0 0 0 1 0 0 0 1 67.959837641529589 31.188477874638064 9.6945367244106446 1 rotate no_reflect no_shear #
lump $-1 $-1 $16 $1 #
transform $-1 1 0 0 0 1 0 0 0 1 67.959837641529589 31.188477874638064 9.6945367244106446 1 rotate no_reflect no_shear #
lump $-1 $-1 $17 $2 #
transform $-1 1 0 0 0 1 0 0 0 1 67.959837641529589 31.188477874638064 9.6945367244106446 1 rotate no_reflect no_shear #
lump $-1 $-1 $18 $3 #
transform $-1 1 0 0 0 1 0 0 0 1 67.959837641529589 31.188477874638064 9.6945367244106446 1 rotate no_reflect no_shear #
lump $-1 $-1 $19 $4 #
transform $-1 1 0 0 0 1 0 0 0 1 67.959837641529589 31.188477874638064 9.6945367244106446 1 rotate no_reflect no_shear #
shell $-1 $-1 $-1 $20 $-1 $5 #
shell $-1 $-1 $-1 $21 $-1 $7 #
shell $-1 $-1 $-1 $22 $-1 $9 #
shell $-1 $-1 $-1 $23 $-1 $11 #
shell $-1 $-1 $-1 $24 $-1 $13 #
face $-1 $25 $26 $15 $-1 $27 forward single #
face $-1 $28 $29 $16 $-1 $30 reversed single #
face $-1 $31 $32 $17 $-1 $33 forward single #
face $-1 $34 $35 $18 $-1 $36 forward single #
face $-1 $37 $38 $19 $-1 $39 reversed single #
face $-1 $40 $41 $15 $-1 $42 reversed single #
loop $-1 $-1 $43 $20 #
plane-surface $-1 0 0 9.6945367244106446 0 0 1 1 0 0 forward_v I I I I #
face $-1 $44 $45 $16 $-1 $46 forward single #
loop $-1 $-1 $47 $21 #
plane-surface $-1 0 -25.408794905286911 -5.3540808742308581 0 0 1 1 0 0 forward_v I I I I #
face $-1 $48 $49 $17 $-1 $50 reversed single #
loop $-1 $-1 $51 $22 #
plane-surface $-1 0 35.054813087339809 -4.9806729036353214 0 0 1 1 0 0 forward_v I I I I #
face $-1 $52 $53 $18 $-1 $54 forward single #
loop $-1 $-1 $55 $23 #
plane-surface $-1 61.251477773478513 -10.906316427356108 198.39501765859865 0 1 0 0.68199836817093118 0 0.7313536940579346 forward_v I I I I #
face $-1 $56 $57 $19 $-1 $58 reversed single #
loop $-1 $59 $60 $24 #
cone-surface $-1 65.715825417516825 -5.7465833232816159 7.5432255105191661 -0.68199836817093118 0 -0.7313536940579346 0.3656768470289673 0 -0.34099918408546559 1 I I 0 1 0.5 forward I I I I #
face $-1 $61 $62 $15 $-1 $63 reversed single #
loop $-1 $-1 $64 $25 #
plane-surface $-1 0 0 -9.6945367244106446 0 0 1 1 0 0 forward_v I I I I #
coedge $-1 $65 $66 $67 $68 forward $26 $-1 #
face $-1 $69 $70 $16 $-1 $71 forward single #
loop $-1 $-1 $72 $28 #
plane-surface $-1 0 -25.408794905286911 -8.3540808742308581 0 0 1 1 0 0 forward_v I I I I #
coedge $-1 $73 $74 $75 $76 reversed $29 $-1 #
face $-1 $77 $78 $17 $-1 $79 reversed single #
loop $-1 $-1 $80 $31 #
plane-surface $-1 0 38.921148300041565 -7.337604814022983 0 -1 0 0 0 -1 forward_v I I I I #
coedge $-1 $81 $82 $83 $84 forward $32 $-1 #
face $-1 $85 $86 $18 $-1 $87 forward single #
loop $-1 $-1 $88 $34 #
plane-surface $-1 -31.445518971890692 -5.7465833232816159 98.989661045178366 0.68199836817093118 0 0.7313536940579346 0.7313536940579346 0 -0.68199836817093118 forward_v I I I I #
coedge $-1 $89 $90 $91 $92 reversed $35 $-1 #
face $-1 $93 $94 $19 $-1 $95 forward single #
loop $-1 $96 $97 $37 #
cone-surface $-1 65.12534433273612 -5.7465833232816159 6.9100120854139195 -0.68199836817093118 0 -0.7313536940579346 0.18283842351448365 0 -0.17049959204273279 1 I I -0.70710678118654746 0.70710678118654746 0.25 forward I I I I #
loop $-1 $-1 $98 $24 #
coedge $-1 $60 $60 $99 $100 reversed $38 $-1 #
face $-1 $101 $102 $15 $-1 $103 reversed single #
loop $-1 $-1 $104 $40 #
plane-surface $-1 0 -31.188477874638064 0 0 1 0 0 0 1 forward_v I I I I #
coedge $-1 $105 $106 $107 $108 forward $41 $-1 #
coedge $-1 $109 $43 $110 $111 forward $26 $-1 #
coedge $-1 $43 $109 $112 $113 forward $26 $-1 #
coedge $-1 $114 $115 $43 $68 reversed $116 $-1 #
edge $-1 $117 -31.188477874638064 $118 31.188477874638064 $67 $119 forward 7 unknown #
face $-1 $120 $121 $16 $-1 $122 reversed single #
loop $-1 $-1 $123 $44 #
plane-surface $-1 0 -19.629111935935761 -6.8540808742308581 0 -1 0 0 0 -1 forward_v I I I I #
coedge $-1 $124 $125 $126 $127 reversed $45 $-1 #
coedge $-1 $128 $47 $129 $130 reversed $29 $-1 #
coedge $-1 $47 $128 $131 $132 reversed $29 $-1 #
coedge $-1 $133 $134 $47 $76 forward $121 $-1 #
edge $-1 $135 -18.484080421994605 $136 -6.9247144832923055 $75 $137 forward 7 unknown #
face $-1 $138 $139 $17 $-1 $140 forward single #
loop $-1 $-1 $141 $48 #
plane-surface $-1 0 -25.408794905286911 -5.3540808742308581 0 0 1 1 0 0 forward_v I I I I #
coedge $-1 $142 $143 $144 $145 forward $49 $-1 #
coedge $-1 $146 $51 $143 $147 forward $32 $-1 #
coedge $-1 $51 $146 $148 $149 reversed $32 $-1 #
coedge $-1 $150 $144 $51 $84 reversed $151 $-1 #
edge $-1 $152 -3.8663352127017525 $153 3.8663352127017561 $83 $154 forward 7 unknown #
face $-1 $155 $156 $18 $-1 $157 reversed single #
loop $-1 $-1 $158 $52 #
plane-surface $-1 61.251477773478513 -0.58685021920712366 198.39501765859865 0 -1 0 -0.68199836817093118 0 -0.7313536940579346 forward_v I I I I #
coedge $-1 $159 $160 $161 $162 reversed $53 $-1 #
coedge $-1 $90 $55 $160 $163 forward $35 $-1 #
coedge $-1 $55 $89 $164 $165 reversed $35 $-1 #
coedge $-1 $166 $161 $55 $92 forward $156 $-1 #
edge $-1 $167 -92.904844529490163 $168 -89.502972104888684 $91 $169 forward 7 unknown #
face $-1 $170 $171 $19 $-1 $172 forward single #
loop $-1 $-1 $173 $56 #
plane-surface $-1 61.251477773478513 -10.906316427356108 198.39501765859865 0 1 0 0.68199836817093118 0 0.7313536940579346 forward_v I I I I #
loop $-1 $-1 $174 $37 #
coedge $-1 $97 $97 $98 $175 forward $57 $-1 #
coedge $-1 $98 $98 $97 $175 reversed $59 $-1 #
coedge $-1 $99 $99 $60 $100 forward $171 $-1 #
edge $-1 $176 0 $176 6.2831853071796004 $99 $177 forward 7 unknown #
face $-1 $178 $179 $15 $-1 $180 reversed single #
loop $-1 $-1 $181 $61 #
plane-surface $-1 -67.959837641529589 0 0 1 0 0 0 0 -1 forward_v I I I I #
coedge $-1 $182 $112 $183 $184 forward $62 $-1 #
coedge $-1 $185 $64 $182 $186 forward $41 $-1 #
coedge $-1 $64 $185 $187 $188 forward $41 $-1 #
coedge $-1 $115 $114 $64 $108 reversed $116 $-1 #
edge $-1 $189 -31.188477874638064 $190 31.188477874638064 $107 $191 forward 7 unknown #
coedge $-1 $66 $65 $192 $193 forward $26 $-1 #
coedge $-1 $194 $195 $65 $111 reversed $179 $-1 #
edge $-1 $118 -67.959837641529589 $196 67.959837641529589 $110 $197 forward 7 unknown #
coedge $-1 $104 $198 $66 $113 reversed $62 $-1 #
edge $-1 $199 -67.959837641529589 $117 67.959837641529589 $112 $200 forward 7 unknown #
coedge $-1 $107 $67 $198 $201 forward $116 $-1 #
coedge $-1 $67 $107 $194 $202 reversed $116 $-1 #
loop $-1 $-1 $114 $178 #
vertex $-1 $68 $203 #
vertex $-1 $68 $204 #
straight-curve $-1 67.959837641529589 0 9.6945367244106446 0 1 0 I I #
face $-1 $205 $206 $16 $-1 $207 reversed single #
loop $-1 $-1 $75 $69 #
plane-surface $-1 67.959837641529589 0 0 -1 0 0 0 0 1 forward_v I I I I #
coedge $-1 $131 $208 $133 $209 reversed $70 $-1 #
coedge $-1 $210 $72 $208 $211 reversed $45 $-1 #
coedge $-1 $72 $210 $212 $213 reversed $45 $-1 #
coedge $-1 $214 $133 $72 $127 forward $121 $-1 #
edge $-1 $215 6.9247144832923055 $216 18.484080421994605 $126 $217 forward 7 unknown #
coedge $-1 $74 $73 $218 $219 reversed $29 $-1 #
coedge $-1 $220 $221 $73 $130 forward $222 $-1 #
edge $-1 $223 -67.959837641529589 $135 67.959837641529589 $129 $224 forward 7 unknown #
coedge $-1 $225 $123 $74 $132 forward $70 $-1 #
edge $-1 $136 -67.959837641529589 $226 67.959837641529589 $131 $227 forward 7 unknown #
coedge $-1 $126 $75 $123 $209 forward $121 $-1 #
coedge $-1 $75 $228 $220 $229 forward $121 $-1 #
vertex $-1 $130 $230 #
vertex $-1 $76 $231 #
straight-curve $-1 67.959837641529589 -12.704397452643455 -5.3540808742308581 0 1 0 I I #
face $-1 $232 $233 $17 $-1 $234 forward single #
loop $-1 $-1 $235 $77 #
plane-surface $-1 0 -25.408794905286911 -8.3540808742308581 0 0 1 1 0 0 forward_v I I I I #
coedge $-1 $236 $237 $238 $239 reversed $78 $-1 #
coedge $-1 $240 $80 $241 $242 reversed $49 $-1 #
coedge $-1 $80 $240 $81 $147 reversed $49 $-1 #
coedge $-1 $83 $243 $80 $145 reversed $151 $-1 #
edge $-1 $153 -2.3569319103876616 $244 2.3569319103876616 $144 $245 forward 7 unknown #
coedge $-1 $82 $81 $246 $247 forward $32 $-1 #
edge $-1 $153 -67.959837641529589 $248 67.959837641529589 $143 $249 forward 7 unknown #
coedge $-1 $250 $251 $82 $149 forward $252 $-1 #
edge $-1 $152 -67.959837641529589 $253 67.959837641529589 $148 $254 forward 7 unknown #
coedge $-1 $255 $83 $251 $256 reversed $151 $-1 #
loop $-1 $-1 $238 $232 #
vertex $-1 $256 $257 #
vertex $-1 $84 $258 #
straight-curve $-1 67.959837641529589 35.054813087339809 -4.9806729036353214 0 1 0 I I #
face $-1 $259 $260 $18 $-1 $261 forward single #
loop $-1 $-1 $262 $85 #
plane-surface $-1 67.959837641529589 0 0 -1 0 0 0 0 1 forward_v I I I I #
coedge $-1 $263 $264 $262 $265 reversed $86 $-1 #
coedge $-1 $266 $88 $264 $267 reversed $53 $-1 #
coedge $-1 $88 $266 $89 $163 reversed $53 $-1 #
coedge $-1 $91 $262 $88 $162 forward $156 $-1 #
edge $-1 $268 -2.2864414424336843 $167 8.0330247657153002 $161 $269 forward 7 unknown #
edge $-1 $167 -135.91967528305918 $270 -130.9315806139692 $89 $271 forward 7 unknown #
coedge $-1 $272 $273 $90 $165 forward $274 $-1 #
edge $-1 $168 -37.334098754790332 $270 -33.686037292240684 $164 $275 forward 7 unknown #
coedge $-1 $276 $91 $273 $277 reversed $156 $-1 #
vertex $-1 $162 $278 #
vertex $-1 $165 $279 #
straight-curve $-1 67.959837641529589 -10.906316427356108 99.197508829299323 0 0 1 I I #
face $-1 $280 $281 $19 $-1 $282 forward single #
loop $-1 $283 $99 $93 #
plane-surface $-1 -31.445518971890692 -5.7465833232816159 98.989661045178366 0.68199836817093118 0 0.7313536940579346 0.7313536940579346 0 -0.68199836817093118 forward_v I I I I #
coedge $-1 $284 $285 $286 $287 reversed $94 $-1 #
coedge $-1 $174 $174 $-1 $288 forward $96 $-1 #
edge $-1 $289 0 $289 6.2831853071796004 $97 $290 forward 7 unknown #
vertex $-1 $100 $291 #
ellipse-curve $-1 66.135806910254772 -5.7465833232816159 7.9936005121099001 -0.68199836817093118 0 -0.7313536940579346 0.3656768470289673 0 -0.34099918408546559 1 I I #
face $-1 $-1 $116 $15 $-1 $292 reversed single #
loop $-1 $-1 $194 $101 #
plane-surface $-1 0 31.188477874638064 0 0 -1 0 0 0 -1 forward_v I I I I #
coedge $-1 $293 $192 $195 $294 forward $102 $-1 #
coedge $-1 $198 $104 $105 $186 reversed $62 $-1 #
coedge $-1 $192 $293 $104 $184 reversed $102 $-1 #
edge $-1 $199 -9.6945367244106446 $295 9.6945367244106446 $183 $296 forward 7 unknown #
coedge $-1 $106 $105 $293 $297 forward $41 $-1 #
edge $-1 $190 -67.959837641529589 $295 67.959837641529589 $182 $298 forward 7 unknown #
coedge $-1 $195 $194 $106 $188 reversed $179 $-1 #
edge $-1 $299 -67.959837641529589 $189 67.959837641529589 $187 $300 forward 7 unknown #
vertex $-1 $108 $301 #
vertex $-1 $201 $302 #
straight-curve $-1 67.959837641529589 0 -9.6945367244106446 0 -1 0 I I #
coedge $-1 $181 $183 $109 $193 reversed $102 $-1 #
edge $-1 $196 -31.188477874638064 $199 31.188477874638064 $192 $303 forward 7 unknown #
coedge $-1 $187 $110 $115 $202 forward $179 $-1 #
coedge $-1 $110 $187 $181 $294 reversed $179 $-1 #
vertex $-1 $111 $304 #
straight-curve $-1 0 31.188477874638064 9.6945367244106446 -1 0 0 I I #
coedge $-1 $112 $182 $114 $201 reversed $62 $-1 #
vertex $-1 $193 $305 #
straight-curve $-1 0 -31.188477874638064 9.6945367244106446 1 0 0 I I #
edge $-1 $117 -9.6945367244106446 $190 9.6945367244106446 $114 $306 forward 7 unknown #
edge $-1 $118 -9.6945367244106446 $189 9.6945367244106446 $115 $307 forward 7 unknown #
point $-1 67.959837641529589 -31.188477874638064 9.6945367244106446 #
point $-1 67.959837641529589 31.188477874638064 9.6945367244106446 #
face $-1 $308 $309 $16 $-1 $310 forward single #
loop $-1 $-1 $212 $120 #
plane-surface $-1 0 -31.188477874638064 0 0 1 0 0 0 1 forward_v I I I I #
coedge $-1 $123 $225 $124 $211 forward $70 $-1 #
edge $-1 $136 1.9270404371154291 $215 4.9270404371154291 $133 $311 forward 7 unknown #
coedge $-1 $125 $124 $312 $313 reversed $45 $-1 #
edge $-1 $314 -67.959837641529589 $215 67.959837641529589 $208 $315 forward 7 unknown #
coedge $-1 $316 $317 $125 $213 forward $206 $-1 #
edge $-1 $216 -67.959837641529589 $318 67.959837641529589 $212 $319 forward 7 unknown #
coedge $-1 $320 $126 $317 $321 forward $121 $-1 #
vertex $-1 $127 $322 #
vertex $-1 $321 $323 #
straight-curve $-1 67.959837641529589 -12.704397452643455 -8.3540808742308581 0 -1 0 I I #
coedge $-1 $324 $325 $128 $219 forward $326 $-1 #
edge $-1 $226 6.9247144832923055 $223 18.484080421994605 $218 $327 forward 7 unknown #
coedge $-1 $328 $129 $134 $229 reversed $222 $-1 #
coedge $-1 $129 $328 $324 $329 forward $222 $-1 #
loop $-1 $-1 $129 $330 #
vertex $-1 $219 $331 #
straight-curve $-1 0 -31.188477874638064 -5.3540808742308581 1 0 0 I I #
coedge $-1 $208 $131 $325 $332 reversed $70 $-1 #
vertex $-1 $219 $333 #
straight-curve $-1 0 -19.629111935935761 -5.3540808742308581 -1 0 0 I I #
coedge $-1 $134 $334 $335 $336 reversed $121 $-1 #
edge $-1 $337 -9.6945367244106446 $135 5.3540808742308581 $134 $338 forward 7 unknown #
point $-1 67.959837641529589 -31.18847787463806 -5.3540808742308581 #
point $-1 67.959837641529589 -19.629111935935761 -5.3540808742308581 #
face $-1 $339 $151 $17 $-1 $340 reversed single #
loop $-1 $-1 $341 $138 #
plane-surface $-1 0 -19.629111935935761 -6.8540808742308581 0 -1 0 0 0 -1 forward_v I I I I #
coedge $-1 $342 $343 $344 $345 reversed $139 $-1 #
coedge $-1 $346 $141 $347 $348 reversed $78 $-1 #
coedge $-1 $141 $346 $349 $350 reversed $78 $-1 #
coedge $-1 $351 $352 $141 $239 forward $151 $-1 #
edge $-1 $353 -18.484080421994605 $354 -6.9247144832923055 $238 $355 forward 7 unknown #
coedge $-1 $143 $142 $356 $357 reversed $49 $-1 #
coedge $-1 $358 $359 $142 $242 forward $360 $-1 #
edge $-1 $361 -67.959837641529589 $244 67.959837641529589 $142 $362 forward 7 unknown #
coedge $-1 $144 $363 $358 $364 reversed $151 $-1 #
vertex $-1 $364 $365 #
straight-curve $-1 67.959837641529589 38.921148300041565 -7.337604814022983 0 0 -1 I I #
coedge $-1 $356 $366 $146 $247 reversed $367 $-1 #
edge $-1 $248 -3.8663352127017561 $253 3.8663352127017525 $246 $368 forward 7 unknown #
vertex $-1 $147 $369 #
straight-curve $-1 0 38.921148300041565 -4.9806729036353214 -1 0 0 I I #
coedge $-1 $370 $148 $366 $371 reversed $252 $-1 #
coedge $-1 $148 $370 $150 $256 forward $252 $-1 #
loop $-1 $-1 $148 $372 #
vertex $-1 $247 $373 #
straight-curve $-1 0 31.188477874638064 -4.9806729036353214 -1 0 0 I I #
coedge $-1 $352 $150 $374 $375 reversed $151 $-1 #
edge $-1 $376 -9.6945367244106446 $152 4.9806729036353214 $150 $377 forward 7 unknown #
point $-1 67.959837641529589 31.188477874638057 -4.9806729036353214 #
point $-1 67.959837641529589 38.921148300041565 -4.9806729036353214 #
face $-1 $378 $379 $18 $-1 $380 reversed single #
loop $-1 $-1 $381 $155 #
plane-surface $-1 0 35.054813087339809 -4.9806729036353214 0 0 1 1 0 0 forward_v I I I I #
coedge $-1 $161 $382 $158 $265 forward $156 $-1 #
coedge $-1 $264 $158 $383 $384 reversed $86 $-1 #
coedge $-1 $158 $263 $159 $267 forward $86 $-1 #
edge $-1 $385 89.502972104888684 $268 92.904844529490163 $262 $386 forward 7 unknown #
coedge $-1 $160 $159 $272 $387 reversed $53 $-1 #
edge $-1 $388 130.9315806139692 $268 135.91967528305918 $264 $389 forward 7 unknown #
vertex $-1 $162 $390 #
straight-curve $-1 67.959837641529589 -2.873291661640808 6.292664299809168 0 -1 0 I I #
vertex $-1 $387 $391 #
straight-curve $-1 -31.445518971890692 -10.906316427356108 98.989661045178366 -0.7313536940579346 0 0.68199836817093118 I I #
coedge $-1 $383 $164 $266 $387 forward $274 $-1 #
coedge $-1 $164 $392 $166 $277 forward $274 $-1 #
loop $-1 $-1 $383 $393 #
straight-curve $-1 30.625738886739256 -10.906316427356108 9.6945367244106393 -1 0 0 I I #
coedge $-1 $394 $166 $395 $396 forward $156 $-1 #
edge $-1 $397 -31.188477874638064 $168 -10.906316427356108 $166 $398 forward 7 unknown #
point $-1 67.959837641529589 -10.906316427356108 6.2926642998091609 #
point $-1 67.959837641529589 -10.906316427356108 9.6945367244106446 #
face $-1 $399 $400 $19 $-1 $401 reversed single #
loop $-1 $-1 $402 $170 #
plane-surface $-1 61.251477773478513 -0.58685021920712366 198.39501765859865 0 -1 0 -0.68199836817093118 0 -0.7313536940579346 forward_v I I I I #
loop $-1 $-1 $403 $93 #
coedge $-1 $285 $173 $404 $405 forward $94 $-1 #
coedge $-1 $173 $284 $406 $407 reversed $94 $-1 #
coedge $-1 $408 $409 $173 $287 forward $400 $-1 #
edge $-1 $410 -92.904844529490163 $411 -89.502972104888684 $286 $412 forward 7 unknown #
edge $-1 $413 1 $413 0 $174 $-1 forward 7 unknown #
vertex $-1 $175 $414 #
ellipse-curve $-1 65.29584392477885 -5.7465833232816159 7.0928505089284029 0.68199836817093118 0 0.7313536940579346 0.3656768470289673 0 -0.34099918408546559 1 I I #
point $-1 66.501483757283765 -5.7465833232816159 7.6526013280244634 #
plane-surface $-1 67.959837641529589 0 0 -1 0 0 0 0 1 forward_v I I I I #
coedge $-1 $183 $181 $185 $297 reversed $102 $-1 #
edge $-1 $196 -9.6945367244106446 $299 9.6945367244106446 $195 $415 forward 7 unknown #
vertex $-1 $297 $416 #
straight-curve $-1 -67.959837641529589 -31.188477874638064 0 0 0 -1 I I #
edge $-1 $295 -31.188477874638064 $299 31.188477874638064 $293 $417 forward 7 unknown #
straight-curve $-1 0 -31.188477874638064 -9.6945367244106446 -1 0 0 I I #
vertex $-1 $188 $418 #
straight-curve $-1 0 31.188477874638064 -9.6945367244106446 1 0 0 I I #
point $-1 67.959837641529589 31.188477874638064 -9.6945367244106446 #
point $-1 67.959837641529589 -31.188477874638064 -9.6945367244106446 #
straight-curve $-1 -67.959837641529589 0 9.6945367244106446 0 -1 0 I I #
point $-1 -67.959837641529589 31.188477874638064 9.6945367244106446 #
point $-1 -67.959837641529589 -31.188477874638064 9.6945367244106446 #
straight-curve $-1 67.959837641529589 -31.188477874638064 0 0 0 -1 I I #
straight-curve $-1 67.959837641529589 31.188477874638064 0 0 0 -1 I I #
face $-1 $330 $419 $16 $-1 $420 reversed single #
loop $-1 $-1 $335 $205 #
plane-surface $-1 0 0 9.6945367244106446 0 0 1 1 0 0 forward_v I I I I #
straight-curve $-1 67.959837641529589 -19.629111935935761 -3.4270404371154291 0 0 -1 I I #
coedge $-1 $325 $421 $210 $313 forward $326 $-1 #
edge $-1 $318 -18.484080421994605 $314 -6.9247144832923055 $312 $422 forward 7 unknown #
vertex $-1 $313 $423 #
straight-curve $-1 0 -19.629111935935761 -8.3540808742308581 1 0 0 I I #
coedge $-1 $424 $212 $421 $425 forward $206 $-1 #
coedge $-1 $212 $424 $214 $321 reversed $206 $-1 #
vertex $-1 $425 $426 #
straight-curve $-1 0 -31.188477874638064 -8.3540808742308581 -1 0 0 I I #
coedge $-1 $334 $214 $427 $428 reversed $121 $-1 #
edge $-1 $216 8.3540808742308581 $429 9.6945367244106446 $214 $338 forward 7 unknown #
point $-1 67.959837641529589 -19.629111935935761 -8.3540808742308581 #
point $-1 67.959837641529589 -31.18847787463806 -8.3540808742308581 #
coedge $-1 $430 $218 $221 $329 reversed $326 $-1 #
coedge $-1 $218 $312 $225 $332 forward $326 $-1 #
loop $-1 $-1 $218 $431 #
straight-curve $-1 -67.959837641529589 -12.704397452643455 -5.3540808742308581 0 -1 0 I I #
coedge $-1 $221 $220 $432 $433 reversed $222 $-1 #
edge $-1 $434 -9.6945367244106446 $223 5.3540808742308581 $324 $435 forward 7 unknown #
face $-1 $431 $222 $16 $-1 $207 reversed single #
point $-1 -67.959837641529589 -31.18847787463806 -5.3540808742308581 #
edge $-1 $314 -4.9270404371154291 $226 -1.9270404371154291 $325 $436 forward 7 unknown #
point $-1 -67.959837641529589 -19.629111935935761 -5.3540808742308581 #
coedge $-1 $228 $320 $437 $438 reversed $121 $-1 #
coedge $-1 $439 $432 $228 $336 forward $309 $-1 #
edge $-1 $337 -31.188477874638064 $440 31.188477874638064 $228 $441 forward 7 unknown #
vertex $-1 $336 $442 #
straight-curve $-1 67.959837641529589 -31.188477874638064 0 0 0 -1 I I #
face $-1 $443 $444 $17 $-1 $445 reversed single #
plane-surface $-1 67.959837641529589 0 0 -1 0 0 0 0 1 forward_v I I I I #
coedge $-1 $349 $446 $351 $447 reversed $233 $-1 #
coedge $-1 $448 $235 $446 $449 reversed $139 $-1 #
coedge $-1 $235 $448 $450 $451 reversed $139 $-1 #
coedge $-1 $363 $351 $235 $345 forward $151 $-1 #
edge $-1 $452 6.9247144832923055 $453 18.484080421994605 $344 $454 forward 7 unknown #
coedge $-1 $237 $236 $455 $456 reversed $78 $-1 #
coedge $-1 $457 $458 $236 $348 forward $459 $-1 #
edge $-1 $460 -67.959837641529589 $353 67.959837641529589 $347 $461 forward 7 unknown #
coedge $-1 $462 $341 $237 $350 forward $233 $-1 #
edge $-1 $354 -67.959837641529589 $463 67.959837641529589 $349 $464 forward 7 unknown #
coedge $-1 $344 $238 $341 $447 forward $151 $-1 #
coedge $-1 $238 $255 $457 $465 forward $151 $-1 #
vertex $-1 $348 $466 #
vertex $-1 $239 $467 #
straight-curve $-1 67.959837641529589 -12.704397452643455 -5.3540808742308581 0 1 0 I I #
coedge $-1 $468 $246 $240 $357 forward $367 $-1 #
edge $-1 $248 -2.3569319103876616 $361 2.3569319103876616 $240 $469 forward 7 unknown #
coedge $-1 $470 $241 $243 $364 forward $360 $-1 #
coedge $-1 $241 $470 $468 $471 forward $360 $-1 #
loop $-1 $-1 $358 $472 #
vertex $-1 $242 $473 #
straight-curve $-1 0 38.921148300041565 -9.6945367244106446 1 0 0 I I #
coedge $-1 $243 $344 $474 $475 forward $151 $-1 #
edge $-1 $244 -38.921148300041565 $476 31.188477874638064 $243 $477 forward 7 unknown #
point $-1 67.959837641529589 38.921148300041565 -9.6945367244106446 #
coedge $-1 $246 $478 $250 $371 forward $367 $-1 #
loop $-1 $-1 $455 $479 #
straight-curve $-1 -67.959837641529589 35.054813087339809 -4.9806729036353214 0 -1 0 I I #
point $-1 -67.959837641529589 38.921148300041565 -4.9806729036353214 #
coedge $-1 $251 $250 $480 $481 reversed $252 $-1 #
edge $-1 $482 -9.6945367244106446 $253 4.9806729036353214 $250 $483 forward 7 unknown #
face $-1 $-1 $252 $17 $-1 $484 reversed single #
point $-1 -67.959837641529589 31.188477874638057 -4.9806729036353214 #
coedge $-1 $480 $485 $255 $375 forward $486 $-1 #
edge $-1 $487 -31.188477874638064 $376 31.188477874638064 $255 $488 forward 7 unknown #
vertex $-1 $375 $489 #
straight-curve $-1 67.959837641529589 31.188477874638064 0 0 0 -1 I I #
face $-1 $490 $491 $18 $-1 $492 reversed single #
loop $-1 $-1 $493 $259 #
plane-surface $-1 0 38.921148300041565 -7.337604814022983 0 -1 0 0 0 -1 forward_v I I I I #
coedge $-1 $494 $495 $496 $497 forward $260 $-1 #
coedge $-1 $262 $498 $499 $500 reversed $156 $-1 #
coedge $-1 $499 $272 $263 $384 forward $274 $-1 #
edge $-1 $388 33.686037292240684 $385 37.334098754790332 $383 $501 forward 7 unknown #
vertex $-1 $500 $502 #
straight-curve $-1 67.959837641529589 -0.58685021920712366 99.197508829299323 0 0 -1 I I #
edge $-1 $270 -8.0330247657153002 $388 2.2864414424336843 $272 $503 forward 7 unknown #
vertex $-1 $387 $504 #
straight-curve $-1 -31.445518971890692 -0.58685021920712366 98.989661045178366 0.7313536940579346 0 -0.68199836817093118 I I #
point $-1 67.959837641529589 -0.58685021920712366 6.2926642998091609 #
point $-1 64.31177617897994 -10.906316427356108 9.6945367244106393 #
coedge $-1 $273 $505 $506 $507 forward $274 $-1 #
face $-1 $508 $274 $18 $-1 $509 forward single #
coedge $-1 $510 $276 $511 $512 forward $156 $-1 #
coedge $-1 $506 $513 $276 $396 reversed $514 $-1 #
edge $-1 $397 -9.6945367244106446 $515 5.3540808742308581 $276 $516 forward 7 unknown #
vertex $-1 $277 $517 #
straight-curve $-1 67.959837641529589 0 9.6945367244106446 0 1 0 I I #
face $-1 $518 $519 $19 $-1 $520 forward single #
loop $-1 $-1 $521 $280 #
plane-surface $-1 67.959837641529589 0 0 -1 0 0 0 0 1 forward_v I I I I #
coedge $-1 $522 $523 $521 $524 reversed $281 $-1 #
coedge $-1 $525 $404 $409 $526 reversed $283 $-1 #
coedge $-1 $403 $527 $284 $405 reversed $283 $-1 #
edge $-1 $410 -135.91967528305918 $528 -130.9315806139692 $284 $529 forward 7 unknown #
coedge $-1 $530 $531 $285 $407 forward $532 $-1 #
edge $-1 $411 -37.334098754790332 $528 -33.686037292240684 $406 $533 forward 7 unknown #
coedge $-1 $534 $286 $531 $535 reversed $400 $-1 #
coedge $-1 $286 $521 $403 $526 forward $400 $-1 #
vertex $-1 $526 $536 #
vertex $-1 $407 $537 #
straight-curve $-1 67.959837641529589 -10.906316427356108 99.197508829299323 0 0 1 I I #
vertex $-1 $288 $538 #
point $-1 65.661520771807815 -5.7465833232816159 6.7518513248429377 #
straight-curve $-1 -67.959837641529589 31.188477874638064 0 0 0 -1 I I #
point $-1 -67.959837641529589 -31.188477874638064 -9.6945367244106446 #
straight-curve $-1 -67.959837641529589 0 -9.6945367244106446 0 1 0 I I #
point $-1 -67.959837641529589 31.188477874638064 -9.6945367244106446 #
loop $-1 $-1 $427 $308 #
plane-surface $-1 0 0 -9.6945367244106446 0 0 1 1 0 0 forward_v I I I I #
coedge $-1 $312 $539 $316 $425 reversed $326 $-1 #
straight-curve $-1 -67.959837641529589 -12.704397452643455 -8.3540808742308581 0 1 0 I I #
point $-1 -67.959837641529589 -19.629111935935761 -8.3540808742308581 #
coedge $-1 $317 $316 $540 $541 reversed $206 $-1 #
edge $-1 $318 8.3540808742308581 $542 9.6945367244106446 $421 $435 forward 7 unknown #
point $-1 -67.959837641529589 -31.18847787463806 -8.3540808742308581 #
coedge $-1 $540 $543 $320 $428 forward $419 $-1 #
edge $-1 $544 -31.188477874638064 $429 31.188477874638064 $320 $545 forward 7 unknown #
vertex $-1 $321 $546 #
coedge $-1 $547 $324 $548 $549 reversed $326 $-1 #
face $-1 $550 $326 $16 $-1 $551 reversed single #
coedge $-1 $335 $548 $328 $433 forward $309 $-1 #
edge $-1 $434 -67.959837641529589 $337 67.959837641529589 $328 $552 forward 7 unknown #
vertex $-1 $549 $553 #
straight-curve $-1 -67.959837641529589 -31.188477874638064 0 0 0 -1 I I #
straight-curve $-1 -67.959837641529589 -19.629111935935761 -3.4270404371154291 0 0 1 I I #
coedge $-1 $554 $555 $334 $438 forward $556 $-1 #
edge $-1 $440 -9.6945367244106446 $544 9.6945367244106446 $334 $557 forward 7 unknown #
coedge $-1 $548 $335 $555 $558 forward $309 $-1 #
vertex $-1 $336 $559 #
straight-curve $-1 67.959837641529589 0 9.6945367244106446 0 1 0 I I #
point $-1 67.959837641529589 -31.188477874638064 9.6945367244106446 #
face $-1 $472 $486 $17 $-1 $560 forward single #
loop $-1 $-1 $450 $339 #
plane-surface $-1 0 -31.188477874638064 0 0 1 0 0 0 1 forward_v I I I I #
coedge $-1 $341 $462 $342 $449 forward $233 $-1 #
edge $-1 $354 1.9270404371154291 $452 4.9270404371154291 $351 $561 forward 7 unknown #
coedge $-1 $343 $342 $562 $563 reversed $139 $-1 #
edge $-1 $564 -67.959837641529589 $452 67.959837641529589 $446 $565 forward 7 unknown #
coedge $-1 $566 $474 $343 $451 forward $444 $-1 #
edge $-1 $453 -67.959837641529589 $567 67.959837641529589 $450 $568 forward 7 unknown #
vertex $-1 $345 $569 #
vertex $-1 $475 $570 #
straight-curve $-1 67.959837641529589 -12.704397452643455 -8.3540808742308581 0 -1 0 I I #
coedge $-1 $571 $572 $346 $456 forward $367 $-1 #
edge $-1 $463 6.9247144832923055 $460 18.484080421994605 $455 $573 forward 7 unknown #
coedge $-1 $574 $347 $352 $465 reversed $459 $-1 #
coedge $-1 $347 $574 $571 $575 forward $459 $-1 #
loop $-1 $-1 $347 $576 #
vertex $-1 $456 $577 #
straight-curve $-1 0 -31.188477874638064 -5.3540808742308581 1 0 0 I I #
coedge $-1 $446 $349 $572 $578 reversed $233 $-1 #
vertex $-1 $456 $579 #
straight-curve $-1 0 -19.629111935935761 -5.3540808742308581 -1 0 0 I I #
edge $-1 $487 -9.6945367244106446 $353 5.3540808742308581 $352 $580 forward 7 unknown #
point $-1 67.959837641529589 -31.18847787463806 -5.3540808742308581 #
point $-1 67.959837641529589 -19.629111935935761 -5.3540808742308581 #
coedge $-1 $581 $356 $359 $471 reversed $367 $-1 #
straight-curve $-1 -67.959837641529589 38.921148300041565 -7.337604814022983 0 0 -1 I I #
coedge $-1 $359 $358 $582 $583 forward $360 $-1 #
edge $-1 $584 -66.243290961977877 $361 3.8663352127017561 $468 $585 forward 7 unknown #
face $-1 $576 $360 $17 $-1 $586 reversed single #
point $-1 -67.959837641529589 38.921148300041565 -9.6945367244106446 #
coedge $-1 $450 $582 $363 $475 reversed $444 $-1 #
edge $-1 $453 8.3540808742308581 $476 9.6945367244106446 $363 $580 forward 7 unknown #
vertex $-1 $475 $587 #
straight-curve $-1 67.959837641529589 0 -9.6945367244106446 0 -1 0 I I #
coedge $-1 $366 $571 $588 $589 reversed $367 $-1 #
face $-1 $372 $367 $17 $-1 $590 reversed single #
coedge $-1 $588 $374 $370 $481 forward $486 $-1 #
edge $-1 $376 -67.959837641529589 $482 67.959837641529589 $370 $591 forward 7 unknown #
vertex $-1 $481 $592 #
straight-curve $-1 -67.959837641529589 31.188477874638064 0 0 0 -1 I I #
plane-surface $-1 0 31.188477874638064 0 0 -1 0 0 0 -1 forward_v I I I I #
coedge $-1 $374 $588 $574 $593 forward $486 $-1 #
loop $-1 $-1 $374 $443 #
vertex $-1 $375 $594 #
straight-curve $-1 67.959837641529589 0 9.6945367244106446 0 1 0 I I #
point $-1 67.959837641529589 31.188477874638064 9.6945367244106446 #
face $-1 $595 $596 $18 $-1 $597 forward single #
loop $-1 $-1 $511 $378 #
plane-surface $-1 0 -25.408794905286911 -5.3540808742308581 0 0 1 1 0 0 forward_v I I I I #
coedge $-1 $598 $599 $600 $601 forward $379 $-1 #
coedge $-1 $602 $381 $599 $603 forward $260 $-1 #
coedge $-1 $381 $602 $604 $605 reversed $260 $-1 #
coedge $-1 $498 $600 $381 $497 reversed $156 $-1 #
edge $-1 $606 -3.8663352127017525 $607 3.8663352127017561 $496 $608 forward 7 unknown #
coedge $-1 $382 $496 $609 $610 reversed $156 $-1 #
coedge $-1 $611 $383 $382 $500 forward $274 $-1 #
edge $-1 $385 -0.58685021920712366 $612 31.188477874638064 $382 $398 forward 7 unknown #
straight-curve $-1 30.625738886739256 -0.58685021920712366 9.6945367244106393 1 0 0 I I #
point $-1 67.959837641529589 -0.58685021920712366 9.6945367244106446 #
straight-curve $-1 64.31177617897994 -2.873291661640808 9.6945367244106464 0 1 0 I I #
point $-1 64.31177617897994 -0.58685021920712366 9.6945367244106393 #
coedge $-1 $392 $611 $613 $614 forward $274 $-1 #
coedge $-1 $615 $395 $392 $507 reversed $514 $-1 #
edge $-1 $616 -67.959837641529589 $397 67.959837641529589 $506 $617 forward 7 unknown #
face $-1 $618 $619 $18 $-1 $620 reversed single #
plane-surface $-1 0 0 9.6945367244106446 0 0 1 1 0 0 forward_v I I I I #
coedge $-1 $621 $394 $622 $623 forward $156 $-1 #
coedge $-1 $624 $625 $394 $512 reversed $491 $-1 #
edge $-1 $515 -18.484080421994605 $626 -6.9247144832923055 $394 $627 forward 7 unknown #
coedge $-1 $395 $615 $624 $628 forward $514 $-1 #
loop $-1 $-1 $513 $618 #
vertex $-1 $628 $629 #
straight-curve $-1 67.959837641529589 -31.188477874638064 0 0 0 -1 I I #
point $-1 67.959837641529589 -31.188477874638064 9.6945367244106446 #
face $-1 $630 $631 $19 $-1 $632 reversed single #
loop $-1 $-1 $633 $399 #
plane-surface $-1 0 35.054813087339809 -4.9806729036353214 0 0 1 1 0 0 forward_v I I I I #
coedge $-1 $409 $634 $402 $524 forward $400 $-1 #
coedge $-1 $523 $402 $635 $636 reversed $281 $-1 #
coedge $-1 $402 $522 $525 $637 forward $281 $-1 #
edge $-1 $638 89.502972104888684 $639 92.904844529490163 $521 $640 forward 7 unknown #
coedge $-1 $527 $403 $523 $637 reversed $283 $-1 #
edge $-1 $639 -2.2864414424336843 $410 8.0330247657153002 $409 $641 forward 7 unknown #
coedge $-1 $404 $525 $530 $642 reversed $283 $-1 #
vertex $-1 $642 $643 #
straight-curve $-1 -31.445518971890692 -10.906316427356108 98.989661045178366 -0.7313536940579346 0 0.68199836817093118 I I #
coedge $-1 $635 $406 $527 $642 forward $532 $-1 #
coedge $-1 $406 $644 $408 $535 forward $532 $-1 #
loop $-1 $-1 $635 $645 #
straight-curve $-1 30.625738886739256 -10.906316427356108 9.6945367244106393 -1 0 0 I I #
coedge $-1 $646 $408 $647 $648 forward $400 $-1 #
edge $-1 $649 -31.188477874638064 $411 -10.906316427356108 $408 $650 forward 7 unknown #
point $-1 67.959837641529589 -10.906316427356108 6.2926642998091609 #
point $-1 67.959837641529589 -10.906316427356108 9.6945367244106446 #
point $-1 64.954844740693389 -5.7465833232816159 6.7271736618994362 #
coedge $-1 $421 $547 $651 $652 reversed $326 $-1 #
coedge $-1 $651 $427 $424 $541 forward $419 $-1 #
edge $-1 $429 -67.959837641529589 $542 67.959837641529589 $424 $653 forward 7 unknown #
vertex $-1 $652 $654 #
coedge $-1 $427 $651 $554 $655 forward $419 $-1 #
vertex $-1 $428 $656 #
straight-curve $-1 67.959837641529589 0 -9.6945367244106446 0 -1 0 I I #
point $-1 67.959837641529589 -31.188477874638064 -9.6945367244106446 #
coedge $-1 $539 $430 $657 $658 forward $326 $-1 #
coedge $-1 $432 $439 $430 $549 forward $309 $-1 #
edge $-1 $659 -31.188477874638064 $434 31.188477874638064 $430 $660 forward 7 unknown #
face $-1 $-1 $556 $16 $-1 $661 reversed single #
plane-surface $-1 -67.959837641529589 0 0 1 0 0 0 0 -1 forward_v I I I I #
straight-curve $-1 0 -31.188477874638064 9.6945367244106446 1 0 0 I I #
point $-1 -67.959837641529589 -31.188477874638064 9.6945367244106446 #
coedge $-1 $657 $437 $543 $655 reversed $556 $-1 #
coedge $-1 $437 $657 $439 $558 reversed $556 $-1 #
loop $-1 $-1 $437 $550 #
straight-curve $-1 67.959837641529589 31.188477874638064 0 0 0 -1 I I #
edge $-1 $440 -67.959837641529589 $659 67.959837641529589 $555 $662 forward 7 unknown #
point $-1 67.959837641529589 31.188477874638064 9.6945367244106446 #
plane-surface $-1 0 0 9.6945367244106446 0 0 1 1 0 0 forward_v I I I I #
straight-curve $-1 67.959837641529589 -19.629111935935761 -3.4270404371154291 0 0 -1 I I #
coedge $-1 $572 $581 $448 $563 forward $367 $-1 #
edge $-1 $567 -18.484080421994605 $564 -6.9247144832923055 $562 $663 forward 7 unknown #
vertex $-1 $563 $664 #
straight-curve $-1 0 -19.629111935935761 -8.3540808742308581 1 0 0 I I #
coedge $-1 $582 $450 $581 $665 forward $444 $-1 #
vertex $-1 $665 $666 #
straight-curve $-1 0 -31.188477874638064 -8.3540808742308581 -1 0 0 I I #
point $-1 67.959837641529589 -19.629111935935761 -8.3540808742308581 #
point $-1 67.959837641529589 -31.18847787463806 -8.3540808742308581 #
coedge $-1 $478 $455 $458 $575 reversed $367 $-1 #
coedge $-1 $455 $562 $462 $578 forward $367 $-1 #
straight-curve $-1 -67.959837641529589 -12.704397452643455 -5.3540808742308581 0 -1 0 I I #
coedge $-1 $458 $457 $485 $593 reversed $459 $-1 #
edge $-1 $667 -9.6945367244106446 $460 5.3540808742308581 $571 $668 forward 7 unknown #
face $-1 $479 $459 $17 $-1 $445 reversed single #
point $-1 -67.959837641529589 -31.18847787463806 -5.3540808742308581 #
edge $-1 $564 -4.9270404371154291 $463 -1.9270404371154291 $572 $669 forward 7 unknown #
point $-1 -67.959837641529589 -19.629111935935761 -5.3540808742308581 #
straight-curve $-1 67.959837641529589 -31.188477874638064 0 0 0 -1 I I #
coedge $-1 $562 $468 $566 $665 reversed $367 $-1 #
coedge $-1 $474 $566 $470 $583 reversed $444 $-1 #
edge $-1 $476 -67.959837641529589 $584 67.959837641529589 $582 $670 forward 7 unknown #
vertex $-1 $471 $671 #
straight-curve $-1 -67.959837641529589 35.054813087339809 -9.6945367244106446 0 1 0 I I #
plane-surface $-1 0 0 -9.6945367244106446 0 0 1 1 0 0 forward_v I I I I #
point $-1 67.959837641529589 -31.188477874638064 -9.6945367244106446 #
coedge $-1 $485 $480 $478 $589 forward $486 $-1 #
edge $-1 $482 -31.188477874638064 $667 31.188477874638064 $478 $672 forward 7 unknown #
plane-surface $-1 -67.959837641529589 0 0 1 0 0 0 0 -1 forward_v I I I I #
straight-curve $-1 0 31.188477874638064 9.6945367244106446 -1 0 0 I I #
point $-1 -67.959837641529589 31.188477874638064 9.6945367244106446 #
edge $-1 $667 -67.959837641529589 $487 67.959837641529589 $574 $673 forward 7 unknown #
point $-1 67.959837641529589 -31.188477874638064 9.6945367244106446 #
face $-1 $674 $675 $18 $-1 $676 forward single #
loop $-1 $-1 $677 $490 #
plane-surface $-1 0 -25.408794905286911 -8.3540808742308581 0 0 1 1 0 0 forward_v I I I I #
coedge $-1 $678 $493 $679 $680 reversed $379 $-1 #
coedge $-1 $493 $678 $494 $603 reversed $379 $-1 #
coedge $-1 $496 $681 $493 $601 reversed $156 $-1 #
edge $-1 $607 -2.3569319103876616 $682 2.3569319103876616 $600 $683 forward 7 unknown #
coedge $-1 $495 $494 $684 $685 forward $260 $-1 #
edge $-1 $607 -67.959837641529589 $686 67.959837641529589 $599 $687 forward 7 unknown #
coedge $-1 $688 $609 $495 $605 forward $689 $-1 #
edge $-1 $606 -67.959837641529589 $690 67.959837641529589 $604 $691 forward 7 unknown #
vertex $-1 $610 $692 #
vertex $-1 $497 $693 #
straight-curve $-1 67.959837641529589 35.054813087339809 -4.9806729036353214 0 1 0 I I #
coedge $-1 $604 $694 $498 $610 forward $689 $-1 #
edge $-1 $612 -9.6945367244106446 $606 4.9806729036353214 $498 $695 forward 7 unknown #
coedge $-1 $505 $499 $694 $696 forward $274 $-1 #
vertex $-1 $500 $697 #
coedge $-1 $698 $699 $505 $614 reversed $700 $-1 #
edge $-1 $701 -31.188477874638064 $616 31.188477874638064 $613 $702 forward 7 unknown #
coedge $-1 $513 $506 $699 $703 forward $514 $-1 #
vertex $-1 $614 $704 #
straight-curve $-1 0 -31.188477874638064 9.6945367244106446 1 0 0 I I #
face $-1 $705 $514 $18 $-1 $706 reversed single #
loop $-1 $-1 $707 $508 #
plane-surface $-1 0 0 -9.6945367244106446 0 0 1 1 0 0 forward_v I I I I #
coedge $-1 $708 $510 $677 $709 forward $156 $-1 #
coedge $-1 $710 $711 $510 $623 reversed $675 $-1 #
edge $-1 $626 1.9270404371154291 $712 4.9270404371154291 $510 $713 forward 7 unknown #
coedge $-1 $714 $511 $513 $628 reversed $491 $-1 #
coedge $-1 $511 $714 $710 $715 reversed $491 $-1 #
vertex $-1 $512 $716 #
straight-curve $-1 67.959837641529589 -12.704397452643455 -5.3540808742308581 0 1 0 I I #
edge $-1 $717 -67.959837641529589 $515 67.959837641529589 $513 $718 forward 7 unknown #
point $-1 67.959837641529589 -31.18847787463806 -5.3540808742308581 #
face $-1 $719 $720 $19 $-1 $721 reversed single #
loop $-1 $-1 $722 $518 #
plane-surface $-1 0 38.921148300041565 -7.337604814022983 0 -1 0 0 0 -1 forward_v I I I I #
coedge $-1 $723 $724 $725 $726 forward $519 $-1 #
coedge $-1 $521 $727 $728 $729 reversed $400 $-1 #
coedge $-1 $728 $530 $522 $636 forward $532 $-1 #
edge $-1 $730 33.686037292240684 $638 37.334098754790332 $635 $731 forward 7 unknown #
edge $-1 $730 130.9315806139692 $639 135.91967528305918 $523 $732 forward 7 unknown #
vertex $-1 $729 $733 #
vertex $-1 $526 $734 #
straight-curve $-1 67.959837641529589 -0.58685021920712366 99.197508829299323 0 0 -1 I I #
straight-curve $-1 67.959837641529589 -2.873291661640808 6.292664299809168 0 -1 0 I I #
edge $-1 $528 -8.0330247657153002 $730 2.2864414424336843 $530 $735 forward 7 unknown #
point $-1 64.31177617897994 -10.906316427356108 9.6945367244106393 #
coedge $-1 $531 $736 $737 $738 forward $532 $-1 #
face $-1 $739 $532 $19 $-1 $740 forward single #
coedge $-1 $741 $534 $742 $743 forward $400 $-1 #
coedge $-1 $737 $744 $534 $648 reversed $745 $-1 #
edge $-1 $649 -9.6945367244106446 $746 5.3540808742308581 $534 $747 forward 7 unknown #
vertex $-1 $535 $748 #
straight-curve $-1 67.959837641529589 0 9.6945367244106446 0 1 0 I I #
coedge $-1 $543 $540 $539 $652 forward $419 $-1 #
edge $-1 $542 -31.188477874638064 $749 31.188477874638064 $539 $750 forward 7 unknown #
straight-curve $-1 0 -31.188477874638064 -9.6945367244106446 -1 0 0 I I #
point $-1 -67.959837641529589 -31.188477874638064 -9.6945367244106446 #
edge $-1 $749 -67.959837641529589 $544 67.959837641529589 $554 $751 forward 7 unknown #
point $-1 67.959837641529589 31.188477874638064 -9.6945367244106446 #
coedge $-1 $555 $554 $547 $658 reversed $556 $-1 #
edge $-1 $659 -9.6945367244106446 $749 9.6945367244106446 $657 $752 forward 7 unknown #
vertex $-1 $558 $753 #
straight-curve $-1 -67.959837641529589 0 9.6945367244106446 0 -1 0 I I #
plane-surface $-1 0 31.188477874638064 0 0 -1 0 0 0 -1 forward_v I I I I #
straight-curve $-1 0 31.188477874638064 9.6945367244106446 -1 0 0 I I #
straight-curve $-1 -67.959837641529589 -12.704397452643455 -8.3540808742308581 0 1 0 I I #
point $-1 -67.959837641529589 -19.629111935935761 -8.3540808742308581 #
edge $-1 $567 8.3540808742308581 $584 9.6945367244106446 $581 $668 forward 7 unknown #
point $-1 -67.959837641529589 -31.18847787463806 -8.3540808742308581 #
vertex $-1 $589 $754 #
straight-curve $-1 -67.959837641529589 -31.188477874638064 0 0 0 -1 I I #
straight-curve $-1 -67.959837641529589 -19.629111935935761 -3.4270404371154291 0 0 1 I I #
straight-curve $-1 0 -31.188477874638064 -9.6945367244106446 -1 0 0 I I #
point $-1 -67.959837641529589 -31.188477874638064 -9.6945367244106446 #
straight-curve $-1 -67.959837641529589 0 9.6945367244106446 0 -1 0 I I #
straight-curve $-1 0 -31.188477874638064 9.6945367244106446 1 0 0 I I #
face $-1 $393 $755 $18 $-1 $706 reversed single #
loop $-1 $-1 $622 $595 #
plane-surface $-1 0 -19.629111935935761 -6.8540808742308581 0 -1 0 0 0 -1 forward_v I I I I #
coedge $-1 $756 $757 $621 $709 reversed $596 $-1 #
coedge $-1 $599 $598 $758 $759 reversed $379 $-1 #
coedge $-1 $707 $760 $598 $680 forward $619 $-1 #
edge $-1 $761 -67.959837641529589 $682 67.959837641529589 $598 $762 forward 7 unknown #
coedge $-1 $600 $708 $707 $763 reversed $156 $-1 #
vertex $-1 $763 $764 #
straight-curve $-1 67.959837641529589 38.921148300041565 -7.337604814022983 0 0 -1 I I #
coedge $-1 $758 $698 $602 $685 reversed $700 $-1 #
edge $-1 $686 -3.8663352127017561 $690 3.8663352127017525 $684 $765 forward 7 unknown #
vertex $-1 $603 $766 #
straight-curve $-1 0 38.921148300041565 -4.9806729036353214 -1 0 0 I I #
coedge $-1 $694 $604 $698 $767 reversed $689 $-1 #
loop $-1 $-1 $604 $768 #
vertex $-1 $685 $769 #
straight-curve $-1 0 31.188477874638064 -4.9806729036353214 -1 0 0 I I #
point $-1 67.959837641529589 31.188477874638057 -4.9806729036353214 #
point $-1 67.959837641529589 38.921148300041565 -4.9806729036353214 #
coedge $-1 $609 $688 $611 $696 reversed $689 $-1 #
straight-curve $-1 67.959837641529589 31.188477874638064 0 0 0 -1 I I #
edge $-1 $612 -67.959837641529589 $701 67.959837641529589 $694 $770 forward 7 unknown #
point $-1 67.959837641529589 31.188477874638064 9.6945367244106446 #
coedge $-1 $684 $613 $688 $767 forward $700 $-1 #
coedge $-1 $613 $771 $615 $703 reversed $700 $-1 #
loop $-1 $-1 $771 $705 #
vertex $-1 $696 $772 #
straight-curve $-1 -67.959837641529589 0 9.6945367244106446 0 -1 0 I I #
edge $-1 $616 -9.6945367244106446 $717 5.3540808742308581 $699 $773 forward 7 unknown #
point $-1 -67.959837641529589 -31.188477874638064 9.6945367244106446 #
face $-1 $768 $700 $18 $-1 $774 reversed single #
plane-surface $-1 0 -31.188477874638064 0 0 1 0 0 0 1 forward_v I I I I #
coedge $-1 $775 $679 $681 $763 forward $619 $-1 #
coedge $-1 $681 $621 $776 $777 forward $156 $-1 #
edge $-1 $712 6.9247144832923055 $778 18.484080421994605 $621 $779 forward 7 unknown #
coedge $-1 $780 $622 $625 $715 forward $675 $-1 #
coedge $-1 $622 $780 $756 $781 forward $675 $-1 #
vertex $-1 $709 $782 #
straight-curve $-1 67.959837641529589 -19.629111935935761 -3.4270404371154291 0 0 -1 I I #
coedge $-1 $625 $624 $771 $783 reversed $491 $-1 #
edge $-1 $626 -67.959837641529589 $784 67.959837641529589 $710 $785 forward 7 unknown #
point $-1 67.959837641529589 -19.629111935935761 -5.3540808742308581 #
vertex $-1 $783 $786 #
straight-curve $-1 0 -31.188477874638064 -5.3540808742308581 1 0 0 I I #
face $-1 $787 $788 $19 $-1 $789 forward single #
loop $-1 $-1 $742 $630 #
plane-surface $-1 0 -25.408794905286911 -5.3540808742308581 0 0 1 1 0 0 forward_v I I I I #
coedge $-1 $790 $791 $792 $793 forward $631 $-1 #
coedge $-1 $794 $633 $791 $795 forward $519 $-1 #
coedge $-1 $633 $794 $796 $797 reversed $519 $-1 #
coedge $-1 $727 $792 $633 $726 reversed $400 $-1 #
edge $-1 $798 -3.8663352127017525 $799 3.8663352127017561 $725 $800 forward 7 unknown #
coedge $-1 $634 $725 $801 $802 reversed $400 $-1 #
coedge $-1 $803 $635 $634 $729 forward $532 $-1 #
edge $-1 $638 -0.58685021920712366 $804 31.188477874638064 $634 $650 forward 7 unknown #
vertex $-1 $642 $805 #
straight-curve $-1 30.625738886739256 -0.58685021920712366 9.6945367244106393 1 0 0 I I #
straight-curve $-1 -31.445518971890692 -0.58685021920712366 98.989661045178366 0.7313536940579346 0 -0.68199836817093118 I I #
point $-1 67.959837641529589 -0.58685021920712366 9.6945367244106446 #
point $-1 67.959837641529589 -0.58685021920712366 6.2926642998091609 #
straight-curve $-1 64.31177617897994 -2.873291661640808 9.6945367244106464 0 1 0 I I #
coedge $-1 $644 $803 $806 $807 forward $532 $-1 #
coedge $-1 $808 $647 $644 $738 reversed $745 $-1 #
edge $-1 $809 -67.959837641529589 $649 67.959837641529589 $737 $810 forward 7 unknown #
face $-1 $811 $812 $19 $-1 $813 reversed single #
plane-surface $-1 0 0 9.6945367244106446 0 0 1 1 0 0 forward_v I I I I #
coedge $-1 $814 $646 $815 $816 forward $400 $-1 #
coedge $-1 $817 $818 $646 $743 reversed $720 $-1 #
edge $-1 $746 -18.484080421994605 $819 -6.9247144832923055 $646 $820 forward 7 unknown #
coedge $-1 $647 $808 $817 $821 forward $745 $-1 #
loop $-1 $-1 $744 $811 #
vertex $-1 $821 $822 #
straight-curve $-1 67.959837641529589 -31.188477874638064 0 0 0 -1 I I #
point $-1 67.959837641529589 -31.188477874638064 9.6945367244106446 #
vertex $-1 $655 $823 #
straight-curve $-1 -67.959837641529589 0 -9.6945367244106446 0 1 0 I I #
straight-curve $-1 0 31.188477874638064 -9.6945367244106446 1 0 0 I I #
straight-curve $-1 -67.959837641529589 31.188477874638064 0 0 0 -1 I I #
point $-1 -67.959837641529589 31.188477874638064 9.6945367244106446 #
point $-1 -67.959837641529589 -31.188477874638064 9.6945367244106446 #
loop $-1 $-1 $824 $674 #
coedge $-1 $825 $677 $711 $781 reversed $596 $-1 #
coedge $-1 $677 $825 $824 $826 reversed $596 $-1 #
coedge $-1 $827 $684 $678 $759 forward $700 $-1 #
edge $-1 $686 -2.3569319103876616 $761 2.3569319103876616 $678 $828 forward 7 unknown #
coedge $-1 $679 $775 $827 $829 forward $619 $-1 #
vertex $-1 $680 $830 #
straight-curve $-1 0 38.921148300041565 -9.6945367244106446 1 0 0 I I #
edge $-1 $682 -38.921148300041565 $831 31.188477874638064 $681 $832 forward 7 unknown #
point $-1 67.959837641529589 38.921148300041565 -9.6945367244106446 #
straight-curve $-1 -67.959837641529589 35.054813087339809 -4.9806729036353214 0 -1 0 I I #
point $-1 -67.959837641529589 38.921148300041565 -4.9806729036353214 #
edge $-1 $701 -9.6945367244106446 $690 4.9806729036353214 $688 $833 forward 7 unknown #
face $-1 $-1 $689 $18 $-1 $834 reversed single #
point $-1 -67.959837641529589 31.188477874638057 -4.9806729036353214 #
straight-curve $-1 0 31.188477874638064 9.6945367244106446 -1 0 0 I I #
coedge $-1 $699 $835 $714 $783 forward $700 $-1 #
point $-1 -67.959837641529589 31.188477874638064 9.6945367244106446 #
straight-curve $-1 -67.959837641529589 -31.188477874638064 0 0 0 -1 I I #
plane-surface $-1 -67.959837641529589 0 0 1 0 0 0 0 -1 forward_v I I I I #
coedge $-1 $760 $707 $836 $837 forward $619 $-1 #
coedge $-1 $824 $836 $708 $777 reversed $755 $-1 #
edge $-1 $778 8.3540808742308581 $831 9.6945367244106446 $708 $516 forward 7 unknown #
vertex $-1 $777 $838 #
straight-curve $-1 67.959837641529589 -12.704397452643455 -8.3540808742308581 0 -1 0 I I #
coedge $-1 $711 $710 $835 $839 reversed $675 $-1 #
edge $-1 $840 -67.959837641529589 $712 67.959837641529589 $711 $841 forward 7 unknown #
point $-1 67.959837641529589 -19.629111935935761 -8.3540808742308581 #
edge $-1 $784 6.9247144832923055 $717 18.484080421994605 $771 $842 forward 7 unknown #
vertex $-1 $783 $843 #
straight-curve $-1 0 -19.629111935935761 -5.3540808742308581 -1 0 0 I I #
point $-1 -67.959837641529589 -31.18847787463806 -5.3540808742308581 #
face $-1 $844 $845 $19 $-1 $846 forward single #
loop $-1 $-1 $847 $719 #
plane-surface $-1 0 -25.408794905286911 -8.3540808742308581 0 0 1 1 0 0 forward_v I I I I #
coedge $-1 $848 $722 $849 $850 reversed $631 $-1 #
coedge $-1 $722 $848 $723 $795 reversed $631 $-1 #
coedge $-1 $725 $851 $722 $793 reversed $400 $-1 #
edge $-1 $799 -2.3569319103876616 $852 2.3569319103876616 $792 $853 forward 7 unknown #
coedge $-1 $724 $723 $854 $855 forward $519 $-1 #
edge $-1 $799 -67.959837641529589 $856 67.959837641529589 $791 $857 forward 7 unknown #
coedge $-1 $858 $801 $724 $797 forward $859 $-1 #
edge $-1 $798 -67.959837641529589 $860 67.959837641529589 $796 $861 forward 7 unknown #
vertex $-1 $802 $862 #
vertex $-1 $726 $863 #
straight-curve $-1 67.959837641529589 35.054813087339809 -4.9806729036353214 0 1 0 I I #
coedge $-1 $796 $864 $727 $802 forward $859 $-1 #
edge $-1 $804 -9.6945367244106446 $798 4.9806729036353214 $727 $865 forward 7 unknown #
coedge $-1 $736 $728 $864 $866 forward $532 $-1 #
vertex $-1 $729 $867 #
point $-1 64.31177617897994 -0.58685021920712366 9.6945367244106393 #
coedge $-1 $868 $869 $736 $807 reversed $870 $-1 #
edge $-1 $871 -31.188477874638064 $809 31.188477874638064 $806 $872 forward 7 unknown #
coedge $-1 $744 $737 $869 $873 forward $745 $-1 #
vertex $-1 $807 $874 #
straight-curve $-1 0 -31.188477874638064 9.6945367244106446 1 0 0 I I #
face $-1 $875 $745 $19 $-1 $876 reversed single #
loop $-1 $-1 $877 $739 #
plane-surface $-1 0 0 -9.6945367244106446 0 0 1 1 0 0 forward_v I I I I #
coedge $-1 $878 $741 $847 $879 forward $400 $-1 #
coedge $-1 $880 $881 $741 $816 reversed $845 $-1 #
edge $-1 $819 1.9270404371154291 $882 4.9270404371154291 $741 $883 forward 7 unknown #
coedge $-1 $884 $742 $744 $821 reversed $720 $-1 #
coedge $-1 $742 $884 $880 $885 reversed $720 $-1 #
vertex $-1 $743 $886 #
straight-curve $-1 67.959837641529589 -12.704397452643455 -5.3540808742308581 0 1 0 I I #
edge $-1 $887 -67.959837641529589 $746 67.959837641529589 $744 $888 forward 7 unknown #
point $-1 67.959837641529589 -31.18847787463806 -5.3540808742308581 #
point $-1 -67.959837641529589 31.188477874638064 -9.6945367244106446 #
coedge $-1 $889 $776 $757 $826 forward $755 $-1 #
coedge $-1 $757 $756 $890 $891 reversed $596 $-1 #
edge $-1 $778 -67.959837641529589 $892 67.959837641529589 $824 $893 forward 7 unknown #
coedge $-1 $894 $758 $760 $829 reversed $700 $-1 #
straight-curve $-1 -67.959837641529589 38.921148300041565 -7.337604814022983 0 0 -1 I I #
edge $-1 $895 -66.243290961977877 $761 3.8663352127017561 $827 $896 forward 7 unknown #
point $-1 -67.959837641529589 38.921148300041565 -9.6945367244106446 #
vertex $-1 $777 $897 #
straight-curve $-1 67.959837641529589 0 -9.6945367244106446 0 -1 0 I I #
straight-curve $-1 -67.959837641529589 31.188477874638064 0 0 0 -1 I I #
plane-surface $-1 0 31.188477874638064 0 0 -1 0 0 0 -1 forward_v I I I I #
coedge $-1 $771 $890 $780 $839 forward $700 $-1 #
coedge $-1 $776 $889 $775 $837 reversed $755 $-1 #
edge $-1 $831 -67.959837641529589 $895 67.959837641529589 $836 $898 forward 7 unknown #
point $-1 67.959837641529589 -31.18847787463806 -8.3540808742308581 #
edge $-1 $840 -4.9270404371154291 $784 -1.9270404371154291 $835 $899 forward 7 unknown #
vertex $-1 $891 $900 #
straight-curve $-1 0 -19.629111935935761 -8.3540808742308581 1 0 0 I I #
straight-curve $-1 -67.959837641529589 -12.704397452643455 -5.3540808742308581 0 -1 0 I I #
point $-1 -67.959837641529589 -19.629111935935761 -5.3540808742308581 #
face $-1 $645 $901 $19 $-1 $876 reversed single #
loop $-1 $-1 $815 $787 #
plane-surface $-1 0 -19.629111935935761 -6.8540808742308581 0 -1 0 0 0 -1 forward_v I I I I #
coedge $-1 $902 $903 $814 $879 reversed $788 $-1 #
coedge $-1 $791 $790 $904 $905 reversed $631 $-1 #
coedge $-1 $877 $906 $790 $850 forward $812 $-1 #
edge $-1 $907 -67.959837641529589 $852 67.959837641529589 $790 $908 forward 7 unknown #
coedge $-1 $792 $878 $877 $909 reversed $400 $-1 #
vertex $-1 $909 $910 #
straight-curve $-1 67.959837641529589 38.921148300041565 -7.337604814022983 0 0 -1 I I #
coedge $-1 $904 $868 $794 $855 reversed $870 $-1 #
edge $-1 $856 -3.8663352127017561 $860 3.8663352127017525 $854 $911 forward 7 unknown #
vertex $-1 $795 $912 #
straight-curve $-1 0 38.921148300041565 -4.9806729036353214 -1 0 0 I I #
coedge $-1 $864 $796 $868 $913 reversed $859 $-1 #
loop $-1 $-1 $796 $914 #
vertex $-1 $855 $915 #
straight-curve $-1 0 31.188477874638064 -4.9806729036353214 -1 0 0 I I #
point $-1 67.959837641529589 31.188477874638057 -4.9806729036353214 #
point $-1 67.959837641529589 38.921148300041565 -4.9806729036353214 #
coedge $-1 $801 $858 $803 $866 reversed $859 $-1 #
straight-curve $-1 67.959837641529589 31.188477874638064 0 0 0 -1 I I #
edge $-1 $804 -67.959837641529589 $871 67.959837641529589 $864 $916 forward 7 unknown #
point $-1 67.959837641529589 31.188477874638064 9.6945367244106446 #
coedge $-1 $854 $806 $858 $913 forward $870 $-1 #
coedge $-1 $806 $917 $808 $873 reversed $870 $-1 #
loop $-1 $-1 $917 $875 #
vertex $-1 $866 $918 #
straight-curve $-1 -67.959837641529589 0 9.6945367244106446 0 -1 0 I I #
edge $-1 $809 -9.6945367244106446 $887 5.3540808742308581 $869 $919 forward 7 unknown #
point $-1 -67.959837641529589 -31.188477874638064 9.6945367244106446 #
face $-1 $914 $870 $19 $-1 $920 reversed single #
plane-surface $-1 0 -31.188477874638064 0 0 1 0 0 0 1 forward_v I I I I #
coedge $-1 $921 $849 $851 $909 forward $812 $-1 #
coedge $-1 $851 $814 $922 $923 forward $400 $-1 #
edge $-1 $882 6.9247144832923055 $924 18.484080421994605 $814 $925 forward 7 unknown #
coedge $-1 $926 $815 $818 $885 forward $845 $-1 #
coedge $-1 $815 $926 $902 $927 forward $845 $-1 #
vertex $-1 $879 $928 #
straight-curve $-1 67.959837641529589 -19.629111935935761 -3.4270404371154291 0 0 -1 I I #
coedge $-1 $818 $817 $917 $929 reversed $720 $-1 #
edge $-1 $819 -67.959837641529589 $930 67.959837641529589 $880 $931 forward 7 unknown #
point $-1 67.959837641529589 -19.629111935935761 -5.3540808742308581 #
vertex $-1 $929 $932 #
straight-curve $-1 0 -31.188477874638064 -5.3540808742308581 1 0 0 I I #
coedge $-1 $836 $824 $894 $933 forward $755 $-1 #
coedge $-1 $835 $894 $825 $891 forward $700 $-1 #
edge $-1 $892 -18.484080421994605 $840 -6.9247144832923055 $890 $934 forward 7 unknown #
vertex $-1 $933 $935 #
straight-curve $-1 0 -31.188477874638064 -8.3540808742308581 -1 0 0 I I #
coedge $-1 $890 $827 $889 $933 reversed $700 $-1 #
vertex $-1 $829 $936 #
straight-curve $-1 -67.959837641529589 35.054813087339809 -9.6945367244106446 0 1 0 I I #
point $-1 67.959837641529589 -31.188477874638064 -9.6945367244106446 #
straight-curve $-1 0 -31.188477874638064 -9.6945367244106446 -1 0 0 I I #
straight-curve $-1 -67.959837641529589 -19.629111935935761 -3.4270404371154291 0 0 1 I I #
point $-1 -67.959837641529589 -19.629111935935761 -8.3540808742308581 #
loop $-1 $-1 $937 $844 #
coedge $-1 $938 $847 $881 $927 reversed $788 $-1 #
coedge $-1 $847 $938 $937 $939 reversed $788 $-1 #
coedge $-1 $940 $854 $848 $905 forward $870 $-1 #
edge $-1 $856 -2.3569319103876616 $907 2.3569319103876616 $848 $941 forward 7 unknown #
coedge $-1 $849 $921 $940 $942 forward $812 $-1 #
vertex $-1 $850 $943 #
straight-curve $-1 0 38.921148300041565 -9.6945367244106446 1 0 0 I I #
edge $-1 $852 -38.921148300041565 $944 31.188477874638064 $851 $945 forward 7 unknown #
point $-1 67.959837641529589 38.921148300041565 -9.6945367244106446 #
straight-curve $-1 -67.959837641529589 35.054813087339809 -4.9806729036353214 0 -1 0 I I #
point $-1 -67.959837641529589 38.921148300041565 -4.9806729036353214 #
edge $-1 $871 -9.6945367244106446 $860 4.9806729036353214 $858 $946 forward 7 unknown #
face $-1 $-1 $859 $19 $-1 $947 reversed single #
point $-1 -67.959837641529589 31.188477874638057 -4.9806729036353214 #
straight-curve $-1 0 31.188477874638064 9.6945367244106446 -1 0 0 I I #
coedge $-1 $869 $948 $884 $929 forward $870 $-1 #
point $-1 -67.959837641529589 31.188477874638064 9.6945367244106446 #
straight-curve $-1 -67.959837641529589 -31.188477874638064 0 0 0 -1 I I #
plane-surface $-1 -67.959837641529589 0 0 1 0 0 0 0 -1 forward_v I I I I #
coedge $-1 $906 $877 $949 $950 forward $812 $-1 #
coedge $-1 $937 $949 $878 $923 reversed $901 $-1 #
edge $-1 $924 8.3540808742308581 $944 9.6945367244106446 $878 $747 forward 7 unknown #
vertex $-1 $923 $951 #
straight-curve $-1 67.959837641529589 -12.704397452643455 -8.3540808742308581 0 -1 0 I I #
coedge $-1 $881 $880 $948 $952 reversed $845 $-1 #
edge $-1 $953 -67.959837641529589 $882 67.959837641529589 $881 $954 forward 7 unknown #
point $-1 67.959837641529589 -19.629111935935761 -8.3540808742308581 #
edge $-1 $930 6.9247144832923055 $887 18.484080421994605 $917 $955 forward 7 unknown #
vertex $-1 $929 $956 #
straight-curve $-1 0 -19.629111935935761 -5.3540808742308581 -1 0 0 I I #
point $-1 -67.959837641529589 -31.18847787463806 -5.3540808742308581 #
edge $-1 $892 8.3540808742308581 $895 9.6945367244106446 $894 $773 forward 7 unknown #
straight-curve $-1 -67.959837641529589 -12.704397452643455 -8.3540808742308581 0 1 0 I I #
point $-1 -67.959837641529589 -31.18847787463806 -8.3540808742308581 #
point $-1 -67.959837641529589 -31.188477874638064 -9.6945367244106446 #
coedge $-1 $957 $922 $903 $939 forward $901 $-1 #
coedge $-1 $903 $902 $958 $959 reversed $788 $-1 #
edge $-1 $924 -67.959837641529589 $960 67.959837641529589 $937 $961 forward 7 unknown #
coedge $-1 $962 $904 $906 $942 reversed $870 $-1 #
straight-curve $-1 -67.959837641529589 38.921148300041565 -7.337604814022983 0 0 -1 I I #
edge $-1 $963 -66.243290961977877 $907 3.8663352127017561 $940 $964 forward 7 unknown #
point $-1 -67.959837641529589 38.921148300041565 -9.6945367244106446 #
vertex $-1 $923 $965 #
straight-curve $-1 67.959837641529589 0 -9.6945367244106446 0 -1 0 I I #
straight-curve $-1 -67.959837641529589 31.188477874638064 0 0 0 -1 I I #
plane-surface $-1 0 31.188477874638064 0 0 -1 0 0 0 -1 forward_v I I I I #
coedge $-1 $917 $958 $926 $952 forward $870 $-1 #
coedge $-1 $922 $957 $921 $950 reversed $901 $-1 #
edge $-1 $944 -67.959837641529589 $963 67.959837641529589 $949 $966 forward 7 unknown #
point $-1 67.959837641529589 -31.18847787463806 -8.3540808742308581 #
edge $-1 $953 -4.9270404371154291 $930 -1.9270404371154291 $948 $967 forward 7 unknown #
vertex $-1 $959 $968 #
straight-curve $-1 0 -19.629111935935761 -8.3540808742308581 1 0 0 I I #
straight-curve $-1 -67.959837641529589 -12.704397452643455 -5.3540808742308581 0 -1 0 I I #
point $-1 -67.959837641529589 -19.629111935935761 -5.3540808742308581 #
coedge $-1 $949 $937 $962 $969 forward $901 $-1 #
coedge $-1 $948 $962 $938 $959 forward $870 $-1 #
edge $-1 $960 -18.484080421994605 $953 -6.9247144832923055 $958 $970 forward 7 unknown #
vertex $-1 $969 $971 #
straight-curve $-1 0 -31.188477874638064 -8.3540808742308581 -1 0 0 I I #
coedge $-1 $958 $940 $957 $969 reversed $870 $-1 #
vertex $-1 $942 $972 #
straight-curve $-1 -67.959837641529589 35.054813087339809 -9.6945367244106446 0 1 0 I I #
point $-1 67.959837641529589 -31.188477874638064 -9.6945367244106446 #
straight-curve $-1 0 -31.188477874638064 -9.6945367244106446 -1 0 0 I I #
straight-curve $-1 -67.959837641529589 -19.629111935935761 -3.4270404371154291 0 0 1 I I #
point $-1 -67.959837641529589 -19.629111935935761 -8.3540808742308581 #
edge $-1 $960 8.3540808742308581 $963 9.6945367244106446 $962 $919 forward 7 unknown #
straight-curve $-1 -67.959837641529589 -12.704397452643455 -8.3540808742308581 0 1 0 I I #
point $-1 -67.959837641529589 -31.18847787463806 -8.3540808742308581 #
point $-1 -67.959837641529589 -31.188477874638064 -9.6945367244106446 #
End-of-ACIS-data 