500 0 8 0           
7 Unknown 11 ACIS 5.0 NT 24 Thu Mar 25 23:45:49 1999 
-1 9.9999999999999995e-007 1e-010 
body $-1 $8 $-1 $9 #
body $-1 $10 $-1 $11 #
body $-1 $12 $-1 $13 #
body $-1 $14 $-1 $15 #
body $-1 $16 $-1 $17 #
body $-1 $18 $-1 $19 #
body $-1 $20 $-1 $21 #
body $-1 $22 $-1 $23 #
lump $-1 $-1 $24 $0 #
transform $-1 1 0 0 0 1 0 0 0 1 78.956266975920897 45.240034961785391 10.968640942225534 1 rotate no_reflect no_shear #
lump $-1 $-1 $25 $1 #
transform $-1 1 0 0 0 1 0 0 0 1 78.956266975920897 45.240034961785391 10.968640942225534 1 rotate no_reflect no_shear #
lump $-1 $-1 $26 $2 #
transform $-1 1 0 0 0 1 0 0 0 1 78.956266975920897 45.240034961785391 10.968640942225534 1 rotate no_reflect no_shear #
lump $-1 $-1 $27 $3 #
transform $-1 1 0 0 0 1 0 0 0 1 78.956266975920897 45.240034961785391 10.968640942225534 1 rotate no_reflect no_shear #
lump $-1 $-1 $28 $4 #
transform $-1 1 0 0 0 1 0 0 0 1 78.956266975920897 45.240034961785391 10.968640942225534 1 rotate no_reflect no_shear #
lump $-1 $-1 $29 $5 #
transform $-1 1 0 0 0 1 0 0 0 1 78.956266975920897 45.240034961785391 10.968640942225534 1 rotate no_reflect no_shear #
lump $-1 $-1 $30 $6 #
transform $-1 1 0 0 0 1 0 0 0 1 78.956266975920897 45.240034961785391 10.968640942225534 1 rotate no_reflect no_shear #
lump $-1 $-1 $31 $7 #
transform $-1 1 0 0 0 1 0 0 0 1 78.956266975920897 45.240034961785391 10.968640942225534 1 rotate no_reflect no_shear #
shell $-1 $-1 $-1 $32 $-1 $8 #
shell $-1 $-1 $-1 $33 $-1 $10 #
shell $-1 $-1 $-1 $34 $-1 $12 #
shell $-1 $-1 $-1 $35 $-1 $14 #
shell $-1 $-1 $-1 $36 $-1 $16 #
shell $-1 $-1 $-1 $37 $-1 $18 #
shell $-1 $-1 $-1 $38 $-1 $20 #
shell $-1 $-1 $-1 $39 $-1 $22 #
face $-1 $40 $41 $24 $-1 $42 forward single #
face $-1 $43 $44 $25 $-1 $45 reversed single #
face $-1 $46 $47 $26 $-1 $48 reversed single #
face $-1 $49 $50 $27 $-1 $51 forward single #
face $-1 $52 $53 $28 $-1 $54 forward single #
face $-1 $55 $56 $29 $-1 $57 reversed single #
face $-1 $58 $59 $30 $-1 $60 forward single #
face $-1 $61 $62 $31 $-1 $63 forward single #
face $-1 $64 $65 $24 $-1 $66 reversed single #
loop $-1 $-1 $67 $32 #
plane-surface $-1 0 0 10.968640942225534 0 0 1 1 0 0 forward_v I I I I #
face $-1 $68 $69 $25 $-1 $70 reversed single #
loop $-1 $-1 $71 $33 #
plane-surface $-1 -74.476303383710885 0 5.5652287176942661 0 0 1 1 0 0 forward_v I I I I #
face $-1 $72 $73 $26 $-1 $74 reversed single #
loop $-1 $-1 $75 $34 #
plane-surface $-1 61.889244835415326 -45.240034961785383 1.4817630317386374 0 -0.68199836817093118 0.7313536940579346 1 0 0 forward_v I I I I #
face $-1 $76 $77 $27 $-1 $78 forward single #
loop $-1 $79 $80 $35 #
cone-surface $-1 54.574806775198653 -38.443848722572632 4.3920189895391353 0 0.68199836817093118 -0.7313536940579346 1.5 0 0 1 I I 0 1 1.5 forward I I I I #
face $-1 $81 $82 $28 $-1 $83 forward single #
loop $-1 $84 $85 $36 #
cone-surface $-1 69.203682895632028 -38.443848722572632 4.3920189895391353 0 0.68199836817093118 -0.7313536940579346 1.5 0 0 1 I I 0 1 1.5 forward I I I I #
face $-1 $86 $87 $29 $-1 $88 reversed single #
loop $-1 $-1 $89 $37 #
plane-surface $-1 61.889244835415326 -20.932898415438345 63.189023071605661 0 0.68199836817093118 0.7313536940579346 1 0 0 forward_v I I I I #
face $-1 $90 $91 $30 $-1 $92 forward single #
loop $-1 $93 $94 $38 #
cone-surface $-1 54.574806775198653 38.443848722572632 4.3920189895391442 0 -0.68199836817093118 -0.7313536940579346 1.5 0 0 1 I I 0 1 1.5 forward I I I I #
face $-1 $95 $96 $31 $-1 $97 forward single #
loop $-1 $98 $99 $39 #
cone-surface $-1 69.203682895632028 38.443848722572632 4.3920189895391442 0 -0.68199836817093118 -0.7313536940579346 1.5 0 0 1 I I 0 1 1.5 forward I I I I #
face $-1 $100 $101 $24 $-1 $102 reversed single #
loop $-1 $-1 $103 $40 #
plane-surface $-1 0 0 -10.968640942225534 0 0 1 1 0 0 forward_v I I I I #
coedge $-1 $104 $105 $106 $107 forward $41 $-1 #
face $-1 $108 $109 $25 $-1 $110 reversed single #
loop $-1 $-1 $111 $43 #
plane-surface $-1 -69.996339791500873 0 8.2669348299599008 -1 0 0 0 0 1 forward_v I I I I #
coedge $-1 $112 $113 $114 $115 forward $44 $-1 #
face $-1 $116 $117 $26 $-1 $118 reversed single #
loop $-1 $-1 $119 $46 #
plane-surface $-1 44.822222694909733 -152.93612543067826 116.97167807546715 1 0 0 0 0.68199836817093118 -0.7313536940579346 forward_v I I I I #
coedge $-1 $120 $121 $122 $123 reversed $47 $-1 #
face $-1 $-1 $124 $27 $-1 $125 forward single #
loop $-1 $126 $127 $49 #
cone-surface $-1 54.574806775198653 -36.222879107679852 2.0103207215527288 0 0.68199836817093118 -0.7313536940579346 0.75 0 0 1 I I -0.70710678118654757 0.70710678118654757 0.75 forward I I I I #
loop $-1 $-1 $128 $35 #
coedge $-1 $80 $80 $129 $130 reversed $50 $-1 #
face $-1 $-1 $131 $28 $-1 $132 forward single #
loop $-1 $133 $134 $52 #
cone-surface $-1 69.203682895632028 -36.222879107679852 2.0103207215527288 0 0.68199836817093118 -0.7313536940579346 0.75 0 0 1 I I -0.70710678118654757 0.70710678118654757 0.75 forward I I I I #
loop $-1 $-1 $135 $36 #
coedge $-1 $85 $85 $136 $137 reversed $53 $-1 #
face $-1 $138 $139 $29 $-1 $140 forward single #
loop $-1 $-1 $141 $55 #
plane-surface $-1 44.822222694909733 86.763192053454532 178.67893811533418 1 0 0 0 -0.68199836817093118 -0.7313536940579346 forward_v I I I I #
coedge $-1 $142 $143 $144 $145 reversed $56 $-1 #
face $-1 $-1 $146 $30 $-1 $147 forward single #
loop $-1 $148 $149 $58 #
cone-surface $-1 54.574806775198653 36.222879107679852 2.0103207215527377 0 -0.68199836817093118 -0.7313536940579346 0.75 0 0 1 I I -0.70710678118654757 0.70710678118654757 0.75 forward I I I I #
loop $-1 $-1 $150 $38 #
coedge $-1 $94 $94 $151 $152 reversed $59 $-1 #
face $-1 $-1 $153 $31 $-1 $154 forward single #
loop $-1 $155 $156 $61 #
cone-surface $-1 69.203682895632028 36.222879107679852 2.0103207215527377 0 -0.68199836817093118 -0.7313536940579346 0.75 0 0 1 I I -0.70710678118654757 0.70710678118654757 0.75 forward I I I I #
loop $-1 $-1 $157 $39 #
coedge $-1 $99 $99 $158 $159 reversed $62 $-1 #
face $-1 $160 $161 $24 $-1 $162 reversed single #
loop $-1 $-1 $163 $64 #
plane-surface $-1 0 -45.240034961785391 0 0 1 0 0 0 1 forward_v I I I I #
coedge $-1 $164 $165 $166 $167 forward $65 $-1 #
coedge $-1 $168 $67 $169 $170 forward $41 $-1 #
coedge $-1 $67 $168 $171 $172 forward $41 $-1 #
coedge $-1 $173 $174 $67 $107 reversed $175 $-1 #
edge $-1 $176 -45.240034961785391 $177 45.240034961785391 $106 $178 forward 7 unknown #
face $-1 $179 $180 $25 $-1 $181 reversed single #
loop $-1 $-1 $182 $68 #
plane-surface $-1 0 45.240034961785391 0 0 -1 0 0 0 -1 forward_v I I I I #
coedge $-1 $114 $183 $184 $185 reversed $69 $-1 #
coedge $-1 $186 $71 $187 $188 reversed $44 $-1 #
coedge $-1 $71 $186 $189 $190 reversed $44 $-1 #
coedge $-1 $191 $111 $71 $115 reversed $69 $-1 #
edge $-1 $192 -45.240034961785391 $193 45.240034961785391 $114 $194 forward 7 unknown #
face $-1 $195 $196 $26 $-1 $197 forward single #
loop $-1 $-1 $198 $72 #
plane-surface $-1 78.956266975920897 0 0 -1 0 0 0 0 1 forward_v I I I I #
coedge $-1 $199 $200 $201 $202 reversed $73 $-1 #
coedge $-1 $203 $75 $198 $204 reversed $47 $-1 #
coedge $-1 $75 $203 $199 $205 forward $47 $-1 #
coedge $-1 $201 $206 $75 $123 forward $196 $-1 #
edge $-1 $207 -48.011644558213263 $208 -13.87760027720207 $122 $209 forward 7 unknown #
loop $-1 $-1 $129 $76 #
plane-surface $-1 61.889244835415326 -45.240034961785383 1.4817630317386374 0 -0.68199836817093118 0.7313536940579346 1 0 0 forward_v I I I I #
loop $-1 $-1 $210 $49 #
coedge $-1 $127 $127 $128 $211 reversed $77 $-1 #
coedge $-1 $128 $128 $127 $211 forward $79 $-1 #
coedge $-1 $129 $129 $80 $130 forward $124 $-1 #
edge $-1 $212 1.7003036671952957e-016 $212 6.2831853071796004 $129 $213 forward 7 unknown #
loop $-1 $-1 $136 $81 #
plane-surface $-1 61.889244835415326 -45.240034961785383 1.4817630317386374 0 -0.68199836817093118 0.7313536940579346 1 0 0 forward_v I I I I #
loop $-1 $-1 $214 $52 #
coedge $-1 $134 $134 $135 $215 reversed $82 $-1 #
coedge $-1 $135 $135 $134 $215 forward $84 $-1 #
coedge $-1 $136 $136 $85 $137 forward $131 $-1 #
edge $-1 $216 1.7003036671952957e-016 $216 6.2831853071796004 $136 $217 forward 7 unknown #
face $-1 $218 $219 $29 $-1 $220 reversed single #
loop $-1 $-1 $221 $86 #
plane-surface $-1 0 0 10.968640942225534 0 0 1 1 0 0 forward_v I I I I #
coedge $-1 $222 $223 $224 $225 reversed $87 $-1 #
coedge $-1 $226 $89 $227 $228 reversed $56 $-1 #
coedge $-1 $89 $226 $222 $229 forward $56 $-1 #
coedge $-1 $224 $230 $89 $145 forward $231 $-1 #
edge $-1 $232 -48.011644558213234 $233 -13.87760027720207 $144 $234 forward 7 unknown #
loop $-1 $-1 $151 $90 #
plane-surface $-1 61.889244835415326 -20.932898415438345 63.189023071605661 0 0.68199836817093118 0.7313536940579346 1 0 0 forward_v I I I I #
loop $-1 $-1 $235 $58 #
coedge $-1 $149 $149 $150 $236 reversed $91 $-1 #
coedge $-1 $150 $150 $149 $236 forward $93 $-1 #
coedge $-1 $151 $151 $94 $152 forward $146 $-1 #
edge $-1 $237 1.1052055208550681e-015 $237 6.2831853071796013 $151 $238 forward 7 unknown #
loop $-1 $-1 $158 $95 #
plane-surface $-1 61.889244835415326 -20.932898415438345 63.189023071605661 0 0.68199836817093118 0.7313536940579346 1 0 0 forward_v I I I I #
loop $-1 $-1 $239 $61 #
coedge $-1 $156 $156 $157 $240 reversed $96 $-1 #
coedge $-1 $157 $157 $156 $240 forward $98 $-1 #
coedge $-1 $158 $158 $99 $159 forward $153 $-1 #
edge $-1 $241 1.1052055208550681e-015 $241 6.2831853071796013 $158 $242 forward 7 unknown #
face $-1 $243 $244 $24 $-1 $245 reversed single #
loop $-1 $-1 $246 $100 #
plane-surface $-1 -78.956266975920897 0 0 1 0 0 0 0 -1 forward_v I I I I #
coedge $-1 $247 $171 $248 $249 forward $101 $-1 #
coedge $-1 $250 $103 $247 $251 forward $65 $-1 #
coedge $-1 $103 $250 $252 $253 forward $65 $-1 #
coedge $-1 $174 $173 $103 $167 reversed $175 $-1 #
edge $-1 $254 -45.240034961785391 $255 45.240034961785391 $166 $256 forward 7 unknown #
coedge $-1 $105 $104 $257 $258 forward $41 $-1 #
coedge $-1 $259 $260 $104 $170 reversed $244 $-1 #
edge $-1 $177 -78.956266975920897 $261 78.956266975920897 $169 $262 forward 7 unknown #
coedge $-1 $163 $263 $105 $172 reversed $101 $-1 #
edge $-1 $264 -78.956266975920897 $176 78.956266975920897 $171 $265 forward 7 unknown #
coedge $-1 $166 $106 $263 $266 forward $175 $-1 #
coedge $-1 $106 $166 $259 $267 reversed $175 $-1 #
loop $-1 $-1 $173 $243 #
vertex $-1 $107 $268 #
vertex $-1 $107 $269 #
straight-curve $-1 78.956266975920897 0 10.968640942225534 0 1 0 I I #
face $-1 $270 $271 $25 $-1 $272 forward single #
loop $-1 $-1 $273 $108 #
plane-surface $-1 -78.956266975920897 0 0 1 0 0 0 0 -1 forward_v I I I I #
coedge $-1 $189 $274 $191 $275 forward $109 $-1 #
coedge $-1 $111 $191 $276 $277 reversed $69 $-1 #
coedge $-1 $278 $187 $111 $185 forward $279 $-1 #
edge $-1 $193 1.4317613027143157 $280 6.8351735272455851 $184 $281 forward 7 unknown #
coedge $-1 $113 $112 $273 $282 reversed $44 $-1 #
coedge $-1 $184 $283 $112 $188 forward $279 $-1 #
edge $-1 $284 -41.718115284065455 $193 -32.75818809964543 $187 $285 forward 7 unknown #
coedge $-1 $286 $182 $113 $190 forward $109 $-1 #
edge $-1 $192 32.75818809964543 $287 41.718115284065455 $189 $288 forward 7 unknown #
coedge $-1 $183 $114 $182 $275 reversed $69 $-1 #
vertex $-1 $190 $289 #
vertex $-1 $188 $290 #
straight-curve $-1 -69.996339791500873 0 5.5652287176942661 0 -1 0 I I #
face $-1 $-1 $291 $26 $-1 $292 reversed single #
loop $-1 $-1 $122 $116 #
plane-surface $-1 0 0 10.968640942225534 0 0 1 1 0 0 forward_v I I I I #
coedge $-1 $293 $294 $120 $204 forward $117 $-1 #
coedge $-1 $200 $119 $121 $205 reversed $73 $-1 #
coedge $-1 $119 $199 $295 $296 reversed $73 $-1 #
coedge $-1 $297 $122 $119 $202 forward $196 $-1 #
edge $-1 $208 -41.401458554450116 $298 -31.228027753553739 $201 $299 forward 7 unknown #
coedge $-1 $121 $120 $300 $301 reversed $47 $-1 #
edge $-1 $302 -16.037953359475054 $207 -2.1275419080077951 $198 $303 forward 7 unknown #
edge $-1 $304 -9.739602292442716e-015 $208 13.910411451467247 $199 $305 forward 7 unknown #
coedge $-1 $122 $297 $293 $306 forward $196 $-1 #
vertex $-1 $123 $307 #
vertex $-1 $123 $308 #
straight-curve $-1 30.944622417707663 -35.066604160889014 10.968640942225534 -1 0 0 I I #
coedge $-1 $210 $210 $-1 $309 reversed $126 $-1 #
edge $-1 $310 0 $310 6.2831853071796004 $127 $311 forward 7 unknown #
vertex $-1 $130 $312 #
ellipse-curve $-1 54.574806775198653 -40.153319561337206 6.225201986982082 0 -0.68199836817093118 0.7313536940579346 1.5 0 0 1 I I #
coedge $-1 $214 $214 $-1 $313 reversed $133 $-1 #
edge $-1 $314 0 $314 6.2831853071796004 $134 $315 forward 7 unknown #
vertex $-1 $137 $316 #
ellipse-curve $-1 69.203682895632028 -40.153319561337206 6.225201986982082 0 -0.68199836817093118 0.7313536940579346 1.5 0 0 1 I I #
face $-1 $-1 $231 $29 $-1 $317 reversed single #
loop $-1 $-1 $227 $138 #
plane-surface $-1 78.956266975920897 0 0 -1 0 0 0 0 1 forward_v I I I I #
coedge $-1 $318 $319 $223 $320 forward $139 $-1 #
coedge $-1 $223 $141 $143 $229 reversed $87 $-1 #
coedge $-1 $141 $222 $221 $320 reversed $87 $-1 #
coedge $-1 $321 $144 $141 $225 forward $231 $-1 #
edge $-1 $233 -87.857706025928451 $322 -78.370828115441554 $224 $323 forward 7 unknown #
coedge $-1 $143 $142 $318 $324 reversed $56 $-1 #
coedge $-1 $325 $326 $142 $228 forward $219 $-1 #
edge $-1 $327 47.367576869793183 $232 61.277988321260452 $227 $328 forward 7 unknown #
edge $-1 $329 76.569658472103541 $233 90.480069923570795 $222 $330 forward 7 unknown #
coedge $-1 $144 $321 $325 $331 forward $231 $-1 #
loop $-1 $-1 $224 $218 #
vertex $-1 $228 $332 #
vertex $-1 $145 $333 #
straight-curve $-1 30.944622417707663 45.240034961785391 1.4817630317386232 -1 0 0 I I #
coedge $-1 $235 $235 $-1 $334 reversed $148 $-1 #
edge $-1 $335 0 $335 6.2831853071796004 $149 $336 forward 7 unknown #
vertex $-1 $152 $337 #
ellipse-curve $-1 54.574806775198653 40.153319561337192 6.2252019869820785 0 0.68199836817093118 0.7313536940579346 1.5 0 0 1 I I #
coedge $-1 $239 $239 $-1 $338 reversed $155 $-1 #
edge $-1 $339 0 $339 6.2831853071796004 $156 $340 forward 7 unknown #
vertex $-1 $159 $341 #
ellipse-curve $-1 69.203682895632028 40.153319561337192 6.2252019869820785 0 0.68199836817093118 0.7313536940579346 1.5 0 0 1 I I #
face $-1 $-1 $175 $24 $-1 $342 reversed single #
loop $-1 $-1 $259 $160 #
plane-surface $-1 0 45.240034961785391 0 0 -1 0 0 0 -1 forward_v I I I I #
coedge $-1 $343 $257 $260 $344 forward $161 $-1 #
coedge $-1 $263 $163 $164 $251 reversed $101 $-1 #
coedge $-1 $257 $343 $163 $249 reversed $161 $-1 #
edge $-1 $264 -10.968640942225534 $345 10.968640942225534 $248 $346 forward 7 unknown #
coedge $-1 $165 $164 $343 $347 forward $65 $-1 #
edge $-1 $255 -78.956266975920897 $345 78.956266975920897 $247 $348 forward 7 unknown #
coedge $-1 $260 $259 $165 $253 reversed $244 $-1 #
edge $-1 $349 -78.956266975920897 $254 78.956266975920897 $252 $350 forward 7 unknown #
vertex $-1 $167 $351 #
vertex $-1 $266 $352 #
straight-curve $-1 78.956266975920897 0 -10.968640942225534 0 -1 0 I I #
coedge $-1 $246 $248 $168 $258 reversed $161 $-1 #
edge $-1 $261 -45.240034961785391 $264 45.240034961785391 $257 $353 forward 7 unknown #
coedge $-1 $252 $169 $174 $267 forward $244 $-1 #
coedge $-1 $169 $252 $246 $344 reversed $244 $-1 #
vertex $-1 $170 $354 #
straight-curve $-1 0 45.240034961785391 10.968640942225534 -1 0 0 I I #
coedge $-1 $171 $247 $173 $266 reversed $101 $-1 #
vertex $-1 $258 $355 #
straight-curve $-1 0 -45.240034961785391 10.968640942225534 1 0 0 I I #
edge $-1 $176 -10.968640942225534 $255 10.968640942225534 $173 $356 forward 7 unknown #
edge $-1 $177 -10.968640942225534 $254 10.968640942225534 $174 $357 forward 7 unknown #
point $-1 78.956266975920897 -45.240034961785391 10.968640942225534 #
point $-1 78.956266975920897 45.240034961785391 10.968640942225534 #
face $-1 $-1 $279 $25 $-1 $358 reversed single #
loop $-1 $-1 $276 $179 #
plane-surface $-1 0 0 10.968640942225534 0 0 1 1 0 0 forward_v I I I I #
coedge $-1 $359 $360 $186 $282 forward $180 $-1 #
coedge $-1 $182 $286 $361 $362 reversed $109 $-1 #
edge $-1 $363 -6.8351735272455851 $192 -1.4317613027143157 $182 $364 forward 7 unknown #
coedge $-1 $361 $365 $183 $277 forward $271 $-1 #
edge $-1 $280 -45.240034961785391 $363 45.240034961785391 $276 $366 forward 7 unknown #
coedge $-1 $283 $184 $365 $367 reversed $279 $-1 #
loop $-1 $-1 $184 $270 #
vertex $-1 $185 $368 #
straight-curve $-1 -69.996339791500873 -45.240034961785391 4.1334674149799504 0 0 1 I I #
edge $-1 $287 -45.240034961785391 $284 45.240034961785391 $273 $369 forward 7 unknown #
coedge $-1 $187 $278 $359 $370 forward $279 $-1 #
vertex $-1 $282 $371 #
straight-curve $-1 -37.238151691855442 -45.240034961785391 5.5652287176942661 1 0 0 I I #
coedge $-1 $274 $189 $360 $372 reversed $109 $-1 #
vertex $-1 $282 $373 #
straight-curve $-1 -37.238151691855442 45.240034961785391 5.5652287176942661 -1 0 0 I I #
point $-1 -69.996339791500873 45.240034961785391 5.5652287176942661 #
point $-1 -69.996339791500873 -45.240034961785391 5.5652287176942661 #
loop $-1 $-1 $300 $195 #
plane-surface $-1 0 -45.240034961785391 0 0 1 0 0 0 1 forward_v I I I I #
coedge $-1 $294 $198 $206 $306 reversed $117 $-1 #
coedge $-1 $198 $293 $374 $375 forward $117 $-1 #
coedge $-1 $300 $376 $200 $296 forward $291 $-1 #
edge $-1 $298 47.517198095508043 $304 57.004076005994946 $295 $377 forward 7 unknown #
coedge $-1 $206 $201 $376 $378 forward $196 $-1 #
vertex $-1 $378 $379 #
straight-curve $-1 44.822222694909733 -76.46806271533913 10.968640942225534 0 -1 0 I I #
coedge $-1 $374 $295 $203 $301 forward $291 $-1 #
edge $-1 $304 13.87760027720207 $302 48.011644558213263 $300 $380 forward 7 unknown #
vertex $-1 $301 $381 #
straight-curve $-1 78.956266975920897 -33.51061852720445 12.419621051702123 0 0.7313536940579346 0.68199836817093118 I I #
vertex $-1 $301 $382 #
straight-curve $-1 44.822222694909733 -45.240034961785383 1.4817630317386374 0 0.7313536940579346 0.68199836817093118 I I #
edge $-1 $383 -45.240034961785391 $207 -35.066604160889014 $293 $384 forward 7 unknown #
point $-1 78.956266975920926 -35.066604160889014 10.968640942225534 #
point $-1 44.822222694909733 -35.066604160889014 10.968640942225534 #
edge $-1 $385 1 $385 0 $210 $-1 forward 7 unknown #
vertex $-1 $211 $386 #
ellipse-curve $-1 54.574806775198653 -36.734377883808051 2.5588359920961796 0 -0.68199836817093118 0.7313536940579346 1.5 0 0 1 I I #
point $-1 56.074806775198653 -40.153319561337213 6.22520198698209 #
edge $-1 $387 1 $387 0 $214 $-1 forward 7 unknown #
vertex $-1 $215 $388 #
ellipse-curve $-1 69.203682895632028 -36.734377883808051 2.5588359920961796 0 -0.68199836817093118 0.7313536940579346 1.5 0 0 1 I I #
point $-1 70.703682895632028 -40.153319561337213 6.22520198698209 #
plane-surface $-1 0 45.240034961785391 0 0 -1 0 0 0 -1 forward_v I I I I #
coedge $-1 $389 $221 $226 $324 forward $139 $-1 #
coedge $-1 $221 $389 $321 $390 forward $139 $-1 #
edge $-1 $322 -1.8584389350581247 $329 8.3149918658382589 $221 $391 forward 7 unknown #
coedge $-1 $230 $224 $319 $390 reversed $231 $-1 #
vertex $-1 $320 $392 #
straight-curve $-1 44.822222694909733 45.240034961785391 89.339469057667088 0 0 1 I I #
edge $-1 $329 13.87760027720207 $327 48.011644558213263 $318 $393 forward 7 unknown #
coedge $-1 $326 $227 $230 $331 reversed $219 $-1 #
coedge $-1 $227 $325 $389 $394 reversed $219 $-1 #
vertex $-1 $394 $395 #
straight-curve $-1 78.956266975920897 0.42415183859258221 43.273251071635627 0 0.7313536940579346 -0.68199836817093118 I I #
vertex $-1 $324 $396 #
straight-curve $-1 44.822222694909733 -20.932898415438345 63.189023071605661 0 0.7313536940579346 -0.68199836817093118 I I #
edge $-1 $397 -10.968640942225534 $232 -1.4817630317386243 $325 $398 forward 7 unknown #
point $-1 78.956266975920897 45.240034961785391 1.4817630317386243 #
point $-1 44.822222694909733 45.240034961785383 1.4817630317386303 #
edge $-1 $399 1 $399 0 $235 $-1 forward 7 unknown #
vertex $-1 $236 $400 #
ellipse-curve $-1 54.574806775198653 36.734377883808051 2.5588359920961885 0 0.68199836817093118 0.7313536940579346 1.5 0 0 1 I I #
point $-1 56.074806775198653 40.153319561337213 6.2252019869820989 #
edge $-1 $401 1 $401 0 $239 $-1 forward 7 unknown #
vertex $-1 $240 $402 #
ellipse-curve $-1 69.203682895632028 36.734377883808051 2.5588359920961885 0 0.68199836817093118 0.7313536940579346 1.5 0 0 1 I I #
point $-1 70.703682895632028 40.153319561337213 6.2252019869820989 #
plane-surface $-1 78.956266975920897 0 0 -1 0 0 0 0 1 forward_v I I I I #
coedge $-1 $248 $246 $250 $347 reversed $161 $-1 #
edge $-1 $261 -10.968640942225534 $349 10.968640942225534 $260 $403 forward 7 unknown #
vertex $-1 $347 $404 #
straight-curve $-1 -78.956266975920897 -45.240034961785391 0 0 0 -1 I I #
edge $-1 $345 -45.240034961785391 $349 45.240034961785391 $343 $405 forward 7 unknown #
straight-curve $-1 0 -45.240034961785391 -10.968640942225534 -1 0 0 I I #
vertex $-1 $253 $406 #
straight-curve $-1 0 45.240034961785391 -10.968640942225534 1 0 0 I I #
point $-1 78.956266975920897 45.240034961785391 -10.968640942225534 #
point $-1 78.956266975920897 -45.240034961785391 -10.968640942225534 #
straight-curve $-1 -78.956266975920897 0 10.968640942225534 0 -1 0 I I #
point $-1 -78.956266975920897 45.240034961785391 10.968640942225534 #
point $-1 -78.956266975920897 -45.240034961785391 10.968640942225534 #
straight-curve $-1 78.956266975920897 -45.240034961785391 0 0 0 -1 I I #
straight-curve $-1 78.956266975920897 45.240034961785391 0 0 0 -1 I I #
plane-surface $-1 0 -45.240034961785391 0 0 1 0 0 0 1 forward_v I I I I #
coedge $-1 $407 $273 $283 $370 reversed $180 $-1 #
coedge $-1 $273 $407 $286 $372 forward $180 $-1 #
coedge $-1 $408 $276 $274 $362 forward $271 $-1 #
edge $-1 $363 69.996339791500873 $409 78.956266975920897 $274 $410 forward 7 unknown #
vertex $-1 $362 $411 #
straight-curve $-1 -69.996339791500873 45.240034961785391 4.1334674149799504 0 0 -1 I I #
coedge $-1 $276 $408 $278 $367 forward $271 $-1 #
straight-curve $-1 -69.996339791500873 0 10.968640942225534 0 1 0 I I #
edge $-1 $412 -78.956266975920897 $280 -69.996339791500873 $278 $413 forward 7 unknown #
point $-1 -69.996339791500873 -45.240034961785391 10.968640942225536 #
straight-curve $-1 -78.956266975920897 0 5.5652287176942661 0 -1 0 I I #
edge $-1 $412 -10.968640942225534 $284 -5.5652287176942661 $359 $414 forward 7 unknown #
point $-1 -78.956266975920897 -45.240034961785391 5.5652287176942661 #
edge $-1 $409 -10.968640942225534 $287 -5.5652287176942661 $286 $415 forward 7 unknown #
point $-1 -78.956266975920897 45.240034961785391 5.5652287176942661 #
coedge $-1 $376 $300 $294 $375 reversed $291 $-1 #
edge $-1 $383 -10.968640942225534 $302 -1.4817630317386308 $294 $416 forward 7 unknown #
coedge $-1 $295 $374 $297 $378 reversed $291 $-1 #
straight-curve $-1 44.822222694909733 -45.240034961785391 58.485839037733577 0 0 -1 I I #
edge $-1 $298 44.822222694909733 $383 78.956266975920897 $376 $417 forward 7 unknown #
point $-1 44.822222694909733 -45.240034961785391 10.968640942225534 #
straight-curve $-1 30.944622417707663 -45.240034961785391 1.4817630317386308 1 0 0 I I #
point $-1 78.956266975920926 -45.240034961785391 1.4817630317386308 #
point $-1 44.822222694909733 -45.240034961785391 1.4817630317386308 #
vertex $-1 $306 $418 #
straight-curve $-1 78.956266975920897 0 10.968640942225534 0 1 0 I I #
vertex $-1 $309 $419 #
point $-1 56.074806775198653 -36.734377883808051 2.5588359920961796 #
vertex $-1 $313 $420 #
point $-1 70.703682895632028 -36.734377883808051 2.5588359920961796 #
coedge $-1 $319 $318 $326 $394 forward $139 $-1 #
edge $-1 $397 -78.956266975920897 $322 -44.822222694909733 $321 $421 forward 7 unknown #
straight-curve $-1 44.822222694909733 43.381596026727266 10.968640942225534 0 -1 0 I I #
point $-1 44.822222694909733 45.240034961785391 10.968640942225534 #
straight-curve $-1 30.944622417707663 35.066604160889 10.968640942225534 1 0 0 I I #
edge $-1 $327 35.066604160889007 $397 45.240034961785391 $326 $422 forward 7 unknown #
point $-1 78.956266975920926 35.066604160889007 10.968640942225534 #
point $-1 44.822222694909733 35.066604160889007 10.968640942225534 #
vertex $-1 $394 $423 #
straight-curve $-1 78.956266975920897 45.240034961785391 0 0 0 -1 I I #
vertex $-1 $334 $424 #
point $-1 56.074806775198653 36.734377883808051 2.5588359920961885 #
vertex $-1 $338 $425 #
point $-1 70.703682895632028 36.734377883808051 2.5588359920961885 #
straight-curve $-1 -78.956266975920897 45.240034961785391 0 0 0 -1 I I #
point $-1 -78.956266975920897 -45.240034961785391 -10.968640942225534 #
straight-curve $-1 -78.956266975920897 0 -10.968640942225534 0 1 0 I I #
point $-1 -78.956266975920897 45.240034961785391 -10.968640942225534 #
coedge $-1 $360 $359 $408 $426 reversed $180 $-1 #
coedge $-1 $365 $361 $407 $426 forward $271 $-1 #
vertex $-1 $362 $427 #
straight-curve $-1 0 45.240034961785391 10.968640942225534 -1 0 0 I I #
point $-1 -69.996339791500873 45.240034961785391 10.968640942225536 #
vertex $-1 $426 $428 #
straight-curve $-1 0 -45.240034961785391 10.968640942225534 1 0 0 I I #
straight-curve $-1 -78.956266975920897 -45.240034961785391 0 0 0 -1 I I #
straight-curve $-1 -78.956266975920897 45.240034961785391 0 0 0 -1 I I #
straight-curve $-1 78.956266975920897 -45.240034961785391 0 0 0 -1 I I #
straight-curve $-1 0 -45.240034961785391 10.968640942225534 1 0 0 I I #
point $-1 78.956266975920897 -45.240034961785391 10.968640942225534 #
point $-1 54.574806775198653 -35.711380331551652 1.4618054510092779 #
point $-1 69.203682895632028 -35.711380331551652 1.4618054510092779 #
straight-curve $-1 0 45.240034961785391 10.968640942225534 -1 0 0 I I #
straight-curve $-1 78.956266975920897 0 10.968640942225534 0 1 0 I I #
point $-1 78.956266975920897 45.240034961785391 10.968640942225534 #
point $-1 54.574806775198653 35.711380331551652 1.4618054510092868 #
point $-1 69.203682895632028 35.711380331551652 1.4618054510092868 #
edge $-1 $409 -45.240034961785391 $412 45.240034961785391 $407 $429 forward 7 unknown #
point $-1 -78.956266975920897 45.240034961785391 10.968640942225534 #
point $-1 -78.956266975920897 -45.240034961785391 10.968640942225534 #
straight-curve $-1 -78.956266975920897 0 10.968640942225534 0 -1 0 I I #
End-of-ACIS-data 