500 0 20 0           
7 Unknown 11 ACIS 5.0 NT 24 Thu Mar 25 18:27:52 1999 
-1 9.9999999999999995e-007 1e-010 
body $-1 $20 $-1 $21 #
body $-1 $22 $-1 $23 #
body $-1 $24 $-1 $25 #
body $-1 $26 $-1 $27 #
body $-1 $28 $-1 $29 #
body $-1 $30 $-1 $31 #
body $-1 $32 $-1 $33 #
body $-1 $34 $-1 $35 #
body $-1 $36 $-1 $37 #
body $-1 $38 $-1 $39 #
body $-1 $40 $-1 $41 #
body $-1 $42 $-1 $43 #
body $-1 $44 $-1 $45 #
body $-1 $46 $-1 $47 #
body $-1 $48 $-1 $49 #
body $-1 $50 $-1 $51 #
body $-1 $52 $-1 $53 #
body $-1 $54 $-1 $55 #
body $-1 $56 $-1 $57 #
body $-1 $58 $-1 $59 #
lump $-1 $-1 $60 $0 #
transform $-1 1 0 0 0 1 0 0 0 1 63.389385662404251 28.989999081557443 8.2133169796969625 1 rotate no_reflect no_shear #
lump $-1 $-1 $61 $1 #
transform $-1 1 0 0 0 1 0 0 0 1 63.389385662404251 28.989999081557443 8.2133169796969625 1 rotate no_reflect no_shear #
lump $-1 $-1 $62 $2 #
transform $-1 1 0 0 0 1 0 0 0 1 63.389385662404251 28.989999081557443 8.2133169796969625 1 rotate no_reflect no_shear #
lump $-1 $-1 $63 $3 #
transform $-1 1 0 0 0 1 0 0 0 1 63.389385662404251 28.989999081557443 8.2133169796969625 1 rotate no_reflect no_shear #
lump $-1 $-1 $64 $4 #
transform $-1 1 0 0 0 1 0 0 0 1 63.389385662404251 28.989999081557443 8.2133169796969625 1 rotate no_reflect no_shear #
lump $-1 $-1 $65 $5 #
transform $-1 1 0 0 0 1 0 0 0 1 63.389385662404251 28.989999081557443 8.2133169796969625 1 rotate no_reflect no_shear #
lump $-1 $-1 $66 $6 #
transform $-1 1 0 0 0 1 0 0 0 1 63.389385662404251 28.989999081557443 8.2133169796969625 1 rotate no_reflect no_shear #
lump $-1 $-1 $67 $7 #
transform $-1 1 0 0 0 1 0 0 0 1 63.389385662404251 28.989999081557443 8.2133169796969625 1 rotate no_reflect no_shear #
lump $-1 $-1 $68 $8 #
transform $-1 1 0 0 0 1 0 0 0 1 63.389385662404251 28.989999081557443 8.2133169796969625 1 rotate no_reflect no_shear #
lump $-1 $-1 $69 $9 #
transform $-1 1 0 0 0 1 0 0 0 1 63.389385662404251 28.989999081557443 8.2133169796969625 1 rotate no_reflect no_shear #
lump $-1 $-1 $70 $10 #
transform $-1 1 0 0 0 1 0 0 0 1 63.389385662404251 28.989999081557443 8.2133169796969625 1 rotate no_reflect no_shear #
lump $-1 $-1 $71 $11 #
transform $-1 1 0 0 0 1 0 0 0 1 63.389385662404251 28.989999081557443 8.2133169796969625 1 rotate no_reflect no_shear #
lump $-1 $-1 $72 $12 #
transform $-1 1 0 0 0 1 0 0 0 1 63.389385662404251 28.989999081557443 8.2133169796969625 1 rotate no_reflect no_shear #
lump $-1 $-1 $73 $13 #
transform $-1 1 0 0 0 1 0 0 0 1 63.389385662404251 28.989999081557443 8.2133169796969625 1 rotate no_reflect no_shear #
lump $-1 $-1 $74 $14 #
transform $-1 1 0 0 0 1 0 0 0 1 63.389385662404251 28.989999081557443 8.2133169796969625 1 rotate no_reflect no_shear #
lump $-1 $-1 $75 $15 #
transform $-1 1 0 0 0 1 0 0 0 1 63.389385662404251 28.989999081557443 8.2133169796969625 1 rotate no_reflect no_shear #
lump $-1 $-1 $76 $16 #
transform $-1 1 0 0 0 1 0 0 0 1 63.389385662404251 28.989999081557443 8.2133169796969625 1 rotate no_reflect no_shear #
lump $-1 $-1 $77 $17 #
transform $-1 1 0 0 0 1 0 0 0 1 63.389385662404251 28.989999081557443 8.2133169796969625 1 rotate no_reflect no_shear #
lump $-1 $-1 $78 $18 #
transform $-1 1 0 0 0 1 0 0 0 1 63.389385662404251 28.989999081557443 8.2133169796969625 1 rotate no_reflect no_shear #
lump $-1 $-1 $79 $19 #
transform $-1 1 0 0 0 1 0 0 0 1 63.389385662404251 28.989999081557443 8.2133169796969625 1 rotate no_reflect no_shear #
shell $-1 $-1 $-1 $80 $-1 $20 #
shell $-1 $-1 $-1 $81 $-1 $22 #
shell $-1 $-1 $-1 $82 $-1 $24 #
shell $-1 $-1 $-1 $83 $-1 $26 #
shell $-1 $-1 $-1 $84 $-1 $28 #
shell $-1 $-1 $-1 $85 $-1 $30 #
shell $-1 $-1 $-1 $86 $-1 $32 #
shell $-1 $-1 $-1 $87 $-1 $34 #
shell $-1 $-1 $-1 $88 $-1 $36 #
shell $-1 $-1 $-1 $89 $-1 $38 #
shell $-1 $-1 $-1 $90 $-1 $40 #
shell $-1 $-1 $-1 $91 $-1 $42 #
shell $-1 $-1 $-1 $92 $-1 $44 #
shell $-1 $-1 $-1 $93 $-1 $46 #
shell $-1 $-1 $-1 $94 $-1 $48 #
shell $-1 $-1 $-1 $95 $-1 $50 #
shell $-1 $-1 $-1 $96 $-1 $52 #
shell $-1 $-1 $-1 $97 $-1 $54 #
shell $-1 $-1 $-1 $98 $-1 $56 #
shell $-1 $-1 $-1 $99 $-1 $58 #
face $-1 $100 $101 $60 $-1 $102 forward single #
face $-1 $103 $104 $61 $-1 $105 reversed single #
face $-1 $106 $107 $62 $-1 $108 reversed single #
face $-1 $109 $110 $63 $-1 $111 forward single #
face $-1 $112 $113 $64 $-1 $114 reversed single #
face $-1 $115 $116 $65 $-1 $117 forward single #
face $-1 $118 $119 $66 $-1 $120 forward single #
face $-1 $121 $122 $67 $-1 $123 forward single #
face $-1 $124 $125 $68 $-1 $126 reversed single #
face $-1 $127 $128 $69 $-1 $129 forward single #
face $-1 $130 $131 $70 $-1 $132 forward single #
face $-1 $133 $134 $71 $-1 $135 forward single #
face $-1 $136 $137 $72 $-1 $138 reversed single #
face $-1 $139 $140 $73 $-1 $141 forward single #
face $-1 $142 $143 $74 $-1 $144 forward single #
face $-1 $145 $146 $75 $-1 $147 forward single #
face $-1 $148 $149 $76 $-1 $150 reversed single #
face $-1 $151 $152 $77 $-1 $153 forward single #
face $-1 $154 $155 $78 $-1 $156 forward single #
face $-1 $157 $158 $79 $-1 $159 forward single #
face $-1 $160 $161 $60 $-1 $162 reversed single #
loop $-1 $-1 $163 $80 #
plane-surface $-1 0 0 8.2133169796969625 0 0 1 1 0 0 forward_v I I I I #
face $-1 $164 $165 $61 $-1 $166 reversed single #
loop $-1 $-1 $167 $81 #
plane-surface $-1 -60.285366027730532 -24.020349502216526 0 1 0 0 0 0 -1 forward_v I I I I #
face $-1 $168 $169 $62 $-1 $170 reversed single #
loop $-1 $-1 $171 $82 #
plane-surface $-1 35.341898866850343 15.616254550730758 178.34051109806188 0 1 0 0.5877852598018023 0 0.80901698891910034 forward_v I I I I #
face $-1 $172 $173 $63 $-1 $174 forward single #
loop $-1 $175 $176 $83 #
cone-surface $-1 56.490747541596633 22.303126816144101 1.8297246561908658 -0.5877852598018023 0 -0.80901698891910034 1.6180339778382007 0 -1.1755705196036046 1 I I 0 1 2 forward I I I I #
face $-1 $177 $178 $64 $-1 $179 reversed single #
loop $-1 $-1 $180 $84 #
plane-surface $-1 -169.71501082758266 -16.7387453578419 73.24531707111035 0 1 0 -0.83867057594974714 0 0.54463902268945019 forward_v I I I I #
face $-1 $181 $182 $65 $-1 $183 forward single #
loop $-1 $184 $185 $85 #
cone-surface $-1 -61.665823709802218 -15.458809516883189 5.9326644580024404 0.83867057594974714 0 -0.54463902268945019 0.2723195113447251 0 0.41933528797487357 1 I I 0 1 0.5 forward I I I I #
face $-1 $186 $187 $66 $-1 $188 forward single #
loop $-1 $189 $190 $86 #
cone-surface $-1 -61.665823709802218 -13.538905755445123 5.9326644580024404 0.83867057594974714 0 -0.54463902268945019 0.2723195113447251 0 0.41933528797487357 1 I I 0 1 0.5 forward I I I I #
face $-1 $191 $192 $67 $-1 $193 forward single #
loop $-1 $194 $195 $87 #
cone-surface $-1 -61.665823709802218 -11.619001994007057 5.9326644580024404 0.83867057594974714 0 -0.54463902268945019 0.2723195113447251 0 0.41933528797487357 1 I I 0 1 0.5 forward I I I I #
face $-1 $196 $197 $68 $-1 $198 reversed single #
loop $-1 $-1 $199 $88 #
plane-surface $-1 -169.71501082758266 -4.7285706067336388 73.24531707111035 0 1 0 -0.83867057594974714 0 0.54463902268945019 forward_v I I I I #
face $-1 $200 $201 $69 $-1 $202 forward single #
loop $-1 $203 $204 $89 #
cone-surface $-1 -61.665823709802218 -3.4486347657749263 5.9326644580024404 0.83867057594974714 0 -0.54463902268945019 0.2723195113447251 0 0.41933528797487357 1 I I 0 1 0.5 forward I I I I #
face $-1 $205 $206 $70 $-1 $207 forward single #
loop $-1 $208 $209 $90 #
cone-surface $-1 -61.665823709802218 -1.528731004336862 5.9326644580024404 0.83867057594974714 0 -0.54463902268945019 0.2723195113447251 0 0.41933528797487357 1 I I 0 1 0.5 forward I I I I #
face $-1 $210 $211 $71 $-1 $212 forward single #
loop $-1 $213 $214 $91 #
cone-surface $-1 -61.665823709802218 0.3911727571012058 5.9326644580024404 0.83867057594974714 0 -0.54463902268945019 0.2723195113447251 0 0.41933528797487357 1 I I 0 1 0.5 forward I I I I #
face $-1 $215 $216 $72 $-1 $217 reversed single #
loop $-1 $-1 $218 $92 #
plane-surface $-1 -169.71501082758266 7.2816041443746276 73.24531707111035 0 1 0 -0.83867057594974714 0 0.54463902268945019 forward_v I I I I #
face $-1 $219 $220 $73 $-1 $221 forward single #
loop $-1 $222 $223 $93 #
cone-surface $-1 -61.665823709802218 8.56153998533334 5.9326644580024404 0.83867057594974714 0 -0.54463902268945019 0.2723195113447251 0 0.41933528797487357 1 I I 0 1 0.5 forward I I I I #
face $-1 $224 $225 $74 $-1 $226 forward single #
loop $-1 $227 $228 $94 #
cone-surface $-1 -61.665823709802218 10.481443746771404 5.9326644580024404 0.83867057594974714 0 -0.54463902268945019 0.2723195113447251 0 0.41933528797487357 1 I I 0 1 0.5 forward I I I I #
face $-1 $229 $230 $75 $-1 $231 forward single #
loop $-1 $232 $233 $95 #
cone-surface $-1 -61.665823709802218 12.401347508209469 5.9326644580024404 0.83867057594974714 0 -0.54463902268945019 0.2723195113447251 0 0.41933528797487357 1 I I 0 1 0.5 forward I I I I #
face $-1 $234 $235 $76 $-1 $236 reversed single #
loop $-1 $-1 $237 $96 #
plane-surface $-1 -169.71501082758266 19.291778895482892 73.24531707111035 0 1 0 -0.83867057594974714 0 0.54463902268945019 forward_v I I I I #
face $-1 $238 $239 $77 $-1 $240 forward single #
loop $-1 $241 $242 $97 #
cone-surface $-1 -61.665823709802218 20.571714736441606 5.9326644580024404 0.83867057594974714 0 -0.54463902268945019 0.2723195113447251 0 0.41933528797487357 1 I I 0 1 0.5 forward I I I I #
face $-1 $243 $244 $78 $-1 $245 forward single #
loop $-1 $246 $247 $98 #
cone-surface $-1 -61.665823709802218 22.491618497879671 5.9326644580024404 0.83867057594974714 0 -0.54463902268945019 0.2723195113447251 0 0.41933528797487357 1 I I 0 1 0.5 forward I I I I #
face $-1 $248 $249 $79 $-1 $250 forward single #
loop $-1 $251 $252 $99 #
cone-surface $-1 -61.665823709802218 24.411522259317735 5.9326644580024404 0.83867057594974714 0 -0.54463902268945019 0.2723195113447251 0 0.41933528797487357 1 I I 0 1 0.5 forward I I I I #
face $-1 $253 $254 $60 $-1 $255 reversed single #
loop $-1 $-1 $256 $100 #
plane-surface $-1 0 0 -8.2133169796969625 0 0 1 1 0 0 forward_v I I I I #
coedge $-1 $257 $258 $259 $260 forward $101 $-1 #
face $-1 $261 $262 $61 $-1 $263 reversed single #
loop $-1 $-1 $264 $103 #
plane-surface $-1 -57.952565431553104 -19.050699922875609 0 0 -1 0 0 0 -1 forward_v I I I I #
coedge $-1 $265 $266 $267 $268 forward $104 $-1 #
face $-1 $269 $270 $62 $-1 $271 reversed single #
loop $-1 $-1 $272 $106 #
plane-surface $-1 -39.176794173655509 22.303126816144101 75.774331262002121 0.5877852598018023 0 0.80901698891910034 0.80901698891910034 0 -0.5877852598018023 forward_v I I I I #
coedge $-1 $273 $274 $275 $276 reversed $107 $-1 #
face $-1 $-1 $277 $63 $-1 $278 forward single #
loop $-1 $279 $280 $109 #
cone-surface $-1 53.792535693140934 22.303126816144101 -1.8840452771339855 -0.5877852598018023 0 -0.80901698891910034 0.80901698891910034 0 -0.5877852598018023 1 I I -0.70710678118654746 0.70710678118654746 1 forward I I I I #
loop $-1 $-1 $281 $83 #
coedge $-1 $176 $176 $282 $283 reversed $110 $-1 #
face $-1 $284 $285 $64 $-1 $286 reversed single #
loop $-1 $-1 $287 $112 #
plane-surface $-1 -63.389385662404237 -13.538905755445123 4.1966509589973668 -0.83867057594974714 0 0.54463902268945019 0.54463902268945019 0 0.83867057594974714 forward_v I I I I #
coedge $-1 $288 $289 $290 $291 reversed $113 $-1 #
face $-1 $-1 $292 $65 $-1 $293 forward single #
loop $-1 $294 $295 $115 #
cone-surface $-1 -61.036820777839907 -15.458809516883189 5.524185190985353 0.83867057594974714 0 -0.54463902268945019 0.13615975567236255 0 0.20966764398743679 1 I I -0.70710678118654746 0.70710678118654746 0.25 forward I I I I #
loop $-1 $-1 $296 $85 #
coedge $-1 $185 $185 $297 $298 reversed $116 $-1 #
face $-1 $-1 $299 $66 $-1 $300 forward single #
loop $-1 $301 $302 $118 #
cone-surface $-1 -61.036820777839907 -13.538905755445123 5.524185190985353 0.83867057594974714 0 -0.54463902268945019 0.13615975567236255 0 0.20966764398743679 1 I I -0.70710678118654746 0.70710678118654746 0.25 forward I I I I #
loop $-1 $-1 $303 $86 #
coedge $-1 $190 $190 $304 $305 reversed $119 $-1 #
face $-1 $-1 $306 $67 $-1 $307 forward single #
loop $-1 $308 $309 $121 #
cone-surface $-1 -61.036820777839907 -11.619001994007057 5.524185190985353 0.83867057594974714 0 -0.54463902268945019 0.13615975567236255 0 0.20966764398743679 1 I I -0.70710678118654746 0.70710678118654746 0.25 forward I I I I #
loop $-1 $-1 $310 $87 #
coedge $-1 $195 $195 $311 $312 reversed $122 $-1 #
face $-1 $313 $314 $68 $-1 $315 reversed single #
loop $-1 $-1 $316 $124 #
plane-surface $-1 -63.389385662404237 -1.528731004336862 4.1966509589973668 -0.83867057594974714 0 0.54463902268945019 0.54463902268945019 0 0.83867057594974714 forward_v I I I I #
coedge $-1 $317 $318 $319 $320 reversed $125 $-1 #
face $-1 $-1 $321 $69 $-1 $322 forward single #
loop $-1 $323 $324 $127 #
cone-surface $-1 -61.036820777839907 -3.4486347657749263 5.524185190985353 0.83867057594974714 0 -0.54463902268945019 0.13615975567236255 0 0.20966764398743679 1 I I -0.70710678118654746 0.70710678118654746 0.25 forward I I I I #
loop $-1 $-1 $325 $89 #
coedge $-1 $204 $204 $326 $327 reversed $128 $-1 #
face $-1 $-1 $328 $70 $-1 $329 forward single #
loop $-1 $330 $331 $130 #
cone-surface $-1 -61.036820777839907 -1.528731004336862 5.524185190985353 0.83867057594974714 0 -0.54463902268945019 0.13615975567236255 0 0.20966764398743679 1 I I -0.70710678118654746 0.70710678118654746 0.25 forward I I I I #
loop $-1 $-1 $332 $90 #
coedge $-1 $209 $209 $333 $334 reversed $131 $-1 #
face $-1 $-1 $335 $71 $-1 $336 forward single #
loop $-1 $337 $338 $133 #
cone-surface $-1 -61.036820777839907 0.3911727571012058 5.524185190985353 0.83867057594974714 0 -0.54463902268945019 0.13615975567236255 0 0.20966764398743679 1 I I -0.70710678118654746 0.70710678118654746 0.25 forward I I I I #
loop $-1 $-1 $339 $91 #
coedge $-1 $214 $214 $340 $341 reversed $134 $-1 #
face $-1 $342 $343 $72 $-1 $344 reversed single #
loop $-1 $-1 $345 $136 #
plane-surface $-1 -63.389385662404237 10.481443746771404 4.1966509589973668 -0.83867057594974714 0 0.54463902268945019 0.54463902268945019 0 0.83867057594974714 forward_v I I I I #
coedge $-1 $346 $347 $348 $349 reversed $137 $-1 #
face $-1 $-1 $350 $73 $-1 $351 forward single #
loop $-1 $352 $353 $139 #
cone-surface $-1 -61.036820777839907 8.56153998533334 5.524185190985353 0.83867057594974714 0 -0.54463902268945019 0.13615975567236255 0 0.20966764398743679 1 I I -0.70710678118654746 0.70710678118654746 0.25 forward I I I I #
loop $-1 $-1 $354 $93 #
coedge $-1 $223 $223 $355 $356 reversed $140 $-1 #
face $-1 $-1 $357 $74 $-1 $358 forward single #
loop $-1 $359 $360 $142 #
cone-surface $-1 -61.036820777839907 10.481443746771404 5.524185190985353 0.83867057594974714 0 -0.54463902268945019 0.13615975567236255 0 0.20966764398743679 1 I I -0.70710678118654746 0.70710678118654746 0.25 forward I I I I #
loop $-1 $-1 $361 $94 #
coedge $-1 $228 $228 $362 $363 reversed $143 $-1 #
face $-1 $-1 $364 $75 $-1 $365 forward single #
loop $-1 $366 $367 $145 #
cone-surface $-1 -61.036820777839907 12.401347508209469 5.524185190985353 0.83867057594974714 0 -0.54463902268945019 0.13615975567236255 0 0.20966764398743679 1 I I -0.70710678118654746 0.70710678118654746 0.25 forward I I I I #
loop $-1 $-1 $368 $95 #
coedge $-1 $233 $233 $369 $370 reversed $146 $-1 #
face $-1 $371 $372 $76 $-1 $373 reversed single #
loop $-1 $-1 $374 $148 #
plane-surface $-1 -63.389385662404237 22.491618497879671 4.1966509589973668 -0.83867057594974714 0 0.54463902268945019 0.54463902268945019 0 0.83867057594974714 forward_v I I I I #
coedge $-1 $375 $376 $377 $378 reversed $149 $-1 #
face $-1 $-1 $379 $77 $-1 $380 forward single #
loop $-1 $381 $382 $151 #
cone-surface $-1 -61.036820777839907 20.571714736441606 5.524185190985353 0.83867057594974714 0 -0.54463902268945019 0.13615975567236255 0 0.20966764398743679 1 I I -0.70710678118654746 0.70710678118654746 0.25 forward I I I I #
loop $-1 $-1 $383 $97 #
coedge $-1 $242 $242 $384 $385 reversed $152 $-1 #
face $-1 $-1 $386 $78 $-1 $387 forward single #
loop $-1 $388 $389 $154 #
cone-surface $-1 -61.036820777839907 22.491618497879671 5.524185190985353 0.83867057594974714 0 -0.54463902268945019 0.13615975567236255 0 0.20966764398743679 1 I I -0.70710678118654746 0.70710678118654746 0.25 forward I I I I #
loop $-1 $-1 $390 $98 #
coedge $-1 $247 $247 $391 $392 reversed $155 $-1 #
face $-1 $-1 $393 $79 $-1 $394 forward single #
loop $-1 $395 $396 $157 #
cone-surface $-1 -61.036820777839907 24.411522259317735 5.524185190985353 0.83867057594974714 0 -0.54463902268945019 0.13615975567236255 0 0.20966764398743679 1 I I -0.70710678118654746 0.70710678118654746 0.25 forward I I I I #
loop $-1 $-1 $397 $99 #
coedge $-1 $252 $252 $398 $399 reversed $158 $-1 #
face $-1 $400 $401 $60 $-1 $402 reversed single #
loop $-1 $-1 $403 $160 #
plane-surface $-1 0 -28.989999081557443 0 0 1 0 0 0 1 forward_v I I I I #
coedge $-1 $404 $405 $406 $407 forward $161 $-1 #
coedge $-1 $408 $163 $409 $410 forward $101 $-1 #
coedge $-1 $163 $408 $411 $412 forward $101 $-1 #
coedge $-1 $413 $414 $163 $260 reversed $415 $-1 #
edge $-1 $416 -28.989999081557443 $417 28.989999081557443 $259 $418 forward 7 unknown #
face $-1 $419 $420 $61 $-1 $421 forward single #
loop $-1 $-1 $422 $164 #
plane-surface $-1 -55.619764835375676 -24.020349502216526 0 -1 0 0 0 0 1 forward_v I I I I #
coedge $-1 $423 $424 $425 $426 forward $165 $-1 #
coedge $-1 $427 $167 $428 $429 reversed $104 $-1 #
coedge $-1 $167 $427 $430 $431 reversed $104 $-1 #
coedge $-1 $424 $423 $167 $268 reversed $165 $-1 #
edge $-1 $432 -8.2133169796969625 $433 8.2133169796969625 $267 $434 forward 7 unknown #
face $-1 $435 $436 $62 $-1 $437 reversed single #
loop $-1 $-1 $275 $168 #
plane-surface $-1 63.389385662404251 0 0 -1 0 0 0 0 1 forward_v I I I I #
coedge $-1 $438 $439 $440 $441 reversed $169 $-1 #
coedge $-1 $274 $171 $442 $443 reversed $107 $-1 #
coedge $-1 $171 $273 $438 $444 reversed $107 $-1 #
coedge $-1 $440 $445 $171 $276 forward $270 $-1 #
edge $-1 $446 80.956938569333971 $447 87.914617327534671 $275 $448 forward 7 unknown #
loop $-1 $-1 $282 $172 #
plane-surface $-1 -39.176794173655509 22.303126816144101 75.774331262002121 0.5877852598018023 0 0.80901698891910034 0.80901698891910034 0 -0.5877852598018023 forward_v I I I I #
loop $-1 $-1 $449 $109 #
coedge $-1 $280 $280 $281 $450 reversed $173 $-1 #
coedge $-1 $281 $281 $280 $450 forward $175 $-1 #
coedge $-1 $282 $282 $176 $283 forward $277 $-1 #
edge $-1 $451 0 $451 6.2831853071796004 $282 $452 forward 7 unknown #
face $-1 $453 $454 $64 $-1 $455 reversed single #
loop $-1 $-1 $456 $177 #
plane-surface $-1 -169.71501082758266 -10.339066153048346 73.24531707111035 0 -1 0 0.83867057594974714 0 -0.54463902268945019 forward_v I I I I #
coedge $-1 $457 $458 $459 $460 reversed $178 $-1 #
coedge $-1 $289 $180 $461 $462 reversed $113 $-1 #
coedge $-1 $180 $288 $457 $463 reversed $113 $-1 #
coedge $-1 $459 $464 $180 $291 forward $465 $-1 #
edge $-1 $466 21.468119751387079 $467 24.07657308064141 $290 $468 forward 7 unknown #
loop $-1 $-1 $297 $181 #
plane-surface $-1 -63.389385662404237 -13.538905755445123 4.1966509589973668 -0.83867057594974714 0 0.54463902268945019 0.54463902268945019 0 0.83867057594974714 forward_v I I I I #
loop $-1 $-1 $469 $115 #
coedge $-1 $295 $295 $296 $470 reversed $182 $-1 #
coedge $-1 $296 $296 $295 $470 forward $184 $-1 #
coedge $-1 $297 $297 $185 $298 forward $292 $-1 #
edge $-1 $471 0 $471 6.2831853071796004 $297 $472 forward 7 unknown #
loop $-1 $-1 $304 $186 #
plane-surface $-1 -63.389385662404237 -13.538905755445123 4.1966509589973668 -0.83867057594974714 0 0.54463902268945019 0.54463902268945019 0 0.83867057594974714 forward_v I I I I #
loop $-1 $-1 $473 $118 #
coedge $-1 $302 $302 $303 $474 reversed $187 $-1 #
coedge $-1 $303 $303 $302 $474 forward $189 $-1 #
coedge $-1 $304 $304 $190 $305 forward $299 $-1 #
edge $-1 $475 0 $475 6.2831853071796004 $304 $476 forward 7 unknown #
loop $-1 $-1 $311 $191 #
plane-surface $-1 -63.389385662404237 -13.538905755445123 4.1966509589973668 -0.83867057594974714 0 0.54463902268945019 0.54463902268945019 0 0.83867057594974714 forward_v I I I I #
loop $-1 $-1 $477 $121 #
coedge $-1 $309 $309 $310 $478 reversed $192 $-1 #
coedge $-1 $310 $310 $309 $478 forward $194 $-1 #
coedge $-1 $311 $311 $195 $312 forward $306 $-1 #
edge $-1 $479 0 $479 6.2831853071796004 $311 $480 forward 7 unknown #
face $-1 $481 $482 $68 $-1 $483 forward single #
loop $-1 $-1 $484 $196 #
plane-surface $-1 -169.71501082758266 1.6711085980599147 73.24531707111035 0 -1 0 0.83867057594974714 0 -0.54463902268945019 forward_v I I I I #
coedge $-1 $485 $486 $487 $488 reversed $197 $-1 #
coedge $-1 $318 $199 $489 $490 reversed $125 $-1 #
coedge $-1 $199 $317 $485 $491 reversed $125 $-1 #
coedge $-1 $487 $492 $199 $320 forward $482 $-1 #
edge $-1 $493 21.468119751387079 $494 24.07657308064141 $319 $495 forward 7 unknown #
loop $-1 $-1 $326 $200 #
plane-surface $-1 -63.389385662404237 -1.528731004336862 4.1966509589973668 -0.83867057594974714 0 0.54463902268945019 0.54463902268945019 0 0.83867057594974714 forward_v I I I I #
loop $-1 $-1 $496 $127 #
coedge $-1 $324 $324 $325 $497 reversed $201 $-1 #
coedge $-1 $325 $325 $324 $497 forward $203 $-1 #
coedge $-1 $326 $326 $204 $327 forward $321 $-1 #
edge $-1 $498 0 $498 6.2831853071796004 $326 $499 forward 7 unknown #
loop $-1 $-1 $333 $205 #
plane-surface $-1 -63.389385662404237 -1.528731004336862 4.1966509589973668 -0.83867057594974714 0 0.54463902268945019 0.54463902268945019 0 0.83867057594974714 forward_v I I I I #
loop $-1 $-1 $500 $130 #
coedge $-1 $331 $331 $332 $501 reversed $206 $-1 #
coedge $-1 $332 $332 $331 $501 forward $208 $-1 #
coedge $-1 $333 $333 $209 $334 forward $328 $-1 #
edge $-1 $502 0 $502 6.2831853071796004 $333 $503 forward 7 unknown #
loop $-1 $-1 $340 $210 #
plane-surface $-1 -63.389385662404237 -1.528731004336862 4.1966509589973668 -0.83867057594974714 0 0.54463902268945019 0.54463902268945019 0 0.83867057594974714 forward_v I I I I #
loop $-1 $-1 $504 $133 #
coedge $-1 $338 $338 $339 $505 reversed $211 $-1 #
coedge $-1 $339 $339 $338 $505 forward $213 $-1 #
coedge $-1 $340 $340 $214 $341 forward $335 $-1 #
edge $-1 $506 0 $506 6.2831853071796004 $340 $507 forward 7 unknown #
face $-1 $508 $509 $72 $-1 $510 forward single #
loop $-1 $-1 $511 $215 #
plane-surface $-1 -169.71501082758266 13.681283349168181 73.24531707111035 0 -1 0 0.83867057594974714 0 -0.54463902268945019 forward_v I I I I #
coedge $-1 $512 $513 $514 $515 reversed $216 $-1 #
coedge $-1 $347 $218 $516 $517 reversed $137 $-1 #
coedge $-1 $218 $346 $512 $518 reversed $137 $-1 #
coedge $-1 $514 $519 $218 $349 forward $509 $-1 #
edge $-1 $520 21.468119751387079 $521 24.07657308064141 $348 $522 forward 7 unknown #
loop $-1 $-1 $355 $219 #
plane-surface $-1 -63.389385662404237 10.481443746771404 4.1966509589973668 -0.83867057594974714 0 0.54463902268945019 0.54463902268945019 0 0.83867057594974714 forward_v I I I I #
loop $-1 $-1 $523 $139 #
coedge $-1 $353 $353 $354 $524 reversed $220 $-1 #
coedge $-1 $354 $354 $353 $524 forward $222 $-1 #
coedge $-1 $355 $355 $223 $356 forward $350 $-1 #
edge $-1 $525 0 $525 6.2831853071796004 $355 $526 forward 7 unknown #
loop $-1 $-1 $362 $224 #
plane-surface $-1 -63.389385662404237 10.481443746771404 4.1966509589973668 -0.83867057594974714 0 0.54463902268945019 0.54463902268945019 0 0.83867057594974714 forward_v I I I I #
loop $-1 $-1 $527 $142 #
coedge $-1 $360 $360 $361 $528 reversed $225 $-1 #
coedge $-1 $361 $361 $360 $528 forward $227 $-1 #
coedge $-1 $362 $362 $228 $363 forward $357 $-1 #
edge $-1 $529 0 $529 6.2831853071796004 $362 $530 forward 7 unknown #
loop $-1 $-1 $369 $229 #
plane-surface $-1 -63.389385662404237 10.481443746771404 4.1966509589973668 -0.83867057594974714 0 0.54463902268945019 0.54463902268945019 0 0.83867057594974714 forward_v I I I I #
loop $-1 $-1 $531 $145 #
coedge $-1 $367 $367 $368 $532 reversed $230 $-1 #
coedge $-1 $368 $368 $367 $532 forward $232 $-1 #
coedge $-1 $369 $369 $233 $370 forward $364 $-1 #
edge $-1 $533 0 $533 6.2831853071796004 $369 $534 forward 7 unknown #
face $-1 $535 $536 $76 $-1 $537 forward single #
loop $-1 $-1 $538 $234 #
plane-surface $-1 -169.71501082758266 25.691458100276449 73.24531707111035 0 -1 0 0.83867057594974714 0 -0.54463902268945019 forward_v I I I I #
coedge $-1 $539 $540 $541 $542 reversed $235 $-1 #
coedge $-1 $376 $237 $543 $544 reversed $149 $-1 #
coedge $-1 $237 $375 $539 $545 reversed $149 $-1 #
coedge $-1 $541 $546 $237 $378 forward $536 $-1 #
edge $-1 $547 21.468119751387079 $548 24.07657308064141 $377 $549 forward 7 unknown #
loop $-1 $-1 $384 $238 #
plane-surface $-1 -63.389385662404237 22.491618497879671 4.1966509589973668 -0.83867057594974714 0 0.54463902268945019 0.54463902268945019 0 0.83867057594974714 forward_v I I I I #
loop $-1 $-1 $550 $151 #
coedge $-1 $382 $382 $383 $551 reversed $239 $-1 #
coedge $-1 $383 $383 $382 $551 forward $241 $-1 #
coedge $-1 $384 $384 $242 $385 forward $379 $-1 #
edge $-1 $552 0 $552 6.2831853071796004 $384 $553 forward 7 unknown #
loop $-1 $-1 $391 $243 #
plane-surface $-1 -63.389385662404237 22.491618497879671 4.1966509589973668 -0.83867057594974714 0 0.54463902268945019 0.54463902268945019 0 0.83867057594974714 forward_v I I I I #
loop $-1 $-1 $554 $154 #
coedge $-1 $389 $389 $390 $555 reversed $244 $-1 #
coedge $-1 $390 $390 $389 $555 forward $246 $-1 #
coedge $-1 $391 $391 $247 $392 forward $386 $-1 #
edge $-1 $556 0 $556 6.2831853071796004 $391 $557 forward 7 unknown #
loop $-1 $-1 $398 $248 #
plane-surface $-1 -63.389385662404237 22.491618497879671 4.1966509589973668 -0.83867057594974714 0 0.54463902268945019 0.54463902268945019 0 0.83867057594974714 forward_v I I I I #
loop $-1 $-1 $558 $157 #
coedge $-1 $396 $396 $397 $559 reversed $249 $-1 #
coedge $-1 $397 $397 $396 $559 forward $251 $-1 #
coedge $-1 $398 $398 $252 $399 forward $393 $-1 #
edge $-1 $560 0 $560 6.2831853071796004 $398 $561 forward 7 unknown #
face $-1 $562 $563 $60 $-1 $564 reversed single #
loop $-1 $-1 $565 $253 #
plane-surface $-1 -63.389385662404251 0 0 1 0 0 0 0 -1 forward_v I I I I #
coedge $-1 $566 $411 $567 $568 forward $254 $-1 #
coedge $-1 $569 $256 $566 $570 forward $161 $-1 #
coedge $-1 $256 $569 $571 $572 forward $161 $-1 #
coedge $-1 $414 $413 $256 $407 reversed $415 $-1 #
edge $-1 $573 -28.989999081557443 $574 28.989999081557443 $406 $575 forward 7 unknown #
coedge $-1 $258 $257 $576 $577 forward $101 $-1 #
coedge $-1 $578 $579 $257 $410 reversed $563 $-1 #
edge $-1 $417 -63.389385662404251 $580 63.389385662404251 $409 $581 forward 7 unknown #
coedge $-1 $403 $582 $258 $412 reversed $254 $-1 #
edge $-1 $583 -63.389385662404251 $416 63.389385662404251 $411 $584 forward 7 unknown #
coedge $-1 $406 $259 $582 $585 forward $415 $-1 #
coedge $-1 $259 $406 $578 $586 reversed $415 $-1 #
loop $-1 $-1 $413 $562 #
vertex $-1 $260 $587 #
vertex $-1 $260 $588 #
straight-curve $-1 63.389385662404251 0 8.2133169796969625 0 1 0 I I #
face $-1 $589 $590 $61 $-1 $591 reversed single #
loop $-1 $-1 $592 $261 #
plane-surface $-1 0 0 8.2133169796969625 0 0 1 1 0 0 forward_v I I I I #
coedge $-1 $593 $594 $595 $596 reversed $262 $-1 #
coedge $-1 $267 $264 $597 $598 reversed $165 $-1 #
coedge $-1 $264 $267 $599 $600 reversed $165 $-1 #
coedge $-1 $594 $593 $264 $426 reversed $262 $-1 #
edge $-1 $601 -8.2133169796969625 $602 8.2133169796969625 $425 $603 forward 7 unknown #
coedge $-1 $266 $265 $604 $605 reversed $104 $-1 #
coedge $-1 $597 $606 $265 $429 forward $590 $-1 #
edge $-1 $607 -16.97982433044918 $433 -7.0405251717673458 $428 $608 forward 7 unknown #
coedge $-1 $609 $599 $266 $431 forward $420 $-1 #
edge $-1 $432 7.0405251717673458 $610 16.97982433044918 $430 $611 forward 7 unknown #
vertex $-1 $431 $612 #
vertex $-1 $429 $613 #
straight-curve $-1 -60.285366027730532 -19.050699922875609 0 0 0 -1 I I #
face $-1 $-1 $614 $62 $-1 $615 forward single #
loop $-1 $-1 $616 $269 #
plane-surface $-1 0 28.989999081557443 0 0 -1 0 0 0 -1 forward_v I I I I #
coedge $-1 $617 $272 $274 $444 forward $169 $-1 #
coedge $-1 $272 $617 $616 $618 reversed $169 $-1 #
coedge $-1 $619 $275 $272 $441 forward $270 $-1 #
edge $-1 $447 4.4646911426587081 $620 17.838435673485392 $440 $621 forward 7 unknown #
coedge $-1 $622 $623 $273 $443 forward $614 $-1 #
edge $-1 $624 36.14201316467166 $446 45.71843622897908 $442 $625 forward 7 unknown #
edge $-1 $447 -126.7787713248085 $624 -114.94166135620063 $274 $626 forward 7 unknown #
coedge $-1 $275 $619 $622 $627 reversed $270 $-1 #
vertex $-1 $627 $628 #
vertex $-1 $276 $629 #
straight-curve $-1 63.389385662404251 15.616254550730758 89.170255549030941 0 0 -1 I I #
coedge $-1 $449 $449 $-1 $630 reversed $279 $-1 #
edge $-1 $631 0 $631 6.2831853071796004 $280 $632 forward 7 unknown #
vertex $-1 $283 $633 #
ellipse-curve $-1 58.601174130250534 22.303126816144101 4.7344776005966258 0.5877852598018023 0 0.80901698891910034 1.6180339778382007 0 -1.1755705196036046 1 I I #
face $-1 $-1 $465 $64 $-1 $634 forward single #
loop $-1 $-1 $635 $284 #
plane-surface $-1 -63.389385662404251 0 0 1 0 0 0 0 -1 forward_v I I I I #
coedge $-1 $636 $637 $638 $639 reversed $285 $-1 #
coedge $-1 $640 $287 $289 $463 forward $178 $-1 #
coedge $-1 $287 $640 $636 $641 forward $178 $-1 #
coedge $-1 $638 $290 $287 $460 forward $465 $-1 #
edge $-1 $467 -9.9692924801193392 $642 -3.5696132753257848 $459 $643 forward 7 unknown #
coedge $-1 $644 $645 $288 $462 forward $454 $-1 #
edge $-1 $646 -32.426007576557829 $466 -28.409341555858212 $461 $647 forward 7 unknown #
edge $-1 $467 -4.7893250769540225 $646 2.636201369357039e-014 $289 $648 forward 7 unknown #
coedge $-1 $290 $638 $644 $649 forward $465 $-1 #
loop $-1 $-1 $638 $453 #
vertex $-1 $462 $650 #
vertex $-1 $291 $651 #
straight-curve $-1 -84.85750541379133 -16.7387453578419 8.2133169796969625 1 0 0 I I #
coedge $-1 $469 $469 $-1 $652 reversed $294 $-1 #
edge $-1 $653 0 $653 6.2831853071796004 $295 $654 forward 7 unknown #
vertex $-1 $298 $655 #
ellipse-curve $-1 -62.085158997777086 -15.458809516883189 6.2049839693471602 -0.83867057594974714 0 0.54463902268945019 0.2723195113447251 0 0.41933528797487357 1 I I #
coedge $-1 $473 $473 $-1 $656 reversed $301 $-1 #
edge $-1 $657 0 $657 6.2831853071796004 $302 $658 forward 7 unknown #
vertex $-1 $305 $659 #
ellipse-curve $-1 -62.085158997777086 -13.538905755445123 6.2049839693471602 -0.83867057594974714 0 0.54463902268945019 0.2723195113447251 0 0.41933528797487357 1 I I #
coedge $-1 $477 $477 $-1 $660 reversed $308 $-1 #
edge $-1 $661 0 $661 6.2831853071796004 $309 $662 forward 7 unknown #
vertex $-1 $312 $663 #
ellipse-curve $-1 -62.085158997777086 -11.619001994007057 6.2049839693471602 -0.83867057594974714 0 0.54463902268945019 0.2723195113447251 0 0.41933528797487357 1 I I #
face $-1 $-1 $664 $68 $-1 $665 reversed single #
loop $-1 $-1 $319 $313 #
plane-surface $-1 0 0 8.2133169796969625 0 0 1 1 0 0 forward_v I I I I #
coedge $-1 $666 $667 $668 $669 reversed $314 $-1 #
coedge $-1 $670 $316 $318 $491 forward $197 $-1 #
coedge $-1 $316 $670 $666 $671 forward $197 $-1 #
coedge $-1 $668 $319 $316 $488 forward $482 $-1 #
edge $-1 $494 -3.9642051045652078 $672 2.4354741002283458 $487 $673 forward 7 unknown #
coedge $-1 $674 $675 $317 $490 forward $664 $-1 #
edge $-1 $676 -32.426007576557829 $493 -28.409341555858212 $489 $677 forward 7 unknown #
edge $-1 $494 -4.7893250769540225 $676 2.636201369357039e-014 $318 $678 forward 7 unknown #
coedge $-1 $319 $668 $674 $679 forward $482 $-1 #
vertex $-1 $490 $680 #
vertex $-1 $320 $681 #
straight-curve $-1 -84.85750541379133 -4.7285706067336388 8.2133169796969625 1 0 0 I I #
coedge $-1 $496 $496 $-1 $682 reversed $323 $-1 #
edge $-1 $683 0 $683 6.2831853071796004 $324 $684 forward 7 unknown #
vertex $-1 $327 $685 #
ellipse-curve $-1 -62.085158997777086 -3.4486347657749263 6.2049839693471602 -0.83867057594974714 0 0.54463902268945019 0.2723195113447251 0 0.41933528797487357 1 I I #
coedge $-1 $500 $500 $-1 $686 reversed $330 $-1 #
edge $-1 $687 0 $687 6.2831853071796004 $331 $688 forward 7 unknown #
vertex $-1 $334 $689 #
ellipse-curve $-1 -62.085158997777086 -1.528731004336862 6.2049839693471602 -0.83867057594974714 0 0.54463902268945019 0.2723195113447251 0 0.41933528797487357 1 I I #
coedge $-1 $504 $504 $-1 $690 reversed $337 $-1 #
edge $-1 $691 0 $691 6.2831853071796004 $338 $692 forward 7 unknown #
vertex $-1 $341 $693 #
ellipse-curve $-1 -62.085158997777086 0.3911727571012058 6.2049839693471602 -0.83867057594974714 0 0.54463902268945019 0.2723195113447251 0 0.41933528797487357 1 I I #
face $-1 $-1 $694 $72 $-1 $695 reversed single #
loop $-1 $-1 $348 $342 #
plane-surface $-1 0 0 8.2133169796969625 0 0 1 1 0 0 forward_v I I I I #
coedge $-1 $696 $697 $698 $699 reversed $343 $-1 #
coedge $-1 $700 $345 $347 $518 forward $216 $-1 #
coedge $-1 $345 $700 $696 $701 forward $216 $-1 #
coedge $-1 $698 $348 $345 $515 forward $509 $-1 #
edge $-1 $521 2.0408822709889254 $702 8.440561475782479 $514 $703 forward 7 unknown #
coedge $-1 $704 $705 $346 $517 forward $694 $-1 #
edge $-1 $706 -32.426007576557829 $520 -28.409341555858212 $516 $707 forward 7 unknown #
edge $-1 $521 -4.7893250769540225 $706 2.636201369357039e-014 $347 $708 forward 7 unknown #
coedge $-1 $348 $698 $704 $709 forward $509 $-1 #
vertex $-1 $349 $710 #
vertex $-1 $349 $711 #
straight-curve $-1 -84.85750541379133 7.2816041443746276 8.2133169796969625 1 0 0 I I #
coedge $-1 $523 $523 $-1 $712 reversed $352 $-1 #
edge $-1 $713 0 $713 6.2831853071796004 $353 $714 forward 7 unknown #
vertex $-1 $356 $715 #
ellipse-curve $-1 -62.085158997777086 8.56153998533334 6.2049839693471602 -0.83867057594974714 0 0.54463902268945019 0.2723195113447251 0 0.41933528797487357 1 I I #
coedge $-1 $527 $527 $-1 $716 reversed $359 $-1 #
edge $-1 $717 0 $717 6.2831853071796004 $360 $718 forward 7 unknown #
vertex $-1 $363 $719 #
ellipse-curve $-1 -62.085158997777086 10.481443746771404 6.2049839693471602 -0.83867057594974714 0 0.54463902268945019 0.2723195113447251 0 0.41933528797487357 1 I I #
coedge $-1 $531 $531 $-1 $720 reversed $366 $-1 #
edge $-1 $721 0 $721 6.2831853071796004 $367 $722 forward 7 unknown #
vertex $-1 $370 $723 #
ellipse-curve $-1 -62.085158997777086 12.401347508209469 6.2049839693471602 -0.83867057594974714 0 0.54463902268945019 0.2723195113447251 0 0.41933528797487357 1 I I #
face $-1 $-1 $724 $76 $-1 $725 reversed single #
loop $-1 $-1 $377 $371 #
plane-surface $-1 0 0 8.2133169796969625 0 0 1 1 0 0 forward_v I I I I #
coedge $-1 $726 $727 $728 $729 reversed $372 $-1 #
coedge $-1 $730 $374 $376 $545 forward $235 $-1 #
coedge $-1 $374 $730 $726 $731 forward $235 $-1 #
coedge $-1 $728 $377 $374 $542 forward $536 $-1 #
edge $-1 $548 8.0459696465430568 $732 14.445648851336614 $541 $733 forward 7 unknown #
coedge $-1 $734 $735 $375 $544 forward $724 $-1 #
edge $-1 $736 -32.426007576557829 $547 -28.409341555858212 $543 $737 forward 7 unknown #
edge $-1 $548 -4.7893250769540225 $736 2.636201369357039e-014 $376 $738 forward 7 unknown #
coedge $-1 $377 $728 $734 $739 forward $536 $-1 #
vertex $-1 $378 $740 #
vertex $-1 $378 $741 #
straight-curve $-1 -84.85750541379133 19.291778895482892 8.2133169796969625 1 0 0 I I #
coedge $-1 $550 $550 $-1 $742 reversed $381 $-1 #
edge $-1 $743 0 $743 6.2831853071796004 $382 $744 forward 7 unknown #
vertex $-1 $385 $745 #
ellipse-curve $-1 -62.085158997777086 20.571714736441606 6.2049839693471602 -0.83867057594974714 0 0.54463902268945019 0.2723195113447251 0 0.41933528797487357 1 I I #
coedge $-1 $554 $554 $-1 $746 reversed $388 $-1 #
edge $-1 $747 0 $747 6.2831853071796004 $389 $748 forward 7 unknown #
vertex $-1 $392 $749 #
ellipse-curve $-1 -62.085158997777086 22.491618497879671 6.2049839693471602 -0.83867057594974714 0 0.54463902268945019 0.2723195113447251 0 0.41933528797487357 1 I I #
coedge $-1 $558 $558 $-1 $750 reversed $395 $-1 #
edge $-1 $751 0 $751 6.2831853071796004 $396 $752 forward 7 unknown #
vertex $-1 $399 $753 #
ellipse-curve $-1 -62.085158997777086 24.411522259317735 6.2049839693471602 -0.83867057594974714 0 0.54463902268945019 0.2723195113447251 0 0.41933528797487357 1 I I #
face $-1 $-1 $415 $60 $-1 $754 reversed single #
loop $-1 $-1 $578 $400 #
plane-surface $-1 0 28.989999081557443 0 0 -1 0 0 0 -1 forward_v I I I I #
coedge $-1 $755 $576 $579 $756 forward $401 $-1 #
coedge $-1 $582 $403 $404 $570 reversed $254 $-1 #
coedge $-1 $576 $755 $403 $568 reversed $401 $-1 #
edge $-1 $583 -8.2133169796969625 $757 8.2133169796969625 $567 $758 forward 7 unknown #
coedge $-1 $405 $404 $755 $759 forward $161 $-1 #
edge $-1 $574 -63.389385662404251 $757 63.389385662404251 $566 $760 forward 7 unknown #
coedge $-1 $579 $578 $405 $572 reversed $563 $-1 #
edge $-1 $761 -63.389385662404251 $573 63.389385662404251 $571 $762 forward 7 unknown #
vertex $-1 $407 $763 #
vertex $-1 $585 $764 #
straight-curve $-1 63.389385662404251 0 -8.2133169796969625 0 -1 0 I I #
coedge $-1 $565 $567 $408 $577 reversed $401 $-1 #
edge $-1 $580 -28.989999081557443 $583 28.989999081557443 $576 $765 forward 7 unknown #
coedge $-1 $571 $409 $414 $586 forward $563 $-1 #
coedge $-1 $409 $571 $565 $756 reversed $563 $-1 #
vertex $-1 $410 $766 #
straight-curve $-1 0 28.989999081557443 8.2133169796969625 -1 0 0 I I #
coedge $-1 $411 $566 $413 $585 reversed $254 $-1 #
vertex $-1 $577 $767 #
straight-curve $-1 0 -28.989999081557443 8.2133169796969625 1 0 0 I I #
edge $-1 $416 -8.2133169796969625 $574 8.2133169796969625 $413 $768 forward 7 unknown #
edge $-1 $417 -8.2133169796969625 $573 8.2133169796969625 $414 $769 forward 7 unknown #
point $-1 63.389385662404251 -28.989999081557443 8.2133169796969625 #
point $-1 63.389385662404251 28.989999081557443 8.2133169796969625 #
face $-1 $-1 $770 $61 $-1 $771 reversed single #
loop $-1 $-1 $772 $419 #
plane-surface $-1 0 0 -8.2133169796969625 0 0 1 1 0 0 forward_v I I I I #
coedge $-1 $599 $609 $594 $773 forward $420 $-1 #
coedge $-1 $425 $422 $772 $774 reversed $262 $-1 #
coedge $-1 $422 $425 $592 $773 reversed $262 $-1 #
coedge $-1 $775 $776 $422 $596 forward $770 $-1 #
edge $-1 $777 -8.2133169796969625 $778 8.2133169796969625 $595 $779 forward 7 unknown #
coedge $-1 $772 $428 $423 $598 forward $590 $-1 #
edge $-1 $433 -31.30908331195398 $602 -26.643482119599124 $597 $780 forward 7 unknown #
coedge $-1 $430 $592 $424 $600 forward $420 $-1 #
edge $-1 $601 26.643482119599124 $432 31.30908331195398 $599 $781 forward 7 unknown #
vertex $-1 $600 $782 #
vertex $-1 $598 $783 #
straight-curve $-1 -55.619764835375676 -19.050699922875609 0 0 0 -1 I I #
coedge $-1 $776 $775 $427 $605 forward $770 $-1 #
edge $-1 $610 -8.2133169796969625 $607 8.2133169796969625 $604 $784 forward 7 unknown #
coedge $-1 $428 $772 $776 $785 forward $590 $-1 #
vertex $-1 $429 $786 #
straight-curve $-1 -60.285366027730532 -12.010174751108263 -8.2133169796969625 0 1 0 I I #
coedge $-1 $592 $430 $775 $787 forward $420 $-1 #
vertex $-1 $787 $788 #
straight-curve $-1 -60.285366027730532 -12.010174751108263 8.2133169796969625 0 -1 0 I I #
point $-1 -60.285366027730532 -19.050699922875609 8.2133169796969625 #
point $-1 -60.285366027730532 -19.050699922875609 -8.2133169796969625 #
loop $-1 $-1 $442 $435 #
plane-surface $-1 0 0 8.2133169796969625 0 0 1 1 0 0 forward_v I I I I #
coedge $-1 $789 $790 $439 $618 forward $436 $-1 #
coedge $-1 $439 $438 $623 $791 reversed $169 $-1 #
edge $-1 $620 -88.661907802299552 $792 -76.824797833691676 $616 $793 forward 7 unknown #
coedge $-1 $445 $440 $790 $794 reversed $270 $-1 #
vertex $-1 $618 $795 #
straight-curve $-1 63.389385662404251 11.15156340807205 1.2556382214962696 0 1 0 I I #
coedge $-1 $796 $442 $445 $627 forward $614 $-1 #
coedge $-1 $442 $796 $617 $791 forward $614 $-1 #
vertex $-1 $443 $797 #
straight-curve $-1 17.670949433425172 15.616254550730758 8.2133169796969696 1 0 0 I I #
straight-curve $-1 -39.176794173655509 15.616254550730758 75.774331262002121 -0.80901698891910034 0 0.5877852598018023 I I #
edge $-1 $446 15.616254550730758 $798 28.989999081557443 $445 $799 forward 7 unknown #
point $-1 63.389385662404251 15.616254550730758 8.2133169796969625 #
point $-1 63.389385662404251 15.616254550730758 1.2556382214962696 #
edge $-1 $800 1 $800 0 $449 $-1 forward 7 unknown #
vertex $-1 $450 $801 #
ellipse-curve $-1 54.380320952942739 22.303126816144101 -1.0750282882148852 0.5877852598018023 0 0.80901698891910034 1.6180339778382007 0 -1.1755705196036046 1 I I #
point $-1 60.219208108088729 22.303126816144101 3.5589070809930128 #
plane-surface $-1 0 0 8.2133169796969625 0 0 1 1 0 0 forward_v I I I I #
coedge $-1 $645 $644 $637 $802 forward $454 $-1 #
coedge $-1 $637 $456 $458 $641 reversed $285 $-1 #
coedge $-1 $456 $636 $635 $802 reversed $285 $-1 #
coedge $-1 $464 $459 $456 $639 forward $465 $-1 #
edge $-1 $642 -24.07657308064141 $803 -21.468119751387079 $638 $804 forward 7 unknown #
coedge $-1 $458 $457 $645 $805 reversed $178 $-1 #
edge $-1 $806 -2.636201369357039e-014 $642 4.7893250769540225 $636 $807 forward 7 unknown #
vertex $-1 $460 $808 #
straight-curve $-1 -60.78093233314992 -6.7694528777225615 8.2133169796969643 0 1 0 I I #
coedge $-1 $635 $461 $464 $649 reversed $454 $-1 #
coedge $-1 $461 $635 $640 $805 forward $454 $-1 #
vertex $-1 $462 $809 #
straight-curve $-1 -63.389385662404251 -16.7387453578419 36.622658535555175 0 0 1 I I #
straight-curve $-1 -63.389385662404237 -16.7387453578419 4.1966509589973668 -0.54463902268945019 0 -0.83867057594974714 I I #
edge $-1 $803 10.339066153048346 $466 16.7387453578419 $644 $810 forward 7 unknown #
point $-1 -63.389385662404251 -16.7387453578419 8.2133169796969625 #
point $-1 -60.78093233314992 -16.7387453578419 8.2133169796969625 #
edge $-1 $811 1 $811 0 $469 $-1 forward 7 unknown #
vertex $-1 $470 $812 #
ellipse-curve $-1 -61.246488421827344 -15.458809516883189 5.6603449466577151 -0.83867057594974714 0 0.54463902268945019 0.2723195113447251 0 0.41933528797487357 1 I I #
point $-1 -61.812839486432367 -15.458809516883189 6.6243192573220391 #
edge $-1 $813 1 $813 0 $473 $-1 forward 7 unknown #
vertex $-1 $474 $814 #
ellipse-curve $-1 -61.246488421827344 -13.538905755445123 5.6603449466577151 -0.83867057594974714 0 0.54463902268945019 0.2723195113447251 0 0.41933528797487357 1 I I #
point $-1 -61.812839486432367 -13.538905755445123 6.6243192573220391 #
edge $-1 $815 1 $815 0 $477 $-1 forward 7 unknown #
vertex $-1 $478 $816 #
ellipse-curve $-1 -61.246488421827344 -11.619001994007057 5.6603449466577151 -0.83867057594974714 0 0.54463902268945019 0.2723195113447251 0 0.41933528797487357 1 I I #
point $-1 -61.812839486432367 -11.619001994007057 6.6243192573220391 #
loop $-1 $-1 $489 $481 #
plane-surface $-1 -63.389385662404251 0 0 1 0 0 0 0 -1 forward_v I I I I #
coedge $-1 $667 $484 $486 $671 reversed $314 $-1 #
coedge $-1 $484 $666 $817 $818 reversed $314 $-1 #
coedge $-1 $492 $487 $484 $669 forward $482 $-1 #
edge $-1 $672 -24.07657308064141 $819 -21.468119751387079 $668 $820 forward 7 unknown #
coedge $-1 $486 $485 $675 $821 reversed $197 $-1 #
edge $-1 $822 -2.636201369357039e-014 $672 4.7893250769540225 $666 $823 forward 7 unknown #
vertex $-1 $488 $824 #
straight-curve $-1 -60.78093233314992 -0.76436550216843102 8.2133169796969643 0 1 0 I I #
coedge $-1 $817 $489 $492 $679 reversed $664 $-1 #
coedge $-1 $489 $817 $670 $821 forward $664 $-1 #
vertex $-1 $490 $825 #
straight-curve $-1 -63.389385662404251 -4.7285706067336388 36.622658535555175 0 0 1 I I #
straight-curve $-1 -63.389385662404237 -4.7285706067336388 4.1966509589973668 -0.54463902268945019 0 -0.83867057594974714 I I #
edge $-1 $819 -1.6711085980599147 $493 4.7285706067336388 $674 $826 forward 7 unknown #
point $-1 -63.389385662404251 -4.7285706067336388 8.2133169796969625 #
point $-1 -60.78093233314992 -4.7285706067336388 8.2133169796969625 #
edge $-1 $827 1 $827 0 $496 $-1 forward 7 unknown #
vertex $-1 $497 $828 #
ellipse-curve $-1 -61.246488421827344 -3.4486347657749263 5.6603449466577151 -0.83867057594974714 0 0.54463902268945019 0.2723195113447251 0 0.41933528797487357 1 I I #
point $-1 -61.812839486432367 -3.4486347657749263 6.6243192573220391 #
edge $-1 $829 1 $829 0 $500 $-1 forward 7 unknown #
vertex $-1 $501 $830 #
ellipse-curve $-1 -61.246488421827344 -1.528731004336862 5.6603449466577151 -0.83867057594974714 0 0.54463902268945019 0.2723195113447251 0 0.41933528797487357 1 I I #
point $-1 -61.812839486432367 -1.528731004336862 6.6243192573220391 #
edge $-1 $831 1 $831 0 $504 $-1 forward 7 unknown #
vertex $-1 $505 $832 #
ellipse-curve $-1 -61.246488421827344 0.3911727571012058 5.6603449466577151 -0.83867057594974714 0 0.54463902268945019 0.2723195113447251 0 0.41933528797487357 1 I I #
point $-1 -61.812839486432367 0.3911727571012058 6.6243192573220391 #
loop $-1 $-1 $516 $508 #
plane-surface $-1 -63.389385662404251 0 0 1 0 0 0 0 -1 forward_v I I I I #
coedge $-1 $697 $511 $513 $701 reversed $343 $-1 #
coedge $-1 $511 $696 $833 $834 reversed $343 $-1 #
coedge $-1 $519 $514 $511 $699 forward $509 $-1 #
edge $-1 $702 -24.07657308064141 $835 -21.468119751387079 $698 $836 forward 7 unknown #
coedge $-1 $513 $512 $705 $837 reversed $216 $-1 #
edge $-1 $838 -2.636201369357039e-014 $702 4.7893250769540225 $696 $839 forward 7 unknown #
vertex $-1 $515 $840 #
straight-curve $-1 -60.78093233314992 5.2407218733857022 8.2133169796969643 0 1 0 I I #
coedge $-1 $833 $516 $519 $709 reversed $694 $-1 #
coedge $-1 $516 $833 $700 $837 forward $694 $-1 #
vertex $-1 $517 $841 #
straight-curve $-1 -63.389385662404251 7.2816041443746276 36.622658535555175 0 0 1 I I #
straight-curve $-1 -63.389385662404237 7.2816041443746276 4.1966509589973668 -0.54463902268945019 0 -0.83867057594974714 I I #
edge $-1 $835 -13.681283349168181 $520 -7.2816041443746276 $704 $842 forward 7 unknown #
point $-1 -63.389385662404251 7.2816041443746276 8.2133169796969625 #
point $-1 -60.78093233314992 7.2816041443746276 8.2133169796969625 #
edge $-1 $843 1 $843 0 $523 $-1 forward 7 unknown #
vertex $-1 $524 $844 #
ellipse-curve $-1 -61.246488421827344 8.56153998533334 5.6603449466577151 -0.83867057594974714 0 0.54463902268945019 0.2723195113447251 0 0.41933528797487357 1 I I #
point $-1 -61.812839486432367 8.56153998533334 6.6243192573220391 #
edge $-1 $845 1 $845 0 $527 $-1 forward 7 unknown #
vertex $-1 $528 $846 #
ellipse-curve $-1 -61.246488421827344 10.481443746771404 5.6603449466577151 -0.83867057594974714 0 0.54463902268945019 0.2723195113447251 0 0.41933528797487357 1 I I #
point $-1 -61.812839486432367 10.481443746771404 6.6243192573220391 #
edge $-1 $847 1 $847 0 $531 $-1 forward 7 unknown #
vertex $-1 $532 $848 #
ellipse-curve $-1 -61.246488421827344 12.401347508209469 5.6603449466577151 -0.83867057594974714 0 0.54463902268945019 0.2723195113447251 0 0.41933528797487357 1 I I #
point $-1 -61.812839486432367 12.401347508209469 6.6243192573220391 #
loop $-1 $-1 $543 $535 #
plane-surface $-1 -63.389385662404251 0 0 1 0 0 0 0 -1 forward_v I I I I #
coedge $-1 $727 $538 $540 $731 reversed $372 $-1 #
coedge $-1 $538 $726 $849 $850 reversed $372 $-1 #
coedge $-1 $546 $541 $538 $729 forward $536 $-1 #
edge $-1 $732 -24.07657308064141 $851 -21.468119751387079 $728 $852 forward 7 unknown #
coedge $-1 $540 $539 $735 $853 reversed $235 $-1 #
edge $-1 $854 -2.636201369357039e-014 $732 4.7893250769540225 $726 $855 forward 7 unknown #
vertex $-1 $542 $856 #
straight-curve $-1 -60.78093233314992 11.245809248939835 8.2133169796969643 0 1 0 I I #
coedge $-1 $849 $543 $546 $739 reversed $724 $-1 #
coedge $-1 $543 $849 $730 $853 forward $724 $-1 #
vertex $-1 $544 $857 #
straight-curve $-1 -63.389385662404251 19.291778895482892 36.622658535555175 0 0 1 I I #
straight-curve $-1 -63.389385662404237 19.291778895482892 4.1966509589973668 -0.54463902268945019 0 -0.83867057594974714 I I #
edge $-1 $851 -25.691458100276449 $547 -19.291778895482892 $734 $858 forward 7 unknown #
point $-1 -63.389385662404251 19.291778895482892 8.2133169796969625 #
point $-1 -60.78093233314992 19.291778895482892 8.2133169796969625 #
edge $-1 $859 1 $859 0 $550 $-1 forward 7 unknown #
vertex $-1 $551 $860 #
ellipse-curve $-1 -61.246488421827344 20.571714736441606 5.6603449466577151 -0.83867057594974714 0 0.54463902268945019 0.2723195113447251 0 0.41933528797487357 1 I I #
point $-1 -61.812839486432367 20.571714736441606 6.6243192573220391 #
edge $-1 $861 1 $861 0 $554 $-1 forward 7 unknown #
vertex $-1 $555 $862 #
ellipse-curve $-1 -61.246488421827344 22.491618497879671 5.6603449466577151 -0.83867057594974714 0 0.54463902268945019 0.2723195113447251 0 0.41933528797487357 1 I I #
point $-1 -61.812839486432367 22.491618497879671 6.6243192573220391 #
edge $-1 $863 1 $863 0 $558 $-1 forward 7 unknown #
vertex $-1 $559 $864 #
ellipse-curve $-1 -61.246488421827344 24.411522259317735 5.6603449466577151 -0.83867057594974714 0 0.54463902268945019 0.2723195113447251 0 0.41933528797487357 1 I I #
point $-1 -61.812839486432367 24.411522259317735 6.6243192573220391 #
plane-surface $-1 63.389385662404251 0 0 -1 0 0 0 0 1 forward_v I I I I #
coedge $-1 $567 $565 $569 $759 reversed $401 $-1 #
edge $-1 $580 -8.2133169796969625 $761 8.2133169796969625 $579 $865 forward 7 unknown #
vertex $-1 $759 $866 #
straight-curve $-1 -63.389385662404251 -28.989999081557443 0 0 0 -1 I I #
edge $-1 $757 -28.989999081557443 $761 28.989999081557443 $755 $867 forward 7 unknown #
straight-curve $-1 0 -28.989999081557443 -8.2133169796969625 -1 0 0 I I #
vertex $-1 $572 $868 #
straight-curve $-1 0 28.989999081557443 -8.2133169796969625 1 0 0 I I #
point $-1 63.389385662404251 28.989999081557443 -8.2133169796969625 #
point $-1 63.389385662404251 -28.989999081557443 -8.2133169796969625 #
straight-curve $-1 -63.389385662404251 0 8.2133169796969625 0 -1 0 I I #
point $-1 -63.389385662404251 28.989999081557443 8.2133169796969625 #
point $-1 -63.389385662404251 -28.989999081557443 8.2133169796969625 #
straight-curve $-1 63.389385662404251 -28.989999081557443 0 0 0 -1 I I #
straight-curve $-1 63.389385662404251 28.989999081557443 0 0 0 -1 I I #
loop $-1 $-1 $595 $589 #
plane-surface $-1 0 -28.989999081557443 0 0 1 0 0 0 1 forward_v I I I I #
coedge $-1 $606 $597 $593 $774 forward $590 $-1 #
edge $-1 $778 -16.97982433044918 $601 -7.0405251717673458 $592 $869 forward 7 unknown #
edge $-1 $602 7.0405251717673458 $777 16.97982433044918 $772 $870 forward 7 unknown #
coedge $-1 $604 $595 $609 $787 reversed $770 $-1 #
coedge $-1 $595 $604 $606 $785 reversed $770 $-1 #
vertex $-1 $785 $871 #
vertex $-1 $596 $872 #
straight-curve $-1 -55.619764835375676 -28.989999081557443 0 0 0 1 I I #
straight-curve $-1 -28.976282715776552 -19.050699922875609 -8.2133169796969625 1 0 0 I I #
straight-curve $-1 -28.976282715776552 -19.050699922875609 8.2133169796969625 -1 0 0 I I #
point $-1 -55.619764835375676 -19.050699922875609 8.2133169796969625 #
point $-1 -55.619764835375676 -19.050699922875609 -8.2133169796969625 #
straight-curve $-1 -60.285366027730532 -28.989999081557443 0 0 0 -1 I I #
edge $-1 $777 55.619764835375676 $607 60.285366027730532 $776 $873 forward 7 unknown #
point $-1 -60.285366027730532 -28.989999081557443 -8.2133169796969625 #
edge $-1 $610 -60.285366027730532 $778 -55.619764835375676 $775 $874 forward 7 unknown #
point $-1 -60.285366027730532 -28.989999081557443 8.2133169796969625 #
coedge $-1 $790 $616 $796 $875 reversed $436 $-1 #
coedge $-1 $616 $789 $619 $794 forward $436 $-1 #
edge $-1 $792 -17.838435673485392 $624 -4.4646911426587081 $623 $876 forward 7 unknown #
vertex $-1 $618 $877 #
straight-curve $-1 -8.3396040196350327 28.989999081557443 53.36980073359436 -0.80901698891910034 0 0.5877852598018023 I I #
edge $-1 $798 -8.2133169796969625 $620 -1.2556382214962754 $619 $878 forward 7 unknown #
point $-1 63.389385662404251 28.989999081557443 1.2556382214962754 #
coedge $-1 $623 $622 $789 $875 forward $614 $-1 #
point $-1 53.812962598096831 15.616254550730758 8.2133169796969554 #
vertex $-1 $627 $879 #
straight-curve $-1 63.389385662404251 0 8.2133169796969625 0 1 0 I I #
vertex $-1 $630 $880 #
point $-1 55.998354930780934 22.303126816144101 -2.2505988078184895 #
edge $-1 $803 28.409341555858212 $806 32.426007576557829 $635 $881 forward 7 unknown #
vertex $-1 $649 $882 #
straight-curve $-1 -84.85750541379133 -10.339066153048346 8.2133169796969625 -1 0 0 I I #
edge $-1 $806 3.5696132753257848 $646 9.9692924801193392 $645 $883 forward 7 unknown #
vertex $-1 $805 $884 #
straight-curve $-1 -63.389385662404237 -10.339066153048346 4.1966509589973668 0.54463902268945019 0 0.83867057594974714 I I #
point $-1 -60.78093233314992 -10.339066153048346 8.2133169796969625 #
point $-1 -63.389385662404251 -16.7387453578419 4.1966509589973446 #
straight-curve $-1 -63.389385662404251 0 8.2133169796969625 0 -1 0 I I #
vertex $-1 $652 $885 #
point $-1 -60.974168910482618 -15.458809516883189 6.0796802346325887 #
vertex $-1 $656 $886 #
point $-1 -60.974168910482618 -13.538905755445123 6.0796802346325887 #
vertex $-1 $660 $887 #
point $-1 -60.974168910482618 -11.619001994007057 6.0796802346325887 #
coedge $-1 $675 $674 $667 $818 forward $664 $-1 #
edge $-1 $819 28.409341555858212 $822 32.426007576557829 $817 $888 forward 7 unknown #
vertex $-1 $679 $889 #
straight-curve $-1 -84.85750541379133 1.6711085980599147 8.2133169796969625 -1 0 0 I I #
edge $-1 $822 -2.4354741002283458 $676 3.9642051045652078 $675 $890 forward 7 unknown #
vertex $-1 $821 $891 #
straight-curve $-1 -63.389385662404237 1.6711085980599147 4.1966509589973668 0.54463902268945019 0 0.83867057594974714 I I #
point $-1 -60.78093233314992 1.6711085980599147 8.2133169796969625 #
point $-1 -63.389385662404251 -4.7285706067336388 4.1966509589973446 #
straight-curve $-1 -63.389385662404251 0 8.2133169796969625 0 -1 0 I I #
vertex $-1 $682 $892 #
point $-1 -60.974168910482618 -3.4486347657749263 6.0796802346325887 #
vertex $-1 $686 $893 #
point $-1 -60.974168910482618 -1.528731004336862 6.0796802346325887 #
vertex $-1 $690 $894 #
point $-1 -60.974168910482618 0.3911727571012058 6.0796802346325887 #
coedge $-1 $705 $704 $697 $834 forward $694 $-1 #
edge $-1 $835 28.409341555858212 $838 32.426007576557829 $833 $895 forward 7 unknown #
vertex $-1 $709 $896 #
straight-curve $-1 -84.85750541379133 13.681283349168181 8.2133169796969625 -1 0 0 I I #
edge $-1 $838 -8.440561475782479 $706 -2.0408822709889254 $705 $897 forward 7 unknown #
vertex $-1 $837 $898 #
straight-curve $-1 -63.389385662404237 13.681283349168181 4.1966509589973668 0.54463902268945019 0 0.83867057594974714 I I #
point $-1 -60.78093233314992 13.681283349168181 8.2133169796969625 #
point $-1 -63.389385662404251 7.2816041443746276 4.1966509589973446 #
straight-curve $-1 -63.389385662404251 0 8.2133169796969625 0 -1 0 I I #
vertex $-1 $712 $899 #
point $-1 -60.974168910482618 8.56153998533334 6.0796802346325887 #
vertex $-1 $716 $900 #
point $-1 -60.974168910482618 10.481443746771404 6.0796802346325887 #
vertex $-1 $720 $901 #
point $-1 -60.974168910482618 12.401347508209469 6.0796802346325887 #
coedge $-1 $735 $734 $727 $850 forward $724 $-1 #
edge $-1 $851 28.409341555858212 $854 32.426007576557829 $849 $902 forward 7 unknown #
vertex $-1 $739 $903 #
straight-curve $-1 -84.85750541379133 25.691458100276449 8.2133169796969625 -1 0 0 I I #
edge $-1 $854 -14.445648851336614 $736 -8.0459696465430568 $735 $904 forward 7 unknown #
vertex $-1 $853 $905 #
straight-curve $-1 -63.389385662404237 25.691458100276449 4.1966509589973668 0.54463902268945019 0 0.83867057594974714 I I #
point $-1 -60.78093233314992 25.691458100276449 8.2133169796969625 #
point $-1 -63.389385662404251 19.291778895482892 4.1966509589973446 #
straight-curve $-1 -63.389385662404251 0 8.2133169796969625 0 -1 0 I I #
vertex $-1 $742 $906 #
point $-1 -60.974168910482618 20.571714736441606 6.0796802346325887 #
vertex $-1 $746 $907 #
point $-1 -60.974168910482618 22.491618497879671 6.0796802346325887 #
vertex $-1 $750 $908 #
point $-1 -60.974168910482618 24.411522259317735 6.0796802346325887 #
straight-curve $-1 -63.389385662404251 28.989999081557443 0 0 0 -1 I I #
point $-1 -63.389385662404251 -28.989999081557443 -8.2133169796969625 #
straight-curve $-1 -63.389385662404251 0 -8.2133169796969625 0 1 0 I I #
point $-1 -63.389385662404251 28.989999081557443 -8.2133169796969625 #
straight-curve $-1 -55.619764835375676 -12.010174751108263 8.2133169796969625 0 1 0 I I #
straight-curve $-1 -55.619764835375676 -12.010174751108263 -8.2133169796969625 0 -1 0 I I #
point $-1 -55.619764835375676 -28.989999081557443 -8.2133169796969625 #
point $-1 -55.619764835375676 -28.989999081557443 8.2133169796969625 #
straight-curve $-1 0 -28.989999081557443 -8.2133169796969625 -1 0 0 I I #
straight-curve $-1 0 -28.989999081557443 8.2133169796969625 1 0 0 I I #
edge $-1 $798 -63.389385662404251 $792 -53.812962598096831 $789 $909 forward 7 unknown #
straight-curve $-1 53.812962598096824 11.15156340807205 8.2133169796969625 0 -1 0 I I #
point $-1 53.812962598096831 28.989999081557443 8.2133169796969554 #
straight-curve $-1 63.389385662404251 28.989999081557443 0 0 0 -1 I I #
point $-1 63.389385662404251 28.989999081557443 8.2133169796969625 #
point $-1 53.204750433339129 22.303126816144101 -2.6930622660530856 #
straight-curve $-1 -63.389385662404251 -10.339066153048346 36.622658535555175 0 0 -1 I I #
point $-1 -63.389385662404251 -10.339066153048346 8.2133169796969625 #
straight-curve $-1 -63.389385662404251 -6.7694528777225615 4.1966509589973437 0 -1 0 I I #
point $-1 -63.389385662404251 -10.339066153048346 4.1966509589973446 #
point $-1 -60.82715313385247 -15.458809516883189 5.3880254353129908 #
point $-1 -60.82715313385247 -13.538905755445123 5.3880254353129908 #
point $-1 -60.82715313385247 -11.619001994007057 5.3880254353129908 #
straight-curve $-1 -63.389385662404251 1.6711085980599147 36.622658535555175 0 0 -1 I I #
point $-1 -63.389385662404251 1.6711085980599147 8.2133169796969625 #
straight-curve $-1 -63.389385662404251 -0.76436550216843102 4.1966509589973437 0 -1 0 I I #
point $-1 -63.389385662404251 1.6711085980599147 4.1966509589973446 #
point $-1 -60.82715313385247 -3.4486347657749263 5.3880254353129908 #
point $-1 -60.82715313385247 -1.528731004336862 5.3880254353129908 #
point $-1 -60.82715313385247 0.3911727571012058 5.3880254353129908 #
straight-curve $-1 -63.389385662404251 13.681283349168181 36.622658535555175 0 0 -1 I I #
point $-1 -63.389385662404251 13.681283349168181 8.2133169796969625 #
straight-curve $-1 -63.389385662404251 5.2407218733857022 4.1966509589973437 0 -1 0 I I #
point $-1 -63.389385662404251 13.681283349168181 4.1966509589973446 #
point $-1 -60.82715313385247 8.56153998533334 5.3880254353129908 #
point $-1 -60.82715313385247 10.481443746771404 5.3880254353129908 #
point $-1 -60.82715313385247 12.401347508209469 5.3880254353129908 #
straight-curve $-1 -63.389385662404251 25.691458100276449 36.622658535555175 0 0 -1 I I #
point $-1 -63.389385662404251 25.691458100276449 8.2133169796969625 #
straight-curve $-1 -63.389385662404251 11.245809248939835 4.1966509589973437 0 -1 0 I I #
point $-1 -63.389385662404251 25.691458100276449 4.1966509589973446 #
point $-1 -60.82715313385247 20.571714736441606 5.3880254353129908 #
point $-1 -60.82715313385247 22.491618497879671 5.3880254353129908 #
point $-1 -60.82715313385247 24.411522259317735 5.3880254353129908 #
straight-curve $-1 0 28.989999081557443 8.2133169796969625 -1 0 0 I I #
End-of-ACIS-data 