500 0 7 0           
7 Unknown 11 ACIS 5.0 NT 24 Fri Mar 26 16:04:57 1999 
-1 9.9999999999999995e-007 1e-010 
body $-1 $7 $-1 $8 #
body $-1 $9 $-1 $10 #
body $-1 $11 $-1 $12 #
body $-1 $13 $-1 $14 #
body $-1 $15 $-1 $16 #
body $-1 $17 $-1 $18 #
body $-1 $19 $-1 $20 #
lump $-1 $-1 $21 $0 #
transform $-1 1 0 0 0 1 0 0 0 1 77.714774010437338 41.617854105372722 18.804685780117062 1 rotate no_reflect no_shear #
lump $-1 $-1 $22 $1 #
transform $-1 1 0 0 0 1 0 0 0 1 77.714774010437338 41.617854105372722 18.804685780117062 1 rotate no_reflect no_shear #
lump $-1 $-1 $23 $2 #
transform $-1 1 0 0 0 1 0 0 0 1 77.714774010437338 41.617854105372722 18.804685780117062 1 rotate no_reflect no_shear #
lump $-1 $-1 $24 $3 #
transform $-1 1 0 0 0 1 0 0 0 1 77.714774010437338 41.617854105372722 18.804685780117062 1 rotate no_reflect no_shear #
lump $-1 $-1 $25 $4 #
transform $-1 1 0 0 0 1 0 0 0 1 77.714774010437338 41.617854105372722 18.804685780117062 1 rotate no_reflect no_shear #
lump $-1 $-1 $26 $5 #
transform $-1 1 0 0 0 1 0 0 0 1 77.714774010437338 41.617854105372722 18.804685780117062 1 rotate no_reflect no_shear #
lump $-1 $-1 $27 $6 #
transform $-1 1 0 0 0 1 0 0 0 1 77.714774010437338 41.617854105372722 18.804685780117062 1 rotate no_reflect no_shear #
shell $-1 $-1 $-1 $28 $-1 $7 #
shell $-1 $-1 $-1 $29 $-1 $9 #
shell $-1 $-1 $-1 $30 $-1 $11 #
shell $-1 $-1 $-1 $31 $-1 $13 #
shell $-1 $-1 $-1 $32 $-1 $15 #
shell $-1 $-1 $-1 $33 $-1 $17 #
shell $-1 $-1 $-1 $34 $-1 $19 #
face $-1 $35 $36 $21 $-1 $37 forward single #
face $-1 $38 $39 $22 $-1 $40 forward single #
face $-1 $41 $42 $23 $-1 $43 reversed single #
face $-1 $44 $45 $24 $-1 $46 forward single #
face $-1 $47 $48 $25 $-1 $49 reversed single #
face $-1 $50 $51 $26 $-1 $52 forward single #
face $-1 $53 $54 $27 $-1 $55 forward single #
face $-1 $56 $57 $21 $-1 $58 reversed single #
loop $-1 $-1 $59 $28 #
plane-surface $-1 0 0 18.804685780117062 0 0 1 1 0 0 forward_v I I I I #
face $-1 $60 $61 $22 $-1 $62 reversed single #
loop $-1 $-1 $63 $29 #
plane-surface $-1 0 -41.617854105372722 0 0 1 0 0 0 1 forward_v I I I I #
face $-1 $64 $65 $23 $-1 $66 reversed single #
loop $-1 $-1 $67 $30 #
plane-surface $-1 50.926605723075085 37.810601359115047 222.89420445725631 0 -1 0 -0.61566148304635926 0 -0.78801074757464917 forward_v I I I I #
face $-1 $68 $69 $24 $-1 $70 forward single #
loop $-1 $71 $72 $31 #
cone-surface $-1 66.940756747575634 31.54235522452381 9.5086930980592239 -0.61566148304635926 0 -0.78801074757464917 1.5760214951492983 0 -1.2313229660927185 1 I I 0 1 2 forward I I I I #
face $-1 $73 $74 $25 $-1 $75 reversed single #
loop $-1 $-1 $76 $32 #
plane-surface $-1 -187.62006268793971 17.402536614294487 119.27224061945955 0 1 0 -0.70710678939079041 0 0.70710677298230451 forward_v I I I I #
face $-1 $77 $78 $26 $-1 $79 forward single #
loop $-1 $80 $81 $33 #
cone-surface $-1 -71.824338677279187 21.402154679654963 12.91425036464355 0.70710678939079041 0 -0.70710677298230451 0.70710677298230451 0 0.70710678939079041 1 I I 0 1 1 forward I I I I #
face $-1 $82 $83 $27 $-1 $84 forward single #
loop $-1 $85 $86 $34 #
cone-surface $-1 -71.824338677279187 27.401581777695675 12.91425036464355 0.70710678939079041 0 -0.70710677298230451 0.70710677298230451 0 0.70710678939079041 1 I I 0 1 1 forward I I I I #
face $-1 $87 $88 $21 $-1 $89 reversed single #
loop $-1 $-1 $90 $35 #
plane-surface $-1 0 0 -18.804685780117062 0 0 1 1 0 0 forward_v I I I I #
coedge $-1 $91 $92 $93 $94 forward $36 $-1 #
face $-1 $95 $96 $22 $-1 $97 forward single #
loop $-1 $-1 $98 $38 #
plane-surface $-1 -77.714774010437338 0 0 1 0 0 0 0 -1 forward_v I I I I #
coedge $-1 $99 $100 $101 $102 forward $39 $-1 #
face $-1 $103 $104 $23 $-1 $105 reversed single #
loop $-1 $-1 $106 $41 #
plane-surface $-1 -44.765380320681928 31.54235522452381 100.41405012613703 0.61566148304635926 0 0.78801074757464917 0.78801074757464917 0 -0.61566148304635926 forward_v I I I I #
coedge $-1 $107 $108 $109 $110 reversed $42 $-1 #
face $-1 $-1 $111 $24 $-1 $112 forward single #
loop $-1 $113 $114 $44 #
cone-surface $-1 64.563544720337603 31.54235522452381 6.4660005172952779 -0.61566148304635926 0 -0.78801074757464917 0.78801074757464917 0 -0.61566148304635926 1 I I -0.70710678118654746 0.70710678118654746 1 forward I I I I #
loop $-1 $-1 $115 $31 #
coedge $-1 $72 $72 $116 $117 reversed $45 $-1 #
face $-1 $118 $119 $25 $-1 $120 reversed single #
loop $-1 $-1 $121 $47 #
plane-surface $-1 -77.714774010437338 24.401868228675319 9.3669544923207297 -0.70710678939079041 0 0.70710677298230451 0.70710677298230451 0 0.70710678939079041 forward_v I I I I #
coedge $-1 $122 $123 $124 $125 reversed $48 $-1 #
face $-1 $-1 $126 $26 $-1 $127 forward single #
loop $-1 $128 $129 $50 #
cone-surface $-1 -70.299215483822053 21.402154679654963 11.389127206577054 0.70710678939079041 0 -0.70710677298230451 0.35355338649115226 0 0.35355339469539521 1 I I -0.70710678118654746 0.70710678118654746 0.5 forward I I I I #
loop $-1 $-1 $130 $33 #
coedge $-1 $81 $81 $131 $132 reversed $51 $-1 #
face $-1 $-1 $133 $27 $-1 $134 forward single #
loop $-1 $135 $136 $53 #
cone-surface $-1 -70.299215483822053 27.401581777695675 11.389127206577054 0.70710678939079041 0 -0.70710677298230451 0.35355338649115226 0 0.35355339469539521 1 I I -0.70710678118654746 0.70710678118654746 0.5 forward I I I I #
loop $-1 $-1 $137 $34 #
coedge $-1 $86 $86 $138 $139 reversed $54 $-1 #
face $-1 $140 $141 $21 $-1 $142 reversed single #
loop $-1 $-1 $143 $56 #
plane-surface $-1 0 -41.617854105372722 0 0 1 0 0 0 1 forward_v I I I I #
coedge $-1 $144 $145 $146 $147 forward $57 $-1 #
coedge $-1 $148 $59 $149 $150 forward $36 $-1 #
coedge $-1 $59 $148 $151 $152 forward $36 $-1 #
coedge $-1 $153 $154 $59 $94 reversed $155 $-1 #
edge $-1 $156 -41.617854105372722 $157 41.617854105372722 $93 $158 forward 7 unknown #
face $-1 $159 $160 $22 $-1 $161 reversed single #
loop $-1 $-1 $162 $60 #
plane-surface $-1 0 -49.130528944991333 -4.0815390906845721 0 0 1 1 0 0 forward_v I I I I #
coedge $-1 $163 $164 $100 $165 forward $61 $-1 #
coedge $-1 $166 $63 $167 $168 reversed $39 $-1 #
coedge $-1 $63 $166 $98 $165 reversed $39 $-1 #
coedge $-1 $169 $162 $63 $102 reversed $96 $-1 #
edge $-1 $170 -77.714774010437338 $171 77.714774010437338 $101 $172 forward 7 unknown #
face $-1 $173 $174 $23 $-1 $175 reversed single #
loop $-1 $-1 $176 $64 #
plane-surface $-1 50.926605723075085 25.274109089932573 222.89420445725631 0 1 0 0.61566148304635926 0 0.78801074757464917 forward_v I I I I #
coedge $-1 $177 $178 $179 $180 reversed $65 $-1 #
coedge $-1 $108 $67 $181 $182 reversed $42 $-1 #
coedge $-1 $67 $107 $177 $183 reversed $42 $-1 #
coedge $-1 $179 $184 $67 $110 forward $185 $-1 #
edge $-1 $186 -52.251471148899796 $187 -34.226537711559658 $109 $188 forward 7 unknown #
loop $-1 $-1 $116 $68 #
plane-surface $-1 -44.765380320681928 31.54235522452381 100.41405012613703 0.61566148304635926 0 0.78801074757464917 0.78801074757464917 0 -0.61566148304635926 forward_v I I I I #
loop $-1 $-1 $189 $44 #
coedge $-1 $114 $114 $115 $190 reversed $69 $-1 #
coedge $-1 $115 $115 $114 $190 forward $71 $-1 #
coedge $-1 $116 $116 $72 $117 forward $111 $-1 #
edge $-1 $191 0 $191 6.2831853071796004 $116 $192 forward 7 unknown #
face $-1 $193 $194 $25 $-1 $195 forward single #
loop $-1 $-1 $196 $73 #
plane-surface $-1 -187.62006268793971 31.401199843056151 119.27224061945955 0 -1 0 0.70710678939079041 0 -0.70710677298230451 forward_v I I I I #
coedge $-1 $197 $198 $199 $200 reversed $74 $-1 #
coedge $-1 $123 $76 $201 $202 reversed $48 $-1 #
coedge $-1 $76 $122 $197 $203 reversed $48 $-1 #
coedge $-1 $199 $204 $76 $125 forward $194 $-1 #
edge $-1 $205 16.095257333532516 $206 25.532988402325316 $124 $207 forward 7 unknown #
loop $-1 $-1 $131 $77 #
plane-surface $-1 -77.714774010437338 24.401868228675319 9.3669544923207297 -0.70710678939079041 0 0.70710677298230451 0.70710677298230451 0 0.70710678939079041 forward_v I I I I #
loop $-1 $-1 $208 $50 #
coedge $-1 $129 $129 $130 $209 reversed $78 $-1 #
coedge $-1 $130 $130 $129 $209 forward $80 $-1 #
coedge $-1 $131 $131 $81 $132 forward $126 $-1 #
edge $-1 $210 0 $210 6.2831853071796004 $131 $211 forward 7 unknown #
loop $-1 $-1 $138 $82 #
plane-surface $-1 -77.714774010437338 24.401868228675319 9.3669544923207297 -0.70710678939079041 0 0.70710677298230451 0.70710677298230451 0 0.70710678939079041 forward_v I I I I #
loop $-1 $-1 $212 $53 #
coedge $-1 $136 $136 $137 $213 reversed $83 $-1 #
coedge $-1 $137 $137 $136 $213 forward $85 $-1 #
coedge $-1 $138 $138 $86 $139 forward $133 $-1 #
edge $-1 $214 0 $214 6.2831853071796004 $138 $215 forward 7 unknown #
face $-1 $216 $217 $21 $-1 $218 reversed single #
loop $-1 $-1 $219 $87 #
plane-surface $-1 -77.714774010437338 0 0 1 0 0 0 0 -1 forward_v I I I I #
coedge $-1 $220 $151 $221 $222 forward $88 $-1 #
coedge $-1 $223 $90 $220 $224 forward $57 $-1 #
coedge $-1 $90 $223 $225 $226 forward $57 $-1 #
coedge $-1 $154 $153 $90 $147 reversed $155 $-1 #
edge $-1 $227 -41.617854105372722 $228 41.617854105372722 $146 $229 forward 7 unknown #
coedge $-1 $92 $91 $230 $231 forward $36 $-1 #
coedge $-1 $232 $233 $91 $150 reversed $217 $-1 #
edge $-1 $157 -77.714774010437338 $234 77.714774010437338 $149 $235 forward 7 unknown #
coedge $-1 $143 $236 $92 $152 reversed $88 $-1 #
edge $-1 $237 -77.714774010437338 $156 77.714774010437338 $151 $238 forward 7 unknown #
coedge $-1 $146 $93 $236 $239 forward $155 $-1 #
coedge $-1 $93 $146 $232 $240 reversed $155 $-1 #
loop $-1 $-1 $153 $216 #
vertex $-1 $94 $241 #
vertex $-1 $94 $242 #
straight-curve $-1 77.714774010437338 0 18.804685780117062 0 1 0 I I #
face $-1 $243 $244 $22 $-1 $245 reversed single #
loop $-1 $-1 $246 $95 #
plane-surface $-1 0 -49.130528944991333 -8.7841165686177121 0 0 1 1 0 0 forward_v I I I I #
coedge $-1 $101 $247 $248 $249 forward $96 $-1 #
coedge $-1 $250 $98 $251 $252 reversed $61 $-1 #
coedge $-1 $98 $250 $169 $253 reversed $61 $-1 #
edge $-1 $170 4.0815390906845721 $254 8.7841165686177121 $98 $255 forward 7 unknown #
coedge $-1 $100 $99 $256 $257 forward $39 $-1 #
coedge $-1 $248 $258 $99 $168 forward $259 $-1 #
edge $-1 $260 -8.7841165686177121 $171 -4.0815390906845721 $167 $261 forward 7 unknown #
coedge $-1 $247 $101 $164 $253 forward $96 $-1 #
vertex $-1 $165 $262 #
vertex $-1 $249 $263 #
straight-curve $-1 0 -41.617854105372722 -4.0815390906845721 1 0 0 I I #
face $-1 $-1 $185 $23 $-1 $264 forward single #
loop $-1 $-1 $265 $103 #
plane-surface $-1 77.714774010437338 0 0 -1 0 0 0 0 1 forward_v I I I I #
coedge $-1 $266 $267 $268 $269 reversed $104 $-1 #
coedge $-1 $270 $106 $108 $183 forward $65 $-1 #
coedge $-1 $106 $270 $266 $271 forward $65 $-1 #
coedge $-1 $268 $109 $106 $180 forward $185 $-1 #
edge $-1 $187 -22.039423746853142 $272 -9.5029314776706677 $179 $273 forward 7 unknown #
coedge $-1 $274 $275 $107 $182 forward $174 $-1 #
edge $-1 $276 -106.72503814624812 $186 -92.642416448511085 $181 $277 forward 7 unknown #
edge $-1 $187 132.55557898832333 $276 155.42954802087465 $108 $278 forward 7 unknown #
coedge $-1 $109 $268 $274 $279 forward $185 $-1 #
loop $-1 $-1 $268 $173 #
vertex $-1 $182 $280 #
vertex $-1 $110 $281 #
straight-curve $-1 25.463302861537542 37.810601359115047 18.804685780117055 -1 0 0 I I #
coedge $-1 $189 $189 $-1 $282 reversed $113 $-1 #
edge $-1 $283 0 $283 6.2831853071796004 $114 $284 forward 7 unknown #
vertex $-1 $117 $285 #
ellipse-curve $-1 68.702307291767298 31.54235522452381 11.763374931248523 0.61566148304635926 0 0.78801074757464917 1.5760214951492983 0 -1.2313229660927185 1 I I #
face $-1 $-1 $286 $25 $-1 $287 reversed single #
loop $-1 $-1 $124 $118 #
plane-surface $-1 0 0 18.804685780117062 0 0 1 1 0 0 forward_v I I I I #
coedge $-1 $288 $289 $290 $291 reversed $119 $-1 #
coedge $-1 $292 $121 $123 $203 forward $74 $-1 #
coedge $-1 $121 $292 $288 $293 forward $74 $-1 #
coedge $-1 $290 $124 $121 $200 forward $194 $-1 #
edge $-1 $206 5.2016024999568273 $294 19.200265728718492 $199 $295 forward 7 unknown #
coedge $-1 $296 $297 $122 $202 forward $286 $-1 #
edge $-1 $298 -50.269165817409046 $205 -40.831434529612714 $201 $299 forward 7 unknown #
edge $-1 $206 -13.346967430375591 $298 0 $123 $300 forward 7 unknown #
coedge $-1 $124 $290 $296 $301 forward $194 $-1 #
vertex $-1 $125 $302 #
vertex $-1 $125 $303 #
straight-curve $-1 -93.810031343969854 17.402536614294487 18.804685780117062 1 0 0 I I #
coedge $-1 $208 $208 $-1 $304 reversed $128 $-1 #
edge $-1 $305 0 $305 6.2831853071796004 $129 $306 forward 7 unknown #
vertex $-1 $132 $307 #
ellipse-curve $-1 -72.995908476040938 21.402154679654963 14.085820136218899 -0.70710678939079041 0 0.70710677298230451 0.70710677298230451 0 0.70710678939079041 1 I I #
coedge $-1 $212 $212 $-1 $308 reversed $135 $-1 #
edge $-1 $309 0 $309 6.2831853071796004 $136 $310 forward 7 unknown #
vertex $-1 $139 $311 #
ellipse-curve $-1 -72.995908476040938 27.401581777695675 14.085820136218899 -0.70710678939079041 0 0.70710677298230451 0.70710677298230451 0 0.70710678939079041 1 I I #
face $-1 $-1 $155 $21 $-1 $312 reversed single #
loop $-1 $-1 $232 $140 #
plane-surface $-1 0 41.617854105372722 0 0 -1 0 0 0 -1 forward_v I I I I #
coedge $-1 $313 $230 $233 $314 forward $141 $-1 #
coedge $-1 $236 $143 $144 $224 reversed $88 $-1 #
coedge $-1 $230 $313 $143 $222 reversed $141 $-1 #
edge $-1 $237 -18.804685780117062 $315 18.804685780117062 $221 $316 forward 7 unknown #
coedge $-1 $145 $144 $313 $317 forward $57 $-1 #
edge $-1 $228 -77.714774010437338 $315 77.714774010437338 $220 $318 forward 7 unknown #
coedge $-1 $233 $232 $145 $226 reversed $217 $-1 #
edge $-1 $319 -77.714774010437338 $227 77.714774010437338 $225 $320 forward 7 unknown #
vertex $-1 $147 $321 #
vertex $-1 $239 $322 #
straight-curve $-1 77.714774010437338 0 -18.804685780117062 0 -1 0 I I #
coedge $-1 $219 $221 $148 $231 reversed $141 $-1 #
edge $-1 $234 -41.617854105372722 $237 41.617854105372722 $230 $323 forward 7 unknown #
coedge $-1 $225 $149 $154 $240 forward $217 $-1 #
coedge $-1 $149 $225 $219 $314 reversed $217 $-1 #
vertex $-1 $150 $324 #
straight-curve $-1 0 41.617854105372722 18.804685780117062 -1 0 0 I I #
coedge $-1 $151 $220 $153 $239 reversed $88 $-1 #
vertex $-1 $231 $325 #
straight-curve $-1 0 -41.617854105372722 18.804685780117062 1 0 0 I I #
edge $-1 $156 -18.804685780117062 $228 18.804685780117062 $153 $326 forward 7 unknown #
edge $-1 $157 -18.804685780117062 $227 18.804685780117062 $154 $327 forward 7 unknown #
point $-1 77.714774010437338 -41.617854105372722 18.804685780117062 #
point $-1 77.714774010437338 41.617854105372722 18.804685780117062 #
face $-1 $-1 $259 $22 $-1 $328 reversed single #
loop $-1 $-1 $329 $159 #
plane-surface $-1 0 -56.643203784609945 -6.4328278296511421 0 1 0 0 0 1 forward_v I I I I #
coedge $-1 $330 $256 $258 $331 forward $160 $-1 #
coedge $-1 $162 $169 $332 $333 forward $96 $-1 #
coedge $-1 $334 $167 $162 $249 reversed $259 $-1 #
edge $-1 $335 -7.5126748396186116 $171 7.5126748396186116 $248 $336 forward 7 unknown #
coedge $-1 $164 $163 $329 $337 reversed $61 $-1 #
coedge $-1 $256 $330 $163 $252 forward $160 $-1 #
edge $-1 $338 -7.5126748396186116 $254 7.5126748396186116 $163 $339 forward 7 unknown #
edge $-1 $170 -7.5126748396186116 $340 7.5126748396186116 $164 $341 forward 7 unknown #
vertex $-1 $165 $342 #
straight-curve $-1 -77.714774010437338 -41.617854105372722 0 0 0 -1 I I #
coedge $-1 $246 $251 $166 $257 reversed $160 $-1 #
edge $-1 $260 -77.714774010437338 $254 77.714774010437338 $256 $343 forward 7 unknown #
coedge $-1 $167 $334 $246 $331 reversed $259 $-1 #
loop $-1 $-1 $167 $243 #
vertex $-1 $168 $344 #
straight-curve $-1 77.714774010437338 -41.617854105372722 0 0 0 1 I I #
point $-1 -77.714774010437338 -41.617854105372722 -4.0815390906845721 #
point $-1 77.714774010437338 -41.617854105372722 -4.0815390906845721 #
plane-surface $-1 0 0 18.804685780117062 0 0 1 1 0 0 forward_v I I I I #
coedge $-1 $275 $274 $267 $345 forward $174 $-1 #
coedge $-1 $267 $176 $178 $271 reversed $104 $-1 #
coedge $-1 $176 $266 $265 $345 reversed $104 $-1 #
coedge $-1 $184 $179 $176 $269 forward $185 $-1 #
edge $-1 $272 34.226537711559658 $346 52.251471148899796 $268 $347 forward 7 unknown #
coedge $-1 $178 $177 $275 $348 reversed $65 $-1 #
edge $-1 $349 -155.42954802087465 $272 -132.55557898832333 $266 $350 forward 7 unknown #
vertex $-1 $180 $351 #
straight-curve $-1 59.6898405730972 15.771177612261905 18.804685780117062 0 -1 0 I I #
coedge $-1 $265 $181 $184 $279 reversed $174 $-1 #
coedge $-1 $181 $265 $270 $348 forward $174 $-1 #
vertex $-1 $182 $352 #
straight-curve $-1 77.714774010437338 37.810601359115047 111.44710222862815 0 0 1 I I #
straight-curve $-1 -44.765380320681928 37.810601359115047 100.41405012613703 0.78801074757464917 0 -0.61566148304635926 I I #
edge $-1 $346 25.274109089932573 $186 37.810601359115047 $274 $353 forward 7 unknown #
point $-1 77.714774010437338 37.810601359115047 18.804685780117062 #
point $-1 59.6898405730972 37.810601359115047 18.804685780117069 #
edge $-1 $354 1 $354 0 $189 $-1 forward 7 unknown #
vertex $-1 $190 $355 #
ellipse-curve $-1 65.179206203383956 31.54235522452381 7.2540112648699271 0.61566148304635926 0 0.78801074757464917 1.5760214951492983 0 -1.2313229660927185 1 I I #
point $-1 70.278328786916603 31.54235522452381 10.532051965155802 #
loop $-1 $-1 $201 $193 #
plane-surface $-1 -77.714774010437338 0 0 1 0 0 0 0 -1 forward_v I I I I #
coedge $-1 $289 $196 $198 $293 reversed $119 $-1 #
coedge $-1 $196 $288 $356 $357 reversed $119 $-1 #
coedge $-1 $204 $199 $196 $291 forward $194 $-1 #
edge $-1 $294 -25.532988402325316 $358 -16.095257333532516 $290 $359 forward 7 unknown #
coedge $-1 $198 $197 $297 $360 reversed $74 $-1 #
edge $-1 $361 0 $294 13.346967430375591 $288 $362 forward 7 unknown #
vertex $-1 $200 $363 #
straight-curve $-1 -68.277042941644524 12.20093411433766 18.804685780117062 0 1 0 I I #
coedge $-1 $356 $201 $204 $301 reversed $286 $-1 #
coedge $-1 $201 $356 $292 $360 forward $286 $-1 #
vertex $-1 $202 $364 #
straight-curve $-1 -77.714774010437338 17.402536614294487 59.636120309729776 0 0 1 I I #
straight-curve $-1 -77.714774010437338 17.402536614294487 9.3669544923207297 -0.70710677298230451 0 -0.70710678939079041 I I #
edge $-1 $358 -31.401199843056151 $205 -17.402536614294487 $296 $365 forward 7 unknown #
point $-1 -77.714774010437338 17.402536614294487 18.804685780117062 #
point $-1 -68.277042941644538 17.402536614294487 18.804685780117062 #
edge $-1 $366 1 $366 0 $208 $-1 forward 7 unknown #
vertex $-1 $209 $367 #
ellipse-curve $-1 -70.652768878517449 21.402154679654963 11.742680593068206 -0.70710678939079041 0 0.70710677298230451 0.70710677298230451 0 0.70710678939079041 1 I I #
point $-1 -72.288801703058624 21.402154679654963 14.792926925609684 #
edge $-1 $368 1 $368 0 $212 $-1 forward 7 unknown #
vertex $-1 $213 $369 #
ellipse-curve $-1 -70.652768878517449 27.401581777695675 11.742680593068206 -0.70710678939079041 0 0.70710677298230451 0.70710677298230451 0 0.70710678939079041 1 I I #
point $-1 -72.288801703058624 27.401581777695675 14.792926925609684 #
plane-surface $-1 77.714774010437338 0 0 -1 0 0 0 0 1 forward_v I I I I #
coedge $-1 $221 $219 $223 $317 reversed $141 $-1 #
edge $-1 $234 -18.804685780117062 $319 18.804685780117062 $233 $370 forward 7 unknown #
vertex $-1 $317 $371 #
straight-curve $-1 -77.714774010437338 -41.617854105372722 0 0 0 -1 I I #
edge $-1 $315 -41.617854105372722 $319 41.617854105372722 $313 $372 forward 7 unknown #
straight-curve $-1 0 -41.617854105372722 -18.804685780117062 -1 0 0 I I #
vertex $-1 $226 $373 #
straight-curve $-1 0 41.617854105372722 -18.804685780117062 1 0 0 I I #
point $-1 77.714774010437338 41.617854105372722 -18.804685780117062 #
point $-1 77.714774010437338 -41.617854105372722 -18.804685780117062 #
straight-curve $-1 -77.714774010437338 0 18.804685780117062 0 -1 0 I I #
point $-1 -77.714774010437338 41.617854105372722 18.804685780117062 #
point $-1 -77.714774010437338 -41.617854105372722 18.804685780117062 #
straight-curve $-1 77.714774010437338 -41.617854105372722 0 0 0 -1 I I #
straight-curve $-1 77.714774010437338 41.617854105372722 0 0 0 -1 I I #
plane-surface $-1 77.714774010437338 0 0 -1 0 0 0 0 1 forward_v I I I I #
coedge $-1 $374 $332 $250 $337 forward $244 $-1 #
coedge $-1 $251 $246 $374 $375 forward $160 $-1 #
edge $-1 $260 -7.5126748396186116 $376 7.5126748396186116 $258 $377 forward 7 unknown #
coedge $-1 $329 $378 $247 $333 reversed $244 $-1 #
edge $-1 $340 -77.714774010437338 $335 77.714774010437338 $332 $379 forward 7 unknown #
coedge $-1 $258 $248 $378 $380 forward $259 $-1 #
vertex $-1 $249 $381 #
straight-curve $-1 77.714774010437338 -49.130528944991333 -4.0815390906845721 0 1 0 I I #
edge $-1 $340 -2.35128873896657 $338 2.35128873896657 $250 $382 forward 7 unknown #
vertex $-1 $252 $383 #
straight-curve $-1 -77.714774010437338 -49.130528944991333 -8.7841165686177121 0 1 0 I I #
vertex $-1 $253 $384 #
straight-curve $-1 -77.714774010437338 -49.130528944991333 -4.0815390906845721 0 -1 0 I I #
point $-1 -77.714774010437338 -41.617854105372722 -8.7841165686177121 #
straight-curve $-1 0 -41.617854105372722 -8.7841165686177121 -1 0 0 I I #
point $-1 77.714774010437338 -41.617854105372722 -8.7841165686177121 #
edge $-1 $346 92.642416448511085 $349 106.72503814624812 $265 $385 forward 7 unknown #
vertex $-1 $279 $386 #
straight-curve $-1 25.463302861537542 25.274109089932573 18.804685780117055 1 0 0 I I #
edge $-1 $349 9.5029314776706677 $276 22.039423746853142 $275 $387 forward 7 unknown #
vertex $-1 $348 $388 #
straight-curve $-1 -44.765380320681928 25.274109089932573 100.41405012613703 -0.78801074757464917 0 0.61566148304635926 I I #
point $-1 59.6898405730972 25.274109089932573 18.804685780117069 #
point $-1 77.714774010437338 37.810601359115047 4.7220640823800295 #
straight-curve $-1 77.714774010437338 0 18.804685780117062 0 1 0 I I #
vertex $-1 $282 $389 #
point $-1 66.755227698533261 31.54235522452381 6.0226882987772088 #
coedge $-1 $297 $296 $289 $357 forward $286 $-1 #
edge $-1 $358 40.831434529612714 $361 50.269165817409046 $356 $390 forward 7 unknown #
vertex $-1 $301 $391 #
straight-curve $-1 -93.810031343969854 31.401199843056151 18.804685780117062 -1 0 0 I I #
edge $-1 $361 -19.200265728718492 $298 -5.2016024999568273 $297 $392 forward 7 unknown #
vertex $-1 $360 $393 #
straight-curve $-1 -77.714774010437338 31.401199843056151 9.3669544923207297 0.70710677298230451 0 0.70710678939079041 I I #
point $-1 -68.277042941644538 31.401199843056151 18.804685780117062 #
point $-1 -77.714774010437338 17.402536614294487 9.3669544923207297 #
straight-curve $-1 -77.714774010437338 0 18.804685780117062 0 -1 0 I I #
vertex $-1 $304 $394 #
point $-1 -69.945662105535149 21.402154679654963 12.449787382458997 #
vertex $-1 $308 $395 #
point $-1 -69.945662105535149 27.401581777695675 12.449787382458997 #
straight-curve $-1 -77.714774010437338 41.617854105372722 0 0 0 -1 I I #
point $-1 -77.714774010437338 -41.617854105372722 -18.804685780117062 #
straight-curve $-1 -77.714774010437338 0 -18.804685780117062 0 1 0 I I #
point $-1 -77.714774010437338 41.617854105372722 -18.804685780117062 #
coedge $-1 $378 $329 $330 $375 reversed $244 $-1 #
edge $-1 $376 -77.714774010437338 $338 77.714774010437338 $374 $396 forward 7 unknown #
vertex $-1 $380 $397 #
straight-curve $-1 77.714774010437338 -49.130528944991333 -8.7841165686177121 0 -1 0 I I #
coedge $-1 $332 $374 $334 $380 reversed $244 $-1 #
straight-curve $-1 0 -56.643203784609945 -4.0815390906845721 1 0 0 I I #
edge $-1 $335 -2.35128873896657 $376 2.35128873896657 $334 $398 forward 7 unknown #
point $-1 77.714774010437338 -56.643203784609945 -4.0815390906845721 #
straight-curve $-1 -77.714774010437338 -56.643203784609945 -6.4328278296511421 0 0 -1 I I #
point $-1 -77.714774010437338 -56.643203784609945 -8.7841165686177121 #
point $-1 -77.714774010437338 -56.643203784609945 -4.0815390906845721 #
straight-curve $-1 77.714774010437338 25.274109089932573 111.44710222862815 0 0 -1 I I #
point $-1 77.714774010437338 25.274109089932573 18.804685780117062 #
straight-curve $-1 77.714774010437338 15.771177612261905 4.7220640823800295 0 1 0 I I #
point $-1 77.714774010437338 25.274109089932573 4.7220640823800295 #
point $-1 63.947883237291244 31.54235522452381 5.6779897697206287 #
straight-curve $-1 -77.714774010437338 31.401199843056151 59.636120309729776 0 0 -1 I I #
point $-1 -77.714774010437338 31.401199843056151 18.804685780117062 #
straight-curve $-1 -77.714774010437338 12.20093411433766 9.3669544923207226 0 -1 0 I I #
point $-1 -77.714774010437338 31.401199843056151 9.3669544923207297 #
point $-1 -69.945662089126657 21.402154679654963 11.035573820085903 #
point $-1 -69.945662089126657 27.401581777695675 11.035573820085903 #
straight-curve $-1 0 -56.643203784609945 -8.7841165686177121 -1 0 0 I I #
point $-1 77.714774010437338 -56.643203784609945 -8.7841165686177121 #
straight-curve $-1 77.714774010437338 -56.643203784609945 -6.4328278296511421 0 0 -1 I I #
End-of-ACIS-data 