500 0 10 0           
7 Unknown 11 ACIS 5.0 NT 24 Thu Mar 25 15:56:35 1999 
-1 9.9999999999999995e-007 1e-010 
body $-1 $10 $-1 $11 #
body $-1 $12 $-1 $13 #
body $-1 $14 $-1 $15 #
body $-1 $16 $-1 $17 #
body $-1 $18 $-1 $19 #
body $-1 $20 $-1 $21 #
body $-1 $22 $-1 $23 #
body $-1 $24 $-1 $25 #
body $-1 $26 $-1 $27 #
body $-1 $28 $-1 $29 #
lump $-1 $-1 $30 $0 #
transform $-1 1 0 0 0 1 0 0 0 1 64.579607531968136 42.540907396344672 14.234397677343761 1 rotate no_reflect no_shear #
lump $-1 $-1 $31 $1 #
transform $-1 1 0 0 0 1 0 0 0 1 64.579607531968136 42.540907396344672 14.234397677343761 1 rotate no_reflect no_shear #
lump $-1 $-1 $32 $2 #
transform $-1 1 0 0 0 1 0 0 0 1 64.579607531968136 42.540907396344672 14.234397677343761 1 rotate no_reflect no_shear #
lump $-1 $-1 $33 $3 #
transform $-1 1 0 0 0 1 0 0 0 1 64.579607531968136 42.540907396344672 14.234397677343761 1 rotate no_reflect no_shear #
lump $-1 $-1 $34 $4 #
transform $-1 1 0 0 0 1 0 0 0 1 64.579607531968136 42.540907396344672 14.234397677343761 1 rotate no_reflect no_shear #
lump $-1 $-1 $35 $5 #
transform $-1 1 0 0 0 1 0 0 0 1 64.579607531968136 42.540907396344672 14.234397677343761 1 rotate no_reflect no_shear #
lump $-1 $-1 $36 $6 #
transform $-1 1 0 0 0 1 0 0 0 1 64.579607531968136 42.540907396344672 14.234397677343761 1 rotate no_reflect no_shear #
lump $-1 $-1 $37 $7 #
transform $-1 1 0 0 0 1 0 0 0 1 64.579607531968136 42.540907396344672 14.234397677343761 1 rotate no_reflect no_shear #
lump $-1 $-1 $38 $8 #
transform $-1 1 0 0 0 1 0 0 0 1 64.579607531968136 42.540907396344672 14.234397677343761 1 rotate no_reflect no_shear #
lump $-1 $-1 $39 $9 #
transform $-1 1 0 0 0 1 0 0 0 1 64.579607531968136 42.540907396344672 14.234397677343761 1 rotate no_reflect no_shear #
shell $-1 $-1 $-1 $40 $-1 $10 #
shell $-1 $-1 $-1 $41 $-1 $12 #
shell $-1 $-1 $-1 $42 $-1 $14 #
shell $-1 $-1 $-1 $43 $-1 $16 #
shell $-1 $-1 $-1 $44 $-1 $18 #
shell $-1 $-1 $-1 $45 $-1 $20 #
shell $-1 $-1 $-1 $46 $-1 $22 #
shell $-1 $-1 $-1 $47 $-1 $24 #
shell $-1 $-1 $-1 $48 $-1 $26 #
shell $-1 $-1 $-1 $49 $-1 $28 #
face $-1 $50 $51 $30 $-1 $52 forward single #
face $-1 $53 $54 $31 $-1 $55 reversed single #
face $-1 $56 $57 $32 $-1 $58 reversed single #
face $-1 $59 $60 $33 $-1 $61 forward single #
face $-1 $62 $63 $34 $-1 $64 forward single #
face $-1 $65 $66 $35 $-1 $67 forward single #
face $-1 $68 $69 $36 $-1 $70 reversed single #
face $-1 $71 $72 $37 $-1 $73 forward single #
face $-1 $74 $75 $38 $-1 $76 forward single #
face $-1 $77 $78 $39 $-1 $79 forward single #
face $-1 $80 $81 $30 $-1 $82 reversed single #
loop $-1 $-1 $83 $40 #
plane-surface $-1 0 0 14.234397677343761 0 0 1 1 0 0 forward_v I I I I #
face $-1 $84 $85 $31 $-1 $86 reversed single #
loop $-1 $-1 $87 $41 #
plane-surface $-1 -59.355709129624493 -27.278552361623628 0 0 1 0 0 0 1 forward_v I I I I #
face $-1 $88 $89 $32 $-1 $90 reversed single #
loop $-1 $-1 $91 $42 #
plane-surface $-1 -12.405749768295593 38.831393835211706 160.56074650435389 1 0 0 0 -0.52991927123019833 -0.84804809178421925 forward_v I I I I #
face $-1 $92 $93 $33 $-1 $94 forward single #
loop $-1 $95 $96 $43 #
cone-surface $-1 -6.9336558821560388 34.789397124430771 8.3026562966641873 0 -0.52991927123019833 -0.84804809178421925 2.5 0 0 1 I I 0 1 2.5 forward I I I I #
face $-1 $97 $98 $34 $-1 $99 forward single #
loop $-1 $100 $101 $44 #
cone-surface $-1 1.2744849470532955 34.789397124430771 8.3026562966641873 0 -0.52991927123019833 -0.84804809178421925 2.5 0 0 1 I I 0 1 2.5 forward I I I I #
face $-1 $102 $103 $35 $-1 $104 forward single #
loop $-1 $105 $106 $45 #
cone-surface $-1 9.4826257762626227 34.789397124430771 8.3026562966641873 0 -0.52991927123019833 -0.84804809178421925 2.5 0 0 1 I I 0 1 2.5 forward I I I I #
face $-1 $107 $108 $36 $-1 $109 reversed single #
loop $-1 $-1 $110 $46 #
plane-surface $-1 14.954719662402184 -110.98486451569025 115.47425321446926 -1 0 0 0 -0.52991927123019833 0.84804809178421925 forward_v I I I I #
face $-1 $111 $112 $37 $-1 $113 forward single #
loop $-1 $114 $115 $47 #
cone-surface $-1 -6.9336558821560388 -34.789397124430764 8.3026562966641908 0 0.52991927123019833 -0.84804809178421925 2.5 0 0 1 I I 0 1 2.5 forward I I I I #
face $-1 $116 $117 $38 $-1 $118 forward single #
loop $-1 $119 $120 $48 #
cone-surface $-1 1.2744849470532955 -34.789397124430764 8.3026562966641908 0 0.52991927123019833 -0.84804809178421925 2.5 0 0 1 I I 0 1 2.5 forward I I I I #
face $-1 $121 $122 $39 $-1 $123 forward single #
loop $-1 $124 $125 $49 #
cone-surface $-1 9.4826257762626227 -34.789397124430764 8.3026562966641908 0 0.52991927123019833 -0.84804809178421925 2.5 0 0 1 I I 0 1 2.5 forward I I I I #
face $-1 $126 $127 $30 $-1 $128 reversed single #
loop $-1 $-1 $129 $50 #
plane-surface $-1 0 0 -14.234397677343761 0 0 1 1 0 0 forward_v I I I I #
coedge $-1 $130 $131 $132 $133 forward $51 $-1 #
face $-1 $134 $135 $31 $-1 $136 reversed single #
loop $-1 $-1 $137 $53 #
plane-surface $-1 -59.355709129624493 -20.57791176547639 0 0 -1 0 0 0 -1 forward_v I I I I #
coedge $-1 $138 $139 $140 $141 reversed $54 $-1 #
face $-1 $142 $143 $32 $-1 $144 reversed single #
loop $-1 $-1 $145 $56 #
plane-surface $-1 1.2744849470532955 -29.612563284133863 51.027520633035138 0 0.52991927123019833 0.84804809178421925 1 0 0 forward_v I I I I #
coedge $-1 $146 $147 $148 $149 reversed $57 $-1 #
face $-1 $-1 $150 $33 $-1 $151 forward single #
loop $-1 $152 $153 $59 #
cone-surface $-1 -6.9336558821560388 33.011571095611053 5.457539968350968 0 -0.52991927123019833 -0.84804809178421925 1.25 0 0 1 I I -0.70710678118654746 0.70710678118654746 1.25 forward I I I I #
loop $-1 $-1 $154 $43 #
coedge $-1 $96 $96 $155 $156 reversed $60 $-1 #
face $-1 $-1 $157 $34 $-1 $158 forward single #
loop $-1 $159 $160 $62 #
cone-surface $-1 1.2744849470532955 33.011571095611053 5.457539968350968 0 -0.52991927123019833 -0.84804809178421925 1.25 0 0 1 I I -0.70710678118654746 0.70710678118654746 1.25 forward I I I I #
loop $-1 $-1 $161 $44 #
coedge $-1 $101 $101 $162 $163 reversed $63 $-1 #
face $-1 $-1 $164 $35 $-1 $165 forward single #
loop $-1 $166 $167 $65 #
cone-surface $-1 9.4826257762626227 33.011571095611053 5.457539968350968 0 -0.52991927123019833 -0.84804809178421925 1.25 0 0 1 I I -0.70710678118654746 0.70710678118654746 1.25 forward I I I I #
loop $-1 $-1 $168 $45 #
coedge $-1 $106 $106 $169 $170 reversed $66 $-1 #
face $-1 $171 $172 $36 $-1 $173 reversed single #
loop $-1 $-1 $174 $68 #
plane-surface $-1 1.2744849470532955 -42.540907396344679 5.941027343150509 0 -0.52991927123019833 0.84804809178421925 1 0 0 forward_v I I I I #
coedge $-1 $175 $176 $177 $178 reversed $69 $-1 #
face $-1 $-1 $179 $37 $-1 $180 forward single #
loop $-1 $181 $182 $71 #
cone-surface $-1 -6.9336558821560388 -33.011571095611046 5.4575399683509715 0 0.52991927123019833 -0.84804809178421925 1.25 0 0 1 I I -0.70710678118654746 0.70710678118654746 1.25 forward I I I I #
loop $-1 $-1 $183 $47 #
coedge $-1 $115 $115 $184 $185 reversed $72 $-1 #
face $-1 $-1 $186 $38 $-1 $187 forward single #
loop $-1 $188 $189 $74 #
cone-surface $-1 1.2744849470532955 -33.011571095611046 5.4575399683509715 0 0.52991927123019833 -0.84804809178421925 1.25 0 0 1 I I -0.70710678118654746 0.70710678118654746 1.25 forward I I I I #
loop $-1 $-1 $190 $48 #
coedge $-1 $120 $120 $191 $192 reversed $75 $-1 #
face $-1 $-1 $193 $39 $-1 $194 forward single #
loop $-1 $195 $196 $77 #
cone-surface $-1 9.4826257762626227 -33.011571095611046 5.4575399683509715 0 0.52991927123019833 -0.84804809178421925 1.25 0 0 1 I I -0.70710678118654746 0.70710678118654746 1.25 forward I I I I #
loop $-1 $-1 $197 $49 #
coedge $-1 $125 $125 $198 $199 reversed $78 $-1 #
face $-1 $200 $201 $30 $-1 $202 reversed single #
loop $-1 $-1 $203 $80 #
plane-surface $-1 0 -42.540907396344672 0 0 1 0 0 0 1 forward_v I I I I #
coedge $-1 $204 $205 $206 $207 forward $81 $-1 #
coedge $-1 $208 $83 $209 $210 forward $51 $-1 #
coedge $-1 $83 $208 $211 $212 forward $51 $-1 #
coedge $-1 $213 $214 $83 $133 reversed $215 $-1 #
edge $-1 $216 -42.540907396344672 $217 42.540907396344672 $132 $218 forward 7 unknown #
face $-1 $219 $220 $31 $-1 $221 reversed single #
loop $-1 $-1 $222 $84 #
plane-surface $-1 -54.13181072728085 -23.928232063550009 0 -1 0 0 0 0 1 forward_v I I I I #
coedge $-1 $223 $224 $225 $226 forward $85 $-1 #
coedge $-1 $227 $87 $228 $229 reversed $54 $-1 #
coedge $-1 $87 $227 $230 $231 reversed $54 $-1 #
coedge $-1 $232 $233 $87 $141 forward $234 $-1 #
edge $-1 $235 -14.234397677343761 $236 14.234397677343761 $140 $237 forward 7 unknown #
face $-1 $238 $239 $32 $-1 $240 reversed single #
loop $-1 $-1 $241 $88 #
plane-surface $-1 14.954719662402184 38.831393835211706 160.56074650435389 -1 0 0 0 0.52991927123019833 0.84804809178421925 forward_v I I I I #
coedge $-1 $242 $243 $244 $245 reversed $89 $-1 #
coedge $-1 $147 $91 $246 $247 reversed $57 $-1 #
coedge $-1 $91 $146 $242 $248 reversed $57 $-1 #
coedge $-1 $244 $249 $91 $149 forward $250 $-1 #
edge $-1 $251 -23.125210478738818 $252 -9.8530438144749404 $148 $253 forward 7 unknown #
loop $-1 $-1 $155 $92 #
plane-surface $-1 1.2744849470532955 -29.612563284133863 51.027520633035138 0 0.52991927123019833 0.84804809178421925 1 0 0 forward_v I I I I #
loop $-1 $-1 $254 $59 #
coedge $-1 $153 $153 $154 $255 reversed $93 $-1 #
coedge $-1 $154 $154 $153 $255 forward $95 $-1 #
coedge $-1 $155 $155 $96 $156 forward $150 $-1 #
edge $-1 $256 -3.7653028871190371e-016 $256 6.2831853071796004 $155 $257 forward 7 unknown #
loop $-1 $-1 $162 $97 #
plane-surface $-1 1.2744849470532955 -29.612563284133863 51.027520633035138 0 0.52991927123019833 0.84804809178421925 1 0 0 forward_v I I I I #
loop $-1 $-1 $258 $62 #
coedge $-1 $160 $160 $161 $259 reversed $98 $-1 #
coedge $-1 $161 $161 $160 $259 forward $100 $-1 #
coedge $-1 $162 $162 $101 $163 forward $157 $-1 #
edge $-1 $260 -3.7653028871190371e-016 $260 6.2831853071796004 $162 $261 forward 7 unknown #
loop $-1 $-1 $169 $102 #
plane-surface $-1 1.2744849470532955 -29.612563284133863 51.027520633035138 0 0.52991927123019833 0.84804809178421925 1 0 0 forward_v I I I I #
loop $-1 $-1 $262 $65 #
coedge $-1 $167 $167 $168 $263 reversed $103 $-1 #
coedge $-1 $168 $168 $167 $263 forward $105 $-1 #
coedge $-1 $169 $169 $106 $170 forward $164 $-1 #
edge $-1 $264 -3.7653028871190371e-016 $264 6.2831853071796004 $169 $265 forward 7 unknown #
face $-1 $266 $267 $36 $-1 $268 forward single #
loop $-1 $-1 $269 $107 #
plane-surface $-1 -12.405749768295593 -110.98486451569025 115.47425321446926 1 0 0 0 0.52991927123019833 -0.84804809178421925 forward_v I I I I #
coedge $-1 $270 $271 $272 $273 reversed $108 $-1 #
coedge $-1 $176 $110 $274 $275 reversed $69 $-1 #
coedge $-1 $110 $175 $270 $276 reversed $69 $-1 #
coedge $-1 $272 $277 $110 $178 forward $267 $-1 #
edge $-1 $278 12.951524861500452 $279 26.223691525764309 $177 $280 forward 7 unknown #
loop $-1 $-1 $184 $111 #
plane-surface $-1 1.2744849470532955 -42.540907396344679 5.941027343150509 0 -0.52991927123019833 0.84804809178421925 1 0 0 forward_v I I I I #
loop $-1 $-1 $281 $71 #
coedge $-1 $182 $182 $183 $282 reversed $112 $-1 #
coedge $-1 $183 $183 $182 $282 forward $114 $-1 #
coedge $-1 $184 $184 $115 $185 forward $179 $-1 #
edge $-1 $283 1.2807067786342558e-015 $283 6.2831853071796013 $184 $284 forward 7 unknown #
loop $-1 $-1 $191 $116 #
plane-surface $-1 1.2744849470532955 -42.540907396344679 5.941027343150509 0 -0.52991927123019833 0.84804809178421925 1 0 0 forward_v I I I I #
loop $-1 $-1 $285 $74 #
coedge $-1 $189 $189 $190 $286 reversed $117 $-1 #
coedge $-1 $190 $190 $189 $286 forward $119 $-1 #
coedge $-1 $191 $191 $120 $192 forward $186 $-1 #
edge $-1 $287 1.2807067786342558e-015 $287 6.2831853071796013 $191 $288 forward 7 unknown #
loop $-1 $-1 $198 $121 #
plane-surface $-1 1.2744849470532955 -42.540907396344679 5.941027343150509 0 -0.52991927123019833 0.84804809178421925 1 0 0 forward_v I I I I #
loop $-1 $-1 $289 $77 #
coedge $-1 $196 $196 $197 $290 reversed $122 $-1 #
coedge $-1 $197 $197 $196 $290 forward $124 $-1 #
coedge $-1 $198 $198 $125 $199 forward $193 $-1 #
edge $-1 $291 1.2807067786342558e-015 $291 6.2831853071796013 $198 $292 forward 7 unknown #
face $-1 $293 $294 $30 $-1 $295 reversed single #
loop $-1 $-1 $296 $126 #
plane-surface $-1 -64.579607531968136 0 0 1 0 0 0 0 -1 forward_v I I I I #
coedge $-1 $297 $211 $298 $299 forward $127 $-1 #
coedge $-1 $300 $129 $297 $301 forward $81 $-1 #
coedge $-1 $129 $300 $302 $303 forward $81 $-1 #
coedge $-1 $214 $213 $129 $207 reversed $215 $-1 #
edge $-1 $304 -42.540907396344672 $305 42.540907396344672 $206 $306 forward 7 unknown #
coedge $-1 $131 $130 $307 $308 forward $51 $-1 #
coedge $-1 $309 $310 $130 $210 reversed $294 $-1 #
edge $-1 $217 -64.579607531968136 $311 64.579607531968136 $209 $312 forward 7 unknown #
coedge $-1 $203 $313 $131 $212 reversed $127 $-1 #
edge $-1 $314 -64.579607531968136 $216 64.579607531968136 $211 $315 forward 7 unknown #
coedge $-1 $206 $132 $313 $316 forward $215 $-1 #
coedge $-1 $132 $206 $309 $317 reversed $215 $-1 #
loop $-1 $-1 $213 $293 #
vertex $-1 $133 $318 #
vertex $-1 $133 $319 #
straight-curve $-1 64.579607531968136 0 14.234397677343761 0 1 0 I I #
face $-1 $320 $321 $31 $-1 $322 forward single #
loop $-1 $-1 $323 $134 #
plane-surface $-1 0 0 -14.234397677343761 0 0 1 1 0 0 forward_v I I I I #
coedge $-1 $324 $325 $227 $326 forward $135 $-1 #
coedge $-1 $327 $137 $323 $328 reversed $85 $-1 #
coedge $-1 $137 $327 $329 $330 reversed $85 $-1 #
coedge $-1 $325 $324 $137 $226 reversed $135 $-1 #
edge $-1 $331 -14.234397677343761 $332 14.234397677343761 $225 $333 forward 7 unknown #
coedge $-1 $139 $138 $222 $326 reversed $54 $-1 #
coedge $-1 $334 $335 $138 $229 forward $220 $-1 #
edge $-1 $336 24.453956162468604 $235 34.901752967155886 $228 $337 forward 7 unknown #
coedge $-1 $338 $339 $139 $231 forward $321 $-1 #
edge $-1 $236 -34.901752967155886 $340 -24.453956162468604 $230 $341 forward 7 unknown #
coedge $-1 $342 $140 $339 $343 reversed $234 $-1 #
coedge $-1 $140 $342 $334 $344 reversed $234 $-1 #
loop $-1 $-1 $342 $320 #
vertex $-1 $344 $345 #
vertex $-1 $141 $346 #
straight-curve $-1 -64.579607531968136 -27.278552361623628 0 0 0 1 I I #
face $-1 $-1 $250 $32 $-1 $347 forward single #
loop $-1 $-1 $348 $142 #
plane-surface $-1 0 42.540907396344672 0 0 -1 0 0 0 -1 forward_v I I I I #
coedge $-1 $349 $350 $351 $352 reversed $143 $-1 #
coedge $-1 $353 $145 $147 $248 forward $89 $-1 #
coedge $-1 $145 $353 $349 $354 forward $89 $-1 #
coedge $-1 $351 $148 $145 $245 forward $250 $-1 #
edge $-1 $252 -13.04299224182224 $355 14.317477188875536 $244 $356 forward 7 unknown #
coedge $-1 $357 $358 $146 $247 forward $239 $-1 #
edge $-1 $359 -74.339345909026434 $251 -66.045975574833179 $246 $360 forward 7 unknown #
edge $-1 $252 69.431562415680375 $359 85.081814792689329 $147 $361 forward 7 unknown #
coedge $-1 $148 $351 $357 $362 forward $250 $-1 #
loop $-1 $-1 $351 $238 #
vertex $-1 $247 $363 #
vertex $-1 $149 $364 #
straight-curve $-1 -12.405749768295593 19.415696917605853 14.234397677343765 0 -1 0 I I #
coedge $-1 $254 $254 $-1 $365 reversed $152 $-1 #
edge $-1 $366 0 $366 6.2831853071796004 $153 $367 forward 7 unknown #
vertex $-1 $156 $368 #
ellipse-curve $-1 -6.9336558821560388 35.90482406421274 10.08771251024713 0 0.52991927123019833 0.84804809178421925 2.5 0 0 1 I I #
coedge $-1 $258 $258 $-1 $369 reversed $159 $-1 #
edge $-1 $370 0 $370 6.2831853071796004 $160 $371 forward 7 unknown #
vertex $-1 $163 $372 #
ellipse-curve $-1 1.2744849470532955 35.90482406421274 10.08771251024713 0 0.52991927123019833 0.84804809178421925 2.5 0 0 1 I I #
coedge $-1 $262 $262 $-1 $373 reversed $166 $-1 #
edge $-1 $374 0 $374 6.2831853071796004 $167 $375 forward 7 unknown #
vertex $-1 $170 $376 #
ellipse-curve $-1 9.4826257762626227 35.90482406421274 10.08771251024713 0 0.52991927123019833 0.84804809178421925 2.5 0 0 1 I I #
face $-1 $-1 $377 $36 $-1 $378 reversed single #
loop $-1 $-1 $177 $171 #
plane-surface $-1 0 0 14.234397677343761 0 0 1 1 0 0 forward_v I I I I #
coedge $-1 $379 $380 $381 $382 reversed $172 $-1 #
coedge $-1 $383 $174 $176 $276 forward $108 $-1 #
coedge $-1 $174 $383 $379 $384 forward $108 $-1 #
coedge $-1 $381 $177 $174 $273 forward $267 $-1 #
edge $-1 $279 -14.317477188875536 $385 13.04299224182224 $272 $386 forward 7 unknown #
coedge $-1 $387 $388 $175 $275 forward $377 $-1 #
edge $-1 $389 -51.796099264084113 $278 -43.502728929890864 $274 $390 forward 7 unknown #
edge $-1 $279 -15.650252377008931 $389 -8.3790584163743152e-015 $176 $391 forward 7 unknown #
coedge $-1 $177 $381 $387 $392 forward $267 $-1 #
vertex $-1 $275 $393 #
vertex $-1 $178 $394 #
straight-curve $-1 14.954719662402184 -55.492432257845124 14.234397677343765 0 1 0 I I #
coedge $-1 $281 $281 $-1 $395 reversed $181 $-1 #
edge $-1 $396 0 $396 6.2831853071796004 $182 $397 forward 7 unknown #
vertex $-1 $185 $398 #
ellipse-curve $-1 -6.9336558821560388 -35.90482406421274 10.08771251024714 0 -0.52991927123019833 0.84804809178421925 2.5 0 0 1 I I #
coedge $-1 $285 $285 $-1 $399 reversed $188 $-1 #
edge $-1 $400 0 $400 6.2831853071796004 $189 $401 forward 7 unknown #
vertex $-1 $192 $402 #
ellipse-curve $-1 1.2744849470532955 -35.90482406421274 10.08771251024714 0 -0.52991927123019833 0.84804809178421925 2.5 0 0 1 I I #
coedge $-1 $289 $289 $-1 $403 reversed $195 $-1 #
edge $-1 $404 0 $404 6.2831853071796004 $196 $405 forward 7 unknown #
vertex $-1 $199 $406 #
ellipse-curve $-1 9.4826257762626227 -35.90482406421274 10.08771251024714 0 -0.52991927123019833 0.84804809178421925 2.5 0 0 1 I I #
face $-1 $-1 $215 $30 $-1 $407 reversed single #
loop $-1 $-1 $309 $200 #
plane-surface $-1 0 42.540907396344672 0 0 -1 0 0 0 -1 forward_v I I I I #
coedge $-1 $408 $307 $310 $409 forward $201 $-1 #
coedge $-1 $313 $203 $204 $301 reversed $127 $-1 #
coedge $-1 $307 $408 $203 $299 reversed $201 $-1 #
edge $-1 $314 -14.234397677343761 $410 14.234397677343761 $298 $411 forward 7 unknown #
coedge $-1 $205 $204 $408 $412 forward $81 $-1 #
edge $-1 $305 -64.579607531968136 $410 64.579607531968136 $297 $413 forward 7 unknown #
coedge $-1 $310 $309 $205 $303 reversed $294 $-1 #
edge $-1 $414 -64.579607531968136 $304 64.579607531968136 $302 $415 forward 7 unknown #
vertex $-1 $207 $416 #
vertex $-1 $316 $417 #
straight-curve $-1 64.579607531968136 0 -14.234397677343761 0 -1 0 I I #
coedge $-1 $296 $298 $208 $308 reversed $201 $-1 #
edge $-1 $311 -42.540907396344672 $314 42.540907396344672 $307 $418 forward 7 unknown #
coedge $-1 $302 $209 $214 $317 forward $294 $-1 #
coedge $-1 $209 $302 $296 $409 reversed $294 $-1 #
vertex $-1 $210 $419 #
straight-curve $-1 0 42.540907396344672 14.234397677343761 -1 0 0 I I #
coedge $-1 $211 $297 $213 $316 reversed $127 $-1 #
vertex $-1 $308 $420 #
straight-curve $-1 0 -42.540907396344672 14.234397677343761 1 0 0 I I #
edge $-1 $216 -14.234397677343761 $305 14.234397677343761 $213 $421 forward 7 unknown #
edge $-1 $217 -14.234397677343761 $304 14.234397677343761 $214 $422 forward 7 unknown #
point $-1 64.579607531968136 -42.540907396344672 14.234397677343761 #
point $-1 64.579607531968136 42.540907396344672 14.234397677343761 #
face $-1 $-1 $234 $31 $-1 $423 reversed single #
loop $-1 $-1 $329 $219 #
plane-surface $-1 0 0 14.234397677343761 0 0 1 1 0 0 forward_v I I I I #
coedge $-1 $335 $334 $223 $328 forward $220 $-1 #
coedge $-1 $225 $222 $335 $424 reversed $135 $-1 #
coedge $-1 $222 $225 $338 $425 reversed $135 $-1 #
edge $-1 $340 -14.234397677343761 $336 14.234397677343761 $222 $426 forward 7 unknown #
coedge $-1 $224 $223 $342 $427 reversed $85 $-1 #
edge $-1 $428 -34.901752967155886 $332 -24.453956162468604 $323 $429 forward 7 unknown #
coedge $-1 $339 $338 $224 $330 forward $321 $-1 #
edge $-1 $331 24.453956162468604 $430 34.901752967155886 $329 $431 forward 7 unknown #
vertex $-1 $330 $432 #
vertex $-1 $328 $433 #
straight-curve $-1 -54.13181072728085 -20.57791176547639 0 0 0 -1 I I #
coedge $-1 $323 $228 $233 $344 forward $220 $-1 #
coedge $-1 $228 $323 $324 $424 forward $220 $-1 #
vertex $-1 $229 $434 #
straight-curve $-1 -29.677854564812247 -27.278552361623628 -14.234397677343761 -1 0 0 I I #
coedge $-1 $329 $230 $325 $425 forward $321 $-1 #
coedge $-1 $230 $329 $232 $343 forward $321 $-1 #
vertex $-1 $231 $435 #
straight-curve $-1 -29.677854564812247 -27.278552361623628 14.234397677343761 1 0 0 I I #
coedge $-1 $233 $232 $327 $427 forward $234 $-1 #
edge $-1 $430 20.57791176547639 $236 27.278552361623628 $232 $436 forward 7 unknown #
edge $-1 $235 -27.278552361623628 $428 -20.57791176547639 $233 $437 forward 7 unknown #
point $-1 -64.579607531968136 -27.278552361623628 -14.234397677343761 #
point $-1 -64.579607531968136 -27.278552361623628 14.234397677343761 #
plane-surface $-1 0 0 14.234397677343761 0 0 1 1 0 0 forward_v I I I I #
coedge $-1 $358 $357 $350 $438 forward $239 $-1 #
coedge $-1 $350 $241 $243 $354 reversed $143 $-1 #
coedge $-1 $241 $349 $348 $438 reversed $143 $-1 #
coedge $-1 $249 $244 $241 $352 forward $250 $-1 #
edge $-1 $355 9.8530438144749404 $439 23.125210478738818 $351 $440 forward 7 unknown #
coedge $-1 $243 $242 $358 $441 reversed $89 $-1 #
edge $-1 $442 -85.081814792689329 $355 -69.431562415680375 $349 $443 forward 7 unknown #
vertex $-1 $245 $444 #
straight-curve $-1 0.63724247352664776 29.268740732080811 14.234397677343757 1 0 0 I I #
coedge $-1 $348 $246 $249 $362 reversed $239 $-1 #
coedge $-1 $246 $348 $353 $441 forward $239 $-1 #
vertex $-1 $247 $445 #
straight-curve $-1 -12.405749768295593 42.540907396344672 80.280373252176943 0 0 1 I I #
straight-curve $-1 -12.405749768295593 -29.612563284133863 51.027520633035138 0 0.84804809178421925 -0.52991927123019833 I I #
edge $-1 $439 -14.954719662402184 $251 12.405749768295593 $357 $446 forward 7 unknown #
point $-1 -12.405749768295593 42.540907396344672 14.234397677343761 #
point $-1 -12.405749768295593 29.268740732080794 14.234397677343765 #
edge $-1 $447 1 $447 0 $254 $-1 forward 7 unknown #
vertex $-1 $255 $448 #
ellipse-curve $-1 -6.9336558821560388 33.673970184648802 6.5176000830812422 0 0.52991927123019833 0.84804809178421925 2.5 0 0 1 I I #
point $-1 -4.4336558821560388 35.90482406421274 10.087712510247131 #
edge $-1 $449 1 $449 0 $258 $-1 forward 7 unknown #
vertex $-1 $259 $450 #
ellipse-curve $-1 1.2744849470532955 33.673970184648802 6.5176000830812422 0 0.52991927123019833 0.84804809178421925 2.5 0 0 1 I I #
point $-1 3.7744849470532955 35.90482406421274 10.087712510247131 #
edge $-1 $451 1 $451 0 $262 $-1 forward 7 unknown #
vertex $-1 $263 $452 #
ellipse-curve $-1 9.4826257762626227 33.673970184648802 6.5176000830812422 0 0.52991927123019833 0.84804809178421925 2.5 0 0 1 I I #
point $-1 11.982625776262623 35.90482406421274 10.087712510247131 #
loop $-1 $-1 $274 $266 #
plane-surface $-1 0 -42.540907396344672 0 0 1 0 0 0 1 forward_v I I I I #
coedge $-1 $380 $269 $271 $384 reversed $172 $-1 #
coedge $-1 $269 $379 $453 $454 reversed $172 $-1 #
coedge $-1 $277 $272 $269 $382 forward $267 $-1 #
edge $-1 $385 -26.223691525764309 $455 -12.951524861500452 $381 $456 forward 7 unknown #
coedge $-1 $271 $270 $388 $457 reversed $108 $-1 #
edge $-1 $458 8.3790584163743152e-015 $385 15.650252377008931 $379 $459 forward 7 unknown #
vertex $-1 $273 $460 #
straight-curve $-1 0.63724247352664776 -29.268740732080811 14.234397677343761 -1 0 0 I I #
coedge $-1 $453 $274 $277 $392 reversed $377 $-1 #
coedge $-1 $274 $453 $383 $457 forward $377 $-1 #
vertex $-1 $275 $461 #
straight-curve $-1 14.954719662402184 -42.540907396344672 57.737126607234629 0 0 1 I I #
straight-curve $-1 14.954719662402184 -42.540907396344679 5.941027343150509 0 -0.84804809178421925 -0.52991927123019833 I I #
edge $-1 $455 -12.405749768295593 $278 14.954719662402184 $387 $462 forward 7 unknown #
point $-1 14.954719662402184 -42.540907396344672 14.234397677343761 #
point $-1 14.954719662402184 -29.268740732080815 14.234397677343761 #
edge $-1 $463 1 $463 0 $281 $-1 forward 7 unknown #
vertex $-1 $282 $464 #
ellipse-curve $-1 -6.9336558821560388 -33.673970184648795 6.5176000830812457 0 -0.52991927123019833 0.84804809178421925 2.5 0 0 1 I I #
point $-1 -4.4336558821560388 -35.904824064212733 10.087712510247135 #
edge $-1 $465 1 $465 0 $285 $-1 forward 7 unknown #
vertex $-1 $286 $466 #
ellipse-curve $-1 1.2744849470532955 -33.673970184648795 6.5176000830812457 0 -0.52991927123019833 0.84804809178421925 2.5 0 0 1 I I #
point $-1 3.7744849470532955 -35.904824064212733 10.087712510247135 #
edge $-1 $467 1 $467 0 $289 $-1 forward 7 unknown #
vertex $-1 $290 $468 #
ellipse-curve $-1 9.4826257762626227 -33.673970184648795 6.5176000830812457 0 -0.52991927123019833 0.84804809178421925 2.5 0 0 1 I I #
point $-1 11.982625776262623 -35.904824064212733 10.087712510247135 #
plane-surface $-1 64.579607531968136 0 0 -1 0 0 0 0 1 forward_v I I I I #
coedge $-1 $298 $296 $300 $412 reversed $201 $-1 #
edge $-1 $311 -14.234397677343761 $414 14.234397677343761 $310 $469 forward 7 unknown #
vertex $-1 $412 $470 #
straight-curve $-1 -64.579607531968136 -42.540907396344672 0 0 0 -1 I I #
edge $-1 $410 -42.540907396344672 $414 42.540907396344672 $408 $471 forward 7 unknown #
straight-curve $-1 0 -42.540907396344672 -14.234397677343761 -1 0 0 I I #
vertex $-1 $303 $472 #
straight-curve $-1 0 42.540907396344672 -14.234397677343761 1 0 0 I I #
point $-1 64.579607531968136 42.540907396344672 -14.234397677343761 #
point $-1 64.579607531968136 -42.540907396344672 -14.234397677343761 #
straight-curve $-1 -64.579607531968136 0 14.234397677343761 0 -1 0 I I #
point $-1 -64.579607531968136 42.540907396344672 14.234397677343761 #
point $-1 -64.579607531968136 -42.540907396344672 14.234397677343761 #
straight-curve $-1 64.579607531968136 -42.540907396344672 0 0 0 -1 I I #
straight-curve $-1 64.579607531968136 42.540907396344672 0 0 0 -1 I I #
plane-surface $-1 -64.579607531968136 0 0 1 0 0 0 0 -1 forward_v I I I I #
edge $-1 $332 8.6137957337013855 $336 15.314436329848624 $335 $473 forward 7 unknown #
edge $-1 $340 -15.314436329848624 $331 -8.6137957337013855 $338 $474 forward 7 unknown #
straight-curve $-1 -54.13181072728085 -27.278552361623628 0 0 0 -1 I I #
edge $-1 $430 -14.234397677343761 $428 14.234397677343761 $342 $475 forward 7 unknown #
vertex $-1 $427 $476 #
straight-curve $-1 -29.677854564812247 -20.57791176547639 -14.234397677343761 1 0 0 I I #
vertex $-1 $343 $477 #
straight-curve $-1 -29.677854564812247 -20.57791176547639 14.234397677343761 -1 0 0 I I #
point $-1 -54.13181072728085 -20.57791176547639 14.234397677343761 #
point $-1 -54.13181072728085 -20.57791176547639 -14.234397677343761 #
point $-1 -54.13181072728085 -27.278552361623628 -14.234397677343761 #
point $-1 -54.13181072728085 -27.278552361623628 14.234397677343761 #
straight-curve $-1 -64.579607531968136 0 14.234397677343761 0 -1 0 I I #
straight-curve $-1 -64.579607531968136 0 -14.234397677343761 0 1 0 I I #
edge $-1 $439 66.045975574833179 $442 74.339345909026434 $348 $478 forward 7 unknown #
vertex $-1 $362 $479 #
straight-curve $-1 14.954719662402184 19.415696917605853 14.234397677343765 0 1 0 I I #
edge $-1 $442 -14.317477188875536 $359 13.04299224182224 $358 $480 forward 7 unknown #
vertex $-1 $441 $481 #
straight-curve $-1 14.954719662402184 -29.612563284133863 51.027520633035138 0 -0.84804809178421925 0.52991927123019833 I I #
point $-1 14.954719662402184 29.268740732080794 14.234397677343765 #
point $-1 -12.405749768295593 42.540907396344672 5.941027343150509 #
straight-curve $-1 0 42.540907396344672 14.234397677343761 -1 0 0 I I #
vertex $-1 $365 $482 #
point $-1 -4.4336558821560388 33.673970184648802 6.5176000830812422 #
vertex $-1 $369 $483 #
point $-1 3.7744849470532955 33.673970184648802 6.5176000830812422 #
vertex $-1 $373 $484 #
point $-1 11.982625776262623 33.673970184648802 6.5176000830812422 #
coedge $-1 $388 $387 $380 $454 forward $377 $-1 #
edge $-1 $455 43.502728929890864 $458 51.796099264084113 $453 $485 forward 7 unknown #
vertex $-1 $392 $486 #
straight-curve $-1 -12.405749768295593 -55.492432257845124 14.234397677343765 0 -1 0 I I #
edge $-1 $458 -13.04299224182224 $389 14.317477188875536 $388 $487 forward 7 unknown #
vertex $-1 $457 $488 #
straight-curve $-1 -12.405749768295593 -42.540907396344679 5.941027343150509 0 0.84804809178421925 0.52991927123019833 I I #
point $-1 -12.405749768295593 -29.268740732080815 14.234397677343761 #
point $-1 14.954719662402184 -42.540907396344672 5.9410273431505134 #
straight-curve $-1 0 -42.540907396344672 14.234397677343761 1 0 0 I I #
vertex $-1 $395 $489 #
point $-1 -4.4336558821560388 -33.673970184648795 6.5176000830812457 #
vertex $-1 $399 $490 #
point $-1 3.7744849470532955 -33.673970184648795 6.5176000830812457 #
vertex $-1 $403 $491 #
point $-1 11.982625776262623 -33.673970184648795 6.5176000830812457 #
straight-curve $-1 -64.579607531968136 42.540907396344672 0 0 0 -1 I I #
point $-1 -64.579607531968136 -42.540907396344672 -14.234397677343761 #
straight-curve $-1 -64.579607531968136 0 -14.234397677343761 0 1 0 I I #
point $-1 -64.579607531968136 42.540907396344672 -14.234397677343761 #
straight-curve $-1 -54.13181072728085 -11.964116031775005 -14.234397677343761 0 -1 0 I I #
straight-curve $-1 -54.13181072728085 -11.964116031775005 14.234397677343761 0 1 0 I I #
straight-curve $-1 -64.579607531968136 -20.57791176547639 0 0 0 -1 I I #
point $-1 -64.579607531968136 -20.57791176547639 -14.234397677343761 #
point $-1 -64.579607531968136 -20.57791176547639 14.234397677343761 #
straight-curve $-1 14.954719662402184 42.540907396344672 80.280373252176943 0 0 -1 I I #
point $-1 14.954719662402184 42.540907396344672 14.234397677343761 #
straight-curve $-1 0.63724247352664776 42.540907396344672 5.9410273431505054 -1 0 0 I I #
point $-1 14.954719662402184 42.540907396344672 5.941027343150509 #
point $-1 -6.9336558821560388 32.349172006573305 4.3974798536206938 #
point $-1 1.2744849470532955 32.349172006573305 4.3974798536206938 #
point $-1 9.4826257762626227 32.349172006573305 4.3974798536206938 #
straight-curve $-1 -12.405749768295593 -42.540907396344672 57.737126607234629 0 0 -1 I I #
point $-1 -12.405749768295593 -42.540907396344672 14.234397677343761 #
straight-curve $-1 0.63724247352664776 -42.540907396344672 5.9410273431505152 1 0 0 I I #
point $-1 -12.405749768295593 -42.540907396344672 5.9410273431505134 #
point $-1 -6.9336558821560388 -32.349172006573298 4.3974798536206974 #
point $-1 1.2744849470532955 -32.349172006573298 4.3974798536206974 #
point $-1 9.4826257762626227 -32.349172006573298 4.3974798536206974 #
End-of-ACIS-data 