500 0 17 0           
7 Unknown 11 ACIS 5.0 NT 24 Fri Mar 26 20:09:53 1999 
-1 9.9999999999999995e-007 1e-010 
body $-1 $17 $-1 $18 #
body $-1 $19 $-1 $20 #
body $-1 $21 $-1 $22 #
body $-1 $23 $-1 $24 #
body $-1 $25 $-1 $26 #
body $-1 $27 $-1 $28 #
body $-1 $29 $-1 $30 #
body $-1 $31 $-1 $32 #
body $-1 $33 $-1 $34 #
body $-1 $35 $-1 $36 #
body $-1 $37 $-1 $38 #
body $-1 $39 $-1 $40 #
body $-1 $41 $-1 $42 #
body $-1 $43 $-1 $44 #
body $-1 $45 $-1 $46 #
body $-1 $47 $-1 $48 #
body $-1 $49 $-1 $50 #
lump $-1 $-1 $51 $0 #
transform $-1 1 0 0 0 1 0 0 0 1 54.568315683462018 35.056316699567162 9.3285942512346551 1 rotate no_reflect no_shear #
lump $-1 $-1 $52 $1 #
transform $-1 1 0 0 0 1 0 0 0 1 54.568315683462018 35.056316699567162 9.3285942512346551 1 rotate no_reflect no_shear #
lump $-1 $-1 $53 $2 #
transform $-1 1 0 0 0 1 0 0 0 1 54.568315683462018 35.056316699567162 9.3285942512346551 1 rotate no_reflect no_shear #
lump $-1 $-1 $54 $3 #
transform $-1 1 0 0 0 1 0 0 0 1 54.568315683462018 35.056316699567162 9.3285942512346551 1 rotate no_reflect no_shear #
lump $-1 $-1 $55 $4 #
transform $-1 1 0 0 0 1 0 0 0 1 54.568315683462018 35.056316699567162 9.3285942512346551 1 rotate no_reflect no_shear #
lump $-1 $-1 $56 $5 #
transform $-1 1 0 0 0 1 0 0 0 1 54.568315683462018 35.056316699567162 9.3285942512346551 1 rotate no_reflect no_shear #
lump $-1 $-1 $57 $6 #
transform $-1 1 0 0 0 1 0 0 0 1 54.568315683462018 35.056316699567162 9.3285942512346551 1 rotate no_reflect no_shear #
lump $-1 $-1 $58 $7 #
transform $-1 1 0 0 0 1 0 0 0 1 54.568315683462018 35.056316699567162 9.3285942512346551 1 rotate no_reflect no_shear #
lump $-1 $-1 $59 $8 #
transform $-1 1 0 0 0 1 0 0 0 1 54.568315683462018 35.056316699567162 9.3285942512346551 1 rotate no_reflect no_shear #
lump $-1 $-1 $60 $9 #
transform $-1 1 0 0 0 1 0 0 0 1 54.568315683462018 35.056316699567162 9.3285942512346551 1 rotate no_reflect no_shear #
lump $-1 $-1 $61 $10 #
transform $-1 1 0 0 0 1 0 0 0 1 54.568315683462018 35.056316699567162 9.3285942512346551 1 rotate no_reflect no_shear #
lump $-1 $-1 $62 $11 #
transform $-1 1 0 0 0 1 0 0 0 1 54.568315683462018 35.056316699567162 9.3285942512346551 1 rotate no_reflect no_shear #
lump $-1 $-1 $63 $12 #
transform $-1 1 0 0 0 1 0 0 0 1 54.568315683462018 35.056316699567162 9.3285942512346551 1 rotate no_reflect no_shear #
lump $-1 $-1 $64 $13 #
transform $-1 1 0 0 0 1 0 0 0 1 54.568315683462018 35.056316699567162 9.3285942512346551 1 rotate no_reflect no_shear #
lump $-1 $-1 $65 $14 #
transform $-1 1 0 0 0 1 0 0 0 1 54.568315683462018 35.056316699567162 9.3285942512346551 1 rotate no_reflect no_shear #
lump $-1 $-1 $66 $15 #
transform $-1 1 0 0 0 1 0 0 0 1 54.568315683462018 35.056316699567162 9.3285942512346551 1 rotate no_reflect no_shear #
lump $-1 $-1 $67 $16 #
transform $-1 1 0 0 0 1 0 0 0 1 54.568315683462018 35.056316699567162 9.3285942512346551 1 rotate no_reflect no_shear #
shell $-1 $-1 $-1 $68 $-1 $17 #
shell $-1 $-1 $-1 $69 $-1 $19 #
shell $-1 $-1 $-1 $70 $-1 $21 #
shell $-1 $-1 $-1 $71 $-1 $23 #
shell $-1 $-1 $-1 $72 $-1 $25 #
shell $-1 $-1 $-1 $73 $-1 $27 #
shell $-1 $-1 $-1 $74 $-1 $29 #
shell $-1 $-1 $-1 $75 $-1 $31 #
shell $-1 $-1 $-1 $76 $-1 $33 #
shell $-1 $-1 $-1 $77 $-1 $35 #
shell $-1 $-1 $-1 $78 $-1 $37 #
shell $-1 $-1 $-1 $79 $-1 $39 #
shell $-1 $-1 $-1 $80 $-1 $41 #
shell $-1 $-1 $-1 $81 $-1 $43 #
shell $-1 $-1 $-1 $82 $-1 $45 #
shell $-1 $-1 $-1 $83 $-1 $47 #
shell $-1 $-1 $-1 $84 $-1 $49 #
face $-1 $85 $86 $51 $-1 $87 forward single #
face $-1 $88 $89 $52 $-1 $90 reversed single #
face $-1 $91 $92 $53 $-1 $93 reversed single #
face $-1 $94 $95 $54 $-1 $96 reversed single #
face $-1 $97 $98 $55 $-1 $99 forward single #
face $-1 $100 $101 $56 $-1 $102 forward single #
face $-1 $103 $104 $57 $-1 $105 reversed single #
face $-1 $106 $107 $58 $-1 $108 forward single #
face $-1 $109 $110 $59 $-1 $111 forward single #
face $-1 $112 $113 $60 $-1 $114 reversed single #
face $-1 $115 $116 $61 $-1 $117 forward single #
face $-1 $118 $119 $62 $-1 $120 forward single #
face $-1 $121 $122 $63 $-1 $123 reversed single #
face $-1 $124 $125 $64 $-1 $126 forward single #
face $-1 $127 $128 $65 $-1 $129 forward single #
face $-1 $130 $131 $66 $-1 $132 reversed single #
face $-1 $133 $134 $67 $-1 $135 forward single #
face $-1 $136 $137 $51 $-1 $138 reversed single #
loop $-1 $-1 $139 $68 #
plane-surface $-1 0 0 9.3285942512346551 0 0 1 1 0 0 forward_v I I I I #
face $-1 $140 $141 $52 $-1 $142 reversed single #
loop $-1 $-1 $143 $69 #
plane-surface $-1 -40.185933361600902 -29.809061436052463 0 1 0 0 0 0 -1 forward_v I I I I #
face $-1 $144 $145 $53 $-1 $146 reversed single #
loop $-1 $-1 $147 $70 #
plane-surface $-1 -38.048530271296805 24.561806172537761 0 0 1 0 0 0 1 forward_v I I I I #
face $-1 $148 $149 $54 $-1 $150 reversed single #
loop $-1 $-1 $151 $71 #
plane-surface $-1 -109.13663209800154 -24.561806172537764 100.13950332118009 0 1 0 -0.50000000669873634 0 0.8660253999169214 forward_v I I I I #
face $-1 $152 $153 $55 $-1 $154 forward single #
loop $-1 $155 $156 $72 #
cone-surface $-1 -50.511486275858246 -22.479821804476352 6.0061452818178971 0.50000000669873634 0 -0.8660253999169214 0.8660253999169214 0 0.50000000669873634 1 I I 0 1 1 forward I I I I #
face $-1 $157 $158 $56 $-1 $159 forward single #
loop $-1 $160 $161 $73 #
cone-surface $-1 -50.511486275858246 -19.356845252384232 6.0061452818178971 0.50000000669873634 0 -0.8660253999169214 0.8660253999169214 0 0.50000000669873634 1 I I 0 1 1 forward I I I I #
face $-1 $162 $163 $57 $-1 $164 reversed single #
loop $-1 $-1 $165 $74 #
plane-surface $-1 -109.13663209800154 -12.280903086268882 100.13950332118009 0 1 0 -0.50000000669873634 0 0.8660253999169214 forward_v I I I I #
face $-1 $166 $167 $58 $-1 $168 forward single #
loop $-1 $169 $170 $75 #
cone-surface $-1 -50.511486275858246 -10.198918718207466 6.0061452818178971 0.50000000669873634 0 -0.8660253999169214 0.8660253999169214 0 0.50000000669873634 1 I I 0 1 1 forward I I I I #
face $-1 $171 $172 $59 $-1 $173 forward single #
loop $-1 $174 $175 $76 #
cone-surface $-1 -50.511486275858246 -7.0759421661153468 6.0061452818178971 0.50000000669873634 0 -0.8660253999169214 0.8660253999169214 0 0.50000000669873634 1 I I 0 1 1 forward I I I I #
face $-1 $176 $177 $60 $-1 $178 reversed single #
loop $-1 $-1 $179 $77 #
plane-surface $-1 -109.13663209800154 3.5527136788005009e-015 100.13950332118009 0 1 0 -0.50000000669873634 0 0.8660253999169214 forward_v I I I I #
face $-1 $180 $181 $61 $-1 $182 forward single #
loop $-1 $183 $184 $78 #
cone-surface $-1 -50.511486275858246 2.0819843680614198 6.0061452818178971 0.50000000669873634 0 -0.8660253999169214 0.8660253999169214 0 0.50000000669873634 1 I I 0 1 1 forward I I I I #
face $-1 $185 $186 $62 $-1 $187 forward single #
loop $-1 $188 $189 $79 #
cone-surface $-1 -50.511486275858246 5.204960920153539 6.0061452818178971 0.50000000669873634 0 -0.8660253999169214 0.8660253999169214 0 0.50000000669873634 1 I I 0 1 1 forward I I I I #
face $-1 $190 $191 $63 $-1 $192 reversed single #
loop $-1 $-1 $193 $80 #
plane-surface $-1 -109.13663209800154 12.280903086268889 100.13950332118009 0 1 0 -0.50000000669873634 0 0.8660253999169214 forward_v I I I I #
face $-1 $194 $195 $64 $-1 $196 forward single #
loop $-1 $197 $198 $81 #
cone-surface $-1 -50.511486275858246 14.362887454330306 6.0061452818178971 0.50000000669873634 0 -0.8660253999169214 0.8660253999169214 0 0.50000000669873634 1 I I 0 1 1 forward I I I I #
face $-1 $199 $200 $65 $-1 $201 forward single #
loop $-1 $202 $203 $82 #
cone-surface $-1 -50.511486275858246 17.485864006422425 6.0061452818178971 0.50000000669873634 0 -0.8660253999169214 0.8660253999169214 0 0.50000000669873634 1 I I 0 1 1 forward I I I I #
face $-1 $204 $205 $66 $-1 $206 reversed single #
loop $-1 $-1 $207 $83 #
plane-surface $-1 17.229485685338105 -7.9609017517121554 153.31086243000567 0 -1 0 -0.51503808176128008 0 -0.85716729658548041 forward_v I I I I #
face $-1 $208 $209 $67 $-1 $210 forward single #
loop $-1 $211 $212 $84 #
cone-surface $-1 49.467222497578518 -12.140529374148887 5.949857331551244 -0.51503808176128008 0 -0.85716729658548041 0.85716729658548041 0 -0.51503808176128008 1 I I 0 1 1 forward I I I I #
face $-1 $213 $214 $51 $-1 $215 reversed single #
loop $-1 $-1 $216 $85 #
plane-surface $-1 0 0 -9.3285942512346551 0 0 1 1 0 0 forward_v I I I I #
coedge $-1 $217 $218 $219 $220 forward $86 $-1 #
face $-1 $221 $222 $52 $-1 $223 reversed single #
loop $-1 $-1 $224 $88 #
plane-surface $-1 -38.048530271296805 -24.561806172537764 0 0 -1 0 0 0 -1 forward_v I I I I #
coedge $-1 $225 $226 $227 $228 forward $89 $-1 #
face $-1 $229 $230 $53 $-1 $231 reversed single #
loop $-1 $-1 $232 $91 #
plane-surface $-1 -40.185933361600902 29.80906143605246 0 1 0 0 0 0 -1 forward_v I I I I #
coedge $-1 $233 $234 $235 $236 forward $92 $-1 #
face $-1 $237 $238 $54 $-1 $239 reversed single #
loop $-1 $-1 $240 $94 #
plane-surface $-1 -54.568315683462004 -20.918333528430292 5.6244084960540732 -0.50000000669873634 0 0.8660253999169214 0.8660253999169214 0 0.50000000669873634 forward_v I I I I #
coedge $-1 $241 $242 $243 $244 reversed $95 $-1 #
face $-1 $-1 $245 $55 $-1 $246 forward single #
loop $-1 $247 $248 $97 #
cone-surface $-1 -49.412575771923919 -22.479821804476352 4.1027764900329604 0.50000000669873634 0 -0.8660253999169214 0.4330126999584607 0 0.25000000334936817 1 I I -0.70710678118654746 0.70710678118654746 0.5 forward I I I I #
loop $-1 $-1 $249 $72 #
coedge $-1 $156 $156 $250 $251 reversed $98 $-1 #
face $-1 $-1 $252 $56 $-1 $253 forward single #
loop $-1 $254 $255 $100 #
cone-surface $-1 -49.412575771923919 -19.356845252384232 4.1027764900329604 0.50000000669873634 0 -0.8660253999169214 0.4330126999584607 0 0.25000000334936817 1 I I -0.70710678118654746 0.70710678118654746 0.5 forward I I I I #
loop $-1 $-1 $256 $73 #
coedge $-1 $161 $161 $257 $258 reversed $101 $-1 #
face $-1 $259 $260 $57 $-1 $261 reversed single #
loop $-1 $-1 $262 $103 #
plane-surface $-1 -54.568315683462004 -8.6374304421614099 5.6244084960540732 -0.50000000669873634 0 0.8660253999169214 0.8660253999169214 0 0.50000000669873634 forward_v I I I I #
coedge $-1 $263 $264 $265 $266 reversed $104 $-1 #
face $-1 $-1 $267 $58 $-1 $268 forward single #
loop $-1 $269 $270 $106 #
cone-surface $-1 -49.412575771923919 -10.198918718207466 4.1027764900329604 0.50000000669873634 0 -0.8660253999169214 0.4330126999584607 0 0.25000000334936817 1 I I -0.70710678118654746 0.70710678118654746 0.5 forward I I I I #
loop $-1 $-1 $271 $75 #
coedge $-1 $170 $170 $272 $273 reversed $107 $-1 #
face $-1 $-1 $274 $59 $-1 $275 forward single #
loop $-1 $276 $277 $109 #
cone-surface $-1 -49.412575771923919 -7.0759421661153468 4.1027764900329604 0.50000000669873634 0 -0.8660253999169214 0.4330126999584607 0 0.25000000334936817 1 I I -0.70710678118654746 0.70710678118654746 0.5 forward I I I I #
loop $-1 $-1 $278 $76 #
coedge $-1 $175 $175 $279 $280 reversed $110 $-1 #
face $-1 $281 $282 $60 $-1 $283 reversed single #
loop $-1 $-1 $284 $112 #
plane-surface $-1 -54.568315683462004 3.6434726441074758 5.6244084960540732 -0.50000000669873634 0 0.8660253999169214 0.8660253999169214 0 0.50000000669873634 forward_v I I I I #
coedge $-1 $285 $286 $287 $288 reversed $113 $-1 #
face $-1 $-1 $289 $61 $-1 $290 forward single #
loop $-1 $291 $292 $115 #
cone-surface $-1 -49.412575771923919 2.0819843680614198 4.1027764900329604 0.50000000669873634 0 -0.8660253999169214 0.4330126999584607 0 0.25000000334936817 1 I I -0.70710678118654746 0.70710678118654746 0.5 forward I I I I #
loop $-1 $-1 $293 $78 #
coedge $-1 $184 $184 $294 $295 reversed $116 $-1 #
face $-1 $-1 $296 $62 $-1 $297 forward single #
loop $-1 $298 $299 $118 #
cone-surface $-1 -49.412575771923919 5.204960920153539 4.1027764900329604 0.50000000669873634 0 -0.8660253999169214 0.4330126999584607 0 0.25000000334936817 1 I I -0.70710678118654746 0.70710678118654746 0.5 forward I I I I #
loop $-1 $-1 $300 $79 #
coedge $-1 $189 $189 $301 $302 reversed $119 $-1 #
face $-1 $303 $304 $63 $-1 $305 reversed single #
loop $-1 $-1 $306 $121 #
plane-surface $-1 -54.568315683462004 15.924375730376362 5.6244084960540732 -0.50000000669873634 0 0.8660253999169214 0.8660253999169214 0 0.50000000669873634 forward_v I I I I #
coedge $-1 $307 $308 $309 $310 reversed $122 $-1 #
face $-1 $-1 $311 $64 $-1 $312 forward single #
loop $-1 $313 $314 $124 #
cone-surface $-1 -49.412575771923919 14.362887454330306 4.1027764900329604 0.50000000669873634 0 -0.8660253999169214 0.4330126999584607 0 0.25000000334936817 1 I I -0.70710678118654746 0.70710678118654746 0.5 forward I I I I #
loop $-1 $-1 $315 $81 #
coedge $-1 $198 $198 $316 $317 reversed $125 $-1 #
face $-1 $-1 $318 $65 $-1 $319 forward single #
loop $-1 $320 $321 $127 #
cone-surface $-1 -49.412575771923919 17.485864006422425 4.1027764900329604 0.50000000669873634 0 -0.8660253999169214 0.4330126999584607 0 0.25000000334936817 1 I I -0.70710678118654746 0.70710678118654746 0.5 forward I I I I #
loop $-1 $-1 $322 $82 #
coedge $-1 $203 $203 $323 $324 reversed $128 $-1 #
face $-1 $325 $326 $66 $-1 $327 reversed single #
loop $-1 $-1 $328 $130 #
plane-surface $-1 -38.980035583770402 -12.140529374148883 59.762511162773251 0.51503808176128008 0 0.85716729658548041 0.85716729658548041 0 -0.51503808176128008 forward_v I I I I #
coedge $-1 $329 $330 $331 $332 reversed $131 $-1 #
face $-1 $-1 $333 $67 $-1 $334 forward single #
loop $-1 $335 $336 $133 #
cone-surface $-1 48.914720099038831 -12.140529374148887 5.0303389423600464 -0.51503808176128008 0 -0.85716729658548041 0.4285836482927402 0 -0.25751904088064004 1 I I -0.70710678118654691 0.70710678118654813 0.5 forward I I I I #
loop $-1 $-1 $337 $84 #
coedge $-1 $212 $212 $338 $339 reversed $134 $-1 #
face $-1 $340 $341 $51 $-1 $342 reversed single #
loop $-1 $-1 $343 $136 #
plane-surface $-1 0 -35.056316699567162 0 0 1 0 0 0 1 forward_v I I I I #
coedge $-1 $344 $345 $346 $347 forward $137 $-1 #
coedge $-1 $348 $139 $349 $350 forward $86 $-1 #
coedge $-1 $139 $348 $351 $352 forward $86 $-1 #
coedge $-1 $353 $354 $139 $220 reversed $355 $-1 #
edge $-1 $356 -35.056316699567162 $357 35.056316699567162 $219 $358 forward 7 unknown #
face $-1 $359 $360 $52 $-1 $361 forward single #
loop $-1 $-1 $362 $140 #
plane-surface $-1 -35.911127180992708 -29.809061436052463 0 -1 0 0 0 0 1 forward_v I I I I #
coedge $-1 $363 $364 $365 $366 forward $141 $-1 #
coedge $-1 $367 $143 $368 $369 reversed $89 $-1 #
coedge $-1 $143 $367 $370 $371 reversed $89 $-1 #
coedge $-1 $364 $363 $143 $228 reversed $141 $-1 #
edge $-1 $372 -9.3285942512346551 $373 9.3285942512346551 $227 $374 forward 7 unknown #
face $-1 $375 $376 $53 $-1 $377 reversed single #
loop $-1 $-1 $378 $144 #
plane-surface $-1 -35.911127180992708 29.80906143605246 0 -1 0 0 0 0 1 forward_v I I I I #
coedge $-1 $379 $380 $381 $382 reversed $145 $-1 #
coedge $-1 $383 $147 $384 $385 reversed $92 $-1 #
coedge $-1 $147 $383 $386 $387 reversed $92 $-1 #
coedge $-1 $380 $379 $147 $236 reversed $145 $-1 #
edge $-1 $388 -9.3285942512346551 $389 9.3285942512346551 $235 $390 forward 7 unknown #
face $-1 $391 $392 $54 $-1 $393 reversed single #
loop $-1 $-1 $394 $148 #
plane-surface $-1 -109.13663209800154 -17.27486088432282 100.13950332118009 0 -1 0 0.50000000669873634 0 -0.8660253999169214 forward_v I I I I #
coedge $-1 $395 $396 $397 $398 reversed $149 $-1 #
coedge $-1 $242 $151 $399 $400 reversed $95 $-1 #
coedge $-1 $151 $241 $395 $401 reversed $95 $-1 #
coedge $-1 $397 $402 $151 $244 forward $403 $-1 #
edge $-1 $404 3.6553875304434769e-007 $405 6.4158381795764114 $243 $406 forward 7 unknown #
loop $-1 $-1 $250 $152 #
plane-surface $-1 -54.568315683462004 -20.918333528430292 5.6244084960540732 -0.50000000669873634 0 0.8660253999169214 0.8660253999169214 0 0.50000000669873634 forward_v I I I I #
loop $-1 $-1 $407 $97 #
coedge $-1 $248 $248 $249 $408 reversed $153 $-1 #
coedge $-1 $249 $249 $248 $408 forward $155 $-1 #
coedge $-1 $250 $250 $156 $251 forward $245 $-1 #
edge $-1 $409 0 $409 6.2831853071796004 $250 $410 forward 7 unknown #
loop $-1 $-1 $257 $157 #
plane-surface $-1 -54.568315683462004 -20.918333528430292 5.6244084960540732 -0.50000000669873634 0 0.8660253999169214 0.8660253999169214 0 0.50000000669873634 forward_v I I I I #
loop $-1 $-1 $411 $100 #
coedge $-1 $255 $255 $256 $412 reversed $158 $-1 #
coedge $-1 $256 $256 $255 $412 forward $160 $-1 #
coedge $-1 $257 $257 $161 $258 forward $252 $-1 #
edge $-1 $413 0 $413 6.2831853071796004 $257 $414 forward 7 unknown #
face $-1 $415 $416 $57 $-1 $417 forward single #
loop $-1 $-1 $418 $162 #
plane-surface $-1 -109.13663209800154 -4.9939577980539376 100.13950332118009 0 -1 0 0.50000000669873634 0 -0.8660253999169214 forward_v I I I I #
coedge $-1 $419 $420 $421 $422 reversed $163 $-1 #
coedge $-1 $264 $165 $423 $424 reversed $104 $-1 #
coedge $-1 $165 $263 $419 $425 reversed $104 $-1 #
coedge $-1 $421 $426 $165 $266 forward $416 $-1 #
edge $-1 $427 3.6553875304434769e-007 $428 6.4158381795764114 $265 $429 forward 7 unknown #
loop $-1 $-1 $272 $166 #
plane-surface $-1 -54.568315683462004 -8.6374304421614099 5.6244084960540732 -0.50000000669873634 0 0.8660253999169214 0.8660253999169214 0 0.50000000669873634 forward_v I I I I #
loop $-1 $-1 $430 $106 #
coedge $-1 $270 $270 $271 $431 reversed $167 $-1 #
coedge $-1 $271 $271 $270 $431 forward $169 $-1 #
coedge $-1 $272 $272 $170 $273 forward $267 $-1 #
edge $-1 $432 0 $432 6.2831853071796004 $272 $433 forward 7 unknown #
loop $-1 $-1 $279 $171 #
plane-surface $-1 -54.568315683462004 -8.6374304421614099 5.6244084960540732 -0.50000000669873634 0 0.8660253999169214 0.8660253999169214 0 0.50000000669873634 forward_v I I I I #
loop $-1 $-1 $434 $109 #
coedge $-1 $277 $277 $278 $435 reversed $172 $-1 #
coedge $-1 $278 $278 $277 $435 forward $174 $-1 #
coedge $-1 $279 $279 $175 $280 forward $274 $-1 #
edge $-1 $436 0 $436 6.2831853071796004 $279 $437 forward 7 unknown #
face $-1 $438 $439 $60 $-1 $440 forward single #
loop $-1 $-1 $441 $176 #
plane-surface $-1 -109.13663209800154 7.2869452882149481 100.13950332118009 0 -1 0 0.50000000669873634 0 -0.8660253999169214 forward_v I I I I #
coedge $-1 $442 $443 $444 $445 reversed $177 $-1 #
coedge $-1 $286 $179 $446 $447 reversed $113 $-1 #
coedge $-1 $179 $285 $442 $448 reversed $113 $-1 #
coedge $-1 $444 $449 $179 $288 forward $439 $-1 #
edge $-1 $450 3.6553875304434769e-007 $451 6.4158381795764114 $287 $452 forward 7 unknown #
loop $-1 $-1 $294 $180 #
plane-surface $-1 -54.568315683462004 3.6434726441074758 5.6244084960540732 -0.50000000669873634 0 0.8660253999169214 0.8660253999169214 0 0.50000000669873634 forward_v I I I I #
loop $-1 $-1 $453 $115 #
coedge $-1 $292 $292 $293 $454 reversed $181 $-1 #
coedge $-1 $293 $293 $292 $454 forward $183 $-1 #
coedge $-1 $294 $294 $184 $295 forward $289 $-1 #
edge $-1 $455 0 $455 6.2831853071796004 $294 $456 forward 7 unknown #
loop $-1 $-1 $301 $185 #
plane-surface $-1 -54.568315683462004 3.6434726441074758 5.6244084960540732 -0.50000000669873634 0 0.8660253999169214 0.8660253999169214 0 0.50000000669873634 forward_v I I I I #
loop $-1 $-1 $457 $118 #
coedge $-1 $299 $299 $300 $458 reversed $186 $-1 #
coedge $-1 $300 $300 $299 $458 forward $188 $-1 #
coedge $-1 $301 $301 $189 $302 forward $296 $-1 #
edge $-1 $459 0 $459 6.2831853071796004 $301 $460 forward 7 unknown #
face $-1 $461 $462 $63 $-1 $463 forward single #
loop $-1 $-1 $464 $190 #
plane-surface $-1 -109.13663209800154 19.567848374483834 100.13950332118009 0 -1 0 0.50000000669873634 0 -0.8660253999169214 forward_v I I I I #
coedge $-1 $465 $466 $467 $468 reversed $191 $-1 #
coedge $-1 $308 $193 $469 $470 reversed $122 $-1 #
coedge $-1 $193 $307 $465 $471 reversed $122 $-1 #
coedge $-1 $467 $472 $193 $310 forward $462 $-1 #
edge $-1 $473 3.6553875304434769e-007 $474 6.4158381795764114 $309 $475 forward 7 unknown #
loop $-1 $-1 $316 $194 #
plane-surface $-1 -54.568315683462004 15.924375730376362 5.6244084960540732 -0.50000000669873634 0 0.8660253999169214 0.8660253999169214 0 0.50000000669873634 forward_v I I I I #
loop $-1 $-1 $476 $124 #
coedge $-1 $314 $314 $315 $477 reversed $195 $-1 #
coedge $-1 $315 $315 $314 $477 forward $197 $-1 #
coedge $-1 $316 $316 $198 $317 forward $311 $-1 #
edge $-1 $478 0 $478 6.2831853071796004 $316 $479 forward 7 unknown #
loop $-1 $-1 $323 $199 #
plane-surface $-1 -54.568315683462004 15.924375730376362 5.6244084960540732 -0.50000000669873634 0 0.8660253999169214 0.8660253999169214 0 0.50000000669873634 forward_v I I I I #
loop $-1 $-1 $480 $127 #
coedge $-1 $321 $321 $322 $481 reversed $200 $-1 #
coedge $-1 $322 $322 $321 $481 forward $202 $-1 #
coedge $-1 $323 $323 $203 $324 forward $318 $-1 #
edge $-1 $482 0 $482 6.2831853071796004 $323 $483 forward 7 unknown #
face $-1 $484 $485 $66 $-1 $486 forward single #
loop $-1 $-1 $487 $204 #
plane-surface $-1 17.229485685338105 -16.320156996585609 153.31086243000567 0 1 0 0.51503808176128008 0 0.85716729658548041 forward_v I I I I #
coedge $-1 $488 $489 $490 $491 reversed $205 $-1 #
coedge $-1 $330 $207 $492 $493 reversed $131 $-1 #
coedge $-1 $207 $329 $488 $494 reversed $131 $-1 #
coedge $-1 $490 $495 $207 $332 forward $485 $-1 #
edge $-1 $496 -45.953572840792965 $497 -36.341353184344051 $331 $498 forward 7 unknown #
loop $-1 $-1 $338 $208 #
plane-surface $-1 -38.980035583770402 -12.140529374148883 59.762511162773251 0.51503808176128008 0 0.85716729658548041 0.85716729658548041 0 -0.51503808176128008 forward_v I I I I #
loop $-1 $-1 $499 $133 #
coedge $-1 $336 $336 $337 $500 reversed $209 $-1 #
coedge $-1 $337 $337 $336 $500 forward $211 $-1 #
coedge $-1 $338 $338 $212 $339 forward $333 $-1 #
edge $-1 $501 0 $501 6.2831853071796004 $338 $502 forward 7 unknown #
face $-1 $503 $504 $51 $-1 $505 reversed single #
loop $-1 $-1 $506 $213 #
plane-surface $-1 -54.568315683462018 0 0 1 0 0 0 0 -1 forward_v I I I I #
coedge $-1 $507 $351 $508 $509 forward $214 $-1 #
coedge $-1 $510 $216 $507 $511 forward $137 $-1 #
coedge $-1 $216 $510 $512 $513 forward $137 $-1 #
coedge $-1 $354 $353 $216 $347 reversed $355 $-1 #
edge $-1 $514 -35.056316699567162 $515 35.056316699567162 $346 $516 forward 7 unknown #
coedge $-1 $218 $217 $517 $518 forward $86 $-1 #
coedge $-1 $519 $520 $217 $350 reversed $504 $-1 #
edge $-1 $357 -54.568315683462018 $521 54.568315683462018 $349 $522 forward 7 unknown #
coedge $-1 $343 $523 $218 $352 reversed $214 $-1 #
edge $-1 $524 -54.568315683462018 $356 54.568315683462018 $351 $525 forward 7 unknown #
coedge $-1 $346 $219 $523 $526 forward $355 $-1 #
coedge $-1 $219 $346 $519 $527 reversed $355 $-1 #
loop $-1 $-1 $353 $503 #
vertex $-1 $220 $528 #
vertex $-1 $220 $529 #
straight-curve $-1 54.568315683462018 0 9.3285942512346551 0 1 0 I I #
face $-1 $530 $531 $52 $-1 $532 reversed single #
loop $-1 $-1 $533 $221 #
plane-surface $-1 0 0 9.3285942512346551 0 0 1 1 0 0 forward_v I I I I #
coedge $-1 $534 $535 $536 $537 reversed $222 $-1 #
coedge $-1 $227 $224 $538 $539 reversed $141 $-1 #
coedge $-1 $224 $227 $540 $541 reversed $141 $-1 #
coedge $-1 $535 $534 $224 $366 reversed $222 $-1 #
edge $-1 $542 -9.3285942512346551 $543 9.3285942512346551 $365 $544 forward 7 unknown #
coedge $-1 $226 $225 $545 $546 reversed $89 $-1 #
coedge $-1 $538 $547 $225 $369 forward $531 $-1 #
edge $-1 $548 -20.151785981540932 $373 -9.6572754545115327 $368 $549 forward 7 unknown #
coedge $-1 $550 $540 $226 $371 forward $360 $-1 #
edge $-1 $372 9.6572754545115327 $551 20.151785981540932 $370 $552 forward 7 unknown #
vertex $-1 $371 $553 #
vertex $-1 $369 $554 #
straight-curve $-1 -40.185933361600902 -24.561806172537764 0 0 0 -1 I I #
face $-1 $555 $556 $53 $-1 $557 forward single #
loop $-1 $-1 $558 $229 #
plane-surface $-1 0 0 -9.3285942512346551 0 0 1 1 0 0 forward_v I I I I #
coedge $-1 $559 $560 $383 $561 forward $230 $-1 #
coedge $-1 $235 $232 $562 $563 reversed $145 $-1 #
coedge $-1 $232 $235 $564 $565 reversed $145 $-1 #
coedge $-1 $566 $567 $232 $382 forward $568 $-1 #
edge $-1 $569 -9.3285942512346551 $570 9.3285942512346551 $381 $571 forward 7 unknown #
coedge $-1 $234 $233 $378 $561 reversed $92 $-1 #
coedge $-1 $562 $558 $233 $385 forward $376 $-1 #
edge $-1 $572 16.886862045344305 $389 21.1616682259525 $384 $573 forward 7 unknown #
coedge $-1 $574 $564 $234 $387 forward $556 $-1 #
edge $-1 $388 -21.1616682259525 $575 -16.886862045344305 $386 $576 forward 7 unknown #
vertex $-1 $387 $577 #
vertex $-1 $385 $578 #
straight-curve $-1 -40.185933361600902 24.561806172537761 0 0 0 -1 I I #
face $-1 $-1 $403 $54 $-1 $579 forward single #
loop $-1 $-1 $580 $237 #
plane-surface $-1 -54.568315683462018 0 0 1 0 0 0 0 -1 forward_v I I I I #
coedge $-1 $581 $582 $583 $584 reversed $238 $-1 #
coedge $-1 $585 $240 $242 $401 forward $149 $-1 #
coedge $-1 $240 $585 $581 $586 forward $149 $-1 #
coedge $-1 $583 $243 $240 $398 forward $403 $-1 #
edge $-1 $405 -14.102639408322618 $587 -6.8156941201076737 $397 $588 forward 7 unknown #
coedge $-1 $589 $590 $241 $400 forward $392 $-1 #
edge $-1 $591 -44.445343164535977 $404 -40.741157409355388 $399 $592 forward 7 unknown #
edge $-1 $405 -7.4083714111077121 $591 1.6303764080091705e-014 $242 $593 forward 7 unknown #
coedge $-1 $243 $583 $589 $594 forward $403 $-1 #
loop $-1 $-1 $583 $391 #
vertex $-1 $400 $595 #
vertex $-1 $244 $596 #
straight-curve $-1 -54.568316049000771 -24.561806172537764 9.3285942512346551 1 0 0 I I #
coedge $-1 $407 $407 $-1 $597 reversed $247 $-1 #
edge $-1 $598 0 $598 6.2831853071796004 $248 $599 forward 7 unknown #
vertex $-1 $251 $600 #
ellipse-curve $-1 -51.360396776443196 -22.479821804476352 7.4765013736443553 -0.50000000669873634 0 0.8660253999169214 0.8660253999169214 0 0.50000000669873634 1 I I #
coedge $-1 $411 $411 $-1 $601 reversed $254 $-1 #
edge $-1 $602 0 $602 6.2831853071796004 $255 $603 forward 7 unknown #
vertex $-1 $258 $604 #
ellipse-curve $-1 -51.360396776443196 -19.356845252384232 7.4765013736443553 -0.50000000669873634 0 0.8660253999169214 0.8660253999169214 0 0.50000000669873634 1 I I #
face $-1 $-1 $605 $57 $-1 $606 reversed single #
loop $-1 $-1 $265 $259 #
plane-surface $-1 0 0 9.3285942512346551 0 0 1 1 0 0 forward_v I I I I #
coedge $-1 $607 $608 $609 $610 reversed $260 $-1 #
coedge $-1 $611 $262 $264 $425 forward $163 $-1 #
coedge $-1 $262 $611 $607 $612 forward $163 $-1 #
coedge $-1 $609 $265 $262 $422 forward $416 $-1 #
edge $-1 $428 -7.9621878651881772 $613 -0.67524257697323264 $421 $614 forward 7 unknown #
coedge $-1 $615 $616 $263 $424 forward $605 $-1 #
edge $-1 $617 -44.445343164535977 $427 -40.741157409355388 $423 $618 forward 7 unknown #
edge $-1 $428 -7.4083714111077121 $617 1.6303764080091705e-014 $264 $619 forward 7 unknown #
coedge $-1 $265 $609 $615 $620 forward $416 $-1 #
vertex $-1 $424 $621 #
vertex $-1 $266 $622 #
straight-curve $-1 -54.568316049000771 -12.280903086268882 9.3285942512346551 1 0 0 I I #
coedge $-1 $430 $430 $-1 $623 reversed $269 $-1 #
edge $-1 $624 0 $624 6.2831853071796004 $270 $625 forward 7 unknown #
vertex $-1 $273 $626 #
ellipse-curve $-1 -51.360396776443196 -10.198918718207466 7.4765013736443553 -0.50000000669873634 0 0.8660253999169214 0.8660253999169214 0 0.50000000669873634 1 I I #
coedge $-1 $434 $434 $-1 $627 reversed $276 $-1 #
edge $-1 $628 0 $628 6.2831853071796004 $277 $629 forward 7 unknown #
vertex $-1 $280 $630 #
ellipse-curve $-1 -51.360396776443196 -7.0759421661153468 7.4765013736443553 -0.50000000669873634 0 0.8660253999169214 0.8660253999169214 0 0.50000000669873634 1 I I #
face $-1 $-1 $631 $60 $-1 $632 reversed single #
loop $-1 $-1 $287 $281 #
plane-surface $-1 0 0 9.3285942512346551 0 0 1 1 0 0 forward_v I I I I #
coedge $-1 $633 $634 $635 $636 reversed $282 $-1 #
coedge $-1 $637 $284 $286 $448 forward $177 $-1 #
coedge $-1 $284 $637 $633 $638 forward $177 $-1 #
coedge $-1 $635 $287 $284 $445 forward $439 $-1 #
edge $-1 $451 -1.8217363220537344 $639 5.4652089661612102 $444 $640 forward 7 unknown #
coedge $-1 $641 $642 $285 $447 forward $631 $-1 #
edge $-1 $643 -44.445343164535977 $450 -40.741157409355388 $446 $644 forward 7 unknown #
edge $-1 $451 -7.4083714111077121 $643 1.6303764080091705e-014 $286 $645 forward 7 unknown #
coedge $-1 $287 $635 $641 $646 forward $439 $-1 #
vertex $-1 $288 $647 #
vertex $-1 $288 $648 #
straight-curve $-1 -54.568316049000771 3.5527136788005009e-015 9.3285942512346551 1 0 0 I I #
coedge $-1 $453 $453 $-1 $649 reversed $291 $-1 #
edge $-1 $650 0 $650 6.2831853071796004 $292 $651 forward 7 unknown #
vertex $-1 $295 $652 #
ellipse-curve $-1 -51.360396776443196 2.0819843680614198 7.4765013736443553 -0.50000000669873634 0 0.8660253999169214 0.8660253999169214 0 0.50000000669873634 1 I I #
coedge $-1 $457 $457 $-1 $653 reversed $298 $-1 #
edge $-1 $654 0 $654 6.2831853071796004 $299 $655 forward 7 unknown #
vertex $-1 $302 $656 #
ellipse-curve $-1 -51.360396776443196 5.204960920153539 7.4765013736443553 -0.50000000669873634 0 0.8660253999169214 0.8660253999169214 0 0.50000000669873634 1 I I #
face $-1 $-1 $657 $63 $-1 $658 reversed single #
loop $-1 $-1 $309 $303 #
plane-surface $-1 0 0 9.3285942512346551 0 0 1 1 0 0 forward_v I I I I #
coedge $-1 $659 $660 $661 $662 reversed $304 $-1 #
coedge $-1 $663 $306 $308 $471 forward $191 $-1 #
coedge $-1 $306 $663 $659 $664 forward $191 $-1 #
coedge $-1 $661 $309 $306 $468 forward $462 $-1 #
edge $-1 $474 4.3187152210807085 $665 11.605660509295653 $467 $666 forward 7 unknown #
coedge $-1 $667 $668 $307 $470 forward $657 $-1 #
edge $-1 $669 -44.445343164535977 $473 -40.741157409355388 $469 $670 forward 7 unknown #
edge $-1 $474 -7.4083714111077121 $669 1.6303764080091705e-014 $308 $671 forward 7 unknown #
coedge $-1 $309 $661 $667 $672 forward $462 $-1 #
vertex $-1 $310 $673 #
vertex $-1 $310 $674 #
straight-curve $-1 -54.568316049000771 12.280903086268889 9.3285942512346551 1 0 0 I I #
coedge $-1 $476 $476 $-1 $675 reversed $313 $-1 #
edge $-1 $676 0 $676 6.2831853071796004 $314 $677 forward 7 unknown #
vertex $-1 $317 $678 #
ellipse-curve $-1 -51.360396776443196 14.362887454330306 7.4765013736443553 -0.50000000669873634 0 0.8660253999169214 0.8660253999169214 0 0.50000000669873634 1 I I #
coedge $-1 $480 $480 $-1 $679 reversed $320 $-1 #
edge $-1 $680 0 $680 6.2831853071796004 $321 $681 forward 7 unknown #
vertex $-1 $324 $682 #
ellipse-curve $-1 -51.360396776443196 17.485864006422425 7.4765013736443553 -0.50000000669873634 0 0.8660253999169214 0.8660253999169214 0 0.50000000669873634 1 I I #
face $-1 $-1 $683 $66 $-1 $684 reversed single #
loop $-1 $-1 $331 $325 #
plane-surface $-1 0 0 9.3285942512346551 0 0 1 1 0 0 forward_v I I I I #
coedge $-1 $685 $686 $687 $688 reversed $326 $-1 #
coedge $-1 $689 $328 $330 $494 forward $205 $-1 #
coedge $-1 $328 $689 $685 $690 forward $205 $-1 #
coedge $-1 $687 $331 $328 $491 forward $485 $-1 #
edge $-1 $497 1.8906370646377137 $691 10.249892309511168 $490 $692 forward 7 unknown #
coedge $-1 $693 $694 $329 $493 forward $683 $-1 #
edge $-1 $695 -73.102441321338091 $496 -67.326836963768187 $492 $696 forward 7 unknown #
edge $-1 $497 97.922694840485008 $695 109.13663136692404 $330 $697 forward 7 unknown #
coedge $-1 $331 $687 $693 $698 forward $485 $-1 #
vertex $-1 $332 $699 #
vertex $-1 $332 $700 #
straight-curve $-1 8.6147428426690524 -7.9609017517121554 9.3285942512346622 -1 0 0 I I #
coedge $-1 $499 $499 $-1 $701 reversed $335 $-1 #
edge $-1 $702 0 $702 6.2831853071796004 $336 $703 forward 7 unknown #
vertex $-1 $339 $704 #
ellipse-curve $-1 49.762205855237568 -12.140529374148887 6.4407920724497041 0.51503808176128008 0 0.85716729658548041 0.85716729658548041 0 -0.51503808176128008 1 I I #
face $-1 $-1 $355 $51 $-1 $705 reversed single #
loop $-1 $-1 $519 $340 #
plane-surface $-1 0 35.056316699567162 0 0 -1 0 0 0 -1 forward_v I I I I #
coedge $-1 $706 $517 $520 $707 forward $341 $-1 #
coedge $-1 $523 $343 $344 $511 reversed $214 $-1 #
coedge $-1 $517 $706 $343 $509 reversed $341 $-1 #
edge $-1 $524 -9.3285942512346551 $708 9.3285942512346551 $508 $709 forward 7 unknown #
coedge $-1 $345 $344 $706 $710 forward $137 $-1 #
edge $-1 $515 -54.568315683462018 $708 54.568315683462018 $507 $711 forward 7 unknown #
coedge $-1 $520 $519 $345 $513 reversed $504 $-1 #
edge $-1 $712 -54.568315683462018 $514 54.568315683462018 $512 $713 forward 7 unknown #
vertex $-1 $347 $714 #
vertex $-1 $526 $715 #
straight-curve $-1 54.568315683462018 0 -9.3285942512346551 0 -1 0 I I #
coedge $-1 $506 $508 $348 $518 reversed $341 $-1 #
edge $-1 $521 -35.056316699567162 $524 35.056316699567162 $517 $716 forward 7 unknown #
coedge $-1 $512 $349 $354 $527 forward $504 $-1 #
coedge $-1 $349 $512 $506 $707 reversed $504 $-1 #
vertex $-1 $350 $717 #
straight-curve $-1 0 35.056316699567162 9.3285942512346551 -1 0 0 I I #
coedge $-1 $351 $507 $353 $526 reversed $214 $-1 #
vertex $-1 $518 $718 #
straight-curve $-1 0 -35.056316699567162 9.3285942512346551 1 0 0 I I #
edge $-1 $356 -9.3285942512346551 $515 9.3285942512346551 $353 $719 forward 7 unknown #
edge $-1 $357 -9.3285942512346551 $514 9.3285942512346551 $354 $720 forward 7 unknown #
point $-1 54.568315683462018 -35.056316699567162 9.3285942512346551 #
point $-1 54.568315683462018 35.056316699567162 9.3285942512346551 #
face $-1 $-1 $721 $52 $-1 $722 reversed single #
loop $-1 $-1 $723 $359 #
plane-surface $-1 0 0 -9.3285942512346551 0 0 1 1 0 0 forward_v I I I I #
coedge $-1 $540 $550 $535 $724 forward $360 $-1 #
coedge $-1 $365 $362 $723 $725 reversed $222 $-1 #
coedge $-1 $362 $365 $533 $724 reversed $222 $-1 #
coedge $-1 $726 $727 $362 $537 forward $721 $-1 #
edge $-1 $728 -9.3285942512346551 $729 9.3285942512346551 $536 $730 forward 7 unknown #
coedge $-1 $723 $368 $363 $539 forward $531 $-1 #
edge $-1 $373 -21.1616682259525 $543 -16.886862045344305 $538 $731 forward 7 unknown #
coedge $-1 $370 $533 $364 $541 forward $360 $-1 #
edge $-1 $542 16.886862045344305 $372 21.1616682259525 $540 $732 forward 7 unknown #
vertex $-1 $541 $733 #
vertex $-1 $539 $734 #
straight-curve $-1 -35.911127180992708 -24.561806172537764 0 0 0 -1 I I #
coedge $-1 $727 $726 $367 $546 forward $721 $-1 #
edge $-1 $551 -9.3285942512346551 $548 9.3285942512346551 $545 $735 forward 7 unknown #
coedge $-1 $368 $723 $727 $736 forward $531 $-1 #
vertex $-1 $369 $737 #
straight-curve $-1 -40.185933361600902 -14.904530718026232 -9.3285942512346551 0 1 0 I I #
coedge $-1 $533 $370 $726 $738 forward $360 $-1 #
vertex $-1 $738 $739 #
straight-curve $-1 -40.185933361600902 -14.904530718026232 9.3285942512346551 0 -1 0 I I #
point $-1 -40.185933361600902 -24.561806172537764 9.3285942512346551 #
point $-1 -40.185933361600902 -24.561806172537764 -9.3285942512346551 #
face $-1 $-1 $568 $53 $-1 $740 reversed single #
loop $-1 $-1 $574 $375 #
plane-surface $-1 0 0 9.3285942512346551 0 0 1 1 0 0 forward_v I I I I #
coedge $-1 $384 $741 $559 $742 forward $376 $-1 #
coedge $-1 $743 $378 $558 $742 reversed $230 $-1 #
coedge $-1 $378 $743 $574 $744 reversed $230 $-1 #
edge $-1 $575 -9.3285942512346551 $572 9.3285942512346551 $378 $745 forward 7 unknown #
coedge $-1 $741 $384 $379 $563 forward $376 $-1 #
edge $-1 $389 9.6572754545115309 $569 20.151785981540932 $562 $746 forward 7 unknown #
coedge $-1 $386 $747 $380 $565 forward $556 $-1 #
edge $-1 $570 -20.151785981540932 $388 -9.6572754545115309 $564 $748 forward 7 unknown #
coedge $-1 $749 $381 $747 $750 reversed $568 $-1 #
coedge $-1 $381 $749 $741 $751 reversed $568 $-1 #
loop $-1 $-1 $749 $555 #
vertex $-1 $751 $752 #
vertex $-1 $382 $753 #
straight-curve $-1 -40.185933361600902 35.056316699567162 0 0 0 1 I I #
vertex $-1 $385 $754 #
straight-curve $-1 -19.024265135648402 24.561806172537761 -9.3285942512346551 -1 0 0 I I #
coedge $-1 $747 $386 $560 $744 forward $556 $-1 #
vertex $-1 $387 $755 #
straight-curve $-1 -19.024265135648402 24.561806172537761 9.3285942512346551 1 0 0 I I #
point $-1 -40.185933361600902 24.561806172537761 9.3285942512346551 #
point $-1 -40.185933361600902 24.561806172537761 -9.3285942512346551 #
plane-surface $-1 0 0 9.3285942512346551 0 0 1 1 0 0 forward_v I I I I #
coedge $-1 $590 $589 $582 $756 forward $392 $-1 #
coedge $-1 $582 $394 $396 $586 reversed $238 $-1 #
coedge $-1 $394 $581 $580 $756 reversed $238 $-1 #
coedge $-1 $402 $397 $394 $584 forward $403 $-1 #
edge $-1 $587 -6.4158381795764114 $757 -3.6553875304434769e-007 $583 $758 forward 7 unknown #
coedge $-1 $396 $395 $590 $759 reversed $149 $-1 #
edge $-1 $760 -1.6303764080091705e-014 $587 7.4083714111077121 $581 $761 forward 7 unknown #
vertex $-1 $398 $762 #
straight-curve $-1 -48.152477869424359 -10.459166764215146 9.3285942512346569 0 1 0 I I #
coedge $-1 $580 $399 $402 $594 reversed $392 $-1 #
coedge $-1 $399 $580 $585 $759 forward $392 $-1 #
vertex $-1 $400 $763 #
straight-curve $-1 -54.568315683462018 -24.561806172537764 50.069751660590043 0 0 1 I I #
straight-curve $-1 -54.568315683462004 -24.561806172537764 5.6244084960540732 -0.8660253999169214 0 -0.50000000669873634 I I #
edge $-1 $757 17.27486088432282 $404 24.561806172537764 $589 $764 forward 7 unknown #
point $-1 -54.568315683462018 -24.561806172537764 9.3285942512346551 #
point $-1 -48.152477869424359 -24.561806172537764 9.3285942512346551 #
edge $-1 $765 1 $765 0 $407 $-1 forward 7 unknown #
vertex $-1 $408 $766 #
ellipse-curve $-1 -49.662575775273289 -22.479821804476352 4.5357891899914211 -0.50000000669873634 0 0.8660253999169214 0.8660253999169214 0 0.50000000669873634 1 I I #
point $-1 -50.494371376526288 -22.479821804476352 7.9765013803431088 #
edge $-1 $767 1 $767 0 $411 $-1 forward 7 unknown #
vertex $-1 $412 $768 #
ellipse-curve $-1 -49.662575775273289 -19.356845252384232 4.5357891899914211 -0.50000000669873634 0 0.8660253999169214 0.8660253999169214 0 0.50000000669873634 1 I I #
point $-1 -50.494371376526288 -19.356845252384232 7.9765013803431088 #
loop $-1 $-1 $423 $415 #
plane-surface $-1 -54.568315683462018 0 0 1 0 0 0 0 -1 forward_v I I I I #
coedge $-1 $608 $418 $420 $612 reversed $260 $-1 #
coedge $-1 $418 $607 $769 $770 reversed $260 $-1 #
coedge $-1 $426 $421 $418 $610 forward $416 $-1 #
edge $-1 $613 -6.4158381795764114 $771 -3.6553875304434769e-007 $609 $772 forward 7 unknown #
coedge $-1 $420 $419 $616 $773 reversed $163 $-1 #
edge $-1 $774 -1.6303764080091705e-014 $613 7.4083714111077121 $607 $775 forward 7 unknown #
vertex $-1 $422 $776 #
straight-curve $-1 -48.152477869424359 -4.3187152210807049 9.3285942512346569 0 1 0 I I #
coedge $-1 $769 $423 $426 $620 reversed $605 $-1 #
coedge $-1 $423 $769 $611 $773 forward $605 $-1 #
vertex $-1 $424 $777 #
straight-curve $-1 -54.568315683462018 -12.280903086268882 50.069751660590043 0 0 1 I I #
straight-curve $-1 -54.568315683462004 -12.280903086268882 5.6244084960540732 -0.8660253999169214 0 -0.50000000669873634 I I #
edge $-1 $771 4.9939577980539376 $427 12.280903086268882 $615 $778 forward 7 unknown #
point $-1 -54.568315683462018 -12.280903086268882 9.3285942512346551 #
point $-1 -48.152477869424359 -12.280903086268882 9.3285942512346551 #
edge $-1 $779 1 $779 0 $430 $-1 forward 7 unknown #
vertex $-1 $431 $780 #
ellipse-curve $-1 -49.662575775273289 -10.198918718207466 4.5357891899914211 -0.50000000669873634 0 0.8660253999169214 0.8660253999169214 0 0.50000000669873634 1 I I #
point $-1 -50.494371376526288 -10.198918718207466 7.9765013803431088 #
edge $-1 $781 1 $781 0 $434 $-1 forward 7 unknown #
vertex $-1 $435 $782 #
ellipse-curve $-1 -49.662575775273289 -7.0759421661153468 4.5357891899914211 -0.50000000669873634 0 0.8660253999169214 0.8660253999169214 0 0.50000000669873634 1 I I #
point $-1 -50.494371376526288 -7.0759421661153468 7.9765013803431088 #
loop $-1 $-1 $446 $438 #
plane-surface $-1 -54.568315683462018 0 0 1 0 0 0 0 -1 forward_v I I I I #
coedge $-1 $634 $441 $443 $638 reversed $282 $-1 #
coedge $-1 $441 $633 $783 $784 reversed $282 $-1 #
coedge $-1 $449 $444 $441 $636 forward $439 $-1 #
edge $-1 $639 -6.4158381795764114 $785 -3.6553875304434769e-007 $635 $786 forward 7 unknown #
coedge $-1 $443 $442 $642 $787 reversed $177 $-1 #
edge $-1 $788 -1.6303764080091705e-014 $639 7.4083714111077121 $633 $789 forward 7 unknown #
vertex $-1 $445 $790 #
straight-curve $-1 -48.152477869424359 1.8217363220537379 9.3285942512346569 0 1 0 I I #
coedge $-1 $783 $446 $449 $646 reversed $631 $-1 #
coedge $-1 $446 $783 $637 $787 forward $631 $-1 #
vertex $-1 $447 $791 #
straight-curve $-1 -54.568315683462018 3.5527136788005009e-015 50.069751660590043 0 0 1 I I #
straight-curve $-1 -54.568315683462004 3.5527136788005009e-015 5.6244084960540732 -0.8660253999169214 0 -0.50000000669873634 I I #
edge $-1 $785 -7.2869452882149481 $450 -3.5527136788005009e-015 $641 $792 forward 7 unknown #
point $-1 -54.568315683462018 3.5527136788005009e-015 9.3285942512346551 #
point $-1 -48.152477869424359 3.5527136788005009e-015 9.3285942512346551 #
edge $-1 $793 1 $793 0 $453 $-1 forward 7 unknown #
vertex $-1 $454 $794 #
ellipse-curve $-1 -49.662575775273289 2.0819843680614198 4.5357891899914211 -0.50000000669873634 0 0.8660253999169214 0.8660253999169214 0 0.50000000669873634 1 I I #
point $-1 -50.494371376526288 2.0819843680614198 7.9765013803431088 #
edge $-1 $795 1 $795 0 $457 $-1 forward 7 unknown #
vertex $-1 $458 $796 #
ellipse-curve $-1 -49.662575775273289 5.204960920153539 4.5357891899914211 -0.50000000669873634 0 0.8660253999169214 0.8660253999169214 0 0.50000000669873634 1 I I #
point $-1 -50.494371376526288 5.204960920153539 7.9765013803431088 #
loop $-1 $-1 $469 $461 #
plane-surface $-1 -54.568315683462018 0 0 1 0 0 0 0 -1 forward_v I I I I #
coedge $-1 $660 $464 $466 $664 reversed $304 $-1 #
coedge $-1 $464 $659 $797 $798 reversed $304 $-1 #
coedge $-1 $472 $467 $464 $662 forward $462 $-1 #
edge $-1 $665 -6.4158381795764114 $799 -3.6553875304434769e-007 $661 $800 forward 7 unknown #
coedge $-1 $466 $465 $668 $801 reversed $191 $-1 #
edge $-1 $802 -1.6303764080091705e-014 $665 7.4083714111077121 $659 $803 forward 7 unknown #
vertex $-1 $468 $804 #
straight-curve $-1 -48.152477869424359 7.9621878651881808 9.3285942512346569 0 1 0 I I #
coedge $-1 $797 $469 $472 $672 reversed $657 $-1 #
coedge $-1 $469 $797 $663 $801 forward $657 $-1 #
vertex $-1 $470 $805 #
straight-curve $-1 -54.568315683462018 12.280903086268889 50.069751660590043 0 0 1 I I #
straight-curve $-1 -54.568315683462004 12.280903086268889 5.6244084960540732 -0.8660253999169214 0 -0.50000000669873634 I I #
edge $-1 $799 -19.567848374483834 $473 -12.280903086268889 $667 $806 forward 7 unknown #
point $-1 -54.568315683462018 12.280903086268889 9.3285942512346551 #
point $-1 -48.152477869424359 12.280903086268889 9.3285942512346551 #
edge $-1 $807 1 $807 0 $476 $-1 forward 7 unknown #
vertex $-1 $477 $808 #
ellipse-curve $-1 -49.662575775273289 14.362887454330306 4.5357891899914211 -0.50000000669873634 0 0.8660253999169214 0.8660253999169214 0 0.50000000669873634 1 I I #
point $-1 -50.494371376526288 14.362887454330306 7.9765013803431088 #
edge $-1 $809 1 $809 0 $480 $-1 forward 7 unknown #
vertex $-1 $481 $810 #
ellipse-curve $-1 -49.662575775273289 17.485864006422425 4.5357891899914211 -0.50000000669873634 0 0.8660253999169214 0.8660253999169214 0 0.50000000669873634 1 I I #
point $-1 -50.494371376526288 17.485864006422425 7.9765013803431088 #
loop $-1 $-1 $492 $484 #
plane-surface $-1 54.568315683462018 0 0 -1 0 0 0 0 1 forward_v I I I I #
coedge $-1 $686 $487 $489 $690 reversed $326 $-1 #
coedge $-1 $487 $685 $811 $812 reversed $326 $-1 #
coedge $-1 $495 $490 $487 $688 forward $485 $-1 #
edge $-1 $691 36.341353184344051 $813 45.953572840792965 $687 $814 forward 7 unknown #
coedge $-1 $489 $488 $694 $815 reversed $205 $-1 #
edge $-1 $816 -109.13663136692404 $691 -97.922694840485008 $685 $817 forward 7 unknown #
vertex $-1 $491 $818 #
straight-curve $-1 44.956096027013089 -6.0702646870744417 9.3285942512346551 0 -1 0 I I #
coedge $-1 $811 $492 $495 $698 reversed $683 $-1 #
coedge $-1 $492 $811 $689 $815 forward $683 $-1 #
vertex $-1 $493 $819 #
straight-curve $-1 54.568315683462018 -7.9609017517121554 76.655431215002835 0 0 1 I I #
straight-curve $-1 -38.980035583770402 -7.9609017517121554 59.762511162773251 0.85716729658548041 0 -0.51503808176128008 I I #
edge $-1 $813 -16.320156996585609 $496 -7.9609017517121554 $693 $820 forward 7 unknown #
point $-1 54.568315683462018 -7.9609017517121554 9.3285942512346551 #
point $-1 44.956096027013103 -7.9609017517121554 9.3285942512346551 #
edge $-1 $821 1 $821 0 $499 $-1 forward 7 unknown #
vertex $-1 $500 $822 #
ellipse-curve $-1 49.172239139919469 -12.140529374148887 5.4589225906527874 0.51503808176128008 0 0.85716729658548041 0.85716729658548041 0 -0.51503808176128008 1 I I #
point $-1 50.619373151823041 -12.140529374148887 5.9257539906884196 #
plane-surface $-1 54.568315683462018 0 0 -1 0 0 0 0 1 forward_v I I I I #
coedge $-1 $508 $506 $510 $710 reversed $341 $-1 #
edge $-1 $521 -9.3285942512346551 $712 9.3285942512346551 $520 $823 forward 7 unknown #
vertex $-1 $710 $824 #
straight-curve $-1 -54.568315683462018 -35.056316699567162 0 0 0 -1 I I #
edge $-1 $708 -35.056316699567162 $712 35.056316699567162 $706 $825 forward 7 unknown #
straight-curve $-1 0 -35.056316699567162 -9.3285942512346551 -1 0 0 I I #
vertex $-1 $513 $826 #
straight-curve $-1 0 35.056316699567162 -9.3285942512346551 1 0 0 I I #
point $-1 54.568315683462018 35.056316699567162 -9.3285942512346551 #
point $-1 54.568315683462018 -35.056316699567162 -9.3285942512346551 #
straight-curve $-1 -54.568315683462018 0 9.3285942512346551 0 -1 0 I I #
point $-1 -54.568315683462018 35.056316699567162 9.3285942512346551 #
point $-1 -54.568315683462018 -35.056316699567162 9.3285942512346551 #
straight-curve $-1 54.568315683462018 -35.056316699567162 0 0 0 -1 I I #
straight-curve $-1 54.568315683462018 35.056316699567162 0 0 0 -1 I I #
loop $-1 $-1 $536 $530 #
plane-surface $-1 0 -35.056316699567162 0 0 1 0 0 0 1 forward_v I I I I #
coedge $-1 $547 $538 $534 $725 forward $531 $-1 #
edge $-1 $729 -20.151785981540932 $542 -9.6572754545115327 $533 $827 forward 7 unknown #
edge $-1 $543 9.6572754545115327 $728 20.151785981540932 $723 $828 forward 7 unknown #
coedge $-1 $545 $536 $550 $738 reversed $721 $-1 #
coedge $-1 $536 $545 $547 $736 reversed $721 $-1 #
vertex $-1 $736 $829 #
vertex $-1 $537 $830 #
straight-curve $-1 -35.911127180992708 -35.056316699567162 0 0 0 1 I I #
straight-curve $-1 -19.024265135648402 -24.561806172537764 -9.3285942512346551 1 0 0 I I #
straight-curve $-1 -19.024265135648402 -24.561806172537764 9.3285942512346551 -1 0 0 I I #
point $-1 -35.911127180992708 -24.561806172537764 9.3285942512346551 #
point $-1 -35.911127180992708 -24.561806172537764 -9.3285942512346551 #
straight-curve $-1 -40.185933361600902 -35.056316699567162 0 0 0 -1 I I #
edge $-1 $728 35.911127180992708 $548 40.185933361600902 $727 $831 forward 7 unknown #
point $-1 -40.185933361600902 -35.056316699567162 -9.3285942512346551 #
edge $-1 $551 -40.185933361600902 $729 -35.911127180992708 $726 $832 forward 7 unknown #
point $-1 -40.185933361600902 -35.056316699567162 9.3285942512346551 #
plane-surface $-1 0 35.056316699567162 0 0 -1 0 0 0 -1 forward_v I I I I #
coedge $-1 $558 $562 $567 $751 forward $376 $-1 #
edge $-1 $833 -20.151785981540932 $572 -9.6572754545115309 $558 $834 forward 7 unknown #
coedge $-1 $560 $559 $749 $835 reversed $230 $-1 #
edge $-1 $575 9.6572754545115309 $836 20.151785981540932 $574 $837 forward 7 unknown #
straight-curve $-1 -35.911127180992708 24.561806172537761 0 0 0 -1 I I #
straight-curve $-1 -40.185933361600902 14.90453071802623 -9.3285942512346551 0 1 0 I I #
coedge $-1 $564 $574 $566 $750 forward $556 $-1 #
straight-curve $-1 -40.185933361600902 14.90453071802623 9.3285942512346551 0 -1 0 I I #
coedge $-1 $567 $566 $743 $835 forward $568 $-1 #
edge $-1 $836 35.911127180992708 $570 40.185933361600902 $566 $838 forward 7 unknown #
edge $-1 $569 -40.185933361600902 $833 -35.911127180992708 $567 $839 forward 7 unknown #
point $-1 -40.185933361600902 35.056316699567162 -9.3285942512346551 #
point $-1 -40.185933361600902 35.056316699567162 9.3285942512346551 #
point $-1 -35.911127180992708 24.561806172537761 -9.3285942512346551 #
point $-1 -35.911127180992708 24.561806172537761 9.3285942512346551 #
edge $-1 $757 40.741157409355388 $760 44.445343164535977 $580 $840 forward 7 unknown #
vertex $-1 $594 $841 #
straight-curve $-1 -54.568316049000771 -17.27486088432282 9.3285942512346551 -1 0 0 I I #
edge $-1 $760 6.8156941201076737 $591 14.102639408322618 $590 $842 forward 7 unknown #
vertex $-1 $759 $843 #
straight-curve $-1 -54.568315683462004 -17.27486088432282 5.6244084960540732 0.8660253999169214 0 0.50000000669873634 I I #
point $-1 -48.152477869424359 -17.27486088432282 9.3285942512346551 #
point $-1 -54.568315683462018 -24.561806172537764 5.6244084960540652 #
straight-curve $-1 -54.568315683462018 0 9.3285942512346551 0 -1 0 I I #
vertex $-1 $597 $844 #
point $-1 -48.796550375356368 -22.479821804476352 5.0357891966901578 #
vertex $-1 $601 $845 #
point $-1 -48.796550375356368 -19.356845252384232 5.0357891966901578 #
coedge $-1 $616 $615 $608 $770 forward $605 $-1 #
edge $-1 $771 40.741157409355388 $774 44.445343164535977 $769 $846 forward 7 unknown #
vertex $-1 $620 $847 #
straight-curve $-1 -54.568316049000771 -4.9939577980539376 9.3285942512346551 -1 0 0 I I #
edge $-1 $774 0.67524257697323264 $617 7.9621878651881772 $616 $848 forward 7 unknown #
vertex $-1 $773 $849 #
straight-curve $-1 -54.568315683462004 -4.9939577980539376 5.6244084960540732 0.8660253999169214 0 0.50000000669873634 I I #
point $-1 -48.152477869424359 -4.9939577980539376 9.3285942512346551 #
point $-1 -54.568315683462018 -12.280903086268882 5.6244084960540652 #
straight-curve $-1 -54.568315683462018 0 9.3285942512346551 0 -1 0 I I #
vertex $-1 $623 $850 #
point $-1 -48.796550375356368 -10.198918718207466 5.0357891966901578 #
vertex $-1 $627 $851 #
point $-1 -48.796550375356368 -7.0759421661153468 5.0357891966901578 #
coedge $-1 $642 $641 $634 $784 forward $631 $-1 #
edge $-1 $785 40.741157409355388 $788 44.445343164535977 $783 $852 forward 7 unknown #
vertex $-1 $646 $853 #
straight-curve $-1 -54.568316049000771 7.2869452882149481 9.3285942512346551 -1 0 0 I I #
edge $-1 $788 -5.4652089661612102 $643 1.8217363220537344 $642 $854 forward 7 unknown #
vertex $-1 $787 $855 #
straight-curve $-1 -54.568315683462004 7.2869452882149481 5.6244084960540732 0.8660253999169214 0 0.50000000669873634 I I #
point $-1 -48.152477869424359 7.2869452882149481 9.3285942512346551 #
point $-1 -54.568315683462018 3.5527136788005009e-015 5.6244084960540652 #
straight-curve $-1 -54.568315683462018 0 9.3285942512346551 0 -1 0 I I #
vertex $-1 $649 $856 #
point $-1 -48.796550375356368 2.0819843680614198 5.0357891966901578 #
vertex $-1 $653 $857 #
point $-1 -48.796550375356368 5.204960920153539 5.0357891966901578 #
coedge $-1 $668 $667 $660 $798 forward $657 $-1 #
edge $-1 $799 40.741157409355388 $802 44.445343164535977 $797 $858 forward 7 unknown #
vertex $-1 $672 $859 #
straight-curve $-1 -54.568316049000771 19.567848374483834 9.3285942512346551 -1 0 0 I I #
edge $-1 $802 -11.605660509295653 $669 -4.3187152210807085 $668 $860 forward 7 unknown #
vertex $-1 $801 $861 #
straight-curve $-1 -54.568315683462004 19.567848374483834 5.6244084960540732 0.8660253999169214 0 0.50000000669873634 I I #
point $-1 -48.152477869424359 19.567848374483834 9.3285942512346551 #
point $-1 -54.568315683462018 12.280903086268889 5.6244084960540652 #
straight-curve $-1 -54.568315683462018 0 9.3285942512346551 0 -1 0 I I #
vertex $-1 $675 $862 #
point $-1 -48.796550375356368 14.362887454330306 5.0357891966901578 #
vertex $-1 $679 $863 #
point $-1 -48.796550375356368 17.485864006422425 5.0357891966901578 #
coedge $-1 $694 $693 $686 $812 forward $683 $-1 #
edge $-1 $813 67.326836963768187 $816 73.102441321338091 $811 $864 forward 7 unknown #
vertex $-1 $698 $865 #
straight-curve $-1 8.6147428426690524 -16.320156996585609 9.3285942512346622 1 0 0 I I #
edge $-1 $816 -10.249892309511168 $695 -1.8906370646377137 $694 $866 forward 7 unknown #
vertex $-1 $815 $867 #
straight-curve $-1 -38.980035583770402 -16.320156996585609 59.762511162773251 -0.85716729658548041 0 0.51503808176128008 I I #
point $-1 44.956096027013103 -16.320156996585609 9.3285942512346551 #
point $-1 54.568315683462018 -7.9609017517121554 3.5529898936647442 #
straight-curve $-1 54.568315683462018 0 9.3285942512346551 0 1 0 I I #
vertex $-1 $701 $868 #
point $-1 50.029406436504949 -12.140529374148887 4.9438845088915073 #
straight-curve $-1 -54.568315683462018 35.056316699567162 0 0 0 -1 I I #
point $-1 -54.568315683462018 -35.056316699567162 -9.3285942512346551 #
straight-curve $-1 -54.568315683462018 0 -9.3285942512346551 0 1 0 I I #
point $-1 -54.568315683462018 35.056316699567162 -9.3285942512346551 #
straight-curve $-1 -35.911127180992708 -14.904530718026232 9.3285942512346551 0 1 0 I I #
straight-curve $-1 -35.911127180992708 -14.904530718026232 -9.3285942512346551 0 -1 0 I I #
point $-1 -35.911127180992708 -35.056316699567162 -9.3285942512346551 #
point $-1 -35.911127180992708 -35.056316699567162 9.3285942512346551 #
straight-curve $-1 0 -35.056316699567162 -9.3285942512346551 -1 0 0 I I #
straight-curve $-1 0 -35.056316699567162 9.3285942512346551 1 0 0 I I #
vertex $-1 $835 $869 #
straight-curve $-1 -35.911127180992708 14.90453071802623 -9.3285942512346551 0 -1 0 I I #
edge $-1 $836 -9.3285942512346551 $833 9.3285942512346551 $749 $870 forward 7 unknown #
vertex $-1 $750 $871 #
straight-curve $-1 -35.911127180992708 14.90453071802623 9.3285942512346551 0 1 0 I I #
straight-curve $-1 0 35.056316699567162 9.3285942512346551 -1 0 0 I I #
straight-curve $-1 0 35.056316699567162 -9.3285942512346551 1 0 0 I I #
straight-curve $-1 -54.568315683462018 -17.27486088432282 50.069751660590043 0 0 -1 I I #
point $-1 -54.568315683462018 -17.27486088432282 9.3285942512346551 #
straight-curve $-1 -54.568315683462018 -10.459166764215146 5.624408496054067 0 -1 0 I I #
point $-1 -54.568315683462018 -17.27486088432282 5.6244084960540652 #
point $-1 -49.162575768574548 -22.479821804476352 3.6697637900744997 #
point $-1 -49.162575768574548 -19.356845252384232 3.6697637900744997 #
straight-curve $-1 -54.568315683462018 -4.9939577980539376 50.069751660590043 0 0 -1 I I #
point $-1 -54.568315683462018 -4.9939577980539376 9.3285942512346551 #
straight-curve $-1 -54.568315683462018 -4.3187152210807049 5.624408496054067 0 -1 0 I I #
point $-1 -54.568315683462018 -4.9939577980539376 5.6244084960540652 #
point $-1 -49.162575768574548 -10.198918718207466 3.6697637900744997 #
point $-1 -49.162575768574548 -7.0759421661153468 3.6697637900744997 #
straight-curve $-1 -54.568315683462018 7.2869452882149481 50.069751660590043 0 0 -1 I I #
point $-1 -54.568315683462018 7.2869452882149481 9.3285942512346551 #
straight-curve $-1 -54.568315683462018 1.8217363220537379 5.624408496054067 0 -1 0 I I #
point $-1 -54.568315683462018 7.2869452882149481 5.6244084960540652 #
point $-1 -49.162575768574548 2.0819843680614198 3.6697637900744997 #
point $-1 -49.162575768574548 5.204960920153539 3.6697637900744997 #
straight-curve $-1 -54.568315683462018 19.567848374483834 50.069751660590043 0 0 -1 I I #
point $-1 -54.568315683462018 19.567848374483834 9.3285942512346551 #
straight-curve $-1 -54.568315683462018 7.9621878651881808 5.624408496054067 0 -1 0 I I #
point $-1 -54.568315683462018 19.567848374483834 5.6244084960540652 #
point $-1 -49.162575768574548 14.362887454330306 3.6697637900744997 #
point $-1 -49.162575768574548 17.485864006422425 3.6697637900744997 #
straight-curve $-1 54.568315683462018 -16.320156996585609 76.655431215002835 0 0 -1 I I #
point $-1 54.568315683462018 -16.320156996585609 9.3285942512346551 #
straight-curve $-1 54.568315683462018 -6.0702646870744417 3.5529898936647513 0 1 0 I I #
point $-1 54.568315683462018 -16.320156996585609 3.5529898936647442 #
point $-1 48.657201058158194 -12.140529374148887 4.6017552940673054 #
point $-1 -35.911127180992708 35.056316699567162 -9.3285942512346551 #
straight-curve $-1 -35.911127180992708 35.056316699567162 0 0 0 -1 I I #
point $-1 -35.911127180992708 35.056316699567162 9.3285942512346551 #
End-of-ACIS-data 