500 0 5 0           
7 Unknown 11 ACIS 5.0 NT 24 Thu Mar 25 15:50:13 1999 
-1 9.9999999999999995e-007 1e-010 
body $-1 $5 $-1 $6 #
body $-1 $7 $-1 $8 #
body $-1 $9 $-1 $10 #
body $-1 $11 $-1 $12 #
body $-1 $13 $-1 $14 #
lump $-1 $-1 $15 $0 #
transform $-1 1 0 0 0 1 0 0 0 1 45.431073946348462 21.31157855531259 10.015017550226442 1 rotate no_reflect no_shear #
lump $-1 $-1 $16 $1 #
transform $-1 1 0 0 0 1 0 0 0 1 45.431073946348462 21.31157855531259 10.015017550226442 1 rotate no_reflect no_shear #
lump $-1 $-1 $17 $2 #
transform $-1 1 0 0 0 1 0 0 0 1 45.431073946348462 21.31157855531259 10.015017550226442 1 rotate no_reflect no_shear #
lump $-1 $-1 $18 $3 #
transform $-1 1 0 0 0 1 0 0 0 1 45.431073946348462 21.31157855531259 10.015017550226442 1 rotate no_reflect no_shear #
lump $-1 $-1 $19 $4 #
transform $-1 1 0 0 0 1 0 0 0 1 45.431073946348462 21.31157855531259 10.015017550226442 1 rotate no_reflect no_shear #
shell $-1 $-1 $-1 $20 $-1 $5 #
shell $-1 $-1 $-1 $21 $-1 $7 #
shell $-1 $-1 $-1 $22 $-1 $9 #
shell $-1 $-1 $-1 $23 $-1 $11 #
shell $-1 $-1 $-1 $24 $-1 $13 #
face $-1 $25 $26 $15 $-1 $27 forward single #
face $-1 $28 $29 $16 $-1 $30 forward single #
face $-1 $31 $32 $17 $-1 $33 forward single #
face $-1 $34 $35 $18 $-1 $36 forward single #
face $-1 $37 $38 $19 $-1 $39 reversed single #
face $-1 $40 $41 $15 $-1 $42 reversed single #
loop $-1 $-1 $43 $20 #
plane-surface $-1 0 0 10.015017550226442 0 0 1 1 0 0 forward_v I I I I #
face $-1 $44 $45 $16 $-1 $46 forward single #
loop $-1 $-1 $47 $21 #
plane-surface $-1 0 -14.998605655911909 5.9991688123979792 0 0 1 1 0 0 forward_v I I I I #
face $-1 $48 $49 $17 $-1 $50 forward single #
loop $-1 $-1 $51 $22 #
plane-surface $-1 0 14.998605655911906 5.9991688123979792 0 0 1 1 0 0 forward_v I I I I #
face $-1 $52 $53 $18 $-1 $54 forward single #
loop $-1 $-1 $55 $23 #
plane-surface $-1 -116.04422598237409 -8.6856327565112288 62.857085290496926 0 1 0 -0.77714596973225614 0 0.62932038083071107 forward_v I I I I #
face $-1 $56 $57 $19 $-1 $58 reversed single #
loop $-1 $59 $60 $24 #
cone-surface $-1 -42.844361368473251 -5.8761271575649765 7.173431551493854 0.77714596973225614 0 -0.62932038083071107 0.62932038083071107 0 0.77714596973225614 1 I I 0 1 1 forward I I I I #
face $-1 $61 $62 $15 $-1 $63 reversed single #
loop $-1 $-1 $64 $25 #
plane-surface $-1 0 0 -10.015017550226442 0 0 1 1 0 0 forward_v I I I I #
coedge $-1 $65 $66 $67 $68 forward $26 $-1 #
face $-1 $69 $70 $16 $-1 $71 forward single #
loop $-1 $-1 $72 $28 #
plane-surface $-1 0 -8.6856327565112288 8.0070931813122108 0 -1 0 0 0 -1 forward_v I I I I #
coedge $-1 $73 $74 $75 $76 reversed $29 $-1 #
face $-1 $77 $78 $17 $-1 $79 forward single #
loop $-1 $-1 $80 $31 #
plane-surface $-1 0 8.6856327565112252 8.0070931813122108 0 1 0 0 0 1 forward_v I I I I #
coedge $-1 $81 $82 $83 $84 reversed $32 $-1 #
face $-1 $85 $86 $18 $-1 $87 forward single #
loop $-1 $-1 $88 $34 #
plane-surface $-1 -45.431073946348462 -5.8761271575649765 5.6756837755685083 -0.77714596973225614 0 0.62932038083071107 0.62932038083071107 0 0.77714596973225614 forward_v I I I I #
coedge $-1 $89 $90 $91 $92 forward $35 $-1 #
face $-1 $93 $94 $19 $-1 $95 forward single #
loop $-1 $96 $97 $37 #
cone-surface $-1 -41.626037361204006 -5.8761271575649765 6.1868522496748781 0.77714596973225614 0 -0.62932038083071107 0.31466019041535553 0 0.38857298486612807 1 I I -0.70710678118654746 0.70710678118654746 0.5 forward I I I I #
loop $-1 $-1 $98 $24 #
coedge $-1 $60 $60 $99 $100 reversed $38 $-1 #
face $-1 $101 $102 $15 $-1 $103 reversed single #
loop $-1 $-1 $104 $40 #
plane-surface $-1 0 -21.31157855531259 0 0 1 0 0 0 1 forward_v I I I I #
coedge $-1 $105 $106 $107 $108 forward $41 $-1 #
coedge $-1 $109 $43 $110 $111 forward $26 $-1 #
coedge $-1 $43 $109 $112 $113 forward $26 $-1 #
coedge $-1 $114 $115 $43 $68 reversed $116 $-1 #
edge $-1 $117 -21.31157855531259 $118 21.31157855531259 $67 $119 forward 7 unknown #
face $-1 $120 $121 $16 $-1 $122 reversed single #
loop $-1 $-1 $123 $44 #
plane-surface $-1 0 0 10.015017550226442 0 0 1 1 0 0 forward_v I I I I #
coedge $-1 $124 $125 $126 $127 reversed $45 $-1 #
coedge $-1 $128 $47 $125 $129 reversed $29 $-1 #
coedge $-1 $47 $128 $130 $131 reversed $29 $-1 #
coedge $-1 $132 $126 $47 $76 forward $121 $-1 #
edge $-1 $133 1.1863299285552742 $134 13.812275727356635 $75 $135 forward 7 unknown #
face $-1 $136 $137 $17 $-1 $138 reversed single #
loop $-1 $-1 $139 $48 #
plane-surface $-1 0 0 10.015017550226442 0 0 1 1 0 0 forward_v I I I I #
coedge $-1 $140 $141 $142 $143 reversed $49 $-1 #
coedge $-1 $144 $51 $145 $146 reversed $32 $-1 #
coedge $-1 $51 $144 $141 $147 reversed $32 $-1 #
coedge $-1 $148 $149 $51 $84 forward $150 $-1 #
edge $-1 $151 -13.812275727356633 $152 -1.1863299285552724 $83 $153 forward 7 unknown #
face $-1 $154 $155 $18 $-1 $156 forward single #
loop $-1 $-1 $157 $52 #
plane-surface $-1 -116.04422598237409 -3.0666215586187242 62.857085290496926 0 -1 0 0.77714596973225614 0 -0.62932038083071107 forward_v I I I I #
coedge $-1 $158 $159 $160 $161 reversed $53 $-1 #
coedge $-1 $90 $55 $162 $163 forward $35 $-1 #
coedge $-1 $55 $89 $164 $165 reversed $35 $-1 #
coedge $-1 $166 $167 $55 $92 reversed $168 $-1 #
edge $-1 $169 -45.431073946348462 $170 -45.169120935589497 $91 $171 forward 7 unknown #
face $-1 $172 $173 $19 $-1 $174 forward single #
loop $-1 $-1 $175 $56 #
plane-surface $-1 -116.04422598237409 -8.6856327565112288 62.857085290496926 0 1 0 -0.77714596973225614 0 0.62932038083071107 forward_v I I I I #
loop $-1 $-1 $176 $37 #
coedge $-1 $97 $97 $98 $177 forward $57 $-1 #
coedge $-1 $98 $98 $97 $177 reversed $59 $-1 #
coedge $-1 $99 $99 $60 $100 forward $173 $-1 #
edge $-1 $178 0 $178 6.2831853071796004 $99 $179 forward 7 unknown #
face $-1 $180 $181 $15 $-1 $182 reversed single #
loop $-1 $-1 $183 $61 #
plane-surface $-1 -45.431073946348462 0 0 1 0 0 0 0 -1 forward_v I I I I #
coedge $-1 $184 $112 $185 $186 forward $62 $-1 #
coedge $-1 $187 $64 $184 $188 forward $41 $-1 #
coedge $-1 $64 $187 $189 $190 forward $41 $-1 #
coedge $-1 $115 $114 $64 $108 reversed $116 $-1 #
edge $-1 $191 -21.31157855531259 $192 21.31157855531259 $107 $193 forward 7 unknown #
coedge $-1 $66 $65 $194 $195 forward $26 $-1 #
coedge $-1 $196 $197 $65 $111 reversed $181 $-1 #
edge $-1 $118 -45.431073946348462 $198 45.431073946348462 $110 $199 forward 7 unknown #
coedge $-1 $104 $200 $66 $113 reversed $62 $-1 #
edge $-1 $201 -45.431073946348462 $117 45.431073946348462 $112 $202 forward 7 unknown #
coedge $-1 $107 $67 $200 $203 forward $116 $-1 #
coedge $-1 $67 $107 $196 $204 reversed $116 $-1 #
loop $-1 $-1 $114 $180 #
vertex $-1 $68 $205 #
vertex $-1 $68 $206 #
straight-curve $-1 45.431073946348462 0 10.015017550226442 0 1 0 I I #
face $-1 $207 $208 $16 $-1 $209 reversed single #
loop $-1 $-1 $126 $69 #
plane-surface $-1 45.431073946348462 0 0 -1 0 0 0 0 1 forward_v I I I I #
coedge $-1 $210 $211 $124 $212 forward $70 $-1 #
coedge $-1 $213 $72 $123 $212 reversed $45 $-1 #
coedge $-1 $72 $213 $73 $129 forward $45 $-1 #
coedge $-1 $75 $214 $72 $127 forward $121 $-1 #
edge $-1 $215 -6.0114709595703371 $133 -1.9956222217418738 $126 $216 forward 7 unknown #
coedge $-1 $74 $73 $217 $218 reversed $29 $-1 #
edge $-1 $219 -45.431073946348462 $133 45.431073946348462 $125 $220 forward 7 unknown #
coedge $-1 $221 $222 $74 $131 forward $223 $-1 #
edge $-1 $134 -45.431073946348462 $224 45.431073946348462 $130 $225 forward 7 unknown #
coedge $-1 $226 $75 $222 $227 forward $121 $-1 #
vertex $-1 $76 $228 #
vertex $-1 $227 $229 #
straight-curve $-1 45.431073946348462 -7.4993028279559546 5.9991688123979792 0 -1 0 I I #
face $-1 $230 $231 $17 $-1 $232 forward single #
loop $-1 $-1 $142 $77 #
plane-surface $-1 -45.431073946348462 0 0 1 0 0 0 0 -1 forward_v I I I I #
coedge $-1 $233 $234 $140 $235 forward $78 $-1 #
coedge $-1 $236 $80 $139 $235 reversed $49 $-1 #
coedge $-1 $80 $236 $82 $147 forward $49 $-1 #
coedge $-1 $237 $238 $80 $143 forward $137 $-1 #
edge $-1 $239 -6.0114709595703371 $240 -1.9956222217418738 $142 $241 forward 7 unknown #
coedge $-1 $82 $81 $237 $242 reversed $32 $-1 #
coedge $-1 $243 $244 $81 $146 forward $245 $-1 #
edge $-1 $246 -45.431073946348462 $151 45.431073946348462 $145 $247 forward 7 unknown #
edge $-1 $152 -45.431073946348462 $240 45.431073946348462 $141 $248 forward 7 unknown #
coedge $-1 $249 $83 $236 $250 forward $150 $-1 #
coedge $-1 $83 $251 $243 $252 reversed $150 $-1 #
loop $-1 $-1 $148 $253 #
vertex $-1 $252 $254 #
vertex $-1 $84 $255 #
straight-curve $-1 45.431073946348462 7.4993028279559528 5.9991688123979792 0 -1 0 I I #
face $-1 $256 $257 $18 $-1 $258 forward single #
loop $-1 $-1 $259 $85 #
plane-surface $-1 0 -8.6856327565112288 8.0070931813122108 0 -1 0 0 0 -1 forward_v I I I I #
coedge $-1 $260 $261 $262 $263 reversed $86 $-1 #
coedge $-1 $264 $88 $261 $265 reversed $53 $-1 #
coedge $-1 $88 $162 $259 $266 reversed $53 $-1 #
coedge $-1 $267 $262 $88 $161 forward $268 $-1 #
edge $-1 $269 0.12855797983623596 $270 5.7475691777287405 $160 $271 forward 7 unknown #
coedge $-1 $159 $264 $89 $163 reversed $53 $-1 #
edge $-1 $170 -0.41624746113129713 $272 0 $89 $273 forward 7 unknown #
coedge $-1 $274 $275 $90 $165 forward $276 $-1 #
edge $-1 $169 25.429373832850484 $272 25.752858869679955 $164 $277 forward 7 unknown #
coedge $-1 $278 $91 $275 $279 reversed $168 $-1 #
coedge $-1 $91 $280 $281 $282 reversed $168 $-1 #
loop $-1 $-1 $280 $283 #
vertex $-1 $279 $284 #
vertex $-1 $282 $285 #
straight-curve $-1 0 -8.6856327565112288 5.9991688123979792 1 0 0 I I #
face $-1 $286 $287 $19 $-1 $288 forward single #
loop $-1 $289 $99 $93 #
plane-surface $-1 -45.431073946348462 -5.8761271575649765 5.6756837755685083 -0.77714596973225614 0 0.62932038083071107 0.62932038083071107 0 0.77714596973225614 forward_v I I I I #
coedge $-1 $290 $291 $292 $293 forward $94 $-1 #
coedge $-1 $176 $176 $-1 $294 forward $96 $-1 #
edge $-1 $295 0 $295 6.2831853071796004 $97 $296 forward 7 unknown #
vertex $-1 $100 $297 #
ellipse-curve $-1 -43.674112390876374 -5.8761271575649765 7.8453506628974772 0.77714596973225614 0 -0.62932038083071107 0.62932038083071107 0 0.77714596973225614 1 I I #
face $-1 $-1 $116 $15 $-1 $298 reversed single #
loop $-1 $-1 $196 $101 #
plane-surface $-1 0 21.31157855531259 0 0 -1 0 0 0 -1 forward_v I I I I #
coedge $-1 $299 $194 $197 $300 forward $102 $-1 #
coedge $-1 $200 $104 $105 $188 reversed $62 $-1 #
coedge $-1 $194 $299 $104 $186 reversed $102 $-1 #
edge $-1 $201 -10.015017550226442 $301 10.015017550226442 $185 $302 forward 7 unknown #
coedge $-1 $106 $105 $299 $303 forward $41 $-1 #
edge $-1 $192 -45.431073946348462 $301 45.431073946348462 $184 $304 forward 7 unknown #
coedge $-1 $197 $196 $106 $190 reversed $181 $-1 #
edge $-1 $305 -45.431073946348462 $191 45.431073946348462 $189 $306 forward 7 unknown #
vertex $-1 $108 $307 #
vertex $-1 $203 $308 #
straight-curve $-1 45.431073946348462 0 -10.015017550226442 0 -1 0 I I #
coedge $-1 $183 $185 $109 $195 reversed $102 $-1 #
edge $-1 $198 -21.31157855531259 $201 21.31157855531259 $194 $309 forward 7 unknown #
coedge $-1 $189 $110 $115 $204 forward $181 $-1 #
coedge $-1 $110 $189 $183 $300 reversed $181 $-1 #
vertex $-1 $111 $310 #
straight-curve $-1 0 21.31157855531259 10.015017550226442 -1 0 0 I I #
coedge $-1 $112 $184 $114 $203 reversed $62 $-1 #
vertex $-1 $195 $311 #
straight-curve $-1 0 -21.31157855531259 10.015017550226442 1 0 0 I I #
edge $-1 $117 -10.015017550226442 $192 10.015017550226442 $114 $312 forward 7 unknown #
edge $-1 $118 -10.015017550226442 $191 10.015017550226442 $115 $313 forward 7 unknown #
point $-1 45.431073946348462 -21.31157855531259 10.015017550226442 #
point $-1 45.431073946348462 21.31157855531259 10.015017550226442 #
face $-1 $314 $223 $16 $-1 $315 reversed single #
loop $-1 $-1 $316 $120 #
plane-surface $-1 0 0 -10.015017550226442 0 0 1 1 0 0 forward_v I I I I #
coedge $-1 $317 $123 $214 $318 forward $70 $-1 #
coedge $-1 $123 $317 $319 $320 forward $70 $-1 #
edge $-1 $321 -45.431073946348462 $215 45.431073946348462 $123 $322 forward 7 unknown #
coedge $-1 $125 $124 $323 $324 reversed $45 $-1 #
coedge $-1 $126 $325 $210 $318 reversed $121 $-1 #
vertex $-1 $318 $326 #
straight-curve $-1 45.431073946348462 -8.6856327565112288 4.0035465906561054 0 0 -1 I I #
coedge $-1 $323 $327 $128 $218 forward $328 $-1 #
edge $-1 $224 -13.812275727356635 $219 -1.1863299285552742 $217 $329 forward 7 unknown #
vertex $-1 $218 $330 #
straight-curve $-1 0 -8.6856327565112288 5.9991688123979792 1 0 0 I I #
coedge $-1 $331 $130 $327 $332 forward $223 $-1 #
coedge $-1 $130 $331 $132 $227 reversed $223 $-1 #
loop $-1 $-1 $130 $207 #
vertex $-1 $332 $333 #
straight-curve $-1 0 -21.31157855531259 5.9991688123979792 -1 0 0 I I #
coedge $-1 $325 $132 $316 $334 reversed $121 $-1 #
edge $-1 $134 -5.9991688123979792 $335 10.015017550226442 $132 $336 forward 7 unknown #
point $-1 45.431073946348462 -8.6856327565112288 5.9991688123979792 #
point $-1 45.431073946348462 -21.31157855531259 5.9991688123979792 #
face $-1 $253 $337 $17 $-1 $338 forward single #
loop $-1 $-1 $339 $136 #
plane-surface $-1 0 -14.998605655911909 5.9991688123979792 0 0 1 1 0 0 forward_v I I I I #
coedge $-1 $340 $139 $238 $341 forward $78 $-1 #
coedge $-1 $139 $340 $249 $342 forward $78 $-1 #
edge $-1 $343 -45.431073946348462 $239 45.431073946348462 $139 $344 forward 7 unknown #
coedge $-1 $141 $140 $148 $250 reversed $49 $-1 #
coedge $-1 $345 $142 $144 $242 forward $137 $-1 #
coedge $-1 $142 $346 $233 $341 reversed $137 $-1 #
vertex $-1 $341 $347 #
vertex $-1 $242 $348 #
straight-curve $-1 -45.431073946348462 8.6856327565112252 4.0035465906561054 0 0 -1 I I #
edge $-1 $240 1.1863299285552724 $246 13.812275727356633 $237 $349 forward 7 unknown #
coedge $-1 $350 $145 $149 $252 forward $245 $-1 #
coedge $-1 $145 $350 $345 $351 reversed $245 $-1 #
loop $-1 $-1 $145 $352 #
vertex $-1 $351 $353 #
straight-curve $-1 0 21.31157855531259 5.9991688123979792 1 0 0 I I #
straight-curve $-1 0 8.6856327565112252 5.9991688123979792 -1 0 0 I I #
coedge $-1 $354 $148 $234 $342 reversed $150 $-1 #
edge $-1 $152 1.9956222217418738 $343 6.0114709595703371 $148 $355 forward 7 unknown #
coedge $-1 $149 $356 $357 $358 reversed $150 $-1 #
edge $-1 $151 -5.9991688123979792 $359 10.015017550226442 $149 $360 forward 7 unknown #
face $-1 $361 $150 $17 $-1 $362 reversed single #
point $-1 45.431073946348462 21.311578555312586 5.9991688123979792 #
point $-1 45.431073946348462 8.6856327565112252 5.9991688123979792 #
face $-1 $363 $364 $18 $-1 $365 forward single #
loop $-1 $-1 $366 $154 #
plane-surface $-1 0 14.998605655911906 5.9991688123979792 0 0 1 1 0 0 forward_v I I I I #
coedge $-1 $281 $367 $159 $266 forward $155 $-1 #
coedge $-1 $261 $157 $368 $369 reversed $86 $-1 #
coedge $-1 $157 $260 $158 $265 forward $86 $-1 #
coedge $-1 $160 $370 $157 $263 forward $268 $-1 #
edge $-1 $371 12.591039044838581 $269 16.104962155782758 $262 $372 forward 7 unknown #
coedge $-1 $162 $158 $274 $373 reversed $53 $-1 #
edge $-1 $374 0 $269 5.5836791846876981 $261 $375 forward 7 unknown #
edge $-1 $270 9.6175939057792021 $170 14.785025629335603 $259 $376 forward 7 unknown #
coedge $-1 $377 $160 $367 $378 forward $268 $-1 #
loop $-1 $-1 $160 $363 #
vertex $-1 $161 $379 #
vertex $-1 $378 $380 #
straight-curve $-1 -41.917150835404286 -2.9380635787824882 10.015017550226442 0 -1 0 I I #
vertex $-1 $373 $381 #
straight-curve $-1 -45.431073946348462 -8.6856327565112288 5.6756837755685083 -0.62932038083071107 0 -0.77714596973225614 I I #
coedge $-1 $368 $164 $264 $373 forward $276 $-1 #
coedge $-1 $164 $382 $166 $279 forward $276 $-1 #
loop $-1 $-1 $368 $383 #
straight-curve $-1 -45.431073946348462 -8.6856327565112288 31.428542645248463 0 0 -1 I I #
coedge $-1 $280 $166 $384 $385 reversed $168 $-1 #
edge $-1 $386 -13.812275727356635 $169 -1.1863299285552742 $275 $387 forward 7 unknown #
coedge $-1 $167 $278 $388 $389 reversed $168 $-1 #
coedge $-1 $390 $259 $167 $282 forward $155 $-1 #
edge $-1 $170 -45.169120935589497 $391 45.431073946348462 $281 $171 forward 7 unknown #
face $-1 $392 $168 $18 $-1 $393 forward single #
point $-1 -45.431073946348462 -8.6856327565112288 5.9991688123979792 #
point $-1 -45.169120935589497 -8.6856327565112288 5.9991688123979792 #
face $-1 $394 $395 $19 $-1 $396 forward single #
loop $-1 $-1 $397 $172 #
plane-surface $-1 -116.04422598237409 -3.0666215586187242 62.857085290496926 0 -1 0 0.77714596973225614 0 -0.62932038083071107 forward_v I I I I #
loop $-1 $-1 $398 $93 #
coedge $-1 $291 $175 $399 $400 forward $94 $-1 #
coedge $-1 $175 $290 $401 $402 reversed $94 $-1 #
coedge $-1 $403 $404 $175 $293 reversed $405 $-1 #
edge $-1 $406 -45.431073946348462 $407 -45.169120935589497 $292 $408 forward 7 unknown #
edge $-1 $409 1 $409 0 $176 $-1 forward 7 unknown #
vertex $-1 $177 $410 #
ellipse-curve $-1 -42.014610346070135 -5.8761271575649765 6.5015124400902335 -0.77714596973225614 0 0.62932038083071107 0.62932038083071107 0 0.77714596973225614 1 I I #
point $-1 -43.044792010045661 -5.8761271575649765 8.6224966326297299 #
plane-surface $-1 45.431073946348462 0 0 -1 0 0 0 0 1 forward_v I I I I #
coedge $-1 $185 $183 $187 $303 reversed $102 $-1 #
edge $-1 $198 -10.015017550226442 $305 10.015017550226442 $197 $411 forward 7 unknown #
vertex $-1 $303 $412 #
straight-curve $-1 -45.431073946348462 -21.31157855531259 0 0 0 -1 I I #
edge $-1 $301 -21.31157855531259 $305 21.31157855531259 $299 $413 forward 7 unknown #
straight-curve $-1 0 -21.31157855531259 -10.015017550226442 -1 0 0 I I #
vertex $-1 $190 $414 #
straight-curve $-1 0 21.31157855531259 -10.015017550226442 1 0 0 I I #
point $-1 45.431073946348462 21.31157855531259 -10.015017550226442 #
point $-1 45.431073946348462 -21.31157855531259 -10.015017550226442 #
straight-curve $-1 -45.431073946348462 0 10.015017550226442 0 -1 0 I I #
point $-1 -45.431073946348462 21.31157855531259 10.015017550226442 #
point $-1 -45.431073946348462 -21.31157855531259 10.015017550226442 #
straight-curve $-1 45.431073946348462 -21.31157855531259 0 0 0 -1 I I #
straight-curve $-1 45.431073946348462 21.31157855531259 0 0 0 -1 I I #
face $-1 $415 $328 $16 $-1 $416 reversed single #
plane-surface $-1 0 -21.31157855531259 0 0 1 0 0 0 1 forward_v I I I I #
coedge $-1 $417 $418 $226 $334 forward $208 $-1 #
coedge $-1 $211 $210 $419 $420 forward $70 $-1 #
edge $-1 $215 -8.6856327565112288 $421 21.31157855531259 $214 $422 forward 7 unknown #
coedge $-1 $423 $323 $211 $320 reversed $328 $-1 #
edge $-1 $424 -21.31157855531259 $321 8.6856327565112288 $319 $425 forward 7 unknown #
vertex $-1 $324 $426 #
straight-curve $-1 0 -8.6856327565112288 10.015017550226442 1 0 0 I I #
coedge $-1 $319 $217 $213 $324 forward $328 $-1 #
edge $-1 $219 1.9956222217418738 $321 6.0114709595703371 $323 $427 forward 7 unknown #
coedge $-1 $214 $226 $428 $429 reversed $121 $-1 #
point $-1 45.431073946348462 -8.6856327565112288 10.015017550226442 #
coedge $-1 $217 $430 $221 $332 reversed $328 $-1 #
loop $-1 $-1 $323 $314 #
straight-curve $-1 -45.431073946348462 -7.4993028279559546 5.9991688123979792 0 1 0 I I #
point $-1 -45.431073946348462 -8.6856327565112288 5.9991688123979792 #
coedge $-1 $222 $221 $417 $431 reversed $223 $-1 #
edge $-1 $224 -5.9991688123979792 $432 10.015017550226442 $327 $433 forward 7 unknown #
point $-1 -45.431073946348462 -21.31157855531259 5.9991688123979792 #
edge $-1 $434 -21.31157855531259 $335 21.31157855531259 $226 $435 forward 7 unknown #
vertex $-1 $227 $436 #
straight-curve $-1 45.431073946348462 -21.31157855531259 0 0 0 -1 I I #
loop $-1 $-1 $437 $230 #
plane-surface $-1 0 -8.6856327565112288 8.0070931813122108 0 -1 0 0 0 -1 forward_v I I I I #
coedge $-1 $438 $439 $440 $441 reversed $231 $-1 #
coedge $-1 $234 $233 $442 $443 forward $78 $-1 #
edge $-1 $239 -8.6856327565112252 $444 8.6856327565112288 $238 $445 forward 7 unknown #
edge $-1 $446 -8.6856327565112288 $343 8.6856327565112252 $249 $447 forward 7 unknown #
vertex $-1 $235 $448 #
straight-curve $-1 0 8.6856327565112252 10.015017550226442 -1 0 0 I I #
coedge $-1 $449 $237 $244 $351 forward $137 $-1 #
coedge $-1 $238 $450 $451 $452 forward $137 $-1 #
point $-1 -45.431073946348462 8.6856327565112252 10.015017550226442 #
point $-1 -45.431073946348462 8.6856327565112252 5.9991688123979792 #
straight-curve $-1 -45.431073946348462 7.4993028279559528 5.9991688123979792 0 1 0 I I #
coedge $-1 $244 $243 $453 $454 reversed $245 $-1 #
edge $-1 $246 -5.9991688123979792 $455 10.015017550226442 $244 $456 forward 7 unknown #
face $-1 $-1 $245 $17 $-1 $457 reversed single #
point $-1 -45.431073946348462 21.311578555312586 5.9991688123979792 #
coedge $-1 $440 $249 $437 $458 forward $150 $-1 #
straight-curve $-1 45.431073946348462 8.6856327565112252 4.0035465906561054 0 0 1 I I #
coedge $-1 $251 $440 $459 $460 forward $150 $-1 #
coedge $-1 $461 $453 $251 $358 forward $462 $-1 #
edge $-1 $359 -21.31157855531259 $463 21.31157855531259 $251 $464 forward 7 unknown #
vertex $-1 $358 $465 #
straight-curve $-1 45.431073946348462 21.31157855531259 0 0 0 -1 I I #
face $-1 $466 $462 $17 $-1 $467 reversed single #
plane-surface $-1 45.431073946348462 0 0 -1 0 0 0 0 1 forward_v I I I I #
face $-1 $383 $268 $18 $-1 $468 forward single #
loop $-1 $-1 $469 $256 #
plane-surface $-1 0 8.6856327565112252 8.0070931813122108 0 1 0 0 0 1 forward_v I I I I #
coedge $-1 $470 $471 $472 $473 reversed $257 $-1 #
coedge $-1 $259 $390 $267 $378 reversed $155 $-1 #
coedge $-1 $474 $274 $260 $369 forward $276 $-1 #
edge $-1 $374 -25.752858869679955 $371 -21.41352509502202 $368 $475 forward 7 unknown #
coedge $-1 $262 $476 $474 $477 forward $268 $-1 #
vertex $-1 $369 $478 #
straight-curve $-1 -58.022112991187043 -3.0666215586187242 10.015017550226442 1 0 0 I I #
edge $-1 $272 -5.7475691777287405 $374 -0.12855797983623596 $274 $479 forward 7 unknown #
vertex $-1 $373 $480 #
straight-curve $-1 -45.431073946348462 -3.0666215586187242 5.6756837755685083 0.62932038083071107 0 0.77714596973225614 I I #
straight-curve $-1 -35.864602975944194 -8.6856327565112288 17.489291892624259 -0.62932038083071107 0 -0.77714596973225614 I I #
coedge $-1 $476 $267 $481 $482 forward $268 $-1 #
edge $-1 $270 -41.917150835404286 $483 45.431073946348462 $267 $484 forward 7 unknown #
point $-1 -41.917150835404286 -3.0666215586187242 10.015017550226442 #
point $-1 -41.917150835404286 -8.6856327565112288 10.015017550226442 #
point $-1 -45.431073946348462 -8.6856327565112288 5.6756837755685083 #
coedge $-1 $275 $485 $486 $487 reversed $276 $-1 #
face $-1 $283 $276 $18 $-1 $488 reversed single #
coedge $-1 $486 $489 $278 $385 forward $490 $-1 #
edge $-1 $491 -45.431073946348462 $386 45.431073946348462 $384 $492 forward 7 unknown #
vertex $-1 $487 $493 #
straight-curve $-1 -45.431073946348462 -7.4993028279559546 5.9991688123979792 0 1 0 I I #
coedge $-1 $494 $495 $280 $389 forward $496 $-1 #
edge $-1 $391 1.1863299285552742 $491 13.812275727356635 $388 $497 forward 7 unknown #
coedge $-1 $367 $281 $495 $498 reversed $155 $-1 #
vertex $-1 $389 $499 #
face $-1 $500 $496 $18 $-1 $501 reversed single #
plane-surface $-1 0 -14.998605655911909 5.9991688123979792 0 0 1 1 0 0 forward_v I I I I #
face $-1 $502 $503 $19 $-1 $504 forward single #
loop $-1 $-1 $505 $286 #
plane-surface $-1 0 -8.6856327565112288 8.0070931813122108 0 -1 0 0 0 -1 forward_v I I I I #
coedge $-1 $506 $507 $508 $509 reversed $287 $-1 #
coedge $-1 $510 $511 $512 $513 reversed $289 $-1 #
coedge $-1 $511 $514 $290 $400 reversed $289 $-1 #
edge $-1 $407 -0.41624746113129713 $515 0 $290 $516 forward 7 unknown #
coedge $-1 $517 $518 $291 $402 forward $519 $-1 #
edge $-1 $406 25.429373832850484 $515 25.752858869679955 $401 $520 forward 7 unknown #
coedge $-1 $521 $292 $518 $522 reversed $405 $-1 #
coedge $-1 $292 $523 $524 $525 reversed $405 $-1 #
loop $-1 $-1 $523 $526 #
vertex $-1 $522 $527 #
vertex $-1 $525 $528 #
straight-curve $-1 0 -8.6856327565112288 5.9991688123979792 1 0 0 I I #
vertex $-1 $294 $529 #
point $-1 -41.385289965239423 -5.8761271575649765 7.2786584098224898 #
straight-curve $-1 -45.431073946348462 21.31157855531259 0 0 0 -1 I I #
point $-1 -45.431073946348462 -21.31157855531259 -10.015017550226442 #
straight-curve $-1 -45.431073946348462 0 -10.015017550226442 0 1 0 I I #
point $-1 -45.431073946348462 21.31157855531259 -10.015017550226442 #
face $-1 $-1 $530 $16 $-1 $531 reversed single #
plane-surface $-1 -45.431073946348462 0 0 1 0 0 0 0 -1 forward_v I I I I #
coedge $-1 $532 $316 $331 $431 forward $208 $-1 #
coedge $-1 $316 $532 $533 $534 forward $208 $-1 #
coedge $-1 $428 $535 $317 $420 reversed $530 $-1 #
edge $-1 $421 -45.431073946348462 $424 45.431073946348462 $419 $536 forward 7 unknown #
vertex $-1 $318 $537 #
straight-curve $-1 45.431073946348462 0 10.015017550226442 0 1 0 I I #
coedge $-1 $430 $319 $535 $538 forward $328 $-1 #
vertex $-1 $420 $539 #
straight-curve $-1 -45.431073946348462 0 10.015017550226442 0 -1 0 I I #
point $-1 -45.431073946348462 -8.6856327565112288 10.015017550226442 #
straight-curve $-1 -45.431073946348462 -8.6856327565112288 4.0035465906561054 0 0 1 I I #
coedge $-1 $533 $419 $325 $429 forward $530 $-1 #
edge $-1 $421 -10.015017550226442 $434 10.015017550226442 $325 $540 forward 7 unknown #
coedge $-1 $327 $423 $532 $541 reversed $328 $-1 #
edge $-1 $335 -45.431073946348462 $432 45.431073946348462 $331 $542 forward 7 unknown #
vertex $-1 $541 $543 #
straight-curve $-1 -45.431073946348462 -21.31157855531259 0 0 0 -1 I I #
vertex $-1 $334 $544 #
straight-curve $-1 45.431073946348462 0 -10.015017550226442 0 -1 0 I I #
point $-1 45.431073946348462 -21.31157855531259 -10.015017550226442 #
coedge $-1 $442 $545 $354 $458 reversed $337 $-1 #
coedge $-1 $546 $339 $545 $547 reversed $231 $-1 #
coedge $-1 $339 $546 $548 $549 reversed $231 $-1 #
coedge $-1 $356 $354 $339 $441 forward $150 $-1 #
edge $-1 $550 1.1863299285552742 $551 13.812275727356635 $440 $552 forward 7 unknown #
coedge $-1 $451 $437 $340 $443 reversed $337 $-1 #
edge $-1 $444 -45.431073946348462 $446 45.431073946348462 $340 $553 forward 7 unknown #
vertex $-1 $452 $554 #
straight-curve $-1 -45.431073946348462 0 10.015017550226442 0 -1 0 I I #
vertex $-1 $342 $555 #
straight-curve $-1 45.431073946348462 0 10.015017550226442 0 1 0 I I #
point $-1 45.431073946348462 8.6856327565112252 10.015017550226442 #
coedge $-1 $556 $345 $557 $558 reversed $137 $-1 #
coedge $-1 $346 $556 $546 $559 forward $137 $-1 #
coedge $-1 $545 $442 $346 $452 reversed $337 $-1 #
edge $-1 $560 1.9956222217418738 $444 6.0114709595703371 $346 $561 forward 7 unknown #
coedge $-1 $357 $557 $350 $454 forward $462 $-1 #
edge $-1 $455 -45.431073946348462 $359 45.431073946348462 $350 $562 forward 7 unknown #
vertex $-1 $454 $563 #
straight-curve $-1 -45.431073946348462 21.31157855531259 0 0 0 -1 I I #
plane-surface $-1 0 21.31157855531259 0 0 -1 0 0 0 -1 forward_v I I I I #
edge $-1 $446 -6.0114709595703371 $550 -1.9956222217418738 $354 $564 forward 7 unknown #
coedge $-1 $548 $565 $356 $460 reversed $566 $-1 #
edge $-1 $551 -5.9991688123979792 $463 10.015017550226442 $356 $567 forward 7 unknown #
coedge $-1 $557 $357 $565 $568 forward $462 $-1 #
loop $-1 $-1 $357 $361 #
vertex $-1 $460 $569 #
straight-curve $-1 45.431073946348462 0 -10.015017550226442 0 -1 0 I I #
point $-1 45.431073946348462 21.31157855531259 -10.015017550226442 #
face $-1 $352 $566 $17 $-1 $570 reversed single #
plane-surface $-1 0 0 -10.015017550226442 0 0 1 1 0 0 forward_v I I I I #
plane-surface $-1 0 0 10.015017550226442 0 0 1 1 0 0 forward_v I I I I #
coedge $-1 $571 $572 $573 $574 reversed $364 $-1 #
coedge $-1 $575 $366 $576 $577 reversed $257 $-1 #
coedge $-1 $366 $575 $572 $578 reversed $257 $-1 #
coedge $-1 $579 $580 $366 $473 forward $496 $-1 #
edge $-1 $581 -13.812275727356633 $582 -1.1863299285552724 $472 $583 forward 7 unknown #
coedge $-1 $573 $368 $370 $477 reversed $276 $-1 #
straight-curve $-1 -45.431073946348462 -3.0666215586187242 31.428542645248463 0 0 1 I I #
coedge $-1 $370 $377 $571 $584 forward $268 $-1 #
edge $-1 $585 -8.6856327565112252 $371 3.0666215586187242 $474 $586 forward 7 unknown #
point $-1 -45.431073946348462 -3.0666215586187242 10.015017550226442 #
straight-curve $-1 -45.431073946348462 -2.9380635787824882 5.6756837755685119 0 1 0 I I #
point $-1 -45.431073946348462 -3.0666215586187242 5.6756837755685083 #
coedge $-1 $495 $579 $377 $482 reversed $496 $-1 #
edge $-1 $483 -8.6856327565112288 $587 8.6856327565112252 $481 $588 forward 7 unknown #
vertex $-1 $482 $589 #
straight-curve $-1 0 -8.6856327565112288 10.015017550226442 1 0 0 I I #
coedge $-1 $382 $590 $591 $592 reversed $276 $-1 #
coedge $-1 $593 $384 $382 $487 forward $490 $-1 #
edge $-1 $386 -5.9991688123979792 $594 10.015017550226442 $382 $595 forward 7 unknown #
plane-surface $-1 -45.431073946348462 0 0 1 0 0 0 0 -1 forward_v I I I I #
coedge $-1 $384 $593 $494 $596 reversed $490 $-1 #
loop $-1 $-1 $384 $597 #
vertex $-1 $596 $598 #
straight-curve $-1 0 -21.31157855531259 5.9991688123979792 -1 0 0 I I #
point $-1 -45.431073946348462 -21.31157855531259 5.9991688123979792 #
coedge $-1 $599 $388 $489 $596 forward $496 $-1 #
coedge $-1 $388 $481 $390 $498 forward $496 $-1 #
loop $-1 $-1 $579 $392 #
straight-curve $-1 45.431073946348462 -7.4993028279559546 5.9991688123979792 0 -1 0 I I #
edge $-1 $483 -6.0114709595703371 $391 -1.9956222217418738 $495 $600 forward 7 unknown #
point $-1 45.431073946348462 -8.6856327565112288 5.9991688123979792 #
face $-1 $597 $601 $18 $-1 $602 reversed single #
plane-surface $-1 45.431073946348462 0 0 -1 0 0 0 0 1 forward_v I I I I #
face $-1 $603 $604 $19 $-1 $605 forward single #
loop $-1 $-1 $606 $394 #
plane-surface $-1 0 14.998605655911906 5.9991688123979792 0 0 1 1 0 0 forward_v I I I I #
coedge $-1 $524 $607 $511 $608 forward $395 $-1 #
coedge $-1 $507 $397 $609 $610 reversed $287 $-1 #
coedge $-1 $397 $506 $510 $611 forward $287 $-1 #
coedge $-1 $512 $612 $397 $509 forward $613 $-1 #
edge $-1 $614 12.591039044838581 $615 16.104962155782758 $508 $616 forward 7 unknown #
coedge $-1 $514 $398 $507 $611 reversed $289 $-1 #
coedge $-1 $398 $399 $505 $608 reversed $289 $-1 #
coedge $-1 $617 $508 $398 $513 forward $613 $-1 #
edge $-1 $615 0.12855797983623596 $618 5.7475691777287405 $512 $619 forward 7 unknown #
coedge $-1 $399 $510 $517 $620 reversed $289 $-1 #
vertex $-1 $620 $621 #
straight-curve $-1 -45.431073946348462 -8.6856327565112288 5.6756837755685083 -0.62932038083071107 0 -0.77714596973225614 I I #
coedge $-1 $609 $401 $514 $620 forward $519 $-1 #
coedge $-1 $401 $622 $403 $522 forward $519 $-1 #
loop $-1 $-1 $609 $623 #
straight-curve $-1 -45.431073946348462 -8.6856327565112288 31.428542645248463 0 0 -1 I I #
coedge $-1 $523 $403 $624 $625 reversed $405 $-1 #
edge $-1 $626 -13.812275727356635 $406 -1.1863299285552742 $518 $627 forward 7 unknown #
coedge $-1 $404 $521 $628 $629 reversed $405 $-1 #
coedge $-1 $630 $505 $404 $525 forward $395 $-1 #
edge $-1 $407 -45.169120935589497 $631 45.431073946348462 $524 $408 forward 7 unknown #
face $-1 $632 $405 $19 $-1 $633 forward single #
point $-1 -45.431073946348462 -8.6856327565112288 5.9991688123979792 #
point $-1 -45.169120935589497 -8.6856327565112288 5.9991688123979792 #
point $-1 -41.237464376337876 -5.8761271575649765 5.8721920592595227 #
loop $-1 $-1 $428 $415 #
plane-surface $-1 0 21.31157855531259 0 0 -1 0 0 0 -1 forward_v I I I I #
coedge $-1 $418 $417 $430 $541 forward $208 $-1 #
coedge $-1 $535 $428 $418 $534 reversed $530 $-1 #
edge $-1 $634 -45.431073946348462 $434 45.431073946348462 $533 $635 forward 7 unknown #
coedge $-1 $419 $533 $423 $538 reversed $530 $-1 #
straight-curve $-1 0 21.31157855531259 10.015017550226442 -1 0 0 I I #
point $-1 45.431073946348462 21.31157855531259 10.015017550226442 #
edge $-1 $424 -10.015017550226442 $634 10.015017550226442 $535 $636 forward 7 unknown #
point $-1 -45.431073946348462 21.31157855531259 10.015017550226442 #
straight-curve $-1 45.431073946348462 21.31157855531259 0 0 0 -1 I I #
edge $-1 $432 -21.31157855531259 $634 21.31157855531259 $430 $637 forward 7 unknown #
straight-curve $-1 0 -21.31157855531259 -10.015017550226442 -1 0 0 I I #
point $-1 -45.431073946348462 -21.31157855531259 -10.015017550226442 #
point $-1 45.431073946348462 21.31157855531259 -10.015017550226442 #
coedge $-1 $437 $451 $438 $547 forward $337 $-1 #
coedge $-1 $439 $438 $450 $559 reversed $231 $-1 #
edge $-1 $560 -45.431073946348462 $550 45.431073946348462 $545 $638 forward 7 unknown #
coedge $-1 $639 $459 $439 $549 forward $566 $-1 #
edge $-1 $551 -45.431073946348462 $640 45.431073946348462 $548 $641 forward 7 unknown #
vertex $-1 $441 $642 #
vertex $-1 $460 $643 #
straight-curve $-1 45.431073946348462 -7.4993028279559546 5.9991688123979792 0 -1 0 I I #
straight-curve $-1 0 -8.6856327565112288 10.015017550226442 1 0 0 I I #
point $-1 -45.431073946348462 -8.6856327565112288 10.015017550226442 #
point $-1 45.431073946348462 -8.6856327565112288 10.015017550226442 #
coedge $-1 $450 $449 $639 $644 reversed $137 $-1 #
coedge $-1 $453 $461 $449 $558 forward $462 $-1 #
edge $-1 $645 -21.31157855531259 $455 21.31157855531259 $449 $646 forward 7 unknown #
edge $-1 $640 -13.812275727356635 $560 -1.1863299285552742 $450 $647 forward 7 unknown #
vertex $-1 $559 $648 #
straight-curve $-1 -45.431073946348462 -8.6856327565112288 4.0035465906561054 0 0 1 I I #
straight-curve $-1 0 21.31157855531259 -10.015017550226442 1 0 0 I I #
point $-1 -45.431073946348462 21.31157855531259 -10.015017550226442 #
straight-curve $-1 45.431073946348462 -8.6856327565112288 4.0035465906561054 0 0 -1 I I #
coedge $-1 $459 $639 $461 $568 reversed $566 $-1 #
loop $-1 $-1 $548 $466 #
straight-curve $-1 45.431073946348462 -21.31157855531259 0 0 0 -1 I I #
edge $-1 $463 -45.431073946348462 $645 45.431073946348462 $565 $649 forward 7 unknown #
point $-1 45.431073946348462 -21.31157855531259 -10.015017550226442 #
plane-surface $-1 0 -21.31157855531259 0 0 1 0 0 0 1 forward_v I I I I #
coedge $-1 $650 $469 $476 $584 reversed $364 $-1 #
coedge $-1 $469 $650 $471 $578 forward $364 $-1 #
coedge $-1 $651 $474 $469 $574 forward $276 $-1 #
edge $-1 $585 -6.0114709595703371 $652 -1.9956222217418738 $573 $653 forward 7 unknown #
coedge $-1 $471 $470 $651 $654 reversed $257 $-1 #
coedge $-1 $655 $656 $470 $577 forward $657 $-1 #
edge $-1 $658 -45.431073946348462 $581 45.431073946348462 $576 $659 forward 7 unknown #
edge $-1 $582 -45.431073946348462 $652 45.431073946348462 $572 $660 forward 7 unknown #
coedge $-1 $481 $472 $650 $661 forward $496 $-1 #
coedge $-1 $472 $599 $655 $662 reversed $496 $-1 #
vertex $-1 $662 $663 #
vertex $-1 $473 $664 #
straight-curve $-1 45.431073946348462 7.4993028279559528 5.9991688123979792 0 -1 0 I I #
edge $-1 $587 -45.431073946348462 $585 45.431073946348462 $476 $665 forward 7 unknown #
vertex $-1 $477 $666 #
straight-curve $-1 -45.431073946348462 0 10.015017550226442 0 -1 0 I I #
vertex $-1 $584 $667 #
straight-curve $-1 45.431073946348462 0 10.015017550226442 0 1 0 I I #
point $-1 45.431073946348462 -8.6856327565112288 10.015017550226442 #
coedge $-1 $485 $651 $656 $668 forward $276 $-1 #
coedge $-1 $669 $670 $485 $592 forward $601 $-1 #
edge $-1 $594 -21.31157855531259 $671 21.31157855531259 $485 $672 forward 7 unknown #
coedge $-1 $489 $486 $670 $673 reversed $490 $-1 #
vertex $-1 $592 $674 #
straight-curve $-1 -45.431073946348462 -21.31157855531259 0 0 0 -1 I I #
edge $-1 $491 -5.9991688123979792 $675 10.015017550226442 $494 $676 forward 7 unknown #
face $-1 $677 $490 $18 $-1 $678 reversed single #
point $-1 45.431073946348462 -21.31157855531259 5.9991688123979792 #
coedge $-1 $580 $494 $679 $680 reversed $496 $-1 #
straight-curve $-1 45.431073946348462 -8.6856327565112288 4.0035465906561054 0 0 -1 I I #
loop $-1 $-1 $679 $500 #
plane-surface $-1 0 0 -10.015017550226442 0 0 1 1 0 0 forward_v I I I I #
face $-1 $623 $613 $19 $-1 $681 forward single #
loop $-1 $-1 $682 $502 #
plane-surface $-1 0 8.6856327565112252 8.0070931813122108 0 1 0 0 0 1 forward_v I I I I #
coedge $-1 $683 $684 $685 $686 reversed $503 $-1 #
coedge $-1 $505 $630 $617 $687 reversed $395 $-1 #
edge $-1 $618 9.6175939057792021 $407 14.785025629335603 $505 $688 forward 7 unknown #
coedge $-1 $689 $517 $506 $610 forward $519 $-1 #
edge $-1 $690 -25.752858869679955 $614 -21.41352509502202 $609 $691 forward 7 unknown #
edge $-1 $690 0 $615 5.5836791846876981 $507 $692 forward 7 unknown #
coedge $-1 $508 $693 $689 $694 forward $613 $-1 #
loop $-1 $-1 $512 $603 #
vertex $-1 $610 $695 #
vertex $-1 $513 $696 #
straight-curve $-1 -58.022112991187043 -3.0666215586187242 10.015017550226442 1 0 0 I I #
coedge $-1 $697 $512 $607 $687 forward $613 $-1 #
vertex $-1 $687 $698 #
straight-curve $-1 -41.917150835404286 -2.9380635787824882 10.015017550226442 0 -1 0 I I #
edge $-1 $515 -5.7475691777287405 $690 -0.12855797983623596 $517 $699 forward 7 unknown #
point $-1 -45.431073946348462 -8.6856327565112288 5.6756837755685083 #
coedge $-1 $518 $700 $701 $702 reversed $519 $-1 #
face $-1 $526 $519 $19 $-1 $703 reversed single #
coedge $-1 $701 $704 $521 $625 forward $705 $-1 #
edge $-1 $706 -45.431073946348462 $626 45.431073946348462 $624 $707 forward 7 unknown #
vertex $-1 $702 $708 #
straight-curve $-1 -45.431073946348462 -7.4993028279559546 5.9991688123979792 0 1 0 I I #
coedge $-1 $709 $710 $523 $629 forward $711 $-1 #
edge $-1 $631 1.1863299285552742 $706 13.812275727356635 $628 $712 forward 7 unknown #
coedge $-1 $607 $524 $710 $713 reversed $395 $-1 #
vertex $-1 $629 $714 #
face $-1 $715 $711 $19 $-1 $716 reversed single #
plane-surface $-1 0 -14.998605655911909 5.9991688123979792 0 0 1 1 0 0 forward_v I I I I #
vertex $-1 $534 $717 #
straight-curve $-1 0 21.31157855531259 -10.015017550226442 1 0 0 I I #
straight-curve $-1 -45.431073946348462 21.31157855531259 0 0 0 -1 I I #
straight-curve $-1 -45.431073946348462 0 -10.015017550226442 0 1 0 I I #
straight-curve $-1 0 -8.6856327565112288 5.9991688123979792 1 0 0 I I #
coedge $-1 $565 $548 $556 $644 forward $566 $-1 #
vertex $-1 $644 $718 #
straight-curve $-1 0 -21.31157855531259 5.9991688123979792 -1 0 0 I I #
point $-1 45.431073946348462 -8.6856327565112288 5.9991688123979792 #
point $-1 45.431073946348462 -21.31157855531259 5.9991688123979792 #
edge $-1 $640 -5.9991688123979792 $645 10.015017550226442 $556 $719 forward 7 unknown #
vertex $-1 $558 $720 #
straight-curve $-1 -45.431073946348462 0 -10.015017550226442 0 1 0 I I #
straight-curve $-1 -45.431073946348462 -7.4993028279559546 5.9991688123979792 0 1 0 I I #
point $-1 -45.431073946348462 -8.6856327565112288 5.9991688123979792 #
straight-curve $-1 0 -21.31157855531259 -10.015017550226442 -1 0 0 I I #
coedge $-1 $572 $571 $579 $661 reversed $364 $-1 #
coedge $-1 $590 $573 $575 $654 forward $276 $-1 #
vertex $-1 $654 $721 #
straight-curve $-1 -45.431073946348462 8.6856327565112252 4.0035465906561054 0 0 -1 I I #
edge $-1 $652 1.1863299285552724 $658 13.812275727356633 $651 $722 forward 7 unknown #
coedge $-1 $723 $576 $580 $662 forward $657 $-1 #
coedge $-1 $576 $723 $590 $668 reversed $657 $-1 #
loop $-1 $-1 $576 $677 #
vertex $-1 $668 $724 #
straight-curve $-1 0 21.31157855531259 5.9991688123979792 1 0 0 I I #
straight-curve $-1 0 8.6856327565112252 5.9991688123979792 -1 0 0 I I #
edge $-1 $582 1.9956222217418738 $587 6.0114709595703371 $579 $725 forward 7 unknown #
edge $-1 $581 -5.9991688123979792 $726 10.015017550226442 $580 $727 forward 7 unknown #
point $-1 45.431073946348462 21.311578555312586 5.9991688123979792 #
point $-1 45.431073946348462 8.6856327565112252 5.9991688123979792 #
straight-curve $-1 0 8.6856327565112252 10.015017550226442 -1 0 0 I I #
point $-1 -45.431073946348462 8.6856327565112252 10.015017550226442 #
point $-1 45.431073946348462 8.6856327565112252 10.015017550226442 #
edge $-1 $658 -5.9991688123979792 $671 10.015017550226442 $656 $728 forward 7 unknown #
coedge $-1 $679 $591 $723 $729 forward $601 $-1 #
coedge $-1 $591 $679 $593 $673 forward $601 $-1 #
vertex $-1 $729 $730 #
straight-curve $-1 -45.431073946348462 0 -10.015017550226442 0 1 0 I I #
edge $-1 $675 -45.431073946348462 $594 45.431073946348462 $593 $731 forward 7 unknown #
point $-1 -45.431073946348462 -21.31157855531259 -10.015017550226442 #
vertex $-1 $596 $732 #
straight-curve $-1 45.431073946348462 -21.31157855531259 0 0 0 -1 I I #
face $-1 $-1 $657 $18 $-1 $733 reversed single #
plane-surface $-1 0 -21.31157855531259 0 0 1 0 0 0 1 forward_v I I I I #
coedge $-1 $670 $669 $599 $680 forward $601 $-1 #
edge $-1 $726 -21.31157855531259 $675 21.31157855531259 $599 $734 forward 7 unknown #
plane-surface $-1 0 0 10.015017550226442 0 0 1 1 0 0 forward_v I I I I #
coedge $-1 $735 $736 $737 $738 reversed $604 $-1 #
coedge $-1 $739 $606 $740 $741 reversed $503 $-1 #
coedge $-1 $606 $739 $736 $742 reversed $503 $-1 #
coedge $-1 $743 $744 $606 $686 forward $711 $-1 #
edge $-1 $745 -13.812275727356633 $746 -1.1863299285552724 $685 $747 forward 7 unknown #
edge $-1 $618 -41.917150835404286 $748 45.431073946348462 $617 $749 forward 7 unknown #
straight-curve $-1 -35.864602975944194 -8.6856327565112288 17.489291892624259 -0.62932038083071107 0 -0.77714596973225614 I I #
coedge $-1 $737 $609 $612 $694 reversed $519 $-1 #
vertex $-1 $620 $750 #
straight-curve $-1 -45.431073946348462 -3.0666215586187242 31.428542645248463 0 0 1 I I #
straight-curve $-1 -45.431073946348462 -3.0666215586187242 5.6756837755685083 0.62932038083071107 0 0.77714596973225614 I I #
coedge $-1 $612 $697 $735 $751 forward $613 $-1 #
edge $-1 $752 -8.6856327565112252 $614 3.0666215586187242 $689 $753 forward 7 unknown #
point $-1 -45.431073946348462 -3.0666215586187242 10.015017550226442 #
point $-1 -41.917150835404286 -3.0666215586187242 10.015017550226442 #
coedge $-1 $693 $617 $754 $755 forward $613 $-1 #
point $-1 -41.917150835404286 -8.6856327565112288 10.015017550226442 #
straight-curve $-1 -45.431073946348462 -2.9380635787824882 5.6756837755685119 0 1 0 I I #
coedge $-1 $622 $756 $757 $758 reversed $519 $-1 #
coedge $-1 $759 $624 $622 $702 forward $705 $-1 #
edge $-1 $626 -5.9991688123979792 $760 10.015017550226442 $622 $761 forward 7 unknown #
plane-surface $-1 -45.431073946348462 0 0 1 0 0 0 0 -1 forward_v I I I I #
coedge $-1 $624 $759 $709 $762 reversed $705 $-1 #
loop $-1 $-1 $624 $763 #
vertex $-1 $762 $764 #
straight-curve $-1 0 -21.31157855531259 5.9991688123979792 -1 0 0 I I #
point $-1 -45.431073946348462 -21.31157855531259 5.9991688123979792 #
coedge $-1 $765 $628 $704 $762 forward $711 $-1 #
coedge $-1 $628 $754 $630 $713 forward $711 $-1 #
loop $-1 $-1 $743 $632 #
straight-curve $-1 45.431073946348462 -7.4993028279559546 5.9991688123979792 0 -1 0 I I #
edge $-1 $748 -6.0114709595703371 $631 -1.9956222217418738 $710 $766 forward 7 unknown #
point $-1 45.431073946348462 -8.6856327565112288 5.9991688123979792 #
face $-1 $763 $767 $19 $-1 $768 reversed single #
plane-surface $-1 45.431073946348462 0 0 -1 0 0 0 0 1 forward_v I I I I #
point $-1 -45.431073946348462 21.31157855531259 -10.015017550226442 #
point $-1 -45.431073946348462 -21.31157855531259 5.9991688123979792 #
straight-curve $-1 -45.431073946348462 -21.31157855531259 0 0 0 -1 I I #
point $-1 -45.431073946348462 -21.31157855531259 -10.015017550226442 #
point $-1 -45.431073946348462 8.6856327565112252 5.9991688123979792 #
straight-curve $-1 -45.431073946348462 7.4993028279559528 5.9991688123979792 0 1 0 I I #
coedge $-1 $656 $655 $669 $729 reversed $657 $-1 #
point $-1 -45.431073946348462 21.311578555312586 5.9991688123979792 #
straight-curve $-1 45.431073946348462 8.6856327565112252 4.0035465906561054 0 0 1 I I #
vertex $-1 $680 $769 #
straight-curve $-1 45.431073946348462 21.31157855531259 0 0 0 -1 I I #
straight-curve $-1 -45.431073946348462 21.31157855531259 0 0 0 -1 I I #
edge $-1 $671 -45.431073946348462 $726 45.431073946348462 $723 $770 forward 7 unknown #
point $-1 -45.431073946348462 21.31157855531259 -10.015017550226442 #
straight-curve $-1 0 -21.31157855531259 -10.015017550226442 -1 0 0 I I #
point $-1 45.431073946348462 -21.31157855531259 -10.015017550226442 #
plane-surface $-1 0 21.31157855531259 0 0 -1 0 0 0 -1 forward_v I I I I #
straight-curve $-1 45.431073946348462 0 -10.015017550226442 0 -1 0 I I #
coedge $-1 $771 $682 $693 $751 reversed $604 $-1 #
coedge $-1 $682 $771 $684 $742 forward $604 $-1 #
coedge $-1 $772 $689 $682 $738 forward $519 $-1 #
edge $-1 $752 -6.0114709595703371 $773 -1.9956222217418738 $737 $774 forward 7 unknown #
coedge $-1 $684 $683 $772 $775 reversed $503 $-1 #
coedge $-1 $776 $777 $683 $741 forward $778 $-1 #
edge $-1 $779 -45.431073946348462 $745 45.431073946348462 $740 $780 forward 7 unknown #
edge $-1 $746 -45.431073946348462 $773 45.431073946348462 $736 $781 forward 7 unknown #
coedge $-1 $754 $685 $771 $782 forward $711 $-1 #
coedge $-1 $685 $765 $776 $783 reversed $711 $-1 #
vertex $-1 $783 $784 #
vertex $-1 $686 $785 #
straight-curve $-1 45.431073946348462 7.4993028279559528 5.9991688123979792 0 -1 0 I I #
vertex $-1 $755 $786 #
straight-curve $-1 0 -8.6856327565112288 10.015017550226442 1 0 0 I I #
point $-1 -45.431073946348462 -3.0666215586187242 5.6756837755685083 #
edge $-1 $787 -45.431073946348462 $752 45.431073946348462 $693 $788 forward 7 unknown #
vertex $-1 $694 $789 #
straight-curve $-1 -45.431073946348462 0 10.015017550226442 0 -1 0 I I #
coedge $-1 $710 $743 $697 $755 reversed $711 $-1 #
edge $-1 $748 -8.6856327565112288 $787 8.6856327565112252 $754 $790 forward 7 unknown #
coedge $-1 $700 $772 $777 $791 forward $519 $-1 #
coedge $-1 $792 $793 $700 $758 forward $767 $-1 #
edge $-1 $760 -21.31157855531259 $794 21.31157855531259 $700 $795 forward 7 unknown #
coedge $-1 $704 $701 $793 $796 reversed $705 $-1 #
vertex $-1 $758 $797 #
straight-curve $-1 -45.431073946348462 -21.31157855531259 0 0 0 -1 I I #
edge $-1 $706 -5.9991688123979792 $798 10.015017550226442 $709 $799 forward 7 unknown #
face $-1 $800 $705 $19 $-1 $801 reversed single #
point $-1 45.431073946348462 -21.31157855531259 5.9991688123979792 #
coedge $-1 $744 $709 $802 $803 reversed $711 $-1 #
straight-curve $-1 45.431073946348462 -8.6856327565112288 4.0035465906561054 0 0 -1 I I #
loop $-1 $-1 $802 $715 #
plane-surface $-1 0 0 -10.015017550226442 0 0 1 1 0 0 forward_v I I I I #
point $-1 45.431073946348462 21.31157855531259 -10.015017550226442 #
straight-curve $-1 0 21.31157855531259 -10.015017550226442 1 0 0 I I #
coedge $-1 $736 $735 $743 $782 reversed $604 $-1 #
coedge $-1 $756 $737 $739 $775 forward $519 $-1 #
vertex $-1 $775 $804 #
straight-curve $-1 -45.431073946348462 8.6856327565112252 4.0035465906561054 0 0 -1 I I #
edge $-1 $773 1.1863299285552724 $779 13.812275727356633 $772 $805 forward 7 unknown #
coedge $-1 $806 $740 $744 $783 forward $778 $-1 #
coedge $-1 $740 $806 $756 $791 reversed $778 $-1 #
loop $-1 $-1 $740 $800 #
vertex $-1 $791 $807 #
straight-curve $-1 0 21.31157855531259 5.9991688123979792 1 0 0 I I #
straight-curve $-1 0 8.6856327565112252 5.9991688123979792 -1 0 0 I I #
edge $-1 $746 1.9956222217418738 $787 6.0114709595703371 $743 $808 forward 7 unknown #
edge $-1 $745 -5.9991688123979792 $809 10.015017550226442 $744 $810 forward 7 unknown #
point $-1 45.431073946348462 21.311578555312586 5.9991688123979792 #
point $-1 45.431073946348462 8.6856327565112252 5.9991688123979792 #
point $-1 45.431073946348462 -8.6856327565112288 10.015017550226442 #
vertex $-1 $751 $811 #
straight-curve $-1 0 8.6856327565112252 10.015017550226442 -1 0 0 I I #
point $-1 -45.431073946348462 8.6856327565112252 10.015017550226442 #
straight-curve $-1 45.431073946348462 0 10.015017550226442 0 1 0 I I #
edge $-1 $779 -5.9991688123979792 $794 10.015017550226442 $777 $812 forward 7 unknown #
coedge $-1 $802 $757 $806 $813 forward $767 $-1 #
coedge $-1 $757 $802 $759 $796 forward $767 $-1 #
vertex $-1 $813 $814 #
straight-curve $-1 -45.431073946348462 0 -10.015017550226442 0 1 0 I I #
edge $-1 $798 -45.431073946348462 $760 45.431073946348462 $759 $815 forward 7 unknown #
point $-1 -45.431073946348462 -21.31157855531259 -10.015017550226442 #
vertex $-1 $762 $816 #
straight-curve $-1 45.431073946348462 -21.31157855531259 0 0 0 -1 I I #
face $-1 $-1 $778 $19 $-1 $817 reversed single #
plane-surface $-1 0 -21.31157855531259 0 0 1 0 0 0 1 forward_v I I I I #
coedge $-1 $793 $792 $765 $803 forward $767 $-1 #
edge $-1 $809 -21.31157855531259 $798 21.31157855531259 $765 $818 forward 7 unknown #
point $-1 -45.431073946348462 8.6856327565112252 5.9991688123979792 #
straight-curve $-1 -45.431073946348462 7.4993028279559528 5.9991688123979792 0 1 0 I I #
coedge $-1 $777 $776 $792 $813 reversed $778 $-1 #
point $-1 -45.431073946348462 21.311578555312586 5.9991688123979792 #
straight-curve $-1 45.431073946348462 8.6856327565112252 4.0035465906561054 0 0 1 I I #
vertex $-1 $803 $819 #
straight-curve $-1 45.431073946348462 21.31157855531259 0 0 0 -1 I I #
point $-1 45.431073946348462 8.6856327565112252 10.015017550226442 #
straight-curve $-1 -45.431073946348462 21.31157855531259 0 0 0 -1 I I #
edge $-1 $794 -45.431073946348462 $809 45.431073946348462 $806 $820 forward 7 unknown #
point $-1 -45.431073946348462 21.31157855531259 -10.015017550226442 #
straight-curve $-1 0 -21.31157855531259 -10.015017550226442 -1 0 0 I I #
point $-1 45.431073946348462 -21.31157855531259 -10.015017550226442 #
plane-surface $-1 0 21.31157855531259 0 0 -1 0 0 0 -1 forward_v I I I I #
straight-curve $-1 45.431073946348462 0 -10.015017550226442 0 -1 0 I I #
point $-1 45.431073946348462 21.31157855531259 -10.015017550226442 #
straight-curve $-1 0 21.31157855531259 -10.015017550226442 1 0 0 I I #
End-of-ACIS-data 