500 0 9 0           
7 Unknown 11 ACIS 5.0 NT 24 Thu Mar 25 22:58:23 1999 
-1 9.9999999999999995e-007 1e-010 
body $-1 $9 $-1 $10 #
body $-1 $11 $-1 $12 #
body $-1 $13 $-1 $14 #
body $-1 $15 $-1 $16 #
body $-1 $17 $-1 $18 #
body $-1 $19 $-1 $20 #
body $-1 $21 $-1 $22 #
body $-1 $23 $-1 $24 #
body $-1 $25 $-1 $26 #
lump $-1 $-1 $27 $0 #
transform $-1 1 0 0 0 1 0 0 0 1 40.153813287759029 19.897012854681755 7.6719510242375311 1 rotate no_reflect no_shear #
lump $-1 $-1 $28 $1 #
transform $-1 1 0 0 0 1 0 0 0 1 40.153813287759029 19.897012854681755 7.6719510242375311 1 rotate no_reflect no_shear #
lump $-1 $-1 $29 $2 #
transform $-1 1 0 0 0 1 0 0 0 1 40.153813287759029 19.897012854681755 7.6719510242375311 1 rotate no_reflect no_shear #
lump $-1 $-1 $30 $3 #
transform $-1 1 0 0 0 1 0 0 0 1 40.153813287759029 19.897012854681755 7.6719510242375311 1 rotate no_reflect no_shear #
lump $-1 $-1 $31 $4 #
transform $-1 1 0 0 0 1 0 0 0 1 40.153813287759029 19.897012854681755 7.6719510242375311 1 rotate no_reflect no_shear #
lump $-1 $-1 $32 $5 #
transform $-1 1 0 0 0 1 0 0 0 1 40.153813287759029 19.897012854681755 7.6719510242375311 1 rotate no_reflect no_shear #
lump $-1 $-1 $33 $6 #
transform $-1 1 0 0 0 1 0 0 0 1 40.153813287759029 19.897012854681755 7.6719510242375311 1 rotate no_reflect no_shear #
lump $-1 $-1 $34 $7 #
transform $-1 1 0 0 0 1 0 0 0 1 40.153813287759029 19.897012854681755 7.6719510242375311 1 rotate no_reflect no_shear #
lump $-1 $-1 $35 $8 #
transform $-1 1 0 0 0 1 0 0 0 1 40.153813287759029 19.897012854681755 7.6719510242375311 1 rotate no_reflect no_shear #
shell $-1 $-1 $-1 $36 $-1 $9 #
shell $-1 $-1 $-1 $37 $-1 $11 #
shell $-1 $-1 $-1 $38 $-1 $13 #
shell $-1 $-1 $-1 $39 $-1 $15 #
shell $-1 $-1 $-1 $40 $-1 $17 #
shell $-1 $-1 $-1 $41 $-1 $19 #
shell $-1 $-1 $-1 $42 $-1 $21 #
shell $-1 $-1 $-1 $43 $-1 $23 #
shell $-1 $-1 $-1 $44 $-1 $25 #
face $-1 $45 $46 $27 $-1 $47 forward single #
face $-1 $48 $49 $28 $-1 $50 forward single #
face $-1 $51 $52 $29 $-1 $53 reversed single #
face $-1 $54 $55 $30 $-1 $56 forward single #
face $-1 $57 $58 $31 $-1 $59 forward single #
face $-1 $60 $61 $32 $-1 $62 forward single #
face $-1 $63 $64 $33 $-1 $65 reversed single #
face $-1 $66 $67 $34 $-1 $68 forward single #
face $-1 $69 $70 $35 $-1 $71 forward single #
face $-1 $72 $73 $27 $-1 $74 reversed single #
loop $-1 $-1 $75 $36 #
plane-surface $-1 0 0 7.6719510242375311 0 0 1 1 0 0 forward_v I I I I #
face $-1 $76 $77 $28 $-1 $78 reversed single #
loop $-1 $-1 $79 $37 #
plane-surface $-1 0 -16.408264128306406 5.223981427959262 0 0 1 1 0 0 forward_v I I I I #
face $-1 $80 $81 $29 $-1 $82 reversed single #
loop $-1 $-1 $83 $38 #
plane-surface $-1 -86.216376144405075 -8.1692047501041642 68.183651405078109 0 1 0 -0.57357644374324357 0 0.81915203911291934 forward_v I I I I #
face $-1 $84 $85 $30 $-1 $86 forward single #
loop $-1 $87 $88 $39 #
cone-surface $-1 -36.102101599747677 -6.6348727791387923 4.6261471622741102 0.57357644374324357 0 -0.81915203911291934 0.40957601955645967 0 0.28678822187162178 1 I I 0 1 0.5 forward I I I I #
face $-1 $89 $90 $31 $-1 $91 forward single #
loop $-1 $92 $93 $40 #
cone-surface $-1 -36.102101599747677 -4.3333748226907325 4.6261471622741102 0.57357644374324357 0 -0.81915203911291934 0.40957601955645967 0 0.28678822187162178 1 I I 0 1 0.5 forward I I I I #
face $-1 $94 $95 $32 $-1 $96 forward single #
loop $-1 $97 $98 $41 #
cone-surface $-1 -36.102101599747677 -2.0318768662426727 4.6261471622741102 0.57357644374324357 0 -0.81915203911291934 0.40957601955645967 0 0.28678822187162178 1 I I 0 1 0.5 forward I I I I #
face $-1 $99 $100 $33 $-1 $101 reversed single #
loop $-1 $-1 $102 $42 #
plane-surface $-1 24.347628196683949 17.186252417781247 116.70864281118338 0 -1 0 -0.6018150307709319 0 -0.79863550430605224 forward_v I I I I #
face $-1 $103 $104 $34 $-1 $105 forward single #
loop $-1 $106 $107 $43 #
cone-surface $-1 37.576913258665414 11.106372809850008 5.5575498613339827 -0.6018150307709319 0 -0.79863550430605224 0.19965887607651306 0 -0.15045375769273298 1 I I 0 1 0.25 forward I I I I #
face $-1 $108 $109 $35 $-1 $110 forward single #
loop $-1 $111 $112 $44 #
cone-surface $-1 37.576913258665414 14.754300574608749 5.5575498613339827 -0.6018150307709319 0 -0.79863550430605224 0.19965887607651306 0 -0.15045375769273298 1 I I 0 1 0.25 forward I I I I #
face $-1 $113 $114 $27 $-1 $115 reversed single #
loop $-1 $-1 $116 $45 #
plane-surface $-1 0 0 -7.6719510242375311 0 0 1 1 0 0 forward_v I I I I #
coedge $-1 $117 $118 $119 $120 forward $46 $-1 #
face $-1 $121 $122 $28 $-1 $123 reversed single #
loop $-1 $-1 $124 $48 #
plane-surface $-1 0 -16.408264128306406 0.74752549264637569 0 0 1 1 0 0 forward_v I I I I #
coedge $-1 $125 $126 $127 $128 reversed $49 $-1 #
face $-1 $129 $130 $29 $-1 $131 reversed single #
loop $-1 $-1 $132 $51 #
plane-surface $-1 -40.153813287759029 -4.3333748226907325 2.3994953394236234 -0.57357644374324357 0 0.81915203911291934 0.81915203911291934 0 0.57357644374324357 forward_v I I I I #
coedge $-1 $133 $134 $135 $136 reversed $52 $-1 #
face $-1 $-1 $137 $30 $-1 $138 forward single #
loop $-1 $139 $140 $54 #
cone-surface $-1 -35.671919266940243 -6.6348727791387923 4.0117831329394207 0.57357644374324357 0 -0.81915203911291934 0.20478800977822983 0 0.14339411093581089 1 I I -0.70710678118654746 0.70710678118654746 0.25 forward I I I I #
loop $-1 $-1 $141 $39 #
coedge $-1 $88 $88 $142 $143 reversed $55 $-1 #
face $-1 $-1 $144 $31 $-1 $145 forward single #
loop $-1 $146 $147 $57 #
cone-surface $-1 -35.671919266940243 -4.3333748226907325 4.0117831329394207 0.57357644374324357 0 -0.81915203911291934 0.20478800977822983 0 0.14339411093581089 1 I I -0.70710678118654746 0.70710678118654746 0.25 forward I I I I #
loop $-1 $-1 $148 $40 #
coedge $-1 $93 $93 $149 $150 reversed $58 $-1 #
face $-1 $-1 $151 $32 $-1 $152 forward single #
loop $-1 $153 $154 $60 #
cone-surface $-1 -35.671919266940243 -2.0318768662426727 4.0117831329394207 0.57357644374324357 0 -0.81915203911291934 0.20478800977822983 0 0.14339411093581089 1 I I -0.70710678118654746 0.70710678118654746 0.25 forward I I I I #
loop $-1 $-1 $155 $41 #
coedge $-1 $98 $98 $156 $157 reversed $61 $-1 #
face $-1 $158 $159 $33 $-1 $160 reversed single #
loop $-1 $-1 $161 $63 #
plane-surface $-1 -23.98270856200196 12.930336692229382 52.572120961422399 0.6018150307709319 0 0.79863550430605224 0.79863550430605224 0 -0.6018150307709319 forward_v I I I I #
coedge $-1 $162 $163 $164 $165 reversed $64 $-1 #
face $-1 $-1 $166 $34 $-1 $167 forward single #
loop $-1 $168 $169 $66 #
cone-surface $-1 37.20077886443358 11.106372809850008 5.0584026711426997 -0.6018150307709319 0 -0.79863550430605224 0.099829438038256529 0 -0.075226878846366488 1 I I -0.70710678118654746 0.70710678118654746 0.125 forward I I I I #
loop $-1 $-1 $170 $43 #
coedge $-1 $107 $107 $171 $172 reversed $67 $-1 #
face $-1 $-1 $173 $35 $-1 $174 forward single #
loop $-1 $175 $176 $69 #
cone-surface $-1 37.20077886443358 14.754300574608749 5.0584026711426997 -0.6018150307709319 0 -0.79863550430605224 0.099829438038256529 0 -0.075226878846366488 1 I I -0.70710678118654746 0.70710678118654746 0.125 forward I I I I #
loop $-1 $-1 $177 $44 #
coedge $-1 $112 $112 $178 $179 reversed $70 $-1 #
face $-1 $180 $181 $27 $-1 $182 reversed single #
loop $-1 $-1 $183 $72 #
plane-surface $-1 0 -19.897012854681755 0 0 1 0 0 0 1 forward_v I I I I #
coedge $-1 $184 $185 $186 $187 forward $73 $-1 #
coedge $-1 $188 $75 $189 $190 forward $46 $-1 #
coedge $-1 $75 $188 $191 $192 forward $46 $-1 #
coedge $-1 $193 $194 $75 $120 reversed $195 $-1 #
edge $-1 $196 -19.897012854681755 $197 19.897012854681755 $119 $198 forward 7 unknown #
face $-1 $199 $200 $28 $-1 $201 reversed single #
loop $-1 $-1 $202 $76 #
plane-surface $-1 0 -12.919515401931056 2.9857534603028189 0 -1 0 0 0 -1 forward_v I I I I #
coedge $-1 $203 $204 $205 $206 reversed $77 $-1 #
coedge $-1 $207 $79 $208 $209 forward $49 $-1 #
coedge $-1 $79 $207 $210 $211 reversed $49 $-1 #
coedge $-1 $212 $213 $79 $128 forward $214 $-1 #
edge $-1 $215 4.7153833377778529 $216 11.692880790528552 $127 $217 forward 7 unknown #
face $-1 $218 $219 $29 $-1 $220 reversed single #
loop $-1 $-1 $221 $80 #
plane-surface $-1 -86.216376144405075 -0.49754489527730072 68.183651405078109 0 -1 0 0.57357644374324357 0 -0.81915203911291934 forward_v I I I I #
coedge $-1 $222 $223 $224 $225 reversed $81 $-1 #
coedge $-1 $134 $83 $226 $227 reversed $52 $-1 #
coedge $-1 $83 $133 $222 $228 reversed $52 $-1 #
coedge $-1 $224 $229 $83 $136 forward $230 $-1 #
edge $-1 $231 2.9543747844435089 $232 10.484221716722956 $135 $233 forward 7 unknown #
loop $-1 $-1 $142 $84 #
plane-surface $-1 -40.153813287759029 -4.3333748226907325 2.3994953394236234 -0.57357644374324357 0 0.81915203911291934 0.81915203911291934 0 0.57357644374324357 forward_v I I I I #
loop $-1 $-1 $234 $54 #
coedge $-1 $140 $140 $141 $235 reversed $85 $-1 #
coedge $-1 $141 $141 $140 $235 forward $87 $-1 #
coedge $-1 $142 $142 $88 $143 forward $137 $-1 #
edge $-1 $236 0 $236 6.2831853071796004 $142 $237 forward 7 unknown #
loop $-1 $-1 $149 $89 #
plane-surface $-1 -40.153813287759029 -4.3333748226907325 2.3994953394236234 -0.57357644374324357 0 0.81915203911291934 0.81915203911291934 0 0.57357644374324357 forward_v I I I I #
loop $-1 $-1 $238 $57 #
coedge $-1 $147 $147 $148 $239 reversed $90 $-1 #
coedge $-1 $148 $148 $147 $239 forward $92 $-1 #
coedge $-1 $149 $149 $93 $150 forward $144 $-1 #
edge $-1 $240 0 $240 6.2831853071796004 $149 $241 forward 7 unknown #
loop $-1 $-1 $156 $94 #
plane-surface $-1 -40.153813287759029 -4.3333748226907325 2.3994953394236234 -0.57357644374324357 0 0.81915203911291934 0.81915203911291934 0 0.57357644374324357 forward_v I I I I #
loop $-1 $-1 $242 $60 #
coedge $-1 $154 $154 $155 $243 reversed $95 $-1 #
coedge $-1 $155 $155 $154 $243 forward $97 $-1 #
coedge $-1 $156 $156 $98 $157 forward $151 $-1 #
edge $-1 $244 0 $244 6.2831853071796004 $156 $245 forward 7 unknown #
face $-1 $246 $247 $33 $-1 $248 forward single #
loop $-1 $-1 $249 $99 #
plane-surface $-1 24.347628196683949 8.6744209666775145 116.70864281118338 0 1 0 0.6018150307709319 0 0.79863550430605224 forward_v I I I I #
coedge $-1 $250 $251 $252 $253 reversed $100 $-1 #
coedge $-1 $163 $102 $254 $255 reversed $64 $-1 #
coedge $-1 $102 $162 $250 $256 reversed $64 $-1 #
coedge $-1 $252 $257 $102 $165 forward $247 $-1 #
edge $-1 $258 -27.979999189417054 $259 -23.428014162000739 $164 $260 forward 7 unknown #
loop $-1 $-1 $171 $103 #
plane-surface $-1 -23.98270856200196 12.930336692229382 52.572120961422399 0.6018150307709319 0 0.79863550430605224 0.79863550430605224 0 -0.6018150307709319 forward_v I I I I #
loop $-1 $-1 $261 $66 #
coedge $-1 $169 $169 $170 $262 reversed $104 $-1 #
coedge $-1 $170 $170 $169 $262 forward $106 $-1 #
coedge $-1 $171 $171 $107 $172 forward $166 $-1 #
edge $-1 $263 0 $263 6.2831853071796004 $171 $264 forward 7 unknown #
loop $-1 $-1 $178 $108 #
plane-surface $-1 -23.98270856200196 12.930336692229382 52.572120961422399 0.6018150307709319 0 0.79863550430605224 0.79863550430605224 0 -0.6018150307709319 forward_v I I I I #
loop $-1 $-1 $265 $69 #
coedge $-1 $176 $176 $177 $266 reversed $109 $-1 #
coedge $-1 $177 $177 $176 $266 forward $111 $-1 #
coedge $-1 $178 $178 $112 $179 forward $173 $-1 #
edge $-1 $267 0 $267 6.2831853071796004 $178 $268 forward 7 unknown #
face $-1 $269 $270 $27 $-1 $271 reversed single #
loop $-1 $-1 $272 $113 #
plane-surface $-1 -40.153813287759029 0 0 1 0 0 0 0 -1 forward_v I I I I #
coedge $-1 $273 $191 $274 $275 forward $114 $-1 #
coedge $-1 $276 $116 $273 $277 forward $73 $-1 #
coedge $-1 $116 $276 $278 $279 forward $73 $-1 #
coedge $-1 $194 $193 $116 $187 reversed $195 $-1 #
edge $-1 $280 -19.897012854681755 $281 19.897012854681755 $186 $282 forward 7 unknown #
coedge $-1 $118 $117 $283 $284 forward $46 $-1 #
coedge $-1 $285 $286 $117 $190 reversed $270 $-1 #
edge $-1 $197 -40.153813287759029 $287 40.153813287759029 $189 $288 forward 7 unknown #
coedge $-1 $183 $289 $118 $192 reversed $114 $-1 #
edge $-1 $290 -40.153813287759029 $196 40.153813287759029 $191 $291 forward 7 unknown #
coedge $-1 $186 $119 $289 $292 forward $195 $-1 #
coedge $-1 $119 $186 $285 $293 reversed $195 $-1 #
loop $-1 $-1 $193 $269 #
vertex $-1 $120 $294 #
vertex $-1 $120 $295 #
straight-curve $-1 40.153813287759029 0 7.6719510242375311 0 1 0 I I #
face $-1 $296 $297 $28 $-1 $298 reversed single #
loop $-1 $-1 $299 $121 #
plane-surface $-1 -40.153813287759029 0 0 1 0 0 0 0 -1 forward_v I I I I #
coedge $-1 $300 $208 $213 $301 reversed $122 $-1 #
coedge $-1 $302 $124 $303 $304 reversed $77 $-1 #
coedge $-1 $124 $302 $300 $305 forward $77 $-1 #
coedge $-1 $213 $212 $124 $206 forward $214 $-1 #
edge $-1 $306 -11.692880790528552 $307 -4.7153833377778529 $205 $308 forward 7 unknown #
coedge $-1 $126 $125 $299 $309 reversed $49 $-1 #
coedge $-1 $202 $310 $125 $209 reversed $122 $-1 #
edge $-1 $215 -40.153813287759029 $311 40.153813287759029 $208 $312 forward 7 unknown #
coedge $-1 $313 $314 $126 $211 forward $297 $-1 #
edge $-1 $216 -40.153813287759029 $315 40.153813287759029 $210 $316 forward 7 unknown #
coedge $-1 $205 $127 $314 $317 forward $214 $-1 #
coedge $-1 $127 $205 $202 $301 forward $214 $-1 #
loop $-1 $-1 $127 $296 #
vertex $-1 $128 $318 #
vertex $-1 $317 $319 #
straight-curve $-1 40.153813287759029 -8.2041320641532032 5.223981427959262 0 -1 0 I I #
face $-1 $-1 $230 $29 $-1 $320 forward single #
loop $-1 $-1 $321 $129 #
plane-surface $-1 -40.153813287759029 0 0 1 0 0 0 0 -1 forward_v I I I I #
coedge $-1 $322 $323 $324 $325 reversed $130 $-1 #
coedge $-1 $326 $132 $134 $228 forward $81 $-1 #
coedge $-1 $132 $326 $322 $327 forward $81 $-1 #
coedge $-1 $324 $135 $132 $225 forward $230 $-1 #
edge $-1 $232 -6.002517338758798 $328 1.6691425160680655 $224 $329 forward 7 unknown #
coedge $-1 $330 $331 $133 $227 forward $219 $-1 #
edge $-1 $332 -31.692330363115431 $231 -26.419874678301525 $226 $333 forward 7 unknown #
edge $-1 $232 -9.1922458502742792 $332 0 $134 $334 forward 7 unknown #
coedge $-1 $135 $324 $330 $335 forward $230 $-1 #
loop $-1 $-1 $324 $218 #
vertex $-1 $227 $336 #
vertex $-1 $136 $337 #
straight-curve $-1 -43.108188072202537 -8.1692047501041642 7.6719510242375293 1 0 0 I I #
coedge $-1 $234 $234 $-1 $338 reversed $139 $-1 #
edge $-1 $339 0 $339 6.2831853071796004 $140 $340 forward 7 unknown #
vertex $-1 $143 $341 #
ellipse-curve $-1 -36.388889821619301 -6.6348727791387923 5.0357231818305781 -0.57357644374324357 0 0.81915203911291934 0.40957601955645967 0 0.28678822187162178 1 I I #
coedge $-1 $238 $238 $-1 $342 reversed $146 $-1 #
edge $-1 $343 0 $343 6.2831853071796004 $147 $344 forward 7 unknown #
vertex $-1 $150 $345 #
ellipse-curve $-1 -36.388889821619301 -4.3333748226907325 5.0357231818305781 -0.57357644374324357 0 0.81915203911291934 0.40957601955645967 0 0.28678822187162178 1 I I #
coedge $-1 $242 $242 $-1 $346 reversed $153 $-1 #
edge $-1 $347 0 $347 6.2831853071796004 $154 $348 forward 7 unknown #
vertex $-1 $157 $349 #
ellipse-curve $-1 -36.388889821619301 -2.0318768662426727 5.0357231818305781 -0.57357644374324357 0 0.81915203911291934 0.40957601955645967 0 0.28678822187162178 1 I I #
face $-1 $-1 $350 $33 $-1 $351 reversed single #
loop $-1 $-1 $164 $158 #
plane-surface $-1 0 0 7.6719510242375311 0 0 1 1 0 0 forward_v I I I I #
coedge $-1 $352 $353 $354 $355 reversed $159 $-1 #
coedge $-1 $356 $161 $163 $256 forward $100 $-1 #
coedge $-1 $161 $356 $352 $357 forward $100 $-1 #
coedge $-1 $354 $164 $161 $253 forward $247 $-1 #
edge $-1 $259 -10.721084071666557 $358 -2.2092526205628236 $252 $359 forward 7 unknown #
coedge $-1 $360 $361 $162 $255 forward $350 $-1 #
edge $-1 $362 -54.112537202855201 $258 -50.682370381354161 $254 $363 forward 7 unknown #
edge $-1 $259 74.607923766322756 $362 80.307626575518071 $163 $364 forward 7 unknown #
coedge $-1 $164 $354 $360 $365 forward $247 $-1 #
vertex $-1 $255 $366 #
vertex $-1 $165 $367 #
straight-curve $-1 12.173814098341975 17.186252417781247 7.6719510242375293 -1 0 0 I I #
coedge $-1 $261 $261 $-1 $368 reversed $168 $-1 #
edge $-1 $369 0 $369 6.2831853071796004 $169 $370 forward 7 unknown #
vertex $-1 $172 $371 #
ellipse-curve $-1 37.877820774050875 11.106372809850008 5.9568676134870033 0.6018150307709319 0 0.79863550430605224 0.19965887607651306 0 -0.15045375769273298 1 I I #
coedge $-1 $265 $265 $-1 $372 reversed $175 $-1 #
edge $-1 $373 0 $373 6.2831853071796004 $176 $374 forward 7 unknown #
vertex $-1 $179 $375 #
ellipse-curve $-1 37.877820774050875 14.754300574608749 5.9568676134870033 0.6018150307709319 0 0.79863550430605224 0.19965887607651306 0 -0.15045375769273298 1 I I #
face $-1 $-1 $195 $27 $-1 $376 reversed single #
loop $-1 $-1 $285 $180 #
plane-surface $-1 0 19.897012854681755 0 0 -1 0 0 0 -1 forward_v I I I I #
coedge $-1 $377 $283 $286 $378 forward $181 $-1 #
coedge $-1 $289 $183 $184 $277 reversed $114 $-1 #
coedge $-1 $283 $377 $183 $275 reversed $181 $-1 #
edge $-1 $290 -7.6719510242375311 $379 7.6719510242375311 $274 $380 forward 7 unknown #
coedge $-1 $185 $184 $377 $381 forward $73 $-1 #
edge $-1 $281 -40.153813287759029 $379 40.153813287759029 $273 $382 forward 7 unknown #
coedge $-1 $286 $285 $185 $279 reversed $270 $-1 #
edge $-1 $383 -40.153813287759029 $280 40.153813287759029 $278 $384 forward 7 unknown #
vertex $-1 $187 $385 #
vertex $-1 $292 $386 #
straight-curve $-1 40.153813287759029 0 -7.6719510242375311 0 -1 0 I I #
coedge $-1 $272 $274 $188 $284 reversed $181 $-1 #
edge $-1 $287 -19.897012854681755 $290 19.897012854681755 $283 $387 forward 7 unknown #
coedge $-1 $278 $189 $194 $293 forward $270 $-1 #
coedge $-1 $189 $278 $272 $378 reversed $270 $-1 #
vertex $-1 $190 $388 #
straight-curve $-1 0 19.897012854681755 7.6719510242375311 -1 0 0 I I #
coedge $-1 $191 $273 $193 $292 reversed $114 $-1 #
vertex $-1 $284 $389 #
straight-curve $-1 0 -19.897012854681755 7.6719510242375311 1 0 0 I I #
edge $-1 $196 -7.6719510242375311 $281 7.6719510242375311 $193 $390 forward 7 unknown #
edge $-1 $197 -7.6719510242375311 $280 7.6719510242375311 $194 $391 forward 7 unknown #
point $-1 40.153813287759029 -19.897012854681755 7.6719510242375311 #
point $-1 40.153813287759029 19.897012854681755 7.6719510242375311 #
face $-1 $-1 $214 $28 $-1 $392 reversed single #
loop $-1 $-1 $210 $199 #
plane-surface $-1 0 -19.897012854681755 0 0 1 0 0 0 1 forward_v I I I I #
coedge $-1 $393 $394 $207 $309 forward $200 $-1 #
coedge $-1 $310 $202 $204 $305 reversed $122 $-1 #
edge $-1 $307 -0.74535123750503374 $215 3.7311046978078526 $213 $395 forward 7 unknown #
coedge $-1 $204 $203 $396 $397 reversed $77 $-1 #
coedge $-1 $314 $313 $203 $304 forward $297 $-1 #
edge $-1 $398 -40.153813287759029 $306 40.153813287759029 $303 $399 forward 7 unknown #
edge $-1 $400 -40.153813287759029 $307 40.153813287759029 $300 $401 forward 7 unknown #
vertex $-1 $304 $402 #
vertex $-1 $206 $403 #
straight-curve $-1 40.153813287759029 -8.2041320641532032 0.74752549264637569 0 1 0 I I #
edge $-1 $315 -11.692880790528552 $311 -4.7153833377778529 $299 $404 forward 7 unknown #
coedge $-1 $208 $300 $393 $405 reversed $122 $-1 #
vertex $-1 $309 $406 #
straight-curve $-1 0 -12.919515401931056 5.223981427959262 -1 0 0 I I #
coedge $-1 $303 $210 $394 $407 forward $297 $-1 #
coedge $-1 $210 $303 $212 $317 reversed $297 $-1 #
vertex $-1 $407 $408 #
straight-curve $-1 0 -19.897012854681755 5.223981427959262 -1 0 0 I I #
edge $-1 $216 -5.223981427959262 $306 -0.74752549264637569 $212 $409 forward 7 unknown #
point $-1 40.153813287759029 -12.919515401931056 5.223981427959262 #
point $-1 40.153813287759029 -19.897012854681755 5.223981427959262 #
plane-surface $-1 0 0 7.6719510242375311 0 0 1 1 0 0 forward_v I I I I #
coedge $-1 $331 $330 $323 $410 forward $219 $-1 #
coedge $-1 $323 $221 $223 $327 reversed $130 $-1 #
coedge $-1 $221 $322 $321 $410 reversed $130 $-1 #
coedge $-1 $229 $224 $221 $325 forward $230 $-1 #
edge $-1 $328 -10.484221716722956 $411 -2.9543747844435089 $324 $412 forward 7 unknown #
coedge $-1 $223 $222 $331 $413 reversed $81 $-1 #
edge $-1 $414 0 $328 9.1922458502742792 $322 $415 forward 7 unknown #
vertex $-1 $225 $416 #
straight-curve $-1 -32.623966355479581 -2.1666874113453662 7.6719510242375319 0 1 0 I I #
coedge $-1 $321 $226 $229 $335 reversed $219 $-1 #
coedge $-1 $226 $321 $326 $413 forward $219 $-1 #
vertex $-1 $227 $417 #
straight-curve $-1 -40.153813287759029 -8.1692047501041642 34.091825702539055 0 0 1 I I #
straight-curve $-1 -40.153813287759029 -8.1692047501041642 2.3994953394236234 -0.81915203911291934 0 -0.57357644374324357 I I #
edge $-1 $411 0.49754489527730072 $231 8.1692047501041642 $330 $418 forward 7 unknown #
point $-1 -40.153813287759029 -8.1692047501041642 7.6719510242375311 #
point $-1 -32.623966355479581 -8.1692047501041642 7.6719510242375302 #
edge $-1 $419 1 $419 0 $234 $-1 forward 7 unknown #
vertex $-1 $235 $420 #
ellipse-curve $-1 -35.815313377876052 -6.6348727791387923 4.2165711427176502 -0.57357644374324357 0 0.81915203911291934 0.40957601955645967 0 0.28678822187162178 1 I I #
point $-1 -35.97931380206284 -6.6348727791387923 5.3225114037021921 #
edge $-1 $421 1 $421 0 $238 $-1 forward 7 unknown #
vertex $-1 $239 $422 #
ellipse-curve $-1 -35.815313377876052 -4.3333748226907325 4.2165711427176502 -0.57357644374324357 0 0.81915203911291934 0.40957601955645967 0 0.28678822187162178 1 I I #
point $-1 -35.97931380206284 -4.3333748226907325 5.3225114037021921 #
edge $-1 $423 1 $423 0 $242 $-1 forward 7 unknown #
vertex $-1 $243 $424 #
ellipse-curve $-1 -35.815313377876052 -2.0318768662426727 4.2165711427176502 -0.57357644374324357 0 0.81915203911291934 0.40957601955645967 0 0.28678822187162178 1 I I #
point $-1 -35.97931380206284 -2.0318768662426727 5.3225114037021921 #
loop $-1 $-1 $254 $246 #
plane-surface $-1 40.153813287759029 0 0 -1 0 0 0 0 1 forward_v I I I I #
coedge $-1 $353 $249 $251 $357 reversed $159 $-1 #
coedge $-1 $249 $352 $425 $426 reversed $159 $-1 #
coedge $-1 $257 $252 $249 $355 forward $247 $-1 #
edge $-1 $358 23.428014162000739 $427 27.979999189417054 $354 $428 forward 7 unknown #
coedge $-1 $251 $250 $361 $429 reversed $100 $-1 #
edge $-1 $430 -80.307626575518071 $358 -74.607923766322756 $352 $431 forward 7 unknown #
vertex $-1 $253 $432 #
straight-curve $-1 35.601828260342714 6.4651683461146909 7.6719510242375293 0 -1 0 I I #
coedge $-1 $425 $254 $257 $365 reversed $350 $-1 #
coedge $-1 $254 $425 $356 $429 forward $350 $-1 #
vertex $-1 $255 $433 #
straight-curve $-1 40.153813287759029 17.186252417781247 58.354321405591691 0 0 1 I I #
straight-curve $-1 -23.98270856200196 17.186252417781247 52.572120961422399 0.79863550430605224 0 -0.6018150307709319 I I #
edge $-1 $427 8.6744209666775145 $258 17.186252417781247 $360 $434 forward 7 unknown #
point $-1 40.153813287759029 17.186252417781247 7.6719510242375311 #
point $-1 35.601828260342714 17.186252417781247 7.6719510242375293 #
edge $-1 $435 1 $435 0 $261 $-1 forward 7 unknown #
vertex $-1 $262 $436 #
ellipse-curve $-1 37.276005743279946 11.106372809850008 5.1582321091809566 0.6018150307709319 0 0.79863550430605224 0.19965887607651306 0 -0.15045375769273298 1 I I #
point $-1 38.077479650127394 11.106372809850008 5.8064138557942755 #
edge $-1 $437 1 $437 0 $265 $-1 forward 7 unknown #
vertex $-1 $266 $438 #
ellipse-curve $-1 37.276005743279946 14.754300574608749 5.1582321091809566 0.6018150307709319 0 0.79863550430605224 0.19965887607651306 0 -0.15045375769273298 1 I I #
point $-1 38.077479650127394 14.754300574608749 5.8064138557942755 #
plane-surface $-1 40.153813287759029 0 0 -1 0 0 0 0 1 forward_v I I I I #
coedge $-1 $274 $272 $276 $381 reversed $181 $-1 #
edge $-1 $287 -7.6719510242375311 $383 7.6719510242375311 $286 $439 forward 7 unknown #
vertex $-1 $381 $440 #
straight-curve $-1 -40.153813287759029 -19.897012854681755 0 0 0 -1 I I #
edge $-1 $379 -19.897012854681755 $383 19.897012854681755 $377 $441 forward 7 unknown #
straight-curve $-1 0 -19.897012854681755 -7.6719510242375311 -1 0 0 I I #
vertex $-1 $279 $442 #
straight-curve $-1 0 19.897012854681755 -7.6719510242375311 1 0 0 I I #
point $-1 40.153813287759029 19.897012854681755 -7.6719510242375311 #
point $-1 40.153813287759029 -19.897012854681755 -7.6719510242375311 #
straight-curve $-1 -40.153813287759029 0 7.6719510242375311 0 -1 0 I I #
point $-1 -40.153813287759029 19.897012854681755 7.6719510242375311 #
point $-1 -40.153813287759029 -19.897012854681755 7.6719510242375311 #
straight-curve $-1 40.153813287759029 -19.897012854681755 0 0 0 -1 I I #
straight-curve $-1 40.153813287759029 19.897012854681755 0 0 0 -1 I I #
plane-surface $-1 40.153813287759029 0 0 -1 0 0 0 0 1 forward_v I I I I #
coedge $-1 $396 $299 $310 $405 forward $200 $-1 #
coedge $-1 $299 $396 $313 $407 reversed $200 $-1 #
straight-curve $-1 40.153813287759029 -12.919515401931056 1.4928767301514094 0 0 1 I I #
coedge $-1 $394 $393 $302 $397 forward $200 $-1 #
edge $-1 $400 4.7153833377778529 $398 11.692880790528552 $396 $443 forward 7 unknown #
vertex $-1 $304 $444 #
straight-curve $-1 0 -19.897012854681755 0.74752549264637569 1 0 0 I I #
vertex $-1 $397 $445 #
straight-curve $-1 0 -12.919515401931056 0.74752549264637569 1 0 0 I I #
point $-1 40.153813287759029 -19.897012854681755 0.74752549264637569 #
point $-1 40.153813287759029 -12.919515401931056 0.74752549264637569 #
straight-curve $-1 -40.153813287759029 -8.2041320641532032 5.223981427959262 0 1 0 I I #
edge $-1 $311 -3.7311046978078526 $400 0.74535123750503374 $393 $446 forward 7 unknown #
point $-1 -40.153813287759029 -12.919515401931056 5.223981427959262 #
edge $-1 $315 -5.223981427959262 $398 -0.74752549264637569 $394 $447 forward 7 unknown #
point $-1 -40.153813287759029 -19.897012854681755 5.223981427959262 #
straight-curve $-1 40.153813287759029 -19.897012854681755 0 0 0 -1 I I #
edge $-1 $411 26.419874678301525 $414 31.692330363115431 $321 $448 forward 7 unknown #
vertex $-1 $335 $449 #
straight-curve $-1 -43.108188072202537 -0.49754489527730072 7.6719510242375293 -1 0 0 I I #
edge $-1 $414 -1.6691425160680655 $332 6.002517338758798 $331 $450 forward 7 unknown #
vertex $-1 $413 $451 #
straight-curve $-1 -40.153813287759029 -0.49754489527730072 2.3994953394236234 0.81915203911291934 0 0.57357644374324357 I I #
point $-1 -32.623966355479581 -0.49754489527730072 7.6719510242375302 #
point $-1 -40.153813287759029 -8.1692047501041642 2.3994953394236234 #
straight-curve $-1 -40.153813287759029 0 7.6719510242375311 0 -1 0 I I #
vertex $-1 $338 $452 #
point $-1 -35.405737358319591 -6.6348727791387923 4.5033593645892722 #
vertex $-1 $342 $453 #
point $-1 -35.405737358319591 -4.3333748226907325 4.5033593645892722 #
vertex $-1 $346 $454 #
point $-1 -35.405737358319591 -2.0318768662426727 4.5033593645892722 #
coedge $-1 $361 $360 $353 $426 forward $350 $-1 #
edge $-1 $427 50.682370381354161 $430 54.112537202855201 $425 $455 forward 7 unknown #
vertex $-1 $365 $456 #
straight-curve $-1 12.173814098341975 8.6744209666775145 7.6719510242375293 1 0 0 I I #
edge $-1 $430 2.2092526205628236 $362 10.721084071666557 $361 $457 forward 7 unknown #
vertex $-1 $429 $458 #
straight-curve $-1 -23.98270856200196 8.6744209666775145 52.572120961422399 -0.79863550430605224 0 0.6018150307709319 I I #
point $-1 35.601828260342714 8.6744209666775145 7.6719510242375293 #
point $-1 40.153813287759021 17.186252417781247 4.2417842027364898 #
straight-curve $-1 40.153813287759029 0 7.6719510242375311 0 1 0 I I #
vertex $-1 $368 $459 #
point $-1 37.475664619356458 11.106372809850008 5.0077783514882235 #
vertex $-1 $372 $460 #
point $-1 37.475664619356458 14.754300574608749 5.0077783514882235 #
straight-curve $-1 -40.153813287759029 19.897012854681755 0 0 0 -1 I I #
point $-1 -40.153813287759029 -19.897012854681755 -7.6719510242375311 #
straight-curve $-1 -40.153813287759029 0 -7.6719510242375311 0 1 0 I I #
point $-1 -40.153813287759029 19.897012854681755 -7.6719510242375311 #
straight-curve $-1 -40.153813287759029 -8.2041320641532032 0.74752549264637569 0 -1 0 I I #
point $-1 -40.153813287759029 -19.897012854681755 0.74752549264637569 #
point $-1 -40.153813287759029 -12.919515401931056 0.74752549264637569 #
straight-curve $-1 -40.153813287759029 -12.919515401931056 1.4928767301514094 0 0 -1 I I #
straight-curve $-1 -40.153813287759029 -19.897012854681755 0 0 0 -1 I I #
straight-curve $-1 -40.153813287759029 -0.49754489527730072 34.091825702539055 0 0 -1 I I #
point $-1 -40.153813287759029 -0.49754489527730072 7.6719510242375311 #
straight-curve $-1 -40.153813287759029 -2.1666874113453662 2.3994953394236229 0 -1 0 I I #
point $-1 -40.153813287759029 -0.49754489527730072 2.3994953394236234 #
point $-1 -35.528525156004434 -6.6348727791387923 3.8069951231611907 #
point $-1 -35.528525156004434 -4.3333748226907325 3.8069951231611907 #
point $-1 -35.528525156004434 -2.0318768662426727 3.8069951231611907 #
straight-curve $-1 40.153813287759029 8.6744209666775145 58.354321405591691 0 0 -1 I I #
point $-1 40.153813287759029 8.6744209666775145 7.6719510242375311 #
straight-curve $-1 40.153813287759021 6.4651683461146909 4.2417842027364934 0 1 0 I I #
point $-1 40.153813287759021 8.6744209666775145 4.2417842027364898 #
point $-1 37.125551985587215 11.106372809850008 4.9585732331044428 #
point $-1 37.125551985587215 14.754300574608749 4.9585732331044428 #
End-of-ACIS-data 