500 0 8 0           
7 Unknown 11 ACIS 5.0 NT 24 Fri Mar 26 15:38:02 1999 
-1 9.9999999999999995e-007 1e-010 
body $-1 $8 $-1 $9 #
body $-1 $10 $-1 $11 #
body $-1 $12 $-1 $13 #
body $-1 $14 $-1 $15 #
body $-1 $16 $-1 $17 #
body $-1 $18 $-1 $19 #
body $-1 $20 $-1 $21 #
body $-1 $22 $-1 $23 #
lump $-1 $-1 $24 $0 #
transform $-1 1 0 0 0 1 0 0 0 1 45.492110965300455 28.867713396993903 10.49790295319192 1 rotate no_reflect no_shear #
lump $-1 $-1 $25 $1 #
transform $-1 1 0 0 0 1 0 0 0 1 45.492110965300455 28.867713396993903 10.49790295319192 1 rotate no_reflect no_shear #
lump $-1 $-1 $26 $2 #
transform $-1 1 0 0 0 1 0 0 0 1 45.492110965300455 28.867713396993903 10.49790295319192 1 rotate no_reflect no_shear #
lump $-1 $-1 $27 $3 #
transform $-1 1 0 0 0 1 0 0 0 1 45.492110965300455 28.867713396993903 10.49790295319192 1 rotate no_reflect no_shear #
lump $-1 $-1 $28 $4 #
transform $-1 1 0 0 0 1 0 0 0 1 45.492110965300455 28.867713396993903 10.49790295319192 1 rotate no_reflect no_shear #
lump $-1 $-1 $29 $5 #
transform $-1 1 0 0 0 1 0 0 0 1 45.492110965300455 28.867713396993903 10.49790295319192 1 rotate no_reflect no_shear #
lump $-1 $-1 $30 $6 #
transform $-1 1 0 0 0 1 0 0 0 1 45.492110965300455 28.867713396993903 10.49790295319192 1 rotate no_reflect no_shear #
lump $-1 $-1 $31 $7 #
transform $-1 1 0 0 0 1 0 0 0 1 45.492110965300455 28.867713396993903 10.49790295319192 1 rotate no_reflect no_shear #
shell $-1 $-1 $-1 $32 $-1 $8 #
shell $-1 $-1 $-1 $33 $-1 $10 #
shell $-1 $-1 $-1 $34 $-1 $12 #
shell $-1 $-1 $-1 $35 $-1 $14 #
shell $-1 $-1 $-1 $36 $-1 $16 #
shell $-1 $-1 $-1 $37 $-1 $18 #
shell $-1 $-1 $-1 $38 $-1 $20 #
shell $-1 $-1 $-1 $39 $-1 $22 #
face $-1 $40 $41 $24 $-1 $42 forward single #
face $-1 $43 $44 $25 $-1 $45 forward single #
face $-1 $46 $47 $26 $-1 $48 forward single #
face $-1 $49 $50 $27 $-1 $51 reversed single #
face $-1 $52 $53 $28 $-1 $54 forward single #
face $-1 $55 $56 $29 $-1 $57 forward single #
face $-1 $58 $59 $30 $-1 $60 reversed single #
face $-1 $61 $62 $31 $-1 $63 forward single #
face $-1 $64 $65 $24 $-1 $66 reversed single #
loop $-1 $-1 $67 $32 #
plane-surface $-1 0 0 10.49790295319192 0 0 1 1 0 0 forward_v I I I I #
face $-1 $68 $69 $25 $-1 $70 reversed single #
loop $-1 $-1 $71 $33 #
plane-surface $-1 -38.800637348019194 0 -5.3283096894779955 0 0 1 1 0 0 forward_v I I I I #
face $-1 $72 $73 $26 $-1 $74 reversed single #
loop $-1 $-1 $75 $34 #
plane-surface $-1 38.800637348019194 0 -5.3283096894779955 0 0 1 1 0 0 forward_v I I I I #
face $-1 $76 $77 $27 $-1 $78 reversed single #
loop $-1 $-1 $79 $35 #
plane-surface $-1 19.319711783973574 52.378163124507466 110.47215361191328 -1 0 0 0 0.70710678939079041 0.70710677298230451 forward_v I I I I #
face $-1 $80 $81 $28 $-1 $82 forward single #
loop $-1 $83 $84 $36 #
cone-surface $-1 13.563499290374992 25.920949473806541 7.5511389780330678 0 -0.70710678939079041 -0.70710677298230451 0.5 0 0 1 I I 0 1 0.5 forward I I I I #
face $-1 $85 $86 $29 $-1 $87 forward single #
loop $-1 $88 $89 $37 #
cone-surface $-1 17.017226786534138 25.920949473806541 7.5511389780330678 0 -0.70710678939079041 -0.70710677298230451 0.5 0 0 1 I I 0 1 0.5 forward I I I I #
face $-1 $90 $91 $30 $-1 $92 reversed single #
loop $-1 $-1 $93 $38 #
plane-surface $-1 -32.109163730737933 -101.53094463304417 56.578260344511413 1 0 0 0 0.79863551827123203 -0.60181501223851219 forward_v I I I I #
face $-1 $94 $95 $31 $-1 $96 forward single #
loop $-1 $97 $98 $39 #
cone-surface $-1 -25.425397348150447 -23.040024715608258 4.2318789209719938 0 0.79863551827123203 -0.60181501223851219 2.5 0 0 1 I I 0 1 2.5 forward I I I I #
face $-1 $99 $100 $24 $-1 $101 reversed single #
loop $-1 $-1 $102 $40 #
plane-surface $-1 0 0 -10.49790295319192 0 0 1 1 0 0 forward_v I I I I #
coedge $-1 $103 $104 $105 $106 forward $41 $-1 #
face $-1 $107 $108 $25 $-1 $109 reversed single #
loop $-1 $-1 $110 $43 #
plane-surface $-1 -32.109163730737933 0 -7.9131063213349577 -1 0 0 0 0 1 forward_v I I I I #
coedge $-1 $111 $112 $113 $114 forward $44 $-1 #
face $-1 $115 $116 $26 $-1 $117 reversed single #
loop $-1 $-1 $118 $46 #
plane-surface $-1 32.109163730737933 0 -7.9131063213349577 1 0 0 0 0 -1 forward_v I I I I #
coedge $-1 $119 $120 $121 $122 reversed $47 $-1 #
face $-1 $123 $124 $27 $-1 $125 reversed single #
loop $-1 $-1 $126 $49 #
plane-surface $-1 15.290363038454565 -11.957397930058889 46.136594050260257 0 0.70710678939079041 0.70710677298230451 1 0 0 forward_v I I I I #
coedge $-1 $127 $128 $129 $130 reversed $50 $-1 #
face $-1 $-1 $131 $28 $-1 $132 forward single #
loop $-1 $133 $134 $52 #
cone-surface $-1 13.563499290374992 25.390619381763447 7.0208088982963393 0 -0.70710678939079041 -0.70710677298230451 0.25 0 0 1 I I -0.70710678118654746 0.70710678118654746 0.25 forward I I I I #
loop $-1 $-1 $135 $36 #
coedge $-1 $84 $84 $136 $137 reversed $53 $-1 #
face $-1 $-1 $138 $29 $-1 $139 forward single #
loop $-1 $140 $141 $55 #
cone-surface $-1 17.017226786534138 25.390619381763447 7.0208088982963393 0 -0.70710678939079041 -0.70710677298230451 0.25 0 0 1 I I -0.70710678118654746 0.70710678118654746 0.25 forward I I I I #
loop $-1 $-1 $142 $37 #
coedge $-1 $89 $89 $143 $144 reversed $56 $-1 #
face $-1 $145 $146 $30 $-1 $147 reversed single #
loop $-1 $-1 $148 $58 #
plane-surface $-1 -25.425397348150447 -28.867713396993921 1.8225897098353201 0 -0.79863551827123203 0.60181501223851219 1 0 0 forward_v I I I I #
coedge $-1 $149 $150 $151 $152 reversed $59 $-1 #
face $-1 $-1 $153 $31 $-1 $154 forward single #
loop $-1 $155 $156 $61 #
cone-surface $-1 -25.425397348150447 -19.482700258670423 1.5512427451322335 0 0.79863551827123203 -0.60181501223851219 1.25 0 0 1 I I -0.70710678118654757 0.70710678118654735 1.25 forward I I I I #
loop $-1 $-1 $157 $39 #
coedge $-1 $98 $98 $158 $159 reversed $62 $-1 #
face $-1 $160 $161 $24 $-1 $162 reversed single #
loop $-1 $-1 $163 $64 #
plane-surface $-1 0 -28.867713396993903 0 0 1 0 0 0 1 forward_v I I I I #
coedge $-1 $164 $165 $166 $167 forward $65 $-1 #
coedge $-1 $168 $67 $169 $170 forward $41 $-1 #
coedge $-1 $67 $168 $171 $172 forward $41 $-1 #
coedge $-1 $173 $174 $67 $106 reversed $175 $-1 #
edge $-1 $176 -28.867713396993903 $177 28.867713396993903 $105 $178 forward 7 unknown #
face $-1 $179 $180 $25 $-1 $181 reversed single #
loop $-1 $-1 $182 $68 #
plane-surface $-1 0 0 -10.49790295319192 0 0 1 1 0 0 forward_v I I I I #
coedge $-1 $183 $113 $184 $185 reversed $69 $-1 #
coedge $-1 $186 $71 $187 $188 reversed $44 $-1 #
coedge $-1 $71 $186 $189 $190 reversed $44 $-1 #
coedge $-1 $110 $191 $71 $114 reversed $69 $-1 #
edge $-1 $192 -28.867713396993903 $193 28.867713396993903 $113 $194 forward 7 unknown #
face $-1 $195 $196 $26 $-1 $197 reversed single #
loop $-1 $-1 $198 $72 #
plane-surface $-1 0 -28.867713396993903 0 0 1 0 0 0 1 forward_v I I I I #
coedge $-1 $199 $200 $201 $202 reversed $73 $-1 #
coedge $-1 $203 $75 $204 $205 reversed $47 $-1 #
coedge $-1 $75 $203 $198 $206 reversed $47 $-1 #
coedge $-1 $207 $208 $75 $122 forward $209 $-1 #
edge $-1 $210 -28.867713396993903 $211 28.867713396993903 $121 $212 forward 7 unknown #
face $-1 $213 $214 $27 $-1 $215 reversed single #
loop $-1 $-1 $216 $76 #
plane-surface $-1 11.261014292935556 52.378163124507466 110.47215361191328 1 0 0 0 -0.70710678939079041 -0.70710677298230451 forward_v I I I I #
coedge $-1 $217 $218 $219 $220 reversed $77 $-1 #
coedge $-1 $128 $79 $221 $222 reversed $50 $-1 #
coedge $-1 $79 $127 $217 $223 reversed $50 $-1 #
coedge $-1 $219 $224 $79 $130 forward $214 $-1 #
edge $-1 $225 44.738173852764724 $226 49.924595030100114 $129 $227 forward 7 unknown #
loop $-1 $-1 $136 $80 #
plane-surface $-1 15.290363038454565 -11.957397930058889 46.136594050260257 0 0.70710678939079041 0.70710677298230451 1 0 0 forward_v I I I I #
loop $-1 $-1 $228 $52 #
coedge $-1 $134 $134 $135 $229 reversed $81 $-1 #
coedge $-1 $135 $135 $134 $229 forward $83 $-1 #
coedge $-1 $136 $136 $84 $137 forward $131 $-1 #
edge $-1 $230 -2.512147963041366e-015 $230 6.2831853071795978 $136 $231 forward 7 unknown #
loop $-1 $-1 $143 $85 #
plane-surface $-1 15.290363038454565 -11.957397930058889 46.136594050260257 0 0.70710678939079041 0.70710677298230451 1 0 0 forward_v I I I I #
loop $-1 $-1 $232 $55 #
coedge $-1 $141 $141 $142 $233 reversed $86 $-1 #
coedge $-1 $142 $142 $141 $233 forward $88 $-1 #
coedge $-1 $143 $143 $89 $144 forward $138 $-1 #
edge $-1 $234 -2.512147963041366e-015 $234 6.2831853071795978 $143 $235 forward 7 unknown #
face $-1 $236 $237 $30 $-1 $238 forward single #
loop $-1 $-1 $239 $90 #
plane-surface $-1 -18.741630965562962 -101.53094463304417 56.578260344511413 -1 0 0 0 -0.79863551827123203 0.60181501223851219 forward_v I I I I #
coedge $-1 $240 $241 $242 $243 reversed $91 $-1 #
coedge $-1 $150 $93 $244 $245 reversed $59 $-1 #
coedge $-1 $93 $149 $240 $246 reversed $59 $-1 #
coedge $-1 $242 $247 $93 $152 forward $248 $-1 #
edge $-1 $249 17.791227219063785 $250 26.466540462420362 $151 $251 forward 7 unknown #
loop $-1 $-1 $158 $94 #
plane-surface $-1 -25.425397348150447 -28.867713396993921 1.8225897098353201 0 -0.79863551827123203 0.60181501223851219 1 0 0 forward_v I I I I #
loop $-1 $-1 $252 $61 #
coedge $-1 $156 $156 $157 $253 reversed $95 $-1 #
coedge $-1 $157 $157 $156 $253 forward $97 $-1 #
coedge $-1 $158 $158 $98 $159 forward $153 $-1 #
edge $-1 $254 5.876325229949327e-016 $254 6.2831853071796013 $158 $255 forward 7 unknown #
face $-1 $256 $257 $24 $-1 $258 reversed single #
loop $-1 $-1 $259 $99 #
plane-surface $-1 -45.492110965300455 0 0 1 0 0 0 0 -1 forward_v I I I I #
coedge $-1 $260 $171 $261 $262 forward $100 $-1 #
coedge $-1 $263 $102 $260 $264 forward $65 $-1 #
coedge $-1 $102 $263 $265 $266 forward $65 $-1 #
coedge $-1 $174 $173 $102 $167 reversed $175 $-1 #
edge $-1 $267 -28.867713396993903 $268 28.867713396993903 $166 $269 forward 7 unknown #
coedge $-1 $104 $103 $270 $271 forward $41 $-1 #
coedge $-1 $272 $273 $103 $170 reversed $257 $-1 #
edge $-1 $177 -45.492110965300455 $274 45.492110965300455 $169 $275 forward 7 unknown #
coedge $-1 $163 $276 $104 $172 reversed $100 $-1 #
edge $-1 $277 -45.492110965300455 $176 45.492110965300455 $171 $278 forward 7 unknown #
coedge $-1 $166 $105 $276 $279 forward $175 $-1 #
coedge $-1 $105 $166 $272 $280 reversed $175 $-1 #
loop $-1 $-1 $173 $256 #
vertex $-1 $106 $281 #
vertex $-1 $106 $282 #
straight-curve $-1 45.492110965300455 0 10.49790295319192 0 1 0 I I #
face $-1 $283 $284 $25 $-1 $285 reversed single #
loop $-1 $-1 $184 $107 #
plane-surface $-1 0 -28.867713396993903 0 0 1 0 0 0 1 forward_v I I I I #
coedge $-1 $286 $287 $183 $288 forward $108 $-1 #
coedge $-1 $191 $110 $182 $288 reversed $69 $-1 #
coedge $-1 $189 $289 $110 $185 forward $180 $-1 #
edge $-1 $290 -6.541349792524441 $192 -1.3717565288105167 $184 $291 forward 7 unknown #
coedge $-1 $112 $111 $292 $293 reversed $44 $-1 #
coedge $-1 $294 $295 $111 $188 forward $296 $-1 #
edge $-1 $297 -26.091792291290858 $193 -12.708845056728336 $187 $298 forward 7 unknown #
coedge $-1 $299 $184 $112 $190 forward $180 $-1 #
edge $-1 $192 12.708845056728336 $300 26.091792291290858 $189 $301 forward 7 unknown #
coedge $-1 $113 $183 $294 $302 reversed $69 $-1 #
vertex $-1 $190 $303 #
vertex $-1 $188 $304 #
straight-curve $-1 -32.109163730737933 0 -5.3283096894779955 0 1 0 I I #
face $-1 $305 $306 $26 $-1 $307 reversed single #
loop $-1 $-1 $308 $115 #
plane-surface $-1 0 0 -10.49790295319192 0 0 1 1 0 0 forward_v I I I I #
coedge $-1 $309 $310 $120 $206 forward $116 $-1 #
coedge $-1 $311 $118 $308 $312 reversed $73 $-1 #
coedge $-1 $118 $311 $203 $313 reversed $73 $-1 #
coedge $-1 $204 $314 $118 $202 forward $306 $-1 #
edge $-1 $315 -6.541349792524441 $316 -1.3717565288105167 $201 $317 forward 7 unknown #
coedge $-1 $120 $119 $200 $313 forward $47 $-1 #
coedge $-1 $318 $201 $119 $205 forward $306 $-1 #
edge $-1 $316 12.708845056728336 $210 26.091792291290858 $204 $319 forward 7 unknown #
edge $-1 $211 -26.091792291290858 $320 -12.708845056728336 $198 $321 forward 7 unknown #
coedge $-1 $322 $121 $310 $323 forward $209 $-1 #
coedge $-1 $121 $322 $318 $324 reversed $209 $-1 #
loop $-1 $-1 $121 $305 #
vertex $-1 $324 $325 #
vertex $-1 $323 $326 #
straight-curve $-1 45.492110965300455 0 -5.3283096894779955 0 -1 0 I I #
face $-1 $-1 $327 $27 $-1 $328 forward single #
loop $-1 $-1 $129 $123 #
plane-surface $-1 0 28.867713396993903 0 0 -1 0 0 0 -1 forward_v I I I I #
coedge $-1 $329 $330 $331 $332 reversed $124 $-1 #
coedge $-1 $333 $126 $128 $223 forward $77 $-1 #
coedge $-1 $126 $333 $329 $334 forward $77 $-1 #
coedge $-1 $331 $129 $126 $220 forward $214 $-1 #
edge $-1 $226 -11.674530264746291 $335 -3.6158327737082736 $219 $336 forward 7 unknown #
coedge $-1 $337 $338 $127 $222 forward $327 $-1 #
edge $-1 $339 -2.5077892222437868 $225 2.6786318347401696 $221 $340 forward 7 unknown #
edge $-1 $226 -57.73542679398782 $339 -50.400719709922384 $128 $341 forward 7 unknown #
coedge $-1 $129 $331 $337 $342 reversed $214 $-1 #
vertex $-1 $342 $343 #
vertex $-1 $130 $344 #
straight-curve $-1 19.319711783973574 28.867713396993903 55.236076805956642 0 0 -1 I I #
coedge $-1 $228 $228 $-1 $345 reversed $133 $-1 #
edge $-1 $346 0 $346 6.2831853071796004 $134 $347 forward 7 unknown #
vertex $-1 $137 $348 #
ellipse-curve $-1 13.563499290374992 26.274502868501934 7.9046923645242178 0 0.70710678939079041 0.70710677298230451 0.5 0 0 1 I I #
coedge $-1 $232 $232 $-1 $349 reversed $140 $-1 #
edge $-1 $350 0 $350 6.2831853071796004 $141 $351 forward 7 unknown #
vertex $-1 $144 $352 #
ellipse-curve $-1 17.017226786534138 26.274502868501934 7.9046923645242178 0 0.70710678939079041 0.70710677298230451 0.5 0 0 1 I I #
face $-1 $-1 $248 $30 $-1 $353 reversed single #
loop $-1 $-1 $354 $145 #
plane-surface $-1 0 0 10.49790295319192 0 0 1 1 0 0 forward_v I I I I #
coedge $-1 $355 $356 $357 $358 reversed $146 $-1 #
coedge $-1 $359 $148 $150 $246 forward $91 $-1 #
coedge $-1 $148 $359 $355 $360 forward $91 $-1 #
coedge $-1 $357 $151 $148 $243 forward $248 $-1 #
edge $-1 $250 -19.396465056662709 $361 -6.0289322914877381 $242 $362 forward 7 unknown #
coedge $-1 $363 $364 $149 $245 forward $237 $-1 #
edge $-1 $365 -28.435076164101865 $249 -21.897758919528183 $244 $366 forward 7 unknown #
edge $-1 $250 2.9487649192601403e-014 $365 10.86266894582354 $150 $367 forward 7 unknown #
coedge $-1 $151 $357 $363 $368 reversed $248 $-1 #
loop $-1 $-1 $357 $236 #
vertex $-1 $368 $369 #
vertex $-1 $152 $370 #
straight-curve $-1 -32.109163730737933 -28.867713396993906 28.289130172255707 0 0 -1 I I #
coedge $-1 $252 $252 $-1 $371 reversed $155 $-1 #
edge $-1 $372 0 $372 6.2831853071796004 $156 $373 forward 7 unknown #
vertex $-1 $159 $374 #
ellipse-curve $-1 -25.425397348150447 -25.599054774707067 6.1602463315136262 0 -0.79863551827123203 0.60181501223851219 2.5 0 0 1 I I #
face $-1 $-1 $175 $24 $-1 $375 reversed single #
loop $-1 $-1 $272 $160 #
plane-surface $-1 0 28.867713396993903 0 0 -1 0 0 0 -1 forward_v I I I I #
coedge $-1 $376 $270 $273 $377 forward $161 $-1 #
coedge $-1 $276 $163 $164 $264 reversed $100 $-1 #
coedge $-1 $270 $376 $163 $262 reversed $161 $-1 #
edge $-1 $277 -10.49790295319192 $378 10.49790295319192 $261 $379 forward 7 unknown #
coedge $-1 $165 $164 $376 $380 forward $65 $-1 #
edge $-1 $268 -45.492110965300455 $378 45.492110965300455 $260 $381 forward 7 unknown #
coedge $-1 $273 $272 $165 $266 reversed $257 $-1 #
edge $-1 $382 -45.492110965300455 $267 45.492110965300455 $265 $383 forward 7 unknown #
vertex $-1 $167 $384 #
vertex $-1 $279 $385 #
straight-curve $-1 45.492110965300455 0 -10.49790295319192 0 -1 0 I I #
coedge $-1 $259 $261 $168 $271 reversed $161 $-1 #
edge $-1 $274 -28.867713396993903 $277 28.867713396993903 $270 $386 forward 7 unknown #
coedge $-1 $265 $169 $174 $280 forward $257 $-1 #
coedge $-1 $169 $265 $259 $377 reversed $257 $-1 #
vertex $-1 $170 $387 #
straight-curve $-1 0 28.867713396993903 10.49790295319192 -1 0 0 I I #
coedge $-1 $171 $260 $173 $279 reversed $100 $-1 #
vertex $-1 $271 $388 #
straight-curve $-1 0 -28.867713396993903 10.49790295319192 1 0 0 I I #
edge $-1 $176 -10.49790295319192 $268 10.49790295319192 $173 $389 forward 7 unknown #
edge $-1 $177 -10.49790295319192 $267 10.49790295319192 $174 $390 forward 7 unknown #
point $-1 45.492110965300455 -28.867713396993903 10.49790295319192 #
point $-1 45.492110965300455 28.867713396993903 10.49790295319192 #
face $-1 $-1 $296 $25 $-1 $391 reversed single #
loop $-1 $-1 $292 $179 #
plane-surface $-1 -45.492110965300455 0 0 1 0 0 0 0 -1 forward_v I I I I #
coedge $-1 $392 $182 $289 $393 forward $108 $-1 #
coedge $-1 $182 $392 $394 $395 forward $108 $-1 #
edge $-1 $396 -28.867713396993903 $290 28.867713396993903 $182 $397 forward 7 unknown #
coedge $-1 $184 $299 $286 $393 reversed $180 $-1 #
vertex $-1 $393 $398 #
straight-curve $-1 -32.109163730737933 -28.867713396993903 -3.9565531606674789 0 0 1 I I #
coedge $-1 $399 $400 $186 $293 forward $284 $-1 #
edge $-1 $300 -28.867713396993903 $297 28.867713396993903 $292 $401 forward 7 unknown #
coedge $-1 $394 $187 $191 $302 forward $296 $-1 #
coedge $-1 $187 $394 $399 $402 reversed $296 $-1 #
loop $-1 $-1 $294 $283 #
vertex $-1 $402 $403 #
straight-curve $-1 -19.400318674009597 28.867713396993903 -5.3283096894779955 1 0 0 I I #
coedge $-1 $289 $189 $400 $404 forward $180 $-1 #
vertex $-1 $404 $405 #
straight-curve $-1 -19.400318674009597 -28.867713396993903 -5.3283096894779955 -1 0 0 I I #
edge $-1 $193 1.3717565288105167 $396 6.541349792524441 $294 $406 forward 7 unknown #
point $-1 -32.109163730737933 -28.867713396993903 -5.3283096894779955 #
point $-1 -32.109163730737933 28.867713396993903 -5.3283096894779955 #
face $-1 $-1 $209 $26 $-1 $407 reversed single #
loop $-1 $-1 $204 $195 #
plane-surface $-1 0 28.867713396993903 0 0 -1 0 0 0 -1 forward_v I I I I #
coedge $-1 $408 $409 $199 $312 forward $196 $-1 #
coedge $-1 $410 $198 $311 $411 forward $116 $-1 #
coedge $-1 $198 $410 $207 $323 reversed $116 $-1 #
coedge $-1 $200 $199 $309 $411 reversed $73 $-1 #
edge $-1 $412 -28.867713396993903 $315 28.867713396993903 $308 $413 forward 7 unknown #
edge $-1 $316 -28.867713396993903 $320 28.867713396993903 $200 $414 forward 7 unknown #
coedge $-1 $201 $318 $408 $415 reversed $306 $-1 #
vertex $-1 $415 $416 #
vertex $-1 $205 $417 #
straight-curve $-1 32.109163730737933 28.867713396993903 -3.9565531606674789 0 0 1 I I #
coedge $-1 $314 $204 $208 $324 forward $306 $-1 #
straight-curve $-1 19.400318674009597 28.867713396993903 -5.3283096894779955 1 0 0 I I #
vertex $-1 $206 $418 #
straight-curve $-1 19.400318674009597 -28.867713396993903 -5.3283096894779955 -1 0 0 I I #
coedge $-1 $208 $207 $419 $420 reversed $209 $-1 #
edge $-1 $211 5.3283096894779955 $421 10.49790295319192 $207 $422 forward 7 unknown #
edge $-1 $210 5.3283096894779955 $423 10.49790295319192 $208 $424 forward 7 unknown #
point $-1 45.492110965300455 28.867713396993903 -5.3283096894779955 #
point $-1 45.492110965300455 -28.867713396993903 -5.3283096894779955 #
loop $-1 $-1 $221 $213 #
plane-surface $-1 0 0 10.49790295319192 0 0 1 1 0 0 forward_v I I I I #
coedge $-1 $330 $216 $218 $334 reversed $124 $-1 #
coedge $-1 $216 $329 $425 $426 reversed $124 $-1 #
coedge $-1 $224 $219 $216 $332 forward $214 $-1 #
edge $-1 $335 -49.924595030100114 $427 -44.738173852764724 $331 $428 forward 7 unknown #
coedge $-1 $218 $217 $338 $429 reversed $77 $-1 #
edge $-1 $430 50.400719709922384 $335 57.73542679398782 $329 $431 forward 7 unknown #
vertex $-1 $220 $432 #
straight-curve $-1 7.6451815192272825 28.867713396993906 5.3114817758565245 -1 0 0 I I #
coedge $-1 $425 $221 $224 $342 forward $327 $-1 #
coedge $-1 $221 $425 $333 $429 forward $327 $-1 #
vertex $-1 $222 $433 #
straight-curve $-1 19.319711783973574 26.189081562253733 10.497902953191918 0 1 0 I I #
straight-curve $-1 19.319711783973574 -11.957397930058889 46.136594050260257 0 -0.70710677298230451 0.70710678939079041 I I #
edge $-1 $225 -19.319711783973574 $427 -11.261014292935556 $224 $434 forward 7 unknown #
point $-1 19.319711783973574 28.867713396993903 10.49790295319192 #
point $-1 19.319711783973574 28.867713396993906 5.311481775856528 #
edge $-1 $435 1 $435 0 $228 $-1 forward 7 unknown #
vertex $-1 $229 $436 #
ellipse-curve $-1 13.563499290374992 25.567396079111145 7.1975855915419151 0 0.70710678939079041 0.70710677298230451 0.5 0 0 1 I I #
point $-1 14.063499290374992 26.274502868501934 7.9046923645242195 #
edge $-1 $437 1 $437 0 $232 $-1 forward 7 unknown #
vertex $-1 $233 $438 #
ellipse-curve $-1 17.017226786534138 25.567396079111145 7.1975855915419151 0 0.70710678939079041 0.70710677298230451 0.5 0 0 1 I I #
point $-1 17.517226786534138 26.274502868501934 7.9046923645242195 #
plane-surface $-1 0 -28.867713396993903 0 0 1 0 0 0 1 forward_v I I I I #
coedge $-1 $364 $363 $356 $439 forward $237 $-1 #
coedge $-1 $356 $239 $241 $360 reversed $146 $-1 #
coedge $-1 $239 $355 $354 $439 reversed $146 $-1 #
coedge $-1 $247 $242 $239 $358 forward $248 $-1 #
edge $-1 $361 -26.466540462420362 $440 -17.791227219063785 $357 $441 forward 7 unknown #
coedge $-1 $241 $240 $364 $442 reversed $91 $-1 #
edge $-1 $443 -10.86266894582354 $361 -2.9487649192601403e-014 $355 $444 forward 7 unknown #
vertex $-1 $243 $445 #
straight-curve $-1 -12.712698674075224 -28.867713396993903 1.822589709835347 1 0 0 I I #
coedge $-1 $354 $244 $247 $368 forward $237 $-1 #
coedge $-1 $244 $354 $359 $442 forward $237 $-1 #
vertex $-1 $245 $446 #
straight-curve $-1 -32.109163730737933 -50.765472316522086 10.497902953191918 0 -1 0 I I #
straight-curve $-1 -32.109163730737933 -28.867713396993921 1.8225897098353201 0 0.60181501223851219 0.79863551827123203 I I #
edge $-1 $249 -32.109163730737933 $440 -18.741630965562962 $247 $447 forward 7 unknown #
point $-1 -32.109163730737933 -28.867713396993903 10.49790295319192 #
point $-1 -32.109163730737933 -28.867713396993903 1.8225897098353436 #
edge $-1 $448 1 $448 0 $252 $-1 forward 7 unknown #
vertex $-1 $253 $449 #
ellipse-curve $-1 -25.425397348150447 -20.480994656509463 2.3035115104303734 0 -0.79863551827123203 0.60181501223851219 2.5 0 0 1 I I #
point $-1 -22.925397348150447 -25.599054774707049 6.1602463315136147 #
plane-surface $-1 45.492110965300455 0 0 -1 0 0 0 0 1 forward_v I I I I #
coedge $-1 $261 $259 $263 $380 reversed $161 $-1 #
edge $-1 $274 -10.49790295319192 $382 10.49790295319192 $273 $450 forward 7 unknown #
vertex $-1 $380 $451 #
straight-curve $-1 -45.492110965300455 -28.867713396993903 0 0 0 -1 I I #
edge $-1 $378 -28.867713396993903 $382 28.867713396993903 $376 $452 forward 7 unknown #
straight-curve $-1 0 -28.867713396993903 -10.49790295319192 -1 0 0 I I #
vertex $-1 $266 $453 #
straight-curve $-1 0 28.867713396993903 -10.49790295319192 1 0 0 I I #
point $-1 45.492110965300455 28.867713396993903 -10.49790295319192 #
point $-1 45.492110965300455 -28.867713396993903 -10.49790295319192 #
straight-curve $-1 -45.492110965300455 0 10.49790295319192 0 -1 0 I I #
point $-1 -45.492110965300455 28.867713396993903 10.49790295319192 #
point $-1 -45.492110965300455 -28.867713396993903 10.49790295319192 #
straight-curve $-1 45.492110965300455 -28.867713396993903 0 0 0 -1 I I #
straight-curve $-1 45.492110965300455 28.867713396993903 0 0 0 -1 I I #
plane-surface $-1 0 28.867713396993903 0 0 -1 0 0 0 -1 forward_v I I I I #
coedge $-1 $287 $286 $454 $455 forward $108 $-1 #
edge $-1 $290 32.109163730737933 $456 45.492110965300455 $289 $457 forward 7 unknown #
coedge $-1 $295 $294 $287 $395 reversed $296 $-1 #
edge $-1 $458 -45.492110965300455 $396 -32.109163730737933 $394 $459 forward 7 unknown #
vertex $-1 $302 $460 #
straight-curve $-1 -32.109163730737933 0 -10.49790295319192 0 -1 0 I I #
point $-1 -32.109163730737933 -28.867713396993903 -10.49790295319192 #
coedge $-1 $454 $292 $295 $402 forward $284 $-1 #
coedge $-1 $292 $454 $299 $404 reversed $284 $-1 #
straight-curve $-1 -45.492110965300455 0 -5.3283096894779955 0 1 0 I I #
edge $-1 $297 5.3283096894779955 $458 10.49790295319192 $295 $461 forward 7 unknown #
point $-1 -45.492110965300455 28.867713396993903 -5.3283096894779955 #
edge $-1 $300 5.3283096894779955 $456 10.49790295319192 $400 $462 forward 7 unknown #
point $-1 -45.492110965300455 -28.867713396993903 -5.3283096894779955 #
straight-curve $-1 -32.109163730737933 28.867713396993903 -3.9565531606674789 0 0 -1 I I #
plane-surface $-1 45.492110965300455 0 0 -1 0 0 0 0 1 forward_v I I I I #
coedge $-1 $419 $308 $314 $415 forward $196 $-1 #
coedge $-1 $308 $419 $410 $463 forward $196 $-1 #
coedge $-1 $310 $309 $409 $463 reversed $116 $-1 #
edge $-1 $320 1.3717565288105167 $412 6.541349792524441 $309 $464 forward 7 unknown #
vertex $-1 $312 $465 #
straight-curve $-1 32.109163730737933 0 -10.49790295319192 0 1 0 I I #
straight-curve $-1 32.109163730737933 0 -5.3283096894779955 0 -1 0 I I #
edge $-1 $315 32.109163730737933 $423 45.492110965300455 $314 $466 forward 7 unknown #
point $-1 32.109163730737933 28.867713396993903 -10.49790295319192 #
point $-1 32.109163730737933 28.867713396993903 -5.3283096894779955 #
point $-1 32.109163730737933 -28.867713396993903 -5.3283096894779955 #
coedge $-1 $409 $408 $322 $420 forward $196 $-1 #
edge $-1 $423 -28.867713396993903 $421 28.867713396993903 $322 $467 forward 7 unknown #
vertex $-1 $323 $468 #
straight-curve $-1 45.492110965300455 -28.867713396993903 0 0 0 -1 I I #
vertex $-1 $420 $469 #
straight-curve $-1 45.492110965300455 28.867713396993903 0 0 0 -1 I I #
coedge $-1 $338 $337 $330 $426 forward $327 $-1 #
edge $-1 $427 -2.6786318347401696 $430 2.5077892222437868 $425 $470 forward 7 unknown #
vertex $-1 $426 $471 #
straight-curve $-1 11.261014292935556 28.867713396993903 55.236076805956642 0 0 1 I I #
edge $-1 $430 3.6158327737082736 $339 11.674530264746291 $338 $472 forward 7 unknown #
vertex $-1 $429 $473 #
straight-curve $-1 11.261014292935556 -11.957397930058889 46.136594050260257 0 0.70710677298230451 -0.70710678939079041 I I #
point $-1 11.261014292935556 28.867713396993906 5.311481775856528 #
point $-1 19.319711783973574 23.681292340009946 10.497902953191918 #
straight-curve $-1 0 28.867713396993903 10.49790295319192 -1 0 0 I I #
vertex $-1 $345 $474 #
point $-1 14.063499290374992 25.567396079111145 7.1975855915419151 #
vertex $-1 $349 $475 #
point $-1 17.517226786534138 25.567396079111145 7.1975855915419151 #
edge $-1 $440 21.897758919528183 $443 28.435076164101865 $354 $476 forward 7 unknown #
vertex $-1 $358 $477 #
straight-curve $-1 -18.741630965562962 -28.867713396993906 28.289130172255707 0 0 1 I I #
edge $-1 $443 6.0289322914877381 $365 19.396465056662709 $364 $478 forward 7 unknown #
vertex $-1 $442 $479 #
straight-curve $-1 -18.741630965562962 -28.867713396993921 1.8225897098353201 0 -0.60181501223851219 -0.79863551827123203 I I #
point $-1 -18.741630965562962 -28.867713396993903 1.8225897098353436 #
point $-1 -32.109163730737933 -22.330396152420221 10.49790295319192 #
straight-curve $-1 0 -28.867713396993903 10.49790295319192 1 0 0 I I #
vertex $-1 $371 $480 #
point $-1 -22.925397348150447 -20.480994656509463 2.3035115104303734 #
straight-curve $-1 -45.492110965300455 28.867713396993903 0 0 0 -1 I I #
point $-1 -45.492110965300455 -28.867713396993903 -10.49790295319192 #
straight-curve $-1 -45.492110965300455 0 -10.49790295319192 0 1 0 I I #
point $-1 -45.492110965300455 28.867713396993903 -10.49790295319192 #
coedge $-1 $400 $399 $392 $455 reversed $284 $-1 #
edge $-1 $456 -28.867713396993903 $458 28.867713396993903 $454 $481 forward 7 unknown #
vertex $-1 $455 $482 #
straight-curve $-1 0 -28.867713396993903 -10.49790295319192 -1 0 0 I I #
vertex $-1 $395 $483 #
straight-curve $-1 0 28.867713396993903 -10.49790295319192 1 0 0 I I #
point $-1 -32.109163730737933 28.867713396993903 -10.49790295319192 #
straight-curve $-1 -45.492110965300455 28.867713396993903 0 0 0 -1 I I #
straight-curve $-1 -45.492110965300455 -28.867713396993903 0 0 0 -1 I I #
edge $-1 $421 -45.492110965300455 $412 -32.109163730737933 $410 $484 forward 7 unknown #
straight-curve $-1 32.109163730737933 -28.867713396993903 -3.9565531606674789 0 0 -1 I I #
point $-1 32.109163730737933 -28.867713396993903 -10.49790295319192 #
straight-curve $-1 0 28.867713396993903 -10.49790295319192 1 0 0 I I #
straight-curve $-1 45.492110965300455 0 -10.49790295319192 0 -1 0 I I #
point $-1 45.492110965300455 -28.867713396993903 -10.49790295319192 #
point $-1 45.492110965300455 28.867713396993903 -10.49790295319192 #
straight-curve $-1 11.261014292935556 26.189081562253733 10.497902953191918 0 -1 0 I I #
point $-1 11.261014292935556 28.867713396993903 10.49790295319192 #
straight-curve $-1 7.6451815192272825 23.681292340009946 10.497902953191918 1 0 0 I I #
point $-1 11.261014292935556 23.681292340009946 10.497902953191918 #
point $-1 13.563499290374992 25.213842684415749 6.8440322050507634 #
point $-1 17.017226786534138 25.213842684415749 6.8440322050507634 #
straight-curve $-1 -18.741630965562962 -50.765472316522086 10.497902953191918 0 1 0 I I #
point $-1 -18.741630965562962 -28.867713396993903 10.49790295319192 #
straight-curve $-1 -12.712698674075224 -22.330396152420221 10.49790295319192 -1 0 0 I I #
point $-1 -18.741630965562962 -22.330396152420221 10.49790295319192 #
point $-1 -25.425397348150447 -18.484405860831384 0.79897397983409346 #
straight-curve $-1 -45.492110965300455 0 -10.49790295319192 0 1 0 I I #
point $-1 -45.492110965300455 -28.867713396993903 -10.49790295319192 #
point $-1 -45.492110965300455 28.867713396993903 -10.49790295319192 #
straight-curve $-1 0 -28.867713396993903 -10.49790295319192 -1 0 0 I I #
End-of-ACIS-data 