500 0 11 0           
7 Unknown 11 ACIS 5.0 NT 24 Fri Mar 26 18:59:07 1999 
-1 9.9999999999999995e-007 1e-010 
body $-1 $11 $-1 $12 #
body $-1 $13 $-1 $14 #
body $-1 $15 $-1 $16 #
body $-1 $17 $-1 $18 #
body $-1 $19 $-1 $20 #
body $-1 $21 $-1 $22 #
body $-1 $23 $-1 $24 #
body $-1 $25 $-1 $26 #
body $-1 $27 $-1 $28 #
body $-1 $29 $-1 $30 #
body $-1 $31 $-1 $32 #
lump $-1 $-1 $33 $0 #
transform $-1 1 0 0 0 1 0 0 0 1 52.165898617511523 32.963683395638441 14.101841020997984 1 rotate no_reflect no_shear #
lump $-1 $-1 $34 $1 #
transform $-1 1 0 0 0 1 0 0 0 1 52.165898617511523 32.963683395638441 14.101841020997984 1 rotate no_reflect no_shear #
lump $-1 $-1 $35 $2 #
transform $-1 1 0 0 0 1 0 0 0 1 52.165898617511523 32.963683395638441 14.101841020997984 1 rotate no_reflect no_shear #
lump $-1 $-1 $36 $3 #
transform $-1 1 0 0 0 1 0 0 0 1 52.165898617511523 32.963683395638441 14.101841020997984 1 rotate no_reflect no_shear #
lump $-1 $-1 $37 $4 #
transform $-1 1 0 0 0 1 0 0 0 1 52.165898617511523 32.963683395638441 14.101841020997984 1 rotate no_reflect no_shear #
lump $-1 $-1 $38 $5 #
transform $-1 1 0 0 0 1 0 0 0 1 52.165898617511523 32.963683395638441 14.101841020997984 1 rotate no_reflect no_shear #
lump $-1 $-1 $39 $6 #
transform $-1 1 0 0 0 1 0 0 0 1 52.165898617511523 32.963683395638441 14.101841020997984 1 rotate no_reflect no_shear #
lump $-1 $-1 $40 $7 #
transform $-1 1 0 0 0 1 0 0 0 1 52.165898617511523 32.963683395638441 14.101841020997984 1 rotate no_reflect no_shear #
lump $-1 $-1 $41 $8 #
transform $-1 1 0 0 0 1 0 0 0 1 52.165898617511523 32.963683395638441 14.101841020997984 1 rotate no_reflect no_shear #
lump $-1 $-1 $42 $9 #
transform $-1 1 0 0 0 1 0 0 0 1 52.165898617511523 32.963683395638441 14.101841020997984 1 rotate no_reflect no_shear #
lump $-1 $-1 $43 $10 #
transform $-1 1 0 0 0 1 0 0 0 1 52.165898617511523 32.963683395638441 14.101841020997984 1 rotate no_reflect no_shear #
shell $-1 $-1 $-1 $44 $-1 $11 #
shell $-1 $-1 $-1 $45 $-1 $13 #
shell $-1 $-1 $-1 $46 $-1 $15 #
shell $-1 $-1 $-1 $47 $-1 $17 #
shell $-1 $-1 $-1 $48 $-1 $19 #
shell $-1 $-1 $-1 $49 $-1 $21 #
shell $-1 $-1 $-1 $50 $-1 $23 #
shell $-1 $-1 $-1 $51 $-1 $25 #
shell $-1 $-1 $-1 $52 $-1 $27 #
shell $-1 $-1 $-1 $53 $-1 $29 #
shell $-1 $-1 $-1 $54 $-1 $31 #
face $-1 $55 $56 $33 $-1 $57 forward single #
face $-1 $58 $59 $34 $-1 $60 forward single #
face $-1 $61 $62 $35 $-1 $63 forward single #
face $-1 $64 $65 $36 $-1 $66 reversed single #
face $-1 $67 $68 $37 $-1 $69 forward single #
face $-1 $70 $71 $38 $-1 $72 forward single #
face $-1 $73 $74 $39 $-1 $75 forward single #
face $-1 $76 $77 $40 $-1 $78 reversed single #
face $-1 $79 $80 $41 $-1 $81 forward single #
face $-1 $82 $83 $42 $-1 $84 forward single #
face $-1 $85 $86 $43 $-1 $87 forward single #
face $-1 $88 $89 $33 $-1 $90 reversed single #
loop $-1 $-1 $91 $44 #
plane-surface $-1 0 0 14.101841020997984 0 0 1 1 0 0 forward_v I I I I #
face $-1 $92 $93 $34 $-1 $94 reversed single #
loop $-1 $-1 $95 $45 #
plane-surface $-1 -46.73742360045015 0 -8.2071019095563074 0 0 1 1 0 0 forward_v I I I I #
face $-1 $96 $97 $35 $-1 $98 reversed single #
loop $-1 $-1 $99 $46 #
plane-surface $-1 46.73742360045015 0 -8.2071019095563074 0 0 1 1 0 0 forward_v I I I I #
face $-1 $100 $101 $36 $-1 $102 reversed single #
loop $-1 $-1 $103 $47 #
plane-surface $-1 41.308948583388776 30.187749346793353 130.71543776330253 -1 0 0 0 0.51503808176128008 0.85716729658548041 forward_v I I I I #
face $-1 $104 $105 $37 $-1 $106 forward single #
loop $-1 $107 $108 $48 #
cone-surface $-1 29.169435279911077 26.380408402876071 9.1374543867891145 0 -0.51503808176128008 -0.85716729658548041 1.5 0 0 1 I I 0 1 1.5 forward I I I I #
face $-1 $109 $110 $38 $-1 $111 forward single #
loop $-1 $112 $113 $49 #
cone-surface $-1 33.721752768715213 26.380408402876071 9.1374543867891145 0 -0.51503808176128008 -0.85716729658548041 1.5 0 0 1 I I 0 1 1.5 forward I I I I #
face $-1 $114 $115 $39 $-1 $116 forward single #
loop $-1 $117 $118 $50 #
cone-surface $-1 38.274070257519348 26.380408402876071 9.1374543867891145 0 -0.51503808176128008 -0.85716729658548041 1.5 0 0 1 I I 0 1 1.5 forward I I I I #
face $-1 $119 $120 $40 $-1 $121 reversed single #
loop $-1 $-1 $122 $51 #
plane-surface $-1 26.134556954041649 -86.698532110271543 96.760333235550988 1 0 0 0 0.51503808176128008 -0.85716729658548041 forward_v I I I I #
face $-1 $123 $124 $41 $-1 $125 forward single #
loop $-1 $126 $127 $52 #
cone-surface $-1 29.169435279911077 -26.380408402876071 9.1374543867891109 0 0.51503808176128008 -0.85716729658548041 1.5 0 0 1 I I 0 1 1.5 forward I I I I #
face $-1 $128 $129 $42 $-1 $130 forward single #
loop $-1 $131 $132 $53 #
cone-surface $-1 33.721752768715213 -26.380408402876071 9.1374543867891109 0 0.51503808176128008 -0.85716729658548041 1.5 0 0 1 I I 0 1 1.5 forward I I I I #
face $-1 $133 $134 $43 $-1 $135 forward single #
loop $-1 $136 $137 $54 #
cone-surface $-1 38.274070257519348 -26.380408402876071 9.1374543867891109 0 0.51503808176128008 -0.85716729658548041 1.5 0 0 1 I I 0 1 1.5 forward I I I I #
face $-1 $138 $139 $33 $-1 $140 reversed single #
loop $-1 $-1 $141 $55 #
plane-surface $-1 0 0 -14.101841020997984 0 0 1 1 0 0 forward_v I I I I #
coedge $-1 $142 $143 $144 $145 forward $56 $-1 #
face $-1 $146 $147 $34 $-1 $148 reversed single #
loop $-1 $-1 $149 $58 #
plane-surface $-1 -41.308948583388776 0 -11.154471465277146 -1 0 0 0 0 1 forward_v I I I I #
coedge $-1 $150 $151 $152 $153 forward $59 $-1 #
face $-1 $154 $155 $35 $-1 $156 reversed single #
loop $-1 $-1 $157 $61 #
plane-surface $-1 41.308948583388776 0 -11.154471465277146 1 0 0 0 0 -1 forward_v I I I I #
coedge $-1 $158 $159 $160 $161 reversed $62 $-1 #
face $-1 $162 $163 $36 $-1 $164 reversed single #
loop $-1 $-1 $165 $64 #
plane-surface $-1 33.721752768715213 -23.547099367839742 41.285633179453328 0 0.51503808176128008 0.85716729658548041 1 0 0 forward_v I I I I #
coedge $-1 $166 $167 $168 $169 reversed $65 $-1 #
face $-1 $-1 $170 $37 $-1 $171 forward single #
loop $-1 $172 $173 $67 #
cone-surface $-1 29.169435279911077 25.04553286918005 6.9158484647892315 0 -0.51503808176128008 -0.85716729658548041 0.75 0 0 1 I I -0.70710678118654757 0.70710678118654757 0.75 forward I I I I #
loop $-1 $-1 $174 $48 #
coedge $-1 $108 $108 $175 $176 reversed $68 $-1 #
face $-1 $-1 $177 $38 $-1 $178 forward single #
loop $-1 $179 $180 $70 #
cone-surface $-1 33.721752768715213 25.04553286918005 6.9158484647892315 0 -0.51503808176128008 -0.85716729658548041 0.75 0 0 1 I I -0.70710678118654757 0.70710678118654757 0.75 forward I I I I #
loop $-1 $-1 $181 $49 #
coedge $-1 $113 $113 $182 $183 reversed $71 $-1 #
face $-1 $-1 $184 $39 $-1 $185 forward single #
loop $-1 $186 $187 $73 #
cone-surface $-1 38.274070257519348 25.04553286918005 6.9158484647892315 0 -0.51503808176128008 -0.85716729658548041 0.75 0 0 1 I I -0.70710678118654757 0.70710678118654757 0.75 forward I I I I #
loop $-1 $-1 $188 $50 #
coedge $-1 $118 $118 $189 $190 reversed $74 $-1 #
face $-1 $191 $192 $40 $-1 $193 reversed single #
loop $-1 $-1 $194 $76 #
plane-surface $-1 33.721752768715213 -32.963683395638448 7.3305286517017834 0 -0.51503808176128008 0.85716729658548041 1 0 0 forward_v I I I I #
coedge $-1 $195 $196 $197 $198 reversed $77 $-1 #
face $-1 $-1 $199 $41 $-1 $200 forward single #
loop $-1 $201 $202 $79 #
cone-surface $-1 29.169435279911077 -25.04553286918005 6.915848464789228 0 0.51503808176128008 -0.85716729658548041 0.75 0 0 1 I I -0.70710678118654757 0.70710678118654757 0.75 forward I I I I #
loop $-1 $-1 $203 $52 #
coedge $-1 $127 $127 $204 $205 reversed $80 $-1 #
face $-1 $-1 $206 $42 $-1 $207 forward single #
loop $-1 $208 $209 $82 #
cone-surface $-1 33.721752768715213 -25.04553286918005 6.915848464789228 0 0.51503808176128008 -0.85716729658548041 0.75 0 0 1 I I -0.70710678118654757 0.70710678118654757 0.75 forward I I I I #
loop $-1 $-1 $210 $53 #
coedge $-1 $132 $132 $211 $212 reversed $83 $-1 #
face $-1 $-1 $213 $43 $-1 $214 forward single #
loop $-1 $215 $216 $85 #
cone-surface $-1 38.274070257519348 -25.04553286918005 6.915848464789228 0 0.51503808176128008 -0.85716729658548041 0.75 0 0 1 I I -0.70710678118654757 0.70710678118654757 0.75 forward I I I I #
loop $-1 $-1 $217 $54 #
coedge $-1 $137 $137 $218 $219 reversed $86 $-1 #
face $-1 $220 $221 $33 $-1 $222 reversed single #
loop $-1 $-1 $223 $88 #
plane-surface $-1 0 -32.963683395638441 0 0 1 0 0 0 1 forward_v I I I I #
coedge $-1 $224 $225 $226 $227 forward $89 $-1 #
coedge $-1 $228 $91 $229 $230 forward $56 $-1 #
coedge $-1 $91 $228 $231 $232 forward $56 $-1 #
coedge $-1 $233 $234 $91 $145 reversed $235 $-1 #
edge $-1 $236 -32.963683395638441 $237 32.963683395638441 $144 $238 forward 7 unknown #
face $-1 $239 $240 $34 $-1 $241 reversed single #
loop $-1 $-1 $242 $92 #
plane-surface $-1 0 0 -14.101841020997984 0 0 1 1 0 0 forward_v I I I I #
coedge $-1 $243 $152 $244 $245 reversed $93 $-1 #
coedge $-1 $246 $95 $247 $248 reversed $59 $-1 #
coedge $-1 $95 $246 $249 $250 reversed $59 $-1 #
coedge $-1 $149 $251 $95 $153 reversed $93 $-1 #
edge $-1 $252 -32.963683395638441 $253 32.963683395638441 $152 $254 forward 7 unknown #
face $-1 $255 $256 $35 $-1 $257 reversed single #
loop $-1 $-1 $258 $96 #
plane-surface $-1 0 -32.963683395638441 0 0 1 0 0 0 1 forward_v I I I I #
coedge $-1 $259 $260 $261 $262 reversed $97 $-1 #
coedge $-1 $263 $99 $264 $265 reversed $62 $-1 #
coedge $-1 $99 $263 $258 $266 reversed $62 $-1 #
coedge $-1 $267 $268 $99 $161 forward $269 $-1 #
edge $-1 $270 -32.963683395638441 $271 32.963683395638441 $160 $272 forward 7 unknown #
face $-1 $273 $274 $36 $-1 $275 reversed single #
loop $-1 $-1 $276 $100 #
plane-surface $-1 26.134556954041649 30.187749346793353 130.71543776330253 1 0 0 0 -0.51503808176128008 -0.85716729658548041 forward_v I I I I #
coedge $-1 $277 $278 $279 $280 reversed $101 $-1 #
coedge $-1 $167 $103 $281 $282 reversed $65 $-1 #
coedge $-1 $103 $166 $277 $283 reversed $65 $-1 #
coedge $-1 $279 $284 $103 $169 forward $274 $-1 #
edge $-1 $285 51.255877860653285 $286 58.027190229949504 $168 $287 forward 7 unknown #
loop $-1 $-1 $175 $104 #
plane-surface $-1 33.721752768715213 -23.547099367839742 41.285633179453328 0 0.51503808176128008 0.85716729658548041 1 0 0 forward_v I I I I #
loop $-1 $-1 $288 $67 #
coedge $-1 $173 $173 $174 $289 reversed $105 $-1 #
coedge $-1 $174 $174 $173 $289 forward $107 $-1 #
coedge $-1 $175 $175 $108 $176 forward $170 $-1 #
edge $-1 $290 6.0119144466995287e-016 $290 6.2831853071796013 $175 $291 forward 7 unknown #
loop $-1 $-1 $182 $109 #
plane-surface $-1 33.721752768715213 -23.547099367839742 41.285633179453328 0 0.51503808176128008 0.85716729658548041 1 0 0 forward_v I I I I #
loop $-1 $-1 $292 $70 #
coedge $-1 $180 $180 $181 $293 reversed $110 $-1 #
coedge $-1 $181 $181 $180 $293 forward $112 $-1 #
coedge $-1 $182 $182 $113 $183 forward $177 $-1 #
edge $-1 $294 6.0119144466995287e-016 $294 6.2831853071796013 $182 $295 forward 7 unknown #
loop $-1 $-1 $189 $114 #
plane-surface $-1 33.721752768715213 -23.547099367839742 41.285633179453328 0 0.51503808176128008 0.85716729658548041 1 0 0 forward_v I I I I #
loop $-1 $-1 $296 $73 #
coedge $-1 $187 $187 $188 $297 reversed $115 $-1 #
coedge $-1 $188 $188 $187 $297 forward $117 $-1 #
coedge $-1 $189 $189 $118 $190 forward $184 $-1 #
edge $-1 $298 6.0119144466995287e-016 $298 6.2831853071796013 $189 $299 forward 7 unknown #
face $-1 $300 $301 $40 $-1 $302 forward single #
loop $-1 $-1 $303 $119 #
plane-surface $-1 41.308948583388776 -86.698532110271543 96.760333235550988 -1 0 0 0 -0.51503808176128008 0.85716729658548041 forward_v I I I I #
coedge $-1 $304 $305 $306 $307 reversed $120 $-1 #
coedge $-1 $196 $122 $308 $309 reversed $77 $-1 #
coedge $-1 $122 $195 $304 $310 reversed $77 $-1 #
coedge $-1 $306 $311 $122 $198 forward $312 $-1 #
edge $-1 $313 34.278325596777506 $314 41.049637966073703 $197 $315 forward 7 unknown #
loop $-1 $-1 $204 $123 #
plane-surface $-1 33.721752768715213 -32.963683395638448 7.3305286517017834 0 -0.51503808176128008 0.85716729658548041 1 0 0 forward_v I I I I #
loop $-1 $-1 $316 $79 #
coedge $-1 $202 $202 $203 $317 reversed $124 $-1 #
coedge $-1 $203 $203 $202 $317 forward $126 $-1 #
coedge $-1 $204 $204 $127 $205 forward $199 $-1 #
edge $-1 $318 -1.2198552254509805e-015 $318 6.2831853071795996 $204 $319 forward 7 unknown #
loop $-1 $-1 $211 $128 #
plane-surface $-1 33.721752768715213 -32.963683395638448 7.3305286517017834 0 -0.51503808176128008 0.85716729658548041 1 0 0 forward_v I I I I #
loop $-1 $-1 $320 $82 #
coedge $-1 $209 $209 $210 $321 reversed $129 $-1 #
coedge $-1 $210 $210 $209 $321 forward $131 $-1 #
coedge $-1 $211 $211 $132 $212 forward $206 $-1 #
edge $-1 $322 -1.2198552254509805e-015 $322 6.2831853071795996 $211 $323 forward 7 unknown #
loop $-1 $-1 $218 $133 #
plane-surface $-1 33.721752768715213 -32.963683395638448 7.3305286517017834 0 -0.51503808176128008 0.85716729658548041 1 0 0 forward_v I I I I #
loop $-1 $-1 $324 $85 #
coedge $-1 $216 $216 $217 $325 reversed $134 $-1 #
coedge $-1 $217 $217 $216 $325 forward $136 $-1 #
coedge $-1 $218 $218 $137 $219 forward $213 $-1 #
edge $-1 $326 -1.2198552254509805e-015 $326 6.2831853071795996 $218 $327 forward 7 unknown #
face $-1 $328 $329 $33 $-1 $330 reversed single #
loop $-1 $-1 $331 $138 #
plane-surface $-1 -52.165898617511523 0 0 1 0 0 0 0 -1 forward_v I I I I #
coedge $-1 $332 $231 $333 $334 forward $139 $-1 #
coedge $-1 $335 $141 $332 $336 forward $89 $-1 #
coedge $-1 $141 $335 $337 $338 forward $89 $-1 #
coedge $-1 $234 $233 $141 $227 reversed $235 $-1 #
edge $-1 $339 -32.963683395638441 $340 32.963683395638441 $226 $341 forward 7 unknown #
coedge $-1 $143 $142 $342 $343 forward $56 $-1 #
coedge $-1 $344 $345 $142 $230 reversed $329 $-1 #
edge $-1 $237 -52.165898617511523 $346 52.165898617511523 $229 $347 forward 7 unknown #
coedge $-1 $223 $348 $143 $232 reversed $139 $-1 #
edge $-1 $349 -52.165898617511523 $236 52.165898617511523 $231 $350 forward 7 unknown #
coedge $-1 $226 $144 $348 $351 forward $235 $-1 #
coedge $-1 $144 $226 $344 $352 reversed $235 $-1 #
loop $-1 $-1 $233 $328 #
vertex $-1 $145 $353 #
vertex $-1 $145 $354 #
straight-curve $-1 52.165898617511523 0 14.101841020997984 0 1 0 I I #
face $-1 $355 $356 $34 $-1 $357 reversed single #
loop $-1 $-1 $244 $146 #
plane-surface $-1 0 -32.963683395638441 0 0 1 0 0 0 1 forward_v I I I I #
coedge $-1 $358 $359 $243 $360 forward $147 $-1 #
coedge $-1 $251 $149 $242 $360 reversed $93 $-1 #
coedge $-1 $249 $361 $149 $245 forward $240 $-1 #
edge $-1 $362 -8.5246052883594103 $252 -2.6298661769177345 $244 $363 forward 7 unknown #
coedge $-1 $151 $150 $364 $365 reversed $59 $-1 #
coedge $-1 $366 $367 $150 $248 forward $368 $-1 #
edge $-1 $369 -28.797186817286448 $253 -17.940236783163702 $247 $370 forward 7 unknown #
coedge $-1 $371 $244 $151 $250 forward $240 $-1 #
edge $-1 $252 17.940236783163702 $372 28.797186817286448 $249 $373 forward 7 unknown #
coedge $-1 $152 $243 $366 $374 reversed $93 $-1 #
vertex $-1 $250 $375 #
vertex $-1 $248 $376 #
straight-curve $-1 -41.308948583388776 0 -8.2071019095563074 0 1 0 I I #
face $-1 $377 $378 $35 $-1 $379 reversed single #
loop $-1 $-1 $380 $154 #
plane-surface $-1 0 0 -14.101841020997984 0 0 1 1 0 0 forward_v I I I I #
coedge $-1 $381 $382 $159 $266 forward $155 $-1 #
coedge $-1 $383 $157 $380 $384 reversed $97 $-1 #
coedge $-1 $157 $383 $263 $385 reversed $97 $-1 #
coedge $-1 $264 $386 $157 $262 forward $378 $-1 #
edge $-1 $387 -8.5246052883594103 $388 -2.6298661769177345 $261 $389 forward 7 unknown #
coedge $-1 $159 $158 $260 $385 forward $62 $-1 #
coedge $-1 $390 $261 $158 $265 forward $378 $-1 #
edge $-1 $388 17.940236783163702 $270 28.797186817286448 $264 $391 forward 7 unknown #
edge $-1 $271 -28.797186817286448 $392 -17.940236783163702 $258 $393 forward 7 unknown #
coedge $-1 $394 $160 $382 $395 forward $269 $-1 #
coedge $-1 $160 $394 $390 $396 reversed $269 $-1 #
loop $-1 $-1 $160 $377 #
vertex $-1 $396 $397 #
vertex $-1 $395 $398 #
straight-curve $-1 52.165898617511523 0 -8.2071019095563074 0 -1 0 I I #
face $-1 $-1 $399 $36 $-1 $400 forward single #
loop $-1 $-1 $168 $162 #
plane-surface $-1 0 32.963683395638441 0 0 -1 0 0 0 -1 forward_v I I I I #
coedge $-1 $401 $402 $403 $404 reversed $163 $-1 #
coedge $-1 $405 $165 $167 $283 forward $101 $-1 #
coedge $-1 $165 $405 $401 $406 forward $101 $-1 #
coedge $-1 $403 $168 $165 $280 forward $274 $-1 #
edge $-1 $286 -24.44807219903117 $407 -9.2736805696840428 $279 $408 forward 7 unknown #
coedge $-1 $409 $410 $166 $282 forward $399 $-1 #
edge $-1 $411 6.6004526814671252 $285 17.869808722241764 $281 $412 forward 7 unknown #
edge $-1 $286 -65.927366791276881 $411 -52.780159605858074 $167 $413 forward 7 unknown #
coedge $-1 $168 $403 $409 $414 reversed $274 $-1 #
vertex $-1 $414 $415 #
vertex $-1 $169 $416 #
straight-curve $-1 41.308948583388776 32.963683395638441 65.357718881651266 0 0 -1 I I #
coedge $-1 $288 $288 $-1 $417 reversed $172 $-1 #
edge $-1 $418 0 $418 6.2831853071796004 $173 $419 forward 7 unknown #
vertex $-1 $176 $420 #
ellipse-curve $-1 29.169435279911077 27.329005375251125 10.716184836349871 0 0.51503808176128008 0.85716729658548041 1.5 0 0 1 I I #
coedge $-1 $292 $292 $-1 $421 reversed $179 $-1 #
edge $-1 $422 0 $422 6.2831853071796004 $180 $423 forward 7 unknown #
vertex $-1 $183 $424 #
ellipse-curve $-1 33.721752768715213 27.329005375251125 10.716184836349871 0 0.51503808176128008 0.85716729658548041 1.5 0 0 1 I I #
coedge $-1 $296 $296 $-1 $425 reversed $186 $-1 #
edge $-1 $426 0 $426 6.2831853071796004 $187 $427 forward 7 unknown #
vertex $-1 $190 $428 #
ellipse-curve $-1 38.274070257519348 27.329005375251125 10.716184836349871 0 0.51503808176128008 0.85716729658548041 1.5 0 0 1 I I #
face $-1 $-1 $312 $40 $-1 $429 reversed single #
loop $-1 $-1 $430 $191 #
plane-surface $-1 0 0 14.101841020997984 0 0 1 1 0 0 forward_v I I I I #
coedge $-1 $431 $432 $433 $434 reversed $192 $-1 #
coedge $-1 $435 $194 $196 $310 forward $120 $-1 #
coedge $-1 $194 $435 $431 $436 forward $120 $-1 #
coedge $-1 $433 $197 $194 $307 forward $312 $-1 #
edge $-1 $314 9.2736805696840428 $437 24.44807219903117 $306 $438 forward 7 unknown #
coedge $-1 $439 $440 $195 $309 forward $301 $-1 #
edge $-1 $441 -21.654938700271934 $313 -10.385582659497331 $308 $442 forward 7 unknown #
edge $-1 $314 8.3777685069199533e-015 $441 13.147207185418768 $196 $443 forward 7 unknown #
coedge $-1 $197 $433 $439 $444 reversed $312 $-1 #
loop $-1 $-1 $433 $300 #
vertex $-1 $444 $445 #
vertex $-1 $198 $446 #
straight-curve $-1 26.134556954041649 -32.963683395638441 48.380166617775494 0 0 -1 I I #
coedge $-1 $316 $316 $-1 $447 reversed $201 $-1 #
edge $-1 $448 0 $448 6.2831853071796004 $202 $449 forward 7 unknown #
vertex $-1 $205 $450 #
ellipse-curve $-1 29.169435279911077 -27.329005375251135 10.716184836349887 0 -0.51503808176128008 0.85716729658548041 1.5 0 0 1 I I #
coedge $-1 $320 $320 $-1 $451 reversed $208 $-1 #
edge $-1 $452 0 $452 6.2831853071796004 $209 $453 forward 7 unknown #
vertex $-1 $212 $454 #
ellipse-curve $-1 33.721752768715213 -27.329005375251135 10.716184836349887 0 -0.51503808176128008 0.85716729658548041 1.5 0 0 1 I I #
coedge $-1 $324 $324 $-1 $455 reversed $215 $-1 #
edge $-1 $456 0 $456 6.2831853071796004 $216 $457 forward 7 unknown #
vertex $-1 $219 $458 #
ellipse-curve $-1 38.274070257519348 -27.329005375251135 10.716184836349887 0 -0.51503808176128008 0.85716729658548041 1.5 0 0 1 I I #
face $-1 $-1 $235 $33 $-1 $459 reversed single #
loop $-1 $-1 $344 $220 #
plane-surface $-1 0 32.963683395638441 0 0 -1 0 0 0 -1 forward_v I I I I #
coedge $-1 $460 $342 $345 $461 forward $221 $-1 #
coedge $-1 $348 $223 $224 $336 reversed $139 $-1 #
coedge $-1 $342 $460 $223 $334 reversed $221 $-1 #
edge $-1 $349 -14.101841020997984 $462 14.101841020997984 $333 $463 forward 7 unknown #
coedge $-1 $225 $224 $460 $464 forward $89 $-1 #
edge $-1 $340 -52.165898617511523 $462 52.165898617511523 $332 $465 forward 7 unknown #
coedge $-1 $345 $344 $225 $338 reversed $329 $-1 #
edge $-1 $466 -52.165898617511523 $339 52.165898617511523 $337 $467 forward 7 unknown #
vertex $-1 $227 $468 #
vertex $-1 $351 $469 #
straight-curve $-1 52.165898617511523 0 -14.101841020997984 0 -1 0 I I #
coedge $-1 $331 $333 $228 $343 reversed $221 $-1 #
edge $-1 $346 -32.963683395638441 $349 32.963683395638441 $342 $470 forward 7 unknown #
coedge $-1 $337 $229 $234 $352 forward $329 $-1 #
coedge $-1 $229 $337 $331 $461 reversed $329 $-1 #
vertex $-1 $230 $471 #
straight-curve $-1 0 32.963683395638441 14.101841020997984 -1 0 0 I I #
coedge $-1 $231 $332 $233 $351 reversed $139 $-1 #
vertex $-1 $343 $472 #
straight-curve $-1 0 -32.963683395638441 14.101841020997984 1 0 0 I I #
edge $-1 $236 -14.101841020997984 $340 14.101841020997984 $233 $473 forward 7 unknown #
edge $-1 $237 -14.101841020997984 $339 14.101841020997984 $234 $474 forward 7 unknown #
point $-1 52.165898617511523 -32.963683395638441 14.101841020997984 #
point $-1 52.165898617511523 32.963683395638441 14.101841020997984 #
face $-1 $-1 $368 $34 $-1 $475 reversed single #
loop $-1 $-1 $364 $239 #
plane-surface $-1 -52.165898617511523 0 0 1 0 0 0 0 -1 forward_v I I I I #
coedge $-1 $476 $242 $361 $477 forward $147 $-1 #
coedge $-1 $242 $476 $478 $479 forward $147 $-1 #
edge $-1 $480 -32.963683395638441 $362 32.963683395638441 $242 $481 forward 7 unknown #
coedge $-1 $244 $371 $358 $477 reversed $240 $-1 #
vertex $-1 $477 $482 #
straight-curve $-1 -41.308948583388776 -32.963683395638441 -5.5772357326385729 0 0 1 I I #
coedge $-1 $483 $484 $246 $365 forward $356 $-1 #
edge $-1 $372 -32.963683395638441 $369 32.963683395638441 $364 $485 forward 7 unknown #
coedge $-1 $478 $247 $251 $374 forward $368 $-1 #
coedge $-1 $247 $478 $483 $486 reversed $368 $-1 #
loop $-1 $-1 $366 $355 #
vertex $-1 $486 $487 #
straight-curve $-1 -23.368711800225075 32.963683395638441 -8.2071019095563074 1 0 0 I I #
coedge $-1 $361 $249 $484 $488 forward $240 $-1 #
vertex $-1 $488 $489 #
straight-curve $-1 -23.368711800225075 -32.963683395638441 -8.2071019095563074 -1 0 0 I I #
edge $-1 $253 2.6298661769177345 $480 8.5246052883594103 $366 $490 forward 7 unknown #
point $-1 -41.308948583388776 -32.963683395638441 -8.2071019095563074 #
point $-1 -41.308948583388776 32.963683395638441 -8.2071019095563074 #
face $-1 $-1 $269 $35 $-1 $491 reversed single #
loop $-1 $-1 $264 $255 #
plane-surface $-1 0 32.963683395638441 0 0 -1 0 0 0 -1 forward_v I I I I #
coedge $-1 $492 $493 $259 $384 forward $256 $-1 #
coedge $-1 $494 $258 $383 $495 forward $155 $-1 #
coedge $-1 $258 $494 $267 $395 reversed $155 $-1 #
coedge $-1 $260 $259 $381 $495 reversed $97 $-1 #
edge $-1 $496 -32.963683395638441 $387 32.963683395638441 $380 $497 forward 7 unknown #
edge $-1 $388 -32.963683395638441 $392 32.963683395638441 $260 $498 forward 7 unknown #
coedge $-1 $261 $390 $492 $499 reversed $378 $-1 #
vertex $-1 $499 $500 #
vertex $-1 $265 $501 #
straight-curve $-1 41.308948583388776 32.963683395638441 -5.5772357326385729 0 0 1 I I #
coedge $-1 $386 $264 $268 $396 forward $378 $-1 #
straight-curve $-1 23.368711800225075 32.963683395638441 -8.2071019095563074 1 0 0 I I #
vertex $-1 $266 $502 #
straight-curve $-1 23.368711800225075 -32.963683395638441 -8.2071019095563074 -1 0 0 I I #
coedge $-1 $268 $267 $503 $504 reversed $269 $-1 #
edge $-1 $271 8.2071019095563074 $505 14.101841020997984 $267 $506 forward 7 unknown #
edge $-1 $270 8.2071019095563074 $507 14.101841020997984 $268 $508 forward 7 unknown #
point $-1 52.165898617511523 32.963683395638441 -8.2071019095563074 #
point $-1 52.165898617511523 -32.963683395638441 -8.2071019095563074 #
loop $-1 $-1 $281 $273 #
plane-surface $-1 0 0 14.101841020997984 0 0 1 1 0 0 forward_v I I I I #
coedge $-1 $402 $276 $278 $406 reversed $163 $-1 #
coedge $-1 $276 $401 $509 $510 reversed $163 $-1 #
coedge $-1 $284 $279 $276 $404 forward $274 $-1 #
edge $-1 $407 -58.027190229949504 $511 -51.255877860653285 $403 $512 forward 7 unknown #
coedge $-1 $278 $277 $410 $513 reversed $101 $-1 #
edge $-1 $514 52.780159605858074 $407 65.927366791276881 $401 $515 forward 7 unknown #
vertex $-1 $280 $516 #
straight-curve $-1 16.860876384357606 32.963683395638441 7.330528651701762 -1 0 0 I I #
coedge $-1 $509 $281 $284 $414 forward $399 $-1 #
coedge $-1 $281 $509 $405 $513 forward $399 $-1 #
vertex $-1 $282 $517 #
straight-curve $-1 41.308948583388776 15.093874673396677 14.101841020997981 0 1 0 I I #
straight-curve $-1 41.308948583388776 -23.547099367839742 41.285633179453328 0 -0.85716729658548041 0.51503808176128008 I I #
edge $-1 $285 -41.308948583388776 $511 -26.134556954041649 $284 $518 forward 7 unknown #
point $-1 41.308948583388776 32.963683395638441 14.101841020997984 #
point $-1 41.308948583388776 32.963683395638441 7.330528651701762 #
edge $-1 $519 1 $519 0 $288 $-1 forward 7 unknown #
vertex $-1 $289 $520 #
ellipse-curve $-1 29.169435279911077 25.431811430501011 7.5587239372283417 0 0.51503808176128008 0.85716729658548041 1.5 0 0 1 I I #
point $-1 30.669435279911077 27.329005375251135 10.716184836349887 #
edge $-1 $521 1 $521 0 $292 $-1 forward 7 unknown #
vertex $-1 $293 $522 #
ellipse-curve $-1 33.721752768715213 25.431811430501011 7.5587239372283417 0 0.51503808176128008 0.85716729658548041 1.5 0 0 1 I I #
point $-1 35.221752768715213 27.329005375251135 10.716184836349887 #
edge $-1 $523 1 $523 0 $296 $-1 forward 7 unknown #
vertex $-1 $297 $524 #
ellipse-curve $-1 38.274070257519348 25.431811430501011 7.5587239372283417 0 0.51503808176128008 0.85716729658548041 1.5 0 0 1 I I #
point $-1 39.774070257519348 27.329005375251135 10.716184836349887 #
plane-surface $-1 0 -32.963683395638441 0 0 1 0 0 0 1 forward_v I I I I #
coedge $-1 $440 $439 $432 $525 forward $301 $-1 #
coedge $-1 $432 $303 $305 $436 reversed $192 $-1 #
coedge $-1 $303 $431 $430 $525 reversed $192 $-1 #
coedge $-1 $311 $306 $303 $434 forward $312 $-1 #
edge $-1 $437 -41.049637966073703 $526 -34.278325596777506 $433 $527 forward 7 unknown #
coedge $-1 $305 $304 $440 $528 reversed $120 $-1 #
edge $-1 $529 -13.147207185418768 $437 -8.3777685069199533e-015 $431 $530 forward 7 unknown #
vertex $-1 $307 $531 #
straight-curve $-1 16.860876384357606 -32.963683395638441 7.3305286517017878 1 0 0 I I #
coedge $-1 $430 $308 $311 $444 forward $301 $-1 #
coedge $-1 $308 $430 $435 $528 forward $301 $-1 #
vertex $-1 $309 $532 #
straight-curve $-1 26.134556954041649 -43.349266055135772 14.101841020997981 0 -1 0 I I #
straight-curve $-1 26.134556954041649 -32.963683395638448 7.3305286517017834 0 0.85716729658548041 0.51503808176128008 I I #
edge $-1 $313 26.134556954041649 $526 41.308948583388776 $311 $533 forward 7 unknown #
point $-1 26.134556954041649 -32.963683395638441 14.101841020997984 #
point $-1 26.134556954041649 -32.963683395638441 7.3305286517017878 #
edge $-1 $534 1 $534 0 $316 $-1 forward 7 unknown #
vertex $-1 $317 $535 #
ellipse-curve $-1 29.169435279911077 -25.431811430501011 7.5587239372283381 0 -0.51503808176128008 0.85716729658548041 1.5 0 0 1 I I #
point $-1 30.669435279911077 -27.329005375251135 10.716184836349884 #
edge $-1 $536 1 $536 0 $320 $-1 forward 7 unknown #
vertex $-1 $321 $537 #
ellipse-curve $-1 33.721752768715213 -25.431811430501011 7.5587239372283381 0 -0.51503808176128008 0.85716729658548041 1.5 0 0 1 I I #
point $-1 35.221752768715213 -27.329005375251135 10.716184836349884 #
edge $-1 $538 1 $538 0 $324 $-1 forward 7 unknown #
vertex $-1 $325 $539 #
ellipse-curve $-1 38.274070257519348 -25.431811430501011 7.5587239372283381 0 -0.51503808176128008 0.85716729658548041 1.5 0 0 1 I I #
point $-1 39.774070257519348 -27.329005375251135 10.716184836349884 #
plane-surface $-1 52.165898617511523 0 0 -1 0 0 0 0 1 forward_v I I I I #
coedge $-1 $333 $331 $335 $464 reversed $221 $-1 #
edge $-1 $346 -14.101841020997984 $466 14.101841020997984 $345 $540 forward 7 unknown #
vertex $-1 $464 $541 #
straight-curve $-1 -52.165898617511523 -32.963683395638441 0 0 0 -1 I I #
edge $-1 $462 -32.963683395638441 $466 32.963683395638441 $460 $542 forward 7 unknown #
straight-curve $-1 0 -32.963683395638441 -14.101841020997984 -1 0 0 I I #
vertex $-1 $338 $543 #
straight-curve $-1 0 32.963683395638441 -14.101841020997984 1 0 0 I I #
point $-1 52.165898617511523 32.963683395638441 -14.101841020997984 #
point $-1 52.165898617511523 -32.963683395638441 -14.101841020997984 #
straight-curve $-1 -52.165898617511523 0 14.101841020997984 0 -1 0 I I #
point $-1 -52.165898617511523 32.963683395638441 14.101841020997984 #
point $-1 -52.165898617511523 -32.963683395638441 14.101841020997984 #
straight-curve $-1 52.165898617511523 -32.963683395638441 0 0 0 -1 I I #
straight-curve $-1 52.165898617511523 32.963683395638441 0 0 0 -1 I I #
plane-surface $-1 0 32.963683395638441 0 0 -1 0 0 0 -1 forward_v I I I I #
coedge $-1 $359 $358 $544 $545 forward $147 $-1 #
edge $-1 $362 41.308948583388776 $546 52.165898617511523 $361 $547 forward 7 unknown #
coedge $-1 $367 $366 $359 $479 reversed $368 $-1 #
edge $-1 $548 -52.165898617511523 $480 -41.308948583388776 $478 $549 forward 7 unknown #
vertex $-1 $374 $550 #
straight-curve $-1 -41.308948583388776 0 -14.101841020997984 0 -1 0 I I #
point $-1 -41.308948583388776 -32.963683395638441 -14.101841020997984 #
coedge $-1 $544 $364 $367 $486 forward $356 $-1 #
coedge $-1 $364 $544 $371 $488 reversed $356 $-1 #
straight-curve $-1 -52.165898617511523 0 -8.2071019095563074 0 1 0 I I #
edge $-1 $369 8.2071019095563074 $548 14.101841020997984 $367 $551 forward 7 unknown #
point $-1 -52.165898617511523 32.963683395638441 -8.2071019095563074 #
edge $-1 $372 8.2071019095563074 $546 14.101841020997984 $484 $552 forward 7 unknown #
point $-1 -52.165898617511523 -32.963683395638441 -8.2071019095563074 #
straight-curve $-1 -41.308948583388776 32.963683395638441 -5.5772357326385729 0 0 -1 I I #
plane-surface $-1 52.165898617511523 0 0 -1 0 0 0 0 1 forward_v I I I I #
coedge $-1 $503 $380 $386 $499 forward $256 $-1 #
coedge $-1 $380 $503 $494 $553 forward $256 $-1 #
coedge $-1 $382 $381 $493 $553 reversed $155 $-1 #
edge $-1 $392 2.6298661769177345 $496 8.5246052883594103 $381 $554 forward 7 unknown #
vertex $-1 $384 $555 #
straight-curve $-1 41.308948583388776 0 -14.101841020997984 0 1 0 I I #
straight-curve $-1 41.308948583388776 0 -8.2071019095563074 0 -1 0 I I #
edge $-1 $387 41.308948583388776 $507 52.165898617511523 $386 $556 forward 7 unknown #
point $-1 41.308948583388776 32.963683395638441 -14.101841020997984 #
point $-1 41.308948583388776 32.963683395638441 -8.2071019095563074 #
point $-1 41.308948583388776 -32.963683395638441 -8.2071019095563074 #
coedge $-1 $493 $492 $394 $504 forward $256 $-1 #
edge $-1 $507 -32.963683395638441 $505 32.963683395638441 $394 $557 forward 7 unknown #
vertex $-1 $395 $558 #
straight-curve $-1 52.165898617511523 -32.963683395638441 0 0 0 -1 I I #
vertex $-1 $504 $559 #
straight-curve $-1 52.165898617511523 32.963683395638441 0 0 0 -1 I I #
coedge $-1 $410 $409 $402 $510 forward $399 $-1 #
edge $-1 $511 -17.869808722241764 $514 -6.6004526814671252 $509 $560 forward 7 unknown #
vertex $-1 $510 $561 #
straight-curve $-1 26.134556954041649 32.963683395638441 65.357718881651266 0 0 1 I I #
edge $-1 $514 9.2736805696840428 $411 24.44807219903117 $410 $562 forward 7 unknown #
vertex $-1 $513 $563 #
straight-curve $-1 26.134556954041649 -23.547099367839742 41.285633179453328 0 0.85716729658548041 -0.51503808176128008 I I #
point $-1 26.134556954041649 32.963683395638441 7.330528651701762 #
point $-1 41.308948583388776 21.694327354863802 14.101841020997984 #
straight-curve $-1 0 32.963683395638441 14.101841020997984 -1 0 0 I I #
vertex $-1 $417 $564 #
point $-1 30.669435279911077 25.431811430501011 7.5587239372283417 #
vertex $-1 $421 $565 #
point $-1 35.221752768715213 25.431811430501011 7.5587239372283417 #
vertex $-1 $425 $566 #
point $-1 39.774070257519348 25.431811430501011 7.5587239372283417 #
edge $-1 $526 10.385582659497331 $529 21.654938700271934 $430 $567 forward 7 unknown #
vertex $-1 $434 $568 #
straight-curve $-1 41.308948583388776 -32.963683395638441 48.380166617775494 0 0 1 I I #
edge $-1 $529 -24.44807219903117 $441 -9.2736805696840428 $440 $569 forward 7 unknown #
vertex $-1 $528 $570 #
straight-curve $-1 41.308948583388776 -32.963683395638448 7.3305286517017834 0 -0.85716729658548041 -0.51503808176128008 I I #
point $-1 41.308948583388776 -32.963683395638441 7.3305286517017878 #
point $-1 26.134556954041649 -21.694327354863837 14.101841020997984 #
straight-curve $-1 0 -32.963683395638441 14.101841020997984 1 0 0 I I #
vertex $-1 $447 $571 #
point $-1 30.669435279911077 -25.431811430501011 7.5587239372283381 #
vertex $-1 $451 $572 #
point $-1 35.221752768715213 -25.431811430501011 7.5587239372283381 #
vertex $-1 $455 $573 #
point $-1 39.774070257519348 -25.431811430501011 7.5587239372283381 #
straight-curve $-1 -52.165898617511523 32.963683395638441 0 0 0 -1 I I #
point $-1 -52.165898617511523 -32.963683395638441 -14.101841020997984 #
straight-curve $-1 -52.165898617511523 0 -14.101841020997984 0 1 0 I I #
point $-1 -52.165898617511523 32.963683395638441 -14.101841020997984 #
coedge $-1 $484 $483 $476 $545 reversed $356 $-1 #
edge $-1 $546 -32.963683395638441 $548 32.963683395638441 $544 $574 forward 7 unknown #
vertex $-1 $545 $575 #
straight-curve $-1 0 -32.963683395638441 -14.101841020997984 -1 0 0 I I #
vertex $-1 $479 $576 #
straight-curve $-1 0 32.963683395638441 -14.101841020997984 1 0 0 I I #
point $-1 -41.308948583388776 32.963683395638441 -14.101841020997984 #
straight-curve $-1 -52.165898617511523 32.963683395638441 0 0 0 -1 I I #
straight-curve $-1 -52.165898617511523 -32.963683395638441 0 0 0 -1 I I #
edge $-1 $505 -52.165898617511523 $496 -41.308948583388776 $494 $577 forward 7 unknown #
straight-curve $-1 41.308948583388776 -32.963683395638441 -5.5772357326385729 0 0 -1 I I #
point $-1 41.308948583388776 -32.963683395638441 -14.101841020997984 #
straight-curve $-1 0 32.963683395638441 -14.101841020997984 1 0 0 I I #
straight-curve $-1 52.165898617511523 0 -14.101841020997984 0 -1 0 I I #
point $-1 52.165898617511523 -32.963683395638441 -14.101841020997984 #
point $-1 52.165898617511523 32.963683395638441 -14.101841020997984 #
straight-curve $-1 26.134556954041649 15.093874673396677 14.101841020997981 0 -1 0 I I #
point $-1 26.134556954041649 32.963683395638441 14.101841020997984 #
straight-curve $-1 16.860876384357606 21.694327354863809 14.101841020997984 1 0 0 I I #
point $-1 26.134556954041649 21.694327354863802 14.101841020997984 #
point $-1 29.169435279911077 24.65925430785909 6.2729729923501214 #
point $-1 33.721752768715213 24.65925430785909 6.2729729923501214 #
point $-1 38.274070257519348 24.65925430785909 6.2729729923501214 #
straight-curve $-1 41.308948583388776 -43.349266055135772 14.101841020997981 0 1 0 I I #
point $-1 41.308948583388776 -32.963683395638441 14.101841020997984 #
straight-curve $-1 16.860876384357606 -21.694327354863841 14.101841020997984 -1 0 0 I I #
point $-1 41.308948583388776 -21.694327354863837 14.101841020997984 #
point $-1 29.169435279911077 -24.65925430785909 6.2729729923501178 #
point $-1 33.721752768715213 -24.65925430785909 6.2729729923501178 #
point $-1 38.274070257519348 -24.65925430785909 6.2729729923501178 #
straight-curve $-1 -52.165898617511523 0 -14.101841020997984 0 1 0 I I #
point $-1 -52.165898617511523 -32.963683395638441 -14.101841020997984 #
point $-1 -52.165898617511523 32.963683395638441 -14.101841020997984 #
straight-curve $-1 0 -32.963683395638441 -14.101841020997984 -1 0 0 I I #
End-of-ACIS-data 