500 0 18 0           
7 Unknown 11 ACIS 5.0 NT 24 Fri Mar 26 15:49:58 1999 
-1 9.9999999999999995e-007 1e-010 
body $-1 $18 $-1 $19 #
body $-1 $20 $-1 $21 #
body $-1 $22 $-1 $23 #
body $-1 $24 $-1 $25 #
body $-1 $26 $-1 $27 #
body $-1 $28 $-1 $29 #
body $-1 $30 $-1 $31 #
body $-1 $32 $-1 $33 #
body $-1 $34 $-1 $35 #
body $-1 $36 $-1 $37 #
body $-1 $38 $-1 $39 #
body $-1 $40 $-1 $41 #
body $-1 $42 $-1 $43 #
body $-1 $44 $-1 $45 #
body $-1 $46 $-1 $47 #
body $-1 $48 $-1 $49 #
body $-1 $50 $-1 $51 #
body $-1 $52 $-1 $53 #
lump $-1 $-1 $54 $0 #
transform $-1 1 0 0 0 1 0 0 0 1 69.002349925229652 46.216222811641131 10.589237220464435 1 rotate no_reflect no_shear #
lump $-1 $-1 $55 $1 #
transform $-1 1 0 0 0 1 0 0 0 1 69.002349925229652 46.216222811641131 10.589237220464435 1 rotate no_reflect no_shear #
lump $-1 $-1 $56 $2 #
transform $-1 1 0 0 0 1 0 0 0 1 69.002349925229652 46.216222811641131 10.589237220464435 1 rotate no_reflect no_shear #
lump $-1 $-1 $57 $3 #
transform $-1 1 0 0 0 1 0 0 0 1 69.002349925229652 46.216222811641131 10.589237220464435 1 rotate no_reflect no_shear #
lump $-1 $-1 $58 $4 #
transform $-1 1 0 0 0 1 0 0 0 1 69.002349925229652 46.216222811641131 10.589237220464435 1 rotate no_reflect no_shear #
lump $-1 $-1 $59 $5 #
transform $-1 1 0 0 0 1 0 0 0 1 69.002349925229652 46.216222811641131 10.589237220464435 1 rotate no_reflect no_shear #
lump $-1 $-1 $60 $6 #
transform $-1 1 0 0 0 1 0 0 0 1 69.002349925229652 46.216222811641131 10.589237220464435 1 rotate no_reflect no_shear #
lump $-1 $-1 $61 $7 #
transform $-1 1 0 0 0 1 0 0 0 1 69.002349925229652 46.216222811641131 10.589237220464435 1 rotate no_reflect no_shear #
lump $-1 $-1 $62 $8 #
transform $-1 1 0 0 0 1 0 0 0 1 69.002349925229652 46.216222811641131 10.589237220464435 1 rotate no_reflect no_shear #
lump $-1 $-1 $63 $9 #
transform $-1 1 0 0 0 1 0 0 0 1 69.002349925229652 46.216222811641131 10.589237220464435 1 rotate no_reflect no_shear #
lump $-1 $-1 $64 $10 #
transform $-1 1 0 0 0 1 0 0 0 1 69.002349925229652 46.216222811641131 10.589237220464435 1 rotate no_reflect no_shear #
lump $-1 $-1 $65 $11 #
transform $-1 1 0 0 0 1 0 0 0 1 69.002349925229652 46.216222811641131 10.589237220464435 1 rotate no_reflect no_shear #
lump $-1 $-1 $66 $12 #
transform $-1 1 0 0 0 1 0 0 0 1 69.002349925229652 46.216222811641131 10.589237220464435 1 rotate no_reflect no_shear #
lump $-1 $-1 $67 $13 #
transform $-1 1 0 0 0 1 0 0 0 1 69.002349925229652 46.216222811641131 10.589237220464435 1 rotate no_reflect no_shear #
lump $-1 $-1 $68 $14 #
transform $-1 1 0 0 0 1 0 0 0 1 69.002349925229652 46.216222811641131 10.589237220464435 1 rotate no_reflect no_shear #
lump $-1 $-1 $69 $15 #
transform $-1 1 0 0 0 1 0 0 0 1 69.002349925229652 46.216222811641131 10.589237220464435 1 rotate no_reflect no_shear #
lump $-1 $-1 $70 $16 #
transform $-1 1 0 0 0 1 0 0 0 1 69.002349925229652 46.216222811641131 10.589237220464435 1 rotate no_reflect no_shear #
lump $-1 $-1 $71 $17 #
transform $-1 1 0 0 0 1 0 0 0 1 69.002349925229652 46.216222811641131 10.589237220464435 1 rotate no_reflect no_shear #
shell $-1 $-1 $-1 $72 $-1 $18 #
shell $-1 $-1 $-1 $73 $-1 $20 #
shell $-1 $-1 $-1 $74 $-1 $22 #
shell $-1 $-1 $-1 $75 $-1 $24 #
shell $-1 $-1 $-1 $76 $-1 $26 #
shell $-1 $-1 $-1 $77 $-1 $28 #
shell $-1 $-1 $-1 $78 $-1 $30 #
shell $-1 $-1 $-1 $79 $-1 $32 #
shell $-1 $-1 $-1 $80 $-1 $34 #
shell $-1 $-1 $-1 $81 $-1 $36 #
shell $-1 $-1 $-1 $82 $-1 $38 #
shell $-1 $-1 $-1 $83 $-1 $40 #
shell $-1 $-1 $-1 $84 $-1 $42 #
shell $-1 $-1 $-1 $85 $-1 $44 #
shell $-1 $-1 $-1 $86 $-1 $46 #
shell $-1 $-1 $-1 $87 $-1 $48 #
shell $-1 $-1 $-1 $88 $-1 $50 #
shell $-1 $-1 $-1 $89 $-1 $52 #
face $-1 $90 $91 $54 $-1 $92 forward single #
face $-1 $93 $94 $55 $-1 $95 reversed single #
face $-1 $96 $97 $56 $-1 $98 reversed single #
face $-1 $99 $100 $57 $-1 $101 forward single #
face $-1 $102 $103 $58 $-1 $104 forward single #
face $-1 $105 $106 $59 $-1 $107 forward single #
face $-1 $108 $109 $60 $-1 $110 reversed single #
face $-1 $111 $112 $61 $-1 $113 forward single #
face $-1 $114 $115 $62 $-1 $116 forward single #
face $-1 $117 $118 $63 $-1 $119 forward single #
face $-1 $120 $121 $64 $-1 $122 reversed single #
face $-1 $123 $124 $65 $-1 $125 forward single #
face $-1 $126 $127 $66 $-1 $128 forward single #
face $-1 $129 $130 $67 $-1 $131 forward single #
face $-1 $132 $133 $68 $-1 $134 reversed single #
face $-1 $135 $136 $69 $-1 $137 forward single #
face $-1 $138 $139 $70 $-1 $140 forward single #
face $-1 $141 $142 $71 $-1 $143 forward single #
face $-1 $144 $145 $54 $-1 $146 reversed single #
loop $-1 $-1 $147 $72 #
plane-surface $-1 0 0 10.589237220464435 0 0 1 1 0 0 forward_v I I I I #
face $-1 $148 $149 $55 $-1 $150 reversed single #
loop $-1 $-1 $151 $73 #
plane-surface $-1 -63.899903009481186 0 7.5892372204644349 0 0 1 1 0 0 forward_v I I I I #
face $-1 $152 $153 $56 $-1 $154 reversed single #
loop $-1 $-1 $155 $74 #
plane-surface $-1 5.1024469157484624 -156.43167780057854 85.698311545159967 -1 0 0 0 -0.79863551827123203 0.60181501223851219 forward_v I I I I #
face $-1 $156 $157 $57 $-1 $158 forward single #
loop $-1 $159 $160 $75 #
cone-surface $-1 -19.161536031139789 -42.79708787567553 6.296160597062805 0 0.79863551827123203 -0.60181501223851219 1 0 0 1 I I 0 1 1 forward I I I I #
face $-1 $161 $162 $58 $-1 $163 forward single #
loop $-1 $164 $165 $76 #
cone-surface $-1 -10.062542426056694 -42.79708787567553 6.296160597062805 0 0.79863551827123203 -0.60181501223851219 1 0 0 1 I I 0 1 1 forward I I I I #
face $-1 $166 $167 $59 $-1 $168 forward single #
loop $-1 $169 $170 $77 #
cone-surface $-1 -0.96354882097359962 -42.79708787567553 6.296160597062805 0 0.79863551827123203 -0.60181501223851219 1 0 0 1 I I 0 1 1 forward I I I I #
face $-1 $171 $172 $60 $-1 $173 reversed single #
loop $-1 $-1 $174 $78 #
plane-surface $-1 -10.062542426056694 -46.21622281164116 2.645011415683598 0 -0.79863551827123203 0.60181501223851219 1 0 0 forward_v I I I I #
face $-1 $175 $176 $61 $-1 $177 forward single #
loop $-1 $178 $179 $79 #
cone-surface $-1 11.168442652470532 -42.79708787567553 6.296160597062805 0 0.79863551827123203 -0.60181501223851219 1 0 0 1 I I 0 1 1 forward I I I I #
face $-1 $180 $181 $62 $-1 $182 forward single #
loop $-1 $183 $184 $80 #
cone-surface $-1 20.267436257553626 -42.79708787567553 6.296160597062805 0 0.79863551827123203 -0.60181501223851219 1 0 0 1 I I 0 1 1 forward I I I I #
face $-1 $185 $186 $63 $-1 $187 forward single #
loop $-1 $188 $189 $81 #
cone-surface $-1 29.366429862636721 -42.79708787567553 6.296160597062805 0 0.79863551827123203 -0.60181501223851219 1 0 0 1 I I 0 1 1 forward I I I I #
face $-1 $190 $191 $64 $-1 $192 reversed single #
loop $-1 $-1 $193 $82 #
plane-surface $-1 -25.227531767861851 100.80444440656728 159.51814566058744 1 0 0 0 -0.79863551827123203 -0.60181501223851219 forward_v I I I I #
face $-1 $194 $195 $65 $-1 $196 forward single #
loop $-1 $197 $198 $83 #
cone-surface $-1 -19.161536031139789 42.797087875675523 6.2961605970627907 0 -0.79863551827123203 -0.60181501223851219 1 0 0 1 I I 0 1 1 forward I I I I #
face $-1 $199 $200 $66 $-1 $201 forward single #
loop $-1 $202 $203 $84 #
cone-surface $-1 -10.062542426056694 42.797087875675523 6.2961605970627907 0 -0.79863551827123203 -0.60181501223851219 1 0 0 1 I I 0 1 1 forward I I I I #
face $-1 $204 $205 $67 $-1 $206 forward single #
loop $-1 $207 $208 $85 #
cone-surface $-1 -0.96354882097359962 42.797087875675523 6.2961605970627907 0 -0.79863551827123203 -0.60181501223851219 1 0 0 1 I I 0 1 1 forward I I I I #
face $-1 $209 $210 $68 $-1 $211 reversed single #
loop $-1 $-1 $212 $86 #
plane-surface $-1 -10.062542426056694 -9.4110105823700962 76.464845531111067 0 0.79863551827123203 0.60181501223851219 1 0 0 forward_v I I I I #
face $-1 $213 $214 $69 $-1 $215 forward single #
loop $-1 $216 $217 $87 #
cone-surface $-1 11.168442652470532 42.797087875675523 6.2961605970627907 0 -0.79863551827123203 -0.60181501223851219 1 0 0 1 I I 0 1 1 forward I I I I #
face $-1 $218 $219 $70 $-1 $220 forward single #
loop $-1 $221 $222 $88 #
cone-surface $-1 20.267436257553626 42.797087875675523 6.2961605970627907 0 -0.79863551827123203 -0.60181501223851219 1 0 0 1 I I 0 1 1 forward I I I I #
face $-1 $223 $224 $71 $-1 $225 forward single #
loop $-1 $226 $227 $89 #
cone-surface $-1 29.366429862636721 42.797087875675523 6.2961605970627907 0 -0.79863551827123203 -0.60181501223851219 1 0 0 1 I I 0 1 1 forward I I I I #
face $-1 $228 $229 $54 $-1 $230 reversed single #
loop $-1 $-1 $231 $90 #
plane-surface $-1 0 0 -10.589237220464435 0 0 1 1 0 0 forward_v I I I I #
coedge $-1 $232 $233 $234 $235 forward $91 $-1 #
face $-1 $236 $237 $55 $-1 $238 reversed single #
loop $-1 $-1 $239 $93 #
plane-surface $-1 -58.79745609373272 0 9.0892372204644349 -1 0 0 0 0 1 forward_v I I I I #
coedge $-1 $240 $241 $242 $243 forward $94 $-1 #
face $-1 $244 $245 $56 $-1 $246 reversed single #
loop $-1 $-1 $247 $96 #
plane-surface $-1 -10.062542426056694 -46.21622281164116 2.645011415683598 0 -0.79863551827123203 0.60181501223851219 1 0 0 forward_v I I I I #
coedge $-1 $248 $249 $250 $251 reversed $97 $-1 #
face $-1 $-1 $252 $57 $-1 $253 forward single #
loop $-1 $254 $255 $99 #
cone-surface $-1 -19.161536031139789 -41.971836860533905 5.6742893699323442 0 0.79863551827123203 -0.60181501223851219 0.5 0 0 1 I I -0.70710678118654746 0.70710678118654746 0.5 forward I I I I #
loop $-1 $-1 $256 $75 #
coedge $-1 $160 $160 $257 $258 reversed $100 $-1 #
face $-1 $-1 $259 $58 $-1 $260 forward single #
loop $-1 $261 $262 $102 #
cone-surface $-1 -10.062542426056694 -41.971836860533905 5.6742893699323442 0 0.79863551827123203 -0.60181501223851219 0.5 0 0 1 I I -0.70710678118654746 0.70710678118654746 0.5 forward I I I I #
loop $-1 $-1 $263 $76 #
coedge $-1 $165 $165 $264 $265 reversed $103 $-1 #
face $-1 $-1 $266 $59 $-1 $267 forward single #
loop $-1 $268 $269 $105 #
cone-surface $-1 -0.96354882097359962 -41.971836860533905 5.6742893699323442 0 0.79863551827123203 -0.60181501223851219 0.5 0 0 1 I I -0.70710678118654746 0.70710678118654746 0.5 forward I I I I #
loop $-1 $-1 $270 $77 #
coedge $-1 $170 $170 $271 $272 reversed $106 $-1 #
face $-1 $273 $274 $60 $-1 $275 reversed single #
loop $-1 $-1 $276 $108 #
plane-surface $-1 35.43242559935878 -156.43167780057854 85.698311545159967 -1 0 0 0 -0.79863551827123203 0.60181501223851219 forward_v I I I I #
coedge $-1 $277 $278 $279 $280 reversed $109 $-1 #
face $-1 $-1 $281 $61 $-1 $282 forward single #
loop $-1 $283 $284 $111 #
cone-surface $-1 11.168442652470532 -41.971836860533905 5.6742893699323442 0 0.79863551827123203 -0.60181501223851219 0.5 0 0 1 I I -0.70710678118654746 0.70710678118654746 0.5 forward I I I I #
loop $-1 $-1 $285 $79 #
coedge $-1 $179 $179 $286 $287 reversed $112 $-1 #
face $-1 $-1 $288 $62 $-1 $289 forward single #
loop $-1 $290 $291 $114 #
cone-surface $-1 20.267436257553626 -41.971836860533905 5.6742893699323442 0 0.79863551827123203 -0.60181501223851219 0.5 0 0 1 I I -0.70710678118654746 0.70710678118654746 0.5 forward I I I I #
loop $-1 $-1 $292 $80 #
coedge $-1 $184 $184 $293 $294 reversed $115 $-1 #
face $-1 $-1 $295 $63 $-1 $296 forward single #
loop $-1 $297 $298 $117 #
cone-surface $-1 29.366429862636721 -41.971836860533905 5.6742893699323442 0 0.79863551827123203 -0.60181501223851219 0.5 0 0 1 I I -0.70710678118654746 0.70710678118654746 0.5 forward I I I I #
loop $-1 $-1 $299 $81 #
coedge $-1 $189 $189 $300 $301 reversed $118 $-1 #
face $-1 $302 $303 $64 $-1 $304 reversed single #
loop $-1 $-1 $305 $120 #
plane-surface $-1 -10.062542426056694 -9.4110105823700962 76.464845531111067 0 0.79863551827123203 0.60181501223851219 1 0 0 forward_v I I I I #
coedge $-1 $306 $307 $308 $309 reversed $121 $-1 #
face $-1 $-1 $310 $65 $-1 $311 forward single #
loop $-1 $312 $313 $123 #
cone-surface $-1 -19.161536031139789 41.971836860533898 5.67428936993233 0 -0.79863551827123203 -0.60181501223851219 0.5 0 0 1 I I -0.70710678118654746 0.70710678118654746 0.5 forward I I I I #
loop $-1 $-1 $314 $83 #
coedge $-1 $198 $198 $315 $316 reversed $124 $-1 #
face $-1 $-1 $317 $66 $-1 $318 forward single #
loop $-1 $319 $320 $126 #
cone-surface $-1 -10.062542426056694 41.971836860533898 5.67428936993233 0 -0.79863551827123203 -0.60181501223851219 0.5 0 0 1 I I -0.70710678118654746 0.70710678118654746 0.5 forward I I I I #
loop $-1 $-1 $321 $84 #
coedge $-1 $203 $203 $322 $323 reversed $127 $-1 #
face $-1 $-1 $324 $67 $-1 $325 forward single #
loop $-1 $326 $327 $129 #
cone-surface $-1 -0.96354882097359962 41.971836860533898 5.67428936993233 0 -0.79863551827123203 -0.60181501223851219 0.5 0 0 1 I I -0.70710678118654746 0.70710678118654746 0.5 forward I I I I #
loop $-1 $-1 $328 $85 #
coedge $-1 $208 $208 $329 $330 reversed $130 $-1 #
face $-1 $331 $332 $68 $-1 $333 forward single #
loop $-1 $-1 $334 $132 #
plane-surface $-1 35.43242559935878 100.80444440656728 159.51814566058744 -1 0 0 0 0.79863551827123203 0.60181501223851219 forward_v I I I I #
coedge $-1 $335 $336 $337 $338 reversed $133 $-1 #
face $-1 $-1 $339 $69 $-1 $340 forward single #
loop $-1 $341 $342 $135 #
cone-surface $-1 11.168442652470532 41.971836860533898 5.67428936993233 0 -0.79863551827123203 -0.60181501223851219 0.5 0 0 1 I I -0.70710678118654746 0.70710678118654746 0.5 forward I I I I #
loop $-1 $-1 $343 $87 #
coedge $-1 $217 $217 $344 $345 reversed $136 $-1 #
face $-1 $-1 $346 $70 $-1 $347 forward single #
loop $-1 $348 $349 $138 #
cone-surface $-1 20.267436257553626 41.971836860533898 5.67428936993233 0 -0.79863551827123203 -0.60181501223851219 0.5 0 0 1 I I -0.70710678118654746 0.70710678118654746 0.5 forward I I I I #
loop $-1 $-1 $350 $88 #
coedge $-1 $222 $222 $351 $352 reversed $139 $-1 #
face $-1 $-1 $353 $71 $-1 $354 forward single #
loop $-1 $355 $356 $141 #
cone-surface $-1 29.366429862636721 41.971836860533898 5.67428936993233 0 -0.79863551827123203 -0.60181501223851219 0.5 0 0 1 I I -0.70710678118654746 0.70710678118654746 0.5 forward I I I I #
loop $-1 $-1 $357 $89 #
coedge $-1 $227 $227 $358 $359 reversed $142 $-1 #
face $-1 $360 $361 $54 $-1 $362 reversed single #
loop $-1 $-1 $363 $144 #
plane-surface $-1 0 -46.216222811641131 0 0 1 0 0 0 1 forward_v I I I I #
coedge $-1 $364 $365 $366 $367 forward $145 $-1 #
coedge $-1 $368 $147 $369 $370 forward $91 $-1 #
coedge $-1 $147 $368 $371 $372 forward $91 $-1 #
coedge $-1 $373 $374 $147 $235 reversed $375 $-1 #
edge $-1 $376 -46.216222811641131 $377 46.216222811641131 $234 $378 forward 7 unknown #
face $-1 $379 $380 $55 $-1 $381 reversed single #
loop $-1 $-1 $382 $148 #
plane-surface $-1 0 46.216222811641131 0 0 -1 0 0 0 -1 forward_v I I I I #
coedge $-1 $242 $383 $384 $385 reversed $149 $-1 #
coedge $-1 $386 $151 $387 $388 reversed $94 $-1 #
coedge $-1 $151 $386 $389 $390 reversed $94 $-1 #
coedge $-1 $391 $239 $151 $243 reversed $149 $-1 #
edge $-1 $392 -46.216222811641131 $393 46.216222811641131 $242 $394 forward 7 unknown #
face $-1 $395 $396 $56 $-1 $397 reversed single #
loop $-1 $-1 $398 $152 #
plane-surface $-1 -25.227531767861851 -156.43167780057854 85.698311545159967 1 0 0 0 0.79863551827123203 -0.60181501223851219 forward_v I I I I #
coedge $-1 $399 $400 $401 $402 reversed $153 $-1 #
coedge $-1 $249 $155 $403 $404 reversed $97 $-1 #
coedge $-1 $155 $248 $399 $405 reversed $97 $-1 #
coedge $-1 $401 $406 $155 $251 forward $407 $-1 #
edge $-1 $408 31.999616088648139 $409 37.986019448567269 $250 $410 forward 7 unknown #
loop $-1 $-1 $257 $156 #
plane-surface $-1 -10.062542426056694 -46.21622281164116 2.645011415683598 0 -0.79863551827123203 0.60181501223851219 1 0 0 forward_v I I I I #
loop $-1 $-1 $411 $99 #
coedge $-1 $255 $255 $256 $412 reversed $157 $-1 #
coedge $-1 $256 $256 $255 $412 forward $159 $-1 #
coedge $-1 $257 $257 $160 $258 forward $252 $-1 #
edge $-1 $413 -6.2865940466530895e-016 $413 6.2831853071795996 $257 $414 forward 7 unknown #
loop $-1 $-1 $264 $161 #
plane-surface $-1 -10.062542426056694 -46.21622281164116 2.645011415683598 0 -0.79863551827123203 0.60181501223851219 1 0 0 forward_v I I I I #
loop $-1 $-1 $415 $102 #
coedge $-1 $262 $262 $263 $416 reversed $162 $-1 #
coedge $-1 $263 $263 $262 $416 forward $164 $-1 #
coedge $-1 $264 $264 $165 $265 forward $259 $-1 #
edge $-1 $417 -6.2865940466530895e-016 $417 6.2831853071795996 $264 $418 forward 7 unknown #
loop $-1 $-1 $271 $166 #
plane-surface $-1 -10.062542426056694 -46.21622281164116 2.645011415683598 0 -0.79863551827123203 0.60181501223851219 1 0 0 forward_v I I I I #
loop $-1 $-1 $419 $105 #
coedge $-1 $269 $269 $270 $420 reversed $167 $-1 #
coedge $-1 $270 $270 $269 $420 forward $169 $-1 #
coedge $-1 $271 $271 $170 $272 forward $266 $-1 #
edge $-1 $421 -6.2865940466530895e-016 $421 6.2831853071795996 $271 $422 forward 7 unknown #
face $-1 $423 $424 $60 $-1 $425 forward single #
loop $-1 $-1 $426 $171 #
plane-surface $-1 0 -46.216222811641131 0 0 1 0 0 0 1 forward_v I I I I #
coedge $-1 $427 $428 $429 $430 reversed $172 $-1 #
coedge $-1 $431 $174 $432 $433 reversed $109 $-1 #
coedge $-1 $174 $431 $426 $434 reversed $109 $-1 #
coedge $-1 $435 $436 $174 $280 forward $424 $-1 #
edge $-1 $437 -9.9472483041792579 $438 -4.7251171791415696e-014 $279 $439 forward 7 unknown #
loop $-1 $-1 $286 $175 #
plane-surface $-1 -10.062542426056694 -46.21622281164116 2.645011415683598 0 -0.79863551827123203 0.60181501223851219 1 0 0 forward_v I I I I #
loop $-1 $-1 $440 $111 #
coedge $-1 $284 $284 $285 $441 reversed $176 $-1 #
coedge $-1 $285 $285 $284 $441 forward $178 $-1 #
coedge $-1 $286 $286 $179 $287 forward $281 $-1 #
edge $-1 $442 -6.2865940466530895e-016 $442 6.2831853071795996 $286 $443 forward 7 unknown #
loop $-1 $-1 $293 $180 #
plane-surface $-1 -10.062542426056694 -46.21622281164116 2.645011415683598 0 -0.79863551827123203 0.60181501223851219 1 0 0 forward_v I I I I #
loop $-1 $-1 $444 $114 #
coedge $-1 $291 $291 $292 $445 reversed $181 $-1 #
coedge $-1 $292 $292 $291 $445 forward $183 $-1 #
coedge $-1 $293 $293 $184 $294 forward $288 $-1 #
edge $-1 $446 -6.2865940466530895e-016 $446 6.2831853071795996 $293 $447 forward 7 unknown #
loop $-1 $-1 $300 $185 #
plane-surface $-1 -10.062542426056694 -46.21622281164116 2.645011415683598 0 -0.79863551827123203 0.60181501223851219 1 0 0 forward_v I I I I #
loop $-1 $-1 $448 $117 #
coedge $-1 $298 $298 $299 $449 reversed $186 $-1 #
coedge $-1 $299 $299 $298 $449 forward $188 $-1 #
coedge $-1 $300 $300 $189 $301 forward $295 $-1 #
edge $-1 $450 -6.2865940466530895e-016 $450 6.2831853071795996 $300 $451 forward 7 unknown #
face $-1 $452 $453 $64 $-1 $454 forward single #
loop $-1 $-1 $455 $190 #
plane-surface $-1 5.1024469157484624 100.80444440656728 159.51814566058744 -1 0 0 0 0.79863551827123203 0.60181501223851219 forward_v I I I I #
coedge $-1 $456 $457 $458 $459 reversed $191 $-1 #
coedge $-1 $307 $193 $460 $461 reversed $121 $-1 #
coedge $-1 $193 $306 $456 $462 reversed $121 $-1 #
coedge $-1 $458 $463 $193 $309 forward $453 $-1 #
edge $-1 $464 4.1859993916425111 $465 10.172402751561705 $308 $466 forward 7 unknown #
loop $-1 $-1 $315 $194 #
plane-surface $-1 -10.062542426056694 -9.4110105823700962 76.464845531111067 0 0.79863551827123203 0.60181501223851219 1 0 0 forward_v I I I I #
loop $-1 $-1 $467 $123 #
coedge $-1 $313 $313 $314 $468 reversed $195 $-1 #
coedge $-1 $314 $314 $313 $468 forward $197 $-1 #
coedge $-1 $315 $315 $198 $316 forward $310 $-1 #
edge $-1 $469 3.5466541626726665e-015 $469 6.283185307179604 $315 $470 forward 7 unknown #
loop $-1 $-1 $322 $199 #
plane-surface $-1 -10.062542426056694 -9.4110105823700962 76.464845531111067 0 0.79863551827123203 0.60181501223851219 1 0 0 forward_v I I I I #
loop $-1 $-1 $471 $126 #
coedge $-1 $320 $320 $321 $472 reversed $200 $-1 #
coedge $-1 $321 $321 $320 $472 forward $202 $-1 #
coedge $-1 $322 $322 $203 $323 forward $317 $-1 #
edge $-1 $473 3.5466541626726665e-015 $473 6.283185307179604 $322 $474 forward 7 unknown #
loop $-1 $-1 $329 $204 #
plane-surface $-1 -10.062542426056694 -9.4110105823700962 76.464845531111067 0 0.79863551827123203 0.60181501223851219 1 0 0 forward_v I I I I #
loop $-1 $-1 $475 $129 #
coedge $-1 $327 $327 $328 $476 reversed $205 $-1 #
coedge $-1 $328 $328 $327 $476 forward $207 $-1 #
coedge $-1 $329 $329 $208 $330 forward $324 $-1 #
edge $-1 $477 3.5466541626726665e-015 $477 6.283185307179604 $329 $478 forward 7 unknown #
face $-1 $479 $480 $68 $-1 $481 forward single #
loop $-1 $-1 $482 $209 #
plane-surface $-1 0 0 10.589237220464435 0 0 1 1 0 0 forward_v I I I I #
coedge $-1 $483 $484 $485 $486 reversed $210 $-1 #
coedge $-1 $487 $212 $488 $489 reversed $133 $-1 #
coedge $-1 $212 $487 $482 $490 reversed $133 $-1 #
coedge $-1 $491 $492 $212 $338 forward $480 $-1 #
edge $-1 $493 -92.432445623282248 $494 -82.485197319102951 $337 $495 forward 7 unknown #
loop $-1 $-1 $344 $213 #
plane-surface $-1 -10.062542426056694 -9.4110105823700962 76.464845531111067 0 0.79863551827123203 0.60181501223851219 1 0 0 forward_v I I I I #
loop $-1 $-1 $496 $135 #
coedge $-1 $342 $342 $343 $497 reversed $214 $-1 #
coedge $-1 $343 $343 $342 $497 forward $216 $-1 #
coedge $-1 $344 $344 $217 $345 forward $339 $-1 #
edge $-1 $498 3.5466541626726665e-015 $498 6.283185307179604 $344 $499 forward 7 unknown #
loop $-1 $-1 $351 $218 #
plane-surface $-1 -10.062542426056694 -9.4110105823700962 76.464845531111067 0 0.79863551827123203 0.60181501223851219 1 0 0 forward_v I I I I #
loop $-1 $-1 $500 $138 #
coedge $-1 $349 $349 $350 $501 reversed $219 $-1 #
coedge $-1 $350 $350 $349 $501 forward $221 $-1 #
coedge $-1 $351 $351 $222 $352 forward $346 $-1 #
edge $-1 $502 3.5466541626726665e-015 $502 6.283185307179604 $351 $503 forward 7 unknown #
loop $-1 $-1 $358 $223 #
plane-surface $-1 -10.062542426056694 -9.4110105823700962 76.464845531111067 0 0.79863551827123203 0.60181501223851219 1 0 0 forward_v I I I I #
loop $-1 $-1 $504 $141 #
coedge $-1 $356 $356 $357 $505 reversed $224 $-1 #
coedge $-1 $357 $357 $356 $505 forward $226 $-1 #
coedge $-1 $358 $358 $227 $359 forward $353 $-1 #
edge $-1 $506 3.5466541626726665e-015 $506 6.283185307179604 $358 $507 forward 7 unknown #
face $-1 $508 $509 $54 $-1 $510 reversed single #
loop $-1 $-1 $511 $228 #
plane-surface $-1 -69.002349925229652 0 0 1 0 0 0 0 -1 forward_v I I I I #
coedge $-1 $512 $371 $513 $514 forward $229 $-1 #
coedge $-1 $515 $231 $512 $516 forward $145 $-1 #
coedge $-1 $231 $515 $517 $518 forward $145 $-1 #
coedge $-1 $374 $373 $231 $367 reversed $375 $-1 #
edge $-1 $519 -46.216222811641131 $520 46.216222811641131 $366 $521 forward 7 unknown #
coedge $-1 $233 $232 $522 $523 forward $91 $-1 #
coedge $-1 $524 $525 $232 $370 reversed $509 $-1 #
edge $-1 $377 -69.002349925229652 $526 69.002349925229652 $369 $527 forward 7 unknown #
coedge $-1 $363 $528 $233 $372 reversed $229 $-1 #
edge $-1 $529 -69.002349925229652 $376 69.002349925229652 $371 $530 forward 7 unknown #
coedge $-1 $366 $234 $528 $531 forward $375 $-1 #
coedge $-1 $234 $366 $524 $532 reversed $375 $-1 #
loop $-1 $-1 $373 $508 #
vertex $-1 $235 $533 #
vertex $-1 $235 $534 #
straight-curve $-1 69.002349925229652 0 10.589237220464435 0 1 0 I I #
face $-1 $535 $536 $55 $-1 $537 forward single #
loop $-1 $-1 $538 $236 #
plane-surface $-1 -69.002349925229652 0 0 1 0 0 0 0 -1 forward_v I I I I #
coedge $-1 $389 $539 $391 $540 forward $237 $-1 #
coedge $-1 $239 $391 $541 $542 reversed $149 $-1 #
coedge $-1 $543 $387 $239 $385 forward $544 $-1 #
edge $-1 $393 3.0446186102322175 $545 6.0446186102322175 $384 $546 forward 7 unknown #
coedge $-1 $241 $240 $538 $547 reversed $94 $-1 #
coedge $-1 $384 $548 $240 $388 forward $544 $-1 #
edge $-1 $549 -37.052398420489055 $393 -26.847504588992127 $387 $550 forward 7 unknown #
coedge $-1 $551 $382 $241 $390 forward $237 $-1 #
edge $-1 $392 26.847504588992127 $552 37.052398420489055 $389 $553 forward 7 unknown #
coedge $-1 $383 $242 $382 $540 reversed $149 $-1 #
vertex $-1 $390 $554 #
vertex $-1 $388 $555 #
straight-curve $-1 -58.79745609373272 0 7.5892372204644349 0 -1 0 I I #
face $-1 $-1 $407 $56 $-1 $556 forward single #
loop $-1 $-1 $557 $244 #
plane-surface $-1 0 -46.216222811641131 0 0 1 0 0 0 1 forward_v I I I I #
coedge $-1 $558 $559 $560 $561 reversed $245 $-1 #
coedge $-1 $562 $247 $249 $405 forward $153 $-1 #
coedge $-1 $247 $562 $558 $563 forward $153 $-1 #
coedge $-1 $560 $250 $247 $402 forward $407 $-1 #
edge $-1 $409 -10.13371812877681 $564 20.196260554833504 $401 $565 forward 7 unknown #
coedge $-1 $566 $567 $248 $404 forward $396 $-1 #
edge $-1 $568 -40.20414435689635 $408 -32.25991855211555 $403 $569 forward 7 unknown #
edge $-1 $409 -9.9472483041792579 $568 -4.7251171791415696e-014 $249 $570 forward 7 unknown #
coedge $-1 $250 $560 $566 $571 forward $407 $-1 #
loop $-1 $-1 $560 $395 #
vertex $-1 $404 $572 #
vertex $-1 $251 $573 #
straight-curve $-1 5.1024469157484624 -78.21583890028927 10.589237220464433 0 1 0 I I #
coedge $-1 $411 $411 $-1 $574 reversed $254 $-1 #
edge $-1 $575 0 $575 6.2831853071796004 $255 $576 forward 7 unknown #
vertex $-1 $258 $577 #
ellipse-curve $-1 -19.161536031139789 -43.22302113168157 6.6171243180740307 0 -0.79863551827123203 0.60181501223851219 1 0 0 1 I I #
coedge $-1 $415 $415 $-1 $578 reversed $261 $-1 #
edge $-1 $579 0 $579 6.2831853071796004 $262 $580 forward 7 unknown #
vertex $-1 $265 $581 #
ellipse-curve $-1 -10.062542426056694 -43.22302113168157 6.6171243180740307 0 -0.79863551827123203 0.60181501223851219 1 0 0 1 I I #
coedge $-1 $419 $419 $-1 $582 reversed $268 $-1 #
edge $-1 $583 0 $583 6.2831853071796004 $269 $584 forward 7 unknown #
vertex $-1 $272 $585 #
ellipse-curve $-1 -0.96354882097359962 -43.22302113168157 6.6171243180740307 0 -0.79863551827123203 0.60181501223851219 1 0 0 1 I I #
face $-1 $-1 $586 $60 $-1 $587 forward single #
loop $-1 $-1 $436 $273 #
plane-surface $-1 5.1024469157484624 -156.43167780057854 85.698311545159967 -1 0 0 0 -0.79863551827123203 0.60181501223851219 forward_v I I I I #
coedge $-1 $429 $588 $278 $434 forward $274 $-1 #
coedge $-1 $428 $276 $431 $589 reversed $172 $-1 #
coedge $-1 $276 $427 $590 $591 reversed $172 $-1 #
coedge $-1 $592 $426 $276 $430 forward $274 $-1 #
edge $-1 $593 -40.20414435689635 $594 -32.25991855211555 $429 $595 forward 7 unknown #
coedge $-1 $278 $277 $427 $589 forward $109 $-1 #
coedge $-1 $596 $590 $277 $433 forward $586 $-1 #
edge $-1 $597 -40.463696812387127 $437 -10.13371812877681 $432 $598 forward 7 unknown #
edge $-1 $438 10.13371812877681 $593 40.463696812387127 $426 $599 forward 7 unknown #
coedge $-1 $436 $279 $588 $600 reversed $424 $-1 #
coedge $-1 $279 $435 $596 $601 reversed $424 $-1 #
vertex $-1 $433 $602 #
vertex $-1 $434 $603 #
straight-curve $-1 5.1024469157484624 -46.21622281164116 2.645011415683598 0 -0.60181501223851219 -0.79863551827123203 I I #
coedge $-1 $440 $440 $-1 $604 reversed $283 $-1 #
edge $-1 $605 0 $605 6.2831853071796004 $284 $606 forward 7 unknown #
vertex $-1 $287 $607 #
ellipse-curve $-1 11.168442652470532 -43.22302113168157 6.6171243180740307 0 -0.79863551827123203 0.60181501223851219 1 0 0 1 I I #
coedge $-1 $444 $444 $-1 $608 reversed $290 $-1 #
edge $-1 $609 0 $609 6.2831853071796004 $291 $610 forward 7 unknown #
vertex $-1 $294 $611 #
ellipse-curve $-1 20.267436257553626 -43.22302113168157 6.6171243180740307 0 -0.79863551827123203 0.60181501223851219 1 0 0 1 I I #
coedge $-1 $448 $448 $-1 $612 reversed $297 $-1 #
edge $-1 $613 0 $613 6.2831853071796004 $298 $614 forward 7 unknown #
vertex $-1 $301 $615 #
ellipse-curve $-1 29.366429862636721 -43.22302113168157 6.6171243180740307 0 -0.79863551827123203 0.60181501223851219 1 0 0 1 I I #
face $-1 $-1 $616 $64 $-1 $617 reversed single #
loop $-1 $-1 $308 $302 #
plane-surface $-1 0 0 10.589237220464435 0 0 1 1 0 0 forward_v I I I I #
coedge $-1 $618 $619 $620 $621 reversed $303 $-1 #
coedge $-1 $622 $305 $307 $462 forward $191 $-1 #
coedge $-1 $305 $622 $618 $623 forward $191 $-1 #
coedge $-1 $620 $308 $305 $459 forward $453 $-1 #
edge $-1 $465 -20.196260554833504 $624 10.13371812877681 $458 $625 forward 7 unknown #
coedge $-1 $626 $627 $306 $461 forward $616 $-1 #
edge $-1 $628 -77.114061414610148 $464 -69.169835609829278 $460 $629 forward 7 unknown #
edge $-1 $465 82.485197319102951 $628 92.432445623282248 $307 $630 forward 7 unknown #
coedge $-1 $308 $620 $626 $631 forward $453 $-1 #
vertex $-1 $461 $632 #
vertex $-1 $309 $633 #
straight-curve $-1 -25.227531767861851 50.402222203283642 10.58923722046444 0 -1 0 I I #
coedge $-1 $467 $467 $-1 $634 reversed $312 $-1 #
edge $-1 $635 0 $635 6.2831853071796004 $313 $636 forward 7 unknown #
vertex $-1 $316 $637 #
ellipse-curve $-1 -19.161536031139789 43.223021131681534 6.6171243180739987 0 0.79863551827123203 0.60181501223851219 1 0 0 1 I I #
coedge $-1 $471 $471 $-1 $638 reversed $319 $-1 #
edge $-1 $639 0 $639 6.2831853071796004 $320 $640 forward 7 unknown #
vertex $-1 $323 $641 #
ellipse-curve $-1 -10.062542426056694 43.223021131681534 6.6171243180739987 0 0.79863551827123203 0.60181501223851219 1 0 0 1 I I #
coedge $-1 $475 $475 $-1 $642 reversed $326 $-1 #
edge $-1 $643 0 $643 6.2831853071796004 $327 $644 forward 7 unknown #
vertex $-1 $330 $645 #
ellipse-curve $-1 -0.96354882097359962 43.223021131681534 6.6171243180739987 0 0.79863551827123203 0.60181501223851219 1 0 0 1 I I #
face $-1 $-1 $646 $68 $-1 $647 reversed single #
loop $-1 $-1 $491 $331 #
plane-surface $-1 5.1024469157484624 100.80444440656728 159.51814566058744 -1 0 0 0 0.79863551827123203 0.60181501223851219 forward_v I I I I #
coedge $-1 $485 $648 $336 $490 forward $332 $-1 #
coedge $-1 $484 $334 $487 $649 reversed $210 $-1 #
coedge $-1 $334 $483 $650 $651 reversed $210 $-1 #
coedge $-1 $652 $482 $334 $486 forward $332 $-1 #
edge $-1 $653 -10.172402751561705 $654 -4.1859993916425111 $485 $655 forward 7 unknown #
coedge $-1 $336 $335 $483 $649 forward $133 $-1 #
coedge $-1 $656 $650 $335 $489 forward $646 $-1 #
edge $-1 $657 -40.463696812387127 $493 -10.13371812877681 $488 $658 forward 7 unknown #
edge $-1 $494 10.13371812877681 $653 40.463696812387127 $482 $659 forward 7 unknown #
coedge $-1 $492 $337 $648 $660 reversed $480 $-1 #
coedge $-1 $337 $491 $656 $661 reversed $480 $-1 #
vertex $-1 $489 $662 #
vertex $-1 $490 $663 #
straight-curve $-1 5.1024469157484624 -9.4110105823700962 76.464845531111067 0 -0.60181501223851219 0.79863551827123203 I I #
coedge $-1 $496 $496 $-1 $664 reversed $341 $-1 #
edge $-1 $665 0 $665 6.2831853071796004 $342 $666 forward 7 unknown #
vertex $-1 $345 $667 #
ellipse-curve $-1 11.168442652470532 43.223021131681534 6.6171243180739987 0 0.79863551827123203 0.60181501223851219 1 0 0 1 I I #
coedge $-1 $500 $500 $-1 $668 reversed $348 $-1 #
edge $-1 $669 0 $669 6.2831853071796004 $349 $670 forward 7 unknown #
vertex $-1 $352 $671 #
ellipse-curve $-1 20.267436257553626 43.223021131681534 6.6171243180739987 0 0.79863551827123203 0.60181501223851219 1 0 0 1 I I #
coedge $-1 $504 $504 $-1 $672 reversed $355 $-1 #
edge $-1 $673 0 $673 6.2831853071796004 $356 $674 forward 7 unknown #
vertex $-1 $359 $675 #
ellipse-curve $-1 29.366429862636721 43.223021131681534 6.6171243180739987 0 0.79863551827123203 0.60181501223851219 1 0 0 1 I I #
face $-1 $-1 $375 $54 $-1 $676 reversed single #
loop $-1 $-1 $524 $360 #
plane-surface $-1 0 46.216222811641131 0 0 -1 0 0 0 -1 forward_v I I I I #
coedge $-1 $677 $522 $525 $678 forward $361 $-1 #
coedge $-1 $528 $363 $364 $516 reversed $229 $-1 #
coedge $-1 $522 $677 $363 $514 reversed $361 $-1 #
edge $-1 $529 -10.589237220464435 $679 10.589237220464435 $513 $680 forward 7 unknown #
coedge $-1 $365 $364 $677 $681 forward $145 $-1 #
edge $-1 $520 -69.002349925229652 $679 69.002349925229652 $512 $682 forward 7 unknown #
coedge $-1 $525 $524 $365 $518 reversed $509 $-1 #
edge $-1 $683 -69.002349925229652 $519 69.002349925229652 $517 $684 forward 7 unknown #
vertex $-1 $367 $685 #
vertex $-1 $531 $686 #
straight-curve $-1 69.002349925229652 0 -10.589237220464435 0 -1 0 I I #
coedge $-1 $511 $513 $368 $523 reversed $361 $-1 #
edge $-1 $526 -46.216222811641131 $529 46.216222811641131 $522 $687 forward 7 unknown #
coedge $-1 $517 $369 $374 $532 forward $509 $-1 #
coedge $-1 $369 $517 $511 $678 reversed $509 $-1 #
vertex $-1 $370 $688 #
straight-curve $-1 0 46.216222811641131 10.589237220464435 -1 0 0 I I #
coedge $-1 $371 $512 $373 $531 reversed $229 $-1 #
vertex $-1 $523 $689 #
straight-curve $-1 0 -46.216222811641131 10.589237220464435 1 0 0 I I #
edge $-1 $376 -10.589237220464435 $520 10.589237220464435 $373 $690 forward 7 unknown #
edge $-1 $377 -10.589237220464435 $519 10.589237220464435 $374 $691 forward 7 unknown #
point $-1 69.002349925229652 -46.216222811641131 10.589237220464435 #
point $-1 69.002349925229652 46.216222811641131 10.589237220464435 #
face $-1 $-1 $544 $55 $-1 $692 reversed single #
loop $-1 $-1 $541 $379 #
plane-surface $-1 0 0 10.589237220464435 0 0 1 1 0 0 forward_v I I I I #
coedge $-1 $693 $694 $386 $547 forward $380 $-1 #
coedge $-1 $382 $551 $695 $696 reversed $237 $-1 #
edge $-1 $697 -6.0446186102322175 $392 -3.0446186102322175 $382 $698 forward 7 unknown #
coedge $-1 $695 $699 $383 $542 forward $536 $-1 #
edge $-1 $545 -46.216222811641131 $697 46.216222811641131 $541 $700 forward 7 unknown #
coedge $-1 $548 $384 $699 $701 reversed $544 $-1 #
loop $-1 $-1 $384 $535 #
vertex $-1 $385 $702 #
straight-curve $-1 -58.79745609373272 -46.216222811641131 4.5446186102322175 0 0 1 I I #
edge $-1 $552 -46.216222811641131 $549 46.216222811641131 $538 $703 forward 7 unknown #
coedge $-1 $387 $543 $693 $704 forward $544 $-1 #
vertex $-1 $547 $705 #
straight-curve $-1 -31.949951504740593 -46.216222811641131 7.5892372204644349 1 0 0 I I #
coedge $-1 $539 $389 $694 $706 reversed $237 $-1 #
vertex $-1 $547 $707 #
straight-curve $-1 -31.949951504740593 46.216222811641131 7.5892372204644349 -1 0 0 I I #
point $-1 -58.79745609373272 46.216222811641131 7.5892372204644349 #
point $-1 -58.79745609373272 -46.216222811641131 7.5892372204644349 #
plane-surface $-1 0 0 10.589237220464435 0 0 1 1 0 0 forward_v I I I I #
coedge $-1 $567 $566 $559 $708 forward $396 $-1 #
coedge $-1 $559 $398 $400 $563 reversed $245 $-1 #
coedge $-1 $398 $558 $557 $708 reversed $245 $-1 #
coedge $-1 $406 $401 $398 $561 forward $407 $-1 #
edge $-1 $564 -37.986019448567269 $709 -31.999616088648139 $560 $710 forward 7 unknown #
coedge $-1 $400 $399 $567 $711 reversed $153 $-1 #
edge $-1 $712 4.7251171791415696e-014 $564 9.9472483041792579 $558 $713 forward 7 unknown #
vertex $-1 $402 $714 #
straight-curve $-1 -5.0312712130283472 -40.229819451721994 10.589237220464437 -1 0 0 I I #
coedge $-1 $557 $403 $406 $571 reversed $396 $-1 #
coedge $-1 $403 $557 $562 $711 forward $396 $-1 #
vertex $-1 $404 $715 #
straight-curve $-1 5.1024469157484624 -46.216222811641131 42.849155772579984 0 0 1 I I #
straight-curve $-1 5.1024469157484624 -46.21622281164116 2.645011415683598 0 -0.60181501223851219 -0.79863551827123203 I I #
edge $-1 $709 -25.227531767861851 $408 5.1024469157484624 $566 $716 forward 7 unknown #
point $-1 5.1024469157484624 -46.216222811641131 10.589237220464435 #
point $-1 5.1024469157484624 -40.229819451722001 10.589237220464435 #
edge $-1 $717 1 $717 0 $411 $-1 forward 7 unknown #
vertex $-1 $412 $718 #
ellipse-curve $-1 -19.161536031139789 -42.371154619669518 5.9751968760516005 0 -0.79863551827123203 0.60181501223851219 1 0 0 1 I I #
point $-1 -18.161536031139789 -43.223021131681541 6.6171243180740085 #
edge $-1 $719 1 $719 0 $415 $-1 forward 7 unknown #
vertex $-1 $416 $720 #
ellipse-curve $-1 -10.062542426056694 -42.371154619669518 5.9751968760516005 0 -0.79863551827123203 0.60181501223851219 1 0 0 1 I I #
point $-1 -9.0625424260566945 -43.223021131681541 6.6171243180740085 #
edge $-1 $721 1 $721 0 $419 $-1 forward 7 unknown #
vertex $-1 $420 $722 #
ellipse-curve $-1 -0.96354882097359962 -42.371154619669518 5.9751968760516005 0 -0.79863551827123203 0.60181501223851219 1 0 0 1 I I #
point $-1 0.036451179026400382 -43.223021131681541 6.6171243180740085 #
loop $-1 $-1 $432 $423 #
plane-surface $-1 0 0 10.589237220464435 0 0 1 1 0 0 forward_v I I I I #
coedge $-1 $426 $592 $435 $600 forward $274 $-1 #
edge $-1 $597 -9.9472483041792579 $593 -4.7251171791415696e-014 $427 $723 forward 7 unknown #
coedge $-1 $432 $724 $428 $591 forward $586 $-1 #
edge $-1 $594 31.999616088648139 $597 37.986019448567269 $590 $725 forward 7 unknown #
coedge $-1 $588 $429 $724 $726 reversed $274 $-1 #
vertex $-1 $430 $727 #
vertex $-1 $430 $728 #
straight-curve $-1 35.43242559935878 -46.216222811641131 42.849155772579984 0 0 1 I I #
coedge $-1 $724 $432 $436 $601 forward $586 $-1 #
vertex $-1 $591 $729 #
straight-curve $-1 -5.0312712130283472 -40.229819451721994 10.589237220464437 -1 0 0 I I #
straight-curve $-1 -5.0312712130283472 -46.216222811641131 2.6450114156836313 1 0 0 I I #
edge $-1 $730 32.25991855211555 $438 40.20414435689635 $588 $731 forward 7 unknown #
edge $-1 $437 -37.986019448567269 $730 -31.999616088648139 $596 $732 forward 7 unknown #
point $-1 5.1024469157484624 -40.229819451722001 10.589237220464435 #
point $-1 5.1024469157484624 -46.216222811641131 2.6450114156836357 #
edge $-1 $733 1 $733 0 $440 $-1 forward 7 unknown #
vertex $-1 $441 $734 #
ellipse-curve $-1 11.168442652470532 -42.371154619669518 5.9751968760516005 0 -0.79863551827123203 0.60181501223851219 1 0 0 1 I I #
point $-1 12.168442652470532 -43.223021131681541 6.6171243180740085 #
edge $-1 $735 1 $735 0 $444 $-1 forward 7 unknown #
vertex $-1 $445 $736 #
ellipse-curve $-1 20.267436257553626 -42.371154619669518 5.9751968760516005 0 -0.79863551827123203 0.60181501223851219 1 0 0 1 I I #
point $-1 21.267436257553626 -43.223021131681541 6.6171243180740085 #
edge $-1 $737 1 $737 0 $448 $-1 forward 7 unknown #
vertex $-1 $449 $738 #
ellipse-curve $-1 29.366429862636721 -42.371154619669518 5.9751968760516005 0 -0.79863551827123203 0.60181501223851219 1 0 0 1 I I #
point $-1 30.366429862636721 -43.223021131681541 6.6171243180740085 #
loop $-1 $-1 $460 $452 #
plane-surface $-1 0 46.216222811641131 0 0 -1 0 0 0 -1 forward_v I I I I #
coedge $-1 $619 $455 $457 $623 reversed $303 $-1 #
coedge $-1 $455 $618 $739 $740 reversed $303 $-1 #
coedge $-1 $463 $458 $455 $621 forward $453 $-1 #
edge $-1 $624 -10.172402751561705 $741 -4.1859993916425111 $620 $742 forward 7 unknown #
coedge $-1 $457 $456 $627 $743 reversed $191 $-1 #
edge $-1 $744 -92.432445623282248 $624 -82.485197319102951 $618 $745 forward 7 unknown #
vertex $-1 $459 $746 #
straight-curve $-1 -5.0312712130283472 40.229819451721951 10.589237220464433 1 0 0 I I #
coedge $-1 $739 $460 $463 $631 reversed $616 $-1 #
coedge $-1 $460 $739 $622 $743 forward $616 $-1 #
vertex $-1 $461 $747 #
straight-curve $-1 -25.227531767861851 46.216222811641131 79.759072830293718 0 0 1 I I #
straight-curve $-1 -25.227531767861851 -9.4110105823700962 76.464845531111067 0 0.60181501223851219 -0.79863551827123203 I I #
edge $-1 $741 -5.1024469157484624 $464 25.227531767861851 $626 $748 forward 7 unknown #
point $-1 -25.227531767861851 46.216222811641131 10.589237220464435 #
point $-1 -25.227531767861851 40.229819451721937 10.58923722046444 #
edge $-1 $749 1 $749 0 $467 $-1 forward 7 unknown #
vertex $-1 $468 $750 #
ellipse-curve $-1 -19.161536031139789 42.371154619669511 5.9751968760515863 0 0.79863551827123203 0.60181501223851219 1 0 0 1 I I #
point $-1 -18.161536031139789 43.223021131681534 6.6171243180739943 #
edge $-1 $751 1 $751 0 $471 $-1 forward 7 unknown #
vertex $-1 $472 $752 #
ellipse-curve $-1 -10.062542426056694 42.371154619669511 5.9751968760515863 0 0.79863551827123203 0.60181501223851219 1 0 0 1 I I #
point $-1 -9.0625424260566945 43.223021131681534 6.6171243180739943 #
edge $-1 $753 1 $753 0 $475 $-1 forward 7 unknown #
vertex $-1 $476 $754 #
ellipse-curve $-1 -0.96354882097359962 42.371154619669511 5.9751968760515863 0 0.79863551827123203 0.60181501223851219 1 0 0 1 I I #
point $-1 0.036451179026400382 43.223021131681534 6.6171243180739943 #
loop $-1 $-1 $488 $479 #
plane-surface $-1 0 46.216222811641131 0 0 -1 0 0 0 -1 forward_v I I I I #
coedge $-1 $482 $652 $491 $660 forward $332 $-1 #
edge $-1 $657 -92.432445623282248 $653 -82.485197319102951 $483 $755 forward 7 unknown #
coedge $-1 $488 $756 $484 $651 forward $646 $-1 #
edge $-1 $654 69.169835609829278 $657 77.114061414610148 $650 $757 forward 7 unknown #
coedge $-1 $648 $485 $756 $758 forward $332 $-1 #
vertex $-1 $486 $759 #
vertex $-1 $758 $760 #
straight-curve $-1 35.43242559935878 50.402222203283642 10.58923722046444 0 1 0 I I #
coedge $-1 $756 $488 $492 $661 forward $646 $-1 #
vertex $-1 $651 $761 #
straight-curve $-1 -5.0312712130283472 46.216222811641131 2.6450114156835554 -1 0 0 I I #
straight-curve $-1 -5.0312712130283472 40.229819451721951 10.589237220464433 1 0 0 I I #
edge $-1 $762 4.1859993916425111 $494 10.172402751561705 $648 $763 forward 7 unknown #
edge $-1 $493 -77.114061414610148 $762 -69.169835609829278 $656 $764 forward 7 unknown #
point $-1 5.1024469157484624 46.216222811641131 2.6450114156835696 #
point $-1 5.1024469157484624 40.229819451721937 10.58923722046444 #
edge $-1 $765 1 $765 0 $496 $-1 forward 7 unknown #
vertex $-1 $497 $766 #
ellipse-curve $-1 11.168442652470532 42.371154619669511 5.9751968760515863 0 0.79863551827123203 0.60181501223851219 1 0 0 1 I I #
point $-1 12.168442652470532 43.223021131681534 6.6171243180739943 #
edge $-1 $767 1 $767 0 $500 $-1 forward 7 unknown #
vertex $-1 $501 $768 #
ellipse-curve $-1 20.267436257553626 42.371154619669511 5.9751968760515863 0 0.79863551827123203 0.60181501223851219 1 0 0 1 I I #
point $-1 21.267436257553626 43.223021131681534 6.6171243180739943 #
edge $-1 $769 1 $769 0 $504 $-1 forward 7 unknown #
vertex $-1 $505 $770 #
ellipse-curve $-1 29.366429862636721 42.371154619669511 5.9751968760515863 0 0.79863551827123203 0.60181501223851219 1 0 0 1 I I #
point $-1 30.366429862636721 43.223021131681534 6.6171243180739943 #
plane-surface $-1 69.002349925229652 0 0 -1 0 0 0 0 1 forward_v I I I I #
coedge $-1 $513 $511 $515 $681 reversed $361 $-1 #
edge $-1 $526 -10.589237220464435 $683 10.589237220464435 $525 $771 forward 7 unknown #
vertex $-1 $681 $772 #
straight-curve $-1 -69.002349925229652 -46.216222811641131 0 0 0 -1 I I #
edge $-1 $679 -46.216222811641131 $683 46.216222811641131 $677 $773 forward 7 unknown #
straight-curve $-1 0 -46.216222811641131 -10.589237220464435 -1 0 0 I I #
vertex $-1 $518 $774 #
straight-curve $-1 0 46.216222811641131 -10.589237220464435 1 0 0 I I #
point $-1 69.002349925229652 46.216222811641131 -10.589237220464435 #
point $-1 69.002349925229652 -46.216222811641131 -10.589237220464435 #
straight-curve $-1 -69.002349925229652 0 10.589237220464435 0 -1 0 I I #
point $-1 -69.002349925229652 46.216222811641131 10.589237220464435 #
point $-1 -69.002349925229652 -46.216222811641131 10.589237220464435 #
straight-curve $-1 69.002349925229652 -46.216222811641131 0 0 0 -1 I I #
straight-curve $-1 69.002349925229652 46.216222811641131 0 0 0 -1 I I #
plane-surface $-1 0 -46.216222811641131 0 0 1 0 0 0 1 forward_v I I I I #
coedge $-1 $775 $538 $548 $704 reversed $380 $-1 #
coedge $-1 $538 $775 $551 $706 forward $380 $-1 #
coedge $-1 $776 $541 $539 $696 forward $536 $-1 #
edge $-1 $697 58.79745609373272 $777 69.002349925229652 $539 $778 forward 7 unknown #
vertex $-1 $696 $779 #
straight-curve $-1 -58.79745609373272 46.216222811641131 4.5446186102322175 0 0 -1 I I #
coedge $-1 $541 $776 $543 $701 forward $536 $-1 #
straight-curve $-1 -58.79745609373272 0 10.589237220464435 0 1 0 I I #
edge $-1 $780 -69.002349925229652 $545 -58.79745609373272 $543 $781 forward 7 unknown #
point $-1 -58.79745609373272 -46.216222811641131 10.589237220464435 #
straight-curve $-1 -69.002349925229652 0 7.5892372204644349 0 -1 0 I I #
edge $-1 $780 -10.589237220464435 $549 -7.5892372204644349 $693 $782 forward 7 unknown #
point $-1 -69.002349925229652 -46.216222811641131 7.5892372204644349 #
edge $-1 $777 -10.589237220464435 $552 -7.5892372204644349 $551 $783 forward 7 unknown #
point $-1 -69.002349925229652 46.216222811641131 7.5892372204644349 #
edge $-1 $709 32.25991855211555 $712 40.20414435689635 $557 $784 forward 7 unknown #
vertex $-1 $571 $785 #
straight-curve $-1 -25.227531767861851 -78.21583890028927 10.589237220464433 0 -1 0 I I #
edge $-1 $712 -20.196260554833504 $568 10.13371812877681 $567 $786 forward 7 unknown #
vertex $-1 $711 $787 #
straight-curve $-1 -25.227531767861851 -46.21622281164116 2.645011415683598 0 0.60181501223851219 0.79863551827123203 I I #
point $-1 -25.227531767861851 -40.229819451722001 10.589237220464435 #
point $-1 5.1024469157484624 -46.216222811641131 2.6450114156836357 #
straight-curve $-1 0 -46.216222811641131 10.589237220464435 1 0 0 I I #
vertex $-1 $574 $788 #
point $-1 -18.161536031139789 -42.371154619669518 5.9751968760516005 #
vertex $-1 $578 $789 #
point $-1 -9.0625424260566945 -42.371154619669518 5.9751968760516005 #
vertex $-1 $582 $790 #
point $-1 0.036451179026400382 -42.371154619669518 5.9751968760516005 #
straight-curve $-1 35.43242559935878 -46.21622281164116 2.645011415683598 0 -0.60181501223851219 -0.79863551827123203 I I #
coedge $-1 $590 $596 $592 $726 forward $586 $-1 #
straight-curve $-1 35.43242559935878 -78.21583890028927 10.589237220464433 0 1 0 I I #
edge $-1 $730 5.1024469157484624 $594 35.43242559935878 $592 $791 forward 7 unknown #
point $-1 35.43242559935878 -46.216222811641131 2.6450114156836357 #
point $-1 35.43242559935878 -46.216222811641131 10.589237220464435 #
point $-1 35.43242559935878 -40.229819451722001 10.589237220464435 #
vertex $-1 $726 $792 #
straight-curve $-1 5.1024469157484624 -46.216222811641131 42.849155772579984 0 0 -1 I I #
straight-curve $-1 5.1024469157484624 -78.21583890028927 10.589237220464433 0 -1 0 I I #
vertex $-1 $604 $793 #
point $-1 12.168442652470532 -42.371154619669518 5.9751968760516005 #
vertex $-1 $608 $794 #
point $-1 21.267436257553626 -42.371154619669518 5.9751968760516005 #
vertex $-1 $612 $795 #
point $-1 30.366429862636721 -42.371154619669518 5.9751968760516005 #
coedge $-1 $627 $626 $619 $740 forward $616 $-1 #
edge $-1 $741 69.169835609829278 $744 77.114061414610148 $739 $796 forward 7 unknown #
vertex $-1 $631 $797 #
straight-curve $-1 5.1024469157484624 50.402222203283642 10.58923722046444 0 1 0 I I #
edge $-1 $744 -10.13371812877681 $628 20.196260554833504 $627 $798 forward 7 unknown #
vertex $-1 $743 $799 #
straight-curve $-1 5.1024469157484624 -9.4110105823700962 76.464845531111067 0 -0.60181501223851219 0.79863551827123203 I I #
point $-1 5.1024469157484624 40.229819451721937 10.58923722046444 #
point $-1 -25.227531767861851 46.216222811641131 2.6450114156835696 #
straight-curve $-1 0 46.216222811641131 10.589237220464435 -1 0 0 I I #
vertex $-1 $634 $800 #
point $-1 -18.161536031139789 42.371154619669511 5.9751968760515863 #
vertex $-1 $638 $801 #
point $-1 -9.0625424260566945 42.371154619669511 5.9751968760515863 #
vertex $-1 $642 $802 #
point $-1 0.036451179026400382 42.371154619669511 5.9751968760515863 #
straight-curve $-1 35.43242559935878 -9.4110105823700962 76.464845531111067 0 -0.60181501223851219 0.79863551827123203 I I #
coedge $-1 $650 $656 $652 $758 reversed $646 $-1 #
straight-curve $-1 35.43242559935878 46.216222811641131 79.759072830293718 0 0 -1 I I #
edge $-1 $654 -35.43242559935878 $762 -5.1024469157484624 $756 $803 forward 7 unknown #
point $-1 35.43242559935878 40.229819451721937 10.58923722046444 #
point $-1 35.43242559935878 46.216222811641131 10.589237220464435 #
point $-1 35.43242559935878 46.216222811641131 2.6450114156835696 #
vertex $-1 $661 $804 #
straight-curve $-1 5.1024469157484624 50.402222203283642 10.58923722046444 0 -1 0 I I #
straight-curve $-1 5.1024469157484624 46.216222811641131 79.759072830293718 0 0 1 I I #
vertex $-1 $664 $805 #
point $-1 12.168442652470532 42.371154619669511 5.9751968760515863 #
vertex $-1 $668 $806 #
point $-1 21.267436257553626 42.371154619669511 5.9751968760515863 #
vertex $-1 $672 $807 #
point $-1 30.366429862636721 42.371154619669511 5.9751968760515863 #
straight-curve $-1 -69.002349925229652 46.216222811641131 0 0 0 -1 I I #
point $-1 -69.002349925229652 -46.216222811641131 -10.589237220464435 #
straight-curve $-1 -69.002349925229652 0 -10.589237220464435 0 1 0 I I #
point $-1 -69.002349925229652 46.216222811641131 -10.589237220464435 #
coedge $-1 $694 $693 $776 $808 reversed $380 $-1 #
coedge $-1 $699 $695 $775 $808 forward $536 $-1 #
vertex $-1 $696 $809 #
straight-curve $-1 0 46.216222811641131 10.589237220464435 -1 0 0 I I #
point $-1 -58.79745609373272 46.216222811641131 10.589237220464435 #
vertex $-1 $808 $810 #
straight-curve $-1 0 -46.216222811641131 10.589237220464435 1 0 0 I I #
straight-curve $-1 -69.002349925229652 -46.216222811641131 0 0 0 -1 I I #
straight-curve $-1 -69.002349925229652 46.216222811641131 0 0 0 -1 I I #
straight-curve $-1 -25.227531767861851 -46.216222811641131 42.849155772579984 0 0 -1 I I #
point $-1 -25.227531767861851 -46.216222811641131 10.589237220464435 #
straight-curve $-1 -5.0312712130283472 -46.216222811641131 2.6450114156836313 1 0 0 I I #
point $-1 -25.227531767861851 -46.216222811641131 2.6450114156836357 #
point $-1 -19.161536031139789 -41.572519101398292 5.3733818638130879 #
point $-1 -10.062542426056694 -41.572519101398292 5.3733818638130879 #
point $-1 -0.96354882097359962 -41.572519101398292 5.3733818638130879 #
straight-curve $-1 0 -46.216222811641131 10.589237220464435 1 0 0 I I #
point $-1 5.1024469157484624 -46.216222811641131 10.589237220464435 #
point $-1 11.168442652470532 -41.572519101398292 5.3733818638130879 #
point $-1 20.267436257553626 -41.572519101398292 5.3733818638130879 #
point $-1 29.366429862636721 -41.572519101398292 5.3733818638130879 #
straight-curve $-1 5.1024469157484624 46.216222811641131 79.759072830293718 0 0 -1 I I #
point $-1 5.1024469157484624 46.216222811641131 10.589237220464435 #
straight-curve $-1 -5.0312712130283472 46.216222811641131 2.6450114156835554 -1 0 0 I I #
point $-1 5.1024469157484624 46.216222811641131 2.6450114156835696 #
point $-1 -19.161536031139789 41.572519101398285 5.3733818638130737 #
point $-1 -10.062542426056694 41.572519101398285 5.3733818638130737 #
point $-1 -0.96354882097359962 41.572519101398285 5.3733818638130737 #
straight-curve $-1 0 46.216222811641131 10.589237220464435 -1 0 0 I I #
point $-1 5.1024469157484624 46.216222811641131 10.589237220464435 #
point $-1 11.168442652470532 41.572519101398285 5.3733818638130737 #
point $-1 20.267436257553626 41.572519101398285 5.3733818638130737 #
point $-1 29.366429862636721 41.572519101398285 5.3733818638130737 #
edge $-1 $777 -46.216222811641131 $780 46.216222811641131 $775 $811 forward 7 unknown #
point $-1 -69.002349925229652 46.216222811641131 10.589237220464435 #
point $-1 -69.002349925229652 -46.216222811641131 10.589237220464435 #
straight-curve $-1 -69.002349925229652 0 10.589237220464435 0 -1 0 I I #
End-of-ACIS-data 