500 0 8 0           
7 Unknown 11 ACIS 5.0 NT 24 Fri Mar 26 20:22:40 1999 
-1 9.9999999999999995e-007 1e-010 
body $-1 $8 $-1 $9 #
body $-1 $10 $-1 $11 #
body $-1 $12 $-1 $13 #
body $-1 $14 $-1 $15 #
body $-1 $16 $-1 $17 #
body $-1 $18 $-1 $19 #
body $-1 $20 $-1 $21 #
body $-1 $22 $-1 $23 #
lump $-1 $-1 $24 $0 #
transform $-1 1 0 0 0 1 0 0 0 1 57.803277687917721 23.510817704199109 6.7337358314880165 1 rotate no_reflect no_shear #
lump $-1 $-1 $25 $1 #
transform $-1 1 0 0 0 1 0 0 0 1 57.803277687917721 23.510817704199109 6.7337358314880165 1 rotate no_reflect no_shear #
lump $-1 $-1 $26 $2 #
transform $-1 1 0 0 0 1 0 0 0 1 57.803277687917721 23.510817704199109 6.7337358314880165 1 rotate no_reflect no_shear #
lump $-1 $-1 $27 $3 #
transform $-1 1 0 0 0 1 0 0 0 1 57.803277687917721 23.510817704199109 6.7337358314880165 1 rotate no_reflect no_shear #
lump $-1 $-1 $28 $4 #
transform $-1 1 0 0 0 1 0 0 0 1 57.803277687917721 23.510817704199109 6.7337358314880165 1 rotate no_reflect no_shear #
lump $-1 $-1 $29 $5 #
transform $-1 1 0 0 0 1 0 0 0 1 57.803277687917721 23.510817704199109 6.7337358314880165 1 rotate no_reflect no_shear #
lump $-1 $-1 $30 $6 #
transform $-1 1 0 0 0 1 0 0 0 1 57.803277687917721 23.510817704199109 6.7337358314880165 1 rotate no_reflect no_shear #
lump $-1 $-1 $31 $7 #
transform $-1 1 0 0 0 1 0 0 0 1 57.803277687917721 23.510817704199109 6.7337358314880165 1 rotate no_reflect no_shear #
shell $-1 $-1 $-1 $32 $-1 $8 #
shell $-1 $-1 $-1 $33 $-1 $10 #
shell $-1 $-1 $-1 $34 $-1 $12 #
shell $-1 $-1 $-1 $35 $-1 $14 #
shell $-1 $-1 $-1 $36 $-1 $16 #
shell $-1 $-1 $-1 $37 $-1 $18 #
shell $-1 $-1 $-1 $38 $-1 $20 #
shell $-1 $-1 $-1 $39 $-1 $22 #
face $-1 $40 $41 $24 $-1 $42 forward single #
face $-1 $43 $44 $25 $-1 $45 forward single #
face $-1 $46 $47 $26 $-1 $48 reversed single #
face $-1 $49 $50 $27 $-1 $51 forward single #
face $-1 $52 $53 $28 $-1 $54 forward single #
face $-1 $55 $56 $29 $-1 $57 reversed single #
face $-1 $58 $59 $30 $-1 $60 forward single #
face $-1 $61 $62 $31 $-1 $63 forward single #
face $-1 $64 $65 $24 $-1 $66 reversed single #
loop $-1 $-1 $67 $32 #
plane-surface $-1 0 0 6.7337358314880165 0 0 1 1 0 0 forward_v I I I I #
face $-1 $68 $69 $25 $-1 $70 forward single #
loop $-1 $-1 $71 $33 #
plane-surface $-1 -57.803277687917721 0 0 1 0 0 0 0 -1 forward_v I I I I #
face $-1 $72 $73 $26 $-1 $74 reversed single #
loop $-1 $-1 $75 $34 #
plane-surface $-1 -16.940094024727408 57.631766966412542 122.11198924907052 1 0 0 0 -0.61566148304635926 -0.78801074757464917 forward_v I I I I #
face $-1 $76 $77 $27 $-1 $78 forward single #
loop $-1 $79 $80 $35 #
cone-surface $-1 -12.735579248318729 18.735728373821953 2.1123315985570423 0 -0.61566148304635926 -0.78801074757464917 1.5 0 0 1 I I 0 1 1.5 forward I I I I #
face $-1 $81 $82 $28 $-1 $83 forward single #
loop $-1 $84 $85 $36 #
cone-surface $-1 -6.4288070837057063 18.735728373821953 2.1123315985570423 0 -0.61566148304635926 -0.78801074757464917 1.5 0 0 1 I I 0 1 1.5 forward I I I I #
face $-1 $86 $87 $29 $-1 $88 reversed single #
loop $-1 $-1 $89 $37 #
plane-surface $-1 44.797507708989365 -23.510817704199127 1.3872035893592738 0 -0.85716730853699208 0.51503806187062418 1 0 0 forward_v I I I I #
face $-1 $90 $91 $30 $-1 $92 forward single #
loop $-1 $93 $94 $38 #
cone-surface $-1 39.223606289448647 -21.151969130390228 3.6082690585033728 0 0.85716730853699208 -0.51503806187062418 1.5 0 0 1 I I 0 1 1.5 forward I I I I #
face $-1 $95 $96 $31 $-1 $97 forward single #
loop $-1 $98 $99 $39 #
cone-surface $-1 50.371409128530097 -21.151969130390228 3.6082690585033728 0 0.85716730853699208 -0.51503806187062418 1.5 0 0 1 I I 0 1 1.5 forward I I I I #
face $-1 $100 $101 $24 $-1 $102 reversed single #
loop $-1 $-1 $103 $40 #
plane-surface $-1 0 0 -6.7337358314880165 0 0 1 1 0 0 forward_v I I I I #
coedge $-1 $104 $105 $106 $107 forward $41 $-1 #
face $-1 $108 $109 $25 $-1 $110 reversed single #
loop $-1 $-1 $111 $43 #
plane-surface $-1 0 0 6.7337358314880165 0 0 1 1 0 0 forward_v I I I I #
coedge $-1 $112 $113 $114 $115 forward $44 $-1 #
face $-1 $116 $117 $26 $-1 $118 reversed single #
loop $-1 $-1 $119 $46 #
plane-surface $-1 -9.5821931660122175 -13.542736366155367 31.012781122828358 0 0.61566148304635926 0.78801074757464917 1 0 0 forward_v I I I I #
coedge $-1 $120 $121 $122 $123 reversed $47 $-1 #
face $-1 $-1 $124 $27 $-1 $125 forward single #
loop $-1 $126 $127 $49 #
cone-surface $-1 -12.735579248318729 16.487789850985603 -0.76489844532526963 0 -0.61566148304635926 -0.78801074757464917 0.75 0 0 1 I I -0.70710678118654757 0.70710678118654757 0.75 forward I I I I #
loop $-1 $-1 $128 $35 #
coedge $-1 $80 $80 $129 $130 reversed $50 $-1 #
face $-1 $-1 $131 $28 $-1 $132 forward single #
loop $-1 $133 $134 $52 #
cone-surface $-1 -6.4288070837057063 16.487789850985603 -0.76489844532526963 0 -0.61566148304635926 -0.78801074757464917 0.75 0 0 1 I I -0.70710678118654757 0.70710678118654757 0.75 forward I I I I #
loop $-1 $-1 $135 $36 #
coedge $-1 $85 $85 $136 $137 reversed $53 $-1 #
face $-1 $138 $139 $29 $-1 $140 reversed single #
loop $-1 $-1 $141 $55 #
plane-surface $-1 31.791737730061008 -122.60497762493672 60.928979809668547 1 0 0 0 0.85716730853699208 -0.51503806187062418 forward_v I I I I #
coedge $-1 $142 $143 $144 $145 reversed $56 $-1 #
face $-1 $-1 $146 $30 $-1 $147 forward single #
loop $-1 $148 $149 $58 #
cone-surface $-1 39.223606289448647 -19.756505356158485 2.7697898601801354 0 0.85716730853699208 -0.51503806187062418 0.75 0 0 1 I I -0.70710678118654757 0.70710678118654757 0.75 forward I I I I #
loop $-1 $-1 $150 $38 #
coedge $-1 $94 $94 $151 $152 reversed $59 $-1 #
face $-1 $-1 $153 $31 $-1 $154 forward single #
loop $-1 $155 $156 $61 #
cone-surface $-1 50.371409128530097 -19.756505356158485 2.7697898601801354 0 0.85716730853699208 -0.51503806187062418 0.75 0 0 1 I I -0.70710678118654757 0.70710678118654757 0.75 forward I I I I #
loop $-1 $-1 $157 $39 #
coedge $-1 $99 $99 $158 $159 reversed $62 $-1 #
face $-1 $160 $161 $24 $-1 $162 reversed single #
loop $-1 $-1 $163 $64 #
plane-surface $-1 0 -23.510817704199109 0 0 1 0 0 0 1 forward_v I I I I #
coedge $-1 $164 $165 $166 $167 forward $65 $-1 #
coedge $-1 $168 $67 $169 $170 forward $41 $-1 #
coedge $-1 $67 $168 $171 $172 forward $41 $-1 #
coedge $-1 $173 $174 $67 $107 reversed $175 $-1 #
edge $-1 $176 -23.510817704199109 $177 23.510817704199109 $106 $178 forward 7 unknown #
face $-1 $179 $180 $25 $-1 $181 reversed single #
loop $-1 $-1 $182 $68 #
plane-surface $-1 -64.619210841646975 -22.010817704199109 0 1 0 0 0 0 -1 forward_v I I I I #
coedge $-1 $183 $184 $112 $185 forward $69 $-1 #
coedge $-1 $186 $71 $111 $185 reversed $44 $-1 #
coedge $-1 $71 $186 $187 $188 reversed $44 $-1 #
coedge $-1 $189 $190 $71 $115 reversed $180 $-1 #
edge $-1 $191 -6.7337358314880165 $192 6.7337358314880165 $114 $193 forward 7 unknown #
face $-1 $194 $195 $26 $-1 $196 forward single #
loop $-1 $-1 $197 $72 #
plane-surface $-1 -2.2242923072970271 57.631766966412542 122.11198924907052 -1 0 0 0 0.61566148304635926 0.78801074757464917 forward_v I I I I #
coedge $-1 $198 $199 $200 $201 reversed $73 $-1 #
coedge $-1 $121 $75 $202 $203 reversed $47 $-1 #
coedge $-1 $75 $120 $198 $204 reversed $47 $-1 #
coedge $-1 $200 $205 $75 $123 forward $195 $-1 #
edge $-1 $206 5.3050657790071618 $207 11.282859618658332 $122 $208 forward 7 unknown #
loop $-1 $-1 $129 $76 #
plane-surface $-1 -9.5821931660122175 -13.542736366155367 31.012781122828358 0 0.61566148304635926 0.78801074757464917 1 0 0 forward_v I I I I #
loop $-1 $-1 $209 $49 #
coedge $-1 $127 $127 $128 $210 reversed $77 $-1 #
coedge $-1 $128 $128 $127 $210 forward $79 $-1 #
coedge $-1 $129 $129 $80 $130 forward $124 $-1 #
edge $-1 $211 8.7320462051347708e-017 $211 6.2831853071796004 $129 $212 forward 7 unknown #
loop $-1 $-1 $136 $81 #
plane-surface $-1 -9.5821931660122175 -13.542736366155367 31.012781122828358 0 0.61566148304635926 0.78801074757464917 1 0 0 forward_v I I I I #
loop $-1 $-1 $213 $52 #
coedge $-1 $134 $134 $135 $214 reversed $82 $-1 #
coedge $-1 $135 $135 $134 $214 forward $84 $-1 #
coedge $-1 $136 $136 $85 $137 forward $131 $-1 #
edge $-1 $215 8.7320462051347708e-017 $215 6.2831853071796004 $136 $216 forward 7 unknown #
face $-1 $217 $218 $29 $-1 $219 forward single #
loop $-1 $-1 $220 $86 #
plane-surface $-1 0 -23.510817704199109 0 0 1 0 0 0 1 forward_v I I I I #
coedge $-1 $221 $222 $223 $224 reversed $87 $-1 #
coedge $-1 $225 $89 $226 $227 reversed $56 $-1 #
coedge $-1 $89 $225 $221 $228 forward $56 $-1 #
coedge $-1 $223 $229 $89 $145 forward $218 $-1 #
edge $-1 $230 -35.404523833423042 $231 -9.3929838755663262 $144 $232 forward 7 unknown #
loop $-1 $-1 $151 $90 #
plane-surface $-1 44.797507708989365 -23.510817704199127 1.3872035893592738 0 -0.85716730853699208 0.51503806187062418 1 0 0 forward_v I I I I #
loop $-1 $-1 $233 $58 #
coedge $-1 $149 $149 $150 $234 reversed $91 $-1 #
coedge $-1 $150 $150 $149 $234 forward $93 $-1 #
coedge $-1 $151 $151 $94 $152 forward $146 $-1 #
edge $-1 $235 -1.2111193307581884e-015 $235 6.2831853071795996 $151 $236 forward 7 unknown #
loop $-1 $-1 $158 $95 #
plane-surface $-1 44.797507708989365 -23.510817704199127 1.3872035893592738 0 -0.85716730853699208 0.51503806187062418 1 0 0 forward_v I I I I #
loop $-1 $-1 $237 $61 #
coedge $-1 $156 $156 $157 $238 reversed $96 $-1 #
coedge $-1 $157 $157 $156 $238 forward $98 $-1 #
coedge $-1 $158 $158 $99 $159 forward $153 $-1 #
edge $-1 $239 -1.2111193307581884e-015 $239 6.2831853071795996 $158 $240 forward 7 unknown #
face $-1 $241 $242 $24 $-1 $243 reversed single #
loop $-1 $-1 $244 $100 #
plane-surface $-1 -57.803277687917721 0 0 1 0 0 0 0 -1 forward_v I I I I #
coedge $-1 $245 $171 $246 $247 forward $101 $-1 #
coedge $-1 $248 $103 $245 $249 forward $65 $-1 #
coedge $-1 $103 $248 $250 $251 forward $65 $-1 #
coedge $-1 $174 $173 $103 $167 reversed $175 $-1 #
edge $-1 $252 -23.510817704199109 $253 23.510817704199109 $166 $254 forward 7 unknown #
coedge $-1 $105 $104 $255 $256 forward $41 $-1 #
coedge $-1 $257 $258 $104 $170 reversed $242 $-1 #
edge $-1 $177 -57.803277687917721 $259 57.803277687917721 $169 $260 forward 7 unknown #
coedge $-1 $163 $261 $105 $172 reversed $101 $-1 #
edge $-1 $262 -57.803277687917721 $176 57.803277687917721 $171 $263 forward 7 unknown #
coedge $-1 $166 $106 $261 $264 forward $175 $-1 #
coedge $-1 $106 $166 $257 $265 reversed $175 $-1 #
loop $-1 $-1 $173 $241 #
vertex $-1 $107 $266 #
vertex $-1 $107 $267 #
straight-curve $-1 57.803277687917721 0 6.7337358314880165 0 1 0 I I #
face $-1 $268 $269 $25 $-1 $270 reversed single #
loop $-1 $-1 $114 $108 #
plane-surface $-1 -61.211244264782344 -20.510817704199109 0 0 -1 0 0 0 -1 forward_v I I I I #
coedge $-1 $271 $272 $273 $274 forward $109 $-1 #
coedge $-1 $275 $111 $190 $276 forward $69 $-1 #
coedge $-1 $111 $275 $277 $278 forward $69 $-1 #
edge $-1 $279 -23.510817704199109 $192 -20.510817704199109 $111 $280 forward 7 unknown #
coedge $-1 $113 $112 $281 $282 reversed $44 $-1 #
coedge $-1 $283 $284 $113 $188 forward $269 $-1 #
edge $-1 $191 20.510817704199109 $285 23.510817704199109 $187 $286 forward 7 unknown #
coedge $-1 $273 $114 $284 $287 reversed $180 $-1 #
coedge $-1 $114 $273 $183 $276 reversed $180 $-1 #
vertex $-1 $188 $288 #
vertex $-1 $276 $289 #
straight-curve $-1 -57.803277687917721 -20.510817704199109 0 0 0 1 I I #
face $-1 $-1 $290 $26 $-1 $291 reversed single #
loop $-1 $-1 $122 $116 #
plane-surface $-1 0 0 6.7337358314880165 0 0 1 1 0 0 forward_v I I I I #
coedge $-1 $292 $293 $294 $295 reversed $117 $-1 #
coedge $-1 $296 $119 $121 $204 forward $73 $-1 #
coedge $-1 $119 $296 $292 $297 forward $73 $-1 #
coedge $-1 $294 $122 $119 $201 forward $195 $-1 #
edge $-1 $207 -12.148997441721299 $298 2.5668042757090817 $200 $299 forward 7 unknown #
coedge $-1 $300 $301 $120 $203 forward $290 $-1 #
edge $-1 $302 -58.992623292506551 $206 -54.32225879304724 $202 $303 forward 7 unknown #
edge $-1 $207 39.435706081863387 $302 47.021635408398225 $121 $304 forward 7 unknown #
coedge $-1 $122 $294 $300 $305 forward $195 $-1 #
vertex $-1 $203 $306 #
vertex $-1 $123 $307 #
straight-curve $-1 -16.940094024727408 28.815883483206271 6.7337358314880191 0 -1 0 I I #
coedge $-1 $209 $209 $-1 $308 reversed $126 $-1 #
edge $-1 $309 0 $309 6.2831853071796004 $127 $310 forward 7 unknown #
vertex $-1 $130 $311 #
ellipse-curve $-1 -12.735579248318729 20.521920784373528 4.3985535817583585 0 0.61566148304635926 0.78801074757464917 1.5 0 0 1 I I #
coedge $-1 $213 $213 $-1 $312 reversed $133 $-1 #
edge $-1 $313 0 $313 6.2831853071796004 $134 $314 forward 7 unknown #
vertex $-1 $137 $315 #
ellipse-curve $-1 -6.4288070837057063 20.521920784373528 4.3985535817583585 0 0.61566148304635926 0.78801074757464917 1.5 0 0 1 I I #
face $-1 $-1 $316 $29 $-1 $317 reversed single #
loop $-1 $-1 $223 $138 #
plane-surface $-1 0 0 6.7337358314880165 0 0 1 1 0 0 forward_v I I I I #
coedge $-1 $318 $319 $222 $320 forward $139 $-1 #
coedge $-1 $222 $141 $143 $228 reversed $87 $-1 #
coedge $-1 $141 $221 $220 $320 reversed $87 $-1 #
coedge $-1 $321 $144 $141 $224 forward $218 $-1 #
edge $-1 $231 -41.004191670228991 $322 -37.791671108269256 $223 $323 forward 7 unknown #
coedge $-1 $143 $142 $318 $324 reversed $56 $-1 #
coedge $-1 $325 $326 $142 $227 forward $316 $-1 #
edge $-1 $327 -5.4599502081401328 $230 0.77749280780285956 $226 $328 forward 7 unknown #
edge $-1 $329 3.4462720895926933e-014 $231 6.2374430159430272 $221 $330 forward 7 unknown #
coedge $-1 $144 $321 $325 $331 forward $218 $-1 #
vertex $-1 $227 $332 #
vertex $-1 $145 $333 #
straight-curve $-1 22.398753854494682 -20.298297142239367 6.7337358314880165 -1 0 0 I I #
coedge $-1 $233 $233 $-1 $334 reversed $148 $-1 #
edge $-1 $335 0 $335 6.2831853071796004 $149 $336 forward 7 unknown #
vertex $-1 $152 $337 #
ellipse-curve $-1 39.223606289448647 -21.904557423219245 4.0604697104236518 0 -0.85716730853699208 0.51503806187062418 1.5 0 0 1 I I #
coedge $-1 $237 $237 $-1 $338 reversed $155 $-1 #
edge $-1 $339 0 $339 6.2831853071796004 $156 $340 forward 7 unknown #
vertex $-1 $159 $341 #
ellipse-curve $-1 50.371409128530097 -21.904557423219245 4.0604697104236518 0 -0.85716730853699208 0.51503806187062418 1.5 0 0 1 I I #
face $-1 $-1 $175 $24 $-1 $342 reversed single #
loop $-1 $-1 $257 $160 #
plane-surface $-1 0 23.510817704199109 0 0 -1 0 0 0 -1 forward_v I I I I #
coedge $-1 $343 $255 $258 $344 forward $161 $-1 #
coedge $-1 $261 $163 $164 $249 reversed $101 $-1 #
coedge $-1 $255 $343 $163 $247 reversed $161 $-1 #
edge $-1 $262 -6.7337358314880165 $345 6.7337358314880165 $246 $346 forward 7 unknown #
coedge $-1 $165 $164 $343 $347 forward $65 $-1 #
edge $-1 $253 -57.803277687917721 $345 57.803277687917721 $245 $348 forward 7 unknown #
coedge $-1 $258 $257 $165 $251 reversed $242 $-1 #
edge $-1 $349 -57.803277687917721 $252 57.803277687917721 $250 $350 forward 7 unknown #
vertex $-1 $167 $351 #
vertex $-1 $264 $352 #
straight-curve $-1 57.803277687917721 0 -6.7337358314880165 0 -1 0 I I #
coedge $-1 $244 $246 $168 $256 reversed $161 $-1 #
edge $-1 $259 -23.510817704199109 $262 23.510817704199109 $255 $353 forward 7 unknown #
coedge $-1 $250 $169 $174 $265 forward $242 $-1 #
coedge $-1 $169 $250 $244 $344 reversed $242 $-1 #
vertex $-1 $170 $354 #
straight-curve $-1 0 23.510817704199109 6.7337358314880165 -1 0 0 I I #
coedge $-1 $171 $245 $173 $264 reversed $101 $-1 #
vertex $-1 $256 $355 #
straight-curve $-1 0 -23.510817704199109 6.7337358314880165 1 0 0 I I #
edge $-1 $176 -6.7337358314880165 $253 6.7337358314880165 $173 $356 forward 7 unknown #
edge $-1 $177 -6.7337358314880165 $252 6.7337358314880165 $174 $357 forward 7 unknown #
point $-1 57.803277687917721 -23.510817704199109 6.7337358314880165 #
point $-1 57.803277687917721 23.510817704199109 6.7337358314880165 #
face $-1 $-1 $358 $25 $-1 $359 reversed single #
loop $-1 $-1 $187 $179 #
plane-surface $-1 0 0 -6.7337358314880165 0 0 1 1 0 0 forward_v I I I I #
coedge $-1 $360 $182 $361 $362 reversed $109 $-1 #
coedge $-1 $182 $360 $275 $363 reversed $109 $-1 #
coedge $-1 $190 $189 $182 $274 reversed $180 $-1 #
edge $-1 $364 -6.7337358314880165 $365 6.7337358314880165 $273 $366 forward 7 unknown #
coedge $-1 $184 $183 $272 $363 forward $69 $-1 #
edge $-1 $192 -3.4079665768646237 $364 3.4079665768646308 $190 $367 forward 7 unknown #
coedge $-1 $368 $281 $184 $278 reversed $358 $-1 #
edge $-1 $369 -64.619210841646975 $279 -57.803277687917721 $277 $370 forward 7 unknown #
vertex $-1 $282 $371 #
straight-curve $-1 -57.803277687917721 0 6.7337358314880165 0 1 0 I I #
coedge $-1 $277 $372 $186 $282 forward $358 $-1 #
edge $-1 $285 -6.7337358314880165 $279 6.7337358314880165 $281 $373 forward 7 unknown #
coedge $-1 $361 $187 $372 $374 forward $269 $-1 #
coedge $-1 $187 $361 $189 $287 forward $269 $-1 #
vertex $-1 $374 $375 #
straight-curve $-1 -57.803277687917721 0 -6.7337358314880165 0 -1 0 I I #
edge $-1 $365 -3.4079665768646308 $191 3.4079665768646237 $189 $376 forward 7 unknown #
point $-1 -57.803277687917721 -20.510817704199109 -6.7337358314880165 #
point $-1 -57.803277687917721 -20.510817704199109 6.7337358314880165 #
loop $-1 $-1 $202 $194 #
plane-surface $-1 0 23.510817704199109 0 0 -1 0 0 0 -1 forward_v I I I I #
coedge $-1 $293 $197 $199 $297 reversed $117 $-1 #
coedge $-1 $197 $292 $377 $378 reversed $117 $-1 #
coedge $-1 $205 $200 $197 $295 forward $195 $-1 #
edge $-1 $298 -11.282859618658332 $379 -5.3050657790071618 $294 $380 forward 7 unknown #
coedge $-1 $199 $198 $301 $381 reversed $73 $-1 #
edge $-1 $382 -47.021635408398225 $298 -39.435706081863387 $292 $383 forward 7 unknown #
vertex $-1 $201 $384 #
straight-curve $-1 -4.7910965830061087 17.533023864547946 6.7337358314880156 1 0 0 I I #
coedge $-1 $377 $202 $205 $305 reversed $290 $-1 #
coedge $-1 $202 $377 $296 $381 forward $290 $-1 #
vertex $-1 $203 $385 #
straight-curve $-1 -16.940094024727408 23.510817704199109 61.055994624535259 0 0 1 I I #
straight-curve $-1 -16.940094024727408 -13.542736366155367 31.012781122828358 0 0.78801074757464917 -0.61566148304635926 I I #
edge $-1 $379 2.2242923072970271 $206 16.940094024727408 $300 $386 forward 7 unknown #
point $-1 -16.940094024727408 23.510817704199109 6.7337358314880165 #
point $-1 -16.940094024727408 17.533023864547939 6.7337358314880156 #
edge $-1 $387 1 $387 0 $209 $-1 forward 7 unknown #
vertex $-1 $210 $388 #
ellipse-curve $-1 -12.735579248318729 16.949535963270371 -0.17389038464428275 0 0.61566148304635926 0.78801074757464917 1.5 0 0 1 I I #
point $-1 -11.235579248318729 20.521920784373535 4.3985535817583674 #
edge $-1 $389 1 $389 0 $213 $-1 forward 7 unknown #
vertex $-1 $214 $390 #
ellipse-curve $-1 -6.4288070837057063 16.949535963270371 -0.17389038464428275 0 0.61566148304635926 0.78801074757464917 1.5 0 0 1 I I #
point $-1 -4.9288070837057063 20.521920784373535 4.3985535817583674 #
loop $-1 $-1 $226 $217 #
plane-surface $-1 57.803277687917721 0 0 -1 0 0 0 0 1 forward_v I I I I #
coedge $-1 $391 $220 $225 $324 forward $139 $-1 #
coedge $-1 $220 $391 $321 $392 reversed $139 $-1 #
edge $-1 $322 23.730754073346258 $329 29.077286315474971 $220 $393 forward 7 unknown #
coedge $-1 $229 $223 $319 $392 forward $218 $-1 #
vertex $-1 $392 $394 #
straight-curve $-1 31.791737730061008 -61.302488812468361 6.7337358314880156 0 -1 0 I I #
edge $-1 $329 9.3929838755663262 $327 35.404523833423042 $318 $395 forward 7 unknown #
coedge $-1 $326 $226 $229 $331 reversed $316 $-1 #
coedge $-1 $226 $325 $391 $396 forward $316 $-1 #
vertex $-1 $324 $397 #
straight-curve $-1 57.803277687917721 -20.698735531088502 6.0672944140167688 0 0.51503806187062429 0.85716730853699219 I I #
vertex $-1 $324 $398 #
straight-curve $-1 31.791737730061008 -23.510817704199127 1.3872035893592738 0 0.51503806187062418 0.85716730853699208 I I #
edge $-1 $399 -23.510817704199109 $230 -20.29829714223937 $325 $400 forward 7 unknown #
point $-1 57.803277687917721 -20.29829714223937 6.7337358314880165 #
point $-1 31.791737730061008 -20.29829714223937 6.7337358314880165 #
edge $-1 $401 1 $401 0 $233 $-1 forward 7 unknown #
vertex $-1 $234 $402 #
ellipse-curve $-1 39.223606289448647 -20.399380837561228 3.1560684065831035 0 -0.85716730853699208 0.51503806187062418 1.5 0 0 1 I I #
point $-1 40.723606289448647 -21.904557423219231 4.0604697104236411 #
edge $-1 $403 1 $403 0 $237 $-1 forward 7 unknown #
vertex $-1 $238 $404 #
ellipse-curve $-1 50.371409128530097 -20.399380837561228 3.1560684065831035 0 -0.85716730853699208 0.51503806187062418 1.5 0 0 1 I I #
point $-1 51.871409128530097 -21.904557423219231 4.0604697104236411 #
plane-surface $-1 57.803277687917721 0 0 -1 0 0 0 0 1 forward_v I I I I #
coedge $-1 $246 $244 $248 $347 reversed $161 $-1 #
edge $-1 $259 -6.7337358314880165 $349 6.7337358314880165 $258 $405 forward 7 unknown #
vertex $-1 $347 $406 #
straight-curve $-1 -57.803277687917721 -23.510817704199109 0 0 0 -1 I I #
edge $-1 $345 -23.510817704199109 $349 23.510817704199109 $343 $407 forward 7 unknown #
straight-curve $-1 0 -23.510817704199109 -6.7337358314880165 -1 0 0 I I #
vertex $-1 $251 $408 #
straight-curve $-1 0 23.510817704199109 -6.7337358314880165 1 0 0 I I #
point $-1 57.803277687917721 23.510817704199109 -6.7337358314880165 #
point $-1 57.803277687917721 -23.510817704199109 -6.7337358314880165 #
straight-curve $-1 -57.803277687917721 0 6.7337358314880165 0 -1 0 I I #
point $-1 -57.803277687917721 23.510817704199109 6.7337358314880165 #
point $-1 -57.803277687917721 -23.510817704199109 6.7337358314880165 #
straight-curve $-1 57.803277687917721 -23.510817704199109 0 0 0 -1 I I #
straight-curve $-1 57.803277687917721 23.510817704199109 0 0 0 -1 I I #
loop $-1 $-1 $281 $268 #
plane-surface $-1 0 -23.510817704199109 0 0 1 0 0 0 1 forward_v I I I I #
coedge $-1 $272 $271 $368 $409 reversed $109 $-1 #
coedge $-1 $284 $283 $271 $362 forward $269 $-1 #
edge $-1 $410 -1.5 $365 1.5 $271 $411 forward 7 unknown #
edge $-1 $364 -1.5 $369 1.5 $272 $412 forward 7 unknown #
vertex $-1 $276 $413 #
vertex $-1 $287 $414 #
straight-curve $-1 -64.619210841646975 -20.510817704199109 0 0 0 -1 I I #
straight-curve $-1 -61.211244264782344 -20.510817704199109 6.7337358314880165 -1 0 0 I I #
coedge $-1 $372 $277 $360 $409 forward $358 $-1 #
vertex $-1 $363 $415 #
straight-curve $-1 0 -23.510817704199109 6.7337358314880165 1 0 0 I I #
point $-1 -57.803277687917721 -23.510817704199109 6.7337358314880165 #
coedge $-1 $281 $368 $283 $374 reversed $358 $-1 #
straight-curve $-1 -57.803277687917721 -23.510817704199109 0 0 0 1 I I #
edge $-1 $285 -3.4079665768646237 $410 3.4079665768646308 $372 $416 forward 7 unknown #
point $-1 -57.803277687917721 -23.510817704199109 -6.7337358314880165 #
straight-curve $-1 -61.211244264782344 -20.510817704199109 -6.7337358314880165 1 0 0 I I #
coedge $-1 $301 $300 $293 $378 forward $290 $-1 #
edge $-1 $379 54.32225879304724 $382 58.992623292506551 $377 $417 forward 7 unknown #
vertex $-1 $305 $418 #
straight-curve $-1 -2.2242923072970271 28.815883483206271 6.7337358314880191 0 1 0 I I #
edge $-1 $382 -2.5668042757090817 $302 12.148997441721299 $301 $419 forward 7 unknown #
vertex $-1 $381 $420 #
straight-curve $-1 -2.2242923072970271 -13.542736366155367 31.012781122828358 0 -0.78801074757464917 0.61566148304635926 I I #
point $-1 -2.2242923072970271 17.533023864547939 6.7337358314880156 #
point $-1 -16.940094024727408 23.510817704199113 2.0633713320287086 #
straight-curve $-1 0 23.510817704199109 6.7337358314880165 -1 0 0 I I #
vertex $-1 $308 $421 #
point $-1 -11.235579248318729 16.949535963270371 -0.17389038464428275 #
vertex $-1 $312 $422 #
point $-1 -4.9288070837057063 16.949535963270371 -0.17389038464428275 #
coedge $-1 $319 $318 $326 $396 reversed $139 $-1 #
edge $-1 $322 31.791737730061008 $399 57.803277687917721 $319 $423 forward 7 unknown #
straight-curve $-1 31.791737730061008 -23.510817704199113 30.464489904834274 0 0 -1 I I #
point $-1 31.791737730061008 -23.510817704199109 6.7337358314880165 #
straight-curve $-1 22.398753854494682 -23.510817704199109 1.3872035893593075 1 0 0 I I #
edge $-1 $399 -6.7337358314880165 $327 -1.3872035893593033 $326 $424 forward 7 unknown #
point $-1 57.803277687917721 -23.510817704199109 1.3872035893593033 #
point $-1 31.791737730061008 -23.510817704199109 1.3872035893593033 #
vertex $-1 $331 $425 #
straight-curve $-1 57.803277687917721 0 6.7337358314880165 0 1 0 I I #
vertex $-1 $334 $426 #
point $-1 40.723606289448647 -20.399380837561228 3.1560684065831035 #
vertex $-1 $338 $427 #
point $-1 51.871409128530097 -20.399380837561228 3.1560684065831035 #
straight-curve $-1 -57.803277687917721 23.510817704199109 0 0 0 -1 I I #
point $-1 -57.803277687917721 -23.510817704199109 -6.7337358314880165 #
straight-curve $-1 -57.803277687917721 0 -6.7337358314880165 0 1 0 I I #
point $-1 -57.803277687917721 23.510817704199109 -6.7337358314880165 #
edge $-1 $369 -6.7337358314880165 $410 6.7337358314880165 $360 $428 forward 7 unknown #
vertex $-1 $362 $429 #
straight-curve $-1 -64.619210841646975 -22.010817704199109 -6.7337358314880165 0 1 0 I I #
straight-curve $-1 -64.619210841646975 -22.010817704199109 6.7337358314880165 0 -1 0 I I #
point $-1 -64.619210841646975 -20.510817704199109 6.7337358314880165 #
point $-1 -64.619210841646975 -20.510817704199109 -6.7337358314880165 #
point $-1 -64.619210841646975 -23.510817704199109 6.7337358314880165 #
straight-curve $-1 -61.211244264782344 -23.510817704199109 -6.7337358314880165 -1 0 0 I I #
straight-curve $-1 -2.2242923072970271 23.510817704199109 61.055994624535259 0 0 -1 I I #
point $-1 -2.2242923072970271 23.510817704199109 6.7337358314880165 #
straight-curve $-1 -4.7910965830061087 23.510817704199113 2.0633713320287104 -1 0 0 I I #
point $-1 -2.2242923072970271 23.510817704199113 2.0633713320287086 #
point $-1 -12.735579248318729 16.026043738700835 -1.3559065060062565 #
point $-1 -6.4288070837057063 16.026043738700835 -1.3559065060062565 #
straight-curve $-1 0 -23.510817704199109 6.7337358314880165 1 0 0 I I #
straight-curve $-1 57.803277687917721 -23.510817704199109 0 0 0 -1 I I #
point $-1 57.803277687917721 -23.510817704199109 6.7337358314880165 #
point $-1 39.223606289448647 -19.113629874755741 2.3835113137771673 #
point $-1 50.371409128530097 -19.113629874755741 2.3835113137771673 #
straight-curve $-1 -64.619210841646975 -23.510817704199109 0 0 0 -1 I I #
point $-1 -64.619210841646975 -23.510817704199109 -6.7337358314880165 #
End-of-ACIS-data 