500 0 9 0           
7 Unknown 11 ACIS 5.0 NT 24 Thu Mar 25 18:50:32 1999 
-1 9.9999999999999995e-007 1e-010 
body $-1 $9 $-1 $10 #
body $-1 $11 $-1 $12 #
body $-1 $13 $-1 $14 #
body $-1 $15 $-1 $16 #
body $-1 $17 $-1 $18 #
body $-1 $19 $-1 $20 #
body $-1 $21 $-1 $22 #
body $-1 $23 $-1 $24 #
body $-1 $25 $-1 $26 #
lump $-1 $-1 $27 $0 #
transform $-1 1 0 0 0 1 0 0 0 1 53.92986846522416 28.119669048591607 11.891581226216285 1 rotate no_reflect no_shear #
lump $-1 $-1 $28 $1 #
transform $-1 1 0 0 0 1 0 0 0 1 53.92986846522416 28.119669048591607 11.891581226216285 1 rotate no_reflect no_shear #
lump $-1 $-1 $29 $2 #
transform $-1 1 0 0 0 1 0 0 0 1 53.92986846522416 28.119669048591607 11.891581226216285 1 rotate no_reflect no_shear #
lump $-1 $-1 $30 $3 #
transform $-1 1 0 0 0 1 0 0 0 1 53.92986846522416 28.119669048591607 11.891581226216285 1 rotate no_reflect no_shear #
lump $-1 $-1 $31 $4 #
transform $-1 1 0 0 0 1 0 0 0 1 53.92986846522416 28.119669048591607 11.891581226216285 1 rotate no_reflect no_shear #
lump $-1 $-1 $32 $5 #
transform $-1 1 0 0 0 1 0 0 0 1 53.92986846522416 28.119669048591607 11.891581226216285 1 rotate no_reflect no_shear #
lump $-1 $-1 $33 $6 #
transform $-1 1 0 0 0 1 0 0 0 1 53.92986846522416 28.119669048591607 11.891581226216285 1 rotate no_reflect no_shear #
lump $-1 $-1 $34 $7 #
transform $-1 1 0 0 0 1 0 0 0 1 53.92986846522416 28.119669048591607 11.891581226216285 1 rotate no_reflect no_shear #
lump $-1 $-1 $35 $8 #
transform $-1 1 0 0 0 1 0 0 0 1 53.92986846522416 28.119669048591607 11.891581226216285 1 rotate no_reflect no_shear #
shell $-1 $-1 $-1 $36 $-1 $9 #
shell $-1 $-1 $-1 $37 $-1 $11 #
shell $-1 $-1 $-1 $38 $-1 $13 #
shell $-1 $-1 $-1 $39 $-1 $15 #
shell $-1 $-1 $-1 $40 $-1 $17 #
shell $-1 $-1 $-1 $41 $-1 $19 #
shell $-1 $-1 $-1 $42 $-1 $21 #
shell $-1 $-1 $-1 $43 $-1 $23 #
shell $-1 $-1 $-1 $44 $-1 $25 #
face $-1 $45 $46 $27 $-1 $47 forward single #
face $-1 $48 $49 $28 $-1 $50 forward single #
face $-1 $51 $52 $29 $-1 $53 reversed single #
face $-1 $54 $55 $30 $-1 $56 reversed single #
face $-1 $57 $58 $31 $-1 $59 forward single #
face $-1 $60 $61 $32 $-1 $62 forward single #
face $-1 $63 $64 $33 $-1 $65 reversed single #
face $-1 $66 $67 $34 $-1 $68 forward single #
face $-1 $69 $70 $35 $-1 $71 forward single #
face $-1 $72 $73 $27 $-1 $74 reversed single #
loop $-1 $-1 $75 $36 #
plane-surface $-1 0 0 11.891581226216285 0 0 1 1 0 0 forward_v I I I I #
face $-1 $76 $77 $28 $-1 $78 forward single #
loop $-1 $-1 $79 $37 #
plane-surface $-1 0 -28.119669048591607 0 0 1 0 0 0 1 forward_v I I I I #
face $-1 $80 $81 $29 $-1 $82 reversed single #
loop $-1 $-1 $83 $38 #
plane-surface $-1 0 23.692808646750319 6.5566826287974003 0 0 1 1 0 0 forward_v I I I I #
face $-1 $84 $85 $30 $-1 $86 reversed single #
loop $-1 $-1 $87 $39 #
plane-surface $-1 -111.08682165448823 -16.428321625462349 98.30194820577654 0 1 0 -0.52991927123019833 0 0.84804809178421925 forward_v I I I I #
face $-1 $88 $89 $31 $-1 $90 forward single #
loop $-1 $91 $92 $40 #
cone-surface $-1 -49.616160882300761 -14.616942716603447 8.9376186279970202 0.52991927123019833 0 -0.84804809178421925 0.42402404589210962 0 0.26495963561509916 1 I I 0 1 0.5 forward I I I I #
face $-1 $93 $94 $32 $-1 $95 forward single #
loop $-1 $96 $97 $41 #
cone-surface $-1 -49.616160882300761 -11.899874353315095 8.9376186279970202 0.52991927123019833 0 -0.84804809178421925 0.42402404589210962 0 0.26495963561509916 1 I I 0 1 0.5 forward I I I I #
face $-1 $98 $99 $33 $-1 $100 reversed single #
loop $-1 $-1 $101 $42 #
plane-surface $-1 75.15887646843106 -2.4714598652355075 154.53618867495194 0 -1 0 -0.79863551827123203 0 -0.60181501223851219 forward_v I I I I #
face $-1 $102 $103 $34 $-1 $104 forward single #
loop $-1 $105 $106 $43 #
cone-surface $-1 50.362753364156369 -7.310584832914504 7.3868645420209624 -0.79863551827123203 0 -0.60181501223851219 0.15045375305962805 0 -0.19965887956780801 1 I I 0 1 0.25 forward I I I I #
face $-1 $107 $108 $35 $-1 $109 forward single #
loop $-1 $110 $111 $44 #
cone-surface $-1 50.362753364156369 -4.4071098523071051 7.3868645420209624 -0.79863551827123203 0 -0.60181501223851219 0.15045375305962805 0 -0.19965887956780801 1 I I 0 1 0.25 forward I I I I #
face $-1 $112 $113 $27 $-1 $114 reversed single #
loop $-1 $-1 $115 $45 #
plane-surface $-1 0 0 -11.891581226216285 0 0 1 1 0 0 forward_v I I I I #
coedge $-1 $116 $117 $118 $119 forward $46 $-1 #
face $-1 $120 $121 $28 $-1 $122 reversed single #
loop $-1 $-1 $123 $48 #
plane-surface $-1 0 0 11.891581226216285 0 0 1 1 0 0 forward_v I I I I #
coedge $-1 $124 $125 $126 $127 forward $49 $-1 #
face $-1 $128 $129 $29 $-1 $130 reversed single #
loop $-1 $-1 $131 $51 #
plane-surface $-1 0 19.265948244909033 9.2241319275068427 0 1 0 0 0 1 forward_v I I I I #
coedge $-1 $132 $133 $134 $135 reversed $52 $-1 #
face $-1 $136 $137 $30 $-1 $138 reversed single #
loop $-1 $-1 $139 $54 #
plane-surface $-1 -53.929868465224146 -13.258408534959273 6.8317041215619554 -0.52991927123019833 0 0.84804809178421925 0.84804809178421925 0 0.52991927123019833 forward_v I I I I #
coedge $-1 $140 $141 $142 $143 reversed $55 $-1 #
face $-1 $-1 $144 $31 $-1 $145 forward single #
loop $-1 $146 $147 $57 #
cone-surface $-1 -49.218721428878112 -14.616942716603447 8.3015825591588559 0.52991927123019833 0 -0.84804809178421925 0.21201202294605481 0 0.13247981780754958 1 I I -0.70710678118654746 0.70710678118654746 0.25 forward I I I I #
loop $-1 $-1 $148 $40 #
coedge $-1 $92 $92 $149 $150 reversed $58 $-1 #
face $-1 $-1 $151 $32 $-1 $152 forward single #
loop $-1 $153 $154 $60 #
cone-surface $-1 -49.218721428878112 -11.899874353315095 8.3015825591588559 0.52991927123019833 0 -0.84804809178421925 0.21201202294605481 0 0.13247981780754958 1 I I -0.70710678118654746 0.70710678118654746 0.25 forward I I I I #
loop $-1 $-1 $155 $41 #
coedge $-1 $97 $97 $156 $157 reversed $61 $-1 #
face $-1 $158 $159 $33 $-1 $160 reversed single #
loop $-1 $-1 $161 $63 #
plane-surface $-1 -10.981740435616274 -5.8588473426108045 89.624579774111481 0.79863551827123203 0 0.60181501223851219 0.60181501223851219 0 -0.79863551827123203 forward_v I I I I #
coedge $-1 $162 $163 $164 $165 reversed $64 $-1 #
face $-1 $-1 $166 $34 $-1 $167 forward single #
loop $-1 $168 $169 $66 #
cone-surface $-1 49.863606165236845 -7.310584832914504 7.0107301593718923 -0.79863551827123203 0 -0.60181501223851219 0.075226876529814024 0 -0.099829439783904003 1 I I -0.70710678118654746 0.70710678118654746 0.125 forward I I I I #
loop $-1 $-1 $170 $43 #
coedge $-1 $106 $106 $171 $172 reversed $67 $-1 #
face $-1 $-1 $173 $35 $-1 $174 forward single #
loop $-1 $175 $176 $69 #
cone-surface $-1 49.863606165236845 -4.4071098523071051 7.0107301593718923 -0.79863551827123203 0 -0.60181501223851219 0.075226876529814024 0 -0.099829439783904003 1 I I -0.70710678118654746 0.70710678118654746 0.125 forward I I I I #
loop $-1 $-1 $177 $44 #
coedge $-1 $111 $111 $178 $179 reversed $70 $-1 #
face $-1 $180 $181 $27 $-1 $182 reversed single #
loop $-1 $-1 $183 $72 #
plane-surface $-1 0 -28.119669048591607 0 0 1 0 0 0 1 forward_v I I I I #
coedge $-1 $184 $185 $186 $187 forward $73 $-1 #
coedge $-1 $188 $75 $189 $190 forward $46 $-1 #
coedge $-1 $75 $188 $191 $192 forward $46 $-1 #
coedge $-1 $193 $194 $75 $119 reversed $195 $-1 #
edge $-1 $196 -28.119669048591607 $197 28.119669048591607 $118 $198 forward 7 unknown #
face $-1 $199 $200 $28 $-1 $201 reversed single #
loop $-1 $-1 $202 $76 #
plane-surface $-1 -53.92986846522416 0 0 1 0 0 0 0 -1 forward_v I I I I #
coedge $-1 $203 $204 $205 $206 forward $77 $-1 #
coedge $-1 $205 $79 $202 $207 reversed $49 $-1 #
coedge $-1 $79 $205 $208 $209 reversed $49 $-1 #
coedge $-1 $210 $211 $79 $127 reversed $200 $-1 #
edge $-1 $212 -53.92986846522416 $213 53.92986846522416 $126 $214 forward 7 unknown #
face $-1 $215 $216 $29 $-1 $217 reversed single #
loop $-1 $-1 $218 $80 #
plane-surface $-1 53.92986846522416 0 0 -1 0 0 0 0 1 forward_v I I I I #
coedge $-1 $219 $220 $221 $222 reversed $81 $-1 #
coedge $-1 $223 $83 $219 $224 forward $52 $-1 #
coedge $-1 $83 $223 $225 $226 reversed $52 $-1 #
coedge $-1 $227 $218 $83 $135 forward $129 $-1 #
edge $-1 $228 7.4195439215338741 $229 16.273264725216443 $134 $230 forward 7 unknown #
face $-1 $231 $232 $30 $-1 $233 forward single #
loop $-1 $-1 $234 $84 #
plane-surface $-1 -111.08682165448823 -10.088495444456196 98.30194820577654 0 -1 0 0.52991927123019833 0 -0.84804809178421925 forward_v I I I I #
coedge $-1 $235 $236 $237 $238 reversed $85 $-1 #
coedge $-1 $141 $87 $239 $240 reversed $55 $-1 #
coedge $-1 $87 $140 $235 $241 reversed $55 $-1 #
coedge $-1 $237 $242 $87 $143 forward $232 $-1 #
edge $-1 $243 1.613542362019956 $244 9.7110382566365985 $142 $245 forward 7 unknown #
loop $-1 $-1 $149 $88 #
plane-surface $-1 -53.929868465224146 -13.258408534959273 6.8317041215619554 -0.52991927123019833 0 0.84804809178421925 0.84804809178421925 0 0.52991927123019833 forward_v I I I I #
loop $-1 $-1 $246 $57 #
coedge $-1 $147 $147 $148 $247 reversed $89 $-1 #
coedge $-1 $148 $148 $147 $247 forward $91 $-1 #
coedge $-1 $149 $149 $92 $150 forward $144 $-1 #
edge $-1 $248 0 $248 6.2831853071796004 $149 $249 forward 7 unknown #
loop $-1 $-1 $156 $93 #
plane-surface $-1 -53.929868465224146 -13.258408534959273 6.8317041215619554 -0.52991927123019833 0 0.84804809178421925 0.84804809178421925 0 0.52991927123019833 forward_v I I I I #
loop $-1 $-1 $250 $60 #
coedge $-1 $154 $154 $155 $251 reversed $94 $-1 #
coedge $-1 $155 $155 $154 $251 forward $96 $-1 #
coedge $-1 $156 $156 $97 $157 forward $151 $-1 #
edge $-1 $252 0 $252 6.2831853071796004 $156 $253 forward 7 unknown #
face $-1 $254 $255 $33 $-1 $256 reversed single #
loop $-1 $-1 $257 $98 #
plane-surface $-1 75.15887646843106 -9.2462348199861015 154.53618867495194 0 1 0 0.79863551827123203 0 0.60181501223851219 forward_v I I I I #
coedge $-1 $258 $259 $260 $261 reversed $99 $-1 #
coedge $-1 $163 $101 $262 $263 reversed $64 $-1 #
coedge $-1 $101 $162 $258 $264 reversed $64 $-1 #
coedge $-1 $260 $265 $101 $165 forward $266 $-1 #
edge $-1 $267 -16.35043023100863 $268 -10.014835547144337 $164 $269 forward 7 unknown #
loop $-1 $-1 $171 $102 #
plane-surface $-1 -10.981740435616274 -5.8588473426108045 89.624579774111481 0.79863551827123203 0 0.60181501223851219 0.60181501223851219 0 -0.79863551827123203 forward_v I I I I #
loop $-1 $-1 $270 $66 #
coedge $-1 $169 $169 $170 $271 reversed $103 $-1 #
coedge $-1 $170 $170 $169 $271 forward $105 $-1 #
coedge $-1 $171 $171 $106 $172 forward $166 $-1 #
edge $-1 $272 0 $272 6.2831853071796004 $171 $273 forward 7 unknown #
loop $-1 $-1 $178 $107 #
plane-surface $-1 -10.981740435616274 -5.8588473426108045 89.624579774111481 0.79863551827123203 0 0.60181501223851219 0.60181501223851219 0 -0.79863551827123203 forward_v I I I I #
loop $-1 $-1 $274 $69 #
coedge $-1 $176 $176 $177 $275 reversed $108 $-1 #
coedge $-1 $177 $177 $176 $275 forward $110 $-1 #
coedge $-1 $178 $178 $111 $179 forward $173 $-1 #
edge $-1 $276 0 $276 6.2831853071796004 $178 $277 forward 7 unknown #
face $-1 $278 $279 $27 $-1 $280 reversed single #
loop $-1 $-1 $281 $112 #
plane-surface $-1 -53.92986846522416 0 0 1 0 0 0 0 -1 forward_v I I I I #
coedge $-1 $282 $191 $283 $284 forward $113 $-1 #
coedge $-1 $285 $115 $282 $286 forward $73 $-1 #
coedge $-1 $115 $285 $287 $288 forward $73 $-1 #
coedge $-1 $194 $193 $115 $187 reversed $195 $-1 #
edge $-1 $289 -28.119669048591607 $290 28.119669048591607 $186 $291 forward 7 unknown #
coedge $-1 $117 $116 $292 $293 forward $46 $-1 #
coedge $-1 $294 $295 $116 $190 reversed $279 $-1 #
edge $-1 $197 -53.92986846522416 $296 53.92986846522416 $189 $297 forward 7 unknown #
coedge $-1 $183 $298 $117 $192 reversed $113 $-1 #
edge $-1 $299 -53.92986846522416 $196 53.92986846522416 $191 $300 forward 7 unknown #
coedge $-1 $186 $118 $298 $301 forward $195 $-1 #
coedge $-1 $118 $186 $294 $302 reversed $195 $-1 #
loop $-1 $-1 $193 $278 #
vertex $-1 $119 $303 #
vertex $-1 $119 $304 #
straight-curve $-1 53.92986846522416 0 11.891581226216285 0 1 0 I I #
face $-1 $305 $306 $28 $-1 $307 reversed single #
loop $-1 $-1 $210 $120 #
plane-surface $-1 0 -33.96534276015624 6.0827178141534439 0 0 1 1 0 0 forward_v I I I I #
coedge $-1 $308 $309 $124 $207 forward $121 $-1 #
coedge $-1 $310 $123 $309 $311 forward $77 $-1 #
coedge $-1 $123 $310 $312 $313 forward $77 $-1 #
coedge $-1 $125 $124 $123 $206 reversed $49 $-1 #
edge $-1 $314 -53.92986846522416 $315 53.92986846522416 $123 $316 forward 7 unknown #
edge $-1 $315 -11.891581226216285 $213 -6.0827178141534439 $202 $317 forward 7 unknown #
coedge $-1 $312 $318 $125 $209 forward $319 $-1 #
edge $-1 $212 6.0827178141534439 $314 11.891581226216285 $208 $320 forward 7 unknown #
coedge $-1 $321 $126 $318 $322 forward $200 $-1 #
coedge $-1 $126 $321 $308 $323 forward $200 $-1 #
vertex $-1 $209 $324 #
vertex $-1 $207 $325 #
straight-curve $-1 0 -28.119669048591607 6.0827178141534439 -1 0 0 I I #
face $-1 $326 $327 $29 $-1 $328 forward single #
loop $-1 $-1 $225 $128 #
plane-surface $-1 0 28.119669048591607 0 0 -1 0 0 0 -1 forward_v I I I I #
coedge $-1 $134 $329 $330 $331 forward $129 $-1 #
coedge $-1 $330 $131 $132 $224 reversed $81 $-1 #
coedge $-1 $131 $330 $332 $333 reversed $81 $-1 #
coedge $-1 $334 $335 $131 $222 forward $336 $-1 #
edge $-1 $337 1.9446166650439789 $338 7.2795152624628638 $221 $339 forward 7 unknown #
coedge $-1 $133 $132 $335 $340 reversed $52 $-1 #
edge $-1 $228 -53.92986846522416 $337 53.92986846522416 $219 $341 forward 7 unknown #
coedge $-1 $342 $343 $133 $226 forward $216 $-1 #
edge $-1 $229 -53.92986846522416 $344 53.92986846522416 $225 $345 forward 7 unknown #
coedge $-1 $329 $134 $343 $346 reversed $129 $-1 #
vertex $-1 $135 $347 #
vertex $-1 $226 $348 #
straight-curve $-1 53.92986846522416 11.846404323375159 6.5566826287974003 0 1 0 I I #
face $-1 $-1 $349 $30 $-1 $350 reversed single #
loop $-1 $-1 $142 $136 #
plane-surface $-1 0 0 11.891581226216285 0 0 1 1 0 0 forward_v I I I I #
coedge $-1 $351 $352 $353 $354 reversed $137 $-1 #
coedge $-1 $355 $139 $141 $241 forward $85 $-1 #
coedge $-1 $139 $355 $351 $356 forward $85 $-1 #
coedge $-1 $353 $142 $139 $238 forward $232 $-1 #
edge $-1 $244 -9.7991173579827127 $357 -3.45929117697656 $237 $358 forward 7 unknown #
coedge $-1 $359 $360 $140 $240 forward $349 $-1 #
edge $-1 $361 -42.319269981326322 $243 -37.259392876671981 $239 $362 forward 7 unknown #
edge $-1 $244 -9.5483923294729696 $361 1.675811683274863e-014 $141 $363 forward 7 unknown #
coedge $-1 $142 $353 $359 $364 forward $232 $-1 #
vertex $-1 $240 $365 #
vertex $-1 $143 $366 #
straight-curve $-1 -55.543410827244116 -16.428321625462349 11.891581226216289 1 0 0 I I #
coedge $-1 $246 $246 $-1 $367 reversed $146 $-1 #
edge $-1 $368 0 $368 6.2831853071796004 $147 $369 forward 7 unknown #
vertex $-1 $150 $370 #
ellipse-curve $-1 -49.881120517915846 -14.616942716603447 9.3616426738891114 -0.52991927123019833 0 0.84804809178421925 0.42402404589210962 0 0.26495963561509916 1 I I #
coedge $-1 $250 $250 $-1 $371 reversed $153 $-1 #
edge $-1 $372 0 $372 6.2831853071796004 $154 $373 forward 7 unknown #
vertex $-1 $157 $374 #
ellipse-curve $-1 -49.881120517915846 -11.899874353315095 9.3616426738891114 -0.52991927123019833 0 0.84804809178421925 0.42402404589210962 0 0.26495963561509916 1 I I #
face $-1 $-1 $266 $33 $-1 $375 forward single #
loop $-1 $-1 $376 $158 #
plane-surface $-1 53.92986846522416 0 0 -1 0 0 0 0 1 forward_v I I I I #
coedge $-1 $377 $378 $379 $380 reversed $159 $-1 #
coedge $-1 $381 $161 $163 $264 forward $99 $-1 #
coedge $-1 $161 $381 $377 $382 forward $99 $-1 #
coedge $-1 $379 $164 $161 $261 forward $266 $-1 #
edge $-1 $268 -0.45796380606989473 $383 6.3168111486806993 $260 $384 forward 7 unknown #
coedge $-1 $385 $386 $162 $263 forward $255 $-1 #
edge $-1 $387 -73.784131467411797 $267 -65.376513111259683 $262 $388 forward 7 unknown #
edge $-1 $268 97.332258294947962 $387 107.85973693044826 $163 $389 forward 7 unknown #
coedge $-1 $164 $379 $385 $390 forward $266 $-1 #
loop $-1 $-1 $379 $254 #
vertex $-1 $263 $391 #
vertex $-1 $165 $392 #
straight-curve $-1 37.57943823421553 -2.4714598652355075 11.891581226216289 -1 0 0 I I #
coedge $-1 $270 $270 $-1 $393 reversed $168 $-1 #
edge $-1 $394 0 $394 6.2831853071796004 $169 $395 forward 7 unknown #
vertex $-1 $172 $396 #
ellipse-curve $-1 50.76207112329201 -7.310584832914504 7.6877720481402401 0.79863551827123203 0 0.60181501223851219 0.15045375305962805 0 -0.19965887956780801 1 I I #
coedge $-1 $274 $274 $-1 $397 reversed $175 $-1 #
edge $-1 $398 0 $398 6.2831853071796004 $176 $399 forward 7 unknown #
vertex $-1 $179 $400 #
ellipse-curve $-1 50.76207112329201 -4.4071098523071051 7.6877720481402401 0.79863551827123203 0 0.60181501223851219 0.15045375305962805 0 -0.19965887956780801 1 I I #
face $-1 $-1 $195 $27 $-1 $401 reversed single #
loop $-1 $-1 $294 $180 #
plane-surface $-1 0 28.119669048591607 0 0 -1 0 0 0 -1 forward_v I I I I #
coedge $-1 $402 $292 $295 $403 forward $181 $-1 #
coedge $-1 $298 $183 $184 $286 reversed $113 $-1 #
coedge $-1 $292 $402 $183 $284 reversed $181 $-1 #
edge $-1 $299 -11.891581226216285 $404 11.891581226216285 $283 $405 forward 7 unknown #
coedge $-1 $185 $184 $402 $406 forward $73 $-1 #
edge $-1 $290 -53.92986846522416 $404 53.92986846522416 $282 $407 forward 7 unknown #
coedge $-1 $295 $294 $185 $288 reversed $279 $-1 #
edge $-1 $408 -53.92986846522416 $289 53.92986846522416 $287 $409 forward 7 unknown #
vertex $-1 $187 $410 #
vertex $-1 $301 $411 #
straight-curve $-1 53.92986846522416 0 -11.891581226216285 0 -1 0 I I #
coedge $-1 $281 $283 $188 $293 reversed $181 $-1 #
edge $-1 $296 -28.119669048591607 $299 28.119669048591607 $292 $412 forward 7 unknown #
coedge $-1 $287 $189 $194 $302 forward $279 $-1 #
coedge $-1 $189 $287 $281 $403 reversed $279 $-1 #
vertex $-1 $190 $413 #
straight-curve $-1 0 28.119669048591607 11.891581226216285 -1 0 0 I I #
coedge $-1 $191 $282 $193 $301 reversed $113 $-1 #
vertex $-1 $293 $414 #
straight-curve $-1 0 -28.119669048591607 11.891581226216285 1 0 0 I I #
edge $-1 $196 -11.891581226216285 $290 11.891581226216285 $193 $415 forward 7 unknown #
edge $-1 $197 -11.891581226216285 $289 11.891581226216285 $194 $416 forward 7 unknown #
point $-1 53.92986846522416 -28.119669048591607 11.891581226216285 #
point $-1 53.92986846522416 28.119669048591607 11.891581226216285 #
face $-1 $-1 $319 $28 $-1 $417 reversed single #
loop $-1 $-1 $418 $199 #
plane-surface $-1 0 -39.811016471720869 8.9871495201848646 0 1 0 0 0 1 forward_v I I I I #
coedge $-1 $419 $202 $211 $323 reversed $121 $-1 #
coedge $-1 $202 $419 $203 $311 reversed $121 $-1 #
coedge $-1 $204 $203 $420 $421 forward $77 $-1 #
edge $-1 $315 28.119669048591607 $422 39.811016471720869 $309 $423 forward 7 unknown #
coedge $-1 $424 $208 $204 $313 reversed $319 $-1 #
edge $-1 $425 -39.811016471720869 $314 -28.119669048591607 $312 $426 forward 7 unknown #
vertex $-1 $209 $427 #
vertex $-1 $311 $428 #
straight-curve $-1 0 -28.119669048591607 11.891581226216285 -1 0 0 I I #
straight-curve $-1 -53.92986846522416 -28.119669048591607 0 0 0 -1 I I #
coedge $-1 $208 $424 $210 $322 reversed $319 $-1 #
loop $-1 $-1 $208 $305 #
straight-curve $-1 53.92986846522416 -28.119669048591607 0 0 0 1 I I #
coedge $-1 $211 $210 $429 $430 forward $200 $-1 #
edge $-1 $212 -5.8456737115646291 $431 5.8456737115646291 $318 $432 forward 7 unknown #
edge $-1 $433 -5.8456737115646291 $213 5.8456737115646291 $308 $434 forward 7 unknown #
point $-1 53.92986846522416 -28.119669048591611 6.0827178141534439 #
point $-1 -53.92986846522416 -28.119669048591611 6.0827178141534439 #
face $-1 $-1 $336 $29 $-1 $435 reversed single #
loop $-1 $-1 $332 $215 #
plane-surface $-1 0 0 11.891581226216285 0 0 1 1 0 0 forward_v I I I I #
coedge $-1 $218 $227 $436 $437 reversed $129 $-1 #
coedge $-1 $220 $219 $218 $331 reversed $81 $-1 #
edge $-1 $438 -7.2795152624628638 $228 -1.9446166650439789 $218 $439 forward 7 unknown #
coedge $-1 $436 $440 $220 $333 forward $327 $-1 #
edge $-1 $338 -53.92986846522416 $438 53.92986846522416 $332 $441 forward 7 unknown #
coedge $-1 $442 $221 $440 $443 reversed $336 $-1 #
coedge $-1 $221 $442 $223 $340 forward $336 $-1 #
loop $-1 $-1 $221 $326 #
vertex $-1 $340 $444 #
vertex $-1 $222 $445 #
straight-curve $-1 -53.92986846522416 19.265948244909033 4.6120659637534214 0 0 1 I I #
edge $-1 $344 -16.273264725216443 $337 -7.4195439215338741 $335 $446 forward 7 unknown #
straight-curve $-1 0 19.265948244909033 6.5566826287974003 -1 0 0 I I #
coedge $-1 $447 $225 $442 $448 reversed $216 $-1 #
coedge $-1 $225 $447 $227 $346 forward $216 $-1 #
vertex $-1 $226 $449 #
straight-curve $-1 0 28.119669048591607 6.5566826287974003 -1 0 0 I I #
edge $-1 $450 -11.891581226216285 $229 -6.5566826287974003 $227 $451 forward 7 unknown #
point $-1 53.92986846522416 19.265948244909033 6.5566826287974003 #
point $-1 53.92986846522416 28.119669048591604 6.5566826287974003 #
loop $-1 $-1 $239 $231 #
plane-surface $-1 -53.92986846522416 0 0 1 0 0 0 0 -1 forward_v I I I I #
coedge $-1 $352 $234 $236 $356 reversed $137 $-1 #
coedge $-1 $234 $351 $452 $453 reversed $137 $-1 #
coedge $-1 $242 $237 $234 $354 forward $232 $-1 #
edge $-1 $357 -9.7110382566365985 $454 -1.613542362019956 $353 $455 forward 7 unknown #
coedge $-1 $236 $235 $360 $456 reversed $85 $-1 #
edge $-1 $457 -1.675811683274863e-014 $357 9.5483923294729696 $351 $458 forward 7 unknown #
vertex $-1 $238 $459 #
straight-curve $-1 -45.832372570607525 -6.6292042674796363 11.891581226216285 0 1 0 I I #
coedge $-1 $452 $239 $242 $364 reversed $349 $-1 #
coedge $-1 $239 $452 $355 $456 forward $349 $-1 #
vertex $-1 $240 $460 #
straight-curve $-1 -53.92986846522416 -16.428321625462349 49.15097410288827 0 0 1 I I #
straight-curve $-1 -53.929868465224146 -16.428321625462349 6.8317041215619554 -0.84804809178421925 0 -0.52991927123019833 I I #
edge $-1 $454 10.088495444456196 $243 16.428321625462349 $359 $461 forward 7 unknown #
point $-1 -53.92986846522416 -16.428321625462349 11.891581226216285 #
point $-1 -45.832372570607518 -16.428321625462349 11.891581226216285 #
edge $-1 $462 1 $462 0 $246 $-1 forward 7 unknown #
vertex $-1 $247 $463 #
ellipse-curve $-1 -49.351201246685662 -14.616942716603447 8.5135945821049113 -0.52991927123019833 0 0.84804809178421925 0.42402404589210962 0 0.26495963561509916 1 I I #
point $-1 -49.45709647202375 -14.616942716603447 9.6266023095042286 #
edge $-1 $464 1 $464 0 $250 $-1 forward 7 unknown #
vertex $-1 $251 $465 #
ellipse-curve $-1 -49.351201246685662 -11.899874353315095 8.5135945821049113 -0.52991927123019833 0 0.84804809178421925 0.42402404589210962 0 0.26495963561509916 1 I I #
point $-1 -49.45709647202375 -11.899874353315095 9.6266023095042286 #
plane-surface $-1 0 0 11.891581226216285 0 0 1 1 0 0 forward_v I I I I #
coedge $-1 $386 $385 $378 $466 forward $255 $-1 #
coedge $-1 $378 $257 $259 $382 reversed $159 $-1 #
coedge $-1 $257 $377 $376 $466 reversed $159 $-1 #
coedge $-1 $265 $260 $257 $380 forward $266 $-1 #
edge $-1 $383 10.014835547144337 $467 16.35043023100863 $379 $468 forward 7 unknown #
coedge $-1 $259 $258 $386 $469 reversed $99 $-1 #
edge $-1 $470 -107.85973693044826 $383 -97.332258294947962 $377 $471 forward 7 unknown #
vertex $-1 $261 $472 #
straight-curve $-1 47.594273781359867 -2.9294236713054023 11.891581226216289 0 -1 0 I I #
coedge $-1 $376 $262 $265 $390 reversed $255 $-1 #
coedge $-1 $262 $376 $381 $469 forward $255 $-1 #
vertex $-1 $263 $473 #
straight-curve $-1 53.92986846522416 -2.4714598652355075 77.268094337475972 0 0 1 I I #
straight-curve $-1 -10.981740435616274 -2.4714598652355075 89.624579774111481 0.60181501223851219 0 -0.79863551827123203 I I #
edge $-1 $467 -9.2462348199861015 $267 -2.4714598652355075 $385 $474 forward 7 unknown #
point $-1 53.92986846522416 -2.4714598652355075 11.891581226216285 #
point $-1 47.594273781359867 -2.4714598652355075 11.891581226216289 #
edge $-1 $475 1 $475 0 $270 $-1 forward 7 unknown #
vertex $-1 $271 $476 #
ellipse-curve $-1 49.963435605020749 -7.310584832914504 7.0859570359017061 0.79863551827123203 0 0.60181501223851219 0.15045375305962805 0 -0.19965887956780801 1 I I #
point $-1 50.912524876351611 -7.310584832914504 7.4881131685724105 #
edge $-1 $477 1 $477 0 $274 $-1 forward 7 unknown #
vertex $-1 $275 $478 #
ellipse-curve $-1 49.963435605020749 -4.4071098523071051 7.0859570359017061 0.79863551827123203 0 0.60181501223851219 0.15045375305962805 0 -0.19965887956780801 1 I I #
point $-1 50.912524876351611 -4.4071098523071051 7.4881131685724105 #
plane-surface $-1 53.92986846522416 0 0 -1 0 0 0 0 1 forward_v I I I I #
coedge $-1 $283 $281 $285 $406 reversed $181 $-1 #
edge $-1 $296 -11.891581226216285 $408 11.891581226216285 $295 $479 forward 7 unknown #
vertex $-1 $406 $480 #
straight-curve $-1 -53.92986846522416 -28.119669048591607 0 0 0 -1 I I #
edge $-1 $404 -28.119669048591607 $408 28.119669048591607 $402 $481 forward 7 unknown #
straight-curve $-1 0 -28.119669048591607 -11.891581226216285 -1 0 0 I I #
vertex $-1 $288 $482 #
straight-curve $-1 0 28.119669048591607 -11.891581226216285 1 0 0 I I #
point $-1 53.92986846522416 28.119669048591607 -11.891581226216285 #
point $-1 53.92986846522416 -28.119669048591607 -11.891581226216285 #
straight-curve $-1 -53.92986846522416 0 11.891581226216285 0 -1 0 I I #
point $-1 -53.92986846522416 28.119669048591607 11.891581226216285 #
point $-1 -53.92986846522416 -28.119669048591607 11.891581226216285 #
straight-curve $-1 53.92986846522416 -28.119669048591607 0 0 0 -1 I I #
straight-curve $-1 53.92986846522416 28.119669048591607 0 0 0 -1 I I #
plane-surface $-1 53.92986846522416 0 0 -1 0 0 0 0 1 forward_v I I I I #
coedge $-1 $429 $420 $419 $483 forward $306 $-1 #
coedge $-1 $309 $308 $418 $483 reversed $121 $-1 #
coedge $-1 $418 $484 $310 $421 reversed $306 $-1 #
edge $-1 $422 -53.92986846522416 $425 53.92986846522416 $420 $485 forward 7 unknown #
vertex $-1 $311 $486 #
straight-curve $-1 -53.92986846522416 0 11.891581226216285 0 -1 0 I I #
coedge $-1 $318 $312 $484 $487 forward $319 $-1 #
vertex $-1 $313 $488 #
straight-curve $-1 53.92986846522416 0 11.891581226216285 0 1 0 I I #
point $-1 53.92986846522416 -28.119669048591607 11.891581226216285 #
point $-1 -53.92986846522416 -28.119669048591607 11.891581226216285 #
coedge $-1 $484 $418 $321 $430 reversed $306 $-1 #
edge $-1 $431 -53.92986846522416 $433 53.92986846522416 $429 $489 forward 7 unknown #
vertex $-1 $487 $490 #
straight-curve $-1 53.92986846522416 -33.96534276015624 6.0827178141534439 0 -1 0 I I #
vertex $-1 $323 $491 #
straight-curve $-1 -53.92986846522416 -33.96534276015624 6.0827178141534439 0 1 0 I I #
plane-surface $-1 -53.92986846522416 0 0 1 0 0 0 0 -1 forward_v I I I I #
coedge $-1 $492 $332 $329 $437 forward $327 $-1 #
edge $-1 $438 19.265948244909033 $450 28.119669048591607 $329 $493 forward 7 unknown #
vertex $-1 $437 $494 #
straight-curve $-1 53.92986846522416 19.265948244909033 4.6120659637534214 0 0 -1 I I #
coedge $-1 $332 $492 $334 $443 forward $327 $-1 #
straight-curve $-1 0 19.265948244909033 11.891581226216285 1 0 0 I I #
coedge $-1 $335 $334 $342 $448 forward $336 $-1 #
edge $-1 $495 -28.119669048591607 $338 -19.265948244909033 $334 $496 forward 7 unknown #
point $-1 -53.92986846522416 19.265948244909033 6.5566826287974003 #
point $-1 -53.92986846522416 19.265948244909033 11.891581226216285 #
straight-curve $-1 -53.92986846522416 11.846404323375159 6.5566826287974003 0 -1 0 I I #
coedge $-1 $343 $342 $492 $497 reversed $216 $-1 #
edge $-1 $495 -11.891581226216285 $344 -6.5566826287974003 $342 $498 forward 7 unknown #
point $-1 -53.92986846522416 28.119669048591604 6.5566826287974003 #
vertex $-1 $437 $499 #
straight-curve $-1 53.92986846522416 28.119669048591607 0 0 0 -1 I I #
coedge $-1 $360 $359 $352 $453 forward $349 $-1 #
edge $-1 $454 37.259392876671981 $457 42.319269981326322 $452 $500 forward 7 unknown #
vertex $-1 $364 $501 #
straight-curve $-1 -55.543410827244116 -10.088495444456196 11.891581226216289 -1 0 0 I I #
edge $-1 $457 3.45929117697656 $361 9.7991173579827127 $360 $502 forward 7 unknown #
vertex $-1 $456 $503 #
straight-curve $-1 -53.929868465224146 -10.088495444456196 6.8317041215619554 0.84804809178421925 0 0.52991927123019833 I I #
point $-1 -45.832372570607518 -10.088495444456196 11.891581226216285 #
point $-1 -53.92986846522416 -16.428321625462349 6.8317041215619465 #
straight-curve $-1 -53.92986846522416 0 11.891581226216285 0 -1 0 I I #
vertex $-1 $367 $504 #
point $-1 -48.927177200793551 -14.616942716603447 8.7785542177200107 #
vertex $-1 $371 $505 #
point $-1 -48.927177200793551 -11.899874353315095 8.7785542177200107 #
edge $-1 $467 65.376513111259683 $470 73.784131467411797 $376 $506 forward 7 unknown #
vertex $-1 $390 $507 #
straight-curve $-1 37.57943823421553 -9.2462348199861015 11.891581226216289 1 0 0 I I #
edge $-1 $470 -6.3168111486806993 $387 0.45796380606989473 $386 $508 forward 7 unknown #
vertex $-1 $469 $509 #
straight-curve $-1 -10.981740435616274 -9.2462348199861015 89.624579774111481 -0.60181501223851219 0 0.79863551827123203 I I #
point $-1 47.594273781359867 -9.2462348199861015 11.891581226216289 #
point $-1 53.92986846522416 -2.4714598652355075 3.4839628700641754 #
straight-curve $-1 53.92986846522416 0 11.891581226216285 0 1 0 I I #
vertex $-1 $393 $510 #
point $-1 50.113889358080378 -7.310584832914504 6.8862981563338979 #
vertex $-1 $397 $511 #
point $-1 50.113889358080378 -4.4071098523071051 6.8862981563338979 #
straight-curve $-1 -53.92986846522416 28.119669048591607 0 0 0 -1 I I #
point $-1 -53.92986846522416 -28.119669048591607 -11.891581226216285 #
straight-curve $-1 -53.92986846522416 0 -11.891581226216285 0 1 0 I I #
point $-1 -53.92986846522416 28.119669048591607 -11.891581226216285 #
edge $-1 $422 -2.9044317060314206 $433 2.9044317060314206 $419 $512 forward 7 unknown #
coedge $-1 $420 $429 $424 $487 reversed $306 $-1 #
straight-curve $-1 0 -39.811016471720869 11.891581226216285 1 0 0 I I #
point $-1 -53.92986846522416 -39.811016471720869 11.891581226216285 #
edge $-1 $425 -2.9044317060314206 $431 2.9044317060314206 $424 $513 forward 7 unknown #
point $-1 53.92986846522416 -39.811016471720869 11.891581226216285 #
straight-curve $-1 0 -39.811016471720869 6.0827178141534439 -1 0 0 I I #
point $-1 53.92986846522416 -39.811016471720869 6.0827178141534439 #
point $-1 -53.92986846522416 -39.811016471720869 6.0827178141534439 #
coedge $-1 $440 $436 $447 $497 forward $327 $-1 #
straight-curve $-1 53.92986846522416 0 11.891581226216285 0 1 0 I I #
point $-1 53.92986846522416 19.265948244909033 11.891581226216285 #
vertex $-1 $497 $514 #
straight-curve $-1 -53.92986846522416 0 11.891581226216285 0 -1 0 I I #
edge $-1 $450 -53.92986846522416 $495 53.92986846522416 $447 $515 forward 7 unknown #
straight-curve $-1 -53.92986846522416 28.119669048591607 0 0 0 -1 I I #
point $-1 53.92986846522416 28.119669048591607 11.891581226216285 #
straight-curve $-1 -53.92986846522416 -10.088495444456196 49.15097410288827 0 0 -1 I I #
point $-1 -53.92986846522416 -10.088495444456196 11.891581226216285 #
straight-curve $-1 -53.92986846522416 -6.6292042674796363 6.8317041215619456 0 -1 0 I I #
point $-1 -53.92986846522416 -10.088495444456196 6.8317041215619465 #
point $-1 -49.086241611070562 -14.616942716603447 8.0895705362128005 #
point $-1 -49.086241611070562 -11.899874353315095 8.0895705362128005 #
straight-curve $-1 53.92986846522416 -9.2462348199861015 77.268094337475972 0 0 -1 I I #
point $-1 53.92986846522416 -9.2462348199861015 11.891581226216285 #
straight-curve $-1 53.92986846522416 -2.9294236713054023 3.4839628700641754 0 1 0 I I #
point $-1 53.92986846522416 -9.2462348199861015 3.4839628700641754 #
point $-1 49.763776725452942 -7.310584832914504 6.9355032828420784 #
point $-1 49.763776725452942 -4.4071098523071051 6.9355032828420784 #
straight-curve $-1 -53.92986846522416 -39.811016471720869 8.9871495201848646 0 0 -1 I I #
straight-curve $-1 53.92986846522416 -39.811016471720869 8.9871495201848646 0 0 -1 I I #
point $-1 -53.92986846522416 28.119669048591607 11.891581226216285 #
straight-curve $-1 0 28.119669048591607 11.891581226216285 -1 0 0 I I #
End-of-ACIS-data 