500 0 8 0           
7 Unknown 11 ACIS 5.0 NT 24 Fri Mar 26 17:21:32 1999 
-1 9.9999999999999995e-007 1e-010 
body $-1 $8 $-1 $9 #
body $-1 $10 $-1 $11 #
body $-1 $12 $-1 $13 #
body $-1 $14 $-1 $15 #
body $-1 $16 $-1 $17 #
body $-1 $18 $-1 $19 #
body $-1 $20 $-1 $21 #
body $-1 $22 $-1 $23 #
lump $-1 $-1 $24 $0 #
transform $-1 1 0 0 0 1 0 0 0 1 72.520523697622608 36.453918449157449 12.989329821008415 1 rotate no_reflect no_shear #
lump $-1 $-1 $25 $1 #
transform $-1 1 0 0 0 1 0 0 0 1 72.520523697622608 36.453918449157449 12.989329821008415 1 rotate no_reflect no_shear #
lump $-1 $-1 $26 $2 #
transform $-1 1 0 0 0 1 0 0 0 1 72.520523697622608 36.453918449157449 12.989329821008415 1 rotate no_reflect no_shear #
lump $-1 $-1 $27 $3 #
transform $-1 1 0 0 0 1 0 0 0 1 72.520523697622608 36.453918449157449 12.989329821008415 1 rotate no_reflect no_shear #
lump $-1 $-1 $28 $4 #
transform $-1 1 0 0 0 1 0 0 0 1 72.520523697622608 36.453918449157449 12.989329821008415 1 rotate no_reflect no_shear #
lump $-1 $-1 $29 $5 #
transform $-1 1 0 0 0 1 0 0 0 1 72.520523697622608 36.453918449157449 12.989329821008415 1 rotate no_reflect no_shear #
lump $-1 $-1 $30 $6 #
transform $-1 1 0 0 0 1 0 0 0 1 72.520523697622608 36.453918449157449 12.989329821008415 1 rotate no_reflect no_shear #
lump $-1 $-1 $31 $7 #
transform $-1 1 0 0 0 1 0 0 0 1 72.520523697622608 36.453918449157449 12.989329821008415 1 rotate no_reflect no_shear #
shell $-1 $-1 $-1 $32 $-1 $8 #
shell $-1 $-1 $-1 $33 $-1 $10 #
shell $-1 $-1 $-1 $34 $-1 $12 #
shell $-1 $-1 $-1 $35 $-1 $14 #
shell $-1 $-1 $-1 $36 $-1 $16 #
shell $-1 $-1 $-1 $37 $-1 $18 #
shell $-1 $-1 $-1 $38 $-1 $20 #
shell $-1 $-1 $-1 $39 $-1 $22 #
face $-1 $40 $41 $24 $-1 $42 forward single #
face $-1 $43 $44 $25 $-1 $45 reversed single #
face $-1 $46 $47 $26 $-1 $48 reversed single #
face $-1 $49 $50 $27 $-1 $51 forward single #
face $-1 $52 $53 $28 $-1 $54 forward single #
face $-1 $55 $56 $29 $-1 $57 reversed single #
face $-1 $58 $59 $30 $-1 $60 forward single #
face $-1 $61 $62 $31 $-1 $63 forward single #
face $-1 $64 $65 $24 $-1 $66 reversed single #
loop $-1 $-1 $67 $32 #
plane-surface $-1 0 0 12.989329821008415 0 0 1 1 0 0 forward_v I I I I #
face $-1 $68 $69 $25 $-1 $70 reversed single #
loop $-1 $-1 $71 $33 #
plane-surface $-1 -64.060330222455377 0 6.3741943964930261 0 0 1 1 0 0 forward_v I I I I #
face $-1 $72 $73 $26 $-1 $74 reversed single #
loop $-1 $-1 $75 $34 #
plane-surface $-1 -42.331376677101545 84.762389003050316 161.97697095213599 -1 0 0 0 0.69465837861970381 0.71933979245794832 forward_v I I I I #
face $-1 $76 $77 $27 $-1 $78 forward single #
loop $-1 $79 $80 $35 #
cone-surface $-1 -51.809062441520553 32.660685050734848 9.278008465224163 0 -0.69465837861970381 -0.71933979245794832 0.5 0 0 1 I I 0 1 0.5 forward I I I I #
face $-1 $81 $82 $28 $-1 $83 forward single #
loop $-1 $84 $85 $36 #
cone-surface $-1 -46.122450982869147 32.660685050734848 9.278008465224163 0 -0.69465837861970381 -0.71933979245794832 0.5 0 0 1 I I 0 1 0.5 forward I I I I #
face $-1 $86 $87 $29 $-1 $88 reversed single #
loop $-1 $-1 $89 $37 #
plane-surface $-1 62.05468410962645 -36.45391844915747 1.10724954710237 0 -0.6560590369687036 0.75470957328743171 1 0 0 forward_v I I I I #
face $-1 $90 $91 $30 $-1 $92 forward single #
loop $-1 $93 $94 $38 #
cone-surface $-1 57.569324286199517 -27.180310340561036 4.2422842352906311 0 0.6560590369687036 -0.75470957328743171 2.5 0 0 1 I I 0 1 2.5 forward I I I I #
face $-1 $95 $96 $31 $-1 $97 forward single #
loop $-1 $98 $99 $39 #
cone-surface $-1 66.540043933053383 -27.180310340561036 4.2422842352906311 0 0.6560590369687036 -0.75470957328743171 2.5 0 0 1 I I 0 1 2.5 forward I I I I #
face $-1 $100 $101 $24 $-1 $102 reversed single #
loop $-1 $-1 $103 $40 #
plane-surface $-1 0 0 -12.989329821008415 0 0 1 1 0 0 forward_v I I I I #
coedge $-1 $104 $105 $106 $107 forward $41 $-1 #
face $-1 $108 $109 $25 $-1 $110 reversed single #
loop $-1 $-1 $111 $43 #
plane-surface $-1 -55.600136747288147 0 9.6817621087507213 -1 0 0 0 0 1 forward_v I I I I #
coedge $-1 $112 $113 $114 $115 forward $44 $-1 #
face $-1 $116 $117 $26 $-1 $118 forward single #
loop $-1 $-1 $119 $46 #
plane-surface $-1 -48.965756712194846 -15.991589813834338 57.643174020956849 0 0.69465837861970381 0.71933979245794832 1 0 0 forward_v I I I I #
coedge $-1 $120 $121 $122 $123 reversed $47 $-1 #
face $-1 $-1 $124 $27 $-1 $125 forward single #
loop $-1 $126 $127 $49 #
cone-surface $-1 -51.809062441520553 31.796337065893432 8.3829499455778382 0 -0.69465837861970381 -0.71933979245794832 0.25 0 0 1 I I -0.70710678118654746 0.70710678118654746 0.25 forward I I I I #
loop $-1 $-1 $128 $35 #
coedge $-1 $80 $80 $129 $130 reversed $50 $-1 #
face $-1 $-1 $131 $28 $-1 $132 forward single #
loop $-1 $133 $134 $52 #
cone-surface $-1 -46.122450982869147 31.796337065893432 8.3829499455778382 0 -0.69465837861970381 -0.71933979245794832 0.25 0 0 1 I I -0.70710678118654746 0.70710678118654746 0.25 forward I I I I #
loop $-1 $-1 $135 $36 #
coedge $-1 $85 $85 $136 $137 reversed $53 $-1 #
face $-1 $138 $139 $29 $-1 $140 reversed single #
loop $-1 $-1 $141 $55 #
plane-surface $-1 51.588844521630286 -131.60940832421414 110.57111653593005 1 0 0 0 0.6560590369687036 -0.75470957328743171 forward_v I I I I #
coedge $-1 $142 $143 $144 $145 reversed $56 $-1 #
face $-1 $-1 $146 $30 $-1 $147 forward single #
loop $-1 $148 $149 $58 #
cone-surface $-1 57.569324286199517 -23.921013169420966 0.49289181991658992 0 0.6560590369687036 -0.75470957328743171 1.25 0 0 1 I I -0.70710678118654746 0.70710678118654746 1.25 forward I I I I #
loop $-1 $-1 $150 $38 #
coedge $-1 $94 $94 $151 $152 reversed $59 $-1 #
face $-1 $-1 $153 $31 $-1 $154 forward single #
loop $-1 $155 $156 $61 #
cone-surface $-1 66.540043933053383 -23.921013169420966 0.49289181991658992 0 0.6560590369687036 -0.75470957328743171 1.25 0 0 1 I I -0.70710678118654746 0.70710678118654746 1.25 forward I I I I #
loop $-1 $-1 $157 $39 #
coedge $-1 $99 $99 $158 $159 reversed $62 $-1 #
face $-1 $160 $161 $24 $-1 $162 reversed single #
loop $-1 $-1 $163 $64 #
plane-surface $-1 0 -36.453918449157449 0 0 1 0 0 0 1 forward_v I I I I #
coedge $-1 $164 $165 $166 $167 forward $65 $-1 #
coedge $-1 $168 $67 $169 $170 forward $41 $-1 #
coedge $-1 $67 $168 $171 $172 forward $41 $-1 #
coedge $-1 $173 $174 $67 $107 reversed $175 $-1 #
edge $-1 $176 -36.453918449157449 $177 36.453918449157449 $106 $178 forward 7 unknown #
face $-1 $179 $180 $25 $-1 $181 reversed single #
loop $-1 $-1 $182 $68 #
plane-surface $-1 0 36.453918449157449 0 0 -1 0 0 0 -1 forward_v I I I I #
coedge $-1 $183 $184 $185 $186 reversed $69 $-1 #
coedge $-1 $187 $71 $188 $189 reversed $44 $-1 #
coedge $-1 $71 $187 $190 $191 reversed $44 $-1 #
coedge $-1 $184 $183 $71 $115 reversed $69 $-1 #
edge $-1 $192 -36.453918449157449 $193 36.453918449157449 $114 $194 forward 7 unknown #
face $-1 $195 $196 $26 $-1 $197 forward single #
loop $-1 $-1 $198 $72 #
plane-surface $-1 -55.600136747288147 0 9.6817621087507213 -1 0 0 0 0 1 forward_v I I I I #
coedge $-1 $199 $200 $201 $202 reversed $73 $-1 #
coedge $-1 $121 $75 $203 $204 reversed $47 $-1 #
coedge $-1 $75 $120 $199 $205 reversed $47 $-1 #
coedge $-1 $201 $206 $75 $123 forward $207 $-1 #
edge $-1 $208 67.999155655059582 $209 73.991351223564379 $122 $210 forward 7 unknown #
loop $-1 $-1 $129 $76 #
plane-surface $-1 -48.965756712194846 -15.991589813834338 57.643174020956849 0 0.69465837861970381 0.71933979245794832 1 0 0 forward_v I I I I #
loop $-1 $-1 $211 $49 #
coedge $-1 $127 $127 $128 $212 reversed $77 $-1 #
coedge $-1 $128 $128 $127 $212 forward $79 $-1 #
coedge $-1 $129 $129 $80 $130 forward $124 $-1 #
edge $-1 $213 -5.2865886338522674e-015 $213 6.2831853071795951 $129 $214 forward 7 unknown #
loop $-1 $-1 $136 $81 #
plane-surface $-1 -48.965756712194846 -15.991589813834338 57.643174020956849 0 0.69465837861970381 0.71933979245794832 1 0 0 forward_v I I I I #
loop $-1 $-1 $215 $52 #
coedge $-1 $134 $134 $135 $216 reversed $82 $-1 #
coedge $-1 $135 $135 $134 $216 forward $84 $-1 #
coedge $-1 $136 $136 $85 $137 forward $131 $-1 #
edge $-1 $217 -5.2865886338522674e-015 $217 6.2831853071795951 $136 $218 forward 7 unknown #
face $-1 $219 $220 $29 $-1 $221 forward single #
loop $-1 $-1 $222 $86 #
plane-surface $-1 72.520523697622608 0 0 -1 0 0 0 0 1 forward_v I I I I #
coedge $-1 $223 $224 $225 $226 reversed $87 $-1 #
coedge $-1 $227 $89 $222 $228 reversed $56 $-1 #
coedge $-1 $89 $227 $223 $229 forward $56 $-1 #
coedge $-1 $225 $230 $89 $145 forward $220 $-1 #
edge $-1 $231 -41.493181642809397 $232 -20.561502466817061 $144 $233 forward 7 unknown #
loop $-1 $-1 $151 $90 #
plane-surface $-1 62.05468410962645 -36.45391844915747 1.10724954710237 0 -0.6560590369687036 0.75470957328743171 1 0 0 forward_v I I I I #
loop $-1 $-1 $234 $58 #
coedge $-1 $149 $149 $150 $235 reversed $91 $-1 #
coedge $-1 $150 $150 $149 $235 forward $93 $-1 #
coedge $-1 $151 $151 $94 $152 forward $146 $-1 #
edge $-1 $236 6.0806607204738273e-016 $236 6.2831853071796013 $151 $237 forward 7 unknown #
loop $-1 $-1 $158 $95 #
plane-surface $-1 62.05468410962645 -36.45391844915747 1.10724954710237 0 -0.6560590369687036 0.75470957328743171 1 0 0 forward_v I I I I #
loop $-1 $-1 $238 $61 #
coedge $-1 $156 $156 $157 $239 reversed $96 $-1 #
coedge $-1 $157 $157 $156 $239 forward $98 $-1 #
coedge $-1 $158 $158 $99 $159 forward $153 $-1 #
edge $-1 $240 6.0806607204738273e-016 $240 6.2831853071796013 $158 $241 forward 7 unknown #
face $-1 $242 $243 $24 $-1 $244 reversed single #
loop $-1 $-1 $245 $100 #
plane-surface $-1 -72.520523697622608 0 0 1 0 0 0 0 -1 forward_v I I I I #
coedge $-1 $246 $171 $247 $248 forward $101 $-1 #
coedge $-1 $249 $103 $246 $250 forward $65 $-1 #
coedge $-1 $103 $249 $251 $252 forward $65 $-1 #
coedge $-1 $174 $173 $103 $167 reversed $175 $-1 #
edge $-1 $253 -36.453918449157449 $254 36.453918449157449 $166 $255 forward 7 unknown #
coedge $-1 $105 $104 $256 $257 forward $41 $-1 #
coedge $-1 $258 $259 $104 $170 reversed $243 $-1 #
edge $-1 $177 -72.520523697622608 $260 72.520523697622608 $169 $261 forward 7 unknown #
coedge $-1 $163 $262 $105 $172 reversed $101 $-1 #
edge $-1 $263 -72.520523697622608 $176 72.520523697622608 $171 $264 forward 7 unknown #
coedge $-1 $166 $106 $262 $265 forward $175 $-1 #
coedge $-1 $106 $166 $258 $266 reversed $175 $-1 #
loop $-1 $-1 $173 $242 #
vertex $-1 $107 $267 #
vertex $-1 $107 $268 #
straight-curve $-1 72.520523697622608 0 12.989329821008415 0 1 0 I I #
face $-1 $269 $270 $25 $-1 $271 forward single #
loop $-1 $-1 $272 $108 #
plane-surface $-1 -72.520523697622608 0 0 1 0 0 0 0 -1 forward_v I I I I #
coedge $-1 $190 $273 $184 $274 forward $109 $-1 #
coedge $-1 $114 $111 $275 $276 reversed $69 $-1 #
coedge $-1 $111 $114 $182 $274 reversed $69 $-1 #
coedge $-1 $277 $278 $111 $186 forward $270 $-1 #
edge $-1 $279 -36.453918449157449 $280 36.453918449157449 $185 $281 forward 7 unknown #
coedge $-1 $113 $112 $272 $282 reversed $44 $-1 #
coedge $-1 $275 $283 $112 $189 forward $284 $-1 #
edge $-1 $285 -40.490358586394919 $193 -23.569971636060458 $188 $286 forward 7 unknown #
coedge $-1 $287 $182 $113 $191 forward $109 $-1 #
edge $-1 $192 23.569971636060458 $288 40.490358586394919 $190 $289 forward 7 unknown #
vertex $-1 $191 $290 #
vertex $-1 $189 $291 #
straight-curve $-1 -55.600136747288147 0 6.3741943964930261 0 -1 0 I I #
face $-1 $-1 $207 $26 $-1 $292 reversed single #
loop $-1 $-1 $293 $116 #
plane-surface $-1 0 0 12.989329821008415 0 0 1 1 0 0 forward_v I I I I #
coedge $-1 $294 $295 $200 $296 forward $117 $-1 #
coedge $-1 $297 $119 $121 $205 forward $73 $-1 #
coedge $-1 $119 $297 $198 $296 reversed $73 $-1 #
coedge $-1 $298 $122 $119 $202 forward $207 $-1 #
edge $-1 $209 17.848498321004122 $299 31.117258391190724 $201 $300 forward 7 unknown #
coedge $-1 $301 $293 $120 $204 forward $196 $-1 #
edge $-1 $302 -12.132376068839925 $208 -5.9272760523677093 $203 $303 forward 7 unknown #
edge $-1 $209 -72.907836898314898 $302 -64.281732682295242 $121 $304 forward 7 unknown #
coedge $-1 $122 $298 $301 $305 reversed $207 $-1 #
loop $-1 $-1 $201 $195 #
vertex $-1 $305 $306 #
vertex $-1 $123 $307 #
straight-curve $-1 -42.331376677101545 36.453918449157449 80.988485476067993 0 0 -1 I I #
coedge $-1 $211 $211 $-1 $308 reversed $126 $-1 #
edge $-1 $309 0 $309 6.2831853071796004 $127 $310 forward 7 unknown #
vertex $-1 $130 $311 #
ellipse-curve $-1 -51.809062441520553 33.351368440921341 9.9932320367560052 0 0.69465837861970381 0.71933979245794832 0.5 0 0 1 I I #
coedge $-1 $215 $215 $-1 $312 reversed $133 $-1 #
edge $-1 $313 0 $313 6.2831853071796004 $134 $314 forward 7 unknown #
vertex $-1 $137 $315 #
ellipse-curve $-1 -46.122450982869147 33.351368440921341 9.9932320367560052 0 0.69465837861970381 0.71933979245794832 0.5 0 0 1 I I #
face $-1 $-1 $316 $29 $-1 $317 reversed single #
loop $-1 $-1 $144 $138 #
plane-surface $-1 0 0 12.989329821008415 0 0 1 1 0 0 forward_v I I I I #
coedge $-1 $318 $319 $142 $228 forward $139 $-1 #
coedge $-1 $224 $141 $143 $229 reversed $87 $-1 #
coedge $-1 $141 $223 $320 $321 reversed $87 $-1 #
coedge $-1 $322 $144 $141 $226 forward $220 $-1 #
edge $-1 $232 -43.019555180284023 $323 -29.350785712949623 $225 $324 forward 7 unknown #
coedge $-1 $143 $142 $325 $326 reversed $56 $-1 #
edge $-1 $327 -13.392850082931201 $231 4.7184472308086365 $222 $328 forward 7 unknown #
edge $-1 $329 2.8178574829950307e-014 $232 18.111297313739865 $223 $330 forward 7 unknown #
coedge $-1 $144 $322 $318 $331 forward $220 $-1 #
vertex $-1 $145 $332 #
vertex $-1 $145 $333 #
straight-curve $-1 31.027342054813225 -22.785148981823045 12.989329821008415 -1 0 0 I I #
coedge $-1 $234 $234 $-1 $334 reversed $148 $-1 #
edge $-1 $335 0 $335 6.2831853071796004 $149 $336 forward 7 unknown #
vertex $-1 $152 $337 #
ellipse-curve $-1 57.569324286199517 -29.619533715490245 7.0482896840554048 0 -0.6560590369687036 0.75470957328743171 2.5 0 0 1 I I #
coedge $-1 $238 $238 $-1 $338 reversed $155 $-1 #
edge $-1 $339 0 $339 6.2831853071796004 $156 $340 forward 7 unknown #
vertex $-1 $159 $341 #
ellipse-curve $-1 66.540043933053383 -29.619533715490245 7.0482896840554048 0 -0.6560590369687036 0.75470957328743171 2.5 0 0 1 I I #
face $-1 $-1 $175 $24 $-1 $342 reversed single #
loop $-1 $-1 $258 $160 #
plane-surface $-1 0 36.453918449157449 0 0 -1 0 0 0 -1 forward_v I I I I #
coedge $-1 $343 $256 $259 $344 forward $161 $-1 #
coedge $-1 $262 $163 $164 $250 reversed $101 $-1 #
coedge $-1 $256 $343 $163 $248 reversed $161 $-1 #
edge $-1 $263 -12.989329821008415 $345 12.989329821008415 $247 $346 forward 7 unknown #
coedge $-1 $165 $164 $343 $347 forward $65 $-1 #
edge $-1 $254 -72.520523697622608 $345 72.520523697622608 $246 $348 forward 7 unknown #
coedge $-1 $259 $258 $165 $252 reversed $243 $-1 #
edge $-1 $349 -72.520523697622608 $253 72.520523697622608 $251 $350 forward 7 unknown #
vertex $-1 $167 $351 #
vertex $-1 $265 $352 #
straight-curve $-1 72.520523697622608 0 -12.989329821008415 0 -1 0 I I #
coedge $-1 $245 $247 $168 $257 reversed $161 $-1 #
edge $-1 $260 -36.453918449157449 $263 36.453918449157449 $256 $353 forward 7 unknown #
coedge $-1 $251 $169 $174 $266 forward $243 $-1 #
coedge $-1 $169 $251 $245 $344 reversed $243 $-1 #
vertex $-1 $170 $354 #
straight-curve $-1 0 36.453918449157449 12.989329821008415 -1 0 0 I I #
coedge $-1 $171 $246 $173 $265 reversed $101 $-1 #
vertex $-1 $257 $355 #
straight-curve $-1 0 -36.453918449157449 12.989329821008415 1 0 0 I I #
edge $-1 $176 -12.989329821008415 $254 12.989329821008415 $173 $356 forward 7 unknown #
edge $-1 $177 -12.989329821008415 $253 12.989329821008415 $174 $357 forward 7 unknown #
point $-1 72.520523697622608 -36.453918449157449 12.989329821008415 #
point $-1 72.520523697622608 36.453918449157449 12.989329821008415 #
face $-1 $-1 $284 $25 $-1 $358 reversed single #
loop $-1 $-1 $185 $179 #
plane-surface $-1 0 0 12.989329821008415 0 0 1 1 0 0 forward_v I I I I #
coedge $-1 $359 $360 $187 $282 forward $180 $-1 #
coedge $-1 $182 $287 $277 $361 reversed $109 $-1 #
edge $-1 $280 -8.1484487666330558 $192 -1.5333133421176655 $182 $362 forward 7 unknown #
coedge $-1 $363 $188 $183 $276 forward $284 $-1 #
edge $-1 $193 1.5333133421176655 $279 8.1484487666330558 $275 $364 forward 7 unknown #
coedge $-1 $365 $185 $273 $361 forward $270 $-1 #
coedge $-1 $185 $365 $363 $366 forward $270 $-1 #
vertex $-1 $276 $367 #
vertex $-1 $361 $368 #
straight-curve $-1 -55.600136747288147 0 12.989329821008415 0 1 0 I I #
edge $-1 $288 -36.453918449157449 $285 36.453918449157449 $272 $369 forward 7 unknown #
coedge $-1 $188 $363 $359 $370 forward $284 $-1 #
loop $-1 $-1 $275 $269 #
vertex $-1 $282 $371 #
straight-curve $-1 -32.030165111227689 -36.453918449157449 6.3741943964930261 1 0 0 I I #
coedge $-1 $273 $190 $360 $372 reversed $109 $-1 #
vertex $-1 $282 $373 #
straight-curve $-1 -32.030165111227689 36.453918449157449 6.3741943964930261 -1 0 0 I I #
point $-1 -55.600136747288147 36.453918449157449 6.3741943964930261 #
point $-1 -55.600136747288147 -36.453918449157449 6.3741943964930261 #
plane-surface $-1 0 36.453918449157449 0 0 -1 0 0 0 -1 forward_v I I I I #
coedge $-1 $203 $374 $297 $375 forward $196 $-1 #
coedge $-1 $295 $198 $374 $376 reversed $117 $-1 #
coedge $-1 $198 $294 $298 $377 reversed $117 $-1 #
edge $-1 $299 -50.497745131814341 $378 -41.871640915794693 $198 $379 forward 7 unknown #
coedge $-1 $200 $199 $293 $375 reversed $73 $-1 #
coedge $-1 $206 $201 $295 $377 forward $207 $-1 #
vertex $-1 $377 $380 #
straight-curve $-1 -24.482878356097423 36.453918449157449 6.9971342525036029 -1 0 0 I I #
coedge $-1 $374 $203 $206 $305 forward $196 $-1 #
vertex $-1 $204 $381 #
straight-curve $-1 -42.331376677101545 42.381194501525158 12.989329821008411 0 1 0 I I #
straight-curve $-1 -42.331376677101545 -15.991589813834338 57.643174020956849 0 -0.71933979245794832 0.69465837861970381 I I #
edge $-1 $208 42.331376677101545 $382 55.600136747288147 $206 $383 forward 7 unknown #
point $-1 -42.331376677101545 36.453918449157449 12.989329821008415 #
point $-1 -42.331376677101545 36.453918449157449 6.9971342525036064 #
edge $-1 $384 1 $384 0 $211 $-1 forward 7 unknown #
vertex $-1 $212 $385 #
ellipse-curve $-1 -51.809062441520553 31.970001660548359 8.5627848936923261 0 0.69465837861970381 0.71933979245794832 0.5 0 0 1 I I #
point $-1 -51.309062441520553 33.351368440921334 9.9932320367560017 #
edge $-1 $386 1 $386 0 $215 $-1 forward 7 unknown #
vertex $-1 $216 $387 #
ellipse-curve $-1 -46.122450982869147 31.970001660548359 8.5627848936923261 0 0.69465837861970381 0.71933979245794832 0.5 0 0 1 I I #
point $-1 -45.622450982869147 33.351368440921334 9.9932320367560017 #
loop $-1 $-1 $325 $219 #
plane-surface $-1 0 -36.453918449157449 0 0 1 0 0 0 1 forward_v I I I I #
coedge $-1 $319 $222 $230 $331 reversed $139 $-1 #
coedge $-1 $222 $318 $388 $389 forward $139 $-1 #
coedge $-1 $325 $390 $224 $321 forward $316 $-1 #
edge $-1 $323 42.296228446956604 $329 54.178308720862631 $320 $391 forward 7 unknown #
coedge $-1 $230 $225 $390 $392 forward $220 $-1 #
vertex $-1 $392 $393 #
straight-curve $-1 51.588844521630286 -65.804704162107072 12.989329821008411 0 -1 0 I I #
coedge $-1 $388 $320 $227 $326 forward $316 $-1 #
edge $-1 $329 20.561502466817061 $327 41.493181642809397 $325 $394 forward 7 unknown #
vertex $-1 $326 $395 #
straight-curve $-1 72.520523697622608 -26.346206277965898 9.8937498747764536 0 0.75470957328743171 0.6560590369687036 I I #
vertex $-1 $326 $396 #
straight-curve $-1 51.588844521630286 -36.45391844915747 1.10724954710237 0 0.75470957328743171 0.6560590369687036 I I #
edge $-1 $397 -36.453918449157449 $231 -22.785148981823049 $318 $398 forward 7 unknown #
point $-1 72.520523697622622 -22.785148981823049 12.989329821008415 #
point $-1 51.588844521630286 -22.785148981823049 12.989329821008415 #
edge $-1 $399 1 $399 0 $234 $-1 forward 7 unknown #
vertex $-1 $235 $400 #
ellipse-curve $-1 57.569324286199517 -24.741086965631848 1.4362787865258797 0 -0.6560590369687036 0.75470957328743171 2.5 0 0 1 I I #
point $-1 60.069324286199517 -29.619533715490224 7.0482896840553826 #
edge $-1 $401 1 $401 0 $238 $-1 forward 7 unknown #
vertex $-1 $239 $402 #
ellipse-curve $-1 66.540043933053383 -24.741086965631848 1.4362787865258797 0 -0.6560590369687036 0.75470957328743171 2.5 0 0 1 I I #
point $-1 69.040043933053383 -29.619533715490224 7.0482896840553826 #
plane-surface $-1 72.520523697622608 0 0 -1 0 0 0 0 1 forward_v I I I I #
coedge $-1 $247 $245 $249 $347 reversed $161 $-1 #
edge $-1 $260 -12.989329821008415 $349 12.989329821008415 $259 $403 forward 7 unknown #
vertex $-1 $347 $404 #
straight-curve $-1 -72.520523697622608 -36.453918449157449 0 0 0 -1 I I #
edge $-1 $345 -36.453918449157449 $349 36.453918449157449 $343 $405 forward 7 unknown #
straight-curve $-1 0 -36.453918449157449 -12.989329821008415 -1 0 0 I I #
vertex $-1 $252 $406 #
straight-curve $-1 0 36.453918449157449 -12.989329821008415 1 0 0 I I #
point $-1 72.520523697622608 36.453918449157449 -12.989329821008415 #
point $-1 72.520523697622608 -36.453918449157449 -12.989329821008415 #
straight-curve $-1 -72.520523697622608 0 12.989329821008415 0 -1 0 I I #
point $-1 -72.520523697622608 36.453918449157449 12.989329821008415 #
point $-1 -72.520523697622608 -36.453918449157449 12.989329821008415 #
straight-curve $-1 72.520523697622608 -36.453918449157449 0 0 0 -1 I I #
straight-curve $-1 72.520523697622608 36.453918449157449 0 0 0 -1 I I #
plane-surface $-1 0 -36.453918449157449 0 0 1 0 0 0 1 forward_v I I I I #
coedge $-1 $407 $272 $283 $370 reversed $180 $-1 #
coedge $-1 $272 $407 $287 $372 forward $180 $-1 #
edge $-1 $280 55.600136747288147 $408 72.520523697622608 $273 $409 forward 7 unknown #
straight-curve $-1 -55.600136747288147 36.453918449157449 4.8408810543753606 0 0 -1 I I #
coedge $-1 $283 $275 $278 $366 reversed $284 $-1 #
straight-curve $-1 -55.600136747288147 -36.453918449157449 4.8408810543753606 0 0 1 I I #
coedge $-1 $278 $277 $407 $410 forward $270 $-1 #
edge $-1 $411 -72.520523697622608 $279 -55.600136747288147 $363 $412 forward 7 unknown #
point $-1 -55.600136747288147 -36.453918449157449 12.989329821008416 #
point $-1 -55.600136747288147 36.453918449157449 12.989329821008416 #
straight-curve $-1 -72.520523697622608 0 6.3741943964930261 0 -1 0 I I #
edge $-1 $411 -12.989329821008415 $285 -6.3741943964930261 $359 $413 forward 7 unknown #
point $-1 -72.520523697622608 -36.453918449157449 6.3741943964930261 #
edge $-1 $408 -12.989329821008415 $288 -6.3741943964930261 $287 $414 forward 7 unknown #
point $-1 -72.520523697622608 36.453918449157449 6.3741943964930261 #
coedge $-1 $293 $301 $294 $376 forward $196 $-1 #
edge $-1 $378 -31.117258391190724 $302 -17.848498321004122 $293 $415 forward 7 unknown #
edge $-1 $382 -36.453918449157449 $378 -30.248818432685241 $374 $416 forward 7 unknown #
edge $-1 $299 2.156253198128244 $382 8.1484487666330558 $298 $417 forward 7 unknown #
vertex $-1 $296 $418 #
straight-curve $-1 -55.600136747288147 0.12888094644374348 42.075816009720803 0 -0.71933979245794832 0.69465837861970381 I I #
point $-1 -55.600136747288147 36.453918449157449 6.9971342525036047 #
point $-1 -42.331376677101545 30.248818432685233 12.989329821008411 #
vertex $-1 $376 $419 #
straight-curve $-1 0 36.453918449157449 12.989329821008415 -1 0 0 I I #
vertex $-1 $308 $420 #
point $-1 -51.309062441520553 31.970001660548359 8.5627848936923261 #
vertex $-1 $312 $421 #
point $-1 -45.622450982869147 31.970001660548359 8.5627848936923261 #
coedge $-1 $390 $325 $319 $389 reversed $316 $-1 #
edge $-1 $397 -12.989329821008415 $327 -1.1072495471023884 $319 $422 forward 7 unknown #
coedge $-1 $320 $388 $322 $392 reversed $316 $-1 #
straight-curve $-1 51.588844521630286 -36.453918449157449 55.285558267965023 0 0 -1 I I #
edge $-1 $323 51.588844521630286 $397 72.520523697622608 $390 $423 forward 7 unknown #
point $-1 51.588844521630286 -36.453918449157449 12.989329821008415 #
straight-curve $-1 31.027342054813225 -36.453918449157449 1.1072495471023875 1 0 0 I I #
point $-1 72.520523697622622 -36.453918449157449 1.1072495471023884 #
point $-1 51.588844521630286 -36.453918449157449 1.1072495471023884 #
vertex $-1 $331 $424 #
straight-curve $-1 72.520523697622608 0 12.989329821008415 0 1 0 I I #
vertex $-1 $334 $425 #
point $-1 60.069324286199517 -24.741086965631848 1.4362787865258797 #
vertex $-1 $338 $426 #
point $-1 69.040043933053383 -24.741086965631848 1.4362787865258797 #
straight-curve $-1 -72.520523697622608 36.453918449157449 0 0 0 -1 I I #
point $-1 -72.520523697622608 -36.453918449157449 -12.989329821008415 #
straight-curve $-1 -72.520523697622608 0 -12.989329821008415 0 1 0 I I #
point $-1 -72.520523697622608 36.453918449157449 -12.989329821008415 #
coedge $-1 $360 $359 $365 $410 reversed $180 $-1 #
vertex $-1 $361 $427 #
straight-curve $-1 0 36.453918449157449 12.989329821008415 -1 0 0 I I #
edge $-1 $408 -36.453918449157449 $411 36.453918449157449 $407 $428 forward 7 unknown #
vertex $-1 $410 $429 #
straight-curve $-1 0 -36.453918449157449 12.989329821008415 1 0 0 I I #
straight-curve $-1 -72.520523697622608 -36.453918449157449 0 0 0 -1 I I #
straight-curve $-1 -72.520523697622608 36.453918449157449 0 0 0 -1 I I #
straight-curve $-1 -24.482878356097423 30.248818432685233 12.989329821008415 1 0 0 I I #
straight-curve $-1 -55.600136747288147 0 12.989329821008415 0 -1 0 I I #
straight-curve $-1 -55.600136747288147 36.453918449157449 4.8408810543753606 0 0 1 I I #
point $-1 -55.600136747288147 30.248818432685241 12.989329821008415 #
point $-1 -55.600136747288147 36.453918449157449 12.989329821008416 #
point $-1 -51.809062441520553 31.622672471238506 8.2031149974633504 #
point $-1 -46.122450982869147 31.622672471238506 8.2031149974633504 #
straight-curve $-1 72.520523697622608 -36.453918449157449 0 0 0 -1 I I #
straight-curve $-1 0 -36.453918449157449 12.989329821008415 1 0 0 I I #
point $-1 72.520523697622608 -36.453918449157449 12.989329821008415 #
point $-1 57.569324286199517 -23.100939373210085 -0.45049514669269974 #
point $-1 66.540043933053383 -23.100939373210085 -0.45049514669269974 #
point $-1 -72.520523697622608 36.453918449157449 12.989329821008415 #
straight-curve $-1 -72.520523697622608 0 12.989329821008415 0 -1 0 I I #
point $-1 -72.520523697622608 -36.453918449157449 12.989329821008415 #
End-of-ACIS-data 