500 0 6 0           
7 Unknown 11 ACIS 5.0 NT 24 Fri Mar 26 02:17:18 1999 
-1 9.9999999999999995e-007 1e-010 
body $-1 $6 $-1 $7 #
body $-1 $8 $-1 $9 #
body $-1 $10 $-1 $11 #
body $-1 $12 $-1 $13 #
body $-1 $14 $-1 $15 #
body $-1 $16 $-1 $17 #
lump $-1 $-1 $18 $0 #
transform $-1 1 0 0 0 1 0 0 0 1 73.714407788323626 31.499653244181875 9.1426573131135509 1 rotate no_reflect no_shear #
lump $-1 $-1 $19 $1 #
transform $-1 1 0 0 0 1 0 0 0 1 73.714407788323626 31.499653244181875 9.1426573131135509 1 rotate no_reflect no_shear #
lump $-1 $-1 $20 $2 #
transform $-1 1 0 0 0 1 0 0 0 1 73.714407788323626 31.499653244181875 9.1426573131135509 1 rotate no_reflect no_shear #
lump $-1 $-1 $21 $3 #
transform $-1 1 0 0 0 1 0 0 0 1 73.714407788323626 31.499653244181875 9.1426573131135509 1 rotate no_reflect no_shear #
lump $-1 $-1 $22 $4 #
transform $-1 1 0 0 0 1 0 0 0 1 73.714407788323626 31.499653244181875 9.1426573131135509 1 rotate no_reflect no_shear #
lump $-1 $-1 $23 $5 #
transform $-1 1 0 0 0 1 0 0 0 1 73.714407788323626 31.499653244181875 9.1426573131135509 1 rotate no_reflect no_shear #
shell $-1 $-1 $-1 $24 $-1 $6 #
shell $-1 $-1 $-1 $25 $-1 $8 #
shell $-1 $-1 $-1 $26 $-1 $10 #
shell $-1 $-1 $-1 $27 $-1 $12 #
shell $-1 $-1 $-1 $28 $-1 $14 #
shell $-1 $-1 $-1 $29 $-1 $16 #
face $-1 $30 $31 $18 $-1 $32 forward single #
face $-1 $33 $34 $19 $-1 $35 reversed single #
face $-1 $36 $37 $20 $-1 $38 reversed single #
face $-1 $39 $40 $21 $-1 $41 forward single #
face $-1 $42 $43 $22 $-1 $44 reversed single #
face $-1 $45 $46 $23 $-1 $47 forward single #
face $-1 $48 $49 $18 $-1 $50 reversed single #
loop $-1 $-1 $51 $24 #
plane-surface $-1 0 0 9.1426573131135509 0 0 1 1 0 0 forward_v I I I I #
face $-1 $52 $53 $19 $-1 $54 reversed single #
loop $-1 $-1 $55 $25 #
plane-surface $-1 -69.798754453683159 0 3.6989159663223292 0 0 1 1 0 0 forward_v I I I I #
face $-1 $56 $57 $20 $-1 $58 reversed single #
loop $-1 $-1 $59 $26 #
plane-surface $-1 -57.134771865042289 -11.465769907612611 47.839569633735536 0 0.73135370988377701 0.68199835119979291 1 0 0 forward_v I I I I #
face $-1 $60 $61 $21 $-1 $62 forward single #
loop $-1 $63 $64 $27 #
cone-surface $-1 -57.134771865042289 24.801225122613673 2.4151776869564663 0 -0.73135370988377701 -0.68199835119979291 2.5 0 0 1 I I 0 1 2.5 forward I I I I #
face $-1 $65 $66 $22 $-1 $67 reversed single #
loop $-1 $-1 $68 $28 #
plane-surface $-1 2.9382763634997247 -113.94080175320182 125.72418092931935 -1 0 0 0 -0.55919291073839883 0.82903756765294845 forward_v I I I I #
face $-1 $69 $70 $23 $-1 $71 forward single #
loop $-1 $72 $73 $29 #
cone-surface $-1 -12.816981291023936 -25.438891886217402 3.5370317427826907 0 0.55919291073839883 -0.82903756765294845 2 0 0 1 I I 0 1 2 forward I I I I #
face $-1 $74 $75 $18 $-1 $76 reversed single #
loop $-1 $-1 $77 $30 #
plane-surface $-1 0 0 -9.1426573131135509 0 0 1 1 0 0 forward_v I I I I #
coedge $-1 $78 $79 $80 $81 forward $31 $-1 #
face $-1 $82 $83 $19 $-1 $84 reversed single #
loop $-1 $-1 $85 $33 #
plane-surface $-1 -65.883101119042692 0 6.4207866397179405 -1 0 0 0 0 1 forward_v I I I I #
coedge $-1 $86 $87 $88 $89 forward $34 $-1 #
face $-1 $90 $91 $20 $-1 $92 forward single #
loop $-1 $-1 $93 $36 #
plane-surface $-1 -48.386442611041879 96.356841308139536 148.38577877634731 -1 0 0 0 0.73135370988377701 0.68199835119979291 forward_v I I I I #
coedge $-1 $94 $95 $96 $97 reversed $37 $-1 #
face $-1 $-1 $98 $21 $-1 $99 forward single #
loop $-1 $100 $101 $39 #
cone-surface $-1 -57.134771865042289 20.628589614984126 -1.4758677783263874 0 -0.73135370988377701 -0.68199835119979291 1.25 0 0 1 I I -0.70710678118654746 0.70710678118654746 1.25 forward I I I I #
loop $-1 $-1 $102 $27 #
coedge $-1 $64 $64 $103 $104 reversed $40 $-1 #
face $-1 $105 $106 $22 $-1 $107 reversed single #
loop $-1 $-1 $108 $42 #
plane-surface $-1 -12.816981291023936 -31.499653244181857 3.5001542617005867 0 -0.55919291073839883 0.82903756765294845 1 0 0 forward_v I I I I #
coedge $-1 $109 $110 $111 $112 reversed $43 $-1 #
face $-1 $-1 $113 $23 $-1 $114 forward single #
loop $-1 $115 $116 $45 #
cone-surface $-1 -12.816981291023936 -23.001614932790908 -0.076379869494635599 0 0.55919291073839883 -0.82903756765294845 1 0 0 1 I I -0.70710678118654735 0.70710678118654768 1 forward I I I I #
loop $-1 $-1 $117 $29 #
coedge $-1 $73 $73 $118 $119 reversed $46 $-1 #
face $-1 $120 $121 $18 $-1 $122 reversed single #
loop $-1 $-1 $123 $48 #
plane-surface $-1 0 -31.499653244181875 0 0 1 0 0 0 1 forward_v I I I I #
coedge $-1 $124 $125 $126 $127 forward $49 $-1 #
coedge $-1 $128 $51 $129 $130 forward $31 $-1 #
coedge $-1 $51 $128 $131 $132 forward $31 $-1 #
coedge $-1 $133 $134 $51 $81 reversed $135 $-1 #
edge $-1 $136 -31.499653244181875 $137 31.499653244181875 $80 $138 forward 7 unknown #
face $-1 $139 $140 $19 $-1 $141 reversed single #
loop $-1 $-1 $142 $52 #
plane-surface $-1 0 31.499653244181875 0 0 -1 0 0 0 -1 forward_v I I I I #
coedge $-1 $88 $143 $144 $145 reversed $53 $-1 #
coedge $-1 $146 $55 $147 $148 reversed $34 $-1 #
coedge $-1 $55 $146 $149 $150 reversed $34 $-1 #
coedge $-1 $151 $85 $55 $89 reversed $53 $-1 #
edge $-1 $152 -31.499653244181875 $153 31.499653244181875 $88 $154 forward 7 unknown #
face $-1 $155 $156 $20 $-1 $157 reversed single #
loop $-1 $-1 $96 $56 #
plane-surface $-1 0 0 9.1426573131135509 0 0 1 1 0 0 forward_v I I I I #
coedge $-1 $158 $159 $160 $161 reversed $57 $-1 #
coedge $-1 $162 $59 $163 $164 reversed $37 $-1 #
coedge $-1 $59 $162 $158 $165 forward $37 $-1 #
coedge $-1 $160 $166 $59 $97 forward $91 $-1 #
edge $-1 $167 -37.315715186521544 $168 -19.819056678520734 $96 $169 forward 7 unknown #
loop $-1 $-1 $103 $60 #
plane-surface $-1 -57.134771865042289 -11.465769907612611 47.839569633735536 0 0.73135370988377701 0.68199835119979291 1 0 0 forward_v I I I I #
loop $-1 $-1 $170 $39 #
coedge $-1 $101 $101 $102 $171 reversed $61 $-1 #
coedge $-1 $102 $102 $101 $171 forward $63 $-1 #
coedge $-1 $103 $103 $64 $104 forward $98 $-1 #
edge $-1 $172 -7.0138183167478186e-017 $172 6.2831853071796004 $103 $173 forward 7 unknown #
face $-1 $174 $175 $22 $-1 $176 reversed single #
loop $-1 $-1 $177 $65 #
plane-surface $-1 -28.572238945547596 -113.94080175320182 125.72418092931935 1 0 0 0 0.55919291073839883 -0.82903756765294845 forward_v I I I I #
coedge $-1 $178 $179 $180 $181 reversed $66 $-1 #
coedge $-1 $110 $68 $182 $183 reversed $43 $-1 #
coedge $-1 $68 $109 $178 $184 reversed $43 $-1 #
coedge $-1 $180 $185 $68 $112 forward $186 $-1 #
edge $-1 $187 25.470747632419037 $188 33.836102262971821 $111 $189 forward 7 unknown #
loop $-1 $-1 $118 $69 #
plane-surface $-1 -12.816981291023936 -31.499653244181857 3.5001542617005867 0 -0.55919291073839883 0.82903756765294845 1 0 0 forward_v I I I I #
loop $-1 $-1 $190 $45 #
coedge $-1 $116 $116 $117 $191 reversed $70 $-1 #
coedge $-1 $117 $117 $116 $191 forward $72 $-1 #
coedge $-1 $118 $118 $73 $119 forward $113 $-1 #
edge $-1 $192 -2.1368619012083244e-016 $192 6.2831853071796004 $118 $193 forward 7 unknown #
face $-1 $194 $195 $18 $-1 $196 reversed single #
loop $-1 $-1 $197 $74 #
plane-surface $-1 -73.714407788323626 0 0 1 0 0 0 0 -1 forward_v I I I I #
coedge $-1 $198 $131 $199 $200 forward $75 $-1 #
coedge $-1 $201 $77 $198 $202 forward $49 $-1 #
coedge $-1 $77 $201 $203 $204 forward $49 $-1 #
coedge $-1 $134 $133 $77 $127 reversed $135 $-1 #
edge $-1 $205 -31.499653244181875 $206 31.499653244181875 $126 $207 forward 7 unknown #
coedge $-1 $79 $78 $208 $209 forward $31 $-1 #
coedge $-1 $210 $211 $78 $130 reversed $195 $-1 #
edge $-1 $137 -73.714407788323626 $212 73.714407788323626 $129 $213 forward 7 unknown #
coedge $-1 $123 $214 $79 $132 reversed $75 $-1 #
edge $-1 $215 -73.714407788323626 $136 73.714407788323626 $131 $216 forward 7 unknown #
coedge $-1 $126 $80 $214 $217 forward $135 $-1 #
coedge $-1 $80 $126 $210 $218 reversed $135 $-1 #
loop $-1 $-1 $133 $194 #
vertex $-1 $81 $219 #
vertex $-1 $81 $220 #
straight-curve $-1 73.714407788323626 0 9.1426573131135509 0 1 0 I I #
face $-1 $221 $222 $19 $-1 $223 forward single #
loop $-1 $-1 $224 $82 #
plane-surface $-1 -73.714407788323626 0 0 1 0 0 0 0 -1 forward_v I I I I #
coedge $-1 $149 $225 $151 $226 forward $83 $-1 #
coedge $-1 $85 $151 $227 $228 reversed $53 $-1 #
coedge $-1 $229 $147 $85 $145 forward $230 $-1 #
edge $-1 $153 0.48852264646335897 $231 5.9322639932545824 $144 $232 forward 7 unknown #
coedge $-1 $87 $86 $224 $233 reversed $34 $-1 #
coedge $-1 $144 $234 $86 $148 forward $230 $-1 #
edge $-1 $235 -38.815030561482047 $153 -30.983723892201112 $147 $236 forward 7 unknown #
coedge $-1 $237 $142 $87 $150 forward $83 $-1 #
edge $-1 $152 30.983723892201112 $238 38.815030561482047 $149 $239 forward 7 unknown #
coedge $-1 $143 $88 $142 $226 reversed $53 $-1 #
vertex $-1 $150 $240 #
vertex $-1 $148 $241 #
straight-curve $-1 -65.883101119042692 0 3.6989159663223292 0 -1 0 I I #
face $-1 $-1 $242 $20 $-1 $243 forward single #
loop $-1 $-1 $244 $90 #
plane-surface $-1 0 31.499653244181875 0 0 -1 0 0 0 -1 forward_v I I I I #
coedge $-1 $159 $93 $95 $165 reversed $57 $-1 #
coedge $-1 $93 $158 $244 $245 reversed $57 $-1 #
coedge $-1 $246 $96 $93 $161 forward $91 $-1 #
edge $-1 $168 -23.558736912474664 $247 -16.678767409887893 $160 $248 forward 7 unknown #
coedge $-1 $95 $94 $249 $250 reversed $37 $-1 #
coedge $-1 $251 $252 $94 $164 forward $242 $-1 #
edge $-1 $253 -43.943598101476795 $167 -33.855641890903406 $163 $254 forward 7 unknown #
edge $-1 $255 -62.999306488363729 $168 -52.911350277790334 $158 $256 forward 7 unknown #
coedge $-1 $96 $246 $251 $257 forward $91 $-1 #
vertex $-1 $164 $258 #
vertex $-1 $97 $259 #
straight-curve $-1 -28.567385932521145 24.619683741595114 9.1426573131135491 1 0 0 I I #
coedge $-1 $170 $170 $-1 $260 reversed $100 $-1 #
edge $-1 $261 0 $261 6.2831853071796004 $101 $262 forward 7 unknown #
vertex $-1 $104 $263 #
ellipse-curve $-1 -57.134771865042289 28.059668492888495 5.4537252132395757 0 0.73135370988377701 0.68199835119979291 2.5 0 0 1 I I #
face $-1 $-1 $186 $22 $-1 $264 forward single #
loop $-1 $-1 $265 $105 #
plane-surface $-1 0 -31.499653244181875 0 0 1 0 0 0 1 forward_v I I I I #
coedge $-1 $266 $267 $268 $269 reversed $106 $-1 #
coedge $-1 $270 $108 $110 $184 forward $66 $-1 #
coedge $-1 $108 $270 $266 $271 forward $66 $-1 #
coedge $-1 $268 $111 $108 $181 forward $186 $-1 #
edge $-1 $188 -9.3467670090116926 $272 22.163748300035628 $180 $273 forward 7 unknown #
coedge $-1 $274 $275 $109 $183 forward $175 $-1 #
edge $-1 $276 -59.3619362029591 $187 -53.71943315154612 $182 $277 forward 7 unknown #
edge $-1 $188 -10.090440960637707 $276 2.1431617057057075e-014 $110 $278 forward 7 unknown #
coedge $-1 $111 $268 $274 $279 forward $186 $-1 #
loop $-1 $-1 $268 $174 #
vertex $-1 $183 $280 #
vertex $-1 $112 $281 #
straight-curve $-1 2.9382763634997247 -56.970400876600912 9.1426573131135527 0 1 0 I I #
coedge $-1 $190 $190 $-1 $282 reversed $115 $-1 #
edge $-1 $283 0 $283 6.2831853071796004 $116 $284 forward 7 unknown #
vertex $-1 $119 $285 #
ellipse-curve $-1 -12.816981291023936 -27.316975928905489 6.3214057874070591 0 -0.55919291073839883 0.82903756765294845 2 0 0 1 I I #
face $-1 $-1 $135 $18 $-1 $286 reversed single #
loop $-1 $-1 $210 $120 #
plane-surface $-1 0 31.499653244181875 0 0 -1 0 0 0 -1 forward_v I I I I #
coedge $-1 $287 $208 $211 $288 forward $121 $-1 #
coedge $-1 $214 $123 $124 $202 reversed $75 $-1 #
coedge $-1 $208 $287 $123 $200 reversed $121 $-1 #
edge $-1 $215 -9.1426573131135509 $289 9.1426573131135509 $199 $290 forward 7 unknown #
coedge $-1 $125 $124 $287 $291 forward $49 $-1 #
edge $-1 $206 -73.714407788323626 $289 73.714407788323626 $198 $292 forward 7 unknown #
coedge $-1 $211 $210 $125 $204 reversed $195 $-1 #
edge $-1 $293 -73.714407788323626 $205 73.714407788323626 $203 $294 forward 7 unknown #
vertex $-1 $127 $295 #
vertex $-1 $217 $296 #
straight-curve $-1 73.714407788323626 0 -9.1426573131135509 0 -1 0 I I #
coedge $-1 $197 $199 $128 $209 reversed $121 $-1 #
edge $-1 $212 -31.499653244181875 $215 31.499653244181875 $208 $297 forward 7 unknown #
coedge $-1 $203 $129 $134 $218 forward $195 $-1 #
coedge $-1 $129 $203 $197 $288 reversed $195 $-1 #
vertex $-1 $130 $298 #
straight-curve $-1 0 31.499653244181875 9.1426573131135509 -1 0 0 I I #
coedge $-1 $131 $198 $133 $217 reversed $75 $-1 #
vertex $-1 $209 $299 #
straight-curve $-1 0 -31.499653244181875 9.1426573131135509 1 0 0 I I #
edge $-1 $136 -9.1426573131135509 $206 9.1426573131135509 $133 $300 forward 7 unknown #
edge $-1 $137 -9.1426573131135509 $205 9.1426573131135509 $134 $301 forward 7 unknown #
point $-1 73.714407788323626 -31.499653244181875 9.1426573131135509 #
point $-1 73.714407788323626 31.499653244181875 9.1426573131135509 #
face $-1 $-1 $230 $19 $-1 $302 reversed single #
loop $-1 $-1 $227 $139 #
plane-surface $-1 0 0 9.1426573131135509 0 0 1 1 0 0 forward_v I I I I #
coedge $-1 $303 $304 $146 $233 forward $140 $-1 #
coedge $-1 $142 $237 $305 $306 reversed $83 $-1 #
edge $-1 $307 -5.9322639932545824 $152 -0.48852264646335897 $142 $308 forward 7 unknown #
coedge $-1 $305 $309 $143 $228 forward $222 $-1 #
edge $-1 $231 -31.499653244181875 $307 31.499653244181875 $227 $310 forward 7 unknown #
coedge $-1 $234 $144 $309 $311 reversed $230 $-1 #
loop $-1 $-1 $144 $221 #
vertex $-1 $145 $312 #
straight-curve $-1 -65.883101119042692 -31.499653244181875 3.2103933198589703 0 0 1 I I #
edge $-1 $238 -31.499653244181875 $235 31.499653244181875 $224 $313 forward 7 unknown #
coedge $-1 $147 $229 $303 $314 forward $230 $-1 #
vertex $-1 $233 $315 #
straight-curve $-1 -34.89937722684158 -31.499653244181875 3.6989159663223292 1 0 0 I I #
coedge $-1 $225 $149 $304 $316 reversed $83 $-1 #
vertex $-1 $233 $317 #
straight-curve $-1 -34.89937722684158 31.499653244181875 3.6989159663223292 -1 0 0 I I #
point $-1 -65.883101119042692 31.499653244181875 3.6989159663223292 #
point $-1 -65.883101119042692 -31.499653244181875 3.6989159663223292 #
loop $-1 $-1 $163 $155 #
plane-surface $-1 -65.883101119042692 0 6.4207866397179405 -1 0 0 0 0 1 forward_v I I I I #
coedge $-1 $249 $318 $159 $245 forward $156 $-1 #
edge $-1 $247 65.050232075060109 $255 72.428096274808041 $244 $319 forward 7 unknown #
coedge $-1 $166 $160 $318 $320 forward $91 $-1 #
vertex $-1 $320 $321 #
straight-curve $-1 -48.386442611041879 48.178420654069768 9.1426573131135456 0 1 0 I I #
coedge $-1 $322 $244 $162 $250 forward $156 $-1 #
edge $-1 $255 19.819056678520734 $253 37.315715186521544 $249 $323 forward 7 unknown #
coedge $-1 $252 $163 $166 $257 reversed $242 $-1 #
coedge $-1 $163 $251 $322 $324 reversed $242 $-1 #
vertex $-1 $324 $325 #
straight-curve $-1 -65.883101119042692 1.5301917931883438 33.903106610522372 0 -0.68199835119979291 0.73135370988377701 I I #
vertex $-1 $250 $326 #
straight-curve $-1 -48.386442611041879 -11.465769907612611 47.839569633735536 0 -0.68199835119979291 0.73135370988377701 I I #
edge $-1 $327 -31.499653244181875 $167 -24.619683741595107 $166 $328 forward 7 unknown #
point $-1 -65.883101119042692 24.619683741595107 9.1426573131135509 #
point $-1 -48.386442611041879 24.619683741595104 9.1426573131135527 #
edge $-1 $329 1 $329 0 $170 $-1 forward 7 unknown #
vertex $-1 $171 $330 #
ellipse-curve $-1 -57.134771865042289 21.542781752338847 -0.62336983932664625 0 0.73135370988377701 0.68199835119979291 2.5 0 0 1 I I #
point $-1 -54.634771865042289 28.059668492888498 5.4537252132395793 #
plane-surface $-1 0 0 9.1426573131135509 0 0 1 1 0 0 forward_v I I I I #
coedge $-1 $275 $274 $267 $331 forward $175 $-1 #
coedge $-1 $267 $177 $179 $271 reversed $106 $-1 #
coedge $-1 $177 $266 $265 $331 reversed $106 $-1 #
coedge $-1 $185 $180 $177 $269 forward $186 $-1 #
edge $-1 $272 -33.836102262971821 $332 -25.470747632419037 $268 $333 forward 7 unknown #
coedge $-1 $179 $178 $275 $334 reversed $66 $-1 #
edge $-1 $335 -2.1431617057057075e-014 $272 10.090440960637707 $266 $336 forward 7 unknown #
vertex $-1 $181 $337 #
straight-curve $-1 -6.4084906455119679 -23.134298613629095 9.1426573131135509 -1 0 0 I I #
coedge $-1 $265 $182 $185 $279 reversed $175 $-1 #
coedge $-1 $182 $265 $270 $334 forward $175 $-1 #
vertex $-1 $183 $338 #
straight-curve $-1 2.9382763634997247 -31.499653244181872 62.862090464659673 0 0 1 I I #
straight-curve $-1 2.9382763634997247 -31.499653244181857 3.5001542617005867 0 -0.82903756765294845 -0.55919291073839883 I I #
edge $-1 $332 -28.572238945547596 $187 2.9382763634997247 $274 $339 forward 7 unknown #
point $-1 2.9382763634997247 -31.499653244181875 9.1426573131135509 #
point $-1 2.9382763634997247 -23.134298613629092 9.1426573131135509 #
edge $-1 $340 1 $340 0 $190 $-1 forward 7 unknown #
vertex $-1 $191 $341 #
ellipse-curve $-1 -12.816981291023936 -23.560807843529307 0.75265769815831318 0 -0.55919291073839883 0.82903756765294845 2 0 0 1 I I #
point $-1 -10.816981291023936 -27.316975928905496 6.3214057874070688 #
plane-surface $-1 73.714407788323626 0 0 -1 0 0 0 0 1 forward_v I I I I #
coedge $-1 $199 $197 $201 $291 reversed $121 $-1 #
edge $-1 $212 -9.1426573131135509 $293 9.1426573131135509 $211 $342 forward 7 unknown #
vertex $-1 $291 $343 #
straight-curve $-1 -73.714407788323626 -31.499653244181875 0 0 0 -1 I I #
edge $-1 $289 -31.499653244181875 $293 31.499653244181875 $287 $344 forward 7 unknown #
straight-curve $-1 0 -31.499653244181875 -9.1426573131135509 -1 0 0 I I #
vertex $-1 $204 $345 #
straight-curve $-1 0 31.499653244181875 -9.1426573131135509 1 0 0 I I #
point $-1 73.714407788323626 31.499653244181875 -9.1426573131135509 #
point $-1 73.714407788323626 -31.499653244181875 -9.1426573131135509 #
straight-curve $-1 -73.714407788323626 0 9.1426573131135509 0 -1 0 I I #
point $-1 -73.714407788323626 31.499653244181875 9.1426573131135509 #
point $-1 -73.714407788323626 -31.499653244181875 9.1426573131135509 #
straight-curve $-1 73.714407788323626 -31.499653244181875 0 0 0 -1 I I #
straight-curve $-1 73.714407788323626 31.499653244181875 0 0 0 -1 I I #
plane-surface $-1 0 -31.499653244181875 0 0 1 0 0 0 1 forward_v I I I I #
coedge $-1 $346 $224 $234 $314 reversed $140 $-1 #
coedge $-1 $224 $346 $237 $316 forward $140 $-1 #
coedge $-1 $347 $227 $225 $306 forward $222 $-1 #
edge $-1 $307 65.883101119042692 $348 73.714407788323626 $225 $349 forward 7 unknown #
vertex $-1 $306 $350 #
straight-curve $-1 -65.883101119042692 31.499653244181875 3.2103933198589703 0 0 -1 I I #
coedge $-1 $227 $347 $229 $311 forward $222 $-1 #
straight-curve $-1 -65.883101119042692 0 9.1426573131135509 0 1 0 I I #
edge $-1 $351 -73.714407788323626 $231 -65.883101119042692 $229 $352 forward 7 unknown #
point $-1 -65.883101119042692 -31.499653244181875 9.1426573131135527 #
straight-curve $-1 -73.714407788323626 0 3.6989159663223292 0 -1 0 I I #
edge $-1 $351 -9.1426573131135509 $235 -3.6989159663223292 $303 $353 forward 7 unknown #
point $-1 -73.714407788323626 -31.499653244181875 3.6989159663223292 #
edge $-1 $348 -9.1426573131135509 $238 -3.6989159663223292 $237 $354 forward 7 unknown #
point $-1 -73.714407788323626 31.499653244181875 3.6989159663223292 #
coedge $-1 $244 $322 $246 $320 reversed $156 $-1 #
straight-curve $-1 -48.386442611041879 31.499653244181872 74.192889388173654 0 0 -1 I I #
edge $-1 $247 48.386442611041879 $327 65.883101119042692 $318 $355 forward 7 unknown #
point $-1 -48.386442611041879 31.499653244181875 9.1426573131135509 #
coedge $-1 $318 $249 $252 $324 forward $156 $-1 #
straight-curve $-1 -28.567385932521145 31.499653244181872 1.7647931133656165 -1 0 0 I I #
edge $-1 $253 -72.428096274808041 $327 -65.050232075060109 $322 $356 forward 7 unknown #
point $-1 -65.883101119042692 31.499653244181872 1.764793113365613 #
point $-1 -48.386442611041879 31.499653244181872 1.764793113365613 #
vertex $-1 $257 $357 #
straight-curve $-1 -65.883101119042692 0 9.1426573131135509 0 -1 0 I I #
vertex $-1 $260 $358 #
point $-1 -54.634771865042289 21.542781752338847 -0.62336983932664625 #
edge $-1 $332 53.71943315154612 $335 59.3619362029591 $265 $359 forward 7 unknown #
vertex $-1 $279 $360 #
straight-curve $-1 -28.572238945547596 -56.970400876600912 9.1426573131135527 0 -1 0 I I #
edge $-1 $335 -22.163748300035628 $276 9.3467670090116926 $275 $361 forward 7 unknown #
vertex $-1 $334 $362 #
straight-curve $-1 -28.572238945547596 -31.499653244181857 3.5001542617005867 0 0.82903756765294845 0.55919291073839883 I I #
point $-1 -28.572238945547596 -23.134298613629092 9.1426573131135509 #
point $-1 2.9382763634997247 -31.499653244181875 3.5001542617005748 #
straight-curve $-1 0 -31.499653244181875 9.1426573131135509 1 0 0 I I #
vertex $-1 $282 $363 #
point $-1 -10.816981291023936 -23.560807843529307 0.75265769815831318 #
straight-curve $-1 -73.714407788323626 31.499653244181875 0 0 0 -1 I I #
point $-1 -73.714407788323626 -31.499653244181875 -9.1426573131135509 #
straight-curve $-1 -73.714407788323626 0 -9.1426573131135509 0 1 0 I I #
point $-1 -73.714407788323626 31.499653244181875 -9.1426573131135509 #
coedge $-1 $304 $303 $347 $364 reversed $140 $-1 #
coedge $-1 $309 $305 $346 $364 forward $222 $-1 #
vertex $-1 $306 $365 #
straight-curve $-1 0 31.499653244181875 9.1426573131135509 -1 0 0 I I #
point $-1 -65.883101119042692 31.499653244181875 9.1426573131135527 #
vertex $-1 $364 $366 #
straight-curve $-1 0 -31.499653244181875 9.1426573131135509 1 0 0 I I #
straight-curve $-1 -73.714407788323626 -31.499653244181875 0 0 0 -1 I I #
straight-curve $-1 -73.714407788323626 31.499653244181875 0 0 0 -1 I I #
straight-curve $-1 0 31.499653244181875 9.1426573131135509 -1 0 0 I I #
straight-curve $-1 -65.883101119042692 31.499653244181872 74.192889388173654 0 0 1 I I #
point $-1 -65.883101119042692 31.499653244181875 9.1426573131135527 #
point $-1 -57.134771865042289 19.714397477629404 -2.3283657173261285 #
straight-curve $-1 -28.572238945547596 -31.499653244181872 62.862090464659673 0 0 -1 I I #
point $-1 -28.572238945547596 -31.499653244181875 9.1426573131135509 #
straight-curve $-1 -6.4084906455119679 -31.499653244181875 3.5001542617005725 1 0 0 I I #
point $-1 -28.572238945547596 -31.499653244181875 3.5001542617005748 #
point $-1 -12.816981291023936 -22.442422022052508 -0.90541743714758438 #
edge $-1 $348 -31.499653244181875 $351 31.499653244181875 $346 $367 forward 7 unknown #
point $-1 -73.714407788323626 31.499653244181875 9.1426573131135509 #
point $-1 -73.714407788323626 -31.499653244181875 9.1426573131135509 #
straight-curve $-1 -73.714407788323626 0 9.1426573131135509 0 -1 0 I I #
End-of-ACIS-data 