500 0 10 0           
7 Unknown 11 ACIS 5.0 NT 24 Fri Mar 26 19:36:28 1999 
-1 9.9999999999999995e-007 1e-010 
body $-1 $10 $-1 $11 #
body $-1 $12 $-1 $13 #
body $-1 $14 $-1 $15 #
body $-1 $16 $-1 $17 #
body $-1 $18 $-1 $19 #
body $-1 $20 $-1 $21 #
body $-1 $22 $-1 $23 #
body $-1 $24 $-1 $25 #
body $-1 $26 $-1 $27 #
body $-1 $28 $-1 $29 #
lump $-1 $-1 $30 $0 #
transform $-1 1 0 0 0 1 0 0 0 1 72.146977141636398 41.411136264740584 10.947215290957653 1 rotate no_reflect no_shear #
lump $-1 $-1 $31 $1 #
transform $-1 1 0 0 0 1 0 0 0 1 72.146977141636398 41.411136264740584 10.947215290957653 1 rotate no_reflect no_shear #
lump $-1 $-1 $32 $2 #
transform $-1 1 0 0 0 1 0 0 0 1 72.146977141636398 41.411136264740584 10.947215290957653 1 rotate no_reflect no_shear #
lump $-1 $-1 $33 $3 #
transform $-1 1 0 0 0 1 0 0 0 1 72.146977141636398 41.411136264740584 10.947215290957653 1 rotate no_reflect no_shear #
lump $-1 $-1 $34 $4 #
transform $-1 1 0 0 0 1 0 0 0 1 72.146977141636398 41.411136264740584 10.947215290957653 1 rotate no_reflect no_shear #
lump $-1 $-1 $35 $5 #
transform $-1 1 0 0 0 1 0 0 0 1 72.146977141636398 41.411136264740584 10.947215290957653 1 rotate no_reflect no_shear #
lump $-1 $-1 $36 $6 #
transform $-1 1 0 0 0 1 0 0 0 1 72.146977141636398 41.411136264740584 10.947215290957653 1 rotate no_reflect no_shear #
lump $-1 $-1 $37 $7 #
transform $-1 1 0 0 0 1 0 0 0 1 72.146977141636398 41.411136264740584 10.947215290957653 1 rotate no_reflect no_shear #
lump $-1 $-1 $38 $8 #
transform $-1 1 0 0 0 1 0 0 0 1 72.146977141636398 41.411136264740584 10.947215290957653 1 rotate no_reflect no_shear #
lump $-1 $-1 $39 $9 #
transform $-1 1 0 0 0 1 0 0 0 1 72.146977141636398 41.411136264740584 10.947215290957653 1 rotate no_reflect no_shear #
shell $-1 $-1 $-1 $40 $-1 $10 #
shell $-1 $-1 $-1 $41 $-1 $12 #
shell $-1 $-1 $-1 $42 $-1 $14 #
shell $-1 $-1 $-1 $43 $-1 $16 #
shell $-1 $-1 $-1 $44 $-1 $18 #
shell $-1 $-1 $-1 $45 $-1 $20 #
shell $-1 $-1 $-1 $46 $-1 $22 #
shell $-1 $-1 $-1 $47 $-1 $24 #
shell $-1 $-1 $-1 $48 $-1 $26 #
shell $-1 $-1 $-1 $49 $-1 $28 #
face $-1 $50 $51 $30 $-1 $52 forward single #
face $-1 $53 $54 $31 $-1 $55 forward single #
face $-1 $56 $57 $32 $-1 $58 reversed single #
face $-1 $59 $60 $33 $-1 $61 forward single #
face $-1 $62 $63 $34 $-1 $64 forward single #
face $-1 $65 $66 $35 $-1 $67 forward single #
face $-1 $68 $69 $36 $-1 $70 reversed single #
face $-1 $71 $72 $37 $-1 $73 forward single #
face $-1 $74 $75 $38 $-1 $76 forward single #
face $-1 $77 $78 $39 $-1 $79 forward single #
face $-1 $80 $81 $30 $-1 $82 reversed single #
loop $-1 $-1 $83 $40 #
plane-surface $-1 0 0 10.947215290957653 0 0 1 1 0 0 forward_v I I I I #
face $-1 $84 $85 $31 $-1 $86 reversed single #
loop $-1 $-1 $87 $41 #
plane-surface $-1 0 -41.411136264740584 0 0 1 0 0 0 1 forward_v I I I I #
face $-1 $88 $89 $32 $-1 $90 reversed single #
loop $-1 $-1 $91 $42 #
plane-surface $-1 -146.46385856544305 -9.1260631353914441 124.19047630748612 0 1 0 -0.51503808176128008 0 0.85716729658548041 forward_v I I I I #
face $-1 $92 $93 $33 $-1 $94 forward single #
loop $-1 $95 $96 $43 #
cone-surface $-1 -62.442326122615682 -6.1860837151328099 4.0351621117243344 0.51503808176128008 0 -0.85716729658548041 0.85716729658548041 0 0.51503808176128008 1 I I 0 1 1 forward I I I I #
face $-1 $97 $98 $34 $-1 $99 forward single #
loop $-1 $100 $101 $44 #
cone-surface $-1 -62.442326122615682 -1.7761145847448532 4.0351621117243344 0.51503808176128008 0 -0.85716729658548041 0.85716729658548041 0 0.51503808176128008 1 I I 0 1 1 forward I I I I #
face $-1 $102 $103 $35 $-1 $104 forward single #
loop $-1 $105 $106 $45 #
cone-surface $-1 -62.442326122615682 2.6338545456431035 4.0351621117243344 0.51503808176128008 0 -0.85716729658548041 0.85716729658548041 0 0.51503808176128008 1 I I 0 1 1 forward I I I I #
face $-1 $107 $108 $36 $-1 $109 reversed single #
loop $-1 $-1 $110 $46 #
plane-surface $-1 22.779799858821221 24.955043525858635 198.23474595764745 0 -1 0 -0.51503808176128008 0 -0.85716729658548041 forward_v I I I I #
face $-1 $111 $112 $37 $-1 $113 forward single #
loop $-1 $114 $115 $47 #
cone-surface $-1 62.621212722169687 9.0452092343322121 4.5741171190508227 -0.51503808176128008 0 -0.85716729658548041 1.2857509448782207 0 -0.77255712264192011 1 I I 0 1 1.5 forward I I I I #
face $-1 $116 $117 $38 $-1 $118 forward single #
loop $-1 $119 $120 $48 #
cone-surface $-1 62.621212722169687 15.011397093654615 4.5741171190508227 -0.51503808176128008 0 -0.85716729658548041 1.2857509448782207 0 -0.77255712264192011 1 I I 0 1 1.5 forward I I I I #
face $-1 $121 $122 $39 $-1 $123 forward single #
loop $-1 $124 $125 $49 #
cone-surface $-1 62.621212722169687 20.977584952977018 4.5741171190508227 -0.51503808176128008 0 -0.85716729658548041 1.2857509448782207 0 -0.77255712264192011 1 I I 0 1 1.5 forward I I I I #
face $-1 $126 $127 $30 $-1 $128 reversed single #
loop $-1 $-1 $129 $50 #
plane-surface $-1 0 0 -10.947215290957653 0 0 1 1 0 0 forward_v I I I I #
coedge $-1 $130 $131 $132 $133 forward $51 $-1 #
face $-1 $134 $135 $31 $-1 $136 reversed single #
loop $-1 $-1 $137 $53 #
plane-surface $-1 0 0 -10.947215290957653 0 0 1 1 0 0 forward_v I I I I #
coedge $-1 $138 $139 $140 $141 forward $54 $-1 #
face $-1 $142 $143 $32 $-1 $144 reversed single #
loop $-1 $-1 $145 $56 #
plane-surface $-1 -72.146977141636384 -1.7761145847448532 0.50641760086428178 -0.51503808176128008 0 0.85716729658548041 0.85716729658548041 0 0.51503808176128008 forward_v I I I I #
coedge $-1 $146 $147 $148 $149 reversed $57 $-1 #
face $-1 $-1 $150 $33 $-1 $151 forward single #
loop $-1 $152 $153 $59 #
cone-surface $-1 -61.168358592912242 -6.1860837151328099 1.9149241292449659 0.51503808176128008 0 -0.85716729658548041 0.4285836482927402 0 0.25751904088064004 1 I I -0.70710678118654746 0.70710678118654746 0.5 forward I I I I #
loop $-1 $-1 $154 $43 #
coedge $-1 $96 $96 $155 $156 reversed $60 $-1 #
face $-1 $-1 $157 $34 $-1 $158 forward single #
loop $-1 $159 $160 $62 #
cone-surface $-1 -61.168358592912242 -1.7761145847448532 1.9149241292449659 0.51503808176128008 0 -0.85716729658548041 0.4285836482927402 0 0.25751904088064004 1 I I -0.70710678118654746 0.70710678118654746 0.5 forward I I I I #
loop $-1 $-1 $161 $44 #
coedge $-1 $101 $101 $162 $163 reversed $63 $-1 #
face $-1 $-1 $164 $35 $-1 $165 forward single #
loop $-1 $166 $167 $65 #
cone-surface $-1 -61.168358592912242 2.6338545456431035 1.9149241292449659 0.51503808176128008 0 -0.85716729658548041 0.4285836482927402 0 0.25751904088064004 1 I I -0.70710678118654746 0.70710678118654746 0.5 forward I I I I #
loop $-1 $-1 $168 $45 #
coedge $-1 $106 $106 $169 $170 reversed $66 $-1 #
face $-1 $171 $172 $36 $-1 $173 reversed single #
loop $-1 $-1 $174 $68 #
plane-surface $-1 -51.537081564985442 15.011397093654622 74.550687251025607 0.51503808176128008 0 0.85716729658548041 0.85716729658548041 0 -0.51503808176128008 forward_v I I I I #
coedge $-1 $175 $176 $177 $178 reversed $69 $-1 #
face $-1 $-1 $179 $37 $-1 $180 forward single #
loop $-1 $181 $182 $71 #
cone-surface $-1 61.624223358235355 9.0452092343322121 2.9148482065742325 -0.51503808176128008 0 -0.85716729658548041 0.64287547243911036 0 -0.38627856132096006 1 I I -0.70710678118654757 0.70710678118654757 0.75 forward I I I I #
loop $-1 $-1 $183 $47 #
coedge $-1 $115 $115 $184 $185 reversed $72 $-1 #
face $-1 $-1 $186 $38 $-1 $187 forward single #
loop $-1 $188 $189 $74 #
cone-surface $-1 61.624223358235355 15.011397093654615 2.9148482065742325 -0.51503808176128008 0 -0.85716729658548041 0.64287547243911036 0 -0.38627856132096006 1 I I -0.70710678118654757 0.70710678118654757 0.75 forward I I I I #
loop $-1 $-1 $190 $48 #
coedge $-1 $120 $120 $191 $192 reversed $75 $-1 #
face $-1 $-1 $193 $39 $-1 $194 forward single #
loop $-1 $195 $196 $77 #
cone-surface $-1 61.624223358235355 20.977584952977018 2.9148482065742325 -0.51503808176128008 0 -0.85716729658548041 0.64287547243911036 0 -0.38627856132096006 1 I I -0.70710678118654757 0.70710678118654757 0.75 forward I I I I #
loop $-1 $-1 $197 $49 #
coedge $-1 $125 $125 $198 $199 reversed $78 $-1 #
face $-1 $200 $201 $30 $-1 $202 reversed single #
loop $-1 $-1 $203 $80 #
plane-surface $-1 0 -41.411136264740584 0 0 1 0 0 0 1 forward_v I I I I #
coedge $-1 $204 $205 $206 $207 forward $81 $-1 #
coedge $-1 $208 $83 $209 $210 forward $51 $-1 #
coedge $-1 $83 $208 $211 $212 forward $51 $-1 #
coedge $-1 $213 $214 $83 $133 reversed $215 $-1 #
edge $-1 $216 -41.411136264740584 $217 41.411136264740584 $132 $218 forward 7 unknown #
face $-1 $219 $220 $31 $-1 $221 reversed single #
loop $-1 $-1 $222 $84 #
plane-surface $-1 -68.409076659797563 -49.663172341653556 0 0 1 0 0 0 1 forward_v I I I I #
coedge $-1 $223 $224 $139 $225 forward $85 $-1 #
coedge $-1 $226 $87 $227 $228 reversed $54 $-1 #
coedge $-1 $87 $226 $137 $225 reversed $54 $-1 #
coedge $-1 $229 $230 $87 $141 reversed $220 $-1 #
edge $-1 $231 -10.947215290957653 $232 10.947215290957653 $140 $233 forward 7 unknown #
face $-1 $234 $235 $32 $-1 $236 reversed single #
loop $-1 $-1 $237 $88 #
plane-surface $-1 -146.46385856544305 5.5738339659017377 124.19047630748612 0 -1 0 0.51503808176128008 0 -0.85716729658548041 forward_v I I I I #
coedge $-1 $238 $239 $240 $241 reversed $89 $-1 #
coedge $-1 $147 $91 $242 $243 reversed $57 $-1 #
coedge $-1 $91 $146 $238 $244 reversed $57 $-1 #
coedge $-1 $240 $245 $91 $149 forward $246 $-1 #
edge $-1 $247 1.0849521410851253 $248 18.461357201480958 $148 $249 forward 7 unknown #
loop $-1 $-1 $155 $92 #
plane-surface $-1 -72.146977141636384 -1.7761145847448532 0.50641760086428178 -0.51503808176128008 0 0.85716729658548041 0.85716729658548041 0 0.51503808176128008 forward_v I I I I #
loop $-1 $-1 $250 $59 #
coedge $-1 $153 $153 $154 $251 reversed $93 $-1 #
coedge $-1 $154 $154 $153 $251 forward $95 $-1 #
coedge $-1 $155 $155 $96 $156 forward $150 $-1 #
edge $-1 $252 0 $252 6.2831853071796004 $155 $253 forward 7 unknown #
loop $-1 $-1 $162 $97 #
plane-surface $-1 -72.146977141636384 -1.7761145847448532 0.50641760086428178 -0.51503808176128008 0 0.85716729658548041 0.85716729658548041 0 0.51503808176128008 forward_v I I I I #
loop $-1 $-1 $254 $62 #
coedge $-1 $160 $160 $161 $255 reversed $98 $-1 #
coedge $-1 $161 $161 $160 $255 forward $100 $-1 #
coedge $-1 $162 $162 $101 $163 forward $157 $-1 #
edge $-1 $256 0 $256 6.2831853071796004 $162 $257 forward 7 unknown #
loop $-1 $-1 $169 $102 #
plane-surface $-1 -72.146977141636384 -1.7761145847448532 0.50641760086428178 -0.51503808176128008 0 0.85716729658548041 0.85716729658548041 0 0.51503808176128008 forward_v I I I I #
loop $-1 $-1 $258 $65 #
coedge $-1 $167 $167 $168 $259 reversed $103 $-1 #
coedge $-1 $168 $168 $167 $259 forward $105 $-1 #
coedge $-1 $169 $169 $106 $170 forward $164 $-1 #
edge $-1 $260 0 $260 6.2831853071796004 $169 $261 forward 7 unknown #
face $-1 $262 $263 $36 $-1 $264 forward single #
loop $-1 $-1 $265 $107 #
plane-surface $-1 22.779799858821221 5.06775066145061 198.23474595764745 0 1 0 0.51503808176128008 0 0.85716729658548041 forward_v I I I I #
coedge $-1 $266 $267 $268 $269 reversed $108 $-1 #
coedge $-1 $176 $110 $270 $271 reversed $69 $-1 #
coedge $-1 $110 $175 $266 $272 reversed $69 $-1 #
coedge $-1 $268 $273 $110 $178 forward $263 $-1 #
edge $-1 $274 -60.757077212225788 $275 -42.926969978519118 $177 $276 forward 7 unknown #
loop $-1 $-1 $184 $111 #
plane-surface $-1 -51.537081564985442 15.011397093654622 74.550687251025607 0.51503808176128008 0 0.85716729658548041 0.85716729658548041 0 -0.51503808176128008 forward_v I I I I #
loop $-1 $-1 $277 $71 #
coedge $-1 $182 $182 $183 $278 reversed $112 $-1 #
coedge $-1 $183 $183 $182 $278 forward $114 $-1 #
coedge $-1 $184 $184 $115 $185 forward $179 $-1 #
edge $-1 $279 0 $279 6.2831853071796004 $184 $280 forward 7 unknown #
loop $-1 $-1 $191 $116 #
plane-surface $-1 -51.537081564985442 15.011397093654622 74.550687251025607 0.51503808176128008 0 0.85716729658548041 0.85716729658548041 0 -0.51503808176128008 forward_v I I I I #
loop $-1 $-1 $281 $74 #
coedge $-1 $189 $189 $190 $282 reversed $117 $-1 #
coedge $-1 $190 $190 $189 $282 forward $119 $-1 #
coedge $-1 $191 $191 $120 $192 forward $186 $-1 #
edge $-1 $283 0 $283 6.2831853071796004 $191 $284 forward 7 unknown #
loop $-1 $-1 $198 $121 #
plane-surface $-1 -51.537081564985442 15.011397093654622 74.550687251025607 0.51503808176128008 0 0.85716729658548041 0.85716729658548041 0 -0.51503808176128008 forward_v I I I I #
loop $-1 $-1 $285 $77 #
coedge $-1 $196 $196 $197 $286 reversed $122 $-1 #
coedge $-1 $197 $197 $196 $286 forward $124 $-1 #
coedge $-1 $198 $198 $125 $199 forward $193 $-1 #
edge $-1 $287 0 $287 6.2831853071796004 $198 $288 forward 7 unknown #
face $-1 $289 $290 $30 $-1 $291 reversed single #
loop $-1 $-1 $292 $126 #
plane-surface $-1 -72.146977141636398 0 0 1 0 0 0 0 -1 forward_v I I I I #
coedge $-1 $293 $211 $294 $295 forward $127 $-1 #
coedge $-1 $296 $129 $293 $297 forward $81 $-1 #
coedge $-1 $129 $296 $298 $299 forward $81 $-1 #
coedge $-1 $214 $213 $129 $207 reversed $215 $-1 #
edge $-1 $300 -41.411136264740584 $301 41.411136264740584 $206 $302 forward 7 unknown #
coedge $-1 $131 $130 $303 $304 forward $51 $-1 #
coedge $-1 $305 $306 $130 $210 reversed $290 $-1 #
edge $-1 $217 -72.146977141636398 $307 72.146977141636398 $209 $308 forward 7 unknown #
coedge $-1 $203 $309 $131 $212 reversed $127 $-1 #
edge $-1 $310 -72.146977141636398 $216 72.146977141636398 $211 $311 forward 7 unknown #
coedge $-1 $206 $132 $309 $312 forward $215 $-1 #
coedge $-1 $132 $206 $305 $313 reversed $215 $-1 #
loop $-1 $-1 $213 $289 #
vertex $-1 $133 $314 #
vertex $-1 $133 $315 #
straight-curve $-1 72.146977141636398 0 10.947215290957653 0 1 0 I I #
face $-1 $316 $317 $31 $-1 $318 reversed single #
loop $-1 $-1 $140 $134 #
plane-surface $-1 -69.909076659797563 -45.53715430319707 0 1 0 0 0 0 -1 forward_v I I I I #
coedge $-1 $319 $320 $321 $322 forward $135 $-1 #
coedge $-1 $323 $137 $324 $325 forward $85 $-1 #
coedge $-1 $137 $323 $229 $326 forward $85 $-1 #
edge $-1 $231 -69.909076659797563 $327 -66.909076659797563 $137 $328 forward 7 unknown #
coedge $-1 $139 $138 $329 $330 forward $54 $-1 #
coedge $-1 $331 $332 $138 $228 forward $333 $-1 #
edge $-1 $334 66.909076659797563 $232 69.909076659797563 $227 $335 forward 7 unknown #
coedge $-1 $321 $140 $224 $326 reversed $220 $-1 #
coedge $-1 $140 $321 $331 $336 reversed $220 $-1 #
vertex $-1 $225 $337 #
vertex $-1 $336 $338 #
straight-curve $-1 -69.909076659797563 -41.411136264740584 0 0 0 1 I I #
face $-1 $-1 $246 $32 $-1 $339 forward single #
loop $-1 $-1 $340 $142 #
plane-surface $-1 -72.146977141636398 0 0 1 0 0 0 0 -1 forward_v I I I I #
coedge $-1 $341 $342 $343 $344 reversed $143 $-1 #
coedge $-1 $345 $145 $147 $244 forward $89 $-1 #
coedge $-1 $145 $345 $341 $346 forward $89 $-1 #
coedge $-1 $343 $148 $145 $241 forward $246 $-1 #
edge $-1 $248 -8.2380058430190175 $347 6.4618912582741643 $240 $348 forward 7 unknown #
coedge $-1 $349 $350 $146 $243 forward $235 $-1 #
edge $-1 $351 -61.588820552878786 $247 -51.14802286278541 $242 $352 forward 7 unknown #
edge $-1 $248 -20.271894564357037 $351 1.6583994872760861e-014 $147 $353 forward 7 unknown #
coedge $-1 $148 $343 $349 $354 forward $246 $-1 #
loop $-1 $-1 $343 $234 #
vertex $-1 $243 $355 #
vertex $-1 $149 $356 #
straight-curve $-1 -73.231929282721524 -9.1260631353914441 10.947215290957651 1 0 0 I I #
coedge $-1 $250 $250 $-1 $357 reversed $152 $-1 #
edge $-1 $358 0 $358 6.2831853071796004 $153 $359 forward 7 unknown #
vertex $-1 $156 $360 #
ellipse-curve $-1 -63.458774611438486 -6.1860837151328099 5.7268164459109618 -0.51503808176128008 0 0.85716729658548041 0.85716729658548041 0 0.51503808176128008 1 I I #
coedge $-1 $254 $254 $-1 $361 reversed $159 $-1 #
edge $-1 $362 0 $362 6.2831853071796004 $160 $363 forward 7 unknown #
vertex $-1 $163 $364 #
ellipse-curve $-1 -63.458774611438486 -1.7761145847448532 5.7268164459109618 -0.51503808176128008 0 0.85716729658548041 0.85716729658548041 0 0.51503808176128008 1 I I #
coedge $-1 $258 $258 $-1 $365 reversed $166 $-1 #
edge $-1 $366 0 $366 6.2831853071796004 $167 $367 forward 7 unknown #
vertex $-1 $170 $368 #
ellipse-curve $-1 -63.458774611438486 2.6338545456431035 5.7268164459109618 -0.51503808176128008 0 0.85716729658548041 0.85716729658548041 0 0.51503808176128008 1 I I #
face $-1 $-1 $369 $36 $-1 $370 reversed single #
loop $-1 $-1 $177 $171 #
plane-surface $-1 0 0 10.947215290957653 0 0 1 1 0 0 forward_v I I I I #
coedge $-1 $371 $372 $373 $374 reversed $172 $-1 #
coedge $-1 $375 $174 $176 $272 forward $108 $-1 #
coedge $-1 $174 $375 $371 $376 forward $108 $-1 #
coedge $-1 $373 $177 $174 $269 forward $263 $-1 #
edge $-1 $275 -17.449344979031324 $377 2.4379478853767012 $268 $378 forward 7 unknown #
coedge $-1 $379 $380 $175 $271 forward $369 $-1 #
edge $-1 $381 -98.88356715160478 $274 -88.170157687866066 $270 $382 forward 7 unknown #
edge $-1 $275 123.49275560860008 $381 144.2939542832728 $176 $383 forward 7 unknown #
coedge $-1 $177 $373 $379 $384 forward $263 $-1 #
vertex $-1 $178 $385 #
vertex $-1 $178 $386 #
straight-curve $-1 11.38989992941061 24.955043525858635 10.947215290957658 -1 0 0 I I #
coedge $-1 $277 $277 $-1 $387 reversed $181 $-1 #
edge $-1 $388 0 $388 6.2831853071796004 $182 $389 forward 7 unknown #
vertex $-1 $185 $390 #
ellipse-curve $-1 63.231923524783056 9.0452092343322121 5.5905105590883046 0.51503808176128008 0 0.85716729658548041 1.2857509448782207 0 -0.77255712264192011 1 I I #
coedge $-1 $281 $281 $-1 $391 reversed $188 $-1 #
edge $-1 $392 0 $392 6.2831853071796004 $189 $393 forward 7 unknown #
vertex $-1 $192 $394 #
ellipse-curve $-1 63.231923524783056 15.011397093654615 5.5905105590883046 0.51503808176128008 0 0.85716729658548041 1.2857509448782207 0 -0.77255712264192011 1 I I #
coedge $-1 $285 $285 $-1 $395 reversed $195 $-1 #
edge $-1 $396 0 $396 6.2831853071796004 $196 $397 forward 7 unknown #
vertex $-1 $199 $398 #
ellipse-curve $-1 63.231923524783056 20.977584952977018 5.5905105590883046 0.51503808176128008 0 0.85716729658548041 1.2857509448782207 0 -0.77255712264192011 1 I I #
face $-1 $-1 $215 $30 $-1 $399 reversed single #
loop $-1 $-1 $305 $200 #
plane-surface $-1 0 41.411136264740584 0 0 -1 0 0 0 -1 forward_v I I I I #
coedge $-1 $400 $303 $306 $401 forward $201 $-1 #
coedge $-1 $309 $203 $204 $297 reversed $127 $-1 #
coedge $-1 $303 $400 $203 $295 reversed $201 $-1 #
edge $-1 $310 -10.947215290957653 $402 10.947215290957653 $294 $403 forward 7 unknown #
coedge $-1 $205 $204 $400 $404 forward $81 $-1 #
edge $-1 $301 -72.146977141636398 $402 72.146977141636398 $293 $405 forward 7 unknown #
coedge $-1 $306 $305 $205 $299 reversed $290 $-1 #
edge $-1 $406 -72.146977141636398 $300 72.146977141636398 $298 $407 forward 7 unknown #
vertex $-1 $207 $408 #
vertex $-1 $312 $409 #
straight-curve $-1 72.146977141636398 0 -10.947215290957653 0 -1 0 I I #
coedge $-1 $292 $294 $208 $304 reversed $201 $-1 #
edge $-1 $307 -41.411136264740584 $310 41.411136264740584 $303 $410 forward 7 unknown #
coedge $-1 $298 $209 $214 $313 forward $290 $-1 #
coedge $-1 $209 $298 $292 $401 reversed $290 $-1 #
vertex $-1 $210 $411 #
straight-curve $-1 0 41.411136264740584 10.947215290957653 -1 0 0 I I #
coedge $-1 $211 $293 $213 $312 reversed $127 $-1 #
vertex $-1 $304 $412 #
straight-curve $-1 0 -41.411136264740584 10.947215290957653 1 0 0 I I #
edge $-1 $216 -10.947215290957653 $301 10.947215290957653 $213 $413 forward 7 unknown #
edge $-1 $217 -10.947215290957653 $300 10.947215290957653 $214 $414 forward 7 unknown #
point $-1 72.146977141636398 -41.411136264740584 10.947215290957653 #
point $-1 72.146977141636398 41.411136264740584 10.947215290957653 #
face $-1 $-1 $333 $31 $-1 $415 forward single #
loop $-1 $-1 $416 $219 #
plane-surface $-1 -66.909076659797563 -45.53715430319707 0 -1 0 0 0 0 1 forward_v I I I I #
coedge $-1 $417 $222 $323 $418 reversed $135 $-1 #
coedge $-1 $222 $417 $419 $420 reversed $135 $-1 #
coedge $-1 $230 $229 $222 $322 reversed $220 $-1 #
edge $-1 $421 -10.947215290957653 $422 10.947215290957653 $321 $423 forward 7 unknown #
coedge $-1 $224 $223 $319 $418 forward $85 $-1 #
coedge $-1 $329 $416 $223 $325 reversed $317 $-1 #
edge $-1 $327 -4.1260180384564862 $424 4.1260180384564862 $324 $425 forward 7 unknown #
edge $-1 $422 -4.1260180384564862 $231 4.1260180384564862 $229 $426 forward 7 unknown #
vertex $-1 $325 $427 #
straight-curve $-1 0 -41.411136264740584 -10.947215290957653 1 0 0 I I #
coedge $-1 $428 $324 $226 $330 reversed $317 $-1 #
edge $-1 $334 -10.947215290957653 $327 10.947215290957653 $329 $429 forward 7 unknown #
coedge $-1 $419 $227 $230 $336 forward $333 $-1 #
coedge $-1 $227 $419 $428 $430 forward $333 $-1 #
loop $-1 $-1 $227 $316 #
vertex $-1 $228 $431 #
straight-curve $-1 0 -41.411136264740584 10.947215290957653 -1 0 0 I I #
edge $-1 $232 -4.1260180384564862 $421 4.1260180384564862 $230 $432 forward 7 unknown #
point $-1 -69.909076659797563 -41.411136264740584 -10.947215290957653 #
point $-1 -69.909076659797563 -41.411136264740584 10.947215290957653 #
plane-surface $-1 0 0 10.947215290957653 0 0 1 1 0 0 forward_v I I I I #
coedge $-1 $350 $349 $342 $433 forward $235 $-1 #
coedge $-1 $342 $237 $239 $346 reversed $143 $-1 #
coedge $-1 $237 $341 $340 $433 reversed $143 $-1 #
coedge $-1 $245 $240 $237 $344 forward $246 $-1 #
edge $-1 $347 -18.461357201480958 $434 -1.0849521410851253 $343 $435 forward 7 unknown #
coedge $-1 $239 $238 $350 $436 reversed $89 $-1 #
edge $-1 $437 -1.6583994872760861e-014 $347 20.271894564357037 $341 $438 forward 7 unknown #
vertex $-1 $241 $439 #
straight-curve $-1 -54.770572081240559 -0.88805729237242659 10.947215290957653 0 1 0 I I #
coedge $-1 $340 $242 $245 $354 reversed $235 $-1 #
coedge $-1 $242 $340 $345 $436 forward $235 $-1 #
vertex $-1 $243 $440 #
straight-curve $-1 -72.146977141636398 -9.1260631353914441 62.095238153743061 0 0 1 I I #
straight-curve $-1 -72.146977141636384 -9.1260631353914441 0.50641760086428178 -0.85716729658548041 0 -0.51503808176128008 I I #
edge $-1 $434 -5.5738339659017377 $247 9.1260631353914441 $349 $441 forward 7 unknown #
point $-1 -72.146977141636398 -9.1260631353914441 10.947215290957653 #
point $-1 -54.770572081240566 -9.1260631353914441 10.947215290957653 #
edge $-1 $442 1 $442 0 $250 $-1 forward 7 unknown #
vertex $-1 $251 $443 #
ellipse-curve $-1 -61.425877633792879 -6.1860837151328099 2.343507777537706 -0.51503808176128008 0 0.85716729658548041 0.85716729658548041 0 0.51503808176128008 1 I I #
point $-1 -62.601607314852998 -6.1860837151328099 6.2418545276722419 #
edge $-1 $444 1 $444 0 $254 $-1 forward 7 unknown #
vertex $-1 $255 $445 #
ellipse-curve $-1 -61.425877633792879 -1.7761145847448532 2.343507777537706 -0.51503808176128008 0 0.85716729658548041 0.85716729658548041 0 0.51503808176128008 1 I I #
point $-1 -62.601607314852998 -1.7761145847448532 6.2418545276722419 #
edge $-1 $446 1 $446 0 $258 $-1 forward 7 unknown #
vertex $-1 $259 $447 #
ellipse-curve $-1 -61.425877633792879 2.6338545456431035 2.343507777537706 -0.51503808176128008 0 0.85716729658548041 0.85716729658548041 0 0.51503808176128008 1 I I #
point $-1 -62.601607314852998 2.6338545456431035 6.2418545276722419 #
loop $-1 $-1 $270 $262 #
plane-surface $-1 72.146977141636398 0 0 -1 0 0 0 0 1 forward_v I I I I #
coedge $-1 $372 $265 $267 $376 reversed $172 $-1 #
coedge $-1 $265 $371 $448 $449 reversed $172 $-1 #
coedge $-1 $273 $268 $265 $374 forward $263 $-1 #
edge $-1 $377 42.926969978519118 $450 60.757077212225788 $373 $451 forward 7 unknown #
coedge $-1 $267 $266 $380 $452 reversed $108 $-1 #
edge $-1 $453 -144.2939542832728 $377 -123.49275560860008 $371 $454 forward 7 unknown #
vertex $-1 $269 $455 #
straight-curve $-1 54.316869907929735 7.5056985468273112 10.947215290957644 0 -1 0 I I #
coedge $-1 $448 $270 $273 $384 reversed $369 $-1 #
coedge $-1 $270 $448 $375 $452 forward $369 $-1 #
vertex $-1 $271 $456 #
straight-curve $-1 72.146977141636398 24.955043525858635 99.117372978823724 0 0 1 I I #
straight-curve $-1 -51.537081564985442 24.955043525858635 74.550687251025607 0.85716729658548041 0 -0.51503808176128008 I I #
edge $-1 $450 5.06775066145061 $274 24.955043525858635 $379 $457 forward 7 unknown #
point $-1 72.146977141636398 24.955043525858635 10.947215290957653 #
point $-1 54.316869907929728 24.955043525858635 10.947215290957651 #
edge $-1 $458 1 $458 0 $277 $-1 forward 7 unknown #
vertex $-1 $278 $459 #
ellipse-curve $-1 62.010501919556312 9.0452092343322121 3.5577236790133426 0.51503808176128008 0 0.85716729658548041 1.2857509448782207 0 -0.77255712264192011 1 I I #
point $-1 64.517674469661273 9.0452092343322121 4.8179534364463823 #
edge $-1 $460 1 $460 0 $281 $-1 forward 7 unknown #
vertex $-1 $282 $461 #
ellipse-curve $-1 62.010501919556312 15.011397093654615 3.5577236790133426 0.51503808176128008 0 0.85716729658548041 1.2857509448782207 0 -0.77255712264192011 1 I I #
point $-1 64.517674469661273 15.011397093654615 4.8179534364463823 #
edge $-1 $462 1 $462 0 $285 $-1 forward 7 unknown #
vertex $-1 $286 $463 #
ellipse-curve $-1 62.010501919556312 20.977584952977018 3.5577236790133426 0.51503808176128008 0 0.85716729658548041 1.2857509448782207 0 -0.77255712264192011 1 I I #
point $-1 64.517674469661273 20.977584952977018 4.8179534364463823 #
plane-surface $-1 72.146977141636398 0 0 -1 0 0 0 0 1 forward_v I I I I #
coedge $-1 $294 $292 $296 $404 reversed $201 $-1 #
edge $-1 $307 -10.947215290957653 $406 10.947215290957653 $306 $464 forward 7 unknown #
vertex $-1 $404 $465 #
straight-curve $-1 -72.146977141636398 -41.411136264740584 0 0 0 -1 I I #
edge $-1 $402 -41.411136264740584 $406 41.411136264740584 $400 $466 forward 7 unknown #
straight-curve $-1 0 -41.411136264740584 -10.947215290957653 -1 0 0 I I #
vertex $-1 $299 $467 #
straight-curve $-1 0 41.411136264740584 -10.947215290957653 1 0 0 I I #
point $-1 72.146977141636398 41.411136264740584 -10.947215290957653 #
point $-1 72.146977141636398 -41.411136264740584 -10.947215290957653 #
straight-curve $-1 -72.146977141636398 0 10.947215290957653 0 -1 0 I I #
point $-1 -72.146977141636398 41.411136264740584 10.947215290957653 #
point $-1 -72.146977141636398 -41.411136264740584 10.947215290957653 #
straight-curve $-1 72.146977141636398 -41.411136264740584 0 0 0 -1 I I #
straight-curve $-1 72.146977141636398 41.411136264740584 0 0 0 -1 I I #
plane-surface $-1 0 0 10.947215290957653 0 0 1 1 0 0 forward_v I I I I #
coedge $-1 $324 $428 $417 $468 forward $317 $-1 #
coedge $-1 $320 $319 $416 $468 reversed $135 $-1 #
edge $-1 $424 -1.5 $422 1.5 $319 $469 forward 7 unknown #
coedge $-1 $332 $331 $320 $420 forward $333 $-1 #
edge $-1 $421 -1.5 $470 1.5 $320 $471 forward 7 unknown #
vertex $-1 $336 $472 #
vertex $-1 $326 $473 #
straight-curve $-1 -69.909076659797563 -49.663172341653556 0 0 0 -1 I I #
vertex $-1 $468 $474 #
straight-curve $-1 -66.909076659797563 -45.53715430319707 -10.947215290957653 0 -1 0 I I #
straight-curve $-1 -69.909076659797563 -45.53715430319707 -10.947215290957653 0 1 0 I I #
point $-1 -66.909076659797563 -41.411136264740584 -10.947215290957653 #
coedge $-1 $416 $329 $332 $430 reversed $317 $-1 #
straight-curve $-1 -66.909076659797563 -41.411136264740584 0 0 0 -1 I I #
edge $-1 $470 -4.1260180384564862 $334 4.1260180384564862 $428 $475 forward 7 unknown #
point $-1 -66.909076659797563 -41.411136264740584 10.947215290957653 #
straight-curve $-1 -69.909076659797563 -45.53715430319707 10.947215290957653 0 -1 0 I I #
edge $-1 $434 51.14802286278541 $437 61.588820552878786 $340 $476 forward 7 unknown #
vertex $-1 $354 $477 #
straight-curve $-1 -73.231929282721524 5.5738339659017377 10.947215290957651 -1 0 0 I I #
edge $-1 $437 -6.4618912582741643 $351 8.2380058430190175 $350 $478 forward 7 unknown #
vertex $-1 $436 $479 #
straight-curve $-1 -72.146977141636384 5.5738339659017377 0.50641760086428178 0.85716729658548041 0 0.51503808176128008 I I #
point $-1 -54.770572081240566 5.5738339659017377 10.947215290957653 #
point $-1 -72.146977141636398 -9.1260631353914441 0.50641760086427323 #
straight-curve $-1 -72.146977141636398 0 10.947215290957653 0 -1 0 I I #
vertex $-1 $357 $480 #
point $-1 -60.568710337207399 -6.1860837151328099 2.8585458592989861 #
vertex $-1 $361 $481 #
point $-1 -60.568710337207399 -1.7761145847448532 2.8585458592989861 #
vertex $-1 $365 $482 #
point $-1 -60.568710337207399 2.6338545456431035 2.8585458592989861 #
coedge $-1 $380 $379 $372 $449 forward $369 $-1 #
edge $-1 $450 88.170157687866066 $453 98.88356715160478 $448 $483 forward 7 unknown #
vertex $-1 $384 $484 #
straight-curve $-1 11.38989992941061 5.06775066145061 10.947215290957658 1 0 0 I I #
edge $-1 $453 -2.4379478853767012 $381 17.449344979031324 $380 $485 forward 7 unknown #
vertex $-1 $452 $486 #
straight-curve $-1 -51.537081564985442 5.06775066145061 74.550687251025607 -0.85716729658548041 0 0.51503808176128008 I I #
point $-1 54.316869907929728 5.06775066145061 10.947215290957651 #
point $-1 72.146977141636398 24.955043525858635 0.23380582721894427 #
straight-curve $-1 72.146977141636398 0 10.947215290957653 0 1 0 I I #
vertex $-1 $387 $487 #
point $-1 63.296252864434535 9.0452092343322121 2.785166556371423 #
vertex $-1 $391 $488 #
point $-1 63.296252864434535 15.011397093654615 2.785166556371423 #
vertex $-1 $395 $489 #
point $-1 63.296252864434535 20.977584952977018 2.785166556371423 #
straight-curve $-1 -72.146977141636398 41.411136264740584 0 0 0 -1 I I #
point $-1 -72.146977141636398 -41.411136264740584 -10.947215290957653 #
straight-curve $-1 -72.146977141636398 0 -10.947215290957653 0 1 0 I I #
point $-1 -72.146977141636398 41.411136264740584 -10.947215290957653 #
edge $-1 $470 -10.947215290957653 $424 10.947215290957653 $416 $490 forward 7 unknown #
straight-curve $-1 -68.409076659797563 -49.663172341653556 -10.947215290957653 -1 0 0 I I #
vertex $-1 $430 $491 #
straight-curve $-1 -68.409076659797563 -49.663172341653556 10.947215290957653 1 0 0 I I #
point $-1 -69.909076659797563 -49.663172341653556 10.947215290957653 #
point $-1 -69.909076659797563 -49.663172341653556 -10.947215290957653 #
point $-1 -66.909076659797563 -49.663172341653556 -10.947215290957653 #
straight-curve $-1 -66.909076659797563 -45.53715430319707 10.947215290957653 0 1 0 I I #
straight-curve $-1 -72.146977141636398 5.5738339659017377 62.095238153743061 0 0 -1 I I #
point $-1 -72.146977141636398 5.5738339659017377 10.947215290957653 #
straight-curve $-1 -72.146977141636398 -0.88805729237242659 0.50641760086427523 0 -1 0 I I #
point $-1 -72.146977141636398 5.5738339659017377 0.50641760086427323 #
point $-1 -60.910839552031604 -6.1860837151328099 1.4863404809522258 #
point $-1 -60.910839552031604 -1.7761145847448532 1.4863404809522258 #
point $-1 -60.910839552031604 2.6338545456431035 1.4863404809522258 #
straight-curve $-1 72.146977141636398 5.06775066145061 99.117372978823724 0 0 -1 I I #
point $-1 72.146977141636398 5.06775066145061 10.947215290957653 #
straight-curve $-1 72.146977141636398 7.5056985468273112 0.23380582721895138 0 1 0 I I #
point $-1 72.146977141636398 5.06775066145061 0.23380582721894427 #
point $-1 61.237944796914398 9.0452092343322121 2.2719727341351224 #
point $-1 61.237944796914398 15.011397093654615 2.2719727341351224 #
point $-1 61.237944796914398 20.977584952977018 2.2719727341351224 #
straight-curve $-1 -66.909076659797563 -49.663172341653556 0 0 0 -1 I I #
point $-1 -66.909076659797563 -49.663172341653556 10.947215290957653 #
End-of-ACIS-data 