500 0 7 0           
7 Unknown 11 ACIS 5.0 NT 24 Thu Mar 25 15:43:35 1999 
-1 9.9999999999999995e-007 1e-010 
body $-1 $7 $-1 $8 #
body $-1 $9 $-1 $10 #
body $-1 $11 $-1 $12 #
body $-1 $13 $-1 $14 #
body $-1 $15 $-1 $16 #
body $-1 $17 $-1 $18 #
body $-1 $19 $-1 $20 #
lump $-1 $-1 $21 $0 #
transform $-1 1 0 0 0 1 0 0 0 1 61.505783257545701 41.56178174108863 11.149902108677622 1 rotate no_reflect no_shear #
lump $-1 $-1 $22 $1 #
transform $-1 1 0 0 0 0.83867056331134215 -0.54463904215088732 0 0.54463904215088732 0.83867056331134215 55.220631763016947 80.407179432393093 161.33495184295046 1 rotate no_reflect no_shear #
lump $-1 $-1 $23 $2 #
transform $-1 1 0 0 0 -0.83867056331134215 0.54463904215088732 0 -0.54463904215088732 -0.83867056331134215 55.220631763016947 66.613254274552986 3.3230334367043639 1 rotate no_reflect no_shear #
lump $-1 $-1 $24 $3 #
transform $-1 1 0 0 0 0.69465836192734942 0.71933980857756763 0 -0.71933980857756763 0.69465836192734942 15.537848981794953 -88.487116709792588 104.20462209989408 1 rotate no_reflect no_shear #
lump $-1 $-1 $25 $4 #
transform $-1 1 0 0 0 -0.69465836192734942 -0.71933980857756763 0 0.71933980857756763 -0.69465836192734942 15.537848981794953 2.9861979855846954 19.296479421268277 1 rotate no_reflect no_shear #
lump $-1 $-1 $26 $5 #
transform $-1 1 0 0 0 0.69465836192734942 0.71933980857756763 0 -0.71933980857756763 0.69465836192734942 107.47371753329645 -88.487116709792588 104.20462209989408 1 rotate no_reflect no_shear #
lump $-1 $-1 $27 $6 #
transform $-1 1 0 0 0 -0.69465836192734942 -0.71933980857756763 0 0.71933980857756763 -0.69465836192734942 107.47371753329645 2.9861979855846954 19.296479421268277 1 rotate no_reflect no_shear #
shell $-1 $-1 $-1 $28 $-1 $7 #
shell $-1 $-1 $-1 $29 $-1 $9 #
shell $-1 $-1 $-1 $30 $-1 $11 #
shell $-1 $-1 $-1 $31 $-1 $13 #
shell $-1 $-1 $-1 $32 $-1 $15 #
shell $-1 $-1 $-1 $33 $-1 $17 #
shell $-1 $-1 $-1 $34 $-1 $19 #
face $-1 $35 $36 $21 $-1 $37 forward single #
face $-1 $38 $39 $22 $-1 $40 forward single #
face $-1 $41 $42 $23 $-1 $43 forward single #
face $-1 $44 $45 $24 $-1 $46 forward single #
face $-1 $47 $48 $25 $-1 $49 forward single #
face $-1 $50 $51 $26 $-1 $52 forward single #
face $-1 $53 $54 $27 $-1 $55 forward single #
face $-1 $56 $57 $21 $-1 $58 reversed single #
loop $-1 $-1 $59 $28 #
plane-surface $-1 0 0 11.149902108677622 0 0 1 1 0 0 forward_v I I I I #
face $-1 $60 $61 $22 $-1 $62 reversed single #
loop $-1 $-1 $63 $29 #
plane-surface $-1 0 0 123.0115665150914 0 0 1 1 0 0 forward_v I I I I #
face $-1 $64 $65 $23 $-1 $66 forward single #
loop $-1 $67 $68 $30 #
cone-surface $-1 0 0 -9.5105441450239567 0 0 1 4 0 0 1 I I 0 1 4 forward I I I I #
face $-1 $69 $70 $24 $-1 $71 reversed single #
loop $-1 $-1 $72 $31 #
plane-surface $-1 0 0 123.01156651509142 0 0 1 1 0 0 forward_v I I I I #
face $-1 $73 $74 $25 $-1 $75 forward single #
loop $-1 $76 $77 $32 #
cone-surface $-1 0 0 -1.0104907376323737 0 0 1 0.5 0 0 1 I I 0 1 0.5 forward I I I I #
face $-1 $78 $79 $26 $-1 $80 reversed single #
loop $-1 $-1 $81 $33 #
plane-surface $-1 0 0 123.01156651509142 0 0 1 1 0 0 forward_v I I I I #
face $-1 $82 $83 $27 $-1 $84 forward single #
loop $-1 $85 $86 $34 #
cone-surface $-1 0 0 -1.0104907376323737 0 0 1 0.5 0 0 1 I I 0 1 0.5 forward I I I I #
face $-1 $87 $88 $21 $-1 $89 reversed single #
loop $-1 $-1 $90 $35 #
plane-surface $-1 0 0 -11.149902108677622 0 0 1 1 0 0 forward_v I I I I #
coedge $-1 $91 $92 $93 $94 forward $36 $-1 #
face $-1 $95 $96 $22 $-1 $97 reversed single #
loop $-1 $-1 $98 $38 #
plane-surface $-1 0 0 -123.0115665150914 0 0 1 1 0 0 forward_v I I I I #
coedge $-1 $99 $100 $101 $102 forward $39 $-1 #
face $-1 $-1 $103 $23 $-1 $104 forward single #
loop $-1 $-1 $105 $41 #
plane-surface $-1 0 0 -17.021088290047913 0 0 -1 -1 0 0 forward_v I I I I #
loop $-1 $-1 $106 $30 #
coedge $-1 $68 $68 $105 $107 reversed $42 $-1 #
face $-1 $108 $109 $24 $-1 $110 reversed single #
loop $-1 $-1 $111 $44 #
plane-surface $-1 0 0 -123.01156651509142 0 0 1 1 0 0 forward_v I I I I #
coedge $-1 $112 $113 $114 $115 forward $45 $-1 #
face $-1 $-1 $116 $25 $-1 $117 forward single #
loop $-1 $-1 $118 $47 #
plane-surface $-1 0 0 -1.7709814752647475 0 0 -1 -1 0 0 forward_v I I I I #
loop $-1 $-1 $119 $32 #
coedge $-1 $77 $77 $118 $120 reversed $48 $-1 #
face $-1 $121 $122 $26 $-1 $123 reversed single #
loop $-1 $-1 $124 $50 #
plane-surface $-1 0 0 -123.01156651509142 0 0 1 1 0 0 forward_v I I I I #
coedge $-1 $125 $126 $127 $128 forward $51 $-1 #
face $-1 $-1 $129 $27 $-1 $130 forward single #
loop $-1 $-1 $131 $53 #
plane-surface $-1 0 0 -1.7709814752647475 0 0 -1 -1 0 0 forward_v I I I I #
loop $-1 $-1 $132 $34 #
coedge $-1 $86 $86 $131 $133 reversed $54 $-1 #
face $-1 $134 $135 $21 $-1 $136 reversed single #
loop $-1 $-1 $137 $56 #
plane-surface $-1 0 -41.56178174108863 0 0 1 0 0 0 1 forward_v I I I I #
coedge $-1 $138 $139 $140 $141 forward $57 $-1 #
coedge $-1 $142 $59 $143 $144 forward $36 $-1 #
coedge $-1 $59 $142 $145 $146 forward $36 $-1 #
coedge $-1 $147 $148 $59 $94 reversed $149 $-1 #
edge $-1 $150 -41.56178174108863 $151 41.56178174108863 $93 $152 forward 7 unknown #
face $-1 $153 $154 $22 $-1 $155 reversed single #
loop $-1 $-1 $156 $60 #
plane-surface $-1 0 -246.02313303018281 0 0 1 0 0 0 1 forward_v I I I I #
coedge $-1 $157 $158 $159 $160 forward $61 $-1 #
coedge $-1 $161 $63 $162 $163 forward $39 $-1 #
coedge $-1 $63 $161 $164 $165 forward $39 $-1 #
coedge $-1 $166 $167 $63 $102 reversed $168 $-1 #
edge $-1 $169 -246.02313303018281 $170 246.02313303018281 $101 $171 forward 7 unknown #
loop $-1 $172 $173 $64 #
cone-surface $-1 0 0 0 0 0 1 2 0 0 1 I I -0.70710678118654746 0.70710678118654746 2 forward I I I I #
coedge $-1 $105 $105 $68 $107 forward $65 $-1 #
coedge $-1 $106 $106 $173 $174 forward $67 $-1 #
edge $-1 $175 0 $175 6.2831853071796004 $105 $176 forward 7 unknown #
face $-1 $177 $178 $24 $-1 $179 reversed single #
loop $-1 $-1 $180 $69 #
plane-surface $-1 0 -246.02313303018281 0 0 1 0 0 0 1 forward_v I I I I #
coedge $-1 $181 $182 $183 $184 forward $70 $-1 #
coedge $-1 $185 $72 $186 $187 forward $45 $-1 #
coedge $-1 $72 $185 $188 $189 forward $45 $-1 #
coedge $-1 $190 $191 $72 $115 reversed $192 $-1 #
edge $-1 $193 -246.02313303018281 $194 246.02313303018281 $114 $195 forward 7 unknown #
loop $-1 $196 $197 $73 #
cone-surface $-1 0 0 0 0 0 1 0.25 0 0 1 I I -0.70710678118654746 0.70710678118654746 0.25 forward I I I I #
coedge $-1 $118 $118 $77 $120 forward $74 $-1 #
coedge $-1 $119 $119 $197 $198 forward $76 $-1 #
edge $-1 $199 0 $199 6.2831853071796004 $118 $200 forward 7 unknown #
face $-1 $201 $202 $26 $-1 $203 reversed single #
loop $-1 $-1 $204 $78 #
plane-surface $-1 0 -246.02313303018281 0 0 1 0 0 0 1 forward_v I I I I #
coedge $-1 $205 $206 $207 $208 forward $79 $-1 #
coedge $-1 $209 $81 $210 $211 forward $51 $-1 #
coedge $-1 $81 $209 $212 $213 forward $51 $-1 #
coedge $-1 $214 $215 $81 $128 reversed $216 $-1 #
edge $-1 $217 -246.02313303018281 $218 246.02313303018281 $127 $219 forward 7 unknown #
loop $-1 $220 $221 $82 #
cone-surface $-1 0 0 0 0 0 1 0.25 0 0 1 I I -0.70710678118654746 0.70710678118654746 0.25 forward I I I I #
coedge $-1 $131 $131 $86 $133 forward $83 $-1 #
coedge $-1 $132 $132 $221 $222 forward $85 $-1 #
edge $-1 $223 0 $223 6.2831853071796004 $131 $224 forward 7 unknown #
face $-1 $225 $226 $21 $-1 $227 reversed single #
loop $-1 $-1 $228 $87 #
plane-surface $-1 -61.505783257545701 0 0 1 0 0 0 0 -1 forward_v I I I I #
coedge $-1 $229 $145 $230 $231 forward $88 $-1 #
coedge $-1 $232 $90 $229 $233 forward $57 $-1 #
coedge $-1 $90 $232 $234 $235 forward $57 $-1 #
coedge $-1 $148 $147 $90 $141 reversed $149 $-1 #
edge $-1 $236 -41.56178174108863 $237 41.56178174108863 $140 $238 forward 7 unknown #
coedge $-1 $92 $91 $239 $240 forward $36 $-1 #
coedge $-1 $241 $242 $91 $144 reversed $226 $-1 #
edge $-1 $151 -61.505783257545701 $243 61.505783257545701 $143 $244 forward 7 unknown #
coedge $-1 $137 $245 $92 $146 reversed $88 $-1 #
edge $-1 $246 -61.505783257545701 $150 61.505783257545701 $145 $247 forward 7 unknown #
coedge $-1 $140 $93 $245 $248 forward $149 $-1 #
coedge $-1 $93 $140 $241 $249 reversed $149 $-1 #
loop $-1 $-1 $147 $225 #
vertex $-1 $94 $250 #
vertex $-1 $94 $251 #
straight-curve $-1 61.505783257545701 0 11.149902108677622 0 1 0 I I #
face $-1 $252 $253 $22 $-1 $254 reversed single #
loop $-1 $-1 $255 $95 #
plane-surface $-1 -16.51985985507779 0 0 1 0 0 0 0 -1 forward_v I I I I #
coedge $-1 $256 $164 $257 $258 forward $96 $-1 #
coedge $-1 $259 $98 $256 $260 forward $61 $-1 #
coedge $-1 $98 $259 $261 $262 forward $61 $-1 #
coedge $-1 $167 $166 $98 $160 reversed $168 $-1 #
edge $-1 $263 -246.02313303018281 $264 246.02313303018281 $159 $265 forward 7 unknown #
coedge $-1 $100 $99 $266 $267 forward $39 $-1 #
coedge $-1 $268 $269 $99 $163 reversed $253 $-1 #
edge $-1 $170 -16.51985985507779 $270 16.51985985507779 $162 $271 forward 7 unknown #
coedge $-1 $156 $272 $100 $165 reversed $96 $-1 #
edge $-1 $273 -16.51985985507779 $169 16.51985985507779 $164 $274 forward 7 unknown #
coedge $-1 $159 $101 $272 $275 forward $168 $-1 #
coedge $-1 $101 $159 $268 $276 reversed $168 $-1 #
loop $-1 $-1 $166 $252 #
vertex $-1 $102 $277 #
vertex $-1 $102 $278 #
straight-curve $-1 16.51985985507779 0 123.0115665150914 0 1 0 I I #
loop $-1 $-1 $279 $64 #
coedge $-1 $173 $173 $106 $174 reversed $103 $-1 #
edge $-1 $280 0 $280 6.2831853071796004 $173 $281 forward 7 unknown #
vertex $-1 $107 $282 #
ellipse-curve $-1 0 0 -17.021088290047913 0 0 -1 4 0 0 1 I I #
face $-1 $283 $284 $24 $-1 $285 reversed single #
loop $-1 $-1 $286 $108 #
plane-surface $-1 -11.064358635566366 0 0 1 0 0 0 0 -1 forward_v I I I I #
coedge $-1 $287 $188 $288 $289 forward $109 $-1 #
coedge $-1 $290 $111 $287 $291 forward $70 $-1 #
coedge $-1 $111 $290 $292 $293 forward $70 $-1 #
coedge $-1 $191 $190 $111 $184 reversed $192 $-1 #
edge $-1 $294 -246.02313303018281 $295 246.02313303018281 $183 $296 forward 7 unknown #
coedge $-1 $113 $112 $297 $298 forward $45 $-1 #
coedge $-1 $299 $300 $112 $187 reversed $284 $-1 #
edge $-1 $194 -11.064358635566366 $301 11.064358635566366 $186 $302 forward 7 unknown #
coedge $-1 $180 $303 $113 $189 reversed $109 $-1 #
edge $-1 $304 -11.064358635566366 $193 11.064358635566366 $188 $305 forward 7 unknown #
coedge $-1 $183 $114 $303 $306 forward $192 $-1 #
coedge $-1 $114 $183 $299 $307 reversed $192 $-1 #
loop $-1 $-1 $190 $283 #
vertex $-1 $115 $308 #
vertex $-1 $115 $309 #
straight-curve $-1 11.064358635566366 0 123.01156651509142 0 1 0 I I #
loop $-1 $-1 $310 $73 #
coedge $-1 $197 $197 $119 $198 reversed $116 $-1 #
edge $-1 $311 0 $311 6.2831853071796004 $197 $312 forward 7 unknown #
vertex $-1 $120 $313 #
ellipse-curve $-1 0 0 -1.7709814752647475 0 0 -1 0.5 0 0 1 I I #
face $-1 $314 $315 $26 $-1 $316 reversed single #
loop $-1 $-1 $317 $121 #
plane-surface $-1 -11.064358635566366 0 0 1 0 0 0 0 -1 forward_v I I I I #
coedge $-1 $318 $212 $319 $320 forward $122 $-1 #
coedge $-1 $321 $124 $318 $322 forward $79 $-1 #
coedge $-1 $124 $321 $323 $324 forward $79 $-1 #
coedge $-1 $215 $214 $124 $208 reversed $216 $-1 #
edge $-1 $325 -246.02313303018281 $326 246.02313303018281 $207 $327 forward 7 unknown #
coedge $-1 $126 $125 $328 $329 forward $51 $-1 #
coedge $-1 $330 $331 $125 $211 reversed $315 $-1 #
edge $-1 $218 -11.064358635566366 $332 11.064358635566366 $210 $333 forward 7 unknown #
coedge $-1 $204 $334 $126 $213 reversed $122 $-1 #
edge $-1 $335 -11.064358635566366 $217 11.064358635566366 $212 $336 forward 7 unknown #
coedge $-1 $207 $127 $334 $337 forward $216 $-1 #
coedge $-1 $127 $207 $330 $338 reversed $216 $-1 #
loop $-1 $-1 $214 $314 #
vertex $-1 $128 $339 #
vertex $-1 $128 $340 #
straight-curve $-1 11.064358635566366 0 123.01156651509142 0 1 0 I I #
loop $-1 $-1 $341 $82 #
coedge $-1 $221 $221 $132 $222 reversed $129 $-1 #
edge $-1 $342 0 $342 6.2831853071796004 $221 $343 forward 7 unknown #
vertex $-1 $133 $344 #
ellipse-curve $-1 0 0 -1.7709814752647475 0 0 -1 0.5 0 0 1 I I #
face $-1 $-1 $149 $21 $-1 $345 reversed single #
loop $-1 $-1 $241 $134 #
plane-surface $-1 0 41.56178174108863 0 0 -1 0 0 0 -1 forward_v I I I I #
coedge $-1 $346 $239 $242 $347 forward $135 $-1 #
coedge $-1 $245 $137 $138 $233 reversed $88 $-1 #
coedge $-1 $239 $346 $137 $231 reversed $135 $-1 #
edge $-1 $246 -11.149902108677622 $348 11.149902108677622 $230 $349 forward 7 unknown #
coedge $-1 $139 $138 $346 $350 forward $57 $-1 #
edge $-1 $237 -61.505783257545701 $348 61.505783257545701 $229 $351 forward 7 unknown #
coedge $-1 $242 $241 $139 $235 reversed $226 $-1 #
edge $-1 $352 -61.505783257545701 $236 61.505783257545701 $234 $353 forward 7 unknown #
vertex $-1 $141 $354 #
vertex $-1 $248 $355 #
straight-curve $-1 61.505783257545701 0 -11.149902108677622 0 -1 0 I I #
coedge $-1 $228 $230 $142 $240 reversed $135 $-1 #
edge $-1 $243 -41.56178174108863 $246 41.56178174108863 $239 $356 forward 7 unknown #
coedge $-1 $234 $143 $148 $249 forward $226 $-1 #
coedge $-1 $143 $234 $228 $347 reversed $226 $-1 #
vertex $-1 $144 $357 #
straight-curve $-1 0 41.56178174108863 11.149902108677622 -1 0 0 I I #
coedge $-1 $145 $229 $147 $248 reversed $88 $-1 #
vertex $-1 $240 $358 #
straight-curve $-1 0 -41.56178174108863 11.149902108677622 1 0 0 I I #
edge $-1 $150 -11.149902108677622 $237 11.149902108677622 $147 $359 forward 7 unknown #
edge $-1 $151 -11.149902108677622 $236 11.149902108677622 $148 $360 forward 7 unknown #
point $-1 61.505783257545701 -41.56178174108863 11.149902108677622 #
point $-1 61.505783257545701 41.56178174108863 11.149902108677622 #
face $-1 $-1 $168 $22 $-1 $361 reversed single #
loop $-1 $-1 $268 $153 #
plane-surface $-1 0 246.02313303018281 0 0 -1 0 0 0 -1 forward_v I I I I #
coedge $-1 $362 $266 $269 $363 forward $154 $-1 #
coedge $-1 $272 $156 $157 $260 reversed $96 $-1 #
coedge $-1 $266 $362 $156 $258 reversed $154 $-1 #
edge $-1 $273 -123.0115665150914 $364 123.0115665150914 $257 $365 forward 7 unknown #
coedge $-1 $158 $157 $362 $366 forward $61 $-1 #
edge $-1 $264 -16.51985985507779 $364 16.51985985507779 $256 $367 forward 7 unknown #
coedge $-1 $269 $268 $158 $262 reversed $253 $-1 #
edge $-1 $368 -16.51985985507779 $263 16.51985985507779 $261 $369 forward 7 unknown #
vertex $-1 $160 $370 #
vertex $-1 $275 $371 #
straight-curve $-1 16.51985985507779 0 -123.0115665150914 0 -1 0 I I #
coedge $-1 $255 $257 $161 $267 reversed $154 $-1 #
edge $-1 $270 -246.02313303018281 $273 246.02313303018281 $266 $372 forward 7 unknown #
coedge $-1 $261 $162 $167 $276 forward $253 $-1 #
coedge $-1 $162 $261 $255 $363 reversed $253 $-1 #
vertex $-1 $163 $373 #
straight-curve $-1 0 246.02313303018281 123.0115665150914 -1 0 0 I I #
coedge $-1 $164 $256 $166 $275 reversed $96 $-1 #
vertex $-1 $267 $374 #
straight-curve $-1 0 -246.02313303018281 123.0115665150914 1 0 0 I I #
edge $-1 $169 -123.0115665150914 $264 123.0115665150914 $166 $375 forward 7 unknown #
edge $-1 $170 -123.0115665150914 $263 123.0115665150914 $167 $376 forward 7 unknown #
point $-1 16.51985985507779 -246.02313303018281 123.0115665150914 #
point $-1 16.51985985507779 246.02313303018281 123.0115665150914 #
coedge $-1 $279 $279 $-1 $377 reversed $172 $-1 #
vertex $-1 $174 $378 #
ellipse-curve $-1 0 0 -2 0 0 -1 4 0 0 1 I I #
point $-1 4 0 -17.021088290047913 #
face $-1 $-1 $192 $24 $-1 $379 reversed single #
loop $-1 $-1 $299 $177 #
plane-surface $-1 0 246.02313303018281 0 0 -1 0 0 0 -1 forward_v I I I I #
coedge $-1 $380 $297 $300 $381 forward $178 $-1 #
coedge $-1 $303 $180 $181 $291 reversed $109 $-1 #
coedge $-1 $297 $380 $180 $289 reversed $178 $-1 #
edge $-1 $304 -123.01156651509142 $382 123.01156651509142 $288 $383 forward 7 unknown #
coedge $-1 $182 $181 $380 $384 forward $70 $-1 #
edge $-1 $295 -11.064358635566366 $382 11.064358635566366 $287 $385 forward 7 unknown #
coedge $-1 $300 $299 $182 $293 reversed $284 $-1 #
edge $-1 $386 -11.064358635566366 $294 11.064358635566366 $292 $387 forward 7 unknown #
vertex $-1 $184 $388 #
vertex $-1 $306 $389 #
straight-curve $-1 11.064358635566366 0 -123.01156651509142 0 -1 0 I I #
coedge $-1 $286 $288 $185 $298 reversed $178 $-1 #
edge $-1 $301 -246.02313303018281 $304 246.02313303018281 $297 $390 forward 7 unknown #
coedge $-1 $292 $186 $191 $307 forward $284 $-1 #
coedge $-1 $186 $292 $286 $381 reversed $284 $-1 #
vertex $-1 $187 $391 #
straight-curve $-1 0 246.02313303018281 123.01156651509142 -1 0 0 I I #
coedge $-1 $188 $287 $190 $306 reversed $109 $-1 #
vertex $-1 $298 $392 #
straight-curve $-1 0 -246.02313303018281 123.01156651509142 1 0 0 I I #
edge $-1 $193 -123.01156651509142 $295 123.01156651509142 $190 $393 forward 7 unknown #
edge $-1 $194 -123.01156651509142 $294 123.01156651509142 $191 $394 forward 7 unknown #
point $-1 11.064358635566366 -246.02313303018281 123.01156651509142 #
point $-1 11.064358635566366 246.02313303018281 123.01156651509142 #
coedge $-1 $310 $310 $-1 $395 reversed $196 $-1 #
vertex $-1 $198 $396 #
ellipse-curve $-1 0 0 -0.25 0 0 -1 0.5 0 0 1 I I #
point $-1 0.5 0 -1.7709814752647475 #
face $-1 $-1 $216 $26 $-1 $397 reversed single #
loop $-1 $-1 $330 $201 #
plane-surface $-1 0 246.02313303018281 0 0 -1 0 0 0 -1 forward_v I I I I #
coedge $-1 $398 $328 $331 $399 forward $202 $-1 #
coedge $-1 $334 $204 $205 $322 reversed $122 $-1 #
coedge $-1 $328 $398 $204 $320 reversed $202 $-1 #
edge $-1 $335 -123.01156651509142 $400 123.01156651509142 $319 $401 forward 7 unknown #
coedge $-1 $206 $205 $398 $402 forward $79 $-1 #
edge $-1 $326 -11.064358635566366 $400 11.064358635566366 $318 $403 forward 7 unknown #
coedge $-1 $331 $330 $206 $324 reversed $315 $-1 #
edge $-1 $404 -11.064358635566366 $325 11.064358635566366 $323 $405 forward 7 unknown #
vertex $-1 $208 $406 #
vertex $-1 $337 $407 #
straight-curve $-1 11.064358635566366 0 -123.01156651509142 0 -1 0 I I #
coedge $-1 $317 $319 $209 $329 reversed $202 $-1 #
edge $-1 $332 -246.02313303018281 $335 246.02313303018281 $328 $408 forward 7 unknown #
coedge $-1 $323 $210 $215 $338 forward $315 $-1 #
coedge $-1 $210 $323 $317 $399 reversed $315 $-1 #
vertex $-1 $211 $409 #
straight-curve $-1 0 246.02313303018281 123.01156651509142 -1 0 0 I I #
coedge $-1 $212 $318 $214 $337 reversed $122 $-1 #
vertex $-1 $329 $410 #
straight-curve $-1 0 -246.02313303018281 123.01156651509142 1 0 0 I I #
edge $-1 $217 -123.01156651509142 $326 123.01156651509142 $214 $411 forward 7 unknown #
edge $-1 $218 -123.01156651509142 $325 123.01156651509142 $215 $412 forward 7 unknown #
point $-1 11.064358635566366 -246.02313303018281 123.01156651509142 #
point $-1 11.064358635566366 246.02313303018281 123.01156651509142 #
coedge $-1 $341 $341 $-1 $413 reversed $220 $-1 #
vertex $-1 $222 $414 #
ellipse-curve $-1 0 0 -0.25 0 0 -1 0.5 0 0 1 I I #
point $-1 0.5 0 -1.7709814752647475 #
plane-surface $-1 61.505783257545701 0 0 -1 0 0 0 0 1 forward_v I I I I #
coedge $-1 $230 $228 $232 $350 reversed $135 $-1 #
edge $-1 $243 -11.149902108677622 $352 11.149902108677622 $242 $415 forward 7 unknown #
vertex $-1 $350 $416 #
straight-curve $-1 -61.505783257545701 -41.56178174108863 0 0 0 -1 I I #
edge $-1 $348 -41.56178174108863 $352 41.56178174108863 $346 $417 forward 7 unknown #
straight-curve $-1 0 -41.56178174108863 -11.149902108677622 -1 0 0 I I #
vertex $-1 $235 $418 #
straight-curve $-1 0 41.56178174108863 -11.149902108677622 1 0 0 I I #
point $-1 61.505783257545701 41.56178174108863 -11.149902108677622 #
point $-1 61.505783257545701 -41.56178174108863 -11.149902108677622 #
straight-curve $-1 -61.505783257545701 0 11.149902108677622 0 -1 0 I I #
point $-1 -61.505783257545701 41.56178174108863 11.149902108677622 #
point $-1 -61.505783257545701 -41.56178174108863 11.149902108677622 #
straight-curve $-1 61.505783257545701 -41.56178174108863 0 0 0 -1 I I #
straight-curve $-1 61.505783257545701 41.56178174108863 0 0 0 -1 I I #
plane-surface $-1 16.51985985507779 0 0 -1 0 0 0 0 1 forward_v I I I I #
coedge $-1 $257 $255 $259 $366 reversed $154 $-1 #
edge $-1 $270 -123.0115665150914 $368 123.0115665150914 $269 $419 forward 7 unknown #
vertex $-1 $366 $420 #
straight-curve $-1 -16.51985985507779 -246.02313303018281 0 0 0 -1 I I #
edge $-1 $364 -246.02313303018281 $368 246.02313303018281 $362 $421 forward 7 unknown #
straight-curve $-1 0 -246.02313303018281 -123.0115665150914 -1 0 0 I I #
vertex $-1 $262 $422 #
straight-curve $-1 0 246.02313303018281 -123.0115665150914 1 0 0 I I #
point $-1 16.51985985507779 246.02313303018281 -123.0115665150914 #
point $-1 16.51985985507779 -246.02313303018281 -123.0115665150914 #
straight-curve $-1 -16.51985985507779 0 123.0115665150914 0 -1 0 I I #
point $-1 -16.51985985507779 246.02313303018281 123.0115665150914 #
point $-1 -16.51985985507779 -246.02313303018281 123.0115665150914 #
straight-curve $-1 16.51985985507779 -246.02313303018281 0 0 0 -1 I I #
straight-curve $-1 16.51985985507779 246.02313303018281 0 0 0 -1 I I #
edge $-1 $423 1 $423 0 $279 $-1 forward 7 unknown #
point $-1 4 0 -2 #
plane-surface $-1 11.064358635566366 0 0 -1 0 0 0 0 1 forward_v I I I I #
coedge $-1 $288 $286 $290 $384 reversed $178 $-1 #
edge $-1 $301 -123.01156651509142 $386 123.01156651509142 $300 $424 forward 7 unknown #
vertex $-1 $384 $425 #
straight-curve $-1 -11.064358635566366 -246.02313303018281 0 0 0 -1 I I #
edge $-1 $382 -246.02313303018281 $386 246.02313303018281 $380 $426 forward 7 unknown #
straight-curve $-1 0 -246.02313303018281 -123.01156651509142 -1 0 0 I I #
vertex $-1 $293 $427 #
straight-curve $-1 0 246.02313303018281 -123.01156651509142 1 0 0 I I #
point $-1 11.064358635566366 246.02313303018281 -123.01156651509142 #
point $-1 11.064358635566366 -246.02313303018281 -123.01156651509142 #
straight-curve $-1 -11.064358635566366 0 123.01156651509142 0 -1 0 I I #
point $-1 -11.064358635566366 246.02313303018281 123.01156651509142 #
point $-1 -11.064358635566366 -246.02313303018281 123.01156651509142 #
straight-curve $-1 11.064358635566366 -246.02313303018281 0 0 0 -1 I I #
straight-curve $-1 11.064358635566366 246.02313303018281 0 0 0 -1 I I #
edge $-1 $428 1 $428 0 $310 $-1 forward 7 unknown #
point $-1 0.5 0 -0.25 #
plane-surface $-1 11.064358635566366 0 0 -1 0 0 0 0 1 forward_v I I I I #
coedge $-1 $319 $317 $321 $402 reversed $202 $-1 #
edge $-1 $332 -123.01156651509142 $404 123.01156651509142 $331 $429 forward 7 unknown #
vertex $-1 $402 $430 #
straight-curve $-1 -11.064358635566366 -246.02313303018281 0 0 0 -1 I I #
edge $-1 $400 -246.02313303018281 $404 246.02313303018281 $398 $431 forward 7 unknown #
straight-curve $-1 0 -246.02313303018281 -123.01156651509142 -1 0 0 I I #
vertex $-1 $324 $432 #
straight-curve $-1 0 246.02313303018281 -123.01156651509142 1 0 0 I I #
point $-1 11.064358635566366 246.02313303018281 -123.01156651509142 #
point $-1 11.064358635566366 -246.02313303018281 -123.01156651509142 #
straight-curve $-1 -11.064358635566366 0 123.01156651509142 0 -1 0 I I #
point $-1 -11.064358635566366 246.02313303018281 123.01156651509142 #
point $-1 -11.064358635566366 -246.02313303018281 123.01156651509142 #
straight-curve $-1 11.064358635566366 -246.02313303018281 0 0 0 -1 I I #
straight-curve $-1 11.064358635566366 246.02313303018281 0 0 0 -1 I I #
edge $-1 $433 1 $433 0 $341 $-1 forward 7 unknown #
point $-1 0.5 0 -0.25 #
straight-curve $-1 -61.505783257545701 41.56178174108863 0 0 0 -1 I I #
point $-1 -61.505783257545701 -41.56178174108863 -11.149902108677622 #
straight-curve $-1 -61.505783257545701 0 -11.149902108677622 0 1 0 I I #
point $-1 -61.505783257545701 41.56178174108863 -11.149902108677622 #
straight-curve $-1 -16.51985985507779 246.02313303018281 0 0 0 -1 I I #
point $-1 -16.51985985507779 -246.02313303018281 -123.0115665150914 #
straight-curve $-1 -16.51985985507779 0 -123.0115665150914 0 1 0 I I #
point $-1 -16.51985985507779 246.02313303018281 -123.0115665150914 #
vertex $-1 $377 $434 #
straight-curve $-1 -11.064358635566366 246.02313303018281 0 0 0 -1 I I #
point $-1 -11.064358635566366 -246.02313303018281 -123.01156651509142 #
straight-curve $-1 -11.064358635566366 0 -123.01156651509142 0 1 0 I I #
point $-1 -11.064358635566366 246.02313303018281 -123.01156651509142 #
vertex $-1 $395 $435 #
straight-curve $-1 -11.064358635566366 246.02313303018281 0 0 0 -1 I I #
point $-1 -11.064358635566366 -246.02313303018281 -123.01156651509142 #
straight-curve $-1 -11.064358635566366 0 -123.01156651509142 0 1 0 I I #
point $-1 -11.064358635566366 246.02313303018281 -123.01156651509142 #
vertex $-1 $413 $436 #
point $-1 0 0 2 #
point $-1 0 0 0.25 #
point $-1 0 0 0.25 #
End-of-ACIS-data 