500 0 10 0           
7 Unknown 11 ACIS 5.0 NT 24 Fri Mar 26 19:31:09 1999 
-1 9.9999999999999995e-007 1e-010 
body $-1 $10 $-1 $11 #
body $-1 $12 $-1 $13 #
body $-1 $14 $-1 $15 #
body $-1 $16 $-1 $17 #
body $-1 $18 $-1 $19 #
body $-1 $20 $-1 $21 #
body $-1 $22 $-1 $23 #
body $-1 $24 $-1 $25 #
body $-1 $26 $-1 $27 #
body $-1 $28 $-1 $29 #
lump $-1 $-1 $30 $0 #
transform $-1 1 0 0 0 1 0 0 0 1 60.945463423566395 33.944913819364416 14.754077489754019 1 rotate no_reflect no_shear #
lump $-1 $-1 $31 $1 #
transform $-1 1 0 0 0 1 0 0 0 1 60.945463423566395 33.944913819364416 14.754077489754019 1 rotate no_reflect no_shear #
lump $-1 $-1 $32 $2 #
transform $-1 1 0 0 0 1 0 0 0 1 60.945463423566395 33.944913819364416 14.754077489754019 1 rotate no_reflect no_shear #
lump $-1 $-1 $33 $3 #
transform $-1 1 0 0 0 1 0 0 0 1 60.945463423566395 33.944913819364416 14.754077489754019 1 rotate no_reflect no_shear #
lump $-1 $-1 $34 $4 #
transform $-1 1 0 0 0 1 0 0 0 1 60.945463423566395 33.944913819364416 14.754077489754019 1 rotate no_reflect no_shear #
lump $-1 $-1 $35 $5 #
transform $-1 1 0 0 0 1 0 0 0 1 60.945463423566395 33.944913819364416 14.754077489754019 1 rotate no_reflect no_shear #
lump $-1 $-1 $36 $6 #
transform $-1 1 0 0 0 1 0 0 0 1 60.945463423566395 33.944913819364416 14.754077489754019 1 rotate no_reflect no_shear #
lump $-1 $-1 $37 $7 #
transform $-1 1 0 0 0 1 0 0 0 1 60.945463423566395 33.944913819364416 14.754077489754019 1 rotate no_reflect no_shear #
lump $-1 $-1 $38 $8 #
transform $-1 1 0 0 0 1 0 0 0 1 60.945463423566395 33.944913819364416 14.754077489754019 1 rotate no_reflect no_shear #
lump $-1 $-1 $39 $9 #
transform $-1 1 0 0 0 1 0 0 0 1 60.945463423566395 33.944913819364416 14.754077489754019 1 rotate no_reflect no_shear #
shell $-1 $-1 $-1 $40 $-1 $10 #
shell $-1 $-1 $-1 $41 $-1 $12 #
shell $-1 $-1 $-1 $42 $-1 $14 #
shell $-1 $-1 $-1 $43 $-1 $16 #
shell $-1 $-1 $-1 $44 $-1 $18 #
shell $-1 $-1 $-1 $45 $-1 $20 #
shell $-1 $-1 $-1 $46 $-1 $22 #
shell $-1 $-1 $-1 $47 $-1 $24 #
shell $-1 $-1 $-1 $48 $-1 $26 #
shell $-1 $-1 $-1 $49 $-1 $28 #
face $-1 $50 $51 $30 $-1 $52 forward single #
face $-1 $53 $54 $31 $-1 $55 forward single #
face $-1 $56 $57 $32 $-1 $58 reversed single #
face $-1 $59 $60 $33 $-1 $61 forward single #
face $-1 $62 $63 $34 $-1 $64 forward single #
face $-1 $65 $66 $35 $-1 $67 reversed single #
face $-1 $68 $69 $36 $-1 $70 forward single #
face $-1 $71 $72 $37 $-1 $73 forward single #
face $-1 $74 $75 $38 $-1 $76 reversed single #
face $-1 $77 $78 $39 $-1 $79 forward single #
face $-1 $80 $81 $30 $-1 $82 reversed single #
loop $-1 $-1 $83 $40 #
plane-surface $-1 0 0 14.754077489754019 0 0 1 1 0 0 forward_v I I I I #
face $-1 $84 $85 $31 $-1 $86 reversed single #
loop $-1 $-1 $87 $41 #
plane-surface $-1 0 -28.654072904156081 -8.6407283861317676 0 0 1 1 0 0 forward_v I I I I #
face $-1 $88 $89 $32 $-1 $90 reversed single #
loop $-1 $-1 $91 $42 #
plane-surface $-1 -155.67250596974492 -8.8093437624173774 86.755388145722549 0 1 0 -0.77714596973225614 0 0.62932038083071107 forward_v I I I I #
face $-1 $92 $93 $33 $-1 $94 forward single #
loop $-1 $95 $96 $43 #
cone-surface $-1 -57.659150555776691 -6.2799582638449643 11.282658801056547 0.77714596973225614 0 -0.62932038083071107 0.62932038083071107 0 0.77714596973225614 1 I I 0 1 1 forward I I I I #
face $-1 $97 $98 $34 $-1 $99 forward single #
loop $-1 $100 $101 $44 #
cone-surface $-1 -57.659150555776691 -2.4858800159863428 11.282658801056547 0.77714596973225614 0 -0.62932038083071107 0.62932038083071107 0 0.77714596973225614 1 I I 0 1 1 forward I I I I #
face $-1 $102 $103 $35 $-1 $104 reversed single #
loop $-1 $-1 $105 $45 #
plane-surface $-1 -155.67250596974492 19.8447291417387 86.755388145722549 0 1 0 -0.77714596973225614 0 0.62932038083071107 forward_v I I I I #
face $-1 $106 $107 $36 $-1 $108 forward single #
loop $-1 $109 $110 $46 #
cone-surface $-1 -57.659150555776691 22.37411464031112 11.282658801056547 0.77714596973225614 0 -0.62932038083071107 0.62932038083071107 0 0.77714596973225614 1 I I 0 1 1 forward I I I I #
face $-1 $111 $112 $37 $-1 $113 forward single #
loop $-1 $114 $115 $47 #
cone-surface $-1 -57.659150555776691 26.168192888169742 11.282658801056547 0.77714596973225614 0 -0.62932038083071107 0.62932038083071107 0 0.77714596973225614 1 I I 0 1 1 forward I I I I #
face $-1 $116 $117 $38 $-1 $118 reversed single #
loop $-1 $-1 $119 $48 #
plane-surface $-1 108.45977881546932 26.432218889854031 171.56317579262401 0 -1 0 -0.87461971476443456 0 -0.48480960649040278 forward_v I I I I #
face $-1 $120 $121 $39 $-1 $122 forward single #
loop $-1 $123 $124 $49 #
cone-surface $-1 57.469257800473109 21.246469583899355 9.7469096767352195 -0.87461971476443456 0 -0.48480960649040278 0.96961921298080556 0 -1.7492394295288691 1 I I 0 1 2 forward I I I I #
face $-1 $125 $126 $30 $-1 $127 reversed single #
loop $-1 $-1 $128 $50 #
plane-surface $-1 0 0 -14.754077489754019 0 0 1 1 0 0 forward_v I I I I #
coedge $-1 $129 $130 $131 $132 forward $51 $-1 #
face $-1 $133 $134 $31 $-1 $135 reversed single #
loop $-1 $-1 $136 $53 #
plane-surface $-1 0 -23.363231988947746 -11.697402937942893 0 -1 0 0 0 -1 forward_v I I I I #
coedge $-1 $137 $138 $139 $140 reversed $54 $-1 #
face $-1 $141 $142 $32 $-1 $143 reversed single #
loop $-1 $-1 $144 $56 #
plane-surface $-1 -60.945463423566409 -4.3829191399156535 10.046943642476592 -0.77714596973225614 0 0.62932038083071107 0.62932038083071107 0 0.77714596973225614 forward_v I I I I #
coedge $-1 $145 $146 $147 $148 reversed $57 $-1 #
face $-1 $-1 $149 $33 $-1 $150 forward single #
loop $-1 $151 $152 $59 #
cone-surface $-1 -55.890145567696614 -6.2799582638449643 9.8501468455824348 0.77714596973225614 0 -0.62932038083071107 0.31466019041535553 0 0.38857298486612807 1 I I -0.70710678118654746 0.70710678118654746 0.5 forward I I I I #
loop $-1 $-1 $153 $43 #
coedge $-1 $96 $96 $154 $155 reversed $60 $-1 #
face $-1 $-1 $156 $34 $-1 $157 forward single #
loop $-1 $158 $159 $62 #
cone-surface $-1 -55.890145567696614 -2.4858800159863428 9.8501468455824348 0.77714596973225614 0 -0.62932038083071107 0.31466019041535553 0 0.38857298486612807 1 I I -0.70710678118654746 0.70710678118654746 0.5 forward I I I I #
loop $-1 $-1 $160 $44 #
coedge $-1 $101 $101 $161 $162 reversed $63 $-1 #
face $-1 $163 $164 $35 $-1 $165 reversed single #
loop $-1 $-1 $166 $65 #
plane-surface $-1 -60.945463423566409 24.271153764240424 10.046943642476592 -0.77714596973225614 0 0.62932038083071107 0.62932038083071107 0 0.77714596973225614 forward_v I I I I #
coedge $-1 $167 $168 $169 $170 reversed $66 $-1 #
face $-1 $-1 $171 $36 $-1 $172 forward single #
loop $-1 $173 $174 $68 #
cone-surface $-1 -55.890145567696614 22.37411464031112 9.8501468455824348 0.77714596973225614 0 -0.62932038083071107 0.31466019041535553 0 0.38857298486612807 1 I I -0.70710678118654746 0.70710678118654746 0.5 forward I I I I #
loop $-1 $-1 $175 $46 #
coedge $-1 $110 $110 $176 $177 reversed $69 $-1 #
face $-1 $-1 $178 $37 $-1 $179 forward single #
loop $-1 $180 $181 $71 #
cone-surface $-1 -55.890145567696614 26.168192888169742 9.8501468455824348 0.77714596973225614 0 -0.62932038083071107 0.31466019041535553 0 0.38857298486612807 1 I I -0.70710678118654746 0.70710678118654746 0.5 forward I I I I #
loop $-1 $-1 $182 $47 #
coedge $-1 $115 $115 $183 $184 reversed $72 $-1 #
face $-1 $185 $186 $38 $-1 $187 reversed single #
loop $-1 $-1 $188 $74 #
plane-surface $-1 1.8515711440574876 21.246469583899355 112.46928351311509 0.87461971476443456 0 0.48480960649040278 0.48480960649040278 0 -0.87461971476443456 forward_v I I I I #
coedge $-1 $189 $190 $191 $192 reversed $75 $-1 #
face $-1 $-1 $193 $39 $-1 $194 forward single #
loop $-1 $195 $196 $77 #
cone-surface $-1 55.583168025242855 21.246469583899355 8.7014330812514 -0.87461971476443456 0 -0.48480960649040278 0.48480960649040278 0 -0.87461971476443456 1 I I -0.70710678118654746 0.70710678118654746 1 forward I I I I #
loop $-1 $-1 $197 $49 #
coedge $-1 $124 $124 $198 $199 reversed $78 $-1 #
face $-1 $200 $201 $30 $-1 $202 reversed single #
loop $-1 $-1 $203 $80 #
plane-surface $-1 0 -33.944913819364416 0 0 1 0 0 0 1 forward_v I I I I #
coedge $-1 $204 $205 $206 $207 forward $81 $-1 #
coedge $-1 $208 $83 $209 $210 forward $51 $-1 #
coedge $-1 $83 $208 $211 $212 forward $51 $-1 #
coedge $-1 $213 $214 $83 $132 reversed $215 $-1 #
edge $-1 $216 -33.944913819364416 $217 33.944913819364416 $131 $218 forward 7 unknown #
face $-1 $219 $220 $31 $-1 $221 reversed single #
loop $-1 $-1 $222 $84 #
plane-surface $-1 0 0 -14.754077489754019 0 0 1 1 0 0 forward_v I I I I #
coedge $-1 $223 $224 $225 $226 reversed $85 $-1 #
coedge $-1 $227 $87 $224 $228 forward $54 $-1 #
coedge $-1 $87 $227 $229 $230 reversed $54 $-1 #
coedge $-1 $231 $225 $87 $140 forward $220 $-1 #
edge $-1 $232 9.0361955368697053 $233 19.617877367286376 $139 $234 forward 7 unknown #
face $-1 $235 $236 $32 $-1 $237 forward single #
loop $-1 $-1 $238 $88 #
plane-surface $-1 -155.67250596974492 0.043505482586070343 86.755388145722549 0 -1 0 0.77714596973225614 0 -0.62932038083071107 forward_v I I I I #
coedge $-1 $239 $240 $241 $242 reversed $89 $-1 #
coedge $-1 $146 $91 $243 $244 reversed $57 $-1 #
coedge $-1 $91 $145 $239 $245 reversed $57 $-1 #
coedge $-1 $241 $246 $91 $148 forward $236 $-1 #
edge $-1 $247 16.890789561306065 $248 20.702551290457571 $147 $249 forward 7 unknown #
loop $-1 $-1 $154 $92 #
plane-surface $-1 -60.945463423566409 -4.3829191399156535 10.046943642476592 -0.77714596973225614 0 0.62932038083071107 0.62932038083071107 0 0.77714596973225614 forward_v I I I I #
loop $-1 $-1 $250 $59 #
coedge $-1 $152 $152 $153 $251 reversed $93 $-1 #
coedge $-1 $153 $153 $152 $251 forward $95 $-1 #
coedge $-1 $154 $154 $96 $155 forward $149 $-1 #
edge $-1 $252 0 $252 6.2831853071796004 $154 $253 forward 7 unknown #
loop $-1 $-1 $161 $97 #
plane-surface $-1 -60.945463423566409 -4.3829191399156535 10.046943642476592 -0.77714596973225614 0 0.62932038083071107 0.62932038083071107 0 0.77714596973225614 forward_v I I I I #
loop $-1 $-1 $254 $62 #
coedge $-1 $159 $159 $160 $255 reversed $98 $-1 #
coedge $-1 $160 $160 $159 $255 forward $100 $-1 #
coedge $-1 $161 $161 $101 $162 forward $156 $-1 #
edge $-1 $256 0 $256 6.2831853071796004 $161 $257 forward 7 unknown #
face $-1 $258 $259 $35 $-1 $260 forward single #
loop $-1 $-1 $261 $102 #
plane-surface $-1 -155.67250596974492 28.697578386742148 86.755388145722549 0 -1 0 0.77714596973225614 0 -0.62932038083071107 forward_v I I I I #
coedge $-1 $262 $263 $264 $265 reversed $103 $-1 #
coedge $-1 $168 $105 $266 $267 reversed $66 $-1 #
coedge $-1 $105 $167 $262 $268 reversed $66 $-1 #
coedge $-1 $264 $269 $105 $170 forward $259 $-1 #
edge $-1 $270 16.890789561306065 $271 20.702551290457571 $169 $272 forward 7 unknown #
loop $-1 $-1 $176 $106 #
plane-surface $-1 -60.945463423566409 24.271153764240424 10.046943642476592 -0.77714596973225614 0 0.62932038083071107 0.62932038083071107 0 0.77714596973225614 forward_v I I I I #
loop $-1 $-1 $273 $68 #
coedge $-1 $174 $174 $175 $274 reversed $107 $-1 #
coedge $-1 $175 $175 $174 $274 forward $109 $-1 #
coedge $-1 $176 $176 $110 $177 forward $171 $-1 #
edge $-1 $275 0 $275 6.2831853071796004 $176 $276 forward 7 unknown #
loop $-1 $-1 $183 $111 #
plane-surface $-1 -60.945463423566409 24.271153764240424 10.046943642476592 -0.77714596973225614 0 0.62932038083071107 0.62932038083071107 0 0.77714596973225614 forward_v I I I I #
loop $-1 $-1 $277 $71 #
coedge $-1 $181 $181 $182 $278 reversed $112 $-1 #
coedge $-1 $182 $182 $181 $278 forward $114 $-1 #
coedge $-1 $183 $183 $115 $184 forward $178 $-1 #
edge $-1 $279 0 $279 6.2831853071796004 $183 $280 forward 7 unknown #
face $-1 $281 $282 $38 $-1 $283 reversed single #
loop $-1 $-1 $284 $116 #
plane-surface $-1 108.45977881546932 16.060720277944679 171.56317579262401 0 1 0 0.87461971476443456 0 0.48480960649040278 forward_v I I I I #
coedge $-1 $285 $286 $287 $288 reversed $117 $-1 #
coedge $-1 $190 $119 $289 $290 reversed $75 $-1 #
coedge $-1 $119 $189 $285 $291 reversed $75 $-1 #
coedge $-1 $287 $292 $119 $192 forward $293 $-1 #
edge $-1 $294 -6.7155740158317343 $295 -1.7861028905767924 $191 $296 forward 7 unknown #
loop $-1 $-1 $198 $120 #
plane-surface $-1 1.8515711440574876 21.246469583899355 112.46928351311509 0.87461971476443456 0 0.48480960649040278 0.48480960649040278 0 -0.87461971476443456 forward_v I I I I #
loop $-1 $-1 $297 $77 #
coedge $-1 $196 $196 $197 $298 reversed $121 $-1 #
coedge $-1 $197 $197 $196 $298 forward $123 $-1 #
coedge $-1 $198 $198 $124 $199 forward $193 $-1 #
edge $-1 $299 0 $299 6.2831853071796004 $198 $300 forward 7 unknown #
face $-1 $301 $302 $30 $-1 $303 reversed single #
loop $-1 $-1 $304 $125 #
plane-surface $-1 -60.945463423566395 0 0 1 0 0 0 0 -1 forward_v I I I I #
coedge $-1 $305 $211 $306 $307 forward $126 $-1 #
coedge $-1 $308 $128 $305 $309 forward $81 $-1 #
coedge $-1 $128 $308 $310 $311 forward $81 $-1 #
coedge $-1 $214 $213 $128 $207 reversed $215 $-1 #
edge $-1 $312 -33.944913819364416 $313 33.944913819364416 $206 $314 forward 7 unknown #
coedge $-1 $130 $129 $315 $316 forward $51 $-1 #
coedge $-1 $317 $318 $129 $210 reversed $302 $-1 #
edge $-1 $217 -60.945463423566395 $319 60.945463423566395 $209 $320 forward 7 unknown #
coedge $-1 $203 $321 $130 $212 reversed $126 $-1 #
edge $-1 $322 -60.945463423566395 $216 60.945463423566395 $211 $323 forward 7 unknown #
coedge $-1 $206 $131 $321 $324 forward $215 $-1 #
coedge $-1 $131 $206 $317 $325 reversed $215 $-1 #
loop $-1 $-1 $213 $301 #
vertex $-1 $132 $326 #
vertex $-1 $132 $327 #
straight-curve $-1 60.945463423566395 0 14.754077489754019 0 1 0 I I #
face $-1 $328 $329 $31 $-1 $330 reversed single #
loop $-1 $-1 $225 $133 #
plane-surface $-1 60.945463423566395 0 0 -1 0 0 0 0 1 forward_v I I I I #
coedge $-1 $331 $332 $223 $333 forward $134 $-1 #
coedge $-1 $334 $136 $222 $333 reversed $85 $-1 #
coedge $-1 $136 $334 $137 $228 reversed $85 $-1 #
coedge $-1 $139 $335 $136 $226 forward $220 $-1 #
edge $-1 $336 -8.9053760207825725 $232 -2.7920269171603209 $225 $337 forward 7 unknown #
coedge $-1 $138 $137 $338 $339 reversed $54 $-1 #
edge $-1 $232 -60.945463423566395 $340 60.945463423566395 $224 $341 forward 7 unknown #
coedge $-1 $342 $343 $138 $230 forward $329 $-1 #
edge $-1 $233 -60.945463423566395 $344 60.945463423566395 $229 $345 forward 7 unknown #
coedge $-1 $335 $139 $343 $346 forward $220 $-1 #
vertex $-1 $140 $347 #
vertex $-1 $346 $348 #
straight-curve $-1 60.945463423566395 -14.32703645207804 -8.6407283861317676 0 -1 0 I I #
face $-1 $-1 $349 $32 $-1 $350 reversed single #
loop $-1 $-1 $147 $141 #
plane-surface $-1 0 0 14.754077489754019 0 0 1 1 0 0 forward_v I I I I #
coedge $-1 $351 $352 $353 $354 reversed $142 $-1 #
coedge $-1 $355 $144 $146 $245 forward $89 $-1 #
coedge $-1 $144 $355 $351 $356 forward $89 $-1 #
coedge $-1 $353 $147 $144 $242 forward $236 $-1 #
edge $-1 $248 -6.6178841924595506 $357 2.2349650525438971 $241 $358 forward 7 unknown #
coedge $-1 $359 $360 $145 $244 forward $349 $-1 #
edge $-1 $361 -33.330750430384668 $247 -28.623616583107257 $243 $362 forward 7 unknown #
edge $-1 $248 -6.0569494414275065 $361 -2.2748066086763162e-014 $146 $363 forward 7 unknown #
coedge $-1 $147 $353 $359 $364 forward $236 $-1 #
vertex $-1 $244 $365 #
vertex $-1 $148 $366 #
straight-curve $-1 -77.836252984872459 -8.8093437624173774 14.754077489754017 1 0 0 I I #
coedge $-1 $250 $250 $-1 $367 reversed $151 $-1 #
edge $-1 $368 0 $368 6.2831853071796004 $152 $369 forward 7 unknown #
vertex $-1 $155 $370 #
ellipse-curve $-1 -59.039582558990645 -6.2799582638449643 12.40051056611531 -0.77714596973225614 0 0.62932038083071107 0.62932038083071107 0 0.77714596973225614 1 I I #
coedge $-1 $254 $254 $-1 $371 reversed $158 $-1 #
edge $-1 $372 0 $372 6.2831853071796004 $159 $373 forward 7 unknown #
vertex $-1 $162 $374 #
ellipse-curve $-1 -59.039582558990645 -2.4858800159863428 12.40051056611531 -0.77714596973225614 0 0.62932038083071107 0.62932038083071107 0 0.77714596973225614 1 I I #
face $-1 $-1 $375 $35 $-1 $376 reversed single #
loop $-1 $-1 $169 $163 #
plane-surface $-1 0 0 14.754077489754019 0 0 1 1 0 0 forward_v I I I I #
coedge $-1 $377 $378 $379 $380 reversed $164 $-1 #
coedge $-1 $381 $166 $168 $268 forward $103 $-1 #
coedge $-1 $166 $381 $377 $382 forward $103 $-1 #
coedge $-1 $379 $169 $166 $265 forward $259 $-1 #
edge $-1 $271 7.709152259618488 $383 16.562001504621936 $264 $384 forward 7 unknown #
coedge $-1 $385 $386 $167 $267 forward $375 $-1 #
edge $-1 $387 -33.330750430384668 $270 -28.623616583107257 $266 $388 forward 7 unknown #
edge $-1 $271 -6.0569494414275065 $387 -2.2748066086763162e-014 $168 $389 forward 7 unknown #
coedge $-1 $169 $379 $385 $390 forward $259 $-1 #
vertex $-1 $170 $391 #
vertex $-1 $170 $392 #
straight-curve $-1 -77.836252984872459 19.8447291417387 14.754077489754017 1 0 0 I I #
coedge $-1 $273 $273 $-1 $393 reversed $173 $-1 #
edge $-1 $394 0 $394 6.2831853071796004 $174 $395 forward 7 unknown #
vertex $-1 $177 $396 #
ellipse-curve $-1 -59.039582558990645 22.37411464031112 12.40051056611531 -0.77714596973225614 0 0.62932038083071107 0.62932038083071107 0 0.77714596973225614 1 I I #
coedge $-1 $277 $277 $-1 $397 reversed $180 $-1 #
edge $-1 $398 0 $398 6.2831853071796004 $181 $399 forward 7 unknown #
vertex $-1 $184 $400 #
ellipse-curve $-1 -59.039582558990645 26.168192888169742 12.40051056611531 -0.77714596973225614 0 0.62932038083071107 0.62932038083071107 0 0.77714596973225614 1 I I #
face $-1 $-1 $293 $38 $-1 $401 forward single #
loop $-1 $-1 $402 $185 #
plane-surface $-1 60.945463423566395 0 0 -1 0 0 0 0 1 forward_v I I I I #
coedge $-1 $403 $404 $405 $406 reversed $186 $-1 #
coedge $-1 $407 $188 $190 $291 forward $117 $-1 #
coedge $-1 $188 $407 $403 $408 forward $117 $-1 #
coedge $-1 $405 $191 $188 $288 forward $293 $-1 #
edge $-1 $295 -15.808984097904354 $409 -5.4374854859950013 $287 $410 forward 7 unknown #
coedge $-1 $411 $412 $189 $290 forward $282 $-1 #
edge $-1 $413 -79.920512054608736 $294 -71.02751040655798 $289 $414 forward 7 unknown #
edge $-1 $295 111.72307732587433 $413 121.89092684713279 $190 $415 forward 7 unknown #
coedge $-1 $191 $405 $411 $416 forward $293 $-1 #
loop $-1 $-1 $405 $281 #
vertex $-1 $290 $417 #
vertex $-1 $192 $418 #
straight-curve $-1 54.22988940773466 26.432218889854031 14.754077489754025 -1 0 0 I I #
coedge $-1 $297 $297 $-1 $419 reversed $195 $-1 #
edge $-1 $420 0 $420 6.2831853071796004 $196 $421 forward 7 unknown #
vertex $-1 $199 $422 #
ellipse-curve $-1 58.480727860938927 21.246469583899355 10.307576665728639 0.87461971476443456 0 0.48480960649040278 0.96961921298080556 0 -1.7492394295288691 1 I I #
face $-1 $-1 $215 $30 $-1 $423 reversed single #
loop $-1 $-1 $317 $200 #
plane-surface $-1 0 33.944913819364416 0 0 -1 0 0 0 -1 forward_v I I I I #
coedge $-1 $424 $315 $318 $425 forward $201 $-1 #
coedge $-1 $321 $203 $204 $309 reversed $126 $-1 #
coedge $-1 $315 $424 $203 $307 reversed $201 $-1 #
edge $-1 $322 -14.754077489754019 $426 14.754077489754019 $306 $427 forward 7 unknown #
coedge $-1 $205 $204 $424 $428 forward $81 $-1 #
edge $-1 $313 -60.945463423566395 $426 60.945463423566395 $305 $429 forward 7 unknown #
coedge $-1 $318 $317 $205 $311 reversed $302 $-1 #
edge $-1 $430 -60.945463423566395 $312 60.945463423566395 $310 $431 forward 7 unknown #
vertex $-1 $207 $432 #
vertex $-1 $324 $433 #
straight-curve $-1 60.945463423566395 0 -14.754077489754019 0 -1 0 I I #
coedge $-1 $304 $306 $208 $316 reversed $201 $-1 #
edge $-1 $319 -33.944913819364416 $322 33.944913819364416 $315 $434 forward 7 unknown #
coedge $-1 $310 $209 $214 $325 forward $302 $-1 #
coedge $-1 $209 $310 $304 $425 reversed $302 $-1 #
vertex $-1 $210 $435 #
straight-curve $-1 0 33.944913819364416 14.754077489754019 -1 0 0 I I #
coedge $-1 $211 $305 $213 $324 reversed $126 $-1 #
vertex $-1 $316 $436 #
straight-curve $-1 0 -33.944913819364416 14.754077489754019 1 0 0 I I #
edge $-1 $216 -14.754077489754019 $313 14.754077489754019 $213 $437 forward 7 unknown #
edge $-1 $217 -14.754077489754019 $312 14.754077489754019 $214 $438 forward 7 unknown #
point $-1 60.945463423566395 -33.944913819364416 14.754077489754019 #
point $-1 60.945463423566395 33.944913819364416 14.754077489754019 #
face $-1 $-1 $439 $31 $-1 $440 reversed single #
loop $-1 $-1 $229 $219 #
plane-surface $-1 0 -33.944913819364416 0 0 1 0 0 0 1 forward_v I I I I #
coedge $-1 $441 $222 $335 $442 forward $134 $-1 #
coedge $-1 $222 $441 $443 $444 forward $134 $-1 #
edge $-1 $445 -60.945463423566395 $336 60.945463423566395 $222 $446 forward 7 unknown #
coedge $-1 $224 $223 $447 $448 reversed $85 $-1 #
coedge $-1 $225 $231 $331 $442 reversed $220 $-1 #
vertex $-1 $442 $449 #
straight-curve $-1 60.945463423566395 -23.363231988947746 -5.8487014689714467 0 0 1 I I #
coedge $-1 $447 $450 $227 $339 forward $439 $-1 #
edge $-1 $344 -19.617877367286376 $340 -9.0361955368697053 $338 $451 forward 7 unknown #
vertex $-1 $339 $452 #
straight-curve $-1 0 -23.363231988947746 -8.6407283861317676 -1 0 0 I I #
coedge $-1 $453 $229 $450 $454 forward $329 $-1 #
coedge $-1 $229 $453 $231 $346 reversed $329 $-1 #
vertex $-1 $454 $455 #
straight-curve $-1 0 -33.944913819364416 -8.6407283861317676 -1 0 0 I I #
edge $-1 $233 8.6407283861317676 $456 14.754077489754019 $231 $457 forward 7 unknown #
point $-1 60.945463423566395 -23.363231988947746 -8.6407283861317676 #
point $-1 60.945463423566395 -33.944913819364416 -8.6407283861317676 #
loop $-1 $-1 $243 $235 #
plane-surface $-1 -60.945463423566395 0 0 1 0 0 0 0 -1 forward_v I I I I #
coedge $-1 $352 $238 $240 $356 reversed $142 $-1 #
coedge $-1 $238 $351 $458 $459 reversed $142 $-1 #
coedge $-1 $246 $241 $238 $354 forward $236 $-1 #
edge $-1 $357 -20.702551290457571 $460 -16.890789561306065 $353 $461 forward 7 unknown #
coedge $-1 $240 $239 $360 $462 reversed $89 $-1 #
edge $-1 $463 2.2748066086763162e-014 $357 6.0569494414275065 $351 $464 forward 7 unknown #
vertex $-1 $242 $465 #
straight-curve $-1 -57.133701694414881 -2.1914595699578268 14.754077489754019 0 1 0 I I #
coedge $-1 $458 $243 $246 $364 reversed $349 $-1 #
coedge $-1 $243 $458 $355 $462 forward $349 $-1 #
vertex $-1 $244 $466 #
straight-curve $-1 -60.945463423566395 -8.8093437624173774 43.377694072861274 0 0 1 I I #
straight-curve $-1 -60.945463423566409 -8.8093437624173774 10.046943642476592 -0.62932038083071107 0 -0.77714596973225614 I I #
edge $-1 $460 -0.043505482586070343 $247 8.8093437624173774 $359 $467 forward 7 unknown #
point $-1 -60.945463423566395 -8.8093437624173774 14.754077489754019 #
point $-1 -57.133701694414889 -8.8093437624173774 14.754077489754019 #
edge $-1 $468 1 $468 0 $250 $-1 forward 7 unknown #
vertex $-1 $251 $469 #
ellipse-curve $-1 -56.278718552562744 -6.2799582638449643 10.164807035997791 -0.77714596973225614 0 0.62932038083071107 0.62932038083071107 0 0.77714596973225614 1 I I #
point $-1 -58.410262178159925 -6.2799582638449643 13.177656535847561 #
edge $-1 $470 1 $470 0 $254 $-1 forward 7 unknown #
vertex $-1 $255 $471 #
ellipse-curve $-1 -56.278718552562744 -2.4858800159863428 10.164807035997791 -0.77714596973225614 0 0.62932038083071107 0.62932038083071107 0 0.77714596973225614 1 I I #
point $-1 -58.410262178159925 -2.4858800159863428 13.177656535847561 #
loop $-1 $-1 $266 $258 #
plane-surface $-1 -60.945463423566395 0 0 1 0 0 0 0 -1 forward_v I I I I #
coedge $-1 $378 $261 $263 $382 reversed $164 $-1 #
coedge $-1 $261 $377 $472 $473 reversed $164 $-1 #
coedge $-1 $269 $264 $261 $380 forward $259 $-1 #
edge $-1 $383 -20.702551290457571 $474 -16.890789561306065 $379 $475 forward 7 unknown #
coedge $-1 $263 $262 $386 $476 reversed $103 $-1 #
edge $-1 $477 2.2748066086763162e-014 $383 6.0569494414275065 $377 $478 forward 7 unknown #
vertex $-1 $265 $479 #
straight-curve $-1 -57.133701694414881 12.135576882120212 14.754077489754019 0 1 0 I I #
coedge $-1 $472 $266 $269 $390 reversed $375 $-1 #
coedge $-1 $266 $472 $381 $476 forward $375 $-1 #
vertex $-1 $267 $480 #
straight-curve $-1 -60.945463423566395 19.8447291417387 43.377694072861274 0 0 1 I I #
straight-curve $-1 -60.945463423566409 19.8447291417387 10.046943642476592 -0.62932038083071107 0 -0.77714596973225614 I I #
edge $-1 $474 -28.697578386742148 $270 -19.8447291417387 $385 $481 forward 7 unknown #
point $-1 -60.945463423566395 19.8447291417387 14.754077489754019 #
point $-1 -57.133701694414889 19.8447291417387 14.754077489754019 #
edge $-1 $482 1 $482 0 $273 $-1 forward 7 unknown #
vertex $-1 $274 $483 #
ellipse-curve $-1 -56.278718552562744 22.37411464031112 10.164807035997791 -0.77714596973225614 0 0.62932038083071107 0.62932038083071107 0 0.77714596973225614 1 I I #
point $-1 -58.410262178159925 22.37411464031112 13.177656535847561 #
edge $-1 $484 1 $484 0 $277 $-1 forward 7 unknown #
vertex $-1 $278 $485 #
ellipse-curve $-1 -56.278718552562744 26.168192888169742 10.164807035997791 -0.77714596973225614 0 0.62932038083071107 0.62932038083071107 0 0.77714596973225614 1 I I #
point $-1 -58.410262178159925 26.168192888169742 13.177656535847561 #
plane-surface $-1 0 0 14.754077489754019 0 0 1 1 0 0 forward_v I I I I #
coedge $-1 $412 $411 $404 $486 forward $282 $-1 #
coedge $-1 $404 $284 $286 $408 reversed $186 $-1 #
coedge $-1 $284 $403 $402 $486 reversed $186 $-1 #
coedge $-1 $292 $287 $284 $406 forward $293 $-1 #
edge $-1 $409 1.7861028905767924 $487 6.7155740158317343 $405 $488 forward 7 unknown #
coedge $-1 $286 $285 $412 $489 reversed $117 $-1 #
edge $-1 $490 -121.89092684713279 $409 -111.72307732587433 $403 $491 forward 7 unknown #
vertex $-1 $288 $492 #
straight-curve $-1 56.01599229831146 10.623234791949677 14.754077489754025 0 -1 0 I I #
coedge $-1 $402 $289 $292 $416 reversed $282 $-1 #
coedge $-1 $289 $402 $407 $489 forward $282 $-1 #
vertex $-1 $290 $493 #
straight-curve $-1 60.945463423566395 26.432218889854031 85.781587896312004 0 0 1 I I #
straight-curve $-1 1.8515711440574876 26.432218889854031 112.46928351311509 0.48480960649040278 0 -0.87461971476443456 I I #
edge $-1 $487 16.060720277944679 $294 26.432218889854031 $411 $494 forward 7 unknown #
point $-1 60.945463423566395 26.432218889854031 14.754077489754019 #
point $-1 56.015992298311453 26.432218889854031 14.754077489754025 #
edge $-1 $495 1 $495 0 $297 $-1 forward 7 unknown #
vertex $-1 $298 $496 #
ellipse-curve $-1 56.457787740007291 21.246469583899355 9.1862426877418031 0.87461971476443456 0 0.48480960649040278 0.96961921298080556 0 -1.7492394295288691 1 I I #
point $-1 59.45034707391973 21.246469583899355 8.5583372361997689 #
plane-surface $-1 60.945463423566395 0 0 -1 0 0 0 0 1 forward_v I I I I #
coedge $-1 $306 $304 $308 $428 reversed $201 $-1 #
edge $-1 $319 -14.754077489754019 $430 14.754077489754019 $318 $497 forward 7 unknown #
vertex $-1 $428 $498 #
straight-curve $-1 -60.945463423566395 -33.944913819364416 0 0 0 -1 I I #
edge $-1 $426 -33.944913819364416 $430 33.944913819364416 $424 $499 forward 7 unknown #
straight-curve $-1 0 -33.944913819364416 -14.754077489754019 -1 0 0 I I #
vertex $-1 $311 $500 #
straight-curve $-1 0 33.944913819364416 -14.754077489754019 1 0 0 I I #
point $-1 60.945463423566395 33.944913819364416 -14.754077489754019 #
point $-1 60.945463423566395 -33.944913819364416 -14.754077489754019 #
straight-curve $-1 -60.945463423566395 0 14.754077489754019 0 -1 0 I I #
point $-1 -60.945463423566395 33.944913819364416 14.754077489754019 #
point $-1 -60.945463423566395 -33.944913819364416 14.754077489754019 #
straight-curve $-1 60.945463423566395 -33.944913819364416 0 0 0 -1 I I #
straight-curve $-1 60.945463423566395 33.944913819364416 0 0 0 -1 I I #
loop $-1 $-1 $447 $328 #
plane-surface $-1 -60.945463423566395 0 0 1 0 0 0 0 -1 forward_v I I I I #
coedge $-1 $332 $331 $453 $501 forward $134 $-1 #
edge $-1 $336 23.363231988947746 $456 33.944913819364416 $335 $502 forward 7 unknown #
coedge $-1 $450 $447 $332 $444 reversed $439 $-1 #
edge $-1 $503 -33.944913819364416 $445 -23.363231988947746 $443 $504 forward 7 unknown #
vertex $-1 $448 $505 #
straight-curve $-1 0 -23.363231988947746 -14.754077489754019 1 0 0 I I #
coedge $-1 $443 $338 $334 $448 forward $439 $-1 #
edge $-1 $340 2.7920269171603209 $445 8.9053760207825725 $447 $506 forward 7 unknown #
point $-1 60.945463423566395 -23.363231988947746 -14.754077489754019 #
coedge $-1 $338 $443 $342 $454 reversed $439 $-1 #
straight-curve $-1 -60.945463423566395 -14.32703645207804 -8.6407283861317676 0 1 0 I I #
point $-1 -60.945463423566395 -23.363231988947746 -8.6407283861317676 #
coedge $-1 $343 $342 $441 $501 reversed $329 $-1 #
edge $-1 $344 8.6407283861317676 $503 14.754077489754019 $450 $507 forward 7 unknown #
point $-1 -60.945463423566395 -33.944913819364416 -8.6407283861317676 #
vertex $-1 $346 $508 #
straight-curve $-1 60.945463423566395 -33.944913819364416 0 0 0 -1 I I #
coedge $-1 $360 $359 $352 $459 forward $349 $-1 #
edge $-1 $460 28.623616583107257 $463 33.330750430384668 $458 $509 forward 7 unknown #
vertex $-1 $364 $510 #
straight-curve $-1 -77.836252984872459 0.043505482586070343 14.754077489754017 -1 0 0 I I #
edge $-1 $463 -2.2349650525438971 $361 6.6178841924595506 $360 $511 forward 7 unknown #
vertex $-1 $462 $512 #
straight-curve $-1 -60.945463423566409 0.043505482586070343 10.046943642476592 0.62932038083071107 0 0.77714596973225614 I I #
point $-1 -57.133701694414889 0.043505482586070343 14.754077489754019 #
point $-1 -60.945463423566395 -8.8093437624173774 10.046943642476609 #
straight-curve $-1 -60.945463423566395 0 14.754077489754019 0 -1 0 I I #
vertex $-1 $367 $513 #
point $-1 -55.649398171732031 -6.2799582638449643 10.941953005730046 #
vertex $-1 $371 $514 #
point $-1 -55.649398171732031 -2.4858800159863428 10.941953005730046 #
coedge $-1 $386 $385 $378 $473 forward $375 $-1 #
edge $-1 $474 28.623616583107257 $477 33.330750430384668 $472 $515 forward 7 unknown #
vertex $-1 $390 $516 #
straight-curve $-1 -77.836252984872459 28.697578386742148 14.754077489754017 -1 0 0 I I #
edge $-1 $477 -16.562001504621936 $387 -7.709152259618488 $386 $517 forward 7 unknown #
vertex $-1 $476 $518 #
straight-curve $-1 -60.945463423566409 28.697578386742148 10.046943642476592 0.62932038083071107 0 0.77714596973225614 I I #
point $-1 -57.133701694414889 28.697578386742148 14.754077489754019 #
point $-1 -60.945463423566395 19.8447291417387 10.046943642476609 #
straight-curve $-1 -60.945463423566395 0 14.754077489754019 0 -1 0 I I #
vertex $-1 $393 $519 #
point $-1 -55.649398171732031 22.37411464031112 10.941953005730046 #
vertex $-1 $397 $520 #
point $-1 -55.649398171732031 26.168192888169742 10.941953005730046 #
edge $-1 $487 71.02751040655798 $490 79.920512054608736 $402 $521 forward 7 unknown #
vertex $-1 $416 $522 #
straight-curve $-1 54.22988940773466 16.060720277944679 14.754077489754025 1 0 0 I I #
edge $-1 $490 5.4374854859950013 $413 15.808984097904354 $412 $523 forward 7 unknown #
vertex $-1 $489 $524 #
straight-curve $-1 1.8515711440574876 16.060720277944679 112.46928351311509 -0.48480960649040278 0 0.87461971476443456 I I #
point $-1 56.015992298311453 16.060720277944679 14.754077489754025 #
point $-1 60.945463423566395 26.432218889854031 5.8610758417032685 #
straight-curve $-1 60.945463423566395 0 14.754077489754019 0 1 0 I I #
vertex $-1 $419 $525 #
point $-1 57.427406952988093 21.246469583899355 7.4370032582129335 #
straight-curve $-1 -60.945463423566395 33.944913819364416 0 0 0 -1 I I #
point $-1 -60.945463423566395 -33.944913819364416 -14.754077489754019 #
straight-curve $-1 -60.945463423566395 0 -14.754077489754019 0 1 0 I I #
point $-1 -60.945463423566395 33.944913819364416 -14.754077489754019 #
edge $-1 $456 -60.945463423566395 $503 60.945463423566395 $453 $526 forward 7 unknown #
straight-curve $-1 60.945463423566395 0 -14.754077489754019 0 -1 0 I I #
vertex $-1 $444 $527 #
straight-curve $-1 -60.945463423566395 0 -14.754077489754019 0 1 0 I I #
point $-1 -60.945463423566395 -23.363231988947746 -14.754077489754019 #
straight-curve $-1 -60.945463423566395 -23.363231988947746 -5.8487014689714467 0 0 -1 I I #
straight-curve $-1 -60.945463423566395 -33.944913819364416 0 0 0 -1 I I #
point $-1 60.945463423566395 -33.944913819364416 -14.754077489754019 #
straight-curve $-1 -60.945463423566395 0.043505482586070343 43.377694072861274 0 0 -1 I I #
point $-1 -60.945463423566395 0.043505482586070343 14.754077489754019 #
straight-curve $-1 -60.945463423566395 -2.1914595699578268 10.046943642476609 0 -1 0 I I #
point $-1 -60.945463423566395 0.043505482586070343 10.046943642476609 #
point $-1 -55.501572582830484 -6.2799582638449643 9.5354866551670785 #
point $-1 -55.501572582830484 -2.4858800159863428 9.5354866551670785 #
straight-curve $-1 -60.945463423566395 28.697578386742148 43.377694072861274 0 0 -1 I I #
point $-1 -60.945463423566395 28.697578386742148 14.754077489754019 #
straight-curve $-1 -60.945463423566395 12.135576882120212 10.046943642476609 0 -1 0 I I #
point $-1 -60.945463423566395 28.697578386742148 10.046943642476609 #
point $-1 -55.501572582830484 22.37411464031112 9.5354866551670785 #
point $-1 -55.501572582830484 26.168192888169742 9.5354866551670785 #
straight-curve $-1 60.945463423566395 16.060720277944679 85.781587896312004 0 0 -1 I I #
point $-1 60.945463423566395 16.060720277944679 14.754077489754019 #
straight-curve $-1 60.945463423566395 10.623234791949677 5.8610758417032827 0 1 0 I I #
point $-1 60.945463423566395 16.060720277944679 5.8610758417032685 #
point $-1 54.70854831047842 21.246469583899355 8.216623474760997 #
straight-curve $-1 0 -33.944913819364416 -14.754077489754019 -1 0 0 I I #
point $-1 -60.945463423566395 -33.944913819364416 -14.754077489754019 #
End-of-ACIS-data 