500 0 6 0           
7 Unknown 11 ACIS 5.0 NT 24 Fri Mar 26 16:35:04 1999 
-1 9.9999999999999995e-007 1e-010 
body $-1 $6 $-1 $7 #
body $-1 $8 $-1 $9 #
body $-1 $10 $-1 $11 #
body $-1 $12 $-1 $13 #
body $-1 $14 $-1 $15 #
body $-1 $16 $-1 $17 #
lump $-1 $-1 $18 $0 #
transform $-1 1 0 0 0 1 0 0 0 1 75.943479720450455 48.770282928358498 13.991967489383212 1 rotate no_reflect no_shear #
lump $-1 $-1 $19 $1 #
transform $-1 1 0 0 0 1 0 0 0 1 75.943479720450455 48.770282928358498 13.991967489383212 1 rotate no_reflect no_shear #
lump $-1 $-1 $20 $2 #
transform $-1 1 0 0 0 1 0 0 0 1 75.943479720450455 48.770282928358498 13.991967489383212 1 rotate no_reflect no_shear #
lump $-1 $-1 $21 $3 #
transform $-1 1 0 0 0 1 0 0 0 1 75.943479720450455 48.770282928358498 13.991967489383212 1 rotate no_reflect no_shear #
lump $-1 $-1 $22 $4 #
transform $-1 1 0 0 0 1 0 0 0 1 75.943479720450455 48.770282928358498 13.991967489383212 1 rotate no_reflect no_shear #
lump $-1 $-1 $23 $5 #
transform $-1 1 0 0 0 1 0 0 0 1 75.943479720450455 48.770282928358498 13.991967489383212 1 rotate no_reflect no_shear #
shell $-1 $-1 $-1 $24 $-1 $6 #
shell $-1 $-1 $-1 $25 $-1 $8 #
shell $-1 $-1 $-1 $26 $-1 $10 #
shell $-1 $-1 $-1 $27 $-1 $12 #
shell $-1 $-1 $-1 $28 $-1 $14 #
shell $-1 $-1 $-1 $29 $-1 $16 #
face $-1 $30 $31 $18 $-1 $32 forward single #
face $-1 $33 $34 $19 $-1 $35 forward single #
face $-1 $36 $37 $20 $-1 $38 reversed single #
face $-1 $39 $40 $21 $-1 $41 forward single #
face $-1 $42 $43 $22 $-1 $44 reversed single #
face $-1 $45 $46 $23 $-1 $47 forward single #
face $-1 $48 $49 $18 $-1 $50 reversed single #
loop $-1 $-1 $51 $24 #
plane-surface $-1 0 0 13.991967489383212 0 0 1 1 0 0 forward_v I I I I #
face $-1 $52 $53 $19 $-1 $54 reversed single #
loop $-1 $-1 $55 $25 #
plane-surface $-1 0 -48.770282928358498 0 0 1 0 0 0 1 forward_v I I I I #
face $-1 $56 $57 $20 $-1 $58 reversed single #
loop $-1 $-1 $59 $26 #
plane-surface $-1 42.341265052971053 -4.2948036808684478 220.1147985564655 0 -1 0 -0.5877852598018023 0 -0.80901698891910034 forward_v I I I I #
face $-1 $60 $61 $21 $-1 $62 forward single #
loop $-1 $63 $64 $27 #
cone-surface $-1 70.35418921045806 -14.377185168584134 8.9971049757137216 -0.5877852598018023 0 -0.80901698891910034 2.0225424722977507 0 -1.4694631495045059 1 I I 0 1 2.5 forward I I I I #
face $-1 $65 $66 $22 $-1 $67 reversed single #
loop $-1 $-1 $68 $28 #
plane-surface $-1 42.341265052971053 40.634873769448284 220.1147985564655 0 -1 0 -0.5877852598018023 0 -0.80901698891910034 forward_v I I I I #
face $-1 $69 $70 $23 $-1 $71 forward single #
loop $-1 $72 $73 $29 #
cone-surface $-1 70.35418921045806 30.552492281732597 8.9971049757137216 -0.5877852598018023 0 -0.80901698891910034 2.0225424722977507 0 -1.4694631495045059 1 I I 0 1 2.5 forward I I I I #
face $-1 $74 $75 $18 $-1 $76 reversed single #
loop $-1 $-1 $77 $30 #
plane-surface $-1 0 0 -13.991967489383212 0 0 1 1 0 0 forward_v I I I I #
coedge $-1 $78 $79 $80 $81 forward $31 $-1 #
face $-1 $82 $83 $19 $-1 $84 reversed single #
loop $-1 $-1 $85 $33 #
plane-surface $-1 0 0 -13.991967489383212 0 0 1 1 0 0 forward_v I I I I #
coedge $-1 $86 $87 $88 $89 forward $34 $-1 #
face $-1 $90 $91 $20 $-1 $92 reversed single #
loop $-1 $-1 $93 $36 #
plane-surface $-1 -46.935650862504701 -14.377185168584134 97.235667973510331 0.5877852598018023 0 0.80901698891910034 0.80901698891910034 0 -0.5877852598018023 forward_v I I I I #
coedge $-1 $94 $95 $96 $97 reversed $37 $-1 #
face $-1 $-1 $98 $21 $-1 $99 forward single #
loop $-1 $100 $101 $39 #
cone-surface $-1 68.18217136567668 -14.377185168584134 6.0075789415697063 -0.5877852598018023 0 -0.80901698891910034 1.0112712361488754 0 -0.73473157475225293 1 I I -0.70710678118654746 0.70710678118654746 1.25 forward I I I I #
loop $-1 $-1 $102 $27 #
coedge $-1 $64 $64 $103 $104 reversed $40 $-1 #
face $-1 $105 $106 $22 $-1 $107 reversed single #
loop $-1 $-1 $108 $42 #
plane-surface $-1 -46.935650862504701 30.552492281732597 97.235667973510331 0.5877852598018023 0 0.80901698891910034 0.80901698891910034 0 -0.5877852598018023 forward_v I I I I #
coedge $-1 $109 $110 $111 $112 reversed $43 $-1 #
face $-1 $-1 $113 $23 $-1 $114 forward single #
loop $-1 $115 $116 $45 #
cone-surface $-1 68.18217136567668 30.552492281732597 6.0075789415697063 -0.5877852598018023 0 -0.80901698891910034 1.0112712361488754 0 -0.73473157475225293 1 I I -0.70710678118654746 0.70710678118654746 1.25 forward I I I I #
loop $-1 $-1 $117 $29 #
coedge $-1 $73 $73 $118 $119 reversed $46 $-1 #
face $-1 $120 $121 $18 $-1 $122 reversed single #
loop $-1 $-1 $123 $48 #
plane-surface $-1 0 -48.770282928358498 0 0 1 0 0 0 1 forward_v I I I I #
coedge $-1 $124 $125 $126 $127 forward $49 $-1 #
coedge $-1 $128 $51 $129 $130 forward $31 $-1 #
coedge $-1 $51 $128 $131 $132 forward $31 $-1 #
coedge $-1 $133 $134 $51 $81 reversed $135 $-1 #
edge $-1 $136 -48.770282928358498 $137 48.770282928358498 $80 $138 forward 7 unknown #
face $-1 $139 $140 $19 $-1 $141 reversed single #
loop $-1 $-1 $142 $52 #
plane-surface $-1 -56.671442357948997 -64.945590041506961 0 0 1 0 0 0 1 forward_v I I I I #
coedge $-1 $143 $144 $87 $145 forward $53 $-1 #
coedge $-1 $146 $55 $147 $148 reversed $34 $-1 #
coedge $-1 $55 $146 $85 $145 reversed $34 $-1 #
coedge $-1 $149 $150 $55 $89 reversed $140 $-1 #
edge $-1 $151 -13.991967489383212 $152 13.991967489383212 $88 $153 forward 7 unknown #
face $-1 $154 $155 $20 $-1 $156 forward single #
loop $-1 $-1 $157 $56 #
plane-surface $-1 42.341265052971053 -24.45956665629982 220.1147985564655 0 1 0 0.5877852598018023 0 0.80901698891910034 forward_v I I I I #
coedge $-1 $158 $159 $160 $161 reversed $57 $-1 #
coedge $-1 $95 $59 $162 $163 reversed $37 $-1 #
coedge $-1 $59 $94 $158 $164 reversed $37 $-1 #
coedge $-1 $160 $165 $59 $97 forward $155 $-1 #
edge $-1 $166 -54.772847193964928 $167 -46.468838714038519 $96 $168 forward 7 unknown #
loop $-1 $-1 $103 $60 #
plane-surface $-1 -46.935650862504701 -14.377185168584134 97.235667973510331 0.5877852598018023 0 0.80901698891910034 0.80901698891910034 0 -0.5877852598018023 forward_v I I I I #
loop $-1 $-1 $169 $39 #
coedge $-1 $101 $101 $102 $170 reversed $61 $-1 #
coedge $-1 $102 $102 $101 $170 forward $63 $-1 #
coedge $-1 $103 $103 $64 $104 forward $98 $-1 #
edge $-1 $171 0 $171 6.2831853071796004 $103 $172 forward 7 unknown #
face $-1 $173 $174 $22 $-1 $175 reversed single #
loop $-1 $-1 $176 $65 #
plane-surface $-1 42.341265052971053 20.470110794016911 220.1147985564655 0 1 0 0.5877852598018023 0 0.80901698891910034 forward_v I I I I #
coedge $-1 $177 $178 $179 $180 reversed $66 $-1 #
coedge $-1 $110 $68 $181 $182 reversed $43 $-1 #
coedge $-1 $68 $109 $177 $183 reversed $43 $-1 #
coedge $-1 $179 $184 $68 $112 forward $185 $-1 #
edge $-1 $186 -54.772847193964928 $187 -46.468838714038519 $111 $188 forward 7 unknown #
loop $-1 $-1 $118 $69 #
plane-surface $-1 -46.935650862504701 30.552492281732597 97.235667973510331 0.5877852598018023 0 0.80901698891910034 0.80901698891910034 0 -0.5877852598018023 forward_v I I I I #
loop $-1 $-1 $189 $45 #
coedge $-1 $116 $116 $117 $190 reversed $70 $-1 #
coedge $-1 $117 $117 $116 $190 forward $72 $-1 #
coedge $-1 $118 $118 $73 $119 forward $113 $-1 #
edge $-1 $191 0 $191 6.2831853071796004 $118 $192 forward 7 unknown #
face $-1 $193 $194 $18 $-1 $195 reversed single #
loop $-1 $-1 $196 $74 #
plane-surface $-1 -75.943479720450455 0 0 1 0 0 0 0 -1 forward_v I I I I #
coedge $-1 $197 $131 $198 $199 forward $75 $-1 #
coedge $-1 $200 $77 $197 $201 forward $49 $-1 #
coedge $-1 $77 $200 $202 $203 forward $49 $-1 #
coedge $-1 $134 $133 $77 $127 reversed $135 $-1 #
edge $-1 $204 -48.770282928358498 $205 48.770282928358498 $126 $206 forward 7 unknown #
coedge $-1 $79 $78 $207 $208 forward $31 $-1 #
coedge $-1 $209 $210 $78 $130 reversed $194 $-1 #
edge $-1 $137 -75.943479720450455 $211 75.943479720450455 $129 $212 forward 7 unknown #
coedge $-1 $123 $213 $79 $132 reversed $75 $-1 #
edge $-1 $214 -75.943479720450455 $136 75.943479720450455 $131 $215 forward 7 unknown #
coedge $-1 $126 $80 $213 $216 forward $135 $-1 #
coedge $-1 $80 $126 $209 $217 reversed $135 $-1 #
loop $-1 $-1 $133 $193 #
vertex $-1 $81 $218 #
vertex $-1 $81 $219 #
straight-curve $-1 75.943479720450455 0 13.991967489383212 0 1 0 I I #
face $-1 $220 $221 $19 $-1 $222 reversed single #
loop $-1 $-1 $88 $82 #
plane-surface $-1 -58.804334548650623 -56.857936484932729 0 1 0 0 0 0 -1 forward_v I I I I #
coedge $-1 $223 $224 $225 $226 forward $83 $-1 #
coedge $-1 $227 $85 $228 $229 forward $53 $-1 #
coedge $-1 $85 $227 $149 $230 forward $53 $-1 #
edge $-1 $151 -58.804334548650623 $231 -54.538550167247372 $85 $232 forward 7 unknown #
coedge $-1 $87 $86 $233 $234 forward $34 $-1 #
coedge $-1 $235 $236 $86 $148 forward $237 $-1 #
edge $-1 $238 54.538550167247372 $152 58.804334548650623 $147 $239 forward 7 unknown #
coedge $-1 $225 $88 $144 $230 reversed $140 $-1 #
coedge $-1 $88 $225 $235 $240 reversed $140 $-1 #
vertex $-1 $145 $241 #
vertex $-1 $240 $242 #
straight-curve $-1 -58.804334548650623 -48.770282928358498 0 0 0 1 I I #
face $-1 $-1 $243 $20 $-1 $244 reversed single #
loop $-1 $-1 $96 $90 #
plane-surface $-1 0 0 13.991967489383212 0 0 1 1 0 0 forward_v I I I I #
coedge $-1 $245 $246 $247 $248 reversed $91 $-1 #
coedge $-1 $249 $93 $95 $164 forward $57 $-1 #
coedge $-1 $93 $249 $245 $250 forward $57 $-1 #
coedge $-1 $247 $96 $93 $161 forward $155 $-1 #
edge $-1 $167 -2.8937889034236193 $251 17.270974072007753 $160 $252 forward 7 unknown #
coedge $-1 $253 $254 $94 $163 forward $243 $-1 #
edge $-1 $255 -102.09864722019815 $166 -96.065431788849537 $162 $256 forward 7 unknown #
edge $-1 $167 141.62264040475665 $255 151.88695944090085 $95 $257 forward 7 unknown #
coedge $-1 $96 $247 $253 $258 forward $155 $-1 #
vertex $-1 $97 $259 #
vertex $-1 $97 $260 #
straight-curve $-1 21.170632526485527 -4.2948036808684478 13.991967489383214 -1 0 0 I I #
coedge $-1 $169 $169 $-1 $261 reversed $100 $-1 #
edge $-1 $262 0 $262 6.2831853071796004 $101 $263 forward 7 unknown #
vertex $-1 $104 $264 #
ellipse-curve $-1 71.791475480487236 -14.377185168584134 10.975359773708915 0.5877852598018023 0 0.80901698891910034 2.0225424722977507 0 -1.4694631495045059 1 I I #
face $-1 $-1 $185 $22 $-1 $265 forward single #
loop $-1 $-1 $266 $105 #
plane-surface $-1 75.943479720450455 0 0 -1 0 0 0 0 1 forward_v I I I I #
coedge $-1 $267 $268 $269 $270 reversed $106 $-1 #
coedge $-1 $271 $108 $110 $183 forward $66 $-1 #
coedge $-1 $108 $271 $267 $272 forward $66 $-1 #
coedge $-1 $269 $111 $108 $180 forward $185 $-1 #
edge $-1 $187 -25.358627628581985 $273 -5.1938646531506123 $179 $274 forward 7 unknown #
coedge $-1 $275 $276 $109 $182 forward $174 $-1 #
edge $-1 $277 -102.09864722019815 $186 -96.065431788849537 $181 $278 forward 7 unknown #
edge $-1 $187 141.62264040475665 $277 151.88695944090085 $110 $279 forward 7 unknown #
coedge $-1 $111 $269 $275 $280 forward $185 $-1 #
loop $-1 $-1 $269 $173 #
vertex $-1 $182 $281 #
vertex $-1 $112 $282 #
straight-curve $-1 21.170632526485527 40.634873769448284 13.991967489383214 -1 0 0 I I #
coedge $-1 $189 $189 $-1 $283 reversed $115 $-1 #
edge $-1 $284 0 $284 6.2831853071796004 $116 $285 forward 7 unknown #
vertex $-1 $119 $286 #
ellipse-curve $-1 71.791475480487236 30.552492281732597 10.975359773708915 0.5877852598018023 0 0.80901698891910034 2.0225424722977507 0 -1.4694631495045059 1 I I #
face $-1 $-1 $135 $18 $-1 $287 reversed single #
loop $-1 $-1 $209 $120 #
plane-surface $-1 0 48.770282928358498 0 0 -1 0 0 0 -1 forward_v I I I I #
coedge $-1 $288 $207 $210 $289 forward $121 $-1 #
coedge $-1 $213 $123 $124 $201 reversed $75 $-1 #
coedge $-1 $207 $288 $123 $199 reversed $121 $-1 #
edge $-1 $214 -13.991967489383212 $290 13.991967489383212 $198 $291 forward 7 unknown #
coedge $-1 $125 $124 $288 $292 forward $49 $-1 #
edge $-1 $205 -75.943479720450455 $290 75.943479720450455 $197 $293 forward 7 unknown #
coedge $-1 $210 $209 $125 $203 reversed $194 $-1 #
edge $-1 $294 -75.943479720450455 $204 75.943479720450455 $202 $295 forward 7 unknown #
vertex $-1 $127 $296 #
vertex $-1 $216 $297 #
straight-curve $-1 75.943479720450455 0 -13.991967489383212 0 -1 0 I I #
coedge $-1 $196 $198 $128 $208 reversed $121 $-1 #
edge $-1 $211 -48.770282928358498 $214 48.770282928358498 $207 $298 forward 7 unknown #
coedge $-1 $202 $129 $134 $217 forward $194 $-1 #
coedge $-1 $129 $202 $196 $289 reversed $194 $-1 #
vertex $-1 $130 $299 #
straight-curve $-1 0 48.770282928358498 13.991967489383212 -1 0 0 I I #
coedge $-1 $131 $197 $133 $216 reversed $75 $-1 #
vertex $-1 $208 $300 #
straight-curve $-1 0 -48.770282928358498 13.991967489383212 1 0 0 I I #
edge $-1 $136 -13.991967489383212 $205 13.991967489383212 $133 $301 forward 7 unknown #
edge $-1 $137 -13.991967489383212 $204 13.991967489383212 $134 $302 forward 7 unknown #
point $-1 75.943479720450455 -48.770282928358498 13.991967489383212 #
point $-1 75.943479720450455 48.770282928358498 13.991967489383212 #
face $-1 $-1 $237 $19 $-1 $303 forward single #
loop $-1 $-1 $304 $139 #
plane-surface $-1 -54.538550167247372 -56.857936484932729 0 -1 0 0 0 0 1 forward_v I I I I #
coedge $-1 $305 $142 $227 $306 reversed $83 $-1 #
coedge $-1 $142 $305 $307 $308 reversed $83 $-1 #
coedge $-1 $150 $149 $142 $226 reversed $140 $-1 #
edge $-1 $309 -13.991967489383212 $310 13.991967489383212 $225 $311 forward 7 unknown #
coedge $-1 $144 $143 $223 $306 forward $53 $-1 #
coedge $-1 $233 $304 $143 $229 reversed $221 $-1 #
edge $-1 $231 -8.0876535565742316 $312 8.0876535565742316 $228 $313 forward 7 unknown #
edge $-1 $310 -8.0876535565742316 $151 8.0876535565742316 $149 $314 forward 7 unknown #
vertex $-1 $229 $315 #
straight-curve $-1 0 -48.770282928358498 -13.991967489383212 1 0 0 I I #
coedge $-1 $316 $228 $146 $234 reversed $221 $-1 #
edge $-1 $238 -13.991967489383212 $231 13.991967489383212 $233 $317 forward 7 unknown #
coedge $-1 $307 $147 $150 $240 forward $237 $-1 #
coedge $-1 $147 $307 $316 $318 forward $237 $-1 #
loop $-1 $-1 $147 $220 #
vertex $-1 $148 $319 #
straight-curve $-1 0 -48.770282928358498 13.991967489383212 -1 0 0 I I #
edge $-1 $152 -8.0876535565742316 $309 8.0876535565742316 $150 $320 forward 7 unknown #
point $-1 -58.804334548650623 -48.770282928358498 -13.991967489383212 #
point $-1 -58.804334548650623 -48.770282928358498 13.991967489383212 #
loop $-1 $-1 $162 $154 #
plane-surface $-1 75.943479720450455 0 0 -1 0 0 0 0 1 forward_v I I I I #
coedge $-1 $246 $157 $159 $250 reversed $91 $-1 #
coedge $-1 $157 $245 $321 $322 reversed $91 $-1 #
coedge $-1 $165 $160 $157 $248 forward $155 $-1 #
edge $-1 $251 46.468838714038519 $323 54.772847193964928 $247 $324 forward 7 unknown #
coedge $-1 $159 $158 $254 $325 reversed $57 $-1 #
edge $-1 $326 -151.88695944090085 $251 -141.62264040475665 $245 $327 forward 7 unknown #
vertex $-1 $161 $328 #
straight-curve $-1 67.639471240524045 -7.188592584292067 13.991967489383207 0 -1 0 I I #
coedge $-1 $321 $162 $165 $258 reversed $243 $-1 #
coedge $-1 $162 $321 $249 $325 forward $243 $-1 #
vertex $-1 $163 $329 #
straight-curve $-1 75.943479720450455 -4.2948036808684478 110.05739927823275 0 0 1 I I #
straight-curve $-1 -46.935650862504701 -4.2948036808684478 97.235667973510331 0.80901698891910034 0 -0.5877852598018023 I I #
edge $-1 $323 -24.45956665629982 $166 -4.2948036808684478 $253 $330 forward 7 unknown #
point $-1 75.943479720450455 -4.2948036808684478 13.991967489383212 #
point $-1 67.639471240524045 -4.2948036808684478 13.991967489383214 #
edge $-1 $331 1 $331 0 $169 $-1 forward 7 unknown #
vertex $-1 $170 $332 #
ellipse-curve $-1 68.91690294042894 -14.377185168584134 7.0188501777185817 0.5877852598018023 0 0.80901698891910034 2.0225424722977507 0 -1.4694631495045059 1 I I #
point $-1 73.814017952784951 -14.377185168584134 9.5058966242043539 #
plane-surface $-1 0 0 13.991967489383212 0 0 1 1 0 0 forward_v I I I I #
coedge $-1 $276 $275 $268 $333 forward $174 $-1 #
coedge $-1 $268 $176 $178 $272 reversed $106 $-1 #
coedge $-1 $176 $267 $266 $333 reversed $106 $-1 #
coedge $-1 $184 $179 $176 $270 forward $185 $-1 #
edge $-1 $273 46.468838714038519 $334 54.772847193964928 $269 $335 forward 7 unknown #
coedge $-1 $178 $177 $276 $336 reversed $66 $-1 #
edge $-1 $337 -151.88695944090085 $273 -141.62264040475665 $267 $338 forward 7 unknown #
vertex $-1 $180 $339 #
straight-curve $-1 67.639471240524045 15.276246140866299 13.991967489383207 0 -1 0 I I #
coedge $-1 $266 $181 $184 $280 reversed $174 $-1 #
coedge $-1 $181 $266 $271 $336 forward $174 $-1 #
vertex $-1 $182 $340 #
straight-curve $-1 75.943479720450455 40.634873769448284 110.05739927823275 0 0 1 I I #
straight-curve $-1 -46.935650862504701 40.634873769448284 97.235667973510331 0.80901698891910034 0 -0.5877852598018023 I I #
edge $-1 $334 20.470110794016911 $186 40.634873769448284 $275 $341 forward 7 unknown #
point $-1 75.943479720450455 40.634873769448284 13.991967489383212 #
point $-1 67.639471240524045 40.634873769448284 13.991967489383214 #
edge $-1 $342 1 $342 0 $189 $-1 forward 7 unknown #
vertex $-1 $190 $343 #
ellipse-curve $-1 68.91690294042894 30.552492281732597 7.0188501777185817 0.5877852598018023 0 0.80901698891910034 2.0225424722977507 0 -1.4694631495045059 1 I I #
point $-1 73.814017952784951 30.552492281732597 9.5058966242043539 #
plane-surface $-1 75.943479720450455 0 0 -1 0 0 0 0 1 forward_v I I I I #
coedge $-1 $198 $196 $200 $292 reversed $121 $-1 #
edge $-1 $211 -13.991967489383212 $294 13.991967489383212 $210 $344 forward 7 unknown #
vertex $-1 $292 $345 #
straight-curve $-1 -75.943479720450455 -48.770282928358498 0 0 0 -1 I I #
edge $-1 $290 -48.770282928358498 $294 48.770282928358498 $288 $346 forward 7 unknown #
straight-curve $-1 0 -48.770282928358498 -13.991967489383212 -1 0 0 I I #
vertex $-1 $203 $347 #
straight-curve $-1 0 48.770282928358498 -13.991967489383212 1 0 0 I I #
point $-1 75.943479720450455 48.770282928358498 -13.991967489383212 #
point $-1 75.943479720450455 -48.770282928358498 -13.991967489383212 #
straight-curve $-1 -75.943479720450455 0 13.991967489383212 0 -1 0 I I #
point $-1 -75.943479720450455 48.770282928358498 13.991967489383212 #
point $-1 -75.943479720450455 -48.770282928358498 13.991967489383212 #
straight-curve $-1 75.943479720450455 -48.770282928358498 0 0 0 -1 I I #
straight-curve $-1 75.943479720450455 48.770282928358498 0 0 0 -1 I I #
plane-surface $-1 0 0 13.991967489383212 0 0 1 1 0 0 forward_v I I I I #
coedge $-1 $228 $316 $305 $348 forward $221 $-1 #
coedge $-1 $224 $223 $304 $348 reversed $83 $-1 #
edge $-1 $312 -2.1328921907016252 $310 2.1328921907016252 $223 $349 forward 7 unknown #
coedge $-1 $236 $235 $224 $308 forward $237 $-1 #
edge $-1 $309 -2.1328921907016252 $350 2.1328921907016252 $224 $351 forward 7 unknown #
vertex $-1 $240 $352 #
vertex $-1 $230 $353 #
straight-curve $-1 -58.804334548650623 -64.945590041506961 0 0 0 -1 I I #
vertex $-1 $348 $354 #
straight-curve $-1 -54.538550167247372 -56.857936484932729 -13.991967489383212 0 -1 0 I I #
straight-curve $-1 -58.804334548650623 -56.857936484932729 -13.991967489383212 0 1 0 I I #
point $-1 -54.538550167247372 -48.770282928358498 -13.991967489383212 #
coedge $-1 $304 $233 $236 $318 reversed $221 $-1 #
straight-curve $-1 -54.538550167247372 -48.770282928358498 0 0 0 -1 I I #
edge $-1 $350 -8.0876535565742316 $238 8.0876535565742316 $316 $355 forward 7 unknown #
point $-1 -54.538550167247372 -48.770282928358498 13.991967489383212 #
straight-curve $-1 -58.804334548650623 -56.857936484932729 13.991967489383212 0 -1 0 I I #
coedge $-1 $254 $253 $246 $322 forward $243 $-1 #
edge $-1 $323 96.065431788849537 $326 102.09864722019815 $321 $356 forward 7 unknown #
vertex $-1 $258 $357 #
straight-curve $-1 21.170632526485527 -24.45956665629982 13.991967489383214 1 0 0 I I #
edge $-1 $326 -17.270974072007753 $255 2.8937889034236193 $254 $358 forward 7 unknown #
vertex $-1 $325 $359 #
straight-curve $-1 -46.935650862504701 -24.45956665629982 97.235667973510331 -0.80901698891910034 0 0.5877852598018023 I I #
point $-1 67.639471240524045 -24.45956665629982 13.991967489383214 #
point $-1 75.943479720450455 -4.2948036808684478 7.9587520580346052 #
straight-curve $-1 75.943479720450455 0 13.991967489383212 0 1 0 I I #
vertex $-1 $261 $360 #
point $-1 70.939445412726684 -14.377185168584134 5.5493870282140758 #
edge $-1 $334 96.065431788849537 $337 102.09864722019815 $266 $361 forward 7 unknown #
vertex $-1 $280 $362 #
straight-curve $-1 21.170632526485527 20.470110794016911 13.991967489383214 1 0 0 I I #
edge $-1 $337 5.1938646531506123 $277 25.358627628581985 $276 $363 forward 7 unknown #
vertex $-1 $336 $364 #
straight-curve $-1 -46.935650862504701 20.470110794016911 97.235667973510331 -0.80901698891910034 0 0.5877852598018023 I I #
point $-1 67.639471240524045 20.470110794016911 13.991967489383214 #
point $-1 75.943479720450455 40.634873769448284 7.9587520580346052 #
straight-curve $-1 75.943479720450455 0 13.991967489383212 0 1 0 I I #
vertex $-1 $283 $365 #
point $-1 70.939445412726684 30.552492281732597 5.5493870282140758 #
straight-curve $-1 -75.943479720450455 48.770282928358498 0 0 0 -1 I I #
point $-1 -75.943479720450455 -48.770282928358498 -13.991967489383212 #
straight-curve $-1 -75.943479720450455 0 -13.991967489383212 0 1 0 I I #
point $-1 -75.943479720450455 48.770282928358498 -13.991967489383212 #
edge $-1 $350 -13.991967489383212 $312 13.991967489383212 $304 $366 forward 7 unknown #
straight-curve $-1 -56.671442357948997 -64.945590041506961 -13.991967489383212 -1 0 0 I I #
vertex $-1 $318 $367 #
straight-curve $-1 -56.671442357948997 -64.945590041506961 13.991967489383212 1 0 0 I I #
point $-1 -58.804334548650623 -64.945590041506961 13.991967489383212 #
point $-1 -58.804334548650623 -64.945590041506961 -13.991967489383212 #
point $-1 -54.538550167247372 -64.945590041506961 -13.991967489383212 #
straight-curve $-1 -54.538550167247372 -56.857936484932729 13.991967489383212 0 1 0 I I #
straight-curve $-1 75.943479720450455 -24.45956665629982 110.05739927823275 0 0 -1 I I #
point $-1 75.943479720450455 -24.45956665629982 13.991967489383212 #
straight-curve $-1 75.943479720450455 -7.188592584292067 7.9587520580345981 0 1 0 I I #
point $-1 75.943479720450455 -24.45956665629982 7.9587520580346052 #
point $-1 67.44743979092442 -14.377185168584134 4.9963077054208309 #
straight-curve $-1 75.943479720450455 20.470110794016911 110.05739927823275 0 0 -1 I I #
point $-1 75.943479720450455 20.470110794016911 13.991967489383212 #
straight-curve $-1 75.943479720450455 15.276246140866299 7.9587520580345981 0 1 0 I I #
point $-1 75.943479720450455 20.470110794016911 7.9587520580346052 #
point $-1 67.44743979092442 30.552492281732597 4.9963077054208309 #
straight-curve $-1 -54.538550167247372 -64.945590041506961 0 0 0 -1 I I #
point $-1 -54.538550167247372 -64.945590041506961 13.991967489383212 #
End-of-ACIS-data 