500 0 7 0           
7 Unknown 11 ACIS 5.0 NT 24 Thu Mar 25 20:32:43 1999 
-1 9.9999999999999995e-007 1e-010 
body $-1 $7 $-1 $8 #
body $-1 $9 $-1 $10 #
body $-1 $11 $-1 $12 #
body $-1 $13 $-1 $14 #
body $-1 $15 $-1 $16 #
body $-1 $17 $-1 $18 #
body $-1 $19 $-1 $20 #
lump $-1 $-1 $21 $0 #
transform $-1 1 0 0 0 1 0 0 0 1 50.733970152897733 26.128606217176134 6.7624823110258472 1 rotate no_reflect no_shear #
lump $-1 $-1 $22 $1 #
transform $-1 1 0 0 0 1 0 0 0 1 50.733970152897733 26.128606217176134 6.7624823110258472 1 rotate no_reflect no_shear #
lump $-1 $-1 $23 $2 #
transform $-1 1 0 0 0 1 0 0 0 1 50.733970152897733 26.128606217176134 6.7624823110258472 1 rotate no_reflect no_shear #
lump $-1 $-1 $24 $3 #
transform $-1 1 0 0 0 1 0 0 0 1 50.733970152897733 26.128606217176134 6.7624823110258472 1 rotate no_reflect no_shear #
lump $-1 $-1 $25 $4 #
transform $-1 1 0 0 0 1 0 0 0 1 50.733970152897733 26.128606217176134 6.7624823110258472 1 rotate no_reflect no_shear #
lump $-1 $-1 $26 $5 #
transform $-1 1 0 0 0 1 0 0 0 1 50.733970152897733 26.128606217176134 6.7624823110258472 1 rotate no_reflect no_shear #
lump $-1 $-1 $27 $6 #
transform $-1 1 0 0 0 1 0 0 0 1 50.733970152897733 26.128606217176134 6.7624823110258472 1 rotate no_reflect no_shear #
shell $-1 $-1 $-1 $28 $-1 $7 #
shell $-1 $-1 $-1 $29 $-1 $9 #
shell $-1 $-1 $-1 $30 $-1 $11 #
shell $-1 $-1 $-1 $31 $-1 $13 #
shell $-1 $-1 $-1 $32 $-1 $15 #
shell $-1 $-1 $-1 $33 $-1 $17 #
shell $-1 $-1 $-1 $34 $-1 $19 #
face $-1 $35 $36 $21 $-1 $37 forward single #
face $-1 $38 $39 $22 $-1 $40 forward single #
face $-1 $41 $42 $23 $-1 $43 reversed single #
face $-1 $44 $45 $24 $-1 $46 reversed single #
face $-1 $47 $48 $25 $-1 $49 forward single #
face $-1 $50 $51 $26 $-1 $52 reversed single #
face $-1 $53 $54 $27 $-1 $55 forward single #
face $-1 $56 $57 $21 $-1 $58 reversed single #
loop $-1 $-1 $59 $28 #
plane-surface $-1 0 0 6.7624823110258472 0 0 1 1 0 0 forward_v I I I I #
face $-1 $60 $61 $22 $-1 $62 reversed single #
loop $-1 $-1 $63 $29 #
plane-surface $-1 -50.733970152897733 0 0 1 0 0 0 0 -1 forward_v I I I I #
face $-1 $64 $65 $23 $-1 $66 reversed single #
loop $-1 $-1 $67 $30 #
plane-surface $-1 47.843905173907707 0 3.7624823110258472 0 0 1 1 0 0 forward_v I I I I #
face $-1 $68 $69 $24 $-1 $70 reversed single #
loop $-1 $-1 $71 $31 #
plane-surface $-1 -30.665547842137045 -88.598508827501632 83.150890885378587 -1 0 0 0 -0.61566148304635926 0.78801074757464917 forward_v I I I I #
face $-1 $72 $73 $25 $-1 $74 forward single #
loop $-1 $75 $76 $32 #
cone-surface $-1 -37.501107134591848 -23.162680596490414 4.1053624412000955 0 0.61566148304635926 -0.78801074757464917 1 0 0 1 I I 0 1 1 forward I I I I #
face $-1 $77 $78 $26 $-1 $79 reversed single #
loop $-1 $-1 $80 $33 #
plane-surface $-1 -44.336666427046652 47.419263790940441 115.32364379258055 1 0 0 0 -0.61566148304635926 -0.78801074757464917 forward_v I I I I #
face $-1 $81 $82 $27 $-1 $83 forward single #
loop $-1 $84 $85 $34 #
cone-surface $-1 -37.501107134591848 23.162680596490414 4.1053624412000955 0 -0.61566148304635926 -0.78801074757464917 1 0 0 1 I I 0 1 1 forward I I I I #
face $-1 $86 $87 $21 $-1 $88 reversed single #
loop $-1 $-1 $89 $35 #
plane-surface $-1 0 0 -6.7624823110258472 0 0 1 1 0 0 forward_v I I I I #
coedge $-1 $90 $91 $92 $93 forward $36 $-1 #
face $-1 $94 $95 $22 $-1 $96 reversed single #
loop $-1 $-1 $97 $38 #
plane-surface $-1 0 0 -6.7624823110258472 0 0 1 1 0 0 forward_v I I I I #
coedge $-1 $98 $99 $100 $101 forward $39 $-1 #
face $-1 $102 $103 $23 $-1 $104 reversed single #
loop $-1 $-1 $105 $41 #
plane-surface $-1 44.953840194917689 0 5.2624823110258472 1 0 0 0 0 -1 forward_v I I I I #
coedge $-1 $106 $107 $108 $109 reversed $42 $-1 #
face $-1 $110 $111 $24 $-1 $112 reversed single #
loop $-1 $-1 $113 $44 #
plane-surface $-1 -37.501107134591848 -26.128606217176142 3.1930633901488221 0 -0.61566148304635926 0.78801074757464917 1 0 0 forward_v I I I I #
coedge $-1 $114 $115 $116 $117 reversed $45 $-1 #
face $-1 $-1 $118 $25 $-1 $119 forward single #
loop $-1 $120 $121 $47 #
cone-surface $-1 -37.501107134591848 -22.173248127932986 2.8389466580255291 0 0.61566148304635926 -0.78801074757464917 0.5 0 0 1 I I -0.70710678118654746 0.70710678118654746 0.5 forward I I I I #
loop $-1 $-1 $122 $32 #
coedge $-1 $76 $76 $123 $124 reversed $48 $-1 #
face $-1 $125 $126 $26 $-1 $127 reversed single #
loop $-1 $-1 $128 $50 #
plane-surface $-1 -37.501107134591848 -15.05063881938505 35.36581629735079 0 0.61566148304635926 0.78801074757464917 1 0 0 forward_v I I I I #
coedge $-1 $129 $130 $131 $132 reversed $51 $-1 #
face $-1 $-1 $133 $27 $-1 $134 forward single #
loop $-1 $135 $136 $53 #
cone-surface $-1 -37.501107134591848 22.173248127932986 2.8389466580255291 0 -0.61566148304635926 -0.78801074757464917 0.5 0 0 1 I I -0.70710678118654746 0.70710678118654746 0.5 forward I I I I #
loop $-1 $-1 $137 $34 #
coedge $-1 $85 $85 $138 $139 reversed $54 $-1 #
face $-1 $140 $141 $21 $-1 $142 reversed single #
loop $-1 $-1 $143 $56 #
plane-surface $-1 0 -26.128606217176134 0 0 1 0 0 0 1 forward_v I I I I #
coedge $-1 $144 $145 $146 $147 forward $57 $-1 #
coedge $-1 $148 $59 $149 $150 forward $36 $-1 #
coedge $-1 $59 $148 $151 $152 forward $36 $-1 #
coedge $-1 $153 $154 $59 $93 reversed $155 $-1 #
edge $-1 $156 -26.128606217176134 $157 26.128606217176134 $92 $158 forward 7 unknown #
face $-1 $159 $160 $22 $-1 $161 reversed single #
loop $-1 $-1 $162 $60 #
plane-surface $-1 -53.93262201582327 -25.628606217176134 0 0 1 0 0 0 1 forward_v I I I I #
coedge $-1 $163 $164 $99 $165 forward $61 $-1 #
coedge $-1 $166 $63 $167 $168 reversed $39 $-1 #
coedge $-1 $63 $166 $97 $165 reversed $39 $-1 #
coedge $-1 $169 $170 $63 $101 reversed $171 $-1 #
edge $-1 $172 -6.7624823110258472 $173 6.7624823110258472 $100 $174 forward 7 unknown #
face $-1 $175 $176 $23 $-1 $177 forward single #
loop $-1 $-1 $178 $64 #
plane-surface $-1 0 26.128606217176134 0 0 -1 0 0 0 -1 forward_v I I I I #
coedge $-1 $179 $180 $181 $182 reversed $65 $-1 #
coedge $-1 $183 $67 $184 $185 reversed $42 $-1 #
coedge $-1 $67 $183 $178 $186 reversed $42 $-1 #
coedge $-1 $187 $188 $67 $109 forward $189 $-1 #
edge $-1 $190 -26.128606217176134 $191 26.128606217176134 $108 $192 forward 7 unknown #
face $-1 $193 $194 $24 $-1 $195 reversed single #
loop $-1 $-1 $196 $68 #
plane-surface $-1 -44.336666427046652 -88.598508827501632 83.150890885378587 1 0 0 0 0.61566148304635926 -0.78801074757464917 forward_v I I I I #
coedge $-1 $197 $198 $199 $200 reversed $69 $-1 #
coedge $-1 $115 $71 $201 $202 reversed $45 $-1 #
coedge $-1 $71 $114 $197 $203 reversed $45 $-1 #
coedge $-1 $199 $204 $71 $117 forward $205 $-1 #
edge $-1 $206 18.170648196574682 $207 22.739295983877625 $116 $208 forward 7 unknown #
loop $-1 $-1 $123 $72 #
plane-surface $-1 -37.501107134591848 -26.128606217176142 3.1930633901488221 0 -0.61566148304635926 0.78801074757464917 1 0 0 forward_v I I I I #
loop $-1 $-1 $209 $47 #
coedge $-1 $121 $121 $122 $210 reversed $73 $-1 #
coedge $-1 $122 $122 $121 $210 forward $75 $-1 #
coedge $-1 $123 $123 $76 $124 forward $118 $-1 #
edge $-1 $211 0 $211 6.2831853071796004 $123 $212 forward 7 unknown #
face $-1 $213 $214 $26 $-1 $215 forward single #
loop $-1 $-1 $216 $77 #
plane-surface $-1 -30.665547842137045 47.419263790940441 115.32364379258055 -1 0 0 0 0.61566148304635926 0.78801074757464917 forward_v I I I I #
coedge $-1 $217 $218 $219 $220 reversed $78 $-1 #
coedge $-1 $130 $80 $221 $222 reversed $51 $-1 #
coedge $-1 $80 $129 $217 $223 reversed $51 $-1 #
coedge $-1 $219 $224 $80 $132 forward $214 $-1 #
edge $-1 $225 -2.4189743217059139 $226 2.1496734655970364 $131 $227 forward 7 unknown #
loop $-1 $-1 $138 $81 #
plane-surface $-1 -37.501107134591848 -15.05063881938505 35.36581629735079 0 0.61566148304635926 0.78801074757464917 1 0 0 forward_v I I I I #
loop $-1 $-1 $228 $53 #
coedge $-1 $136 $136 $137 $229 reversed $82 $-1 #
coedge $-1 $137 $137 $136 $229 forward $84 $-1 #
coedge $-1 $138 $138 $85 $139 forward $133 $-1 #
edge $-1 $230 5.4681724308235081e-016 $230 6.2831853071796013 $138 $231 forward 7 unknown #
face $-1 $232 $233 $21 $-1 $234 reversed single #
loop $-1 $-1 $235 $86 #
plane-surface $-1 -50.733970152897733 0 0 1 0 0 0 0 -1 forward_v I I I I #
coedge $-1 $236 $151 $237 $238 forward $87 $-1 #
coedge $-1 $239 $89 $236 $240 forward $57 $-1 #
coedge $-1 $89 $239 $241 $242 forward $57 $-1 #
coedge $-1 $154 $153 $89 $147 reversed $155 $-1 #
edge $-1 $243 -26.128606217176134 $244 26.128606217176134 $146 $245 forward 7 unknown #
coedge $-1 $91 $90 $246 $247 forward $36 $-1 #
coedge $-1 $248 $249 $90 $150 reversed $233 $-1 #
edge $-1 $157 -50.733970152897733 $250 50.733970152897733 $149 $251 forward 7 unknown #
coedge $-1 $143 $252 $91 $152 reversed $87 $-1 #
edge $-1 $253 -50.733970152897733 $156 50.733970152897733 $151 $254 forward 7 unknown #
coedge $-1 $146 $92 $252 $255 forward $155 $-1 #
coedge $-1 $92 $146 $248 $256 reversed $155 $-1 #
loop $-1 $-1 $153 $232 #
vertex $-1 $93 $257 #
vertex $-1 $93 $258 #
straight-curve $-1 50.733970152897733 0 6.7624823110258472 0 1 0 I I #
face $-1 $259 $171 $22 $-1 $260 reversed single #
loop $-1 $-1 $261 $94 #
plane-surface $-1 -57.131273878748807 -24.128606217176134 0 1 0 0 0 0 -1 forward_v I I I I #
coedge $-1 $262 $263 $264 $265 forward $95 $-1 #
coedge $-1 $266 $97 $262 $267 forward $61 $-1 #
coedge $-1 $97 $266 $169 $268 forward $61 $-1 #
edge $-1 $172 22.628606217176134 $269 25.628606217176134 $97 $270 forward 7 unknown #
coedge $-1 $99 $98 $271 $272 forward $39 $-1 #
coedge $-1 $273 $274 $98 $168 forward $275 $-1 #
edge $-1 $276 -25.628606217176134 $173 -22.628606217176134 $167 $277 forward 7 unknown #
coedge $-1 $278 $100 $164 $268 reversed $171 $-1 #
coedge $-1 $100 $278 $273 $279 reversed $171 $-1 #
loop $-1 $-1 $100 $159 #
vertex $-1 $165 $280 #
vertex $-1 $279 $281 #
straight-curve $-1 -50.733970152897733 -22.628606217176134 0 0 0 1 I I #
face $-1 $282 $283 $23 $-1 $284 reversed single #
loop $-1 $-1 $285 $102 #
plane-surface $-1 0 0 6.7624823110258472 0 0 1 1 0 0 forward_v I I I I #
coedge $-1 $181 $286 $107 $186 forward $103 $-1 #
coedge $-1 $287 $105 $183 $288 reversed $65 $-1 #
coedge $-1 $105 $287 $285 $289 reversed $65 $-1 #
coedge $-1 $290 $178 $105 $182 forward $103 $-1 #
edge $-1 $291 1.1312411555129236 $292 4.1312411555129236 $181 $293 forward 7 unknown #
coedge $-1 $107 $106 $179 $288 forward $42 $-1 #
coedge $-1 $294 $295 $106 $185 forward $283 $-1 #
edge $-1 $296 21.031887607963835 $190 26.812017565943872 $184 $297 forward 7 unknown #
edge $-1 $191 -26.812017565943872 $291 -21.031887607963835 $178 $298 forward 7 unknown #
coedge $-1 $299 $108 $286 $300 reversed $189 $-1 #
coedge $-1 $108 $299 $294 $301 forward $189 $-1 #
loop $-1 $-1 $108 $282 #
vertex $-1 $185 $302 #
vertex $-1 $186 $303 #
straight-curve $-1 50.733970152897733 0 3.7624823110258472 0 1 0 I I #
face $-1 $-1 $205 $24 $-1 $304 forward single #
loop $-1 $-1 $305 $110 #
plane-surface $-1 0 -26.128606217176134 0 0 1 0 0 0 1 forward_v I I I I #
coedge $-1 $306 $307 $308 $309 reversed $111 $-1 #
coedge $-1 $310 $113 $115 $203 forward $69 $-1 #
coedge $-1 $113 $310 $306 $311 forward $69 $-1 #
coedge $-1 $308 $116 $113 $200 forward $205 $-1 #
edge $-1 $207 11.914994274841121 $312 25.586112859750727 $199 $313 forward 7 unknown #
coedge $-1 $314 $315 $114 $202 forward $194 $-1 #
edge $-1 $316 -38.382382052540464 $206 -34.812963131663444 $201 $317 forward 7 unknown #
edge $-1 $207 -5.7976973047187492 $316 -9.1534652039358102e-015 $115 $318 forward 7 unknown #
coedge $-1 $116 $308 $314 $319 forward $205 $-1 #
loop $-1 $-1 $308 $193 #
vertex $-1 $202 $320 #
vertex $-1 $117 $321 #
straight-curve $-1 -30.665547842137045 -44.299254413750816 6.762482311025849 0 1 0 I I #
coedge $-1 $209 $209 $-1 $322 reversed $120 $-1 #
edge $-1 $323 0 $323 6.2831853071796004 $121 $324 forward 7 unknown #
vertex $-1 $124 $325 #
ellipse-curve $-1 -37.501107134591848 -23.844282323524663 4.9777728505873373 0 -0.61566148304635926 0.78801074757464917 1 0 0 1 I I #
face $-1 $-1 $326 $26 $-1 $327 reversed single #
loop $-1 $-1 $131 $125 #
plane-surface $-1 0 0 6.7624823110258472 0 0 1 1 0 0 forward_v I I I I #
coedge $-1 $328 $329 $330 $331 reversed $126 $-1 #
coedge $-1 $332 $128 $130 $223 forward $78 $-1 #
coedge $-1 $128 $332 $328 $333 forward $78 $-1 #
coedge $-1 $330 $131 $128 $220 forward $214 $-1 #
edge $-1 $226 -25.586112859750727 $334 -11.914994274841121 $219 $335 forward 7 unknown #
coedge $-1 $336 $337 $129 $222 forward $326 $-1 #
edge $-1 $338 -54.468758506141448 $225 -50.899339585264428 $221 $339 forward 7 unknown #
edge $-1 $226 46.459515129633516 $338 52.257212434352269 $130 $340 forward 7 unknown #
coedge $-1 $131 $330 $336 $341 forward $214 $-1 #
vertex $-1 $132 $342 #
vertex $-1 $132 $343 #
straight-curve $-1 -44.336666427046652 23.709631895470221 6.762482311025849 0 -1 0 I I #
coedge $-1 $228 $228 $-1 $344 reversed $135 $-1 #
edge $-1 $345 0 $345 6.2831853071796004 $136 $346 forward 7 unknown #
vertex $-1 $139 $347 #
ellipse-curve $-1 -37.501107134591848 23.844282323524663 4.9777728505873382 0 0.61566148304635926 0.78801074757464917 1 0 0 1 I I #
face $-1 $-1 $155 $21 $-1 $348 reversed single #
loop $-1 $-1 $248 $140 #
plane-surface $-1 0 26.128606217176134 0 0 -1 0 0 0 -1 forward_v I I I I #
coedge $-1 $349 $246 $249 $350 forward $141 $-1 #
coedge $-1 $252 $143 $144 $240 reversed $87 $-1 #
coedge $-1 $246 $349 $143 $238 reversed $141 $-1 #
edge $-1 $253 -6.7624823110258472 $351 6.7624823110258472 $237 $352 forward 7 unknown #
coedge $-1 $145 $144 $349 $353 forward $57 $-1 #
edge $-1 $244 -50.733970152897733 $351 50.733970152897733 $236 $354 forward 7 unknown #
coedge $-1 $249 $248 $145 $242 reversed $233 $-1 #
edge $-1 $355 -50.733970152897733 $243 50.733970152897733 $241 $356 forward 7 unknown #
vertex $-1 $147 $357 #
vertex $-1 $255 $358 #
straight-curve $-1 50.733970152897733 0 -6.7624823110258472 0 -1 0 I I #
coedge $-1 $235 $237 $148 $247 reversed $141 $-1 #
edge $-1 $250 -26.128606217176134 $253 26.128606217176134 $246 $359 forward 7 unknown #
coedge $-1 $241 $149 $154 $256 forward $233 $-1 #
coedge $-1 $149 $241 $235 $350 reversed $233 $-1 #
vertex $-1 $150 $360 #
straight-curve $-1 0 26.128606217176134 6.7624823110258472 -1 0 0 I I #
coedge $-1 $151 $236 $153 $255 reversed $87 $-1 #
vertex $-1 $247 $361 #
straight-curve $-1 0 -26.128606217176134 6.7624823110258472 1 0 0 I I #
edge $-1 $156 -6.7624823110258472 $244 6.7624823110258472 $153 $362 forward 7 unknown #
edge $-1 $157 -6.7624823110258472 $243 6.7624823110258472 $154 $363 forward 7 unknown #
point $-1 50.733970152897733 -26.128606217176134 6.7624823110258472 #
point $-1 50.733970152897733 26.128606217176134 6.7624823110258472 #
face $-1 $-1 $275 $22 $-1 $364 forward single #
plane-surface $-1 -53.93262201582327 -22.628606217176134 0 0 -1 0 0 0 -1 forward_v I I I I #
coedge $-1 $365 $366 $278 $367 forward $160 $-1 #
coedge $-1 $271 $162 $163 $267 reversed $95 $-1 #
coedge $-1 $162 $271 $274 $368 reversed $95 $-1 #
coedge $-1 $366 $365 $162 $265 reversed $160 $-1 #
edge $-1 $369 -6.7624823110258472 $370 6.7624823110258472 $264 $371 forward 7 unknown #
coedge $-1 $164 $163 $365 $372 forward $61 $-1 #
edge $-1 $269 -3.1986518629255372 $370 3.1986518629255372 $262 $373 forward 7 unknown #
edge $-1 $374 -3.1986518629255372 $172 3.1986518629255372 $169 $375 forward 7 unknown #
vertex $-1 $267 $376 #
straight-curve $-1 -50.733970152897733 0 -6.7624823110258472 0 -1 0 I I #
coedge $-1 $263 $262 $166 $272 reversed $95 $-1 #
edge $-1 $276 -6.7624823110258472 $269 6.7624823110258472 $271 $377 forward 7 unknown #
coedge $-1 $378 $167 $170 $279 forward $275 $-1 #
coedge $-1 $167 $378 $263 $368 forward $275 $-1 #
loop $-1 $-1 $167 $259 #
vertex $-1 $168 $379 #
straight-curve $-1 -50.733970152897733 0 6.7624823110258472 0 1 0 I I #
coedge $-1 $170 $169 $261 $367 reversed $171 $-1 #
edge $-1 $173 -3.1986518629255372 $380 3.1986518629255372 $170 $381 forward 7 unknown #
point $-1 -50.733970152897733 -22.628606217176134 -6.7624823110258472 #
point $-1 -50.733970152897733 -22.628606217176134 6.7624823110258472 #
face $-1 $-1 $189 $23 $-1 $382 reversed single #
loop $-1 $-1 $184 $175 #
plane-surface $-1 0 -26.128606217176134 0 0 1 0 0 0 1 forward_v I I I I #
coedge $-1 $383 $384 $180 $289 forward $176 $-1 #
coedge $-1 $178 $290 $187 $300 forward $103 $-1 #
coedge $-1 $180 $179 $295 $385 reversed $65 $-1 #
edge $-1 $296 -26.128606217176134 $291 26.128606217176134 $179 $386 forward 7 unknown #
edge $-1 $292 -26.128606217176134 $387 26.128606217176134 $285 $388 forward 7 unknown #
coedge $-1 $286 $181 $384 $389 reversed $103 $-1 #
vertex $-1 $186 $390 #
vertex $-1 $289 $391 #
straight-curve $-1 44.953840194917689 26.128606217176134 2.6312411555129236 0 0 1 I I #
coedge $-1 $392 $184 $188 $301 reversed $283 $-1 #
coedge $-1 $184 $392 $287 $385 forward $283 $-1 #
vertex $-1 $185 $393 #
straight-curve $-1 23.921952586953854 -26.128606217176134 3.7624823110258472 1 0 0 I I #
straight-curve $-1 23.921952586953854 26.128606217176134 3.7624823110258472 -1 0 0 I I #
coedge $-1 $188 $187 $394 $395 reversed $189 $-1 #
edge $-1 $396 -6.7624823110258472 $191 -3.7624823110258472 $187 $397 forward 7 unknown #
edge $-1 $398 -6.7624823110258472 $190 -3.7624823110258472 $188 $399 forward 7 unknown #
point $-1 50.733970152897726 -26.128606217176134 3.7624823110258472 #
point $-1 50.733970152897726 26.128606217176134 3.7624823110258472 #
plane-surface $-1 0 0 6.7624823110258472 0 0 1 1 0 0 forward_v I I I I #
coedge $-1 $315 $314 $307 $400 forward $194 $-1 #
coedge $-1 $307 $196 $198 $311 reversed $111 $-1 #
coedge $-1 $196 $306 $305 $400 reversed $111 $-1 #
coedge $-1 $204 $199 $196 $309 forward $205 $-1 #
edge $-1 $312 -22.739295983877625 $401 -18.170648196574682 $308 $402 forward 7 unknown #
coedge $-1 $198 $197 $315 $403 reversed $69 $-1 #
edge $-1 $404 9.1534652039358102e-015 $312 5.7976973047187492 $306 $405 forward 7 unknown #
vertex $-1 $200 $406 #
straight-curve $-1 -18.750553567295924 -21.559958429873191 6.7624823110258472 -1 0 0 I I #
coedge $-1 $305 $201 $204 $319 reversed $194 $-1 #
coedge $-1 $201 $305 $310 $403 forward $194 $-1 #
vertex $-1 $202 $407 #
straight-curve $-1 -30.665547842137045 -26.128606217176134 41.575445442689293 0 0 1 I I #
straight-curve $-1 -30.665547842137045 -26.128606217176142 3.1930633901488221 0 -0.78801074757464917 -0.61566148304635926 I I #
edge $-1 $401 -44.336666427046652 $206 -30.665547842137045 $314 $408 forward 7 unknown #
point $-1 -30.665547842137045 -26.128606217176134 6.7624823110258472 #
point $-1 -30.665547842137045 -21.559958429873191 6.7624823110258472 #
edge $-1 $409 1 $409 0 $209 $-1 forward 7 unknown #
vertex $-1 $210 $410 #
ellipse-curve $-1 -37.501107134591848 -22.481078869456166 3.2329520318128537 0 -0.61566148304635926 0.78801074757464917 1 0 0 1 I I #
point $-1 -36.501107134591848 -23.844282323524663 4.9777728505873373 #
loop $-1 $-1 $221 $213 #
plane-surface $-1 0 26.128606217176134 0 0 -1 0 0 0 -1 forward_v I I I I #
coedge $-1 $329 $216 $218 $333 reversed $126 $-1 #
coedge $-1 $216 $328 $411 $412 reversed $126 $-1 #
coedge $-1 $224 $219 $216 $331 forward $214 $-1 #
edge $-1 $334 -2.1496734655970364 $413 2.4189743217059139 $330 $414 forward 7 unknown #
coedge $-1 $218 $217 $337 $415 reversed $78 $-1 #
edge $-1 $416 -52.257212434352269 $334 -46.459515129633516 $328 $417 forward 7 unknown #
vertex $-1 $220 $418 #
straight-curve $-1 -18.750553567295924 21.559958429873188 6.762482311025849 1 0 0 I I #
coedge $-1 $411 $221 $224 $341 reversed $326 $-1 #
coedge $-1 $221 $411 $332 $415 forward $326 $-1 #
vertex $-1 $222 $419 #
straight-curve $-1 -44.336666427046652 26.128606217176134 57.661821896290277 0 0 1 I I #
straight-curve $-1 -44.336666427046652 -15.05063881938505 35.36581629735079 0 0.78801074757464917 -0.61566148304635926 I I #
edge $-1 $413 30.665547842137045 $225 44.336666427046652 $336 $420 forward 7 unknown #
point $-1 -44.336666427046652 26.128606217176134 6.7624823110258472 #
point $-1 -44.336666427046652 21.559958429873184 6.762482311025849 #
edge $-1 $421 1 $421 0 $228 $-1 forward 7 unknown #
vertex $-1 $229 $422 #
ellipse-curve $-1 -37.501107134591848 22.481078869456166 3.2329520318128537 0 0.61566148304635926 0.78801074757464917 1 0 0 1 I I #
point $-1 -36.501107134591848 23.844282323524663 4.9777728505873373 #
plane-surface $-1 50.733970152897733 0 0 -1 0 0 0 0 1 forward_v I I I I #
coedge $-1 $237 $235 $239 $353 reversed $141 $-1 #
edge $-1 $250 -6.7624823110258472 $355 6.7624823110258472 $249 $423 forward 7 unknown #
vertex $-1 $353 $424 #
straight-curve $-1 -50.733970152897733 -26.128606217176134 0 0 0 -1 I I #
edge $-1 $351 -26.128606217176134 $355 26.128606217176134 $349 $425 forward 7 unknown #
straight-curve $-1 0 -26.128606217176134 -6.7624823110258472 -1 0 0 I I #
vertex $-1 $242 $426 #
straight-curve $-1 0 26.128606217176134 -6.7624823110258472 1 0 0 I I #
point $-1 50.733970152897733 26.128606217176134 -6.7624823110258472 #
point $-1 50.733970152897733 -26.128606217176134 -6.7624823110258472 #
straight-curve $-1 -50.733970152897733 0 6.7624823110258472 0 -1 0 I I #
point $-1 -50.733970152897733 26.128606217176134 6.7624823110258472 #
point $-1 -50.733970152897733 -26.128606217176134 6.7624823110258472 #
straight-curve $-1 50.733970152897733 -26.128606217176134 0 0 0 -1 I I #
straight-curve $-1 50.733970152897733 26.128606217176134 0 0 0 -1 I I #
plane-surface $-1 0 0 6.7624823110258472 0 0 1 1 0 0 forward_v I I I I #
coedge $-1 $264 $261 $266 $372 reversed $160 $-1 #
coedge $-1 $261 $264 $378 $427 reversed $160 $-1 #
edge $-1 $380 -6.7624823110258472 $374 6.7624823110258472 $278 $428 forward 7 unknown #
edge $-1 $369 -3.1986518629255372 $276 3.1986518629255372 $263 $429 forward 7 unknown #
vertex $-1 $427 $430 #
vertex $-1 $372 $431 #
straight-curve $-1 -57.131273878748807 -25.628606217176134 0 0 0 -1 I I #
edge $-1 $370 -1.5 $374 1.5 $365 $432 forward 7 unknown #
straight-curve $-1 -53.93262201582327 -25.628606217176134 -6.7624823110258472 -1 0 0 I I #
vertex $-1 $268 $433 #
straight-curve $-1 -53.93262201582327 -22.628606217176134 -6.7624823110258472 1 0 0 I I #
point $-1 -50.733970152897733 -25.628606217176134 -6.7624823110258472 #
straight-curve $-1 -50.733970152897733 -25.628606217176134 0 0 0 -1 I I #
coedge $-1 $274 $273 $366 $427 forward $275 $-1 #
point $-1 -50.733970152897733 -25.628606217176134 6.7624823110258472 #
vertex $-1 $279 $434 #
straight-curve $-1 -53.93262201582327 -22.628606217176134 6.7624823110258472 -1 0 0 I I #
plane-surface $-1 50.733970152897733 0 0 -1 0 0 0 0 1 forward_v I I I I #
coedge $-1 $394 $285 $392 $435 forward $176 $-1 #
coedge $-1 $285 $394 $290 $389 forward $176 $-1 #
edge $-1 $387 -4.1312411555129236 $296 -1.1312411555129236 $295 $436 forward 7 unknown #
straight-curve $-1 44.953840194917689 0 3.7624823110258472 0 1 0 I I #
vertex $-1 $435 $437 #
straight-curve $-1 44.953840194917689 0 6.7624823110258472 0 -1 0 I I #
edge $-1 $396 -50.733970152897733 $292 -44.953840194917689 $290 $438 forward 7 unknown #
point $-1 44.953840194917689 26.128606217176134 3.7624823110258472 #
point $-1 44.953840194917689 26.128606217176134 6.7624823110258472 #
coedge $-1 $295 $294 $383 $435 reversed $283 $-1 #
point $-1 44.953840194917689 -26.128606217176134 3.7624823110258472 #
coedge $-1 $384 $383 $299 $395 forward $176 $-1 #
edge $-1 $398 -26.128606217176134 $396 26.128606217176134 $299 $439 forward 7 unknown #
vertex $-1 $395 $440 #
straight-curve $-1 50.733970152897733 26.128606217176134 0 0 0 -1 I I #
vertex $-1 $395 $441 #
straight-curve $-1 50.733970152897733 -26.128606217176134 0 0 0 -1 I I #
edge $-1 $401 34.812963131663444 $404 38.382382052540464 $305 $442 forward 7 unknown #
vertex $-1 $319 $443 #
straight-curve $-1 -44.336666427046652 -44.299254413750816 6.762482311025849 0 -1 0 I I #
edge $-1 $404 -25.586112859750727 $316 -11.914994274841121 $315 $444 forward 7 unknown #
vertex $-1 $403 $445 #
straight-curve $-1 -44.336666427046652 -26.128606217176142 3.1930633901488221 0 0.78801074757464917 0.61566148304635926 I I #
point $-1 -44.336666427046652 -21.559958429873191 6.7624823110258472 #
point $-1 -30.665547842137045 -26.128606217176134 3.1930633901488279 #
straight-curve $-1 0 -26.128606217176134 6.7624823110258472 1 0 0 I I #
vertex $-1 $322 $446 #
point $-1 -36.501107134591848 -22.481078869456166 3.2329520318128537 #
coedge $-1 $337 $336 $329 $412 forward $326 $-1 #
edge $-1 $413 50.899339585264428 $416 54.468758506141448 $411 $447 forward 7 unknown #
vertex $-1 $341 $448 #
straight-curve $-1 -30.665547842137045 23.709631895470221 6.762482311025849 0 1 0 I I #
edge $-1 $416 11.914994274841121 $338 25.586112859750727 $337 $449 forward 7 unknown #
vertex $-1 $415 $450 #
straight-curve $-1 -30.665547842137045 -15.05063881938505 35.36581629735079 0 -0.78801074757464917 0.61566148304635926 I I #
point $-1 -30.665547842137045 21.559958429873184 6.762482311025849 #
point $-1 -44.336666427046652 26.128606217176134 3.1930633901488292 #
straight-curve $-1 0 26.128606217176134 6.7624823110258472 -1 0 0 I I #
vertex $-1 $344 $451 #
point $-1 -36.501107134591848 22.481078869456166 3.2329520318128537 #
straight-curve $-1 -50.733970152897733 26.128606217176134 0 0 0 -1 I I #
point $-1 -50.733970152897733 -26.128606217176134 -6.7624823110258472 #
straight-curve $-1 -50.733970152897733 0 -6.7624823110258472 0 1 0 I I #
point $-1 -50.733970152897733 26.128606217176134 -6.7624823110258472 #
edge $-1 $380 -1.5 $369 1.5 $366 $452 forward 7 unknown #
straight-curve $-1 -57.131273878748807 -22.628606217176134 0 0 0 -1 I I #
straight-curve $-1 -53.93262201582327 -25.628606217176134 6.7624823110258472 1 0 0 I I #
point $-1 -57.131273878748807 -25.628606217176134 6.7624823110258472 #
point $-1 -57.131273878748807 -25.628606217176134 -6.7624823110258472 #
straight-curve $-1 -57.131273878748807 -24.128606217176134 -6.7624823110258472 0 1 0 I I #
point $-1 -57.131273878748807 -22.628606217176134 -6.7624823110258472 #
point $-1 -57.131273878748807 -22.628606217176134 6.7624823110258472 #
edge $-1 $387 44.953840194917689 $398 50.733970152897733 $392 $453 forward 7 unknown #
straight-curve $-1 44.953840194917689 -26.128606217176134 2.6312411555129236 0 0 -1 I I #
point $-1 44.953840194917689 -26.128606217176134 6.7624823110258472 #
straight-curve $-1 0 26.128606217176134 6.7624823110258472 -1 0 0 I I #
straight-curve $-1 50.733970152897733 0 6.7624823110258472 0 1 0 I I #
point $-1 50.733970152897733 26.128606217176134 6.7624823110258472 #
point $-1 50.733970152897733 -26.128606217176134 6.7624823110258472 #
straight-curve $-1 -44.336666427046652 -26.128606217176134 41.575445442689293 0 0 -1 I I #
point $-1 -44.336666427046652 -26.128606217176134 6.7624823110258472 #
straight-curve $-1 -18.750553567295924 -26.128606217176134 3.1930633901488283 1 0 0 I I #
point $-1 -44.336666427046652 -26.128606217176134 3.1930633901488279 #
point $-1 -37.501107134591848 -21.865417386409806 2.4449412842382046 #
straight-curve $-1 -30.665547842137045 26.128606217176134 57.661821896290277 0 0 -1 I I #
point $-1 -30.665547842137045 26.128606217176134 6.7624823110258472 #
straight-curve $-1 -18.750553567295924 26.128606217176134 3.1930633901488257 -1 0 0 I I #
point $-1 -30.665547842137045 26.128606217176134 3.1930633901488292 #
point $-1 -37.501107134591848 21.865417386409806 2.4449412842382046 #
straight-curve $-1 -57.131273878748807 -24.128606217176134 6.7624823110258472 0 -1 0 I I #
straight-curve $-1 0 -26.128606217176134 6.7624823110258472 1 0 0 I I #
End-of-ACIS-data 