500 0 13 0           
7 Unknown 11 ACIS 5.0 NT 24 Thu Mar 25 22:42:18 1999 
-1 9.9999999999999995e-007 1e-010 
body $-1 $13 $-1 $14 #
body $-1 $15 $-1 $16 #
body $-1 $17 $-1 $18 #
body $-1 $19 $-1 $20 #
body $-1 $21 $-1 $22 #
body $-1 $23 $-1 $24 #
body $-1 $25 $-1 $26 #
body $-1 $27 $-1 $28 #
body $-1 $29 $-1 $30 #
body $-1 $31 $-1 $32 #
body $-1 $33 $-1 $34 #
body $-1 $35 $-1 $36 #
body $-1 $37 $-1 $38 #
lump $-1 $-1 $39 $0 #
transform $-1 1 0 0 0 1 0 0 0 1 59.69054231391339 28.795809154727458 10.583802239266477 1 rotate no_reflect no_shear #
lump $-1 $-1 $40 $1 #
transform $-1 1 0 0 0 1 0 0 0 1 59.69054231391339 28.795809154727458 10.583802239266477 1 rotate no_reflect no_shear #
lump $-1 $-1 $41 $2 #
transform $-1 1 0 0 0 1 0 0 0 1 59.69054231391339 28.795809154727458 10.583802239266477 1 rotate no_reflect no_shear #
lump $-1 $-1 $42 $3 #
transform $-1 1 0 0 0 1 0 0 0 1 59.69054231391339 28.795809154727458 10.583802239266477 1 rotate no_reflect no_shear #
lump $-1 $-1 $43 $4 #
transform $-1 1 0 0 0 1 0 0 0 1 59.69054231391339 28.795809154727458 10.583802239266477 1 rotate no_reflect no_shear #
lump $-1 $-1 $44 $5 #
transform $-1 1 0 0 0 1 0 0 0 1 59.69054231391339 28.795809154727458 10.583802239266477 1 rotate no_reflect no_shear #
lump $-1 $-1 $45 $6 #
transform $-1 1 0 0 0 1 0 0 0 1 59.69054231391339 28.795809154727458 10.583802239266477 1 rotate no_reflect no_shear #
lump $-1 $-1 $46 $7 #
transform $-1 1 0 0 0 1 0 0 0 1 59.69054231391339 28.795809154727458 10.583802239266477 1 rotate no_reflect no_shear #
lump $-1 $-1 $47 $8 #
transform $-1 1 0 0 0 1 0 0 0 1 59.69054231391339 28.795809154727458 10.583802239266477 1 rotate no_reflect no_shear #
lump $-1 $-1 $48 $9 #
transform $-1 1 0 0 0 1 0 0 0 1 59.69054231391339 28.795809154727458 10.583802239266477 1 rotate no_reflect no_shear #
lump $-1 $-1 $49 $10 #
transform $-1 1 0 0 0 1 0 0 0 1 59.69054231391339 28.795809154727458 10.583802239266477 1 rotate no_reflect no_shear #
lump $-1 $-1 $50 $11 #
transform $-1 1 0 0 0 1 0 0 0 1 59.69054231391339 28.795809154727458 10.583802239266477 1 rotate no_reflect no_shear #
lump $-1 $-1 $51 $12 #
transform $-1 1 0 0 0 1 0 0 0 1 59.69054231391339 28.795809154727458 10.583802239266477 1 rotate no_reflect no_shear #
shell $-1 $-1 $-1 $52 $-1 $13 #
shell $-1 $-1 $-1 $53 $-1 $15 #
shell $-1 $-1 $-1 $54 $-1 $17 #
shell $-1 $-1 $-1 $55 $-1 $19 #
shell $-1 $-1 $-1 $56 $-1 $21 #
shell $-1 $-1 $-1 $57 $-1 $23 #
shell $-1 $-1 $-1 $58 $-1 $25 #
shell $-1 $-1 $-1 $59 $-1 $27 #
shell $-1 $-1 $-1 $60 $-1 $29 #
shell $-1 $-1 $-1 $61 $-1 $31 #
shell $-1 $-1 $-1 $62 $-1 $33 #
shell $-1 $-1 $-1 $63 $-1 $35 #
shell $-1 $-1 $-1 $64 $-1 $37 #
face $-1 $65 $66 $39 $-1 $67 forward single #
face $-1 $68 $69 $40 $-1 $70 forward single #
face $-1 $71 $72 $41 $-1 $73 reversed single #
face $-1 $74 $75 $42 $-1 $76 forward single #
face $-1 $77 $78 $43 $-1 $79 forward single #
face $-1 $80 $81 $44 $-1 $82 reversed single #
face $-1 $83 $84 $45 $-1 $85 forward single #
face $-1 $86 $87 $46 $-1 $88 forward single #
face $-1 $89 $90 $47 $-1 $91 forward single #
face $-1 $92 $93 $48 $-1 $94 reversed single #
face $-1 $95 $96 $49 $-1 $97 forward single #
face $-1 $98 $99 $50 $-1 $100 forward single #
face $-1 $101 $102 $51 $-1 $103 forward single #
face $-1 $104 $105 $39 $-1 $106 reversed single #
loop $-1 $-1 $107 $52 #
plane-surface $-1 0 0 10.583802239266477 0 0 1 1 0 0 forward_v I I I I #
face $-1 $108 $109 $40 $-1 $110 reversed single #
loop $-1 $-1 $111 $53 #
plane-surface $-1 0 -28.795809154727458 0 0 1 0 0 0 1 forward_v I I I I #
face $-1 $112 $113 $41 $-1 $114 reversed single #
loop $-1 $-1 $115 $54 #
plane-surface $-1 86.10142995951793 12.454891489223133 170.26905688664775 0 -1 0 -0.80901700255871778 0 -0.5877852410284794 forward_v I I I I #
face $-1 $116 $117 $42 $-1 $118 forward single #
loop $-1 $119 $120 $55 #
cone-surface $-1 56.548877533171343 7.9653079711325319 6.6330718812812695 -0.80901700255871778 0 -0.5877852410284794 0.2938926205142397 0 -0.40450850127935889 1 I I 0 1 0.5 forward I I I I #
face $-1 $121 $122 $43 $-1 $123 forward single #
loop $-1 $124 $125 $56 #
cone-surface $-1 56.548877533171343 10.659058081986892 6.6330718812812695 -0.80901700255871778 0 -0.5877852410284794 0.2938926205142397 0 -0.40450850127935889 1 I I 0 1 0.5 forward I I I I #
face $-1 $126 $127 $44 $-1 $128 reversed single #
loop $-1 $-1 $129 $57 #
plane-surface $-1 -133.18887792356415 -8.5443865202597067 99.309588305048834 0 1 0 -0.61566148304635926 0 0.78801074757464917 forward_v I I I I #
face $-1 $130 $131 $45 $-1 $132 forward single #
loop $-1 $133 $134 $58 #
cone-surface $-1 -55.96028103698243 -7.0572451733982824 7.515901026447211 0.61566148304635926 0 -0.78801074757464917 0.39400537378732459 0 0.30783074152317963 1 I I 0 1 0.5 forward I I I I #
face $-1 $135 $136 $46 $-1 $137 forward single #
loop $-1 $138 $139 $59 #
cone-surface $-1 -55.96028103698243 -4.8265331531061442 7.515901026447211 0.61566148304635926 0 -0.78801074757464917 0.39400537378732459 0 0.30783074152317963 1 I I 0 1 0.5 forward I I I I #
face $-1 $140 $141 $47 $-1 $142 forward single #
loop $-1 $143 $144 $60 #
cone-surface $-1 -55.96028103698243 -2.5958211328140059 7.515901026447211 0.61566148304635926 0 -0.78801074757464917 0.39400537378732459 0 0.30783074152317963 1 I I 0 1 0.5 forward I I I I #
face $-1 $145 $146 $48 $-1 $147 reversed single #
loop $-1 $-1 $148 $61 #
plane-surface $-1 -133.18887792356415 15.703414199095047 99.309588305048834 0 1 0 -0.61566148304635926 0 0.78801074757464917 forward_v I I I I #
face $-1 $149 $150 $49 $-1 $151 forward single #
loop $-1 $152 $153 $62 #
cone-surface $-1 -55.96028103698243 17.190555545956478 7.515901026447211 0.61566148304635926 0 -0.78801074757464917 0.39400537378732459 0 0.30783074152317963 1 I I 0 1 0.5 forward I I I I #
face $-1 $154 $155 $50 $-1 $156 forward single #
loop $-1 $157 $158 $63 #
cone-surface $-1 -55.96028103698243 19.421267566248609 7.515901026447211 0.61566148304635926 0 -0.78801074757464917 0.39400537378732459 0 0.30783074152317963 1 I I 0 1 0.5 forward I I I I #
face $-1 $159 $160 $51 $-1 $161 forward single #
loop $-1 $162 $163 $64 #
cone-surface $-1 -55.96028103698243 21.651979586540754 7.515901026447211 0.61566148304635926 0 -0.78801074757464917 0.39400537378732459 0 0.30783074152317963 1 I I 0 1 0.5 forward I I I I #
face $-1 $164 $165 $39 $-1 $166 reversed single #
loop $-1 $-1 $167 $65 #
plane-surface $-1 0 0 -10.583802239266477 0 0 1 1 0 0 forward_v I I I I #
coedge $-1 $168 $169 $170 $171 forward $66 $-1 #
face $-1 $172 $173 $40 $-1 $174 forward single #
loop $-1 $-1 $175 $68 #
plane-surface $-1 -59.69054231391339 0 0 1 0 0 0 0 -1 forward_v I I I I #
coedge $-1 $176 $177 $178 $179 forward $69 $-1 #
face $-1 $180 $181 $41 $-1 $182 reversed single #
loop $-1 $-1 $183 $71 #
plane-surface $-1 -10.479897288295106 9.3121830265597154 100.09861728443929 0.80901700255871778 0 0.5877852410284794 0.5877852410284794 0 -0.80901700255871778 forward_v I I I I #
coedge $-1 $184 $185 $186 $187 reversed $72 $-1 #
face $-1 $-1 $188 $42 $-1 $189 forward single #
loop $-1 $190 $191 $74 #
cone-surface $-1 55.772019246571752 7.9653079711325319 6.0686513143590428 -0.80901700255871778 0 -0.5877852410284794 0.14694631025711985 0 -0.20225425063967944 1 I I -0.70710678118654746 0.70710678118654746 0.25 forward I I I I #
loop $-1 $-1 $192 $55 #
coedge $-1 $120 $120 $193 $194 reversed $75 $-1 #
face $-1 $-1 $195 $43 $-1 $196 forward single #
loop $-1 $197 $198 $77 #
cone-surface $-1 55.772019246571752 10.659058081986892 6.0686513143590428 -0.80901700255871778 0 -0.5877852410284794 0.14694631025711985 0 -0.20225425063967944 1 I I -0.70710678118654746 0.70710678118654746 0.25 forward I I I I #
loop $-1 $-1 $199 $56 #
coedge $-1 $125 $125 $200 $201 reversed $78 $-1 #
face $-1 $202 $203 $44 $-1 $204 reversed single #
loop $-1 $-1 $205 $80 #
plane-surface $-1 -59.690542313913397 -4.8265331531061442 5.2360105612025905 -0.61566148304635926 0 0.78801074757464917 0.78801074757464917 0 0.61566148304635926 forward_v I I I I #
coedge $-1 $206 $207 $208 $209 reversed $81 $-1 #
face $-1 $-1 $210 $45 $-1 $211 forward single #
loop $-1 $212 $213 $83 #
cone-surface $-1 -55.498534924697658 -7.0572451733982824 6.9248929657662242 0.61566148304635926 0 -0.78801074757464917 0.19700268689366229 0 0.15391537076158981 1 I I -0.70710678118654746 0.70710678118654746 0.25 forward I I I I #
loop $-1 $-1 $214 $58 #
coedge $-1 $134 $134 $215 $216 reversed $84 $-1 #
face $-1 $-1 $217 $46 $-1 $218 forward single #
loop $-1 $219 $220 $86 #
cone-surface $-1 -55.498534924697658 -4.8265331531061442 6.9248929657662242 0.61566148304635926 0 -0.78801074757464917 0.19700268689366229 0 0.15391537076158981 1 I I -0.70710678118654746 0.70710678118654746 0.25 forward I I I I #
loop $-1 $-1 $221 $59 #
coedge $-1 $139 $139 $222 $223 reversed $87 $-1 #
face $-1 $-1 $224 $47 $-1 $225 forward single #
loop $-1 $226 $227 $89 #
cone-surface $-1 -55.498534924697658 -2.5958211328140059 6.9248929657662242 0.61566148304635926 0 -0.78801074757464917 0.19700268689366229 0 0.15391537076158981 1 I I -0.70710678118654746 0.70710678118654746 0.25 forward I I I I #
loop $-1 $-1 $228 $60 #
coedge $-1 $144 $144 $229 $230 reversed $90 $-1 #
face $-1 $231 $232 $48 $-1 $233 reversed single #
loop $-1 $-1 $234 $92 #
plane-surface $-1 -59.690542313913397 19.421267566248609 5.2360105612025905 -0.61566148304635926 0 0.78801074757464917 0.78801074757464917 0 0.61566148304635926 forward_v I I I I #
coedge $-1 $235 $236 $237 $238 reversed $93 $-1 #
face $-1 $-1 $239 $49 $-1 $240 forward single #
loop $-1 $241 $242 $95 #
cone-surface $-1 -55.498534924697658 17.190555545956478 6.9248929657662242 0.61566148304635926 0 -0.78801074757464917 0.19700268689366229 0 0.15391537076158981 1 I I -0.70710678118654746 0.70710678118654746 0.25 forward I I I I #
loop $-1 $-1 $243 $62 #
coedge $-1 $153 $153 $244 $245 reversed $96 $-1 #
face $-1 $-1 $246 $50 $-1 $247 forward single #
loop $-1 $248 $249 $98 #
cone-surface $-1 -55.498534924697658 19.421267566248609 6.9248929657662242 0.61566148304635926 0 -0.78801074757464917 0.19700268689366229 0 0.15391537076158981 1 I I -0.70710678118654746 0.70710678118654746 0.25 forward I I I I #
loop $-1 $-1 $250 $63 #
coedge $-1 $158 $158 $251 $252 reversed $99 $-1 #
face $-1 $-1 $253 $51 $-1 $254 forward single #
loop $-1 $255 $256 $101 #
cone-surface $-1 -55.498534924697658 21.651979586540754 6.9248929657662242 0.61566148304635926 0 -0.78801074757464917 0.19700268689366229 0 0.15391537076158981 1 I I -0.70710678118654746 0.70710678118654746 0.25 forward I I I I #
loop $-1 $-1 $257 $64 #
coedge $-1 $163 $163 $258 $259 reversed $102 $-1 #
face $-1 $260 $261 $39 $-1 $262 reversed single #
loop $-1 $-1 $263 $104 #
plane-surface $-1 0 -28.795809154727458 0 0 1 0 0 0 1 forward_v I I I I #
coedge $-1 $264 $265 $266 $267 forward $105 $-1 #
coedge $-1 $268 $107 $269 $270 forward $66 $-1 #
coedge $-1 $107 $268 $271 $272 forward $66 $-1 #
coedge $-1 $273 $274 $107 $171 reversed $275 $-1 #
edge $-1 $276 -28.795809154727458 $277 28.795809154727458 $170 $278 forward 7 unknown #
face $-1 $279 $280 $40 $-1 $281 reversed single #
loop $-1 $-1 $282 $108 #
plane-surface $-1 0 -33.343817590100159 -3.2130870042960717 0 0 1 1 0 0 forward_v I I I I #
coedge $-1 $283 $284 $177 $285 forward $109 $-1 #
coedge $-1 $286 $111 $287 $288 reversed $69 $-1 #
coedge $-1 $111 $286 $175 $285 reversed $69 $-1 #
coedge $-1 $289 $282 $111 $179 reversed $173 $-1 #
edge $-1 $290 -59.69054231391339 $291 59.69054231391339 $178 $292 forward 7 unknown #
face $-1 $293 $294 $41 $-1 $295 reversed single #
loop $-1 $-1 $296 $112 #
plane-surface $-1 86.10142995951793 6.1694745638962978 170.26905688664775 0 1 0 0.80901700255871778 0 0.5877852410284794 forward_v I I I I #
coedge $-1 $297 $298 $299 $300 reversed $113 $-1 #
coedge $-1 $185 $115 $301 $302 reversed $72 $-1 #
coedge $-1 $115 $184 $297 $303 reversed $72 $-1 #
coedge $-1 $299 $304 $115 $187 forward $305 $-1 #
edge $-1 $306 -16.639827334154425 $307 -11.505705844590125 $186 $308 forward 7 unknown #
loop $-1 $-1 $193 $116 #
plane-surface $-1 -10.479897288295106 9.3121830265597154 100.09861728443929 0.80901700255871778 0 0.5877852410284794 0.5877852410284794 0 -0.80901700255871778 forward_v I I I I #
loop $-1 $-1 $309 $74 #
coedge $-1 $191 $191 $192 $310 reversed $117 $-1 #
coedge $-1 $192 $192 $191 $310 forward $119 $-1 #
coedge $-1 $193 $193 $120 $194 forward $188 $-1 #
edge $-1 $311 0 $311 6.2831853071796004 $193 $312 forward 7 unknown #
loop $-1 $-1 $200 $121 #
plane-surface $-1 -10.479897288295106 9.3121830265597154 100.09861728443929 0.80901700255871778 0 0.5877852410284794 0.5877852410284794 0 -0.80901700255871778 forward_v I I I I #
loop $-1 $-1 $313 $77 #
coedge $-1 $198 $198 $199 $314 reversed $122 $-1 #
coedge $-1 $199 $199 $198 $314 forward $124 $-1 #
coedge $-1 $200 $200 $125 $201 forward $195 $-1 #
edge $-1 $315 0 $315 6.2831853071796004 $200 $316 forward 7 unknown #
face $-1 $317 $318 $44 $-1 $319 forward single #
loop $-1 $-1 $320 $126 #
plane-surface $-1 -133.18887792356415 -1.1086797859525817 99.309588305048834 0 -1 0 0.61566148304635926 0 -0.78801074757464917 forward_v I I I I #
coedge $-1 $321 $322 $323 $324 reversed $127 $-1 #
coedge $-1 $207 $129 $325 $326 reversed $81 $-1 #
coedge $-1 $129 $206 $321 $327 reversed $81 $-1 #
coedge $-1 $323 $328 $129 $209 forward $318 $-1 #
edge $-1 $329 6.9038966478686845 $330 13.74875771868426 $208 $331 forward 7 unknown #
loop $-1 $-1 $215 $130 #
plane-surface $-1 -59.690542313913397 -4.8265331531061442 5.2360105612025905 -0.61566148304635926 0 0.78801074757464917 0.78801074757464917 0 0.61566148304635926 forward_v I I I I #
loop $-1 $-1 $332 $83 #
coedge $-1 $213 $213 $214 $333 reversed $131 $-1 #
coedge $-1 $214 $214 $213 $333 forward $133 $-1 #
coedge $-1 $215 $215 $134 $216 forward $210 $-1 #
edge $-1 $334 0 $334 6.2831853071796004 $215 $335 forward 7 unknown #
loop $-1 $-1 $222 $135 #
plane-surface $-1 -59.690542313913397 -4.8265331531061442 5.2360105612025905 -0.61566148304635926 0 0.78801074757464917 0.78801074757464917 0 0.61566148304635926 forward_v I I I I #
loop $-1 $-1 $336 $86 #
coedge $-1 $220 $220 $221 $337 reversed $136 $-1 #
coedge $-1 $221 $221 $220 $337 forward $138 $-1 #
coedge $-1 $222 $222 $139 $223 forward $217 $-1 #
edge $-1 $338 0 $338 6.2831853071796004 $222 $339 forward 7 unknown #
loop $-1 $-1 $229 $140 #
plane-surface $-1 -59.690542313913397 -4.8265331531061442 5.2360105612025905 -0.61566148304635926 0 0.78801074757464917 0.78801074757464917 0 0.61566148304635926 forward_v I I I I #
loop $-1 $-1 $340 $89 #
coedge $-1 $227 $227 $228 $341 reversed $141 $-1 #
coedge $-1 $228 $228 $227 $341 forward $143 $-1 #
coedge $-1 $229 $229 $144 $230 forward $224 $-1 #
edge $-1 $342 0 $342 6.2831853071796004 $229 $343 forward 7 unknown #
face $-1 $344 $345 $48 $-1 $346 forward single #
loop $-1 $-1 $347 $145 #
plane-surface $-1 -133.18887792356415 23.139120933402172 99.309588305048834 0 -1 0 0.61566148304635926 0 -0.78801074757464917 forward_v I I I I #
coedge $-1 $348 $349 $350 $351 reversed $146 $-1 #
coedge $-1 $236 $148 $352 $353 reversed $93 $-1 #
coedge $-1 $148 $235 $348 $354 reversed $93 $-1 #
coedge $-1 $350 $355 $148 $238 forward $345 $-1 #
edge $-1 $356 6.9038966478686845 $357 13.74875771868426 $237 $358 forward 7 unknown #
loop $-1 $-1 $244 $149 #
plane-surface $-1 -59.690542313913397 19.421267566248609 5.2360105612025905 -0.61566148304635926 0 0.78801074757464917 0.78801074757464917 0 0.61566148304635926 forward_v I I I I #
loop $-1 $-1 $359 $95 #
coedge $-1 $242 $242 $243 $360 reversed $150 $-1 #
coedge $-1 $243 $243 $242 $360 forward $152 $-1 #
coedge $-1 $244 $244 $153 $245 forward $239 $-1 #
edge $-1 $361 0 $361 6.2831853071796004 $244 $362 forward 7 unknown #
loop $-1 $-1 $251 $154 #
plane-surface $-1 -59.690542313913397 19.421267566248609 5.2360105612025905 -0.61566148304635926 0 0.78801074757464917 0.78801074757464917 0 0.61566148304635926 forward_v I I I I #
loop $-1 $-1 $363 $98 #
coedge $-1 $249 $249 $250 $364 reversed $155 $-1 #
coedge $-1 $250 $250 $249 $364 forward $157 $-1 #
coedge $-1 $251 $251 $158 $252 forward $246 $-1 #
edge $-1 $365 0 $365 6.2831853071796004 $251 $366 forward 7 unknown #
loop $-1 $-1 $258 $159 #
plane-surface $-1 -59.690542313913397 19.421267566248609 5.2360105612025905 -0.61566148304635926 0 0.78801074757464917 0.78801074757464917 0 0.61566148304635926 forward_v I I I I #
loop $-1 $-1 $367 $101 #
coedge $-1 $256 $256 $257 $368 reversed $160 $-1 #
coedge $-1 $257 $257 $256 $368 forward $162 $-1 #
coedge $-1 $258 $258 $163 $259 forward $253 $-1 #
edge $-1 $369 0 $369 6.2831853071796004 $258 $370 forward 7 unknown #
face $-1 $371 $372 $39 $-1 $373 reversed single #
loop $-1 $-1 $374 $164 #
plane-surface $-1 -59.69054231391339 0 0 1 0 0 0 0 -1 forward_v I I I I #
coedge $-1 $375 $271 $376 $377 forward $165 $-1 #
coedge $-1 $378 $167 $375 $379 forward $105 $-1 #
coedge $-1 $167 $378 $380 $381 forward $105 $-1 #
coedge $-1 $274 $273 $167 $267 reversed $275 $-1 #
edge $-1 $382 -28.795809154727458 $383 28.795809154727458 $266 $384 forward 7 unknown #
coedge $-1 $169 $168 $385 $386 forward $66 $-1 #
coedge $-1 $387 $388 $168 $270 reversed $372 $-1 #
edge $-1 $277 -59.69054231391339 $389 59.69054231391339 $269 $390 forward 7 unknown #
coedge $-1 $263 $391 $169 $272 reversed $165 $-1 #
edge $-1 $392 -59.69054231391339 $276 59.69054231391339 $271 $393 forward 7 unknown #
coedge $-1 $266 $170 $391 $394 forward $275 $-1 #
coedge $-1 $170 $266 $387 $395 reversed $275 $-1 #
loop $-1 $-1 $273 $371 #
vertex $-1 $171 $396 #
vertex $-1 $171 $397 #
straight-curve $-1 59.69054231391339 0 10.583802239266477 0 1 0 I I #
face $-1 $398 $399 $40 $-1 $400 reversed single #
loop $-1 $-1 $401 $172 #
plane-surface $-1 0 -33.343817590100159 -6.2130870042960717 0 0 1 1 0 0 forward_v I I I I #
coedge $-1 $178 $402 $403 $404 forward $173 $-1 #
coedge $-1 $405 $175 $406 $407 reversed $109 $-1 #
coedge $-1 $175 $405 $289 $408 reversed $109 $-1 #
edge $-1 $290 3.2130870042960717 $409 6.2130870042960717 $175 $410 forward 7 unknown #
coedge $-1 $177 $176 $411 $412 forward $69 $-1 #
coedge $-1 $403 $413 $176 $288 forward $414 $-1 #
edge $-1 $415 -6.2130870042960717 $291 -3.2130870042960717 $287 $416 forward 7 unknown #
coedge $-1 $402 $178 $284 $408 forward $173 $-1 #
vertex $-1 $285 $417 #
vertex $-1 $404 $418 #
straight-curve $-1 0 -28.795809154727458 -3.2130870042960717 1 0 0 I I #
face $-1 $-1 $305 $41 $-1 $419 forward single #
loop $-1 $-1 $420 $180 #
plane-surface $-1 59.69054231391339 0 0 -1 0 0 0 0 1 forward_v I I I I #
coedge $-1 $421 $422 $423 $424 reversed $181 $-1 #
coedge $-1 $425 $183 $185 $303 forward $113 $-1 #
coedge $-1 $183 $425 $421 $426 forward $113 $-1 #
coedge $-1 $423 $186 $183 $300 forward $305 $-1 #
edge $-1 $307 -7.7987999759432753 $427 -1.5133830506164401 $299 $428 forward 7 unknown #
coedge $-1 $429 $430 $184 $302 forward $294 $-1 #
edge $-1 $431 -81.617238406697666 $306 -74.550726204057398 $301 $432 forward 7 unknown #
edge $-1 $307 110.64639526988914 $431 119.38108462782682 $185 $433 forward 7 unknown #
coedge $-1 $186 $423 $429 $434 forward $305 $-1 #
loop $-1 $-1 $423 $293 #
vertex $-1 $302 $435 #
vertex $-1 $187 $436 #
straight-curve $-1 43.050714979758965 12.454891489223133 10.583802239266475 -1 0 0 I I #
coedge $-1 $309 $309 $-1 $437 reversed $190 $-1 #
edge $-1 $438 0 $438 6.2831853071796004 $191 $439 forward 7 unknown #
vertex $-1 $194 $440 #
ellipse-curve $-1 57.123481569131229 7.9653079711325319 7.0505461379463599 0.80901700255871778 0 0.5877852410284794 0.2938926205142397 0 -0.40450850127935889 1 I I #
coedge $-1 $313 $313 $-1 $441 reversed $197 $-1 #
edge $-1 $442 0 $442 6.2831853071796004 $198 $443 forward 7 unknown #
vertex $-1 $201 $444 #
ellipse-curve $-1 57.123481569131229 10.659058081986892 7.0505461379463599 0.80901700255871778 0 0.5877852410284794 0.2938926205142397 0 -0.40450850127935889 1 I I #
face $-1 $-1 $445 $44 $-1 $446 reversed single #
loop $-1 $-1 $208 $202 #
plane-surface $-1 0 0 10.583802239266477 0 0 1 1 0 0 forward_v I I I I #
coedge $-1 $447 $448 $449 $450 reversed $203 $-1 #
coedge $-1 $451 $205 $207 $327 forward $127 $-1 #
coedge $-1 $205 $451 $447 $452 forward $127 $-1 #
coedge $-1 $449 $208 $205 $324 forward $318 $-1 #
edge $-1 $330 -6.1311199437066346 $453 1.3045867906004904 $323 $454 forward 7 unknown #
coedge $-1 $455 $456 $206 $326 forward $445 $-1 #
edge $-1 $457 -44.418783591321819 $329 -39.070991913257942 $325 $458 forward 7 unknown #
edge $-1 $330 -8.6862534449977922 $457 -8.8800565823946346e-015 $207 $459 forward 7 unknown #
coedge $-1 $208 $449 $455 $460 forward $318 $-1 #
vertex $-1 $209 $461 #
vertex $-1 $209 $462 #
straight-curve $-1 -66.594438961782075 -8.5443865202597067 10.583802239266475 1 0 0 I I #
coedge $-1 $332 $332 $-1 $463 reversed $212 $-1 #
edge $-1 $464 0 $464 6.2831853071796004 $213 $465 forward 7 unknown #
vertex $-1 $216 $466 #
ellipse-curve $-1 -56.268111778505606 -7.0572451733982824 7.909906400234533 -0.61566148304635926 0 0.78801074757464917 0.39400537378732459 0 0.30783074152317963 1 I I #
coedge $-1 $336 $336 $-1 $467 reversed $219 $-1 #
edge $-1 $468 0 $468 6.2831853071796004 $220 $469 forward 7 unknown #
vertex $-1 $223 $470 #
ellipse-curve $-1 -56.268111778505606 -4.8265331531061442 7.909906400234533 -0.61566148304635926 0 0.78801074757464917 0.39400537378732459 0 0.30783074152317963 1 I I #
coedge $-1 $340 $340 $-1 $471 reversed $226 $-1 #
edge $-1 $472 0 $472 6.2831853071796004 $227 $473 forward 7 unknown #
vertex $-1 $230 $474 #
ellipse-curve $-1 -56.268111778505606 -2.5958211328140059 7.909906400234533 -0.61566148304635926 0 0.78801074757464917 0.39400537378732459 0 0.30783074152317963 1 I I #
face $-1 $-1 $475 $48 $-1 $476 reversed single #
loop $-1 $-1 $237 $231 #
plane-surface $-1 0 0 10.583802239266477 0 0 1 1 0 0 forward_v I I I I #
coedge $-1 $477 $478 $479 $480 reversed $232 $-1 #
coedge $-1 $481 $234 $236 $354 forward $146 $-1 #
coedge $-1 $234 $481 $477 $482 forward $146 $-1 #
coedge $-1 $479 $237 $234 $351 forward $345 $-1 #
edge $-1 $357 5.9927804159707421 $483 13.428487150277867 $350 $484 forward 7 unknown #
coedge $-1 $485 $486 $235 $353 forward $475 $-1 #
edge $-1 $487 -44.418783591321819 $356 -39.070991913257942 $352 $488 forward 7 unknown #
edge $-1 $357 -8.6862534449977922 $487 -8.8800565823946346e-015 $236 $489 forward 7 unknown #
coedge $-1 $237 $479 $485 $490 forward $345 $-1 #
vertex $-1 $238 $491 #
vertex $-1 $238 $492 #
straight-curve $-1 -66.594438961782075 15.703414199095047 10.583802239266475 1 0 0 I I #
coedge $-1 $359 $359 $-1 $493 reversed $241 $-1 #
edge $-1 $494 0 $494 6.2831853071796004 $242 $495 forward 7 unknown #
vertex $-1 $245 $496 #
ellipse-curve $-1 -56.268111778505606 17.190555545956478 7.909906400234533 -0.61566148304635926 0 0.78801074757464917 0.39400537378732459 0 0.30783074152317963 1 I I #
coedge $-1 $363 $363 $-1 $497 reversed $248 $-1 #
edge $-1 $498 0 $498 6.2831853071796004 $249 $499 forward 7 unknown #
vertex $-1 $252 $500 #
ellipse-curve $-1 -56.268111778505606 19.421267566248609 7.909906400234533 -0.61566148304635926 0 0.78801074757464917 0.39400537378732459 0 0.30783074152317963 1 I I #
coedge $-1 $367 $367 $-1 $501 reversed $255 $-1 #
edge $-1 $502 0 $502 6.2831853071796004 $256 $503 forward 7 unknown #
vertex $-1 $259 $504 #
ellipse-curve $-1 -56.268111778505606 21.651979586540754 7.909906400234533 -0.61566148304635926 0 0.78801074757464917 0.39400537378732459 0 0.30783074152317963 1 I I #
face $-1 $-1 $275 $39 $-1 $505 reversed single #
loop $-1 $-1 $387 $260 #
plane-surface $-1 0 28.795809154727458 0 0 -1 0 0 0 -1 forward_v I I I I #
coedge $-1 $506 $385 $388 $507 forward $261 $-1 #
coedge $-1 $391 $263 $264 $379 reversed $165 $-1 #
coedge $-1 $385 $506 $263 $377 reversed $261 $-1 #
edge $-1 $392 -10.583802239266477 $508 10.583802239266477 $376 $509 forward 7 unknown #
coedge $-1 $265 $264 $506 $510 forward $105 $-1 #
edge $-1 $383 -59.69054231391339 $508 59.69054231391339 $375 $511 forward 7 unknown #
coedge $-1 $388 $387 $265 $381 reversed $372 $-1 #
edge $-1 $512 -59.69054231391339 $382 59.69054231391339 $380 $513 forward 7 unknown #
vertex $-1 $267 $514 #
vertex $-1 $394 $515 #
straight-curve $-1 59.69054231391339 0 -10.583802239266477 0 -1 0 I I #
coedge $-1 $374 $376 $268 $386 reversed $261 $-1 #
edge $-1 $389 -28.795809154727458 $392 28.795809154727458 $385 $516 forward 7 unknown #
coedge $-1 $380 $269 $274 $395 forward $372 $-1 #
coedge $-1 $269 $380 $374 $507 reversed $372 $-1 #
vertex $-1 $270 $517 #
straight-curve $-1 0 28.795809154727458 10.583802239266477 -1 0 0 I I #
coedge $-1 $271 $375 $273 $394 reversed $165 $-1 #
vertex $-1 $386 $518 #
straight-curve $-1 0 -28.795809154727458 10.583802239266477 1 0 0 I I #
edge $-1 $276 -10.583802239266477 $383 10.583802239266477 $273 $519 forward 7 unknown #
edge $-1 $277 -10.583802239266477 $382 10.583802239266477 $274 $520 forward 7 unknown #
point $-1 59.69054231391339 -28.795809154727458 10.583802239266477 #
point $-1 59.69054231391339 28.795809154727458 10.583802239266477 #
face $-1 $-1 $414 $40 $-1 $521 reversed single #
loop $-1 $-1 $522 $279 #
plane-surface $-1 0 -37.891826025472859 -4.7130870042960717 0 1 0 0 0 1 forward_v I I I I #
coedge $-1 $523 $411 $413 $524 forward $280 $-1 #
coedge $-1 $282 $289 $525 $526 forward $173 $-1 #
coedge $-1 $527 $287 $282 $404 reversed $414 $-1 #
edge $-1 $528 -4.5480084353727008 $291 4.5480084353727008 $403 $529 forward 7 unknown #
coedge $-1 $284 $283 $522 $530 reversed $109 $-1 #
coedge $-1 $411 $523 $283 $407 forward $280 $-1 #
edge $-1 $531 -4.5480084353727008 $409 4.5480084353727008 $283 $532 forward 7 unknown #
edge $-1 $290 -4.5480084353727008 $533 4.5480084353727008 $284 $534 forward 7 unknown #
vertex $-1 $285 $535 #
straight-curve $-1 -59.69054231391339 -28.795809154727458 0 0 0 -1 I I #
coedge $-1 $401 $406 $286 $412 reversed $280 $-1 #
edge $-1 $415 -59.69054231391339 $409 59.69054231391339 $411 $536 forward 7 unknown #
coedge $-1 $287 $527 $401 $524 reversed $414 $-1 #
loop $-1 $-1 $287 $398 #
vertex $-1 $288 $537 #
straight-curve $-1 59.69054231391339 -28.795809154727458 0 0 0 1 I I #
point $-1 -59.69054231391339 -28.795809154727458 -3.2130870042960717 #
point $-1 59.69054231391339 -28.795809154727458 -3.2130870042960717 #
plane-surface $-1 0 0 10.583802239266477 0 0 1 1 0 0 forward_v I I I I #
coedge $-1 $430 $429 $422 $538 forward $294 $-1 #
coedge $-1 $422 $296 $298 $426 reversed $181 $-1 #
coedge $-1 $296 $421 $420 $538 reversed $181 $-1 #
coedge $-1 $304 $299 $296 $424 forward $305 $-1 #
edge $-1 $427 11.505705844590125 $539 16.639827334154425 $423 $540 forward 7 unknown #
coedge $-1 $298 $297 $430 $541 reversed $113 $-1 #
edge $-1 $542 -119.38108462782682 $427 -110.64639526988914 $421 $543 forward 7 unknown #
vertex $-1 $300 $544 #
straight-curve $-1 54.55642082434909 4.6560915132798577 10.583802239266475 0 -1 0 I I #
coedge $-1 $420 $301 $304 $434 reversed $294 $-1 #
coedge $-1 $301 $420 $425 $541 forward $294 $-1 #
vertex $-1 $302 $545 #
straight-curve $-1 59.69054231391339 12.454891489223133 85.134528443323873 0 0 1 I I #
straight-curve $-1 -10.479897288295106 12.454891489223133 100.09861728443929 0.5877852410284794 0 -0.80901700255871778 I I #
edge $-1 $539 6.1694745638962978 $306 12.454891489223133 $429 $546 forward 7 unknown #
point $-1 59.69054231391339 12.454891489223133 10.583802239266477 #
point $-1 54.55642082434909 12.454891489223133 10.583802239266475 #
edge $-1 $547 1 $547 0 $309 $-1 forward 7 unknown #
vertex $-1 $310 $548 #
ellipse-curve $-1 55.974273497211428 7.9653079711325319 6.2155976246161631 0.80901700255871778 0 0.5877852410284794 0.2938926205142397 0 -0.40450850127935889 1 I I #
point $-1 57.417374189645493 7.9653079711325319 6.6460376366670175 #
edge $-1 $549 1 $549 0 $313 $-1 forward 7 unknown #
vertex $-1 $314 $550 #
ellipse-curve $-1 55.974273497211428 10.659058081986892 6.2155976246161631 0.80901700255871778 0 0.5877852410284794 0.2938926205142397 0 -0.40450850127935889 1 I I #
point $-1 57.417374189645493 10.659058081986892 6.6460376366670175 #
loop $-1 $-1 $325 $317 #
plane-surface $-1 -59.69054231391339 0 0 1 0 0 0 0 -1 forward_v I I I I #
coedge $-1 $448 $320 $322 $452 reversed $203 $-1 #
coedge $-1 $320 $447 $551 $552 reversed $203 $-1 #
coedge $-1 $328 $323 $320 $450 forward $318 $-1 #
edge $-1 $453 -13.74875771868426 $553 -6.9038966478686845 $449 $554 forward 7 unknown #
coedge $-1 $322 $321 $456 $555 reversed $127 $-1 #
edge $-1 $556 8.8800565823946346e-015 $453 8.6862534449977922 $447 $557 forward 7 unknown #
vertex $-1 $324 $558 #
straight-curve $-1 -52.845681243097822 -2.4132665765530721 10.583802239266475 0 1 0 I I #
coedge $-1 $551 $325 $328 $460 reversed $445 $-1 #
coedge $-1 $325 $551 $451 $555 forward $445 $-1 #
vertex $-1 $326 $559 #
straight-curve $-1 -59.69054231391339 -8.5443865202597067 49.654794152524417 0 0 1 I I #
straight-curve $-1 -59.690542313913397 -8.5443865202597067 5.2360105612025905 -0.78801074757464917 0 -0.61566148304635926 I I #
edge $-1 $553 1.1086797859525817 $329 8.5443865202597067 $455 $560 forward 7 unknown #
point $-1 -59.69054231391339 -8.5443865202597067 10.583802239266477 #
point $-1 -52.845681243097815 -8.5443865202597067 10.583802239266477 #
edge $-1 $561 1 $561 0 $332 $-1 forward 7 unknown #
vertex $-1 $333 $562 #
ellipse-curve $-1 -55.652450295459246 -7.0572451733982824 7.1218956526598864 -0.61566148304635926 0 0.78801074757464917 0.39400537378732459 0 0.30783074152317963 1 I I #
point $-1 -55.874106404718283 -7.0572451733982824 8.2177371417577145 #
edge $-1 $563 1 $563 0 $336 $-1 forward 7 unknown #
vertex $-1 $337 $564 #
ellipse-curve $-1 -55.652450295459246 -4.8265331531061442 7.1218956526598864 -0.61566148304635926 0 0.78801074757464917 0.39400537378732459 0 0.30783074152317963 1 I I #
point $-1 -55.874106404718283 -4.8265331531061442 8.2177371417577145 #
edge $-1 $565 1 $565 0 $340 $-1 forward 7 unknown #
vertex $-1 $341 $566 #
ellipse-curve $-1 -55.652450295459246 -2.5958211328140059 7.1218956526598864 -0.61566148304635926 0 0.78801074757464917 0.39400537378732459 0 0.30783074152317963 1 I I #
point $-1 -55.874106404718283 -2.5958211328140059 8.2177371417577145 #
loop $-1 $-1 $352 $344 #
plane-surface $-1 -59.69054231391339 0 0 1 0 0 0 0 -1 forward_v I I I I #
coedge $-1 $478 $347 $349 $482 reversed $232 $-1 #
coedge $-1 $347 $477 $567 $568 reversed $232 $-1 #
coedge $-1 $355 $350 $347 $480 forward $345 $-1 #
edge $-1 $483 -13.74875771868426 $569 -6.9038966478686845 $479 $570 forward 7 unknown #
coedge $-1 $349 $348 $486 $571 reversed $146 $-1 #
edge $-1 $572 8.8800565823946346e-015 $483 8.6862534449977922 $477 $573 forward 7 unknown #
vertex $-1 $351 $574 #
straight-curve $-1 -52.845681243097822 9.7106337831243046 10.583802239266475 0 1 0 I I #
coedge $-1 $567 $352 $355 $490 reversed $475 $-1 #
coedge $-1 $352 $567 $481 $571 forward $475 $-1 #
vertex $-1 $353 $575 #
straight-curve $-1 -59.69054231391339 15.703414199095047 49.654794152524417 0 0 1 I I #
straight-curve $-1 -59.690542313913397 15.703414199095047 5.2360105612025905 -0.78801074757464917 0 -0.61566148304635926 I I #
edge $-1 $569 -23.139120933402172 $356 -15.703414199095047 $485 $576 forward 7 unknown #
point $-1 -59.69054231391339 15.703414199095047 10.583802239266477 #
point $-1 -52.845681243097815 15.703414199095047 10.583802239266477 #
edge $-1 $577 1 $577 0 $359 $-1 forward 7 unknown #
vertex $-1 $360 $578 #
ellipse-curve $-1 -55.652450295459246 17.190555545956478 7.1218956526598864 -0.61566148304635926 0 0.78801074757464917 0.39400537378732459 0 0.30783074152317963 1 I I #
point $-1 -55.874106404718283 17.190555545956478 8.2177371417577145 #
edge $-1 $579 1 $579 0 $363 $-1 forward 7 unknown #
vertex $-1 $364 $580 #
ellipse-curve $-1 -55.652450295459246 19.421267566248609 7.1218956526598864 -0.61566148304635926 0 0.78801074757464917 0.39400537378732459 0 0.30783074152317963 1 I I #
point $-1 -55.874106404718283 19.421267566248609 8.2177371417577145 #
edge $-1 $581 1 $581 0 $367 $-1 forward 7 unknown #
vertex $-1 $368 $582 #
ellipse-curve $-1 -55.652450295459246 21.651979586540754 7.1218956526598864 -0.61566148304635926 0 0.78801074757464917 0.39400537378732459 0 0.30783074152317963 1 I I #
point $-1 -55.874106404718283 21.651979586540754 8.2177371417577145 #
plane-surface $-1 59.69054231391339 0 0 -1 0 0 0 0 1 forward_v I I I I #
coedge $-1 $376 $374 $378 $510 reversed $261 $-1 #
edge $-1 $389 -10.583802239266477 $512 10.583802239266477 $388 $583 forward 7 unknown #
vertex $-1 $510 $584 #
straight-curve $-1 -59.69054231391339 -28.795809154727458 0 0 0 -1 I I #
edge $-1 $508 -28.795809154727458 $512 28.795809154727458 $506 $585 forward 7 unknown #
straight-curve $-1 0 -28.795809154727458 -10.583802239266477 -1 0 0 I I #
vertex $-1 $381 $586 #
straight-curve $-1 0 28.795809154727458 -10.583802239266477 1 0 0 I I #
point $-1 59.69054231391339 28.795809154727458 -10.583802239266477 #
point $-1 59.69054231391339 -28.795809154727458 -10.583802239266477 #
straight-curve $-1 -59.69054231391339 0 10.583802239266477 0 -1 0 I I #
point $-1 -59.69054231391339 28.795809154727458 10.583802239266477 #
point $-1 -59.69054231391339 -28.795809154727458 10.583802239266477 #
straight-curve $-1 59.69054231391339 -28.795809154727458 0 0 0 -1 I I #
straight-curve $-1 59.69054231391339 28.795809154727458 0 0 0 -1 I I #
plane-surface $-1 59.69054231391339 0 0 -1 0 0 0 0 1 forward_v I I I I #
coedge $-1 $587 $525 $405 $530 forward $399 $-1 #
coedge $-1 $406 $401 $587 $588 forward $280 $-1 #
edge $-1 $415 -4.5480084353727008 $589 4.5480084353727008 $413 $590 forward 7 unknown #
coedge $-1 $522 $591 $402 $526 reversed $399 $-1 #
edge $-1 $533 -59.69054231391339 $528 59.69054231391339 $525 $592 forward 7 unknown #
coedge $-1 $413 $403 $591 $593 forward $414 $-1 #
vertex $-1 $404 $594 #
straight-curve $-1 59.69054231391339 -33.343817590100159 -3.2130870042960717 0 1 0 I I #
edge $-1 $533 -1.5 $531 1.5 $405 $595 forward 7 unknown #
vertex $-1 $407 $596 #
straight-curve $-1 -59.69054231391339 -33.343817590100159 -6.2130870042960717 0 1 0 I I #
vertex $-1 $408 $597 #
straight-curve $-1 -59.69054231391339 -33.343817590100159 -3.2130870042960717 0 -1 0 I I #
point $-1 -59.69054231391339 -28.795809154727458 -6.2130870042960717 #
straight-curve $-1 0 -28.795809154727458 -6.2130870042960717 -1 0 0 I I #
point $-1 59.69054231391339 -28.795809154727458 -6.2130870042960717 #
edge $-1 $539 74.550726204057398 $542 81.617238406697666 $420 $598 forward 7 unknown #
vertex $-1 $434 $599 #
straight-curve $-1 43.050714979758965 6.1694745638962978 10.583802239266475 1 0 0 I I #
edge $-1 $542 1.5133830506164401 $431 7.7987999759432753 $430 $600 forward 7 unknown #
vertex $-1 $541 $601 #
straight-curve $-1 -10.479897288295106 6.1694745638962978 100.09861728443929 -0.5877852410284794 0 0.80901700255871778 I I #
point $-1 54.55642082434909 6.1694745638962978 10.583802239266475 #
point $-1 59.690542313913383 12.454891489223133 3.517290036626207 #
straight-curve $-1 59.69054231391339 0 10.583802239266477 0 1 0 I I #
vertex $-1 $437 $602 #
point $-1 56.26816611772567 7.9653079711325319 5.8110891233368038 #
vertex $-1 $441 $603 #
point $-1 56.26816611772567 10.659058081986892 5.8110891233368038 #
coedge $-1 $456 $455 $448 $552 forward $445 $-1 #
edge $-1 $553 39.070991913257942 $556 44.418783591321819 $551 $604 forward 7 unknown #
vertex $-1 $460 $605 #
straight-curve $-1 -66.594438961782075 -1.1086797859525817 10.583802239266475 -1 0 0 I I #
edge $-1 $556 -1.3045867906004904 $457 6.1311199437066346 $456 $606 forward 7 unknown #
vertex $-1 $555 $607 #
straight-curve $-1 -59.690542313913397 -1.1086797859525817 5.2360105612025905 0.78801074757464917 0 0.61566148304635926 I I #
point $-1 -52.845681243097815 -1.1086797859525817 10.583802239266477 #
point $-1 -59.69054231391339 -8.5443865202597067 5.2360105612025958 #
straight-curve $-1 -59.69054231391339 0 10.583802239266477 0 -1 0 I I #
vertex $-1 $463 $608 #
point $-1 -55.258444921671924 -7.0572451733982824 7.4297263941830662 #
vertex $-1 $467 $609 #
point $-1 -55.258444921671924 -4.8265331531061442 7.4297263941830662 #
vertex $-1 $471 $610 #
point $-1 -55.258444921671924 -2.5958211328140059 7.4297263941830662 #
coedge $-1 $486 $485 $478 $568 forward $475 $-1 #
edge $-1 $569 39.070991913257942 $572 44.418783591321819 $567 $611 forward 7 unknown #
vertex $-1 $490 $612 #
straight-curve $-1 -66.594438961782075 23.139120933402172 10.583802239266475 -1 0 0 I I #
edge $-1 $572 -13.428487150277867 $487 -5.9927804159707421 $486 $613 forward 7 unknown #
vertex $-1 $571 $614 #
straight-curve $-1 -59.690542313913397 23.139120933402172 5.2360105612025905 0.78801074757464917 0 0.61566148304635926 I I #
point $-1 -52.845681243097815 23.139120933402172 10.583802239266477 #
point $-1 -59.69054231391339 15.703414199095047 5.2360105612025958 #
straight-curve $-1 -59.69054231391339 0 10.583802239266477 0 -1 0 I I #
vertex $-1 $493 $615 #
point $-1 -55.258444921671924 17.190555545956478 7.4297263941830662 #
vertex $-1 $497 $616 #
point $-1 -55.258444921671924 19.421267566248609 7.4297263941830662 #
vertex $-1 $501 $617 #
point $-1 -55.258444921671924 21.651979586540754 7.4297263941830662 #
straight-curve $-1 -59.69054231391339 28.795809154727458 0 0 0 -1 I I #
point $-1 -59.69054231391339 -28.795809154727458 -10.583802239266477 #
straight-curve $-1 -59.69054231391339 0 -10.583802239266477 0 1 0 I I #
point $-1 -59.69054231391339 28.795809154727458 -10.583802239266477 #
coedge $-1 $591 $522 $523 $588 reversed $399 $-1 #
edge $-1 $589 -59.69054231391339 $531 59.69054231391339 $587 $618 forward 7 unknown #
vertex $-1 $593 $619 #
straight-curve $-1 59.69054231391339 -33.343817590100159 -6.2130870042960717 0 -1 0 I I #
coedge $-1 $525 $587 $527 $593 reversed $399 $-1 #
straight-curve $-1 0 -37.891826025472859 -3.2130870042960717 1 0 0 I I #
edge $-1 $528 -1.5 $589 1.5 $527 $620 forward 7 unknown #
point $-1 59.69054231391339 -37.891826025472859 -3.2130870042960717 #
straight-curve $-1 -59.69054231391339 -37.891826025472859 -4.7130870042960717 0 0 -1 I I #
point $-1 -59.69054231391339 -37.891826025472859 -6.2130870042960717 #
point $-1 -59.69054231391339 -37.891826025472859 -3.2130870042960717 #
straight-curve $-1 59.69054231391339 6.1694745638962978 85.134528443323873 0 0 -1 I I #
point $-1 59.69054231391339 6.1694745638962978 10.583802239266477 #
straight-curve $-1 59.69054231391339 4.6560915132798577 3.5172900366261999 0 1 0 I I #
point $-1 59.690542313913383 6.1694745638962978 3.517290036626207 #
point $-1 55.569764995932076 7.9653079711325319 5.9217050041019226 #
point $-1 55.569764995932076 10.659058081986892 5.9217050041019226 #
straight-curve $-1 -59.69054231391339 -1.1086797859525817 49.654794152524417 0 0 -1 I I #
point $-1 -59.69054231391339 -1.1086797859525817 10.583802239266477 #
straight-curve $-1 -59.69054231391339 -2.4132665765530721 5.2360105612025993 0 -1 0 I I #
point $-1 -59.69054231391339 -1.1086797859525817 5.2360105612025958 #
point $-1 -55.34461955393607 -7.0572451733982824 6.7278902788725619 #
point $-1 -55.34461955393607 -4.8265331531061442 6.7278902788725619 #
point $-1 -55.34461955393607 -2.5958211328140059 6.7278902788725619 #
straight-curve $-1 -59.69054231391339 23.139120933402172 49.654794152524417 0 0 -1 I I #
point $-1 -59.69054231391339 23.139120933402172 10.583802239266477 #
straight-curve $-1 -59.69054231391339 9.7106337831243046 5.2360105612025993 0 -1 0 I I #
point $-1 -59.69054231391339 23.139120933402172 5.2360105612025958 #
point $-1 -55.34461955393607 17.190555545956478 6.7278902788725619 #
point $-1 -55.34461955393607 19.421267566248609 6.7278902788725619 #
point $-1 -55.34461955393607 21.651979586540754 6.7278902788725619 #
straight-curve $-1 0 -37.891826025472859 -6.2130870042960717 -1 0 0 I I #
point $-1 59.69054231391339 -37.891826025472859 -6.2130870042960717 #
straight-curve $-1 59.69054231391339 -37.891826025472859 -4.7130870042960717 0 0 -1 I I #
End-of-ACIS-data 