500 0 4 0           
7 Unknown 11 ACIS 5.0 NT 24 Fri Mar 26 19:25:39 1999 
-1 9.9999999999999995e-007 1e-010 
body $-1 $4 $-1 $5 #
body $-1 $6 $-1 $7 #
body $-1 $8 $-1 $9 #
body $-1 $10 $-1 $11 #
lump $-1 $-1 $12 $0 #
transform $-1 1 0 0 0 1 0 0 0 1 40.371105075228122 25.278789979872599 6.3698816829679883 1 rotate no_reflect no_shear #
lump $-1 $-1 $13 $1 #
transform $-1 1 0 0 0 1 0 0 0 1 40.371105075228122 25.278789979872599 6.3698816829679883 1 rotate no_reflect no_shear #
lump $-1 $-1 $14 $2 #
transform $-1 1 0 0 0 1 0 0 0 1 40.371105075228122 25.278789979872599 6.3698816829679883 1 rotate no_reflect no_shear #
lump $-1 $-1 $15 $3 #
transform $-1 1 0 0 0 1 0 0 0 1 40.371105075228122 25.278789979872599 6.3698816829679883 1 rotate no_reflect no_shear #
shell $-1 $-1 $-1 $16 $-1 $4 #
shell $-1 $-1 $-1 $17 $-1 $6 #
shell $-1 $-1 $-1 $18 $-1 $8 #
shell $-1 $-1 $-1 $19 $-1 $10 #
face $-1 $20 $21 $12 $-1 $22 forward single #
face $-1 $23 $24 $13 $-1 $25 forward single #
face $-1 $26 $27 $14 $-1 $28 reversed single #
face $-1 $29 $30 $15 $-1 $31 forward single #
face $-1 $32 $33 $12 $-1 $34 reversed single #
loop $-1 $-1 $35 $16 #
plane-surface $-1 0 0 6.3698816829679883 0 0 1 1 0 0 forward_v I I I I #
face $-1 $36 $37 $13 $-1 $38 reversed single #
loop $-1 $-1 $39 $17 #
plane-surface $-1 0 -25.278789979872599 0 0 1 0 0 0 1 forward_v I I I I #
face $-1 $40 $41 $14 $-1 $42 reversed single #
loop $-1 $-1 $43 $18 #
plane-surface $-1 -109.58068803522292 13.817117909288317 43.531218324940042 0 1 0 -0.85716730853699208 0 0.51503806187062418 forward_v I I I I #
face $-1 $44 $45 $15 $-1 $46 forward single #
loop $-1 $47 $48 $19 #
cone-surface $-1 -37.713474233319552 19.547953944580463 3.3596300913865509 0.85716730853699208 0 -0.51503806187062418 0.51503806187062418 0 0.85716730853699208 1 I I 0 1 1 forward I I I I #
face $-1 $49 $50 $12 $-1 $51 reversed single #
loop $-1 $-1 $52 $20 #
plane-surface $-1 0 0 -6.3698816829679883 0 0 1 1 0 0 forward_v I I I I #
coedge $-1 $53 $54 $55 $56 forward $21 $-1 #
face $-1 $57 $58 $13 $-1 $59 reversed single #
loop $-1 $-1 $60 $23 #
plane-surface $-1 0 0 -6.3698816829679883 0 0 1 1 0 0 forward_v I I I I #
coedge $-1 $61 $62 $63 $64 forward $24 $-1 #
face $-1 $65 $66 $14 $-1 $67 reversed single #
loop $-1 $-1 $68 $26 #
plane-surface $-1 -40.371105075228144 19.547953944580456 1.9459068978984178 -0.85716730853699208 0 0.51503806187062418 0.51503806187062418 0 0.85716730853699208 forward_v I I I I #
coedge $-1 $69 $70 $71 $72 reversed $27 $-1 #
face $-1 $-1 $73 $15 $-1 $74 forward single #
loop $-1 $75 $76 $29 #
cone-surface $-1 -35.956355805304305 19.547953944580463 2.3038468614045913 0.85716730853699208 0 -0.51503806187062418 0.25751903093531209 0 0.42858365426849604 1 I I -0.70710678118654746 0.70710678118654746 0.5 forward I I I I #
loop $-1 $-1 $77 $19 #
coedge $-1 $48 $48 $78 $79 reversed $30 $-1 #
face $-1 $80 $81 $12 $-1 $82 reversed single #
loop $-1 $-1 $83 $32 #
plane-surface $-1 0 -25.278789979872599 0 0 1 0 0 0 1 forward_v I I I I #
coedge $-1 $84 $85 $86 $87 forward $33 $-1 #
coedge $-1 $88 $35 $89 $90 forward $21 $-1 #
coedge $-1 $35 $88 $91 $92 forward $21 $-1 #
coedge $-1 $93 $94 $35 $56 reversed $95 $-1 #
edge $-1 $96 -25.278789979872599 $97 25.278789979872599 $55 $98 forward 7 unknown #
face $-1 $99 $100 $13 $-1 $101 forward single #
loop $-1 $-1 $102 $36 #
plane-surface $-1 40.371105075228122 0 0 -1 0 0 0 0 1 forward_v I I I I #
coedge $-1 $103 $104 $105 $106 forward $37 $-1 #
coedge $-1 $105 $39 $102 $107 reversed $24 $-1 #
coedge $-1 $39 $105 $108 $109 reversed $24 $-1 #
coedge $-1 $110 $111 $39 $64 reversed $100 $-1 #
edge $-1 $112 -40.371105075228122 $113 40.371105075228122 $63 $114 forward 7 unknown #
face $-1 $115 $116 $14 $-1 $117 reversed single #
loop $-1 $-1 $118 $40 #
plane-surface $-1 0 25.278789979872599 0 0 -1 0 0 0 -1 forward_v I I I I #
coedge $-1 $119 $120 $121 $122 reversed $41 $-1 #
coedge $-1 $70 $43 $123 $124 reversed $27 $-1 #
coedge $-1 $43 $69 $119 $125 reversed $27 $-1 #
coedge $-1 $121 $126 $43 $72 forward $127 $-1 #
edge $-1 $128 14.419238942383338 $129 17.077431078706972 $71 $130 forward 7 unknown #
loop $-1 $-1 $78 $44 #
plane-surface $-1 -40.371105075228144 19.547953944580456 1.9459068978984178 -0.85716730853699208 0 0.51503806187062418 0.51503806187062418 0 0.85716730853699208 forward_v I I I I #
loop $-1 $-1 $131 $29 #
coedge $-1 $76 $76 $77 $132 reversed $45 $-1 #
coedge $-1 $77 $77 $76 $132 forward $47 $-1 #
coedge $-1 $78 $78 $48 $79 forward $73 $-1 #
edge $-1 $133 0 $133 6.2831853071796004 $78 $134 forward 7 unknown #
face $-1 $135 $136 $12 $-1 $137 reversed single #
loop $-1 $-1 $138 $49 #
plane-surface $-1 -40.371105075228122 0 0 1 0 0 0 0 -1 forward_v I I I I #
coedge $-1 $91 $139 $93 $140 reversed $50 $-1 #
coedge $-1 $141 $52 $139 $142 forward $33 $-1 #
coedge $-1 $52 $141 $143 $144 forward $33 $-1 #
coedge $-1 $94 $93 $52 $87 reversed $95 $-1 #
edge $-1 $145 -25.278789979872599 $146 25.278789979872599 $86 $147 forward 7 unknown #
coedge $-1 $54 $53 $148 $149 forward $21 $-1 #
coedge $-1 $150 $151 $53 $90 reversed $136 $-1 #
edge $-1 $97 -40.371105075228122 $152 40.371105075228122 $89 $153 forward 7 unknown #
coedge $-1 $154 $83 $54 $92 reversed $50 $-1 #
edge $-1 $155 -40.371105075228122 $96 40.371105075228122 $91 $156 forward 7 unknown #
coedge $-1 $86 $55 $83 $140 forward $95 $-1 #
coedge $-1 $55 $86 $150 $157 reversed $95 $-1 #
loop $-1 $-1 $93 $135 #
vertex $-1 $56 $158 #
vertex $-1 $56 $159 #
straight-curve $-1 40.371105075228122 0 6.3698816829679883 0 1 0 I I #
face $-1 $160 $161 $13 $-1 $162 reversed single #
loop $-1 $-1 $111 $57 #
plane-surface $-1 0 -28.393679035582569 -2.6051838254887718 0 0 1 1 0 0 forward_v I I I I #
coedge $-1 $163 $164 $61 $107 forward $58 $-1 #
coedge $-1 $165 $60 $164 $166 forward $37 $-1 #
coedge $-1 $60 $165 $167 $168 forward $37 $-1 #
coedge $-1 $62 $61 $60 $106 reversed $24 $-1 #
edge $-1 $169 -40.371105075228122 $170 40.371105075228122 $60 $171 forward 7 unknown #
edge $-1 $170 -6.3698816829679883 $113 -2.6051838254887718 $102 $172 forward 7 unknown #
coedge $-1 $167 $173 $62 $109 forward $174 $-1 #
edge $-1 $112 2.6051838254887718 $169 6.3698816829679883 $108 $175 forward 7 unknown #
coedge $-1 $176 $63 $173 $177 forward $100 $-1 #
coedge $-1 $63 $176 $163 $178 forward $100 $-1 #
vertex $-1 $109 $179 #
vertex $-1 $178 $180 #
straight-curve $-1 0 -25.278789979872599 -2.6051838254887718 1 0 0 I I #
face $-1 $-1 $127 $14 $-1 $181 forward single #
loop $-1 $-1 $182 $65 #
plane-surface $-1 -40.371105075228122 0 0 1 0 0 0 0 -1 forward_v I I I I #
coedge $-1 $183 $184 $120 $185 forward $66 $-1 #
coedge $-1 $186 $68 $70 $125 forward $41 $-1 #
coedge $-1 $68 $186 $118 $185 reversed $41 $-1 #
coedge $-1 $187 $71 $68 $122 forward $127 $-1 #
edge $-1 $129 4.0431409369980891 $188 15.504813007582367 $121 $189 forward 7 unknown #
coedge $-1 $190 $182 $69 $124 forward $116 $-1 #
edge $-1 $191 -19.819702264571568 $128 -15.395727479502032 $123 $192 forward 7 unknown #
edge $-1 $129 -5.1611566855254738 $191 -4.1431396825663817e-014 $70 $193 forward 7 unknown #
coedge $-1 $71 $187 $190 $194 forward $127 $-1 #
loop $-1 $-1 $121 $115 #
vertex $-1 $124 $195 #
vertex $-1 $72 $196 #
straight-curve $-1 -54.79034401761146 13.817117909288317 6.3698816829679892 1 0 0 I I #
coedge $-1 $131 $131 $-1 $197 reversed $75 $-1 #
edge $-1 $198 0 $198 6.2831853071796004 $76 $199 forward 7 unknown #
vertex $-1 $79 $200 #
ellipse-curve $-1 -39.042009007066312 19.547953944580463 4.1578942904332079 -0.85716730853699208 0 0.51503806187062418 0.51503806187062418 0 0.85716730853699208 1 I I #
face $-1 $-1 $95 $12 $-1 $201 reversed single #
loop $-1 $-1 $150 $80 #
plane-surface $-1 0 25.278789979872599 0 0 -1 0 0 0 -1 forward_v I I I I #
coedge $-1 $202 $148 $151 $203 forward $81 $-1 #
coedge $-1 $83 $154 $84 $142 reversed $50 $-1 #
edge $-1 $96 -6.3698816829679883 $146 6.3698816829679883 $93 $204 forward 7 unknown #
coedge $-1 $85 $84 $202 $205 forward $33 $-1 #
edge $-1 $146 -40.371105075228122 $206 40.371105075228122 $139 $207 forward 7 unknown #
coedge $-1 $151 $150 $85 $144 reversed $136 $-1 #
edge $-1 $208 -40.371105075228122 $145 40.371105075228122 $143 $209 forward 7 unknown #
vertex $-1 $87 $210 #
vertex $-1 $140 $211 #
straight-curve $-1 40.371105075228122 0 -6.3698816829679883 0 -1 0 I I #
coedge $-1 $138 $212 $88 $149 reversed $81 $-1 #
edge $-1 $152 -25.278789979872599 $155 25.278789979872599 $148 $213 forward 7 unknown #
coedge $-1 $143 $89 $94 $157 forward $136 $-1 #
coedge $-1 $89 $143 $138 $203 reversed $136 $-1 #
vertex $-1 $90 $214 #
straight-curve $-1 0 25.278789979872599 6.3698816829679883 -1 0 0 I I #
coedge $-1 $139 $91 $212 $215 forward $50 $-1 #
vertex $-1 $149 $216 #
straight-curve $-1 0 -25.278789979872599 6.3698816829679883 1 0 0 I I #
edge $-1 $97 -6.3698816829679883 $145 6.3698816829679883 $94 $217 forward 7 unknown #
point $-1 40.371105075228122 -25.278789979872599 6.3698816829679883 #
point $-1 40.371105075228122 25.278789979872599 6.3698816829679883 #
face $-1 $-1 $174 $13 $-1 $218 reversed single #
loop $-1 $-1 $219 $99 #
plane-surface $-1 0 -31.508568091292538 -4.48753275422838 0 1 0 0 0 1 forward_v I I I I #
coedge $-1 $220 $102 $111 $178 reversed $58 $-1 #
coedge $-1 $102 $220 $103 $166 reversed $58 $-1 #
coedge $-1 $104 $103 $221 $222 forward $37 $-1 #
edge $-1 $170 25.278789979872599 $223 31.508568091292538 $164 $224 forward 7 unknown #
coedge $-1 $225 $108 $104 $168 reversed $174 $-1 #
edge $-1 $226 -31.508568091292538 $169 -25.278789979872599 $167 $227 forward 7 unknown #
vertex $-1 $109 $228 #
vertex $-1 $166 $229 #
straight-curve $-1 0 -25.278789979872599 -6.3698816829679883 1 0 0 I I #
straight-curve $-1 40.371105075228122 -25.278789979872599 0 0 0 1 I I #
coedge $-1 $108 $225 $110 $177 reversed $174 $-1 #
loop $-1 $-1 $108 $160 #
straight-curve $-1 -40.371105075228122 -25.278789979872599 0 0 0 -1 I I #
coedge $-1 $111 $110 $230 $231 forward $100 $-1 #
edge $-1 $112 -3.1148890557099698 $232 3.1148890557099698 $173 $233 forward 7 unknown #
edge $-1 $234 -3.1148890557099698 $113 3.1148890557099698 $163 $235 forward 7 unknown #
point $-1 -40.371105075228122 -25.278789979872599 -2.6051838254887718 #
point $-1 40.371105075228122 -25.278789979872599 -2.6051838254887718 #
plane-surface $-1 0 0 6.3698816829679883 0 0 1 1 0 0 forward_v I I I I #
coedge $-1 $123 $236 $186 $237 forward $116 $-1 #
coedge $-1 $184 $118 $236 $238 reversed $66 $-1 #
coedge $-1 $118 $183 $187 $239 reversed $66 $-1 #
edge $-1 $188 4.4011872820673643 $240 9.5623439675927955 $118 $241 forward 7 unknown #
coedge $-1 $120 $119 $182 $237 reversed $41 $-1 #
coedge $-1 $126 $121 $184 $239 forward $127 $-1 #
vertex $-1 $239 $242 #
straight-curve $-1 -37.712912938904495 9.7739769722902281 6.3698816829679883 0 1 0 I I #
coedge $-1 $236 $123 $126 $194 reversed $116 $-1 #
vertex $-1 $124 $243 #
straight-curve $-1 -40.371105075228122 13.817117909288317 21.765609162470021 0 0 1 I I #
straight-curve $-1 -40.371105075228144 13.817117909288317 1.9459068978984178 -0.51503806187062418 0 -0.85716730853699208 I I #
edge $-1 $244 -25.278789979872599 $128 -13.817117909288317 $190 $245 forward 7 unknown #
point $-1 -40.371105075228122 13.817117909288317 6.3698816829679883 #
point $-1 -37.712912938904488 13.817117909288317 6.3698816829679883 #
edge $-1 $246 1 $246 0 $131 $-1 forward 7 unknown #
vertex $-1 $132 $247 #
ellipse-curve $-1 -36.384939459572799 19.547953944580463 2.5613658923399032 -0.85716730853699208 0 0.51503806187062418 0.51503806187062418 0 0.85716730853699208 1 I I #
point $-1 -38.526970945195671 19.547953944580463 5.0150615989701919 #
plane-surface $-1 40.371105075228122 0 0 -1 0 0 0 0 1 forward_v I I I I #
coedge $-1 $212 $138 $141 $205 reversed $81 $-1 #
edge $-1 $152 -6.3698816829679883 $208 6.3698816829679883 $151 $248 forward 7 unknown #
straight-curve $-1 40.371105075228122 -25.278789979872599 0 0 0 -1 I I #
edge $-1 $206 -25.278789979872599 $208 25.278789979872599 $202 $249 forward 7 unknown #
vertex $-1 $205 $250 #
straight-curve $-1 0 -25.278789979872599 -6.3698816829679883 -1 0 0 I I #
vertex $-1 $144 $251 #
straight-curve $-1 0 25.278789979872599 -6.3698816829679883 1 0 0 I I #
point $-1 40.371105075228122 25.278789979872599 -6.3698816829679883 #
point $-1 40.371105075228122 -25.278789979872599 -6.3698816829679883 #
coedge $-1 $148 $202 $154 $215 reversed $81 $-1 #
straight-curve $-1 -40.371105075228122 0 6.3698816829679883 0 -1 0 I I #
point $-1 -40.371105075228122 25.278789979872599 6.3698816829679883 #
edge $-1 $155 -6.3698816829679883 $206 6.3698816829679883 $212 $252 forward 7 unknown #
point $-1 -40.371105075228122 -25.278789979872599 6.3698816829679883 #
straight-curve $-1 40.371105075228122 25.278789979872599 0 0 0 -1 I I #
plane-surface $-1 -40.371105075228122 0 0 1 0 0 0 0 -1 forward_v I I I I #
coedge $-1 $221 $230 $225 $253 forward $161 $-1 #
coedge $-1 $164 $163 $254 $255 forward $58 $-1 #
coedge $-1 $254 $219 $165 $222 reversed $161 $-1 #
edge $-1 $223 -40.371105075228122 $226 40.371105075228122 $221 $256 forward 7 unknown #
vertex $-1 $255 $257 #
straight-curve $-1 40.371105075228122 0 -6.3698816829679883 0 -1 0 I I #
coedge $-1 $173 $167 $219 $253 reversed $174 $-1 #
vertex $-1 $168 $258 #
straight-curve $-1 -40.371105075228122 0 -6.3698816829679883 0 1 0 I I #
point $-1 -40.371105075228122 -25.278789979872599 -6.3698816829679883 #
point $-1 40.371105075228122 -25.278789979872599 -6.3698816829679883 #
coedge $-1 $219 $254 $176 $231 reversed $161 $-1 #
edge $-1 $232 -40.371105075228122 $234 40.371105075228122 $230 $259 forward 7 unknown #
vertex $-1 $177 $260 #
straight-curve $-1 -40.371105075228122 -28.393679035582569 -2.6051838254887718 0 -1 0 I I #
vertex $-1 $178 $261 #
straight-curve $-1 40.371105075228122 -28.393679035582569 -2.6051838254887718 0 1 0 I I #
coedge $-1 $182 $190 $183 $238 forward $116 $-1 #
edge $-1 $240 -15.504813007582367 $191 -4.0431409369980891 $182 $262 forward 7 unknown #
edge $-1 $244 -6.3698816829679883 $240 -1.9459068978984533 $183 $263 forward 7 unknown #
edge $-1 $188 37.712912938904488 $244 40.371105075228122 $184 $264 forward 7 unknown #
vertex $-1 $185 $265 #
straight-curve $-1 -35.44613397121887 25.278789979872599 10.142435539904909 -0.51503806187062429 0 -0.85716730853699219 I I #
point $-1 -37.712912938904488 25.278789979872595 6.3698816829679883 #
point $-1 -40.371105075228122 13.817117909288317 1.9459068978984533 #
vertex $-1 $239 $266 #
straight-curve $-1 -40.371105075228122 0 6.3698816829679883 0 -1 0 I I #
vertex $-1 $197 $267 #
point $-1 -35.869901397702179 19.547953944580463 3.4185332008768956 #
straight-curve $-1 -40.371105075228122 25.278789979872599 0 0 0 -1 I I #
straight-curve $-1 -40.371105075228122 0 -6.3698816829679883 0 1 0 I I #
point $-1 -40.371105075228122 -25.278789979872599 -6.3698816829679883 #
point $-1 -40.371105075228122 25.278789979872599 -6.3698816829679883 #
straight-curve $-1 -40.371105075228122 -25.278789979872599 0 0 0 -1 I I #
edge $-1 $232 -1.8823489287396082 $226 1.8823489287396082 $225 $268 forward 7 unknown #
coedge $-1 $230 $221 $220 $255 reversed $161 $-1 #
edge $-1 $234 -1.8823489287396082 $223 1.8823489287396082 $220 $269 forward 7 unknown #
straight-curve $-1 0 -31.508568091292538 -6.3698816829679883 -1 0 0 I I #
point $-1 40.371105075228122 -31.508568091292538 -6.3698816829679883 #
point $-1 -40.371105075228122 -31.508568091292538 -6.3698816829679883 #
straight-curve $-1 0 -31.508568091292538 -2.6051838254887718 1 0 0 I I #
point $-1 -40.371105075228122 -31.508568091292538 -2.6051838254887718 #
point $-1 40.371105075228122 -31.508568091292538 -2.6051838254887718 #
straight-curve $-1 -40.371105075228122 9.7739769722902281 1.9459068978984528 0 -1 0 I I #
straight-curve $-1 -40.371105075228122 25.278789979872599 0 0 0 -1 I I #
straight-curve $-1 0 25.278789979872599 6.3698816829679883 -1 0 0 I I #
point $-1 -40.371105075228122 25.278789979872595 1.9459068978984533 #
point $-1 -40.371105075228122 25.278789979872599 6.3698816829679883 #
point $-1 -35.527772151035812 19.547953944580463 2.0463278304692794 #
straight-curve $-1 -40.371105075228122 -31.508568091292538 -4.48753275422838 0 0 -1 I I #
straight-curve $-1 40.371105075228122 -31.508568091292538 -4.48753275422838 0 0 -1 I I #
End-of-ACIS-data 