500 0 6 0           
7 Unknown 11 ACIS 5.0 NT 24 Fri Mar 26 14:45:47 1999 
-1 9.9999999999999995e-007 1e-010 
body $-1 $6 $-1 $7 #
body $-1 $8 $-1 $9 #
body $-1 $10 $-1 $11 #
body $-1 $12 $-1 $13 #
body $-1 $14 $-1 $15 #
body $-1 $16 $-1 $17 #
lump $-1 $-1 $18 $0 #
transform $-1 1 0 0 0 1 0 0 0 1 71.277809991759995 34.664373947071489 7.5695220333288349 1 rotate no_reflect no_shear #
lump $-1 $-1 $19 $1 #
transform $-1 1 0 0 0 1 0 0 0 1 71.277809991759995 34.664373947071489 7.5695220333288349 1 rotate no_reflect no_shear #
lump $-1 $-1 $20 $2 #
transform $-1 1 0 0 0 1 0 0 0 1 71.277809991759995 34.664373947071489 7.5695220333288349 1 rotate no_reflect no_shear #
lump $-1 $-1 $21 $3 #
transform $-1 1 0 0 0 1 0 0 0 1 71.277809991759995 34.664373947071489 7.5695220333288349 1 rotate no_reflect no_shear #
lump $-1 $-1 $22 $4 #
transform $-1 1 0 0 0 1 0 0 0 1 71.277809991759995 34.664373947071489 7.5695220333288349 1 rotate no_reflect no_shear #
lump $-1 $-1 $23 $5 #
transform $-1 1 0 0 0 1 0 0 0 1 71.277809991759995 34.664373947071489 7.5695220333288349 1 rotate no_reflect no_shear #
shell $-1 $-1 $-1 $24 $-1 $6 #
shell $-1 $-1 $-1 $25 $-1 $8 #
shell $-1 $-1 $-1 $26 $-1 $10 #
shell $-1 $-1 $-1 $27 $-1 $12 #
shell $-1 $-1 $-1 $28 $-1 $14 #
shell $-1 $-1 $-1 $29 $-1 $16 #
face $-1 $30 $31 $18 $-1 $32 forward single #
face $-1 $33 $34 $19 $-1 $35 forward single #
face $-1 $36 $37 $20 $-1 $38 forward single #
face $-1 $39 $40 $21 $-1 $41 reversed single #
face $-1 $42 $43 $22 $-1 $44 forward single #
face $-1 $45 $46 $23 $-1 $47 forward single #
face $-1 $48 $49 $18 $-1 $50 reversed single #
loop $-1 $-1 $51 $24 #
plane-surface $-1 0 0 7.5695220333288349 0 0 1 1 0 0 forward_v I I I I #
face $-1 $52 $53 $19 $-1 $54 forward single #
loop $-1 $-1 $55 $25 #
plane-surface $-1 0 -34.664373947071489 0 0 1 0 0 0 1 forward_v I I I I #
face $-1 $56 $57 $20 $-1 $58 reversed single #
loop $-1 $-1 $59 $26 #
plane-surface $-1 0 34.664373947071489 0 0 -1 0 0 0 -1 forward_v I I I I #
face $-1 $60 $61 $21 $-1 $62 reversed single #
loop $-1 $-1 $63 $27 #
plane-surface $-1 -164.80271275262459 10.101170948872735 111.25687330628995 0 1 0 -0.6560590369687036 0 0.75470957328743171 forward_v I I I I #
face $-1 $64 $65 $22 $-1 $66 forward single #
loop $-1 $67 $68 $28 #
cone-surface $-1 -68.402809129307656 12.04272365797636 4.8928590169250938 0.6560590369687036 0 -0.75470957328743171 0.37735478664371586 0 0.3280295184843518 1 I I 0 1 0.5 forward I I I I #
face $-1 $69 $70 $23 $-1 $71 forward single #
loop $-1 $72 $73 $29 #
cone-surface $-1 -68.402809129307656 14.955052721631802 4.8928590169250938 0.6560590369687036 0 -0.75470957328743171 0.37735478664371586 0 0.3280295184843518 1 I I 0 1 0.5 forward I I I I #
face $-1 $74 $75 $18 $-1 $76 reversed single #
loop $-1 $-1 $77 $30 #
plane-surface $-1 0 0 -7.5695220333288349 0 0 1 1 0 0 forward_v I I I I #
coedge $-1 $78 $79 $80 $81 forward $31 $-1 #
face $-1 $82 $83 $19 $-1 $84 reversed single #
loop $-1 $-1 $85 $33 #
plane-surface $-1 0 0 7.5695220333288349 0 0 1 1 0 0 forward_v I I I I #
coedge $-1 $86 $87 $88 $89 forward $34 $-1 #
face $-1 $90 $91 $20 $-1 $92 reversed single #
loop $-1 $-1 $93 $36 #
plane-surface $-1 71.277809991759995 0 0 -1 0 0 0 0 1 forward_v I I I I #
coedge $-1 $94 $95 $96 $97 forward $37 $-1 #
face $-1 $98 $99 $21 $-1 $100 reversed single #
loop $-1 $-1 $101 $39 #
plane-surface $-1 -71.27780999175998 13.498888189804084 3.668782178802303 -0.6560590369687036 0 0.75470957328743171 0.75470957328743171 0 0.6560590369687036 forward_v I I I I #
coedge $-1 $102 $103 $104 $105 reversed $40 $-1 #
face $-1 $-1 $106 $22 $-1 $107 forward single #
loop $-1 $108 $109 $42 #
cone-surface $-1 -67.607437406428488 12.04272365797636 3.9778885344627612 0.6560590369687036 0 -0.75470957328743171 0.18867739332185793 0 0.1640147592421759 1 I I -0.70710678118654746 0.70710678118654746 0.25 forward I I I I #
loop $-1 $-1 $110 $28 #
coedge $-1 $68 $68 $111 $112 reversed $43 $-1 #
face $-1 $-1 $113 $23 $-1 $114 forward single #
loop $-1 $115 $116 $45 #
cone-surface $-1 -67.607437406428488 14.955052721631802 3.9778885344627612 0.6560590369687036 0 -0.75470957328743171 0.18867739332185793 0 0.1640147592421759 1 I I -0.70710678118654746 0.70710678118654746 0.25 forward I I I I #
loop $-1 $-1 $117 $29 #
coedge $-1 $73 $73 $118 $119 reversed $46 $-1 #
face $-1 $120 $121 $18 $-1 $122 reversed single #
loop $-1 $-1 $123 $48 #
plane-surface $-1 0 -34.664373947071489 0 0 1 0 0 0 1 forward_v I I I I #
coedge $-1 $124 $125 $126 $127 forward $49 $-1 #
coedge $-1 $128 $51 $129 $130 forward $31 $-1 #
coedge $-1 $51 $128 $131 $132 forward $31 $-1 #
coedge $-1 $133 $134 $51 $81 reversed $135 $-1 #
edge $-1 $136 -34.664373947071489 $137 34.664373947071489 $80 $138 forward 7 unknown #
face $-1 $139 $140 $19 $-1 $141 reversed single #
loop $-1 $-1 $142 $52 #
plane-surface $-1 -71.277809991759995 0 0 1 0 0 0 0 -1 forward_v I I I I #
coedge $-1 $143 $144 $145 $146 forward $53 $-1 #
coedge $-1 $145 $55 $142 $147 reversed $34 $-1 #
coedge $-1 $55 $145 $148 $149 reversed $34 $-1 #
coedge $-1 $150 $151 $55 $89 reversed $140 $-1 #
edge $-1 $152 -71.277809991759995 $153 71.277809991759995 $88 $154 forward 7 unknown #
face $-1 $155 $156 $20 $-1 $157 reversed single #
loop $-1 $-1 $158 $56 #
plane-surface $-1 0 37.295801032563809 3.9297663262844784 0 0 1 1 0 0 forward_v I I I I #
coedge $-1 $159 $160 $94 $161 forward $57 $-1 #
coedge $-1 $162 $59 $93 $161 reversed $37 $-1 #
coedge $-1 $59 $162 $163 $164 reversed $37 $-1 #
coedge $-1 $165 $158 $59 $97 reversed $91 $-1 #
edge $-1 $166 -71.277809991759995 $167 71.277809991759995 $96 $168 forward 7 unknown #
face $-1 $169 $170 $21 $-1 $171 reversed single #
loop $-1 $-1 $172 $60 #
plane-surface $-1 -164.80271275262459 16.896605430735434 111.25687330628995 0 -1 0 0.6560590369687036 0 -0.75470957328743171 forward_v I I I I #
coedge $-1 $173 $174 $175 $176 reversed $61 $-1 #
coedge $-1 $103 $63 $177 $178 reversed $40 $-1 #
coedge $-1 $63 $102 $173 $179 reversed $40 $-1 #
coedge $-1 $175 $180 $63 $105 forward $181 $-1 #
edge $-1 $182 11.123546384552299 $183 15.610834182182998 $104 $184 forward 7 unknown #
loop $-1 $-1 $111 $64 #
plane-surface $-1 -71.27780999175998 13.498888189804084 3.668782178802303 -0.6560590369687036 0 0.75470957328743171 0.75470957328743171 0 0.6560590369687036 forward_v I I I I #
loop $-1 $-1 $185 $42 #
coedge $-1 $109 $109 $110 $186 reversed $65 $-1 #
coedge $-1 $110 $110 $109 $186 forward $67 $-1 #
coedge $-1 $111 $111 $68 $112 forward $106 $-1 #
edge $-1 $187 0 $187 6.2831853071796004 $111 $188 forward 7 unknown #
loop $-1 $-1 $118 $69 #
plane-surface $-1 -71.27780999175998 13.498888189804084 3.668782178802303 -0.6560590369687036 0 0.75470957328743171 0.75470957328743171 0 0.6560590369687036 forward_v I I I I #
loop $-1 $-1 $189 $45 #
coedge $-1 $116 $116 $117 $190 reversed $70 $-1 #
coedge $-1 $117 $117 $116 $190 forward $72 $-1 #
coedge $-1 $118 $118 $73 $119 forward $113 $-1 #
edge $-1 $191 0 $191 6.2831853071796004 $118 $192 forward 7 unknown #
face $-1 $193 $194 $18 $-1 $195 reversed single #
loop $-1 $-1 $196 $74 #
plane-surface $-1 -71.277809991759995 0 0 1 0 0 0 0 -1 forward_v I I I I #
coedge $-1 $197 $131 $198 $199 forward $75 $-1 #
coedge $-1 $200 $77 $197 $201 forward $49 $-1 #
coedge $-1 $77 $200 $202 $203 forward $49 $-1 #
coedge $-1 $134 $133 $77 $127 reversed $135 $-1 #
edge $-1 $204 -34.664373947071489 $205 34.664373947071489 $126 $206 forward 7 unknown #
coedge $-1 $79 $78 $207 $208 forward $31 $-1 #
coedge $-1 $209 $210 $78 $130 reversed $194 $-1 #
edge $-1 $137 -71.277809991759995 $211 71.277809991759995 $129 $212 forward 7 unknown #
coedge $-1 $123 $213 $79 $132 reversed $75 $-1 #
edge $-1 $214 -71.277809991759995 $136 71.277809991759995 $131 $215 forward 7 unknown #
coedge $-1 $126 $80 $213 $216 forward $135 $-1 #
coedge $-1 $80 $126 $209 $217 reversed $135 $-1 #
loop $-1 $-1 $133 $193 #
vertex $-1 $81 $218 #
vertex $-1 $81 $219 #
straight-curve $-1 71.277809991759995 0 7.5695220333288349 0 1 0 I I #
face $-1 $220 $221 $19 $-1 $222 reversed single #
loop $-1 $-1 $150 $82 #
plane-surface $-1 0 -37.295801032563809 3.9297663262844784 0 0 1 1 0 0 forward_v I I I I #
coedge $-1 $223 $224 $86 $147 forward $83 $-1 #
coedge $-1 $225 $85 $224 $226 forward $53 $-1 #
coedge $-1 $85 $225 $227 $228 forward $53 $-1 #
coedge $-1 $87 $86 $85 $146 reversed $34 $-1 #
edge $-1 $229 -71.277809991759995 $230 71.277809991759995 $85 $231 forward 7 unknown #
edge $-1 $230 -7.5695220333288349 $153 -3.9297663262844784 $142 $232 forward 7 unknown #
coedge $-1 $227 $233 $87 $149 forward $234 $-1 #
edge $-1 $152 3.9297663262844784 $229 7.5695220333288349 $148 $235 forward 7 unknown #
coedge $-1 $236 $88 $233 $237 forward $140 $-1 #
coedge $-1 $88 $236 $223 $238 forward $140 $-1 #
vertex $-1 $149 $239 #
vertex $-1 $147 $240 #
straight-curve $-1 0 -34.664373947071489 3.9297663262844784 -1 0 0 I I #
face $-1 $241 $242 $20 $-1 $243 forward single #
loop $-1 $-1 $244 $90 #
plane-surface $-1 0 39.927228118056128 5.7496441798066575 0 -1 0 0 0 -1 forward_v I I I I #
coedge $-1 $96 $245 $159 $246 forward $91 $-1 #
coedge $-1 $247 $93 $158 $246 reversed $57 $-1 #
coedge $-1 $93 $247 $248 $249 reversed $57 $-1 #
edge $-1 $250 -7.5695220333288349 $167 -3.9297663262844784 $93 $251 forward 7 unknown #
coedge $-1 $95 $94 $252 $253 reversed $37 $-1 #
coedge $-1 $254 $255 $95 $164 forward $256 $-1 #
edge $-1 $166 3.9297663262844784 $257 7.5695220333288349 $163 $258 forward 7 unknown #
coedge $-1 $245 $96 $255 $259 forward $91 $-1 #
vertex $-1 $164 $260 #
vertex $-1 $161 $261 #
straight-curve $-1 0 34.664373947071489 3.9297663262844784 1 0 0 I I #
face $-1 $-1 $181 $21 $-1 $262 forward single #
loop $-1 $-1 $263 $98 #
plane-surface $-1 -71.277809991759995 0 0 1 0 0 0 0 -1 forward_v I I I I #
coedge $-1 $264 $265 $266 $267 reversed $99 $-1 #
coedge $-1 $268 $101 $103 $179 forward $61 $-1 #
coedge $-1 $101 $268 $264 $269 forward $61 $-1 #
coedge $-1 $266 $104 $101 $176 forward $181 $-1 #
edge $-1 $183 3.3517268539706926 $270 10.147161335833392 $175 $271 forward 7 unknown #
coedge $-1 $272 $273 $102 $178 forward $170 $-1 #
edge $-1 $274 -51.959654474342685 $182 -48.058914619816136 $177 $275 forward 7 unknown #
edge $-1 $183 -5.9457146913938708 $274 1.888283279974768e-014 $103 $276 forward 7 unknown #
coedge $-1 $104 $266 $272 $277 forward $181 $-1 #
loop $-1 $-1 $266 $169 #
vertex $-1 $178 $278 #
vertex $-1 $105 $279 #
straight-curve $-1 -82.401356376312293 10.101170948872735 7.5695220333288376 1 0 0 I I #
coedge $-1 $185 $185 $-1 $280 reversed $108 $-1 #
edge $-1 $281 0 $281 6.2831853071796004 $109 $282 forward 7 unknown #
vertex $-1 $112 $283 #
ellipse-curve $-1 -69.034166092944645 12.04272365797636 5.6191521060655649 -0.6560590369687036 0 0.75470957328743171 0.37735478664371586 0 0.3280295184843518 1 I I #
coedge $-1 $189 $189 $-1 $284 reversed $115 $-1 #
edge $-1 $285 0 $285 6.2831853071796004 $116 $286 forward 7 unknown #
vertex $-1 $119 $287 #
ellipse-curve $-1 -69.034166092944645 14.955052721631802 5.6191521060655649 -0.6560590369687036 0 0.75470957328743171 0.37735478664371586 0 0.3280295184843518 1 I I #
face $-1 $-1 $135 $18 $-1 $288 reversed single #
loop $-1 $-1 $209 $120 #
plane-surface $-1 0 34.664373947071489 0 0 -1 0 0 0 -1 forward_v I I I I #
coedge $-1 $289 $207 $210 $290 forward $121 $-1 #
coedge $-1 $213 $123 $124 $201 reversed $75 $-1 #
coedge $-1 $207 $289 $123 $199 reversed $121 $-1 #
edge $-1 $214 -7.5695220333288349 $291 7.5695220333288349 $198 $292 forward 7 unknown #
coedge $-1 $125 $124 $289 $293 forward $49 $-1 #
edge $-1 $205 -71.277809991759995 $291 71.277809991759995 $197 $294 forward 7 unknown #
coedge $-1 $210 $209 $125 $203 reversed $194 $-1 #
edge $-1 $295 -71.277809991759995 $204 71.277809991759995 $202 $296 forward 7 unknown #
vertex $-1 $127 $297 #
vertex $-1 $216 $298 #
straight-curve $-1 71.277809991759995 0 -7.5695220333288349 0 -1 0 I I #
coedge $-1 $196 $198 $128 $208 reversed $121 $-1 #
edge $-1 $211 -34.664373947071489 $214 34.664373947071489 $207 $299 forward 7 unknown #
coedge $-1 $202 $129 $134 $217 forward $194 $-1 #
coedge $-1 $129 $202 $196 $290 reversed $194 $-1 #
vertex $-1 $130 $300 #
straight-curve $-1 0 34.664373947071489 7.5695220333288349 -1 0 0 I I #
coedge $-1 $131 $197 $133 $216 reversed $75 $-1 #
vertex $-1 $208 $301 #
straight-curve $-1 0 -34.664373947071489 7.5695220333288349 1 0 0 I I #
edge $-1 $136 -7.5695220333288349 $205 7.5695220333288349 $133 $302 forward 7 unknown #
edge $-1 $137 -7.5695220333288349 $204 7.5695220333288349 $134 $303 forward 7 unknown #
point $-1 71.277809991759995 -34.664373947071489 7.5695220333288349 #
point $-1 71.277809991759995 34.664373947071489 7.5695220333288349 #
face $-1 $-1 $234 $19 $-1 $304 reversed single #
loop $-1 $-1 $305 $139 #
plane-surface $-1 0 -39.927228118056128 5.7496441798066575 0 1 0 0 0 1 forward_v I I I I #
coedge $-1 $306 $142 $151 $238 reversed $83 $-1 #
coedge $-1 $142 $306 $143 $226 reversed $83 $-1 #
coedge $-1 $144 $143 $307 $308 forward $53 $-1 #
edge $-1 $230 34.664373947071489 $309 39.927228118056128 $224 $310 forward 7 unknown #
coedge $-1 $311 $148 $144 $228 reversed $234 $-1 #
edge $-1 $312 -39.927228118056128 $229 -34.664373947071489 $227 $313 forward 7 unknown #
vertex $-1 $149 $314 #
vertex $-1 $226 $315 #
straight-curve $-1 0 -34.664373947071489 7.5695220333288349 -1 0 0 I I #
straight-curve $-1 -71.277809991759995 -34.664373947071489 0 0 0 -1 I I #
coedge $-1 $148 $311 $150 $237 reversed $234 $-1 #
loop $-1 $-1 $148 $220 #
straight-curve $-1 71.277809991759995 -34.664373947071489 0 0 0 1 I I #
coedge $-1 $151 $150 $316 $317 forward $140 $-1 #
edge $-1 $152 -2.6314270854923194 $318 2.6314270854923194 $233 $319 forward 7 unknown #
edge $-1 $320 -2.6314270854923194 $153 2.6314270854923194 $223 $321 forward 7 unknown #
point $-1 71.277809991759995 -34.664373947071489 3.9297663262844784 #
point $-1 -71.277809991759995 -34.664373947071489 3.9297663262844784 #
face $-1 $-1 $256 $20 $-1 $322 reversed single #
loop $-1 $-1 $252 $155 #
plane-surface $-1 0 0 7.5695220333288349 0 0 1 1 0 0 forward_v I I I I #
coedge $-1 $323 $324 $247 $325 forward $156 $-1 #
coedge $-1 $158 $165 $323 $326 forward $91 $-1 #
edge $-1 $327 -2.6314270854923194 $167 2.6314270854923194 $159 $328 forward 7 unknown #
coedge $-1 $160 $159 $244 $325 reversed $57 $-1 #
coedge $-1 $329 $252 $160 $249 forward $242 $-1 #
edge $-1 $250 34.664373947071489 $330 39.927228118056128 $160 $331 forward 7 unknown #
vertex $-1 $249 $332 #
straight-curve $-1 71.277809991759995 34.664373947071489 0 0 0 -1 I I #
coedge $-1 $248 $333 $162 $253 forward $242 $-1 #
edge $-1 $257 -71.277809991759995 $250 71.277809991759995 $252 $334 forward 7 unknown #
coedge $-1 $335 $163 $333 $336 reversed $256 $-1 #
coedge $-1 $163 $335 $165 $259 reversed $256 $-1 #
loop $-1 $-1 $163 $241 #
vertex $-1 $164 $337 #
straight-curve $-1 -71.277809991759995 34.664373947071489 0 0 0 1 I I #
edge $-1 $166 -2.6314270854923194 $338 2.6314270854923194 $255 $339 forward 7 unknown #
point $-1 -71.277809991759995 34.664373947071489 3.9297663262844784 #
point $-1 71.277809991759995 34.664373947071489 3.9297663262844784 #
plane-surface $-1 0 0 7.5695220333288349 0 0 1 1 0 0 forward_v I I I I #
coedge $-1 $273 $272 $265 $340 forward $170 $-1 #
coedge $-1 $265 $172 $174 $269 reversed $99 $-1 #
coedge $-1 $172 $264 $263 $340 reversed $99 $-1 #
coedge $-1 $180 $175 $172 $267 forward $181 $-1 #
edge $-1 $270 -15.610834182182998 $341 -11.123546384552299 $266 $342 forward 7 unknown #
coedge $-1 $174 $173 $273 $343 reversed $61 $-1 #
edge $-1 $344 -1.888283279974768e-014 $270 5.9457146913938708 $264 $345 forward 7 unknown #
vertex $-1 $176 $346 #
straight-curve $-1 -66.790522194129295 6.7494440949020422 7.5695220333288376 0 1 0 I I #
coedge $-1 $263 $177 $180 $277 reversed $170 $-1 #
coedge $-1 $177 $263 $268 $343 forward $170 $-1 #
vertex $-1 $178 $347 #
straight-curve $-1 -71.277809991759995 10.101170948872735 55.628436653144973 0 0 1 I I #
straight-curve $-1 -71.27780999175998 10.101170948872735 3.668782178802303 -0.75470957328743171 0 -0.6560590369687036 I I #
edge $-1 $341 -16.896605430735434 $182 -10.101170948872735 $272 $348 forward 7 unknown #
point $-1 -71.277809991759995 10.101170948872735 7.5695220333288349 #
point $-1 -66.790522194129295 10.101170948872735 7.5695220333288349 #
edge $-1 $349 1 $349 0 $185 $-1 forward 7 unknown #
vertex $-1 $186 $350 #
ellipse-curve $-1 -67.771452165670667 12.04272365797636 4.1665659277846192 -0.6560590369687036 0 0.75470957328743171 0.37735478664371586 0 0.3280295184843518 1 I I #
point $-1 -68.656811306300938 12.04272365797636 5.9471816245499198 #
edge $-1 $351 1 $351 0 $189 $-1 forward 7 unknown #
vertex $-1 $190 $352 #
ellipse-curve $-1 -67.771452165670667 14.955052721631802 4.1665659277846192 -0.6560590369687036 0 0.75470957328743171 0.37735478664371586 0 0.3280295184843518 1 I I #
point $-1 -68.656811306300938 14.955052721631802 5.9471816245499198 #
plane-surface $-1 71.277809991759995 0 0 -1 0 0 0 0 1 forward_v I I I I #
coedge $-1 $198 $196 $200 $293 reversed $121 $-1 #
edge $-1 $211 -7.5695220333288349 $295 7.5695220333288349 $210 $353 forward 7 unknown #
vertex $-1 $293 $354 #
straight-curve $-1 -71.277809991759995 -34.664373947071489 0 0 0 -1 I I #
edge $-1 $291 -34.664373947071489 $295 34.664373947071489 $289 $355 forward 7 unknown #
straight-curve $-1 0 -34.664373947071489 -7.5695220333288349 -1 0 0 I I #
vertex $-1 $203 $356 #
straight-curve $-1 0 34.664373947071489 -7.5695220333288349 1 0 0 I I #
point $-1 71.277809991759995 34.664373947071489 -7.5695220333288349 #
point $-1 71.277809991759995 -34.664373947071489 -7.5695220333288349 #
straight-curve $-1 -71.277809991759995 0 7.5695220333288349 0 -1 0 I I #
point $-1 -71.277809991759995 34.664373947071489 7.5695220333288349 #
point $-1 -71.277809991759995 -34.664373947071489 7.5695220333288349 #
straight-curve $-1 71.277809991759995 -34.664373947071489 0 0 0 -1 I I #
straight-curve $-1 71.277809991759995 34.664373947071489 0 0 0 -1 I I #
plane-surface $-1 71.277809991759995 0 0 -1 0 0 0 0 1 forward_v I I I I #
coedge $-1 $316 $307 $306 $357 forward $221 $-1 #
coedge $-1 $224 $223 $305 $357 reversed $83 $-1 #
coedge $-1 $305 $358 $225 $308 reversed $221 $-1 #
edge $-1 $309 -71.277809991759995 $312 71.277809991759995 $307 $359 forward 7 unknown #
vertex $-1 $226 $360 #
straight-curve $-1 -71.277809991759995 0 7.5695220333288349 0 -1 0 I I #
coedge $-1 $233 $227 $358 $361 forward $234 $-1 #
vertex $-1 $228 $362 #
straight-curve $-1 71.277809991759995 0 7.5695220333288349 0 1 0 I I #
point $-1 71.277809991759995 -34.664373947071489 7.5695220333288349 #
point $-1 -71.277809991759995 -34.664373947071489 7.5695220333288349 #
coedge $-1 $358 $305 $236 $317 reversed $221 $-1 #
edge $-1 $318 -71.277809991759995 $320 71.277809991759995 $316 $363 forward 7 unknown #
vertex $-1 $361 $364 #
straight-curve $-1 71.277809991759995 -37.295801032563809 3.9297663262844784 0 -1 0 I I #
vertex $-1 $238 $365 #
straight-curve $-1 -71.277809991759995 -37.295801032563809 3.9297663262844784 0 1 0 I I #
plane-surface $-1 -71.277809991759995 0 0 1 0 0 0 0 -1 forward_v I I I I #
coedge $-1 $366 $244 $245 $326 reversed $156 $-1 #
coedge $-1 $244 $366 $329 $367 reversed $156 $-1 #
edge $-1 $330 -1.8198778535221791 $327 1.8198778535221791 $247 $368 forward 7 unknown #
edge $-1 $338 -71.277809991759995 $327 71.277809991759995 $323 $369 forward 7 unknown #
vertex $-1 $246 $370 #
straight-curve $-1 71.277809991759995 37.295801032563809 3.9297663262844784 0 -1 0 I I #
coedge $-1 $333 $248 $324 $367 forward $242 $-1 #
vertex $-1 $249 $371 #
straight-curve $-1 71.277809991759995 0 7.5695220333288349 0 1 0 I I #
point $-1 71.277809991759995 34.664373947071489 7.5695220333288349 #
coedge $-1 $252 $329 $254 $336 forward $242 $-1 #
straight-curve $-1 0 34.664373947071489 7.5695220333288349 1 0 0 I I #
coedge $-1 $255 $254 $366 $372 forward $256 $-1 #
edge $-1 $373 -39.927228118056128 $257 -34.664373947071489 $254 $374 forward 7 unknown #
point $-1 -71.277809991759995 34.664373947071489 7.5695220333288349 #
vertex $-1 $326 $375 #
straight-curve $-1 -71.277809991759995 37.295801032563809 3.9297663262844784 0 1 0 I I #
edge $-1 $341 48.058914619816136 $344 51.959654474342685 $263 $376 forward 7 unknown #
vertex $-1 $277 $377 #
straight-curve $-1 -82.401356376312293 16.896605430735434 7.5695220333288376 -1 0 0 I I #
edge $-1 $344 -10.147161335833392 $274 -3.3517268539706926 $273 $378 forward 7 unknown #
vertex $-1 $343 $379 #
straight-curve $-1 -71.27780999175998 16.896605430735434 3.668782178802303 0.75470957328743171 0 0.6560590369687036 I I #
point $-1 -66.790522194129295 16.896605430735434 7.5695220333288349 #
point $-1 -71.277809991759995 10.101170948872735 3.6687821788022905 #
straight-curve $-1 -71.277809991759995 0 7.5695220333288349 0 -1 0 I I #
vertex $-1 $280 $380 #
point $-1 -67.394097379026945 12.04272365797636 4.4945954462689706 #
vertex $-1 $284 $381 #
point $-1 -67.394097379026945 14.955052721631802 4.4945954462689706 #
straight-curve $-1 -71.277809991759995 34.664373947071489 0 0 0 -1 I I #
point $-1 -71.277809991759995 -34.664373947071489 -7.5695220333288349 #
straight-curve $-1 -71.277809991759995 0 -7.5695220333288349 0 1 0 I I #
point $-1 -71.277809991759995 34.664373947071489 -7.5695220333288349 #
edge $-1 $309 -1.8198778535221791 $320 1.8198778535221791 $306 $382 forward 7 unknown #
coedge $-1 $307 $316 $311 $361 reversed $221 $-1 #
straight-curve $-1 0 -39.927228118056128 7.5695220333288367 1 0 0 I I #
point $-1 -71.277809991759995 -39.927228118056128 7.5695220333288367 #
edge $-1 $312 -1.8198778535221791 $318 1.8198778535221791 $311 $383 forward 7 unknown #
point $-1 71.277809991759995 -39.927228118056128 7.5695220333288367 #
straight-curve $-1 0 -39.927228118056128 3.9297663262844784 -1 0 0 I I #
point $-1 71.277809991759995 -39.927228118056128 3.9297663262844784 #
point $-1 -71.277809991759995 -39.927228118056128 3.9297663262844784 #
coedge $-1 $324 $323 $335 $372 reversed $156 $-1 #
edge $-1 $330 -71.277809991759995 $373 71.277809991759995 $324 $384 forward 7 unknown #
straight-curve $-1 71.277809991759995 39.927228118056128 5.7496441798066575 0 0 -1 I I #
straight-curve $-1 0 39.927228118056128 3.9297663262844784 1 0 0 I I #
point $-1 71.277809991759995 39.927228118056128 3.9297663262844784 #
point $-1 71.277809991759995 39.927228118056128 7.5695220333288367 #
edge $-1 $373 -1.8198778535221791 $338 1.8198778535221791 $366 $385 forward 7 unknown #
vertex $-1 $367 $386 #
straight-curve $-1 -71.277809991759995 0 7.5695220333288349 0 -1 0 I I #
point $-1 -71.277809991759995 39.927228118056128 3.9297663262844784 #
straight-curve $-1 -71.277809991759995 16.896605430735434 55.628436653144973 0 0 -1 I I #
point $-1 -71.277809991759995 16.896605430735434 7.5695220333288349 #
straight-curve $-1 -71.277809991759995 6.7494440949020422 3.668782178802299 0 -1 0 I I #
point $-1 -71.277809991759995 16.896605430735434 3.6687821788022905 #
point $-1 -67.44342264718631 12.04272365797636 3.7892111411409033 #
point $-1 -67.44342264718631 14.955052721631802 3.7892111411409033 #
straight-curve $-1 -71.277809991759995 -39.927228118056128 5.7496441798066575 0 0 -1 I I #
straight-curve $-1 71.277809991759995 -39.927228118056128 5.7496441798066575 0 0 -1 I I #
straight-curve $-1 0 39.927228118056128 7.5695220333288367 -1 0 0 I I #
straight-curve $-1 -71.277809991759995 39.927228118056128 5.7496441798066575 0 0 -1 I I #
point $-1 -71.277809991759995 39.927228118056128 7.5695220333288367 #
End-of-ACIS-data 