500 0 14 0           
7 Unknown 11 ACIS 5.0 NT 24 Fri Mar 26 19:38:59 1999 
-1 9.9999999999999995e-007 1e-010 
body $-1 $14 $-1 $15 #
body $-1 $16 $-1 $17 #
body $-1 $18 $-1 $19 #
body $-1 $20 $-1 $21 #
body $-1 $22 $-1 $23 #
body $-1 $24 $-1 $25 #
body $-1 $26 $-1 $27 #
body $-1 $28 $-1 $29 #
body $-1 $30 $-1 $31 #
body $-1 $32 $-1 $33 #
body $-1 $34 $-1 $35 #
body $-1 $36 $-1 $37 #
body $-1 $38 $-1 $39 #
body $-1 $40 $-1 $41 #
lump $-1 $-1 $42 $0 #
transform $-1 1 0 0 0 1 0 0 0 1 57.244178594317454 31.268630211875713 7.9301910698791334 1 rotate no_reflect no_shear #
lump $-1 $-1 $43 $1 #
transform $-1 1 0 0 0 1 0 0 0 1 57.244178594317454 31.268630211875713 7.9301910698791334 1 rotate no_reflect no_shear #
lump $-1 $-1 $44 $2 #
transform $-1 1 0 0 0 1 0 0 0 1 57.244178594317454 31.268630211875713 7.9301910698791334 1 rotate no_reflect no_shear #
lump $-1 $-1 $45 $3 #
transform $-1 1 0 0 0 1 0 0 0 1 57.244178594317454 31.268630211875713 7.9301910698791334 1 rotate no_reflect no_shear #
lump $-1 $-1 $46 $4 #
transform $-1 1 0 0 0 1 0 0 0 1 57.244178594317454 31.268630211875713 7.9301910698791334 1 rotate no_reflect no_shear #
lump $-1 $-1 $47 $5 #
transform $-1 1 0 0 0 1 0 0 0 1 57.244178594317454 31.268630211875713 7.9301910698791334 1 rotate no_reflect no_shear #
lump $-1 $-1 $48 $6 #
transform $-1 1 0 0 0 1 0 0 0 1 57.244178594317454 31.268630211875713 7.9301910698791334 1 rotate no_reflect no_shear #
lump $-1 $-1 $49 $7 #
transform $-1 1 0 0 0 1 0 0 0 1 57.244178594317454 31.268630211875713 7.9301910698791334 1 rotate no_reflect no_shear #
lump $-1 $-1 $50 $8 #
transform $-1 1 0 0 0 1 0 0 0 1 57.244178594317454 31.268630211875713 7.9301910698791334 1 rotate no_reflect no_shear #
lump $-1 $-1 $51 $9 #
transform $-1 1 0 0 0 1 0 0 0 1 57.244178594317454 31.268630211875713 7.9301910698791334 1 rotate no_reflect no_shear #
lump $-1 $-1 $52 $10 #
transform $-1 1 0 0 0 1 0 0 0 1 57.244178594317454 31.268630211875713 7.9301910698791334 1 rotate no_reflect no_shear #
lump $-1 $-1 $53 $11 #
transform $-1 1 0 0 0 1 0 0 0 1 57.244178594317454 31.268630211875713 7.9301910698791334 1 rotate no_reflect no_shear #
lump $-1 $-1 $54 $12 #
transform $-1 1 0 0 0 1 0 0 0 1 57.244178594317454 31.268630211875713 7.9301910698791334 1 rotate no_reflect no_shear #
lump $-1 $-1 $55 $13 #
transform $-1 1 0 0 0 1 0 0 0 1 57.244178594317454 31.268630211875713 7.9301910698791334 1 rotate no_reflect no_shear #
shell $-1 $-1 $-1 $56 $-1 $14 #
shell $-1 $-1 $-1 $57 $-1 $16 #
shell $-1 $-1 $-1 $58 $-1 $18 #
shell $-1 $-1 $-1 $59 $-1 $20 #
shell $-1 $-1 $-1 $60 $-1 $22 #
shell $-1 $-1 $-1 $61 $-1 $24 #
shell $-1 $-1 $-1 $62 $-1 $26 #
shell $-1 $-1 $-1 $63 $-1 $28 #
shell $-1 $-1 $-1 $64 $-1 $30 #
shell $-1 $-1 $-1 $65 $-1 $32 #
shell $-1 $-1 $-1 $66 $-1 $34 #
shell $-1 $-1 $-1 $67 $-1 $36 #
shell $-1 $-1 $-1 $68 $-1 $38 #
shell $-1 $-1 $-1 $69 $-1 $40 #
face $-1 $70 $71 $42 $-1 $72 forward single #
face $-1 $73 $74 $43 $-1 $75 forward single #
face $-1 $76 $77 $44 $-1 $78 reversed single #
face $-1 $79 $80 $45 $-1 $81 forward single #
face $-1 $82 $83 $46 $-1 $84 forward single #
face $-1 $85 $86 $47 $-1 $87 reversed single #
face $-1 $88 $89 $48 $-1 $90 forward single #
face $-1 $91 $92 $49 $-1 $93 forward single #
face $-1 $94 $95 $50 $-1 $96 reversed single #
face $-1 $97 $98 $51 $-1 $99 forward single #
face $-1 $100 $101 $52 $-1 $102 forward single #
face $-1 $103 $104 $53 $-1 $105 reversed single #
face $-1 $106 $107 $54 $-1 $108 forward single #
face $-1 $109 $110 $55 $-1 $111 forward single #
face $-1 $112 $113 $42 $-1 $114 reversed single #
loop $-1 $-1 $115 $56 #
plane-surface $-1 0 0 7.9301910698791334 0 0 1 1 0 0 forward_v I I I I #
face $-1 $116 $117 $43 $-1 $118 forward single #
loop $-1 $-1 $119 $57 #
plane-surface $-1 -57.244178594317454 0 0 1 0 0 0 0 -1 forward_v I I I I #
face $-1 $120 $121 $44 $-1 $122 reversed single #
loop $-1 $-1 $123 $58 #
plane-surface $-1 -47.152658715829531 80.886823036305685 122.91699725962252 1 0 0 0 -0.77714596973225614 -0.62932038083071107 forward_v I I I I #
face $-1 $124 $125 $45 $-1 $126 forward single #
loop $-1 $127 $128 $59 #
cone-surface $-1 -43.585600229996118 28.297517460444155 4.5493795213398771 0 -0.77714596973225614 -0.62932038083071107 1.5 0 0 1 I I 0 1 1.5 forward I I I I #
face $-1 $129 $130 $46 $-1 $131 forward single #
loop $-1 $132 $133 $60 #
cone-surface $-1 -38.23501250124599 28.297517460444155 4.5493795213398771 0 -0.77714596973225614 -0.62932038083071107 1.5 0 0 1 I I 0 1 1.5 forward I I I I #
face $-1 $134 $135 $47 $-1 $136 reversed single #
loop $-1 $-1 $137 $61 #
plane-surface $-1 -17.696494991830825 80.886823036305685 122.91699725962252 1 0 0 0 -0.77714596973225614 -0.62932038083071107 forward_v I I I I #
face $-1 $138 $139 $48 $-1 $140 forward single #
loop $-1 $141 $142 $62 #
cone-surface $-1 -14.129436505997411 28.297517460444155 4.5493795213398771 0 -0.77714596973225614 -0.62932038083071107 1.5 0 0 1 I I 0 1 1.5 forward I I I I #
face $-1 $143 $144 $49 $-1 $145 forward single #
loop $-1 $146 $147 $63 #
cone-surface $-1 -8.7788487772472834 28.297517460444155 4.5493795213398771 0 -0.77714596973225614 -0.62932038083071107 1.5 0 0 1 I I 0 1 1.5 forward I I I I #
face $-1 $148 $149 $50 $-1 $150 reversed single #
loop $-1 $-1 $151 $64 #
plane-surface $-1 11.759668732167887 80.886823036305685 122.91699725962252 1 0 0 0 -0.77714596973225614 -0.62932038083071107 forward_v I I I I #
face $-1 $152 $153 $51 $-1 $154 forward single #
loop $-1 $155 $156 $65 #
cone-surface $-1 15.326727218001302 28.297517460444155 4.5493795213398771 0 -0.77714596973225614 -0.62932038083071107 1.5 0 0 1 I I 0 1 1.5 forward I I I I #
face $-1 $157 $158 $52 $-1 $159 forward single #
loop $-1 $160 $161 $66 #
cone-surface $-1 20.67731494675143 28.297517460444155 4.5493795213398771 0 -0.77714596973225614 -0.62932038083071107 1.5 0 0 1 I I 0 1 1.5 forward I I I I #
face $-1 $162 $163 $53 $-1 $164 reversed single #
loop $-1 $-1 $165 $67 #
plane-surface $-1 41.215832456166602 80.886823036305685 122.91699725962252 1 0 0 0 -0.77714596973225614 -0.62932038083071107 forward_v I I I I #
face $-1 $166 $167 $54 $-1 $168 forward single #
loop $-1 $169 $170 $68 #
cone-surface $-1 44.782890942000016 28.297517460444155 4.5493795213398771 0 -0.77714596973225614 -0.62932038083071107 1.5 0 0 1 I I 0 1 1.5 forward I I I I #
face $-1 $171 $172 $55 $-1 $173 forward single #
loop $-1 $174 $175 $69 #
cone-surface $-1 50.133478670750144 28.297517460444155 4.5493795213398771 0 -0.77714596973225614 -0.62932038083071107 1.5 0 0 1 I I 0 1 1.5 forward I I I I #
face $-1 $176 $177 $42 $-1 $178 reversed single #
loop $-1 $-1 $179 $70 #
plane-surface $-1 0 0 -7.9301910698791334 0 0 1 1 0 0 forward_v I I I I #
coedge $-1 $180 $181 $182 $183 forward $71 $-1 #
face $-1 $184 $185 $43 $-1 $186 reversed single #
loop $-1 $-1 $187 $73 #
plane-surface $-1 0 0 7.9301910698791334 0 0 1 1 0 0 forward_v I I I I #
coedge $-1 $188 $189 $190 $191 forward $74 $-1 #
face $-1 $192 $193 $44 $-1 $194 reversed single #
loop $-1 $-1 $195 $76 #
plane-surface $-1 -40.910306365621054 -8.0873423341089108 50.867140712988316 0 0.77714596973225614 0.62932038083071107 1 0 0 forward_v I I I I #
coedge $-1 $196 $197 $198 $199 reversed $77 $-1 #
face $-1 $-1 $200 $45 $-1 $201 forward single #
loop $-1 $202 $203 $79 #
cone-surface $-1 -43.585600229996118 27.036703844581648 3.5283928138304743 0 -0.77714596973225614 -0.62932038083071107 0.75 0 0 1 I I -0.70710678118654757 0.70710678118654757 0.75 forward I I I I #
loop $-1 $-1 $204 $59 #
coedge $-1 $128 $128 $205 $206 reversed $80 $-1 #
face $-1 $-1 $207 $46 $-1 $208 forward single #
loop $-1 $209 $210 $82 #
cone-surface $-1 -38.23501250124599 27.036703844581648 3.5283928138304743 0 -0.77714596973225614 -0.62932038083071107 0.75 0 0 1 I I -0.70710678118654757 0.70710678118654757 0.75 forward I I I I #
loop $-1 $-1 $211 $60 #
coedge $-1 $133 $133 $212 $213 reversed $83 $-1 #
face $-1 $214 $215 $47 $-1 $216 reversed single #
loop $-1 $-1 $217 $85 #
plane-surface $-1 -11.454142641622347 -8.0873423341089108 50.867140712988316 0 0.77714596973225614 0.62932038083071107 1 0 0 forward_v I I I I #
coedge $-1 $218 $219 $220 $221 reversed $86 $-1 #
face $-1 $-1 $222 $48 $-1 $223 forward single #
loop $-1 $224 $225 $88 #
cone-surface $-1 -14.129436505997411 27.036703844581648 3.5283928138304743 0 -0.77714596973225614 -0.62932038083071107 0.75 0 0 1 I I -0.70710678118654757 0.70710678118654757 0.75 forward I I I I #
loop $-1 $-1 $226 $62 #
coedge $-1 $142 $142 $227 $228 reversed $89 $-1 #
face $-1 $-1 $229 $49 $-1 $230 forward single #
loop $-1 $231 $232 $91 #
cone-surface $-1 -8.7788487772472834 27.036703844581648 3.5283928138304743 0 -0.77714596973225614 -0.62932038083071107 0.75 0 0 1 I I -0.70710678118654757 0.70710678118654757 0.75 forward I I I I #
loop $-1 $-1 $233 $63 #
coedge $-1 $147 $147 $234 $235 reversed $92 $-1 #
face $-1 $236 $237 $50 $-1 $238 reversed single #
loop $-1 $-1 $239 $94 #
plane-surface $-1 18.002021082376366 -8.0873423341089108 50.867140712988316 0 0.77714596973225614 0.62932038083071107 1 0 0 forward_v I I I I #
coedge $-1 $240 $241 $242 $243 reversed $95 $-1 #
face $-1 $-1 $244 $51 $-1 $245 forward single #
loop $-1 $246 $247 $97 #
cone-surface $-1 15.326727218001302 27.036703844581648 3.5283928138304743 0 -0.77714596973225614 -0.62932038083071107 0.75 0 0 1 I I -0.70710678118654757 0.70710678118654757 0.75 forward I I I I #
loop $-1 $-1 $248 $65 #
coedge $-1 $156 $156 $249 $250 reversed $98 $-1 #
face $-1 $-1 $251 $52 $-1 $252 forward single #
loop $-1 $253 $254 $100 #
cone-surface $-1 20.67731494675143 27.036703844581648 3.5283928138304743 0 -0.77714596973225614 -0.62932038083071107 0.75 0 0 1 I I -0.70710678118654757 0.70710678118654757 0.75 forward I I I I #
loop $-1 $-1 $255 $66 #
coedge $-1 $161 $161 $256 $257 reversed $101 $-1 #
face $-1 $258 $259 $53 $-1 $260 reversed single #
loop $-1 $-1 $261 $103 #
plane-surface $-1 47.45818480637508 -8.0873423341089108 50.867140712988316 0 0.77714596973225614 0.62932038083071107 1 0 0 forward_v I I I I #
coedge $-1 $262 $263 $264 $265 reversed $104 $-1 #
face $-1 $-1 $266 $54 $-1 $267 forward single #
loop $-1 $268 $269 $106 #
cone-surface $-1 44.782890942000016 27.036703844581648 3.5283928138304743 0 -0.77714596973225614 -0.62932038083071107 0.75 0 0 1 I I -0.70710678118654757 0.70710678118654757 0.75 forward I I I I #
loop $-1 $-1 $270 $68 #
coedge $-1 $170 $170 $271 $272 reversed $107 $-1 #
face $-1 $-1 $273 $55 $-1 $274 forward single #
loop $-1 $275 $276 $109 #
cone-surface $-1 50.133478670750144 27.036703844581648 3.5283928138304743 0 -0.77714596973225614 -0.62932038083071107 0.75 0 0 1 I I -0.70710678118654757 0.70710678118654757 0.75 forward I I I I #
loop $-1 $-1 $277 $69 #
coedge $-1 $175 $175 $278 $279 reversed $110 $-1 #
face $-1 $280 $281 $42 $-1 $282 reversed single #
loop $-1 $-1 $283 $112 #
plane-surface $-1 0 -31.268630211875713 0 0 1 0 0 0 1 forward_v I I I I #
coedge $-1 $284 $285 $286 $287 forward $113 $-1 #
coedge $-1 $288 $115 $289 $290 forward $71 $-1 #
coedge $-1 $115 $288 $291 $292 forward $71 $-1 #
coedge $-1 $293 $294 $115 $183 reversed $295 $-1 #
edge $-1 $296 -31.268630211875713 $297 31.268630211875713 $182 $298 forward 7 unknown #
face $-1 $299 $300 $43 $-1 $301 reversed single #
loop $-1 $-1 $302 $116 #
plane-surface $-1 -63.792057035071458 -29.75788367677923 0 1 0 0 0 0 -1 forward_v I I I I #
coedge $-1 $303 $304 $188 $305 forward $117 $-1 #
coedge $-1 $306 $119 $187 $305 reversed $74 $-1 #
coedge $-1 $119 $306 $307 $308 reversed $74 $-1 #
coedge $-1 $309 $310 $119 $191 reversed $300 $-1 #
edge $-1 $311 -7.9301910698791334 $312 7.9301910698791334 $190 $313 forward 7 unknown #
face $-1 $314 $315 $44 $-1 $316 forward single #
loop $-1 $-1 $317 $120 #
plane-surface $-1 -34.667954015412576 80.886823036305685 122.91699725962252 -1 0 0 0 0.77714596973225614 0.62932038083071107 forward_v I I I I #
coedge $-1 $318 $319 $320 $321 reversed $121 $-1 #
coedge $-1 $197 $123 $322 $323 reversed $77 $-1 #
coedge $-1 $123 $196 $318 $324 reversed $77 $-1 #
coedge $-1 $320 $325 $123 $199 forward $315 $-1 #
edge $-1 $326 9.1747813062771293 $327 13.761098532013619 $198 $328 forward 7 unknown #
loop $-1 $-1 $205 $124 #
plane-surface $-1 -40.910306365621054 -8.0873423341089108 50.867140712988316 0 0.77714596973225614 0.62932038083071107 1 0 0 forward_v I I I I #
loop $-1 $-1 $329 $79 #
coedge $-1 $203 $203 $204 $330 reversed $125 $-1 #
coedge $-1 $204 $204 $203 $330 forward $127 $-1 #
coedge $-1 $205 $205 $128 $206 forward $200 $-1 #
edge $-1 $331 6.8024590285655488e-016 $331 6.2831853071796013 $205 $332 forward 7 unknown #
loop $-1 $-1 $212 $129 #
plane-surface $-1 -40.910306365621054 -8.0873423341089108 50.867140712988316 0 0.77714596973225614 0.62932038083071107 1 0 0 forward_v I I I I #
loop $-1 $-1 $333 $82 #
coedge $-1 $210 $210 $211 $334 reversed $130 $-1 #
coedge $-1 $211 $211 $210 $334 forward $132 $-1 #
coedge $-1 $212 $212 $133 $213 forward $207 $-1 #
edge $-1 $335 6.8024590285655488e-016 $335 6.2831853071796013 $212 $336 forward 7 unknown #
face $-1 $337 $338 $47 $-1 $339 forward single #
loop $-1 $-1 $340 $134 #
plane-surface $-1 -5.2117902914138678 80.886823036305685 122.91699725962252 -1 0 0 0 0.77714596973225614 0.62932038083071107 forward_v I I I I #
coedge $-1 $341 $342 $343 $344 reversed $135 $-1 #
coedge $-1 $219 $137 $345 $346 reversed $86 $-1 #
coedge $-1 $137 $218 $341 $347 reversed $86 $-1 #
coedge $-1 $343 $348 $137 $221 forward $338 $-1 #
edge $-1 $349 9.1747813062771293 $350 13.761098532013619 $220 $351 forward 7 unknown #
loop $-1 $-1 $227 $138 #
plane-surface $-1 -11.454142641622347 -8.0873423341089108 50.867140712988316 0 0.77714596973225614 0.62932038083071107 1 0 0 forward_v I I I I #
loop $-1 $-1 $352 $88 #
coedge $-1 $225 $225 $226 $353 reversed $139 $-1 #
coedge $-1 $226 $226 $225 $353 forward $141 $-1 #
coedge $-1 $227 $227 $142 $228 forward $222 $-1 #
edge $-1 $354 6.8024590285655488e-016 $354 6.2831853071796013 $227 $355 forward 7 unknown #
loop $-1 $-1 $234 $143 #
plane-surface $-1 -11.454142641622347 -8.0873423341089108 50.867140712988316 0 0.77714596973225614 0.62932038083071107 1 0 0 forward_v I I I I #
loop $-1 $-1 $356 $91 #
coedge $-1 $232 $232 $233 $357 reversed $144 $-1 #
coedge $-1 $233 $233 $232 $357 forward $146 $-1 #
coedge $-1 $234 $234 $147 $235 forward $229 $-1 #
edge $-1 $358 6.8024590285655488e-016 $358 6.2831853071796013 $234 $359 forward 7 unknown #
face $-1 $360 $361 $50 $-1 $362 forward single #
loop $-1 $-1 $363 $148 #
plane-surface $-1 24.244373432584844 80.886823036305685 122.91699725962252 -1 0 0 0 0.77714596973225614 0.62932038083071107 forward_v I I I I #
coedge $-1 $364 $365 $366 $367 reversed $149 $-1 #
coedge $-1 $241 $151 $368 $369 reversed $95 $-1 #
coedge $-1 $151 $240 $364 $370 reversed $95 $-1 #
coedge $-1 $366 $371 $151 $243 forward $361 $-1 #
edge $-1 $372 9.1747813062771293 $373 13.761098532013619 $242 $374 forward 7 unknown #
loop $-1 $-1 $249 $152 #
plane-surface $-1 18.002021082376366 -8.0873423341089108 50.867140712988316 0 0.77714596973225614 0.62932038083071107 1 0 0 forward_v I I I I #
loop $-1 $-1 $375 $97 #
coedge $-1 $247 $247 $248 $376 reversed $153 $-1 #
coedge $-1 $248 $248 $247 $376 forward $155 $-1 #
coedge $-1 $249 $249 $156 $250 forward $244 $-1 #
edge $-1 $377 6.8024590285655488e-016 $377 6.2831853071796013 $249 $378 forward 7 unknown #
loop $-1 $-1 $256 $157 #
plane-surface $-1 18.002021082376366 -8.0873423341089108 50.867140712988316 0 0.77714596973225614 0.62932038083071107 1 0 0 forward_v I I I I #
loop $-1 $-1 $379 $100 #
coedge $-1 $254 $254 $255 $380 reversed $158 $-1 #
coedge $-1 $255 $255 $254 $380 forward $160 $-1 #
coedge $-1 $256 $256 $161 $257 forward $251 $-1 #
edge $-1 $381 6.8024590285655488e-016 $381 6.2831853071796013 $256 $382 forward 7 unknown #
face $-1 $383 $384 $53 $-1 $385 forward single #
loop $-1 $-1 $386 $162 #
plane-surface $-1 53.700537156583557 80.886823036305685 122.91699725962252 -1 0 0 0 0.77714596973225614 0.62932038083071107 forward_v I I I I #
coedge $-1 $387 $388 $389 $390 reversed $163 $-1 #
coedge $-1 $263 $165 $391 $392 reversed $104 $-1 #
coedge $-1 $165 $262 $387 $393 reversed $104 $-1 #
coedge $-1 $389 $394 $165 $265 forward $384 $-1 #
edge $-1 $395 9.1747813062771293 $396 13.761098532013619 $264 $397 forward 7 unknown #
loop $-1 $-1 $271 $166 #
plane-surface $-1 47.45818480637508 -8.0873423341089108 50.867140712988316 0 0.77714596973225614 0.62932038083071107 1 0 0 forward_v I I I I #
loop $-1 $-1 $398 $106 #
coedge $-1 $269 $269 $270 $399 reversed $167 $-1 #
coedge $-1 $270 $270 $269 $399 forward $169 $-1 #
coedge $-1 $271 $271 $170 $272 forward $266 $-1 #
edge $-1 $400 6.8024590285655488e-016 $400 6.2831853071796013 $271 $401 forward 7 unknown #
loop $-1 $-1 $278 $171 #
plane-surface $-1 47.45818480637508 -8.0873423341089108 50.867140712988316 0 0.77714596973225614 0.62932038083071107 1 0 0 forward_v I I I I #
loop $-1 $-1 $402 $109 #
coedge $-1 $276 $276 $277 $403 reversed $172 $-1 #
coedge $-1 $277 $277 $276 $403 forward $174 $-1 #
coedge $-1 $278 $278 $175 $279 forward $273 $-1 #
edge $-1 $404 6.8024590285655488e-016 $404 6.2831853071796013 $278 $405 forward 7 unknown #
face $-1 $406 $407 $42 $-1 $408 reversed single #
loop $-1 $-1 $409 $176 #
plane-surface $-1 -57.244178594317454 0 0 1 0 0 0 0 -1 forward_v I I I I #
coedge $-1 $410 $291 $411 $412 forward $177 $-1 #
coedge $-1 $413 $179 $410 $414 forward $113 $-1 #
coedge $-1 $179 $413 $415 $416 forward $113 $-1 #
coedge $-1 $294 $293 $179 $287 reversed $295 $-1 #
edge $-1 $417 -31.268630211875713 $418 31.268630211875713 $286 $419 forward 7 unknown #
coedge $-1 $181 $180 $409 $420 forward $71 $-1 #
coedge $-1 $421 $422 $180 $290 reversed $407 $-1 #
edge $-1 $297 -57.244178594317454 $423 57.244178594317454 $289 $424 forward 7 unknown #
coedge $-1 $283 $425 $181 $292 reversed $177 $-1 #
edge $-1 $426 -57.244178594317454 $296 57.244178594317454 $291 $427 forward 7 unknown #
coedge $-1 $286 $182 $425 $428 forward $295 $-1 #
coedge $-1 $182 $286 $421 $429 reversed $295 $-1 #
loop $-1 $-1 $293 $406 #
vertex $-1 $183 $430 #
vertex $-1 $183 $431 #
straight-curve $-1 57.244178594317454 0 7.9301910698791334 0 1 0 I I #
face $-1 $432 $433 $43 $-1 $434 reversed single #
loop $-1 $-1 $190 $184 #
plane-surface $-1 -60.518117814694456 -28.247137141682746 0 0 -1 0 0 0 -1 forward_v I I I I #
coedge $-1 $435 $436 $437 $438 forward $185 $-1 #
coedge $-1 $439 $187 $310 $440 forward $117 $-1 #
coedge $-1 $187 $439 $441 $442 forward $117 $-1 #
edge $-1 $443 -31.268630211875713 $312 -28.247137141682746 $187 $444 forward 7 unknown #
coedge $-1 $189 $188 $445 $446 reversed $74 $-1 #
coedge $-1 $447 $448 $189 $308 forward $433 $-1 #
edge $-1 $311 28.247137141682746 $449 31.268630211875713 $307 $450 forward 7 unknown #
coedge $-1 $437 $190 $448 $451 reversed $300 $-1 #
coedge $-1 $190 $437 $303 $440 reversed $300 $-1 #
vertex $-1 $308 $452 #
vertex $-1 $440 $453 #
straight-curve $-1 -57.244178594317454 -28.247137141682746 0 0 0 1 I I #
face $-1 $-1 $454 $44 $-1 $455 reversed single #
loop $-1 $-1 $198 $192 #
plane-surface $-1 0 0 7.9301910698791334 0 0 1 1 0 0 forward_v I I I I #
coedge $-1 $456 $457 $458 $459 reversed $193 $-1 #
coedge $-1 $460 $195 $197 $324 forward $121 $-1 #
coedge $-1 $195 $460 $456 $461 forward $121 $-1 #
coedge $-1 $458 $198 $195 $321 forward $315 $-1 #
edge $-1 $327 -26.697505533019005 $462 -14.212800832602049 $320 $463 forward 7 unknown #
coedge $-1 $464 $465 $196 $323 forward $454 $-1 #
edge $-1 $466 -59.191937813237914 $326 -53.528307559932124 $322 $467 forward 7 unknown #
edge $-1 $327 55.249530095230249 $466 62.537260423751462 $197 $468 forward 7 unknown #
coedge $-1 $198 $458 $464 $469 forward $315 $-1 #
vertex $-1 $323 $470 #
vertex $-1 $199 $471 #
straight-curve $-1 -47.152658715829531 40.443411518152843 7.930191069879136 0 -1 0 I I #
coedge $-1 $329 $329 $-1 $472 reversed $202 $-1 #
edge $-1 $473 0 $473 6.2831853071796004 $203 $474 forward 7 unknown #
vertex $-1 $206 $475 #
ellipse-curve $-1 -43.585600229996118 28.975471599007463 5.0983759432262419 0 0.77714596973225614 0.62932038083071107 1.5 0 0 1 I I #
coedge $-1 $333 $333 $-1 $476 reversed $209 $-1 #
edge $-1 $477 0 $477 6.2831853071796004 $210 $478 forward 7 unknown #
vertex $-1 $213 $479 #
ellipse-curve $-1 -38.23501250124599 28.975471599007463 5.0983759432262419 0 0.77714596973225614 0.62932038083071107 1.5 0 0 1 I I #
face $-1 $-1 $480 $47 $-1 $481 reversed single #
loop $-1 $-1 $220 $214 #
plane-surface $-1 0 0 7.9301910698791334 0 0 1 1 0 0 forward_v I I I I #
coedge $-1 $482 $483 $484 $485 reversed $215 $-1 #
coedge $-1 $486 $217 $219 $347 forward $135 $-1 #
coedge $-1 $217 $486 $482 $487 forward $135 $-1 #
coedge $-1 $484 $220 $217 $344 forward $338 $-1 #
edge $-1 $350 -11.969423671019651 $488 0.5152810293973058 $343 $489 forward 7 unknown #
coedge $-1 $490 $491 $218 $346 forward $480 $-1 #
edge $-1 $492 -59.191937813237914 $349 -53.528307559932124 $345 $493 forward 7 unknown #
edge $-1 $350 55.249530095230249 $492 62.537260423751462 $219 $494 forward 7 unknown #
coedge $-1 $220 $484 $490 $495 forward $338 $-1 #
vertex $-1 $221 $496 #
vertex $-1 $221 $497 #
straight-curve $-1 -17.696494991830825 40.443411518152843 7.930191069879136 0 -1 0 I I #
coedge $-1 $352 $352 $-1 $498 reversed $224 $-1 #
edge $-1 $499 0 $499 6.2831853071796004 $225 $500 forward 7 unknown #
vertex $-1 $228 $501 #
ellipse-curve $-1 -14.129436505997411 28.975471599007463 5.0983759432262419 0 0.77714596973225614 0.62932038083071107 1.5 0 0 1 I I #
coedge $-1 $356 $356 $-1 $502 reversed $231 $-1 #
edge $-1 $503 0 $503 6.2831853071796004 $232 $504 forward 7 unknown #
vertex $-1 $235 $505 #
ellipse-curve $-1 -8.7788487772472834 28.975471599007463 5.0983759432262419 0 0.77714596973225614 0.62932038083071107 1.5 0 0 1 I I #
face $-1 $-1 $506 $50 $-1 $507 reversed single #
loop $-1 $-1 $242 $236 #
plane-surface $-1 0 0 7.9301910698791334 0 0 1 1 0 0 forward_v I I I I #
coedge $-1 $508 $509 $510 $511 reversed $237 $-1 #
coedge $-1 $512 $239 $241 $370 forward $149 $-1 #
coedge $-1 $239 $512 $508 $513 forward $149 $-1 #
coedge $-1 $510 $242 $239 $367 forward $361 $-1 #
edge $-1 $373 2.7586581909797037 $514 15.243362891396661 $366 $515 forward 7 unknown #
coedge $-1 $516 $517 $240 $369 forward $506 $-1 #
edge $-1 $518 -59.191937813237914 $372 -53.528307559932124 $368 $519 forward 7 unknown #
edge $-1 $373 55.249530095230249 $518 62.537260423751462 $241 $520 forward 7 unknown #
coedge $-1 $242 $510 $516 $521 forward $361 $-1 #
vertex $-1 $243 $522 #
vertex $-1 $243 $523 #
straight-curve $-1 11.759668732167887 40.443411518152843 7.930191069879136 0 -1 0 I I #
coedge $-1 $375 $375 $-1 $524 reversed $246 $-1 #
edge $-1 $525 0 $525 6.2831853071796004 $247 $526 forward 7 unknown #
vertex $-1 $250 $527 #
ellipse-curve $-1 15.326727218001302 28.975471599007463 5.0983759432262419 0 0.77714596973225614 0.62932038083071107 1.5 0 0 1 I I #
coedge $-1 $379 $379 $-1 $528 reversed $253 $-1 #
edge $-1 $529 0 $529 6.2831853071796004 $254 $530 forward 7 unknown #
vertex $-1 $257 $531 #
ellipse-curve $-1 20.67731494675143 28.975471599007463 5.0983759432262419 0 0.77714596973225614 0.62932038083071107 1.5 0 0 1 I I #
face $-1 $-1 $532 $53 $-1 $533 reversed single #
loop $-1 $-1 $264 $258 #
plane-surface $-1 0 0 7.9301910698791334 0 0 1 1 0 0 forward_v I I I I #
coedge $-1 $534 $535 $536 $537 reversed $259 $-1 #
coedge $-1 $538 $261 $263 $393 forward $163 $-1 #
coedge $-1 $261 $538 $534 $539 forward $163 $-1 #
coedge $-1 $536 $264 $261 $390 forward $384 $-1 #
edge $-1 $396 17.486740052979062 $540 29.971444753396018 $389 $541 forward 7 unknown #
coedge $-1 $542 $543 $262 $392 forward $532 $-1 #
edge $-1 $544 -59.191937813237914 $395 -53.528307559932124 $391 $545 forward 7 unknown #
edge $-1 $396 55.249530095230249 $544 62.537260423751462 $263 $546 forward 7 unknown #
coedge $-1 $264 $536 $542 $547 forward $384 $-1 #
vertex $-1 $265 $548 #
vertex $-1 $265 $549 #
straight-curve $-1 41.215832456166602 40.443411518152843 7.930191069879136 0 -1 0 I I #
coedge $-1 $398 $398 $-1 $550 reversed $268 $-1 #
edge $-1 $551 0 $551 6.2831853071796004 $269 $552 forward 7 unknown #
vertex $-1 $272 $553 #
ellipse-curve $-1 44.782890942000016 28.975471599007463 5.0983759432262419 0 0.77714596973225614 0.62932038083071107 1.5 0 0 1 I I #
coedge $-1 $402 $402 $-1 $554 reversed $275 $-1 #
edge $-1 $555 0 $555 6.2831853071796004 $276 $556 forward 7 unknown #
vertex $-1 $279 $557 #
ellipse-curve $-1 50.133478670750144 28.975471599007463 5.0983759432262419 0 0.77714596973225614 0.62932038083071107 1.5 0 0 1 I I #
face $-1 $-1 $295 $42 $-1 $558 reversed single #
loop $-1 $-1 $421 $280 #
plane-surface $-1 0 31.268630211875713 0 0 -1 0 0 0 -1 forward_v I I I I #
coedge $-1 $559 $411 $288 $420 reversed $281 $-1 #
coedge $-1 $425 $283 $284 $414 reversed $177 $-1 #
coedge $-1 $409 $560 $283 $412 reversed $281 $-1 #
edge $-1 $426 -7.9301910698791334 $561 7.9301910698791334 $411 $562 forward 7 unknown #
coedge $-1 $285 $284 $560 $563 forward $113 $-1 #
edge $-1 $418 -57.244178594317454 $561 57.244178594317454 $410 $564 forward 7 unknown #
coedge $-1 $422 $421 $285 $416 reversed $407 $-1 #
edge $-1 $565 -57.244178594317454 $417 57.244178594317454 $415 $566 forward 7 unknown #
vertex $-1 $287 $567 #
vertex $-1 $428 $568 #
straight-curve $-1 57.244178594317454 0 -7.9301910698791334 0 -1 0 I I #
edge $-1 $423 -31.268630211875713 $426 31.268630211875713 $409 $569 forward 7 unknown #
coedge $-1 $415 $289 $294 $429 forward $407 $-1 #
coedge $-1 $289 $415 $559 $570 reversed $407 $-1 #
vertex $-1 $290 $571 #
straight-curve $-1 0 31.268630211875713 7.9301910698791334 -1 0 0 I I #
coedge $-1 $291 $410 $293 $428 reversed $177 $-1 #
vertex $-1 $420 $572 #
straight-curve $-1 0 -31.268630211875713 7.9301910698791334 1 0 0 I I #
edge $-1 $296 -7.9301910698791334 $418 7.9301910698791334 $293 $573 forward 7 unknown #
edge $-1 $297 -7.9301910698791334 $417 7.9301910698791334 $294 $574 forward 7 unknown #
point $-1 57.244178594317454 -31.268630211875713 7.9301910698791334 #
point $-1 57.244178594317454 31.268630211875713 7.9301910698791334 #
face $-1 $-1 $575 $43 $-1 $576 reversed single #
loop $-1 $-1 $307 $299 #
plane-surface $-1 0 0 -7.9301910698791334 0 0 1 1 0 0 forward_v I I I I #
coedge $-1 $577 $302 $578 $579 reversed $185 $-1 #
coedge $-1 $302 $577 $439 $580 reversed $185 $-1 #
coedge $-1 $310 $309 $302 $438 reversed $300 $-1 #
edge $-1 $581 -7.9301910698791334 $582 7.9301910698791334 $437 $583 forward 7 unknown #
coedge $-1 $304 $303 $436 $580 forward $117 $-1 #
edge $-1 $312 -3.2739392203770024 $581 3.2739392203770024 $310 $584 forward 7 unknown #
coedge $-1 $585 $445 $304 $442 reversed $575 $-1 #
edge $-1 $586 -63.792057035071458 $443 -57.244178594317454 $441 $587 forward 7 unknown #
vertex $-1 $446 $588 #
straight-curve $-1 -57.244178594317454 0 7.9301910698791334 0 1 0 I I #
coedge $-1 $441 $589 $306 $446 forward $575 $-1 #
edge $-1 $449 -7.9301910698791334 $443 7.9301910698791334 $445 $590 forward 7 unknown #
coedge $-1 $578 $307 $589 $591 forward $433 $-1 #
coedge $-1 $307 $578 $309 $451 forward $433 $-1 #
vertex $-1 $591 $592 #
straight-curve $-1 -57.244178594317454 0 -7.9301910698791334 0 -1 0 I I #
edge $-1 $582 -3.2739392203770024 $311 3.2739392203770024 $309 $593 forward 7 unknown #
point $-1 -57.244178594317454 -28.247137141682746 -7.9301910698791334 #
point $-1 -57.244178594317454 -28.247137141682746 7.9301910698791334 #
loop $-1 $-1 $322 $314 #
plane-surface $-1 0 31.268630211875713 0 0 -1 0 0 0 -1 forward_v I I I I #
coedge $-1 $457 $317 $319 $461 reversed $193 $-1 #
coedge $-1 $317 $456 $594 $595 reversed $193 $-1 #
coedge $-1 $325 $320 $317 $459 forward $315 $-1 #
edge $-1 $462 -13.761098532013619 $596 -9.1747813062771293 $458 $597 forward 7 unknown #
coedge $-1 $319 $318 $465 $598 reversed $121 $-1 #
edge $-1 $599 -62.537260423751462 $462 -55.249530095230249 $456 $600 forward 7 unknown #
vertex $-1 $321 $601 #
straight-curve $-1 -20.455153182810527 26.682312986139223 7.930191069879136 1 0 0 I I #
coedge $-1 $594 $322 $325 $469 reversed $454 $-1 #
coedge $-1 $322 $594 $460 $598 forward $454 $-1 #
vertex $-1 $323 $602 #
straight-curve $-1 -47.152658715829531 31.268630211875713 61.45849862981126 0 0 1 I I #
straight-curve $-1 -47.152658715829531 -8.0873423341089108 50.867140712988316 0 0.62932038083071107 -0.77714596973225614 I I #
edge $-1 $596 34.667954015412576 $326 47.152658715829531 $464 $603 forward 7 unknown #
point $-1 -47.152658715829531 31.268630211875713 7.9301910698791334 #
point $-1 -47.152658715829531 26.682312986139223 7.930191069879136 #
edge $-1 $604 1 $604 0 $329 $-1 forward 7 unknown #
vertex $-1 $330 $605 #
ellipse-curve $-1 -43.585600229996118 27.61956332188084 4.0003830994535079 0 0.77714596973225614 0.62932038083071107 1.5 0 0 1 I I #
point $-1 -42.085600229996118 28.97547159900747 5.0983759432262463 #
edge $-1 $606 1 $606 0 $333 $-1 forward 7 unknown #
vertex $-1 $334 $607 #
ellipse-curve $-1 -38.23501250124599 27.61956332188084 4.0003830994535079 0 0.77714596973225614 0.62932038083071107 1.5 0 0 1 I I #
point $-1 -36.73501250124599 28.97547159900747 5.0983759432262463 #
loop $-1 $-1 $345 $337 #
plane-surface $-1 0 31.268630211875713 0 0 -1 0 0 0 -1 forward_v I I I I #
coedge $-1 $483 $340 $342 $487 reversed $215 $-1 #
coedge $-1 $340 $482 $608 $609 reversed $215 $-1 #
coedge $-1 $348 $343 $340 $485 forward $338 $-1 #
edge $-1 $488 -13.761098532013619 $610 -9.1747813062771293 $484 $611 forward 7 unknown #
coedge $-1 $342 $341 $491 $612 reversed $135 $-1 #
edge $-1 $613 -62.537260423751462 $488 -55.249530095230249 $482 $614 forward 7 unknown #
vertex $-1 $344 $615 #
straight-curve $-1 -5.7270713208111736 26.682312986139223 7.930191069879136 1 0 0 I I #
coedge $-1 $608 $345 $348 $495 reversed $480 $-1 #
coedge $-1 $345 $608 $486 $612 forward $480 $-1 #
vertex $-1 $346 $616 #
straight-curve $-1 -17.696494991830825 31.268630211875713 61.45849862981126 0 0 1 I I #
straight-curve $-1 -17.696494991830825 -8.0873423341089108 50.867140712988316 0 0.62932038083071107 -0.77714596973225614 I I #
edge $-1 $610 5.2117902914138678 $349 17.696494991830825 $490 $617 forward 7 unknown #
point $-1 -17.696494991830825 31.268630211875713 7.9301910698791334 #
point $-1 -17.696494991830825 26.682312986139223 7.930191069879136 #
edge $-1 $618 1 $618 0 $352 $-1 forward 7 unknown #
vertex $-1 $353 $619 #
ellipse-curve $-1 -14.129436505997411 27.61956332188084 4.0003830994535079 0 0.77714596973225614 0.62932038083071107 1.5 0 0 1 I I #
point $-1 -12.629436505997411 28.97547159900747 5.0983759432262463 #
edge $-1 $620 1 $620 0 $356 $-1 forward 7 unknown #
vertex $-1 $357 $621 #
ellipse-curve $-1 -8.7788487772472834 27.61956332188084 4.0003830994535079 0 0.77714596973225614 0.62932038083071107 1.5 0 0 1 I I #
point $-1 -7.2788487772472834 28.97547159900747 5.0983759432262463 #
loop $-1 $-1 $368 $360 #
plane-surface $-1 0 31.268630211875713 0 0 -1 0 0 0 -1 forward_v I I I I #
coedge $-1 $509 $363 $365 $513 reversed $237 $-1 #
coedge $-1 $363 $508 $622 $623 reversed $237 $-1 #
coedge $-1 $371 $366 $363 $511 forward $361 $-1 #
edge $-1 $514 -13.761098532013619 $624 -9.1747813062771293 $510 $625 forward 7 unknown #
coedge $-1 $365 $364 $517 $626 reversed $149 $-1 #
edge $-1 $627 -62.537260423751462 $514 -55.249530095230249 $508 $628 forward 7 unknown #
vertex $-1 $367 $629 #
straight-curve $-1 9.0010105411881831 26.682312986139223 7.930191069879136 1 0 0 I I #
coedge $-1 $622 $368 $371 $521 reversed $506 $-1 #
coedge $-1 $368 $622 $512 $626 forward $506 $-1 #
vertex $-1 $369 $630 #
straight-curve $-1 11.759668732167887 31.268630211875713 61.45849862981126 0 0 1 I I #
straight-curve $-1 11.759668732167887 -8.0873423341089108 50.867140712988316 0 0.62932038083071107 -0.77714596973225614 I I #
edge $-1 $624 -24.244373432584844 $372 -11.759668732167887 $516 $631 forward 7 unknown #
point $-1 11.759668732167887 31.268630211875713 7.9301910698791334 #
point $-1 11.759668732167887 26.682312986139223 7.930191069879136 #
edge $-1 $632 1 $632 0 $375 $-1 forward 7 unknown #
vertex $-1 $376 $633 #
ellipse-curve $-1 15.326727218001302 27.61956332188084 4.0003830994535079 0 0.77714596973225614 0.62932038083071107 1.5 0 0 1 I I #
point $-1 16.826727218001302 28.97547159900747 5.0983759432262463 #
edge $-1 $634 1 $634 0 $379 $-1 forward 7 unknown #
vertex $-1 $380 $635 #
ellipse-curve $-1 20.67731494675143 27.61956332188084 4.0003830994535079 0 0.77714596973225614 0.62932038083071107 1.5 0 0 1 I I #
point $-1 22.17731494675143 28.97547159900747 5.0983759432262463 #
loop $-1 $-1 $391 $383 #
plane-surface $-1 0 31.268630211875713 0 0 -1 0 0 0 -1 forward_v I I I I #
coedge $-1 $535 $386 $388 $539 reversed $259 $-1 #
coedge $-1 $386 $534 $636 $637 reversed $259 $-1 #
coedge $-1 $394 $389 $386 $537 forward $384 $-1 #
edge $-1 $540 -13.761098532013619 $638 -9.1747813062771293 $536 $639 forward 7 unknown #
coedge $-1 $388 $387 $543 $640 reversed $163 $-1 #
edge $-1 $641 -62.537260423751462 $540 -55.249530095230249 $534 $642 forward 7 unknown #
vertex $-1 $390 $643 #
straight-curve $-1 23.72909240318754 26.682312986139223 7.930191069879136 1 0 0 I I #
coedge $-1 $636 $391 $394 $547 reversed $532 $-1 #
coedge $-1 $391 $636 $538 $640 forward $532 $-1 #
vertex $-1 $392 $644 #
straight-curve $-1 41.215832456166602 31.268630211875713 61.45849862981126 0 0 1 I I #
straight-curve $-1 41.215832456166602 -8.0873423341089108 50.867140712988316 0 0.62932038083071107 -0.77714596973225614 I I #
edge $-1 $638 -53.700537156583557 $395 -41.215832456166602 $542 $645 forward 7 unknown #
point $-1 41.215832456166602 31.268630211875713 7.9301910698791334 #
point $-1 41.215832456166602 26.682312986139223 7.930191069879136 #
edge $-1 $646 1 $646 0 $398 $-1 forward 7 unknown #
vertex $-1 $399 $647 #
ellipse-curve $-1 44.782890942000016 27.61956332188084 4.0003830994535079 0 0.77714596973225614 0.62932038083071107 1.5 0 0 1 I I #
point $-1 46.282890942000016 28.97547159900747 5.0983759432262463 #
edge $-1 $648 1 $648 0 $402 $-1 forward 7 unknown #
vertex $-1 $403 $649 #
ellipse-curve $-1 50.133478670750144 27.61956332188084 4.0003830994535079 0 0.77714596973225614 0.62932038083071107 1.5 0 0 1 I I #
point $-1 51.633478670750144 28.97547159900747 5.0983759432262463 #
plane-surface $-1 57.244178594317454 0 0 -1 0 0 0 0 1 forward_v I I I I #
coedge $-1 $560 $409 $422 $570 forward $281 $-1 #
coedge $-1 $411 $559 $413 $563 reversed $281 $-1 #
vertex $-1 $563 $650 #
straight-curve $-1 -57.244178594317454 -31.268630211875713 0 0 0 -1 I I #
edge $-1 $561 -31.268630211875713 $565 31.268630211875713 $560 $651 forward 7 unknown #
straight-curve $-1 0 -31.268630211875713 -7.9301910698791334 -1 0 0 I I #
vertex $-1 $416 $652 #
straight-curve $-1 0 31.268630211875713 -7.9301910698791334 1 0 0 I I #
point $-1 57.244178594317454 31.268630211875713 -7.9301910698791334 #
point $-1 57.244178594317454 -31.268630211875713 -7.9301910698791334 #
straight-curve $-1 -57.244178594317454 0 7.9301910698791334 0 -1 0 I I #
edge $-1 $423 -7.9301910698791334 $565 7.9301910698791334 $422 $653 forward 7 unknown #
point $-1 -57.244178594317454 31.268630211875713 7.9301910698791334 #
point $-1 -57.244178594317454 -31.268630211875713 7.9301910698791334 #
straight-curve $-1 57.244178594317454 -31.268630211875713 0 0 0 -1 I I #
straight-curve $-1 57.244178594317454 31.268630211875713 0 0 0 -1 I I #
loop $-1 $-1 $445 $432 #
plane-surface $-1 0 -31.268630211875713 0 0 1 0 0 0 1 forward_v I I I I #
coedge $-1 $436 $435 $585 $654 reversed $185 $-1 #
coedge $-1 $448 $447 $435 $579 forward $433 $-1 #
edge $-1 $655 -1.5107465350964837 $582 1.5107465350964837 $435 $656 forward 7 unknown #
edge $-1 $581 -1.5107465350964837 $586 1.5107465350964837 $436 $657 forward 7 unknown #
vertex $-1 $440 $658 #
vertex $-1 $451 $659 #
straight-curve $-1 -63.792057035071458 -28.247137141682746 0 0 0 -1 I I #
straight-curve $-1 -60.518117814694456 -28.247137141682746 7.9301910698791334 -1 0 0 I I #
coedge $-1 $589 $441 $577 $654 forward $575 $-1 #
vertex $-1 $580 $660 #
straight-curve $-1 0 -31.268630211875713 7.9301910698791334 1 0 0 I I #
point $-1 -57.244178594317454 -31.268630211875713 7.9301910698791334 #
coedge $-1 $445 $585 $447 $591 reversed $575 $-1 #
straight-curve $-1 -57.244178594317454 -31.268630211875713 0 0 0 1 I I #
edge $-1 $449 -3.2739392203770024 $655 3.2739392203770024 $589 $661 forward 7 unknown #
point $-1 -57.244178594317454 -31.268630211875713 -7.9301910698791334 #
straight-curve $-1 -60.518117814694456 -28.247137141682746 -7.9301910698791334 1 0 0 I I #
coedge $-1 $465 $464 $457 $595 forward $454 $-1 #
edge $-1 $596 53.528307559932124 $599 59.191937813237914 $594 $662 forward 7 unknown #
vertex $-1 $469 $663 #
straight-curve $-1 -34.667954015412576 40.443411518152843 7.930191069879136 0 1 0 I I #
edge $-1 $599 14.212800832602049 $466 26.697505533019005 $465 $664 forward 7 unknown #
vertex $-1 $598 $665 #
straight-curve $-1 -34.667954015412576 -8.0873423341089108 50.867140712988316 0 -0.62932038083071107 0.77714596973225614 I I #
point $-1 -34.667954015412576 26.682312986139223 7.930191069879136 #
point $-1 -47.152658715829531 31.268630211875717 2.266560816573346 #
straight-curve $-1 0 31.268630211875713 7.9301910698791334 -1 0 0 I I #
vertex $-1 $472 $666 #
point $-1 -42.085600229996118 27.61956332188084 4.0003830994535079 #
vertex $-1 $476 $667 #
point $-1 -36.73501250124599 27.61956332188084 4.0003830994535079 #
coedge $-1 $491 $490 $483 $609 forward $480 $-1 #
edge $-1 $610 53.528307559932124 $613 59.191937813237914 $608 $668 forward 7 unknown #
vertex $-1 $495 $669 #
straight-curve $-1 -5.2117902914138678 40.443411518152843 7.930191069879136 0 1 0 I I #
edge $-1 $613 -0.5152810293973058 $492 11.969423671019651 $491 $670 forward 7 unknown #
vertex $-1 $612 $671 #
straight-curve $-1 -5.2117902914138678 -8.0873423341089108 50.867140712988316 0 -0.62932038083071107 0.77714596973225614 I I #
point $-1 -5.2117902914138678 26.682312986139223 7.930191069879136 #
point $-1 -17.696494991830825 31.268630211875717 2.266560816573346 #
straight-curve $-1 0 31.268630211875713 7.9301910698791334 -1 0 0 I I #
vertex $-1 $498 $672 #
point $-1 -12.629436505997411 27.61956332188084 4.0003830994535079 #
vertex $-1 $502 $673 #
point $-1 -7.2788487772472834 27.61956332188084 4.0003830994535079 #
coedge $-1 $517 $516 $509 $623 forward $506 $-1 #
edge $-1 $624 53.528307559932124 $627 59.191937813237914 $622 $674 forward 7 unknown #
vertex $-1 $521 $675 #
straight-curve $-1 24.244373432584844 40.443411518152843 7.930191069879136 0 1 0 I I #
edge $-1 $627 -15.243362891396661 $518 -2.7586581909797037 $517 $676 forward 7 unknown #
vertex $-1 $626 $677 #
straight-curve $-1 24.244373432584844 -8.0873423341089108 50.867140712988316 0 -0.62932038083071107 0.77714596973225614 I I #
point $-1 24.244373432584844 26.682312986139223 7.930191069879136 #
point $-1 11.759668732167887 31.268630211875717 2.266560816573346 #
straight-curve $-1 0 31.268630211875713 7.9301910698791334 -1 0 0 I I #
vertex $-1 $524 $678 #
point $-1 16.826727218001302 27.61956332188084 4.0003830994535079 #
vertex $-1 $528 $679 #
point $-1 22.17731494675143 27.61956332188084 4.0003830994535079 #
coedge $-1 $543 $542 $535 $637 forward $532 $-1 #
edge $-1 $638 53.528307559932124 $641 59.191937813237914 $636 $680 forward 7 unknown #
vertex $-1 $547 $681 #
straight-curve $-1 53.700537156583557 40.443411518152843 7.930191069879136 0 1 0 I I #
edge $-1 $641 -29.971444753396018 $544 -17.486740052979062 $543 $682 forward 7 unknown #
vertex $-1 $640 $683 #
straight-curve $-1 53.700537156583557 -8.0873423341089108 50.867140712988316 0 -0.62932038083071107 0.77714596973225614 I I #
point $-1 53.700537156583557 26.682312986139223 7.930191069879136 #
point $-1 41.215832456166602 31.268630211875717 2.266560816573346 #
straight-curve $-1 0 31.268630211875713 7.9301910698791334 -1 0 0 I I #
vertex $-1 $550 $684 #
point $-1 46.282890942000016 27.61956332188084 4.0003830994535079 #
vertex $-1 $554 $685 #
point $-1 51.633478670750144 27.61956332188084 4.0003830994535079 #
point $-1 -57.244178594317454 -31.268630211875713 -7.9301910698791334 #
straight-curve $-1 -57.244178594317454 0 -7.9301910698791334 0 1 0 I I #
point $-1 -57.244178594317454 31.268630211875713 -7.9301910698791334 #
straight-curve $-1 -57.244178594317454 31.268630211875713 0 0 0 -1 I I #
edge $-1 $586 -7.9301910698791334 $655 7.9301910698791334 $577 $686 forward 7 unknown #
vertex $-1 $579 $687 #
straight-curve $-1 -63.792057035071458 -29.75788367677923 -7.9301910698791334 0 1 0 I I #
straight-curve $-1 -63.792057035071458 -29.75788367677923 7.9301910698791334 0 -1 0 I I #
point $-1 -63.792057035071458 -28.247137141682746 7.9301910698791334 #
point $-1 -63.792057035071458 -28.247137141682746 -7.9301910698791334 #
point $-1 -63.792057035071458 -31.268630211875713 7.9301910698791334 #
straight-curve $-1 -60.518117814694456 -31.268630211875713 -7.9301910698791334 -1 0 0 I I #
straight-curve $-1 -34.667954015412576 31.268630211875713 61.45849862981126 0 0 -1 I I #
point $-1 -34.667954015412576 31.268630211875713 7.9301910698791334 #
straight-curve $-1 -20.455153182810527 31.26863021187571 2.2665608165733389 -1 0 0 I I #
point $-1 -34.667954015412576 31.268630211875717 2.266560816573346 #
point $-1 -43.585600229996118 26.453844367282457 3.0564025282074412 #
point $-1 -38.23501250124599 26.453844367282457 3.0564025282074412 #
straight-curve $-1 -5.2117902914138678 31.268630211875713 61.45849862981126 0 0 -1 I I #
point $-1 -5.2117902914138678 31.268630211875713 7.9301910698791334 #
straight-curve $-1 -5.7270713208111736 31.26863021187571 2.2665608165733389 -1 0 0 I I #
point $-1 -5.2117902914138678 31.268630211875717 2.266560816573346 #
point $-1 -14.129436505997411 26.453844367282457 3.0564025282074412 #
point $-1 -8.7788487772472834 26.453844367282457 3.0564025282074412 #
straight-curve $-1 24.244373432584844 31.268630211875713 61.45849862981126 0 0 -1 I I #
point $-1 24.244373432584844 31.268630211875713 7.9301910698791334 #
straight-curve $-1 9.0010105411881831 31.26863021187571 2.2665608165733389 -1 0 0 I I #
point $-1 24.244373432584844 31.268630211875717 2.266560816573346 #
point $-1 15.326727218001302 26.453844367282457 3.0564025282074412 #
point $-1 20.67731494675143 26.453844367282457 3.0564025282074412 #
straight-curve $-1 53.700537156583557 31.268630211875713 61.45849862981126 0 0 -1 I I #
point $-1 53.700537156583557 31.268630211875713 7.9301910698791334 #
straight-curve $-1 23.72909240318754 31.26863021187571 2.2665608165733389 -1 0 0 I I #
point $-1 53.700537156583557 31.268630211875717 2.266560816573346 #
point $-1 44.782890942000016 26.453844367282457 3.0564025282074412 #
point $-1 50.133478670750144 26.453844367282457 3.0564025282074412 #
straight-curve $-1 -63.792057035071458 -31.268630211875713 0 0 0 -1 I I #
point $-1 -63.792057035071458 -31.268630211875713 -7.9301910698791334 #
End-of-ACIS-data 