500 0 11 0           
7 Unknown 11 ACIS 5.0 NT 24 Thu Mar 25 15:17:50 1999 
-1 9.9999999999999995e-007 1e-010 
body $-1 $11 $-1 $12 #
body $-1 $13 $-1 $14 #
body $-1 $15 $-1 $16 #
body $-1 $17 $-1 $18 #
body $-1 $19 $-1 $20 #
body $-1 $21 $-1 $22 #
body $-1 $23 $-1 $24 #
body $-1 $25 $-1 $26 #
body $-1 $27 $-1 $28 #
body $-1 $29 $-1 $30 #
body $-1 $31 $-1 $32 #
lump $-1 $-1 $33 $0 #
transform $-1 1 0 0 0 1 0 0 0 1 56.51539658803064 24.387151662245568 7.0664464300166863 1 rotate no_reflect no_shear #
lump $-1 $-1 $34 $1 #
transform $-1 1 0 0 0 1 0 0 0 1 56.51539658803064 24.387151662245568 7.0664464300166863 1 rotate no_reflect no_shear #
lump $-1 $-1 $35 $2 #
transform $-1 1 0 0 0 1 0 0 0 1 56.51539658803064 24.387151662245568 7.0664464300166863 1 rotate no_reflect no_shear #
lump $-1 $-1 $36 $3 #
transform $-1 1 0 0 0 1 0 0 0 1 56.51539658803064 24.387151662245568 7.0664464300166863 1 rotate no_reflect no_shear #
lump $-1 $-1 $37 $4 #
transform $-1 1 0 0 0 1 0 0 0 1 56.51539658803064 24.387151662245568 7.0664464300166863 1 rotate no_reflect no_shear #
lump $-1 $-1 $38 $5 #
transform $-1 1 0 0 0 1 0 0 0 1 56.51539658803064 24.387151662245568 7.0664464300166863 1 rotate no_reflect no_shear #
lump $-1 $-1 $39 $6 #
transform $-1 1 0 0 0 1 0 0 0 1 56.51539658803064 24.387151662245568 7.0664464300166863 1 rotate no_reflect no_shear #
lump $-1 $-1 $40 $7 #
transform $-1 1 0 0 0 1 0 0 0 1 56.51539658803064 24.387151662245568 7.0664464300166863 1 rotate no_reflect no_shear #
lump $-1 $-1 $41 $8 #
transform $-1 1 0 0 0 1 0 0 0 1 56.51539658803064 24.387151662245568 7.0664464300166863 1 rotate no_reflect no_shear #
lump $-1 $-1 $42 $9 #
transform $-1 1 0 0 0 1 0 0 0 1 56.51539658803064 24.387151662245568 7.0664464300166863 1 rotate no_reflect no_shear #
lump $-1 $-1 $43 $10 #
transform $-1 1 0 0 0 1 0 0 0 1 56.51539658803064 24.387151662245568 7.0664464300166863 1 rotate no_reflect no_shear #
shell $-1 $-1 $-1 $44 $-1 $11 #
shell $-1 $-1 $-1 $45 $-1 $13 #
shell $-1 $-1 $-1 $46 $-1 $15 #
shell $-1 $-1 $-1 $47 $-1 $17 #
shell $-1 $-1 $-1 $48 $-1 $19 #
shell $-1 $-1 $-1 $49 $-1 $21 #
shell $-1 $-1 $-1 $50 $-1 $23 #
shell $-1 $-1 $-1 $51 $-1 $25 #
shell $-1 $-1 $-1 $52 $-1 $27 #
shell $-1 $-1 $-1 $53 $-1 $29 #
shell $-1 $-1 $-1 $54 $-1 $31 #
face $-1 $55 $56 $33 $-1 $57 forward single #
face $-1 $58 $59 $34 $-1 $60 forward single #
face $-1 $61 $62 $35 $-1 $63 forward single #
face $-1 $64 $65 $36 $-1 $66 reversed single #
face $-1 $67 $68 $37 $-1 $69 forward single #
face $-1 $70 $71 $38 $-1 $72 forward single #
face $-1 $73 $74 $39 $-1 $75 forward single #
face $-1 $76 $77 $40 $-1 $78 reversed single #
face $-1 $79 $80 $41 $-1 $81 forward single #
face $-1 $82 $83 $42 $-1 $84 forward single #
face $-1 $85 $86 $43 $-1 $87 forward single #
face $-1 $88 $89 $33 $-1 $90 reversed single #
loop $-1 $-1 $91 $44 #
plane-surface $-1 0 0 7.0664464300166863 0 0 1 1 0 0 forward_v I I I I #
face $-1 $92 $93 $34 $-1 $94 reversed single #
loop $-1 $-1 $95 $45 #
plane-surface $-1 0 -22.027540398318479 -3.4489658640086329 0 0 1 1 0 0 forward_v I I I I #
face $-1 $96 $97 $35 $-1 $98 reversed single #
loop $-1 $-1 $99 $46 #
plane-surface $-1 0 19.886340491883008 0.88087930657345836 0 0 1 1 0 0 forward_v I I I I #
face $-1 $100 $101 $36 $-1 $102 reversed single #
loop $-1 $-1 $103 $47 #
plane-surface $-1 39.80655671177891 6.4701650216037407 159.14985993680062 0 1 0 0.62932039886446345 0 0.77714595512881146 forward_v I I I I #
face $-1 $104 $105 $37 $-1 $106 forward single #
loop $-1 $107 $108 $48 #
cone-surface $-1 51.863645136759061 8.2532378815870864 3.1306926752295725 -0.62932039886446345 0 -0.77714595512881146 0.38857297756440573 0 -0.31466019943223172 1 I I 0 1 0.5 forward I I I I #
face $-1 $109 $110 $38 $-1 $111 forward single #
loop $-1 $112 $113 $49 #
cone-surface $-1 51.863645136759061 10.927847171562103 3.1306926752295725 -0.62932039886446345 0 -0.77714595512881146 0.38857297756440573 0 -0.31466019943223172 1 I I 0 1 0.5 forward I I I I #
face $-1 $114 $115 $39 $-1 $116 forward single #
loop $-1 $117 $118 $50 #
cone-surface $-1 51.863645136759061 13.60245646153712 3.1306926752295725 -0.62932039886446345 0 -0.77714595512881146 0.38857297756440573 0 -0.31466019943223172 1 I I 0 1 0.5 forward I I I I #
face $-1 $119 $120 $40 $-1 $121 reversed single #
loop $-1 $-1 $122 $51 #
plane-surface $-1 -150.22217189929813 -7.9565735586415514 65.472116464878169 0 -1 0 0.82903758062907751 0 -0.55919289150049634 forward_v I I I I #
face $-1 $123 $124 $41 $-1 $125 forward single #
loop $-1 $126 $127 $52 #
cone-surface $-1 -54.481940707674568 -14.370202132528229 4.3866769693390424 0.82903758062907751 0 -0.55919289150049634 0.27959644575024817 0 0.41451879031453875 1 I I 0 1 0.5 forward I I I I #
face $-1 $128 $129 $42 $-1 $130 forward single #
loop $-1 $131 $132 $53 #
cone-surface $-1 -54.481940707674568 -11.965091417320725 4.3866769693390424 0.82903758062907751 0 -0.55919289150049634 0.27959644575024817 0 0.41451879031453875 1 I I 0 1 0.5 forward I I I I #
face $-1 $133 $134 $43 $-1 $135 forward single #
loop $-1 $136 $137 $54 #
cone-surface $-1 -54.481940707674568 -9.5599807021132204 4.3866769693390424 0.82903758062907751 0 -0.55919289150049634 0.27959644575024817 0 0.41451879031453875 1 I I 0 1 0.5 forward I I I I #
face $-1 $138 $139 $33 $-1 $140 reversed single #
loop $-1 $-1 $141 $55 #
plane-surface $-1 0 0 -7.0664464300166863 0 0 1 1 0 0 forward_v I I I I #
coedge $-1 $142 $143 $144 $145 forward $56 $-1 #
face $-1 $146 $147 $34 $-1 $148 reversed single #
loop $-1 $-1 $149 $58 #
plane-surface $-1 0 -19.66792913439139 -5.2577061470126596 0 -1 0 0 0 -1 forward_v I I I I #
coedge $-1 $150 $151 $152 $153 reversed $59 $-1 #
face $-1 $154 $155 $35 $-1 $156 reversed single #
loop $-1 $-1 $157 $61 #
plane-surface $-1 0 19.886340491883008 -2.5081769282882078 0 0 1 1 0 0 forward_v I I I I #
coedge $-1 $158 $159 $160 $161 reversed $62 $-1 #
face $-1 $162 $163 $36 $-1 $164 reversed single #
loop $-1 $-1 $165 $64 #
plane-surface $-1 -31.326027133746649 10.927847171562096 71.308436215023335 0.62932039886446345 0 0.77714595512881146 0.77714595512881146 0 -0.62932039886446345 forward_v I I I I #
coedge $-1 $166 $167 $168 $169 reversed $65 $-1 #
face $-1 $-1 $170 $37 $-1 $171 forward single #
loop $-1 $172 $173 $67 #
cone-surface $-1 51.309151004381491 8.2532378815870864 2.4459494619197208 -0.62932039886446345 0 -0.77714595512881146 0.19428648878220287 0 -0.15733009971611586 1 I I -0.70710678118654746 0.70710678118654746 0.25 forward I I I I #
loop $-1 $-1 $174 $48 #
coedge $-1 $108 $108 $175 $176 reversed $68 $-1 #
face $-1 $-1 $177 $38 $-1 $178 forward single #
loop $-1 $179 $180 $70 #
cone-surface $-1 51.309151004381491 10.927847171562103 2.4459494619197208 -0.62932039886446345 0 -0.77714595512881146 0.19428648878220287 0 -0.15733009971611586 1 I I -0.70710678118654746 0.70710678118654746 0.25 forward I I I I #
loop $-1 $-1 $181 $49 #
coedge $-1 $113 $113 $182 $183 reversed $71 $-1 #
face $-1 $-1 $184 $39 $-1 $185 forward single #
loop $-1 $186 $187 $73 #
cone-surface $-1 51.309151004381491 13.60245646153712 2.4459494619197208 -0.62932039886446345 0 -0.77714595512881146 0.19428648878220287 0 -0.15733009971611586 1 I I -0.70710678118654746 0.70710678118654746 0.25 forward I I I I #
loop $-1 $-1 $188 $50 #
coedge $-1 $118 $118 $189 $190 reversed $74 $-1 #
face $-1 $191 $192 $40 $-1 $193 reversed single #
loop $-1 $-1 $194 $76 #
plane-surface $-1 -56.51539658803064 -11.965091417320725 2.2661004001618892 -0.82903758062907751 0 0.55919289150049634 0.55919289150049634 0 0.82903758062907751 forward_v I I I I #
coedge $-1 $195 $196 $197 $198 reversed $77 $-1 #
face $-1 $-1 $199 $41 $-1 $200 forward single #
loop $-1 $201 $202 $79 #
cone-surface $-1 -53.860162522202756 -14.370202132528229 3.9672823007136699 0.82903758062907751 0 -0.55919289150049634 0.13979822287512408 0 0.20725939515726938 1 I I -0.70710678118654746 0.70710678118654746 0.25 forward I I I I #
loop $-1 $-1 $203 $52 #
coedge $-1 $127 $127 $204 $205 reversed $80 $-1 #
face $-1 $-1 $206 $42 $-1 $207 forward single #
loop $-1 $208 $209 $82 #
cone-surface $-1 -53.860162522202756 -11.965091417320725 3.9672823007136699 0.82903758062907751 0 -0.55919289150049634 0.13979822287512408 0 0.20725939515726938 1 I I -0.70710678118654746 0.70710678118654746 0.25 forward I I I I #
loop $-1 $-1 $210 $53 #
coedge $-1 $132 $132 $211 $212 reversed $83 $-1 #
face $-1 $-1 $213 $43 $-1 $214 forward single #
loop $-1 $215 $216 $85 #
cone-surface $-1 -53.860162522202756 -9.5599807021132204 3.9672823007136699 0.82903758062907751 0 -0.55919289150049634 0.13979822287512408 0 0.20725939515726938 1 I I -0.70710678118654746 0.70710678118654746 0.25 forward I I I I #
loop $-1 $-1 $217 $54 #
coedge $-1 $137 $137 $218 $219 reversed $86 $-1 #
face $-1 $220 $221 $33 $-1 $222 reversed single #
loop $-1 $-1 $223 $88 #
plane-surface $-1 0 -24.387151662245568 0 0 1 0 0 0 1 forward_v I I I I #
coedge $-1 $224 $225 $226 $227 forward $89 $-1 #
coedge $-1 $228 $91 $229 $230 forward $56 $-1 #
coedge $-1 $91 $228 $231 $232 forward $56 $-1 #
coedge $-1 $233 $234 $91 $145 reversed $235 $-1 #
edge $-1 $236 -24.387151662245568 $237 24.387151662245568 $144 $238 forward 7 unknown #
face $-1 $239 $240 $34 $-1 $241 reversed single #
loop $-1 $-1 $242 $92 #
plane-surface $-1 0 0 -7.0664464300166863 0 0 1 1 0 0 forward_v I I I I #
coedge $-1 $243 $244 $245 $246 reversed $93 $-1 #
coedge $-1 $247 $95 $244 $248 forward $59 $-1 #
coedge $-1 $95 $247 $249 $250 reversed $59 $-1 #
coedge $-1 $251 $245 $95 $153 forward $240 $-1 #
edge $-1 $252 8.6541589352321502 $253 13.373381463086329 $152 $254 forward 7 unknown #
face $-1 $255 $256 $35 $-1 $257 reversed single #
loop $-1 $-1 $258 $96 #
plane-surface $-1 0 15.385529321520451 -0.81364881085737473 0 1 0 0 0 1 forward_v I I I I #
coedge $-1 $259 $260 $261 $262 reversed $97 $-1 #
coedge $-1 $263 $99 $264 $265 reversed $62 $-1 #
coedge $-1 $99 $263 $258 $266 forward $62 $-1 #
coedge $-1 $267 $268 $99 $161 forward $256 $-1 #
edge $-1 $269 -14.443981416304061 $270 -5.4423590755789473 $160 $271 forward 7 unknown #
face $-1 $272 $273 $36 $-1 $274 forward single #
loop $-1 $-1 $275 $100 #
plane-surface $-1 56.51539658803064 0 0 -1 0 0 0 0 1 forward_v I I I I #
coedge $-1 $276 $277 $278 $279 reversed $101 $-1 #
coedge $-1 $167 $103 $280 $281 reversed $65 $-1 #
coedge $-1 $103 $166 $276 $282 reversed $65 $-1 #
coedge $-1 $278 $283 $103 $169 forward $163 $-1 #
edge $-1 $284 72.508483538383629 $285 79.399077598902537 $168 $286 forward 7 unknown #
loop $-1 $-1 $175 $104 #
plane-surface $-1 -31.326027133746649 10.927847171562096 71.308436215023335 0.62932039886446345 0 0.77714595512881146 0.77714595512881146 0 -0.62932039886446345 forward_v I I I I #
loop $-1 $-1 $287 $67 #
coedge $-1 $173 $173 $174 $288 reversed $105 $-1 #
coedge $-1 $174 $174 $173 $288 forward $107 $-1 #
coedge $-1 $175 $175 $108 $176 forward $170 $-1 #
edge $-1 $289 0 $289 6.2831853071796004 $175 $290 forward 7 unknown #
loop $-1 $-1 $182 $109 #
plane-surface $-1 -31.326027133746649 10.927847171562096 71.308436215023335 0.62932039886446345 0 0.77714595512881146 0.77714595512881146 0 -0.62932039886446345 forward_v I I I I #
loop $-1 $-1 $291 $70 #
coedge $-1 $180 $180 $181 $292 reversed $110 $-1 #
coedge $-1 $181 $181 $180 $292 forward $112 $-1 #
coedge $-1 $182 $182 $113 $183 forward $177 $-1 #
edge $-1 $293 0 $293 6.2831853071796004 $182 $294 forward 7 unknown #
loop $-1 $-1 $189 $114 #
plane-surface $-1 -31.326027133746649 10.927847171562096 71.308436215023335 0.62932039886446345 0 0.77714595512881146 0.77714595512881146 0 -0.62932039886446345 forward_v I I I I #
loop $-1 $-1 $295 $73 #
coedge $-1 $187 $187 $188 $296 reversed $115 $-1 #
coedge $-1 $188 $188 $187 $296 forward $117 $-1 #
coedge $-1 $189 $189 $118 $190 forward $184 $-1 #
edge $-1 $297 0 $297 6.2831853071796004 $189 $298 forward 7 unknown #
face $-1 $299 $300 $40 $-1 $301 reversed single #
loop $-1 $-1 $302 $119 #
plane-surface $-1 -150.22217189929813 -15.973609275999898 65.472116464878169 0 1 0 -0.82903758062907751 0 0.55919289150049634 forward_v I I I I #
coedge $-1 $303 $304 $305 $306 reversed $120 $-1 #
coedge $-1 $196 $122 $307 $308 reversed $77 $-1 #
coedge $-1 $122 $195 $303 $309 reversed $77 $-1 #
coedge $-1 $305 $310 $122 $198 forward $300 $-1 #
edge $-1 $311 25.669611802422398 $312 30.469957832277196 $197 $313 forward 7 unknown #
loop $-1 $-1 $204 $123 #
plane-surface $-1 -56.51539658803064 -11.965091417320725 2.2661004001618892 -0.82903758062907751 0 0.55919289150049634 0.55919289150049634 0 0.82903758062907751 forward_v I I I I #
loop $-1 $-1 $314 $79 #
coedge $-1 $202 $202 $203 $315 reversed $124 $-1 #
coedge $-1 $203 $203 $202 $315 forward $126 $-1 #
coedge $-1 $204 $204 $127 $205 forward $199 $-1 #
edge $-1 $316 0 $316 6.2831853071796004 $204 $317 forward 7 unknown #
loop $-1 $-1 $211 $128 #
plane-surface $-1 -56.51539658803064 -11.965091417320725 2.2661004001618892 -0.82903758062907751 0 0.55919289150049634 0.55919289150049634 0 0.82903758062907751 forward_v I I I I #
loop $-1 $-1 $318 $82 #
coedge $-1 $209 $209 $210 $319 reversed $129 $-1 #
coedge $-1 $210 $210 $209 $319 forward $131 $-1 #
coedge $-1 $211 $211 $132 $212 forward $206 $-1 #
edge $-1 $320 0 $320 6.2831853071796004 $211 $321 forward 7 unknown #
loop $-1 $-1 $218 $133 #
plane-surface $-1 -56.51539658803064 -11.965091417320725 2.2661004001618892 -0.82903758062907751 0 0.55919289150049634 0.55919289150049634 0 0.82903758062907751 forward_v I I I I #
loop $-1 $-1 $322 $85 #
coedge $-1 $216 $216 $217 $323 reversed $134 $-1 #
coedge $-1 $217 $217 $216 $323 forward $136 $-1 #
coedge $-1 $218 $218 $137 $219 forward $213 $-1 #
edge $-1 $324 0 $324 6.2831853071796004 $218 $325 forward 7 unknown #
face $-1 $326 $327 $33 $-1 $328 reversed single #
loop $-1 $-1 $329 $138 #
plane-surface $-1 -56.51539658803064 0 0 1 0 0 0 0 -1 forward_v I I I I #
coedge $-1 $330 $231 $331 $332 forward $139 $-1 #
coedge $-1 $333 $141 $330 $334 forward $89 $-1 #
coedge $-1 $141 $333 $335 $336 forward $89 $-1 #
coedge $-1 $234 $233 $141 $227 reversed $235 $-1 #
edge $-1 $337 -24.387151662245568 $338 24.387151662245568 $226 $339 forward 7 unknown #
coedge $-1 $143 $142 $340 $341 forward $56 $-1 #
coedge $-1 $342 $343 $142 $230 reversed $327 $-1 #
edge $-1 $237 -56.51539658803064 $344 56.51539658803064 $229 $345 forward 7 unknown #
coedge $-1 $223 $346 $143 $232 reversed $139 $-1 #
edge $-1 $347 -56.51539658803064 $236 56.51539658803064 $231 $348 forward 7 unknown #
coedge $-1 $226 $144 $346 $349 forward $235 $-1 #
coedge $-1 $144 $226 $342 $350 reversed $235 $-1 #
loop $-1 $-1 $233 $326 #
vertex $-1 $145 $351 #
vertex $-1 $145 $352 #
straight-curve $-1 56.51539658803064 0 7.0664464300166863 0 1 0 I I #
face $-1 $353 $354 $34 $-1 $355 reversed single #
loop $-1 $-1 $245 $146 #
plane-surface $-1 56.51539658803064 0 0 -1 0 0 0 0 1 forward_v I I I I #
coedge $-1 $356 $357 $243 $358 forward $147 $-1 #
coedge $-1 $359 $149 $242 $358 reversed $93 $-1 #
coedge $-1 $149 $359 $150 $248 reversed $93 $-1 #
coedge $-1 $152 $360 $149 $246 forward $240 $-1 #
edge $-1 $361 -4.4375933565103569 $252 -0.82011279050230312 $245 $362 forward 7 unknown #
coedge $-1 $151 $150 $363 $364 reversed $59 $-1 #
edge $-1 $252 -56.51539658803064 $365 56.51539658803064 $244 $366 forward 7 unknown #
coedge $-1 $367 $368 $151 $250 forward $354 $-1 #
edge $-1 $253 -56.51539658803064 $369 56.51539658803064 $249 $370 forward 7 unknown #
coedge $-1 $360 $152 $368 $371 forward $240 $-1 #
vertex $-1 $153 $372 #
vertex $-1 $371 $373 #
straight-curve $-1 56.51539658803064 -11.013770199159239 -3.4489658640086329 0 -1 0 I I #
face $-1 $374 $375 $35 $-1 $376 reversed single #
loop $-1 $-1 $160 $154 #
plane-surface $-1 56.51539658803064 0 0 -1 0 0 0 0 1 forward_v I I I I #
coedge $-1 $377 $378 $159 $266 reversed $155 $-1 #
coedge $-1 $379 $157 $380 $381 forward $97 $-1 #
coedge $-1 $157 $379 $382 $383 reversed $97 $-1 #
coedge $-1 $268 $267 $157 $262 forward $256 $-1 #
edge $-1 $384 5.4423590755789473 $385 14.443981416304061 $261 $386 forward 7 unknown #
coedge $-1 $159 $158 $387 $388 reversed $62 $-1 #
coedge $-1 $389 $390 $158 $265 forward $391 $-1 #
edge $-1 $392 -56.51539658803064 $269 56.51539658803064 $264 $393 forward 7 unknown #
edge $-1 $394 -56.51539658803064 $270 56.51539658803064 $258 $395 forward 7 unknown #
coedge $-1 $261 $160 $378 $396 forward $256 $-1 #
coedge $-1 $160 $261 $389 $397 reversed $256 $-1 #
vertex $-1 $397 $398 #
vertex $-1 $161 $399 #
straight-curve $-1 56.51539658803064 9.9431702459415039 0.88087930657345836 0 -1 0 I I #
face $-1 $-1 $400 $36 $-1 $401 forward single #
loop $-1 $-1 $402 $162 #
plane-surface $-1 0 0 7.0664464300166863 0 0 1 1 0 0 forward_v I I I I #
coedge $-1 $283 $278 $403 $404 forward $163 $-1 #
coedge $-1 $405 $165 $167 $282 forward $101 $-1 #
coedge $-1 $165 $405 $406 $407 forward $101 $-1 #
coedge $-1 $275 $168 $165 $279 forward $163 $-1 #
edge $-1 $285 1.0062414358226928 $408 9.9216057357394032 $278 $409 forward 7 unknown #
coedge $-1 $410 $411 $166 $281 forward $273 $-1 #
edge $-1 $412 28.10294339492097 $284 36.612118232141185 $280 $413 forward 7 unknown #
edge $-1 $285 -113.03079317606128 $412 -102.08153096725286 $167 $414 forward 7 unknown #
coedge $-1 $168 $275 $410 $415 reversed $163 $-1 #
vertex $-1 $415 $416 #
vertex $-1 $169 $417 #
straight-curve $-1 56.51539658803064 6.4701650216037407 79.574929968400312 0 0 -1 I I #
coedge $-1 $287 $287 $-1 $418 reversed $172 $-1 #
edge $-1 $419 0 $419 6.2831853071796004 $173 $420 forward 7 unknown #
vertex $-1 $176 $421 #
ellipse-curve $-1 52.260809169420526 8.2532378815870864 3.6211493997572353 0.62932039886446345 0 0.77714595512881146 0.38857297756440573 0 -0.31466019943223172 1 I I #
coedge $-1 $291 $291 $-1 $422 reversed $179 $-1 #
edge $-1 $423 0 $423 6.2831853071796004 $180 $424 forward 7 unknown #
vertex $-1 $183 $425 #
ellipse-curve $-1 52.260809169420526 10.927847171562103 3.6211493997572353 0.62932039886446345 0 0.77714595512881146 0.38857297756440573 0 -0.31466019943223172 1 I I #
coedge $-1 $295 $295 $-1 $426 reversed $186 $-1 #
edge $-1 $427 0 $427 6.2831853071796004 $187 $428 forward 7 unknown #
vertex $-1 $190 $429 #
ellipse-curve $-1 52.260809169420526 13.60245646153712 3.6211493997572353 0.62932039886446345 0 0.77714595512881146 0.38857297756440573 0 -0.31466019943223172 1 I I #
face $-1 $-1 $430 $40 $-1 $431 forward single #
loop $-1 $-1 $197 $191 #
plane-surface $-1 -56.51539658803064 0 0 1 0 0 0 0 -1 forward_v I I I I #
coedge $-1 $432 $433 $434 $435 reversed $192 $-1 #
coedge $-1 $436 $194 $196 $309 forward $120 $-1 #
coedge $-1 $194 $436 $432 $437 forward $120 $-1 #
coedge $-1 $434 $197 $194 $306 forward $300 $-1 #
edge $-1 $312 1.974027849981189 $438 9.9910635673395358 $305 $439 forward 7 unknown #
coedge $-1 $440 $441 $195 $308 forward $430 $-1 #
edge $-1 $442 -21.833563541701501 $311 -18.595689361618426 $307 $443 forward 7 unknown #
edge $-1 $312 0 $442 5.7902634838486726 $196 $444 forward 7 unknown #
coedge $-1 $197 $434 $440 $445 reversed $300 $-1 #
vertex $-1 $445 $446 #
vertex $-1 $198 $447 #
straight-curve $-1 -56.51539658803064 -7.9565735586415514 32.736058232439085 0 0 -1 I I #
coedge $-1 $314 $314 $-1 $448 reversed $201 $-1 #
edge $-1 $449 0 $449 6.2831853071796004 $202 $450 forward 7 unknown #
vertex $-1 $205 $451 #
ellipse-curve $-1 -54.896459497989099 -14.370202132528229 4.6662734150892877 -0.82903758062907751 0 0.55919289150049634 0.27959644575024817 0 0.41451879031453875 1 I I #
coedge $-1 $318 $318 $-1 $452 reversed $208 $-1 #
edge $-1 $453 0 $453 6.2831853071796004 $209 $454 forward 7 unknown #
vertex $-1 $212 $455 #
ellipse-curve $-1 -54.896459497989099 -11.965091417320725 4.6662734150892877 -0.82903758062907751 0 0.55919289150049634 0.27959644575024817 0 0.41451879031453875 1 I I #
coedge $-1 $322 $322 $-1 $456 reversed $215 $-1 #
edge $-1 $457 0 $457 6.2831853071796004 $216 $458 forward 7 unknown #
vertex $-1 $219 $459 #
ellipse-curve $-1 -54.896459497989099 -9.5599807021132204 4.6662734150892877 -0.82903758062907751 0 0.55919289150049634 0.27959644575024817 0 0.41451879031453875 1 I I #
face $-1 $-1 $235 $33 $-1 $460 reversed single #
loop $-1 $-1 $342 $220 #
plane-surface $-1 0 24.387151662245568 0 0 -1 0 0 0 -1 forward_v I I I I #
coedge $-1 $461 $340 $343 $462 forward $221 $-1 #
coedge $-1 $346 $223 $224 $334 reversed $139 $-1 #
coedge $-1 $340 $461 $223 $332 reversed $221 $-1 #
edge $-1 $347 -7.0664464300166863 $463 7.0664464300166863 $331 $464 forward 7 unknown #
coedge $-1 $225 $224 $461 $465 forward $89 $-1 #
edge $-1 $338 -56.51539658803064 $463 56.51539658803064 $330 $466 forward 7 unknown #
coedge $-1 $343 $342 $225 $336 reversed $327 $-1 #
edge $-1 $467 -56.51539658803064 $337 56.51539658803064 $335 $468 forward 7 unknown #
vertex $-1 $227 $469 #
vertex $-1 $349 $470 #
straight-curve $-1 56.51539658803064 0 -7.0664464300166863 0 -1 0 I I #
coedge $-1 $329 $331 $228 $341 reversed $221 $-1 #
edge $-1 $344 -24.387151662245568 $347 24.387151662245568 $340 $471 forward 7 unknown #
coedge $-1 $335 $229 $234 $350 forward $327 $-1 #
coedge $-1 $229 $335 $329 $462 reversed $327 $-1 #
vertex $-1 $230 $472 #
straight-curve $-1 0 24.387151662245568 7.0664464300166863 -1 0 0 I I #
coedge $-1 $231 $330 $233 $349 reversed $139 $-1 #
vertex $-1 $341 $473 #
straight-curve $-1 0 -24.387151662245568 7.0664464300166863 1 0 0 I I #
edge $-1 $236 -7.0664464300166863 $338 7.0664464300166863 $233 $474 forward 7 unknown #
edge $-1 $237 -7.0664464300166863 $337 7.0664464300166863 $234 $475 forward 7 unknown #
point $-1 56.51539658803064 -24.387151662245568 7.0664464300166863 #
point $-1 56.51539658803064 24.387151662245568 7.0664464300166863 #
face $-1 $-1 $476 $34 $-1 $477 reversed single #
loop $-1 $-1 $249 $239 #
plane-surface $-1 0 -24.387151662245568 0 0 1 0 0 0 1 forward_v I I I I #
coedge $-1 $478 $242 $360 $479 forward $147 $-1 #
coedge $-1 $242 $478 $480 $481 forward $147 $-1 #
edge $-1 $482 -56.51539658803064 $361 56.51539658803064 $242 $483 forward 7 unknown #
coedge $-1 $244 $243 $484 $485 reversed $93 $-1 #
coedge $-1 $245 $251 $356 $479 reversed $240 $-1 #
vertex $-1 $479 $486 #
straight-curve $-1 56.51539658803064 -19.66792913439139 -2.6288530735063298 0 0 1 I I #
coedge $-1 $484 $487 $247 $364 forward $476 $-1 #
edge $-1 $369 -13.373381463086329 $365 -8.6541589352321502 $363 $488 forward 7 unknown #
vertex $-1 $364 $489 #
straight-curve $-1 0 -19.66792913439139 -3.4489658640086329 -1 0 0 I I #
coedge $-1 $490 $249 $487 $491 forward $354 $-1 #
coedge $-1 $249 $490 $251 $371 reversed $354 $-1 #
vertex $-1 $491 $492 #
straight-curve $-1 0 -24.387151662245568 -3.4489658640086329 -1 0 0 I I #
edge $-1 $253 3.4489658640086329 $493 7.0664464300166863 $251 $494 forward 7 unknown #
point $-1 56.51539658803064 -19.66792913439139 -3.4489658640086329 #
point $-1 56.51539658803064 -24.387151662245568 -3.4489658640086329 #
face $-1 $-1 $391 $35 $-1 $495 reversed single #
loop $-1 $-1 $387 $255 #
plane-surface $-1 -56.51539658803064 0 0 1 0 0 0 0 -1 forward_v I I I I #
coedge $-1 $380 $258 $496 $497 reversed $155 $-1 #
coedge $-1 $258 $380 $267 $396 reversed $155 $-1 #
coedge $-1 $260 $259 $498 $499 reversed $97 $-1 #
coedge $-1 $378 $377 $259 $381 reversed $155 $-1 #
edge $-1 $384 -56.51539658803064 $500 56.51539658803064 $380 $501 forward 7 unknown #
coedge $-1 $390 $389 $260 $383 forward $391 $-1 #
edge $-1 $385 -56.51539658803064 $502 56.51539658803064 $382 $503 forward 7 unknown #
vertex $-1 $262 $504 #
vertex $-1 $383 $505 #
straight-curve $-1 56.51539658803064 9.9431702459415039 -2.5081769282882078 0 1 0 I I #
coedge $-1 $506 $496 $263 $388 forward $375 $-1 #
edge $-1 $394 5.4423590755789473 $392 14.443981416304061 $387 $507 forward 7 unknown #
coedge $-1 $382 $264 $268 $397 forward $391 $-1 #
coedge $-1 $264 $382 $506 $508 reversed $391 $-1 #
loop $-1 $-1 $264 $374 #
vertex $-1 $508 $509 #
straight-curve $-1 0 24.387151662245568 0.88087930657345836 1 0 0 I I #
vertex $-1 $388 $510 #
straight-curve $-1 0 15.385529321520451 0.88087930657345836 1 0 0 I I #
edge $-1 $270 -1.2877037120021457 $384 2.1013525228595205 $267 $511 forward 7 unknown #
edge $-1 $269 -0.88087930657345836 $385 2.5081769282882078 $268 $512 forward 7 unknown #
point $-1 56.51539658803064 24.387151662245564 0.88087930657345836 #
point $-1 56.51539658803064 15.385529321520451 0.88087930657345836 #
loop $-1 $-1 $406 $272 #
plane-surface $-1 0 15.385529321520451 -0.81364881085737473 0 1 0 0 0 1 forward_v I I I I #
coedge $-1 $411 $410 $513 $514 forward $273 $-1 #
coedge $-1 $406 $513 $275 $404 reversed $400 $-1 #
edge $-1 $408 -79.399077598902522 $515 -72.508483538383629 $275 $516 forward 7 unknown #
coedge $-1 $277 $276 $411 $517 reversed $101 $-1 #
coedge $-1 $513 $403 $277 $407 reversed $400 $-1 #
edge $-1 $518 102.08153096725286 $408 113.03079317606128 $406 $519 forward 7 unknown #
vertex $-1 $404 $520 #
straight-curve $-1 56.51539658803064 5.463923585781048 0.17585236949778249 0 1 0 I I #
coedge $-1 $402 $280 $283 $415 forward $273 $-1 #
coedge $-1 $280 $402 $405 $517 forward $273 $-1 #
vertex $-1 $281 $521 #
straight-curve $-1 19.903278355889455 6.4701650216037407 7.0664464300166827 1 0 0 I I #
straight-curve $-1 -31.326027133746649 6.4701650216037407 71.308436215023335 -0.77714595512881146 0 0.62932039886446345 I I #
edge $-1 $284 6.4701650216037407 $515 15.385529321520451 $283 $522 forward 7 unknown #
point $-1 56.51539658803064 6.4701650216037407 7.0664464300166863 #
point $-1 56.51539658803064 6.4701650216037407 0.17585236949777538 #
edge $-1 $523 1 $523 0 $287 $-1 forward 7 unknown #
vertex $-1 $288 $524 #
ellipse-curve $-1 51.466481104097603 8.2532378815870864 2.6402359507019235 0.62932039886446345 0 0.77714595512881146 0.38857297756440573 0 -0.31466019943223172 1 I I #
point $-1 52.649382146984927 8.2532378815870864 3.3064892003249899 #
edge $-1 $525 1 $525 0 $291 $-1 forward 7 unknown #
vertex $-1 $292 $526 #
ellipse-curve $-1 51.466481104097603 10.927847171562103 2.6402359507019235 0.62932039886446345 0 0.77714595512881146 0.38857297756440573 0 -0.31466019943223172 1 I I #
point $-1 52.649382146984927 10.927847171562103 3.3064892003249899 #
edge $-1 $527 1 $527 0 $295 $-1 forward 7 unknown #
vertex $-1 $296 $528 #
ellipse-curve $-1 51.466481104097603 13.60245646153712 2.6402359507019235 0.62932039886446345 0 0.77714595512881146 0.38857297756440573 0 -0.31466019943223172 1 I I #
point $-1 52.649382146984927 13.60245646153712 3.3064892003249899 #
loop $-1 $-1 $307 $299 #
plane-surface $-1 0 0 7.0664464300166863 0 0 1 1 0 0 forward_v I I I I #
coedge $-1 $433 $302 $304 $437 reversed $192 $-1 #
coedge $-1 $302 $432 $529 $530 reversed $192 $-1 #
coedge $-1 $310 $305 $302 $435 forward $300 $-1 #
edge $-1 $438 -30.469957832277196 $531 -25.669611802422398 $434 $532 forward 7 unknown #
coedge $-1 $304 $303 $441 $533 reversed $120 $-1 #
edge $-1 $534 -5.7902634838486726 $438 0 $432 $535 forward 7 unknown #
vertex $-1 $306 $536 #
straight-curve $-1 -56.51539658803064 -5.9825457086603624 2.2661004001618932 0 -1 0 I I #
coedge $-1 $529 $307 $310 $445 forward $430 $-1 #
coedge $-1 $307 $529 $436 $533 forward $430 $-1 #
vertex $-1 $308 $537 #
straight-curve $-1 -75.111085949649066 -7.9565735586415514 7.0664464300166863 -1 0 0 I I #
straight-curve $-1 -56.51539658803064 -7.9565735586415514 2.2661004001618892 0.55919289150049634 0 0.82903758062907751 I I #
edge $-1 $311 7.9565735586415514 $531 15.973609275999898 $310 $538 forward 7 unknown #
point $-1 -56.51539658803064 -7.9565735586415514 7.0664464300166863 #
point $-1 -56.51539658803064 -7.9565735586415514 2.2661004001618892 #
edge $-1 $539 1 $539 0 $314 $-1 forward 7 unknown #
vertex $-1 $315 $540 #
ellipse-curve $-1 -54.067421917360029 -14.370202132528229 4.1070805235887944 -0.82903758062907751 0 0.55919289150049634 0.27959644575024817 0 0.41451879031453875 1 I I #
point $-1 -54.616863052238855 -14.370202132528229 5.0807922054038297 #
edge $-1 $541 1 $541 0 $318 $-1 forward 7 unknown #
vertex $-1 $319 $542 #
ellipse-curve $-1 -54.067421917360029 -11.965091417320725 4.1070805235887944 -0.82903758062907751 0 0.55919289150049634 0.27959644575024817 0 0.41451879031453875 1 I I #
point $-1 -54.616863052238855 -11.965091417320725 5.0807922054038297 #
edge $-1 $543 1 $543 0 $322 $-1 forward 7 unknown #
vertex $-1 $323 $544 #
ellipse-curve $-1 -54.067421917360029 -9.5599807021132204 4.1070805235887944 -0.82903758062907751 0 0.55919289150049634 0.27959644575024817 0 0.41451879031453875 1 I I #
point $-1 -54.616863052238855 -9.5599807021132204 5.0807922054038297 #
plane-surface $-1 56.51539658803064 0 0 -1 0 0 0 0 1 forward_v I I I I #
coedge $-1 $331 $329 $333 $465 reversed $221 $-1 #
edge $-1 $344 -7.0664464300166863 $467 7.0664464300166863 $343 $545 forward 7 unknown #
vertex $-1 $465 $546 #
straight-curve $-1 -56.51539658803064 -24.387151662245568 0 0 0 -1 I I #
edge $-1 $463 -24.387151662245568 $467 24.387151662245568 $461 $547 forward 7 unknown #
straight-curve $-1 0 -24.387151662245568 -7.0664464300166863 -1 0 0 I I #
vertex $-1 $336 $548 #
straight-curve $-1 0 24.387151662245568 -7.0664464300166863 1 0 0 I I #
point $-1 56.51539658803064 24.387151662245568 -7.0664464300166863 #
point $-1 56.51539658803064 -24.387151662245568 -7.0664464300166863 #
straight-curve $-1 -56.51539658803064 0 7.0664464300166863 0 -1 0 I I #
point $-1 -56.51539658803064 24.387151662245568 7.0664464300166863 #
point $-1 -56.51539658803064 -24.387151662245568 7.0664464300166863 #
straight-curve $-1 56.51539658803064 -24.387151662245568 0 0 0 -1 I I #
straight-curve $-1 56.51539658803064 24.387151662245568 0 0 0 -1 I I #
loop $-1 $-1 $484 $353 #
plane-surface $-1 -56.51539658803064 0 0 1 0 0 0 0 -1 forward_v I I I I #
coedge $-1 $357 $356 $490 $549 forward $147 $-1 #
edge $-1 $361 19.66792913439139 $493 24.387151662245568 $360 $550 forward 7 unknown #
coedge $-1 $487 $484 $357 $481 reversed $476 $-1 #
edge $-1 $551 -24.387151662245568 $482 -19.66792913439139 $480 $552 forward 7 unknown #
vertex $-1 $485 $553 #
straight-curve $-1 0 -19.66792913439139 -7.0664464300166863 1 0 0 I I #
coedge $-1 $480 $363 $359 $485 forward $476 $-1 #
edge $-1 $365 0.82011279050230312 $482 4.4375933565103569 $484 $554 forward 7 unknown #
point $-1 56.51539658803064 -19.66792913439139 -7.0664464300166863 #
coedge $-1 $363 $480 $367 $491 reversed $476 $-1 #
straight-curve $-1 -56.51539658803064 -11.013770199159239 -3.4489658640086329 0 1 0 I I #
point $-1 -56.51539658803064 -19.66792913439139 -3.4489658640086329 #
coedge $-1 $368 $367 $478 $549 reversed $354 $-1 #
edge $-1 $369 3.4489658640086329 $551 7.0664464300166863 $487 $555 forward 7 unknown #
point $-1 -56.51539658803064 -24.387151662245568 -3.4489658640086329 #
vertex $-1 $371 $556 #
straight-curve $-1 56.51539658803064 -24.387151662245568 0 0 0 -1 I I #
plane-surface $-1 0 24.387151662245568 0 0 -1 0 0 0 -1 forward_v I I I I #
coedge $-1 $387 $498 $377 $497 forward $375 $-1 #
edge $-1 $500 -2.1013525228595205 $394 1.2877037120021457 $496 $557 forward 7 unknown #
coedge $-1 $496 $506 $379 $499 forward $375 $-1 #
edge $-1 $502 -14.443981416304061 $500 -5.4423590755789473 $498 $558 forward 7 unknown #
vertex $-1 $499 $559 #
straight-curve $-1 0 15.385529321520451 -2.5081769282882078 -1 0 0 I I #
vertex $-1 $383 $560 #
straight-curve $-1 0 24.387151662245568 -2.5081769282882078 -1 0 0 I I #
point $-1 56.51539658803064 15.385529321520451 -2.5081769282882078 #
point $-1 56.51539658803064 24.387151662245564 -2.5081769282882078 #
coedge $-1 $498 $387 $390 $508 forward $375 $-1 #
straight-curve $-1 -56.51539658803064 9.9431702459415039 0.88087930657345836 0 1 0 I I #
edge $-1 $392 -0.88087930657345836 $502 2.5081769282882078 $390 $561 forward 7 unknown #
point $-1 -56.51539658803064 24.387151662245564 0.88087930657345836 #
point $-1 -56.51539658803064 15.385529321520451 0.88087930657345836 #
straight-curve $-1 56.51539658803064 15.385529321520451 -0.40682440542868736 0 0 -1 I I #
straight-curve $-1 56.51539658803064 24.387151662245568 0 0 0 -1 I I #
coedge $-1 $403 $406 $402 $514 reversed $400 $-1 #
edge $-1 $515 -36.612118232141185 $518 -28.10294339492097 $402 $562 forward 7 unknown #
vertex $-1 $404 $563 #
straight-curve $-1 56.51539658803064 15.385529321520451 79.574929968400312 0 0 1 I I #
edge $-1 $518 -9.9216057357394032 $412 -1.0062414358226928 $411 $564 forward 7 unknown #
vertex $-1 $517 $565 #
straight-curve $-1 -31.326027133746649 15.385529321520451 71.308436215023335 0.77714595512881146 0 -0.62932039886446345 I I #
point $-1 56.51539658803064 15.385529321520451 0.1758523694977826 #
point $-1 48.006221750810425 6.4701650216037407 7.0664464300166827 #
straight-curve $-1 56.51539658803064 0 7.0664464300166863 0 1 0 I I #
vertex $-1 $418 $566 #
point $-1 51.855054081662011 8.2532378815870864 2.325575751269692 #
vertex $-1 $422 $567 #
point $-1 51.855054081662011 10.927847171562103 2.325575751269692 #
vertex $-1 $426 $568 #
point $-1 51.855054081662011 13.60245646153712 2.325575751269692 #
coedge $-1 $441 $440 $433 $530 forward $430 $-1 #
edge $-1 $531 18.595689361618426 $534 21.833563541701501 $529 $569 forward 7 unknown #
vertex $-1 $530 $570 #
straight-curve $-1 -56.51539658803064 -15.973609275999898 32.736058232439085 0 0 1 I I #
edge $-1 $534 -9.9910635673395358 $442 -1.974027849981189 $441 $571 forward 7 unknown #
vertex $-1 $533 $572 #
straight-curve $-1 -56.51539658803064 -15.973609275999898 2.2661004001618892 -0.55919289150049634 0 -0.82903758062907751 I I #
point $-1 -56.51539658803064 -15.973609275999898 2.2661004001618892 #
point $-1 -53.277522407947565 -7.9565735586415514 7.0664464300166863 #
straight-curve $-1 -56.51539658803064 0 7.0664464300166863 0 -1 0 I I #
vertex $-1 $448 $573 #
point $-1 -53.787825471609779 -14.370202132528229 4.5215993139033328 #
vertex $-1 $452 $574 #
point $-1 -53.787825471609779 -11.965091417320725 4.5215993139033328 #
vertex $-1 $456 $575 #
point $-1 -53.787825471609779 -9.5599807021132204 4.5215993139033328 #
straight-curve $-1 -56.51539658803064 24.387151662245568 0 0 0 -1 I I #
point $-1 -56.51539658803064 -24.387151662245568 -7.0664464300166863 #
straight-curve $-1 -56.51539658803064 0 -7.0664464300166863 0 1 0 I I #
point $-1 -56.51539658803064 24.387151662245568 -7.0664464300166863 #
edge $-1 $493 -56.51539658803064 $551 56.51539658803064 $490 $576 forward 7 unknown #
straight-curve $-1 56.51539658803064 0 -7.0664464300166863 0 -1 0 I I #
vertex $-1 $481 $577 #
straight-curve $-1 -56.51539658803064 0 -7.0664464300166863 0 1 0 I I #
point $-1 -56.51539658803064 -19.66792913439139 -7.0664464300166863 #
straight-curve $-1 -56.51539658803064 -19.66792913439139 -2.6288530735063298 0 0 -1 I I #
straight-curve $-1 -56.51539658803064 -24.387151662245568 0 0 0 -1 I I #
point $-1 56.51539658803064 -24.387151662245568 -7.0664464300166863 #
straight-curve $-1 -56.51539658803064 15.385529321520451 -0.40682440542868736 0 0 1 I I #
straight-curve $-1 -56.51539658803064 9.9431702459415039 -2.5081769282882078 0 -1 0 I I #
point $-1 -56.51539658803064 15.385529321520451 -2.5081769282882078 #
point $-1 -56.51539658803064 24.387151662245564 -2.5081769282882078 #
straight-curve $-1 -56.51539658803064 24.387151662245568 0 0 0 -1 I I #
straight-curve $-1 19.903278355889455 15.385529321520451 7.0664464300166827 -1 0 0 I I #
point $-1 56.51539658803064 15.385529321520451 7.0664464300166863 #
straight-curve $-1 48.006221750810418 5.463923585781048 7.0664464300166898 0 -1 0 I I #
point $-1 48.006221750810425 15.385529321520451 7.0664464300166827 #
point $-1 51.151820904665378 8.2532378815870864 2.2516629731375182 #
point $-1 51.151820904665378 10.927847171562103 2.2516629731375182 #
point $-1 51.151820904665378 13.60245646153712 2.2516629731375182 #
straight-curve $-1 -75.111085949649066 -15.973609275999898 7.0664464300166863 1 0 0 I I #
point $-1 -56.51539658803064 -15.973609275999898 7.0664464300166863 #
straight-curve $-1 -53.277522407947572 -5.9825457086603624 7.0664464300166845 0 1 0 I I #
point $-1 -53.277522407947565 -15.973609275999898 7.0664464300166863 #
point $-1 -53.652903127045484 -14.370202132528229 3.8274840778385459 #
point $-1 -53.652903127045484 -11.965091417320725 3.8274840778385459 #
point $-1 -53.652903127045484 -9.5599807021132204 3.8274840778385459 #
straight-curve $-1 0 -24.387151662245568 -7.0664464300166863 -1 0 0 I I #
point $-1 -56.51539658803064 -24.387151662245568 -7.0664464300166863 #
End-of-ACIS-data 