500 0 10 0           
7 Unknown 11 ACIS 5.0 NT 24 Fri Mar 26 18:52:05 1999 
-1 9.9999999999999995e-007 1e-010 
body $-1 $10 $-1 $11 #
body $-1 $12 $-1 $13 #
body $-1 $14 $-1 $15 #
body $-1 $16 $-1 $17 #
body $-1 $18 $-1 $19 #
body $-1 $20 $-1 $21 #
body $-1 $22 $-1 $23 #
body $-1 $24 $-1 $25 #
body $-1 $26 $-1 $27 #
body $-1 $28 $-1 $29 #
lump $-1 $-1 $30 $0 #
transform $-1 1 0 0 0 1 0 0 0 1 72.669454023865484 40.117566079546727 19.934268849573165 1 rotate no_reflect no_shear #
lump $-1 $-1 $31 $1 #
transform $-1 1 0 0 0 1 0 0 0 1 72.669454023865484 40.117566079546727 19.934268849573165 1 rotate no_reflect no_shear #
lump $-1 $-1 $32 $2 #
transform $-1 1 0 0 0 1 0 0 0 1 72.669454023865484 40.117566079546727 19.934268849573165 1 rotate no_reflect no_shear #
lump $-1 $-1 $33 $3 #
transform $-1 1 0 0 0 1 0 0 0 1 72.669454023865484 40.117566079546727 19.934268849573165 1 rotate no_reflect no_shear #
lump $-1 $-1 $34 $4 #
transform $-1 1 0 0 0 1 0 0 0 1 72.669454023865484 40.117566079546727 19.934268849573165 1 rotate no_reflect no_shear #
lump $-1 $-1 $35 $5 #
transform $-1 1 0 0 0 1 0 0 0 1 72.669454023865484 40.117566079546727 19.934268849573165 1 rotate no_reflect no_shear #
lump $-1 $-1 $36 $6 #
transform $-1 1 0 0 0 1 0 0 0 1 72.669454023865484 40.117566079546727 19.934268849573165 1 rotate no_reflect no_shear #
lump $-1 $-1 $37 $7 #
transform $-1 1 0 0 0 1 0 0 0 1 72.669454023865484 40.117566079546727 19.934268849573165 1 rotate no_reflect no_shear #
lump $-1 $-1 $38 $8 #
transform $-1 1 0 0 0 1 0 0 0 1 72.669454023865484 40.117566079546727 19.934268849573165 1 rotate no_reflect no_shear #
lump $-1 $-1 $39 $9 #
transform $-1 1 0 0 0 1 0 0 0 1 72.669454023865484 40.117566079546727 19.934268849573165 1 rotate no_reflect no_shear #
shell $-1 $-1 $-1 $40 $-1 $10 #
shell $-1 $-1 $-1 $41 $-1 $12 #
shell $-1 $-1 $-1 $42 $-1 $14 #
shell $-1 $-1 $-1 $43 $-1 $16 #
shell $-1 $-1 $-1 $44 $-1 $18 #
shell $-1 $-1 $-1 $45 $-1 $20 #
shell $-1 $-1 $-1 $46 $-1 $22 #
shell $-1 $-1 $-1 $47 $-1 $24 #
shell $-1 $-1 $-1 $48 $-1 $26 #
shell $-1 $-1 $-1 $49 $-1 $28 #
face $-1 $50 $51 $30 $-1 $52 forward single #
face $-1 $53 $54 $31 $-1 $55 forward single #
face $-1 $56 $57 $32 $-1 $58 forward single #
face $-1 $59 $60 $33 $-1 $61 reversed single #
face $-1 $62 $63 $34 $-1 $64 forward single #
face $-1 $65 $66 $35 $-1 $67 forward single #
face $-1 $68 $69 $36 $-1 $70 reversed single #
face $-1 $71 $72 $37 $-1 $73 forward single #
face $-1 $74 $75 $38 $-1 $76 forward single #
face $-1 $77 $78 $39 $-1 $79 forward single #
face $-1 $80 $81 $30 $-1 $82 reversed single #
loop $-1 $-1 $83 $40 #
plane-surface $-1 0 0 19.934268849573165 0 0 1 1 0 0 forward_v I I I I #
face $-1 $84 $85 $31 $-1 $86 reversed single #
loop $-1 $-1 $87 $41 #
plane-surface $-1 0 -32.467599534263812 -12.347845942137411 0 0 1 1 0 0 forward_v I I I I #
face $-1 $88 $89 $32 $-1 $90 reversed single #
loop $-1 $-1 $91 $42 #
plane-surface $-1 0 32.467599534263819 -12.347845942137411 0 0 1 1 0 0 forward_v I I I I #
face $-1 $92 $93 $33 $-1 $94 reversed single #
loop $-1 $-1 $95 $43 #
plane-surface $-1 -187.19807768262376 -5.8064471356673337 90.719905761807439 0 -1 0 0.78801076186113728 0 -0.61566146476048833 forward_v I I I I #
face $-1 $96 $97 $34 $-1 $98 forward single #
loop $-1 $99 $100 $44 #
cone-surface $-1 -63.949651162240947 -14.623326390697965 9.4801024665383977 0.78801076186113728 0 -0.61566146476048833 0.61566146476048833 0 0.78801076186113728 1 I I 0 1 1 forward I I I I #
face $-1 $101 $102 $35 $-1 $103 forward single #
loop $-1 $104 $105 $45 #
cone-surface $-1 -63.949651162240947 -9.3331988376795891 9.4801024665383977 0.78801076186113728 0 -0.61566146476048833 0.61566146476048833 0 0.78801076186113728 1 I I 0 1 1 forward I I I I #
face $-1 $106 $107 $36 $-1 $108 reversed single #
loop $-1 $-1 $109 $46 #
plane-surface $-1 61.912310459926886 22.155686291845548 216.45832937402079 0 -1 0 -0.66913061440640931 0 -0.74314481823134659 forward_v I I I I #
face $-1 $110 $111 $37 $-1 $112 forward single #
loop $-1 $113 $114 $47 #
cone-surface $-1 67.484561475874926 15.057653068844246 15.195442081577157 -0.66913061440640931 0 -0.74314481823134659 0.3715724091156733 0 -0.33456530720320465 1 I I 0 1 0.5 forward I I I I #
face $-1 $115 $116 $38 $-1 $117 forward single #
loop $-1 $118 $119 $48 #
cone-surface $-1 67.484561475874926 17.719415527469735 15.195442081577157 -0.66913061440640931 0 -0.74314481823134659 0.3715724091156733 0 -0.33456530720320465 1 I I 0 1 0.5 forward I I I I #
face $-1 $120 $121 $39 $-1 $122 forward single #
loop $-1 $123 $124 $49 #
cone-surface $-1 67.484561475874926 20.381177986095224 15.195442081577157 -0.66913061440640931 0 -0.74314481823134659 0.3715724091156733 0 -0.33456530720320465 1 I I 0 1 0.5 forward I I I I #
face $-1 $125 $126 $30 $-1 $127 reversed single #
loop $-1 $-1 $128 $50 #
plane-surface $-1 0 0 -19.934268849573165 0 0 1 1 0 0 forward_v I I I I #
coedge $-1 $129 $130 $131 $132 forward $51 $-1 #
face $-1 $133 $134 $31 $-1 $135 reversed single #
loop $-1 $-1 $136 $53 #
plane-surface $-1 0 -24.817632988980897 -16.141057395855288 0 -1 0 0 0 -1 forward_v I I I I #
coedge $-1 $137 $138 $139 $140 reversed $54 $-1 #
face $-1 $141 $142 $32 $-1 $143 reversed single #
loop $-1 $-1 $144 $56 #
plane-surface $-1 0 24.817632988980904 -16.141057395855288 0 1 0 0 0 1 forward_v I I I I #
coedge $-1 $145 $146 $147 $148 reversed $57 $-1 #
face $-1 $149 $150 $33 $-1 $151 reversed single #
loop $-1 $-1 $152 $59 #
plane-surface $-1 -72.669454023865512 -11.978262614188775 1.2403407464514657 -0.78801076186113728 0 0.61566146476048833 0.61566146476048833 0 0.78801076186113728 forward_v I I I I #
coedge $-1 $153 $154 $155 $156 reversed $60 $-1 #
face $-1 $-1 $157 $34 $-1 $158 forward single #
loop $-1 $159 $160 $62 #
cone-surface $-1 -62.138491382831631 -14.623326390697965 8.0650694026842302 0.78801076186113728 0 -0.61566146476048833 0.30783073238024417 0 0.39400538093056864 1 I I -0.70710678118654746 0.70710678118654746 0.5 forward I I I I #
loop $-1 $-1 $161 $44 #
coedge $-1 $100 $100 $162 $163 reversed $63 $-1 #
face $-1 $-1 $164 $35 $-1 $165 forward single #
loop $-1 $166 $167 $65 #
cone-surface $-1 -62.138491382831631 -9.3331988376795891 8.0650694026842302 0.78801076186113728 0 -0.61566146476048833 0.30783073238024417 0 0.39400538093056864 1 I I -0.70710678118654746 0.70710678118654746 0.5 forward I I I I #
loop $-1 $-1 $168 $45 #
coedge $-1 $105 $105 $169 $170 reversed $66 $-1 #
face $-1 $171 $172 $36 $-1 $173 reversed single #
loop $-1 $-1 $174 $68 #
plane-surface $-1 -35.338402379207963 17.719415527469735 108.45047297094736 0.66913061440640931 0 0.74314481823134659 0.74314481823134659 0 -0.66913061440640931 forward_v I I I I #
coedge $-1 $175 $176 $177 $178 reversed $69 $-1 #
face $-1 $-1 $179 $37 $-1 $180 forward single #
loop $-1 $181 $182 $71 #
cone-surface $-1 66.982713515070117 15.057653068844246 14.638083467903648 -0.66913061440640931 0 -0.74314481823134659 0.18578620455783665 0 -0.16728265360160233 1 I I -0.70710678118654746 0.70710678118654746 0.25 forward I I I I #
loop $-1 $-1 $183 $47 #
coedge $-1 $114 $114 $184 $185 reversed $72 $-1 #
face $-1 $-1 $186 $38 $-1 $187 forward single #
loop $-1 $188 $189 $74 #
cone-surface $-1 66.982713515070117 17.719415527469735 14.638083467903648 -0.66913061440640931 0 -0.74314481823134659 0.18578620455783665 0 -0.16728265360160233 1 I I -0.70710678118654746 0.70710678118654746 0.25 forward I I I I #
loop $-1 $-1 $190 $48 #
coedge $-1 $119 $119 $191 $192 reversed $75 $-1 #
face $-1 $-1 $193 $39 $-1 $194 forward single #
loop $-1 $195 $196 $77 #
cone-surface $-1 66.982713515070117 20.381177986095224 14.638083467903648 -0.66913061440640931 0 -0.74314481823134659 0.18578620455783665 0 -0.16728265360160233 1 I I -0.70710678118654746 0.70710678118654746 0.25 forward I I I I #
loop $-1 $-1 $197 $49 #
coedge $-1 $124 $124 $198 $199 reversed $78 $-1 #
face $-1 $200 $201 $30 $-1 $202 reversed single #
loop $-1 $-1 $203 $80 #
plane-surface $-1 0 -40.117566079546727 0 0 1 0 0 0 1 forward_v I I I I #
coedge $-1 $204 $205 $206 $207 forward $81 $-1 #
coedge $-1 $208 $83 $209 $210 forward $51 $-1 #
coedge $-1 $83 $208 $211 $212 forward $51 $-1 #
coedge $-1 $213 $214 $83 $132 reversed $215 $-1 #
edge $-1 $216 -40.117566079546727 $217 40.117566079546727 $131 $218 forward 7 unknown #
face $-1 $219 $220 $31 $-1 $221 reversed single #
loop $-1 $-1 $222 $84 #
plane-surface $-1 0 0 -19.934268849573165 0 0 1 1 0 0 forward_v I I I I #
coedge $-1 $223 $224 $225 $226 reversed $85 $-1 #
coedge $-1 $227 $87 $224 $228 forward $54 $-1 #
coedge $-1 $87 $227 $229 $230 reversed $54 $-1 #
coedge $-1 $231 $225 $87 $140 forward $220 $-1 #
edge $-1 $232 8.583833221848991 $233 23.883766312414821 $139 $234 forward 7 unknown #
face $-1 $235 $236 $32 $-1 $237 reversed single #
loop $-1 $-1 $147 $88 #
plane-surface $-1 72.669454023865484 0 0 -1 0 0 0 0 1 forward_v I I I I #
coedge $-1 $238 $239 $240 $241 reversed $89 $-1 #
coedge $-1 $242 $91 $243 $244 reversed $57 $-1 #
coedge $-1 $91 $242 $239 $245 forward $57 $-1 #
coedge $-1 $246 $247 $91 $148 forward $142 $-1 #
edge $-1 $248 -23.883766312414824 $249 -8.5838332218489946 $147 $250 forward 7 unknown #
face $-1 $251 $252 $33 $-1 $253 reversed single #
loop $-1 $-1 $254 $92 #
plane-surface $-1 -187.19807768262376 -18.150078092710217 90.719905761807439 0 1 0 -0.78801076186113728 0 0.61566146476048833 forward_v I I I I #
coedge $-1 $255 $256 $257 $258 reversed $93 $-1 #
coedge $-1 $154 $95 $259 $260 reversed $60 $-1 #
coedge $-1 $95 $153 $255 $261 reversed $60 $-1 #
coedge $-1 $257 $262 $95 $156 forward $252 $-1 #
edge $-1 $263 25.425684031330555 $264 44.119612134452218 $155 $265 forward 7 unknown #
loop $-1 $-1 $162 $96 #
plane-surface $-1 -72.669454023865512 -11.978262614188775 1.2403407464514657 -0.78801076186113728 0 0.61566146476048833 0.61566146476048833 0 0.78801076186113728 forward_v I I I I #
loop $-1 $-1 $266 $62 #
coedge $-1 $160 $160 $161 $267 reversed $97 $-1 #
coedge $-1 $161 $161 $160 $267 forward $99 $-1 #
coedge $-1 $162 $162 $100 $163 forward $157 $-1 #
edge $-1 $268 0 $268 6.2831853071796004 $162 $269 forward 7 unknown #
loop $-1 $-1 $169 $101 #
plane-surface $-1 -72.669454023865512 -11.978262614188775 1.2403407464514657 -0.78801076186113728 0 0.61566146476048833 0.61566146476048833 0 0.78801076186113728 forward_v I I I I #
loop $-1 $-1 $270 $65 #
coedge $-1 $167 $167 $168 $271 reversed $102 $-1 #
coedge $-1 $168 $168 $167 $271 forward $104 $-1 #
coedge $-1 $169 $169 $105 $170 forward $164 $-1 #
edge $-1 $272 0 $272 6.2831853071796004 $169 $273 forward 7 unknown #
face $-1 $274 $275 $36 $-1 $276 forward single #
loop $-1 $-1 $277 $106 #
plane-surface $-1 61.912310459926886 13.283144763093922 216.45832937402079 0 1 0 0.66913061440640931 0 0.74314481823134659 forward_v I I I I #
coedge $-1 $278 $279 $280 $281 reversed $107 $-1 #
coedge $-1 $176 $109 $282 $283 reversed $69 $-1 #
coedge $-1 $109 $175 $278 $284 reversed $69 $-1 #
coedge $-1 $280 $285 $109 $178 forward $275 $-1 #
edge $-1 $286 -41.713298793902041 $287 -32.012644312327339 $177 $288 forward 7 unknown #
loop $-1 $-1 $184 $110 #
plane-surface $-1 -35.338402379207963 17.719415527469735 108.45047297094736 0.66913061440640931 0 0.74314481823134659 0.74314481823134659 0 -0.66913061440640931 forward_v I I I I #
loop $-1 $-1 $289 $71 #
coedge $-1 $182 $182 $183 $290 reversed $111 $-1 #
coedge $-1 $183 $183 $182 $290 forward $113 $-1 #
coedge $-1 $184 $184 $114 $185 forward $179 $-1 #
edge $-1 $291 0 $291 6.2831853071796004 $184 $292 forward 7 unknown #
loop $-1 $-1 $191 $115 #
plane-surface $-1 -35.338402379207963 17.719415527469735 108.45047297094736 0.66913061440640931 0 0.74314481823134659 0.74314481823134659 0 -0.66913061440640931 forward_v I I I I #
loop $-1 $-1 $293 $74 #
coedge $-1 $189 $189 $190 $294 reversed $116 $-1 #
coedge $-1 $190 $190 $189 $294 forward $118 $-1 #
coedge $-1 $191 $191 $119 $192 forward $186 $-1 #
edge $-1 $295 0 $295 6.2831853071796004 $191 $296 forward 7 unknown #
loop $-1 $-1 $198 $120 #
plane-surface $-1 -35.338402379207963 17.719415527469735 108.45047297094736 0.66913061440640931 0 0.74314481823134659 0.74314481823134659 0 -0.66913061440640931 forward_v I I I I #
loop $-1 $-1 $297 $77 #
coedge $-1 $196 $196 $197 $298 reversed $121 $-1 #
coedge $-1 $197 $197 $196 $298 forward $123 $-1 #
coedge $-1 $198 $198 $124 $199 forward $193 $-1 #
edge $-1 $299 0 $299 6.2831853071796004 $198 $300 forward 7 unknown #
face $-1 $301 $302 $30 $-1 $303 reversed single #
loop $-1 $-1 $304 $125 #
plane-surface $-1 -72.669454023865484 0 0 1 0 0 0 0 -1 forward_v I I I I #
coedge $-1 $305 $211 $306 $307 forward $126 $-1 #
coedge $-1 $308 $128 $305 $309 forward $81 $-1 #
coedge $-1 $128 $308 $310 $311 forward $81 $-1 #
coedge $-1 $214 $213 $128 $207 reversed $215 $-1 #
edge $-1 $312 -40.117566079546727 $313 40.117566079546727 $206 $314 forward 7 unknown #
coedge $-1 $130 $129 $315 $316 forward $51 $-1 #
coedge $-1 $317 $318 $129 $210 reversed $302 $-1 #
edge $-1 $217 -72.669454023865484 $319 72.669454023865484 $209 $320 forward 7 unknown #
coedge $-1 $203 $321 $130 $212 reversed $126 $-1 #
edge $-1 $322 -72.669454023865484 $216 72.669454023865484 $211 $323 forward 7 unknown #
coedge $-1 $206 $131 $321 $324 forward $215 $-1 #
coedge $-1 $131 $206 $317 $325 reversed $215 $-1 #
loop $-1 $-1 $213 $301 #
vertex $-1 $132 $326 #
vertex $-1 $132 $327 #
straight-curve $-1 72.669454023865484 0 19.934268849573165 0 1 0 I I #
face $-1 $328 $329 $31 $-1 $330 reversed single #
loop $-1 $-1 $225 $133 #
plane-surface $-1 72.669454023865484 0 0 -1 0 0 0 0 1 forward_v I I I I #
coedge $-1 $331 $332 $223 $333 forward $134 $-1 #
coedge $-1 $334 $136 $222 $333 reversed $85 $-1 #
coedge $-1 $136 $334 $137 $228 reversed $85 $-1 #
coedge $-1 $139 $335 $136 $226 forward $220 $-1 #
edge $-1 $336 -11.863740151645521 $232 -4.2773172442097671 $225 $337 forward 7 unknown #
coedge $-1 $138 $137 $338 $339 reversed $54 $-1 #
edge $-1 $232 -72.669454023865484 $340 72.669454023865484 $224 $341 forward 7 unknown #
coedge $-1 $342 $343 $138 $230 forward $329 $-1 #
edge $-1 $233 -72.669454023865484 $344 72.669454023865484 $229 $345 forward 7 unknown #
coedge $-1 $335 $139 $343 $346 forward $220 $-1 #
vertex $-1 $140 $347 #
vertex $-1 $346 $348 #
straight-curve $-1 72.669454023865484 -16.233799767131906 -12.347845942137411 0 -1 0 I I #
face $-1 $349 $350 $32 $-1 $351 reversed single #
loop $-1 $-1 $352 $141 #
plane-surface $-1 0 0 -19.934268849573165 0 0 1 1 0 0 forward_v I I I I #
coedge $-1 $353 $144 $352 $354 reversed $89 $-1 #
coedge $-1 $144 $353 $146 $245 reversed $89 $-1 #
coedge $-1 $355 $356 $144 $241 forward $350 $-1 #
edge $-1 $357 -11.863740151645521 $358 -4.2773172442097671 $240 $359 forward 7 unknown #
coedge $-1 $146 $145 $355 $360 reversed $57 $-1 #
coedge $-1 $361 $362 $145 $244 forward $363 $-1 #
edge $-1 $364 -72.669454023865484 $248 72.669454023865484 $243 $365 forward 7 unknown #
edge $-1 $358 -72.669454023865484 $249 72.669454023865484 $239 $366 forward 7 unknown #
coedge $-1 $367 $147 $353 $368 forward $142 $-1 #
coedge $-1 $147 $367 $361 $369 reversed $142 $-1 #
vertex $-1 $369 $370 #
vertex $-1 $148 $371 #
straight-curve $-1 72.669454023865484 16.233799767131909 -12.347845942137411 0 -1 0 I I #
face $-1 $-1 $372 $33 $-1 $373 forward single #
loop $-1 $-1 $155 $149 #
plane-surface $-1 -72.669454023865484 0 0 1 0 0 0 0 -1 forward_v I I I I #
coedge $-1 $374 $375 $376 $377 reversed $150 $-1 #
coedge $-1 $378 $152 $154 $261 forward $93 $-1 #
coedge $-1 $152 $378 $374 $379 forward $93 $-1 #
coedge $-1 $376 $155 $152 $258 forward $252 $-1 #
edge $-1 $264 -0.18268417142705395 $380 12.160946785615829 $257 $381 forward 7 unknown #
coedge $-1 $382 $383 $153 $260 forward $372 $-1 #
edge $-1 $384 -35.534881743737955 $263 -20.929584817446397 $259 $385 forward 7 unknown #
edge $-1 $264 4.6193811539156697e-014 $384 23.722935025620792 $154 $386 forward 7 unknown #
coedge $-1 $155 $376 $382 $387 reversed $252 $-1 #
vertex $-1 $387 $388 #
vertex $-1 $156 $389 #
straight-curve $-1 -72.669454023865484 -5.8064471356673337 45.35995288090372 0 0 -1 I I #
coedge $-1 $266 $266 $-1 $390 reversed $159 $-1 #
edge $-1 $391 0 $391 6.2831853071796004 $160 $392 forward 7 unknown #
vertex $-1 $163 $393 #
ellipse-curve $-1 -65.366805560719712 -14.623326390697965 10.58730479801233 -0.78801076186113728 0 0.61566146476048833 0.61566146476048833 0 0.78801076186113728 1 I I #
coedge $-1 $270 $270 $-1 $394 reversed $166 $-1 #
edge $-1 $395 0 $395 6.2831853071796004 $167 $396 forward 7 unknown #
vertex $-1 $170 $397 #
ellipse-curve $-1 -65.366805560719712 -9.3331988376795891 10.58730479801233 -0.78801076186113728 0 0.61566146476048833 0.61566146476048833 0 0.78801076186113728 1 I I #
face $-1 $-1 $398 $36 $-1 $399 reversed single #
loop $-1 $-1 $177 $171 #
plane-surface $-1 0 0 19.934268849573165 0 0 1 1 0 0 forward_v I I I I #
coedge $-1 $400 $401 $402 $403 reversed $172 $-1 #
coedge $-1 $404 $174 $176 $284 forward $107 $-1 #
coedge $-1 $174 $404 $400 $405 forward $107 $-1 #
coedge $-1 $402 $177 $174 $281 forward $275 $-1 #
edge $-1 $287 -13.29597852811068 $406 -4.4234369993590548 $280 $407 forward 7 unknown #
coedge $-1 $408 $409 $175 $283 forward $398 $-1 #
edge $-1 $410 -97.0294045551979 $286 -88.294895837437224 $282 $411 forward 7 unknown #
edge $-1 $287 132.28538975144272 $410 145.338908047731 $176 $412 forward 7 unknown #
coedge $-1 $177 $402 $408 $413 forward $275 $-1 #
vertex $-1 $178 $414 #
vertex $-1 $178 $415 #
straight-curve $-1 30.956155229963443 22.155686291845548 19.934268849573158 -1 0 0 I I #
coedge $-1 $289 $289 $-1 $416 reversed $181 $-1 #
edge $-1 $417 0 $417 6.2831853071796004 $182 $418 forward 7 unknown #
vertex $-1 $185 $419 #
ellipse-curve $-1 67.819126783078133 15.057653068844246 15.567014490692831 0.66913061440640931 0 0.74314481823134659 0.3715724091156733 0 -0.33456530720320465 1 I I #
coedge $-1 $293 $293 $-1 $420 reversed $188 $-1 #
edge $-1 $421 0 $421 6.2831853071796004 $189 $422 forward 7 unknown #
vertex $-1 $192 $423 #
ellipse-curve $-1 67.819126783078133 17.719415527469735 15.567014490692831 0.66913061440640931 0 0.74314481823134659 0.3715724091156733 0 -0.33456530720320465 1 I I #
coedge $-1 $297 $297 $-1 $424 reversed $195 $-1 #
edge $-1 $425 0 $425 6.2831853071796004 $196 $426 forward 7 unknown #
vertex $-1 $199 $427 #
ellipse-curve $-1 67.819126783078133 20.381177986095224 15.567014490692831 0.66913061440640931 0 0.74314481823134659 0.3715724091156733 0 -0.33456530720320465 1 I I #
face $-1 $-1 $215 $30 $-1 $428 reversed single #
loop $-1 $-1 $317 $200 #
plane-surface $-1 0 40.117566079546727 0 0 -1 0 0 0 -1 forward_v I I I I #
coedge $-1 $429 $315 $318 $430 forward $201 $-1 #
coedge $-1 $321 $203 $204 $309 reversed $126 $-1 #
coedge $-1 $315 $429 $203 $307 reversed $201 $-1 #
edge $-1 $322 -19.934268849573165 $431 19.934268849573165 $306 $432 forward 7 unknown #
coedge $-1 $205 $204 $429 $433 forward $81 $-1 #
edge $-1 $313 -72.669454023865484 $431 72.669454023865484 $305 $434 forward 7 unknown #
coedge $-1 $318 $317 $205 $311 reversed $302 $-1 #
edge $-1 $435 -72.669454023865484 $312 72.669454023865484 $310 $436 forward 7 unknown #
vertex $-1 $207 $437 #
vertex $-1 $324 $438 #
straight-curve $-1 72.669454023865484 0 -19.934268849573165 0 -1 0 I I #
coedge $-1 $304 $306 $208 $316 reversed $201 $-1 #
edge $-1 $319 -40.117566079546727 $322 40.117566079546727 $315 $439 forward 7 unknown #
coedge $-1 $310 $209 $214 $325 forward $302 $-1 #
coedge $-1 $209 $310 $304 $430 reversed $302 $-1 #
vertex $-1 $210 $440 #
straight-curve $-1 0 40.117566079546727 19.934268849573165 -1 0 0 I I #
coedge $-1 $211 $305 $213 $324 reversed $126 $-1 #
vertex $-1 $316 $441 #
straight-curve $-1 0 -40.117566079546727 19.934268849573165 1 0 0 I I #
edge $-1 $216 -19.934268849573165 $313 19.934268849573165 $213 $442 forward 7 unknown #
edge $-1 $217 -19.934268849573165 $312 19.934268849573165 $214 $443 forward 7 unknown #
point $-1 72.669454023865484 -40.117566079546727 19.934268849573165 #
point $-1 72.669454023865484 40.117566079546727 19.934268849573165 #
face $-1 $-1 $444 $31 $-1 $445 reversed single #
loop $-1 $-1 $229 $219 #
plane-surface $-1 0 -40.117566079546727 0 0 1 0 0 0 1 forward_v I I I I #
coedge $-1 $446 $222 $335 $447 forward $134 $-1 #
coedge $-1 $222 $446 $448 $449 forward $134 $-1 #
edge $-1 $450 -72.669454023865484 $336 72.669454023865484 $222 $451 forward 7 unknown #
coedge $-1 $224 $223 $452 $453 reversed $85 $-1 #
coedge $-1 $225 $231 $331 $447 reversed $220 $-1 #
vertex $-1 $447 $454 #
straight-curve $-1 72.669454023865484 -24.817632988980897 -8.070528697927644 0 0 1 I I #
coedge $-1 $452 $455 $227 $339 forward $444 $-1 #
edge $-1 $344 -23.883766312414821 $340 -8.583833221848991 $338 $456 forward 7 unknown #
vertex $-1 $339 $457 #
straight-curve $-1 0 -24.817632988980897 -12.347845942137411 -1 0 0 I I #
coedge $-1 $458 $229 $455 $459 forward $329 $-1 #
coedge $-1 $229 $458 $231 $346 reversed $329 $-1 #
vertex $-1 $459 $460 #
straight-curve $-1 0 -40.117566079546727 -12.347845942137411 -1 0 0 I I #
edge $-1 $233 12.347845942137411 $461 19.934268849573165 $231 $462 forward 7 unknown #
point $-1 72.669454023865484 -24.817632988980897 -12.347845942137411 #
point $-1 72.669454023865484 -40.117566079546727 -12.347845942137411 #
face $-1 $-1 $363 $32 $-1 $463 reversed single #
loop $-1 $-1 $355 $235 #
plane-surface $-1 -72.669454023865484 0 0 1 0 0 0 0 -1 forward_v I I I I #
coedge $-1 $464 $465 $238 $354 forward $236 $-1 #
coedge $-1 $239 $238 $246 $368 reversed $89 $-1 #
edge $-1 $466 -72.669454023865484 $357 72.669454023865484 $352 $467 forward 7 unknown #
coedge $-1 $468 $240 $242 $360 forward $350 $-1 #
coedge $-1 $240 $468 $464 $469 reversed $350 $-1 #
vertex $-1 $469 $470 #
vertex $-1 $360 $471 #
straight-curve $-1 -72.669454023865484 24.817632988980904 -8.070528697927644 0 0 1 I I #
edge $-1 $358 8.5838332218489946 $364 23.883766312414824 $355 $472 forward 7 unknown #
coedge $-1 $473 $243 $247 $369 forward $363 $-1 #
coedge $-1 $243 $473 $468 $474 reversed $363 $-1 #
loop $-1 $-1 $243 $349 #
vertex $-1 $474 $475 #
straight-curve $-1 0 40.117566079546727 -12.347845942137411 1 0 0 I I #
straight-curve $-1 0 24.817632988980904 -12.347845942137411 1 0 0 I I #
coedge $-1 $247 $246 $465 $476 reversed $142 $-1 #
edge $-1 $249 4.2773172442097671 $466 11.863740151645521 $246 $477 forward 7 unknown #
edge $-1 $248 12.347845942137411 $478 19.934268849573165 $247 $479 forward 7 unknown #
point $-1 72.669454023865484 40.117566079546734 -12.347845942137411 #
point $-1 72.669454023865484 24.817632988980904 -12.347845942137411 #
loop $-1 $-1 $259 $251 #
plane-surface $-1 0 0 19.934268849573165 0 0 1 1 0 0 forward_v I I I I #
coedge $-1 $375 $254 $256 $379 reversed $150 $-1 #
coedge $-1 $254 $374 $480 $481 reversed $150 $-1 #
coedge $-1 $262 $257 $254 $377 forward $252 $-1 #
edge $-1 $380 -44.119612134452218 $482 -25.425684031330555 $376 $483 forward 7 unknown #
coedge $-1 $256 $255 $383 $484 reversed $93 $-1 #
edge $-1 $485 -23.722935025620792 $380 -4.6193811539156697e-014 $374 $486 forward 7 unknown #
vertex $-1 $258 $487 #
straight-curve $-1 -72.669454023865484 -5.9891313070943877 1.2403407464514988 0 -1 0 I I #
coedge $-1 $480 $259 $262 $387 forward $372 $-1 #
coedge $-1 $259 $480 $378 $484 forward $372 $-1 #
vertex $-1 $260 $488 #
straight-curve $-1 -93.599038841311881 -5.8064471356673337 19.934268849573165 -1 0 0 I I #
straight-curve $-1 -72.669454023865512 -5.8064471356673337 1.2403407464514657 0.61566146476048833 0 0.78801076186113728 I I #
edge $-1 $263 5.8064471356673337 $482 18.150078092710217 $262 $489 forward 7 unknown #
point $-1 -72.669454023865484 -5.8064471356673337 19.934268849573165 #
point $-1 -72.669454023865484 -5.8064471356673337 1.2403407464515022 #
edge $-1 $490 1 $490 0 $266 $-1 forward 7 unknown #
vertex $-1 $267 $491 #
ellipse-curve $-1 -62.532496763762197 -14.623326390697965 8.3729001350644747 -0.78801076186113728 0 0.61566146476048833 0.61566146476048833 0 0.78801076186113728 1 I I #
point $-1 -64.751144095959205 -14.623326390697965 11.375315559873458 #
edge $-1 $492 1 $492 0 $270 $-1 forward 7 unknown #
vertex $-1 $271 $493 #
ellipse-curve $-1 -62.532496763762197 -9.3331988376795891 8.3729001350644747 -0.78801076186113728 0 0.61566146476048833 0.61566146476048833 0 0.78801076186113728 1 I I #
point $-1 -64.751144095959205 -9.3331988376795891 11.375315559873458 #
loop $-1 $-1 $282 $274 #
plane-surface $-1 72.669454023865484 0 0 -1 0 0 0 0 1 forward_v I I I I #
coedge $-1 $401 $277 $279 $405 reversed $172 $-1 #
coedge $-1 $277 $400 $494 $495 reversed $172 $-1 #
coedge $-1 $285 $280 $277 $403 forward $275 $-1 #
edge $-1 $406 32.012644312327339 $496 41.713298793902041 $402 $497 forward 7 unknown #
coedge $-1 $279 $278 $409 $498 reversed $107 $-1 #
edge $-1 $499 -145.338908047731 $406 -132.28538975144272 $400 $500 forward 7 unknown #
vertex $-1 $281 $501 #
straight-curve $-1 62.968799542290782 8.8597077637348676 19.934268849573158 0 -1 0 I I #
coedge $-1 $494 $282 $285 $413 reversed $398 $-1 #
coedge $-1 $282 $494 $404 $498 forward $398 $-1 #
vertex $-1 $283 $502 #
straight-curve $-1 72.669454023865484 22.155686291845548 108.2291646870104 0 0 1 I I #
straight-curve $-1 -35.338402379207963 22.155686291845548 108.45047297094736 0.74314481823134659 0 -0.66913061440640931 I I #
edge $-1 $496 13.283144763093922 $286 22.155686291845548 $408 $503 forward 7 unknown #
point $-1 72.669454023865484 22.155686291845548 19.934268849573165 #
point $-1 62.968799542290782 22.155686291845548 19.934268849573172 #
edge $-1 $504 1 $504 0 $289 $-1 forward 7 unknown #
vertex $-1 $290 $505 #
ellipse-curve $-1 67.14999616867172 15.057653068844246 14.823869672461484 0.66913061440640931 0 0.74314481823134659 0.3715724091156733 0 -0.33456530720320465 1 I I #
point $-1 68.190699192193804 15.057653068844246 15.232449183489626 #
edge $-1 $506 1 $506 0 $293 $-1 forward 7 unknown #
vertex $-1 $294 $507 #
ellipse-curve $-1 67.14999616867172 17.719415527469735 14.823869672461484 0.66913061440640931 0 0.74314481823134659 0.3715724091156733 0 -0.33456530720320465 1 I I #
point $-1 68.190699192193804 17.719415527469735 15.232449183489626 #
edge $-1 $508 1 $508 0 $297 $-1 forward 7 unknown #
vertex $-1 $298 $509 #
ellipse-curve $-1 67.14999616867172 20.381177986095224 14.823869672461484 0.66913061440640931 0 0.74314481823134659 0.3715724091156733 0 -0.33456530720320465 1 I I #
point $-1 68.190699192193804 20.381177986095224 15.232449183489626 #
plane-surface $-1 72.669454023865484 0 0 -1 0 0 0 0 1 forward_v I I I I #
coedge $-1 $306 $304 $308 $433 reversed $201 $-1 #
edge $-1 $319 -19.934268849573165 $435 19.934268849573165 $318 $510 forward 7 unknown #
vertex $-1 $433 $511 #
straight-curve $-1 -72.669454023865484 -40.117566079546727 0 0 0 -1 I I #
edge $-1 $431 -40.117566079546727 $435 40.117566079546727 $429 $512 forward 7 unknown #
straight-curve $-1 0 -40.117566079546727 -19.934268849573165 -1 0 0 I I #
vertex $-1 $311 $513 #
straight-curve $-1 0 40.117566079546727 -19.934268849573165 1 0 0 I I #
point $-1 72.669454023865484 40.117566079546727 -19.934268849573165 #
point $-1 72.669454023865484 -40.117566079546727 -19.934268849573165 #
straight-curve $-1 -72.669454023865484 0 19.934268849573165 0 -1 0 I I #
point $-1 -72.669454023865484 40.117566079546727 19.934268849573165 #
point $-1 -72.669454023865484 -40.117566079546727 19.934268849573165 #
straight-curve $-1 72.669454023865484 -40.117566079546727 0 0 0 -1 I I #
straight-curve $-1 72.669454023865484 40.117566079546727 0 0 0 -1 I I #
loop $-1 $-1 $452 $328 #
plane-surface $-1 -72.669454023865484 0 0 1 0 0 0 0 -1 forward_v I I I I #
coedge $-1 $332 $331 $458 $514 forward $134 $-1 #
edge $-1 $336 24.817632988980897 $461 40.117566079546727 $335 $515 forward 7 unknown #
coedge $-1 $455 $452 $332 $449 reversed $444 $-1 #
edge $-1 $516 -40.117566079546727 $450 -24.817632988980897 $448 $517 forward 7 unknown #
vertex $-1 $453 $518 #
straight-curve $-1 0 -24.817632988980897 -19.934268849573165 1 0 0 I I #
coedge $-1 $448 $338 $334 $453 forward $444 $-1 #
edge $-1 $340 4.2773172442097671 $450 11.863740151645521 $452 $519 forward 7 unknown #
point $-1 72.669454023865484 -24.817632988980897 -19.934268849573165 #
coedge $-1 $338 $448 $342 $459 reversed $444 $-1 #
straight-curve $-1 -72.669454023865484 -16.233799767131906 -12.347845942137411 0 1 0 I I #
point $-1 -72.669454023865484 -24.817632988980897 -12.347845942137411 #
coedge $-1 $343 $342 $446 $514 reversed $329 $-1 #
edge $-1 $344 12.347845942137411 $516 19.934268849573165 $455 $520 forward 7 unknown #
point $-1 -72.669454023865484 -40.117566079546727 -12.347845942137411 #
vertex $-1 $346 $521 #
straight-curve $-1 72.669454023865484 -40.117566079546727 0 0 0 -1 I I #
plane-surface $-1 0 40.117566079546727 0 0 -1 0 0 0 -1 forward_v I I I I #
coedge $-1 $522 $352 $356 $469 forward $236 $-1 #
coedge $-1 $352 $522 $367 $476 forward $236 $-1 #
vertex $-1 $354 $523 #
straight-curve $-1 0 24.817632988980904 -19.934268849573165 -1 0 0 I I #
coedge $-1 $356 $355 $362 $474 forward $350 $-1 #
edge $-1 $357 24.817632988980904 $524 40.117566079546727 $356 $525 forward 7 unknown #
point $-1 -72.669454023865484 24.817632988980904 -19.934268849573165 #
point $-1 -72.669454023865484 24.817632988980904 -12.347845942137411 #
straight-curve $-1 -72.669454023865484 16.233799767131909 -12.347845942137411 0 1 0 I I #
coedge $-1 $362 $361 $522 $526 reversed $363 $-1 #
edge $-1 $364 12.347845942137411 $524 19.934268849573165 $362 $527 forward 7 unknown #
point $-1 -72.669454023865484 40.117566079546734 -12.347845942137411 #
edge $-1 $478 -40.117566079546727 $466 -24.817632988980904 $367 $528 forward 7 unknown #
straight-curve $-1 72.669454023865484 24.817632988980904 -8.070528697927644 0 0 -1 I I #
vertex $-1 $476 $529 #
straight-curve $-1 72.669454023865484 40.117566079546727 0 0 0 -1 I I #
coedge $-1 $383 $382 $375 $481 forward $372 $-1 #
edge $-1 $482 20.929584817446397 $485 35.534881743737955 $480 $530 forward 7 unknown #
vertex $-1 $481 $531 #
straight-curve $-1 -72.669454023865484 -18.150078092710217 45.35995288090372 0 0 1 I I #
edge $-1 $485 -12.160946785615829 $384 0.18268417142705395 $383 $532 forward 7 unknown #
vertex $-1 $484 $533 #
straight-curve $-1 -72.669454023865512 -18.150078092710217 1.2403407464514657 -0.61566146476048833 0 -0.78801076186113728 I I #
point $-1 -72.669454023865484 -18.150078092710217 1.2403407464515022 #
point $-1 -58.064157097573926 -5.8064471356673337 19.934268849573165 #
straight-curve $-1 -72.669454023865484 0 19.934268849573165 0 -1 0 I I #
vertex $-1 $390 $534 #
point $-1 -61.916835299001711 -14.623326390697965 9.1609108969256123 #
vertex $-1 $394 $535 #
point $-1 -61.916835299001711 -9.3331988376795891 9.1609108969256123 #
coedge $-1 $409 $408 $401 $495 forward $398 $-1 #
edge $-1 $496 88.294895837437224 $499 97.0294045551979 $494 $536 forward 7 unknown #
vertex $-1 $413 $537 #
straight-curve $-1 30.956155229963443 13.283144763093922 19.934268849573158 1 0 0 I I #
edge $-1 $499 4.4234369993590548 $410 13.29597852811068 $409 $538 forward 7 unknown #
vertex $-1 $498 $539 #
straight-curve $-1 -35.338402379207963 13.283144763093922 108.45047297094736 -0.74314481823134659 0 0.66913061440640931 I I #
point $-1 62.968799542290782 13.283144763093922 19.934268849573172 #
point $-1 72.669454023865484 22.155686291845548 11.199760131812496 #
straight-curve $-1 72.669454023865484 0 19.934268849573165 0 1 0 I I #
vertex $-1 $416 $540 #
point $-1 67.521568577787392 15.057653068844246 14.489304365258279 #
vertex $-1 $420 $541 #
point $-1 67.521568577787392 17.719415527469735 14.489304365258279 #
vertex $-1 $424 $542 #
point $-1 67.521568577787392 20.381177986095224 14.489304365258279 #
straight-curve $-1 -72.669454023865484 40.117566079546727 0 0 0 -1 I I #
point $-1 -72.669454023865484 -40.117566079546727 -19.934268849573165 #
straight-curve $-1 -72.669454023865484 0 -19.934268849573165 0 1 0 I I #
point $-1 -72.669454023865484 40.117566079546727 -19.934268849573165 #
edge $-1 $461 -72.669454023865484 $516 72.669454023865484 $458 $543 forward 7 unknown #
straight-curve $-1 72.669454023865484 0 -19.934268849573165 0 -1 0 I I #
vertex $-1 $449 $544 #
straight-curve $-1 -72.669454023865484 0 -19.934268849573165 0 1 0 I I #
point $-1 -72.669454023865484 -24.817632988980897 -19.934268849573165 #
straight-curve $-1 -72.669454023865484 -24.817632988980897 -8.070528697927644 0 0 -1 I I #
straight-curve $-1 -72.669454023865484 -40.117566079546727 0 0 0 -1 I I #
point $-1 72.669454023865484 -40.117566079546727 -19.934268849573165 #
coedge $-1 $465 $464 $473 $526 forward $236 $-1 #
point $-1 72.669454023865484 24.817632988980904 -19.934268849573165 #
vertex $-1 $526 $545 #
straight-curve $-1 -72.669454023865484 0 -19.934268849573165 0 1 0 I I #
edge $-1 $524 -72.669454023865484 $478 72.669454023865484 $473 $546 forward 7 unknown #
straight-curve $-1 -72.669454023865484 40.117566079546727 0 0 0 -1 I I #
straight-curve $-1 72.669454023865484 0 -19.934268849573165 0 -1 0 I I #
point $-1 72.669454023865484 40.117566079546727 -19.934268849573165 #
straight-curve $-1 -93.599038841311881 -18.150078092710217 19.934268849573165 1 0 0 I I #
point $-1 -72.669454023865484 -18.150078092710217 19.934268849573165 #
straight-curve $-1 -58.064157097573926 -5.9891313070943877 19.934268849573165 0 1 0 I I #
point $-1 -58.064157097573926 -18.150078092710217 19.934268849573165 #
point $-1 -61.744486001901066 -14.623326390697965 7.7572386703039857 #
point $-1 -61.744486001901066 -9.3331988376795891 7.7572386703039857 #
straight-curve $-1 72.669454023865484 13.283144763093922 108.2291646870104 0 0 -1 I I #
point $-1 72.669454023865484 13.283144763093922 19.934268849573165 #
straight-curve $-1 72.669454023865484 8.8597077637348676 11.199760131812489 0 1 0 I I #
point $-1 72.669454023865484 13.283144763093922 11.199760131812496 #
point $-1 66.815430861468514 15.057653068844246 14.452297263345812 #
point $-1 66.815430861468514 17.719415527469735 14.452297263345812 #
point $-1 66.815430861468514 20.381177986095224 14.452297263345812 #
straight-curve $-1 0 -40.117566079546727 -19.934268849573165 -1 0 0 I I #
point $-1 -72.669454023865484 -40.117566079546727 -19.934268849573165 #
point $-1 -72.669454023865484 40.117566079546727 -19.934268849573165 #
straight-curve $-1 0 40.117566079546727 -19.934268849573165 1 0 0 I I #
End-of-ACIS-data 