500 0 3 0           
7 Unknown 11 ACIS 5.0 NT 24 Fri Mar 26 00:25:43 1999 
-1 9.9999999999999995e-007 1e-010 
body $-1 $3 $-1 $4 #
body $-1 $5 $-1 $6 #
body $-1 $7 $-1 $8 #
lump $-1 $-1 $9 $0 #
transform $-1 1 0 0 0 1 0 0 0 1 79.439680166020693 39.909426648426248 13.330871474644923 1 rotate no_reflect no_shear #
lump $-1 $-1 $10 $1 #
transform $-1 1 0 0 0 1 0 0 0 1 79.439680166020693 39.909426648426248 13.330871474644923 1 rotate no_reflect no_shear #
lump $-1 $-1 $11 $2 #
transform $-1 1 0 0 0 1 0 0 0 1 79.439680166020693 39.909426648426248 13.330871474644923 1 rotate no_reflect no_shear #
shell $-1 $-1 $-1 $12 $-1 $3 #
shell $-1 $-1 $-1 $13 $-1 $5 #
shell $-1 $-1 $-1 $14 $-1 $7 #
face $-1 $15 $16 $9 $-1 $17 forward single #
face $-1 $18 $19 $10 $-1 $20 forward single #
face $-1 $21 $22 $11 $-1 $23 forward single #
face $-1 $24 $25 $9 $-1 $26 reversed single #
loop $-1 $-1 $27 $12 #
plane-surface $-1 0 0 13.330871474644923 0 0 1 1 0 0 forward_v I I I I #
face $-1 $28 $29 $10 $-1 $30 reversed single #
loop $-1 $-1 $31 $13 #
plane-surface $-1 0 -32.15932738312987 -7.3940424979029729 0 0 1 1 0 0 forward_v I I I I #
face $-1 $32 $33 $11 $-1 $34 reversed single #
loop $-1 $-1 $35 $14 #
plane-surface $-1 0 32.159327383129877 -7.3940424979029729 0 0 1 1 0 0 forward_v I I I I #
face $-1 $36 $37 $9 $-1 $38 reversed single #
loop $-1 $-1 $39 $15 #
plane-surface $-1 0 0 -13.330871474644923 0 0 1 1 0 0 forward_v I I I I #
coedge $-1 $40 $41 $42 $43 forward $16 $-1 #
face $-1 $44 $45 $10 $-1 $46 reversed single #
loop $-1 $-1 $47 $18 #
plane-surface $-1 0 -24.409228117833493 -10.362456986273948 0 -1 0 0 0 -1 forward_v I I I I #
coedge $-1 $48 $49 $50 $51 reversed $19 $-1 #
face $-1 $52 $53 $11 $-1 $54 reversed single #
loop $-1 $-1 $55 $21 #
plane-surface $-1 0 24.4092281178335 -10.362456986273948 0 1 0 0 0 1 forward_v I I I I #
coedge $-1 $56 $57 $58 $59 reversed $22 $-1 #
face $-1 $60 $61 $9 $-1 $62 reversed single #
loop $-1 $-1 $63 $24 #
plane-surface $-1 0 -39.909426648426248 0 0 1 0 0 0 1 forward_v I I I I #
coedge $-1 $64 $65 $66 $67 forward $25 $-1 #
coedge $-1 $68 $27 $69 $70 forward $16 $-1 #
coedge $-1 $27 $68 $71 $72 forward $16 $-1 #
coedge $-1 $73 $74 $27 $43 reversed $75 $-1 #
edge $-1 $76 -39.909426648426248 $77 39.909426648426248 $42 $78 forward 7 unknown #
face $-1 $79 $80 $10 $-1 $81 reversed single #
loop $-1 $-1 $82 $28 #
plane-surface $-1 0 0 -13.330871474644923 0 0 1 1 0 0 forward_v I I I I #
coedge $-1 $83 $84 $85 $86 reversed $29 $-1 #
coedge $-1 $87 $31 $84 $88 forward $19 $-1 #
coedge $-1 $31 $87 $89 $90 reversed $19 $-1 #
coedge $-1 $91 $85 $31 $51 forward $80 $-1 #
edge $-1 $92 8.3295644262685578 $93 23.829762956861313 $50 $94 forward 7 unknown #
face $-1 $95 $96 $11 $-1 $97 reversed single #
loop $-1 $-1 $58 $32 #
plane-surface $-1 79.439680166020693 0 0 -1 0 0 0 0 1 forward_v I I I I #
coedge $-1 $98 $99 $100 $101 reversed $33 $-1 #
coedge $-1 $102 $35 $103 $104 reversed $22 $-1 #
coedge $-1 $35 $102 $99 $105 forward $22 $-1 #
coedge $-1 $106 $107 $35 $59 forward $53 $-1 #
edge $-1 $108 -23.829762956861316 $109 -8.3295644262685613 $58 $110 forward 7 unknown #
face $-1 $111 $112 $9 $-1 $113 reversed single #
loop $-1 $-1 $114 $36 #
plane-surface $-1 -79.439680166020693 0 0 1 0 0 0 0 -1 forward_v I I I I #
coedge $-1 $115 $71 $116 $117 forward $37 $-1 #
coedge $-1 $118 $39 $115 $119 forward $25 $-1 #
coedge $-1 $39 $118 $120 $121 forward $25 $-1 #
coedge $-1 $74 $73 $39 $67 reversed $75 $-1 #
edge $-1 $122 -39.909426648426248 $123 39.909426648426248 $66 $124 forward 7 unknown #
coedge $-1 $41 $40 $125 $126 forward $16 $-1 #
coedge $-1 $127 $128 $40 $70 reversed $112 $-1 #
edge $-1 $77 -79.439680166020693 $129 79.439680166020693 $69 $130 forward 7 unknown #
coedge $-1 $63 $131 $41 $72 reversed $37 $-1 #
edge $-1 $132 -79.439680166020693 $76 79.439680166020693 $71 $133 forward 7 unknown #
coedge $-1 $66 $42 $131 $134 forward $75 $-1 #
coedge $-1 $42 $66 $127 $135 reversed $75 $-1 #
loop $-1 $-1 $73 $111 #
vertex $-1 $43 $136 #
vertex $-1 $43 $137 #
straight-curve $-1 79.439680166020693 0 13.330871474644923 0 1 0 I I #
face $-1 $138 $139 $10 $-1 $140 reversed single #
loop $-1 $-1 $85 $44 #
plane-surface $-1 79.439680166020693 0 0 -1 0 0 0 0 1 forward_v I I I I #
coedge $-1 $141 $142 $83 $143 forward $45 $-1 #
coedge $-1 $144 $47 $82 $143 reversed $29 $-1 #
coedge $-1 $47 $144 $48 $88 reversed $29 $-1 #
coedge $-1 $50 $145 $47 $86 forward $80 $-1 #
edge $-1 $146 -8.1496429815079487 $92 -2.212814004765999 $85 $147 forward 7 unknown #
coedge $-1 $49 $48 $148 $149 reversed $19 $-1 #
edge $-1 $92 -79.439680166020693 $150 79.439680166020693 $84 $151 forward 7 unknown #
coedge $-1 $152 $153 $49 $90 forward $139 $-1 #
edge $-1 $93 -79.439680166020693 $154 79.439680166020693 $89 $155 forward 7 unknown #
coedge $-1 $145 $50 $153 $156 forward $80 $-1 #
vertex $-1 $51 $157 #
vertex $-1 $156 $158 #
straight-curve $-1 79.439680166020693 -16.079663691564935 -7.3940424979029729 0 -1 0 I I #
face $-1 $159 $160 $11 $-1 $161 reversed single #
loop $-1 $-1 $162 $52 #
plane-surface $-1 0 0 -13.330871474644923 0 0 1 1 0 0 forward_v I I I I #
coedge $-1 $163 $55 $162 $164 reversed $33 $-1 #
coedge $-1 $55 $163 $57 $105 reversed $33 $-1 #
coedge $-1 $165 $166 $55 $101 forward $160 $-1 #
edge $-1 $167 -8.1496429815079487 $168 -2.212814004765999 $100 $169 forward 7 unknown #
coedge $-1 $57 $56 $165 $170 reversed $22 $-1 #
coedge $-1 $171 $172 $56 $104 forward $173 $-1 #
edge $-1 $174 -79.439680166020693 $108 79.439680166020693 $103 $175 forward 7 unknown #
edge $-1 $168 -79.439680166020693 $109 79.439680166020693 $99 $176 forward 7 unknown #
coedge $-1 $177 $58 $163 $178 forward $53 $-1 #
coedge $-1 $58 $177 $171 $179 reversed $53 $-1 #
vertex $-1 $179 $180 #
vertex $-1 $59 $181 #
straight-curve $-1 79.439680166020693 16.079663691564939 -7.3940424979029729 0 -1 0 I I #
face $-1 $-1 $75 $9 $-1 $182 reversed single #
loop $-1 $-1 $127 $60 #
plane-surface $-1 0 39.909426648426248 0 0 -1 0 0 0 -1 forward_v I I I I #
coedge $-1 $183 $125 $128 $184 forward $61 $-1 #
coedge $-1 $131 $63 $64 $119 reversed $37 $-1 #
coedge $-1 $125 $183 $63 $117 reversed $61 $-1 #
edge $-1 $132 -13.330871474644923 $185 13.330871474644923 $116 $186 forward 7 unknown #
coedge $-1 $65 $64 $183 $187 forward $25 $-1 #
edge $-1 $123 -79.439680166020693 $185 79.439680166020693 $115 $188 forward 7 unknown #
coedge $-1 $128 $127 $65 $121 reversed $112 $-1 #
edge $-1 $189 -79.439680166020693 $122 79.439680166020693 $120 $190 forward 7 unknown #
vertex $-1 $67 $191 #
vertex $-1 $134 $192 #
straight-curve $-1 79.439680166020693 0 -13.330871474644923 0 -1 0 I I #
coedge $-1 $114 $116 $68 $126 reversed $61 $-1 #
edge $-1 $129 -39.909426648426248 $132 39.909426648426248 $125 $193 forward 7 unknown #
coedge $-1 $120 $69 $74 $135 forward $112 $-1 #
coedge $-1 $69 $120 $114 $184 reversed $112 $-1 #
vertex $-1 $70 $194 #
straight-curve $-1 0 39.909426648426248 13.330871474644923 -1 0 0 I I #
coedge $-1 $71 $115 $73 $134 reversed $37 $-1 #
vertex $-1 $126 $195 #
straight-curve $-1 0 -39.909426648426248 13.330871474644923 1 0 0 I I #
edge $-1 $76 -13.330871474644923 $123 13.330871474644923 $73 $196 forward 7 unknown #
edge $-1 $77 -13.330871474644923 $122 13.330871474644923 $74 $197 forward 7 unknown #
point $-1 79.439680166020693 -39.909426648426248 13.330871474644923 #
point $-1 79.439680166020693 39.909426648426248 13.330871474644923 #
face $-1 $-1 $198 $10 $-1 $199 reversed single #
loop $-1 $-1 $89 $79 #
plane-surface $-1 0 -39.909426648426248 0 0 1 0 0 0 1 forward_v I I I I #
coedge $-1 $200 $82 $145 $201 forward $45 $-1 #
coedge $-1 $82 $200 $202 $203 forward $45 $-1 #
edge $-1 $204 -79.439680166020693 $146 79.439680166020693 $82 $205 forward 7 unknown #
coedge $-1 $84 $83 $206 $207 reversed $29 $-1 #
coedge $-1 $85 $91 $141 $201 reversed $80 $-1 #
vertex $-1 $201 $208 #
straight-curve $-1 79.439680166020693 -24.409228117833493 -5.1812284931369739 0 0 1 I I #
coedge $-1 $206 $209 $87 $149 forward $198 $-1 #
edge $-1 $154 -23.829762956861313 $150 -8.3295644262685578 $148 $210 forward 7 unknown #
vertex $-1 $149 $211 #
straight-curve $-1 0 -24.409228117833493 -7.3940424979029729 -1 0 0 I I #
coedge $-1 $212 $89 $209 $213 forward $139 $-1 #
coedge $-1 $89 $212 $91 $156 reversed $139 $-1 #
vertex $-1 $213 $214 #
straight-curve $-1 0 -39.909426648426248 -7.3940424979029729 -1 0 0 I I #
edge $-1 $93 7.3940424979029729 $215 13.330871474644923 $91 $216 forward 7 unknown #
point $-1 79.439680166020693 -24.409228117833493 -7.3940424979029729 #
point $-1 79.439680166020693 -39.909426648426248 -7.3940424979029729 #
face $-1 $-1 $173 $11 $-1 $217 reversed single #
loop $-1 $-1 $165 $95 #
plane-surface $-1 -79.439680166020693 0 0 1 0 0 0 0 -1 forward_v I I I I #
coedge $-1 $218 $219 $98 $164 forward $96 $-1 #
coedge $-1 $99 $98 $106 $178 reversed $33 $-1 #
edge $-1 $220 -79.439680166020693 $167 79.439680166020693 $162 $221 forward 7 unknown #
coedge $-1 $222 $100 $102 $170 forward $160 $-1 #
coedge $-1 $100 $222 $218 $223 reversed $160 $-1 #
vertex $-1 $223 $224 #
vertex $-1 $170 $225 #
straight-curve $-1 -79.439680166020693 24.4092281178335 -5.1812284931369739 0 0 1 I I #
edge $-1 $168 8.3295644262685613 $174 23.829762956861316 $165 $226 forward 7 unknown #
coedge $-1 $227 $103 $107 $179 forward $173 $-1 #
coedge $-1 $103 $227 $222 $228 reversed $173 $-1 #
loop $-1 $-1 $103 $159 #
vertex $-1 $228 $229 #
straight-curve $-1 0 39.909426648426248 -7.3940424979029729 1 0 0 I I #
straight-curve $-1 0 24.4092281178335 -7.3940424979029729 1 0 0 I I #
coedge $-1 $107 $106 $219 $230 reversed $53 $-1 #
edge $-1 $109 2.212814004765999 $220 8.1496429815079487 $106 $231 forward 7 unknown #
edge $-1 $108 7.3940424979029729 $232 13.330871474644923 $107 $233 forward 7 unknown #
point $-1 79.439680166020693 39.909426648426255 -7.3940424979029729 #
point $-1 79.439680166020693 24.4092281178335 -7.3940424979029729 #
plane-surface $-1 79.439680166020693 0 0 -1 0 0 0 0 1 forward_v I I I I #
coedge $-1 $116 $114 $118 $187 reversed $61 $-1 #
edge $-1 $129 -13.330871474644923 $189 13.330871474644923 $128 $234 forward 7 unknown #
vertex $-1 $187 $235 #
straight-curve $-1 -79.439680166020693 -39.909426648426248 0 0 0 -1 I I #
edge $-1 $185 -39.909426648426248 $189 39.909426648426248 $183 $236 forward 7 unknown #
straight-curve $-1 0 -39.909426648426248 -13.330871474644923 -1 0 0 I I #
vertex $-1 $121 $237 #
straight-curve $-1 0 39.909426648426248 -13.330871474644923 1 0 0 I I #
point $-1 79.439680166020693 39.909426648426248 -13.330871474644923 #
point $-1 79.439680166020693 -39.909426648426248 -13.330871474644923 #
straight-curve $-1 -79.439680166020693 0 13.330871474644923 0 -1 0 I I #
point $-1 -79.439680166020693 39.909426648426248 13.330871474644923 #
point $-1 -79.439680166020693 -39.909426648426248 13.330871474644923 #
straight-curve $-1 79.439680166020693 -39.909426648426248 0 0 0 -1 I I #
straight-curve $-1 79.439680166020693 39.909426648426248 0 0 0 -1 I I #
loop $-1 $-1 $206 $138 #
plane-surface $-1 -79.439680166020693 0 0 1 0 0 0 0 -1 forward_v I I I I #
coedge $-1 $142 $141 $212 $238 forward $45 $-1 #
edge $-1 $146 24.409228117833493 $215 39.909426648426248 $145 $239 forward 7 unknown #
coedge $-1 $209 $206 $142 $203 reversed $198 $-1 #
edge $-1 $240 -39.909426648426248 $204 -24.409228117833493 $202 $241 forward 7 unknown #
vertex $-1 $207 $242 #
straight-curve $-1 0 -24.409228117833493 -13.330871474644923 1 0 0 I I #
coedge $-1 $202 $148 $144 $207 forward $198 $-1 #
edge $-1 $150 2.212814004765999 $204 8.1496429815079487 $206 $243 forward 7 unknown #
point $-1 79.439680166020693 -24.409228117833493 -13.330871474644923 #
coedge $-1 $148 $202 $152 $213 reversed $198 $-1 #
straight-curve $-1 -79.439680166020693 -16.079663691564935 -7.3940424979029729 0 1 0 I I #
point $-1 -79.439680166020693 -24.409228117833493 -7.3940424979029729 #
coedge $-1 $153 $152 $200 $238 reversed $139 $-1 #
edge $-1 $154 7.3940424979029729 $240 13.330871474644923 $209 $244 forward 7 unknown #
point $-1 -79.439680166020693 -39.909426648426248 -7.3940424979029729 #
vertex $-1 $156 $245 #
straight-curve $-1 79.439680166020693 -39.909426648426248 0 0 0 -1 I I #
plane-surface $-1 0 39.909426648426248 0 0 -1 0 0 0 -1 forward_v I I I I #
coedge $-1 $246 $162 $166 $223 forward $96 $-1 #
coedge $-1 $162 $246 $177 $230 forward $96 $-1 #
vertex $-1 $164 $247 #
straight-curve $-1 0 24.4092281178335 -13.330871474644923 -1 0 0 I I #
coedge $-1 $166 $165 $172 $228 forward $160 $-1 #
edge $-1 $167 24.4092281178335 $248 39.909426648426248 $166 $249 forward 7 unknown #
point $-1 -79.439680166020693 24.4092281178335 -13.330871474644923 #
point $-1 -79.439680166020693 24.4092281178335 -7.3940424979029729 #
straight-curve $-1 -79.439680166020693 16.079663691564939 -7.3940424979029729 0 1 0 I I #
coedge $-1 $172 $171 $246 $250 reversed $173 $-1 #
edge $-1 $174 7.3940424979029729 $248 13.330871474644923 $172 $251 forward 7 unknown #
point $-1 -79.439680166020693 39.909426648426255 -7.3940424979029729 #
edge $-1 $232 -39.909426648426248 $220 -24.4092281178335 $177 $252 forward 7 unknown #
straight-curve $-1 79.439680166020693 24.4092281178335 -5.1812284931369739 0 0 -1 I I #
vertex $-1 $230 $253 #
straight-curve $-1 79.439680166020693 39.909426648426248 0 0 0 -1 I I #
straight-curve $-1 -79.439680166020693 39.909426648426248 0 0 0 -1 I I #
point $-1 -79.439680166020693 -39.909426648426248 -13.330871474644923 #
straight-curve $-1 -79.439680166020693 0 -13.330871474644923 0 1 0 I I #
point $-1 -79.439680166020693 39.909426648426248 -13.330871474644923 #
edge $-1 $215 -79.439680166020693 $240 79.439680166020693 $212 $254 forward 7 unknown #
straight-curve $-1 79.439680166020693 0 -13.330871474644923 0 -1 0 I I #
vertex $-1 $203 $255 #
straight-curve $-1 -79.439680166020693 0 -13.330871474644923 0 1 0 I I #
point $-1 -79.439680166020693 -24.409228117833493 -13.330871474644923 #
straight-curve $-1 -79.439680166020693 -24.409228117833493 -5.1812284931369739 0 0 -1 I I #
straight-curve $-1 -79.439680166020693 -39.909426648426248 0 0 0 -1 I I #
point $-1 79.439680166020693 -39.909426648426248 -13.330871474644923 #
coedge $-1 $219 $218 $227 $250 forward $96 $-1 #
point $-1 79.439680166020693 24.4092281178335 -13.330871474644923 #
vertex $-1 $250 $256 #
straight-curve $-1 -79.439680166020693 0 -13.330871474644923 0 1 0 I I #
edge $-1 $248 -79.439680166020693 $232 79.439680166020693 $227 $257 forward 7 unknown #
straight-curve $-1 -79.439680166020693 39.909426648426248 0 0 0 -1 I I #
straight-curve $-1 79.439680166020693 0 -13.330871474644923 0 -1 0 I I #
point $-1 79.439680166020693 39.909426648426248 -13.330871474644923 #
straight-curve $-1 0 -39.909426648426248 -13.330871474644923 -1 0 0 I I #
point $-1 -79.439680166020693 -39.909426648426248 -13.330871474644923 #
point $-1 -79.439680166020693 39.909426648426248 -13.330871474644923 #
straight-curve $-1 0 39.909426648426248 -13.330871474644923 1 0 0 I I #
End-of-ACIS-data 