500 0 11 0           
7 Unknown 11 ACIS 5.0 NT 24 Fri Mar 26 02:44:25 1999 
-1 9.9999999999999995e-007 1e-010 
body $-1 $11 $-1 $12 #
body $-1 $13 $-1 $14 #
body $-1 $15 $-1 $16 #
body $-1 $17 $-1 $18 #
body $-1 $19 $-1 $20 #
body $-1 $21 $-1 $22 #
body $-1 $23 $-1 $24 #
body $-1 $25 $-1 $26 #
body $-1 $27 $-1 $28 #
body $-1 $29 $-1 $30 #
body $-1 $31 $-1 $32 #
lump $-1 $-1 $33 $0 #
transform $-1 1 0 0 0 1 0 0 0 1 75.634632404553358 36.954259191990033 13.97759018444429 1 rotate no_reflect no_shear #
lump $-1 $-1 $34 $1 #
transform $-1 1 0 0 0 1 0 0 0 1 75.634632404553358 36.954259191990033 13.97759018444429 1 rotate no_reflect no_shear #
lump $-1 $-1 $35 $2 #
transform $-1 1 0 0 0 1 0 0 0 1 75.634632404553358 36.954259191990033 13.97759018444429 1 rotate no_reflect no_shear #
lump $-1 $-1 $36 $3 #
transform $-1 1 0 0 0 1 0 0 0 1 75.634632404553358 36.954259191990033 13.97759018444429 1 rotate no_reflect no_shear #
lump $-1 $-1 $37 $4 #
transform $-1 1 0 0 0 1 0 0 0 1 75.634632404553358 36.954259191990033 13.97759018444429 1 rotate no_reflect no_shear #
lump $-1 $-1 $38 $5 #
transform $-1 1 0 0 0 1 0 0 0 1 75.634632404553358 36.954259191990033 13.97759018444429 1 rotate no_reflect no_shear #
lump $-1 $-1 $39 $6 #
transform $-1 1 0 0 0 1 0 0 0 1 75.634632404553358 36.954259191990033 13.97759018444429 1 rotate no_reflect no_shear #
lump $-1 $-1 $40 $7 #
transform $-1 1 0 0 0 1 0 0 0 1 75.634632404553358 36.954259191990033 13.97759018444429 1 rotate no_reflect no_shear #
lump $-1 $-1 $41 $8 #
transform $-1 1 0 0 0 1 0 0 0 1 75.634632404553358 36.954259191990033 13.97759018444429 1 rotate no_reflect no_shear #
lump $-1 $-1 $42 $9 #
transform $-1 1 0 0 0 1 0 0 0 1 75.634632404553358 36.954259191990033 13.97759018444429 1 rotate no_reflect no_shear #
lump $-1 $-1 $43 $10 #
transform $-1 1 0 0 0 1 0 0 0 1 75.634632404553358 36.954259191990033 13.97759018444429 1 rotate no_reflect no_shear #
shell $-1 $-1 $-1 $44 $-1 $11 #
shell $-1 $-1 $-1 $45 $-1 $13 #
shell $-1 $-1 $-1 $46 $-1 $15 #
shell $-1 $-1 $-1 $47 $-1 $17 #
shell $-1 $-1 $-1 $48 $-1 $19 #
shell $-1 $-1 $-1 $49 $-1 $21 #
shell $-1 $-1 $-1 $50 $-1 $23 #
shell $-1 $-1 $-1 $51 $-1 $25 #
shell $-1 $-1 $-1 $52 $-1 $27 #
shell $-1 $-1 $-1 $53 $-1 $29 #
shell $-1 $-1 $-1 $54 $-1 $31 #
face $-1 $55 $56 $33 $-1 $57 forward single #
face $-1 $58 $59 $34 $-1 $60 reversed single #
face $-1 $61 $62 $35 $-1 $63 forward single #
face $-1 $64 $65 $36 $-1 $66 forward single #
face $-1 $67 $68 $37 $-1 $69 forward single #
face $-1 $70 $71 $38 $-1 $72 reversed single #
face $-1 $73 $74 $39 $-1 $75 forward single #
face $-1 $76 $77 $40 $-1 $78 forward single #
face $-1 $79 $80 $41 $-1 $81 forward single #
face $-1 $82 $83 $42 $-1 $84 reversed single #
face $-1 $85 $86 $43 $-1 $87 forward single #
face $-1 $88 $89 $33 $-1 $90 reversed single #
loop $-1 $-1 $91 $44 #
plane-surface $-1 0 0 13.97759018444429 0 0 1 1 0 0 forward_v I I I I #
face $-1 $92 $93 $34 $-1 $94 reversed single #
loop $-1 $-1 $95 $45 #
plane-surface $-1 0 -156.15606780038831 94.425843267418074 -1 0 0 0 -0.78801076186113728 0.61566146476048833 forward_v I I I I #
face $-1 $96 $97 $35 $-1 $98 forward single #
loop $-1 $99 $100 $46 #
cone-surface $-1 -22.034983442947201 -29.744451753234131 5.8741847410601702 0 0.78801076186113728 -0.61566146476048833 2.5 0 0 1 I I 0 1 2.5 forward I I I I #
face $-1 $101 $102 $36 $-1 $103 forward single #
loop $-1 $104 $105 $47 #
cone-surface $-1 -13.771864651842002 -29.744451753234131 5.8741847410601702 0 0.78801076186113728 -0.61566146476048833 2.5 0 0 1 I I 0 1 2.5 forward I I I I #
face $-1 $106 $107 $37 $-1 $108 forward single #
loop $-1 $109 $110 $48 #
cone-surface $-1 -5.508745860736795 -29.744451753234131 5.8741847410601702 0 0.78801076186113728 -0.61566146476048833 2.5 0 0 1 I I 0 1 2.5 forward I I I I #
face $-1 $111 $112 $38 $-1 $113 reversed single #
loop $-1 $-1 $114 $49 #
plane-surface $-1 27.543729303683996 -156.15606780038831 94.425843267418074 -1 0 0 0 -0.78801076186113728 0.61566146476048833 forward_v I I I I #
face $-1 $115 $116 $39 $-1 $117 forward single #
loop $-1 $118 $119 $50 #
cone-surface $-1 5.508745860736795 -29.744451753234131 5.8741847410601702 0 0.78801076186113728 -0.61566146476048833 2.5 0 0 1 I I 0 1 2.5 forward I I I I #
face $-1 $120 $121 $40 $-1 $122 forward single #
loop $-1 $123 $124 $51 #
cone-surface $-1 13.771864651841994 -29.744451753234131 5.8741847410601702 0 0.78801076186113728 -0.61566146476048833 2.5 0 0 1 I I 0 1 2.5 forward I I I I #
face $-1 $125 $126 $41 $-1 $127 forward single #
loop $-1 $128 $129 $52 #
cone-surface $-1 22.034983442947208 -29.744451753234131 5.8741847410601702 0 0.78801076186113728 -0.61566146476048833 2.5 0 0 1 I I 0 1 2.5 forward I I I I #
face $-1 $130 $131 $42 $-1 $132 reversed single #
loop $-1 $-1 $133 $53 #
plane-surface $-1 33.117014009052042 60.270021375964006 169.89022820440789 1 0 0 0 -0.55919291073839883 -0.82903756765294845 forward_v I I I I #
face $-1 $134 $135 $43 $-1 $136 forward single #
loop $-1 $137 $138 $54 #
cone-surface $-1 54.375823206802679 25.8747770574114 4.0353185918911301 0 -0.55919291073839883 -0.82903756765294845 3 0 0 1 I I 0 1 3 forward I I I I #
face $-1 $139 $140 $33 $-1 $141 reversed single #
loop $-1 $-1 $142 $55 #
plane-surface $-1 0 0 -13.97759018444429 0 0 1 1 0 0 forward_v I I I I #
coedge $-1 $143 $144 $145 $146 forward $56 $-1 #
face $-1 $147 $148 $34 $-1 $149 reversed single #
loop $-1 $-1 $150 $58 #
plane-surface $-1 -13.771864651842002 -36.954259191990005 1.2951861218012368 0 -0.78801076186113728 0.61566146476048833 1 0 0 forward_v I I I I #
coedge $-1 $151 $152 $153 $154 reversed $59 $-1 #
face $-1 $-1 $155 $35 $-1 $156 forward single #
loop $-1 $157 $158 $61 #
cone-surface $-1 -22.034983442947201 -26.503920727083322 3.3424044980469585 0 0.78801076186113728 -0.61566146476048833 1.25 0 0 1 I I -0.70710678118654746 0.70710678118654746 1.25 forward I I I I #
loop $-1 $-1 $159 $46 #
coedge $-1 $100 $100 $160 $161 reversed $62 $-1 #
face $-1 $-1 $162 $36 $-1 $163 forward single #
loop $-1 $164 $165 $64 #
cone-surface $-1 -13.771864651842002 -26.503920727083322 3.3424044980469585 0 0.78801076186113728 -0.61566146476048833 1.25 0 0 1 I I -0.70710678118654746 0.70710678118654746 1.25 forward I I I I #
loop $-1 $-1 $166 $47 #
coedge $-1 $105 $105 $167 $168 reversed $65 $-1 #
face $-1 $-1 $169 $37 $-1 $170 forward single #
loop $-1 $171 $172 $67 #
cone-surface $-1 -5.508745860736795 -26.503920727083322 3.3424044980469585 0 0.78801076186113728 -0.61566146476048833 1.25 0 0 1 I I -0.70710678118654746 0.70710678118654746 1.25 forward I I I I #
loop $-1 $-1 $173 $48 #
coedge $-1 $110 $110 $174 $175 reversed $68 $-1 #
face $-1 $176 $177 $38 $-1 $178 reversed single #
loop $-1 $-1 $179 $70 #
plane-surface $-1 -13.771864651842002 -36.954259191990005 1.2951861218012368 0 -0.78801076186113728 0.61566146476048833 1 0 0 forward_v I I I I #
coedge $-1 $180 $181 $182 $183 reversed $71 $-1 #
face $-1 $-1 $184 $39 $-1 $185 forward single #
loop $-1 $186 $187 $73 #
cone-surface $-1 5.508745860736795 -26.503920727083322 3.3424044980469585 0 0.78801076186113728 -0.61566146476048833 1.25 0 0 1 I I -0.70710678118654746 0.70710678118654746 1.25 forward I I I I #
loop $-1 $-1 $188 $50 #
coedge $-1 $119 $119 $189 $190 reversed $74 $-1 #
face $-1 $-1 $191 $40 $-1 $192 forward single #
loop $-1 $193 $194 $76 #
cone-surface $-1 13.771864651841994 -26.503920727083322 3.3424044980469585 0 0.78801076186113728 -0.61566146476048833 1.25 0 0 1 I I -0.70710678118654746 0.70710678118654746 1.25 forward I I I I #
loop $-1 $-1 $195 $51 #
coedge $-1 $124 $124 $196 $197 reversed $77 $-1 #
face $-1 $-1 $198 $41 $-1 $199 forward single #
loop $-1 $200 $201 $79 #
cone-surface $-1 22.034983442947208 -26.503920727083322 3.3424044980469585 0 0.78801076186113728 -0.61566146476048833 1.25 0 0 1 I I -0.70710678118654746 0.70710678118654746 1.25 forward I I I I #
loop $-1 $-1 $202 $52 #
coedge $-1 $129 $129 $203 $204 reversed $80 $-1 #
face $-1 $205 $206 $42 $-1 $207 forward single #
loop $-1 $-1 $208 $82 #
plane-surface $-1 54.375823206802707 -24.318679117898014 44.482324846416304 0 0.55919291073839883 0.82903756765294845 1 0 0 forward_v I I I I #
coedge $-1 $209 $210 $211 $212 reversed $83 $-1 #
face $-1 $-1 $213 $43 $-1 $214 forward single #
loop $-1 $215 $216 $85 #
cone-surface $-1 54.375823206802679 21.980410656926729 -1.7383169213773275 0 -0.55919291073839883 -0.82903756765294845 1.5 0 0 1 I I -0.70710678118654757 0.70710678118654757 1.5 forward I I I I #
loop $-1 $-1 $217 $54 #
coedge $-1 $138 $138 $218 $219 reversed $86 $-1 #
face $-1 $220 $221 $33 $-1 $222 reversed single #
loop $-1 $-1 $223 $88 #
plane-surface $-1 0 -36.954259191990033 0 0 1 0 0 0 1 forward_v I I I I #
coedge $-1 $224 $225 $226 $227 forward $89 $-1 #
coedge $-1 $228 $91 $229 $230 forward $56 $-1 #
coedge $-1 $91 $228 $231 $232 forward $56 $-1 #
coedge $-1 $233 $234 $91 $146 reversed $235 $-1 #
edge $-1 $236 -36.954259191990033 $237 36.954259191990033 $145 $238 forward 7 unknown #
face $-1 $239 $240 $34 $-1 $241 reversed single #
loop $-1 $-1 $242 $92 #
plane-surface $-1 -27.543729303684003 -156.15606780038831 94.425843267418074 1 0 0 0 0.78801076186113728 -0.61566146476048833 forward_v I I I I #
coedge $-1 $243 $244 $245 $246 reversed $93 $-1 #
coedge $-1 $152 $95 $247 $248 reversed $59 $-1 #
coedge $-1 $95 $151 $243 $249 reversed $59 $-1 #
coedge $-1 $245 $250 $95 $154 forward $251 $-1 #
edge $-1 $252 41.123774708204124 $253 51.032354438067188 $153 $254 forward 7 unknown #
loop $-1 $-1 $160 $96 #
plane-surface $-1 -13.771864651842002 -36.954259191990005 1.2951861218012368 0 -0.78801076186113728 0.61566146476048833 1 0 0 forward_v I I I I #
loop $-1 $-1 $255 $61 #
coedge $-1 $158 $158 $159 $256 reversed $97 $-1 #
coedge $-1 $159 $159 $158 $256 forward $99 $-1 #
coedge $-1 $160 $160 $100 $161 forward $155 $-1 #
edge $-1 $257 -5.2519971520969746e-016 $257 6.2831853071795996 $160 $258 forward 7 unknown #
loop $-1 $-1 $167 $101 #
plane-surface $-1 -13.771864651842002 -36.954259191990005 1.2951861218012368 0 -0.78801076186113728 0.61566146476048833 1 0 0 forward_v I I I I #
loop $-1 $-1 $259 $64 #
coedge $-1 $165 $165 $166 $260 reversed $102 $-1 #
coedge $-1 $166 $166 $165 $260 forward $104 $-1 #
coedge $-1 $167 $167 $105 $168 forward $162 $-1 #
edge $-1 $261 -5.2519971520969746e-016 $261 6.2831853071795996 $167 $262 forward 7 unknown #
loop $-1 $-1 $174 $106 #
plane-surface $-1 -13.771864651842002 -36.954259191990005 1.2951861218012368 0 -0.78801076186113728 0.61566146476048833 1 0 0 forward_v I I I I #
loop $-1 $-1 $263 $67 #
coedge $-1 $172 $172 $173 $264 reversed $107 $-1 #
coedge $-1 $173 $173 $172 $264 forward $109 $-1 #
coedge $-1 $174 $174 $110 $175 forward $169 $-1 #
edge $-1 $265 -5.2519971520969746e-016 $265 6.2831853071795996 $174 $266 forward 7 unknown #
face $-1 $267 $268 $38 $-1 $269 forward single #
loop $-1 $-1 $270 $111 #
plane-surface $-1 0 -36.954259191990033 0 0 1 0 0 0 1 forward_v I I I I #
coedge $-1 $271 $272 $273 $274 reversed $112 $-1 #
coedge $-1 $181 $114 $275 $276 reversed $71 $-1 #
coedge $-1 $114 $180 $277 $278 reversed $71 $-1 #
coedge $-1 $279 $270 $114 $183 forward $177 $-1 #
edge $-1 $280 -45.917735511907836 $281 -33.235331449264748 $182 $282 forward 7 unknown #
loop $-1 $-1 $189 $115 #
plane-surface $-1 -13.771864651842002 -36.954259191990005 1.2951861218012368 0 -0.78801076186113728 0.61566146476048833 1 0 0 forward_v I I I I #
loop $-1 $-1 $283 $73 #
coedge $-1 $187 $187 $188 $284 reversed $116 $-1 #
coedge $-1 $188 $188 $187 $284 forward $118 $-1 #
coedge $-1 $189 $189 $119 $190 forward $184 $-1 #
edge $-1 $285 -5.2519971520969746e-016 $285 6.2831853071795996 $189 $286 forward 7 unknown #
loop $-1 $-1 $196 $120 #
plane-surface $-1 -13.771864651842002 -36.954259191990005 1.2951861218012368 0 -0.78801076186113728 0.61566146476048833 1 0 0 forward_v I I I I #
loop $-1 $-1 $287 $76 #
coedge $-1 $194 $194 $195 $288 reversed $121 $-1 #
coedge $-1 $195 $195 $194 $288 forward $123 $-1 #
coedge $-1 $196 $196 $124 $197 forward $191 $-1 #
edge $-1 $289 -5.2519971520969746e-016 $289 6.2831853071795996 $196 $290 forward 7 unknown #
loop $-1 $-1 $203 $125 #
plane-surface $-1 -13.771864651842002 -36.954259191990005 1.2951861218012368 0 -0.78801076186113728 0.61566146476048833 1 0 0 forward_v I I I I #
loop $-1 $-1 $291 $79 #
coedge $-1 $201 $201 $202 $292 reversed $126 $-1 #
coedge $-1 $202 $202 $201 $292 forward $128 $-1 #
coedge $-1 $203 $203 $129 $204 forward $198 $-1 #
edge $-1 $293 -5.2519971520969746e-016 $293 6.2831853071795996 $203 $294 forward 7 unknown #
face $-1 $295 $296 $42 $-1 $297 reversed single #
loop $-1 $-1 $211 $130 #
plane-surface $-1 0 0 13.97759018444429 0 0 1 1 0 0 forward_v I I I I #
coedge $-1 $298 $299 $300 $301 reversed $131 $-1 #
coedge $-1 $210 $133 $302 $303 reversed $83 $-1 #
coedge $-1 $133 $209 $298 $304 reversed $83 $-1 #
coedge $-1 $300 $305 $133 $212 forward $206 $-1 #
edge $-1 $306 -6.81924850400803 $307 9.2285616963950758 $211 $308 forward 7 unknown #
loop $-1 $-1 $218 $134 #
plane-surface $-1 54.375823206802707 -24.318679117898014 44.482324846416304 0 0.55919291073839883 0.82903756765294845 1 0 0 forward_v I I I I #
loop $-1 $-1 $309 $85 #
coedge $-1 $216 $216 $217 $310 reversed $135 $-1 #
coedge $-1 $217 $217 $216 $310 forward $137 $-1 #
coedge $-1 $218 $218 $138 $219 forward $213 $-1 #
edge $-1 $311 1.1548449254246758e-017 $311 6.2831853071796004 $218 $312 forward 7 unknown #
face $-1 $313 $314 $33 $-1 $315 reversed single #
loop $-1 $-1 $316 $139 #
plane-surface $-1 -75.634632404553358 0 0 1 0 0 0 0 -1 forward_v I I I I #
coedge $-1 $317 $231 $318 $319 forward $140 $-1 #
coedge $-1 $320 $142 $317 $321 forward $89 $-1 #
coedge $-1 $142 $320 $322 $323 forward $89 $-1 #
coedge $-1 $234 $233 $142 $227 reversed $235 $-1 #
edge $-1 $324 -36.954259191990033 $325 36.954259191990033 $226 $326 forward 7 unknown #
coedge $-1 $144 $143 $327 $328 forward $56 $-1 #
coedge $-1 $329 $330 $143 $230 reversed $314 $-1 #
edge $-1 $237 -75.634632404553358 $331 75.634632404553358 $229 $332 forward 7 unknown #
coedge $-1 $223 $333 $144 $232 reversed $140 $-1 #
edge $-1 $334 -75.634632404553358 $236 75.634632404553358 $231 $335 forward 7 unknown #
coedge $-1 $226 $145 $333 $336 forward $235 $-1 #
coedge $-1 $145 $226 $329 $337 reversed $235 $-1 #
loop $-1 $-1 $233 $313 #
vertex $-1 $146 $338 #
vertex $-1 $146 $339 #
straight-curve $-1 75.634632404553358 0 13.97759018444429 0 1 0 I I #
face $-1 $-1 $251 $34 $-1 $340 forward single #
loop $-1 $-1 $341 $147 #
plane-surface $-1 0 -36.954259191990033 0 0 1 0 0 0 1 forward_v I I I I #
coedge $-1 $342 $343 $344 $345 reversed $148 $-1 #
coedge $-1 $346 $150 $152 $249 forward $93 $-1 #
coedge $-1 $150 $346 $342 $347 forward $93 $-1 #
coedge $-1 $344 $153 $150 $246 forward $251 $-1 #
edge $-1 $253 -6.8859323259210008 $348 20.657796977763002 $245 $349 forward 7 unknown #
coedge $-1 $350 $351 $151 $248 forward $240 $-1 #
edge $-1 $352 -45.917735511907836 $252 -33.235331449264748 $247 $353 forward 7 unknown #
edge $-1 $253 -16.094201597817694 $352 4.6193811539156697e-014 $152 $354 forward 7 unknown #
coedge $-1 $153 $344 $350 $355 forward $251 $-1 #
loop $-1 $-1 $344 $239 #
vertex $-1 $248 $356 #
vertex $-1 $154 $357 #
straight-curve $-1 0 -78.078033900194157 13.977590184444288 0 1 0 I I #
coedge $-1 $255 $255 $-1 $358 reversed $157 $-1 #
edge $-1 $359 0 $359 6.2831853071796004 $158 $360 forward 7 unknown #
vertex $-1 $161 $361 #
ellipse-curve $-1 -22.034983442947201 -31.999969327058498 7.6363881531227529 0 -0.78801076186113728 0.61566146476048833 2.5 0 0 1 I I #
coedge $-1 $259 $259 $-1 $362 reversed $164 $-1 #
edge $-1 $363 0 $363 6.2831853071796004 $165 $364 forward 7 unknown #
vertex $-1 $168 $365 #
ellipse-curve $-1 -13.771864651842002 -31.999969327058498 7.6363881531227529 0 -0.78801076186113728 0.61566146476048833 2.5 0 0 1 I I #
coedge $-1 $263 $263 $-1 $366 reversed $171 $-1 #
edge $-1 $367 0 $367 6.2831853071796004 $172 $368 forward 7 unknown #
vertex $-1 $175 $369 #
ellipse-curve $-1 -5.508745860736795 -31.999969327058498 7.6363881531227529 0 -0.78801076186113728 0.61566146476048833 2.5 0 0 1 I I #
face $-1 $-1 $370 $38 $-1 $371 forward single #
loop $-1 $-1 $372 $176 #
plane-surface $-1 0 -156.15606780038831 94.425843267418074 -1 0 0 0 -0.78801076186113728 0.61566146476048833 forward_v I I I I #
coedge $-1 $182 $373 $272 $374 forward $177 $-1 #
coedge $-1 $275 $179 $375 $376 reversed $112 $-1 #
coedge $-1 $179 $275 $270 $374 reversed $112 $-1 #
coedge $-1 $377 $372 $179 $274 forward $268 $-1 #
edge $-1 $378 -16.094201597817694 $379 4.6193811539156697e-014 $273 $380 forward 7 unknown #
coedge $-1 $272 $271 $180 $276 forward $112 $-1 #
edge $-1 $381 -16.094201597817694 $280 4.6193811539156697e-014 $180 $382 forward 7 unknown #
coedge $-1 $375 $383 $181 $278 forward $370 $-1 #
edge $-1 $281 41.123774708204124 $381 51.032354438067188 $277 $384 forward 7 unknown #
coedge $-1 $373 $182 $383 $385 reversed $177 $-1 #
vertex $-1 $183 $386 #
vertex $-1 $183 $387 #
straight-curve $-1 27.543729303683996 -36.954259191990033 47.212921633709037 0 0 1 I I #
coedge $-1 $283 $283 $-1 $388 reversed $186 $-1 #
edge $-1 $389 0 $389 6.2831853071796004 $187 $390 forward 7 unknown #
vertex $-1 $190 $391 #
ellipse-curve $-1 5.508745860736795 -31.999969327058498 7.6363881531227529 0 -0.78801076186113728 0.61566146476048833 2.5 0 0 1 I I #
coedge $-1 $287 $287 $-1 $392 reversed $193 $-1 #
edge $-1 $393 0 $393 6.2831853071796004 $194 $394 forward 7 unknown #
vertex $-1 $197 $395 #
ellipse-curve $-1 13.771864651841994 -31.999969327058498 7.6363881531227529 0 -0.78801076186113728 0.61566146476048833 2.5 0 0 1 I I #
coedge $-1 $291 $291 $-1 $396 reversed $200 $-1 #
edge $-1 $397 0 $397 6.2831853071796004 $201 $398 forward 7 unknown #
vertex $-1 $204 $399 #
ellipse-curve $-1 22.034983442947208 -31.999969327058498 7.6363881531227529 0 -0.78801076186113728 0.61566146476048833 2.5 0 0 1 I I #
face $-1 $-1 $400 $42 $-1 $401 reversed single #
loop $-1 $-1 $402 $205 #
plane-surface $-1 75.634632404553358 0 0 -1 0 0 0 0 1 forward_v I I I I #
coedge $-1 $403 $208 $210 $304 forward $131 $-1 #
coedge $-1 $208 $403 $402 $404 reversed $131 $-1 #
coedge $-1 $405 $211 $208 $301 forward $206 $-1 #
edge $-1 $307 5.9291024056506885 $406 48.446720801152019 $300 $407 forward 7 unknown #
coedge $-1 $408 $409 $209 $303 forward $400 $-1 #
edge $-1 $410 -81.791908779287908 $306 -70.96752391775965 $302 $411 forward 7 unknown #
edge $-1 $307 54.551361571611039 $410 73.908518383980052 $210 $412 forward 7 unknown #
coedge $-1 $211 $405 $408 $413 forward $206 $-1 #
vertex $-1 $303 $414 #
vertex $-1 $212 $415 #
straight-curve $-1 33.117014009052042 30.135010687982003 13.977590184444296 0 -1 0 I I #
coedge $-1 $309 $309 $-1 $416 reversed $215 $-1 #
edge $-1 $417 0 $417 6.2831853071796004 $216 $418 forward 7 unknown #
vertex $-1 $219 $419 #
ellipse-curve $-1 54.375823206802679 28.930354091788473 8.5653977536801715 0 0.55919291073839883 0.82903756765294845 3 0 0 1 I I #
face $-1 $-1 $235 $33 $-1 $420 reversed single #
loop $-1 $-1 $329 $220 #
plane-surface $-1 0 36.954259191990033 0 0 -1 0 0 0 -1 forward_v I I I I #
coedge $-1 $421 $327 $330 $422 forward $221 $-1 #
coedge $-1 $333 $223 $224 $321 reversed $140 $-1 #
coedge $-1 $327 $421 $223 $319 reversed $221 $-1 #
edge $-1 $334 -13.97759018444429 $423 13.97759018444429 $318 $424 forward 7 unknown #
coedge $-1 $225 $224 $421 $425 forward $89 $-1 #
edge $-1 $325 -75.634632404553358 $423 75.634632404553358 $317 $426 forward 7 unknown #
coedge $-1 $330 $329 $225 $323 reversed $314 $-1 #
edge $-1 $427 -75.634632404553358 $324 75.634632404553358 $322 $428 forward 7 unknown #
vertex $-1 $227 $429 #
vertex $-1 $336 $430 #
straight-curve $-1 75.634632404553358 0 -13.97759018444429 0 -1 0 I I #
coedge $-1 $316 $318 $228 $328 reversed $221 $-1 #
edge $-1 $331 -36.954259191990033 $334 36.954259191990033 $327 $431 forward 7 unknown #
coedge $-1 $322 $229 $234 $337 forward $314 $-1 #
coedge $-1 $229 $322 $316 $422 reversed $314 $-1 #
vertex $-1 $230 $432 #
straight-curve $-1 0 36.954259191990033 13.97759018444429 -1 0 0 I I #
coedge $-1 $231 $317 $233 $336 reversed $140 $-1 #
vertex $-1 $328 $433 #
straight-curve $-1 0 -36.954259191990033 13.97759018444429 1 0 0 I I #
edge $-1 $236 -13.97759018444429 $325 13.97759018444429 $233 $434 forward 7 unknown #
edge $-1 $237 -13.97759018444429 $324 13.97759018444429 $234 $435 forward 7 unknown #
point $-1 75.634632404553358 -36.954259191990033 13.97759018444429 #
point $-1 75.634632404553358 36.954259191990033 13.97759018444429 #
plane-surface $-1 0 0 13.97759018444429 0 0 1 1 0 0 forward_v I I I I #
coedge $-1 $351 $350 $343 $436 forward $240 $-1 #
coedge $-1 $343 $242 $244 $347 reversed $148 $-1 #
coedge $-1 $242 $342 $341 $436 reversed $148 $-1 #
coedge $-1 $250 $245 $242 $345 forward $251 $-1 #
edge $-1 $348 -51.032354438067188 $437 -41.123774708204124 $344 $438 forward 7 unknown #
coedge $-1 $244 $243 $351 $439 reversed $93 $-1 #
edge $-1 $440 -4.6193811539156697e-014 $348 16.094201597817694 $342 $441 forward 7 unknown #
vertex $-1 $246 $442 #
straight-curve $-1 -6.8859323259210008 -27.045679462126973 13.97759018444429 -1 0 0 I I #
coedge $-1 $341 $247 $250 $355 reversed $240 $-1 #
coedge $-1 $247 $341 $346 $439 forward $240 $-1 #
vertex $-1 $248 $443 #
straight-curve $-1 0 -36.954259191990033 47.212921633709037 0 0 1 I I #
straight-curve $-1 0 -36.954259191990005 1.2951861218012368 0 -0.61566146476048833 -0.78801076186113728 I I #
edge $-1 $437 -27.543729303684003 $252 0 $350 $444 forward 7 unknown #
point $-1 0 -36.954259191990033 13.97759018444429 #
point $-1 0 -27.045679462126969 13.97759018444429 #
edge $-1 $445 1 $445 0 $255 $-1 forward 7 unknown #
vertex $-1 $256 $446 #
ellipse-curve $-1 -22.034983442947201 -27.488934179409743 4.1119813289975689 0 -0.78801076186113728 0.61566146476048833 2.5 0 0 1 I I #
point $-1 -19.534983442947201 -31.999969327058523 7.6363881531227706 #
edge $-1 $447 1 $447 0 $259 $-1 forward 7 unknown #
vertex $-1 $260 $448 #
ellipse-curve $-1 -13.771864651842002 -27.488934179409743 4.1119813289975689 0 -0.78801076186113728 0.61566146476048833 2.5 0 0 1 I I #
point $-1 -11.271864651842002 -31.999969327058523 7.6363881531227706 #
edge $-1 $449 1 $449 0 $263 $-1 forward 7 unknown #
vertex $-1 $264 $450 #
ellipse-curve $-1 -5.508745860736795 -27.488934179409743 4.1119813289975689 0 -0.78801076186113728 0.61566146476048833 2.5 0 0 1 I I #
point $-1 -3.008745860736795 -31.999969327058523 7.6363881531227706 #
loop $-1 $-1 $375 $267 #
plane-surface $-1 0 0 13.97759018444429 0 0 1 1 0 0 forward_v I I I I #
coedge $-1 $273 $377 $451 $452 reversed $268 $-1 #
coedge $-1 $270 $279 $377 $453 forward $177 $-1 #
edge $-1 $379 6.8859323259210008 $280 34.429661629604993 $270 $454 forward 7 unknown #
coedge $-1 $451 $277 $271 $376 forward $370 $-1 #
edge $-1 $381 -34.429661629604993 $378 -6.8859323259210008 $375 $455 forward 7 unknown #
coedge $-1 $372 $273 $373 $453 reversed $268 $-1 #
vertex $-1 $376 $456 #
vertex $-1 $374 $457 #
straight-curve $-1 0 -36.954259191990005 1.2951861218012368 0 -0.61566146476048833 -0.78801076186113728 I I #
vertex $-1 $278 $458 #
straight-curve $-1 27.543729303683996 -36.954259191990005 1.2951861218012368 0 -0.61566146476048833 -0.78801076186113728 I I #
coedge $-1 $277 $451 $279 $385 forward $370 $-1 #
straight-curve $-1 27.543729303683996 -78.078033900194157 13.977590184444288 0 1 0 I I #
edge $-1 $459 0 $281 27.543729303683996 $279 $460 forward 7 unknown #
point $-1 27.543729303683996 -36.954259191990033 1.2951861218012004 #
point $-1 27.543729303683996 -36.954259191990033 13.97759018444429 #
edge $-1 $461 1 $461 0 $283 $-1 forward 7 unknown #
vertex $-1 $284 $462 #
ellipse-curve $-1 5.508745860736795 -27.488934179409743 4.1119813289975689 0 -0.78801076186113728 0.61566146476048833 2.5 0 0 1 I I #
point $-1 8.008745860736795 -31.999969327058523 7.6363881531227706 #
edge $-1 $463 1 $463 0 $287 $-1 forward 7 unknown #
vertex $-1 $288 $464 #
ellipse-curve $-1 13.771864651841994 -27.488934179409743 4.1119813289975689 0 -0.78801076186113728 0.61566146476048833 2.5 0 0 1 I I #
point $-1 16.271864651841994 -31.999969327058523 7.6363881531227706 #
edge $-1 $465 1 $465 0 $291 $-1 forward 7 unknown #
vertex $-1 $292 $466 #
ellipse-curve $-1 22.034983442947208 -27.488934179409743 4.1119813289975689 0 -0.78801076186113728 0.61566146476048833 2.5 0 0 1 I I #
point $-1 24.534983442947208 -31.999969327058523 7.6363881531227706 #
loop $-1 $-1 $302 $295 #
plane-surface $-1 0 36.954259191990033 0 0 -1 0 0 0 -1 forward_v I I I I #
coedge $-1 $467 $468 $299 $404 forward $296 $-1 #
coedge $-1 $299 $298 $409 $469 reversed $131 $-1 #
edge $-1 $406 32.033711925754417 $470 51.390868738123423 $402 $471 forward 7 unknown #
coedge $-1 $305 $300 $468 $472 forward $206 $-1 #
vertex $-1 $472 $473 #
straight-curve $-1 27.187911603401353 20.906448991586934 13.977590184444288 1 0 0 I I #
coedge $-1 $474 $302 $305 $413 reversed $400 $-1 #
coedge $-1 $302 $474 $403 $469 forward $400 $-1 #
vertex $-1 $303 $475 #
straight-curve $-1 33.117014009052042 36.954259191990033 84.945114102203945 0 0 1 I I #
straight-curve $-1 33.117014009052042 -24.318679117898014 44.482324846416304 0 0.82903756765294845 -0.55919291073839883 I I #
edge $-1 $476 -75.634632404553358 $306 -33.117014009052042 $408 $477 forward 7 unknown #
point $-1 33.117014009052042 36.954259191990033 13.97759018444429 #
point $-1 33.117014009052042 20.906448991586927 13.977590184444288 #
edge $-1 $478 1 $478 0 $309 $-1 forward 7 unknown #
vertex $-1 $310 $479 #
ellipse-curve $-1 54.375823206802679 22.819200023034327 -0.49476056989790473 0 0.55919291073839883 0.82903756765294845 3 0 0 1 I I #
point $-1 57.375823206802679 28.93035409178847 8.5653977536801662 #
plane-surface $-1 75.634632404553358 0 0 -1 0 0 0 0 1 forward_v I I I I #
coedge $-1 $318 $316 $320 $425 reversed $221 $-1 #
edge $-1 $331 -13.97759018444429 $427 13.97759018444429 $330 $480 forward 7 unknown #
vertex $-1 $425 $481 #
straight-curve $-1 -75.634632404553358 -36.954259191990033 0 0 0 -1 I I #
edge $-1 $423 -36.954259191990033 $427 36.954259191990033 $421 $482 forward 7 unknown #
straight-curve $-1 0 -36.954259191990033 -13.97759018444429 -1 0 0 I I #
vertex $-1 $323 $483 #
straight-curve $-1 0 36.954259191990033 -13.97759018444429 1 0 0 I I #
point $-1 75.634632404553358 36.954259191990033 -13.97759018444429 #
point $-1 75.634632404553358 -36.954259191990033 -13.97759018444429 #
straight-curve $-1 -75.634632404553358 0 13.97759018444429 0 -1 0 I I #
point $-1 -75.634632404553358 36.954259191990033 13.97759018444429 #
point $-1 -75.634632404553358 -36.954259191990033 13.97759018444429 #
straight-curve $-1 75.634632404553358 -36.954259191990033 0 0 0 -1 I I #
straight-curve $-1 75.634632404553358 36.954259191990033 0 0 0 -1 I I #
edge $-1 $437 33.235331449264748 $440 45.917735511907836 $341 $484 forward 7 unknown #
vertex $-1 $355 $485 #
straight-curve $-1 -27.543729303684003 -78.078033900194157 13.977590184444288 0 -1 0 I I #
edge $-1 $440 -20.657796977763002 $352 6.8859323259210008 $351 $486 forward 7 unknown #
vertex $-1 $439 $487 #
straight-curve $-1 -27.543729303684003 -36.954259191990005 1.2951861218012368 0 0.61566146476048833 0.78801076186113728 I I #
point $-1 -27.543729303684003 -27.045679462126969 13.97759018444429 #
point $-1 0 -36.954259191990033 1.2951861218012004 #
straight-curve $-1 0 -36.954259191990033 13.97759018444429 1 0 0 I I #
vertex $-1 $358 $488 #
point $-1 -19.534983442947201 -27.488934179409743 4.1119813289975689 #
vertex $-1 $362 $489 #
point $-1 -11.271864651842002 -27.488934179409743 4.1119813289975689 #
vertex $-1 $366 $490 #
point $-1 -3.008745860736795 -27.488934179409743 4.1119813289975689 #
coedge $-1 $383 $375 $372 $452 forward $370 $-1 #
edge $-1 $378 -51.032354438067188 $459 -41.123774708204124 $451 $491 forward 7 unknown #
edge $-1 $459 33.235331449264748 $379 45.917735511907836 $373 $492 forward 7 unknown #
straight-curve $-1 -6.8859323259210008 -36.954259191990033 1.2951861218012048 1 0 0 I I #
straight-curve $-1 -6.8859323259210008 -27.045679462126973 13.97759018444429 -1 0 0 I I #
point $-1 0 -27.045679462126969 13.97759018444429 #
point $-1 0 -36.954259191990033 1.2951861218012004 #
point $-1 27.543729303683996 -27.045679462126969 13.97759018444429 #
vertex $-1 $385 $493 #
straight-curve $-1 0 -36.954259191990033 13.97759018444429 1 0 0 I I #
vertex $-1 $388 $494 #
point $-1 8.008745860736795 -27.488934179409743 4.1119813289975689 #
vertex $-1 $392 $495 #
point $-1 16.271864651841994 -27.488934179409743 4.1119813289975689 #
vertex $-1 $396 $496 #
point $-1 24.534983442947208 -27.488934179409743 4.1119813289975689 #
coedge $-1 $468 $402 $474 $497 reversed $296 $-1 #
coedge $-1 $402 $467 $405 $472 reversed $296 $-1 #
edge $-1 $470 -48.446720801152019 $410 -5.9291024056506885 $409 $498 forward 7 unknown #
vertex $-1 $404 $499 #
straight-curve $-1 75.634632404553358 -5.6507016262357617 31.890614797962257 0 0.82903756765294845 -0.55919291073839883 I I #
edge $-1 $406 20.906448991586927 $476 36.954259191990033 $468 $500 forward 7 unknown #
point $-1 75.634632404553372 20.906448991586927 13.977590184444288 #
coedge $-1 $409 $408 $467 $497 forward $400 $-1 #
point $-1 33.117014009052042 36.954259191990033 3.1532053229160368 #
vertex $-1 $472 $501 #
straight-curve $-1 0 36.954259191990033 13.97759018444429 -1 0 0 I I #
vertex $-1 $416 $502 #
point $-1 57.375823206802679 22.819200023034327 -0.49476056989790473 #
straight-curve $-1 -75.634632404553358 36.954259191990033 0 0 0 -1 I I #
point $-1 -75.634632404553358 -36.954259191990033 -13.97759018444429 #
straight-curve $-1 -75.634632404553358 0 -13.97759018444429 0 1 0 I I #
point $-1 -75.634632404553358 36.954259191990033 -13.97759018444429 #
straight-curve $-1 -27.543729303684003 -36.954259191990033 47.212921633709037 0 0 -1 I I #
point $-1 -27.543729303684003 -36.954259191990033 13.97759018444429 #
straight-curve $-1 -6.8859323259210008 -36.954259191990033 1.2951861218012048 1 0 0 I I #
point $-1 -27.543729303684003 -36.954259191990033 1.2951861218012004 #
point $-1 -22.034983442947201 -25.518907274756902 2.5728276670963481 #
point $-1 -13.771864651842002 -25.518907274756902 2.5728276670963481 #
point $-1 -5.508745860736795 -25.518907274756902 2.5728276670963481 #
straight-curve $-1 0 -78.078033900194157 13.977590184444288 0 -1 0 I I #
straight-curve $-1 0 -36.954259191990033 47.212921633709037 0 0 -1 I I #
point $-1 0 -36.954259191990033 13.97759018444429 #
point $-1 5.508745860736795 -25.518907274756902 2.5728276670963481 #
point $-1 13.771864651841994 -25.518907274756902 2.5728276670963481 #
point $-1 22.034983442947208 -25.518907274756902 2.5728276670963481 #
edge $-1 $476 -13.97759018444429 $470 -3.1532053229160368 $467 $503 forward 7 unknown #
straight-curve $-1 27.187911603401353 36.95425919199004 3.1532053229160368 -1 0 0 I I #
point $-1 75.634632404553372 36.954259191990033 3.1532053229160368 #
straight-curve $-1 75.634632404553358 0 13.97759018444429 0 1 0 I I #
point $-1 75.634632404553358 36.954259191990033 13.97759018444429 #
point $-1 54.375823206802679 21.141621290819131 -2.9818732728567503 #
straight-curve $-1 75.634632404553358 36.954259191990033 0 0 0 -1 I I #
End-of-ACIS-data 