500 0 5 0           
7 Unknown 11 ACIS 5.0 NT 24 Fri Mar 26 19:27:40 1999 
-1 9.9999999999999995e-007 1e-010 
body $-1 $5 $-1 $6 #
body $-1 $7 $-1 $8 #
body $-1 $9 $-1 $10 #
body $-1 $11 $-1 $12 #
body $-1 $13 $-1 $14 #
lump $-1 $-1 $15 $0 #
transform $-1 1 0 0 0 1 0 0 0 1 76.613666188543348 36.619634952188086 8.8175682183071018 1 rotate no_reflect no_shear #
lump $-1 $-1 $16 $1 #
transform $-1 1 0 0 0 1 0 0 0 1 76.613666188543348 36.619634952188086 8.8175682183071018 1 rotate no_reflect no_shear #
lump $-1 $-1 $17 $2 #
transform $-1 1 0 0 0 1 0 0 0 1 76.613666188543348 36.619634952188086 8.8175682183071018 1 rotate no_reflect no_shear #
lump $-1 $-1 $18 $3 #
transform $-1 1 0 0 0 1 0 0 0 1 76.613666188543348 36.619634952188086 8.8175682183071018 1 rotate no_reflect no_shear #
lump $-1 $-1 $19 $4 #
transform $-1 1 0 0 0 1 0 0 0 1 76.613666188543348 36.619634952188086 8.8175682183071018 1 rotate no_reflect no_shear #
shell $-1 $-1 $-1 $20 $-1 $5 #
shell $-1 $-1 $-1 $21 $-1 $7 #
shell $-1 $-1 $-1 $22 $-1 $9 #
shell $-1 $-1 $-1 $23 $-1 $11 #
shell $-1 $-1 $-1 $24 $-1 $13 #
face $-1 $25 $26 $15 $-1 $27 forward single #
face $-1 $28 $29 $16 $-1 $30 forward single #
face $-1 $31 $32 $17 $-1 $33 forward single #
face $-1 $34 $35 $18 $-1 $36 reversed single #
face $-1 $37 $38 $19 $-1 $39 reversed single #
face $-1 $40 $41 $15 $-1 $42 reversed single #
loop $-1 $-1 $43 $20 #
plane-surface $-1 0 0 8.8175682183071018 0 0 1 1 0 0 forward_v I I I I #
face $-1 $44 $45 $16 $-1 $46 reversed single #
loop $-1 $-1 $47 $21 #
plane-surface $-1 0 -40.639110790303491 5.6301642017234377 0 0 1 1 0 0 forward_v I I I I #
face $-1 $48 $49 $17 $-1 $50 forward single #
loop $-1 $-1 $51 $22 #
plane-surface $-1 53.962750544998372 -19.432103817430601 218.60633404638207 0 -1 0 -0.62932039886446345 0 -0.77714595512881146 forward_v I I I I #
face $-1 $52 $53 $18 $-1 $54 reversed single #
loop $-1 $55 $56 $23 #
cone-surface $-1 72.764840911785797 -25.966803430663944 5.5661662041997522 -0.62932039886446345 0 -0.77714595512881146 0.77714595512881146 0 -0.62932039886446345 1 I I 0 1 1 forward I I I I #
face $-1 $57 $58 $19 $-1 $59 reversed single #
loop $-1 $60 $61 $24 #
cone-surface $-1 72.764840911785797 -22.045983662723934 5.5661662041997522 -0.62932039886446345 0 -0.77714595512881146 0.77714595512881146 0 -0.62932039886446345 1 I I 0 1 1 forward I I I I #
face $-1 $62 $63 $15 $-1 $64 reversed single #
loop $-1 $-1 $65 $25 #
plane-surface $-1 0 0 -8.8175682183071018 0 0 1 1 0 0 forward_v I I I I #
coedge $-1 $66 $67 $68 $69 forward $26 $-1 #
face $-1 $70 $71 $16 $-1 $72 reversed single #
loop $-1 $-1 $73 $28 #
plane-surface $-1 0 -40.639110790303491 2.1297777192839371 0 0 1 1 0 0 forward_v I I I I #
coedge $-1 $74 $75 $76 $77 forward $29 $-1 #
face $-1 $78 $79 $17 $-1 $80 forward single #
loop $-1 $-1 $81 $31 #
plane-surface $-1 -42.466335383487547 -24.006393546693943 99.526332474351179 0.62932039886446345 0 0.77714595512881146 0.77714595512881146 0 -0.62932039886446345 forward_v I I I I #
coedge $-1 $82 $83 $84 $85 reversed $32 $-1 #
face $-1 $86 $87 $18 $-1 $88 forward single #
loop $-1 $89 $90 $34 #
cone-surface $-1 72.133359846858767 -25.966803430663944 4.7863520487489097 -0.62932039886446345 0 -0.77714595512881146 0.38857297756440573 0 -0.31466019943223172 1 I I -0.70710678118654746 0.70710678118654746 0.5 forward I I I I #
loop $-1 $-1 $91 $23 #
coedge $-1 $56 $56 $92 $93 reversed $35 $-1 #
face $-1 $94 $95 $19 $-1 $96 reversed single #
loop $-1 $97 $98 $37 #
cone-surface $-1 72.133359846858767 -22.045983662723934 4.7863520487489097 -0.62932039886446345 0 -0.77714595512881146 0.38857297756440573 0 -0.31466019943223172 1 I I -0.70710678118654746 0.70710678118654746 0.5 forward I I I I #
loop $-1 $-1 $99 $24 #
coedge $-1 $61 $61 $100 $101 reversed $38 $-1 #
face $-1 $102 $103 $15 $-1 $104 reversed single #
loop $-1 $-1 $105 $40 #
plane-surface $-1 0 -36.619634952188086 0 0 1 0 0 0 1 forward_v I I I I #
coedge $-1 $106 $107 $108 $109 forward $41 $-1 #
coedge $-1 $110 $43 $111 $112 forward $26 $-1 #
coedge $-1 $43 $110 $113 $114 forward $26 $-1 #
coedge $-1 $115 $116 $43 $69 reversed $117 $-1 #
edge $-1 $118 -36.619634952188086 $119 36.619634952188086 $68 $120 forward 7 unknown #
face $-1 $121 $122 $16 $-1 $123 reversed single #
loop $-1 $-1 $124 $44 #
plane-surface $-1 0 -44.658586628418888 3.8799709605036874 0 1 0 0 0 1 forward_v I I I I #
coedge $-1 $125 $126 $127 $128 forward $45 $-1 #
coedge $-1 $129 $47 $130 $131 reversed $29 $-1 #
coedge $-1 $47 $129 $132 $133 forward $29 $-1 #
coedge $-1 $134 $135 $47 $77 reversed $136 $-1 #
edge $-1 $137 -4.0194758381153974 $138 4.0194758381153974 $76 $139 forward 7 unknown #
face $-1 $140 $141 $17 $-1 $142 forward single #
loop $-1 $-1 $143 $48 #
plane-surface $-1 53.962750544998372 -28.580683275957284 218.60633404638207 0 1 0 0.62932039886446345 0 0.77714595512881146 forward_v I I I I #
coedge $-1 $144 $145 $146 $147 reversed $49 $-1 #
coedge $-1 $83 $51 $145 $148 forward $32 $-1 #
coedge $-1 $51 $82 $149 $150 reversed $32 $-1 #
coedge $-1 $151 $146 $51 $85 forward $141 $-1 #
edge $-1 $152 42.56828209351864 $153 49.632290916044163 $84 $154 forward 7 unknown #
face $-1 $155 $156 $18 $-1 $157 forward single #
loop $-1 $-1 $158 $52 #
plane-surface $-1 53.962750544998372 -19.432103817430601 218.60633404638207 0 -1 0 -0.62932039886446345 0 -0.77714595512881146 forward_v I I I I #
loop $-1 $-1 $159 $34 #
coedge $-1 $90 $90 $91 $160 forward $53 $-1 #
coedge $-1 $91 $91 $90 $160 reversed $55 $-1 #
coedge $-1 $92 $92 $56 $93 forward $156 $-1 #
edge $-1 $161 0 $161 6.2831853071796004 $92 $162 forward 7 unknown #
face $-1 $163 $164 $19 $-1 $165 reversed single #
loop $-1 $166 $167 $57 #
cone-surface $-1 72.764840911785797 -25.966803430663944 5.5661662041997522 -0.62932039886446345 0 -0.77714595512881146 0.77714595512881146 0 -0.62932039886446345 1 I I 0 1 1 forward I I I I #
loop $-1 $-1 $168 $37 #
coedge $-1 $98 $98 $99 $169 forward $58 $-1 #
coedge $-1 $99 $99 $98 $169 reversed $60 $-1 #
coedge $-1 $100 $100 $61 $101 forward $170 $-1 #
edge $-1 $171 0 $171 6.2831853071796004 $100 $172 forward 7 unknown #
face $-1 $173 $174 $15 $-1 $175 reversed single #
loop $-1 $-1 $176 $62 #
plane-surface $-1 -76.613666188543348 0 0 1 0 0 0 0 -1 forward_v I I I I #
coedge $-1 $177 $113 $178 $179 forward $63 $-1 #
coedge $-1 $180 $65 $177 $181 forward $41 $-1 #
coedge $-1 $65 $180 $182 $183 forward $41 $-1 #
coedge $-1 $116 $115 $65 $109 reversed $117 $-1 #
edge $-1 $184 -36.619634952188086 $185 36.619634952188086 $108 $186 forward 7 unknown #
coedge $-1 $67 $66 $187 $188 forward $26 $-1 #
coedge $-1 $189 $190 $66 $112 reversed $174 $-1 #
edge $-1 $119 -76.613666188543348 $191 76.613666188543348 $111 $192 forward 7 unknown #
coedge $-1 $105 $193 $67 $114 reversed $63 $-1 #
edge $-1 $194 -76.613666188543348 $118 76.613666188543348 $113 $195 forward 7 unknown #
coedge $-1 $108 $68 $193 $196 forward $117 $-1 #
coedge $-1 $68 $108 $189 $197 reversed $117 $-1 #
loop $-1 $-1 $115 $173 #
vertex $-1 $69 $198 #
vertex $-1 $69 $199 #
straight-curve $-1 76.613666188543348 0 8.8175682183071018 0 1 0 I I #
face $-1 $200 $201 $16 $-1 $123 reversed single #
loop $-1 $-1 $202 $70 #
plane-surface $-1 0 -36.619634952188086 0 0 1 0 0 0 1 forward_v I I I I #
coedge $-1 $203 $132 $204 $205 forward $71 $-1 #
coedge $-1 $206 $73 $203 $207 forward $45 $-1 #
coedge $-1 $73 $206 $202 $208 reversed $45 $-1 #
coedge $-1 $209 $134 $73 $128 reversed $136 $-1 #
edge $-1 $210 -4.0194758381153974 $211 4.0194758381153974 $127 $212 forward 7 unknown #
coedge $-1 $75 $74 $213 $214 forward $29 $-1 #
coedge $-1 $215 $216 $74 $131 forward $201 $-1 #
edge $-1 $217 -76.613666188543348 $138 76.613666188543348 $130 $218 forward 7 unknown #
coedge $-1 $124 $219 $75 $133 reversed $71 $-1 #
edge $-1 $220 -76.613666188543348 $137 76.613666188543348 $132 $221 forward 7 unknown #
coedge $-1 $127 $76 $219 $222 forward $136 $-1 #
coedge $-1 $76 $223 $215 $224 forward $136 $-1 #
loop $-1 $-1 $135 $225 #
vertex $-1 $77 $226 #
vertex $-1 $77 $227 #
straight-curve $-1 76.613666188543348 -40.639110790303491 5.6301642017234377 0 1 0 I I #
face $-1 $228 $229 $17 $-1 $230 forward single #
loop $-1 $-1 $231 $78 #
plane-surface $-1 0 0 8.8175682183071018 0 0 1 1 0 0 forward_v I I I I #
coedge $-1 $232 $233 $231 $234 reversed $79 $-1 #
coedge $-1 $235 $81 $233 $236 reversed $49 $-1 #
coedge $-1 $81 $235 $82 $148 reversed $49 $-1 #
coedge $-1 $84 $231 $81 $147 forward $141 $-1 #
edge $-1 $237 -16.577486502610313 $152 -7.4289070440836298 $146 $238 forward 7 unknown #
edge $-1 $152 144.13765137713261 $239 153.2273323770867 $82 $240 forward 7 unknown #
coedge $-1 $241 $242 $83 $150 forward $243 $-1 #
edge $-1 $153 100.48559880488394 $239 106.20592047732578 $149 $244 forward 7 unknown #
coedge $-1 $245 $84 $242 $246 forward $141 $-1 #
vertex $-1 $147 $247 #
vertex $-1 $246 $248 #
straight-curve $-1 26.981375272499186 -19.432103817430601 8.8175682183071018 1 0 0 I I #
face $-1 $249 $250 $18 $-1 $251 forward single #
loop $-1 $252 $92 $86 #
plane-surface $-1 -42.466335383487547 -24.006393546693943 99.526332474351179 0.62932039886446345 0 0.77714595512881146 0.77714595512881146 0 -0.62932039886446345 forward_v I I I I #
coedge $-1 $253 $254 $255 $256 reversed $87 $-1 #
coedge $-1 $159 $159 $-1 $257 forward $89 $-1 #
edge $-1 $258 0 $258 6.2831853071796004 $90 $259 forward 7 unknown #
vertex $-1 $93 $260 #
ellipse-curve $-1 73.081661777280601 -25.966803430663944 5.9574073820861893 -0.62932039886446345 0 -0.77714595512881146 0.77714595512881146 0 -0.62932039886446345 1 I I #
face $-1 $261 $262 $19 $-1 $263 forward single #
loop $-1 $264 $265 $94 #
cone-surface $-1 72.133359846858767 -25.966803430663944 4.7863520487489097 -0.62932039886446345 0 -0.77714595512881146 0.38857297756440573 0 -0.31466019943223172 1 I I -0.70710678118654746 0.70710678118654746 0.5 forward I I I I #
loop $-1 $-1 $266 $57 #
coedge $-1 $167 $167 $267 $268 reversed $95 $-1 #
coedge $-1 $168 $168 $-1 $269 forward $97 $-1 #
edge $-1 $270 0 $270 6.2831853071796004 $98 $271 forward 7 unknown #
loop $-1 $272 $100 $261 #
vertex $-1 $101 $273 #
ellipse-curve $-1 73.081661777280601 -22.045983662723934 5.9574073820861893 -0.62932039886446345 0 -0.77714595512881146 0.77714595512881146 0 -0.62932039886446345 1 I I #
face $-1 $-1 $117 $15 $-1 $274 reversed single #
loop $-1 $-1 $189 $102 #
plane-surface $-1 0 36.619634952188086 0 0 -1 0 0 0 -1 forward_v I I I I #
coedge $-1 $275 $187 $190 $276 forward $103 $-1 #
coedge $-1 $193 $105 $106 $181 reversed $63 $-1 #
coedge $-1 $187 $275 $105 $179 reversed $103 $-1 #
edge $-1 $194 -8.8175682183071018 $277 8.8175682183071018 $178 $278 forward 7 unknown #
coedge $-1 $107 $106 $275 $279 forward $41 $-1 #
edge $-1 $185 -76.613666188543348 $277 76.613666188543348 $177 $280 forward 7 unknown #
coedge $-1 $190 $189 $107 $183 reversed $174 $-1 #
edge $-1 $281 -76.613666188543348 $184 76.613666188543348 $182 $282 forward 7 unknown #
vertex $-1 $109 $283 #
vertex $-1 $196 $284 #
straight-curve $-1 76.613666188543348 0 -8.8175682183071018 0 -1 0 I I #
coedge $-1 $176 $178 $110 $188 reversed $103 $-1 #
edge $-1 $191 -36.619634952188086 $194 36.619634952188086 $187 $285 forward 7 unknown #
coedge $-1 $182 $111 $116 $197 forward $174 $-1 #
coedge $-1 $111 $182 $176 $276 reversed $174 $-1 #
vertex $-1 $112 $286 #
straight-curve $-1 0 36.619634952188086 8.8175682183071018 -1 0 0 I I #
coedge $-1 $113 $177 $115 $196 reversed $63 $-1 #
vertex $-1 $188 $287 #
straight-curve $-1 0 -36.619634952188086 8.8175682183071018 1 0 0 I I #
edge $-1 $118 -8.8175682183071018 $185 8.8175682183071018 $115 $288 forward 7 unknown #
edge $-1 $119 -8.8175682183071018 $184 8.8175682183071018 $116 $289 forward 7 unknown #
point $-1 76.613666188543348 -36.619634952188086 8.8175682183071018 #
point $-1 76.613666188543348 36.619634952188086 8.8175682183071018 #
face $-1 $290 $291 $16 $-1 $292 forward single #
loop $-1 $-1 $130 $121 #
coedge $-1 $293 $294 $126 $208 forward $122 $-1 #
coedge $-1 $219 $124 $125 $207 reversed $71 $-1 #
coedge $-1 $213 $295 $124 $205 reversed $296 $-1 #
edge $-1 $220 -1.7501932412197503 $297 1.7501932412197503 $204 $298 forward 7 unknown #
coedge $-1 $126 $125 $295 $299 forward $45 $-1 #
edge $-1 $211 -76.613666188543348 $297 76.613666188543348 $203 $300 forward 7 unknown #
edge $-1 $210 -76.613666188543348 $301 76.613666188543348 $202 $302 forward 7 unknown #
coedge $-1 $303 $127 $294 $304 forward $136 $-1 #
vertex $-1 $304 $305 #
vertex $-1 $222 $306 #
straight-curve $-1 76.613666188543348 -40.639110790303491 2.1297777192839371 0 -1 0 I I #
coedge $-1 $307 $204 $129 $214 reversed $296 $-1 #
edge $-1 $217 -4.0194758381153974 $220 4.0194758381153974 $213 $308 forward 7 unknown #
coedge $-1 $309 $130 $135 $224 reversed $201 $-1 #
coedge $-1 $130 $309 $307 $310 forward $201 $-1 #
vertex $-1 $310 $311 #
straight-curve $-1 0 -36.619634952188086 5.6301642017234377 1 0 0 I I #
coedge $-1 $132 $203 $134 $222 reversed $71 $-1 #
vertex $-1 $214 $312 #
straight-curve $-1 0 -44.658586628418888 5.6301642017234377 1 0 0 I I #
edge $-1 $137 -1.7501932412197503 $211 1.7501932412197503 $134 $313 forward 7 unknown #
coedge $-1 $135 $314 $315 $316 reversed $136 $-1 #
edge $-1 $317 -8.8175682183071018 $138 -5.6301642017234377 $135 $318 forward 7 unknown #
face $-1 $-1 $136 $16 $-1 $319 reversed single #
point $-1 76.613666188543348 -44.658586628418888 5.6301642017234377 #
point $-1 76.613666188543348 -36.619634952188093 5.6301642017234377 #
face $-1 $320 $321 $17 $-1 $322 reversed single #
loop $-1 $-1 $323 $140 #
plane-surface $-1 0 -40.639110790303491 5.6301642017234377 0 0 1 1 0 0 forward_v I I I I #
coedge $-1 $146 $324 $143 $234 forward $141 $-1 #
coedge $-1 $233 $143 $325 $326 reversed $79 $-1 #
coedge $-1 $143 $232 $144 $236 forward $79 $-1 #
edge $-1 $327 -49.632290916044163 $237 -42.56828209351864 $231 $328 forward 7 unknown #
coedge $-1 $145 $144 $241 $329 reversed $49 $-1 #
edge $-1 $330 -153.2273323770867 $237 -144.13765137713261 $233 $331 forward 7 unknown #
vertex $-1 $147 $332 #
straight-curve $-1 69.54965736601784 -12.003196773346971 8.8175682183070947 0 1 0 I I #
vertex $-1 $329 $333 #
straight-curve $-1 -42.466335383487547 -19.432103817430601 99.526332474351179 0.77714595512881146 0 -0.62932039886446345 I I #
coedge $-1 $325 $149 $235 $329 forward $243 $-1 #
coedge $-1 $149 $334 $151 $246 reversed $243 $-1 #
loop $-1 $-1 $325 $335 #
straight-curve $-1 76.613666188543348 -19.432103817430601 109.30316702319104 0 0 -1 I I #
coedge $-1 $336 $151 $337 $338 forward $141 $-1 #
edge $-1 $153 -19.432103817430601 $339 36.619634952188086 $242 $340 forward 7 unknown #
point $-1 69.549657366017826 -19.432103817430601 8.8175682183071018 #
point $-1 76.613666188543348 -19.432103817430601 8.8175682183071018 #
face $-1 $341 $342 $18 $-1 $343 forward single #
loop $-1 $-1 $344 $155 #
plane-surface $-1 53.962750544998372 -28.580683275957284 218.60633404638207 0 1 0 0.62932039886446345 0 0.77714595512881146 forward_v I I I I #
loop $-1 $-1 $345 $86 #
coedge $-1 $254 $158 $346 $347 forward $87 $-1 #
coedge $-1 $158 $253 $348 $349 reversed $87 $-1 #
coedge $-1 $350 $351 $158 $256 forward $342 $-1 #
edge $-1 $352 42.56828209351864 $353 49.632290916044163 $255 $354 forward 7 unknown #
edge $-1 $355 1 $355 0 $159 $-1 forward 7 unknown #
vertex $-1 $160 $356 #
ellipse-curve $-1 72.448020046290992 -25.966803430663944 5.1749250263133151 0.62932039886446345 0 0.77714595512881146 0.77714595512881146 0 -0.62932039886446345 1 I I #
point $-1 73.858807732409417 -25.966803430663944 5.3280869832217252 #
face $-1 $357 $170 $19 $-1 $358 forward single #
loop $-1 $-1 $359 $163 #
plane-surface $-1 53.962750544998372 -19.432103817430601 218.60633404638207 0 -1 0 -0.62932039886446345 0 -0.77714595512881146 forward_v I I I I #
loop $-1 $-1 $360 $94 #
coedge $-1 $265 $265 $266 $361 forward $164 $-1 #
coedge $-1 $266 $266 $265 $361 reversed $166 $-1 #
coedge $-1 $267 $267 $167 $268 forward $272 $-1 #
edge $-1 $362 0 $362 6.2831853071796004 $267 $363 forward 7 unknown #
edge $-1 $364 1 $364 0 $168 $-1 forward 7 unknown #
vertex $-1 $169 $365 #
ellipse-curve $-1 72.448020046290992 -22.045983662723934 5.1749250263133151 0.62932039886446345 0 0.77714595512881146 0.77714595512881146 0 -0.62932039886446345 1 I I #
loop $-1 $366 $267 $261 #
point $-1 73.858807732409417 -22.045983662723934 5.3280869832217252 #
plane-surface $-1 76.613666188543348 0 0 -1 0 0 0 0 1 forward_v I I I I #
coedge $-1 $178 $176 $180 $279 reversed $103 $-1 #
edge $-1 $191 -8.8175682183071018 $281 8.8175682183071018 $190 $367 forward 7 unknown #
vertex $-1 $279 $368 #
straight-curve $-1 -76.613666188543348 -36.619634952188086 0 0 0 -1 I I #
edge $-1 $277 -36.619634952188086 $281 36.619634952188086 $275 $369 forward 7 unknown #
straight-curve $-1 0 -36.619634952188086 -8.8175682183071018 -1 0 0 I I #
vertex $-1 $183 $370 #
straight-curve $-1 0 36.619634952188086 -8.8175682183071018 1 0 0 I I #
point $-1 76.613666188543348 36.619634952188086 -8.8175682183071018 #
point $-1 76.613666188543348 -36.619634952188086 -8.8175682183071018 #
straight-curve $-1 -76.613666188543348 0 8.8175682183071018 0 -1 0 I I #
point $-1 -76.613666188543348 36.619634952188086 8.8175682183071018 #
point $-1 -76.613666188543348 -36.619634952188086 8.8175682183071018 #
straight-curve $-1 76.613666188543348 -36.619634952188086 0 0 0 -1 I I #
straight-curve $-1 76.613666188543348 36.619634952188086 0 0 0 -1 I I #
face $-1 $371 $372 $16 $-1 $373 reversed single #
loop $-1 $-1 $315 $200 #
plane-surface $-1 0 0 8.8175682183071018 0 0 1 1 0 0 forward_v I I I I #
coedge $-1 $374 $202 $375 $376 forward $122 $-1 #
coedge $-1 $202 $374 $209 $304 reversed $122 $-1 #
coedge $-1 $204 $375 $206 $299 reversed $296 $-1 #
loop $-1 $-1 $377 $371 #
vertex $-1 $299 $378 #
straight-curve $-1 -76.613666188543348 -44.658586628418888 3.8799709605036874 0 0 -1 I I #
edge $-1 $297 -4.0194758381153974 $301 4.0194758381153974 $295 $379 forward 7 unknown #
straight-curve $-1 0 -44.658586628418888 2.1297777192839371 -1 0 0 I I #
vertex $-1 $376 $380 #
straight-curve $-1 0 -36.619634952188086 2.1297777192839371 -1 0 0 I I #
coedge $-1 $314 $209 $381 $382 reversed $136 $-1 #
edge $-1 $210 -2.1297777192839371 $383 8.8175682183071018 $209 $318 forward 7 unknown #
point $-1 76.613666188543348 -36.619634952188093 2.1297777192839371 #
point $-1 76.613666188543348 -44.658586628418888 2.1297777192839371 #
coedge $-1 $384 $213 $216 $310 reversed $296 $-1 #
straight-curve $-1 -76.613666188543348 -40.639110790303491 5.6301642017234377 0 -1 0 I I #
coedge $-1 $216 $215 $385 $386 reversed $201 $-1 #
edge $-1 $387 -8.8175682183071018 $217 -5.6301642017234377 $307 $388 forward 7 unknown #
point $-1 -76.613666188543348 -36.619634952188093 5.6301642017234377 #
point $-1 -76.613666188543348 -44.658586628418888 5.6301642017234377 #
straight-curve $-1 76.613666188543348 -44.658586628418888 3.8799709605036874 0 0 -1 I I #
coedge $-1 $223 $303 $389 $390 reversed $136 $-1 #
coedge $-1 $391 $385 $223 $316 forward $291 $-1 #
edge $-1 $317 -36.619634952188086 $392 36.619634952188086 $223 $393 forward 7 unknown #
vertex $-1 $316 $394 #
straight-curve $-1 76.613666188543348 -36.619634952188086 0 0 0 -1 I I #
plane-surface $-1 76.613666188543348 0 0 -1 0 0 0 0 1 forward_v I I I I #
face $-1 $395 $396 $17 $-1 $397 reversed single #
loop $-1 $-1 $398 $228 #
plane-surface $-1 0 -40.639110790303491 2.1297777192839371 0 0 1 1 0 0 forward_v I I I I #
coedge $-1 $399 $400 $401 $402 forward $229 $-1 #
coedge $-1 $231 $403 $404 $405 forward $141 $-1 #
coedge $-1 $404 $241 $232 $326 forward $243 $-1 #
edge $-1 $330 -106.20592047732578 $327 -100.48559880488394 $325 $406 forward 7 unknown #
vertex $-1 $326 $407 #
straight-curve $-1 26.981375272499186 -28.580683275957284 8.8175682183071018 -1 0 0 I I #
edge $-1 $239 7.4289070440836298 $330 16.577486502610313 $241 $408 forward 7 unknown #
vertex $-1 $329 $409 #
straight-curve $-1 -42.466335383487547 -28.580683275957284 99.526332474351179 -0.77714595512881146 0 0.62932039886446345 I I #
point $-1 69.549657366017826 -28.580683275957284 8.8175682183071018 #
point $-1 76.613666188543348 -19.432103817430601 3.0972465458652607 #
coedge $-1 $242 $410 $411 $412 reversed $243 $-1 #
face $-1 $-1 $243 $17 $-1 $413 reversed single #
coedge $-1 $403 $245 $414 $415 forward $141 $-1 #
coedge $-1 $411 $416 $245 $338 reversed $417 $-1 #
edge $-1 $339 -76.613666188543348 $418 76.613666188543348 $337 $419 forward 7 unknown #
vertex $-1 $246 $420 #
straight-curve $-1 76.613666188543348 0 8.8175682183071018 0 1 0 I I #
face $-1 $421 $422 $18 $-1 $423 forward single #
loop $-1 $-1 $424 $249 #
plane-surface $-1 0 0 8.8175682183071018 0 0 1 1 0 0 forward_v I I I I #
coedge $-1 $425 $426 $424 $427 reversed $250 $-1 #
coedge $-1 $428 $346 $351 $429 reversed $252 $-1 #
coedge $-1 $345 $430 $253 $347 reversed $252 $-1 #
edge $-1 $352 144.13765137713261 $431 153.2273323770867 $253 $432 forward 7 unknown #
coedge $-1 $433 $434 $254 $349 forward $435 $-1 #
edge $-1 $353 100.48559880488394 $431 106.20592047732578 $348 $436 forward 7 unknown #
coedge $-1 $437 $255 $434 $438 forward $342 $-1 #
coedge $-1 $255 $424 $345 $429 forward $342 $-1 #
vertex $-1 $429 $439 #
vertex $-1 $438 $440 #
straight-curve $-1 26.981375272499186 -19.432103817430601 8.8175682183071018 1 0 0 I I #
vertex $-1 $257 $441 #
point $-1 73.225166001419808 -25.966803430663944 4.545604627448852 #
face $-1 $442 $443 $19 $-1 $444 forward single #
plane-surface $-1 -42.466335383487547 -24.006393546693943 99.526332474351179 0.62932039886446345 0 0.77714595512881146 0.77714595512881146 0 -0.62932039886446345 forward_v I I I I #
coedge $-1 $445 $446 $447 $448 reversed $262 $-1 #
coedge $-1 $360 $360 $-1 $449 forward $264 $-1 #
edge $-1 $450 0 $450 6.2831853071796004 $265 $451 forward 7 unknown #
vertex $-1 $268 $452 #
ellipse-curve $-1 73.081661777280601 -25.966803430663944 5.9574073820861893 -0.62932039886446345 0 -0.77714595512881146 0.77714595512881146 0 -0.62932039886446345 1 I I #
vertex $-1 $269 $453 #
point $-1 73.225166001419808 -22.045983662723934 4.545604627448852 #
loop $-1 $-1 $454 $261 #
straight-curve $-1 -76.613666188543348 36.619634952188086 0 0 0 -1 I I #
point $-1 -76.613666188543348 -36.619634952188086 -8.8175682183071018 #
straight-curve $-1 -76.613666188543348 0 -8.8175682183071018 0 1 0 I I #
point $-1 -76.613666188543348 36.619634952188086 -8.8175682183071018 #
face $-1 $455 $296 $16 $-1 $456 reversed single #
loop $-1 $-1 $381 $290 #
plane-surface $-1 0 0 -8.8175682183071018 0 0 1 1 0 0 forward_v I I I I #
coedge $-1 $294 $293 $457 $458 reversed $122 $-1 #
coedge $-1 $295 $459 $293 $376 reversed $296 $-1 #
edge $-1 $301 -2.1297777192839371 $460 8.8175682183071018 $375 $388 forward 7 unknown #
coedge $-1 $459 $384 $461 $462 forward $296 $-1 #
point $-1 -76.613666188543348 -44.658586628418888 2.1297777192839371 #
straight-curve $-1 -76.613666188543348 -40.639110790303491 2.1297777192839371 0 1 0 I I #
point $-1 -76.613666188543348 -36.619634952188093 2.1297777192839371 #
coedge $-1 $457 $463 $303 $382 forward $372 $-1 #
edge $-1 $464 -36.619634952188086 $383 36.619634952188086 $303 $465 forward 7 unknown #
vertex $-1 $304 $466 #
coedge $-1 $377 $307 $467 $468 reversed $296 $-1 #
coedge $-1 $315 $467 $309 $386 forward $291 $-1 #
edge $-1 $387 -76.613666188543348 $317 76.613666188543348 $309 $469 forward 7 unknown #
vertex $-1 $468 $470 #
straight-curve $-1 -76.613666188543348 -36.619634952188086 0 0 0 -1 I I #
coedge $-1 $471 $472 $314 $390 forward $473 $-1 #
edge $-1 $392 -8.8175682183071018 $464 8.8175682183071018 $314 $474 forward 7 unknown #
coedge $-1 $467 $315 $472 $475 forward $291 $-1 #
vertex $-1 $316 $476 #
straight-curve $-1 76.613666188543348 0 8.8175682183071018 0 1 0 I I #
point $-1 76.613666188543348 -36.619634952188086 8.8175682183071018 #
face $-1 $477 $478 $17 $-1 $479 reversed single #
loop $-1 $-1 $480 $320 #
plane-surface $-1 0 -44.658586628418888 3.8799709605036874 0 1 0 0 0 1 forward_v I I I I #
coedge $-1 $481 $482 $483 $484 forward $321 $-1 #
coedge $-1 $485 $323 $486 $487 reversed $229 $-1 #
coedge $-1 $323 $485 $488 $489 forward $229 $-1 #
coedge $-1 $490 $491 $323 $402 reversed $243 $-1 #
edge $-1 $492 -4.0194758381153974 $493 4.0194758381153974 $401 $494 forward 7 unknown #
coedge $-1 $324 $336 $495 $496 forward $141 $-1 #
coedge $-1 $491 $325 $324 $405 reversed $243 $-1 #
edge $-1 $497 -36.619634952188086 $327 -28.580683275957284 $404 $340 forward 7 unknown #
straight-curve $-1 76.613666188543348 -28.580683275957284 109.30316702319104 0 0 1 I I #
point $-1 76.613666188543348 -28.580683275957284 8.8175682183071018 #
straight-curve $-1 76.613666188543334 -12.003196773346971 3.0972465458652607 0 -1 0 I I #
point $-1 76.613666188543348 -28.580683275957284 3.0972465458652607 #
coedge $-1 $334 $498 $499 $500 reversed $243 $-1 #
coedge $-1 $501 $337 $334 $412 forward $417 $-1 #
edge $-1 $339 -8.8175682183071018 $502 8.8175682183071018 $334 $503 forward 7 unknown #
plane-surface $-1 76.613666188543348 0 0 -1 0 0 0 0 1 forward_v I I I I #
coedge $-1 $504 $505 $336 $415 reversed $506 $-1 #
edge $-1 $418 -36.619634952188086 $507 36.619634952188086 $414 $508 forward 7 unknown #
coedge $-1 $337 $501 $504 $509 reversed $417 $-1 #
loop $-1 $-1 $411 $510 #
vertex $-1 $338 $511 #
straight-curve $-1 0 36.619634952188086 8.8175682183071018 -1 0 0 I I #
point $-1 76.613666188543348 36.619634952188086 8.8175682183071018 #
face $-1 $512 $513 $18 $-1 $514 reversed single #
loop $-1 $-1 $515 $341 #
plane-surface $-1 0 -40.639110790303491 5.6301642017234377 0 0 1 1 0 0 forward_v I I I I #
coedge $-1 $351 $516 $344 $427 forward $342 $-1 #
coedge $-1 $426 $344 $517 $518 reversed $250 $-1 #
coedge $-1 $344 $425 $428 $519 forward $250 $-1 #
edge $-1 $520 -49.632290916044163 $521 -42.56828209351864 $424 $522 forward 7 unknown #
coedge $-1 $430 $345 $426 $519 reversed $252 $-1 #
edge $-1 $521 -16.577486502610313 $352 -7.4289070440836298 $351 $523 forward 7 unknown #
coedge $-1 $346 $428 $433 $524 reversed $252 $-1 #
vertex $-1 $524 $525 #
straight-curve $-1 -42.466335383487547 -19.432103817430601 99.526332474351179 0.77714595512881146 0 -0.62932039886446345 I I #
coedge $-1 $517 $348 $430 $524 forward $435 $-1 #
coedge $-1 $348 $526 $350 $438 reversed $435 $-1 #
loop $-1 $-1 $517 $527 #
straight-curve $-1 76.613666188543348 -19.432103817430601 109.30316702319104 0 0 -1 I I #
coedge $-1 $528 $350 $529 $530 forward $342 $-1 #
edge $-1 $353 -19.432103817430601 $531 36.619634952188086 $434 $532 forward 7 unknown #
point $-1 69.549657366017826 -19.432103817430601 8.8175682183071018 #
point $-1 76.613666188543348 -19.432103817430601 8.8175682183071018 #
point $-1 71.818699647426541 -25.966803430663944 4.3977790711845044 #
face $-1 $533 $534 $19 $-1 $535 forward single #
loop $-1 $-1 $536 $357 #
plane-surface $-1 53.962750544998372 -28.580683275957284 218.60633404638207 0 1 0 0.62932039886446345 0 0.77714595512881146 forward_v I I I I #
coedge $-1 $446 $359 $537 $538 forward $262 $-1 #
coedge $-1 $359 $445 $539 $540 reversed $262 $-1 #
coedge $-1 $541 $542 $359 $448 forward $534 $-1 #
edge $-1 $543 42.56828209351864 $544 49.632290916044163 $447 $545 forward 7 unknown #
edge $-1 $546 1 $546 0 $360 $-1 forward 7 unknown #
vertex $-1 $361 $547 #
ellipse-curve $-1 72.448020046290992 -25.966803430663944 5.1749250263133151 0.62932039886446345 0 0.77714595512881146 0.77714595512881146 0 -0.62932039886446345 1 I I #
point $-1 73.858807732409417 -25.966803430663944 5.3280869832217252 #
point $-1 71.818699647426541 -22.045983662723934 4.3977790711845044 #
coedge $-1 $548 $537 $542 $549 reversed $366 $-1 #
face $-1 $225 $473 $16 $-1 $550 reversed single #
plane-surface $-1 -76.613666188543348 0 0 1 0 0 0 0 -1 forward_v I I I I #
coedge $-1 $551 $381 $374 $458 forward $372 $-1 #
edge $-1 $383 -76.613666188543348 $460 76.613666188543348 $374 $552 forward 7 unknown #
coedge $-1 $375 $377 $551 $553 reversed $296 $-1 #
vertex $-1 $553 $554 #
coedge $-1 $472 $471 $377 $462 reversed $473 $-1 #
edge $-1 $555 -8.8175682183071018 $556 8.8175682183071018 $461 $557 forward 7 unknown #
coedge $-1 $381 $551 $471 $558 forward $372 $-1 #
vertex $-1 $382 $559 #
straight-curve $-1 76.613666188543348 0 -8.8175682183071018 0 -1 0 I I #
point $-1 76.613666188543348 -36.619634952188086 -8.8175682183071018 #
coedge $-1 $385 $391 $384 $468 forward $291 $-1 #
edge $-1 $555 -36.619634952188086 $387 36.619634952188086 $384 $560 forward 7 unknown #
straight-curve $-1 0 -36.619634952188086 8.8175682183071018 1 0 0 I I #
point $-1 -76.613666188543348 -36.619634952188086 8.8175682183071018 #
coedge $-1 $461 $389 $463 $558 reversed $473 $-1 #
coedge $-1 $389 $461 $391 $475 reversed $473 $-1 #
loop $-1 $-1 $389 $455 #
straight-curve $-1 76.613666188543348 36.619634952188086 0 0 0 -1 I I #
edge $-1 $392 -76.613666188543348 $555 76.613666188543348 $472 $561 forward 7 unknown #
point $-1 76.613666188543348 36.619634952188086 8.8175682183071018 #
face $-1 $562 $563 $17 $-1 $479 reversed single #
loop $-1 $-1 $564 $395 #
plane-surface $-1 0 -36.619634952188086 0 0 1 0 0 0 1 forward_v I I I I #
coedge $-1 $565 $488 $566 $567 forward $396 $-1 #
coedge $-1 $568 $398 $565 $569 forward $321 $-1 #
coedge $-1 $398 $568 $564 $570 reversed $321 $-1 #
coedge $-1 $498 $490 $398 $484 reversed $243 $-1 #
edge $-1 $571 -4.0194758381153974 $572 4.0194758381153974 $483 $573 forward 7 unknown #
coedge $-1 $400 $399 $574 $575 forward $229 $-1 #
coedge $-1 $576 $577 $399 $487 forward $563 $-1 #
edge $-1 $578 -76.613666188543348 $493 76.613666188543348 $486 $579 forward 7 unknown #
coedge $-1 $480 $580 $400 $489 reversed $396 $-1 #
edge $-1 $581 -76.613666188543348 $492 76.613666188543348 $488 $582 forward 7 unknown #
coedge $-1 $483 $401 $580 $583 forward $243 $-1 #
coedge $-1 $401 $404 $576 $584 forward $243 $-1 #
vertex $-1 $402 $585 #
vertex $-1 $402 $586 #
straight-curve $-1 76.613666188543348 -40.639110790303491 5.6301642017234377 0 1 0 I I #
coedge $-1 $577 $576 $403 $496 reversed $563 $-1 #
edge $-1 $507 -76.613666188543348 $497 76.613666188543348 $495 $587 forward 7 unknown #
vertex $-1 $405 $588 #
coedge $-1 $410 $483 $589 $590 forward $243 $-1 #
coedge $-1 $591 $592 $410 $500 forward $593 $-1 #
edge $-1 $502 -36.619634952188086 $594 36.619634952188086 $410 $595 forward 7 unknown #
coedge $-1 $416 $411 $592 $596 reversed $417 $-1 #
vertex $-1 $500 $597 #
straight-curve $-1 76.613666188543348 36.619634952188086 0 0 0 -1 I I #
coedge $-1 $598 $414 $416 $509 forward $506 $-1 #
coedge $-1 $414 $574 $577 $599 reversed $506 $-1 #
loop $-1 $-1 $504 $600 #
vertex $-1 $415 $601 #
straight-curve $-1 -76.613666188543348 0 8.8175682183071018 0 -1 0 I I #
edge $-1 $418 -8.8175682183071018 $602 8.8175682183071018 $416 $603 forward 7 unknown #
face $-1 $335 $417 $17 $-1 $604 reversed single #
point $-1 -76.613666188543348 36.619634952188086 8.8175682183071018 #
face $-1 $605 $606 $18 $-1 $607 reversed single #
loop $-1 $-1 $608 $421 #
plane-surface $-1 0 -40.639110790303491 2.1297777192839371 0 0 1 1 0 0 forward_v I I I I #
coedge $-1 $609 $610 $611 $612 forward $422 $-1 #
coedge $-1 $424 $613 $614 $615 forward $342 $-1 #
coedge $-1 $614 $433 $425 $518 forward $435 $-1 #
edge $-1 $616 -106.20592047732578 $520 -100.48559880488394 $517 $617 forward 7 unknown #
edge $-1 $616 -153.2273323770867 $521 -144.13765137713261 $426 $618 forward 7 unknown #
vertex $-1 $518 $619 #
vertex $-1 $429 $620 #
straight-curve $-1 26.981375272499186 -28.580683275957284 8.8175682183071018 -1 0 0 I I #
straight-curve $-1 69.54965736601784 -12.003196773346971 8.8175682183070947 0 1 0 I I #
edge $-1 $431 7.4289070440836298 $616 16.577486502610313 $433 $621 forward 7 unknown #
point $-1 76.613666188543348 -19.432103817430601 3.0972465458652607 #
coedge $-1 $434 $622 $623 $624 reversed $435 $-1 #
face $-1 $-1 $435 $18 $-1 $625 reversed single #
coedge $-1 $613 $437 $626 $627 forward $342 $-1 #
coedge $-1 $623 $628 $437 $530 reversed $629 $-1 #
edge $-1 $531 -76.613666188543348 $630 76.613666188543348 $529 $631 forward 7 unknown #
vertex $-1 $438 $632 #
straight-curve $-1 76.613666188543348 0 8.8175682183071018 0 1 0 I I #
face $-1 $633 $634 $19 $-1 $635 forward single #
loop $-1 $-1 $636 $442 #
plane-surface $-1 0 0 8.8175682183071018 0 0 1 1 0 0 forward_v I I I I #
coedge $-1 $637 $638 $636 $639 reversed $443 $-1 #
coedge $-1 $454 $640 $445 $538 reversed $366 $-1 #
edge $-1 $543 144.13765137713261 $641 153.2273323770867 $445 $642 forward 7 unknown #
coedge $-1 $643 $644 $446 $540 forward $645 $-1 #
edge $-1 $544 100.48559880488394 $641 106.20592047732578 $539 $646 forward 7 unknown #
coedge $-1 $647 $447 $644 $648 forward $534 $-1 #
coedge $-1 $447 $636 $454 $549 forward $534 $-1 #
vertex $-1 $549 $649 #
vertex $-1 $648 $650 #
straight-curve $-1 26.981375272499186 -19.432103817430601 8.8175682183071018 1 0 0 I I #
vertex $-1 $449 $651 #
point $-1 73.225166001419808 -25.966803430663944 4.545604627448852 #
coedge $-1 $640 $454 $638 $652 reversed $366 $-1 #
edge $-1 $653 -16.577486502610313 $543 -7.4289070440836298 $542 $654 forward 7 unknown #
plane-surface $-1 0 36.619634952188086 0 0 -1 0 0 0 -1 forward_v I I I I #
coedge $-1 $463 $457 $459 $553 forward $372 $-1 #
straight-curve $-1 0 -36.619634952188086 -8.8175682183071018 -1 0 0 I I #
edge $-1 $460 -36.619634952188086 $556 36.619634952188086 $459 $655 forward 7 unknown #
point $-1 -76.613666188543348 -36.619634952188086 -8.8175682183071018 #
vertex $-1 $475 $656 #
vertex $-1 $558 $657 #
straight-curve $-1 -76.613666188543348 36.619634952188086 0 0 0 -1 I I #
edge $-1 $556 -76.613666188543348 $464 76.613666188543348 $471 $658 forward 7 unknown #
point $-1 76.613666188543348 36.619634952188086 -8.8175682183071018 #
straight-curve $-1 -76.613666188543348 0 8.8175682183071018 0 -1 0 I I #
straight-curve $-1 0 36.619634952188086 8.8175682183071018 -1 0 0 I I #
face $-1 $600 $593 $17 $-1 $659 reversed single #
loop $-1 $-1 $486 $477 #
coedge $-1 $660 $589 $482 $570 forward $478 $-1 #
coedge $-1 $580 $480 $481 $569 reversed $396 $-1 #
coedge $-1 $574 $661 $480 $567 reversed $506 $-1 #
edge $-1 $581 -1.7501932412197503 $662 1.7501932412197503 $566 $663 forward 7 unknown #
coedge $-1 $482 $481 $661 $664 forward $321 $-1 #
edge $-1 $572 -76.613666188543348 $662 76.613666188543348 $565 $665 forward 7 unknown #
edge $-1 $571 -76.613666188543348 $666 76.613666188543348 $564 $667 forward 7 unknown #
vertex $-1 $590 $668 #
vertex $-1 $583 $669 #
straight-curve $-1 76.613666188543348 -40.639110790303491 2.1297777192839371 0 -1 0 I I #
coedge $-1 $505 $566 $485 $575 reversed $506 $-1 #
edge $-1 $578 -4.0194758381153974 $581 4.0194758381153974 $574 $670 forward 7 unknown #
coedge $-1 $495 $486 $491 $584 reversed $563 $-1 #
coedge $-1 $486 $495 $505 $599 forward $563 $-1 #
vertex $-1 $599 $671 #
straight-curve $-1 0 -36.619634952188086 5.6301642017234377 1 0 0 I I #
coedge $-1 $488 $565 $490 $583 reversed $396 $-1 #
vertex $-1 $575 $672 #
straight-curve $-1 0 -44.658586628418888 5.6301642017234377 1 0 0 I I #
edge $-1 $492 -1.7501932412197503 $572 1.7501932412197503 $490 $673 forward 7 unknown #
edge $-1 $497 -8.8175682183071018 $493 -5.6301642017234377 $491 $674 forward 7 unknown #
point $-1 76.613666188543348 -44.658586628418888 5.6301642017234377 #
point $-1 76.613666188543348 -36.619634952188093 5.6301642017234377 #
straight-curve $-1 0 -36.619634952188086 8.8175682183071018 1 0 0 I I #
point $-1 76.613666188543348 -36.619634952188086 8.8175682183071018 #
coedge $-1 $564 $675 $498 $590 reversed $478 $-1 #
edge $-1 $571 -2.1297777192839371 $594 8.8175682183071018 $498 $674 forward 7 unknown #
coedge $-1 $676 $499 $675 $677 forward $593 $-1 #
coedge $-1 $499 $676 $501 $596 forward $593 $-1 #
loop $-1 $-1 $499 $562 #
vertex $-1 $590 $678 #
straight-curve $-1 76.613666188543348 0 -8.8175682183071018 0 -1 0 I I #
edge $-1 $602 -76.613666188543348 $502 76.613666188543348 $501 $679 forward 7 unknown #
point $-1 76.613666188543348 36.619634952188086 -8.8175682183071018 #
coedge $-1 $680 $504 $676 $681 reversed $506 $-1 #
edge $-1 $507 -8.8175682183071018 $578 -5.6301642017234377 $505 $682 forward 7 unknown #
face $-1 $510 $506 $17 $-1 $683 reversed single #
point $-1 -76.613666188543348 -36.619634952188086 8.8175682183071018 #
vertex $-1 $596 $684 #
straight-curve $-1 -76.613666188543348 36.619634952188086 0 0 0 -1 I I #
plane-surface $-1 0 36.619634952188086 0 0 -1 0 0 0 -1 forward_v I I I I #
face $-1 $685 $686 $18 $-1 $687 reversed single #
loop $-1 $-1 $688 $512 #
plane-surface $-1 0 -44.658586628418888 3.8799709605036874 0 1 0 0 0 1 forward_v I I I I #
coedge $-1 $689 $690 $691 $692 forward $513 $-1 #
coedge $-1 $693 $515 $694 $695 reversed $422 $-1 #
coedge $-1 $515 $693 $696 $697 forward $422 $-1 #
coedge $-1 $698 $699 $515 $612 reversed $435 $-1 #
edge $-1 $700 -4.0194758381153974 $701 4.0194758381153974 $611 $702 forward 7 unknown #
coedge $-1 $516 $528 $703 $704 forward $342 $-1 #
coedge $-1 $699 $517 $516 $615 reversed $435 $-1 #
edge $-1 $705 -36.619634952188086 $520 -28.580683275957284 $614 $532 forward 7 unknown #
vertex $-1 $524 $706 #
straight-curve $-1 76.613666188543348 -28.580683275957284 109.30316702319104 0 0 1 I I #
straight-curve $-1 -42.466335383487547 -28.580683275957284 99.526332474351179 -0.77714595512881146 0 0.62932039886446345 I I #
point $-1 76.613666188543348 -28.580683275957284 8.8175682183071018 #
point $-1 69.549657366017826 -28.580683275957284 8.8175682183071018 #
straight-curve $-1 76.613666188543334 -12.003196773346971 3.0972465458652607 0 -1 0 I I #
coedge $-1 $526 $707 $708 $709 reversed $435 $-1 #
coedge $-1 $710 $529 $526 $624 forward $629 $-1 #
edge $-1 $531 -8.8175682183071018 $711 8.8175682183071018 $526 $712 forward 7 unknown #
plane-surface $-1 76.613666188543348 0 0 -1 0 0 0 0 1 forward_v I I I I #
coedge $-1 $713 $714 $528 $627 reversed $715 $-1 #
edge $-1 $630 -36.619634952188086 $716 36.619634952188086 $626 $717 forward 7 unknown #
coedge $-1 $529 $710 $713 $718 reversed $629 $-1 #
loop $-1 $-1 $623 $719 #
vertex $-1 $530 $720 #
straight-curve $-1 0 36.619634952188086 8.8175682183071018 -1 0 0 I I #
point $-1 76.613666188543348 36.619634952188086 8.8175682183071018 #
face $-1 $721 $722 $19 $-1 $723 reversed single #
loop $-1 $-1 $724 $533 #
plane-surface $-1 0 -40.639110790303491 5.6301642017234377 0 0 1 1 0 0 forward_v I I I I #
coedge $-1 $542 $725 $536 $639 forward $534 $-1 #
coedge $-1 $638 $536 $726 $727 reversed $443 $-1 #
coedge $-1 $536 $637 $548 $652 forward $443 $-1 #
edge $-1 $728 -49.632290916044163 $653 -42.56828209351864 $636 $729 forward 7 unknown #
coedge $-1 $537 $548 $643 $730 reversed $366 $-1 #
vertex $-1 $730 $731 #
straight-curve $-1 -42.466335383487547 -19.432103817430601 99.526332474351179 0.77714595512881146 0 -0.62932039886446345 I I #
coedge $-1 $726 $539 $640 $730 forward $645 $-1 #
coedge $-1 $539 $732 $541 $648 reversed $645 $-1 #
loop $-1 $-1 $726 $733 #
straight-curve $-1 76.613666188543348 -19.432103817430601 109.30316702319104 0 0 -1 I I #
coedge $-1 $734 $541 $735 $736 forward $534 $-1 #
edge $-1 $544 -19.432103817430601 $737 36.619634952188086 $644 $738 forward 7 unknown #
point $-1 69.549657366017826 -19.432103817430601 8.8175682183071018 #
point $-1 76.613666188543348 -19.432103817430601 8.8175682183071018 #
point $-1 71.818699647426541 -25.966803430663944 4.3977790711845044 #
edge $-1 $739 -153.2273323770867 $653 -144.13765137713261 $638 $740 forward 7 unknown #
vertex $-1 $549 $741 #
straight-curve $-1 69.54965736601784 -12.003196773346971 8.8175682183070947 0 1 0 I I #
straight-curve $-1 -76.613666188543348 0 -8.8175682183071018 0 1 0 I I #
point $-1 -76.613666188543348 36.619634952188086 8.8175682183071018 #
point $-1 -76.613666188543348 36.619634952188086 -8.8175682183071018 #
straight-curve $-1 0 36.619634952188086 -8.8175682183071018 1 0 0 I I #
plane-surface $-1 0 0 -8.8175682183071018 0 0 1 1 0 0 forward_v I I I I #
coedge $-1 $675 $564 $680 $742 forward $478 $-1 #
coedge $-1 $566 $680 $568 $664 reversed $506 $-1 #
vertex $-1 $664 $743 #
straight-curve $-1 -76.613666188543348 -44.658586628418888 3.8799709605036874 0 0 -1 I I #
edge $-1 $662 -4.0194758381153974 $666 4.0194758381153974 $661 $744 forward 7 unknown #
straight-curve $-1 0 -44.658586628418888 2.1297777192839371 -1 0 0 I I #
vertex $-1 $742 $745 #
straight-curve $-1 0 -36.619634952188086 2.1297777192839371 -1 0 0 I I #
point $-1 76.613666188543348 -36.619634952188093 2.1297777192839371 #
point $-1 76.613666188543348 -44.658586628418888 2.1297777192839371 #
straight-curve $-1 -76.613666188543348 -40.639110790303491 5.6301642017234377 0 -1 0 I I #
point $-1 -76.613666188543348 -36.619634952188093 5.6301642017234377 #
point $-1 -76.613666188543348 -44.658586628418888 5.6301642017234377 #
straight-curve $-1 76.613666188543348 -44.658586628418888 3.8799709605036874 0 0 -1 I I #
straight-curve $-1 76.613666188543348 -36.619634952188086 0 0 0 -1 I I #
coedge $-1 $589 $660 $591 $677 reversed $478 $-1 #
coedge $-1 $592 $591 $598 $681 forward $593 $-1 #
edge $-1 $594 -76.613666188543348 $746 76.613666188543348 $675 $747 forward 7 unknown #
point $-1 76.613666188543348 -36.619634952188086 -8.8175682183071018 #
straight-curve $-1 0 36.619634952188086 -8.8175682183071018 1 0 0 I I #
coedge $-1 $661 $598 $660 $742 reversed $506 $-1 #
edge $-1 $746 -36.619634952188086 $602 36.619634952188086 $598 $748 forward 7 unknown #
straight-curve $-1 -76.613666188543348 -36.619634952188086 0 0 0 -1 I I #
plane-surface $-1 -76.613666188543348 0 0 1 0 0 0 0 -1 forward_v I I I I #
point $-1 -76.613666188543348 36.619634952188086 -8.8175682183071018 #
face $-1 $749 $750 $18 $-1 $687 reversed single #
loop $-1 $-1 $751 $605 #
plane-surface $-1 0 -36.619634952188086 0 0 1 0 0 0 1 forward_v I I I I #
coedge $-1 $752 $696 $753 $754 forward $606 $-1 #
coedge $-1 $755 $608 $752 $756 forward $513 $-1 #
coedge $-1 $608 $755 $751 $757 reversed $513 $-1 #
coedge $-1 $707 $698 $608 $692 reversed $435 $-1 #
edge $-1 $758 -4.0194758381153974 $759 4.0194758381153974 $691 $760 forward 7 unknown #
coedge $-1 $610 $609 $761 $762 forward $422 $-1 #
coedge $-1 $763 $764 $609 $695 forward $750 $-1 #
edge $-1 $765 -76.613666188543348 $701 76.613666188543348 $694 $766 forward 7 unknown #
coedge $-1 $688 $767 $610 $697 reversed $606 $-1 #
edge $-1 $768 -76.613666188543348 $700 76.613666188543348 $696 $769 forward 7 unknown #
coedge $-1 $691 $611 $767 $770 forward $435 $-1 #
coedge $-1 $611 $614 $763 $771 forward $435 $-1 #
vertex $-1 $612 $772 #
vertex $-1 $612 $773 #
straight-curve $-1 76.613666188543348 -40.639110790303491 5.6301642017234377 0 1 0 I I #
coedge $-1 $764 $763 $613 $704 reversed $750 $-1 #
edge $-1 $716 -76.613666188543348 $705 76.613666188543348 $703 $774 forward 7 unknown #
vertex $-1 $615 $775 #
point $-1 76.613666188543348 -28.580683275957284 3.0972465458652607 #
coedge $-1 $622 $691 $776 $777 forward $435 $-1 #
coedge $-1 $778 $779 $622 $709 forward $780 $-1 #
edge $-1 $711 -36.619634952188086 $781 36.619634952188086 $622 $782 forward 7 unknown #
coedge $-1 $628 $623 $779 $783 reversed $629 $-1 #
vertex $-1 $709 $784 #
straight-curve $-1 76.613666188543348 36.619634952188086 0 0 0 -1 I I #
coedge $-1 $785 $626 $628 $718 forward $715 $-1 #
coedge $-1 $626 $761 $764 $786 reversed $715 $-1 #
loop $-1 $-1 $713 $787 #
vertex $-1 $627 $788 #
straight-curve $-1 -76.613666188543348 0 8.8175682183071018 0 -1 0 I I #
edge $-1 $630 -8.8175682183071018 $789 8.8175682183071018 $628 $790 forward 7 unknown #
face $-1 $527 $629 $18 $-1 $791 reversed single #
point $-1 -76.613666188543348 36.619634952188086 8.8175682183071018 #
face $-1 $792 $793 $19 $-1 $794 reversed single #
loop $-1 $-1 $795 $633 #
plane-surface $-1 0 -40.639110790303491 2.1297777192839371 0 0 1 1 0 0 forward_v I I I I #
coedge $-1 $796 $797 $798 $799 forward $634 $-1 #
coedge $-1 $636 $800 $801 $802 forward $534 $-1 #
coedge $-1 $801 $643 $637 $727 forward $645 $-1 #
edge $-1 $739 -106.20592047732578 $728 -100.48559880488394 $726 $803 forward 7 unknown #
vertex $-1 $727 $804 #
straight-curve $-1 26.981375272499186 -28.580683275957284 8.8175682183071018 -1 0 0 I I #
edge $-1 $641 7.4289070440836298 $739 16.577486502610313 $643 $805 forward 7 unknown #
point $-1 76.613666188543348 -19.432103817430601 3.0972465458652607 #
coedge $-1 $644 $806 $807 $808 reversed $645 $-1 #
face $-1 $-1 $645 $19 $-1 $809 reversed single #
coedge $-1 $800 $647 $810 $811 forward $534 $-1 #
coedge $-1 $807 $812 $647 $736 reversed $813 $-1 #
edge $-1 $737 -76.613666188543348 $814 76.613666188543348 $735 $815 forward 7 unknown #
vertex $-1 $648 $816 #
straight-curve $-1 76.613666188543348 0 8.8175682183071018 0 1 0 I I #
vertex $-1 $730 $817 #
straight-curve $-1 -42.466335383487547 -28.580683275957284 99.526332474351179 -0.77714595512881146 0 0.62932039886446345 I I #
point $-1 69.549657366017826 -28.580683275957284 8.8175682183071018 #
edge $-1 $666 -2.1297777192839371 $746 8.8175682183071018 $680 $682 forward 7 unknown #
point $-1 -76.613666188543348 -44.658586628418888 2.1297777192839371 #
straight-curve $-1 -76.613666188543348 -40.639110790303491 2.1297777192839371 0 1 0 I I #
point $-1 -76.613666188543348 -36.619634952188093 2.1297777192839371 #
vertex $-1 $681 $818 #
straight-curve $-1 0 -36.619634952188086 -8.8175682183071018 -1 0 0 I I #
straight-curve $-1 -76.613666188543348 0 -8.8175682183071018 0 1 0 I I #
face $-1 $787 $780 $18 $-1 $819 reversed single #
loop $-1 $-1 $694 $685 #
coedge $-1 $820 $776 $690 $757 forward $686 $-1 #
coedge $-1 $767 $688 $689 $756 reversed $606 $-1 #
coedge $-1 $761 $821 $688 $754 reversed $715 $-1 #
edge $-1 $768 -1.7501932412197503 $822 1.7501932412197503 $753 $823 forward 7 unknown #
coedge $-1 $690 $689 $821 $824 forward $513 $-1 #
edge $-1 $759 -76.613666188543348 $822 76.613666188543348 $752 $825 forward 7 unknown #
edge $-1 $758 -76.613666188543348 $826 76.613666188543348 $751 $827 forward 7 unknown #
vertex $-1 $777 $828 #
vertex $-1 $770 $829 #
straight-curve $-1 76.613666188543348 -40.639110790303491 2.1297777192839371 0 -1 0 I I #
coedge $-1 $714 $753 $693 $762 reversed $715 $-1 #
edge $-1 $765 -4.0194758381153974 $768 4.0194758381153974 $761 $830 forward 7 unknown #
coedge $-1 $703 $694 $699 $771 reversed $750 $-1 #
coedge $-1 $694 $703 $714 $786 forward $750 $-1 #
vertex $-1 $786 $831 #
straight-curve $-1 0 -36.619634952188086 5.6301642017234377 1 0 0 I I #
coedge $-1 $696 $752 $698 $770 reversed $606 $-1 #
vertex $-1 $762 $832 #
straight-curve $-1 0 -44.658586628418888 5.6301642017234377 1 0 0 I I #
edge $-1 $700 -1.7501932412197503 $759 1.7501932412197503 $698 $833 forward 7 unknown #
edge $-1 $705 -8.8175682183071018 $701 -5.6301642017234377 $699 $834 forward 7 unknown #
point $-1 76.613666188543348 -44.658586628418888 5.6301642017234377 #
point $-1 76.613666188543348 -36.619634952188093 5.6301642017234377 #
straight-curve $-1 0 -36.619634952188086 8.8175682183071018 1 0 0 I I #
point $-1 76.613666188543348 -36.619634952188086 8.8175682183071018 #
coedge $-1 $751 $835 $707 $777 reversed $686 $-1 #
edge $-1 $758 -2.1297777192839371 $781 8.8175682183071018 $707 $834 forward 7 unknown #
coedge $-1 $836 $708 $835 $837 forward $780 $-1 #
coedge $-1 $708 $836 $710 $783 forward $780 $-1 #
loop $-1 $-1 $708 $749 #
vertex $-1 $777 $838 #
straight-curve $-1 76.613666188543348 0 -8.8175682183071018 0 -1 0 I I #
edge $-1 $789 -76.613666188543348 $711 76.613666188543348 $710 $839 forward 7 unknown #
point $-1 76.613666188543348 36.619634952188086 -8.8175682183071018 #
coedge $-1 $840 $713 $836 $841 reversed $715 $-1 #
edge $-1 $716 -8.8175682183071018 $765 -5.6301642017234377 $714 $842 forward 7 unknown #
face $-1 $719 $715 $18 $-1 $843 reversed single #
point $-1 -76.613666188543348 -36.619634952188086 8.8175682183071018 #
vertex $-1 $783 $844 #
straight-curve $-1 -76.613666188543348 36.619634952188086 0 0 0 -1 I I #
plane-surface $-1 0 36.619634952188086 0 0 -1 0 0 0 -1 forward_v I I I I #
face $-1 $845 $846 $19 $-1 $847 reversed single #
loop $-1 $-1 $848 $721 #
plane-surface $-1 0 -44.658586628418888 3.8799709605036874 0 1 0 0 0 1 forward_v I I I I #
coedge $-1 $849 $850 $851 $852 forward $722 $-1 #
coedge $-1 $853 $724 $854 $855 reversed $634 $-1 #
coedge $-1 $724 $853 $856 $857 forward $634 $-1 #
coedge $-1 $858 $859 $724 $799 reversed $645 $-1 #
edge $-1 $860 -4.0194758381153974 $861 4.0194758381153974 $798 $862 forward 7 unknown #
coedge $-1 $725 $734 $863 $864 forward $534 $-1 #
coedge $-1 $859 $726 $725 $802 reversed $645 $-1 #
edge $-1 $865 -36.619634952188086 $728 -28.580683275957284 $801 $738 forward 7 unknown #
straight-curve $-1 76.613666188543348 -28.580683275957284 109.30316702319104 0 0 1 I I #
point $-1 76.613666188543348 -28.580683275957284 8.8175682183071018 #
straight-curve $-1 76.613666188543334 -12.003196773346971 3.0972465458652607 0 -1 0 I I #
coedge $-1 $732 $866 $867 $868 reversed $645 $-1 #
coedge $-1 $869 $735 $732 $808 forward $813 $-1 #
edge $-1 $737 -8.8175682183071018 $870 8.8175682183071018 $732 $871 forward 7 unknown #
plane-surface $-1 76.613666188543348 0 0 -1 0 0 0 0 1 forward_v I I I I #
coedge $-1 $872 $873 $734 $811 reversed $874 $-1 #
edge $-1 $814 -36.619634952188086 $875 36.619634952188086 $810 $876 forward 7 unknown #
coedge $-1 $735 $869 $872 $877 reversed $813 $-1 #
loop $-1 $-1 $807 $878 #
vertex $-1 $736 $879 #
straight-curve $-1 0 36.619634952188086 8.8175682183071018 -1 0 0 I I #
point $-1 76.613666188543348 36.619634952188086 8.8175682183071018 #
point $-1 76.613666188543348 -28.580683275957284 3.0972465458652607 #
point $-1 -76.613666188543348 -36.619634952188086 -8.8175682183071018 #
plane-surface $-1 0 0 -8.8175682183071018 0 0 1 1 0 0 forward_v I I I I #
coedge $-1 $835 $751 $840 $880 forward $686 $-1 #
coedge $-1 $753 $840 $755 $824 reversed $715 $-1 #
vertex $-1 $824 $881 #
straight-curve $-1 -76.613666188543348 -44.658586628418888 3.8799709605036874 0 0 -1 I I #
edge $-1 $822 -4.0194758381153974 $826 4.0194758381153974 $821 $882 forward 7 unknown #
straight-curve $-1 0 -44.658586628418888 2.1297777192839371 -1 0 0 I I #
vertex $-1 $880 $883 #
straight-curve $-1 0 -36.619634952188086 2.1297777192839371 -1 0 0 I I #
point $-1 76.613666188543348 -36.619634952188093 2.1297777192839371 #
point $-1 76.613666188543348 -44.658586628418888 2.1297777192839371 #
straight-curve $-1 -76.613666188543348 -40.639110790303491 5.6301642017234377 0 -1 0 I I #
point $-1 -76.613666188543348 -36.619634952188093 5.6301642017234377 #
point $-1 -76.613666188543348 -44.658586628418888 5.6301642017234377 #
straight-curve $-1 76.613666188543348 -44.658586628418888 3.8799709605036874 0 0 -1 I I #
straight-curve $-1 76.613666188543348 -36.619634952188086 0 0 0 -1 I I #
coedge $-1 $776 $820 $778 $837 reversed $686 $-1 #
coedge $-1 $779 $778 $785 $841 forward $780 $-1 #
edge $-1 $781 -76.613666188543348 $884 76.613666188543348 $835 $885 forward 7 unknown #
point $-1 76.613666188543348 -36.619634952188086 -8.8175682183071018 #
straight-curve $-1 0 36.619634952188086 -8.8175682183071018 1 0 0 I I #
coedge $-1 $821 $785 $820 $880 reversed $715 $-1 #
edge $-1 $884 -36.619634952188086 $789 36.619634952188086 $785 $886 forward 7 unknown #
straight-curve $-1 -76.613666188543348 -36.619634952188086 0 0 0 -1 I I #
plane-surface $-1 -76.613666188543348 0 0 1 0 0 0 0 -1 forward_v I I I I #
point $-1 -76.613666188543348 36.619634952188086 -8.8175682183071018 #
face $-1 $887 $888 $19 $-1 $847 reversed single #
loop $-1 $-1 $889 $792 #
plane-surface $-1 0 -36.619634952188086 0 0 1 0 0 0 1 forward_v I I I I #
coedge $-1 $890 $856 $891 $892 forward $793 $-1 #
coedge $-1 $893 $795 $890 $894 forward $722 $-1 #
coedge $-1 $795 $893 $889 $895 reversed $722 $-1 #
coedge $-1 $866 $858 $795 $852 reversed $645 $-1 #
edge $-1 $896 -4.0194758381153974 $897 4.0194758381153974 $851 $898 forward 7 unknown #
coedge $-1 $797 $796 $899 $900 forward $634 $-1 #
coedge $-1 $901 $902 $796 $855 forward $888 $-1 #
edge $-1 $903 -76.613666188543348 $861 76.613666188543348 $854 $904 forward 7 unknown #
coedge $-1 $848 $905 $797 $857 reversed $793 $-1 #
edge $-1 $906 -76.613666188543348 $860 76.613666188543348 $856 $907 forward 7 unknown #
coedge $-1 $851 $798 $905 $908 forward $645 $-1 #
coedge $-1 $798 $801 $901 $909 forward $645 $-1 #
vertex $-1 $799 $910 #
vertex $-1 $799 $911 #
straight-curve $-1 76.613666188543348 -40.639110790303491 5.6301642017234377 0 1 0 I I #
coedge $-1 $902 $901 $800 $864 reversed $888 $-1 #
edge $-1 $875 -76.613666188543348 $865 76.613666188543348 $863 $912 forward 7 unknown #
vertex $-1 $802 $913 #
coedge $-1 $806 $851 $914 $915 forward $645 $-1 #
coedge $-1 $916 $917 $806 $868 forward $918 $-1 #
edge $-1 $870 -36.619634952188086 $919 36.619634952188086 $806 $920 forward 7 unknown #
coedge $-1 $812 $807 $917 $921 reversed $813 $-1 #
vertex $-1 $868 $922 #
straight-curve $-1 76.613666188543348 36.619634952188086 0 0 0 -1 I I #
coedge $-1 $923 $810 $812 $877 forward $874 $-1 #
coedge $-1 $810 $899 $902 $924 reversed $874 $-1 #
loop $-1 $-1 $872 $925 #
vertex $-1 $811 $926 #
straight-curve $-1 -76.613666188543348 0 8.8175682183071018 0 -1 0 I I #
edge $-1 $814 -8.8175682183071018 $927 8.8175682183071018 $812 $928 forward 7 unknown #
face $-1 $733 $813 $19 $-1 $929 reversed single #
point $-1 -76.613666188543348 36.619634952188086 8.8175682183071018 #
edge $-1 $826 -2.1297777192839371 $884 8.8175682183071018 $840 $842 forward 7 unknown #
point $-1 -76.613666188543348 -44.658586628418888 2.1297777192839371 #
straight-curve $-1 -76.613666188543348 -40.639110790303491 2.1297777192839371 0 1 0 I I #
point $-1 -76.613666188543348 -36.619634952188093 2.1297777192839371 #
vertex $-1 $841 $930 #
straight-curve $-1 0 -36.619634952188086 -8.8175682183071018 -1 0 0 I I #
straight-curve $-1 -76.613666188543348 0 -8.8175682183071018 0 1 0 I I #
face $-1 $925 $918 $19 $-1 $931 reversed single #
loop $-1 $-1 $854 $845 #
coedge $-1 $932 $914 $850 $895 forward $846 $-1 #
coedge $-1 $905 $848 $849 $894 reversed $793 $-1 #
coedge $-1 $899 $933 $848 $892 reversed $874 $-1 #
edge $-1 $906 -1.7501932412197503 $934 1.7501932412197503 $891 $935 forward 7 unknown #
coedge $-1 $850 $849 $933 $936 forward $722 $-1 #
edge $-1 $897 -76.613666188543348 $934 76.613666188543348 $890 $937 forward 7 unknown #
edge $-1 $896 -76.613666188543348 $938 76.613666188543348 $889 $939 forward 7 unknown #
vertex $-1 $915 $940 #
vertex $-1 $908 $941 #
straight-curve $-1 76.613666188543348 -40.639110790303491 2.1297777192839371 0 -1 0 I I #
coedge $-1 $873 $891 $853 $900 reversed $874 $-1 #
edge $-1 $903 -4.0194758381153974 $906 4.0194758381153974 $899 $942 forward 7 unknown #
coedge $-1 $863 $854 $859 $909 reversed $888 $-1 #
coedge $-1 $854 $863 $873 $924 forward $888 $-1 #
vertex $-1 $924 $943 #
straight-curve $-1 0 -36.619634952188086 5.6301642017234377 1 0 0 I I #
coedge $-1 $856 $890 $858 $908 reversed $793 $-1 #
vertex $-1 $900 $944 #
straight-curve $-1 0 -44.658586628418888 5.6301642017234377 1 0 0 I I #
edge $-1 $860 -1.7501932412197503 $897 1.7501932412197503 $858 $945 forward 7 unknown #
edge $-1 $865 -8.8175682183071018 $861 -5.6301642017234377 $859 $946 forward 7 unknown #
point $-1 76.613666188543348 -44.658586628418888 5.6301642017234377 #
point $-1 76.613666188543348 -36.619634952188093 5.6301642017234377 #
straight-curve $-1 0 -36.619634952188086 8.8175682183071018 1 0 0 I I #
point $-1 76.613666188543348 -36.619634952188086 8.8175682183071018 #
coedge $-1 $889 $947 $866 $915 reversed $846 $-1 #
edge $-1 $896 -2.1297777192839371 $919 8.8175682183071018 $866 $946 forward 7 unknown #
coedge $-1 $948 $867 $947 $949 forward $918 $-1 #
coedge $-1 $867 $948 $869 $921 forward $918 $-1 #
loop $-1 $-1 $867 $887 #
vertex $-1 $915 $950 #
straight-curve $-1 76.613666188543348 0 -8.8175682183071018 0 -1 0 I I #
edge $-1 $927 -76.613666188543348 $870 76.613666188543348 $869 $951 forward 7 unknown #
point $-1 76.613666188543348 36.619634952188086 -8.8175682183071018 #
coedge $-1 $952 $872 $948 $953 reversed $874 $-1 #
edge $-1 $875 -8.8175682183071018 $903 -5.6301642017234377 $873 $954 forward 7 unknown #
face $-1 $878 $874 $19 $-1 $955 reversed single #
point $-1 -76.613666188543348 -36.619634952188086 8.8175682183071018 #
vertex $-1 $921 $956 #
straight-curve $-1 -76.613666188543348 36.619634952188086 0 0 0 -1 I I #
plane-surface $-1 0 36.619634952188086 0 0 -1 0 0 0 -1 forward_v I I I I #
point $-1 -76.613666188543348 -36.619634952188086 -8.8175682183071018 #
plane-surface $-1 0 0 -8.8175682183071018 0 0 1 1 0 0 forward_v I I I I #
coedge $-1 $947 $889 $952 $957 forward $846 $-1 #
coedge $-1 $891 $952 $893 $936 reversed $874 $-1 #
vertex $-1 $936 $958 #
straight-curve $-1 -76.613666188543348 -44.658586628418888 3.8799709605036874 0 0 -1 I I #
edge $-1 $934 -4.0194758381153974 $938 4.0194758381153974 $933 $959 forward 7 unknown #
straight-curve $-1 0 -44.658586628418888 2.1297777192839371 -1 0 0 I I #
vertex $-1 $957 $960 #
straight-curve $-1 0 -36.619634952188086 2.1297777192839371 -1 0 0 I I #
point $-1 76.613666188543348 -36.619634952188093 2.1297777192839371 #
point $-1 76.613666188543348 -44.658586628418888 2.1297777192839371 #
straight-curve $-1 -76.613666188543348 -40.639110790303491 5.6301642017234377 0 -1 0 I I #
point $-1 -76.613666188543348 -36.619634952188093 5.6301642017234377 #
point $-1 -76.613666188543348 -44.658586628418888 5.6301642017234377 #
straight-curve $-1 76.613666188543348 -44.658586628418888 3.8799709605036874 0 0 -1 I I #
straight-curve $-1 76.613666188543348 -36.619634952188086 0 0 0 -1 I I #
coedge $-1 $914 $932 $916 $949 reversed $846 $-1 #
coedge $-1 $917 $916 $923 $953 forward $918 $-1 #
edge $-1 $919 -76.613666188543348 $961 76.613666188543348 $947 $962 forward 7 unknown #
point $-1 76.613666188543348 -36.619634952188086 -8.8175682183071018 #
straight-curve $-1 0 36.619634952188086 -8.8175682183071018 1 0 0 I I #
coedge $-1 $933 $923 $932 $957 reversed $874 $-1 #
edge $-1 $961 -36.619634952188086 $927 36.619634952188086 $923 $963 forward 7 unknown #
straight-curve $-1 -76.613666188543348 -36.619634952188086 0 0 0 -1 I I #
plane-surface $-1 -76.613666188543348 0 0 1 0 0 0 0 -1 forward_v I I I I #
point $-1 -76.613666188543348 36.619634952188086 -8.8175682183071018 #
edge $-1 $938 -2.1297777192839371 $961 8.8175682183071018 $952 $954 forward 7 unknown #
point $-1 -76.613666188543348 -44.658586628418888 2.1297777192839371 #
straight-curve $-1 -76.613666188543348 -40.639110790303491 2.1297777192839371 0 1 0 I I #
point $-1 -76.613666188543348 -36.619634952188093 2.1297777192839371 #
vertex $-1 $953 $964 #
straight-curve $-1 0 -36.619634952188086 -8.8175682183071018 -1 0 0 I I #
straight-curve $-1 -76.613666188543348 0 -8.8175682183071018 0 1 0 I I #
point $-1 -76.613666188543348 -36.619634952188086 -8.8175682183071018 #
End-of-ACIS-data 