500 0 8 0           
7 Unknown 11 ACIS 5.0 NT 24 Fri Mar 26 19:37:23 1999 
-1 9.9999999999999995e-007 1e-010 
body $-1 $8 $-1 $9 #
body $-1 $10 $-1 $11 #
body $-1 $12 $-1 $13 #
body $-1 $14 $-1 $15 #
body $-1 $16 $-1 $17 #
body $-1 $18 $-1 $19 #
body $-1 $20 $-1 $21 #
body $-1 $22 $-1 $23 #
lump $-1 $-1 $24 $0 #
transform $-1 1 0 0 0 1 0 0 0 1 46.085390789513838 18.728668502802339 5.8733497665668599 1 rotate no_reflect no_shear #
lump $-1 $-1 $25 $1 #
transform $-1 1 0 0 0 1 0 0 0 1 46.085390789513838 18.728668502802339 5.8733497665668599 1 rotate no_reflect no_shear #
lump $-1 $-1 $26 $2 #
transform $-1 1 0 0 0 1 0 0 0 1 46.085390789513838 18.728668502802339 5.8733497665668599 1 rotate no_reflect no_shear #
lump $-1 $-1 $27 $3 #
transform $-1 1 0 0 0 1 0 0 0 1 46.085390789513838 18.728668502802339 5.8733497665668599 1 rotate no_reflect no_shear #
lump $-1 $-1 $28 $4 #
transform $-1 1 0 0 0 1 0 0 0 1 46.085390789513838 18.728668502802339 5.8733497665668599 1 rotate no_reflect no_shear #
lump $-1 $-1 $29 $5 #
transform $-1 1 0 0 0 1 0 0 0 1 46.085390789513838 18.728668502802339 5.8733497665668599 1 rotate no_reflect no_shear #
lump $-1 $-1 $30 $6 #
transform $-1 1 0 0 0 1 0 0 0 1 46.085390789513838 18.728668502802339 5.8733497665668599 1 rotate no_reflect no_shear #
lump $-1 $-1 $31 $7 #
transform $-1 1 0 0 0 1 0 0 0 1 46.085390789513838 18.728668502802339 5.8733497665668599 1 rotate no_reflect no_shear #
shell $-1 $-1 $-1 $32 $-1 $8 #
shell $-1 $-1 $-1 $33 $-1 $10 #
shell $-1 $-1 $-1 $34 $-1 $12 #
shell $-1 $-1 $-1 $35 $-1 $14 #
shell $-1 $-1 $-1 $36 $-1 $16 #
shell $-1 $-1 $-1 $37 $-1 $18 #
shell $-1 $-1 $-1 $38 $-1 $20 #
shell $-1 $-1 $-1 $39 $-1 $22 #
face $-1 $40 $41 $24 $-1 $42 forward single #
face $-1 $43 $44 $25 $-1 $45 reversed single #
face $-1 $46 $47 $26 $-1 $48 reversed single #
face $-1 $49 $50 $27 $-1 $51 forward single #
face $-1 $52 $53 $28 $-1 $54 forward single #
face $-1 $55 $56 $29 $-1 $57 reversed single #
face $-1 $58 $59 $30 $-1 $60 forward single #
face $-1 $61 $62 $31 $-1 $63 forward single #
face $-1 $64 $65 $24 $-1 $66 reversed single #
loop $-1 $-1 $67 $32 #
plane-surface $-1 0 0 5.8733497665668599 0 0 1 1 0 0 forward_v I I I I #
face $-1 $68 $69 $25 $-1 $70 reversed single #
loop $-1 $-1 $71 $33 #
plane-surface $-1 -44.202422604854718 -16.157545875765706 0 1 0 0 0 0 -1 forward_v I I I I #
face $-1 $72 $73 $26 $-1 $74 reversed single #
loop $-1 $-1 $75 $34 #
plane-surface $-1 -46.085390789513852 -9.2980121633863533 2.0416944674512933 -0.84804810408105047 0 0.52991925155115449 0.52991925155115449 0 0.84804810408105047 forward_v I I I I #
face $-1 $76 $77 $27 $-1 $78 forward single #
loop $-1 $79 $80 $35 #
cone-surface $-1 -44.129076661041552 -11.135902628533234 3.4831387005916392 0.84804810408105047 0 -0.52991925155115449 0.52991925155115449 0 0.84804810408105047 1 I I 0 1 1 forward I I I I #
face $-1 $81 $82 $28 $-1 $83 forward single #
loop $-1 $84 $85 $36 #
cone-surface $-1 -44.129076661041552 -7.460121698239476 3.4831387005916392 0.84804810408105047 0 -0.52991925155115449 0.52991925155115449 0 0.84804810408105047 1 I I 0 1 1 forward I I I I #
face $-1 $86 $87 $29 $-1 $88 reversed single #
loop $-1 $-1 $89 $37 #
plane-surface $-1 75.407575770033603 -5.0096010780436346 129.0500226264576 0 -1 0 -0.84804810408105047 0 -0.52991925155115449 forward_v I I I I #
face $-1 $90 $91 $30 $-1 $92 forward single #
loop $-1 $93 $94 $38 #
cone-surface $-1 44.129076661041552 -11.135902628533234 3.4831387005916215 -0.84804810408105047 0 -0.52991925155115449 0.52991925155115449 0 -0.84804810408105047 1 I I 0 1 1 forward I I I I #
face $-1 $95 $96 $31 $-1 $97 forward single #
loop $-1 $98 $99 $39 #
cone-surface $-1 44.129076661041552 -7.460121698239476 3.4831387005916215 -0.84804810408105047 0 -0.52991925155115449 0.52991925155115449 0 -0.84804810408105047 1 I I 0 1 1 forward I I I I #
face $-1 $100 $101 $24 $-1 $102 reversed single #
loop $-1 $-1 $103 $40 #
plane-surface $-1 0 0 -5.8733497665668599 0 0 1 1 0 0 forward_v I I I I #
coedge $-1 $104 $105 $106 $107 forward $41 $-1 #
face $-1 $108 $109 $25 $-1 $110 reversed single #
loop $-1 $-1 $111 $43 #
plane-surface $-1 -42.702422604854718 -13.586423248729073 0 0 -1 0 0 0 -1 forward_v I I I I #
coedge $-1 $112 $113 $114 $115 forward $44 $-1 #
face $-1 $116 $117 $26 $-1 $118 forward single #
loop $-1 $-1 $119 $46 #
plane-surface $-1 -124.25064735927688 -5.0096010780436346 50.884766056694573 0 -1 0 0.84804810408105047 0 -0.52991925155115449 forward_v I I I I #
coedge $-1 $120 $121 $122 $123 reversed $47 $-1 #
face $-1 $-1 $124 $27 $-1 $125 forward single #
loop $-1 $126 $127 $49 #
cone-surface $-1 -42.945880422441093 -11.135902628533234 2.7437956583986294 0.84804810408105047 0 -0.52991925155115449 0.26495962577557725 0 0.42402405204052523 1 I I -0.70710678118654746 0.70710678118654746 0.5 forward I I I I #
loop $-1 $-1 $128 $35 #
coedge $-1 $80 $80 $129 $130 reversed $50 $-1 #
face $-1 $-1 $131 $28 $-1 $132 forward single #
loop $-1 $133 $134 $52 #
cone-surface $-1 -42.945880422441093 -7.460121698239476 2.7437956583986294 0.84804810408105047 0 -0.52991925155115449 0.26495962577557725 0 0.42402405204052523 1 I I -0.70710678118654746 0.70710678118654746 0.5 forward I I I I #
loop $-1 $-1 $135 $36 #
coedge $-1 $85 $85 $136 $137 reversed $53 $-1 #
face $-1 $138 $139 $29 $-1 $140 reversed single #
loop $-1 $-1 $141 $55 #
plane-surface $-1 -2.7576807997294281 -9.2980121633863533 80.206951037214324 0.84804810408105047 0 0.52991925155115449 0.52991925155115449 0 -0.84804810408105047 forward_v I I I I #
coedge $-1 $142 $143 $144 $145 reversed $56 $-1 #
face $-1 $-1 $146 $30 $-1 $147 forward single #
loop $-1 $148 $149 $58 #
cone-surface $-1 42.945880422441093 -11.135902628533234 2.7437956583986116 -0.84804810408105047 0 -0.52991925155115449 0.26495962577557725 0 -0.42402405204052523 1 I I -0.70710678118654746 0.70710678118654746 0.5 forward I I I I #
loop $-1 $-1 $150 $38 #
coedge $-1 $94 $94 $151 $152 reversed $59 $-1 #
face $-1 $-1 $153 $31 $-1 $154 forward single #
loop $-1 $155 $156 $61 #
cone-surface $-1 42.945880422441093 -7.460121698239476 2.7437956583986116 -0.84804810408105047 0 -0.52991925155115449 0.26495962577557725 0 -0.42402405204052523 1 I I -0.70710678118654746 0.70710678118654746 0.5 forward I I I I #
loop $-1 $-1 $157 $39 #
coedge $-1 $99 $99 $158 $159 reversed $62 $-1 #
face $-1 $160 $161 $24 $-1 $162 reversed single #
loop $-1 $-1 $163 $64 #
plane-surface $-1 0 -18.728668502802339 0 0 1 0 0 0 1 forward_v I I I I #
coedge $-1 $164 $165 $166 $167 forward $65 $-1 #
coedge $-1 $168 $67 $169 $170 forward $41 $-1 #
coedge $-1 $67 $168 $171 $172 forward $41 $-1 #
coedge $-1 $173 $174 $67 $107 reversed $175 $-1 #
edge $-1 $176 -18.728668502802339 $177 18.728668502802339 $106 $178 forward 7 unknown #
face $-1 $179 $180 $25 $-1 $181 forward single #
loop $-1 $-1 $182 $68 #
plane-surface $-1 -41.202422604854718 -16.157545875765706 0 -1 0 0 0 0 1 forward_v I I I I #
coedge $-1 $183 $184 $185 $186 forward $69 $-1 #
coedge $-1 $187 $71 $188 $189 reversed $44 $-1 #
coedge $-1 $71 $187 $190 $191 reversed $44 $-1 #
coedge $-1 $184 $183 $71 $115 reversed $69 $-1 #
edge $-1 $192 -5.8733497665668599 $193 5.8733497665668599 $114 $194 forward 7 unknown #
face $-1 $195 $196 $26 $-1 $197 forward single #
loop $-1 $-1 $198 $72 #
plane-surface $-1 0 0 5.8733497665668599 0 0 1 1 0 0 forward_v I I I I #
coedge $-1 $199 $200 $201 $202 reversed $73 $-1 #
coedge $-1 $203 $75 $204 $205 reversed $47 $-1 #
coedge $-1 $75 $203 $199 $206 forward $47 $-1 #
coedge $-1 $201 $198 $75 $123 forward $117 $-1 #
edge $-1 $207 -8.9374171670358962 $208 -0.360594996350458 $122 $209 forward 7 unknown #
loop $-1 $-1 $129 $76 #
plane-surface $-1 -46.085390789513852 -9.2980121633863533 2.0416944674512933 -0.84804810408105047 0 0.52991925155115449 0.52991925155115449 0 0.84804810408105047 forward_v I I I I #
loop $-1 $-1 $210 $49 #
coedge $-1 $127 $127 $128 $211 reversed $77 $-1 #
coedge $-1 $128 $128 $127 $211 forward $79 $-1 #
coedge $-1 $129 $129 $80 $130 forward $124 $-1 #
edge $-1 $212 0 $212 6.2831853071796004 $129 $213 forward 7 unknown #
loop $-1 $-1 $136 $81 #
plane-surface $-1 -46.085390789513852 -9.2980121633863533 2.0416944674512933 -0.84804810408105047 0 0.52991925155115449 0.52991925155115449 0 0.84804810408105047 forward_v I I I I #
loop $-1 $-1 $214 $52 #
coedge $-1 $134 $134 $135 $215 reversed $82 $-1 #
coedge $-1 $135 $135 $134 $215 forward $84 $-1 #
coedge $-1 $136 $136 $85 $137 forward $131 $-1 #
edge $-1 $216 0 $216 6.2831853071796004 $136 $217 forward 7 unknown #
face $-1 $218 $219 $29 $-1 $220 forward single #
loop $-1 $-1 $221 $86 #
plane-surface $-1 75.407575770033603 -13.586423248729073 129.0500226264576 0 1 0 0.84804810408105047 0 0.52991925155115449 forward_v I I I I #
coedge $-1 $222 $223 $224 $225 reversed $87 $-1 #
coedge $-1 $143 $89 $226 $227 reversed $56 $-1 #
coedge $-1 $89 $142 $222 $228 reversed $56 $-1 #
coedge $-1 $224 $229 $89 $145 forward $219 $-1 #
edge $-1 $230 -8.3816029044970364 $231 -5.9873190206723663 $144 $232 forward 7 unknown #
loop $-1 $-1 $151 $90 #
plane-surface $-1 -2.7576807997294281 -9.2980121633863533 80.206951037214324 0.84804810408105047 0 0.52991925155115449 0.52991925155115449 0 -0.84804810408105047 forward_v I I I I #
loop $-1 $-1 $233 $58 #
coedge $-1 $149 $149 $150 $234 reversed $91 $-1 #
coedge $-1 $150 $150 $149 $234 forward $93 $-1 #
coedge $-1 $151 $151 $94 $152 forward $146 $-1 #
edge $-1 $235 0 $235 6.2831853071796004 $151 $236 forward 7 unknown #
loop $-1 $-1 $158 $95 #
plane-surface $-1 -2.7576807997294281 -9.2980121633863533 80.206951037214324 0.84804810408105047 0 0.52991925155115449 0.52991925155115449 0 -0.84804810408105047 forward_v I I I I #
loop $-1 $-1 $237 $61 #
coedge $-1 $156 $156 $157 $238 reversed $96 $-1 #
coedge $-1 $157 $157 $156 $238 forward $98 $-1 #
coedge $-1 $158 $158 $99 $159 forward $153 $-1 #
edge $-1 $239 0 $239 6.2831853071796004 $158 $240 forward 7 unknown #
face $-1 $241 $242 $24 $-1 $243 reversed single #
loop $-1 $-1 $244 $100 #
plane-surface $-1 -46.085390789513838 0 0 1 0 0 0 0 -1 forward_v I I I I #
coedge $-1 $245 $171 $246 $247 forward $101 $-1 #
coedge $-1 $248 $103 $245 $249 forward $65 $-1 #
coedge $-1 $103 $248 $250 $251 forward $65 $-1 #
coedge $-1 $174 $173 $103 $167 reversed $175 $-1 #
edge $-1 $252 -18.728668502802339 $253 18.728668502802339 $166 $254 forward 7 unknown #
coedge $-1 $105 $104 $255 $256 forward $41 $-1 #
coedge $-1 $257 $258 $104 $170 reversed $242 $-1 #
edge $-1 $177 -46.085390789513838 $259 46.085390789513838 $169 $260 forward 7 unknown #
coedge $-1 $163 $261 $105 $172 reversed $101 $-1 #
edge $-1 $262 -46.085390789513838 $176 46.085390789513838 $171 $263 forward 7 unknown #
coedge $-1 $166 $106 $261 $264 forward $175 $-1 #
coedge $-1 $106 $166 $257 $265 reversed $175 $-1 #
loop $-1 $-1 $173 $241 #
vertex $-1 $107 $266 #
vertex $-1 $107 $267 #
straight-curve $-1 46.085390789513838 0 5.8733497665668599 0 1 0 I I #
face $-1 $268 $269 $25 $-1 $270 reversed single #
loop $-1 $-1 $271 $108 #
plane-surface $-1 0 0 5.8733497665668599 0 0 1 1 0 0 forward_v I I I I #
coedge $-1 $272 $273 $274 $275 reversed $109 $-1 #
coedge $-1 $114 $111 $276 $277 reversed $69 $-1 #
coedge $-1 $111 $114 $278 $279 reversed $69 $-1 #
coedge $-1 $273 $272 $111 $186 reversed $109 $-1 #
edge $-1 $280 -5.8733497665668599 $281 5.8733497665668599 $185 $282 forward 7 unknown #
coedge $-1 $113 $112 $283 $284 reversed $44 $-1 #
coedge $-1 $276 $285 $112 $189 forward $269 $-1 #
edge $-1 $286 -10.649895564919486 $193 -5.5076503108462198 $188 $287 forward 7 unknown #
coedge $-1 $288 $278 $113 $191 forward $180 $-1 #
edge $-1 $192 5.5076503108462198 $289 10.649895564919486 $190 $290 forward 7 unknown #
vertex $-1 $191 $291 #
vertex $-1 $189 $292 #
straight-curve $-1 -44.202422604854718 -13.586423248729073 0 0 0 -1 I I #
face $-1 $-1 $293 $26 $-1 $294 reversed single #
loop $-1 $-1 $204 $116 #
plane-surface $-1 -42.702422604854718 -13.586423248729073 0 0 -1 0 0 0 -1 forward_v I I I I #
coedge $-1 $122 $295 $296 $297 forward $117 $-1 #
coedge $-1 $200 $119 $121 $206 reversed $73 $-1 #
coedge $-1 $119 $199 $298 $299 reversed $73 $-1 #
coedge $-1 $295 $122 $119 $202 forward $117 $-1 #
edge $-1 $208 -18.434216773949274 $300 -16.039932890124604 $201 $301 forward 7 unknown #
coedge $-1 $121 $120 $302 $303 reversed $47 $-1 #
coedge $-1 $296 $304 $120 $205 forward $196 $-1 #
edge $-1 $305 -0.03062242310052106 $207 4.4875827125238867 $204 $306 forward 7 unknown #
edge $-1 $307 2.6737665129848107e-014 $208 4.5182051356244344 $199 $308 forward 7 unknown #
vertex $-1 $205 $309 #
vertex $-1 $123 $310 #
straight-curve $-1 -43.691106905689168 -4.6490060816931766 5.8733497665668599 0 1 0 I I #
coedge $-1 $210 $210 $-1 $311 reversed $126 $-1 #
edge $-1 $312 0 $312 6.2831853071796004 $127 $313 forward 7 unknown #
vertex $-1 $130 $314 #
ellipse-curve $-1 -44.88824884760151 -11.135902628533234 3.9575221170090833 -0.84804810408105047 0 0.52991925155115449 0.52991925155115449 0 0.84804810408105047 1 I I #
coedge $-1 $214 $214 $-1 $315 reversed $133 $-1 #
edge $-1 $316 0 $316 6.2831853071796004 $134 $317 forward 7 unknown #
vertex $-1 $137 $318 #
ellipse-curve $-1 -44.88824884760151 -7.460121698239476 3.9575221170090833 -0.84804810408105047 0 0.52991925155115449 0.52991925155115449 0 0.84804810408105047 1 I I #
face $-1 $-1 $319 $29 $-1 $320 reversed single #
loop $-1 $-1 $144 $138 #
plane-surface $-1 0 0 5.8733497665668599 0 0 1 1 0 0 forward_v I I I I #
coedge $-1 $321 $322 $323 $324 reversed $139 $-1 #
coedge $-1 $325 $141 $143 $228 forward $87 $-1 #
coedge $-1 $141 $325 $321 $326 forward $87 $-1 #
coedge $-1 $323 $144 $141 $225 forward $219 $-1 #
edge $-1 $231 0.360594996350458 $327 8.9374171670358962 $224 $328 forward 7 unknown #
coedge $-1 $329 $330 $142 $227 forward $319 $-1 #
edge $-1 $331 -62.48331684577748 $230 -58.651661546661941 $226 $332 forward 7 unknown #
edge $-1 $231 87.652576443403234 $331 92.170781579027633 $143 $333 forward 7 unknown #
coedge $-1 $144 $323 $329 $334 forward $219 $-1 #
vertex $-1 $227 $335 #
vertex $-1 $145 $336 #
straight-curve $-1 37.703787885016801 -5.0096010780436346 5.8733497665668608 -1 0 0 I I #
coedge $-1 $233 $233 $-1 $337 reversed $148 $-1 #
edge $-1 $338 0 $338 6.2831853071796004 $149 $339 forward 7 unknown #
vertex $-1 $152 $340 #
ellipse-curve $-1 44.888248847601517 -11.135902628533234 3.9575221170090709 0.84804810408105047 0 0.52991925155115449 0.52991925155115449 0 -0.84804810408105047 1 I I #
coedge $-1 $237 $237 $-1 $341 reversed $155 $-1 #
edge $-1 $342 0 $342 6.2831853071796004 $156 $343 forward 7 unknown #
vertex $-1 $159 $344 #
ellipse-curve $-1 44.888248847601517 -7.460121698239476 3.9575221170090709 0.84804810408105047 0 0.52991925155115449 0.52991925155115449 0 -0.84804810408105047 1 I I #
face $-1 $-1 $175 $24 $-1 $345 reversed single #
loop $-1 $-1 $257 $160 #
plane-surface $-1 0 18.728668502802339 0 0 -1 0 0 0 -1 forward_v I I I I #
coedge $-1 $346 $255 $258 $347 forward $161 $-1 #
coedge $-1 $261 $163 $164 $249 reversed $101 $-1 #
coedge $-1 $255 $346 $163 $247 reversed $161 $-1 #
edge $-1 $262 -5.8733497665668599 $348 5.8733497665668599 $246 $349 forward 7 unknown #
coedge $-1 $165 $164 $346 $350 forward $65 $-1 #
edge $-1 $253 -46.085390789513838 $348 46.085390789513838 $245 $351 forward 7 unknown #
coedge $-1 $258 $257 $165 $251 reversed $242 $-1 #
edge $-1 $352 -46.085390789513838 $252 46.085390789513838 $250 $353 forward 7 unknown #
vertex $-1 $167 $354 #
vertex $-1 $264 $355 #
straight-curve $-1 46.085390789513838 0 -5.8733497665668599 0 -1 0 I I #
coedge $-1 $244 $246 $168 $256 reversed $161 $-1 #
edge $-1 $259 -18.728668502802339 $262 18.728668502802339 $255 $356 forward 7 unknown #
coedge $-1 $250 $169 $174 $265 forward $242 $-1 #
coedge $-1 $169 $250 $244 $347 reversed $242 $-1 #
vertex $-1 $170 $357 #
straight-curve $-1 0 18.728668502802339 5.8733497665668599 -1 0 0 I I #
coedge $-1 $171 $245 $173 $264 reversed $101 $-1 #
vertex $-1 $256 $358 #
straight-curve $-1 0 -18.728668502802339 5.8733497665668599 1 0 0 I I #
edge $-1 $176 -5.8733497665668599 $253 5.8733497665668599 $173 $359 forward 7 unknown #
edge $-1 $177 -5.8733497665668599 $252 5.8733497665668599 $174 $360 forward 7 unknown #
point $-1 46.085390789513838 -18.728668502802339 5.8733497665668599 #
point $-1 46.085390789513838 18.728668502802339 5.8733497665668599 #
face $-1 $-1 $361 $25 $-1 $362 reversed single #
loop $-1 $-1 $363 $179 #
plane-surface $-1 0 0 -5.8733497665668599 0 0 1 1 0 0 forward_v I I I I #
coedge $-1 $278 $288 $273 $364 forward $180 $-1 #
coedge $-1 $185 $182 $363 $365 reversed $109 $-1 #
coedge $-1 $182 $185 $271 $364 reversed $109 $-1 #
coedge $-1 $366 $367 $182 $275 forward $361 $-1 #
edge $-1 $368 -5.8733497665668599 $369 5.8733497665668599 $274 $370 forward 7 unknown #
coedge $-1 $363 $188 $183 $277 forward $269 $-1 #
edge $-1 $193 -22.851211302427359 $281 -19.851211302427359 $276 $371 forward 7 unknown #
coedge $-1 $190 $271 $184 $279 forward $180 $-1 #
edge $-1 $280 19.851211302427359 $192 22.851211302427359 $278 $372 forward 7 unknown #
vertex $-1 $279 $373 #
vertex $-1 $277 $374 #
straight-curve $-1 -41.202422604854718 -13.586423248729073 0 0 0 -1 I I #
coedge $-1 $367 $366 $187 $284 forward $361 $-1 #
edge $-1 $289 -5.8733497665668599 $286 5.8733497665668599 $283 $375 forward 7 unknown #
coedge $-1 $188 $363 $367 $376 forward $269 $-1 #
vertex $-1 $189 $377 #
straight-curve $-1 -44.202422604854718 -8.078772937882853 -5.8733497665668599 0 1 0 I I #
coedge $-1 $271 $190 $366 $378 forward $180 $-1 #
vertex $-1 $378 $379 #
straight-curve $-1 -44.202422604854718 -8.078772937882853 5.8733497665668599 0 -1 0 I I #
point $-1 -44.202422604854718 -13.586423248729073 5.8733497665668599 #
point $-1 -44.202422604854718 -13.586423248729073 -5.8733497665668599 #
loop $-1 $-1 $380 $195 #
plane-surface $-1 -46.085390789513838 0 0 1 0 0 0 0 -1 forward_v I I I I #
coedge $-1 $198 $201 $381 $382 forward $117 $-1 #
coedge $-1 $304 $204 $198 $297 reversed $196 $-1 #
edge $-1 $383 16.039932890124604 $207 18.434216773949274 $198 $384 forward 7 unknown #
coedge $-1 $302 $381 $200 $299 forward $293 $-1 #
edge $-1 $300 19.569033261780426 $307 23.400688560895972 $298 $385 forward 7 unknown #
vertex $-1 $382 $386 #
straight-curve $-1 -62.125323679638441 -5.0096010780436346 5.8733497665668608 -1 0 0 I I #
coedge $-1 $380 $298 $203 $303 forward $293 $-1 #
edge $-1 $307 0.360594996350458 $305 8.9374171670358962 $302 $387 forward 7 unknown #
coedge $-1 $204 $296 $380 $388 reversed $196 $-1 #
vertex $-1 $388 $389 #
straight-curve $-1 -46.069163377983728 -13.586423248729073 2.0676637553040811 0.52991925155115449 0 0.84804810408105047 I I #
vertex $-1 $303 $390 #
straight-curve $-1 -46.085390789513852 -5.0096010780436346 2.0416944674512933 0.52991925155115449 0 0.84804810408105047 I I #
point $-1 -43.691106905689168 -13.586423248729073 5.8733497665668599 #
point $-1 -43.691106905689168 -5.0096010780436346 5.873349766566859 #
edge $-1 $391 1 $391 0 $210 $-1 forward 7 unknown #
vertex $-1 $211 $392 #
ellipse-curve $-1 -43.369904474481615 -11.135902628533234 3.0087552841742067 -0.84804810408105047 0 0.52991925155115449 0.52991925155115449 0 0.84804810408105047 1 I I #
point $-1 -44.358329596050339 -11.135902628533234 4.8055702210901226 #
edge $-1 $393 1 $393 0 $214 $-1 forward 7 unknown #
vertex $-1 $215 $394 #
ellipse-curve $-1 -43.369904474481615 -7.460121698239476 3.0087552841742067 -0.84804810408105047 0 0.52991925155115449 0.52991925155115449 0 0.84804810408105047 1 I I #
point $-1 -44.358329596050339 -7.460121698239476 4.8055702210901226 #
loop $-1 $-1 $226 $218 #
plane-surface $-1 46.085390789513838 0 0 -1 0 0 0 0 1 forward_v I I I I #
coedge $-1 $322 $221 $223 $326 reversed $139 $-1 #
coedge $-1 $221 $321 $395 $396 reversed $139 $-1 #
coedge $-1 $229 $224 $221 $324 forward $219 $-1 #
edge $-1 $327 5.9873190206723663 $397 8.3816029044970364 $323 $398 forward 7 unknown #
coedge $-1 $223 $222 $330 $399 reversed $87 $-1 #
edge $-1 $400 -92.170781579027633 $327 -87.652576443403234 $321 $401 forward 7 unknown #
vertex $-1 $225 $402 #
straight-curve $-1 43.691106905689168 -4.6490060816931766 5.8733497665668608 0 -1 0 I I #
coedge $-1 $395 $226 $229 $334 reversed $319 $-1 #
coedge $-1 $226 $395 $325 $399 forward $319 $-1 #
vertex $-1 $227 $403 #
straight-curve $-1 46.085390789513838 -5.0096010780436346 64.525011313228802 0 0 1 I I #
straight-curve $-1 -2.7576807997294281 -5.0096010780436346 80.206951037214324 0.52991925155115449 0 -0.84804810408105047 I I #
edge $-1 $397 -13.586423248729073 $230 -5.0096010780436346 $329 $404 forward 7 unknown #
point $-1 46.085390789513838 -5.0096010780436346 5.8733497665668599 #
point $-1 43.691106905689168 -5.0096010780436346 5.8733497665668608 #
edge $-1 $405 1 $405 0 $233 $-1 forward 7 unknown #
vertex $-1 $234 $406 #
ellipse-curve $-1 43.369904474481615 -11.135902628533234 3.0087552841741889 0.84804810408105047 0 0.52991925155115449 0.52991925155115449 0 -0.84804810408105047 1 I I #
point $-1 45.418168099152645 -11.135902628533234 3.1094740129280036 #
edge $-1 $407 1 $407 0 $237 $-1 forward 7 unknown #
vertex $-1 $238 $408 #
ellipse-curve $-1 43.369904474481615 -7.460121698239476 3.0087552841741889 0.84804810408105047 0 0.52991925155115449 0.52991925155115449 0 -0.84804810408105047 1 I I #
point $-1 45.418168099152645 -7.460121698239476 3.1094740129280036 #
plane-surface $-1 46.085390789513838 0 0 -1 0 0 0 0 1 forward_v I I I I #
coedge $-1 $246 $244 $248 $350 reversed $161 $-1 #
edge $-1 $259 -5.8733497665668599 $352 5.8733497665668599 $258 $409 forward 7 unknown #
vertex $-1 $350 $410 #
straight-curve $-1 -46.085390789513838 -18.728668502802339 0 0 0 -1 I I #
edge $-1 $348 -18.728668502802339 $352 18.728668502802339 $346 $411 forward 7 unknown #
straight-curve $-1 0 -18.728668502802339 -5.8733497665668599 -1 0 0 I I #
vertex $-1 $251 $412 #
straight-curve $-1 0 18.728668502802339 -5.8733497665668599 1 0 0 I I #
point $-1 46.085390789513838 18.728668502802339 -5.8733497665668599 #
point $-1 46.085390789513838 -18.728668502802339 -5.8733497665668599 #
straight-curve $-1 -46.085390789513838 0 5.8733497665668599 0 -1 0 I I #
point $-1 -46.085390789513838 18.728668502802339 5.8733497665668599 #
point $-1 -46.085390789513838 -18.728668502802339 5.8733497665668599 #
straight-curve $-1 46.085390789513838 -18.728668502802339 0 0 0 -1 I I #
straight-curve $-1 46.085390789513838 18.728668502802339 0 0 0 -1 I I #
loop $-1 $-1 $274 $268 #
plane-surface $-1 0 -18.728668502802339 0 0 1 0 0 0 1 forward_v I I I I #
coedge $-1 $285 $276 $272 $365 forward $269 $-1 #
edge $-1 $369 -10.649895564919486 $280 -5.5076503108462198 $271 $413 forward 7 unknown #
edge $-1 $281 5.5076503108462198 $368 10.649895564919486 $363 $414 forward 7 unknown #
coedge $-1 $283 $274 $288 $378 reversed $361 $-1 #
coedge $-1 $274 $283 $285 $376 reversed $361 $-1 #
vertex $-1 $376 $415 #
vertex $-1 $275 $416 #
straight-curve $-1 -41.202422604854718 -18.728668502802339 0 0 0 1 I I #
straight-curve $-1 -21.351211302427359 -13.586423248729073 -5.8733497665668599 1 0 0 I I #
straight-curve $-1 -21.351211302427359 -13.586423248729073 5.8733497665668599 -1 0 0 I I #
point $-1 -41.202422604854718 -13.586423248729073 5.8733497665668599 #
point $-1 -41.202422604854718 -13.586423248729073 -5.8733497665668599 #
straight-curve $-1 -44.202422604854718 -18.728668502802339 0 0 0 -1 I I #
edge $-1 $368 41.202422604854718 $286 44.202422604854718 $367 $417 forward 7 unknown #
point $-1 -44.202422604854718 -18.728668502802339 -5.8733497665668599 #
edge $-1 $289 -44.202422604854718 $369 -41.202422604854718 $366 $418 forward 7 unknown #
point $-1 -44.202422604854718 -18.728668502802339 5.8733497665668599 #
coedge $-1 $381 $302 $304 $388 forward $293 $-1 #
coedge $-1 $298 $380 $295 $382 reversed $293 $-1 #
edge $-1 $300 5.0096010780436346 $383 13.586423248729073 $381 $419 forward 7 unknown #
vertex $-1 $297 $420 #
straight-curve $-1 -62.125323679638441 -13.586423248729073 5.8733497665668608 1 0 0 I I #
straight-curve $-1 -46.085390789513838 -5.0096010780436346 25.442383028347287 0 0 -1 I I #
point $-1 -46.085390789513838 -5.0096010780436346 5.8733497665668599 #
straight-curve $-1 -46.085390789513838 -4.6490060816931766 2.0416944674513164 0 -1 0 I I #
edge $-1 $305 -23.400688560895972 $383 -19.569033261780426 $380 $421 forward 7 unknown #
point $-1 -46.085390789513838 -13.586423248729073 2.041694467451316 #
point $-1 -46.085390789513838 -5.0096010780436346 2.041694467451316 #
vertex $-1 $311 $422 #
point $-1 -42.839985222930466 -11.135902628533234 3.856803388255257 #
vertex $-1 $315 $423 #
point $-1 -42.839985222930466 -7.460121698239476 3.856803388255257 #
coedge $-1 $330 $329 $322 $396 forward $319 $-1 #
edge $-1 $397 58.651661546661941 $400 62.48331684577748 $395 $424 forward 7 unknown #
vertex $-1 $334 $425 #
straight-curve $-1 37.703787885016801 -13.586423248729073 5.8733497665668608 1 0 0 I I #
edge $-1 $400 -8.9374171670358962 $331 -0.360594996350458 $330 $426 forward 7 unknown #
vertex $-1 $399 $427 #
straight-curve $-1 -2.7576807997294281 -13.586423248729073 80.206951037214324 -0.52991925155115449 0 0.84804810408105047 I I #
point $-1 43.691106905689168 -13.586423248729073 5.8733497665668608 #
point $-1 46.085390789513838 -5.0096010780436346 2.0416944674513218 #
straight-curve $-1 46.085390789513838 0 5.8733497665668599 0 1 0 I I #
vertex $-1 $337 $428 #
point $-1 43.899823726032771 -11.135902628533234 2.1607071800931381 #
vertex $-1 $341 $429 #
point $-1 43.899823726032771 -7.460121698239476 2.1607071800931381 #
straight-curve $-1 -46.085390789513838 18.728668502802339 0 0 0 -1 I I #
point $-1 -46.085390789513838 -18.728668502802339 -5.8733497665668599 #
straight-curve $-1 -46.085390789513838 0 -5.8733497665668599 0 1 0 I I #
point $-1 -46.085390789513838 18.728668502802339 -5.8733497665668599 #
straight-curve $-1 -41.202422604854718 -8.078772937882853 5.8733497665668599 0 1 0 I I #
straight-curve $-1 -41.202422604854718 -8.078772937882853 -5.8733497665668599 0 -1 0 I I #
point $-1 -41.202422604854718 -18.728668502802339 -5.8733497665668599 #
point $-1 -41.202422604854718 -18.728668502802339 5.8733497665668599 #
straight-curve $-1 0 -18.728668502802339 -5.8733497665668599 -1 0 0 I I #
straight-curve $-1 0 -18.728668502802339 5.8733497665668599 1 0 0 I I #
straight-curve $-1 -46.085390789513838 0 5.8733497665668599 0 -1 0 I I #
point $-1 -46.085390789513838 -13.586423248729073 5.8733497665668599 #
straight-curve $-1 -46.085390789513838 -13.586423248729073 25.442383028347287 0 0 1 I I #
point $-1 -42.52185637040057 -11.135902628533234 2.4788360326230521 #
point $-1 -42.52185637040057 -7.460121698239476 2.4788360326230521 #
straight-curve $-1 46.085390789513838 -13.586423248729073 64.525011313228802 0 0 -1 I I #
point $-1 46.085390789513838 -13.586423248729073 5.8733497665668599 #
straight-curve $-1 46.085390789513838 -4.6490060816931766 2.0416944674513147 0 1 0 I I #
point $-1 46.085390789513838 -13.586423248729073 2.0416944674513218 #
point $-1 42.52185637040057 -11.135902628533234 2.4788360326230343 #
point $-1 42.52185637040057 -7.460121698239476 2.4788360326230343 #
End-of-ACIS-data 