500 0 8 0           
7 Unknown 11 ACIS 5.0 NT 24 Fri Mar 26 18:39:47 1999 
-1 9.9999999999999995e-007 1e-010 
body $-1 $8 $-1 $9 #
body $-1 $10 $-1 $11 #
body $-1 $12 $-1 $13 #
body $-1 $14 $-1 $15 #
body $-1 $16 $-1 $17 #
body $-1 $18 $-1 $19 #
body $-1 $20 $-1 $21 #
body $-1 $22 $-1 $23 #
lump $-1 $-1 $24 $0 #
transform $-1 1 0 0 0 1 0 0 0 1 53.097323526718952 35.190041724019103 13.834163685174856 1 rotate no_reflect no_shear #
lump $-1 $-1 $25 $1 #
transform $-1 1 0 0 0 1 0 0 0 1 53.097323526718952 35.190041724019103 13.834163685174856 1 rotate no_reflect no_shear #
lump $-1 $-1 $26 $2 #
transform $-1 1 0 0 0 1 0 0 0 1 53.097323526718952 35.190041724019103 13.834163685174856 1 rotate no_reflect no_shear #
lump $-1 $-1 $27 $3 #
transform $-1 1 0 0 0 1 0 0 0 1 53.097323526718952 35.190041724019103 13.834163685174856 1 rotate no_reflect no_shear #
lump $-1 $-1 $28 $4 #
transform $-1 1 0 0 0 1 0 0 0 1 53.097323526718952 35.190041724019103 13.834163685174856 1 rotate no_reflect no_shear #
lump $-1 $-1 $29 $5 #
transform $-1 1 0 0 0 1 0 0 0 1 53.097323526718952 35.190041724019103 13.834163685174856 1 rotate no_reflect no_shear #
lump $-1 $-1 $30 $6 #
transform $-1 1 0 0 0 1 0 0 0 1 53.097323526718952 35.190041724019103 13.834163685174856 1 rotate no_reflect no_shear #
lump $-1 $-1 $31 $7 #
transform $-1 1 0 0 0 1 0 0 0 1 53.097323526718952 35.190041724019103 13.834163685174856 1 rotate no_reflect no_shear #
shell $-1 $-1 $-1 $32 $-1 $8 #
shell $-1 $-1 $-1 $33 $-1 $10 #
shell $-1 $-1 $-1 $34 $-1 $12 #
shell $-1 $-1 $-1 $35 $-1 $14 #
shell $-1 $-1 $-1 $36 $-1 $16 #
shell $-1 $-1 $-1 $37 $-1 $18 #
shell $-1 $-1 $-1 $38 $-1 $20 #
shell $-1 $-1 $-1 $39 $-1 $22 #
face $-1 $40 $41 $24 $-1 $42 forward single #
face $-1 $43 $44 $25 $-1 $45 reversed single #
face $-1 $46 $47 $26 $-1 $48 reversed single #
face $-1 $49 $50 $27 $-1 $51 forward single #
face $-1 $52 $53 $28 $-1 $54 forward single #
face $-1 $55 $56 $29 $-1 $57 reversed single #
face $-1 $58 $59 $30 $-1 $60 forward single #
face $-1 $61 $62 $31 $-1 $63 forward single #
face $-1 $64 $65 $24 $-1 $66 reversed single #
loop $-1 $-1 $67 $32 #
plane-surface $-1 0 0 13.834163685174856 0 0 1 1 0 0 forward_v I I I I #
face $-1 $68 $69 $25 $-1 $70 reversed single #
loop $-1 $-1 $71 $33 #
plane-surface $-1 -46.004687510666372 0 7.6260790372196556 0 0 1 1 0 0 forward_v I I I I #
face $-1 $72 $73 $26 $-1 $74 reversed single #
loop $-1 $-1 $75 $34 #
plane-surface $-1 47.85157890725111 -35.19004172401911 5.2585387508475279 0 -0.80901700255871778 0.5877852410284794 1 0 0 forward_v I I I I #
face $-1 $76 $77 $27 $-1 $78 forward single #
loop $-1 $79 $80 $35 #
cone-surface $-1 45.603402641764887 -30.925444528837211 8.7113219821984629 0 0.80901700255871778 -0.5877852410284794 1 0 0 1 I I 0 1 1 forward I I I I #
face $-1 $81 $82 $28 $-1 $83 forward single #
loop $-1 $84 $85 $36 #
cone-surface $-1 50.099755172737318 -30.925444528837211 8.7113219821984629 0 0.80901700255871778 -0.5877852410284794 1 0 0 1 I I 0 1 1 forward I I I I #
face $-1 $86 $87 $29 $-1 $88 reversed single #
loop $-1 $-1 $89 $37 #
plane-surface $-1 39.325962755642166 -3.141698141922376 64.01708470971586 0 0.83867057594974714 0.54463902268945019 1 0 0 forward_v I I I I #
face $-1 $90 $91 $30 $-1 $92 forward single #
loop $-1 $93 $94 $38 #
cone-surface $-1 33.42395099660925 31.263411403262406 8.727422703595666 0 -0.83867057594974714 -0.54463902268945019 2.5 0 0 1 I I 0 1 2.5 forward I I I I #
face $-1 $95 $96 $31 $-1 $97 forward single #
loop $-1 $98 $99 $39 #
cone-surface $-1 45.227974514675068 31.263411403262406 8.727422703595666 0 -0.83867057594974714 -0.54463902268945019 2.5 0 0 1 I I 0 1 2.5 forward I I I I #
face $-1 $100 $101 $24 $-1 $102 reversed single #
loop $-1 $-1 $103 $40 #
plane-surface $-1 0 0 -13.834163685174856 0 0 1 1 0 0 forward_v I I I I #
coedge $-1 $104 $105 $106 $107 forward $41 $-1 #
face $-1 $108 $109 $25 $-1 $110 reversed single #
loop $-1 $-1 $111 $43 #
plane-surface $-1 -38.912051494613792 0 10.730121361197257 -1 0 0 0 0 1 forward_v I I I I #
coedge $-1 $112 $113 $114 $115 forward $44 $-1 #
face $-1 $116 $117 $26 $-1 $118 reversed single #
loop $-1 $-1 $119 $46 #
plane-surface $-1 42.605834287783267 -121.10331677097241 67.678184965086828 1 0 0 0 0.80901700255871778 -0.5877852410284794 forward_v I I I I #
coedge $-1 $120 $121 $122 $123 reversed $47 $-1 #
face $-1 $-1 $124 $27 $-1 $125 forward single #
loop $-1 $126 $127 $49 #
cone-surface $-1 45.603402641764887 -29.371616850669263 7.5824001258714926 0 0.80901700255871778 -0.5877852410284794 0.5 0 0 1 I I -0.70710678118654746 0.70710678118654746 0.5 forward I I I I #
loop $-1 $-1 $128 $35 #
coedge $-1 $80 $80 $129 $130 reversed $50 $-1 #
face $-1 $-1 $131 $28 $-1 $132 forward single #
loop $-1 $133 $134 $52 #
cone-surface $-1 50.099755172737318 -29.371616850669263 7.5824001258714926 0 0.80901700255871778 -0.5877852410284794 0.5 0 0 1 I I -0.70710678118654746 0.70710678118654746 0.5 forward I I I I #
loop $-1 $-1 $135 $36 #
coedge $-1 $85 $85 $136 $137 reversed $53 $-1 #
face $-1 $138 $139 $29 $-1 $140 forward single #
loop $-1 $-1 $141 $55 #
plane-surface $-1 25.554601984565373 85.920627665164517 121.85483349575138 1 0 0 0 -0.83867057594974714 -0.54463902268945019 forward_v I I I I #
coedge $-1 $142 $143 $144 $145 reversed $56 $-1 #
face $-1 $-1 $146 $30 $-1 $147 forward single #
loop $-1 $148 $149 $58 #
cone-surface $-1 33.42395099660925 29.159728338730112 7.3612749917628992 0 -0.83867057594974714 -0.54463902268945019 1.25 0 0 1 I I -0.70710678118654746 0.70710678118654746 1.25 forward I I I I #
loop $-1 $-1 $150 $38 #
coedge $-1 $94 $94 $151 $152 reversed $59 $-1 #
face $-1 $-1 $153 $31 $-1 $154 forward single #
loop $-1 $155 $156 $61 #
cone-surface $-1 45.227974514675068 29.159728338730112 7.3612749917628992 0 -0.83867057594974714 -0.54463902268945019 1.25 0 0 1 I I -0.70710678118654746 0.70710678118654746 1.25 forward I I I I #
loop $-1 $-1 $157 $39 #
coedge $-1 $99 $99 $158 $159 reversed $62 $-1 #
face $-1 $160 $161 $24 $-1 $162 reversed single #
loop $-1 $-1 $163 $64 #
plane-surface $-1 0 -35.190041724019103 0 0 1 0 0 0 1 forward_v I I I I #
coedge $-1 $164 $165 $166 $167 forward $65 $-1 #
coedge $-1 $168 $67 $169 $170 forward $41 $-1 #
coedge $-1 $67 $168 $171 $172 forward $41 $-1 #
coedge $-1 $173 $174 $67 $107 reversed $175 $-1 #
edge $-1 $176 -35.190041724019103 $177 35.190041724019103 $106 $178 forward 7 unknown #
face $-1 $179 $180 $25 $-1 $181 reversed single #
loop $-1 $-1 $182 $68 #
plane-surface $-1 0 35.190041724019103 0 0 -1 0 0 0 -1 forward_v I I I I #
coedge $-1 $114 $183 $184 $185 reversed $69 $-1 #
coedge $-1 $186 $71 $187 $188 reversed $44 $-1 #
coedge $-1 $71 $186 $189 $190 reversed $44 $-1 #
coedge $-1 $191 $111 $71 $115 reversed $69 $-1 #
edge $-1 $192 -35.190041724019103 $193 35.190041724019103 $114 $194 forward 7 unknown #
face $-1 $195 $196 $26 $-1 $197 forward single #
loop $-1 $-1 $198 $72 #
plane-surface $-1 53.097323526718952 0 0 -1 0 0 0 0 1 forward_v I I I I #
coedge $-1 $199 $200 $201 $202 reversed $73 $-1 #
coedge $-1 $203 $75 $198 $204 reversed $47 $-1 #
coedge $-1 $75 $203 $199 $205 forward $47 $-1 #
coedge $-1 $201 $206 $75 $123 forward $196 $-1 #
edge $-1 $207 -29.171534073093397 $208 -18.680044834157712 $122 $209 forward 7 unknown #
loop $-1 $-1 $129 $76 #
plane-surface $-1 47.85157890725111 -35.19004172401911 5.2585387508475279 0 -0.80901700255871778 0.5877852410284794 1 0 0 forward_v I I I I #
loop $-1 $-1 $210 $49 #
coedge $-1 $127 $127 $128 $211 reversed $77 $-1 #
coedge $-1 $128 $128 $127 $211 forward $79 $-1 #
coedge $-1 $129 $129 $80 $130 forward $124 $-1 #
edge $-1 $212 1.30225956062532e-015 $212 6.2831853071796013 $129 $213 forward 7 unknown #
loop $-1 $-1 $136 $81 #
plane-surface $-1 47.85157890725111 -35.19004172401911 5.2585387508475279 0 -0.80901700255871778 0.5877852410284794 1 0 0 forward_v I I I I #
loop $-1 $-1 $214 $52 #
coedge $-1 $134 $134 $135 $215 reversed $82 $-1 #
coedge $-1 $135 $135 $134 $215 forward $84 $-1 #
coedge $-1 $136 $136 $85 $137 forward $131 $-1 #
edge $-1 $216 1.30225956062532e-015 $216 6.2831853071796013 $136 $217 forward 7 unknown #
face $-1 $218 $219 $29 $-1 $220 reversed single #
loop $-1 $-1 $221 $86 #
plane-surface $-1 0 0 13.834163685174856 0 0 1 1 0 0 forward_v I I I I #
coedge $-1 $222 $223 $224 $225 reversed $87 $-1 #
coedge $-1 $226 $89 $227 $228 reversed $56 $-1 #
coedge $-1 $89 $226 $222 $229 forward $56 $-1 #
coedge $-1 $224 $230 $89 $145 forward $231 $-1 #
edge $-1 $232 -33.434342148897869 $233 -5.89162060674429 $144 $234 forward 7 unknown #
loop $-1 $-1 $151 $90 #
plane-surface $-1 39.325962755642166 -3.141698141922376 64.01708470971586 0 0.83867057594974714 0.54463902268945019 1 0 0 forward_v I I I I #
loop $-1 $-1 $235 $58 #
coedge $-1 $149 $149 $150 $236 reversed $91 $-1 #
coedge $-1 $150 $150 $149 $236 forward $93 $-1 #
coedge $-1 $151 $151 $94 $152 forward $146 $-1 #
edge $-1 $237 2.3977665157661986e-016 $237 6.2831853071796004 $151 $238 forward 7 unknown #
loop $-1 $-1 $158 $95 #
plane-surface $-1 39.325962755642166 -3.141698141922376 64.01708470971586 0 0.83867057594974714 0.54463902268945019 1 0 0 forward_v I I I I #
loop $-1 $-1 $239 $61 #
coedge $-1 $156 $156 $157 $240 reversed $96 $-1 #
coedge $-1 $157 $157 $156 $240 forward $98 $-1 #
coedge $-1 $158 $158 $99 $159 forward $153 $-1 #
edge $-1 $241 2.3977665157661986e-016 $241 6.2831853071796004 $158 $242 forward 7 unknown #
face $-1 $243 $244 $24 $-1 $245 reversed single #
loop $-1 $-1 $246 $100 #
plane-surface $-1 -53.097323526718952 0 0 1 0 0 0 0 -1 forward_v I I I I #
coedge $-1 $247 $171 $248 $249 forward $101 $-1 #
coedge $-1 $250 $103 $247 $251 forward $65 $-1 #
coedge $-1 $103 $250 $252 $253 forward $65 $-1 #
coedge $-1 $174 $173 $103 $167 reversed $175 $-1 #
edge $-1 $254 -35.190041724019103 $255 35.190041724019103 $166 $256 forward 7 unknown #
coedge $-1 $105 $104 $257 $258 forward $41 $-1 #
coedge $-1 $259 $260 $104 $170 reversed $244 $-1 #
edge $-1 $177 -53.097323526718952 $261 53.097323526718952 $169 $262 forward 7 unknown #
coedge $-1 $163 $263 $105 $172 reversed $101 $-1 #
edge $-1 $264 -53.097323526718952 $176 53.097323526718952 $171 $265 forward 7 unknown #
coedge $-1 $166 $106 $263 $266 forward $175 $-1 #
coedge $-1 $106 $166 $259 $267 reversed $175 $-1 #
loop $-1 $-1 $173 $243 #
vertex $-1 $107 $268 #
vertex $-1 $107 $269 #
straight-curve $-1 53.097323526718952 0 13.834163685174856 0 1 0 I I #
face $-1 $270 $271 $25 $-1 $272 forward single #
loop $-1 $-1 $273 $108 #
plane-surface $-1 -53.097323526718952 0 0 1 0 0 0 0 -1 forward_v I I I I #
coedge $-1 $189 $274 $191 $275 forward $109 $-1 #
coedge $-1 $111 $191 $276 $277 reversed $69 $-1 #
coedge $-1 $278 $187 $111 $185 forward $279 $-1 #
edge $-1 $193 2.2610183566210269 $280 8.4691030045762297 $184 $281 forward 7 unknown #
coedge $-1 $113 $112 $273 $282 reversed $44 $-1 #
coedge $-1 $184 $283 $112 $188 forward $279 $-1 #
edge $-1 $284 -30.094979771385766 $193 -15.909707739280606 $187 $285 forward 7 unknown #
coedge $-1 $286 $182 $113 $190 forward $109 $-1 #
edge $-1 $192 15.909707739280606 $287 30.094979771385766 $189 $288 forward 7 unknown #
coedge $-1 $183 $114 $182 $275 reversed $69 $-1 #
vertex $-1 $190 $289 #
vertex $-1 $188 $290 #
straight-curve $-1 -38.912051494613792 0 7.6260790372196556 0 -1 0 I I #
face $-1 $-1 $291 $26 $-1 $292 reversed single #
loop $-1 $-1 $122 $116 #
plane-surface $-1 0 0 13.834163685174856 0 0 1 1 0 0 forward_v I I I I #
coedge $-1 $293 $294 $120 $204 forward $117 $-1 #
coedge $-1 $200 $119 $121 $205 reversed $73 $-1 #
coedge $-1 $119 $199 $295 $296 reversed $73 $-1 #
coedge $-1 $297 $122 $119 $202 forward $196 $-1 #
edge $-1 $208 -31.592172698053709 $298 -25.361616661467103 $201 $299 forward 7 unknown #
coedge $-1 $121 $120 $300 $301 reversed $47 $-1 #
edge $-1 $302 -8.214969949252632 $207 2.3850853118911615 $198 $303 forward 7 unknown #
edge $-1 $304 1.2080531203272332e-014 $208 10.600055261143805 $199 $305 forward 7 unknown #
coedge $-1 $122 $297 $293 $306 forward $196 $-1 #
vertex $-1 $123 $307 #
vertex $-1 $123 $308 #
straight-curve $-1 23.925789453625555 -28.959485687432498 13.834163685174856 -1 0 0 I I #
coedge $-1 $210 $210 $-1 $309 reversed $126 $-1 #
edge $-1 $310 0 $310 6.2831853071796004 $127 $311 forward 7 unknown #
vertex $-1 $130 $312 #
ellipse-curve $-1 45.603402641764887 -32.0747637057258 9.5463512180111962 0 -0.80901700255871778 0.5877852410284794 1 0 0 1 I I #
coedge $-1 $214 $214 $-1 $313 reversed $133 $-1 #
edge $-1 $314 0 $314 6.2831853071796004 $134 $315 forward 7 unknown #
vertex $-1 $137 $316 #
ellipse-curve $-1 50.099755172737318 -32.0747637057258 9.5463512180111962 0 -0.80901700255871778 0.5877852410284794 1 0 0 1 I I #
face $-1 $-1 $231 $29 $-1 $317 reversed single #
loop $-1 $-1 $227 $138 #
plane-surface $-1 53.097323526718952 0 0 -1 0 0 0 0 1 forward_v I I I I #
coedge $-1 $318 $319 $223 $320 forward $139 $-1 #
coedge $-1 $223 $141 $143 $229 reversed $87 $-1 #
coedge $-1 $141 $222 $221 $320 reversed $87 $-1 #
coedge $-1 $321 $144 $141 $225 forward $231 $-1 #
edge $-1 $233 -55.936037158917301 $322 -47.093253062700832 $224 $323 forward 7 unknown #
coedge $-1 $143 $142 $318 $324 reversed $56 $-1 #
coedge $-1 $325 $326 $142 $228 forward $219 $-1 #
edge $-1 $327 32.136104031005466 $232 42.679915093176703 $227 $328 forward 7 unknown #
edge $-1 $329 59.836272385866977 $233 70.380083448038206 $222 $330 forward 7 unknown #
coedge $-1 $144 $321 $325 $331 forward $231 $-1 #
loop $-1 $-1 $224 $218 #
vertex $-1 $228 $332 #
vertex $-1 $145 $333 #
straight-curve $-1 19.662981377821083 35.19004172401911 4.9913795889583881 -1 0 0 I I #
coedge $-1 $235 $235 $-1 $334 reversed $148 $-1 #
edge $-1 $335 0 $335 6.2831853071796004 $149 $336 forward 7 unknown #
vertex $-1 $152 $337 #
ellipse-curve $-1 33.42395099660925 32.318756247857522 9.4127716370666246 0 0.83867057594974714 0.54463902268945019 2.5 0 0 1 I I #
coedge $-1 $239 $239 $-1 $338 reversed $155 $-1 #
edge $-1 $339 0 $339 6.2831853071796004 $156 $340 forward 7 unknown #
vertex $-1 $159 $341 #
ellipse-curve $-1 45.227974514675068 32.318756247857522 9.4127716370666246 0 0.83867057594974714 0.54463902268945019 2.5 0 0 1 I I #
face $-1 $-1 $175 $24 $-1 $342 reversed single #
loop $-1 $-1 $259 $160 #
plane-surface $-1 0 35.190041724019103 0 0 -1 0 0 0 -1 forward_v I I I I #
coedge $-1 $343 $257 $260 $344 forward $161 $-1 #
coedge $-1 $263 $163 $164 $251 reversed $101 $-1 #
coedge $-1 $257 $343 $163 $249 reversed $161 $-1 #
edge $-1 $264 -13.834163685174856 $345 13.834163685174856 $248 $346 forward 7 unknown #
coedge $-1 $165 $164 $343 $347 forward $65 $-1 #
edge $-1 $255 -53.097323526718952 $345 53.097323526718952 $247 $348 forward 7 unknown #
coedge $-1 $260 $259 $165 $253 reversed $244 $-1 #
edge $-1 $349 -53.097323526718952 $254 53.097323526718952 $252 $350 forward 7 unknown #
vertex $-1 $167 $351 #
vertex $-1 $266 $352 #
straight-curve $-1 53.097323526718952 0 -13.834163685174856 0 -1 0 I I #
coedge $-1 $246 $248 $168 $258 reversed $161 $-1 #
edge $-1 $261 -35.190041724019103 $264 35.190041724019103 $257 $353 forward 7 unknown #
coedge $-1 $252 $169 $174 $267 forward $244 $-1 #
coedge $-1 $169 $252 $246 $344 reversed $244 $-1 #
vertex $-1 $170 $354 #
straight-curve $-1 0 35.190041724019103 13.834163685174856 -1 0 0 I I #
coedge $-1 $171 $247 $173 $266 reversed $101 $-1 #
vertex $-1 $258 $355 #
straight-curve $-1 0 -35.190041724019103 13.834163685174856 1 0 0 I I #
edge $-1 $176 -13.834163685174856 $255 13.834163685174856 $173 $356 forward 7 unknown #
edge $-1 $177 -13.834163685174856 $254 13.834163685174856 $174 $357 forward 7 unknown #
point $-1 53.097323526718952 -35.190041724019103 13.834163685174856 #
point $-1 53.097323526718952 35.190041724019103 13.834163685174856 #
face $-1 $-1 $279 $25 $-1 $358 reversed single #
loop $-1 $-1 $276 $179 #
plane-surface $-1 0 0 13.834163685174856 0 0 1 1 0 0 forward_v I I I I #
coedge $-1 $359 $360 $186 $282 forward $180 $-1 #
coedge $-1 $182 $286 $361 $362 reversed $109 $-1 #
edge $-1 $363 -8.4691030045762297 $192 -2.2610183566210269 $182 $364 forward 7 unknown #
coedge $-1 $361 $365 $183 $277 forward $271 $-1 #
edge $-1 $280 -35.190041724019103 $363 35.190041724019103 $276 $366 forward 7 unknown #
coedge $-1 $283 $184 $365 $367 reversed $279 $-1 #
loop $-1 $-1 $184 $270 #
vertex $-1 $185 $368 #
straight-curve $-1 -38.912051494613792 -35.190041724019103 5.3650606805986287 0 0 1 I I #
edge $-1 $287 -35.190041724019103 $284 35.190041724019103 $273 $369 forward 7 unknown #
coedge $-1 $187 $278 $359 $370 forward $279 $-1 #
vertex $-1 $282 $371 #
straight-curve $-1 -23.002343755333186 -35.190041724019103 7.6260790372196556 1 0 0 I I #
coedge $-1 $274 $189 $360 $372 reversed $109 $-1 #
vertex $-1 $282 $373 #
straight-curve $-1 -23.002343755333186 35.190041724019103 7.6260790372196556 -1 0 0 I I #
point $-1 -38.912051494613792 35.190041724019103 7.6260790372196556 #
point $-1 -38.912051494613792 -35.190041724019103 7.6260790372196556 #
loop $-1 $-1 $300 $195 #
plane-surface $-1 0 -35.190041724019103 0 0 1 0 0 0 1 forward_v I I I I #
coedge $-1 $294 $198 $206 $306 reversed $117 $-1 #
coedge $-1 $198 $293 $374 $375 forward $117 $-1 #
coedge $-1 $300 $376 $200 $296 forward $291 $-1 #
edge $-1 $298 20.004928797368557 $304 28.580553731695876 $295 $377 forward 7 unknown #
coedge $-1 $206 $201 $376 $378 forward $196 $-1 #
vertex $-1 $378 $379 #
straight-curve $-1 42.605834287783267 -60.551658385486206 13.834163685174858 0 -1 0 I I #
coedge $-1 $374 $295 $203 $301 forward $291 $-1 #
edge $-1 $304 18.680044834157712 $302 29.171534073093397 $300 $380 forward 7 unknown #
vertex $-1 $301 $381 #
straight-curve $-1 53.097323526718952 -30.36140363235593 11.904589115301844 0 0.5877852410284794 0.80901700255871778 I I #
vertex $-1 $301 $382 #
straight-curve $-1 42.605834287783267 -35.19004172401911 5.2585387508475279 0 0.5877852410284794 0.80901700255871778 I I #
edge $-1 $383 -35.190041724019103 $207 -28.959485687432498 $293 $384 forward 7 unknown #
point $-1 53.097323526718952 -28.959485687432498 13.834163685174856 #
point $-1 42.605834287783267 -28.959485687432498 13.834163685174856 #
edge $-1 $385 1 $385 0 $210 $-1 forward 7 unknown #
vertex $-1 $211 $386 #
ellipse-curve $-1 45.603402641764887 -29.776125351948622 7.8762927463857322 0 -0.80901700255871778 0.5877852410284794 1 0 0 1 I I #
point $-1 46.603402641764887 -32.074763705725793 9.5463512180111927 #
edge $-1 $387 1 $387 0 $214 $-1 forward 7 unknown #
vertex $-1 $215 $388 #
ellipse-curve $-1 50.099755172737318 -29.776125351948622 7.8762927463857322 0 -0.80901700255871778 0.5877852410284794 1 0 0 1 I I #
point $-1 51.099755172737318 -32.074763705725793 9.5463512180111927 #
plane-surface $-1 0 35.190041724019103 0 0 -1 0 0 0 -1 forward_v I I I I #
coedge $-1 $389 $221 $226 $324 forward $139 $-1 #
coedge $-1 $221 $389 $321 $390 forward $139 $-1 #
edge $-1 $322 7.7702721085631552 $329 13.512843060886311 $221 $391 forward 7 unknown #
coedge $-1 $230 $224 $319 $390 reversed $231 $-1 #
vertex $-1 $320 $392 #
straight-curve $-1 25.554601984565373 35.190041724019103 60.927416747875689 0 0 1 I I #
edge $-1 $329 5.89162060674429 $327 33.434342148897876 $318 $393 forward 7 unknown #
coedge $-1 $326 $227 $230 $331 reversed $219 $-1 #
coedge $-1 $227 $325 $389 $394 reversed $219 $-1 #
vertex $-1 $394 $395 #
straight-curve $-1 53.097323526718952 11.944894479202629 40.785768561639202 0 0.54463902268945019 -0.83867057594974714 I I #
vertex $-1 $324 $396 #
straight-curve $-1 25.554601984565373 -3.141698141922376 64.01708470971586 0 0.54463902268945019 -0.83867057594974714 I I #
edge $-1 $397 -13.834163685174856 $232 -4.9913795889583881 $325 $398 forward 7 unknown #
point $-1 53.097323526718952 35.190041724019103 4.9913795889583881 #
point $-1 25.554601984565373 35.190041724019103 4.9913795889583881 #
edge $-1 $399 1 $399 0 $235 $-1 forward 7 unknown #
vertex $-1 $236 $400 #
ellipse-curve $-1 33.42395099660925 30.208066558667294 8.0420737701247127 0 0.83867057594974714 0.54463902268945019 2.5 0 0 1 I I #
point $-1 35.92395099660925 32.318756247857515 9.4127716370666192 #
edge $-1 $401 1 $401 0 $239 $-1 forward 7 unknown #
vertex $-1 $240 $402 #
ellipse-curve $-1 45.227974514675068 30.208066558667294 8.0420737701247127 0 0.83867057594974714 0.54463902268945019 2.5 0 0 1 I I #
point $-1 47.727974514675068 32.318756247857515 9.4127716370666192 #
plane-surface $-1 53.097323526718952 0 0 -1 0 0 0 0 1 forward_v I I I I #
coedge $-1 $248 $246 $250 $347 reversed $161 $-1 #
edge $-1 $261 -13.834163685174856 $349 13.834163685174856 $260 $403 forward 7 unknown #
vertex $-1 $347 $404 #
straight-curve $-1 -53.097323526718952 -35.190041724019103 0 0 0 -1 I I #
edge $-1 $345 -35.190041724019103 $349 35.190041724019103 $343 $405 forward 7 unknown #
straight-curve $-1 0 -35.190041724019103 -13.834163685174856 -1 0 0 I I #
vertex $-1 $253 $406 #
straight-curve $-1 0 35.190041724019103 -13.834163685174856 1 0 0 I I #
point $-1 53.097323526718952 35.190041724019103 -13.834163685174856 #
point $-1 53.097323526718952 -35.190041724019103 -13.834163685174856 #
straight-curve $-1 -53.097323526718952 0 13.834163685174856 0 -1 0 I I #
point $-1 -53.097323526718952 35.190041724019103 13.834163685174856 #
point $-1 -53.097323526718952 -35.190041724019103 13.834163685174856 #
straight-curve $-1 53.097323526718952 -35.190041724019103 0 0 0 -1 I I #
straight-curve $-1 53.097323526718952 35.190041724019103 0 0 0 -1 I I #
plane-surface $-1 0 -35.190041724019103 0 0 1 0 0 0 1 forward_v I I I I #
coedge $-1 $407 $273 $283 $370 reversed $180 $-1 #
coedge $-1 $273 $407 $286 $372 forward $180 $-1 #
coedge $-1 $408 $276 $274 $362 forward $271 $-1 #
edge $-1 $363 38.912051494613792 $409 53.097323526718952 $274 $410 forward 7 unknown #
vertex $-1 $362 $411 #
straight-curve $-1 -38.912051494613792 35.190041724019103 5.3650606805986287 0 0 -1 I I #
coedge $-1 $276 $408 $278 $367 forward $271 $-1 #
straight-curve $-1 -38.912051494613792 0 13.834163685174856 0 1 0 I I #
edge $-1 $412 -53.097323526718952 $280 -38.912051494613792 $278 $413 forward 7 unknown #
point $-1 -38.912051494613792 -35.190041724019103 13.834163685174859 #
straight-curve $-1 -53.097323526718952 0 7.6260790372196556 0 -1 0 I I #
edge $-1 $412 -13.834163685174856 $284 -7.6260790372196556 $359 $414 forward 7 unknown #
point $-1 -53.097323526718952 -35.190041724019103 7.6260790372196556 #
edge $-1 $409 -13.834163685174856 $287 -7.6260790372196556 $286 $415 forward 7 unknown #
point $-1 -53.097323526718952 35.190041724019103 7.6260790372196556 #
coedge $-1 $376 $300 $294 $375 reversed $291 $-1 #
edge $-1 $383 -13.834163685174856 $302 -5.2585387508475376 $294 $416 forward 7 unknown #
coedge $-1 $295 $374 $297 $378 reversed $291 $-1 #
straight-curve $-1 42.605834287783267 -35.190041724019103 33.839092482543414 0 0 -1 I I #
edge $-1 $298 42.605834287783267 $383 53.097323526718952 $376 $417 forward 7 unknown #
point $-1 42.605834287783267 -35.190041724019103 13.834163685174856 #
straight-curve $-1 23.925789453625555 -35.190041724019103 5.2585387508475385 1 0 0 I I #
point $-1 53.097323526718952 -35.190041724019103 5.2585387508475376 #
point $-1 42.605834287783267 -35.190041724019103 5.2585387508475376 #
vertex $-1 $306 $418 #
straight-curve $-1 53.097323526718952 0 13.834163685174856 0 1 0 I I #
vertex $-1 $309 $419 #
point $-1 46.603402641764887 -29.776125351948622 7.8762927463857322 #
vertex $-1 $313 $420 #
point $-1 51.099755172737318 -29.776125351948622 7.8762927463857322 #
coedge $-1 $319 $318 $326 $394 forward $139 $-1 #
edge $-1 $397 -53.097323526718952 $322 -25.554601984565373 $321 $421 forward 7 unknown #
straight-curve $-1 25.554601984565373 42.960313832582258 13.834163685174858 0 -1 0 I I #
point $-1 25.554601984565373 35.190041724019103 13.834163685174856 #
straight-curve $-1 19.662981377821083 29.447470771695947 13.834163685174858 1 0 0 I I #
edge $-1 $327 29.447470771695947 $397 35.190041724019103 $326 $422 forward 7 unknown #
point $-1 53.097323526718959 29.447470771695947 13.834163685174858 #
point $-1 25.554601984565373 29.447470771695947 13.834163685174858 #
vertex $-1 $394 $423 #
straight-curve $-1 53.097323526718952 35.190041724019103 0 0 0 -1 I I #
vertex $-1 $334 $424 #
point $-1 35.92395099660925 30.208066558667294 8.0420737701247127 #
vertex $-1 $338 $425 #
point $-1 47.727974514675068 30.208066558667294 8.0420737701247127 #
straight-curve $-1 -53.097323526718952 35.190041724019103 0 0 0 -1 I I #
point $-1 -53.097323526718952 -35.190041724019103 -13.834163685174856 #
straight-curve $-1 -53.097323526718952 0 -13.834163685174856 0 1 0 I I #
point $-1 -53.097323526718952 35.190041724019103 -13.834163685174856 #
coedge $-1 $360 $359 $408 $426 reversed $180 $-1 #
coedge $-1 $365 $361 $407 $426 forward $271 $-1 #
vertex $-1 $362 $427 #
straight-curve $-1 0 35.190041724019103 13.834163685174856 -1 0 0 I I #
point $-1 -38.912051494613792 35.190041724019103 13.834163685174859 #
vertex $-1 $426 $428 #
straight-curve $-1 0 -35.190041724019103 13.834163685174856 1 0 0 I I #
straight-curve $-1 -53.097323526718952 -35.190041724019103 0 0 0 -1 I I #
straight-curve $-1 -53.097323526718952 35.190041724019103 0 0 0 -1 I I #
straight-curve $-1 53.097323526718952 -35.190041724019103 0 0 0 -1 I I #
straight-curve $-1 0 -35.190041724019103 13.834163685174856 1 0 0 I I #
point $-1 53.097323526718952 -35.190041724019103 13.834163685174856 #
point $-1 45.603402641764887 -28.967108349389903 7.288507505357253 #
point $-1 50.099755172737318 -28.967108349389903 7.288507505357253 #
straight-curve $-1 0 35.190041724019103 13.834163685174856 -1 0 0 I I #
straight-curve $-1 53.097323526718952 0 13.834163685174856 0 1 0 I I #
point $-1 53.097323526718952 35.190041724019103 13.834163685174856 #
point $-1 33.42395099660925 28.111390118792929 6.6804762134010867 #
point $-1 45.227974514675068 28.111390118792929 6.6804762134010867 #
edge $-1 $409 -35.190041724019103 $412 35.190041724019103 $407 $429 forward 7 unknown #
point $-1 -53.097323526718952 35.190041724019103 13.834163685174856 #
point $-1 -53.097323526718952 -35.190041724019103 13.834163685174856 #
straight-curve $-1 -53.097323526718952 0 13.834163685174856 0 -1 0 I I #
End-of-ACIS-data 