500 0 5 0           
7 Unknown 11 ACIS 5.0 NT 24 Fri Mar 26 15:51:23 1999 
-1 9.9999999999999995e-007 1e-010 
body $-1 $5 $-1 $6 #
body $-1 $7 $-1 $8 #
body $-1 $9 $-1 $10 #
body $-1 $11 $-1 $12 #
body $-1 $13 $-1 $14 #
lump $-1 $-1 $15 $0 #
transform $-1 1 0 0 0 1 0 0 0 1 72.205572679830311 37.873604486389098 13.601301719203317 1 rotate no_reflect no_shear #
lump $-1 $-1 $16 $1 #
transform $-1 1 0 0 0 1 0 0 0 1 72.205572679830311 37.873604486389098 13.601301719203317 1 rotate no_reflect no_shear #
lump $-1 $-1 $17 $2 #
transform $-1 1 0 0 0 1 0 0 0 1 72.205572679830311 37.873604486389098 13.601301719203317 1 rotate no_reflect no_shear #
lump $-1 $-1 $18 $3 #
transform $-1 1 0 0 0 1 0 0 0 1 72.205572679830311 37.873604486389098 13.601301719203317 1 rotate no_reflect no_shear #
lump $-1 $-1 $19 $4 #
transform $-1 1 0 0 0 1 0 0 0 1 72.205572679830311 37.873604486389098 13.601301719203317 1 rotate no_reflect no_shear #
shell $-1 $-1 $-1 $20 $-1 $5 #
shell $-1 $-1 $-1 $21 $-1 $7 #
shell $-1 $-1 $-1 $22 $-1 $9 #
shell $-1 $-1 $-1 $23 $-1 $11 #
shell $-1 $-1 $-1 $24 $-1 $13 #
face $-1 $25 $26 $15 $-1 $27 forward single #
face $-1 $28 $29 $16 $-1 $30 reversed single #
face $-1 $31 $32 $17 $-1 $33 forward single #
face $-1 $34 $35 $18 $-1 $36 reversed single #
face $-1 $37 $38 $19 $-1 $39 forward single #
face $-1 $40 $41 $15 $-1 $42 reversed single #
loop $-1 $-1 $43 $20 #
plane-surface $-1 0 0 13.601301719203317 0 0 1 1 0 0 forward_v I I I I #
face $-1 $44 $45 $16 $-1 $46 reversed single #
loop $-1 $-1 $47 $21 #
plane-surface $-1 -62.783484371782862 -30.09422608774997 0 1 0 0 0 0 -1 forward_v I I I I #
face $-1 $48 $49 $17 $-1 $50 reversed single #
loop $-1 $-1 $51 $22 #
plane-surface $-1 0 30.532836625016529 -9.3232861615247629 0 0 1 1 0 0 forward_v I I I I #
face $-1 $52 $53 $18 $-1 $54 reversed single #
loop $-1 $-1 $55 $23 #
plane-surface $-1 -172.52198476998655 -13.304413471827027 111.41421739125533 0 -1 0 0.69465837861970381 0 -0.71933979245794832 forward_v I I I I #
face $-1 $56 $57 $19 $-1 $58 forward single #
loop $-1 $59 $60 $24 #
cone-surface $-1 -67.457595951042421 -17.809630580468934 8.9040475248770399 0.69465837861970381 0 -0.71933979245794832 1.4386795849158966 0 1.3893167572394076 1 I I 0 1 2 forward I I I I #
face $-1 $61 $62 $15 $-1 $63 reversed single #
loop $-1 $-1 $64 $25 #
plane-surface $-1 0 0 -13.601301719203317 0 0 1 1 0 0 forward_v I I I I #
coedge $-1 $65 $66 $67 $68 forward $26 $-1 #
face $-1 $69 $70 $16 $-1 $71 reversed single #
loop $-1 $-1 $72 $28 #
plane-surface $-1 -60.138729163680075 -22.314847689110842 0 0 -1 0 0 0 -1 forward_v I I I I #
coedge $-1 $73 $74 $75 $76 forward $29 $-1 #
face $-1 $77 $78 $17 $-1 $79 reversed single #
loop $-1 $-1 $80 $31 #
plane-surface $-1 0 23.19206876364396 -11.46229394036404 0 1 0 0 0 1 forward_v I I I I #
coedge $-1 $81 $82 $83 $84 reversed $32 $-1 #
face $-1 $85 $86 $18 $-1 $87 reversed single #
loop $-1 $-1 $88 $34 #
plane-surface $-1 -72.20557267983034 -17.809630580468934 7.533534059622454 -0.69465837861970381 0 0.71933979245794832 0.71933979245794832 0 0.69465837861970381 forward_v I I I I #
coedge $-1 $89 $90 $91 $92 reversed $35 $-1 #
face $-1 $-1 $93 $19 $-1 $94 forward single #
loop $-1 $95 $96 $37 #
cone-surface $-1 -65.156639446575483 -17.809630580468934 6.5213373678832376 0.69465837861970381 0 -0.71933979245794832 0.71933979245794832 0 0.69465837861970381 1 I I -0.70710678118654746 0.70710678118654746 1 forward I I I I #
loop $-1 $-1 $97 $24 #
coedge $-1 $60 $60 $98 $99 reversed $38 $-1 #
face $-1 $100 $101 $15 $-1 $102 reversed single #
loop $-1 $-1 $103 $40 #
plane-surface $-1 0 -37.873604486389098 0 0 1 0 0 0 1 forward_v I I I I #
coedge $-1 $104 $105 $106 $107 forward $41 $-1 #
coedge $-1 $108 $43 $109 $110 forward $26 $-1 #
coedge $-1 $43 $108 $111 $112 forward $26 $-1 #
coedge $-1 $113 $114 $43 $68 reversed $115 $-1 #
edge $-1 $116 -37.873604486389098 $117 37.873604486389098 $67 $118 forward 7 unknown #
face $-1 $119 $120 $16 $-1 $121 forward single #
loop $-1 $-1 $122 $44 #
plane-surface $-1 -57.493973955577289 -30.09422608774997 0 -1 0 0 0 0 1 forward_v I I I I #
coedge $-1 $123 $124 $125 $126 forward $45 $-1 #
coedge $-1 $127 $47 $128 $129 reversed $29 $-1 #
coedge $-1 $47 $127 $130 $131 reversed $29 $-1 #
coedge $-1 $124 $123 $47 $76 reversed $45 $-1 #
edge $-1 $132 -13.601301719203317 $133 13.601301719203317 $75 $134 forward 7 unknown #
face $-1 $135 $136 $17 $-1 $137 reversed single #
loop $-1 $-1 $138 $48 #
plane-surface $-1 0 37.873604486389098 0 0 -1 0 0 0 -1 forward_v I I I I #
coedge $-1 $139 $140 $141 $142 reversed $49 $-1 #
coedge $-1 $143 $51 $138 $144 reversed $32 $-1 #
coedge $-1 $51 $143 $140 $145 forward $32 $-1 #
coedge $-1 $146 $147 $51 $84 forward $136 $-1 #
edge $-1 $148 -22.607186173880834 $149 -7.9256504511356951 $83 $150 forward 7 unknown #
face $-1 $151 $152 $18 $-1 $153 reversed single #
loop $-1 $-1 $154 $52 #
plane-surface $-1 -172.52198476998655 -22.314847689110842 111.41421739125533 0 1 0 -0.69465837861970381 0 0.71933979245794832 forward_v I I I I #
coedge $-1 $155 $156 $157 $158 reversed $53 $-1 #
coedge $-1 $90 $55 $159 $160 reversed $35 $-1 #
coedge $-1 $55 $89 $155 $161 reversed $35 $-1 #
coedge $-1 $157 $162 $55 $92 forward $152 $-1 #
edge $-1 $163 42.105806976424347 $164 48.173574636005185 $91 $165 forward 7 unknown #
loop $-1 $-1 $98 $56 #
plane-surface $-1 -72.20557267983034 -17.809630580468934 7.533534059622454 -0.69465837861970381 0 0.71933979245794832 0.71933979245794832 0 0.69465837861970381 forward_v I I I I #
loop $-1 $-1 $166 $37 #
coedge $-1 $96 $96 $97 $167 reversed $57 $-1 #
coedge $-1 $97 $97 $96 $167 forward $59 $-1 #
coedge $-1 $98 $98 $60 $99 forward $93 $-1 #
edge $-1 $168 0 $168 6.2831853071796004 $98 $169 forward 7 unknown #
face $-1 $170 $171 $15 $-1 $172 reversed single #
loop $-1 $-1 $173 $61 #
plane-surface $-1 -72.205572679830311 0 0 1 0 0 0 0 -1 forward_v I I I I #
coedge $-1 $174 $111 $175 $176 forward $62 $-1 #
coedge $-1 $177 $64 $174 $178 forward $41 $-1 #
coedge $-1 $64 $177 $179 $180 forward $41 $-1 #
coedge $-1 $114 $113 $64 $107 reversed $115 $-1 #
edge $-1 $181 -37.873604486389098 $182 37.873604486389098 $106 $183 forward 7 unknown #
coedge $-1 $66 $65 $184 $185 forward $26 $-1 #
coedge $-1 $186 $187 $65 $110 reversed $171 $-1 #
edge $-1 $117 -72.205572679830311 $188 72.205572679830311 $109 $189 forward 7 unknown #
coedge $-1 $103 $190 $66 $112 reversed $62 $-1 #
edge $-1 $191 -72.205572679830311 $116 72.205572679830311 $111 $192 forward 7 unknown #
coedge $-1 $106 $67 $190 $193 forward $115 $-1 #
coedge $-1 $67 $106 $186 $194 reversed $115 $-1 #
loop $-1 $-1 $113 $170 #
vertex $-1 $68 $195 #
vertex $-1 $68 $196 #
straight-curve $-1 72.205572679830311 0 13.601301719203317 0 1 0 I I #
face $-1 $197 $198 $16 $-1 $199 reversed single #
loop $-1 $-1 $200 $69 #
plane-surface $-1 0 0 13.601301719203317 0 0 1 1 0 0 forward_v I I I I #
coedge $-1 $201 $202 $203 $204 reversed $70 $-1 #
coedge $-1 $75 $72 $205 $206 reversed $45 $-1 #
coedge $-1 $72 $75 $207 $208 reversed $45 $-1 #
coedge $-1 $202 $201 $72 $126 reversed $70 $-1 #
edge $-1 $209 -13.601301719203317 $210 13.601301719203317 $125 $211 forward 7 unknown #
coedge $-1 $74 $73 $212 $213 reversed $29 $-1 #
coedge $-1 $205 $214 $73 $129 forward $198 $-1 #
edge $-1 $215 -22.826491442514111 $133 -7.2677346452358567 $128 $216 forward 7 unknown #
coedge $-1 $217 $207 $74 $131 forward $120 $-1 #
edge $-1 $132 7.2677346452358567 $218 22.826491442514111 $130 $219 forward 7 unknown #
vertex $-1 $131 $220 #
vertex $-1 $129 $221 #
straight-curve $-1 -62.783484371782862 -22.314847689110842 0 0 0 -1 I I #
face $-1 $222 $223 $17 $-1 $224 reversed single #
loop $-1 $-1 $83 $77 #
plane-surface $-1 72.205572679830311 0 0 -1 0 0 0 0 1 forward_v I I I I #
coedge $-1 $225 $226 $81 $144 forward $78 $-1 #
coedge $-1 $227 $80 $228 $229 reversed $49 $-1 #
coedge $-1 $80 $227 $82 $145 reversed $49 $-1 #
coedge $-1 $230 $231 $80 $142 forward $232 $-1 #
edge $-1 $233 -7.8701547490212969 $234 -3.592139191342743 $141 $235 forward 7 unknown #
coedge $-1 $82 $81 $230 $236 reversed $32 $-1 #
edge $-1 $237 -72.205572679830311 $148 72.205572679830311 $138 $238 forward 7 unknown #
edge $-1 $234 -72.205572679830311 $149 72.205572679830311 $140 $239 forward 7 unknown #
coedge $-1 $240 $83 $227 $241 forward $136 $-1 #
coedge $-1 $83 $240 $225 $242 reversed $136 $-1 #
vertex $-1 $242 $243 #
vertex $-1 $84 $244 #
straight-curve $-1 72.205572679830311 15.266418312508264 -9.3232861615247629 0 -1 0 I I #
face $-1 $-1 $245 $18 $-1 $246 forward single #
loop $-1 $-1 $91 $85 #
plane-surface $-1 -72.205572679830311 0 0 1 0 0 0 0 -1 forward_v I I I I #
coedge $-1 $247 $248 $249 $250 reversed $86 $-1 #
coedge $-1 $251 $88 $90 $161 forward $53 $-1 #
coedge $-1 $88 $251 $247 $252 forward $53 $-1 #
coedge $-1 $249 $91 $88 $158 forward $152 $-1 #
edge $-1 $164 4.3995981815925607 $253 13.410032398876375 $157 $254 forward 7 unknown #
coedge $-1 $255 $256 $89 $160 forward $245 $-1 #
edge $-1 $257 -20.338776911044249 $163 -14.055419705162961 $159 $258 forward 7 unknown #
edge $-1 $164 3.9571264572537829e-014 $257 8.7348945126633382 $90 $259 forward 7 unknown #
coedge $-1 $91 $249 $255 $260 reversed $152 $-1 #
vertex $-1 $260 $261 #
vertex $-1 $92 $262 #
straight-curve $-1 -72.205572679830311 -13.304413471827027 55.707108695627667 0 0 -1 I I #
coedge $-1 $166 $166 $-1 $263 reversed $95 $-1 #
edge $-1 $264 0 $264 6.2831853071796004 $96 $265 forward 7 unknown #
vertex $-1 $99 $266 #
ellipse-curve $-1 -69.063894076889667 -17.809630580468934 10.567417889412901 -0.69465837861970381 0 0.71933979245794832 1.4386795849158966 0 1.3893167572394076 1 I I #
face $-1 $-1 $115 $15 $-1 $267 reversed single #
loop $-1 $-1 $186 $100 #
plane-surface $-1 0 37.873604486389098 0 0 -1 0 0 0 -1 forward_v I I I I #
coedge $-1 $268 $184 $187 $269 forward $101 $-1 #
coedge $-1 $190 $103 $104 $178 reversed $62 $-1 #
coedge $-1 $184 $268 $103 $176 reversed $101 $-1 #
edge $-1 $191 -13.601301719203317 $270 13.601301719203317 $175 $271 forward 7 unknown #
coedge $-1 $105 $104 $268 $272 forward $41 $-1 #
edge $-1 $182 -72.205572679830311 $270 72.205572679830311 $174 $273 forward 7 unknown #
coedge $-1 $187 $186 $105 $180 reversed $171 $-1 #
edge $-1 $274 -72.205572679830311 $181 72.205572679830311 $179 $275 forward 7 unknown #
vertex $-1 $107 $276 #
vertex $-1 $193 $277 #
straight-curve $-1 72.205572679830311 0 -13.601301719203317 0 -1 0 I I #
coedge $-1 $173 $175 $108 $185 reversed $101 $-1 #
edge $-1 $188 -37.873604486389098 $191 37.873604486389098 $184 $278 forward 7 unknown #
coedge $-1 $179 $109 $114 $194 forward $171 $-1 #
coedge $-1 $109 $179 $173 $269 reversed $171 $-1 #
vertex $-1 $110 $279 #
straight-curve $-1 0 37.873604486389098 13.601301719203317 -1 0 0 I I #
coedge $-1 $111 $174 $113 $193 reversed $62 $-1 #
vertex $-1 $185 $280 #
straight-curve $-1 0 -37.873604486389098 13.601301719203317 1 0 0 I I #
edge $-1 $116 -13.601301719203317 $182 13.601301719203317 $113 $281 forward 7 unknown #
edge $-1 $117 -13.601301719203317 $181 13.601301719203317 $114 $282 forward 7 unknown #
point $-1 72.205572679830311 -37.873604486389098 13.601301719203317 #
point $-1 72.205572679830311 37.873604486389098 13.601301719203317 #
face $-1 $-1 $283 $16 $-1 $284 reversed single #
loop $-1 $-1 $285 $119 #
plane-surface $-1 0 0 -13.601301719203317 0 0 1 1 0 0 forward_v I I I I #
coedge $-1 $207 $217 $202 $286 forward $120 $-1 #
coedge $-1 $125 $122 $285 $287 reversed $70 $-1 #
coedge $-1 $122 $125 $200 $286 reversed $70 $-1 #
coedge $-1 $288 $289 $122 $204 forward $283 $-1 #
edge $-1 $290 -13.601301719203317 $291 13.601301719203317 $203 $292 forward 7 unknown #
coedge $-1 $285 $128 $123 $206 forward $198 $-1 #
edge $-1 $133 -32.714119789942828 $210 -27.424609373737251 $205 $293 forward 7 unknown #
coedge $-1 $130 $200 $124 $208 forward $120 $-1 #
edge $-1 $209 27.424609373737251 $132 32.714119789942828 $207 $294 forward 7 unknown #
vertex $-1 $208 $295 #
vertex $-1 $206 $296 #
straight-curve $-1 -57.493973955577289 -22.314847689110842 0 0 0 -1 I I #
coedge $-1 $289 $288 $127 $213 forward $283 $-1 #
edge $-1 $218 -13.601301719203317 $215 13.601301719203317 $212 $297 forward 7 unknown #
coedge $-1 $128 $285 $289 $298 forward $198 $-1 #
vertex $-1 $129 $299 #
straight-curve $-1 -62.783484371782862 -15.047113043874985 -13.601301719203317 0 1 0 I I #
coedge $-1 $200 $130 $288 $300 forward $120 $-1 #
vertex $-1 $300 $301 #
straight-curve $-1 -62.783484371782862 -15.047113043874985 13.601301719203317 0 -1 0 I I #
point $-1 -62.783484371782862 -22.314847689110842 13.601301719203317 #
point $-1 -62.783484371782862 -22.314847689110842 -13.601301719203317 #
face $-1 $-1 $232 $17 $-1 $302 reversed single #
loop $-1 $-1 $228 $135 #
plane-surface $-1 0 0 -13.601301719203317 0 0 1 1 0 0 forward_v I I I I #
coedge $-1 $303 $138 $147 $242 forward $78 $-1 #
coedge $-1 $138 $303 $304 $305 reversed $78 $-1 #
coedge $-1 $140 $139 $146 $241 reversed $49 $-1 #
coedge $-1 $306 $307 $139 $229 forward $223 $-1 #
edge $-1 $308 -72.205572679830311 $233 72.205572679830311 $228 $309 forward 7 unknown #
coedge $-1 $304 $141 $143 $236 forward $232 $-1 #
coedge $-1 $141 $304 $306 $310 reversed $232 $-1 #
loop $-1 $-1 $230 $222 #
vertex $-1 $310 $311 #
vertex $-1 $236 $312 #
straight-curve $-1 -72.205572679830311 23.19206876364396 -5.7311469701820199 0 0 1 I I #
edge $-1 $234 7.9256504511356951 $237 22.607186173880834 $230 $313 forward 7 unknown #
vertex $-1 $305 $314 #
straight-curve $-1 0 37.873604486389098 -9.3232861615247629 1 0 0 I I #
straight-curve $-1 0 23.19206876364396 -9.3232861615247629 1 0 0 I I #
coedge $-1 $147 $146 $307 $315 reversed $136 $-1 #
edge $-1 $149 3.592139191342743 $308 7.8701547490212969 $146 $316 forward 7 unknown #
edge $-1 $148 9.3232861615247629 $317 13.601301719203317 $147 $318 forward 7 unknown #
point $-1 72.205572679830311 37.873604486389098 -9.3232861615247629 #
point $-1 72.205572679830311 23.19206876364396 -9.3232861615247629 #
loop $-1 $-1 $159 $151 #
plane-surface $-1 0 0 13.601301719203317 0 0 1 1 0 0 forward_v I I I I #
coedge $-1 $248 $154 $156 $252 reversed $86 $-1 #
coedge $-1 $154 $247 $319 $320 reversed $86 $-1 #
coedge $-1 $162 $157 $154 $250 forward $152 $-1 #
edge $-1 $253 -48.173574636005185 $321 -42.105806976424347 $249 $322 forward 7 unknown #
coedge $-1 $156 $155 $256 $323 reversed $53 $-1 #
edge $-1 $324 -8.7348945126633382 $253 -3.9571264572537829e-014 $247 $325 forward 7 unknown #
vertex $-1 $158 $326 #
straight-curve $-1 -72.205572679830311 -8.9048152902344668 7.5335340596224771 0 -1 0 I I #
coedge $-1 $319 $159 $162 $260 forward $245 $-1 #
coedge $-1 $159 $319 $251 $323 forward $245 $-1 #
vertex $-1 $160 $327 #
straight-curve $-1 -86.260992384993273 -13.304413471827027 13.60130171920332 -1 0 0 I I #
straight-curve $-1 -72.20557267983034 -13.304413471827027 7.533534059622454 0.71933979245794832 0 0.69465837861970381 I I #
edge $-1 $163 13.304413471827027 $321 22.314847689110842 $162 $328 forward 7 unknown #
point $-1 -72.205572679830311 -13.304413471827027 13.601301719203317 #
point $-1 -72.205572679830311 -13.304413471827027 7.5335340596224816 #
edge $-1 $329 1 $329 0 $166 $-1 forward 7 unknown #
vertex $-1 $167 $330 #
ellipse-curve $-1 -65.851297825195189 -17.809630580468934 7.2406771603411855 -0.69465837861970381 0 0.71933979245794832 1.4386795849158966 0 1.3893167572394076 1 I I #
point $-1 -67.625214491973765 -17.809630580468934 11.956734646652301 #
plane-surface $-1 72.205572679830311 0 0 -1 0 0 0 0 1 forward_v I I I I #
coedge $-1 $175 $173 $177 $272 reversed $101 $-1 #
edge $-1 $188 -13.601301719203317 $274 13.601301719203317 $187 $331 forward 7 unknown #
vertex $-1 $272 $332 #
straight-curve $-1 -72.205572679830311 -37.873604486389098 0 0 0 -1 I I #
edge $-1 $270 -37.873604486389098 $274 37.873604486389098 $268 $333 forward 7 unknown #
straight-curve $-1 0 -37.873604486389098 -13.601301719203317 -1 0 0 I I #
vertex $-1 $180 $334 #
straight-curve $-1 0 37.873604486389098 -13.601301719203317 1 0 0 I I #
point $-1 72.205572679830311 37.873604486389098 -13.601301719203317 #
point $-1 72.205572679830311 -37.873604486389098 -13.601301719203317 #
straight-curve $-1 -72.205572679830311 0 13.601301719203317 0 -1 0 I I #
point $-1 -72.205572679830311 37.873604486389098 13.601301719203317 #
point $-1 -72.205572679830311 -37.873604486389098 13.601301719203317 #
straight-curve $-1 72.205572679830311 -37.873604486389098 0 0 0 -1 I I #
straight-curve $-1 72.205572679830311 37.873604486389098 0 0 0 -1 I I #
loop $-1 $-1 $203 $197 #
plane-surface $-1 0 -37.873604486389098 0 0 1 0 0 0 1 forward_v I I I I #
coedge $-1 $214 $205 $201 $287 forward $198 $-1 #
edge $-1 $291 -22.826491442514111 $209 -7.2677346452358567 $200 $335 forward 7 unknown #
edge $-1 $210 7.2677346452358567 $290 22.826491442514111 $285 $336 forward 7 unknown #
coedge $-1 $212 $203 $217 $300 reversed $283 $-1 #
coedge $-1 $203 $212 $214 $298 reversed $283 $-1 #
vertex $-1 $298 $337 #
vertex $-1 $204 $338 #
straight-curve $-1 -57.493973955577289 -37.873604486389098 0 0 0 1 I I #
straight-curve $-1 -30.069364581840038 -22.314847689110842 -13.601301719203317 1 0 0 I I #
straight-curve $-1 -30.069364581840038 -22.314847689110842 13.601301719203317 -1 0 0 I I #
point $-1 -57.493973955577289 -22.314847689110842 13.601301719203317 #
point $-1 -57.493973955577289 -22.314847689110842 -13.601301719203317 #
straight-curve $-1 -62.783484371782862 -37.873604486389098 0 0 0 -1 I I #
edge $-1 $290 57.493973955577289 $215 62.783484371782862 $289 $339 forward 7 unknown #
point $-1 -62.783484371782862 -37.873604486389098 -13.601301719203317 #
edge $-1 $218 -62.783484371782862 $291 -57.493973955577289 $288 $340 forward 7 unknown #
point $-1 -62.783484371782862 -37.873604486389098 13.601301719203317 #
plane-surface $-1 -72.205572679830311 0 0 1 0 0 0 0 -1 forward_v I I I I #
coedge $-1 $226 $225 $341 $342 reversed $78 $-1 #
coedge $-1 $231 $230 $226 $305 forward $232 $-1 #
edge $-1 $237 9.3232861615247629 $343 13.601301719203317 $226 $344 forward 7 unknown #
coedge $-1 $341 $228 $231 $310 forward $223 $-1 #
coedge $-1 $228 $341 $240 $315 forward $223 $-1 #
vertex $-1 $241 $345 #
straight-curve $-1 0 23.19206876364396 -13.601301719203317 -1 0 0 I I #
edge $-1 $233 23.19206876364396 $343 37.873604486389098 $231 $346 forward 7 unknown #
point $-1 -72.205572679830311 23.19206876364396 -13.601301719203317 #
point $-1 -72.205572679830311 23.19206876364396 -9.3232861615247629 #
straight-curve $-1 -72.205572679830311 15.266418312508264 -9.3232861615247629 0 1 0 I I #
point $-1 -72.205572679830311 37.873604486389098 -9.3232861615247629 #
edge $-1 $317 -37.873604486389098 $308 -23.19206876364396 $240 $347 forward 7 unknown #
straight-curve $-1 72.205572679830311 23.19206876364396 -5.7311469701820199 0 0 -1 I I #
vertex $-1 $315 $348 #
straight-curve $-1 72.205572679830311 37.873604486389098 0 0 0 -1 I I #
coedge $-1 $256 $255 $248 $320 forward $245 $-1 #
edge $-1 $321 14.055419705162961 $324 20.338776911044249 $319 $349 forward 7 unknown #
vertex $-1 $320 $350 #
straight-curve $-1 -72.205572679830311 -22.314847689110842 55.707108695627667 0 0 1 I I #
edge $-1 $324 -13.410032398876375 $257 -4.3995981815925607 $256 $351 forward 7 unknown #
vertex $-1 $323 $352 #
straight-curve $-1 -72.20557267983034 -22.314847689110842 7.533534059622454 -0.71933979245794832 0 -0.69465837861970381 I I #
point $-1 -72.205572679830311 -22.314847689110842 7.5335340596224816 #
point $-1 -65.922215473949024 -13.304413471827027 13.601301719203317 #
straight-curve $-1 -72.205572679830311 0 13.601301719203317 0 -1 0 I I #
vertex $-1 $263 $353 #
point $-1 -64.412618240279286 -17.809630580468934 8.6299939175805935 #
straight-curve $-1 -72.205572679830311 37.873604486389098 0 0 0 -1 I I #
point $-1 -72.205572679830311 -37.873604486389098 -13.601301719203317 #
straight-curve $-1 -72.205572679830311 0 -13.601301719203317 0 1 0 I I #
point $-1 -72.205572679830311 37.873604486389098 -13.601301719203317 #
straight-curve $-1 -57.493973955577289 -15.047113043874985 13.601301719203317 0 1 0 I I #
straight-curve $-1 -57.493973955577289 -15.047113043874985 -13.601301719203317 0 -1 0 I I #
point $-1 -57.493973955577289 -37.873604486389098 -13.601301719203317 #
point $-1 -57.493973955577289 -37.873604486389098 13.601301719203317 #
straight-curve $-1 0 -37.873604486389098 -13.601301719203317 -1 0 0 I I #
straight-curve $-1 0 -37.873604486389098 13.601301719203317 1 0 0 I I #
coedge $-1 $307 $306 $303 $342 forward $223 $-1 #
edge $-1 $343 -72.205572679830311 $317 72.205572679830311 $303 $354 forward 7 unknown #
vertex $-1 $342 $355 #
straight-curve $-1 -72.205572679830311 37.873604486389098 0 0 0 -1 I I #
point $-1 72.205572679830311 23.19206876364396 -13.601301719203317 #
straight-curve $-1 -72.205572679830311 0 -13.601301719203317 0 1 0 I I #
straight-curve $-1 72.205572679830311 0 -13.601301719203317 0 -1 0 I I #
point $-1 72.205572679830311 37.873604486389098 -13.601301719203317 #
straight-curve $-1 -86.260992384993273 -22.314847689110842 13.60130171920332 1 0 0 I I #
point $-1 -72.205572679830311 -22.314847689110842 13.601301719203317 #
straight-curve $-1 -65.922215473949024 -8.9048152902344668 13.601301719203317 0 1 0 I I #
point $-1 -65.922215473949024 -22.314847689110842 13.601301719203317 #
point $-1 -64.461981067955776 -17.809630580468934 5.8019975754252897 #
straight-curve $-1 0 37.873604486389098 -13.601301719203317 1 0 0 I I #
point $-1 -72.205572679830311 37.873604486389098 -13.601301719203317 #
End-of-ACIS-data 