500 0 13 0           
7 Unknown 11 ACIS 5.0 NT 24 Thu Mar 25 15:42:18 1999 
-1 9.9999999999999995e-007 1e-010 
body $-1 $13 $-1 $14 #
body $-1 $15 $-1 $16 #
body $-1 $17 $-1 $18 #
body $-1 $19 $-1 $20 #
body $-1 $21 $-1 $22 #
body $-1 $23 $-1 $24 #
body $-1 $25 $-1 $26 #
body $-1 $27 $-1 $28 #
body $-1 $29 $-1 $30 #
body $-1 $31 $-1 $32 #
body $-1 $33 $-1 $34 #
body $-1 $35 $-1 $36 #
body $-1 $37 $-1 $38 #
lump $-1 $-1 $39 $0 #
transform $-1 1 0 0 0 1 0 0 0 1 42.890713217566457 27.793030325549083 6.8067351011535644 1 rotate no_reflect no_shear #
lump $-1 $-1 $40 $1 #
transform $-1 1 0 0 0 1 0 0 0 1 42.890713217566457 27.793030325549083 6.8067351011535644 1 rotate no_reflect no_shear #
lump $-1 $-1 $41 $2 #
transform $-1 1 0 0 0 1 0 0 0 1 42.890713217566457 27.793030325549083 6.8067351011535644 1 rotate no_reflect no_shear #
lump $-1 $-1 $42 $3 #
transform $-1 1 0 0 0 1 0 0 0 1 42.890713217566457 27.793030325549083 6.8067351011535644 1 rotate no_reflect no_shear #
lump $-1 $-1 $43 $4 #
transform $-1 1 0 0 0 1 0 0 0 1 42.890713217566457 27.793030325549083 6.8067351011535644 1 rotate no_reflect no_shear #
lump $-1 $-1 $44 $5 #
transform $-1 1 0 0 0 1 0 0 0 1 42.890713217566457 27.793030325549083 6.8067351011535644 1 rotate no_reflect no_shear #
lump $-1 $-1 $45 $6 #
transform $-1 1 0 0 0 1 0 0 0 1 42.890713217566457 27.793030325549083 6.8067351011535644 1 rotate no_reflect no_shear #
lump $-1 $-1 $46 $7 #
transform $-1 1 0 0 0 1 0 0 0 1 42.890713217566457 27.793030325549083 6.8067351011535644 1 rotate no_reflect no_shear #
lump $-1 $-1 $47 $8 #
transform $-1 1 0 0 0 1 0 0 0 1 42.890713217566457 27.793030325549083 6.8067351011535644 1 rotate no_reflect no_shear #
lump $-1 $-1 $48 $9 #
transform $-1 1 0 0 0 1 0 0 0 1 42.890713217566457 27.793030325549083 6.8067351011535644 1 rotate no_reflect no_shear #
lump $-1 $-1 $49 $10 #
transform $-1 1 0 0 0 1 0 0 0 1 42.890713217566457 27.793030325549083 6.8067351011535644 1 rotate no_reflect no_shear #
lump $-1 $-1 $50 $11 #
transform $-1 1 0 0 0 1 0 0 0 1 42.890713217566457 27.793030325549083 6.8067351011535644 1 rotate no_reflect no_shear #
lump $-1 $-1 $51 $12 #
transform $-1 1 0 0 0 1 0 0 0 1 42.890713217566457 27.793030325549083 6.8067351011535644 1 rotate no_reflect no_shear #
shell $-1 $-1 $-1 $52 $-1 $13 #
shell $-1 $-1 $-1 $53 $-1 $15 #
shell $-1 $-1 $-1 $54 $-1 $17 #
shell $-1 $-1 $-1 $55 $-1 $19 #
shell $-1 $-1 $-1 $56 $-1 $21 #
shell $-1 $-1 $-1 $57 $-1 $23 #
shell $-1 $-1 $-1 $58 $-1 $25 #
shell $-1 $-1 $-1 $59 $-1 $27 #
shell $-1 $-1 $-1 $60 $-1 $29 #
shell $-1 $-1 $-1 $61 $-1 $31 #
shell $-1 $-1 $-1 $62 $-1 $33 #
shell $-1 $-1 $-1 $63 $-1 $35 #
shell $-1 $-1 $-1 $64 $-1 $37 #
face $-1 $65 $66 $39 $-1 $67 forward single #
face $-1 $68 $69 $40 $-1 $70 forward single #
face $-1 $71 $72 $41 $-1 $73 forward single #
face $-1 $74 $75 $42 $-1 $76 reversed single #
face $-1 $77 $78 $43 $-1 $79 forward single #
face $-1 $80 $81 $44 $-1 $82 reversed single #
face $-1 $83 $84 $45 $-1 $85 forward single #
face $-1 $86 $87 $46 $-1 $88 reversed single #
face $-1 $89 $90 $47 $-1 $91 forward single #
face $-1 $92 $93 $48 $-1 $94 forward single #
face $-1 $95 $96 $49 $-1 $97 reversed single #
face $-1 $98 $99 $50 $-1 $100 forward single #
face $-1 $101 $102 $51 $-1 $103 forward single #
face $-1 $104 $105 $39 $-1 $106 reversed single #
loop $-1 $-1 $107 $52 #
plane-surface $-1 0 0 6.8067351011535644 0 0 1 1 0 0 forward_v I I I I #
face $-1 $108 $109 $40 $-1 $110 reversed single #
loop $-1 $-1 $111 $53 #
plane-surface $-1 0 -27.793030325549083 0 0 1 0 0 0 1 forward_v I I I I #
face $-1 $112 $113 $41 $-1 $114 reversed single #
loop $-1 $-1 $115 $54 #
plane-surface $-1 0 27.793030325549083 0 0 -1 0 0 0 -1 forward_v I I I I #
face $-1 $116 $117 $42 $-1 $118 reversed single #
loop $-1 $-1 $119 $55 #
plane-surface $-1 -114.83307153171023 -23.100963583336686 48.738932898906043 0 1 0 -0.83867057594974714 0 0.54463902268945019 forward_v I I I I #
face $-1 $120 $121 $43 $-1 $122 forward single #
loop $-1 $123 $124 $56 #
cone-surface $-1 -40.733695256923255 -18.659857475282287 4.0216559500162283 0.83867057594974714 0 -0.54463902268945019 0.54463902268945019 0 0.83867057594974714 1 I I 0 1 1 forward I I I I #
face $-1 $125 $126 $44 $-1 $127 reversed single #
loop $-1 $-1 $128 $57 #
plane-surface $-1 -114.83307153171023 14.218751367227883 48.738932898906043 0 1 0 -0.83867057594974714 0 0.54463902268945019 forward_v I I I I #
face $-1 $129 $130 $45 $-1 $131 forward single #
loop $-1 $132 $133 $58 #
cone-surface $-1 -40.733695256923255 18.65985747528228 4.0216559500162283 0.83867057594974714 0 -0.54463902268945019 0.54463902268945019 0 0.83867057594974714 1 I I 0 1 1 forward I I I I #
face $-1 $134 $135 $46 $-1 $136 reversed single #
loop $-1 $-1 $137 $59 #
plane-surface $-1 74.288896278467689 -5.9559510987477546 119.96364601597226 0 -1 0 -0.86602541151947299 0 -0.49999998660252726 forward_v I I I I #
face $-1 $138 $139 $47 $-1 $140 forward single #
loop $-1 $141 $142 $60 #
cone-surface $-1 40.486031060077913 -13.799995390068165 4.0774924510048569 -0.86602541151947299 0 -0.49999998660252726 0.49999998660252726 0 -0.86602541151947299 1 I I 0 1 1 forward I I I I #
face $-1 $143 $144 $48 $-1 $145 forward single #
loop $-1 $146 $147 $61 #
cone-surface $-1 40.486031060077913 -9.0935688152759191 4.0774924510048569 -0.86602541151947299 0 -0.49999998660252726 0.49999998660252726 0 -0.86602541151947299 1 I I 0 1 1 forward I I I I #
face $-1 $148 $149 $49 $-1 $150 reversed single #
loop $-1 $-1 $151 $62 #
plane-surface $-1 74.288896278467689 16.937613106596334 119.96364601597226 0 -1 0 -0.86602541151947299 0 -0.49999998660252726 forward_v I I I I #
face $-1 $152 $153 $50 $-1 $154 forward single #
loop $-1 $155 $156 $63 #
cone-surface $-1 40.486031060077913 9.0935688152759155 4.0774924510048569 -0.86602541151947299 0 -0.49999998660252726 0.49999998660252726 0 -0.86602541151947299 1 I I 0 1 1 forward I I I I #
face $-1 $157 $158 $51 $-1 $159 forward single #
loop $-1 $160 $161 $64 #
cone-surface $-1 40.486031060077913 13.799995390068162 4.0774924510048569 -0.86602541151947299 0 -0.49999998660252726 0.49999998660252726 0 -0.86602541151947299 1 I I 0 1 1 forward I I I I #
face $-1 $162 $163 $39 $-1 $164 reversed single #
loop $-1 $-1 $165 $65 #
plane-surface $-1 0 0 -6.8067351011535644 0 0 1 1 0 0 forward_v I I I I #
coedge $-1 $166 $167 $168 $169 forward $66 $-1 #
face $-1 $170 $171 $40 $-1 $172 forward single #
loop $-1 $-1 $173 $68 #
plane-surface $-1 -42.890713217566457 0 0 1 0 0 0 0 -1 forward_v I I I I #
coedge $-1 $174 $175 $176 $177 forward $69 $-1 #
face $-1 $178 $179 $41 $-1 $180 forward single #
loop $-1 $-1 $181 $71 #
plane-surface $-1 42.890713217566457 0 0 -1 0 0 0 0 1 forward_v I I I I #
coedge $-1 $182 $183 $184 $185 forward $72 $-1 #
face $-1 $186 $187 $42 $-1 $188 reversed single #
loop $-1 $-1 $189 $74 #
plane-surface $-1 -42.890713217566443 -18.659857475282287 2.0190206403682822 -0.83867057594974714 0 0.54463902268945019 0.54463902268945019 0 0.83867057594974714 forward_v I I I I #
coedge $-1 $190 $191 $192 $193 reversed $75 $-1 #
face $-1 $-1 $194 $43 $-1 $195 forward single #
loop $-1 $196 $197 $77 #
cone-surface $-1 -39.711931020734347 -18.659857475282287 3.3581145179268033 0.83867057594974714 0 -0.54463902268945019 0.2723195113447251 0 0.41933528797487357 1 I I -0.70710678118654746 0.70710678118654746 0.5 forward I I I I #
loop $-1 $-1 $198 $56 #
coedge $-1 $124 $124 $199 $200 reversed $78 $-1 #
face $-1 $201 $202 $44 $-1 $203 reversed single #
loop $-1 $-1 $204 $80 #
plane-surface $-1 -42.890713217566443 18.65985747528228 2.0190206403682822 -0.83867057594974714 0 0.54463902268945019 0.54463902268945019 0 0.83867057594974714 forward_v I I I I #
coedge $-1 $205 $206 $207 $208 reversed $81 $-1 #
face $-1 $-1 $209 $45 $-1 $210 forward single #
loop $-1 $211 $212 $83 #
cone-surface $-1 -39.711931020734347 18.65985747528228 3.3581145179268033 0.83867057594974714 0 -0.54463902268945019 0.2723195113447251 0 0.41933528797487357 1 I I -0.70710678118654746 0.70710678118654746 0.5 forward I I I I #
loop $-1 $-1 $213 $58 #
coedge $-1 $133 $133 $214 $215 reversed $84 $-1 #
face $-1 $216 $217 $46 $-1 $218 reversed single #
loop $-1 $-1 $219 $86 #
plane-surface $-1 1.1492543023905455e-006 -11.446782102672042 77.072933947660118 0.86602541151947299 0 0.49999998660252726 0.49999998660252726 0 -0.86602541151947299 forward_v I I I I #
coedge $-1 $220 $221 $222 $223 reversed $87 $-1 #
face $-1 $-1 $224 $47 $-1 $225 forward single #
loop $-1 $226 $227 $89 #
cone-surface $-1 38.80958854618649 -13.799995390068165 3.109597948908287 -0.86602541151947299 0 -0.49999998660252726 0.24999999330126363 0 -0.43301270575973649 1 I I -0.70710678118654746 0.70710678118654746 0.5 forward I I I I #
loop $-1 $-1 $228 $60 #
coedge $-1 $142 $142 $229 $230 reversed $90 $-1 #
face $-1 $-1 $231 $48 $-1 $232 forward single #
loop $-1 $233 $234 $92 #
cone-surface $-1 38.80958854618649 -9.0935688152759191 3.109597948908287 -0.86602541151947299 0 -0.49999998660252726 0.24999999330126363 0 -0.43301270575973649 1 I I -0.70710678118654746 0.70710678118654746 0.5 forward I I I I #
loop $-1 $-1 $235 $61 #
coedge $-1 $147 $147 $236 $237 reversed $93 $-1 #
face $-1 $238 $239 $49 $-1 $240 reversed single #
loop $-1 $-1 $241 $95 #
plane-surface $-1 1.1492543023905455e-006 11.446782102672046 77.072933947660118 0.86602541151947299 0 0.49999998660252726 0.49999998660252726 0 -0.86602541151947299 forward_v I I I I #
coedge $-1 $242 $243 $244 $245 reversed $96 $-1 #
face $-1 $-1 $246 $50 $-1 $247 forward single #
loop $-1 $248 $249 $98 #
cone-surface $-1 38.80958854618649 9.0935688152759155 3.109597948908287 -0.86602541151947299 0 -0.49999998660252726 0.24999999330126363 0 -0.43301270575973649 1 I I -0.70710678118654746 0.70710678118654746 0.5 forward I I I I #
loop $-1 $-1 $250 $63 #
coedge $-1 $156 $156 $251 $252 reversed $99 $-1 #
face $-1 $-1 $253 $51 $-1 $254 forward single #
loop $-1 $255 $256 $101 #
cone-surface $-1 38.80958854618649 13.799995390068162 3.109597948908287 -0.86602541151947299 0 -0.49999998660252726 0.24999999330126363 0 -0.43301270575973649 1 I I -0.70710678118654746 0.70710678118654746 0.5 forward I I I I #
loop $-1 $-1 $257 $64 #
coedge $-1 $161 $161 $258 $259 reversed $102 $-1 #
face $-1 $260 $261 $39 $-1 $262 reversed single #
loop $-1 $-1 $263 $104 #
plane-surface $-1 0 -27.793030325549083 0 0 1 0 0 0 1 forward_v I I I I #
coedge $-1 $264 $265 $266 $267 forward $105 $-1 #
coedge $-1 $268 $107 $269 $270 forward $66 $-1 #
coedge $-1 $107 $268 $271 $272 forward $66 $-1 #
coedge $-1 $273 $274 $107 $169 reversed $275 $-1 #
edge $-1 $276 -27.793030325549083 $277 27.793030325549083 $168 $278 forward 7 unknown #
face $-1 $279 $280 $40 $-1 $281 reversed single #
loop $-1 $-1 $282 $108 #
plane-surface $-1 0 -30.139063696655285 -2.5729722299542521 0 0 1 1 0 0 forward_v I I I I #
coedge $-1 $283 $284 $175 $285 forward $109 $-1 #
coedge $-1 $286 $111 $287 $288 reversed $69 $-1 #
coedge $-1 $111 $286 $173 $285 reversed $69 $-1 #
coedge $-1 $289 $282 $111 $177 reversed $171 $-1 #
edge $-1 $290 -42.890713217566457 $291 42.890713217566457 $176 $292 forward 7 unknown #
face $-1 $293 $294 $41 $-1 $295 reversed single #
loop $-1 $-1 $296 $112 #
plane-surface $-1 0 30.139063696655285 -2.5729722299542521 0 0 1 1 0 0 forward_v I I I I #
coedge $-1 $297 $298 $183 $299 forward $113 $-1 #
coedge $-1 $300 $115 $301 $302 reversed $72 $-1 #
coedge $-1 $115 $300 $181 $299 reversed $72 $-1 #
coedge $-1 $296 $303 $115 $185 reversed $179 $-1 #
edge $-1 $304 -42.890713217566457 $305 42.890713217566457 $184 $306 forward 7 unknown #
face $-1 $307 $308 $42 $-1 $309 reversed single #
loop $-1 $-1 $310 $116 #
plane-surface $-1 -114.83307153171023 -14.21875136722789 48.738932898906043 0 -1 0 0.83867057594974714 0 -0.54463902268945019 forward_v I I I I #
coedge $-1 $311 $312 $313 $314 reversed $117 $-1 #
coedge $-1 $191 $119 $315 $316 reversed $75 $-1 #
coedge $-1 $119 $190 $311 $317 reversed $75 $-1 #
coedge $-1 $313 $318 $119 $193 forward $319 $-1 #
edge $-1 $320 14.525822548288659 $321 17.635000573147018 $192 $322 forward 7 unknown #
loop $-1 $-1 $199 $120 #
plane-surface $-1 -42.890713217566443 -18.659857475282287 2.0190206403682822 -0.83867057594974714 0 0.54463902268945019 0.54463902268945019 0 0.83867057594974714 forward_v I I I I #
loop $-1 $-1 $323 $77 #
coedge $-1 $197 $197 $198 $324 reversed $121 $-1 #
coedge $-1 $198 $198 $197 $324 forward $123 $-1 #
coedge $-1 $199 $199 $124 $200 forward $194 $-1 #
edge $-1 $325 0 $325 6.2831853071796004 $199 $326 forward 7 unknown #
face $-1 $327 $328 $44 $-1 $329 forward single #
loop $-1 $-1 $330 $125 #
plane-surface $-1 -114.83307153171023 23.100963583336679 48.738932898906043 0 -1 0 0.83867057594974714 0 -0.54463902268945019 forward_v I I I I #
coedge $-1 $331 $332 $333 $334 reversed $126 $-1 #
coedge $-1 $206 $128 $335 $336 reversed $81 $-1 #
coedge $-1 $128 $205 $331 $337 reversed $81 $-1 #
coedge $-1 $333 $338 $128 $208 forward $328 $-1 #
edge $-1 $339 14.525822548288659 $340 17.635000573147018 $207 $341 forward 7 unknown #
loop $-1 $-1 $214 $129 #
plane-surface $-1 -42.890713217566443 18.65985747528228 2.0190206403682822 -0.83867057594974714 0 0.54463902268945019 0.54463902268945019 0 0.83867057594974714 forward_v I I I I #
loop $-1 $-1 $342 $83 #
coedge $-1 $212 $212 $213 $343 reversed $130 $-1 #
coedge $-1 $213 $213 $212 $343 forward $132 $-1 #
coedge $-1 $214 $214 $133 $215 forward $209 $-1 #
edge $-1 $344 0 $344 6.2831853071796004 $214 $345 forward 7 unknown #
face $-1 $346 $347 $46 $-1 $348 forward single #
loop $-1 $-1 $349 $134 #
plane-surface $-1 74.288896278467689 -16.937613106596331 119.96364601597226 0 1 0 0.86602541151947299 0 0.49999998660252726 forward_v I I I I #
coedge $-1 $350 $351 $352 $353 reversed $135 $-1 #
coedge $-1 $221 $137 $354 $355 reversed $87 $-1 #
coedge $-1 $137 $220 $350 $356 reversed $87 $-1 #
coedge $-1 $352 $357 $137 $223 forward $347 $-1 #
edge $-1 $358 -5.7462650783326126 $359 -3.4237603796188836 $222 $360 forward 7 unknown #
loop $-1 $-1 $229 $138 #
plane-surface $-1 1.1492543023905455e-006 -11.446782102672042 77.072933947660118 0.86602541151947299 0 0.49999998660252726 0.49999998660252726 0 -0.86602541151947299 forward_v I I I I #
loop $-1 $-1 $361 $89 #
coedge $-1 $227 $227 $228 $362 reversed $139 $-1 #
coedge $-1 $228 $228 $227 $362 forward $141 $-1 #
coedge $-1 $229 $229 $142 $230 forward $224 $-1 #
edge $-1 $363 0 $363 6.2831853071796004 $229 $364 forward 7 unknown #
loop $-1 $-1 $236 $143 #
plane-surface $-1 1.1492543023905455e-006 -11.446782102672042 77.072933947660118 0.86602541151947299 0 0.49999998660252726 0.49999998660252726 0 -0.86602541151947299 forward_v I I I I #
loop $-1 $-1 $365 $92 #
coedge $-1 $234 $234 $235 $366 reversed $144 $-1 #
coedge $-1 $235 $235 $234 $366 forward $146 $-1 #
coedge $-1 $236 $236 $147 $237 forward $231 $-1 #
edge $-1 $367 0 $367 6.2831853071796004 $236 $368 forward 7 unknown #
face $-1 $369 $370 $49 $-1 $371 reversed single #
loop $-1 $-1 $372 $148 #
plane-surface $-1 74.288896278467689 5.9559510987477582 119.96364601597226 0 1 0 0.86602541151947299 0 0.49999998660252726 forward_v I I I I #
coedge $-1 $373 $374 $375 $376 reversed $149 $-1 #
coedge $-1 $243 $151 $377 $378 reversed $96 $-1 #
coedge $-1 $151 $242 $373 $379 reversed $96 $-1 #
coedge $-1 $375 $380 $151 $245 forward $381 $-1 #
edge $-1 $382 -5.7462650783326126 $383 -3.4237603796188836 $244 $384 forward 7 unknown #
loop $-1 $-1 $251 $152 #
plane-surface $-1 1.1492543023905455e-006 11.446782102672046 77.072933947660118 0.86602541151947299 0 0.49999998660252726 0.49999998660252726 0 -0.86602541151947299 forward_v I I I I #
loop $-1 $-1 $385 $98 #
coedge $-1 $249 $249 $250 $386 reversed $153 $-1 #
coedge $-1 $250 $250 $249 $386 forward $155 $-1 #
coedge $-1 $251 $251 $156 $252 forward $246 $-1 #
edge $-1 $387 0 $387 6.2831853071796004 $251 $388 forward 7 unknown #
loop $-1 $-1 $258 $157 #
plane-surface $-1 1.1492543023905455e-006 11.446782102672046 77.072933947660118 0.86602541151947299 0 0.49999998660252726 0.49999998660252726 0 -0.86602541151947299 forward_v I I I I #
loop $-1 $-1 $389 $101 #
coedge $-1 $256 $256 $257 $390 reversed $158 $-1 #
coedge $-1 $257 $257 $256 $390 forward $160 $-1 #
coedge $-1 $258 $258 $161 $259 forward $253 $-1 #
edge $-1 $391 0 $391 6.2831853071796004 $258 $392 forward 7 unknown #
face $-1 $393 $394 $39 $-1 $395 reversed single #
loop $-1 $-1 $396 $162 #
plane-surface $-1 -42.890713217566457 0 0 1 0 0 0 0 -1 forward_v I I I I #
coedge $-1 $397 $271 $398 $399 forward $163 $-1 #
coedge $-1 $400 $165 $397 $401 forward $105 $-1 #
coedge $-1 $165 $400 $402 $403 forward $105 $-1 #
coedge $-1 $274 $273 $165 $267 reversed $275 $-1 #
edge $-1 $404 -27.793030325549083 $405 27.793030325549083 $266 $406 forward 7 unknown #
coedge $-1 $167 $166 $407 $408 forward $66 $-1 #
coedge $-1 $409 $410 $166 $270 reversed $394 $-1 #
edge $-1 $277 -42.890713217566457 $411 42.890713217566457 $269 $412 forward 7 unknown #
coedge $-1 $263 $413 $167 $272 reversed $163 $-1 #
edge $-1 $414 -42.890713217566457 $276 42.890713217566457 $271 $415 forward 7 unknown #
coedge $-1 $266 $168 $413 $416 forward $275 $-1 #
coedge $-1 $168 $266 $409 $417 reversed $275 $-1 #
loop $-1 $-1 $273 $393 #
vertex $-1 $169 $418 #
vertex $-1 $169 $419 #
straight-curve $-1 42.890713217566457 0 6.8067351011535644 0 1 0 I I #
face $-1 $420 $421 $40 $-1 $422 reversed single #
loop $-1 $-1 $423 $170 #
plane-surface $-1 0 -30.139063696655285 -5.5729722299542521 0 0 1 1 0 0 forward_v I I I I #
coedge $-1 $176 $424 $425 $426 forward $171 $-1 #
coedge $-1 $427 $173 $428 $429 reversed $109 $-1 #
coedge $-1 $173 $427 $289 $430 reversed $109 $-1 #
edge $-1 $290 2.5729722299542521 $431 5.5729722299542521 $173 $432 forward 7 unknown #
coedge $-1 $175 $174 $433 $434 forward $69 $-1 #
coedge $-1 $425 $435 $174 $288 forward $436 $-1 #
edge $-1 $437 -5.5729722299542521 $291 -2.5729722299542521 $287 $438 forward 7 unknown #
coedge $-1 $424 $176 $284 $430 forward $171 $-1 #
vertex $-1 $285 $439 #
vertex $-1 $426 $440 #
straight-curve $-1 0 -27.793030325549083 -2.5729722299542521 1 0 0 I I #
face $-1 $441 $442 $41 $-1 $443 reversed single #
loop $-1 $-1 $444 $178 #
plane-surface $-1 0 30.139063696655285 -5.5729722299542521 0 0 1 1 0 0 forward_v I I I I #
coedge $-1 $445 $184 $298 $446 forward $179 $-1 #
coedge $-1 $447 $181 $444 $448 reversed $113 $-1 #
coedge $-1 $181 $447 $296 $446 reversed $113 $-1 #
edge $-1 $304 2.5729722299542521 $449 5.5729722299542521 $181 $450 forward 7 unknown #
coedge $-1 $183 $182 $451 $452 forward $72 $-1 #
coedge $-1 $453 $454 $182 $302 forward $455 $-1 #
edge $-1 $456 -5.5729722299542521 $305 -2.5729722299542521 $301 $457 forward 7 unknown #
coedge $-1 $184 $445 $453 $458 forward $179 $-1 #
vertex $-1 $299 $459 #
vertex $-1 $458 $460 #
straight-curve $-1 0 27.793030325549083 -2.5729722299542521 -1 0 0 I I #
face $-1 $-1 $319 $42 $-1 $461 forward single #
loop $-1 $-1 $462 $186 #
plane-surface $-1 -42.890713217566457 0 0 1 0 0 0 0 -1 forward_v I I I I #
coedge $-1 $463 $464 $465 $466 reversed $187 $-1 #
coedge $-1 $467 $189 $191 $317 forward $117 $-1 #
coedge $-1 $189 $467 $463 $468 forward $117 $-1 #
coedge $-1 $465 $192 $189 $314 forward $319 $-1 #
edge $-1 $321 -13.771034845695542 $469 -4.8888226295867465 $313 $470 forward 7 unknown #
coedge $-1 $471 $472 $190 $316 forward $308 $-1 #
edge $-1 $473 -22.350445809084761 $320 -17.562731348299458 $315 $474 forward 7 unknown #
edge $-1 $321 -5.7086949251360899 $473 2.5989569140172373e-014 $191 $475 forward 7 unknown #
coedge $-1 $192 $465 $471 $476 forward $319 $-1 #
loop $-1 $-1 $465 $307 #
vertex $-1 $316 $477 #
vertex $-1 $193 $478 #
straight-curve $-1 -57.416535765855116 -23.100963583336686 6.8067351011535635 1 0 0 I I #
coedge $-1 $323 $323 $-1 $479 reversed $196 $-1 #
edge $-1 $480 0 $480 6.2831853071796004 $197 $481 forward 7 unknown #
vertex $-1 $200 $482 #
ellipse-curve $-1 -41.336124205137274 -18.659857475282287 4.4128778707609193 -0.83867057594974714 0 0.54463902268945019 0.54463902268945019 0 0.83867057594974714 1 I I #
face $-1 $-1 $483 $44 $-1 $484 reversed single #
loop $-1 $-1 $207 $201 #
plane-surface $-1 0 0 6.8067351011535644 0 0 1 1 0 0 forward_v I I I I #
coedge $-1 $485 $486 $487 $488 reversed $202 $-1 #
coedge $-1 $489 $204 $206 $337 forward $126 $-1 #
coedge $-1 $204 $489 $485 $490 forward $126 $-1 #
coedge $-1 $487 $207 $204 $334 forward $328 $-1 #
edge $-1 $340 4.888822629586743 $491 13.771034845695539 $333 $492 forward 7 unknown #
coedge $-1 $493 $494 $205 $336 forward $483 $-1 #
edge $-1 $495 -22.350445809084761 $339 -17.562731348299458 $335 $496 forward 7 unknown #
edge $-1 $340 -5.7086949251360899 $495 2.5989569140172373e-014 $206 $497 forward 7 unknown #
coedge $-1 $207 $487 $493 $498 forward $328 $-1 #
vertex $-1 $208 $499 #
vertex $-1 $208 $500 #
straight-curve $-1 -57.416535765855116 14.218751367227883 6.8067351011535635 1 0 0 I I #
coedge $-1 $342 $342 $-1 $501 reversed $211 $-1 #
edge $-1 $502 0 $502 6.2831853071796004 $212 $503 forward 7 unknown #
vertex $-1 $215 $504 #
ellipse-curve $-1 -41.336124205137274 18.65985747528228 4.4128778707609193 -0.83867057594974714 0 0.54463902268945019 0.54463902268945019 0 0.83867057594974714 1 I I #
face $-1 $-1 $505 $46 $-1 $506 reversed single #
loop $-1 $-1 $222 $216 #
plane-surface $-1 0 0 6.8067351011535644 0 0 1 1 0 0 forward_v I I I I #
coedge $-1 $507 $508 $509 $510 reversed $217 $-1 #
coedge $-1 $511 $219 $221 $356 forward $135 $-1 #
coedge $-1 $219 $511 $507 $512 forward $135 $-1 #
coedge $-1 $509 $222 $219 $353 forward $347 $-1 #
edge $-1 $359 0.23256004741173353 $513 11.21422205526031 $352 $514 forward 7 unknown #
coedge $-1 $515 $516 $220 $355 forward $505 $-1 #
edge $-1 $517 -57.197784189539426 $358 -53.175087906832566 $354 $518 forward 7 unknown #
edge $-1 $359 81.136416913242712 $517 85.781426435132943 $221 $519 forward 7 unknown #
coedge $-1 $222 $509 $515 $520 forward $347 $-1 #
vertex $-1 $355 $521 #
vertex $-1 $223 $522 #
straight-curve $-1 37.144448139233845 -5.9559510987477546 6.8067351011535635 -1 0 0 I I #
coedge $-1 $361 $361 $-1 $523 reversed $226 $-1 #
edge $-1 $524 0 $524 6.2831853071796004 $227 $525 forward 7 unknown #
vertex $-1 $230 $526 #
ellipse-curve $-1 41.729460868209578 -13.799995390068165 4.7953869598001537 0.86602541151947299 0 0.49999998660252726 0.49999998660252726 0 -0.86602541151947299 1 I I #
coedge $-1 $365 $365 $-1 $527 reversed $233 $-1 #
edge $-1 $528 0 $528 6.2831853071796004 $234 $529 forward 7 unknown #
vertex $-1 $237 $530 #
ellipse-curve $-1 41.729460868209578 -9.0935688152759191 4.7953869598001537 0.86602541151947299 0 0.49999998660252726 0.49999998660252726 0 -0.86602541151947299 1 I I #
face $-1 $-1 $381 $49 $-1 $531 forward single #
loop $-1 $-1 $532 $238 #
plane-surface $-1 42.890713217566457 0 0 -1 0 0 0 0 1 forward_v I I I I #
coedge $-1 $533 $534 $535 $536 reversed $239 $-1 #
coedge $-1 $537 $241 $243 $379 forward $149 $-1 #
coedge $-1 $241 $537 $533 $538 forward $149 $-1 #
coedge $-1 $535 $244 $241 $376 forward $381 $-1 #
edge $-1 $383 -11.214222055260311 $539 -0.2325600474117353 $375 $540 forward 7 unknown #
coedge $-1 $541 $542 $242 $378 forward $370 $-1 #
edge $-1 $543 -57.197784189539426 $382 -53.175087906832566 $377 $544 forward 7 unknown #
edge $-1 $383 81.136416913242712 $543 85.781426435132943 $243 $545 forward 7 unknown #
coedge $-1 $244 $535 $541 $546 forward $381 $-1 #
loop $-1 $-1 $535 $369 #
vertex $-1 $378 $547 #
vertex $-1 $245 $548 #
straight-curve $-1 37.144448139233845 16.937613106596334 6.8067351011535635 -1 0 0 I I #
coedge $-1 $385 $385 $-1 $549 reversed $248 $-1 #
edge $-1 $550 0 $550 6.2831853071796004 $249 $551 forward 7 unknown #
vertex $-1 $252 $552 #
ellipse-curve $-1 41.729460868209578 9.0935688152759155 4.7953869598001537 0.86602541151947299 0 0.49999998660252726 0.49999998660252726 0 -0.86602541151947299 1 I I #
coedge $-1 $389 $389 $-1 $553 reversed $255 $-1 #
edge $-1 $554 0 $554 6.2831853071796004 $256 $555 forward 7 unknown #
vertex $-1 $259 $556 #
ellipse-curve $-1 41.729460868209578 13.799995390068162 4.7953869598001537 0.86602541151947299 0 0.49999998660252726 0.49999998660252726 0 -0.86602541151947299 1 I I #
face $-1 $-1 $275 $39 $-1 $557 reversed single #
loop $-1 $-1 $410 $260 #
plane-surface $-1 0 27.793030325549083 0 0 -1 0 0 0 -1 forward_v I I I I #
coedge $-1 $558 $407 $410 $559 forward $261 $-1 #
coedge $-1 $413 $263 $264 $401 reversed $163 $-1 #
coedge $-1 $407 $558 $263 $399 reversed $261 $-1 #
edge $-1 $414 -6.8067351011535644 $560 6.8067351011535644 $398 $561 forward 7 unknown #
coedge $-1 $265 $264 $558 $562 forward $105 $-1 #
edge $-1 $405 -42.890713217566457 $560 42.890713217566457 $397 $563 forward 7 unknown #
coedge $-1 $410 $409 $265 $403 reversed $394 $-1 #
edge $-1 $564 -42.890713217566457 $404 42.890713217566457 $402 $565 forward 7 unknown #
vertex $-1 $267 $566 #
vertex $-1 $416 $567 #
straight-curve $-1 42.890713217566457 0 -6.8067351011535644 0 -1 0 I I #
coedge $-1 $396 $398 $268 $408 reversed $261 $-1 #
edge $-1 $411 -27.793030325549083 $414 27.793030325549083 $407 $568 forward 7 unknown #
coedge $-1 $402 $269 $274 $417 forward $394 $-1 #
coedge $-1 $269 $402 $396 $559 reversed $394 $-1 #
vertex $-1 $270 $569 #
straight-curve $-1 0 27.793030325549083 6.8067351011535644 -1 0 0 I I #
coedge $-1 $271 $397 $273 $416 reversed $163 $-1 #
vertex $-1 $408 $570 #
straight-curve $-1 0 -27.793030325549083 6.8067351011535644 1 0 0 I I #
edge $-1 $276 -6.8067351011535644 $405 6.8067351011535644 $273 $571 forward 7 unknown #
edge $-1 $277 -6.8067351011535644 $404 6.8067351011535644 $274 $572 forward 7 unknown #
point $-1 42.890713217566457 -27.793030325549083 6.8067351011535644 #
point $-1 42.890713217566457 27.793030325549083 6.8067351011535644 #
face $-1 $-1 $436 $40 $-1 $573 reversed single #
loop $-1 $-1 $574 $279 #
plane-surface $-1 0 -32.485097067761487 -4.0729722299542521 0 1 0 0 0 1 forward_v I I I I #
coedge $-1 $575 $433 $435 $576 forward $280 $-1 #
coedge $-1 $282 $289 $577 $578 forward $171 $-1 #
coedge $-1 $579 $287 $282 $426 reversed $436 $-1 #
edge $-1 $580 -2.346033371106202 $291 2.346033371106202 $425 $581 forward 7 unknown #
coedge $-1 $284 $283 $574 $582 reversed $109 $-1 #
coedge $-1 $433 $575 $283 $429 forward $280 $-1 #
edge $-1 $583 -2.346033371106202 $431 2.346033371106202 $283 $584 forward 7 unknown #
edge $-1 $290 -2.346033371106202 $585 2.346033371106202 $284 $586 forward 7 unknown #
vertex $-1 $285 $587 #
straight-curve $-1 -42.890713217566457 -27.793030325549083 0 0 0 -1 I I #
coedge $-1 $423 $428 $286 $434 reversed $280 $-1 #
edge $-1 $437 -42.890713217566457 $431 42.890713217566457 $433 $588 forward 7 unknown #
coedge $-1 $287 $579 $423 $576 reversed $436 $-1 #
loop $-1 $-1 $287 $420 #
vertex $-1 $288 $589 #
straight-curve $-1 42.890713217566457 -27.793030325549083 0 0 0 1 I I #
point $-1 -42.890713217566457 -27.793030325549083 -2.5729722299542521 #
point $-1 42.890713217566457 -27.793030325549083 -2.5729722299542521 #
face $-1 $-1 $455 $41 $-1 $590 reversed single #
loop $-1 $-1 $591 $293 #
plane-surface $-1 0 32.485097067761487 -4.0729722299542521 0 -1 0 0 0 -1 forward_v I I I I #
coedge $-1 $451 $592 $297 $448 forward $294 $-1 #
coedge $-1 $303 $296 $593 $594 forward $179 $-1 #
edge $-1 $304 -2.346033371106202 $595 2.346033371106202 $298 $596 forward 7 unknown #
coedge $-1 $298 $297 $591 $597 reversed $113 $-1 #
edge $-1 $598 -2.346033371106202 $449 2.346033371106202 $297 $599 forward 7 unknown #
vertex $-1 $299 $600 #
straight-curve $-1 42.890713217566457 27.793030325549083 0 0 0 -1 I I #
coedge $-1 $601 $444 $300 $452 reversed $294 $-1 #
edge $-1 $456 -42.890713217566457 $449 42.890713217566457 $451 $602 forward 7 unknown #
coedge $-1 $603 $301 $303 $458 reversed $455 $-1 #
coedge $-1 $301 $603 $601 $604 reversed $455 $-1 #
loop $-1 $-1 $301 $441 #
vertex $-1 $302 $605 #
straight-curve $-1 -42.890713217566457 27.793030325549083 0 0 0 1 I I #
edge $-1 $606 -2.346033371106202 $305 2.346033371106202 $453 $607 forward 7 unknown #
point $-1 42.890713217566457 27.793030325549083 -2.5729722299542521 #
point $-1 -42.890713217566457 27.793030325549083 -2.5729722299542521 #
plane-surface $-1 0 0 6.8067351011535644 0 0 1 1 0 0 forward_v I I I I #
coedge $-1 $472 $471 $464 $608 forward $308 $-1 #
coedge $-1 $464 $310 $312 $468 reversed $187 $-1 #
coedge $-1 $310 $463 $462 $608 reversed $187 $-1 #
coedge $-1 $318 $313 $310 $466 forward $319 $-1 #
edge $-1 $469 -17.635000573147018 $609 -14.525822548288659 $465 $610 forward 7 unknown #
coedge $-1 $312 $311 $472 $611 reversed $117 $-1 #
edge $-1 $612 -2.5989569140172373e-014 $469 5.7086949251360899 $463 $613 forward 7 unknown #
vertex $-1 $314 $614 #
straight-curve $-1 -39.781535192708098 -9.3299287376411435 6.8067351011535644 0 1 0 I I #
coedge $-1 $462 $315 $318 $476 reversed $308 $-1 #
coedge $-1 $315 $462 $467 $611 forward $308 $-1 #
vertex $-1 $316 $615 #
straight-curve $-1 -42.890713217566457 -23.100963583336686 24.369466449453022 0 0 1 I I #
straight-curve $-1 -42.890713217566443 -23.100963583336686 2.0190206403682822 -0.54463902268945019 0 -0.83867057594974714 I I #
edge $-1 $609 14.21875136722789 $320 23.100963583336686 $471 $616 forward 7 unknown #
point $-1 -42.890713217566457 -23.100963583336686 6.8067351011535644 #
point $-1 -39.781535192708098 -23.100963583336686 6.8067351011535644 #
edge $-1 $617 1 $617 0 $323 $-1 forward 7 unknown #
vertex $-1 $324 $618 #
ellipse-curve $-1 -40.131266308709222 -18.659857475282287 3.6304340292715285 -0.83867057594974714 0 0.54463902268945019 0.54463902268945019 0 0.83867057594974714 1 I I #
point $-1 -40.791485182447836 -18.659857475282287 5.2515484467106752 #
loop $-1 $-1 $335 $327 #
plane-surface $-1 -42.890713217566457 0 0 1 0 0 0 0 -1 forward_v I I I I #
coedge $-1 $486 $330 $332 $490 reversed $202 $-1 #
coedge $-1 $330 $485 $619 $620 reversed $202 $-1 #
coedge $-1 $338 $333 $330 $488 forward $328 $-1 #
edge $-1 $491 -17.635000573147018 $621 -14.525822548288659 $487 $622 forward 7 unknown #
coedge $-1 $332 $331 $494 $623 reversed $126 $-1 #
edge $-1 $624 -2.5989569140172373e-014 $491 5.7086949251360899 $485 $625 forward 7 unknown #
vertex $-1 $334 $626 #
straight-curve $-1 -39.781535192708098 9.3299287376411399 6.8067351011535644 0 1 0 I I #
coedge $-1 $619 $335 $338 $498 reversed $483 $-1 #
coedge $-1 $335 $619 $489 $623 forward $483 $-1 #
vertex $-1 $336 $627 #
straight-curve $-1 -42.890713217566457 14.218751367227883 24.369466449453022 0 0 1 I I #
straight-curve $-1 -42.890713217566443 14.218751367227883 2.0190206403682822 -0.54463902268945019 0 -0.83867057594974714 I I #
edge $-1 $621 -23.100963583336679 $339 -14.218751367227883 $493 $628 forward 7 unknown #
point $-1 -42.890713217566457 14.218751367227883 6.8067351011535644 #
point $-1 -39.781535192708098 14.218751367227883 6.8067351011535644 #
edge $-1 $629 1 $629 0 $342 $-1 forward 7 unknown #
vertex $-1 $343 $630 #
ellipse-curve $-1 -40.131266308709222 18.65985747528228 3.6304340292715285 -0.83867057594974714 0 0.54463902268945019 0.54463902268945019 0 0.83867057594974714 1 I I #
point $-1 -40.791485182447836 18.65985747528228 5.2515484467106752 #
loop $-1 $-1 $354 $346 #
plane-surface $-1 42.890713217566457 0 0 -1 0 0 0 0 1 forward_v I I I I #
coedge $-1 $508 $349 $351 $512 reversed $217 $-1 #
coedge $-1 $349 $507 $631 $632 reversed $217 $-1 #
coedge $-1 $357 $352 $349 $510 forward $347 $-1 #
edge $-1 $513 3.4237603796188836 $633 5.7462650783326126 $509 $634 forward 7 unknown #
coedge $-1 $351 $350 $516 $635 reversed $135 $-1 #
edge $-1 $636 -85.781426435132943 $513 -81.136416913242712 $507 $637 forward 7 unknown #
vertex $-1 $353 $638 #
straight-curve $-1 40.568208518852721 -5.7233910513360211 6.8067351011535635 0 -1 0 I I #
coedge $-1 $631 $354 $357 $520 reversed $505 $-1 #
coedge $-1 $354 $631 $511 $635 forward $505 $-1 #
vertex $-1 $355 $639 #
straight-curve $-1 42.890713217566457 -5.9559510987477546 59.981823007986129 0 0 1 I I #
straight-curve $-1 1.1492543023905455e-006 -5.9559510987477546 77.072933947660118 0.49999998660252726 0 -0.86602541151947299 I I #
edge $-1 $633 -16.937613106596331 $358 -5.9559510987477546 $515 $640 forward 7 unknown #
point $-1 42.890713217566457 -5.9559510987477546 6.8067351011535644 #
point $-1 40.568208518852728 -5.9559510987477546 6.8067351011535635 #
edge $-1 $641 1 $641 0 $361 $-1 forward 7 unknown #
vertex $-1 $362 $642 #
ellipse-curve $-1 39.242601251946226 -13.799995390068165 3.3595979422095508 0.86602541151947299 0 0.49999998660252726 0.49999998660252726 0 -0.86602541151947299 1 I I #
point $-1 42.229460854812118 -13.799995390068165 3.9293615482806903 #
edge $-1 $643 1 $643 0 $365 $-1 forward 7 unknown #
vertex $-1 $366 $644 #
ellipse-curve $-1 39.242601251946226 -9.0935688152759191 3.3595979422095508 0.86602541151947299 0 0.49999998660252726 0.49999998660252726 0 -0.86602541151947299 1 I I #
point $-1 42.229460854812118 -9.0935688152759191 3.9293615482806903 #
plane-surface $-1 0 0 6.8067351011535644 0 0 1 1 0 0 forward_v I I I I #
coedge $-1 $542 $541 $534 $645 forward $370 $-1 #
coedge $-1 $534 $372 $374 $538 reversed $239 $-1 #
coedge $-1 $372 $533 $532 $645 reversed $239 $-1 #
coedge $-1 $380 $375 $372 $536 forward $381 $-1 #
edge $-1 $539 3.4237603796188836 $646 5.7462650783326126 $535 $647 forward 7 unknown #
coedge $-1 $374 $373 $542 $648 reversed $149 $-1 #
edge $-1 $649 -85.781426435132943 $539 -81.136416913242712 $533 $650 forward 7 unknown #
vertex $-1 $376 $651 #
straight-curve $-1 40.568208518852721 5.7233910513360229 6.8067351011535635 0 -1 0 I I #
coedge $-1 $532 $377 $380 $546 reversed $370 $-1 #
coedge $-1 $377 $532 $537 $648 forward $370 $-1 #
vertex $-1 $378 $652 #
straight-curve $-1 42.890713217566457 16.937613106596334 59.981823007986129 0 0 1 I I #
straight-curve $-1 1.1492543023905455e-006 16.937613106596334 77.072933947660118 0.49999998660252726 0 -0.86602541151947299 I I #
edge $-1 $646 5.9559510987477582 $382 16.937613106596334 $541 $653 forward 7 unknown #
point $-1 42.890713217566457 16.937613106596334 6.8067351011535644 #
point $-1 40.568208518852728 16.937613106596334 6.8067351011535635 #
edge $-1 $654 1 $654 0 $385 $-1 forward 7 unknown #
vertex $-1 $386 $655 #
ellipse-curve $-1 39.242601251946226 9.0935688152759155 3.3595979422095508 0.86602541151947299 0 0.49999998660252726 0.49999998660252726 0 -0.86602541151947299 1 I I #
point $-1 42.229460854812118 9.0935688152759155 3.9293615482806903 #
edge $-1 $656 1 $656 0 $389 $-1 forward 7 unknown #
vertex $-1 $390 $657 #
ellipse-curve $-1 39.242601251946226 13.799995390068162 3.3595979422095508 0.86602541151947299 0 0.49999998660252726 0.49999998660252726 0 -0.86602541151947299 1 I I #
point $-1 42.229460854812118 13.799995390068162 3.9293615482806903 #
plane-surface $-1 42.890713217566457 0 0 -1 0 0 0 0 1 forward_v I I I I #
coedge $-1 $398 $396 $400 $562 reversed $261 $-1 #
edge $-1 $411 -6.8067351011535644 $564 6.8067351011535644 $410 $658 forward 7 unknown #
vertex $-1 $562 $659 #
straight-curve $-1 -42.890713217566457 -27.793030325549083 0 0 0 -1 I I #
edge $-1 $560 -27.793030325549083 $564 27.793030325549083 $558 $660 forward 7 unknown #
straight-curve $-1 0 -27.793030325549083 -6.8067351011535644 -1 0 0 I I #
vertex $-1 $403 $661 #
straight-curve $-1 0 27.793030325549083 -6.8067351011535644 1 0 0 I I #
point $-1 42.890713217566457 27.793030325549083 -6.8067351011535644 #
point $-1 42.890713217566457 -27.793030325549083 -6.8067351011535644 #
straight-curve $-1 -42.890713217566457 0 6.8067351011535644 0 -1 0 I I #
point $-1 -42.890713217566457 27.793030325549083 6.8067351011535644 #
point $-1 -42.890713217566457 -27.793030325549083 6.8067351011535644 #
straight-curve $-1 42.890713217566457 -27.793030325549083 0 0 0 -1 I I #
straight-curve $-1 42.890713217566457 27.793030325549083 0 0 0 -1 I I #
plane-surface $-1 42.890713217566457 0 0 -1 0 0 0 0 1 forward_v I I I I #
coedge $-1 $662 $577 $427 $582 forward $421 $-1 #
coedge $-1 $428 $423 $662 $663 forward $280 $-1 #
edge $-1 $437 -2.346033371106202 $664 2.346033371106202 $435 $665 forward 7 unknown #
coedge $-1 $574 $666 $424 $578 reversed $421 $-1 #
edge $-1 $585 -42.890713217566457 $580 42.890713217566457 $577 $667 forward 7 unknown #
coedge $-1 $435 $425 $666 $668 forward $436 $-1 #
vertex $-1 $426 $669 #
straight-curve $-1 42.890713217566457 -30.139063696655285 -2.5729722299542521 0 1 0 I I #
edge $-1 $585 -1.5 $583 1.5 $427 $670 forward 7 unknown #
vertex $-1 $429 $671 #
straight-curve $-1 -42.890713217566457 -30.139063696655285 -5.5729722299542521 0 1 0 I I #
vertex $-1 $430 $672 #
straight-curve $-1 -42.890713217566457 -30.139063696655285 -2.5729722299542521 0 -1 0 I I #
point $-1 -42.890713217566457 -27.793030325549083 -5.5729722299542521 #
straight-curve $-1 0 -27.793030325549083 -5.5729722299542521 -1 0 0 I I #
point $-1 42.890713217566457 -27.793030325549083 -5.5729722299542521 #
plane-surface $-1 -42.890713217566457 0 0 1 0 0 0 0 -1 forward_v I I I I #
coedge $-1 $673 $593 $447 $597 forward $442 $-1 #
coedge $-1 $444 $601 $673 $674 forward $294 $-1 #
coedge $-1 $591 $675 $445 $594 reversed $442 $-1 #
edge $-1 $595 -42.890713217566457 $606 42.890713217566457 $593 $676 forward 7 unknown #
vertex $-1 $446 $677 #
straight-curve $-1 42.890713217566457 30.139063696655285 -2.5729722299542521 0 1 0 I I #
edge $-1 $595 -1.5 $598 1.5 $447 $678 forward 7 unknown #
vertex $-1 $448 $679 #
straight-curve $-1 42.890713217566457 30.139063696655285 -5.5729722299542521 0 -1 0 I I #
point $-1 42.890713217566457 27.793030325549083 -5.5729722299542521 #
coedge $-1 $592 $451 $454 $604 forward $294 $-1 #
straight-curve $-1 0 27.793030325549083 -5.5729722299542521 1 0 0 I I #
coedge $-1 $454 $453 $675 $680 forward $455 $-1 #
edge $-1 $456 -2.346033371106202 $681 2.346033371106202 $454 $682 forward 7 unknown #
point $-1 -42.890713217566457 27.793030325549083 -5.5729722299542521 #
vertex $-1 $594 $683 #
straight-curve $-1 -42.890713217566457 30.139063696655285 -2.5729722299542521 0 -1 0 I I #
edge $-1 $609 17.562731348299458 $612 22.350445809084761 $462 $684 forward 7 unknown #
vertex $-1 $476 $685 #
straight-curve $-1 -57.416535765855116 -14.21875136722789 6.8067351011535635 -1 0 0 I I #
edge $-1 $612 4.8888226295867465 $473 13.771034845695542 $472 $686 forward 7 unknown #
vertex $-1 $611 $687 #
straight-curve $-1 -42.890713217566443 -14.21875136722789 2.0190206403682822 0.54463902268945019 0 0.83867057594974714 I I #
point $-1 -39.781535192708098 -14.21875136722789 6.8067351011535644 #
point $-1 -42.890713217566457 -23.100963583336686 2.0190206403682605 #
straight-curve $-1 -42.890713217566457 0 6.8067351011535644 0 -1 0 I I #
vertex $-1 $479 $688 #
point $-1 -39.58662728601977 -18.659857475282287 4.4691046052212755 #
coedge $-1 $494 $493 $486 $620 forward $483 $-1 #
edge $-1 $621 17.562731348299458 $624 22.350445809084761 $619 $689 forward 7 unknown #
vertex $-1 $498 $690 #
straight-curve $-1 -57.416535765855116 23.100963583336679 6.8067351011535635 -1 0 0 I I #
edge $-1 $624 -13.771034845695539 $495 -4.888822629586743 $494 $691 forward 7 unknown #
vertex $-1 $623 $692 #
straight-curve $-1 -42.890713217566443 23.100963583336679 2.0190206403682822 0.54463902268945019 0 0.83867057594974714 I I #
point $-1 -39.781535192708098 23.100963583336679 6.8067351011535644 #
point $-1 -42.890713217566457 14.218751367227883 2.0190206403682605 #
straight-curve $-1 -42.890713217566457 0 6.8067351011535644 0 -1 0 I I #
vertex $-1 $501 $693 #
point $-1 -39.58662728601977 18.65985747528228 4.4691046052212755 #
coedge $-1 $516 $515 $508 $632 forward $505 $-1 #
edge $-1 $633 53.175087906832566 $636 57.197784189539426 $631 $694 forward 7 unknown #
vertex $-1 $520 $695 #
straight-curve $-1 37.144448139233845 -16.937613106596331 6.8067351011535635 1 0 0 I I #
edge $-1 $636 -11.21422205526031 $517 -0.23256004741173353 $516 $696 forward 7 unknown #
vertex $-1 $635 $697 #
straight-curve $-1 1.1492543023905455e-006 -16.937613106596331 77.072933947660118 -0.49999998660252726 0 0.86602541151947299 I I #
point $-1 40.568208518852728 -16.937613106596331 6.8067351011535635 #
point $-1 42.890713217566457 -5.9559510987477546 2.7840388184467031 #
straight-curve $-1 42.890713217566457 0 6.8067351011535644 0 1 0 I I #
vertex $-1 $523 $698 #
point $-1 39.742601238548751 -13.799995390068165 2.4935725306900776 #
vertex $-1 $527 $699 #
point $-1 39.742601238548751 -9.0935688152759191 2.4935725306900776 #
edge $-1 $646 53.175087906832566 $649 57.197784189539426 $532 $700 forward 7 unknown #
vertex $-1 $546 $701 #
straight-curve $-1 37.144448139233845 5.9559510987477582 6.8067351011535635 1 0 0 I I #
edge $-1 $649 0.2325600474117353 $543 11.214222055260311 $542 $702 forward 7 unknown #
vertex $-1 $648 $703 #
straight-curve $-1 1.1492543023905455e-006 5.9559510987477582 77.072933947660118 -0.49999998660252726 0 0.86602541151947299 I I #
point $-1 40.568208518852728 5.9559510987477582 6.8067351011535635 #
point $-1 42.890713217566457 16.937613106596334 2.7840388184467031 #
straight-curve $-1 42.890713217566457 0 6.8067351011535644 0 1 0 I I #
vertex $-1 $549 $704 #
point $-1 39.742601238548751 9.0935688152759155 2.4935725306900776 #
vertex $-1 $553 $705 #
point $-1 39.742601238548751 13.799995390068162 2.4935725306900776 #
straight-curve $-1 -42.890713217566457 27.793030325549083 0 0 0 -1 I I #
point $-1 -42.890713217566457 -27.793030325549083 -6.8067351011535644 #
straight-curve $-1 -42.890713217566457 0 -6.8067351011535644 0 1 0 I I #
point $-1 -42.890713217566457 27.793030325549083 -6.8067351011535644 #
coedge $-1 $666 $574 $575 $663 reversed $421 $-1 #
edge $-1 $664 -42.890713217566457 $583 42.890713217566457 $662 $706 forward 7 unknown #
vertex $-1 $668 $707 #
straight-curve $-1 42.890713217566457 -30.139063696655285 -5.5729722299542521 0 -1 0 I I #
coedge $-1 $577 $662 $579 $668 reversed $421 $-1 #
straight-curve $-1 0 -32.485097067761487 -2.5729722299542521 1 0 0 I I #
edge $-1 $580 -1.5 $664 1.5 $579 $708 forward 7 unknown #
point $-1 42.890713217566457 -32.485097067761487 -2.5729722299542521 #
straight-curve $-1 -42.890713217566457 -32.485097067761487 -4.0729722299542521 0 0 -1 I I #
point $-1 -42.890713217566457 -32.485097067761487 -5.5729722299542521 #
point $-1 -42.890713217566457 -32.485097067761487 -2.5729722299542521 #
coedge $-1 $675 $591 $592 $674 reversed $442 $-1 #
edge $-1 $681 -42.890713217566457 $598 42.890713217566457 $673 $709 forward 7 unknown #
coedge $-1 $593 $673 $603 $680 reversed $442 $-1 #
straight-curve $-1 0 32.485097067761487 -2.5729722299542521 -1 0 0 I I #
point $-1 42.890713217566457 32.485097067761487 -2.5729722299542521 #
straight-curve $-1 42.890713217566457 32.485097067761487 -4.0729722299542521 0 0 -1 I I #
point $-1 42.890713217566457 32.485097067761487 -5.5729722299542521 #
edge $-1 $606 -1.5 $681 1.5 $675 $710 forward 7 unknown #
vertex $-1 $674 $711 #
straight-curve $-1 -42.890713217566457 30.139063696655285 -5.5729722299542521 0 1 0 I I #
point $-1 -42.890713217566457 32.485097067761487 -2.5729722299542521 #
straight-curve $-1 -42.890713217566457 -14.21875136722789 24.369466449453022 0 0 -1 I I #
point $-1 -42.890713217566457 -14.21875136722789 6.8067351011535644 #
straight-curve $-1 -42.890713217566457 -9.3299287376411435 2.019020640368264 0 -1 0 I I #
point $-1 -42.890713217566457 -14.21875136722789 2.0190206403682605 #
point $-1 -39.292595732759473 -18.659857475282287 3.0857950065820781 #
straight-curve $-1 -42.890713217566457 23.100963583336679 24.369466449453022 0 0 -1 I I #
point $-1 -42.890713217566457 23.100963583336679 6.8067351011535644 #
straight-curve $-1 -42.890713217566457 9.3299287376411399 2.019020640368264 0 -1 0 I I #
point $-1 -42.890713217566457 23.100963583336679 2.0190206403682605 #
point $-1 -39.292595732759473 18.65985747528228 3.0857950065820781 #
straight-curve $-1 42.890713217566457 -16.937613106596331 59.981823007986129 0 0 -1 I I #
point $-1 42.890713217566457 -16.937613106596331 6.8067351011535644 #
straight-curve $-1 42.890713217566457 -5.7233910513360211 2.7840388184467031 0 1 0 I I #
point $-1 42.890713217566457 -16.937613106596331 2.7840388184467031 #
point $-1 38.376575840426753 -13.799995390068165 2.8595979556070232 #
point $-1 38.376575840426753 -9.0935688152759191 2.8595979556070232 #
straight-curve $-1 42.890713217566457 5.9559510987477582 59.981823007986129 0 0 -1 I I #
point $-1 42.890713217566457 5.9559510987477582 6.8067351011535644 #
straight-curve $-1 42.890713217566457 5.7233910513360229 2.7840388184467031 0 1 0 I I #
point $-1 42.890713217566457 5.9559510987477582 2.7840388184467031 #
point $-1 38.376575840426753 9.0935688152759155 2.8595979556070232 #
point $-1 38.376575840426753 13.799995390068162 2.8595979556070232 #
straight-curve $-1 0 -32.485097067761487 -5.5729722299542521 -1 0 0 I I #
point $-1 42.890713217566457 -32.485097067761487 -5.5729722299542521 #
straight-curve $-1 42.890713217566457 -32.485097067761487 -4.0729722299542521 0 0 -1 I I #
straight-curve $-1 0 32.485097067761487 -5.5729722299542521 1 0 0 I I #
straight-curve $-1 -42.890713217566457 32.485097067761487 -4.0729722299542521 0 0 -1 I I #
point $-1 -42.890713217566457 32.485097067761487 -5.5729722299542521 #
End-of-ACIS-data 