500 0 10 0           
7 Unknown 11 ACIS 5.0 NT 24 Thu Mar 25 16:27:35 1999 
-1 9.9999999999999995e-007 1e-010 
body $-1 $10 $-1 $11 #
body $-1 $12 $-1 $13 #
body $-1 $14 $-1 $15 #
body $-1 $16 $-1 $17 #
body $-1 $18 $-1 $19 #
body $-1 $20 $-1 $21 #
body $-1 $22 $-1 $23 #
body $-1 $24 $-1 $25 #
body $-1 $26 $-1 $27 #
body $-1 $28 $-1 $29 #
lump $-1 $-1 $30 $0 #
transform $-1 1 0 0 0 1 0 0 0 1 54.288766136661884 25.169462897582907 7.0928770851768794 1 rotate no_reflect no_shear #
lump $-1 $-1 $31 $1 #
transform $-1 1 0 0 0 1 0 0 0 1 54.288766136661884 25.169462897582907 7.0928770851768794 1 rotate no_reflect no_shear #
lump $-1 $-1 $32 $2 #
transform $-1 1 0 0 0 1 0 0 0 1 54.288766136661884 25.169462897582907 7.0928770851768794 1 rotate no_reflect no_shear #
lump $-1 $-1 $33 $3 #
transform $-1 1 0 0 0 1 0 0 0 1 54.288766136661884 25.169462897582907 7.0928770851768794 1 rotate no_reflect no_shear #
lump $-1 $-1 $34 $4 #
transform $-1 1 0 0 0 1 0 0 0 1 54.288766136661884 25.169462897582907 7.0928770851768794 1 rotate no_reflect no_shear #
lump $-1 $-1 $35 $5 #
transform $-1 1 0 0 0 1 0 0 0 1 54.288766136661884 25.169462897582907 7.0928770851768794 1 rotate no_reflect no_shear #
lump $-1 $-1 $36 $6 #
transform $-1 1 0 0 0 1 0 0 0 1 54.288766136661884 25.169462897582907 7.0928770851768794 1 rotate no_reflect no_shear #
lump $-1 $-1 $37 $7 #
transform $-1 1 0 0 0 1 0 0 0 1 54.288766136661884 25.169462897582907 7.0928770851768794 1 rotate no_reflect no_shear #
lump $-1 $-1 $38 $8 #
transform $-1 1 0 0 0 1 0 0 0 1 54.288766136661884 25.169462897582907 7.0928770851768794 1 rotate no_reflect no_shear #
lump $-1 $-1 $39 $9 #
transform $-1 1 0 0 0 1 0 0 0 1 54.288766136661884 25.169462897582907 7.0928770851768794 1 rotate no_reflect no_shear #
shell $-1 $-1 $-1 $40 $-1 $10 #
shell $-1 $-1 $-1 $41 $-1 $12 #
shell $-1 $-1 $-1 $42 $-1 $14 #
shell $-1 $-1 $-1 $43 $-1 $16 #
shell $-1 $-1 $-1 $44 $-1 $18 #
shell $-1 $-1 $-1 $45 $-1 $20 #
shell $-1 $-1 $-1 $46 $-1 $22 #
shell $-1 $-1 $-1 $47 $-1 $24 #
shell $-1 $-1 $-1 $48 $-1 $26 #
shell $-1 $-1 $-1 $49 $-1 $28 #
face $-1 $50 $51 $30 $-1 $52 forward single #
face $-1 $53 $54 $31 $-1 $55 reversed single #
face $-1 $56 $57 $32 $-1 $58 forward single #
face $-1 $59 $60 $33 $-1 $61 forward single #
face $-1 $62 $63 $34 $-1 $64 reversed single #
face $-1 $65 $66 $35 $-1 $67 forward single #
face $-1 $68 $69 $36 $-1 $70 forward single #
face $-1 $71 $72 $37 $-1 $73 reversed single #
face $-1 $74 $75 $38 $-1 $76 forward single #
face $-1 $77 $78 $39 $-1 $79 forward single #
face $-1 $80 $81 $30 $-1 $82 reversed single #
loop $-1 $-1 $83 $40 #
plane-surface $-1 0 0 7.0928770851768794 0 0 1 1 0 0 forward_v I I I I #
face $-1 $84 $85 $31 $-1 $86 reversed single #
loop $-1 $-1 $87 $41 #
plane-surface $-1 26.096117974344139 85.237750223702662 105.49467044787416 1 0 0 0 -0.81915205242281985 -0.57357642473473569 forward_v I I I I #
face $-1 $88 $89 $32 $-1 $90 forward single #
loop $-1 $91 $92 $42 #
cone-surface $-1 34.151160306434925 21.769056398479876 3.4093362148763511 0 -0.81915205242281985 -0.57357642473473569 1 0 0 1 I I 0 1 1 forward I I I I #
face $-1 $93 $94 $33 $-1 $95 forward single #
loop $-1 $96 $97 $43 #
cone-surface $-1 46.233723804571106 21.769056398479876 3.4093362148763511 0 -0.81915205242281985 -0.57357642473473569 1 0 0 1 I I 0 1 1 forward I I I I #
face $-1 $98 $99 $34 $-1 $100 reversed single #
loop $-1 $-1 $101 $44 #
plane-surface $-1 -30.344350197343324 -114.11097130628103 65.761835601527821 -1 0 0 0 -0.81915205242281985 0.57357642473473569 forward_v I I I I #
face $-1 $102 $103 $35 $-1 $104 forward single #
loop $-1 $105 $106 $45 #
cone-surface $-1 -47.447504439713725 -22.695503404522878 4.4409349803985814 0 0.81915205242281985 -0.57357642473473569 1 0 0 1 I I 0 1 1 forward I I I I #
face $-1 $107 $108 $36 $-1 $109 forward single #
loop $-1 $110 $111 $46 #
cone-surface $-1 -37.185611894291483 -22.695503404522878 4.4409349803985814 0 0.81915205242281985 -0.57357642473473569 1 0 0 1 I I 0 1 1 forward I I I I #
face $-1 $112 $113 $37 $-1 $114 reversed single #
loop $-1 $-1 $115 $47 #
plane-surface $-1 23.944415939318553 -114.11097130628103 65.761835601527821 -1 0 0 0 -0.81915205242281985 0.57357642473473569 forward_v I I I I #
face $-1 $116 $117 $38 $-1 $118 forward single #
loop $-1 $119 $120 $48 #
cone-surface $-1 6.841261696948159 -22.695503404522878 4.4409349803985814 0 0.81915205242281985 -0.57357642473473569 1 0 0 1 I I 0 1 1 forward I I I I #
face $-1 $121 $122 $39 $-1 $123 forward single #
loop $-1 $124 $125 $49 #
cone-surface $-1 17.103154242370401 -22.695503404522878 4.4409349803985814 0 0.81915205242281985 -0.57357642473473569 1 0 0 1 I I 0 1 1 forward I I I I #
face $-1 $126 $127 $30 $-1 $128 reversed single #
loop $-1 $-1 $129 $50 #
plane-surface $-1 0 0 -7.0928770851768794 0 0 1 1 0 0 forward_v I I I I #
coedge $-1 $130 $131 $132 $133 forward $51 $-1 #
face $-1 $134 $135 $31 $-1 $136 forward single #
loop $-1 $-1 $137 $53 #
plane-surface $-1 40.192442055503015 -3.7037581849954648 43.217157680020733 0 0.81915205242281985 0.57357642473473569 1 0 0 forward_v I I I I #
coedge $-1 $138 $139 $140 $141 reversed $54 $-1 #
face $-1 $-1 $142 $32 $-1 $143 forward single #
loop $-1 $144 $145 $56 #
cone-surface $-1 34.151160306434925 19.748438003717485 1.9944840257215768 0 -0.81915205242281985 -0.57357642473473569 0.5 0 0 1 I I -0.70710678118654746 0.70710678118654746 0.5 forward I I I I #
loop $-1 $-1 $146 $42 #
coedge $-1 $92 $92 $147 $148 reversed $57 $-1 #
face $-1 $-1 $149 $33 $-1 $150 forward single #
loop $-1 $151 $152 $59 #
cone-surface $-1 46.233723804571106 19.748438003717485 1.9944840257215768 0 -0.81915205242281985 -0.57357642473473569 0.5 0 0 1 I I -0.70710678118654746 0.70710678118654746 0.5 forward I I I I #
loop $-1 $-1 $153 $43 #
coedge $-1 $97 $97 $154 $155 reversed $60 $-1 #
face $-1 $156 $157 $34 $-1 $158 forward single #
loop $-1 $-1 $159 $62 #
plane-surface $-1 -42.316558167002604 -25.169462897582903 3.4843228336743977 0 -0.81915205242281985 0.57357642473473569 1 0 0 forward_v I I I I #
coedge $-1 $160 $161 $162 $163 reversed $63 $-1 #
face $-1 $-1 $164 $35 $-1 $165 forward single #
loop $-1 $166 $167 $65 #
cone-surface $-1 -47.447504439713725 -21.075336291590833 3.3064817890041569 0 0.81915205242281985 -0.57357642473473569 0.5 0 0 1 I I -0.70710678118654746 0.70710678118654746 0.5 forward I I I I #
loop $-1 $-1 $168 $45 #
coedge $-1 $106 $106 $169 $170 reversed $66 $-1 #
face $-1 $-1 $171 $36 $-1 $172 forward single #
loop $-1 $173 $174 $68 #
cone-surface $-1 -37.185611894291483 -21.075336291590833 3.3064817890041569 0 0.81915205242281985 -0.57357642473473569 0.5 0 0 1 I I -0.70710678118654746 0.70710678118654746 0.5 forward I I I I #
loop $-1 $-1 $175 $46 #
coedge $-1 $111 $111 $176 $177 reversed $69 $-1 #
face $-1 $178 $179 $37 $-1 $180 reversed single #
loop $-1 $-1 $181 $71 #
plane-surface $-1 11.972207969659273 -25.169462897582903 3.4843228336743977 0 -0.81915205242281985 0.57357642473473569 1 0 0 forward_v I I I I #
coedge $-1 $182 $183 $184 $185 reversed $72 $-1 #
face $-1 $-1 $186 $38 $-1 $187 forward single #
loop $-1 $188 $189 $74 #
cone-surface $-1 6.841261696948159 -21.075336291590833 3.3064817890041569 0 0.81915205242281985 -0.57357642473473569 0.5 0 0 1 I I -0.70710678118654746 0.70710678118654746 0.5 forward I I I I #
loop $-1 $-1 $190 $48 #
coedge $-1 $120 $120 $191 $192 reversed $75 $-1 #
face $-1 $-1 $193 $39 $-1 $194 forward single #
loop $-1 $195 $196 $77 #
cone-surface $-1 17.103154242370401 -21.075336291590833 3.3064817890041569 0 0.81915205242281985 -0.57357642473473569 0.5 0 0 1 I I -0.70710678118654746 0.70710678118654746 0.5 forward I I I I #
loop $-1 $-1 $197 $49 #
coedge $-1 $125 $125 $198 $199 reversed $78 $-1 #
face $-1 $200 $201 $30 $-1 $202 reversed single #
loop $-1 $-1 $203 $80 #
plane-surface $-1 0 -25.169462897582907 0 0 1 0 0 0 1 forward_v I I I I #
coedge $-1 $204 $205 $206 $207 forward $81 $-1 #
coedge $-1 $208 $83 $209 $210 forward $51 $-1 #
coedge $-1 $83 $208 $211 $212 forward $51 $-1 #
coedge $-1 $213 $214 $83 $133 reversed $215 $-1 #
edge $-1 $216 -25.169462897582907 $217 25.169462897582907 $132 $218 forward 7 unknown #
face $-1 $219 $220 $31 $-1 $221 reversed single #
loop $-1 $-1 $140 $84 #
plane-surface $-1 0 0 7.0928770851768794 0 0 1 1 0 0 forward_v I I I I #
coedge $-1 $222 $223 $224 $225 reversed $85 $-1 #
coedge $-1 $139 $87 $226 $227 reversed $54 $-1 #
coedge $-1 $87 $138 $222 $228 reversed $54 $-1 #
coedge $-1 $224 $229 $87 $141 forward $135 $-1 #
edge $-1 $230 17.449412214268424 $231 21.028140475372528 $140 $232 forward 7 unknown #
loop $-1 $-1 $147 $88 #
plane-surface $-1 40.192442055503015 -3.7037581849954648 43.217157680020733 0 0.81915205242281985 0.57357642473473569 1 0 0 forward_v I I I I #
loop $-1 $-1 $233 $56 #
coedge $-1 $145 $145 $146 $234 reversed $89 $-1 #
coedge $-1 $146 $146 $145 $234 forward $91 $-1 #
coedge $-1 $147 $147 $92 $148 forward $142 $-1 #
edge $-1 $235 1.3101996345775673e-015 $235 6.2831853071796013 $147 $236 forward 7 unknown #
loop $-1 $-1 $154 $93 #
plane-surface $-1 40.192442055503015 -3.7037581849954648 43.217157680020733 0 0.81915205242281985 0.57357642473473569 1 0 0 forward_v I I I I #
loop $-1 $-1 $237 $59 #
coedge $-1 $152 $152 $153 $238 reversed $94 $-1 #
coedge $-1 $153 $153 $152 $238 forward $96 $-1 #
coedge $-1 $154 $154 $97 $155 forward $149 $-1 #
edge $-1 $239 1.3101996345775673e-015 $239 6.2831853071796013 $154 $240 forward 7 unknown #
face $-1 $241 $242 $34 $-1 $243 reversed single #
loop $-1 $-1 $162 $98 #
plane-surface $-1 0 0 7.0928770851768794 0 0 1 1 0 0 forward_v I I I I #
coedge $-1 $244 $245 $246 $247 reversed $99 $-1 #
coedge $-1 $161 $101 $248 $249 reversed $63 $-1 #
coedge $-1 $101 $160 $244 $250 reversed $63 $-1 #
coedge $-1 $246 $251 $101 $163 forward $157 $-1 #
edge $-1 $252 31.886022755557608 $253 34.412759568236396 $162 $254 forward 7 unknown #
loop $-1 $-1 $169 $102 #
plane-surface $-1 -42.316558167002604 -25.169462897582903 3.4843228336743977 0 -0.81915205242281985 0.57357642473473569 1 0 0 forward_v I I I I #
loop $-1 $-1 $255 $65 #
coedge $-1 $167 $167 $168 $256 reversed $103 $-1 #
coedge $-1 $168 $168 $167 $256 forward $105 $-1 #
coedge $-1 $169 $169 $106 $170 forward $164 $-1 #
edge $-1 $257 7.2755317541501438e-016 $257 6.2831853071796013 $169 $258 forward 7 unknown #
loop $-1 $-1 $176 $107 #
plane-surface $-1 -42.316558167002604 -25.169462897582903 3.4843228336743977 0 -0.81915205242281985 0.57357642473473569 1 0 0 forward_v I I I I #
loop $-1 $-1 $259 $68 #
coedge $-1 $174 $174 $175 $260 reversed $108 $-1 #
coedge $-1 $175 $175 $174 $260 forward $110 $-1 #
coedge $-1 $176 $176 $111 $177 forward $171 $-1 #
edge $-1 $261 7.2755317541501438e-016 $261 6.2831853071796013 $176 $262 forward 7 unknown #
face $-1 $263 $264 $37 $-1 $265 reversed single #
loop $-1 $-1 $266 $112 #
plane-surface $-1 -7.1054273576010019e-015 -114.11097130628103 65.761835601527821 1 0 0 0 0.81915205242281985 -0.57357642473473569 forward_v I I I I #
coedge $-1 $267 $268 $269 $270 reversed $113 $-1 #
coedge $-1 $183 $115 $271 $272 reversed $72 $-1 #
coedge $-1 $115 $182 $267 $273 reversed $72 $-1 #
coedge $-1 $269 $274 $115 $185 forward $275 $-1 #
edge $-1 $276 31.886022755557608 $277 34.412759568236396 $184 $278 forward 7 unknown #
loop $-1 $-1 $191 $116 #
plane-surface $-1 11.972207969659273 -25.169462897582903 3.4843228336743977 0 -0.81915205242281985 0.57357642473473569 1 0 0 forward_v I I I I #
loop $-1 $-1 $279 $74 #
coedge $-1 $189 $189 $190 $280 reversed $117 $-1 #
coedge $-1 $190 $190 $189 $280 forward $119 $-1 #
coedge $-1 $191 $191 $120 $192 forward $186 $-1 #
edge $-1 $281 7.2755317541501438e-016 $281 6.2831853071796013 $191 $282 forward 7 unknown #
loop $-1 $-1 $198 $121 #
plane-surface $-1 11.972207969659273 -25.169462897582903 3.4843228336743977 0 -0.81915205242281985 0.57357642473473569 1 0 0 forward_v I I I I #
loop $-1 $-1 $283 $77 #
coedge $-1 $196 $196 $197 $284 reversed $122 $-1 #
coedge $-1 $197 $197 $196 $284 forward $124 $-1 #
coedge $-1 $198 $198 $125 $199 forward $193 $-1 #
edge $-1 $285 7.2755317541501438e-016 $285 6.2831853071796013 $198 $286 forward 7 unknown #
face $-1 $287 $288 $30 $-1 $289 reversed single #
loop $-1 $-1 $290 $126 #
plane-surface $-1 -54.288766136661884 0 0 1 0 0 0 0 -1 forward_v I I I I #
coedge $-1 $291 $211 $292 $293 forward $127 $-1 #
coedge $-1 $294 $129 $291 $295 forward $81 $-1 #
coedge $-1 $129 $294 $296 $297 forward $81 $-1 #
coedge $-1 $214 $213 $129 $207 reversed $215 $-1 #
edge $-1 $298 -25.169462897582907 $299 25.169462897582907 $206 $300 forward 7 unknown #
coedge $-1 $131 $130 $301 $302 forward $51 $-1 #
coedge $-1 $303 $304 $130 $210 reversed $288 $-1 #
edge $-1 $217 -54.288766136661884 $305 54.288766136661884 $209 $306 forward 7 unknown #
coedge $-1 $203 $307 $131 $212 reversed $127 $-1 #
edge $-1 $308 -54.288766136661884 $216 54.288766136661884 $211 $309 forward 7 unknown #
coedge $-1 $206 $132 $307 $310 forward $215 $-1 #
coedge $-1 $132 $206 $303 $311 reversed $215 $-1 #
loop $-1 $-1 $213 $287 #
vertex $-1 $133 $312 #
vertex $-1 $133 $313 #
straight-curve $-1 54.288766136661884 0 7.0928770851768794 0 1 0 I I #
face $-1 $-1 $314 $31 $-1 $315 reversed single #
loop $-1 $-1 $226 $134 #
plane-surface $-1 0 25.169462897582907 0 0 -1 0 0 0 -1 forward_v I I I I #
coedge $-1 $316 $137 $139 $228 forward $85 $-1 #
coedge $-1 $137 $316 $317 $318 reversed $85 $-1 #
coedge $-1 $319 $140 $137 $225 forward $135 $-1 #
edge $-1 $231 5.9998969465926315 $320 34.19254510891038 $224 $321 forward 7 unknown #
coedge $-1 $322 $323 $138 $227 forward $220 $-1 #
edge $-1 $324 -50.765411925786459 $230 -45.654458138760198 $226 $325 forward 7 unknown #
edge $-1 $231 44.09960334958383 $324 50.338925795165828 $139 $326 forward 7 unknown #
coedge $-1 $140 $319 $322 $327 forward $135 $-1 #
vertex $-1 $227 $328 #
vertex $-1 $141 $329 #
straight-curve $-1 26.096117974344139 42.618875111851331 7.0928770851768803 0 -1 0 I I #
coedge $-1 $233 $233 $-1 $330 reversed $144 $-1 #
edge $-1 $331 0 $331 6.2831853071796004 $145 $332 forward 7 unknown #
vertex $-1 $148 $333 #
ellipse-curve $-1 34.151160306434925 23.380098767030855 4.5374001916637559 0 0.81915205242281985 0.57357642473473569 1 0 0 1 I I #
coedge $-1 $237 $237 $-1 $334 reversed $151 $-1 #
edge $-1 $335 0 $335 6.2831853071796004 $152 $336 forward 7 unknown #
vertex $-1 $155 $337 #
ellipse-curve $-1 46.233723804571106 23.380098767030855 4.5374001916637559 0 0.81915205242281985 0.57357642473473569 1 0 0 1 I I #
face $-1 $-1 $338 $34 $-1 $339 reversed single #
loop $-1 $-1 $340 $156 #
plane-surface $-1 -54.288766136661884 0 0 1 0 0 0 0 -1 forward_v I I I I #
coedge $-1 $341 $159 $161 $250 forward $99 $-1 #
coedge $-1 $159 $341 $340 $342 reversed $99 $-1 #
coedge $-1 $343 $162 $159 $247 forward $157 $-1 #
edge $-1 $253 9.1860711138420221 $344 33.130487053160579 $246 $345 forward 7 unknown #
coedge $-1 $346 $347 $160 $249 forward $338 $-1 #
edge $-1 $348 -29.396594967089516 $252 -25.78804071558703 $248 $349 forward 7 unknown #
edge $-1 $253 -4.4052312886592908 $348 6.0392952747751599e-015 $161 $350 forward 7 unknown #
coedge $-1 $162 $343 $346 $351 forward $157 $-1 #
vertex $-1 $249 $352 #
vertex $-1 $163 $353 #
straight-curve $-1 -30.344350197343324 -57.055485653140515 7.0928770851768803 0 1 0 I I #
coedge $-1 $255 $255 $-1 $354 reversed $166 $-1 #
edge $-1 $355 0 $355 6.2831853071796004 $167 $356 forward 7 unknown #
vertex $-1 $170 $357 #
ellipse-curve $-1 -47.447504439713725 -23.906094491243511 5.2885999594256372 0 -0.81915205242281985 0.57357642473473569 1 0 0 1 I I #
coedge $-1 $259 $259 $-1 $358 reversed $173 $-1 #
edge $-1 $359 0 $359 6.2831853071796004 $174 $360 forward 7 unknown #
vertex $-1 $177 $361 #
ellipse-curve $-1 -37.185611894291483 -23.906094491243511 5.2885999594256372 0 -0.81915205242281985 0.57357642473473569 1 0 0 1 I I #
face $-1 $-1 $275 $37 $-1 $362 forward single #
loop $-1 $-1 $363 $178 #
plane-surface $-1 0 -25.169462897582907 0 0 1 0 0 0 1 forward_v I I I I #
coedge $-1 $364 $365 $366 $367 reversed $179 $-1 #
coedge $-1 $368 $181 $183 $273 forward $113 $-1 #
coedge $-1 $181 $368 $364 $369 forward $113 $-1 #
coedge $-1 $366 $184 $181 $270 forward $275 $-1 #
edge $-1 $277 -17.958311954488916 $370 5.9861039848296436 $269 $371 forward 7 unknown #
coedge $-1 $372 $373 $182 $272 forward $264 $-1 #
edge $-1 $374 -29.396594967089516 $276 -25.78804071558703 $271 $375 forward 7 unknown #
edge $-1 $277 -4.4052312886592908 $374 6.0392952747751599e-015 $183 $376 forward 7 unknown #
coedge $-1 $184 $366 $372 $377 forward $275 $-1 #
loop $-1 $-1 $366 $263 #
vertex $-1 $272 $378 #
vertex $-1 $185 $379 #
straight-curve $-1 23.944415939318553 -57.055485653140515 7.0928770851768803 0 1 0 I I #
coedge $-1 $279 $279 $-1 $380 reversed $188 $-1 #
edge $-1 $381 0 $381 6.2831853071796004 $189 $382 forward 7 unknown #
vertex $-1 $192 $383 #
ellipse-curve $-1 6.841261696948159 -23.906094491243511 5.2885999594256372 0 -0.81915205242281985 0.57357642473473569 1 0 0 1 I I #
coedge $-1 $283 $283 $-1 $384 reversed $195 $-1 #
edge $-1 $385 0 $385 6.2831853071796004 $196 $386 forward 7 unknown #
vertex $-1 $199 $387 #
ellipse-curve $-1 17.103154242370401 -23.906094491243511 5.2885999594256372 0 -0.81915205242281985 0.57357642473473569 1 0 0 1 I I #
face $-1 $-1 $215 $30 $-1 $388 reversed single #
loop $-1 $-1 $303 $200 #
plane-surface $-1 0 25.169462897582907 0 0 -1 0 0 0 -1 forward_v I I I I #
coedge $-1 $389 $301 $304 $390 forward $201 $-1 #
coedge $-1 $307 $203 $204 $295 reversed $127 $-1 #
coedge $-1 $301 $389 $203 $293 reversed $201 $-1 #
edge $-1 $308 -7.0928770851768794 $391 7.0928770851768794 $292 $392 forward 7 unknown #
coedge $-1 $205 $204 $389 $393 forward $81 $-1 #
edge $-1 $299 -54.288766136661884 $391 54.288766136661884 $291 $394 forward 7 unknown #
coedge $-1 $304 $303 $205 $297 reversed $288 $-1 #
edge $-1 $395 -54.288766136661884 $298 54.288766136661884 $296 $396 forward 7 unknown #
vertex $-1 $207 $397 #
vertex $-1 $310 $398 #
straight-curve $-1 54.288766136661884 0 -7.0928770851768794 0 -1 0 I I #
coedge $-1 $290 $292 $208 $302 reversed $201 $-1 #
edge $-1 $305 -25.169462897582907 $308 25.169462897582907 $301 $399 forward 7 unknown #
coedge $-1 $296 $209 $214 $311 forward $288 $-1 #
coedge $-1 $209 $296 $290 $390 reversed $288 $-1 #
vertex $-1 $210 $400 #
straight-curve $-1 0 25.169462897582907 7.0928770851768794 -1 0 0 I I #
coedge $-1 $211 $291 $213 $310 reversed $127 $-1 #
vertex $-1 $302 $401 #
straight-curve $-1 0 -25.169462897582907 7.0928770851768794 1 0 0 I I #
edge $-1 $216 -7.0928770851768794 $299 7.0928770851768794 $213 $402 forward 7 unknown #
edge $-1 $217 -7.0928770851768794 $298 7.0928770851768794 $214 $403 forward 7 unknown #
point $-1 54.288766136661884 -25.169462897582907 7.0928770851768794 #
point $-1 54.288766136661884 25.169462897582907 7.0928770851768794 #
loop $-1 $-1 $317 $219 #
plane-surface $-1 54.288766136661884 0 0 -1 0 0 0 0 1 forward_v I I I I #
coedge $-1 $223 $222 $323 $404 reversed $85 $-1 #
coedge $-1 $405 $406 $223 $318 forward $314 $-1 #
edge $-1 $320 25.336697453933169 $407 31.576019899515167 $317 $408 forward 7 unknown #
coedge $-1 $229 $224 $406 $409 forward $135 $-1 #
vertex $-1 $409 $410 #
straight-curve $-1 20.096221027751508 21.5907346364788 7.0928770851768803 1 0 0 I I #
coedge $-1 $411 $226 $229 $327 reversed $220 $-1 #
coedge $-1 $226 $411 $316 $404 forward $220 $-1 #
vertex $-1 $227 $412 #
straight-curve $-1 26.096117974344139 25.169462897582907 52.747335223937078 0 0 1 I I #
straight-curve $-1 26.096117974344139 -3.7037581849954648 43.217157680020733 0 0.57357642473473569 -0.81915205242281985 I I #
edge $-1 $413 -54.288766136661884 $230 -26.096117974344139 $322 $414 forward 7 unknown #
point $-1 26.096117974344139 25.169462897582907 7.0928770851768794 #
point $-1 26.096117974344139 21.590734636478803 7.0928770851768803 #
edge $-1 $415 1 $415 0 $233 $-1 forward 7 unknown #
vertex $-1 $234 $416 #
ellipse-curve $-1 34.151160306434925 20.158014029928896 2.2812722380889445 0 0.81915205242281985 0.57357642473473569 1 0 0 1 I I #
point $-1 35.151160306434925 23.380098767030859 4.5374001916637567 #
edge $-1 $417 1 $417 0 $237 $-1 forward 7 unknown #
vertex $-1 $238 $418 #
ellipse-curve $-1 46.233723804571106 20.158014029928896 2.2812722380889445 0 0.81915205242281985 0.57357642473473569 1 0 0 1 I I #
point $-1 47.233723804571106 23.380098767030859 4.5374001916637567 #
loop $-1 $-1 $248 $241 #
plane-surface $-1 0 -25.169462897582907 0 0 1 0 0 0 1 forward_v I I I I #
coedge $-1 $419 $420 $245 $342 forward $242 $-1 #
coedge $-1 $245 $244 $347 $421 reversed $99 $-1 #
edge $-1 $344 1.3859788817312615 $422 5.791210170390559 $340 $423 forward 7 unknown #
coedge $-1 $251 $246 $420 $424 forward $157 $-1 #
vertex $-1 $424 $425 #
straight-curve $-1 -21.158279083501302 -22.642726084904115 7.0928770851768794 -1 0 0 I I #
coedge $-1 $426 $248 $251 $351 reversed $338 $-1 #
coedge $-1 $248 $426 $341 $421 forward $338 $-1 #
vertex $-1 $249 $427 #
straight-curve $-1 -30.344350197343324 -25.169462897582903 32.88091780076391 0 0 1 I I #
straight-curve $-1 -30.344350197343324 -25.169462897582903 3.4843228336743977 0 -0.57357642473473569 -0.81915205242281985 I I #
edge $-1 $428 -54.288766136661884 $252 -30.344350197343324 $346 $429 forward 7 unknown #
point $-1 -30.344350197343324 -25.169462897582907 7.0928770851768794 #
point $-1 -30.344350197343324 -22.642726084904115 7.0928770851768794 #
edge $-1 $430 1 $430 0 $255 $-1 forward 7 unknown #
vertex $-1 $256 $431 #
ellipse-curve $-1 -47.447504439713725 -21.484912317802245 3.5932700013715246 0 -0.81915205242281985 0.57357642473473569 1 0 0 1 I I #
point $-1 -46.447504439713725 -23.906094491243511 5.2885999594256381 #
edge $-1 $432 1 $432 0 $259 $-1 forward 7 unknown #
vertex $-1 $260 $433 #
ellipse-curve $-1 -37.185611894291483 -21.484912317802245 3.5932700013715246 0 -0.81915205242281985 0.57357642473473569 1 0 0 1 I I #
point $-1 -36.185611894291483 -23.906094491243511 5.2885999594256381 #
plane-surface $-1 0 0 7.0928770851768794 0 0 1 1 0 0 forward_v I I I I #
coedge $-1 $373 $372 $365 $434 forward $264 $-1 #
coedge $-1 $365 $266 $268 $369 reversed $179 $-1 #
coedge $-1 $266 $364 $363 $434 reversed $179 $-1 #
coedge $-1 $274 $269 $266 $367 forward $275 $-1 #
edge $-1 $370 -34.412759568236396 $435 -31.886022755557608 $366 $436 forward 7 unknown #
coedge $-1 $268 $267 $373 $437 reversed $113 $-1 #
edge $-1 $438 -6.0392952747751599e-015 $370 4.4052312886592908 $364 $439 forward 7 unknown #
vertex $-1 $270 $440 #
straight-curve $-1 5.9861039848296365 -22.642726084904115 7.0928770851768794 -1 0 0 I I #
coedge $-1 $363 $271 $274 $377 reversed $264 $-1 #
coedge $-1 $271 $363 $368 $437 forward $264 $-1 #
vertex $-1 $272 $441 #
straight-curve $-1 23.944415939318553 -25.169462897582903 32.88091780076391 0 0 1 I I #
straight-curve $-1 23.944415939318553 -25.169462897582903 3.4843228336743977 0 -0.57357642473473569 -0.81915205242281985 I I #
edge $-1 $435 -7.1054273576010019e-015 $276 23.944415939318553 $372 $442 forward 7 unknown #
point $-1 23.944415939318553 -25.169462897582907 7.0928770851768794 #
point $-1 23.944415939318553 -22.642726084904115 7.0928770851768794 #
edge $-1 $443 1 $443 0 $279 $-1 forward 7 unknown #
vertex $-1 $280 $444 #
ellipse-curve $-1 6.841261696948159 -21.484912317802245 3.5932700013715246 0 -0.81915205242281985 0.57357642473473569 1 0 0 1 I I #
point $-1 7.841261696948159 -23.906094491243511 5.2885999594256381 #
edge $-1 $445 1 $445 0 $283 $-1 forward 7 unknown #
vertex $-1 $284 $446 #
ellipse-curve $-1 17.103154242370401 -21.484912317802245 3.5932700013715246 0 -0.81915205242281985 0.57357642473473569 1 0 0 1 I I #
point $-1 18.103154242370401 -23.906094491243511 5.2885999594256381 #
plane-surface $-1 54.288766136661884 0 0 -1 0 0 0 0 1 forward_v I I I I #
coedge $-1 $292 $290 $294 $393 reversed $201 $-1 #
edge $-1 $305 -7.0928770851768794 $395 7.0928770851768794 $304 $447 forward 7 unknown #
vertex $-1 $393 $448 #
straight-curve $-1 -54.288766136661884 -25.169462897582907 0 0 0 -1 I I #
edge $-1 $391 -25.169462897582907 $395 25.169462897582907 $389 $449 forward 7 unknown #
straight-curve $-1 0 -25.169462897582907 -7.0928770851768794 -1 0 0 I I #
vertex $-1 $297 $450 #
straight-curve $-1 0 25.169462897582907 -7.0928770851768794 1 0 0 I I #
point $-1 54.288766136661884 25.169462897582907 -7.0928770851768794 #
point $-1 54.288766136661884 -25.169462897582907 -7.0928770851768794 #
straight-curve $-1 -54.288766136661884 0 7.0928770851768794 0 -1 0 I I #
point $-1 -54.288766136661884 25.169462897582907 7.0928770851768794 #
point $-1 -54.288766136661884 -25.169462897582907 7.0928770851768794 #
straight-curve $-1 54.288766136661884 -25.169462897582907 0 0 0 -1 I I #
straight-curve $-1 54.288766136661884 25.169462897582907 0 0 0 -1 I I #
edge $-1 $407 -34.19254510891038 $324 -5.9998969465926315 $323 $451 forward 7 unknown #
coedge $-1 $406 $317 $411 $452 reversed $314 $-1 #
coedge $-1 $317 $405 $319 $409 reversed $314 $-1 #
vertex $-1 $318 $453 #
straight-curve $-1 54.288766136661884 7.0582022962661366 27.847484806182266 0 0.57357642473473569 -0.81915205242281985 I I #
edge $-1 $320 21.590734636478803 $413 25.169462897582907 $406 $454 forward 7 unknown #
point $-1 54.288766136661891 21.590734636478803 7.0928770851768803 #
coedge $-1 $323 $322 $405 $452 forward $220 $-1 #
point $-1 26.096117974344139 25.169462897582907 1.981923298150619 #
vertex $-1 $409 $455 #
straight-curve $-1 0 25.169462897582907 7.0928770851768794 -1 0 0 I I #
vertex $-1 $330 $456 #
point $-1 35.151160306434925 20.158014029928896 2.2812722380889445 #
vertex $-1 $334 $457 #
point $-1 47.233723804571106 20.158014029928896 2.2812722380889445 #
coedge $-1 $420 $340 $426 $458 reversed $242 $-1 #
coedge $-1 $340 $419 $343 $424 reversed $242 $-1 #
edge $-1 $422 -33.130487053160579 $348 -9.1860711138420221 $347 $459 forward 7 unknown #
vertex $-1 $342 $460 #
straight-curve $-1 -54.288766136661884 -21.847761273162853 8.2282045307617278 0 -0.57357642473473569 -0.81915205242281985 I I #
edge $-1 $344 22.642726084904115 $428 25.169462897582907 $420 $461 forward 7 unknown #
point $-1 -54.288766136661884 -22.642726084904115 7.0928770851768794 #
coedge $-1 $347 $346 $419 $458 forward $338 $-1 #
point $-1 -30.344350197343324 -25.169462897582907 3.4843228336743928 #
vertex $-1 $424 $462 #
straight-curve $-1 0 -25.169462897582907 7.0928770851768794 1 0 0 I I #
vertex $-1 $354 $463 #
point $-1 -46.447504439713725 -21.484912317802245 3.5932700013715246 #
vertex $-1 $358 $464 #
point $-1 -36.185611894291483 -21.484912317802245 3.5932700013715246 #
edge $-1 $435 25.78804071558703 $438 29.396594967089516 $363 $465 forward 7 unknown #
vertex $-1 $377 $466 #
straight-curve $-1 -7.1054273576010019e-015 -57.055485653140515 7.0928770851768803 0 -1 0 I I #
edge $-1 $438 -5.9861039848296436 $374 17.958311954488916 $373 $467 forward 7 unknown #
vertex $-1 $437 $468 #
straight-curve $-1 -7.1054273576010019e-015 -25.169462897582903 3.4843228336743977 0 0.57357642473473569 0.81915205242281985 I I #
point $-1 -7.1054273576010019e-015 -22.642726084904115 7.0928770851768794 #
point $-1 23.944415939318553 -25.169462897582907 3.4843228336743928 #
straight-curve $-1 0 -25.169462897582907 7.0928770851768794 1 0 0 I I #
vertex $-1 $380 $469 #
point $-1 7.841261696948159 -21.484912317802245 3.5932700013715246 #
vertex $-1 $384 $470 #
point $-1 18.103154242370401 -21.484912317802245 3.5932700013715246 #
straight-curve $-1 -54.288766136661884 25.169462897582907 0 0 0 -1 I I #
point $-1 -54.288766136661884 -25.169462897582907 -7.0928770851768794 #
straight-curve $-1 -54.288766136661884 0 -7.0928770851768794 0 1 0 I I #
point $-1 -54.288766136661884 25.169462897582907 -7.0928770851768794 #
straight-curve $-1 20.096221027751508 25.16946289758291 1.981923298150619 -1 0 0 I I #
edge $-1 $413 -7.0928770851768794 $407 -1.981923298150619 $405 $471 forward 7 unknown #
point $-1 54.288766136661891 25.169462897582907 1.981923298150619 #
straight-curve $-1 54.288766136661884 0 7.0928770851768794 0 1 0 I I #
point $-1 54.288766136661884 25.169462897582907 7.0928770851768794 #
point $-1 34.151160306434925 19.338861977506074 1.7076958133542091 #
point $-1 46.233723804571106 19.338861977506074 1.7076958133542091 #
edge $-1 $428 -7.0928770851768794 $422 -3.4843228336743928 $419 $472 forward 7 unknown #
straight-curve $-1 -21.158279083501302 -25.169462897582907 3.4843228336743883 1 0 0 I I #
point $-1 -54.288766136661884 -25.169462897582907 3.4843228336743928 #
straight-curve $-1 -54.288766136661884 0 7.0928770851768794 0 -1 0 I I #
point $-1 -54.288766136661884 -25.169462897582907 7.0928770851768794 #
point $-1 -47.447504439713725 -20.665760265379422 3.0196935766367892 #
point $-1 -37.185611894291483 -20.665760265379422 3.0196935766367892 #
straight-curve $-1 -7.1054273576010019e-015 -25.169462897582903 32.88091780076391 0 0 -1 I I #
point $-1 -7.1054273576010019e-015 -25.169462897582907 7.0928770851768794 #
straight-curve $-1 5.9861039848296365 -25.169462897582907 3.4843228336743883 1 0 0 I I #
point $-1 -7.1054273576010019e-015 -25.169462897582907 3.4843228336743928 #
point $-1 6.841261696948159 -20.665760265379422 3.0196935766367892 #
point $-1 17.103154242370401 -20.665760265379422 3.0196935766367892 #
straight-curve $-1 54.288766136661884 25.169462897582907 0 0 0 -1 I I #
straight-curve $-1 -54.288766136661884 -25.169462897582907 0 0 0 -1 I I #
End-of-ACIS-data 