500 0 16 0           
7 Unknown 11 ACIS 5.0 NT 24 Fri Mar 26 19:04:45 1999 
-1 9.9999999999999995e-007 1e-010 
body $-1 $16 $-1 $17 #
body $-1 $18 $-1 $19 #
body $-1 $20 $-1 $21 #
body $-1 $22 $-1 $23 #
body $-1 $24 $-1 $25 #
body $-1 $26 $-1 $27 #
body $-1 $28 $-1 $29 #
body $-1 $30 $-1 $31 #
body $-1 $32 $-1 $33 #
body $-1 $34 $-1 $35 #
body $-1 $36 $-1 $37 #
body $-1 $38 $-1 $39 #
body $-1 $40 $-1 $41 #
body $-1 $42 $-1 $43 #
body $-1 $44 $-1 $45 #
body $-1 $46 $-1 $47 #
lump $-1 $-1 $48 $0 #
transform $-1 1 0 0 0 1 0 0 0 1 50.273751029999694 29.138891329284068 7.6947233159590196 1 rotate no_reflect no_shear #
lump $-1 $-1 $49 $1 #
transform $-1 1 0 0 0 1 0 0 0 1 50.273751029999694 29.138891329284068 7.6947233159590196 1 rotate no_reflect no_shear #
lump $-1 $-1 $50 $2 #
transform $-1 1 0 0 0 1 0 0 0 1 50.273751029999694 29.138891329284068 7.6947233159590196 1 rotate no_reflect no_shear #
lump $-1 $-1 $51 $3 #
transform $-1 1 0 0 0 1 0 0 0 1 50.273751029999694 29.138891329284068 7.6947233159590196 1 rotate no_reflect no_shear #
lump $-1 $-1 $52 $4 #
transform $-1 1 0 0 0 1 0 0 0 1 50.273751029999694 29.138891329284068 7.6947233159590196 1 rotate no_reflect no_shear #
lump $-1 $-1 $53 $5 #
transform $-1 1 0 0 0 1 0 0 0 1 50.273751029999694 29.138891329284068 7.6947233159590196 1 rotate no_reflect no_shear #
lump $-1 $-1 $54 $6 #
transform $-1 1 0 0 0 1 0 0 0 1 50.273751029999694 29.138891329284068 7.6947233159590196 1 rotate no_reflect no_shear #
lump $-1 $-1 $55 $7 #
transform $-1 1 0 0 0 1 0 0 0 1 50.273751029999694 29.138891329284068 7.6947233159590196 1 rotate no_reflect no_shear #
lump $-1 $-1 $56 $8 #
transform $-1 1 0 0 0 1 0 0 0 1 50.273751029999694 29.138891329284068 7.6947233159590196 1 rotate no_reflect no_shear #
lump $-1 $-1 $57 $9 #
transform $-1 1 0 0 0 1 0 0 0 1 50.273751029999694 29.138891329284068 7.6947233159590196 1 rotate no_reflect no_shear #
lump $-1 $-1 $58 $10 #
transform $-1 1 0 0 0 1 0 0 0 1 50.273751029999694 29.138891329284068 7.6947233159590196 1 rotate no_reflect no_shear #
lump $-1 $-1 $59 $11 #
transform $-1 1 0 0 0 1 0 0 0 1 50.273751029999694 29.138891329284068 7.6947233159590196 1 rotate no_reflect no_shear #
lump $-1 $-1 $60 $12 #
transform $-1 1 0 0 0 1 0 0 0 1 50.273751029999694 29.138891329284068 7.6947233159590196 1 rotate no_reflect no_shear #
lump $-1 $-1 $61 $13 #
transform $-1 1 0 0 0 1 0 0 0 1 50.273751029999694 29.138891329284068 7.6947233159590196 1 rotate no_reflect no_shear #
lump $-1 $-1 $62 $14 #
transform $-1 1 0 0 0 1 0 0 0 1 50.273751029999694 29.138891329284068 7.6947233159590196 1 rotate no_reflect no_shear #
lump $-1 $-1 $63 $15 #
transform $-1 1 0 0 0 1 0 0 0 1 50.273751029999694 29.138891329284068 7.6947233159590196 1 rotate no_reflect no_shear #
shell $-1 $-1 $-1 $64 $-1 $16 #
shell $-1 $-1 $-1 $65 $-1 $18 #
shell $-1 $-1 $-1 $66 $-1 $20 #
shell $-1 $-1 $-1 $67 $-1 $22 #
shell $-1 $-1 $-1 $68 $-1 $24 #
shell $-1 $-1 $-1 $69 $-1 $26 #
shell $-1 $-1 $-1 $70 $-1 $28 #
shell $-1 $-1 $-1 $71 $-1 $30 #
shell $-1 $-1 $-1 $72 $-1 $32 #
shell $-1 $-1 $-1 $73 $-1 $34 #
shell $-1 $-1 $-1 $74 $-1 $36 #
shell $-1 $-1 $-1 $75 $-1 $38 #
shell $-1 $-1 $-1 $76 $-1 $40 #
shell $-1 $-1 $-1 $77 $-1 $42 #
shell $-1 $-1 $-1 $78 $-1 $44 #
shell $-1 $-1 $-1 $79 $-1 $46 #
face $-1 $80 $81 $48 $-1 $82 forward single #
face $-1 $83 $84 $49 $-1 $85 forward single #
face $-1 $86 $87 $50 $-1 $88 reversed single #
face $-1 $89 $90 $51 $-1 $91 forward single #
face $-1 $92 $93 $52 $-1 $94 forward single #
face $-1 $95 $96 $53 $-1 $97 reversed single #
face $-1 $98 $99 $54 $-1 $100 forward single #
face $-1 $101 $102 $55 $-1 $103 forward single #
face $-1 $104 $105 $56 $-1 $106 reversed single #
face $-1 $107 $108 $57 $-1 $109 forward single #
face $-1 $110 $111 $58 $-1 $112 forward single #
face $-1 $113 $114 $59 $-1 $115 reversed single #
face $-1 $116 $117 $60 $-1 $118 forward single #
face $-1 $119 $120 $61 $-1 $121 forward single #
face $-1 $122 $123 $62 $-1 $124 reversed single #
face $-1 $125 $126 $63 $-1 $127 forward single #
face $-1 $128 $129 $48 $-1 $130 reversed single #
loop $-1 $-1 $131 $64 #
plane-surface $-1 0 0 7.6947233159590196 0 0 1 1 0 0 forward_v I I I I #
face $-1 $132 $133 $49 $-1 $134 reversed single #
loop $-1 $-1 $135 $65 #
plane-surface $-1 0 -25.566477420565224 -0.00084312007171716274 0 0 1 1 0 0 forward_v I I I I #
face $-1 $136 $137 $50 $-1 $138 reversed single #
loop $-1 $-1 $139 $66 #
plane-surface $-1 -112.17697526486577 -19.852244361832525 81.049394688528636 0 1 0 -0.61566148304635926 0 0.78801074757464917 forward_v I I I I #
face $-1 $140 $141 $51 $-1 $142 forward single #
loop $-1 $143 $144 $67 #
cone-surface $-1 -45.898284319004738 -17.422227436758476 3.970148915657111 0.61566148304635926 0 -0.78801074757464917 0.78801074757464917 0 0.61566148304635926 1 I I 0 1 1 forward I I I I #
face $-1 $145 $146 $52 $-1 $147 forward single #
loop $-1 $148 $149 $68 #
cone-surface $-1 -45.898284319004738 -13.777202049147402 3.970148915657111 0.61566148304635926 0 -0.78801074757464917 0.78801074757464917 0 0.61566148304635926 1 I I 0 1 1 forward I I I I #
face $-1 $150 $151 $53 $-1 $152 reversed single #
loop $-1 $-1 $153 $69 #
plane-surface $-1 -112.17697526486577 -7.0690056515499133 81.049394688528636 0 1 0 -0.61566148304635926 0 0.78801074757464917 forward_v I I I I #
face $-1 $154 $155 $54 $-1 $156 forward single #
loop $-1 $157 $158 $70 #
cone-surface $-1 -45.898284319004738 -4.638988726475862 3.970148915657111 0.61566148304635926 0 -0.78801074757464917 0.78801074757464917 0 0.61566148304635926 1 I I 0 1 1 forward I I I I #
face $-1 $159 $160 $55 $-1 $161 forward single #
loop $-1 $162 $163 $71 #
cone-surface $-1 -45.898284319004738 -0.99396333886479127 3.970148915657111 0.61566148304635926 0 -0.78801074757464917 0.78801074757464917 0 0.61566148304635926 1 I I 0 1 1 forward I I I I #
face $-1 $164 $165 $56 $-1 $166 reversed single #
loop $-1 $-1 $167 $72 #
plane-surface $-1 -112.17697526486577 5.714233058732697 81.049394688528636 0 1 0 -0.61566148304635926 0 0.78801074757464917 forward_v I I I I #
face $-1 $168 $169 $57 $-1 $170 forward single #
loop $-1 $171 $172 $73 #
cone-surface $-1 -45.898284319004738 8.1442499838067484 3.970148915657111 0.61566148304635926 0 -0.78801074757464917 0.78801074757464917 0 0.61566148304635926 1 I I 0 1 1 forward I I I I #
face $-1 $173 $174 $58 $-1 $175 forward single #
loop $-1 $176 $177 $74 #
cone-surface $-1 -45.898284319004738 11.789275371417819 3.970148915657111 0.61566148304635926 0 -0.78801074757464917 0.78801074757464917 0 0.61566148304635926 1 I I 0 1 1 forward I I I I #
face $-1 $178 $179 $59 $-1 $180 reversed single #
loop $-1 $-1 $181 $75 #
plane-surface $-1 -112.17697526486577 18.497471769015306 81.049394688528636 0 1 0 -0.61566148304635926 0 0.78801074757464917 forward_v I I I I #
face $-1 $182 $183 $60 $-1 $184 forward single #
loop $-1 $185 $186 $76 #
cone-surface $-1 -45.898284319004738 20.927488694089359 3.970148915657111 0.61566148304635926 0 -0.78801074757464917 0.78801074757464917 0 0.61566148304635926 1 I I 0 1 1 forward I I I I #
face $-1 $187 $188 $61 $-1 $189 forward single #
loop $-1 $190 $191 $77 #
cone-surface $-1 -45.898284319004738 24.57251408170043 3.970148915657111 0.61566148304635926 0 -0.78801074757464917 0.78801074757464917 0 0.61566148304635926 1 I I 0 1 1 forward I I I I #
face $-1 $192 $193 $62 $-1 $194 reversed single #
loop $-1 $-1 $195 $78 #
plane-surface $-1 -7.3979257175832203 23.006165658504525 82.402090635181622 0.81915205242281985 0 0.57357642473473569 0.57357642473473569 0 -0.81915205242281985 forward_v I I I I #
face $-1 $196 $197 $63 $-1 $198 forward single #
loop $-1 $199 $200 $79 #
cone-surface $-1 46.732966844762217 23.006165658504525 3.2641889841420202 -0.81915205242281985 0 -0.57357642473473569 0.57357642473473569 0 -0.81915205242281985 1 I I 0 1 1 forward I I I I #
face $-1 $201 $202 $48 $-1 $203 reversed single #
loop $-1 $-1 $204 $80 #
plane-surface $-1 0 0 -7.6947233159590196 0 0 1 1 0 0 forward_v I I I I #
coedge $-1 $205 $206 $207 $208 forward $81 $-1 #
face $-1 $209 $210 $49 $-1 $211 reversed single #
loop $-1 $-1 $212 $83 #
plane-surface $-1 0 -25.566477420565224 -4.0240231119438175 0 0 1 1 0 0 forward_v I I I I #
coedge $-1 $213 $214 $215 $216 reversed $84 $-1 #
face $-1 $217 $218 $50 $-1 $219 reversed single #
loop $-1 $-1 $220 $86 #
plane-surface $-1 -50.273751029999687 -15.599714742952939 1.8168824234649463 -0.61566148304635926 0 0.78801074757464917 0.78801074757464917 0 0.61566148304635926 forward_v I I I I #
coedge $-1 $221 $222 $223 $224 reversed $87 $-1 #
face $-1 $-1 $225 $51 $-1 $226 forward single #
loop $-1 $227 $228 $89 #
cone-surface $-1 -44.976633423374025 -17.422227436758476 2.7904895878149079 0.61566148304635926 0 -0.78801074757464917 0.39400537378732459 0 0.30783074152317963 1 I I -0.70710678118654746 0.70710678118654746 0.5 forward I I I I #
loop $-1 $-1 $229 $67 #
coedge $-1 $144 $144 $230 $231 reversed $90 $-1 #
face $-1 $-1 $232 $52 $-1 $233 forward single #
loop $-1 $234 $235 $92 #
cone-surface $-1 -44.976633423374025 -13.777202049147402 2.7904895878149079 0.61566148304635926 0 -0.78801074757464917 0.39400537378732459 0 0.30783074152317963 1 I I -0.70710678118654746 0.70710678118654746 0.5 forward I I I I #
loop $-1 $-1 $236 $68 #
coedge $-1 $149 $149 $237 $238 reversed $93 $-1 #
face $-1 $239 $240 $53 $-1 $241 reversed single #
loop $-1 $-1 $242 $95 #
plane-surface $-1 -50.273751029999687 -2.8164760326703266 1.8168824234649463 -0.61566148304635926 0 0.78801074757464917 0.78801074757464917 0 0.61566148304635926 forward_v I I I I #
coedge $-1 $243 $244 $245 $246 reversed $96 $-1 #
face $-1 $-1 $247 $54 $-1 $248 forward single #
loop $-1 $249 $250 $98 #
cone-surface $-1 -44.976633423374025 -4.638988726475862 2.7904895878149079 0.61566148304635926 0 -0.78801074757464917 0.39400537378732459 0 0.30783074152317963 1 I I -0.70710678118654746 0.70710678118654746 0.5 forward I I I I #
loop $-1 $-1 $251 $70 #
coedge $-1 $158 $158 $252 $253 reversed $99 $-1 #
face $-1 $-1 $254 $55 $-1 $255 forward single #
loop $-1 $256 $257 $101 #
cone-surface $-1 -44.976633423374025 -0.99396333886479127 2.7904895878149079 0.61566148304635926 0 -0.78801074757464917 0.39400537378732459 0 0.30783074152317963 1 I I -0.70710678118654746 0.70710678118654746 0.5 forward I I I I #
loop $-1 $-1 $258 $71 #
coedge $-1 $163 $163 $259 $260 reversed $102 $-1 #
face $-1 $261 $262 $56 $-1 $263 reversed single #
loop $-1 $-1 $264 $104 #
plane-surface $-1 -50.273751029999687 9.9667626776122837 1.8168824234649463 -0.61566148304635926 0 0.78801074757464917 0.78801074757464917 0 0.61566148304635926 forward_v I I I I #
coedge $-1 $265 $266 $267 $268 reversed $105 $-1 #
face $-1 $-1 $269 $57 $-1 $270 forward single #
loop $-1 $271 $272 $107 #
cone-surface $-1 -44.976633423374025 8.1442499838067484 2.7904895878149079 0.61566148304635926 0 -0.78801074757464917 0.39400537378732459 0 0.30783074152317963 1 I I -0.70710678118654746 0.70710678118654746 0.5 forward I I I I #
loop $-1 $-1 $273 $73 #
coedge $-1 $172 $172 $274 $275 reversed $108 $-1 #
face $-1 $-1 $276 $58 $-1 $277 forward single #
loop $-1 $278 $279 $110 #
cone-surface $-1 -44.976633423374025 11.789275371417819 2.7904895878149079 0.61566148304635926 0 -0.78801074757464917 0.39400537378732459 0 0.30783074152317963 1 I I -0.70710678118654746 0.70710678118654746 0.5 forward I I I I #
loop $-1 $-1 $280 $74 #
coedge $-1 $177 $177 $281 $282 reversed $111 $-1 #
face $-1 $283 $284 $59 $-1 $285 reversed single #
loop $-1 $-1 $286 $113 #
plane-surface $-1 -50.273751029999687 22.750001387894894 1.8168824234649463 -0.61566148304635926 0 0.78801074757464917 0.78801074757464917 0 0.61566148304635926 forward_v I I I I #
coedge $-1 $287 $288 $289 $290 reversed $114 $-1 #
face $-1 $-1 $291 $60 $-1 $292 forward single #
loop $-1 $293 $294 $116 #
cone-surface $-1 -44.976633423374025 20.927488694089359 2.7904895878149079 0.61566148304635926 0 -0.78801074757464917 0.39400537378732459 0 0.30783074152317963 1 I I -0.70710678118654746 0.70710678118654746 0.5 forward I I I I #
loop $-1 $-1 $295 $76 #
coedge $-1 $186 $186 $296 $297 reversed $117 $-1 #
face $-1 $-1 $298 $61 $-1 $299 forward single #
loop $-1 $300 $301 $119 #
cone-surface $-1 -44.976633423374025 24.57251408170043 2.7904895878149079 0.61566148304635926 0 -0.78801074757464917 0.39400537378732459 0 0.30783074152317963 1 I I -0.70710678118654746 0.70710678118654746 0.5 forward I I I I #
loop $-1 $-1 $302 $77 #
coedge $-1 $191 $191 $303 $304 reversed $120 $-1 #
face $-1 $305 $306 $62 $-1 $307 forward single #
loop $-1 $-1 $308 $122 #
plane-surface $-1 74.965766960852989 16.873439987724982 140.07376738276454 0 1 0 0.81915205242281985 0 0.57357642473473569 forward_v I I I I #
coedge $-1 $309 $310 $311 $312 reversed $123 $-1 #
face $-1 $-1 $313 $63 $-1 $314 forward single #
loop $-1 $315 $316 $125 #
cone-surface $-1 45.463114918164017 23.006165658504525 2.3750291195644495 -0.81915205242281985 0 -0.57357642473473569 0.28678821236736785 0 -0.40957602621140993 1 I I -0.70710678118654746 0.70710678118654746 0.5 forward I I I I #
loop $-1 $-1 $317 $79 #
coedge $-1 $200 $200 $318 $319 reversed $126 $-1 #
face $-1 $320 $321 $48 $-1 $322 reversed single #
loop $-1 $-1 $323 $128 #
plane-surface $-1 0 -29.138891329284068 0 0 1 0 0 0 1 forward_v I I I I #
coedge $-1 $324 $325 $326 $327 forward $129 $-1 #
coedge $-1 $328 $131 $329 $330 forward $81 $-1 #
coedge $-1 $131 $328 $331 $332 forward $81 $-1 #
coedge $-1 $333 $334 $131 $208 reversed $335 $-1 #
edge $-1 $336 -29.138891329284068 $337 29.138891329284068 $207 $338 forward 7 unknown #
face $-1 $339 $340 $49 $-1 $341 reversed single #
loop $-1 $-1 $342 $132 #
plane-surface $-1 0 -21.994063511846381 -2.0124331160077675 0 -1 0 0 0 -1 forward_v I I I I #
coedge $-1 $343 $344 $345 $346 reversed $133 $-1 #
coedge $-1 $347 $135 $348 $349 forward $84 $-1 #
coedge $-1 $135 $347 $350 $351 reversed $84 $-1 #
coedge $-1 $352 $353 $135 $216 forward $354 $-1 #
edge $-1 $355 9.2108248015637688 $356 16.355652619001454 $215 $357 forward 7 unknown #
face $-1 $358 $359 $50 $-1 $360 reversed single #
loop $-1 $-1 $361 $136 #
plane-surface $-1 -112.17697526486577 -11.347185124073352 81.049394688528636 0 -1 0 0.61566148304635926 0 -0.78801074757464917 forward_v I I I I #
coedge $-1 $362 $363 $364 $365 reversed $137 $-1 #
coedge $-1 $222 $139 $366 $367 reversed $87 $-1 #
coedge $-1 $139 $221 $362 $368 reversed $87 $-1 #
coedge $-1 $364 $369 $139 $224 forward $370 $-1 #
edge $-1 $371 5.814736602433193 $372 13.338029716208069 $223 $373 forward 7 unknown #
loop $-1 $-1 $230 $140 #
plane-surface $-1 -50.273751029999687 -15.599714742952939 1.8168824234649463 -0.61566148304635926 0 0.78801074757464917 0.78801074757464917 0 0.61566148304635926 forward_v I I I I #
loop $-1 $-1 $374 $89 #
coedge $-1 $228 $228 $229 $375 reversed $141 $-1 #
coedge $-1 $229 $229 $228 $375 forward $143 $-1 #
coedge $-1 $230 $230 $144 $231 forward $225 $-1 #
edge $-1 $376 0 $376 6.2831853071796004 $230 $377 forward 7 unknown #
loop $-1 $-1 $237 $145 #
plane-surface $-1 -50.273751029999687 -15.599714742952939 1.8168824234649463 -0.61566148304635926 0 0.78801074757464917 0.78801074757464917 0 0.61566148304635926 forward_v I I I I #
loop $-1 $-1 $378 $92 #
coedge $-1 $235 $235 $236 $379 reversed $146 $-1 #
coedge $-1 $236 $236 $235 $379 forward $148 $-1 #
coedge $-1 $237 $237 $149 $238 forward $232 $-1 #
edge $-1 $380 0 $380 6.2831853071796004 $237 $381 forward 7 unknown #
face $-1 $382 $383 $53 $-1 $384 forward single #
loop $-1 $-1 $385 $150 #
plane-surface $-1 -112.17697526486577 1.43605358620926 81.049394688528636 0 -1 0 0.61566148304635926 0 -0.78801074757464917 forward_v I I I I #
coedge $-1 $386 $387 $388 $389 reversed $151 $-1 #
coedge $-1 $244 $153 $390 $391 reversed $96 $-1 #
coedge $-1 $153 $243 $386 $392 reversed $96 $-1 #
coedge $-1 $388 $393 $153 $246 forward $383 $-1 #
edge $-1 $394 5.814736602433193 $395 13.338029716208069 $245 $396 forward 7 unknown #
loop $-1 $-1 $252 $154 #
plane-surface $-1 -50.273751029999687 -2.8164760326703266 1.8168824234649463 -0.61566148304635926 0 0.78801074757464917 0.78801074757464917 0 0.61566148304635926 forward_v I I I I #
loop $-1 $-1 $397 $98 #
coedge $-1 $250 $250 $251 $398 reversed $155 $-1 #
coedge $-1 $251 $251 $250 $398 forward $157 $-1 #
coedge $-1 $252 $252 $158 $253 forward $247 $-1 #
edge $-1 $399 0 $399 6.2831853071796004 $252 $400 forward 7 unknown #
loop $-1 $-1 $259 $159 #
plane-surface $-1 -50.273751029999687 -2.8164760326703266 1.8168824234649463 -0.61566148304635926 0 0.78801074757464917 0.78801074757464917 0 0.61566148304635926 forward_v I I I I #
loop $-1 $-1 $401 $101 #
coedge $-1 $257 $257 $258 $402 reversed $160 $-1 #
coedge $-1 $258 $258 $257 $402 forward $162 $-1 #
coedge $-1 $259 $259 $163 $260 forward $254 $-1 #
edge $-1 $403 0 $403 6.2831853071796004 $259 $404 forward 7 unknown #
face $-1 $405 $406 $56 $-1 $407 forward single #
loop $-1 $-1 $408 $164 #
plane-surface $-1 -112.17697526486577 14.21929229649187 81.049394688528636 0 -1 0 0.61566148304635926 0 -0.78801074757464917 forward_v I I I I #
coedge $-1 $409 $410 $411 $412 reversed $165 $-1 #
coedge $-1 $266 $167 $413 $414 reversed $105 $-1 #
coedge $-1 $167 $265 $409 $415 reversed $105 $-1 #
coedge $-1 $411 $416 $167 $268 forward $406 $-1 #
edge $-1 $417 5.814736602433193 $418 13.338029716208069 $267 $419 forward 7 unknown #
loop $-1 $-1 $274 $168 #
plane-surface $-1 -50.273751029999687 9.9667626776122837 1.8168824234649463 -0.61566148304635926 0 0.78801074757464917 0.78801074757464917 0 0.61566148304635926 forward_v I I I I #
loop $-1 $-1 $420 $107 #
coedge $-1 $272 $272 $273 $421 reversed $169 $-1 #
coedge $-1 $273 $273 $272 $421 forward $171 $-1 #
coedge $-1 $274 $274 $172 $275 forward $269 $-1 #
edge $-1 $422 0 $422 6.2831853071796004 $274 $423 forward 7 unknown #
loop $-1 $-1 $281 $173 #
plane-surface $-1 -50.273751029999687 9.9667626776122837 1.8168824234649463 -0.61566148304635926 0 0.78801074757464917 0.78801074757464917 0 0.61566148304635926 forward_v I I I I #
loop $-1 $-1 $424 $110 #
coedge $-1 $279 $279 $280 $425 reversed $174 $-1 #
coedge $-1 $280 $280 $279 $425 forward $176 $-1 #
coedge $-1 $281 $281 $177 $282 forward $276 $-1 #
edge $-1 $426 0 $426 6.2831853071796004 $281 $427 forward 7 unknown #
face $-1 $428 $429 $59 $-1 $430 forward single #
loop $-1 $-1 $431 $178 #
plane-surface $-1 -112.17697526486577 27.002531006774483 81.049394688528636 0 -1 0 0.61566148304635926 0 -0.78801074757464917 forward_v I I I I #
coedge $-1 $432 $433 $434 $435 reversed $179 $-1 #
coedge $-1 $288 $181 $436 $437 reversed $114 $-1 #
coedge $-1 $181 $287 $432 $438 reversed $114 $-1 #
coedge $-1 $434 $439 $181 $290 forward $429 $-1 #
edge $-1 $440 5.814736602433193 $441 13.338029716208069 $289 $442 forward 7 unknown #
loop $-1 $-1 $296 $182 #
plane-surface $-1 -50.273751029999687 22.750001387894894 1.8168824234649463 -0.61566148304635926 0 0.78801074757464917 0.78801074757464917 0 0.61566148304635926 forward_v I I I I #
loop $-1 $-1 $443 $116 #
coedge $-1 $294 $294 $295 $444 reversed $183 $-1 #
coedge $-1 $295 $295 $294 $444 forward $185 $-1 #
coedge $-1 $296 $296 $186 $297 forward $291 $-1 #
edge $-1 $445 0 $445 6.2831853071796004 $296 $446 forward 7 unknown #
loop $-1 $-1 $303 $187 #
plane-surface $-1 -50.273751029999687 22.750001387894894 1.8168824234649463 -0.61566148304635926 0 0.78801074757464917 0.78801074757464917 0 0.61566148304635926 forward_v I I I I #
loop $-1 $-1 $447 $119 #
coedge $-1 $301 $301 $302 $448 reversed $188 $-1 #
coedge $-1 $302 $302 $301 $448 forward $190 $-1 #
coedge $-1 $303 $303 $191 $304 forward $298 $-1 #
edge $-1 $449 0 $449 6.2831853071796004 $303 $450 forward 7 unknown #
face $-1 $451 $452 $62 $-1 $453 reversed single #
loop $-1 $-1 $311 $192 #
plane-surface $-1 0 0 7.6947233159590196 0 0 1 1 0 0 forward_v I I I I #
coedge $-1 $454 $455 $456 $457 reversed $193 $-1 #
coedge $-1 $458 $195 $459 $460 reversed $123 $-1 #
coedge $-1 $195 $458 $454 $461 forward $123 $-1 #
coedge $-1 $456 $462 $195 $312 forward $306 $-1 #
edge $-1 $463 -17.635808500031807 $464 -5.3703571584727197 $311 $465 forward 7 unknown #
loop $-1 $-1 $318 $196 #
plane-surface $-1 -7.3979257175832203 23.006165658504525 82.402090635181622 0.81915205242281985 0 0.57357642473473569 0.57357642473473569 0 -0.81915205242281985 forward_v I I I I #
loop $-1 $-1 $466 $125 #
coedge $-1 $316 $316 $317 $467 reversed $197 $-1 #
coedge $-1 $317 $317 $316 $467 forward $199 $-1 #
coedge $-1 $318 $318 $200 $319 forward $313 $-1 #
edge $-1 $468 0 $468 6.2831853071796004 $318 $469 forward 7 unknown #
face $-1 $470 $471 $48 $-1 $472 reversed single #
loop $-1 $-1 $473 $201 #
plane-surface $-1 -50.273751029999694 0 0 1 0 0 0 0 -1 forward_v I I I I #
coedge $-1 $474 $331 $475 $476 forward $202 $-1 #
coedge $-1 $477 $204 $474 $478 forward $129 $-1 #
coedge $-1 $204 $477 $479 $480 forward $129 $-1 #
coedge $-1 $334 $333 $204 $327 reversed $335 $-1 #
edge $-1 $481 -29.138891329284068 $482 29.138891329284068 $326 $483 forward 7 unknown #
coedge $-1 $206 $205 $484 $485 forward $81 $-1 #
coedge $-1 $486 $487 $205 $330 reversed $471 $-1 #
edge $-1 $337 -50.273751029999694 $488 50.273751029999694 $329 $489 forward 7 unknown #
coedge $-1 $323 $490 $206 $332 reversed $202 $-1 #
edge $-1 $491 -50.273751029999694 $336 50.273751029999694 $331 $492 forward 7 unknown #
coedge $-1 $326 $207 $490 $493 forward $335 $-1 #
coedge $-1 $207 $326 $486 $494 reversed $335 $-1 #
loop $-1 $-1 $333 $470 #
vertex $-1 $208 $495 #
vertex $-1 $208 $496 #
straight-curve $-1 50.273751029999694 0 7.6947233159590196 0 1 0 I I #
face $-1 $497 $498 $49 $-1 $499 reversed single #
loop $-1 $-1 $500 $209 #
plane-surface $-1 -50.273751029999694 0 0 1 0 0 0 0 -1 forward_v I I I I #
coedge $-1 $501 $348 $353 $502 reversed $210 $-1 #
coedge $-1 $503 $212 $504 $505 reversed $133 $-1 #
coedge $-1 $212 $503 $501 $506 forward $133 $-1 #
coedge $-1 $353 $352 $212 $346 forward $354 $-1 #
edge $-1 $507 -16.355652619001454 $508 -9.2108248015637688 $345 $509 forward 7 unknown #
coedge $-1 $214 $213 $500 $510 reversed $84 $-1 #
coedge $-1 $342 $511 $213 $349 reversed $210 $-1 #
edge $-1 $355 -50.273751029999694 $512 50.273751029999694 $348 $513 forward 7 unknown #
coedge $-1 $514 $515 $214 $351 forward $498 $-1 #
edge $-1 $356 -50.273751029999694 $516 50.273751029999694 $350 $517 forward 7 unknown #
coedge $-1 $345 $215 $515 $518 forward $354 $-1 #
coedge $-1 $215 $345 $342 $502 forward $354 $-1 #
loop $-1 $-1 $215 $497 #
vertex $-1 $216 $519 #
vertex $-1 $518 $520 #
straight-curve $-1 50.273751029999694 -12.783238710282612 -0.00084312007171716274 0 -1 0 I I #
face $-1 $-1 $370 $50 $-1 $521 forward single #
loop $-1 $-1 $522 $217 #
plane-surface $-1 -50.273751029999694 0 0 1 0 0 0 0 -1 forward_v I I I I #
coedge $-1 $523 $524 $525 $526 reversed $218 $-1 #
coedge $-1 $527 $220 $222 $368 forward $137 $-1 #
coedge $-1 $220 $527 $523 $528 forward $137 $-1 #
coedge $-1 $525 $223 $220 $365 forward $370 $-1 #
edge $-1 $372 -12.052386990356055 $529 -3.5473277525968827 $364 $530 forward 7 unknown #
coedge $-1 $531 $532 $221 $367 forward $359 $-1 #
edge $-1 $533 -38.707814920799379 $371 -32.829974028305301 $366 $534 forward 7 unknown #
edge $-1 $372 -9.5471960717923814 $533 9.0167608931652224e-015 $222 $535 forward 7 unknown #
coedge $-1 $223 $525 $531 $536 forward $370 $-1 #
loop $-1 $-1 $525 $358 #
vertex $-1 $367 $537 #
vertex $-1 $224 $538 #
straight-curve $-1 -56.088487632432887 -19.852244361832525 7.6947233159590169 1 0 0 I I #
coedge $-1 $374 $374 $-1 $539 reversed $227 $-1 #
edge $-1 $540 0 $540 6.2831853071796004 $228 $541 forward 7 unknown #
vertex $-1 $231 $542 #
ellipse-curve $-1 -46.512104473112259 -17.422227436758476 4.7558028697119772 -0.61566148304635926 0 0.78801074757464917 0.78801074757464917 0 0.61566148304635926 1 I I #
coedge $-1 $378 $378 $-1 $543 reversed $234 $-1 #
edge $-1 $544 0 $544 6.2831853071796004 $235 $545 forward 7 unknown #
vertex $-1 $238 $546 #
ellipse-curve $-1 -46.512104473112259 -13.777202049147402 4.7558028697119772 -0.61566148304635926 0 0.78801074757464917 0.78801074757464917 0 0.61566148304635926 1 I I #
face $-1 $-1 $547 $53 $-1 $548 reversed single #
loop $-1 $-1 $245 $239 #
plane-surface $-1 0 0 7.6947233159590196 0 0 1 1 0 0 forward_v I I I I #
coedge $-1 $549 $550 $551 $552 reversed $240 $-1 #
coedge $-1 $553 $242 $244 $392 forward $151 $-1 #
coedge $-1 $242 $553 $549 $554 forward $151 $-1 #
coedge $-1 $551 $245 $242 $389 forward $383 $-1 #
edge $-1 $395 -5.66076763521475 $555 2.8442916025444234 $388 $556 forward 7 unknown #
coedge $-1 $557 $558 $243 $391 forward $547 $-1 #
edge $-1 $559 -38.707814920799379 $394 -32.829974028305301 $390 $560 forward 7 unknown #
edge $-1 $395 -9.5471960717923814 $559 9.0167608931652224e-015 $244 $561 forward 7 unknown #
coedge $-1 $245 $551 $557 $562 forward $383 $-1 #
vertex $-1 $246 $563 #
vertex $-1 $246 $564 #
straight-curve $-1 -56.088487632432887 -7.0690056515499133 7.6947233159590169 1 0 0 I I #
coedge $-1 $397 $397 $-1 $565 reversed $249 $-1 #
edge $-1 $566 0 $566 6.2831853071796004 $250 $567 forward 7 unknown #
vertex $-1 $253 $568 #
ellipse-curve $-1 -46.512104473112259 -4.638988726475862 4.7558028697119772 -0.61566148304635926 0 0.78801074757464917 0.78801074757464917 0 0.61566148304635926 1 I I #
coedge $-1 $401 $401 $-1 $569 reversed $256 $-1 #
edge $-1 $570 0 $570 6.2831853071796004 $257 $571 forward 7 unknown #
vertex $-1 $260 $572 #
ellipse-curve $-1 -46.512104473112259 -0.99396333886479127 4.7558028697119772 -0.61566148304635926 0 0.78801074757464917 0.78801074757464917 0 0.61566148304635926 1 I I #
face $-1 $-1 $573 $56 $-1 $574 reversed single #
loop $-1 $-1 $267 $261 #
plane-surface $-1 0 0 7.6947233159590196 0 0 1 1 0 0 forward_v I I I I #
coedge $-1 $575 $576 $577 $578 reversed $262 $-1 #
coedge $-1 $579 $264 $266 $415 forward $165 $-1 #
coedge $-1 $264 $579 $575 $580 forward $165 $-1 #
coedge $-1 $577 $267 $264 $412 forward $406 $-1 #
edge $-1 $418 0.73085171992655518 $581 9.2359109576857286 $411 $582 forward 7 unknown #
coedge $-1 $583 $584 $265 $414 forward $573 $-1 #
edge $-1 $585 -38.707814920799379 $417 -32.829974028305301 $413 $586 forward 7 unknown #
edge $-1 $418 -9.5471960717923814 $585 9.0167608931652224e-015 $266 $587 forward 7 unknown #
coedge $-1 $267 $577 $583 $588 forward $406 $-1 #
vertex $-1 $268 $589 #
vertex $-1 $268 $590 #
straight-curve $-1 -56.088487632432887 5.714233058732697 7.6947233159590169 1 0 0 I I #
coedge $-1 $420 $420 $-1 $591 reversed $271 $-1 #
edge $-1 $592 0 $592 6.2831853071796004 $272 $593 forward 7 unknown #
vertex $-1 $275 $594 #
ellipse-curve $-1 -46.512104473112259 8.1442499838067484 4.7558028697119772 -0.61566148304635926 0 0.78801074757464917 0.78801074757464917 0 0.61566148304635926 1 I I #
coedge $-1 $424 $424 $-1 $595 reversed $278 $-1 #
edge $-1 $596 0 $596 6.2831853071796004 $279 $597 forward 7 unknown #
vertex $-1 $282 $598 #
ellipse-curve $-1 -46.512104473112259 11.789275371417819 4.7558028697119772 -0.61566148304635926 0 0.78801074757464917 0.78801074757464917 0 0.61566148304635926 1 I I #
face $-1 $-1 $599 $59 $-1 $600 reversed single #
loop $-1 $-1 $289 $283 #
plane-surface $-1 0 0 7.6947233159590196 0 0 1 1 0 0 forward_v I I I I #
coedge $-1 $601 $602 $603 $604 reversed $284 $-1 #
coedge $-1 $605 $286 $288 $438 forward $179 $-1 #
coedge $-1 $286 $605 $601 $606 forward $179 $-1 #
coedge $-1 $603 $289 $286 $435 forward $429 $-1 #
edge $-1 $441 7.1224710750678586 $607 15.627530312827036 $434 $608 forward 7 unknown #
coedge $-1 $609 $610 $287 $437 forward $599 $-1 #
edge $-1 $611 -38.707814920799379 $440 -32.829974028305301 $436 $612 forward 7 unknown #
edge $-1 $441 -9.5471960717923814 $611 9.0167608931652224e-015 $288 $613 forward 7 unknown #
coedge $-1 $289 $603 $609 $614 forward $429 $-1 #
vertex $-1 $290 $615 #
vertex $-1 $290 $616 #
straight-curve $-1 -56.088487632432887 18.497471769015306 7.6947233159590169 1 0 0 I I #
coedge $-1 $443 $443 $-1 $617 reversed $293 $-1 #
edge $-1 $618 0 $618 6.2831853071796004 $294 $619 forward 7 unknown #
vertex $-1 $297 $620 #
ellipse-curve $-1 -46.512104473112259 20.927488694089359 4.7558028697119772 -0.61566148304635926 0 0.78801074757464917 0.78801074757464917 0 0.61566148304635926 1 I I #
coedge $-1 $447 $447 $-1 $621 reversed $300 $-1 #
edge $-1 $622 0 $622 6.2831853071796004 $301 $623 forward 7 unknown #
vertex $-1 $304 $624 #
ellipse-curve $-1 -46.512104473112259 24.57251408170043 4.7558028697119772 -0.61566148304635926 0 0.78801074757464917 0.78801074757464917 0 0.61566148304635926 1 I I #
face $-1 $-1 $625 $62 $-1 $626 reversed single #
loop $-1 $-1 $627 $305 #
plane-surface $-1 50.273751029999694 0 0 -1 0 0 0 0 1 forward_v I I I I #
coedge $-1 $455 $308 $310 $461 reversed $193 $-1 #
coedge $-1 $308 $454 $628 $629 reversed $193 $-1 #
coedge $-1 $630 $311 $308 $457 forward $306 $-1 #
edge $-1 $464 7.42985097987183 $631 12.7908675495732 $456 $632 forward 7 unknown #
coedge $-1 $310 $309 $627 $633 reversed $123 $-1 #
coedge $-1 $634 $635 $309 $460 forward $625 $-1 #
edge $-1 $636 -64.675943334357001 $463 -55.329295985347308 $459 $637 forward 7 unknown #
edge $-1 $638 -100.5475020599994 $464 -91.200854710989702 $454 $639 forward 7 unknown #
coedge $-1 $311 $630 $634 $640 forward $306 $-1 #
vertex $-1 $460 $641 #
vertex $-1 $312 $642 #
straight-curve $-1 44.912734460298331 11.503082829252262 7.6947233159590169 0 -1 0 I I #
coedge $-1 $466 $466 $-1 $643 reversed $315 $-1 #
edge $-1 $644 0 $644 6.2831853071796004 $316 $645 forward 7 unknown #
vertex $-1 $319 $646 #
ellipse-curve $-1 47.593242745149013 23.006165658504525 3.8665606363522222 0.81915205242281985 0 0.57357642473473569 0.57357642473473569 0 -0.81915205242281985 1 I I #
face $-1 $-1 $335 $48 $-1 $647 reversed single #
loop $-1 $-1 $486 $320 #
plane-surface $-1 0 29.138891329284068 0 0 -1 0 0 0 -1 forward_v I I I I #
coedge $-1 $648 $484 $487 $649 forward $321 $-1 #
coedge $-1 $490 $323 $324 $478 reversed $202 $-1 #
coedge $-1 $484 $648 $323 $476 reversed $321 $-1 #
edge $-1 $491 -7.6947233159590196 $650 7.6947233159590196 $475 $651 forward 7 unknown #
coedge $-1 $325 $324 $648 $652 forward $129 $-1 #
edge $-1 $482 -50.273751029999694 $650 50.273751029999694 $474 $653 forward 7 unknown #
coedge $-1 $487 $486 $325 $480 reversed $471 $-1 #
edge $-1 $654 -50.273751029999694 $481 50.273751029999694 $479 $655 forward 7 unknown #
vertex $-1 $327 $656 #
vertex $-1 $493 $657 #
straight-curve $-1 50.273751029999694 0 -7.6947233159590196 0 -1 0 I I #
coedge $-1 $473 $475 $328 $485 reversed $321 $-1 #
edge $-1 $488 -29.138891329284068 $491 29.138891329284068 $484 $658 forward 7 unknown #
coedge $-1 $479 $329 $334 $494 forward $471 $-1 #
coedge $-1 $329 $479 $473 $649 reversed $471 $-1 #
vertex $-1 $330 $659 #
straight-curve $-1 0 29.138891329284068 7.6947233159590196 -1 0 0 I I #
coedge $-1 $331 $474 $333 $493 reversed $202 $-1 #
vertex $-1 $485 $660 #
straight-curve $-1 0 -29.138891329284068 7.6947233159590196 1 0 0 I I #
edge $-1 $336 -7.6947233159590196 $482 7.6947233159590196 $333 $661 forward 7 unknown #
edge $-1 $337 -7.6947233159590196 $481 7.6947233159590196 $334 $662 forward 7 unknown #
point $-1 50.273751029999694 -29.138891329284068 7.6947233159590196 #
point $-1 50.273751029999694 29.138891329284068 7.6947233159590196 #
face $-1 $-1 $354 $49 $-1 $663 reversed single #
loop $-1 $-1 $350 $339 #
plane-surface $-1 0 -29.138891329284068 0 0 1 0 0 0 1 forward_v I I I I #
coedge $-1 $664 $665 $347 $510 forward $340 $-1 #
coedge $-1 $511 $342 $344 $506 reversed $210 $-1 #
edge $-1 $508 -3.0178065539399337 $355 1.0053734379321666 $353 $666 forward 7 unknown #
coedge $-1 $344 $343 $667 $668 reversed $133 $-1 #
coedge $-1 $515 $514 $343 $505 forward $498 $-1 #
edge $-1 $669 -50.273751029999694 $507 50.273751029999694 $504 $670 forward 7 unknown #
edge $-1 $671 -50.273751029999694 $508 50.273751029999694 $501 $672 forward 7 unknown #
vertex $-1 $505 $673 #
vertex $-1 $346 $674 #
straight-curve $-1 50.273751029999694 -12.783238710282612 -4.0240231119438175 0 1 0 I I #
edge $-1 $516 -16.355652619001454 $512 -9.2108248015637688 $500 $675 forward 7 unknown #
coedge $-1 $348 $501 $664 $676 reversed $210 $-1 #
vertex $-1 $510 $677 #
straight-curve $-1 0 -21.994063511846381 -0.00084312007171716274 -1 0 0 I I #
coedge $-1 $504 $350 $665 $678 forward $498 $-1 #
coedge $-1 $350 $504 $352 $518 reversed $498 $-1 #
vertex $-1 $678 $679 #
straight-curve $-1 0 -29.138891329284068 -0.00084312007171716274 -1 0 0 I I #
edge $-1 $356 0.00084312007171716274 $507 4.0240231119438175 $352 $680 forward 7 unknown #
point $-1 50.273751029999694 -21.994063511846381 -0.00084312007171716274 #
point $-1 50.273751029999694 -29.138891329284068 -0.00084312007171716274 #
plane-surface $-1 0 0 7.6947233159590196 0 0 1 1 0 0 forward_v I I I I #
coedge $-1 $532 $531 $524 $681 forward $359 $-1 #
coedge $-1 $524 $361 $363 $528 reversed $218 $-1 #
coedge $-1 $361 $523 $522 $681 reversed $218 $-1 #
coedge $-1 $369 $364 $361 $526 forward $370 $-1 #
edge $-1 $529 -13.338029716208069 $682 -5.814736602433193 $525 $683 forward 7 unknown #
coedge $-1 $363 $362 $532 $684 reversed $137 $-1 #
edge $-1 $685 -9.0167608931652224e-015 $529 9.5471960717923814 $523 $686 forward 7 unknown #
vertex $-1 $365 $687 #
straight-curve $-1 -42.750457916224825 -7.7998573714764694 7.6947233159590187 0 1 0 I I #
coedge $-1 $522 $366 $369 $536 reversed $359 $-1 #
coedge $-1 $366 $522 $527 $684 forward $359 $-1 #
vertex $-1 $367 $688 #
straight-curve $-1 -50.273751029999694 -19.852244361832525 40.524697344264318 0 0 1 I I #
straight-curve $-1 -50.273751029999687 -19.852244361832525 1.8168824234649463 -0.78801074757464917 0 -0.61566148304635926 I I #
edge $-1 $682 11.347185124073352 $371 19.852244361832525 $531 $689 forward 7 unknown #
point $-1 -50.273751029999694 -19.852244361832525 7.6947233159590196 #
point $-1 -42.750457916224818 -19.852244361832525 7.6947233159590196 #
edge $-1 $690 1 $690 0 $374 $-1 forward 7 unknown #
vertex $-1 $375 $691 #
ellipse-curve $-1 -45.284464164897201 -17.422227436758476 3.1844949616022324 -0.61566148304635926 0 0.78801074757464917 0.78801074757464917 0 0.61566148304635926 1 I I #
point $-1 -45.724093725537621 -17.422227436758476 5.3714643527583501 #
edge $-1 $692 1 $692 0 $378 $-1 forward 7 unknown #
vertex $-1 $379 $693 #
ellipse-curve $-1 -45.284464164897201 -13.777202049147402 3.1844949616022324 -0.61566148304635926 0 0.78801074757464917 0.78801074757464917 0 0.61566148304635926 1 I I #
point $-1 -45.724093725537621 -13.777202049147402 5.3714643527583501 #
loop $-1 $-1 $390 $382 #
plane-surface $-1 -50.273751029999694 0 0 1 0 0 0 0 -1 forward_v I I I I #
coedge $-1 $550 $385 $387 $554 reversed $240 $-1 #
coedge $-1 $385 $549 $694 $695 reversed $240 $-1 #
coedge $-1 $393 $388 $385 $552 forward $383 $-1 #
edge $-1 $555 -13.338029716208069 $696 -5.814736602433193 $551 $697 forward 7 unknown #
coedge $-1 $387 $386 $558 $698 reversed $151 $-1 #
edge $-1 $699 -9.0167608931652224e-015 $555 9.5471960717923814 $549 $700 forward 7 unknown #
vertex $-1 $389 $701 #
straight-curve $-1 -42.750457916224825 -1.4082380163351633 7.6947233159590187 0 1 0 I I #
coedge $-1 $694 $390 $393 $562 reversed $547 $-1 #
coedge $-1 $390 $694 $553 $698 forward $547 $-1 #
vertex $-1 $391 $702 #
straight-curve $-1 -50.273751029999694 -7.0690056515499133 40.524697344264318 0 0 1 I I #
straight-curve $-1 -50.273751029999687 -7.0690056515499133 1.8168824234649463 -0.78801074757464917 0 -0.61566148304635926 I I #
edge $-1 $696 -1.43605358620926 $394 7.0690056515499133 $557 $703 forward 7 unknown #
point $-1 -50.273751029999694 -7.0690056515499133 7.6947233159590196 #
point $-1 -42.750457916224818 -7.0690056515499133 7.6947233159590196 #
edge $-1 $704 1 $704 0 $397 $-1 forward 7 unknown #
vertex $-1 $398 $705 #
ellipse-curve $-1 -45.284464164897201 -4.638988726475862 3.1844949616022324 -0.61566148304635926 0 0.78801074757464917 0.78801074757464917 0 0.61566148304635926 1 I I #
point $-1 -45.724093725537621 -4.638988726475862 5.3714643527583501 #
edge $-1 $706 1 $706 0 $401 $-1 forward 7 unknown #
vertex $-1 $402 $707 #
ellipse-curve $-1 -45.284464164897201 -0.99396333886479127 3.1844949616022324 -0.61566148304635926 0 0.78801074757464917 0.78801074757464917 0 0.61566148304635926 1 I I #
point $-1 -45.724093725537621 -0.99396333886479127 5.3714643527583501 #
loop $-1 $-1 $413 $405 #
plane-surface $-1 -50.273751029999694 0 0 1 0 0 0 0 -1 forward_v I I I I #
coedge $-1 $576 $408 $410 $580 reversed $262 $-1 #
coedge $-1 $408 $575 $708 $709 reversed $262 $-1 #
coedge $-1 $416 $411 $408 $578 forward $406 $-1 #
edge $-1 $581 -13.338029716208069 $710 -5.814736602433193 $577 $711 forward 7 unknown #
coedge $-1 $410 $409 $584 $712 reversed $165 $-1 #
edge $-1 $713 -9.0167608931652224e-015 $581 9.5471960717923814 $575 $714 forward 7 unknown #
vertex $-1 $412 $715 #
straight-curve $-1 -42.750457916224825 4.9833813388061419 7.6947233159590187 0 1 0 I I #
coedge $-1 $708 $413 $416 $588 reversed $573 $-1 #
coedge $-1 $413 $708 $579 $712 forward $573 $-1 #
vertex $-1 $414 $716 #
straight-curve $-1 -50.273751029999694 5.714233058732697 40.524697344264318 0 0 1 I I #
straight-curve $-1 -50.273751029999687 5.714233058732697 1.8168824234649463 -0.78801074757464917 0 -0.61566148304635926 I I #
edge $-1 $710 -14.21929229649187 $417 -5.714233058732697 $583 $717 forward 7 unknown #
point $-1 -50.273751029999694 5.714233058732697 7.6947233159590196 #
point $-1 -42.750457916224818 5.714233058732697 7.6947233159590196 #
edge $-1 $718 1 $718 0 $420 $-1 forward 7 unknown #
vertex $-1 $421 $719 #
ellipse-curve $-1 -45.284464164897201 8.1442499838067484 3.1844949616022324 -0.61566148304635926 0 0.78801074757464917 0.78801074757464917 0 0.61566148304635926 1 I I #
point $-1 -45.724093725537621 8.1442499838067484 5.3714643527583501 #
edge $-1 $720 1 $720 0 $424 $-1 forward 7 unknown #
vertex $-1 $425 $721 #
ellipse-curve $-1 -45.284464164897201 11.789275371417819 3.1844949616022324 -0.61566148304635926 0 0.78801074757464917 0.78801074757464917 0 0.61566148304635926 1 I I #
point $-1 -45.724093725537621 11.789275371417819 5.3714643527583501 #
loop $-1 $-1 $436 $428 #
plane-surface $-1 -50.273751029999694 0 0 1 0 0 0 0 -1 forward_v I I I I #
coedge $-1 $602 $431 $433 $606 reversed $284 $-1 #
coedge $-1 $431 $601 $722 $723 reversed $284 $-1 #
coedge $-1 $439 $434 $431 $604 forward $429 $-1 #
edge $-1 $607 -13.338029716208069 $724 -5.814736602433193 $603 $725 forward 7 unknown #
coedge $-1 $433 $432 $610 $726 reversed $179 $-1 #
edge $-1 $727 -9.0167608931652224e-015 $607 9.5471960717923814 $601 $728 forward 7 unknown #
vertex $-1 $435 $729 #
straight-curve $-1 -42.750457916224825 11.375000693947447 7.6947233159590187 0 1 0 I I #
coedge $-1 $722 $436 $439 $614 reversed $599 $-1 #
coedge $-1 $436 $722 $605 $726 forward $599 $-1 #
vertex $-1 $437 $730 #
straight-curve $-1 -50.273751029999694 18.497471769015306 40.524697344264318 0 0 1 I I #
straight-curve $-1 -50.273751029999687 18.497471769015306 1.8168824234649463 -0.78801074757464917 0 -0.61566148304635926 I I #
edge $-1 $724 -27.002531006774483 $440 -18.497471769015306 $609 $731 forward 7 unknown #
point $-1 -50.273751029999694 18.497471769015306 7.6947233159590196 #
point $-1 -42.750457916224818 18.497471769015306 7.6947233159590196 #
edge $-1 $732 1 $732 0 $443 $-1 forward 7 unknown #
vertex $-1 $444 $733 #
ellipse-curve $-1 -45.284464164897201 20.927488694089359 3.1844949616022324 -0.61566148304635926 0 0.78801074757464917 0.78801074757464917 0 0.61566148304635926 1 I I #
point $-1 -45.724093725537621 20.927488694089359 5.3714643527583501 #
edge $-1 $734 1 $734 0 $447 $-1 forward 7 unknown #
vertex $-1 $448 $735 #
ellipse-curve $-1 -45.284464164897201 24.57251408170043 3.1844949616022324 -0.61566148304635926 0 0.78801074757464917 0.78801074757464917 0 0.61566148304635926 1 I I #
point $-1 -45.724093725537621 24.57251408170043 5.3714643527583501 #
loop $-1 $-1 $459 $451 #
plane-surface $-1 0 29.138891329284068 0 0 -1 0 0 0 -1 forward_v I I I I #
coedge $-1 $736 $628 $458 $633 forward $452 $-1 #
coedge $-1 $627 $737 $455 $629 forward $452 $-1 #
edge $-1 $631 62.342160375423255 $638 69.998485734636844 $628 $738 forward 7 unknown #
coedge $-1 $462 $456 $737 $739 forward $306 $-1 #
vertex $-1 $739 $740 #
straight-curve $-1 37.482883480426494 16.873439987724982 7.694723315959024 1 0 0 I I #
edge $-1 $638 5.3703571584727197 $636 17.635808500031807 $627 $741 forward 7 unknown #
coedge $-1 $635 $459 $462 $640 reversed $625 $-1 #
coedge $-1 $459 $634 $736 $742 forward $625 $-1 #
vertex $-1 $460 $743 #
straight-curve $-1 13.177154685932859 29.138891329284068 53.017829681465955 -0.57357642473473569 0 0.81915205242281985 I I #
vertex $-1 $633 $744 #
straight-curve $-1 -7.3979257175832203 16.873439987724982 82.402090635181622 -0.57357642473473569 0 0.81915205242281985 I I #
edge $-1 $745 -50.273751029999694 $463 -44.912734460298324 $634 $746 forward 7 unknown #
point $-1 44.912734460298324 29.138891329284068 7.694723315959024 #
point $-1 44.912734460298324 16.873439987724982 7.694723315959024 #
edge $-1 $747 1 $747 0 $466 $-1 forward 7 unknown #
vertex $-1 $467 $748 #
ellipse-curve $-1 45.872690944375428 23.006165658504525 2.6618173319318172 0.81915205242281985 0 0.57357642473473569 0.57357642473473569 0 -0.81915205242281985 1 I I #
point $-1 48.166819169883752 23.006165658504525 3.0474085839294034 #
plane-surface $-1 50.273751029999694 0 0 -1 0 0 0 0 1 forward_v I I I I #
coedge $-1 $475 $473 $477 $652 reversed $321 $-1 #
edge $-1 $488 -7.6947233159590196 $654 7.6947233159590196 $487 $749 forward 7 unknown #
vertex $-1 $652 $750 #
straight-curve $-1 -50.273751029999694 -29.138891329284068 0 0 0 -1 I I #
edge $-1 $650 -29.138891329284068 $654 29.138891329284068 $648 $751 forward 7 unknown #
straight-curve $-1 0 -29.138891329284068 -7.6947233159590196 -1 0 0 I I #
vertex $-1 $480 $752 #
straight-curve $-1 0 29.138891329284068 -7.6947233159590196 1 0 0 I I #
point $-1 50.273751029999694 29.138891329284068 -7.6947233159590196 #
point $-1 50.273751029999694 -29.138891329284068 -7.6947233159590196 #
straight-curve $-1 -50.273751029999694 0 7.6947233159590196 0 -1 0 I I #
point $-1 -50.273751029999694 29.138891329284068 7.6947233159590196 #
point $-1 -50.273751029999694 -29.138891329284068 7.6947233159590196 #
straight-curve $-1 50.273751029999694 -29.138891329284068 0 0 0 -1 I I #
straight-curve $-1 50.273751029999694 29.138891329284068 0 0 0 -1 I I #
plane-surface $-1 50.273751029999694 0 0 -1 0 0 0 0 1 forward_v I I I I #
coedge $-1 $667 $500 $511 $676 forward $340 $-1 #
coedge $-1 $500 $667 $514 $678 reversed $340 $-1 #
straight-curve $-1 50.273751029999694 -21.994063511846381 -1.0062165580038838 0 0 1 I I #
coedge $-1 $665 $664 $503 $668 forward $340 $-1 #
edge $-1 $671 9.2108248015637688 $669 16.355652619001454 $667 $753 forward 7 unknown #
vertex $-1 $505 $754 #
straight-curve $-1 0 -29.138891329284068 -4.0240231119438175 1 0 0 I I #
vertex $-1 $668 $755 #
straight-curve $-1 0 -21.994063511846381 -4.0240231119438175 1 0 0 I I #
point $-1 50.273751029999694 -29.138891329284068 -4.0240231119438175 #
point $-1 50.273751029999694 -21.994063511846381 -4.0240231119438175 #
straight-curve $-1 -50.273751029999694 -12.783238710282612 -0.00084312007171716274 0 1 0 I I #
edge $-1 $512 -1.0053734379321666 $671 3.0178065539399337 $664 $756 forward 7 unknown #
point $-1 -50.273751029999694 -21.994063511846381 -0.00084312007171716274 #
edge $-1 $516 0.00084312007171716274 $669 4.0240231119438175 $665 $757 forward 7 unknown #
point $-1 -50.273751029999694 -29.138891329284068 -0.00084312007171716274 #
straight-curve $-1 50.273751029999694 -29.138891329284068 0 0 0 -1 I I #
edge $-1 $682 32.829974028305301 $685 38.707814920799379 $522 $758 forward 7 unknown #
vertex $-1 $536 $759 #
straight-curve $-1 -56.088487632432887 -11.347185124073352 7.6947233159590169 -1 0 0 I I #
edge $-1 $685 3.5473277525968827 $533 12.052386990356055 $532 $760 forward 7 unknown #
vertex $-1 $684 $761 #
straight-curve $-1 -50.273751029999687 -11.347185124073352 1.8168824234649463 0.78801074757464917 0 0.61566148304635926 I I #
point $-1 -42.750457916224818 -11.347185124073352 7.6947233159590196 #
point $-1 -50.273751029999694 -19.852244361832525 1.8168824234649408 #
straight-curve $-1 -50.273751029999694 0 7.6947233159590196 0 -1 0 I I #
vertex $-1 $539 $762 #
point $-1 -44.496453417322556 -17.422227436758476 3.8001564446485916 #
vertex $-1 $543 $763 #
point $-1 -44.496453417322556 -13.777202049147402 3.8001564446485916 #
coedge $-1 $558 $557 $550 $695 forward $547 $-1 #
edge $-1 $696 32.829974028305301 $699 38.707814920799379 $694 $764 forward 7 unknown #
vertex $-1 $562 $765 #
straight-curve $-1 -56.088487632432887 1.43605358620926 7.6947233159590169 -1 0 0 I I #
edge $-1 $699 -2.8442916025444234 $559 5.66076763521475 $558 $766 forward 7 unknown #
vertex $-1 $698 $767 #
straight-curve $-1 -50.273751029999687 1.43605358620926 1.8168824234649463 0.78801074757464917 0 0.61566148304635926 I I #
point $-1 -42.750457916224818 1.43605358620926 7.6947233159590196 #
point $-1 -50.273751029999694 -7.0690056515499133 1.8168824234649408 #
straight-curve $-1 -50.273751029999694 0 7.6947233159590196 0 -1 0 I I #
vertex $-1 $565 $768 #
point $-1 -44.496453417322556 -4.638988726475862 3.8001564446485916 #
vertex $-1 $569 $769 #
point $-1 -44.496453417322556 -0.99396333886479127 3.8001564446485916 #
coedge $-1 $584 $583 $576 $709 forward $573 $-1 #
edge $-1 $710 32.829974028305301 $713 38.707814920799379 $708 $770 forward 7 unknown #
vertex $-1 $588 $771 #
straight-curve $-1 -56.088487632432887 14.21929229649187 7.6947233159590169 -1 0 0 I I #
edge $-1 $713 -9.2359109576857286 $585 -0.73085171992655518 $584 $772 forward 7 unknown #
vertex $-1 $712 $773 #
straight-curve $-1 -50.273751029999687 14.21929229649187 1.8168824234649463 0.78801074757464917 0 0.61566148304635926 I I #
point $-1 -42.750457916224818 14.21929229649187 7.6947233159590196 #
point $-1 -50.273751029999694 5.714233058732697 1.8168824234649408 #
straight-curve $-1 -50.273751029999694 0 7.6947233159590196 0 -1 0 I I #
vertex $-1 $591 $774 #
point $-1 -44.496453417322556 8.1442499838067484 3.8001564446485916 #
vertex $-1 $595 $775 #
point $-1 -44.496453417322556 11.789275371417819 3.8001564446485916 #
coedge $-1 $610 $609 $602 $723 forward $599 $-1 #
edge $-1 $724 32.829974028305301 $727 38.707814920799379 $722 $776 forward 7 unknown #
vertex $-1 $614 $777 #
straight-curve $-1 -56.088487632432887 27.002531006774483 7.6947233159590169 -1 0 0 I I #
edge $-1 $727 -15.627530312827036 $611 -7.1224710750678586 $610 $778 forward 7 unknown #
vertex $-1 $726 $779 #
straight-curve $-1 -50.273751029999687 27.002531006774483 1.8168824234649463 0.78801074757464917 0 0.61566148304635926 I I #
point $-1 -42.750457916224818 27.002531006774483 7.6947233159590196 #
point $-1 -50.273751029999694 18.497471769015306 1.8168824234649408 #
straight-curve $-1 -50.273751029999694 0 7.6947233159590196 0 -1 0 I I #
vertex $-1 $617 $780 #
point $-1 -44.496453417322556 20.927488694089359 3.8001564446485916 #
vertex $-1 $621 $781 #
point $-1 -44.496453417322556 24.57251408170043 3.8001564446485916 #
coedge $-1 $737 $627 $635 $742 reversed $452 $-1 #
coedge $-1 $628 $736 $630 $739 reversed $452 $-1 #
straight-curve $-1 50.273751029999694 16.873439987724982 70.036883691382272 0 0 -1 I I #
edge $-1 $631 16.873439987724982 $745 29.138891329284068 $737 $782 forward 7 unknown #
point $-1 50.273751029999694 16.873439987724982 7.6947233159590196 #
straight-curve $-1 50.273751029999701 11.503082829252262 0.038397956745420458 0 1 0 I I #
edge $-1 $745 -7.6947233159590196 $636 -0.038397956745427564 $736 $783 forward 7 unknown #
point $-1 50.273751029999694 29.138891329284068 0.038397956745427564 #
point $-1 50.273751029999694 16.873439987724982 0.038397956745427564 #
vertex $-1 $739 $784 #
straight-curve $-1 0 29.138891329284068 7.6947233159590196 -1 0 0 I I #
vertex $-1 $643 $785 #
point $-1 46.44626736911016 23.006165658504525 1.8426652795089975 #
straight-curve $-1 -50.273751029999694 29.138891329284068 0 0 0 -1 I I #
point $-1 -50.273751029999694 -29.138891329284068 -7.6947233159590196 #
straight-curve $-1 -50.273751029999694 0 -7.6947233159590196 0 1 0 I I #
point $-1 -50.273751029999694 29.138891329284068 -7.6947233159590196 #
straight-curve $-1 -50.273751029999694 -12.783238710282612 -4.0240231119438175 0 -1 0 I I #
point $-1 -50.273751029999694 -29.138891329284068 -4.0240231119438175 #
point $-1 -50.273751029999694 -21.994063511846381 -4.0240231119438175 #
straight-curve $-1 -50.273751029999694 -21.994063511846381 -1.0062165580038838 0 0 -1 I I #
straight-curve $-1 -50.273751029999694 -29.138891329284068 0 0 0 -1 I I #
straight-curve $-1 -50.273751029999694 -11.347185124073352 40.524697344264318 0 0 -1 I I #
point $-1 -50.273751029999694 -11.347185124073352 7.6947233159590196 #
straight-curve $-1 -50.273751029999694 -7.7998573714764694 1.8168824234649394 0 -1 0 I I #
point $-1 -50.273751029999694 -11.347185124073352 1.8168824234649408 #
point $-1 -44.668802681850849 -17.422227436758476 2.3964842140275833 #
point $-1 -44.668802681850849 -13.777202049147402 2.3964842140275833 #
straight-curve $-1 -50.273751029999694 1.43605358620926 40.524697344264318 0 0 -1 I I #
point $-1 -50.273751029999694 1.43605358620926 7.6947233159590196 #
straight-curve $-1 -50.273751029999694 -1.4082380163351633 1.8168824234649394 0 -1 0 I I #
point $-1 -50.273751029999694 1.43605358620926 1.8168824234649408 #
point $-1 -44.668802681850849 -4.638988726475862 2.3964842140275833 #
point $-1 -44.668802681850849 -0.99396333886479127 2.3964842140275833 #
straight-curve $-1 -50.273751029999694 14.21929229649187 40.524697344264318 0 0 -1 I I #
point $-1 -50.273751029999694 14.21929229649187 7.6947233159590196 #
straight-curve $-1 -50.273751029999694 4.9833813388061419 1.8168824234649394 0 -1 0 I I #
point $-1 -50.273751029999694 14.21929229649187 1.8168824234649408 #
point $-1 -44.668802681850849 8.1442499838067484 2.3964842140275833 #
point $-1 -44.668802681850849 11.789275371417819 2.3964842140275833 #
straight-curve $-1 -50.273751029999694 27.002531006774483 40.524697344264318 0 0 -1 I I #
point $-1 -50.273751029999694 27.002531006774483 7.6947233159590196 #
straight-curve $-1 -50.273751029999694 11.375000693947447 1.8168824234649394 0 -1 0 I I #
point $-1 -50.273751029999694 27.002531006774483 1.8168824234649408 #
point $-1 -44.668802681850849 20.927488694089359 2.3964842140275833 #
point $-1 -44.668802681850849 24.57251408170043 2.3964842140275833 #
straight-curve $-1 50.273751029999694 0 7.6947233159590196 0 1 0 I I #
straight-curve $-1 50.273751029999694 29.138891329284068 0 0 0 -1 I I #
point $-1 50.273751029999694 29.138891329284068 7.6947233159590196 #
point $-1 45.053538891952606 23.006165658504525 2.0882409071970818 #
End-of-ACIS-data 