500 0 3 0           
7 Unknown 11 ACIS 5.0 NT 24 Thu Mar 25 21:18:11 1999 
-1 9.9999999999999995e-007 1e-010 
body $-1 $3 $-1 $4 #
body $-1 $5 $-1 $6 #
body $-1 $7 $-1 $8 #
lump $-1 $-1 $9 $0 #
transform $-1 1 0 0 0 1 0 0 0 1 52.151249732963045 26.095997070118774 11.32655630149935 1 rotate no_reflect no_shear #
lump $-1 $-1 $10 $1 #
transform $-1 1 0 0 0 1 0 0 0 1 52.151249732963045 26.095997070118774 11.32655630149935 1 rotate no_reflect no_shear #
lump $-1 $-1 $11 $2 #
transform $-1 1 0 0 0 1 0 0 0 1 52.151249732963045 26.095997070118774 11.32655630149935 1 rotate no_reflect no_shear #
shell $-1 $-1 $-1 $12 $-1 $3 #
shell $-1 $-1 $-1 $13 $-1 $5 #
shell $-1 $-1 $-1 $14 $-1 $7 #
face $-1 $15 $16 $9 $-1 $17 forward single #
face $-1 $18 $19 $10 $-1 $20 forward single #
face $-1 $21 $22 $11 $-1 $23 reversed single #
face $-1 $24 $25 $9 $-1 $26 reversed single #
loop $-1 $-1 $27 $12 #
plane-surface $-1 0 0 11.32655630149935 0 0 1 1 0 0 forward_v I I I I #
face $-1 $28 $29 $10 $-1 $30 reversed single #
loop $-1 $-1 $31 $13 #
plane-surface $-1 0 -26.095997070118774 0 0 1 0 0 0 1 forward_v I I I I #
face $-1 $32 $33 $11 $-1 $34 reversed single #
loop $-1 $-1 $35 $14 #
plane-surface $-1 0 20.502184685363826 7.8834795261853312 0 0 1 1 0 0 forward_v I I I I #
face $-1 $36 $37 $9 $-1 $38 reversed single #
loop $-1 $-1 $39 $15 #
plane-surface $-1 0 0 -11.32655630149935 0 0 1 1 0 0 forward_v I I I I #
coedge $-1 $40 $41 $42 $43 forward $16 $-1 #
face $-1 $44 $45 $10 $-1 $46 reversed single #
loop $-1 $-1 $47 $18 #
plane-surface $-1 0 0 -11.32655630149935 0 0 1 1 0 0 forward_v I I I I #
coedge $-1 $48 $49 $50 $51 forward $19 $-1 #
face $-1 $52 $53 $11 $-1 $54 reversed single #
loop $-1 $-1 $55 $21 #
plane-surface $-1 0 14.908372300608882 9.6050179138423406 0 1 0 0 0 1 forward_v I I I I #
coedge $-1 $56 $57 $58 $59 reversed $22 $-1 #
face $-1 $60 $61 $9 $-1 $62 reversed single #
loop $-1 $-1 $63 $24 #
plane-surface $-1 0 -26.095997070118774 0 0 1 0 0 0 1 forward_v I I I I #
coedge $-1 $64 $65 $66 $67 forward $25 $-1 #
coedge $-1 $68 $27 $69 $70 forward $16 $-1 #
coedge $-1 $27 $68 $71 $72 forward $16 $-1 #
coedge $-1 $73 $74 $27 $43 reversed $75 $-1 #
edge $-1 $76 -26.095997070118774 $77 26.095997070118774 $42 $78 forward 7 unknown #
face $-1 $79 $80 $10 $-1 $81 forward single #
loop $-1 $-1 $82 $28 #
plane-surface $-1 52.151249732963045 0 0 -1 0 0 0 0 1 forward_v I I I I #
coedge $-1 $83 $84 $85 $86 forward $29 $-1 #
coedge $-1 $85 $31 $82 $87 reversed $19 $-1 #
coedge $-1 $31 $85 $88 $89 reversed $19 $-1 #
coedge $-1 $90 $91 $31 $51 reversed $80 $-1 #
edge $-1 $92 -52.151249732963045 $93 52.151249732963045 $50 $94 forward 7 unknown #
face $-1 $95 $96 $11 $-1 $97 reversed single #
loop $-1 $-1 $98 $32 #
plane-surface $-1 0 26.095997070118774 0 0 -1 0 0 0 -1 forward_v I I I I #
coedge $-1 $99 $100 $101 $102 reversed $33 $-1 #
coedge $-1 $103 $35 $99 $104 forward $22 $-1 #
coedge $-1 $35 $103 $98 $105 reversed $22 $-1 #
coedge $-1 $106 $107 $35 $59 forward $108 $-1 #
edge $-1 $109 4.6572799579269688 $110 15.844904727436857 $58 $111 forward 7 unknown #
face $-1 $112 $113 $9 $-1 $114 reversed single #
loop $-1 $-1 $115 $36 #
plane-surface $-1 -52.151249732963045 0 0 1 0 0 0 0 -1 forward_v I I I I #
coedge $-1 $71 $116 $73 $117 reversed $37 $-1 #
coedge $-1 $118 $39 $116 $119 forward $25 $-1 #
coedge $-1 $39 $118 $120 $121 forward $25 $-1 #
coedge $-1 $74 $73 $39 $67 reversed $75 $-1 #
edge $-1 $122 -26.095997070118774 $123 26.095997070118774 $66 $124 forward 7 unknown #
coedge $-1 $41 $40 $125 $126 forward $16 $-1 #
coedge $-1 $127 $128 $40 $70 reversed $113 $-1 #
edge $-1 $77 -52.151249732963045 $129 52.151249732963045 $69 $130 forward 7 unknown #
coedge $-1 $131 $63 $41 $72 reversed $37 $-1 #
edge $-1 $132 -52.151249732963045 $76 52.151249732963045 $71 $133 forward 7 unknown #
coedge $-1 $66 $42 $63 $117 forward $75 $-1 #
coedge $-1 $42 $66 $127 $134 reversed $75 $-1 #
loop $-1 $-1 $73 $112 #
vertex $-1 $43 $135 #
vertex $-1 $43 $136 #
straight-curve $-1 52.151249732963045 0 11.32655630149935 0 1 0 I I #
face $-1 $137 $138 $10 $-1 $139 reversed single #
loop $-1 $-1 $91 $44 #
plane-surface $-1 0 -33.151058621819985 -4.797894267550002 0 0 1 1 0 0 forward_v I I I I #
coedge $-1 $140 $141 $48 $87 forward $45 $-1 #
coedge $-1 $142 $47 $141 $143 forward $29 $-1 #
coedge $-1 $47 $142 $144 $145 forward $29 $-1 #
coedge $-1 $49 $48 $47 $86 reversed $19 $-1 #
edge $-1 $146 -52.151249732963045 $147 52.151249732963045 $47 $148 forward 7 unknown #
edge $-1 $147 -11.32655630149935 $93 -4.797894267550002 $82 $149 forward 7 unknown #
coedge $-1 $144 $150 $49 $89 forward $151 $-1 #
edge $-1 $92 4.797894267550002 $146 11.32655630149935 $88 $152 forward 7 unknown #
coedge $-1 $153 $50 $150 $154 forward $80 $-1 #
coedge $-1 $50 $153 $140 $155 forward $80 $-1 #
vertex $-1 $89 $156 #
vertex $-1 $155 $157 #
straight-curve $-1 0 -26.095997070118774 -4.797894267550002 1 0 0 I I #
face $-1 $158 $159 $11 $-1 $160 forward single #
loop $-1 $-1 $161 $52 #
plane-surface $-1 -52.151249732963045 0 0 1 0 0 0 0 -1 forward_v I I I I #
coedge $-1 $162 $163 $57 $105 forward $53 $-1 #
coedge $-1 $164 $55 $56 $104 reversed $33 $-1 #
coedge $-1 $55 $164 $165 $166 reversed $33 $-1 #
coedge $-1 $167 $161 $55 $102 forward $96 $-1 #
edge $-1 $168 3.0809705692641609 $169 6.5240473445781797 $101 $170 forward 7 unknown #
coedge $-1 $57 $56 $161 $171 reversed $22 $-1 #
edge $-1 $109 -52.151249732963045 $168 52.151249732963045 $99 $172 forward 7 unknown #
edge $-1 $110 -52.151249732963045 $173 52.151249732963045 $98 $174 forward 7 unknown #
coedge $-1 $175 $58 $163 $176 reversed $108 $-1 #
coedge $-1 $58 $175 $164 $177 forward $108 $-1 #
loop $-1 $-1 $58 $158 #
vertex $-1 $59 $178 #
vertex $-1 $105 $179 #
straight-curve $-1 52.151249732963045 10.251092342681913 7.8834795261853312 0 1 0 I I #
face $-1 $-1 $75 $9 $-1 $180 reversed single #
loop $-1 $-1 $127 $60 #
plane-surface $-1 0 26.095997070118774 0 0 -1 0 0 0 -1 forward_v I I I I #
coedge $-1 $181 $125 $128 $182 forward $61 $-1 #
coedge $-1 $63 $131 $64 $119 reversed $37 $-1 #
edge $-1 $76 -11.32655630149935 $123 11.32655630149935 $73 $183 forward 7 unknown #
coedge $-1 $65 $64 $181 $184 forward $25 $-1 #
edge $-1 $123 -52.151249732963045 $185 52.151249732963045 $116 $186 forward 7 unknown #
coedge $-1 $128 $127 $65 $121 reversed $113 $-1 #
edge $-1 $187 -52.151249732963045 $122 52.151249732963045 $120 $188 forward 7 unknown #
vertex $-1 $67 $189 #
vertex $-1 $117 $190 #
straight-curve $-1 52.151249732963045 0 -11.32655630149935 0 -1 0 I I #
coedge $-1 $115 $191 $68 $126 reversed $61 $-1 #
edge $-1 $129 -26.095997070118774 $132 26.095997070118774 $125 $192 forward 7 unknown #
coedge $-1 $120 $69 $74 $134 forward $113 $-1 #
coedge $-1 $69 $120 $115 $182 reversed $113 $-1 #
vertex $-1 $70 $193 #
straight-curve $-1 0 26.095997070118774 11.32655630149935 -1 0 0 I I #
coedge $-1 $116 $71 $191 $194 forward $37 $-1 #
vertex $-1 $126 $195 #
straight-curve $-1 0 -26.095997070118774 11.32655630149935 1 0 0 I I #
edge $-1 $77 -11.32655630149935 $122 11.32655630149935 $74 $196 forward 7 unknown #
point $-1 52.151249732963045 -26.095997070118774 11.32655630149935 #
point $-1 52.151249732963045 26.095997070118774 11.32655630149935 #
face $-1 $-1 $151 $10 $-1 $197 reversed single #
loop $-1 $-1 $198 $79 #
plane-surface $-1 0 -40.206120173521192 -8.0622252845246756 0 1 0 0 0 1 forward_v I I I I #
coedge $-1 $199 $82 $91 $155 reversed $45 $-1 #
coedge $-1 $82 $199 $83 $143 reversed $45 $-1 #
coedge $-1 $84 $83 $200 $201 forward $29 $-1 #
edge $-1 $147 26.095997070118774 $202 40.206120173521192 $141 $203 forward 7 unknown #
coedge $-1 $204 $88 $84 $145 reversed $151 $-1 #
edge $-1 $205 -40.206120173521192 $146 -26.095997070118774 $144 $206 forward 7 unknown #
vertex $-1 $89 $207 #
vertex $-1 $143 $208 #
straight-curve $-1 0 -26.095997070118774 -11.32655630149935 1 0 0 I I #
straight-curve $-1 52.151249732963045 -26.095997070118774 0 0 0 1 I I #
coedge $-1 $88 $204 $90 $154 reversed $151 $-1 #
loop $-1 $-1 $88 $137 #
straight-curve $-1 -52.151249732963045 -26.095997070118774 0 0 0 -1 I I #
coedge $-1 $91 $90 $209 $210 forward $80 $-1 #
edge $-1 $92 -7.0550615517012076 $211 7.0550615517012076 $150 $212 forward 7 unknown #
edge $-1 $213 -7.0550615517012076 $93 7.0550615517012076 $140 $214 forward 7 unknown #
point $-1 -52.151249732963045 -26.095997070118777 -4.797894267550002 #
point $-1 52.151249732963045 -26.095997070118777 -4.797894267550002 #
face $-1 $-1 $108 $11 $-1 $215 reversed single #
loop $-1 $-1 $165 $95 #
plane-surface $-1 0 0 11.32655630149935 0 0 1 1 0 0 forward_v I I I I #
coedge $-1 $101 $216 $103 $171 forward $96 $-1 #
coedge $-1 $217 $98 $216 $218 reversed $53 $-1 #
coedge $-1 $98 $217 $106 $176 forward $53 $-1 #
coedge $-1 $100 $99 $107 $177 reversed $33 $-1 #
coedge $-1 $219 $220 $100 $166 forward $159 $-1 #
edge $-1 $169 -52.151249732963045 $221 52.151249732963045 $165 $222 forward 7 unknown #
coedge $-1 $216 $101 $220 $223 reversed $96 $-1 #
vertex $-1 $171 $224 #
vertex $-1 $102 $225 #
straight-curve $-1 -52.151249732963045 14.908372300608882 4.8025089569211703 0 0 1 I I #
edge $-1 $173 -15.844904727436857 $168 -4.6572799579269688 $161 $226 forward 7 unknown #
straight-curve $-1 0 14.908372300608882 7.8834795261853312 -1 0 0 I I #
vertex $-1 $105 $227 #
straight-curve $-1 0 26.095997070118774 7.8834795261853312 -1 0 0 I I #
coedge $-1 $107 $106 $219 $228 reversed $108 $-1 #
edge $-1 $229 -11.32655630149935 $110 -7.8834795261853312 $106 $230 forward 7 unknown #
edge $-1 $221 -6.5240473445781797 $109 -3.0809705692641609 $107 $231 forward 7 unknown #
point $-1 52.151249732963045 14.908372300608882 7.8834795261853312 #
point $-1 52.151249732963045 26.09599707011877 7.8834795261853312 #
plane-surface $-1 52.151249732963045 0 0 -1 0 0 0 0 1 forward_v I I I I #
coedge $-1 $191 $115 $118 $184 reversed $61 $-1 #
edge $-1 $129 -11.32655630149935 $187 11.32655630149935 $128 $232 forward 7 unknown #
straight-curve $-1 52.151249732963045 -26.095997070118774 0 0 0 -1 I I #
edge $-1 $185 -26.095997070118774 $187 26.095997070118774 $181 $233 forward 7 unknown #
vertex $-1 $184 $234 #
straight-curve $-1 0 -26.095997070118774 -11.32655630149935 -1 0 0 I I #
vertex $-1 $121 $235 #
straight-curve $-1 0 26.095997070118774 -11.32655630149935 1 0 0 I I #
point $-1 52.151249732963045 26.095997070118774 -11.32655630149935 #
point $-1 52.151249732963045 -26.095997070118774 -11.32655630149935 #
coedge $-1 $125 $181 $131 $194 reversed $61 $-1 #
straight-curve $-1 -52.151249732963045 0 11.32655630149935 0 -1 0 I I #
point $-1 -52.151249732963045 26.095997070118774 11.32655630149935 #
edge $-1 $132 -11.32655630149935 $185 11.32655630149935 $191 $236 forward 7 unknown #
point $-1 -52.151249732963045 -26.095997070118774 11.32655630149935 #
straight-curve $-1 52.151249732963045 26.095997070118774 0 0 0 -1 I I #
plane-surface $-1 -52.151249732963045 0 0 1 0 0 0 0 -1 forward_v I I I I #
coedge $-1 $200 $209 $204 $237 forward $138 $-1 #
coedge $-1 $141 $140 $238 $239 forward $45 $-1 #
coedge $-1 $238 $198 $142 $201 reversed $138 $-1 #
edge $-1 $202 -52.151249732963045 $205 52.151249732963045 $200 $240 forward 7 unknown #
vertex $-1 $239 $241 #
straight-curve $-1 52.151249732963045 0 -11.32655630149935 0 -1 0 I I #
coedge $-1 $150 $144 $198 $237 reversed $151 $-1 #
vertex $-1 $145 $242 #
straight-curve $-1 -52.151249732963045 0 -11.32655630149935 0 1 0 I I #
point $-1 -52.151249732963045 -26.095997070118774 -11.32655630149935 #
point $-1 52.151249732963045 -26.095997070118774 -11.32655630149935 #
coedge $-1 $198 $238 $153 $210 reversed $138 $-1 #
edge $-1 $211 -52.151249732963045 $213 52.151249732963045 $209 $243 forward 7 unknown #
vertex $-1 $154 $244 #
straight-curve $-1 -52.151249732963045 -33.151058621819985 -4.797894267550002 0 -1 0 I I #
vertex $-1 $155 $245 #
straight-curve $-1 52.151249732963045 -33.151058621819985 -4.797894267550002 0 1 0 I I #
plane-surface $-1 52.151249732963045 0 0 -1 0 0 0 0 1 forward_v I I I I #
coedge $-1 $161 $167 $162 $218 forward $96 $-1 #
coedge $-1 $163 $162 $246 $247 reversed $53 $-1 #
edge $-1 $248 -11.32655630149935 $173 -7.8834795261853312 $162 $249 forward 7 unknown #
coedge $-1 $246 $165 $175 $228 forward $159 $-1 #
coedge $-1 $165 $246 $167 $223 forward $159 $-1 #
vertex $-1 $228 $250 #
straight-curve $-1 0 14.908372300608882 11.32655630149935 1 0 0 I I #
edge $-1 $248 -26.095997070118774 $169 -14.908372300608882 $167 $251 forward 7 unknown #
point $-1 -52.151249732963045 14.908372300608882 7.8834795261853312 #
point $-1 -52.151249732963045 14.908372300608882 11.32655630149935 #
straight-curve $-1 -52.151249732963045 10.251092342681913 7.8834795261853312 0 -1 0 I I #
point $-1 -52.151249732963045 26.09599707011877 7.8834795261853312 #
edge $-1 $221 14.908372300608882 $229 26.095997070118774 $175 $252 forward 7 unknown #
vertex $-1 $228 $253 #
straight-curve $-1 52.151249732963045 26.095997070118774 0 0 0 -1 I I #
straight-curve $-1 52.151249732963045 14.908372300608882 4.8025089569211703 0 0 -1 I I #
straight-curve $-1 -52.151249732963045 26.095997070118774 0 0 0 -1 I I #
straight-curve $-1 -52.151249732963045 0 -11.32655630149935 0 1 0 I I #
point $-1 -52.151249732963045 -26.095997070118774 -11.32655630149935 #
point $-1 -52.151249732963045 26.095997070118774 -11.32655630149935 #
straight-curve $-1 -52.151249732963045 -26.095997070118774 0 0 0 -1 I I #
edge $-1 $211 -3.2643310169746735 $205 3.2643310169746727 $204 $254 forward 7 unknown #
coedge $-1 $209 $200 $199 $239 reversed $138 $-1 #
edge $-1 $213 -3.2643310169746735 $202 3.2643310169746727 $199 $255 forward 7 unknown #
straight-curve $-1 0 -40.206120173521192 -11.326556301499348 -1 0 0 I I #
point $-1 52.151249732963045 -40.206120173521192 -11.326556301499348 #
point $-1 -52.151249732963045 -40.206120173521192 -11.326556301499348 #
straight-curve $-1 0 -40.206120173521192 -4.797894267550002 1 0 0 I I #
point $-1 -52.151249732963045 -40.206120173521192 -4.797894267550002 #
point $-1 52.151249732963045 -40.206120173521192 -4.797894267550002 #
coedge $-1 $220 $219 $217 $247 forward $159 $-1 #
edge $-1 $229 -52.151249732963045 $248 52.151249732963045 $217 $256 forward 7 unknown #
vertex $-1 $247 $257 #
straight-curve $-1 -52.151249732963045 26.095997070118774 0 0 0 -1 I I #
point $-1 52.151249732963045 14.908372300608882 11.32655630149935 #
straight-curve $-1 -52.151249732963045 0 11.32655630149935 0 -1 0 I I #
straight-curve $-1 52.151249732963045 0 11.32655630149935 0 1 0 I I #
point $-1 52.151249732963045 26.095997070118774 11.32655630149935 #
straight-curve $-1 -52.151249732963045 -40.206120173521192 -8.0622252845246756 0 0 -1 I I #
straight-curve $-1 52.151249732963045 -40.206120173521192 -8.0622252845246756 0 0 -1 I I #
straight-curve $-1 0 26.095997070118774 11.32655630149935 -1 0 0 I I #
point $-1 -52.151249732963045 26.095997070118774 11.32655630149935 #
End-of-ACIS-data 