500 0 7 0           
7 Unknown 11 ACIS 5.0 NT 24 Fri Mar 26 19:15:51 1999 
-1 9.9999999999999995e-007 1e-010 
body $-1 $7 $-1 $8 #
body $-1 $9 $-1 $10 #
body $-1 $11 $-1 $12 #
body $-1 $13 $-1 $14 #
body $-1 $15 $-1 $16 #
body $-1 $17 $-1 $18 #
body $-1 $19 $-1 $20 #
lump $-1 $-1 $21 $0 #
transform $-1 1 0 0 0 1 0 0 0 1 64.311044648579369 31.319225558496061 11.333493610562799 1 rotate no_reflect no_shear #
lump $-1 $-1 $22 $1 #
transform $-1 1 0 0 0 1 0 0 0 1 64.311044648579369 31.319225558496061 11.333493610562799 1 rotate no_reflect no_shear #
lump $-1 $-1 $23 $2 #
transform $-1 1 0 0 0 1 0 0 0 1 64.311044648579369 31.319225558496061 11.333493610562799 1 rotate no_reflect no_shear #
lump $-1 $-1 $24 $3 #
transform $-1 1 0 0 0 1 0 0 0 1 64.311044648579369 31.319225558496061 11.333493610562799 1 rotate no_reflect no_shear #
lump $-1 $-1 $25 $4 #
transform $-1 1 0 0 0 1 0 0 0 1 64.311044648579369 31.319225558496061 11.333493610562799 1 rotate no_reflect no_shear #
lump $-1 $-1 $26 $5 #
transform $-1 1 0 0 0 1 0 0 0 1 64.311044648579369 31.319225558496061 11.333493610562799 1 rotate no_reflect no_shear #
lump $-1 $-1 $27 $6 #
transform $-1 1 0 0 0 1 0 0 0 1 64.311044648579369 31.319225558496061 11.333493610562799 1 rotate no_reflect no_shear #
shell $-1 $-1 $-1 $28 $-1 $7 #
shell $-1 $-1 $-1 $29 $-1 $9 #
shell $-1 $-1 $-1 $30 $-1 $11 #
shell $-1 $-1 $-1 $31 $-1 $13 #
shell $-1 $-1 $-1 $32 $-1 $15 #
shell $-1 $-1 $-1 $33 $-1 $17 #
shell $-1 $-1 $-1 $34 $-1 $19 #
face $-1 $35 $36 $21 $-1 $37 forward single #
face $-1 $38 $39 $22 $-1 $40 forward single #
face $-1 $41 $42 $23 $-1 $43 reversed single #
face $-1 $44 $45 $24 $-1 $46 reversed single #
face $-1 $47 $48 $25 $-1 $49 forward single #
face $-1 $50 $51 $26 $-1 $52 reversed single #
face $-1 $53 $54 $27 $-1 $55 forward single #
face $-1 $56 $57 $21 $-1 $58 reversed single #
loop $-1 $-1 $59 $28 #
plane-surface $-1 0 0 11.333493610562799 0 0 1 1 0 0 forward_v I I I I #
face $-1 $60 $61 $22 $-1 $62 forward single #
loop $-1 $-1 $63 $29 #
plane-surface $-1 0 -31.319225558496061 0 0 1 0 0 0 1 forward_v I I I I #
face $-1 $64 $65 $23 $-1 $66 reversed single #
loop $-1 $-1 $67 $30 #
plane-surface $-1 0 26.265525743944163 5.1291434507204787 0 0 1 1 0 0 forward_v I I I I #
face $-1 $68 $69 $24 $-1 $70 reversed single #
loop $-1 $-1 $71 $31 #
plane-surface $-1 42.143122156122047 11.373340410510981 187.9705857627782 0 -1 0 -0.61566148304635926 0 -0.78801074757464917 forward_v I I I I #
face $-1 $72 $73 $25 $-1 $74 forward single #
loop $-1 $75 $76 $32 #
cone-surface $-1 60.73994621295396 7.210024930438852 8.0092513654515471 -0.61566148304635926 0 -0.78801074757464917 0.78801074757464917 0 -0.61566148304635926 1 I I 0 1 1 forward I I I I #
face $-1 $77 $78 $26 $-1 $79 reversed single #
loop $-1 $-1 $80 $33 #
plane-surface $-1 -143.49871089778938 3.0467094503667234 108.78291951356823 0 1 0 -0.61566148304635926 0 0.78801074757464917 forward_v I I I I #
face $-1 $81 $82 $27 $-1 $83 forward single #
loop $-1 $84 $85 $34 #
cone-surface $-1 -60.739946212953953 7.210024930438852 8.0092513654515578 0.61566148304635926 0 -0.78801074757464917 0.78801074757464917 0 0.61566148304635926 1 I I 0 1 1 forward I I I I #
face $-1 $86 $87 $21 $-1 $88 reversed single #
loop $-1 $-1 $89 $35 #
plane-surface $-1 0 0 -11.333493610562799 0 0 1 1 0 0 forward_v I I I I #
coedge $-1 $90 $91 $92 $93 forward $36 $-1 #
face $-1 $94 $95 $22 $-1 $96 reversed single #
loop $-1 $-1 $97 $38 #
plane-surface $-1 0 0 11.333493610562799 0 0 1 1 0 0 forward_v I I I I #
coedge $-1 $98 $99 $100 $101 forward $39 $-1 #
face $-1 $102 $103 $23 $-1 $104 reversed single #
loop $-1 $-1 $105 $41 #
plane-surface $-1 0 21.211825929392269 8.231318530641639 0 1 0 0 0 1 forward_v I I I I #
coedge $-1 $106 $107 $108 $109 reversed $42 $-1 #
face $-1 $110 $111 $24 $-1 $112 reversed single #
loop $-1 $-1 $113 $44 #
plane-surface $-1 -37.04454409308795 7.210024930438852 86.614997021110867 0.61566148304635926 0 0.78801074757464917 0.78801074757464917 0 -0.61566148304635926 forward_v I I I I #
coedge $-1 $114 $115 $116 $117 reversed $45 $-1 #
face $-1 $-1 $118 $25 $-1 $119 forward single #
loop $-1 $120 $121 $47 #
cone-surface $-1 59.360847204984978 7.210024930438852 6.2440851658839431 -0.61566148304635926 0 -0.78801074757464917 0.39400537378732459 0 -0.30783074152317963 1 I I -0.70710678118654746 0.70710678118654746 0.5 forward I I I I #
loop $-1 $-1 $122 $32 #
coedge $-1 $76 $76 $123 $124 reversed $48 $-1 #
face $-1 $125 $126 $26 $-1 $127 reversed single #
loop $-1 $-1 $128 $50 #
plane-surface $-1 -64.311044648579383 7.210024930438852 7.4273307719008983 -0.61566148304635926 0 0.78801074757464917 0.78801074757464917 0 0.61566148304635926 forward_v I I I I #
coedge $-1 $129 $130 $131 $132 reversed $51 $-1 #
face $-1 $-1 $133 $27 $-1 $134 forward single #
loop $-1 $135 $136 $53 #
cone-surface $-1 -59.360847204984971 7.210024930438852 6.2440851658839538 0.61566148304635926 0 -0.78801074757464917 0.39400537378732459 0 0.30783074152317963 1 I I -0.70710678118654746 0.70710678118654746 0.5 forward I I I I #
loop $-1 $-1 $137 $34 #
coedge $-1 $85 $85 $138 $139 reversed $54 $-1 #
face $-1 $140 $141 $21 $-1 $142 reversed single #
loop $-1 $-1 $143 $56 #
plane-surface $-1 0 -31.319225558496061 0 0 1 0 0 0 1 forward_v I I I I #
coedge $-1 $144 $145 $146 $147 forward $57 $-1 #
coedge $-1 $148 $59 $149 $150 forward $36 $-1 #
coedge $-1 $59 $148 $151 $152 forward $36 $-1 #
coedge $-1 $153 $154 $59 $93 reversed $155 $-1 #
edge $-1 $156 -31.319225558496061 $157 31.319225558496061 $92 $158 forward 7 unknown #
face $-1 $159 $160 $22 $-1 $161 reversed single #
loop $-1 $-1 $162 $60 #
plane-surface $-1 -64.311044648579369 0 0 1 0 0 0 0 -1 forward_v I I I I #
coedge $-1 $163 $164 $99 $165 forward $61 $-1 #
coedge $-1 $166 $63 $167 $168 reversed $39 $-1 #
coedge $-1 $63 $166 $97 $165 reversed $39 $-1 #
coedge $-1 $169 $170 $63 $101 reversed $171 $-1 #
edge $-1 $172 -11.333493610562799 $173 11.333493610562799 $100 $174 forward 7 unknown #
face $-1 $175 $176 $23 $-1 $177 reversed single #
loop $-1 $-1 $178 $64 #
plane-surface $-1 0 31.319225558496061 0 0 -1 0 0 0 -1 forward_v I I I I #
coedge $-1 $179 $180 $181 $182 reversed $65 $-1 #
coedge $-1 $183 $67 $179 $184 forward $42 $-1 #
coedge $-1 $67 $183 $178 $185 reversed $42 $-1 #
coedge $-1 $186 $187 $67 $109 forward $188 $-1 #
edge $-1 $189 8.0790630574201874 $190 18.186462686523974 $108 $191 forward 7 unknown #
face $-1 $192 $193 $24 $-1 $194 reversed single #
loop $-1 $-1 $195 $68 #
plane-surface $-1 42.143122156122047 3.0467094503667234 187.9705857627782 0 1 0 0.61566148304635926 0 0.78801074757464917 forward_v I I I I #
coedge $-1 $196 $197 $198 $199 reversed $69 $-1 #
coedge $-1 $115 $71 $200 $201 reversed $45 $-1 #
coedge $-1 $71 $114 $196 $202 reversed $45 $-1 #
coedge $-1 $198 $203 $71 $117 forward $204 $-1 #
edge $-1 $205 -43.239483570518345 $206 -38.239823232159139 $116 $207 forward 7 unknown #
loop $-1 $-1 $123 $72 #
plane-surface $-1 -37.04454409308795 7.210024930438852 86.614997021110867 0.61566148304635926 0 0.78801074757464917 0.78801074757464917 0 -0.61566148304635926 forward_v I I I I #
loop $-1 $-1 $208 $47 #
coedge $-1 $121 $121 $122 $209 reversed $73 $-1 #
coedge $-1 $122 $122 $121 $209 forward $75 $-1 #
coedge $-1 $123 $123 $76 $124 forward $118 $-1 #
edge $-1 $210 0 $210 6.2831853071796004 $123 $211 forward 7 unknown #
face $-1 $212 $213 $26 $-1 $214 forward single #
loop $-1 $-1 $215 $77 #
plane-surface $-1 -143.49871089778938 11.373340410510981 108.78291951356823 0 -1 0 0.61566148304635926 0 -0.78801074757464917 forward_v I I I I #
coedge $-1 $216 $217 $218 $219 reversed $78 $-1 #
coedge $-1 $130 $80 $220 $221 reversed $51 $-1 #
coedge $-1 $80 $129 $216 $222 reversed $51 $-1 #
coedge $-1 $218 $223 $80 $132 forward $213 $-1 #
edge $-1 $224 7.4383108003153211 $225 12.437971138674492 $131 $226 forward 7 unknown #
loop $-1 $-1 $138 $81 #
plane-surface $-1 -64.311044648579383 7.210024930438852 7.4273307719008983 -0.61566148304635926 0 0.78801074757464917 0.78801074757464917 0 0.61566148304635926 forward_v I I I I #
loop $-1 $-1 $227 $53 #
coedge $-1 $136 $136 $137 $228 reversed $82 $-1 #
coedge $-1 $137 $137 $136 $228 forward $84 $-1 #
coedge $-1 $138 $138 $85 $139 forward $133 $-1 #
edge $-1 $229 0 $229 6.2831853071796004 $138 $230 forward 7 unknown #
face $-1 $231 $232 $21 $-1 $233 reversed single #
loop $-1 $-1 $234 $86 #
plane-surface $-1 -64.311044648579369 0 0 1 0 0 0 0 -1 forward_v I I I I #
coedge $-1 $235 $151 $236 $237 forward $87 $-1 #
coedge $-1 $238 $89 $235 $239 forward $57 $-1 #
coedge $-1 $89 $238 $240 $241 forward $57 $-1 #
coedge $-1 $154 $153 $89 $147 reversed $155 $-1 #
edge $-1 $242 -31.319225558496061 $243 31.319225558496061 $146 $244 forward 7 unknown #
coedge $-1 $91 $90 $245 $246 forward $36 $-1 #
coedge $-1 $247 $248 $90 $150 reversed $232 $-1 #
edge $-1 $157 -64.311044648579369 $249 64.311044648579369 $149 $250 forward 7 unknown #
coedge $-1 $143 $251 $91 $152 reversed $87 $-1 #
edge $-1 $252 -64.311044648579369 $156 64.311044648579369 $151 $253 forward 7 unknown #
coedge $-1 $146 $92 $251 $254 forward $155 $-1 #
coedge $-1 $92 $146 $247 $255 reversed $155 $-1 #
loop $-1 $-1 $153 $231 #
vertex $-1 $93 $256 #
vertex $-1 $93 $257 #
straight-curve $-1 64.311044648579369 0 11.333493610562799 0 1 0 I I #
face $-1 $258 $171 $22 $-1 $259 reversed single #
loop $-1 $-1 $260 $94 #
plane-surface $-1 -62.811044648579369 -45.759411459177905 0 0 1 0 0 0 1 forward_v I I I I #
coedge $-1 $261 $262 $166 $263 forward $95 $-1 #
coedge $-1 $264 $97 $262 $265 forward $61 $-1 #
coedge $-1 $97 $264 $169 $266 forward $61 $-1 #
edge $-1 $172 61.311044648579369 $267 64.311044648579369 $97 $268 forward 7 unknown #
coedge $-1 $99 $98 $162 $263 reversed $39 $-1 #
coedge $-1 $269 $270 $98 $168 forward $271 $-1 #
edge $-1 $272 -64.311044648579369 $173 -61.311044648579369 $167 $273 forward 7 unknown #
coedge $-1 $274 $100 $164 $266 reversed $171 $-1 #
coedge $-1 $100 $274 $269 $275 reversed $171 $-1 #
loop $-1 $-1 $274 $159 #
vertex $-1 $165 $276 #
vertex $-1 $275 $277 #
straight-curve $-1 -61.311044648579369 -31.319225558496061 0 0 0 -1 I I #
face $-1 $278 $279 $23 $-1 $280 forward single #
loop $-1 $-1 $281 $102 #
plane-surface $-1 -64.311044648579369 0 0 1 0 0 0 0 -1 forward_v I I I I #
coedge $-1 $282 $283 $107 $185 forward $103 $-1 #
coedge $-1 $284 $105 $106 $184 reversed $65 $-1 #
coedge $-1 $105 $284 $285 $286 reversed $65 $-1 #
coedge $-1 $287 $281 $105 $182 forward $176 $-1 #
edge $-1 $288 1.0134841853996592 $289 7.2178343452419798 $181 $290 forward 7 unknown #
coedge $-1 $107 $106 $281 $291 reversed $42 $-1 #
edge $-1 $189 -64.311044648579369 $288 64.311044648579369 $179 $292 forward 7 unknown #
edge $-1 $190 -64.311044648579369 $293 64.311044648579369 $178 $294 forward 7 unknown #
coedge $-1 $295 $108 $283 $296 reversed $188 $-1 #
coedge $-1 $108 $295 $284 $297 forward $188 $-1 #
loop $-1 $-1 $108 $278 #
vertex $-1 $109 $298 #
vertex $-1 $185 $299 #
straight-curve $-1 64.311044648579369 13.132762871972082 5.1291434507204787 0 1 0 I I #
face $-1 $-1 $204 $24 $-1 $300 forward single #
loop $-1 $-1 $301 $110 #
plane-surface $-1 64.311044648579369 0 0 -1 0 0 0 0 1 forward_v I I I I #
coedge $-1 $302 $303 $304 $305 reversed $111 $-1 #
coedge $-1 $306 $113 $115 $202 forward $69 $-1 #
coedge $-1 $113 $306 $302 $307 forward $69 $-1 #
coedge $-1 $304 $116 $113 $199 forward $204 $-1 #
edge $-1 $206 -7.7683279452915546 $308 0.55830301485270262 $198 $309 forward 7 unknown #
coedge $-1 $310 $311 $114 $201 forward $193 $-1 #
edge $-1 $312 -86.557962109488216 $205 -82.651799270826302 $200 $313 forward 7 unknown #
edge $-1 $206 122.27742921003778 $312 128.62208929715871 $115 $314 forward 7 unknown #
coedge $-1 $116 $304 $310 $315 forward $204 $-1 #
loop $-1 $-1 $304 $192 #
vertex $-1 $201 $316 #
vertex $-1 $117 $317 #
straight-curve $-1 21.071561078061023 11.373340410510981 11.333493610562797 -1 0 0 I I #
coedge $-1 $208 $208 $-1 $318 reversed $120 $-1 #
edge $-1 $319 0 $319 6.2831853071796004 $121 $320 forward 7 unknown #
vertex $-1 $124 $321 #
ellipse-curve $-1 61.811214479399773 7.210024930438852 9.3804121912318372 0.61566148304635926 0 0.78801074757464917 0.78801074757464917 0 -0.61566148304635926 1 I I #
face $-1 $-1 $322 $26 $-1 $323 reversed single #
loop $-1 $-1 $131 $125 #
plane-surface $-1 0 0 11.333493610562799 0 0 1 1 0 0 forward_v I I I I #
coedge $-1 $324 $325 $326 $327 reversed $126 $-1 #
coedge $-1 $328 $128 $130 $222 forward $78 $-1 #
coedge $-1 $128 $328 $324 $329 forward $78 $-1 #
coedge $-1 $326 $131 $128 $219 forward $213 $-1 #
edge $-1 $225 -0.55830301485270262 $330 7.7683279452915546 $218 $331 forward 7 unknown #
coedge $-1 $332 $333 $129 $221 forward $322 $-1 #
edge $-1 $334 -46.964128984883203 $224 -43.057966146221318 $220 $335 forward 7 unknown #
edge $-1 $225 -6.3446600871209071 $334 -1.830693040787162e-014 $130 $336 forward 7 unknown #
coedge $-1 $131 $326 $332 $337 forward $213 $-1 #
vertex $-1 $132 $338 #
vertex $-1 $132 $339 #
straight-curve $-1 -71.74935544889469 3.0467094503667234 11.333493610562797 1 0 0 I I #
coedge $-1 $227 $227 $-1 $340 reversed $135 $-1 #
edge $-1 $341 0 $341 6.2831853071796004 $136 $342 forward 7 unknown #
vertex $-1 $139 $343 #
ellipse-curve $-1 -61.811214479399773 7.210024930438852 9.3804121912318603 -0.61566148304635926 0 0.78801074757464917 0.78801074757464917 0 0.61566148304635926 1 I I #
face $-1 $-1 $155 $21 $-1 $344 reversed single #
loop $-1 $-1 $247 $140 #
plane-surface $-1 0 31.319225558496061 0 0 -1 0 0 0 -1 forward_v I I I I #
coedge $-1 $345 $245 $248 $346 forward $141 $-1 #
coedge $-1 $251 $143 $144 $239 reversed $87 $-1 #
coedge $-1 $245 $345 $143 $237 reversed $141 $-1 #
edge $-1 $252 -11.333493610562799 $347 11.333493610562799 $236 $348 forward 7 unknown #
coedge $-1 $145 $144 $345 $349 forward $57 $-1 #
edge $-1 $243 -64.311044648579369 $347 64.311044648579369 $235 $350 forward 7 unknown #
coedge $-1 $248 $247 $145 $241 reversed $232 $-1 #
edge $-1 $351 -64.311044648579369 $242 64.311044648579369 $240 $352 forward 7 unknown #
vertex $-1 $147 $353 #
vertex $-1 $254 $354 #
straight-curve $-1 64.311044648579369 0 -11.333493610562799 0 -1 0 I I #
coedge $-1 $234 $236 $148 $246 reversed $141 $-1 #
edge $-1 $249 -31.319225558496061 $252 31.319225558496061 $245 $355 forward 7 unknown #
coedge $-1 $240 $149 $154 $255 forward $232 $-1 #
coedge $-1 $149 $240 $234 $346 reversed $232 $-1 #
vertex $-1 $150 $356 #
straight-curve $-1 0 31.319225558496061 11.333493610562799 -1 0 0 I I #
coedge $-1 $151 $235 $153 $254 reversed $87 $-1 #
vertex $-1 $246 $357 #
straight-curve $-1 0 -31.319225558496061 11.333493610562799 1 0 0 I I #
edge $-1 $156 -11.333493610562799 $243 11.333493610562799 $153 $358 forward 7 unknown #
edge $-1 $157 -11.333493610562799 $242 11.333493610562799 $154 $359 forward 7 unknown #
point $-1 64.311044648579369 -31.319225558496061 11.333493610562799 #
point $-1 64.311044648579369 31.319225558496061 11.333493610562799 #
face $-1 $-1 $271 $22 $-1 $360 reversed single #
plane-surface $-1 -61.311044648579369 -38.539318508836985 0 -1 0 0 0 0 1 forward_v I I I I #
coedge $-1 $361 $362 $363 $364 forward $160 $-1 #
coedge $-1 $363 $162 $270 $365 reversed $95 $-1 #
coedge $-1 $162 $363 $163 $265 reversed $95 $-1 #
edge $-1 $267 -11.333493610562799 $272 11.333493610562799 $162 $366 forward 7 unknown #
coedge $-1 $164 $163 $362 $367 forward $61 $-1 #
edge $-1 $267 31.319225558496061 $368 45.759411459177905 $262 $369 forward 7 unknown #
edge $-1 $370 -7.2200929503409199 $172 7.2200929503409199 $169 $371 forward 7 unknown #
vertex $-1 $265 $372 #
straight-curve $-1 0 -31.319225558496061 11.333493610562799 -1 0 0 I I #
coedge $-1 $373 $167 $170 $275 forward $271 $-1 #
coedge $-1 $167 $373 $261 $365 forward $271 $-1 #
loop $-1 $-1 $167 $258 #
vertex $-1 $263 $374 #
straight-curve $-1 0 -31.319225558496061 -11.333493610562799 1 0 0 I I #
coedge $-1 $170 $169 $375 $376 forward $171 $-1 #
edge $-1 $173 -7.2200929503409199 $377 7.2200929503409199 $170 $378 forward 7 unknown #
point $-1 -61.311044648579369 -31.319225558496065 11.333493610562799 #
point $-1 -61.311044648579369 -31.319225558496065 -11.333493610562799 #
face $-1 $-1 $188 $23 $-1 $379 reversed single #
loop $-1 $-1 $285 $175 #
plane-surface $-1 0 0 11.333493610562799 0 0 1 1 0 0 forward_v I I I I #
coedge $-1 $181 $380 $183 $291 forward $176 $-1 #
coedge $-1 $381 $178 $380 $382 reversed $103 $-1 #
coedge $-1 $178 $381 $186 $296 forward $103 $-1 #
coedge $-1 $180 $179 $187 $297 reversed $65 $-1 #
coedge $-1 $383 $384 $180 $286 forward $279 $-1 #
edge $-1 $289 -64.311044648579369 $385 64.311044648579369 $285 $386 forward 7 unknown #
coedge $-1 $380 $181 $384 $387 reversed $176 $-1 #
vertex $-1 $291 $388 #
vertex $-1 $182 $389 #
straight-curve $-1 -64.311044648579369 21.211825929392269 4.1156592653208195 0 0 1 I I #
edge $-1 $293 -18.186462686523974 $288 -8.0790630574201874 $281 $390 forward 7 unknown #
straight-curve $-1 0 21.211825929392269 5.1291434507204787 -1 0 0 I I #
vertex $-1 $291 $391 #
straight-curve $-1 0 31.319225558496061 5.1291434507204787 -1 0 0 I I #
coedge $-1 $187 $186 $383 $392 reversed $188 $-1 #
edge $-1 $393 -11.333493610562799 $190 -5.1291434507204787 $186 $394 forward 7 unknown #
edge $-1 $385 -7.2178343452419798 $189 -1.0134841853996592 $187 $395 forward 7 unknown #
point $-1 64.311044648579369 21.211825929392269 5.1291434507204787 #
point $-1 64.311044648579369 31.319225558496058 5.1291434507204787 #
plane-surface $-1 0 0 11.333493610562799 0 0 1 1 0 0 forward_v I I I I #
coedge $-1 $311 $310 $303 $396 forward $193 $-1 #
coedge $-1 $303 $195 $197 $307 reversed $111 $-1 #
coedge $-1 $195 $302 $301 $396 reversed $111 $-1 #
coedge $-1 $203 $198 $195 $305 forward $204 $-1 #
edge $-1 $308 38.239823232159139 $397 43.239483570518345 $304 $398 forward 7 unknown #
coedge $-1 $197 $196 $311 $399 reversed $69 $-1 #
edge $-1 $400 -128.62208929715871 $308 -122.27742921003778 $302 $401 forward 7 unknown #
vertex $-1 $199 $402 #
straight-curve $-1 59.311384310220177 3.605012465219426 11.33349361056279 0 -1 0 I I #
coedge $-1 $301 $200 $203 $315 reversed $193 $-1 #
coedge $-1 $200 $301 $306 $399 forward $193 $-1 #
vertex $-1 $201 $403 #
straight-curve $-1 64.311044648579369 11.373340410510981 93.9852928813891 0 0 1 I I #
straight-curve $-1 -37.04454409308795 11.373340410510981 86.614997021110867 0.78801074757464917 0 -0.61566148304635926 I I #
edge $-1 $397 3.0467094503667234 $205 11.373340410510981 $310 $404 forward 7 unknown #
point $-1 64.311044648579369 11.373340410510981 11.333493610562799 #
point $-1 59.311384310220163 11.373340410510981 11.333493610562797 #
edge $-1 $405 1 $405 0 $208 $-1 forward 7 unknown #
vertex $-1 $209 $406 #
ellipse-curve $-1 59.668677946508154 7.210024930438852 6.6380905396712677 0.61566148304635926 0 0.78801074757464917 0.78801074757464917 0 -0.61566148304635926 1 I I #
point $-1 62.599225226974418 7.210024930438852 8.764750708185467 #
loop $-1 $-1 $220 $212 #
plane-surface $-1 -64.311044648579369 0 0 1 0 0 0 0 -1 forward_v I I I I #
coedge $-1 $325 $215 $217 $329 reversed $126 $-1 #
coedge $-1 $215 $324 $407 $408 reversed $126 $-1 #
coedge $-1 $223 $218 $215 $327 forward $213 $-1 #
edge $-1 $330 -12.437971138674492 $409 -7.4383108003153211 $326 $410 forward 7 unknown #
coedge $-1 $217 $216 $333 $411 reversed $78 $-1 #
edge $-1 $412 1.830693040787162e-014 $330 6.3446600871209071 $324 $413 forward 7 unknown #
vertex $-1 $219 $414 #
straight-curve $-1 -59.311384310220191 3.605012465219426 11.333493610562797 0 1 0 I I #
coedge $-1 $407 $220 $223 $337 reversed $322 $-1 #
coedge $-1 $220 $407 $328 $411 forward $322 $-1 #
vertex $-1 $221 $415 #
straight-curve $-1 -64.311044648579369 3.0467094503667234 54.391459756784116 0 0 1 I I #
straight-curve $-1 -64.311044648579383 3.0467094503667234 7.4273307719008983 -0.78801074757464917 0 -0.61566148304635926 I I #
edge $-1 $409 -11.373340410510981 $224 -3.0467094503667234 $332 $416 forward 7 unknown #
point $-1 -64.311044648579369 3.0467094503667234 11.333493610562799 #
point $-1 -59.311384310220198 3.0467094503667234 11.333493610562799 #
edge $-1 $417 1 $417 0 $227 $-1 forward 7 unknown #
vertex $-1 $228 $418 #
ellipse-curve $-1 -59.668677946508147 7.210024930438852 6.6380905396712784 -0.61566148304635926 0 0.78801074757464917 0.78801074757464917 0 0.61566148304635926 1 I I #
point $-1 -61.023203731825113 7.210024930438852 9.9960736742781968 #
plane-surface $-1 64.311044648579369 0 0 -1 0 0 0 0 1 forward_v I I I I #
coedge $-1 $236 $234 $238 $349 reversed $141 $-1 #
edge $-1 $249 -11.333493610562799 $351 11.333493610562799 $248 $419 forward 7 unknown #
vertex $-1 $349 $420 #
straight-curve $-1 -64.311044648579369 -31.319225558496061 0 0 0 -1 I I #
edge $-1 $347 -31.319225558496061 $351 31.319225558496061 $345 $421 forward 7 unknown #
straight-curve $-1 0 -31.319225558496061 -11.333493610562799 -1 0 0 I I #
vertex $-1 $241 $422 #
straight-curve $-1 0 31.319225558496061 -11.333493610562799 1 0 0 I I #
point $-1 64.311044648579369 31.319225558496061 -11.333493610562799 #
point $-1 64.311044648579369 -31.319225558496061 -11.333493610562799 #
straight-curve $-1 -64.311044648579369 0 11.333493610562799 0 -1 0 I I #
point $-1 -64.311044648579369 31.319225558496061 11.333493610562799 #
point $-1 -64.311044648579369 -31.319225558496061 11.333493610562799 #
straight-curve $-1 64.311044648579369 -31.319225558496061 0 0 0 -1 I I #
straight-curve $-1 64.311044648579369 31.319225558496061 0 0 0 -1 I I #
plane-surface $-1 0 0 -11.333493610562799 0 0 1 1 0 0 forward_v I I I I #
coedge $-1 $375 $260 $373 $423 reversed $160 $-1 #
coedge $-1 $260 $375 $264 $367 reversed $160 $-1 #
coedge $-1 $262 $261 $260 $364 reversed $95 $-1 #
edge $-1 $368 -11.333493610562799 $424 11.333493610562799 $363 $425 forward 7 unknown #
edge $-1 $424 -45.759411459177905 $272 -31.319225558496061 $261 $426 forward 7 unknown #
straight-curve $-1 -64.311044648579369 -31.319225558496061 0 0 0 -1 I I #
edge $-1 $368 -1.5 $370 1.5 $362 $427 forward 7 unknown #
vertex $-1 $265 $428 #
straight-curve $-1 -64.311044648579369 0 11.333493610562799 0 -1 0 I I #
vertex $-1 $266 $429 #
straight-curve $-1 -61.311044648579369 -38.539318508836985 11.333493610562799 0 1 0 I I #
point $-1 -64.311044648579369 -31.319225558496061 11.333493610562799 #
coedge $-1 $270 $269 $361 $423 forward $271 $-1 #
point $-1 -64.311044648579369 -31.319225558496061 -11.333493610562799 #
coedge $-1 $362 $361 $274 $376 reversed $160 $-1 #
edge $-1 $370 -11.333493610562799 $377 11.333493610562799 $274 $430 forward 7 unknown #
vertex $-1 $376 $431 #
straight-curve $-1 -61.311044648579369 -38.539318508836985 -11.333493610562799 0 -1 0 I I #
plane-surface $-1 64.311044648579369 0 0 -1 0 0 0 0 1 forward_v I I I I #
coedge $-1 $281 $287 $282 $382 forward $176 $-1 #
coedge $-1 $283 $282 $432 $433 reversed $103 $-1 #
edge $-1 $434 -11.333493610562799 $293 -5.1291434507204787 $282 $435 forward 7 unknown #
coedge $-1 $432 $285 $295 $392 forward $279 $-1 #
coedge $-1 $285 $432 $287 $387 forward $279 $-1 #
vertex $-1 $392 $436 #
straight-curve $-1 0 21.211825929392269 11.333493610562799 1 0 0 I I #
edge $-1 $434 -31.319225558496061 $289 -21.211825929392269 $287 $437 forward 7 unknown #
point $-1 -64.311044648579369 21.211825929392269 5.1291434507204787 #
point $-1 -64.311044648579369 21.211825929392269 11.333493610562799 #
straight-curve $-1 -64.311044648579369 13.132762871972082 5.1291434507204787 0 -1 0 I I #
point $-1 -64.311044648579369 31.319225558496058 5.1291434507204787 #
edge $-1 $385 21.211825929392269 $393 31.319225558496061 $295 $438 forward 7 unknown #
vertex $-1 $392 $439 #
straight-curve $-1 64.311044648579369 31.319225558496061 0 0 0 -1 I I #
straight-curve $-1 64.311044648579369 21.211825929392269 4.1156592653208195 0 0 -1 I I #
edge $-1 $397 82.651799270826302 $400 86.557962109488216 $301 $440 forward 7 unknown #
vertex $-1 $315 $441 #
straight-curve $-1 21.071561078061023 3.0467094503667234 11.333493610562797 1 0 0 I I #
edge $-1 $400 -0.55830301485270262 $312 7.7683279452915546 $311 $442 forward 7 unknown #
vertex $-1 $399 $443 #
straight-curve $-1 -37.04454409308795 3.0467094503667234 86.614997021110867 -0.78801074757464917 0 0.61566148304635926 I I #
point $-1 59.311384310220163 3.0467094503667234 11.333493610562797 #
point $-1 64.311044648579369 11.373340410510981 7.4273307719008841 #
straight-curve $-1 64.311044648579369 0 11.333493610562799 0 1 0 I I #
vertex $-1 $318 $444 #
point $-1 60.456688694082807 7.210024930438852 6.0224290566249081 #
coedge $-1 $333 $332 $325 $408 forward $322 $-1 #
edge $-1 $409 43.057966146221318 $412 46.964128984883203 $407 $445 forward 7 unknown #
vertex $-1 $337 $446 #
straight-curve $-1 -71.74935544889469 11.373340410510981 11.333493610562797 -1 0 0 I I #
edge $-1 $412 -7.7683279452915546 $334 0.55830301485270262 $333 $447 forward 7 unknown #
vertex $-1 $411 $448 #
straight-curve $-1 -64.311044648579383 11.373340410510981 7.4273307719008983 0.78801074757464917 0 0.61566148304635926 I I #
point $-1 -59.311384310220198 11.373340410510981 11.333493610562799 #
point $-1 -64.311044648579369 3.0467094503667234 7.4273307719009098 #
straight-curve $-1 -64.311044648579369 0 11.333493610562799 0 -1 0 I I #
vertex $-1 $340 $449 #
point $-1 -58.880667198933502 7.210024930438852 7.253752022717638 #
straight-curve $-1 -64.311044648579369 31.319225558496061 0 0 0 -1 I I #
point $-1 -64.311044648579369 -31.319225558496061 -11.333493610562799 #
straight-curve $-1 -64.311044648579369 0 -11.333493610562799 0 1 0 I I #
point $-1 -64.311044648579369 31.319225558496061 -11.333493610562799 #
edge $-1 $377 -1.5 $424 1.5 $361 $450 forward 7 unknown #
vertex $-1 $365 $451 #
straight-curve $-1 -64.311044648579369 -45.759411459177905 0 0 0 -1 I I #
straight-curve $-1 -64.311044648579369 0 -11.333493610562799 0 1 0 I I #
straight-curve $-1 -62.811044648579369 -45.759411459177905 11.333493610562799 1 0 0 I I #
point $-1 -64.311044648579369 -45.759411459177905 11.333493610562799 #
point $-1 -61.311044648579369 -45.759411459177905 11.333493610562799 #
straight-curve $-1 -61.311044648579369 -45.759411459177905 0 0 0 -1 I I #
point $-1 -61.311044648579369 -45.759411459177905 -11.333493610562799 #
coedge $-1 $384 $383 $381 $433 forward $279 $-1 #
edge $-1 $393 -64.311044648579369 $434 64.311044648579369 $381 $452 forward 7 unknown #
vertex $-1 $433 $453 #
straight-curve $-1 -64.311044648579369 31.319225558496061 0 0 0 -1 I I #
point $-1 64.311044648579369 21.211825929392269 11.333493610562799 #
straight-curve $-1 -64.311044648579369 0 11.333493610562799 0 -1 0 I I #
straight-curve $-1 64.311044648579369 0 11.333493610562799 0 1 0 I I #
point $-1 64.311044648579369 31.319225558496061 11.333493610562799 #
straight-curve $-1 64.311044648579369 3.0467094503667234 93.9852928813891 0 0 -1 I I #
point $-1 64.311044648579369 3.0467094503667234 11.333493610562799 #
straight-curve $-1 64.311044648579383 3.605012465219426 7.427330771900877 0 1 0 I I #
point $-1 64.311044648579369 3.0467094503667234 7.4273307719008841 #
point $-1 59.053016463461802 7.210024930438852 5.8500797920966185 #
straight-curve $-1 -64.311044648579369 11.373340410510981 54.391459756784116 0 0 -1 I I #
point $-1 -64.311044648579369 11.373340410510981 11.333493610562799 #
straight-curve $-1 -64.311044648579369 3.605012465219426 7.4273307719009134 0 -1 0 I I #
point $-1 -64.311044648579369 11.373340410510981 7.4273307719009098 #
point $-1 -59.053016463461795 7.210024930438852 5.8500797920966292 #
straight-curve $-1 -62.811044648579369 -45.759411459177905 -11.333493610562799 -1 0 0 I I #
point $-1 -64.311044648579369 -45.759411459177905 -11.333493610562799 #
straight-curve $-1 0 31.319225558496061 11.333493610562799 -1 0 0 I I #
point $-1 -64.311044648579369 31.319225558496061 11.333493610562799 #
End-of-ACIS-data 