500 0 4 0           
7 Unknown 11 ACIS 5.0 NT 24 Fri Mar 26 17:43:33 1999 
-1 9.9999999999999995e-007 1e-010 
body $-1 $4 $-1 $5 #
body $-1 $6 $-1 $7 #
body $-1 $8 $-1 $9 #
body $-1 $10 $-1 $11 #
lump $-1 $-1 $12 $0 #
transform $-1 1 0 0 0 1 0 0 0 1 75.204931791131315 41.002260367510075 13.381700258496439 1 rotate no_reflect no_shear #
lump $-1 $-1 $13 $1 #
transform $-1 1 0 0 0 1 0 0 0 1 75.204931791131315 41.002260367510075 13.381700258496439 1 rotate no_reflect no_shear #
lump $-1 $-1 $14 $2 #
transform $-1 1 0 0 0 1 0 0 0 1 75.204931791131315 41.002260367510075 13.381700258496439 1 rotate no_reflect no_shear #
lump $-1 $-1 $15 $3 #
transform $-1 1 0 0 0 1 0 0 0 1 75.204931791131315 41.002260367510075 13.381700258496439 1 rotate no_reflect no_shear #
shell $-1 $-1 $-1 $16 $-1 $4 #
shell $-1 $-1 $-1 $17 $-1 $6 #
shell $-1 $-1 $-1 $18 $-1 $8 #
shell $-1 $-1 $-1 $19 $-1 $10 #
face $-1 $20 $21 $12 $-1 $22 forward single #
face $-1 $23 $24 $13 $-1 $25 forward single #
face $-1 $26 $27 $14 $-1 $28 forward single #
face $-1 $29 $30 $15 $-1 $31 reversed single #
face $-1 $32 $33 $12 $-1 $34 reversed single #
loop $-1 $-1 $35 $16 #
plane-surface $-1 0 0 13.381700258496439 0 0 1 1 0 0 forward_v I I I I #
face $-1 $36 $37 $13 $-1 $38 reversed single #
loop $-1 $-1 $39 $17 #
plane-surface $-1 0 -46.9522918600533 -10.00832092943878 0 0 1 1 0 0 forward_v I I I I #
face $-1 $40 $41 $14 $-1 $42 forward single #
loop $-1 $-1 $43 $18 #
plane-surface $-1 34.617633756211447 18.554887610601298 217.99301072541331 0 -1 0 -0.55919291073839883 0 -0.82903756765294845 forward_v I I I I #
face $-1 $44 $45 $15 $-1 $46 reversed single #
loop $-1 $47 $48 $19 #
cone-surface $-1 71.321783245194467 12.909967216597799 10.135824126314247 -0.55919291073839883 0 -0.82903756765294845 0.82903756765294845 0 -0.55919291073839883 1 I I 0 1 1 forward I I I I #
face $-1 $49 $50 $12 $-1 $51 reversed single #
loop $-1 $-1 $52 $20 #
plane-surface $-1 0 0 -13.381700258496439 0 0 1 1 0 0 forward_v I I I I #
coedge $-1 $53 $54 $55 $56 forward $21 $-1 #
face $-1 $57 $58 $13 $-1 $59 forward single #
loop $-1 $-1 $60 $23 #
plane-surface $-1 0 -52.902323352596525 -11.695010593967609 0 1 0 0 0 1 forward_v I I I I #
coedge $-1 $61 $62 $63 $64 forward $24 $-1 #
face $-1 $65 $66 $14 $-1 $67 forward single #
loop $-1 $-1 $68 $26 #
plane-surface $-1 -49.490495664119479 12.909967216597799 93.297583270162505 0.55919291073839883 0 0.82903756765294845 0.82903756765294845 0 -0.55919291073839883 forward_v I I I I #
coedge $-1 $69 $70 $71 $72 reversed $27 $-1 #
face $-1 $73 $74 $15 $-1 $75 forward single #
loop $-1 $76 $77 $29 #
cone-surface $-1 70.2666686330613 12.909967216597799 8.5715524146380186 -0.55919291073839883 0 -0.82903756765294845 0.41451878382647422 0 -0.27959645536919941 1 I I -0.70710678118654746 0.70710678118654746 0.5 forward I I I I #
loop $-1 $-1 $78 $19 #
coedge $-1 $48 $48 $79 $80 reversed $30 $-1 #
face $-1 $81 $82 $12 $-1 $83 reversed single #
loop $-1 $-1 $84 $32 #
plane-surface $-1 0 -41.002260367510075 0 0 1 0 0 0 1 forward_v I I I I #
coedge $-1 $85 $86 $87 $88 forward $33 $-1 #
coedge $-1 $89 $35 $90 $91 forward $21 $-1 #
coedge $-1 $35 $89 $92 $93 forward $21 $-1 #
coedge $-1 $94 $95 $35 $56 reversed $96 $-1 #
edge $-1 $97 -41.002260367510075 $98 41.002260367510075 $55 $99 forward 7 unknown #
face $-1 $100 $101 $13 $-1 $102 reversed single #
loop $-1 $-1 $103 $36 #
plane-surface $-1 0 0 13.381700258496439 0 0 1 1 0 0 forward_v I I I I #
coedge $-1 $104 $105 $106 $107 forward $37 $-1 #
coedge $-1 $108 $39 $109 $110 reversed $24 $-1 #
coedge $-1 $39 $108 $105 $111 forward $24 $-1 #
coedge $-1 $112 $113 $39 $64 reversed $114 $-1 #
edge $-1 $115 -5.9500314925432249 $116 5.9500314925432249 $63 $117 forward 7 unknown #
face $-1 $118 $119 $14 $-1 $120 forward single #
loop $-1 $-1 $121 $40 #
plane-surface $-1 34.617633756211447 7.2650468225943001 217.99301072541331 0 1 0 0.55919291073839883 0 0.82903756765294845 forward_v I I I I #
coedge $-1 $122 $123 $124 $125 reversed $41 $-1 #
coedge $-1 $70 $43 $123 $126 forward $27 $-1 #
coedge $-1 $43 $69 $127 $128 reversed $27 $-1 #
coedge $-1 $129 $124 $43 $72 forward $119 $-1 #
edge $-1 $130 51.680854134679926 $131 57.896114913025592 $71 $132 forward 7 unknown #
face $-1 $133 $134 $15 $-1 $135 forward single #
loop $-1 $-1 $136 $44 #
plane-surface $-1 34.617633756211447 18.554887610601298 217.99301072541331 0 -1 0 -0.55919291073839883 0 -0.82903756765294845 forward_v I I I I #
loop $-1 $-1 $137 $29 #
coedge $-1 $77 $77 $78 $138 forward $45 $-1 #
coedge $-1 $78 $78 $77 $138 reversed $47 $-1 #
coedge $-1 $79 $79 $48 $80 forward $134 $-1 #
edge $-1 $139 0 $139 6.2831853071796004 $79 $140 forward 7 unknown #
face $-1 $141 $142 $12 $-1 $143 reversed single #
loop $-1 $-1 $144 $49 #
plane-surface $-1 -75.204931791131315 0 0 1 0 0 0 0 -1 forward_v I I I I #
coedge $-1 $145 $92 $146 $147 forward $50 $-1 #
coedge $-1 $148 $52 $145 $149 forward $33 $-1 #
coedge $-1 $52 $148 $150 $151 forward $33 $-1 #
coedge $-1 $95 $94 $52 $88 reversed $96 $-1 #
edge $-1 $152 -41.002260367510075 $153 41.002260367510075 $87 $154 forward 7 unknown #
coedge $-1 $54 $53 $155 $156 forward $21 $-1 #
coedge $-1 $157 $158 $53 $91 reversed $142 $-1 #
edge $-1 $98 -75.204931791131315 $159 75.204931791131315 $90 $160 forward 7 unknown #
coedge $-1 $84 $161 $54 $93 reversed $50 $-1 #
edge $-1 $162 -75.204931791131315 $97 75.204931791131315 $92 $163 forward 7 unknown #
coedge $-1 $87 $55 $161 $164 forward $96 $-1 #
coedge $-1 $55 $87 $157 $165 reversed $96 $-1 #
loop $-1 $-1 $94 $141 #
vertex $-1 $56 $166 #
vertex $-1 $56 $167 #
straight-curve $-1 75.204931791131315 0 13.381700258496439 0 1 0 I I #
face $-1 $168 $169 $13 $-1 $170 reversed single #
loop $-1 $-1 $171 $57 #
plane-surface $-1 0 0 -13.381700258496439 0 0 1 1 0 0 forward_v I I I I #
coedge $-1 $172 $173 $174 $175 forward $58 $-1 #
coedge $-1 $176 $60 $177 $178 reversed $37 $-1 #
coedge $-1 $60 $176 $62 $111 reversed $37 $-1 #
coedge $-1 $179 $180 $60 $107 reversed $181 $-1 #
edge $-1 $182 -1.6866896645288296 $183 1.6866896645288296 $106 $184 forward 7 unknown #
coedge $-1 $62 $61 $179 $185 forward $24 $-1 #
coedge $-1 $186 $187 $61 $110 forward $169 $-1 #
edge $-1 $188 -75.204931791131315 $116 75.204931791131315 $109 $189 forward 7 unknown #
edge $-1 $182 -75.204931791131315 $115 75.204931791131315 $105 $190 forward 7 unknown #
coedge $-1 $191 $63 $176 $192 forward $114 $-1 #
coedge $-1 $63 $174 $186 $193 forward $114 $-1 #
loop $-1 $-1 $113 $194 #
vertex $-1 $64 $195 #
vertex $-1 $64 $196 #
straight-curve $-1 75.204931791131315 -46.9522918600533 -10.00832092943878 0 1 0 I I #
face $-1 $197 $198 $14 $-1 $199 forward single #
loop $-1 $-1 $200 $65 #
plane-surface $-1 0 0 13.381700258496439 0 0 1 1 0 0 forward_v I I I I #
coedge $-1 $201 $202 $200 $203 reversed $66 $-1 #
coedge $-1 $204 $68 $202 $205 reversed $41 $-1 #
coedge $-1 $68 $204 $69 $126 reversed $41 $-1 #
coedge $-1 $71 $200 $68 $125 forward $119 $-1 #
edge $-1 $206 0.81006321429540051 $130 12.099904002302399 $124 $207 forward 7 unknown #
edge $-1 $130 142.91290443246027 $208 150.40986358226263 $69 $209 forward 7 unknown #
coedge $-1 $210 $211 $70 $128 forward $212 $-1 #
edge $-1 $131 95.61480510421022 $208 99.807051512875077 $127 $213 forward 7 unknown #
coedge $-1 $214 $71 $211 $215 forward $119 $-1 #
vertex $-1 $125 $216 #
vertex $-1 $215 $217 #
straight-curve $-1 17.308816878105723 18.554887610601298 13.381700258496437 1 0 0 I I #
face $-1 $218 $219 $15 $-1 $220 forward single #
loop $-1 $221 $79 $73 #
plane-surface $-1 -49.490495664119479 12.909967216597799 93.297583270162505 0.55919291073839883 0 0.82903756765294845 0.82903756765294845 0 -0.55919291073839883 forward_v I I I I #
coedge $-1 $222 $223 $224 $225 reversed $74 $-1 #
coedge $-1 $137 $137 $-1 $226 forward $76 $-1 #
edge $-1 $227 0 $227 6.2831853071796004 $77 $228 forward 7 unknown #
vertex $-1 $80 $229 #
ellipse-curve $-1 72.097301401958447 12.909967216597799 11.285577054164017 -0.55919291073839883 0 -0.82903756765294845 0.82903756765294845 0 -0.55919291073839883 1 I I #
face $-1 $-1 $96 $12 $-1 $230 reversed single #
loop $-1 $-1 $157 $81 #
plane-surface $-1 0 41.002260367510075 0 0 -1 0 0 0 -1 forward_v I I I I #
coedge $-1 $231 $155 $158 $232 forward $82 $-1 #
coedge $-1 $161 $84 $85 $149 reversed $50 $-1 #
coedge $-1 $155 $231 $84 $147 reversed $82 $-1 #
edge $-1 $162 -13.381700258496439 $233 13.381700258496439 $146 $234 forward 7 unknown #
coedge $-1 $86 $85 $231 $235 forward $33 $-1 #
edge $-1 $153 -75.204931791131315 $233 75.204931791131315 $145 $236 forward 7 unknown #
coedge $-1 $158 $157 $86 $151 reversed $142 $-1 #
edge $-1 $237 -75.204931791131315 $152 75.204931791131315 $150 $238 forward 7 unknown #
vertex $-1 $88 $239 #
vertex $-1 $164 $240 #
straight-curve $-1 75.204931791131315 0 -13.381700258496439 0 -1 0 I I #
coedge $-1 $144 $146 $89 $156 reversed $82 $-1 #
edge $-1 $159 -41.002260367510075 $162 41.002260367510075 $155 $241 forward 7 unknown #
coedge $-1 $150 $90 $95 $165 forward $142 $-1 #
coedge $-1 $90 $150 $144 $232 reversed $142 $-1 #
vertex $-1 $91 $242 #
straight-curve $-1 0 41.002260367510075 13.381700258496439 -1 0 0 I I #
coedge $-1 $92 $145 $94 $164 reversed $50 $-1 #
vertex $-1 $156 $243 #
straight-curve $-1 0 -41.002260367510075 13.381700258496439 1 0 0 I I #
edge $-1 $97 -13.381700258496439 $153 13.381700258496439 $94 $244 forward 7 unknown #
edge $-1 $98 -13.381700258496439 $152 13.381700258496439 $95 $245 forward 7 unknown #
point $-1 75.204931791131315 -41.002260367510075 13.381700258496439 #
point $-1 75.204931791131315 41.002260367510075 13.381700258496439 #
face $-1 $246 $181 $13 $-1 $247 reversed single #
loop $-1 $-1 $109 $100 #
plane-surface $-1 0 -41.002260367510075 0 0 1 0 0 0 1 forward_v I I I I #
coedge $-1 $177 $248 $191 $249 forward $101 $-1 #
coedge $-1 $250 $103 $251 $252 forward $58 $-1 #
coedge $-1 $103 $250 $253 $254 forward $58 $-1 #
coedge $-1 $113 $255 $103 $175 reversed $114 $-1 #
edge $-1 $256 -41.002260367510075 $257 41.002260367510075 $174 $258 forward 7 unknown #
coedge $-1 $105 $104 $112 $192 reversed $37 $-1 #
coedge $-1 $259 $171 $104 $178 forward $101 $-1 #
edge $-1 $260 -75.204931791131315 $183 75.204931791131315 $104 $261 forward 7 unknown #
coedge $-1 $262 $106 $108 $185 reversed $181 $-1 #
coedge $-1 $106 $263 $259 $264 reversed $181 $-1 #
loop $-1 $-1 $263 $168 #
vertex $-1 $185 $265 #
vertex $-1 $264 $266 #
straight-curve $-1 -75.204931791131315 -52.902323352596525 -11.695010593967609 0 0 -1 I I #
edge $-1 $188 -5.9500314925432249 $182 5.9500314925432249 $179 $267 forward 7 unknown #
coedge $-1 $253 $109 $113 $193 reversed $169 $-1 #
coedge $-1 $109 $253 $262 $268 forward $169 $-1 #
vertex $-1 $268 $269 #
straight-curve $-1 0 -41.002260367510075 -10.00832092943878 1 0 0 I I #
straight-curve $-1 0 -52.902323352596525 -10.00832092943878 1 0 0 I I #
coedge $-1 $255 $112 $171 $249 reversed $114 $-1 #
edge $-1 $115 -1.6866896645288296 $260 1.6866896645288296 $112 $270 forward 7 unknown #
edge $-1 $256 -13.381700258496439 $116 10.00832092943878 $113 $271 forward 7 unknown #
face $-1 $-1 $114 $13 $-1 $272 reversed single #
point $-1 75.204931791131315 -52.902323352596525 -10.00832092943878 #
point $-1 75.204931791131315 -41.002260367510075 -10.00832092943878 #
face $-1 $273 $274 $14 $-1 $275 reversed single #
loop $-1 $-1 $276 $118 #
plane-surface $-1 0 -46.9522918600533 -10.00832092943878 0 0 1 1 0 0 forward_v I I I I #
coedge $-1 $124 $277 $121 $203 forward $119 $-1 #
coedge $-1 $202 $121 $278 $279 reversed $66 $-1 #
coedge $-1 $121 $201 $122 $205 forward $66 $-1 #
edge $-1 $280 -57.896114913025592 $206 -51.680854134679926 $200 $281 forward 7 unknown #
coedge $-1 $123 $122 $210 $282 reversed $41 $-1 #
edge $-1 $283 -150.40986358226263 $206 -142.91290443246027 $202 $284 forward 7 unknown #
vertex $-1 $125 $285 #
straight-curve $-1 68.989671012785664 6.4549836082988996 13.381700258496444 0 1 0 I I #
vertex $-1 $282 $286 #
straight-curve $-1 -49.490495664119479 18.554887610601298 93.297583270162505 0.82903756765294845 0 -0.55919291073839883 I I #
coedge $-1 $278 $127 $204 $282 forward $212 $-1 #
coedge $-1 $127 $287 $129 $215 reversed $212 $-1 #
loop $-1 $-1 $278 $288 #
straight-curve $-1 75.204931791131315 18.554887610601298 108.99650536270666 0 0 -1 I I #
coedge $-1 $289 $129 $290 $291 forward $119 $-1 #
edge $-1 $131 18.554887610601298 $292 41.002260367510075 $211 $293 forward 7 unknown #
point $-1 68.989671012785649 18.554887610601298 13.381700258496423 #
point $-1 75.204931791131315 18.554887610601298 13.381700258496439 #
face $-1 $294 $295 $15 $-1 $296 forward single #
loop $-1 $-1 $297 $133 #
plane-surface $-1 34.617633756211447 7.2650468225943001 217.99301072541331 0 1 0 0.55919291073839883 0 0.82903756765294845 forward_v I I I I #
loop $-1 $-1 $298 $73 #
coedge $-1 $223 $136 $299 $300 forward $74 $-1 #
coedge $-1 $136 $222 $301 $302 reversed $74 $-1 #
coedge $-1 $303 $304 $136 $225 forward $295 $-1 #
edge $-1 $305 51.680854134679926 $306 57.896114913025592 $224 $307 forward 7 unknown #
edge $-1 $308 1 $308 0 $137 $-1 forward 7 unknown #
vertex $-1 $138 $309 #
ellipse-curve $-1 70.546265088430502 12.909967216597799 8.9860711984644936 0.55919291073839883 0 0.82903756765294845 0.82903756765294845 0 -0.55919291073839883 1 I I #
point $-1 72.926338969611393 12.909967216597799 10.726384143425605 #
plane-surface $-1 75.204931791131315 0 0 -1 0 0 0 0 1 forward_v I I I I #
coedge $-1 $146 $144 $148 $235 reversed $82 $-1 #
edge $-1 $159 -13.381700258496439 $237 13.381700258496439 $158 $310 forward 7 unknown #
vertex $-1 $235 $311 #
straight-curve $-1 -75.204931791131315 -41.002260367510075 0 0 0 -1 I I #
edge $-1 $233 -41.002260367510075 $237 41.002260367510075 $231 $312 forward 7 unknown #
straight-curve $-1 0 -41.002260367510075 -13.381700258496439 -1 0 0 I I #
vertex $-1 $151 $313 #
straight-curve $-1 0 41.002260367510075 -13.381700258496439 1 0 0 I I #
point $-1 75.204931791131315 41.002260367510075 -13.381700258496439 #
point $-1 75.204931791131315 -41.002260367510075 -13.381700258496439 #
straight-curve $-1 -75.204931791131315 0 13.381700258496439 0 -1 0 I I #
point $-1 -75.204931791131315 41.002260367510075 13.381700258496439 #
point $-1 -75.204931791131315 -41.002260367510075 13.381700258496439 #
straight-curve $-1 75.204931791131315 -41.002260367510075 0 0 0 -1 I I #
straight-curve $-1 75.204931791131315 41.002260367510075 0 0 0 -1 I I #
face $-1 $194 $314 $13 $-1 $315 reversed single #
plane-surface $-1 -75.204931791131315 0 0 1 0 0 0 0 -1 forward_v I I I I #
coedge $-1 $171 $259 $316 $317 forward $101 $-1 #
edge $-1 $318 -41.002260367510075 $260 52.902323352596525 $191 $319 forward 7 unknown #
coedge $-1 $173 $172 $320 $321 forward $58 $-1 #
coedge $-1 $322 $323 $172 $252 reversed $314 $-1 #
edge $-1 $257 -75.204931791131315 $324 75.204931791131315 $251 $325 forward 7 unknown #
coedge $-1 $187 $186 $173 $254 reversed $169 $-1 #
edge $-1 $326 -75.204931791131315 $256 75.204931791131315 $253 $327 forward 7 unknown #
coedge $-1 $174 $191 $322 $328 reversed $114 $-1 #
vertex $-1 $175 $329 #
vertex $-1 $175 $330 #
straight-curve $-1 75.204931791131315 0 13.381700258496439 0 1 0 I I #
coedge $-1 $248 $177 $180 $264 forward $101 $-1 #
vertex $-1 $192 $331 #
straight-curve $-1 0 -52.902323352596525 -13.381700258496439 -1 0 0 I I #
coedge $-1 $320 $179 $187 $268 reversed $181 $-1 #
coedge $-1 $180 $320 $323 $332 forward $181 $-1 #
edge $-1 $183 -52.902323352596525 $333 41.002260367510075 $180 $334 forward 7 unknown #
point $-1 -75.204931791131315 -52.902323352596525 -10.00832092943878 #
point $-1 -75.204931791131315 -52.902323352596525 -13.381700258496439 #
straight-curve $-1 -75.204931791131315 -46.9522918600533 -10.00832092943878 0 -1 0 I I #
edge $-1 $326 -13.381700258496439 $188 10.00832092943878 $262 $335 forward 7 unknown #
point $-1 -75.204931791131315 -41.002260367510075 -10.00832092943878 #
straight-curve $-1 75.204931791131315 -52.902323352596525 -11.695010593967609 0 0 -1 I I #
straight-curve $-1 75.204931791131315 -41.002260367510075 0 0 0 -1 I I #
plane-surface $-1 75.204931791131315 0 0 -1 0 0 0 0 1 forward_v I I I I #
face $-1 $336 $337 $14 $-1 $338 reversed single #
loop $-1 $-1 $339 $197 #
plane-surface $-1 0 -52.902323352596525 -11.695010593967609 0 1 0 0 0 1 forward_v I I I I #
coedge $-1 $340 $341 $342 $343 forward $198 $-1 #
coedge $-1 $200 $344 $345 $346 forward $119 $-1 #
coedge $-1 $345 $210 $201 $279 forward $212 $-1 #
edge $-1 $283 -99.807051512875077 $280 -95.61480510421022 $278 $347 forward 7 unknown #
vertex $-1 $279 $348 #
straight-curve $-1 17.308816878105723 7.2650468225943001 13.381700258496437 -1 0 0 I I #
edge $-1 $208 -12.099904002302399 $283 -0.81006321429540051 $210 $349 forward 7 unknown #
vertex $-1 $282 $350 #
straight-curve $-1 -49.490495664119479 7.2650468225943001 93.297583270162505 -0.82903756765294845 0 0.55919291073839883 I I #
point $-1 68.989671012785649 7.2650468225943001 13.381700258496423 #
point $-1 75.20493179113133 18.554887610601298 9.1894538498315796 #
coedge $-1 $211 $351 $352 $353 reversed $212 $-1 #
face $-1 $-1 $212 $14 $-1 $354 reversed single #
coedge $-1 $344 $214 $355 $356 forward $119 $-1 #
coedge $-1 $352 $357 $214 $291 reversed $358 $-1 #
edge $-1 $292 -75.204931791131315 $359 75.204931791131315 $290 $360 forward 7 unknown #
vertex $-1 $215 $361 #
straight-curve $-1 75.204931791131315 0 13.381700258496439 0 1 0 I I #
face $-1 $362 $363 $15 $-1 $364 forward single #
loop $-1 $-1 $365 $218 #
plane-surface $-1 0 0 13.381700258496439 0 0 1 1 0 0 forward_v I I I I #
coedge $-1 $366 $367 $365 $368 reversed $219 $-1 #
coedge $-1 $369 $299 $304 $370 reversed $221 $-1 #
coedge $-1 $298 $371 $222 $300 reversed $221 $-1 #
edge $-1 $305 142.91290443246027 $372 150.40986358226263 $222 $373 forward 7 unknown #
coedge $-1 $374 $375 $223 $302 forward $376 $-1 #
edge $-1 $306 95.61480510421022 $372 99.807051512875077 $301 $377 forward 7 unknown #
coedge $-1 $378 $224 $375 $379 forward $295 $-1 #
coedge $-1 $224 $365 $298 $370 forward $295 $-1 #
vertex $-1 $370 $380 #
vertex $-1 $379 $381 #
straight-curve $-1 17.308816878105723 18.554887610601298 13.381700258496437 1 0 0 I I #
vertex $-1 $226 $382 #
point $-1 71.375302656083448 12.909967216597799 8.4268782877260939 #
straight-curve $-1 -75.204931791131315 41.002260367510075 0 0 0 -1 I I #
point $-1 -75.204931791131315 -41.002260367510075 -13.381700258496439 #
straight-curve $-1 -75.204931791131315 0 -13.381700258496439 0 1 0 I I #
point $-1 -75.204931791131315 41.002260367510075 -13.381700258496439 #
loop $-1 $-1 $322 $246 #
plane-surface $-1 0 41.002260367510075 0 0 -1 0 0 0 -1 forward_v I I I I #
coedge $-1 $323 $322 $248 $317 reversed $314 $-1 #
edge $-1 $333 -75.204931791131315 $318 75.204931791131315 $316 $383 forward 7 unknown #
vertex $-1 $249 $384 #
straight-curve $-1 75.204931791131315 0 -13.381700258496439 0 -1 0 I I #
coedge $-1 $263 $262 $250 $321 reversed $181 $-1 #
edge $-1 $324 -41.002260367510075 $326 41.002260367510075 $320 $385 forward 7 unknown #
coedge $-1 $316 $251 $255 $328 forward $314 $-1 #
coedge $-1 $251 $316 $263 $332 reversed $314 $-1 #
vertex $-1 $252 $386 #
straight-curve $-1 0 41.002260367510075 13.381700258496439 -1 0 0 I I #
vertex $-1 $321 $387 #
straight-curve $-1 0 -41.002260367510075 13.381700258496439 1 0 0 I I #
edge $-1 $257 -13.381700258496439 $318 13.381700258496439 $255 $388 forward 7 unknown #
point $-1 75.204931791131315 -41.002260367510075 13.381700258496439 #
point $-1 75.204931791131315 41.002260367510075 13.381700258496439 #
point $-1 75.204931791131315 -52.902323352596525 -13.381700258496439 #
edge $-1 $324 -13.381700258496439 $333 13.381700258496439 $323 $389 forward 7 unknown #
vertex $-1 $317 $390 #
straight-curve $-1 -75.204931791131315 0 -13.381700258496439 0 1 0 I I #
straight-curve $-1 -75.204931791131315 -41.002260367510075 0 0 0 -1 I I #
face $-1 $391 $392 $14 $-1 $393 reversed single #
loop $-1 $-1 $394 $273 #
plane-surface $-1 0 0 -13.381700258496439 0 0 1 1 0 0 forward_v I I I I #
coedge $-1 $395 $396 $397 $398 forward $274 $-1 #
coedge $-1 $399 $276 $400 $401 reversed $198 $-1 #
coedge $-1 $276 $399 $396 $402 forward $198 $-1 #
coedge $-1 $403 $404 $276 $343 reversed $212 $-1 #
edge $-1 $405 -5.9500314925432249 $406 5.9500314925432249 $342 $407 forward 7 unknown #
coedge $-1 $277 $289 $408 $409 forward $119 $-1 #
coedge $-1 $404 $278 $277 $346 reversed $212 $-1 #
edge $-1 $410 -41.002260367510075 $280 7.2650468225943001 $345 $293 forward 7 unknown #
straight-curve $-1 75.204931791131315 7.2650468225943001 108.99650536270666 0 0 1 I I #
point $-1 75.204931791131315 7.2650468225943001 13.381700258496439 #
straight-curve $-1 75.204931791131315 6.4549836082988996 9.1894538498315796 0 -1 0 I I #
point $-1 75.20493179113133 7.2650468225943001 9.1894538498315796 #
coedge $-1 $287 $403 $394 $411 reversed $212 $-1 #
coedge $-1 $412 $290 $287 $353 forward $358 $-1 #
edge $-1 $292 -13.381700258496439 $413 13.381700258496439 $287 $414 forward 7 unknown #
plane-surface $-1 75.204931791131315 0 0 -1 0 0 0 0 1 forward_v I I I I #
coedge $-1 $415 $416 $289 $356 reversed $417 $-1 #
edge $-1 $359 -41.002260367510075 $418 41.002260367510075 $355 $419 forward 7 unknown #
coedge $-1 $290 $412 $415 $420 reversed $358 $-1 #
loop $-1 $-1 $352 $421 #
vertex $-1 $291 $422 #
straight-curve $-1 0 41.002260367510075 13.381700258496439 -1 0 0 I I #
point $-1 75.204931791131315 41.002260367510075 13.381700258496439 #
face $-1 $423 $424 $15 $-1 $425 reversed single #
loop $-1 $-1 $426 $294 #
plane-surface $-1 0 -46.9522918600533 -10.00832092943878 0 0 1 1 0 0 forward_v I I I I #
coedge $-1 $304 $427 $297 $368 forward $295 $-1 #
coedge $-1 $367 $297 $428 $429 reversed $219 $-1 #
coedge $-1 $297 $366 $369 $430 forward $219 $-1 #
edge $-1 $431 -57.896114913025592 $432 -51.680854134679926 $365 $433 forward 7 unknown #
coedge $-1 $371 $298 $367 $430 reversed $221 $-1 #
edge $-1 $432 0.81006321429540051 $305 12.099904002302399 $304 $434 forward 7 unknown #
coedge $-1 $299 $369 $374 $435 reversed $221 $-1 #
vertex $-1 $435 $436 #
straight-curve $-1 -49.490495664119479 18.554887610601298 93.297583270162505 0.82903756765294845 0 -0.55919291073839883 I I #
coedge $-1 $428 $301 $371 $435 forward $376 $-1 #
coedge $-1 $301 $437 $303 $379 reversed $376 $-1 #
loop $-1 $-1 $428 $438 #
straight-curve $-1 75.204931791131315 18.554887610601298 108.99650536270666 0 0 -1 I I #
coedge $-1 $439 $303 $440 $441 forward $295 $-1 #
edge $-1 $306 18.554887610601298 $442 41.002260367510075 $375 $443 forward 7 unknown #
point $-1 68.989671012785649 18.554887610601298 13.381700258496423 #
point $-1 75.204931791131315 18.554887610601298 13.381700258496439 #
point $-1 69.987072177692099 12.909967216597799 8.1570336308115436 #
straight-curve $-1 0 41.002260367510075 -13.381700258496439 1 0 0 I I #
point $-1 75.204931791131315 41.002260367510075 -13.381700258496439 #
straight-curve $-1 -75.204931791131315 0 13.381700258496439 0 -1 0 I I #
point $-1 -75.204931791131315 41.002260367510075 13.381700258496439 #
point $-1 -75.204931791131315 -41.002260367510075 13.381700258496439 #
straight-curve $-1 75.204931791131315 41.002260367510075 0 0 0 -1 I I #
straight-curve $-1 -75.204931791131315 41.002260367510075 0 0 0 -1 I I #
point $-1 -75.204931791131315 41.002260367510075 -13.381700258496439 #
face $-1 $421 $417 $14 $-1 $444 reversed single #
loop $-1 $-1 $400 $336 #
plane-surface $-1 0 -41.002260367510075 0 0 1 0 0 0 1 forward_v I I I I #
coedge $-1 $445 $446 $351 $411 forward $337 $-1 #
coedge $-1 $447 $339 $445 $448 reversed $274 $-1 #
coedge $-1 $339 $447 $341 $402 reversed $274 $-1 #
coedge $-1 $449 $450 $339 $398 reversed $417 $-1 #
edge $-1 $451 -1.6866896645288296 $452 1.6866896645288296 $397 $453 forward 7 unknown #
coedge $-1 $341 $340 $449 $454 forward $198 $-1 #
coedge $-1 $455 $456 $340 $401 forward $392 $-1 #
edge $-1 $457 -75.204931791131315 $406 75.204931791131315 $400 $458 forward 7 unknown #
edge $-1 $451 -75.204931791131315 $405 75.204931791131315 $396 $459 forward 7 unknown #
coedge $-1 $351 $342 $447 $460 forward $212 $-1 #
coedge $-1 $342 $345 $455 $461 forward $212 $-1 #
vertex $-1 $343 $462 #
vertex $-1 $343 $463 #
straight-curve $-1 75.204931791131315 -46.9522918600533 -10.00832092943878 0 1 0 I I #
coedge $-1 $456 $455 $344 $409 reversed $392 $-1 #
edge $-1 $418 -75.204931791131315 $410 75.204931791131315 $408 $464 forward 7 unknown #
vertex $-1 $346 $465 #
edge $-1 $413 -41.002260367510075 $466 52.902323352596525 $351 $467 forward 7 unknown #
coedge $-1 $357 $352 $446 $468 reversed $358 $-1 #
vertex $-1 $411 $469 #
straight-curve $-1 75.204931791131315 41.002260367510075 0 0 0 -1 I I #
coedge $-1 $450 $355 $357 $420 forward $417 $-1 #
coedge $-1 $355 $449 $456 $470 reversed $417 $-1 #
loop $-1 $-1 $415 $391 #
vertex $-1 $356 $471 #
straight-curve $-1 -75.204931791131315 0 13.381700258496439 0 -1 0 I I #
edge $-1 $359 -13.381700258496439 $472 13.381700258496439 $357 $473 forward 7 unknown #
face $-1 $288 $358 $14 $-1 $474 reversed single #
point $-1 -75.204931791131315 41.002260367510075 13.381700258496439 #
face $-1 $475 $476 $15 $-1 $477 reversed single #
loop $-1 $-1 $478 $362 #
plane-surface $-1 0 -52.902323352596525 -11.695010593967609 0 1 0 0 0 1 forward_v I I I I #
coedge $-1 $479 $480 $481 $482 forward $363 $-1 #
coedge $-1 $365 $483 $484 $485 forward $295 $-1 #
coedge $-1 $484 $374 $366 $429 forward $376 $-1 #
edge $-1 $486 -99.807051512875077 $431 -95.61480510421022 $428 $487 forward 7 unknown #
edge $-1 $486 -150.40986358226263 $432 -142.91290443246027 $367 $488 forward 7 unknown #
vertex $-1 $429 $489 #
vertex $-1 $370 $490 #
straight-curve $-1 17.308816878105723 7.2650468225943001 13.381700258496437 -1 0 0 I I #
straight-curve $-1 68.989671012785664 6.4549836082988996 13.381700258496444 0 1 0 I I #
edge $-1 $372 -12.099904002302399 $486 -0.81006321429540051 $374 $491 forward 7 unknown #
point $-1 75.20493179113133 18.554887610601298 9.1894538498315796 #
coedge $-1 $375 $492 $493 $494 reversed $376 $-1 #
face $-1 $-1 $376 $15 $-1 $495 reversed single #
coedge $-1 $483 $378 $496 $497 forward $295 $-1 #
coedge $-1 $493 $498 $378 $441 reversed $499 $-1 #
edge $-1 $442 -75.204931791131315 $500 75.204931791131315 $440 $501 forward 7 unknown #
vertex $-1 $379 $502 #
straight-curve $-1 75.204931791131315 0 13.381700258496439 0 1 0 I I #
plane-surface $-1 -75.204931791131315 0 0 1 0 0 0 0 -1 forward_v I I I I #
coedge $-1 $503 $394 $395 $448 forward $337 $-1 #
coedge $-1 $394 $503 $412 $468 forward $337 $-1 #
coedge $-1 $396 $395 $403 $460 reversed $274 $-1 #
edge $-1 $466 -75.204931791131315 $452 75.204931791131315 $395 $504 forward 7 unknown #
coedge $-1 $416 $397 $399 $454 reversed $417 $-1 #
coedge $-1 $397 $415 $503 $505 reversed $417 $-1 #
vertex $-1 $454 $506 #
vertex $-1 $505 $507 #
straight-curve $-1 -75.204931791131315 -52.902323352596525 -11.695010593967609 0 0 -1 I I #
edge $-1 $457 -5.9500314925432249 $451 5.9500314925432249 $449 $508 forward 7 unknown #
coedge $-1 $408 $400 $404 $461 reversed $392 $-1 #
coedge $-1 $400 $408 $416 $470 forward $392 $-1 #
vertex $-1 $470 $509 #
straight-curve $-1 0 -41.002260367510075 -10.00832092943878 1 0 0 I I #
straight-curve $-1 0 -52.902323352596525 -10.00832092943878 1 0 0 I I #
edge $-1 $405 -1.6866896645288296 $466 1.6866896645288296 $403 $510 forward 7 unknown #
edge $-1 $410 -13.381700258496439 $406 10.00832092943878 $404 $511 forward 7 unknown #
point $-1 75.204931791131315 -52.902323352596525 -10.00832092943878 #
point $-1 75.204931791131315 -41.002260367510075 -10.00832092943878 #
straight-curve $-1 0 -41.002260367510075 13.381700258496439 1 0 0 I I #
point $-1 75.204931791131315 -41.002260367510075 13.381700258496439 #
vertex $-1 $460 $512 #
straight-curve $-1 75.204931791131315 0 -13.381700258496439 0 -1 0 I I #
edge $-1 $472 -75.204931791131315 $413 75.204931791131315 $412 $513 forward 7 unknown #
point $-1 75.204931791131315 41.002260367510075 -13.381700258496439 #
edge $-1 $418 -13.381700258496439 $457 10.00832092943878 $416 $514 forward 7 unknown #
point $-1 -75.204931791131315 -41.002260367510075 13.381700258496439 #
vertex $-1 $468 $515 #
straight-curve $-1 -75.204931791131315 41.002260367510075 0 0 0 -1 I I #
plane-surface $-1 0 41.002260367510075 0 0 -1 0 0 0 -1 forward_v I I I I #
face $-1 $516 $517 $15 $-1 $518 reversed single #
loop $-1 $-1 $519 $423 #
plane-surface $-1 0 0 -13.381700258496439 0 0 1 1 0 0 forward_v I I I I #
coedge $-1 $520 $521 $522 $523 forward $424 $-1 #
coedge $-1 $524 $426 $525 $526 reversed $363 $-1 #
coedge $-1 $426 $524 $521 $527 forward $363 $-1 #
coedge $-1 $528 $529 $426 $482 reversed $376 $-1 #
edge $-1 $530 -5.9500314925432249 $531 5.9500314925432249 $481 $532 forward 7 unknown #
coedge $-1 $427 $439 $533 $534 forward $295 $-1 #
coedge $-1 $529 $428 $427 $485 reversed $376 $-1 #
edge $-1 $535 -41.002260367510075 $431 7.2650468225943001 $484 $443 forward 7 unknown #
vertex $-1 $435 $536 #
straight-curve $-1 75.204931791131315 7.2650468225943001 108.99650536270666 0 0 1 I I #
straight-curve $-1 -49.490495664119479 7.2650468225943001 93.297583270162505 -0.82903756765294845 0 0.55919291073839883 I I #
point $-1 75.204931791131315 7.2650468225943001 13.381700258496439 #
point $-1 68.989671012785649 7.2650468225943001 13.381700258496423 #
straight-curve $-1 75.204931791131315 6.4549836082988996 9.1894538498315796 0 -1 0 I I #
coedge $-1 $437 $528 $519 $537 reversed $376 $-1 #
coedge $-1 $538 $440 $437 $494 forward $499 $-1 #
edge $-1 $442 -13.381700258496439 $539 13.381700258496439 $437 $540 forward 7 unknown #
plane-surface $-1 75.204931791131315 0 0 -1 0 0 0 0 1 forward_v I I I I #
coedge $-1 $541 $542 $439 $497 reversed $543 $-1 #
edge $-1 $500 -41.002260367510075 $544 41.002260367510075 $496 $545 forward 7 unknown #
coedge $-1 $440 $538 $541 $546 reversed $499 $-1 #
loop $-1 $-1 $493 $547 #
vertex $-1 $441 $548 #
straight-curve $-1 0 41.002260367510075 13.381700258496439 -1 0 0 I I #
point $-1 75.204931791131315 41.002260367510075 13.381700258496439 #
coedge $-1 $446 $445 $450 $505 forward $337 $-1 #
straight-curve $-1 0 -52.902323352596525 -13.381700258496439 -1 0 0 I I #
edge $-1 $452 -52.902323352596525 $472 41.002260367510075 $450 $549 forward 7 unknown #
point $-1 -75.204931791131315 -52.902323352596525 -10.00832092943878 #
point $-1 -75.204931791131315 -52.902323352596525 -13.381700258496439 #
straight-curve $-1 -75.204931791131315 -46.9522918600533 -10.00832092943878 0 -1 0 I I #
point $-1 -75.204931791131315 -41.002260367510075 -10.00832092943878 #
straight-curve $-1 75.204931791131315 -52.902323352596525 -11.695010593967609 0 0 -1 I I #
straight-curve $-1 75.204931791131315 -41.002260367510075 0 0 0 -1 I I #
point $-1 75.204931791131315 -52.902323352596525 -13.381700258496439 #
straight-curve $-1 0 41.002260367510075 -13.381700258496439 1 0 0 I I #
straight-curve $-1 -75.204931791131315 -41.002260367510075 0 0 0 -1 I I #
point $-1 -75.204931791131315 41.002260367510075 -13.381700258496439 #
face $-1 $547 $543 $15 $-1 $550 reversed single #
loop $-1 $-1 $525 $475 #
plane-surface $-1 0 -41.002260367510075 0 0 1 0 0 0 1 forward_v I I I I #
coedge $-1 $551 $552 $492 $537 forward $476 $-1 #
coedge $-1 $553 $478 $551 $554 reversed $424 $-1 #
coedge $-1 $478 $553 $480 $527 reversed $424 $-1 #
coedge $-1 $555 $556 $478 $523 reversed $543 $-1 #
edge $-1 $557 -1.6866896645288296 $558 1.6866896645288296 $522 $559 forward 7 unknown #
coedge $-1 $480 $479 $555 $560 forward $363 $-1 #
coedge $-1 $561 $562 $479 $526 forward $517 $-1 #
edge $-1 $563 -75.204931791131315 $531 75.204931791131315 $525 $564 forward 7 unknown #
edge $-1 $557 -75.204931791131315 $530 75.204931791131315 $521 $565 forward 7 unknown #
coedge $-1 $492 $481 $553 $566 forward $376 $-1 #
coedge $-1 $481 $484 $561 $567 forward $376 $-1 #
vertex $-1 $482 $568 #
vertex $-1 $482 $569 #
straight-curve $-1 75.204931791131315 -46.9522918600533 -10.00832092943878 0 1 0 I I #
coedge $-1 $562 $561 $483 $534 reversed $517 $-1 #
edge $-1 $544 -75.204931791131315 $535 75.204931791131315 $533 $570 forward 7 unknown #
vertex $-1 $485 $571 #
point $-1 75.20493179113133 7.2650468225943001 9.1894538498315796 #
edge $-1 $539 -41.002260367510075 $572 52.902323352596525 $492 $573 forward 7 unknown #
coedge $-1 $498 $493 $552 $574 reversed $499 $-1 #
vertex $-1 $537 $575 #
straight-curve $-1 75.204931791131315 41.002260367510075 0 0 0 -1 I I #
coedge $-1 $556 $496 $498 $546 forward $543 $-1 #
coedge $-1 $496 $555 $562 $576 reversed $543 $-1 #
loop $-1 $-1 $541 $516 #
vertex $-1 $497 $577 #
straight-curve $-1 -75.204931791131315 0 13.381700258496439 0 -1 0 I I #
edge $-1 $500 -13.381700258496439 $578 13.381700258496439 $498 $579 forward 7 unknown #
face $-1 $438 $499 $15 $-1 $580 reversed single #
point $-1 -75.204931791131315 41.002260367510075 13.381700258496439 #
straight-curve $-1 -75.204931791131315 0 -13.381700258496439 0 1 0 I I #
plane-surface $-1 -75.204931791131315 0 0 1 0 0 0 0 -1 forward_v I I I I #
coedge $-1 $581 $519 $520 $554 forward $476 $-1 #
coedge $-1 $519 $581 $538 $574 forward $476 $-1 #
coedge $-1 $521 $520 $528 $566 reversed $424 $-1 #
edge $-1 $572 -75.204931791131315 $558 75.204931791131315 $520 $582 forward 7 unknown #
coedge $-1 $542 $522 $524 $560 reversed $543 $-1 #
coedge $-1 $522 $541 $581 $583 reversed $543 $-1 #
vertex $-1 $560 $584 #
vertex $-1 $583 $585 #
straight-curve $-1 -75.204931791131315 -52.902323352596525 -11.695010593967609 0 0 -1 I I #
edge $-1 $563 -5.9500314925432249 $557 5.9500314925432249 $555 $586 forward 7 unknown #
coedge $-1 $533 $525 $529 $567 reversed $517 $-1 #
coedge $-1 $525 $533 $542 $576 forward $517 $-1 #
vertex $-1 $576 $587 #
straight-curve $-1 0 -41.002260367510075 -10.00832092943878 1 0 0 I I #
straight-curve $-1 0 -52.902323352596525 -10.00832092943878 1 0 0 I I #
edge $-1 $530 -1.6866896645288296 $572 1.6866896645288296 $528 $588 forward 7 unknown #
edge $-1 $535 -13.381700258496439 $531 10.00832092943878 $529 $589 forward 7 unknown #
point $-1 75.204931791131315 -52.902323352596525 -10.00832092943878 #
point $-1 75.204931791131315 -41.002260367510075 -10.00832092943878 #
straight-curve $-1 0 -41.002260367510075 13.381700258496439 1 0 0 I I #
point $-1 75.204931791131315 -41.002260367510075 13.381700258496439 #
vertex $-1 $566 $590 #
straight-curve $-1 75.204931791131315 0 -13.381700258496439 0 -1 0 I I #
edge $-1 $578 -75.204931791131315 $539 75.204931791131315 $538 $591 forward 7 unknown #
point $-1 75.204931791131315 41.002260367510075 -13.381700258496439 #
edge $-1 $544 -13.381700258496439 $563 10.00832092943878 $542 $592 forward 7 unknown #
point $-1 -75.204931791131315 -41.002260367510075 13.381700258496439 #
vertex $-1 $574 $593 #
straight-curve $-1 -75.204931791131315 41.002260367510075 0 0 0 -1 I I #
plane-surface $-1 0 41.002260367510075 0 0 -1 0 0 0 -1 forward_v I I I I #
coedge $-1 $552 $551 $556 $583 forward $476 $-1 #
straight-curve $-1 0 -52.902323352596525 -13.381700258496439 -1 0 0 I I #
edge $-1 $558 -52.902323352596525 $578 41.002260367510075 $556 $594 forward 7 unknown #
point $-1 -75.204931791131315 -52.902323352596525 -10.00832092943878 #
point $-1 -75.204931791131315 -52.902323352596525 -13.381700258496439 #
straight-curve $-1 -75.204931791131315 -46.9522918600533 -10.00832092943878 0 -1 0 I I #
point $-1 -75.204931791131315 -41.002260367510075 -10.00832092943878 #
straight-curve $-1 75.204931791131315 -52.902323352596525 -11.695010593967609 0 0 -1 I I #
straight-curve $-1 75.204931791131315 -41.002260367510075 0 0 0 -1 I I #
point $-1 75.204931791131315 -52.902323352596525 -13.381700258496439 #
straight-curve $-1 0 41.002260367510075 -13.381700258496439 1 0 0 I I #
straight-curve $-1 -75.204931791131315 -41.002260367510075 0 0 0 -1 I I #
point $-1 -75.204931791131315 41.002260367510075 -13.381700258496439 #
straight-curve $-1 -75.204931791131315 0 -13.381700258496439 0 1 0 I I #
End-of-ACIS-data 