500 0 6 0           
7 Unknown 11 ACIS 5.0 NT 24 Fri Mar 26 02:06:11 1999 
-1 9.9999999999999995e-007 1e-010 
body $-1 $6 $-1 $7 #
body $-1 $8 $-1 $9 #
body $-1 $10 $-1 $11 #
body $-1 $12 $-1 $13 #
body $-1 $14 $-1 $15 #
body $-1 $16 $-1 $17 #
lump $-1 $-1 $18 $0 #
transform $-1 1 0 0 0 1 0 0 0 1 74.142887661366615 49.798397349166002 22.588536016125651 1 rotate no_reflect no_shear #
lump $-1 $-1 $19 $1 #
transform $-1 1 0 0 0 1 0 0 0 1 74.142887661366615 49.798397349166002 22.588536016125651 1 rotate no_reflect no_shear #
lump $-1 $-1 $20 $2 #
transform $-1 1 0 0 0 1 0 0 0 1 74.142887661366615 49.798397349166002 22.588536016125651 1 rotate no_reflect no_shear #
lump $-1 $-1 $21 $3 #
transform $-1 1 0 0 0 1 0 0 0 1 74.142887661366615 49.798397349166002 22.588536016125651 1 rotate no_reflect no_shear #
lump $-1 $-1 $22 $4 #
transform $-1 1 0 0 0 1 0 0 0 1 74.142887661366615 49.798397349166002 22.588536016125651 1 rotate no_reflect no_shear #
lump $-1 $-1 $23 $5 #
transform $-1 1 0 0 0 1 0 0 0 1 74.142887661366615 49.798397349166002 22.588536016125651 1 rotate no_reflect no_shear #
shell $-1 $-1 $-1 $24 $-1 $6 #
shell $-1 $-1 $-1 $25 $-1 $8 #
shell $-1 $-1 $-1 $26 $-1 $10 #
shell $-1 $-1 $-1 $27 $-1 $12 #
shell $-1 $-1 $-1 $28 $-1 $14 #
shell $-1 $-1 $-1 $29 $-1 $16 #
face $-1 $30 $31 $18 $-1 $32 forward single #
face $-1 $33 $34 $19 $-1 $35 reversed single #
face $-1 $36 $37 $20 $-1 $38 reversed single #
face $-1 $39 $40 $21 $-1 $41 forward single #
face $-1 $42 $43 $22 $-1 $44 forward single #
face $-1 $45 $46 $23 $-1 $47 forward single #
face $-1 $48 $49 $18 $-1 $50 reversed single #
loop $-1 $-1 $51 $24 #
plane-surface $-1 0 0 22.588536016125651 0 0 1 1 0 0 forward_v I I I I #
face $-1 $52 $53 $19 $-1 $54 reversed single #
loop $-1 $-1 $55 $25 #
plane-surface $-1 -61.684083317315725 -14.168664734674358 0 0 1 0 0 0 1 forward_v I I I I #
face $-1 $56 $57 $20 $-1 $58 reversed single #
loop $-1 $-1 $59 $26 #
plane-surface $-1 48.585943344486296 37.459772867631685 217.11839478920459 0 -1 0 -0.61566148304635926 0 -0.78801074757464917 forward_v I I I I #
face $-1 $60 $61 $21 $-1 $62 forward single #
loop $-1 $63 $64 $27 #
cone-surface $-1 64.563470718693694 13.914479044346564 14.672257494386379 -0.61566148304635926 0 -0.78801074757464917 1.1820161213619738 0 -0.92349222456953894 1 I I 0 1 1.5 forward I I I I #
face $-1 $65 $66 $22 $-1 $67 forward single #
loop $-1 $68 $69 $28 #
cone-surface $-1 64.563470718693694 22.743964228078475 14.672257494386379 -0.61566148304635926 0 -0.78801074757464917 1.1820161213619738 0 -0.92349222456953894 1 I I 0 1 1.5 forward I I I I #
face $-1 $70 $71 $23 $-1 $72 forward single #
loop $-1 $73 $74 $29 #
cone-surface $-1 64.563470718693694 31.573449411810394 14.672257494386379 -0.61566148304635926 0 -0.78801074757464917 1.1820161213619738 0 -0.92349222456953894 1 I I 0 1 1.5 forward I I I I #
face $-1 $75 $76 $18 $-1 $77 reversed single #
loop $-1 $-1 $78 $30 #
plane-surface $-1 0 0 -22.588536016125651 0 0 1 1 0 0 forward_v I I I I #
coedge $-1 $79 $80 $81 $82 forward $31 $-1 #
face $-1 $83 $84 $19 $-1 $85 reversed single #
loop $-1 $-1 $86 $33 #
plane-surface $-1 -61.684083317315725 -4.6213253169146995 0 0 -1 0 0 0 -1 forward_v I I I I #
coedge $-1 $87 $88 $89 $90 reversed $34 $-1 #
face $-1 $91 $92 $20 $-1 $93 reversed single #
loop $-1 $-1 $94 $36 #
plane-surface $-1 -42.707897005386869 22.743964228078489 100.2676101224511 0.61566148304635926 0 0.78801074757464917 0.78801074757464917 0 -0.61566148304635926 forward_v I I I I #
coedge $-1 $95 $96 $97 $98 reversed $37 $-1 #
face $-1 $-1 $99 $21 $-1 $100 forward single #
loop $-1 $101 $102 $39 #
cone-surface $-1 63.235360551620033 13.914479044346564 12.972354033739968 -0.61566148304635926 0 -0.78801074757464917 0.59100806068098688 0 -0.46174611228476947 1 I I -0.70710678118654757 0.70710678118654757 0.75 forward I I I I #
loop $-1 $-1 $103 $27 #
coedge $-1 $64 $64 $104 $105 reversed $40 $-1 #
face $-1 $-1 $106 $22 $-1 $107 forward single #
loop $-1 $108 $109 $42 #
cone-surface $-1 63.235360551620033 22.743964228078475 12.972354033739968 -0.61566148304635926 0 -0.78801074757464917 0.59100806068098688 0 -0.46174611228476947 1 I I -0.70710678118654757 0.70710678118654757 0.75 forward I I I I #
loop $-1 $-1 $110 $28 #
coedge $-1 $69 $69 $111 $112 reversed $43 $-1 #
face $-1 $-1 $113 $23 $-1 $114 forward single #
loop $-1 $115 $116 $45 #
cone-surface $-1 63.235360551620033 31.573449411810394 12.972354033739968 -0.61566148304635926 0 -0.78801074757464917 0.59100806068098688 0 -0.46174611228476947 1 I I -0.70710678118654757 0.70710678118654757 0.75 forward I I I I #
loop $-1 $-1 $117 $29 #
coedge $-1 $74 $74 $118 $119 reversed $46 $-1 #
face $-1 $120 $121 $18 $-1 $122 reversed single #
loop $-1 $-1 $123 $48 #
plane-surface $-1 0 -49.798397349166002 0 0 1 0 0 0 1 forward_v I I I I #
coedge $-1 $124 $125 $126 $127 forward $49 $-1 #
coedge $-1 $128 $51 $129 $130 forward $31 $-1 #
coedge $-1 $51 $128 $131 $132 forward $31 $-1 #
coedge $-1 $133 $134 $51 $82 reversed $135 $-1 #
edge $-1 $136 -49.798397349166002 $137 49.798397349166002 $81 $138 forward 7 unknown #
face $-1 $139 $140 $19 $-1 $141 reversed single #
loop $-1 $-1 $142 $52 #
plane-surface $-1 -49.225278973264835 -9.3949950257945289 0 -1 0 0 0 0 1 forward_v I I I I #
coedge $-1 $143 $144 $145 $146 forward $53 $-1 #
coedge $-1 $147 $55 $148 $149 reversed $34 $-1 #
coedge $-1 $55 $147 $150 $151 reversed $34 $-1 #
coedge $-1 $152 $153 $55 $90 forward $154 $-1 #
edge $-1 $155 -22.588536016125651 $156 22.588536016125651 $89 $157 forward 7 unknown #
face $-1 $158 $159 $20 $-1 $160 reversed single #
loop $-1 $-1 $161 $56 #
plane-surface $-1 48.585943344486296 8.0281555885252942 217.11839478920459 0 1 0 0.61566148304635926 0 0.78801074757464917 forward_v I I I I #
coedge $-1 $162 $163 $164 $165 reversed $57 $-1 #
coedge $-1 $96 $59 $166 $167 reversed $37 $-1 #
coedge $-1 $59 $95 $162 $168 reversed $37 $-1 #
coedge $-1 $164 $169 $59 $98 forward $170 $-1 #
edge $-1 $171 -49.849915989123467 $172 -32.423810213355345 $97 $173 forward 7 unknown #
loop $-1 $-1 $104 $60 #
plane-surface $-1 -42.707897005386869 22.743964228078489 100.2676101224511 0.61566148304635926 0 0.78801074757464917 0.78801074757464917 0 -0.61566148304635926 forward_v I I I I #
loop $-1 $-1 $174 $39 #
coedge $-1 $102 $102 $103 $175 reversed $61 $-1 #
coedge $-1 $103 $103 $102 $175 forward $63 $-1 #
coedge $-1 $104 $104 $64 $105 forward $99 $-1 #
edge $-1 $176 0 $176 6.2831853071796004 $104 $177 forward 7 unknown #
loop $-1 $-1 $111 $65 #
plane-surface $-1 -42.707897005386869 22.743964228078489 100.2676101224511 0.61566148304635926 0 0.78801074757464917 0.78801074757464917 0 -0.61566148304635926 forward_v I I I I #
loop $-1 $-1 $178 $42 #
coedge $-1 $109 $109 $110 $179 reversed $66 $-1 #
coedge $-1 $110 $110 $109 $179 forward $68 $-1 #
coedge $-1 $111 $111 $69 $112 forward $106 $-1 #
edge $-1 $180 0 $180 6.2831853071796004 $111 $181 forward 7 unknown #
loop $-1 $-1 $118 $70 #
plane-surface $-1 -42.707897005386869 22.743964228078489 100.2676101224511 0.61566148304635926 0 0.78801074757464917 0.78801074757464917 0 -0.61566148304635926 forward_v I I I I #
loop $-1 $-1 $182 $45 #
coedge $-1 $116 $116 $117 $183 reversed $71 $-1 #
coedge $-1 $117 $117 $116 $183 forward $73 $-1 #
coedge $-1 $118 $118 $74 $119 forward $113 $-1 #
edge $-1 $184 0 $184 6.2831853071796004 $118 $185 forward 7 unknown #
face $-1 $186 $187 $18 $-1 $188 reversed single #
loop $-1 $-1 $189 $75 #
plane-surface $-1 -74.142887661366615 0 0 1 0 0 0 0 -1 forward_v I I I I #
coedge $-1 $190 $131 $191 $192 forward $76 $-1 #
coedge $-1 $193 $78 $190 $194 forward $49 $-1 #
coedge $-1 $78 $193 $195 $196 forward $49 $-1 #
coedge $-1 $134 $133 $78 $127 reversed $135 $-1 #
edge $-1 $197 -49.798397349166002 $198 49.798397349166002 $126 $199 forward 7 unknown #
coedge $-1 $80 $79 $200 $201 forward $31 $-1 #
coedge $-1 $202 $203 $79 $130 reversed $187 $-1 #
edge $-1 $137 -74.142887661366615 $204 74.142887661366615 $129 $205 forward 7 unknown #
coedge $-1 $123 $206 $80 $132 reversed $76 $-1 #
edge $-1 $207 -74.142887661366615 $136 74.142887661366615 $131 $208 forward 7 unknown #
coedge $-1 $126 $81 $206 $209 forward $135 $-1 #
coedge $-1 $81 $126 $202 $210 reversed $135 $-1 #
loop $-1 $-1 $133 $186 #
vertex $-1 $82 $211 #
vertex $-1 $82 $212 #
straight-curve $-1 74.142887661366615 0 22.588536016125651 0 1 0 I I #
face $-1 $213 $214 $19 $-1 $215 forward single #
loop $-1 $-1 $216 $83 #
plane-surface $-1 0 0 -22.588536016125651 0 0 1 1 0 0 forward_v I I I I #
coedge $-1 $217 $218 $147 $219 forward $84 $-1 #
coedge $-1 $220 $86 $216 $221 reversed $53 $-1 #
coedge $-1 $86 $220 $222 $223 reversed $53 $-1 #
coedge $-1 $218 $217 $86 $146 reversed $84 $-1 #
edge $-1 $224 -22.588536016125651 $225 22.588536016125651 $145 $226 forward 7 unknown #
coedge $-1 $88 $87 $142 $219 reversed $34 $-1 #
coedge $-1 $227 $228 $87 $149 forward $140 $-1 #
edge $-1 $229 18.383237314606973 $155 43.300846002708752 $148 $230 forward 7 unknown #
coedge $-1 $231 $232 $88 $151 forward $214 $-1 #
edge $-1 $156 -43.300846002708752 $233 -18.383237314606973 $150 $234 forward 7 unknown #
coedge $-1 $235 $89 $232 $236 reversed $154 $-1 #
coedge $-1 $89 $235 $227 $237 reversed $154 $-1 #
loop $-1 $-1 $235 $213 #
vertex $-1 $237 $238 #
vertex $-1 $90 $239 #
straight-curve $-1 -74.142887661366615 -14.168664734674358 0 0 0 1 I I #
face $-1 $-1 $170 $20 $-1 $240 forward single #
loop $-1 $-1 $241 $91 #
plane-surface $-1 74.142887661366615 0 0 -1 0 0 0 0 1 forward_v I I I I #
coedge $-1 $242 $243 $244 $245 reversed $92 $-1 #
coedge $-1 $246 $94 $96 $168 forward $57 $-1 #
coedge $-1 $94 $246 $242 $247 forward $57 $-1 #
coedge $-1 $244 $97 $94 $165 forward $170 $-1 #
edge $-1 $172 -26.08779075359244 $248 3.3438265255139505 $164 $249 forward 7 unknown #
coedge $-1 $250 $251 $95 $167 forward $159 $-1 #
edge $-1 $252 -99.585427622024355 $171 -85.970661378476649 $166 $253 forward 7 unknown #
edge $-1 $172 126.17172950622319 $252 148.28577532273323 $96 $254 forward 7 unknown #
coedge $-1 $97 $244 $250 $255 forward $170 $-1 #
loop $-1 $-1 $244 $158 #
vertex $-1 $167 $256 #
vertex $-1 $98 $257 #
straight-curve $-1 24.292971672243148 37.459772867631685 22.588536016125644 -1 0 0 I I #
coedge $-1 $174 $174 $-1 $258 reversed $101 $-1 #
edge $-1 $259 0 $259 6.2831853071796004 $102 $260 forward 7 unknown #
vertex $-1 $105 $261 #
ellipse-curve $-1 65.429834773482554 13.914479044346564 15.781152894351772 0.61566148304635926 0 0.78801074757464917 1.1820161213619738 0 -0.92349222456953894 1 I I #
coedge $-1 $178 $178 $-1 $262 reversed $108 $-1 #
edge $-1 $263 0 $263 6.2831853071796004 $109 $264 forward 7 unknown #
vertex $-1 $112 $265 #
ellipse-curve $-1 65.429834773482554 22.743964228078475 15.781152894351772 0.61566148304635926 0 0.78801074757464917 1.1820161213619738 0 -0.92349222456953894 1 I I #
coedge $-1 $182 $182 $-1 $266 reversed $115 $-1 #
edge $-1 $267 0 $267 6.2831853071796004 $116 $268 forward 7 unknown #
vertex $-1 $119 $269 #
ellipse-curve $-1 65.429834773482554 31.573449411810394 15.781152894351772 0.61566148304635926 0 0.78801074757464917 1.1820161213619738 0 -0.92349222456953894 1 I I #
face $-1 $-1 $135 $18 $-1 $270 reversed single #
loop $-1 $-1 $202 $120 #
plane-surface $-1 0 49.798397349166002 0 0 -1 0 0 0 -1 forward_v I I I I #
coedge $-1 $271 $200 $203 $272 forward $121 $-1 #
coedge $-1 $206 $123 $124 $194 reversed $76 $-1 #
coedge $-1 $200 $271 $123 $192 reversed $121 $-1 #
edge $-1 $207 -22.588536016125651 $273 22.588536016125651 $191 $274 forward 7 unknown #
coedge $-1 $125 $124 $271 $275 forward $49 $-1 #
edge $-1 $198 -74.142887661366615 $273 74.142887661366615 $190 $276 forward 7 unknown #
coedge $-1 $203 $202 $125 $196 reversed $187 $-1 #
edge $-1 $277 -74.142887661366615 $197 74.142887661366615 $195 $278 forward 7 unknown #
vertex $-1 $127 $279 #
vertex $-1 $209 $280 #
straight-curve $-1 74.142887661366615 0 -22.588536016125651 0 -1 0 I I #
coedge $-1 $189 $191 $128 $201 reversed $121 $-1 #
edge $-1 $204 -49.798397349166002 $207 49.798397349166002 $200 $281 forward 7 unknown #
coedge $-1 $195 $129 $134 $210 forward $187 $-1 #
coedge $-1 $129 $195 $189 $272 reversed $187 $-1 #
vertex $-1 $130 $282 #
straight-curve $-1 0 49.798397349166002 22.588536016125651 -1 0 0 I I #
coedge $-1 $131 $190 $133 $209 reversed $76 $-1 #
vertex $-1 $201 $283 #
straight-curve $-1 0 -49.798397349166002 22.588536016125651 1 0 0 I I #
edge $-1 $136 -22.588536016125651 $198 22.588536016125651 $133 $284 forward 7 unknown #
edge $-1 $137 -22.588536016125651 $197 22.588536016125651 $134 $285 forward 7 unknown #
point $-1 74.142887661366615 -49.798397349166002 22.588536016125651 #
point $-1 74.142887661366615 49.798397349166002 22.588536016125651 #
face $-1 $-1 $154 $19 $-1 $286 reversed single #
loop $-1 $-1 $222 $139 #
plane-surface $-1 0 0 22.588536016125651 0 0 1 1 0 0 forward_v I I I I #
coedge $-1 $228 $227 $143 $221 forward $140 $-1 #
coedge $-1 $145 $142 $228 $287 reversed $84 $-1 #
coedge $-1 $142 $145 $231 $288 reversed $84 $-1 #
edge $-1 $233 -22.588536016125651 $229 22.588536016125651 $142 $289 forward 7 unknown #
coedge $-1 $144 $143 $235 $290 reversed $53 $-1 #
edge $-1 $291 -43.300846002708752 $225 -18.383237314606973 $216 $292 forward 7 unknown #
coedge $-1 $232 $231 $144 $223 forward $214 $-1 #
edge $-1 $224 18.383237314606973 $293 43.300846002708752 $222 $294 forward 7 unknown #
vertex $-1 $223 $295 #
vertex $-1 $221 $296 #
straight-curve $-1 -49.225278973264835 -4.6213253169146995 0 0 0 -1 I I #
coedge $-1 $216 $148 $153 $237 forward $140 $-1 #
coedge $-1 $148 $216 $217 $287 forward $140 $-1 #
vertex $-1 $149 $297 #
straight-curve $-1 -30.842041658657863 -14.168664734674358 -22.588536016125651 -1 0 0 I I #
coedge $-1 $222 $150 $218 $288 forward $214 $-1 #
coedge $-1 $150 $222 $152 $236 forward $214 $-1 #
vertex $-1 $151 $298 #
straight-curve $-1 -30.842041658657863 -14.168664734674358 22.588536016125651 1 0 0 I I #
coedge $-1 $153 $152 $220 $290 forward $154 $-1 #
edge $-1 $293 4.6213253169146995 $156 14.168664734674358 $152 $299 forward 7 unknown #
edge $-1 $155 -14.168664734674358 $291 -4.6213253169146995 $153 $300 forward 7 unknown #
point $-1 -74.142887661366615 -14.168664734674358 -22.588536016125651 #
point $-1 -74.142887661366615 -14.168664734674358 22.588536016125651 #
plane-surface $-1 0 0 22.588536016125651 0 0 1 1 0 0 forward_v I I I I #
coedge $-1 $251 $250 $243 $301 forward $159 $-1 #
coedge $-1 $243 $161 $163 $247 reversed $92 $-1 #
coedge $-1 $161 $242 $241 $301 reversed $92 $-1 #
coedge $-1 $169 $164 $161 $245 forward $170 $-1 #
edge $-1 $248 32.423810213355345 $302 49.849915989123467 $244 $303 forward 7 unknown #
coedge $-1 $163 $162 $251 $304 reversed $57 $-1 #
edge $-1 $305 -148.28577532273323 $248 -126.17172950622319 $242 $306 forward 7 unknown #
vertex $-1 $165 $307 #
straight-curve $-1 56.716781885598493 11.371982114039245 22.588536016125644 0 -1 0 I I #
coedge $-1 $241 $166 $169 $255 reversed $159 $-1 #
coedge $-1 $166 $241 $246 $304 forward $159 $-1 #
vertex $-1 $167 $308 #
straight-curve $-1 74.142887661366615 37.459772867631685 108.55919739460229 0 0 1 I I #
straight-curve $-1 -42.707897005386869 37.459772867631685 100.2676101224511 0.78801074757464917 0 -0.61566148304635926 I I #
edge $-1 $302 8.0281555885252942 $171 37.459772867631685 $250 $309 forward 7 unknown #
point $-1 74.142887661366615 37.459772867631685 22.588536016125651 #
point $-1 56.716781885598493 37.459772867631685 22.588536016125644 #
edge $-1 $310 1 $310 0 $174 $-1 forward 7 unknown #
vertex $-1 $175 $311 #
ellipse-curve $-1 63.697106663904805 13.914479044346564 13.563362094420956 0.61566148304635926 0 0.78801074757464917 1.1820161213619738 0 -0.92349222456953894 1 I I #
point $-1 66.611850894844565 13.914479044346564 14.857660669782264 #
edge $-1 $312 1 $312 0 $178 $-1 forward 7 unknown #
vertex $-1 $179 $313 #
ellipse-curve $-1 63.697106663904805 22.743964228078475 13.563362094420956 0.61566148304635926 0 0.78801074757464917 1.1820161213619738 0 -0.92349222456953894 1 I I #
point $-1 66.611850894844565 22.743964228078475 14.857660669782264 #
edge $-1 $314 1 $314 0 $182 $-1 forward 7 unknown #
vertex $-1 $183 $315 #
ellipse-curve $-1 63.697106663904805 31.573449411810394 13.563362094420956 0.61566148304635926 0 0.78801074757464917 1.1820161213619738 0 -0.92349222456953894 1 I I #
point $-1 66.611850894844565 31.573449411810394 14.857660669782264 #
plane-surface $-1 74.142887661366615 0 0 -1 0 0 0 0 1 forward_v I I I I #
coedge $-1 $191 $189 $193 $275 reversed $121 $-1 #
edge $-1 $204 -22.588536016125651 $277 22.588536016125651 $203 $316 forward 7 unknown #
vertex $-1 $275 $317 #
straight-curve $-1 -74.142887661366615 -49.798397349166002 0 0 0 -1 I I #
edge $-1 $273 -49.798397349166002 $277 49.798397349166002 $271 $318 forward 7 unknown #
straight-curve $-1 0 -49.798397349166002 -22.588536016125651 -1 0 0 I I #
vertex $-1 $196 $319 #
straight-curve $-1 0 49.798397349166002 -22.588536016125651 1 0 0 I I #
point $-1 74.142887661366615 49.798397349166002 -22.588536016125651 #
point $-1 74.142887661366615 -49.798397349166002 -22.588536016125651 #
straight-curve $-1 -74.142887661366615 0 22.588536016125651 0 -1 0 I I #
point $-1 -74.142887661366615 49.798397349166002 22.588536016125651 #
point $-1 -74.142887661366615 -49.798397349166002 22.588536016125651 #
straight-curve $-1 74.142887661366615 -49.798397349166002 0 0 0 -1 I I #
straight-curve $-1 74.142887661366615 49.798397349166002 0 0 0 -1 I I #
plane-surface $-1 -74.142887661366615 0 0 1 0 0 0 0 -1 forward_v I I I I #
edge $-1 $225 -0.076172195982564972 $229 9.4711672217770939 $228 $320 forward 7 unknown #
edge $-1 $233 -9.4711672217770939 $224 0.076172195982564972 $231 $321 forward 7 unknown #
straight-curve $-1 -49.225278973264835 -14.168664734674358 0 0 0 -1 I I #
edge $-1 $293 -22.588536016125651 $291 22.588536016125651 $235 $322 forward 7 unknown #
vertex $-1 $290 $323 #
straight-curve $-1 -30.842041658657863 -4.6213253169146995 -22.588536016125651 1 0 0 I I #
vertex $-1 $236 $324 #
straight-curve $-1 -30.842041658657863 -4.6213253169146995 22.588536016125651 -1 0 0 I I #
point $-1 -49.225278973264835 -4.6213253169146995 22.588536016125651 #
point $-1 -49.225278973264835 -4.6213253169146995 -22.588536016125651 #
point $-1 -49.225278973264835 -14.168664734674358 -22.588536016125651 #
point $-1 -49.225278973264835 -14.168664734674358 22.588536016125651 #
straight-curve $-1 -74.142887661366615 0 22.588536016125651 0 -1 0 I I #
straight-curve $-1 -74.142887661366615 0 -22.588536016125651 0 1 0 I I #
edge $-1 $302 85.970661378476649 $305 99.585427622024355 $241 $325 forward 7 unknown #
vertex $-1 $255 $326 #
straight-curve $-1 24.292971672243148 8.0281555885252942 22.588536016125644 1 0 0 I I #
edge $-1 $305 -3.3438265255139505 $252 26.08779075359244 $251 $327 forward 7 unknown #
vertex $-1 $304 $328 #
straight-curve $-1 -42.707897005386869 8.0281555885252942 100.2676101224511 -0.78801074757464917 0 0.61566148304635926 I I #
point $-1 56.716781885598493 8.0281555885252942 22.588536016125644 #
point $-1 74.142887661366615 37.459772867631685 8.9737697725779384 #
straight-curve $-1 74.142887661366615 0 22.588536016125651 0 1 0 I I #
vertex $-1 $258 $329 #
point $-1 64.879122785266773 13.914479044346564 12.639869869851417 #
vertex $-1 $262 $330 #
point $-1 64.879122785266773 22.743964228078475 12.639869869851417 #
vertex $-1 $266 $331 #
point $-1 64.879122785266773 31.573449411810394 12.639869869851417 #
straight-curve $-1 -74.142887661366615 49.798397349166002 0 0 0 -1 I I #
point $-1 -74.142887661366615 -49.798397349166002 -22.588536016125651 #
straight-curve $-1 -74.142887661366615 0 -22.588536016125651 0 1 0 I I #
point $-1 -74.142887661366615 49.798397349166002 -22.588536016125651 #
straight-curve $-1 -49.225278973264835 -4.6974975128972645 -22.588536016125651 0 -1 0 I I #
straight-curve $-1 -49.225278973264835 -4.6974975128972645 22.588536016125651 0 1 0 I I #
straight-curve $-1 -74.142887661366615 -4.6213253169146995 0 0 0 -1 I I #
point $-1 -74.142887661366615 -4.6213253169146995 -22.588536016125651 #
point $-1 -74.142887661366615 -4.6213253169146995 22.588536016125651 #
straight-curve $-1 74.142887661366615 8.0281555885252942 108.55919739460229 0 0 -1 I I #
point $-1 74.142887661366615 8.0281555885252942 22.588536016125651 #
straight-curve $-1 74.142887661366615 11.371982114039245 8.9737697725779384 0 1 0 I I #
point $-1 74.142887661366615 8.0281555885252942 8.9737697725779384 #
point $-1 62.773614439335262 13.914479044346564 12.381345973058981 #
point $-1 62.773614439335262 22.743964228078475 12.381345973058981 #
point $-1 62.773614439335262 31.573449411810394 12.381345973058981 #
End-of-ACIS-data 