500 0 9 0           
7 Unknown 11 ACIS 5.0 NT 24 Fri Mar 26 03:28:41 1999 
-1 9.9999999999999995e-007 1e-010 
body $-1 $9 $-1 $10 #
body $-1 $11 $-1 $12 #
body $-1 $13 $-1 $14 #
body $-1 $15 $-1 $16 #
body $-1 $17 $-1 $18 #
body $-1 $19 $-1 $20 #
body $-1 $21 $-1 $22 #
body $-1 $23 $-1 $24 #
body $-1 $25 $-1 $26 #
lump $-1 $-1 $27 $0 #
transform $-1 1 0 0 0 1 0 0 0 1 75.718863490707122 47.148031363482971 17.473275968675555 1 rotate no_reflect no_shear #
lump $-1 $-1 $28 $1 #
transform $-1 1 0 0 0 1 0 0 0 1 75.718863490707122 47.148031363482971 17.473275968675555 1 rotate no_reflect no_shear #
lump $-1 $-1 $29 $2 #
transform $-1 1 0 0 0 1 0 0 0 1 75.718863490707122 47.148031363482971 17.473275968675555 1 rotate no_reflect no_shear #
lump $-1 $-1 $30 $3 #
transform $-1 1 0 0 0 1 0 0 0 1 75.718863490707122 47.148031363482971 17.473275968675555 1 rotate no_reflect no_shear #
lump $-1 $-1 $31 $4 #
transform $-1 1 0 0 0 1 0 0 0 1 75.718863490707122 47.148031363482971 17.473275968675555 1 rotate no_reflect no_shear #
lump $-1 $-1 $32 $5 #
transform $-1 1 0 0 0 1 0 0 0 1 75.718863490707122 47.148031363482971 17.473275968675555 1 rotate no_reflect no_shear #
lump $-1 $-1 $33 $6 #
transform $-1 1 0 0 0 1 0 0 0 1 75.718863490707122 47.148031363482971 17.473275968675555 1 rotate no_reflect no_shear #
lump $-1 $-1 $34 $7 #
transform $-1 1 0 0 0 1 0 0 0 1 75.718863490707122 47.148031363482971 17.473275968675555 1 rotate no_reflect no_shear #
lump $-1 $-1 $35 $8 #
transform $-1 1 0 0 0 1 0 0 0 1 75.718863490707122 47.148031363482971 17.473275968675555 1 rotate no_reflect no_shear #
shell $-1 $-1 $-1 $36 $-1 $9 #
shell $-1 $-1 $-1 $37 $-1 $11 #
shell $-1 $-1 $-1 $38 $-1 $13 #
shell $-1 $-1 $-1 $39 $-1 $15 #
shell $-1 $-1 $-1 $40 $-1 $17 #
shell $-1 $-1 $-1 $41 $-1 $19 #
shell $-1 $-1 $-1 $42 $-1 $21 #
shell $-1 $-1 $-1 $43 $-1 $23 #
shell $-1 $-1 $-1 $44 $-1 $25 #
face $-1 $45 $46 $27 $-1 $47 forward single #
face $-1 $48 $49 $28 $-1 $50 forward single #
face $-1 $51 $52 $29 $-1 $53 forward single #
face $-1 $54 $55 $30 $-1 $56 reversed single #
face $-1 $57 $58 $31 $-1 $59 forward single #
face $-1 $60 $61 $32 $-1 $62 forward single #
face $-1 $63 $64 $33 $-1 $65 reversed single #
face $-1 $66 $67 $34 $-1 $68 forward single #
face $-1 $69 $70 $35 $-1 $71 forward single #
face $-1 $72 $73 $27 $-1 $74 reversed single #
loop $-1 $-1 $75 $36 #
plane-surface $-1 0 0 17.473275968675555 0 0 1 1 0 0 forward_v I I I I #
face $-1 $76 $77 $28 $-1 $78 reversed single #
loop $-1 $-1 $79 $37 #
plane-surface $-1 0 -47.148031363482971 0 0 1 0 0 0 1 forward_v I I I I #
face $-1 $80 $81 $29 $-1 $82 reversed single #
loop $-1 $-1 $83 $38 #
plane-surface $-1 0 47.148031363482971 0 0 -1 0 0 0 -1 forward_v I I I I #
face $-1 $84 $85 $30 $-1 $86 reversed single #
loop $-1 $-1 $87 $39 #
plane-surface $-1 -182.80150840917403 12.023950443005539 113.83406988137696 0 1 0 -0.70710678939079041 0 0.70710677298230451 forward_v I I I I #
face $-1 $88 $89 $31 $-1 $90 forward single #
loop $-1 $91 $92 $40 #
cone-surface $-1 -69.232960441795626 15.478329953322664 10.987372821468497 0.70710678939079041 0 -0.70710677298230451 1.0606601594734568 0 1.0606601840861856 1 I I 0 1 1.5 forward I I I I #
face $-1 $93 $94 $32 $-1 $95 forward single #
loop $-1 $96 $97 $41 #
cone-surface $-1 -69.232960441795626 20.659899218798344 10.987372821468497 0.70710678939079041 0 -0.70710677298230451 1.0606601594734568 0 1.0606601840861856 1 I I 0 1 1.5 forward I I I I #
face $-1 $98 $99 $33 $-1 $100 reversed single #
loop $-1 $-1 $101 $42 #
plane-surface $-1 98.105234663646115 -4.6085933970869402 225.25506231354333 0 -1 0 -0.77714596973225614 0 -0.62932038083071107 forward_v I I I I #
face $-1 $102 $103 $34 $-1 $104 forward single #
loop $-1 $105 $106 $43 #
cone-surface $-1 72.472205869621035 -12.770105396325448 13.947365321640072 -0.77714596973225614 0 -0.62932038083071107 0.62932038083071107 0 -0.77714596973225614 1 I I 0 1 1 forward I I I I #
face $-1 $107 $108 $35 $-1 $109 forward single #
loop $-1 $110 $111 $44 #
cone-surface $-1 72.472205869621035 -7.8731981967823472 13.947365321640072 -0.77714596973225614 0 -0.62932038083071107 0.62932038083071107 0 -0.77714596973225614 1 I I 0 1 1 forward I I I I #
face $-1 $112 $113 $27 $-1 $114 reversed single #
loop $-1 $-1 $115 $45 #
plane-surface $-1 0 0 -17.473275968675555 0 0 1 1 0 0 forward_v I I I I #
coedge $-1 $116 $117 $118 $119 forward $46 $-1 #
face $-1 $120 $121 $28 $-1 $122 reversed single #
loop $-1 $-1 $123 $48 #
plane-surface $-1 0 0 -17.473275968675555 0 0 1 1 0 0 forward_v I I I I #
coedge $-1 $124 $125 $126 $127 forward $49 $-1 #
face $-1 $128 $129 $29 $-1 $130 forward single #
loop $-1 $-1 $131 $51 #
plane-surface $-1 -75.718863490707122 0 0 1 0 0 0 0 -1 forward_v I I I I #
coedge $-1 $132 $133 $134 $135 forward $52 $-1 #
face $-1 $136 $137 $30 $-1 $138 reversed single #
loop $-1 $-1 $139 $54 #
plane-surface $-1 -75.718863490707136 18.069114586060493 6.7514274477738638 -0.70710678939079041 0 0.70710677298230451 0.70710677298230451 0 0.70710678939079041 forward_v I I I I #
coedge $-1 $140 $141 $142 $143 reversed $55 $-1 #
face $-1 $-1 $144 $31 $-1 $145 forward single #
loop $-1 $146 $147 $57 #
cone-surface $-1 -67.577651436891074 15.478329953322664 9.3320638549755657 0.70710678939079041 0 -0.70710677298230451 0.53033007973672841 0 0.53033009204309278 1 I I -0.70710678118654757 0.70710678118654757 0.75 forward I I I I #
loop $-1 $-1 $148 $40 #
coedge $-1 $92 $92 $149 $150 reversed $58 $-1 #
face $-1 $-1 $151 $32 $-1 $152 forward single #
loop $-1 $153 $154 $60 #
cone-surface $-1 -67.577651436891074 20.659899218798344 9.3320638549755657 0.70710678939079041 0 -0.70710677298230451 0.53033007973672841 0 0.53033009204309278 1 I I -0.70710678118654757 0.70710678118654757 0.75 forward I I I I #
loop $-1 $-1 $155 $41 #
coedge $-1 $97 $97 $156 $157 reversed $61 $-1 #
face $-1 $158 $159 $33 $-1 $160 reversed single #
loop $-1 $-1 $161 $63 #
plane-surface $-1 -19.583984525373708 -10.321651796553894 129.95221429746249 0.77714596973225614 0 0.62932038083071107 0.62932038083071107 0 -0.77714596973225614 forward_v I I I I #
coedge $-1 $162 $163 $164 $165 reversed $64 $-1 #
face $-1 $-1 $166 $34 $-1 $167 forward single #
loop $-1 $168 $169 $66 #
cone-surface $-1 70.94657633148779 -12.770105396325448 12.711934914305683 -0.77714596973225614 0 -0.62932038083071107 0.31466019041535553 0 -0.38857298486612807 1 I I -0.70710678118654746 0.70710678118654746 0.5 forward I I I I #
loop $-1 $-1 $170 $43 #
coedge $-1 $106 $106 $171 $172 reversed $67 $-1 #
face $-1 $-1 $173 $35 $-1 $174 forward single #
loop $-1 $175 $176 $69 #
cone-surface $-1 70.94657633148779 -7.8731981967823472 12.711934914305683 -0.77714596973225614 0 -0.62932038083071107 0.31466019041535553 0 -0.38857298486612807 1 I I -0.70710678118654746 0.70710678118654746 0.5 forward I I I I #
loop $-1 $-1 $177 $44 #
coedge $-1 $111 $111 $178 $179 reversed $70 $-1 #
face $-1 $180 $181 $27 $-1 $182 reversed single #
loop $-1 $-1 $183 $72 #
plane-surface $-1 0 -47.148031363482971 0 0 1 0 0 0 1 forward_v I I I I #
coedge $-1 $184 $185 $186 $187 forward $73 $-1 #
coedge $-1 $188 $75 $189 $190 forward $46 $-1 #
coedge $-1 $75 $188 $191 $192 forward $46 $-1 #
coedge $-1 $193 $194 $75 $119 reversed $195 $-1 #
edge $-1 $196 -47.148031363482971 $197 47.148031363482971 $118 $198 forward 7 unknown #
face $-1 $199 $200 $28 $-1 $201 forward single #
loop $-1 $-1 $202 $76 #
plane-surface $-1 75.718863490707122 0 0 -1 0 0 0 0 1 forward_v I I I I #
coedge $-1 $203 $204 $205 $206 forward $77 $-1 #
coedge $-1 $205 $79 $202 $207 reversed $49 $-1 #
coedge $-1 $79 $205 $208 $209 reversed $49 $-1 #
coedge $-1 $210 $211 $79 $127 reversed $200 $-1 #
edge $-1 $212 -75.718863490707122 $213 75.718863490707122 $126 $214 forward 7 unknown #
face $-1 $215 $216 $29 $-1 $217 reversed single #
loop $-1 $-1 $218 $80 #
plane-surface $-1 0 58.66490768066673 -10.048720125544669 0 0 1 1 0 0 forward_v I I I I #
coedge $-1 $219 $220 $132 $221 forward $81 $-1 #
coedge $-1 $222 $83 $131 $221 reversed $52 $-1 #
coedge $-1 $83 $222 $223 $224 reversed $52 $-1 #
coedge $-1 $218 $225 $83 $135 reversed $129 $-1 #
edge $-1 $226 -75.718863490707122 $227 75.718863490707122 $134 $228 forward 7 unknown #
face $-1 $229 $230 $30 $-1 $231 reversed single #
loop $-1 $-1 $232 $84 #
plane-surface $-1 -182.80150840917403 24.114278729115448 113.83406988137696 0 -1 0 0.70710678939079041 0 -0.70710677298230451 forward_v I I I I #
coedge $-1 $233 $234 $235 $236 reversed $85 $-1 #
coedge $-1 $141 $87 $237 $238 reversed $55 $-1 #
coedge $-1 $87 $140 $233 $239 reversed $55 $-1 #
coedge $-1 $235 $240 $87 $143 forward $241 $-1 #
edge $-1 $242 15.681890713879895 $243 26.40373898597997 $142 $244 forward 7 unknown #
loop $-1 $-1 $149 $88 #
plane-surface $-1 -75.718863490707136 18.069114586060493 6.7514274477738638 -0.70710678939079041 0 0.70710677298230451 0.70710677298230451 0 0.70710678939079041 forward_v I I I I #
loop $-1 $-1 $245 $57 #
coedge $-1 $147 $147 $148 $246 reversed $89 $-1 #
coedge $-1 $148 $148 $147 $246 forward $91 $-1 #
coedge $-1 $149 $149 $92 $150 forward $144 $-1 #
edge $-1 $247 0 $247 6.2831853071796004 $149 $248 forward 7 unknown #
loop $-1 $-1 $156 $93 #
plane-surface $-1 -75.718863490707136 18.069114586060493 6.7514274477738638 -0.70710678939079041 0 0.70710677298230451 0.70710677298230451 0 0.70710678939079041 forward_v I I I I #
loop $-1 $-1 $249 $60 #
coedge $-1 $154 $154 $155 $250 reversed $94 $-1 #
coedge $-1 $155 $155 $154 $250 forward $96 $-1 #
coedge $-1 $156 $156 $97 $157 forward $151 $-1 #
edge $-1 $251 0 $251 6.2831853071796004 $156 $252 forward 7 unknown #
face $-1 $253 $254 $33 $-1 $255 forward single #
loop $-1 $-1 $256 $98 #
plane-surface $-1 98.105234663646115 -16.034710196020846 225.25506231354333 0 1 0 0.77714596973225614 0 0.62932038083071107 forward_v I I I I #
coedge $-1 $257 $258 $259 $260 reversed $99 $-1 #
coedge $-1 $163 $101 $261 $262 reversed $64 $-1 #
coedge $-1 $101 $162 $257 $263 reversed $64 $-1 #
coedge $-1 $259 $264 $101 $165 forward $254 $-1 #
edge $-1 $265 -26.666246158884064 $266 -22.447044023246193 $164 $267 forward 7 unknown #
loop $-1 $-1 $171 $102 #
plane-surface $-1 -19.583984525373708 -10.321651796553894 129.95221429746249 0.77714596973225614 0 0.62932038083071107 0.62932038083071107 0 -0.77714596973225614 forward_v I I I I #
loop $-1 $-1 $268 $66 #
coedge $-1 $169 $169 $170 $269 reversed $103 $-1 #
coedge $-1 $170 $170 $169 $269 forward $105 $-1 #
coedge $-1 $171 $171 $106 $172 forward $166 $-1 #
edge $-1 $270 0 $270 6.2831853071796004 $171 $271 forward 7 unknown #
loop $-1 $-1 $178 $107 #
plane-surface $-1 -19.583984525373708 -10.321651796553894 129.95221429746249 0.77714596973225614 0 0.62932038083071107 0.62932038083071107 0 -0.77714596973225614 forward_v I I I I #
loop $-1 $-1 $272 $69 #
coedge $-1 $176 $176 $177 $273 reversed $108 $-1 #
coedge $-1 $177 $177 $176 $273 forward $110 $-1 #
coedge $-1 $178 $178 $111 $179 forward $173 $-1 #
edge $-1 $274 0 $274 6.2831853071796004 $178 $275 forward 7 unknown #
face $-1 $276 $277 $27 $-1 $278 reversed single #
loop $-1 $-1 $279 $112 #
plane-surface $-1 -75.718863490707122 0 0 1 0 0 0 0 -1 forward_v I I I I #
coedge $-1 $191 $280 $193 $281 reversed $113 $-1 #
coedge $-1 $282 $115 $280 $283 forward $73 $-1 #
coedge $-1 $115 $282 $284 $285 forward $73 $-1 #
coedge $-1 $194 $193 $115 $187 reversed $195 $-1 #
edge $-1 $286 -47.148031363482971 $287 47.148031363482971 $186 $288 forward 7 unknown #
coedge $-1 $117 $116 $289 $290 forward $46 $-1 #
coedge $-1 $291 $292 $116 $190 reversed $277 $-1 #
edge $-1 $197 -75.718863490707122 $293 75.718863490707122 $189 $294 forward 7 unknown #
coedge $-1 $295 $183 $117 $192 reversed $113 $-1 #
edge $-1 $296 -75.718863490707122 $196 75.718863490707122 $191 $297 forward 7 unknown #
coedge $-1 $186 $118 $183 $281 forward $195 $-1 #
coedge $-1 $118 $186 $291 $298 reversed $195 $-1 #
loop $-1 $-1 $193 $276 #
vertex $-1 $119 $299 #
vertex $-1 $119 $300 #
straight-curve $-1 75.718863490707122 0 17.473275968675555 0 1 0 I I #
face $-1 $301 $302 $28 $-1 $303 reversed single #
loop $-1 $-1 $211 $120 #
plane-surface $-1 0 -58.66490768066673 -10.048720125544669 0 0 1 1 0 0 forward_v I I I I #
coedge $-1 $304 $305 $124 $207 forward $121 $-1 #
coedge $-1 $306 $123 $305 $307 forward $77 $-1 #
coedge $-1 $123 $306 $308 $309 forward $77 $-1 #
coedge $-1 $125 $124 $123 $206 reversed $49 $-1 #
edge $-1 $310 -75.718863490707122 $311 75.718863490707122 $123 $312 forward 7 unknown #
edge $-1 $311 -17.473275968675555 $213 -10.048720125544669 $202 $313 forward 7 unknown #
coedge $-1 $308 $314 $125 $209 forward $315 $-1 #
edge $-1 $212 10.048720125544669 $310 17.473275968675555 $208 $316 forward 7 unknown #
coedge $-1 $317 $126 $314 $318 forward $200 $-1 #
coedge $-1 $126 $317 $304 $319 forward $200 $-1 #
vertex $-1 $209 $320 #
vertex $-1 $319 $321 #
straight-curve $-1 0 -47.148031363482971 -10.048720125544669 1 0 0 I I #
face $-1 $322 $323 $29 $-1 $324 reversed single #
loop $-1 $-1 $325 $128 #
plane-surface $-1 0 70.181783997850488 -13.760998047110112 0 -1 0 0 0 -1 forward_v I I I I #
coedge $-1 $326 $134 $327 $328 forward $129 $-1 #
coedge $-1 $329 $131 $225 $330 reversed $81 $-1 #
coedge $-1 $131 $329 $331 $332 reversed $81 $-1 #
edge $-1 $333 -17.473275968675555 $227 -10.048720125544669 $131 $334 forward 7 unknown #
coedge $-1 $133 $132 $335 $336 reversed $52 $-1 #
coedge $-1 $337 $327 $133 $224 forward $338 $-1 #
edge $-1 $226 10.048720125544669 $339 17.473275968675555 $223 $340 forward 7 unknown #
coedge $-1 $134 $326 $219 $330 forward $129 $-1 #
vertex $-1 $224 $341 #
vertex $-1 $330 $342 #
straight-curve $-1 0 47.148031363482971 -10.048720125544669 -1 0 0 I I #
face $-1 $-1 $241 $30 $-1 $343 forward single #
loop $-1 $-1 $344 $136 #
plane-surface $-1 -75.718863490707122 0 0 1 0 0 0 0 -1 forward_v I I I I #
coedge $-1 $345 $346 $347 $348 reversed $137 $-1 #
coedge $-1 $349 $139 $141 $239 forward $85 $-1 #
coedge $-1 $139 $349 $345 $350 forward $85 $-1 #
coedge $-1 $347 $142 $139 $236 forward $241 $-1 #
edge $-1 $243 2.9893931499752924 $351 15.079721436085201 $235 $352 forward 7 unknown #
coedge $-1 $353 $354 $140 $238 forward $230 $-1 #
edge $-1 $355 -50.165607492914603 $242 -39.44375897201293 $237 $356 forward 7 unknown #
edge $-1 $243 -15.162983416039786 $355 -2.0097183471152325e-014 $141 $357 forward 7 unknown #
coedge $-1 $142 $347 $353 $358 forward $241 $-1 #
loop $-1 $-1 $347 $229 #
vertex $-1 $238 $359 #
vertex $-1 $143 $360 #
straight-curve $-1 -91.400754204587017 12.023950443005539 17.473275968675551 1 0 0 I I #
coedge $-1 $245 $245 $-1 $361 reversed $146 $-1 #
edge $-1 $362 0 $362 6.2831853071796004 $147 $363 forward 7 unknown #
vertex $-1 $150 $364 #
ellipse-curve $-1 -70.357939354657091 15.478329953322664 12.112351708224709 -0.70710678939079041 0 0.70710677298230451 1.0606601594734568 0 1.0606601840861856 1 I I #
coedge $-1 $249 $249 $-1 $365 reversed $153 $-1 #
edge $-1 $366 0 $366 6.2831853071796004 $154 $367 forward 7 unknown #
vertex $-1 $157 $368 #
ellipse-curve $-1 -70.357939354657091 20.659899218798344 12.112351708224709 -0.70710678939079041 0 0.70710677298230451 1.0606601594734568 0 1.0606601840861856 1 I I #
face $-1 $-1 $369 $33 $-1 $370 reversed single #
loop $-1 $-1 $164 $158 #
plane-surface $-1 0 0 17.473275968675555 0 0 1 1 0 0 forward_v I I I I #
coedge $-1 $371 $372 $373 $374 reversed $159 $-1 #
coedge $-1 $375 $161 $163 $263 forward $99 $-1 #
coedge $-1 $161 $375 $371 $376 forward $99 $-1 #
coedge $-1 $373 $164 $161 $260 forward $254 $-1 #
edge $-1 $266 -0.55223250119000689 $377 10.873884297743899 $259 $378 forward 7 unknown #
coedge $-1 $379 $380 $162 $262 forward $369 $-1 #
edge $-1 $381 -100.36453604832896 $265 -95.154255188096116 $261 $382 forward 7 unknown #
edge $-1 $266 144.73334831490976 $381 151.43772698141419 $163 $383 forward 7 unknown #
coedge $-1 $164 $373 $379 $384 forward $254 $-1 #
vertex $-1 $262 $385 #
vertex $-1 $165 $386 #
straight-curve $-1 49.052617331823058 -4.6085933970869402 17.473275968675551 -1 0 0 I I #
coedge $-1 $268 $268 $-1 $387 reversed $168 $-1 #
edge $-1 $388 0 $388 6.2831853071796004 $169 $389 forward 7 unknown #
vertex $-1 $172 $390 #
ellipse-curve $-1 73.609262422888179 -12.770105396325448 14.868135538559123 0.77714596973225614 0 0.62932038083071107 0.62932038083071107 0 -0.77714596973225614 1 I I #
coedge $-1 $272 $272 $-1 $391 reversed $175 $-1 #
edge $-1 $392 0 $392 6.2831853071796004 $176 $393 forward 7 unknown #
vertex $-1 $179 $394 #
ellipse-curve $-1 73.609262422888179 -7.8731981967823472 14.868135538559123 0.77714596973225614 0 0.62932038083071107 0.62932038083071107 0 -0.77714596973225614 1 I I #
face $-1 $-1 $195 $27 $-1 $395 reversed single #
loop $-1 $-1 $292 $180 #
plane-surface $-1 0 47.148031363482971 0 0 -1 0 0 0 -1 forward_v I I I I #
coedge $-1 $396 $289 $292 $397 forward $181 $-1 #
coedge $-1 $183 $295 $184 $283 reversed $113 $-1 #
edge $-1 $196 -17.473275968675555 $287 17.473275968675555 $193 $398 forward 7 unknown #
coedge $-1 $185 $184 $396 $399 forward $73 $-1 #
edge $-1 $287 -75.718863490707122 $400 75.718863490707122 $280 $401 forward 7 unknown #
coedge $-1 $292 $291 $185 $285 reversed $277 $-1 #
edge $-1 $402 -75.718863490707122 $286 75.718863490707122 $284 $403 forward 7 unknown #
vertex $-1 $187 $404 #
vertex $-1 $281 $405 #
straight-curve $-1 75.718863490707122 0 -17.473275968675555 0 -1 0 I I #
coedge $-1 $279 $406 $188 $290 reversed $181 $-1 #
edge $-1 $293 -47.148031363482971 $296 47.148031363482971 $289 $407 forward 7 unknown #
coedge $-1 $284 $189 $194 $298 forward $277 $-1 #
coedge $-1 $189 $284 $279 $397 reversed $277 $-1 #
vertex $-1 $190 $408 #
straight-curve $-1 0 47.148031363482971 17.473275968675555 -1 0 0 I I #
coedge $-1 $280 $191 $406 $409 forward $113 $-1 #
vertex $-1 $290 $410 #
straight-curve $-1 0 -47.148031363482971 17.473275968675555 1 0 0 I I #
edge $-1 $197 -17.473275968675555 $286 17.473275968675555 $194 $411 forward 7 unknown #
point $-1 75.718863490707122 -47.148031363482971 17.473275968675555 #
point $-1 75.718863490707122 47.148031363482971 17.473275968675555 #
face $-1 $-1 $315 $28 $-1 $412 reversed single #
loop $-1 $-1 $413 $199 #
plane-surface $-1 0 -70.181783997850488 -13.760998047110112 0 1 0 0 0 1 forward_v I I I I #
coedge $-1 $414 $202 $211 $319 reversed $121 $-1 #
coedge $-1 $202 $414 $203 $307 reversed $121 $-1 #
coedge $-1 $204 $203 $415 $416 forward $77 $-1 #
edge $-1 $311 47.148031363482971 $417 70.181783997850488 $305 $418 forward 7 unknown #
coedge $-1 $419 $208 $204 $309 reversed $315 $-1 #
edge $-1 $420 -70.181783997850488 $310 -47.148031363482971 $308 $421 forward 7 unknown #
vertex $-1 $209 $422 #
vertex $-1 $307 $423 #
straight-curve $-1 0 -47.148031363482971 -17.473275968675555 1 0 0 I I #
straight-curve $-1 75.718863490707122 -47.148031363482971 0 0 0 1 I I #
coedge $-1 $208 $419 $210 $318 reversed $315 $-1 #
loop $-1 $-1 $208 $301 #
straight-curve $-1 -75.718863490707122 -47.148031363482971 0 0 0 -1 I I #
coedge $-1 $211 $210 $424 $425 forward $200 $-1 #
edge $-1 $212 -11.516876317183758 $426 11.516876317183758 $314 $427 forward 7 unknown #
edge $-1 $428 -11.516876317183758 $213 11.516876317183758 $304 $429 forward 7 unknown #
point $-1 -75.718863490707122 -47.148031363482971 -10.048720125544669 #
point $-1 75.718863490707122 -47.148031363482971 -10.048720125544669 #
face $-1 $-1 $338 $29 $-1 $430 reversed single #
loop $-1 $-1 $335 $215 #
plane-surface $-1 0 0 -17.473275968675555 0 0 1 1 0 0 forward_v I I I I #
coedge $-1 $431 $432 $433 $434 forward $216 $-1 #
coedge $-1 $225 $218 $432 $435 forward $129 $-1 #
coedge $-1 $223 $433 $218 $328 reversed $338 $-1 #
edge $-1 $226 -11.516876317183758 $436 11.516876317183758 $327 $437 forward 7 unknown #
coedge $-1 $220 $219 $438 $439 forward $81 $-1 #
edge $-1 $440 -11.516876317183758 $227 11.516876317183758 $219 $441 forward 7 unknown #
coedge $-1 $442 $335 $220 $332 forward $323 $-1 #
edge $-1 $333 -11.516876317183758 $443 11.516876317183758 $220 $444 forward 7 unknown #
vertex $-1 $332 $445 #
straight-curve $-1 -75.718863490707122 47.148031363482971 0 0 0 1 I I #
coedge $-1 $331 $446 $222 $336 forward $323 $-1 #
edge $-1 $339 -75.718863490707122 $333 75.718863490707122 $335 $447 forward 7 unknown #
coedge $-1 $433 $223 $446 $448 reversed $338 $-1 #
loop $-1 $-1 $223 $322 #
vertex $-1 $224 $449 #
straight-curve $-1 75.718863490707122 47.148031363482971 0 0 0 -1 I I #
point $-1 75.718863490707122 47.148031363482971 -10.048720125544669 #
point $-1 -75.718863490707122 47.148031363482971 -10.048720125544669 #
plane-surface $-1 0 0 17.473275968675555 0 0 1 1 0 0 forward_v I I I I #
coedge $-1 $354 $353 $346 $450 forward $230 $-1 #
coedge $-1 $346 $232 $234 $350 reversed $137 $-1 #
coedge $-1 $232 $345 $344 $450 reversed $137 $-1 #
coedge $-1 $240 $235 $232 $348 forward $241 $-1 #
edge $-1 $351 -26.40373898597997 $451 -15.681890713879895 $347 $452 forward 7 unknown #
coedge $-1 $234 $233 $354 $453 reversed $85 $-1 #
edge $-1 $454 2.0097183471152325e-014 $351 15.162983416039786 $345 $455 forward 7 unknown #
vertex $-1 $236 $456 #
straight-curve $-1 -64.997015218607046 9.0345572930302467 17.473275968675551 0 1 0 I I #
coedge $-1 $344 $237 $240 $358 reversed $230 $-1 #
coedge $-1 $237 $344 $349 $453 forward $230 $-1 #
vertex $-1 $238 $457 #
straight-curve $-1 -75.718863490707122 12.023950443005539 56.917034940688481 0 0 1 I I #
straight-curve $-1 -75.718863490707136 12.023950443005539 6.7514274477738638 -0.70710677298230451 0 -0.70710678939079041 I I #
edge $-1 $451 -24.114278729115448 $242 -12.023950443005539 $353 $458 forward 7 unknown #
point $-1 -75.718863490707122 12.023950443005539 17.473275968675555 #
point $-1 -64.997015218607046 12.023950443005539 17.473275968675555 #
edge $-1 $459 1 $459 0 $245 $-1 forward 7 unknown #
vertex $-1 $246 $460 #
ellipse-curve $-1 -68.107981528934161 15.478329953322664 9.8623939347122942 -0.70710678939079041 0 0.70710677298230451 1.0606601594734568 0 1.0606601840861856 1 I I #
point $-1 -69.29727919518362 15.478329953322664 13.173011892310889 #
edge $-1 $461 1 $461 0 $249 $-1 forward 7 unknown #
vertex $-1 $250 $462 #
ellipse-curve $-1 -68.107981528934161 20.659899218798344 9.8623939347122942 -0.70710678939079041 0 0.70710677298230451 1.0606601594734568 0 1.0606601840861856 1 I I #
point $-1 -69.29727919518362 20.659899218798344 13.173011892310889 #
loop $-1 $-1 $261 $253 #
plane-surface $-1 75.718863490707122 0 0 -1 0 0 0 0 1 forward_v I I I I #
coedge $-1 $372 $256 $258 $376 reversed $159 $-1 #
coedge $-1 $256 $371 $463 $464 reversed $159 $-1 #
coedge $-1 $264 $259 $256 $374 forward $254 $-1 #
edge $-1 $377 22.447044023246193 $465 26.666246158884064 $373 $466 forward 7 unknown #
coedge $-1 $258 $257 $380 $467 reversed $99 $-1 #
edge $-1 $468 -151.43772698141419 $377 -144.73334831490976 $371 $469 forward 7 unknown #
vertex $-1 $260 $470 #
straight-curve $-1 71.49966135506925 -5.160825898276947 17.473275968675551 0 -1 0 I I #
coedge $-1 $463 $261 $264 $384 reversed $369 $-1 #
coedge $-1 $261 $463 $375 $467 forward $369 $-1 #
vertex $-1 $262 $471 #
straight-curve $-1 75.718863490707122 -4.6085933970869402 112.62753115677167 0 0 1 I I #
straight-curve $-1 -19.583984525373708 -4.6085933970869402 129.95221429746249 0.62932038083071107 0 -0.77714596973225614 I I #
edge $-1 $465 -16.034710196020846 $265 -4.6085933970869402 $379 $472 forward 7 unknown #
point $-1 75.718863490707122 -4.6085933970869402 17.473275968675555 #
point $-1 71.49966135506925 -4.6085933970869402 17.473275968675537 #
edge $-1 $473 1 $473 0 $268 $-1 forward 7 unknown #
vertex $-1 $269 $474 #
ellipse-curve $-1 71.33514931635392 -12.770105396325448 13.026595104721039 0.77714596973225614 0 0.62932038083071107 0.62932038083071107 0 -0.77714596973225614 1 I I #
point $-1 74.23858280371887 -12.770105396325448 14.090989568826849 #
edge $-1 $475 1 $475 0 $272 $-1 forward 7 unknown #
vertex $-1 $273 $476 #
ellipse-curve $-1 71.33514931635392 -7.8731981967823472 13.026595104721039 0.77714596973225614 0 0.62932038083071107 0.62932038083071107 0 -0.77714596973225614 1 I I #
point $-1 74.23858280371887 -7.8731981967823472 14.090989568826849 #
plane-surface $-1 75.718863490707122 0 0 -1 0 0 0 0 1 forward_v I I I I #
coedge $-1 $406 $279 $282 $399 reversed $181 $-1 #
edge $-1 $293 -17.473275968675555 $402 17.473275968675555 $292 $477 forward 7 unknown #
straight-curve $-1 75.718863490707122 -47.148031363482971 0 0 0 -1 I I #
edge $-1 $400 -47.148031363482971 $402 47.148031363482971 $396 $478 forward 7 unknown #
vertex $-1 $399 $479 #
straight-curve $-1 0 -47.148031363482971 -17.473275968675555 -1 0 0 I I #
vertex $-1 $285 $480 #
straight-curve $-1 0 47.148031363482971 -17.473275968675555 1 0 0 I I #
point $-1 75.718863490707122 47.148031363482971 -17.473275968675555 #
point $-1 75.718863490707122 -47.148031363482971 -17.473275968675555 #
coedge $-1 $289 $396 $295 $409 reversed $181 $-1 #
straight-curve $-1 -75.718863490707122 0 17.473275968675555 0 -1 0 I I #
point $-1 -75.718863490707122 47.148031363482971 17.473275968675555 #
edge $-1 $296 -17.473275968675555 $400 17.473275968675555 $406 $481 forward 7 unknown #
point $-1 -75.718863490707122 -47.148031363482971 17.473275968675555 #
straight-curve $-1 75.718863490707122 47.148031363482971 0 0 0 -1 I I #
plane-surface $-1 -75.718863490707122 0 0 1 0 0 0 0 -1 forward_v I I I I #
coedge $-1 $415 $424 $419 $482 forward $302 $-1 #
coedge $-1 $305 $304 $483 $484 forward $121 $-1 #
coedge $-1 $483 $413 $306 $416 reversed $302 $-1 #
edge $-1 $417 -75.718863490707122 $420 75.718863490707122 $415 $485 forward 7 unknown #
vertex $-1 $484 $486 #
straight-curve $-1 75.718863490707122 0 -17.473275968675555 0 -1 0 I I #
coedge $-1 $314 $308 $413 $482 reversed $315 $-1 #
vertex $-1 $309 $487 #
straight-curve $-1 -75.718863490707122 0 -17.473275968675555 0 1 0 I I #
point $-1 -75.718863490707122 -47.148031363482971 -17.473275968675555 #
point $-1 75.718863490707122 -47.148031363482971 -17.473275968675555 #
coedge $-1 $413 $483 $317 $425 reversed $302 $-1 #
edge $-1 $426 -75.718863490707122 $428 75.718863490707122 $424 $488 forward 7 unknown #
vertex $-1 $318 $489 #
straight-curve $-1 -75.718863490707122 -58.66490768066673 -10.048720125544669 0 -1 0 I I #
vertex $-1 $319 $490 #
straight-curve $-1 75.718863490707122 -58.66490768066673 -10.048720125544669 0 1 0 I I #
plane-surface $-1 75.718863490707122 0 0 -1 0 0 0 0 1 forward_v I I I I #
coedge $-1 $438 $325 $442 $491 reversed $216 $-1 #
coedge $-1 $325 $438 $326 $435 reversed $216 $-1 #
coedge $-1 $327 $337 $325 $434 reversed $338 $-1 #
edge $-1 $436 -3.7122779215654429 $492 3.7122779215654429 $433 $493 forward 7 unknown #
edge $-1 $436 -75.718863490707122 $440 75.718863490707122 $432 $494 forward 7 unknown #
vertex $-1 $328 $495 #
straight-curve $-1 75.718863490707122 58.66490768066673 -10.048720125544669 0 1 0 I I #
coedge $-1 $432 $431 $329 $439 reversed $216 $-1 #
edge $-1 $440 -3.7122779215654429 $443 3.7122779215654429 $438 $496 forward 7 unknown #
vertex $-1 $435 $497 #
straight-curve $-1 -75.718863490707122 58.66490768066673 -10.048720125544669 0 -1 0 I I #
coedge $-1 $446 $331 $431 $491 forward $323 $-1 #
vertex $-1 $491 $498 #
straight-curve $-1 -75.718863490707122 58.66490768066673 -17.473275968675555 0 1 0 I I #
point $-1 -75.718863490707122 47.148031363482971 -17.473275968675555 #
coedge $-1 $335 $442 $337 $448 forward $323 $-1 #
straight-curve $-1 0 47.148031363482971 -17.473275968675555 -1 0 0 I I #
edge $-1 $492 -70.181783997850488 $339 -47.148031363482971 $337 $499 forward 7 unknown #
point $-1 75.718863490707122 47.148031363482971 -17.473275968675555 #
edge $-1 $451 39.44375897201293 $454 50.165607492914603 $344 $500 forward 7 unknown #
vertex $-1 $358 $501 #
straight-curve $-1 -91.400754204587017 24.114278729115448 17.473275968675551 -1 0 0 I I #
edge $-1 $454 -15.079721436085201 $355 -2.9893931499752924 $354 $502 forward 7 unknown #
vertex $-1 $453 $503 #
straight-curve $-1 -75.718863490707136 24.114278729115448 6.7514274477738638 0.70710677298230451 0 0.70710678939079041 I I #
point $-1 -64.997015218607046 24.114278729115448 17.473275968675555 #
point $-1 -75.718863490707122 12.023950443005539 6.751427447773878 #
straight-curve $-1 -75.718863490707122 0 17.473275968675555 0 -1 0 I I #
vertex $-1 $361 $504 #
point $-1 -67.047321369460704 15.478329953322664 10.923054118798479 #
vertex $-1 $365 $505 #
point $-1 -67.047321369460704 20.659899218798344 10.923054118798479 #
coedge $-1 $380 $379 $372 $464 forward $369 $-1 #
edge $-1 $465 95.154255188096116 $468 100.36453604832896 $463 $506 forward 7 unknown #
vertex $-1 $384 $507 #
straight-curve $-1 49.052617331823058 -16.034710196020846 17.473275968675551 1 0 0 I I #
edge $-1 $468 -10.873884297743899 $381 0.55223250119000689 $380 $508 forward 7 unknown #
vertex $-1 $467 $509 #
straight-curve $-1 -19.583984525373708 -16.034710196020846 129.95221429746249 -0.62932038083071107 0 0.77714596973225614 I I #
point $-1 71.49966135506925 -16.034710196020846 17.473275968675537 #
point $-1 75.718863490707122 -4.6085933970869402 12.262995108442709 #
straight-curve $-1 75.718863490707122 0 17.473275968675555 0 1 0 I I #
vertex $-1 $387 $510 #
point $-1 71.964469697184626 -12.770105396325448 12.249449134988783 #
vertex $-1 $391 $511 #
point $-1 71.964469697184626 -7.8731981967823472 12.249449134988783 #
straight-curve $-1 -75.718863490707122 47.148031363482971 0 0 0 -1 I I #
straight-curve $-1 -75.718863490707122 0 -17.473275968675555 0 1 0 I I #
point $-1 -75.718863490707122 -47.148031363482971 -17.473275968675555 #
point $-1 -75.718863490707122 47.148031363482971 -17.473275968675555 #
straight-curve $-1 -75.718863490707122 -47.148031363482971 0 0 0 -1 I I #
edge $-1 $426 -3.7122779215654429 $420 3.7122779215654429 $419 $512 forward 7 unknown #
coedge $-1 $424 $415 $414 $484 reversed $302 $-1 #
edge $-1 $428 -3.7122779215654429 $417 3.7122779215654429 $414 $513 forward 7 unknown #
straight-curve $-1 0 -70.181783997850488 -17.473275968675555 -1 0 0 I I #
point $-1 75.718863490707122 -70.181783997850488 -17.473275968675555 #
point $-1 -75.718863490707122 -70.181783997850488 -17.473275968675555 #
straight-curve $-1 0 -70.181783997850488 -10.048720125544669 1 0 0 I I #
point $-1 -75.718863490707122 -70.181783997850488 -10.048720125544669 #
point $-1 75.718863490707122 -70.181783997850488 -10.048720125544669 #
edge $-1 $443 -75.718863490707122 $492 75.718863490707122 $431 $514 forward 7 unknown #
vertex $-1 $448 $515 #
straight-curve $-1 75.718863490707122 70.181783997850488 -13.760998047110112 0 0 -1 I I #
straight-curve $-1 0 70.181783997850488 -10.048720125544669 -1 0 0 I I #
point $-1 75.718863490707122 70.181783997850488 -10.048720125544669 #
straight-curve $-1 -75.718863490707122 70.181783997850488 -13.760998047110112 0 0 -1 I I #
point $-1 -75.718863490707122 70.181783997850488 -10.048720125544669 #
point $-1 -75.718863490707122 70.181783997850488 -17.473275968675555 #
straight-curve $-1 75.718863490707122 0 -17.473275968675555 0 -1 0 I I #
straight-curve $-1 -75.718863490707122 24.114278729115448 56.917034940688481 0 0 -1 I I #
point $-1 -75.718863490707122 24.114278729115448 17.473275968675555 #
straight-curve $-1 -75.718863490707122 9.0345572930302467 6.7514274477738745 0 -1 0 I I #
point $-1 -75.718863490707122 24.114278729115448 6.751427447773878 #
point $-1 -67.047321344847987 15.478329953322664 8.8017337752388372 #
point $-1 -67.047321344847987 20.659899218798344 8.8017337752388372 #
straight-curve $-1 75.718863490707122 -16.034710196020846 112.62753115677167 0 0 -1 I I #
point $-1 75.718863490707122 -16.034710196020846 17.473275968675555 #
straight-curve $-1 75.718863490707122 -5.160825898276947 12.262995108442709 0 1 0 I I #
point $-1 75.718863490707122 -16.034710196020846 12.262995108442709 #
point $-1 70.558003346621661 -12.770105396325448 12.397274723890327 #
point $-1 70.558003346621661 -7.8731981967823472 12.397274723890327 #
straight-curve $-1 -75.718863490707122 -70.181783997850488 -13.760998047110112 0 0 -1 I I #
straight-curve $-1 75.718863490707122 -70.181783997850488 -13.760998047110112 0 0 -1 I I #
straight-curve $-1 0 70.181783997850488 -17.473275968675555 1 0 0 I I #
point $-1 75.718863490707122 70.181783997850488 -17.473275968675555 #
End-of-ACIS-data 