500 0 8 0           
7 Unknown 11 ACIS 5.0 NT 24 Fri Mar 26 17:55:16 1999 
-1 9.9999999999999995e-007 1e-010 
body $-1 $8 $-1 $9 #
body $-1 $10 $-1 $11 #
body $-1 $12 $-1 $13 #
body $-1 $14 $-1 $15 #
body $-1 $16 $-1 $17 #
body $-1 $18 $-1 $19 #
body $-1 $20 $-1 $21 #
body $-1 $22 $-1 $23 #
lump $-1 $-1 $24 $0 #
transform $-1 1 0 0 0 1 0 0 0 1 43.211767937253946 29.006362441892389 7.5819145383637228 1 rotate no_reflect no_shear #
lump $-1 $-1 $25 $1 #
transform $-1 1 0 0 0 1 0 0 0 1 43.211767937253946 29.006362441892389 7.5819145383637228 1 rotate no_reflect no_shear #
lump $-1 $-1 $26 $2 #
transform $-1 1 0 0 0 1 0 0 0 1 43.211767937253946 29.006362441892389 7.5819145383637228 1 rotate no_reflect no_shear #
lump $-1 $-1 $27 $3 #
transform $-1 1 0 0 0 1 0 0 0 1 43.211767937253946 29.006362441892389 7.5819145383637228 1 rotate no_reflect no_shear #
lump $-1 $-1 $28 $4 #
transform $-1 1 0 0 0 1 0 0 0 1 43.211767937253946 29.006362441892389 7.5819145383637228 1 rotate no_reflect no_shear #
lump $-1 $-1 $29 $5 #
transform $-1 1 0 0 0 1 0 0 0 1 43.211767937253946 29.006362441892389 7.5819145383637228 1 rotate no_reflect no_shear #
lump $-1 $-1 $30 $6 #
transform $-1 1 0 0 0 1 0 0 0 1 43.211767937253946 29.006362441892389 7.5819145383637228 1 rotate no_reflect no_shear #
lump $-1 $-1 $31 $7 #
transform $-1 1 0 0 0 1 0 0 0 1 43.211767937253946 29.006362441892389 7.5819145383637228 1 rotate no_reflect no_shear #
shell $-1 $-1 $-1 $32 $-1 $8 #
shell $-1 $-1 $-1 $33 $-1 $10 #
shell $-1 $-1 $-1 $34 $-1 $12 #
shell $-1 $-1 $-1 $35 $-1 $14 #
shell $-1 $-1 $-1 $36 $-1 $16 #
shell $-1 $-1 $-1 $37 $-1 $18 #
shell $-1 $-1 $-1 $38 $-1 $20 #
shell $-1 $-1 $-1 $39 $-1 $22 #
face $-1 $40 $41 $24 $-1 $42 forward single #
face $-1 $43 $44 $25 $-1 $45 forward single #
face $-1 $46 $47 $26 $-1 $48 reversed single #
face $-1 $49 $50 $27 $-1 $51 forward single #
face $-1 $52 $53 $28 $-1 $54 forward single #
face $-1 $55 $56 $29 $-1 $57 reversed single #
face $-1 $58 $59 $30 $-1 $60 forward single #
face $-1 $61 $62 $31 $-1 $63 forward single #
face $-1 $64 $65 $24 $-1 $66 reversed single #
loop $-1 $-1 $67 $32 #
plane-surface $-1 0 0 7.5819145383637228 0 0 1 1 0 0 forward_v I I I I #
face $-1 $68 $69 $25 $-1 $70 reversed single #
loop $-1 $-1 $71 $33 #
plane-surface $-1 -38.308649989582634 0 -3.7893557115314493 0 0 1 1 0 0 forward_v I I I I #
face $-1 $72 $73 $26 $-1 $74 reversed single #
loop $-1 $-1 $75 $34 #
plane-surface $-1 12.499732621703892 -91.174252194457438 61.071275557686008 1 0 0 0 0.71933980857756763 -0.69465836192734942 forward_v I I I I #
face $-1 $76 $77 $27 $-1 $78 forward single #
loop $-1 $79 $80 $35 #
cone-surface $-1 16.200374031611858 -24.289229727733854 2.8059021272429772 0 0.71933980857756763 -0.69465836192734942 1.5 0 0 1 I I 0 1 1.5 forward I I I I #
face $-1 $81 $82 $28 $-1 $83 forward single #
loop $-1 $84 $85 $36 #
cone-surface $-1 21.751336146473811 -24.289229727733854 2.8059021272429772 0 0.71933980857756763 -0.69465836192734942 1.5 0 0 1 I I 0 1 1.5 forward I I I I #
face $-1 $86 $87 $29 $-1 $88 reversed single #
loop $-1 $-1 $89 $37 #
plane-surface $-1 10.051781506615296 34.686323549812371 105.15975165227977 1 0 0 0 -0.6018150307709319 -0.79863550430605224 forward_v I I I I #
face $-1 $90 $91 $30 $-1 $92 forward single #
loop $-1 $93 $94 $38 #
cone-surface $-1 15.335882969194877 24.088302140451869 3.4740372056273401 0 -0.6018150307709319 -0.79863550430605224 1.5 0 0 1 I I 0 1 1.5 forward I I I I #
face $-1 $95 $96 $31 $-1 $97 forward single #
loop $-1 $98 $99 $39 #
cone-surface $-1 23.262035163064247 24.088302140451869 3.4740372056273401 0 -0.6018150307709319 -0.79863550430605224 1.5 0 0 1 I I 0 1 1.5 forward I I I I #
face $-1 $100 $101 $24 $-1 $102 reversed single #
loop $-1 $-1 $103 $40 #
plane-surface $-1 0 0 -7.5819145383637228 0 0 1 1 0 0 forward_v I I I I #
coedge $-1 $104 $105 $106 $107 forward $41 $-1 #
face $-1 $108 $109 $25 $-1 $110 reversed single #
loop $-1 $-1 $111 $43 #
plane-surface $-1 -38.308649989582634 0 -6.7893557115314493 0 0 1 1 0 0 forward_v I I I I #
coedge $-1 $112 $113 $114 $115 forward $44 $-1 #
face $-1 $116 $117 $26 $-1 $118 reversed single #
loop $-1 $-1 $119 $46 #
plane-surface $-1 18.975855089042831 -29.006362441892385 1.0364436951308349 0 -0.71933980857756763 0.69465836192734942 1 0 0 forward_v I I I I #
coedge $-1 $120 $121 $122 $123 reversed $47 $-1 #
face $-1 $-1 $124 $27 $-1 $125 forward single #
loop $-1 $126 $127 $49 #
cone-surface $-1 16.200374031611858 -22.193035941696778 0.78163136629316554 0 0.71933980857756763 -0.69465836192734942 0.75 0 0 1 I I -0.70710678118654757 0.70710678118654757 0.75 forward I I I I #
loop $-1 $-1 $128 $35 #
coedge $-1 $80 $80 $129 $130 reversed $50 $-1 #
face $-1 $-1 $131 $28 $-1 $132 forward single #
loop $-1 $133 $134 $52 #
cone-surface $-1 21.751336146473811 -22.193035941696778 0.78163136629316554 0 0.71933980857756763 -0.69465836192734942 0.75 0 0 1 I I -0.70710678118654757 0.70710678118654757 0.75 forward I I I I #
loop $-1 $-1 $135 $36 #
coedge $-1 $85 $85 $136 $137 reversed $53 $-1 #
face $-1 $138 $139 $29 $-1 $140 reversed single #
loop $-1 $-1 $141 $55 #
plane-surface $-1 19.298959066129562 -17.324659351837333 36.138847495229953 0 0.6018150307709319 0.79863550430605224 1 0 0 forward_v I I I I #
coedge $-1 $142 $143 $144 $145 reversed $56 $-1 #
face $-1 $-1 $146 $30 $-1 $147 forward single #
loop $-1 $148 $149 $58 #
cone-surface $-1 15.335882969194877 22.936226838008306 1.9451816717485677 0 -0.6018150307709319 -0.79863550430605224 0.75 0 0 1 I I -0.70710678118654757 0.70710678118654757 0.75 forward I I I I #
loop $-1 $-1 $150 $38 #
coedge $-1 $94 $94 $151 $152 reversed $59 $-1 #
face $-1 $-1 $153 $31 $-1 $154 forward single #
loop $-1 $155 $156 $61 #
cone-surface $-1 23.262035163064247 22.936226838008306 1.9451816717485677 0 -0.6018150307709319 -0.79863550430605224 0.75 0 0 1 I I -0.70710678118654757 0.70710678118654757 0.75 forward I I I I #
loop $-1 $-1 $157 $39 #
coedge $-1 $99 $99 $158 $159 reversed $62 $-1 #
face $-1 $160 $161 $24 $-1 $162 reversed single #
loop $-1 $-1 $163 $64 #
plane-surface $-1 0 -29.006362441892389 0 0 1 0 0 0 1 forward_v I I I I #
coedge $-1 $164 $165 $166 $167 forward $65 $-1 #
coedge $-1 $168 $67 $169 $170 forward $41 $-1 #
coedge $-1 $67 $168 $171 $172 forward $41 $-1 #
coedge $-1 $173 $174 $67 $107 reversed $175 $-1 #
edge $-1 $176 -29.006362441892389 $177 29.006362441892389 $106 $178 forward 7 unknown #
face $-1 $179 $180 $25 $-1 $181 reversed single #
loop $-1 $-1 $182 $68 #
plane-surface $-1 -33.405532041911329 0 -5.2893557115314493 -1 0 0 0 0 1 forward_v I I I I #
coedge $-1 $183 $184 $185 $186 forward $69 $-1 #
coedge $-1 $187 $71 $188 $189 reversed $44 $-1 #
coedge $-1 $71 $187 $190 $191 reversed $44 $-1 #
coedge $-1 $182 $192 $71 $115 reversed $109 $-1 #
edge $-1 $193 -29.006362441892389 $194 29.006362441892389 $114 $195 forward 7 unknown #
face $-1 $196 $197 $26 $-1 $198 forward single #
loop $-1 $-1 $199 $72 #
plane-surface $-1 25.45197755638177 -91.174252194457438 61.071275557686008 -1 0 0 0 -0.71933980857756763 0.69465836192734942 forward_v I I I I #
coedge $-1 $200 $201 $202 $203 reversed $73 $-1 #
coedge $-1 $121 $75 $204 $205 reversed $47 $-1 #
coedge $-1 $75 $120 $200 $206 reversed $47 $-1 #
coedge $-1 $202 $207 $75 $123 forward $208 $-1 #
edge $-1 $209 22.953723240479281 $210 29.499194083712172 $122 $211 forward 7 unknown #
loop $-1 $-1 $129 $76 #
plane-surface $-1 18.975855089042831 -29.006362441892385 1.0364436951308349 0 -0.71933980857756763 0.69465836192734942 1 0 0 forward_v I I I I #
loop $-1 $-1 $212 $49 #
coedge $-1 $127 $127 $128 $213 reversed $77 $-1 #
coedge $-1 $128 $128 $127 $213 forward $79 $-1 #
coedge $-1 $129 $129 $80 $130 forward $124 $-1 #
edge $-1 $214 0 $214 6.2831853071796004 $129 $215 forward 7 unknown #
loop $-1 $-1 $136 $81 #
plane-surface $-1 18.975855089042831 -29.006362441892385 1.0364436951308349 0 -0.71933980857756763 0.69465836192734942 1 0 0 forward_v I I I I #
loop $-1 $-1 $216 $52 #
coedge $-1 $134 $134 $135 $217 reversed $82 $-1 #
coedge $-1 $135 $135 $134 $217 forward $84 $-1 #
coedge $-1 $136 $136 $85 $137 forward $131 $-1 #
edge $-1 $218 0 $218 6.2831853071796004 $136 $219 forward 7 unknown #
face $-1 $220 $221 $29 $-1 $222 reversed single #
loop $-1 $-1 $223 $86 #
plane-surface $-1 28.546136625643829 34.686323549812371 105.15975165227977 -1 0 0 0 0.6018150307709319 0.79863550430605224 forward_v I I I I #
coedge $-1 $224 $225 $226 $227 reversed $87 $-1 #
coedge $-1 $143 $89 $228 $229 reversed $56 $-1 #
coedge $-1 $89 $142 $224 $230 reversed $56 $-1 #
coedge $-1 $226 $231 $89 $145 forward $232 $-1 #
edge $-1 $233 -11.663200666986203 $234 -3.2285081228358692 $144 $235 forward 7 unknown #
loop $-1 $-1 $151 $90 #
plane-surface $-1 19.298959066129562 -17.324659351837333 36.138847495229953 0 0.6018150307709319 0.79863550430605224 1 0 0 forward_v I I I I #
loop $-1 $-1 $236 $58 #
coedge $-1 $149 $149 $150 $237 reversed $91 $-1 #
coedge $-1 $150 $150 $149 $237 forward $93 $-1 #
coedge $-1 $151 $151 $94 $152 forward $146 $-1 #
edge $-1 $238 2.1963688748574075e-016 $238 6.2831853071796004 $151 $239 forward 7 unknown #
loop $-1 $-1 $158 $95 #
plane-surface $-1 19.298959066129562 -17.324659351837333 36.138847495229953 0 0.6018150307709319 0.79863550430605224 1 0 0 forward_v I I I I #
loop $-1 $-1 $240 $61 #
coedge $-1 $156 $156 $157 $241 reversed $96 $-1 #
coedge $-1 $157 $157 $156 $241 forward $98 $-1 #
coedge $-1 $158 $158 $99 $159 forward $153 $-1 #
edge $-1 $242 2.1963688748574075e-016 $242 6.2831853071796004 $158 $243 forward 7 unknown #
face $-1 $244 $245 $24 $-1 $246 reversed single #
loop $-1 $-1 $247 $100 #
plane-surface $-1 -43.211767937253946 0 0 1 0 0 0 0 -1 forward_v I I I I #
coedge $-1 $248 $171 $249 $250 forward $101 $-1 #
coedge $-1 $251 $103 $248 $252 forward $65 $-1 #
coedge $-1 $103 $251 $253 $254 forward $65 $-1 #
coedge $-1 $174 $173 $103 $167 reversed $175 $-1 #
edge $-1 $255 -29.006362441892389 $256 29.006362441892389 $166 $257 forward 7 unknown #
coedge $-1 $105 $104 $258 $259 forward $41 $-1 #
coedge $-1 $260 $261 $104 $170 reversed $245 $-1 #
edge $-1 $177 -43.211767937253946 $262 43.211767937253946 $169 $263 forward 7 unknown #
coedge $-1 $163 $264 $105 $172 reversed $101 $-1 #
edge $-1 $265 -43.211767937253946 $176 43.211767937253946 $171 $266 forward 7 unknown #
coedge $-1 $166 $106 $264 $267 forward $175 $-1 #
coedge $-1 $106 $166 $260 $268 reversed $175 $-1 #
loop $-1 $-1 $173 $244 #
vertex $-1 $107 $269 #
vertex $-1 $107 $270 #
straight-curve $-1 43.211767937253946 0 7.5819145383637228 0 1 0 I I #
face $-1 $271 $272 $25 $-1 $273 reversed single #
loop $-1 $-1 $274 $108 #
plane-surface $-1 0 -29.006362441892389 0 0 1 0 0 0 1 forward_v I I I I #
coedge $-1 $185 $114 $275 $276 reversed $109 $-1 #
coedge $-1 $277 $111 $274 $278 reversed $69 $-1 #
coedge $-1 $111 $277 $279 $280 reversed $69 $-1 #
coedge $-1 $192 $182 $111 $186 reversed $109 $-1 #
edge $-1 $281 -29.006362441892389 $282 29.006362441892389 $185 $283 forward 7 unknown #
coedge $-1 $113 $112 $284 $285 reversed $44 $-1 #
coedge $-1 $286 $287 $112 $189 forward $288 $-1 #
edge $-1 $289 -24.057442942462622 $194 -14.251207047120012 $188 $290 forward 7 unknown #
coedge $-1 $291 $275 $113 $191 forward $180 $-1 #
edge $-1 $193 14.251207047120012 $292 24.057442942462622 $190 $293 forward 7 unknown #
coedge $-1 $114 $185 $286 $294 reversed $109 $-1 #
vertex $-1 $191 $295 #
vertex $-1 $189 $296 #
straight-curve $-1 -33.405532041911329 0 -3.7893557115314493 0 1 0 I I #
face $-1 $-1 $208 $26 $-1 $297 reversed single #
loop $-1 $-1 $298 $116 #
plane-surface $-1 0 0 7.5819145383637228 0 0 1 1 0 0 forward_v I I I I #
coedge $-1 $299 $300 $301 $302 reversed $117 $-1 #
coedge $-1 $303 $119 $121 $206 forward $73 $-1 #
coedge $-1 $119 $303 $299 $304 forward $73 $-1 #
coedge $-1 $301 $122 $119 $203 forward $208 $-1 #
edge $-1 $210 3.0118050771824763 $305 15.964050011860355 $202 $306 forward 7 unknown #
coedge $-1 $307 $308 $120 $205 forward $197 $-1 #
edge $-1 $309 -22.901651224445597 $209 -16.58076365533633 $204 $310 forward 7 unknown #
edge $-1 $210 -5.1832561657541554e-015 $309 9.0992751481055816 $121 $311 forward 7 unknown #
coedge $-1 $122 $301 $307 $312 reversed $208 $-1 #
loop $-1 $-1 $301 $196 #
vertex $-1 $312 $313 #
vertex $-1 $123 $314 #
straight-curve $-1 12.499732621703892 -29.006362441892389 30.535637778843004 0 0 -1 I I #
coedge $-1 $212 $212 $-1 $315 reversed $126 $-1 #
edge $-1 $316 0 $316 6.2831853071796004 $127 $317 forward 7 unknown #
vertex $-1 $130 $318 #
ellipse-curve $-1 16.200374031611858 -25.845918657337755 4.309179116747277 0 -0.71933980857756763 0.69465836192734942 1.5 0 0 1 I I #
coedge $-1 $216 $216 $-1 $319 reversed $133 $-1 #
edge $-1 $320 0 $320 6.2831853071796004 $134 $321 forward 7 unknown #
vertex $-1 $137 $322 #
ellipse-curve $-1 21.751336146473811 -25.845918657337755 4.309179116747277 0 -0.71933980857756763 0.69465836192734942 1.5 0 0 1 I I #
face $-1 $-1 $232 $29 $-1 $323 forward single #
loop $-1 $-1 $324 $138 #
plane-surface $-1 0 29.006362441892389 0 0 -1 0 0 0 -1 forward_v I I I I #
coedge $-1 $325 $326 $327 $328 reversed $139 $-1 #
coedge $-1 $329 $141 $143 $230 forward $87 $-1 #
coedge $-1 $141 $329 $325 $330 forward $87 $-1 #
coedge $-1 $327 $144 $141 $227 forward $232 $-1 #
edge $-1 $234 0.40230197355051445 $331 18.896657092579048 $226 $332 forward 7 unknown #
coedge $-1 $333 $334 $142 $229 forward $221 $-1 #
edge $-1 $335 -51.353958141950471 $233 -44.997961287776164 $228 $336 forward 7 unknown #
edge $-1 $234 47.45134550774592 $335 58.012724883784784 $143 $337 forward 7 unknown #
coedge $-1 $144 $327 $333 $338 forward $232 $-1 #
loop $-1 $-1 $327 $220 #
vertex $-1 $229 $339 #
vertex $-1 $145 $340 #
straight-curve $-1 10.051781506615296 17.343161774906186 7.5819145383637192 0 -1 0 I I #
coedge $-1 $236 $236 $-1 $341 reversed $148 $-1 #
edge $-1 $342 0 $342 6.2831853071796004 $149 $343 forward 7 unknown #
vertex $-1 $152 $344 #
ellipse-curve $-1 15.335882969194877 24.789016169817227 4.4039161112765637 0 0.6018150307709319 0.79863550430605224 1.5 0 0 1 I I #
coedge $-1 $240 $240 $-1 $345 reversed $155 $-1 #
edge $-1 $346 0 $346 6.2831853071796004 $156 $347 forward 7 unknown #
vertex $-1 $159 $348 #
ellipse-curve $-1 23.262035163064247 24.789016169817227 4.4039161112765637 0 0.6018150307709319 0.79863550430605224 1.5 0 0 1 I I #
face $-1 $-1 $175 $24 $-1 $349 reversed single #
loop $-1 $-1 $260 $160 #
plane-surface $-1 0 29.006362441892389 0 0 -1 0 0 0 -1 forward_v I I I I #
coedge $-1 $350 $258 $261 $351 forward $161 $-1 #
coedge $-1 $264 $163 $164 $252 reversed $101 $-1 #
coedge $-1 $258 $350 $163 $250 reversed $161 $-1 #
edge $-1 $265 -7.5819145383637228 $352 7.5819145383637228 $249 $353 forward 7 unknown #
coedge $-1 $165 $164 $350 $354 forward $65 $-1 #
edge $-1 $256 -43.211767937253946 $352 43.211767937253946 $248 $355 forward 7 unknown #
coedge $-1 $261 $260 $165 $254 reversed $245 $-1 #
edge $-1 $356 -43.211767937253946 $255 43.211767937253946 $253 $357 forward 7 unknown #
vertex $-1 $167 $358 #
vertex $-1 $267 $359 #
straight-curve $-1 43.211767937253946 0 -7.5819145383637228 0 -1 0 I I #
coedge $-1 $247 $249 $168 $259 reversed $161 $-1 #
edge $-1 $262 -29.006362441892389 $265 29.006362441892389 $258 $360 forward 7 unknown #
coedge $-1 $253 $169 $174 $268 forward $245 $-1 #
coedge $-1 $169 $253 $247 $351 reversed $245 $-1 #
vertex $-1 $170 $361 #
straight-curve $-1 0 29.006362441892389 7.5819145383637228 -1 0 0 I I #
coedge $-1 $171 $248 $173 $267 reversed $101 $-1 #
vertex $-1 $259 $362 #
straight-curve $-1 0 -29.006362441892389 7.5819145383637228 1 0 0 I I #
edge $-1 $176 -7.5819145383637228 $256 7.5819145383637228 $173 $363 forward 7 unknown #
edge $-1 $177 -7.5819145383637228 $255 7.5819145383637228 $174 $364 forward 7 unknown #
point $-1 43.211767937253946 -29.006362441892389 7.5819145383637228 #
point $-1 43.211767937253946 29.006362441892389 7.5819145383637228 #
face $-1 $-1 $288 $25 $-1 $365 reversed single #
loop $-1 $-1 $366 $179 #
plane-surface $-1 -43.211767937253946 0 0 1 0 0 0 0 -1 forward_v I I I I #
coedge $-1 $275 $291 $183 $278 forward $180 $-1 #
coedge $-1 $190 $274 $182 $276 forward $180 $-1 #
edge $-1 $282 -4.1446778557657247 $193 -1.1446778557657247 $275 $367 forward 7 unknown #
coedge $-1 $184 $183 $366 $368 reversed $69 $-1 #
edge $-1 $369 -24.057442942462622 $282 -14.251207047120012 $274 $370 forward 7 unknown #
coedge $-1 $287 $286 $184 $280 forward $288 $-1 #
edge $-1 $281 14.251207047120012 $371 24.057442942462622 $279 $372 forward 7 unknown #
vertex $-1 $280 $373 #
vertex $-1 $278 $374 #
straight-curve $-1 -33.405532041911329 0 -6.7893557115314493 0 -1 0 I I #
coedge $-1 $375 $376 $187 $285 forward $272 $-1 #
edge $-1 $292 -29.006362441892389 $289 29.006362441892389 $284 $377 forward 7 unknown #
coedge $-1 $279 $188 $192 $294 forward $288 $-1 #
coedge $-1 $188 $279 $375 $378 reversed $288 $-1 #
loop $-1 $-1 $279 $271 #
vertex $-1 $378 $379 #
straight-curve $-1 -19.154324994791317 29.006362441892389 -3.7893557115314493 1 0 0 I I #
coedge $-1 $274 $190 $376 $380 forward $180 $-1 #
vertex $-1 $380 $381 #
straight-curve $-1 -19.154324994791317 -29.006362441892389 -3.7893557115314493 -1 0 0 I I #
edge $-1 $194 1.1446778557657247 $281 4.1446778557657247 $286 $382 forward 7 unknown #
point $-1 -33.405532041911329 -29.006362441892389 -3.7893557115314493 #
point $-1 -33.405532041911329 29.006362441892389 -3.7893557115314493 #
plane-surface $-1 0 -29.006362441892389 0 0 1 0 0 0 1 forward_v I I I I #
coedge $-1 $308 $307 $300 $383 forward $197 $-1 #
coedge $-1 $300 $199 $201 $304 reversed $117 $-1 #
coedge $-1 $199 $299 $298 $383 reversed $117 $-1 #
coedge $-1 $207 $202 $199 $302 forward $208 $-1 #
edge $-1 $305 -29.499194083712172 $384 -22.953723240479281 $301 $385 forward 7 unknown #
coedge $-1 $201 $200 $308 $386 reversed $73 $-1 #
edge $-1 $387 -9.0992751481055816 $305 5.1832561657541554e-015 $299 $388 forward 7 unknown #
vertex $-1 $203 $389 #
straight-curve $-1 9.4879275445214155 -29.006362441892389 1.0364436951308276 1 0 0 I I #
coedge $-1 $298 $204 $207 $312 forward $197 $-1 #
coedge $-1 $204 $298 $303 $386 forward $197 $-1 #
vertex $-1 $205 $390 #
straight-curve $-1 12.499732621703892 -45.587126097228719 7.5819145383637228 0 -1 0 I I #
straight-curve $-1 12.499732621703892 -29.006362441892385 1.0364436951308349 0 0.69465836192734942 0.71933980857756763 I I #
edge $-1 $209 12.499732621703892 $384 25.45197755638177 $207 $391 forward 7 unknown #
point $-1 12.499732621703892 -29.006362441892389 7.5819145383637228 #
point $-1 12.499732621703892 -29.006362441892389 1.0364436951308311 #
edge $-1 $392 1 $392 0 $212 $-1 forward 7 unknown #
vertex $-1 $213 $393 #
ellipse-curve $-1 16.200374031611858 -22.732540798129953 1.3026251377386777 0 -0.71933980857756763 0.69465836192734942 1.5 0 0 1 I I #
point $-1 17.700374031611858 -25.845918657337755 4.309179116747277 #
edge $-1 $394 1 $394 0 $216 $-1 forward 7 unknown #
vertex $-1 $217 $395 #
ellipse-curve $-1 21.751336146473811 -22.732540798129953 1.3026251377386777 0 -0.71933980857756763 0.69465836192734942 1.5 0 0 1 I I #
point $-1 23.251336146473811 -25.845918657337755 4.309179116747277 #
plane-surface $-1 0 0 7.5819145383637228 0 0 1 1 0 0 forward_v I I I I #
coedge $-1 $334 $333 $326 $396 forward $221 $-1 #
coedge $-1 $326 $223 $225 $330 reversed $139 $-1 #
coedge $-1 $223 $325 $324 $396 reversed $139 $-1 #
coedge $-1 $231 $226 $223 $328 forward $232 $-1 #
edge $-1 $331 3.2285081228358692 $397 11.663200666986203 $327 $398 forward 7 unknown #
coedge $-1 $225 $224 $334 $399 reversed $87 $-1 #
edge $-1 $400 -58.012724883784784 $331 -47.45134550774592 $325 $401 forward 7 unknown #
vertex $-1 $227 $402 #
straight-curve $-1 9.6494795330647811 20.571669897742055 7.5819145383637228 1 0 0 I I #
coedge $-1 $324 $228 $231 $338 reversed $221 $-1 #
coedge $-1 $228 $324 $329 $399 forward $221 $-1 #
vertex $-1 $229 $403 #
straight-curve $-1 10.051781506615296 29.006362441892389 52.579875826139883 0 0 1 I I #
straight-curve $-1 10.051781506615296 -17.324659351837333 36.138847495229953 0 0.79863550430605224 -0.6018150307709319 I I #
edge $-1 $397 -28.546136625643829 $233 -10.051781506615296 $333 $404 forward 7 unknown #
point $-1 10.051781506615296 29.006362441892389 7.5819145383637228 #
point $-1 10.051781506615296 20.571669897742055 7.5819145383637228 #
edge $-1 $405 1 $405 0 $236 $-1 forward 7 unknown #
vertex $-1 $237 $406 #
ellipse-curve $-1 15.335882969194877 23.387588111086504 2.5441582999781067 0 0.6018150307709319 0.79863550430605224 1.5 0 0 1 I I #
point $-1 16.835882969194877 24.789016169817234 4.4039161112765726 #
edge $-1 $407 1 $407 0 $240 $-1 forward 7 unknown #
vertex $-1 $241 $408 #
ellipse-curve $-1 23.262035163064247 23.387588111086504 2.5441582999781067 0 0.6018150307709319 0.79863550430605224 1.5 0 0 1 I I #
point $-1 24.762035163064247 24.789016169817234 4.4039161112765726 #
plane-surface $-1 43.211767937253946 0 0 -1 0 0 0 0 1 forward_v I I I I #
coedge $-1 $249 $247 $251 $354 reversed $161 $-1 #
edge $-1 $262 -7.5819145383637228 $356 7.5819145383637228 $261 $409 forward 7 unknown #
vertex $-1 $354 $410 #
straight-curve $-1 -43.211767937253946 -29.006362441892389 0 0 0 -1 I I #
edge $-1 $352 -29.006362441892389 $356 29.006362441892389 $350 $411 forward 7 unknown #
straight-curve $-1 0 -29.006362441892389 -7.5819145383637228 -1 0 0 I I #
vertex $-1 $254 $412 #
straight-curve $-1 0 29.006362441892389 -7.5819145383637228 1 0 0 I I #
point $-1 43.211767937253946 29.006362441892389 -7.5819145383637228 #
point $-1 43.211767937253946 -29.006362441892389 -7.5819145383637228 #
straight-curve $-1 -43.211767937253946 0 7.5819145383637228 0 -1 0 I I #
point $-1 -43.211767937253946 29.006362441892389 7.5819145383637228 #
point $-1 -43.211767937253946 -29.006362441892389 7.5819145383637228 #
straight-curve $-1 43.211767937253946 -29.006362441892389 0 0 0 -1 I I #
straight-curve $-1 43.211767937253946 29.006362441892389 0 0 0 -1 I I #
plane-surface $-1 0 29.006362441892389 0 0 -1 0 0 0 -1 forward_v I I I I #
coedge $-1 $376 $375 $277 $368 forward $272 $-1 #
straight-curve $-1 -33.405532041911329 -29.006362441892389 -2.6446778557657247 0 0 1 I I #
edge $-1 $371 -29.006362441892389 $369 29.006362441892389 $366 $413 forward 7 unknown #
vertex $-1 $278 $414 #
straight-curve $-1 -19.154324994791317 -29.006362441892389 -6.7893557115314493 1 0 0 I I #
vertex $-1 $280 $415 #
straight-curve $-1 -19.154324994791317 29.006362441892389 -6.7893557115314493 -1 0 0 I I #
point $-1 -33.405532041911329 29.006362441892389 -6.7893557115314493 #
point $-1 -33.405532041911329 -29.006362441892389 -6.7893557115314493 #
coedge $-1 $366 $284 $287 $378 forward $272 $-1 #
coedge $-1 $284 $366 $291 $380 reversed $272 $-1 #
straight-curve $-1 -43.211767937253946 0 -3.7893557115314493 0 1 0 I I #
edge $-1 $289 3.7893557115314493 $371 6.7893557115314493 $287 $416 forward 7 unknown #
point $-1 -43.211767937253938 29.006362441892389 -3.7893557115314493 #
edge $-1 $292 3.7893557115314493 $369 6.7893557115314493 $376 $417 forward 7 unknown #
point $-1 -43.211767937253938 -29.006362441892389 -3.7893557115314493 #
straight-curve $-1 -33.405532041911329 29.006362441892389 -2.6446778557657247 0 0 -1 I I #
edge $-1 $384 16.58076365533633 $387 22.901651224445597 $298 $418 forward 7 unknown #
vertex $-1 $383 $419 #
straight-curve $-1 25.45197755638177 -29.006362441892389 30.535637778843004 0 0 1 I I #
edge $-1 $387 -15.964050011860355 $309 -3.0118050771824763 $308 $420 forward 7 unknown #
vertex $-1 $386 $421 #
straight-curve $-1 25.45197755638177 -29.006362441892385 1.0364436951308349 0 -0.69465836192734942 -0.71933980857756763 I I #
point $-1 25.45197755638177 -29.006362441892389 1.0364436951308311 #
point $-1 12.499732621703892 -22.685474872783121 7.5819145383637219 #
straight-curve $-1 0 -29.006362441892389 7.5819145383637228 1 0 0 I I #
vertex $-1 $315 $422 #
point $-1 17.700374031611858 -22.732540798129953 1.3026251377386777 #
vertex $-1 $319 $423 #
point $-1 23.251336146473811 -22.732540798129953 1.3026251377386777 #
edge $-1 $397 44.997961287776164 $400 51.353958141950471 $324 $424 forward 7 unknown #
vertex $-1 $338 $425 #
straight-curve $-1 28.546136625643829 17.343161774906186 7.5819145383637192 0 1 0 I I #
edge $-1 $400 -18.896657092579048 $335 -0.40230197355051445 $334 $426 forward 7 unknown #
vertex $-1 $399 $427 #
straight-curve $-1 28.546136625643829 -17.324659351837333 36.138847495229953 0 -0.79863550430605224 0.6018150307709319 I I #
point $-1 28.546136625643829 20.571669897742055 7.5819145383637228 #
point $-1 10.051781506615296 29.006362441892385 1.2259176841894117 #
straight-curve $-1 0 29.006362441892389 7.5819145383637228 -1 0 0 I I #
vertex $-1 $341 $428 #
point $-1 16.835882969194877 23.387588111086504 2.5441582999781067 #
vertex $-1 $345 $429 #
point $-1 24.762035163064247 23.387588111086504 2.5441582999781067 #
straight-curve $-1 -43.211767937253946 29.006362441892389 0 0 0 -1 I I #
point $-1 -43.211767937253946 -29.006362441892389 -7.5819145383637228 #
straight-curve $-1 -43.211767937253946 0 -7.5819145383637228 0 1 0 I I #
point $-1 -43.211767937253946 29.006362441892389 -7.5819145383637228 #
straight-curve $-1 -43.211767937253946 0 -6.7893557115314493 0 -1 0 I I #
point $-1 -43.211767937253938 -29.006362441892389 -6.7893557115314493 #
point $-1 -43.211767937253938 29.006362441892389 -6.7893557115314493 #
straight-curve $-1 -43.211767937253946 29.006362441892389 0 0 0 -1 I I #
straight-curve $-1 -43.211767937253946 -29.006362441892389 0 0 0 -1 I I #
straight-curve $-1 25.45197755638177 -45.587126097228719 7.5819145383637228 0 1 0 I I #
point $-1 25.45197755638177 -29.006362441892389 7.5819145383637228 #
straight-curve $-1 9.4879275445214155 -22.685474872783125 7.5819145383637228 -1 0 0 I I #
point $-1 25.45197755638177 -22.685474872783121 7.5819145383637219 #
point $-1 16.200374031611858 -21.653531085263602 0.26063759484765348 #
point $-1 21.751336146473811 -21.653531085263602 0.26063759484765348 #
straight-curve $-1 28.546136625643829 29.006362441892389 52.579875826139883 0 0 -1 I I #
point $-1 28.546136625643829 29.006362441892389 7.5819145383637228 #
straight-curve $-1 9.6494795330647811 29.006362441892385 1.2259176841894153 -1 0 0 I I #
point $-1 28.546136625643829 29.006362441892385 1.2259176841894117 #
point $-1 15.335882969194877 22.484865564930107 1.3462050435190285 #
point $-1 23.262035163064247 22.484865564930107 1.3462050435190285 #
End-of-ACIS-data 