500 0 14 0           
7 Unknown 11 ACIS 5.0 NT 24 Fri Mar 26 17:29:21 1999 
-1 9.9999999999999995e-007 1e-010 
body $-1 $14 $-1 $15 #
body $-1 $16 $-1 $17 #
body $-1 $18 $-1 $19 #
body $-1 $20 $-1 $21 #
body $-1 $22 $-1 $23 #
body $-1 $24 $-1 $25 #
body $-1 $26 $-1 $27 #
body $-1 $28 $-1 $29 #
body $-1 $30 $-1 $31 #
body $-1 $32 $-1 $33 #
body $-1 $34 $-1 $35 #
body $-1 $36 $-1 $37 #
body $-1 $38 $-1 $39 #
body $-1 $40 $-1 $41 #
lump $-1 $-1 $42 $0 #
transform $-1 1 0 0 0 1 0 0 0 1 68.256477553636273 44.193085195346058 15.700029485213303 1 rotate no_reflect no_shear #
lump $-1 $-1 $43 $1 #
transform $-1 1 0 0 0 1 0 0 0 1 68.256477553636273 44.193085195346058 15.700029485213303 1 rotate no_reflect no_shear #
lump $-1 $-1 $44 $2 #
transform $-1 1 0 0 0 1 0 0 0 1 68.256477553636273 44.193085195346058 15.700029485213303 1 rotate no_reflect no_shear #
lump $-1 $-1 $45 $3 #
transform $-1 1 0 0 0 1 0 0 0 1 68.256477553636273 44.193085195346058 15.700029485213303 1 rotate no_reflect no_shear #
lump $-1 $-1 $46 $4 #
transform $-1 1 0 0 0 1 0 0 0 1 68.256477553636273 44.193085195346058 15.700029485213303 1 rotate no_reflect no_shear #
lump $-1 $-1 $47 $5 #
transform $-1 1 0 0 0 1 0 0 0 1 68.256477553636273 44.193085195346058 15.700029485213303 1 rotate no_reflect no_shear #
lump $-1 $-1 $48 $6 #
transform $-1 1 0 0 0 1 0 0 0 1 68.256477553636273 44.193085195346058 15.700029485213303 1 rotate no_reflect no_shear #
lump $-1 $-1 $49 $7 #
transform $-1 1 0 0 0 1 0 0 0 1 68.256477553636273 44.193085195346058 15.700029485213303 1 rotate no_reflect no_shear #
lump $-1 $-1 $50 $8 #
transform $-1 1 0 0 0 1 0 0 0 1 68.256477553636273 44.193085195346058 15.700029485213303 1 rotate no_reflect no_shear #
lump $-1 $-1 $51 $9 #
transform $-1 1 0 0 0 1 0 0 0 1 68.256477553636273 44.193085195346058 15.700029485213303 1 rotate no_reflect no_shear #
lump $-1 $-1 $52 $10 #
transform $-1 1 0 0 0 1 0 0 0 1 68.256477553636273 44.193085195346058 15.700029485213303 1 rotate no_reflect no_shear #
lump $-1 $-1 $53 $11 #
transform $-1 1 0 0 0 1 0 0 0 1 68.256477553636273 44.193085195346058 15.700029485213303 1 rotate no_reflect no_shear #
lump $-1 $-1 $54 $12 #
transform $-1 1 0 0 0 1 0 0 0 1 68.256477553636273 44.193085195346058 15.700029485213303 1 rotate no_reflect no_shear #
lump $-1 $-1 $55 $13 #
transform $-1 1 0 0 0 1 0 0 0 1 68.256477553636273 44.193085195346058 15.700029485213303 1 rotate no_reflect no_shear #
shell $-1 $-1 $-1 $56 $-1 $14 #
shell $-1 $-1 $-1 $57 $-1 $16 #
shell $-1 $-1 $-1 $58 $-1 $18 #
shell $-1 $-1 $-1 $59 $-1 $20 #
shell $-1 $-1 $-1 $60 $-1 $22 #
shell $-1 $-1 $-1 $61 $-1 $24 #
shell $-1 $-1 $-1 $62 $-1 $26 #
shell $-1 $-1 $-1 $63 $-1 $28 #
shell $-1 $-1 $-1 $64 $-1 $30 #
shell $-1 $-1 $-1 $65 $-1 $32 #
shell $-1 $-1 $-1 $66 $-1 $34 #
shell $-1 $-1 $-1 $67 $-1 $36 #
shell $-1 $-1 $-1 $68 $-1 $38 #
shell $-1 $-1 $-1 $69 $-1 $40 #
face $-1 $70 $71 $42 $-1 $72 forward single #
face $-1 $73 $74 $43 $-1 $75 reversed single #
face $-1 $76 $77 $44 $-1 $78 reversed single #
face $-1 $79 $80 $45 $-1 $81 forward single #
face $-1 $82 $83 $46 $-1 $84 forward single #
face $-1 $85 $86 $47 $-1 $87 reversed single #
face $-1 $88 $89 $48 $-1 $90 forward single #
face $-1 $91 $92 $49 $-1 $93 forward single #
face $-1 $94 $95 $50 $-1 $96 reversed single #
face $-1 $97 $98 $51 $-1 $99 forward single #
face $-1 $100 $101 $52 $-1 $102 forward single #
face $-1 $103 $104 $53 $-1 $105 reversed single #
face $-1 $106 $107 $54 $-1 $108 forward single #
face $-1 $109 $110 $55 $-1 $111 forward single #
face $-1 $112 $113 $42 $-1 $114 reversed single #
loop $-1 $-1 $115 $56 #
plane-surface $-1 0 0 15.700029485213303 0 0 1 1 0 0 forward_v I I I I #
face $-1 $116 $117 $43 $-1 $118 reversed single #
loop $-1 $-1 $119 $57 #
plane-surface $-1 -59.481791589921833 0 7.9478075224745712 0 0 1 1 0 0 forward_v I I I I #
face $-1 $120 $121 $44 $-1 $122 reversed single #
loop $-1 $-1 $123 $58 #
plane-surface $-1 28.117365705336027 -22.096542597673029 196.33869542115889 0 -1 0 -0.54463904215088732 0 -0.83867056331134215 forward_v I I I I #
face $-1 $124 $125 $45 $-1 $126 forward single #
loop $-1 $127 $128 $59 #
cone-surface $-1 61.194190972207345 -31.245593474212612 10.447613145587869 -0.54463904215088732 0 -0.83867056331134215 1.2580058449670133 0 -0.81695856322633098 1 I I 0 1 1.5 forward I I I I #
face $-1 $129 $130 $46 $-1 $131 forward single #
loop $-1 $132 $133 $60 #
cone-surface $-1 61.194190972207345 -25.756162948288861 10.447613145587869 -0.54463904215088732 0 -0.83867056331134215 1.2580058449670133 0 -0.81695856322633098 1 I I 0 1 1.5 forward I I I I #
face $-1 $134 $135 $47 $-1 $136 reversed single #
loop $-1 $-1 $137 $61 #
plane-surface $-1 28.117365705336027 0 196.33869542115889 0 -1 0 -0.54463904215088732 0 -0.83867056331134215 forward_v I I I I #
face $-1 $138 $139 $48 $-1 $140 forward single #
loop $-1 $141 $142 $62 #
cone-surface $-1 61.194190972207345 -9.149050876539583 10.447613145587869 -0.54463904215088732 0 -0.83867056331134215 1.2580058449670133 0 -0.81695856322633098 1 I I 0 1 1.5 forward I I I I #
face $-1 $143 $144 $49 $-1 $145 forward single #
loop $-1 $146 $147 $63 #
cone-surface $-1 61.194190972207345 -3.6596203506158318 10.447613145587869 -0.54463904215088732 0 -0.83867056331134215 1.2580058449670133 0 -0.81695856322633098 1 I I 0 1 1.5 forward I I I I #
face $-1 $148 $149 $50 $-1 $150 reversed single #
loop $-1 $-1 $151 $64 #
plane-surface $-1 28.117365705336027 22.096542597673029 196.33869542115889 0 -1 0 -0.54463904215088732 0 -0.83867056331134215 forward_v I I I I #
face $-1 $152 $153 $51 $-1 $154 forward single #
loop $-1 $155 $156 $65 #
cone-surface $-1 61.194190972207345 12.947491721133446 10.447613145587869 -0.54463904215088732 0 -0.83867056331134215 1.2580058449670133 0 -0.81695856322633098 1 I I 0 1 1.5 forward I I I I #
face $-1 $157 $158 $52 $-1 $159 forward single #
loop $-1 $160 $161 $66 #
cone-surface $-1 61.194190972207345 18.436922247057197 10.447613145587869 -0.54463904215088732 0 -0.83867056331134215 1.2580058449670133 0 -0.81695856322633098 1 I I 0 1 1.5 forward I I I I #
face $-1 $162 $163 $53 $-1 $164 reversed single #
loop $-1 $-1 $165 $67 #
plane-surface $-1 28.117365705336027 31.38441396819065 196.33869542115889 0 1 0 0.54463904215088732 0 0.83867056331134215 forward_v I I I I #
face $-1 $166 $167 $54 $-1 $168 forward single #
loop $-1 $169 $170 $68 #
cone-surface $-1 61.194190972207345 35.044034318806482 10.447613145587869 -0.54463904215088732 0 -0.83867056331134215 1.2580058449670133 0 -0.81695856322633098 1 I I 0 1 1.5 forward I I I I #
face $-1 $171 $172 $55 $-1 $173 forward single #
loop $-1 $174 $175 $69 #
cone-surface $-1 61.194190972207345 40.533464844730233 10.447613145587869 -0.54463904215088732 0 -0.83867056331134215 1.2580058449670133 0 -0.81695856322633098 1 I I 0 1 1.5 forward I I I I #
face $-1 $176 $177 $42 $-1 $178 reversed single #
loop $-1 $-1 $179 $70 #
plane-surface $-1 0 0 -15.700029485213303 0 0 1 1 0 0 forward_v I I I I #
coedge $-1 $180 $181 $182 $183 forward $71 $-1 #
face $-1 $184 $185 $43 $-1 $186 reversed single #
loop $-1 $-1 $187 $73 #
plane-surface $-1 -50.707105626207394 0 11.823918503843938 -1 0 0 0 0 1 forward_v I I I I #
coedge $-1 $188 $189 $190 $191 forward $74 $-1 #
face $-1 $192 $193 $44 $-1 $194 reversed single #
loop $-1 $-1 $195 $76 #
plane-surface $-1 -46.232919405475968 -28.500878211250736 81.849298462046661 0.54463904215088732 0 0.83867056331134215 0.83867056331134215 0 -0.54463904215088732 forward_v I I I I #
coedge $-1 $196 $197 $198 $199 reversed $77 $-1 #
face $-1 $-1 $200 $45 $-1 $201 forward single #
loop $-1 $202 $203 $79 #
cone-surface $-1 60.037653697742797 -31.245593474212612 8.6667019504682408 -0.54463904215088732 0 -0.83867056331134215 0.62900292248350664 0 -0.40847928161316549 1 I I -0.70710678118654757 0.70710678118654757 0.75 forward I I I I #
loop $-1 $-1 $204 $59 #
coedge $-1 $128 $128 $205 $206 reversed $80 $-1 #
face $-1 $-1 $207 $46 $-1 $208 forward single #
loop $-1 $209 $210 $82 #
cone-surface $-1 60.037653697742797 -25.756162948288861 8.6667019504682408 -0.54463904215088732 0 -0.83867056331134215 0.62900292248350664 0 -0.40847928161316549 1 I I -0.70710678118654757 0.70710678118654757 0.75 forward I I I I #
loop $-1 $-1 $211 $60 #
coedge $-1 $133 $133 $212 $213 reversed $83 $-1 #
face $-1 $214 $215 $47 $-1 $216 reversed single #
loop $-1 $-1 $217 $85 #
plane-surface $-1 -46.232919405475968 -6.4043356135777074 81.849298462046661 0.54463904215088732 0 0.83867056331134215 0.83867056331134215 0 -0.54463904215088732 forward_v I I I I #
coedge $-1 $218 $219 $220 $221 reversed $86 $-1 #
face $-1 $-1 $222 $48 $-1 $223 forward single #
loop $-1 $224 $225 $88 #
cone-surface $-1 60.037653697742797 -9.149050876539583 8.6667019504682408 -0.54463904215088732 0 -0.83867056331134215 0.62900292248350664 0 -0.40847928161316549 1 I I -0.70710678118654757 0.70710678118654757 0.75 forward I I I I #
loop $-1 $-1 $226 $62 #
coedge $-1 $142 $142 $227 $228 reversed $89 $-1 #
face $-1 $-1 $229 $49 $-1 $230 forward single #
loop $-1 $231 $232 $91 #
cone-surface $-1 60.037653697742797 -3.6596203506158318 8.6667019504682408 -0.54463904215088732 0 -0.83867056331134215 0.62900292248350664 0 -0.40847928161316549 1 I I -0.70710678118654757 0.70710678118654757 0.75 forward I I I I #
loop $-1 $-1 $233 $63 #
coedge $-1 $147 $147 $234 $235 reversed $92 $-1 #
face $-1 $236 $237 $50 $-1 $238 reversed single #
loop $-1 $-1 $239 $94 #
plane-surface $-1 -46.232919405475968 15.692206984095321 81.849298462046661 0.54463904215088732 0 0.83867056331134215 0.83867056331134215 0 -0.54463904215088732 forward_v I I I I #
coedge $-1 $240 $241 $242 $243 reversed $95 $-1 #
face $-1 $-1 $244 $51 $-1 $245 forward single #
loop $-1 $246 $247 $97 #
cone-surface $-1 60.037653697742797 12.947491721133446 8.6667019504682408 -0.54463904215088732 0 -0.83867056331134215 0.62900292248350664 0 -0.40847928161316549 1 I I -0.70710678118654757 0.70710678118654757 0.75 forward I I I I #
loop $-1 $-1 $248 $65 #
coedge $-1 $156 $156 $249 $250 reversed $98 $-1 #
face $-1 $-1 $251 $52 $-1 $252 forward single #
loop $-1 $253 $254 $100 #
cone-surface $-1 60.037653697742797 18.436922247057197 8.6667019504682408 -0.54463904215088732 0 -0.83867056331134215 0.62900292248350664 0 -0.40847928161316549 1 I I -0.70710678118654757 0.70710678118654757 0.75 forward I I I I #
loop $-1 $-1 $255 $66 #
coedge $-1 $161 $161 $256 $257 reversed $101 $-1 #
face $-1 $258 $259 $53 $-1 $260 reversed single #
loop $-1 $-1 $261 $103 #
plane-surface $-1 -46.232919405475968 37.788749581768357 81.849298462046661 0.54463904215088732 0 0.83867056331134215 0.83867056331134215 0 -0.54463904215088732 forward_v I I I I #
coedge $-1 $262 $263 $264 $265 reversed $104 $-1 #
face $-1 $-1 $266 $54 $-1 $267 forward single #
loop $-1 $268 $269 $106 #
cone-surface $-1 60.037653697742797 35.044034318806482 8.6667019504682408 -0.54463904215088732 0 -0.83867056331134215 0.62900292248350664 0 -0.40847928161316549 1 I I -0.70710678118654757 0.70710678118654757 0.75 forward I I I I #
loop $-1 $-1 $270 $68 #
coedge $-1 $170 $170 $271 $272 reversed $107 $-1 #
face $-1 $-1 $273 $55 $-1 $274 forward single #
loop $-1 $275 $276 $109 #
cone-surface $-1 60.037653697742797 40.533464844730233 8.6667019504682408 -0.54463904215088732 0 -0.83867056331134215 0.62900292248350664 0 -0.40847928161316549 1 I I -0.70710678118654757 0.70710678118654757 0.75 forward I I I I #
loop $-1 $-1 $277 $69 #
coedge $-1 $175 $175 $278 $279 reversed $110 $-1 #
face $-1 $280 $281 $42 $-1 $282 reversed single #
loop $-1 $-1 $283 $112 #
plane-surface $-1 0 -44.193085195346058 0 0 1 0 0 0 1 forward_v I I I I #
coedge $-1 $284 $285 $286 $287 forward $113 $-1 #
coedge $-1 $288 $115 $289 $290 forward $71 $-1 #
coedge $-1 $115 $288 $291 $292 forward $71 $-1 #
coedge $-1 $293 $294 $115 $183 reversed $295 $-1 #
edge $-1 $296 -44.193085195346058 $297 44.193085195346058 $182 $298 forward 7 unknown #
face $-1 $299 $300 $43 $-1 $301 reversed single #
loop $-1 $-1 $302 $116 #
plane-surface $-1 0 44.193085195346058 0 0 -1 0 0 0 -1 forward_v I I I I #
coedge $-1 $190 $303 $304 $305 reversed $117 $-1 #
coedge $-1 $306 $119 $307 $308 reversed $74 $-1 #
coedge $-1 $119 $306 $309 $310 reversed $74 $-1 #
coedge $-1 $311 $187 $119 $191 reversed $117 $-1 #
edge $-1 $312 -44.193085195346058 $313 44.193085195346058 $190 $314 forward 7 unknown #
face $-1 $315 $316 $44 $-1 $317 forward single #
loop $-1 $-1 $318 $120 #
plane-surface $-1 28.117365705336027 -34.905213824828444 196.33869542115889 0 1 0 0.54463904215088732 0 0.83867056331134215 forward_v I I I I #
coedge $-1 $319 $320 $321 $322 reversed $121 $-1 #
coedge $-1 $197 $123 $323 $324 reversed $77 $-1 #
coedge $-1 $123 $196 $319 $325 reversed $77 $-1 #
coedge $-1 $321 $326 $123 $199 forward $316 $-1 #
edge $-1 $327 -54.197794700968259 $328 -41.569337523813104 $198 $329 forward 7 unknown #
loop $-1 $-1 $205 $124 #
plane-surface $-1 -46.232919405475968 -28.500878211250736 81.849298462046661 0.54463904215088732 0 0.83867056331134215 0.83867056331134215 0 -0.54463904215088732 forward_v I I I I #
loop $-1 $-1 $330 $79 #
coedge $-1 $203 $203 $204 $331 reversed $125 $-1 #
coedge $-1 $204 $204 $203 $331 forward $127 $-1 #
coedge $-1 $205 $205 $128 $206 forward $200 $-1 #
edge $-1 $332 0 $332 6.2831853071796004 $205 $333 forward 7 unknown #
loop $-1 $-1 $212 $129 #
plane-surface $-1 -46.232919405475968 -28.500878211250736 81.849298462046661 0.54463904215088732 0 0.83867056331134215 0.83867056331134215 0 -0.54463904215088732 forward_v I I I I #
loop $-1 $-1 $334 $82 #
coedge $-1 $210 $210 $211 $335 reversed $130 $-1 #
coedge $-1 $211 $211 $210 $335 forward $132 $-1 #
coedge $-1 $212 $212 $133 $213 forward $207 $-1 #
edge $-1 $336 0 $336 6.2831853071796004 $212 $337 forward 7 unknown #
face $-1 $338 $339 $47 $-1 $340 reversed single #
loop $-1 $-1 $341 $134 #
plane-surface $-1 28.117365705336027 -12.808671227155415 196.33869542115889 0 1 0 0.54463904215088732 0 0.83867056331134215 forward_v I I I I #
coedge $-1 $342 $343 $344 $345 reversed $135 $-1 #
coedge $-1 $219 $137 $346 $347 reversed $86 $-1 #
coedge $-1 $137 $218 $342 $348 reversed $86 $-1 #
coedge $-1 $344 $349 $137 $221 forward $350 $-1 #
edge $-1 $351 -54.197794700968259 $352 -41.569337523813104 $220 $353 forward 7 unknown #
loop $-1 $-1 $227 $138 #
plane-surface $-1 -46.232919405475968 -6.4043356135777074 81.849298462046661 0.54463904215088732 0 0.83867056331134215 0.83867056331134215 0 -0.54463904215088732 forward_v I I I I #
loop $-1 $-1 $354 $88 #
coedge $-1 $225 $225 $226 $355 reversed $139 $-1 #
coedge $-1 $226 $226 $225 $355 forward $141 $-1 #
coedge $-1 $227 $227 $142 $228 forward $222 $-1 #
edge $-1 $356 0 $356 6.2831853071796004 $227 $357 forward 7 unknown #
loop $-1 $-1 $234 $143 #
plane-surface $-1 -46.232919405475968 -6.4043356135777074 81.849298462046661 0.54463904215088732 0 0.83867056331134215 0.83867056331134215 0 -0.54463904215088732 forward_v I I I I #
loop $-1 $-1 $358 $91 #
coedge $-1 $232 $232 $233 $359 reversed $144 $-1 #
coedge $-1 $233 $233 $232 $359 forward $146 $-1 #
coedge $-1 $234 $234 $147 $235 forward $229 $-1 #
edge $-1 $360 0 $360 6.2831853071796004 $234 $361 forward 7 unknown #
face $-1 $362 $363 $50 $-1 $364 reversed single #
loop $-1 $-1 $365 $148 #
plane-surface $-1 28.117365705336027 9.2878713705176139 196.33869542115889 0 1 0 0.54463904215088732 0 0.83867056331134215 forward_v I I I I #
coedge $-1 $366 $367 $368 $369 reversed $149 $-1 #
coedge $-1 $241 $151 $370 $371 reversed $95 $-1 #
coedge $-1 $151 $240 $366 $372 reversed $95 $-1 #
coedge $-1 $368 $373 $151 $243 forward $374 $-1 #
edge $-1 $375 -54.197794700968259 $376 -41.569337523813104 $242 $377 forward 7 unknown #
loop $-1 $-1 $249 $152 #
plane-surface $-1 -46.232919405475968 15.692206984095321 81.849298462046661 0.54463904215088732 0 0.83867056331134215 0.83867056331134215 0 -0.54463904215088732 forward_v I I I I #
loop $-1 $-1 $378 $97 #
coedge $-1 $247 $247 $248 $379 reversed $153 $-1 #
coedge $-1 $248 $248 $247 $379 forward $155 $-1 #
coedge $-1 $249 $249 $156 $250 forward $244 $-1 #
edge $-1 $380 0 $380 6.2831853071796004 $249 $381 forward 7 unknown #
loop $-1 $-1 $256 $157 #
plane-surface $-1 -46.232919405475968 15.692206984095321 81.849298462046661 0.54463904215088732 0 0.83867056331134215 0.83867056331134215 0 -0.54463904215088732 forward_v I I I I #
loop $-1 $-1 $382 $100 #
coedge $-1 $254 $254 $255 $383 reversed $158 $-1 #
coedge $-1 $255 $255 $254 $383 forward $160 $-1 #
coedge $-1 $256 $256 $161 $257 forward $251 $-1 #
edge $-1 $384 0 $384 6.2831853071796004 $256 $385 forward 7 unknown #
face $-1 $386 $387 $53 $-1 $388 reversed single #
loop $-1 $-1 $264 $162 #
plane-surface $-1 68.256477553636273 0 0 -1 0 0 0 0 1 forward_v I I I I #
coedge $-1 $389 $390 $391 $392 reversed $163 $-1 #
coedge $-1 $263 $165 $393 $394 reversed $104 $-1 #
coedge $-1 $165 $262 $389 $395 reversed $104 $-1 #
coedge $-1 $391 $396 $165 $265 forward $259 $-1 #
edge $-1 $397 82.469318225366138 $398 90.670334359344793 $264 $399 forward 7 unknown #
loop $-1 $-1 $271 $166 #
plane-surface $-1 -46.232919405475968 37.788749581768357 81.849298462046661 0.54463904215088732 0 0.83867056331134215 0.83867056331134215 0 -0.54463904215088732 forward_v I I I I #
loop $-1 $-1 $400 $106 #
coedge $-1 $269 $269 $270 $401 reversed $167 $-1 #
coedge $-1 $270 $270 $269 $401 forward $169 $-1 #
coedge $-1 $271 $271 $170 $272 forward $266 $-1 #
edge $-1 $402 0 $402 6.2831853071796004 $271 $403 forward 7 unknown #
loop $-1 $-1 $278 $171 #
plane-surface $-1 -46.232919405475968 37.788749581768357 81.849298462046661 0.54463904215088732 0 0.83867056331134215 0.83867056331134215 0 -0.54463904215088732 forward_v I I I I #
loop $-1 $-1 $404 $109 #
coedge $-1 $276 $276 $277 $405 reversed $172 $-1 #
coedge $-1 $277 $277 $276 $405 forward $174 $-1 #
coedge $-1 $278 $278 $175 $279 forward $273 $-1 #
edge $-1 $406 0 $406 6.2831853071796004 $278 $407 forward 7 unknown #
face $-1 $408 $409 $42 $-1 $410 reversed single #
loop $-1 $-1 $411 $176 #
plane-surface $-1 -68.256477553636273 0 0 1 0 0 0 0 -1 forward_v I I I I #
coedge $-1 $412 $291 $413 $414 forward $177 $-1 #
coedge $-1 $415 $179 $412 $416 forward $113 $-1 #
coedge $-1 $179 $415 $417 $418 forward $113 $-1 #
coedge $-1 $294 $293 $179 $287 reversed $295 $-1 #
edge $-1 $419 -44.193085195346058 $420 44.193085195346058 $286 $421 forward 7 unknown #
coedge $-1 $181 $180 $422 $423 forward $71 $-1 #
coedge $-1 $424 $425 $180 $290 reversed $409 $-1 #
edge $-1 $297 -68.256477553636273 $426 68.256477553636273 $289 $427 forward 7 unknown #
coedge $-1 $283 $428 $181 $292 reversed $177 $-1 #
edge $-1 $429 -68.256477553636273 $296 68.256477553636273 $291 $430 forward 7 unknown #
coedge $-1 $286 $182 $428 $431 forward $295 $-1 #
coedge $-1 $182 $286 $424 $432 reversed $295 $-1 #
loop $-1 $-1 $293 $408 #
vertex $-1 $183 $433 #
vertex $-1 $183 $434 #
straight-curve $-1 68.256477553636273 0 15.700029485213303 0 1 0 I I #
face $-1 $435 $436 $43 $-1 $437 forward single #
loop $-1 $-1 $438 $184 #
plane-surface $-1 -68.256477553636273 0 0 1 0 0 0 0 -1 forward_v I I I I #
coedge $-1 $309 $439 $311 $440 forward $185 $-1 #
coedge $-1 $187 $311 $441 $442 reversed $117 $-1 #
coedge $-1 $443 $307 $187 $305 forward $444 $-1 #
edge $-1 $313 2.0358482705526022 $445 9.7880702332913359 $304 $446 forward 7 unknown #
coedge $-1 $189 $188 $438 $447 reversed $74 $-1 #
coedge $-1 $304 $448 $188 $308 forward $444 $-1 #
edge $-1 $449 -38.515581758675353 $313 -20.966209831246477 $307 $450 forward 7 unknown #
coedge $-1 $451 $302 $189 $310 forward $185 $-1 #
edge $-1 $312 20.966209831246477 $452 38.515581758675353 $309 $453 forward 7 unknown #
coedge $-1 $303 $190 $302 $440 reversed $117 $-1 #
vertex $-1 $310 $454 #
vertex $-1 $308 $455 #
straight-curve $-1 -50.707105626207394 0 7.9478075224745712 0 -1 0 I I #
face $-1 $-1 $456 $44 $-1 $457 reversed single #
loop $-1 $-1 $198 $192 #
plane-surface $-1 0 0 15.700029485213303 0 0 1 1 0 0 forward_v I I I I #
coedge $-1 $458 $459 $460 $461 reversed $193 $-1 #
coedge $-1 $462 $195 $197 $325 forward $121 $-1 #
coedge $-1 $195 $462 $458 $463 forward $121 $-1 #
coedge $-1 $460 $198 $195 $322 forward $316 $-1 #
edge $-1 $328 7.8461034920476607 $464 20.654774719203076 $321 $465 forward 7 unknown #
coedge $-1 $466 $467 $196 $324 forward $456 $-1 #
edge $-1 $468 -90.670334359344793 $327 -82.469318225366138 $323 $469 forward 7 unknown #
edge $-1 $328 121.45524624088057 $468 136.51295510727257 $197 $470 forward 7 unknown #
coedge $-1 $198 $460 $466 $471 forward $316 $-1 #
vertex $-1 $324 $472 #
vertex $-1 $199 $473 #
straight-curve $-1 14.058682852668014 -22.096542597673029 15.700029485213307 -1 0 0 I I #
coedge $-1 $330 $330 $-1 $474 reversed $202 $-1 #
edge $-1 $475 0 $475 6.2831853071796004 $203 $476 forward 7 unknown #
vertex $-1 $206 $477 #
ellipse-curve $-1 61.942248965058717 -31.245593474212612 11.599521418223976 0.54463904215088732 0 0.83867056331134215 1.2580058449670133 0 -0.81695856322633098 1 I I #
coedge $-1 $334 $334 $-1 $478 reversed $209 $-1 #
edge $-1 $479 0 $479 6.2831853071796004 $210 $480 forward 7 unknown #
vertex $-1 $213 $481 #
ellipse-curve $-1 61.942248965058717 -25.756162948288861 11.599521418223976 0.54463904215088732 0 0.83867056331134215 1.2580058449670133 0 -0.81695856322633098 1 I I #
face $-1 $-1 $350 $47 $-1 $482 forward single #
loop $-1 $-1 $483 $214 #
plane-surface $-1 68.256477553636273 0 0 -1 0 0 0 0 1 forward_v I I I I #
coedge $-1 $484 $485 $486 $487 reversed $215 $-1 #
coedge $-1 $488 $217 $219 $348 forward $135 $-1 #
coedge $-1 $217 $488 $484 $489 forward $135 $-1 #
coedge $-1 $486 $220 $217 $345 forward $350 $-1 #
edge $-1 $352 -3.2021678067888537 $490 9.6065034203665611 $344 $491 forward 7 unknown #
coedge $-1 $492 $493 $218 $347 forward $339 $-1 #
edge $-1 $494 -90.670334359344793 $351 -82.469318225366138 $346 $495 forward 7 unknown #
edge $-1 $352 121.45524624088057 $494 136.51295510727257 $219 $496 forward 7 unknown #
coedge $-1 $220 $486 $492 $497 forward $350 $-1 #
loop $-1 $-1 $486 $338 #
vertex $-1 $347 $498 #
vertex $-1 $221 $499 #
straight-curve $-1 14.058682852668014 0 15.700029485213307 -1 0 0 I I #
coedge $-1 $354 $354 $-1 $500 reversed $224 $-1 #
edge $-1 $501 0 $501 6.2831853071796004 $225 $502 forward 7 unknown #
vertex $-1 $228 $503 #
ellipse-curve $-1 61.942248965058717 -9.149050876539583 11.599521418223976 0.54463904215088732 0 0.83867056331134215 1.2580058449670133 0 -0.81695856322633098 1 I I #
coedge $-1 $358 $358 $-1 $504 reversed $231 $-1 #
edge $-1 $505 0 $505 6.2831853071796004 $232 $506 forward 7 unknown #
vertex $-1 $235 $507 #
ellipse-curve $-1 61.942248965058717 -3.6596203506158318 11.599521418223976 0.54463904215088732 0 0.83867056331134215 1.2580058449670133 0 -0.81695856322633098 1 I I #
face $-1 $-1 $374 $50 $-1 $508 forward single #
loop $-1 $-1 $509 $236 #
plane-surface $-1 68.256477553636273 0 0 -1 0 0 0 0 1 forward_v I I I I #
coedge $-1 $510 $511 $512 $513 reversed $237 $-1 #
coedge $-1 $514 $239 $241 $372 forward $149 $-1 #
coedge $-1 $239 $514 $510 $515 forward $149 $-1 #
coedge $-1 $512 $242 $239 $369 forward $374 $-1 #
edge $-1 $376 -14.250439105625368 $516 -1.4417678784699532 $368 $517 forward 7 unknown #
coedge $-1 $518 $519 $240 $371 forward $363 $-1 #
edge $-1 $520 -90.670334359344793 $375 -82.469318225366138 $370 $521 forward 7 unknown #
edge $-1 $376 121.45524624088057 $520 136.51295510727257 $241 $522 forward 7 unknown #
coedge $-1 $242 $512 $518 $523 forward $374 $-1 #
loop $-1 $-1 $512 $362 #
vertex $-1 $371 $524 #
vertex $-1 $243 $525 #
straight-curve $-1 14.058682852668014 22.096542597673029 15.700029485213307 -1 0 0 I I #
coedge $-1 $378 $378 $-1 $526 reversed $246 $-1 #
edge $-1 $527 0 $527 6.2831853071796004 $247 $528 forward 7 unknown #
vertex $-1 $250 $529 #
ellipse-curve $-1 61.942248965058717 12.947491721133446 11.599521418223976 0.54463904215088732 0 0.83867056331134215 1.2580058449670133 0 -0.81695856322633098 1 I I #
coedge $-1 $382 $382 $-1 $530 reversed $253 $-1 #
edge $-1 $531 0 $531 6.2831853071796004 $254 $532 forward 7 unknown #
vertex $-1 $257 $533 #
ellipse-curve $-1 61.942248965058717 18.436922247057197 11.599521418223976 0.54463904215088732 0 0.83867056331134215 1.2580058449670133 0 -0.81695856322633098 1 I I #
face $-1 $-1 $534 $53 $-1 $535 forward single #
loop $-1 $-1 $536 $258 #
plane-surface $-1 0 44.193085195346058 0 0 -1 0 0 0 -1 forward_v I I I I #
coedge $-1 $537 $261 $263 $395 forward $163 $-1 #
coedge $-1 $261 $537 $536 $538 reversed $163 $-1 #
coedge $-1 $539 $264 $261 $392 forward $259 $-1 #
edge $-1 $398 12.490039177306471 $540 25.298710404461879 $391 $541 forward 7 unknown #
coedge $-1 $542 $543 $262 $394 forward $534 $-1 #
edge $-1 $544 41.569337523813104 $397 54.197794700968259 $393 $545 forward 7 unknown #
edge $-1 $398 -136.51295510727257 $544 -121.45524624088057 $263 $546 forward 7 unknown #
coedge $-1 $264 $539 $542 $547 reversed $259 $-1 #
vertex $-1 $547 $548 #
vertex $-1 $265 $549 #
straight-curve $-1 68.256477553636273 31.38441396819065 98.169347710579444 0 0 -1 I I #
coedge $-1 $400 $400 $-1 $550 reversed $268 $-1 #
edge $-1 $551 0 $551 6.2831853071796004 $269 $552 forward 7 unknown #
vertex $-1 $272 $553 #
ellipse-curve $-1 61.942248965058717 35.044034318806482 11.599521418223976 0.54463904215088732 0 0.83867056331134215 1.2580058449670133 0 -0.81695856322633098 1 I I #
coedge $-1 $404 $404 $-1 $554 reversed $275 $-1 #
edge $-1 $555 0 $555 6.2831853071796004 $276 $556 forward 7 unknown #
vertex $-1 $279 $557 #
ellipse-curve $-1 61.942248965058717 40.533464844730233 11.599521418223976 0.54463904215088732 0 0.83867056331134215 1.2580058449670133 0 -0.81695856322633098 1 I I #
face $-1 $-1 $295 $42 $-1 $558 reversed single #
loop $-1 $-1 $424 $280 #
plane-surface $-1 0 44.193085195346058 0 0 -1 0 0 0 -1 forward_v I I I I #
coedge $-1 $559 $422 $425 $560 forward $281 $-1 #
coedge $-1 $428 $283 $284 $416 reversed $177 $-1 #
coedge $-1 $422 $559 $283 $414 reversed $281 $-1 #
edge $-1 $429 -15.700029485213303 $561 15.700029485213303 $413 $562 forward 7 unknown #
coedge $-1 $285 $284 $559 $563 forward $113 $-1 #
edge $-1 $420 -68.256477553636273 $561 68.256477553636273 $412 $564 forward 7 unknown #
coedge $-1 $425 $424 $285 $418 reversed $409 $-1 #
edge $-1 $565 -68.256477553636273 $419 68.256477553636273 $417 $566 forward 7 unknown #
vertex $-1 $287 $567 #
vertex $-1 $431 $568 #
straight-curve $-1 68.256477553636273 0 -15.700029485213303 0 -1 0 I I #
coedge $-1 $411 $413 $288 $423 reversed $281 $-1 #
edge $-1 $426 -44.193085195346058 $429 44.193085195346058 $422 $569 forward 7 unknown #
coedge $-1 $417 $289 $294 $432 forward $409 $-1 #
coedge $-1 $289 $417 $411 $560 reversed $409 $-1 #
vertex $-1 $290 $570 #
straight-curve $-1 0 44.193085195346058 15.700029485213303 -1 0 0 I I #
coedge $-1 $291 $412 $293 $431 reversed $177 $-1 #
vertex $-1 $423 $571 #
straight-curve $-1 0 -44.193085195346058 15.700029485213303 1 0 0 I I #
edge $-1 $296 -15.700029485213303 $420 15.700029485213303 $293 $572 forward 7 unknown #
edge $-1 $297 -15.700029485213303 $419 15.700029485213303 $294 $573 forward 7 unknown #
point $-1 68.256477553636273 -44.193085195346058 15.700029485213303 #
point $-1 68.256477553636273 44.193085195346058 15.700029485213303 #
face $-1 $-1 $444 $43 $-1 $574 reversed single #
loop $-1 $-1 $441 $299 #
plane-surface $-1 0 0 15.700029485213303 0 0 1 1 0 0 forward_v I I I I #
coedge $-1 $575 $576 $306 $447 forward $300 $-1 #
coedge $-1 $302 $451 $577 $578 reversed $185 $-1 #
edge $-1 $579 -9.7880702332913359 $312 -2.0358482705526022 $302 $580 forward 7 unknown #
coedge $-1 $577 $581 $303 $442 forward $436 $-1 #
edge $-1 $445 -44.193085195346058 $579 44.193085195346058 $441 $582 forward 7 unknown #
coedge $-1 $448 $304 $581 $583 reversed $444 $-1 #
loop $-1 $-1 $304 $435 #
vertex $-1 $305 $584 #
straight-curve $-1 -50.707105626207394 -44.193085195346058 5.911959251921969 0 0 1 I I #
edge $-1 $452 -44.193085195346058 $449 44.193085195346058 $438 $585 forward 7 unknown #
coedge $-1 $307 $443 $575 $586 forward $444 $-1 #
vertex $-1 $447 $587 #
straight-curve $-1 -29.740895794960917 -44.193085195346058 7.9478075224745712 1 0 0 I I #
coedge $-1 $439 $309 $576 $588 reversed $185 $-1 #
vertex $-1 $447 $589 #
straight-curve $-1 -29.740895794960917 44.193085195346058 7.9478075224745712 -1 0 0 I I #
point $-1 -50.707105626207394 44.193085195346058 7.9478075224745712 #
point $-1 -50.707105626207394 -44.193085195346058 7.9478075224745712 #
loop $-1 $-1 $323 $315 #
plane-surface $-1 68.256477553636273 0 0 -1 0 0 0 0 1 forward_v I I I I #
coedge $-1 $459 $318 $320 $463 reversed $193 $-1 #
coedge $-1 $318 $458 $590 $591 reversed $193 $-1 #
coedge $-1 $326 $321 $318 $461 forward $316 $-1 #
edge $-1 $464 41.569337523813104 $592 54.197794700968259 $460 $593 forward 7 unknown #
coedge $-1 $320 $319 $467 $594 reversed $121 $-1 #
edge $-1 $595 -136.51295510727257 $464 -121.45524624088057 $458 $596 forward 7 unknown #
vertex $-1 $322 $597 #
straight-curve $-1 55.628020376481118 -14.250439105625368 15.7000294852133 0 -1 0 I I #
coedge $-1 $590 $323 $326 $471 reversed $456 $-1 #
coedge $-1 $323 $590 $462 $594 forward $456 $-1 #
vertex $-1 $324 $598 #
straight-curve $-1 68.256477553636273 -22.096542597673029 98.169347710579444 0 0 1 I I #
straight-curve $-1 -46.232919405475968 -22.096542597673029 81.849298462046661 0.83867056331134215 0 -0.54463904215088732 I I #
edge $-1 $592 -34.905213824828444 $327 -22.096542597673029 $466 $599 forward 7 unknown #
point $-1 68.256477553636273 -22.096542597673029 15.700029485213303 #
point $-1 55.628020376481118 -22.096542597673029 15.700029485213307 #
edge $-1 $600 1 $600 0 $330 $-1 forward 7 unknown #
vertex $-1 $331 $601 #
ellipse-curve $-1 60.446132979355966 -31.245593474212612 9.2957048729517471 0.54463904215088732 0 0.83867056331134215 1.2580058449670133 0 -0.81695856322633098 1 I I #
point $-1 63.20025481002574 -31.245593474212612 10.782562854997659 #
edge $-1 $602 1 $602 0 $334 $-1 forward 7 unknown #
vertex $-1 $335 $603 #
ellipse-curve $-1 60.446132979355966 -25.756162948288861 9.2957048729517471 0.54463904215088732 0 0.83867056331134215 1.2580058449670133 0 -0.81695856322633098 1 I I #
point $-1 63.20025481002574 -25.756162948288861 10.782562854997659 #
plane-surface $-1 0 0 15.700029485213303 0 0 1 1 0 0 forward_v I I I I #
coedge $-1 $493 $492 $485 $604 forward $339 $-1 #
coedge $-1 $485 $341 $343 $489 reversed $215 $-1 #
coedge $-1 $341 $484 $483 $604 reversed $215 $-1 #
coedge $-1 $349 $344 $341 $487 forward $350 $-1 #
edge $-1 $490 41.569337523813104 $605 54.197794700968259 $486 $606 forward 7 unknown #
coedge $-1 $343 $342 $493 $607 reversed $135 $-1 #
edge $-1 $608 -136.51295510727257 $490 -121.45524624088057 $484 $609 forward 7 unknown #
vertex $-1 $345 $610 #
straight-curve $-1 55.628020376481118 -3.2021678067888537 15.7000294852133 0 -1 0 I I #
coedge $-1 $483 $346 $349 $497 reversed $339 $-1 #
coedge $-1 $346 $483 $488 $607 forward $339 $-1 #
vertex $-1 $347 $611 #
straight-curve $-1 68.256477553636273 0 98.169347710579444 0 0 1 I I #
straight-curve $-1 -46.232919405475968 0 81.849298462046661 0.83867056331134215 0 -0.54463904215088732 I I #
edge $-1 $605 -12.808671227155415 $351 0 $492 $612 forward 7 unknown #
point $-1 68.256477553636273 0 15.700029485213303 #
point $-1 55.628020376481118 0 15.700029485213307 #
edge $-1 $613 1 $613 0 $354 $-1 forward 7 unknown #
vertex $-1 $355 $614 #
ellipse-curve $-1 60.446132979355966 -9.149050876539583 9.2957048729517471 0.54463904215088732 0 0.83867056331134215 1.2580058449670133 0 -0.81695856322633098 1 I I #
point $-1 63.20025481002574 -9.149050876539583 10.782562854997659 #
edge $-1 $615 1 $615 0 $358 $-1 forward 7 unknown #
vertex $-1 $359 $616 #
ellipse-curve $-1 60.446132979355966 -3.6596203506158318 9.2957048729517471 0.54463904215088732 0 0.83867056331134215 1.2580058449670133 0 -0.81695856322633098 1 I I #
point $-1 63.20025481002574 -3.6596203506158318 10.782562854997659 #
plane-surface $-1 0 0 15.700029485213303 0 0 1 1 0 0 forward_v I I I I #
coedge $-1 $519 $518 $511 $617 forward $363 $-1 #
coedge $-1 $511 $365 $367 $515 reversed $237 $-1 #
coedge $-1 $365 $510 $509 $617 reversed $237 $-1 #
coedge $-1 $373 $368 $365 $513 forward $374 $-1 #
edge $-1 $516 41.569337523813104 $618 54.197794700968259 $512 $619 forward 7 unknown #
coedge $-1 $367 $366 $519 $620 reversed $149 $-1 #
edge $-1 $621 -136.51295510727257 $516 -121.45524624088057 $510 $622 forward 7 unknown #
vertex $-1 $369 $623 #
straight-curve $-1 55.628020376481118 7.8461034920476607 15.7000294852133 0 -1 0 I I #
coedge $-1 $509 $370 $373 $523 reversed $363 $-1 #
coedge $-1 $370 $509 $514 $620 forward $363 $-1 #
vertex $-1 $371 $624 #
straight-curve $-1 68.256477553636273 22.096542597673029 98.169347710579444 0 0 1 I I #
straight-curve $-1 -46.232919405475968 22.096542597673029 81.849298462046661 0.83867056331134215 0 -0.54463904215088732 I I #
edge $-1 $618 9.2878713705176139 $375 22.096542597673029 $518 $625 forward 7 unknown #
point $-1 68.256477553636273 22.096542597673029 15.700029485213303 #
point $-1 55.628020376481118 22.096542597673029 15.700029485213307 #
edge $-1 $626 1 $626 0 $378 $-1 forward 7 unknown #
vertex $-1 $379 $627 #
ellipse-curve $-1 60.446132979355966 12.947491721133446 9.2957048729517471 0.54463904215088732 0 0.83867056331134215 1.2580058449670133 0 -0.81695856322633098 1 I I #
point $-1 63.20025481002574 12.947491721133446 10.782562854997659 #
edge $-1 $628 1 $628 0 $382 $-1 forward 7 unknown #
vertex $-1 $383 $629 #
ellipse-curve $-1 60.446132979355966 18.436922247057197 9.2957048729517471 0.54463904215088732 0 0.83867056331134215 1.2580058449670133 0 -0.81695856322633098 1 I I #
point $-1 63.20025481002574 18.436922247057197 10.782562854997659 #
loop $-1 $-1 $393 $386 #
plane-surface $-1 0 0 15.700029485213303 0 0 1 1 0 0 forward_v I I I I #
coedge $-1 $630 $631 $390 $538 forward $387 $-1 #
coedge $-1 $390 $389 $543 $632 reversed $163 $-1 #
edge $-1 $540 -94.836699069067762 $633 -79.778990202675772 $536 $634 forward 7 unknown #
coedge $-1 $396 $391 $631 $635 reversed $259 $-1 #
vertex $-1 $538 $636 #
straight-curve $-1 68.256477553636273 18.894374790884179 7.4990133512346588 0 1 0 I I #
coedge $-1 $637 $393 $396 $547 forward $534 $-1 #
coedge $-1 $393 $637 $537 $632 forward $534 $-1 #
vertex $-1 $394 $638 #
straight-curve $-1 14.058682852668014 31.38441396819065 15.700029485213307 1 0 0 I I #
straight-curve $-1 -46.232919405475968 31.38441396819065 81.849298462046661 -0.83867056331134215 0 0.54463904215088732 I I #
edge $-1 $397 31.38441396819065 $639 44.193085195346058 $396 $640 forward 7 unknown #
point $-1 68.256477553636273 31.38441396819065 15.700029485213303 #
point $-1 68.256477553636287 31.38441396819065 7.4990133512346517 #
edge $-1 $641 1 $641 0 $400 $-1 forward 7 unknown #
vertex $-1 $401 $642 #
ellipse-curve $-1 60.446132979355966 35.044034318806482 9.2957048729517471 0.54463904215088732 0 0.83867056331134215 1.2580058449670133 0 -0.81695856322633098 1 I I #
point $-1 63.20025481002574 35.044034318806482 10.782562854997659 #
edge $-1 $643 1 $643 0 $404 $-1 forward 7 unknown #
vertex $-1 $405 $644 #
ellipse-curve $-1 60.446132979355966 40.533464844730233 9.2957048729517471 0.54463904215088732 0 0.83867056331134215 1.2580058449670133 0 -0.81695856322633098 1 I I #
point $-1 63.20025481002574 40.533464844730233 10.782562854997659 #
plane-surface $-1 68.256477553636273 0 0 -1 0 0 0 0 1 forward_v I I I I #
coedge $-1 $413 $411 $415 $563 reversed $281 $-1 #
edge $-1 $426 -15.700029485213303 $565 15.700029485213303 $425 $645 forward 7 unknown #
vertex $-1 $563 $646 #
straight-curve $-1 -68.256477553636273 -44.193085195346058 0 0 0 -1 I I #
edge $-1 $561 -44.193085195346058 $565 44.193085195346058 $559 $647 forward 7 unknown #
straight-curve $-1 0 -44.193085195346058 -15.700029485213303 -1 0 0 I I #
vertex $-1 $418 $648 #
straight-curve $-1 0 44.193085195346058 -15.700029485213303 1 0 0 I I #
point $-1 68.256477553636273 44.193085195346058 -15.700029485213303 #
point $-1 68.256477553636273 -44.193085195346058 -15.700029485213303 #
straight-curve $-1 -68.256477553636273 0 15.700029485213303 0 -1 0 I I #
point $-1 -68.256477553636273 44.193085195346058 15.700029485213303 #
point $-1 -68.256477553636273 -44.193085195346058 15.700029485213303 #
straight-curve $-1 68.256477553636273 -44.193085195346058 0 0 0 -1 I I #
straight-curve $-1 68.256477553636273 44.193085195346058 0 0 0 -1 I I #
plane-surface $-1 0 -44.193085195346058 0 0 1 0 0 0 1 forward_v I I I I #
coedge $-1 $649 $438 $448 $586 reversed $300 $-1 #
coedge $-1 $438 $649 $451 $588 forward $300 $-1 #
coedge $-1 $650 $441 $439 $578 forward $436 $-1 #
edge $-1 $579 50.707105626207394 $651 68.256477553636273 $439 $652 forward 7 unknown #
vertex $-1 $578 $653 #
straight-curve $-1 -50.707105626207394 44.193085195346058 5.911959251921969 0 0 -1 I I #
coedge $-1 $441 $650 $443 $583 forward $436 $-1 #
straight-curve $-1 -50.707105626207394 0 15.700029485213303 0 1 0 I I #
edge $-1 $654 -68.256477553636273 $445 -50.707105626207394 $443 $655 forward 7 unknown #
point $-1 -50.707105626207394 -44.193085195346058 15.700029485213305 #
straight-curve $-1 -68.256477553636273 0 7.9478075224745712 0 -1 0 I I #
edge $-1 $654 -15.700029485213303 $449 -7.9478075224745712 $575 $656 forward 7 unknown #
point $-1 -68.256477553636273 -44.193085195346058 7.9478075224745712 #
edge $-1 $651 -15.700029485213303 $452 -7.9478075224745712 $451 $657 forward 7 unknown #
point $-1 -68.256477553636273 44.193085195346058 7.9478075224745712 #
coedge $-1 $467 $466 $459 $591 forward $456 $-1 #
edge $-1 $592 82.469318225366138 $595 90.670334359344793 $590 $658 forward 7 unknown #
vertex $-1 $471 $659 #
straight-curve $-1 14.058682852668014 -34.905213824828444 15.700029485213307 1 0 0 I I #
edge $-1 $595 -20.654774719203076 $468 -7.8461034920476607 $467 $660 forward 7 unknown #
vertex $-1 $594 $661 #
straight-curve $-1 -46.232919405475968 -34.905213824828444 81.849298462046661 -0.83867056331134215 0 0.54463904215088732 I I #
point $-1 55.628020376481118 -34.905213824828444 15.700029485213307 #
point $-1 68.256477553636287 -22.096542597673029 7.4990133512346517 #
straight-curve $-1 68.256477553636273 0 15.700029485213303 0 1 0 I I #
vertex $-1 $474 $662 #
point $-1 61.704138824322975 -31.245593474212612 8.4787463097254161 #
vertex $-1 $478 $663 #
point $-1 61.704138824322975 -25.756162948288861 8.4787463097254161 #
edge $-1 $605 82.469318225366138 $608 90.670334359344793 $483 $664 forward 7 unknown #
vertex $-1 $497 $665 #
straight-curve $-1 14.058682852668014 -12.808671227155415 15.700029485213307 1 0 0 I I #
edge $-1 $608 -9.6065034203665611 $494 3.2021678067888537 $493 $666 forward 7 unknown #
vertex $-1 $607 $667 #
straight-curve $-1 -46.232919405475968 -12.808671227155415 81.849298462046661 -0.83867056331134215 0 0.54463904215088732 I I #
point $-1 55.628020376481118 -12.808671227155415 15.700029485213307 #
point $-1 68.256477553636287 0 7.4990133512346517 #
straight-curve $-1 68.256477553636273 0 15.700029485213303 0 1 0 I I #
vertex $-1 $500 $668 #
point $-1 61.704138824322975 -9.149050876539583 8.4787463097254161 #
vertex $-1 $504 $669 #
point $-1 61.704138824322975 -3.6596203506158318 8.4787463097254161 #
edge $-1 $618 82.469318225366138 $621 90.670334359344793 $509 $670 forward 7 unknown #
vertex $-1 $523 $671 #
straight-curve $-1 14.058682852668014 9.2878713705176139 15.700029485213307 1 0 0 I I #
edge $-1 $621 1.4417678784699532 $520 14.250439105625368 $519 $672 forward 7 unknown #
vertex $-1 $620 $673 #
straight-curve $-1 -46.232919405475968 9.2878713705176139 81.849298462046661 -0.83867056331134215 0 0.54463904215088732 I I #
point $-1 55.628020376481118 9.2878713705176139 15.700029485213307 #
point $-1 68.256477553636287 22.096542597673029 7.4990133512346517 #
straight-curve $-1 68.256477553636273 0 15.700029485213303 0 1 0 I I #
vertex $-1 $526 $674 #
point $-1 61.704138824322975 12.947491721133446 8.4787463097254161 #
vertex $-1 $530 $675 #
point $-1 61.704138824322975 18.436922247057197 8.4787463097254161 #
coedge $-1 $631 $536 $637 $676 reversed $387 $-1 #
coedge $-1 $536 $630 $539 $635 forward $387 $-1 #
edge $-1 $633 -25.298710404461886 $544 -12.490039177306471 $543 $677 forward 7 unknown #
vertex $-1 $538 $678 #
straight-curve $-1 -11.280270277207022 44.193085195346058 59.150782292963669 -0.83867056331134215 0 0.54463904215088732 I I #
edge $-1 $639 -15.700029485213303 $540 -7.4990133512346588 $539 $679 forward 7 unknown #
point $-1 68.256477553636273 44.193085195346058 7.4990133512346588 #
coedge $-1 $543 $542 $630 $676 forward $534 $-1 #
point $-1 55.628020376481118 31.38441396819065 15.700029485213307 #
vertex $-1 $547 $680 #
straight-curve $-1 68.256477553636273 0 15.700029485213303 0 1 0 I I #
vertex $-1 $550 $681 #
point $-1 61.704138824322975 35.044034318806482 8.4787463097254161 #
vertex $-1 $554 $682 #
point $-1 61.704138824322975 40.533464844730233 8.4787463097254161 #
straight-curve $-1 -68.256477553636273 44.193085195346058 0 0 0 -1 I I #
point $-1 -68.256477553636273 -44.193085195346058 -15.700029485213303 #
straight-curve $-1 -68.256477553636273 0 -15.700029485213303 0 1 0 I I #
point $-1 -68.256477553636273 44.193085195346058 -15.700029485213303 #
coedge $-1 $576 $575 $650 $683 reversed $300 $-1 #
coedge $-1 $581 $577 $649 $683 forward $436 $-1 #
vertex $-1 $578 $684 #
straight-curve $-1 0 44.193085195346058 15.700029485213303 -1 0 0 I I #
point $-1 -50.707105626207394 44.193085195346058 15.700029485213305 #
vertex $-1 $683 $685 #
straight-curve $-1 0 -44.193085195346058 15.700029485213303 1 0 0 I I #
straight-curve $-1 -68.256477553636273 -44.193085195346058 0 0 0 -1 I I #
straight-curve $-1 -68.256477553636273 44.193085195346058 0 0 0 -1 I I #
straight-curve $-1 68.256477553636273 -34.905213824828444 98.169347710579444 0 0 -1 I I #
point $-1 68.256477553636273 -34.905213824828444 15.700029485213303 #
straight-curve $-1 68.256477553636273 -14.250439105625368 7.4990133512346588 0 1 0 I I #
point $-1 68.256477553636287 -34.905213824828444 7.4990133512346517 #
point $-1 59.629174416129629 -31.245593474212612 8.0376990279847345 #
point $-1 59.629174416129629 -25.756162948288861 8.0376990279847345 #
straight-curve $-1 68.256477553636273 -12.808671227155415 98.169347710579444 0 0 -1 I I #
point $-1 68.256477553636273 -12.808671227155415 15.700029485213303 #
straight-curve $-1 68.256477553636273 -3.2021678067888537 7.4990133512346588 0 1 0 I I #
point $-1 68.256477553636287 -12.808671227155415 7.4990133512346517 #
point $-1 59.629174416129629 -9.149050876539583 8.0376990279847345 #
point $-1 59.629174416129629 -3.6596203506158318 8.0376990279847345 #
straight-curve $-1 68.256477553636273 9.2878713705176139 98.169347710579444 0 0 -1 I I #
point $-1 68.256477553636273 9.2878713705176139 15.700029485213303 #
straight-curve $-1 68.256477553636273 7.8461034920476607 7.4990133512346588 0 1 0 I I #
point $-1 68.256477553636287 9.2878713705176139 7.4990133512346517 #
point $-1 59.629174416129629 12.947491721133446 8.0376990279847345 #
point $-1 59.629174416129629 18.436922247057197 8.0376990279847345 #
edge $-1 $639 -68.256477553636273 $633 -55.628020376481118 $630 $686 forward 7 unknown #
straight-curve $-1 55.628020376481118 18.894374790884179 15.7000294852133 0 -1 0 I I #
point $-1 55.628020376481118 44.193085195346065 15.700029485213307 #
straight-curve $-1 68.256477553636273 44.193085195346058 0 0 0 -1 I I #
point $-1 68.256477553636273 44.193085195346058 15.700029485213303 #
point $-1 59.629174416129629 35.044034318806482 8.0376990279847345 #
point $-1 59.629174416129629 40.533464844730233 8.0376990279847345 #
edge $-1 $651 -44.193085195346058 $654 44.193085195346058 $649 $687 forward 7 unknown #
point $-1 -68.256477553636273 44.193085195346058 15.700029485213303 #
point $-1 -68.256477553636273 -44.193085195346058 15.700029485213303 #
straight-curve $-1 0 44.193085195346058 15.700029485213303 -1 0 0 I I #
straight-curve $-1 -68.256477553636273 0 15.700029485213303 0 -1 0 I I #
End-of-ACIS-data 