500 0 7 0           
7 Unknown 11 ACIS 5.0 NT 24 Fri Mar 26 17:33:51 1999 
-1 9.9999999999999995e-007 1e-010 
body $-1 $7 $-1 $8 #
body $-1 $9 $-1 $10 #
body $-1 $11 $-1 $12 #
body $-1 $13 $-1 $14 #
body $-1 $15 $-1 $16 #
body $-1 $17 $-1 $18 #
body $-1 $19 $-1 $20 #
lump $-1 $-1 $21 $0 #
transform $-1 1 0 0 0 1 0 0 0 1 62.274849696340837 40.176562170499793 9.8443428557545314 1 rotate no_reflect no_shear #
lump $-1 $-1 $22 $1 #
transform $-1 1 0 0 0 1 0 0 0 1 62.274849696340837 40.176562170499793 9.8443428557545314 1 rotate no_reflect no_shear #
lump $-1 $-1 $23 $2 #
transform $-1 1 0 0 0 1 0 0 0 1 62.274849696340837 40.176562170499793 9.8443428557545314 1 rotate no_reflect no_shear #
lump $-1 $-1 $24 $3 #
transform $-1 1 0 0 0 1 0 0 0 1 62.274849696340837 40.176562170499793 9.8443428557545314 1 rotate no_reflect no_shear #
lump $-1 $-1 $25 $4 #
transform $-1 1 0 0 0 1 0 0 0 1 62.274849696340837 40.176562170499793 9.8443428557545314 1 rotate no_reflect no_shear #
lump $-1 $-1 $26 $5 #
transform $-1 1 0 0 0 1 0 0 0 1 62.274849696340837 40.176562170499793 9.8443428557545314 1 rotate no_reflect no_shear #
lump $-1 $-1 $27 $6 #
transform $-1 1 0 0 0 1 0 0 0 1 62.274849696340837 40.176562170499793 9.8443428557545314 1 rotate no_reflect no_shear #
shell $-1 $-1 $-1 $28 $-1 $7 #
shell $-1 $-1 $-1 $29 $-1 $9 #
shell $-1 $-1 $-1 $30 $-1 $11 #
shell $-1 $-1 $-1 $31 $-1 $13 #
shell $-1 $-1 $-1 $32 $-1 $15 #
shell $-1 $-1 $-1 $33 $-1 $17 #
shell $-1 $-1 $-1 $34 $-1 $19 #
face $-1 $35 $36 $21 $-1 $37 reversed single #
face $-1 $38 $39 $22 $-1 $40 forward single #
face $-1 $41 $42 $23 $-1 $43 forward single #
face $-1 $44 $45 $24 $-1 $46 reversed single #
face $-1 $47 $48 $25 $-1 $49 forward single #
face $-1 $50 $51 $26 $-1 $52 reversed single #
face $-1 $53 $54 $27 $-1 $55 forward single #
face $-1 $56 $57 $21 $-1 $58 reversed single #
loop $-1 $-1 $59 $28 #
plane-surface $-1 0 40.176562170499793 0 0 -1 0 0 0 -1 forward_v I I I I #
face $-1 $60 $61 $22 $-1 $62 reversed single #
loop $-1 $-1 $63 $29 #
plane-surface $-1 0 -40.176562170499793 0 0 1 0 0 0 1 forward_v I I I I #
face $-1 $64 $65 $23 $-1 $66 reversed single #
loop $-1 $-1 $67 $30 #
plane-surface $-1 0 40.176562170499793 0 0 -1 0 0 0 -1 forward_v I I I I #
face $-1 $68 $69 $24 $-1 $70 reversed single #
loop $-1 $-1 $71 $31 #
plane-surface $-1 -169.03478030385722 -9.2589027092881473 66.966450927976112 0 1 0 -0.85716730853699208 0 0.51503806187062418 forward_v I I I I #
face $-1 $72 $73 $25 $-1 $74 forward single #
loop $-1 $75 $76 $32 #
cone-surface $-1 -57.593783469208866 -4.6294513546440754 4.7870721340943669 0.85716730853699208 0 -0.51503806187062418 0.77255709280593621 0 1.2857509628054882 1 I I 0 1 1.5 forward I I I I #
face $-1 $77 $78 $26 $-1 $79 reversed single #
loop $-1 $-1 $80 $33 #
plane-surface $-1 -62.274849696340837 -4.6294513546440754 2.8186151462004858 -0.85716730853699208 0 0.51503806187062418 0.51503806187062418 0 0.85716730853699208 forward_v I I I I #
face $-1 $81 $82 $27 $-1 $83 forward single #
loop $-1 $84 $85 $34 #
cone-surface $-1 -57.593783469208866 4.6294513546440612 4.7870721340943669 0.85716730853699208 0 -0.51503806187062418 0.77255709280593621 0 1.2857509628054882 1 I I 0 1 1.5 forward I I I I #
face $-1 $86 $87 $21 $-1 $88 forward single #
loop $-1 $-1 $89 $35 #
plane-surface $-1 0 -40.176562170499793 0 0 1 0 0 0 1 forward_v I I I I #
coedge $-1 $90 $91 $92 $93 reversed $36 $-1 #
face $-1 $94 $95 $22 $-1 $96 reversed single #
loop $-1 $-1 $97 $38 #
plane-surface $-1 0 0 -9.8443428557545314 0 0 1 1 0 0 forward_v I I I I #
coedge $-1 $98 $99 $100 $101 forward $39 $-1 #
face $-1 $102 $103 $23 $-1 $104 reversed single #
loop $-1 $-1 $105 $41 #
plane-surface $-1 0 0 -9.8443428557545314 0 0 1 1 0 0 forward_v I I I I #
coedge $-1 $106 $107 $108 $109 forward $42 $-1 #
face $-1 $110 $111 $24 $-1 $112 reversed single #
loop $-1 $-1 $113 $44 #
plane-surface $-1 -62.274849696340837 -4.6294513546440754 2.8186151462004858 -0.85716730853699208 0 0.51503806187062418 0.51503806187062418 0 0.85716730853699208 forward_v I I I I #
coedge $-1 $114 $115 $116 $117 reversed $45 $-1 #
face $-1 $-1 $118 $25 $-1 $119 forward single #
loop $-1 $120 $121 $47 #
cone-surface $-1 -54.380583238283407 -4.6294513546440754 2.8563867208082527 0.85716730853699208 0 -0.51503806187062418 0.3862785464029681 0 0.64287548140274409 1 I I -0.70710678118654757 0.70710678118654757 0.75 forward I I I I #
loop $-1 $-1 $122 $32 #
coedge $-1 $76 $76 $123 $124 reversed $48 $-1 #
face $-1 $125 $126 $26 $-1 $127 reversed single #
loop $-1 $-1 $128 $50 #
plane-surface $-1 -169.03478030385722 9.2589027092881331 66.966450927976112 0 -1 0 0.85716730853699208 0 -0.51503806187062418 forward_v I I I I #
coedge $-1 $129 $130 $131 $132 reversed $51 $-1 #
face $-1 $-1 $133 $27 $-1 $134 forward single #
loop $-1 $135 $136 $53 #
cone-surface $-1 -54.380583238283407 4.6294513546440612 2.8563867208082527 0.85716730853699208 0 -0.51503806187062418 0.3862785464029681 0 0.64287548140274409 1 I I -0.70710678118654757 0.70710678118654757 0.75 forward I I I I #
loop $-1 $-1 $137 $34 #
coedge $-1 $85 $85 $138 $139 reversed $54 $-1 #
face $-1 $140 $141 $21 $-1 $142 reversed single #
loop $-1 $-1 $143 $56 #
plane-surface $-1 0 0 9.8443428557545314 0 0 1 1 0 0 forward_v I I I I #
coedge $-1 $144 $145 $146 $147 reversed $57 $-1 #
coedge $-1 $148 $59 $149 $150 reversed $36 $-1 #
coedge $-1 $59 $148 $151 $152 forward $36 $-1 #
coedge $-1 $153 $154 $59 $93 forward $141 $-1 #
edge $-1 $155 -62.274849696340837 $156 62.274849696340837 $59 $157 forward 7 unknown #
face $-1 $158 $159 $22 $-1 $160 reversed single #
loop $-1 $-1 $161 $60 #
plane-surface $-1 -45.538745798348387 -50.034791116735391 0 0 1 0 0 0 1 forward_v I I I I #
coedge $-1 $162 $163 $99 $164 forward $61 $-1 #
coedge $-1 $165 $63 $166 $167 reversed $39 $-1 #
coedge $-1 $63 $165 $97 $164 reversed $39 $-1 #
coedge $-1 $168 $169 $63 $101 reversed $159 $-1 #
edge $-1 $170 -9.8443428557545314 $171 9.8443428557545314 $100 $172 forward 7 unknown #
face $-1 $173 $174 $23 $-1 $175 reversed single #
loop $-1 $-1 $176 $64 #
plane-surface $-1 -48.491327611864996 45.105676643617599 0 1 0 0 0 0 -1 forward_v I I I I #
coedge $-1 $177 $178 $107 $179 forward $65 $-1 #
coedge $-1 $180 $67 $181 $182 reversed $42 $-1 #
coedge $-1 $67 $180 $105 $179 reversed $42 $-1 #
coedge $-1 $183 $184 $67 $109 reversed $185 $-1 #
edge $-1 $186 -9.8443428557545314 $187 9.8443428557545314 $108 $188 forward 7 unknown #
face $-1 $189 $190 $24 $-1 $191 reversed single #
loop $-1 $-1 $192 $68 #
plane-surface $-1 -169.03478030385722 -3.5527136788005009e-015 66.966450927976112 0 -1 0 0.85716730853699208 0 -0.51503806187062418 forward_v I I I I #
coedge $-1 $193 $194 $195 $196 reversed $69 $-1 #
coedge $-1 $115 $71 $197 $198 reversed $45 $-1 #
coedge $-1 $71 $114 $193 $199 reversed $45 $-1 #
coedge $-1 $195 $200 $71 $117 forward $201 $-1 #
edge $-1 $202 22.242540455587772 $203 26.464023410806305 $116 $204 forward 7 unknown #
loop $-1 $-1 $123 $72 #
plane-surface $-1 -62.274849696340837 -4.6294513546440754 2.8186151462004858 -0.85716730853699208 0 0.51503806187062418 0.51503806187062418 0 0.85716730853699208 forward_v I I I I #
loop $-1 $-1 $205 $47 #
coedge $-1 $121 $121 $122 $206 reversed $73 $-1 #
coedge $-1 $122 $122 $121 $206 forward $75 $-1 #
coedge $-1 $123 $123 $76 $124 forward $118 $-1 #
edge $-1 $207 0 $207 6.2831853071796004 $123 $208 forward 7 unknown #
face $-1 $209 $210 $26 $-1 $211 forward single #
loop $-1 $-1 $212 $77 #
plane-surface $-1 -62.274849696340837 0 0 1 0 0 0 0 -1 forward_v I I I I #
coedge $-1 $213 $214 $215 $216 reversed $78 $-1 #
coedge $-1 $217 $80 $218 $219 reversed $51 $-1 #
coedge $-1 $80 $217 $220 $221 reversed $51 $-1 #
coedge $-1 $222 $223 $80 $132 forward $210 $-1 #
edge $-1 $224 0 $225 8.1964485107878371 $131 $226 forward 7 unknown #
loop $-1 $-1 $138 $81 #
plane-surface $-1 -62.274849696340837 -4.6294513546440754 2.8186151462004858 -0.85716730853699208 0 0.51503806187062418 0.51503806187062418 0 0.85716730853699208 forward_v I I I I #
loop $-1 $-1 $227 $53 #
coedge $-1 $136 $136 $137 $228 reversed $82 $-1 #
coedge $-1 $137 $137 $136 $228 forward $84 $-1 #
coedge $-1 $138 $138 $85 $139 forward $133 $-1 #
edge $-1 $229 0 $229 6.2831853071796004 $138 $230 forward 7 unknown #
face $-1 $231 $232 $21 $-1 $233 reversed single #
loop $-1 $-1 $153 $86 #
plane-surface $-1 0 0 -9.8443428557545314 0 0 1 1 0 0 forward_v I I I I #
coedge $-1 $234 $235 $236 $237 forward $87 $-1 #
coedge $-1 $238 $89 $239 $240 reversed $57 $-1 #
coedge $-1 $89 $238 $241 $242 forward $57 $-1 #
coedge $-1 $154 $153 $89 $147 forward $141 $-1 #
edge $-1 $243 -62.274849696340837 $244 62.274849696340837 $89 $245 forward 7 unknown #
coedge $-1 $91 $90 $234 $246 reversed $36 $-1 #
coedge $-1 $247 $248 $90 $150 forward $232 $-1 #
edge $-1 $249 -9.8443428557545314 $155 9.8443428557545314 $90 $250 forward 7 unknown #
coedge $-1 $236 $251 $91 $152 reversed $252 $-1 #
edge $-1 $253 -9.8443428557545314 $156 9.8443428557545314 $151 $254 forward 7 unknown #
coedge $-1 $146 $92 $251 $255 forward $141 $-1 #
coedge $-1 $92 $146 $247 $256 forward $141 $-1 #
vertex $-1 $93 $257 #
vertex $-1 $255 $258 #
straight-curve $-1 0 40.176562170499793 -9.8443428557545314 1 0 0 I I #
face $-1 $259 $260 $22 $-1 $261 reversed single #
loop $-1 $-1 $100 $94 #
plane-surface $-1 -48.491327611864996 -45.105676643617592 0 1 0 0 0 0 -1 forward_v I I I I #
coedge $-1 $262 $263 $264 $265 forward $95 $-1 #
coedge $-1 $266 $97 $267 $268 forward $61 $-1 #
coedge $-1 $97 $266 $168 $269 forward $61 $-1 #
edge $-1 $170 -48.491327611864996 $270 -42.586163984831778 $97 $271 forward 7 unknown #
coedge $-1 $99 $98 $272 $273 forward $39 $-1 #
coedge $-1 $274 $275 $98 $167 forward $276 $-1 #
edge $-1 $277 42.586163984831778 $171 48.491327611864996 $166 $278 forward 7 unknown #
coedge $-1 $264 $100 $163 $269 reversed $159 $-1 #
coedge $-1 $100 $264 $274 $279 reversed $159 $-1 #
vertex $-1 $164 $280 #
vertex $-1 $279 $281 #
straight-curve $-1 -48.491327611864996 -40.176562170499793 0 0 0 1 I I #
face $-1 $282 $185 $23 $-1 $283 reversed single #
loop $-1 $-1 $284 $102 #
plane-surface $-1 -45.538745798348387 50.034791116735398 0 0 -1 0 0 0 -1 forward_v I I I I #
coedge $-1 $285 $286 $287 $288 forward $103 $-1 #
coedge $-1 $289 $105 $285 $290 forward $65 $-1 #
coedge $-1 $105 $289 $183 $291 forward $65 $-1 #
edge $-1 $186 42.586163984831778 $292 48.491327611864996 $105 $293 forward 7 unknown #
coedge $-1 $107 $106 $294 $295 forward $42 $-1 #
coedge $-1 $296 $297 $106 $182 forward $298 $-1 #
edge $-1 $299 -48.491327611864996 $187 -42.586163984831778 $181 $300 forward 7 unknown #
coedge $-1 $301 $108 $178 $291 reversed $185 $-1 #
coedge $-1 $108 $301 $296 $302 reversed $185 $-1 #
loop $-1 $-1 $108 $173 #
vertex $-1 $179 $303 #
vertex $-1 $302 $304 #
straight-curve $-1 -42.586163984831778 40.176562170499793 0 0 0 1 I I #
face $-1 $-1 $201 $24 $-1 $305 forward single #
loop $-1 $-1 $306 $110 #
plane-surface $-1 -62.274849696340837 0 0 1 0 0 0 0 -1 forward_v I I I I #
coedge $-1 $307 $308 $309 $310 reversed $111 $-1 #
coedge $-1 $311 $113 $115 $199 forward $69 $-1 #
coedge $-1 $113 $311 $307 $312 forward $69 $-1 #
coedge $-1 $309 $116 $113 $196 forward $201 $-1 #
edge $-1 $203 -6.9441770319661096 $313 2.3147256773220342 $195 $314 forward 7 unknown #
coedge $-1 $315 $316 $114 $198 forward $190 $-1 #
edge $-1 $317 -30.66461031778757 $202 -23.638882608233523 $197 $318 forward 7 unknown #
edge $-1 $203 -8.1964485107878371 $317 0 $115 $319 forward 7 unknown #
coedge $-1 $116 $309 $315 $320 forward $201 $-1 #
loop $-1 $-1 $309 $189 #
vertex $-1 $198 $321 #
vertex $-1 $117 $322 #
straight-curve $-1 -84.517390151928609 -9.2589027092881473 9.8443428557545332 1 0 0 I I #
coedge $-1 $205 $205 $-1 $323 reversed $120 $-1 #
edge $-1 $324 0 $324 6.2831853071796004 $121 $325 forward 7 unknown #
vertex $-1 $124 $326 #
ellipse-curve $-1 -60.16410821873157 -4.6294513546440754 6.3314790009775095 -0.85716730853699208 0 0.51503806187062418 0.77255709280593621 0 1.2857509628054882 1 I I #
face $-1 $-1 $327 $26 $-1 $328 forward single #
loop $-1 $-1 $222 $125 #
plane-surface $-1 -169.03478030385722 -3.5527136788005009e-015 66.966450927976112 0 -1 0 0.85716730853699208 0 -0.51503806187062418 forward_v I I I I #
coedge $-1 $218 $329 $214 $330 forward $126 $-1 #
coedge $-1 $214 $128 $217 $331 reversed $78 $-1 #
coedge $-1 $128 $213 $212 $330 reversed $78 $-1 #
coedge $-1 $332 $220 $128 $216 forward $327 $-1 #
edge $-1 $333 -26.464023410806305 $334 -22.242540455587772 $215 $335 forward 7 unknown #
coedge $-1 $130 $129 $213 $331 forward $51 $-1 #
coedge $-1 $336 $212 $129 $219 forward $126 $-1 #
edge $-1 $337 -11.573628386610171 $224 -2.3147256773220342 $218 $338 forward 7 unknown #
coedge $-1 $215 $339 $130 $221 forward $327 $-1 #
edge $-1 $225 2.3147256773220342 $333 11.573628386610171 $220 $340 forward 7 unknown #
coedge $-1 $223 $131 $339 $341 reversed $210 $-1 #
coedge $-1 $131 $222 $336 $342 reversed $210 $-1 #
vertex $-1 $219 $343 #
vertex $-1 $221 $344 #
straight-curve $-1 -62.274849696340837 -3.5527136788005009e-015 2.8186151462004858 0.51503806187062418 0 0.85716730853699208 I I #
coedge $-1 $227 $227 $-1 $345 reversed $135 $-1 #
edge $-1 $346 0 $346 6.2831853071796004 $136 $347 forward 7 unknown #
vertex $-1 $139 $348 #
ellipse-curve $-1 -60.16410821873157 4.6294513546440612 6.3314790009775095 -0.85716730853699208 0 0.51503806187062418 0.77255709280593621 0 1.2857509628054882 1 I I #
face $-1 $-1 $252 $21 $-1 $349 reversed single #
loop $-1 $-1 $149 $140 #
plane-surface $-1 -62.274849696340837 0 0 1 0 0 0 0 -1 forward_v I I I I #
coedge $-1 $350 $143 $148 $246 forward $87 $-1 #
coedge $-1 $143 $350 $238 $351 forward $87 $-1 #
coedge $-1 $239 $151 $143 $237 reversed $252 $-1 #
edge $-1 $352 -40.176562170499793 $253 40.176562170499793 $236 $353 forward 7 unknown #
coedge $-1 $145 $144 $235 $351 reversed $57 $-1 #
coedge $-1 $251 $236 $144 $240 forward $252 $-1 #
edge $-1 $352 -9.8443428557545314 $243 9.8443428557545314 $239 $354 forward 7 unknown #
coedge $-1 $248 $247 $145 $242 reversed $232 $-1 #
edge $-1 $355 -9.8443428557545314 $244 9.8443428557545314 $241 $356 forward 7 unknown #
vertex $-1 $240 $357 #
vertex $-1 $256 $358 #
straight-curve $-1 0 -40.176562170499793 -9.8443428557545314 -1 0 0 I I #
edge $-1 $253 -62.274849696340837 $249 62.274849696340837 $148 $359 forward 7 unknown #
coedge $-1 $241 $149 $154 $256 reversed $232 $-1 #
coedge $-1 $149 $241 $350 $360 reversed $232 $-1 #
vertex $-1 $246 $361 #
straight-curve $-1 -62.274849696340837 40.176562170499793 0 0 0 -1 I I #
coedge $-1 $151 $239 $153 $255 reversed $252 $-1 #
loop $-1 $-1 $239 $231 #
vertex $-1 $237 $362 #
straight-curve $-1 62.274849696340837 40.176562170499793 0 0 0 -1 I I #
edge $-1 $156 -40.176562170499793 $243 40.176562170499793 $251 $363 forward 7 unknown #
edge $-1 $244 -40.176562170499793 $155 40.176562170499793 $247 $364 forward 7 unknown #
point $-1 -62.274849696340837 40.176562170499793 -9.8443428557545314 #
point $-1 62.274849696340837 40.176562170499793 -9.8443428557545314 #
face $-1 $-1 $276 $22 $-1 $365 forward single #
loop $-1 $-1 $366 $158 #
plane-surface $-1 -42.586163984831778 -45.105676643617592 0 -1 0 0 0 0 1 forward_v I I I I #
coedge $-1 $367 $161 $266 $368 reversed $95 $-1 #
coedge $-1 $161 $367 $369 $370 reversed $95 $-1 #
coedge $-1 $169 $168 $161 $265 reversed $159 $-1 #
edge $-1 $371 -9.8443428557545314 $372 9.8443428557545314 $264 $373 forward 7 unknown #
coedge $-1 $163 $162 $262 $368 forward $61 $-1 #
coedge $-1 $272 $366 $162 $268 reversed $260 $-1 #
edge $-1 $270 -4.9291144731177994 $374 4.9291144731177994 $267 $375 forward 7 unknown #
edge $-1 $372 -4.9291144731177994 $170 4.9291144731177994 $168 $376 forward 7 unknown #
vertex $-1 $268 $377 #
straight-curve $-1 0 -40.176562170499793 -9.8443428557545314 1 0 0 I I #
coedge $-1 $378 $267 $165 $273 reversed $260 $-1 #
edge $-1 $277 -9.8443428557545314 $270 9.8443428557545314 $272 $379 forward 7 unknown #
coedge $-1 $369 $166 $169 $279 forward $276 $-1 #
coedge $-1 $166 $369 $378 $380 forward $276 $-1 #
loop $-1 $-1 $166 $259 #
vertex $-1 $167 $381 #
straight-curve $-1 0 -40.176562170499793 9.8443428557545314 -1 0 0 I I #
edge $-1 $171 -4.9291144731177994 $371 4.9291144731177994 $169 $382 forward 7 unknown #
point $-1 -48.491327611864996 -40.176562170499793 -9.8443428557545314 #
point $-1 -48.491327611864996 -40.176562170499793 9.8443428557545314 #
face $-1 $-1 $298 $23 $-1 $383 forward single #
plane-surface $-1 -42.586163984831778 45.105676643617599 0 -1 0 0 0 0 1 forward_v I I I I #
coedge $-1 $384 $385 $301 $386 forward $174 $-1 #
coedge $-1 $294 $176 $177 $290 reversed $103 $-1 #
coedge $-1 $176 $294 $297 $387 reversed $103 $-1 #
coedge $-1 $385 $384 $176 $288 reversed $174 $-1 #
edge $-1 $388 -9.8443428557545314 $389 9.8443428557545314 $287 $390 forward 7 unknown #
coedge $-1 $178 $177 $384 $391 forward $65 $-1 #
edge $-1 $292 -4.9291144731177994 $389 4.9291144731177994 $285 $392 forward 7 unknown #
edge $-1 $393 -4.9291144731177994 $186 4.9291144731177994 $183 $394 forward 7 unknown #
vertex $-1 $290 $395 #
straight-curve $-1 0 40.176562170499793 -9.8443428557545314 -1 0 0 I I #
coedge $-1 $286 $285 $180 $295 reversed $103 $-1 #
edge $-1 $299 -9.8443428557545314 $292 9.8443428557545314 $294 $396 forward 7 unknown #
coedge $-1 $397 $181 $184 $302 forward $298 $-1 #
coedge $-1 $181 $397 $286 $387 forward $298 $-1 #
loop $-1 $-1 $181 $282 #
vertex $-1 $182 $398 #
straight-curve $-1 0 40.176562170499793 9.8443428557545314 1 0 0 I I #
coedge $-1 $184 $183 $284 $386 reversed $185 $-1 #
edge $-1 $187 -4.9291144731177994 $399 4.9291144731177994 $184 $400 forward 7 unknown #
point $-1 -42.586163984831778 40.1765621704998 -9.8443428557545314 #
point $-1 -42.586163984831778 40.1765621704998 9.8443428557545314 #
plane-surface $-1 0 0 9.8443428557545314 0 0 1 1 0 0 forward_v I I I I #
coedge $-1 $316 $315 $308 $401 forward $190 $-1 #
coedge $-1 $308 $192 $194 $312 reversed $111 $-1 #
coedge $-1 $192 $307 $306 $401 reversed $111 $-1 #
coedge $-1 $200 $195 $192 $310 forward $201 $-1 #
edge $-1 $313 -26.464023410806305 $402 -22.242540455587772 $309 $403 forward 7 unknown #
coedge $-1 $194 $193 $316 $404 reversed $69 $-1 #
edge $-1 $405 0 $313 8.1964485107878371 $307 $406 forward 7 unknown #
vertex $-1 $196 $407 #
straight-curve $-1 -58.053366741122304 -2.3147256773220377 9.8443428557545314 0 1 0 I I #
coedge $-1 $306 $197 $200 $320 reversed $190 $-1 #
coedge $-1 $197 $306 $311 $404 forward $190 $-1 #
vertex $-1 $198 $408 #
straight-curve $-1 -62.274849696340837 -9.2589027092881473 33.483225463988056 0 0 1 I I #
straight-curve $-1 -62.274849696340837 -9.2589027092881473 2.8186151462004858 -0.51503806187062418 0 -0.85716730853699208 I I #
edge $-1 $402 3.5527136788005009e-015 $202 9.2589027092881473 $315 $409 forward 7 unknown #
point $-1 -62.274849696340837 -9.2589027092881473 9.8443428557545314 #
point $-1 -58.053366741122304 -9.2589027092881473 9.8443428557545296 #
edge $-1 $410 1 $410 0 $205 $-1 forward 7 unknown #
vertex $-1 $206 $411 #
ellipse-curve $-1 -55.023458719686154 -4.6294513546440754 3.2426652672112208 -0.85716730853699208 0 0.51503806187062418 0.77255709280593621 0 1.2857509628054882 1 I I #
point $-1 -59.391551125925638 -4.6294513546440754 7.617229963783001 #
loop $-1 $-1 $215 $209 #
plane-surface $-1 0 0 9.8443428557545314 0 0 1 1 0 0 forward_v I I I I #
coedge $-1 $212 $336 $332 $412 reversed $126 $-1 #
edge $-1 $334 23.638882608233523 $337 30.66461031778757 $212 $413 forward 7 unknown #
edge $-1 $337 0 $333 8.1964485107878371 $213 $414 forward 7 unknown #
coedge $-1 $339 $215 $329 $412 forward $327 $-1 #
vertex $-1 $216 $415 #
vertex $-1 $412 $416 #
straight-curve $-1 -84.517390151928609 9.2589027092881331 9.8443428557545332 -1 0 0 I I #
coedge $-1 $329 $218 $223 $342 forward $126 $-1 #
vertex $-1 $330 $417 #
straight-curve $-1 -62.274849696340837 -2.3147256773220377 2.818615146200488 0 -1 0 I I #
coedge $-1 $220 $332 $222 $341 forward $327 $-1 #
straight-curve $-1 -58.053366741122304 -2.3147256773220377 9.8443428557545314 0 1 0 I I #
edge $-1 $418 22.242540455587772 $225 26.464023410806305 $339 $419 forward 7 unknown #
edge $-1 $224 -30.66461031778757 $418 -23.638882608233523 $336 $420 forward 7 unknown #
point $-1 -62.274849696340837 -3.5527136788005009e-015 2.8186151462004858 #
point $-1 -58.053366741122304 -3.5527136788005009e-015 9.8443428557545296 #
edge $-1 $421 1 $421 0 $227 $-1 forward 7 unknown #
vertex $-1 $228 $422 #
ellipse-curve $-1 -55.023458719686154 4.6294513546440612 3.2426652672112208 -0.85716730853699208 0 0.51503806187062418 0.77255709280593621 0 1.2857509628054882 1 I I #
point $-1 -59.391551125925638 4.6294513546440612 7.617229963783001 #
plane-surface $-1 62.274849696340837 0 0 -1 0 0 0 0 1 forward_v I I I I #
coedge $-1 $235 $234 $248 $360 forward $87 $-1 #
edge $-1 $355 -62.274849696340837 $352 62.274849696340837 $238 $423 forward 7 unknown #
vertex $-1 $237 $424 #
straight-curve $-1 62.274849696340837 0 9.8443428557545314 0 1 0 I I #
straight-curve $-1 62.274849696340837 -40.176562170499793 0 0 0 -1 I I #
vertex $-1 $360 $425 #
straight-curve $-1 -62.274849696340837 -40.176562170499793 0 0 0 -1 I I #
point $-1 62.274849696340837 -40.176562170499793 -9.8443428557545314 #
point $-1 -62.274849696340837 -40.176562170499793 -9.8443428557545314 #
straight-curve $-1 0 40.176562170499793 9.8443428557545314 -1 0 0 I I #
edge $-1 $249 -40.176562170499793 $355 40.176562170499793 $248 $426 forward 7 unknown #
point $-1 -62.274849696340837 40.176562170499793 9.8443428557545314 #
point $-1 62.274849696340837 40.176562170499793 9.8443428557545314 #
straight-curve $-1 62.274849696340837 0 -9.8443428557545314 0 -1 0 I I #
straight-curve $-1 -62.274849696340837 0 -9.8443428557545314 0 1 0 I I #
plane-surface $-1 0 0 9.8443428557545314 0 0 1 1 0 0 forward_v I I I I #
coedge $-1 $267 $378 $367 $427 forward $260 $-1 #
coedge $-1 $263 $262 $366 $427 reversed $95 $-1 #
edge $-1 $374 -2.9525818135166091 $372 2.9525818135166091 $262 $428 forward 7 unknown #
coedge $-1 $275 $274 $263 $370 forward $276 $-1 #
edge $-1 $371 -2.9525818135166091 $429 2.9525818135166091 $263 $430 forward 7 unknown #
vertex $-1 $279 $431 #
vertex $-1 $269 $432 #
straight-curve $-1 -48.491327611864996 -50.034791116735391 0 0 0 -1 I I #
vertex $-1 $427 $433 #
straight-curve $-1 -42.586163984831778 -45.105676643617592 -9.8443428557545314 0 -1 0 I I #
straight-curve $-1 -48.491327611864996 -45.105676643617592 -9.8443428557545314 0 1 0 I I #
point $-1 -42.586163984831778 -40.176562170499793 -9.8443428557545314 #
coedge $-1 $366 $272 $275 $380 reversed $260 $-1 #
straight-curve $-1 -42.586163984831778 -40.176562170499793 0 0 0 -1 I I #
edge $-1 $429 -4.9291144731177994 $277 4.9291144731177994 $378 $434 forward 7 unknown #
point $-1 -42.586163984831778 -40.176562170499793 9.8443428557545314 #
straight-curve $-1 -48.491327611864996 -45.105676643617592 9.8443428557545314 0 -1 0 I I #
plane-surface $-1 0 0 9.8443428557545314 0 0 1 1 0 0 forward_v I I I I #
coedge $-1 $287 $284 $289 $391 reversed $174 $-1 #
coedge $-1 $284 $287 $397 $435 reversed $174 $-1 #
edge $-1 $399 -9.8443428557545314 $393 9.8443428557545314 $301 $436 forward 7 unknown #
edge $-1 $388 -4.9291144731177994 $299 4.9291144731177994 $286 $437 forward 7 unknown #
vertex $-1 $435 $438 #
vertex $-1 $391 $439 #
straight-curve $-1 -48.491327611864996 50.034791116735398 0 0 0 -1 I I #
edge $-1 $389 -2.9525818135166091 $393 2.9525818135166091 $384 $440 forward 7 unknown #
straight-curve $-1 -48.491327611864996 45.105676643617599 -9.8443428557545314 0 1 0 I I #
vertex $-1 $291 $441 #
straight-curve $-1 -42.586163984831778 45.105676643617599 -9.8443428557545314 0 -1 0 I I #
point $-1 -48.491327611864996 40.1765621704998 -9.8443428557545314 #
straight-curve $-1 -48.491327611864996 40.176562170499793 0 0 0 -1 I I #
coedge $-1 $297 $296 $385 $435 forward $298 $-1 #
point $-1 -48.491327611864996 40.1765621704998 9.8443428557545314 #
vertex $-1 $302 $442 #
straight-curve $-1 -42.586163984831778 45.105676643617599 9.8443428557545314 0 1 0 I I #
edge $-1 $402 23.638882608233523 $405 30.66461031778757 $306 $443 forward 7 unknown #
vertex $-1 $320 $444 #
straight-curve $-1 -84.517390151928609 -3.5527136788005009e-015 9.8443428557545332 -1 0 0 I I #
edge $-1 $405 -2.3147256773220342 $317 6.9441770319661096 $316 $445 forward 7 unknown #
vertex $-1 $404 $446 #
straight-curve $-1 -62.274849696340837 -3.5527136788005009e-015 2.8186151462004858 0.51503806187062418 0 0.85716730853699208 I I #
point $-1 -58.053366741122304 -3.5527136788005009e-015 9.8443428557545296 #
point $-1 -62.274849696340837 -9.2589027092881473 2.8186151462004858 #
straight-curve $-1 -62.274849696340837 0 9.8443428557545314 0 -1 0 I I #
vertex $-1 $323 $447 #
point $-1 -54.250901626880214 -4.6294513546440754 4.5284162300167088 #
edge $-1 $334 -9.2589027092881331 $418 3.5527136788005009e-015 $329 $448 forward 7 unknown #
straight-curve $-1 -62.274849696340837 9.2589027092881331 33.483225463988056 0 0 -1 I I #
straight-curve $-1 -62.274849696340837 9.2589027092881331 2.8186151462004858 0.51503806187062418 0 0.85716730853699208 I I #
point $-1 -58.053366741122304 9.2589027092881331 9.8443428557545296 #
point $-1 -62.274849696340837 9.2589027092881331 9.8443428557545314 #
point $-1 -62.274849696340837 9.2589027092881331 2.8186151462004858 #
vertex $-1 $342 $449 #
straight-curve $-1 -84.517390151928609 -3.5527136788005009e-015 9.8443428557545332 1 0 0 I I #
straight-curve $-1 -62.274849696340837 -3.5527136788005009e-015 33.483225463988056 0 0 1 I I #
vertex $-1 $345 $450 #
point $-1 -54.250901626880214 4.6294513546440612 4.5284162300167088 #
straight-curve $-1 0 -40.176562170499793 9.8443428557545314 1 0 0 I I #
point $-1 62.274849696340837 -40.176562170499793 9.8443428557545314 #
point $-1 -62.274849696340837 -40.176562170499793 9.8443428557545314 #
straight-curve $-1 -62.274849696340837 0 9.8443428557545314 0 -1 0 I I #
edge $-1 $429 -9.8443428557545314 $374 9.8443428557545314 $366 $451 forward 7 unknown #
straight-curve $-1 -45.538745798348387 -50.034791116735391 -9.8443428557545314 -1 0 0 I I #
vertex $-1 $380 $452 #
straight-curve $-1 -45.538745798348387 -50.034791116735391 9.8443428557545314 1 0 0 I I #
point $-1 -48.491327611864996 -50.034791116735391 9.8443428557545314 #
point $-1 -48.491327611864996 -50.034791116735391 -9.8443428557545314 #
point $-1 -42.586163984831778 -50.034791116735391 -9.8443428557545314 #
straight-curve $-1 -42.586163984831778 -45.105676643617592 9.8443428557545314 0 1 0 I I #
edge $-1 $399 -2.9525818135166091 $388 2.9525818135166091 $385 $453 forward 7 unknown #
straight-curve $-1 -42.586163984831778 50.034791116735398 0 0 0 -1 I I #
straight-curve $-1 -48.491327611864996 45.105676643617599 9.8443428557545314 0 -1 0 I I #
point $-1 -48.491327611864996 50.034791116735398 9.8443428557545314 #
point $-1 -48.491327611864996 50.034791116735398 -9.8443428557545314 #
straight-curve $-1 -45.538745798348387 50.034791116735398 -9.8443428557545314 1 0 0 I I #
point $-1 -42.586163984831778 50.034791116735398 -9.8443428557545314 #
point $-1 -42.586163984831778 50.034791116735398 9.8443428557545314 #
straight-curve $-1 -62.274849696340837 -3.5527136788005009e-015 33.483225463988056 0 0 -1 I I #
point $-1 -62.274849696340837 -3.5527136788005009e-015 9.8443428557545314 #
straight-curve $-1 -62.274849696340837 -2.3147256773220377 2.818615146200488 0 -1 0 I I #
point $-1 -62.274849696340837 -3.5527136788005009e-015 2.8186151462004858 #
point $-1 -53.73770775688066 -4.6294513546440754 2.4701081744052846 #
straight-curve $-1 -62.274849696340837 0 9.8443428557545314 0 -1 0 I I #
point $-1 -62.274849696340837 -3.5527136788005009e-015 9.8443428557545314 #
point $-1 -53.73770775688066 4.6294513546440612 2.4701081744052846 #
straight-curve $-1 -42.586163984831778 -50.034791116735391 0 0 0 -1 I I #
point $-1 -42.586163984831778 -50.034791116735391 9.8443428557545314 #
straight-curve $-1 -45.538745798348387 50.034791116735398 9.8443428557545314 -1 0 0 I I #
End-of-ACIS-data 