500 0 8 0           
7 Unknown 11 ACIS 5.0 NT 24 Fri Mar 26 20:11:09 1999 
-1 9.9999999999999995e-007 1e-010 
body $-1 $8 $-1 $9 #
body $-1 $10 $-1 $11 #
body $-1 $12 $-1 $13 #
body $-1 $14 $-1 $15 #
body $-1 $16 $-1 $17 #
body $-1 $18 $-1 $19 #
body $-1 $20 $-1 $21 #
body $-1 $22 $-1 $23 #
lump $-1 $-1 $24 $0 #
transform $-1 1 0 0 0 1 0 0 0 1 54.310739463484602 29.329158446191595 10.664367363240613 1 rotate no_reflect no_shear #
lump $-1 $-1 $25 $1 #
transform $-1 1 0 0 0 1 0 0 0 1 54.310739463484602 29.329158446191595 10.664367363240613 1 rotate no_reflect no_shear #
lump $-1 $-1 $26 $2 #
transform $-1 1 0 0 0 1 0 0 0 1 54.310739463484602 29.329158446191595 10.664367363240613 1 rotate no_reflect no_shear #
lump $-1 $-1 $27 $3 #
transform $-1 1 0 0 0 1 0 0 0 1 54.310739463484602 29.329158446191595 10.664367363240613 1 rotate no_reflect no_shear #
lump $-1 $-1 $28 $4 #
transform $-1 1 0 0 0 1 0 0 0 1 54.310739463484602 29.329158446191595 10.664367363240613 1 rotate no_reflect no_shear #
lump $-1 $-1 $29 $5 #
transform $-1 1 0 0 0 1 0 0 0 1 54.310739463484602 29.329158446191595 10.664367363240613 1 rotate no_reflect no_shear #
lump $-1 $-1 $30 $6 #
transform $-1 1 0 0 0 1 0 0 0 1 54.310739463484602 29.329158446191595 10.664367363240613 1 rotate no_reflect no_shear #
lump $-1 $-1 $31 $7 #
transform $-1 1 0 0 0 1 0 0 0 1 54.310739463484602 29.329158446191595 10.664367363240613 1 rotate no_reflect no_shear #
shell $-1 $-1 $-1 $32 $-1 $8 #
shell $-1 $-1 $-1 $33 $-1 $10 #
shell $-1 $-1 $-1 $34 $-1 $12 #
shell $-1 $-1 $-1 $35 $-1 $14 #
shell $-1 $-1 $-1 $36 $-1 $16 #
shell $-1 $-1 $-1 $37 $-1 $18 #
shell $-1 $-1 $-1 $38 $-1 $20 #
shell $-1 $-1 $-1 $39 $-1 $22 #
face $-1 $40 $41 $24 $-1 $42 forward single #
face $-1 $43 $44 $25 $-1 $45 reversed single #
face $-1 $46 $47 $26 $-1 $48 reversed single #
face $-1 $49 $50 $27 $-1 $51 reversed single #
face $-1 $52 $53 $28 $-1 $54 forward single #
face $-1 $55 $56 $29 $-1 $57 forward single #
face $-1 $58 $59 $30 $-1 $60 reversed single #
face $-1 $61 $62 $31 $-1 $63 forward single #
face $-1 $64 $65 $24 $-1 $66 reversed single #
loop $-1 $-1 $67 $32 #
plane-surface $-1 0 0 10.664367363240613 0 0 1 1 0 0 forward_v I I I I #
face $-1 $68 $69 $25 $-1 $70 reversed single #
loop $-1 $-1 $71 $33 #
plane-surface $-1 0 -24.649331238662697 5.6260420541374749 0 0 1 1 0 0 forward_v I I I I #
face $-1 $72 $73 $26 $-1 $74 reversed single #
loop $-1 $-1 $75 $34 #
plane-surface $-1 0 24.6493312386627 5.6260420541374749 0 0 1 1 0 0 forward_v I I I I #
face $-1 $76 $77 $27 $-1 $78 reversed single #
loop $-1 $-1 $79 $35 #
plane-surface $-1 -136.28841112795172 -17.284457520924875 78.385913707730055 0 1 0 -0.75470958851134928 0 0.65605901945558964 forward_v I I I I #
face $-1 $80 $81 $28 $-1 $82 forward single #
loop $-1 $83 $84 $36 #
cone-surface $-1 -52.148143550863203 -15.042959776695966 8.3519008353214517 0.75470958851134928 0 -0.65605901945558964 0.32802950972779482 0 0.37735479425567464 1 I I 0 1 0.5 forward I I I I #
face $-1 $85 $86 $29 $-1 $87 forward single #
loop $-1 $88 $89 $37 #
cone-surface $-1 -52.148143550863203 -11.680713160352603 8.3519008353214517 0.75470958851134928 0 -0.65605901945558964 0.32802950972779482 0 0.37735479425567464 1 I I 0 1 0.5 forward I I I I #
face $-1 $90 $91 $30 $-1 $92 reversed single #
loop $-1 $-1 $93 $38 #
plane-surface $-1 43.595172311605673 14.776025635323116 154.19480726242097 0 -1 0 -0.6560590369687036 0 -0.75470957328743171 forward_v I I I I #
face $-1 $94 $95 $31 $-1 $96 forward single #
loop $-1 $97 $98 $39 #
cone-surface $-1 46.44542504051865 9.4503962532381713 3.1861021940880589 -0.6560590369687036 0 -0.75470957328743171 1.5094191465748634 0 -1.3121180739374072 1 I I 0 1 2 forward I I I I #
face $-1 $99 $100 $24 $-1 $101 reversed single #
loop $-1 $-1 $102 $40 #
plane-surface $-1 0 0 -10.664367363240613 0 0 1 1 0 0 forward_v I I I I #
coedge $-1 $103 $104 $105 $106 forward $41 $-1 #
face $-1 $107 $108 $25 $-1 $109 reversed single #
loop $-1 $-1 $110 $43 #
plane-surface $-1 0 -19.969504031133795 8.1452047086890449 0 -1 0 0 0 -1 forward_v I I I I #
coedge $-1 $111 $112 $113 $114 reversed $44 $-1 #
face $-1 $115 $116 $26 $-1 $117 forward single #
loop $-1 $-1 $118 $46 #
plane-surface $-1 0 19.969504031133802 8.1452047086890449 0 1 0 0 0 1 forward_v I I I I #
coedge $-1 $119 $120 $121 $122 reversed $47 $-1 #
face $-1 $123 $124 $27 $-1 $125 reversed single #
loop $-1 $-1 $126 $49 #
plane-surface $-1 -54.310739463484595 -13.361836468524285 7.1238127510866462 -0.75470958851134928 0 0.65605901945558964 0.65605901945558964 0 0.75470958851134928 forward_v I I I I #
coedge $-1 $127 $128 $129 $130 reversed $50 $-1 #
face $-1 $-1 $131 $28 $-1 $132 forward single #
loop $-1 $133 $134 $52 #
cone-surface $-1 -51.335748786277556 -15.042959776695966 7.6456968586153824 0.75470958851134928 0 -0.65605901945558964 0.16401475486389741 0 0.18867739712783732 1 I I -0.70710678118654746 0.70710678118654746 0.25 forward I I I I #
loop $-1 $-1 $135 $36 #
coedge $-1 $84 $84 $136 $137 reversed $53 $-1 #
face $-1 $-1 $138 $29 $-1 $139 forward single #
loop $-1 $140 $141 $55 #
cone-surface $-1 -51.335748786277556 -11.680713160352603 7.6456968586153824 0.75470958851134928 0 -0.65605901945558964 0.16401475486389741 0 0.18867739712783732 1 I I -0.70710678118654746 0.70710678118654746 0.25 forward I I I I #
loop $-1 $-1 $142 $37 #
coedge $-1 $89 $89 $143 $144 reversed $56 $-1 #
face $-1 $145 $146 $30 $-1 $147 reversed single #
loop $-1 $-1 $148 $58 #
plane-surface $-1 -27.666930547338076 9.4503962532381713 72.217137251598288 0.6560590369687036 0 0.75470957328743171 0.75470957328743171 0 -0.6560590369687036 forward_v I I I I #
coedge $-1 $149 $150 $151 $152 reversed $59 $-1 #
face $-1 $-1 $153 $31 $-1 $154 forward single #
loop $-1 $155 $156 $61 #
cone-surface $-1 43.508706413626207 9.4503962532381713 -0.19220606305888843 -0.6560590369687036 0 -0.75470957328743171 0.75470957328743171 0 -0.6560590369687036 1 I I -0.70710678118654746 0.70710678118654746 1 forward I I I I #
loop $-1 $-1 $157 $39 #
coedge $-1 $98 $98 $158 $159 reversed $62 $-1 #
face $-1 $160 $161 $24 $-1 $162 reversed single #
loop $-1 $-1 $163 $64 #
plane-surface $-1 0 -29.329158446191595 0 0 1 0 0 0 1 forward_v I I I I #
coedge $-1 $164 $165 $166 $167 forward $65 $-1 #
coedge $-1 $168 $67 $169 $170 forward $41 $-1 #
coedge $-1 $67 $168 $171 $172 forward $41 $-1 #
coedge $-1 $173 $174 $67 $106 reversed $175 $-1 #
edge $-1 $176 -29.329158446191595 $177 29.329158446191595 $105 $178 forward 7 unknown #
face $-1 $179 $180 $25 $-1 $181 reversed single #
loop $-1 $-1 $182 $68 #
plane-surface $-1 -54.310739463484602 0 0 1 0 0 0 0 -1 forward_v I I I I #
coedge $-1 $183 $184 $185 $186 reversed $69 $-1 #
coedge $-1 $187 $71 $188 $189 reversed $44 $-1 #
coedge $-1 $71 $187 $183 $190 forward $44 $-1 #
coedge $-1 $185 $191 $71 $114 forward $192 $-1 #
edge $-1 $193 -17.00449282686025 $194 -7.6448384118024464 $113 $195 forward 7 unknown #
face $-1 $196 $197 $26 $-1 $198 reversed single #
loop $-1 $-1 $199 $72 #
plane-surface $-1 0 0 10.664367363240613 0 0 1 1 0 0 forward_v I I I I #
coedge $-1 $200 $201 $202 $203 reversed $73 $-1 #
coedge $-1 $204 $75 $200 $205 forward $47 $-1 #
coedge $-1 $75 $204 $206 $207 reversed $47 $-1 #
coedge $-1 $208 $209 $75 $122 forward $197 $-1 #
edge $-1 $210 7.6448384118024517 $211 17.00449282686025 $121 $212 forward 7 unknown #
face $-1 $213 $214 $27 $-1 $215 reversed single #
loop $-1 $-1 $216 $76 #
plane-surface $-1 -136.28841112795172 -9.4392154161236945 78.385913707730055 0 -1 0 0.75470958851134928 0 -0.65605901945558964 forward_v I I I I #
coedge $-1 $217 $218 $219 $220 reversed $77 $-1 #
coedge $-1 $128 $79 $221 $222 reversed $50 $-1 #
coedge $-1 $79 $127 $217 $223 reversed $50 $-1 #
coedge $-1 $219 $224 $79 $130 forward $225 $-1 #
edge $-1 $226 13.833466100491258 $227 16.911223190818426 $129 $228 forward 7 unknown #
loop $-1 $-1 $136 $80 #
plane-surface $-1 -54.310739463484595 -13.361836468524285 7.1238127510866462 -0.75470958851134928 0 0.65605901945558964 0.65605901945558964 0 0.75470958851134928 forward_v I I I I #
loop $-1 $-1 $229 $52 #
coedge $-1 $134 $134 $135 $230 reversed $81 $-1 #
coedge $-1 $135 $135 $134 $230 forward $83 $-1 #
coedge $-1 $136 $136 $84 $137 forward $131 $-1 #
edge $-1 $231 0 $231 6.2831853071796004 $136 $232 forward 7 unknown #
loop $-1 $-1 $143 $85 #
plane-surface $-1 -54.310739463484595 -13.361836468524285 7.1238127510866462 -0.75470958851134928 0 0.65605901945558964 0.65605901945558964 0 0.75470958851134928 forward_v I I I I #
loop $-1 $-1 $233 $55 #
coedge $-1 $141 $141 $142 $234 reversed $86 $-1 #
coedge $-1 $142 $142 $141 $234 forward $88 $-1 #
coedge $-1 $143 $143 $89 $144 forward $138 $-1 #
edge $-1 $235 0 $235 6.2831853071796004 $143 $236 forward 7 unknown #
face $-1 $237 $238 $30 $-1 $239 forward single #
loop $-1 $-1 $240 $90 #
plane-surface $-1 43.595172311605673 4.124766871153227 154.19480726242097 0 1 0 0.6560590369687036 0 0.75470957328743171 forward_v I I I I #
coedge $-1 $241 $242 $243 $244 reversed $91 $-1 #
coedge $-1 $150 $93 $245 $246 reversed $59 $-1 #
coedge $-1 $93 $149 $241 $247 reversed $59 $-1 #
coedge $-1 $243 $248 $93 $152 forward $238 $-1 #
edge $-1 $249 -32.513153307681762 $250 -21.343843641597307 $151 $251 forward 7 unknown #
loop $-1 $-1 $158 $94 #
plane-surface $-1 -27.666930547338076 9.4503962532381713 72.217137251598288 0.6560590369687036 0 0.75470957328743171 0.75470957328743171 0 -0.6560590369687036 forward_v I I I I #
loop $-1 $-1 $252 $61 #
coedge $-1 $156 $156 $157 $253 reversed $95 $-1 #
coedge $-1 $157 $157 $156 $253 forward $97 $-1 #
coedge $-1 $158 $158 $98 $159 forward $153 $-1 #
edge $-1 $254 0 $254 6.2831853071796004 $158 $255 forward 7 unknown #
face $-1 $256 $257 $24 $-1 $258 reversed single #
loop $-1 $-1 $259 $99 #
plane-surface $-1 -54.310739463484602 0 0 1 0 0 0 0 -1 forward_v I I I I #
coedge $-1 $260 $171 $261 $262 forward $100 $-1 #
coedge $-1 $263 $102 $260 $264 forward $65 $-1 #
coedge $-1 $102 $263 $265 $266 forward $65 $-1 #
coedge $-1 $174 $173 $102 $167 reversed $175 $-1 #
edge $-1 $267 -29.329158446191595 $268 29.329158446191595 $166 $269 forward 7 unknown #
coedge $-1 $104 $103 $270 $271 forward $41 $-1 #
coedge $-1 $272 $273 $103 $170 reversed $257 $-1 #
edge $-1 $177 -54.310739463484602 $274 54.310739463484602 $169 $275 forward 7 unknown #
coedge $-1 $163 $276 $104 $172 reversed $100 $-1 #
edge $-1 $277 -54.310739463484602 $176 54.310739463484602 $171 $278 forward 7 unknown #
coedge $-1 $166 $105 $276 $279 forward $175 $-1 #
coedge $-1 $105 $166 $272 $280 reversed $175 $-1 #
loop $-1 $-1 $173 $256 #
vertex $-1 $106 $281 #
vertex $-1 $106 $282 #
straight-curve $-1 54.310739463484602 0 10.664367363240613 0 1 0 I I #
face $-1 $283 $284 $25 $-1 $285 forward single #
loop $-1 $-1 $188 $107 #
plane-surface $-1 0 -29.329158446191595 0 0 1 0 0 0 1 forward_v I I I I #
coedge $-1 $286 $287 $288 $289 forward $108 $-1 #
coedge $-1 $288 $110 $112 $190 reversed $69 $-1 #
coedge $-1 $110 $288 $290 $291 reversed $69 $-1 #
coedge $-1 $292 $113 $110 $186 forward $192 $-1 #
edge $-1 $194 1.5534396997929525 $293 6.5917650088960924 $185 $294 forward 7 unknown #
coedge $-1 $112 $111 $286 $295 reversed $44 $-1 #
coedge $-1 $296 $297 $111 $189 forward $180 $-1 #
edge $-1 $298 -54.310739463484602 $193 54.310739463484602 $188 $299 forward 7 unknown #
edge $-1 $300 -54.310739463484602 $194 54.310739463484602 $183 $301 forward 7 unknown #
coedge $-1 $113 $292 $296 $302 forward $192 $-1 #
loop $-1 $-1 $185 $283 #
vertex $-1 $189 $303 #
vertex $-1 $114 $304 #
straight-curve $-1 54.310739463484602 -12.324665619331348 5.6260420541374749 0 1 0 I I #
face $-1 $305 $306 $26 $-1 $307 reversed single #
loop $-1 $-1 $209 $115 #
plane-surface $-1 54.310739463484602 0 0 -1 0 0 0 0 1 forward_v I I I I #
coedge $-1 $308 $309 $201 $310 forward $116 $-1 #
coedge $-1 $311 $118 $119 $205 reversed $73 $-1 #
coedge $-1 $118 $311 $199 $310 reversed $73 $-1 #
coedge $-1 $312 $313 $118 $203 forward $306 $-1 #
edge $-1 $314 1.5534396997929525 $315 6.5917650088960924 $202 $316 forward 7 unknown #
coedge $-1 $120 $119 $313 $317 reversed $47 $-1 #
edge $-1 $210 -54.310739463484602 $314 54.310739463484602 $200 $318 forward 7 unknown #
coedge $-1 $319 $320 $120 $207 forward $321 $-1 #
edge $-1 $211 -54.310739463484602 $322 54.310739463484602 $206 $323 forward 7 unknown #
coedge $-1 $324 $121 $320 $325 reversed $197 $-1 #
coedge $-1 $121 $324 $311 $326 forward $197 $-1 #
vertex $-1 $122 $327 #
vertex $-1 $207 $328 #
straight-curve $-1 54.310739463484602 12.32466561933135 5.6260420541374749 0 1 0 I I #
face $-1 $-1 $225 $27 $-1 $329 forward single #
loop $-1 $-1 $330 $123 #
plane-surface $-1 -54.310739463484602 0 0 1 0 0 0 0 -1 forward_v I I I I #
coedge $-1 $331 $332 $333 $334 reversed $124 $-1 #
coedge $-1 $335 $126 $128 $223 forward $77 $-1 #
coedge $-1 $126 $335 $331 $336 forward $77 $-1 #
coedge $-1 $333 $129 $126 $220 forward $225 $-1 #
edge $-1 $227 -10.603539286662732 $337 -2.7582971818615523 $219 $338 forward 7 unknown #
coedge $-1 $339 $340 $127 $222 forward $214 $-1 #
edge $-1 $341 -32.069144102778388 $226 -28.528589490624412 $221 $342 forward 7 unknown #
edge $-1 $227 -4.6912808132432078 $341 1.0694430631949516e-014 $128 $343 forward 7 unknown #
coedge $-1 $129 $333 $339 $344 forward $225 $-1 #
loop $-1 $-1 $333 $213 #
vertex $-1 $222 $345 #
vertex $-1 $130 $346 #
straight-curve $-1 -68.144205563975859 -17.284457520924875 10.664367363240615 1 0 0 I I #
coedge $-1 $229 $229 $-1 $347 reversed $133 $-1 #
edge $-1 $348 0 $348 6.2831853071796004 $134 $349 forward 7 unknown #
vertex $-1 $137 $350 #
ellipse-curve $-1 -52.771860918321018 -15.042959776695966 8.894090057163627 -0.75470958851134928 0 0.65605901945558964 0.32802950972779482 0 0.37735479425567464 1 I I #
coedge $-1 $233 $233 $-1 $351 reversed $140 $-1 #
edge $-1 $352 0 $352 6.2831853071796004 $141 $353 forward 7 unknown #
vertex $-1 $144 $354 #
ellipse-curve $-1 -52.771860918321018 -11.680713160352603 8.894090057163627 -0.75470958851134928 0 0.65605901945558964 0.32802950972779482 0 0.37735479425567464 1 I I #
face $-1 $-1 $355 $30 $-1 $356 reversed single #
loop $-1 $-1 $151 $145 #
plane-surface $-1 0 0 10.664367363240613 0 0 1 1 0 0 forward_v I I I I #
coedge $-1 $357 $358 $359 $360 reversed $146 $-1 #
coedge $-1 $361 $148 $150 $247 forward $91 $-1 #
coedge $-1 $148 $361 $357 $362 forward $91 $-1 #
coedge $-1 $359 $151 $148 $244 forward $238 $-1 #
edge $-1 $250 -10.05082750870403 $363 0.60043125546585863 $243 $364 forward 7 unknown #
coedge $-1 $365 $366 $149 $246 forward $355 $-1 #
edge $-1 $367 -76.142369238555929 $249 -66.433036267969868 $245 $368 forward 7 unknown #
edge $-1 $250 93.821998356672225 $367 108.62147892696919 $150 $369 forward 7 unknown #
coedge $-1 $151 $359 $365 $370 forward $238 $-1 #
vertex $-1 $246 $371 #
vertex $-1 $152 $372 #
straight-curve $-1 21.797586155802836 14.776025635323116 10.664367363240615 -1 0 0 I I #
coedge $-1 $252 $252 $-1 $373 reversed $155 $-1 #
edge $-1 $374 0 $374 6.2831853071796004 $156 $375 forward 7 unknown #
vertex $-1 $159 $376 #
ellipse-curve $-1 48.726084630442386 9.4503962532381713 5.8097008779475701 0.6560590369687036 0 0.75470957328743171 1.5094191465748634 0 -1.3121180739374072 1 I I #
face $-1 $-1 $175 $24 $-1 $377 reversed single #
loop $-1 $-1 $272 $160 #
plane-surface $-1 0 29.329158446191595 0 0 -1 0 0 0 -1 forward_v I I I I #
coedge $-1 $378 $270 $273 $379 forward $161 $-1 #
coedge $-1 $276 $163 $164 $264 reversed $100 $-1 #
coedge $-1 $270 $378 $163 $262 reversed $161 $-1 #
edge $-1 $277 -10.664367363240613 $380 10.664367363240613 $261 $381 forward 7 unknown #
coedge $-1 $165 $164 $378 $382 forward $65 $-1 #
edge $-1 $268 -54.310739463484602 $380 54.310739463484602 $260 $383 forward 7 unknown #
coedge $-1 $273 $272 $165 $266 reversed $257 $-1 #
edge $-1 $384 -54.310739463484602 $267 54.310739463484602 $265 $385 forward 7 unknown #
vertex $-1 $167 $386 #
vertex $-1 $279 $387 #
straight-curve $-1 54.310739463484602 0 -10.664367363240613 0 -1 0 I I #
coedge $-1 $259 $261 $168 $271 reversed $161 $-1 #
edge $-1 $274 -29.329158446191595 $277 29.329158446191595 $270 $388 forward 7 unknown #
coedge $-1 $265 $169 $174 $280 forward $257 $-1 #
coedge $-1 $169 $265 $259 $379 reversed $257 $-1 #
vertex $-1 $170 $389 #
straight-curve $-1 0 29.329158446191595 10.664367363240613 -1 0 0 I I #
coedge $-1 $171 $260 $173 $279 reversed $100 $-1 #
vertex $-1 $271 $390 #
straight-curve $-1 0 -29.329158446191595 10.664367363240613 1 0 0 I I #
edge $-1 $176 -10.664367363240613 $268 10.664367363240613 $173 $391 forward 7 unknown #
edge $-1 $177 -10.664367363240613 $267 10.664367363240613 $174 $392 forward 7 unknown #
point $-1 54.310739463484602 -29.329158446191595 10.664367363240613 #
point $-1 54.310739463484602 29.329158446191595 10.664367363240613 #
face $-1 $-1 $192 $25 $-1 $393 reversed single #
loop $-1 $-1 $290 $179 #
plane-surface $-1 0 0 10.664367363240613 0 0 1 1 0 0 forward_v I I I I #
coedge $-1 $394 $182 $187 $295 forward $108 $-1 #
coedge $-1 $182 $394 $395 $396 reversed $108 $-1 #
coedge $-1 $184 $183 $182 $289 reversed $69 $-1 #
edge $-1 $397 -6.5917650088960924 $300 -1.5534396997929525 $182 $398 forward 7 unknown #
coedge $-1 $395 $399 $184 $291 forward $284 $-1 #
edge $-1 $293 -54.310739463484602 $397 54.310739463484602 $290 $400 forward 7 unknown #
coedge $-1 $191 $185 $399 $401 reversed $192 $-1 #
vertex $-1 $186 $402 #
straight-curve $-1 54.310739463484602 -19.969504031133795 4.0726023543445224 0 0 1 I I #
edge $-1 $300 7.6448384118024464 $298 17.00449282686025 $286 $403 forward 7 unknown #
coedge $-1 $404 $188 $191 $302 reversed $180 $-1 #
coedge $-1 $188 $404 $394 $405 forward $180 $-1 #
vertex $-1 $189 $406 #
straight-curve $-1 0 -29.329158446191595 5.6260420541374749 1 0 0 I I #
vertex $-1 $295 $407 #
straight-curve $-1 0 -19.969504031133795 5.6260420541374749 1 0 0 I I #
edge $-1 $408 -10.664367363240613 $193 -5.6260420541374749 $191 $409 forward 7 unknown #
point $-1 54.310739463484602 -29.329158446191599 5.6260420541374749 #
point $-1 54.310739463484602 -19.969504031133795 5.6260420541374749 #
face $-1 $-1 $321 $26 $-1 $410 reversed single #
loop $-1 $-1 $202 $196 #
plane-surface $-1 -54.310739463484602 0 0 1 0 0 0 0 -1 forward_v I I I I #
coedge $-1 $411 $199 $324 $412 forward $116 $-1 #
coedge $-1 $199 $411 $312 $413 forward $116 $-1 #
edge $-1 $315 -54.310739463484602 $414 54.310739463484602 $199 $415 forward 7 unknown #
coedge $-1 $201 $200 $209 $326 reversed $73 $-1 #
coedge $-1 $416 $202 $309 $413 reversed $306 $-1 #
coedge $-1 $202 $416 $204 $317 forward $306 $-1 #
vertex $-1 $317 $417 #
vertex $-1 $203 $418 #
straight-curve $-1 -54.310739463484602 19.969504031133802 4.0726023543445224 0 0 1 I I #
edge $-1 $322 -17.00449282686025 $314 -7.6448384118024517 $313 $419 forward 7 unknown #
straight-curve $-1 0 19.969504031133802 5.6260420541374749 -1 0 0 I I #
coedge $-1 $420 $206 $416 $421 reversed $321 $-1 #
coedge $-1 $206 $420 $208 $325 forward $321 $-1 #
loop $-1 $-1 $206 $305 #
vertex $-1 $207 $422 #
straight-curve $-1 0 29.329158446191595 5.6260420541374749 -1 0 0 I I #
coedge $-1 $209 $208 $308 $412 reversed $197 $-1 #
edge $-1 $423 -10.664367363240613 $211 -5.6260420541374749 $208 $424 forward 7 unknown #
edge $-1 $414 -6.5917650088960924 $210 -1.5534396997929525 $209 $425 forward 7 unknown #
point $-1 54.310739463484602 19.969504031133802 5.6260420541374749 #
point $-1 54.310739463484602 29.329158446191599 5.6260420541374749 #
plane-surface $-1 0 0 10.664367363240613 0 0 1 1 0 0 forward_v I I I I #
coedge $-1 $340 $339 $332 $426 forward $214 $-1 #
coedge $-1 $332 $216 $218 $336 reversed $124 $-1 #
coedge $-1 $216 $331 $330 $426 reversed $124 $-1 #
coedge $-1 $224 $219 $216 $334 forward $225 $-1 #
edge $-1 $337 -16.911223190818426 $427 -13.833466100491258 $333 $428 forward 7 unknown #
coedge $-1 $218 $217 $340 $429 reversed $77 $-1 #
edge $-1 $430 -1.0694430631949516e-014 $337 4.6912808132432078 $331 $431 forward 7 unknown #
vertex $-1 $220 $432 #
straight-curve $-1 -51.232982373157434 -6.6809182342621423 10.664367363240611 0 1 0 I I #
coedge $-1 $330 $221 $224 $344 reversed $214 $-1 #
coedge $-1 $221 $330 $335 $429 forward $214 $-1 #
vertex $-1 $222 $433 #
straight-curve $-1 -54.310739463484602 -17.284457520924875 39.192956853865027 0 0 1 I I #
straight-curve $-1 -54.310739463484595 -17.284457520924875 7.1238127510866462 -0.65605901945558964 0 -0.75470958851134928 I I #
edge $-1 $427 9.4392154161236945 $226 17.284457520924875 $339 $434 forward 7 unknown #
point $-1 -54.310739463484602 -17.284457520924875 10.664367363240613 #
point $-1 -51.232982373157434 -17.284457520924875 10.664367363240613 #
edge $-1 $435 1 $435 0 $229 $-1 forward 7 unknown #
vertex $-1 $230 $436 #
ellipse-curve $-1 -51.524426183405396 -15.042959776695966 7.8097116134792799 -0.75470958851134928 0 0.65605901945558964 0.32802950972779482 0 0.37735479425567464 1 I I #
point $-1 -52.443831408593226 -15.042959776695966 9.2714448514193002 #
edge $-1 $437 1 $437 0 $233 $-1 forward 7 unknown #
vertex $-1 $234 $438 #
ellipse-curve $-1 -51.524426183405396 -11.680713160352603 7.8097116134792799 -0.75470958851134928 0 0.65605901945558964 0.32802950972779482 0 0.37735479425567464 1 I I #
point $-1 -52.443831408593226 -11.680713160352603 9.2714448514193002 #
loop $-1 $-1 $245 $237 #
plane-surface $-1 54.310739463484602 0 0 -1 0 0 0 0 1 forward_v I I I I #
coedge $-1 $358 $240 $242 $362 reversed $146 $-1 #
coedge $-1 $240 $357 $439 $440 reversed $146 $-1 #
coedge $-1 $248 $243 $240 $360 forward $238 $-1 #
edge $-1 $363 21.343843641597307 $441 32.513153307681762 $359 $442 forward 7 unknown #
coedge $-1 $242 $241 $366 $443 reversed $91 $-1 #
edge $-1 $444 -108.62147892696919 $363 -93.821998356672225 $357 $445 forward 7 unknown #
vertex $-1 $244 $446 #
straight-curve $-1 43.141429797400143 4.7251981266190857 10.664367363240615 0 -1 0 I I #
coedge $-1 $439 $245 $248 $370 reversed $355 $-1 #
coedge $-1 $245 $439 $361 $443 forward $355 $-1 #
vertex $-1 $246 $447 #
straight-curve $-1 54.310739463484602 14.776025635323116 77.097403631210483 0 0 1 I I #
straight-curve $-1 -27.666930547338076 14.776025635323116 72.217137251598288 0.75470957328743171 0 -0.6560590369687036 I I #
edge $-1 $441 4.124766871153227 $249 14.776025635323116 $365 $448 forward 7 unknown #
point $-1 54.310739463484602 14.776025635323116 10.664367363240613 #
point $-1 43.141429797400143 14.776025635323116 10.664367363240615 #
edge $-1 $449 1 $449 0 $252 $-1 forward 7 unknown #
vertex $-1 $253 $450 #
ellipse-curve $-1 44.164765450594913 9.4503962532381713 0.56250351022854328 0.6560590369687036 0 0.75470957328743171 1.5094191465748634 0 -1.3121180739374072 1 I I #
point $-1 50.23550377701725 9.4503962532381713 4.4975828040101673 #
plane-surface $-1 54.310739463484602 0 0 -1 0 0 0 0 1 forward_v I I I I #
coedge $-1 $261 $259 $263 $382 reversed $161 $-1 #
edge $-1 $274 -10.664367363240613 $384 10.664367363240613 $273 $451 forward 7 unknown #
vertex $-1 $382 $452 #
straight-curve $-1 -54.310739463484602 -29.329158446191595 0 0 0 -1 I I #
edge $-1 $380 -29.329158446191595 $384 29.329158446191595 $378 $453 forward 7 unknown #
straight-curve $-1 0 -29.329158446191595 -10.664367363240613 -1 0 0 I I #
vertex $-1 $266 $454 #
straight-curve $-1 0 29.329158446191595 -10.664367363240613 1 0 0 I I #
point $-1 54.310739463484602 29.329158446191595 -10.664367363240613 #
point $-1 54.310739463484602 -29.329158446191595 -10.664367363240613 #
straight-curve $-1 -54.310739463484602 0 10.664367363240613 0 -1 0 I I #
point $-1 -54.310739463484602 29.329158446191595 10.664367363240613 #
point $-1 -54.310739463484602 -29.329158446191595 10.664367363240613 #
straight-curve $-1 54.310739463484602 -29.329158446191595 0 0 0 -1 I I #
straight-curve $-1 54.310739463484602 29.329158446191595 0 0 0 -1 I I #
plane-surface $-1 54.310739463484602 0 0 -1 0 0 0 0 1 forward_v I I I I #
coedge $-1 $287 $286 $297 $405 reversed $108 $-1 #
coedge $-1 $455 $290 $287 $396 forward $284 $-1 #
edge $-1 $397 19.969504031133795 $456 29.329158446191595 $287 $457 forward 7 unknown #
vertex $-1 $396 $458 #
straight-curve $-1 -54.310739463484602 -19.969504031133795 4.0726023543445224 0 0 -1 I I #
coedge $-1 $290 $455 $292 $401 forward $284 $-1 #
straight-curve $-1 0 -19.969504031133795 10.664367363240613 -1 0 0 I I #
edge $-1 $408 -29.329158446191595 $293 -19.969504031133795 $292 $459 forward 7 unknown #
point $-1 54.310739463484602 -19.969504031133795 10.664367363240615 #
straight-curve $-1 -54.310739463484602 -12.324665619331348 5.6260420541374749 0 -1 0 I I #
coedge $-1 $297 $296 $455 $460 reversed $180 $-1 #
edge $-1 $456 -10.664367363240613 $298 -5.6260420541374749 $394 $461 forward 7 unknown #
point $-1 -54.310739463484602 -29.329158446191599 5.6260420541374749 #
point $-1 -54.310739463484602 -19.969504031133795 5.6260420541374749 #
vertex $-1 $401 $462 #
straight-curve $-1 54.310739463484602 -29.329158446191595 0 0 0 -1 I I #
plane-surface $-1 0 29.329158446191595 0 0 -1 0 0 0 -1 forward_v I I I I #
coedge $-1 $309 $308 $420 $463 forward $116 $-1 #
edge $-1 $414 19.969504031133802 $423 29.329158446191595 $324 $464 forward 7 unknown #
edge $-1 $465 -29.329158446191595 $315 -19.969504031133802 $312 $466 forward 7 unknown #
vertex $-1 $412 $467 #
straight-curve $-1 0 19.969504031133802 10.664367363240613 1 0 0 I I #
coedge $-1 $313 $312 $319 $421 forward $306 $-1 #
point $-1 -54.310739463484602 19.969504031133802 5.6260420541374749 #
point $-1 -54.310739463484602 19.969504031133802 10.664367363240615 #
straight-curve $-1 -54.310739463484602 12.32466561933135 5.6260420541374749 0 -1 0 I I #
coedge $-1 $320 $319 $411 $463 reversed $321 $-1 #
edge $-1 $465 -10.664367363240613 $322 -5.6260420541374749 $319 $468 forward 7 unknown #
point $-1 -54.310739463484602 29.329158446191599 5.6260420541374749 #
vertex $-1 $412 $469 #
straight-curve $-1 54.310739463484602 29.329158446191595 0 0 0 -1 I I #
straight-curve $-1 54.310739463484602 19.969504031133802 4.0726023543445224 0 0 -1 I I #
edge $-1 $427 28.528589490624412 $430 32.069144102778388 $330 $470 forward 7 unknown #
vertex $-1 $344 $471 #
straight-curve $-1 -68.144205563975859 -9.4392154161236945 10.664367363240615 -1 0 0 I I #
edge $-1 $430 2.7582971818615523 $341 10.603539286662732 $340 $472 forward 7 unknown #
vertex $-1 $429 $473 #
straight-curve $-1 -54.310739463484595 -9.4392154161236945 7.1238127510866462 0.65605901945558964 0 0.75470958851134928 I I #
point $-1 -51.232982373157434 -9.4392154161236945 10.664367363240613 #
point $-1 -54.310739463484602 -17.284457520924875 7.1238127510866383 #
straight-curve $-1 -54.310739463484602 0 10.664367363240613 0 -1 0 I I #
vertex $-1 $347 $474 #
point $-1 -51.196396673677597 -15.042959776695966 8.1870664077349549 #
vertex $-1 $351 $475 #
point $-1 -51.196396673677597 -11.680713160352603 8.1870664077349549 #
coedge $-1 $366 $365 $358 $440 forward $355 $-1 #
edge $-1 $441 66.433036267969868 $444 76.142369238555929 $439 $476 forward 7 unknown #
vertex $-1 $370 $477 #
straight-curve $-1 21.797586155802836 4.124766871153227 10.664367363240615 1 0 0 I I #
edge $-1 $444 -0.60043125546585863 $367 10.05082750870403 $366 $478 forward 7 unknown #
vertex $-1 $443 $479 #
straight-curve $-1 -27.666930547338076 4.124766871153227 72.217137251598288 -0.75470957328743171 0 0.6560590369687036 I I #
point $-1 43.141429797400143 4.124766871153227 10.664367363240615 #
point $-1 54.310739463484602 14.776025635323116 0.9550343926545537 #
straight-curve $-1 54.310739463484602 0 10.664367363240613 0 1 0 I I #
vertex $-1 $373 $480 #
point $-1 45.674184597169777 9.4503962532381713 -0.74961456370886392 #
straight-curve $-1 -54.310739463484602 29.329158446191595 0 0 0 -1 I I #
point $-1 -54.310739463484602 -29.329158446191595 -10.664367363240613 #
straight-curve $-1 -54.310739463484602 0 -10.664367363240613 0 1 0 I I #
point $-1 -54.310739463484602 29.329158446191595 -10.664367363240613 #
coedge $-1 $399 $395 $404 $460 forward $284 $-1 #
vertex $-1 $396 $481 #
straight-curve $-1 -54.310739463484602 0 10.664367363240613 0 -1 0 I I #
point $-1 -54.310739463484602 -19.969504031133795 10.664367363240615 #
straight-curve $-1 54.310739463484602 0 10.664367363240613 0 1 0 I I #
edge $-1 $456 -54.310739463484602 $408 54.310739463484602 $404 $482 forward 7 unknown #
straight-curve $-1 -54.310739463484602 -29.329158446191595 0 0 0 -1 I I #
point $-1 54.310739463484602 -29.329158446191595 10.664367363240613 #
edge $-1 $423 -54.310739463484602 $465 54.310739463484602 $420 $483 forward 7 unknown #
straight-curve $-1 54.310739463484602 0 10.664367363240613 0 1 0 I I #
vertex $-1 $463 $484 #
straight-curve $-1 -54.310739463484602 0 10.664367363240613 0 -1 0 I I #
point $-1 54.310739463484602 19.969504031133802 10.664367363240615 #
straight-curve $-1 -54.310739463484602 29.329158446191595 0 0 0 -1 I I #
point $-1 54.310739463484602 29.329158446191595 10.664367363240613 #
straight-curve $-1 -54.310739463484602 -9.4392154161236945 39.192956853865027 0 0 -1 I I #
point $-1 -54.310739463484602 -9.4392154161236945 10.664367363240613 #
straight-curve $-1 -54.310739463484602 -6.6809182342621423 7.1238127510866303 0 -1 0 I I #
point $-1 -54.310739463484602 -9.4392154161236945 7.1238127510866383 #
point $-1 -51.147071389149716 -15.042959776695966 7.4816821037514849 #
point $-1 -51.147071389149716 -11.680713160352603 7.4816821037514849 #
straight-curve $-1 54.310739463484602 4.124766871153227 77.097403631210483 0 0 -1 I I #
point $-1 54.310739463484602 4.124766871153227 10.664367363240613 #
straight-curve $-1 54.310739463484609 4.7251981266190857 0.95503439265453949 0 1 0 I I #
point $-1 54.310739463484602 4.124766871153227 0.9550343926545537 #
point $-1 42.852647376657501 9.4503962532381713 -0.94691563634632014 #
point $-1 -54.310739463484602 -29.329158446191595 10.664367363240613 #
straight-curve $-1 0 -29.329158446191595 10.664367363240613 1 0 0 I I #
straight-curve $-1 0 29.329158446191595 10.664367363240613 -1 0 0 I I #
point $-1 -54.310739463484602 29.329158446191595 10.664367363240613 #
End-of-ACIS-data 