500 0 8 0           
7 Unknown 11 ACIS 5.0 NT 24 Fri Mar 26 02:52:23 1999 
-1 9.9999999999999995e-007 1e-010 
body $-1 $8 $-1 $9 #
body $-1 $10 $-1 $11 #
body $-1 $12 $-1 $13 #
body $-1 $14 $-1 $15 #
body $-1 $16 $-1 $17 #
body $-1 $18 $-1 $19 #
body $-1 $20 $-1 $21 #
body $-1 $22 $-1 $23 #
lump $-1 $-1 $24 $0 #
transform $-1 1 0 0 0 1 0 0 0 1 45.302896206549271 19.61060854162162 6.9855349253153332 1 rotate no_reflect no_shear #
lump $-1 $-1 $25 $1 #
transform $-1 1 0 0 0 1 0 0 0 1 45.302896206549271 19.61060854162162 6.9855349253153332 1 rotate no_reflect no_shear #
lump $-1 $-1 $26 $2 #
transform $-1 1 0 0 0 1 0 0 0 1 45.302896206549271 19.61060854162162 6.9855349253153332 1 rotate no_reflect no_shear #
lump $-1 $-1 $27 $3 #
transform $-1 1 0 0 0 1 0 0 0 1 45.302896206549271 19.61060854162162 6.9855349253153332 1 rotate no_reflect no_shear #
lump $-1 $-1 $28 $4 #
transform $-1 1 0 0 0 1 0 0 0 1 45.302896206549271 19.61060854162162 6.9855349253153332 1 rotate no_reflect no_shear #
lump $-1 $-1 $29 $5 #
transform $-1 1 0 0 0 1 0 0 0 1 45.302896206549271 19.61060854162162 6.9855349253153332 1 rotate no_reflect no_shear #
lump $-1 $-1 $30 $6 #
transform $-1 1 0 0 0 1 0 0 0 1 45.302896206549271 19.61060854162162 6.9855349253153332 1 rotate no_reflect no_shear #
lump $-1 $-1 $31 $7 #
transform $-1 1 0 0 0 1 0 0 0 1 45.302896206549271 19.61060854162162 6.9855349253153332 1 rotate no_reflect no_shear #
shell $-1 $-1 $-1 $32 $-1 $8 #
shell $-1 $-1 $-1 $33 $-1 $10 #
shell $-1 $-1 $-1 $34 $-1 $12 #
shell $-1 $-1 $-1 $35 $-1 $14 #
shell $-1 $-1 $-1 $36 $-1 $16 #
shell $-1 $-1 $-1 $37 $-1 $18 #
shell $-1 $-1 $-1 $38 $-1 $20 #
shell $-1 $-1 $-1 $39 $-1 $22 #
face $-1 $40 $41 $24 $-1 $42 forward single #
face $-1 $43 $44 $25 $-1 $45 forward single #
face $-1 $46 $47 $26 $-1 $48 reversed single #
face $-1 $49 $50 $27 $-1 $51 forward single #
face $-1 $52 $53 $28 $-1 $54 forward single #
face $-1 $55 $56 $29 $-1 $57 reversed single #
face $-1 $58 $59 $30 $-1 $60 forward single #
face $-1 $61 $62 $31 $-1 $63 forward single #
face $-1 $64 $65 $24 $-1 $66 reversed single #
loop $-1 $-1 $67 $32 #
plane-surface $-1 0 0 6.9855349253153332 0 0 1 1 0 0 forward_v I I I I #
face $-1 $68 $69 $25 $-1 $70 forward single #
loop $-1 $-1 $71 $33 #
plane-surface $-1 0 -19.61060854162162 0 0 1 0 0 0 1 forward_v I I I I #
face $-1 $72 $73 $26 $-1 $74 reversed single #
loop $-1 $-1 $75 $34 #
plane-surface $-1 18.661937237377508 12.158990454939843 125.87737122569072 0 -1 0 -0.54463904215088732 0 -0.83867056331134215 forward_v I I I I #
face $-1 $76 $77 $27 $-1 $78 forward single #
loop $-1 $79 $80 $35 #
cone-surface $-1 39.524439056499197 5.4391249362979401 2.505464562806937 -0.54463904215088732 0 -0.83867056331134215 0.83867056331134215 0 -0.54463904215088732 1 I I 0 1 1 forward I I I I #
face $-1 $81 $82 $28 $-1 $83 forward single #
loop $-1 $84 $85 $36 #
cone-surface $-1 39.524439056499197 9.471044247483082 2.505464562806937 -0.54463904215088732 0 -0.83867056331134215 0.83867056331134215 0 -0.54463904215088732 1 I I 0 1 1 forward I I I I #
face $-1 $86 $87 $29 $-1 $88 reversed single #
loop $-1 $-1 $89 $37 #
plane-surface $-1 -97.272244401392896 -2.4619267827615978 78.055724823337755 0 1 0 -0.57357644374324357 0 0.81915203911291934 forward_v I I I I #
face $-1 $90 $91 $30 $-1 $92 forward single #
loop $-1 $93 $94 $38 #
cone-surface $-1 -42.766967922456686 -0.73936900889581025 5.001094049454311 0.57357644374324357 0 -0.81915203911291934 0.20478800977822983 0 0.14339411093581089 1 I I 0 1 0.25 forward I I I I #
face $-1 $95 $96 $31 $-1 $97 forward single #
loop $-1 $98 $99 $39 #
cone-surface $-1 -42.766967922456686 1.8444676519028711 5.001094049454311 0.57357644374324357 0 -0.81915203911291934 0.20478800977822983 0 0.14339411093581089 1 I I 0 1 0.25 forward I I I I #
face $-1 $100 $101 $24 $-1 $102 reversed single #
loop $-1 $-1 $103 $40 #
plane-surface $-1 0 0 -6.9855349253153332 0 0 1 1 0 0 forward_v I I I I #
coedge $-1 $104 $105 $106 $107 forward $41 $-1 #
face $-1 $108 $109 $25 $-1 $110 reversed single #
loop $-1 $-1 $111 $43 #
plane-surface $-1 0 0 6.9855349253153332 0 0 1 1 0 0 forward_v I I I I #
coedge $-1 $112 $113 $114 $115 forward $44 $-1 #
face $-1 $116 $117 $26 $-1 $118 reversed single #
loop $-1 $-1 $119 $46 #
plane-surface $-1 -30.685514755814616 7.4550845918905111 49.888960263326837 0.54463904215088732 0 0.83867056331134215 0.83867056331134215 0 -0.54463904215088732 forward_v I I I I #
coedge $-1 $120 $121 $122 $123 reversed $47 $-1 #
face $-1 $-1 $124 $27 $-1 $125 forward single #
loop $-1 $126 $127 $49 #
cone-surface $-1 38.435127729053882 5.4391249362979401 0.82807224623318554 -0.54463904215088732 0 -0.83867056331134215 0.41933528165567108 0 -0.27231952107544366 1 I I -0.70710678118654746 0.70710678118654746 0.5 forward I I I I #
loop $-1 $-1 $128 $35 #
coedge $-1 $80 $80 $129 $130 reversed $50 $-1 #
face $-1 $-1 $131 $28 $-1 $132 forward single #
loop $-1 $133 $134 $52 #
cone-surface $-1 38.435127729053882 9.471044247483082 0.82807224623318554 -0.54463904215088732 0 -0.83867056331134215 0.41933528165567108 0 -0.27231952107544366 1 I I -0.70710678118654746 0.70710678118654746 0.5 forward I I I I #
loop $-1 $-1 $135 $36 #
coedge $-1 $85 $85 $136 $137 reversed $53 $-1 #
face $-1 $138 $139 $29 $-1 $140 reversed single #
loop $-1 $-1 $141 $55 #
plane-surface $-1 -45.302896206549278 0.55254932150353042 3.8358052127062052 -0.57357644374324357 0 0.81915203911291934 0.81915203911291934 0 0.57357644374324357 forward_v I I I I #
coedge $-1 $142 $143 $144 $145 reversed $56 $-1 #
face $-1 $-1 $146 $30 $-1 $147 forward single #
loop $-1 $148 $149 $58 #
cone-surface $-1 -42.408482645117161 -0.73936900889581025 4.4891240250087368 0.57357644374324357 0 -0.81915203911291934 0.10239400488911492 0 0.071697055467905446 1 I I -0.70710678118654746 0.70710678118654746 0.125 forward I I I I #
loop $-1 $-1 $150 $38 #
coedge $-1 $94 $94 $151 $152 reversed $59 $-1 #
face $-1 $-1 $153 $31 $-1 $154 forward single #
loop $-1 $155 $156 $61 #
cone-surface $-1 -42.408482645117161 1.8444676519028711 4.4891240250087368 0.57357644374324357 0 -0.81915203911291934 0.10239400488911492 0 0.071697055467905446 1 I I -0.70710678118654746 0.70710678118654746 0.125 forward I I I I #
loop $-1 $-1 $157 $39 #
coedge $-1 $99 $99 $158 $159 reversed $62 $-1 #
face $-1 $160 $161 $24 $-1 $162 reversed single #
loop $-1 $-1 $163 $64 #
plane-surface $-1 0 -19.61060854162162 0 0 1 0 0 0 1 forward_v I I I I #
coedge $-1 $164 $165 $166 $167 forward $65 $-1 #
coedge $-1 $168 $67 $169 $170 forward $41 $-1 #
coedge $-1 $67 $168 $171 $172 forward $41 $-1 #
coedge $-1 $173 $174 $67 $107 reversed $175 $-1 #
edge $-1 $176 -19.61060854162162 $177 19.61060854162162 $106 $178 forward 7 unknown #
face $-1 $179 $180 $25 $-1 $181 reversed single #
loop $-1 $-1 $182 $68 #
plane-surface $-1 -45.302896206549271 0 0 1 0 0 0 0 -1 forward_v I I I I #
coedge $-1 $183 $184 $185 $186 forward $69 $-1 #
coedge $-1 $185 $71 $182 $187 reversed $44 $-1 #
coedge $-1 $71 $185 $188 $189 reversed $44 $-1 #
coedge $-1 $190 $191 $71 $115 reversed $180 $-1 #
edge $-1 $192 -45.302896206549271 $193 45.302896206549271 $114 $194 forward 7 unknown #
face $-1 $195 $196 $26 $-1 $197 reversed single #
loop $-1 $-1 $198 $72 #
plane-surface $-1 18.661937237377508 2.7511787288411789 125.87737122569072 0 1 0 0.54463904215088732 0 0.83867056331134215 forward_v I I I I #
coedge $-1 $199 $200 $201 $202 reversed $73 $-1 #
coedge $-1 $121 $75 $203 $204 reversed $47 $-1 #
coedge $-1 $75 $120 $199 $205 reversed $47 $-1 #
coedge $-1 $201 $206 $75 $123 forward $207 $-1 #
edge $-1 $208 -35.97192758786052 $209 -26.048996900500068 $122 $210 forward 7 unknown #
loop $-1 $-1 $129 $76 #
plane-surface $-1 -30.685514755814616 7.4550845918905111 49.888960263326837 0.54463904215088732 0 0.83867056331134215 0.83867056331134215 0 -0.54463904215088732 forward_v I I I I #
loop $-1 $-1 $211 $49 #
coedge $-1 $127 $127 $128 $212 reversed $77 $-1 #
coedge $-1 $128 $128 $127 $212 forward $79 $-1 #
coedge $-1 $129 $129 $80 $130 forward $124 $-1 #
edge $-1 $213 0 $213 6.2831853071796004 $129 $214 forward 7 unknown #
loop $-1 $-1 $136 $81 #
plane-surface $-1 -30.685514755814616 7.4550845918905111 49.888960263326837 0.54463904215088732 0 0.83867056331134215 0.83867056331134215 0 -0.54463904215088732 forward_v I I I I #
loop $-1 $-1 $215 $52 #
coedge $-1 $134 $134 $135 $216 reversed $82 $-1 #
coedge $-1 $135 $135 $134 $216 forward $84 $-1 #
coedge $-1 $136 $136 $85 $137 forward $131 $-1 #
edge $-1 $217 0 $217 6.2831853071796004 $136 $218 forward 7 unknown #
face $-1 $219 $220 $29 $-1 $221 forward single #
loop $-1 $-1 $222 $86 #
plane-surface $-1 -97.272244401392896 3.5670254257686587 78.055724823337755 0 -1 0 0.57357644374324357 0 -0.81915203911291934 forward_v I I I I #
coedge $-1 $223 $224 $225 $226 reversed $87 $-1 #
coedge $-1 $143 $89 $227 $228 reversed $56 $-1 #
coedge $-1 $89 $142 $223 $229 reversed $56 $-1 #
coedge $-1 $225 $230 $89 $145 forward $220 $-1 #
edge $-1 $231 3.3332259941471776 $232 7.8315061185890968 $144 $233 forward 7 unknown #
loop $-1 $-1 $151 $90 #
plane-surface $-1 -45.302896206549278 0.55254932150353042 3.8358052127062052 -0.57357644374324357 0 0.81915203911291934 0.81915203911291934 0 0.57357644374324357 forward_v I I I I #
loop $-1 $-1 $234 $58 #
coedge $-1 $149 $149 $150 $235 reversed $91 $-1 #
coedge $-1 $150 $150 $149 $235 forward $93 $-1 #
coedge $-1 $151 $151 $94 $152 forward $146 $-1 #
edge $-1 $236 0 $236 6.2831853071796004 $151 $237 forward 7 unknown #
loop $-1 $-1 $158 $95 #
plane-surface $-1 -45.302896206549278 0.55254932150353042 3.8358052127062052 -0.57357644374324357 0 0.81915203911291934 0.81915203911291934 0 0.57357644374324357 forward_v I I I I #
loop $-1 $-1 $238 $61 #
coedge $-1 $156 $156 $157 $239 reversed $96 $-1 #
coedge $-1 $157 $157 $156 $239 forward $98 $-1 #
coedge $-1 $158 $158 $99 $159 forward $153 $-1 #
edge $-1 $240 0 $240 6.2831853071796004 $158 $241 forward 7 unknown #
face $-1 $242 $243 $24 $-1 $244 reversed single #
loop $-1 $-1 $245 $100 #
plane-surface $-1 -45.302896206549271 0 0 1 0 0 0 0 -1 forward_v I I I I #
coedge $-1 $246 $171 $247 $248 forward $101 $-1 #
coedge $-1 $249 $103 $246 $250 forward $65 $-1 #
coedge $-1 $103 $249 $251 $252 forward $65 $-1 #
coedge $-1 $174 $173 $103 $167 reversed $175 $-1 #
edge $-1 $253 -19.61060854162162 $254 19.61060854162162 $166 $255 forward 7 unknown #
coedge $-1 $105 $104 $256 $257 forward $41 $-1 #
coedge $-1 $258 $259 $104 $170 reversed $243 $-1 #
edge $-1 $177 -45.302896206549271 $260 45.302896206549271 $169 $261 forward 7 unknown #
coedge $-1 $163 $262 $105 $172 reversed $101 $-1 #
edge $-1 $263 -45.302896206549271 $176 45.302896206549271 $171 $264 forward 7 unknown #
coedge $-1 $166 $106 $262 $265 forward $175 $-1 #
coedge $-1 $106 $166 $258 $266 reversed $175 $-1 #
loop $-1 $-1 $173 $242 #
vertex $-1 $107 $267 #
vertex $-1 $107 $268 #
straight-curve $-1 45.302896206549271 0 6.9855349253153332 0 1 0 I I #
face $-1 $269 $270 $25 $-1 $271 reversed single #
loop $-1 $-1 $190 $108 #
plane-surface $-1 0 -22.996302274116633 3.9855349253153332 0 0 1 1 0 0 forward_v I I I I #
coedge $-1 $272 $273 $112 $187 forward $109 $-1 #
coedge $-1 $274 $111 $273 $275 forward $69 $-1 #
coedge $-1 $111 $274 $276 $277 forward $69 $-1 #
coedge $-1 $113 $112 $111 $186 reversed $44 $-1 #
edge $-1 $278 -45.302896206549271 $279 45.302896206549271 $111 $280 forward 7 unknown #
edge $-1 $279 -6.9855349253153332 $193 -3.9855349253153332 $182 $281 forward 7 unknown #
coedge $-1 $276 $282 $113 $189 forward $283 $-1 #
edge $-1 $192 3.9855349253153332 $278 6.9855349253153332 $188 $284 forward 7 unknown #
coedge $-1 $285 $114 $282 $286 forward $180 $-1 #
coedge $-1 $114 $285 $272 $287 forward $180 $-1 #
vertex $-1 $189 $288 #
vertex $-1 $187 $289 #
straight-curve $-1 0 -19.61060854162162 3.9855349253153332 -1 0 0 I I #
face $-1 $-1 $207 $26 $-1 $290 forward single #
loop $-1 $-1 $291 $116 #
plane-surface $-1 45.302896206549271 0 0 -1 0 0 0 0 1 forward_v I I I I #
coedge $-1 $292 $293 $294 $295 reversed $117 $-1 #
coedge $-1 $296 $119 $121 $205 forward $73 $-1 #
coedge $-1 $119 $296 $292 $297 forward $73 $-1 #
coedge $-1 $294 $122 $119 $202 forward $207 $-1 #
edge $-1 $209 -8.4314481589945878 $298 0.97636356710407668 $201 $299 forward 7 unknown #
coedge $-1 $300 $301 $120 $204 forward $196 $-1 #
edge $-1 $302 -62.397177342710648 $208 -55.953150687530027 $203 $303 forward 7 unknown #
edge $-1 $209 78.774054038758194 $302 90.605792413098541 $121 $304 forward 7 unknown #
coedge $-1 $122 $294 $300 $305 forward $207 $-1 #
loop $-1 $-1 $294 $195 #
vertex $-1 $204 $306 #
vertex $-1 $123 $307 #
straight-curve $-1 9.3309686186887539 12.158990454939843 6.9855349253153349 -1 0 0 I I #
coedge $-1 $211 $211 $-1 $308 reversed $126 $-1 #
edge $-1 $309 0 $309 6.2831853071796004 $127 $310 forward 7 unknown #
vertex $-1 $130 $311 #
ellipse-curve $-1 40.341430862869068 5.4391249362979401 3.7635215977250178 0.54463904215088732 0 0.83867056331134215 0.83867056331134215 0 -0.54463904215088732 1 I I #
coedge $-1 $215 $215 $-1 $312 reversed $133 $-1 #
edge $-1 $313 0 $313 6.2831853071796004 $134 $314 forward 7 unknown #
vertex $-1 $137 $315 #
ellipse-curve $-1 40.341430862869068 9.471044247483082 3.7635215977250178 0.54463904215088732 0 0.83867056331134215 0.83867056331134215 0 -0.54463904215088732 1 I I #
face $-1 $-1 $316 $29 $-1 $317 reversed single #
loop $-1 $-1 $144 $138 #
plane-surface $-1 0 0 6.9855349253153332 0 0 1 1 0 0 forward_v I I I I #
coedge $-1 $318 $319 $320 $321 reversed $139 $-1 #
coedge $-1 $322 $141 $143 $229 forward $87 $-1 #
coedge $-1 $141 $322 $318 $323 forward $87 $-1 #
coedge $-1 $320 $144 $141 $226 forward $220 $-1 #
edge $-1 $232 -2.738201443513363 $324 3.2907507650168935 $225 $325 forward 7 unknown #
coedge $-1 $326 $327 $142 $228 forward $316 $-1 #
edge $-1 $328 -35.192057198962665 $231 -32.042327486353543 $227 $329 forward 7 unknown #
edge $-1 $232 -5.4913861037484928 $328 -8.6223355153435888e-015 $143 $330 forward 7 unknown #
coedge $-1 $144 $320 $326 $331 forward $220 $-1 #
vertex $-1 $228 $332 #
vertex $-1 $145 $333 #
straight-curve $-1 -48.636122200696448 -2.4619267827615978 6.9855349253153349 1 0 0 I I #
coedge $-1 $234 $234 $-1 $334 reversed $148 $-1 #
edge $-1 $335 0 $335 6.2831853071796004 $149 $336 forward 7 unknown #
vertex $-1 $152 $337 #
ellipse-curve $-1 -43.053756144328311 -0.73936900889581025 5.4106700690107719 -0.57357644374324357 0 0.81915203911291934 0.20478800977822983 0 0.14339411093581089 1 I I #
coedge $-1 $238 $238 $-1 $338 reversed $155 $-1 #
edge $-1 $339 0 $339 6.2831853071796004 $156 $340 forward 7 unknown #
vertex $-1 $159 $341 #
ellipse-curve $-1 -43.053756144328311 1.8444676519028711 5.4106700690107719 -0.57357644374324357 0 0.81915203911291934 0.20478800977822983 0 0.14339411093581089 1 I I #
face $-1 $-1 $175 $24 $-1 $342 reversed single #
loop $-1 $-1 $258 $160 #
plane-surface $-1 0 19.61060854162162 0 0 -1 0 0 0 -1 forward_v I I I I #
coedge $-1 $343 $256 $259 $344 forward $161 $-1 #
coedge $-1 $262 $163 $164 $250 reversed $101 $-1 #
coedge $-1 $256 $343 $163 $248 reversed $161 $-1 #
edge $-1 $263 -6.9855349253153332 $345 6.9855349253153332 $247 $346 forward 7 unknown #
coedge $-1 $165 $164 $343 $347 forward $65 $-1 #
edge $-1 $254 -45.302896206549271 $345 45.302896206549271 $246 $348 forward 7 unknown #
coedge $-1 $259 $258 $165 $252 reversed $243 $-1 #
edge $-1 $349 -45.302896206549271 $253 45.302896206549271 $251 $350 forward 7 unknown #
vertex $-1 $167 $351 #
vertex $-1 $265 $352 #
straight-curve $-1 45.302896206549271 0 -6.9855349253153332 0 -1 0 I I #
coedge $-1 $245 $247 $168 $257 reversed $161 $-1 #
edge $-1 $260 -19.61060854162162 $263 19.61060854162162 $256 $353 forward 7 unknown #
coedge $-1 $251 $169 $174 $266 forward $243 $-1 #
coedge $-1 $169 $251 $245 $344 reversed $243 $-1 #
vertex $-1 $170 $354 #
straight-curve $-1 0 19.61060854162162 6.9855349253153332 -1 0 0 I I #
coedge $-1 $171 $246 $173 $265 reversed $101 $-1 #
vertex $-1 $257 $355 #
straight-curve $-1 0 -19.61060854162162 6.9855349253153332 1 0 0 I I #
edge $-1 $176 -6.9855349253153332 $254 6.9855349253153332 $173 $356 forward 7 unknown #
edge $-1 $177 -6.9855349253153332 $253 6.9855349253153332 $174 $357 forward 7 unknown #
point $-1 45.302896206549271 -19.61060854162162 6.9855349253153332 #
point $-1 45.302896206549271 19.61060854162162 6.9855349253153332 #
face $-1 $-1 $283 $25 $-1 $358 reversed single #
loop $-1 $-1 $359 $179 #
plane-surface $-1 0 -26.381996006611647 5.4855349253153332 0 1 0 0 0 1 forward_v I I I I #
coedge $-1 $360 $182 $191 $287 reversed $109 $-1 #
coedge $-1 $182 $360 $183 $275 reversed $109 $-1 #
coedge $-1 $184 $183 $361 $362 forward $69 $-1 #
edge $-1 $279 19.61060854162162 $363 26.381996006611647 $273 $364 forward 7 unknown #
coedge $-1 $365 $188 $184 $277 reversed $283 $-1 #
edge $-1 $366 -26.381996006611647 $278 -19.61060854162162 $276 $367 forward 7 unknown #
vertex $-1 $189 $368 #
vertex $-1 $275 $369 #
straight-curve $-1 0 -19.61060854162162 6.9855349253153332 -1 0 0 I I #
straight-curve $-1 -45.302896206549271 -19.61060854162162 0 0 0 -1 I I #
coedge $-1 $188 $365 $190 $286 reversed $283 $-1 #
loop $-1 $-1 $188 $269 #
straight-curve $-1 45.302896206549271 -19.61060854162162 0 0 0 1 I I #
coedge $-1 $191 $190 $370 $371 forward $180 $-1 #
edge $-1 $192 -3.3856937324950138 $372 3.3856937324950138 $282 $373 forward 7 unknown #
edge $-1 $374 -3.3856937324950138 $193 3.3856937324950138 $272 $375 forward 7 unknown #
point $-1 45.302896206549271 -19.61060854162162 3.9855349253153332 #
point $-1 -45.302896206549271 -19.61060854162162 3.9855349253153332 #
plane-surface $-1 0 0 6.9855349253153332 0 0 1 1 0 0 forward_v I I I I #
coedge $-1 $301 $300 $293 $376 forward $196 $-1 #
coedge $-1 $293 $198 $200 $297 reversed $117 $-1 #
coedge $-1 $198 $292 $291 $376 reversed $117 $-1 #
coedge $-1 $206 $201 $198 $295 forward $207 $-1 #
edge $-1 $298 26.048996900500068 $377 35.97192758786052 $294 $378 forward 7 unknown #
coedge $-1 $200 $199 $301 $379 reversed $73 $-1 #
edge $-1 $380 -90.605792413098541 $298 -78.774054038758194 $292 $381 forward 7 unknown #
vertex $-1 $202 $382 #
straight-curve $-1 35.379965519188829 3.7275422959452555 6.9855349253153314 0 -1 0 I I #
coedge $-1 $291 $203 $206 $305 reversed $196 $-1 #
coedge $-1 $203 $291 $296 $379 forward $196 $-1 #
vertex $-1 $204 $383 #
straight-curve $-1 45.302896206549271 12.158990454939843 62.938685612845362 0 0 1 I I #
straight-curve $-1 -30.685514755814616 12.158990454939843 49.888960263326837 0.83867056331134215 0 -0.54463904215088732 I I #
edge $-1 $377 2.7511787288411789 $208 12.158990454939843 $300 $384 forward 7 unknown #
point $-1 45.302896206549271 12.158990454939843 6.9855349253153332 #
point $-1 35.379965519188822 12.158990454939843 6.9855349253153349 #
edge $-1 $385 1 $385 0 $211 $-1 forward 7 unknown #
vertex $-1 $212 $386 #
ellipse-curve $-1 38.707447250129327 5.4391249362979401 1.2474075278888566 0.54463904215088732 0 0.83867056331134215 0.83867056331134215 0 -0.54463904215088732 1 I I #
point $-1 41.180101426180407 5.4391249362979401 3.2188825555741305 #
edge $-1 $387 1 $387 0 $215 $-1 forward 7 unknown #
vertex $-1 $216 $388 #
ellipse-curve $-1 38.707447250129327 9.471044247483082 1.2474075278888566 0.54463904215088732 0 0.83867056331134215 0.83867056331134215 0 -0.54463904215088732 1 I I #
point $-1 41.180101426180407 9.471044247483082 3.2188825555741305 #
loop $-1 $-1 $227 $219 #
plane-surface $-1 -45.302896206549271 0 0 1 0 0 0 0 -1 forward_v I I I I #
coedge $-1 $319 $222 $224 $323 reversed $139 $-1 #
coedge $-1 $222 $318 $389 $390 reversed $139 $-1 #
coedge $-1 $230 $225 $222 $321 forward $220 $-1 #
edge $-1 $324 -7.8315061185890968 $391 -3.3332259941471776 $320 $392 forward 7 unknown #
coedge $-1 $224 $223 $327 $393 reversed $87 $-1 #
edge $-1 $394 8.6223355153435888e-015 $324 5.4913861037484928 $318 $395 forward 7 unknown #
vertex $-1 $226 $396 #
straight-curve $-1 -40.804616082107344 0.27627466075176521 6.9855349253153332 0 1 0 I I #
coedge $-1 $389 $227 $230 $331 reversed $316 $-1 #
coedge $-1 $227 $389 $322 $393 forward $316 $-1 #
vertex $-1 $228 $397 #
straight-curve $-1 -45.302896206549271 -2.4619267827615978 39.027862411668877 0 0 1 I I #
straight-curve $-1 -45.302896206549278 -2.4619267827615978 3.8358052127062052 -0.81915203911291934 0 -0.57357644374324357 I I #
edge $-1 $391 -3.5670254257686587 $231 2.4619267827615978 $326 $398 forward 7 unknown #
point $-1 -45.302896206549271 -2.4619267827615978 6.9855349253153332 #
point $-1 -40.804616082107351 -2.4619267827615978 6.9855349253153332 #
edge $-1 $399 1 $399 0 $234 $-1 forward 7 unknown #
vertex $-1 $235 $400 #
ellipse-curve $-1 -42.480179700585069 -0.73936900889581025 4.591518029897852 -0.57357644374324357 0 0.81915203911291934 0.20478800977822983 0 0.14339411093581089 1 I I #
point $-1 -42.848968134550077 -0.73936900889581025 5.5540641799465824 #
edge $-1 $401 1 $401 0 $238 $-1 forward 7 unknown #
vertex $-1 $239 $402 #
ellipse-curve $-1 -42.480179700585069 1.8444676519028711 4.591518029897852 -0.57357644374324357 0 0.81915203911291934 0.20478800977822983 0 0.14339411093581089 1 I I #
point $-1 -42.848968134550077 1.8444676519028711 5.5540641799465824 #
plane-surface $-1 45.302896206549271 0 0 -1 0 0 0 0 1 forward_v I I I I #
coedge $-1 $247 $245 $249 $347 reversed $161 $-1 #
edge $-1 $260 -6.9855349253153332 $349 6.9855349253153332 $259 $403 forward 7 unknown #
vertex $-1 $347 $404 #
straight-curve $-1 -45.302896206549271 -19.61060854162162 0 0 0 -1 I I #
edge $-1 $345 -19.61060854162162 $349 19.61060854162162 $343 $405 forward 7 unknown #
straight-curve $-1 0 -19.61060854162162 -6.9855349253153332 -1 0 0 I I #
vertex $-1 $252 $406 #
straight-curve $-1 0 19.61060854162162 -6.9855349253153332 1 0 0 I I #
point $-1 45.302896206549271 19.61060854162162 -6.9855349253153332 #
point $-1 45.302896206549271 -19.61060854162162 -6.9855349253153332 #
straight-curve $-1 -45.302896206549271 0 6.9855349253153332 0 -1 0 I I #
point $-1 -45.302896206549271 19.61060854162162 6.9855349253153332 #
point $-1 -45.302896206549271 -19.61060854162162 6.9855349253153332 #
straight-curve $-1 45.302896206549271 -19.61060854162162 0 0 0 -1 I I #
straight-curve $-1 45.302896206549271 19.61060854162162 0 0 0 -1 I I #
plane-surface $-1 45.302896206549271 0 0 -1 0 0 0 0 1 forward_v I I I I #
coedge $-1 $370 $361 $360 $407 forward $270 $-1 #
coedge $-1 $273 $272 $359 $407 reversed $109 $-1 #
coedge $-1 $359 $408 $274 $362 reversed $270 $-1 #
edge $-1 $363 -45.302896206549271 $366 45.302896206549271 $361 $409 forward 7 unknown #
vertex $-1 $275 $410 #
straight-curve $-1 -45.302896206549271 0 6.9855349253153332 0 -1 0 I I #
coedge $-1 $282 $276 $408 $411 forward $283 $-1 #
vertex $-1 $277 $412 #
straight-curve $-1 45.302896206549271 0 6.9855349253153332 0 1 0 I I #
point $-1 45.302896206549271 -19.61060854162162 6.9855349253153332 #
point $-1 -45.302896206549271 -19.61060854162162 6.9855349253153332 #
coedge $-1 $408 $359 $285 $371 reversed $270 $-1 #
edge $-1 $372 -45.302896206549271 $374 45.302896206549271 $370 $413 forward 7 unknown #
vertex $-1 $411 $414 #
straight-curve $-1 45.302896206549271 -22.996302274116633 3.9855349253153332 0 -1 0 I I #
vertex $-1 $287 $415 #
straight-curve $-1 -45.302896206549271 -22.996302274116633 3.9855349253153332 0 1 0 I I #
edge $-1 $377 55.953150687530027 $380 62.397177342710648 $291 $416 forward 7 unknown #
vertex $-1 $305 $417 #
straight-curve $-1 9.3309686186887539 2.7511787288411789 6.9855349253153349 1 0 0 I I #
edge $-1 $380 -0.97636356710407668 $302 8.4314481589945878 $301 $418 forward 7 unknown #
vertex $-1 $379 $419 #
straight-curve $-1 -30.685514755814616 2.7511787288411789 49.888960263326837 -0.83867056331134215 0 0.54463904215088732 I I #
point $-1 35.379965519188822 2.7511787288411789 6.9855349253153349 #
point $-1 45.302896206549271 12.158990454939843 0.54150827013471314 #
straight-curve $-1 45.302896206549271 0 6.9855349253153332 0 1 0 I I #
vertex $-1 $308 $420 #
point $-1 39.546117813440667 5.4391249362979401 0.70276848573796924 #
vertex $-1 $312 $421 #
point $-1 39.546117813440667 9.471044247483082 0.70276848573796924 #
coedge $-1 $327 $326 $319 $390 forward $316 $-1 #
edge $-1 $391 32.042327486353543 $394 35.192057198962665 $389 $422 forward 7 unknown #
vertex $-1 $331 $423 #
straight-curve $-1 -48.636122200696448 3.5670254257686587 6.9855349253153349 -1 0 0 I I #
edge $-1 $394 -3.2907507650168935 $328 2.738201443513363 $327 $424 forward 7 unknown #
vertex $-1 $393 $425 #
straight-curve $-1 -45.302896206549278 3.5670254257686587 3.8358052127062052 0.81915203911291934 0 0.57357644374324357 I I #
point $-1 -40.804616082107351 3.5670254257686587 6.9855349253153332 #
point $-1 -45.302896206549271 -2.4619267827615978 3.8358052127062101 #
straight-curve $-1 -45.302896206549271 0 6.9855349253153332 0 -1 0 I I #
vertex $-1 $334 $426 #
point $-1 -42.275391690806835 -0.73936900889581025 4.7349121408336625 #
vertex $-1 $338 $427 #
point $-1 -42.275391690806835 1.8444676519028711 4.7349121408336625 #
straight-curve $-1 -45.302896206549271 19.61060854162162 0 0 0 -1 I I #
point $-1 -45.302896206549271 -19.61060854162162 -6.9855349253153332 #
straight-curve $-1 -45.302896206549271 0 -6.9855349253153332 0 1 0 I I #
point $-1 -45.302896206549271 19.61060854162162 -6.9855349253153332 #
edge $-1 $363 -1.5 $374 1.5 $360 $428 forward 7 unknown #
coedge $-1 $361 $370 $365 $411 reversed $270 $-1 #
straight-curve $-1 0 -26.381996006611647 6.9855349253153332 1 0 0 I I #
point $-1 -45.302896206549271 -26.381996006611647 6.9855349253153332 #
edge $-1 $366 -1.5 $372 1.5 $365 $429 forward 7 unknown #
point $-1 45.302896206549271 -26.381996006611647 6.9855349253153332 #
straight-curve $-1 0 -26.381996006611647 3.9855349253153332 -1 0 0 I I #
point $-1 45.302896206549271 -26.381996006611647 3.9855349253153332 #
point $-1 -45.302896206549271 -26.381996006611647 3.9855349253153332 #
straight-curve $-1 45.302896206549271 2.7511787288411789 62.938685612845362 0 0 -1 I I #
point $-1 45.302896206549271 2.7511787288411789 6.9855349253153332 #
straight-curve $-1 45.302896206549271 3.7275422959452555 0.5415082701347167 0 1 0 I I #
point $-1 45.302896206549271 2.7511787288411789 0.54150827013471314 #
point $-1 38.162808207978436 5.4391249362979401 0.40873696457751446 #
point $-1 38.162808207978436 9.471044247483082 0.40873696457751446 #
straight-curve $-1 -45.302896206549271 3.5670254257686587 39.027862411668877 0 0 -1 I I #
point $-1 -45.302896206549271 3.5670254257686587 6.9855349253153332 #
straight-curve $-1 -45.302896206549271 0.27627466075176521 3.835805212706211 0 -1 0 I I #
point $-1 -45.302896206549271 3.5670254257686587 3.8358052127062101 #
point $-1 -42.336785589649253 -0.73936900889581025 4.3867300201196215 #
point $-1 -42.336785589649253 1.8444676519028711 4.3867300201196215 #
straight-curve $-1 -45.302896206549271 -26.381996006611647 5.4855349253153332 0 0 -1 I I #
straight-curve $-1 45.302896206549271 -26.381996006611647 5.4855349253153332 0 0 -1 I I #
End-of-ACIS-data 