500 0 10 0           
7 Unknown 11 ACIS 5.0 NT 24 Fri Mar 26 17:34:55 1999 
-1 9.9999999999999995e-007 1e-010 
body $-1 $10 $-1 $11 #
body $-1 $12 $-1 $13 #
body $-1 $14 $-1 $15 #
body $-1 $16 $-1 $17 #
body $-1 $18 $-1 $19 #
body $-1 $20 $-1 $21 #
body $-1 $22 $-1 $23 #
body $-1 $24 $-1 $25 #
body $-1 $26 $-1 $27 #
body $-1 $28 $-1 $29 #
lump $-1 $-1 $30 $0 #
transform $-1 1 0 0 0 1 0 0 0 1 59.600207525864434 35.743936220985127 9.9635117728694063 1 rotate no_reflect no_shear #
lump $-1 $-1 $31 $1 #
transform $-1 1 0 0 0 1 0 0 0 1 59.600207525864434 35.743936220985127 9.9635117728694063 1 rotate no_reflect no_shear #
lump $-1 $-1 $32 $2 #
transform $-1 1 0 0 0 1 0 0 0 1 59.600207525864434 35.743936220985127 9.9635117728694063 1 rotate no_reflect no_shear #
lump $-1 $-1 $33 $3 #
transform $-1 1 0 0 0 1 0 0 0 1 59.600207525864434 35.743936220985127 9.9635117728694063 1 rotate no_reflect no_shear #
lump $-1 $-1 $34 $4 #
transform $-1 1 0 0 0 1 0 0 0 1 59.600207525864434 35.743936220985127 9.9635117728694063 1 rotate no_reflect no_shear #
lump $-1 $-1 $35 $5 #
transform $-1 1 0 0 0 1 0 0 0 1 59.600207525864434 35.743936220985127 9.9635117728694063 1 rotate no_reflect no_shear #
lump $-1 $-1 $36 $6 #
transform $-1 1 0 0 0 1 0 0 0 1 59.600207525864434 35.743936220985127 9.9635117728694063 1 rotate no_reflect no_shear #
lump $-1 $-1 $37 $7 #
transform $-1 1 0 0 0 1 0 0 0 1 59.600207525864434 35.743936220985127 9.9635117728694063 1 rotate no_reflect no_shear #
lump $-1 $-1 $38 $8 #
transform $-1 1 0 0 0 1 0 0 0 1 59.600207525864434 35.743936220985127 9.9635117728694063 1 rotate no_reflect no_shear #
lump $-1 $-1 $39 $9 #
transform $-1 1 0 0 0 1 0 0 0 1 59.600207525864434 35.743936220985127 9.9635117728694063 1 rotate no_reflect no_shear #
shell $-1 $-1 $-1 $40 $-1 $10 #
shell $-1 $-1 $-1 $41 $-1 $12 #
shell $-1 $-1 $-1 $42 $-1 $14 #
shell $-1 $-1 $-1 $43 $-1 $16 #
shell $-1 $-1 $-1 $44 $-1 $18 #
shell $-1 $-1 $-1 $45 $-1 $20 #
shell $-1 $-1 $-1 $46 $-1 $22 #
shell $-1 $-1 $-1 $47 $-1 $24 #
shell $-1 $-1 $-1 $48 $-1 $26 #
shell $-1 $-1 $-1 $49 $-1 $28 #
face $-1 $50 $51 $30 $-1 $52 reversed single #
face $-1 $53 $54 $31 $-1 $55 forward single #
face $-1 $56 $57 $32 $-1 $58 forward single #
face $-1 $59 $60 $33 $-1 $61 reversed single #
face $-1 $62 $63 $34 $-1 $64 forward single #
face $-1 $65 $66 $35 $-1 $67 forward single #
face $-1 $68 $69 $36 $-1 $70 forward single #
face $-1 $71 $72 $37 $-1 $73 reversed single #
face $-1 $74 $75 $38 $-1 $76 forward single #
face $-1 $77 $78 $39 $-1 $79 forward single #
face $-1 $80 $81 $30 $-1 $82 forward single #
loop $-1 $-1 $83 $40 #
plane-surface $-1 0 -35.743936220985127 0 0 1 0 0 0 1 forward_v I I I I #
face $-1 $84 $85 $31 $-1 $86 forward single #
loop $-1 $-1 $87 $41 #
plane-surface $-1 0 -35.743936220985127 0 0 1 0 0 0 1 forward_v I I I I #
face $-1 $88 $89 $32 $-1 $90 forward single #
loop $-1 $-1 $91 $42 #
plane-surface $-1 0 35.743936220985127 0 0 -1 0 0 0 -1 forward_v I I I I #
face $-1 $92 $93 $33 $-1 $94 reversed single #
loop $-1 $-1 $95 $43 #
plane-surface $-1 -161.77490647224724 -7.6848982960359198 64.027311594745342 0 1 0 -0.85716730853699208 0 0.51503806187062418 forward_v I I I I #
face $-1 $96 $97 $34 $-1 $98 forward single #
loop $-1 $99 $100 $44 #
cone-surface $-1 -56.69492087725466 -5.3504964284876877 5.8763622880547333 0.85716730853699208 0 -0.51503806187062418 0.25751903093531209 0 0.42858365426849604 1 I I 0 1 0.5 forward I I I I #
face $-1 $101 $102 $35 $-1 $103 forward single #
loop $-1 $104 $105 $45 #
cone-surface $-1 -56.69492087725466 -1.8488936271653316 5.8763622880547333 0.85716730853699208 0 -0.51503806187062418 0.25751903093531209 0 0.42858365426849604 1 I I 0 1 0.5 forward I I I I #
face $-1 $106 $107 $36 $-1 $108 forward single #
loop $-1 $109 $110 $46 #
cone-surface $-1 -56.69492087725466 1.6527091741570175 5.8763622880547333 0.85716730853699208 0 -0.51503806187062418 0.25751903093531209 0 0.42858365426849604 1 I I 0 1 0.5 forward I I I I #
face $-1 $111 $112 $37 $-1 $113 reversed single #
loop $-1 $-1 $114 $47 #
plane-surface $-1 103.23059009544978 25.775802560883214 167.32890808390718 0 -1 0 -0.86602541151947299 0 -0.49999998660252726 forward_v I I I I #
face $-1 $115 $116 $38 $-1 $117 forward single #
loop $-1 $118 $119 $48 #
cone-surface $-1 57.206072984797757 20.448084304286283 6.7594581633023338 -0.86602541151947299 0 -0.49999998660252726 0.24999999330126363 0 -0.43301270575973649 1 I I 0 1 0.5 forward I I I I #
face $-1 $120 $121 $39 $-1 $122 forward single #
loop $-1 $123 $124 $49 #
cone-surface $-1 57.206072984797757 23.644715258244439 6.7594581633023338 -0.86602541151947299 0 -0.49999998660252726 0.24999999330126363 0 -0.43301270575973649 1 I I 0 1 0.5 forward I I I I #
face $-1 $125 $126 $30 $-1 $127 reversed single #
loop $-1 $-1 $128 $50 #
plane-surface $-1 0 0 9.9635117728694063 0 0 1 1 0 0 forward_v I I I I #
coedge $-1 $129 $130 $131 $132 reversed $51 $-1 #
face $-1 $133 $134 $31 $-1 $135 reversed single #
loop $-1 $-1 $136 $53 #
plane-surface $-1 0 0 9.9635117728694063 0 0 1 1 0 0 forward_v I I I I #
coedge $-1 $137 $138 $139 $140 forward $54 $-1 #
face $-1 $141 $142 $32 $-1 $143 reversed single #
loop $-1 $-1 $144 $56 #
plane-surface $-1 0 0 9.9635117728694063 0 0 1 1 0 0 forward_v I I I I #
coedge $-1 $145 $146 $147 $148 forward $57 $-1 #
face $-1 $149 $150 $33 $-1 $151 reversed single #
loop $-1 $-1 $152 $59 #
plane-surface $-1 -59.600207525864448 -1.8488936271653316 2.6345608523289314 -0.85716730853699208 0 0.51503806187062418 0.51503806187062418 0 0.85716730853699208 forward_v I I I I #
coedge $-1 $153 $154 $155 $156 reversed $60 $-1 #
face $-1 $-1 $157 $34 $-1 $158 forward single #
loop $-1 $159 $160 $62 #
cone-surface $-1 -55.777181319109303 -5.3504964284876877 5.3249287480426428 0.85716730853699208 0 -0.51503806187062418 0.12875951546765604 0 0.21429182713424802 1 I I -0.70710678118654746 0.70710678118654746 0.25 forward I I I I #
loop $-1 $-1 $161 $44 #
coedge $-1 $100 $100 $162 $163 reversed $63 $-1 #
face $-1 $-1 $164 $35 $-1 $165 forward single #
loop $-1 $166 $167 $65 #
cone-surface $-1 -55.777181319109303 -1.8488936271653316 5.3249287480426428 0.85716730853699208 0 -0.51503806187062418 0.12875951546765604 0 0.21429182713424802 1 I I -0.70710678118654746 0.70710678118654746 0.25 forward I I I I #
loop $-1 $-1 $168 $45 #
coedge $-1 $105 $105 $169 $170 reversed $66 $-1 #
face $-1 $-1 $171 $36 $-1 $172 forward single #
loop $-1 $173 $174 $68 #
cone-surface $-1 -55.777181319109303 1.6527091741570175 5.3249287480426428 0.85716730853699208 0 -0.51503806187062418 0.12875951546765604 0 0.21429182713424802 1 I I -0.70710678118654746 0.70710678118654746 0.25 forward I I I I #
loop $-1 $-1 $175 $46 #
coedge $-1 $110 $110 $176 $177 reversed $69 $-1 #
face $-1 $178 $179 $37 $-1 $180 reversed single #
loop $-1 $-1 $181 $71 #
plane-surface $-1 1.5969843047969334e-006 22.046399781265364 107.72870215502707 0.86602541151947299 0 0.49999998660252726 0.49999998660252726 0 -0.86602541151947299 forward_v I I I I #
coedge $-1 $182 $183 $184 $185 reversed $72 $-1 #
face $-1 $-1 $186 $38 $-1 $187 forward single #
loop $-1 $188 $189 $74 #
cone-surface $-1 56.173156571323887 20.448084304286283 6.1631036152385299 -0.86602541151947299 0 -0.49999998660252726 0.12499999665063181 0 -0.21650635287986825 1 I I -0.70710678118654746 0.70710678118654746 0.25 forward I I I I #
loop $-1 $-1 $190 $48 #
coedge $-1 $119 $119 $191 $192 reversed $75 $-1 #
face $-1 $-1 $193 $39 $-1 $194 forward single #
loop $-1 $195 $196 $77 #
cone-surface $-1 56.173156571323887 23.644715258244439 6.1631036152385299 -0.86602541151947299 0 -0.49999998660252726 0.12499999665063181 0 -0.21650635287986825 1 I I -0.70710678118654746 0.70710678118654746 0.25 forward I I I I #
loop $-1 $-1 $197 $49 #
coedge $-1 $124 $124 $198 $199 reversed $78 $-1 #
face $-1 $200 $201 $30 $-1 $202 reversed single #
loop $-1 $-1 $203 $80 #
plane-surface $-1 0 0 -9.9635117728694063 0 0 1 1 0 0 forward_v I I I I #
coedge $-1 $204 $205 $206 $207 forward $81 $-1 #
coedge $-1 $208 $83 $209 $210 reversed $51 $-1 #
coedge $-1 $83 $208 $211 $212 forward $51 $-1 #
coedge $-1 $213 $203 $83 $132 forward $126 $-1 #
edge $-1 $214 -59.600207525864434 $215 59.600207525864434 $83 $216 forward 7 unknown #
face $-1 $217 $218 $31 $-1 $219 reversed single #
loop $-1 $-1 $220 $84 #
plane-surface $-1 -59.600207525864434 0 0 1 0 0 0 0 -1 forward_v I I I I #
coedge $-1 $221 $222 $138 $223 forward $85 $-1 #
coedge $-1 $224 $87 $225 $226 reversed $54 $-1 #
coedge $-1 $87 $224 $136 $223 reversed $54 $-1 #
coedge $-1 $227 $228 $87 $140 reversed $229 $-1 #
edge $-1 $230 -9.9635117728694063 $231 9.9635117728694063 $139 $232 forward 7 unknown #
face $-1 $233 $234 $32 $-1 $235 reversed single #
loop $-1 $-1 $236 $88 #
plane-surface $-1 -57.202755559764732 45.712069881087046 0 0 -1 0 0 0 -1 forward_v I I I I #
coedge $-1 $237 $238 $145 $239 forward $89 $-1 #
coedge $-1 $240 $91 $144 $239 reversed $57 $-1 #
coedge $-1 $91 $240 $241 $242 reversed $57 $-1 #
coedge $-1 $243 $244 $91 $148 reversed $234 $-1 #
edge $-1 $245 -9.9635117728694063 $246 9.9635117728694063 $147 $247 forward 7 unknown #
face $-1 $248 $249 $33 $-1 $250 reversed single #
loop $-1 $-1 $251 $92 #
plane-surface $-1 -161.77490647224724 3.9871110417052567 64.027311594745342 0 -1 0 0.85716730853699208 0 -0.51503806187062418 forward_v I I I I #
coedge $-1 $252 $253 $254 $255 reversed $93 $-1 #
coedge $-1 $154 $95 $256 $257 reversed $60 $-1 #
coedge $-1 $95 $153 $252 $258 reversed $60 $-1 #
coedge $-1 $254 $259 $95 $156 forward $260 $-1 #
edge $-1 $261 21.287245710259185 $262 25.690923545456492 $155 $263 forward 7 unknown #
loop $-1 $-1 $162 $96 #
plane-surface $-1 -59.600207525864448 -1.8488936271653316 2.6345608523289314 -0.85716730853699208 0 0.51503806187062418 0.51503806187062418 0 0.85716730853699208 forward_v I I I I #
loop $-1 $-1 $264 $62 #
coedge $-1 $160 $160 $161 $265 reversed $97 $-1 #
coedge $-1 $161 $161 $160 $265 forward $99 $-1 #
coedge $-1 $162 $162 $100 $163 forward $157 $-1 #
edge $-1 $266 0 $266 6.2831853071796004 $162 $267 forward 7 unknown #
loop $-1 $-1 $169 $101 #
plane-surface $-1 -59.600207525864448 -1.8488936271653316 2.6345608523289314 -0.85716730853699208 0 0.51503806187062418 0.51503806187062418 0 0.85716730853699208 forward_v I I I I #
loop $-1 $-1 $268 $65 #
coedge $-1 $167 $167 $168 $269 reversed $102 $-1 #
coedge $-1 $168 $168 $167 $269 forward $104 $-1 #
coedge $-1 $169 $169 $105 $170 forward $164 $-1 #
edge $-1 $270 0 $270 6.2831853071796004 $169 $271 forward 7 unknown #
loop $-1 $-1 $176 $106 #
plane-surface $-1 -59.600207525864448 -1.8488936271653316 2.6345608523289314 -0.85716730853699208 0 0.51503806187062418 0.51503806187062418 0 0.85716730853699208 forward_v I I I I #
loop $-1 $-1 $272 $68 #
coedge $-1 $174 $174 $175 $273 reversed $107 $-1 #
coedge $-1 $175 $175 $174 $273 forward $109 $-1 #
coedge $-1 $176 $176 $110 $177 forward $171 $-1 #
edge $-1 $274 0 $274 6.2831853071796004 $176 $275 forward 7 unknown #
face $-1 $276 $277 $37 $-1 $278 forward single #
loop $-1 $-1 $279 $111 #
plane-surface $-1 103.23059009544978 18.316997001647515 167.32890808390718 0 1 0 0.86602541151947299 0 0.49999998660252726 forward_v I I I I #
coedge $-1 $280 $281 $282 $283 reversed $112 $-1 #
coedge $-1 $183 $114 $284 $285 reversed $72 $-1 #
coedge $-1 $114 $182 $280 $286 reversed $72 $-1 #
coedge $-1 $282 $287 $114 $185 forward $277 $-1 #
edge $-1 $288 -7.9849124781395417 $289 -4.829463517194192 $184 $290 forward 7 unknown #
loop $-1 $-1 $191 $115 #
plane-surface $-1 1.5969843047969334e-006 22.046399781265364 107.72870215502707 0.86602541151947299 0 0.49999998660252726 0.49999998660252726 0 -0.86602541151947299 forward_v I I I I #
loop $-1 $-1 $291 $74 #
coedge $-1 $189 $189 $190 $292 reversed $116 $-1 #
coedge $-1 $190 $190 $189 $292 forward $118 $-1 #
coedge $-1 $191 $191 $119 $192 forward $186 $-1 #
edge $-1 $293 0 $293 6.2831853071796004 $191 $294 forward 7 unknown #
loop $-1 $-1 $198 $120 #
plane-surface $-1 1.5969843047969334e-006 22.046399781265364 107.72870215502707 0.86602541151947299 0 0.49999998660252726 0.49999998660252726 0 -0.86602541151947299 forward_v I I I I #
loop $-1 $-1 $295 $77 #
coedge $-1 $196 $196 $197 $296 reversed $121 $-1 #
coedge $-1 $197 $197 $196 $296 forward $123 $-1 #
coedge $-1 $198 $198 $124 $199 forward $193 $-1 #
edge $-1 $297 0 $297 6.2831853071796004 $198 $298 forward 7 unknown #
face $-1 $299 $300 $30 $-1 $301 reversed single #
loop $-1 $-1 $302 $125 #
plane-surface $-1 -59.600207525864434 0 0 1 0 0 0 0 -1 forward_v I I I I #
coedge $-1 $131 $303 $304 $305 forward $126 $-1 #
coedge $-1 $306 $128 $307 $308 forward $81 $-1 #
coedge $-1 $128 $306 $208 $309 forward $81 $-1 #
coedge $-1 $209 $310 $128 $207 reversed $311 $-1 #
edge $-1 $312 -35.743936220985127 $313 35.743936220985127 $206 $314 forward 7 unknown #
coedge $-1 $130 $129 $205 $309 reversed $51 $-1 #
coedge $-1 $304 $206 $129 $210 forward $311 $-1 #
edge $-1 $312 -9.9635117728694063 $214 9.9635117728694063 $209 $315 forward 7 unknown #
coedge $-1 $316 $317 $130 $212 reversed $201 $-1 #
edge $-1 $318 -9.9635117728694063 $215 9.9635117728694063 $211 $319 forward 7 unknown #
coedge $-1 $303 $131 $317 $320 forward $126 $-1 #
vertex $-1 $210 $321 #
vertex $-1 $320 $322 #
straight-curve $-1 0 -35.743936220985127 -9.9635117728694063 -1 0 0 I I #
face $-1 $323 $229 $31 $-1 $324 reversed single #
loop $-1 $-1 $325 $133 #
plane-surface $-1 -57.202755559764732 -45.712069881087039 0 0 1 0 0 0 1 forward_v I I I I #
coedge $-1 $326 $327 $224 $328 forward $134 $-1 #
coedge $-1 $329 $136 $327 $330 forward $85 $-1 #
coedge $-1 $136 $329 $227 $331 forward $85 $-1 #
edge $-1 $230 54.80530359366503 $332 59.600207525864434 $136 $333 forward 7 unknown #
coedge $-1 $138 $137 $220 $328 reversed $54 $-1 #
coedge $-1 $334 $335 $137 $226 forward $336 $-1 #
edge $-1 $337 -59.600207525864434 $231 -54.80530359366503 $225 $338 forward 7 unknown #
coedge $-1 $339 $139 $222 $331 reversed $229 $-1 #
coedge $-1 $139 $339 $334 $340 reversed $229 $-1 #
loop $-1 $-1 $339 $217 #
vertex $-1 $223 $341 #
vertex $-1 $340 $342 #
straight-curve $-1 -54.80530359366503 -35.743936220985127 0 0 0 -1 I I #
face $-1 $343 $344 $32 $-1 $345 reversed single #
loop $-1 $-1 $147 $141 #
plane-surface $-1 -54.80530359366503 40.72800305103609 0 -1 0 0 0 0 1 forward_v I I I I #
coedge $-1 $346 $347 $348 $349 forward $142 $-1 #
coedge $-1 $350 $144 $244 $351 forward $89 $-1 #
coedge $-1 $144 $350 $352 $353 forward $89 $-1 #
edge $-1 $354 -59.600207525864434 $246 -54.80530359366503 $144 $355 forward 7 unknown #
coedge $-1 $146 $145 $356 $357 reversed $57 $-1 #
coedge $-1 $358 $359 $146 $242 forward $344 $-1 #
edge $-1 $245 54.80530359366503 $360 59.600207525864434 $241 $361 forward 7 unknown #
coedge $-1 $348 $147 $359 $362 reversed $234 $-1 #
coedge $-1 $147 $348 $237 $351 reversed $234 $-1 #
vertex $-1 $242 $363 #
vertex $-1 $351 $364 #
straight-curve $-1 -54.80530359366503 35.743936220985127 0 0 0 1 I I #
face $-1 $-1 $260 $33 $-1 $365 forward single #
loop $-1 $-1 $366 $149 #
plane-surface $-1 -59.600207525864434 0 0 1 0 0 0 0 -1 forward_v I I I I #
coedge $-1 $367 $368 $369 $370 reversed $150 $-1 #
coedge $-1 $371 $152 $154 $258 forward $93 $-1 #
coedge $-1 $152 $371 $367 $372 forward $93 $-1 #
coedge $-1 $369 $155 $152 $255 forward $260 $-1 #
edge $-1 $262 -6.760451482453254 $373 4.9115578552879224 $254 $374 forward 7 unknown #
coedge $-1 $375 $376 $153 $257 forward $249 $-1 #
edge $-1 $377 -29.379094945043715 $261 -22.050144024503265 $256 $378 forward 7 unknown #
edge $-1 $262 -8.5501988323020459 $377 -2.7494044966190042e-014 $154 $379 forward 7 unknown #
coedge $-1 $155 $369 $375 $380 forward $260 $-1 #
loop $-1 $-1 $369 $248 #
vertex $-1 $257 $381 #
vertex $-1 $156 $382 #
straight-curve $-1 -80.887453236123619 -7.6848982960359198 9.9635117728694063 1 0 0 I I #
coedge $-1 $264 $264 $-1 $383 reversed $159 $-1 #
edge $-1 $384 0 $384 6.2831853071796004 $160 $385 forward 7 unknown #
vertex $-1 $163 $386 #
ellipse-curve $-1 -57.398368608265784 -5.3504964284876877 6.299036312599176 -0.85716730853699208 0 0.51503806187062418 0.25751903093531209 0 0.42858365426849604 1 I I #
coedge $-1 $268 $268 $-1 $387 reversed $166 $-1 #
edge $-1 $388 0 $388 6.2831853071796004 $167 $389 forward 7 unknown #
vertex $-1 $170 $390 #
ellipse-curve $-1 -57.398368608265784 -1.8488936271653316 6.299036312599176 -0.85716730853699208 0 0.51503806187062418 0.25751903093531209 0 0.42858365426849604 1 I I #
coedge $-1 $272 $272 $-1 $391 reversed $173 $-1 #
edge $-1 $392 0 $392 6.2831853071796004 $174 $393 forward 7 unknown #
vertex $-1 $177 $394 #
ellipse-curve $-1 -57.398368608265784 1.6527091741570175 6.299036312599176 -0.85716730853699208 0 0.51503806187062418 0.25751903093531209 0 0.42858365426849604 1 I I #
face $-1 $-1 $395 $37 $-1 $396 reversed single #
loop $-1 $-1 $184 $178 #
plane-surface $-1 0 0 9.9635117728694063 0 0 1 1 0 0 forward_v I I I I #
coedge $-1 $397 $398 $399 $400 reversed $179 $-1 #
coedge $-1 $401 $181 $183 $286 forward $112 $-1 #
coedge $-1 $181 $401 $397 $402 forward $112 $-1 #
coedge $-1 $399 $184 $181 $283 forward $277 $-1 #
edge $-1 $289 -14.752602670250532 $403 -7.2937971110148325 $282 $404 forward 7 unknown #
coedge $-1 $405 $406 $182 $285 forward $395 $-1 #
edge $-1 $407 -79.166340385392019 $288 -73.70094226908418 $284 $408 forward 7 unknown #
edge $-1 $289 112.88951696073801 $407 119.20041505172888 $183 $409 forward 7 unknown #
coedge $-1 $184 $399 $405 $410 forward $277 $-1 #
vertex $-1 $185 $411 #
vertex $-1 $185 $412 #
straight-curve $-1 51.615295047724892 25.775802560883214 9.9635117728694098 -1 0 0 I I #
coedge $-1 $291 $291 $-1 $413 reversed $188 $-1 #
edge $-1 $414 0 $414 6.2831853071796004 $189 $415 forward 7 unknown #
vertex $-1 $192 $416 #
ellipse-curve $-1 58.022483045391752 20.448084304286283 7.230812714715503 0.86602541151947299 0 0.49999998660252726 0.24999999330126363 0 -0.43301270575973649 1 I I #
coedge $-1 $295 $295 $-1 $417 reversed $195 $-1 #
edge $-1 $418 0 $418 6.2831853071796004 $196 $419 forward 7 unknown #
vertex $-1 $199 $420 #
ellipse-curve $-1 58.022483045391752 23.644715258244439 7.230812714715503 0.86602541151947299 0 0.49999998660252726 0.24999999330126363 0 -0.43301270575973649 1 I I #
face $-1 $-1 $311 $30 $-1 $421 reversed single #
loop $-1 $-1 $307 $200 #
plane-surface $-1 0 35.743936220985127 0 0 -1 0 0 0 -1 forward_v I I I I #
coedge $-1 $317 $316 $422 $423 forward $201 $-1 #
coedge $-1 $203 $213 $424 $425 forward $126 $-1 #
coedge $-1 $310 $209 $203 $305 reversed $311 $-1 #
edge $-1 $426 -35.743936220985127 $214 35.743936220985127 $304 $427 forward 7 unknown #
coedge $-1 $205 $204 $316 $428 forward $81 $-1 #
coedge $-1 $429 $422 $204 $308 reversed $300 $-1 #
edge $-1 $313 -59.600207525864434 $430 59.600207525864434 $307 $431 forward 7 unknown #
edge $-1 $318 -59.600207525864434 $312 59.600207525864434 $208 $432 forward 7 unknown #
coedge $-1 $206 $304 $429 $433 reversed $311 $-1 #
loop $-1 $-1 $209 $299 #
vertex $-1 $207 $434 #
vertex $-1 $207 $435 #
straight-curve $-1 59.600207525864434 0 9.9635117728694063 0 1 0 I I #
straight-curve $-1 59.600207525864434 -35.743936220985127 0 0 0 -1 I I #
coedge $-1 $302 $211 $306 $428 reversed $201 $-1 #
coedge $-1 $211 $302 $213 $320 reversed $201 $-1 #
vertex $-1 $428 $436 #
straight-curve $-1 -59.600207525864434 -35.743936220985127 0 0 0 -1 I I #
edge $-1 $215 -35.743936220985127 $437 35.743936220985127 $317 $438 forward 7 unknown #
point $-1 59.600207525864434 -35.743936220985127 -9.9635117728694063 #
point $-1 -59.600207525864434 -35.743936220985127 -9.9635117728694063 #
face $-1 $-1 $336 $31 $-1 $439 reversed single #
plane-surface $-1 -54.80530359366503 -40.728003051036083 0 -1 0 0 0 0 1 forward_v I I I I #
coedge $-1 $440 $441 $442 $443 forward $218 $-1 #
coedge $-1 $442 $220 $335 $444 reversed $134 $-1 #
coedge $-1 $220 $442 $221 $330 reversed $134 $-1 #
edge $-1 $332 -9.9635117728694063 $337 9.9635117728694063 $220 $445 forward 7 unknown #
coedge $-1 $222 $221 $441 $446 forward $85 $-1 #
edge $-1 $332 35.743936220985127 $447 45.712069881087039 $327 $448 forward 7 unknown #
edge $-1 $449 -4.9840668300509563 $230 4.9840668300509563 $227 $450 forward 7 unknown #
vertex $-1 $330 $451 #
straight-curve $-1 0 -35.743936220985127 9.9635117728694063 -1 0 0 I I #
coedge $-1 $452 $225 $228 $340 forward $336 $-1 #
coedge $-1 $225 $452 $326 $444 forward $336 $-1 #
loop $-1 $-1 $225 $323 #
vertex $-1 $328 $453 #
straight-curve $-1 0 -35.743936220985127 -9.9635117728694063 1 0 0 I I #
coedge $-1 $228 $227 $454 $455 forward $229 $-1 #
edge $-1 $231 -4.9840668300509563 $456 4.9840668300509563 $228 $457 forward 7 unknown #
point $-1 -54.80530359366503 -35.743936220985127 9.9635117728694063 #
point $-1 -54.80530359366503 -35.743936220985127 -9.9635117728694063 #
face $-1 $-1 $458 $32 $-1 $459 reversed single #
loop $-1 $-1 $241 $233 #
plane-surface $-1 0 0 -9.9635117728694063 0 0 1 1 0 0 forward_v I I I I #
coedge $-1 $460 $236 $461 $462 reversed $142 $-1 #
coedge $-1 $236 $460 $350 $463 reversed $142 $-1 #
coedge $-1 $244 $243 $236 $349 reversed $234 $-1 #
edge $-1 $464 -9.9635117728694063 $465 9.9635117728694063 $348 $466 forward 7 unknown #
coedge $-1 $238 $237 $347 $463 forward $89 $-1 #
edge $-1 $246 -4.9840668300509563 $464 4.9840668300509563 $244 $467 forward 7 unknown #
coedge $-1 $468 $356 $238 $353 reversed $458 $-1 #
edge $-1 $469 -45.712069881087046 $354 -35.743936220985127 $352 $470 forward 7 unknown #
vertex $-1 $357 $471 #
straight-curve $-1 0 35.743936220985127 9.9635117728694063 1 0 0 I I #
coedge $-1 $352 $472 $240 $357 forward $458 $-1 #
edge $-1 $360 -9.9635117728694063 $354 9.9635117728694063 $356 $473 forward 7 unknown #
coedge $-1 $461 $241 $472 $474 forward $344 $-1 #
coedge $-1 $241 $461 $243 $362 forward $344 $-1 #
vertex $-1 $474 $475 #
straight-curve $-1 0 35.743936220985127 -9.9635117728694063 -1 0 0 I I #
edge $-1 $465 -4.9840668300509563 $245 4.9840668300509563 $243 $476 forward 7 unknown #
point $-1 -54.80530359366503 35.743936220985134 -9.9635117728694063 #
point $-1 -54.80530359366503 35.743936220985134 9.9635117728694063 #
plane-surface $-1 0 0 9.9635117728694063 0 0 1 1 0 0 forward_v I I I I #
coedge $-1 $376 $375 $368 $477 forward $249 $-1 #
coedge $-1 $368 $251 $253 $372 reversed $150 $-1 #
coedge $-1 $251 $367 $366 $477 reversed $150 $-1 #
coedge $-1 $259 $254 $251 $370 forward $260 $-1 #
edge $-1 $373 -25.690923545456492 $478 -21.287245710259185 $369 $479 forward 7 unknown #
coedge $-1 $253 $252 $376 $480 reversed $93 $-1 #
edge $-1 $481 2.7494044966190042e-014 $373 8.5501988323020459 $367 $482 forward 7 unknown #
vertex $-1 $255 $483 #
straight-curve $-1 -55.196529690667127 -0.92444681358266578 9.9635117728694063 0 1 0 I I #
coedge $-1 $366 $256 $259 $380 reversed $249 $-1 #
coedge $-1 $256 $366 $371 $480 forward $249 $-1 #
vertex $-1 $257 $484 #
straight-curve $-1 -59.600207525864434 -7.6848982960359198 32.013655797372671 0 0 1 I I #
straight-curve $-1 -59.600207525864448 -7.6848982960359198 2.6345608523289314 -0.51503806187062418 0 -0.85716730853699208 I I #
edge $-1 $478 -3.9871110417052567 $261 7.6848982960359198 $375 $485 forward 7 unknown #
point $-1 -59.600207525864434 -7.6848982960359198 9.9635117728694063 #
point $-1 -55.196529690667127 -7.6848982960359198 9.9635117728694063 #
edge $-1 $486 1 $486 0 $264 $-1 forward 7 unknown #
vertex $-1 $265 $487 #
ellipse-curve $-1 -55.99147314624355 -5.3504964284876877 5.4536882635102986 -0.85716730853699208 0 0.51503806187062418 0.25751903093531209 0 0.42858365426849604 1 I I #
point $-1 -57.140849577330464 -5.3504964284876877 6.7276199668676639 #
edge $-1 $488 1 $488 0 $268 $-1 forward 7 unknown #
vertex $-1 $269 $489 #
ellipse-curve $-1 -55.99147314624355 -1.8488936271653316 5.4536882635102986 -0.85716730853699208 0 0.51503806187062418 0.25751903093531209 0 0.42858365426849604 1 I I #
point $-1 -57.140849577330464 -1.8488936271653316 6.7276199668676639 #
edge $-1 $490 1 $490 0 $272 $-1 forward 7 unknown #
vertex $-1 $273 $491 #
ellipse-curve $-1 -55.99147314624355 1.6527091741570175 5.4536882635102986 -0.85716730853699208 0 0.51503806187062418 0.25751903093531209 0 0.42858365426849604 1 I I #
point $-1 -57.140849577330464 1.6527091741570175 6.7276199668676639 #
loop $-1 $-1 $284 $276 #
plane-surface $-1 59.600207525864434 0 0 -1 0 0 0 0 1 forward_v I I I I #
coedge $-1 $398 $279 $281 $402 reversed $179 $-1 #
coedge $-1 $279 $397 $492 $493 reversed $179 $-1 #
coedge $-1 $287 $282 $279 $400 forward $277 $-1 #
edge $-1 $403 4.829463517194192 $494 7.9849124781395417 $399 $495 forward 7 unknown #
coedge $-1 $281 $280 $406 $496 reversed $112 $-1 #
edge $-1 $497 -119.20041505172888 $403 -112.88951696073801 $397 $498 forward 7 unknown #
vertex $-1 $283 $499 #
straight-curve $-1 56.44475856491907 11.023199890632682 9.9635117728694098 0 -1 0 I I #
coedge $-1 $492 $284 $287 $410 reversed $395 $-1 #
coedge $-1 $284 $492 $401 $496 forward $395 $-1 #
vertex $-1 $285 $500 #
straight-curve $-1 59.600207525864434 25.775802560883214 83.66445404195359 0 0 1 I I #
straight-curve $-1 1.5969843047969334e-006 25.775802560883214 107.72870215502707 0.49999998660252726 0 -0.86602541151947299 I I #
edge $-1 $494 18.316997001647515 $288 25.775802560883214 $405 $501 forward 7 unknown #
point $-1 59.600207525864434 25.775802560883214 9.9635117728694063 #
point $-1 56.444758564919084 25.775802560883214 9.9635117728694098 #
edge $-1 $502 1 $502 0 $291 $-1 forward 7 unknown #
vertex $-1 $292 $503 #
ellipse-curve $-1 56.389662924203755 20.448084304286283 6.288103611889162 0.86602541151947299 0 0.49999998660252726 0.24999999330126363 0 -0.43301270575973649 1 I I #
point $-1 58.272483038693018 20.448084304286283 6.79780000895577 #
edge $-1 $504 1 $504 0 $295 $-1 forward 7 unknown #
vertex $-1 $296 $505 #
ellipse-curve $-1 56.389662924203755 23.644715258244439 6.288103611889162 0.86602541151947299 0 0.49999998660252726 0.24999999330126363 0 -0.43301270575973649 1 I I #
point $-1 58.272483038693018 23.644715258244439 6.79780000895577 #
plane-surface $-1 59.600207525864434 0 0 -1 0 0 0 0 1 forward_v I I I I #
coedge $-1 $307 $424 $302 $423 reversed $300 $-1 #
edge $-1 $430 -9.9635117728694063 $437 9.9635117728694063 $422 $506 forward 7 unknown #
coedge $-1 $422 $429 $303 $425 reversed $300 $-1 #
edge $-1 $437 -59.600207525864434 $426 59.600207525864434 $424 $507 forward 7 unknown #
vertex $-1 $305 $508 #
straight-curve $-1 59.600207525864434 0 -9.9635117728694063 0 -1 0 I I #
edge $-1 $430 -35.743936220985127 $318 35.743936220985127 $316 $509 forward 7 unknown #
coedge $-1 $424 $307 $310 $433 forward $300 $-1 #
vertex $-1 $308 $510 #
straight-curve $-1 0 35.743936220985127 9.9635117728694063 -1 0 0 I I #
straight-curve $-1 0 -35.743936220985127 9.9635117728694063 1 0 0 I I #
edge $-1 $313 -9.9635117728694063 $426 9.9635117728694063 $310 $511 forward 7 unknown #
point $-1 59.600207525864434 -35.743936220985127 9.9635117728694063 #
point $-1 59.600207525864434 35.743936220985127 9.9635117728694063 #
point $-1 -59.600207525864434 -35.743936220985127 9.9635117728694063 #
vertex $-1 $425 $512 #
straight-curve $-1 -59.600207525864434 0 -9.9635117728694063 0 1 0 I I #
plane-surface $-1 0 0 -9.9635117728694063 0 0 1 1 0 0 forward_v I I I I #
coedge $-1 $454 $325 $452 $513 reversed $218 $-1 #
coedge $-1 $325 $454 $329 $446 reversed $218 $-1 #
coedge $-1 $327 $326 $325 $443 reversed $134 $-1 #
edge $-1 $447 -9.9635117728694063 $514 9.9635117728694063 $442 $515 forward 7 unknown #
edge $-1 $514 -45.712069881087039 $337 -35.743936220985127 $326 $516 forward 7 unknown #
straight-curve $-1 -59.600207525864434 -35.743936220985127 0 0 0 -1 I I #
edge $-1 $447 -2.3974519660997018 $449 2.3974519660997018 $441 $517 forward 7 unknown #
vertex $-1 $330 $518 #
straight-curve $-1 -59.600207525864434 0 9.9635117728694063 0 -1 0 I I #
vertex $-1 $331 $519 #
straight-curve $-1 -54.80530359366503 -40.728003051036083 9.9635117728694063 0 1 0 I I #
point $-1 -59.600207525864434 -35.743936220985127 9.9635117728694063 #
coedge $-1 $335 $334 $440 $513 forward $336 $-1 #
point $-1 -59.600207525864434 -35.743936220985127 -9.9635117728694063 #
coedge $-1 $441 $440 $339 $455 reversed $218 $-1 #
edge $-1 $449 -9.9635117728694063 $456 9.9635117728694063 $339 $520 forward 7 unknown #
vertex $-1 $455 $521 #
straight-curve $-1 -54.80530359366503 -40.728003051036083 -9.9635117728694063 0 -1 0 I I #
loop $-1 $-1 $356 $343 #
plane-surface $-1 -59.600207525864434 0 0 1 0 0 0 0 -1 forward_v I I I I #
coedge $-1 $347 $346 $468 $522 reversed $142 $-1 #
coedge $-1 $359 $358 $346 $462 forward $344 $-1 #
edge $-1 $523 -2.3974519660997018 $465 2.3974519660997018 $346 $524 forward 7 unknown #
edge $-1 $464 -2.3974519660997018 $469 2.3974519660997018 $347 $525 forward 7 unknown #
vertex $-1 $351 $526 #
vertex $-1 $362 $527 #
straight-curve $-1 -54.80530359366503 45.712069881087046 0 0 0 -1 I I #
straight-curve $-1 -54.80530359366503 40.72800305103609 9.9635117728694063 0 1 0 I I #
coedge $-1 $472 $352 $460 $522 forward $458 $-1 #
vertex $-1 $463 $528 #
straight-curve $-1 -59.600207525864434 0 9.9635117728694063 0 -1 0 I I #
point $-1 -59.600207525864434 35.743936220985127 9.9635117728694063 #
coedge $-1 $356 $468 $358 $474 reversed $458 $-1 #
straight-curve $-1 -59.600207525864434 35.743936220985127 0 0 0 1 I I #
edge $-1 $360 -4.9840668300509634 $523 4.9840668300509563 $472 $529 forward 7 unknown #
point $-1 -59.600207525864434 35.743936220985127 -9.9635117728694063 #
straight-curve $-1 -54.80530359366503 40.72800305103609 -9.9635117728694063 0 -1 0 I I #
edge $-1 $478 22.050144024503265 $481 29.379094945043715 $366 $530 forward 7 unknown #
vertex $-1 $380 $531 #
straight-curve $-1 -80.887453236123619 3.9871110417052567 9.9635117728694063 -1 0 0 I I #
edge $-1 $481 -4.9115578552879224 $377 6.760451482453254 $376 $532 forward 7 unknown #
vertex $-1 $480 $533 #
straight-curve $-1 -59.600207525864448 3.9871110417052567 2.6345608523289314 0.51503806187062418 0 0.85716730853699208 I I #
point $-1 -55.196529690667127 3.9871110417052567 9.9635117728694063 #
point $-1 -59.600207525864434 -7.6848982960359198 2.634560852328955 #
straight-curve $-1 -59.600207525864434 0 9.9635117728694063 0 -1 0 I I #
vertex $-1 $383 $534 #
point $-1 -55.733954115308237 -5.3504964284876877 5.8822719177787945 #
vertex $-1 $387 $535 #
point $-1 -55.733954115308237 -1.8488936271653316 5.8822719177787945 #
vertex $-1 $391 $536 #
point $-1 -55.733954115308237 1.6527091741570175 5.8822719177787945 #
coedge $-1 $406 $405 $398 $493 forward $395 $-1 #
edge $-1 $494 73.70094226908418 $497 79.166340385392019 $492 $537 forward 7 unknown #
vertex $-1 $410 $538 #
straight-curve $-1 51.615295047724892 18.316997001647515 9.9635117728694098 1 0 0 I I #
edge $-1 $497 7.2937971110148325 $407 14.752602670250532 $406 $539 forward 7 unknown #
vertex $-1 $496 $540 #
straight-curve $-1 1.5969843047969334e-006 18.316997001647515 107.72870215502707 -0.49999998660252726 0 0.86602541151947299 I I #
point $-1 56.444758564919084 18.316997001647515 9.9635117728694098 #
point $-1 59.600207525864434 25.775802560883214 4.4981136565615714 #
straight-curve $-1 59.600207525864434 0 9.9635117728694063 0 1 0 I I #
vertex $-1 $413 $541 #
point $-1 56.639662917505021 20.448084304286283 5.8550909061294254 #
vertex $-1 $417 $542 #
point $-1 56.639662917505021 23.644715258244439 5.8550909061294254 #
straight-curve $-1 -59.600207525864434 35.743936220985127 0 0 0 -1 I I #
straight-curve $-1 0 35.743936220985127 -9.9635117728694063 1 0 0 I I #
point $-1 59.600207525864434 35.743936220985127 -9.9635117728694063 #
straight-curve $-1 -59.600207525864434 0 9.9635117728694063 0 -1 0 I I #
point $-1 -59.600207525864434 35.743936220985127 9.9635117728694063 #
straight-curve $-1 59.600207525864434 35.743936220985127 0 0 0 -1 I I #
point $-1 -59.600207525864434 35.743936220985127 -9.9635117728694063 #
edge $-1 $456 -2.3974519660997018 $514 2.3974519660997018 $440 $543 forward 7 unknown #
vertex $-1 $444 $544 #
straight-curve $-1 -59.600207525864434 -45.712069881087039 0 0 0 -1 I I #
straight-curve $-1 -59.600207525864434 0 -9.9635117728694063 0 1 0 I I #
straight-curve $-1 -57.202755559764732 -45.712069881087039 9.9635117728694063 1 0 0 I I #
point $-1 -59.600207525864434 -45.712069881087039 9.9635117728694063 #
point $-1 -54.80530359366503 -45.712069881087039 9.9635117728694063 #
straight-curve $-1 -54.80530359366503 -45.712069881087039 0 0 0 -1 I I #
point $-1 -54.80530359366503 -45.712069881087039 -9.9635117728694063 #
edge $-1 $469 -9.9635117728694063 $523 9.9635117728694063 $460 $545 forward 7 unknown #
vertex $-1 $462 $546 #
straight-curve $-1 -57.202755559764732 45.712069881087046 -9.9635117728694063 1 0 0 I I #
straight-curve $-1 -57.202755559764732 45.712069881087046 9.9635117728694063 -1 0 0 I I #
point $-1 -54.80530359366503 45.712069881087046 9.9635117728694063 #
point $-1 -54.80530359366503 45.712069881087046 -9.9635117728694063 #
point $-1 -59.600207525864434 45.712069881087046 9.9635117728694063 #
straight-curve $-1 -59.600207525864434 40.72800305103609 -9.9635117728694063 0 1 0 I I #
straight-curve $-1 -59.600207525864434 3.9871110417052567 32.013655797372671 0 0 -1 I I #
point $-1 -59.600207525864434 3.9871110417052567 9.9635117728694063 #
straight-curve $-1 -59.600207525864434 -0.92444681358266578 2.6345608523289554 0 -1 0 I I #
point $-1 -59.600207525864434 3.9871110417052567 2.634560852328955 #
point $-1 -55.562889491975056 -5.3504964284876877 5.1961692325749871 #
point $-1 -55.562889491975056 -1.8488936271653316 5.1961692325749871 #
point $-1 -55.562889491975056 1.6527091741570175 5.1961692325749871 #
straight-curve $-1 59.600207525864434 18.316997001647515 83.66445404195359 0 0 -1 I I #
point $-1 59.600207525864434 18.316997001647515 9.9635117728694063 #
straight-curve $-1 59.600207525864434 11.023199890632682 4.4981136565615785 0 1 0 I I #
point $-1 59.600207525864434 18.316997001647515 4.4981136565615714 #
point $-1 55.956650218444018 20.448084304286283 6.0381036185878978 #
point $-1 55.956650218444018 23.644715258244439 6.0381036185878978 #
straight-curve $-1 -57.202755559764732 -45.712069881087039 -9.9635117728694063 -1 0 0 I I #
point $-1 -59.600207525864434 -45.712069881087039 -9.9635117728694063 #
straight-curve $-1 -59.600207525864434 45.712069881087046 0 0 0 -1 I I #
point $-1 -59.600207525864434 45.712069881087046 -9.9635117728694063 #
End-of-ACIS-data 