500 0 13 0           
7 Unknown 11 ACIS 5.0 NT 24 Thu Mar 25 21:39:17 1999 
-1 9.9999999999999995e-007 1e-010 
body $-1 $13 $-1 $14 #
body $-1 $15 $-1 $16 #
body $-1 $17 $-1 $18 #
body $-1 $19 $-1 $20 #
body $-1 $21 $-1 $22 #
body $-1 $23 $-1 $24 #
body $-1 $25 $-1 $26 #
body $-1 $27 $-1 $28 #
body $-1 $29 $-1 $30 #
body $-1 $31 $-1 $32 #
body $-1 $33 $-1 $34 #
body $-1 $35 $-1 $36 #
body $-1 $37 $-1 $38 #
lump $-1 $-1 $39 $0 #
transform $-1 1 0 0 0 1 0 0 0 1 62.719199194311344 30.865571296974032 14.522558848832912 1 rotate no_reflect no_shear #
lump $-1 $-1 $40 $1 #
transform $-1 1 0 0 0 1 0 0 0 1 62.719199194311344 30.865571296974032 14.522558848832912 1 rotate no_reflect no_shear #
lump $-1 $-1 $41 $2 #
transform $-1 1 0 0 0 1 0 0 0 1 62.719199194311344 30.865571296974032 14.522558848832912 1 rotate no_reflect no_shear #
lump $-1 $-1 $42 $3 #
transform $-1 1 0 0 0 1 0 0 0 1 62.719199194311344 30.865571296974032 14.522558848832912 1 rotate no_reflect no_shear #
lump $-1 $-1 $43 $4 #
transform $-1 1 0 0 0 1 0 0 0 1 62.719199194311344 30.865571296974032 14.522558848832912 1 rotate no_reflect no_shear #
lump $-1 $-1 $44 $5 #
transform $-1 1 0 0 0 1 0 0 0 1 62.719199194311344 30.865571296974032 14.522558848832912 1 rotate no_reflect no_shear #
lump $-1 $-1 $45 $6 #
transform $-1 1 0 0 0 1 0 0 0 1 62.719199194311344 30.865571296974032 14.522558848832912 1 rotate no_reflect no_shear #
lump $-1 $-1 $46 $7 #
transform $-1 1 0 0 0 1 0 0 0 1 62.719199194311344 30.865571296974032 14.522558848832912 1 rotate no_reflect no_shear #
lump $-1 $-1 $47 $8 #
transform $-1 1 0 0 0 1 0 0 0 1 62.719199194311344 30.865571296974032 14.522558848832912 1 rotate no_reflect no_shear #
lump $-1 $-1 $48 $9 #
transform $-1 1 0 0 0 1 0 0 0 1 62.719199194311344 30.865571296974032 14.522558848832912 1 rotate no_reflect no_shear #
lump $-1 $-1 $49 $10 #
transform $-1 1 0 0 0 1 0 0 0 1 62.719199194311344 30.865571296974032 14.522558848832912 1 rotate no_reflect no_shear #
lump $-1 $-1 $50 $11 #
transform $-1 1 0 0 0 1 0 0 0 1 62.719199194311344 30.865571296974032 14.522558848832912 1 rotate no_reflect no_shear #
lump $-1 $-1 $51 $12 #
transform $-1 1 0 0 0 1 0 0 0 1 62.719199194311344 30.865571296974032 14.522558848832912 1 rotate no_reflect no_shear #
shell $-1 $-1 $-1 $52 $-1 $13 #
shell $-1 $-1 $-1 $53 $-1 $15 #
shell $-1 $-1 $-1 $54 $-1 $17 #
shell $-1 $-1 $-1 $55 $-1 $19 #
shell $-1 $-1 $-1 $56 $-1 $21 #
shell $-1 $-1 $-1 $57 $-1 $23 #
shell $-1 $-1 $-1 $58 $-1 $25 #
shell $-1 $-1 $-1 $59 $-1 $27 #
shell $-1 $-1 $-1 $60 $-1 $29 #
shell $-1 $-1 $-1 $61 $-1 $31 #
shell $-1 $-1 $-1 $62 $-1 $33 #
shell $-1 $-1 $-1 $63 $-1 $35 #
shell $-1 $-1 $-1 $64 $-1 $37 #
face $-1 $65 $66 $39 $-1 $67 forward single #
face $-1 $68 $69 $40 $-1 $70 forward single #
face $-1 $71 $72 $41 $-1 $73 forward single #
face $-1 $74 $75 $42 $-1 $76 reversed single #
face $-1 $77 $78 $43 $-1 $79 forward single #
face $-1 $80 $81 $44 $-1 $82 forward single #
face $-1 $83 $84 $45 $-1 $85 forward single #
face $-1 $86 $87 $46 $-1 $88 reversed single #
face $-1 $89 $90 $47 $-1 $91 forward single #
face $-1 $92 $93 $48 $-1 $94 reversed single #
face $-1 $95 $96 $49 $-1 $97 forward single #
face $-1 $98 $99 $50 $-1 $100 reversed single #
face $-1 $101 $102 $51 $-1 $103 forward single #
face $-1 $104 $105 $39 $-1 $106 reversed single #
loop $-1 $-1 $107 $52 #
plane-surface $-1 0 0 14.522558848832912 0 0 1 1 0 0 forward_v I I I I #
face $-1 $108 $109 $40 $-1 $110 reversed single #
loop $-1 $-1 $111 $53 #
plane-surface $-1 0 -23.080390351562677 -3.7067074220642766 0 0 1 1 0 0 forward_v I I I I #
face $-1 $112 $113 $41 $-1 $114 reversed single #
loop $-1 $-1 $115 $54 #
plane-surface $-1 0 23.080390351562677 -3.7067074220642766 0 0 1 1 0 0 forward_v I I I I #
face $-1 $116 $117 $42 $-1 $118 reversed single #
loop $-1 $-1 $119 $55 #
plane-surface $-1 99.602046311002013 7.4730187197326394 182.66026167514994 0 1 0 0.83867057594974714 0 0.54463902268945019 forward_v I I I I #
face $-1 $120 $121 $43 $-1 $122 forward single #
loop $-1 $123 $124 $56 #
cone-surface $-1 60.552166005580268 9.0374568570163802 11.559020486192018 -0.83867057594974714 0 -0.54463902268945019 0.13615975567236255 0 -0.20966764398743679 1 I I 0 1 0.25 forward I I I I #
face $-1 $125 $126 $44 $-1 $127 forward single #
loop $-1 $128 $129 $57 #
cone-surface $-1 60.552166005580268 11.384114062941983 11.559020486192018 -0.83867057594974714 0 -0.54463902268945019 0.13615975567236255 0 -0.20966764398743679 1 I I 0 1 0.25 forward I I I I #
face $-1 $130 $131 $45 $-1 $132 forward single #
loop $-1 $133 $134 $58 #
cone-surface $-1 60.552166005580268 13.730771268867585 11.559020486192018 -0.83867057594974714 0 -0.54463902268945019 0.13615975567236255 0 -0.20966764398743679 1 I I 0 1 0.25 forward I I I I #
face $-1 $135 $136 $46 $-1 $137 reversed single #
loop $-1 $-1 $138 $59 #
plane-surface $-1 -141.66014210115884 -7.1026101853087216 105.04057917145957 0 -1 0 0.62932039886446345 0 -0.77714595512881146 forward_v I I I I #
face $-1 $139 $140 $47 $-1 $141 forward single #
loop $-1 $142 $143 $60 #
cone-surface $-1 -57.680582705477853 -10.181559128639023 10.128839478780943 0.62932039886446345 0 -0.77714595512881146 0.77714595512881146 0 0.62932039886446345 1 I I 0 1 1 forward I I I I #
face $-1 $144 $145 $48 $-1 $146 reversed single #
loop $-1 $-1 $147 $61 #
plane-surface $-1 -141.66014210115884 3.078948943330305 105.04057917145957 0 -1 0 0.62932039886446345 0 -0.77714595512881146 forward_v I I I I #
face $-1 $148 $149 $49 $-1 $150 forward single #
loop $-1 $151 $152 $62 #
cone-surface $-1 -57.680582705477853 3.5527136788005009e-015 10.128839478780943 0.62932039886446345 0 -0.77714595512881146 0.77714595512881146 0 0.62932039886446345 1 I I 0 1 1 forward I I I I #
face $-1 $153 $154 $50 $-1 $155 reversed single #
loop $-1 $-1 $156 $63 #
plane-surface $-1 -141.66014210115884 13.260508071969332 105.04057917145957 0 -1 0 0.62932039886446345 0 -0.77714595512881146 forward_v I I I I #
face $-1 $157 $158 $51 $-1 $159 forward single #
loop $-1 $160 $161 $64 #
cone-surface $-1 -57.680582705477853 10.18155912863903 10.128839478780943 0.62932039886446345 0 -0.77714595512881146 0.77714595512881146 0 0.62932039886446345 1 I I 0 1 1 forward I I I I #
face $-1 $162 $163 $39 $-1 $164 reversed single #
loop $-1 $-1 $165 $65 #
plane-surface $-1 0 0 -14.522558848832912 0 0 1 1 0 0 forward_v I I I I #
coedge $-1 $166 $167 $168 $169 forward $66 $-1 #
face $-1 $170 $171 $40 $-1 $172 reversed single #
loop $-1 $-1 $173 $68 #
plane-surface $-1 0 -23.080390351562677 -12.339756367432379 0 0 1 1 0 0 forward_v I I I I #
coedge $-1 $174 $175 $176 $177 reversed $69 $-1 #
face $-1 $178 $179 $41 $-1 $180 reversed single #
loop $-1 $-1 $181 $71 #
plane-surface $-1 0 23.080390351562677 -12.339756367432379 0 0 1 1 0 0 forward_v I I I I #
coedge $-1 $182 $183 $184 $185 reversed $72 $-1 #
face $-1 $186 $187 $42 $-1 $188 reversed single #
loop $-1 $-1 $189 $74 #
plane-surface $-1 -5.5994475117980045 11.384114062941983 114.34161496904058 0.83867057594974714 0 0.54463902268945019 0.54463902268945019 0 -0.83867057594974714 forward_v I I I I #
coedge $-1 $190 $191 $192 $193 reversed $75 $-1 #
face $-1 $-1 $194 $43 $-1 $195 forward single #
loop $-1 $196 $197 $77 #
cone-surface $-1 60.027996895611679 9.0374568570163802 11.218621097011113 -0.83867057594974714 0 -0.54463902268945019 0.068079877836181274 0 -0.10483382199371839 1 I I -0.70710678118654746 0.70710678118654746 0.125 forward I I I I #
loop $-1 $-1 $198 $56 #
coedge $-1 $124 $124 $199 $200 reversed $78 $-1 #
face $-1 $-1 $201 $44 $-1 $202 forward single #
loop $-1 $203 $204 $80 #
cone-surface $-1 60.027996895611679 11.384114062941983 11.218621097011113 -0.83867057594974714 0 -0.54463902268945019 0.068079877836181274 0 -0.10483382199371839 1 I I -0.70710678118654746 0.70710678118654746 0.125 forward I I I I #
loop $-1 $-1 $205 $57 #
coedge $-1 $129 $129 $206 $207 reversed $81 $-1 #
face $-1 $-1 $208 $45 $-1 $209 forward single #
loop $-1 $210 $211 $83 #
cone-surface $-1 60.027996895611679 13.730771268867585 11.218621097011113 -0.83867057594974714 0 -0.54463902268945019 0.068079877836181274 0 -0.10483382199371839 1 I I -0.70710678118654746 0.70710678118654746 0.125 forward I I I I #
loop $-1 $-1 $212 $58 #
coedge $-1 $134 $134 $213 $214 reversed $84 $-1 #
face $-1 $215 $216 $46 $-1 $217 reversed single #
loop $-1 $-1 $218 $86 #
plane-surface $-1 -62.719199194311344 -10.181559128639023 7.5566352459050279 -0.62932039886446345 0 0.77714595512881146 0.77714595512881146 0 0.62932039886446345 forward_v I I I I #
coedge $-1 $219 $220 $221 $222 reversed $87 $-1 #
face $-1 $-1 $223 $47 $-1 $224 forward single #
loop $-1 $225 $226 $89 #
cone-surface $-1 -56.628405553727902 -10.181559128639023 8.8295089326285101 0.62932039886446345 0 -0.77714595512881146 0.38857297756440573 0 0.31466019943223172 1 I I -0.70710678118654746 0.70710678118654746 0.5 forward I I I I #
loop $-1 $-1 $227 $60 #
coedge $-1 $143 $143 $228 $229 reversed $90 $-1 #
face $-1 $230 $231 $48 $-1 $232 reversed single #
loop $-1 $-1 $233 $92 #
plane-surface $-1 -62.719199194311344 3.5527136788005009e-015 7.5566352459050279 -0.62932039886446345 0 0.77714595512881146 0.77714595512881146 0 0.62932039886446345 forward_v I I I I #
coedge $-1 $234 $235 $236 $237 reversed $93 $-1 #
face $-1 $-1 $238 $49 $-1 $239 forward single #
loop $-1 $240 $241 $95 #
cone-surface $-1 -56.628405553727902 3.5527136788005009e-015 8.8295089326285101 0.62932039886446345 0 -0.77714595512881146 0.38857297756440573 0 0.31466019943223172 1 I I -0.70710678118654746 0.70710678118654746 0.5 forward I I I I #
loop $-1 $-1 $242 $62 #
coedge $-1 $152 $152 $243 $244 reversed $96 $-1 #
face $-1 $245 $246 $50 $-1 $247 reversed single #
loop $-1 $-1 $248 $98 #
plane-surface $-1 -62.719199194311344 10.18155912863903 7.5566352459050279 -0.62932039886446345 0 0.77714595512881146 0.77714595512881146 0 0.62932039886446345 forward_v I I I I #
coedge $-1 $249 $250 $251 $252 reversed $99 $-1 #
face $-1 $-1 $253 $51 $-1 $254 forward single #
loop $-1 $255 $256 $101 #
cone-surface $-1 -56.628405553727902 10.18155912863903 8.8295089326285101 0.62932039886446345 0 -0.77714595512881146 0.38857297756440573 0 0.31466019943223172 1 I I -0.70710678118654746 0.70710678118654746 0.5 forward I I I I #
loop $-1 $-1 $257 $64 #
coedge $-1 $161 $161 $258 $259 reversed $102 $-1 #
face $-1 $260 $261 $39 $-1 $262 reversed single #
loop $-1 $-1 $263 $104 #
plane-surface $-1 0 -30.865571296974032 0 0 1 0 0 0 1 forward_v I I I I #
coedge $-1 $264 $265 $266 $267 forward $105 $-1 #
coedge $-1 $268 $107 $269 $270 forward $66 $-1 #
coedge $-1 $107 $268 $271 $272 forward $66 $-1 #
coedge $-1 $273 $274 $107 $169 reversed $275 $-1 #
edge $-1 $276 -30.865571296974032 $277 30.865571296974032 $168 $278 forward 7 unknown #
face $-1 $279 $280 $40 $-1 $281 reversed single #
loop $-1 $-1 $282 $108 #
plane-surface $-1 0 -15.29520940615132 -8.0232318947483279 0 -1 0 0 0 -1 forward_v I I I I #
coedge $-1 $283 $284 $285 $286 reversed $109 $-1 #
coedge $-1 $287 $111 $288 $289 forward $69 $-1 #
coedge $-1 $111 $287 $290 $291 reversed $69 $-1 #
coedge $-1 $292 $293 $111 $177 forward $294 $-1 #
edge $-1 $295 3.7550142303699818 $296 19.325376121192694 $176 $297 forward 7 unknown #
face $-1 $298 $299 $41 $-1 $300 reversed single #
loop $-1 $-1 $301 $112 #
plane-surface $-1 0 15.295209406151322 -8.0232318947483279 0 1 0 0 0 1 forward_v I I I I #
coedge $-1 $302 $303 $304 $305 reversed $113 $-1 #
coedge $-1 $306 $115 $307 $308 reversed $72 $-1 #
coedge $-1 $115 $306 $309 $310 forward $72 $-1 #
coedge $-1 $311 $312 $115 $185 forward $299 $-1 #
edge $-1 $313 -19.325376121192694 $314 -3.7550142303699836 $184 $315 forward 7 unknown #
face $-1 $316 $317 $42 $-1 $318 forward single #
loop $-1 $-1 $319 $116 #
plane-surface $-1 99.602046311002013 15.295209406151326 182.66026167514994 0 -1 0 -0.83867057594974714 0 -0.54463902268945019 forward_v I I I I #
coedge $-1 $320 $321 $322 $323 reversed $117 $-1 #
coedge $-1 $191 $119 $324 $325 reversed $75 $-1 #
coedge $-1 $119 $190 $320 $326 reversed $75 $-1 #
coedge $-1 $322 $327 $119 $193 forward $328 $-1 #
edge $-1 $329 76.807571988742055 $330 82.190009691334396 $192 $331 forward 7 unknown #
loop $-1 $-1 $199 $120 #
plane-surface $-1 -5.5994475117980045 11.384114062941983 114.34161496904058 0.83867057594974714 0 0.54463902268945019 0.54463902268945019 0 -0.83867057594974714 forward_v I I I I #
loop $-1 $-1 $332 $77 #
coedge $-1 $197 $197 $198 $333 reversed $121 $-1 #
coedge $-1 $198 $198 $197 $333 forward $123 $-1 #
coedge $-1 $199 $199 $124 $200 forward $194 $-1 #
edge $-1 $334 0 $334 6.2831853071796004 $199 $335 forward 7 unknown #
loop $-1 $-1 $206 $125 #
plane-surface $-1 -5.5994475117980045 11.384114062941983 114.34161496904058 0.83867057594974714 0 0.54463902268945019 0.54463902268945019 0 -0.83867057594974714 forward_v I I I I #
loop $-1 $-1 $336 $80 #
coedge $-1 $204 $204 $205 $337 reversed $126 $-1 #
coedge $-1 $205 $205 $204 $337 forward $128 $-1 #
coedge $-1 $206 $206 $129 $207 forward $201 $-1 #
edge $-1 $338 0 $338 6.2831853071796004 $206 $339 forward 7 unknown #
loop $-1 $-1 $213 $130 #
plane-surface $-1 -5.5994475117980045 11.384114062941983 114.34161496904058 0.83867057594974714 0 0.54463902268945019 0.54463902268945019 0 -0.83867057594974714 forward_v I I I I #
loop $-1 $-1 $340 $83 #
coedge $-1 $211 $211 $212 $341 reversed $131 $-1 #
coedge $-1 $212 $212 $211 $341 forward $133 $-1 #
coedge $-1 $213 $213 $134 $214 forward $208 $-1 #
edge $-1 $342 0 $342 6.2831853071796004 $213 $343 forward 7 unknown #
face $-1 $344 $345 $46 $-1 $346 reversed single #
loop $-1 $-1 $347 $135 #
plane-surface $-1 -141.66014210115884 -13.260508071969324 105.04057917145957 0 1 0 -0.62932039886446345 0 0.77714595512881146 forward_v I I I I #
coedge $-1 $348 $349 $350 $351 reversed $136 $-1 #
coedge $-1 $220 $138 $352 $353 reversed $87 $-1 #
coedge $-1 $138 $219 $348 $354 reversed $87 $-1 #
coedge $-1 $350 $355 $138 $222 forward $345 $-1 #
edge $-1 $356 37.99773073689687 $357 44.963654339824757 $221 $358 forward 7 unknown #
loop $-1 $-1 $228 $139 #
plane-surface $-1 -62.719199194311344 -10.181559128639023 7.5566352459050279 -0.62932039886446345 0 0.77714595512881146 0.77714595512881146 0 0.62932039886446345 forward_v I I I I #
loop $-1 $-1 $359 $89 #
coedge $-1 $226 $226 $227 $360 reversed $140 $-1 #
coedge $-1 $227 $227 $226 $360 forward $142 $-1 #
coedge $-1 $228 $228 $143 $229 forward $223 $-1 #
edge $-1 $361 0 $361 6.2831853071796004 $228 $362 forward 7 unknown #
face $-1 $363 $364 $48 $-1 $365 reversed single #
loop $-1 $-1 $366 $144 #
plane-surface $-1 -141.66014210115884 -3.0789489433302979 105.04057917145957 0 1 0 -0.62932039886446345 0 0.77714595512881146 forward_v I I I I #
coedge $-1 $367 $368 $369 $370 reversed $145 $-1 #
coedge $-1 $235 $147 $371 $372 reversed $93 $-1 #
coedge $-1 $147 $234 $367 $373 reversed $93 $-1 #
coedge $-1 $369 $374 $147 $237 forward $364 $-1 #
edge $-1 $375 37.99773073689687 $376 44.963654339824757 $236 $377 forward 7 unknown #
loop $-1 $-1 $243 $148 #
plane-surface $-1 -62.719199194311344 3.5527136788005009e-015 7.5566352459050279 -0.62932039886446345 0 0.77714595512881146 0.77714595512881146 0 0.62932039886446345 forward_v I I I I #
loop $-1 $-1 $378 $95 #
coedge $-1 $241 $241 $242 $379 reversed $149 $-1 #
coedge $-1 $242 $242 $241 $379 forward $151 $-1 #
coedge $-1 $243 $243 $152 $244 forward $238 $-1 #
edge $-1 $380 0 $380 6.2831853071796004 $243 $381 forward 7 unknown #
face $-1 $382 $383 $50 $-1 $384 forward single #
loop $-1 $-1 $385 $153 #
plane-surface $-1 -141.66014210115884 7.1026101853087287 105.04057917145957 0 1 0 -0.62932039886446345 0 0.77714595512881146 forward_v I I I I #
coedge $-1 $386 $387 $388 $389 reversed $154 $-1 #
coedge $-1 $250 $156 $390 $391 reversed $99 $-1 #
coedge $-1 $156 $249 $386 $392 reversed $99 $-1 #
coedge $-1 $388 $393 $156 $252 forward $394 $-1 #
edge $-1 $395 37.99773073689687 $396 44.963654339824757 $251 $397 forward 7 unknown #
loop $-1 $-1 $258 $157 #
plane-surface $-1 -62.719199194311344 10.18155912863903 7.5566352459050279 -0.62932039886446345 0 0.77714595512881146 0.77714595512881146 0 0.62932039886446345 forward_v I I I I #
loop $-1 $-1 $398 $101 #
coedge $-1 $256 $256 $257 $399 reversed $158 $-1 #
coedge $-1 $257 $257 $256 $399 forward $160 $-1 #
coedge $-1 $258 $258 $161 $259 forward $253 $-1 #
edge $-1 $400 0 $400 6.2831853071796004 $258 $401 forward 7 unknown #
face $-1 $402 $403 $39 $-1 $404 reversed single #
loop $-1 $-1 $405 $162 #
plane-surface $-1 -62.719199194311344 0 0 1 0 0 0 0 -1 forward_v I I I I #
coedge $-1 $406 $271 $407 $408 forward $163 $-1 #
coedge $-1 $409 $165 $406 $410 forward $105 $-1 #
coedge $-1 $165 $409 $411 $412 forward $105 $-1 #
coedge $-1 $274 $273 $165 $267 reversed $275 $-1 #
edge $-1 $413 -30.865571296974032 $414 30.865571296974032 $266 $415 forward 7 unknown #
coedge $-1 $167 $166 $416 $417 forward $66 $-1 #
coedge $-1 $418 $419 $166 $270 reversed $403 $-1 #
edge $-1 $277 -62.719199194311344 $420 62.719199194311344 $269 $421 forward 7 unknown #
coedge $-1 $263 $422 $167 $272 reversed $163 $-1 #
edge $-1 $423 -62.719199194311344 $276 62.719199194311344 $271 $424 forward 7 unknown #
coedge $-1 $266 $168 $422 $425 forward $275 $-1 #
coedge $-1 $168 $266 $418 $426 reversed $275 $-1 #
loop $-1 $-1 $273 $402 #
vertex $-1 $169 $427 #
vertex $-1 $169 $428 #
straight-curve $-1 62.719199194311344 0 14.522558848832912 0 1 0 I I #
face $-1 $429 $430 $40 $-1 $431 reversed single #
loop $-1 $-1 $432 $170 #
plane-surface $-1 -62.719199194311344 0 0 1 0 0 0 0 -1 forward_v I I I I #
coedge $-1 $433 $288 $293 $434 reversed $171 $-1 #
coedge $-1 $435 $173 $436 $437 reversed $109 $-1 #
coedge $-1 $173 $435 $433 $438 forward $109 $-1 #
coedge $-1 $293 $292 $173 $286 forward $294 $-1 #
edge $-1 $439 -19.325376121192694 $440 -3.7550142303699818 $285 $441 forward 7 unknown #
coedge $-1 $175 $174 $432 $442 reversed $69 $-1 #
coedge $-1 $282 $443 $174 $289 reversed $171 $-1 #
edge $-1 $295 -62.719199194311344 $444 62.719199194311344 $288 $445 forward 7 unknown #
coedge $-1 $446 $447 $175 $291 forward $430 $-1 #
edge $-1 $296 -62.719199194311344 $448 62.719199194311344 $290 $449 forward 7 unknown #
coedge $-1 $285 $176 $447 $450 forward $294 $-1 #
coedge $-1 $176 $285 $282 $434 forward $294 $-1 #
loop $-1 $-1 $176 $429 #
vertex $-1 $177 $451 #
vertex $-1 $450 $452 #
straight-curve $-1 62.719199194311344 -11.540195175781339 -3.7067074220642766 0 -1 0 I I #
face $-1 $453 $454 $41 $-1 $455 reversed single #
loop $-1 $-1 $184 $178 #
plane-surface $-1 62.719199194311344 0 0 -1 0 0 0 0 1 forward_v I I I I #
coedge $-1 $456 $309 $457 $458 reversed $179 $-1 #
coedge $-1 $459 $181 $456 $460 forward $113 $-1 #
coedge $-1 $181 $459 $461 $462 reversed $113 $-1 #
coedge $-1 $312 $311 $181 $305 forward $299 $-1 #
edge $-1 $463 3.7550142303699836 $464 19.325376121192694 $304 $465 forward 7 unknown #
coedge $-1 $183 $182 $466 $467 reversed $72 $-1 #
coedge $-1 $468 $469 $182 $308 forward $470 $-1 #
edge $-1 $471 -62.719199194311344 $313 62.719199194311344 $307 $472 forward 7 unknown #
coedge $-1 $301 $473 $183 $310 reversed $179 $-1 #
edge $-1 $474 -62.719199194311344 $314 62.719199194311344 $309 $475 forward 7 unknown #
coedge $-1 $304 $184 $473 $476 forward $299 $-1 #
coedge $-1 $184 $304 $468 $477 reversed $299 $-1 #
vertex $-1 $477 $478 #
vertex $-1 $185 $479 #
straight-curve $-1 62.719199194311344 11.540195175781339 -3.7067074220642766 0 -1 0 I I #
face $-1 $-1 $328 $42 $-1 $480 reversed single #
loop $-1 $-1 $481 $186 #
plane-surface $-1 0 0 14.522558848832912 0 0 1 1 0 0 forward_v I I I I #
coedge $-1 $482 $483 $484 $485 reversed $187 $-1 #
coedge $-1 $486 $189 $191 $326 forward $117 $-1 #
coedge $-1 $189 $486 $482 $487 forward $117 $-1 #
coedge $-1 $484 $192 $189 $323 forward $328 $-1 #
edge $-1 $330 1.7809616882616481 $488 9.6031523746803344 $322 $489 forward 7 unknown #
coedge $-1 $490 $491 $190 $325 forward $317 $-1 #
edge $-1 $492 9.4227802372979355 $329 12.918176038810337 $324 $493 forward 7 unknown #
edge $-1 $330 -125.43839838862267 $492 -119.02057730732739 $191 $494 forward 7 unknown #
coedge $-1 $192 $484 $490 $495 reversed $328 $-1 #
loop $-1 $-1 $484 $316 #
vertex $-1 $495 $496 #
vertex $-1 $193 $497 #
straight-curve $-1 62.719199194311344 7.4730187197326394 91.33013083757497 0 0 -1 I I #
coedge $-1 $332 $332 $-1 $498 reversed $196 $-1 #
edge $-1 $499 0 $499 6.2831853071796004 $197 $500 forward 7 unknown #
vertex $-1 $200 $501 #
ellipse-curve $-1 60.971501293555143 9.0374568570163802 11.831339997536743 0.83867057594974714 0 0.54463902268945019 0.13615975567236255 0 -0.20966764398743679 1 I I #
coedge $-1 $336 $336 $-1 $502 reversed $203 $-1 #
edge $-1 $503 0 $503 6.2831853071796004 $204 $504 forward 7 unknown #
vertex $-1 $207 $505 #
ellipse-curve $-1 60.971501293555143 11.384114062941983 11.831339997536743 0.83867057594974714 0 0.54463902268945019 0.13615975567236255 0 -0.20966764398743679 1 I I #
coedge $-1 $340 $340 $-1 $506 reversed $210 $-1 #
edge $-1 $507 0 $507 6.2831853071796004 $211 $508 forward 7 unknown #
vertex $-1 $214 $509 #
ellipse-curve $-1 60.971501293555143 13.730771268867585 11.831339997536743 0.83867057594974714 0 0.54463902268945019 0.13615975567236255 0 -0.20966764398743679 1 I I #
face $-1 $-1 $510 $46 $-1 $511 forward single #
loop $-1 $-1 $221 $215 #
plane-surface $-1 -62.719199194311344 0 0 1 0 0 0 0 -1 forward_v I I I I #
coedge $-1 $512 $513 $514 $515 reversed $216 $-1 #
coedge $-1 $516 $218 $220 $354 forward $136 $-1 #
coedge $-1 $218 $516 $512 $517 forward $136 $-1 #
coedge $-1 $514 $221 $218 $351 forward $345 $-1 #
edge $-1 $357 2.0118306209892101 $518 8.169728507649813 $350 $519 forward 7 unknown #
coedge $-1 $520 $521 $219 $353 forward $510 $-1 #
edge $-1 $522 -16.713070929299612 $356 -8.1108718562680764 $352 $523 forward 7 unknown #
edge $-1 $357 0 $522 11.068962035073225 $220 $524 forward 7 unknown #
coedge $-1 $221 $514 $520 $525 reversed $345 $-1 #
vertex $-1 $525 $526 #
vertex $-1 $222 $527 #
straight-curve $-1 -62.719199194311344 -7.1026101853087216 52.520289585729785 0 0 -1 I I #
coedge $-1 $359 $359 $-1 $528 reversed $225 $-1 #
edge $-1 $529 0 $529 6.2831853071796004 $226 $530 forward 7 unknown #
vertex $-1 $229 $531 #
ellipse-curve $-1 -58.418099657795572 -10.181559128639023 11.039597047368972 -0.62932039886446345 0 0.77714595512881146 0.77714595512881146 0 0.62932039886446345 1 I I #
face $-1 $-1 $532 $48 $-1 $533 forward single #
loop $-1 $-1 $236 $230 #
plane-surface $-1 -62.719199194311344 0 0 1 0 0 0 0 -1 forward_v I I I I #
coedge $-1 $534 $535 $536 $537 reversed $231 $-1 #
coedge $-1 $538 $233 $235 $373 forward $145 $-1 #
coedge $-1 $233 $538 $534 $539 forward $145 $-1 #
coedge $-1 $536 $236 $233 $370 forward $364 $-1 #
edge $-1 $376 -3.0789489433303032 $540 3.0789489433302997 $369 $541 forward 7 unknown #
coedge $-1 $542 $543 $234 $372 forward $532 $-1 #
edge $-1 $544 -16.713070929299612 $375 -8.1108718562680764 $371 $545 forward 7 unknown #
edge $-1 $376 0 $544 11.068962035073225 $235 $546 forward 7 unknown #
coedge $-1 $236 $536 $542 $547 reversed $364 $-1 #
vertex $-1 $547 $548 #
vertex $-1 $237 $549 #
straight-curve $-1 -62.719199194311344 3.078948943330305 52.520289585729785 0 0 -1 I I #
coedge $-1 $378 $378 $-1 $550 reversed $240 $-1 #
edge $-1 $551 0 $551 6.2831853071796004 $241 $552 forward 7 unknown #
vertex $-1 $244 $553 #
ellipse-curve $-1 -58.418099657795572 3.5527136788005009e-015 11.039597047368972 -0.62932039886446345 0 0.77714595512881146 0.77714595512881146 0 0.62932039886446345 1 I I #
face $-1 $-1 $394 $50 $-1 $554 reversed single #
loop $-1 $-1 $555 $245 #
plane-surface $-1 0 0 14.522558848832912 0 0 1 1 0 0 forward_v I I I I #
coedge $-1 $556 $557 $558 $559 reversed $246 $-1 #
coedge $-1 $560 $248 $250 $392 forward $154 $-1 #
coedge $-1 $248 $560 $556 $561 forward $154 $-1 #
coedge $-1 $558 $251 $248 $389 forward $394 $-1 #
edge $-1 $396 -8.1697285076498165 $562 -2.0118306209892136 $388 $563 forward 7 unknown #
coedge $-1 $564 $565 $249 $391 forward $383 $-1 #
edge $-1 $566 -16.713070929299612 $395 -8.1108718562680764 $390 $567 forward 7 unknown #
edge $-1 $396 0 $566 11.068962035073225 $250 $568 forward 7 unknown #
coedge $-1 $251 $558 $564 $569 reversed $394 $-1 #
loop $-1 $-1 $558 $382 #
vertex $-1 $569 $570 #
vertex $-1 $252 $571 #
straight-curve $-1 -62.719199194311344 13.260508071969332 52.520289585729785 0 0 -1 I I #
coedge $-1 $398 $398 $-1 $572 reversed $255 $-1 #
edge $-1 $573 0 $573 6.2831853071796004 $256 $574 forward 7 unknown #
vertex $-1 $259 $575 #
ellipse-curve $-1 -58.418099657795572 10.18155912863903 11.039597047368972 -0.62932039886446345 0 0.77714595512881146 0.77714595512881146 0 0.62932039886446345 1 I I #
face $-1 $-1 $275 $39 $-1 $576 reversed single #
loop $-1 $-1 $418 $260 #
plane-surface $-1 0 30.865571296974032 0 0 -1 0 0 0 -1 forward_v I I I I #
coedge $-1 $577 $416 $419 $578 forward $261 $-1 #
coedge $-1 $422 $263 $264 $410 reversed $163 $-1 #
coedge $-1 $416 $577 $263 $408 reversed $261 $-1 #
edge $-1 $423 -14.522558848832912 $579 14.522558848832912 $407 $580 forward 7 unknown #
coedge $-1 $265 $264 $577 $581 forward $105 $-1 #
edge $-1 $414 -62.719199194311344 $579 62.719199194311344 $406 $582 forward 7 unknown #
coedge $-1 $419 $418 $265 $412 reversed $403 $-1 #
edge $-1 $583 -62.719199194311344 $413 62.719199194311344 $411 $584 forward 7 unknown #
vertex $-1 $267 $585 #
vertex $-1 $425 $586 #
straight-curve $-1 62.719199194311344 0 -14.522558848832912 0 -1 0 I I #
coedge $-1 $405 $407 $268 $417 reversed $261 $-1 #
edge $-1 $420 -30.865571296974032 $423 30.865571296974032 $416 $587 forward 7 unknown #
coedge $-1 $411 $269 $274 $426 forward $403 $-1 #
coedge $-1 $269 $411 $405 $578 reversed $403 $-1 #
vertex $-1 $270 $588 #
straight-curve $-1 0 30.865571296974032 14.522558848832912 -1 0 0 I I #
coedge $-1 $271 $406 $273 $425 reversed $163 $-1 #
vertex $-1 $417 $589 #
straight-curve $-1 0 -30.865571296974032 14.522558848832912 1 0 0 I I #
edge $-1 $276 -14.522558848832912 $414 14.522558848832912 $273 $590 forward 7 unknown #
edge $-1 $277 -14.522558848832912 $413 14.522558848832912 $274 $591 forward 7 unknown #
point $-1 62.719199194311344 -30.865571296974032 14.522558848832912 #
point $-1 62.719199194311344 30.865571296974032 14.522558848832912 #
face $-1 $-1 $294 $40 $-1 $592 reversed single #
loop $-1 $-1 $290 $279 #
plane-surface $-1 0 -30.865571296974032 0 0 1 0 0 0 1 forward_v I I I I #
coedge $-1 $593 $594 $287 $442 forward $280 $-1 #
coedge $-1 $443 $282 $284 $438 reversed $171 $-1 #
edge $-1 $440 -8.3281404200582152 $295 0.30490852530988732 $293 $595 forward 7 unknown #
coedge $-1 $284 $283 $596 $597 reversed $109 $-1 #
coedge $-1 $447 $446 $283 $437 forward $430 $-1 #
edge $-1 $598 -62.719199194311344 $439 62.719199194311344 $436 $599 forward 7 unknown #
edge $-1 $600 -62.719199194311344 $440 62.719199194311344 $433 $601 forward 7 unknown #
vertex $-1 $437 $602 #
vertex $-1 $286 $603 #
straight-curve $-1 62.719199194311344 -11.540195175781339 -12.339756367432379 0 1 0 I I #
edge $-1 $448 -19.325376121192694 $444 -3.7550142303699818 $432 $604 forward 7 unknown #
coedge $-1 $288 $433 $593 $605 reversed $171 $-1 #
vertex $-1 $442 $606 #
straight-curve $-1 0 -15.29520940615132 -3.7067074220642766 -1 0 0 I I #
coedge $-1 $436 $290 $594 $607 forward $430 $-1 #
coedge $-1 $290 $436 $292 $450 reversed $430 $-1 #
vertex $-1 $607 $608 #
straight-curve $-1 0 -30.865571296974032 -3.7067074220642766 -1 0 0 I I #
edge $-1 $296 3.7067074220642766 $439 12.339756367432379 $292 $609 forward 7 unknown #
point $-1 62.719199194311344 -15.29520940615132 -3.7067074220642766 #
point $-1 62.719199194311344 -30.865571296974032 -3.7067074220642766 #
face $-1 $-1 $470 $41 $-1 $610 reversed single #
loop $-1 $-1 $466 $298 #
plane-surface $-1 -62.719199194311344 0 0 1 0 0 0 0 -1 forward_v I I I I #
coedge $-1 $473 $301 $302 $460 reversed $179 $-1 #
coedge $-1 $466 $611 $301 $458 forward $454 $-1 #
edge $-1 $612 -8.3281404200582152 $474 0.30490852530988732 $457 $613 forward 7 unknown #
coedge $-1 $303 $302 $611 $614 reversed $113 $-1 #
edge $-1 $463 -62.719199194311344 $612 62.719199194311344 $456 $615 forward 7 unknown #
coedge $-1 $469 $468 $303 $462 forward $470 $-1 #
edge $-1 $464 -62.719199194311344 $616 62.719199194311344 $461 $617 forward 7 unknown #
vertex $-1 $305 $618 #
vertex $-1 $462 $619 #
straight-curve $-1 62.719199194311344 11.540195175781339 -12.339756367432379 0 1 0 I I #
coedge $-1 $620 $457 $306 $467 forward $454 $-1 #
edge $-1 $474 3.7550142303699836 $471 19.325376121192694 $466 $621 forward 7 unknown #
coedge $-1 $461 $307 $312 $477 forward $470 $-1 #
coedge $-1 $307 $461 $620 $622 reversed $470 $-1 #
loop $-1 $-1 $307 $453 #
vertex $-1 $622 $623 #
straight-curve $-1 0 30.865571296974032 -3.7067074220642766 1 0 0 I I #
coedge $-1 $309 $456 $311 $476 reversed $179 $-1 #
vertex $-1 $467 $624 #
straight-curve $-1 0 15.295209406151322 -3.7067074220642766 1 0 0 I I #
edge $-1 $314 -0.30490852530988732 $463 8.3281404200582152 $311 $625 forward 7 unknown #
edge $-1 $313 3.7067074220642766 $464 12.339756367432379 $312 $626 forward 7 unknown #
point $-1 62.719199194311344 30.865571296974032 -3.7067074220642766 #
point $-1 62.719199194311344 15.295209406151322 -3.7067074220642766 #
plane-surface $-1 62.719199194311344 0 0 -1 0 0 0 0 1 forward_v I I I I #
coedge $-1 $491 $490 $483 $627 forward $317 $-1 #
coedge $-1 $483 $319 $321 $487 reversed $187 $-1 #
coedge $-1 $319 $482 $481 $627 reversed $187 $-1 #
coedge $-1 $327 $322 $319 $485 forward $328 $-1 #
edge $-1 $488 -82.190009691334396 $628 -76.807571988742055 $484 $629 forward 7 unknown #
coedge $-1 $321 $320 $491 $630 reversed $117 $-1 #
edge $-1 $631 119.02057730732739 $488 125.43839838862267 $482 $632 forward 7 unknown #
vertex $-1 $323 $633 #
straight-curve $-1 62.719199194311344 5.6920570314709913 9.1401211462405811 0 1 0 I I #
coedge $-1 $481 $324 $327 $495 forward $317 $-1 #
coedge $-1 $324 $481 $486 $630 forward $317 $-1 #
vertex $-1 $325 $634 #
straight-curve $-1 49.801023155501007 7.4730187197326394 14.522558848832915 1 0 0 I I #
straight-curve $-1 -5.5994475117980045 7.4730187197326394 114.34161496904058 -0.54463902268945019 0 0.83867057594974714 I I #
edge $-1 $329 7.4730187197326394 $628 15.295209406151326 $327 $635 forward 7 unknown #
point $-1 62.719199194311344 7.4730187197326394 14.522558848832912 #
point $-1 62.719199194311344 7.4730187197326394 9.140121146240574 #
edge $-1 $636 1 $636 0 $332 $-1 forward 7 unknown #
vertex $-1 $333 $637 #
ellipse-curve $-1 60.132830717605394 9.0374568570163802 11.286700974847294 0.83867057594974714 0 0.54463902268945019 0.13615975567236255 0 -0.20966764398743679 1 I I #
point $-1 61.107661049227509 9.0374568570163802 11.621672353549307 #
edge $-1 $638 1 $638 0 $336 $-1 forward 7 unknown #
vertex $-1 $337 $639 #
ellipse-curve $-1 60.132830717605394 11.384114062941983 11.286700974847294 0.83867057594974714 0 0.54463902268945019 0.13615975567236255 0 -0.20966764398743679 1 I I #
point $-1 61.107661049227509 11.384114062941983 11.621672353549307 #
edge $-1 $640 1 $640 0 $340 $-1 forward 7 unknown #
vertex $-1 $341 $641 #
ellipse-curve $-1 60.132830717605394 13.730771268867585 11.286700974847294 0.83867057594974714 0 0.54463902268945019 0.13615975567236255 0 -0.20966764398743679 1 I I #
point $-1 61.107661049227509 13.730771268867585 11.621672353549307 #
loop $-1 $-1 $352 $344 #
plane-surface $-1 0 0 14.522558848832912 0 0 1 1 0 0 forward_v I I I I #
coedge $-1 $513 $347 $349 $517 reversed $216 $-1 #
coedge $-1 $347 $512 $642 $643 reversed $216 $-1 #
coedge $-1 $355 $350 $347 $515 forward $345 $-1 #
edge $-1 $518 -44.963654339824757 $644 -37.99773073689687 $514 $645 forward 7 unknown #
coedge $-1 $349 $348 $521 $646 reversed $136 $-1 #
edge $-1 $647 -11.068962035073225 $518 0 $512 $648 forward 7 unknown #
vertex $-1 $351 $649 #
straight-curve $-1 -62.719199194311344 -5.0907795643195115 7.5566352459050297 0 -1 0 I I #
coedge $-1 $642 $352 $355 $525 forward $510 $-1 #
coedge $-1 $352 $642 $516 $646 forward $510 $-1 #
vertex $-1 $353 $650 #
straight-curve $-1 -70.83007105057942 -7.1026101853087216 14.522558848832915 -1 0 0 I I #
straight-curve $-1 -62.719199194311344 -7.1026101853087216 7.5566352459050279 0.77714595512881146 0 0.62932039886446345 I I #
edge $-1 $356 7.1026101853087216 $644 13.260508071969324 $355 $651 forward 7 unknown #
point $-1 -62.719199194311344 -7.1026101853087216 14.522558848832912 #
point $-1 -62.719199194311344 -7.1026101853087216 7.5566352459050279 #
edge $-1 $652 1 $652 0 $359 $-1 forward 7 unknown #
vertex $-1 $360 $653 #
ellipse-curve $-1 -56.943065753160134 -10.181559128639023 9.2180819101929163 -0.62932039886446345 0 0.77714595512881146 0.77714595512881146 0 0.62932039886446345 1 I I #
point $-1 -57.640953702666764 -10.181559128639023 11.668917446233436 #
loop $-1 $-1 $371 $363 #
plane-surface $-1 0 0 14.522558848832912 0 0 1 1 0 0 forward_v I I I I #
coedge $-1 $535 $366 $368 $539 reversed $231 $-1 #
coedge $-1 $366 $534 $654 $655 reversed $231 $-1 #
coedge $-1 $374 $369 $366 $537 forward $364 $-1 #
edge $-1 $540 -44.963654339824757 $656 -37.99773073689687 $536 $657 forward 7 unknown #
coedge $-1 $368 $367 $543 $658 reversed $145 $-1 #
edge $-1 $659 -11.068962035073225 $540 0 $534 $660 forward 7 unknown #
vertex $-1 $370 $661 #
straight-curve $-1 -62.719199194311344 1.7763568394002505e-015 7.5566352459050297 0 -1 0 I I #
coedge $-1 $654 $371 $374 $547 forward $532 $-1 #
coedge $-1 $371 $654 $538 $658 forward $532 $-1 #
vertex $-1 $372 $662 #
straight-curve $-1 -70.83007105057942 3.078948943330305 14.522558848832915 -1 0 0 I I #
straight-curve $-1 -62.719199194311344 3.078948943330305 7.5566352459050279 0.77714595512881146 0 0.62932039886446345 I I #
edge $-1 $375 -3.078948943330305 $656 3.0789489433302979 $374 $663 forward 7 unknown #
point $-1 -62.719199194311344 3.078948943330305 14.522558848832912 #
point $-1 -62.719199194311344 3.078948943330305 7.5566352459050279 #
edge $-1 $664 1 $664 0 $378 $-1 forward 7 unknown #
vertex $-1 $379 $665 #
ellipse-curve $-1 -56.943065753160134 3.5527136788005009e-015 9.2180819101929163 -0.62932039886446345 0 0.77714595512881146 0.77714595512881146 0 0.62932039886446345 1 I I #
point $-1 -57.640953702666764 3.5527136788005009e-015 11.668917446233436 #
plane-surface $-1 -62.719199194311344 0 0 1 0 0 0 0 -1 forward_v I I I I #
coedge $-1 $565 $564 $557 $666 forward $383 $-1 #
coedge $-1 $557 $385 $387 $561 reversed $246 $-1 #
coedge $-1 $385 $556 $555 $666 reversed $246 $-1 #
coedge $-1 $393 $388 $385 $559 forward $394 $-1 #
edge $-1 $562 -44.963654339824757 $667 -37.99773073689687 $558 $668 forward 7 unknown #
coedge $-1 $387 $386 $565 $669 reversed $154 $-1 #
edge $-1 $670 -11.068962035073225 $562 0 $556 $671 forward 7 unknown #
vertex $-1 $389 $672 #
straight-curve $-1 -62.719199194311344 5.0907795643195151 7.5566352459050297 0 -1 0 I I #
coedge $-1 $555 $390 $393 $569 forward $383 $-1 #
coedge $-1 $390 $555 $560 $669 forward $383 $-1 #
vertex $-1 $391 $673 #
straight-curve $-1 -70.83007105057942 13.260508071969332 14.522558848832915 -1 0 0 I I #
straight-curve $-1 -62.719199194311344 13.260508071969332 7.5566352459050279 0.77714595512881146 0 0.62932039886446345 I I #
edge $-1 $395 -13.260508071969332 $667 -7.1026101853087287 $393 $674 forward 7 unknown #
point $-1 -62.719199194311344 13.260508071969332 14.522558848832912 #
point $-1 -62.719199194311344 13.260508071969332 7.5566352459050279 #
edge $-1 $675 1 $675 0 $398 $-1 forward 7 unknown #
vertex $-1 $399 $676 #
ellipse-curve $-1 -56.943065753160134 10.18155912863903 9.2180819101929163 -0.62932039886446345 0 0.77714595512881146 0.77714595512881146 0 0.62932039886446345 1 I I #
point $-1 -57.640953702666764 10.18155912863903 11.668917446233436 #
plane-surface $-1 62.719199194311344 0 0 -1 0 0 0 0 1 forward_v I I I I #
coedge $-1 $407 $405 $409 $581 reversed $261 $-1 #
edge $-1 $420 -14.522558848832912 $583 14.522558848832912 $419 $677 forward 7 unknown #
vertex $-1 $581 $678 #
straight-curve $-1 -62.719199194311344 -30.865571296974032 0 0 0 -1 I I #
edge $-1 $579 -30.865571296974032 $583 30.865571296974032 $577 $679 forward 7 unknown #
straight-curve $-1 0 -30.865571296974032 -14.522558848832912 -1 0 0 I I #
vertex $-1 $412 $680 #
straight-curve $-1 0 30.865571296974032 -14.522558848832912 1 0 0 I I #
point $-1 62.719199194311344 30.865571296974032 -14.522558848832912 #
point $-1 62.719199194311344 -30.865571296974032 -14.522558848832912 #
straight-curve $-1 -62.719199194311344 0 14.522558848832912 0 -1 0 I I #
point $-1 -62.719199194311344 30.865571296974032 14.522558848832912 #
point $-1 -62.719199194311344 -30.865571296974032 14.522558848832912 #
straight-curve $-1 62.719199194311344 -30.865571296974032 0 0 0 -1 I I #
straight-curve $-1 62.719199194311344 30.865571296974032 0 0 0 -1 I I #
plane-surface $-1 62.719199194311344 0 0 -1 0 0 0 0 1 forward_v I I I I #
coedge $-1 $596 $432 $443 $605 forward $280 $-1 #
coedge $-1 $432 $596 $446 $607 reversed $280 $-1 #
straight-curve $-1 62.719199194311344 -15.29520940615132 -4.0116159473741639 0 0 1 I I #
coedge $-1 $594 $593 $435 $597 forward $280 $-1 #
edge $-1 $600 3.7550142303699818 $598 19.325376121192694 $596 $681 forward 7 unknown #
vertex $-1 $437 $682 #
straight-curve $-1 0 -30.865571296974032 -12.339756367432379 1 0 0 I I #
vertex $-1 $597 $683 #
straight-curve $-1 0 -15.29520940615132 -12.339756367432379 1 0 0 I I #
point $-1 62.719199194311344 -30.865571296974032 -12.339756367432379 #
point $-1 62.719199194311344 -15.29520940615132 -12.339756367432379 #
straight-curve $-1 -62.719199194311344 -11.540195175781339 -3.7067074220642766 0 1 0 I I #
edge $-1 $444 -0.30490852530988732 $600 8.3281404200582152 $593 $684 forward 7 unknown #
point $-1 -62.719199194311344 -15.29520940615132 -3.7067074220642766 #
edge $-1 $448 3.7067074220642766 $598 12.339756367432379 $594 $685 forward 7 unknown #
point $-1 -62.719199194311344 -30.865571296974032 -3.7067074220642766 #
straight-curve $-1 62.719199194311344 -30.865571296974032 0 0 0 -1 I I #
plane-surface $-1 0 30.865571296974032 0 0 -1 0 0 0 -1 forward_v I I I I #
coedge $-1 $457 $620 $459 $614 forward $454 $-1 #
vertex $-1 $614 $686 #
straight-curve $-1 -62.719199194311344 15.295209406151322 -4.0116159473741639 0 0 1 I I #
edge $-1 $616 -19.325376121192694 $612 -3.7550142303699836 $611 $687 forward 7 unknown #
straight-curve $-1 0 15.295209406151322 -12.339756367432379 -1 0 0 I I #
vertex $-1 $462 $688 #
straight-curve $-1 0 30.865571296974032 -12.339756367432379 -1 0 0 I I #
point $-1 62.719199194311344 15.295209406151322 -12.339756367432379 #
point $-1 62.719199194311344 30.865571296974032 -12.339756367432379 #
coedge $-1 $611 $466 $469 $622 forward $454 $-1 #
straight-curve $-1 -62.719199194311344 11.540195175781339 -3.7067074220642766 0 1 0 I I #
edge $-1 $471 3.7067074220642766 $616 12.339756367432379 $469 $689 forward 7 unknown #
point $-1 -62.719199194311344 30.865571296974032 -3.7067074220642766 #
point $-1 -62.719199194311344 15.295209406151322 -3.7067074220642766 #
straight-curve $-1 62.719199194311344 15.295209406151322 -4.0116159473741639 0 0 -1 I I #
straight-curve $-1 62.719199194311344 30.865571296974032 0 0 0 -1 I I #
edge $-1 $628 -12.918176038810337 $631 -9.4227802372979355 $481 $690 forward 7 unknown #
vertex $-1 $627 $691 #
straight-curve $-1 62.719199194311344 15.295209406151326 91.33013083757497 0 0 1 I I #
edge $-1 $631 -9.6031523746803344 $492 -1.7809616882616481 $491 $692 forward 7 unknown #
vertex $-1 $630 $693 #
straight-curve $-1 -5.5994475117980045 15.295209406151326 114.34161496904058 0.54463902268945019 0 -0.83867057594974714 I I #
point $-1 62.719199194311344 15.295209406151326 9.140121146240574 #
point $-1 59.223803392798942 7.4730187197326394 14.522558848832915 #
straight-curve $-1 62.719199194311344 0 14.522558848832912 0 1 0 I I #
vertex $-1 $498 $694 #
point $-1 60.268990473277761 9.0374568570163802 11.077033330859857 #
vertex $-1 $502 $695 #
point $-1 60.268990473277761 11.384114062941983 11.077033330859857 #
vertex $-1 $506 $696 #
point $-1 60.268990473277761 13.730771268867585 11.077033330859857 #
coedge $-1 $521 $520 $513 $643 forward $510 $-1 #
edge $-1 $644 8.1108718562680764 $647 16.713070929299612 $642 $697 forward 7 unknown #
vertex $-1 $643 $698 #
straight-curve $-1 -62.719199194311344 -13.260508071969324 52.520289585729785 0 0 1 I I #
edge $-1 $647 -8.169728507649813 $522 -2.0118306209892101 $521 $699 forward 7 unknown #
vertex $-1 $646 $700 #
straight-curve $-1 -62.719199194311344 -13.260508071969324 7.5566352459050279 -0.77714595512881146 0 -0.62932039886446345 I I #
point $-1 -62.719199194311344 -13.260508071969324 7.5566352459050279 #
point $-1 -54.117000121279808 -7.1026101853087216 14.522558848832912 #
straight-curve $-1 -62.719199194311344 0 14.522558848832912 0 -1 0 I I #
vertex $-1 $528 $701 #
point $-1 -56.165919798031325 -10.181559128639023 9.8474023090573795 #
coedge $-1 $543 $542 $535 $655 forward $532 $-1 #
edge $-1 $656 8.1108718562680764 $659 16.713070929299612 $654 $702 forward 7 unknown #
vertex $-1 $655 $703 #
straight-curve $-1 -62.719199194311344 -3.0789489433302979 52.520289585729785 0 0 1 I I #
edge $-1 $659 -3.0789489433302997 $544 3.0789489433303032 $543 $704 forward 7 unknown #
vertex $-1 $658 $705 #
straight-curve $-1 -62.719199194311344 -3.0789489433302979 7.5566352459050279 -0.77714595512881146 0 -0.62932039886446345 I I #
point $-1 -62.719199194311344 -3.0789489433302979 7.5566352459050279 #
point $-1 -54.117000121279808 3.078948943330305 14.522558848832912 #
straight-curve $-1 -62.719199194311344 0 14.522558848832912 0 -1 0 I I #
vertex $-1 $550 $706 #
point $-1 -56.165919798031325 3.5527136788005009e-015 9.8474023090573795 #
edge $-1 $667 8.1108718562680764 $670 16.713070929299612 $555 $707 forward 7 unknown #
vertex $-1 $559 $708 #
straight-curve $-1 -62.719199194311344 7.1026101853087287 52.520289585729785 0 0 1 I I #
edge $-1 $670 2.0118306209892136 $566 8.1697285076498165 $565 $709 forward 7 unknown #
vertex $-1 $669 $710 #
straight-curve $-1 -62.719199194311344 7.1026101853087287 7.5566352459050279 -0.77714595512881146 0 -0.62932039886446345 I I #
point $-1 -62.719199194311344 7.1026101853087287 7.5566352459050279 #
point $-1 -54.117000121279808 13.260508071969332 14.522558848832912 #
straight-curve $-1 -62.719199194311344 0 14.522558848832912 0 -1 0 I I #
vertex $-1 $572 $711 #
point $-1 -56.165919798031325 10.18155912863903 9.8474023090573795 #
straight-curve $-1 -62.719199194311344 30.865571296974032 0 0 0 -1 I I #
point $-1 -62.719199194311344 -30.865571296974032 -14.522558848832912 #
straight-curve $-1 -62.719199194311344 0 -14.522558848832912 0 1 0 I I #
point $-1 -62.719199194311344 30.865571296974032 -14.522558848832912 #
straight-curve $-1 -62.719199194311344 -11.540195175781339 -12.339756367432379 0 -1 0 I I #
point $-1 -62.719199194311344 -30.865571296974032 -12.339756367432379 #
point $-1 -62.719199194311344 -15.29520940615132 -12.339756367432379 #
straight-curve $-1 -62.719199194311344 -15.29520940615132 -4.0116159473741639 0 0 -1 I I #
straight-curve $-1 -62.719199194311344 -30.865571296974032 0 0 0 -1 I I #
point $-1 -62.719199194311344 15.295209406151322 -12.339756367432379 #
straight-curve $-1 -62.719199194311344 11.540195175781339 -12.339756367432379 0 -1 0 I I #
point $-1 -62.719199194311344 30.865571296974032 -12.339756367432379 #
straight-curve $-1 -62.719199194311344 30.865571296974032 0 0 0 -1 I I #
straight-curve $-1 49.801023155501007 15.295209406151326 14.522558848832915 -1 0 0 I I #
point $-1 62.719199194311344 15.295209406151326 14.522558848832912 #
straight-curve $-1 59.223803392798935 5.6920570314709913 14.522558848832915 0 -1 0 I I #
point $-1 59.223803392798942 15.295209406151326 14.522558848832915 #
point $-1 59.923163073617964 9.0374568570163802 11.150541219174931 #
point $-1 59.923163073617964 11.384114062941983 11.150541219174931 #
point $-1 59.923163073617964 13.730771268867585 11.150541219174931 #
straight-curve $-1 -70.83007105057942 -13.260508071969324 14.522558848832915 1 0 0 I I #
point $-1 -62.719199194311344 -13.260508071969324 14.522558848832912 #
straight-curve $-1 -54.117000121279816 -5.0907795643195115 14.52255884883291 0 1 0 I I #
point $-1 -54.117000121279808 -13.260508071969324 14.522558848832912 #
point $-1 -56.313745354295669 -10.181559128639023 8.4409359550641039 #
straight-curve $-1 -70.83007105057942 -3.0789489433302979 14.522558848832915 1 0 0 I I #
point $-1 -62.719199194311344 -3.0789489433302979 14.522558848832912 #
straight-curve $-1 -54.117000121279816 1.7763568394002505e-015 14.52255884883291 0 1 0 I I #
point $-1 -54.117000121279808 -3.0789489433302979 14.522558848832912 #
point $-1 -56.313745354295669 3.5527136788005009e-015 8.4409359550641039 #
straight-curve $-1 -70.83007105057942 7.1026101853087287 14.522558848832915 1 0 0 I I #
point $-1 -62.719199194311344 7.1026101853087287 14.522558848832912 #
straight-curve $-1 -54.117000121279816 5.0907795643195151 14.52255884883291 0 1 0 I I #
point $-1 -54.117000121279808 7.1026101853087287 14.522558848832912 #
point $-1 -56.313745354295669 10.18155912863903 8.4409359550641039 #
End-of-ACIS-data 