500 0 8 0           
7 Unknown 11 ACIS 5.0 NT 24 Thu Mar 25 22:17:11 1999 
-1 9.9999999999999995e-007 1e-010 
body $-1 $8 $-1 $9 #
body $-1 $10 $-1 $11 #
body $-1 $12 $-1 $13 #
body $-1 $14 $-1 $15 #
body $-1 $16 $-1 $17 #
body $-1 $18 $-1 $19 #
body $-1 $20 $-1 $21 #
body $-1 $22 $-1 $23 #
lump $-1 $-1 $24 $0 #
transform $-1 1 0 0 0 1 0 0 0 1 65.130161442915124 27.338885662957953 10.439788224321045 1 rotate no_reflect no_shear #
lump $-1 $-1 $25 $1 #
transform $-1 1 0 0 0 1 0 0 0 1 65.130161442915124 27.338885662957953 10.439788224321045 1 rotate no_reflect no_shear #
lump $-1 $-1 $26 $2 #
transform $-1 1 0 0 0 1 0 0 0 1 65.130161442915124 27.338885662957953 10.439788224321045 1 rotate no_reflect no_shear #
lump $-1 $-1 $27 $3 #
transform $-1 1 0 0 0 1 0 0 0 1 65.130161442915124 27.338885662957953 10.439788224321045 1 rotate no_reflect no_shear #
lump $-1 $-1 $28 $4 #
transform $-1 1 0 0 0 1 0 0 0 1 65.130161442915124 27.338885662957953 10.439788224321045 1 rotate no_reflect no_shear #
lump $-1 $-1 $29 $5 #
transform $-1 1 0 0 0 1 0 0 0 1 65.130161442915124 27.338885662957953 10.439788224321045 1 rotate no_reflect no_shear #
lump $-1 $-1 $30 $6 #
transform $-1 1 0 0 0 1 0 0 0 1 65.130161442915124 27.338885662957953 10.439788224321045 1 rotate no_reflect no_shear #
lump $-1 $-1 $31 $7 #
transform $-1 1 0 0 0 1 0 0 0 1 65.130161442915124 27.338885662957953 10.439788224321045 1 rotate no_reflect no_shear #
shell $-1 $-1 $-1 $32 $-1 $8 #
shell $-1 $-1 $-1 $33 $-1 $10 #
shell $-1 $-1 $-1 $34 $-1 $12 #
shell $-1 $-1 $-1 $35 $-1 $14 #
shell $-1 $-1 $-1 $36 $-1 $16 #
shell $-1 $-1 $-1 $37 $-1 $18 #
shell $-1 $-1 $-1 $38 $-1 $20 #
shell $-1 $-1 $-1 $39 $-1 $22 #
face $-1 $40 $41 $24 $-1 $42 forward single #
face $-1 $43 $44 $25 $-1 $45 reversed single #
face $-1 $46 $47 $26 $-1 $48 reversed single #
face $-1 $49 $50 $27 $-1 $51 forward single #
face $-1 $52 $53 $28 $-1 $54 forward single #
face $-1 $55 $56 $29 $-1 $57 reversed single #
face $-1 $58 $59 $30 $-1 $60 forward single #
face $-1 $61 $62 $31 $-1 $63 forward single #
face $-1 $64 $65 $24 $-1 $66 reversed single #
loop $-1 $-1 $67 $32 #
plane-surface $-1 0 0 10.439788224321045 0 0 1 1 0 0 forward_v I I I I #
face $-1 $68 $69 $25 $-1 $70 reversed single #
loop $-1 $-1 $71 $33 #
plane-surface $-1 -60.457624213463937 -26.545498897116538 0 0 1 0 0 0 1 forward_v I I I I #
face $-1 $72 $73 $26 $-1 $74 reversed single #
loop $-1 $-1 $75 $34 #
plane-surface $-1 -35.100527315151865 85.315106164614605 130.41275045926869 1 0 0 0 -0.73135370988377701 -0.68199835119979291 forward_v I I I I #
face $-1 $76 $77 $27 $-1 $78 forward single #
loop $-1 $79 $80 $35 #
cone-surface $-1 -29.118156453359454 21.234531666556961 4.1700912178833178 0 -0.73135370988377701 -0.68199835119979291 2.5 0 0 1 I I 0 1 2.5 forward I I I I #
face $-1 $81 $82 $28 $-1 $83 forward single #
loop $-1 $84 $85 $36 #
cone-surface $-1 -20.144600160670841 21.234531666556961 4.1700912178833178 0 -0.73135370988377701 -0.68199835119979291 2.5 0 0 1 I I 0 1 2.5 forward I I I I #
face $-1 $86 $87 $29 $-1 $88 reversed single #
loop $-1 $-1 $89 $37 #
plane-surface $-1 -14.16222929887844 -122.60525605616856 90.423959551883272 -1 0 0 0 -0.73135370988377701 0.68199835119979291 forward_v I I I I #
face $-1 $90 $91 $30 $-1 $92 forward single #
loop $-1 $93 $94 $38 #
cone-surface $-1 -29.118156453359454 -21.234531666556954 4.1700912178833249 0 0.73135370988377701 -0.68199835119979291 2.5 0 0 1 I I 0 1 2.5 forward I I I I #
face $-1 $95 $96 $31 $-1 $97 forward single #
loop $-1 $98 $99 $39 #
cone-surface $-1 -20.144600160670841 -21.234531666556954 4.1700912178833249 0 0.73135370988377701 -0.68199835119979291 2.5 0 0 1 I I 0 1 2.5 forward I I I I #
face $-1 $100 $101 $24 $-1 $102 reversed single #
loop $-1 $-1 $103 $40 #
plane-surface $-1 0 0 -10.439788224321045 0 0 1 1 0 0 forward_v I I I I #
coedge $-1 $104 $105 $106 $107 forward $41 $-1 #
face $-1 $108 $109 $25 $-1 $110 reversed single #
loop $-1 $-1 $111 $43 #
plane-surface $-1 -60.457624213463937 -23.545498897116538 0 0 -1 0 0 0 -1 forward_v I I I I #
coedge $-1 $112 $113 $114 $115 reversed $44 $-1 #
face $-1 $116 $117 $26 $-1 $118 reversed single #
loop $-1 $-1 $119 $46 #
plane-surface $-1 -24.631378307015154 -9.9512642285960169 41.575425024379811 0 0.73135370988377701 0.68199835119979291 1 0 0 forward_v I I I I #
coedge $-1 $120 $121 $122 $123 reversed $47 $-1 #
face $-1 $-1 $124 $27 $-1 $125 forward single #
loop $-1 $126 $127 $49 #
cone-surface $-1 -29.118156453359454 18.343835315004402 1.4744733261091802 0 -0.73135370988377701 -0.68199835119979291 1.25 0 0 1 I I -0.70710678118654746 0.70710678118654746 1.25 forward I I I I #
loop $-1 $-1 $128 $35 #
coedge $-1 $80 $80 $129 $130 reversed $50 $-1 #
face $-1 $-1 $131 $28 $-1 $132 forward single #
loop $-1 $133 $134 $52 #
cone-surface $-1 -20.144600160670841 18.343835315004402 1.4744733261091802 0 -0.73135370988377701 -0.68199835119979291 1.25 0 0 1 I I -0.70710678118654746 0.70710678118654746 1.25 forward I I I I #
loop $-1 $-1 $135 $36 #
coedge $-1 $85 $85 $136 $137 reversed $53 $-1 #
face $-1 $138 $139 $29 $-1 $140 reversed single #
loop $-1 $-1 $141 $55 #
plane-surface $-1 -24.631378307015154 -27.338885662957935 1.5866341169943894 0 -0.73135370988377701 0.68199835119979291 1 0 0 forward_v I I I I #
coedge $-1 $142 $143 $144 $145 reversed $56 $-1 #
face $-1 $-1 $146 $30 $-1 $147 forward single #
loop $-1 $148 $149 $58 #
cone-surface $-1 -29.118156453359454 -18.343835315004398 1.4744733261091874 0 0.73135370988377701 -0.68199835119979291 1.25 0 0 1 I I -0.70710678118654746 0.70710678118654746 1.25 forward I I I I #
loop $-1 $-1 $150 $38 #
coedge $-1 $94 $94 $151 $152 reversed $59 $-1 #
face $-1 $-1 $153 $31 $-1 $154 forward single #
loop $-1 $155 $156 $61 #
cone-surface $-1 -20.144600160670841 -18.343835315004398 1.4744733261091874 0 0.73135370988377701 -0.68199835119979291 1.25 0 0 1 I I -0.70710678118654746 0.70710678118654746 1.25 forward I I I I #
loop $-1 $-1 $157 $39 #
coedge $-1 $99 $99 $158 $159 reversed $62 $-1 #
face $-1 $160 $161 $24 $-1 $162 reversed single #
loop $-1 $-1 $163 $64 #
plane-surface $-1 0 -27.338885662957953 0 0 1 0 0 0 1 forward_v I I I I #
coedge $-1 $164 $165 $166 $167 forward $65 $-1 #
coedge $-1 $168 $67 $169 $170 forward $41 $-1 #
coedge $-1 $67 $168 $171 $172 forward $41 $-1 #
coedge $-1 $173 $174 $67 $107 reversed $175 $-1 #
edge $-1 $176 -27.338885662957953 $177 27.338885662957953 $106 $178 forward 7 unknown #
face $-1 $179 $180 $25 $-1 $181 reversed single #
loop $-1 $-1 $182 $68 #
plane-surface $-1 -55.78508698401275 -25.045498897116538 0 -1 0 0 0 0 1 forward_v I I I I #
coedge $-1 $183 $184 $185 $186 forward $69 $-1 #
coedge $-1 $187 $71 $188 $189 reversed $44 $-1 #
coedge $-1 $71 $187 $190 $191 reversed $44 $-1 #
coedge $-1 $192 $193 $71 $115 forward $194 $-1 #
edge $-1 $195 -10.439788224321045 $196 10.439788224321045 $114 $197 forward 7 unknown #
face $-1 $198 $199 $26 $-1 $200 reversed single #
loop $-1 $-1 $201 $72 #
plane-surface $-1 -14.16222929887844 85.315106164614605 130.41275045926869 -1 0 0 0 0.73135370988377701 0.68199835119979291 forward_v I I I I #
coedge $-1 $202 $203 $204 $205 reversed $73 $-1 #
coedge $-1 $121 $75 $206 $207 reversed $47 $-1 #
coedge $-1 $75 $120 $202 $208 reversed $47 $-1 #
coedge $-1 $204 $209 $75 $123 forward $210 $-1 #
edge $-1 $211 15.31866741934935 $212 23.574366983755674 $122 $213 forward 7 unknown #
loop $-1 $-1 $129 $76 #
plane-surface $-1 -24.631378307015154 -9.9512642285960169 41.575425024379811 0 0.73135370988377701 0.68199835119979291 1 0 0 forward_v I I I I #
loop $-1 $-1 $214 $49 #
coedge $-1 $127 $127 $128 $215 reversed $77 $-1 #
coedge $-1 $128 $128 $127 $215 forward $79 $-1 #
coedge $-1 $129 $129 $80 $130 forward $124 $-1 #
edge $-1 $216 -7.0934891557619818e-016 $216 6.2831853071795996 $129 $217 forward 7 unknown #
loop $-1 $-1 $136 $81 #
plane-surface $-1 -24.631378307015154 -9.9512642285960169 41.575425024379811 0 0.73135370988377701 0.68199835119979291 1 0 0 forward_v I I I I #
loop $-1 $-1 $218 $52 #
coedge $-1 $134 $134 $135 $219 reversed $82 $-1 #
coedge $-1 $135 $135 $134 $219 forward $84 $-1 #
coedge $-1 $136 $136 $85 $137 forward $131 $-1 #
edge $-1 $220 -7.0934891557619818e-016 $220 6.2831853071795996 $136 $221 forward 7 unknown #
face $-1 $222 $223 $29 $-1 $224 forward single #
loop $-1 $-1 $225 $86 #
plane-surface $-1 -35.100527315151865 -122.60525605616856 90.423959551883272 1 0 0 0 0.73135370988377701 -0.68199835119979291 forward_v I I I I #
coedge $-1 $226 $227 $228 $229 reversed $87 $-1 #
coedge $-1 $143 $89 $230 $231 reversed $56 $-1 #
coedge $-1 $89 $142 $226 $232 reversed $56 $-1 #
coedge $-1 $228 $233 $89 $145 forward $223 $-1 #
edge $-1 $234 33.963742365126322 $235 42.219441929532678 $144 $236 forward 7 unknown #
loop $-1 $-1 $151 $90 #
plane-surface $-1 -24.631378307015154 -27.338885662957935 1.5866341169943894 0 -0.73135370988377701 0.68199835119979291 1 0 0 forward_v I I I I #
loop $-1 $-1 $237 $58 #
coedge $-1 $149 $149 $150 $238 reversed $91 $-1 #
coedge $-1 $150 $150 $149 $238 forward $93 $-1 #
coedge $-1 $151 $151 $94 $152 forward $146 $-1 #
edge $-1 $239 2.0723699755354111e-017 $239 6.2831853071796004 $151 $240 forward 7 unknown #
loop $-1 $-1 $158 $95 #
plane-surface $-1 -24.631378307015154 -27.338885662957935 1.5866341169943894 0 -0.73135370988377701 0.68199835119979291 1 0 0 forward_v I I I I #
loop $-1 $-1 $241 $61 #
coedge $-1 $156 $156 $157 $242 reversed $96 $-1 #
coedge $-1 $157 $157 $156 $242 forward $98 $-1 #
coedge $-1 $158 $158 $99 $159 forward $153 $-1 #
edge $-1 $243 2.0723699755354111e-017 $243 6.2831853071796004 $158 $244 forward 7 unknown #
face $-1 $245 $246 $24 $-1 $247 reversed single #
loop $-1 $-1 $248 $100 #
plane-surface $-1 -65.130161442915124 0 0 1 0 0 0 0 -1 forward_v I I I I #
coedge $-1 $249 $171 $250 $251 forward $101 $-1 #
coedge $-1 $252 $103 $249 $253 forward $65 $-1 #
coedge $-1 $103 $252 $254 $255 forward $65 $-1 #
coedge $-1 $174 $173 $103 $167 reversed $175 $-1 #
edge $-1 $256 -27.338885662957953 $257 27.338885662957953 $166 $258 forward 7 unknown #
coedge $-1 $105 $104 $259 $260 forward $41 $-1 #
coedge $-1 $261 $262 $104 $170 reversed $246 $-1 #
edge $-1 $177 -65.130161442915124 $263 65.130161442915124 $169 $264 forward 7 unknown #
coedge $-1 $163 $265 $105 $172 reversed $101 $-1 #
edge $-1 $266 -65.130161442915124 $176 65.130161442915124 $171 $267 forward 7 unknown #
coedge $-1 $166 $106 $265 $268 forward $175 $-1 #
coedge $-1 $106 $166 $261 $269 reversed $175 $-1 #
loop $-1 $-1 $173 $245 #
vertex $-1 $107 $270 #
vertex $-1 $107 $271 #
straight-curve $-1 65.130161442915124 0 10.439788224321045 0 1 0 I I #
face $-1 $272 $273 $25 $-1 $274 forward single #
loop $-1 $-1 $275 $108 #
plane-surface $-1 0 0 -10.439788224321045 0 0 1 1 0 0 forward_v I I I I #
coedge $-1 $276 $277 $187 $278 forward $109 $-1 #
coedge $-1 $279 $111 $275 $280 reversed $69 $-1 #
coedge $-1 $111 $279 $281 $282 reversed $69 $-1 #
coedge $-1 $277 $276 $111 $186 reversed $109 $-1 #
edge $-1 $283 -10.439788224321045 $284 10.439788224321045 $185 $285 forward 7 unknown #
coedge $-1 $113 $112 $182 $278 reversed $44 $-1 #
coedge $-1 $286 $287 $112 $189 forward $180 $-1 #
edge $-1 $288 25.556274877280782 $195 34.901349336183159 $188 $289 forward 7 unknown #
coedge $-1 $290 $291 $113 $191 forward $273 $-1 #
edge $-1 $196 -34.901349336183159 $292 -25.556274877280782 $190 $293 forward 7 unknown #
coedge $-1 $294 $114 $291 $295 reversed $194 $-1 #
coedge $-1 $114 $294 $286 $296 reversed $194 $-1 #
loop $-1 $-1 $294 $272 #
vertex $-1 $296 $297 #
vertex $-1 $115 $298 #
straight-curve $-1 -65.130161442915124 -26.545498897116538 0 0 0 1 I I #
face $-1 $-1 $210 $26 $-1 $299 forward single #
loop $-1 $-1 $300 $116 #
plane-surface $-1 0 27.338885662957953 0 0 -1 0 0 0 -1 forward_v I I I I #
coedge $-1 $301 $302 $303 $304 reversed $117 $-1 #
coedge $-1 $305 $119 $121 $208 forward $73 $-1 #
coedge $-1 $119 $305 $301 $306 forward $73 $-1 #
coedge $-1 $303 $122 $119 $205 forward $210 $-1 #
edge $-1 $212 -22.784838161644288 $307 -1.846540145370863 $204 $308 forward 7 unknown #
coedge $-1 $309 $310 $120 $207 forward $199 $-1 #
edge $-1 $311 -63.619741112639943 $211 -54.766587005313298 $206 $312 forward 7 unknown #
edge $-1 $212 42.572610734423805 $311 54.677771325915913 $121 $313 forward 7 unknown #
coedge $-1 $122 $303 $309 $314 forward $210 $-1 #
loop $-1 $-1 $303 $198 #
vertex $-1 $207 $315 #
vertex $-1 $123 $316 #
straight-curve $-1 -35.100527315151865 42.657553082307302 10.439788224321049 0 -1 0 I I #
coedge $-1 $214 $214 $-1 $317 reversed $126 $-1 #
edge $-1 $318 0 $318 6.2831853071796004 $127 $319 forward 7 unknown #
vertex $-1 $130 $320 #
ellipse-curve $-1 -29.118156453359454 23.2110358807548 6.0132111706577156 0 0.73135370988377701 0.68199835119979291 2.5 0 0 1 I I #
coedge $-1 $218 $218 $-1 $321 reversed $133 $-1 #
edge $-1 $322 0 $322 6.2831853071796004 $134 $323 forward 7 unknown #
vertex $-1 $137 $324 #
ellipse-curve $-1 -20.144600160670841 23.2110358807548 6.0132111706577156 0 0.73135370988377701 0.68199835119979291 2.5 0 0 1 I I #
face $-1 $-1 $325 $29 $-1 $326 reversed single #
loop $-1 $-1 $144 $138 #
plane-surface $-1 0 0 10.439788224321045 0 0 1 1 0 0 forward_v I I I I #
coedge $-1 $327 $328 $329 $330 reversed $139 $-1 #
coedge $-1 $331 $141 $143 $232 forward $87 $-1 #
coedge $-1 $141 $331 $327 $332 forward $87 $-1 #
coedge $-1 $329 $144 $141 $229 forward $223 $-1 #
edge $-1 $235 1.846540145370863 $333 22.784838161644288 $228 $334 forward 7 unknown #
coedge $-1 $335 $336 $142 $231 forward $325 $-1 #
edge $-1 $337 -43.625345658947268 $234 -34.772191551620594 $230 $338 forward 7 unknown #
edge $-1 $235 -12.105160591492117 $337 2.6080534875291995e-014 $143 $339 forward 7 unknown #
coedge $-1 $144 $329 $335 $340 forward $223 $-1 #
vertex $-1 $231 $341 #
vertex $-1 $145 $342 #
straight-curve $-1 -14.16222929887844 -61.302628028084278 10.439788224321049 0 1 0 I I #
coedge $-1 $237 $237 $-1 $343 reversed $148 $-1 #
edge $-1 $344 0 $344 6.2831853071796004 $149 $345 forward 7 unknown #
vertex $-1 $152 $346 #
ellipse-curve $-1 -29.118156453359454 -23.211035880754778 6.0132111706577085 0 -0.73135370988377701 0.68199835119979291 2.5 0 0 1 I I #
coedge $-1 $241 $241 $-1 $347 reversed $155 $-1 #
edge $-1 $348 0 $348 6.2831853071796004 $156 $349 forward 7 unknown #
vertex $-1 $159 $350 #
ellipse-curve $-1 -20.144600160670841 -23.211035880754778 6.0132111706577085 0 -0.73135370988377701 0.68199835119979291 2.5 0 0 1 I I #
face $-1 $-1 $175 $24 $-1 $351 reversed single #
loop $-1 $-1 $261 $160 #
plane-surface $-1 0 27.338885662957953 0 0 -1 0 0 0 -1 forward_v I I I I #
coedge $-1 $352 $259 $262 $353 forward $161 $-1 #
coedge $-1 $265 $163 $164 $253 reversed $101 $-1 #
coedge $-1 $259 $352 $163 $251 reversed $161 $-1 #
edge $-1 $266 -10.439788224321045 $354 10.439788224321045 $250 $355 forward 7 unknown #
coedge $-1 $165 $164 $352 $356 forward $65 $-1 #
edge $-1 $257 -65.130161442915124 $354 65.130161442915124 $249 $357 forward 7 unknown #
coedge $-1 $262 $261 $165 $255 reversed $246 $-1 #
edge $-1 $358 -65.130161442915124 $256 65.130161442915124 $254 $359 forward 7 unknown #
vertex $-1 $167 $360 #
vertex $-1 $268 $361 #
straight-curve $-1 65.130161442915124 0 -10.439788224321045 0 -1 0 I I #
coedge $-1 $248 $250 $168 $260 reversed $161 $-1 #
edge $-1 $263 -27.338885662957953 $266 27.338885662957953 $259 $362 forward 7 unknown #
coedge $-1 $254 $169 $174 $269 forward $246 $-1 #
coedge $-1 $169 $254 $248 $353 reversed $246 $-1 #
vertex $-1 $170 $363 #
straight-curve $-1 0 27.338885662957953 10.439788224321045 -1 0 0 I I #
coedge $-1 $171 $249 $173 $268 reversed $101 $-1 #
vertex $-1 $260 $364 #
straight-curve $-1 0 -27.338885662957953 10.439788224321045 1 0 0 I I #
edge $-1 $176 -10.439788224321045 $257 10.439788224321045 $173 $365 forward 7 unknown #
edge $-1 $177 -10.439788224321045 $256 10.439788224321045 $174 $366 forward 7 unknown #
point $-1 65.130161442915124 -27.338885662957953 10.439788224321045 #
point $-1 65.130161442915124 27.338885662957953 10.439788224321045 #
face $-1 $-1 $194 $25 $-1 $367 reversed single #
loop $-1 $-1 $281 $179 #
plane-surface $-1 0 0 10.439788224321045 0 0 1 1 0 0 forward_v I I I I #
coedge $-1 $287 $286 $183 $280 forward $180 $-1 #
coedge $-1 $185 $182 $287 $368 reversed $109 $-1 #
coedge $-1 $182 $185 $290 $369 reversed $109 $-1 #
edge $-1 $292 -10.439788224321045 $288 10.439788224321045 $182 $370 forward 7 unknown #
coedge $-1 $184 $183 $294 $371 reversed $69 $-1 #
edge $-1 $372 -34.901349336183159 $284 -25.556274877280782 $275 $373 forward 7 unknown #
coedge $-1 $291 $290 $184 $282 forward $273 $-1 #
edge $-1 $283 25.556274877280782 $374 34.901349336183159 $281 $375 forward 7 unknown #
vertex $-1 $282 $376 #
vertex $-1 $280 $377 #
straight-curve $-1 -55.78508698401275 -23.545498897116538 0 0 0 -1 I I #
coedge $-1 $275 $188 $193 $296 forward $180 $-1 #
coedge $-1 $188 $275 $276 $368 forward $180 $-1 #
vertex $-1 $189 $378 #
straight-curve $-1 -30.228812106731969 -26.545498897116538 -10.439788224321045 -1 0 0 I I #
coedge $-1 $281 $190 $277 $369 forward $273 $-1 #
coedge $-1 $190 $281 $192 $295 forward $273 $-1 #
vertex $-1 $191 $379 #
straight-curve $-1 -30.228812106731969 -26.545498897116538 10.439788224321045 1 0 0 I I #
coedge $-1 $193 $192 $279 $371 forward $194 $-1 #
edge $-1 $374 23.545498897116538 $196 26.545498897116538 $192 $380 forward 7 unknown #
edge $-1 $195 -26.545498897116538 $372 -23.545498897116538 $193 $381 forward 7 unknown #
point $-1 -65.130161442915124 -26.545498897116538 -10.439788224321045 #
point $-1 -65.130161442915124 -26.545498897116538 10.439788224321045 #
plane-surface $-1 0 0 10.439788224321045 0 0 1 1 0 0 forward_v I I I I #
coedge $-1 $310 $309 $302 $382 forward $199 $-1 #
coedge $-1 $302 $201 $203 $306 reversed $117 $-1 #
coedge $-1 $201 $301 $300 $382 reversed $117 $-1 #
coedge $-1 $209 $204 $201 $304 forward $210 $-1 #
edge $-1 $307 -23.574366983755674 $383 -15.31866741934935 $303 $384 forward 7 unknown #
coedge $-1 $203 $202 $310 $385 reversed $73 $-1 #
edge $-1 $386 -54.677771325915913 $307 -42.572610734423805 $301 $387 forward 7 unknown #
vertex $-1 $205 $388 #
straight-curve $-1 -12.315689153507577 19.083186098551629 10.439788224321045 1 0 0 I I #
coedge $-1 $300 $206 $209 $314 reversed $199 $-1 #
coedge $-1 $206 $300 $305 $385 forward $199 $-1 #
vertex $-1 $207 $389 #
straight-curve $-1 -35.100527315151865 27.338885662957953 65.206375229634347 0 0 1 I I #
straight-curve $-1 -35.100527315151865 -9.9512642285960169 41.575425024379811 0 0.68199835119979291 -0.73135370988377701 I I #
edge $-1 $383 14.16222929887844 $211 35.100527315151865 $309 $390 forward 7 unknown #
point $-1 -35.100527315151865 27.338885662957953 10.439788224321045 #
point $-1 -35.100527315151865 19.083186098551629 10.439788224321049 #
edge $-1 $391 1 $391 0 $214 $-1 forward 7 unknown #
vertex $-1 $215 $392 #
ellipse-curve $-1 -29.118156453359454 19.258027452359123 2.3269712651089214 0 0.73135370988377701 0.68199835119979291 2.5 0 0 1 I I #
point $-1 -26.618156453359454 23.211035880754796 6.0132111706577147 #
edge $-1 $393 1 $393 0 $218 $-1 forward 7 unknown #
vertex $-1 $219 $394 #
ellipse-curve $-1 -20.144600160670841 19.258027452359123 2.3269712651089214 0 0.73135370988377701 0.68199835119979291 2.5 0 0 1 I I #
point $-1 -17.644600160670841 23.211035880754796 6.0132111706577147 #
loop $-1 $-1 $230 $222 #
plane-surface $-1 0 -27.338885662957953 0 0 1 0 0 0 1 forward_v I I I I #
coedge $-1 $328 $225 $227 $332 reversed $139 $-1 #
coedge $-1 $225 $327 $395 $396 reversed $139 $-1 #
coedge $-1 $233 $228 $225 $330 forward $223 $-1 #
edge $-1 $333 -42.219441929532678 $397 -33.963742365126322 $329 $398 forward 7 unknown #
coedge $-1 $227 $226 $336 $399 reversed $87 $-1 #
edge $-1 $400 -2.6080534875291995e-014 $333 12.105160591492117 $327 $401 forward 7 unknown #
vertex $-1 $229 $402 #
straight-curve $-1 -12.315689153507577 -19.0831860985516 10.439788224321045 -1 0 0 I I #
coedge $-1 $395 $230 $233 $340 reversed $325 $-1 #
coedge $-1 $230 $395 $331 $399 forward $325 $-1 #
vertex $-1 $231 $403 #
straight-curve $-1 -14.16222929887844 -27.338885662957949 45.211979775941636 0 0 1 I I #
straight-curve $-1 -14.16222929887844 -27.338885662957935 1.5866341169943894 0 -0.68199835119979291 -0.73135370988377701 I I #
edge $-1 $397 -35.100527315151865 $234 -14.16222929887844 $335 $404 forward 7 unknown #
point $-1 -14.16222929887844 -27.338885662957953 10.439788224321045 #
point $-1 -14.16222929887844 -19.0831860985516 10.439788224321045 #
edge $-1 $405 1 $405 0 $237 $-1 forward 7 unknown #
vertex $-1 $238 $406 #
ellipse-curve $-1 -29.118156453359454 -19.258027452359119 2.3269712651089285 0 -0.73135370988377701 0.68199835119979291 2.5 0 0 1 I I #
point $-1 -26.618156453359454 -23.211035880754793 6.0132111706577218 #
edge $-1 $407 1 $407 0 $241 $-1 forward 7 unknown #
vertex $-1 $242 $408 #
ellipse-curve $-1 -20.144600160670841 -19.258027452359119 2.3269712651089285 0 -0.73135370988377701 0.68199835119979291 2.5 0 0 1 I I #
point $-1 -17.644600160670841 -23.211035880754793 6.0132111706577218 #
plane-surface $-1 65.130161442915124 0 0 -1 0 0 0 0 1 forward_v I I I I #
coedge $-1 $250 $248 $252 $356 reversed $161 $-1 #
edge $-1 $263 -10.439788224321045 $358 10.439788224321045 $262 $409 forward 7 unknown #
vertex $-1 $356 $410 #
straight-curve $-1 -65.130161442915124 -27.338885662957953 0 0 0 -1 I I #
edge $-1 $354 -27.338885662957953 $358 27.338885662957953 $352 $411 forward 7 unknown #
straight-curve $-1 0 -27.338885662957953 -10.439788224321045 -1 0 0 I I #
vertex $-1 $255 $412 #
straight-curve $-1 0 27.338885662957953 -10.439788224321045 1 0 0 I I #
point $-1 65.130161442915124 27.338885662957953 -10.439788224321045 #
point $-1 65.130161442915124 -27.338885662957953 -10.439788224321045 #
straight-curve $-1 -65.130161442915124 0 10.439788224321045 0 -1 0 I I #
point $-1 -65.130161442915124 27.338885662957953 10.439788224321045 #
point $-1 -65.130161442915124 -27.338885662957953 10.439788224321045 #
straight-curve $-1 65.130161442915124 -27.338885662957953 0 0 0 -1 I I #
straight-curve $-1 65.130161442915124 27.338885662957953 0 0 0 -1 I I #
plane-surface $-1 -65.130161442915124 0 0 1 0 0 0 0 -1 forward_v I I I I #
edge $-1 $284 11.022749448558269 $288 14.022749448558269 $287 $413 forward 7 unknown #
edge $-1 $292 -14.022749448558269 $283 -11.022749448558269 $290 $414 forward 7 unknown #
straight-curve $-1 -55.78508698401275 -26.545498897116538 0 0 0 -1 I I #
edge $-1 $374 -10.439788224321045 $372 10.439788224321045 $294 $415 forward 7 unknown #
vertex $-1 $371 $416 #
straight-curve $-1 -30.228812106731969 -23.545498897116538 -10.439788224321045 1 0 0 I I #
vertex $-1 $295 $417 #
straight-curve $-1 -30.228812106731969 -23.545498897116538 10.439788224321045 -1 0 0 I I #
point $-1 -55.78508698401275 -23.545498897116538 10.439788224321045 #
point $-1 -55.78508698401275 -23.545498897116538 -10.439788224321045 #
point $-1 -55.78508698401275 -26.545498897116538 -10.439788224321045 #
point $-1 -55.78508698401275 -26.545498897116538 10.439788224321045 #
straight-curve $-1 -65.130161442915124 0 10.439788224321045 0 -1 0 I I #
straight-curve $-1 -65.130161442915124 0 -10.439788224321045 0 1 0 I I #
edge $-1 $383 54.766587005313298 $386 63.619741112639943 $300 $418 forward 7 unknown #
vertex $-1 $314 $419 #
straight-curve $-1 -14.16222929887844 42.657553082307302 10.439788224321049 0 1 0 I I #
edge $-1 $386 1.846540145370863 $311 22.784838161644288 $310 $420 forward 7 unknown #
vertex $-1 $385 $421 #
straight-curve $-1 -14.16222929887844 -9.9512642285960169 41.575425024379811 0 -0.68199835119979291 0.73135370988377701 I I #
point $-1 -14.16222929887844 19.083186098551629 10.439788224321049 #
point $-1 -35.100527315151865 27.338885662957949 1.5866341169944036 #
straight-curve $-1 0 27.338885662957953 10.439788224321045 -1 0 0 I I #
vertex $-1 $317 $422 #
point $-1 -26.618156453359454 19.258027452359123 2.3269712651089214 #
vertex $-1 $321 $423 #
point $-1 -17.644600160670841 19.258027452359123 2.3269712651089214 #
coedge $-1 $336 $335 $328 $396 forward $325 $-1 #
edge $-1 $397 34.772191551620594 $400 43.625345658947268 $395 $424 forward 7 unknown #
vertex $-1 $340 $425 #
straight-curve $-1 -35.100527315151865 -61.302628028084278 10.439788224321049 0 -1 0 I I #
edge $-1 $400 -22.784838161644288 $337 -1.846540145370863 $336 $426 forward 7 unknown #
vertex $-1 $399 $427 #
straight-curve $-1 -35.100527315151865 -27.338885662957935 1.5866341169943894 0 0.68199835119979291 0.73135370988377701 I I #
point $-1 -35.100527315151865 -19.0831860985516 10.439788224321045 #
point $-1 -14.16222929887844 -27.338885662957953 1.5866341169943703 #
straight-curve $-1 0 -27.338885662957953 10.439788224321045 1 0 0 I I #
vertex $-1 $343 $428 #
point $-1 -26.618156453359454 -19.258027452359119 2.3269712651089285 #
vertex $-1 $347 $429 #
point $-1 -17.644600160670841 -19.258027452359119 2.3269712651089285 #
straight-curve $-1 -65.130161442915124 27.338885662957953 0 0 0 -1 I I #
point $-1 -65.130161442915124 -27.338885662957953 -10.439788224321045 #
straight-curve $-1 -65.130161442915124 0 -10.439788224321045 0 1 0 I I #
point $-1 -65.130161442915124 27.338885662957953 -10.439788224321045 #
straight-curve $-1 -55.78508698401275 -12.522749448558269 -10.439788224321045 0 -1 0 I I #
straight-curve $-1 -55.78508698401275 -12.522749448558269 10.439788224321045 0 1 0 I I #
straight-curve $-1 -65.130161442915124 -23.545498897116538 0 0 0 -1 I I #
point $-1 -65.130161442915124 -23.545498897116538 -10.439788224321045 #
point $-1 -65.130161442915124 -23.545498897116538 10.439788224321045 #
straight-curve $-1 -14.16222929887844 27.338885662957953 65.206375229634347 0 0 -1 I I #
point $-1 -14.16222929887844 27.338885662957953 10.439788224321045 #
straight-curve $-1 -12.315689153507577 27.338885662957956 1.5866341169944036 -1 0 0 I I #
point $-1 -14.16222929887844 27.338885662957949 1.5866341169944036 #
point $-1 -29.118156453359454 17.42964317764968 0.62197538710943912 #
point $-1 -20.144600160670841 17.42964317764968 0.62197538710943912 #
straight-curve $-1 -35.100527315151865 -27.338885662957949 45.211979775941636 0 0 -1 I I #
point $-1 -35.100527315151865 -27.338885662957953 10.439788224321045 #
straight-curve $-1 -12.315689153507577 -27.338885662957953 1.5866341169943696 1 0 0 I I #
point $-1 -35.100527315151865 -27.338885662957953 1.5866341169943703 #
point $-1 -29.118156453359454 -17.429643177649677 0.62197538710944622 #
point $-1 -20.144600160670841 -17.429643177649677 0.62197538710944622 #
End-of-ACIS-data 