500 0 6 0           
7 Unknown 11 ACIS 5.0 NT 24 Thu Mar 25 20:36:38 1999 
-1 9.9999999999999995e-007 1e-010 
body $-1 $6 $-1 $7 #
body $-1 $8 $-1 $9 #
body $-1 $10 $-1 $11 #
body $-1 $12 $-1 $13 #
body $-1 $14 $-1 $15 #
body $-1 $16 $-1 $17 #
lump $-1 $-1 $18 $0 #
transform $-1 1 0 0 0 1 0 0 0 1 73.880428479873046 40.865231784959349 9.8664211461888609 1 rotate no_reflect no_shear #
lump $-1 $-1 $19 $1 #
transform $-1 1 0 0 0 1 0 0 0 1 73.880428479873046 40.865231784959349 9.8664211461888609 1 rotate no_reflect no_shear #
lump $-1 $-1 $20 $2 #
transform $-1 1 0 0 0 1 0 0 0 1 73.880428479873046 40.865231784959349 9.8664211461888609 1 rotate no_reflect no_shear #
lump $-1 $-1 $21 $3 #
transform $-1 1 0 0 0 1 0 0 0 1 73.880428479873046 40.865231784959349 9.8664211461888609 1 rotate no_reflect no_shear #
lump $-1 $-1 $22 $4 #
transform $-1 1 0 0 0 1 0 0 0 1 73.880428479873046 40.865231784959349 9.8664211461888609 1 rotate no_reflect no_shear #
lump $-1 $-1 $23 $5 #
transform $-1 1 0 0 0 1 0 0 0 1 73.880428479873046 40.865231784959349 9.8664211461888609 1 rotate no_reflect no_shear #
shell $-1 $-1 $-1 $24 $-1 $6 #
shell $-1 $-1 $-1 $25 $-1 $8 #
shell $-1 $-1 $-1 $26 $-1 $10 #
shell $-1 $-1 $-1 $27 $-1 $12 #
shell $-1 $-1 $-1 $28 $-1 $14 #
shell $-1 $-1 $-1 $29 $-1 $16 #
face $-1 $30 $31 $18 $-1 $32 forward single #
face $-1 $33 $34 $19 $-1 $35 reversed single #
face $-1 $36 $37 $20 $-1 $38 forward single #
face $-1 $39 $40 $21 $-1 $41 forward single #
face $-1 $42 $43 $22 $-1 $44 reversed single #
face $-1 $45 $46 $23 $-1 $47 forward single #
face $-1 $48 $49 $18 $-1 $50 reversed single #
loop $-1 $-1 $51 $24 #
plane-surface $-1 0 0 9.8664211461888609 0 0 1 1 0 0 forward_v I I I I #
face $-1 $52 $53 $19 $-1 $54 reversed single #
loop $-1 $-1 $55 $25 #
plane-surface $-1 -162.80513315784191 18.040714649144203 122.98352970574726 0 1 0 -0.6018150307709319 0 0.79863550430605224 forward_v I I I I #
face $-1 $56 $57 $20 $-1 $58 forward single #
loop $-1 $59 $60 $26 #
cone-surface $-1 -70.082440093556656 24.562005259377102 6.687066514357074 0.6018150307709319 0 -0.79863550430605224 1.1979532564590785 0 0.90272254615639791 1 I I 0 1 1.5 forward I I I I #
face $-1 $61 $62 $21 $-1 $63 forward single #
loop $-1 $64 $65 $27 #
cone-surface $-1 -70.082440093556656 34.343941174726453 6.687066514357074 0.6018150307709319 0 -0.79863550430605224 1.1979532564590785 0 0.90272254615639791 1 I I 0 1 1.5 forward I I I I #
face $-1 $66 $67 $22 $-1 $68 reversed single #
loop $-1 $-1 $69 $28 #
plane-surface $-1 52.037597605701819 17.230069772889927 211.84723347044829 0 1 0 0.62932039886446345 0 0.77714595512881146 forward_v I I I I #
face $-1 $70 $71 $23 $-1 $72 forward single #
loop $-1 $73 $74 $29 #
cone-surface $-1 69.942956979605938 29.047650778924634 6.536927612672903 -0.62932039886446345 0 -0.77714595512881146 0.77714595512881146 0 -0.62932039886446345 1 I I 0 1 1 forward I I I I #
face $-1 $75 $76 $18 $-1 $77 reversed single #
loop $-1 $-1 $78 $30 #
plane-surface $-1 0 0 -9.8664211461888609 0 0 1 1 0 0 forward_v I I I I #
coedge $-1 $79 $80 $81 $82 forward $31 $-1 #
face $-1 $83 $84 $19 $-1 $85 forward single #
loop $-1 $-1 $86 $33 #
plane-surface $-1 -73.880428479873046 29.452973217051778 4.9764631910059904 -0.6018150307709319 0 0.79863550430605224 0.79863550430605224 0 0.6018150307709319 forward_v I I I I #
coedge $-1 $87 $88 $89 $90 reversed $34 $-1 #
face $-1 $-1 $91 $20 $-1 $92 forward single #
loop $-1 $93 $94 $36 #
cone-surface $-1 -69.077687060944669 24.562005259377102 5.3537142318871869 0.6018150307709319 0 -0.79863550430605224 0.59897662822953923 0 0.45136127307819895 1 I I -0.70710678118654757 0.70710678118654757 0.75 forward I I I I #
loop $-1 $-1 $95 $26 #
coedge $-1 $60 $60 $96 $97 reversed $37 $-1 #
face $-1 $-1 $98 $21 $-1 $99 forward single #
loop $-1 $100 $101 $39 #
cone-surface $-1 -69.077687060944669 34.343941174726453 5.3537142318871869 0.6018150307709319 0 -0.79863550430605224 0.59897662822953923 0 0.45136127307819895 1 I I -0.70710678118654757 0.70710678118654757 0.75 forward I I I I #
loop $-1 $-1 $102 $27 #
coedge $-1 $65 $65 $103 $104 reversed $40 $-1 #
face $-1 $105 $106 $22 $-1 $107 reversed single #
loop $-1 $-1 $108 $42 #
plane-surface $-1 -40.951323832760522 29.047650778924634 97.015481157814719 0.62932039886446345 0 0.77714595512881146 0.77714595512881146 0 -0.62932039886446345 forward_v I I I I #
coedge $-1 $109 $110 $111 $112 reversed $43 $-1 #
face $-1 $-1 $113 $23 $-1 $114 forward single #
loop $-1 $115 $116 $45 #
cone-surface $-1 69.296639341049257 29.047650778924634 5.7387918150107797 -0.62932039886446345 0 -0.77714595512881146 0.38857297756440573 0 -0.31466019943223172 1 I I -0.70710678118654746 0.70710678118654746 0.5 forward I I I I #
loop $-1 $-1 $117 $29 #
coedge $-1 $74 $74 $118 $119 reversed $46 $-1 #
face $-1 $120 $121 $18 $-1 $122 reversed single #
loop $-1 $-1 $123 $48 #
plane-surface $-1 0 -40.865231784959349 0 0 1 0 0 0 1 forward_v I I I I #
coedge $-1 $124 $125 $126 $127 forward $49 $-1 #
coedge $-1 $128 $51 $129 $130 forward $31 $-1 #
coedge $-1 $51 $128 $131 $132 forward $31 $-1 #
coedge $-1 $133 $134 $51 $82 reversed $135 $-1 #
edge $-1 $136 -40.865231784959349 $137 40.865231784959349 $81 $138 forward 7 unknown #
face $-1 $139 $140 $19 $-1 $141 reversed single #
loop $-1 $-1 $89 $52 #
plane-surface $-1 0 0 9.8664211461888609 0 0 1 1 0 0 forward_v I I I I #
coedge $-1 $142 $143 $144 $145 reversed $53 $-1 #
coedge $-1 $88 $55 $146 $147 reversed $34 $-1 #
coedge $-1 $55 $87 $142 $148 reversed $34 $-1 #
coedge $-1 $144 $149 $55 $90 forward $84 $-1 #
edge $-1 $150 7.5221380990479076 $151 14.011331352613112 $89 $152 forward 7 unknown #
loop $-1 $-1 $96 $56 #
plane-surface $-1 -73.880428479873046 29.452973217051778 4.9764631910059904 -0.6018150307709319 0 0.79863550430605224 0.79863550430605224 0 0.6018150307709319 forward_v I I I I #
loop $-1 $-1 $153 $36 #
coedge $-1 $94 $94 $95 $154 reversed $57 $-1 #
coedge $-1 $95 $95 $94 $154 forward $59 $-1 #
coedge $-1 $96 $96 $60 $97 forward $91 $-1 #
edge $-1 $155 0 $155 6.2831853071796004 $96 $156 forward 7 unknown #
loop $-1 $-1 $103 $61 #
plane-surface $-1 -73.880428479873046 29.452973217051778 4.9764631910059904 -0.6018150307709319 0 0.79863550430605224 0.79863550430605224 0 0.6018150307709319 forward_v I I I I #
loop $-1 $-1 $157 $39 #
coedge $-1 $101 $101 $102 $158 reversed $62 $-1 #
coedge $-1 $102 $102 $101 $158 forward $64 $-1 #
coedge $-1 $103 $103 $65 $104 forward $98 $-1 #
edge $-1 $159 0 $159 6.2831853071796004 $103 $160 forward 7 unknown #
face $-1 $161 $162 $22 $-1 $163 forward single #
loop $-1 $-1 $111 $66 #
plane-surface $-1 73.880428479873046 0 0 -1 0 0 0 0 1 forward_v I I I I #
coedge $-1 $164 $165 $166 $167 reversed $67 $-1 #
coedge $-1 $110 $69 $168 $169 reversed $43 $-1 #
coedge $-1 $69 $109 $164 $170 reversed $43 $-1 #
coedge $-1 $166 $171 $69 $112 forward $106 $-1 #
edge $-1 $172 96.057195589035288 $173 101.89705701587177 $111 $174 forward 7 unknown #
loop $-1 $-1 $118 $70 #
plane-surface $-1 -40.951323832760522 29.047650778924634 97.015481157814719 0.62932039886446345 0 0.77714595512881146 0.77714595512881146 0 -0.62932039886446345 forward_v I I I I #
loop $-1 $-1 $175 $45 #
coedge $-1 $116 $116 $117 $176 reversed $71 $-1 #
coedge $-1 $117 $117 $116 $176 forward $73 $-1 #
coedge $-1 $118 $118 $74 $119 forward $113 $-1 #
edge $-1 $177 0 $177 6.2831853071796004 $118 $178 forward 7 unknown #
face $-1 $179 $180 $18 $-1 $181 reversed single #
loop $-1 $-1 $182 $75 #
plane-surface $-1 -73.880428479873046 0 0 1 0 0 0 0 -1 forward_v I I I I #
coedge $-1 $183 $131 $184 $185 forward $76 $-1 #
coedge $-1 $186 $78 $183 $187 forward $49 $-1 #
coedge $-1 $78 $186 $188 $189 forward $49 $-1 #
coedge $-1 $134 $133 $78 $127 reversed $135 $-1 #
edge $-1 $190 -40.865231784959349 $191 40.865231784959349 $126 $192 forward 7 unknown #
coedge $-1 $80 $79 $193 $194 forward $31 $-1 #
coedge $-1 $195 $196 $79 $130 reversed $180 $-1 #
edge $-1 $137 -73.880428479873046 $197 73.880428479873046 $129 $198 forward 7 unknown #
coedge $-1 $123 $199 $80 $132 reversed $76 $-1 #
edge $-1 $200 -73.880428479873046 $136 73.880428479873046 $131 $201 forward 7 unknown #
coedge $-1 $126 $81 $199 $202 forward $135 $-1 #
coedge $-1 $81 $126 $195 $203 reversed $135 $-1 #
loop $-1 $-1 $133 $179 #
vertex $-1 $82 $204 #
vertex $-1 $82 $205 #
straight-curve $-1 73.880428479873046 0 9.8664211461888609 0 1 0 I I #
face $-1 $-1 $206 $19 $-1 $207 reversed single #
loop $-1 $-1 $208 $83 #
plane-surface $-1 0 40.865231784959349 0 0 -1 0 0 0 -1 forward_v I I I I #
coedge $-1 $209 $86 $88 $148 forward $53 $-1 #
coedge $-1 $86 $209 $208 $210 reversed $53 $-1 #
coedge $-1 $211 $89 $86 $145 forward $84 $-1 #
edge $-1 $151 3.314228040618314 $212 26.13874517643346 $144 $213 forward 7 unknown #
coedge $-1 $214 $215 $87 $147 forward $206 $-1 #
edge $-1 $216 -56.515301661867639 $150 -51.625343706684767 $146 $217 forward 7 unknown #
edge $-1 $151 -8.125350323867421 $216 0 $88 $218 forward 7 unknown #
coedge $-1 $89 $211 $214 $219 forward $84 $-1 #
vertex $-1 $147 $220 #
vertex $-1 $90 $221 #
straight-curve $-1 -81.402566578920954 18.040714649144203 9.8664211461888627 1 0 0 I I #
coedge $-1 $153 $153 $-1 $222 reversed $93 $-1 #
edge $-1 $223 0 $223 6.2831853071796004 $94 $224 forward 7 unknown #
vertex $-1 $97 $225 #
ellipse-curve $-1 -70.635831853090451 24.562005259377102 7.4214421685974274 -0.6018150307709319 0 0.79863550430605224 1.1979532564590785 0 0.90272254615639791 1 I I #
coedge $-1 $157 $157 $-1 $226 reversed $100 $-1 #
edge $-1 $227 0 $227 6.2831853071796004 $101 $228 forward 7 unknown #
vertex $-1 $104 $229 #
ellipse-curve $-1 -70.635831853090451 34.343941174726453 7.4214421685974274 -0.6018150307709319 0 0.79863550430605224 1.1979532564590785 0 0.90272254615639791 1 I I #
face $-1 $-1 $230 $22 $-1 $231 reversed single #
loop $-1 $-1 $168 $105 #
plane-surface $-1 0 0 9.8664211461888609 0 0 1 1 0 0 forward_v I I I I #
coedge $-1 $232 $108 $110 $170 forward $67 $-1 #
coedge $-1 $108 $232 $233 $234 reversed $67 $-1 #
coedge $-1 $235 $111 $108 $167 forward $106 $-1 #
edge $-1 $173 2.7062443834276095 $236 26.341406395497032 $166 $237 forward 7 unknown #
coedge $-1 $238 $239 $109 $169 forward $162 $-1 #
edge $-1 $240 40.650001554736875 $172 47.861629677022137 $168 $241 forward 7 unknown #
edge $-1 $173 -147.76085695974609 $240 -138.48122541216898 $110 $242 forward 7 unknown #
coedge $-1 $111 $235 $238 $243 reversed $106 $-1 #
vertex $-1 $243 $244 #
vertex $-1 $112 $245 #
straight-curve $-1 73.880428479873046 17.230069772889927 105.92361673522414 0 0 -1 I I #
coedge $-1 $175 $175 $-1 $246 reversed $115 $-1 #
edge $-1 $247 0 $247 6.2831853071796004 $116 $248 forward 7 unknown #
vertex $-1 $119 $249 #
ellipse-curve $-1 70.274614418730394 29.047650778924634 6.9464904327706298 0.62932039886446345 0 0.77714595512881146 0.77714595512881146 0 -0.62932039886446345 1 I I #
face $-1 $-1 $135 $18 $-1 $250 reversed single #
loop $-1 $-1 $195 $120 #
plane-surface $-1 0 40.865231784959349 0 0 -1 0 0 0 -1 forward_v I I I I #
coedge $-1 $251 $193 $196 $252 forward $121 $-1 #
coedge $-1 $199 $123 $124 $187 reversed $76 $-1 #
coedge $-1 $193 $251 $123 $185 reversed $121 $-1 #
edge $-1 $200 -9.8664211461888609 $253 9.8664211461888609 $184 $254 forward 7 unknown #
coedge $-1 $125 $124 $251 $255 forward $49 $-1 #
edge $-1 $191 -73.880428479873046 $253 73.880428479873046 $183 $256 forward 7 unknown #
coedge $-1 $196 $195 $125 $189 reversed $180 $-1 #
edge $-1 $257 -73.880428479873046 $190 73.880428479873046 $188 $258 forward 7 unknown #
vertex $-1 $127 $259 #
vertex $-1 $202 $260 #
straight-curve $-1 73.880428479873046 0 -9.8664211461888609 0 -1 0 I I #
coedge $-1 $182 $184 $128 $194 reversed $121 $-1 #
edge $-1 $197 -40.865231784959349 $200 40.865231784959349 $193 $261 forward 7 unknown #
coedge $-1 $188 $129 $134 $203 forward $180 $-1 #
coedge $-1 $129 $188 $182 $252 reversed $180 $-1 #
vertex $-1 $130 $262 #
straight-curve $-1 0 40.865231784959349 9.8664211461888609 -1 0 0 I I #
coedge $-1 $131 $183 $133 $202 reversed $76 $-1 #
vertex $-1 $194 $263 #
straight-curve $-1 0 -40.865231784959349 9.8664211461888609 1 0 0 I I #
edge $-1 $136 -9.8664211461888609 $191 9.8664211461888609 $133 $264 forward 7 unknown #
edge $-1 $137 -9.8664211461888609 $190 9.8664211461888609 $134 $265 forward 7 unknown #
point $-1 73.880428479873046 -40.865231784959349 9.8664211461888609 #
point $-1 73.880428479873046 40.865231784959349 9.8664211461888609 #
loop $-1 $-1 $146 $139 #
plane-surface $-1 -73.880428479873046 0 0 1 0 0 0 0 -1 forward_v I I I I #
coedge $-1 $266 $267 $143 $210 forward $140 $-1 #
coedge $-1 $143 $142 $215 $268 reversed $53 $-1 #
edge $-1 $212 19.878961130605052 $269 28.004311454472475 $208 $270 forward 7 unknown #
coedge $-1 $149 $144 $267 $271 forward $84 $-1 #
vertex $-1 $271 $272 #
straight-curve $-1 -67.391235226307856 14.726486608525889 9.8664211461888591 0 1 0 I I #
coedge $-1 $273 $146 $149 $219 reversed $206 $-1 #
coedge $-1 $146 $273 $209 $268 forward $206 $-1 #
vertex $-1 $147 $274 #
straight-curve $-1 -73.880428479873046 18.040714649144203 61.491764852873629 0 0 1 I I #
straight-curve $-1 -73.880428479873046 18.040714649144203 4.9764631910059904 -0.79863550430605224 0 -0.6018150307709319 I I #
edge $-1 $275 -40.865231784959349 $150 -18.040714649144203 $214 $276 forward 7 unknown #
point $-1 -73.880428479873046 18.040714649144203 9.8664211461888609 #
point $-1 -67.391235226307842 18.040714649144203 9.8664211461888609 #
edge $-1 $277 1 $277 0 $153 $-1 forward 7 unknown #
vertex $-1 $154 $278 #
ellipse-curve $-1 -69.529048334022875 24.562005259377102 5.9526908601167259 -0.6018150307709319 0 0.79863550430605224 1.1979532564590785 0 0.90272254615639791 1 I I #
point $-1 -69.437878596631364 24.562005259377102 8.3241647147538202 #
edge $-1 $279 1 $279 0 $157 $-1 forward 7 unknown #
vertex $-1 $158 $280 #
ellipse-curve $-1 -69.529048334022875 34.343941174726453 5.9526908601167259 -0.6018150307709319 0 0.79863550430605224 1.1979532564590785 0 0.90272254615639791 1 I I #
point $-1 -69.437878596631364 34.343941174726453 8.3241647147538202 #
loop $-1 $-1 $233 $161 #
plane-surface $-1 0 40.865231784959349 0 0 -1 0 0 0 -1 forward_v I I I I #
coedge $-1 $165 $164 $239 $281 reversed $67 $-1 #
coedge $-1 $282 $283 $165 $234 forward $230 $-1 #
edge $-1 $236 -101.32136847371424 $284 -92.041736926137105 $233 $285 forward 7 unknown #
coedge $-1 $171 $166 $283 $286 reversed $106 $-1 #
vertex $-1 $167 $287 #
straight-curve $-1 73.880428479873046 14.523825389462317 4.0265597193523703 0 1 0 I I #
coedge $-1 $288 $168 $171 $243 forward $162 $-1 #
coedge $-1 $168 $288 $232 $281 forward $162 $-1 #
vertex $-1 $169 $289 #
straight-curve $-1 26.01879880285091 17.230069772889927 9.8664211461888556 1 0 0 I I #
straight-curve $-1 -40.951323832760522 17.230069772889927 97.015481157814719 -0.77714595512881146 0 0.62932039886446345 I I #
edge $-1 $172 17.230069772889927 $290 40.865231784959349 $171 $291 forward 7 unknown #
point $-1 73.880428479873046 17.230069772889927 9.8664211461888609 #
point $-1 73.880428479873046 17.230069772889927 4.0265597193523774 #
edge $-1 $292 1 $292 0 $175 $-1 forward 7 unknown #
vertex $-1 $176 $293 #
ellipse-curve $-1 69.611299540481482 29.047650778924634 6.1273647925751851 0.62932039886446345 0 0.77714595512881146 0.77714595512881146 0 -0.62932039886446345 1 I I #
point $-1 71.05176037385921 29.047650778924634 6.3171700339061561 #
plane-surface $-1 73.880428479873046 0 0 -1 0 0 0 0 1 forward_v I I I I #
coedge $-1 $184 $182 $186 $255 reversed $121 $-1 #
edge $-1 $197 -9.8664211461888609 $257 9.8664211461888609 $196 $294 forward 7 unknown #
vertex $-1 $255 $295 #
straight-curve $-1 -73.880428479873046 -40.865231784959349 0 0 0 -1 I I #
edge $-1 $253 -40.865231784959349 $257 40.865231784959349 $251 $296 forward 7 unknown #
straight-curve $-1 0 -40.865231784959349 -9.8664211461888609 -1 0 0 I I #
vertex $-1 $189 $297 #
straight-curve $-1 0 40.865231784959349 -9.8664211461888609 1 0 0 I I #
point $-1 73.880428479873046 40.865231784959349 -9.8664211461888609 #
point $-1 73.880428479873046 -40.865231784959349 -9.8664211461888609 #
straight-curve $-1 -73.880428479873046 0 9.8664211461888609 0 -1 0 I I #
point $-1 -73.880428479873046 40.865231784959349 9.8664211461888609 #
point $-1 -73.880428479873046 -40.865231784959349 9.8664211461888609 #
straight-curve $-1 73.880428479873046 -40.865231784959349 0 0 0 -1 I I #
straight-curve $-1 73.880428479873046 40.865231784959349 0 0 0 -1 I I #
coedge $-1 $267 $208 $273 $298 reversed $140 $-1 #
coedge $-1 $208 $266 $211 $271 reversed $140 $-1 #
edge $-1 $269 -26.13874517643346 $216 -3.314228040618314 $215 $299 forward 7 unknown #
vertex $-1 $210 $300 #
straight-curve $-1 -51.515191078686669 40.865231784959349 21.829878750698104 -0.79863550430605224 0 -0.6018150307709319 I I #
edge $-1 $212 67.391235226307842 $275 73.880428479873046 $267 $301 forward 7 unknown #
point $-1 -67.391235226307842 40.865231784959349 9.8664211461888609 #
coedge $-1 $215 $214 $266 $298 forward $206 $-1 #
point $-1 -73.880428479873046 18.040714649144203 4.9764631910059904 #
vertex $-1 $271 $302 #
straight-curve $-1 -73.880428479873046 0 9.8664211461888609 0 -1 0 I I #
vertex $-1 $222 $303 #
point $-1 -68.331095077563788 24.562005259377102 6.855413406273124 #
vertex $-1 $226 $304 #
point $-1 -68.331095077563788 34.343941174726453 6.855413406273124 #
edge $-1 $284 -26.341406395497025 $240 -2.7062443834276095 $239 $305 forward 7 unknown #
coedge $-1 $283 $233 $288 $306 reversed $230 $-1 #
coedge $-1 $233 $282 $235 $286 forward $230 $-1 #
vertex $-1 $234 $307 #
straight-curve $-1 -4.8610631975898482 40.865231784959349 67.790163740723486 -0.77714595512881146 0 0.62932039886446345 I I #
edge $-1 $290 -9.8664211461888609 $236 -4.0265597193523641 $235 $308 forward 7 unknown #
point $-1 73.880428479873046 40.865231784959349 4.0265597193523641 #
coedge $-1 $239 $238 $282 $306 forward $162 $-1 #
point $-1 66.668800357587784 17.230069772889927 9.8664211461888698 #
vertex $-1 $243 $309 #
straight-curve $-1 73.880428479873046 0 9.8664211461888609 0 1 0 I I #
vertex $-1 $246 $310 #
point $-1 70.388445495610299 29.047650778924634 5.498044393710722 #
straight-curve $-1 -73.880428479873046 40.865231784959349 0 0 0 -1 I I #
point $-1 -73.880428479873046 -40.865231784959349 -9.8664211461888609 #
straight-curve $-1 -73.880428479873046 0 -9.8664211461888609 0 1 0 I I #
point $-1 -73.880428479873046 40.865231784959349 -9.8664211461888609 #
edge $-1 $275 -9.8664211461888609 $269 -4.9764631910059904 $266 $311 forward 7 unknown #
straight-curve $-1 -73.880428479873046 14.726486608525889 4.976463191005986 0 -1 0 I I #
point $-1 -73.880428479873046 40.865231784959349 4.9764631910059904 #
straight-curve $-1 0 40.865231784959349 9.8664211461888609 -1 0 0 I I #
point $-1 -73.880428479873046 40.865231784959349 9.8664211461888609 #
point $-1 -68.626325787866463 24.562005259377102 4.7547376036576479 #
point $-1 -68.626325787866463 34.343941174726453 4.7547376036576479 #
straight-curve $-1 66.668800357587799 14.523825389462317 9.8664211461888556 0 -1 0 I I #
edge $-1 $290 -73.880428479873046 $284 -66.668800357587784 $282 $312 forward 7 unknown #
point $-1 66.668800357587784 40.865231784959342 9.8664211461888698 #
straight-curve $-1 73.880428479873046 40.865231784959349 0 0 0 -1 I I #
point $-1 73.880428479873046 40.865231784959349 9.8664211461888609 #
point $-1 68.981979141617032 29.047650778924634 5.3502188374463744 #
straight-curve $-1 -73.880428479873046 40.865231784959349 0 0 0 -1 I I #
straight-curve $-1 0 40.865231784959349 9.8664211461888609 -1 0 0 I I #
End-of-ACIS-data 