500 0 7 0           
7 Unknown 11 ACIS 5.0 NT 24 Fri Mar 26 16:35:08 1999 
-1 9.9999999999999995e-007 1e-010 
body $-1 $7 $-1 $8 #
body $-1 $9 $-1 $10 #
body $-1 $11 $-1 $12 #
body $-1 $13 $-1 $14 #
body $-1 $15 $-1 $16 #
body $-1 $17 $-1 $18 #
body $-1 $19 $-1 $20 #
lump $-1 $-1 $21 $0 #
transform $-1 1 0 0 0 1 0 0 0 1 42.437818536942657 18.262754575927868 6.2159801922345883 1 rotate no_reflect no_shear #
lump $-1 $-1 $22 $1 #
transform $-1 1 0 0 0 1 0 0 0 1 42.437818536942657 18.262754575927868 6.2159801922345883 1 rotate no_reflect no_shear #
lump $-1 $-1 $23 $2 #
transform $-1 1 0 0 0 1 0 0 0 1 42.437818536942657 18.262754575927868 6.2159801922345883 1 rotate no_reflect no_shear #
lump $-1 $-1 $24 $3 #
transform $-1 1 0 0 0 1 0 0 0 1 42.437818536942657 18.262754575927868 6.2159801922345883 1 rotate no_reflect no_shear #
lump $-1 $-1 $25 $4 #
transform $-1 1 0 0 0 1 0 0 0 1 42.437818536942657 18.262754575927868 6.2159801922345883 1 rotate no_reflect no_shear #
lump $-1 $-1 $26 $5 #
transform $-1 1 0 0 0 1 0 0 0 1 42.437818536942657 18.262754575927868 6.2159801922345883 1 rotate no_reflect no_shear #
lump $-1 $-1 $27 $6 #
transform $-1 1 0 0 0 1 0 0 0 1 42.437818536942657 18.262754575927868 6.2159801922345883 1 rotate no_reflect no_shear #
shell $-1 $-1 $-1 $28 $-1 $7 #
shell $-1 $-1 $-1 $29 $-1 $9 #
shell $-1 $-1 $-1 $30 $-1 $11 #
shell $-1 $-1 $-1 $31 $-1 $13 #
shell $-1 $-1 $-1 $32 $-1 $15 #
shell $-1 $-1 $-1 $33 $-1 $17 #
shell $-1 $-1 $-1 $34 $-1 $19 #
face $-1 $35 $36 $21 $-1 $37 forward single #
face $-1 $38 $39 $22 $-1 $40 forward single #
face $-1 $41 $42 $23 $-1 $43 reversed single #
face $-1 $44 $45 $24 $-1 $46 forward single #
face $-1 $47 $48 $25 $-1 $49 forward single #
face $-1 $50 $51 $26 $-1 $52 reversed single #
face $-1 $53 $54 $27 $-1 $55 forward single #
face $-1 $56 $57 $21 $-1 $58 reversed single #
loop $-1 $-1 $59 $28 #
plane-surface $-1 0 0 6.2159801922345883 0 0 1 1 0 0 forward_v I I I I #
face $-1 $60 $61 $22 $-1 $62 reversed single #
loop $-1 $-1 $63 $29 #
plane-surface $-1 0 -18.262754575927868 0 0 1 0 0 0 1 forward_v I I I I #
face $-1 $64 $65 $23 $-1 $66 reversed single #
loop $-1 $-1 $67 $30 #
plane-surface $-1 -113.62051796579976 -4.8399295502294581 47.74275767667848 0 1 0 -0.83867057594974714 0 0.54463902268945019 forward_v I I I I #
face $-1 $68 $69 $24 $-1 $70 forward single #
loop $-1 $71 $72 $31 #
cone-surface $-1 -40.492438270723802 -2.7304329327200687 3.5937574100791276 0.83867057594974714 0 -0.54463902268945019 0.2723195113447251 0 0.41933528797487357 1 I I 0 1 0.5 forward I I I I #
face $-1 $73 $74 $25 $-1 $75 forward single #
loop $-1 $76 $77 $32 #
cone-surface $-1 -40.492438270723802 0.433811993544019 3.5937574100791276 0.83867057594974714 0 -0.54463902268945019 0.2723195113447251 0 0.41933528797487357 1 I I 0 1 0.5 forward I I I I #
face $-1 $78 $79 $26 $-1 $80 reversed single #
loop $-1 $-1 $81 $33 #
plane-surface $-1 13.399383467150486 -2.9063102466616257 118.93206006946902 0 -1 0 -0.51503808176128008 0 -0.85716729658548041 forward_v I I I I #
face $-1 $82 $83 $27 $-1 $84 forward single #
loop $-1 $85 $86 $34 #
cone-surface $-1 37.943454804328887 -6.6804958195912807 2.055169184858622 -0.51503808176128008 0 -0.85716729658548041 1.2857509448782207 0 -0.77255712264192011 1 I I 0 1 1.5 forward I I I I #
face $-1 $87 $88 $21 $-1 $89 reversed single #
loop $-1 $-1 $90 $35 #
plane-surface $-1 0 0 -6.2159801922345883 0 0 1 1 0 0 forward_v I I I I #
coedge $-1 $91 $92 $93 $94 forward $36 $-1 #
face $-1 $95 $96 $22 $-1 $97 forward single #
loop $-1 $-1 $98 $38 #
plane-surface $-1 -42.437818536942657 0 0 1 0 0 0 0 -1 forward_v I I I I #
coedge $-1 $99 $100 $101 $102 forward $39 $-1 #
face $-1 $103 $104 $23 $-1 $105 reversed single #
loop $-1 $-1 $106 $41 #
plane-surface $-1 -42.437818536942657 -1.1483104695880222 1.5161736506131192 -0.83867057594974714 0 0.54463902268945019 0.54463902268945019 0 0.83867057594974714 forward_v I I I I #
coedge $-1 $107 $108 $109 $110 reversed $42 $-1 #
face $-1 $-1 $111 $24 $-1 $112 forward single #
loop $-1 $113 $114 $44 #
cone-surface $-1 -39.863435338761491 -2.7304329327200687 3.1852781430620398 0.83867057594974714 0 -0.54463902268945019 0.13615975567236255 0 0.20966764398743679 1 I I -0.70710678118654746 0.70710678118654746 0.25 forward I I I I #
loop $-1 $-1 $115 $31 #
coedge $-1 $72 $72 $116 $117 reversed $45 $-1 #
face $-1 $-1 $118 $25 $-1 $119 forward single #
loop $-1 $120 $121 $47 #
cone-surface $-1 -39.863435338761491 0.433811993544019 3.1852781430620398 0.83867057594974714 0 -0.54463902268945019 0.13615975567236255 0 0.20966764398743679 1 I I -0.70710678118654746 0.70710678118654746 0.25 forward I I I I #
loop $-1 $-1 $122 $32 #
coedge $-1 $77 $77 $123 $124 reversed $48 $-1 #
face $-1 $125 $126 $26 $-1 $127 reversed single #
loop $-1 $-1 $128 $50 #
plane-surface $-1 -30.314801839649995 -6.6804958195912807 46.179439692876372 0.51503808176128008 0 0.85716729658548041 0.85716729658548041 0 -0.51503808176128008 forward_v I I I I #
coedge $-1 $129 $130 $131 $132 reversed $51 $-1 #
face $-1 $-1 $133 $27 $-1 $134 forward single #
loop $-1 $135 $136 $53 #
cone-surface $-1 36.18394045544251 -6.6804958195912807 -0.87315439187710009 -0.51503808176128008 0 -0.85716729658548041 0.64287547243911036 0 -0.38627856132096006 1 I I -0.70710678118654757 0.70710678118654757 0.75 forward I I I I #
loop $-1 $-1 $137 $34 #
coedge $-1 $86 $86 $138 $139 reversed $54 $-1 #
face $-1 $140 $141 $21 $-1 $142 reversed single #
loop $-1 $-1 $143 $56 #
plane-surface $-1 0 -18.262754575927868 0 0 1 0 0 0 1 forward_v I I I I #
coedge $-1 $144 $145 $146 $147 forward $57 $-1 #
coedge $-1 $148 $59 $149 $150 forward $36 $-1 #
coedge $-1 $59 $148 $151 $152 forward $36 $-1 #
coedge $-1 $153 $154 $59 $94 reversed $155 $-1 #
edge $-1 $156 -18.262754575927868 $157 18.262754575927868 $93 $158 forward 7 unknown #
face $-1 $159 $160 $22 $-1 $161 reversed single #
loop $-1 $-1 $162 $60 #
plane-surface $-1 0 -22.166791167631335 3.5830999641945005 0 0 1 1 0 0 forward_v I I I I #
coedge $-1 $163 $164 $100 $165 forward $61 $-1 #
coedge $-1 $166 $63 $167 $168 reversed $39 $-1 #
coedge $-1 $63 $166 $98 $165 reversed $39 $-1 #
coedge $-1 $169 $162 $63 $102 reversed $96 $-1 #
edge $-1 $170 -42.437818536942657 $171 42.437818536942657 $101 $172 forward 7 unknown #
face $-1 $173 $174 $23 $-1 $175 forward single #
loop $-1 $-1 $176 $64 #
plane-surface $-1 -113.62051796579976 2.5433086110534138 47.74275767667848 0 -1 0 0.83867057594974714 0 -0.54463902268945019 forward_v I I I I #
coedge $-1 $177 $178 $179 $180 reversed $65 $-1 #
coedge $-1 $108 $67 $181 $182 reversed $42 $-1 #
coedge $-1 $67 $107 $177 $183 reversed $42 $-1 #
coedge $-1 $179 $184 $67 $110 forward $174 $-1 #
edge $-1 $185 14.372440445957224 $186 17.424530402445193 $109 $187 forward 7 unknown #
loop $-1 $-1 $116 $68 #
plane-surface $-1 -42.437818536942657 -1.1483104695880222 1.5161736506131192 -0.83867057594974714 0 0.54463902268945019 0.54463902268945019 0 0.83867057594974714 forward_v I I I I #
loop $-1 $-1 $188 $44 #
coedge $-1 $114 $114 $115 $189 reversed $69 $-1 #
coedge $-1 $115 $115 $114 $189 forward $71 $-1 #
coedge $-1 $116 $116 $72 $117 forward $111 $-1 #
edge $-1 $190 0 $190 6.2831853071796004 $116 $191 forward 7 unknown #
loop $-1 $-1 $123 $73 #
plane-surface $-1 -42.437818536942657 -1.1483104695880222 1.5161736506131192 -0.83867057594974714 0 0.54463902268945019 0.54463902268945019 0 0.83867057594974714 forward_v I I I I #
loop $-1 $-1 $192 $47 #
coedge $-1 $121 $121 $122 $193 reversed $74 $-1 #
coedge $-1 $122 $122 $121 $193 forward $76 $-1 #
coedge $-1 $123 $123 $77 $124 forward $118 $-1 #
edge $-1 $194 0 $194 6.2831853071796004 $123 $195 forward 7 unknown #
face $-1 $196 $197 $26 $-1 $198 reversed single #
loop $-1 $-1 $199 $78 #
plane-surface $-1 13.399383467150486 -10.454681392520936 118.93206006946902 0 1 0 0.51503808176128008 0 0.85716729658548041 forward_v I I I I #
coedge $-1 $200 $201 $202 $203 reversed $79 $-1 #
coedge $-1 $130 $81 $204 $205 reversed $51 $-1 #
coedge $-1 $81 $129 $200 $206 reversed $51 $-1 #
coedge $-1 $202 $207 $81 $132 forward $208 $-1 #
edge $-1 $209 -35.738126803367415 $210 -29.495870913270721 $131 $211 forward 7 unknown #
loop $-1 $-1 $138 $82 #
plane-surface $-1 -30.314801839649995 -6.6804958195912807 46.179439692876372 0.51503808176128008 0 0.85716729658548041 0.85716729658548041 0 -0.51503808176128008 forward_v I I I I #
loop $-1 $-1 $212 $53 #
coedge $-1 $136 $136 $137 $213 reversed $83 $-1 #
coedge $-1 $137 $137 $136 $213 forward $85 $-1 #
coedge $-1 $138 $138 $86 $139 forward $133 $-1 #
edge $-1 $214 0 $214 6.2831853071796004 $138 $215 forward 7 unknown #
face $-1 $216 $217 $21 $-1 $218 reversed single #
loop $-1 $-1 $219 $87 #
plane-surface $-1 -42.437818536942657 0 0 1 0 0 0 0 -1 forward_v I I I I #
coedge $-1 $220 $151 $221 $222 forward $88 $-1 #
coedge $-1 $223 $90 $220 $224 forward $57 $-1 #
coedge $-1 $90 $223 $225 $226 forward $57 $-1 #
coedge $-1 $154 $153 $90 $147 reversed $155 $-1 #
edge $-1 $227 -18.262754575927868 $228 18.262754575927868 $146 $229 forward 7 unknown #
coedge $-1 $92 $91 $230 $231 forward $36 $-1 #
coedge $-1 $232 $233 $91 $150 reversed $217 $-1 #
edge $-1 $157 -42.437818536942657 $234 42.437818536942657 $149 $235 forward 7 unknown #
coedge $-1 $143 $236 $92 $152 reversed $88 $-1 #
edge $-1 $237 -42.437818536942657 $156 42.437818536942657 $151 $238 forward 7 unknown #
coedge $-1 $146 $93 $236 $239 forward $155 $-1 #
coedge $-1 $93 $146 $232 $240 reversed $155 $-1 #
loop $-1 $-1 $153 $216 #
vertex $-1 $94 $241 #
vertex $-1 $94 $242 #
straight-curve $-1 42.437818536942657 0 6.2159801922345883 0 1 0 I I #
face $-1 $243 $244 $22 $-1 $245 reversed single #
loop $-1 $-1 $246 $95 #
plane-surface $-1 0 -22.166791167631335 0.044200751995145726 0 0 1 1 0 0 forward_v I I I I #
coedge $-1 $101 $247 $248 $249 forward $96 $-1 #
coedge $-1 $250 $98 $251 $252 reversed $61 $-1 #
coedge $-1 $98 $250 $169 $253 reversed $61 $-1 #
edge $-1 $170 -3.5830999641945005 $254 -0.044200751995145726 $98 $255 forward 7 unknown #
coedge $-1 $100 $99 $256 $257 forward $39 $-1 #
coedge $-1 $248 $258 $99 $168 forward $259 $-1 #
edge $-1 $260 0.044200751995145726 $171 3.5830999641945005 $167 $261 forward 7 unknown #
coedge $-1 $247 $101 $164 $253 forward $96 $-1 #
vertex $-1 $165 $262 #
vertex $-1 $249 $263 #
straight-curve $-1 0 -18.262754575927868 3.5830999641945005 1 0 0 I I #
face $-1 $-1 $264 $23 $-1 $265 reversed single #
loop $-1 $-1 $109 $103 #
plane-surface $-1 0 0 6.2159801922345883 0 0 1 1 0 0 forward_v I I I I #
coedge $-1 $266 $267 $268 $269 reversed $104 $-1 #
coedge $-1 $270 $106 $108 $183 forward $65 $-1 #
coedge $-1 $106 $270 $266 $271 forward $65 $-1 #
coedge $-1 $268 $109 $106 $180 forward $174 $-1 #
edge $-1 $186 -4.2657743154354471 $272 3.1174638458474249 $179 $273 forward 7 unknown #
coedge $-1 $274 $275 $107 $182 forward $264 $-1 #
edge $-1 $276 -22.355205187726121 $185 -17.655398646104651 $181 $277 forward 7 unknown #
edge $-1 $186 -5.6038767501759601 $276 0 $108 $278 forward 7 unknown #
coedge $-1 $109 $268 $274 $279 forward $174 $-1 #
vertex $-1 $182 $280 #
vertex $-1 $110 $281 #
straight-curve $-1 -56.810258982899882 -4.8399295502294581 6.2159801922345892 1 0 0 I I #
coedge $-1 $188 $188 $-1 $282 reversed $113 $-1 #
edge $-1 $283 0 $283 6.2831853071796004 $114 $284 forward 7 unknown #
vertex $-1 $117 $285 #
ellipse-curve $-1 -40.911773558698677 -2.7304329327200687 3.866076921423852 -0.83867057594974714 0 0.54463902268945019 0.2723195113447251 0 0.41933528797487357 1 I I #
coedge $-1 $192 $192 $-1 $286 reversed $120 $-1 #
edge $-1 $287 0 $287 6.2831853071796004 $121 $288 forward 7 unknown #
vertex $-1 $124 $289 #
ellipse-curve $-1 -40.911773558698677 0.433811993544019 3.866076921423852 -0.83867057594974714 0 0.54463902268945019 0.2723195113447251 0 0.41933528797487357 1 I I #
face $-1 $-1 $208 $26 $-1 $290 forward single #
loop $-1 $-1 $291 $125 #
plane-surface $-1 42.437818536942657 0 0 -1 0 0 0 0 1 forward_v I I I I #
coedge $-1 $292 $293 $294 $295 reversed $126 $-1 #
coedge $-1 $296 $128 $130 $206 forward $79 $-1 #
coedge $-1 $128 $296 $292 $297 forward $79 $-1 #
coedge $-1 $294 $131 $128 $203 forward $208 $-1 #
edge $-1 $210 -0.43393766313401461 $298 7.1144334827252953 $202 $299 forward 7 unknown #
coedge $-1 $300 $301 $129 $205 forward $197 $-1 #
edge $-1 $302 -57.000775648658625 $209 -53.250049842499919 $204 $303 forward 7 unknown #
edge $-1 $210 77.593212843559826 $302 84.875637073885329 $130 $304 forward 7 unknown #
coedge $-1 $131 $294 $300 $305 forward $208 $-1 #
loop $-1 $-1 $294 $196 #
vertex $-1 $205 $306 #
vertex $-1 $132 $307 #
straight-curve $-1 6.6996917335752428 -2.9063102466616257 6.2159801922345892 -1 0 0 I I #
coedge $-1 $212 $212 $-1 $308 reversed $135 $-1 #
edge $-1 $309 0 $309 6.2831853071796004 $136 $310 forward 7 unknown #
vertex $-1 $139 $311 #
ellipse-curve $-1 39.316690591894314 -6.6804958195912807 4.3406172891552481 0.51503808176128008 0 0.85716729658548041 1.2857509448782207 0 -0.77255712264192011 1 I I #
face $-1 $-1 $155 $21 $-1 $312 reversed single #
loop $-1 $-1 $232 $140 #
plane-surface $-1 0 18.262754575927868 0 0 -1 0 0 0 -1 forward_v I I I I #
coedge $-1 $313 $230 $233 $314 forward $141 $-1 #
coedge $-1 $236 $143 $144 $224 reversed $88 $-1 #
coedge $-1 $230 $313 $143 $222 reversed $141 $-1 #
edge $-1 $237 -6.2159801922345883 $315 6.2159801922345883 $221 $316 forward 7 unknown #
coedge $-1 $145 $144 $313 $317 forward $57 $-1 #
edge $-1 $228 -42.437818536942657 $315 42.437818536942657 $220 $318 forward 7 unknown #
coedge $-1 $233 $232 $145 $226 reversed $217 $-1 #
edge $-1 $319 -42.437818536942657 $227 42.437818536942657 $225 $320 forward 7 unknown #
vertex $-1 $147 $321 #
vertex $-1 $239 $322 #
straight-curve $-1 42.437818536942657 0 -6.2159801922345883 0 -1 0 I I #
coedge $-1 $219 $221 $148 $231 reversed $141 $-1 #
edge $-1 $234 -18.262754575927868 $237 18.262754575927868 $230 $323 forward 7 unknown #
coedge $-1 $225 $149 $154 $240 forward $217 $-1 #
coedge $-1 $149 $225 $219 $314 reversed $217 $-1 #
vertex $-1 $150 $324 #
straight-curve $-1 0 18.262754575927868 6.2159801922345883 -1 0 0 I I #
coedge $-1 $151 $220 $153 $239 reversed $88 $-1 #
vertex $-1 $231 $325 #
straight-curve $-1 0 -18.262754575927868 6.2159801922345883 1 0 0 I I #
edge $-1 $156 -6.2159801922345883 $228 6.2159801922345883 $153 $326 forward 7 unknown #
edge $-1 $157 -6.2159801922345883 $227 6.2159801922345883 $154 $327 forward 7 unknown #
point $-1 42.437818536942657 -18.262754575927868 6.2159801922345883 #
point $-1 42.437818536942657 18.262754575927868 6.2159801922345883 #
face $-1 $-1 $259 $22 $-1 $328 reversed single #
loop $-1 $-1 $329 $159 #
plane-surface $-1 0 -26.070827759334801 1.8136503580948231 0 1 0 0 0 1 forward_v I I I I #
coedge $-1 $330 $256 $258 $331 forward $160 $-1 #
coedge $-1 $162 $169 $332 $333 forward $96 $-1 #
coedge $-1 $334 $167 $162 $249 reversed $259 $-1 #
edge $-1 $335 -3.9040365917034663 $171 3.9040365917034663 $248 $336 forward 7 unknown #
coedge $-1 $164 $163 $329 $337 reversed $61 $-1 #
coedge $-1 $256 $330 $163 $252 forward $160 $-1 #
edge $-1 $338 -3.9040365917034663 $254 3.9040365917034663 $163 $339 forward 7 unknown #
edge $-1 $170 -3.9040365917034663 $340 3.9040365917034663 $164 $341 forward 7 unknown #
vertex $-1 $165 $342 #
straight-curve $-1 -42.437818536942657 -18.262754575927868 0 0 0 -1 I I #
coedge $-1 $246 $251 $166 $257 reversed $160 $-1 #
edge $-1 $260 -42.437818536942657 $254 42.437818536942657 $256 $343 forward 7 unknown #
coedge $-1 $167 $334 $246 $331 reversed $259 $-1 #
loop $-1 $-1 $167 $243 #
vertex $-1 $168 $344 #
straight-curve $-1 42.437818536942657 -18.262754575927868 0 0 0 1 I I #
point $-1 -42.437818536942657 -18.262754575927868 3.5830999641945005 #
point $-1 42.437818536942657 -18.262754575927868 3.5830999641945005 #
loop $-1 $-1 $181 $173 #
plane-surface $-1 -42.437818536942657 0 0 1 0 0 0 0 -1 forward_v I I I I #
coedge $-1 $267 $176 $178 $271 reversed $104 $-1 #
coedge $-1 $176 $266 $345 $346 reversed $104 $-1 #
coedge $-1 $184 $179 $176 $269 forward $174 $-1 #
edge $-1 $272 -17.424530402445193 $347 -14.372440445957224 $268 $348 forward 7 unknown #
coedge $-1 $178 $177 $275 $349 reversed $65 $-1 #
edge $-1 $350 0 $272 5.6038767501759601 $266 $351 forward 7 unknown #
vertex $-1 $180 $352 #
straight-curve $-1 -39.385728580454696 -0.57415523479401109 6.2159801922345892 0 1 0 I I #
coedge $-1 $345 $181 $184 $279 reversed $264 $-1 #
coedge $-1 $181 $345 $270 $349 forward $264 $-1 #
vertex $-1 $182 $353 #
straight-curve $-1 -42.437818536942657 -4.8399295502294581 23.87137883833924 0 0 1 I I #
straight-curve $-1 -42.437818536942657 -4.8399295502294581 1.5161736506131192 -0.54463902268945019 0 -0.83867057594974714 I I #
edge $-1 $347 -2.5433086110534138 $185 4.8399295502294581 $274 $354 forward 7 unknown #
point $-1 -42.437818536942657 -4.8399295502294581 6.2159801922345883 #
point $-1 -39.385728580454689 -4.8399295502294581 6.2159801922345883 #
edge $-1 $355 1 $355 0 $188 $-1 forward 7 unknown #
vertex $-1 $189 $356 #
ellipse-curve $-1 -40.073102982748928 -2.7304329327200687 3.3214378987344024 -0.83867057594974714 0 0.54463902268945019 0.2723195113447251 0 0.41933528797487357 1 I I #
point $-1 -40.639454047353951 -2.7304329327200687 4.2854122093987259 #
edge $-1 $357 1 $357 0 $192 $-1 forward 7 unknown #
vertex $-1 $193 $358 #
ellipse-curve $-1 -40.073102982748928 0.433811993544019 3.3214378987344024 -0.83867057594974714 0 0.54463902268945019 0.2723195113447251 0 0.41933528797487357 1 I I #
point $-1 -40.639454047353951 0.433811993544019 4.2854122093987259 #
plane-surface $-1 0 0 6.2159801922345883 0 0 1 1 0 0 forward_v I I I I #
coedge $-1 $301 $300 $293 $359 forward $197 $-1 #
coedge $-1 $293 $199 $201 $297 reversed $126 $-1 #
coedge $-1 $199 $292 $291 $359 reversed $126 $-1 #
coedge $-1 $207 $202 $199 $295 forward $208 $-1 #
edge $-1 $298 29.495870913270721 $360 35.738126803367415 $294 $361 forward 7 unknown #
coedge $-1 $201 $200 $301 $362 reversed $79 $-1 #
edge $-1 $363 -84.875637073885329 $298 -77.593212843559826 $292 $364 forward 7 unknown #
vertex $-1 $203 $365 #
straight-curve $-1 36.195562646845971 -3.3402479097956403 6.2159801922345856 0 -1 0 I I #
coedge $-1 $291 $204 $207 $305 reversed $197 $-1 #
coedge $-1 $204 $291 $296 $362 forward $197 $-1 #
vertex $-1 $205 $366 #
straight-curve $-1 42.437818536942657 -2.9063102466616257 59.466030034734509 0 0 1 I I #
straight-curve $-1 -30.314801839649995 -2.9063102466616257 46.179439692876372 0.85716729658548041 0 -0.51503808176128008 I I #
edge $-1 $360 -10.454681392520936 $209 -2.9063102466616257 $300 $367 forward 7 unknown #
point $-1 42.437818536942657 -2.9063102466616257 6.2159801922345883 #
point $-1 36.195562646845964 -2.9063102466616257 6.2159801922345892 #
edge $-1 $368 1 $368 0 $212 $-1 forward 7 unknown #
vertex $-1 $213 $369 #
ellipse-curve $-1 36.570219016763467 -6.6804958195912807 -0.23027891943798973 0.51503808176128008 0 0.85716729658548041 1.2857509448782207 0 -0.77255712264192011 1 I I #
point $-1 40.602441536772524 -6.6804958195912807 3.5680601665133134 #
plane-surface $-1 42.437818536942657 0 0 -1 0 0 0 0 1 forward_v I I I I #
coedge $-1 $221 $219 $223 $317 reversed $141 $-1 #
edge $-1 $234 -6.2159801922345883 $319 6.2159801922345883 $233 $370 forward 7 unknown #
vertex $-1 $317 $371 #
straight-curve $-1 -42.437818536942657 -18.262754575927868 0 0 0 -1 I I #
edge $-1 $315 -18.262754575927868 $319 18.262754575927868 $313 $372 forward 7 unknown #
straight-curve $-1 0 -18.262754575927868 -6.2159801922345883 -1 0 0 I I #
vertex $-1 $226 $373 #
straight-curve $-1 0 18.262754575927868 -6.2159801922345883 1 0 0 I I #
point $-1 42.437818536942657 18.262754575927868 -6.2159801922345883 #
point $-1 42.437818536942657 -18.262754575927868 -6.2159801922345883 #
straight-curve $-1 -42.437818536942657 0 6.2159801922345883 0 -1 0 I I #
point $-1 -42.437818536942657 18.262754575927868 6.2159801922345883 #
point $-1 -42.437818536942657 -18.262754575927868 6.2159801922345883 #
straight-curve $-1 42.437818536942657 -18.262754575927868 0 0 0 -1 I I #
straight-curve $-1 42.437818536942657 18.262754575927868 0 0 0 -1 I I #
plane-surface $-1 42.437818536942657 0 0 -1 0 0 0 0 1 forward_v I I I I #
coedge $-1 $374 $332 $250 $337 forward $244 $-1 #
coedge $-1 $251 $246 $374 $375 forward $160 $-1 #
edge $-1 $260 -3.9040365917034663 $376 3.9040365917034663 $258 $377 forward 7 unknown #
coedge $-1 $329 $378 $247 $333 reversed $244 $-1 #
edge $-1 $340 -42.437818536942657 $335 42.437818536942657 $332 $379 forward 7 unknown #
coedge $-1 $258 $248 $378 $380 forward $259 $-1 #
vertex $-1 $249 $381 #
straight-curve $-1 42.437818536942657 -22.166791167631335 3.5830999641945005 0 1 0 I I #
edge $-1 $340 -1.7694496060996774 $338 1.7694496060996774 $250 $382 forward 7 unknown #
vertex $-1 $252 $383 #
straight-curve $-1 -42.437818536942657 -22.166791167631335 0.044200751995145726 0 1 0 I I #
vertex $-1 $253 $384 #
straight-curve $-1 -42.437818536942657 -22.166791167631335 3.5830999641945005 0 -1 0 I I #
point $-1 -42.437818536942657 -18.262754575927868 0.044200751995145726 #
straight-curve $-1 0 -18.262754575927868 0.044200751995145726 -1 0 0 I I #
point $-1 42.437818536942657 -18.262754575927868 0.044200751995145726 #
coedge $-1 $275 $274 $267 $346 forward $264 $-1 #
edge $-1 $347 17.655398646104651 $350 22.355205187726121 $345 $385 forward 7 unknown #
vertex $-1 $279 $386 #
straight-curve $-1 -56.810258982899882 2.5433086110534138 6.2159801922345892 -1 0 0 I I #
edge $-1 $350 -3.1174638458474249 $276 4.2657743154354471 $275 $387 forward 7 unknown #
vertex $-1 $349 $388 #
straight-curve $-1 -42.437818536942657 2.5433086110534138 1.5161736506131192 0.54463902268945019 0 0.83867057594974714 I I #
point $-1 -39.385728580454689 2.5433086110534138 6.2159801922345883 #
point $-1 -42.437818536942657 -4.8399295502294581 1.5161736506131192 #
straight-curve $-1 -42.437818536942657 0 6.2159801922345883 0 -1 0 I I #
vertex $-1 $282 $389 #
point $-1 -39.800783471404202 -2.7304329327200687 3.7407731867092759 #
vertex $-1 $286 $390 #
point $-1 -39.800783471404202 0.433811993544019 3.7407731867092759 #
edge $-1 $360 53.250049842499919 $363 57.000775648658625 $291 $391 forward 7 unknown #
vertex $-1 $305 $392 #
straight-curve $-1 6.6996917335752428 -10.454681392520936 6.2159801922345892 1 0 0 I I #
edge $-1 $363 -7.1144334827252953 $302 0.43393766313401461 $301 $393 forward 7 unknown #
vertex $-1 $362 $394 #
straight-curve $-1 -30.314801839649995 -10.454681392520936 46.179439692876372 -0.85716729658548041 0 0.51503808176128008 I I #
point $-1 36.195562646845964 -10.454681392520936 6.2159801922345892 #
point $-1 42.437818536942665 -2.9063102466616257 2.465254386075884 #
straight-curve $-1 42.437818536942657 0 6.2159801922345883 0 1 0 I I #
vertex $-1 $308 $395 #
point $-1 37.855969961641691 -6.6804958195912807 -1.0028360420799098 #
straight-curve $-1 -42.437818536942657 18.262754575927868 0 0 0 -1 I I #
point $-1 -42.437818536942657 -18.262754575927868 -6.2159801922345883 #
straight-curve $-1 -42.437818536942657 0 -6.2159801922345883 0 1 0 I I #
point $-1 -42.437818536942657 18.262754575927868 -6.2159801922345883 #
coedge $-1 $378 $329 $330 $375 reversed $244 $-1 #
edge $-1 $376 -42.437818536942657 $338 42.437818536942657 $374 $396 forward 7 unknown #
vertex $-1 $380 $397 #
straight-curve $-1 42.437818536942657 -22.166791167631335 0.044200751995145726 0 -1 0 I I #
coedge $-1 $332 $374 $334 $380 reversed $244 $-1 #
straight-curve $-1 0 -26.070827759334801 3.5830999641945005 1 0 0 I I #
edge $-1 $335 -1.7694496060996774 $376 1.7694496060996774 $334 $398 forward 7 unknown #
point $-1 42.437818536942657 -26.070827759334801 3.5830999641945005 #
straight-curve $-1 -42.437818536942657 -26.070827759334801 1.8136503580948231 0 0 -1 I I #
point $-1 -42.437818536942657 -26.070827759334801 0.044200751995145726 #
point $-1 -42.437818536942657 -26.070827759334801 3.5830999641945005 #
straight-curve $-1 -42.437818536942657 2.5433086110534138 23.87137883833924 0 0 -1 I I #
point $-1 -42.437818536942657 2.5433086110534138 6.2159801922345883 #
straight-curve $-1 -42.437818536942657 -0.57415523479401109 1.5161736506131176 0 -1 0 I I #
point $-1 -42.437818536942657 2.5433086110534138 1.5161736506131192 #
point $-1 -39.653767694774054 -2.7304329327200687 3.0491183873896772 #
point $-1 -39.653767694774054 0.433811993544019 3.0491183873896772 #
straight-curve $-1 42.437818536942657 -10.454681392520936 59.466030034734509 0 0 -1 I I #
point $-1 42.437818536942657 -10.454681392520936 6.2159801922345883 #
straight-curve $-1 42.43781853694265 -3.3402479097956403 2.4652543860758946 0 1 0 I I #
point $-1 42.437818536942665 -10.454681392520936 2.465254386075884 #
point $-1 35.797661894121553 -6.6804958195912807 -1.5160298643162105 #
straight-curve $-1 0 -26.070827759334801 0.044200751995145726 -1 0 0 I I #
point $-1 42.437818536942657 -26.070827759334801 0.044200751995145726 #
straight-curve $-1 42.437818536942657 -26.070827759334801 1.8136503580948231 0 0 -1 I I #
End-of-ACIS-data 