500 0 9 0           
7 Unknown 11 ACIS 5.0 NT 24 Thu Mar 25 16:01:38 1999 
-1 9.9999999999999995e-007 1e-010 
body $-1 $9 $-1 $10 #
body $-1 $11 $-1 $12 #
body $-1 $13 $-1 $14 #
body $-1 $15 $-1 $16 #
body $-1 $17 $-1 $18 #
body $-1 $19 $-1 $20 #
body $-1 $21 $-1 $22 #
body $-1 $23 $-1 $24 #
body $-1 $25 $-1 $26 #
lump $-1 $-1 $27 $0 #
transform $-1 1 0 0 0 1 0 0 0 1 68.977935117648855 43.812682651130054 14.914255953466441 1 rotate no_reflect no_shear #
lump $-1 $-1 $28 $1 #
transform $-1 1 0 0 0 1 0 0 0 1 68.977935117648855 43.812682651130054 14.914255953466441 1 rotate no_reflect no_shear #
lump $-1 $-1 $29 $2 #
transform $-1 1 0 0 0 1 0 0 0 1 68.977935117648855 43.812682651130054 14.914255953466441 1 rotate no_reflect no_shear #
lump $-1 $-1 $30 $3 #
transform $-1 1 0 0 0 1 0 0 0 1 68.977935117648855 43.812682651130054 14.914255953466441 1 rotate no_reflect no_shear #
lump $-1 $-1 $31 $4 #
transform $-1 1 0 0 0 1 0 0 0 1 68.977935117648855 43.812682651130054 14.914255953466441 1 rotate no_reflect no_shear #
lump $-1 $-1 $32 $5 #
transform $-1 1 0 0 0 1 0 0 0 1 68.977935117648855 43.812682651130054 14.914255953466441 1 rotate no_reflect no_shear #
lump $-1 $-1 $33 $6 #
transform $-1 1 0 0 0 1 0 0 0 1 68.977935117648855 43.812682651130054 14.914255953466441 1 rotate no_reflect no_shear #
lump $-1 $-1 $34 $7 #
transform $-1 1 0 0 0 1 0 0 0 1 68.977935117648855 43.812682651130054 14.914255953466441 1 rotate no_reflect no_shear #
lump $-1 $-1 $35 $8 #
transform $-1 1 0 0 0 1 0 0 0 1 68.977935117648855 43.812682651130054 14.914255953466441 1 rotate no_reflect no_shear #
shell $-1 $-1 $-1 $36 $-1 $9 #
shell $-1 $-1 $-1 $37 $-1 $11 #
shell $-1 $-1 $-1 $38 $-1 $13 #
shell $-1 $-1 $-1 $39 $-1 $15 #
shell $-1 $-1 $-1 $40 $-1 $17 #
shell $-1 $-1 $-1 $41 $-1 $19 #
shell $-1 $-1 $-1 $42 $-1 $21 #
shell $-1 $-1 $-1 $43 $-1 $23 #
shell $-1 $-1 $-1 $44 $-1 $25 #
face $-1 $45 $46 $27 $-1 $47 forward single #
face $-1 $48 $49 $28 $-1 $50 forward single #
face $-1 $51 $52 $29 $-1 $53 reversed single #
face $-1 $54 $55 $30 $-1 $56 forward single #
face $-1 $57 $58 $31 $-1 $59 reversed single #
face $-1 $60 $61 $32 $-1 $62 forward single #
face $-1 $63 $64 $33 $-1 $65 reversed single #
face $-1 $66 $67 $34 $-1 $68 forward single #
face $-1 $69 $70 $35 $-1 $71 forward single #
face $-1 $72 $73 $27 $-1 $74 reversed single #
loop $-1 $-1 $75 $36 #
plane-surface $-1 0 0 14.914255953466441 0 0 1 1 0 0 forward_v I I I I #
face $-1 $76 $77 $28 $-1 $78 forward single #
loop $-1 $-1 $79 $37 #
plane-surface $-1 -68.977935117648855 0 0 1 0 0 0 0 -1 forward_v I I I I #
face $-1 $80 $81 $29 $-1 $82 reversed single #
loop $-1 $-1 $83 $38 #
plane-surface $-1 -29.218883565729527 39.755611936372397 167.26205651266886 1 0 0 0 -0.51503808176128008 -0.85716729658548041 forward_v I I I I #
face $-1 $84 $85 $30 $-1 $86 forward single #
loop $-1 $87 $88 $39 #
cone-surface $-1 -13.612943632294268 33.502434613749038 7.5191285323975379 0 -0.51503808176128008 -0.85716729658548041 4 0 0 1 I I 0 1 4 forward I I I I #
face $-1 $89 $90 $31 $-1 $91 reversed single #
loop $-1 $-1 $92 $40 #
plane-surface $-1 33.766549298999188 39.755611936372397 167.26205651266886 1 0 0 0 -0.51503808176128008 -0.85716729658548041 forward_v I I I I #
face $-1 $93 $94 $32 $-1 $95 forward single #
loop $-1 $96 $97 $41 #
cone-surface $-1 49.372489232434447 33.502434613749038 7.5191285323975379 0 -0.51503808176128008 -0.85716729658548041 4 0 0 1 I I 0 1 4 forward I I I I #
face $-1 $98 $99 $33 $-1 $100 reversed single #
loop $-1 $-1 $101 $42 #
plane-surface $-1 59.614986268477224 -43.812682651130046 4.5396125851932823 0 -0.61566148304635926 0.78801074757464917 1 0 0 forward_v I I I I #
face $-1 $102 $103 $34 $-1 $104 forward single #
loop $-1 $105 $106 $43 #
cone-surface $-1 55.602293904546499 -36.103505028542806 8.3577695033673525 0 0.61566148304635926 -0.78801074757464917 1.5 0 0 1 I I 0 1 1.5 forward I I I I #
face $-1 $107 $108 $35 $-1 $109 forward single #
loop $-1 $110 $111 $44 #
cone-surface $-1 63.627678632407907 -36.103505028542806 8.3577695033673525 0 0.61566148304635926 -0.78801074757464917 1.5 0 0 1 I I 0 1 1.5 forward I I I I #
face $-1 $112 $113 $27 $-1 $114 reversed single #
loop $-1 $-1 $115 $45 #
plane-surface $-1 0 0 -14.914255953466441 0 0 1 1 0 0 forward_v I I I I #
coedge $-1 $116 $117 $118 $119 forward $46 $-1 #
face $-1 $120 $121 $28 $-1 $122 reversed single #
loop $-1 $-1 $123 $48 #
plane-surface $-1 0 0 14.914255953466441 0 0 1 1 0 0 forward_v I I I I #
coedge $-1 $124 $125 $126 $127 forward $49 $-1 #
face $-1 $128 $129 $29 $-1 $130 reversed single #
loop $-1 $-1 $131 $51 #
plane-surface $-1 -13.612943632294268 -31.296914837323406 49.01079617498138 0 0.51503808176128008 0.85716729658548041 1 0 0 forward_v I I I I #
coedge $-1 $132 $133 $134 $135 reversed $52 $-1 #
face $-1 $-1 $136 $30 $-1 $137 forward single #
loop $-1 $138 $139 $54 #
cone-surface $-1 -13.612943632294268 31.343823515862745 3.9265964368539379 0 -0.51503808176128008 -0.85716729658548041 2 0 0 1 I I -0.70710678118654746 0.70710678118654746 2 forward I I I I #
loop $-1 $-1 $140 $39 #
coedge $-1 $88 $88 $141 $142 reversed $55 $-1 #
face $-1 $143 $144 $31 $-1 $145 reversed single #
loop $-1 $-1 $146 $57 #
plane-surface $-1 49.372489232434447 -31.296914837323406 49.01079617498138 0 0.51503808176128008 0.85716729658548041 1 0 0 forward_v I I I I #
coedge $-1 $147 $148 $149 $150 reversed $58 $-1 #
face $-1 $-1 $151 $32 $-1 $152 forward single #
loop $-1 $153 $154 $60 #
cone-surface $-1 49.372489232434447 31.343823515862745 3.9265964368539379 0 -0.51503808176128008 -0.85716729658548041 2 0 0 1 I I -0.70710678118654746 0.70710678118654746 2 forward I I I I #
loop $-1 $-1 $155 $41 #
coedge $-1 $97 $97 $156 $157 reversed $61 $-1 #
face $-1 $158 $159 $33 $-1 $160 reversed single #
loop $-1 $-1 $161 $63 #
plane-surface $-1 50.25203741930558 -128.74679831514453 113.25032102162152 1 0 0 0 0.61566148304635926 -0.78801074757464917 forward_v I I I I #
coedge $-1 $162 $163 $164 $165 reversed $64 $-1 #
face $-1 $-1 $166 $34 $-1 $167 forward single #
loop $-1 $168 $169 $66 #
cone-surface $-1 55.602293904546499 -34.572050142688994 6.3975966767238504 0 0.61566148304635926 -0.78801074757464917 0.75 0 0 1 I I -0.70710678118654757 0.70710678118654757 0.75 forward I I I I #
loop $-1 $-1 $170 $43 #
coedge $-1 $106 $106 $171 $172 reversed $67 $-1 #
face $-1 $-1 $173 $35 $-1 $174 forward single #
loop $-1 $175 $176 $69 #
cone-surface $-1 63.627678632407907 -34.572050142688994 6.3975966767238504 0 0.61566148304635926 -0.78801074757464917 0.75 0 0 1 I I -0.70710678118654757 0.70710678118654757 0.75 forward I I I I #
loop $-1 $-1 $177 $44 #
coedge $-1 $111 $111 $178 $179 reversed $70 $-1 #
face $-1 $180 $181 $27 $-1 $182 reversed single #
loop $-1 $-1 $183 $72 #
plane-surface $-1 0 -43.812682651130054 0 0 1 0 0 0 1 forward_v I I I I #
coedge $-1 $184 $185 $186 $187 forward $73 $-1 #
coedge $-1 $188 $75 $189 $190 forward $46 $-1 #
coedge $-1 $75 $188 $191 $192 forward $46 $-1 #
coedge $-1 $193 $194 $75 $119 reversed $195 $-1 #
edge $-1 $196 -43.812682651130054 $197 43.812682651130054 $118 $198 forward 7 unknown #
face $-1 $199 $200 $28 $-1 $201 reversed single #
loop $-1 $-1 $202 $76 #
plane-surface $-1 -80.96293962348912 -40.51818281846959 0 1 0 0 0 0 -1 forward_v I I I I #
coedge $-1 $203 $204 $124 $205 forward $77 $-1 #
coedge $-1 $206 $79 $123 $205 reversed $49 $-1 #
coedge $-1 $79 $206 $207 $208 reversed $49 $-1 #
coedge $-1 $209 $210 $79 $127 reversed $200 $-1 #
edge $-1 $211 -14.914255953466441 $212 14.914255953466441 $126 $213 forward 7 unknown #
face $-1 $214 $215 $29 $-1 $216 forward single #
loop $-1 $-1 $217 $80 #
plane-surface $-1 1.992996301140991 39.755611936372397 167.26205651266886 -1 0 0 0 0.51503808176128008 0.85716729658548041 forward_v I I I I #
coedge $-1 $218 $219 $220 $221 reversed $81 $-1 #
coedge $-1 $133 $83 $222 $223 reversed $52 $-1 #
coedge $-1 $83 $132 $218 $224 reversed $52 $-1 #
coedge $-1 $220 $225 $83 $135 forward $215 $-1 #
edge $-1 $226 -23.934876682943855 $227 -5.5714504769092734 $134 $228 forward 7 unknown #
loop $-1 $-1 $141 $84 #
plane-surface $-1 -13.612943632294268 -31.296914837323406 49.01079617498138 0 0.51503808176128008 0.85716729658548041 1 0 0 forward_v I I I I #
loop $-1 $-1 $229 $54 #
coedge $-1 $139 $139 $140 $230 reversed $85 $-1 #
coedge $-1 $140 $140 $139 $230 forward $87 $-1 #
coedge $-1 $141 $141 $88 $142 forward $136 $-1 #
edge $-1 $231 -1.1436142738602941e-015 $231 6.2831853071795996 $141 $232 forward 7 unknown #
face $-1 $233 $234 $31 $-1 $235 forward single #
loop $-1 $-1 $236 $89 #
plane-surface $-1 64.978429165869699 39.755611936372397 167.26205651266886 -1 0 0 0 0.51503808176128008 0.85716729658548041 forward_v I I I I #
coedge $-1 $237 $238 $239 $240 reversed $90 $-1 #
coedge $-1 $148 $92 $241 $242 reversed $58 $-1 #
coedge $-1 $92 $147 $237 $243 reversed $58 $-1 #
coedge $-1 $239 $244 $92 $150 forward $234 $-1 #
edge $-1 $245 -23.934876682943855 $246 -5.5714504769092734 $149 $247 forward 7 unknown #
loop $-1 $-1 $156 $93 #
plane-surface $-1 49.372489232434447 -31.296914837323406 49.01079617498138 0 0.51503808176128008 0.85716729658548041 1 0 0 forward_v I I I I #
loop $-1 $-1 $248 $60 #
coedge $-1 $154 $154 $155 $249 reversed $94 $-1 #
coedge $-1 $155 $155 $154 $249 forward $96 $-1 #
coedge $-1 $156 $156 $97 $157 forward $151 $-1 #
edge $-1 $250 -1.1436142738602941e-015 $250 6.2831853071795996 $156 $251 forward 7 unknown #
face $-1 $252 $253 $33 $-1 $254 forward single #
loop $-1 $-1 $255 $98 #
plane-surface $-1 0 -43.812682651130054 0 0 1 0 0 0 1 forward_v I I I I #
coedge $-1 $256 $257 $258 $259 reversed $99 $-1 #
coedge $-1 $260 $101 $261 $262 reversed $64 $-1 #
coedge $-1 $101 $260 $256 $263 forward $64 $-1 #
coedge $-1 $258 $264 $101 $165 forward $253 $-1 #
edge $-1 $265 -39.170441983410257 $266 -20.444544285066968 $164 $267 forward 7 unknown #
loop $-1 $-1 $171 $102 #
plane-surface $-1 59.614986268477224 -43.812682651130046 4.5396125851932823 0 -0.61566148304635926 0.78801074757464917 1 0 0 forward_v I I I I #
loop $-1 $-1 $268 $66 #
coedge $-1 $169 $169 $170 $269 reversed $103 $-1 #
coedge $-1 $170 $170 $169 $269 forward $105 $-1 #
coedge $-1 $171 $171 $106 $172 forward $166 $-1 #
edge $-1 $270 -3.8200892113183675e-015 $270 6.2831853071795969 $171 $271 forward 7 unknown #
loop $-1 $-1 $178 $107 #
plane-surface $-1 59.614986268477224 -43.812682651130046 4.5396125851932823 0 -0.61566148304635926 0.78801074757464917 1 0 0 forward_v I I I I #
loop $-1 $-1 $272 $69 #
coedge $-1 $176 $176 $177 $273 reversed $108 $-1 #
coedge $-1 $177 $177 $176 $273 forward $110 $-1 #
coedge $-1 $178 $178 $111 $179 forward $173 $-1 #
edge $-1 $274 -3.8200892113183675e-015 $274 6.2831853071795969 $178 $275 forward 7 unknown #
face $-1 $276 $277 $27 $-1 $278 reversed single #
loop $-1 $-1 $279 $112 #
plane-surface $-1 -68.977935117648855 0 0 1 0 0 0 0 -1 forward_v I I I I #
coedge $-1 $280 $191 $281 $282 forward $113 $-1 #
coedge $-1 $283 $115 $280 $284 forward $73 $-1 #
coedge $-1 $115 $283 $285 $286 forward $73 $-1 #
coedge $-1 $194 $193 $115 $187 reversed $195 $-1 #
edge $-1 $287 -43.812682651130054 $288 43.812682651130054 $186 $289 forward 7 unknown #
coedge $-1 $117 $116 $290 $291 forward $46 $-1 #
coedge $-1 $292 $293 $116 $190 reversed $277 $-1 #
edge $-1 $197 -68.977935117648855 $294 68.977935117648855 $189 $295 forward 7 unknown #
coedge $-1 $183 $296 $117 $192 reversed $113 $-1 #
edge $-1 $297 -68.977935117648855 $196 68.977935117648855 $191 $298 forward 7 unknown #
coedge $-1 $186 $118 $296 $299 forward $195 $-1 #
coedge $-1 $118 $186 $292 $300 reversed $195 $-1 #
loop $-1 $-1 $193 $276 #
vertex $-1 $119 $301 #
vertex $-1 $119 $302 #
straight-curve $-1 68.977935117648855 0 14.914255953466441 0 1 0 I I #
face $-1 $303 $304 $28 $-1 $305 reversed single #
loop $-1 $-1 $126 $120 #
plane-surface $-1 -74.970437370568987 -37.223682985809127 0 0 -1 0 0 0 -1 forward_v I I I I #
coedge $-1 $306 $307 $308 $309 forward $121 $-1 #
coedge $-1 $310 $123 $210 $311 forward $77 $-1 #
coedge $-1 $123 $310 $312 $313 forward $77 $-1 #
edge $-1 $314 -43.812682651130054 $212 -37.223682985809127 $123 $315 forward 7 unknown #
coedge $-1 $125 $124 $316 $317 reversed $49 $-1 #
coedge $-1 $318 $319 $125 $208 forward $304 $-1 #
edge $-1 $211 37.223682985809127 $320 43.812682651130054 $207 $321 forward 7 unknown #
coedge $-1 $308 $126 $319 $322 reversed $200 $-1 #
coedge $-1 $126 $308 $203 $311 reversed $200 $-1 #
vertex $-1 $208 $323 #
vertex $-1 $311 $324 #
straight-curve $-1 -68.977935117648855 -37.223682985809127 0 0 0 1 I I #
face $-1 $-1 $325 $29 $-1 $326 reversed single #
loop $-1 $-1 $134 $128 #
plane-surface $-1 0 0 14.914255953466441 0 0 1 1 0 0 forward_v I I I I #
coedge $-1 $327 $328 $329 $330 reversed $129 $-1 #
coedge $-1 $331 $131 $133 $224 forward $81 $-1 #
coedge $-1 $131 $331 $327 $332 forward $81 $-1 #
coedge $-1 $329 $134 $131 $221 forward $215 $-1 #
edge $-1 $227 -22.412411749582393 $333 8.7994681172881251 $220 $334 forward 7 unknown #
coedge $-1 $335 $336 $132 $223 forward $325 $-1 #
edge $-1 $337 -79.750632140260535 $226 -68.716772302867994 $222 $338 forward 7 unknown #
edge $-1 $227 66.201978900113005 $337 87.625365302260107 $133 $339 forward 7 unknown #
coedge $-1 $134 $329 $335 $340 forward $215 $-1 #
vertex $-1 $223 $341 #
vertex $-1 $135 $342 #
straight-curve $-1 -29.218883565729527 19.877805968186198 14.914255953466437 0 -1 0 I I #
coedge $-1 $229 $229 $-1 $343 reversed $138 $-1 #
edge $-1 $344 0 $344 6.2831853071796004 $139 $345 forward 7 unknown #
vertex $-1 $142 $346 #
ellipse-curve $-1 -13.612943632294268 34.630969548112766 9.3973260347701686 0 0.51503808176128008 0.85716729658548041 4 0 0 1 I I #
face $-1 $-1 $347 $31 $-1 $348 reversed single #
loop $-1 $-1 $149 $143 #
plane-surface $-1 0 0 14.914255953466441 0 0 1 1 0 0 forward_v I I I I #
coedge $-1 $349 $350 $351 $352 reversed $144 $-1 #
coedge $-1 $353 $146 $148 $243 forward $90 $-1 #
coedge $-1 $146 $353 $349 $354 forward $90 $-1 #
coedge $-1 $351 $149 $146 $240 forward $234 $-1 #
edge $-1 $246 9.0803046827819642 $355 40.292184549652475 $239 $356 forward 7 unknown #
coedge $-1 $357 $358 $147 $242 forward $347 $-1 #
edge $-1 $359 -79.750632140260535 $245 -68.716772302867994 $241 $360 forward 7 unknown #
edge $-1 $246 66.201978900113005 $359 87.625365302260107 $148 $361 forward 7 unknown #
coedge $-1 $149 $351 $357 $362 forward $234 $-1 #
vertex $-1 $150 $363 #
vertex $-1 $150 $364 #
straight-curve $-1 33.766549298999188 19.877805968186198 14.914255953466437 0 -1 0 I I #
coedge $-1 $248 $248 $-1 $365 reversed $153 $-1 #
edge $-1 $366 0 $366 6.2831853071796004 $154 $367 forward 7 unknown #
vertex $-1 $157 $368 #
ellipse-curve $-1 49.372489232434447 34.630969548112766 9.3973260347701686 0 0.51503808176128008 0.85716729658548041 4 0 0 1 I I #
face $-1 $-1 $369 $33 $-1 $370 reversed single #
loop $-1 $-1 $258 $158 #
plane-surface $-1 0 0 14.914255953466441 0 0 1 1 0 0 forward_v I I I I #
coedge $-1 $371 $372 $257 $373 forward $159 $-1 #
coedge $-1 $257 $161 $163 $263 reversed $99 $-1 #
coedge $-1 $161 $256 $255 $373 reversed $99 $-1 #
coedge $-1 $374 $164 $161 $259 forward $253 $-1 #
edge $-1 $266 -33.839654204478634 $375 -20.560716506442212 $258 $376 forward 7 unknown #
coedge $-1 $163 $162 $371 $377 reversed $64 $-1 #
coedge $-1 $378 $379 $162 $262 forward $369 $-1 #
edge $-1 $380 -15.86500009625593 $265 0.986213848359075 $261 $381 forward 7 unknown #
edge $-1 $382 -8.8800565823946346e-015 $266 16.851213944614994 $256 $383 forward 7 unknown #
coedge $-1 $164 $374 $378 $384 forward $253 $-1 #
vertex $-1 $262 $385 #
vertex $-1 $165 $386 #
straight-curve $-1 29.807493134238612 -30.533744953093631 14.914255953466441 -1 0 0 I I #
coedge $-1 $268 $268 $-1 $387 reversed $168 $-1 #
edge $-1 $388 0 $388 6.2831853071796004 $169 $389 forward 7 unknown #
vertex $-1 $172 $390 #
ellipse-curve $-1 55.602293904546499 -37.173213802111839 9.7269342693298579 0 -0.61566148304635926 0.78801074757464917 1.5 0 0 1 I I #
coedge $-1 $272 $272 $-1 $391 reversed $175 $-1 #
edge $-1 $392 0 $392 6.2831853071796004 $176 $393 forward 7 unknown #
vertex $-1 $179 $394 #
ellipse-curve $-1 63.627678632407907 -37.173213802111839 9.7269342693298579 0 -0.61566148304635926 0.78801074757464917 1.5 0 0 1 I I #
face $-1 $-1 $195 $27 $-1 $395 reversed single #
loop $-1 $-1 $292 $180 #
plane-surface $-1 0 43.812682651130054 0 0 -1 0 0 0 -1 forward_v I I I I #
coedge $-1 $396 $290 $293 $397 forward $181 $-1 #
coedge $-1 $296 $183 $184 $284 reversed $113 $-1 #
coedge $-1 $290 $396 $183 $282 reversed $181 $-1 #
edge $-1 $297 -14.914255953466441 $398 14.914255953466441 $281 $399 forward 7 unknown #
coedge $-1 $185 $184 $396 $400 forward $73 $-1 #
edge $-1 $288 -68.977935117648855 $398 68.977935117648855 $280 $401 forward 7 unknown #
coedge $-1 $293 $292 $185 $286 reversed $277 $-1 #
edge $-1 $402 -68.977935117648855 $287 68.977935117648855 $285 $403 forward 7 unknown #
vertex $-1 $187 $404 #
vertex $-1 $299 $405 #
straight-curve $-1 68.977935117648855 0 -14.914255953466441 0 -1 0 I I #
coedge $-1 $279 $281 $188 $291 reversed $181 $-1 #
edge $-1 $294 -43.812682651130054 $297 43.812682651130054 $290 $406 forward 7 unknown #
coedge $-1 $285 $189 $194 $300 forward $277 $-1 #
coedge $-1 $189 $285 $279 $397 reversed $277 $-1 #
vertex $-1 $190 $407 #
straight-curve $-1 0 43.812682651130054 14.914255953466441 -1 0 0 I I #
coedge $-1 $191 $280 $193 $299 reversed $113 $-1 #
vertex $-1 $291 $408 #
straight-curve $-1 0 -43.812682651130054 14.914255953466441 1 0 0 I I #
edge $-1 $196 -14.914255953466441 $288 14.914255953466441 $193 $409 forward 7 unknown #
edge $-1 $197 -14.914255953466441 $287 14.914255953466441 $194 $410 forward 7 unknown #
point $-1 68.977935117648855 -43.812682651130054 14.914255953466441 #
point $-1 68.977935117648855 43.812682651130054 14.914255953466441 #
face $-1 $-1 $411 $28 $-1 $412 reversed single #
loop $-1 $-1 $207 $199 #
plane-surface $-1 0 0 -14.914255953466441 0 0 1 1 0 0 forward_v I I I I #
coedge $-1 $413 $202 $414 $415 reversed $121 $-1 #
coedge $-1 $202 $413 $310 $416 reversed $121 $-1 #
coedge $-1 $210 $209 $202 $309 reversed $200 $-1 #
edge $-1 $417 -14.914255953466441 $418 14.914255953466441 $308 $419 forward 7 unknown #
coedge $-1 $204 $203 $307 $416 forward $77 $-1 #
edge $-1 $212 -5.9925022529201328 $417 5.9925022529201328 $210 $420 forward 7 unknown #
coedge $-1 $421 $316 $204 $313 reversed $411 $-1 #
edge $-1 $422 -80.96293962348912 $314 -68.977935117648855 $312 $423 forward 7 unknown #
vertex $-1 $317 $424 #
straight-curve $-1 -68.977935117648855 0 14.914255953466441 0 1 0 I I #
coedge $-1 $312 $425 $206 $317 forward $411 $-1 #
edge $-1 $320 -14.914255953466441 $314 14.914255953466441 $316 $426 forward 7 unknown #
coedge $-1 $414 $207 $425 $427 forward $304 $-1 #
coedge $-1 $207 $414 $209 $322 forward $304 $-1 #
vertex $-1 $427 $428 #
straight-curve $-1 -68.977935117648855 0 -14.914255953466441 0 -1 0 I I #
edge $-1 $418 -5.9925022529201328 $211 5.9925022529201328 $209 $429 forward 7 unknown #
point $-1 -68.977935117648855 -37.223682985809127 -14.914255953466441 #
point $-1 -68.977935117648855 -37.223682985809127 14.914255953466441 #
loop $-1 $-1 $222 $214 #
plane-surface $-1 0 43.812682651130054 0 0 -1 0 0 0 -1 forward_v I I I I #
coedge $-1 $328 $217 $219 $332 reversed $129 $-1 #
coedge $-1 $217 $327 $430 $431 reversed $129 $-1 #
coedge $-1 $225 $220 $217 $330 forward $215 $-1 #
edge $-1 $333 5.5714504769092734 $432 23.934876682943855 $329 $433 forward 7 unknown #
coedge $-1 $219 $218 $336 $434 reversed $81 $-1 #
edge $-1 $435 -87.625365302260107 $333 -66.201978900113005 $327 $436 forward 7 unknown #
vertex $-1 $221 $437 #
straight-curve $-1 -6.806471816147134 25.449256445095479 14.914255953466437 1 0 0 I I #
coedge $-1 $430 $222 $225 $340 reversed $325 $-1 #
coedge $-1 $222 $430 $331 $434 forward $325 $-1 #
vertex $-1 $223 $438 #
straight-curve $-1 -29.218883565729527 43.812682651130054 83.631028256334432 0 0 1 I I #
straight-curve $-1 -29.218883565729527 -31.296914837323406 49.01079617498138 0 0.85716729658548041 -0.51503808176128008 I I #
edge $-1 $432 -1.992996301140991 $226 29.218883565729527 $335 $439 forward 7 unknown #
point $-1 -29.218883565729527 43.812682651130054 14.914255953466441 #
point $-1 -29.218883565729527 25.449256445095472 14.914255953466437 #
edge $-1 $440 1 $440 0 $229 $-1 forward 7 unknown #
vertex $-1 $230 $441 #
ellipse-curve $-1 -13.612943632294268 32.373899679385303 5.6409310300248983 0 0.51503808176128008 0.85716729658548041 4 0 0 1 I I #
point $-1 -9.6129436322942681 34.630969548112766 9.3973260347701775 #
loop $-1 $-1 $241 $233 #
plane-surface $-1 0 43.812682651130054 0 0 -1 0 0 0 -1 forward_v I I I I #
coedge $-1 $350 $236 $238 $354 reversed $144 $-1 #
coedge $-1 $236 $349 $442 $443 reversed $144 $-1 #
coedge $-1 $244 $239 $236 $352 forward $234 $-1 #
edge $-1 $355 5.5714504769092734 $444 23.934876682943855 $351 $445 forward 7 unknown #
coedge $-1 $238 $237 $358 $446 reversed $90 $-1 #
edge $-1 $447 -87.625365302260107 $355 -66.201978900113005 $349 $448 forward 7 unknown #
vertex $-1 $240 $449 #
straight-curve $-1 24.686244616217223 25.449256445095479 14.914255953466437 1 0 0 I I #
coedge $-1 $442 $241 $244 $362 reversed $347 $-1 #
coedge $-1 $241 $442 $353 $446 forward $347 $-1 #
vertex $-1 $242 $450 #
straight-curve $-1 33.766549298999188 43.812682651130054 83.631028256334432 0 0 1 I I #
straight-curve $-1 33.766549298999188 -31.296914837323406 49.01079617498138 0 0.85716729658548041 -0.51503808176128008 I I #
edge $-1 $444 -64.978429165869699 $245 -33.766549298999188 $357 $451 forward 7 unknown #
point $-1 33.766549298999188 43.812682651130054 14.914255953466441 #
point $-1 33.766549298999188 25.449256445095472 14.914255953466437 #
edge $-1 $452 1 $452 0 $248 $-1 forward 7 unknown #
vertex $-1 $249 $453 #
ellipse-curve $-1 49.372489232434447 32.373899679385303 5.6409310300248983 0 0.51503808176128008 0.85716729658548041 4 0 0 1 I I #
point $-1 53.372489232434447 34.630969548112766 9.3973260347701775 #
loop $-1 $-1 $261 $252 #
plane-surface $-1 68.977935117648855 0 0 -1 0 0 0 0 1 forward_v I I I I #
coedge $-1 $454 $255 $260 $377 forward $159 $-1 #
coedge $-1 $255 $454 $374 $455 reversed $159 $-1 #
edge $-1 $375 41.710904557344321 $382 52.085547925617483 $255 $456 forward 7 unknown #
coedge $-1 $264 $258 $372 $455 forward $253 $-1 #
vertex $-1 $455 $457 #
straight-curve $-1 50.25203741930558 -64.373399157572265 14.914255953466437 0 -1 0 I I #
edge $-1 $382 20.444544285066968 $380 39.170441983410257 $371 $458 forward 7 unknown #
coedge $-1 $379 $261 $264 $384 reversed $369 $-1 #
coedge $-1 $261 $378 $454 $459 forward $369 $-1 #
vertex $-1 $377 $460 #
straight-curve $-1 68.977935117648855 -31.310892065007536 14.307082072984834 0 0.78801074757464917 0.61566148304635926 I I #
vertex $-1 $377 $461 #
straight-curve $-1 50.25203741930558 -43.812682651130046 4.5396125851932823 0 0.78801074757464917 0.61566148304635926 I I #
edge $-1 $462 -43.812682651130054 $265 -30.533744953093631 $378 $463 forward 7 unknown #
point $-1 68.977935117648869 -30.533744953093631 14.914255953466441 #
point $-1 50.25203741930558 -30.533744953093631 14.914255953466441 #
edge $-1 $464 1 $464 0 $268 $-1 forward 7 unknown #
vertex $-1 $269 $465 #
ellipse-curve $-1 55.602293904546499 -35.033796254973765 6.9886047374048372 0 -0.61566148304635926 0.78801074757464917 1.5 0 0 1 I I #
point $-1 57.102293904546499 -37.173213802111853 9.7269342693298668 #
edge $-1 $466 1 $466 0 $272 $-1 forward 7 unknown #
vertex $-1 $273 $467 #
ellipse-curve $-1 63.627678632407907 -35.033796254973765 6.9886047374048372 0 -0.61566148304635926 0.78801074757464917 1.5 0 0 1 I I #
point $-1 65.127678632407907 -37.173213802111853 9.7269342693298668 #
plane-surface $-1 68.977935117648855 0 0 -1 0 0 0 0 1 forward_v I I I I #
coedge $-1 $281 $279 $283 $400 reversed $181 $-1 #
edge $-1 $294 -14.914255953466441 $402 14.914255953466441 $293 $468 forward 7 unknown #
vertex $-1 $400 $469 #
straight-curve $-1 -68.977935117648855 -43.812682651130054 0 0 0 -1 I I #
edge $-1 $398 -43.812682651130054 $402 43.812682651130054 $396 $470 forward 7 unknown #
straight-curve $-1 0 -43.812682651130054 -14.914255953466441 -1 0 0 I I #
vertex $-1 $286 $471 #
straight-curve $-1 0 43.812682651130054 -14.914255953466441 1 0 0 I I #
point $-1 68.977935117648855 43.812682651130054 -14.914255953466441 #
point $-1 68.977935117648855 -43.812682651130054 -14.914255953466441 #
straight-curve $-1 -68.977935117648855 0 14.914255953466441 0 -1 0 I I #
point $-1 -68.977935117648855 43.812682651130054 14.914255953466441 #
point $-1 -68.977935117648855 -43.812682651130054 14.914255953466441 #
straight-curve $-1 68.977935117648855 -43.812682651130054 0 0 0 -1 I I #
straight-curve $-1 68.977935117648855 43.812682651130054 0 0 0 -1 I I #
loop $-1 $-1 $316 $303 #
plane-surface $-1 0 -43.812682651130054 0 0 1 0 0 0 1 forward_v I I I I #
coedge $-1 $307 $306 $421 $472 reversed $121 $-1 #
coedge $-1 $319 $318 $306 $415 forward $304 $-1 #
edge $-1 $473 -3.2944998326604633 $418 3.2944998326604633 $306 $474 forward 7 unknown #
edge $-1 $417 -3.2944998326604633 $422 3.2944998326604633 $307 $475 forward 7 unknown #
vertex $-1 $311 $476 #
vertex $-1 $322 $477 #
straight-curve $-1 -80.96293962348912 -37.223682985809127 0 0 0 -1 I I #
straight-curve $-1 -74.970437370568987 -37.223682985809127 14.914255953466441 -1 0 0 I I #
coedge $-1 $425 $312 $413 $472 forward $411 $-1 #
vertex $-1 $416 $478 #
straight-curve $-1 0 -43.812682651130054 14.914255953466441 1 0 0 I I #
point $-1 -68.977935117648855 -43.812682651130054 14.914255953466441 #
coedge $-1 $316 $421 $318 $427 reversed $411 $-1 #
straight-curve $-1 -68.977935117648855 -43.812682651130054 0 0 0 1 I I #
edge $-1 $320 -5.9925022529201328 $473 5.9925022529201328 $425 $479 forward 7 unknown #
point $-1 -68.977935117648855 -43.812682651130054 -14.914255953466441 #
straight-curve $-1 -74.970437370568987 -37.223682985809127 -14.914255953466441 1 0 0 I I #
coedge $-1 $336 $335 $328 $431 forward $325 $-1 #
edge $-1 $432 68.716772302867994 $435 79.750632140260535 $430 $480 forward 7 unknown #
vertex $-1 $340 $481 #
straight-curve $-1 1.992996301140991 19.877805968186198 14.914255953466437 0 1 0 I I #
edge $-1 $435 -8.7994681172881251 $337 22.412411749582393 $336 $482 forward 7 unknown #
vertex $-1 $434 $483 #
straight-curve $-1 1.992996301140991 -31.296914837323406 49.01079617498138 0 -0.85716729658548041 0.51503808176128008 I I #
point $-1 1.992996301140991 25.449256445095472 14.914255953466437 #
point $-1 -29.218883565729527 43.812682651130054 3.8803961160738965 #
straight-curve $-1 0 43.812682651130054 14.914255953466441 -1 0 0 I I #
vertex $-1 $343 $484 #
point $-1 -9.6129436322942681 32.373899679385303 5.6409310300248983 #
coedge $-1 $358 $357 $350 $443 forward $347 $-1 #
edge $-1 $444 68.716772302867994 $447 79.750632140260535 $442 $485 forward 7 unknown #
vertex $-1 $362 $486 #
straight-curve $-1 64.978429165869699 19.877805968186198 14.914255953466437 0 1 0 I I #
edge $-1 $447 -40.292184549652475 $359 -9.0803046827819642 $358 $487 forward 7 unknown #
vertex $-1 $446 $488 #
straight-curve $-1 64.978429165869699 -31.296914837323406 49.01079617498138 0 -0.85716729658548041 0.51503808176128008 I I #
point $-1 64.978429165869699 25.449256445095472 14.914255953466437 #
point $-1 33.766549298999188 43.812682651130054 3.8803961160738965 #
straight-curve $-1 0 43.812682651130054 14.914255953466441 -1 0 0 I I #
vertex $-1 $365 $489 #
point $-1 53.372489232434447 32.373899679385303 5.6409310300248983 #
coedge $-1 $372 $371 $379 $459 reversed $159 $-1 #
edge $-1 $375 50.25203741930558 $462 68.977935117648855 $372 $490 forward 7 unknown #
straight-curve $-1 50.25203741930558 -43.812682651130054 56.625160510810758 0 0 -1 I I #
point $-1 50.25203741930558 -43.812682651130054 14.914255953466441 #
straight-curve $-1 29.807493134238612 -43.812682651130054 4.5396125851932743 1 0 0 I I #
edge $-1 $462 -14.914255953466441 $380 -4.5396125851932769 $379 $491 forward 7 unknown #
point $-1 68.977935117648869 -43.812682651130054 4.5396125851932769 #
point $-1 50.25203741930558 -43.812682651130054 4.5396125851932769 #
vertex $-1 $384 $492 #
straight-curve $-1 68.977935117648855 0 14.914255953466441 0 1 0 I I #
vertex $-1 $387 $493 #
point $-1 57.102293904546499 -35.033796254973765 6.9886047374048372 #
vertex $-1 $391 $494 #
point $-1 65.127678632407907 -35.033796254973765 6.9886047374048372 #
straight-curve $-1 -68.977935117648855 43.812682651130054 0 0 0 -1 I I #
point $-1 -68.977935117648855 -43.812682651130054 -14.914255953466441 #
straight-curve $-1 -68.977935117648855 0 -14.914255953466441 0 1 0 I I #
point $-1 -68.977935117648855 43.812682651130054 -14.914255953466441 #
edge $-1 $422 -14.914255953466441 $473 14.914255953466441 $413 $495 forward 7 unknown #
vertex $-1 $415 $496 #
straight-curve $-1 -80.96293962348912 -40.51818281846959 -14.914255953466441 0 1 0 I I #
straight-curve $-1 -80.96293962348912 -40.51818281846959 14.914255953466441 0 -1 0 I I #
point $-1 -80.96293962348912 -37.223682985809127 14.914255953466441 #
point $-1 -80.96293962348912 -37.223682985809127 -14.914255953466441 #
point $-1 -80.96293962348912 -43.812682651130054 14.914255953466441 #
straight-curve $-1 -74.970437370568987 -43.812682651130054 -14.914255953466441 -1 0 0 I I #
straight-curve $-1 1.992996301140991 43.812682651130054 83.631028256334432 0 0 -1 I I #
point $-1 1.992996301140991 43.812682651130054 14.914255953466441 #
straight-curve $-1 -6.806471816147134 43.812682651130054 3.8803961160739071 -1 0 0 I I #
point $-1 1.992996301140991 43.812682651130054 3.8803961160738965 #
point $-1 -13.612943632294268 30.313747352340187 2.2122618436829771 #
straight-curve $-1 64.978429165869699 43.812682651130054 83.631028256334432 0 0 -1 I I #
point $-1 64.978429165869699 43.812682651130054 14.914255953466441 #
straight-curve $-1 24.686244616217223 43.812682651130054 3.8803961160739071 -1 0 0 I I #
point $-1 64.978429165869699 43.812682651130054 3.8803961160738965 #
point $-1 49.372489232434447 30.313747352340187 2.2122618436829771 #
straight-curve $-1 0 -43.812682651130054 14.914255953466441 1 0 0 I I #
straight-curve $-1 68.977935117648855 -43.812682651130054 0 0 0 -1 I I #
point $-1 68.977935117648855 -43.812682651130054 14.914255953466441 #
point $-1 55.602293904546499 -34.110304030404222 5.8065886160428635 #
point $-1 63.627678632407907 -34.110304030404222 5.8065886160428635 #
straight-curve $-1 -80.96293962348912 -43.812682651130054 0 0 0 -1 I I #
point $-1 -80.96293962348912 -43.812682651130054 -14.914255953466441 #
End-of-ACIS-data 