500 0 8 0           
7 Unknown 11 ACIS 5.0 NT 24 Thu Mar 25 21:27:45 1999 
-1 9.9999999999999995e-007 1e-010 
body $-1 $8 $-1 $9 #
body $-1 $10 $-1 $11 #
body $-1 $12 $-1 $13 #
body $-1 $14 $-1 $15 #
body $-1 $16 $-1 $17 #
body $-1 $18 $-1 $19 #
body $-1 $20 $-1 $21 #
body $-1 $22 $-1 $23 #
lump $-1 $-1 $24 $0 #
transform $-1 1 0 0 0 1 0 0 0 1 60.272835474715414 38.021348812705313 14.06547391897244 1 rotate no_reflect no_shear #
lump $-1 $-1 $25 $1 #
transform $-1 1 0 0 0 1 0 0 0 1 60.272835474715414 38.021348812705313 14.06547391897244 1 rotate no_reflect no_shear #
lump $-1 $-1 $26 $2 #
transform $-1 1 0 0 0 1 0 0 0 1 60.272835474715414 38.021348812705313 14.06547391897244 1 rotate no_reflect no_shear #
lump $-1 $-1 $27 $3 #
transform $-1 1 0 0 0 1 0 0 0 1 60.272835474715414 38.021348812705313 14.06547391897244 1 rotate no_reflect no_shear #
lump $-1 $-1 $28 $4 #
transform $-1 1 0 0 0 1 0 0 0 1 60.272835474715414 38.021348812705313 14.06547391897244 1 rotate no_reflect no_shear #
lump $-1 $-1 $29 $5 #
transform $-1 1 0 0 0 1 0 0 0 1 60.272835474715414 38.021348812705313 14.06547391897244 1 rotate no_reflect no_shear #
lump $-1 $-1 $30 $6 #
transform $-1 1 0 0 0 1 0 0 0 1 60.272835474715414 38.021348812705313 14.06547391897244 1 rotate no_reflect no_shear #
lump $-1 $-1 $31 $7 #
transform $-1 1 0 0 0 1 0 0 0 1 60.272835474715414 38.021348812705313 14.06547391897244 1 rotate no_reflect no_shear #
shell $-1 $-1 $-1 $32 $-1 $8 #
shell $-1 $-1 $-1 $33 $-1 $10 #
shell $-1 $-1 $-1 $34 $-1 $12 #
shell $-1 $-1 $-1 $35 $-1 $14 #
shell $-1 $-1 $-1 $36 $-1 $16 #
shell $-1 $-1 $-1 $37 $-1 $18 #
shell $-1 $-1 $-1 $38 $-1 $20 #
shell $-1 $-1 $-1 $39 $-1 $22 #
face $-1 $40 $41 $24 $-1 $42 forward single #
face $-1 $43 $44 $25 $-1 $45 forward single #
face $-1 $46 $47 $26 $-1 $48 reversed single #
face $-1 $49 $50 $27 $-1 $51 forward single #
face $-1 $52 $53 $28 $-1 $54 reversed single #
face $-1 $55 $56 $29 $-1 $57 forward single #
face $-1 $58 $59 $30 $-1 $60 reversed single #
face $-1 $61 $62 $31 $-1 $63 forward single #
face $-1 $64 $65 $24 $-1 $66 reversed single #
loop $-1 $-1 $67 $32 #
plane-surface $-1 0 0 14.06547391897244 0 0 1 1 0 0 forward_v I I I I #
face $-1 $68 $69 $25 $-1 $70 reversed single #
loop $-1 $-1 $71 $33 #
plane-surface $-1 0 -31.800290187477518 6.8794176586797189 0 0 1 1 0 0 forward_v I I I I #
face $-1 $72 $73 $26 $-1 $74 reversed single #
loop $-1 $-1 $75 $34 #
plane-surface $-1 -131.12780399170919 -19.763456302452958 105.10523819166183 0 1 0 -0.5877852598018023 0 0.80901698891910034 forward_v I I I I #
face $-1 $76 $77 $27 $-1 $78 forward single #
loop $-1 $79 $80 $35 #
cone-surface $-1 -54.740840545840825 -11.198136892448371 9.3509488847877886 0.5877852598018023 0 -0.80901698891910034 1.2135254833786506 0 0.88167788970270344 1 I I 0 1 1.5 forward I I I I #
face $-1 $81 $82 $28 $-1 $83 reversed single #
loop $-1 $-1 $84 $36 #
plane-surface $-1 75.130915349314506 6.2210586252277906 177.5339461699383 0 -1 0 -0.7660444514056185 0 -0.64278759981090561 forward_v I I I I #
face $-1 $85 $86 $29 $-1 $87 forward single #
loop $-1 $88 $89 $37 #
cone-surface $-1 55.589704322804728 -0.10236313324988089 9.1948411081874521 -0.7660444514056185 0 -0.64278759981090561 1.2855751996218112 0 -1.532088902811237 1 I I 0 1 2 forward I I I I #
face $-1 $90 $91 $30 $-1 $92 reversed single #
loop $-1 $-1 $93 $38 #
plane-surface $-1 75.130915349314506 18.867902142183141 177.5339461699383 0 -1 0 -0.7660444514056185 0 -0.64278759981090561 forward_v I I I I #
face $-1 $94 $95 $31 $-1 $96 forward single #
loop $-1 $97 $98 $39 #
cone-surface $-1 55.589704322804728 12.544480383705469 9.1948411081874521 -0.7660444514056185 0 -0.64278759981090561 1.2855751996218112 0 -1.532088902811237 1 I I 0 1 2 forward I I I I #
face $-1 $99 $100 $24 $-1 $101 reversed single #
loop $-1 $-1 $102 $40 #
plane-surface $-1 0 0 -14.06547391897244 0 0 1 1 0 0 forward_v I I I I #
coedge $-1 $103 $104 $105 $106 forward $41 $-1 #
face $-1 $107 $108 $25 $-1 $109 reversed single #
loop $-1 $-1 $110 $43 #
plane-surface $-1 0 -31.800290187477518 -1.2238440789834879 0 0 1 1 0 0 forward_v I I I I #
coedge $-1 $111 $112 $113 $114 reversed $44 $-1 #
face $-1 $115 $116 $26 $-1 $117 reversed single #
loop $-1 $-1 $118 $46 #
plane-surface $-1 -60.272835474715421 -11.198136892448371 7.5817424529206363 -0.5877852598018023 0 0.80901698891910034 0.80901698891910034 0 0.5877852598018023 forward_v I I I I #
coedge $-1 $119 $120 $121 $122 reversed $47 $-1 #
face $-1 $-1 $123 $27 $-1 $124 forward single #
loop $-1 $125 $126 $49 #
cone-surface $-1 -53.230051968550185 -11.198136892448371 7.2715268419397177 0.5877852598018023 0 -0.80901698891910034 0.60676274168932531 0 0.44083894485135172 1 I I -0.70710678118654757 0.70710678118654757 0.75 forward I I I I #
loop $-1 $-1 $127 $35 #
coedge $-1 $80 $80 $128 $129 reversed $50 $-1 #
face $-1 $130 $131 $28 $-1 $132 reversed single #
loop $-1 $-1 $133 $52 #
plane-surface $-1 -17.212427022464439 -0.10236313324988089 100.04868367275846 0.7660444514056185 0 0.64278759981090561 0.64278759981090561 0 -0.7660444514056185 forward_v I I I I #
coedge $-1 $134 $135 $136 $137 reversed $53 $-1 #
face $-1 $-1 $138 $29 $-1 $139 forward single #
loop $-1 $140 $141 $55 #
cone-surface $-1 52.808921116624951 -0.10236313324988089 6.8614870065880389 -0.7660444514056185 0 -0.64278759981090561 0.64278759981090561 0 -0.7660444514056185 1 I I -0.70710678118654746 0.70710678118654746 1 forward I I I I #
loop $-1 $-1 $142 $37 #
coedge $-1 $89 $89 $143 $144 reversed $56 $-1 #
face $-1 $145 $146 $30 $-1 $147 reversed single #
loop $-1 $-1 $148 $58 #
plane-surface $-1 -17.212427022464439 -0.10236313324988089 100.04868367275846 0.7660444514056185 0 0.64278759981090561 0.64278759981090561 0 -0.7660444514056185 forward_v I I I I #
coedge $-1 $149 $150 $151 $152 reversed $59 $-1 #
face $-1 $-1 $153 $31 $-1 $154 forward single #
loop $-1 $155 $156 $61 #
cone-surface $-1 52.808921116624951 12.544480383705469 6.8614870065880389 -0.7660444514056185 0 -0.64278759981090561 0.64278759981090561 0 -0.7660444514056185 1 I I -0.70710678118654746 0.70710678118654746 1 forward I I I I #
loop $-1 $-1 $157 $39 #
coedge $-1 $98 $98 $158 $159 reversed $62 $-1 #
face $-1 $160 $161 $24 $-1 $162 reversed single #
loop $-1 $-1 $163 $64 #
plane-surface $-1 0 -38.021348812705313 0 0 1 0 0 0 1 forward_v I I I I #
coedge $-1 $164 $165 $166 $167 forward $65 $-1 #
coedge $-1 $168 $67 $169 $170 forward $41 $-1 #
coedge $-1 $67 $168 $171 $172 forward $41 $-1 #
coedge $-1 $173 $174 $67 $106 reversed $175 $-1 #
edge $-1 $176 -38.021348812705313 $177 38.021348812705313 $105 $178 forward 7 unknown #
face $-1 $179 $180 $25 $-1 $181 reversed single #
loop $-1 $-1 $182 $68 #
plane-surface $-1 0 -25.579231562249724 2.8277867898481155 0 -1 0 0 0 -1 forward_v I I I I #
coedge $-1 $183 $184 $185 $186 reversed $69 $-1 #
coedge $-1 $187 $71 $188 $189 forward $44 $-1 #
coedge $-1 $71 $187 $190 $191 reversed $44 $-1 #
coedge $-1 $192 $193 $71 $114 forward $194 $-1 #
edge $-1 $195 9.679086468510965 $196 22.121203718966555 $113 $197 forward 7 unknown #
face $-1 $198 $199 $26 $-1 $200 reversed single #
loop $-1 $-1 $201 $72 #
plane-surface $-1 -131.12780399170919 -2.6328174824437838 105.10523819166183 0 -1 0 0.5877852598018023 0 -0.80901698891910034 forward_v I I I I #
coedge $-1 $202 $203 $204 $205 reversed $73 $-1 #
coedge $-1 $120 $75 $206 $207 reversed $47 $-1 #
coedge $-1 $75 $119 $202 $208 reversed $47 $-1 #
coedge $-1 $204 $209 $75 $122 forward $210 $-1 #
edge $-1 $211 5.2910665211391787 $212 14.215157114009756 $121 $213 forward 7 unknown #
loop $-1 $-1 $128 $76 #
plane-surface $-1 -60.272835474715421 -11.198136892448371 7.5817424529206363 -0.5877852598018023 0 0.80901698891910034 0.80901698891910034 0 0.5877852598018023 forward_v I I I I #
loop $-1 $-1 $214 $49 #
coedge $-1 $126 $126 $127 $215 reversed $77 $-1 #
coedge $-1 $127 $127 $126 $215 forward $79 $-1 #
coedge $-1 $128 $128 $80 $129 forward $123 $-1 #
edge $-1 $216 0 $216 6.2831853071796004 $128 $217 forward 7 unknown #
face $-1 $218 $219 $28 $-1 $220 forward single #
loop $-1 $-1 $221 $81 #
plane-surface $-1 75.130915349314506 -6.4257848917275524 177.5339461699383 0 1 0 0.7660444514056185 0 0.64278759981090561 forward_v I I I I #
coedge $-1 $222 $223 $224 $225 reversed $82 $-1 #
coedge $-1 $135 $84 $226 $227 reversed $53 $-1 #
coedge $-1 $84 $134 $222 $228 reversed $53 $-1 #
coedge $-1 $224 $229 $84 $137 forward $219 $-1 #
edge $-1 $230 -22.707377800058161 $231 -17.370593005785139 $136 $232 forward 7 unknown #
loop $-1 $-1 $143 $85 #
plane-surface $-1 -17.212427022464439 -0.10236313324988089 100.04868367275846 0.7660444514056185 0 0.64278759981090561 0.64278759981090561 0 -0.7660444514056185 forward_v I I I I #
loop $-1 $-1 $233 $55 #
coedge $-1 $141 $141 $142 $234 reversed $86 $-1 #
coedge $-1 $142 $142 $141 $234 forward $88 $-1 #
coedge $-1 $143 $143 $89 $144 forward $138 $-1 #
edge $-1 $235 0 $235 6.2831853071796004 $143 $236 forward 7 unknown #
face $-1 $237 $238 $30 $-1 $239 forward single #
loop $-1 $-1 $240 $90 #
plane-surface $-1 60.272835474715414 0 0 -1 0 0 0 0 1 forward_v I I I I #
coedge $-1 $241 $242 $243 $244 reversed $91 $-1 #
coedge $-1 $150 $93 $245 $246 reversed $59 $-1 #
coedge $-1 $93 $149 $247 $248 reversed $59 $-1 #
coedge $-1 $249 $240 $93 $152 forward $146 $-1 #
edge $-1 $250 -81.06163178398964 $251 -74.701499165996708 $151 $252 forward 7 unknown #
loop $-1 $-1 $158 $94 #
plane-surface $-1 -17.212427022464439 -0.10236313324988089 100.04868367275846 0.7660444514056185 0 0.64278759981090561 0.64278759981090561 0 -0.7660444514056185 forward_v I I I I #
loop $-1 $-1 $253 $61 #
coedge $-1 $156 $156 $157 $254 reversed $95 $-1 #
coedge $-1 $157 $157 $156 $254 forward $97 $-1 #
coedge $-1 $158 $158 $98 $159 forward $153 $-1 #
edge $-1 $255 0 $255 6.2831853071796004 $158 $256 forward 7 unknown #
face $-1 $257 $258 $24 $-1 $259 reversed single #
loop $-1 $-1 $260 $99 #
plane-surface $-1 -60.272835474715414 0 0 1 0 0 0 0 -1 forward_v I I I I #
coedge $-1 $261 $171 $262 $263 forward $100 $-1 #
coedge $-1 $264 $102 $261 $265 forward $65 $-1 #
coedge $-1 $102 $264 $266 $267 forward $65 $-1 #
coedge $-1 $174 $173 $102 $167 reversed $175 $-1 #
edge $-1 $268 -38.021348812705313 $269 38.021348812705313 $166 $270 forward 7 unknown #
coedge $-1 $104 $103 $271 $272 forward $41 $-1 #
coedge $-1 $273 $274 $103 $170 reversed $258 $-1 #
edge $-1 $177 -60.272835474715414 $275 60.272835474715414 $169 $276 forward 7 unknown #
coedge $-1 $163 $277 $104 $172 reversed $100 $-1 #
edge $-1 $278 -60.272835474715414 $176 60.272835474715414 $171 $279 forward 7 unknown #
coedge $-1 $166 $105 $277 $280 forward $175 $-1 #
coedge $-1 $105 $166 $273 $281 reversed $175 $-1 #
loop $-1 $-1 $173 $257 #
vertex $-1 $106 $282 #
vertex $-1 $106 $283 #
straight-curve $-1 60.272835474715414 0 14.06547391897244 0 1 0 I I #
face $-1 $284 $285 $25 $-1 $286 reversed single #
loop $-1 $-1 $287 $107 #
plane-surface $-1 -60.272835474715414 0 0 1 0 0 0 0 -1 forward_v I I I I #
coedge $-1 $288 $188 $193 $289 reversed $108 $-1 #
coedge $-1 $290 $110 $291 $292 reversed $69 $-1 #
coedge $-1 $110 $290 $288 $293 forward $69 $-1 #
coedge $-1 $193 $192 $110 $186 forward $194 $-1 #
edge $-1 $294 -22.121203718966555 $295 -9.679086468510965 $185 $296 forward 7 unknown #
coedge $-1 $112 $111 $287 $297 reversed $44 $-1 #
coedge $-1 $182 $298 $111 $189 reversed $108 $-1 #
edge $-1 $195 -60.272835474715414 $299 60.272835474715414 $188 $300 forward 7 unknown #
coedge $-1 $301 $302 $112 $191 forward $285 $-1 #
edge $-1 $196 -60.272835474715414 $303 60.272835474715414 $190 $304 forward 7 unknown #
coedge $-1 $185 $113 $302 $305 forward $194 $-1 #
coedge $-1 $113 $185 $182 $289 forward $194 $-1 #
loop $-1 $-1 $113 $284 #
vertex $-1 $114 $306 #
vertex $-1 $305 $307 #
straight-curve $-1 60.272835474715414 -15.900145093738759 6.8794176586797189 0 -1 0 I I #
face $-1 $-1 $210 $26 $-1 $308 forward single #
loop $-1 $-1 $309 $115 #
plane-surface $-1 -60.272835474715414 0 0 1 0 0 0 0 -1 forward_v I I I I #
coedge $-1 $310 $311 $312 $313 reversed $116 $-1 #
coedge $-1 $314 $118 $120 $208 forward $73 $-1 #
coedge $-1 $118 $314 $310 $315 forward $73 $-1 #
coedge $-1 $312 $121 $118 $205 forward $210 $-1 #
edge $-1 $212 -14.164387856228773 $316 2.9662509637804018 $204 $317 forward 7 unknown #
coedge $-1 $318 $319 $119 $207 forward $199 $-1 #
edge $-1 $320 -44.97087664291027 $211 -38.487145176858476 $206 $321 forward 7 unknown #
edge $-1 $212 -11.030782684543809 $320 -8.8807605448725156e-015 $120 $322 forward 7 unknown #
coedge $-1 $121 $312 $318 $323 forward $210 $-1 #
loop $-1 $-1 $312 $198 #
vertex $-1 $207 $324 #
vertex $-1 $122 $325 #
straight-curve $-1 -65.563901995854593 -19.763456302452958 14.065473918972444 1 0 0 I I #
coedge $-1 $214 $214 $-1 $326 reversed $125 $-1 #
edge $-1 $327 0 $327 6.2831853071796004 $126 $328 forward 7 unknown #
vertex $-1 $129 $329 #
ellipse-curve $-1 -55.810790178280122 -11.198136892448371 10.823608185946544 -0.5877852598018023 0 0.80901698891910034 1.2135254833786506 0 0.88167788970270344 1 I I #
face $-1 $-1 $330 $28 $-1 $331 reversed single #
loop $-1 $-1 $136 $130 #
plane-surface $-1 0 0 14.06547391897244 0 0 1 1 0 0 forward_v I I I I #
coedge $-1 $332 $333 $334 $335 reversed $131 $-1 #
coedge $-1 $336 $133 $135 $228 forward $82 $-1 #
coedge $-1 $133 $336 $332 $337 forward $82 $-1 #
coedge $-1 $334 $136 $133 $225 forward $219 $-1 #
edge $-1 $231 -6.2722401918527311 $338 6.374603325102612 $224 $339 forward 7 unknown #
coedge $-1 $340 $341 $134 $227 forward $330 $-1 #
edge $-1 $342 -81.06163178398964 $230 -74.701499165996708 $226 $343 forward 7 unknown #
edge $-1 $231 112.24310755859538 $342 120.54567094943086 $135 $344 forward 7 unknown #
coedge $-1 $136 $334 $340 $345 forward $219 $-1 #
vertex $-1 $227 $346 #
vertex $-1 $137 $347 #
straight-curve $-1 37.565457674657253 6.2210586252277906 14.065473918972444 -1 0 0 I I #
coedge $-1 $233 $233 $-1 $348 reversed $140 $-1 #
edge $-1 $349 0 $349 6.2831853071796004 $141 $350 forward 7 unknown #
vertex $-1 $144 $351 #
ellipse-curve $-1 57.604443077578907 -0.10236313324988089 10.885407609975976 0.7660444514056185 0 0.64278759981090561 1.2855751996218112 0 -1.532088902811237 1 I I #
face $-1 $-1 $352 $30 $-1 $353 forward single #
loop $-1 $-1 $354 $145 #
plane-surface $-1 75.130915349314506 6.2210586252277906 177.5339461699383 0 -1 0 -0.7660444514056185 0 -0.64278759981090561 forward_v I I I I #
coedge $-1 $151 $355 $242 $356 forward $146 $-1 #
coedge $-1 $245 $148 $357 $358 reversed $91 $-1 #
coedge $-1 $148 $245 $240 $356 reversed $91 $-1 #
coedge $-1 $359 $354 $148 $244 forward $238 $-1 #
edge $-1 $360 112.24310755859538 $361 120.54567094943086 $243 $362 forward 7 unknown #
coedge $-1 $242 $241 $149 $246 forward $91 $-1 #
edge $-1 $363 112.24310755859538 $250 120.54567094943086 $149 $364 forward 7 unknown #
coedge $-1 $357 $365 $150 $248 forward $352 $-1 #
edge $-1 $251 -22.707377800058161 $363 -17.370593005785139 $247 $366 forward 7 unknown #
coedge $-1 $355 $151 $365 $367 reversed $146 $-1 #
vertex $-1 $152 $368 #
vertex $-1 $152 $369 #
straight-curve $-1 60.272835474715414 18.867902142183141 88.766973084969152 0 0 1 I I #
coedge $-1 $253 $253 $-1 $370 reversed $155 $-1 #
edge $-1 $371 0 $371 6.2831853071796004 $156 $372 forward 7 unknown #
vertex $-1 $159 $373 #
ellipse-curve $-1 57.604443077578907 12.544480383705469 10.885407609975976 0.7660444514056185 0 0.64278759981090561 1.2855751996218112 0 -1.532088902811237 1 I I #
face $-1 $-1 $175 $24 $-1 $374 reversed single #
loop $-1 $-1 $273 $160 #
plane-surface $-1 0 38.021348812705313 0 0 -1 0 0 0 -1 forward_v I I I I #
coedge $-1 $375 $271 $274 $376 forward $161 $-1 #
coedge $-1 $277 $163 $164 $265 reversed $100 $-1 #
coedge $-1 $271 $375 $163 $263 reversed $161 $-1 #
edge $-1 $278 -14.06547391897244 $377 14.06547391897244 $262 $378 forward 7 unknown #
coedge $-1 $165 $164 $375 $379 forward $65 $-1 #
edge $-1 $269 -60.272835474715414 $377 60.272835474715414 $261 $380 forward 7 unknown #
coedge $-1 $274 $273 $165 $267 reversed $258 $-1 #
edge $-1 $381 -60.272835474715414 $268 60.272835474715414 $266 $382 forward 7 unknown #
vertex $-1 $167 $383 #
vertex $-1 $280 $384 #
straight-curve $-1 60.272835474715414 0 -14.06547391897244 0 -1 0 I I #
coedge $-1 $260 $262 $168 $272 reversed $161 $-1 #
edge $-1 $275 -38.021348812705313 $278 38.021348812705313 $271 $385 forward 7 unknown #
coedge $-1 $266 $169 $174 $281 forward $258 $-1 #
coedge $-1 $169 $266 $260 $376 reversed $258 $-1 #
vertex $-1 $170 $386 #
straight-curve $-1 0 38.021348812705313 14.06547391897244 -1 0 0 I I #
coedge $-1 $171 $261 $173 $280 reversed $100 $-1 #
vertex $-1 $272 $387 #
straight-curve $-1 0 -38.021348812705313 14.06547391897244 1 0 0 I I #
edge $-1 $176 -14.06547391897244 $269 14.06547391897244 $173 $388 forward 7 unknown #
edge $-1 $177 -14.06547391897244 $268 14.06547391897244 $174 $389 forward 7 unknown #
point $-1 60.272835474715414 -38.021348812705313 14.06547391897244 #
point $-1 60.272835474715414 38.021348812705313 14.06547391897244 #
face $-1 $-1 $194 $25 $-1 $390 reversed single #
loop $-1 $-1 $190 $179 #
plane-surface $-1 0 -38.021348812705313 0 0 1 0 0 0 1 forward_v I I I I #
coedge $-1 $391 $392 $187 $297 forward $180 $-1 #
coedge $-1 $298 $182 $184 $293 reversed $108 $-1 #
edge $-1 $295 -2.6377374739075456 $195 5.4655242637556611 $193 $393 forward 7 unknown #
coedge $-1 $184 $183 $394 $395 reversed $69 $-1 #
coedge $-1 $302 $301 $183 $292 forward $285 $-1 #
edge $-1 $396 -60.272835474715414 $294 60.272835474715414 $291 $397 forward 7 unknown #
edge $-1 $398 -60.272835474715414 $295 60.272835474715414 $288 $399 forward 7 unknown #
vertex $-1 $292 $400 #
vertex $-1 $186 $401 #
straight-curve $-1 60.272835474715414 -15.900145093738759 -1.2238440789834879 0 1 0 I I #
edge $-1 $303 -22.121203718966555 $299 -9.679086468510965 $287 $402 forward 7 unknown #
coedge $-1 $188 $288 $391 $403 reversed $108 $-1 #
vertex $-1 $297 $404 #
straight-curve $-1 0 -25.579231562249724 6.8794176586797189 -1 0 0 I I #
coedge $-1 $291 $190 $392 $405 forward $285 $-1 #
coedge $-1 $190 $291 $192 $305 reversed $285 $-1 #
vertex $-1 $405 $406 #
straight-curve $-1 0 -38.021348812705313 6.8794176586797189 -1 0 0 I I #
edge $-1 $196 -6.8794176586797189 $294 1.2238440789834879 $192 $407 forward 7 unknown #
point $-1 60.272835474715414 -25.579231562249724 6.8794176586797189 #
point $-1 60.272835474715414 -38.021348812705313 6.8794176586797189 #
plane-surface $-1 0 0 14.06547391897244 0 0 1 1 0 0 forward_v I I I I #
coedge $-1 $319 $318 $311 $408 forward $199 $-1 #
coedge $-1 $311 $201 $203 $315 reversed $116 $-1 #
coedge $-1 $201 $310 $309 $408 reversed $116 $-1 #
coedge $-1 $209 $204 $201 $313 forward $210 $-1 #
edge $-1 $316 -14.215157114009756 $409 -5.2910665211391787 $312 $410 forward 7 unknown #
coedge $-1 $203 $202 $319 $411 reversed $73 $-1 #
edge $-1 $412 8.8807605448725156e-015 $316 11.030782684543809 $310 $413 forward 7 unknown #
vertex $-1 $205 $414 #
straight-curve $-1 -51.348744881844837 -5.5990684462241855 14.06547391897244 0 1 0 I I #
coedge $-1 $309 $206 $209 $323 reversed $199 $-1 #
coedge $-1 $206 $309 $314 $411 forward $199 $-1 #
vertex $-1 $207 $415 #
straight-curve $-1 -60.272835474715414 -19.763456302452958 52.552619095830913 0 0 1 I I #
straight-curve $-1 -60.272835474715421 -19.763456302452958 7.5817424529206363 -0.80901698891910034 0 -0.5877852598018023 I I #
edge $-1 $409 2.6328174824437838 $211 19.763456302452958 $318 $416 forward 7 unknown #
point $-1 -60.272835474715414 -19.763456302452958 14.06547391897244 #
point $-1 -51.348744881844837 -19.763456302452958 14.06547391897244 #
edge $-1 $417 1 $417 0 $214 $-1 forward 7 unknown #
vertex $-1 $215 $418 #
ellipse-curve $-1 -53.670890913401536 -11.198136892448371 7.8782895836290425 -0.5877852598018023 0 0.80901698891910034 1.2135254833786506 0 0.88167788970270344 1 I I #
point $-1 -54.597264694901469 -11.198136892448371 11.705286075649237 #
loop $-1 $-1 $226 $218 #
plane-surface $-1 60.272835474715414 0 0 -1 0 0 0 0 1 forward_v I I I I #
coedge $-1 $333 $221 $223 $337 reversed $131 $-1 #
coedge $-1 $221 $332 $419 $420 reversed $131 $-1 #
coedge $-1 $229 $224 $221 $335 forward $219 $-1 #
edge $-1 $338 17.370593005785139 $421 22.707377800058161 $334 $422 forward 7 unknown #
coedge $-1 $223 $222 $341 $423 reversed $82 $-1 #
edge $-1 $424 -120.54567094943086 $338 -112.24310755859538 $332 $425 forward 7 unknown #
vertex $-1 $225 $426 #
straight-curve $-1 54.936050680442392 -0.051181566624940444 14.065473918972444 0 -1 0 I I #
coedge $-1 $419 $226 $229 $345 reversed $330 $-1 #
coedge $-1 $226 $419 $336 $423 forward $330 $-1 #
vertex $-1 $227 $427 #
straight-curve $-1 60.272835474715414 6.2210586252277906 88.766973084969152 0 0 1 I I #
straight-curve $-1 -17.212427022464439 6.2210586252277906 100.04868367275846 0.64278759981090561 0 -0.7660444514056185 I I #
edge $-1 $421 -6.4257848917275524 $230 6.2210586252277906 $340 $428 forward 7 unknown #
point $-1 60.272835474715414 6.2210586252277906 14.06547391897244 #
point $-1 54.936050680442392 6.2210586252277906 14.065473918972444 #
edge $-1 $429 1 $429 0 $233 $-1 forward 7 unknown #
vertex $-1 $234 $430 #
ellipse-curve $-1 53.574965568030571 -0.10236313324988089 7.5042746063989441 0.7660444514056185 0 0.64278759981090561 1.2855751996218112 0 -1.532088902811237 1 I I #
point $-1 58.890018277200696 -0.10236313324988089 9.353318707164723 #
loop $-1 $-1 $357 $237 #
plane-surface $-1 0 0 14.06547391897244 0 0 1 1 0 0 forward_v I I I I #
coedge $-1 $243 $359 $431 $432 reversed $238 $-1 #
coedge $-1 $240 $249 $359 $433 forward $146 $-1 #
edge $-1 $361 6.2722401918527311 $250 18.919083708808081 $240 $434 forward 7 unknown #
coedge $-1 $431 $247 $241 $358 forward $352 $-1 #
edge $-1 $363 -18.919083708808081 $360 -6.2722401918527311 $357 $435 forward 7 unknown #
coedge $-1 $354 $243 $355 $433 reversed $238 $-1 #
vertex $-1 $358 $436 #
vertex $-1 $356 $437 #
straight-curve $-1 -17.212427022464439 6.2210586252277906 100.04868367275846 0.64278759981090561 0 -0.7660444514056185 I I #
vertex $-1 $248 $438 #
straight-curve $-1 -17.212427022464439 18.867902142183141 100.04868367275846 0.64278759981090561 0 -0.7660444514056185 I I #
coedge $-1 $247 $431 $249 $367 forward $352 $-1 #
straight-curve $-1 37.565457674657253 18.867902142183141 14.065473918972444 -1 0 0 I I #
edge $-1 $439 6.2210586252277906 $251 18.867902142183141 $249 $440 forward 7 unknown #
point $-1 60.272835474715421 18.867902142183141 7.7053413009795122 #
point $-1 60.272835474715414 18.867902142183141 14.06547391897244 #
edge $-1 $441 1 $441 0 $253 $-1 forward 7 unknown #
vertex $-1 $254 $442 #
ellipse-curve $-1 53.574965568030571 12.544480383705469 7.5042746063989441 0.7660444514056185 0 0.64278759981090561 1.2855751996218112 0 -1.532088902811237 1 I I #
point $-1 58.890018277200696 12.544480383705469 9.353318707164723 #
plane-surface $-1 60.272835474715414 0 0 -1 0 0 0 0 1 forward_v I I I I #
coedge $-1 $262 $260 $264 $379 reversed $161 $-1 #
edge $-1 $275 -14.06547391897244 $381 14.06547391897244 $274 $443 forward 7 unknown #
vertex $-1 $379 $444 #
straight-curve $-1 -60.272835474715414 -38.021348812705313 0 0 0 -1 I I #
edge $-1 $377 -38.021348812705313 $381 38.021348812705313 $375 $445 forward 7 unknown #
straight-curve $-1 0 -38.021348812705313 -14.06547391897244 -1 0 0 I I #
vertex $-1 $267 $446 #
straight-curve $-1 0 38.021348812705313 -14.06547391897244 1 0 0 I I #
point $-1 60.272835474715414 38.021348812705313 -14.06547391897244 #
point $-1 60.272835474715414 -38.021348812705313 -14.06547391897244 #
straight-curve $-1 -60.272835474715414 0 14.06547391897244 0 -1 0 I I #
point $-1 -60.272835474715414 38.021348812705313 14.06547391897244 #
point $-1 -60.272835474715414 -38.021348812705313 14.06547391897244 #
straight-curve $-1 60.272835474715414 -38.021348812705313 0 0 0 -1 I I #
straight-curve $-1 60.272835474715414 38.021348812705313 0 0 0 -1 I I #
plane-surface $-1 60.272835474715414 0 0 -1 0 0 0 0 1 forward_v I I I I #
coedge $-1 $394 $287 $298 $403 forward $180 $-1 #
coedge $-1 $287 $394 $301 $405 reversed $180 $-1 #
straight-curve $-1 60.272835474715414 -25.579231562249724 1.4138933949240577 0 0 1 I I #
coedge $-1 $392 $391 $290 $395 forward $180 $-1 #
edge $-1 $398 9.679086468510965 $396 22.121203718966555 $394 $447 forward 7 unknown #
vertex $-1 $292 $448 #
straight-curve $-1 0 -38.021348812705313 -1.2238440789834879 1 0 0 I I #
vertex $-1 $395 $449 #
straight-curve $-1 0 -25.579231562249724 -1.2238440789834879 1 0 0 I I #
point $-1 60.272835474715414 -38.021348812705313 -1.2238440789834879 #
point $-1 60.272835474715414 -25.579231562249724 -1.2238440789834879 #
straight-curve $-1 -60.272835474715414 -15.900145093738759 6.8794176586797189 0 1 0 I I #
edge $-1 $299 -5.4655242637556611 $398 2.6377374739075456 $391 $450 forward 7 unknown #
point $-1 -60.272835474715414 -25.579231562249724 6.8794176586797189 #
edge $-1 $303 -6.8794176586797189 $396 1.2238440789834879 $392 $451 forward 7 unknown #
point $-1 -60.272835474715414 -38.021348812705313 6.8794176586797189 #
straight-curve $-1 60.272835474715414 -38.021348812705313 0 0 0 -1 I I #
edge $-1 $409 38.487145176858476 $412 44.97087664291027 $309 $452 forward 7 unknown #
vertex $-1 $323 $453 #
straight-curve $-1 -65.563901995854593 -2.6328174824437838 14.065473918972444 -1 0 0 I I #
edge $-1 $412 -2.9662509637804018 $320 14.164387856228773 $319 $454 forward 7 unknown #
vertex $-1 $411 $455 #
straight-curve $-1 -60.272835474715421 -2.6328174824437838 7.5817424529206363 0.80901698891910034 0 0.5877852598018023 I I #
point $-1 -51.348744881844837 -2.6328174824437838 14.06547391897244 #
point $-1 -60.272835474715414 -19.763456302452958 7.5817424529206416 #
straight-curve $-1 -60.272835474715414 0 14.06547391897244 0 -1 0 I I #
vertex $-1 $326 $456 #
point $-1 -52.45736543002289 -11.198136892448371 8.7599674733317467 #
coedge $-1 $341 $340 $333 $420 forward $330 $-1 #
edge $-1 $421 74.701499165996708 $424 81.06163178398964 $419 $457 forward 7 unknown #
vertex $-1 $345 $458 #
straight-curve $-1 37.565457674657253 -6.4257848917275524 14.065473918972444 1 0 0 I I #
edge $-1 $424 -6.374603325102612 $342 6.2722401918527311 $341 $459 forward 7 unknown #
vertex $-1 $423 $460 #
straight-curve $-1 -17.212427022464439 -6.4257848917275524 100.04868367275846 -0.64278759981090561 0 0.7660444514056185 I I #
point $-1 54.936050680442392 -6.4257848917275524 14.065473918972444 #
point $-1 60.272835474715421 6.2210586252277906 7.7053413009795122 #
straight-curve $-1 60.272835474715414 0 14.06547391897244 0 1 0 I I #
vertex $-1 $348 $461 #
point $-1 54.860540767652381 -0.10236313324988089 5.9721857035877077 #
coedge $-1 $365 $357 $354 $432 forward $352 $-1 #
edge $-1 $360 17.370593005785139 $439 22.707377800058161 $431 $462 forward 7 unknown #
edge $-1 $439 74.701499165996708 $361 81.06163178398964 $355 $463 forward 7 unknown #
straight-curve $-1 60.272835474715414 -0.051181566624940444 7.7053413009795122 0 1 0 I I #
straight-curve $-1 54.936050680442392 -0.051181566624940444 14.065473918972444 0 -1 0 I I #
point $-1 54.936050680442392 6.2210586252277906 14.065473918972444 #
point $-1 60.272835474715421 6.2210586252277906 7.7053413009795122 #
point $-1 54.936050680442392 18.867902142183141 14.065473918972444 #
vertex $-1 $367 $464 #
straight-curve $-1 60.272835474715414 0 14.06547391897244 0 1 0 I I #
vertex $-1 $370 $465 #
point $-1 54.860540767652381 12.544480383705469 5.9721857035877077 #
straight-curve $-1 -60.272835474715414 38.021348812705313 0 0 0 -1 I I #
point $-1 -60.272835474715414 -38.021348812705313 -14.06547391897244 #
straight-curve $-1 -60.272835474715414 0 -14.06547391897244 0 1 0 I I #
point $-1 -60.272835474715414 38.021348812705313 -14.06547391897244 #
straight-curve $-1 -60.272835474715414 -15.900145093738759 -1.2238440789834879 0 -1 0 I I #
point $-1 -60.272835474715414 -38.021348812705313 -1.2238440789834879 #
point $-1 -60.272835474715414 -25.579231562249724 -1.2238440789834879 #
straight-curve $-1 -60.272835474715414 -25.579231562249724 1.4138933949240577 0 0 -1 I I #
straight-curve $-1 -60.272835474715414 -38.021348812705313 0 0 0 -1 I I #
straight-curve $-1 -60.272835474715414 -2.6328174824437838 52.552619095830913 0 0 -1 I I #
point $-1 -60.272835474715414 -2.6328174824437838 14.06547391897244 #
straight-curve $-1 -60.272835474715414 -5.5990684462241855 7.5817424529206425 0 -1 0 I I #
point $-1 -60.272835474715414 -2.6328174824437838 7.5817424529206416 #
point $-1 -52.789213023698835 -11.198136892448371 6.6647641002503928 #
straight-curve $-1 60.272835474715414 -6.4257848917275524 88.766973084969152 0 0 -1 I I #
point $-1 60.272835474715414 -6.4257848917275524 14.06547391897244 #
straight-curve $-1 60.272835474715414 -0.051181566624940444 7.7053413009795122 0 1 0 I I #
point $-1 60.272835474715421 -6.4257848917275524 7.7053413009795122 #
point $-1 52.042876665219332 -0.10236313324988089 6.2186994067771337 #
straight-curve $-1 37.565457674657253 6.2210586252277906 14.065473918972444 1 0 0 I I #
straight-curve $-1 60.272835474715414 6.2210586252277906 88.766973084969152 0 0 -1 I I #
point $-1 60.272835474715414 6.2210586252277906 14.06547391897244 #
point $-1 52.042876665219332 12.544480383705469 6.2186994067771337 #
End-of-ACIS-data 