500 0 3 0           
7 Unknown 11 ACIS 5.0 NT 24 Fri Mar 26 19:10:38 1999 
-1 9.9999999999999995e-007 1e-010 
body $-1 $3 $-1 $4 #
body $-1 $5 $-1 $6 #
body $-1 $7 $-1 $8 #
lump $-1 $-1 $9 $0 #
transform $-1 1 0 0 0 1 0 0 0 1 79.610583819086287 51.878199165484233 20.020928603385446 1 rotate no_reflect no_shear #
lump $-1 $-1 $10 $1 #
transform $-1 1 0 0 0 1 0 0 0 1 79.610583819086287 51.878199165484233 20.020928603385446 1 rotate no_reflect no_shear #
lump $-1 $-1 $11 $2 #
transform $-1 1 0 0 0 1 0 0 0 1 79.610583819086287 51.878199165484233 20.020928603385446 1 rotate no_reflect no_shear #
shell $-1 $-1 $-1 $12 $-1 $3 #
shell $-1 $-1 $-1 $13 $-1 $5 #
shell $-1 $-1 $-1 $14 $-1 $7 #
face $-1 $15 $16 $9 $-1 $17 forward single #
face $-1 $18 $19 $10 $-1 $20 forward single #
face $-1 $21 $22 $11 $-1 $23 reversed single #
face $-1 $24 $25 $9 $-1 $26 reversed single #
loop $-1 $-1 $27 $12 #
plane-surface $-1 0 0 20.020928603385446 0 0 1 1 0 0 forward_v I I I I #
face $-1 $28 $29 $10 $-1 $30 reversed single #
loop $-1 $-1 $31 $13 #
plane-surface $-1 0 -51.878199165484233 0 0 1 0 0 0 1 forward_v I I I I #
face $-1 $32 $33 $11 $-1 $34 reversed single #
loop $-1 $-1 $35 $14 #
plane-surface $-1 -51.527846653782916 26.441800926172959 0 0 1 0 0 0 1 forward_v I I I I #
face $-1 $36 $37 $9 $-1 $38 reversed single #
loop $-1 $-1 $39 $15 #
plane-surface $-1 0 0 -20.020928603385446 0 0 1 1 0 0 forward_v I I I I #
coedge $-1 $40 $41 $42 $43 forward $16 $-1 #
face $-1 $44 $45 $10 $-1 $46 reversed single #
loop $-1 $-1 $47 $18 #
plane-surface $-1 0 0 -20.020928603385446 0 0 1 1 0 0 forward_v I I I I #
coedge $-1 $48 $49 $50 $51 forward $19 $-1 #
face $-1 $52 $53 $11 $-1 $54 reversed single #
loop $-1 $-1 $55 $21 #
plane-surface $-1 -55.957600072822927 39.160000045828596 0 1 0 0 0 0 -1 forward_v I I I I #
coedge $-1 $56 $57 $58 $59 forward $22 $-1 #
face $-1 $60 $61 $9 $-1 $62 reversed single #
loop $-1 $-1 $63 $24 #
plane-surface $-1 0 -51.878199165484233 0 0 1 0 0 0 1 forward_v I I I I #
coedge $-1 $64 $65 $66 $67 forward $25 $-1 #
coedge $-1 $68 $27 $69 $70 forward $16 $-1 #
coedge $-1 $27 $68 $71 $72 forward $16 $-1 #
coedge $-1 $73 $74 $27 $43 reversed $75 $-1 #
edge $-1 $76 -51.878199165484233 $77 51.878199165484233 $42 $78 forward 7 unknown #
face $-1 $79 $80 $10 $-1 $81 forward single #
loop $-1 $-1 $82 $28 #
plane-surface $-1 79.610583819086287 0 0 -1 0 0 0 0 1 forward_v I I I I #
coedge $-1 $83 $84 $85 $86 forward $29 $-1 #
coedge $-1 $85 $31 $82 $87 reversed $19 $-1 #
coedge $-1 $31 $85 $88 $89 reversed $19 $-1 #
coedge $-1 $90 $91 $31 $51 reversed $80 $-1 #
edge $-1 $92 -79.610583819086287 $93 79.610583819086287 $50 $94 forward 7 unknown #
face $-1 $95 $96 $11 $-1 $97 forward single #
loop $-1 $-1 $98 $32 #
plane-surface $-1 -47.098093234742905 39.160000045828596 0 -1 0 0 0 0 1 forward_v I I I I #
coedge $-1 $99 $100 $101 $102 reversed $33 $-1 #
coedge $-1 $103 $35 $104 $105 reversed $22 $-1 #
coedge $-1 $35 $103 $106 $107 reversed $22 $-1 #
coedge $-1 $100 $99 $35 $59 reversed $33 $-1 #
edge $-1 $108 -20.020928603385446 $109 20.020928603385446 $58 $110 forward 7 unknown #
face $-1 $111 $112 $9 $-1 $113 reversed single #
loop $-1 $-1 $114 $36 #
plane-surface $-1 -79.610583819086287 0 0 1 0 0 0 0 -1 forward_v I I I I #
coedge $-1 $115 $71 $116 $117 forward $37 $-1 #
coedge $-1 $118 $39 $115 $119 forward $25 $-1 #
coedge $-1 $39 $118 $120 $121 forward $25 $-1 #
coedge $-1 $74 $73 $39 $67 reversed $75 $-1 #
edge $-1 $122 -51.878199165484233 $123 51.878199165484233 $66 $124 forward 7 unknown #
coedge $-1 $41 $40 $125 $126 forward $16 $-1 #
coedge $-1 $127 $128 $40 $70 reversed $112 $-1 #
edge $-1 $77 -79.610583819086287 $129 79.610583819086287 $69 $130 forward 7 unknown #
coedge $-1 $63 $131 $41 $72 reversed $37 $-1 #
edge $-1 $132 -79.610583819086287 $76 79.610583819086287 $71 $133 forward 7 unknown #
coedge $-1 $66 $42 $131 $134 forward $75 $-1 #
coedge $-1 $42 $66 $127 $135 reversed $75 $-1 #
loop $-1 $-1 $73 $111 #
vertex $-1 $43 $136 #
vertex $-1 $43 $137 #
straight-curve $-1 79.610583819086287 0 20.020928603385446 0 1 0 I I #
face $-1 $138 $139 $10 $-1 $140 reversed single #
loop $-1 $-1 $91 $44 #
plane-surface $-1 0 -60.301818364892149 -12.016589820766651 0 0 1 1 0 0 forward_v I I I I #
coedge $-1 $141 $142 $48 $87 forward $45 $-1 #
coedge $-1 $143 $47 $142 $144 forward $29 $-1 #
coedge $-1 $47 $143 $145 $146 forward $29 $-1 #
coedge $-1 $49 $48 $47 $86 reversed $19 $-1 #
edge $-1 $147 -79.610583819086287 $148 79.610583819086287 $47 $149 forward 7 unknown #
edge $-1 $148 -20.020928603385446 $93 -12.016589820766651 $82 $150 forward 7 unknown #
coedge $-1 $145 $151 $49 $89 forward $152 $-1 #
edge $-1 $92 12.016589820766651 $147 20.020928603385446 $88 $153 forward 7 unknown #
coedge $-1 $154 $50 $151 $155 forward $80 $-1 #
coedge $-1 $50 $154 $141 $156 forward $80 $-1 #
vertex $-1 $89 $157 #
vertex $-1 $156 $158 #
straight-curve $-1 0 -51.878199165484233 -12.016589820766651 1 0 0 I I #
face $-1 $159 $160 $11 $-1 $161 reversed single #
loop $-1 $-1 $162 $52 #
plane-surface $-1 0 0 20.020928603385446 0 0 1 1 0 0 forward_v I I I I #
coedge $-1 $163 $164 $103 $165 forward $53 $-1 #
coedge $-1 $58 $55 $166 $167 reversed $33 $-1 #
coedge $-1 $55 $58 $162 $168 reversed $33 $-1 #
coedge $-1 $169 $170 $55 $102 forward $171 $-1 #
edge $-1 $172 -20.020928603385446 $173 20.020928603385446 $101 $174 forward 7 unknown #
coedge $-1 $57 $56 $98 $165 reversed $22 $-1 #
coedge $-1 $166 $175 $56 $105 forward $160 $-1 #
edge $-1 $176 21.334169907851447 $109 30.193676745931469 $104 $177 forward 7 unknown #
coedge $-1 $178 $162 $57 $107 forward $96 $-1 #
edge $-1 $108 -30.193676745931469 $179 -21.334169907851447 $106 $180 forward 7 unknown #
vertex $-1 $107 $181 #
vertex $-1 $105 $182 #
straight-curve $-1 -55.957600072822927 26.441800926172959 0 0 0 -1 I I #
face $-1 $-1 $75 $9 $-1 $183 reversed single #
loop $-1 $-1 $127 $60 #
plane-surface $-1 0 51.878199165484233 0 0 -1 0 0 0 -1 forward_v I I I I #
coedge $-1 $184 $125 $128 $185 forward $61 $-1 #
coedge $-1 $131 $63 $64 $119 reversed $37 $-1 #
coedge $-1 $125 $184 $63 $117 reversed $61 $-1 #
edge $-1 $132 -20.020928603385446 $186 20.020928603385446 $116 $187 forward 7 unknown #
coedge $-1 $65 $64 $184 $188 forward $25 $-1 #
edge $-1 $123 -79.610583819086287 $186 79.610583819086287 $115 $189 forward 7 unknown #
coedge $-1 $128 $127 $65 $121 reversed $112 $-1 #
edge $-1 $190 -79.610583819086287 $122 79.610583819086287 $120 $191 forward 7 unknown #
vertex $-1 $67 $192 #
vertex $-1 $134 $193 #
straight-curve $-1 79.610583819086287 0 -20.020928603385446 0 -1 0 I I #
coedge $-1 $114 $116 $68 $126 reversed $61 $-1 #
edge $-1 $129 -51.878199165484233 $132 51.878199165484233 $125 $194 forward 7 unknown #
coedge $-1 $120 $69 $74 $135 forward $112 $-1 #
coedge $-1 $69 $120 $114 $185 reversed $112 $-1 #
vertex $-1 $70 $195 #
straight-curve $-1 0 51.878199165484233 20.020928603385446 -1 0 0 I I #
coedge $-1 $71 $115 $73 $134 reversed $37 $-1 #
vertex $-1 $126 $196 #
straight-curve $-1 0 -51.878199165484233 20.020928603385446 1 0 0 I I #
edge $-1 $76 -20.020928603385446 $123 20.020928603385446 $73 $197 forward 7 unknown #
edge $-1 $77 -20.020928603385446 $122 20.020928603385446 $74 $198 forward 7 unknown #
point $-1 79.610583819086287 -51.878199165484233 20.020928603385446 #
point $-1 79.610583819086287 51.878199165484233 20.020928603385446 #
face $-1 $-1 $152 $10 $-1 $199 reversed single #
loop $-1 $-1 $200 $79 #
plane-surface $-1 0 -68.725437564300066 -16.018759212076048 0 1 0 0 0 1 forward_v I I I I #
coedge $-1 $201 $82 $91 $156 reversed $45 $-1 #
coedge $-1 $82 $201 $83 $144 reversed $45 $-1 #
coedge $-1 $84 $83 $202 $203 forward $29 $-1 #
edge $-1 $148 51.878199165484233 $204 68.725437564300066 $142 $205 forward 7 unknown #
coedge $-1 $206 $88 $84 $146 reversed $152 $-1 #
edge $-1 $207 -68.725437564300066 $147 -51.878199165484233 $145 $208 forward 7 unknown #
vertex $-1 $89 $209 #
vertex $-1 $144 $210 #
straight-curve $-1 0 -51.878199165484233 -20.020928603385446 1 0 0 I I #
straight-curve $-1 79.610583819086287 -51.878199165484233 0 0 0 1 I I #
coedge $-1 $88 $206 $90 $155 reversed $152 $-1 #
loop $-1 $-1 $88 $138 #
straight-curve $-1 -79.610583819086287 -51.878199165484233 0 0 0 -1 I I #
coedge $-1 $91 $90 $211 $212 forward $80 $-1 #
edge $-1 $92 -8.4236191994079164 $213 8.4236191994079164 $151 $214 forward 7 unknown #
edge $-1 $215 -8.4236191994079164 $93 8.4236191994079164 $141 $216 forward 7 unknown #
point $-1 -79.610583819086287 -51.878199165484233 -12.016589820766651 #
point $-1 79.610583819086287 -51.878199165484233 -12.016589820766651 #
face $-1 $-1 $171 $11 $-1 $217 reversed single #
loop $-1 $-1 $166 $95 #
plane-surface $-1 0 0 -20.020928603385446 0 0 1 1 0 0 forward_v I I I I #
coedge $-1 $106 $218 $100 $168 forward $96 $-1 #
coedge $-1 $219 $98 $175 $220 reversed $53 $-1 #
coedge $-1 $98 $219 $178 $221 reversed $53 $-1 #
edge $-1 $179 -20.020928603385446 $176 20.020928603385446 $98 $222 forward 7 unknown #
coedge $-1 $223 $104 $99 $167 forward $160 $-1 #
edge $-1 $109 6.8618009032586613 $172 32.298199142569935 $166 $224 forward 7 unknown #
edge $-1 $173 -32.298199142569935 $108 -6.8618009032586613 $162 $225 forward 7 unknown #
coedge $-1 $226 $101 $218 $227 reversed $171 $-1 #
coedge $-1 $101 $226 $223 $228 reversed $171 $-1 #
loop $-1 $-1 $101 $159 #
vertex $-1 $228 $229 #
vertex $-1 $102 $230 #
straight-curve $-1 -55.957600072822927 51.878199165484233 0 0 0 1 I I #
coedge $-1 $104 $223 $163 $220 forward $160 $-1 #
vertex $-1 $105 $231 #
straight-curve $-1 -25.763923326891458 26.441800926172959 -20.020928603385446 -1 0 0 I I #
coedge $-1 $218 $106 $164 $221 forward $96 $-1 #
vertex $-1 $107 $232 #
straight-curve $-1 -25.763923326891458 26.441800926172959 20.020928603385446 1 0 0 I I #
point $-1 -55.957600072822927 26.441800926172959 20.020928603385446 #
point $-1 -55.957600072822927 26.441800926172959 -20.020928603385446 #
plane-surface $-1 79.610583819086287 0 0 -1 0 0 0 0 1 forward_v I I I I #
coedge $-1 $116 $114 $118 $188 reversed $61 $-1 #
edge $-1 $129 -20.020928603385446 $190 20.020928603385446 $128 $233 forward 7 unknown #
vertex $-1 $188 $234 #
straight-curve $-1 -79.610583819086287 -51.878199165484233 0 0 0 -1 I I #
edge $-1 $186 -51.878199165484233 $190 51.878199165484233 $184 $235 forward 7 unknown #
straight-curve $-1 0 -51.878199165484233 -20.020928603385446 -1 0 0 I I #
vertex $-1 $121 $236 #
straight-curve $-1 0 51.878199165484233 -20.020928603385446 1 0 0 I I #
point $-1 79.610583819086287 51.878199165484233 -20.020928603385446 #
point $-1 79.610583819086287 -51.878199165484233 -20.020928603385446 #
straight-curve $-1 -79.610583819086287 0 20.020928603385446 0 -1 0 I I #
point $-1 -79.610583819086287 51.878199165484233 20.020928603385446 #
point $-1 -79.610583819086287 -51.878199165484233 20.020928603385446 #
straight-curve $-1 79.610583819086287 -51.878199165484233 0 0 0 -1 I I #
straight-curve $-1 79.610583819086287 51.878199165484233 0 0 0 -1 I I #
plane-surface $-1 -79.610583819086287 0 0 1 0 0 0 0 -1 forward_v I I I I #
coedge $-1 $202 $211 $206 $237 forward $139 $-1 #
coedge $-1 $142 $141 $238 $239 forward $45 $-1 #
coedge $-1 $238 $200 $143 $203 reversed $139 $-1 #
edge $-1 $204 -79.610583819086287 $207 79.610583819086287 $202 $240 forward 7 unknown #
vertex $-1 $239 $241 #
straight-curve $-1 79.610583819086287 0 -20.020928603385446 0 -1 0 I I #
coedge $-1 $151 $145 $200 $237 reversed $152 $-1 #
vertex $-1 $146 $242 #
straight-curve $-1 -79.610583819086287 0 -20.020928603385446 0 1 0 I I #
point $-1 -79.610583819086287 -51.878199165484233 -20.020928603385446 #
point $-1 79.610583819086287 -51.878199165484233 -20.020928603385446 #
coedge $-1 $200 $238 $154 $212 reversed $139 $-1 #
edge $-1 $213 -79.610583819086287 $215 79.610583819086287 $211 $243 forward 7 unknown #
vertex $-1 $155 $244 #
straight-curve $-1 -79.610583819086287 -60.301818364892149 -12.016589820766651 0 -1 0 I I #
vertex $-1 $156 $245 #
straight-curve $-1 79.610583819086287 -60.301818364892149 -12.016589820766651 0 1 0 I I #
plane-surface $-1 0 51.878199165484233 0 0 -1 0 0 0 -1 forward_v I I I I #
coedge $-1 $162 $178 $169 $227 forward $96 $-1 #
coedge $-1 $164 $163 $226 $246 reversed $53 $-1 #
edge $-1 $247 -32.298199142569935 $176 -6.8618009032586613 $175 $248 forward 7 unknown #
edge $-1 $179 6.8618009032586613 $249 32.298199142569935 $178 $250 forward 7 unknown #
straight-curve $-1 -47.098093234742905 26.441800926172959 0 0 0 -1 I I #
coedge $-1 $175 $166 $170 $228 forward $160 $-1 #
straight-curve $-1 -55.957600072822927 19.580000022914298 -20.020928603385446 0 1 0 I I #
straight-curve $-1 -55.957600072822927 19.580000022914298 20.020928603385446 0 -1 0 I I #
coedge $-1 $170 $169 $219 $246 forward $171 $-1 #
edge $-1 $249 47.098093234742905 $173 55.957600072822927 $169 $251 forward 7 unknown #
edge $-1 $172 -55.957600072822927 $247 -47.098093234742905 $170 $252 forward 7 unknown #
point $-1 -55.957600072822927 51.878199165484233 -20.020928603385446 #
point $-1 -55.957600072822927 51.878199165484233 20.020928603385446 #
point $-1 -47.098093234742905 26.441800926172959 -20.020928603385446 #
point $-1 -47.098093234742905 26.441800926172959 20.020928603385446 #
straight-curve $-1 -79.610583819086287 51.878199165484233 0 0 0 -1 I I #
point $-1 -79.610583819086287 -51.878199165484233 -20.020928603385446 #
straight-curve $-1 -79.610583819086287 0 -20.020928603385446 0 1 0 I I #
point $-1 -79.610583819086287 51.878199165484233 -20.020928603385446 #
edge $-1 $213 -4.0021693913093976 $207 4.0021693913093976 $206 $253 forward 7 unknown #
coedge $-1 $211 $202 $201 $239 reversed $139 $-1 #
edge $-1 $215 -4.0021693913093976 $204 4.0021693913093976 $201 $254 forward 7 unknown #
straight-curve $-1 0 -68.725437564300066 -20.020928603385446 -1 0 0 I I #
point $-1 79.610583819086287 -68.725437564300066 -20.020928603385446 #
point $-1 -79.610583819086287 -68.725437564300066 -20.020928603385446 #
straight-curve $-1 0 -68.725437564300066 -12.016589820766651 1 0 0 I I #
point $-1 -79.610583819086287 -68.725437564300066 -12.016589820766651 #
point $-1 79.610583819086287 -68.725437564300066 -12.016589820766651 #
edge $-1 $249 -20.020928603385446 $247 20.020928603385446 $226 $255 forward 7 unknown #
vertex $-1 $246 $256 #
straight-curve $-1 -47.098093234742905 19.580000022914298 -20.020928603385446 0 -1 0 I I #
vertex $-1 $227 $257 #
straight-curve $-1 -47.098093234742905 19.580000022914298 20.020928603385446 0 1 0 I I #
straight-curve $-1 0 51.878199165484233 20.020928603385446 -1 0 0 I I #
straight-curve $-1 0 51.878199165484233 -20.020928603385446 1 0 0 I I #
straight-curve $-1 -79.610583819086287 -68.725437564300066 -16.018759212076048 0 0 -1 I I #
straight-curve $-1 79.610583819086287 -68.725437564300066 -16.018759212076048 0 0 -1 I I #
straight-curve $-1 -47.098093234742905 51.878199165484233 0 0 0 -1 I I #
point $-1 -47.098093234742905 51.878199165484233 -20.020928603385446 #
point $-1 -47.098093234742905 51.878199165484233 20.020928603385446 #
End-of-ACIS-data 