500 0 5 0           
7 Unknown 11 ACIS 5.0 NT 24 Fri Mar 26 15:44:29 1999 
-1 9.9999999999999995e-007 1e-010 
body $-1 $5 $-1 $6 #
body $-1 $7 $-1 $8 #
body $-1 $9 $-1 $10 #
body $-1 $11 $-1 $12 #
body $-1 $13 $-1 $14 #
lump $-1 $-1 $15 $0 #
transform $-1 1 0 0 0 1 0 0 0 1 78.4850611896115 34.260416660835844 7.0302496274949817 1 rotate no_reflect no_shear #
lump $-1 $-1 $16 $1 #
transform $-1 1 0 0 0 1 0 0 0 1 78.4850611896115 34.260416660835844 7.0302496274949817 1 rotate no_reflect no_shear #
lump $-1 $-1 $17 $2 #
transform $-1 1 0 0 0 1 0 0 0 1 78.4850611896115 34.260416660835844 7.0302496274949817 1 rotate no_reflect no_shear #
lump $-1 $-1 $18 $3 #
transform $-1 1 0 0 0 1 0 0 0 1 78.4850611896115 34.260416660835844 7.0302496274949817 1 rotate no_reflect no_shear #
lump $-1 $-1 $19 $4 #
transform $-1 1 0 0 0 1 0 0 0 1 78.4850611896115 34.260416660835844 7.0302496274949817 1 rotate no_reflect no_shear #
shell $-1 $-1 $-1 $20 $-1 $5 #
shell $-1 $-1 $-1 $21 $-1 $7 #
shell $-1 $-1 $-1 $22 $-1 $9 #
shell $-1 $-1 $-1 $23 $-1 $11 #
shell $-1 $-1 $-1 $24 $-1 $13 #
face $-1 $25 $26 $15 $-1 $27 forward single #
face $-1 $28 $29 $16 $-1 $30 forward single #
face $-1 $31 $32 $17 $-1 $33 reversed single #
face $-1 $34 $35 $18 $-1 $36 forward single #
face $-1 $37 $38 $19 $-1 $39 forward single #
face $-1 $40 $41 $15 $-1 $42 reversed single #
loop $-1 $-1 $43 $20 #
plane-surface $-1 0 0 7.0302496274949817 0 0 1 1 0 0 forward_v I I I I #
face $-1 $44 $45 $16 $-1 $46 reversed single #
loop $-1 $-1 $47 $21 #
plane-surface $-1 0 -29.625691284596911 -2.9938689322203733 0 0 1 1 0 0 forward_v I I I I #
face $-1 $48 $49 $17 $-1 $50 reversed single #
loop $-1 $-1 $51 $22 #
plane-surface $-1 -54.065094405225331 96.803510594542033 163.28996900161934 1 0 0 0 -0.70710678939079041 -0.70710677298230451 forward_v I I I I #
face $-1 $52 $53 $18 $-1 $54 forward single #
loop $-1 $55 $56 $23 #
cone-surface $-1 -45.57674935459314 31.331047112872078 4.1008800735653113 0 -0.70710678939079041 -0.70710677298230451 1 0 0 1 I I 0 1 1 forward I I I I #
face $-1 $57 $58 $19 $-1 $59 forward single #
loop $-1 $60 $61 $24 #
cone-surface $-1 -32.844231778644854 31.331047112872078 4.1008800735653113 0 -0.70710678939079041 -0.70710677298230451 1 0 0 1 I I 0 1 1 forward I I I I #
face $-1 $62 $63 $15 $-1 $64 reversed single #
loop $-1 $-1 $65 $25 #
plane-surface $-1 0 0 -7.0302496274949817 0 0 1 1 0 0 forward_v I I I I #
coedge $-1 $66 $67 $68 $69 forward $26 $-1 #
face $-1 $70 $71 $16 $-1 $72 reversed single #
loop $-1 $-1 $73 $28 #
plane-surface $-1 0 -24.990965908357978 -5.0120592798576773 0 -1 0 0 0 -1 forward_v I I I I #
coedge $-1 $74 $75 $76 $77 reversed $29 $-1 #
face $-1 $78 $79 $17 $-1 $80 reversed single #
loop $-1 $-1 $81 $31 #
plane-surface $-1 -39.210490566619001 -14.191128671309798 52.295332311409553 0 0.70710678939079041 0.70710677298230451 1 0 0 forward_v I I I I #
coedge $-1 $82 $83 $84 $85 reversed $32 $-1 #
face $-1 $-1 $86 $18 $-1 $87 forward single #
loop $-1 $88 $89 $34 #
cone-surface $-1 -45.57674935459314 29.641356019518881 2.4111890194215704 0 -0.70710678939079041 -0.70710677298230451 0.5 0 0 1 I I -0.70710678118654746 0.70710678118654746 0.5 forward I I I I #
loop $-1 $-1 $90 $23 #
coedge $-1 $56 $56 $91 $92 reversed $35 $-1 #
face $-1 $-1 $93 $19 $-1 $94 forward single #
loop $-1 $95 $96 $37 #
cone-surface $-1 -32.844231778644854 29.641356019518881 2.4111890194215704 0 -0.70710678939079041 -0.70710677298230451 0.5 0 0 1 I I -0.70710678118654746 0.70710678118654746 0.5 forward I I I I #
loop $-1 $-1 $97 $24 #
coedge $-1 $61 $61 $98 $99 reversed $38 $-1 #
face $-1 $100 $101 $15 $-1 $102 reversed single #
loop $-1 $-1 $103 $40 #
plane-surface $-1 0 -34.260416660835844 0 0 1 0 0 0 1 forward_v I I I I #
coedge $-1 $104 $105 $106 $107 forward $41 $-1 #
coedge $-1 $108 $43 $109 $110 forward $26 $-1 #
coedge $-1 $43 $108 $111 $112 forward $26 $-1 #
coedge $-1 $113 $114 $43 $69 reversed $115 $-1 #
edge $-1 $116 -34.260416660835844 $117 34.260416660835844 $68 $118 forward 7 unknown #
face $-1 $119 $120 $16 $-1 $121 reversed single #
loop $-1 $-1 $122 $44 #
plane-surface $-1 0 0 -7.0302496274949817 0 0 1 1 0 0 forward_v I I I I #
coedge $-1 $123 $124 $125 $126 reversed $45 $-1 #
coedge $-1 $127 $47 $124 $128 forward $29 $-1 #
coedge $-1 $47 $127 $129 $130 reversed $29 $-1 #
coedge $-1 $131 $125 $47 $77 forward $120 $-1 #
edge $-1 $132 10.178120266059523 $133 19.447571018537388 $76 $134 forward 7 unknown #
face $-1 $135 $136 $17 $-1 $137 reversed single #
loop $-1 $-1 $138 $48 #
plane-surface $-1 -24.355886728012671 96.803510594542033 163.28996900161934 -1 0 0 0 0.70710678939079041 0.70710677298230451 forward_v I I I I #
coedge $-1 $139 $140 $141 $142 reversed $49 $-1 #
coedge $-1 $83 $51 $143 $144 reversed $32 $-1 #
coedge $-1 $51 $82 $139 $145 reversed $32 $-1 #
coedge $-1 $141 $146 $51 $85 forward $147 $-1 #
edge $-1 $148 14.141338636435172 $149 17.327802335047153 $84 $150 forward 7 unknown #
loop $-1 $-1 $91 $52 #
plane-surface $-1 -39.210490566619001 -14.191128671309798 52.295332311409553 0 0.70710678939079041 0.70710677298230451 1 0 0 forward_v I I I I #
loop $-1 $-1 $151 $34 #
coedge $-1 $89 $89 $90 $152 reversed $53 $-1 #
coedge $-1 $90 $90 $89 $152 forward $55 $-1 #
coedge $-1 $91 $91 $56 $92 forward $86 $-1 #
edge $-1 $153 -3.1401851869803165e-015 $153 6.2831853071795969 $91 $154 forward 7 unknown #
loop $-1 $-1 $98 $57 #
plane-surface $-1 -39.210490566619001 -14.191128671309798 52.295332311409553 0 0.70710678939079041 0.70710677298230451 1 0 0 forward_v I I I I #
loop $-1 $-1 $155 $37 #
coedge $-1 $96 $96 $97 $156 reversed $58 $-1 #
coedge $-1 $97 $97 $96 $156 forward $60 $-1 #
coedge $-1 $98 $98 $61 $99 forward $93 $-1 #
edge $-1 $157 -3.1401851869803165e-015 $157 6.2831853071795969 $98 $158 forward 7 unknown #
face $-1 $159 $160 $15 $-1 $161 reversed single #
loop $-1 $-1 $162 $62 #
plane-surface $-1 -78.4850611896115 0 0 1 0 0 0 0 -1 forward_v I I I I #
coedge $-1 $163 $111 $164 $165 forward $63 $-1 #
coedge $-1 $166 $65 $163 $167 forward $41 $-1 #
coedge $-1 $65 $166 $168 $169 forward $41 $-1 #
coedge $-1 $114 $113 $65 $107 reversed $115 $-1 #
edge $-1 $170 -34.260416660835844 $171 34.260416660835844 $106 $172 forward 7 unknown #
coedge $-1 $67 $66 $173 $174 forward $26 $-1 #
coedge $-1 $175 $176 $66 $110 reversed $160 $-1 #
edge $-1 $117 -78.4850611896115 $177 78.4850611896115 $109 $178 forward 7 unknown #
coedge $-1 $103 $179 $67 $112 reversed $63 $-1 #
edge $-1 $180 -78.4850611896115 $116 78.4850611896115 $111 $181 forward 7 unknown #
coedge $-1 $106 $68 $179 $182 forward $115 $-1 #
coedge $-1 $68 $106 $175 $183 reversed $115 $-1 #
loop $-1 $-1 $113 $159 #
vertex $-1 $69 $184 #
vertex $-1 $69 $185 #
straight-curve $-1 78.4850611896115 0 7.0302496274949817 0 1 0 I I #
face $-1 $186 $187 $16 $-1 $188 reversed single #
loop $-1 $-1 $125 $70 #
plane-surface $-1 78.4850611896115 0 0 -1 0 0 0 0 1 forward_v I I I I #
coedge $-1 $189 $190 $123 $191 forward $71 $-1 #
coedge $-1 $192 $73 $122 $191 reversed $45 $-1 #
coedge $-1 $73 $192 $74 $128 reversed $45 $-1 #
coedge $-1 $76 $193 $73 $126 forward $120 $-1 #
edge $-1 $194 -4.5242199875661431 $132 -0.48783929229153467 $125 $195 forward 7 unknown #
coedge $-1 $75 $74 $196 $197 reversed $29 $-1 #
edge $-1 $132 -78.4850611896115 $198 78.4850611896115 $124 $199 forward 7 unknown #
coedge $-1 $200 $201 $75 $130 forward $187 $-1 #
edge $-1 $133 -78.4850611896115 $202 78.4850611896115 $129 $203 forward 7 unknown #
coedge $-1 $193 $76 $201 $204 forward $120 $-1 #
vertex $-1 $77 $205 #
vertex $-1 $204 $206 #
straight-curve $-1 78.4850611896115 -14.812845642298456 -2.9938689322203733 0 -1 0 I I #
face $-1 $-1 $147 $17 $-1 $207 forward single #
loop $-1 $-1 $208 $78 #
plane-surface $-1 0 34.260416660835844 0 0 -1 0 0 0 -1 forward_v I I I I #
coedge $-1 $209 $210 $211 $212 reversed $79 $-1 #
coedge $-1 $213 $81 $83 $145 forward $49 $-1 #
coedge $-1 $81 $213 $209 $214 forward $49 $-1 #
coedge $-1 $211 $84 $81 $142 forward $147 $-1 #
edge $-1 $149 -34.45984912191583 $215 -4.7506414447031702 $141 $216 forward 7 unknown #
coedge $-1 $217 $218 $82 $144 forward $136 $-1 #
edge $-1 $219 -77.801198645868894 $148 -74.614734873314688 $143 $220 forward 7 unknown #
edge $-1 $149 64.014493090800087 $219 68.520833321671731 $83 $221 forward 7 unknown #
coedge $-1 $84 $211 $217 $222 forward $147 $-1 #
loop $-1 $-1 $211 $135 #
vertex $-1 $144 $223 #
vertex $-1 $85 $224 #
straight-curve $-1 -54.065094405225331 48.401755297271016 7.0302496274949817 0 -1 0 I I #
coedge $-1 $151 $151 $-1 $225 reversed $88 $-1 #
edge $-1 $226 0 $226 6.2831853071796004 $89 $227 forward 7 unknown #
vertex $-1 $92 $228 #
ellipse-curve $-1 -45.57674935459314 32.667184811529864 5.4370177412178817 0 0.70710678939079041 0.70710677298230451 1 0 0 1 I I #
coedge $-1 $155 $155 $-1 $229 reversed $95 $-1 #
edge $-1 $230 0 $230 6.2831853071796004 $96 $231 forward 7 unknown #
vertex $-1 $99 $232 #
ellipse-curve $-1 -32.844231778644854 32.667184811529864 5.4370177412178817 0 0.70710678939079041 0.70710677298230451 1 0 0 1 I I #
face $-1 $-1 $115 $15 $-1 $233 reversed single #
loop $-1 $-1 $175 $100 #
plane-surface $-1 0 34.260416660835844 0 0 -1 0 0 0 -1 forward_v I I I I #
coedge $-1 $234 $173 $176 $235 forward $101 $-1 #
coedge $-1 $179 $103 $104 $167 reversed $63 $-1 #
coedge $-1 $173 $234 $103 $165 reversed $101 $-1 #
edge $-1 $180 -7.0302496274949817 $236 7.0302496274949817 $164 $237 forward 7 unknown #
coedge $-1 $105 $104 $234 $238 forward $41 $-1 #
edge $-1 $171 -78.4850611896115 $236 78.4850611896115 $163 $239 forward 7 unknown #
coedge $-1 $176 $175 $105 $169 reversed $160 $-1 #
edge $-1 $240 -78.4850611896115 $170 78.4850611896115 $168 $241 forward 7 unknown #
vertex $-1 $107 $242 #
vertex $-1 $182 $243 #
straight-curve $-1 78.4850611896115 0 -7.0302496274949817 0 -1 0 I I #
coedge $-1 $162 $164 $108 $174 reversed $101 $-1 #
edge $-1 $177 -34.260416660835844 $180 34.260416660835844 $173 $244 forward 7 unknown #
coedge $-1 $168 $109 $114 $183 forward $160 $-1 #
coedge $-1 $109 $168 $162 $235 reversed $160 $-1 #
vertex $-1 $110 $245 #
straight-curve $-1 0 34.260416660835844 7.0302496274949817 -1 0 0 I I #
coedge $-1 $111 $163 $113 $182 reversed $63 $-1 #
vertex $-1 $174 $246 #
straight-curve $-1 0 -34.260416660835844 7.0302496274949817 1 0 0 I I #
edge $-1 $116 -7.0302496274949817 $171 7.0302496274949817 $113 $247 forward 7 unknown #
edge $-1 $117 -7.0302496274949817 $170 7.0302496274949817 $114 $248 forward 7 unknown #
point $-1 78.4850611896115 -34.260416660835844 7.0302496274949817 #
point $-1 78.4850611896115 34.260416660835844 7.0302496274949817 #
face $-1 $-1 $249 $16 $-1 $250 reversed single #
loop $-1 $-1 $129 $119 #
plane-surface $-1 0 -34.260416660835844 0 0 1 0 0 0 1 forward_v I I I I #
coedge $-1 $251 $122 $193 $252 forward $71 $-1 #
coedge $-1 $122 $251 $253 $254 forward $71 $-1 #
edge $-1 $255 -78.4850611896115 $194 78.4850611896115 $122 $256 forward 7 unknown #
coedge $-1 $124 $123 $257 $258 reversed $45 $-1 #
coedge $-1 $125 $131 $189 $252 reversed $120 $-1 #
vertex $-1 $252 $259 #
straight-curve $-1 78.4850611896115 -24.990965908357978 -2.5060296399288386 0 0 1 I I #
coedge $-1 $257 $260 $127 $197 forward $249 $-1 #
edge $-1 $202 -19.447571018537388 $198 -10.178120266059523 $196 $261 forward 7 unknown #
vertex $-1 $197 $262 #
straight-curve $-1 0 -24.990965908357978 -2.9938689322203733 -1 0 0 I I #
coedge $-1 $263 $129 $260 $264 forward $187 $-1 #
coedge $-1 $129 $263 $131 $204 reversed $187 $-1 #
vertex $-1 $264 $265 #
straight-curve $-1 0 -34.260416660835844 -2.9938689322203733 -1 0 0 I I #
edge $-1 $133 2.9938689322203733 $266 7.0302496274949817 $131 $267 forward 7 unknown #
point $-1 78.4850611896115 -24.990965908357978 -2.9938689322203733 #
point $-1 78.4850611896115 -34.260416660835844 -2.9938689322203733 #
plane-surface $-1 0 0 7.0302496274949817 0 0 1 1 0 0 forward_v I I I I #
coedge $-1 $218 $217 $210 $268 forward $136 $-1 #
coedge $-1 $210 $138 $140 $214 reversed $79 $-1 #
coedge $-1 $138 $209 $208 $268 reversed $79 $-1 #
coedge $-1 $146 $141 $138 $212 forward $147 $-1 #
edge $-1 $215 -17.327802335047153 $269 -14.141338636435172 $211 $270 forward 7 unknown #
coedge $-1 $140 $139 $218 $271 reversed $49 $-1 #
edge $-1 $272 -68.520833321671731 $215 -64.014493090800087 $209 $273 forward 7 unknown #
vertex $-1 $142 $274 #
straight-curve $-1 -19.6052452833095 31.073952962223863 7.0302496274949782 1 0 0 I I #
coedge $-1 $208 $143 $146 $222 reversed $136 $-1 #
coedge $-1 $143 $208 $213 $271 forward $136 $-1 #
vertex $-1 $144 $275 #
straight-curve $-1 -54.065094405225331 34.260416660835844 81.64498450080967 0 0 1 I I #
straight-curve $-1 -54.065094405225331 -14.191128671309798 52.295332311409553 0 0.70710677298230451 -0.70710678939079041 I I #
edge $-1 $269 24.355886728012671 $148 54.065094405225331 $217 $276 forward 7 unknown #
point $-1 -54.065094405225331 34.260416660835844 7.0302496274949817 #
point $-1 -54.065094405225331 31.073952962223863 7.0302496274949817 #
edge $-1 $277 1 $277 0 $151 $-1 forward 7 unknown #
vertex $-1 $152 $278 #
ellipse-curve $-1 -45.57674935459314 29.994909414214277 2.7647424059127226 0 0.70710678939079041 0.70710677298230451 1 0 0 1 I I #
point $-1 -44.57674935459314 32.667184811529879 5.4370177412179004 #
edge $-1 $279 1 $279 0 $155 $-1 forward 7 unknown #
vertex $-1 $156 $280 #
ellipse-curve $-1 -32.844231778644854 29.994909414214277 2.7647424059127226 0 0.70710678939079041 0.70710677298230451 1 0 0 1 I I #
point $-1 -31.844231778644854 32.667184811529879 5.4370177412179004 #
plane-surface $-1 78.4850611896115 0 0 -1 0 0 0 0 1 forward_v I I I I #
coedge $-1 $164 $162 $166 $238 reversed $101 $-1 #
edge $-1 $177 -7.0302496274949817 $240 7.0302496274949817 $176 $281 forward 7 unknown #
vertex $-1 $238 $282 #
straight-curve $-1 -78.4850611896115 -34.260416660835844 0 0 0 -1 I I #
edge $-1 $236 -34.260416660835844 $240 34.260416660835844 $234 $283 forward 7 unknown #
straight-curve $-1 0 -34.260416660835844 -7.0302496274949817 -1 0 0 I I #
vertex $-1 $169 $284 #
straight-curve $-1 0 34.260416660835844 -7.0302496274949817 1 0 0 I I #
point $-1 78.4850611896115 34.260416660835844 -7.0302496274949817 #
point $-1 78.4850611896115 -34.260416660835844 -7.0302496274949817 #
straight-curve $-1 -78.4850611896115 0 7.0302496274949817 0 -1 0 I I #
point $-1 -78.4850611896115 34.260416660835844 7.0302496274949817 #
point $-1 -78.4850611896115 -34.260416660835844 7.0302496274949817 #
straight-curve $-1 78.4850611896115 -34.260416660835844 0 0 0 -1 I I #
straight-curve $-1 78.4850611896115 34.260416660835844 0 0 0 -1 I I #
loop $-1 $-1 $257 $186 #
plane-surface $-1 -78.4850611896115 0 0 1 0 0 0 0 -1 forward_v I I I I #
coedge $-1 $190 $189 $263 $285 forward $71 $-1 #
edge $-1 $194 24.990965908357978 $266 34.260416660835844 $193 $286 forward 7 unknown #
coedge $-1 $260 $257 $190 $254 reversed $249 $-1 #
edge $-1 $287 -34.260416660835844 $255 -24.990965908357978 $253 $288 forward 7 unknown #
vertex $-1 $258 $289 #
straight-curve $-1 0 -24.990965908357978 -7.0302496274949817 1 0 0 I I #
coedge $-1 $253 $196 $192 $258 forward $249 $-1 #
edge $-1 $198 0.48783929229153467 $255 4.5242199875661431 $257 $290 forward 7 unknown #
point $-1 78.4850611896115 -24.990965908357978 -7.0302496274949817 #
coedge $-1 $196 $253 $200 $264 reversed $249 $-1 #
straight-curve $-1 -78.4850611896115 -14.812845642298456 -2.9938689322203733 0 1 0 I I #
point $-1 -78.4850611896115 -24.990965908357978 -2.9938689322203733 #
coedge $-1 $201 $200 $251 $285 reversed $187 $-1 #
edge $-1 $202 2.9938689322203733 $287 7.0302496274949817 $260 $291 forward 7 unknown #
point $-1 -78.4850611896115 -34.260416660835844 -2.9938689322203733 #
vertex $-1 $204 $292 #
straight-curve $-1 78.4850611896115 -34.260416660835844 0 0 0 -1 I I #
edge $-1 $269 74.614734873314688 $272 77.801198645868894 $208 $293 forward 7 unknown #
vertex $-1 $222 $294 #
straight-curve $-1 -24.355886728012671 48.401755297271016 7.0302496274949817 0 1 0 I I #
edge $-1 $272 4.7506414447031702 $219 34.45984912191583 $218 $295 forward 7 unknown #
vertex $-1 $271 $296 #
straight-curve $-1 -24.355886728012671 -14.191128671309798 52.295332311409553 0 -0.70710677298230451 0.70710678939079041 I I #
point $-1 -24.355886728012671 31.073952962223863 7.0302496274949817 #
point $-1 -54.065094405225331 34.260416660835851 3.8437858549407764 #
straight-curve $-1 0 34.260416660835844 7.0302496274949817 -1 0 0 I I #
vertex $-1 $225 $297 #
point $-1 -44.57674935459314 29.994909414214277 2.7647424059127226 #
vertex $-1 $229 $298 #
point $-1 -31.844231778644854 29.994909414214277 2.7647424059127226 #
straight-curve $-1 -78.4850611896115 34.260416660835844 0 0 0 -1 I I #
point $-1 -78.4850611896115 -34.260416660835844 -7.0302496274949817 #
straight-curve $-1 -78.4850611896115 0 -7.0302496274949817 0 1 0 I I #
point $-1 -78.4850611896115 34.260416660835844 -7.0302496274949817 #
edge $-1 $266 -78.4850611896115 $287 78.4850611896115 $263 $299 forward 7 unknown #
straight-curve $-1 78.4850611896115 0 -7.0302496274949817 0 -1 0 I I #
vertex $-1 $254 $300 #
straight-curve $-1 -78.4850611896115 0 -7.0302496274949817 0 1 0 I I #
point $-1 -78.4850611896115 -24.990965908357978 -7.0302496274949817 #
straight-curve $-1 -78.4850611896115 -24.990965908357978 -2.5060296399288386 0 0 -1 I I #
straight-curve $-1 -78.4850611896115 -34.260416660835844 0 0 0 -1 I I #
point $-1 78.4850611896115 -34.260416660835844 -7.0302496274949817 #
straight-curve $-1 -24.355886728012671 34.260416660835844 81.64498450080967 0 0 -1 I I #
point $-1 -24.355886728012671 34.260416660835844 7.0302496274949817 #
straight-curve $-1 -19.6052452833095 34.260416660835844 3.8437858549407871 -1 0 0 I I #
point $-1 -24.355886728012671 34.260416660835851 3.8437858549407764 #
point $-1 -45.57674935459314 29.287802624823485 2.0576356329304182 #
point $-1 -32.844231778644854 29.287802624823485 2.0576356329304182 #
straight-curve $-1 0 -34.260416660835844 -7.0302496274949817 -1 0 0 I I #
point $-1 -78.4850611896115 -34.260416660835844 -7.0302496274949817 #
End-of-ACIS-data 