500 0 9 0           
7 Unknown 11 ACIS 5.0 NT 24 Thu Mar 25 21:13:25 1999 
-1 9.9999999999999995e-007 1e-010 
body $-1 $9 $-1 $10 #
body $-1 $11 $-1 $12 #
body $-1 $13 $-1 $14 #
body $-1 $15 $-1 $16 #
body $-1 $17 $-1 $18 #
body $-1 $19 $-1 $20 #
body $-1 $21 $-1 $22 #
body $-1 $23 $-1 $24 #
body $-1 $25 $-1 $26 #
lump $-1 $-1 $27 $0 #
transform $-1 1 0 0 0 1 0 0 0 1 48.913846247749262 25.718320263660026 8.3080841036063031 1 rotate no_reflect no_shear #
lump $-1 $-1 $28 $1 #
transform $-1 1 0 0 0 1 0 0 0 1 48.913846247749262 25.718320263660026 8.3080841036063031 1 rotate no_reflect no_shear #
lump $-1 $-1 $29 $2 #
transform $-1 1 0 0 0 1 0 0 0 1 48.913846247749262 25.718320263660026 8.3080841036063031 1 rotate no_reflect no_shear #
lump $-1 $-1 $30 $3 #
transform $-1 1 0 0 0 1 0 0 0 1 48.913846247749262 25.718320263660026 8.3080841036063031 1 rotate no_reflect no_shear #
lump $-1 $-1 $31 $4 #
transform $-1 1 0 0 0 1 0 0 0 1 48.913846247749262 25.718320263660026 8.3080841036063031 1 rotate no_reflect no_shear #
lump $-1 $-1 $32 $5 #
transform $-1 1 0 0 0 1 0 0 0 1 48.913846247749262 25.718320263660026 8.3080841036063031 1 rotate no_reflect no_shear #
lump $-1 $-1 $33 $6 #
transform $-1 1 0 0 0 1 0 0 0 1 48.913846247749262 25.718320263660026 8.3080841036063031 1 rotate no_reflect no_shear #
lump $-1 $-1 $34 $7 #
transform $-1 1 0 0 0 1 0 0 0 1 48.913846247749262 25.718320263660026 8.3080841036063031 1 rotate no_reflect no_shear #
lump $-1 $-1 $35 $8 #
transform $-1 1 0 0 0 1 0 0 0 1 48.913846247749262 25.718320263660026 8.3080841036063031 1 rotate no_reflect no_shear #
shell $-1 $-1 $-1 $36 $-1 $9 #
shell $-1 $-1 $-1 $37 $-1 $11 #
shell $-1 $-1 $-1 $38 $-1 $13 #
shell $-1 $-1 $-1 $39 $-1 $15 #
shell $-1 $-1 $-1 $40 $-1 $17 #
shell $-1 $-1 $-1 $41 $-1 $19 #
shell $-1 $-1 $-1 $42 $-1 $21 #
shell $-1 $-1 $-1 $43 $-1 $23 #
shell $-1 $-1 $-1 $44 $-1 $25 #
face $-1 $45 $46 $27 $-1 $47 reversed single #
face $-1 $48 $49 $28 $-1 $50 forward single #
face $-1 $51 $52 $29 $-1 $53 forward single #
face $-1 $54 $55 $30 $-1 $56 reversed single #
face $-1 $57 $58 $31 $-1 $59 forward single #
face $-1 $60 $61 $32 $-1 $62 forward single #
face $-1 $63 $64 $33 $-1 $65 reversed single #
face $-1 $66 $67 $34 $-1 $68 forward single #
face $-1 $69 $70 $35 $-1 $71 forward single #
face $-1 $72 $73 $27 $-1 $74 forward single #
loop $-1 $-1 $75 $36 #
plane-surface $-1 48.913846247749262 0 0 -1 0 0 0 0 1 forward_v I I I I #
face $-1 $76 $77 $28 $-1 $78 reversed single #
loop $-1 $-1 $79 $37 #
plane-surface $-1 -48.913846247749262 0 0 1 0 0 0 0 -1 forward_v I I I I #
face $-1 $80 $81 $29 $-1 $82 reversed single #
loop $-1 $-1 $83 $38 #
plane-surface $-1 48.913846247749262 0 0 -1 0 0 0 0 1 forward_v I I I I #
face $-1 $84 $85 $30 $-1 $86 reversed single #
loop $-1 $-1 $87 $39 #
plane-surface $-1 -7.6861157991442361 -101.74471721474319 63.80567297834844 -1 0 0 0 -0.77714596973225614 0.62932038083071107 forward_v I I I I #
face $-1 $88 $89 $31 $-1 $90 forward single #
loop $-1 $91 $92 $40 #
cone-surface $-1 -17.711591108674707 -22.211509967977452 4.4239792605112456 0 0.77714596973225614 -0.62932038083071107 1 0 0 1 I I 0 1 1 forward I I I I #
face $-1 $93 $94 $32 $-1 $95 forward single #
loop $-1 $96 $97 $41 #
cone-surface $-1 -11.696305922956427 -22.211509967977452 4.4239792605112456 0 0.77714596973225614 -0.62932038083071107 1 0 0 1 I I 0 1 1 forward I I I I #
face $-1 $98 $99 $33 $-1 $100 reversed single #
loop $-1 $-1 $101 $42 #
plane-surface $-1 -21.721781232486901 69.374591009437751 103.77945086072205 1 0 0 0 -0.77714596973225614 -0.62932038083071107 forward_v I I I I #
face $-1 $102 $103 $34 $-1 $104 forward single #
loop $-1 $105 $106 $43 #
cone-surface $-1 -17.711591108674707 22.211509967977456 4.4239792605112527 0 -0.77714596973225614 -0.62932038083071107 1 0 0 1 I I 0 1 1 forward I I I I #
face $-1 $107 $108 $35 $-1 $109 forward single #
loop $-1 $110 $111 $44 #
cone-surface $-1 -11.696305922956427 22.211509967977456 4.4239792605112527 0 -0.77714596973225614 -0.62932038083071107 1 0 0 1 I I 0 1 1 forward I I I I #
face $-1 $112 $113 $27 $-1 $114 reversed single #
loop $-1 $-1 $115 $45 #
plane-surface $-1 0 0 8.3080841036063031 0 0 1 1 0 0 forward_v I I I I #
coedge $-1 $116 $117 $118 $119 reversed $46 $-1 #
face $-1 $120 $121 $28 $-1 $122 forward single #
loop $-1 $-1 $123 $48 #
plane-surface $-1 0 25.718320263660026 0 0 -1 0 0 0 -1 forward_v I I I I #
coedge $-1 $124 $125 $126 $127 forward $49 $-1 #
face $-1 $128 $129 $29 $-1 $130 forward single #
loop $-1 $-1 $131 $51 #
plane-surface $-1 0 -25.718320263660026 0 0 1 0 0 0 1 forward_v I I I I #
coedge $-1 $132 $133 $134 $135 forward $52 $-1 #
face $-1 $136 $137 $30 $-1 $138 reversed single #
loop $-1 $-1 $139 $54 #
plane-surface $-1 -14.703948515815568 -25.718320263660033 2.2407122812916143 0 -0.77714596973225614 0.62932038083071107 1 0 0 forward_v I I I I #
coedge $-1 $140 $141 $142 $143 reversed $55 $-1 #
face $-1 $-1 $144 $31 $-1 $145 forward single #
loop $-1 $146 $147 $57 #
cone-surface $-1 -17.711591108674707 -20.772757033962041 3.258900138158177 0 0.77714596973225614 -0.62932038083071107 0.5 0 0 1 I I -0.70710678118654746 0.70710678118654746 0.5 forward I I I I #
loop $-1 $-1 $148 $40 #
coedge $-1 $92 $92 $149 $150 reversed $58 $-1 #
face $-1 $-1 $151 $32 $-1 $152 forward single #
loop $-1 $153 $154 $60 #
cone-surface $-1 -11.696305922956427 -20.772757033962041 3.258900138158177 0 0.77714596973225614 -0.62932038083071107 0.5 0 0 1 I I -0.70710678118654746 0.70710678118654746 0.5 forward I I I I #
loop $-1 $-1 $155 $41 #
coedge $-1 $97 $97 $156 $157 reversed $61 $-1 #
face $-1 $158 $159 $33 $-1 $160 reversed single #
loop $-1 $-1 $161 $63 #
plane-surface $-1 -14.703948515815568 -6.6518059416454065 42.214490163665225 0 0.77714596973225614 0.62932038083071107 1 0 0 forward_v I I I I #
coedge $-1 $162 $163 $164 $165 reversed $64 $-1 #
face $-1 $-1 $166 $34 $-1 $167 forward single #
loop $-1 $168 $169 $66 #
cone-surface $-1 -17.711591108674707 20.772757033962044 3.2589001381581841 0 -0.77714596973225614 -0.62932038083071107 0.5 0 0 1 I I -0.70710678118654746 0.70710678118654746 0.5 forward I I I I #
loop $-1 $-1 $170 $43 #
coedge $-1 $106 $106 $171 $172 reversed $67 $-1 #
face $-1 $-1 $173 $35 $-1 $174 forward single #
loop $-1 $175 $176 $69 #
cone-surface $-1 -11.696305922956427 20.772757033962044 3.2589001381581841 0 -0.77714596973225614 -0.62932038083071107 0.5 0 0 1 I I -0.70710678118654746 0.70710678118654746 0.5 forward I I I I #
loop $-1 $-1 $177 $44 #
coedge $-1 $111 $111 $178 $179 reversed $70 $-1 #
face $-1 $180 $181 $27 $-1 $182 reversed single #
loop $-1 $-1 $183 $72 #
plane-surface $-1 0 0 -8.3080841036063031 0 0 1 1 0 0 forward_v I I I I #
coedge $-1 $184 $185 $116 $186 forward $73 $-1 #
coedge $-1 $187 $75 $115 $186 reversed $46 $-1 #
coedge $-1 $75 $187 $183 $188 reversed $46 $-1 #
coedge $-1 $189 $190 $75 $119 forward $191 $-1 #
edge $-1 $192 -8.3080841036063031 $193 8.3080841036063031 $75 $194 forward 7 unknown #
face $-1 $195 $196 $28 $-1 $197 reversed single #
loop $-1 $-1 $126 $76 #
plane-surface $-1 -54.153864704547502 0 3.0143509354375788 0 0 1 1 0 0 forward_v I I I I #
coedge $-1 $198 $199 $125 $200 forward $77 $-1 #
coedge $-1 $201 $79 $202 $203 reversed $49 $-1 #
coedge $-1 $79 $201 $123 $200 reversed $49 $-1 #
coedge $-1 $204 $205 $79 $127 reversed $121 $-1 #
edge $-1 $206 -25.718320263660026 $207 25.718320263660026 $126 $208 forward 7 unknown #
face $-1 $209 $210 $29 $-1 $211 reversed single #
loop $-1 $-1 $212 $80 #
plane-surface $-1 54.153864704547502 0 3.0143509354375788 0 0 1 1 0 0 forward_v I I I I #
coedge $-1 $213 $214 $133 $215 forward $81 $-1 #
coedge $-1 $216 $83 $217 $218 reversed $52 $-1 #
coedge $-1 $83 $216 $131 $215 reversed $52 $-1 #
coedge $-1 $219 $220 $83 $135 reversed $129 $-1 #
edge $-1 $221 -25.718320263660026 $222 25.718320263660026 $134 $223 forward 7 unknown #
face $-1 $224 $225 $30 $-1 $226 forward single #
loop $-1 $-1 $227 $84 #
plane-surface $-1 -21.721781232486901 -101.74471721474319 63.80567297834844 1 0 0 0 0.77714596973225614 -0.62932038083071107 forward_v I I I I #
coedge $-1 $228 $229 $230 $231 reversed $85 $-1 #
coedge $-1 $141 $87 $232 $233 reversed $55 $-1 #
coedge $-1 $87 $140 $228 $234 reversed $55 $-1 #
coedge $-1 $230 $235 $87 $143 forward $225 $-1 #
edge $-1 $236 25.154038343711569 $237 30.067299036778145 $142 $238 forward 7 unknown #
loop $-1 $-1 $149 $88 #
plane-surface $-1 -14.703948515815568 -25.718320263660033 2.2407122812916143 0 -0.77714596973225614 0.62932038083071107 1 0 0 forward_v I I I I #
loop $-1 $-1 $239 $57 #
coedge $-1 $147 $147 $148 $240 reversed $89 $-1 #
coedge $-1 $148 $148 $147 $240 forward $91 $-1 #
coedge $-1 $149 $149 $92 $150 forward $144 $-1 #
edge $-1 $241 1.6506228750585818e-016 $241 6.2831853071796004 $149 $242 forward 7 unknown #
loop $-1 $-1 $156 $93 #
plane-surface $-1 -14.703948515815568 -25.718320263660033 2.2407122812916143 0 -0.77714596973225614 0.62932038083071107 1 0 0 forward_v I I I I #
loop $-1 $-1 $243 $60 #
coedge $-1 $154 $154 $155 $244 reversed $94 $-1 #
coedge $-1 $155 $155 $154 $244 forward $96 $-1 #
coedge $-1 $156 $156 $97 $157 forward $151 $-1 #
edge $-1 $245 1.6506228750585818e-016 $245 6.2831853071796004 $156 $246 forward 7 unknown #
face $-1 $247 $248 $33 $-1 $249 reversed single #
loop $-1 $-1 $250 $98 #
plane-surface $-1 -7.6861157991442361 69.374591009437751 103.77945086072205 -1 0 0 0 0.77714596973225614 0.62932038083071107 forward_v I I I I #
coedge $-1 $251 $252 $253 $254 reversed $99 $-1 #
coedge $-1 $163 $101 $255 $256 reversed $64 $-1 #
coedge $-1 $101 $162 $251 $257 reversed $64 $-1 #
coedge $-1 $253 $258 $101 $165 forward $259 $-1 #
edge $-1 $260 8.9689752410588497 $261 13.882235934125418 $164 $262 forward 7 unknown #
loop $-1 $-1 $171 $102 #
plane-surface $-1 -14.703948515815568 -6.6518059416454065 42.214490163665225 0 0.77714596973225614 0.62932038083071107 1 0 0 forward_v I I I I #
loop $-1 $-1 $263 $66 #
coedge $-1 $169 $169 $170 $264 reversed $103 $-1 #
coedge $-1 $170 $170 $169 $264 forward $105 $-1 #
coedge $-1 $171 $171 $106 $172 forward $166 $-1 #
edge $-1 $265 -1.5455508460520911e-015 $265 6.2831853071795987 $171 $266 forward 7 unknown #
loop $-1 $-1 $178 $107 #
plane-surface $-1 -14.703948515815568 -6.6518059416454065 42.214490163665225 0 0.77714596973225614 0.62932038083071107 1 0 0 forward_v I I I I #
loop $-1 $-1 $267 $69 #
coedge $-1 $176 $176 $177 $268 reversed $108 $-1 #
coedge $-1 $177 $177 $176 $268 forward $110 $-1 #
coedge $-1 $178 $178 $111 $179 forward $173 $-1 #
edge $-1 $269 -1.5455508460520911e-015 $269 6.2831853071795987 $178 $270 forward 7 unknown #
face $-1 $271 $272 $27 $-1 $273 reversed single #
loop $-1 $-1 $274 $112 #
plane-surface $-1 0 -25.718320263660026 0 0 1 0 0 0 1 forward_v I I I I #
coedge $-1 $275 $276 $117 $188 forward $113 $-1 #
coedge $-1 $277 $115 $190 $278 forward $73 $-1 #
coedge $-1 $115 $277 $279 $280 forward $73 $-1 #
edge $-1 $281 -25.718320263660026 $192 25.718320263660026 $116 $282 forward 7 unknown #
coedge $-1 $117 $116 $283 $284 forward $46 $-1 #
edge $-1 $193 -25.718320263660026 $285 25.718320263660026 $117 $286 forward 7 unknown #
coedge $-1 $287 $118 $276 $288 reversed $191 $-1 #
coedge $-1 $118 $287 $184 $278 reversed $191 $-1 #
loop $-1 $-1 $118 $271 #
vertex $-1 $186 $289 #
vertex $-1 $188 $290 #
straight-curve $-1 48.913846247749262 25.718320263660026 0 0 0 -1 I I #
face $-1 $291 $292 $28 $-1 $293 reversed single #
loop $-1 $-1 $294 $120 #
plane-surface $-1 -54.153864704547502 0 -1.1002133278914514 0 0 1 1 0 0 forward_v I I I I #
coedge $-1 $295 $123 $296 $297 reversed $77 $-1 #
coedge $-1 $123 $295 $204 $298 reversed $77 $-1 #
edge $-1 $206 -3.0143509354375788 $299 1.1002133278914514 $123 $300 forward 7 unknown #
coedge $-1 $125 $124 $294 $301 forward $49 $-1 #
coedge $-1 $302 $303 $124 $203 forward $304 $-1 #
edge $-1 $305 -1.1002133278914514 $207 3.0143509354375788 $202 $306 forward 7 unknown #
coedge $-1 $307 $126 $199 $298 forward $121 $-1 #
coedge $-1 $126 $307 $302 $308 forward $121 $-1 #
vertex $-1 $200 $309 #
vertex $-1 $308 $310 #
straight-curve $-1 -48.913846247749262 0 3.0143509354375788 0 -1 0 I I #
face $-1 $311 $312 $29 $-1 $313 reversed single #
loop $-1 $-1 $314 $128 #
plane-surface $-1 54.153864704547502 0 -1.1002133278914514 0 0 1 1 0 0 forward_v I I I I #
coedge $-1 $220 $219 $315 $316 forward $129 $-1 #
coedge $-1 $317 $131 $318 $319 reversed $81 $-1 #
coedge $-1 $131 $317 $219 $320 reversed $81 $-1 #
edge $-1 $221 -3.0143509354375788 $321 1.1002133278914514 $131 $322 forward 7 unknown #
coedge $-1 $133 $132 $323 $324 forward $52 $-1 #
coedge $-1 $325 $326 $132 $218 forward $327 $-1 #
edge $-1 $328 -1.1002133278914514 $222 3.0143509354375788 $217 $329 forward 7 unknown #
coedge $-1 $212 $134 $214 $320 forward $129 $-1 #
coedge $-1 $134 $212 $325 $330 forward $129 $-1 #
vertex $-1 $215 $331 #
vertex $-1 $330 $332 #
straight-curve $-1 48.913846247749262 0 3.0143509354375788 0 1 0 I I #
face $-1 $-1 $333 $30 $-1 $334 reversed single #
loop $-1 $-1 $142 $136 #
plane-surface $-1 0 0 8.3080841036063031 0 0 1 1 0 0 forward_v I I I I #
coedge $-1 $335 $336 $337 $338 reversed $137 $-1 #
coedge $-1 $339 $139 $141 $234 forward $85 $-1 #
coedge $-1 $139 $339 $335 $340 forward $85 $-1 #
coedge $-1 $337 $142 $139 $231 forward $225 $-1 #
edge $-1 $237 0.3341415412364519 $341 14.369806974579117 $230 $342 forward 7 unknown #
coedge $-1 $343 $344 $140 $233 forward $333 $-1 #
edge $-1 $345 -29.662124207882599 $236 -23.594752385567915 $232 $346 forward 7 unknown #
edge $-1 $237 -7.8072486490601403 $345 -1.1374033043381581e-014 $141 $347 forward 7 unknown #
coedge $-1 $142 $337 $343 $348 forward $225 $-1 #
vertex $-1 $233 $349 #
vertex $-1 $143 $350 #
straight-curve $-1 -7.6861157991442361 -50.872358607371595 8.3080841036063049 0 1 0 I I #
coedge $-1 $239 $239 $-1 $351 reversed $146 $-1 #
edge $-1 $352 0 $352 6.2831853071796004 $147 $353 forward 7 unknown #
vertex $-1 $150 $354 #
ellipse-curve $-1 -17.711591108674707 -23.261689917126738 5.2743981924489614 0 -0.77714596973225614 0.62932038083071107 1 0 0 1 I I #
coedge $-1 $243 $243 $-1 $355 reversed $153 $-1 #
edge $-1 $356 0 $356 6.2831853071796004 $154 $357 forward 7 unknown #
vertex $-1 $157 $358 #
ellipse-curve $-1 -11.696305922956427 -23.261689917126738 5.2743981924489614 0 -0.77714596973225614 0.62932038083071107 1 0 0 1 I I #
face $-1 $-1 $259 $33 $-1 $359 forward single #
loop $-1 $-1 $360 $158 #
plane-surface $-1 0 25.718320263660026 0 0 -1 0 0 0 -1 forward_v I I I I #
coedge $-1 $361 $362 $363 $364 reversed $159 $-1 #
coedge $-1 $365 $161 $163 $257 forward $99 $-1 #
coedge $-1 $161 $365 $361 $366 forward $99 $-1 #
coedge $-1 $363 $164 $161 $254 forward $259 $-1 #
edge $-1 $261 -14.369806974579117 $367 -0.3341415412364519 $253 $368 forward 7 unknown #
coedge $-1 $369 $370 $162 $256 forward $248 $-1 #
edge $-1 $371 -49.649013149069397 $260 -43.58164132675472 $255 $372 forward 7 unknown #
edge $-1 $261 43.629391878259909 $371 51.436640527320037 $163 $373 forward 7 unknown #
coedge $-1 $164 $363 $369 $374 forward $259 $-1 #
loop $-1 $-1 $363 $247 #
vertex $-1 $256 $375 #
vertex $-1 $165 $376 #
straight-curve $-1 -21.721781232486901 34.687295504718875 8.3080841036063049 0 -1 0 I I #
coedge $-1 $263 $263 $-1 $377 reversed $168 $-1 #
edge $-1 $378 0 $378 6.2831853071796004 $169 $379 forward 7 unknown #
vertex $-1 $172 $380 #
ellipse-curve $-1 -17.711591108674707 23.261689917126741 5.2743981924489667 0 0.77714596973225614 0.62932038083071107 1 0 0 1 I I #
coedge $-1 $267 $267 $-1 $381 reversed $175 $-1 #
edge $-1 $382 0 $382 6.2831853071796004 $176 $383 forward 7 unknown #
vertex $-1 $179 $384 #
ellipse-curve $-1 -11.696305922956427 23.261689917126741 5.2743981924489667 0 0.77714596973225614 0.62932038083071107 1 0 0 1 I I #
face $-1 $-1 $191 $27 $-1 $385 reversed single #
loop $-1 $-1 $386 $180 #
plane-surface $-1 -48.913846247749262 0 0 1 0 0 0 0 -1 forward_v I I I I #
coedge $-1 $387 $279 $386 $388 forward $181 $-1 #
coedge $-1 $389 $183 $387 $390 forward $113 $-1 #
coedge $-1 $183 $389 $189 $288 forward $113 $-1 #
coedge $-1 $185 $184 $391 $392 forward $73 $-1 #
edge $-1 $192 -48.913846247749262 $393 48.913846247749262 $190 $394 forward 7 unknown #
coedge $-1 $274 $283 $185 $280 reversed $181 $-1 #
edge $-1 $395 -48.913846247749262 $281 48.913846247749262 $279 $396 forward 7 unknown #
vertex $-1 $186 $397 #
straight-curve $-1 48.913846247749262 0 8.3080841036063031 0 1 0 I I #
coedge $-1 $279 $387 $187 $284 reversed $181 $-1 #
edge $-1 $281 -8.3080841036063031 $285 8.3080841036063031 $187 $398 forward 7 unknown #
vertex $-1 $284 $399 #
straight-curve $-1 48.913846247749262 0 -8.3080841036063031 0 -1 0 I I #
coedge $-1 $190 $189 $400 $401 reversed $191 $-1 #
edge $-1 $402 -48.913846247749262 $193 48.913846247749262 $189 $403 forward 7 unknown #
point $-1 48.913846247749262 25.718320263660026 8.3080841036063031 #
point $-1 48.913846247749262 25.718320263660026 -8.3080841036063031 #
face $-1 $-1 $304 $28 $-1 $404 reversed single #
loop $-1 $-1 $405 $195 #
plane-surface $-1 -59.393883161345741 0 0.95706880377306369 1 0 0 0 0 -1 forward_v I I I I #
coedge $-1 $406 $296 $201 $301 reversed $196 $-1 #
coedge $-1 $199 $198 $405 $407 reversed $77 $-1 #
coedge $-1 $294 $408 $198 $297 forward $196 $-1 #
edge $-1 $409 -5.2400184567982393 $299 5.2400184567982393 $198 $410 forward 7 unknown #
edge $-1 $206 -5.2400184567982393 $411 5.2400184567982393 $199 $412 forward 7 unknown #
vertex $-1 $200 $413 #
straight-curve $-1 -48.913846247749262 25.718320263660026 0 0 0 -1 I I #
edge $-1 $305 -25.718320263660026 $299 25.718320263660026 $294 $414 forward 7 unknown #
coedge $-1 $415 $202 $205 $308 reversed $304 $-1 #
coedge $-1 $202 $415 $406 $416 reversed $304 $-1 #
loop $-1 $-1 $202 $291 #
vertex $-1 $203 $417 #
straight-curve $-1 -48.913846247749262 -25.718320263660026 0 0 0 1 I I #
coedge $-1 $205 $204 $418 $419 forward $121 $-1 #
edge $-1 $420 -5.2400184567982393 $207 5.2400184567982393 $302 $421 forward 7 unknown #
point $-1 -48.913846247749262 25.718320263660026 3.0143509354375788 #
point $-1 -48.913846247749262 -25.718320263660026 3.0143509354375788 #
face $-1 $-1 $327 $29 $-1 $422 reversed single #
loop $-1 $-1 $423 $209 #
plane-surface $-1 59.393883161345741 0 0.95706880377306369 -1 0 0 0 0 1 forward_v I I I I #
coedge $-1 $318 $424 $425 $426 forward $210 $-1 #
coedge $-1 $423 $427 $212 $316 reversed $312 $-1 #
edge $-1 $428 -25.718320263660026 $429 25.718320263660026 $315 $430 forward 7 unknown #
coedge $-1 $214 $213 $423 $431 reversed $81 $-1 #
coedge $-1 $323 $314 $213 $319 forward $210 $-1 #
edge $-1 $432 -5.2400184567982393 $321 5.2400184567982393 $213 $433 forward 7 unknown #
edge $-1 $221 -5.2400184567982393 $428 5.2400184567982393 $214 $434 forward 7 unknown #
vertex $-1 $215 $435 #
straight-curve $-1 48.913846247749262 -25.718320263660026 0 0 0 -1 I I #
coedge $-1 $424 $318 $216 $324 reversed $210 $-1 #
edge $-1 $328 -25.718320263660026 $321 25.718320263660026 $323 $436 forward 7 unknown #
coedge $-1 $437 $217 $220 $330 reversed $327 $-1 #
coedge $-1 $217 $437 $424 $438 reversed $327 $-1 #
loop $-1 $-1 $217 $311 #
vertex $-1 $218 $439 #
straight-curve $-1 48.913846247749262 25.718320263660026 0 0 0 1 I I #
edge $-1 $429 -5.2400184567982393 $222 5.2400184567982393 $325 $440 forward 7 unknown #
point $-1 48.913846247749262 -25.718320263660026 3.0143509354375788 #
point $-1 48.913846247749262 25.718320263660026 3.0143509354375788 #
loop $-1 $-1 $232 $224 #
plane-surface $-1 0 -25.718320263660026 0 0 1 0 0 0 1 forward_v I I I I #
coedge $-1 $336 $227 $229 $340 reversed $137 $-1 #
coedge $-1 $227 $335 $441 $442 reversed $137 $-1 #
coedge $-1 $235 $230 $227 $338 forward $225 $-1 #
edge $-1 $341 -30.067299036778145 $443 -25.154038343711569 $337 $444 forward 7 unknown #
coedge $-1 $229 $228 $344 $445 reversed $85 $-1 #
edge $-1 $446 1.1374033043381581e-014 $341 7.8072486490601403 $335 $447 forward 7 unknown #
vertex $-1 $231 $448 #
straight-curve $-1 -7.3519742579077842 -20.80505957059345 8.3080841036063031 -1 0 0 I I #
coedge $-1 $441 $232 $235 $348 reversed $333 $-1 #
coedge $-1 $232 $441 $339 $445 forward $333 $-1 #
vertex $-1 $233 $449 #
straight-curve $-1 -7.6861157991442361 -25.718320263660026 31.90283648917422 0 0 1 I I #
straight-curve $-1 -7.6861157991442361 -25.718320263660033 2.2407122812916143 0 -0.62932038083071107 -0.77714596973225614 I I #
edge $-1 $443 -21.721781232486901 $236 -7.6861157991442361 $343 $450 forward 7 unknown #
point $-1 -7.6861157991442361 -25.718320263660026 8.3080841036063031 #
point $-1 -7.6861157991442361 -20.80505957059345 8.3080841036063031 #
edge $-1 $451 1 $451 0 $239 $-1 forward 7 unknown #
vertex $-1 $240 $452 #
ellipse-curve $-1 -17.711591108674707 -21.161330018828167 3.5735603285735325 0 -0.77714596973225614 0.62932038083071107 1 0 0 1 I I #
point $-1 -16.711591108674707 -23.261689917126734 5.2743981924489587 #
edge $-1 $453 1 $453 0 $243 $-1 forward 7 unknown #
vertex $-1 $244 $454 #
ellipse-curve $-1 -11.696305922956427 -21.161330018828167 3.5735603285735325 0 -0.77714596973225614 0.62932038083071107 1 0 0 1 I I #
point $-1 -10.696305922956427 -23.261689917126734 5.2743981924489587 #
plane-surface $-1 0 0 8.3080841036063031 0 0 1 1 0 0 forward_v I I I I #
coedge $-1 $370 $369 $362 $455 forward $248 $-1 #
coedge $-1 $362 $250 $252 $366 reversed $159 $-1 #
coedge $-1 $250 $361 $360 $455 reversed $159 $-1 #
coedge $-1 $258 $253 $250 $364 forward $259 $-1 #
edge $-1 $367 -13.882235934125418 $456 -8.9689752410588497 $363 $457 forward 7 unknown #
coedge $-1 $252 $251 $370 $458 reversed $99 $-1 #
edge $-1 $459 -51.436640527320037 $367 -43.629391878259909 $361 $460 forward 7 unknown #
vertex $-1 $254 $461 #
straight-curve $-1 -7.3519742579077842 20.805059570593453 8.3080841036063049 1 0 0 I I #
coedge $-1 $360 $255 $258 $374 reversed $248 $-1 #
coedge $-1 $255 $360 $365 $458 forward $248 $-1 #
vertex $-1 $256 $462 #
straight-curve $-1 -21.721781232486901 25.718320263660026 51.889725430361025 0 0 1 I I #
straight-curve $-1 -21.721781232486901 -6.6518059416454065 42.214490163665225 0 0.62932038083071107 -0.77714596973225614 I I #
edge $-1 $456 7.6861157991442361 $260 21.721781232486901 $369 $463 forward 7 unknown #
point $-1 -21.721781232486901 25.718320263660026 8.3080841036063031 #
point $-1 -21.721781232486901 20.805059570593457 8.3080841036063049 #
edge $-1 $464 1 $464 0 $263 $-1 forward 7 unknown #
vertex $-1 $264 $465 #
ellipse-curve $-1 -17.711591108674707 21.161330018828171 3.5735603285735396 0 0.77714596973225614 0.62932038083071107 1 0 0 1 I I #
point $-1 -16.711591108674707 23.261689917126738 5.2743981924489658 #
edge $-1 $466 1 $466 0 $267 $-1 forward 7 unknown #
vertex $-1 $268 $467 #
ellipse-curve $-1 -11.696305922956427 21.161330018828171 3.5735603285735396 0 0.77714596973225614 0.62932038083071107 1 0 0 1 I I #
point $-1 -10.696305922956427 23.261689917126738 5.2743981924489658 #
plane-surface $-1 0 25.718320263660026 0 0 -1 0 0 0 -1 forward_v I I I I #
coedge $-1 $391 $468 $274 $388 reversed $272 $-1 #
coedge $-1 $283 $274 $275 $390 reversed $181 $-1 #
edge $-1 $395 -8.3080841036063031 $469 8.3080841036063031 $386 $470 forward 7 unknown #
coedge $-1 $276 $275 $468 $471 forward $113 $-1 #
edge $-1 $285 -48.913846247749262 $469 48.913846247749262 $387 $472 forward 7 unknown #
coedge $-1 $400 $386 $277 $392 reversed $272 $-1 #
edge $-1 $393 -25.718320263660026 $395 25.718320263660026 $391 $473 forward 7 unknown #
vertex $-1 $278 $474 #
straight-curve $-1 0 25.718320263660026 8.3080841036063031 -1 0 0 I I #
vertex $-1 $392 $475 #
straight-curve $-1 0 -25.718320263660026 8.3080841036063031 1 0 0 I I #
point $-1 48.913846247749262 -25.718320263660026 8.3080841036063031 #
straight-curve $-1 48.913846247749262 -25.718320263660026 0 0 0 -1 I I #
point $-1 48.913846247749262 -25.718320263660026 -8.3080841036063031 #
coedge $-1 $468 $391 $287 $401 forward $272 $-1 #
edge $-1 $393 -8.3080841036063031 $402 8.3080841036063031 $287 $476 forward 7 unknown #
vertex $-1 $288 $477 #
straight-curve $-1 0 25.718320263660026 -8.3080841036063031 1 0 0 I I #
plane-surface $-1 0 -25.718320263660026 0 0 1 0 0 0 1 forward_v I I I I #
coedge $-1 $478 $418 $295 $407 forward $292 $-1 #
coedge $-1 $408 $294 $303 $416 forward $196 $-1 #
edge $-1 $411 -2.0572821316645151 $409 2.0572821316645151 $295 $479 forward 7 unknown #
coedge $-1 $296 $406 $478 $480 forward $196 $-1 #
vertex $-1 $297 $481 #
straight-curve $-1 -54.153864704547502 25.718320263660026 -1.1002133278914514 1 0 0 I I #
vertex $-1 $298 $482 #
straight-curve $-1 -54.153864704547502 25.718320263660026 3.0143509354375788 -1 0 0 I I #
point $-1 -48.913846247749262 25.718320263660026 -1.1002133278914514 #
straight-curve $-1 -48.913846247749262 0 -1.1002133278914514 0 1 0 I I #
coedge $-1 $303 $302 $483 $484 forward $304 $-1 #
edge $-1 $305 -5.2400184567982393 $485 5.2400184567982393 $303 $486 forward 7 unknown #
point $-1 -48.913846247749262 -25.718320263660026 -1.1002133278914514 #
coedge $-1 $405 $483 $307 $419 reversed $292 $-1 #
edge $-1 $411 -25.718320263660026 $420 25.718320263660026 $418 $487 forward 7 unknown #
vertex $-1 $419 $488 #
straight-curve $-1 -54.153864704547502 -25.718320263660026 3.0143509354375788 1 0 0 I I #
plane-surface $-1 0 25.718320263660026 0 0 -1 0 0 0 -1 forward_v I I I I #
coedge $-1 $425 $315 $317 $431 forward $312 $-1 #
coedge $-1 $314 $323 $326 $438 forward $210 $-1 #
coedge $-1 $427 $423 $314 $426 reversed $312 $-1 #
edge $-1 $489 -25.718320263660026 $432 25.718320263660026 $425 $490 forward 7 unknown #
coedge $-1 $315 $425 $437 $491 reversed $312 $-1 #
vertex $-1 $316 $492 #
vertex $-1 $316 $493 #
straight-curve $-1 59.393883161345741 0 3.0143509354375788 0 1 0 I I #
edge $-1 $428 -2.0572821316645151 $432 2.0572821316645151 $423 $494 forward 7 unknown #
vertex $-1 $431 $495 #
straight-curve $-1 54.153864704547502 -25.718320263660026 -1.1002133278914514 -1 0 0 I I #
straight-curve $-1 54.153864704547502 -25.718320263660026 3.0143509354375788 1 0 0 I I #
point $-1 48.913846247749262 -25.718320263660026 -1.1002133278914514 #
straight-curve $-1 48.913846247749262 0 -1.1002133278914514 0 -1 0 I I #
coedge $-1 $326 $325 $427 $491 forward $327 $-1 #
edge $-1 $328 -5.2400184567982393 $489 5.2400184567982393 $326 $496 forward 7 unknown #
point $-1 48.913846247749262 25.718320263660026 -1.1002133278914514 #
straight-curve $-1 54.153864704547502 25.718320263660026 3.0143509354375788 -1 0 0 I I #
coedge $-1 $344 $343 $336 $442 forward $333 $-1 #
edge $-1 $443 23.594752385567915 $446 29.662124207882599 $441 $497 forward 7 unknown #
vertex $-1 $348 $498 #
straight-curve $-1 -21.721781232486901 -50.872358607371595 8.3080841036063049 0 -1 0 I I #
edge $-1 $446 -14.369806974579117 $345 -0.3341415412364519 $344 $499 forward 7 unknown #
vertex $-1 $445 $500 #
straight-curve $-1 -21.721781232486901 -25.718320263660033 2.2407122812916143 0 0.62932038083071107 0.77714596973225614 I I #
point $-1 -21.721781232486901 -20.80505957059345 8.3080841036063031 #
point $-1 -7.6861157991442361 -25.718320263660026 2.2407122812916231 #
straight-curve $-1 0 -25.718320263660026 8.3080841036063031 1 0 0 I I #
vertex $-1 $351 $501 #
point $-1 -16.711591108674707 -21.161330018828167 3.5735603285735325 #
vertex $-1 $355 $502 #
point $-1 -10.696305922956427 -21.161330018828167 3.5735603285735325 #
edge $-1 $456 43.58164132675472 $459 49.649013149069397 $360 $503 forward 7 unknown #
vertex $-1 $374 $504 #
straight-curve $-1 -7.6861157991442361 34.687295504718875 8.3080841036063049 0 1 0 I I #
edge $-1 $459 0.3341415412364519 $371 14.369806974579117 $370 $505 forward 7 unknown #
vertex $-1 $458 $506 #
straight-curve $-1 -7.6861157991442361 -6.6518059416454065 42.214490163665225 0 -0.62932038083071107 0.77714596973225614 I I #
point $-1 -7.6861157991442361 20.805059570593457 8.3080841036063049 #
point $-1 -21.721781232486901 25.718320263660026 2.2407122812916285 #
straight-curve $-1 0 25.718320263660026 8.3080841036063031 -1 0 0 I I #
vertex $-1 $377 $507 #
point $-1 -16.711591108674707 21.161330018828171 3.5735603285735396 #
vertex $-1 $381 $508 #
point $-1 -10.696305922956427 21.161330018828171 3.5735603285735396 #
coedge $-1 $386 $400 $389 $471 reversed $272 $-1 #
vertex $-1 $471 $509 #
straight-curve $-1 -48.913846247749262 -25.718320263660026 0 0 0 -1 I I #
edge $-1 $469 -25.718320263660026 $402 25.718320263660026 $468 $510 forward 7 unknown #
straight-curve $-1 0 -25.718320263660026 -8.3080841036063031 -1 0 0 I I #
straight-curve $-1 -48.913846247749262 0 8.3080841036063031 0 -1 0 I I #
point $-1 -48.913846247749262 25.718320263660026 8.3080841036063031 #
point $-1 -48.913846247749262 -25.718320263660026 8.3080841036063031 #
straight-curve $-1 -48.913846247749262 25.718320263660026 0 0 0 -1 I I #
point $-1 -48.913846247749262 25.718320263660026 -8.3080841036063031 #
coedge $-1 $483 $405 $408 $480 reversed $292 $-1 #
straight-curve $-1 -59.393883161345741 25.718320263660026 0.95706880377306369 0 0 -1 I I #
edge $-1 $485 -25.718320263660026 $409 25.718320263660026 $478 $511 forward 7 unknown #
point $-1 -59.393883161345741 25.718320263660026 -1.1002133278914514 #
point $-1 -59.393883161345741 25.718320263660026 3.0143509354375788 #
coedge $-1 $418 $478 $415 $484 reversed $292 $-1 #
edge $-1 $420 -2.0572821316645151 $485 2.0572821316645151 $483 $512 forward 7 unknown #
vertex $-1 $480 $513 #
straight-curve $-1 -54.153864704547502 -25.718320263660026 -1.1002133278914514 -1 0 0 I I #
straight-curve $-1 -59.393883161345741 0 3.0143509354375788 0 -1 0 I I #
point $-1 -59.393883161345741 -25.718320263660026 3.0143509354375788 #
vertex $-1 $426 $514 #
straight-curve $-1 59.393883161345741 0 -1.1002133278914514 0 -1 0 I I #
edge $-1 $429 -2.0572821316645151 $489 2.0572821316645151 $427 $515 forward 7 unknown #
point $-1 59.393883161345741 -25.718320263660026 3.0143509354375788 #
point $-1 59.393883161345741 25.718320263660026 3.0143509354375788 #
straight-curve $-1 59.393883161345741 -25.718320263660026 0.95706880377306369 0 0 -1 I I #
point $-1 59.393883161345741 -25.718320263660026 -1.1002133278914514 #
straight-curve $-1 54.153864704547502 25.718320263660026 -1.1002133278914514 1 0 0 I I #
straight-curve $-1 -21.721781232486901 -25.718320263660026 31.90283648917422 0 0 -1 I I #
point $-1 -21.721781232486901 -25.718320263660026 8.3080841036063031 #
straight-curve $-1 -7.3519742579077842 -25.718320263660026 2.2407122812916245 1 0 0 I I #
point $-1 -21.721781232486901 -25.718320263660026 2.2407122812916231 #
point $-1 -17.711591108674707 -20.384184049095914 2.9442399477428216 #
point $-1 -11.696305922956427 -20.384184049095914 2.9442399477428216 #
straight-curve $-1 -7.6861157991442361 25.718320263660026 51.889725430361025 0 0 -1 I I #
point $-1 -7.6861157991442361 25.718320263660026 8.3080841036063031 #
straight-curve $-1 -7.3519742579077842 25.718320263660026 2.2407122812916285 -1 0 0 I I #
point $-1 -7.6861157991442361 25.718320263660026 2.2407122812916285 #
point $-1 -17.711591108674707 20.384184049095918 2.9442399477428287 #
point $-1 -11.696305922956427 20.384184049095918 2.9442399477428287 #
point $-1 -48.913846247749262 -25.718320263660026 -8.3080841036063031 #
straight-curve $-1 -48.913846247749262 0 -8.3080841036063031 0 1 0 I I #
straight-curve $-1 -59.393883161345741 0 -1.1002133278914514 0 1 0 I I #
straight-curve $-1 -59.393883161345741 -25.718320263660026 0.95706880377306369 0 0 -1 I I #
point $-1 -59.393883161345741 -25.718320263660026 -1.1002133278914514 #
point $-1 59.393883161345741 25.718320263660026 -1.1002133278914514 #
straight-curve $-1 59.393883161345741 25.718320263660026 0.95706880377306369 0 0 -1 I I #
End-of-ACIS-data 