500 0 5 0           
7 Unknown 11 ACIS 5.0 NT 24 Fri Mar 26 20:41:25 1999 
-1 9.9999999999999995e-007 1e-010 
body $-1 $5 $-1 $6 #
body $-1 $7 $-1 $8 #
body $-1 $9 $-1 $10 #
body $-1 $11 $-1 $12 #
body $-1 $13 $-1 $14 #
lump $-1 $-1 $15 $0 #
transform $-1 1 0 0 0 1 0 0 0 1 48.106936857203891 19.749287185758089 5.1085240738867883 1 rotate no_reflect no_shear #
lump $-1 $-1 $16 $1 #
transform $-1 1 0 0 0 1 0 0 0 1 48.106936857203891 19.749287185758089 5.1085240738867883 1 rotate no_reflect no_shear #
lump $-1 $-1 $17 $2 #
transform $-1 1 0 0 0 1 0 0 0 1 48.106936857203891 19.749287185758089 5.1085240738867883 1 rotate no_reflect no_shear #
lump $-1 $-1 $18 $3 #
transform $-1 1 0 0 0 1 0 0 0 1 48.106936857203891 19.749287185758089 5.1085240738867883 1 rotate no_reflect no_shear #
lump $-1 $-1 $19 $4 #
transform $-1 1 0 0 0 1 0 0 0 1 48.106936857203891 19.749287185758089 5.1085240738867883 1 rotate no_reflect no_shear #
shell $-1 $-1 $-1 $20 $-1 $5 #
shell $-1 $-1 $-1 $21 $-1 $7 #
shell $-1 $-1 $-1 $22 $-1 $9 #
shell $-1 $-1 $-1 $23 $-1 $11 #
shell $-1 $-1 $-1 $24 $-1 $13 #
face $-1 $25 $26 $15 $-1 $27 forward single #
face $-1 $28 $29 $16 $-1 $30 reversed single #
face $-1 $31 $32 $17 $-1 $33 forward single #
face $-1 $34 $35 $18 $-1 $36 reversed single #
face $-1 $37 $38 $19 $-1 $39 reversed single #
face $-1 $40 $41 $15 $-1 $42 reversed single #
loop $-1 $-1 $43 $20 #
plane-surface $-1 0 0 5.1085240738867883 0 0 1 1 0 0 forward_v I I I I #
face $-1 $44 $45 $16 $-1 $46 forward single #
loop $-1 $-1 $47 $21 #
plane-surface $-1 0 -16.591738498493591 -2.1085240738867883 0 0 1 1 0 0 forward_v I I I I #
face $-1 $48 $49 $17 $-1 $50 forward single #
loop $-1 $-1 $51 $22 #
plane-surface $-1 -37.478984468846733 74.371267845508314 89.5575168814362 -1 0 0 0 0.80901700255871778 0.5877852410284794 forward_v I I I I #
face $-1 $52 $53 $18 $-1 $54 reversed single #
loop $-1 $55 $56 $23 #
cone-surface $-1 -45.070379031958993 17.131368891517592 2.2482667509637633 0 -0.80901700255871778 -0.5877852410284794 1 0 0 1 I I 0 1 1 forward I I I I #
face $-1 $57 $58 $19 $-1 $59 reversed single #
loop $-1 $60 $61 $24 #
cone-surface $-1 -40.515542294091638 17.131368891517592 2.2482667509637633 0 -0.80901700255871778 -0.5877852410284794 1 0 0 1 I I 0 1 1 forward I I I I #
face $-1 $62 $63 $15 $-1 $64 reversed single #
loop $-1 $-1 $65 $25 #
plane-surface $-1 0 0 -5.1085240738867883 0 0 1 1 0 0 forward_v I I I I #
coedge $-1 $66 $67 $68 $69 forward $26 $-1 #
face $-1 $70 $71 $16 $-1 $72 reversed single #
loop $-1 $-1 $73 $28 #
plane-surface $-1 0 -13.434189811229093 -3.6085240738867883 0 -1 0 0 0 -1 forward_v I I I I #
coedge $-1 $74 $75 $76 $77 reversed $29 $-1 #
face $-1 $78 $79 $17 $-1 $80 reversed single #
loop $-1 $-1 $81 $31 #
plane-surface $-1 -42.792960663025312 -3.4673918714848782 33.004421929929343 0 0.80901700255871778 0.5877852410284794 1 0 0 forward_v I I I I #
coedge $-1 $82 $83 $84 $85 reversed $32 $-1 #
face $-1 $86 $87 $18 $-1 $88 forward single #
loop $-1 $89 $90 $34 #
cone-surface $-1 -45.070379031958993 15.583503846673356 1.1236770011985291 0 -0.80901700255871778 -0.5877852410284794 0.5 0 0 1 I I -0.70710678118654746 0.70710678118654746 0.5 forward I I I I #
loop $-1 $-1 $91 $23 #
coedge $-1 $56 $56 $92 $93 reversed $35 $-1 #
face $-1 $94 $95 $19 $-1 $96 reversed single #
loop $-1 $97 $98 $37 #
cone-surface $-1 -40.515542294091638 15.583503846673356 1.1236770011985291 0 -0.80901700255871778 -0.5877852410284794 0.5 0 0 1 I I -0.70710678118654746 0.70710678118654746 0.5 forward I I I I #
loop $-1 $-1 $99 $24 #
coedge $-1 $61 $61 $100 $101 reversed $38 $-1 #
face $-1 $102 $103 $15 $-1 $104 reversed single #
loop $-1 $-1 $105 $40 #
plane-surface $-1 0 -19.749287185758089 0 0 1 0 0 0 1 forward_v I I I I #
coedge $-1 $106 $107 $108 $109 forward $41 $-1 #
coedge $-1 $110 $43 $111 $112 forward $26 $-1 #
coedge $-1 $43 $110 $113 $114 forward $26 $-1 #
coedge $-1 $115 $116 $43 $69 reversed $117 $-1 #
edge $-1 $118 -19.749287185758089 $119 19.749287185758089 $68 $120 forward 7 unknown #
face $-1 $121 $122 $16 $-1 $123 reversed single #
loop $-1 $-1 $124 $44 #
plane-surface $-1 0 -19.749287185758089 0 0 1 0 0 0 1 forward_v I I I I #
coedge $-1 $125 $126 $127 $128 reversed $45 $-1 #
coedge $-1 $129 $47 $124 $130 reversed $29 $-1 #
coedge $-1 $47 $129 $125 $131 reversed $29 $-1 #
coedge $-1 $127 $132 $47 $77 forward $133 $-1 #
edge $-1 $134 -11.453417936511293 $135 -5.1383205619822974 $76 $136 forward 7 unknown #
face $-1 $137 $138 $17 $-1 $139 forward single #
loop $-1 $-1 $140 $48 #
plane-surface $-1 0 19.749287185758089 0 0 -1 0 0 0 -1 forward_v I I I I #
coedge $-1 $141 $142 $140 $143 reversed $49 $-1 #
coedge $-1 $83 $51 $142 $144 forward $32 $-1 #
coedge $-1 $51 $82 $145 $146 reversed $32 $-1 #
coedge $-1 $147 $140 $51 $85 forward $79 $-1 #
edge $-1 $148 -43.729354754175382 $149 -39.670234366831309 $84 $150 forward 7 unknown #
face $-1 $151 $152 $18 $-1 $153 forward single #
loop $-1 $-1 $154 $52 #
plane-surface $-1 -37.478984468846733 74.371267845508314 89.5575168814362 -1 0 0 0 0.80901700255871778 0.5877852410284794 forward_v I I I I #
loop $-1 $-1 $155 $34 #
coedge $-1 $90 $90 $91 $156 forward $53 $-1 #
coedge $-1 $91 $91 $90 $156 reversed $55 $-1 #
coedge $-1 $92 $92 $56 $93 forward $152 $-1 #
edge $-1 $157 -2.0208110034684538e-015 $157 6.2831853071795987 $92 $158 forward 7 unknown #
face $-1 $159 $160 $19 $-1 $161 reversed single #
loop $-1 $162 $163 $57 #
cone-surface $-1 -45.070379031958993 17.131368891517592 2.2482667509637633 0 -0.80901700255871778 -0.5877852410284794 1 0 0 1 I I 0 1 1 forward I I I I #
loop $-1 $-1 $164 $37 #
coedge $-1 $98 $98 $99 $165 forward $58 $-1 #
coedge $-1 $99 $99 $98 $165 reversed $60 $-1 #
coedge $-1 $100 $100 $61 $101 forward $166 $-1 #
edge $-1 $167 -2.0208110034684538e-015 $167 6.2831853071795987 $100 $168 forward 7 unknown #
face $-1 $169 $170 $15 $-1 $171 reversed single #
loop $-1 $-1 $172 $62 #
plane-surface $-1 -48.106936857203891 0 0 1 0 0 0 0 -1 forward_v I I I I #
coedge $-1 $173 $113 $174 $175 forward $63 $-1 #
coedge $-1 $176 $65 $173 $177 forward $41 $-1 #
coedge $-1 $65 $176 $178 $179 forward $41 $-1 #
coedge $-1 $116 $115 $65 $109 reversed $117 $-1 #
edge $-1 $180 -19.749287185758089 $181 19.749287185758089 $108 $182 forward 7 unknown #
coedge $-1 $67 $66 $183 $184 forward $26 $-1 #
coedge $-1 $185 $186 $66 $112 reversed $170 $-1 #
edge $-1 $119 -48.106936857203891 $187 48.106936857203891 $111 $188 forward 7 unknown #
coedge $-1 $105 $189 $67 $114 reversed $63 $-1 #
edge $-1 $190 -48.106936857203891 $118 48.106936857203891 $113 $191 forward 7 unknown #
coedge $-1 $108 $68 $189 $192 forward $117 $-1 #
coedge $-1 $68 $108 $185 $193 reversed $117 $-1 #
loop $-1 $-1 $115 $169 #
vertex $-1 $69 $194 #
vertex $-1 $69 $195 #
straight-curve $-1 48.106936857203891 0 5.1085240738867883 0 1 0 I I #
face $-1 $196 $197 $16 $-1 $198 forward single #
loop $-1 $-1 $199 $70 #
plane-surface $-1 0 0 -5.1085240738867883 0 0 1 1 0 0 forward_v I I I I #
coedge $-1 $200 $201 $74 $130 forward $71 $-1 #
coedge $-1 $202 $73 $75 $131 forward $45 $-1 #
coedge $-1 $73 $202 $199 $203 reversed $45 $-1 #
coedge $-1 $204 $76 $73 $128 forward $133 $-1 #
edge $-1 $135 0.30426203694339415 $205 3.3042620369433942 $127 $206 forward 7 unknown #
coedge $-1 $75 $74 $207 $208 reversed $29 $-1 #
edge $-1 $209 -48.106936857203891 $134 48.106936857203891 $124 $210 forward 7 unknown #
edge $-1 $135 -48.106936857203891 $211 48.106936857203891 $125 $212 forward 7 unknown #
coedge $-1 $76 $213 $200 $214 forward $133 $-1 #
loop $-1 $-1 $127 $215 #
vertex $-1 $130 $216 #
vertex $-1 $77 $217 #
straight-curve $-1 48.106936857203891 -8.2958692492467954 -2.1085240738867883 0 1 0 I I #
face $-1 $218 $219 $17 $-1 $220 reversed single #
loop $-1 $-1 $145 $78 #
plane-surface $-1 0 0 5.1085240738867883 0 0 1 1 0 0 forward_v I I I I #
coedge $-1 $84 $221 $81 $143 forward $79 $-1 #
coedge $-1 $222 $81 $223 $224 reversed $49 $-1 #
coedge $-1 $81 $222 $82 $144 reversed $49 $-1 #
edge $-1 $225 -26.710456525691235 $148 -16.082504137334077 $140 $226 forward 7 unknown #
edge $-1 $148 -39.498574371516199 $227 -34.481225694657631 $82 $228 forward 7 unknown #
coedge $-1 $229 $230 $83 $146 forward $138 $-1 #
edge $-1 $149 17.436346736996068 $227 20.385470238347303 $145 $231 forward 7 unknown #
coedge $-1 $232 $84 $230 $233 reversed $79 $-1 #
vertex $-1 $143 $234 #
vertex $-1 $146 $235 #
straight-curve $-1 -37.478984468846733 19.749287185758089 44.7787584407181 0 0 1 I I #
face $-1 $236 $237 $18 $-1 $238 reversed single #
loop $-1 $239 $92 $86 #
plane-surface $-1 -42.792960663025312 -3.4673918714848782 33.004421929929343 0 0.80901700255871778 0.5877852410284794 1 0 0 forward_v I I I I #
coedge $-1 $240 $241 $242 $243 reversed $87 $-1 #
coedge $-1 $155 $155 $-1 $244 forward $89 $-1 #
edge $-1 $245 0 $245 6.2831853071796004 $90 $246 forward 7 unknown #
vertex $-1 $93 $247 #
ellipse-curve $-1 -45.070379031958993 18.274725435082466 3.0789638802147552 0 -0.80901700255871778 -0.5877852410284794 1 0 0 1 I I #
face $-1 $248 $249 $19 $-1 $250 forward single #
loop $-1 $251 $252 $94 #
cone-surface $-1 -45.070379031958993 15.583503846673356 1.1236770011985291 0 -0.80901700255871778 -0.5877852410284794 0.5 0 0 1 I I -0.70710678118654746 0.70710678118654746 0.5 forward I I I I #
loop $-1 $-1 $253 $57 #
coedge $-1 $163 $163 $254 $255 reversed $95 $-1 #
coedge $-1 $164 $164 $-1 $256 forward $97 $-1 #
edge $-1 $257 0 $257 6.2831853071796004 $98 $258 forward 7 unknown #
loop $-1 $259 $100 $248 #
vertex $-1 $101 $260 #
ellipse-curve $-1 -40.515542294091638 18.274725435082466 3.0789638802147552 0 -0.80901700255871778 -0.5877852410284794 1 0 0 1 I I #
face $-1 $-1 $117 $15 $-1 $261 reversed single #
loop $-1 $-1 $185 $102 #
plane-surface $-1 0 19.749287185758089 0 0 -1 0 0 0 -1 forward_v I I I I #
coedge $-1 $262 $183 $186 $263 forward $103 $-1 #
coedge $-1 $189 $105 $106 $177 reversed $63 $-1 #
coedge $-1 $183 $262 $105 $175 reversed $103 $-1 #
edge $-1 $190 -5.1085240738867883 $264 5.1085240738867883 $174 $265 forward 7 unknown #
coedge $-1 $107 $106 $262 $266 forward $41 $-1 #
edge $-1 $181 -48.106936857203891 $264 48.106936857203891 $173 $267 forward 7 unknown #
coedge $-1 $186 $185 $107 $179 reversed $170 $-1 #
edge $-1 $268 -48.106936857203891 $180 48.106936857203891 $178 $269 forward 7 unknown #
vertex $-1 $109 $270 #
vertex $-1 $192 $271 #
straight-curve $-1 48.106936857203891 0 -5.1085240738867883 0 -1 0 I I #
coedge $-1 $172 $174 $110 $184 reversed $103 $-1 #
edge $-1 $187 -19.749287185758089 $190 19.749287185758089 $183 $272 forward 7 unknown #
coedge $-1 $178 $111 $116 $193 forward $170 $-1 #
coedge $-1 $111 $178 $172 $263 reversed $170 $-1 #
vertex $-1 $112 $273 #
straight-curve $-1 0 19.749287185758089 5.1085240738867883 -1 0 0 I I #
coedge $-1 $113 $173 $115 $192 reversed $63 $-1 #
vertex $-1 $184 $274 #
straight-curve $-1 0 -19.749287185758089 5.1085240738867883 1 0 0 I I #
edge $-1 $118 -5.1085240738867883 $181 5.1085240738867883 $115 $275 forward 7 unknown #
edge $-1 $119 -5.1085240738867883 $180 5.1085240738867883 $116 $276 forward 7 unknown #
point $-1 48.106936857203891 -19.749287185758089 5.1085240738867883 #
point $-1 48.106936857203891 19.749287185758089 5.1085240738867883 #
face $-1 $277 $278 $16 $-1 $279 reversed single #
loop $-1 $-1 $280 $121 #
plane-surface $-1 0 0 5.1085240738867883 0 0 1 1 0 0 forward_v I I I I #
coedge $-1 $281 $282 $126 $203 forward $122 $-1 #
coedge $-1 $283 $124 $132 $214 reversed $71 $-1 #
coedge $-1 $124 $283 $284 $285 forward $71 $-1 #
coedge $-1 $126 $125 $286 $287 reversed $45 $-1 #
edge $-1 $205 -48.106936857203891 $288 48.106936857203891 $199 $289 forward 7 unknown #
coedge $-1 $290 $127 $282 $291 reversed $133 $-1 #
vertex $-1 $203 $292 #
straight-curve $-1 48.106936857203891 -13.434189811229093 -1.8042620369433942 0 0 -1 I I #
coedge $-1 $284 $286 $129 $208 forward $278 $-1 #
edge $-1 $211 5.1383205619822974 $209 11.453417936511293 $207 $293 forward 7 unknown #
vertex $-1 $130 $294 #
straight-curve $-1 0 -19.749287185758089 -2.1085240738867883 1 0 0 I I #
vertex $-1 $208 $295 #
straight-curve $-1 0 -13.434189811229093 -2.1085240738867883 -1 0 0 I I #
coedge $-1 $132 $290 $280 $296 reversed $133 $-1 #
edge $-1 $297 -5.1085240738867883 $134 2.1085240738867883 $132 $298 forward 7 unknown #
face $-1 $-1 $133 $16 $-1 $299 reversed single #
point $-1 48.106936857203891 -19.749287185758089 -2.1085240738867883 #
point $-1 48.106936857203891 -13.434189811229093 -2.1085240738867883 #
face $-1 $300 $301 $17 $-1 $302 forward single #
loop $-1 $-1 $303 $137 #
plane-surface $-1 0 -16.591738498493591 -2.1085240738867883 0 0 1 1 0 0 forward_v I I I I #
coedge $-1 $140 $304 $305 $306 reversed $79 $-1 #
coedge $-1 $142 $141 $229 $307 reversed $49 $-1 #
coedge $-1 $305 $308 $141 $224 forward $309 $-1 #
edge $-1 $310 20.111615560729845 $225 25.128964237588406 $223 $311 forward 7 unknown #
vertex $-1 $306 $312 #
straight-curve $-1 -21.396480331512656 19.749287185758089 1.0494036865427194 1 0 0 I I #
vertex $-1 $307 $313 #
straight-curve $-1 -37.478984468846733 -3.4673918714848782 33.004421929929343 0 -0.5877852410284794 0.80901700255871778 I I #
coedge $-1 $314 $145 $222 $307 forward $138 $-1 #
coedge $-1 $145 $315 $147 $233 forward $138 $-1 #
straight-curve $-1 -37.478984468846733 37.185633922754157 5.108524073886791 0 -1 0 I I #
coedge $-1 $304 $147 $316 $317 forward $79 $-1 #
edge $-1 $318 -48.106936857203891 $149 37.478984468846733 $147 $319 forward 7 unknown #
point $-1 -37.478984468846733 19.749287185758089 1.0494036865427177 #
point $-1 -37.478984468846733 19.749287185758089 5.1085240738867883 #
face $-1 $320 $321 $18 $-1 $322 forward single #
loop $-1 $-1 $323 $151 #
plane-surface $-1 0 19.749287185758089 0 0 -1 0 0 0 -1 forward_v I I I I #
loop $-1 $-1 $324 $86 #
coedge $-1 $241 $154 $325 $326 forward $87 $-1 #
coedge $-1 $154 $240 $327 $328 reversed $87 $-1 #
coedge $-1 $329 $323 $154 $243 forward $237 $-1 #
edge $-1 $330 -43.729354754175382 $331 -39.670234366831309 $242 $332 forward 7 unknown #
edge $-1 $333 1 $333 0 $155 $-1 forward 7 unknown #
vertex $-1 $156 $334 #
ellipse-curve $-1 -45.070379031958993 15.988012347952715 1.4175696217127687 0 0.80901700255871778 0.5877852410284794 1 0 0 1 I I #
point $-1 -44.070379031958993 18.274725435082473 3.0789638802147579 #
face $-1 $335 $166 $19 $-1 $336 forward single #
loop $-1 $-1 $337 $159 #
plane-surface $-1 -37.478984468846733 74.371267845508314 89.5575168814362 -1 0 0 0 0.80901700255871778 0.5877852410284794 forward_v I I I I #
loop $-1 $-1 $338 $94 #
coedge $-1 $252 $252 $253 $339 forward $160 $-1 #
coedge $-1 $253 $253 $252 $339 reversed $162 $-1 #
coedge $-1 $254 $254 $163 $255 forward $259 $-1 #
edge $-1 $340 -2.0208110034684538e-015 $340 6.2831853071795987 $254 $341 forward 7 unknown #
edge $-1 $342 1 $342 0 $164 $-1 forward 7 unknown #
vertex $-1 $165 $343 #
ellipse-curve $-1 -40.515542294091638 15.988012347952715 1.4175696217127687 0 0.80901700255871778 0.5877852410284794 1 0 0 1 I I #
loop $-1 $344 $254 $248 #
point $-1 -39.515542294091638 18.274725435082473 3.0789638802147579 #
plane-surface $-1 48.106936857203891 0 0 -1 0 0 0 0 1 forward_v I I I I #
coedge $-1 $174 $172 $176 $266 reversed $103 $-1 #
edge $-1 $187 -5.1085240738867883 $268 5.1085240738867883 $186 $345 forward 7 unknown #
vertex $-1 $266 $346 #
straight-curve $-1 -48.106936857203891 -19.749287185758089 0 0 0 -1 I I #
edge $-1 $264 -19.749287185758089 $268 19.749287185758089 $262 $347 forward 7 unknown #
straight-curve $-1 0 -19.749287185758089 -5.1085240738867883 -1 0 0 I I #
vertex $-1 $179 $348 #
straight-curve $-1 0 19.749287185758089 -5.1085240738867883 1 0 0 I I #
point $-1 48.106936857203891 19.749287185758089 -5.1085240738867883 #
point $-1 48.106936857203891 -19.749287185758089 -5.1085240738867883 #
straight-curve $-1 -48.106936857203891 0 5.1085240738867883 0 -1 0 I I #
point $-1 -48.106936857203891 19.749287185758089 5.1085240738867883 #
point $-1 -48.106936857203891 -19.749287185758089 5.1085240738867883 #
straight-curve $-1 48.106936857203891 -19.749287185758089 0 0 0 -1 I I #
straight-curve $-1 48.106936857203891 19.749287185758089 0 0 0 -1 I I #
face $-1 $215 $349 $16 $-1 $350 reversed single #
loop $-1 $-1 $207 $196 #
plane-surface $-1 -48.106936857203891 0 0 1 0 0 0 0 -1 forward_v I I I I #
coedge $-1 $351 $352 $213 $296 forward $197 $-1 #
coedge $-1 $353 $199 $354 $355 forward $122 $-1 #
coedge $-1 $199 $353 $204 $291 forward $122 $-1 #
coedge $-1 $201 $200 $352 $356 reversed $71 $-1 #
coedge $-1 $357 $207 $201 $285 reversed $278 $-1 #
edge $-1 $358 -5.1085240738867883 $209 2.1085240738867883 $284 $359 forward 7 unknown #
coedge $-1 $207 $354 $202 $287 forward $278 $-1 #
edge $-1 $288 -3.3042620369433942 $211 -0.30426203694339415 $286 $360 forward 7 unknown #
vertex $-1 $355 $361 #
straight-curve $-1 0 -13.434189811229093 -5.1085240738867883 -1 0 0 I I #
coedge $-1 $213 $204 $362 $363 reversed $133 $-1 #
edge $-1 $364 -19.749287185758089 $205 13.434189811229093 $204 $365 forward 7 unknown #
point $-1 48.106936857203891 -13.434189811229093 -5.1085240738867883 #
straight-curve $-1 -48.106936857203891 -8.2958692492467954 -2.1085240738867883 0 -1 0 I I #
point $-1 -48.106936857203891 -19.749287185758089 -2.1085240738867883 #
point $-1 -48.106936857203891 -13.434189811229093 -2.1085240738867883 #
edge $-1 $297 -19.749287185758089 $366 19.749287185758089 $213 $367 forward 7 unknown #
vertex $-1 $296 $368 #
straight-curve $-1 48.106936857203891 -19.749287185758089 0 0 0 -1 I I #
plane-surface $-1 48.106936857203891 0 0 -1 0 0 0 0 1 forward_v I I I I #
face $-1 $369 $370 $17 $-1 $371 reversed single #
loop $-1 $-1 $372 $218 #
plane-surface $-1 0 -13.434189811229093 -3.6085240738867883 0 -1 0 0 0 -1 forward_v I I I I #
coedge $-1 $373 $374 $375 $376 reversed $219 $-1 #
coedge $-1 $221 $232 $377 $378 reversed $79 $-1 #
coedge $-1 $379 $223 $221 $306 forward $309 $-1 #
edge $-1 $225 -1.0494036865427232 $380 5.1085240738867883 $221 $381 forward 7 unknown #
edge $-1 $227 16.082504137334077 $310 26.710456525691235 $229 $382 forward 7 unknown #
coedge $-1 $223 $383 $314 $384 reversed $309 $-1 #
loop $-1 $-1 $223 $385 #
vertex $-1 $384 $386 #
straight-curve $-1 -48.106936857203891 4.9788528845711477 21.379163011441708 0 0.5877852410284794 -0.80901700255871778 I I #
point $-1 -48.106936857203891 19.749287185758089 1.0494036865427232 #
point $-1 -37.478984468846733 16.800163684406854 5.1085240738867839 #
coedge $-1 $387 $229 $308 $384 forward $138 $-1 #
coedge $-1 $230 $387 $388 $389 forward $138 $-1 #
coedge $-1 $388 $390 $232 $317 reversed $391 $-1 #
edge $-1 $318 -5.1085240738867883 $392 5.1085240738867883 $316 $393 forward 7 unknown #
vertex $-1 $389 $394 #
straight-curve $-1 0 19.749287185758089 5.1085240738867883 -1 0 0 I I #
face $-1 $395 $396 $18 $-1 $397 reversed single #
loop $-1 $-1 $327 $236 #
plane-surface $-1 0 0 5.1085240738867883 0 0 1 1 0 0 forward_v I I I I #
coedge $-1 $242 $398 $324 $399 forward $237 $-1 #
coedge $-1 $400 $325 $323 $399 reversed $239 $-1 #
coedge $-1 $324 $401 $240 $326 reversed $239 $-1 #
edge $-1 $330 -39.498574371516199 $402 -34.481225694657631 $240 $403 forward 7 unknown #
coedge $-1 $404 $405 $241 $328 forward $321 $-1 #
edge $-1 $331 17.436346736996068 $402 20.385470238347303 $327 $406 forward 7 unknown #
coedge $-1 $407 $242 $405 $408 reversed $237 $-1 #
vertex $-1 $399 $409 #
vertex $-1 $328 $410 #
straight-curve $-1 -37.478984468846733 19.749287185758089 44.7787584407181 0 0 1 I I #
vertex $-1 $244 $411 #
point $-1 -44.070379031958993 15.988012347952715 1.4175696217127687 #
face $-1 $412 $413 $19 $-1 $414 reversed single #
plane-surface $-1 -42.792960663025312 -3.4673918714848782 33.004421929929343 0 0.80901700255871778 0.5877852410284794 1 0 0 forward_v I I I I #
coedge $-1 $415 $416 $417 $418 reversed $249 $-1 #
coedge $-1 $338 $338 $-1 $419 forward $251 $-1 #
edge $-1 $420 0 $420 6.2831853071796004 $252 $421 forward 7 unknown #
vertex $-1 $255 $422 #
ellipse-curve $-1 -45.070379031958993 18.274725435082466 3.0789638802147552 0 -0.80901700255871778 -0.5877852410284794 1 0 0 1 I I #
vertex $-1 $256 $423 #
point $-1 -39.515542294091638 15.988012347952715 1.4175696217127687 #
loop $-1 $-1 $424 $248 #
straight-curve $-1 -48.106936857203891 19.749287185758089 0 0 0 -1 I I #
point $-1 -48.106936857203891 -19.749287185758089 -5.1085240738867883 #
straight-curve $-1 -48.106936857203891 0 -5.1085240738867883 0 1 0 I I #
point $-1 -48.106936857203891 19.749287185758089 -5.1085240738867883 #
loop $-1 $-1 $362 $277 #
plane-surface $-1 0 19.749287185758089 0 0 -1 0 0 0 -1 forward_v I I I I #
coedge $-1 $425 $280 $426 $427 forward $197 $-1 #
coedge $-1 $280 $425 $283 $356 forward $197 $-1 #
coedge $-1 $282 $281 $428 $429 forward $122 $-1 #
coedge $-1 $286 $430 $281 $355 reversed $278 $-1 #
edge $-1 $288 -13.434189811229093 $431 19.749287185758089 $354 $432 forward 7 unknown #
edge $-1 $358 -48.106936857203891 $297 48.106936857203891 $283 $433 forward 7 unknown #
coedge $-1 $430 $284 $425 $434 reversed $278 $-1 #
vertex $-1 $434 $435 #
straight-curve $-1 -48.106936857203891 -19.749287185758089 0 0 0 -1 I I #
straight-curve $-1 -48.106936857203891 -13.434189811229093 -1.8042620369433942 0 0 1 I I #
point $-1 -48.106936857203891 -13.434189811229093 -5.1085240738867883 #
coedge $-1 $428 $426 $290 $363 forward $349 $-1 #
edge $-1 $366 -5.1085240738867883 $364 5.1085240738867883 $290 $436 forward 7 unknown #
vertex $-1 $291 $437 #
straight-curve $-1 48.106936857203891 0 -5.1085240738867883 0 -1 0 I I #
vertex $-1 $296 $438 #
straight-curve $-1 48.106936857203891 0 5.1085240738867883 0 1 0 I I #
point $-1 48.106936857203891 -19.749287185758089 5.1085240738867883 #
face $-1 $385 $439 $17 $-1 $440 reversed single #
loop $-1 $-1 $441 $300 #
plane-surface $-1 0 -19.749287185758089 0 0 1 0 0 0 1 forward_v I I I I #
coedge $-1 $442 $443 $444 $445 reversed $301 $-1 #
coedge $-1 $446 $303 $441 $447 reversed $219 $-1 #
coedge $-1 $303 $446 $442 $448 reversed $219 $-1 #
coedge $-1 $444 $449 $303 $376 forward $391 $-1 #
edge $-1 $450 -11.453417936511293 $451 -5.1383205619822974 $375 $452 forward 7 unknown #
coedge $-1 $453 $454 $304 $378 forward $439 $-1 #
edge $-1 $380 -48.106936857203891 $392 48.106936857203891 $304 $455 forward 7 unknown #
coedge $-1 $456 $305 $454 $457 reversed $309 $-1 #
vertex $-1 $378 $458 #
straight-curve $-1 -48.106936857203891 19.749287185758089 0 0 0 -1 I I #
straight-curve $-1 -21.396480331512656 16.800163684406854 5.1085240738867874 -1 0 0 I I #
coedge $-1 $308 $459 $460 $461 reversed $309 $-1 #
edge $-1 $310 -16.800163684406854 $462 19.749287185758089 $308 $463 forward 7 unknown #
face $-1 $464 $309 $17 $-1 $465 reversed single #
point $-1 -48.106936857203891 16.800163684406854 5.1085240738867839 #
coedge $-1 $315 $314 $466 $467 forward $138 $-1 #
coedge $-1 $449 $316 $315 $389 reversed $391 $-1 #
edge $-1 $468 -19.749287185758089 $318 19.749287185758089 $388 $469 forward 7 unknown #
coedge $-1 $316 $444 $453 $470 reversed $391 $-1 #
loop $-1 $-1 $444 $464 #
vertex $-1 $470 $471 #
straight-curve $-1 48.106936857203891 19.749287185758089 0 0 0 -1 I I #
point $-1 48.106936857203891 19.749287185758089 5.1085240738867883 #
face $-1 $472 $473 $18 $-1 $474 forward single #
loop $-1 $-1 $475 $320 #
plane-surface $-1 0 -16.591738498493591 -2.1085240738867883 0 0 1 1 0 0 forward_v I I I I #
coedge $-1 $323 $476 $477 $478 reversed $237 $-1 #
edge $-1 $479 -26.710456525691235 $330 -16.082504137334077 $323 $480 forward 7 unknown #
coedge $-1 $401 $324 $481 $482 reversed $239 $-1 #
coedge $-1 $325 $400 $404 $483 reversed $239 $-1 #
vertex $-1 $483 $484 #
straight-curve $-1 -37.478984468846733 -3.4673918714848782 33.004421929929343 0 -0.5877852410284794 0.80901700255871778 I I #
coedge $-1 $485 $327 $401 $483 forward $321 $-1 #
coedge $-1 $327 $486 $329 $408 forward $321 $-1 #
straight-curve $-1 -37.478984468846733 37.185633922754157 5.108524073886791 0 -1 0 I I #
coedge $-1 $476 $329 $487 $488 forward $237 $-1 #
edge $-1 $489 -48.106936857203891 $331 37.478984468846733 $329 $490 forward 7 unknown #
point $-1 -37.478984468846733 19.749287185758089 1.0494036865427177 #
point $-1 -37.478984468846733 19.749287185758089 5.1085240738867883 #
point $-1 -45.070379031958993 15.178995345393997 0.82978438068428939 #
face $-1 $491 $492 $19 $-1 $493 forward single #
loop $-1 $-1 $494 $335 #
plane-surface $-1 0 19.749287185758089 0 0 -1 0 0 0 -1 forward_v I I I I #
coedge $-1 $416 $337 $495 $496 forward $249 $-1 #
coedge $-1 $337 $415 $497 $498 reversed $249 $-1 #
coedge $-1 $499 $494 $337 $418 forward $413 $-1 #
edge $-1 $500 -43.729354754175382 $501 -39.670234366831309 $417 $502 forward 7 unknown #
edge $-1 $503 1 $503 0 $338 $-1 forward 7 unknown #
vertex $-1 $339 $504 #
ellipse-curve $-1 -45.070379031958993 15.988012347952715 1.4175696217127687 0 0.80901700255871778 0.5877852410284794 1 0 0 1 I I #
point $-1 -44.070379031958993 18.274725435082473 3.0789638802147579 #
point $-1 -40.515542294091638 15.178995345393997 0.82978438068428939 #
coedge $-1 $505 $495 $494 $506 reversed $344 $-1 #
coedge $-1 $352 $351 $357 $434 forward $197 $-1 #
coedge $-1 $362 $507 $351 $427 reversed $349 $-1 #
edge $-1 $366 -48.106936857203891 $508 48.106936857203891 $426 $509 forward 7 unknown #
coedge $-1 $507 $362 $353 $429 reversed $349 $-1 #
edge $-1 $431 -48.106936857203891 $364 48.106936857203891 $428 $510 forward 7 unknown #
coedge $-1 $354 $357 $507 $511 forward $278 $-1 #
vertex $-1 $429 $512 #
straight-curve $-1 -48.106936857203891 0 -5.1085240738867883 0 1 0 I I #
straight-curve $-1 0 -19.749287185758089 5.1085240738867883 1 0 0 I I #
edge $-1 $508 -19.749287185758089 $358 19.749287185758089 $357 $513 forward 7 unknown #
point $-1 -48.106936857203891 -19.749287185758089 5.1085240738867883 #
straight-curve $-1 48.106936857203891 19.749287185758089 0 0 0 -1 I I #
point $-1 48.106936857203891 19.749287185758089 -5.1085240738867883 #
point $-1 48.106936857203891 19.749287185758089 5.1085240738867883 #
loop $-1 $-1 $514 $369 #
plane-surface $-1 0 0 -5.1085240738867883 0 0 1 1 0 0 forward_v I I I I #
coedge $-1 $515 $460 $373 $447 forward $370 $-1 #
coedge $-1 $516 $372 $374 $448 forward $301 $-1 #
coedge $-1 $372 $516 $514 $517 reversed $301 $-1 #
coedge $-1 $390 $375 $372 $445 forward $391 $-1 #
edge $-1 $451 0.30426203694339415 $518 3.3042620369433942 $444 $519 forward 7 unknown #
coedge $-1 $374 $373 $459 $520 reversed $219 $-1 #
edge $-1 $521 -48.106936857203891 $450 48.106936857203891 $441 $522 forward 7 unknown #
edge $-1 $451 -48.106936857203891 $523 48.106936857203891 $442 $524 forward 7 unknown #
coedge $-1 $375 $388 $515 $525 forward $391 $-1 #
vertex $-1 $447 $526 #
vertex $-1 $376 $527 #
straight-curve $-1 48.106936857203891 -8.2958692492467954 -2.1085240738867883 0 1 0 I I #
coedge $-1 $514 $377 $390 $470 forward $439 $-1 #
coedge $-1 $377 $514 $379 $457 forward $439 $-1 #
straight-curve $-1 0 19.749287185758089 -5.1085240738867883 1 0 0 I I #
coedge $-1 $459 $379 $516 $528 forward $309 $-1 #
edge $-1 $529 -13.434189811229093 $380 19.749287185758089 $379 $530 forward 7 unknown #
point $-1 -48.106936857203891 19.749287185758089 -5.1085240738867883 #
coedge $-1 $383 $456 $446 $520 forward $309 $-1 #
coedge $-1 $441 $466 $383 $461 forward $370 $-1 #
edge $-1 $462 -5.1085240738867883 $521 2.1085240738867883 $383 $531 forward 7 unknown #
vertex $-1 $384 $532 #
straight-curve $-1 -48.106936857203891 0 5.1085240738867883 0 -1 0 I I #
face $-1 $-1 $391 $17 $-1 $533 reversed single #
plane-surface $-1 -48.106936857203891 0 0 1 0 0 0 0 -1 forward_v I I I I #
coedge $-1 $460 $515 $387 $467 reversed $370 $-1 #
edge $-1 $462 -48.106936857203891 $468 48.106936857203891 $466 $534 forward 7 unknown #
vertex $-1 $389 $535 #
straight-curve $-1 48.106936857203891 0 5.1085240738867883 0 1 0 I I #
edge $-1 $392 -19.749287185758089 $518 13.434189811229093 $390 $536 forward 7 unknown #
point $-1 48.106936857203891 19.749287185758089 -5.1085240738867883 #
face $-1 $537 $538 $18 $-1 $539 reversed single #
loop $-1 $-1 $540 $395 #
plane-surface $-1 0 -13.434189811229093 -3.6085240738867883 0 -1 0 0 0 -1 forward_v I I I I #
coedge $-1 $541 $542 $543 $544 reversed $396 $-1 #
coedge $-1 $398 $407 $545 $546 reversed $237 $-1 #
coedge $-1 $547 $481 $398 $478 forward $548 $-1 #
edge $-1 $479 -1.0494036865427232 $549 5.1085240738867883 $398 $550 forward 7 unknown #
vertex $-1 $478 $551 #
straight-curve $-1 -21.396480331512656 19.749287185758089 1.0494036865427194 1 0 0 I I #
coedge $-1 $477 $552 $400 $482 forward $548 $-1 #
edge $-1 $553 20.111615560729845 $479 25.128964237588406 $481 $554 forward 7 unknown #
edge $-1 $402 16.082504137334077 $553 26.710456525691235 $404 $555 forward 7 unknown #
point $-1 -37.478984468846733 16.800163684406854 5.1085240738867839 #
coedge $-1 $556 $404 $552 $557 forward $321 $-1 #
coedge $-1 $405 $556 $558 $559 forward $321 $-1 #
coedge $-1 $558 $560 $407 $488 reversed $561 $-1 #
edge $-1 $489 -5.1085240738867883 $562 5.1085240738867883 $487 $563 forward 7 unknown #
vertex $-1 $559 $564 #
straight-curve $-1 0 19.749287185758089 5.1085240738867883 -1 0 0 I I #
face $-1 $565 $566 $19 $-1 $567 reversed single #
loop $-1 $-1 $497 $412 #
plane-surface $-1 0 0 5.1085240738867883 0 0 1 1 0 0 forward_v I I I I #
coedge $-1 $417 $568 $424 $506 forward $413 $-1 #
coedge $-1 $424 $569 $415 $496 reversed $344 $-1 #
edge $-1 $500 -39.498574371516199 $570 -34.481225694657631 $415 $571 forward 7 unknown #
coedge $-1 $572 $573 $416 $498 forward $492 $-1 #
edge $-1 $501 17.436346736996068 $570 20.385470238347303 $497 $574 forward 7 unknown #
coedge $-1 $575 $417 $573 $576 reversed $413 $-1 #
vertex $-1 $506 $577 #
vertex $-1 $498 $578 #
straight-curve $-1 -37.478984468846733 19.749287185758089 44.7787584407181 0 0 1 I I #
vertex $-1 $419 $579 #
point $-1 -44.070379031958993 15.988012347952715 1.4175696217127687 #
coedge $-1 $569 $424 $580 $581 reversed $344 $-1 #
edge $-1 $582 -26.710456525691235 $500 -16.082504137334077 $494 $583 forward 7 unknown #
coedge $-1 $426 $428 $430 $511 reversed $349 $-1 #
vertex $-1 $427 $584 #
straight-curve $-1 0 19.749287185758089 5.1085240738867883 -1 0 0 I I #
straight-curve $-1 0 19.749287185758089 -5.1085240738867883 1 0 0 I I #
edge $-1 $508 -5.1085240738867883 $431 5.1085240738867883 $507 $585 forward 7 unknown #
point $-1 -48.106936857203891 19.749287185758089 -5.1085240738867883 #
straight-curve $-1 -48.106936857203891 0 5.1085240738867883 0 -1 0 I I #
coedge $-1 $454 $453 $443 $517 forward $439 $-1 #
coedge $-1 $466 $441 $449 $525 reversed $370 $-1 #
coedge $-1 $443 $442 $456 $528 reversed $301 $-1 #
edge $-1 $518 -48.106936857203891 $529 48.106936857203891 $514 $586 forward 7 unknown #
vertex $-1 $517 $587 #
straight-curve $-1 48.106936857203891 -13.434189811229093 -1.8042620369433942 0 0 -1 I I #
edge $-1 $523 5.1383205619822974 $521 11.453417936511293 $459 $588 forward 7 unknown #
vertex $-1 $447 $589 #
straight-curve $-1 0 -19.749287185758089 -2.1085240738867883 1 0 0 I I #
vertex $-1 $520 $590 #
straight-curve $-1 0 -13.434189811229093 -2.1085240738867883 -1 0 0 I I #
edge $-1 $468 -5.1085240738867883 $450 2.1085240738867883 $449 $591 forward 7 unknown #
point $-1 48.106936857203891 -19.749287185758089 -2.1085240738867883 #
point $-1 48.106936857203891 -13.434189811229093 -2.1085240738867883 #
edge $-1 $529 -3.3042620369433942 $523 -0.30426203694339415 $456 $592 forward 7 unknown #
vertex $-1 $457 $593 #
straight-curve $-1 -48.106936857203891 0 -5.1085240738867883 0 1 0 I I #
straight-curve $-1 -48.106936857203891 -19.749287185758089 0 0 0 -1 I I #
point $-1 -48.106936857203891 -19.749287185758089 5.1085240738867883 #
plane-surface $-1 48.106936857203891 0 0 -1 0 0 0 0 1 forward_v I I I I #
straight-curve $-1 0 -19.749287185758089 5.1085240738867883 1 0 0 I I #
point $-1 48.106936857203891 -19.749287185758089 5.1085240738867883 #
straight-curve $-1 48.106936857203891 0 -5.1085240738867883 0 -1 0 I I #
face $-1 $594 $595 $18 $-1 $596 reversed single #
loop $-1 $-1 $597 $472 #
plane-surface $-1 0 -19.749287185758089 0 0 1 0 0 0 1 forward_v I I I I #
coedge $-1 $598 $599 $600 $601 reversed $473 $-1 #
coedge $-1 $602 $475 $597 $603 reversed $396 $-1 #
coedge $-1 $475 $602 $598 $604 reversed $396 $-1 #
coedge $-1 $600 $605 $475 $544 forward $561 $-1 #
edge $-1 $606 -11.453417936511293 $607 -5.1383205619822974 $543 $608 forward 7 unknown #
coedge $-1 $609 $610 $476 $546 forward $595 $-1 #
edge $-1 $549 -48.106936857203891 $562 48.106936857203891 $476 $611 forward 7 unknown #
coedge $-1 $612 $477 $610 $613 reversed $548 $-1 #
loop $-1 $-1 $481 $594 #
vertex $-1 $546 $614 #
straight-curve $-1 -48.106936857203891 19.749287185758089 0 0 0 -1 I I #
point $-1 -48.106936857203891 19.749287185758089 1.0494036865427232 #
coedge $-1 $481 $615 $485 $557 reversed $548 $-1 #
vertex $-1 $557 $616 #
straight-curve $-1 -48.106936857203891 4.9788528845711477 21.379163011441708 0 0.5877852410284794 -0.80901700255871778 I I #
straight-curve $-1 -21.396480331512656 16.800163684406854 5.1085240738867874 -1 0 0 I I #
coedge $-1 $486 $485 $617 $618 forward $321 $-1 #
edge $-1 $553 -16.800163684406854 $619 19.749287185758089 $552 $620 forward 7 unknown #
coedge $-1 $605 $487 $486 $559 reversed $561 $-1 #
edge $-1 $621 -19.749287185758089 $489 19.749287185758089 $558 $622 forward 7 unknown #
coedge $-1 $487 $600 $609 $623 reversed $561 $-1 #
loop $-1 $-1 $600 $624 #
vertex $-1 $623 $625 #
straight-curve $-1 48.106936857203891 19.749287185758089 0 0 0 -1 I I #
point $-1 48.106936857203891 19.749287185758089 5.1085240738867883 #
face $-1 $626 $627 $19 $-1 $628 forward single #
loop $-1 $-1 $629 $491 #
plane-surface $-1 0 -16.591738498493591 -2.1085240738867883 0 0 1 1 0 0 forward_v I I I I #
coedge $-1 $494 $630 $631 $632 reversed $413 $-1 #
coedge $-1 $495 $505 $572 $633 reversed $344 $-1 #
vertex $-1 $633 $634 #
straight-curve $-1 -37.478984468846733 -3.4673918714848782 33.004421929929343 0 -0.5877852410284794 0.80901700255871778 I I #
coedge $-1 $635 $497 $569 $633 forward $492 $-1 #
coedge $-1 $497 $636 $499 $576 forward $492 $-1 #
straight-curve $-1 -37.478984468846733 37.185633922754157 5.108524073886791 0 -1 0 I I #
coedge $-1 $630 $499 $637 $638 forward $413 $-1 #
edge $-1 $639 -48.106936857203891 $501 37.478984468846733 $499 $640 forward 7 unknown #
point $-1 -37.478984468846733 19.749287185758089 1.0494036865427177 #
point $-1 -37.478984468846733 19.749287185758089 5.1085240738867883 #
point $-1 -45.070379031958993 15.178995345393997 0.82978438068428939 #
coedge $-1 $631 $641 $505 $581 forward $642 $-1 #
edge $-1 $643 20.111615560729845 $582 25.128964237588406 $580 $644 forward 7 unknown #
vertex $-1 $632 $645 #
straight-curve $-1 -21.396480331512656 19.749287185758089 1.0494036865427194 1 0 0 I I #
point $-1 -48.106936857203891 19.749287185758089 5.1085240738867883 #
straight-curve $-1 -48.106936857203891 19.749287185758089 0 0 0 -1 I I #
straight-curve $-1 0 -13.434189811229093 -5.1085240738867883 -1 0 0 I I #
point $-1 48.106936857203891 -13.434189811229093 -5.1085240738867883 #
straight-curve $-1 -48.106936857203891 -8.2958692492467954 -2.1085240738867883 0 -1 0 I I #
point $-1 -48.106936857203891 -19.749287185758089 -2.1085240738867883 #
point $-1 -48.106936857203891 -13.434189811229093 -2.1085240738867883 #
straight-curve $-1 48.106936857203891 -19.749287185758089 0 0 0 -1 I I #
straight-curve $-1 -48.106936857203891 -13.434189811229093 -1.8042620369433942 0 0 1 I I #
point $-1 -48.106936857203891 -13.434189811229093 -5.1085240738867883 #
face $-1 $624 $548 $18 $-1 $646 reversed single #
loop $-1 $-1 $647 $537 #
plane-surface $-1 0 0 -5.1085240738867883 0 0 1 1 0 0 forward_v I I I I #
coedge $-1 $648 $649 $541 $603 forward $538 $-1 #
coedge $-1 $650 $540 $542 $604 forward $473 $-1 #
coedge $-1 $540 $650 $647 $651 reversed $473 $-1 #
coedge $-1 $560 $543 $540 $601 forward $561 $-1 #
edge $-1 $607 0.30426203694339415 $652 3.3042620369433942 $600 $653 forward 7 unknown #
coedge $-1 $542 $541 $654 $655 reversed $396 $-1 #
edge $-1 $656 -48.106936857203891 $606 48.106936857203891 $597 $657 forward 7 unknown #
edge $-1 $607 -48.106936857203891 $658 48.106936857203891 $598 $659 forward 7 unknown #
coedge $-1 $543 $558 $648 $660 forward $561 $-1 #
vertex $-1 $603 $661 #
vertex $-1 $544 $662 #
straight-curve $-1 48.106936857203891 -8.2958692492467954 -2.1085240738867883 0 1 0 I I #
coedge $-1 $647 $545 $560 $623 forward $595 $-1 #
coedge $-1 $545 $647 $547 $613 forward $595 $-1 #
straight-curve $-1 0 19.749287185758089 -5.1085240738867883 1 0 0 I I #
coedge $-1 $654 $547 $650 $663 forward $548 $-1 #
edge $-1 $664 -13.434189811229093 $549 19.749287185758089 $547 $665 forward 7 unknown #
point $-1 -48.106936857203891 19.749287185758089 -5.1085240738867883 #
coedge $-1 $552 $654 $649 $666 reversed $548 $-1 #
point $-1 -48.106936857203891 16.800163684406854 5.1085240738867839 #
coedge $-1 $649 $648 $556 $618 reversed $538 $-1 #
edge $-1 $619 -48.106936857203891 $621 48.106936857203891 $617 $667 forward 7 unknown #
vertex $-1 $557 $668 #
straight-curve $-1 -48.106936857203891 0 5.1085240738867883 0 -1 0 I I #
vertex $-1 $559 $669 #
straight-curve $-1 48.106936857203891 0 5.1085240738867883 0 1 0 I I #
edge $-1 $562 -19.749287185758089 $652 13.434189811229093 $560 $670 forward 7 unknown #
face $-1 $-1 $561 $18 $-1 $671 reversed single #
point $-1 48.106936857203891 19.749287185758089 -5.1085240738867883 #
face $-1 $672 $673 $19 $-1 $674 reversed single #
loop $-1 $-1 $675 $565 #
plane-surface $-1 0 -13.434189811229093 -3.6085240738867883 0 -1 0 0 0 -1 forward_v I I I I #
coedge $-1 $676 $677 $678 $679 reversed $566 $-1 #
coedge $-1 $568 $575 $680 $681 reversed $413 $-1 #
coedge $-1 $682 $580 $568 $632 forward $642 $-1 #
edge $-1 $582 -1.0494036865427232 $683 5.1085240738867883 $568 $684 forward 7 unknown #
edge $-1 $570 16.082504137334077 $643 26.710456525691235 $572 $685 forward 7 unknown #
point $-1 -37.478984468846733 16.800163684406854 5.1085240738867839 #
coedge $-1 $686 $572 $641 $687 forward $492 $-1 #
coedge $-1 $573 $686 $688 $689 forward $492 $-1 #
coedge $-1 $688 $690 $575 $638 reversed $691 $-1 #
edge $-1 $639 -5.1085240738867883 $692 5.1085240738867883 $637 $693 forward 7 unknown #
vertex $-1 $689 $694 #
straight-curve $-1 0 19.749287185758089 5.1085240738867883 -1 0 0 I I #
coedge $-1 $580 $695 $635 $687 reversed $642 $-1 #
loop $-1 $-1 $580 $696 #
vertex $-1 $687 $697 #
straight-curve $-1 -48.106936857203891 4.9788528845711477 21.379163011441708 0 0.5877852410284794 -0.80901700255871778 I I #
point $-1 -48.106936857203891 19.749287185758089 1.0494036865427232 #
plane-surface $-1 -48.106936857203891 0 0 1 0 0 0 0 -1 forward_v I I I I #
coedge $-1 $610 $609 $599 $651 forward $595 $-1 #
coedge $-1 $617 $597 $605 $660 reversed $538 $-1 #
coedge $-1 $597 $617 $615 $666 forward $538 $-1 #
coedge $-1 $599 $598 $612 $663 reversed $473 $-1 #
edge $-1 $652 -48.106936857203891 $664 48.106936857203891 $647 $698 forward 7 unknown #
vertex $-1 $651 $699 #
straight-curve $-1 48.106936857203891 -13.434189811229093 -1.8042620369433942 0 0 -1 I I #
coedge $-1 $615 $612 $602 $655 forward $548 $-1 #
edge $-1 $658 5.1383205619822974 $656 11.453417936511293 $654 $700 forward 7 unknown #
vertex $-1 $603 $701 #
straight-curve $-1 0 -19.749287185758089 -2.1085240738867883 1 0 0 I I #
vertex $-1 $655 $702 #
straight-curve $-1 0 -13.434189811229093 -2.1085240738867883 -1 0 0 I I #
edge $-1 $621 -5.1085240738867883 $606 2.1085240738867883 $605 $703 forward 7 unknown #
point $-1 48.106936857203891 -19.749287185758089 -2.1085240738867883 #
point $-1 48.106936857203891 -13.434189811229093 -2.1085240738867883 #
edge $-1 $664 -3.3042620369433942 $658 -0.30426203694339415 $612 $704 forward 7 unknown #
vertex $-1 $613 $705 #
straight-curve $-1 -48.106936857203891 0 -5.1085240738867883 0 1 0 I I #
edge $-1 $619 -5.1085240738867883 $656 2.1085240738867883 $615 $706 forward 7 unknown #
straight-curve $-1 0 -19.749287185758089 5.1085240738867883 1 0 0 I I #
point $-1 -48.106936857203891 -19.749287185758089 5.1085240738867883 #
point $-1 48.106936857203891 -19.749287185758089 5.1085240738867883 #
straight-curve $-1 48.106936857203891 0 -5.1085240738867883 0 -1 0 I I #
plane-surface $-1 48.106936857203891 0 0 -1 0 0 0 0 1 forward_v I I I I #
face $-1 $696 $707 $19 $-1 $708 reversed single #
loop $-1 $-1 $709 $626 #
plane-surface $-1 0 -19.749287185758089 0 0 1 0 0 0 1 forward_v I I I I #
coedge $-1 $710 $711 $712 $713 reversed $627 $-1 #
coedge $-1 $714 $629 $709 $715 reversed $566 $-1 #
coedge $-1 $629 $714 $710 $716 reversed $566 $-1 #
coedge $-1 $712 $717 $629 $679 forward $691 $-1 #
edge $-1 $718 -11.453417936511293 $719 -5.1383205619822974 $678 $720 forward 7 unknown #
coedge $-1 $721 $722 $630 $681 forward $707 $-1 #
edge $-1 $683 -48.106936857203891 $692 48.106936857203891 $630 $723 forward 7 unknown #
coedge $-1 $724 $631 $722 $725 reversed $642 $-1 #
vertex $-1 $681 $726 #
straight-curve $-1 -48.106936857203891 19.749287185758089 0 0 0 -1 I I #
straight-curve $-1 -21.396480331512656 16.800163684406854 5.1085240738867874 -1 0 0 I I #
coedge $-1 $636 $635 $727 $728 forward $492 $-1 #
edge $-1 $643 -16.800163684406854 $729 19.749287185758089 $641 $730 forward 7 unknown #
coedge $-1 $717 $637 $636 $689 reversed $691 $-1 #
edge $-1 $731 -19.749287185758089 $639 19.749287185758089 $688 $732 forward 7 unknown #
coedge $-1 $637 $712 $721 $733 reversed $691 $-1 #
loop $-1 $-1 $712 $734 #
vertex $-1 $733 $735 #
straight-curve $-1 48.106936857203891 19.749287185758089 0 0 0 -1 I I #
point $-1 48.106936857203891 19.749287185758089 5.1085240738867883 #
coedge $-1 $641 $736 $737 $738 reversed $642 $-1 #
face $-1 $734 $642 $19 $-1 $739 reversed single #
point $-1 -48.106936857203891 16.800163684406854 5.1085240738867839 #
straight-curve $-1 0 -13.434189811229093 -5.1085240738867883 -1 0 0 I I #
point $-1 48.106936857203891 -13.434189811229093 -5.1085240738867883 #
straight-curve $-1 -48.106936857203891 -8.2958692492467954 -2.1085240738867883 0 -1 0 I I #
point $-1 -48.106936857203891 -19.749287185758089 -2.1085240738867883 #
point $-1 -48.106936857203891 -13.434189811229093 -2.1085240738867883 #
straight-curve $-1 48.106936857203891 -19.749287185758089 0 0 0 -1 I I #
straight-curve $-1 -48.106936857203891 -13.434189811229093 -1.8042620369433942 0 0 1 I I #
point $-1 -48.106936857203891 -13.434189811229093 -5.1085240738867883 #
straight-curve $-1 -48.106936857203891 -19.749287185758089 0 0 0 -1 I I #
loop $-1 $-1 $740 $672 #
plane-surface $-1 0 0 -5.1085240738867883 0 0 1 1 0 0 forward_v I I I I #
coedge $-1 $741 $737 $676 $715 forward $673 $-1 #
coedge $-1 $742 $675 $677 $716 forward $627 $-1 #
coedge $-1 $675 $742 $740 $743 reversed $627 $-1 #
coedge $-1 $690 $678 $675 $713 forward $691 $-1 #
edge $-1 $719 0.30426203694339415 $744 3.3042620369433942 $712 $745 forward 7 unknown #
coedge $-1 $677 $676 $736 $746 reversed $566 $-1 #
edge $-1 $747 -48.106936857203891 $718 48.106936857203891 $709 $748 forward 7 unknown #
edge $-1 $719 -48.106936857203891 $749 48.106936857203891 $710 $750 forward 7 unknown #
coedge $-1 $678 $688 $741 $751 forward $691 $-1 #
vertex $-1 $715 $752 #
vertex $-1 $679 $753 #
straight-curve $-1 48.106936857203891 -8.2958692492467954 -2.1085240738867883 0 1 0 I I #
coedge $-1 $740 $680 $690 $733 forward $707 $-1 #
coedge $-1 $680 $740 $682 $725 forward $707 $-1 #
straight-curve $-1 0 19.749287185758089 -5.1085240738867883 1 0 0 I I #
coedge $-1 $736 $682 $742 $754 forward $642 $-1 #
edge $-1 $755 -13.434189811229093 $683 19.749287185758089 $682 $756 forward 7 unknown #
point $-1 -48.106936857203891 19.749287185758089 -5.1085240738867883 #
coedge $-1 $737 $741 $686 $728 reversed $673 $-1 #
edge $-1 $729 -48.106936857203891 $731 48.106936857203891 $727 $757 forward 7 unknown #
vertex $-1 $687 $758 #
straight-curve $-1 -48.106936857203891 0 5.1085240738867883 0 -1 0 I I #
vertex $-1 $689 $759 #
straight-curve $-1 48.106936857203891 0 5.1085240738867883 0 1 0 I I #
edge $-1 $692 -19.749287185758089 $744 13.434189811229093 $690 $760 forward 7 unknown #
face $-1 $-1 $691 $19 $-1 $761 reversed single #
point $-1 48.106936857203891 19.749287185758089 -5.1085240738867883 #
coedge $-1 $695 $724 $714 $746 forward $642 $-1 #
coedge $-1 $709 $727 $695 $738 forward $673 $-1 #
edge $-1 $729 -5.1085240738867883 $747 2.1085240738867883 $695 $762 forward 7 unknown #
plane-surface $-1 -48.106936857203891 0 0 1 0 0 0 0 -1 forward_v I I I I #
coedge $-1 $722 $721 $711 $743 forward $707 $-1 #
coedge $-1 $727 $709 $717 $751 reversed $673 $-1 #
coedge $-1 $711 $710 $724 $754 reversed $627 $-1 #
edge $-1 $744 -48.106936857203891 $755 48.106936857203891 $740 $763 forward 7 unknown #
vertex $-1 $743 $764 #
straight-curve $-1 48.106936857203891 -13.434189811229093 -1.8042620369433942 0 0 -1 I I #
edge $-1 $749 5.1383205619822974 $747 11.453417936511293 $736 $765 forward 7 unknown #
vertex $-1 $715 $766 #
straight-curve $-1 0 -19.749287185758089 -2.1085240738867883 1 0 0 I I #
vertex $-1 $746 $767 #
straight-curve $-1 0 -13.434189811229093 -2.1085240738867883 -1 0 0 I I #
edge $-1 $731 -5.1085240738867883 $718 2.1085240738867883 $717 $768 forward 7 unknown #
point $-1 48.106936857203891 -19.749287185758089 -2.1085240738867883 #
point $-1 48.106936857203891 -13.434189811229093 -2.1085240738867883 #
edge $-1 $755 -3.3042620369433942 $749 -0.30426203694339415 $724 $769 forward 7 unknown #
vertex $-1 $725 $770 #
straight-curve $-1 -48.106936857203891 0 -5.1085240738867883 0 1 0 I I #
straight-curve $-1 0 -19.749287185758089 5.1085240738867883 1 0 0 I I #
point $-1 -48.106936857203891 -19.749287185758089 5.1085240738867883 #
point $-1 48.106936857203891 -19.749287185758089 5.1085240738867883 #
straight-curve $-1 48.106936857203891 0 -5.1085240738867883 0 -1 0 I I #
plane-surface $-1 48.106936857203891 0 0 -1 0 0 0 0 1 forward_v I I I I #
straight-curve $-1 -48.106936857203891 -19.749287185758089 0 0 0 -1 I I #
straight-curve $-1 0 -13.434189811229093 -5.1085240738867883 -1 0 0 I I #
point $-1 48.106936857203891 -13.434189811229093 -5.1085240738867883 #
straight-curve $-1 -48.106936857203891 -8.2958692492467954 -2.1085240738867883 0 -1 0 I I #
point $-1 -48.106936857203891 -19.749287185758089 -2.1085240738867883 #
point $-1 -48.106936857203891 -13.434189811229093 -2.1085240738867883 #
straight-curve $-1 48.106936857203891 -19.749287185758089 0 0 0 -1 I I #
straight-curve $-1 -48.106936857203891 -13.434189811229093 -1.8042620369433942 0 0 1 I I #
point $-1 -48.106936857203891 -13.434189811229093 -5.1085240738867883 #
End-of-ACIS-data 