500 0 3 0           
7 Unknown 11 ACIS 5.0 NT 24 Fri Mar 26 17:30:27 1999 
-1 9.9999999999999995e-007 1e-010 
body $-1 $3 $-1 $4 #
body $-1 $5 $-1 $6 #
body $-1 $7 $-1 $8 #
lump $-1 $-1 $9 $0 #
transform $-1 1 0 0 0 1 0 0 0 1 51.0635700552385 33.783272716009463 10.052294401496038 1 rotate no_reflect no_shear #
lump $-1 $-1 $10 $1 #
transform $-1 1 0 0 0 1 0 0 0 1 51.0635700552385 33.783272716009463 10.052294401496038 1 rotate no_reflect no_shear #
lump $-1 $-1 $11 $2 #
transform $-1 1 0 0 0 1 0 0 0 1 51.0635700552385 33.783272716009463 10.052294401496038 1 rotate no_reflect no_shear #
shell $-1 $-1 $-1 $12 $-1 $3 #
shell $-1 $-1 $-1 $13 $-1 $5 #
shell $-1 $-1 $-1 $14 $-1 $7 #
face $-1 $15 $16 $9 $-1 $17 forward single #
face $-1 $18 $19 $10 $-1 $20 reversed single #
face $-1 $21 $22 $11 $-1 $23 reversed single #
face $-1 $24 $25 $9 $-1 $26 reversed single #
loop $-1 $-1 $27 $12 #
plane-surface $-1 0 0 10.052294401496038 0 0 1 1 0 0 forward_v I I I I #
face $-1 $28 $29 $10 $-1 $30 forward single #
loop $-1 $-1 $31 $13 #
plane-surface $-1 0 -30.41489050287521 -4.4262368732195458 0 0 1 1 0 0 forward_v I I I I #
face $-1 $32 $33 $11 $-1 $34 forward single #
loop $-1 $-1 $35 $14 #
plane-surface $-1 0 30.41489050287521 -4.4262368732195458 0 0 1 1 0 0 forward_v I I I I #
face $-1 $36 $37 $9 $-1 $38 reversed single #
loop $-1 $-1 $39 $15 #
plane-surface $-1 0 0 -10.052294401496038 0 0 1 1 0 0 forward_v I I I I #
coedge $-1 $40 $41 $42 $43 forward $16 $-1 #
face $-1 $44 $45 $10 $-1 $46 reversed single #
loop $-1 $-1 $47 $18 #
plane-surface $-1 0 -27.046508289740956 -7.2392656373577919 0 -1 0 0 0 -1 forward_v I I I I #
coedge $-1 $48 $49 $50 $51 reversed $19 $-1 #
face $-1 $52 $53 $11 $-1 $54 reversed single #
loop $-1 $-1 $55 $21 #
plane-surface $-1 0 27.046508289740956 -7.2392656373577919 0 1 0 0 0 1 forward_v I I I I #
coedge $-1 $56 $57 $58 $59 reversed $22 $-1 #
face $-1 $60 $61 $9 $-1 $62 reversed single #
loop $-1 $-1 $63 $24 #
plane-surface $-1 0 -33.783272716009463 0 0 1 0 0 0 1 forward_v I I I I #
coedge $-1 $64 $65 $66 $67 forward $25 $-1 #
coedge $-1 $68 $27 $69 $70 forward $16 $-1 #
coedge $-1 $27 $68 $71 $72 forward $16 $-1 #
coedge $-1 $73 $74 $27 $43 reversed $75 $-1 #
edge $-1 $76 -33.783272716009463 $77 33.783272716009463 $42 $78 forward 7 unknown #
face $-1 $79 $80 $10 $-1 $81 reversed single #
loop $-1 $-1 $82 $28 #
plane-surface $-1 0 -33.783272716009463 0 0 1 0 0 0 1 forward_v I I I I #
coedge $-1 $83 $84 $85 $86 reversed $29 $-1 #
coedge $-1 $87 $31 $82 $88 reversed $19 $-1 #
coedge $-1 $31 $87 $83 $89 reversed $19 $-1 #
coedge $-1 $85 $90 $31 $51 forward $91 $-1 #
edge $-1 $92 -18.575827464571859 $93 -11.839063038303351 $50 $94 forward 7 unknown #
face $-1 $95 $96 $11 $-1 $97 reversed single #
loop $-1 $-1 $98 $32 #
plane-surface $-1 0 33.783272716009463 0 0 -1 0 0 0 -1 forward_v I I I I #
coedge $-1 $99 $100 $101 $102 reversed $33 $-1 #
coedge $-1 $103 $35 $99 $104 reversed $22 $-1 #
coedge $-1 $35 $103 $98 $105 reversed $22 $-1 #
coedge $-1 $106 $107 $35 $59 forward $108 $-1 #
edge $-1 $109 11.839063038303351 $110 18.575827464571859 $58 $111 forward 7 unknown #
face $-1 $112 $113 $9 $-1 $114 reversed single #
loop $-1 $-1 $115 $36 #
plane-surface $-1 -51.0635700552385 0 0 1 0 0 0 0 -1 forward_v I I I I #
coedge $-1 $116 $71 $117 $118 forward $37 $-1 #
coedge $-1 $119 $39 $116 $120 forward $25 $-1 #
coedge $-1 $39 $119 $121 $122 forward $25 $-1 #
coedge $-1 $74 $73 $39 $67 reversed $75 $-1 #
edge $-1 $123 -33.783272716009463 $124 33.783272716009463 $66 $125 forward 7 unknown #
coedge $-1 $41 $40 $126 $127 forward $16 $-1 #
coedge $-1 $128 $129 $40 $70 reversed $113 $-1 #
edge $-1 $77 -51.0635700552385 $130 51.0635700552385 $69 $131 forward 7 unknown #
coedge $-1 $63 $132 $41 $72 reversed $37 $-1 #
edge $-1 $133 -51.0635700552385 $76 51.0635700552385 $71 $134 forward 7 unknown #
coedge $-1 $66 $42 $132 $135 forward $75 $-1 #
coedge $-1 $42 $66 $128 $136 reversed $75 $-1 #
loop $-1 $-1 $73 $112 #
vertex $-1 $43 $137 #
vertex $-1 $43 $138 #
straight-curve $-1 51.0635700552385 0 10.052294401496038 0 1 0 I I #
face $-1 $139 $140 $10 $-1 $141 forward single #
loop $-1 $-1 $142 $44 #
plane-surface $-1 0 0 -10.052294401496038 0 0 1 1 0 0 forward_v I I I I #
coedge $-1 $143 $144 $48 $88 forward $45 $-1 #
coedge $-1 $145 $47 $49 $89 forward $29 $-1 #
coedge $-1 $47 $145 $142 $146 reversed $29 $-1 #
coedge $-1 $147 $50 $47 $86 forward $91 $-1 #
edge $-1 $93 0.80660405454064987 $148 6.4326615828171416 $85 $149 forward 7 unknown #
coedge $-1 $49 $48 $150 $151 reversed $19 $-1 #
edge $-1 $152 -51.0635700552385 $92 51.0635700552385 $82 $153 forward 7 unknown #
edge $-1 $93 -51.0635700552385 $154 51.0635700552385 $83 $155 forward 7 unknown #
coedge $-1 $50 $156 $143 $157 forward $91 $-1 #
loop $-1 $-1 $85 $158 #
vertex $-1 $88 $159 #
vertex $-1 $51 $160 #
straight-curve $-1 51.0635700552385 -15.207445251437605 -4.4262368732195458 0 1 0 I I #
face $-1 $161 $162 $11 $-1 $163 reversed single #
loop $-1 $-1 $164 $52 #
plane-surface $-1 -51.0635700552385 0 0 1 0 0 0 0 -1 forward_v I I I I #
coedge $-1 $165 $166 $57 $105 forward $53 $-1 #
coedge $-1 $167 $55 $56 $104 forward $33 $-1 #
coedge $-1 $55 $167 $168 $169 reversed $33 $-1 #
coedge $-1 $170 $164 $55 $102 forward $96 $-1 #
edge $-1 $171 0.80660405454064987 $172 6.4326615828171416 $101 $173 forward 7 unknown #
coedge $-1 $57 $56 $164 $174 reversed $22 $-1 #
edge $-1 $171 -51.0635700552385 $109 51.0635700552385 $99 $175 forward 7 unknown #
edge $-1 $110 -51.0635700552385 $176 51.0635700552385 $98 $177 forward 7 unknown #
coedge $-1 $178 $58 $166 $179 reversed $108 $-1 #
coedge $-1 $58 $180 $167 $181 forward $108 $-1 #
loop $-1 $-1 $58 $182 #
vertex $-1 $59 $183 #
vertex $-1 $105 $184 #
straight-curve $-1 51.0635700552385 15.207445251437605 -4.4262368732195458 0 1 0 I I #
face $-1 $-1 $75 $9 $-1 $185 reversed single #
loop $-1 $-1 $128 $60 #
plane-surface $-1 0 33.783272716009463 0 0 -1 0 0 0 -1 forward_v I I I I #
coedge $-1 $186 $126 $129 $187 forward $61 $-1 #
coedge $-1 $132 $63 $64 $120 reversed $37 $-1 #
coedge $-1 $126 $186 $63 $118 reversed $61 $-1 #
edge $-1 $133 -10.052294401496038 $188 10.052294401496038 $117 $189 forward 7 unknown #
coedge $-1 $65 $64 $186 $190 forward $25 $-1 #
edge $-1 $124 -51.0635700552385 $188 51.0635700552385 $116 $191 forward 7 unknown #
coedge $-1 $129 $128 $65 $122 reversed $113 $-1 #
edge $-1 $192 -51.0635700552385 $123 51.0635700552385 $121 $193 forward 7 unknown #
vertex $-1 $67 $194 #
vertex $-1 $135 $195 #
straight-curve $-1 51.0635700552385 0 -10.052294401496038 0 -1 0 I I #
coedge $-1 $115 $117 $68 $127 reversed $61 $-1 #
edge $-1 $130 -33.783272716009463 $133 33.783272716009463 $126 $196 forward 7 unknown #
coedge $-1 $121 $69 $74 $136 forward $113 $-1 #
coedge $-1 $69 $121 $115 $187 reversed $113 $-1 #
vertex $-1 $70 $197 #
straight-curve $-1 0 33.783272716009463 10.052294401496038 -1 0 0 I I #
coedge $-1 $71 $116 $73 $135 reversed $37 $-1 #
vertex $-1 $127 $198 #
straight-curve $-1 0 -33.783272716009463 10.052294401496038 1 0 0 I I #
edge $-1 $76 -10.052294401496038 $124 10.052294401496038 $73 $199 forward 7 unknown #
edge $-1 $77 -10.052294401496038 $123 10.052294401496038 $74 $200 forward 7 unknown #
point $-1 51.0635700552385 -33.783272716009463 10.052294401496038 #
point $-1 51.0635700552385 33.783272716009463 10.052294401496038 #
face $-1 $201 $202 $10 $-1 $203 reversed single #
loop $-1 $-1 $204 $79 #
plane-surface $-1 0 0 10.052294401496038 0 0 1 1 0 0 forward_v I I I I #
coedge $-1 $205 $206 $84 $146 forward $80 $-1 #
coedge $-1 $207 $82 $90 $157 reversed $45 $-1 #
coedge $-1 $82 $207 $208 $209 forward $45 $-1 #
coedge $-1 $84 $83 $210 $211 reversed $29 $-1 #
edge $-1 $148 -51.0635700552385 $212 51.0635700552385 $142 $213 forward 7 unknown #
coedge $-1 $214 $85 $206 $215 reversed $91 $-1 #
vertex $-1 $146 $216 #
straight-curve $-1 51.0635700552385 -27.046508289740956 -3.619632818678896 0 0 -1 I I #
coedge $-1 $208 $210 $87 $151 forward $202 $-1 #
edge $-1 $154 11.839063038303351 $152 18.575827464571859 $150 $217 forward 7 unknown #
vertex $-1 $88 $218 #
straight-curve $-1 0 -33.783272716009463 -4.4262368732195458 1 0 0 I I #
vertex $-1 $151 $219 #
straight-curve $-1 0 -27.046508289740956 -4.4262368732195458 -1 0 0 I I #
coedge $-1 $90 $214 $204 $220 reversed $91 $-1 #
edge $-1 $221 -10.052294401496038 $92 4.4262368732195458 $90 $222 forward 7 unknown #
face $-1 $-1 $91 $10 $-1 $223 reversed single #
point $-1 51.0635700552385 -33.783272716009463 -4.4262368732195458 #
point $-1 51.0635700552385 -27.046508289740956 -4.4262368732195458 #
face $-1 $224 $225 $11 $-1 $226 forward single #
loop $-1 $-1 $227 $95 #
plane-surface $-1 0 -30.41489050287521 -4.4262368732195458 0 0 1 1 0 0 forward_v I I I I #
coedge $-1 $101 $228 $103 $174 forward $96 $-1 #
coedge $-1 $229 $98 $228 $230 reversed $53 $-1 #
coedge $-1 $98 $229 $106 $179 forward $53 $-1 #
coedge $-1 $100 $99 $107 $181 reversed $33 $-1 #
coedge $-1 $231 $232 $100 $169 forward $233 $-1 #
edge $-1 $172 -51.0635700552385 $234 51.0635700552385 $168 $235 forward 7 unknown #
coedge $-1 $236 $101 $232 $237 reversed $96 $-1 #
vertex $-1 $174 $238 #
vertex $-1 $102 $239 #
straight-curve $-1 -51.0635700552385 27.046508289740956 -3.619632818678896 0 0 -1 I I #
edge $-1 $176 -18.575827464571859 $171 -11.839063038303351 $164 $240 forward 7 unknown #
straight-curve $-1 0 27.046508289740956 -4.4262368732195458 1 0 0 I I #
vertex $-1 $174 $241 #
straight-curve $-1 0 33.783272716009463 -4.4262368732195458 -1 0 0 I I #
coedge $-1 $242 $106 $243 $244 reversed $108 $-1 #
edge $-1 $245 -10.052294401496038 $110 4.4262368732195458 $106 $246 forward 7 unknown #
coedge $-1 $107 $247 $231 $248 reversed $108 $-1 #
edge $-1 $234 -6.4326615828171416 $109 -0.80660405454064987 $107 $249 forward 7 unknown #
face $-1 $-1 $108 $11 $-1 $250 reversed single #
point $-1 51.0635700552385 27.046508289740956 -4.4262368732195458 #
point $-1 51.0635700552385 33.783272716009463 -4.4262368732195458 #
plane-surface $-1 51.0635700552385 0 0 -1 0 0 0 0 1 forward_v I I I I #
coedge $-1 $117 $115 $119 $190 reversed $61 $-1 #
edge $-1 $130 -10.052294401496038 $192 10.052294401496038 $129 $251 forward 7 unknown #
vertex $-1 $190 $252 #
straight-curve $-1 -51.0635700552385 -33.783272716009463 0 0 0 -1 I I #
edge $-1 $188 -33.783272716009463 $192 33.783272716009463 $186 $253 forward 7 unknown #
straight-curve $-1 0 -33.783272716009463 -10.052294401496038 -1 0 0 I I #
vertex $-1 $122 $254 #
straight-curve $-1 0 33.783272716009463 -10.052294401496038 1 0 0 I I #
point $-1 51.0635700552385 33.783272716009463 -10.052294401496038 #
point $-1 51.0635700552385 -33.783272716009463 -10.052294401496038 #
straight-curve $-1 -51.0635700552385 0 10.052294401496038 0 -1 0 I I #
point $-1 -51.0635700552385 33.783272716009463 10.052294401496038 #
point $-1 -51.0635700552385 -33.783272716009463 10.052294401496038 #
straight-curve $-1 51.0635700552385 -33.783272716009463 0 0 0 -1 I I #
straight-curve $-1 51.0635700552385 33.783272716009463 0 0 0 -1 I I #
face $-1 $158 $255 $10 $-1 $256 reversed single #
loop $-1 $-1 $150 $139 #
plane-surface $-1 -51.0635700552385 0 0 1 0 0 0 0 -1 forward_v I I I I #
coedge $-1 $257 $258 $156 $220 forward $140 $-1 #
coedge $-1 $259 $142 $260 $261 forward $80 $-1 #
coedge $-1 $142 $259 $147 $215 forward $80 $-1 #
coedge $-1 $144 $143 $258 $262 reversed $45 $-1 #
coedge $-1 $263 $150 $144 $209 reversed $202 $-1 #
edge $-1 $264 -10.052294401496038 $152 4.4262368732195458 $208 $265 forward 7 unknown #
coedge $-1 $150 $260 $145 $211 forward $202 $-1 #
edge $-1 $212 -6.4326615828171416 $154 -0.80660405454064987 $210 $266 forward 7 unknown #
vertex $-1 $261 $267 #
straight-curve $-1 0 -27.046508289740956 -10.052294401496038 -1 0 0 I I #
coedge $-1 $156 $147 $268 $269 reversed $91 $-1 #
edge $-1 $270 -33.783272716009463 $148 27.046508289740956 $147 $271 forward 7 unknown #
point $-1 51.0635700552385 -27.046508289740956 -10.052294401496038 #
straight-curve $-1 -51.0635700552385 -15.207445251437605 -4.4262368732195458 0 -1 0 I I #
point $-1 -51.0635700552385 -33.783272716009463 -4.4262368732195458 #
point $-1 -51.0635700552385 -27.046508289740956 -4.4262368732195458 #
edge $-1 $221 -33.783272716009463 $272 33.783272716009463 $156 $273 forward 7 unknown #
vertex $-1 $220 $274 #
straight-curve $-1 51.0635700552385 -33.783272716009463 0 0 0 -1 I I #
plane-surface $-1 51.0635700552385 0 0 -1 0 0 0 0 1 forward_v I I I I #
face $-1 $275 $276 $11 $-1 $277 reversed single #
loop $-1 $-1 $278 $161 #
plane-surface $-1 0 -27.046508289740956 -7.2392656373577919 0 -1 0 0 0 -1 forward_v I I I I #
coedge $-1 $279 $280 $281 $282 reversed $162 $-1 #
coedge $-1 $164 $283 $165 $230 forward $96 $-1 #
coedge $-1 $166 $165 $284 $285 reversed $53 $-1 #
edge $-1 $286 -10.052294401496038 $176 4.4262368732195458 $165 $287 forward 7 unknown #
coedge $-1 $288 $168 $180 $248 forward $233 $-1 #
coedge $-1 $168 $288 $170 $237 forward $233 $-1 #
loop $-1 $-1 $168 $275 #
vertex $-1 $248 $289 #
straight-curve $-1 0 27.046508289740956 -10.052294401496038 1 0 0 I I #
coedge $-1 $290 $170 $291 $292 forward $96 $-1 #
edge $-1 $293 -27.046508289740956 $172 27.046508289740956 $170 $294 forward 7 unknown #
point $-1 -51.0635700552385 27.046508289740956 -4.4262368732195458 #
point $-1 -51.0635700552385 27.046508289740956 -10.052294401496038 #
straight-curve $-1 -51.0635700552385 15.207445251437605 -4.4262368732195458 0 -1 0 I I #
point $-1 -51.0635700552385 33.783272716009463 -4.4262368732195458 #
coedge $-1 $281 $178 $295 $296 forward $108 $-1 #
coedge $-1 $284 $297 $178 $244 forward $298 $-1 #
edge $-1 $299 -33.783272716009463 $245 33.783272716009463 $178 $300 forward 7 unknown #
vertex $-1 $244 $301 #
straight-curve $-1 51.0635700552385 33.783272716009463 0 0 0 -1 I I #
coedge $-1 $180 $281 $278 $302 forward $108 $-1 #
edge $-1 $234 -27.046508289740956 $303 27.046508289740956 $180 $304 forward 7 unknown #
straight-curve $-1 51.0635700552385 27.046508289740956 -3.619632818678896 0 0 1 I I #
plane-surface $-1 51.0635700552385 0 0 -1 0 0 0 0 1 forward_v I I I I #
straight-curve $-1 -51.0635700552385 33.783272716009463 0 0 0 -1 I I #
point $-1 -51.0635700552385 -33.783272716009463 -10.052294401496038 #
straight-curve $-1 -51.0635700552385 0 -10.052294401496038 0 1 0 I I #
point $-1 -51.0635700552385 33.783272716009463 -10.052294401496038 #
loop $-1 $-1 $268 $201 #
plane-surface $-1 0 33.783272716009463 0 0 -1 0 0 0 -1 forward_v I I I I #
coedge $-1 $305 $204 $306 $307 forward $140 $-1 #
coedge $-1 $204 $305 $207 $262 forward $140 $-1 #
coedge $-1 $206 $205 $308 $309 forward $80 $-1 #
coedge $-1 $210 $310 $205 $261 reversed $202 $-1 #
edge $-1 $212 -27.046508289740956 $311 33.783272716009463 $260 $312 forward 7 unknown #
edge $-1 $264 -51.0635700552385 $221 51.0635700552385 $207 $313 forward 7 unknown #
coedge $-1 $310 $208 $305 $314 reversed $202 $-1 #
vertex $-1 $314 $315 #
straight-curve $-1 -51.0635700552385 -33.783272716009463 0 0 0 -1 I I #
straight-curve $-1 -51.0635700552385 -27.046508289740956 -3.619632818678896 0 0 1 I I #
point $-1 -51.0635700552385 -27.046508289740956 -10.052294401496038 #
coedge $-1 $308 $306 $214 $269 forward $255 $-1 #
edge $-1 $272 -10.052294401496038 $270 10.052294401496038 $214 $316 forward 7 unknown #
vertex $-1 $215 $317 #
straight-curve $-1 51.0635700552385 0 -10.052294401496038 0 -1 0 I I #
vertex $-1 $220 $318 #
straight-curve $-1 51.0635700552385 0 10.052294401496038 0 1 0 I I #
point $-1 51.0635700552385 -33.783272716009463 10.052294401496038 #
face $-1 $319 $233 $11 $-1 $320 reversed single #
loop $-1 $-1 $321 $224 #
plane-surface $-1 0 -33.783272716009463 0 0 1 0 0 0 1 forward_v I I I I #
coedge $-1 $322 $323 $247 $302 reversed $225 $-1 #
coedge $-1 $324 $227 $321 $325 reversed $162 $-1 #
coedge $-1 $227 $324 $322 $326 reversed $162 $-1 #
coedge $-1 $247 $242 $227 $282 forward $108 $-1 #
edge $-1 $327 -18.575827464571859 $328 -11.839063038303351 $281 $329 forward 7 unknown #
coedge $-1 $228 $330 $331 $332 reversed $96 $-1 #
coedge $-1 $331 $243 $229 $285 forward $298 $-1 #
edge $-1 $245 -51.0635700552385 $286 51.0635700552385 $229 $333 forward 7 unknown #
vertex $-1 $285 $334 #
straight-curve $-1 -51.0635700552385 33.783272716009463 0 0 0 -1 I I #
coedge $-1 $232 $231 $323 $335 forward $233 $-1 #
point $-1 51.0635700552385 27.046508289740956 -10.052294401496038 #
coedge $-1 $330 $236 $324 $336 forward $96 $-1 #
coedge $-1 $323 $322 $236 $292 reversed $225 $-1 #
edge $-1 $293 -6.4326615828171416 $337 -0.80660405454064987 $236 $338 forward 7 unknown #
vertex $-1 $237 $339 #
straight-curve $-1 -51.0635700552385 0 -10.052294401496038 0 1 0 I I #
coedge $-1 $340 $321 $242 $296 reversed $276 $-1 #
edge $-1 $299 -10.052294401496038 $327 4.4262368732195458 $242 $341 forward 7 unknown #
coedge $-1 $243 $331 $340 $342 forward $298 $-1 #
loop $-1 $-1 $243 $319 #
vertex $-1 $244 $343 #
straight-curve $-1 51.0635700552385 0 10.052294401496038 0 1 0 I I #
point $-1 51.0635700552385 33.783272716009463 10.052294401496038 #
edge $-1 $328 0.80660405454064987 $303 6.4326615828171416 $247 $344 forward 7 unknown #
vertex $-1 $335 $345 #
straight-curve $-1 51.0635700552385 0 -10.052294401496038 0 -1 0 I I #
coedge $-1 $258 $257 $263 $314 forward $140 $-1 #
coedge $-1 $268 $346 $257 $307 reversed $255 $-1 #
edge $-1 $272 -51.0635700552385 $347 51.0635700552385 $306 $348 forward 7 unknown #
coedge $-1 $346 $268 $259 $309 reversed $255 $-1 #
edge $-1 $311 -51.0635700552385 $270 51.0635700552385 $308 $349 forward 7 unknown #
coedge $-1 $260 $263 $346 $350 forward $202 $-1 #
vertex $-1 $309 $351 #
straight-curve $-1 -51.0635700552385 0 -10.052294401496038 0 1 0 I I #
straight-curve $-1 0 -33.783272716009463 10.052294401496038 1 0 0 I I #
edge $-1 $347 -33.783272716009463 $264 33.783272716009463 $263 $352 forward 7 unknown #
point $-1 -51.0635700552385 -33.783272716009463 10.052294401496038 #
straight-curve $-1 51.0635700552385 33.783272716009463 0 0 0 -1 I I #
point $-1 51.0635700552385 33.783272716009463 -10.052294401496038 #
point $-1 51.0635700552385 33.783272716009463 10.052294401496038 #
face $-1 $182 $298 $11 $-1 $353 forward single #
plane-surface $-1 0 0 -10.052294401496038 0 0 1 1 0 0 forward_v I I I I #
coedge $-1 $295 $354 $279 $325 forward $276 $-1 #
coedge $-1 $291 $278 $280 $326 forward $225 $-1 #
coedge $-1 $278 $291 $288 $335 reversed $225 $-1 #
coedge $-1 $280 $279 $290 $336 reversed $162 $-1 #
edge $-1 $355 -51.0635700552385 $327 51.0635700552385 $321 $356 forward 7 unknown #
edge $-1 $328 -51.0635700552385 $337 51.0635700552385 $322 $357 forward 7 unknown #
vertex $-1 $325 $358 #
vertex $-1 $282 $359 #
straight-curve $-1 51.0635700552385 -15.207445251437605 -4.4262368732195458 0 1 0 I I #
coedge $-1 $283 $290 $354 $360 reversed $96 $-1 #
coedge $-1 $297 $284 $283 $332 forward $298 $-1 #
edge $-1 $286 -33.783272716009463 $361 33.783272716009463 $283 $362 forward 7 unknown #
straight-curve $-1 0 33.783272716009463 10.052294401496038 -1 0 0 I I #
point $-1 -51.0635700552385 33.783272716009463 10.052294401496038 #
edge $-1 $303 -51.0635700552385 $293 51.0635700552385 $288 $363 forward 7 unknown #
edge $-1 $337 11.839063038303351 $355 18.575827464571859 $290 $364 forward 7 unknown #
vertex $-1 $336 $365 #
straight-curve $-1 -51.0635700552385 -27.046508289740956 -3.619632818678896 0 0 1 I I #
point $-1 -51.0635700552385 -27.046508289740956 -10.052294401496038 #
coedge $-1 $354 $295 $297 $342 reversed $276 $-1 #
straight-curve $-1 51.0635700552385 -33.783272716009463 0 0 0 -1 I I #
edge $-1 $361 -51.0635700552385 $299 51.0635700552385 $340 $366 forward 7 unknown #
point $-1 51.0635700552385 -33.783272716009463 10.052294401496038 #
straight-curve $-1 51.0635700552385 -27.046508289740956 -3.619632818678896 0 0 -1 I I #
point $-1 51.0635700552385 -27.046508289740956 -10.052294401496038 #
coedge $-1 $306 $308 $310 $350 reversed $255 $-1 #
vertex $-1 $307 $367 #
straight-curve $-1 0 33.783272716009463 10.052294401496038 -1 0 0 I I #
straight-curve $-1 0 33.783272716009463 -10.052294401496038 1 0 0 I I #
edge $-1 $347 -10.052294401496038 $311 10.052294401496038 $346 $368 forward 7 unknown #
point $-1 -51.0635700552385 33.783272716009463 -10.052294401496038 #
straight-curve $-1 -51.0635700552385 0 10.052294401496038 0 -1 0 I I #
plane-surface $-1 0 0 10.052294401496038 0 0 1 1 0 0 forward_v I I I I #
coedge $-1 $321 $340 $330 $360 forward $276 $-1 #
vertex $-1 $325 $369 #
straight-curve $-1 0 -33.783272716009463 -4.4262368732195458 1 0 0 I I #
straight-curve $-1 0 -27.046508289740956 -4.4262368732195458 -1 0 0 I I #
point $-1 51.0635700552385 -33.783272716009463 -4.4262368732195458 #
point $-1 51.0635700552385 -27.046508289740956 -4.4262368732195458 #
edge $-1 $361 -10.052294401496038 $355 4.4262368732195458 $330 $370 forward 7 unknown #
vertex $-1 $332 $371 #
straight-curve $-1 -51.0635700552385 0 10.052294401496038 0 -1 0 I I #
straight-curve $-1 0 -27.046508289740956 -10.052294401496038 -1 0 0 I I #
straight-curve $-1 -51.0635700552385 -15.207445251437605 -4.4262368732195458 0 -1 0 I I #
point $-1 -51.0635700552385 -27.046508289740956 -4.4262368732195458 #
straight-curve $-1 0 -33.783272716009463 10.052294401496038 1 0 0 I I #
point $-1 -51.0635700552385 33.783272716009463 10.052294401496038 #
straight-curve $-1 -51.0635700552385 33.783272716009463 0 0 0 -1 I I #
point $-1 -51.0635700552385 -33.783272716009463 -4.4262368732195458 #
straight-curve $-1 -51.0635700552385 -33.783272716009463 0 0 0 -1 I I #
point $-1 -51.0635700552385 -33.783272716009463 10.052294401496038 #
End-of-ACIS-data 