500 0 7 0           
7 Unknown 11 ACIS 5.0 NT 24 Thu Mar 25 17:38:41 1999 
-1 9.9999999999999995e-007 1e-010 
body $-1 $7 $-1 $8 #
body $-1 $9 $-1 $10 #
body $-1 $11 $-1 $12 #
body $-1 $13 $-1 $14 #
body $-1 $15 $-1 $16 #
body $-1 $17 $-1 $18 #
body $-1 $19 $-1 $20 #
lump $-1 $-1 $21 $0 #
transform $-1 1 0 0 0 1 0 0 0 1 53.248695333719901 26.807005626255382 12.223215724990277 1 rotate no_reflect no_shear #
lump $-1 $-1 $22 $1 #
transform $-1 1 0 0 0 1 0 0 0 1 53.248695333719901 26.807005626255382 12.223215724990277 1 rotate no_reflect no_shear #
lump $-1 $-1 $23 $2 #
transform $-1 1 0 0 0 1 0 0 0 1 53.248695333719901 26.807005626255382 12.223215724990277 1 rotate no_reflect no_shear #
lump $-1 $-1 $24 $3 #
transform $-1 1 0 0 0 1 0 0 0 1 53.248695333719901 26.807005626255382 12.223215724990277 1 rotate no_reflect no_shear #
lump $-1 $-1 $25 $4 #
transform $-1 1 0 0 0 1 0 0 0 1 53.248695333719901 26.807005626255382 12.223215724990277 1 rotate no_reflect no_shear #
lump $-1 $-1 $26 $5 #
transform $-1 1 0 0 0 1 0 0 0 1 53.248695333719901 26.807005626255382 12.223215724990277 1 rotate no_reflect no_shear #
lump $-1 $-1 $27 $6 #
transform $-1 1 0 0 0 1 0 0 0 1 53.248695333719901 26.807005626255382 12.223215724990277 1 rotate no_reflect no_shear #
shell $-1 $-1 $-1 $28 $-1 $7 #
shell $-1 $-1 $-1 $29 $-1 $9 #
shell $-1 $-1 $-1 $30 $-1 $11 #
shell $-1 $-1 $-1 $31 $-1 $13 #
shell $-1 $-1 $-1 $32 $-1 $15 #
shell $-1 $-1 $-1 $33 $-1 $17 #
shell $-1 $-1 $-1 $34 $-1 $19 #
face $-1 $35 $36 $21 $-1 $37 forward single #
face $-1 $38 $39 $22 $-1 $40 forward single #
face $-1 $41 $42 $23 $-1 $43 forward single #
face $-1 $44 $45 $24 $-1 $46 reversed single #
face $-1 $47 $48 $25 $-1 $49 forward single #
face $-1 $50 $51 $26 $-1 $52 reversed single #
face $-1 $53 $54 $27 $-1 $55 forward single #
face $-1 $56 $57 $21 $-1 $58 reversed single #
loop $-1 $-1 $59 $28 #
plane-surface $-1 0 0 12.223215724990277 0 0 1 1 0 0 forward_v I I I I #
face $-1 $60 $61 $22 $-1 $62 reversed single #
loop $-1 $-1 $63 $29 #
plane-surface $-1 0 -26.807005626255382 0 0 1 0 0 0 1 forward_v I I I I #
face $-1 $64 $65 $23 $-1 $66 reversed single #
loop $-1 $-1 $67 $30 #
plane-surface $-1 0 26.807005626255382 0 0 -1 0 0 0 -1 forward_v I I I I #
face $-1 $68 $69 $24 $-1 $70 reversed single #
loop $-1 $-1 $71 $31 #
plane-surface $-1 -118.81503681260338 8.0566616897318468 87.505439429258772 0 1 0 -0.61566148304635926 0 0.78801074757464917 forward_v I I I I #
face $-1 $72 $73 $25 $-1 $74 forward single #
loop $-1 $75 $76 $32 #
cone-surface $-1 -46.989010177828348 13.015081138416427 6.9680641857359342 0.61566148304635926 0 -0.78801074757464917 0.78801074757464917 0 0.61566148304635926 1 I I 0 1 1 forward I I I I #
face $-1 $77 $78 $26 $-1 $79 reversed single #
loop $-1 $-1 $80 $33 #
plane-surface $-1 34.893948378004687 17.973500587101007 153.07178090814227 0 -1 0 -0.61566148304635926 0 -0.78801074757464917 forward_v I I I I #
face $-1 $81 $82 $27 $-1 $83 forward single #
loop $-1 $84 $85 $34 #
cone-surface $-1 46.989010177828348 13.015081138416427 6.9680641857359271 -0.61566148304635926 0 -0.78801074757464917 0.78801074757464917 0 -0.61566148304635926 1 I I 0 1 1 forward I I I I #
face $-1 $86 $87 $21 $-1 $88 reversed single #
loop $-1 $-1 $89 $35 #
plane-surface $-1 0 0 -12.223215724990277 0 0 1 1 0 0 forward_v I I I I #
coedge $-1 $90 $91 $92 $93 forward $36 $-1 #
face $-1 $94 $95 $22 $-1 $96 forward single #
loop $-1 $-1 $97 $38 #
plane-surface $-1 -53.248695333719901 0 0 1 0 0 0 0 -1 forward_v I I I I #
coedge $-1 $98 $99 $100 $101 forward $39 $-1 #
face $-1 $102 $103 $23 $-1 $104 forward single #
loop $-1 $-1 $105 $41 #
plane-surface $-1 53.248695333719901 0 0 -1 0 0 0 0 1 forward_v I I I I #
coedge $-1 $106 $107 $108 $109 forward $42 $-1 #
face $-1 $110 $111 $24 $-1 $112 reversed single #
loop $-1 $-1 $113 $44 #
plane-surface $-1 -53.248695333719894 13.015081138416427 3.5843509946600705 -0.61566148304635926 0 0.78801074757464917 0.78801074757464917 0 0.61566148304635926 forward_v I I I I #
coedge $-1 $114 $115 $116 $117 reversed $45 $-1 #
face $-1 $-1 $118 $25 $-1 $119 forward single #
loop $-1 $120 $121 $47 #
cone-surface $-1 -45.95011548037845 13.015081138416427 5.6383396378593726 0.61566148304635926 0 -0.78801074757464917 0.39400537378732459 0 0.30783074152317963 1 I I -0.70710678118654746 0.70710678118654746 0.5 forward I I I I #
loop $-1 $-1 $122 $32 #
coedge $-1 $76 $76 $123 $124 reversed $48 $-1 #
face $-1 $125 $126 $26 $-1 $127 reversed single #
loop $-1 $-1 $128 $50 #
plane-surface $-1 -30.6723931008788 13.015081138416427 69.150692473543572 0.61566148304635926 0 0.78801074757464917 0.78801074757464917 0 -0.61566148304635926 forward_v I I I I #
coedge $-1 $129 $130 $131 $132 reversed $51 $-1 #
face $-1 $-1 $133 $27 $-1 $134 forward single #
loop $-1 $135 $136 $53 #
cone-surface $-1 45.95011548037845 13.015081138416427 5.6383396378593655 -0.61566148304635926 0 -0.78801074757464917 0.39400537378732459 0 -0.30783074152317963 1 I I -0.70710678118654746 0.70710678118654746 0.5 forward I I I I #
loop $-1 $-1 $137 $34 #
coedge $-1 $85 $85 $138 $139 reversed $54 $-1 #
face $-1 $140 $141 $21 $-1 $142 reversed single #
loop $-1 $-1 $143 $56 #
plane-surface $-1 0 -26.807005626255382 0 0 1 0 0 0 1 forward_v I I I I #
coedge $-1 $144 $145 $146 $147 forward $57 $-1 #
coedge $-1 $148 $59 $149 $150 forward $36 $-1 #
coedge $-1 $59 $148 $151 $152 forward $36 $-1 #
coedge $-1 $153 $154 $59 $93 reversed $155 $-1 #
edge $-1 $156 -26.807005626255382 $157 26.807005626255382 $92 $158 forward 7 unknown #
face $-1 $159 $160 $22 $-1 $161 reversed single #
loop $-1 $-1 $162 $60 #
plane-surface $-1 0 -31.223758145832569 5.1069893884215878 0 0 1 1 0 0 forward_v I I I I #
coedge $-1 $163 $164 $99 $165 forward $61 $-1 #
coedge $-1 $166 $63 $167 $168 reversed $39 $-1 #
coedge $-1 $63 $166 $97 $165 reversed $39 $-1 #
coedge $-1 $169 $162 $63 $101 reversed $95 $-1 #
edge $-1 $170 -53.248695333719901 $171 53.248695333719901 $100 $172 forward 7 unknown #
face $-1 $173 $174 $23 $-1 $175 reversed single #
loop $-1 $-1 $176 $64 #
plane-surface $-1 0 31.223758145832569 5.1069893884215878 0 0 1 1 0 0 forward_v I I I I #
coedge $-1 $177 $178 $107 $179 forward $65 $-1 #
coedge $-1 $180 $67 $181 $182 reversed $42 $-1 #
coedge $-1 $67 $180 $105 $179 reversed $42 $-1 #
coedge $-1 $176 $183 $67 $109 reversed $103 $-1 #
edge $-1 $184 -53.248695333719901 $185 53.248695333719901 $108 $186 forward 7 unknown #
face $-1 $187 $188 $24 $-1 $189 reversed single #
loop $-1 $-1 $190 $68 #
plane-surface $-1 -118.81503681260338 17.973500587101007 87.505439429258772 0 -1 0 0.61566148304635926 0 -0.78801074757464917 forward_v I I I I #
coedge $-1 $191 $192 $193 $194 reversed $69 $-1 #
coedge $-1 $115 $71 $195 $196 reversed $45 $-1 #
coedge $-1 $71 $114 $191 $197 reversed $45 $-1 #
coedge $-1 $193 $198 $71 $117 forward $199 $-1 #
edge $-1 $200 6.1588230725817894 $201 17.216065472511453 $116 $202 forward 7 unknown #
loop $-1 $-1 $123 $72 #
plane-surface $-1 -53.248695333719894 13.015081138416427 3.5843509946600705 -0.61566148304635926 0 0.78801074757464917 0.78801074757464917 0 0.61566148304635926 forward_v I I I I #
loop $-1 $-1 $203 $47 #
coedge $-1 $121 $121 $122 $204 reversed $73 $-1 #
coedge $-1 $122 $122 $121 $204 forward $75 $-1 #
coedge $-1 $123 $123 $76 $124 forward $118 $-1 #
edge $-1 $205 0 $205 6.2831853071796004 $123 $206 forward 7 unknown #
face $-1 $207 $208 $26 $-1 $209 forward single #
loop $-1 $-1 $210 $77 #
plane-surface $-1 34.893948378004687 8.0566616897318468 153.07178090814227 0 1 0 0.61566148304635926 0 0.78801074757464917 forward_v I I I I #
coedge $-1 $211 $212 $213 $214 reversed $78 $-1 #
coedge $-1 $130 $80 $215 $216 reversed $51 $-1 #
coedge $-1 $80 $129 $211 $217 reversed $51 $-1 #
coedge $-1 $213 $218 $80 $132 forward $208 $-1 #
edge $-1 $219 -35.801721144717561 $220 -24.744478744787923 $131 $221 forward 7 unknown #
loop $-1 $-1 $138 $81 #
plane-surface $-1 -30.6723931008788 13.015081138416427 69.150692473543572 0.61566148304635926 0 0.78801074757464917 0.78801074757464917 0 -0.61566148304635926 forward_v I I I I #
loop $-1 $-1 $222 $53 #
coedge $-1 $136 $136 $137 $223 reversed $82 $-1 #
coedge $-1 $137 $137 $136 $223 forward $84 $-1 #
coedge $-1 $138 $138 $85 $139 forward $133 $-1 #
edge $-1 $224 0 $224 6.2831853071796004 $138 $225 forward 7 unknown #
face $-1 $226 $227 $21 $-1 $228 reversed single #
loop $-1 $-1 $229 $86 #
plane-surface $-1 -53.248695333719901 0 0 1 0 0 0 0 -1 forward_v I I I I #
coedge $-1 $230 $151 $231 $232 forward $87 $-1 #
coedge $-1 $233 $89 $230 $234 forward $57 $-1 #
coedge $-1 $89 $233 $235 $236 forward $57 $-1 #
coedge $-1 $154 $153 $89 $147 reversed $155 $-1 #
edge $-1 $237 -26.807005626255382 $238 26.807005626255382 $146 $239 forward 7 unknown #
coedge $-1 $91 $90 $240 $241 forward $36 $-1 #
coedge $-1 $242 $243 $90 $150 reversed $227 $-1 #
edge $-1 $157 -53.248695333719901 $244 53.248695333719901 $149 $245 forward 7 unknown #
coedge $-1 $143 $246 $91 $152 reversed $87 $-1 #
edge $-1 $247 -53.248695333719901 $156 53.248695333719901 $151 $248 forward 7 unknown #
coedge $-1 $146 $92 $246 $249 forward $155 $-1 #
coedge $-1 $92 $146 $242 $250 reversed $155 $-1 #
loop $-1 $-1 $153 $226 #
vertex $-1 $93 $251 #
vertex $-1 $93 $252 #
straight-curve $-1 53.248695333719901 0 12.223215724990277 0 1 0 I I #
face $-1 $253 $254 $22 $-1 $255 reversed single #
loop $-1 $-1 $256 $94 #
plane-surface $-1 0 -31.223758145832569 -0.61334277065418785 0 0 1 1 0 0 forward_v I I I I #
coedge $-1 $100 $257 $258 $259 forward $95 $-1 #
coedge $-1 $260 $97 $261 $262 reversed $61 $-1 #
coedge $-1 $97 $260 $169 $263 reversed $61 $-1 #
edge $-1 $170 -5.1069893884215878 $264 0.61334277065418785 $97 $265 forward 7 unknown #
coedge $-1 $99 $98 $266 $267 forward $39 $-1 #
coedge $-1 $258 $268 $98 $168 forward $269 $-1 #
edge $-1 $270 -0.61334277065418785 $171 5.1069893884215878 $167 $271 forward 7 unknown #
coedge $-1 $257 $100 $164 $263 forward $95 $-1 #
vertex $-1 $165 $272 #
vertex $-1 $259 $273 #
straight-curve $-1 0 -26.807005626255382 5.1069893884215878 1 0 0 I I #
face $-1 $274 $275 $23 $-1 $276 reversed single #
loop $-1 $-1 $277 $102 #
plane-surface $-1 0 31.223758145832569 -0.61334277065418785 0 0 1 1 0 0 forward_v I I I I #
coedge $-1 $278 $108 $178 $279 forward $103 $-1 #
coedge $-1 $280 $105 $277 $281 reversed $65 $-1 #
coedge $-1 $105 $280 $176 $279 reversed $65 $-1 #
edge $-1 $184 -5.1069893884215878 $282 0.61334277065418785 $105 $283 forward 7 unknown #
coedge $-1 $107 $106 $284 $285 forward $42 $-1 #
coedge $-1 $286 $287 $106 $182 forward $288 $-1 #
edge $-1 $289 -0.61334277065418785 $185 5.1069893884215878 $181 $290 forward 7 unknown #
coedge $-1 $108 $278 $286 $291 forward $103 $-1 #
vertex $-1 $179 $292 #
vertex $-1 $291 $293 #
straight-curve $-1 0 26.807005626255382 5.1069893884215878 -1 0 0 I I #
face $-1 $-1 $199 $24 $-1 $294 forward single #
loop $-1 $-1 $295 $110 #
plane-surface $-1 -53.248695333719901 0 0 1 0 0 0 0 -1 forward_v I I I I #
coedge $-1 $296 $297 $298 $299 reversed $111 $-1 #
coedge $-1 $300 $113 $115 $197 forward $69 $-1 #
coedge $-1 $113 $300 $296 $301 forward $69 $-1 #
coedge $-1 $298 $116 $113 $194 forward $199 $-1 #
edge $-1 $201 1.5491211205236333 $302 11.465960017892794 $193 $303 forward 7 unknown #
coedge $-1 $304 $305 $114 $196 forward $188 $-1 #
edge $-1 $306 -40.168368719969322 $200 -31.52950398963911 $195 $307 forward 7 unknown #
edge $-1 $201 -14.031842121394657 $306 9.1534652039358102e-015 $115 $308 forward 7 unknown #
coedge $-1 $116 $298 $304 $309 forward $199 $-1 #
loop $-1 $-1 $298 $187 #
vertex $-1 $196 $310 #
vertex $-1 $117 $311 #
straight-curve $-1 -59.407518406301691 8.0566616897318468 12.223215724990276 1 0 0 I I #
coedge $-1 $203 $203 $-1 $312 reversed $120 $-1 #
edge $-1 $313 0 $313 6.2831853071796004 $121 $314 forward 7 unknown #
vertex $-1 $124 $315 #
ellipse-curve $-1 -47.72007413375507 13.015081138416427 7.903783359825173 -0.61566148304635926 0 0.78801074757464917 0.78801074757464917 0 0.61566148304635926 1 I I #
face $-1 $-1 $316 $26 $-1 $317 reversed single #
loop $-1 $-1 $131 $125 #
plane-surface $-1 0 0 12.223215724990277 0 0 1 1 0 0 forward_v I I I I #
coedge $-1 $318 $319 $320 $321 reversed $126 $-1 #
coedge $-1 $322 $128 $130 $217 forward $78 $-1 #
coedge $-1 $128 $322 $318 $323 forward $78 $-1 #
coedge $-1 $320 $131 $128 $214 forward $208 $-1 #
edge $-1 $220 -11.465960017892794 $324 -1.5491211205236333 $213 $325 forward 7 unknown #
coedge $-1 $326 $327 $129 $216 forward $316 $-1 #
edge $-1 $328 -72.951539459411052 $219 -64.312674729080854 $215 $329 forward 7 unknown #
edge $-1 $220 92.46554854604517 $328 106.4973906674398 $130 $330 forward 7 unknown #
coedge $-1 $131 $320 $326 $331 forward $208 $-1 #
vertex $-1 $216 $332 #
vertex $-1 $132 $333 #
straight-curve $-1 17.446974189002344 17.973500587101007 12.223215724990283 -1 0 0 I I #
coedge $-1 $222 $222 $-1 $334 reversed $135 $-1 #
edge $-1 $335 0 $335 6.2831853071796004 $136 $336 forward 7 unknown #
vertex $-1 $139 $337 #
ellipse-curve $-1 47.720074133755084 13.015081138416427 7.9037833598251819 0.61566148304635926 0 0.78801074757464917 0.78801074757464917 0 -0.61566148304635926 1 I I #
face $-1 $-1 $155 $21 $-1 $338 reversed single #
loop $-1 $-1 $242 $140 #
plane-surface $-1 0 26.807005626255382 0 0 -1 0 0 0 -1 forward_v I I I I #
coedge $-1 $339 $240 $243 $340 forward $141 $-1 #
coedge $-1 $246 $143 $144 $234 reversed $87 $-1 #
coedge $-1 $240 $339 $143 $232 reversed $141 $-1 #
edge $-1 $247 -12.223215724990277 $341 12.223215724990277 $231 $342 forward 7 unknown #
coedge $-1 $145 $144 $339 $343 forward $57 $-1 #
edge $-1 $238 -53.248695333719901 $341 53.248695333719901 $230 $344 forward 7 unknown #
coedge $-1 $243 $242 $145 $236 reversed $227 $-1 #
edge $-1 $345 -53.248695333719901 $237 53.248695333719901 $235 $346 forward 7 unknown #
vertex $-1 $147 $347 #
vertex $-1 $249 $348 #
straight-curve $-1 53.248695333719901 0 -12.223215724990277 0 -1 0 I I #
coedge $-1 $229 $231 $148 $241 reversed $141 $-1 #
edge $-1 $244 -26.807005626255382 $247 26.807005626255382 $240 $349 forward 7 unknown #
coedge $-1 $235 $149 $154 $250 forward $227 $-1 #
coedge $-1 $149 $235 $229 $340 reversed $227 $-1 #
vertex $-1 $150 $350 #
straight-curve $-1 0 26.807005626255382 12.223215724990277 -1 0 0 I I #
coedge $-1 $151 $230 $153 $249 reversed $87 $-1 #
vertex $-1 $241 $351 #
straight-curve $-1 0 -26.807005626255382 12.223215724990277 1 0 0 I I #
edge $-1 $156 -12.223215724990277 $238 12.223215724990277 $153 $352 forward 7 unknown #
edge $-1 $157 -12.223215724990277 $237 12.223215724990277 $154 $353 forward 7 unknown #
point $-1 53.248695333719901 -26.807005626255382 12.223215724990277 #
point $-1 53.248695333719901 26.807005626255382 12.223215724990277 #
face $-1 $-1 $269 $22 $-1 $354 reversed single #
loop $-1 $-1 $355 $159 #
plane-surface $-1 0 -35.640510665409757 2.2468233088837 0 1 0 0 0 1 forward_v I I I I #
coedge $-1 $356 $266 $268 $357 forward $160 $-1 #
coedge $-1 $162 $169 $358 $359 forward $95 $-1 #
coedge $-1 $360 $167 $162 $259 reversed $269 $-1 #
edge $-1 $361 -4.4167525195771873 $171 4.4167525195771873 $258 $362 forward 7 unknown #
coedge $-1 $164 $163 $355 $363 reversed $61 $-1 #
coedge $-1 $266 $356 $163 $262 forward $160 $-1 #
edge $-1 $364 -4.4167525195771873 $264 4.4167525195771873 $163 $365 forward 7 unknown #
edge $-1 $170 -4.4167525195771873 $366 4.4167525195771873 $164 $367 forward 7 unknown #
vertex $-1 $165 $368 #
straight-curve $-1 -53.248695333719901 -26.807005626255382 0 0 0 -1 I I #
coedge $-1 $256 $261 $166 $267 reversed $160 $-1 #
edge $-1 $270 -53.248695333719901 $264 53.248695333719901 $266 $369 forward 7 unknown #
coedge $-1 $167 $360 $256 $357 reversed $269 $-1 #
loop $-1 $-1 $167 $253 #
vertex $-1 $168 $370 #
straight-curve $-1 53.248695333719901 -26.807005626255382 0 0 0 1 I I #
point $-1 -53.248695333719901 -26.807005626255382 5.1069893884215878 #
point $-1 53.248695333719901 -26.807005626255382 5.1069893884215878 #
face $-1 $-1 $288 $23 $-1 $371 reversed single #
loop $-1 $-1 $372 $173 #
plane-surface $-1 0 35.640510665409757 2.2468233088837 0 -1 0 0 0 -1 forward_v I I I I #
coedge $-1 $284 $373 $177 $281 forward $174 $-1 #
coedge $-1 $183 $176 $374 $375 forward $103 $-1 #
edge $-1 $184 -4.4167525195771873 $376 4.4167525195771873 $178 $377 forward 7 unknown #
coedge $-1 $178 $177 $372 $378 reversed $65 $-1 #
edge $-1 $379 -4.4167525195771873 $282 4.4167525195771873 $177 $380 forward 7 unknown #
vertex $-1 $179 $381 #
straight-curve $-1 53.248695333719901 26.807005626255382 0 0 0 -1 I I #
coedge $-1 $382 $277 $180 $285 reversed $174 $-1 #
edge $-1 $289 -53.248695333719901 $282 53.248695333719901 $284 $383 forward 7 unknown #
coedge $-1 $384 $181 $183 $291 reversed $288 $-1 #
coedge $-1 $181 $384 $382 $385 reversed $288 $-1 #
loop $-1 $-1 $181 $274 #
vertex $-1 $182 $386 #
straight-curve $-1 -53.248695333719901 26.807005626255382 0 0 0 1 I I #
edge $-1 $387 -4.4167525195771873 $185 4.4167525195771873 $286 $388 forward 7 unknown #
point $-1 53.248695333719901 26.807005626255382 5.1069893884215878 #
point $-1 -53.248695333719901 26.807005626255382 5.1069893884215878 #
plane-surface $-1 0 0 12.223215724990277 0 0 1 1 0 0 forward_v I I I I #
coedge $-1 $305 $304 $297 $389 forward $188 $-1 #
coedge $-1 $297 $190 $192 $301 reversed $111 $-1 #
coedge $-1 $190 $296 $295 $389 reversed $111 $-1 #
coedge $-1 $198 $193 $190 $299 forward $199 $-1 #
edge $-1 $302 -17.216065472511453 $390 -6.1588230725817894 $298 $391 forward 7 unknown #
coedge $-1 $192 $191 $305 $392 reversed $69 $-1 #
edge $-1 $393 -9.1534652039358102e-015 $302 14.031842121394657 $296 $394 forward 7 unknown #
vertex $-1 $194 $395 #
straight-curve $-1 -42.191452933790231 6.5075405692082136 12.223215724990277 0 1 0 I I #
coedge $-1 $295 $195 $198 $309 reversed $188 $-1 #
coedge $-1 $195 $295 $300 $392 forward $188 $-1 #
vertex $-1 $196 $396 #
straight-curve $-1 -53.248695333719901 8.0566616897318468 43.752719714629386 0 0 1 I I #
straight-curve $-1 -53.248695333719894 8.0566616897318468 3.5843509946600705 -0.78801074757464917 0 -0.61566148304635926 I I #
edge $-1 $390 -17.973500587101007 $200 -8.0566616897318468 $304 $397 forward 7 unknown #
point $-1 -53.248695333719901 8.0566616897318468 12.223215724990277 #
point $-1 -42.191452933790238 8.0566616897318468 12.223215724990277 #
edge $-1 $398 1 $398 0 $203 $-1 forward 7 unknown #
vertex $-1 $204 $399 #
ellipse-curve $-1 -46.257946221901626 13.015081138416427 6.0323450116466972 -0.61566148304635926 0 0.78801074757464917 0.78801074757464917 0 0.61566148304635926 1 I I #
point $-1 -46.932063386180417 13.015081138416427 8.519444842871529 #
loop $-1 $-1 $215 $207 #
plane-surface $-1 53.248695333719901 0 0 -1 0 0 0 0 1 forward_v I I I I #
coedge $-1 $319 $210 $212 $323 reversed $126 $-1 #
coedge $-1 $210 $318 $400 $401 reversed $126 $-1 #
coedge $-1 $218 $213 $210 $321 forward $208 $-1 #
edge $-1 $324 24.744478744787923 $402 35.801721144717561 $320 $403 forward 7 unknown #
coedge $-1 $212 $211 $327 $404 reversed $78 $-1 #
edge $-1 $405 -106.4973906674398 $324 -92.46554854604517 $318 $406 forward 7 unknown #
vertex $-1 $214 $407 #
straight-curve $-1 42.191452933790281 6.5075405692082136 12.223215724990268 0 -1 0 I I #
coedge $-1 $400 $215 $218 $331 reversed $316 $-1 #
coedge $-1 $215 $400 $322 $404 forward $316 $-1 #
vertex $-1 $216 $408 #
straight-curve $-1 53.248695333719901 17.973500587101007 76.535890454071136 0 0 1 I I #
straight-curve $-1 -30.6723931008788 17.973500587101007 69.150692473543572 0.78801074757464917 0 -0.61566148304635926 I I #
edge $-1 $402 8.0566616897318468 $219 17.973500587101007 $326 $409 forward 7 unknown #
point $-1 53.248695333719901 17.973500587101007 12.223215724990277 #
point $-1 42.191452933790266 17.973500587101007 12.223215724990276 #
edge $-1 $410 1 $410 0 $222 $-1 forward 7 unknown #
vertex $-1 $223 $411 #
ellipse-curve $-1 46.257946221901626 13.015081138416427 6.0323450116466901 0.61566148304635926 0 0.78801074757464917 0.78801074757464917 0 -0.61566148304635926 1 I I #
point $-1 48.508084881329715 13.015081138416427 7.2881218767788045 #
plane-surface $-1 53.248695333719901 0 0 -1 0 0 0 0 1 forward_v I I I I #
coedge $-1 $231 $229 $233 $343 reversed $141 $-1 #
edge $-1 $244 -12.223215724990277 $345 12.223215724990277 $243 $412 forward 7 unknown #
vertex $-1 $343 $413 #
straight-curve $-1 -53.248695333719901 -26.807005626255382 0 0 0 -1 I I #
edge $-1 $341 -26.807005626255382 $345 26.807005626255382 $339 $414 forward 7 unknown #
straight-curve $-1 0 -26.807005626255382 -12.223215724990277 -1 0 0 I I #
vertex $-1 $236 $415 #
straight-curve $-1 0 26.807005626255382 -12.223215724990277 1 0 0 I I #
point $-1 53.248695333719901 26.807005626255382 -12.223215724990277 #
point $-1 53.248695333719901 -26.807005626255382 -12.223215724990277 #
straight-curve $-1 -53.248695333719901 0 12.223215724990277 0 -1 0 I I #
point $-1 -53.248695333719901 26.807005626255382 12.223215724990277 #
point $-1 -53.248695333719901 -26.807005626255382 12.223215724990277 #
straight-curve $-1 53.248695333719901 -26.807005626255382 0 0 0 -1 I I #
straight-curve $-1 53.248695333719901 26.807005626255382 0 0 0 -1 I I #
plane-surface $-1 53.248695333719901 0 0 -1 0 0 0 0 1 forward_v I I I I #
coedge $-1 $416 $358 $260 $363 forward $254 $-1 #
coedge $-1 $261 $256 $416 $417 forward $160 $-1 #
edge $-1 $270 -4.4167525195771873 $418 4.4167525195771873 $268 $419 forward 7 unknown #
coedge $-1 $355 $420 $257 $359 reversed $254 $-1 #
edge $-1 $366 -53.248695333719901 $361 53.248695333719901 $358 $421 forward 7 unknown #
coedge $-1 $268 $258 $420 $422 forward $269 $-1 #
vertex $-1 $259 $423 #
straight-curve $-1 53.248695333719901 -31.223758145832569 5.1069893884215878 0 1 0 I I #
edge $-1 $366 -2.8601660795378878 $364 2.8601660795378878 $260 $424 forward 7 unknown #
vertex $-1 $262 $425 #
straight-curve $-1 -53.248695333719901 -31.223758145832569 -0.61334277065418785 0 1 0 I I #
vertex $-1 $263 $426 #
straight-curve $-1 -53.248695333719901 -31.223758145832569 5.1069893884215878 0 -1 0 I I #
point $-1 -53.248695333719901 -26.807005626255382 -0.61334277065418785 #
straight-curve $-1 0 -26.807005626255382 -0.61334277065418785 -1 0 0 I I #
point $-1 53.248695333719901 -26.807005626255382 -0.61334277065418785 #
plane-surface $-1 -53.248695333719901 0 0 1 0 0 0 0 -1 forward_v I I I I #
coedge $-1 $427 $374 $280 $378 forward $275 $-1 #
coedge $-1 $277 $382 $427 $428 forward $174 $-1 #
coedge $-1 $372 $429 $278 $375 reversed $275 $-1 #
edge $-1 $376 -53.248695333719901 $387 53.248695333719901 $374 $430 forward 7 unknown #
vertex $-1 $279 $431 #
straight-curve $-1 53.248695333719901 31.223758145832569 5.1069893884215878 0 1 0 I I #
edge $-1 $376 -2.8601660795378878 $379 2.8601660795378878 $280 $432 forward 7 unknown #
vertex $-1 $281 $433 #
straight-curve $-1 53.248695333719901 31.223758145832569 -0.61334277065418785 0 -1 0 I I #
point $-1 53.248695333719901 26.807005626255382 -0.61334277065418785 #
coedge $-1 $373 $284 $287 $385 forward $174 $-1 #
straight-curve $-1 0 26.807005626255382 -0.61334277065418785 1 0 0 I I #
coedge $-1 $287 $286 $429 $434 forward $288 $-1 #
edge $-1 $289 -4.4167525195771873 $435 4.4167525195771873 $287 $436 forward 7 unknown #
point $-1 -53.248695333719901 26.807005626255382 -0.61334277065418785 #
vertex $-1 $375 $437 #
straight-curve $-1 -53.248695333719901 31.223758145832569 5.1069893884215878 0 -1 0 I I #
edge $-1 $390 31.52950398963911 $393 40.168368719969322 $295 $438 forward 7 unknown #
vertex $-1 $309 $439 #
straight-curve $-1 -59.407518406301691 17.973500587101007 12.223215724990276 -1 0 0 I I #
edge $-1 $393 -11.465960017892794 $306 -1.5491211205236333 $305 $440 forward 7 unknown #
vertex $-1 $392 $441 #
straight-curve $-1 -53.248695333719894 17.973500587101007 3.5843509946600705 0.78801074757464917 0 0.61566148304635926 I I #
point $-1 -42.191452933790238 17.973500587101007 12.223215724990277 #
point $-1 -53.248695333719901 8.0566616897318468 3.5843509946600647 #
straight-curve $-1 -53.248695333719901 0 12.223215724990277 0 -1 0 I I #
vertex $-1 $312 $442 #
point $-1 -45.469935474326981 13.015081138416427 6.6480064946930568 #
coedge $-1 $327 $326 $319 $401 forward $316 $-1 #
edge $-1 $402 64.312674729080854 $405 72.951539459411052 $400 $443 forward 7 unknown #
vertex $-1 $331 $444 #
straight-curve $-1 17.446974189002344 8.0566616897318468 12.223215724990283 1 0 0 I I #
edge $-1 $405 1.5491211205236333 $328 11.465960017892794 $327 $445 forward 7 unknown #
vertex $-1 $404 $446 #
straight-curve $-1 -30.6723931008788 8.0566616897318468 69.150692473543572 -0.78801074757464917 0 0.61566148304635926 I I #
point $-1 42.191452933790266 8.0566616897318468 12.223215724990276 #
point $-1 53.248695333719901 17.973500587101007 3.5843509946600847 #
straight-curve $-1 53.248695333719901 0 12.223215724990277 0 1 0 I I #
vertex $-1 $334 $447 #
point $-1 47.045956969476279 13.015081138416427 5.4166835286003305 #
straight-curve $-1 -53.248695333719901 26.807005626255382 0 0 0 -1 I I #
point $-1 -53.248695333719901 -26.807005626255382 -12.223215724990277 #
straight-curve $-1 -53.248695333719901 0 -12.223215724990277 0 1 0 I I #
point $-1 -53.248695333719901 26.807005626255382 -12.223215724990277 #
coedge $-1 $420 $355 $356 $417 reversed $254 $-1 #
edge $-1 $418 -53.248695333719901 $364 53.248695333719901 $416 $448 forward 7 unknown #
vertex $-1 $422 $449 #
straight-curve $-1 53.248695333719901 -31.223758145832569 -0.61334277065418785 0 -1 0 I I #
coedge $-1 $358 $416 $360 $422 reversed $254 $-1 #
straight-curve $-1 0 -35.640510665409757 5.1069893884215878 1 0 0 I I #
edge $-1 $361 -2.8601660795378878 $418 2.8601660795378878 $360 $450 forward 7 unknown #
point $-1 53.248695333719901 -35.640510665409757 5.1069893884215878 #
straight-curve $-1 -53.248695333719901 -35.640510665409757 2.2468233088837 0 0 -1 I I #
point $-1 -53.248695333719901 -35.640510665409757 -0.61334277065418785 #
point $-1 -53.248695333719901 -35.640510665409757 5.1069893884215878 #
coedge $-1 $429 $372 $373 $428 reversed $275 $-1 #
edge $-1 $435 -53.248695333719901 $379 53.248695333719901 $427 $451 forward 7 unknown #
coedge $-1 $374 $427 $384 $434 reversed $275 $-1 #
straight-curve $-1 0 35.640510665409757 5.1069893884215878 -1 0 0 I I #
point $-1 53.248695333719901 35.640510665409757 5.1069893884215878 #
straight-curve $-1 53.248695333719901 35.640510665409757 2.2468233088837 0 0 -1 I I #
point $-1 53.248695333719901 35.640510665409757 -0.61334277065418785 #
edge $-1 $387 -2.8601660795378878 $435 2.8601660795378878 $429 $452 forward 7 unknown #
vertex $-1 $428 $453 #
straight-curve $-1 -53.248695333719901 31.223758145832569 -0.61334277065418785 0 1 0 I I #
point $-1 -53.248695333719901 35.640510665409757 5.1069893884215878 #
straight-curve $-1 -53.248695333719901 17.973500587101007 43.752719714629386 0 0 -1 I I #
point $-1 -53.248695333719901 17.973500587101007 12.223215724990277 #
straight-curve $-1 -53.248695333719901 6.5075405692082136 3.5843509946600607 0 -1 0 I I #
point $-1 -53.248695333719901 17.973500587101007 3.5843509946600647 #
point $-1 -45.642284738855274 13.015081138416427 5.2443342640720481 #
straight-curve $-1 53.248695333719901 8.0566616897318468 76.535890454071136 0 0 -1 I I #
point $-1 53.248695333719901 8.0566616897318468 12.223215724990277 #
straight-curve $-1 53.248695333719901 6.5075405692082136 3.5843509946600847 0 1 0 I I #
point $-1 53.248695333719901 8.0566616897318468 3.5843509946600847 #
point $-1 45.642284738855274 13.015081138416427 5.244334264072041 #
straight-curve $-1 0 -35.640510665409757 -0.61334277065418785 -1 0 0 I I #
point $-1 53.248695333719901 -35.640510665409757 -0.61334277065418785 #
straight-curve $-1 53.248695333719901 -35.640510665409757 2.2468233088837 0 0 -1 I I #
straight-curve $-1 0 35.640510665409757 -0.61334277065418785 1 0 0 I I #
straight-curve $-1 -53.248695333719901 35.640510665409757 2.2468233088837 0 0 -1 I I #
point $-1 -53.248695333719901 35.640510665409757 -0.61334277065418785 #
End-of-ACIS-data 