500 0 18 0           
7 Unknown 11 ACIS 5.0 NT 24 Thu Mar 25 17:46:15 1999 
-1 9.9999999999999995e-007 1e-010 
body $-1 $18 $-1 $19 #
body $-1 $20 $-1 $21 #
body $-1 $22 $-1 $23 #
body $-1 $24 $-1 $25 #
body $-1 $26 $-1 $27 #
body $-1 $28 $-1 $29 #
body $-1 $30 $-1 $31 #
body $-1 $32 $-1 $33 #
body $-1 $34 $-1 $35 #
body $-1 $36 $-1 $37 #
body $-1 $38 $-1 $39 #
body $-1 $40 $-1 $41 #
body $-1 $42 $-1 $43 #
body $-1 $44 $-1 $45 #
body $-1 $46 $-1 $47 #
body $-1 $48 $-1 $49 #
body $-1 $50 $-1 $51 #
body $-1 $52 $-1 $53 #
lump $-1 $-1 $54 $0 #
transform $-1 1 0 0 0 1 0 0 0 1 61.826837977233197 34.079763689370253 10.842246911716336 1 rotate no_reflect no_shear #
lump $-1 $-1 $55 $1 #
transform $-1 1 0 0 0 1 0 0 0 1 61.826837977233197 34.079763689370253 10.842246911716336 1 rotate no_reflect no_shear #
lump $-1 $-1 $56 $2 #
transform $-1 1 0 0 0 1 0 0 0 1 61.826837977233197 34.079763689370253 10.842246911716336 1 rotate no_reflect no_shear #
lump $-1 $-1 $57 $3 #
transform $-1 1 0 0 0 1 0 0 0 1 61.826837977233197 34.079763689370253 10.842246911716336 1 rotate no_reflect no_shear #
lump $-1 $-1 $58 $4 #
transform $-1 1 0 0 0 1 0 0 0 1 61.826837977233197 34.079763689370253 10.842246911716336 1 rotate no_reflect no_shear #
lump $-1 $-1 $59 $5 #
transform $-1 1 0 0 0 1 0 0 0 1 61.826837977233197 34.079763689370253 10.842246911716336 1 rotate no_reflect no_shear #
lump $-1 $-1 $60 $6 #
transform $-1 1 0 0 0 1 0 0 0 1 61.826837977233197 34.079763689370253 10.842246911716336 1 rotate no_reflect no_shear #
lump $-1 $-1 $61 $7 #
transform $-1 1 0 0 0 1 0 0 0 1 61.826837977233197 34.079763689370253 10.842246911716336 1 rotate no_reflect no_shear #
lump $-1 $-1 $62 $8 #
transform $-1 1 0 0 0 1 0 0 0 1 61.826837977233197 34.079763689370253 10.842246911716336 1 rotate no_reflect no_shear #
lump $-1 $-1 $63 $9 #
transform $-1 1 0 0 0 1 0 0 0 1 61.826837977233197 34.079763689370253 10.842246911716336 1 rotate no_reflect no_shear #
lump $-1 $-1 $64 $10 #
transform $-1 1 0 0 0 1 0 0 0 1 61.826837977233197 34.079763689370253 10.842246911716336 1 rotate no_reflect no_shear #
lump $-1 $-1 $65 $11 #
transform $-1 1 0 0 0 1 0 0 0 1 61.826837977233197 34.079763689370253 10.842246911716336 1 rotate no_reflect no_shear #
lump $-1 $-1 $66 $12 #
transform $-1 1 0 0 0 1 0 0 0 1 61.826837977233197 34.079763689370253 10.842246911716336 1 rotate no_reflect no_shear #
lump $-1 $-1 $67 $13 #
transform $-1 1 0 0 0 1 0 0 0 1 61.826837977233197 34.079763689370253 10.842246911716336 1 rotate no_reflect no_shear #
lump $-1 $-1 $68 $14 #
transform $-1 1 0 0 0 1 0 0 0 1 61.826837977233197 34.079763689370253 10.842246911716336 1 rotate no_reflect no_shear #
lump $-1 $-1 $69 $15 #
transform $-1 1 0 0 0 1 0 0 0 1 61.826837977233197 34.079763689370253 10.842246911716336 1 rotate no_reflect no_shear #
lump $-1 $-1 $70 $16 #
transform $-1 1 0 0 0 1 0 0 0 1 61.826837977233197 34.079763689370253 10.842246911716336 1 rotate no_reflect no_shear #
lump $-1 $-1 $71 $17 #
transform $-1 1 0 0 0 1 0 0 0 1 61.826837977233197 34.079763689370253 10.842246911716336 1 rotate no_reflect no_shear #
shell $-1 $-1 $-1 $72 $-1 $18 #
shell $-1 $-1 $-1 $73 $-1 $20 #
shell $-1 $-1 $-1 $74 $-1 $22 #
shell $-1 $-1 $-1 $75 $-1 $24 #
shell $-1 $-1 $-1 $76 $-1 $26 #
shell $-1 $-1 $-1 $77 $-1 $28 #
shell $-1 $-1 $-1 $78 $-1 $30 #
shell $-1 $-1 $-1 $79 $-1 $32 #
shell $-1 $-1 $-1 $80 $-1 $34 #
shell $-1 $-1 $-1 $81 $-1 $36 #
shell $-1 $-1 $-1 $82 $-1 $38 #
shell $-1 $-1 $-1 $83 $-1 $40 #
shell $-1 $-1 $-1 $84 $-1 $42 #
shell $-1 $-1 $-1 $85 $-1 $44 #
shell $-1 $-1 $-1 $86 $-1 $46 #
shell $-1 $-1 $-1 $87 $-1 $48 #
shell $-1 $-1 $-1 $88 $-1 $50 #
shell $-1 $-1 $-1 $89 $-1 $52 #
face $-1 $90 $91 $54 $-1 $92 forward single #
face $-1 $93 $94 $55 $-1 $95 forward single #
face $-1 $96 $97 $56 $-1 $98 reversed single #
face $-1 $99 $100 $57 $-1 $101 forward single #
face $-1 $102 $103 $58 $-1 $104 forward single #
face $-1 $105 $106 $59 $-1 $107 forward single #
face $-1 $108 $109 $60 $-1 $110 reversed single #
face $-1 $111 $112 $61 $-1 $113 forward single #
face $-1 $114 $115 $62 $-1 $116 forward single #
face $-1 $117 $118 $63 $-1 $119 reversed single #
face $-1 $120 $121 $64 $-1 $122 forward single #
face $-1 $123 $124 $65 $-1 $125 forward single #
face $-1 $126 $127 $66 $-1 $128 reversed single #
face $-1 $129 $130 $67 $-1 $131 forward single #
face $-1 $132 $133 $68 $-1 $134 forward single #
face $-1 $135 $136 $69 $-1 $137 reversed single #
face $-1 $138 $139 $70 $-1 $140 forward single #
face $-1 $141 $142 $71 $-1 $143 forward single #
face $-1 $144 $145 $54 $-1 $146 reversed single #
loop $-1 $-1 $147 $72 #
plane-surface $-1 0 0 10.842246911716336 0 0 1 1 0 0 forward_v I I I I #
face $-1 $148 $149 $55 $-1 $150 reversed single #
loop $-1 $-1 $151 $73 #
plane-surface $-1 -57.783404857433325 0 -2.6091849526381701 0 0 1 1 0 0 forward_v I I I I #
face $-1 $152 $153 $56 $-1 $154 reversed single #
loop $-1 $-1 $155 $74 #
plane-surface $-1 -29.088321904434153 96.276228111590399 131.86882098296425 1 0 0 0 -0.81915205242281985 -0.57357642473473569 forward_v I I I I #
face $-1 $156 $157 $57 $-1 $158 forward single #
loop $-1 $159 $160 $75 #
cone-surface $-1 -23.197719339366373 29.891608524513671 6.449026454073592 0 -0.81915205242281985 -0.57357642473473569 1.5 0 0 1 I I 0 1 1.5 forward I I I I #
face $-1 $161 $162 $58 $-1 $163 forward single #
loop $-1 $164 $165 $76 #
cone-surface $-1 -14.361815491764702 29.891608524513671 6.449026454073592 0 -0.81915205242281985 -0.57357642473473569 1.5 0 0 1 I I 0 1 1.5 forward I I I I #
face $-1 $166 $167 $59 $-1 $168 forward single #
loop $-1 $169 $170 $77 #
cone-surface $-1 -5.5259116441630312 29.891608524513671 6.449026454073592 0 -0.81915205242281985 -0.57357642473473569 1.5 0 0 1 I I 0 1 1.5 forward I I I I #
face $-1 $171 $172 $60 $-1 $173 reversed single #
loop $-1 $-1 $174 $78 #
plane-surface $-1 -24.848269308916784 -106.76157173571416 101.08596680346875 -1 0 0 0 -0.5877852598018023 0.80901698891910034 forward_v I I I I #
face $-1 $175 $176 $61 $-1 $177 forward single #
loop $-1 $178 $179 $79 #
cone-surface $-1 -38.912645603798779 -25.314265648805968 3.157675256006875 0 0.5877852598018023 -0.80901698891910034 2.5 0 0 1 I I 0 1 2.5 forward I I I I #
face $-1 $180 $181 $62 $-1 $182 forward single #
loop $-1 $183 $184 $80 #
cone-surface $-1 -30.474019826869586 -25.314265648805968 3.157675256006875 0 0.5877852598018023 -0.80901698891910034 2.5 0 0 1 I I 0 1 2.5 forward I I I I #
face $-1 $185 $186 $63 $-1 $187 reversed single #
loop $-1 $-1 $188 $81 #
plane-surface $-1 0.97624124783925481 -106.76157173571416 101.08596680346875 -1 0 0 0 -0.5877852598018023 0.80901698891910034 forward_v I I I I #
face $-1 $189 $190 $64 $-1 $191 forward single #
loop $-1 $192 $193 $82 #
cone-surface $-1 -13.088135047042741 -25.314265648805968 3.157675256006875 0 0.5877852598018023 -0.80901698891910034 2.5 0 0 1 I I 0 1 2.5 forward I I I I #
face $-1 $194 $195 $65 $-1 $196 forward single #
loop $-1 $197 $198 $83 #
cone-surface $-1 -4.6495092701135547 -25.314265648805968 3.157675256006875 0 0.5877852598018023 -0.80901698891910034 2.5 0 0 1 I I 0 1 2.5 forward I I I I #
face $-1 $199 $200 $66 $-1 $201 reversed single #
loop $-1 $-1 $202 $84 #
plane-surface $-1 26.800751804595293 -106.76157173571416 101.08596680346875 -1 0 0 0 -0.5877852598018023 0.80901698891910034 forward_v I I I I #
face $-1 $203 $204 $67 $-1 $205 forward single #
loop $-1 $206 $207 $85 #
cone-surface $-1 12.736375509713298 -25.314265648805968 3.157675256006875 0 0.5877852598018023 -0.80901698891910034 2.5 0 0 1 I I 0 1 2.5 forward I I I I #
face $-1 $208 $209 $68 $-1 $210 forward single #
loop $-1 $211 $212 $86 #
cone-surface $-1 21.175001286642484 -25.314265648805968 3.157675256006875 0 0.5877852598018023 -0.80901698891910034 2.5 0 0 1 I I 0 1 2.5 forward I I I I #
face $-1 $213 $214 $69 $-1 $215 reversed single #
loop $-1 $-1 $216 $87 #
plane-surface $-1 52.625262361351332 -106.76157173571416 101.08596680346875 -1 0 0 0 -0.5877852598018023 0.80901698891910034 forward_v I I I I #
face $-1 $217 $218 $70 $-1 $219 forward single #
loop $-1 $220 $221 $88 #
cone-surface $-1 38.560886066469337 -25.314265648805968 3.157675256006875 0 0.5877852598018023 -0.80901698891910034 2.5 0 0 1 I I 0 1 2.5 forward I I I I #
face $-1 $222 $223 $71 $-1 $224 forward single #
loop $-1 $225 $226 $89 #
cone-surface $-1 46.999511843398523 -25.314265648805968 3.157675256006875 0 0.5877852598018023 -0.80901698891910034 2.5 0 0 1 I I 0 1 2.5 forward I I I I #
face $-1 $227 $228 $54 $-1 $229 reversed single #
loop $-1 $-1 $230 $90 #
plane-surface $-1 0 0 -10.842246911716336 0 0 1 1 0 0 forward_v I I I I #
coedge $-1 $231 $232 $233 $234 forward $91 $-1 #
face $-1 $235 $236 $55 $-1 $237 reversed single #
loop $-1 $-1 $238 $93 #
plane-surface $-1 -57.783404857433325 0 -9.0228106092377303 0 0 1 1 0 0 forward_v I I I I #
coedge $-1 $239 $240 $241 $242 forward $94 $-1 #
face $-1 $243 $244 $56 $-1 $245 reversed single #
loop $-1 $-1 $246 $96 #
plane-surface $-1 -14.361815491764702 -5.0149343361370455 60.943987623693857 0 0.81915205242281985 0.57357642473473569 1 0 0 forward_v I I I I #
coedge $-1 $247 $248 $249 $250 reversed $97 $-1 #
face $-1 $-1 $251 $57 $-1 $252 forward single #
loop $-1 $253 $254 $99 #
cone-surface $-1 -23.197719339366373 27.095630600532651 4.4912616941233825 0 -0.81915205242281985 -0.57357642473473569 0.75 0 0 1 I I -0.70710678118654757 0.70710678118654757 0.75 forward I I I I #
loop $-1 $-1 $255 $75 #
coedge $-1 $160 $160 $256 $257 reversed $100 $-1 #
face $-1 $-1 $258 $58 $-1 $259 forward single #
loop $-1 $260 $261 $102 #
cone-surface $-1 -14.361815491764702 27.095630600532651 4.4912616941233825 0 -0.81915205242281985 -0.57357642473473569 0.75 0 0 1 I I -0.70710678118654757 0.70710678118654757 0.75 forward I I I I #
loop $-1 $-1 $262 $76 #
coedge $-1 $165 $165 $263 $264 reversed $103 $-1 #
face $-1 $-1 $265 $59 $-1 $266 forward single #
loop $-1 $267 $268 $105 #
cone-surface $-1 -5.5259116441630312 27.095630600532651 4.4912616941233825 0 -0.81915205242281985 -0.57357642473473569 0.75 0 0 1 I I -0.70710678118654757 0.70710678118654757 0.75 forward I I I I #
loop $-1 $-1 $269 $77 #
coedge $-1 $170 $170 $270 $271 reversed $106 $-1 #
face $-1 $272 $273 $60 $-1 $274 reversed single #
loop $-1 $-1 $275 $108 #
plane-surface $-1 -34.693332715334179 -34.079763689370253 1.0480422140081913 0 -0.5877852598018023 0.80901698891910034 1 0 0 forward_v I I I I #
coedge $-1 $276 $277 $278 $279 reversed $109 $-1 #
face $-1 $-1 $280 $61 $-1 $281 forward single #
loop $-1 $282 $283 $111 #
cone-surface $-1 -38.912645603798779 -22.554319037582609 -0.64106528699738163 0 0.5877852598018023 -0.80901698891910034 1.25 0 0 1 I I -0.70710678118654746 0.70710678118654746 1.25 forward I I I I #
loop $-1 $-1 $284 $79 #
coedge $-1 $179 $179 $285 $286 reversed $112 $-1 #
face $-1 $-1 $287 $62 $-1 $288 forward single #
loop $-1 $289 $290 $114 #
cone-surface $-1 -30.474019826869586 -22.554319037582609 -0.64106528699738163 0 0.5877852598018023 -0.80901698891910034 1.25 0 0 1 I I -0.70710678118654746 0.70710678118654746 1.25 forward I I I I #
loop $-1 $-1 $291 $80 #
coedge $-1 $184 $184 $292 $293 reversed $115 $-1 #
face $-1 $294 $295 $63 $-1 $296 reversed single #
loop $-1 $-1 $297 $117 #
plane-surface $-1 -8.8688221585781406 -34.079763689370253 1.0480422140081913 0 -0.5877852598018023 0.80901698891910034 1 0 0 forward_v I I I I #
coedge $-1 $298 $299 $300 $301 reversed $118 $-1 #
face $-1 $-1 $302 $64 $-1 $303 forward single #
loop $-1 $304 $305 $120 #
cone-surface $-1 -13.088135047042741 -22.554319037582609 -0.64106528699738163 0 0.5877852598018023 -0.80901698891910034 1.25 0 0 1 I I -0.70710678118654746 0.70710678118654746 1.25 forward I I I I #
loop $-1 $-1 $306 $82 #
coedge $-1 $193 $193 $307 $308 reversed $121 $-1 #
face $-1 $-1 $309 $65 $-1 $310 forward single #
loop $-1 $311 $312 $123 #
cone-surface $-1 -4.6495092701135547 -22.554319037582609 -0.64106528699738163 0 0.5877852598018023 -0.80901698891910034 1.25 0 0 1 I I -0.70710678118654746 0.70710678118654746 1.25 forward I I I I #
loop $-1 $-1 $313 $83 #
coedge $-1 $198 $198 $314 $315 reversed $124 $-1 #
face $-1 $316 $317 $66 $-1 $318 reversed single #
loop $-1 $-1 $319 $126 #
plane-surface $-1 16.955688398177898 -34.079763689370253 1.0480422140081913 0 -0.5877852598018023 0.80901698891910034 1 0 0 forward_v I I I I #
coedge $-1 $320 $321 $322 $323 reversed $127 $-1 #
face $-1 $-1 $324 $67 $-1 $325 forward single #
loop $-1 $326 $327 $129 #
cone-surface $-1 12.736375509713298 -22.554319037582609 -0.64106528699738163 0 0.5877852598018023 -0.80901698891910034 1.25 0 0 1 I I -0.70710678118654746 0.70710678118654746 1.25 forward I I I I #
loop $-1 $-1 $328 $85 #
coedge $-1 $207 $207 $329 $330 reversed $130 $-1 #
face $-1 $-1 $331 $68 $-1 $332 forward single #
loop $-1 $333 $334 $132 #
cone-surface $-1 21.175001286642484 -22.554319037582609 -0.64106528699738163 0 0.5877852598018023 -0.80901698891910034 1.25 0 0 1 I I -0.70710678118654746 0.70710678118654746 1.25 forward I I I I #
loop $-1 $-1 $335 $86 #
coedge $-1 $212 $212 $336 $337 reversed $133 $-1 #
face $-1 $338 $339 $69 $-1 $340 reversed single #
loop $-1 $-1 $341 $135 #
plane-surface $-1 42.780198954933937 -34.079763689370253 1.0480422140081913 0 -0.5877852598018023 0.80901698891910034 1 0 0 forward_v I I I I #
coedge $-1 $342 $343 $344 $345 reversed $136 $-1 #
face $-1 $-1 $346 $70 $-1 $347 forward single #
loop $-1 $348 $349 $138 #
cone-surface $-1 38.560886066469337 -22.554319037582609 -0.64106528699738163 0 0.5877852598018023 -0.80901698891910034 1.25 0 0 1 I I -0.70710678118654746 0.70710678118654746 1.25 forward I I I I #
loop $-1 $-1 $350 $88 #
coedge $-1 $221 $221 $351 $352 reversed $139 $-1 #
face $-1 $-1 $353 $71 $-1 $354 forward single #
loop $-1 $355 $356 $141 #
cone-surface $-1 46.999511843398523 -22.554319037582609 -0.64106528699738163 0 0.5877852598018023 -0.80901698891910034 1.25 0 0 1 I I -0.70710678118654746 0.70710678118654746 1.25 forward I I I I #
loop $-1 $-1 $357 $89 #
coedge $-1 $226 $226 $358 $359 reversed $142 $-1 #
face $-1 $360 $361 $54 $-1 $362 reversed single #
loop $-1 $-1 $363 $144 #
plane-surface $-1 0 -34.079763689370253 0 0 1 0 0 0 1 forward_v I I I I #
coedge $-1 $364 $365 $366 $367 forward $145 $-1 #
coedge $-1 $368 $147 $369 $370 forward $91 $-1 #
coedge $-1 $147 $368 $371 $372 forward $91 $-1 #
coedge $-1 $373 $374 $147 $234 reversed $375 $-1 #
edge $-1 $376 -34.079763689370253 $377 34.079763689370253 $233 $378 forward 7 unknown #
face $-1 $379 $380 $55 $-1 $381 reversed single #
loop $-1 $-1 $382 $148 #
plane-surface $-1 -53.739971737633454 0 -5.8159977809379502 -1 0 0 0 0 1 forward_v I I I I #
coedge $-1 $383 $384 $385 $386 forward $149 $-1 #
coedge $-1 $387 $151 $388 $389 reversed $94 $-1 #
coedge $-1 $151 $387 $390 $391 reversed $94 $-1 #
coedge $-1 $382 $392 $151 $242 reversed $236 $-1 #
edge $-1 $393 -34.079763689370253 $394 34.079763689370253 $241 $395 forward 7 unknown #
face $-1 $396 $397 $56 $-1 $398 forward single #
loop $-1 $-1 $399 $152 #
plane-surface $-1 0.36469092090474931 96.276228111590399 131.86882098296425 -1 0 0 0 0.81915205242281985 0.57357642473473569 forward_v I I I I #
coedge $-1 $400 $401 $402 $403 reversed $153 $-1 #
coedge $-1 $248 $155 $404 $405 reversed $97 $-1 #
coedge $-1 $155 $247 $400 $406 reversed $97 $-1 #
coedge $-1 $402 $407 $155 $250 forward $397 $-1 #
edge $-1 $408 14.058350366424946 $409 18.071432926810253 $249 $410 forward 7 unknown #
loop $-1 $-1 $256 $156 #
plane-surface $-1 -14.361815491764702 -5.0149343361370455 60.943987623693857 0 0.81915205242281985 0.57357642473473569 1 0 0 forward_v I I I I #
loop $-1 $-1 $411 $99 #
coedge $-1 $254 $254 $255 $412 reversed $157 $-1 #
coedge $-1 $255 $255 $254 $412 forward $159 $-1 #
coedge $-1 $256 $256 $160 $257 forward $251 $-1 #
edge $-1 $413 1.5496977655631975e-015 $413 6.2831853071796022 $256 $414 forward 7 unknown #
loop $-1 $-1 $263 $161 #
plane-surface $-1 -14.361815491764702 -5.0149343361370455 60.943987623693857 0 0.81915205242281985 0.57357642473473569 1 0 0 forward_v I I I I #
loop $-1 $-1 $415 $102 #
coedge $-1 $261 $261 $262 $416 reversed $162 $-1 #
coedge $-1 $262 $262 $261 $416 forward $164 $-1 #
coedge $-1 $263 $263 $165 $264 forward $258 $-1 #
edge $-1 $417 1.5496977655631975e-015 $417 6.2831853071796022 $263 $418 forward 7 unknown #
loop $-1 $-1 $270 $166 #
plane-surface $-1 -14.361815491764702 -5.0149343361370455 60.943987623693857 0 0.81915205242281985 0.57357642473473569 1 0 0 forward_v I I I I #
loop $-1 $-1 $419 $105 #
coedge $-1 $268 $268 $269 $420 reversed $167 $-1 #
coedge $-1 $269 $269 $268 $420 forward $169 $-1 #
coedge $-1 $270 $270 $170 $271 forward $265 $-1 #
edge $-1 $421 1.5496977655631975e-015 $421 6.2831853071796022 $270 $422 forward 7 unknown #
face $-1 $423 $424 $60 $-1 $425 reversed single #
loop $-1 $-1 $426 $171 #
plane-surface $-1 -44.538396121751575 -106.76157173571416 101.08596680346875 1 0 0 0 0.5877852598018023 -0.80901698891910034 forward_v I I I I #
coedge $-1 $427 $428 $429 $430 reversed $172 $-1 #
coedge $-1 $277 $174 $431 $432 reversed $109 $-1 #
coedge $-1 $174 $276 $427 $433 reversed $109 $-1 #
coedge $-1 $429 $434 $174 $279 forward $435 $-1 #
edge $-1 $436 19.301022178486825 $437 32.781588186673162 $278 $438 forward 7 unknown #
loop $-1 $-1 $285 $175 #
plane-surface $-1 -34.693332715334179 -34.079763689370253 1.0480422140081913 0 -0.5877852598018023 0.80901698891910034 1 0 0 forward_v I I I I #
loop $-1 $-1 $439 $111 #
coedge $-1 $283 $283 $284 $440 reversed $176 $-1 #
coedge $-1 $284 $284 $283 $440 forward $178 $-1 #
coedge $-1 $285 $285 $179 $286 forward $280 $-1 #
edge $-1 $441 2.3085723672187269e-018 $441 6.2831853071796004 $285 $442 forward 7 unknown #
loop $-1 $-1 $292 $180 #
plane-surface $-1 -34.693332715334179 -34.079763689370253 1.0480422140081913 0 -0.5877852598018023 0.80901698891910034 1 0 0 forward_v I I I I #
loop $-1 $-1 $443 $114 #
coedge $-1 $290 $290 $291 $444 reversed $181 $-1 #
coedge $-1 $291 $291 $290 $444 forward $183 $-1 #
coedge $-1 $292 $292 $184 $293 forward $287 $-1 #
edge $-1 $445 2.3085723672187269e-018 $445 6.2831853071796004 $292 $446 forward 7 unknown #
face $-1 $447 $448 $63 $-1 $449 reversed single #
loop $-1 $-1 $450 $185 #
plane-surface $-1 -18.713885564995536 -106.76157173571416 101.08596680346875 1 0 0 0 0.5877852598018023 -0.80901698891910034 forward_v I I I I #
coedge $-1 $451 $452 $453 $454 reversed $186 $-1 #
coedge $-1 $299 $188 $455 $456 reversed $118 $-1 #
coedge $-1 $188 $298 $451 $457 reversed $118 $-1 #
coedge $-1 $453 $458 $188 $301 forward $459 $-1 #
edge $-1 $460 19.301022178486825 $461 32.781588186673162 $300 $462 forward 7 unknown #
loop $-1 $-1 $307 $189 #
plane-surface $-1 -8.8688221585781406 -34.079763689370253 1.0480422140081913 0 -0.5877852598018023 0.80901698891910034 1 0 0 forward_v I I I I #
loop $-1 $-1 $463 $120 #
coedge $-1 $305 $305 $306 $464 reversed $190 $-1 #
coedge $-1 $306 $306 $305 $464 forward $192 $-1 #
coedge $-1 $307 $307 $193 $308 forward $302 $-1 #
edge $-1 $465 2.3085723672187269e-018 $465 6.2831853071796004 $307 $466 forward 7 unknown #
loop $-1 $-1 $314 $194 #
plane-surface $-1 -8.8688221585781406 -34.079763689370253 1.0480422140081913 0 -0.5877852598018023 0.80901698891910034 1 0 0 forward_v I I I I #
loop $-1 $-1 $467 $123 #
coedge $-1 $312 $312 $313 $468 reversed $195 $-1 #
coedge $-1 $313 $313 $312 $468 forward $197 $-1 #
coedge $-1 $314 $314 $198 $315 forward $309 $-1 #
edge $-1 $469 2.3085723672187269e-018 $469 6.2831853071796004 $314 $470 forward 7 unknown #
face $-1 $471 $472 $66 $-1 $473 reversed single #
loop $-1 $-1 $474 $199 #
plane-surface $-1 7.1106249917605027 -106.76157173571416 101.08596680346875 1 0 0 0 0.5877852598018023 -0.80901698891910034 forward_v I I I I #
coedge $-1 $475 $476 $477 $478 reversed $200 $-1 #
coedge $-1 $321 $202 $479 $480 reversed $127 $-1 #
coedge $-1 $202 $320 $475 $481 reversed $127 $-1 #
coedge $-1 $477 $482 $202 $323 forward $483 $-1 #
edge $-1 $484 19.301022178486825 $485 32.781588186673162 $322 $486 forward 7 unknown #
loop $-1 $-1 $329 $203 #
plane-surface $-1 16.955688398177898 -34.079763689370253 1.0480422140081913 0 -0.5877852598018023 0.80901698891910034 1 0 0 forward_v I I I I #
loop $-1 $-1 $487 $129 #
coedge $-1 $327 $327 $328 $488 reversed $204 $-1 #
coedge $-1 $328 $328 $327 $488 forward $206 $-1 #
coedge $-1 $329 $329 $207 $330 forward $324 $-1 #
edge $-1 $489 2.3085723672187269e-018 $489 6.2831853071796004 $329 $490 forward 7 unknown #
loop $-1 $-1 $336 $208 #
plane-surface $-1 16.955688398177898 -34.079763689370253 1.0480422140081913 0 -0.5877852598018023 0.80901698891910034 1 0 0 forward_v I I I I #
loop $-1 $-1 $491 $132 #
coedge $-1 $334 $334 $335 $492 reversed $209 $-1 #
coedge $-1 $335 $335 $334 $492 forward $211 $-1 #
coedge $-1 $336 $336 $212 $337 forward $331 $-1 #
edge $-1 $493 2.3085723672187269e-018 $493 6.2831853071796004 $336 $494 forward 7 unknown #
face $-1 $495 $496 $69 $-1 $497 reversed single #
loop $-1 $-1 $498 $213 #
plane-surface $-1 32.935135548516541 -106.76157173571416 101.08596680346875 1 0 0 0 0.5877852598018023 -0.80901698891910034 forward_v I I I I #
coedge $-1 $499 $500 $501 $502 reversed $214 $-1 #
coedge $-1 $343 $216 $503 $504 reversed $136 $-1 #
coedge $-1 $216 $342 $499 $505 reversed $136 $-1 #
coedge $-1 $501 $506 $216 $345 forward $507 $-1 #
edge $-1 $508 19.301022178486825 $509 32.781588186673162 $344 $510 forward 7 unknown #
loop $-1 $-1 $351 $217 #
plane-surface $-1 42.780198954933937 -34.079763689370253 1.0480422140081913 0 -0.5877852598018023 0.80901698891910034 1 0 0 forward_v I I I I #
loop $-1 $-1 $511 $138 #
coedge $-1 $349 $349 $350 $512 reversed $218 $-1 #
coedge $-1 $350 $350 $349 $512 forward $220 $-1 #
coedge $-1 $351 $351 $221 $352 forward $346 $-1 #
edge $-1 $513 2.3085723672187269e-018 $513 6.2831853071796004 $351 $514 forward 7 unknown #
loop $-1 $-1 $358 $222 #
plane-surface $-1 42.780198954933937 -34.079763689370253 1.0480422140081913 0 -0.5877852598018023 0.80901698891910034 1 0 0 forward_v I I I I #
loop $-1 $-1 $515 $141 #
coedge $-1 $356 $356 $357 $516 reversed $223 $-1 #
coedge $-1 $357 $357 $356 $516 forward $225 $-1 #
coedge $-1 $358 $358 $226 $359 forward $353 $-1 #
edge $-1 $517 2.3085723672187269e-018 $517 6.2831853071796004 $358 $518 forward 7 unknown #
face $-1 $519 $520 $54 $-1 $521 reversed single #
loop $-1 $-1 $522 $227 #
plane-surface $-1 -61.826837977233197 0 0 1 0 0 0 0 -1 forward_v I I I I #
coedge $-1 $523 $371 $524 $525 forward $228 $-1 #
coedge $-1 $526 $230 $523 $527 forward $145 $-1 #
coedge $-1 $230 $526 $528 $529 forward $145 $-1 #
coedge $-1 $374 $373 $230 $367 reversed $375 $-1 #
edge $-1 $530 -34.079763689370253 $531 34.079763689370253 $366 $532 forward 7 unknown #
coedge $-1 $232 $231 $533 $534 forward $91 $-1 #
coedge $-1 $535 $536 $231 $370 reversed $520 $-1 #
edge $-1 $377 -61.826837977233197 $537 61.826837977233197 $369 $538 forward 7 unknown #
coedge $-1 $363 $539 $232 $372 reversed $228 $-1 #
edge $-1 $540 -61.826837977233197 $376 61.826837977233197 $371 $541 forward 7 unknown #
coedge $-1 $366 $233 $539 $542 forward $375 $-1 #
coedge $-1 $233 $366 $535 $543 reversed $375 $-1 #
loop $-1 $-1 $373 $519 #
vertex $-1 $234 $544 #
vertex $-1 $234 $545 #
straight-curve $-1 61.826837977233197 0 10.842246911716336 0 1 0 I I #
face $-1 $546 $547 $55 $-1 $548 reversed single #
loop $-1 $-1 $549 $235 #
plane-surface $-1 0 -34.079763689370253 0 0 1 0 0 0 1 forward_v I I I I #
coedge $-1 $385 $241 $550 $551 reversed $236 $-1 #
coedge $-1 $552 $238 $549 $553 reversed $149 $-1 #
coedge $-1 $238 $552 $554 $555 reversed $149 $-1 #
coedge $-1 $392 $382 $238 $386 reversed $236 $-1 #
edge $-1 $556 -34.079763689370253 $557 34.079763689370253 $385 $558 forward 7 unknown #
coedge $-1 $240 $239 $559 $560 reversed $94 $-1 #
coedge $-1 $561 $562 $239 $389 forward $563 $-1 #
edge $-1 $564 -32.935135548516534 $394 -24.848269308916791 $388 $565 forward 7 unknown #
coedge $-1 $566 $550 $240 $391 forward $380 $-1 #
edge $-1 $393 24.848269308916791 $567 32.935135548516534 $390 $568 forward 7 unknown #
coedge $-1 $241 $385 $561 $569 reversed $236 $-1 #
vertex $-1 $391 $570 #
vertex $-1 $389 $571 #
straight-curve $-1 -53.739971737633454 0 -2.6091849526381701 0 1 0 I I #
face $-1 $-1 $572 $56 $-1 $573 reversed single #
loop $-1 $-1 $249 $243 #
plane-surface $-1 0 0 10.842246911716336 0 0 1 1 0 0 forward_v I I I I #
coedge $-1 $574 $575 $576 $577 reversed $244 $-1 #
coedge $-1 $578 $246 $248 $406 forward $153 $-1 #
coedge $-1 $246 $578 $574 $579 forward $153 $-1 #
coedge $-1 $576 $249 $246 $403 forward $397 $-1 #
edge $-1 $409 -21.907414158551802 $580 7.5455986667871002 $402 $581 forward 7 unknown #
coedge $-1 $582 $583 $247 $405 forward $572 $-1 #
edge $-1 $584 -60.823439612252926 $408 -55.092163579765788 $404 $585 forward 7 unknown #
edge $-1 $409 61.162931306575821 $584 68.159527378740506 $248 $586 forward 7 unknown #
coedge $-1 $249 $576 $582 $587 forward $397 $-1 #
vertex $-1 $405 $588 #
vertex $-1 $250 $589 #
straight-curve $-1 -29.088321904434153 48.138114055795199 10.842246911716337 0 -1 0 I I #
coedge $-1 $411 $411 $-1 $590 reversed $253 $-1 #
edge $-1 $591 0 $591 6.2831853071796004 $254 $592 forward 7 unknown #
vertex $-1 $257 $593 #
ellipse-curve $-1 -23.197719339366373 32.073222409177603 7.9766088954727667 0 0.81915205242281985 0.57357642473473569 1.5 0 0 1 I I #
coedge $-1 $415 $415 $-1 $594 reversed $260 $-1 #
edge $-1 $595 0 $595 6.2831853071796004 $261 $596 forward 7 unknown #
vertex $-1 $264 $597 #
ellipse-curve $-1 -14.361815491764702 32.073222409177603 7.9766088954727667 0 0.81915205242281985 0.57357642473473569 1.5 0 0 1 I I #
coedge $-1 $419 $419 $-1 $598 reversed $267 $-1 #
edge $-1 $599 0 $599 6.2831853071796004 $268 $600 forward 7 unknown #
vertex $-1 $271 $601 #
ellipse-curve $-1 -5.5259116441630312 32.073222409177603 7.9766088954727667 0 0.81915205242281985 0.57357642473473569 1.5 0 0 1 I I #
face $-1 $-1 $435 $60 $-1 $602 forward single #
loop $-1 $-1 $603 $272 #
plane-surface $-1 0 -34.079763689370253 0 0 1 0 0 0 1 forward_v I I I I #
coedge $-1 $604 $605 $606 $607 reversed $273 $-1 #
coedge $-1 $608 $275 $277 $433 forward $172 $-1 #
coedge $-1 $275 $608 $604 $609 forward $172 $-1 #
coedge $-1 $606 $278 $275 $430 forward $435 $-1 #
edge $-1 $437 7.5016029512496942 $610 27.191729764084485 $429 $611 forward 7 unknown #
coedge $-1 $612 $613 $276 $432 forward $424 $-1 #
edge $-1 $614 -49.494941187726184 $436 -39.700736490018038 $431 $615 forward 7 unknown #
edge $-1 $437 -16.662896073662498 $614 0 $277 $616 forward 7 unknown #
coedge $-1 $278 $606 $612 $617 forward $435 $-1 #
loop $-1 $-1 $606 $423 #
vertex $-1 $432 $618 #
vertex $-1 $279 $619 #
straight-curve $-1 -24.848269308916784 -53.380785867857078 10.842246911716337 0 1 0 I I #
coedge $-1 $439 $439 $-1 $620 reversed $282 $-1 #
edge $-1 $621 0 $621 6.2831853071796004 $283 $622 forward 7 unknown #
vertex $-1 $286 $623 #
ellipse-curve $-1 -38.912645603798779 -27.339480685277081 5.9451445628622661 0 -0.5877852598018023 0.80901698891910034 2.5 0 0 1 I I #
coedge $-1 $443 $443 $-1 $624 reversed $289 $-1 #
edge $-1 $625 0 $625 6.2831853071796004 $290 $626 forward 7 unknown #
vertex $-1 $293 $627 #
ellipse-curve $-1 -30.474019826869586 -27.339480685277081 5.9451445628622661 0 -0.5877852598018023 0.80901698891910034 2.5 0 0 1 I I #
face $-1 $-1 $459 $63 $-1 $628 forward single #
loop $-1 $-1 $629 $294 #
plane-surface $-1 0 -34.079763689370253 0 0 1 0 0 0 1 forward_v I I I I #
coedge $-1 $630 $631 $632 $633 reversed $295 $-1 #
coedge $-1 $634 $297 $299 $457 forward $186 $-1 #
coedge $-1 $297 $634 $630 $635 forward $186 $-1 #
coedge $-1 $632 $300 $297 $454 forward $459 $-1 #
edge $-1 $461 -5.4106523271283251 $636 14.279474485706466 $453 $637 forward 7 unknown #
coedge $-1 $638 $639 $298 $456 forward $448 $-1 #
edge $-1 $640 -49.494941187726184 $460 -39.700736490018038 $455 $641 forward 7 unknown #
edge $-1 $461 -16.662896073662498 $640 0 $299 $642 forward 7 unknown #
coedge $-1 $300 $632 $638 $643 forward $459 $-1 #
loop $-1 $-1 $632 $447 #
vertex $-1 $456 $644 #
vertex $-1 $301 $645 #
straight-curve $-1 0.97624124783925481 -53.380785867857078 10.842246911716337 0 1 0 I I #
coedge $-1 $463 $463 $-1 $646 reversed $304 $-1 #
edge $-1 $647 0 $647 6.2831853071796004 $305 $648 forward 7 unknown #
vertex $-1 $308 $649 #
ellipse-curve $-1 -13.088135047042741 -27.339480685277081 5.9451445628622661 0 -0.5877852598018023 0.80901698891910034 2.5 0 0 1 I I #
coedge $-1 $467 $467 $-1 $650 reversed $311 $-1 #
edge $-1 $651 0 $651 6.2831853071796004 $312 $652 forward 7 unknown #
vertex $-1 $315 $653 #
ellipse-curve $-1 -4.6495092701135547 -27.339480685277081 5.9451445628622661 0 -0.5877852598018023 0.80901698891910034 2.5 0 0 1 I I #
face $-1 $-1 $483 $66 $-1 $654 forward single #
loop $-1 $-1 $655 $316 #
plane-surface $-1 0 -34.079763689370253 0 0 1 0 0 0 1 forward_v I I I I #
coedge $-1 $656 $657 $658 $659 reversed $317 $-1 #
coedge $-1 $660 $319 $321 $481 forward $200 $-1 #
coedge $-1 $319 $660 $656 $661 forward $200 $-1 #
coedge $-1 $658 $322 $319 $478 forward $483 $-1 #
edge $-1 $485 -18.322907605506344 $662 1.3672192073284464 $477 $663 forward 7 unknown #
coedge $-1 $664 $665 $320 $480 forward $472 $-1 #
edge $-1 $666 -49.494941187726184 $484 -39.700736490018038 $479 $667 forward 7 unknown #
edge $-1 $485 -16.662896073662498 $666 0 $321 $668 forward 7 unknown #
coedge $-1 $322 $658 $664 $669 forward $483 $-1 #
loop $-1 $-1 $658 $471 #
vertex $-1 $480 $670 #
vertex $-1 $323 $671 #
straight-curve $-1 26.800751804595293 -53.380785867857078 10.842246911716337 0 1 0 I I #
coedge $-1 $487 $487 $-1 $672 reversed $326 $-1 #
edge $-1 $673 0 $673 6.2831853071796004 $327 $674 forward 7 unknown #
vertex $-1 $330 $675 #
ellipse-curve $-1 12.736375509713298 -27.339480685277081 5.9451445628622661 0 -0.5877852598018023 0.80901698891910034 2.5 0 0 1 I I #
coedge $-1 $491 $491 $-1 $676 reversed $333 $-1 #
edge $-1 $677 0 $677 6.2831853071796004 $334 $678 forward 7 unknown #
vertex $-1 $337 $679 #
ellipse-curve $-1 21.175001286642484 -27.339480685277081 5.9451445628622661 0 -0.5877852598018023 0.80901698891910034 2.5 0 0 1 I I #
face $-1 $-1 $507 $69 $-1 $680 forward single #
loop $-1 $-1 $681 $338 #
plane-surface $-1 0 -34.079763689370253 0 0 1 0 0 0 1 forward_v I I I I #
coedge $-1 $682 $683 $684 $685 reversed $339 $-1 #
coedge $-1 $686 $341 $343 $505 forward $214 $-1 #
coedge $-1 $341 $686 $682 $687 forward $214 $-1 #
coedge $-1 $684 $344 $341 $502 forward $507 $-1 #
edge $-1 $509 -31.235162883884364 $688 -11.545036071049573 $501 $689 forward 7 unknown #
coedge $-1 $690 $691 $342 $504 forward $496 $-1 #
edge $-1 $692 -49.494941187726184 $508 -39.700736490018038 $503 $693 forward 7 unknown #
edge $-1 $509 -16.662896073662498 $692 0 $343 $694 forward 7 unknown #
coedge $-1 $344 $684 $690 $695 forward $507 $-1 #
loop $-1 $-1 $684 $495 #
vertex $-1 $504 $696 #
vertex $-1 $345 $697 #
straight-curve $-1 52.625262361351332 -53.380785867857078 10.842246911716337 0 1 0 I I #
coedge $-1 $511 $511 $-1 $698 reversed $348 $-1 #
edge $-1 $699 0 $699 6.2831853071796004 $349 $700 forward 7 unknown #
vertex $-1 $352 $701 #
ellipse-curve $-1 38.560886066469337 -27.339480685277081 5.9451445628622661 0 -0.5877852598018023 0.80901698891910034 2.5 0 0 1 I I #
coedge $-1 $515 $515 $-1 $702 reversed $355 $-1 #
edge $-1 $703 0 $703 6.2831853071796004 $356 $704 forward 7 unknown #
vertex $-1 $359 $705 #
ellipse-curve $-1 46.999511843398523 -27.339480685277081 5.9451445628622661 0 -0.5877852598018023 0.80901698891910034 2.5 0 0 1 I I #
face $-1 $-1 $375 $54 $-1 $706 reversed single #
loop $-1 $-1 $535 $360 #
plane-surface $-1 0 34.079763689370253 0 0 -1 0 0 0 -1 forward_v I I I I #
coedge $-1 $707 $533 $536 $708 forward $361 $-1 #
coedge $-1 $539 $363 $364 $527 reversed $228 $-1 #
coedge $-1 $533 $707 $363 $525 reversed $361 $-1 #
edge $-1 $540 -10.842246911716336 $709 10.842246911716336 $524 $710 forward 7 unknown #
coedge $-1 $365 $364 $707 $711 forward $145 $-1 #
edge $-1 $531 -61.826837977233197 $709 61.826837977233197 $523 $712 forward 7 unknown #
coedge $-1 $536 $535 $365 $529 reversed $520 $-1 #
edge $-1 $713 -61.826837977233197 $530 61.826837977233197 $528 $714 forward 7 unknown #
vertex $-1 $367 $715 #
vertex $-1 $542 $716 #
straight-curve $-1 61.826837977233197 0 -10.842246911716336 0 -1 0 I I #
coedge $-1 $522 $524 $368 $534 reversed $361 $-1 #
edge $-1 $537 -34.079763689370253 $540 34.079763689370253 $533 $717 forward 7 unknown #
coedge $-1 $528 $369 $374 $543 forward $520 $-1 #
coedge $-1 $369 $528 $522 $708 reversed $520 $-1 #
vertex $-1 $370 $718 #
straight-curve $-1 0 34.079763689370253 10.842246911716336 -1 0 0 I I #
coedge $-1 $371 $523 $373 $542 reversed $228 $-1 #
vertex $-1 $534 $719 #
straight-curve $-1 0 -34.079763689370253 10.842246911716336 1 0 0 I I #
edge $-1 $376 -10.842246911716336 $531 10.842246911716336 $373 $720 forward 7 unknown #
edge $-1 $377 -10.842246911716336 $530 10.842246911716336 $374 $721 forward 7 unknown #
point $-1 61.826837977233197 -34.079763689370253 10.842246911716336 #
point $-1 61.826837977233197 34.079763689370253 10.842246911716336 #
face $-1 $-1 $563 $55 $-1 $722 reversed single #
loop $-1 $-1 $723 $379 #
plane-surface $-1 -61.826837977233197 0 0 1 0 0 0 0 -1 forward_v I I I I #
coedge $-1 $550 $566 $383 $553 forward $380 $-1 #
coedge $-1 $390 $549 $382 $551 forward $380 $-1 #
edge $-1 $557 -6.1148117187687552 $393 0.29881393783080501 $550 $724 forward 7 unknown #
coedge $-1 $384 $383 $723 $725 reversed $149 $-1 #
edge $-1 $726 -32.935135548516534 $557 -24.848269308916791 $549 $727 forward 7 unknown #
coedge $-1 $562 $561 $384 $555 forward $563 $-1 #
edge $-1 $556 24.848269308916791 $728 32.935135548516534 $554 $729 forward 7 unknown #
vertex $-1 $555 $730 #
vertex $-1 $553 $731 #
straight-curve $-1 -53.739971737633454 0 -9.0228106092377303 0 -1 0 I I #
coedge $-1 $732 $733 $387 $560 forward $547 $-1 #
edge $-1 $567 -34.079763689370253 $564 34.079763689370253 $559 $734 forward 7 unknown #
coedge $-1 $554 $388 $392 $569 forward $563 $-1 #
coedge $-1 $388 $554 $732 $735 reversed $563 $-1 #
loop $-1 $-1 $554 $546 #
vertex $-1 $735 $736 #
straight-curve $-1 -28.891702428716663 34.079763689370253 -2.6091849526381701 1 0 0 I I #
coedge $-1 $549 $390 $733 $737 forward $380 $-1 #
vertex $-1 $737 $738 #
straight-curve $-1 -28.891702428716663 -34.079763689370253 -2.6091849526381701 -1 0 0 I I #
edge $-1 $394 -0.29881393783080501 $556 6.1148117187687552 $561 $739 forward 7 unknown #
point $-1 -53.739971737633454 -34.079763689370253 -2.6091849526381701 #
point $-1 -53.739971737633454 34.079763689370253 -2.6091849526381701 #
loop $-1 $-1 $404 $396 #
plane-surface $-1 0 34.079763689370253 0 0 -1 0 0 0 -1 forward_v I I I I #
coedge $-1 $575 $399 $401 $579 reversed $244 $-1 #
coedge $-1 $399 $574 $740 $741 reversed $244 $-1 #
coedge $-1 $407 $402 $399 $577 forward $397 $-1 #
edge $-1 $580 -18.071432926810253 $742 -14.058350366424946 $576 $743 forward 7 unknown #
coedge $-1 $401 $400 $583 $744 reversed $153 $-1 #
edge $-1 $745 -68.159527378740506 $580 -61.162931306575821 $574 $746 forward 7 unknown #
vertex $-1 $403 $747 #
straight-curve $-1 -7.1809077458823509 30.06668112898495 10.842246911716337 1 0 0 I I #
coedge $-1 $740 $404 $407 $587 reversed $572 $-1 #
coedge $-1 $404 $740 $578 $744 forward $572 $-1 #
vertex $-1 $405 $748 #
straight-curve $-1 -29.088321904434153 34.079763689370253 65.934410491482126 0 0 1 I I #
straight-curve $-1 -29.088321904434153 -5.0149343361370455 60.943987623693857 0 0.57357642473473569 -0.81915205242281985 I I #
edge $-1 $742 -0.36469092090474931 $408 29.088321904434153 $582 $749 forward 7 unknown #
point $-1 -29.088321904434153 34.079763689370253 10.842246911716336 #
point $-1 -29.088321904434153 30.066681128984946 10.842246911716337 #
edge $-1 $750 1 $750 0 $411 $-1 forward 7 unknown #
vertex $-1 $412 $751 #
ellipse-curve $-1 -23.197719339366373 27.709994639849764 4.9214440126744341 0 0.81915205242281985 0.57357642473473569 1.5 0 0 1 I I #
point $-1 -21.697719339366373 32.073222409177582 7.976608895472749 #
edge $-1 $752 1 $752 0 $415 $-1 forward 7 unknown #
vertex $-1 $416 $753 #
ellipse-curve $-1 -14.361815491764702 27.709994639849764 4.9214440126744341 0 0.81915205242281985 0.57357642473473569 1.5 0 0 1 I I #
point $-1 -12.861815491764702 32.073222409177582 7.976608895472749 #
edge $-1 $754 1 $754 0 $419 $-1 forward 7 unknown #
vertex $-1 $420 $755 #
ellipse-curve $-1 -5.5259116441630312 27.709994639849764 4.9214440126744341 0 0.81915205242281985 0.57357642473473569 1.5 0 0 1 I I #
point $-1 -4.0259116441630312 32.073222409177582 7.976608895472749 #
plane-surface $-1 0 0 10.842246911716336 0 0 1 1 0 0 forward_v I I I I #
coedge $-1 $613 $612 $605 $756 forward $424 $-1 #
coedge $-1 $605 $426 $428 $609 reversed $273 $-1 #
coedge $-1 $426 $604 $603 $756 reversed $273 $-1 #
coedge $-1 $434 $429 $426 $607 forward $435 $-1 #
edge $-1 $610 -32.781588186673162 $757 -19.301022178486825 $606 $758 forward 7 unknown #
coedge $-1 $428 $427 $613 $759 reversed $172 $-1 #
edge $-1 $760 0 $610 16.662896073662498 $604 $761 forward 7 unknown #
vertex $-1 $430 $762 #
straight-curve $-1 -17.34666635766709 -20.59919768118392 10.842246911716336 -1 0 0 I I #
coedge $-1 $603 $431 $434 $617 reversed $424 $-1 #
coedge $-1 $431 $603 $608 $759 forward $424 $-1 #
vertex $-1 $432 $763 #
straight-curve $-1 -24.848269308916784 -34.079763689370253 50.542983401734375 0 0 1 I I #
straight-curve $-1 -24.848269308916784 -34.079763689370253 1.0480422140081913 0 -0.80901698891910034 -0.5877852598018023 I I #
edge $-1 $757 -44.538396121751575 $436 -24.848269308916784 $612 $764 forward 7 unknown #
point $-1 -24.848269308916784 -34.079763689370253 10.842246911716336 #
point $-1 -24.848269308916784 -20.599197681183917 10.842246911716336 #
edge $-1 $765 1 $765 0 $439 $-1 forward 7 unknown #
vertex $-1 $440 $766 #
ellipse-curve $-1 -38.912645603798779 -23.289050612334862 0.37020594915149374 0 -0.5877852598018023 0.80901698891910034 2.5 0 0 1 I I #
point $-1 -36.412645603798779 -27.339480685277074 5.9451445628622563 #
edge $-1 $767 1 $767 0 $443 $-1 forward 7 unknown #
vertex $-1 $444 $768 #
ellipse-curve $-1 -30.474019826869586 -23.289050612334862 0.37020594915149374 0 -0.5877852598018023 0.80901698891910034 2.5 0 0 1 I I #
point $-1 -27.974019826869586 -27.339480685277074 5.9451445628622563 #
plane-surface $-1 0 0 10.842246911716336 0 0 1 1 0 0 forward_v I I I I #
coedge $-1 $639 $638 $631 $769 forward $448 $-1 #
coedge $-1 $631 $450 $452 $635 reversed $295 $-1 #
coedge $-1 $450 $630 $629 $769 reversed $295 $-1 #
coedge $-1 $458 $453 $450 $633 forward $459 $-1 #
edge $-1 $636 -32.781588186673162 $770 -19.301022178486825 $632 $771 forward 7 unknown #
coedge $-1 $452 $451 $639 $772 reversed $186 $-1 #
edge $-1 $773 0 $636 16.662896073662498 $630 $774 forward 7 unknown #
vertex $-1 $454 $775 #
straight-curve $-1 -4.4344110792890703 -20.59919768118392 10.842246911716336 -1 0 0 I I #
coedge $-1 $629 $455 $458 $643 reversed $448 $-1 #
coedge $-1 $455 $629 $634 $772 forward $448 $-1 #
vertex $-1 $456 $776 #
straight-curve $-1 0.97624124783925481 -34.079763689370253 50.542983401734375 0 0 1 I I #
straight-curve $-1 0.97624124783925481 -34.079763689370253 1.0480422140081913 0 -0.80901698891910034 -0.5877852598018023 I I #
edge $-1 $770 -18.713885564995536 $460 0.97624124783925481 $638 $777 forward 7 unknown #
point $-1 0.97624124783925481 -34.079763689370253 10.842246911716336 #
point $-1 0.97624124783925481 -20.599197681183917 10.842246911716336 #
edge $-1 $778 1 $778 0 $463 $-1 forward 7 unknown #
vertex $-1 $464 $779 #
ellipse-curve $-1 -13.088135047042741 -23.289050612334862 0.37020594915149374 0 -0.5877852598018023 0.80901698891910034 2.5 0 0 1 I I #
point $-1 -10.588135047042741 -27.339480685277074 5.9451445628622563 #
edge $-1 $780 1 $780 0 $467 $-1 forward 7 unknown #
vertex $-1 $468 $781 #
ellipse-curve $-1 -4.6495092701135547 -23.289050612334862 0.37020594915149374 0 -0.5877852598018023 0.80901698891910034 2.5 0 0 1 I I #
point $-1 -2.1495092701135547 -27.339480685277074 5.9451445628622563 #
plane-surface $-1 0 0 10.842246911716336 0 0 1 1 0 0 forward_v I I I I #
coedge $-1 $665 $664 $657 $782 forward $472 $-1 #
coedge $-1 $657 $474 $476 $661 reversed $317 $-1 #
coedge $-1 $474 $656 $655 $782 reversed $317 $-1 #
coedge $-1 $482 $477 $474 $659 forward $483 $-1 #
edge $-1 $662 -32.781588186673162 $783 -19.301022178486825 $658 $784 forward 7 unknown #
coedge $-1 $476 $475 $665 $785 reversed $200 $-1 #
edge $-1 $786 0 $662 16.662896073662498 $656 $787 forward 7 unknown #
vertex $-1 $478 $788 #
straight-curve $-1 8.477844199088949 -20.59919768118392 10.842246911716336 -1 0 0 I I #
coedge $-1 $655 $479 $482 $669 reversed $472 $-1 #
coedge $-1 $479 $655 $660 $785 forward $472 $-1 #
vertex $-1 $480 $789 #
straight-curve $-1 26.800751804595293 -34.079763689370253 50.542983401734375 0 0 1 I I #
straight-curve $-1 26.800751804595293 -34.079763689370253 1.0480422140081913 0 -0.80901698891910034 -0.5877852598018023 I I #
edge $-1 $783 7.1106249917605027 $484 26.800751804595293 $664 $790 forward 7 unknown #
point $-1 26.800751804595293 -34.079763689370253 10.842246911716336 #
point $-1 26.800751804595293 -20.599197681183917 10.842246911716336 #
edge $-1 $791 1 $791 0 $487 $-1 forward 7 unknown #
vertex $-1 $488 $792 #
ellipse-curve $-1 12.736375509713298 -23.289050612334862 0.37020594915149374 0 -0.5877852598018023 0.80901698891910034 2.5 0 0 1 I I #
point $-1 15.236375509713298 -27.339480685277074 5.9451445628622563 #
edge $-1 $793 1 $793 0 $491 $-1 forward 7 unknown #
vertex $-1 $492 $794 #
ellipse-curve $-1 21.175001286642484 -23.289050612334862 0.37020594915149374 0 -0.5877852598018023 0.80901698891910034 2.5 0 0 1 I I #
point $-1 23.675001286642484 -27.339480685277074 5.9451445628622563 #
plane-surface $-1 0 0 10.842246911716336 0 0 1 1 0 0 forward_v I I I I #
coedge $-1 $691 $690 $683 $795 forward $496 $-1 #
coedge $-1 $683 $498 $500 $687 reversed $339 $-1 #
coedge $-1 $498 $682 $681 $795 reversed $339 $-1 #
coedge $-1 $506 $501 $498 $685 forward $507 $-1 #
edge $-1 $688 -32.781588186673162 $796 -19.301022178486825 $684 $797 forward 7 unknown #
coedge $-1 $500 $499 $691 $798 reversed $214 $-1 #
edge $-1 $799 0 $688 16.662896073662498 $682 $800 forward 7 unknown #
vertex $-1 $502 $801 #
straight-curve $-1 21.390099477466968 -20.59919768118392 10.842246911716336 -1 0 0 I I #
coedge $-1 $681 $503 $506 $695 reversed $496 $-1 #
coedge $-1 $503 $681 $686 $798 forward $496 $-1 #
vertex $-1 $504 $802 #
straight-curve $-1 52.625262361351332 -34.079763689370253 50.542983401734375 0 0 1 I I #
straight-curve $-1 52.625262361351332 -34.079763689370253 1.0480422140081913 0 -0.80901698891910034 -0.5877852598018023 I I #
edge $-1 $796 32.935135548516541 $508 52.625262361351332 $690 $803 forward 7 unknown #
point $-1 52.625262361351332 -34.079763689370253 10.842246911716336 #
point $-1 52.625262361351332 -20.599197681183917 10.842246911716336 #
edge $-1 $804 1 $804 0 $511 $-1 forward 7 unknown #
vertex $-1 $512 $805 #
ellipse-curve $-1 38.560886066469337 -23.289050612334862 0.37020594915149374 0 -0.5877852598018023 0.80901698891910034 2.5 0 0 1 I I #
point $-1 41.060886066469337 -27.339480685277074 5.9451445628622563 #
edge $-1 $806 1 $806 0 $515 $-1 forward 7 unknown #
vertex $-1 $516 $807 #
ellipse-curve $-1 46.999511843398523 -23.289050612334862 0.37020594915149374 0 -0.5877852598018023 0.80901698891910034 2.5 0 0 1 I I #
point $-1 49.499511843398523 -27.339480685277074 5.9451445628622563 #
plane-surface $-1 61.826837977233197 0 0 -1 0 0 0 0 1 forward_v I I I I #
coedge $-1 $524 $522 $526 $711 reversed $361 $-1 #
edge $-1 $537 -10.842246911716336 $713 10.842246911716336 $536 $808 forward 7 unknown #
vertex $-1 $711 $809 #
straight-curve $-1 -61.826837977233197 -34.079763689370253 0 0 0 -1 I I #
edge $-1 $709 -34.079763689370253 $713 34.079763689370253 $707 $810 forward 7 unknown #
straight-curve $-1 0 -34.079763689370253 -10.842246911716336 -1 0 0 I I #
vertex $-1 $529 $811 #
straight-curve $-1 0 34.079763689370253 -10.842246911716336 1 0 0 I I #
point $-1 61.826837977233197 34.079763689370253 -10.842246911716336 #
point $-1 61.826837977233197 -34.079763689370253 -10.842246911716336 #
straight-curve $-1 -61.826837977233197 0 10.842246911716336 0 -1 0 I I #
point $-1 -61.826837977233197 34.079763689370253 10.842246911716336 #
point $-1 -61.826837977233197 -34.079763689370253 10.842246911716336 #
straight-curve $-1 61.826837977233197 -34.079763689370253 0 0 0 -1 I I #
straight-curve $-1 61.826837977233197 34.079763689370253 0 0 0 -1 I I #
plane-surface $-1 0 34.079763689370253 0 0 -1 0 0 0 -1 forward_v I I I I #
coedge $-1 $733 $732 $552 $725 forward $547 $-1 #
straight-curve $-1 -53.739971737633454 -34.079763689370253 -2.9079988904689751 0 0 1 I I #
edge $-1 $728 -34.079763689370253 $726 34.079763689370253 $723 $812 forward 7 unknown #
vertex $-1 $553 $813 #
straight-curve $-1 -28.891702428716663 -34.079763689370253 -9.0228106092377303 1 0 0 I I #
vertex $-1 $555 $814 #
straight-curve $-1 -28.891702428716663 34.079763689370253 -9.0228106092377303 -1 0 0 I I #
point $-1 -53.739971737633454 34.079763689370253 -9.0228106092377303 #
point $-1 -53.739971737633454 -34.079763689370253 -9.0228106092377303 #
coedge $-1 $723 $559 $562 $735 forward $547 $-1 #
coedge $-1 $559 $723 $566 $737 reversed $547 $-1 #
straight-curve $-1 -61.826837977233197 0 -2.6091849526381701 0 1 0 I I #
edge $-1 $564 2.6091849526381701 $728 9.0228106092377303 $562 $815 forward 7 unknown #
point $-1 -61.826837977233197 34.079763689370253 -2.6091849526381701 #
edge $-1 $567 2.6091849526381701 $726 9.0228106092377303 $733 $816 forward 7 unknown #
point $-1 -61.826837977233197 -34.079763689370253 -2.6091849526381701 #
straight-curve $-1 -53.739971737633454 34.079763689370253 -2.9079988904689751 0 0 -1 I I #
coedge $-1 $583 $582 $575 $741 forward $572 $-1 #
edge $-1 $742 55.092163579765788 $745 60.823439612252926 $740 $817 forward 7 unknown #
vertex $-1 $587 $818 #
straight-curve $-1 0.36469092090474931 48.138114055795199 10.842246911716337 0 1 0 I I #
edge $-1 $745 -7.5455986667871002 $584 21.907414158551802 $583 $819 forward 7 unknown #
vertex $-1 $744 $820 #
straight-curve $-1 0.36469092090474931 -5.0149343361370455 60.943987623693857 0 -0.57357642473473569 0.81915205242281985 I I #
point $-1 0.36469092090474931 30.066681128984946 10.842246911716337 #
point $-1 -29.088321904434153 34.07976368937026 5.1109708792291997 #
straight-curve $-1 0 34.079763689370253 10.842246911716336 -1 0 0 I I #
vertex $-1 $590 $821 #
point $-1 -21.697719339366373 27.709994639849764 4.9214440126744341 #
vertex $-1 $594 $822 #
point $-1 -12.861815491764702 27.709994639849764 4.9214440126744341 #
vertex $-1 $598 $823 #
point $-1 -4.0259116441630312 27.709994639849764 4.9214440126744341 #
edge $-1 $757 39.700736490018038 $760 49.494941187726184 $603 $824 forward 7 unknown #
vertex $-1 $617 $825 #
straight-curve $-1 -44.538396121751575 -53.380785867857078 10.842246911716337 0 -1 0 I I #
edge $-1 $760 -27.191729764084485 $614 -7.5016029512496942 $613 $826 forward 7 unknown #
vertex $-1 $759 $827 #
straight-curve $-1 -44.538396121751575 -34.079763689370253 1.0480422140081913 0 0.80901698891910034 0.5877852598018023 I I #
point $-1 -44.538396121751575 -20.599197681183917 10.842246911716336 #
point $-1 -24.848269308916784 -34.079763689370253 1.0480422140081913 #
straight-curve $-1 0 -34.079763689370253 10.842246911716336 1 0 0 I I #
vertex $-1 $620 $828 #
point $-1 -36.412645603798779 -23.289050612334862 0.37020594915149374 #
vertex $-1 $624 $829 #
point $-1 -27.974019826869586 -23.289050612334862 0.37020594915149374 #
edge $-1 $770 39.700736490018038 $773 49.494941187726184 $629 $830 forward 7 unknown #
vertex $-1 $643 $831 #
straight-curve $-1 -18.713885564995536 -53.380785867857078 10.842246911716337 0 -1 0 I I #
edge $-1 $773 -14.279474485706466 $640 5.4106523271283251 $639 $832 forward 7 unknown #
vertex $-1 $772 $833 #
straight-curve $-1 -18.713885564995536 -34.079763689370253 1.0480422140081913 0 0.80901698891910034 0.5877852598018023 I I #
point $-1 -18.713885564995536 -20.599197681183917 10.842246911716336 #
point $-1 0.97624124783925481 -34.079763689370253 1.0480422140081913 #
straight-curve $-1 0 -34.079763689370253 10.842246911716336 1 0 0 I I #
vertex $-1 $646 $834 #
point $-1 -10.588135047042741 -23.289050612334862 0.37020594915149374 #
vertex $-1 $650 $835 #
point $-1 -2.1495092701135547 -23.289050612334862 0.37020594915149374 #
edge $-1 $783 39.700736490018038 $786 49.494941187726184 $655 $836 forward 7 unknown #
vertex $-1 $669 $837 #
straight-curve $-1 7.1106249917605027 -53.380785867857078 10.842246911716337 0 -1 0 I I #
edge $-1 $786 -1.3672192073284464 $666 18.322907605506344 $665 $838 forward 7 unknown #
vertex $-1 $785 $839 #
straight-curve $-1 7.1106249917605027 -34.079763689370253 1.0480422140081913 0 0.80901698891910034 0.5877852598018023 I I #
point $-1 7.1106249917605027 -20.599197681183917 10.842246911716336 #
point $-1 26.800751804595293 -34.079763689370253 1.0480422140081913 #
straight-curve $-1 0 -34.079763689370253 10.842246911716336 1 0 0 I I #
vertex $-1 $672 $840 #
point $-1 15.236375509713298 -23.289050612334862 0.37020594915149374 #
vertex $-1 $676 $841 #
point $-1 23.675001286642484 -23.289050612334862 0.37020594915149374 #
edge $-1 $796 39.700736490018038 $799 49.494941187726184 $681 $842 forward 7 unknown #
vertex $-1 $695 $843 #
straight-curve $-1 32.935135548516541 -53.380785867857078 10.842246911716337 0 -1 0 I I #
edge $-1 $799 11.545036071049573 $692 31.235162883884364 $691 $844 forward 7 unknown #
vertex $-1 $798 $845 #
straight-curve $-1 32.935135548516541 -34.079763689370253 1.0480422140081913 0 0.80901698891910034 0.5877852598018023 I I #
point $-1 32.935135548516541 -20.599197681183917 10.842246911716336 #
point $-1 52.625262361351332 -34.079763689370253 1.0480422140081913 #
straight-curve $-1 0 -34.079763689370253 10.842246911716336 1 0 0 I I #
vertex $-1 $698 $846 #
point $-1 41.060886066469337 -23.289050612334862 0.37020594915149374 #
vertex $-1 $702 $847 #
point $-1 49.499511843398523 -23.289050612334862 0.37020594915149374 #
straight-curve $-1 -61.826837977233197 34.079763689370253 0 0 0 -1 I I #
point $-1 -61.826837977233197 -34.079763689370253 -10.842246911716336 #
straight-curve $-1 -61.826837977233197 0 -10.842246911716336 0 1 0 I I #
point $-1 -61.826837977233197 34.079763689370253 -10.842246911716336 #
straight-curve $-1 -61.826837977233197 0 -9.0228106092377303 0 -1 0 I I #
point $-1 -61.826837977233197 -34.079763689370253 -9.0228106092377303 #
point $-1 -61.826837977233197 34.079763689370253 -9.0228106092377303 #
straight-curve $-1 -61.826837977233197 34.079763689370253 0 0 0 -1 I I #
straight-curve $-1 -61.826837977233197 -34.079763689370253 0 0 0 -1 I I #
straight-curve $-1 0.36469092090474931 34.079763689370253 65.934410491482126 0 0 -1 I I #
point $-1 0.36469092090474931 34.079763689370253 10.842246911716336 #
straight-curve $-1 -7.1809077458823509 34.079763689370253 5.1109708792292032 -1 0 0 I I #
point $-1 0.36469092090474931 34.07976368937026 5.1109708792291997 #
point $-1 -23.197719339366373 26.481266561215538 4.0610793755723309 #
point $-1 -14.361815491764702 26.481266561215538 4.0610793755723309 #
point $-1 -5.5259116441630312 26.481266561215538 4.0610793755723309 #
straight-curve $-1 -44.538396121751575 -34.079763689370253 50.542983401734375 0 0 -1 I I #
point $-1 -44.538396121751575 -34.079763689370253 10.842246911716336 #
straight-curve $-1 -17.34666635766709 -34.079763689370253 1.0480422140081926 1 0 0 I I #
point $-1 -44.538396121751575 -34.079763689370253 1.0480422140081913 #
point $-1 -38.912645603798779 -21.819587462830356 -1.652336523146257 #
point $-1 -30.474019826869586 -21.819587462830356 -1.652336523146257 #
straight-curve $-1 -18.713885564995536 -34.079763689370253 50.542983401734375 0 0 -1 I I #
point $-1 -18.713885564995536 -34.079763689370253 10.842246911716336 #
straight-curve $-1 -4.4344110792890703 -34.079763689370253 1.0480422140081926 1 0 0 I I #
point $-1 -18.713885564995536 -34.079763689370253 1.0480422140081913 #
point $-1 -13.088135047042741 -21.819587462830356 -1.652336523146257 #
point $-1 -4.6495092701135547 -21.819587462830356 -1.652336523146257 #
straight-curve $-1 7.1106249917605027 -34.079763689370253 50.542983401734375 0 0 -1 I I #
point $-1 7.1106249917605027 -34.079763689370253 10.842246911716336 #
straight-curve $-1 8.477844199088949 -34.079763689370253 1.0480422140081926 1 0 0 I I #
point $-1 7.1106249917605027 -34.079763689370253 1.0480422140081913 #
point $-1 12.736375509713298 -21.819587462830356 -1.652336523146257 #
point $-1 21.175001286642484 -21.819587462830356 -1.652336523146257 #
straight-curve $-1 32.935135548516541 -34.079763689370253 50.542983401734375 0 0 -1 I I #
point $-1 32.935135548516541 -34.079763689370253 10.842246911716336 #
straight-curve $-1 21.390099477466968 -34.079763689370253 1.0480422140081926 1 0 0 I I #
point $-1 32.935135548516541 -34.079763689370253 1.0480422140081913 #
point $-1 38.560886066469337 -21.819587462830356 -1.652336523146257 #
point $-1 46.999511843398523 -21.819587462830356 -1.652336523146257 #
End-of-ACIS-data 