500 0 9 0           
7 Unknown 11 ACIS 5.0 NT 24 Fri Mar 26 03:27:38 1999 
-1 9.9999999999999995e-007 1e-010 
body $-1 $9 $-1 $10 #
body $-1 $11 $-1 $12 #
body $-1 $13 $-1 $14 #
body $-1 $15 $-1 $16 #
body $-1 $17 $-1 $18 #
body $-1 $19 $-1 $20 #
body $-1 $21 $-1 $22 #
body $-1 $23 $-1 $24 #
body $-1 $25 $-1 $26 #
lump $-1 $-1 $27 $0 #
transform $-1 1 0 0 0 1 0 0 0 1 67.747428815576654 43.669355395441727 11.107585147963166 1 rotate no_reflect no_shear #
lump $-1 $-1 $28 $1 #
transform $-1 1 0 0 0 1 0 0 0 1 67.747428815576654 43.669355395441727 11.107585147963166 1 rotate no_reflect no_shear #
lump $-1 $-1 $29 $2 #
transform $-1 1 0 0 0 1 0 0 0 1 67.747428815576654 43.669355395441727 11.107585147963166 1 rotate no_reflect no_shear #
lump $-1 $-1 $30 $3 #
transform $-1 1 0 0 0 1 0 0 0 1 67.747428815576654 43.669355395441727 11.107585147963166 1 rotate no_reflect no_shear #
lump $-1 $-1 $31 $4 #
transform $-1 1 0 0 0 1 0 0 0 1 67.747428815576654 43.669355395441727 11.107585147963166 1 rotate no_reflect no_shear #
lump $-1 $-1 $32 $5 #
transform $-1 1 0 0 0 1 0 0 0 1 67.747428815576654 43.669355395441727 11.107585147963166 1 rotate no_reflect no_shear #
lump $-1 $-1 $33 $6 #
transform $-1 1 0 0 0 1 0 0 0 1 67.747428815576654 43.669355395441727 11.107585147963166 1 rotate no_reflect no_shear #
lump $-1 $-1 $34 $7 #
transform $-1 1 0 0 0 1 0 0 0 1 67.747428815576654 43.669355395441727 11.107585147963166 1 rotate no_reflect no_shear #
lump $-1 $-1 $35 $8 #
transform $-1 1 0 0 0 1 0 0 0 1 67.747428815576654 43.669355395441727 11.107585147963166 1 rotate no_reflect no_shear #
shell $-1 $-1 $-1 $36 $-1 $9 #
shell $-1 $-1 $-1 $37 $-1 $11 #
shell $-1 $-1 $-1 $38 $-1 $13 #
shell $-1 $-1 $-1 $39 $-1 $15 #
shell $-1 $-1 $-1 $40 $-1 $17 #
shell $-1 $-1 $-1 $41 $-1 $19 #
shell $-1 $-1 $-1 $42 $-1 $21 #
shell $-1 $-1 $-1 $43 $-1 $23 #
shell $-1 $-1 $-1 $44 $-1 $25 #
face $-1 $45 $46 $27 $-1 $47 forward single #
face $-1 $48 $49 $28 $-1 $50 reversed single #
face $-1 $51 $52 $29 $-1 $53 reversed single #
face $-1 $54 $55 $30 $-1 $56 forward single #
face $-1 $57 $58 $31 $-1 $59 forward single #
face $-1 $60 $61 $32 $-1 $62 reversed single #
face $-1 $63 $64 $33 $-1 $65 forward single #
face $-1 $66 $67 $34 $-1 $68 forward single #
face $-1 $69 $70 $35 $-1 $71 forward single #
face $-1 $72 $73 $27 $-1 $74 reversed single #
loop $-1 $-1 $75 $36 #
plane-surface $-1 0 0 11.107585147963166 0 0 1 1 0 0 forward_v I I I I #
face $-1 $76 $77 $28 $-1 $78 reversed single #
loop $-1 $-1 $79 $37 #
plane-surface $-1 -49.422947254573643 -39.352793974668693 0 1 0 0 0 0 -1 forward_v I I I I #
face $-1 $80 $81 $29 $-1 $82 reversed single #
loop $-1 $-1 $83 $38 #
plane-surface $-1 -161.87006692894118 26.860020855636002 98.388772216693965 0 1 0 -0.69465837861970381 0 0.71933979245794832 forward_v I I I I #
face $-1 $84 $85 $30 $-1 $86 forward single #
loop $-1 $87 $88 $39 #
cone-surface $-1 -61.266198227904368 29.496636948853123 4.7644030534675501 0.69465837861970381 0 -0.71933979245794832 0.71933979245794832 0 0.69465837861970381 1 I I 0 1 1 forward I I I I #
face $-1 $89 $90 $31 $-1 $91 forward single #
loop $-1 $92 $93 $40 #
cone-surface $-1 -61.266198227904368 33.451561088678815 4.7644030534675501 0.69465837861970381 0 -0.71933979245794832 0.71933979245794832 0 0.69465837861970381 1 I I 0 1 1 forward I I I I #
face $-1 $94 $95 $32 $-1 $96 reversed single #
loop $-1 $-1 $97 $41 #
plane-surface $-1 47.71782611529278 -17.928149721498563 193.31470480032138 0 -1 0 -0.62932039886446345 0 -0.77714595512881146 forward_v I I I I #
face $-1 $98 $99 $33 $-1 $100 forward single #
loop $-1 $101 $102 $42 #
cone-surface $-1 61.760825588696747 -31.614615987416236 5.9096071060614914 -0.62932039886446345 0 -0.77714595512881146 0.77714595512881146 0 -0.62932039886446345 1 I I 0 1 1 forward I I I I #
face $-1 $103 $104 $34 $-1 $105 forward single #
loop $-1 $106 $107 $43 #
cone-surface $-1 61.760825588696747 -26.482191137697111 5.9096071060614914 -0.62932039886446345 0 -0.77714595512881146 0.77714595512881146 0 -0.62932039886446345 1 I I 0 1 1 forward I I I I #
face $-1 $108 $109 $35 $-1 $110 forward single #
loop $-1 $111 $112 $44 #
cone-surface $-1 61.760825588696747 -21.349766287977985 5.9096071060614914 -0.62932039886446345 0 -0.77714595512881146 0.77714595512881146 0 -0.62932039886446345 1 I I 0 1 1 forward I I I I #
face $-1 $113 $114 $27 $-1 $115 reversed single #
loop $-1 $-1 $116 $45 #
plane-surface $-1 0 0 -11.107585147963166 0 0 1 1 0 0 forward_v I I I I #
coedge $-1 $117 $118 $119 $120 forward $46 $-1 #
face $-1 $121 $122 $28 $-1 $123 reversed single #
loop $-1 $-1 $124 $48 #
plane-surface $-1 -47.477602887111985 -35.036232553895658 0 0 -1 0 0 0 -1 forward_v I I I I #
coedge $-1 $125 $126 $127 $128 forward $49 $-1 #
face $-1 $129 $130 $29 $-1 $131 reversed single #
loop $-1 $-1 $132 $51 #
plane-surface $-1 -67.747428815576626 31.474099018765969 0.92192944918089381 -0.69465837861970381 0 0.71933979245794832 0.71933979245794832 0 0.69465837861970381 forward_v I I I I #
coedge $-1 $133 $134 $135 $136 reversed $52 $-1 #
face $-1 $-1 $137 $30 $-1 $138 forward single #
loop $-1 $139 $140 $54 #
cone-surface $-1 -59.711415952151619 29.496636948853123 3.1543789121340904 0.69465837861970381 0 -0.71933979245794832 0.35966989622897416 0 0.3473291893098519 1 I I -0.70710678118654779 0.70710678118654713 0.5 forward I I I I #
loop $-1 $-1 $141 $39 #
coedge $-1 $88 $88 $142 $143 reversed $55 $-1 #
face $-1 $-1 $144 $31 $-1 $145 forward single #
loop $-1 $146 $147 $57 #
cone-surface $-1 -59.711415952151619 33.451561088678815 3.1543789121340904 0.69465837861970381 0 -0.71933979245794832 0.35966989622897416 0 0.3473291893098519 1 I I -0.70710678118654779 0.70710678118654713 0.5 forward I I I I #
loop $-1 $-1 $148 $40 #
coedge $-1 $93 $93 $149 $150 reversed $58 $-1 #
face $-1 $151 $152 $32 $-1 $153 reversed single #
loop $-1 $-1 $154 $60 #
plane-surface $-1 -37.551851733228304 -26.482191137697111 88.015424251516407 0.62932039886446345 0 0.77714595512881146 0.77714595512881146 0 -0.62932039886446345 forward_v I I I I #
coedge $-1 $155 $156 $157 $158 reversed $61 $-1 #
face $-1 $-1 $159 $33 $-1 $160 forward single #
loop $-1 $161 $162 $63 #
cone-surface $-1 60.622567501013975 -31.614615987416236 4.5039754590793404 -0.62932039886446345 0 -0.77714595512881146 0.38857297756440573 0 -0.31466019943223172 1 I I -0.70710678118654746 0.70710678118654746 0.5 forward I I I I #
loop $-1 $-1 $163 $42 #
coedge $-1 $102 $102 $164 $165 reversed $64 $-1 #
face $-1 $-1 $166 $34 $-1 $167 forward single #
loop $-1 $168 $169 $66 #
cone-surface $-1 60.622567501013975 -26.482191137697111 4.5039754590793404 -0.62932039886446345 0 -0.77714595512881146 0.38857297756440573 0 -0.31466019943223172 1 I I -0.70710678118654746 0.70710678118654746 0.5 forward I I I I #
loop $-1 $-1 $170 $43 #
coedge $-1 $107 $107 $171 $172 reversed $67 $-1 #
face $-1 $-1 $173 $35 $-1 $174 forward single #
loop $-1 $175 $176 $69 #
cone-surface $-1 60.622567501013975 -21.349766287977985 4.5039754590793404 -0.62932039886446345 0 -0.77714595512881146 0.38857297756440573 0 -0.31466019943223172 1 I I -0.70710678118654746 0.70710678118654746 0.5 forward I I I I #
loop $-1 $-1 $177 $44 #
coedge $-1 $112 $112 $178 $179 reversed $70 $-1 #
face $-1 $180 $181 $27 $-1 $182 reversed single #
loop $-1 $-1 $183 $72 #
plane-surface $-1 0 -43.669355395441727 0 0 1 0 0 0 1 forward_v I I I I #
coedge $-1 $184 $185 $186 $187 forward $73 $-1 #
coedge $-1 $188 $75 $189 $190 forward $46 $-1 #
coedge $-1 $75 $188 $191 $192 forward $46 $-1 #
coedge $-1 $193 $194 $75 $120 reversed $195 $-1 #
edge $-1 $196 -43.669355395441727 $197 43.669355395441727 $119 $198 forward 7 unknown #
face $-1 $199 $200 $28 $-1 $201 forward single #
loop $-1 $-1 $202 $76 #
plane-surface $-1 -45.532258519650327 -39.352793974668693 0 -1 0 0 0 0 1 forward_v I I I I #
coedge $-1 $203 $204 $205 $206 forward $77 $-1 #
coedge $-1 $207 $79 $208 $209 reversed $49 $-1 #
coedge $-1 $79 $207 $210 $211 reversed $49 $-1 #
coedge $-1 $204 $203 $79 $128 reversed $77 $-1 #
edge $-1 $212 -11.107585147963166 $213 11.107585147963166 $127 $214 forward 7 unknown #
face $-1 $215 $216 $29 $-1 $217 reversed single #
loop $-1 $-1 $218 $80 #
plane-surface $-1 -161.87006692894118 36.088177181895936 98.388772216693965 0 -1 0 0.69465837861970381 0 -0.71933979245794832 forward_v I I I I #
coedge $-1 $219 $220 $221 $222 reversed $81 $-1 #
coedge $-1 $134 $83 $223 $224 reversed $52 $-1 #
coedge $-1 $83 $133 $219 $225 reversed $52 $-1 #
coedge $-1 $221 $226 $83 $136 forward $227 $-1 #
edge $-1 $228 13.187604648893938 $229 23.735159651352738 $135 $230 forward 7 unknown #
loop $-1 $-1 $142 $84 #
plane-surface $-1 -67.747428815576626 31.474099018765969 0.92192944918089381 -0.69465837861970381 0 0.71933979245794832 0.71933979245794832 0 0.69465837861970381 forward_v I I I I #
loop $-1 $-1 $231 $54 #
coedge $-1 $140 $140 $141 $232 reversed $85 $-1 #
coedge $-1 $141 $141 $140 $232 forward $87 $-1 #
coedge $-1 $142 $142 $88 $143 forward $137 $-1 #
edge $-1 $233 0 $233 6.2831853071796004 $142 $234 forward 7 unknown #
loop $-1 $-1 $149 $89 #
plane-surface $-1 -67.747428815576626 31.474099018765969 0.92192944918089381 -0.69465837861970381 0 0.71933979245794832 0.71933979245794832 0 0.69465837861970381 forward_v I I I I #
loop $-1 $-1 $235 $57 #
coedge $-1 $147 $147 $148 $236 reversed $90 $-1 #
coedge $-1 $148 $148 $147 $236 forward $92 $-1 #
coedge $-1 $149 $149 $93 $150 forward $144 $-1 #
edge $-1 $237 0 $237 6.2831853071796004 $149 $238 forward 7 unknown #
face $-1 $239 $240 $32 $-1 $241 forward single #
loop $-1 $-1 $242 $94 #
plane-surface $-1 47.71782611529278 -35.036232553895658 193.31470480032138 0 1 0 0.62932039886446345 0 0.77714595512881146 forward_v I I I I #
coedge $-1 $243 $244 $245 $246 reversed $95 $-1 #
coedge $-1 $156 $97 $247 $248 reversed $61 $-1 #
coedge $-1 $97 $155 $243 $249 reversed $61 $-1 #
coedge $-1 $245 $250 $97 $158 forward $240 $-1 #
edge $-1 $251 -43.888515757930264 $252 -33.562505080671599 $157 $253 forward 7 unknown #
loop $-1 $-1 $164 $98 #
plane-surface $-1 -37.551851733228304 -26.482191137697111 88.015424251516407 0.62932039886446345 0 0.77714595512881146 0.77714595512881146 0 -0.62932039886446345 forward_v I I I I #
loop $-1 $-1 $254 $63 #
coedge $-1 $162 $162 $163 $255 reversed $99 $-1 #
coedge $-1 $163 $163 $162 $255 forward $101 $-1 #
coedge $-1 $164 $164 $102 $165 forward $159 $-1 #
edge $-1 $256 0 $256 6.2831853071796004 $164 $257 forward 7 unknown #
loop $-1 $-1 $171 $103 #
plane-surface $-1 -37.551851733228304 -26.482191137697111 88.015424251516407 0.62932039886446345 0 0.77714595512881146 0.77714595512881146 0 -0.62932039886446345 forward_v I I I I #
loop $-1 $-1 $258 $66 #
coedge $-1 $169 $169 $170 $259 reversed $104 $-1 #
coedge $-1 $170 $170 $169 $259 forward $106 $-1 #
coedge $-1 $171 $171 $107 $172 forward $166 $-1 #
edge $-1 $260 0 $260 6.2831853071796004 $171 $261 forward 7 unknown #
loop $-1 $-1 $178 $108 #
plane-surface $-1 -37.551851733228304 -26.482191137697111 88.015424251516407 0.62932039886446345 0 0.77714595512881146 0.77714595512881146 0 -0.62932039886446345 forward_v I I I I #
loop $-1 $-1 $262 $69 #
coedge $-1 $176 $176 $177 $263 reversed $109 $-1 #
coedge $-1 $177 $177 $176 $263 forward $111 $-1 #
coedge $-1 $178 $178 $112 $179 forward $173 $-1 #
edge $-1 $264 0 $264 6.2831853071796004 $178 $265 forward 7 unknown #
face $-1 $266 $267 $27 $-1 $268 reversed single #
loop $-1 $-1 $269 $113 #
plane-surface $-1 -67.747428815576654 0 0 1 0 0 0 0 -1 forward_v I I I I #
coedge $-1 $270 $191 $271 $272 forward $114 $-1 #
coedge $-1 $273 $116 $270 $274 forward $73 $-1 #
coedge $-1 $116 $273 $275 $276 forward $73 $-1 #
coedge $-1 $194 $193 $116 $187 reversed $195 $-1 #
edge $-1 $277 -43.669355395441727 $278 43.669355395441727 $186 $279 forward 7 unknown #
coedge $-1 $118 $117 $280 $281 forward $46 $-1 #
coedge $-1 $282 $283 $117 $190 reversed $267 $-1 #
edge $-1 $197 -67.747428815576654 $284 67.747428815576654 $189 $285 forward 7 unknown #
coedge $-1 $183 $286 $118 $192 reversed $114 $-1 #
edge $-1 $287 -67.747428815576654 $196 67.747428815576654 $191 $288 forward 7 unknown #
coedge $-1 $186 $119 $286 $289 forward $195 $-1 #
coedge $-1 $119 $186 $282 $290 reversed $195 $-1 #
loop $-1 $-1 $193 $266 #
vertex $-1 $120 $291 #
vertex $-1 $120 $292 #
straight-curve $-1 67.747428815576654 0 11.107585147963166 0 1 0 I I #
face $-1 $293 $294 $28 $-1 $295 reversed single #
loop $-1 $-1 $296 $121 #
plane-surface $-1 0 0 11.107585147963166 0 0 1 1 0 0 forward_v I I I I #
coedge $-1 $297 $298 $299 $300 reversed $122 $-1 #
coedge $-1 $127 $124 $301 $302 reversed $77 $-1 #
coedge $-1 $124 $127 $303 $304 reversed $77 $-1 #
coedge $-1 $298 $297 $124 $206 reversed $122 $-1 #
edge $-1 $305 -11.107585147963166 $306 11.107585147963166 $205 $307 forward 7 unknown #
coedge $-1 $126 $125 $308 $309 reversed $49 $-1 #
coedge $-1 $301 $310 $125 $209 forward $294 $-1 #
edge $-1 $311 -23.992958408107381 $213 -15.359835566561312 $208 $312 forward 7 unknown #
coedge $-1 $313 $303 $126 $211 forward $200 $-1 #
edge $-1 $212 15.359835566561312 $314 23.992958408107381 $210 $315 forward 7 unknown #
vertex $-1 $211 $316 #
vertex $-1 $209 $317 #
straight-curve $-1 -49.422947254573643 -35.036232553895658 0 0 0 -1 I I #
face $-1 $-1 $227 $29 $-1 $318 forward single #
loop $-1 $-1 $319 $129 #
plane-surface $-1 -67.747428815576654 0 0 1 0 0 0 0 -1 forward_v I I I I #
coedge $-1 $320 $321 $322 $323 reversed $130 $-1 #
coedge $-1 $324 $132 $134 $225 forward $81 $-1 #
coedge $-1 $132 $324 $320 $325 forward $81 $-1 #
coedge $-1 $322 $135 $132 $222 forward $227 $-1 #
edge $-1 $229 11.122971346253017 $326 20.351127672512952 $221 $327 forward 7 unknown #
coedge $-1 $328 $329 $133 $224 forward $216 $-1 #
edge $-1 $330 -48.272456659166117 $228 -38.086800960383819 $223 $331 forward 7 unknown #
edge $-1 $229 -14.662827099302127 $330 3.9494141999918586e-014 $134 $332 forward 7 unknown #
coedge $-1 $135 $322 $328 $333 forward $227 $-1 #
loop $-1 $-1 $322 $215 #
vertex $-1 $224 $334 #
vertex $-1 $136 $335 #
straight-curve $-1 -80.935033464470592 26.860020855636002 11.107585147963164 1 0 0 I I #
coedge $-1 $231 $231 $-1 $336 reversed $139 $-1 #
edge $-1 $337 0 $337 6.2831853071796004 $140 $338 forward 7 unknown #
vertex $-1 $143 $339 #
ellipse-curve $-1 -62.473651314347251 29.496636948853123 6.0147572985720172 -0.69465837861970381 0 0.71933979245794832 0.71933979245794832 0 0.69465837861970381 1 I I #
coedge $-1 $235 $235 $-1 $340 reversed $146 $-1 #
edge $-1 $341 0 $341 6.2831853071796004 $147 $342 forward 7 unknown #
vertex $-1 $150 $343 #
ellipse-curve $-1 -62.473651314347251 33.451561088678815 6.0147572985720172 -0.69465837861970381 0 0.71933979245794832 0.71933979245794832 0 0.69465837861970381 1 I I #
face $-1 $-1 $344 $32 $-1 $345 reversed single #
loop $-1 $-1 $157 $151 #
plane-surface $-1 0 0 11.107585147963166 0 0 1 1 0 0 forward_v I I I I #
coedge $-1 $346 $347 $348 $349 reversed $152 $-1 #
coedge $-1 $350 $154 $156 $249 forward $95 $-1 #
coedge $-1 $154 $350 $346 $351 forward $95 $-1 #
coedge $-1 $348 $157 $154 $246 forward $240 $-1 #
edge $-1 $252 4.687054152650008 $352 21.795136985047101 $245 $353 forward 7 unknown #
coedge $-1 $354 $355 $155 $248 forward $344 $-1 #
edge $-1 $356 -93.911605997165367 $251 -85.549767252197526 $247 $357 forward 7 unknown #
edge $-1 $252 122.20776450648131 $356 135.49485763115331 $156 $358 forward 7 unknown #
coedge $-1 $157 $348 $354 $359 forward $240 $-1 #
vertex $-1 $248 $360 #
vertex $-1 $158 $361 #
straight-curve $-1 23.85891305764639 -17.928149721498563 11.107585147963164 -1 0 0 I I #
coedge $-1 $254 $254 $-1 $362 reversed $161 $-1 #
edge $-1 $363 0 $363 6.2831853071796004 $162 $364 forward 7 unknown #
vertex $-1 $165 $365 #
ellipse-curve $-1 62.584423476947308 -31.614615987416236 6.9266657754792629 0.62932039886446345 0 0.77714595512881146 0.77714595512881146 0 -0.62932039886446345 1 I I #
coedge $-1 $258 $258 $-1 $366 reversed $168 $-1 #
edge $-1 $367 0 $367 6.2831853071796004 $169 $368 forward 7 unknown #
vertex $-1 $172 $369 #
ellipse-curve $-1 62.584423476947308 -26.482191137697111 6.9266657754792629 0.62932039886446345 0 0.77714595512881146 0.77714595512881146 0 -0.62932039886446345 1 I I #
coedge $-1 $262 $262 $-1 $370 reversed $175 $-1 #
edge $-1 $371 0 $371 6.2831853071796004 $176 $372 forward 7 unknown #
vertex $-1 $179 $373 #
ellipse-curve $-1 62.584423476947308 -21.349766287977985 6.9266657754792629 0.62932039886446345 0 0.77714595512881146 0.77714595512881146 0 -0.62932039886446345 1 I I #
face $-1 $-1 $195 $27 $-1 $374 reversed single #
loop $-1 $-1 $282 $180 #
plane-surface $-1 0 43.669355395441727 0 0 -1 0 0 0 -1 forward_v I I I I #
coedge $-1 $375 $280 $283 $376 forward $181 $-1 #
coedge $-1 $286 $183 $184 $274 reversed $114 $-1 #
coedge $-1 $280 $375 $183 $272 reversed $181 $-1 #
edge $-1 $287 -11.107585147963166 $377 11.107585147963166 $271 $378 forward 7 unknown #
coedge $-1 $185 $184 $375 $379 forward $73 $-1 #
edge $-1 $278 -67.747428815576654 $377 67.747428815576654 $270 $380 forward 7 unknown #
coedge $-1 $283 $282 $185 $276 reversed $267 $-1 #
edge $-1 $381 -67.747428815576654 $277 67.747428815576654 $275 $382 forward 7 unknown #
vertex $-1 $187 $383 #
vertex $-1 $289 $384 #
straight-curve $-1 67.747428815576654 0 -11.107585147963166 0 -1 0 I I #
coedge $-1 $269 $271 $188 $281 reversed $181 $-1 #
edge $-1 $284 -43.669355395441727 $287 43.669355395441727 $280 $385 forward 7 unknown #
coedge $-1 $275 $189 $194 $290 forward $267 $-1 #
coedge $-1 $189 $275 $269 $376 reversed $267 $-1 #
vertex $-1 $190 $386 #
straight-curve $-1 0 43.669355395441727 11.107585147963166 -1 0 0 I I #
coedge $-1 $191 $270 $193 $289 reversed $114 $-1 #
vertex $-1 $281 $387 #
straight-curve $-1 0 -43.669355395441727 11.107585147963166 1 0 0 I I #
edge $-1 $196 -11.107585147963166 $278 11.107585147963166 $193 $388 forward 7 unknown #
edge $-1 $197 -11.107585147963166 $277 11.107585147963166 $194 $389 forward 7 unknown #
point $-1 67.747428815576654 -43.669355395441727 11.107585147963166 #
point $-1 67.747428815576654 43.669355395441727 11.107585147963166 #
face $-1 $-1 $390 $28 $-1 $391 reversed single #
loop $-1 $-1 $392 $199 #
plane-surface $-1 0 0 -11.107585147963166 0 0 1 1 0 0 forward_v I I I I #
coedge $-1 $303 $313 $298 $393 forward $200 $-1 #
coedge $-1 $205 $202 $392 $394 reversed $122 $-1 #
coedge $-1 $202 $205 $296 $393 reversed $122 $-1 #
coedge $-1 $395 $396 $202 $300 forward $390 $-1 #
edge $-1 $397 -11.107585147963166 $398 11.107585147963166 $299 $399 forward 7 unknown #
coedge $-1 $392 $208 $203 $302 forward $294 $-1 #
edge $-1 $213 -25.68414581101765 $306 -21.793457076094334 $301 $400 forward 7 unknown #
coedge $-1 $210 $296 $204 $304 forward $200 $-1 #
edge $-1 $305 21.793457076094334 $212 25.68414581101765 $303 $401 forward 7 unknown #
vertex $-1 $304 $402 #
vertex $-1 $302 $403 #
straight-curve $-1 -45.532258519650327 -35.036232553895658 0 0 0 -1 I I #
coedge $-1 $396 $395 $207 $309 forward $390 $-1 #
edge $-1 $314 -11.107585147963166 $311 11.107585147963166 $308 $404 forward 7 unknown #
coedge $-1 $208 $392 $396 $405 forward $294 $-1 #
vertex $-1 $209 $406 #
straight-curve $-1 -49.422947254573643 -19.676396987334346 -11.107585147963166 0 1 0 I I #
coedge $-1 $296 $210 $395 $407 forward $200 $-1 #
vertex $-1 $407 $408 #
straight-curve $-1 -49.422947254573643 -19.676396987334346 11.107585147963166 0 -1 0 I I #
point $-1 -49.422947254573643 -35.036232553895658 11.107585147963166 #
point $-1 -49.422947254573643 -35.036232553895658 -11.107585147963166 #
plane-surface $-1 0 0 11.107585147963166 0 0 1 1 0 0 forward_v I I I I #
coedge $-1 $329 $328 $321 $409 forward $216 $-1 #
coedge $-1 $321 $218 $220 $325 reversed $130 $-1 #
coedge $-1 $218 $320 $319 $409 reversed $130 $-1 #
coedge $-1 $226 $221 $218 $323 forward $227 $-1 #
edge $-1 $326 -23.735159651352738 $410 -13.187604648893938 $322 $411 forward 7 unknown #
coedge $-1 $220 $219 $329 $412 reversed $81 $-1 #
edge $-1 $413 -3.9494141999918586e-014 $326 14.662827099302127 $320 $414 forward 7 unknown #
vertex $-1 $222 $415 #
straight-curve $-1 -57.199873813117847 15.737049509382985 11.107585147963166 0 1 0 I I #
coedge $-1 $319 $223 $226 $333 reversed $216 $-1 #
coedge $-1 $223 $319 $324 $412 forward $216 $-1 #
vertex $-1 $224 $416 #
straight-curve $-1 -67.747428815576654 26.860020855636002 49.194386108346983 0 0 1 I I #
straight-curve $-1 -67.747428815576626 26.860020855636002 0.92192944918089381 -0.71933979245794832 0 -0.69465837861970381 I I #
edge $-1 $410 -36.088177181895936 $228 -26.860020855636002 $328 $417 forward 7 unknown #
point $-1 -67.747428815576654 26.860020855636002 11.107585147963166 #
point $-1 -57.199873813117854 26.860020855636002 11.107585147963166 #
edge $-1 $418 1 $418 0 $231 $-1 forward 7 unknown #
vertex $-1 $232 $419 #
ellipse-curve $-1 -60.058745141461472 29.496636948853123 3.5140488083630643 -0.69465837861970381 0 0.71933979245794832 0.71933979245794832 0 0.69465837861970381 1 I I #
point $-1 -61.754311521889328 29.496636948853123 6.7094156771917399 #
edge $-1 $420 1 $420 0 $235 $-1 forward 7 unknown #
vertex $-1 $236 $421 #
ellipse-curve $-1 -60.058745141461472 33.451561088678815 3.5140488083630643 -0.69465837861970381 0 0.71933979245794832 0.71933979245794832 0 0.69465837861970381 1 I I #
point $-1 -61.754311521889328 33.451561088678815 6.7094156771917399 #
loop $-1 $-1 $247 $239 #
plane-surface $-1 67.747428815576654 0 0 -1 0 0 0 0 1 forward_v I I I I #
coedge $-1 $347 $242 $244 $351 reversed $152 $-1 #
coedge $-1 $242 $346 $422 $423 reversed $152 $-1 #
coedge $-1 $250 $245 $242 $349 forward $240 $-1 #
edge $-1 $352 33.562505080671599 $424 43.888515757930264 $348 $425 forward 7 unknown #
coedge $-1 $244 $243 $355 $426 reversed $95 $-1 #
edge $-1 $427 -135.49485763115331 $352 -122.20776450648131 $346 $428 forward 7 unknown #
vertex $-1 $246 $429 #
straight-curve $-1 57.421418138317996 -13.241095568848555 11.107585147963157 0 -1 0 I I #
coedge $-1 $422 $247 $250 $359 reversed $344 $-1 #
coedge $-1 $247 $422 $350 $426 forward $344 $-1 #
vertex $-1 $248 $430 #
straight-curve $-1 67.747428815576654 -17.928149721498563 96.65735240016069 0 0 1 I I #
straight-curve $-1 -37.551851733228304 -17.928149721498563 88.015424251516407 0.77714595512881146 0 -0.62932039886446345 I I #
edge $-1 $424 -35.036232553895658 $251 -17.928149721498563 $354 $431 forward 7 unknown #
point $-1 67.747428815576654 -17.928149721498563 11.107585147963166 #
point $-1 57.421418138317989 -17.928149721498563 11.107585147963164 #
edge $-1 $432 1 $432 0 $254 $-1 forward 7 unknown #
vertex $-1 $255 $433 #
ellipse-curve $-1 60.937227700446208 -31.614615987416236 4.8925484366437457 0.62932039886446345 0 0.77714595512881146 0.77714595512881146 0 -0.62932039886446345 1 I I #
point $-1 63.361569432076095 -31.614615987416236 6.2973453766147731 #
edge $-1 $434 1 $434 0 $258 $-1 forward 7 unknown #
vertex $-1 $259 $435 #
ellipse-curve $-1 60.937227700446208 -26.482191137697111 4.8925484366437457 0.62932039886446345 0 0.77714595512881146 0.77714595512881146 0 -0.62932039886446345 1 I I #
point $-1 63.361569432076095 -26.482191137697111 6.2973453766147731 #
edge $-1 $436 1 $436 0 $262 $-1 forward 7 unknown #
vertex $-1 $263 $437 #
ellipse-curve $-1 60.937227700446208 -21.349766287977985 4.8925484366437457 0.62932039886446345 0 0.77714595512881146 0.77714595512881146 0 -0.62932039886446345 1 I I #
point $-1 63.361569432076095 -21.349766287977985 6.2973453766147731 #
plane-surface $-1 67.747428815576654 0 0 -1 0 0 0 0 1 forward_v I I I I #
coedge $-1 $271 $269 $273 $379 reversed $181 $-1 #
edge $-1 $284 -11.107585147963166 $381 11.107585147963166 $283 $438 forward 7 unknown #
vertex $-1 $379 $439 #
straight-curve $-1 -67.747428815576654 -43.669355395441727 0 0 0 -1 I I #
edge $-1 $377 -43.669355395441727 $381 43.669355395441727 $375 $440 forward 7 unknown #
straight-curve $-1 0 -43.669355395441727 -11.107585147963166 -1 0 0 I I #
vertex $-1 $276 $441 #
straight-curve $-1 0 43.669355395441727 -11.107585147963166 1 0 0 I I #
point $-1 67.747428815576654 43.669355395441727 -11.107585147963166 #
point $-1 67.747428815576654 -43.669355395441727 -11.107585147963166 #
straight-curve $-1 -67.747428815576654 0 11.107585147963166 0 -1 0 I I #
point $-1 -67.747428815576654 43.669355395441727 11.107585147963166 #
point $-1 -67.747428815576654 -43.669355395441727 11.107585147963166 #
straight-curve $-1 67.747428815576654 -43.669355395441727 0 0 0 -1 I I #
straight-curve $-1 67.747428815576654 43.669355395441727 0 0 0 -1 I I #
loop $-1 $-1 $299 $293 #
plane-surface $-1 0 -43.669355395441727 0 0 1 0 0 0 1 forward_v I I I I #
coedge $-1 $310 $301 $297 $394 forward $294 $-1 #
edge $-1 $398 -23.992958408107381 $305 -15.359835566561312 $296 $442 forward 7 unknown #
edge $-1 $306 15.359835566561312 $397 23.992958408107381 $392 $443 forward 7 unknown #
coedge $-1 $308 $299 $313 $407 reversed $390 $-1 #
coedge $-1 $299 $308 $310 $405 reversed $390 $-1 #
vertex $-1 $405 $444 #
vertex $-1 $300 $445 #
straight-curve $-1 -45.532258519650327 -43.669355395441727 0 0 0 1 I I #
straight-curve $-1 -23.738801443555992 -35.036232553895658 -11.107585147963166 1 0 0 I I #
straight-curve $-1 -23.738801443555992 -35.036232553895658 11.107585147963166 -1 0 0 I I #
point $-1 -45.532258519650327 -35.036232553895658 11.107585147963166 #
point $-1 -45.532258519650327 -35.036232553895658 -11.107585147963166 #
straight-curve $-1 -49.422947254573643 -43.669355395441727 0 0 0 -1 I I #
edge $-1 $397 45.532258519650327 $311 49.422947254573643 $396 $446 forward 7 unknown #
point $-1 -49.422947254573643 -43.669355395441727 -11.107585147963166 #
edge $-1 $314 -49.422947254573643 $398 -45.532258519650327 $395 $447 forward 7 unknown #
point $-1 -49.422947254573643 -43.669355395441727 11.107585147963166 #
edge $-1 $410 38.086800960383819 $413 48.272456659166117 $319 $448 forward 7 unknown #
vertex $-1 $333 $449 #
straight-curve $-1 -80.935033464470592 36.088177181895936 11.107585147963164 -1 0 0 I I #
edge $-1 $413 -20.351127672512952 $330 -11.122971346253017 $329 $450 forward 7 unknown #
vertex $-1 $412 $451 #
straight-curve $-1 -67.747428815576626 36.088177181895936 0.92192944918089381 0.71933979245794832 0 0.69465837861970381 I I #
point $-1 -57.199873813117854 36.088177181895936 11.107585147963166 #
point $-1 -67.747428815576654 26.860020855636002 0.92192944918086639 #
straight-curve $-1 -67.747428815576654 0 11.107585147963166 0 -1 0 I I #
vertex $-1 $336 $452 #
point $-1 -59.33940534900352 29.496636948853123 4.2087071869827675 #
vertex $-1 $340 $453 #
point $-1 -59.33940534900352 33.451561088678815 4.2087071869827675 #
coedge $-1 $355 $354 $347 $423 forward $344 $-1 #
edge $-1 $424 85.549767252197526 $427 93.911605997165367 $422 $454 forward 7 unknown #
vertex $-1 $359 $455 #
straight-curve $-1 23.85891305764639 -35.036232553895658 11.107585147963164 1 0 0 I I #
edge $-1 $427 -21.795136985047101 $356 -4.687054152650008 $355 $456 forward 7 unknown #
vertex $-1 $426 $457 #
straight-curve $-1 -37.551851733228304 -35.036232553895658 88.015424251516407 -0.77714595512881146 0 0.62932039886446345 I I #
point $-1 57.421418138317989 -35.036232553895658 11.107585147963164 #
point $-1 67.747428815576669 -17.928149721498563 2.7457464029953229 #
straight-curve $-1 67.747428815576654 0 11.107585147963166 0 1 0 I I #
vertex $-1 $362 $458 #
point $-1 61.714373655575017 -31.614615987416236 4.2632280377792826 #
vertex $-1 $366 $459 #
point $-1 61.714373655575017 -26.482191137697111 4.2632280377792826 #
vertex $-1 $370 $460 #
point $-1 61.714373655575017 -21.349766287977985 4.2632280377792826 #
straight-curve $-1 -67.747428815576654 43.669355395441727 0 0 0 -1 I I #
point $-1 -67.747428815576654 -43.669355395441727 -11.107585147963166 #
straight-curve $-1 -67.747428815576654 0 -11.107585147963166 0 1 0 I I #
point $-1 -67.747428815576654 43.669355395441727 -11.107585147963166 #
straight-curve $-1 -45.532258519650327 -19.676396987334346 11.107585147963166 0 1 0 I I #
straight-curve $-1 -45.532258519650327 -19.676396987334346 -11.107585147963166 0 -1 0 I I #
point $-1 -45.532258519650327 -43.669355395441727 -11.107585147963166 #
point $-1 -45.532258519650327 -43.669355395441727 11.107585147963166 #
straight-curve $-1 0 -43.669355395441727 -11.107585147963166 -1 0 0 I I #
straight-curve $-1 0 -43.669355395441727 11.107585147963166 1 0 0 I I #
straight-curve $-1 -67.747428815576654 36.088177181895936 49.194386108346983 0 0 -1 I I #
point $-1 -67.747428815576654 36.088177181895936 11.107585147963166 #
straight-curve $-1 -67.747428815576654 15.737049509382985 0.92192944918086106 0 -1 0 I I #
point $-1 -67.747428815576654 36.088177181895936 0.92192944918086639 #
point $-1 -59.364086762841765 29.496636948853123 2.7947090159051164 #
point $-1 -59.364086762841765 33.451561088678815 2.7947090159051164 #
straight-curve $-1 67.747428815576654 -35.036232553895658 96.65735240016069 0 0 -1 I I #
point $-1 67.747428815576654 -35.036232553895658 11.107585147963166 #
straight-curve $-1 67.747428815576654 -13.241095568848555 2.74574640299533 0 1 0 I I #
point $-1 67.747428815576669 -35.036232553895658 2.7457464029953229 #
point $-1 60.307907301581743 -31.614615987416236 4.115402481514935 #
point $-1 60.307907301581743 -26.482191137697111 4.115402481514935 #
point $-1 60.307907301581743 -21.349766287977985 4.115402481514935 #
End-of-ACIS-data 