500 0 12 0           
7 Unknown 11 ACIS 5.0 NT 24 Fri Mar 26 14:30:05 1999 
-1 9.9999999999999995e-007 1e-010 
body $-1 $12 $-1 $13 #
body $-1 $14 $-1 $15 #
body $-1 $16 $-1 $17 #
body $-1 $18 $-1 $19 #
body $-1 $20 $-1 $21 #
body $-1 $22 $-1 $23 #
body $-1 $24 $-1 $25 #
body $-1 $26 $-1 $27 #
body $-1 $28 $-1 $29 #
body $-1 $30 $-1 $31 #
body $-1 $32 $-1 $33 #
body $-1 $34 $-1 $35 #
lump $-1 $-1 $36 $0 #
transform $-1 1 0 0 0 1 0 0 0 1 68.406628620258189 27.516721371873384 12.005174272531129 1 rotate no_reflect no_shear #
lump $-1 $-1 $37 $1 #
transform $-1 1 0 0 0 1 0 0 0 1 68.406628620258189 27.516721371873384 12.005174272531129 1 rotate no_reflect no_shear #
lump $-1 $-1 $38 $2 #
transform $-1 1 0 0 0 1 0 0 0 1 68.406628620258189 27.516721371873384 12.005174272531129 1 rotate no_reflect no_shear #
lump $-1 $-1 $39 $3 #
transform $-1 1 0 0 0 1 0 0 0 1 68.406628620258189 27.516721371873384 12.005174272531129 1 rotate no_reflect no_shear #
lump $-1 $-1 $40 $4 #
transform $-1 1 0 0 0 1 0 0 0 1 68.406628620258189 27.516721371873384 12.005174272531129 1 rotate no_reflect no_shear #
lump $-1 $-1 $41 $5 #
transform $-1 1 0 0 0 1 0 0 0 1 68.406628620258189 27.516721371873384 12.005174272531129 1 rotate no_reflect no_shear #
lump $-1 $-1 $42 $6 #
transform $-1 1 0 0 0 1 0 0 0 1 68.406628620258189 27.516721371873384 12.005174272531129 1 rotate no_reflect no_shear #
lump $-1 $-1 $43 $7 #
transform $-1 1 0 0 0 1 0 0 0 1 68.406628620258189 27.516721371873384 12.005174272531129 1 rotate no_reflect no_shear #
lump $-1 $-1 $44 $8 #
transform $-1 1 0 0 0 1 0 0 0 1 68.406628620258189 27.516721371873384 12.005174272531129 1 rotate no_reflect no_shear #
lump $-1 $-1 $45 $9 #
transform $-1 1 0 0 0 1 0 0 0 1 68.406628620258189 27.516721371873384 12.005174272531129 1 rotate no_reflect no_shear #
lump $-1 $-1 $46 $10 #
transform $-1 1 0 0 0 1 0 0 0 1 68.406628620258189 27.516721371873384 12.005174272531129 1 rotate no_reflect no_shear #
lump $-1 $-1 $47 $11 #
transform $-1 1 0 0 0 1 0 0 0 1 68.406628620258189 27.516721371873384 12.005174272531129 1 rotate no_reflect no_shear #
shell $-1 $-1 $-1 $48 $-1 $12 #
shell $-1 $-1 $-1 $49 $-1 $14 #
shell $-1 $-1 $-1 $50 $-1 $16 #
shell $-1 $-1 $-1 $51 $-1 $18 #
shell $-1 $-1 $-1 $52 $-1 $20 #
shell $-1 $-1 $-1 $53 $-1 $22 #
shell $-1 $-1 $-1 $54 $-1 $24 #
shell $-1 $-1 $-1 $55 $-1 $26 #
shell $-1 $-1 $-1 $56 $-1 $28 #
shell $-1 $-1 $-1 $57 $-1 $30 #
shell $-1 $-1 $-1 $58 $-1 $32 #
shell $-1 $-1 $-1 $59 $-1 $34 #
face $-1 $60 $61 $36 $-1 $62 forward single #
face $-1 $63 $64 $37 $-1 $65 forward single #
face $-1 $66 $67 $38 $-1 $68 forward single #
face $-1 $69 $70 $39 $-1 $71 reversed single #
face $-1 $72 $73 $40 $-1 $74 forward single #
face $-1 $75 $76 $41 $-1 $77 forward single #
face $-1 $78 $79 $42 $-1 $80 reversed single #
face $-1 $81 $82 $43 $-1 $83 forward single #
face $-1 $84 $85 $44 $-1 $86 forward single #
face $-1 $87 $88 $45 $-1 $89 reversed single #
face $-1 $90 $91 $46 $-1 $92 forward single #
face $-1 $93 $94 $47 $-1 $95 forward single #
face $-1 $96 $97 $36 $-1 $98 reversed single #
loop $-1 $-1 $99 $48 #
plane-surface $-1 0 0 12.005174272531129 0 0 1 1 0 0 forward_v I I I I #
face $-1 $100 $101 $37 $-1 $102 reversed single #
loop $-1 $-1 $103 $49 #
plane-surface $-1 -68.406628620258189 0 0 1 0 0 0 0 -1 forward_v I I I I #
face $-1 $104 $105 $38 $-1 $106 forward single #
loop $-1 $-1 $107 $50 #
plane-surface $-1 68.406628620258189 0 0 -1 0 0 0 0 1 forward_v I I I I #
face $-1 $108 $109 $39 $-1 $110 reversed single #
loop $-1 $-1 $111 $51 #
plane-surface $-1 -33.298827720663247 -133.84059284228309 89.266448645451021 -1 0 0 0 -0.77714596973225614 0.62932038083071107 forward_v I I I I #
face $-1 $112 $113 $40 $-1 $114 forward single #
loop $-1 $115 $116 $52 #
cone-surface $-1 -47.322137781098007 -21.836475561588742 5.8841452682293944 0 0.77714596973225614 -0.62932038083071107 2.5 0 0 1 I I 0 1 2.5 forward I I I I #
face $-1 $117 $118 $41 $-1 $119 forward single #
loop $-1 $120 $121 $53 #
cone-surface $-1 -38.908151744837156 -21.836475561588742 5.8841452682293944 0 0.77714596973225614 -0.62932038083071107 2.5 0 0 1 I I 0 1 2.5 forward I I I I #
face $-1 $122 $123 $42 $-1 $124 reversed single #
loop $-1 $-1 $125 $54 #
plane-surface $-1 52.931461805271908 -133.84059284228309 89.266448645451021 -1 0 0 0 -0.77714596973225614 0.62932038083071107 forward_v I I I I #
face $-1 $126 $127 $43 $-1 $128 forward single #
loop $-1 $129 $130 $55 #
cone-surface $-1 38.908151744837141 -21.836475561588742 5.8841452682293944 0 0.77714596973225614 -0.62932038083071107 2.5 0 0 1 I I 0 1 2.5 forward I I I I #
face $-1 $131 $132 $44 $-1 $133 forward single #
loop $-1 $134 $135 $56 #
cone-surface $-1 47.322137781097993 -21.836475561588742 5.8841452682293944 0 0.77714596973225614 -0.62932038083071107 2.5 0 0 1 I I 0 1 2.5 forward I I I I #
face $-1 $136 $137 $45 $-1 $138 reversed single #
loop $-1 $-1 $139 $57 #
plane-surface $-1 -0.40580922897952121 120.49555167515905 122.36731686304341 1 0 0 0 -0.87461971476443456 -0.48480960649040278 forward_v I I I I #
face $-1 $140 $141 $46 $-1 $142 forward single #
loop $-1 $143 $144 $58 #
cone-surface $-1 6.3855643906452286 25.34606765223257 9.3819892074677771 0 -0.87461971476443456 -0.48480960649040278 1 0 0 1 I I 0 1 1 forward I I I I #
face $-1 $145 $146 $47 $-1 $147 forward single #
loop $-1 $148 $149 $59 #
cone-surface $-1 16.572624820082339 25.34606765223257 9.3819892074677771 0 -0.87461971476443456 -0.48480960649040278 1 0 0 1 I I 0 1 1 forward I I I I #
face $-1 $150 $151 $36 $-1 $152 reversed single #
loop $-1 $-1 $153 $60 #
plane-surface $-1 0 0 -12.005174272531129 0 0 1 1 0 0 forward_v I I I I #
coedge $-1 $154 $155 $156 $157 forward $61 $-1 #
face $-1 $158 $159 $37 $-1 $160 reversed single #
loop $-1 $-1 $161 $63 #
plane-surface $-1 0 27.516721371873384 0 0 -1 0 0 0 -1 forward_v I I I I #
coedge $-1 $162 $163 $164 $165 forward $64 $-1 #
face $-1 $166 $167 $38 $-1 $168 reversed single #
loop $-1 $-1 $169 $66 #
plane-surface $-1 0 0 12.005174272531129 0 0 1 1 0 0 forward_v I I I I #
coedge $-1 $170 $171 $172 $173 forward $67 $-1 #
face $-1 $174 $175 $39 $-1 $176 reversed single #
loop $-1 $-1 $177 $69 #
plane-surface $-1 -43.115144762967581 -27.516721371873373 3.1670774961592087 0 -0.77714596973225614 0.62932038083071107 1 0 0 forward_v I I I I #
coedge $-1 $178 $179 $180 $181 reversed $70 $-1 #
face $-1 $-1 $182 $40 $-1 $183 forward single #
loop $-1 $184 $185 $72 #
cone-surface $-1 -47.322137781098007 -18.763272019594687 3.395514176075233 0 0.77714596973225614 -0.62932038083071107 1.25 0 0 1 I I -0.70710678118654746 0.70710678118654746 1.25 forward I I I I #
loop $-1 $-1 $186 $52 #
coedge $-1 $116 $116 $187 $188 reversed $73 $-1 #
face $-1 $-1 $189 $41 $-1 $190 forward single #
loop $-1 $191 $192 $75 #
cone-surface $-1 -38.908151744837156 -18.763272019594687 3.395514176075233 0 0.77714596973225614 -0.62932038083071107 1.25 0 0 1 I I -0.70710678118654746 0.70710678118654746 1.25 forward I I I I #
loop $-1 $-1 $193 $53 #
coedge $-1 $121 $121 $194 $195 reversed $76 $-1 #
face $-1 $196 $197 $42 $-1 $198 reversed single #
loop $-1 $-1 $199 $78 #
plane-surface $-1 43.115144762967574 -27.516721371873373 3.1670774961592087 0 -0.77714596973225614 0.62932038083071107 1 0 0 forward_v I I I I #
coedge $-1 $200 $201 $202 $203 reversed $79 $-1 #
face $-1 $-1 $204 $43 $-1 $205 forward single #
loop $-1 $206 $207 $81 #
cone-surface $-1 38.908151744837141 -18.763272019594687 3.395514176075233 0 0.77714596973225614 -0.62932038083071107 1.25 0 0 1 I I -0.70710678118654746 0.70710678118654746 1.25 forward I I I I #
loop $-1 $-1 $208 $55 #
coedge $-1 $130 $130 $209 $210 reversed $82 $-1 #
face $-1 $-1 $211 $44 $-1 $212 forward single #
loop $-1 $213 $214 $84 #
cone-surface $-1 47.322137781097993 -18.763272019594687 3.395514176075233 0 0.77714596973225614 -0.62932038083071107 1.25 0 0 1 I I -0.70710678118654746 0.70710678118654746 1.25 forward I I I I #
loop $-1 $-1 $215 $56 #
coedge $-1 $135 $135 $216 $217 reversed $85 $-1 #
face $-1 $218 $219 $45 $-1 $220 reversed single #
loop $-1 $-1 $221 $87 #
plane-surface $-1 11.479094605363784 0.83597965146540787 56.038935457598413 0 0.87461971476443456 0.48480960649040278 1 0 0 forward_v I I I I #
coedge $-1 $222 $223 $224 $225 reversed $88 $-1 #
face $-1 $-1 $226 $46 $-1 $227 forward single #
loop $-1 $228 $229 $90 #
cone-surface $-1 6.3855643906452286 23.874319190893988 8.5661857441459048 0 -0.87461971476443456 -0.48480960649040278 0.5 0 0 1 I I -0.70710678118654746 0.70710678118654746 0.5 forward I I I I #
loop $-1 $-1 $230 $58 #
coedge $-1 $144 $144 $231 $232 reversed $91 $-1 #
face $-1 $-1 $233 $47 $-1 $234 forward single #
loop $-1 $235 $236 $93 #
cone-surface $-1 16.572624820082339 23.874319190893988 8.5661857441459048 0 -0.87461971476443456 -0.48480960649040278 0.5 0 0 1 I I -0.70710678118654746 0.70710678118654746 0.5 forward I I I I #
loop $-1 $-1 $237 $59 #
coedge $-1 $149 $149 $238 $239 reversed $94 $-1 #
face $-1 $240 $241 $36 $-1 $242 reversed single #
loop $-1 $-1 $243 $96 #
plane-surface $-1 0 -27.516721371873384 0 0 1 0 0 0 1 forward_v I I I I #
coedge $-1 $244 $245 $246 $247 forward $97 $-1 #
coedge $-1 $248 $99 $249 $250 forward $61 $-1 #
coedge $-1 $99 $248 $251 $252 forward $61 $-1 #
coedge $-1 $253 $254 $99 $157 reversed $255 $-1 #
edge $-1 $256 -27.516721371873384 $257 27.516721371873384 $156 $258 forward 7 unknown #
face $-1 $259 $260 $37 $-1 $261 reversed single #
loop $-1 $-1 $164 $100 #
plane-surface $-1 -76.144212027751323 0 9.0051742725311286 0 0 1 1 0 0 forward_v I I I I #
coedge $-1 $262 $263 $162 $264 forward $101 $-1 #
coedge $-1 $265 $103 $161 $264 reversed $64 $-1 #
coedge $-1 $103 $265 $266 $267 reversed $64 $-1 #
coedge $-1 $268 $269 $103 $165 reversed $159 $-1 #
edge $-1 $270 -27.516721371873384 $271 27.516721371873384 $164 $272 forward 7 unknown #
face $-1 $273 $274 $38 $-1 $275 reversed single #
loop $-1 $-1 $276 $104 #
plane-surface $-1 0 -27.516721371873384 0 0 1 0 0 0 1 forward_v I I I I #
coedge $-1 $277 $278 $279 $280 forward $105 $-1 #
coedge $-1 $279 $107 $276 $281 reversed $67 $-1 #
coedge $-1 $107 $279 $282 $283 reversed $67 $-1 #
coedge $-1 $284 $285 $107 $173 reversed $274 $-1 #
edge $-1 $286 -27.516721371873384 $287 27.516721371873384 $172 $288 forward 7 unknown #
face $-1 $289 $290 $39 $-1 $291 reversed single #
loop $-1 $-1 $292 $108 #
plane-surface $-1 -52.931461805271915 -133.84059284228309 89.266448645451021 1 0 0 0 0.77714596973225614 -0.62932038083071107 forward_v I I I I #
coedge $-1 $293 $294 $295 $296 reversed $109 $-1 #
coedge $-1 $179 $111 $297 $298 reversed $70 $-1 #
coedge $-1 $111 $178 $293 $299 reversed $70 $-1 #
coedge $-1 $295 $300 $111 $181 forward $301 $-1 #
edge $-1 $302 39.403575049268156 $303 46.560524510179981 $180 $304 forward 7 unknown #
loop $-1 $-1 $187 $112 #
plane-surface $-1 -43.115144762967581 -27.516721371873373 3.1670774961592087 0 -0.77714596973225614 0.62932038083071107 1 0 0 forward_v I I I I #
loop $-1 $-1 $305 $72 #
coedge $-1 $185 $185 $186 $306 reversed $113 $-1 #
coedge $-1 $186 $186 $185 $306 forward $115 $-1 #
coedge $-1 $187 $187 $116 $188 forward $182 $-1 #
edge $-1 $307 -4.0814754171393298e-016 $307 6.2831853071796004 $187 $308 forward 7 unknown #
loop $-1 $-1 $194 $117 #
plane-surface $-1 -43.115144762967581 -27.516721371873373 3.1670774961592087 0 -0.77714596973225614 0.62932038083071107 1 0 0 forward_v I I I I #
loop $-1 $-1 $309 $75 #
coedge $-1 $192 $192 $193 $310 reversed $118 $-1 #
coedge $-1 $193 $193 $192 $310 forward $120 $-1 #
coedge $-1 $194 $194 $121 $195 forward $189 $-1 #
edge $-1 $311 -4.0814754171393298e-016 $311 6.2831853071796004 $194 $312 forward 7 unknown #
face $-1 $313 $314 $42 $-1 $315 reversed single #
loop $-1 $-1 $316 $122 #
plane-surface $-1 33.29882772066324 -133.84059284228309 89.266448645451021 1 0 0 0 0.77714596973225614 -0.62932038083071107 forward_v I I I I #
coedge $-1 $317 $318 $319 $320 reversed $123 $-1 #
coedge $-1 $201 $125 $321 $322 reversed $79 $-1 #
coedge $-1 $125 $200 $317 $323 reversed $79 $-1 #
coedge $-1 $319 $324 $125 $203 forward $325 $-1 #
edge $-1 $326 39.403575049268156 $327 46.560524510179981 $202 $328 forward 7 unknown #
loop $-1 $-1 $209 $126 #
plane-surface $-1 43.115144762967574 -27.516721371873373 3.1670774961592087 0 -0.77714596973225614 0.62932038083071107 1 0 0 forward_v I I I I #
loop $-1 $-1 $329 $81 #
coedge $-1 $207 $207 $208 $330 reversed $127 $-1 #
coedge $-1 $208 $208 $207 $330 forward $129 $-1 #
coedge $-1 $209 $209 $130 $210 forward $204 $-1 #
edge $-1 $331 -4.0814754171393298e-016 $331 6.2831853071796004 $209 $332 forward 7 unknown #
loop $-1 $-1 $216 $131 #
plane-surface $-1 43.115144762967574 -27.516721371873373 3.1670774961592087 0 -0.77714596973225614 0.62932038083071107 1 0 0 forward_v I I I I #
loop $-1 $-1 $333 $84 #
coedge $-1 $214 $214 $215 $334 reversed $132 $-1 #
coedge $-1 $215 $215 $214 $334 forward $134 $-1 #
coedge $-1 $216 $216 $135 $217 forward $211 $-1 #
edge $-1 $335 -4.0814754171393298e-016 $335 6.2831853071796004 $216 $336 forward 7 unknown #
face $-1 $337 $338 $45 $-1 $339 reversed single #
loop $-1 $-1 $340 $136 #
plane-surface $-1 23.363998439707089 120.49555167515905 122.36731686304341 -1 0 0 0 0.87461971476443456 0.48480960649040278 forward_v I I I I #
coedge $-1 $341 $342 $343 $344 reversed $137 $-1 #
coedge $-1 $223 $139 $345 $346 reversed $88 $-1 #
coedge $-1 $139 $222 $341 $347 reversed $88 $-1 #
coedge $-1 $343 $348 $139 $225 forward $349 $-1 #
edge $-1 $350 32.731054465706137 $351 35.003484697075024 $224 $352 forward 7 unknown #
loop $-1 $-1 $231 $140 #
plane-surface $-1 11.479094605363784 0.83597965146540787 56.038935457598413 0 0.87461971476443456 0.48480960649040278 1 0 0 forward_v I I I I #
loop $-1 $-1 $353 $90 #
coedge $-1 $229 $229 $230 $354 reversed $141 $-1 #
coedge $-1 $230 $230 $229 $354 forward $143 $-1 #
coedge $-1 $231 $231 $144 $232 forward $226 $-1 #
edge $-1 $355 1.2161306954036145e-015 $355 6.2831853071796013 $231 $356 forward 7 unknown #
loop $-1 $-1 $238 $145 #
plane-surface $-1 11.479094605363784 0.83597965146540787 56.038935457598413 0 0.87461971476443456 0.48480960649040278 1 0 0 forward_v I I I I #
loop $-1 $-1 $357 $93 #
coedge $-1 $236 $236 $237 $358 reversed $146 $-1 #
coedge $-1 $237 $237 $236 $358 forward $148 $-1 #
coedge $-1 $238 $238 $149 $239 forward $233 $-1 #
edge $-1 $359 1.2161306954036145e-015 $359 6.2831853071796013 $238 $360 forward 7 unknown #
face $-1 $361 $362 $36 $-1 $363 reversed single #
loop $-1 $-1 $364 $150 #
plane-surface $-1 -68.406628620258189 0 0 1 0 0 0 0 -1 forward_v I I I I #
coedge $-1 $365 $251 $366 $367 forward $151 $-1 #
coedge $-1 $368 $153 $365 $369 forward $97 $-1 #
coedge $-1 $153 $368 $370 $371 forward $97 $-1 #
coedge $-1 $254 $253 $153 $247 reversed $255 $-1 #
edge $-1 $372 -27.516721371873384 $373 27.516721371873384 $246 $374 forward 7 unknown #
coedge $-1 $155 $154 $375 $376 forward $61 $-1 #
coedge $-1 $377 $378 $154 $250 reversed $362 $-1 #
edge $-1 $257 -68.406628620258189 $379 68.406628620258189 $249 $380 forward 7 unknown #
coedge $-1 $243 $381 $155 $252 reversed $151 $-1 #
edge $-1 $382 -68.406628620258189 $256 68.406628620258189 $251 $383 forward 7 unknown #
coedge $-1 $246 $156 $381 $384 forward $255 $-1 #
coedge $-1 $156 $246 $377 $385 reversed $255 $-1 #
loop $-1 $-1 $253 $361 #
vertex $-1 $157 $386 #
vertex $-1 $157 $387 #
straight-curve $-1 68.406628620258189 0 12.005174272531129 0 1 0 I I #
face $-1 $388 $389 $37 $-1 $390 forward single #
loop $-1 $-1 $391 $158 #
plane-surface $-1 -83.881795435244456 0 10.505174272531129 1 0 0 0 0 -1 forward_v I I I I #
coedge $-1 $392 $161 $269 $393 reversed $101 $-1 #
coedge $-1 $161 $392 $394 $395 reversed $101 $-1 #
edge $-1 $396 -12.005174272531129 $271 -9.0051742725311286 $161 $397 forward 7 unknown #
coedge $-1 $163 $162 $398 $399 reversed $64 $-1 #
coedge $-1 $400 $401 $163 $267 forward $402 $-1 #
edge $-1 $270 9.0051742725311286 $403 12.005174272531129 $266 $404 forward 7 unknown #
coedge $-1 $405 $164 $401 $406 forward $159 $-1 #
coedge $-1 $164 $405 $262 $393 forward $159 $-1 #
vertex $-1 $267 $407 #
vertex $-1 $264 $408 #
straight-curve $-1 -68.406628620258189 0 9.0051742725311286 0 1 0 I I #
face $-1 $409 $410 $38 $-1 $411 reversed single #
loop $-1 $-1 $412 $166 #
plane-surface $-1 76.144212027751323 0 9.0051742725311286 0 0 1 1 0 0 forward_v I I I I #
coedge $-1 $413 $414 $170 $281 forward $167 $-1 #
coedge $-1 $415 $169 $414 $416 forward $105 $-1 #
coedge $-1 $169 $415 $417 $418 forward $105 $-1 #
coedge $-1 $171 $170 $169 $280 reversed $67 $-1 #
edge $-1 $419 -27.516721371873384 $420 27.516721371873384 $169 $421 forward 7 unknown #
edge $-1 $420 -12.005174272531129 $287 -9.0051742725311286 $276 $422 forward 7 unknown #
coedge $-1 $417 $423 $171 $283 forward $424 $-1 #
edge $-1 $286 9.0051742725311286 $419 12.005174272531129 $282 $425 forward 7 unknown #
coedge $-1 $412 $172 $423 $426 forward $274 $-1 #
coedge $-1 $172 $412 $413 $427 forward $274 $-1 #
vertex $-1 $283 $428 #
vertex $-1 $281 $429 #
straight-curve $-1 68.406628620258189 0 9.0051742725311286 0 -1 0 I I #
face $-1 $-1 $301 $39 $-1 $430 forward single #
loop $-1 $-1 $431 $174 #
plane-surface $-1 0 -27.516721371873384 0 0 1 0 0 0 1 forward_v I I I I #
coedge $-1 $432 $433 $434 $435 reversed $175 $-1 #
coedge $-1 $436 $177 $179 $299 forward $109 $-1 #
coedge $-1 $177 $436 $432 $437 forward $109 $-1 #
coedge $-1 $434 $180 $177 $296 forward $301 $-1 #
edge $-1 $303 11.741255339179457 $438 31.373889423788125 $295 $439 forward 7 unknown #
coedge $-1 $440 $441 $178 $298 forward $290 $-1 #
edge $-1 $442 -41.466146826566316 $302 -32.628050050194382 $297 $443 forward 7 unknown #
edge $-1 $303 -11.372505450188257 $442 1.7061049565072372e-014 $179 $444 forward 7 unknown #
coedge $-1 $180 $434 $440 $445 forward $301 $-1 #
loop $-1 $-1 $434 $289 #
vertex $-1 $298 $446 #
vertex $-1 $181 $447 #
straight-curve $-1 -33.298827720663247 -66.920296421141543 12.005174272531129 0 1 0 I I #
coedge $-1 $305 $305 $-1 $448 reversed $184 $-1 #
edge $-1 $449 0 $449 6.2831853071796004 $185 $450 forward 7 unknown #
vertex $-1 $188 $451 #
ellipse-curve $-1 -47.322137781098007 -23.938246641417471 7.5861258843451633 0 -0.77714596973225614 0.62932038083071107 2.5 0 0 1 I I #
coedge $-1 $309 $309 $-1 $452 reversed $191 $-1 #
edge $-1 $453 0 $453 6.2831853071796004 $192 $454 forward 7 unknown #
vertex $-1 $195 $455 #
ellipse-curve $-1 -38.908151744837156 -23.938246641417471 7.5861258843451633 0 -0.77714596973225614 0.62932038083071107 2.5 0 0 1 I I #
face $-1 $-1 $325 $42 $-1 $456 forward single #
loop $-1 $-1 $457 $196 #
plane-surface $-1 0 -27.516721371873384 0 0 1 0 0 0 1 forward_v I I I I #
coedge $-1 $458 $459 $460 $461 reversed $197 $-1 #
coedge $-1 $462 $199 $201 $323 forward $123 $-1 #
coedge $-1 $199 $462 $458 $463 forward $123 $-1 #
coedge $-1 $460 $202 $199 $320 forward $325 $-1 #
edge $-1 $327 -31.373889423788121 $464 -11.741255339179453 $319 $465 forward 7 unknown #
coedge $-1 $466 $467 $200 $322 forward $314 $-1 #
edge $-1 $468 -41.466146826566316 $326 -32.628050050194382 $321 $469 forward 7 unknown #
edge $-1 $327 -11.372505450188257 $468 1.7061049565072372e-014 $201 $470 forward 7 unknown #
coedge $-1 $202 $460 $466 $471 forward $325 $-1 #
loop $-1 $-1 $460 $313 #
vertex $-1 $322 $472 #
vertex $-1 $203 $473 #
straight-curve $-1 52.931461805271908 -66.920296421141543 12.005174272531129 0 1 0 I I #
coedge $-1 $329 $329 $-1 $474 reversed $206 $-1 #
edge $-1 $475 0 $475 6.2831853071796004 $207 $476 forward 7 unknown #
vertex $-1 $210 $477 #
ellipse-curve $-1 38.908151744837141 -23.938246641417471 7.5861258843451633 0 -0.77714596973225614 0.62932038083071107 2.5 0 0 1 I I #
coedge $-1 $333 $333 $-1 $478 reversed $213 $-1 #
edge $-1 $479 0 $479 6.2831853071796004 $214 $480 forward 7 unknown #
vertex $-1 $217 $481 #
ellipse-curve $-1 47.322137781097993 -23.938246641417471 7.5861258843451633 0 -0.77714596973225614 0.62932038083071107 2.5 0 0 1 I I #
face $-1 $-1 $349 $45 $-1 $482 forward single #
loop $-1 $-1 $483 $218 #
plane-surface $-1 0 27.516721371873384 0 0 -1 0 0 0 -1 forward_v I I I I #
coedge $-1 $484 $485 $486 $487 reversed $219 $-1 #
coedge $-1 $488 $221 $223 $347 forward $137 $-1 #
coedge $-1 $221 $488 $484 $489 forward $137 $-1 #
coedge $-1 $486 $224 $221 $344 forward $349 $-1 #
edge $-1 $351 -6.1453565316614132 $490 17.624451137025197 $343 $491 forward 7 unknown #
coedge $-1 $492 $493 $222 $346 forward $338 $-1 #
edge $-1 $494 -53.278056968963924 $350 -49.178484158990578 $345 $495 forward 7 unknown #
edge $-1 $351 50.346179535784998 $494 55.033442743746761 $223 $496 forward 7 unknown #
coedge $-1 $224 $486 $492 $497 forward $349 $-1 #
loop $-1 $-1 $486 $337 #
vertex $-1 $346 $498 #
vertex $-1 $225 $499 #
straight-curve $-1 -0.40580922897952121 60.247775837579525 12.005174272531129 0 -1 0 I I #
coedge $-1 $353 $353 $-1 $500 reversed $228 $-1 #
edge $-1 $501 0 $501 6.2831853071796004 $229 $502 forward 7 unknown #
vertex $-1 $232 $503 #
ellipse-curve $-1 6.3855643906452286 26.380506256188944 9.955387867544454 0 0.87461971476443456 0.48480960649040278 1 0 0 1 I I #
coedge $-1 $357 $357 $-1 $504 reversed $235 $-1 #
edge $-1 $505 0 $505 6.2831853071796004 $236 $506 forward 7 unknown #
vertex $-1 $239 $507 #
ellipse-curve $-1 16.572624820082339 26.380506256188944 9.955387867544454 0 0.87461971476443456 0.48480960649040278 1 0 0 1 I I #
face $-1 $-1 $255 $36 $-1 $508 reversed single #
loop $-1 $-1 $377 $240 #
plane-surface $-1 0 27.516721371873384 0 0 -1 0 0 0 -1 forward_v I I I I #
coedge $-1 $509 $375 $378 $510 forward $241 $-1 #
coedge $-1 $381 $243 $244 $369 reversed $151 $-1 #
coedge $-1 $375 $509 $243 $367 reversed $241 $-1 #
edge $-1 $382 -12.005174272531129 $511 12.005174272531129 $366 $512 forward 7 unknown #
coedge $-1 $245 $244 $509 $513 forward $97 $-1 #
edge $-1 $373 -68.406628620258189 $511 68.406628620258189 $365 $514 forward 7 unknown #
coedge $-1 $378 $377 $245 $371 reversed $362 $-1 #
edge $-1 $515 -68.406628620258189 $372 68.406628620258189 $370 $516 forward 7 unknown #
vertex $-1 $247 $517 #
vertex $-1 $384 $518 #
straight-curve $-1 68.406628620258189 0 -12.005174272531129 0 -1 0 I I #
coedge $-1 $364 $366 $248 $376 reversed $241 $-1 #
edge $-1 $379 -27.516721371873384 $382 27.516721371873384 $375 $519 forward 7 unknown #
coedge $-1 $370 $249 $254 $385 forward $362 $-1 #
coedge $-1 $249 $370 $364 $510 reversed $362 $-1 #
vertex $-1 $250 $520 #
straight-curve $-1 0 27.516721371873384 12.005174272531129 -1 0 0 I I #
coedge $-1 $251 $365 $253 $384 reversed $151 $-1 #
vertex $-1 $376 $521 #
straight-curve $-1 0 -27.516721371873384 12.005174272531129 1 0 0 I I #
edge $-1 $256 -12.005174272531129 $373 12.005174272531129 $253 $522 forward 7 unknown #
edge $-1 $257 -12.005174272531129 $372 12.005174272531129 $254 $523 forward 7 unknown #
point $-1 68.406628620258189 -27.516721371873384 12.005174272531129 #
point $-1 68.406628620258189 27.516721371873384 12.005174272531129 #
face $-1 $-1 $402 $37 $-1 $524 reversed single #
loop $-1 $-1 $398 $259 #
plane-surface $-1 0 0 12.005174272531129 0 0 1 1 0 0 forward_v I I I I #
coedge $-1 $525 $526 $392 $527 forward $260 $-1 #
coedge $-1 $263 $262 $391 $527 reversed $101 $-1 #
edge $-1 $528 -7.7375834074931333 $271 7.7375834074931333 $262 $529 forward 7 unknown #
coedge $-1 $530 $398 $263 $395 forward $389 $-1 #
edge $-1 $396 68.406628620258189 $531 83.881795435244456 $263 $532 forward 7 unknown #
vertex $-1 $395 $533 #
straight-curve $-1 -68.406628620258189 27.516721371873384 0 0 0 -1 I I #
coedge $-1 $394 $534 $265 $399 forward $389 $-1 #
edge $-1 $403 -27.516721371873384 $396 27.516721371873384 $398 $535 forward 7 unknown #
coedge $-1 $536 $266 $534 $537 reversed $402 $-1 #
coedge $-1 $266 $536 $268 $406 reversed $402 $-1 #
loop $-1 $-1 $266 $388 #
vertex $-1 $267 $538 #
straight-curve $-1 -68.406628620258189 -27.516721371873384 0 0 0 1 I I #
coedge $-1 $269 $268 $525 $539 forward $159 $-1 #
edge $-1 $270 -7.7375834074931333 $540 7.7375834074931333 $401 $541 forward 7 unknown #
point $-1 -68.406628620258189 -27.516721371873384 9.0051742725311286 #
point $-1 -68.406628620258189 27.516721371873384 9.0051742725311286 #
face $-1 $-1 $424 $38 $-1 $542 reversed single #
loop $-1 $-1 $543 $273 #
plane-surface $-1 83.881795435244456 0 10.505174272531129 -1 0 0 0 0 1 forward_v I I I I #
coedge $-1 $285 $284 $544 $545 forward $274 $-1 #
coedge $-1 $546 $276 $285 $427 reversed $167 $-1 #
coedge $-1 $276 $546 $277 $416 reversed $167 $-1 #
coedge $-1 $278 $277 $547 $548 forward $105 $-1 #
edge $-1 $420 -7.7375834074931333 $549 7.7375834074931333 $414 $550 forward 7 unknown #
coedge $-1 $551 $282 $278 $418 reversed $424 $-1 #
edge $-1 $552 -83.881795435244456 $419 -68.406628620258189 $417 $553 forward 7 unknown #
vertex $-1 $283 $554 #
vertex $-1 $416 $555 #
straight-curve $-1 68.406628620258189 0 12.005174272531129 0 -1 0 I I #
straight-curve $-1 68.406628620258189 -27.516721371873384 0 0 0 -1 I I #
coedge $-1 $282 $551 $284 $426 reversed $424 $-1 #
loop $-1 $-1 $282 $409 #
straight-curve $-1 68.406628620258189 27.516721371873384 0 0 0 1 I I #
edge $-1 $286 -7.7375834074931333 $556 7.7375834074931333 $423 $557 forward 7 unknown #
edge $-1 $558 -7.7375834074931333 $287 7.7375834074931333 $413 $559 forward 7 unknown #
point $-1 68.406628620258189 27.516721371873384 9.0051742725311286 #
point $-1 68.406628620258189 -27.516721371873384 9.0051742725311286 #
plane-surface $-1 0 0 12.005174272531129 0 0 1 1 0 0 forward_v I I I I #
coedge $-1 $441 $440 $433 $560 forward $290 $-1 #
coedge $-1 $433 $292 $294 $437 reversed $175 $-1 #
coedge $-1 $292 $432 $431 $560 reversed $175 $-1 #
coedge $-1 $300 $295 $292 $435 forward $301 $-1 #
edge $-1 $438 -46.560524510179981 $561 -39.403575049268156 $434 $562 forward 7 unknown #
coedge $-1 $294 $293 $441 $563 reversed $109 $-1 #
edge $-1 $564 -1.7061049565072372e-014 $438 11.372505450188257 $432 $565 forward 7 unknown #
vertex $-1 $296 $566 #
straight-curve $-1 -21.557572381483791 -20.359771910961562 12.005174272531129 -1 0 0 I I #
coedge $-1 $431 $297 $300 $445 reversed $290 $-1 #
coedge $-1 $297 $431 $436 $563 forward $290 $-1 #
vertex $-1 $298 $567 #
straight-curve $-1 -33.298827720663247 -27.516721371873388 44.633224322725511 0 0 1 I I #
straight-curve $-1 -33.298827720663247 -27.516721371873373 3.1670774961592087 0 -0.62932038083071107 -0.77714596973225614 I I #
edge $-1 $561 -129.07567383302325 $302 -109.44303974841458 $440 $568 forward 7 unknown #
point $-1 -33.298827720663255 -27.516721371873384 12.005174272531129 #
point $-1 -33.298827720663247 -20.359771910961562 12.005174272531129 #
edge $-1 $569 1 $569 0 $305 $-1 forward 7 unknown #
vertex $-1 $306 $570 #
ellipse-curve $-1 -47.322137781098007 -19.734704481760009 4.182164652113622 0 -0.77714596973225614 0.62932038083071107 2.5 0 0 1 I I #
point $-1 -44.822137781098007 -23.938246641417479 7.5861258843451678 #
edge $-1 $571 1 $571 0 $309 $-1 forward 7 unknown #
vertex $-1 $310 $572 #
ellipse-curve $-1 -38.908151744837156 -19.734704481760009 4.182164652113622 0 -0.77714596973225614 0.62932038083071107 2.5 0 0 1 I I #
point $-1 -36.408151744837156 -23.938246641417479 7.5861258843451678 #
plane-surface $-1 0 0 12.005174272531129 0 0 1 1 0 0 forward_v I I I I #
coedge $-1 $467 $466 $459 $573 forward $314 $-1 #
coedge $-1 $459 $316 $318 $463 reversed $197 $-1 #
coedge $-1 $316 $458 $457 $573 reversed $197 $-1 #
coedge $-1 $324 $319 $316 $461 forward $325 $-1 #
edge $-1 $464 -46.560524510179981 $574 -39.403575049268156 $460 $575 forward 7 unknown #
coedge $-1 $318 $317 $467 $576 reversed $123 $-1 #
edge $-1 $577 -1.7061049565072372e-014 $464 11.372505450188257 $458 $578 forward 7 unknown #
vertex $-1 $320 $579 #
straight-curve $-1 21.557572381483787 -20.359771910961562 12.005174272531129 -1 0 0 I I #
coedge $-1 $457 $321 $324 $471 reversed $314 $-1 #
coedge $-1 $321 $457 $462 $576 forward $314 $-1 #
vertex $-1 $322 $580 #
straight-curve $-1 52.931461805271908 -27.516721371873388 44.633224322725511 0 0 1 I I #
straight-curve $-1 52.931461805271908 -27.516721371873373 3.1670774961592087 0 -0.62932038083071107 -0.77714596973225614 I I #
edge $-1 $574 -42.845384307088082 $326 -23.212750222479414 $466 $581 forward 7 unknown #
point $-1 52.931461805271908 -27.516721371873384 12.005174272531129 #
point $-1 52.931461805271908 -20.359771910961562 12.005174272531129 #
edge $-1 $582 1 $582 0 $329 $-1 forward 7 unknown #
vertex $-1 $330 $583 #
ellipse-curve $-1 38.908151744837141 -19.734704481760009 4.182164652113622 0 -0.77714596973225614 0.62932038083071107 2.5 0 0 1 I I #
point $-1 41.408151744837141 -23.938246641417479 7.5861258843451678 #
edge $-1 $584 1 $584 0 $333 $-1 forward 7 unknown #
vertex $-1 $334 $585 #
ellipse-curve $-1 47.322137781097993 -19.734704481760009 4.182164652113622 0 -0.77714596973225614 0.62932038083071107 2.5 0 0 1 I I #
point $-1 49.822137781097993 -23.938246641417479 7.5861258843451678 #
plane-surface $-1 0 0 12.005174272531129 0 0 1 1 0 0 forward_v I I I I #
coedge $-1 $493 $492 $485 $586 forward $338 $-1 #
coedge $-1 $485 $340 $342 $489 reversed $219 $-1 #
coedge $-1 $340 $484 $483 $586 reversed $219 $-1 #
coedge $-1 $348 $343 $340 $487 forward $349 $-1 #
edge $-1 $490 -35.003484697075024 $587 -32.731054465706137 $486 $588 forward 7 unknown #
coedge $-1 $342 $341 $493 $589 reversed $137 $-1 #
edge $-1 $590 -55.033442743746761 $490 -50.346179535784998 $484 $591 forward 7 unknown #
vertex $-1 $344 $592 #
straight-curve $-1 5.7395473026818919 25.244291140504501 12.005174272531129 1 0 0 I I #
coedge $-1 $483 $345 $348 $497 reversed $338 $-1 #
coedge $-1 $345 $483 $488 $589 forward $338 $-1 #
vertex $-1 $346 $593 #
straight-curve $-1 -0.40580922897952121 27.516721371873388 61.183658431521707 0 0 1 I I #
straight-curve $-1 -0.40580922897952121 0.83597965146540787 56.038935457598413 0 0.48480960649040278 -0.87461971476443456 I I #
edge $-1 $587 -23.363998439707089 $350 0.40580922897952121 $492 $594 forward 7 unknown #
point $-1 -0.40580922897952121 27.516721371873384 12.005174272531129 #
point $-1 -0.40580922897952121 25.244291140504497 12.005174272531129 #
edge $-1 $595 1 $595 0 $353 $-1 forward 7 unknown #
vertex $-1 $354 $596 #
ellipse-curve $-1 6.3855643906452286 24.311629048276206 8.8085905473911055 0 0.87461971476443456 0.48480960649040278 1 0 0 1 I I #
point $-1 7.3855643906452286 26.380506256188937 9.9553878675444487 #
edge $-1 $597 1 $597 0 $357 $-1 forward 7 unknown #
vertex $-1 $358 $598 #
ellipse-curve $-1 16.572624820082339 24.311629048276206 8.8085905473911055 0 0.87461971476443456 0.48480960649040278 1 0 0 1 I I #
point $-1 17.572624820082339 26.380506256188937 9.9553878675444487 #
plane-surface $-1 68.406628620258189 0 0 -1 0 0 0 0 1 forward_v I I I I #
coedge $-1 $366 $364 $368 $513 reversed $241 $-1 #
edge $-1 $379 -12.005174272531129 $515 12.005174272531129 $378 $599 forward 7 unknown #
vertex $-1 $513 $600 #
straight-curve $-1 -68.406628620258189 -27.516721371873384 0 0 0 -1 I I #
edge $-1 $511 -27.516721371873384 $515 27.516721371873384 $509 $601 forward 7 unknown #
straight-curve $-1 0 -27.516721371873384 -12.005174272531129 -1 0 0 I I #
vertex $-1 $371 $602 #
straight-curve $-1 0 27.516721371873384 -12.005174272531129 1 0 0 I I #
point $-1 68.406628620258189 27.516721371873384 -12.005174272531129 #
point $-1 68.406628620258189 -27.516721371873384 -12.005174272531129 #
straight-curve $-1 -68.406628620258189 0 12.005174272531129 0 -1 0 I I #
point $-1 -68.406628620258189 27.516721371873384 12.005174272531129 #
point $-1 -68.406628620258189 -27.516721371873384 12.005174272531129 #
straight-curve $-1 68.406628620258189 -27.516721371873384 0 0 0 -1 I I #
straight-curve $-1 68.406628620258189 27.516721371873384 0 0 0 -1 I I #
plane-surface $-1 0 -27.516721371873384 0 0 1 0 0 0 1 forward_v I I I I #
coedge $-1 $603 $391 $405 $539 reversed $260 $-1 #
coedge $-1 $391 $603 $530 $604 reversed $260 $-1 #
edge $-1 $531 -1.5 $528 1.5 $392 $605 forward 7 unknown #
vertex $-1 $393 $606 #
straight-curve $-1 -76.144212027751323 27.516721371873384 9.0051742725311286 1 0 0 I I #
coedge $-1 $534 $394 $526 $604 forward $389 $-1 #
vertex $-1 $395 $607 #
straight-curve $-1 0 27.516721371873384 12.005174272531129 -1 0 0 I I #
point $-1 -68.406628620258189 27.516721371873384 12.005174272531129 #
coedge $-1 $398 $530 $400 $537 forward $389 $-1 #
straight-curve $-1 -68.406628620258189 0 12.005174272531129 0 1 0 I I #
coedge $-1 $401 $400 $603 $608 forward $402 $-1 #
edge $-1 $609 -83.881795435244456 $403 -68.406628620258189 $400 $610 forward 7 unknown #
point $-1 -68.406628620258189 -27.516721371873384 12.005174272531129 #
edge $-1 $540 -27.516721371873384 $528 27.516721371873384 $525 $611 forward 7 unknown #
vertex $-1 $539 $612 #
straight-curve $-1 -76.144212027751323 -27.516721371873384 9.0051742725311286 -1 0 0 I I #
plane-surface $-1 0 27.516721371873384 0 0 -1 0 0 0 -1 forward_v I I I I #
coedge $-1 $544 $547 $546 $613 forward $410 $-1 #
coedge $-1 $614 $543 $412 $545 reversed $410 $-1 #
edge $-1 $556 -27.516721371873384 $558 27.516721371873384 $544 $615 forward 7 unknown #
coedge $-1 $414 $413 $543 $613 reversed $167 $-1 #
coedge $-1 $543 $614 $415 $548 reversed $410 $-1 #
edge $-1 $549 -27.516721371873384 $552 27.516721371873384 $547 $616 forward 7 unknown #
vertex $-1 $548 $617 #
straight-curve $-1 76.144212027751323 -27.516721371873384 12.005174272531129 1 0 0 I I #
coedge $-1 $423 $417 $614 $618 forward $424 $-1 #
vertex $-1 $548 $619 #
straight-curve $-1 0 27.516721371873384 12.005174272531129 -1 0 0 I I #
point $-1 68.406628620258189 27.516721371873384 12.005174272531129 #
point $-1 68.406628620258189 -27.516721371873384 12.005174272531129 #
vertex $-1 $545 $620 #
straight-curve $-1 76.144212027751323 27.516721371873384 9.0051742725311286 1 0 0 I I #
vertex $-1 $613 $621 #
straight-curve $-1 76.144212027751323 -27.516721371873384 9.0051742725311286 -1 0 0 I I #
edge $-1 $561 32.628050050194382 $564 41.466146826566316 $431 $622 forward 7 unknown #
vertex $-1 $445 $623 #
straight-curve $-1 -52.931461805271915 -66.920296421141543 12.005174272531129 0 -1 0 I I #
edge $-1 $564 -31.373889423788125 $442 -11.741255339179457 $441 $624 forward 7 unknown #
vertex $-1 $563 $625 #
straight-curve $-1 -52.931461805271915 -27.516721371873373 3.1670774961592087 0 0.62932038083071107 0.77714596973225614 I I #
point $-1 -52.931461805271915 -20.359771910961562 12.005174272531129 #
point $-1 -33.298827720663247 -27.516721371873384 3.1670774961591954 #
straight-curve $-1 76.144212027751323 -27.516721371873384 12.005174272531129 1 0 0 I I #
vertex $-1 $448 $626 #
point $-1 -44.822137781098007 -19.734704481760009 4.182164652113622 #
vertex $-1 $452 $627 #
point $-1 -36.408151744837156 -19.734704481760009 4.182164652113622 #
edge $-1 $574 32.628050050194382 $577 41.466146826566316 $457 $628 forward 7 unknown #
vertex $-1 $471 $629 #
straight-curve $-1 33.29882772066324 -66.920296421141543 12.005174272531129 0 -1 0 I I #
edge $-1 $577 11.741255339179453 $468 31.373889423788121 $467 $630 forward 7 unknown #
vertex $-1 $576 $631 #
straight-curve $-1 33.29882772066324 -27.516721371873373 3.1670774961592087 0 0.62932038083071107 0.77714596973225614 I I #
point $-1 33.29882772066324 -20.359771910961562 12.005174272531129 #
point $-1 52.931461805271908 -27.516721371873384 3.1670774961591954 #
straight-curve $-1 76.144212027751323 -27.516721371873384 12.005174272531129 1 0 0 I I #
vertex $-1 $474 $632 #
point $-1 41.408151744837141 -19.734704481760009 4.182164652113622 #
vertex $-1 $478 $633 #
point $-1 49.822137781097993 -19.734704481760009 4.182164652113622 #
edge $-1 $587 49.178484158990578 $590 53.278056968963924 $483 $634 forward 7 unknown #
vertex $-1 $497 $635 #
straight-curve $-1 23.363998439707089 60.247775837579525 12.005174272531129 0 1 0 I I #
edge $-1 $590 -17.624451137025197 $494 6.1453565316614132 $493 $636 forward 7 unknown #
vertex $-1 $589 $637 #
straight-curve $-1 23.363998439707089 0.83597965146540787 56.038935457598413 0 -0.48480960649040278 0.87461971476443456 I I #
point $-1 23.363998439707089 25.244291140504497 12.005174272531129 #
point $-1 -0.40580922897952121 27.516721371873384 7.9056014625577831 #
straight-curve $-1 0 27.516721371873384 12.005174272531129 -1 0 0 I I #
vertex $-1 $500 $638 #
point $-1 7.3855643906452286 24.311629048276206 8.8085905473911055 #
vertex $-1 $504 $639 #
point $-1 17.572624820082339 24.311629048276206 8.8085905473911055 #
straight-curve $-1 -68.406628620258189 27.516721371873384 0 0 0 -1 I I #
point $-1 -68.406628620258189 -27.516721371873384 -12.005174272531129 #
straight-curve $-1 -68.406628620258189 0 -12.005174272531129 0 1 0 I I #
point $-1 -68.406628620258189 27.516721371873384 -12.005174272531129 #
coedge $-1 $526 $525 $536 $608 reversed $260 $-1 #
edge $-1 $531 -27.516721371873384 $609 27.516721371873384 $526 $640 forward 7 unknown #
straight-curve $-1 -83.881795435244456 27.516721371873384 10.505174272531129 0 0 -1 I I #
point $-1 -83.881795435244456 27.516721371873384 9.0051742725311286 #
point $-1 -83.881795435244456 27.516721371873384 12.005174272531129 #
edge $-1 $609 -1.5 $540 1.5 $603 $641 forward 7 unknown #
vertex $-1 $604 $642 #
straight-curve $-1 0 -27.516721371873384 12.005174272531129 1 0 0 I I #
straight-curve $-1 -83.881795435244456 0 9.0051742725311286 0 1 0 I I #
point $-1 -83.881795435244456 -27.516721371873384 9.0051742725311286 #
edge $-1 $549 -1.5 $558 1.5 $543 $643 forward 7 unknown #
coedge $-1 $547 $544 $551 $618 reversed $410 $-1 #
straight-curve $-1 83.881795435244456 0 9.0051742725311286 0 -1 0 I I #
straight-curve $-1 83.881795435244456 0 12.005174272531129 0 1 0 I I #
point $-1 83.881795435244456 -27.516721371873384 12.005174272531129 #
edge $-1 $552 -1.5 $556 1.5 $614 $644 forward 7 unknown #
point $-1 83.881795435244456 27.516721371873384 12.005174272531129 #
point $-1 83.881795435244456 27.516721371873384 9.0051742725311286 #
point $-1 83.881795435244456 -27.516721371873384 9.0051742725311286 #
straight-curve $-1 -52.931461805271915 -27.516721371873388 44.633224322725511 0 0 -1 I I #
point $-1 -52.931461805271923 -27.516721371873384 12.005174272531129 #
straight-curve $-1 -21.557572381483791 -27.516721371873384 3.1670774961591968 1 0 0 I I #
point $-1 -52.931461805271915 -27.516721371873384 3.1670774961591954 #
point $-1 -47.322137781098007 -17.791839557429366 2.608863700036844 #
point $-1 -38.908151744837156 -17.791839557429366 2.608863700036844 #
straight-curve $-1 33.29882772066324 -27.516721371873388 44.633224322725511 0 0 -1 I I #
point $-1 33.29882772066324 -27.516721371873384 12.005174272531129 #
straight-curve $-1 21.557572381483787 -27.516721371873384 3.1670774961591968 1 0 0 I I #
point $-1 33.29882772066324 -27.516721371873384 3.1670774961591954 #
point $-1 38.908151744837141 -17.791839557429366 2.608863700036844 #
point $-1 47.322137781097993 -17.791839557429366 2.608863700036844 #
straight-curve $-1 23.363998439707089 27.516721371873388 61.183658431521707 0 0 -1 I I #
point $-1 23.363998439707089 27.516721371873384 12.005174272531129 #
straight-curve $-1 5.7395473026818919 27.516721371873381 7.9056014625577902 -1 0 0 I I #
point $-1 23.363998439707089 27.516721371873384 7.9056014625577831 #
point $-1 6.3855643906452286 23.437009333511771 8.3237809409007042 #
point $-1 16.572624820082339 23.437009333511771 8.3237809409007042 #
straight-curve $-1 -83.881795435244456 0 12.005174272531129 0 -1 0 I I #
straight-curve $-1 -83.881795435244456 -27.516721371873384 10.505174272531129 0 0 -1 I I #
point $-1 -83.881795435244456 -27.516721371873384 12.005174272531129 #
straight-curve $-1 83.881795435244456 -27.516721371873384 10.505174272531129 0 0 -1 I I #
straight-curve $-1 83.881795435244456 27.516721371873384 10.505174272531129 0 0 -1 I I #
End-of-ACIS-data 