500 0 15 0           
7 Unknown 11 ACIS 5.0 NT 24 Thu Mar 25 22:53:13 1999 
-1 9.9999999999999995e-007 1e-010 
body $-1 $15 $-1 $16 #
body $-1 $17 $-1 $18 #
body $-1 $19 $-1 $20 #
body $-1 $21 $-1 $22 #
body $-1 $23 $-1 $24 #
body $-1 $25 $-1 $26 #
body $-1 $27 $-1 $28 #
body $-1 $29 $-1 $30 #
body $-1 $31 $-1 $32 #
body $-1 $33 $-1 $34 #
body $-1 $35 $-1 $36 #
body $-1 $37 $-1 $38 #
body $-1 $39 $-1 $40 #
body $-1 $41 $-1 $42 #
body $-1 $43 $-1 $44 #
lump $-1 $-1 $45 $0 #
transform $-1 1 0 0 0 1 0 0 0 1 50.795007171849726 25.186678030476653 9.9712095934003493 1 rotate no_reflect no_shear #
lump $-1 $-1 $46 $1 #
transform $-1 1 0 0 0 1 0 0 0 1 50.795007171849726 25.186678030476653 9.9712095934003493 1 rotate no_reflect no_shear #
lump $-1 $-1 $47 $2 #
transform $-1 1 0 0 0 1 0 0 0 1 50.795007171849726 25.186678030476653 9.9712095934003493 1 rotate no_reflect no_shear #
lump $-1 $-1 $48 $3 #
transform $-1 1 0 0 0 1 0 0 0 1 50.795007171849726 25.186678030476653 9.9712095934003493 1 rotate no_reflect no_shear #
lump $-1 $-1 $49 $4 #
transform $-1 1 0 0 0 1 0 0 0 1 50.795007171849726 25.186678030476653 9.9712095934003493 1 rotate no_reflect no_shear #
lump $-1 $-1 $50 $5 #
transform $-1 1 0 0 0 1 0 0 0 1 50.795007171849726 25.186678030476653 9.9712095934003493 1 rotate no_reflect no_shear #
lump $-1 $-1 $51 $6 #
transform $-1 1 0 0 0 1 0 0 0 1 50.795007171849726 25.186678030476653 9.9712095934003493 1 rotate no_reflect no_shear #
lump $-1 $-1 $52 $7 #
transform $-1 1 0 0 0 1 0 0 0 1 50.795007171849726 25.186678030476653 9.9712095934003493 1 rotate no_reflect no_shear #
lump $-1 $-1 $53 $8 #
transform $-1 1 0 0 0 1 0 0 0 1 50.795007171849726 25.186678030476653 9.9712095934003493 1 rotate no_reflect no_shear #
lump $-1 $-1 $54 $9 #
transform $-1 1 0 0 0 1 0 0 0 1 50.795007171849726 25.186678030476653 9.9712095934003493 1 rotate no_reflect no_shear #
lump $-1 $-1 $55 $10 #
transform $-1 1 0 0 0 1 0 0 0 1 50.795007171849726 25.186678030476653 9.9712095934003493 1 rotate no_reflect no_shear #
lump $-1 $-1 $56 $11 #
transform $-1 1 0 0 0 1 0 0 0 1 50.795007171849726 25.186678030476653 9.9712095934003493 1 rotate no_reflect no_shear #
lump $-1 $-1 $57 $12 #
transform $-1 1 0 0 0 1 0 0 0 1 50.795007171849726 25.186678030476653 9.9712095934003493 1 rotate no_reflect no_shear #
lump $-1 $-1 $58 $13 #
transform $-1 1 0 0 0 1 0 0 0 1 50.795007171849726 25.186678030476653 9.9712095934003493 1 rotate no_reflect no_shear #
lump $-1 $-1 $59 $14 #
transform $-1 1 0 0 0 1 0 0 0 1 50.795007171849726 25.186678030476653 9.9712095934003493 1 rotate no_reflect no_shear #
shell $-1 $-1 $-1 $60 $-1 $15 #
shell $-1 $-1 $-1 $61 $-1 $17 #
shell $-1 $-1 $-1 $62 $-1 $19 #
shell $-1 $-1 $-1 $63 $-1 $21 #
shell $-1 $-1 $-1 $64 $-1 $23 #
shell $-1 $-1 $-1 $65 $-1 $25 #
shell $-1 $-1 $-1 $66 $-1 $27 #
shell $-1 $-1 $-1 $67 $-1 $29 #
shell $-1 $-1 $-1 $68 $-1 $31 #
shell $-1 $-1 $-1 $69 $-1 $33 #
shell $-1 $-1 $-1 $70 $-1 $35 #
shell $-1 $-1 $-1 $71 $-1 $37 #
shell $-1 $-1 $-1 $72 $-1 $39 #
shell $-1 $-1 $-1 $73 $-1 $41 #
shell $-1 $-1 $-1 $74 $-1 $43 #
face $-1 $75 $76 $45 $-1 $77 forward single #
face $-1 $78 $79 $46 $-1 $80 forward single #
face $-1 $81 $82 $47 $-1 $83 forward single #
face $-1 $84 $85 $48 $-1 $86 reversed single #
face $-1 $87 $88 $49 $-1 $89 forward single #
face $-1 $90 $91 $50 $-1 $92 forward single #
face $-1 $93 $94 $51 $-1 $95 reversed single #
face $-1 $96 $97 $52 $-1 $98 forward single #
face $-1 $99 $100 $53 $-1 $101 forward single #
face $-1 $102 $103 $54 $-1 $104 reversed single #
face $-1 $105 $106 $55 $-1 $107 forward single #
face $-1 $108 $109 $56 $-1 $110 forward single #
face $-1 $111 $112 $57 $-1 $113 reversed single #
face $-1 $114 $115 $58 $-1 $116 forward single #
face $-1 $117 $118 $59 $-1 $119 forward single #
face $-1 $120 $121 $45 $-1 $122 reversed single #
loop $-1 $-1 $123 $60 #
plane-surface $-1 0 0 9.9712095934003493 0 0 1 1 0 0 forward_v I I I I #
face $-1 $124 $125 $46 $-1 $126 reversed single #
loop $-1 $-1 $127 $61 #
plane-surface $-1 -44.214711788115309 0 -4.0628563348309807 0 0 1 1 0 0 forward_v I I I I #
face $-1 $128 $129 $47 $-1 $130 reversed single #
loop $-1 $-1 $131 $62 #
plane-surface $-1 44.214711788115302 0 -4.0628563348309807 0 0 1 1 0 0 forward_v I I I I #
face $-1 $132 $133 $48 $-1 $134 reversed single #
loop $-1 $-1 $135 $63 #
plane-surface $-1 -24.764968781221675 -105.24070263093911 68.158277468397728 1 0 0 0 0.78801076186113728 -0.61566146476048833 forward_v I I I I #
face $-1 $136 $137 $49 $-1 $138 forward single #
loop $-1 $139 $140 $64 #
cone-surface $-1 -19.957843123734087 -22.758945688272988 7.2255366543301403 0 0.78801076186113728 -0.61566146476048833 0.5 0 0 1 I I 0 1 0.5 forward I I I I #
face $-1 $141 $142 $50 $-1 $143 forward single #
loop $-1 $144 $145 $65 #
cone-surface $-1 -12.747154637502703 -22.758945688272988 7.2255366543301403 0 0.78801076186113728 -0.61566146476048833 0.5 0 0 1 I I 0 1 0.5 forward I I I I #
face $-1 $146 $147 $51 $-1 $148 reversed single #
loop $-1 $-1 $149 $66 #
plane-surface $-1 12.869447623159203 -105.24070263093911 68.158277468397728 1 0 0 0 0.78801076186113728 -0.61566146476048833 forward_v I I I I #
face $-1 $150 $151 $52 $-1 $152 forward single #
loop $-1 $153 $154 $67 #
cone-surface $-1 17.676573280646799 -22.758945688272988 7.2255366543301403 0 0.78801076186113728 -0.61566146476048833 0.5 0 0 1 I I 0 1 0.5 forward I I I I #
face $-1 $155 $156 $53 $-1 $157 forward single #
loop $-1 $158 $159 $68 #
cone-surface $-1 24.887261766878176 -22.758945688272988 7.2255366543301403 0 0.78801076186113728 -0.61566146476048833 0.5 0 0 1 I I 0 1 0.5 forward I I I I #
face $-1 $160 $161 $54 $-1 $162 reversed single #
loop $-1 $-1 $163 $69 #
plane-surface $-1 -7.9400289800151214 74.227768453550965 107.85302415549188 -1 0 0 0 0.78801076186113728 0.61566146476048833 forward_v I I I I #
face $-1 $164 $165 $55 $-1 $166 forward single #
loop $-1 $167 $168 $70 #
cone-surface $-1 -19.957843123734087 22.758945688272991 7.2255366543301367 0 -0.78801076186113728 -0.61566146476048833 0.5 0 0 1 I I 0 1 0.5 forward I I I I #
face $-1 $169 $170 $56 $-1 $171 forward single #
loop $-1 $172 $173 $71 #
cone-surface $-1 -12.747154637502703 22.758945688272991 7.2255366543301367 0 -0.78801076186113728 -0.61566146476048833 0.5 0 0 1 I I 0 1 0.5 forward I I I I #
face $-1 $174 $175 $57 $-1 $176 reversed single #
loop $-1 $-1 $177 $72 #
plane-surface $-1 29.694387424365758 74.227768453550965 107.85302415549188 -1 0 0 0 0.78801076186113728 0.61566146476048833 forward_v I I I I #
face $-1 $178 $179 $58 $-1 $180 forward single #
loop $-1 $181 $182 $73 #
cone-surface $-1 17.676573280646799 22.758945688272991 7.2255366543301367 0 -0.78801076186113728 -0.61566146476048833 0.5 0 0 1 I I 0 1 0.5 forward I I I I #
face $-1 $183 $184 $59 $-1 $185 forward single #
loop $-1 $186 $187 $74 #
cone-surface $-1 24.887261766878176 22.758945688272991 7.2255366543301367 0 -0.78801076186113728 -0.61566146476048833 0.5 0 0 1 I I 0 1 0.5 forward I I I I #
face $-1 $188 $189 $45 $-1 $190 reversed single #
loop $-1 $-1 $191 $75 #
plane-surface $-1 0 0 -9.9712095934003493 0 0 1 1 0 0 forward_v I I I I #
coedge $-1 $192 $193 $194 $195 forward $76 $-1 #
face $-1 $196 $197 $46 $-1 $198 reversed single #
loop $-1 $-1 $199 $78 #
plane-surface $-1 -37.634416404380886 0 -7.017032964115665 -1 0 0 0 0 1 forward_v I I I I #
coedge $-1 $200 $201 $202 $203 forward $79 $-1 #
face $-1 $204 $205 $47 $-1 $206 reversed single #
loop $-1 $-1 $207 $81 #
plane-surface $-1 37.634416404380886 0 -7.017032964115665 1 0 0 0 0 -1 forward_v I I I I #
coedge $-1 $208 $209 $210 $211 reversed $82 $-1 #
face $-1 $212 $213 $48 $-1 $214 reversed single #
loop $-1 $-1 $215 $84 #
plane-surface $-1 -16.352498880618398 -25.186678030476642 5.6132204325167052 0 -0.78801076186113728 0.61566146476048833 1 0 0 forward_v I I I I #
coedge $-1 $216 $217 $218 $219 reversed $85 $-1 #
face $-1 $-1 $220 $49 $-1 $221 forward single #
loop $-1 $222 $223 $87 #
cone-surface $-1 -19.957843123734087 -21.836627754491808 6.5049429295116319 0 0.78801076186113728 -0.61566146476048833 0.25 0 0 1 I I -0.70710678118654746 0.70710678118654746 0.25 forward I I I I #
loop $-1 $-1 $224 $64 #
coedge $-1 $140 $140 $225 $226 reversed $88 $-1 #
face $-1 $-1 $227 $50 $-1 $228 forward single #
loop $-1 $229 $230 $90 #
cone-surface $-1 -12.747154637502703 -21.836627754491808 6.5049429295116319 0 0.78801076186113728 -0.61566146476048833 0.25 0 0 1 I I -0.70710678118654746 0.70710678118654746 0.25 forward I I I I #
loop $-1 $-1 $231 $65 #
coedge $-1 $145 $145 $232 $233 reversed $91 $-1 #
face $-1 $234 $235 $51 $-1 $236 reversed single #
loop $-1 $-1 $237 $93 #
plane-surface $-1 21.28191752376248 -25.186678030476642 5.6132204325167052 0 -0.78801076186113728 0.61566146476048833 1 0 0 forward_v I I I I #
coedge $-1 $238 $239 $240 $241 reversed $94 $-1 #
face $-1 $-1 $242 $52 $-1 $243 forward single #
loop $-1 $244 $245 $96 #
cone-surface $-1 17.676573280646799 -21.836627754491808 6.5049429295116319 0 0.78801076186113728 -0.61566146476048833 0.25 0 0 1 I I -0.70710678118654746 0.70710678118654746 0.25 forward I I I I #
loop $-1 $-1 $246 $67 #
coedge $-1 $154 $154 $247 $248 reversed $97 $-1 #
face $-1 $-1 $249 $53 $-1 $250 forward single #
loop $-1 $251 $252 $99 #
cone-surface $-1 24.887261766878176 -21.836627754491808 6.5049429295116319 0 0.78801076186113728 -0.61566146476048833 0.25 0 0 1 I I -0.70710678118654746 0.70710678118654746 0.25 forward I I I I #
loop $-1 $-1 $253 $68 #
coedge $-1 $159 $159 $254 $255 reversed $100 $-1 #
face $-1 $256 $257 $54 $-1 $258 reversed single #
loop $-1 $-1 $259 $102 #
plane-surface $-1 -16.352498880618398 -5.8262561469115042 45.307967119610858 0 0.78801076186113728 0.61566146476048833 1 0 0 forward_v I I I I #
coedge $-1 $260 $261 $262 $263 reversed $103 $-1 #
face $-1 $-1 $264 $55 $-1 $265 forward single #
loop $-1 $266 $267 $105 #
cone-surface $-1 -19.957843123734087 21.836627754491811 6.5049429295116283 0 -0.78801076186113728 -0.61566146476048833 0.25 0 0 1 I I -0.70710678118654746 0.70710678118654746 0.25 forward I I I I #
loop $-1 $-1 $268 $70 #
coedge $-1 $168 $168 $269 $270 reversed $106 $-1 #
face $-1 $-1 $271 $56 $-1 $272 forward single #
loop $-1 $273 $274 $108 #
cone-surface $-1 -12.747154637502703 21.836627754491811 6.5049429295116283 0 -0.78801076186113728 -0.61566146476048833 0.25 0 0 1 I I -0.70710678118654746 0.70710678118654746 0.25 forward I I I I #
loop $-1 $-1 $275 $71 #
coedge $-1 $173 $173 $276 $277 reversed $109 $-1 #
face $-1 $278 $279 $57 $-1 $280 reversed single #
loop $-1 $-1 $281 $111 #
plane-surface $-1 21.28191752376248 -5.8262561469115042 45.307967119610858 0 0.78801076186113728 0.61566146476048833 1 0 0 forward_v I I I I #
coedge $-1 $282 $283 $284 $285 reversed $112 $-1 #
face $-1 $-1 $286 $58 $-1 $287 forward single #
loop $-1 $288 $289 $114 #
cone-surface $-1 17.676573280646799 21.836627754491811 6.5049429295116283 0 -0.78801076186113728 -0.61566146476048833 0.25 0 0 1 I I -0.70710678118654746 0.70710678118654746 0.25 forward I I I I #
loop $-1 $-1 $290 $73 #
coedge $-1 $182 $182 $291 $292 reversed $115 $-1 #
face $-1 $-1 $293 $59 $-1 $294 forward single #
loop $-1 $295 $296 $117 #
cone-surface $-1 24.887261766878176 21.836627754491811 6.5049429295116283 0 -0.78801076186113728 -0.61566146476048833 0.25 0 0 1 I I -0.70710678118654746 0.70710678118654746 0.25 forward I I I I #
loop $-1 $-1 $297 $74 #
coedge $-1 $187 $187 $298 $299 reversed $118 $-1 #
face $-1 $300 $301 $45 $-1 $302 reversed single #
loop $-1 $-1 $303 $120 #
plane-surface $-1 0 -25.186678030476653 0 0 1 0 0 0 1 forward_v I I I I #
coedge $-1 $304 $305 $306 $307 forward $121 $-1 #
coedge $-1 $308 $123 $309 $310 forward $76 $-1 #
coedge $-1 $123 $308 $311 $312 forward $76 $-1 #
coedge $-1 $313 $314 $123 $195 reversed $315 $-1 #
edge $-1 $316 -25.186678030476653 $317 25.186678030476653 $194 $318 forward 7 unknown #
face $-1 $319 $320 $46 $-1 $321 reversed single #
loop $-1 $-1 $322 $124 #
plane-surface $-1 0 0 -9.9712095934003493 0 0 1 1 0 0 forward_v I I I I #
coedge $-1 $323 $202 $324 $325 reversed $125 $-1 #
coedge $-1 $326 $127 $327 $328 reversed $79 $-1 #
coedge $-1 $127 $326 $329 $330 reversed $79 $-1 #
coedge $-1 $199 $331 $127 $203 reversed $125 $-1 #
edge $-1 $332 -25.186678030476653 $333 25.186678030476653 $202 $334 forward 7 unknown #
face $-1 $335 $336 $47 $-1 $337 reversed single #
loop $-1 $-1 $338 $128 #
plane-surface $-1 0 -25.186678030476653 0 0 1 0 0 0 1 forward_v I I I I #
coedge $-1 $339 $340 $341 $342 reversed $129 $-1 #
coedge $-1 $343 $131 $344 $345 reversed $82 $-1 #
coedge $-1 $131 $343 $338 $346 reversed $82 $-1 #
coedge $-1 $347 $348 $131 $211 forward $349 $-1 #
edge $-1 $350 -25.186678030476653 $351 25.186678030476653 $210 $352 forward 7 unknown #
face $-1 $353 $354 $48 $-1 $355 forward single #
loop $-1 $-1 $356 $132 #
plane-surface $-1 -7.9400289800151214 -105.24070263093911 68.158277468397728 -1 0 0 0 -0.78801076186113728 0.61566146476048833 forward_v I I I I #
coedge $-1 $357 $358 $359 $360 reversed $133 $-1 #
coedge $-1 $217 $135 $361 $362 reversed $85 $-1 #
coedge $-1 $135 $216 $357 $363 reversed $85 $-1 #
coedge $-1 $359 $364 $135 $219 forward $365 $-1 #
edge $-1 $366 24.107929140798515 $367 28.465918301682173 $218 $368 forward 7 unknown #
loop $-1 $-1 $225 $136 #
plane-surface $-1 -16.352498880618398 -25.186678030476642 5.6132204325167052 0 -0.78801076186113728 0.61566146476048833 1 0 0 forward_v I I I I #
loop $-1 $-1 $369 $87 #
coedge $-1 $223 $223 $224 $370 reversed $137 $-1 #
coedge $-1 $224 $224 $223 $370 forward $139 $-1 #
coedge $-1 $225 $225 $140 $226 forward $220 $-1 #
edge $-1 $371 2.6244037170352871e-015 $371 6.2831853071796031 $225 $372 forward 7 unknown #
loop $-1 $-1 $232 $141 #
plane-surface $-1 -16.352498880618398 -25.186678030476642 5.6132204325167052 0 -0.78801076186113728 0.61566146476048833 1 0 0 forward_v I I I I #
loop $-1 $-1 $373 $90 #
coedge $-1 $230 $230 $231 $374 reversed $142 $-1 #
coedge $-1 $231 $231 $230 $374 forward $144 $-1 #
coedge $-1 $232 $232 $145 $233 forward $227 $-1 #
edge $-1 $375 2.6244037170352871e-015 $375 6.2831853071796031 $232 $376 forward 7 unknown #
face $-1 $377 $378 $51 $-1 $379 reversed single #
loop $-1 $-1 $380 $146 #
plane-surface $-1 29.694387424365758 -105.24070263093911 68.158277468397728 -1 0 0 0 -0.78801076186113728 0.61566146476048833 forward_v I I I I #
coedge $-1 $381 $382 $383 $384 reversed $147 $-1 #
coedge $-1 $239 $149 $385 $386 reversed $94 $-1 #
coedge $-1 $149 $238 $381 $387 reversed $94 $-1 #
coedge $-1 $383 $388 $149 $241 forward $378 $-1 #
edge $-1 $389 24.107929140798515 $390 28.465918301682173 $240 $391 forward 7 unknown #
loop $-1 $-1 $247 $150 #
plane-surface $-1 21.28191752376248 -25.186678030476642 5.6132204325167052 0 -0.78801076186113728 0.61566146476048833 1 0 0 forward_v I I I I #
loop $-1 $-1 $392 $96 #
coedge $-1 $245 $245 $246 $393 reversed $151 $-1 #
coedge $-1 $246 $246 $245 $393 forward $153 $-1 #
coedge $-1 $247 $247 $154 $248 forward $242 $-1 #
edge $-1 $394 2.6244037170352871e-015 $394 6.2831853071796031 $247 $395 forward 7 unknown #
loop $-1 $-1 $254 $155 #
plane-surface $-1 21.28191752376248 -25.186678030476642 5.6132204325167052 0 -0.78801076186113728 0.61566146476048833 1 0 0 forward_v I I I I #
loop $-1 $-1 $396 $99 #
coedge $-1 $252 $252 $253 $397 reversed $156 $-1 #
coedge $-1 $253 $253 $252 $397 forward $158 $-1 #
coedge $-1 $254 $254 $159 $255 forward $249 $-1 #
edge $-1 $398 2.6244037170352871e-015 $398 6.2831853071796031 $254 $399 forward 7 unknown #
face $-1 $400 $401 $54 $-1 $402 reversed single #
loop $-1 $-1 $403 $160 #
plane-surface $-1 -24.764968781221675 74.227768453550965 107.85302415549188 1 0 0 0 -0.78801076186113728 -0.61566146476048833 forward_v I I I I #
coedge $-1 $404 $405 $406 $407 reversed $161 $-1 #
coedge $-1 $261 $163 $408 $409 reversed $103 $-1 #
coedge $-1 $163 $260 $404 $410 reversed $103 $-1 #
coedge $-1 $406 $411 $163 $263 forward $401 $-1 #
edge $-1 $412 43.955302484345594 $413 48.313291645229263 $262 $414 forward 7 unknown #
loop $-1 $-1 $269 $164 #
plane-surface $-1 -16.352498880618398 -5.8262561469115042 45.307967119610858 0 0.78801076186113728 0.61566146476048833 1 0 0 forward_v I I I I #
loop $-1 $-1 $415 $105 #
coedge $-1 $267 $267 $268 $416 reversed $165 $-1 #
coedge $-1 $268 $268 $267 $416 forward $167 $-1 #
coedge $-1 $269 $269 $168 $270 forward $264 $-1 #
edge $-1 $417 5.2551868701233767e-016 $417 6.2831853071796013 $269 $418 forward 7 unknown #
loop $-1 $-1 $276 $169 #
plane-surface $-1 -16.352498880618398 -5.8262561469115042 45.307967119610858 0 0.78801076186113728 0.61566146476048833 1 0 0 forward_v I I I I #
loop $-1 $-1 $419 $108 #
coedge $-1 $274 $274 $275 $420 reversed $170 $-1 #
coedge $-1 $275 $275 $274 $420 forward $172 $-1 #
coedge $-1 $276 $276 $173 $277 forward $271 $-1 #
edge $-1 $421 5.2551868701233767e-016 $421 6.2831853071796013 $276 $422 forward 7 unknown #
face $-1 $423 $424 $57 $-1 $425 reversed single #
loop $-1 $-1 $426 $174 #
plane-surface $-1 12.869447623159203 74.227768453550965 107.85302415549188 1 0 0 0 -0.78801076186113728 -0.61566146476048833 forward_v I I I I #
coedge $-1 $427 $428 $429 $430 reversed $175 $-1 #
coedge $-1 $283 $177 $431 $432 reversed $112 $-1 #
coedge $-1 $177 $282 $427 $433 reversed $112 $-1 #
coedge $-1 $429 $434 $177 $285 forward $424 $-1 #
edge $-1 $435 43.955302484345594 $436 48.313291645229263 $284 $437 forward 7 unknown #
loop $-1 $-1 $291 $178 #
plane-surface $-1 21.28191752376248 -5.8262561469115042 45.307967119610858 0 0.78801076186113728 0.61566146476048833 1 0 0 forward_v I I I I #
loop $-1 $-1 $438 $114 #
coedge $-1 $289 $289 $290 $439 reversed $179 $-1 #
coedge $-1 $290 $290 $289 $439 forward $181 $-1 #
coedge $-1 $291 $291 $182 $292 forward $286 $-1 #
edge $-1 $440 5.2551868701233767e-016 $440 6.2831853071796013 $291 $441 forward 7 unknown #
loop $-1 $-1 $298 $183 #
plane-surface $-1 21.28191752376248 -5.8262561469115042 45.307967119610858 0 0.78801076186113728 0.61566146476048833 1 0 0 forward_v I I I I #
loop $-1 $-1 $442 $117 #
coedge $-1 $296 $296 $297 $443 reversed $184 $-1 #
coedge $-1 $297 $297 $296 $443 forward $186 $-1 #
coedge $-1 $298 $298 $187 $299 forward $293 $-1 #
edge $-1 $444 5.2551868701233767e-016 $444 6.2831853071796013 $298 $445 forward 7 unknown #
face $-1 $446 $447 $45 $-1 $448 reversed single #
loop $-1 $-1 $449 $188 #
plane-surface $-1 -50.795007171849726 0 0 1 0 0 0 0 -1 forward_v I I I I #
coedge $-1 $450 $311 $451 $452 forward $189 $-1 #
coedge $-1 $453 $191 $450 $454 forward $121 $-1 #
coedge $-1 $191 $453 $455 $456 forward $121 $-1 #
coedge $-1 $314 $313 $191 $307 reversed $315 $-1 #
edge $-1 $457 -25.186678030476653 $458 25.186678030476653 $306 $459 forward 7 unknown #
coedge $-1 $193 $192 $460 $461 forward $76 $-1 #
coedge $-1 $462 $463 $192 $310 reversed $447 $-1 #
edge $-1 $317 -50.795007171849726 $464 50.795007171849726 $309 $465 forward 7 unknown #
coedge $-1 $303 $466 $193 $312 reversed $189 $-1 #
edge $-1 $467 -50.795007171849726 $316 50.795007171849726 $311 $468 forward 7 unknown #
coedge $-1 $306 $194 $466 $469 forward $315 $-1 #
coedge $-1 $194 $306 $462 $470 reversed $315 $-1 #
loop $-1 $-1 $313 $446 #
vertex $-1 $195 $471 #
vertex $-1 $195 $472 #
straight-curve $-1 50.795007171849726 0 9.9712095934003493 0 1 0 I I #
face $-1 $473 $474 $46 $-1 $475 reversed single #
loop $-1 $-1 $324 $196 #
plane-surface $-1 0 -25.186678030476653 0 0 1 0 0 0 1 forward_v I I I I #
coedge $-1 $476 $477 $323 $478 forward $197 $-1 #
coedge $-1 $331 $199 $322 $478 reversed $125 $-1 #
coedge $-1 $329 $479 $199 $325 forward $320 $-1 #
edge $-1 $480 -6.4626931113425172 $332 -0.55433985277314823 $324 $481 forward 7 unknown #
coedge $-1 $201 $200 $482 $483 reversed $79 $-1 #
coedge $-1 $484 $485 $200 $328 forward $486 $-1 #
edge $-1 $487 -28.687651277792078 $333 -15.527060510323231 $327 $488 forward 7 unknown #
coedge $-1 $489 $324 $201 $330 forward $320 $-1 #
edge $-1 $332 15.527060510323231 $490 28.687651277792078 $329 $491 forward 7 unknown #
coedge $-1 $202 $323 $484 $492 reversed $125 $-1 #
vertex $-1 $330 $493 #
vertex $-1 $328 $494 #
straight-curve $-1 -37.634416404380886 0 -4.0628563348309807 0 1 0 I I #
face $-1 $495 $496 $47 $-1 $497 reversed single #
loop $-1 $-1 $498 $204 #
plane-surface $-1 0 0 -9.9712095934003493 0 0 1 1 0 0 forward_v I I I I #
coedge $-1 $499 $500 $209 $346 forward $205 $-1 #
coedge $-1 $501 $207 $498 $502 reversed $129 $-1 #
coedge $-1 $207 $501 $343 $503 reversed $129 $-1 #
coedge $-1 $344 $504 $207 $342 forward $496 $-1 #
edge $-1 $505 -6.4626931113425172 $506 -0.55433985277314823 $341 $507 forward 7 unknown #
coedge $-1 $209 $208 $340 $503 forward $82 $-1 #
coedge $-1 $508 $341 $208 $345 forward $496 $-1 #
edge $-1 $506 15.527060510323235 $350 28.687651277792067 $344 $509 forward 7 unknown #
edge $-1 $351 -28.687651277792067 $510 -15.527060510323235 $338 $511 forward 7 unknown #
coedge $-1 $512 $210 $500 $513 forward $349 $-1 #
coedge $-1 $210 $512 $508 $514 reversed $349 $-1 #
loop $-1 $-1 $210 $495 #
vertex $-1 $514 $515 #
vertex $-1 $513 $516 #
straight-curve $-1 50.795007171849726 0 -4.0628563348309807 0 -1 0 I I #
face $-1 $-1 $365 $48 $-1 $517 reversed single #
loop $-1 $-1 $518 $212 #
plane-surface $-1 0 0 9.9712095934003493 0 0 1 1 0 0 forward_v I I I I #
coedge $-1 $519 $520 $521 $522 reversed $213 $-1 #
coedge $-1 $523 $215 $217 $363 forward $133 $-1 #
coedge $-1 $215 $523 $519 $524 forward $133 $-1 #
coedge $-1 $521 $218 $215 $360 forward $365 $-1 #
edge $-1 $367 -16.588719340912476 $525 0.23622046029407784 $359 $526 forward 7 unknown #
coedge $-1 $527 $528 $216 $362 forward $354 $-1 #
edge $-1 $529 -30.838507482768453 $366 -27.433673284992903 $361 $530 forward 7 unknown #
edge $-1 $367 -1.7060219019742567e-014 $529 5.5303675683195888 $217 $531 forward 7 unknown #
coedge $-1 $218 $521 $527 $532 reversed $365 $-1 #
loop $-1 $-1 $521 $353 #
vertex $-1 $532 $533 #
vertex $-1 $219 $534 #
straight-curve $-1 -24.764968781221675 -25.186678030476656 34.079138734198864 0 0 -1 I I #
coedge $-1 $369 $369 $-1 $535 reversed $222 $-1 #
edge $-1 $536 0 $536 6.2831853071796004 $223 $537 forward 7 unknown #
vertex $-1 $226 $538 #
ellipse-curve $-1 -19.957843123734087 -23.484260931588878 7.7922150129585228 0 -0.78801076186113728 0.61566146476048833 0.5 0 0 1 I I #
coedge $-1 $373 $373 $-1 $539 reversed $229 $-1 #
edge $-1 $540 0 $540 6.2831853071796004 $230 $541 forward 7 unknown #
vertex $-1 $233 $542 #
ellipse-curve $-1 -12.747154637502703 -23.484260931588878 7.7922150129585228 0 -0.78801076186113728 0.61566146476048833 0.5 0 0 1 I I #
face $-1 $-1 $543 $51 $-1 $544 forward single #
loop $-1 $-1 $240 $234 #
plane-surface $-1 0 -25.186678030476653 0 0 1 0 0 0 1 forward_v I I I I #
coedge $-1 $545 $546 $547 $548 reversed $235 $-1 #
coedge $-1 $549 $237 $239 $387 forward $147 $-1 #
coedge $-1 $237 $549 $545 $550 forward $147 $-1 #
coedge $-1 $547 $240 $237 $384 forward $378 $-1 #
edge $-1 $390 2.2284888612779632 $551 19.053428662484517 $383 $552 forward 7 unknown #
coedge $-1 $553 $554 $238 $386 forward $543 $-1 #
edge $-1 $555 -30.838507482768453 $389 -27.433673284992903 $385 $556 forward 7 unknown #
edge $-1 $390 -1.7060219019742567e-014 $555 5.5303675683195888 $239 $557 forward 7 unknown #
coedge $-1 $240 $547 $553 $558 reversed $378 $-1 #
vertex $-1 $558 $559 #
vertex $-1 $241 $560 #
straight-curve $-1 12.869447623159203 -25.186678030476656 34.079138734198864 0 0 -1 I I #
coedge $-1 $392 $392 $-1 $561 reversed $244 $-1 #
edge $-1 $562 0 $562 6.2831853071796004 $245 $563 forward 7 unknown #
vertex $-1 $248 $564 #
ellipse-curve $-1 17.676573280646799 -23.484260931588878 7.7922150129585228 0 -0.78801076186113728 0.61566146476048833 0.5 0 0 1 I I #
coedge $-1 $396 $396 $-1 $565 reversed $251 $-1 #
edge $-1 $566 0 $566 6.2831853071796004 $252 $567 forward 7 unknown #
vertex $-1 $255 $568 #
ellipse-curve $-1 24.887261766878176 -23.484260931588878 7.7922150129585228 0 -0.78801076186113728 0.61566146476048833 0.5 0 0 1 I I #
face $-1 $-1 $569 $54 $-1 $570 forward single #
loop $-1 $-1 $262 $256 #
plane-surface $-1 0 25.186678030476653 0 0 -1 0 0 0 -1 forward_v I I I I #
coedge $-1 $571 $572 $573 $574 reversed $257 $-1 #
coedge $-1 $575 $259 $261 $410 forward $161 $-1 #
coedge $-1 $259 $575 $571 $576 forward $161 $-1 #
coedge $-1 $573 $262 $259 $407 forward $401 $-1 #
edge $-1 $413 -0.23622046029407784 $577 16.588719340912476 $406 $578 forward 7 unknown #
coedge $-1 $579 $580 $260 $409 forward $569 $-1 #
edge $-1 $581 -15.33204039407439 $412 -11.92720619629883 $408 $582 forward 7 unknown #
edge $-1 $413 -50.373356060953341 $581 -44.842988492633715 $261 $583 forward 7 unknown #
coedge $-1 $262 $573 $579 $584 reversed $401 $-1 #
vertex $-1 $584 $585 #
vertex $-1 $263 $586 #
straight-curve $-1 -7.9400289800151214 25.186678030476653 53.92651207774594 0 0 -1 I I #
coedge $-1 $415 $415 $-1 $587 reversed $266 $-1 #
edge $-1 $588 0 $588 6.2831853071796004 $267 $589 forward 7 unknown #
vertex $-1 $270 $590 #
ellipse-curve $-1 -19.957843123734087 23.484260931588874 7.7922150129585157 0 0.78801076186113728 0.61566146476048833 0.5 0 0 1 I I #
coedge $-1 $419 $419 $-1 $591 reversed $273 $-1 #
edge $-1 $592 0 $592 6.2831853071796004 $274 $593 forward 7 unknown #
vertex $-1 $277 $594 #
ellipse-curve $-1 -12.747154637502703 23.484260931588874 7.7922150129585157 0 0.78801076186113728 0.61566146476048833 0.5 0 0 1 I I #
face $-1 $-1 $595 $57 $-1 $596 forward single #
loop $-1 $-1 $284 $278 #
plane-surface $-1 0 25.186678030476653 0 0 -1 0 0 0 -1 forward_v I I I I #
coedge $-1 $597 $598 $599 $600 reversed $279 $-1 #
coedge $-1 $601 $281 $283 $433 forward $175 $-1 #
coedge $-1 $281 $601 $597 $602 forward $175 $-1 #
coedge $-1 $599 $284 $281 $430 forward $424 $-1 #
edge $-1 $436 -19.053428662484517 $603 -2.2284888612779632 $429 $604 forward 7 unknown #
coedge $-1 $605 $606 $282 $432 forward $595 $-1 #
edge $-1 $607 -15.33204039407439 $435 -11.92720619629883 $431 $608 forward 7 unknown #
edge $-1 $436 -50.373356060953341 $607 -44.842988492633715 $283 $609 forward 7 unknown #
coedge $-1 $284 $599 $605 $610 reversed $424 $-1 #
vertex $-1 $610 $611 #
vertex $-1 $285 $612 #
straight-curve $-1 29.694387424365758 25.186678030476653 53.92651207774594 0 0 -1 I I #
coedge $-1 $438 $438 $-1 $613 reversed $288 $-1 #
edge $-1 $614 0 $614 6.2831853071796004 $289 $615 forward 7 unknown #
vertex $-1 $292 $616 #
ellipse-curve $-1 17.676573280646799 23.484260931588874 7.7922150129585157 0 0.78801076186113728 0.61566146476048833 0.5 0 0 1 I I #
coedge $-1 $442 $442 $-1 $617 reversed $295 $-1 #
edge $-1 $618 0 $618 6.2831853071796004 $296 $619 forward 7 unknown #
vertex $-1 $299 $620 #
ellipse-curve $-1 24.887261766878176 23.484260931588874 7.7922150129585157 0 0.78801076186113728 0.61566146476048833 0.5 0 0 1 I I #
face $-1 $-1 $315 $45 $-1 $621 reversed single #
loop $-1 $-1 $462 $300 #
plane-surface $-1 0 25.186678030476653 0 0 -1 0 0 0 -1 forward_v I I I I #
coedge $-1 $622 $460 $463 $623 forward $301 $-1 #
coedge $-1 $466 $303 $304 $454 reversed $189 $-1 #
coedge $-1 $460 $622 $303 $452 reversed $301 $-1 #
edge $-1 $467 -9.9712095934003493 $624 9.9712095934003493 $451 $625 forward 7 unknown #
coedge $-1 $305 $304 $622 $626 forward $121 $-1 #
edge $-1 $458 -50.795007171849726 $624 50.795007171849726 $450 $627 forward 7 unknown #
coedge $-1 $463 $462 $305 $456 reversed $447 $-1 #
edge $-1 $628 -50.795007171849726 $457 50.795007171849726 $455 $629 forward 7 unknown #
vertex $-1 $307 $630 #
vertex $-1 $469 $631 #
straight-curve $-1 50.795007171849726 0 -9.9712095934003493 0 -1 0 I I #
coedge $-1 $449 $451 $308 $461 reversed $301 $-1 #
edge $-1 $464 -25.186678030476653 $467 25.186678030476653 $460 $632 forward 7 unknown #
coedge $-1 $455 $309 $314 $470 forward $447 $-1 #
coedge $-1 $309 $455 $449 $623 reversed $447 $-1 #
vertex $-1 $310 $633 #
straight-curve $-1 0 25.186678030476653 9.9712095934003493 -1 0 0 I I #
coedge $-1 $311 $450 $313 $469 reversed $189 $-1 #
vertex $-1 $461 $634 #
straight-curve $-1 0 -25.186678030476653 9.9712095934003493 1 0 0 I I #
edge $-1 $316 -9.9712095934003493 $458 9.9712095934003493 $313 $635 forward 7 unknown #
edge $-1 $317 -9.9712095934003493 $457 9.9712095934003493 $314 $636 forward 7 unknown #
point $-1 50.795007171849726 -25.186678030476653 9.9712095934003493 #
point $-1 50.795007171849726 25.186678030476653 9.9712095934003493 #
face $-1 $-1 $486 $46 $-1 $637 reversed single #
loop $-1 $-1 $482 $319 #
plane-surface $-1 -50.795007171849726 0 0 1 0 0 0 0 -1 forward_v I I I I #
coedge $-1 $638 $322 $479 $639 forward $197 $-1 #
coedge $-1 $322 $638 $640 $641 forward $197 $-1 #
edge $-1 $642 -25.186678030476653 $480 25.186678030476653 $322 $643 forward 7 unknown #
coedge $-1 $324 $489 $476 $639 reversed $320 $-1 #
vertex $-1 $639 $644 #
straight-curve $-1 -37.634416404380886 -25.186678030476653 -3.5085164820578325 0 0 1 I I #
coedge $-1 $645 $646 $326 $483 forward $474 $-1 #
edge $-1 $490 -25.186678030476653 $487 25.186678030476653 $482 $647 forward 7 unknown #
coedge $-1 $640 $327 $331 $492 forward $486 $-1 #
coedge $-1 $327 $640 $645 $648 reversed $486 $-1 #
loop $-1 $-1 $484 $473 #
vertex $-1 $648 $649 #
straight-curve $-1 -22.107355894057655 25.186678030476653 -4.0628563348309807 1 0 0 I I #
coedge $-1 $479 $329 $646 $650 forward $320 $-1 #
vertex $-1 $650 $651 #
straight-curve $-1 -22.107355894057655 -25.186678030476653 -4.0628563348309807 -1 0 0 I I #
edge $-1 $333 0.55433985277314823 $642 6.4626931113425172 $484 $652 forward 7 unknown #
point $-1 -37.634416404380886 -25.186678030476653 -4.0628563348309807 #
point $-1 -37.634416404380886 25.186678030476653 -4.0628563348309807 #
face $-1 $-1 $349 $47 $-1 $653 reversed single #
loop $-1 $-1 $344 $335 #
plane-surface $-1 0 25.186678030476653 0 0 -1 0 0 0 -1 forward_v I I I I #
coedge $-1 $654 $655 $339 $502 forward $336 $-1 #
coedge $-1 $656 $338 $501 $657 forward $205 $-1 #
coedge $-1 $338 $656 $347 $513 reversed $205 $-1 #
coedge $-1 $340 $339 $499 $657 reversed $129 $-1 #
edge $-1 $658 -25.186678030476653 $505 25.186678030476653 $498 $659 forward 7 unknown #
edge $-1 $506 -25.186678030476653 $510 25.186678030476653 $340 $660 forward 7 unknown #
coedge $-1 $341 $508 $654 $661 reversed $496 $-1 #
vertex $-1 $661 $662 #
vertex $-1 $345 $663 #
straight-curve $-1 37.634416404380886 25.186678030476653 -3.5085164820578325 0 0 1 I I #
coedge $-1 $504 $344 $348 $514 forward $496 $-1 #
straight-curve $-1 22.107355894057651 25.186678030476653 -4.0628563348309807 1 0 0 I I #
vertex $-1 $346 $664 #
straight-curve $-1 22.107355894057651 -25.186678030476653 -4.0628563348309807 -1 0 0 I I #
coedge $-1 $348 $347 $665 $666 reversed $349 $-1 #
edge $-1 $351 4.0628563348309807 $667 9.9712095934003493 $347 $668 forward 7 unknown #
edge $-1 $350 4.0628563348309807 $669 9.9712095934003493 $348 $670 forward 7 unknown #
point $-1 50.795007171849718 25.186678030476653 -4.0628563348309807 #
point $-1 50.795007171849718 -25.186678030476653 -4.0628563348309807 #
plane-surface $-1 0 -25.186678030476653 0 0 1 0 0 0 1 forward_v I I I I #
coedge $-1 $528 $527 $520 $671 forward $354 $-1 #
coedge $-1 $520 $356 $358 $524 reversed $213 $-1 #
coedge $-1 $356 $519 $518 $671 reversed $213 $-1 #
coedge $-1 $364 $359 $356 $522 forward $365 $-1 #
edge $-1 $525 -28.465918301682173 $672 -24.107929140798515 $521 $673 forward 7 unknown #
coedge $-1 $358 $357 $528 $674 reversed $133 $-1 #
edge $-1 $675 -5.5303675683195888 $525 1.7060219019742567e-014 $519 $676 forward 7 unknown #
vertex $-1 $360 $677 #
straight-curve $-1 -8.1762494403091992 -25.186678030476653 5.6132204325166919 1 0 0 I I #
coedge $-1 $518 $361 $364 $532 forward $354 $-1 #
coedge $-1 $361 $518 $523 $674 forward $354 $-1 #
vertex $-1 $362 $678 #
straight-curve $-1 -24.764968781221675 -52.620351315469556 9.9712095934003493 0 -1 0 I I #
straight-curve $-1 -24.764968781221675 -25.186678030476642 5.6132204325167052 0 0.61566146476048833 0.78801076186113728 I I #
edge $-1 $366 -24.764968781221675 $672 -7.9400289800151214 $364 $679 forward 7 unknown #
point $-1 -24.764968781221675 -25.186678030476653 9.9712095934003493 #
point $-1 -24.764968781221675 -25.186678030476653 5.6132204325166919 #
edge $-1 $680 1 $680 0 $369 $-1 forward 7 unknown #
vertex $-1 $370 $681 #
ellipse-curve $-1 -19.957843123734087 -22.03363044495709 6.6588582957017541 0 -0.78801076186113728 0.61566146476048833 0.5 0 0 1 I I #
point $-1 -19.457843123734087 -23.484260931588882 7.7922150129585273 #
edge $-1 $682 1 $682 0 $373 $-1 forward 7 unknown #
vertex $-1 $374 $683 #
ellipse-curve $-1 -12.747154637502703 -22.03363044495709 6.6588582957017541 0 -0.78801076186113728 0.61566146476048833 0.5 0 0 1 I I #
point $-1 -12.247154637502703 -23.484260931588882 7.7922150129585273 #
loop $-1 $-1 $385 $377 #
plane-surface $-1 0 0 9.9712095934003493 0 0 1 1 0 0 forward_v I I I I #
coedge $-1 $546 $380 $382 $550 reversed $235 $-1 #
coedge $-1 $380 $545 $684 $685 reversed $235 $-1 #
coedge $-1 $388 $383 $380 $548 forward $378 $-1 #
edge $-1 $551 -28.465918301682173 $686 -24.107929140798515 $547 $687 forward 7 unknown #
coedge $-1 $382 $381 $554 $688 reversed $147 $-1 #
edge $-1 $689 -5.5303675683195888 $551 1.7060219019742567e-014 $545 $690 forward 7 unknown #
vertex $-1 $384 $691 #
straight-curve $-1 10.64095876188124 -25.186678030476653 5.6132204325166919 1 0 0 I I #
coedge $-1 $684 $385 $388 $558 forward $543 $-1 #
coedge $-1 $385 $684 $549 $688 forward $543 $-1 #
vertex $-1 $386 $692 #
straight-curve $-1 12.869447623159203 -52.620351315469556 9.9712095934003493 0 -1 0 I I #
straight-curve $-1 12.869447623159203 -25.186678030476642 5.6132204325167052 0 0.61566146476048833 0.78801076186113728 I I #
edge $-1 $389 12.869447623159203 $686 29.694387424365758 $388 $693 forward 7 unknown #
point $-1 12.869447623159203 -25.186678030476653 9.9712095934003493 #
point $-1 12.869447623159203 -25.186678030476653 5.6132204325166919 #
edge $-1 $694 1 $694 0 $392 $-1 forward 7 unknown #
vertex $-1 $393 $695 #
ellipse-curve $-1 17.676573280646799 -22.03363044495709 6.6588582957017541 0 -0.78801076186113728 0.61566146476048833 0.5 0 0 1 I I #
point $-1 18.176573280646799 -23.484260931588882 7.7922150129585273 #
edge $-1 $696 1 $696 0 $396 $-1 forward 7 unknown #
vertex $-1 $397 $697 #
ellipse-curve $-1 24.887261766878176 -22.03363044495709 6.6588582957017541 0 -0.78801076186113728 0.61566146476048833 0.5 0 0 1 I I #
point $-1 25.387261766878176 -23.484260931588882 7.7922150129585273 #
loop $-1 $-1 $408 $400 #
plane-surface $-1 0 0 9.9712095934003493 0 0 1 1 0 0 forward_v I I I I #
coedge $-1 $572 $403 $405 $576 reversed $257 $-1 #
coedge $-1 $403 $571 $698 $699 reversed $257 $-1 #
coedge $-1 $411 $406 $403 $574 forward $401 $-1 #
edge $-1 $577 -48.313291645229263 $700 -43.955302484345594 $573 $701 forward 7 unknown #
coedge $-1 $405 $404 $580 $702 reversed $161 $-1 #
edge $-1 $703 44.842988492633715 $577 50.373356060953341 $571 $704 forward 7 unknown #
vertex $-1 $407 $705 #
straight-curve $-1 -8.1762494403091992 25.186678030476653 5.6132204325166768 -1 0 0 I I #
coedge $-1 $698 $408 $411 $584 forward $569 $-1 #
coedge $-1 $408 $698 $575 $702 forward $569 $-1 #
vertex $-1 $409 $706 #
straight-curve $-1 -7.9400289800151214 37.113884226775482 9.9712095934003457 0 1 0 I I #
straight-curve $-1 -7.9400289800151214 -5.8262561469115042 45.307967119610858 0 -0.61566146476048833 0.78801076186113728 I I #
edge $-1 $412 7.9400289800151214 $700 24.764968781221675 $411 $707 forward 7 unknown #
point $-1 -7.9400289800151214 25.186678030476653 9.9712095934003493 #
point $-1 -7.9400289800151214 25.186678030476653 5.6132204325166768 #
edge $-1 $708 1 $708 0 $415 $-1 forward 7 unknown #
vertex $-1 $416 $709 #
ellipse-curve $-1 -19.957843123734087 22.033630444957094 6.6588582957017506 0 0.78801076186113728 0.61566146476048833 0.5 0 0 1 I I #
point $-1 -19.457843123734087 23.484260931588885 7.7922150129585237 #
edge $-1 $710 1 $710 0 $419 $-1 forward 7 unknown #
vertex $-1 $420 $711 #
ellipse-curve $-1 -12.747154637502703 22.033630444957094 6.6588582957017506 0 0.78801076186113728 0.61566146476048833 0.5 0 0 1 I I #
point $-1 -12.247154637502703 23.484260931588885 7.7922150129585237 #
loop $-1 $-1 $431 $423 #
plane-surface $-1 0 0 9.9712095934003493 0 0 1 1 0 0 forward_v I I I I #
coedge $-1 $598 $426 $428 $602 reversed $279 $-1 #
coedge $-1 $426 $597 $712 $713 reversed $279 $-1 #
coedge $-1 $434 $429 $426 $600 forward $424 $-1 #
edge $-1 $603 -48.313291645229263 $714 -43.955302484345594 $599 $715 forward 7 unknown #
coedge $-1 $428 $427 $606 $716 reversed $175 $-1 #
edge $-1 $717 44.842988492633715 $603 50.373356060953341 $597 $718 forward 7 unknown #
vertex $-1 $430 $719 #
straight-curve $-1 10.64095876188124 25.186678030476653 5.6132204325166768 -1 0 0 I I #
coedge $-1 $712 $431 $434 $610 forward $595 $-1 #
coedge $-1 $431 $712 $601 $716 forward $595 $-1 #
vertex $-1 $432 $720 #
straight-curve $-1 29.694387424365758 37.113884226775482 9.9712095934003457 0 1 0 I I #
straight-curve $-1 29.694387424365758 -5.8262561469115042 45.307967119610858 0 -0.61566146476048833 0.78801076186113728 I I #
edge $-1 $435 -29.694387424365758 $714 -12.869447623159203 $434 $721 forward 7 unknown #
point $-1 29.694387424365758 25.186678030476653 9.9712095934003493 #
point $-1 29.694387424365758 25.186678030476653 5.6132204325166768 #
edge $-1 $722 1 $722 0 $438 $-1 forward 7 unknown #
vertex $-1 $439 $723 #
ellipse-curve $-1 17.676573280646799 22.033630444957094 6.6588582957017506 0 0.78801076186113728 0.61566146476048833 0.5 0 0 1 I I #
point $-1 18.176573280646799 23.484260931588885 7.7922150129585237 #
edge $-1 $724 1 $724 0 $442 $-1 forward 7 unknown #
vertex $-1 $443 $725 #
ellipse-curve $-1 24.887261766878176 22.033630444957094 6.6588582957017506 0 0.78801076186113728 0.61566146476048833 0.5 0 0 1 I I #
point $-1 25.387261766878176 23.484260931588885 7.7922150129585237 #
plane-surface $-1 50.795007171849726 0 0 -1 0 0 0 0 1 forward_v I I I I #
coedge $-1 $451 $449 $453 $626 reversed $301 $-1 #
edge $-1 $464 -9.9712095934003493 $628 9.9712095934003493 $463 $726 forward 7 unknown #
vertex $-1 $626 $727 #
straight-curve $-1 -50.795007171849726 -25.186678030476653 0 0 0 -1 I I #
edge $-1 $624 -25.186678030476653 $628 25.186678030476653 $622 $728 forward 7 unknown #
straight-curve $-1 0 -25.186678030476653 -9.9712095934003493 -1 0 0 I I #
vertex $-1 $456 $729 #
straight-curve $-1 0 25.186678030476653 -9.9712095934003493 1 0 0 I I #
point $-1 50.795007171849726 25.186678030476653 -9.9712095934003493 #
point $-1 50.795007171849726 -25.186678030476653 -9.9712095934003493 #
straight-curve $-1 -50.795007171849726 0 9.9712095934003493 0 -1 0 I I #
point $-1 -50.795007171849726 25.186678030476653 9.9712095934003493 #
point $-1 -50.795007171849726 -25.186678030476653 9.9712095934003493 #
straight-curve $-1 50.795007171849726 -25.186678030476653 0 0 0 -1 I I #
straight-curve $-1 50.795007171849726 25.186678030476653 0 0 0 -1 I I #
plane-surface $-1 0 25.186678030476653 0 0 -1 0 0 0 -1 forward_v I I I I #
coedge $-1 $477 $476 $730 $731 forward $197 $-1 #
edge $-1 $480 37.634416404380886 $732 50.795007171849726 $479 $733 forward 7 unknown #
coedge $-1 $485 $484 $477 $641 reversed $486 $-1 #
edge $-1 $734 -50.795007171849726 $642 -37.634416404380886 $640 $735 forward 7 unknown #
vertex $-1 $492 $736 #
straight-curve $-1 -37.634416404380886 0 -9.9712095934003493 0 -1 0 I I #
point $-1 -37.634416404380886 -25.186678030476653 -9.9712095934003493 #
coedge $-1 $730 $482 $485 $648 forward $474 $-1 #
coedge $-1 $482 $730 $489 $650 reversed $474 $-1 #
straight-curve $-1 -50.795007171849726 0 -4.0628563348309807 0 1 0 I I #
edge $-1 $487 4.0628563348309807 $734 9.9712095934003493 $485 $737 forward 7 unknown #
point $-1 -50.795007171849733 25.186678030476653 -4.0628563348309807 #
edge $-1 $490 4.0628563348309807 $732 9.9712095934003493 $646 $738 forward 7 unknown #
point $-1 -50.795007171849733 -25.186678030476653 -4.0628563348309807 #
straight-curve $-1 -37.634416404380886 25.186678030476653 -3.5085164820578325 0 0 -1 I I #
plane-surface $-1 50.795007171849726 0 0 -1 0 0 0 0 1 forward_v I I I I #
coedge $-1 $665 $498 $504 $661 forward $336 $-1 #
coedge $-1 $498 $665 $656 $739 forward $336 $-1 #
coedge $-1 $500 $499 $655 $739 reversed $205 $-1 #
edge $-1 $510 0.55433985277314823 $658 6.4626931113425172 $499 $740 forward 7 unknown #
vertex $-1 $502 $741 #
straight-curve $-1 37.634416404380886 0 -9.9712095934003493 0 1 0 I I #
straight-curve $-1 37.634416404380886 0 -4.0628563348309807 0 -1 0 I I #
edge $-1 $505 37.634416404380886 $669 50.795007171849726 $504 $742 forward 7 unknown #
point $-1 37.634416404380886 25.186678030476653 -9.9712095934003493 #
point $-1 37.634416404380886 25.186678030476653 -4.0628563348309807 #
point $-1 37.634416404380886 -25.186678030476653 -4.0628563348309807 #
coedge $-1 $655 $654 $512 $666 forward $336 $-1 #
edge $-1 $669 -25.186678030476653 $667 25.186678030476653 $512 $743 forward 7 unknown #
vertex $-1 $513 $744 #
straight-curve $-1 50.795007171849726 -25.186678030476653 0 0 0 -1 I I #
vertex $-1 $666 $745 #
straight-curve $-1 50.795007171849726 25.186678030476653 0 0 0 -1 I I #
edge $-1 $672 27.433673284992903 $675 30.838507482768453 $518 $746 forward 7 unknown #
vertex $-1 $671 $747 #
straight-curve $-1 -7.9400289800151214 -25.186678030476656 34.079138734198864 0 0 1 I I #
edge $-1 $675 -0.23622046029407784 $529 16.588719340912476 $528 $748 forward 7 unknown #
vertex $-1 $674 $749 #
straight-curve $-1 -7.9400289800151214 -25.186678030476642 5.6132204325167052 0 -0.61566146476048833 -0.78801076186113728 I I #
point $-1 -7.9400289800151214 -25.186678030476653 5.6132204325166919 #
point $-1 -24.764968781221675 -21.781843832701103 9.9712095934003493 #
straight-curve $-1 0 -25.186678030476653 9.9712095934003493 1 0 0 I I #
vertex $-1 $535 $750 #
point $-1 -19.457843123734087 -22.03363044495709 6.6588582957017541 #
vertex $-1 $539 $751 #
point $-1 -12.247154637502703 -22.03363044495709 6.6588582957017541 #
coedge $-1 $554 $553 $546 $685 forward $543 $-1 #
edge $-1 $686 27.433673284992903 $689 30.838507482768453 $684 $752 forward 7 unknown #
vertex $-1 $685 $753 #
straight-curve $-1 29.694387424365758 -25.186678030476656 34.079138734198864 0 0 1 I I #
edge $-1 $689 -19.053428662484517 $555 -2.2284888612779632 $554 $754 forward 7 unknown #
vertex $-1 $688 $755 #
straight-curve $-1 29.694387424365758 -25.186678030476642 5.6132204325167052 0 -0.61566146476048833 -0.78801076186113728 I I #
point $-1 29.694387424365758 -25.186678030476653 5.6132204325166919 #
point $-1 12.869447623159203 -21.781843832701103 9.9712095934003493 #
straight-curve $-1 0 -25.186678030476653 9.9712095934003493 1 0 0 I I #
vertex $-1 $561 $756 #
point $-1 18.176573280646799 -22.03363044495709 6.6588582957017541 #
vertex $-1 $565 $757 #
point $-1 25.387261766878176 -22.03363044495709 6.6588582957017541 #
coedge $-1 $580 $579 $572 $699 forward $569 $-1 #
edge $-1 $700 11.92720619629883 $703 15.33204039407439 $698 $758 forward 7 unknown #
vertex $-1 $699 $759 #
straight-curve $-1 -24.764968781221675 25.186678030476653 53.92651207774594 0 0 1 I I #
edge $-1 $703 -16.588719340912476 $581 0.23622046029407784 $580 $760 forward 7 unknown #
vertex $-1 $702 $761 #
straight-curve $-1 -24.764968781221675 -5.8262561469115042 45.307967119610858 0 0.61566146476048833 -0.78801076186113728 I I #
point $-1 -24.764968781221675 25.186678030476653 5.6132204325166768 #
point $-1 -7.9400289800151214 21.781843832701092 9.9712095934003528 #
straight-curve $-1 0 25.186678030476653 9.9712095934003493 -1 0 0 I I #
vertex $-1 $587 $762 #
point $-1 -19.457843123734087 22.033630444957094 6.6588582957017506 #
vertex $-1 $591 $763 #
point $-1 -12.247154637502703 22.033630444957094 6.6588582957017506 #
coedge $-1 $606 $605 $598 $713 forward $595 $-1 #
edge $-1 $714 11.92720619629883 $717 15.33204039407439 $712 $764 forward 7 unknown #
vertex $-1 $713 $765 #
straight-curve $-1 12.869447623159203 25.186678030476653 53.92651207774594 0 0 1 I I #
edge $-1 $717 2.2284888612779632 $607 19.053428662484517 $606 $766 forward 7 unknown #
vertex $-1 $716 $767 #
straight-curve $-1 12.869447623159203 -5.8262561469115042 45.307967119610858 0 0.61566146476048833 -0.78801076186113728 I I #
point $-1 12.869447623159203 25.186678030476653 5.6132204325166768 #
point $-1 29.694387424365758 21.781843832701092 9.9712095934003528 #
straight-curve $-1 0 25.186678030476653 9.9712095934003493 -1 0 0 I I #
vertex $-1 $613 $768 #
point $-1 18.176573280646799 22.033630444957094 6.6588582957017506 #
vertex $-1 $617 $769 #
point $-1 25.387261766878176 22.033630444957094 6.6588582957017506 #
straight-curve $-1 -50.795007171849726 25.186678030476653 0 0 0 -1 I I #
point $-1 -50.795007171849726 -25.186678030476653 -9.9712095934003493 #
straight-curve $-1 -50.795007171849726 0 -9.9712095934003493 0 1 0 I I #
point $-1 -50.795007171849726 25.186678030476653 -9.9712095934003493 #
coedge $-1 $646 $645 $638 $731 reversed $474 $-1 #
edge $-1 $732 -25.186678030476653 $734 25.186678030476653 $730 $770 forward 7 unknown #
vertex $-1 $731 $771 #
straight-curve $-1 0 -25.186678030476653 -9.9712095934003493 -1 0 0 I I #
vertex $-1 $641 $772 #
straight-curve $-1 0 25.186678030476653 -9.9712095934003493 1 0 0 I I #
point $-1 -37.634416404380886 25.186678030476653 -9.9712095934003493 #
straight-curve $-1 -50.795007171849726 25.186678030476653 0 0 0 -1 I I #
straight-curve $-1 -50.795007171849726 -25.186678030476653 0 0 0 -1 I I #
edge $-1 $667 -50.795007171849726 $658 -37.634416404380886 $656 $773 forward 7 unknown #
straight-curve $-1 37.634416404380886 -25.186678030476653 -3.5085164820578325 0 0 -1 I I #
point $-1 37.634416404380886 -25.186678030476653 -9.9712095934003493 #
straight-curve $-1 0 25.186678030476653 -9.9712095934003493 1 0 0 I I #
straight-curve $-1 50.795007171849726 0 -9.9712095934003493 0 -1 0 I I #
point $-1 50.795007171849726 -25.186678030476653 -9.9712095934003493 #
point $-1 50.795007171849726 25.186678030476653 -9.9712095934003493 #
straight-curve $-1 -7.9400289800151214 -52.620351315469556 9.9712095934003493 0 1 0 I I #
point $-1 -7.9400289800151214 -25.186678030476653 9.9712095934003493 #
straight-curve $-1 -8.1762494403091992 -21.781843832701107 9.9712095934003493 -1 0 0 I I #
point $-1 -7.9400289800151214 -21.781843832701103 9.9712095934003493 #
point $-1 -19.957843123734087 -21.639625064026525 6.3510275633215096 #
point $-1 -12.747154637502703 -21.639625064026525 6.3510275633215096 #
straight-curve $-1 29.694387424365758 -52.620351315469556 9.9712095934003493 0 1 0 I I #
point $-1 29.694387424365758 -25.186678030476653 9.9712095934003493 #
straight-curve $-1 10.64095876188124 -21.781843832701107 9.9712095934003493 -1 0 0 I I #
point $-1 29.694387424365758 -21.781843832701103 9.9712095934003493 #
point $-1 17.676573280646799 -21.639625064026525 6.3510275633215096 #
point $-1 24.887261766878176 -21.639625064026525 6.3510275633215096 #
straight-curve $-1 -24.764968781221675 37.113884226775482 9.9712095934003457 0 -1 0 I I #
point $-1 -24.764968781221675 25.186678030476653 9.9712095934003493 #
straight-curve $-1 -8.1762494403091992 21.781843832701092 9.9712095934003493 1 0 0 I I #
point $-1 -24.764968781221675 21.781843832701092 9.9712095934003528 #
point $-1 -19.957843123734087 21.639625064026529 6.3510275633215061 #
point $-1 -12.747154637502703 21.639625064026529 6.3510275633215061 #
straight-curve $-1 12.869447623159203 37.113884226775482 9.9712095934003457 0 -1 0 I I #
point $-1 12.869447623159203 25.186678030476653 9.9712095934003493 #
straight-curve $-1 10.64095876188124 21.781843832701092 9.9712095934003493 1 0 0 I I #
point $-1 12.869447623159203 21.781843832701092 9.9712095934003528 #
point $-1 17.676573280646799 21.639625064026529 6.3510275633215061 #
point $-1 24.887261766878176 21.639625064026529 6.3510275633215061 #
straight-curve $-1 -50.795007171849726 0 -9.9712095934003493 0 1 0 I I #
point $-1 -50.795007171849726 -25.186678030476653 -9.9712095934003493 #
point $-1 -50.795007171849726 25.186678030476653 -9.9712095934003493 #
straight-curve $-1 0 -25.186678030476653 -9.9712095934003493 -1 0 0 I I #
End-of-ACIS-data 