500 0 6 0           
7 Unknown 11 ACIS 5.0 NT 24 Fri Mar 26 17:17:35 1999 
-1 9.9999999999999995e-007 1e-010 
body $-1 $6 $-1 $7 #
body $-1 $8 $-1 $9 #
body $-1 $10 $-1 $11 #
body $-1 $12 $-1 $13 #
body $-1 $14 $-1 $15 #
body $-1 $16 $-1 $17 #
lump $-1 $-1 $18 $0 #
transform $-1 1 0 0 0 1 0 0 0 1 63.455305642872403 32.494337458541004 8.3181021505934662 1 rotate no_reflect no_shear #
lump $-1 $-1 $19 $1 #
transform $-1 1 0 0 0 1 0 0 0 1 63.455305642872403 32.494337458541004 8.3181021505934662 1 rotate no_reflect no_shear #
lump $-1 $-1 $20 $2 #
transform $-1 1 0 0 0 1 0 0 0 1 63.455305642872403 32.494337458541004 8.3181021505934662 1 rotate no_reflect no_shear #
lump $-1 $-1 $21 $3 #
transform $-1 1 0 0 0 1 0 0 0 1 63.455305642872403 32.494337458541004 8.3181021505934662 1 rotate no_reflect no_shear #
lump $-1 $-1 $22 $4 #
transform $-1 1 0 0 0 1 0 0 0 1 63.455305642872403 32.494337458541004 8.3181021505934662 1 rotate no_reflect no_shear #
lump $-1 $-1 $23 $5 #
transform $-1 1 0 0 0 1 0 0 0 1 63.455305642872403 32.494337458541004 8.3181021505934662 1 rotate no_reflect no_shear #
shell $-1 $-1 $-1 $24 $-1 $6 #
shell $-1 $-1 $-1 $25 $-1 $8 #
shell $-1 $-1 $-1 $26 $-1 $10 #
shell $-1 $-1 $-1 $27 $-1 $12 #
shell $-1 $-1 $-1 $28 $-1 $14 #
shell $-1 $-1 $-1 $29 $-1 $16 #
face $-1 $30 $31 $18 $-1 $32 forward single #
face $-1 $33 $34 $19 $-1 $35 forward single #
face $-1 $36 $37 $20 $-1 $38 reversed single #
face $-1 $39 $40 $21 $-1 $41 forward single #
face $-1 $42 $43 $22 $-1 $44 forward single #
face $-1 $45 $46 $23 $-1 $47 forward single #
face $-1 $48 $49 $18 $-1 $50 reversed single #
loop $-1 $-1 $51 $24 #
plane-surface $-1 0 0 8.3181021505934662 0 0 1 1 0 0 forward_v I I I I #
face $-1 $52 $53 $19 $-1 $54 reversed single #
loop $-1 $-1 $55 $25 #
plane-surface $-1 0 -32.494337458541004 0 0 1 0 0 0 1 forward_v I I I I #
face $-1 $56 $57 $20 $-1 $58 reversed single #
loop $-1 $-1 $59 $26 #
plane-surface $-1 -169.89150110402244 -22.008867951177194 69.743705414957233 0 1 0 -0.83867057594974714 0 0.54463902268945019 forward_v I I I I #
face $-1 $60 $61 $21 $-1 $62 forward single #
loop $-1 $63 $64 $27 #
cone-surface $-1 -59.313197074212916 -19.461066417306803 3.4033305615529992 0.83867057594974714 0 -0.54463902268945019 0.54463902268945019 0 0.83867057594974714 1 I I 0 1 1 forward I I I I #
face $-1 $65 $66 $22 $-1 $67 forward single #
loop $-1 $68 $69 $28 #
cone-surface $-1 -59.313197074212916 -15.639364116501216 3.4033305615529992 0.83867057594974714 0 -0.54463902268945019 0.54463902268945019 0 0.83867057594974714 1 I I 0 1 1 forward I I I I #
face $-1 $70 $71 $23 $-1 $72 forward single #
loop $-1 $73 $74 $29 #
cone-surface $-1 -59.313197074212916 -11.817661815695629 3.4033305615529992 0.83867057594974714 0 -0.54463902268945019 0.54463902268945019 0 0.83867057594974714 1 I I 0 1 1 forward I I I I #
face $-1 $75 $76 $18 $-1 $77 reversed single #
loop $-1 $-1 $78 $30 #
plane-surface $-1 0 0 -8.3181021505934662 0 0 1 1 0 0 forward_v I I I I #
coedge $-1 $79 $80 $81 $82 forward $31 $-1 #
face $-1 $83 $84 $19 $-1 $85 forward single #
loop $-1 $-1 $86 $33 #
plane-surface $-1 -63.455305642872403 0 0 1 0 0 0 0 -1 forward_v I I I I #
coedge $-1 $87 $88 $89 $90 forward $34 $-1 #
face $-1 $91 $92 $20 $-1 $93 reversed single #
loop $-1 $-1 $94 $36 #
plane-surface $-1 -63.455305642872375 -15.639364116501216 0.62323411536847573 -0.83867057594974714 0 0.54463902268945019 0.54463902268945019 0 0.83867057594974714 forward_v I I I I #
coedge $-1 $95 $96 $97 $98 reversed $37 $-1 #
face $-1 $-1 $99 $21 $-1 $100 forward single #
loop $-1 $101 $102 $39 #
cone-surface $-1 -57.250306002552108 -19.461066417306803 2.0636734787803022 0.83867057594974714 0 -0.54463902268945019 0.2723195113447251 0 0.41933528797487357 1 I I -0.70710678118654746 0.70710678118654746 0.5 forward I I I I #
loop $-1 $-1 $103 $27 #
coedge $-1 $64 $64 $104 $105 reversed $40 $-1 #
face $-1 $-1 $106 $22 $-1 $107 forward single #
loop $-1 $108 $109 $42 #
cone-surface $-1 -57.250306002552108 -15.639364116501216 2.0636734787803022 0.83867057594974714 0 -0.54463902268945019 0.2723195113447251 0 0.41933528797487357 1 I I -0.70710678118654746 0.70710678118654746 0.5 forward I I I I #
loop $-1 $-1 $110 $28 #
coedge $-1 $69 $69 $111 $112 reversed $43 $-1 #
face $-1 $-1 $113 $23 $-1 $114 forward single #
loop $-1 $115 $116 $45 #
cone-surface $-1 -57.250306002552108 -11.817661815695629 2.0636734787803022 0.83867057594974714 0 -0.54463902268945019 0.2723195113447251 0 0.41933528797487357 1 I I -0.70710678118654746 0.70710678118654746 0.5 forward I I I I #
loop $-1 $-1 $117 $29 #
coedge $-1 $74 $74 $118 $119 reversed $46 $-1 #
face $-1 $120 $121 $18 $-1 $122 reversed single #
loop $-1 $-1 $123 $48 #
plane-surface $-1 0 -32.494337458541004 0 0 1 0 0 0 1 forward_v I I I I #
coedge $-1 $124 $125 $126 $127 forward $49 $-1 #
coedge $-1 $128 $51 $129 $130 forward $31 $-1 #
coedge $-1 $51 $128 $131 $132 forward $31 $-1 #
coedge $-1 $133 $134 $51 $82 reversed $135 $-1 #
edge $-1 $136 -32.494337458541004 $137 32.494337458541004 $81 $138 forward 7 unknown #
face $-1 $139 $140 $19 $-1 $141 reversed single #
loop $-1 $-1 $142 $52 #
plane-surface $-1 0 -37.737072212222913 0.96592273658304473 0 0 1 1 0 0 forward_v I I I I #
coedge $-1 $143 $144 $88 $145 forward $53 $-1 #
coedge $-1 $146 $55 $147 $148 reversed $34 $-1 #
coedge $-1 $55 $146 $86 $145 reversed $34 $-1 #
coedge $-1 $149 $142 $55 $90 reversed $84 $-1 #
edge $-1 $150 -63.455305642872403 $151 63.455305642872403 $89 $152 forward 7 unknown #
face $-1 $153 $154 $20 $-1 $155 forward single #
loop $-1 $-1 $156 $56 #
plane-surface $-1 -169.89150110402244 -9.2698602818252382 69.743705414957233 0 -1 0 0.83867057594974714 0 -0.54463902268945019 forward_v I I I I #
coedge $-1 $157 $158 $159 $160 reversed $57 $-1 #
coedge $-1 $96 $59 $161 $162 reversed $37 $-1 #
coedge $-1 $59 $95 $157 $163 reversed $37 $-1 #
coedge $-1 $159 $164 $59 $98 forward $154 $-1 #
edge $-1 $165 21.490444909138816 $166 26.487550479085954 $97 $167 forward 7 unknown #
loop $-1 $-1 $104 $60 #
plane-surface $-1 -63.455305642872375 -15.639364116501216 0.62323411536847573 -0.83867057594974714 0 0.54463902268945019 0.54463902268945019 0 0.83867057594974714 forward_v I I I I #
loop $-1 $-1 $168 $39 #
coedge $-1 $102 $102 $103 $169 reversed $61 $-1 #
coedge $-1 $103 $103 $102 $169 forward $63 $-1 #
coedge $-1 $104 $104 $64 $105 forward $99 $-1 #
edge $-1 $170 0 $170 6.2831853071796004 $104 $171 forward 7 unknown #
loop $-1 $-1 $111 $65 #
plane-surface $-1 -63.455305642872375 -15.639364116501216 0.62323411536847573 -0.83867057594974714 0 0.54463902268945019 0.54463902268945019 0 0.83867057594974714 forward_v I I I I #
loop $-1 $-1 $172 $42 #
coedge $-1 $109 $109 $110 $173 reversed $66 $-1 #
coedge $-1 $110 $110 $109 $173 forward $68 $-1 #
coedge $-1 $111 $111 $69 $112 forward $106 $-1 #
edge $-1 $174 0 $174 6.2831853071796004 $111 $175 forward 7 unknown #
loop $-1 $-1 $118 $70 #
plane-surface $-1 -63.455305642872375 -15.639364116501216 0.62323411536847573 -0.83867057594974714 0 0.54463902268945019 0.54463902268945019 0 0.83867057594974714 forward_v I I I I #
loop $-1 $-1 $176 $45 #
coedge $-1 $116 $116 $117 $177 reversed $71 $-1 #
coedge $-1 $117 $117 $116 $177 forward $73 $-1 #
coedge $-1 $118 $118 $74 $119 forward $113 $-1 #
edge $-1 $178 0 $178 6.2831853071796004 $118 $179 forward 7 unknown #
face $-1 $180 $181 $18 $-1 $182 reversed single #
loop $-1 $-1 $183 $75 #
plane-surface $-1 -63.455305642872403 0 0 1 0 0 0 0 -1 forward_v I I I I #
coedge $-1 $184 $131 $185 $186 forward $76 $-1 #
coedge $-1 $187 $78 $184 $188 forward $49 $-1 #
coedge $-1 $78 $187 $189 $190 forward $49 $-1 #
coedge $-1 $134 $133 $78 $127 reversed $135 $-1 #
edge $-1 $191 -32.494337458541004 $192 32.494337458541004 $126 $193 forward 7 unknown #
coedge $-1 $80 $79 $194 $195 forward $31 $-1 #
coedge $-1 $196 $197 $79 $130 reversed $181 $-1 #
edge $-1 $137 -63.455305642872403 $198 63.455305642872403 $129 $199 forward 7 unknown #
coedge $-1 $123 $200 $80 $132 reversed $76 $-1 #
edge $-1 $201 -63.455305642872403 $136 63.455305642872403 $131 $202 forward 7 unknown #
coedge $-1 $126 $81 $200 $203 forward $135 $-1 #
coedge $-1 $81 $126 $196 $204 reversed $135 $-1 #
loop $-1 $-1 $133 $180 #
vertex $-1 $82 $205 #
vertex $-1 $82 $206 #
straight-curve $-1 63.455305642872403 0 8.3181021505934662 0 1 0 I I #
face $-1 $207 $208 $19 $-1 $209 reversed single #
loop $-1 $-1 $210 $83 #
plane-surface $-1 0 -37.737072212222913 -2.3846221117345601 0 0 1 1 0 0 forward_v I I I I #
coedge $-1 $89 $211 $212 $213 forward $84 $-1 #
coedge $-1 $214 $86 $215 $216 reversed $53 $-1 #
coedge $-1 $86 $214 $149 $217 reversed $53 $-1 #
edge $-1 $150 -0.96592273658304473 $218 2.3846221117345601 $86 $219 forward 7 unknown #
coedge $-1 $88 $87 $220 $221 forward $34 $-1 #
coedge $-1 $212 $222 $87 $148 forward $223 $-1 #
edge $-1 $224 -2.3846221117345601 $151 0.96592273658304473 $147 $225 forward 7 unknown #
coedge $-1 $211 $89 $144 $217 forward $84 $-1 #
vertex $-1 $145 $226 #
vertex $-1 $213 $227 #
straight-curve $-1 0 -32.494337458541004 0.96592273658304473 1 0 0 I I #
face $-1 $-1 $228 $20 $-1 $229 reversed single #
loop $-1 $-1 $97 $91 #
plane-surface $-1 0 0 8.3181021505934662 0 0 1 1 0 0 forward_v I I I I #
coedge $-1 $230 $231 $232 $233 reversed $92 $-1 #
coedge $-1 $234 $94 $96 $163 forward $57 $-1 #
coedge $-1 $94 $234 $230 $235 forward $57 $-1 #
coedge $-1 $232 $97 $94 $160 forward $154 $-1 #
edge $-1 $166 -14.189185892926586 $236 -1.4501782235746301 $159 $237 forward 7 unknown #
coedge $-1 $238 $239 $95 $162 forward $228 $-1 #
edge $-1 $240 -34.248618592110184 $165 -26.553750556885149 $161 $241 forward 7 unknown #
edge $-1 $166 -9.1750781008514455 $240 5.2165360557043749e-014 $96 $242 forward 7 unknown #
coedge $-1 $97 $232 $238 $243 forward $154 $-1 #
vertex $-1 $162 $244 #
vertex $-1 $98 $245 #
straight-curve $-1 -84.945750552011219 -22.008867951177194 8.318102150593468 1 0 0 I I #
coedge $-1 $168 $168 $-1 $246 reversed $101 $-1 #
edge $-1 $247 0 $247 6.2831853071796004 $102 $248 forward 7 unknown #
vertex $-1 $105 $249 #
ellipse-curve $-1 -60.956752857898834 -19.461066417306803 4.4706681329809577 -0.83867057594974714 0 0.54463902268945019 0.54463902268945019 0 0.83867057594974714 1 I I #
coedge $-1 $172 $172 $-1 $250 reversed $108 $-1 #
edge $-1 $251 0 $251 6.2831853071796004 $109 $252 forward 7 unknown #
vertex $-1 $112 $253 #
ellipse-curve $-1 -60.956752857898834 -15.639364116501216 4.4706681329809577 -0.83867057594974714 0 0.54463902268945019 0.54463902268945019 0 0.83867057594974714 1 I I #
coedge $-1 $176 $176 $-1 $254 reversed $115 $-1 #
edge $-1 $255 0 $255 6.2831853071796004 $116 $256 forward 7 unknown #
vertex $-1 $119 $257 #
ellipse-curve $-1 -60.956752857898834 -11.817661815695629 4.4706681329809577 -0.83867057594974714 0 0.54463902268945019 0.54463902268945019 0 0.83867057594974714 1 I I #
face $-1 $-1 $135 $18 $-1 $258 reversed single #
loop $-1 $-1 $196 $120 #
plane-surface $-1 0 32.494337458541004 0 0 -1 0 0 0 -1 forward_v I I I I #
coedge $-1 $259 $194 $197 $260 forward $121 $-1 #
coedge $-1 $200 $123 $124 $188 reversed $76 $-1 #
coedge $-1 $194 $259 $123 $186 reversed $121 $-1 #
edge $-1 $201 -8.3181021505934662 $261 8.3181021505934662 $185 $262 forward 7 unknown #
coedge $-1 $125 $124 $259 $263 forward $49 $-1 #
edge $-1 $192 -63.455305642872403 $261 63.455305642872403 $184 $264 forward 7 unknown #
coedge $-1 $197 $196 $125 $190 reversed $181 $-1 #
edge $-1 $265 -63.455305642872403 $191 63.455305642872403 $189 $266 forward 7 unknown #
vertex $-1 $127 $267 #
vertex $-1 $203 $268 #
straight-curve $-1 63.455305642872403 0 -8.3181021505934662 0 -1 0 I I #
coedge $-1 $183 $185 $128 $195 reversed $121 $-1 #
edge $-1 $198 -32.494337458541004 $201 32.494337458541004 $194 $269 forward 7 unknown #
coedge $-1 $189 $129 $134 $204 forward $181 $-1 #
coedge $-1 $129 $189 $183 $260 reversed $181 $-1 #
vertex $-1 $130 $270 #
straight-curve $-1 0 32.494337458541004 8.3181021505934662 -1 0 0 I I #
coedge $-1 $131 $184 $133 $203 reversed $76 $-1 #
vertex $-1 $195 $271 #
straight-curve $-1 0 -32.494337458541004 8.3181021505934662 1 0 0 I I #
edge $-1 $136 -8.3181021505934662 $192 8.3181021505934662 $133 $272 forward 7 unknown #
edge $-1 $137 -8.3181021505934662 $191 8.3181021505934662 $134 $273 forward 7 unknown #
point $-1 63.455305642872403 -32.494337458541004 8.3181021505934662 #
point $-1 63.455305642872403 32.494337458541004 8.3181021505934662 #
face $-1 $-1 $223 $19 $-1 $274 reversed single #
loop $-1 $-1 $275 $139 #
plane-surface $-1 0 -42.979806965904821 -0.70934968757575767 0 1 0 0 0 1 forward_v I I I I #
coedge $-1 $276 $220 $222 $277 forward $140 $-1 #
coedge $-1 $142 $149 $278 $279 forward $84 $-1 #
coedge $-1 $280 $147 $142 $213 reversed $223 $-1 #
edge $-1 $281 -5.2427347536819084 $151 5.2427347536819084 $212 $282 forward 7 unknown #
coedge $-1 $144 $143 $275 $283 reversed $53 $-1 #
coedge $-1 $220 $276 $143 $216 forward $140 $-1 #
edge $-1 $284 -5.2427347536819084 $218 5.2427347536819084 $143 $285 forward 7 unknown #
edge $-1 $150 -5.2427347536819084 $286 5.2427347536819084 $144 $287 forward 7 unknown #
vertex $-1 $145 $288 #
straight-curve $-1 -63.455305642872403 -32.494337458541004 0 0 0 -1 I I #
coedge $-1 $210 $215 $146 $221 reversed $140 $-1 #
edge $-1 $224 -63.455305642872403 $218 63.455305642872403 $220 $289 forward 7 unknown #
coedge $-1 $147 $280 $210 $277 reversed $223 $-1 #
loop $-1 $-1 $147 $207 #
vertex $-1 $148 $290 #
straight-curve $-1 63.455305642872403 -32.494337458541004 0 0 0 1 I I #
point $-1 -63.455305642872403 -32.494337458541004 0.96592273658304473 #
point $-1 63.455305642872403 -32.494337458541004 0.96592273658304473 #
loop $-1 $-1 $161 $153 #
plane-surface $-1 -63.455305642872403 0 0 1 0 0 0 0 -1 forward_v I I I I #
coedge $-1 $231 $156 $158 $235 reversed $92 $-1 #
coedge $-1 $156 $230 $291 $292 reversed $92 $-1 #
coedge $-1 $164 $159 $156 $233 forward $154 $-1 #
edge $-1 $236 -26.487550479085954 $293 -21.490444909138816 $232 $294 forward 7 unknown #
coedge $-1 $158 $157 $239 $295 reversed $57 $-1 #
edge $-1 $296 -5.2165360557043749e-014 $236 9.1750781008514455 $230 $297 forward 7 unknown #
vertex $-1 $160 $298 #
straight-curve $-1 -58.458200072925273 -7.8196820582506081 8.318102150593468 0 1 0 I I #
coedge $-1 $291 $161 $164 $243 reversed $228 $-1 #
coedge $-1 $161 $291 $234 $295 forward $228 $-1 #
vertex $-1 $162 $299 #
straight-curve $-1 -63.455305642872403 -22.008867951177194 34.871852707478617 0 0 1 I I #
straight-curve $-1 -63.455305642872375 -22.008867951177194 0.62323411536847573 -0.54463902268945019 0 -0.83867057594974714 I I #
edge $-1 $293 9.2698602818252382 $165 22.008867951177194 $238 $300 forward 7 unknown #
point $-1 -63.455305642872403 -22.008867951177194 8.3181021505934662 #
point $-1 -58.458200072925266 -22.008867951177194 8.318102150593468 #
edge $-1 $301 1 $301 0 $168 $-1 forward 7 unknown #
vertex $-1 $169 $302 #
ellipse-curve $-1 -57.669641290526982 -19.461066417306803 2.3359929901250274 -0.83867057594974714 0 0.54463902268945019 0.54463902268945019 0 0.83867057594974714 1 I I #
point $-1 -60.412113835209404 -19.461066417306803 5.3093387089307189 #
edge $-1 $303 1 $303 0 $172 $-1 forward 7 unknown #
vertex $-1 $173 $304 #
ellipse-curve $-1 -57.669641290526982 -15.639364116501216 2.3359929901250274 -0.83867057594974714 0 0.54463902268945019 0.54463902268945019 0 0.83867057594974714 1 I I #
point $-1 -60.412113835209404 -15.639364116501216 5.3093387089307189 #
edge $-1 $305 1 $305 0 $176 $-1 forward 7 unknown #
vertex $-1 $177 $306 #
ellipse-curve $-1 -57.669641290526982 -11.817661815695629 2.3359929901250274 -0.83867057594974714 0 0.54463902268945019 0.54463902268945019 0 0.83867057594974714 1 I I #
point $-1 -60.412113835209404 -11.817661815695629 5.3093387089307189 #
plane-surface $-1 63.455305642872403 0 0 -1 0 0 0 0 1 forward_v I I I I #
coedge $-1 $185 $183 $187 $263 reversed $121 $-1 #
edge $-1 $198 -8.3181021505934662 $265 8.3181021505934662 $197 $307 forward 7 unknown #
vertex $-1 $263 $308 #
straight-curve $-1 -63.455305642872403 -32.494337458541004 0 0 0 -1 I I #
edge $-1 $261 -32.494337458541004 $265 32.494337458541004 $259 $309 forward 7 unknown #
straight-curve $-1 0 -32.494337458541004 -8.3181021505934662 -1 0 0 I I #
vertex $-1 $190 $310 #
straight-curve $-1 0 32.494337458541004 -8.3181021505934662 1 0 0 I I #
point $-1 63.455305642872403 32.494337458541004 -8.3181021505934662 #
point $-1 63.455305642872403 -32.494337458541004 -8.3181021505934662 #
straight-curve $-1 -63.455305642872403 0 8.3181021505934662 0 -1 0 I I #
point $-1 -63.455305642872403 32.494337458541004 8.3181021505934662 #
point $-1 -63.455305642872403 -32.494337458541004 8.3181021505934662 #
straight-curve $-1 63.455305642872403 -32.494337458541004 0 0 0 -1 I I #
straight-curve $-1 63.455305642872403 32.494337458541004 0 0 0 -1 I I #
plane-surface $-1 63.455305642872403 0 0 -1 0 0 0 0 1 forward_v I I I I #
coedge $-1 $311 $278 $214 $283 forward $208 $-1 #
coedge $-1 $215 $210 $311 $312 forward $140 $-1 #
edge $-1 $224 -5.2427347536819084 $313 5.2427347536819084 $222 $314 forward 7 unknown #
coedge $-1 $275 $315 $211 $279 reversed $208 $-1 #
edge $-1 $286 -63.455305642872403 $281 63.455305642872403 $278 $316 forward 7 unknown #
coedge $-1 $222 $212 $315 $317 forward $223 $-1 #
vertex $-1 $213 $318 #
straight-curve $-1 63.455305642872403 -37.737072212222913 0.96592273658304473 0 1 0 I I #
edge $-1 $286 -1.6752724241588024 $284 1.6752724241588024 $214 $319 forward 7 unknown #
vertex $-1 $216 $320 #
straight-curve $-1 -63.455305642872403 -37.737072212222913 -2.3846221117345601 0 1 0 I I #
vertex $-1 $217 $321 #
straight-curve $-1 -63.455305642872403 -37.737072212222913 0.96592273658304473 0 -1 0 I I #
point $-1 -63.455305642872403 -32.494337458541004 -2.3846221117345601 #
straight-curve $-1 0 -32.494337458541004 -2.3846221117345601 -1 0 0 I I #
point $-1 63.455305642872403 -32.494337458541004 -2.3846221117345601 #
coedge $-1 $239 $238 $231 $292 forward $228 $-1 #
edge $-1 $293 26.553750556885149 $296 34.248618592110184 $291 $322 forward 7 unknown #
vertex $-1 $243 $323 #
straight-curve $-1 -84.945750552011219 -9.2698602818252382 8.318102150593468 -1 0 0 I I #
edge $-1 $296 1.4501782235746301 $240 14.189185892926586 $239 $324 forward 7 unknown #
vertex $-1 $295 $325 #
straight-curve $-1 -63.455305642872375 -9.2698602818252382 0.62323411536847573 0.54463902268945019 0 0.83867057594974714 I I #
point $-1 -58.458200072925266 -9.2698602818252382 8.318102150593468 #
point $-1 -63.455305642872403 -22.008867951177194 0.62323411536843198 #
straight-curve $-1 -63.455305642872403 0 8.3181021505934662 0 -1 0 I I #
vertex $-1 $246 $326 #
point $-1 -57.12500226783753 -19.461066417306803 3.1746635660747744 #
vertex $-1 $250 $327 #
point $-1 -57.12500226783753 -15.639364116501216 3.1746635660747744 #
vertex $-1 $254 $328 #
point $-1 -57.12500226783753 -11.817661815695629 3.1746635660747744 #
straight-curve $-1 -63.455305642872403 32.494337458541004 0 0 0 -1 I I #
point $-1 -63.455305642872403 -32.494337458541004 -8.3181021505934662 #
straight-curve $-1 -63.455305642872403 0 -8.3181021505934662 0 1 0 I I #
point $-1 -63.455305642872403 32.494337458541004 -8.3181021505934662 #
coedge $-1 $315 $275 $276 $312 reversed $208 $-1 #
edge $-1 $313 -63.455305642872403 $284 63.455305642872403 $311 $329 forward 7 unknown #
vertex $-1 $317 $330 #
straight-curve $-1 63.455305642872403 -37.737072212222913 -2.3846221117345601 0 -1 0 I I #
coedge $-1 $278 $311 $280 $317 reversed $208 $-1 #
straight-curve $-1 0 -42.979806965904821 0.96592273658304473 1 0 0 I I #
edge $-1 $281 -1.6752724241588024 $313 1.6752724241588024 $280 $331 forward 7 unknown #
point $-1 63.455305642872403 -42.979806965904821 0.96592273658304473 #
straight-curve $-1 -63.455305642872403 -42.979806965904821 -0.70934968757575767 0 0 -1 I I #
point $-1 -63.455305642872403 -42.979806965904821 -2.3846221117345601 #
point $-1 -63.455305642872403 -42.979806965904821 0.96592273658304473 #
straight-curve $-1 -63.455305642872403 -9.2698602818252382 34.871852707478617 0 0 -1 I I #
point $-1 -63.455305642872403 -9.2698602818252382 8.3181021505934662 #
straight-curve $-1 -63.455305642872403 -7.8196820582506081 0.62323411536843065 0 -1 0 I I #
point $-1 -63.455305642872403 -9.2698602818252382 0.62323411536843198 #
point $-1 -56.830970714577234 -19.461066417306803 1.791353967435577 #
point $-1 -56.830970714577234 -15.639364116501216 1.791353967435577 #
point $-1 -56.830970714577234 -11.817661815695629 1.791353967435577 #
straight-curve $-1 0 -42.979806965904821 -2.3846221117345601 -1 0 0 I I #
point $-1 63.455305642872403 -42.979806965904821 -2.3846221117345601 #
straight-curve $-1 63.455305642872403 -42.979806965904821 -0.70934968757575767 0 0 -1 I I #
End-of-ACIS-data 