500 0 11 0           
7 Unknown 11 ACIS 5.0 NT 24 Fri Mar 26 19:28:30 1999 
-1 9.9999999999999995e-007 1e-010 
body $-1 $11 $-1 $12 #
body $-1 $13 $-1 $14 #
body $-1 $15 $-1 $16 #
body $-1 $17 $-1 $18 #
body $-1 $19 $-1 $20 #
body $-1 $21 $-1 $22 #
body $-1 $23 $-1 $24 #
body $-1 $25 $-1 $26 #
body $-1 $27 $-1 $28 #
body $-1 $29 $-1 $30 #
body $-1 $31 $-1 $32 #
lump $-1 $-1 $33 $0 #
transform $-1 1 0 0 0 1 0 0 0 1 78.308053834650707 42.331325955173433 12.720584765697661 1 rotate no_reflect no_shear #
lump $-1 $-1 $34 $1 #
transform $-1 1 0 0 0 1 0 0 0 1 78.308053834650707 42.331325955173433 12.720584765697661 1 rotate no_reflect no_shear #
lump $-1 $-1 $35 $2 #
transform $-1 1 0 0 0 1 0 0 0 1 78.308053834650707 42.331325955173433 12.720584765697661 1 rotate no_reflect no_shear #
lump $-1 $-1 $36 $3 #
transform $-1 1 0 0 0 1 0 0 0 1 78.308053834650707 42.331325955173433 12.720584765697661 1 rotate no_reflect no_shear #
lump $-1 $-1 $37 $4 #
transform $-1 1 0 0 0 1 0 0 0 1 78.308053834650707 42.331325955173433 12.720584765697661 1 rotate no_reflect no_shear #
lump $-1 $-1 $38 $5 #
transform $-1 1 0 0 0 1 0 0 0 1 78.308053834650707 42.331325955173433 12.720584765697661 1 rotate no_reflect no_shear #
lump $-1 $-1 $39 $6 #
transform $-1 1 0 0 0 1 0 0 0 1 78.308053834650707 42.331325955173433 12.720584765697661 1 rotate no_reflect no_shear #
lump $-1 $-1 $40 $7 #
transform $-1 1 0 0 0 1 0 0 0 1 78.308053834650707 42.331325955173433 12.720584765697661 1 rotate no_reflect no_shear #
lump $-1 $-1 $41 $8 #
transform $-1 1 0 0 0 1 0 0 0 1 78.308053834650707 42.331325955173433 12.720584765697661 1 rotate no_reflect no_shear #
lump $-1 $-1 $42 $9 #
transform $-1 1 0 0 0 1 0 0 0 1 78.308053834650707 42.331325955173433 12.720584765697661 1 rotate no_reflect no_shear #
lump $-1 $-1 $43 $10 #
transform $-1 1 0 0 0 1 0 0 0 1 78.308053834650707 42.331325955173433 12.720584765697661 1 rotate no_reflect no_shear #
shell $-1 $-1 $-1 $44 $-1 $11 #
shell $-1 $-1 $-1 $45 $-1 $13 #
shell $-1 $-1 $-1 $46 $-1 $15 #
shell $-1 $-1 $-1 $47 $-1 $17 #
shell $-1 $-1 $-1 $48 $-1 $19 #
shell $-1 $-1 $-1 $49 $-1 $21 #
shell $-1 $-1 $-1 $50 $-1 $23 #
shell $-1 $-1 $-1 $51 $-1 $25 #
shell $-1 $-1 $-1 $52 $-1 $27 #
shell $-1 $-1 $-1 $53 $-1 $29 #
shell $-1 $-1 $-1 $54 $-1 $31 #
face $-1 $55 $56 $33 $-1 $57 forward single #
face $-1 $58 $59 $34 $-1 $60 forward single #
face $-1 $61 $62 $35 $-1 $63 reversed single #
face $-1 $64 $65 $36 $-1 $66 forward single #
face $-1 $67 $68 $37 $-1 $69 forward single #
face $-1 $70 $71 $38 $-1 $72 reversed single #
face $-1 $73 $74 $39 $-1 $75 forward single #
face $-1 $76 $77 $40 $-1 $78 forward single #
face $-1 $79 $80 $41 $-1 $81 reversed single #
face $-1 $82 $83 $42 $-1 $84 forward single #
face $-1 $85 $86 $43 $-1 $87 forward single #
face $-1 $88 $89 $33 $-1 $90 reversed single #
loop $-1 $-1 $91 $44 #
plane-surface $-1 0 0 12.720584765697661 0 0 1 1 0 0 forward_v I I I I #
face $-1 $92 $93 $34 $-1 $94 reversed single #
loop $-1 $-1 $95 $45 #
plane-surface $-1 0 -42.331325955173433 0 0 1 0 0 0 1 forward_v I I I I #
face $-1 $96 $97 $35 $-1 $98 reversed single #
loop $-1 $-1 $99 $46 #
plane-surface $-1 128.13215645518417 -1.1805953598574526 222.51308583635725 0 -1 0 -0.84804810408105047 0 -0.52991925155115449 forward_v I I I I #
face $-1 $100 $101 $36 $-1 $102 forward single #
loop $-1 $103 $104 $47 #
cone-surface $-1 75.900216593653155 -13.907470576885956 9.3814789242266201 -0.84804810408105047 0 -0.52991925155115449 0.52991925155115449 0 -0.84804810408105047 1 I I 0 1 1 forward I I I I #
face $-1 $105 $106 $37 $-1 $107 forward single #
loop $-1 $108 $109 $48 #
cone-surface $-1 75.900216593653155 -6.2713454466688603 9.3814789242266201 -0.84804810408105047 0 -0.52991925155115449 0.52991925155115449 0 -0.84804810408105047 1 I I 0 1 1 forward I I I I #
face $-1 $110 $111 $38 $-1 $112 reversed single #
loop $-1 $-1 $113 $49 #
plane-surface $-1 128.13215645518417 27.55163860290352 222.51308583635725 0 -1 0 -0.84804810408105047 0 -0.52991925155115449 forward_v I I I I #
face $-1 $114 $115 $39 $-1 $116 forward single #
loop $-1 $117 $118 $50 #
cone-surface $-1 75.900216593653155 14.824763385875016 9.3814789242266201 -0.84804810408105047 0 -0.52991925155115449 0.52991925155115449 0 -0.84804810408105047 1 I I 0 1 1 forward I I I I #
face $-1 $119 $120 $40 $-1 $121 forward single #
loop $-1 $122 $123 $51 #
cone-surface $-1 75.900216593653155 22.460888516092105 9.3814789242266201 -0.84804810408105047 0 -0.52991925155115449 0.52991925155115449 0 -0.84804810408105047 1 I I 0 1 1 forward I I I I #
face $-1 $124 $125 $41 $-1 $126 reversed single #
loop $-1 $-1 $127 $52 #
plane-surface $-1 -196.50773200799836 -6.39149240820392 104.18909012942605 0 1 0 -0.75470958851134928 0 0.65605901945558964 forward_v I I I I #
face $-1 $128 $129 $42 $-1 $130 forward single #
loop $-1 $131 $132 $53 #
cone-surface $-1 -70.932793335113004 -1.083765188067062 4.9311772479813394 0.75470958851134928 0 -0.65605901945558964 1.6401475486389741 0 1.8867739712783731 1 I I 0 1 2.5 forward I I I I #
face $-1 $133 $134 $43 $-1 $135 forward single #
loop $-1 $136 $137 $54 #
cone-surface $-1 -70.932793335113004 6.8778256421382338 4.9311772479813394 0.75470958851134928 0 -0.65605901945558964 1.6401475486389741 0 1.8867739712783731 1 I I 0 1 2.5 forward I I I I #
face $-1 $138 $139 $33 $-1 $140 reversed single #
loop $-1 $-1 $141 $55 #
plane-surface $-1 0 0 -12.720584765697661 0 0 1 1 0 0 forward_v I I I I #
coedge $-1 $142 $143 $144 $145 forward $56 $-1 #
face $-1 $146 $147 $34 $-1 $148 forward single #
loop $-1 $-1 $149 $58 #
plane-surface $-1 -78.308053834650707 0 0 1 0 0 0 0 -1 forward_v I I I I #
coedge $-1 $150 $151 $152 $153 forward $59 $-1 #
face $-1 $154 $155 $35 $-1 $156 reversed single #
loop $-1 $-1 $157 $61 #
plane-surface $-1 -4.6858367223205448 -10.089408011777401 139.519195279386 0.84804810408105047 0 0.52991925155115449 0.52991925155115449 0 -0.84804810408105047 forward_v I I I I #
coedge $-1 $158 $159 $160 $161 reversed $62 $-1 #
face $-1 $-1 $162 $36 $-1 $163 forward single #
loop $-1 $164 $165 $64 #
cone-surface $-1 74.949019110049562 -13.907470576885956 8.7871047888882057 -0.84804810408105047 0 -0.52991925155115449 0.26495962577557725 0 -0.42402405204052523 1 I I -0.70710678118654746 0.70710678118654746 0.5 forward I I I I #
loop $-1 $-1 $166 $47 #
coedge $-1 $104 $104 $167 $168 reversed $65 $-1 #
face $-1 $-1 $169 $37 $-1 $170 forward single #
loop $-1 $171 $172 $67 #
cone-surface $-1 74.949019110049562 -6.2713454466688603 8.7871047888882057 -0.84804810408105047 0 -0.52991925155115449 0.26495962577557725 0 -0.42402405204052523 1 I I -0.70710678118654746 0.70710678118654746 0.5 forward I I I I #
loop $-1 $-1 $173 $48 #
coedge $-1 $109 $109 $174 $175 reversed $68 $-1 #
face $-1 $176 $177 $38 $-1 $178 reversed single #
loop $-1 $-1 $179 $70 #
plane-surface $-1 -4.6858367223205448 18.642825950983571 139.519195279386 0.84804810408105047 0 0.52991925155115449 0.52991925155115449 0 -0.84804810408105047 forward_v I I I I #
coedge $-1 $180 $181 $182 $183 reversed $71 $-1 #
face $-1 $-1 $184 $39 $-1 $185 forward single #
loop $-1 $186 $187 $73 #
cone-surface $-1 74.949019110049562 14.824763385875016 8.7871047888882057 -0.84804810408105047 0 -0.52991925155115449 0.26495962577557725 0 -0.42402405204052523 1 I I -0.70710678118654746 0.70710678118654746 0.5 forward I I I I #
loop $-1 $-1 $188 $50 #
coedge $-1 $118 $118 $189 $190 reversed $74 $-1 #
face $-1 $-1 $191 $40 $-1 $192 forward single #
loop $-1 $193 $194 $76 #
cone-surface $-1 74.949019110049562 22.460888516092105 8.7871047888882057 -0.84804810408105047 0 -0.52991925155115449 0.26495962577557725 0 -0.42402405204052523 1 I I -0.70710678118654746 0.70710678118654746 0.5 forward I I I I #
loop $-1 $-1 $195 $51 #
coedge $-1 $123 $123 $196 $197 reversed $77 $-1 #
face $-1 $198 $199 $41 $-1 $200 reversed single #
loop $-1 $-1 $201 $79 #
plane-surface $-1 -78.308053834650707 2.897030227035593 1.4396801009531117 -0.75470958851134928 0 0.65605901945558964 0.65605901945558964 0 0.75470958851134928 forward_v I I I I #
coedge $-1 $202 $203 $204 $205 reversed $80 $-1 #
face $-1 $-1 $206 $42 $-1 $207 forward single #
loop $-1 $208 $209 $82 #
cone-surface $-1 -67.517316132642151 -1.083765188067062 1.9621482883178043 0.75470958851134928 0 -0.65605901945558964 0.82007377431948703 0 0.94338698563918655 1 I I -0.70710678118654746 0.70710678118654746 1.25 forward I I I I #
loop $-1 $-1 $210 $53 #
coedge $-1 $132 $132 $211 $212 reversed $83 $-1 #
face $-1 $-1 $213 $43 $-1 $214 forward single #
loop $-1 $215 $216 $85 #
cone-surface $-1 -67.517316132642151 6.8778256421382338 1.9621482883178043 0.75470958851134928 0 -0.65605901945558964 0.82007377431948703 0 0.94338698563918655 1 I I -0.70710678118654746 0.70710678118654746 1.25 forward I I I I #
loop $-1 $-1 $217 $54 #
coedge $-1 $137 $137 $218 $219 reversed $86 $-1 #
face $-1 $220 $221 $33 $-1 $222 reversed single #
loop $-1 $-1 $223 $88 #
plane-surface $-1 0 -42.331325955173433 0 0 1 0 0 0 1 forward_v I I I I #
coedge $-1 $224 $225 $226 $227 forward $89 $-1 #
coedge $-1 $228 $91 $229 $230 forward $56 $-1 #
coedge $-1 $91 $228 $231 $232 forward $56 $-1 #
coedge $-1 $233 $234 $91 $145 reversed $235 $-1 #
edge $-1 $236 -42.331325955173433 $237 42.331325955173433 $144 $238 forward 7 unknown #
face $-1 $239 $240 $34 $-1 $241 reversed single #
loop $-1 $-1 $242 $92 #
plane-surface $-1 0 -46.608034924776511 -7.9325509917120574 0 0 1 1 0 0 forward_v I I I I #
coedge $-1 $243 $244 $151 $245 forward $93 $-1 #
coedge $-1 $246 $95 $247 $248 reversed $59 $-1 #
coedge $-1 $95 $246 $149 $245 reversed $59 $-1 #
coedge $-1 $249 $242 $95 $153 reversed $147 $-1 #
edge $-1 $250 -78.308053834650707 $251 78.308053834650707 $152 $252 forward 7 unknown #
face $-1 $253 $254 $35 $-1 $255 reversed single #
loop $-1 $-1 $256 $96 #
plane-surface $-1 128.13215645518417 -18.998220663697349 222.51308583635725 0 1 0 0.84804810408105047 0 0.52991925155115449 forward_v I I I I #
coedge $-1 $257 $258 $259 $260 reversed $97 $-1 #
coedge $-1 $159 $99 $261 $262 reversed $62 $-1 #
coedge $-1 $99 $158 $257 $263 reversed $62 $-1 #
coedge $-1 $259 $264 $99 $161 forward $265 $-1 #
edge $-1 $266 -14.24197560705862 $267 -10.48064798818956 $160 $268 forward 7 unknown #
loop $-1 $-1 $167 $100 #
plane-surface $-1 -4.6858367223205448 -10.089408011777401 139.519195279386 0.84804810408105047 0 0.52991925155115449 0.52991925155115449 0 -0.84804810408105047 forward_v I I I I #
loop $-1 $-1 $269 $64 #
coedge $-1 $165 $165 $166 $270 reversed $101 $-1 #
coedge $-1 $166 $166 $165 $270 forward $103 $-1 #
coedge $-1 $167 $167 $104 $168 forward $162 $-1 #
edge $-1 $271 0 $271 6.2831853071796004 $167 $272 forward 7 unknown #
loop $-1 $-1 $174 $105 #
plane-surface $-1 -4.6858367223205448 -10.089408011777401 139.519195279386 0.84804810408105047 0 0.52991925155115449 0.52991925155115449 0 -0.84804810408105047 forward_v I I I I #
loop $-1 $-1 $273 $67 #
coedge $-1 $172 $172 $173 $274 reversed $106 $-1 #
coedge $-1 $173 $173 $172 $274 forward $108 $-1 #
coedge $-1 $174 $174 $109 $175 forward $169 $-1 #
edge $-1 $275 0 $275 6.2831853071796004 $174 $276 forward 7 unknown #
face $-1 $277 $278 $38 $-1 $279 reversed single #
loop $-1 $-1 $280 $110 #
plane-surface $-1 128.13215645518417 9.7340132990636228 222.51308583635725 0 1 0 0.84804810408105047 0 0.52991925155115449 forward_v I I I I #
coedge $-1 $281 $282 $283 $284 reversed $111 $-1 #
coedge $-1 $181 $113 $285 $286 reversed $71 $-1 #
coedge $-1 $113 $180 $281 $287 reversed $71 $-1 #
coedge $-1 $283 $288 $113 $183 forward $289 $-1 #
edge $-1 $290 -14.24197560705862 $291 -10.48064798818956 $182 $292 forward 7 unknown #
loop $-1 $-1 $189 $114 #
plane-surface $-1 -4.6858367223205448 18.642825950983571 139.519195279386 0.84804810408105047 0 0.52991925155115449 0.52991925155115449 0 -0.84804810408105047 forward_v I I I I #
loop $-1 $-1 $293 $73 #
coedge $-1 $187 $187 $188 $294 reversed $115 $-1 #
coedge $-1 $188 $188 $187 $294 forward $117 $-1 #
coedge $-1 $189 $189 $118 $190 forward $184 $-1 #
edge $-1 $295 0 $295 6.2831853071796004 $189 $296 forward 7 unknown #
loop $-1 $-1 $196 $119 #
plane-surface $-1 -4.6858367223205448 18.642825950983571 139.519195279386 0.84804810408105047 0 0.52991925155115449 0.52991925155115449 0 -0.84804810408105047 forward_v I I I I #
loop $-1 $-1 $297 $76 #
coedge $-1 $194 $194 $195 $298 reversed $120 $-1 #
coedge $-1 $195 $195 $194 $298 forward $122 $-1 #
coedge $-1 $196 $196 $123 $197 forward $191 $-1 #
edge $-1 $299 0 $299 6.2831853071796004 $196 $300 forward 7 unknown #
face $-1 $301 $302 $41 $-1 $303 forward single #
loop $-1 $-1 $304 $124 #
plane-surface $-1 -196.50773200799836 12.185552862275106 104.18909012942605 0 -1 0 0.75470958851134928 0 -0.65605901945558964 forward_v I I I I #
coedge $-1 $305 $306 $307 $308 reversed $125 $-1 #
coedge $-1 $203 $127 $309 $310 reversed $80 $-1 #
coedge $-1 $127 $202 $305 $311 reversed $80 $-1 #
coedge $-1 $307 $312 $127 $205 forward $302 $-1 #
edge $-1 $313 19.945812169348471 $314 29.752152734760543 $204 $315 forward 7 unknown #
loop $-1 $-1 $211 $128 #
plane-surface $-1 -78.308053834650707 2.897030227035593 1.4396801009531117 -0.75470958851134928 0 0.65605901945558964 0.65605901945558964 0 0.75470958851134928 forward_v I I I I #
loop $-1 $-1 $316 $82 #
coedge $-1 $209 $209 $210 $317 reversed $129 $-1 #
coedge $-1 $210 $210 $209 $317 forward $131 $-1 #
coedge $-1 $211 $211 $132 $212 forward $206 $-1 #
edge $-1 $318 0 $318 6.2831853071796004 $211 $319 forward 7 unknown #
loop $-1 $-1 $218 $133 #
plane-surface $-1 -78.308053834650707 2.897030227035593 1.4396801009531117 -0.75470958851134928 0 0.65605901945558964 0.65605901945558964 0 0.75470958851134928 forward_v I I I I #
loop $-1 $-1 $320 $85 #
coedge $-1 $216 $216 $217 $321 reversed $134 $-1 #
coedge $-1 $217 $217 $216 $321 forward $136 $-1 #
coedge $-1 $218 $218 $137 $219 forward $213 $-1 #
edge $-1 $322 0 $322 6.2831853071796004 $218 $323 forward 7 unknown #
face $-1 $324 $325 $33 $-1 $326 reversed single #
loop $-1 $-1 $327 $138 #
plane-surface $-1 -78.308053834650707 0 0 1 0 0 0 0 -1 forward_v I I I I #
coedge $-1 $328 $231 $329 $330 forward $139 $-1 #
coedge $-1 $331 $141 $328 $332 forward $89 $-1 #
coedge $-1 $141 $331 $333 $334 forward $89 $-1 #
coedge $-1 $234 $233 $141 $227 reversed $235 $-1 #
edge $-1 $335 -42.331325955173433 $336 42.331325955173433 $226 $337 forward 7 unknown #
coedge $-1 $143 $142 $338 $339 forward $56 $-1 #
coedge $-1 $340 $341 $142 $230 reversed $325 $-1 #
edge $-1 $237 -78.308053834650707 $342 78.308053834650707 $229 $343 forward 7 unknown #
coedge $-1 $223 $344 $143 $232 reversed $139 $-1 #
edge $-1 $345 -78.308053834650707 $236 78.308053834650707 $231 $346 forward 7 unknown #
coedge $-1 $226 $144 $344 $347 forward $235 $-1 #
coedge $-1 $144 $226 $340 $348 reversed $235 $-1 #
loop $-1 $-1 $233 $324 #
vertex $-1 $145 $349 #
vertex $-1 $145 $350 #
straight-curve $-1 78.308053834650707 0 12.720584765697661 0 1 0 I I #
face $-1 $351 $352 $34 $-1 $353 reversed single #
loop $-1 $-1 $354 $146 #
plane-surface $-1 0 -46.608034924776511 -11.659631472120912 0 0 1 1 0 0 forward_v I I I I #
coedge $-1 $152 $355 $356 $357 forward $147 $-1 #
coedge $-1 $358 $149 $359 $360 reversed $93 $-1 #
coedge $-1 $149 $358 $249 $361 reversed $93 $-1 #
edge $-1 $250 7.9325509917120574 $362 11.659631472120912 $149 $363 forward 7 unknown #
coedge $-1 $151 $150 $364 $365 forward $59 $-1 #
coedge $-1 $356 $366 $150 $248 forward $367 $-1 #
edge $-1 $368 -11.659631472120912 $251 -7.9325509917120574 $247 $369 forward 7 unknown #
coedge $-1 $355 $152 $244 $361 forward $147 $-1 #
vertex $-1 $245 $370 #
vertex $-1 $357 $371 #
straight-curve $-1 0 -42.331325955173433 -7.9325509917120574 1 0 0 I I #
face $-1 $-1 $265 $35 $-1 $372 forward single #
loop $-1 $-1 $373 $154 #
plane-surface $-1 78.308053834650707 0 0 -1 0 0 0 0 1 forward_v I I I I #
coedge $-1 $374 $375 $376 $377 reversed $155 $-1 #
coedge $-1 $378 $157 $159 $263 forward $97 $-1 #
coedge $-1 $157 $378 $374 $379 forward $97 $-1 #
coedge $-1 $376 $160 $157 $260 forward $265 $-1 #
edge $-1 $267 -3.8641086460312479 $380 13.953516657808649 $259 $381 forward 7 unknown #
coedge $-1 $382 $383 $158 $262 forward $254 $-1 #
edge $-1 $384 -104.55534081629737 $266 -98.535958152480958 $261 $385 forward 7 unknown #
edge $-1 $267 149.5181816968838 $384 156.61610766930141 $159 $386 forward 7 unknown #
coedge $-1 $160 $376 $382 $387 forward $265 $-1 #
loop $-1 $-1 $376 $253 #
vertex $-1 $262 $388 #
vertex $-1 $161 $389 #
straight-curve $-1 64.066078227592087 -1.1805953598574526 12.720584765697666 -1 0 0 I I #
coedge $-1 $269 $269 $-1 $390 reversed $164 $-1 #
edge $-1 $391 0 $391 6.2831853071796004 $165 $392 forward 7 unknown #
vertex $-1 $168 $393 #
ellipse-curve $-1 76.427390025216184 -13.907470576885956 9.7108934337894315 0.84804810408105047 0 0.52991925155115449 0.52991925155115449 0 -0.84804810408105047 1 I I #
coedge $-1 $273 $273 $-1 $394 reversed $171 $-1 #
edge $-1 $395 0 $395 6.2831853071796004 $172 $396 forward 7 unknown #
vertex $-1 $175 $397 #
ellipse-curve $-1 76.427390025216184 -6.2713454466688603 9.7108934337894315 0.84804810408105047 0 0.52991925155115449 0.52991925155115449 0 -0.84804810408105047 1 I I #
face $-1 $-1 $289 $38 $-1 $398 forward single #
loop $-1 $-1 $399 $176 #
plane-surface $-1 78.308053834650707 0 0 -1 0 0 0 0 1 forward_v I I I I #
coedge $-1 $400 $401 $402 $403 reversed $177 $-1 #
coedge $-1 $404 $179 $181 $287 forward $111 $-1 #
coedge $-1 $179 $404 $400 $405 forward $111 $-1 #
coedge $-1 $402 $182 $179 $284 forward $289 $-1 #
edge $-1 $291 -18.230225627411734 $406 -0.41260032357183718 $283 $407 forward 7 unknown #
coedge $-1 $408 $409 $180 $286 forward $278 $-1 #
edge $-1 $410 -104.55534081629737 $290 -98.535958152480958 $285 $411 forward 7 unknown #
edge $-1 $291 149.5181816968838 $410 156.61610766930141 $181 $412 forward 7 unknown #
coedge $-1 $182 $402 $408 $413 forward $289 $-1 #
loop $-1 $-1 $402 $277 #
vertex $-1 $286 $414 #
vertex $-1 $183 $415 #
straight-curve $-1 64.066078227592087 27.55163860290352 12.720584765697666 -1 0 0 I I #
coedge $-1 $293 $293 $-1 $416 reversed $186 $-1 #
edge $-1 $417 0 $417 6.2831853071796004 $187 $418 forward 7 unknown #
vertex $-1 $190 $419 #
ellipse-curve $-1 76.427390025216184 14.824763385875016 9.7108934337894315 0.84804810408105047 0 0.52991925155115449 0.52991925155115449 0 -0.84804810408105047 1 I I #
coedge $-1 $297 $297 $-1 $420 reversed $193 $-1 #
edge $-1 $421 0 $421 6.2831853071796004 $194 $422 forward 7 unknown #
vertex $-1 $197 $423 #
ellipse-curve $-1 76.427390025216184 22.460888516092105 9.7108934337894315 0.84804810408105047 0 0.52991925155115449 0.52991925155115449 0 -0.84804810408105047 1 I I #
face $-1 $-1 $424 $41 $-1 $425 reversed single #
loop $-1 $-1 $204 $198 #
plane-surface $-1 0 0 12.720584765697661 0 0 1 1 0 0 forward_v I I I I #
coedge $-1 $426 $427 $428 $429 reversed $199 $-1 #
coedge $-1 $430 $201 $203 $311 forward $125 $-1 #
coedge $-1 $201 $430 $426 $431 forward $125 $-1 #
coedge $-1 $428 $204 $201 $308 forward $302 $-1 #
edge $-1 $314 -7.8400075217217164 $432 10.737037748757309 $307 $433 forward 7 unknown #
coedge $-1 $434 $435 $202 $310 forward $424 $-1 #
edge $-1 $436 -50.654864963759913 $313 -39.373960299015366 $309 $437 forward 7 unknown #
edge $-1 $314 -14.947345093356939 $436 0 $203 $438 forward 7 unknown #
coedge $-1 $204 $428 $434 $439 forward $302 $-1 #
vertex $-1 $205 $440 #
vertex $-1 $205 $441 #
straight-curve $-1 -98.253866003999178 -6.39149240820392 12.720584765697659 1 0 0 I I #
coedge $-1 $316 $316 $-1 $442 reversed $208 $-1 #
edge $-1 $443 0 $443 6.2831853071796004 $209 $444 forward 7 unknown #
vertex $-1 $212 $445 #
ellipse-curve $-1 -73.404883551944664 -1.083765188067062 7.0801324333253888 -0.75470958851134928 0 0.65605901945558964 1.6401475486389741 0 1.8867739712783731 1 I I #
coedge $-1 $320 $320 $-1 $446 reversed $215 $-1 #
edge $-1 $447 0 $447 6.2831853071796004 $216 $448 forward 7 unknown #
vertex $-1 $219 $449 #
ellipse-curve $-1 -73.404883551944664 6.8778256421382338 7.0801324333253888 -0.75470958851134928 0 0.65605901945558964 1.6401475486389741 0 1.8867739712783731 1 I I #
face $-1 $-1 $235 $33 $-1 $450 reversed single #
loop $-1 $-1 $340 $220 #
plane-surface $-1 0 42.331325955173433 0 0 -1 0 0 0 -1 forward_v I I I I #
coedge $-1 $451 $338 $341 $452 forward $221 $-1 #
coedge $-1 $344 $223 $224 $332 reversed $139 $-1 #
coedge $-1 $338 $451 $223 $330 reversed $221 $-1 #
edge $-1 $345 -12.720584765697661 $453 12.720584765697661 $329 $454 forward 7 unknown #
coedge $-1 $225 $224 $451 $455 forward $89 $-1 #
edge $-1 $336 -78.308053834650707 $453 78.308053834650707 $328 $456 forward 7 unknown #
coedge $-1 $341 $340 $225 $334 reversed $325 $-1 #
edge $-1 $457 -78.308053834650707 $335 78.308053834650707 $333 $458 forward 7 unknown #
vertex $-1 $227 $459 #
vertex $-1 $347 $460 #
straight-curve $-1 78.308053834650707 0 -12.720584765697661 0 -1 0 I I #
coedge $-1 $327 $329 $228 $339 reversed $221 $-1 #
edge $-1 $342 -42.331325955173433 $345 42.331325955173433 $338 $461 forward 7 unknown #
coedge $-1 $333 $229 $234 $348 forward $325 $-1 #
coedge $-1 $229 $333 $327 $452 reversed $325 $-1 #
vertex $-1 $230 $462 #
straight-curve $-1 0 42.331325955173433 12.720584765697661 -1 0 0 I I #
coedge $-1 $231 $328 $233 $347 reversed $139 $-1 #
vertex $-1 $339 $463 #
straight-curve $-1 0 -42.331325955173433 12.720584765697661 1 0 0 I I #
edge $-1 $236 -12.720584765697661 $336 12.720584765697661 $233 $464 forward 7 unknown #
edge $-1 $237 -12.720584765697661 $335 12.720584765697661 $234 $465 forward 7 unknown #
point $-1 78.308053834650707 -42.331325955173433 12.720584765697661 #
point $-1 78.308053834650707 42.331325955173433 12.720584765697661 #
face $-1 $-1 $367 $34 $-1 $466 reversed single #
loop $-1 $-1 $467 $239 #
plane-surface $-1 0 -50.884743894379589 -9.7960912319164848 0 1 0 0 0 1 forward_v I I I I #
coedge $-1 $468 $364 $366 $469 forward $240 $-1 #
coedge $-1 $242 $249 $470 $471 forward $147 $-1 #
coedge $-1 $472 $247 $242 $357 reversed $367 $-1 #
edge $-1 $473 -4.276708969603078 $251 4.276708969603078 $356 $474 forward 7 unknown #
coedge $-1 $244 $243 $467 $475 reversed $93 $-1 #
coedge $-1 $364 $468 $243 $360 forward $240 $-1 #
edge $-1 $476 -4.276708969603078 $362 4.276708969603078 $243 $477 forward 7 unknown #
edge $-1 $250 -4.276708969603078 $478 4.276708969603078 $244 $479 forward 7 unknown #
vertex $-1 $245 $480 #
straight-curve $-1 -78.308053834650707 -42.331325955173433 0 0 0 -1 I I #
coedge $-1 $354 $359 $246 $365 reversed $240 $-1 #
edge $-1 $368 -78.308053834650707 $362 78.308053834650707 $364 $481 forward 7 unknown #
coedge $-1 $247 $472 $354 $469 reversed $367 $-1 #
loop $-1 $-1 $247 $351 #
vertex $-1 $248 $482 #
straight-curve $-1 78.308053834650707 -42.331325955173433 0 0 0 1 I I #
point $-1 -78.308053834650707 -42.331325955173433 -7.9325509917120574 #
point $-1 78.308053834650707 -42.331325955173433 -7.9325509917120574 #
plane-surface $-1 0 0 12.720584765697661 0 0 1 1 0 0 forward_v I I I I #
coedge $-1 $383 $382 $375 $483 forward $254 $-1 #
coedge $-1 $375 $256 $258 $379 reversed $155 $-1 #
coedge $-1 $256 $374 $373 $483 reversed $155 $-1 #
coedge $-1 $264 $259 $256 $377 forward $265 $-1 #
edge $-1 $380 10.48064798818956 $484 14.24197560705862 $376 $485 forward 7 unknown #
coedge $-1 $258 $257 $383 $486 reversed $97 $-1 #
edge $-1 $487 -156.61610766930141 $380 -149.5181816968838 $374 $488 forward 7 unknown #
vertex $-1 $260 $489 #
straight-curve $-1 74.546726215781632 -5.0447040058887005 12.72058476569768 0 -1 0 I I #
coedge $-1 $373 $261 $264 $387 reversed $254 $-1 #
coedge $-1 $261 $373 $378 $486 forward $254 $-1 #
vertex $-1 $262 $490 #
straight-curve $-1 78.308053834650707 -1.1805953598574526 111.25654291817862 0 0 1 I I #
straight-curve $-1 -4.6858367223205448 -1.1805953598574526 139.519195279386 0.52991925155115449 0 -0.84804810408105047 I I #
edge $-1 $484 -18.998220663697349 $266 -1.1805953598574526 $382 $491 forward 7 unknown #
point $-1 78.308053834650707 -1.1805953598574526 12.720584765697661 #
point $-1 74.546726215781646 -1.1805953598574526 12.720584765697666 #
edge $-1 $492 1 $492 0 $269 $-1 forward 7 unknown #
vertex $-1 $270 $493 #
ellipse-curve $-1 75.373043162090084 -13.907470576885956 9.0520644146637821 0.84804810408105047 0 0.52991925155115449 0.52991925155115449 0 -0.84804810408105047 1 I I #
point $-1 76.957309276767376 -13.907470576885956 8.8628453297084064 #
edge $-1 $494 1 $494 0 $273 $-1 forward 7 unknown #
vertex $-1 $274 $495 #
ellipse-curve $-1 75.373043162090084 -6.2713454466688603 9.0520644146637821 0.84804810408105047 0 0.52991925155115449 0.52991925155115449 0 -0.84804810408105047 1 I I #
point $-1 76.957309276767376 -6.2713454466688603 8.8628453297084064 #
plane-surface $-1 0 0 12.720584765697661 0 0 1 1 0 0 forward_v I I I I #
coedge $-1 $409 $408 $401 $496 forward $278 $-1 #
coedge $-1 $401 $280 $282 $405 reversed $177 $-1 #
coedge $-1 $280 $400 $399 $496 reversed $177 $-1 #
coedge $-1 $288 $283 $280 $403 forward $289 $-1 #
edge $-1 $406 10.48064798818956 $497 14.24197560705862 $402 $498 forward 7 unknown #
coedge $-1 $282 $281 $409 $499 reversed $111 $-1 #
edge $-1 $500 -156.61610766930141 $406 -149.5181816968838 $400 $501 forward 7 unknown #
vertex $-1 $284 $502 #
straight-curve $-1 74.546726215781632 9.3214129754917856 12.72058476569768 0 -1 0 I I #
coedge $-1 $399 $285 $288 $413 reversed $278 $-1 #
coedge $-1 $285 $399 $404 $499 forward $278 $-1 #
vertex $-1 $286 $503 #
straight-curve $-1 78.308053834650707 27.55163860290352 111.25654291817862 0 0 1 I I #
straight-curve $-1 -4.6858367223205448 27.55163860290352 139.519195279386 0.52991925155115449 0 -0.84804810408105047 I I #
edge $-1 $497 9.7340132990636228 $290 27.55163860290352 $408 $504 forward 7 unknown #
point $-1 78.308053834650707 27.55163860290352 12.720584765697661 #
point $-1 74.546726215781646 27.55163860290352 12.720584765697666 #
edge $-1 $505 1 $505 0 $293 $-1 forward 7 unknown #
vertex $-1 $294 $506 #
ellipse-curve $-1 75.373043162090084 14.824763385875016 9.0520644146637821 0.84804810408105047 0 0.52991925155115449 0.52991925155115449 0 -0.84804810408105047 1 I I #
point $-1 76.957309276767376 14.824763385875016 8.8628453297084064 #
edge $-1 $507 1 $507 0 $297 $-1 forward 7 unknown #
vertex $-1 $298 $508 #
ellipse-curve $-1 75.373043162090084 22.460888516092105 9.0520644146637821 0.84804810408105047 0 0.52991925155115449 0.52991925155115449 0 -0.84804810408105047 1 I I #
point $-1 76.957309276767376 22.460888516092105 8.8628453297084064 #
loop $-1 $-1 $309 $301 #
plane-surface $-1 -78.308053834650707 0 0 1 0 0 0 0 -1 forward_v I I I I #
coedge $-1 $427 $304 $306 $431 reversed $199 $-1 #
coedge $-1 $304 $426 $509 $510 reversed $199 $-1 #
coedge $-1 $312 $307 $304 $429 forward $302 $-1 #
edge $-1 $432 -29.752152734760543 $511 -19.945812169348471 $428 $512 forward 7 unknown #
coedge $-1 $306 $305 $435 $513 reversed $125 $-1 #
edge $-1 $514 0 $432 14.947345093356939 $426 $515 forward 7 unknown #
vertex $-1 $308 $516 #
straight-curve $-1 -68.501713269238635 1.4485151135177965 12.720584765697661 0 1 0 I I #
coedge $-1 $509 $309 $312 $439 reversed $424 $-1 #
coedge $-1 $309 $509 $430 $513 forward $424 $-1 #
vertex $-1 $310 $517 #
straight-curve $-1 -78.308053834650707 -6.39149240820392 52.094545064713024 0 0 1 I I #
straight-curve $-1 -78.308053834650707 -6.39149240820392 1.4396801009531117 -0.65605901945558964 0 -0.75470958851134928 I I #
edge $-1 $511 -12.185552862275106 $313 6.39149240820392 $434 $518 forward 7 unknown #
point $-1 -78.308053834650707 -6.39149240820392 12.720584765697661 #
point $-1 -68.501713269238635 -6.39149240820392 12.720584765697661 #
edge $-1 $519 1 $519 0 $316 $-1 forward 7 unknown #
vertex $-1 $317 $520 #
ellipse-curve $-1 -68.460703118281344 -1.083765188067062 2.7822220626372913 -0.75470958851134928 0 0.65605901945558964 1.6401475486389741 0 1.8867739712783731 1 I I #
point $-1 -71.764736003305686 -1.083765188067062 8.9669064046037619 #
edge $-1 $521 1 $521 0 $320 $-1 forward 7 unknown #
vertex $-1 $321 $522 #
ellipse-curve $-1 -68.460703118281344 6.8778256421382338 2.7822220626372913 -0.75470958851134928 0 0.65605901945558964 1.6401475486389741 0 1.8867739712783731 1 I I #
point $-1 -71.764736003305686 6.8778256421382338 8.9669064046037619 #
plane-surface $-1 78.308053834650707 0 0 -1 0 0 0 0 1 forward_v I I I I #
coedge $-1 $329 $327 $331 $455 reversed $221 $-1 #
edge $-1 $342 -12.720584765697661 $457 12.720584765697661 $341 $523 forward 7 unknown #
vertex $-1 $455 $524 #
straight-curve $-1 -78.308053834650707 -42.331325955173433 0 0 0 -1 I I #
edge $-1 $453 -42.331325955173433 $457 42.331325955173433 $451 $525 forward 7 unknown #
straight-curve $-1 0 -42.331325955173433 -12.720584765697661 -1 0 0 I I #
vertex $-1 $334 $526 #
straight-curve $-1 0 42.331325955173433 -12.720584765697661 1 0 0 I I #
point $-1 78.308053834650707 42.331325955173433 -12.720584765697661 #
point $-1 78.308053834650707 -42.331325955173433 -12.720584765697661 #
straight-curve $-1 -78.308053834650707 0 12.720584765697661 0 -1 0 I I #
point $-1 -78.308053834650707 42.331325955173433 12.720584765697661 #
point $-1 -78.308053834650707 -42.331325955173433 12.720584765697661 #
straight-curve $-1 78.308053834650707 -42.331325955173433 0 0 0 -1 I I #
straight-curve $-1 78.308053834650707 42.331325955173433 0 0 0 -1 I I #
plane-surface $-1 78.308053834650707 0 0 -1 0 0 0 0 1 forward_v I I I I #
coedge $-1 $527 $470 $358 $475 forward $352 $-1 #
coedge $-1 $359 $354 $527 $528 forward $240 $-1 #
edge $-1 $368 -4.276708969603078 $529 4.276708969603078 $366 $530 forward 7 unknown #
coedge $-1 $467 $531 $355 $471 reversed $352 $-1 #
edge $-1 $478 -78.308053834650707 $473 78.308053834650707 $470 $532 forward 7 unknown #
coedge $-1 $366 $356 $531 $533 forward $367 $-1 #
vertex $-1 $357 $534 #
straight-curve $-1 78.308053834650707 -46.608034924776511 -7.9325509917120574 0 1 0 I I #
edge $-1 $478 -1.8635402402044274 $476 1.8635402402044274 $358 $535 forward 7 unknown #
vertex $-1 $360 $536 #
straight-curve $-1 -78.308053834650707 -46.608034924776511 -11.659631472120912 0 1 0 I I #
vertex $-1 $361 $537 #
straight-curve $-1 -78.308053834650707 -46.608034924776511 -7.9325509917120574 0 -1 0 I I #
point $-1 -78.308053834650707 -42.331325955173433 -11.659631472120912 #
straight-curve $-1 0 -42.331325955173433 -11.659631472120912 -1 0 0 I I #
point $-1 78.308053834650707 -42.331325955173433 -11.659631472120912 #
edge $-1 $484 98.535958152480958 $487 104.55534081629737 $373 $538 forward 7 unknown #
vertex $-1 $387 $539 #
straight-curve $-1 64.066078227592087 -18.998220663697349 12.720584765697666 1 0 0 I I #
edge $-1 $487 -13.953516657808649 $384 3.8641086460312479 $383 $540 forward 7 unknown #
vertex $-1 $486 $541 #
straight-curve $-1 -4.6858367223205448 -18.998220663697349 139.519195279386 -0.52991925155115449 0 0.84804810408105047 I I #
point $-1 74.546726215781646 -18.998220663697349 12.720584765697666 #
point $-1 78.308053834650707 -1.1805953598574526 6.7012021018812504 #
straight-curve $-1 78.308053834650707 0 12.720584765697661 0 1 0 I I #
vertex $-1 $390 $542 #
point $-1 75.902962413641248 -13.907470576885956 8.2040163105827322 #
vertex $-1 $394 $543 #
point $-1 75.902962413641248 -6.2713454466688603 8.2040163105827322 #
edge $-1 $497 98.535958152480958 $500 104.55534081629737 $399 $544 forward 7 unknown #
vertex $-1 $413 $545 #
straight-curve $-1 64.066078227592087 9.7340132990636228 12.720584765697666 1 0 0 I I #
edge $-1 $500 0.41260032357183718 $410 18.230225627411734 $409 $546 forward 7 unknown #
vertex $-1 $499 $547 #
straight-curve $-1 -4.6858367223205448 9.7340132990636228 139.519195279386 -0.52991925155115449 0 0.84804810408105047 I I #
point $-1 74.546726215781646 9.7340132990636228 12.720584765697666 #
point $-1 78.308053834650707 27.55163860290352 6.7012021018812504 #
straight-curve $-1 78.308053834650707 0 12.720584765697661 0 1 0 I I #
vertex $-1 $416 $548 #
point $-1 75.902962413641248 14.824763385875016 8.2040163105827322 #
vertex $-1 $420 $549 #
point $-1 75.902962413641248 22.460888516092105 8.2040163105827322 #
coedge $-1 $435 $434 $427 $510 forward $424 $-1 #
edge $-1 $511 39.373960299015366 $514 50.654864963759913 $509 $550 forward 7 unknown #
vertex $-1 $439 $551 #
straight-curve $-1 -98.253866003999178 12.185552862275106 12.720584765697659 -1 0 0 I I #
edge $-1 $514 -10.737037748757309 $436 7.8400075217217164 $435 $552 forward 7 unknown #
vertex $-1 $513 $553 #
straight-curve $-1 -78.308053834650707 12.185552862275106 1.4396801009531117 0.65605901945558964 0 0.75470958851134928 I I #
point $-1 -68.501713269238635 12.185552862275106 12.720584765697661 #
point $-1 -78.308053834650707 -6.39149240820392 1.4396801009531117 #
straight-curve $-1 -78.308053834650707 0 12.720584765697661 0 -1 0 I I #
vertex $-1 $442 $554 #
point $-1 -66.820555569642366 -1.083765188067062 4.6689960339156649 #
vertex $-1 $446 $555 #
point $-1 -66.820555569642366 6.8778256421382338 4.6689960339156649 #
straight-curve $-1 -78.308053834650707 42.331325955173433 0 0 0 -1 I I #
point $-1 -78.308053834650707 -42.331325955173433 -12.720584765697661 #
straight-curve $-1 -78.308053834650707 0 -12.720584765697661 0 1 0 I I #
point $-1 -78.308053834650707 42.331325955173433 -12.720584765697661 #
coedge $-1 $531 $467 $468 $528 reversed $352 $-1 #
edge $-1 $529 -78.308053834650707 $476 78.308053834650707 $527 $556 forward 7 unknown #
vertex $-1 $533 $557 #
straight-curve $-1 78.308053834650707 -46.608034924776511 -11.659631472120912 0 -1 0 I I #
coedge $-1 $470 $527 $472 $533 reversed $352 $-1 #
straight-curve $-1 0 -50.884743894379589 -7.9325509917120574 1 0 0 I I #
edge $-1 $473 -1.8635402402044274 $529 1.8635402402044274 $472 $558 forward 7 unknown #
point $-1 78.308053834650707 -50.884743894379589 -7.9325509917120574 #
straight-curve $-1 -78.308053834650707 -50.884743894379589 -9.7960912319164848 0 0 -1 I I #
point $-1 -78.308053834650707 -50.884743894379589 -11.659631472120912 #
point $-1 -78.308053834650707 -50.884743894379589 -7.9325509917120574 #
straight-curve $-1 78.308053834650707 -18.998220663697349 111.25654291817862 0 0 -1 I I #
point $-1 78.308053834650707 -18.998220663697349 12.720584765697661 #
straight-curve $-1 78.308053834650707 -5.0447040058887005 6.7012021018812291 0 1 0 I I #
point $-1 78.308053834650707 -18.998220663697349 6.7012021018812504 #
point $-1 74.52499505800904 -13.907470576885956 8.5221451631126293 #
point $-1 74.52499505800904 -6.2713454466688603 8.5221451631126293 #
straight-curve $-1 78.308053834650707 9.7340132990636228 111.25654291817862 0 0 -1 I I #
point $-1 78.308053834650707 9.7340132990636228 12.720584765697661 #
straight-curve $-1 78.308053834650707 9.3214129754917856 6.7012021018812291 0 1 0 I I #
point $-1 78.308053834650707 9.7340132990636228 6.7012021018812504 #
point $-1 74.52499505800904 14.824763385875016 8.5221451631126293 #
point $-1 74.52499505800904 22.460888516092105 8.5221451631126293 #
straight-curve $-1 -78.308053834650707 12.185552862275106 52.094545064713024 0 0 -1 I I #
point $-1 -78.308053834650707 12.185552862275106 12.720584765697661 #
straight-curve $-1 -78.308053834650707 1.4485151135177965 1.4396801009531153 0 -1 0 I I #
point $-1 -78.308053834650707 12.185552862275106 1.4396801009531117 #
point $-1 -66.573929147002957 -1.083765188067062 1.1420745139983173 #
point $-1 -66.573929147002957 6.8778256421382338 1.1420745139983173 #
straight-curve $-1 0 -50.884743894379589 -11.659631472120912 -1 0 0 I I #
point $-1 78.308053834650707 -50.884743894379589 -11.659631472120912 #
straight-curve $-1 78.308053834650707 -50.884743894379589 -9.7960912319164848 0 0 -1 I I #
End-of-ACIS-data 