500 0 13 0           
7 Unknown 11 ACIS 5.0 NT 24 Thu Mar 25 21:50:18 1999 
-1 9.9999999999999995e-007 1e-010 
body $-1 $13 $-1 $14 #
body $-1 $15 $-1 $16 #
body $-1 $17 $-1 $18 #
body $-1 $19 $-1 $20 #
body $-1 $21 $-1 $22 #
body $-1 $23 $-1 $24 #
body $-1 $25 $-1 $26 #
body $-1 $27 $-1 $28 #
body $-1 $29 $-1 $30 #
body $-1 $31 $-1 $32 #
body $-1 $33 $-1 $34 #
body $-1 $35 $-1 $36 #
body $-1 $37 $-1 $38 #
lump $-1 $-1 $39 $0 #
transform $-1 1 0 0 0 1 0 0 0 1 40.015869624927518 17.812905543264726 4.9427863726012715 1 rotate no_reflect no_shear #
lump $-1 $-1 $40 $1 #
transform $-1 1 0 0 0 1 0 0 0 1 40.015869624927518 17.812905543264726 4.9427863726012715 1 rotate no_reflect no_shear #
lump $-1 $-1 $41 $2 #
transform $-1 1 0 0 0 1 0 0 0 1 40.015869624927518 17.812905543264726 4.9427863726012715 1 rotate no_reflect no_shear #
lump $-1 $-1 $42 $3 #
transform $-1 1 0 0 0 1 0 0 0 1 40.015869624927518 17.812905543264726 4.9427863726012715 1 rotate no_reflect no_shear #
lump $-1 $-1 $43 $4 #
transform $-1 1 0 0 0 1 0 0 0 1 40.015869624927518 17.812905543264726 4.9427863726012715 1 rotate no_reflect no_shear #
lump $-1 $-1 $44 $5 #
transform $-1 1 0 0 0 1 0 0 0 1 40.015869624927518 17.812905543264726 4.9427863726012715 1 rotate no_reflect no_shear #
lump $-1 $-1 $45 $6 #
transform $-1 1 0 0 0 1 0 0 0 1 40.015869624927518 17.812905543264726 4.9427863726012715 1 rotate no_reflect no_shear #
lump $-1 $-1 $46 $7 #
transform $-1 1 0 0 0 1 0 0 0 1 40.015869624927518 17.812905543264726 4.9427863726012715 1 rotate no_reflect no_shear #
lump $-1 $-1 $47 $8 #
transform $-1 1 0 0 0 1 0 0 0 1 40.015869624927518 17.812905543264726 4.9427863726012715 1 rotate no_reflect no_shear #
lump $-1 $-1 $48 $9 #
transform $-1 1 0 0 0 1 0 0 0 1 40.015869624927518 17.812905543264726 4.9427863726012715 1 rotate no_reflect no_shear #
lump $-1 $-1 $49 $10 #
transform $-1 1 0 0 0 1 0 0 0 1 40.015869624927518 17.812905543264726 4.9427863726012715 1 rotate no_reflect no_shear #
lump $-1 $-1 $50 $11 #
transform $-1 1 0 0 0 1 0 0 0 1 40.015869624927518 17.812905543264726 4.9427863726012715 1 rotate no_reflect no_shear #
lump $-1 $-1 $51 $12 #
transform $-1 1 0 0 0 1 0 0 0 1 40.015869624927518 17.812905543264726 4.9427863726012715 1 rotate no_reflect no_shear #
shell $-1 $-1 $-1 $52 $-1 $13 #
shell $-1 $-1 $-1 $53 $-1 $15 #
shell $-1 $-1 $-1 $54 $-1 $17 #
shell $-1 $-1 $-1 $55 $-1 $19 #
shell $-1 $-1 $-1 $56 $-1 $21 #
shell $-1 $-1 $-1 $57 $-1 $23 #
shell $-1 $-1 $-1 $58 $-1 $25 #
shell $-1 $-1 $-1 $59 $-1 $27 #
shell $-1 $-1 $-1 $60 $-1 $29 #
shell $-1 $-1 $-1 $61 $-1 $31 #
shell $-1 $-1 $-1 $62 $-1 $33 #
shell $-1 $-1 $-1 $63 $-1 $35 #
shell $-1 $-1 $-1 $64 $-1 $37 #
face $-1 $65 $66 $39 $-1 $67 forward single #
face $-1 $68 $69 $40 $-1 $70 reversed single #
face $-1 $71 $72 $41 $-1 $73 forward single #
face $-1 $74 $75 $42 $-1 $76 forward single #
face $-1 $77 $78 $43 $-1 $79 reversed single #
face $-1 $80 $81 $44 $-1 $82 forward single #
face $-1 $83 $84 $45 $-1 $85 forward single #
face $-1 $86 $87 $46 $-1 $88 reversed single #
face $-1 $89 $90 $47 $-1 $91 forward single #
face $-1 $92 $93 $48 $-1 $94 forward single #
face $-1 $95 $96 $49 $-1 $97 reversed single #
face $-1 $98 $99 $50 $-1 $100 forward single #
face $-1 $101 $102 $51 $-1 $103 forward single #
face $-1 $104 $105 $39 $-1 $106 reversed single #
loop $-1 $-1 $107 $52 #
plane-surface $-1 0 0 4.9427863726012715 0 0 1 1 0 0 forward_v I I I I #
face $-1 $108 $109 $40 $-1 $110 reversed single #
loop $-1 $-1 $111 $53 #
plane-surface $-1 -22.398848522955504 -74.403891733590612 58.26791065538734 -1 0 0 0 -0.70710678939079041 0.70710677298230451 forward_v I I I I #
face $-1 $112 $113 $41 $-1 $114 forward single #
loop $-1 $115 $116 $54 #
cone-surface $-1 -34.982435024364086 -15.807507154927691 2.9373879550150837 0 0.70710678939079041 -0.70710677298230451 0.5 0 0 1 I I 0 1 0.5 forward I I I I #
face $-1 $117 $118 $42 $-1 $119 forward single #
loop $-1 $120 $121 $55 #
cone-surface $-1 -27.432283123518939 -15.807507154927691 2.9373879550150837 0 0.70710678939079041 -0.70710677298230451 0.5 0 0 1 I I 0 1 0.5 forward I I I I #
face $-1 $122 $123 $43 $-1 $124 reversed single #
loop $-1 $-1 $125 $56 #
plane-surface $-1 31.207359073941504 -17.812905543264712 1.6769257782611078 0 -0.70710678939079041 0.70710677298230451 1 0 0 forward_v I I I I #
face $-1 $126 $127 $44 $-1 $128 forward single #
loop $-1 $129 $130 $57 #
cone-surface $-1 27.432283123518943 -15.807507154927691 2.9373879550150837 0 0.70710678939079041 -0.70710677298230451 0.5 0 0 1 I I 0 1 0.5 forward I I I I #
face $-1 $131 $132 $45 $-1 $133 forward single #
loop $-1 $134 $135 $58 #
cone-surface $-1 34.982435024364079 -15.807507154927691 2.9373879550150837 0 0.70710678939079041 -0.70710677298230451 0.5 0 0 1 I I 0 1 0.5 forward I I I I #
face $-1 $136 $137 $46 $-1 $138 reversed single #
loop $-1 $-1 $139 $59 #
plane-surface $-1 -22.398848522955504 49.212639421317569 83.459163552226002 -1 0 0 0 0.70710678939079041 0.70710677298230451 forward_v I I I I #
face $-1 $140 $141 $47 $-1 $142 forward single #
loop $-1 $143 $144 $60 #
cone-surface $-1 -34.982435024364086 15.807507154927688 2.9373879550150872 0 -0.70710678939079041 -0.70710677298230451 0.5 0 0 1 I I 0 1 0.5 forward I I I I #
face $-1 $145 $146 $48 $-1 $147 forward single #
loop $-1 $148 $149 $61 #
cone-surface $-1 -27.432283123518939 15.807507154927688 2.9373879550150872 0 -0.70710678939079041 -0.70710677298230451 0.5 0 0 1 I I 0 1 0.5 forward I I I I #
face $-1 $150 $151 $49 $-1 $152 reversed single #
loop $-1 $-1 $153 $62 #
plane-surface $-1 31.207359073941504 -7.3783467690083313 26.86817867509977 0 0.70710678939079041 0.70710677298230451 1 0 0 forward_v I I I I #
face $-1 $154 $155 $50 $-1 $156 forward single #
loop $-1 $157 $158 $63 #
cone-surface $-1 27.432283123518943 15.807507154927688 2.9373879550150872 0 -0.70710678939079041 -0.70710677298230451 0.5 0 0 1 I I 0 1 0.5 forward I I I I #
face $-1 $159 $160 $51 $-1 $161 forward single #
loop $-1 $162 $163 $64 #
cone-surface $-1 34.982435024364079 15.807507154927688 2.9373879550150872 0 -0.70710678939079041 -0.70710677298230451 0.5 0 0 1 I I 0 1 0.5 forward I I I I #
face $-1 $164 $165 $39 $-1 $166 reversed single #
loop $-1 $-1 $167 $65 #
plane-surface $-1 0 0 -4.9427863726012715 0 0 1 1 0 0 forward_v I I I I #
coedge $-1 $168 $169 $170 $171 forward $66 $-1 #
face $-1 $172 $173 $40 $-1 $174 forward single #
loop $-1 $-1 $175 $68 #
plane-surface $-1 -31.207359073941511 -17.812905543264712 1.6769257782611078 0 -0.70710678939079041 0.70710677298230451 1 0 0 forward_v I I I I #
coedge $-1 $176 $177 $178 $179 reversed $69 $-1 #
face $-1 $-1 $180 $41 $-1 $181 forward single #
loop $-1 $182 $183 $71 #
cone-surface $-1 -34.982435024364086 -15.258262328520726 2.3881431413534004 0 0.70710678939079041 -0.70710677298230451 0.25 0 0 1 I I -0.70710678118654746 0.70710678118654746 0.25 forward I I I I #
loop $-1 $-1 $184 $54 #
coedge $-1 $116 $116 $185 $186 reversed $72 $-1 #
face $-1 $-1 $187 $42 $-1 $188 forward single #
loop $-1 $189 $190 $74 #
cone-surface $-1 -27.432283123518939 -15.258262328520726 2.3881431413534004 0 0.70710678939079041 -0.70710677298230451 0.25 0 0 1 I I -0.70710678118654746 0.70710678118654746 0.25 forward I I I I #
loop $-1 $-1 $191 $55 #
coedge $-1 $121 $121 $192 $193 reversed $75 $-1 #
face $-1 $194 $195 $43 $-1 $196 reversed single #
loop $-1 $-1 $197 $77 #
plane-surface $-1 22.398848522955497 -74.403891733590612 58.26791065538734 1 0 0 0 0.70710678939079041 -0.70710677298230451 forward_v I I I I #
coedge $-1 $198 $199 $200 $201 reversed $78 $-1 #
face $-1 $-1 $202 $44 $-1 $203 forward single #
loop $-1 $204 $205 $80 #
cone-surface $-1 27.432283123518943 -15.258262328520726 2.3881431413534004 0 0.70710678939079041 -0.70710677298230451 0.25 0 0 1 I I -0.70710678118654746 0.70710678118654746 0.25 forward I I I I #
loop $-1 $-1 $206 $57 #
coedge $-1 $130 $130 $207 $208 reversed $81 $-1 #
face $-1 $-1 $209 $45 $-1 $210 forward single #
loop $-1 $211 $212 $83 #
cone-surface $-1 34.982435024364079 -15.258262328520726 2.3881431413534004 0 0.70710678939079041 -0.70710677298230451 0.25 0 0 1 I I -0.70710678118654746 0.70710678118654746 0.25 forward I I I I #
loop $-1 $-1 $213 $58 #
coedge $-1 $135 $135 $214 $215 reversed $84 $-1 #
face $-1 $216 $217 $46 $-1 $218 reversed single #
loop $-1 $-1 $219 $86 #
plane-surface $-1 -31.207359073941511 -7.3783467690083313 26.86817867509977 0 0.70710678939079041 0.70710677298230451 1 0 0 forward_v I I I I #
coedge $-1 $220 $221 $222 $223 reversed $87 $-1 #
face $-1 $-1 $224 $47 $-1 $225 forward single #
loop $-1 $226 $227 $89 #
cone-surface $-1 -34.982435024364086 15.258262328520722 2.388143141353404 0 -0.70710678939079041 -0.70710677298230451 0.25 0 0 1 I I -0.70710678118654746 0.70710678118654746 0.25 forward I I I I #
loop $-1 $-1 $228 $60 #
coedge $-1 $144 $144 $229 $230 reversed $90 $-1 #
face $-1 $-1 $231 $48 $-1 $232 forward single #
loop $-1 $233 $234 $92 #
cone-surface $-1 -27.432283123518939 15.258262328520722 2.388143141353404 0 -0.70710678939079041 -0.70710677298230451 0.25 0 0 1 I I -0.70710678118654746 0.70710678118654746 0.25 forward I I I I #
loop $-1 $-1 $235 $61 #
coedge $-1 $149 $149 $236 $237 reversed $93 $-1 #
face $-1 $238 $239 $49 $-1 $240 reversed single #
loop $-1 $-1 $241 $95 #
plane-surface $-1 22.398848522955497 49.212639421317569 83.459163552226002 1 0 0 0 -0.70710678939079041 -0.70710677298230451 forward_v I I I I #
coedge $-1 $242 $243 $244 $245 reversed $96 $-1 #
face $-1 $-1 $246 $50 $-1 $247 forward single #
loop $-1 $248 $249 $98 #
cone-surface $-1 27.432283123518943 15.258262328520722 2.388143141353404 0 -0.70710678939079041 -0.70710677298230451 0.25 0 0 1 I I -0.70710678118654746 0.70710678118654746 0.25 forward I I I I #
loop $-1 $-1 $250 $63 #
coedge $-1 $158 $158 $251 $252 reversed $99 $-1 #
face $-1 $-1 $253 $51 $-1 $254 forward single #
loop $-1 $255 $256 $101 #
cone-surface $-1 34.982435024364079 15.258262328520722 2.388143141353404 0 -0.70710678939079041 -0.70710677298230451 0.25 0 0 1 I I -0.70710678118654746 0.70710678118654746 0.25 forward I I I I #
loop $-1 $-1 $257 $64 #
coedge $-1 $163 $163 $258 $259 reversed $102 $-1 #
face $-1 $260 $261 $39 $-1 $262 reversed single #
loop $-1 $-1 $263 $104 #
plane-surface $-1 0 -17.812905543264726 0 0 1 0 0 0 1 forward_v I I I I #
coedge $-1 $264 $265 $266 $267 forward $105 $-1 #
coedge $-1 $268 $107 $269 $270 forward $66 $-1 #
coedge $-1 $107 $268 $271 $272 forward $66 $-1 #
coedge $-1 $273 $274 $107 $171 reversed $275 $-1 #
edge $-1 $276 -17.812905543264726 $277 17.812905543264726 $170 $278 forward 7 unknown #
face $-1 $279 $280 $40 $-1 $281 reversed single #
loop $-1 $-1 $178 $108 #
plane-surface $-1 0 0 4.9427863726012715 0 0 1 1 0 0 forward_v I I I I #
coedge $-1 $282 $283 $284 $285 reversed $109 $-1 #
coedge $-1 $177 $111 $286 $287 reversed $69 $-1 #
coedge $-1 $111 $176 $282 $288 reversed $69 $-1 #
coedge $-1 $284 $289 $111 $179 forward $173 $-1 #
edge $-1 $290 19.38904032353058 $291 22.654900842086128 $178 $292 forward 7 unknown #
loop $-1 $-1 $185 $112 #
plane-surface $-1 -31.207359073941511 -17.812905543264712 1.6769257782611078 0 -0.70710678939079041 0.70710677298230451 1 0 0 forward_v I I I I #
loop $-1 $-1 $293 $71 #
coedge $-1 $183 $183 $184 $294 reversed $113 $-1 #
coedge $-1 $184 $184 $183 $294 forward $115 $-1 #
coedge $-1 $185 $185 $116 $186 forward $180 $-1 #
edge $-1 $295 2.3317860796066896e-022 $295 6.2831853071796004 $185 $296 forward 7 unknown #
loop $-1 $-1 $192 $117 #
plane-surface $-1 -31.207359073941511 -17.812905543264712 1.6769257782611078 0 -0.70710678939079041 0.70710677298230451 1 0 0 forward_v I I I I #
loop $-1 $-1 $297 $74 #
coedge $-1 $190 $190 $191 $298 reversed $118 $-1 #
coedge $-1 $191 $191 $190 $298 forward $120 $-1 #
coedge $-1 $192 $192 $121 $193 forward $187 $-1 #
edge $-1 $299 2.3317860796066896e-022 $299 6.2831853071796004 $192 $300 forward 7 unknown #
face $-1 $301 $302 $43 $-1 $303 forward single #
loop $-1 $-1 $304 $122 #
plane-surface $-1 40.015869624927518 0 0 -1 0 0 0 0 1 forward_v I I I I #
coedge $-1 $305 $306 $307 $308 reversed $123 $-1 #
coedge $-1 $309 $125 $304 $310 reversed $78 $-1 #
coedge $-1 $125 $309 $305 $311 forward $78 $-1 #
coedge $-1 $307 $312 $125 $201 forward $302 $-1 #
edge $-1 $313 -24.412190087956759 $314 -6.7951689859847448 $200 $315 forward 7 unknown #
loop $-1 $-1 $207 $126 #
plane-surface $-1 31.207359073941504 -17.812905543264712 1.6769257782611078 0 -0.70710678939079041 0.70710677298230451 1 0 0 forward_v I I I I #
loop $-1 $-1 $316 $80 #
coedge $-1 $205 $205 $206 $317 reversed $127 $-1 #
coedge $-1 $206 $206 $205 $317 forward $129 $-1 #
coedge $-1 $207 $207 $130 $208 forward $202 $-1 #
edge $-1 $318 2.3317860796066896e-022 $318 6.2831853071796004 $207 $319 forward 7 unknown #
loop $-1 $-1 $214 $131 #
plane-surface $-1 31.207359073941504 -17.812905543264712 1.6769257782611078 0 -0.70710678939079041 0.70710677298230451 1 0 0 forward_v I I I I #
loop $-1 $-1 $320 $83 #
coedge $-1 $212 $212 $213 $321 reversed $132 $-1 #
coedge $-1 $213 $213 $212 $321 forward $134 $-1 #
coedge $-1 $214 $214 $135 $215 forward $209 $-1 #
edge $-1 $322 2.3317860796066896e-022 $322 6.2831853071796004 $214 $323 forward 7 unknown #
face $-1 $324 $325 $46 $-1 $326 reversed single #
loop $-1 $-1 $222 $136 #
plane-surface $-1 0 17.812905543264726 0 0 -1 0 0 0 -1 forward_v I I I I #
coedge $-1 $327 $328 $329 $330 reversed $137 $-1 #
coedge $-1 $221 $139 $331 $332 reversed $87 $-1 #
coedge $-1 $139 $220 $327 $333 reversed $87 $-1 #
coedge $-1 $329 $334 $139 $223 forward $217 $-1 #
edge $-1 $335 36.786795403511732 $336 40.052655997851907 $222 $337 forward 7 unknown #
loop $-1 $-1 $229 $140 #
plane-surface $-1 -31.207359073941511 -7.3783467690083313 26.86817867509977 0 0.70710678939079041 0.70710677298230451 1 0 0 forward_v I I I I #
loop $-1 $-1 $338 $89 #
coedge $-1 $227 $227 $228 $339 reversed $141 $-1 #
coedge $-1 $228 $228 $227 $339 forward $143 $-1 #
coedge $-1 $229 $229 $144 $230 forward $224 $-1 #
edge $-1 $340 -2.5121480796306707e-015 $340 6.2831853071795978 $229 $341 forward 7 unknown #
loop $-1 $-1 $236 $145 #
plane-surface $-1 -31.207359073941511 -7.3783467690083313 26.86817867509977 0 0.70710678939079041 0.70710677298230451 1 0 0 forward_v I I I I #
loop $-1 $-1 $342 $92 #
coedge $-1 $234 $234 $235 $343 reversed $146 $-1 #
coedge $-1 $235 $235 $234 $343 forward $148 $-1 #
coedge $-1 $236 $236 $149 $237 forward $231 $-1 #
edge $-1 $344 -2.5121480796306707e-015 $344 6.2831853071795978 $236 $345 forward 7 unknown #
face $-1 $346 $347 $49 $-1 $348 forward single #
loop $-1 $-1 $244 $150 #
plane-surface $-1 0 17.812905543264726 0 0 -1 0 0 0 -1 forward_v I I I I #
coedge $-1 $349 $350 $351 $352 reversed $151 $-1 #
coedge $-1 $353 $153 $354 $355 reversed $96 $-1 #
coedge $-1 $153 $353 $349 $356 forward $96 $-1 #
coedge $-1 $351 $357 $153 $245 forward $239 $-1 #
edge $-1 $358 -24.412190087956759 $359 -6.7951689859847448 $244 $360 forward 7 unknown #
loop $-1 $-1 $251 $154 #
plane-surface $-1 31.207359073941504 -7.3783467690083313 26.86817867509977 0 0.70710678939079041 0.70710677298230451 1 0 0 forward_v I I I I #
loop $-1 $-1 $361 $98 #
coedge $-1 $249 $249 $250 $362 reversed $155 $-1 #
coedge $-1 $250 $250 $249 $362 forward $157 $-1 #
coedge $-1 $251 $251 $158 $252 forward $246 $-1 #
edge $-1 $363 -2.5121480796306707e-015 $363 6.2831853071795978 $251 $364 forward 7 unknown #
loop $-1 $-1 $258 $159 #
plane-surface $-1 31.207359073941504 -7.3783467690083313 26.86817867509977 0 0.70710678939079041 0.70710677298230451 1 0 0 forward_v I I I I #
loop $-1 $-1 $365 $101 #
coedge $-1 $256 $256 $257 $366 reversed $160 $-1 #
coedge $-1 $257 $257 $256 $366 forward $162 $-1 #
coedge $-1 $258 $258 $163 $259 forward $253 $-1 #
edge $-1 $367 -2.5121480796306707e-015 $367 6.2831853071795978 $258 $368 forward 7 unknown #
face $-1 $369 $370 $39 $-1 $371 reversed single #
loop $-1 $-1 $372 $164 #
plane-surface $-1 -40.015869624927518 0 0 1 0 0 0 0 -1 forward_v I I I I #
coedge $-1 $373 $271 $374 $375 forward $165 $-1 #
coedge $-1 $376 $167 $373 $377 forward $105 $-1 #
coedge $-1 $167 $376 $378 $379 forward $105 $-1 #
coedge $-1 $274 $273 $167 $267 reversed $275 $-1 #
edge $-1 $380 -17.812905543264726 $381 17.812905543264726 $266 $382 forward 7 unknown #
coedge $-1 $169 $168 $383 $384 forward $66 $-1 #
coedge $-1 $385 $386 $168 $270 reversed $370 $-1 #
edge $-1 $277 -40.015869624927518 $387 40.015869624927518 $269 $388 forward 7 unknown #
coedge $-1 $263 $389 $169 $272 reversed $165 $-1 #
edge $-1 $390 -40.015869624927518 $276 40.015869624927518 $271 $391 forward 7 unknown #
coedge $-1 $266 $170 $389 $392 forward $275 $-1 #
coedge $-1 $170 $266 $385 $393 reversed $275 $-1 #
loop $-1 $-1 $273 $369 #
vertex $-1 $171 $394 #
vertex $-1 $171 $395 #
straight-curve $-1 40.015869624927518 0 4.9427863726012715 0 1 0 I I #
face $-1 $-1 $396 $40 $-1 $397 reversed single #
loop $-1 $-1 $398 $172 #
plane-surface $-1 -40.015869624927518 0 0 1 0 0 0 0 -1 forward_v I I I I #
coedge $-1 $399 $175 $177 $288 forward $109 $-1 #
coedge $-1 $175 $399 $398 $400 reversed $109 $-1 #
coedge $-1 $401 $178 $175 $285 forward $173 $-1 #
edge $-1 $291 6.7951689859847484 $402 24.412190087956763 $284 $403 forward 7 unknown #
coedge $-1 $404 $405 $176 $287 forward $396 $-1 #
edge $-1 $406 -27.457029549432576 $290 -24.191168955092397 $286 $407 forward 7 unknown #
edge $-1 $291 -4.6186242917478912 $406 2.0097183471152325e-014 $177 $408 forward 7 unknown #
coedge $-1 $178 $401 $404 $409 forward $173 $-1 #
vertex $-1 $287 $410 #
vertex $-1 $179 $411 #
straight-curve $-1 -22.398848522955504 -37.201945866795306 4.9427863726012724 0 1 0 I I #
coedge $-1 $293 $293 $-1 $412 reversed $182 $-1 #
edge $-1 $413 0 $413 6.2831853071796004 $183 $414 forward 7 unknown #
vertex $-1 $186 $415 #
ellipse-curve $-1 -34.982435024364086 -16.179975283986952 3.3098560754311834 0 -0.70710678939079041 0.70710677298230451 0.5 0 0 1 I I #
coedge $-1 $297 $297 $-1 $416 reversed $189 $-1 #
edge $-1 $417 0 $417 6.2831853071796004 $190 $418 forward 7 unknown #
vertex $-1 $193 $419 #
ellipse-curve $-1 -27.432283123518939 -16.179975283986952 3.3098560754311834 0 -0.70710678939079041 0.70710677298230451 0.5 0 0 1 I I #
face $-1 $-1 $420 $43 $-1 $421 reversed single #
loop $-1 $-1 $200 $194 #
plane-surface $-1 0 0 4.9427863726012715 0 0 1 1 0 0 forward_v I I I I #
coedge $-1 $422 $423 $198 $310 forward $195 $-1 #
coedge $-1 $306 $197 $199 $311 reversed $123 $-1 #
coedge $-1 $197 $305 $424 $425 reversed $123 $-1 #
coedge $-1 $426 $200 $197 $308 forward $302 $-1 #
edge $-1 $314 -22.654900842086128 $427 -19.38904032353058 $307 $428 forward 7 unknown #
coedge $-1 $199 $198 $429 $430 reversed $78 $-1 #
edge $-1 $431 -5.7049302765118455 $313 -1.0863059847639345 $304 $432 forward 7 unknown #
edge $-1 $433 -2.0097183471152325e-014 $314 4.6186242917478912 $305 $434 forward 7 unknown #
coedge $-1 $200 $426 $422 $435 forward $302 $-1 #
vertex $-1 $201 $436 #
vertex $-1 $201 $437 #
straight-curve $-1 15.603679536970752 -14.547045024709179 4.9427863726012706 -1 0 0 I I #
coedge $-1 $316 $316 $-1 $438 reversed $204 $-1 #
edge $-1 $439 0 $439 6.2831853071796004 $205 $440 forward 7 unknown #
vertex $-1 $208 $441 #
ellipse-curve $-1 27.432283123518943 -16.179975283986952 3.3098560754311834 0 -0.70710678939079041 0.70710677298230451 0.5 0 0 1 I I #
coedge $-1 $320 $320 $-1 $442 reversed $211 $-1 #
edge $-1 $443 0 $443 6.2831853071796004 $212 $444 forward 7 unknown #
vertex $-1 $215 $445 #
ellipse-curve $-1 34.982435024364079 -16.179975283986952 3.3098560754311834 0 -0.70710678939079041 0.70710677298230451 0.5 0 0 1 I I #
face $-1 $-1 $446 $46 $-1 $447 forward single #
loop $-1 $-1 $448 $216 #
plane-surface $-1 -40.015869624927518 0 0 1 0 0 0 0 -1 forward_v I I I I #
coedge $-1 $449 $219 $221 $333 forward $137 $-1 #
coedge $-1 $219 $449 $448 $450 reversed $137 $-1 #
coedge $-1 $451 $222 $219 $330 forward $217 $-1 #
edge $-1 $336 6.7951689859847484 $452 24.412190087956763 $329 $453 forward 7 unknown #
coedge $-1 $454 $455 $220 $332 forward $446 $-1 #
edge $-1 $456 -10.059274685949603 $335 -6.793414167394058 $331 $457 forward 7 unknown #
edge $-1 $336 -35.625811086529474 $456 -31.007186794781564 $221 $458 forward 7 unknown #
coedge $-1 $222 $451 $454 $459 reversed $217 $-1 #
vertex $-1 $459 $460 #
vertex $-1 $223 $461 #
straight-curve $-1 -22.398848522955504 17.812905543264726 41.729581776113001 0 0 -1 I I #
coedge $-1 $338 $338 $-1 $462 reversed $226 $-1 #
edge $-1 $463 0 $463 6.2831853071796004 $227 $464 forward 7 unknown #
vertex $-1 $230 $465 #
ellipse-curve $-1 -34.982435024364086 16.179975283986952 3.3098560754311888 0 0.70710678939079041 0.70710677298230451 0.5 0 0 1 I I #
coedge $-1 $342 $342 $-1 $466 reversed $233 $-1 #
edge $-1 $467 0 $467 6.2831853071796004 $234 $468 forward 7 unknown #
vertex $-1 $237 $469 #
ellipse-curve $-1 -27.432283123518939 16.179975283986952 3.3098560754311888 0 0.70710678939079041 0.70710677298230451 0.5 0 0 1 I I #
face $-1 $-1 $470 $49 $-1 $471 reversed single #
loop $-1 $-1 $472 $238 #
plane-surface $-1 0 0 4.9427863726012715 0 0 1 1 0 0 forward_v I I I I #
coedge $-1 $350 $241 $243 $356 reversed $151 $-1 #
coedge $-1 $241 $349 $472 $473 reversed $151 $-1 #
coedge $-1 $474 $244 $241 $352 forward $239 $-1 #
edge $-1 $359 -40.052655997851907 $475 -36.786795403511732 $351 $476 forward 7 unknown #
coedge $-1 $243 $242 $477 $478 reversed $96 $-1 #
coedge $-1 $479 $480 $242 $355 forward $470 $-1 #
edge $-1 $481 18.899211528028658 $358 23.517835819776572 $354 $482 forward 7 unknown #
edge $-1 $483 31.007186794781564 $359 35.625811086529474 $349 $484 forward 7 unknown #
coedge $-1 $244 $474 $479 $485 forward $239 $-1 #
vertex $-1 $355 $486 #
vertex $-1 $245 $487 #
straight-curve $-1 15.603679536970752 17.812905543264726 1.6769257782610953 -1 0 0 I I #
coedge $-1 $361 $361 $-1 $488 reversed $248 $-1 #
edge $-1 $489 0 $489 6.2831853071796004 $249 $490 forward 7 unknown #
vertex $-1 $252 $491 #
ellipse-curve $-1 27.432283123518943 16.179975283986952 3.3098560754311888 0 0.70710678939079041 0.70710677298230451 0.5 0 0 1 I I #
coedge $-1 $365 $365 $-1 $492 reversed $255 $-1 #
edge $-1 $493 0 $493 6.2831853071796004 $256 $494 forward 7 unknown #
vertex $-1 $259 $495 #
ellipse-curve $-1 34.982435024364079 16.179975283986952 3.3098560754311888 0 0.70710678939079041 0.70710677298230451 0.5 0 0 1 I I #
face $-1 $-1 $275 $39 $-1 $496 reversed single #
loop $-1 $-1 $385 $260 #
plane-surface $-1 0 17.812905543264726 0 0 -1 0 0 0 -1 forward_v I I I I #
coedge $-1 $497 $383 $386 $498 forward $261 $-1 #
coedge $-1 $389 $263 $264 $377 reversed $165 $-1 #
coedge $-1 $383 $497 $263 $375 reversed $261 $-1 #
edge $-1 $390 -4.9427863726012715 $499 4.9427863726012715 $374 $500 forward 7 unknown #
coedge $-1 $265 $264 $497 $501 forward $105 $-1 #
edge $-1 $381 -40.015869624927518 $499 40.015869624927518 $373 $502 forward 7 unknown #
coedge $-1 $386 $385 $265 $379 reversed $370 $-1 #
edge $-1 $503 -40.015869624927518 $380 40.015869624927518 $378 $504 forward 7 unknown #
vertex $-1 $267 $505 #
vertex $-1 $392 $506 #
straight-curve $-1 40.015869624927518 0 -4.9427863726012715 0 -1 0 I I #
coedge $-1 $372 $374 $268 $384 reversed $261 $-1 #
edge $-1 $387 -17.812905543264726 $390 17.812905543264726 $383 $507 forward 7 unknown #
coedge $-1 $378 $269 $274 $393 forward $370 $-1 #
coedge $-1 $269 $378 $372 $498 reversed $370 $-1 #
vertex $-1 $270 $508 #
straight-curve $-1 0 17.812905543264726 4.9427863726012715 -1 0 0 I I #
coedge $-1 $271 $373 $273 $392 reversed $165 $-1 #
vertex $-1 $384 $509 #
straight-curve $-1 0 -17.812905543264726 4.9427863726012715 1 0 0 I I #
edge $-1 $276 -4.9427863726012715 $381 4.9427863726012715 $273 $510 forward 7 unknown #
edge $-1 $277 -4.9427863726012715 $380 4.9427863726012715 $274 $511 forward 7 unknown #
point $-1 40.015869624927518 -17.812905543264726 4.9427863726012715 #
point $-1 40.015869624927518 17.812905543264726 4.9427863726012715 #
loop $-1 $-1 $286 $279 #
plane-surface $-1 0 -17.812905543264726 0 0 1 0 0 0 1 forward_v I I I I #
coedge $-1 $512 $513 $283 $400 forward $280 $-1 #
coedge $-1 $283 $282 $405 $514 reversed $109 $-1 #
edge $-1 $402 1.0863059847639345 $515 5.7049302765118455 $398 $516 forward 7 unknown #
coedge $-1 $289 $284 $513 $517 forward $173 $-1 #
vertex $-1 $517 $518 #
straight-curve $-1 -15.603679536970755 -14.547045024709179 4.9427863726012706 -1 0 0 I I #
coedge $-1 $519 $286 $289 $409 reversed $396 $-1 #
coedge $-1 $286 $519 $399 $514 forward $396 $-1 #
vertex $-1 $287 $520 #
straight-curve $-1 -22.398848522955504 -17.812905543264726 29.13395532769367 0 0 1 I I #
straight-curve $-1 -22.398848522955504 -17.812905543264712 1.6769257782611078 0 -0.70710677298230451 -0.70710678939079041 I I #
edge $-1 $521 -40.015869624927518 $290 -22.398848522955504 $404 $522 forward 7 unknown #
point $-1 -22.398848522955504 -17.812905543264726 4.9427863726012715 #
point $-1 -22.398848522955504 -14.547045024709179 4.9427863726012715 #
edge $-1 $523 1 $523 0 $293 $-1 forward 7 unknown #
vertex $-1 $294 $524 #
ellipse-curve $-1 -34.982435024364086 -15.435039025868424 2.5649198345989768 0 -0.70710678939079041 0.70710677298230451 0.5 0 0 1 I I #
point $-1 -34.482435024364086 -16.179975283986959 3.3098560754311905 #
edge $-1 $525 1 $525 0 $297 $-1 forward 7 unknown #
vertex $-1 $298 $526 #
ellipse-curve $-1 -27.432283123518939 -15.435039025868424 2.5649198345989768 0 -0.70710678939079041 0.70710677298230451 0.5 0 0 1 I I #
point $-1 -26.932283123518939 -16.179975283986959 3.3098560754311905 #
loop $-1 $-1 $429 $301 #
plane-surface $-1 0 -17.812905543264726 0 0 1 0 0 0 1 forward_v I I I I #
coedge $-1 $423 $304 $312 $435 reversed $195 $-1 #
coedge $-1 $304 $422 $527 $528 forward $195 $-1 #
coedge $-1 $429 $529 $306 $425 forward $420 $-1 #
edge $-1 $427 24.191168955092397 $433 27.457029549432576 $424 $530 forward 7 unknown #
coedge $-1 $312 $307 $529 $531 forward $302 $-1 #
vertex $-1 $531 $532 #
straight-curve $-1 22.398848522955497 -37.201945866795306 4.9427863726012724 0 -1 0 I I #
coedge $-1 $527 $424 $309 $430 forward $420 $-1 #
edge $-1 $433 6.7951689859847448 $431 24.412190087956759 $429 $533 forward 7 unknown #
vertex $-1 $430 $534 #
straight-curve $-1 40.015869624927518 -13.77891070535139 5.7109207097836983 0 0.70710677298230462 0.70710678939079052 I I #
vertex $-1 $430 $535 #
straight-curve $-1 22.398848522955497 -17.812905543264712 1.6769257782611078 0 0.70710677298230451 0.70710678939079041 I I #
edge $-1 $536 -17.812905543264726 $313 -14.547045024709179 $422 $537 forward 7 unknown #
point $-1 40.015869624927511 -14.547045024709179 4.9427863726012715 #
point $-1 22.398848522955497 -14.547045024709179 4.9427863726012715 #
edge $-1 $538 1 $538 0 $316 $-1 forward 7 unknown #
vertex $-1 $317 $539 #
ellipse-curve $-1 27.432283123518943 -15.435039025868424 2.5649198345989768 0 -0.70710678939079041 0.70710677298230451 0.5 0 0 1 I I #
point $-1 27.932283123518943 -16.179975283986959 3.3098560754311905 #
edge $-1 $540 1 $540 0 $320 $-1 forward 7 unknown #
vertex $-1 $321 $541 #
ellipse-curve $-1 34.982435024364079 -15.435039025868424 2.5649198345989768 0 -0.70710678939079041 0.70710677298230451 0.5 0 0 1 I I #
point $-1 35.482435024364079 -16.179975283986959 3.3098560754311905 #
loop $-1 $-1 $331 $324 #
plane-surface $-1 0 0 4.9427863726012715 0 0 1 1 0 0 forward_v I I I I #
coedge $-1 $542 $543 $328 $450 forward $325 $-1 #
coedge $-1 $328 $327 $455 $544 reversed $137 $-1 #
edge $-1 $452 -23.517835819776572 $545 -18.899211528028658 $448 $546 forward 7 unknown #
coedge $-1 $334 $329 $543 $547 reversed $217 $-1 #
vertex $-1 $450 $548 #
straight-curve $-1 -15.603679536970755 17.812905543264726 1.6769257782610953 -1 0 0 I I #
coedge $-1 $549 $331 $334 $459 forward $446 $-1 #
coedge $-1 $331 $549 $449 $544 forward $446 $-1 #
vertex $-1 $332 $550 #
straight-curve $-1 -22.398848522955504 24.606319710658784 4.9427863726012689 0 1 0 I I #
straight-curve $-1 -22.398848522955504 -7.3783467690083313 26.86817867509977 0 -0.70710677298230451 0.70710678939079041 I I #
edge $-1 $335 22.398848522955504 $551 40.015869624927518 $334 $552 forward 7 unknown #
point $-1 -22.398848522955504 17.812905543264726 4.9427863726012715 #
point $-1 -22.398848522955504 17.812905543264726 1.6769257782610936 #
edge $-1 $553 1 $553 0 $338 $-1 forward 7 unknown #
vertex $-1 $339 $554 #
ellipse-curve $-1 -34.982435024364086 15.43503902586842 2.5649198345989803 0 0.70710678939079041 0.70710677298230451 0.5 0 0 1 I I #
point $-1 -34.482435024364086 16.179975283986956 3.3098560754311941 #
edge $-1 $555 1 $555 0 $342 $-1 forward 7 unknown #
vertex $-1 $343 $556 #
ellipse-curve $-1 -27.432283123518939 15.43503902586842 2.5649198345989803 0 0.70710678939079041 0.70710677298230451 0.5 0 0 1 I I #
point $-1 -26.932283123518939 16.179975283986956 3.3098560754311941 #
loop $-1 $-1 $354 $346 #
plane-surface $-1 40.015869624927518 0 0 -1 0 0 0 0 1 forward_v I I I I #
coedge $-1 $477 $557 $350 $473 forward $347 $-1 #
edge $-1 $475 6.793414167394058 $483 10.059274685949603 $472 $558 forward 7 unknown #
coedge $-1 $357 $351 $557 $559 reversed $239 $-1 #
vertex $-1 $473 $560 #
straight-curve $-1 22.398848522955497 17.812905543264726 41.729581776113001 0 0 1 I I #
coedge $-1 $561 $472 $353 $478 forward $347 $-1 #
edge $-1 $483 6.7951689859847448 $481 24.412190087956759 $477 $562 forward 7 unknown #
coedge $-1 $480 $354 $357 $485 reversed $470 $-1 #
coedge $-1 $354 $479 $561 $563 reversed $470 $-1 #
vertex $-1 $563 $564 #
straight-curve $-1 40.015869624927518 1.1832845492148669 18.306547158203031 0 0.70710677298230462 -0.70710678939079052 I I #
vertex $-1 $478 $565 #
straight-curve $-1 22.398848522955497 -7.3783467690083313 26.86817867509977 0 0.70710677298230451 -0.70710678939079041 I I #
edge $-1 $566 -4.9427863726012715 $358 -1.6769257782610936 $479 $567 forward 7 unknown #
point $-1 40.015869624927511 17.812905543264726 1.6769257782610936 #
point $-1 22.398848522955497 17.812905543264726 1.6769257782610936 #
edge $-1 $568 1 $568 0 $361 $-1 forward 7 unknown #
vertex $-1 $362 $569 #
ellipse-curve $-1 27.432283123518943 15.43503902586842 2.5649198345989803 0 0.70710678939079041 0.70710677298230451 0.5 0 0 1 I I #
point $-1 27.932283123518943 16.179975283986956 3.3098560754311941 #
edge $-1 $570 1 $570 0 $365 $-1 forward 7 unknown #
vertex $-1 $366 $571 #
ellipse-curve $-1 34.982435024364079 15.43503902586842 2.5649198345989803 0 0.70710678939079041 0.70710677298230451 0.5 0 0 1 I I #
point $-1 35.482435024364079 16.179975283986956 3.3098560754311941 #
plane-surface $-1 40.015869624927518 0 0 -1 0 0 0 0 1 forward_v I I I I #
coedge $-1 $374 $372 $376 $501 reversed $261 $-1 #
edge $-1 $387 -4.9427863726012715 $503 4.9427863726012715 $386 $572 forward 7 unknown #
vertex $-1 $501 $573 #
straight-curve $-1 -40.015869624927518 -17.812905543264726 0 0 0 -1 I I #
edge $-1 $499 -17.812905543264726 $503 17.812905543264726 $497 $574 forward 7 unknown #
straight-curve $-1 0 -17.812905543264726 -4.9427863726012715 -1 0 0 I I #
vertex $-1 $379 $575 #
straight-curve $-1 0 17.812905543264726 -4.9427863726012715 1 0 0 I I #
point $-1 40.015869624927518 17.812905543264726 -4.9427863726012715 #
point $-1 40.015869624927518 -17.812905543264726 -4.9427863726012715 #
straight-curve $-1 -40.015869624927518 0 4.9427863726012715 0 -1 0 I I #
point $-1 -40.015869624927518 17.812905543264726 4.9427863726012715 #
point $-1 -40.015869624927518 -17.812905543264726 4.9427863726012715 #
straight-curve $-1 40.015869624927518 -17.812905543264726 0 0 0 -1 I I #
straight-curve $-1 40.015869624927518 17.812905543264726 0 0 0 -1 I I #
coedge $-1 $513 $398 $519 $576 reversed $280 $-1 #
coedge $-1 $398 $512 $401 $517 reversed $280 $-1 #
edge $-1 $515 -24.412190087956763 $406 -6.7951689859847484 $405 $577 forward 7 unknown #
vertex $-1 $400 $578 #
straight-curve $-1 -40.015869624927518 -13.77891070535139 5.7109207097836983 0 -0.70710677298230462 -0.70710678939079052 I I #
edge $-1 $402 14.547045024709179 $521 17.812905543264726 $513 $579 forward 7 unknown #
point $-1 -40.015869624927518 -14.547045024709179 4.9427863726012715 #
coedge $-1 $405 $404 $512 $576 forward $396 $-1 #
point $-1 -22.398848522955504 -17.812905543264726 1.6769257782610936 #
vertex $-1 $517 $580 #
straight-curve $-1 0 -17.812905543264726 4.9427863726012715 1 0 0 I I #
vertex $-1 $412 $581 #
point $-1 -34.482435024364086 -15.435039025868424 2.5649198345989768 #
vertex $-1 $416 $582 #
point $-1 -26.932283123518939 -15.435039025868424 2.5649198345989768 #
coedge $-1 $529 $429 $423 $528 reversed $420 $-1 #
edge $-1 $536 -4.9427863726012715 $431 -1.6769257782610936 $423 $583 forward 7 unknown #
coedge $-1 $424 $527 $426 $531 reversed $420 $-1 #
straight-curve $-1 22.398848522955497 -17.812905543264726 29.13395532769367 0 0 -1 I I #
edge $-1 $427 22.398848522955497 $536 40.015869624927518 $529 $584 forward 7 unknown #
point $-1 22.398848522955497 -17.812905543264726 4.9427863726012715 #
straight-curve $-1 15.603679536970752 -17.812905543264726 1.6769257782610938 1 0 0 I I #
point $-1 40.015869624927511 -17.812905543264726 1.6769257782610936 #
point $-1 22.398848522955497 -17.812905543264726 1.6769257782610936 #
vertex $-1 $435 $585 #
straight-curve $-1 40.015869624927518 0 4.9427863726012715 0 1 0 I I #
vertex $-1 $438 $586 #
point $-1 27.932283123518943 -15.435039025868424 2.5649198345989768 #
vertex $-1 $442 $587 #
point $-1 35.482435024364079 -15.435039025868424 2.5649198345989768 #
coedge $-1 $543 $448 $549 $588 reversed $325 $-1 #
coedge $-1 $448 $542 $451 $547 forward $325 $-1 #
edge $-1 $545 -24.412190087956763 $456 -6.7951689859847484 $455 $589 forward 7 unknown #
vertex $-1 $450 $590 #
straight-curve $-1 -40.015869624927518 1.1832845492148669 18.306547158203031 0 -0.70710677298230462 0.70710678939079052 I I #
edge $-1 $551 -4.9427863726012715 $452 -1.6769257782610945 $451 $591 forward 7 unknown #
point $-1 -40.015869624927518 17.812905543264726 1.6769257782610945 #
coedge $-1 $455 $454 $542 $588 forward $446 $-1 #
point $-1 -22.398848522955504 14.547045024709181 4.9427863726012724 #
vertex $-1 $459 $592 #
straight-curve $-1 0 17.812905543264726 4.9427863726012715 -1 0 0 I I #
vertex $-1 $462 $593 #
point $-1 -34.482435024364086 15.43503902586842 2.5649198345989803 #
vertex $-1 $466 $594 #
point $-1 -26.932283123518939 15.43503902586842 2.5649198345989803 #
coedge $-1 $472 $561 $474 $559 forward $347 $-1 #
straight-curve $-1 22.398848522955497 24.606319710658784 4.9427863726012689 0 -1 0 I I #
edge $-1 $566 -40.015869624927518 $475 -22.398848522955497 $474 $595 forward 7 unknown #
point $-1 22.398848522955497 17.812905543264726 4.9427863726012715 #
coedge $-1 $557 $477 $480 $563 forward $347 $-1 #
straight-curve $-1 15.603679536970752 14.547045024709179 4.9427863726012689 1 0 0 I I #
edge $-1 $481 14.547045024709181 $566 17.812905543264726 $480 $596 forward 7 unknown #
point $-1 40.015869624927511 14.547045024709181 4.9427863726012724 #
point $-1 22.398848522955497 14.547045024709181 4.9427863726012724 #
vertex $-1 $563 $597 #
straight-curve $-1 40.015869624927518 17.812905543264726 0 0 0 -1 I I #
vertex $-1 $488 $598 #
point $-1 27.932283123518943 15.43503902586842 2.5649198345989803 #
vertex $-1 $492 $599 #
point $-1 35.482435024364079 15.43503902586842 2.5649198345989803 #
straight-curve $-1 -40.015869624927518 17.812905543264726 0 0 0 -1 I I #
point $-1 -40.015869624927518 -17.812905543264726 -4.9427863726012715 #
straight-curve $-1 -40.015869624927518 0 -4.9427863726012715 0 1 0 I I #
point $-1 -40.015869624927518 17.812905543264726 -4.9427863726012715 #
edge $-1 $521 -4.9427863726012715 $515 -1.6769257782610936 $512 $600 forward 7 unknown #
straight-curve $-1 -15.603679536970755 -17.812905543264726 1.6769257782610938 1 0 0 I I #
point $-1 -40.015869624927518 -17.812905543264726 1.6769257782610936 #
straight-curve $-1 -40.015869624927518 0 4.9427863726012715 0 -1 0 I I #
point $-1 -40.015869624927518 -17.812905543264726 4.9427863726012715 #
point $-1 -34.982435024364086 -15.081485631173027 2.2113664481078241 #
point $-1 -27.432283123518939 -15.081485631173027 2.2113664481078241 #
straight-curve $-1 40.015869624927518 -17.812905543264726 0 0 0 -1 I I #
straight-curve $-1 0 -17.812905543264726 4.9427863726012715 1 0 0 I I #
point $-1 40.015869624927518 -17.812905543264726 4.9427863726012715 #
point $-1 27.432283123518943 -15.081485631173027 2.2113664481078241 #
point $-1 34.982435024364079 -15.081485631173027 2.2113664481078241 #
edge $-1 $551 -17.812905543264726 $545 -14.547045024709181 $542 $601 forward 7 unknown #
straight-curve $-1 -15.603679536970755 14.547045024709179 4.9427863726012689 1 0 0 I I #
point $-1 -40.015869624927518 14.547045024709181 4.9427863726012724 #
straight-curve $-1 -40.015869624927518 17.812905543264726 0 0 0 -1 I I #
point $-1 -40.015869624927518 17.812905543264726 4.9427863726012715 #
point $-1 -34.982435024364086 15.081485631173024 2.2113664481078277 #
point $-1 -27.432283123518939 15.081485631173024 2.2113664481078277 #
straight-curve $-1 0 17.812905543264726 4.9427863726012715 -1 0 0 I I #
straight-curve $-1 40.015869624927518 0 4.9427863726012715 0 1 0 I I #
point $-1 40.015869624927518 17.812905543264726 4.9427863726012715 #
point $-1 27.432283123518943 15.081485631173024 2.2113664481078277 #
point $-1 34.982435024364079 15.081485631173024 2.2113664481078277 #
straight-curve $-1 -40.015869624927518 -17.812905543264726 0 0 0 -1 I I #
straight-curve $-1 -40.015869624927518 0 4.9427863726012715 0 -1 0 I I #
End-of-ACIS-data 