500 0 10 0           
7 Unknown 11 ACIS 5.0 NT 24 Thu Mar 25 15:46:30 1999 
-1 9.9999999999999995e-007 1e-010 
body $-1 $10 $-1 $11 #
body $-1 $12 $-1 $13 #
body $-1 $14 $-1 $15 #
body $-1 $16 $-1 $17 #
body $-1 $18 $-1 $19 #
body $-1 $20 $-1 $21 #
body $-1 $22 $-1 $23 #
body $-1 $24 $-1 $25 #
body $-1 $26 $-1 $27 #
body $-1 $28 $-1 $29 #
lump $-1 $-1 $30 $0 #
transform $-1 1 0 0 0 1 0 0 0 1 51.073335978270819 27.177804359615511 9.1901239077418087 1 rotate no_reflect no_shear #
lump $-1 $-1 $31 $1 #
transform $-1 1 0 0 0 1 0 0 0 1 51.073335978270819 27.177804359615511 9.1901239077418087 1 rotate no_reflect no_shear #
lump $-1 $-1 $32 $2 #
transform $-1 1 0 0 0 1 0 0 0 1 51.073335978270819 27.177804359615511 9.1901239077418087 1 rotate no_reflect no_shear #
lump $-1 $-1 $33 $3 #
transform $-1 1 0 0 0 1 0 0 0 1 51.073335978270819 27.177804359615511 9.1901239077418087 1 rotate no_reflect no_shear #
lump $-1 $-1 $34 $4 #
transform $-1 1 0 0 0 1 0 0 0 1 51.073335978270819 27.177804359615511 9.1901239077418087 1 rotate no_reflect no_shear #
lump $-1 $-1 $35 $5 #
transform $-1 1 0 0 0 1 0 0 0 1 51.073335978270819 27.177804359615511 9.1901239077418087 1 rotate no_reflect no_shear #
lump $-1 $-1 $36 $6 #
transform $-1 1 0 0 0 1 0 0 0 1 51.073335978270819 27.177804359615511 9.1901239077418087 1 rotate no_reflect no_shear #
lump $-1 $-1 $37 $7 #
transform $-1 1 0 0 0 1 0 0 0 1 51.073335978270819 27.177804359615511 9.1901239077418087 1 rotate no_reflect no_shear #
lump $-1 $-1 $38 $8 #
transform $-1 1 0 0 0 1 0 0 0 1 51.073335978270819 27.177804359615511 9.1901239077418087 1 rotate no_reflect no_shear #
lump $-1 $-1 $39 $9 #
transform $-1 1 0 0 0 1 0 0 0 1 51.073335978270819 27.177804359615511 9.1901239077418087 1 rotate no_reflect no_shear #
shell $-1 $-1 $-1 $40 $-1 $10 #
shell $-1 $-1 $-1 $41 $-1 $12 #
shell $-1 $-1 $-1 $42 $-1 $14 #
shell $-1 $-1 $-1 $43 $-1 $16 #
shell $-1 $-1 $-1 $44 $-1 $18 #
shell $-1 $-1 $-1 $45 $-1 $20 #
shell $-1 $-1 $-1 $46 $-1 $22 #
shell $-1 $-1 $-1 $47 $-1 $24 #
shell $-1 $-1 $-1 $48 $-1 $26 #
shell $-1 $-1 $-1 $49 $-1 $28 #
face $-1 $50 $51 $30 $-1 $52 forward single #
face $-1 $53 $54 $31 $-1 $55 forward single #
face $-1 $56 $57 $32 $-1 $58 forward single #
face $-1 $59 $60 $33 $-1 $61 reversed single #
face $-1 $62 $63 $34 $-1 $64 forward single #
face $-1 $65 $66 $35 $-1 $67 forward single #
face $-1 $68 $69 $36 $-1 $70 forward single #
face $-1 $71 $72 $37 $-1 $73 reversed single #
face $-1 $74 $75 $38 $-1 $76 forward single #
face $-1 $77 $78 $39 $-1 $79 forward single #
face $-1 $80 $81 $30 $-1 $82 reversed single #
loop $-1 $-1 $83 $40 #
plane-surface $-1 0 0 9.1901239077418087 0 0 1 1 0 0 forward_v I I I I #
face $-1 $84 $85 $31 $-1 $86 reversed single #
loop $-1 $-1 $87 $41 #
plane-surface $-1 0 -27.177804359615511 0 0 1 0 0 0 1 forward_v I I I I #
face $-1 $88 $89 $32 $-1 $90 reversed single #
loop $-1 $-1 $91 $42 #
plane-surface $-1 0 27.177804359615511 0 0 -1 0 0 0 -1 forward_v I I I I #
face $-1 $92 $93 $33 $-1 $94 reversed single #
loop $-1 $-1 $95 $43 #
plane-surface $-1 -123.30194123241527 5.5533135411277783 77.201558738672688 0 1 0 -0.70710678939079041 0 0.70710677298230451 forward_v I I I I #
face $-1 $96 $97 $34 $-1 $98 forward single #
loop $-1 $99 $100 $44 #
cone-surface $-1 -48.611198258934671 6.9798066122418341 6.7279861476799852 0.70710678939079041 0 -0.70710677298230451 0.35355338649115226 0 0.35355339469539521 1 I I 0 1 0.5 forward I I I I #
face $-1 $101 $102 $35 $-1 $103 forward single #
loop $-1 $104 $105 $45 #
cone-surface $-1 -48.611198258934671 9.1195462189129266 6.7279861476799852 0.70710678939079041 0 -0.70710677298230451 0.35355338649115226 0 0.35355339469539521 1 I I 0 1 0.5 forward I I I I #
face $-1 $106 $107 $36 $-1 $108 forward single #
loop $-1 $109 $110 $46 #
cone-surface $-1 -48.611198258934671 11.259285825584012 6.7279861476799852 0.70710678939079041 0 -0.70710677298230451 0.35355338649115226 0 0.35355339469539521 1 I I 0 1 0.5 forward I I I I #
face $-1 $111 $112 $37 $-1 $113 reversed single #
loop $-1 $-1 $114 $47 #
plane-surface $-1 78.637072917902941 18.281443560518635 144.93983998537291 0 -1 0 -0.82903758062907751 0 -0.55919289150049634 forward_v I I I I #
face $-1 $115 $116 $38 $-1 $117 forward single #
loop $-1 $118 $119 $48 #
cone-surface $-1 47.801626755289284 11.139436575823108 5.3336590640116404 -0.82903758062907751 0 -0.55919289150049634 0.55919289150049634 0 -0.82903758062907751 1 I I 0 1 1 forward I I I I #
face $-1 $120 $121 $39 $-1 $122 forward single #
loop $-1 $123 $124 $49 #
cone-surface $-1 47.801626755289284 15.424640766640426 5.3336590640116404 -0.82903758062907751 0 -0.55919289150049634 0.55919289150049634 0 -0.82903758062907751 1 I I 0 1 1 forward I I I I #
face $-1 $125 $126 $30 $-1 $127 reversed single #
loop $-1 $-1 $128 $50 #
plane-surface $-1 0 0 -9.1901239077418087 0 0 1 1 0 0 forward_v I I I I #
coedge $-1 $129 $130 $131 $132 forward $51 $-1 #
face $-1 $133 $134 $31 $-1 $135 forward single #
loop $-1 $-1 $136 $53 #
plane-surface $-1 -51.073335978270819 0 0 1 0 0 0 0 -1 forward_v I I I I #
coedge $-1 $137 $138 $139 $140 forward $54 $-1 #
face $-1 $141 $142 $32 $-1 $143 forward single #
loop $-1 $-1 $144 $56 #
plane-surface $-1 51.073335978270819 0 0 -1 0 0 0 0 1 forward_v I I I I #
coedge $-1 $145 $146 $147 $148 forward $57 $-1 #
face $-1 $149 $150 $33 $-1 $151 reversed single #
loop $-1 $-1 $152 $59 #
plane-surface $-1 -51.073335978270833 9.1195462189129266 4.9729551606004634 -0.70710678939079041 0 0.70710677298230451 0.70710677298230451 0 0.70710678939079041 forward_v I I I I #
coedge $-1 $153 $154 $155 $156 reversed $60 $-1 #
face $-1 $-1 $157 $34 $-1 $158 forward single #
loop $-1 $159 $160 $62 #
cone-surface $-1 -48.080868166891577 6.9798066122418341 6.1976560679432566 0.70710678939079041 0 -0.70710677298230451 0.17677669324557613 0 0.1767766973476976 1 I I -0.70710678118654746 0.70710678118654746 0.25 forward I I I I #
loop $-1 $-1 $161 $44 #
coedge $-1 $100 $100 $162 $163 reversed $63 $-1 #
face $-1 $-1 $164 $35 $-1 $165 forward single #
loop $-1 $166 $167 $65 #
cone-surface $-1 -48.080868166891577 9.1195462189129266 6.1976560679432566 0.70710678939079041 0 -0.70710677298230451 0.17677669324557613 0 0.1767766973476976 1 I I -0.70710678118654746 0.70710678118654746 0.25 forward I I I I #
loop $-1 $-1 $168 $45 #
coedge $-1 $105 $105 $169 $170 reversed $66 $-1 #
face $-1 $-1 $171 $36 $-1 $172 forward single #
loop $-1 $173 $174 $68 #
cone-surface $-1 -48.080868166891577 11.259285825584012 6.1976560679432566 0.70710678939079041 0 -0.70710677298230451 0.17677669324557613 0 0.1767766973476976 1 I I -0.70710678118654746 0.70710678118654746 0.25 forward I I I I #
loop $-1 $-1 $175 $46 #
coedge $-1 $110 $110 $176 $177 reversed $69 $-1 #
face $-1 $178 $179 $37 $-1 $180 reversed single #
loop $-1 $-1 $181 $71 #
plane-surface $-1 -6.0463568702603823 13.282038671231764 87.82014713684174 0.82903758062907751 0 0.55919289150049634 0.55919289150049634 0 -0.82903758062907751 forward_v I I I I #
coedge $-1 $182 $183 $184 $185 reversed $72 $-1 #
face $-1 $-1 $186 $38 $-1 $187 forward single #
loop $-1 $188 $189 $74 #
cone-surface $-1 46.156935818407874 11.139436575823108 4.2243010540629182 -0.82903758062907751 0 -0.55919289150049634 0.27959644575024817 0 -0.41451879031453875 1 I I -0.70710678118654746 0.70710678118654746 0.5 forward I I I I #
loop $-1 $-1 $190 $48 #
coedge $-1 $119 $119 $191 $192 reversed $75 $-1 #
face $-1 $-1 $193 $39 $-1 $194 forward single #
loop $-1 $195 $196 $77 #
cone-surface $-1 46.156935818407874 15.424640766640426 4.2243010540629182 -0.82903758062907751 0 -0.55919289150049634 0.27959644575024817 0 -0.41451879031453875 1 I I -0.70710678118654746 0.70710678118654746 0.5 forward I I I I #
loop $-1 $-1 $197 $49 #
coedge $-1 $124 $124 $198 $199 reversed $78 $-1 #
face $-1 $200 $201 $30 $-1 $202 reversed single #
loop $-1 $-1 $203 $80 #
plane-surface $-1 0 -27.177804359615511 0 0 1 0 0 0 1 forward_v I I I I #
coedge $-1 $204 $205 $206 $207 forward $81 $-1 #
coedge $-1 $208 $83 $209 $210 forward $51 $-1 #
coedge $-1 $83 $208 $211 $212 forward $51 $-1 #
coedge $-1 $213 $214 $83 $132 reversed $215 $-1 #
edge $-1 $216 -27.177804359615511 $217 27.177804359615511 $131 $218 forward 7 unknown #
face $-1 $219 $220 $31 $-1 $221 reversed single #
loop $-1 $-1 $222 $84 #
plane-surface $-1 0 -31.625984759163945 -5.1769000367450806 0 0 1 1 0 0 forward_v I I I I #
coedge $-1 $223 $224 $138 $225 forward $85 $-1 #
coedge $-1 $226 $87 $227 $228 reversed $54 $-1 #
coedge $-1 $87 $226 $136 $225 reversed $54 $-1 #
coedge $-1 $229 $222 $87 $140 reversed $134 $-1 #
edge $-1 $230 -51.073335978270819 $231 51.073335978270819 $139 $232 forward 7 unknown #
face $-1 $233 $234 $32 $-1 $235 reversed single #
loop $-1 $-1 $236 $88 #
plane-surface $-1 0 31.625984759163945 -5.1769000367450806 0 0 1 1 0 0 forward_v I I I I #
coedge $-1 $237 $238 $146 $239 forward $89 $-1 #
coedge $-1 $240 $91 $241 $242 reversed $57 $-1 #
coedge $-1 $91 $240 $144 $239 reversed $57 $-1 #
coedge $-1 $236 $243 $91 $148 reversed $142 $-1 #
edge $-1 $244 -51.073335978270819 $245 51.073335978270819 $147 $246 forward 7 unknown #
face $-1 $247 $248 $33 $-1 $249 reversed single #
loop $-1 $-1 $250 $92 #
plane-surface $-1 -123.30194123241527 12.685778896698075 77.201558738672688 0 -1 0 0.70710678939079041 0 -0.70710677298230451 forward_v I I I I #
coedge $-1 $251 $252 $253 $254 reversed $93 $-1 #
coedge $-1 $154 $95 $255 $256 reversed $60 $-1 #
coedge $-1 $95 $153 $251 $257 reversed $60 $-1 #
coedge $-1 $253 $258 $95 $156 forward $259 $-1 #
edge $-1 $260 10.577634637936818 $261 14.794803287218315 $155 $262 forward 7 unknown #
loop $-1 $-1 $162 $96 #
plane-surface $-1 -51.073335978270833 9.1195462189129266 4.9729551606004634 -0.70710678939079041 0 0.70710677298230451 0.70710677298230451 0 0.70710678939079041 forward_v I I I I #
loop $-1 $-1 $263 $62 #
coedge $-1 $160 $160 $161 $264 reversed $97 $-1 #
coedge $-1 $161 $161 $160 $264 forward $99 $-1 #
coedge $-1 $162 $162 $100 $163 forward $157 $-1 #
edge $-1 $265 0 $265 6.2831853071796004 $162 $266 forward 7 unknown #
loop $-1 $-1 $169 $101 #
plane-surface $-1 -51.073335978270833 9.1195462189129266 4.9729551606004634 -0.70710678939079041 0 0.70710677298230451 0.70710677298230451 0 0.70710678939079041 forward_v I I I I #
loop $-1 $-1 $267 $65 #
coedge $-1 $167 $167 $168 $268 reversed $102 $-1 #
coedge $-1 $168 $168 $167 $268 forward $104 $-1 #
coedge $-1 $169 $169 $105 $170 forward $164 $-1 #
edge $-1 $269 0 $269 6.2831853071796004 $169 $270 forward 7 unknown #
loop $-1 $-1 $176 $106 #
plane-surface $-1 -51.073335978270833 9.1195462189129266 4.9729551606004634 -0.70710678939079041 0 0.70710677298230451 0.70710677298230451 0 0.70710678939079041 forward_v I I I I #
loop $-1 $-1 $271 $68 #
coedge $-1 $174 $174 $175 $272 reversed $107 $-1 #
coedge $-1 $175 $175 $174 $272 forward $109 $-1 #
coedge $-1 $176 $176 $110 $177 forward $171 $-1 #
edge $-1 $273 0 $273 6.2831853071796004 $176 $274 forward 7 unknown #
face $-1 $275 $276 $37 $-1 $277 forward single #
loop $-1 $-1 $278 $111 #
plane-surface $-1 78.637072917902941 8.2826337819448916 144.93983998537291 0 1 0 0.82903758062907751 0 0.55919289150049634 forward_v I I I I #
coedge $-1 $279 $280 $281 $282 reversed $112 $-1 #
coedge $-1 $183 $114 $283 $284 reversed $72 $-1 #
coedge $-1 $114 $182 $279 $285 reversed $72 $-1 #
coedge $-1 $281 $286 $114 $185 forward $276 $-1 #
edge $-1 $287 -11.754799519319349 $288 -7.6717253664900227 $184 $289 forward 7 unknown #
loop $-1 $-1 $191 $115 #
plane-surface $-1 -6.0463568702603823 13.282038671231764 87.82014713684174 0.82903758062907751 0 0.55919289150049634 0.55919289150049634 0 -0.82903758062907751 forward_v I I I I #
loop $-1 $-1 $290 $74 #
coedge $-1 $189 $189 $190 $291 reversed $116 $-1 #
coedge $-1 $190 $190 $189 $291 forward $118 $-1 #
coedge $-1 $191 $191 $119 $192 forward $186 $-1 #
edge $-1 $292 0 $292 6.2831853071796004 $191 $293 forward 7 unknown #
loop $-1 $-1 $198 $120 #
plane-surface $-1 -6.0463568702603823 13.282038671231764 87.82014713684174 0.82903758062907751 0 0.55919289150049634 0.55919289150049634 0 -0.82903758062907751 forward_v I I I I #
loop $-1 $-1 $294 $77 #
coedge $-1 $196 $196 $197 $295 reversed $121 $-1 #
coedge $-1 $197 $197 $196 $295 forward $123 $-1 #
coedge $-1 $198 $198 $124 $199 forward $193 $-1 #
edge $-1 $296 0 $296 6.2831853071796004 $198 $297 forward 7 unknown #
face $-1 $298 $299 $30 $-1 $300 reversed single #
loop $-1 $-1 $301 $125 #
plane-surface $-1 -51.073335978270819 0 0 1 0 0 0 0 -1 forward_v I I I I #
coedge $-1 $302 $211 $303 $304 forward $126 $-1 #
coedge $-1 $305 $128 $302 $306 forward $81 $-1 #
coedge $-1 $128 $305 $307 $308 forward $81 $-1 #
coedge $-1 $214 $213 $128 $207 reversed $215 $-1 #
edge $-1 $309 -27.177804359615511 $310 27.177804359615511 $206 $311 forward 7 unknown #
coedge $-1 $130 $129 $312 $313 forward $51 $-1 #
coedge $-1 $314 $315 $129 $210 reversed $299 $-1 #
edge $-1 $217 -51.073335978270819 $316 51.073335978270819 $209 $317 forward 7 unknown #
coedge $-1 $203 $318 $130 $212 reversed $126 $-1 #
edge $-1 $319 -51.073335978270819 $216 51.073335978270819 $211 $320 forward 7 unknown #
coedge $-1 $206 $131 $318 $321 forward $215 $-1 #
coedge $-1 $131 $206 $314 $322 reversed $215 $-1 #
loop $-1 $-1 $213 $298 #
vertex $-1 $132 $323 #
vertex $-1 $132 $324 #
straight-curve $-1 51.073335978270819 0 9.1901239077418087 0 1 0 I I #
face $-1 $325 $326 $31 $-1 $327 reversed single #
loop $-1 $-1 $328 $133 #
plane-surface $-1 0 -31.625984759163945 -8.3613998345075267 0 0 1 1 0 0 forward_v I I I I #
coedge $-1 $139 $329 $330 $331 forward $134 $-1 #
coedge $-1 $332 $136 $333 $334 reversed $85 $-1 #
coedge $-1 $136 $332 $229 $335 reversed $85 $-1 #
edge $-1 $230 5.1769000367450806 $336 8.3613998345075267 $136 $337 forward 7 unknown #
coedge $-1 $138 $137 $338 $339 forward $54 $-1 #
coedge $-1 $330 $340 $137 $228 forward $341 $-1 #
edge $-1 $342 -8.3613998345075267 $231 -5.1769000367450806 $227 $343 forward 7 unknown #
coedge $-1 $329 $139 $224 $335 forward $134 $-1 #
vertex $-1 $225 $344 #
vertex $-1 $331 $345 #
straight-curve $-1 0 -27.177804359615511 -5.1769000367450806 1 0 0 I I #
face $-1 $346 $347 $32 $-1 $348 reversed single #
loop $-1 $-1 $349 $141 #
plane-surface $-1 0 31.625984759163945 -8.3613998345075267 0 0 1 1 0 0 forward_v I I I I #
coedge $-1 $350 $147 $238 $351 forward $142 $-1 #
coedge $-1 $352 $144 $349 $353 reversed $89 $-1 #
coedge $-1 $144 $352 $236 $351 reversed $89 $-1 #
edge $-1 $244 5.1769000367450806 $354 8.3613998345075267 $144 $355 forward 7 unknown #
coedge $-1 $146 $145 $356 $357 forward $57 $-1 #
coedge $-1 $358 $359 $145 $242 forward $360 $-1 #
edge $-1 $361 -8.3613998345075267 $245 -5.1769000367450806 $241 $362 forward 7 unknown #
coedge $-1 $147 $350 $358 $363 forward $142 $-1 #
vertex $-1 $239 $364 #
vertex $-1 $363 $365 #
straight-curve $-1 0 27.177804359615511 -5.1769000367450806 -1 0 0 I I #
face $-1 $-1 $259 $33 $-1 $366 forward single #
loop $-1 $-1 $367 $149 #
plane-surface $-1 -51.073335978270819 0 0 1 0 0 0 0 -1 forward_v I I I I #
coedge $-1 $368 $369 $370 $371 reversed $150 $-1 #
coedge $-1 $372 $152 $154 $257 forward $93 $-1 #
coedge $-1 $152 $372 $368 $373 forward $93 $-1 #
coedge $-1 $370 $155 $152 $254 forward $259 $-1 #
edge $-1 $261 0.99354043167131501 $374 8.1260057872416116 $253 $375 forward 7 unknown #
coedge $-1 $376 $377 $153 $256 forward $248 $-1 #
edge $-1 $378 -33.627824208735866 $260 -29.410655461594537 $255 $379 forward 7 unknown #
edge $-1 $261 -5.9639771678258944 $378 -2.0097183471152325e-014 $154 $380 forward 7 unknown #
coedge $-1 $155 $370 $376 $381 forward $259 $-1 #
loop $-1 $-1 $370 $247 #
vertex $-1 $256 $382 #
vertex $-1 $156 $383 #
straight-curve $-1 -61.650970616207637 5.5533135411277783 9.1901239077418069 1 0 0 I I #
coedge $-1 $263 $263 $-1 $384 reversed $159 $-1 #
edge $-1 $385 0 $385 6.2831853071796004 $160 $386 forward 7 unknown #
vertex $-1 $163 $387 #
ellipse-curve $-1 -48.964751653630074 6.9798066122418341 7.0815395341711431 -0.70710678939079041 0 0.70710677298230451 0.35355338649115226 0 0.35355339469539521 1 I I #
coedge $-1 $267 $267 $-1 $388 reversed $166 $-1 #
edge $-1 $389 0 $389 6.2831853071796004 $167 $390 forward 7 unknown #
vertex $-1 $170 $391 #
ellipse-curve $-1 -48.964751653630074 9.1195462189129266 7.0815395341711431 -0.70710678939079041 0 0.70710677298230451 0.35355338649115226 0 0.35355339469539521 1 I I #
coedge $-1 $271 $271 $-1 $392 reversed $173 $-1 #
edge $-1 $393 0 $393 6.2831853071796004 $174 $394 forward 7 unknown #
vertex $-1 $177 $395 #
ellipse-curve $-1 -48.964751653630074 11.259285825584012 7.0815395341711431 -0.70710678939079041 0 0.70710677298230451 0.35355338649115226 0 0.35355339469539521 1 I I #
face $-1 $-1 $396 $37 $-1 $397 reversed single #
loop $-1 $-1 $184 $178 #
plane-surface $-1 0 0 9.1901239077418087 0 0 1 1 0 0 forward_v I I I I #
coedge $-1 $398 $399 $400 $401 reversed $179 $-1 #
coedge $-1 $402 $181 $183 $285 forward $112 $-1 #
coedge $-1 $181 $402 $398 $403 forward $112 $-1 #
coedge $-1 $400 $184 $181 $282 forward $276 $-1 #
edge $-1 $288 -11.640424224902754 $404 -1.6416144463290099 $281 $405 forward 7 unknown #
coedge $-1 $406 $407 $182 $284 forward $396 $-1 #
edge $-1 $408 -69.333202644008068 $287 -63.27979608494465 $283 $409 forward 7 unknown #
edge $-1 $288 94.844944386519984 $408 102.14667195654168 $183 $410 forward 7 unknown #
coedge $-1 $184 $400 $406 $411 forward $276 $-1 #
vertex $-1 $284 $412 #
vertex $-1 $185 $413 #
straight-curve $-1 39.318536458951471 18.281443560518635 9.1901239077418069 -1 0 0 I I #
coedge $-1 $290 $290 $-1 $414 reversed $188 $-1 #
edge $-1 $415 0 $415 6.2831853071796004 $189 $416 forward 7 unknown #
vertex $-1 $192 $417 #
ellipse-curve $-1 49.031798901856149 11.139436575823108 6.1634206282101101 0.82903758062907751 0 0.55919289150049634 0.55919289150049634 0 -0.82903758062907751 1 I I #
coedge $-1 $294 $294 $-1 $418 reversed $195 $-1 #
edge $-1 $419 0 $419 6.2831853071796004 $196 $420 forward 7 unknown #
vertex $-1 $199 $421 #
ellipse-curve $-1 49.031798901856149 15.424640766640426 6.1634206282101101 0.82903758062907751 0 0.55919289150049634 0.55919289150049634 0 -0.82903758062907751 1 I I #
face $-1 $-1 $215 $30 $-1 $422 reversed single #
loop $-1 $-1 $315 $200 #
plane-surface $-1 0 27.177804359615511 0 0 -1 0 0 0 -1 forward_v I I I I #
coedge $-1 $423 $312 $315 $424 forward $201 $-1 #
coedge $-1 $318 $203 $204 $306 reversed $126 $-1 #
coedge $-1 $312 $423 $203 $304 reversed $201 $-1 #
edge $-1 $319 -9.1901239077418087 $425 9.1901239077418087 $303 $426 forward 7 unknown #
coedge $-1 $205 $204 $423 $427 forward $81 $-1 #
edge $-1 $310 -51.073335978270819 $425 51.073335978270819 $302 $428 forward 7 unknown #
coedge $-1 $315 $314 $205 $308 reversed $299 $-1 #
edge $-1 $429 -51.073335978270819 $309 51.073335978270819 $307 $430 forward 7 unknown #
vertex $-1 $207 $431 #
vertex $-1 $321 $432 #
straight-curve $-1 51.073335978270819 0 -9.1901239077418087 0 -1 0 I I #
coedge $-1 $301 $303 $208 $313 reversed $201 $-1 #
edge $-1 $316 -27.177804359615511 $319 27.177804359615511 $312 $433 forward 7 unknown #
coedge $-1 $307 $209 $214 $322 forward $299 $-1 #
coedge $-1 $209 $307 $301 $424 reversed $299 $-1 #
vertex $-1 $210 $434 #
straight-curve $-1 0 27.177804359615511 9.1901239077418087 -1 0 0 I I #
coedge $-1 $211 $302 $213 $321 reversed $126 $-1 #
vertex $-1 $313 $435 #
straight-curve $-1 0 -27.177804359615511 9.1901239077418087 1 0 0 I I #
edge $-1 $216 -9.1901239077418087 $310 9.1901239077418087 $213 $436 forward 7 unknown #
edge $-1 $217 -9.1901239077418087 $309 9.1901239077418087 $214 $437 forward 7 unknown #
point $-1 51.073335978270819 -27.177804359615511 9.1901239077418087 #
point $-1 51.073335978270819 27.177804359615511 9.1901239077418087 #
face $-1 $-1 $341 $31 $-1 $438 reversed single #
loop $-1 $-1 $439 $219 #
plane-surface $-1 0 -36.074165158712376 -6.7691499356263032 0 1 0 0 0 1 forward_v I I I I #
coedge $-1 $440 $338 $340 $441 forward $220 $-1 #
coedge $-1 $222 $229 $442 $443 forward $134 $-1 #
coedge $-1 $444 $227 $222 $331 reversed $341 $-1 #
edge $-1 $445 -4.4481803995484306 $231 4.4481803995484341 $330 $446 forward 7 unknown #
coedge $-1 $224 $223 $439 $447 reversed $85 $-1 #
coedge $-1 $338 $440 $223 $334 forward $220 $-1 #
edge $-1 $448 -4.4481803995484306 $336 4.4481803995484341 $223 $449 forward 7 unknown #
edge $-1 $230 -4.4481803995484341 $450 4.4481803995484306 $224 $451 forward 7 unknown #
vertex $-1 $225 $452 #
straight-curve $-1 -51.073335978270819 -27.177804359615511 0 0 0 -1 I I #
coedge $-1 $328 $333 $226 $339 reversed $220 $-1 #
edge $-1 $342 -51.073335978270819 $336 51.073335978270819 $338 $453 forward 7 unknown #
coedge $-1 $227 $444 $328 $441 reversed $341 $-1 #
loop $-1 $-1 $227 $325 #
vertex $-1 $228 $454 #
straight-curve $-1 51.073335978270819 -27.177804359615511 0 0 0 1 I I #
point $-1 -51.073335978270819 -27.177804359615511 -5.1769000367450806 #
point $-1 51.073335978270819 -27.177804359615511 -5.1769000367450806 #
face $-1 $-1 $360 $32 $-1 $455 reversed single #
loop $-1 $-1 $456 $233 #
plane-surface $-1 0 36.074165158712376 -6.7691499356263032 0 -1 0 0 0 -1 forward_v I I I I #
coedge $-1 $356 $457 $237 $353 forward $234 $-1 #
coedge $-1 $243 $236 $458 $459 forward $142 $-1 #
edge $-1 $244 -4.4481803995484341 $460 4.4481803995484306 $238 $461 forward 7 unknown #
coedge $-1 $238 $237 $456 $462 reversed $89 $-1 #
edge $-1 $463 -4.4481803995484306 $354 4.4481803995484341 $237 $464 forward 7 unknown #
vertex $-1 $239 $465 #
straight-curve $-1 51.073335978270819 27.177804359615511 0 0 0 -1 I I #
coedge $-1 $466 $349 $240 $357 reversed $234 $-1 #
edge $-1 $361 -51.073335978270819 $354 51.073335978270819 $356 $467 forward 7 unknown #
coedge $-1 $468 $241 $243 $363 reversed $360 $-1 #
coedge $-1 $241 $468 $466 $469 reversed $360 $-1 #
loop $-1 $-1 $241 $346 #
vertex $-1 $242 $470 #
straight-curve $-1 -51.073335978270819 27.177804359615511 0 0 0 1 I I #
edge $-1 $471 -4.4481803995484306 $245 4.4481803995484341 $358 $472 forward 7 unknown #
point $-1 51.073335978270819 27.177804359615511 -5.1769000367450806 #
point $-1 -51.073335978270819 27.177804359615511 -5.1769000367450806 #
plane-surface $-1 0 0 9.1901239077418087 0 0 1 1 0 0 forward_v I I I I #
coedge $-1 $377 $376 $369 $473 forward $248 $-1 #
coedge $-1 $369 $250 $252 $373 reversed $150 $-1 #
coedge $-1 $250 $368 $367 $473 reversed $150 $-1 #
coedge $-1 $258 $253 $250 $371 forward $259 $-1 #
edge $-1 $374 -14.794803287218315 $474 -10.577634637936818 $370 $475 forward 7 unknown #
coedge $-1 $252 $251 $377 $476 reversed $93 $-1 #
edge $-1 $477 2.0097183471152325e-014 $374 5.9639771678258944 $368 $478 forward 7 unknown #
vertex $-1 $254 $479 #
straight-curve $-1 -46.856167328989322 4.5597731094564633 9.1901239077418087 0 1 0 I I #
coedge $-1 $367 $255 $258 $381 reversed $248 $-1 #
coedge $-1 $255 $367 $372 $476 forward $248 $-1 #
vertex $-1 $256 $480 #
straight-curve $-1 -51.073335978270819 5.5533135411277783 38.600779369336344 0 0 1 I I #
straight-curve $-1 -51.073335978270833 5.5533135411277783 4.9729551606004634 -0.70710677298230451 0 -0.70710678939079041 I I #
edge $-1 $474 -12.685778896698075 $260 -5.5533135411277783 $376 $481 forward 7 unknown #
point $-1 -51.073335978270819 5.5533135411277783 9.1901239077418087 #
point $-1 -46.856167328989322 5.5533135411277783 9.1901239077418087 #
edge $-1 $482 1 $482 0 $263 $-1 forward 7 unknown #
vertex $-1 $264 $483 #
ellipse-curve $-1 -48.257644864239275 6.9798066122418341 6.3744327611888325 -0.70710678939079041 0 0.70710677298230451 0.35355338649115226 0 0.35355339469539521 1 I I #
point $-1 -48.61119826713891 6.9798066122418341 7.4350929288665322 #
edge $-1 $484 1 $484 0 $267 $-1 forward 7 unknown #
vertex $-1 $268 $485 #
ellipse-curve $-1 -48.257644864239275 9.1195462189129266 6.3744327611888325 -0.70710678939079041 0 0.70710677298230451 0.35355338649115226 0 0.35355339469539521 1 I I #
point $-1 -48.61119826713891 9.1195462189129266 7.4350929288665322 #
edge $-1 $486 1 $486 0 $271 $-1 forward 7 unknown #
vertex $-1 $272 $487 #
ellipse-curve $-1 -48.257644864239275 11.259285825584012 6.3744327611888325 -0.70710678939079041 0 0.70710677298230451 0.35355338649115226 0 0.35355339469539521 1 I I #
point $-1 -48.61119826713891 11.259285825584012 7.4350929288665322 #
loop $-1 $-1 $283 $275 #
plane-surface $-1 51.073335978270819 0 0 -1 0 0 0 0 1 forward_v I I I I #
coedge $-1 $399 $278 $280 $403 reversed $179 $-1 #
coedge $-1 $278 $398 $488 $489 reversed $179 $-1 #
coedge $-1 $286 $281 $278 $401 forward $276 $-1 #
edge $-1 $404 7.6717253664900227 $490 11.754799519319349 $400 $491 forward 7 unknown #
coedge $-1 $280 $279 $407 $492 reversed $112 $-1 #
edge $-1 $493 -102.14667195654168 $404 -94.844944386519984 $398 $494 forward 7 unknown #
vertex $-1 $282 $495 #
straight-curve $-1 46.990261825441493 6.6410193356158818 9.1901239077418069 0 -1 0 I I #
coedge $-1 $488 $283 $286 $411 reversed $396 $-1 #
coedge $-1 $283 $488 $402 $492 forward $396 $-1 #
vertex $-1 $284 $496 #
straight-curve $-1 51.073335978270819 18.281443560518635 72.469919992686457 0 0 1 I I #
straight-curve $-1 -6.0463568702603823 18.281443560518635 87.82014713684174 0.55919289150049634 0 -0.82903758062907751 I I #
edge $-1 $490 8.2826337819448916 $287 18.281443560518635 $406 $497 forward 7 unknown #
point $-1 51.073335978270819 18.281443560518635 9.1901239077418087 #
point $-1 46.990261825441493 18.281443560518635 9.1901239077418069 #
edge $-1 $498 1 $498 0 $290 $-1 forward 7 unknown #
vertex $-1 $291 $499 #
ellipse-curve $-1 46.571454608722412 11.139436575823108 4.5038974998131662 0.82903758062907751 0 0.55919289150049634 0.55919289150049634 0 -0.82903758062907751 1 I I #
point $-1 49.59099179335665 11.139436575823108 5.3343830475810368 #
edge $-1 $500 1 $500 0 $294 $-1 forward 7 unknown #
vertex $-1 $295 $501 #
ellipse-curve $-1 46.571454608722412 15.424640766640426 4.5038974998131662 0.82903758062907751 0 0.55919289150049634 0.55919289150049634 0 -0.82903758062907751 1 I I #
point $-1 49.59099179335665 15.424640766640426 5.3343830475810368 #
plane-surface $-1 51.073335978270819 0 0 -1 0 0 0 0 1 forward_v I I I I #
coedge $-1 $303 $301 $305 $427 reversed $201 $-1 #
edge $-1 $316 -9.1901239077418087 $429 9.1901239077418087 $315 $502 forward 7 unknown #
vertex $-1 $427 $503 #
straight-curve $-1 -51.073335978270819 -27.177804359615511 0 0 0 -1 I I #
edge $-1 $425 -27.177804359615511 $429 27.177804359615511 $423 $504 forward 7 unknown #
straight-curve $-1 0 -27.177804359615511 -9.1901239077418087 -1 0 0 I I #
vertex $-1 $308 $505 #
straight-curve $-1 0 27.177804359615511 -9.1901239077418087 1 0 0 I I #
point $-1 51.073335978270819 27.177804359615511 -9.1901239077418087 #
point $-1 51.073335978270819 -27.177804359615511 -9.1901239077418087 #
straight-curve $-1 -51.073335978270819 0 9.1901239077418087 0 -1 0 I I #
point $-1 -51.073335978270819 27.177804359615511 9.1901239077418087 #
point $-1 -51.073335978270819 -27.177804359615511 9.1901239077418087 #
straight-curve $-1 51.073335978270819 -27.177804359615511 0 0 0 -1 I I #
straight-curve $-1 51.073335978270819 27.177804359615511 0 0 0 -1 I I #
plane-surface $-1 51.073335978270819 0 0 -1 0 0 0 0 1 forward_v I I I I #
coedge $-1 $506 $442 $332 $447 forward $326 $-1 #
coedge $-1 $333 $328 $506 $507 forward $220 $-1 #
edge $-1 $342 -4.4481803995484341 $508 4.4481803995484306 $340 $509 forward 7 unknown #
coedge $-1 $439 $510 $329 $443 reversed $326 $-1 #
edge $-1 $450 -51.073335978270819 $445 51.073335978270819 $442 $511 forward 7 unknown #
coedge $-1 $340 $330 $510 $512 forward $341 $-1 #
vertex $-1 $331 $513 #
straight-curve $-1 51.073335978270819 -31.625984759163945 -5.1769000367450806 0 1 0 I I #
edge $-1 $450 -1.5922498988812226 $448 1.5922498988812235 $332 $514 forward 7 unknown #
vertex $-1 $334 $515 #
straight-curve $-1 -51.073335978270819 -31.625984759163945 -8.3613998345075267 0 1 0 I I #
vertex $-1 $335 $516 #
straight-curve $-1 -51.073335978270819 -31.625984759163945 -5.1769000367450806 0 -1 0 I I #
point $-1 -51.073335978270819 -27.177804359615511 -8.3613998345075267 #
straight-curve $-1 0 -27.177804359615511 -8.3613998345075267 -1 0 0 I I #
point $-1 51.073335978270819 -27.177804359615511 -8.3613998345075267 #
plane-surface $-1 -51.073335978270819 0 0 1 0 0 0 0 -1 forward_v I I I I #
coedge $-1 $517 $458 $352 $462 forward $347 $-1 #
coedge $-1 $349 $466 $517 $518 forward $234 $-1 #
coedge $-1 $456 $519 $350 $459 reversed $347 $-1 #
edge $-1 $460 -51.073335978270819 $471 51.073335978270819 $458 $520 forward 7 unknown #
vertex $-1 $351 $521 #
straight-curve $-1 51.073335978270819 31.625984759163945 -5.1769000367450806 0 1 0 I I #
edge $-1 $460 -1.5922498988812226 $463 1.5922498988812235 $352 $522 forward 7 unknown #
vertex $-1 $353 $523 #
straight-curve $-1 51.073335978270819 31.625984759163945 -8.3613998345075267 0 -1 0 I I #
point $-1 51.073335978270819 27.177804359615511 -8.3613998345075267 #
coedge $-1 $457 $356 $359 $469 forward $234 $-1 #
straight-curve $-1 0 27.177804359615511 -8.3613998345075267 1 0 0 I I #
coedge $-1 $359 $358 $519 $524 forward $360 $-1 #
edge $-1 $361 -4.4481803995484341 $525 4.4481803995484306 $359 $526 forward 7 unknown #
point $-1 -51.073335978270819 27.177804359615511 -8.3613998345075267 #
vertex $-1 $459 $527 #
straight-curve $-1 -51.073335978270819 31.625984759163945 -5.1769000367450806 0 -1 0 I I #
edge $-1 $474 29.410655461594537 $477 33.627824208735866 $367 $528 forward 7 unknown #
vertex $-1 $381 $529 #
straight-curve $-1 -61.650970616207637 12.685778896698075 9.1901239077418069 -1 0 0 I I #
edge $-1 $477 -8.1260057872416116 $378 -0.99354043167131501 $377 $530 forward 7 unknown #
vertex $-1 $476 $531 #
straight-curve $-1 -51.073335978270833 12.685778896698075 4.9729551606004634 0.70710677298230451 0 0.70710678939079041 I I #
point $-1 -46.856167328989322 12.685778896698075 9.1901239077418087 #
point $-1 -51.073335978270819 5.5533135411277783 4.9729551606004776 #
straight-curve $-1 -51.073335978270819 0 9.1901239077418087 0 -1 0 I I #
vertex $-1 $384 $532 #
point $-1 -47.904091477748125 6.9798066122418341 6.7279861558842278 #
vertex $-1 $388 $533 #
point $-1 -47.904091477748125 9.1195462189129266 6.7279861558842278 #
vertex $-1 $392 $534 #
point $-1 -47.904091477748125 11.259285825584012 6.7279861558842278 #
coedge $-1 $407 $406 $399 $489 forward $396 $-1 #
edge $-1 $490 63.27979608494465 $493 69.333202644008068 $488 $535 forward 7 unknown #
vertex $-1 $411 $536 #
straight-curve $-1 39.318536458951471 8.2826337819448916 9.1901239077418069 1 0 0 I I #
edge $-1 $493 1.6416144463290099 $408 11.640424224902754 $407 $537 forward 7 unknown #
vertex $-1 $492 $538 #
straight-curve $-1 -6.0463568702603823 8.2826337819448916 87.82014713684174 -0.55919289150049634 0 0.82903758062907751 I I #
point $-1 46.990261825441493 8.2826337819448916 9.1901239077418069 #
point $-1 51.073335978270819 18.281443560518635 3.1367173486783884 #
straight-curve $-1 51.073335978270819 0 9.1901239077418087 0 1 0 I I #
vertex $-1 $414 $539 #
point $-1 47.130647500222906 11.139436575823108 3.6748599191840889 #
vertex $-1 $418 $540 #
point $-1 47.130647500222906 15.424640766640426 3.6748599191840889 #
straight-curve $-1 -51.073335978270819 27.177804359615511 0 0 0 -1 I I #
point $-1 -51.073335978270819 -27.177804359615511 -9.1901239077418087 #
straight-curve $-1 -51.073335978270819 0 -9.1901239077418087 0 1 0 I I #
point $-1 -51.073335978270819 27.177804359615511 -9.1901239077418087 #
coedge $-1 $510 $439 $440 $507 reversed $326 $-1 #
edge $-1 $508 -51.073335978270819 $448 51.073335978270819 $506 $541 forward 7 unknown #
vertex $-1 $512 $542 #
straight-curve $-1 51.073335978270819 -31.625984759163945 -8.3613998345075267 0 -1 0 I I #
coedge $-1 $442 $506 $444 $512 reversed $326 $-1 #
straight-curve $-1 0 -36.074165158712376 -5.1769000367450806 1 0 0 I I #
edge $-1 $445 -1.5922498988812226 $508 1.5922498988812235 $444 $543 forward 7 unknown #
point $-1 51.073335978270819 -36.074165158712376 -5.1769000367450806 #
straight-curve $-1 -51.073335978270819 -36.074165158712376 -6.7691499356263032 0 0 -1 I I #
point $-1 -51.073335978270819 -36.074165158712376 -8.3613998345075267 #
point $-1 -51.073335978270819 -36.074165158712376 -5.1769000367450806 #
coedge $-1 $519 $456 $457 $518 reversed $347 $-1 #
edge $-1 $525 -51.073335978270819 $463 51.073335978270819 $517 $544 forward 7 unknown #
coedge $-1 $458 $517 $468 $524 reversed $347 $-1 #
straight-curve $-1 0 36.074165158712376 -5.1769000367450806 -1 0 0 I I #
point $-1 51.073335978270819 36.074165158712376 -5.1769000367450806 #
straight-curve $-1 51.073335978270819 36.074165158712376 -6.7691499356263032 0 0 -1 I I #
point $-1 51.073335978270819 36.074165158712376 -8.3613998345075267 #
edge $-1 $471 -1.5922498988812226 $525 1.5922498988812235 $519 $545 forward 7 unknown #
vertex $-1 $518 $546 #
straight-curve $-1 -51.073335978270819 31.625984759163945 -8.3613998345075267 0 1 0 I I #
point $-1 -51.073335978270819 36.074165158712376 -5.1769000367450806 #
straight-curve $-1 -51.073335978270819 12.685778896698075 38.600779369336344 0 0 -1 I I #
point $-1 -51.073335978270819 12.685778896698075 9.1901239077418087 #
straight-curve $-1 -51.073335978270819 4.5597731094564633 4.972955160600474 0 -1 0 I I #
point $-1 -51.073335978270819 12.685778896698075 4.9729551606004776 #
point $-1 -47.904091469543879 6.9798066122418341 6.0208793746976808 #
point $-1 -47.904091469543879 9.1195462189129266 6.0208793746976808 #
point $-1 -47.904091469543879 11.259285825584012 6.0208793746976808 #
straight-curve $-1 51.073335978270819 8.2826337819448916 72.469919992686457 0 0 -1 I I #
point $-1 51.073335978270819 8.2826337819448916 9.1901239077418087 #
straight-curve $-1 51.073335978270819 6.6410193356158818 3.1367173486783813 0 1 0 I I #
point $-1 51.073335978270819 8.2826337819448916 3.1367173486783884 #
point $-1 45.742417028093335 11.139436575823108 3.9447046083126702 #
point $-1 45.742417028093335 15.424640766640426 3.9447046083126702 #
straight-curve $-1 0 -36.074165158712376 -8.3613998345075267 -1 0 0 I I #
point $-1 51.073335978270819 -36.074165158712376 -8.3613998345075267 #
straight-curve $-1 51.073335978270819 -36.074165158712376 -6.7691499356263032 0 0 -1 I I #
straight-curve $-1 0 36.074165158712376 -8.3613998345075267 1 0 0 I I #
straight-curve $-1 -51.073335978270819 36.074165158712376 -6.7691499356263032 0 0 -1 I I #
point $-1 -51.073335978270819 36.074165158712376 -8.3613998345075267 #
End-of-ACIS-data 