500 0 19 0           
7 Unknown 11 ACIS 5.0 NT 24 Fri Mar 26 01:21:47 1999 
-1 9.9999999999999995e-007 1e-010 
body $-1 $19 $-1 $20 #
body $-1 $21 $-1 $22 #
body $-1 $23 $-1 $24 #
body $-1 $25 $-1 $26 #
body $-1 $27 $-1 $28 #
body $-1 $29 $-1 $30 #
body $-1 $31 $-1 $32 #
body $-1 $33 $-1 $34 #
body $-1 $35 $-1 $36 #
body $-1 $37 $-1 $38 #
body $-1 $39 $-1 $40 #
body $-1 $41 $-1 $42 #
body $-1 $43 $-1 $44 #
body $-1 $45 $-1 $46 #
body $-1 $47 $-1 $48 #
body $-1 $49 $-1 $50 #
body $-1 $51 $-1 $52 #
body $-1 $53 $-1 $54 #
body $-1 $55 $-1 $56 #
lump $-1 $-1 $57 $0 #
transform $-1 1 0 0 0 1 0 0 0 1 60.282601397747733 29.761395392051917 6.2708105693614193 1 rotate no_reflect no_shear #
lump $-1 $-1 $58 $1 #
transform $-1 1 0 0 0 1 0 0 0 1 60.282601397747733 29.761395392051917 6.2708105693614193 1 rotate no_reflect no_shear #
lump $-1 $-1 $59 $2 #
transform $-1 1 0 0 0 1 0 0 0 1 60.282601397747733 29.761395392051917 6.2708105693614193 1 rotate no_reflect no_shear #
lump $-1 $-1 $60 $3 #
transform $-1 1 0 0 0 1 0 0 0 1 60.282601397747733 29.761395392051917 6.2708105693614193 1 rotate no_reflect no_shear #
lump $-1 $-1 $61 $4 #
transform $-1 1 0 0 0 1 0 0 0 1 60.282601397747733 29.761395392051917 6.2708105693614193 1 rotate no_reflect no_shear #
lump $-1 $-1 $62 $5 #
transform $-1 1 0 0 0 1 0 0 0 1 60.282601397747733 29.761395392051917 6.2708105693614193 1 rotate no_reflect no_shear #
lump $-1 $-1 $63 $6 #
transform $-1 1 0 0 0 1 0 0 0 1 60.282601397747733 29.761395392051917 6.2708105693614193 1 rotate no_reflect no_shear #
lump $-1 $-1 $64 $7 #
transform $-1 1 0 0 0 1 0 0 0 1 60.282601397747733 29.761395392051917 6.2708105693614193 1 rotate no_reflect no_shear #
lump $-1 $-1 $65 $8 #
transform $-1 1 0 0 0 1 0 0 0 1 60.282601397747733 29.761395392051917 6.2708105693614193 1 rotate no_reflect no_shear #
lump $-1 $-1 $66 $9 #
transform $-1 1 0 0 0 1 0 0 0 1 60.282601397747733 29.761395392051917 6.2708105693614193 1 rotate no_reflect no_shear #
lump $-1 $-1 $67 $10 #
transform $-1 1 0 0 0 1 0 0 0 1 60.282601397747733 29.761395392051917 6.2708105693614193 1 rotate no_reflect no_shear #
lump $-1 $-1 $68 $11 #
transform $-1 1 0 0 0 1 0 0 0 1 60.282601397747733 29.761395392051917 6.2708105693614193 1 rotate no_reflect no_shear #
lump $-1 $-1 $69 $12 #
transform $-1 1 0 0 0 1 0 0 0 1 60.282601397747733 29.761395392051917 6.2708105693614193 1 rotate no_reflect no_shear #
lump $-1 $-1 $70 $13 #
transform $-1 1 0 0 0 1 0 0 0 1 60.282601397747733 29.761395392051917 6.2708105693614193 1 rotate no_reflect no_shear #
lump $-1 $-1 $71 $14 #
transform $-1 1 0 0 0 1 0 0 0 1 60.282601397747733 29.761395392051917 6.2708105693614193 1 rotate no_reflect no_shear #
lump $-1 $-1 $72 $15 #
transform $-1 1 0 0 0 1 0 0 0 1 60.282601397747733 29.761395392051917 6.2708105693614193 1 rotate no_reflect no_shear #
lump $-1 $-1 $73 $16 #
transform $-1 1 0 0 0 1 0 0 0 1 60.282601397747733 29.761395392051917 6.2708105693614193 1 rotate no_reflect no_shear #
lump $-1 $-1 $74 $17 #
transform $-1 1 0 0 0 1 0 0 0 1 60.282601397747733 29.761395392051917 6.2708105693614193 1 rotate no_reflect no_shear #
lump $-1 $-1 $75 $18 #
transform $-1 1 0 0 0 1 0 0 0 1 60.282601397747733 29.761395392051917 6.2708105693614193 1 rotate no_reflect no_shear #
shell $-1 $-1 $-1 $76 $-1 $19 #
shell $-1 $-1 $-1 $77 $-1 $21 #
shell $-1 $-1 $-1 $78 $-1 $23 #
shell $-1 $-1 $-1 $79 $-1 $25 #
shell $-1 $-1 $-1 $80 $-1 $27 #
shell $-1 $-1 $-1 $81 $-1 $29 #
shell $-1 $-1 $-1 $82 $-1 $31 #
shell $-1 $-1 $-1 $83 $-1 $33 #
shell $-1 $-1 $-1 $84 $-1 $35 #
shell $-1 $-1 $-1 $85 $-1 $37 #
shell $-1 $-1 $-1 $86 $-1 $39 #
shell $-1 $-1 $-1 $87 $-1 $41 #
shell $-1 $-1 $-1 $88 $-1 $43 #
shell $-1 $-1 $-1 $89 $-1 $45 #
shell $-1 $-1 $-1 $90 $-1 $47 #
shell $-1 $-1 $-1 $91 $-1 $49 #
shell $-1 $-1 $-1 $92 $-1 $51 #
shell $-1 $-1 $-1 $93 $-1 $53 #
shell $-1 $-1 $-1 $94 $-1 $55 #
face $-1 $95 $96 $57 $-1 $97 forward single #
face $-1 $98 $99 $58 $-1 $100 forward single #
face $-1 $101 $102 $59 $-1 $103 forward single #
face $-1 $104 $105 $60 $-1 $106 reversed single #
face $-1 $107 $108 $61 $-1 $109 forward single #
face $-1 $110 $111 $62 $-1 $112 forward single #
face $-1 $113 $114 $63 $-1 $115 forward single #
face $-1 $116 $117 $64 $-1 $118 reversed single #
face $-1 $119 $120 $65 $-1 $121 forward single #
face $-1 $122 $123 $66 $-1 $124 forward single #
face $-1 $125 $126 $67 $-1 $127 forward single #
face $-1 $128 $129 $68 $-1 $130 reversed single #
face $-1 $131 $132 $69 $-1 $133 forward single #
face $-1 $134 $135 $70 $-1 $136 forward single #
face $-1 $137 $138 $71 $-1 $139 forward single #
face $-1 $140 $141 $72 $-1 $142 reversed single #
face $-1 $143 $144 $73 $-1 $145 forward single #
face $-1 $146 $147 $74 $-1 $148 forward single #
face $-1 $149 $150 $75 $-1 $151 forward single #
face $-1 $152 $153 $57 $-1 $154 reversed single #
loop $-1 $-1 $155 $76 #
plane-surface $-1 0 0 6.2708105693614193 0 0 1 1 0 0 forward_v I I I I #
face $-1 $156 $157 $58 $-1 $158 reversed single #
loop $-1 $-1 $159 $77 #
plane-surface $-1 -57.075640704519273 0 -2.744175753538233 0 0 1 1 0 0 forward_v I I I I #
face $-1 $160 $161 $59 $-1 $162 reversed single #
loop $-1 $-1 $163 $78 #
plane-surface $-1 57.07564070451928 0 -2.744175753538233 0 0 1 1 0 0 forward_v I I I I #
face $-1 $164 $165 $60 $-1 $166 reversed single #
loop $-1 $-1 $167 $79 #
plane-surface $-1 -7.5766022201351078 61.662112136366453 132.39970903450484 -1 0 0 0 0.64278761758704617 0.76604443648966558 forward_v I I I I #
face $-1 $168 $169 $61 $-1 $170 forward single #
loop $-1 $171 $172 $80 #
cone-surface $-1 -26.516440157244922 26.693089884211318 3.5576500356316672 0 -0.64278761758704617 -0.76604443648966558 1 0 0 1 I I 0 1 1 forward I I I I #
face $-1 $173 $174 $62 $-1 $175 forward single #
loop $-1 $176 $177 $81 #
cone-surface $-1 -19.414000930828742 26.693089884211318 3.5576500356316672 0 -0.64278761758704617 -0.76604443648966558 1 0 0 1 I I 0 1 1 forward I I I I #
face $-1 $178 $179 $63 $-1 $180 forward single #
loop $-1 $181 $182 $82 #
cone-surface $-1 -12.311561704412561 26.693089884211318 3.5576500356316672 0 -0.64278761758704617 -0.76604443648966558 1 0 0 1 I I 0 1 1 forward I I I I #
face $-1 $183 $184 $64 $-1 $185 reversed single #
loop $-1 $-1 $186 $83 #
plane-surface $-1 31.25139964152239 61.662112136366453 132.39970903450484 -1 0 0 0 0.64278761758704617 0.76604443648966558 forward_v I I I I #
face $-1 $187 $188 $65 $-1 $189 forward single #
loop $-1 $190 $191 $84 #
cone-surface $-1 12.311561704412576 26.693089884211318 3.5576500356316672 0 -0.64278761758704617 -0.76604443648966558 1 0 0 1 I I 0 1 1 forward I I I I #
face $-1 $192 $193 $66 $-1 $194 forward single #
loop $-1 $195 $196 $85 #
cone-surface $-1 19.414000930828756 26.693089884211318 3.5576500356316672 0 -0.64278761758704617 -0.76604443648966558 1 0 0 1 I I 0 1 1 forward I I I I #
face $-1 $197 $198 $67 $-1 $199 forward single #
loop $-1 $200 $201 $86 #
cone-surface $-1 26.516440157244936 26.693089884211318 3.5576500356316672 0 -0.64278761758704617 -0.76604443648966558 1 0 0 1 I I 0 1 1 forward I I I I #
face $-1 $202 $203 $68 $-1 $204 reversed single #
loop $-1 $-1 $205 $87 #
plane-surface $-1 -53.868680011290806 -97.180602077030358 102.50139397235817 1 0 0 0 0.55919291073839883 -0.82903756765294845 forward_v I I I I #
face $-1 $206 $207 $69 $-1 $208 forward single #
loop $-1 $209 $210 $88 #
cone-surface $-1 -50.505500182612622 -26.722383078451482 3.9950422524523024 0 0.55919291073839883 -0.82903756765294845 0.5 0 0 1 I I 0 1 0.5 forward I I I I #
face $-1 $211 $212 $70 $-1 $213 forward single #
loop $-1 $214 $215 $89 #
cone-surface $-1 -45.460730439595345 -26.722383078451482 3.9950422524523024 0 0.55919291073839883 -0.82903756765294845 0.5 0 0 1 I I 0 1 0.5 forward I I I I #
face $-1 $216 $217 $71 $-1 $218 forward single #
loop $-1 $219 $220 $90 #
cone-surface $-1 -40.415960696578068 -26.722383078451482 3.9950422524523024 0 0.55919291073839883 -0.82903756765294845 0.5 0 0 1 I I 0 1 0.5 forward I I I I #
face $-1 $221 $222 $72 $-1 $223 reversed single #
loop $-1 $-1 $224 $91 #
plane-surface $-1 37.052780867899898 -97.180602077030358 102.50139397235817 1 0 0 0 0.55919291073839883 -0.82903756765294845 forward_v I I I I #
face $-1 $225 $226 $73 $-1 $227 forward single #
loop $-1 $228 $229 $92 #
cone-surface $-1 40.415960696578075 -26.722383078451482 3.9950422524523024 0 0.55919291073839883 -0.82903756765294845 0.5 0 0 1 I I 0 1 0.5 forward I I I I #
face $-1 $230 $231 $74 $-1 $232 forward single #
loop $-1 $233 $234 $93 #
cone-surface $-1 45.460730439595359 -26.722383078451482 3.9950422524523024 0 0.55919291073839883 -0.82903756765294845 0.5 0 0 1 I I 0 1 0.5 forward I I I I #
face $-1 $235 $236 $75 $-1 $237 forward single #
loop $-1 $238 $239 $94 #
cone-surface $-1 50.505500182612643 -26.722383078451482 3.9950422524523024 0 0.55919291073839883 -0.82903756765294845 0.5 0 0 1 I I 0 1 0.5 forward I I I I #
face $-1 $240 $241 $57 $-1 $242 reversed single #
loop $-1 $-1 $243 $95 #
plane-surface $-1 0 0 -6.2708105693614193 0 0 1 1 0 0 forward_v I I I I #
coedge $-1 $244 $245 $246 $247 forward $96 $-1 #
face $-1 $248 $249 $58 $-1 $250 reversed single #
loop $-1 $-1 $251 $98 #
plane-surface $-1 -53.868680011290813 0 -4.5074931614498261 -1 0 0 0 0 1 forward_v I I I I #
coedge $-1 $252 $253 $254 $255 forward $99 $-1 #
face $-1 $256 $257 $59 $-1 $258 reversed single #
loop $-1 $-1 $259 $101 #
plane-surface $-1 53.86868001129082 0 -4.5074931614498261 1 0 0 0 0 -1 forward_v I I I I #
coedge $-1 $260 $261 $262 $263 reversed $102 $-1 #
face $-1 $264 $265 $60 $-1 $266 reversed single #
loop $-1 $-1 $267 $104 #
plane-surface $-1 -19.414000930828742 -15.835707332449154 40.041406198767262 0 0.64278761758704617 0.76604443648966558 1 0 0 forward_v I I I I #
coedge $-1 $268 $269 $270 $271 reversed $105 $-1 #
face $-1 $-1 $272 $61 $-1 $273 forward single #
loop $-1 $274 $275 $107 #
cone-surface $-1 -26.516440157244922 25.978828018610159 2.7064259090773 0 -0.64278761758704617 -0.76604443648966558 0.5 0 0 1 I I -0.70710678118654746 0.70710678118654746 0.5 forward I I I I #
loop $-1 $-1 $276 $80 #
coedge $-1 $172 $172 $277 $278 reversed $108 $-1 #
face $-1 $-1 $279 $62 $-1 $280 forward single #
loop $-1 $281 $282 $110 #
cone-surface $-1 -19.414000930828742 25.978828018610159 2.7064259090773 0 -0.64278761758704617 -0.76604443648966558 0.5 0 0 1 I I -0.70710678118654746 0.70710678118654746 0.5 forward I I I I #
loop $-1 $-1 $283 $81 #
coedge $-1 $177 $177 $284 $285 reversed $111 $-1 #
face $-1 $-1 $286 $63 $-1 $287 forward single #
loop $-1 $288 $289 $113 #
cone-surface $-1 -12.311561704412561 25.978828018610159 2.7064259090773 0 -0.64278761758704617 -0.76604443648966558 0.5 0 0 1 I I -0.70710678118654746 0.70710678118654746 0.5 forward I I I I #
loop $-1 $-1 $290 $82 #
coedge $-1 $182 $182 $291 $292 reversed $114 $-1 #
face $-1 $293 $294 $64 $-1 $295 reversed single #
loop $-1 $-1 $296 $116 #
plane-surface $-1 19.414000930828756 -15.835707332449154 40.041406198767262 0 0.64278761758704617 0.76604443648966558 1 0 0 forward_v I I I I #
coedge $-1 $297 $298 $299 $300 reversed $117 $-1 #
face $-1 $-1 $301 $65 $-1 $302 forward single #
loop $-1 $303 $304 $119 #
cone-surface $-1 12.311561704412576 25.978828018610159 2.7064259090773 0 -0.64278761758704617 -0.76604443648966558 0.5 0 0 1 I I -0.70710678118654746 0.70710678118654746 0.5 forward I I I I #
loop $-1 $-1 $305 $84 #
coedge $-1 $191 $191 $306 $307 reversed $120 $-1 #
face $-1 $-1 $308 $66 $-1 $309 forward single #
loop $-1 $310 $311 $122 #
cone-surface $-1 19.414000930828756 25.978828018610159 2.7064259090773 0 -0.64278761758704617 -0.76604443648966558 0.5 0 0 1 I I -0.70710678118654746 0.70710678118654746 0.5 forward I I I I #
loop $-1 $-1 $312 $85 #
coedge $-1 $196 $196 $313 $314 reversed $123 $-1 #
face $-1 $-1 $315 $67 $-1 $316 forward single #
loop $-1 $317 $318 $125 #
cone-surface $-1 26.516440157244936 25.978828018610159 2.7064259090773 0 -0.64278761758704617 -0.76604443648966558 0.5 0 0 1 I I -0.70710678118654746 0.70710678118654746 0.5 forward I I I I #
loop $-1 $-1 $319 $86 #
coedge $-1 $201 $201 $320 $321 reversed $126 $-1 #
face $-1 $322 $323 $68 $-1 $324 reversed single #
loop $-1 $-1 $325 $128 #
plane-surface $-1 -45.460730439595345 -29.761395392051909 2.5483115031961461 0 -0.55919291073839883 0.82903756765294845 1 0 0 forward_v I I I I #
coedge $-1 $326 $327 $328 $329 reversed $129 $-1 #
face $-1 $-1 $330 $69 $-1 $331 forward single #
loop $-1 $332 $333 $131 #
cone-surface $-1 -50.505500182612622 -26.302988395397684 3.3732640767125908 0 0.55919291073839883 -0.82903756765294845 0.25 0 0 1 I I -0.70710678118654746 0.70710678118654746 0.25 forward I I I I #
loop $-1 $-1 $334 $88 #
coedge $-1 $210 $210 $335 $336 reversed $132 $-1 #
face $-1 $-1 $337 $70 $-1 $338 forward single #
loop $-1 $339 $340 $134 #
cone-surface $-1 -45.460730439595345 -26.302988395397684 3.3732640767125908 0 0.55919291073839883 -0.82903756765294845 0.25 0 0 1 I I -0.70710678118654746 0.70710678118654746 0.25 forward I I I I #
loop $-1 $-1 $341 $89 #
coedge $-1 $215 $215 $342 $343 reversed $135 $-1 #
face $-1 $-1 $344 $71 $-1 $345 forward single #
loop $-1 $346 $347 $137 #
cone-surface $-1 -40.415960696578068 -26.302988395397684 3.3732640767125908 0 0.55919291073839883 -0.82903756765294845 0.25 0 0 1 I I -0.70710678118654746 0.70710678118654746 0.25 forward I I I I #
loop $-1 $-1 $348 $90 #
coedge $-1 $220 $220 $349 $350 reversed $138 $-1 #
face $-1 $351 $352 $72 $-1 $353 reversed single #
loop $-1 $-1 $354 $140 #
plane-surface $-1 45.460730439595359 -29.761395392051909 2.5483115031961461 0 -0.55919291073839883 0.82903756765294845 1 0 0 forward_v I I I I #
coedge $-1 $355 $356 $357 $358 reversed $141 $-1 #
face $-1 $-1 $359 $73 $-1 $360 forward single #
loop $-1 $361 $362 $143 #
cone-surface $-1 40.415960696578075 -26.302988395397684 3.3732640767125908 0 0.55919291073839883 -0.82903756765294845 0.25 0 0 1 I I -0.70710678118654746 0.70710678118654746 0.25 forward I I I I #
loop $-1 $-1 $363 $92 #
coedge $-1 $229 $229 $364 $365 reversed $144 $-1 #
face $-1 $-1 $366 $74 $-1 $367 forward single #
loop $-1 $368 $369 $146 #
cone-surface $-1 45.460730439595359 -26.302988395397684 3.3732640767125908 0 0.55919291073839883 -0.82903756765294845 0.25 0 0 1 I I -0.70710678118654746 0.70710678118654746 0.25 forward I I I I #
loop $-1 $-1 $370 $93 #
coedge $-1 $234 $234 $371 $372 reversed $147 $-1 #
face $-1 $-1 $373 $75 $-1 $374 forward single #
loop $-1 $375 $376 $149 #
cone-surface $-1 50.505500182612643 -26.302988395397684 3.3732640767125908 0 0.55919291073839883 -0.82903756765294845 0.25 0 0 1 I I -0.70710678118654746 0.70710678118654746 0.25 forward I I I I #
loop $-1 $-1 $377 $94 #
coedge $-1 $239 $239 $378 $379 reversed $150 $-1 #
face $-1 $380 $381 $57 $-1 $382 reversed single #
loop $-1 $-1 $383 $152 #
plane-surface $-1 0 -29.761395392051917 0 0 1 0 0 0 1 forward_v I I I I #
coedge $-1 $384 $385 $386 $387 forward $153 $-1 #
coedge $-1 $388 $155 $389 $390 forward $96 $-1 #
coedge $-1 $155 $388 $391 $392 forward $96 $-1 #
coedge $-1 $393 $394 $155 $247 reversed $395 $-1 #
edge $-1 $396 -29.761395392051917 $397 29.761395392051917 $246 $398 forward 7 unknown #
face $-1 $399 $400 $58 $-1 $401 reversed single #
loop $-1 $-1 $402 $156 #
plane-surface $-1 0 0 -6.2708105693614193 0 0 1 1 0 0 forward_v I I I I #
coedge $-1 $403 $254 $404 $405 reversed $157 $-1 #
coedge $-1 $406 $159 $407 $408 reversed $99 $-1 #
coedge $-1 $159 $406 $409 $410 reversed $99 $-1 #
coedge $-1 $251 $411 $159 $255 reversed $157 $-1 #
edge $-1 $412 -29.761395392051917 $413 29.761395392051917 $254 $414 forward 7 unknown #
face $-1 $415 $416 $59 $-1 $417 reversed single #
loop $-1 $-1 $418 $160 #
plane-surface $-1 0 -29.761395392051917 0 0 1 0 0 0 1 forward_v I I I I #
coedge $-1 $419 $420 $421 $422 reversed $161 $-1 #
coedge $-1 $423 $163 $424 $425 reversed $102 $-1 #
coedge $-1 $163 $423 $418 $426 reversed $102 $-1 #
coedge $-1 $427 $428 $163 $263 forward $429 $-1 #
edge $-1 $430 -29.761395392051917 $431 29.761395392051917 $262 $432 forward 7 unknown #
face $-1 $433 $434 $60 $-1 $435 reversed single #
loop $-1 $-1 $436 $164 #
plane-surface $-1 -31.251399641522376 61.662112136366453 132.39970903450484 1 0 0 0 -0.64278761758704617 -0.76604443648966558 forward_v I I I I #
coedge $-1 $437 $438 $439 $440 reversed $165 $-1 #
coedge $-1 $269 $167 $441 $442 reversed $105 $-1 #
coedge $-1 $167 $268 $437 $443 reversed $105 $-1 #
coedge $-1 $439 $444 $167 $271 forward $434 $-1 #
edge $-1 $445 59.929043947891003 $446 64.418961198731438 $270 $447 forward 7 unknown #
loop $-1 $-1 $277 $168 #
plane-surface $-1 -19.414000930828742 -15.835707332449154 40.041406198767262 0 0.64278761758704617 0.76604443648966558 1 0 0 forward_v I I I I #
loop $-1 $-1 $448 $107 #
coedge $-1 $275 $275 $276 $449 reversed $169 $-1 #
coedge $-1 $276 $276 $275 $449 forward $171 $-1 #
coedge $-1 $277 $277 $172 $278 forward $272 $-1 #
edge $-1 $450 -2.4166542654355833e-015 $450 6.2831853071795978 $277 $451 forward 7 unknown #
loop $-1 $-1 $284 $173 #
plane-surface $-1 -19.414000930828742 -15.835707332449154 40.041406198767262 0 0.64278761758704617 0.76604443648966558 1 0 0 forward_v I I I I #
loop $-1 $-1 $452 $110 #
coedge $-1 $282 $282 $283 $453 reversed $174 $-1 #
coedge $-1 $283 $283 $282 $453 forward $176 $-1 #
coedge $-1 $284 $284 $177 $285 forward $279 $-1 #
edge $-1 $454 -2.4166542654355833e-015 $454 6.2831853071795978 $284 $455 forward 7 unknown #
loop $-1 $-1 $291 $178 #
plane-surface $-1 -19.414000930828742 -15.835707332449154 40.041406198767262 0 0.64278761758704617 0.76604443648966558 1 0 0 forward_v I I I I #
loop $-1 $-1 $456 $113 #
coedge $-1 $289 $289 $290 $457 reversed $179 $-1 #
coedge $-1 $290 $290 $289 $457 forward $181 $-1 #
coedge $-1 $291 $291 $182 $292 forward $286 $-1 #
edge $-1 $458 -2.4166542654355833e-015 $458 6.2831853071795978 $291 $459 forward 7 unknown #
face $-1 $460 $461 $64 $-1 $462 forward single #
loop $-1 $-1 $463 $183 #
plane-surface $-1 7.576602220135122 61.662112136366453 132.39970903450484 1 0 0 0 -0.64278761758704617 -0.76604443648966558 forward_v I I I I #
coedge $-1 $464 $465 $466 $467 reversed $184 $-1 #
coedge $-1 $298 $186 $468 $469 reversed $117 $-1 #
coedge $-1 $186 $297 $464 $470 reversed $117 $-1 #
coedge $-1 $466 $471 $186 $300 forward $472 $-1 #
edge $-1 $473 59.929043947891003 $474 64.418961198731438 $299 $475 forward 7 unknown #
loop $-1 $-1 $306 $187 #
plane-surface $-1 19.414000930828756 -15.835707332449154 40.041406198767262 0 0.64278761758704617 0.76604443648966558 1 0 0 forward_v I I I I #
loop $-1 $-1 $476 $119 #
coedge $-1 $304 $304 $305 $477 reversed $188 $-1 #
coedge $-1 $305 $305 $304 $477 forward $190 $-1 #
coedge $-1 $306 $306 $191 $307 forward $301 $-1 #
edge $-1 $478 -2.4166542654355833e-015 $478 6.2831853071795978 $306 $479 forward 7 unknown #
loop $-1 $-1 $313 $192 #
plane-surface $-1 19.414000930828756 -15.835707332449154 40.041406198767262 0 0.64278761758704617 0.76604443648966558 1 0 0 forward_v I I I I #
loop $-1 $-1 $480 $122 #
coedge $-1 $311 $311 $312 $481 reversed $193 $-1 #
coedge $-1 $312 $312 $311 $481 forward $195 $-1 #
coedge $-1 $313 $313 $196 $314 forward $308 $-1 #
edge $-1 $482 -2.4166542654355833e-015 $482 6.2831853071795978 $313 $483 forward 7 unknown #
loop $-1 $-1 $320 $197 #
plane-surface $-1 19.414000930828756 -15.835707332449154 40.041406198767262 0 0.64278761758704617 0.76604443648966558 1 0 0 forward_v I I I I #
loop $-1 $-1 $484 $125 #
coedge $-1 $318 $318 $319 $485 reversed $198 $-1 #
coedge $-1 $319 $319 $318 $485 forward $200 $-1 #
coedge $-1 $320 $320 $201 $321 forward $315 $-1 #
edge $-1 $486 -2.4166542654355833e-015 $486 6.2831853071795978 $320 $487 forward 7 unknown #
face $-1 $488 $489 $68 $-1 $490 forward single #
loop $-1 $-1 $491 $202 #
plane-surface $-1 -37.052780867899884 -97.180602077030358 102.50139397235817 -1 0 0 0 -0.55919291073839883 0.82903756765294845 forward_v I I I I #
coedge $-1 $492 $493 $494 $495 reversed $203 $-1 #
coedge $-1 $327 $205 $496 $497 reversed $129 $-1 #
coedge $-1 $205 $326 $492 $498 reversed $129 $-1 #
coedge $-1 $494 $499 $205 $329 forward $500 $-1 #
edge $-1 $501 44.979886416817664 $502 48.702385482982947 $328 $503 forward 7 unknown #
loop $-1 $-1 $335 $206 #
plane-surface $-1 -45.460730439595345 -29.761395392051909 2.5483115031961461 0 -0.55919291073839883 0.82903756765294845 1 0 0 forward_v I I I I #
loop $-1 $-1 $504 $131 #
coedge $-1 $333 $333 $334 $505 reversed $207 $-1 #
coedge $-1 $334 $334 $333 $505 forward $209 $-1 #
coedge $-1 $335 $335 $210 $336 forward $330 $-1 #
edge $-1 $506 4.8280493666204845e-015 $506 6.2831853071796049 $335 $507 forward 7 unknown #
loop $-1 $-1 $342 $211 #
plane-surface $-1 -45.460730439595345 -29.761395392051909 2.5483115031961461 0 -0.55919291073839883 0.82903756765294845 1 0 0 forward_v I I I I #
loop $-1 $-1 $508 $134 #
coedge $-1 $340 $340 $341 $509 reversed $212 $-1 #
coedge $-1 $341 $341 $340 $509 forward $214 $-1 #
coedge $-1 $342 $342 $215 $343 forward $337 $-1 #
edge $-1 $510 4.8280493666204845e-015 $510 6.2831853071796049 $342 $511 forward 7 unknown #
loop $-1 $-1 $349 $216 #
plane-surface $-1 -45.460730439595345 -29.761395392051909 2.5483115031961461 0 -0.55919291073839883 0.82903756765294845 1 0 0 forward_v I I I I #
loop $-1 $-1 $512 $137 #
coedge $-1 $347 $347 $348 $513 reversed $217 $-1 #
coedge $-1 $348 $348 $347 $513 forward $219 $-1 #
coedge $-1 $349 $349 $220 $350 forward $344 $-1 #
edge $-1 $514 4.8280493666204845e-015 $514 6.2831853071796049 $349 $515 forward 7 unknown #
face $-1 $516 $517 $72 $-1 $518 reversed single #
loop $-1 $-1 $519 $221 #
plane-surface $-1 53.86868001129082 -97.180602077030358 102.50139397235817 -1 0 0 0 -0.55919291073839883 0.82903756765294845 forward_v I I I I #
coedge $-1 $520 $521 $522 $523 reversed $222 $-1 #
coedge $-1 $356 $224 $524 $525 reversed $141 $-1 #
coedge $-1 $224 $355 $520 $526 reversed $141 $-1 #
coedge $-1 $522 $527 $224 $358 forward $517 $-1 #
edge $-1 $528 44.979886416817664 $529 48.702385482982947 $357 $530 forward 7 unknown #
loop $-1 $-1 $364 $225 #
plane-surface $-1 45.460730439595359 -29.761395392051909 2.5483115031961461 0 -0.55919291073839883 0.82903756765294845 1 0 0 forward_v I I I I #
loop $-1 $-1 $531 $143 #
coedge $-1 $362 $362 $363 $532 reversed $226 $-1 #
coedge $-1 $363 $363 $362 $532 forward $228 $-1 #
coedge $-1 $364 $364 $229 $365 forward $359 $-1 #
edge $-1 $533 4.8280493666204845e-015 $533 6.2831853071796049 $364 $534 forward 7 unknown #
loop $-1 $-1 $371 $230 #
plane-surface $-1 45.460730439595359 -29.761395392051909 2.5483115031961461 0 -0.55919291073839883 0.82903756765294845 1 0 0 forward_v I I I I #
loop $-1 $-1 $535 $146 #
coedge $-1 $369 $369 $370 $536 reversed $231 $-1 #
coedge $-1 $370 $370 $369 $536 forward $233 $-1 #
coedge $-1 $371 $371 $234 $372 forward $366 $-1 #
edge $-1 $537 4.8280493666204845e-015 $537 6.2831853071796049 $371 $538 forward 7 unknown #
loop $-1 $-1 $378 $235 #
plane-surface $-1 45.460730439595359 -29.761395392051909 2.5483115031961461 0 -0.55919291073839883 0.82903756765294845 1 0 0 forward_v I I I I #
loop $-1 $-1 $539 $149 #
coedge $-1 $376 $376 $377 $540 reversed $236 $-1 #
coedge $-1 $377 $377 $376 $540 forward $238 $-1 #
coedge $-1 $378 $378 $239 $379 forward $373 $-1 #
edge $-1 $541 4.8280493666204845e-015 $541 6.2831853071796049 $378 $542 forward 7 unknown #
face $-1 $543 $544 $57 $-1 $545 reversed single #
loop $-1 $-1 $546 $240 #
plane-surface $-1 -60.282601397747733 0 0 1 0 0 0 0 -1 forward_v I I I I #
coedge $-1 $547 $391 $548 $549 forward $241 $-1 #
coedge $-1 $550 $243 $547 $551 forward $153 $-1 #
coedge $-1 $243 $550 $552 $553 forward $153 $-1 #
coedge $-1 $394 $393 $243 $387 reversed $395 $-1 #
edge $-1 $554 -29.761395392051917 $555 29.761395392051917 $386 $556 forward 7 unknown #
coedge $-1 $245 $244 $557 $558 forward $96 $-1 #
coedge $-1 $559 $560 $244 $390 reversed $544 $-1 #
edge $-1 $397 -60.282601397747733 $561 60.282601397747733 $389 $562 forward 7 unknown #
coedge $-1 $383 $563 $245 $392 reversed $241 $-1 #
edge $-1 $564 -60.282601397747733 $396 60.282601397747733 $391 $565 forward 7 unknown #
coedge $-1 $386 $246 $563 $566 forward $395 $-1 #
coedge $-1 $246 $386 $559 $567 reversed $395 $-1 #
loop $-1 $-1 $393 $543 #
vertex $-1 $247 $568 #
vertex $-1 $247 $569 #
straight-curve $-1 60.282601397747733 0 6.2708105693614193 0 1 0 I I #
face $-1 $570 $571 $58 $-1 $572 reversed single #
loop $-1 $-1 $404 $248 #
plane-surface $-1 0 -29.761395392051917 0 0 1 0 0 0 1 forward_v I I I I #
coedge $-1 $573 $574 $403 $575 forward $249 $-1 #
coedge $-1 $411 $251 $402 $575 reversed $157 $-1 #
coedge $-1 $409 $576 $251 $405 forward $400 $-1 #
edge $-1 $577 -4.0170639886365063 $412 -0.49042917281331988 $404 $578 forward 7 unknown #
coedge $-1 $253 $252 $579 $580 reversed $99 $-1 #
coedge $-1 $581 $582 $252 $408 forward $583 $-1 #
edge $-1 $584 -31.744781045488097 $413 -25.330859659031177 $407 $585 forward 7 unknown #
coedge $-1 $586 $404 $253 $410 forward $400 $-1 #
edge $-1 $412 25.330859659031177 $587 31.744781045488097 $409 $588 forward 7 unknown #
coedge $-1 $254 $403 $581 $589 reversed $157 $-1 #
vertex $-1 $410 $590 #
vertex $-1 $408 $591 #
straight-curve $-1 -53.868680011290813 0 -2.744175753538233 0 1 0 I I #
face $-1 $592 $593 $59 $-1 $594 reversed single #
loop $-1 $-1 $595 $256 #
plane-surface $-1 0 0 -6.2708105693614193 0 0 1 1 0 0 forward_v I I I I #
coedge $-1 $596 $597 $261 $426 forward $257 $-1 #
coedge $-1 $598 $259 $595 $599 reversed $161 $-1 #
coedge $-1 $259 $598 $423 $600 reversed $161 $-1 #
coedge $-1 $424 $601 $259 $422 forward $593 $-1 #
edge $-1 $602 -4.0170639886365063 $603 -0.49042917281331988 $421 $604 forward 7 unknown #
coedge $-1 $261 $260 $420 $600 forward $102 $-1 #
coedge $-1 $605 $421 $260 $425 forward $593 $-1 #
edge $-1 $603 25.33085965903118 $430 31.7447810454881 $424 $606 forward 7 unknown #
edge $-1 $431 -31.7447810454881 $607 -25.33085965903118 $418 $608 forward 7 unknown #
coedge $-1 $609 $262 $597 $610 forward $429 $-1 #
coedge $-1 $262 $609 $605 $611 reversed $429 $-1 #
loop $-1 $-1 $262 $592 #
vertex $-1 $611 $612 #
vertex $-1 $610 $613 #
straight-curve $-1 60.282601397747733 0 -2.744175753538233 0 -1 0 I I #
face $-1 $-1 $614 $60 $-1 $615 forward single #
loop $-1 $-1 $270 $264 #
plane-surface $-1 0 29.761395392051917 0 0 -1 0 0 0 -1 forward_v I I I I #
coedge $-1 $616 $617 $618 $619 reversed $265 $-1 #
coedge $-1 $620 $267 $269 $443 forward $165 $-1 #
coedge $-1 $267 $620 $616 $621 forward $165 $-1 #
coedge $-1 $618 $270 $267 $440 forward $434 $-1 #
edge $-1 $446 -2.1303982452792631 $622 21.544399176108005 $439 $623 forward 7 unknown #
coedge $-1 $624 $625 $268 $442 forward $614 $-1 #
edge $-1 $626 -6.4205355781972564 $445 -1.0696606761313099 $441 $627 forward 7 unknown #
edge $-1 $446 -59.522790784103819 $626 -52.537719622193308 $269 $628 forward 7 unknown #
coedge $-1 $270 $618 $624 $629 reversed $434 $-1 #
vertex $-1 $629 $630 #
vertex $-1 $271 $631 #
straight-curve $-1 -7.5766022201351078 29.761395392051917 66.199854517252419 0 0 -1 I I #
coedge $-1 $448 $448 $-1 $632 reversed $274 $-1 #
edge $-1 $633 0 $633 6.2831853071796004 $275 $634 forward 7 unknown #
vertex $-1 $278 $635 #
ellipse-curve $-1 -26.516440157244922 27.085957941018947 4.0258519439411939 0 0.64278761758704617 0.76604443648966558 1 0 0 1 I I #
coedge $-1 $452 $452 $-1 $636 reversed $281 $-1 #
edge $-1 $637 0 $637 6.2831853071796004 $282 $638 forward 7 unknown #
vertex $-1 $285 $639 #
ellipse-curve $-1 -19.414000930828742 27.085957941018947 4.0258519439411939 0 0.64278761758704617 0.76604443648966558 1 0 0 1 I I #
coedge $-1 $456 $456 $-1 $640 reversed $288 $-1 #
edge $-1 $641 0 $641 6.2831853071796004 $289 $642 forward 7 unknown #
vertex $-1 $292 $643 #
ellipse-curve $-1 -12.311561704412561 27.085957941018947 4.0258519439411939 0 0.64278761758704617 0.76604443648966558 1 0 0 1 I I #
face $-1 $-1 $472 $64 $-1 $644 reversed single #
loop $-1 $-1 $645 $293 #
plane-surface $-1 0 0 6.2708105693614193 0 0 1 1 0 0 forward_v I I I I #
coedge $-1 $646 $647 $648 $649 reversed $294 $-1 #
coedge $-1 $650 $296 $298 $470 forward $184 $-1 #
coedge $-1 $296 $650 $646 $651 forward $184 $-1 #
coedge $-1 $648 $299 $296 $467 forward $472 $-1 #
edge $-1 $474 -21.544399176108012 $652 2.130398245279256 $466 $653 forward 7 unknown #
coedge $-1 $654 $655 $297 $469 forward $461 $-1 #
edge $-1 $656 -6.4205355781972564 $473 -1.0696606761313099 $468 $657 forward 7 unknown #
edge $-1 $474 -59.522790784103819 $656 -52.537719622193308 $298 $658 forward 7 unknown #
coedge $-1 $299 $648 $654 $659 reversed $472 $-1 #
loop $-1 $-1 $648 $460 #
vertex $-1 $659 $660 #
vertex $-1 $300 $661 #
straight-curve $-1 31.25139964152239 29.761395392051917 66.199854517252419 0 0 -1 I I #
coedge $-1 $476 $476 $-1 $662 reversed $303 $-1 #
edge $-1 $663 0 $663 6.2831853071796004 $304 $664 forward 7 unknown #
vertex $-1 $307 $665 #
ellipse-curve $-1 12.311561704412576 27.085957941018947 4.0258519439411939 0 0.64278761758704617 0.76604443648966558 1 0 0 1 I I #
coedge $-1 $480 $480 $-1 $666 reversed $310 $-1 #
edge $-1 $667 0 $667 6.2831853071796004 $311 $668 forward 7 unknown #
vertex $-1 $314 $669 #
ellipse-curve $-1 19.414000930828756 27.085957941018947 4.0258519439411939 0 0.64278761758704617 0.76604443648966558 1 0 0 1 I I #
coedge $-1 $484 $484 $-1 $670 reversed $317 $-1 #
edge $-1 $671 0 $671 6.2831853071796004 $318 $672 forward 7 unknown #
vertex $-1 $321 $673 #
ellipse-curve $-1 26.516440157244936 27.085957941018947 4.0258519439411939 0 0.64278761758704617 0.76604443648966558 1 0 0 1 I I #
face $-1 $-1 $500 $68 $-1 $674 reversed single #
loop $-1 $-1 $675 $322 #
plane-surface $-1 0 0 6.2708105693614193 0 0 1 1 0 0 forward_v I I I I #
coedge $-1 $676 $677 $678 $679 reversed $323 $-1 #
coedge $-1 $680 $325 $327 $498 forward $203 $-1 #
coedge $-1 $325 $680 $676 $681 forward $203 $-1 #
coedge $-1 $678 $328 $325 $495 forward $500 $-1 #
edge $-1 $502 -31.138314791493134 $682 -14.322415648102211 $494 $683 forward 7 unknown #
coedge $-1 $684 $685 $326 $497 forward $489 $-1 #
edge $-1 $686 -24.347737362925717 $501 -18.828905646463262 $496 $687 forward 7 unknown #
edge $-1 $502 -8.6223131303995443e-015 $686 6.6569139105319035 $327 $688 forward 7 unknown #
coedge $-1 $328 $678 $684 $689 reversed $500 $-1 #
loop $-1 $-1 $678 $488 #
vertex $-1 $689 $690 #
vertex $-1 $329 $691 #
straight-curve $-1 -53.868680011290806 -29.761395392051917 51.250696986179086 0 0 -1 I I #
coedge $-1 $504 $504 $-1 $692 reversed $332 $-1 #
edge $-1 $693 0 $693 6.2831853071796004 $333 $694 forward 7 unknown #
vertex $-1 $336 $695 #
ellipse-curve $-1 -50.505500182612622 -27.001979533820688 4.4095610362787827 0 -0.55919291073839883 0.82903756765294845 0.5 0 0 1 I I #
coedge $-1 $508 $508 $-1 $696 reversed $339 $-1 #
edge $-1 $697 0 $697 6.2831853071796004 $340 $698 forward 7 unknown #
vertex $-1 $343 $699 #
ellipse-curve $-1 -45.460730439595345 -27.001979533820688 4.4095610362787827 0 -0.55919291073839883 0.82903756765294845 0.5 0 0 1 I I #
coedge $-1 $512 $512 $-1 $700 reversed $346 $-1 #
edge $-1 $701 0 $701 6.2831853071796004 $347 $702 forward 7 unknown #
vertex $-1 $350 $703 #
ellipse-curve $-1 -40.415960696578068 -27.001979533820688 4.4095610362787827 0 -0.55919291073839883 0.82903756765294845 0.5 0 0 1 I I #
face $-1 $-1 $704 $72 $-1 $705 forward single #
loop $-1 $-1 $357 $351 #
plane-surface $-1 0 -29.761395392051917 0 0 1 0 0 0 1 forward_v I I I I #
coedge $-1 $706 $707 $708 $709 reversed $352 $-1 #
coedge $-1 $710 $354 $356 $526 forward $222 $-1 #
coedge $-1 $354 $710 $706 $711 forward $222 $-1 #
coedge $-1 $708 $357 $354 $523 forward $517 $-1 #
edge $-1 $529 14.322415648102218 $712 31.138314791493141 $522 $713 forward 7 unknown #
coedge $-1 $714 $715 $355 $525 forward $704 $-1 #
edge $-1 $716 -24.347737362925717 $528 -18.828905646463262 $524 $717 forward 7 unknown #
edge $-1 $529 -8.6223131303995443e-015 $716 6.6569139105319035 $356 $718 forward 7 unknown #
coedge $-1 $357 $708 $714 $719 reversed $517 $-1 #
vertex $-1 $719 $720 #
vertex $-1 $358 $721 #
straight-curve $-1 37.052780867899898 -29.761395392051917 51.250696986179086 0 0 -1 I I #
coedge $-1 $531 $531 $-1 $722 reversed $361 $-1 #
edge $-1 $723 0 $723 6.2831853071796004 $362 $724 forward 7 unknown #
vertex $-1 $365 $725 #
ellipse-curve $-1 40.415960696578075 -27.001979533820688 4.4095610362787827 0 -0.55919291073839883 0.82903756765294845 0.5 0 0 1 I I #
coedge $-1 $535 $535 $-1 $726 reversed $368 $-1 #
edge $-1 $727 0 $727 6.2831853071796004 $369 $728 forward 7 unknown #
vertex $-1 $372 $729 #
ellipse-curve $-1 45.460730439595359 -27.001979533820688 4.4095610362787827 0 -0.55919291073839883 0.82903756765294845 0.5 0 0 1 I I #
coedge $-1 $539 $539 $-1 $730 reversed $375 $-1 #
edge $-1 $731 0 $731 6.2831853071796004 $376 $732 forward 7 unknown #
vertex $-1 $379 $733 #
ellipse-curve $-1 50.505500182612643 -27.001979533820688 4.4095610362787827 0 -0.55919291073839883 0.82903756765294845 0.5 0 0 1 I I #
face $-1 $-1 $395 $57 $-1 $734 reversed single #
loop $-1 $-1 $559 $380 #
plane-surface $-1 0 29.761395392051917 0 0 -1 0 0 0 -1 forward_v I I I I #
coedge $-1 $735 $557 $560 $736 forward $381 $-1 #
coedge $-1 $563 $383 $384 $551 reversed $241 $-1 #
coedge $-1 $557 $735 $383 $549 reversed $381 $-1 #
edge $-1 $564 -6.2708105693614193 $737 6.2708105693614193 $548 $738 forward 7 unknown #
coedge $-1 $385 $384 $735 $739 forward $153 $-1 #
edge $-1 $555 -60.282601397747733 $737 60.282601397747733 $547 $740 forward 7 unknown #
coedge $-1 $560 $559 $385 $553 reversed $544 $-1 #
edge $-1 $741 -60.282601397747733 $554 60.282601397747733 $552 $742 forward 7 unknown #
vertex $-1 $387 $743 #
vertex $-1 $566 $744 #
straight-curve $-1 60.282601397747733 0 -6.2708105693614193 0 -1 0 I I #
coedge $-1 $546 $548 $388 $558 reversed $381 $-1 #
edge $-1 $561 -29.761395392051917 $564 29.761395392051917 $557 $745 forward 7 unknown #
coedge $-1 $552 $389 $394 $567 forward $544 $-1 #
coedge $-1 $389 $552 $546 $736 reversed $544 $-1 #
vertex $-1 $390 $746 #
straight-curve $-1 0 29.761395392051917 6.2708105693614193 -1 0 0 I I #
coedge $-1 $391 $547 $393 $566 reversed $241 $-1 #
vertex $-1 $558 $747 #
straight-curve $-1 0 -29.761395392051917 6.2708105693614193 1 0 0 I I #
edge $-1 $396 -6.2708105693614193 $555 6.2708105693614193 $393 $748 forward 7 unknown #
edge $-1 $397 -6.2708105693614193 $554 6.2708105693614193 $394 $749 forward 7 unknown #
point $-1 60.282601397747733 -29.761395392051917 6.2708105693614193 #
point $-1 60.282601397747733 29.761395392051917 6.2708105693614193 #
face $-1 $-1 $583 $58 $-1 $750 reversed single #
loop $-1 $-1 $579 $399 #
plane-surface $-1 -60.282601397747733 0 0 1 0 0 0 0 -1 forward_v I I I I #
coedge $-1 $751 $402 $576 $752 forward $249 $-1 #
coedge $-1 $402 $751 $753 $754 forward $249 $-1 #
edge $-1 $755 -29.761395392051917 $577 29.761395392051917 $402 $756 forward 7 unknown #
coedge $-1 $404 $586 $573 $752 reversed $400 $-1 #
vertex $-1 $752 $757 #
straight-curve $-1 -53.868680011290813 -29.761395392051917 -2.2537465807249131 0 0 1 I I #
coedge $-1 $758 $759 $406 $580 forward $571 $-1 #
edge $-1 $587 -29.761395392051917 $584 29.761395392051917 $579 $760 forward 7 unknown #
coedge $-1 $753 $407 $411 $589 forward $583 $-1 #
coedge $-1 $407 $753 $758 $761 reversed $583 $-1 #
loop $-1 $-1 $581 $570 #
vertex $-1 $761 $762 #
straight-curve $-1 -28.537820352259637 29.761395392051917 -2.744175753538233 1 0 0 I I #
coedge $-1 $576 $409 $759 $763 forward $400 $-1 #
vertex $-1 $763 $764 #
straight-curve $-1 -28.537820352259637 -29.761395392051917 -2.744175753538233 -1 0 0 I I #
edge $-1 $413 0.49042917281331988 $755 4.0170639886365063 $581 $765 forward 7 unknown #
point $-1 -53.868680011290813 -29.761395392051917 -2.744175753538233 #
point $-1 -53.868680011290813 29.761395392051917 -2.744175753538233 #
face $-1 $-1 $429 $59 $-1 $766 reversed single #
loop $-1 $-1 $424 $415 #
plane-surface $-1 0 29.761395392051917 0 0 -1 0 0 0 -1 forward_v I I I I #
coedge $-1 $767 $768 $419 $599 forward $416 $-1 #
coedge $-1 $769 $418 $598 $770 forward $257 $-1 #
coedge $-1 $418 $769 $427 $610 reversed $257 $-1 #
coedge $-1 $420 $419 $596 $770 reversed $161 $-1 #
edge $-1 $771 -29.761395392051917 $602 29.761395392051917 $595 $772 forward 7 unknown #
edge $-1 $603 -29.761395392051917 $607 29.761395392051917 $420 $773 forward 7 unknown #
coedge $-1 $421 $605 $767 $774 reversed $593 $-1 #
vertex $-1 $774 $775 #
vertex $-1 $425 $776 #
straight-curve $-1 53.86868001129082 29.761395392051917 -2.2537465807249131 0 0 1 I I #
coedge $-1 $601 $424 $428 $611 forward $593 $-1 #
straight-curve $-1 28.53782035225964 29.761395392051917 -2.744175753538233 1 0 0 I I #
vertex $-1 $426 $777 #
straight-curve $-1 28.53782035225964 -29.761395392051917 -2.744175753538233 -1 0 0 I I #
coedge $-1 $428 $427 $778 $779 reversed $429 $-1 #
edge $-1 $431 2.744175753538233 $780 6.2708105693614193 $427 $781 forward 7 unknown #
edge $-1 $430 2.744175753538233 $782 6.2708105693614193 $428 $783 forward 7 unknown #
point $-1 60.28260139774774 29.761395392051917 -2.744175753538233 #
point $-1 60.28260139774774 -29.761395392051917 -2.744175753538233 #
loop $-1 $-1 $441 $433 #
plane-surface $-1 0 0 6.2708105693614193 0 0 1 1 0 0 forward_v I I I I #
coedge $-1 $617 $436 $438 $621 reversed $265 $-1 #
coedge $-1 $436 $616 $784 $785 reversed $265 $-1 #
coedge $-1 $444 $439 $436 $619 forward $434 $-1 #
edge $-1 $622 -64.418961198731438 $786 -59.929043947891003 $618 $787 forward 7 unknown #
coedge $-1 $438 $437 $625 $788 reversed $165 $-1 #
edge $-1 $789 52.537719622193308 $622 59.522790784103819 $616 $790 forward 7 unknown #
vertex $-1 $440 $791 #
straight-curve $-1 -9.7070004654143709 29.761395392051917 1.7808933185209845 -1 0 0 I I #
coedge $-1 $784 $441 $444 $629 forward $614 $-1 #
coedge $-1 $441 $784 $620 $788 forward $614 $-1 #
vertex $-1 $442 $792 #
straight-curve $-1 -7.5766022201351078 30.831056068183226 6.2708105693614158 0 1 0 I I #
straight-curve $-1 -7.5766022201351078 -15.835707332449154 40.041406198767262 0 -0.76604443648966558 0.64278761758704617 I I #
edge $-1 $445 7.5766022201351078 $786 31.251399641522376 $444 $793 forward 7 unknown #
point $-1 -7.5766022201351078 29.761395392051917 6.2708105693614193 #
point $-1 -7.5766022201351078 29.761395392051917 1.780893318520981 #
edge $-1 $794 1 $794 0 $448 $-1 forward 7 unknown #
vertex $-1 $449 $795 #
ellipse-curve $-1 -26.516440157244922 26.300221827403682 3.0894481273221328 0 0.64278761758704617 0.76604443648966558 1 0 0 1 I I #
point $-1 -25.516440157244922 27.08595794101895 4.0258519439412019 #
edge $-1 $796 1 $796 0 $452 $-1 forward 7 unknown #
vertex $-1 $453 $797 #
ellipse-curve $-1 -19.414000930828742 26.300221827403682 3.0894481273221328 0 0.64278761758704617 0.76604443648966558 1 0 0 1 I I #
point $-1 -18.414000930828742 27.08595794101895 4.0258519439412019 #
edge $-1 $798 1 $798 0 $456 $-1 forward 7 unknown #
vertex $-1 $457 $799 #
ellipse-curve $-1 -12.311561704412561 26.300221827403682 3.0894481273221328 0 0.64278761758704617 0.76604443648966558 1 0 0 1 I I #
point $-1 -11.311561704412561 27.08595794101895 4.0258519439412019 #
plane-surface $-1 0 29.761395392051917 0 0 -1 0 0 0 -1 forward_v I I I I #
coedge $-1 $655 $654 $647 $800 forward $461 $-1 #
coedge $-1 $647 $463 $465 $651 reversed $294 $-1 #
coedge $-1 $463 $646 $645 $800 reversed $294 $-1 #
coedge $-1 $471 $466 $463 $649 forward $472 $-1 #
edge $-1 $652 -64.418961198731438 $801 -59.929043947891003 $648 $802 forward 7 unknown #
coedge $-1 $465 $464 $655 $803 reversed $184 $-1 #
edge $-1 $804 52.537719622193308 $652 59.522790784103819 $646 $805 forward 7 unknown #
vertex $-1 $467 $806 #
straight-curve $-1 9.707000465414378 29.761395392051917 1.7808933185209845 -1 0 0 I I #
coedge $-1 $645 $468 $471 $659 forward $461 $-1 #
coedge $-1 $468 $645 $650 $803 forward $461 $-1 #
vertex $-1 $469 $807 #
straight-curve $-1 31.25139964152239 30.831056068183226 6.2708105693614158 0 1 0 I I #
straight-curve $-1 31.25139964152239 -15.835707332449154 40.041406198767262 0 -0.76604443648966558 0.64278761758704617 I I #
edge $-1 $473 -31.25139964152239 $801 -7.576602220135122 $471 $808 forward 7 unknown #
point $-1 31.25139964152239 29.761395392051917 6.2708105693614193 #
point $-1 31.25139964152239 29.761395392051917 1.780893318520981 #
edge $-1 $809 1 $809 0 $476 $-1 forward 7 unknown #
vertex $-1 $477 $810 #
ellipse-curve $-1 12.311561704412576 26.300221827403682 3.0894481273221328 0 0.64278761758704617 0.76604443648966558 1 0 0 1 I I #
point $-1 13.311561704412576 27.08595794101895 4.0258519439412019 #
edge $-1 $811 1 $811 0 $480 $-1 forward 7 unknown #
vertex $-1 $481 $812 #
ellipse-curve $-1 19.414000930828756 26.300221827403682 3.0894481273221328 0 0.64278761758704617 0.76604443648966558 1 0 0 1 I I #
point $-1 20.414000930828756 27.08595794101895 4.0258519439412019 #
edge $-1 $813 1 $813 0 $484 $-1 forward 7 unknown #
vertex $-1 $485 $814 #
ellipse-curve $-1 26.516440157244936 26.300221827403682 3.0894481273221328 0 0.64278761758704617 0.76604443648966558 1 0 0 1 I I #
point $-1 27.516440157244936 27.08595794101895 4.0258519439412019 #
plane-surface $-1 0 -29.761395392051917 0 0 1 0 0 0 1 forward_v I I I I #
coedge $-1 $685 $684 $677 $815 forward $489 $-1 #
coedge $-1 $677 $491 $493 $681 reversed $323 $-1 #
coedge $-1 $491 $676 $675 $815 reversed $323 $-1 #
coedge $-1 $499 $494 $491 $679 forward $500 $-1 #
edge $-1 $682 -48.702385482982947 $816 -44.979886416817664 $678 $817 forward 7 unknown #
coedge $-1 $493 $492 $685 $818 reversed $203 $-1 #
edge $-1 $819 -6.6569139105319035 $682 8.6223131303995443e-015 $676 $820 forward 7 unknown #
vertex $-1 $495 $821 #
straight-curve $-1 -22.730365219797672 -29.761395392051917 2.5483115031961416 1 0 0 I I #
coedge $-1 $675 $496 $499 $689 forward $489 $-1 #
coedge $-1 $496 $675 $680 $818 forward $489 $-1 #
vertex $-1 $497 $822 #
straight-curve $-1 -53.868680011290806 -48.590301038515179 6.2708105693614158 0 -1 0 I I #
straight-curve $-1 -53.868680011290806 -29.761395392051909 2.5483115031961461 0 0.82903756765294845 0.55919291073839883 I I #
edge $-1 $501 -53.868680011290806 $816 -37.052780867899884 $499 $823 forward 7 unknown #
point $-1 -53.868680011290806 -29.761395392051917 6.2708105693614193 #
point $-1 -53.868680011290806 -29.761395392051917 2.5483115031961412 #
edge $-1 $824 1 $824 0 $504 $-1 forward 7 unknown #
vertex $-1 $505 $825 #
ellipse-curve $-1 -50.505500182612622 -26.442786623082284 3.5805234686258278 0 -0.55919291073839883 0.82903756765294845 0.5 0 0 1 I I #
point $-1 -50.005500182612622 -27.001979533820681 4.4095610362787765 #
edge $-1 $826 1 $826 0 $508 $-1 forward 7 unknown #
vertex $-1 $509 $827 #
ellipse-curve $-1 -45.460730439595345 -26.442786623082284 3.5805234686258278 0 -0.55919291073839883 0.82903756765294845 0.5 0 0 1 I I #
point $-1 -44.960730439595345 -27.001979533820681 4.4095610362787765 #
edge $-1 $828 1 $828 0 $512 $-1 forward 7 unknown #
vertex $-1 $513 $829 #
ellipse-curve $-1 -40.415960696578068 -26.442786623082284 3.5805234686258278 0 -0.55919291073839883 0.82903756765294845 0.5 0 0 1 I I #
point $-1 -39.915960696578068 -27.001979533820681 4.4095610362787765 #
loop $-1 $-1 $524 $516 #
plane-surface $-1 0 0 6.2708105693614193 0 0 1 1 0 0 forward_v I I I I #
coedge $-1 $707 $519 $521 $711 reversed $352 $-1 #
coedge $-1 $519 $706 $830 $831 reversed $352 $-1 #
coedge $-1 $527 $522 $519 $709 forward $517 $-1 #
edge $-1 $712 -48.702385482982947 $832 -44.979886416817664 $708 $833 forward 7 unknown #
coedge $-1 $521 $520 $715 $834 reversed $222 $-1 #
edge $-1 $835 -6.6569139105319035 $712 8.6223131303995443e-015 $706 $836 forward 7 unknown #
vertex $-1 $523 $837 #
straight-curve $-1 22.73036521979768 -29.761395392051917 2.5483115031961416 1 0 0 I I #
coedge $-1 $830 $524 $527 $719 forward $704 $-1 #
coedge $-1 $524 $830 $710 $834 forward $704 $-1 #
vertex $-1 $525 $838 #
straight-curve $-1 37.052780867899898 -48.590301038515179 6.2708105693614158 0 -1 0 I I #
straight-curve $-1 37.052780867899898 -29.761395392051909 2.5483115031961461 0 0.82903756765294845 0.55919291073839883 I I #
edge $-1 $528 37.052780867899898 $832 53.86868001129082 $527 $839 forward 7 unknown #
point $-1 37.052780867899898 -29.761395392051917 6.2708105693614193 #
point $-1 37.052780867899898 -29.761395392051917 2.5483115031961412 #
edge $-1 $840 1 $840 0 $531 $-1 forward 7 unknown #
vertex $-1 $532 $841 #
ellipse-curve $-1 40.415960696578075 -26.442786623082284 3.5805234686258278 0 -0.55919291073839883 0.82903756765294845 0.5 0 0 1 I I #
point $-1 40.915960696578075 -27.001979533820681 4.4095610362787765 #
edge $-1 $842 1 $842 0 $535 $-1 forward 7 unknown #
vertex $-1 $536 $843 #
ellipse-curve $-1 45.460730439595359 -26.442786623082284 3.5805234686258278 0 -0.55919291073839883 0.82903756765294845 0.5 0 0 1 I I #
point $-1 45.960730439595359 -27.001979533820681 4.4095610362787765 #
edge $-1 $844 1 $844 0 $539 $-1 forward 7 unknown #
vertex $-1 $540 $845 #
ellipse-curve $-1 50.505500182612643 -26.442786623082284 3.5805234686258278 0 -0.55919291073839883 0.82903756765294845 0.5 0 0 1 I I #
point $-1 51.005500182612643 -27.001979533820681 4.4095610362787765 #
plane-surface $-1 60.282601397747733 0 0 -1 0 0 0 0 1 forward_v I I I I #
coedge $-1 $548 $546 $550 $739 reversed $381 $-1 #
edge $-1 $561 -6.2708105693614193 $741 6.2708105693614193 $560 $846 forward 7 unknown #
vertex $-1 $739 $847 #
straight-curve $-1 -60.282601397747733 -29.761395392051917 0 0 0 -1 I I #
edge $-1 $737 -29.761395392051917 $741 29.761395392051917 $735 $848 forward 7 unknown #
straight-curve $-1 0 -29.761395392051917 -6.2708105693614193 -1 0 0 I I #
vertex $-1 $553 $849 #
straight-curve $-1 0 29.761395392051917 -6.2708105693614193 1 0 0 I I #
point $-1 60.282601397747733 29.761395392051917 -6.2708105693614193 #
point $-1 60.282601397747733 -29.761395392051917 -6.2708105693614193 #
straight-curve $-1 -60.282601397747733 0 6.2708105693614193 0 -1 0 I I #
point $-1 -60.282601397747733 29.761395392051917 6.2708105693614193 #
point $-1 -60.282601397747733 -29.761395392051917 6.2708105693614193 #
straight-curve $-1 60.282601397747733 -29.761395392051917 0 0 0 -1 I I #
straight-curve $-1 60.282601397747733 29.761395392051917 0 0 0 -1 I I #
plane-surface $-1 0 29.761395392051917 0 0 -1 0 0 0 -1 forward_v I I I I #
coedge $-1 $574 $573 $850 $851 forward $249 $-1 #
edge $-1 $577 53.868680011290813 $852 60.282601397747733 $576 $853 forward 7 unknown #
coedge $-1 $582 $581 $574 $754 reversed $583 $-1 #
edge $-1 $854 -60.282601397747733 $755 -53.868680011290813 $753 $855 forward 7 unknown #
vertex $-1 $589 $856 #
straight-curve $-1 -53.868680011290813 0 -6.2708105693614193 0 -1 0 I I #
point $-1 -53.868680011290813 -29.761395392051917 -6.2708105693614193 #
coedge $-1 $850 $579 $582 $761 forward $571 $-1 #
coedge $-1 $579 $850 $586 $763 reversed $571 $-1 #
straight-curve $-1 -60.282601397747733 0 -2.744175753538233 0 1 0 I I #
edge $-1 $584 2.744175753538233 $854 6.2708105693614193 $582 $857 forward 7 unknown #
point $-1 -60.282601397747733 29.761395392051917 -2.744175753538233 #
edge $-1 $587 2.744175753538233 $852 6.2708105693614193 $759 $858 forward 7 unknown #
point $-1 -60.282601397747733 -29.761395392051917 -2.744175753538233 #
straight-curve $-1 -53.868680011290813 29.761395392051917 -2.2537465807249131 0 0 -1 I I #
plane-surface $-1 60.282601397747733 0 0 -1 0 0 0 0 1 forward_v I I I I #
coedge $-1 $778 $595 $601 $774 forward $416 $-1 #
coedge $-1 $595 $778 $769 $859 forward $416 $-1 #
coedge $-1 $597 $596 $768 $859 reversed $257 $-1 #
edge $-1 $607 0.49042917281331988 $771 4.0170639886365063 $596 $860 forward 7 unknown #
vertex $-1 $599 $861 #
straight-curve $-1 53.86868001129082 0 -6.2708105693614193 0 1 0 I I #
straight-curve $-1 53.86868001129082 0 -2.744175753538233 0 -1 0 I I #
edge $-1 $602 53.86868001129082 $782 60.282601397747733 $601 $862 forward 7 unknown #
point $-1 53.86868001129082 29.761395392051917 -6.2708105693614193 #
point $-1 53.86868001129082 29.761395392051917 -2.744175753538233 #
point $-1 53.86868001129082 -29.761395392051917 -2.744175753538233 #
coedge $-1 $768 $767 $609 $779 forward $416 $-1 #
edge $-1 $782 -29.761395392051917 $780 29.761395392051917 $609 $863 forward 7 unknown #
vertex $-1 $610 $864 #
straight-curve $-1 60.282601397747733 -29.761395392051917 0 0 0 -1 I I #
vertex $-1 $779 $865 #
straight-curve $-1 60.282601397747733 29.761395392051917 0 0 0 -1 I I #
coedge $-1 $625 $624 $617 $785 forward $614 $-1 #
edge $-1 $786 1.0696606761313099 $789 6.4205355781972564 $784 $866 forward 7 unknown #
vertex $-1 $785 $867 #
straight-curve $-1 -31.251399641522376 29.761395392051917 66.199854517252419 0 0 1 I I #
edge $-1 $789 -21.544399176108005 $626 2.1303982452792631 $625 $868 forward 7 unknown #
vertex $-1 $788 $869 #
straight-curve $-1 -31.251399641522376 -15.835707332449154 40.041406198767262 0 0.76604443648966558 -0.64278761758704617 I I #
point $-1 -31.251399641522376 29.761395392051917 1.780893318520981 #
point $-1 -7.5766022201351078 24.41052048998597 6.2708105693614158 #
straight-curve $-1 0 29.761395392051917 6.2708105693614193 -1 0 0 I I #
vertex $-1 $632 $870 #
point $-1 -25.516440157244922 26.300221827403682 3.0894481273221328 #
vertex $-1 $636 $871 #
point $-1 -18.414000930828742 26.300221827403682 3.0894481273221328 #
vertex $-1 $640 $872 #
point $-1 -11.311561704412561 26.300221827403682 3.0894481273221328 #
edge $-1 $801 1.0696606761313099 $804 6.4205355781972564 $645 $873 forward 7 unknown #
vertex $-1 $800 $874 #
straight-curve $-1 7.576602220135122 29.761395392051917 66.199854517252419 0 0 1 I I #
edge $-1 $804 -2.130398245279256 $656 21.544399176108012 $655 $875 forward 7 unknown #
vertex $-1 $803 $876 #
straight-curve $-1 7.576602220135122 -15.835707332449154 40.041406198767262 0 0.76604443648966558 -0.64278761758704617 I I #
point $-1 7.576602220135122 29.761395392051917 1.780893318520981 #
point $-1 31.25139964152239 24.41052048998597 6.2708105693614158 #
straight-curve $-1 0 29.761395392051917 6.2708105693614193 -1 0 0 I I #
vertex $-1 $662 $877 #
point $-1 13.311561704412576 26.300221827403682 3.0894481273221328 #
vertex $-1 $666 $878 #
point $-1 20.414000930828756 26.300221827403682 3.0894481273221328 #
vertex $-1 $670 $879 #
point $-1 27.516440157244936 26.300221827403682 3.0894481273221328 #
edge $-1 $816 18.828905646463262 $819 24.347737362925717 $675 $880 forward 7 unknown #
vertex $-1 $679 $881 #
straight-curve $-1 -37.052780867899884 -29.761395392051917 51.250696986179086 0 0 1 I I #
edge $-1 $819 14.322415648102211 $686 31.138314791493134 $685 $882 forward 7 unknown #
vertex $-1 $818 $883 #
straight-curve $-1 -37.052780867899884 -29.761395392051909 2.5483115031961461 0 -0.82903756765294845 -0.55919291073839883 I I #
point $-1 -37.052780867899884 -29.761395392051917 2.5483115031961412 #
point $-1 -53.868680011290806 -24.242563675589462 6.2708105693614193 #
straight-curve $-1 0 -29.761395392051917 6.2708105693614193 1 0 0 I I #
vertex $-1 $692 $884 #
point $-1 -50.005500182612622 -26.442786623082284 3.5805234686258278 #
vertex $-1 $696 $885 #
point $-1 -44.960730439595345 -26.442786623082284 3.5805234686258278 #
vertex $-1 $700 $886 #
point $-1 -39.915960696578068 -26.442786623082284 3.5805234686258278 #
coedge $-1 $715 $714 $707 $831 forward $704 $-1 #
edge $-1 $832 18.828905646463262 $835 24.347737362925717 $830 $887 forward 7 unknown #
vertex $-1 $831 $888 #
straight-curve $-1 53.86868001129082 -29.761395392051917 51.250696986179086 0 0 1 I I #
edge $-1 $835 -31.138314791493141 $716 -14.322415648102218 $715 $889 forward 7 unknown #
vertex $-1 $834 $890 #
straight-curve $-1 53.86868001129082 -29.761395392051909 2.5483115031961461 0 -0.82903756765294845 -0.55919291073839883 I I #
point $-1 53.86868001129082 -29.761395392051917 2.5483115031961412 #
point $-1 37.052780867899898 -24.242563675589462 6.2708105693614193 #
straight-curve $-1 0 -29.761395392051917 6.2708105693614193 1 0 0 I I #
vertex $-1 $722 $891 #
point $-1 40.915960696578075 -26.442786623082284 3.5805234686258278 #
vertex $-1 $726 $892 #
point $-1 45.960730439595359 -26.442786623082284 3.5805234686258278 #
vertex $-1 $730 $893 #
point $-1 51.005500182612643 -26.442786623082284 3.5805234686258278 #
straight-curve $-1 -60.282601397747733 29.761395392051917 0 0 0 -1 I I #
point $-1 -60.282601397747733 -29.761395392051917 -6.2708105693614193 #
straight-curve $-1 -60.282601397747733 0 -6.2708105693614193 0 1 0 I I #
point $-1 -60.282601397747733 29.761395392051917 -6.2708105693614193 #
coedge $-1 $759 $758 $751 $851 reversed $571 $-1 #
edge $-1 $852 -29.761395392051917 $854 29.761395392051917 $850 $894 forward 7 unknown #
vertex $-1 $851 $895 #
straight-curve $-1 0 -29.761395392051917 -6.2708105693614193 -1 0 0 I I #
vertex $-1 $754 $896 #
straight-curve $-1 0 29.761395392051917 -6.2708105693614193 1 0 0 I I #
point $-1 -53.868680011290813 29.761395392051917 -6.2708105693614193 #
straight-curve $-1 -60.282601397747733 29.761395392051917 0 0 0 -1 I I #
straight-curve $-1 -60.282601397747733 -29.761395392051917 0 0 0 -1 I I #
edge $-1 $780 -60.282601397747733 $771 -53.86868001129082 $769 $897 forward 7 unknown #
straight-curve $-1 53.86868001129082 -29.761395392051917 -2.2537465807249131 0 0 -1 I I #
point $-1 53.86868001129082 -29.761395392051917 -6.2708105693614193 #
straight-curve $-1 0 29.761395392051917 -6.2708105693614193 1 0 0 I I #
straight-curve $-1 60.282601397747733 0 -6.2708105693614193 0 -1 0 I I #
point $-1 60.282601397747733 -29.761395392051917 -6.2708105693614193 #
point $-1 60.282601397747733 29.761395392051917 -6.2708105693614193 #
straight-curve $-1 -31.251399641522376 30.831056068183226 6.2708105693614158 0 -1 0 I I #
point $-1 -31.251399641522376 29.761395392051917 6.2708105693614193 #
straight-curve $-1 -9.7070004654143709 24.410520489985956 6.2708105693614229 1 0 0 I I #
point $-1 -31.251399641522376 24.41052048998597 6.2708105693614158 #
point $-1 -26.516440157244922 25.657434209816635 2.3234036908324671 #
point $-1 -19.414000930828742 25.657434209816635 2.3234036908324671 #
point $-1 -12.311561704412561 25.657434209816635 2.3234036908324671 #
straight-curve $-1 7.576602220135122 30.831056068183226 6.2708105693614158 0 -1 0 I I #
point $-1 7.576602220135122 29.761395392051917 6.2708105693614193 #
straight-curve $-1 9.707000465414378 24.410520489985956 6.2708105693614229 1 0 0 I I #
point $-1 7.576602220135122 24.41052048998597 6.2708105693614158 #
point $-1 12.311561704412576 25.657434209816635 2.3234036908324671 #
point $-1 19.414000930828756 25.657434209816635 2.3234036908324671 #
point $-1 26.516440157244936 25.657434209816635 2.3234036908324671 #
straight-curve $-1 -37.052780867899884 -48.590301038515179 6.2708105693614158 0 1 0 I I #
point $-1 -37.052780867899884 -29.761395392051917 6.2708105693614193 #
straight-curve $-1 -22.730365219797672 -24.242563675589466 6.2708105693614193 -1 0 0 I I #
point $-1 -37.052780867899884 -24.242563675589462 6.2708105693614193 #
point $-1 -50.505500182612622 -26.163190167713083 3.1660046847993537 #
point $-1 -45.460730439595345 -26.163190167713083 3.1660046847993537 #
point $-1 -40.415960696578068 -26.163190167713083 3.1660046847993537 #
straight-curve $-1 53.86868001129082 -48.590301038515179 6.2708105693614158 0 1 0 I I #
point $-1 53.86868001129082 -29.761395392051917 6.2708105693614193 #
straight-curve $-1 22.73036521979768 -24.242563675589466 6.2708105693614193 -1 0 0 I I #
point $-1 53.86868001129082 -24.242563675589462 6.2708105693614193 #
point $-1 40.415960696578075 -26.163190167713083 3.1660046847993537 #
point $-1 45.460730439595359 -26.163190167713083 3.1660046847993537 #
point $-1 50.505500182612643 -26.163190167713083 3.1660046847993537 #
straight-curve $-1 -60.282601397747733 0 -6.2708105693614193 0 1 0 I I #
point $-1 -60.282601397747733 -29.761395392051917 -6.2708105693614193 #
point $-1 -60.282601397747733 29.761395392051917 -6.2708105693614193 #
straight-curve $-1 0 -29.761395392051917 -6.2708105693614193 -1 0 0 I I #
End-of-ACIS-data 