500 0 5 0           
7 Unknown 11 ACIS 5.0 NT 24 Thu Mar 25 17:06:01 1999 
-1 9.9999999999999995e-007 1e-010 
body $-1 $5 $-1 $6 #
body $-1 $7 $-1 $8 #
body $-1 $9 $-1 $10 #
body $-1 $11 $-1 $12 #
body $-1 $13 $-1 $14 #
lump $-1 $-1 $15 $0 #
transform $-1 1 0 0 0 1 0 0 0 1 44.007690664387951 19.665193891601344 8.9122032157625295 1 rotate no_reflect no_shear #
lump $-1 $-1 $16 $1 #
transform $-1 1 0 0 0 1 0 0 0 1 44.007690664387951 19.665193891601344 8.9122032157625295 1 rotate no_reflect no_shear #
lump $-1 $-1 $17 $2 #
transform $-1 1 0 0 0 1 0 0 0 1 44.007690664387951 19.665193891601344 8.9122032157625295 1 rotate no_reflect no_shear #
lump $-1 $-1 $18 $3 #
transform $-1 1 0 0 0 1 0 0 0 1 44.007690664387951 19.665193891601344 8.9122032157625295 1 rotate no_reflect no_shear #
lump $-1 $-1 $19 $4 #
transform $-1 1 0 0 0 1 0 0 0 1 44.007690664387951 19.665193891601344 8.9122032157625295 1 rotate no_reflect no_shear #
shell $-1 $-1 $-1 $20 $-1 $5 #
shell $-1 $-1 $-1 $21 $-1 $7 #
shell $-1 $-1 $-1 $22 $-1 $9 #
shell $-1 $-1 $-1 $23 $-1 $11 #
shell $-1 $-1 $-1 $24 $-1 $13 #
face $-1 $25 $26 $15 $-1 $27 forward single #
face $-1 $28 $29 $16 $-1 $30 reversed single #
face $-1 $31 $32 $17 $-1 $33 reversed single #
face $-1 $34 $35 $18 $-1 $36 forward single #
face $-1 $37 $38 $19 $-1 $39 forward single #
face $-1 $40 $41 $15 $-1 $42 reversed single #
loop $-1 $-1 $43 $20 #
plane-surface $-1 0 0 8.9122032157625295 0 0 1 1 0 0 forward_v I I I I #
face $-1 $44 $45 $16 $-1 $46 reversed single #
loop $-1 $-1 $47 $21 #
plane-surface $-1 -38.849875787470566 0 5.3267053028589659 0 0 1 1 0 0 forward_v I I I I #
face $-1 $48 $49 $17 $-1 $50 reversed single #
loop $-1 $-1 $51 $22 #
plane-surface $-1 25.753335441173924 32.952180313715871 98.27466436043477 1 0 0 0 -0.52991927123019833 -0.84804809178421925 forward_v I I I I #
face $-1 $52 $53 $18 $-1 $54 forward single #
loop $-1 $55 $56 $23 #
cone-surface $-1 30.968865504949349 14.035128257904928 4.6796725755811961 0 -0.52991927123019833 -0.84804809178421925 2.5 0 0 1 I I 0 1 2.5 forward I I I I #
face $-1 $57 $58 $19 $-1 $59 forward single #
loop $-1 $60 $61 $24 #
cone-surface $-1 38.792160600612505 14.035128257904928 4.6796725755811961 0 -0.52991927123019833 -0.84804809178421925 2.5 0 0 1 I I 0 1 2.5 forward I I I I #
face $-1 $62 $63 $15 $-1 $64 reversed single #
loop $-1 $-1 $65 $25 #
plane-surface $-1 0 0 -8.9122032157625295 0 0 1 1 0 0 forward_v I I I I #
coedge $-1 $66 $67 $68 $69 forward $26 $-1 #
face $-1 $70 $71 $16 $-1 $72 reversed single #
loop $-1 $-1 $73 $28 #
plane-surface $-1 -33.692060910553181 0 7.1194542593107482 -1 0 0 0 0 1 forward_v I I I I #
coedge $-1 $74 $75 $76 $77 forward $29 $-1 #
face $-1 $78 $79 $17 $-1 $80 forward single #
loop $-1 $-1 $81 $31 #
plane-surface $-1 34.880513052780941 -13.688866417077058 23.633388176905967 0 0.52991927123019833 0.84804809178421925 1 0 0 forward_v I I I I #
coedge $-1 $82 $83 $84 $85 reversed $32 $-1 #
face $-1 $-1 $86 $18 $-1 $87 forward single #
loop $-1 $88 $89 $34 #
cone-surface $-1 30.968865504949349 12.640283604915165 2.4474545557357974 0 -0.52991927123019833 -0.84804809178421925 1.25 0 0 1 I I -0.70710678118654757 0.70710678118654735 1.25 forward I I I I #
loop $-1 $-1 $90 $23 #
coedge $-1 $56 $56 $91 $92 reversed $35 $-1 #
face $-1 $-1 $93 $19 $-1 $94 forward single #
loop $-1 $95 $96 $37 #
cone-surface $-1 38.792160600612505 12.640283604915165 2.4474545557357974 0 -0.52991927123019833 -0.84804809178421925 1.25 0 0 1 I I -0.70710678118654757 0.70710678118654735 1.25 forward I I I I #
loop $-1 $-1 $97 $24 #
coedge $-1 $61 $61 $98 $99 reversed $38 $-1 #
face $-1 $100 $101 $15 $-1 $102 reversed single #
loop $-1 $-1 $103 $40 #
plane-surface $-1 0 -19.665193891601344 0 0 1 0 0 0 1 forward_v I I I I #
coedge $-1 $104 $105 $106 $107 forward $41 $-1 #
coedge $-1 $108 $43 $109 $110 forward $26 $-1 #
coedge $-1 $43 $108 $111 $112 forward $26 $-1 #
coedge $-1 $113 $114 $43 $69 reversed $115 $-1 #
edge $-1 $116 -19.665193891601344 $117 19.665193891601344 $68 $118 forward 7 unknown #
face $-1 $119 $120 $16 $-1 $121 reversed single #
loop $-1 $-1 $122 $44 #
plane-surface $-1 0 19.665193891601344 0 0 -1 0 0 0 -1 forward_v I I I I #
coedge $-1 $76 $123 $124 $125 reversed $45 $-1 #
coedge $-1 $126 $47 $127 $128 reversed $29 $-1 #
coedge $-1 $47 $126 $129 $130 reversed $29 $-1 #
coedge $-1 $131 $73 $47 $77 reversed $45 $-1 #
edge $-1 $132 -19.665193891601344 $133 19.665193891601344 $76 $134 forward 7 unknown #
face $-1 $135 $136 $17 $-1 $137 reversed single #
loop $-1 $-1 $84 $48 #
plane-surface $-1 0 0 8.9122032157625295 0 0 1 1 0 0 forward_v I I I I #
coedge $-1 $138 $139 $140 $141 reversed $49 $-1 #
coedge $-1 $83 $51 $142 $143 reversed $32 $-1 #
coedge $-1 $51 $82 $138 $144 reversed $32 $-1 #
coedge $-1 $140 $145 $51 $85 forward $79 $-1 #
edge $-1 $146 -3.1891037347434086 $147 6.606136404745417 $84 $148 forward 7 unknown #
loop $-1 $-1 $91 $52 #
plane-surface $-1 34.880513052780941 -13.688866417077058 23.633388176905967 0 0.52991927123019833 0.84804809178421925 1 0 0 forward_v I I I I #
loop $-1 $-1 $149 $34 #
coedge $-1 $89 $89 $90 $150 reversed $53 $-1 #
coedge $-1 $90 $90 $89 $150 forward $55 $-1 #
coedge $-1 $91 $91 $56 $92 forward $86 $-1 #
edge $-1 $151 -7.4928209982043301e-017 $151 6.2831853071796004 $91 $152 forward 7 unknown #
loop $-1 $-1 $98 $57 #
plane-surface $-1 34.880513052780941 -13.688866417077058 23.633388176905967 0 0.52991927123019833 0.84804809178421925 1 0 0 forward_v I I I I #
loop $-1 $-1 $153 $37 #
coedge $-1 $96 $96 $97 $154 reversed $58 $-1 #
coedge $-1 $97 $97 $96 $154 forward $60 $-1 #
coedge $-1 $98 $98 $61 $99 forward $93 $-1 #
edge $-1 $155 -7.4928209982043301e-017 $155 6.2831853071796004 $98 $156 forward 7 unknown #
face $-1 $157 $158 $15 $-1 $159 reversed single #
loop $-1 $-1 $160 $62 #
plane-surface $-1 -44.007690664387951 0 0 1 0 0 0 0 -1 forward_v I I I I #
coedge $-1 $161 $111 $162 $163 forward $63 $-1 #
coedge $-1 $164 $65 $161 $165 forward $41 $-1 #
coedge $-1 $65 $164 $166 $167 forward $41 $-1 #
coedge $-1 $114 $113 $65 $107 reversed $115 $-1 #
edge $-1 $168 -19.665193891601344 $169 19.665193891601344 $106 $170 forward 7 unknown #
coedge $-1 $67 $66 $171 $172 forward $26 $-1 #
coedge $-1 $173 $174 $66 $110 reversed $158 $-1 #
edge $-1 $117 -44.007690664387951 $175 44.007690664387951 $109 $176 forward 7 unknown #
coedge $-1 $103 $177 $67 $112 reversed $63 $-1 #
edge $-1 $178 -44.007690664387951 $116 44.007690664387951 $111 $179 forward 7 unknown #
coedge $-1 $106 $68 $177 $180 forward $115 $-1 #
coedge $-1 $68 $106 $173 $181 reversed $115 $-1 #
loop $-1 $-1 $113 $157 #
vertex $-1 $69 $182 #
vertex $-1 $69 $183 #
straight-curve $-1 44.007690664387951 0 8.9122032157625295 0 1 0 I I #
face $-1 $184 $185 $16 $-1 $186 forward single #
loop $-1 $-1 $187 $70 #
plane-surface $-1 -44.007690664387951 0 0 1 0 0 0 0 -1 forward_v I I I I #
coedge $-1 $129 $188 $131 $189 forward $71 $-1 #
coedge $-1 $73 $131 $190 $191 reversed $45 $-1 #
coedge $-1 $192 $127 $73 $125 forward $193 $-1 #
edge $-1 $133 1.7669781732035919 $194 5.3524760861071572 $124 $195 forward 7 unknown #
coedge $-1 $75 $74 $187 $196 reversed $29 $-1 #
coedge $-1 $124 $197 $74 $128 forward $193 $-1 #
edge $-1 $198 -24.582752770652668 $133 -14.267123016817898 $127 $199 forward 7 unknown #
coedge $-1 $200 $122 $75 $130 forward $71 $-1 #
edge $-1 $132 14.267123016817898 $201 24.582752770652668 $129 $202 forward 7 unknown #
coedge $-1 $123 $76 $122 $189 reversed $45 $-1 #
vertex $-1 $130 $203 #
vertex $-1 $128 $204 #
straight-curve $-1 -33.692060910553181 0 5.3267053028589659 0 -1 0 I I #
face $-1 $-1 $205 $17 $-1 $206 reversed single #
loop $-1 $-1 $207 $78 #
plane-surface $-1 44.007690664387951 0 0 -1 0 0 0 0 1 forward_v I I I I #
coedge $-1 $208 $81 $83 $144 forward $49 $-1 #
coedge $-1 $81 $208 $207 $209 reversed $49 $-1 #
coedge $-1 $210 $84 $81 $141 forward $79 $-1 #
edge $-1 $147 8.3130789147834534 $211 26.567434137997488 $140 $212 forward 7 unknown #
coedge $-1 $213 $214 $82 $143 forward $205 $-1 #
edge $-1 $215 -46.345874434587273 $146 -40.225128964454854 $142 $216 forward 7 unknown #
edge $-1 $147 27.780052095422885 $215 39.330387783202674 $83 $217 forward 7 unknown #
coedge $-1 $84 $210 $213 $218 forward $79 $-1 #
vertex $-1 $143 $219 #
vertex $-1 $85 $220 #
straight-curve $-1 25.753335441173924 16.476090156857936 8.9122032157625313 0 -1 0 I I #
coedge $-1 $149 $149 $-1 $221 reversed $88 $-1 #
edge $-1 $222 0 $222 6.2831853071796004 $89 $223 forward 7 unknown #
vertex $-1 $92 $224 #
ellipse-curve $-1 30.968865504949349 14.767573821856939 5.8518304806963126 0 0.52991927123019833 0.84804809178421925 2.5 0 0 1 I I #
coedge $-1 $153 $153 $-1 $225 reversed $95 $-1 #
edge $-1 $226 0 $226 6.2831853071796004 $96 $227 forward 7 unknown #
vertex $-1 $99 $228 #
ellipse-curve $-1 38.792160600612505 14.767573821856939 5.8518304806963126 0 0.52991927123019833 0.84804809178421925 2.5 0 0 1 I I #
face $-1 $-1 $115 $15 $-1 $229 reversed single #
loop $-1 $-1 $173 $100 #
plane-surface $-1 0 19.665193891601344 0 0 -1 0 0 0 -1 forward_v I I I I #
coedge $-1 $230 $171 $174 $231 forward $101 $-1 #
coedge $-1 $177 $103 $104 $165 reversed $63 $-1 #
coedge $-1 $171 $230 $103 $163 reversed $101 $-1 #
edge $-1 $178 -8.9122032157625295 $232 8.9122032157625295 $162 $233 forward 7 unknown #
coedge $-1 $105 $104 $230 $234 forward $41 $-1 #
edge $-1 $169 -44.007690664387951 $232 44.007690664387951 $161 $235 forward 7 unknown #
coedge $-1 $174 $173 $105 $167 reversed $158 $-1 #
edge $-1 $236 -44.007690664387951 $168 44.007690664387951 $166 $237 forward 7 unknown #
vertex $-1 $107 $238 #
vertex $-1 $180 $239 #
straight-curve $-1 44.007690664387951 0 -8.9122032157625295 0 -1 0 I I #
coedge $-1 $160 $162 $108 $172 reversed $101 $-1 #
edge $-1 $175 -19.665193891601344 $178 19.665193891601344 $171 $240 forward 7 unknown #
coedge $-1 $166 $109 $114 $181 forward $158 $-1 #
coedge $-1 $109 $166 $160 $231 reversed $158 $-1 #
vertex $-1 $110 $241 #
straight-curve $-1 0 19.665193891601344 8.9122032157625295 -1 0 0 I I #
coedge $-1 $111 $161 $113 $180 reversed $63 $-1 #
vertex $-1 $172 $242 #
straight-curve $-1 0 -19.665193891601344 8.9122032157625295 1 0 0 I I #
edge $-1 $116 -8.9122032157625295 $169 8.9122032157625295 $113 $243 forward 7 unknown #
edge $-1 $117 -8.9122032157625295 $168 8.9122032157625295 $114 $244 forward 7 unknown #
point $-1 44.007690664387951 -19.665193891601344 8.9122032157625295 #
point $-1 44.007690664387951 19.665193891601344 8.9122032157625295 #
face $-1 $-1 $193 $16 $-1 $245 reversed single #
loop $-1 $-1 $190 $119 #
plane-surface $-1 0 0 8.9122032157625295 0 0 1 1 0 0 forward_v I I I I #
coedge $-1 $246 $247 $126 $196 forward $120 $-1 #
coedge $-1 $122 $200 $248 $249 reversed $71 $-1 #
edge $-1 $250 -5.3524760861071572 $132 -1.7669781732035919 $122 $251 forward 7 unknown #
coedge $-1 $248 $252 $123 $191 forward $185 $-1 #
edge $-1 $194 -19.665193891601344 $250 19.665193891601344 $190 $253 forward 7 unknown #
coedge $-1 $197 $124 $252 $254 reversed $193 $-1 #
loop $-1 $-1 $124 $184 #
vertex $-1 $125 $255 #
straight-curve $-1 -33.692060910553181 -19.665193891601344 3.5597271296553741 0 0 1 I I #
edge $-1 $201 -19.665193891601344 $198 19.665193891601344 $187 $256 forward 7 unknown #
coedge $-1 $127 $192 $246 $257 forward $193 $-1 #
vertex $-1 $196 $258 #
straight-curve $-1 -19.424937893735283 -19.665193891601344 5.3267053028589659 1 0 0 I I #
coedge $-1 $188 $129 $247 $259 reversed $71 $-1 #
vertex $-1 $196 $260 #
straight-curve $-1 -19.424937893735283 19.665193891601344 5.3267053028589659 -1 0 0 I I #
point $-1 -33.692060910553181 19.665193891601344 5.3267053028589659 #
point $-1 -33.692060910553181 -19.665193891601344 5.3267053028589659 #
loop $-1 $-1 $142 $135 #
plane-surface $-1 0 19.665193891601344 0 0 -1 0 0 0 -1 forward_v I I I I #
coedge $-1 $261 $262 $139 $209 forward $136 $-1 #
coedge $-1 $139 $138 $214 $263 reversed $49 $-1 #
edge $-1 $211 15.713749653874046 $264 27.264085341653839 $207 $265 forward 7 unknown #
coedge $-1 $145 $140 $262 $266 forward $79 $-1 #
vertex $-1 $266 $267 #
straight-curve $-1 17.440256526390471 9.869953752112524 8.9122032157625277 1 0 0 I I #
coedge $-1 $268 $142 $145 $218 reversed $205 $-1 #
coedge $-1 $142 $268 $208 $263 forward $205 $-1 #
vertex $-1 $143 $269 #
straight-curve $-1 25.753335441173924 19.665193891601344 49.137332180217385 0 0 1 I I #
straight-curve $-1 25.753335441173924 -13.688866417077058 23.633388176905967 0 0.84804809178421925 -0.52991927123019833 I I #
edge $-1 $270 -44.007690664387951 $146 -25.753335441173924 $213 $271 forward 7 unknown #
point $-1 25.753335441173924 19.665193891601344 8.9122032157625295 #
point $-1 25.753335441173924 9.8699537521125187 8.9122032157625295 #
edge $-1 $272 1 $272 0 $149 $-1 forward 7 unknown #
vertex $-1 $150 $273 #
ellipse-curve $-1 30.968865504949349 13.302682693952914 3.5075146704660711 0 0.52991927123019833 0.84804809178421925 2.5 0 0 1 I I #
point $-1 33.468865504949349 14.767573821856944 5.8518304806963215 #
edge $-1 $274 1 $274 0 $153 $-1 forward 7 unknown #
vertex $-1 $154 $275 #
ellipse-curve $-1 38.792160600612505 13.302682693952914 3.5075146704660711 0 0.52991927123019833 0.84804809178421925 2.5 0 0 1 I I #
point $-1 41.292160600612505 14.767573821856944 5.8518304806963215 #
plane-surface $-1 44.007690664387951 0 0 -1 0 0 0 0 1 forward_v I I I I #
coedge $-1 $162 $160 $164 $234 reversed $101 $-1 #
edge $-1 $175 -8.9122032157625295 $236 8.9122032157625295 $174 $276 forward 7 unknown #
vertex $-1 $234 $277 #
straight-curve $-1 -44.007690664387951 -19.665193891601344 0 0 0 -1 I I #
edge $-1 $232 -19.665193891601344 $236 19.665193891601344 $230 $278 forward 7 unknown #
straight-curve $-1 0 -19.665193891601344 -8.9122032157625295 -1 0 0 I I #
vertex $-1 $167 $279 #
straight-curve $-1 0 19.665193891601344 -8.9122032157625295 1 0 0 I I #
point $-1 44.007690664387951 19.665193891601344 -8.9122032157625295 #
point $-1 44.007690664387951 -19.665193891601344 -8.9122032157625295 #
straight-curve $-1 -44.007690664387951 0 8.9122032157625295 0 -1 0 I I #
point $-1 -44.007690664387951 19.665193891601344 8.9122032157625295 #
point $-1 -44.007690664387951 -19.665193891601344 8.9122032157625295 #
straight-curve $-1 44.007690664387951 -19.665193891601344 0 0 0 -1 I I #
straight-curve $-1 44.007690664387951 19.665193891601344 0 0 0 -1 I I #
plane-surface $-1 0 -19.665193891601344 0 0 1 0 0 0 1 forward_v I I I I #
coedge $-1 $280 $187 $197 $257 reversed $120 $-1 #
coedge $-1 $187 $280 $200 $259 forward $120 $-1 #
coedge $-1 $281 $190 $188 $249 forward $185 $-1 #
edge $-1 $250 33.692060910553181 $282 44.007690664387951 $188 $283 forward 7 unknown #
vertex $-1 $249 $284 #
straight-curve $-1 -33.692060910553181 19.665193891601344 3.5597271296553741 0 0 -1 I I #
coedge $-1 $190 $281 $192 $254 forward $185 $-1 #
straight-curve $-1 -33.692060910553181 0 8.9122032157625295 0 1 0 I I #
edge $-1 $285 -44.007690664387951 $194 -33.692060910553181 $192 $286 forward 7 unknown #
point $-1 -33.692060910553181 -19.665193891601344 8.9122032157625313 #
straight-curve $-1 -44.007690664387951 0 5.3267053028589659 0 -1 0 I I #
edge $-1 $285 -8.9122032157625295 $198 -5.3267053028589659 $246 $287 forward 7 unknown #
point $-1 -44.007690664387951 -19.665193891601344 5.3267053028589659 #
edge $-1 $282 -8.9122032157625295 $201 -5.3267053028589659 $200 $288 forward 7 unknown #
point $-1 -44.007690664387951 19.665193891601344 5.3267053028589659 #
coedge $-1 $262 $207 $268 $289 reversed $136 $-1 #
coedge $-1 $207 $261 $210 $266 reversed $136 $-1 #
edge $-1 $264 -26.567434137997488 $215 -8.3130789147834534 $214 $290 forward 7 unknown #
vertex $-1 $209 $291 #
straight-curve $-1 44.007690664387951 -3.4560616566303004 17.239221980637243 0 0.84804809178421925 -0.52991927123019833 I I #
edge $-1 $211 9.8699537521125187 $270 19.665193891601344 $262 $292 forward 7 unknown #
point $-1 44.007690664387958 9.8699537521125187 8.9122032157625295 #
coedge $-1 $214 $213 $261 $289 forward $205 $-1 #
point $-1 25.753335441173924 19.665193891601341 2.7914577456301117 #
vertex $-1 $266 $293 #
straight-curve $-1 0 19.665193891601344 8.9122032157625295 -1 0 0 I I #
vertex $-1 $221 $294 #
point $-1 33.468865504949349 13.302682693952914 3.5075146704660711 #
vertex $-1 $225 $295 #
point $-1 41.292160600612505 13.302682693952914 3.5075146704660711 #
straight-curve $-1 -44.007690664387951 19.665193891601344 0 0 0 -1 I I #
point $-1 -44.007690664387951 -19.665193891601344 -8.9122032157625295 #
straight-curve $-1 -44.007690664387951 0 -8.9122032157625295 0 1 0 I I #
point $-1 -44.007690664387951 19.665193891601344 -8.9122032157625295 #
coedge $-1 $247 $246 $281 $296 reversed $120 $-1 #
coedge $-1 $252 $248 $280 $296 forward $185 $-1 #
vertex $-1 $249 $297 #
straight-curve $-1 0 19.665193891601344 8.9122032157625295 -1 0 0 I I #
point $-1 -33.692060910553181 19.665193891601344 8.9122032157625313 #
vertex $-1 $296 $298 #
straight-curve $-1 0 -19.665193891601344 8.9122032157625295 1 0 0 I I #
straight-curve $-1 -44.007690664387951 -19.665193891601344 0 0 0 -1 I I #
straight-curve $-1 -44.007690664387951 19.665193891601344 0 0 0 -1 I I #
edge $-1 $270 -8.9122032157625295 $264 -2.7914577456301117 $261 $299 forward 7 unknown #
straight-curve $-1 17.440256526390471 19.665193891601348 2.7914577456301064 -1 0 0 I I #
point $-1 44.007690664387958 19.665193891601341 2.7914577456301117 #
straight-curve $-1 44.007690664387951 0 8.9122032157625295 0 1 0 I I #
point $-1 44.007690664387951 19.665193891601344 8.9122032157625295 #
point $-1 30.968865504949349 11.977884515877417 1.3873944410055237 #
point $-1 38.792160600612505 11.977884515877417 1.3873944410055237 #
edge $-1 $282 -19.665193891601344 $285 19.665193891601344 $280 $300 forward 7 unknown #
point $-1 -44.007690664387951 19.665193891601344 8.9122032157625295 #
point $-1 -44.007690664387951 -19.665193891601344 8.9122032157625295 #
straight-curve $-1 44.007690664387951 19.665193891601344 0 0 0 -1 I I #
straight-curve $-1 -44.007690664387951 0 8.9122032157625295 0 -1 0 I I #
End-of-ACIS-data 