500 0 8 0           
7 Unknown 11 ACIS 5.0 NT 24 Thu Mar 25 19:07:57 1999 
-1 9.9999999999999995e-007 1e-010 
body $-1 $8 $-1 $9 #
body $-1 $10 $-1 $11 #
body $-1 $12 $-1 $13 #
body $-1 $14 $-1 $15 #
body $-1 $16 $-1 $17 #
body $-1 $18 $-1 $19 #
body $-1 $20 $-1 $21 #
body $-1 $22 $-1 $23 #
lump $-1 $-1 $24 $0 #
transform $-1 1 0 0 0 1 0 0 0 1 65.583056123538924 42.576847480330265 14.464329755448848 1 rotate no_reflect no_shear #
lump $-1 $-1 $25 $1 #
transform $-1 1 0 0 0 1 0 0 0 1 65.583056123538924 42.576847480330265 14.464329755448848 1 rotate no_reflect no_shear #
lump $-1 $-1 $26 $2 #
transform $-1 1 0 0 0 1 0 0 0 1 65.583056123538924 42.576847480330265 14.464329755448848 1 rotate no_reflect no_shear #
lump $-1 $-1 $27 $3 #
transform $-1 1 0 0 0 1 0 0 0 1 65.583056123538924 42.576847480330265 14.464329755448848 1 rotate no_reflect no_shear #
lump $-1 $-1 $28 $4 #
transform $-1 1 0 0 0 1 0 0 0 1 65.583056123538924 42.576847480330265 14.464329755448848 1 rotate no_reflect no_shear #
lump $-1 $-1 $29 $5 #
transform $-1 1 0 0 0 1 0 0 0 1 65.583056123538924 42.576847480330265 14.464329755448848 1 rotate no_reflect no_shear #
lump $-1 $-1 $30 $6 #
transform $-1 1 0 0 0 1 0 0 0 1 65.583056123538924 42.576847480330265 14.464329755448848 1 rotate no_reflect no_shear #
lump $-1 $-1 $31 $7 #
transform $-1 1 0 0 0 1 0 0 0 1 65.583056123538924 42.576847480330265 14.464329755448848 1 rotate no_reflect no_shear #
shell $-1 $-1 $-1 $32 $-1 $8 #
shell $-1 $-1 $-1 $33 $-1 $10 #
shell $-1 $-1 $-1 $34 $-1 $12 #
shell $-1 $-1 $-1 $35 $-1 $14 #
shell $-1 $-1 $-1 $36 $-1 $16 #
shell $-1 $-1 $-1 $37 $-1 $18 #
shell $-1 $-1 $-1 $38 $-1 $20 #
shell $-1 $-1 $-1 $39 $-1 $22 #
face $-1 $40 $41 $24 $-1 $42 forward single #
face $-1 $43 $44 $25 $-1 $45 forward single #
face $-1 $46 $47 $26 $-1 $48 reversed single #
face $-1 $49 $50 $27 $-1 $51 forward single #
face $-1 $52 $53 $28 $-1 $54 forward single #
face $-1 $55 $56 $29 $-1 $57 reversed single #
face $-1 $58 $59 $30 $-1 $60 forward single #
face $-1 $61 $62 $31 $-1 $63 forward single #
face $-1 $64 $65 $24 $-1 $66 reversed single #
loop $-1 $-1 $67 $32 #
plane-surface $-1 0 0 14.464329755448848 0 0 1 1 0 0 forward_v I I I I #
face $-1 $68 $69 $25 $-1 $70 reversed single #
loop $-1 $-1 $71 $33 #
plane-surface $-1 0 -37.017719143831506 -6.4680638704262297 0 0 1 1 0 0 forward_v I I I I #
face $-1 $72 $73 $26 $-1 $74 reversed single #
loop $-1 $-1 $75 $34 #
plane-surface $-1 62.345691025615153 25.709818141018353 186.21457473911798 0 1 0 0.69465837861970381 0 0.71933979245794832 forward_v I I I I #
face $-1 $76 $77 $27 $-1 $78 forward single #
loop $-1 $79 $80 $35 #
cone-surface $-1 56.860430187469419 30.528969380821756 5.9278641085339565 -0.69465837861970381 0 -0.71933979245794832 1.4386795849158966 0 -1.3893167572394076 1 I I 0 1 2 forward I I I I #
face $-1 $81 $82 $28 $-1 $83 forward single #
loop $-1 $84 $85 $36 #
cone-surface $-1 56.860430187469419 37.757696240526862 5.9278641085339565 -0.69465837861970381 0 -0.71933979245794832 1.4386795849158966 0 -1.3893167572394076 1 I I 0 1 2 forward I I I I #
face $-1 $86 $87 $29 $-1 $88 reversed single #
loop $-1 $-1 $89 $37 #
plane-surface $-1 -156.69869498694408 25.709818141018353 95.098935875712826 0 1 0 -0.69465837861970381 0 0.71933979245794832 forward_v I I I I #
face $-1 $90 $91 $30 $-1 $92 forward single #
loop $-1 $93 $94 $38 #
cone-surface $-1 -56.860430187469426 30.528969380821756 5.9278641085339707 0.69465837861970381 0 -0.71933979245794832 1.4386795849158966 0 1.3893167572394076 1 I I 0 1 2 forward I I I I #
face $-1 $95 $96 $31 $-1 $97 forward single #
loop $-1 $98 $99 $39 #
cone-surface $-1 -56.860430187469426 37.757696240526862 5.9278641085339707 0.69465837861970381 0 -0.71933979245794832 1.4386795849158966 0 1.3893167572394076 1 I I 0 1 2 forward I I I I #
face $-1 $100 $101 $24 $-1 $102 reversed single #
loop $-1 $-1 $103 $40 #
plane-surface $-1 0 0 -14.464329755448848 0 0 1 1 0 0 forward_v I I I I #
coedge $-1 $104 $105 $106 $107 forward $41 $-1 #
face $-1 $108 $109 $25 $-1 $110 reversed single #
loop $-1 $-1 $111 $43 #
plane-surface $-1 0 -37.017719143831506 -12.03528802917649 0 0 1 1 0 0 forward_v I I I I #
coedge $-1 $112 $113 $114 $115 reversed $44 $-1 #
face $-1 $116 $117 $26 $-1 $118 forward single #
loop $-1 $-1 $119 $46 #
plane-surface $-1 -28.769947837790014 34.143332810674302 91.861570777789041 0.69465837861970381 0 0.71933979245794832 0.71933979245794832 0 -0.69465837861970381 forward_v I I I I #
coedge $-1 $120 $121 $122 $123 reversed $47 $-1 #
face $-1 $-1 $124 $27 $-1 $125 forward single #
loop $-1 $126 $127 $49 #
cone-surface $-1 54.546054122051942 30.528969380821756 3.531257589693606 -0.69465837861970381 0 -0.71933979245794832 0.71933979245794832 0 -0.69465837861970381 1 I I -0.70710678118654746 0.70710678118654746 1 forward I I I I #
loop $-1 $-1 $128 $35 #
coedge $-1 $80 $80 $129 $130 reversed $50 $-1 #
face $-1 $-1 $131 $28 $-1 $132 forward single #
loop $-1 $133 $134 $52 #
cone-surface $-1 54.546054122051942 37.757696240526862 3.531257589693606 -0.69465837861970381 0 -0.71933979245794832 0.71933979245794832 0 -0.69465837861970381 1 I I -0.70710678118654746 0.70710678118654746 1 forward I I I I #
loop $-1 $-1 $135 $36 #
coedge $-1 $85 $85 $136 $137 reversed $53 $-1 #
face $-1 $138 $139 $29 $-1 $140 reversed single #
loop $-1 $-1 $141 $55 #
plane-surface $-1 -65.58305612353891 34.143332810674302 0.74593191438388828 -0.69465837861970381 0 0.71933979245794832 0.71933979245794832 0 0.69465837861970381 forward_v I I I I #
coedge $-1 $142 $143 $144 $145 reversed $56 $-1 #
face $-1 $-1 $146 $30 $-1 $147 forward single #
loop $-1 $148 $149 $58 #
cone-surface $-1 -54.546054122051949 30.528969380821756 3.5312575896936202 0.69465837861970381 0 -0.71933979245794832 0.71933979245794832 0 0.69465837861970381 1 I I -0.70710678118654746 0.70710678118654746 1 forward I I I I #
loop $-1 $-1 $150 $38 #
coedge $-1 $94 $94 $151 $152 reversed $59 $-1 #
face $-1 $-1 $153 $31 $-1 $154 forward single #
loop $-1 $155 $156 $61 #
cone-surface $-1 -54.546054122051949 37.757696240526862 3.5312575896936202 0.69465837861970381 0 -0.71933979245794832 0.71933979245794832 0 0.69465837861970381 1 I I -0.70710678118654746 0.70710678118654746 1 forward I I I I #
loop $-1 $-1 $157 $39 #
coedge $-1 $99 $99 $158 $159 reversed $62 $-1 #
face $-1 $160 $161 $24 $-1 $162 reversed single #
loop $-1 $-1 $163 $64 #
plane-surface $-1 0 -42.576847480330265 0 0 1 0 0 0 1 forward_v I I I I #
coedge $-1 $164 $165 $166 $167 forward $65 $-1 #
coedge $-1 $168 $67 $169 $170 forward $41 $-1 #
coedge $-1 $67 $168 $171 $172 forward $41 $-1 #
coedge $-1 $173 $174 $67 $107 reversed $175 $-1 #
edge $-1 $176 -42.576847480330265 $177 42.576847480330265 $106 $178 forward 7 unknown #
face $-1 $179 $180 $25 $-1 $181 reversed single #
loop $-1 $-1 $182 $68 #
plane-surface $-1 0 -31.458590807332747 -9.2516759498013599 0 -1 0 0 0 -1 forward_v I I I I #
coedge $-1 $183 $184 $185 $186 reversed $69 $-1 #
coedge $-1 $187 $71 $188 $189 forward $44 $-1 #
coedge $-1 $71 $187 $190 $191 reversed $44 $-1 #
coedge $-1 $192 $193 $71 $115 forward $194 $-1 #
edge $-1 $195 12.949731235416994 $196 24.067987908414512 $114 $197 forward 7 unknown #
face $-1 $198 $199 $26 $-1 $200 reversed single #
loop $-1 $-1 $201 $72 #
plane-surface $-1 0 0 14.464329755448848 0 0 1 1 0 0 forward_v I I I I #
coedge $-1 $202 $203 $204 $205 reversed $73 $-1 #
coedge $-1 $121 $75 $206 $207 reversed $47 $-1 #
coedge $-1 $75 $120 $202 $208 reversed $47 $-1 #
coedge $-1 $204 $209 $75 $123 forward $199 $-1 #
edge $-1 $210 78.642957614110145 $211 92.361355455175115 $122 $212 forward 7 unknown #
loop $-1 $-1 $129 $76 #
plane-surface $-1 -28.769947837790014 34.143332810674302 91.861570777789041 0.69465837861970381 0 0.71933979245794832 0.71933979245794832 0 -0.69465837861970381 forward_v I I I I #
loop $-1 $-1 $213 $49 #
coedge $-1 $127 $127 $128 $214 reversed $77 $-1 #
coedge $-1 $128 $128 $127 $214 forward $79 $-1 #
coedge $-1 $129 $129 $80 $130 forward $124 $-1 #
edge $-1 $215 0 $215 6.2831853071796004 $129 $216 forward 7 unknown #
loop $-1 $-1 $136 $81 #
plane-surface $-1 -28.769947837790014 34.143332810674302 91.861570777789041 0.69465837861970381 0 0.71933979245794832 0.71933979245794832 0 -0.69465837861970381 forward_v I I I I #
loop $-1 $-1 $217 $52 #
coedge $-1 $134 $134 $135 $218 reversed $82 $-1 #
coedge $-1 $135 $135 $134 $218 forward $84 $-1 #
coedge $-1 $136 $136 $85 $137 forward $131 $-1 #
edge $-1 $219 0 $219 6.2831853071796004 $136 $220 forward 7 unknown #
face $-1 $221 $222 $29 $-1 $223 forward single #
loop $-1 $-1 $224 $86 #
plane-surface $-1 0 42.576847480330265 0 0 -1 0 0 0 -1 forward_v I I I I #
coedge $-1 $225 $226 $227 $228 reversed $87 $-1 #
coedge $-1 $143 $89 $229 $230 reversed $56 $-1 #
coedge $-1 $89 $142 $225 $231 reversed $56 $-1 #
coedge $-1 $227 $232 $89 $145 forward $222 $-1 #
edge $-1 $233 12.766291369933114 $234 26.972107868476584 $144 $235 forward 7 unknown #
loop $-1 $-1 $151 $90 #
plane-surface $-1 -65.58305612353891 34.143332810674302 0.74593191438388828 -0.69465837861970381 0 0.71933979245794832 0.71933979245794832 0 0.69465837861970381 forward_v I I I I #
loop $-1 $-1 $236 $58 #
coedge $-1 $149 $149 $150 $237 reversed $91 $-1 #
coedge $-1 $150 $150 $149 $237 forward $93 $-1 #
coedge $-1 $151 $151 $94 $152 forward $146 $-1 #
edge $-1 $238 0 $238 6.2831853071796004 $151 $239 forward 7 unknown #
loop $-1 $-1 $158 $95 #
plane-surface $-1 -65.58305612353891 34.143332810674302 0.74593191438388828 -0.69465837861970381 0 0.71933979245794832 0.71933979245794832 0 0.69465837861970381 forward_v I I I I #
loop $-1 $-1 $240 $61 #
coedge $-1 $156 $156 $157 $241 reversed $96 $-1 #
coedge $-1 $157 $157 $156 $241 forward $98 $-1 #
coedge $-1 $158 $158 $99 $159 forward $153 $-1 #
edge $-1 $242 0 $242 6.2831853071796004 $158 $243 forward 7 unknown #
face $-1 $244 $245 $24 $-1 $246 reversed single #
loop $-1 $-1 $247 $100 #
plane-surface $-1 -65.583056123538924 0 0 1 0 0 0 0 -1 forward_v I I I I #
coedge $-1 $248 $171 $249 $250 forward $101 $-1 #
coedge $-1 $251 $103 $248 $252 forward $65 $-1 #
coedge $-1 $103 $251 $253 $254 forward $65 $-1 #
coedge $-1 $174 $173 $103 $167 reversed $175 $-1 #
edge $-1 $255 -42.576847480330265 $256 42.576847480330265 $166 $257 forward 7 unknown #
coedge $-1 $105 $104 $258 $259 forward $41 $-1 #
coedge $-1 $260 $261 $104 $170 reversed $245 $-1 #
edge $-1 $177 -65.583056123538924 $262 65.583056123538924 $169 $263 forward 7 unknown #
coedge $-1 $163 $264 $105 $172 reversed $101 $-1 #
edge $-1 $265 -65.583056123538924 $176 65.583056123538924 $171 $266 forward 7 unknown #
coedge $-1 $166 $106 $264 $267 forward $175 $-1 #
coedge $-1 $106 $166 $260 $268 reversed $175 $-1 #
loop $-1 $-1 $173 $244 #
vertex $-1 $107 $269 #
vertex $-1 $107 $270 #
straight-curve $-1 65.583056123538924 0 14.464329755448848 0 1 0 I I #
face $-1 $271 $272 $25 $-1 $273 reversed single #
loop $-1 $-1 $274 $108 #
plane-surface $-1 -65.583056123538924 0 0 1 0 0 0 0 -1 forward_v I I I I #
coedge $-1 $275 $188 $193 $276 reversed $109 $-1 #
coedge $-1 $277 $111 $278 $279 reversed $69 $-1 #
coedge $-1 $111 $277 $275 $280 forward $69 $-1 #
coedge $-1 $193 $192 $111 $186 forward $194 $-1 #
edge $-1 $281 -24.067987908414512 $282 -12.949731235416994 $185 $283 forward 7 unknown #
coedge $-1 $113 $112 $274 $284 reversed $44 $-1 #
coedge $-1 $182 $285 $112 $189 reversed $109 $-1 #
edge $-1 $195 -65.583056123538924 $286 65.583056123538924 $188 $287 forward 7 unknown #
coedge $-1 $288 $289 $113 $191 forward $272 $-1 #
edge $-1 $196 -65.583056123538924 $290 65.583056123538924 $190 $291 forward 7 unknown #
coedge $-1 $185 $114 $289 $292 forward $194 $-1 #
coedge $-1 $114 $185 $182 $276 forward $194 $-1 #
loop $-1 $-1 $114 $271 #
vertex $-1 $115 $293 #
vertex $-1 $292 $294 #
straight-curve $-1 65.583056123538924 -18.508859571915753 -6.4680638704262297 0 -1 0 I I #
face $-1 $-1 $295 $26 $-1 $296 reversed single #
loop $-1 $-1 $122 $116 #
plane-surface $-1 65.583056123538924 0 0 -1 0 0 0 0 1 forward_v I I I I #
coedge $-1 $206 $297 $298 $299 forward $117 $-1 #
coedge $-1 $298 $119 $121 $208 forward $73 $-1 #
coedge $-1 $119 $298 $300 $301 reversed $73 $-1 #
coedge $-1 $302 $122 $119 $205 forward $199 $-1 #
edge $-1 $211 8.6381517356812019 $303 25.5051810749931 $204 $304 forward 7 unknown #
coedge $-1 $305 $201 $120 $207 forward $117 $-1 #
edge $-1 $306 20.204394112187877 $210 34.410210610731347 $206 $307 forward 7 unknown #
edge $-1 $211 -131.16611224707782 $306 -111.41770315378565 $121 $308 forward 7 unknown #
coedge $-1 $122 $302 $305 $309 reversed $199 $-1 #
vertex $-1 $309 $310 #
vertex $-1 $123 $311 #
straight-curve $-1 65.583056123538924 25.709818141018353 93.107287369558989 0 0 -1 I I #
coedge $-1 $213 $213 $-1 $312 reversed $126 $-1 #
edge $-1 $313 0 $313 6.2831853071796004 $127 $314 forward 7 unknown #
vertex $-1 $130 $315 #
ellipse-curve $-1 58.480147874267182 30.528969380821756 7.605130834916352 0.69465837861970381 0 0.71933979245794832 1.4386795849158966 0 -1.3893167572394076 1 I I #
coedge $-1 $217 $217 $-1 $316 reversed $133 $-1 #
edge $-1 $317 0 $317 6.2831853071796004 $134 $318 forward 7 unknown #
vertex $-1 $137 $319 #
ellipse-curve $-1 58.480147874267182 37.757696240526862 7.605130834916352 0.69465837861970381 0 0.71933979245794832 1.4386795849158966 0 -1.3893167572394076 1 I I #
face $-1 $-1 $320 $29 $-1 $321 reversed single #
loop $-1 $-1 $227 $138 #
plane-surface $-1 0 0 14.464329755448848 0 0 1 1 0 0 forward_v I I I I #
coedge $-1 $322 $323 $226 $324 forward $139 $-1 #
coedge $-1 $325 $141 $143 $231 forward $87 $-1 #
coedge $-1 $141 $325 $224 $324 reversed $87 $-1 #
coedge $-1 $326 $144 $141 $228 forward $222 $-1 #
edge $-1 $234 8.6381517356812019 $327 25.5051810749931 $227 $328 forward 7 unknown #
coedge $-1 $329 $330 $142 $230 forward $320 $-1 #
edge $-1 $331 -46.803536023472539 $233 -33.085138182407562 $229 $332 forward 7 unknown #
edge $-1 $234 -19.748409093292175 $331 1.9785632286268914e-014 $143 $333 forward 7 unknown #
coedge $-1 $144 $326 $329 $334 forward $222 $-1 #
vertex $-1 $230 $335 #
vertex $-1 $145 $336 #
straight-curve $-1 -78.349347493472038 25.709818141018353 14.464329755448844 1 0 0 I I #
coedge $-1 $236 $236 $-1 $337 reversed $148 $-1 #
edge $-1 $338 0 $338 6.2831853071796004 $149 $339 forward 7 unknown #
vertex $-1 $152 $340 #
ellipse-curve $-1 -58.480147874267189 30.528969380821756 7.6051308349163627 -0.69465837861970381 0 0.71933979245794832 1.4386795849158966 0 1.3893167572394076 1 I I #
coedge $-1 $240 $240 $-1 $341 reversed $155 $-1 #
edge $-1 $342 0 $342 6.2831853071796004 $156 $343 forward 7 unknown #
vertex $-1 $159 $344 #
ellipse-curve $-1 -58.480147874267189 37.757696240526862 7.6051308349163627 -0.69465837861970381 0 0.71933979245794832 1.4386795849158966 0 1.3893167572394076 1 I I #
face $-1 $-1 $175 $24 $-1 $345 reversed single #
loop $-1 $-1 $260 $160 #
plane-surface $-1 0 42.576847480330265 0 0 -1 0 0 0 -1 forward_v I I I I #
coedge $-1 $346 $258 $261 $347 forward $161 $-1 #
coedge $-1 $264 $163 $164 $252 reversed $101 $-1 #
coedge $-1 $258 $346 $163 $250 reversed $161 $-1 #
edge $-1 $265 -14.464329755448848 $348 14.464329755448848 $249 $349 forward 7 unknown #
coedge $-1 $165 $164 $346 $350 forward $65 $-1 #
edge $-1 $256 -65.583056123538924 $348 65.583056123538924 $248 $351 forward 7 unknown #
coedge $-1 $261 $260 $165 $254 reversed $245 $-1 #
edge $-1 $352 -65.583056123538924 $255 65.583056123538924 $253 $353 forward 7 unknown #
vertex $-1 $167 $354 #
vertex $-1 $267 $355 #
straight-curve $-1 65.583056123538924 0 -14.464329755448848 0 -1 0 I I #
coedge $-1 $247 $249 $168 $259 reversed $161 $-1 #
edge $-1 $262 -42.576847480330265 $265 42.576847480330265 $258 $356 forward 7 unknown #
coedge $-1 $253 $169 $174 $268 forward $245 $-1 #
coedge $-1 $169 $253 $247 $347 reversed $245 $-1 #
vertex $-1 $170 $357 #
straight-curve $-1 0 42.576847480330265 14.464329755448848 -1 0 0 I I #
coedge $-1 $171 $248 $173 $267 reversed $101 $-1 #
vertex $-1 $259 $358 #
straight-curve $-1 0 -42.576847480330265 14.464329755448848 1 0 0 I I #
edge $-1 $176 -14.464329755448848 $256 14.464329755448848 $173 $359 forward 7 unknown #
edge $-1 $177 -14.464329755448848 $255 14.464329755448848 $174 $360 forward 7 unknown #
point $-1 65.583056123538924 -42.576847480330265 14.464329755448848 #
point $-1 65.583056123538924 42.576847480330265 14.464329755448848 #
face $-1 $-1 $194 $25 $-1 $361 reversed single #
loop $-1 $-1 $190 $179 #
plane-surface $-1 0 -42.576847480330265 0 0 1 0 0 0 1 forward_v I I I I #
coedge $-1 $362 $363 $187 $284 forward $180 $-1 #
coedge $-1 $285 $182 $184 $280 reversed $109 $-1 #
edge $-1 $282 -7.4094500542758102 $195 -1.8422258955255497 $193 $364 forward 7 unknown #
coedge $-1 $184 $183 $365 $366 reversed $69 $-1 #
coedge $-1 $289 $288 $183 $279 forward $272 $-1 #
edge $-1 $367 -65.583056123538924 $281 65.583056123538924 $278 $368 forward 7 unknown #
edge $-1 $369 -65.583056123538924 $282 65.583056123538924 $275 $370 forward 7 unknown #
vertex $-1 $279 $371 #
vertex $-1 $186 $372 #
straight-curve $-1 65.583056123538924 -18.508859571915753 -12.03528802917649 0 1 0 I I #
edge $-1 $290 -24.067987908414512 $286 -12.949731235416994 $274 $373 forward 7 unknown #
coedge $-1 $188 $275 $362 $374 reversed $109 $-1 #
vertex $-1 $284 $375 #
straight-curve $-1 0 -31.458590807332747 -6.4680638704262297 -1 0 0 I I #
coedge $-1 $278 $190 $363 $376 forward $272 $-1 #
coedge $-1 $190 $278 $192 $292 reversed $272 $-1 #
vertex $-1 $376 $377 #
straight-curve $-1 0 -42.576847480330265 -6.4680638704262297 -1 0 0 I I #
edge $-1 $196 6.4680638704262297 $281 12.03528802917649 $192 $378 forward 7 unknown #
point $-1 65.583056123538924 -31.458590807332747 -6.4680638704262297 #
point $-1 65.583056123538924 -42.576847480330265 -6.4680638704262297 #
loop $-1 $-1 $300 $198 #
plane-surface $-1 0 42.576847480330265 0 0 -1 0 0 0 -1 forward_v I I I I #
coedge $-1 $201 $305 $379 $380 forward $117 $-1 #
coedge $-1 $203 $202 $201 $299 reversed $73 $-1 #
edge $-1 $381 -25.5051810749931 $306 -8.6381517356812019 $201 $382 forward 7 unknown #
coedge $-1 $379 $383 $203 $301 forward $295 $-1 #
edge $-1 $303 -88.912223186767861 $381 -69.163814093475665 $300 $384 forward 7 unknown #
coedge $-1 $209 $204 $383 $385 reversed $199 $-1 #
vertex $-1 $301 $386 #
straight-curve $-1 65.58305612353891 17.071666405337151 0.74593191438385986 0 1 0 I I #
coedge $-1 $297 $206 $209 $309 forward $117 $-1 #
vertex $-1 $207 $387 #
straight-curve $-1 31.172845512807577 25.709818141018353 14.464329755448844 1 0 0 I I #
straight-curve $-1 -28.769947837790014 25.709818141018353 91.861570777789041 -0.71933979245794832 0 0.69465837861970381 I I #
edge $-1 $210 25.709818141018353 $388 42.576847480330265 $209 $389 forward 7 unknown #
point $-1 65.583056123538924 25.709818141018353 14.464329755448848 #
point $-1 65.583056123538924 25.709818141018353 0.74593191438387407 #
edge $-1 $390 1 $390 0 $213 $-1 forward 7 unknown #
vertex $-1 $214 $391 #
ellipse-curve $-1 55.240712500671648 30.528969380821756 4.2505973821515539 0.69465837861970381 0 0.71933979245794832 1.4386795849158966 0 -1.3893167572394076 1 I I #
point $-1 59.918827459183085 30.528969380821756 6.2158140776769493 #
edge $-1 $392 1 $392 0 $217 $-1 forward 7 unknown #
vertex $-1 $218 $393 #
ellipse-curve $-1 55.240712500671648 37.757696240526862 4.2505973821515539 0.69465837861970381 0 0.71933979245794832 1.4386795849158966 0 -1.3893167572394076 1 I I #
point $-1 59.918827459183085 37.757696240526862 6.2158140776769493 #
loop $-1 $-1 $229 $221 #
plane-surface $-1 -65.583056123538924 0 0 1 0 0 0 0 -1 forward_v I I I I #
coedge $-1 $323 $224 $394 $395 reversed $139 $-1 #
coedge $-1 $224 $322 $326 $396 reversed $139 $-1 #
edge $-1 $327 3.5807579699367484 $397 23.329167063228944 $224 $398 forward 7 unknown #
coedge $-1 $226 $225 $330 $399 reversed $87 $-1 #
coedge $-1 $232 $227 $323 $396 forward $222 $-1 #
vertex $-1 $396 $400 #
straight-curve $-1 -51.377239624995454 17.071666405337151 14.464329755448848 0 1 0 I I #
coedge $-1 $394 $229 $232 $334 reversed $320 $-1 #
coedge $-1 $229 $394 $325 $399 forward $320 $-1 #
vertex $-1 $230 $401 #
straight-curve $-1 -65.583056123538924 25.709818141018353 47.549467937856413 0 0 1 I I #
straight-curve $-1 -65.58305612353891 25.709818141018353 0.74593191438388828 -0.71933979245794832 0 -0.69465837861970381 I I #
edge $-1 $402 -42.576847480330265 $233 -25.709818141018353 $329 $403 forward 7 unknown #
point $-1 -65.583056123538924 25.709818141018353 14.464329755448848 #
point $-1 -51.377239624995454 25.709818141018353 14.464329755448848 #
edge $-1 $404 1 $404 0 $236 $-1 forward 7 unknown #
vertex $-1 $237 $405 #
ellipse-curve $-1 -55.240712500671656 30.528969380821756 4.2505973821515681 -0.69465837861970381 0 0.71933979245794832 1.4386795849158966 0 1.3893167572394076 1 I I #
point $-1 -57.0414682893513 30.528969380821756 8.9944475921557796 #
edge $-1 $406 1 $406 0 $240 $-1 forward 7 unknown #
vertex $-1 $241 $407 #
ellipse-curve $-1 -55.240712500671656 37.757696240526862 4.2505973821515681 -0.69465837861970381 0 0.71933979245794832 1.4386795849158966 0 1.3893167572394076 1 I I #
point $-1 -57.0414682893513 37.757696240526862 8.9944475921557796 #
plane-surface $-1 65.583056123538924 0 0 -1 0 0 0 0 1 forward_v I I I I #
coedge $-1 $249 $247 $251 $350 reversed $161 $-1 #
edge $-1 $262 -14.464329755448848 $352 14.464329755448848 $261 $408 forward 7 unknown #
vertex $-1 $350 $409 #
straight-curve $-1 -65.583056123538924 -42.576847480330265 0 0 0 -1 I I #
edge $-1 $348 -42.576847480330265 $352 42.576847480330265 $346 $410 forward 7 unknown #
straight-curve $-1 0 -42.576847480330265 -14.464329755448848 -1 0 0 I I #
vertex $-1 $254 $411 #
straight-curve $-1 0 42.576847480330265 -14.464329755448848 1 0 0 I I #
point $-1 65.583056123538924 42.576847480330265 -14.464329755448848 #
point $-1 65.583056123538924 -42.576847480330265 -14.464329755448848 #
straight-curve $-1 -65.583056123538924 0 14.464329755448848 0 -1 0 I I #
point $-1 -65.583056123538924 42.576847480330265 14.464329755448848 #
point $-1 -65.583056123538924 -42.576847480330265 14.464329755448848 #
straight-curve $-1 65.583056123538924 -42.576847480330265 0 0 0 -1 I I #
straight-curve $-1 65.583056123538924 42.576847480330265 0 0 0 -1 I I #
plane-surface $-1 65.583056123538924 0 0 -1 0 0 0 0 1 forward_v I I I I #
coedge $-1 $365 $274 $285 $374 forward $180 $-1 #
coedge $-1 $274 $365 $288 $376 reversed $180 $-1 #
straight-curve $-1 65.583056123538924 -31.458590807332747 -4.6258379749006799 0 0 1 I I #
coedge $-1 $363 $362 $277 $366 forward $180 $-1 #
edge $-1 $369 12.949731235416994 $367 24.067987908414512 $365 $412 forward 7 unknown #
vertex $-1 $279 $413 #
straight-curve $-1 0 -42.576847480330265 -12.03528802917649 1 0 0 I I #
vertex $-1 $366 $414 #
straight-curve $-1 0 -31.458590807332747 -12.03528802917649 1 0 0 I I #
point $-1 65.583056123538924 -42.576847480330265 -12.03528802917649 #
point $-1 65.583056123538924 -31.458590807332747 -12.03528802917649 #
straight-curve $-1 -65.583056123538924 -18.508859571915753 -6.4680638704262297 0 1 0 I I #
edge $-1 $286 1.8422258955255497 $369 7.4094500542758102 $362 $415 forward 7 unknown #
point $-1 -65.583056123538924 -31.458590807332747 -6.4680638704262297 #
edge $-1 $290 6.4680638704262297 $367 12.03528802917649 $363 $416 forward 7 unknown #
point $-1 -65.583056123538924 -42.576847480330265 -6.4680638704262297 #
straight-curve $-1 65.583056123538924 -42.576847480330265 0 0 0 -1 I I #
coedge $-1 $383 $300 $297 $380 reversed $295 $-1 #
edge $-1 $388 -65.583056123538924 $381 -51.377239624995454 $379 $417 forward 7 unknown #
vertex $-1 $301 $418 #
straight-curve $-1 51.377239624995454 17.071666405337151 14.464329755448844 0 -1 0 I I #
coedge $-1 $300 $379 $302 $385 forward $295 $-1 #
straight-curve $-1 1.6249559493945398 42.576847480330265 62.509552712777264 -0.71933979245794832 0 0.69465837861970381 I I #
edge $-1 $388 -14.464329755448848 $303 -0.74593191438387407 $302 $419 forward 7 unknown #
point $-1 65.583056123538924 42.576847480330251 0.74593191438387407 #
point $-1 51.377239624995454 25.709818141018353 14.464329755448844 #
vertex $-1 $309 $420 #
straight-curve $-1 65.583056123538924 0 14.464329755448848 0 1 0 I I #
vertex $-1 $312 $421 #
point $-1 56.679392085587544 30.528969380821756 2.8612806249121467 #
vertex $-1 $316 $422 #
point $-1 56.679392085587544 37.757696240526862 2.8612806249121467 #
coedge $-1 $330 $329 $322 $395 forward $320 $-1 #
edge $-1 $402 -14.464329755448848 $397 -0.74593191438387452 $322 $423 forward 7 unknown #
edge $-1 $327 51.377239624995454 $402 65.583056123538924 $323 $424 forward 7 unknown #
vertex $-1 $324 $425 #
straight-curve $-1 -48.801457930059009 42.576847480330265 16.951733281074691 -0.71933979245794832 0 -0.69465837861970381 I I #
edge $-1 $397 -25.5051810749931 $331 -8.6381517356812019 $330 $426 forward 7 unknown #
point $-1 -51.377239624995454 42.576847480330251 14.464329755448848 #
point $-1 -65.583056123538924 25.709818141018353 0.74593191438387452 #
vertex $-1 $396 $427 #
straight-curve $-1 -65.583056123538924 0 14.464329755448848 0 -1 0 I I #
vertex $-1 $337 $428 #
point $-1 -53.802032915755753 30.528969380821756 5.6399141393909762 #
vertex $-1 $341 $429 #
point $-1 -53.802032915755753 37.757696240526862 5.6399141393909762 #
straight-curve $-1 -65.583056123538924 42.576847480330265 0 0 0 -1 I I #
point $-1 -65.583056123538924 -42.576847480330265 -14.464329755448848 #
straight-curve $-1 -65.583056123538924 0 -14.464329755448848 0 1 0 I I #
point $-1 -65.583056123538924 42.576847480330265 -14.464329755448848 #
straight-curve $-1 -65.583056123538924 -18.508859571915753 -12.03528802917649 0 -1 0 I I #
point $-1 -65.583056123538924 -42.576847480330265 -12.03528802917649 #
point $-1 -65.583056123538924 -31.458590807332747 -12.03528802917649 #
straight-curve $-1 -65.583056123538924 -31.458590807332747 -4.6258379749006799 0 0 -1 I I #
straight-curve $-1 -65.583056123538924 -42.576847480330265 0 0 0 -1 I I #
straight-curve $-1 0 42.576847480330265 14.464329755448848 -1 0 0 I I #
point $-1 51.377239624995454 42.576847480330251 14.464329755448844 #
straight-curve $-1 65.583056123538924 42.576847480330265 0 0 0 -1 I I #
point $-1 65.583056123538924 42.576847480330265 14.464329755448848 #
point $-1 53.851395743432235 30.528969380821756 2.8119177972356577 #
point $-1 53.851395743432235 37.757696240526862 2.8119177972356577 #
straight-curve $-1 -65.583056123538924 42.576847480330265 0 0 0 -1 I I #
straight-curve $-1 0 42.576847480330265 14.464329755448848 -1 0 0 I I #
point $-1 -65.583056123538924 42.576847480330251 0.74593191438387452 #
straight-curve $-1 -65.583056123538924 17.071666405337151 0.74593191438386275 0 -1 0 I I #
point $-1 -65.583056123538924 42.576847480330265 14.464329755448848 #
point $-1 -53.851395743432242 30.528969380821756 2.8119177972356719 #
point $-1 -53.851395743432242 37.757696240526862 2.8119177972356719 #
End-of-ACIS-data 