500 0 16 0           
7 Unknown 11 ACIS 5.0 NT 24 Thu Mar 25 17:49:39 1999 
-1 9.9999999999999995e-007 1e-010 
body $-1 $16 $-1 $17 #
body $-1 $18 $-1 $19 #
body $-1 $20 $-1 $21 #
body $-1 $22 $-1 $23 #
body $-1 $24 $-1 $25 #
body $-1 $26 $-1 $27 #
body $-1 $28 $-1 $29 #
body $-1 $30 $-1 $31 #
body $-1 $32 $-1 $33 #
body $-1 $34 $-1 $35 #
body $-1 $36 $-1 $37 #
body $-1 $38 $-1 $39 #
body $-1 $40 $-1 $41 #
body $-1 $42 $-1 $43 #
body $-1 $44 $-1 $45 #
body $-1 $46 $-1 $47 #
lump $-1 $-1 $48 $0 #
transform $-1 1 0 0 0 1 0 0 0 1 78.533890804773094 51.568439220696987 12.744724193643798 1 rotate no_reflect no_shear #
lump $-1 $-1 $49 $1 #
transform $-1 1 0 0 0 1 0 0 0 1 78.533890804773094 51.568439220696987 12.744724193643798 1 rotate no_reflect no_shear #
lump $-1 $-1 $50 $2 #
transform $-1 1 0 0 0 1 0 0 0 1 78.533890804773094 51.568439220696987 12.744724193643798 1 rotate no_reflect no_shear #
lump $-1 $-1 $51 $3 #
transform $-1 1 0 0 0 1 0 0 0 1 78.533890804773094 51.568439220696987 12.744724193643798 1 rotate no_reflect no_shear #
lump $-1 $-1 $52 $4 #
transform $-1 1 0 0 0 1 0 0 0 1 78.533890804773094 51.568439220696987 12.744724193643798 1 rotate no_reflect no_shear #
lump $-1 $-1 $53 $5 #
transform $-1 1 0 0 0 1 0 0 0 1 78.533890804773094 51.568439220696987 12.744724193643798 1 rotate no_reflect no_shear #
lump $-1 $-1 $54 $6 #
transform $-1 1 0 0 0 1 0 0 0 1 78.533890804773094 51.568439220696987 12.744724193643798 1 rotate no_reflect no_shear #
lump $-1 $-1 $55 $7 #
transform $-1 1 0 0 0 1 0 0 0 1 78.533890804773094 51.568439220696987 12.744724193643798 1 rotate no_reflect no_shear #
lump $-1 $-1 $56 $8 #
transform $-1 1 0 0 0 1 0 0 0 1 78.533890804773094 51.568439220696987 12.744724193643798 1 rotate no_reflect no_shear #
lump $-1 $-1 $57 $9 #
transform $-1 1 0 0 0 1 0 0 0 1 78.533890804773094 51.568439220696987 12.744724193643798 1 rotate no_reflect no_shear #
lump $-1 $-1 $58 $10 #
transform $-1 1 0 0 0 1 0 0 0 1 78.533890804773094 51.568439220696987 12.744724193643798 1 rotate no_reflect no_shear #
lump $-1 $-1 $59 $11 #
transform $-1 1 0 0 0 1 0 0 0 1 78.533890804773094 51.568439220696987 12.744724193643798 1 rotate no_reflect no_shear #
lump $-1 $-1 $60 $12 #
transform $-1 1 0 0 0 1 0 0 0 1 78.533890804773094 51.568439220696987 12.744724193643798 1 rotate no_reflect no_shear #
lump $-1 $-1 $61 $13 #
transform $-1 1 0 0 0 1 0 0 0 1 78.533890804773094 51.568439220696987 12.744724193643798 1 rotate no_reflect no_shear #
lump $-1 $-1 $62 $14 #
transform $-1 1 0 0 0 1 0 0 0 1 78.533890804773094 51.568439220696987 12.744724193643798 1 rotate no_reflect no_shear #
lump $-1 $-1 $63 $15 #
transform $-1 1 0 0 0 1 0 0 0 1 78.533890804773094 51.568439220696987 12.744724193643798 1 rotate no_reflect no_shear #
shell $-1 $-1 $-1 $64 $-1 $16 #
shell $-1 $-1 $-1 $65 $-1 $18 #
shell $-1 $-1 $-1 $66 $-1 $20 #
shell $-1 $-1 $-1 $67 $-1 $22 #
shell $-1 $-1 $-1 $68 $-1 $24 #
shell $-1 $-1 $-1 $69 $-1 $26 #
shell $-1 $-1 $-1 $70 $-1 $28 #
shell $-1 $-1 $-1 $71 $-1 $30 #
shell $-1 $-1 $-1 $72 $-1 $32 #
shell $-1 $-1 $-1 $73 $-1 $34 #
shell $-1 $-1 $-1 $74 $-1 $36 #
shell $-1 $-1 $-1 $75 $-1 $38 #
shell $-1 $-1 $-1 $76 $-1 $40 #
shell $-1 $-1 $-1 $77 $-1 $42 #
shell $-1 $-1 $-1 $78 $-1 $44 #
shell $-1 $-1 $-1 $79 $-1 $46 #
face $-1 $80 $81 $48 $-1 $82 forward single #
face $-1 $83 $84 $49 $-1 $85 reversed single #
face $-1 $86 $87 $50 $-1 $88 reversed single #
face $-1 $89 $90 $51 $-1 $91 forward single #
face $-1 $92 $93 $52 $-1 $94 forward single #
face $-1 $95 $96 $53 $-1 $97 forward single #
face $-1 $98 $99 $54 $-1 $100 reversed single #
face $-1 $101 $102 $55 $-1 $103 forward single #
face $-1 $104 $105 $56 $-1 $106 forward single #
face $-1 $107 $108 $57 $-1 $109 forward single #
face $-1 $110 $111 $58 $-1 $112 reversed single #
face $-1 $113 $114 $59 $-1 $115 forward single #
face $-1 $116 $117 $60 $-1 $118 forward single #
face $-1 $119 $120 $61 $-1 $121 reversed single #
face $-1 $122 $123 $62 $-1 $124 forward single #
face $-1 $125 $126 $63 $-1 $127 forward single #
face $-1 $128 $129 $48 $-1 $130 reversed single #
loop $-1 $-1 $131 $64 #
plane-surface $-1 0 0 12.744724193643798 0 0 1 1 0 0 forward_v I I I I #
face $-1 $132 $133 $49 $-1 $134 reversed single #
loop $-1 $-1 $135 $65 #
plane-surface $-1 -74.412160130611568 -44.329430433407502 0 1 0 0 0 0 -1 forward_v I I I I #
face $-1 $136 $137 $50 $-1 $138 reversed single #
loop $-1 $-1 $139 $66 #
plane-surface $-1 -157.06778266170187 -17.247487978147891 138.62510552011614 0 1 0 -0.50000000669873634 0 0.8660253999169214 forward_v I I I I #
face $-1 $140 $141 $51 $-1 $142 forward single #
loop $-1 $143 $144 $67 #
cone-surface $-1 -68.996321041739961 -14.650819922321183 6.3694755907977525 0.50000000669873634 0 -0.8660253999169214 0.8660253999169214 0 0.50000000669873634 1 I I 0 1 1 forward I I I I #
face $-1 $145 $146 $52 $-1 $147 forward single #
loop $-1 $148 $149 $68 #
cone-surface $-1 -68.996321041739961 -10.755817838581123 6.3694755907977525 0.50000000669873634 0 -0.8660253999169214 0.8660253999169214 0 0.50000000669873634 1 I I 0 1 1 forward I I I I #
face $-1 $150 $151 $53 $-1 $152 forward single #
loop $-1 $153 $154 $69 #
cone-surface $-1 -68.996321041739961 -6.8608157548410631 6.3694755907977525 0.50000000669873634 0 -0.8660253999169214 0.8660253999169214 0 0.50000000669873634 1 I I 0 1 1 forward I I I I #
face $-1 $155 $156 $54 $-1 $157 reversed single #
loop $-1 $-1 $158 $70 #
plane-surface $-1 -157.06778266170187 27.081942455259604 138.62510552011614 0 1 0 -0.50000000669873634 0 0.8660253999169214 forward_v I I I I #
face $-1 $159 $160 $55 $-1 $161 forward single #
loop $-1 $162 $163 $71 #
cone-surface $-1 -68.996321041739961 29.678610511086319 6.3694755907977525 0.50000000669873634 0 -0.8660253999169214 0.8660253999169214 0 0.50000000669873634 1 I I 0 1 1 forward I I I I #
face $-1 $164 $165 $56 $-1 $166 forward single #
loop $-1 $167 $168 $72 #
cone-surface $-1 -68.996321041739961 33.573612594826372 6.3694755907977525 0.50000000669873634 0 -0.8660253999169214 0.8660253999169214 0 0.50000000669873634 1 I I 0 1 1 forward I I I I #
face $-1 $169 $170 $57 $-1 $171 forward single #
loop $-1 $172 $173 $73 #
cone-surface $-1 -68.996321041739961 37.468614678566439 6.3694755907977525 0.50000000669873634 0 -0.8660253999169214 0.8660253999169214 0 0.50000000669873634 1 I I 0 1 1 forward I I I I #
face $-1 $174 $175 $58 $-1 $176 reversed single #
loop $-1 $-1 $177 $74 #
plane-surface $-1 36.149989164015722 3.2921333571623421 218.60508578960236 0 -1 0 -0.55919291073839883 0 -0.82903756765294845 forward_v I I I I #
face $-1 $178 $179 $59 $-1 $180 forward single #
loop $-1 $181 $182 $75 #
cone-surface $-1 68.719991618337431 -5.0719739353741105 5.4943071102111505 -0.55919291073839883 0 -0.82903756765294845 0.82903756765294845 0 -0.55919291073839883 1 I I 0 1 1 forward I I I I #
face $-1 $183 $184 $60 $-1 $185 forward single #
loop $-1 $186 $187 $76 #
cone-surface $-1 68.719991618337431 -0.053509559852237487 5.4943071102111505 -0.55919291073839883 0 -0.82903756765294845 0.82903756765294845 0 -0.55919291073839883 1 I I 0 1 1 forward I I I I #
face $-1 $188 $189 $61 $-1 $190 reversed single #
loop $-1 $-1 $191 $77 #
plane-surface $-1 36.149989164015722 47.621563790569851 218.60508578960236 0 -1 0 -0.55919291073839883 0 -0.82903756765294845 forward_v I I I I #
face $-1 $192 $193 $62 $-1 $194 forward single #
loop $-1 $195 $196 $78 #
cone-surface $-1 68.719991618337431 39.257456498033392 5.4943071102111505 -0.55919291073839883 0 -0.82903756765294845 0.82903756765294845 0 -0.55919291073839883 1 I I 0 1 1 forward I I I I #
face $-1 $197 $198 $63 $-1 $199 forward single #
loop $-1 $200 $201 $79 #
cone-surface $-1 68.719991618337431 44.275920873555265 5.4943071102111505 -0.55919291073839883 0 -0.82903756765294845 0.82903756765294845 0 -0.55919291073839883 1 I I 0 1 1 forward I I I I #
face $-1 $202 $203 $48 $-1 $204 reversed single #
loop $-1 $-1 $205 $80 #
plane-surface $-1 0 0 -12.744724193643798 0 0 1 1 0 0 forward_v I I I I #
coedge $-1 $206 $207 $208 $209 forward $81 $-1 #
face $-1 $210 $211 $49 $-1 $212 reversed single #
loop $-1 $-1 $213 $83 #
plane-surface $-1 -71.495463080051081 -37.090421646118017 0 0 -1 0 0 0 -1 forward_v I I I I #
coedge $-1 $214 $215 $216 $217 forward $84 $-1 #
face $-1 $218 $219 $50 $-1 $220 reversed single #
loop $-1 $-1 $221 $86 #
plane-surface $-1 -78.533890804773122 -10.755817838581123 2.6004171376452234 -0.50000000669873634 0 0.8660253999169214 0.8660253999169214 0 0.50000000669873634 forward_v I I I I #
coedge $-1 $222 $223 $224 $225 reversed $87 $-1 #
face $-1 $-1 $226 $51 $-1 $227 forward single #
loop $-1 $228 $229 $89 #
cone-surface $-1 -67.993978732708825 -14.650819922321183 4.6333678159925284 0.50000000669873634 0 -0.8660253999169214 0.4330126999584607 0 0.25000000334936817 1 I I -0.70710678118654746 0.70710678118654746 0.5 forward I I I I #
loop $-1 $-1 $230 $67 #
coedge $-1 $144 $144 $231 $232 reversed $90 $-1 #
face $-1 $-1 $233 $52 $-1 $234 forward single #
loop $-1 $235 $236 $92 #
cone-surface $-1 -67.993978732708825 -10.755817838581123 4.6333678159925284 0.50000000669873634 0 -0.8660253999169214 0.4330126999584607 0 0.25000000334936817 1 I I -0.70710678118654746 0.70710678118654746 0.5 forward I I I I #
loop $-1 $-1 $237 $68 #
coedge $-1 $149 $149 $238 $239 reversed $93 $-1 #
face $-1 $-1 $240 $53 $-1 $241 forward single #
loop $-1 $242 $243 $95 #
cone-surface $-1 -67.993978732708825 -6.8608157548410631 4.6333678159925284 0.50000000669873634 0 -0.8660253999169214 0.4330126999584607 0 0.25000000334936817 1 I I -0.70710678118654746 0.70710678118654746 0.5 forward I I I I #
loop $-1 $-1 $244 $69 #
coedge $-1 $154 $154 $245 $246 reversed $96 $-1 #
face $-1 $247 $248 $54 $-1 $249 reversed single #
loop $-1 $-1 $250 $98 #
plane-surface $-1 -78.533890804773122 33.573612594826372 2.6004171376452234 -0.50000000669873634 0 0.8660253999169214 0.8660253999169214 0 0.50000000669873634 forward_v I I I I #
coedge $-1 $251 $252 $253 $254 reversed $99 $-1 #
face $-1 $-1 $255 $55 $-1 $256 forward single #
loop $-1 $257 $258 $101 #
cone-surface $-1 -67.993978732708825 29.678610511086319 4.6333678159925284 0.50000000669873634 0 -0.8660253999169214 0.4330126999584607 0 0.25000000334936817 1 I I -0.70710678118654746 0.70710678118654746 0.5 forward I I I I #
loop $-1 $-1 $259 $71 #
coedge $-1 $163 $163 $260 $261 reversed $102 $-1 #
face $-1 $-1 $262 $56 $-1 $263 forward single #
loop $-1 $264 $265 $104 #
cone-surface $-1 -67.993978732708825 33.573612594826372 4.6333678159925284 0.50000000669873634 0 -0.8660253999169214 0.4330126999584607 0 0.25000000334936817 1 I I -0.70710678118654746 0.70710678118654746 0.5 forward I I I I #
loop $-1 $-1 $266 $72 #
coedge $-1 $168 $168 $267 $268 reversed $105 $-1 #
face $-1 $-1 $269 $57 $-1 $270 forward single #
loop $-1 $271 $272 $107 #
cone-surface $-1 -67.993978732708825 37.468614678566439 4.6333678159925284 0.50000000669873634 0 -0.8660253999169214 0.4330126999584607 0 0.25000000334936817 1 I I -0.70710678118654746 0.70710678118654746 0.5 forward I I I I #
loop $-1 $-1 $273 $73 #
coedge $-1 $173 $173 $274 $275 reversed $108 $-1 #
face $-1 $276 $277 $58 $-1 $278 reversed single #
loop $-1 $-1 $279 $110 #
plane-surface $-1 -51.681200817449565 -2.562741747613174 88.389994167379683 0.55919291073839883 0 0.82903756765294845 0.82903756765294845 0 -0.55919291073839883 forward_v I I I I #
coedge $-1 $280 $281 $282 $283 reversed $111 $-1 #
face $-1 $-1 $284 $59 $-1 $285 forward single #
loop $-1 $286 $287 $113 #
cone-surface $-1 67.659680490157015 -5.0719739353741105 3.922331246816718 -0.55919291073839883 0 -0.82903756765294845 0.41451878382647422 0 -0.27959645536919941 1 I I -0.70710678118654746 0.70710678118654746 0.5 forward I I I I #
loop $-1 $-1 $288 $75 #
coedge $-1 $182 $182 $289 $290 reversed $114 $-1 #
face $-1 $-1 $291 $60 $-1 $292 forward single #
loop $-1 $293 $294 $116 #
cone-surface $-1 67.659680490157015 -0.053509559852237487 3.922331246816718 -0.55919291073839883 0 -0.82903756765294845 0.41451878382647422 0 -0.27959645536919941 1 I I -0.70710678118654746 0.70710678118654746 0.5 forward I I I I #
loop $-1 $-1 $295 $76 #
coedge $-1 $187 $187 $296 $297 reversed $117 $-1 #
face $-1 $298 $299 $61 $-1 $300 reversed single #
loop $-1 $-1 $301 $119 #
plane-surface $-1 -51.681200817449565 41.766688685794335 88.389994167379683 0.55919291073839883 0 0.82903756765294845 0.82903756765294845 0 -0.55919291073839883 forward_v I I I I #
coedge $-1 $302 $303 $304 $305 reversed $120 $-1 #
face $-1 $-1 $306 $62 $-1 $307 forward single #
loop $-1 $308 $309 $122 #
cone-surface $-1 67.659680490157015 39.257456498033392 3.922331246816718 -0.55919291073839883 0 -0.82903756765294845 0.41451878382647422 0 -0.27959645536919941 1 I I -0.70710678118654746 0.70710678118654746 0.5 forward I I I I #
loop $-1 $-1 $310 $78 #
coedge $-1 $196 $196 $311 $312 reversed $123 $-1 #
face $-1 $-1 $313 $63 $-1 $314 forward single #
loop $-1 $315 $316 $125 #
cone-surface $-1 67.659680490157015 44.275920873555265 3.922331246816718 -0.55919291073839883 0 -0.82903756765294845 0.41451878382647422 0 -0.27959645536919941 1 I I -0.70710678118654746 0.70710678118654746 0.5 forward I I I I #
loop $-1 $-1 $317 $79 #
coedge $-1 $201 $201 $318 $319 reversed $126 $-1 #
face $-1 $320 $321 $48 $-1 $322 reversed single #
loop $-1 $-1 $323 $128 #
plane-surface $-1 0 -51.568439220696987 0 0 1 0 0 0 1 forward_v I I I I #
coedge $-1 $324 $325 $326 $327 forward $129 $-1 #
coedge $-1 $328 $131 $329 $330 forward $81 $-1 #
coedge $-1 $131 $328 $331 $332 forward $81 $-1 #
coedge $-1 $333 $334 $131 $209 reversed $335 $-1 #
edge $-1 $336 -51.568439220696987 $337 51.568439220696987 $208 $338 forward 7 unknown #
face $-1 $339 $340 $49 $-1 $341 forward single #
loop $-1 $-1 $342 $132 #
plane-surface $-1 -68.578766029490595 -44.329430433407502 0 -1 0 0 0 0 1 forward_v I I I I #
coedge $-1 $343 $344 $345 $346 forward $133 $-1 #
coedge $-1 $347 $135 $348 $349 reversed $84 $-1 #
coedge $-1 $135 $347 $350 $351 reversed $84 $-1 #
coedge $-1 $344 $343 $135 $217 reversed $133 $-1 #
edge $-1 $352 -12.744724193643798 $353 12.744724193643798 $216 $354 forward 7 unknown #
face $-1 $355 $356 $50 $-1 $357 reversed single #
loop $-1 $-1 $358 $136 #
plane-surface $-1 -157.06778266170187 -4.2641476990143552 138.62510552011614 0 -1 0 0.50000000669873634 0 -0.8660253999169214 forward_v I I I I #
coedge $-1 $359 $360 $361 $362 reversed $137 $-1 #
coedge $-1 $223 $139 $363 $364 reversed $87 $-1 #
coedge $-1 $139 $222 $359 $365 reversed $87 $-1 #
coedge $-1 $361 $366 $139 $225 forward $367 $-1 #
edge $-1 $368 5.2607784084557352e-007 $369 17.570455440780549 $224 $370 forward 7 unknown #
loop $-1 $-1 $231 $140 #
plane-surface $-1 -78.533890804773122 -10.755817838581123 2.6004171376452234 -0.50000000669873634 0 0.8660253999169214 0.8660253999169214 0 0.50000000669873634 forward_v I I I I #
loop $-1 $-1 $371 $89 #
coedge $-1 $229 $229 $230 $372 reversed $141 $-1 #
coedge $-1 $230 $230 $229 $372 forward $143 $-1 #
coedge $-1 $231 $231 $144 $232 forward $226 $-1 #
edge $-1 $373 0 $373 6.2831853071796004 $231 $374 forward 7 unknown #
loop $-1 $-1 $238 $145 #
plane-surface $-1 -78.533890804773122 -10.755817838581123 2.6004171376452234 -0.50000000669873634 0 0.8660253999169214 0.8660253999169214 0 0.50000000669873634 forward_v I I I I #
loop $-1 $-1 $375 $92 #
coedge $-1 $236 $236 $237 $376 reversed $146 $-1 #
coedge $-1 $237 $237 $236 $376 forward $148 $-1 #
coedge $-1 $238 $238 $149 $239 forward $233 $-1 #
edge $-1 $377 0 $377 6.2831853071796004 $238 $378 forward 7 unknown #
loop $-1 $-1 $245 $150 #
plane-surface $-1 -78.533890804773122 -10.755817838581123 2.6004171376452234 -0.50000000669873634 0 0.8660253999169214 0.8660253999169214 0 0.50000000669873634 forward_v I I I I #
loop $-1 $-1 $379 $95 #
coedge $-1 $243 $243 $244 $380 reversed $151 $-1 #
coedge $-1 $244 $244 $243 $380 forward $153 $-1 #
coedge $-1 $245 $245 $154 $246 forward $240 $-1 #
edge $-1 $381 0 $381 6.2831853071796004 $245 $382 forward 7 unknown #
face $-1 $383 $384 $54 $-1 $385 forward single #
loop $-1 $-1 $386 $155 #
plane-surface $-1 -157.06778266170187 40.065282734393136 138.62510552011614 0 -1 0 0.50000000669873634 0 -0.8660253999169214 forward_v I I I I #
coedge $-1 $387 $388 $389 $390 reversed $156 $-1 #
coedge $-1 $252 $158 $391 $392 reversed $99 $-1 #
coedge $-1 $158 $251 $387 $393 reversed $99 $-1 #
coedge $-1 $389 $394 $158 $254 forward $384 $-1 #
edge $-1 $395 5.2607784084557352e-007 $396 17.570455440780549 $253 $397 forward 7 unknown #
loop $-1 $-1 $260 $159 #
plane-surface $-1 -78.533890804773122 33.573612594826372 2.6004171376452234 -0.50000000669873634 0 0.8660253999169214 0.8660253999169214 0 0.50000000669873634 forward_v I I I I #
loop $-1 $-1 $398 $101 #
coedge $-1 $258 $258 $259 $399 reversed $160 $-1 #
coedge $-1 $259 $259 $258 $399 forward $162 $-1 #
coedge $-1 $260 $260 $163 $261 forward $255 $-1 #
edge $-1 $400 0 $400 6.2831853071796004 $260 $401 forward 7 unknown #
loop $-1 $-1 $267 $164 #
plane-surface $-1 -78.533890804773122 33.573612594826372 2.6004171376452234 -0.50000000669873634 0 0.8660253999169214 0.8660253999169214 0 0.50000000669873634 forward_v I I I I #
loop $-1 $-1 $402 $104 #
coedge $-1 $265 $265 $266 $403 reversed $165 $-1 #
coedge $-1 $266 $266 $265 $403 forward $167 $-1 #
coedge $-1 $267 $267 $168 $268 forward $262 $-1 #
edge $-1 $404 0 $404 6.2831853071796004 $267 $405 forward 7 unknown #
loop $-1 $-1 $274 $169 #
plane-surface $-1 -78.533890804773122 33.573612594826372 2.6004171376452234 -0.50000000669873634 0 0.8660253999169214 0.8660253999169214 0 0.50000000669873634 forward_v I I I I #
loop $-1 $-1 $406 $107 #
coedge $-1 $272 $272 $273 $407 reversed $170 $-1 #
coedge $-1 $273 $273 $272 $407 forward $172 $-1 #
coedge $-1 $274 $274 $173 $275 forward $269 $-1 #
edge $-1 $408 0 $408 6.2831853071796004 $274 $409 forward 7 unknown #
face $-1 $410 $411 $58 $-1 $412 forward single #
loop $-1 $-1 $413 $174 #
plane-surface $-1 36.149989164015722 -8.4176168523886901 218.60508578960236 0 1 0 0.55919291073839883 0 0.82903756765294845 forward_v I I I I #
coedge $-1 $414 $415 $416 $417 reversed $175 $-1 #
coedge $-1 $281 $177 $418 $419 reversed $111 $-1 #
coedge $-1 $177 $280 $414 $420 reversed $111 $-1 #
coedge $-1 $416 $421 $177 $283 forward $411 $-1 #
edge $-1 $422 -60.458896222765233 $423 -42.392527195516337 $282 $424 forward 7 unknown #
loop $-1 $-1 $289 $178 #
plane-surface $-1 -51.681200817449565 -2.562741747613174 88.389994167379683 0.55919291073839883 0 0.82903756765294845 0.82903756765294845 0 -0.55919291073839883 forward_v I I I I #
loop $-1 $-1 $425 $113 #
coedge $-1 $287 $287 $288 $426 reversed $179 $-1 #
coedge $-1 $288 $288 $287 $426 forward $181 $-1 #
coedge $-1 $289 $289 $182 $290 forward $284 $-1 #
edge $-1 $427 0 $427 6.2831853071796004 $289 $428 forward 7 unknown #
loop $-1 $-1 $296 $183 #
plane-surface $-1 -51.681200817449565 -2.562741747613174 88.389994167379683 0.55919291073839883 0 0.82903756765294845 0.82903756765294845 0 -0.55919291073839883 forward_v I I I I #
loop $-1 $-1 $429 $116 #
coedge $-1 $294 $294 $295 $430 reversed $184 $-1 #
coedge $-1 $295 $295 $294 $430 forward $186 $-1 #
coedge $-1 $296 $296 $187 $297 forward $291 $-1 #
edge $-1 $431 0 $431 6.2831853071796004 $296 $432 forward 7 unknown #
face $-1 $433 $434 $61 $-1 $435 reversed single #
loop $-1 $-1 $436 $188 #
plane-surface $-1 36.149989164015722 35.911813581018819 218.60508578960236 0 1 0 0.55919291073839883 0 0.82903756765294845 forward_v I I I I #
coedge $-1 $437 $438 $439 $440 reversed $189 $-1 #
coedge $-1 $303 $191 $441 $442 reversed $120 $-1 #
coedge $-1 $191 $302 $437 $443 reversed $120 $-1 #
coedge $-1 $439 $444 $191 $305 forward $445 $-1 #
edge $-1 $446 -60.458896222765233 $447 -42.392527195516337 $304 $448 forward 7 unknown #
loop $-1 $-1 $311 $192 #
plane-surface $-1 -51.681200817449565 41.766688685794335 88.389994167379683 0.55919291073839883 0 0.82903756765294845 0.82903756765294845 0 -0.55919291073839883 forward_v I I I I #
loop $-1 $-1 $449 $122 #
coedge $-1 $309 $309 $310 $450 reversed $193 $-1 #
coedge $-1 $310 $310 $309 $450 forward $195 $-1 #
coedge $-1 $311 $311 $196 $312 forward $306 $-1 #
edge $-1 $451 0 $451 6.2831853071796004 $311 $452 forward 7 unknown #
loop $-1 $-1 $318 $197 #
plane-surface $-1 -51.681200817449565 41.766688685794335 88.389994167379683 0.55919291073839883 0 0.82903756765294845 0.82903756765294845 0 -0.55919291073839883 forward_v I I I I #
loop $-1 $-1 $453 $125 #
coedge $-1 $316 $316 $317 $454 reversed $198 $-1 #
coedge $-1 $317 $317 $316 $454 forward $200 $-1 #
coedge $-1 $318 $318 $201 $319 forward $313 $-1 #
edge $-1 $455 0 $455 6.2831853071796004 $318 $456 forward 7 unknown #
face $-1 $457 $458 $48 $-1 $459 reversed single #
loop $-1 $-1 $460 $202 #
plane-surface $-1 -78.533890804773094 0 0 1 0 0 0 0 -1 forward_v I I I I #
coedge $-1 $461 $331 $462 $463 forward $203 $-1 #
coedge $-1 $464 $205 $461 $465 forward $129 $-1 #
coedge $-1 $205 $464 $466 $467 forward $129 $-1 #
coedge $-1 $334 $333 $205 $327 reversed $335 $-1 #
edge $-1 $468 -51.568439220696987 $469 51.568439220696987 $326 $470 forward 7 unknown #
coedge $-1 $207 $206 $471 $472 forward $81 $-1 #
coedge $-1 $473 $474 $206 $330 reversed $458 $-1 #
edge $-1 $337 -78.533890804773094 $475 78.533890804773094 $329 $476 forward 7 unknown #
coedge $-1 $323 $477 $207 $332 reversed $203 $-1 #
edge $-1 $478 -78.533890804773094 $336 78.533890804773094 $331 $479 forward 7 unknown #
coedge $-1 $326 $208 $477 $480 forward $335 $-1 #
coedge $-1 $208 $326 $473 $481 reversed $335 $-1 #
loop $-1 $-1 $333 $457 #
vertex $-1 $209 $482 #
vertex $-1 $209 $483 #
straight-curve $-1 78.533890804773094 0 12.744724193643798 0 1 0 I I #
face $-1 $484 $485 $49 $-1 $486 reversed single #
loop $-1 $-1 $487 $210 #
plane-surface $-1 0 0 12.744724193643798 0 0 1 1 0 0 forward_v I I I I #
coedge $-1 $488 $489 $490 $491 reversed $211 $-1 #
coedge $-1 $216 $213 $492 $493 reversed $133 $-1 #
coedge $-1 $213 $216 $494 $495 reversed $133 $-1 #
coedge $-1 $489 $488 $213 $346 reversed $211 $-1 #
edge $-1 $496 -12.744724193643798 $497 12.744724193643798 $345 $498 forward 7 unknown #
coedge $-1 $215 $214 $499 $500 reversed $84 $-1 #
coedge $-1 $492 $501 $214 $349 forward $485 $-1 #
edge $-1 $502 -29.403724003993236 $353 -14.925706429414266 $348 $503 forward 7 unknown #
coedge $-1 $504 $494 $215 $351 forward $340 $-1 #
edge $-1 $352 14.925706429414266 $505 29.403724003993236 $350 $506 forward 7 unknown #
vertex $-1 $351 $507 #
vertex $-1 $349 $508 #
straight-curve $-1 -74.412160130611568 -37.090421646118017 0 0 0 -1 I I #
face $-1 $-1 $367 $50 $-1 $509 forward single #
loop $-1 $-1 $510 $218 #
plane-surface $-1 -78.533890804773094 0 0 1 0 0 0 0 -1 forward_v I I I I #
coedge $-1 $511 $512 $513 $514 reversed $219 $-1 #
coedge $-1 $515 $221 $223 $365 forward $137 $-1 #
coedge $-1 $221 $515 $511 $516 forward $137 $-1 #
coedge $-1 $513 $224 $221 $362 forward $367 $-1 #
edge $-1 $369 -11.86957905885733 $517 1.1137612202762064 $361 $518 forward 7 unknown #
coedge $-1 $519 $520 $222 $364 forward $356 $-1 #
edge $-1 $521 -66.712135622412831 $368 -56.567828566414271 $363 $522 forward 7 unknown #
edge $-1 $369 -20.288613840181 $521 -3.282957276808328e-014 $223 $523 forward 7 unknown #
coedge $-1 $224 $513 $519 $524 forward $367 $-1 #
loop $-1 $-1 $513 $355 #
vertex $-1 $364 $525 #
vertex $-1 $225 $526 #
straight-curve $-1 -78.533891330850935 -17.247487978147891 12.744724193643798 1 0 0 I I #
coedge $-1 $371 $371 $-1 $527 reversed $228 $-1 #
edge $-1 $528 0 $528 6.2831853071796004 $229 $529 forward 7 unknown #
vertex $-1 $232 $530 #
ellipse-curve $-1 -69.74866334742174 -14.650819922321183 7.6725706656445229 -0.50000000669873634 0 0.8660253999169214 0.8660253999169214 0 0.50000000669873634 1 I I #
coedge $-1 $375 $375 $-1 $531 reversed $235 $-1 #
edge $-1 $532 0 $532 6.2831853071796004 $236 $533 forward 7 unknown #
vertex $-1 $239 $534 #
ellipse-curve $-1 -69.74866334742174 -10.755817838581123 7.6725706656445229 -0.50000000669873634 0 0.8660253999169214 0.8660253999169214 0 0.50000000669873634 1 I I #
coedge $-1 $379 $379 $-1 $535 reversed $242 $-1 #
edge $-1 $536 0 $536 6.2831853071796004 $243 $537 forward 7 unknown #
vertex $-1 $246 $538 #
ellipse-curve $-1 -69.74866334742174 -6.8608157548410631 7.6725706656445229 -0.50000000669873634 0 0.8660253999169214 0.8660253999169214 0 0.50000000669873634 1 I I #
face $-1 $-1 $539 $54 $-1 $540 reversed single #
loop $-1 $-1 $253 $247 #
plane-surface $-1 0 0 12.744724193643798 0 0 1 1 0 0 forward_v I I I I #
coedge $-1 $541 $542 $543 $544 reversed $248 $-1 #
coedge $-1 $545 $250 $252 $393 forward $156 $-1 #
coedge $-1 $250 $545 $541 $546 forward $156 $-1 #
coedge $-1 $543 $253 $250 $390 forward $384 $-1 #
edge $-1 $396 10.295136157846418 $547 23.27847643697995 $389 $548 forward 7 unknown #
coedge $-1 $549 $550 $251 $392 forward $539 $-1 #
edge $-1 $551 -66.712135622412831 $395 -56.567828566414271 $391 $552 forward 7 unknown #
edge $-1 $396 -20.288613840181 $551 -3.282957276808328e-014 $252 $553 forward 7 unknown #
coedge $-1 $253 $543 $549 $554 forward $384 $-1 #
vertex $-1 $392 $555 #
vertex $-1 $254 $556 #
straight-curve $-1 -78.533891330850935 27.081942455259604 12.744724193643798 1 0 0 I I #
coedge $-1 $398 $398 $-1 $557 reversed $257 $-1 #
edge $-1 $558 0 $558 6.2831853071796004 $258 $559 forward 7 unknown #
vertex $-1 $261 $560 #
ellipse-curve $-1 -69.74866334742174 29.678610511086319 7.6725706656445229 -0.50000000669873634 0 0.8660253999169214 0.8660253999169214 0 0.50000000669873634 1 I I #
coedge $-1 $402 $402 $-1 $561 reversed $264 $-1 #
edge $-1 $562 0 $562 6.2831853071796004 $265 $563 forward 7 unknown #
vertex $-1 $268 $564 #
ellipse-curve $-1 -69.74866334742174 33.573612594826372 7.6725706656445229 -0.50000000669873634 0 0.8660253999169214 0.8660253999169214 0 0.50000000669873634 1 I I #
coedge $-1 $406 $406 $-1 $565 reversed $271 $-1 #
edge $-1 $566 0 $566 6.2831853071796004 $272 $567 forward 7 unknown #
vertex $-1 $275 $568 #
ellipse-curve $-1 -69.74866334742174 37.468614678566439 7.6725706656445229 -0.50000000669873634 0 0.8660253999169214 0.8660253999169214 0 0.50000000669873634 1 I I #
face $-1 $-1 $569 $58 $-1 $570 reversed single #
loop $-1 $-1 $282 $276 #
plane-surface $-1 0 0 12.744724193643798 0 0 1 1 0 0 forward_v I I I I #
coedge $-1 $571 $572 $573 $574 reversed $277 $-1 #
coedge $-1 $575 $279 $281 $420 forward $175 $-1 #
coedge $-1 $279 $575 $571 $576 forward $175 $-1 #
coedge $-1 $573 $282 $279 $417 forward $411 $-1 #
edge $-1 $423 -4.5735042309689291 $577 7.1362459785821031 $416 $578 forward 7 unknown #
coedge $-1 $579 $580 $280 $419 forward $569 $-1 #
edge $-1 $581 -108.74373870888675 $422 -96.557818701157373 $418 $582 forward 7 unknown #
edge $-1 $423 135.27580289572768 $581 157.06778160954616 $281 $583 forward 7 unknown #
coedge $-1 $282 $573 $579 $584 forward $411 $-1 #
vertex $-1 $419 $585 #
vertex $-1 $283 $586 #
straight-curve $-1 18.074994582007861 3.2921333571623421 12.74472419364379 -1 0 0 I I #
coedge $-1 $425 $425 $-1 $587 reversed $286 $-1 #
edge $-1 $588 0 $588 6.2831853071796004 $287 $589 forward 7 unknown #
vertex $-1 $290 $590 #
ellipse-curve $-1 69.500706291148632 -5.0719739353741105 6.6517641897790982 0.55919291073839883 0 0.82903756765294845 0.82903756765294845 0 -0.55919291073839883 1 I I #
coedge $-1 $429 $429 $-1 $591 reversed $293 $-1 #
edge $-1 $592 0 $592 6.2831853071796004 $294 $593 forward 7 unknown #
vertex $-1 $297 $594 #
ellipse-curve $-1 69.500706291148632 -0.053509559852237487 6.6517641897790982 0.55919291073839883 0 0.82903756765294845 0.82903756765294845 0 -0.55919291073839883 1 I I #
face $-1 $-1 $445 $61 $-1 $595 forward single #
loop $-1 $-1 $596 $298 #
plane-surface $-1 78.533890804773094 0 0 -1 0 0 0 0 1 forward_v I I I I #
coedge $-1 $597 $598 $599 $600 reversed $299 $-1 #
coedge $-1 $601 $301 $303 $443 forward $189 $-1 #
coedge $-1 $301 $601 $597 $602 forward $189 $-1 #
coedge $-1 $599 $304 $301 $440 forward $445 $-1 #
edge $-1 $447 -26.738219447672684 $603 -15.028469238121652 $439 $604 forward 7 unknown #
coedge $-1 $605 $606 $302 $442 forward $434 $-1 #
edge $-1 $607 -108.74373870888675 $446 -96.557818701157373 $441 $608 forward 7 unknown #
edge $-1 $447 135.27580289572768 $607 157.06778160954616 $303 $609 forward 7 unknown #
coedge $-1 $304 $599 $605 $610 forward $445 $-1 #
loop $-1 $-1 $599 $433 #
vertex $-1 $442 $611 #
vertex $-1 $305 $612 #
straight-curve $-1 18.074994582007861 47.621563790569851 12.74472419364379 -1 0 0 I I #
coedge $-1 $449 $449 $-1 $613 reversed $308 $-1 #
edge $-1 $614 0 $614 6.2831853071796004 $309 $615 forward 7 unknown #
vertex $-1 $312 $616 #
ellipse-curve $-1 69.500706291148632 39.257456498033392 6.6517641897790982 0.55919291073839883 0 0.82903756765294845 0.82903756765294845 0 -0.55919291073839883 1 I I #
coedge $-1 $453 $453 $-1 $617 reversed $315 $-1 #
edge $-1 $618 0 $618 6.2831853071796004 $316 $619 forward 7 unknown #
vertex $-1 $319 $620 #
ellipse-curve $-1 69.500706291148632 44.275920873555265 6.6517641897790982 0.55919291073839883 0 0.82903756765294845 0.82903756765294845 0 -0.55919291073839883 1 I I #
face $-1 $-1 $335 $48 $-1 $621 reversed single #
loop $-1 $-1 $473 $320 #
plane-surface $-1 0 51.568439220696987 0 0 -1 0 0 0 -1 forward_v I I I I #
coedge $-1 $622 $471 $474 $623 forward $321 $-1 #
coedge $-1 $477 $323 $324 $465 reversed $203 $-1 #
coedge $-1 $471 $622 $323 $463 reversed $321 $-1 #
edge $-1 $478 -12.744724193643798 $624 12.744724193643798 $462 $625 forward 7 unknown #
coedge $-1 $325 $324 $622 $626 forward $129 $-1 #
edge $-1 $469 -78.533890804773094 $624 78.533890804773094 $461 $627 forward 7 unknown #
coedge $-1 $474 $473 $325 $467 reversed $458 $-1 #
edge $-1 $628 -78.533890804773094 $468 78.533890804773094 $466 $629 forward 7 unknown #
vertex $-1 $327 $630 #
vertex $-1 $480 $631 #
straight-curve $-1 78.533890804773094 0 -12.744724193643798 0 -1 0 I I #
coedge $-1 $460 $462 $328 $472 reversed $321 $-1 #
edge $-1 $475 -51.568439220696987 $478 51.568439220696987 $471 $632 forward 7 unknown #
coedge $-1 $466 $329 $334 $481 forward $458 $-1 #
coedge $-1 $329 $466 $460 $623 reversed $458 $-1 #
vertex $-1 $330 $633 #
straight-curve $-1 0 51.568439220696987 12.744724193643798 -1 0 0 I I #
coedge $-1 $331 $461 $333 $480 reversed $203 $-1 #
vertex $-1 $472 $634 #
straight-curve $-1 0 -51.568439220696987 12.744724193643798 1 0 0 I I #
edge $-1 $336 -12.744724193643798 $469 12.744724193643798 $333 $635 forward 7 unknown #
edge $-1 $337 -12.744724193643798 $468 12.744724193643798 $334 $636 forward 7 unknown #
point $-1 78.533890804773094 -51.568439220696987 12.744724193643798 #
point $-1 78.533890804773094 51.568439220696987 12.744724193643798 #
face $-1 $-1 $637 $49 $-1 $638 reversed single #
loop $-1 $-1 $639 $339 #
plane-surface $-1 0 0 -12.744724193643798 0 0 1 1 0 0 forward_v I I I I #
coedge $-1 $494 $504 $489 $640 forward $340 $-1 #
coedge $-1 $345 $342 $639 $641 reversed $211 $-1 #
coedge $-1 $342 $345 $487 $640 reversed $211 $-1 #
coedge $-1 $642 $643 $342 $491 forward $637 $-1 #
edge $-1 $644 -12.744724193643798 $645 12.744724193643798 $490 $646 forward 7 unknown #
coedge $-1 $639 $348 $343 $493 forward $485 $-1 #
edge $-1 $353 -38.664428590586027 $497 -32.831034489465054 $492 $647 forward 7 unknown #
coedge $-1 $350 $487 $344 $495 forward $340 $-1 #
edge $-1 $496 32.831034489465054 $352 38.664428590586027 $494 $648 forward 7 unknown #
vertex $-1 $495 $649 #
vertex $-1 $493 $650 #
straight-curve $-1 -68.578766029490595 -37.090421646118017 0 0 0 -1 I I #
coedge $-1 $643 $642 $347 $500 forward $637 $-1 #
edge $-1 $505 -12.744724193643798 $502 12.744724193643798 $499 $651 forward 7 unknown #
coedge $-1 $348 $639 $643 $652 forward $485 $-1 #
vertex $-1 $349 $653 #
straight-curve $-1 -74.412160130611568 -22.164715216703751 -12.744724193643798 0 1 0 I I #
coedge $-1 $487 $350 $642 $654 forward $340 $-1 #
vertex $-1 $654 $655 #
straight-curve $-1 -74.412160130611568 -22.164715216703751 12.744724193643798 0 -1 0 I I #
point $-1 -74.412160130611568 -37.090421646118017 12.744724193643798 #
point $-1 -74.412160130611568 -37.090421646118017 -12.744724193643798 #
plane-surface $-1 0 0 12.744724193643798 0 0 1 1 0 0 forward_v I I I I #
coedge $-1 $520 $519 $512 $656 forward $356 $-1 #
coedge $-1 $512 $358 $360 $516 reversed $219 $-1 #
coedge $-1 $358 $511 $510 $656 reversed $219 $-1 #
coedge $-1 $366 $361 $358 $514 forward $367 $-1 #
edge $-1 $517 -17.570455440780549 $657 -5.2607784084557352e-007 $513 $658 forward 7 unknown #
coedge $-1 $360 $359 $520 $659 reversed $137 $-1 #
edge $-1 $660 3.282957276808328e-014 $517 20.288613840181 $511 $661 forward 7 unknown #
vertex $-1 $362 $662 #
straight-curve $-1 -60.963435890070386 -5.3779089192905616 12.744724193643799 0 1 0 I I #
coedge $-1 $510 $363 $366 $524 reversed $356 $-1 #
coedge $-1 $363 $510 $515 $659 forward $356 $-1 #
vertex $-1 $364 $663 #
straight-curve $-1 -78.533890804773094 -17.247487978147891 69.312552760058068 0 0 1 I I #
straight-curve $-1 -78.533890804773122 -17.247487978147891 2.6004171376452234 -0.8660253999169214 0 -0.50000000669873634 I I #
edge $-1 $657 4.2641476990143552 $368 17.247487978147891 $519 $664 forward 7 unknown #
point $-1 -78.533890804773094 -17.247487978147891 12.744724193643798 #
point $-1 -60.963435890070386 -17.247487978147891 12.744724193643798 #
edge $-1 $665 1 $665 0 $371 $-1 forward 7 unknown #
vertex $-1 $372 $666 #
ellipse-curve $-1 -68.243978736058196 -14.650819922321183 5.0663805159509891 -0.50000000669873634 0 0.8660253999169214 0.8660253999169214 0 0.50000000669873634 1 I I #
point $-1 -68.882637947504804 -14.650819922321183 8.1725706723432516 #
edge $-1 $667 1 $667 0 $375 $-1 forward 7 unknown #
vertex $-1 $376 $668 #
ellipse-curve $-1 -68.243978736058196 -10.755817838581123 5.0663805159509891 -0.50000000669873634 0 0.8660253999169214 0.8660253999169214 0 0.50000000669873634 1 I I #
point $-1 -68.882637947504804 -10.755817838581123 8.1725706723432516 #
edge $-1 $669 1 $669 0 $379 $-1 forward 7 unknown #
vertex $-1 $380 $670 #
ellipse-curve $-1 -68.243978736058196 -6.8608157548410631 5.0663805159509891 -0.50000000669873634 0 0.8660253999169214 0.8660253999169214 0 0.50000000669873634 1 I I #
point $-1 -68.882637947504804 -6.8608157548410631 8.1725706723432516 #
loop $-1 $-1 $391 $383 #
plane-surface $-1 -78.533890804773094 0 0 1 0 0 0 0 -1 forward_v I I I I #
coedge $-1 $542 $386 $388 $546 reversed $248 $-1 #
coedge $-1 $386 $541 $671 $672 reversed $248 $-1 #
coedge $-1 $394 $389 $386 $544 forward $384 $-1 #
edge $-1 $547 -17.570455440780549 $673 -5.2607784084557352e-007 $543 $674 forward 7 unknown #
coedge $-1 $388 $387 $550 $675 reversed $156 $-1 #
edge $-1 $676 3.282957276808328e-014 $547 20.288613840181 $541 $677 forward 7 unknown #
vertex $-1 $390 $678 #
straight-curve $-1 -60.963435890070386 16.786806297413186 12.744724193643799 0 1 0 I I #
coedge $-1 $671 $391 $394 $554 reversed $539 $-1 #
coedge $-1 $391 $671 $545 $675 forward $539 $-1 #
vertex $-1 $392 $679 #
straight-curve $-1 -78.533890804773094 27.081942455259604 69.312552760058068 0 0 1 I I #
straight-curve $-1 -78.533890804773122 27.081942455259604 2.6004171376452234 -0.8660253999169214 0 -0.50000000669873634 I I #
edge $-1 $673 -40.065282734393136 $395 -27.081942455259604 $549 $680 forward 7 unknown #
point $-1 -78.533890804773094 27.081942455259604 12.744724193643798 #
point $-1 -60.963435890070386 27.081942455259604 12.744724193643798 #
edge $-1 $681 1 $681 0 $398 $-1 forward 7 unknown #
vertex $-1 $399 $682 #
ellipse-curve $-1 -68.243978736058196 29.678610511086319 5.0663805159509891 -0.50000000669873634 0 0.8660253999169214 0.8660253999169214 0 0.50000000669873634 1 I I #
point $-1 -68.882637947504804 29.678610511086319 8.1725706723432516 #
edge $-1 $683 1 $683 0 $402 $-1 forward 7 unknown #
vertex $-1 $403 $684 #
ellipse-curve $-1 -68.243978736058196 33.573612594826372 5.0663805159509891 -0.50000000669873634 0 0.8660253999169214 0.8660253999169214 0 0.50000000669873634 1 I I #
point $-1 -68.882637947504804 33.573612594826372 8.1725706723432516 #
edge $-1 $685 1 $685 0 $406 $-1 forward 7 unknown #
vertex $-1 $407 $686 #
ellipse-curve $-1 -68.243978736058196 37.468614678566439 5.0663805159509891 -0.50000000669873634 0 0.8660253999169214 0.8660253999169214 0 0.50000000669873634 1 I I #
point $-1 -68.882637947504804 37.468614678566439 8.1725706723432516 #
loop $-1 $-1 $418 $410 #
plane-surface $-1 78.533890804773094 0 0 -1 0 0 0 0 1 forward_v I I I I #
coedge $-1 $572 $413 $415 $576 reversed $277 $-1 #
coedge $-1 $413 $571 $687 $688 reversed $277 $-1 #
coedge $-1 $421 $416 $413 $574 forward $411 $-1 #
edge $-1 $577 42.392527195516337 $689 60.458896222765233 $573 $690 forward 7 unknown #
coedge $-1 $415 $414 $580 $691 reversed $175 $-1 #
edge $-1 $692 -157.06778160954616 $577 -135.27580289572768 $571 $693 forward 7 unknown #
vertex $-1 $417 $694 #
straight-curve $-1 60.467521777524198 -1.281370873806587 12.744724193643798 0 -1 0 I I #
coedge $-1 $687 $418 $421 $584 reversed $569 $-1 #
coedge $-1 $418 $687 $575 $691 forward $569 $-1 #
vertex $-1 $419 $695 #
straight-curve $-1 78.533890804773094 3.2921333571623421 109.30254289480118 0 0 1 I I #
straight-curve $-1 -51.681200817449565 3.2921333571623421 88.389994167379683 0.82903756765294845 0 -0.55919291073839883 I I #
edge $-1 $689 -8.4176168523886901 $422 3.2921333571623421 $579 $696 forward 7 unknown #
point $-1 78.533890804773094 3.2921333571623421 12.744724193643798 #
point $-1 60.467521777524198 3.2921333571623421 12.744724193643805 #
edge $-1 $697 1 $697 0 $425 $-1 forward 7 unknown #
vertex $-1 $426 $698 #
ellipse-curve $-1 67.939276945526217 -5.0719739353741105 4.3368500306431921 0.55919291073839883 0 0.82903756765294845 0.82903756765294845 0 -0.55919291073839883 1 I I #
point $-1 70.329743858801578 -5.0719739353741105 6.0925712790407092 #
edge $-1 $699 1 $699 0 $429 $-1 forward 7 unknown #
vertex $-1 $430 $700 #
ellipse-curve $-1 67.939276945526217 -0.053509559852237487 4.3368500306431921 0.55919291073839883 0 0.82903756765294845 0.82903756765294845 0 -0.55919291073839883 1 I I #
point $-1 70.329743858801578 -0.053509559852237487 6.0925712790407092 #
plane-surface $-1 0 0 12.744724193643798 0 0 1 1 0 0 forward_v I I I I #
coedge $-1 $606 $605 $598 $701 forward $434 $-1 #
coedge $-1 $598 $436 $438 $602 reversed $299 $-1 #
coedge $-1 $436 $597 $596 $701 reversed $299 $-1 #
coedge $-1 $444 $439 $436 $600 forward $445 $-1 #
edge $-1 $603 42.392527195516337 $702 60.458896222765233 $599 $703 forward 7 unknown #
coedge $-1 $438 $437 $606 $704 reversed $189 $-1 #
edge $-1 $705 -157.06778160954616 $603 -135.27580289572768 $597 $706 forward 7 unknown #
vertex $-1 $440 $707 #
straight-curve $-1 60.467521777524198 20.883344342897168 12.744724193643798 0 -1 0 I I #
coedge $-1 $596 $441 $444 $610 reversed $434 $-1 #
coedge $-1 $441 $596 $601 $704 forward $434 $-1 #
vertex $-1 $442 $708 #
straight-curve $-1 78.533890804773094 47.621563790569851 109.30254289480118 0 0 1 I I #
straight-curve $-1 -51.681200817449565 47.621563790569851 88.389994167379683 0.82903756765294845 0 -0.55919291073839883 I I #
edge $-1 $702 35.911813581018819 $446 47.621563790569851 $605 $709 forward 7 unknown #
point $-1 78.533890804773094 47.621563790569851 12.744724193643798 #
point $-1 60.467521777524198 47.621563790569851 12.744724193643805 #
edge $-1 $710 1 $710 0 $449 $-1 forward 7 unknown #
vertex $-1 $450 $711 #
ellipse-curve $-1 67.939276945526217 39.257456498033392 4.3368500306431921 0.55919291073839883 0 0.82903756765294845 0.82903756765294845 0 -0.55919291073839883 1 I I #
point $-1 70.329743858801578 39.257456498033392 6.0925712790407092 #
edge $-1 $712 1 $712 0 $453 $-1 forward 7 unknown #
vertex $-1 $454 $713 #
ellipse-curve $-1 67.939276945526217 44.275920873555265 4.3368500306431921 0.55919291073839883 0 0.82903756765294845 0.82903756765294845 0 -0.55919291073839883 1 I I #
point $-1 70.329743858801578 44.275920873555265 6.0925712790407092 #
plane-surface $-1 78.533890804773094 0 0 -1 0 0 0 0 1 forward_v I I I I #
coedge $-1 $462 $460 $464 $626 reversed $321 $-1 #
edge $-1 $475 -12.744724193643798 $628 12.744724193643798 $474 $714 forward 7 unknown #
vertex $-1 $626 $715 #
straight-curve $-1 -78.533890804773094 -51.568439220696987 0 0 0 -1 I I #
edge $-1 $624 -51.568439220696987 $628 51.568439220696987 $622 $716 forward 7 unknown #
straight-curve $-1 0 -51.568439220696987 -12.744724193643798 -1 0 0 I I #
vertex $-1 $467 $717 #
straight-curve $-1 0 51.568439220696987 -12.744724193643798 1 0 0 I I #
point $-1 78.533890804773094 51.568439220696987 -12.744724193643798 #
point $-1 78.533890804773094 -51.568439220696987 -12.744724193643798 #
straight-curve $-1 -78.533890804773094 0 12.744724193643798 0 -1 0 I I #
point $-1 -78.533890804773094 51.568439220696987 12.744724193643798 #
point $-1 -78.533890804773094 -51.568439220696987 12.744724193643798 #
straight-curve $-1 78.533890804773094 -51.568439220696987 0 0 0 -1 I I #
straight-curve $-1 78.533890804773094 51.568439220696987 0 0 0 -1 I I #
loop $-1 $-1 $490 $484 #
plane-surface $-1 0 -51.568439220696987 0 0 1 0 0 0 1 forward_v I I I I #
coedge $-1 $501 $492 $488 $641 forward $485 $-1 #
edge $-1 $645 -29.403724003993236 $496 -14.925706429414266 $487 $718 forward 7 unknown #
edge $-1 $497 14.925706429414266 $644 29.403724003993236 $639 $719 forward 7 unknown #
coedge $-1 $499 $490 $504 $654 reversed $637 $-1 #
coedge $-1 $490 $499 $501 $652 reversed $637 $-1 #
vertex $-1 $652 $720 #
vertex $-1 $491 $721 #
straight-curve $-1 -68.578766029490595 -51.568439220696987 0 0 0 1 I I #
straight-curve $-1 -35.747731540025541 -37.090421646118017 -12.744724193643798 1 0 0 I I #
straight-curve $-1 -35.747731540025541 -37.090421646118017 12.744724193643798 -1 0 0 I I #
point $-1 -68.578766029490595 -37.090421646118017 12.744724193643798 #
point $-1 -68.578766029490595 -37.090421646118017 -12.744724193643798 #
straight-curve $-1 -74.412160130611568 -51.568439220696987 0 0 0 -1 I I #
edge $-1 $644 68.578766029490595 $502 74.412160130611568 $643 $722 forward 7 unknown #
point $-1 -74.412160130611568 -51.568439220696987 -12.744724193643798 #
edge $-1 $505 -74.412160130611568 $645 -68.578766029490595 $642 $723 forward 7 unknown #
point $-1 -74.412160130611568 -51.568439220696987 12.744724193643798 #
edge $-1 $657 56.567828566414271 $660 66.712135622412831 $510 $724 forward 7 unknown #
vertex $-1 $524 $725 #
straight-curve $-1 -78.533891330850935 -4.2641476990143552 12.744724193643798 -1 0 0 I I #
edge $-1 $660 -1.1137612202762064 $521 11.86957905885733 $520 $726 forward 7 unknown #
vertex $-1 $659 $727 #
straight-curve $-1 -78.533890804773122 -4.2641476990143552 2.6004171376452234 0.8660253999169214 0 0.50000000669873634 I I #
point $-1 -60.963435890070386 -4.2641476990143552 12.744724193643798 #
point $-1 -78.533890804773094 -17.247487978147891 2.6004171376452399 #
straight-curve $-1 -78.533890804773094 0 12.744724193643798 0 -1 0 I I #
vertex $-1 $527 $728 #
point $-1 -67.377953336141275 -14.650819922321183 5.5663805226497258 #
vertex $-1 $531 $729 #
point $-1 -67.377953336141275 -10.755817838581123 5.5663805226497258 #
vertex $-1 $535 $730 #
point $-1 -67.377953336141275 -6.8608157548410631 5.5663805226497258 #
coedge $-1 $550 $549 $542 $672 forward $539 $-1 #
edge $-1 $673 56.567828566414271 $676 66.712135622412831 $671 $731 forward 7 unknown #
vertex $-1 $554 $732 #
straight-curve $-1 -78.533891330850935 40.065282734393136 12.744724193643798 -1 0 0 I I #
edge $-1 $676 -23.27847643697995 $551 -10.295136157846418 $550 $733 forward 7 unknown #
vertex $-1 $675 $734 #
straight-curve $-1 -78.533890804773122 40.065282734393136 2.6004171376452234 0.8660253999169214 0 0.50000000669873634 I I #
point $-1 -60.963435890070386 40.065282734393136 12.744724193643798 #
point $-1 -78.533890804773094 27.081942455259604 2.6004171376452399 #
straight-curve $-1 -78.533890804773094 0 12.744724193643798 0 -1 0 I I #
vertex $-1 $557 $735 #
point $-1 -67.377953336141275 29.678610511086319 5.5663805226497258 #
vertex $-1 $561 $736 #
point $-1 -67.377953336141275 33.573612594826372 5.5663805226497258 #
vertex $-1 $565 $737 #
point $-1 -67.377953336141275 37.468614678566439 5.5663805226497258 #
coedge $-1 $580 $579 $572 $688 forward $569 $-1 #
edge $-1 $689 96.557818701157373 $692 108.74373870888675 $687 $738 forward 7 unknown #
vertex $-1 $584 $739 #
straight-curve $-1 18.074994582007861 -8.4176168523886901 12.74472419364379 1 0 0 I I #
edge $-1 $692 -7.1362459785821031 $581 4.5735042309689291 $580 $740 forward 7 unknown #
vertex $-1 $691 $741 #
straight-curve $-1 -51.681200817449565 -8.4176168523886901 88.389994167379683 -0.82903756765294845 0 0.55919291073839883 I I #
point $-1 60.467521777524198 -8.4176168523886901 12.744724193643805 #
point $-1 78.53389080477308 3.2921333571623421 0.55880418591442549 #
straight-curve $-1 78.533890804773094 0 12.744724193643798 0 1 0 I I #
vertex $-1 $587 $742 #
point $-1 68.768314513179163 -5.0719739353741105 3.7776571199047932 #
vertex $-1 $591 $743 #
point $-1 68.768314513179163 -0.053509559852237487 3.7776571199047932 #
edge $-1 $702 96.557818701157373 $705 108.74373870888675 $596 $744 forward 7 unknown #
vertex $-1 $610 $745 #
straight-curve $-1 18.074994582007861 35.911813581018819 12.74472419364379 1 0 0 I I #
edge $-1 $705 15.028469238121652 $607 26.738219447672684 $606 $746 forward 7 unknown #
vertex $-1 $704 $747 #
straight-curve $-1 -51.681200817449565 35.911813581018819 88.389994167379683 -0.82903756765294845 0 0.55919291073839883 I I #
point $-1 60.467521777524198 35.911813581018819 12.744724193643805 #
point $-1 78.53389080477308 47.621563790569851 0.55880418591442549 #
straight-curve $-1 78.533890804773094 0 12.744724193643798 0 1 0 I I #
vertex $-1 $613 $748 #
point $-1 68.768314513179163 39.257456498033392 3.7776571199047932 #
vertex $-1 $617 $749 #
point $-1 68.768314513179163 44.275920873555265 3.7776571199047932 #
straight-curve $-1 -78.533890804773094 51.568439220696987 0 0 0 -1 I I #
point $-1 -78.533890804773094 -51.568439220696987 -12.744724193643798 #
straight-curve $-1 -78.533890804773094 0 -12.744724193643798 0 1 0 I I #
point $-1 -78.533890804773094 51.568439220696987 -12.744724193643798 #
straight-curve $-1 -68.578766029490595 -22.164715216703751 12.744724193643798 0 1 0 I I #
straight-curve $-1 -68.578766029490595 -22.164715216703751 -12.744724193643798 0 -1 0 I I #
point $-1 -68.578766029490595 -51.568439220696987 -12.744724193643798 #
point $-1 -68.578766029490595 -51.568439220696987 12.744724193643798 #
straight-curve $-1 0 -51.568439220696987 -12.744724193643798 -1 0 0 I I #
straight-curve $-1 0 -51.568439220696987 12.744724193643798 1 0 0 I I #
straight-curve $-1 -78.533890804773094 -4.2641476990143552 69.312552760058068 0 0 -1 I I #
point $-1 -78.533890804773094 -4.2641476990143552 12.744724193643798 #
straight-curve $-1 -78.533890804773094 -5.3779089192905616 2.6004171376452359 0 -1 0 I I #
point $-1 -78.533890804773094 -4.2641476990143552 2.6004171376452399 #
point $-1 -67.743978729359455 -14.650819922321183 4.2003551160340677 #
point $-1 -67.743978729359455 -10.755817838581123 4.2003551160340677 #
point $-1 -67.743978729359455 -6.8608157548410631 4.2003551160340677 #
straight-curve $-1 -78.533890804773094 40.065282734393136 69.312552760058068 0 0 -1 I I #
point $-1 -78.533890804773094 40.065282734393136 12.744724193643798 #
straight-curve $-1 -78.533890804773094 16.786806297413186 2.6004171376452359 0 -1 0 I I #
point $-1 -78.533890804773094 40.065282734393136 2.6004171376452399 #
point $-1 -67.743978729359455 29.678610511086319 4.2003551160340677 #
point $-1 -67.743978729359455 33.573612594826372 4.2003551160340677 #
point $-1 -67.743978729359455 37.468614678566439 4.2003551160340677 #
straight-curve $-1 78.533890804773094 -8.4176168523886901 109.30254289480118 0 0 -1 I I #
point $-1 78.533890804773094 -8.4176168523886901 12.744724193643798 #
straight-curve $-1 78.533890804773108 -1.281370873806587 0.55880418591441128 0 1 0 I I #
point $-1 78.53389080477308 -8.4176168523886901 0.55880418591442549 #
point $-1 67.380084034787814 -5.0719739353741105 3.5078124629902439 #
point $-1 67.380084034787814 -0.053509559852237487 3.5078124629902439 #
straight-curve $-1 78.533890804773094 35.911813581018819 109.30254289480118 0 0 -1 I I #
point $-1 78.533890804773094 35.911813581018819 12.744724193643798 #
straight-curve $-1 78.533890804773108 20.883344342897168 0.55880418591441128 0 1 0 I I #
point $-1 78.53389080477308 35.911813581018819 0.55880418591442549 #
point $-1 67.380084034787814 39.257456498033392 3.5078124629902439 #
point $-1 67.380084034787814 44.275920873555265 3.5078124629902439 #
End-of-ACIS-data 