500 0 21 0           
7 Unknown 11 ACIS 5.0 NT 24 Thu Mar 25 22:16:33 1999 
-1 9.9999999999999995e-007 1e-010 
body $-1 $21 $-1 $22 #
body $-1 $23 $-1 $24 #
body $-1 $25 $-1 $26 #
body $-1 $27 $-1 $28 #
body $-1 $29 $-1 $30 #
body $-1 $31 $-1 $32 #
body $-1 $33 $-1 $34 #
body $-1 $35 $-1 $36 #
body $-1 $37 $-1 $38 #
body $-1 $39 $-1 $40 #
body $-1 $41 $-1 $42 #
body $-1 $43 $-1 $44 #
body $-1 $45 $-1 $46 #
body $-1 $47 $-1 $48 #
body $-1 $49 $-1 $50 #
body $-1 $51 $-1 $52 #
body $-1 $53 $-1 $54 #
body $-1 $55 $-1 $56 #
body $-1 $57 $-1 $58 #
body $-1 $59 $-1 $60 #
body $-1 $61 $-1 $62 #
lump $-1 $-1 $63 $0 #
transform $-1 1 0 0 0 1 0 0 0 1 50.1699880977813 34.928368067928893 11.556410923637729 1 rotate no_reflect no_shear #
lump $-1 $-1 $64 $1 #
transform $-1 1 0 0 0 1 0 0 0 1 50.1699880977813 34.928368067928893 11.556410923637729 1 rotate no_reflect no_shear #
lump $-1 $-1 $65 $2 #
transform $-1 1 0 0 0 1 0 0 0 1 50.1699880977813 34.928368067928893 11.556410923637729 1 rotate no_reflect no_shear #
lump $-1 $-1 $66 $3 #
transform $-1 1 0 0 0 1 0 0 0 1 50.1699880977813 34.928368067928893 11.556410923637729 1 rotate no_reflect no_shear #
lump $-1 $-1 $67 $4 #
transform $-1 1 0 0 0 1 0 0 0 1 50.1699880977813 34.928368067928893 11.556410923637729 1 rotate no_reflect no_shear #
lump $-1 $-1 $68 $5 #
transform $-1 1 0 0 0 1 0 0 0 1 50.1699880977813 34.928368067928893 11.556410923637729 1 rotate no_reflect no_shear #
lump $-1 $-1 $69 $6 #
transform $-1 1 0 0 0 1 0 0 0 1 50.1699880977813 34.928368067928893 11.556410923637729 1 rotate no_reflect no_shear #
lump $-1 $-1 $70 $7 #
transform $-1 1 0 0 0 1 0 0 0 1 50.1699880977813 34.928368067928893 11.556410923637729 1 rotate no_reflect no_shear #
lump $-1 $-1 $71 $8 #
transform $-1 1 0 0 0 1 0 0 0 1 50.1699880977813 34.928368067928893 11.556410923637729 1 rotate no_reflect no_shear #
lump $-1 $-1 $72 $9 #
transform $-1 1 0 0 0 1 0 0 0 1 50.1699880977813 34.928368067928893 11.556410923637729 1 rotate no_reflect no_shear #
lump $-1 $-1 $73 $10 #
transform $-1 1 0 0 0 1 0 0 0 1 50.1699880977813 34.928368067928893 11.556410923637729 1 rotate no_reflect no_shear #
lump $-1 $-1 $74 $11 #
transform $-1 1 0 0 0 1 0 0 0 1 50.1699880977813 34.928368067928893 11.556410923637729 1 rotate no_reflect no_shear #
lump $-1 $-1 $75 $12 #
transform $-1 1 0 0 0 1 0 0 0 1 50.1699880977813 34.928368067928893 11.556410923637729 1 rotate no_reflect no_shear #
lump $-1 $-1 $76 $13 #
transform $-1 1 0 0 0 1 0 0 0 1 50.1699880977813 34.928368067928893 11.556410923637729 1 rotate no_reflect no_shear #
lump $-1 $-1 $77 $14 #
transform $-1 1 0 0 0 1 0 0 0 1 50.1699880977813 34.928368067928893 11.556410923637729 1 rotate no_reflect no_shear #
lump $-1 $-1 $78 $15 #
transform $-1 1 0 0 0 1 0 0 0 1 50.1699880977813 34.928368067928893 11.556410923637729 1 rotate no_reflect no_shear #
lump $-1 $-1 $79 $16 #
transform $-1 1 0 0 0 1 0 0 0 1 50.1699880977813 34.928368067928893 11.556410923637729 1 rotate no_reflect no_shear #
lump $-1 $-1 $80 $17 #
transform $-1 1 0 0 0 1 0 0 0 1 50.1699880977813 34.928368067928893 11.556410923637729 1 rotate no_reflect no_shear #
lump $-1 $-1 $81 $18 #
transform $-1 1 0 0 0 1 0 0 0 1 50.1699880977813 34.928368067928893 11.556410923637729 1 rotate no_reflect no_shear #
lump $-1 $-1 $82 $19 #
transform $-1 1 0 0 0 1 0 0 0 1 50.1699880977813 34.928368067928893 11.556410923637729 1 rotate no_reflect no_shear #
lump $-1 $-1 $83 $20 #
transform $-1 1 0 0 0 1 0 0 0 1 50.1699880977813 34.928368067928893 11.556410923637729 1 rotate no_reflect no_shear #
shell $-1 $-1 $-1 $84 $-1 $21 #
shell $-1 $-1 $-1 $85 $-1 $23 #
shell $-1 $-1 $-1 $86 $-1 $25 #
shell $-1 $-1 $-1 $87 $-1 $27 #
shell $-1 $-1 $-1 $88 $-1 $29 #
shell $-1 $-1 $-1 $89 $-1 $31 #
shell $-1 $-1 $-1 $90 $-1 $33 #
shell $-1 $-1 $-1 $91 $-1 $35 #
shell $-1 $-1 $-1 $92 $-1 $37 #
shell $-1 $-1 $-1 $93 $-1 $39 #
shell $-1 $-1 $-1 $94 $-1 $41 #
shell $-1 $-1 $-1 $95 $-1 $43 #
shell $-1 $-1 $-1 $96 $-1 $45 #
shell $-1 $-1 $-1 $97 $-1 $47 #
shell $-1 $-1 $-1 $98 $-1 $49 #
shell $-1 $-1 $-1 $99 $-1 $51 #
shell $-1 $-1 $-1 $100 $-1 $53 #
shell $-1 $-1 $-1 $101 $-1 $55 #
shell $-1 $-1 $-1 $102 $-1 $57 #
shell $-1 $-1 $-1 $103 $-1 $59 #
shell $-1 $-1 $-1 $104 $-1 $61 #
face $-1 $105 $106 $63 $-1 $107 reversed single #
face $-1 $108 $109 $64 $-1 $110 forward single #
face $-1 $111 $112 $65 $-1 $113 reversed single #
face $-1 $114 $115 $66 $-1 $116 forward single #
face $-1 $117 $118 $67 $-1 $119 forward single #
face $-1 $120 $121 $68 $-1 $122 forward single #
face $-1 $123 $124 $69 $-1 $125 reversed single #
face $-1 $126 $127 $70 $-1 $128 forward single #
face $-1 $129 $130 $71 $-1 $131 forward single #
face $-1 $132 $133 $72 $-1 $134 forward single #
face $-1 $135 $136 $73 $-1 $137 reversed single #
face $-1 $138 $139 $74 $-1 $140 forward single #
face $-1 $141 $142 $75 $-1 $143 forward single #
face $-1 $144 $145 $76 $-1 $146 forward single #
face $-1 $147 $148 $77 $-1 $149 reversed single #
face $-1 $150 $151 $78 $-1 $152 forward single #
face $-1 $153 $154 $79 $-1 $155 forward single #
face $-1 $156 $157 $80 $-1 $158 forward single #
face $-1 $159 $160 $81 $-1 $161 reversed single #
face $-1 $162 $163 $82 $-1 $164 forward single #
face $-1 $165 $166 $83 $-1 $167 forward single #
face $-1 $168 $169 $63 $-1 $170 forward single #
loop $-1 $-1 $171 $84 #
plane-surface $-1 -50.1699880977813 0 0 1 0 0 0 0 -1 forward_v I I I I #
face $-1 $172 $173 $64 $-1 $174 reversed single #
loop $-1 $-1 $175 $85 #
plane-surface $-1 -50.1699880977813 0 0 1 0 0 0 0 -1 forward_v I I I I #
face $-1 $176 $177 $65 $-1 $178 reversed single #
loop $-1 $-1 $179 $86 #
plane-surface $-1 -36.619414727142946 62.752223430770492 125.34768856170182 1 0 0 0 -0.74314483375859142 -0.66913059716165679 forward_v I I I I #
face $-1 $180 $181 $66 $-1 $182 forward single #
loop $-1 $183 $184 $87 #
cone-surface $-1 -34.012024485897683 32.104876748208262 8.5160625269645021 0 -0.74314483375859142 -0.66913059716165679 1 0 0 1 I I 0 1 1 forward I I I I #
face $-1 $185 $186 $67 $-1 $187 forward single #
loop $-1 $188 $189 $88 #
cone-surface $-1 -30.100939124029779 32.104876748208262 8.5160625269645021 0 -0.74314483375859142 -0.66913059716165679 1 0 0 1 I I 0 1 1 forward I I I I #
face $-1 $190 $191 $68 $-1 $192 forward single #
loop $-1 $193 $194 $89 #
cone-surface $-1 -26.189853762161878 32.104876748208262 8.5160625269645021 0 -0.74314483375859142 -0.66913059716165679 1 0 0 1 I I 0 1 1 forward I I I I #
face $-1 $195 $196 $69 $-1 $197 reversed single #
loop $-1 $-1 $198 $90 #
plane-surface $-1 -14.922064020911884 62.752223430770492 125.34768856170182 1 0 0 0 -0.74314483375859142 -0.66913059716165679 forward_v I I I I #
face $-1 $199 $200 $70 $-1 $201 forward single #
loop $-1 $202 $203 $91 #
cone-surface $-1 -12.31467377966662 32.104876748208262 8.5160625269645021 0 -0.74314483375859142 -0.66913059716165679 1 0 0 1 I I 0 1 1 forward I I I I #
face $-1 $204 $205 $71 $-1 $206 forward single #
loop $-1 $207 $208 $92 #
cone-surface $-1 -8.4035884177987157 32.104876748208262 8.5160625269645021 0 -0.74314483375859142 -0.66913059716165679 1 0 0 1 I I 0 1 1 forward I I I I #
face $-1 $209 $210 $72 $-1 $211 forward single #
loop $-1 $212 $213 $93 #
cone-surface $-1 -4.4925030559308112 32.104876748208262 8.5160625269645021 0 -0.74314483375859142 -0.66913059716165679 1 0 0 1 I I 0 1 1 forward I I I I #
face $-1 $214 $215 $73 $-1 $216 reversed single #
loop $-1 $-1 $217 $94 #
plane-surface $-1 6.7752866853191787 62.752223430770492 125.34768856170182 1 0 0 0 -0.74314483375859142 -0.66913059716165679 forward_v I I I I #
face $-1 $218 $219 $74 $-1 $220 forward single #
loop $-1 $221 $222 $95 #
cone-surface $-1 9.382676926564443 32.104876748208262 8.5160625269645021 0 -0.74314483375859142 -0.66913059716165679 1 0 0 1 I I 0 1 1 forward I I I I #
face $-1 $223 $224 $75 $-1 $225 forward single #
loop $-1 $226 $227 $96 #
cone-surface $-1 13.293762288432347 32.104876748208262 8.5160625269645021 0 -0.74314483375859142 -0.66913059716165679 1 0 0 1 I I 0 1 1 forward I I I I #
face $-1 $228 $229 $76 $-1 $230 forward single #
loop $-1 $231 $232 $97 #
cone-surface $-1 17.204847650300252 32.104876748208262 8.5160625269645021 0 -0.74314483375859142 -0.66913059716165679 1 0 0 1 I I 0 1 1 forward I I I I #
face $-1 $233 $234 $77 $-1 $235 reversed single #
loop $-1 $-1 $236 $98 #
plane-surface $-1 28.472637391550244 62.752223430770492 125.34768856170182 1 0 0 0 -0.74314483375859142 -0.66913059716165679 forward_v I I I I #
face $-1 $237 $238 $78 $-1 $239 forward single #
loop $-1 $240 $241 $99 #
cone-surface $-1 31.080027632795506 32.104876748208262 8.5160625269645021 0 -0.74314483375859142 -0.66913059716165679 1 0 0 1 I I 0 1 1 forward I I I I #
face $-1 $242 $243 $79 $-1 $244 forward single #
loop $-1 $245 $246 $100 #
cone-surface $-1 34.991112994663411 32.104876748208262 8.5160625269645021 0 -0.74314483375859142 -0.66913059716165679 1 0 0 1 I I 0 1 1 forward I I I I #
face $-1 $247 $248 $80 $-1 $249 forward single #
loop $-1 $250 $251 $101 #
cone-surface $-1 38.902198356531315 32.104876748208262 8.5160625269645021 0 -0.74314483375859142 -0.66913059716165679 1 0 0 1 I I 0 1 1 forward I I I I #
face $-1 $252 $253 $81 $-1 $254 reversed single #
loop $-1 $-1 $255 $102 #
plane-surface $-1 43.10343372091566 -34.928368067928901 3.1714105858815387 0 -0.85716730853699208 0.51503806187062418 1 0 0 forward_v I I I I #
face $-1 $256 $257 $82 $-1 $258 forward single #
loop $-1 $259 $260 $103 #
cone-surface $-1 40.074910416544682 -29.520208192699187 5.6279934125253188 0 0.85716730853699208 -0.51503806187062418 2 0 0 1 I I 0 1 2 forward I I I I #
face $-1 $261 $262 $83 $-1 $263 forward single #
loop $-1 $264 $265 $104 #
cone-surface $-1 46.131957025286667 -29.520208192699187 5.6279934125253188 0 0.85716730853699208 -0.51503806187062418 2 0 0 1 I I 0 1 2 forward I I I I #
face $-1 $266 $267 $63 $-1 $268 reversed single #
loop $-1 $-1 $269 $105 #
plane-surface $-1 0 0 11.556410923637729 0 0 1 1 0 0 forward_v I I I I #
coedge $-1 $270 $271 $272 $273 reversed $106 $-1 #
face $-1 $274 $275 $64 $-1 $276 reversed single #
loop $-1 $-1 $277 $108 #
plane-surface $-1 0 0 -11.556410923637729 0 0 1 1 0 0 forward_v I I I I #
coedge $-1 $278 $279 $280 $281 forward $109 $-1 #
face $-1 $282 $283 $65 $-1 $284 reversed single #
loop $-1 $-1 $285 $111 #
plane-surface $-1 -30.100939124029779 -11.8149114984219 58.207140370778589 0 0.74314483375859142 0.66913059716165679 1 0 0 forward_v I I I I #
coedge $-1 $286 $287 $288 $289 reversed $112 $-1 #
face $-1 $-1 $290 $66 $-1 $291 forward single #
loop $-1 $292 $293 $114 #
cone-surface $-1 -34.012024485897683 31.279200585672321 7.7726203894399415 0 -0.74314483375859142 -0.66913059716165679 0.5 0 0 1 I I -0.70710678118654746 0.70710678118654746 0.5 forward I I I I #
loop $-1 $-1 $294 $87 #
coedge $-1 $184 $184 $295 $296 reversed $115 $-1 #
face $-1 $-1 $297 $67 $-1 $298 forward single #
loop $-1 $299 $300 $117 #
cone-surface $-1 -30.100939124029779 31.279200585672321 7.7726203894399415 0 -0.74314483375859142 -0.66913059716165679 0.5 0 0 1 I I -0.70710678118654746 0.70710678118654746 0.5 forward I I I I #
loop $-1 $-1 $301 $88 #
coedge $-1 $189 $189 $302 $303 reversed $118 $-1 #
face $-1 $-1 $304 $68 $-1 $305 forward single #
loop $-1 $306 $307 $120 #
cone-surface $-1 -26.189853762161878 31.279200585672321 7.7726203894399415 0 -0.74314483375859142 -0.66913059716165679 0.5 0 0 1 I I -0.70710678118654746 0.70710678118654746 0.5 forward I I I I #
loop $-1 $-1 $308 $89 #
coedge $-1 $194 $194 $309 $310 reversed $121 $-1 #
face $-1 $311 $312 $69 $-1 $313 reversed single #
loop $-1 $-1 $314 $123 #
plane-surface $-1 -8.4035884177987157 -11.8149114984219 58.207140370778589 0 0.74314483375859142 0.66913059716165679 1 0 0 forward_v I I I I #
coedge $-1 $315 $316 $317 $318 reversed $124 $-1 #
face $-1 $-1 $319 $70 $-1 $320 forward single #
loop $-1 $321 $322 $126 #
cone-surface $-1 -12.31467377966662 31.279200585672321 7.7726203894399415 0 -0.74314483375859142 -0.66913059716165679 0.5 0 0 1 I I -0.70710678118654746 0.70710678118654746 0.5 forward I I I I #
loop $-1 $-1 $323 $91 #
coedge $-1 $203 $203 $324 $325 reversed $127 $-1 #
face $-1 $-1 $326 $71 $-1 $327 forward single #
loop $-1 $328 $329 $129 #
cone-surface $-1 -8.4035884177987157 31.279200585672321 7.7726203894399415 0 -0.74314483375859142 -0.66913059716165679 0.5 0 0 1 I I -0.70710678118654746 0.70710678118654746 0.5 forward I I I I #
loop $-1 $-1 $330 $92 #
coedge $-1 $208 $208 $331 $332 reversed $130 $-1 #
face $-1 $-1 $333 $72 $-1 $334 forward single #
loop $-1 $335 $336 $132 #
cone-surface $-1 -4.4925030559308112 31.279200585672321 7.7726203894399415 0 -0.74314483375859142 -0.66913059716165679 0.5 0 0 1 I I -0.70710678118654746 0.70710678118654746 0.5 forward I I I I #
loop $-1 $-1 $337 $93 #
coedge $-1 $213 $213 $338 $339 reversed $133 $-1 #
face $-1 $340 $341 $73 $-1 $342 reversed single #
loop $-1 $-1 $343 $135 #
plane-surface $-1 13.293762288432347 -11.8149114984219 58.207140370778589 0 0.74314483375859142 0.66913059716165679 1 0 0 forward_v I I I I #
coedge $-1 $344 $345 $346 $347 reversed $136 $-1 #
face $-1 $-1 $348 $74 $-1 $349 forward single #
loop $-1 $350 $351 $138 #
cone-surface $-1 9.382676926564443 31.279200585672321 7.7726203894399415 0 -0.74314483375859142 -0.66913059716165679 0.5 0 0 1 I I -0.70710678118654746 0.70710678118654746 0.5 forward I I I I #
loop $-1 $-1 $352 $95 #
coedge $-1 $222 $222 $353 $354 reversed $139 $-1 #
face $-1 $-1 $355 $75 $-1 $356 forward single #
loop $-1 $357 $358 $141 #
cone-surface $-1 13.293762288432347 31.279200585672321 7.7726203894399415 0 -0.74314483375859142 -0.66913059716165679 0.5 0 0 1 I I -0.70710678118654746 0.70710678118654746 0.5 forward I I I I #
loop $-1 $-1 $359 $96 #
coedge $-1 $227 $227 $360 $361 reversed $142 $-1 #
face $-1 $-1 $362 $76 $-1 $363 forward single #
loop $-1 $364 $365 $144 #
cone-surface $-1 17.204847650300252 31.279200585672321 7.7726203894399415 0 -0.74314483375859142 -0.66913059716165679 0.5 0 0 1 I I -0.70710678118654746 0.70710678118654746 0.5 forward I I I I #
loop $-1 $-1 $366 $97 #
coedge $-1 $232 $232 $367 $368 reversed $145 $-1 #
face $-1 $369 $370 $77 $-1 $371 reversed single #
loop $-1 $-1 $372 $147 #
plane-surface $-1 34.991112994663411 -11.8149114984219 58.207140370778589 0 0.74314483375859142 0.66913059716165679 1 0 0 forward_v I I I I #
coedge $-1 $373 $374 $375 $376 reversed $148 $-1 #
face $-1 $-1 $377 $78 $-1 $378 forward single #
loop $-1 $379 $380 $150 #
cone-surface $-1 31.080027632795506 31.279200585672321 7.7726203894399415 0 -0.74314483375859142 -0.66913059716165679 0.5 0 0 1 I I -0.70710678118654746 0.70710678118654746 0.5 forward I I I I #
loop $-1 $-1 $381 $99 #
coedge $-1 $241 $241 $382 $383 reversed $151 $-1 #
face $-1 $-1 $384 $79 $-1 $385 forward single #
loop $-1 $386 $387 $153 #
cone-surface $-1 34.991112994663411 31.279200585672321 7.7726203894399415 0 -0.74314483375859142 -0.66913059716165679 0.5 0 0 1 I I -0.70710678118654746 0.70710678118654746 0.5 forward I I I I #
loop $-1 $-1 $388 $100 #
coedge $-1 $246 $246 $389 $390 reversed $154 $-1 #
face $-1 $-1 $391 $80 $-1 $392 forward single #
loop $-1 $393 $394 $156 #
cone-surface $-1 38.902198356531315 31.279200585672321 7.7726203894399415 0 -0.74314483375859142 -0.66913059716165679 0.5 0 0 1 I I -0.70710678118654746 0.70710678118654746 0.5 forward I I I I #
loop $-1 $-1 $395 $101 #
coedge $-1 $251 $251 $396 $397 reversed $157 $-1 #
face $-1 $398 $399 $81 $-1 $400 reversed single #
loop $-1 $-1 $401 $159 #
plane-surface $-1 36.036879344050014 -120.93651540214515 54.850317453788662 1 0 0 0 0.85716730853699208 -0.51503806187062418 forward_v I I I I #
coedge $-1 $402 $403 $404 $405 reversed $160 $-1 #
face $-1 $-1 $406 $82 $-1 $407 forward single #
loop $-1 $408 $409 $162 #
cone-surface $-1 40.074910416544682 -25.773989168874696 3.3770380084203815 0 0.85716730853699208 -0.51503806187062418 1 0 0 1 I I -0.70710678118654746 0.70710678118654746 1 forward I I I I #
loop $-1 $-1 $410 $103 #
coedge $-1 $260 $260 $411 $412 reversed $163 $-1 #
face $-1 $-1 $413 $83 $-1 $414 forward single #
loop $-1 $415 $416 $165 #
cone-surface $-1 46.131957025286667 -25.773989168874696 3.3770380084203815 0 0.85716730853699208 -0.51503806187062418 1 0 0 1 I I -0.70710678118654746 0.70710678118654746 1 forward I I I I #
loop $-1 $-1 $417 $104 #
coedge $-1 $265 $265 $418 $419 reversed $166 $-1 #
face $-1 $420 $421 $63 $-1 $422 reversed single #
loop $-1 $-1 $423 $168 #
plane-surface $-1 0 0 -11.556410923637729 0 0 1 1 0 0 forward_v I I I I #
coedge $-1 $424 $425 $426 $427 forward $169 $-1 #
coedge $-1 $428 $171 $429 $430 reversed $106 $-1 #
coedge $-1 $171 $428 $431 $432 forward $106 $-1 #
coedge $-1 $433 $434 $171 $273 forward $267 $-1 #
edge $-1 $435 -34.928368067928893 $436 34.928368067928893 $171 $437 forward 7 unknown #
face $-1 $438 $439 $64 $-1 $440 reversed single #
loop $-1 $-1 $441 $172 #
plane-surface $-1 -56.945274783100473 -18.546001840021667 0 0 1 0 0 0 1 forward_v I I I I #
coedge $-1 $442 $443 $279 $444 forward $173 $-1 #
coedge $-1 $445 $175 $446 $447 reversed $109 $-1 #
coedge $-1 $175 $445 $277 $444 reversed $109 $-1 #
coedge $-1 $448 $449 $175 $281 reversed $450 $-1 #
edge $-1 $451 -11.556410923637729 $452 11.556410923637729 $280 $453 forward 7 unknown #
face $-1 $454 $455 $65 $-1 $456 forward single #
loop $-1 $-1 $457 $176 #
plane-surface $-1 -23.582463520916612 62.752223430770492 125.34768856170182 -1 0 0 0 0.74314483375859142 0.66913059716165679 forward_v I I I I #
coedge $-1 $458 $459 $460 $461 reversed $177 $-1 #
coedge $-1 $287 $179 $462 $463 reversed $112 $-1 #
coedge $-1 $179 $286 $458 $464 reversed $112 $-1 #
coedge $-1 $460 $465 $179 $289 forward $455 $-1 #
edge $-1 $466 -3.5522563525436475 $467 1.1865187955842735 $288 $468 forward 7 unknown #
loop $-1 $-1 $295 $180 #
plane-surface $-1 -30.100939124029779 -11.8149114984219 58.207140370778589 0 0.74314483375859142 0.66913059716165679 1 0 0 forward_v I I I I #
loop $-1 $-1 $469 $114 #
coedge $-1 $293 $293 $294 $470 reversed $181 $-1 #
coedge $-1 $294 $294 $293 $470 forward $183 $-1 #
coedge $-1 $295 $295 $184 $296 forward $290 $-1 #
edge $-1 $471 1.5777083447034361e-015 $471 6.2831853071796022 $295 $472 forward 7 unknown #
loop $-1 $-1 $302 $185 #
plane-surface $-1 -30.100939124029779 -11.8149114984219 58.207140370778589 0 0.74314483375859142 0.66913059716165679 1 0 0 forward_v I I I I #
loop $-1 $-1 $473 $117 #
coedge $-1 $300 $300 $301 $474 reversed $186 $-1 #
coedge $-1 $301 $301 $300 $474 forward $188 $-1 #
coedge $-1 $302 $302 $189 $303 forward $297 $-1 #
edge $-1 $475 1.5777083447034361e-015 $475 6.2831853071796022 $302 $476 forward 7 unknown #
loop $-1 $-1 $309 $190 #
plane-surface $-1 -30.100939124029779 -11.8149114984219 58.207140370778589 0 0.74314483375859142 0.66913059716165679 1 0 0 forward_v I I I I #
loop $-1 $-1 $477 $120 #
coedge $-1 $307 $307 $308 $478 reversed $191 $-1 #
coedge $-1 $308 $308 $307 $478 forward $193 $-1 #
coedge $-1 $309 $309 $194 $310 forward $304 $-1 #
edge $-1 $479 1.5777083447034361e-015 $479 6.2831853071796022 $309 $480 forward 7 unknown #
face $-1 $481 $482 $69 $-1 $483 forward single #
loop $-1 $-1 $484 $195 #
plane-surface $-1 -1.8851128146855469 62.752223430770492 125.34768856170182 -1 0 0 0 0.74314483375859142 0.66913059716165679 forward_v I I I I #
coedge $-1 $485 $486 $487 $488 reversed $196 $-1 #
coedge $-1 $316 $198 $489 $490 reversed $124 $-1 #
coedge $-1 $198 $315 $485 $491 reversed $124 $-1 #
coedge $-1 $487 $492 $198 $318 forward $482 $-1 #
edge $-1 $493 -3.5522563525436475 $494 1.1865187955842735 $317 $495 forward 7 unknown #
loop $-1 $-1 $324 $199 #
plane-surface $-1 -8.4035884177987157 -11.8149114984219 58.207140370778589 0 0.74314483375859142 0.66913059716165679 1 0 0 forward_v I I I I #
loop $-1 $-1 $496 $126 #
coedge $-1 $322 $322 $323 $497 reversed $200 $-1 #
coedge $-1 $323 $323 $322 $497 forward $202 $-1 #
coedge $-1 $324 $324 $203 $325 forward $319 $-1 #
edge $-1 $498 1.5777083447034361e-015 $498 6.2831853071796022 $324 $499 forward 7 unknown #
loop $-1 $-1 $331 $204 #
plane-surface $-1 -8.4035884177987157 -11.8149114984219 58.207140370778589 0 0.74314483375859142 0.66913059716165679 1 0 0 forward_v I I I I #
loop $-1 $-1 $500 $129 #
coedge $-1 $329 $329 $330 $501 reversed $205 $-1 #
coedge $-1 $330 $330 $329 $501 forward $207 $-1 #
coedge $-1 $331 $331 $208 $332 forward $326 $-1 #
edge $-1 $502 1.5777083447034361e-015 $502 6.2831853071796022 $331 $503 forward 7 unknown #
loop $-1 $-1 $338 $209 #
plane-surface $-1 -8.4035884177987157 -11.8149114984219 58.207140370778589 0 0.74314483375859142 0.66913059716165679 1 0 0 forward_v I I I I #
loop $-1 $-1 $504 $132 #
coedge $-1 $336 $336 $337 $505 reversed $210 $-1 #
coedge $-1 $337 $337 $336 $505 forward $212 $-1 #
coedge $-1 $338 $338 $213 $339 forward $333 $-1 #
edge $-1 $506 1.5777083447034361e-015 $506 6.2831853071796022 $338 $507 forward 7 unknown #
face $-1 $508 $509 $73 $-1 $510 forward single #
loop $-1 $-1 $511 $214 #
plane-surface $-1 19.812237891545514 62.752223430770492 125.34768856170182 -1 0 0 0 0.74314483375859142 0.66913059716165679 forward_v I I I I #
coedge $-1 $512 $513 $514 $515 reversed $215 $-1 #
coedge $-1 $345 $217 $516 $517 reversed $136 $-1 #
coedge $-1 $217 $344 $512 $518 reversed $136 $-1 #
coedge $-1 $514 $519 $217 $347 forward $509 $-1 #
edge $-1 $520 -3.5522563525436475 $521 1.1865187955842735 $346 $522 forward 7 unknown #
loop $-1 $-1 $353 $218 #
plane-surface $-1 13.293762288432347 -11.8149114984219 58.207140370778589 0 0.74314483375859142 0.66913059716165679 1 0 0 forward_v I I I I #
loop $-1 $-1 $523 $138 #
coedge $-1 $351 $351 $352 $524 reversed $219 $-1 #
coedge $-1 $352 $352 $351 $524 forward $221 $-1 #
coedge $-1 $353 $353 $222 $354 forward $348 $-1 #
edge $-1 $525 1.5777083447034361e-015 $525 6.2831853071796022 $353 $526 forward 7 unknown #
loop $-1 $-1 $360 $223 #
plane-surface $-1 13.293762288432347 -11.8149114984219 58.207140370778589 0 0.74314483375859142 0.66913059716165679 1 0 0 forward_v I I I I #
loop $-1 $-1 $527 $141 #
coedge $-1 $358 $358 $359 $528 reversed $224 $-1 #
coedge $-1 $359 $359 $358 $528 forward $226 $-1 #
coedge $-1 $360 $360 $227 $361 forward $355 $-1 #
edge $-1 $529 1.5777083447034361e-015 $529 6.2831853071796022 $360 $530 forward 7 unknown #
loop $-1 $-1 $367 $228 #
plane-surface $-1 13.293762288432347 -11.8149114984219 58.207140370778589 0 0.74314483375859142 0.66913059716165679 1 0 0 forward_v I I I I #
loop $-1 $-1 $531 $144 #
coedge $-1 $365 $365 $366 $532 reversed $229 $-1 #
coedge $-1 $366 $366 $365 $532 forward $231 $-1 #
coedge $-1 $367 $367 $232 $368 forward $362 $-1 #
edge $-1 $533 1.5777083447034361e-015 $533 6.2831853071796022 $367 $534 forward 7 unknown #
face $-1 $535 $536 $77 $-1 $537 forward single #
loop $-1 $-1 $538 $233 #
plane-surface $-1 41.509588597776578 62.752223430770492 125.34768856170182 -1 0 0 0 0.74314483375859142 0.66913059716165679 forward_v I I I I #
coedge $-1 $539 $540 $541 $542 reversed $234 $-1 #
coedge $-1 $374 $236 $543 $544 reversed $148 $-1 #
coedge $-1 $236 $373 $539 $545 reversed $148 $-1 #
coedge $-1 $541 $546 $236 $376 forward $536 $-1 #
edge $-1 $547 -3.5522563525436475 $548 1.1865187955842735 $375 $549 forward 7 unknown #
loop $-1 $-1 $382 $237 #
plane-surface $-1 34.991112994663411 -11.8149114984219 58.207140370778589 0 0.74314483375859142 0.66913059716165679 1 0 0 forward_v I I I I #
loop $-1 $-1 $550 $150 #
coedge $-1 $380 $380 $381 $551 reversed $238 $-1 #
coedge $-1 $381 $381 $380 $551 forward $240 $-1 #
coedge $-1 $382 $382 $241 $383 forward $377 $-1 #
edge $-1 $552 1.5777083447034361e-015 $552 6.2831853071796022 $382 $553 forward 7 unknown #
loop $-1 $-1 $389 $242 #
plane-surface $-1 34.991112994663411 -11.8149114984219 58.207140370778589 0 0.74314483375859142 0.66913059716165679 1 0 0 forward_v I I I I #
loop $-1 $-1 $554 $153 #
coedge $-1 $387 $387 $388 $555 reversed $243 $-1 #
coedge $-1 $388 $388 $387 $555 forward $245 $-1 #
coedge $-1 $389 $389 $246 $390 forward $384 $-1 #
edge $-1 $556 1.5777083447034361e-015 $556 6.2831853071796022 $389 $557 forward 7 unknown #
loop $-1 $-1 $396 $247 #
plane-surface $-1 34.991112994663411 -11.8149114984219 58.207140370778589 0 0.74314483375859142 0.66913059716165679 1 0 0 forward_v I I I I #
loop $-1 $-1 $558 $156 #
coedge $-1 $394 $394 $395 $559 reversed $248 $-1 #
coedge $-1 $395 $395 $394 $559 forward $250 $-1 #
coedge $-1 $396 $396 $251 $397 forward $391 $-1 #
edge $-1 $560 1.5777083447034361e-015 $560 6.2831853071796022 $396 $561 forward 7 unknown #
face $-1 $562 $563 $81 $-1 $564 forward single #
loop $-1 $-1 $565 $252 #
plane-surface $-1 0 -34.928368067928893 0 0 1 0 0 0 1 forward_v I I I I #
coedge $-1 $566 $567 $568 $569 reversed $253 $-1 #
coedge $-1 $570 $255 $571 $572 reversed $160 $-1 #
coedge $-1 $255 $570 $566 $573 forward $160 $-1 #
coedge $-1 $568 $574 $255 $405 forward $563 $-1 #
edge $-1 $575 -28.618271237323476 $576 -14.485162483592184 $404 $577 forward 7 unknown #
loop $-1 $-1 $411 $256 #
plane-surface $-1 43.10343372091566 -34.928368067928901 3.1714105858815387 0 -0.85716730853699208 0.51503806187062418 1 0 0 forward_v I I I I #
loop $-1 $-1 $578 $162 #
coedge $-1 $409 $409 $410 $579 reversed $257 $-1 #
coedge $-1 $410 $410 $409 $579 forward $259 $-1 #
coedge $-1 $411 $411 $260 $412 forward $406 $-1 #
edge $-1 $580 3.0714775648067455e-016 $580 6.2831853071796004 $411 $581 forward 7 unknown #
loop $-1 $-1 $418 $261 #
plane-surface $-1 43.10343372091566 -34.928368067928901 3.1714105858815387 0 -0.85716730853699208 0.51503806187062418 1 0 0 forward_v I I I I #
loop $-1 $-1 $582 $165 #
coedge $-1 $416 $416 $417 $583 reversed $262 $-1 #
coedge $-1 $417 $417 $416 $583 forward $264 $-1 #
coedge $-1 $418 $418 $265 $419 forward $413 $-1 #
edge $-1 $584 3.0714775648067455e-016 $584 6.2831853071796004 $418 $585 forward 7 unknown #
face $-1 $586 $587 $63 $-1 $588 reversed single #
loop $-1 $-1 $429 $266 #
plane-surface $-1 0 -34.928368067928893 0 0 1 0 0 0 1 forward_v I I I I #
coedge $-1 $434 $433 $589 $590 forward $267 $-1 #
coedge $-1 $591 $269 $592 $593 forward $169 $-1 #
coedge $-1 $269 $591 $594 $595 forward $169 $-1 #
coedge $-1 $596 $597 $269 $427 reversed $598 $-1 #
edge $-1 $599 -34.928368067928893 $600 34.928368067928893 $426 $601 forward 7 unknown #
coedge $-1 $271 $270 $591 $602 reversed $106 $-1 #
coedge $-1 $603 $594 $270 $430 forward $421 $-1 #
edge $-1 $604 -11.556410923637729 $435 11.556410923637729 $270 $605 forward 7 unknown #
coedge $-1 $592 $606 $271 $432 reversed $587 $-1 #
edge $-1 $607 -11.556410923637729 $436 11.556410923637729 $431 $608 forward 7 unknown #
coedge $-1 $423 $272 $606 $609 forward $267 $-1 #
coedge $-1 $272 $423 $603 $610 forward $267 $-1 #
vertex $-1 $273 $611 #
vertex $-1 $609 $612 #
straight-curve $-1 -50.1699880977813 0 -11.556410923637729 0 1 0 I I #
face $-1 $613 $450 $64 $-1 $614 reversed single #
loop $-1 $-1 $615 $274 #
plane-surface $-1 -63.720561468419646 -15.863801433656811 0 1 0 0 0 0 -1 forward_v I I I I #
coedge $-1 $616 $617 $618 $619 forward $275 $-1 #
coedge $-1 $620 $277 $616 $621 forward $173 $-1 #
coedge $-1 $277 $620 $448 $622 forward $173 $-1 #
edge $-1 $451 13.181601027291952 $623 18.546001840021667 $277 $624 forward 7 unknown #
coedge $-1 $279 $278 $625 $626 forward $109 $-1 #
coedge $-1 $627 $628 $278 $447 forward $629 $-1 #
edge $-1 $630 -18.546001840021667 $452 -13.181601027291952 $446 $631 forward 7 unknown #
coedge $-1 $632 $280 $443 $622 reversed $450 $-1 #
coedge $-1 $280 $632 $627 $633 reversed $450 $-1 #
loop $-1 $-1 $280 $438 #
vertex $-1 $444 $634 #
vertex $-1 $633 $635 #
straight-curve $-1 -50.1699880977813 -13.181601027291952 0 0 0 1 I I #
face $-1 $-1 $636 $65 $-1 $637 reversed single #
loop $-1 $-1 $288 $282 #
plane-surface $-1 0 0 11.556410923637729 0 0 1 1 0 0 forward_v I I I I #
coedge $-1 $638 $639 $640 $641 reversed $283 $-1 #
coedge $-1 $642 $285 $287 $464 forward $177 $-1 #
coedge $-1 $285 $642 $638 $643 forward $177 $-1 #
coedge $-1 $640 $288 $285 $461 forward $455 $-1 #
edge $-1 $467 -21.568945165128056 $644 -8.5319939589017224 $460 $645 forward 7 unknown #
coedge $-1 $646 $647 $286 $463 forward $636 $-1 #
edge $-1 $648 -56.380376472672118 $466 -51.11743335721318 $462 $649 forward 7 unknown #
edge $-1 $467 62.774747704557441 $648 69.856736135857744 $287 $650 forward 7 unknown #
coedge $-1 $288 $640 $646 $651 forward $455 $-1 #
vertex $-1 $463 $652 #
vertex $-1 $289 $653 #
straight-curve $-1 -36.619414727142946 31.376111715385246 11.556410923637728 0 -1 0 I I #
coedge $-1 $469 $469 $-1 $654 reversed $292 $-1 #
edge $-1 $655 0 $655 6.2831853071796004 $293 $656 forward 7 unknown #
vertex $-1 $296 $657 #
ellipse-curve $-1 -34.012024485897683 32.558980493864937 8.9249393659082568 0 0.74314483375859142 0.66913059716165679 1 0 0 1 I I #
coedge $-1 $473 $473 $-1 $658 reversed $299 $-1 #
edge $-1 $659 0 $659 6.2831853071796004 $300 $660 forward 7 unknown #
vertex $-1 $303 $661 #
ellipse-curve $-1 -30.100939124029779 32.558980493864937 8.9249393659082568 0 0.74314483375859142 0.66913059716165679 1 0 0 1 I I #
coedge $-1 $477 $477 $-1 $662 reversed $306 $-1 #
edge $-1 $663 0 $663 6.2831853071796004 $307 $664 forward 7 unknown #
vertex $-1 $310 $665 #
ellipse-curve $-1 -26.189853762161878 32.558980493864937 8.9249393659082568 0 0.74314483375859142 0.66913059716165679 1 0 0 1 I I #
face $-1 $-1 $666 $69 $-1 $667 reversed single #
loop $-1 $-1 $317 $311 #
plane-surface $-1 0 0 11.556410923637729 0 0 1 1 0 0 forward_v I I I I #
coedge $-1 $668 $669 $670 $671 reversed $312 $-1 #
coedge $-1 $672 $314 $316 $491 forward $196 $-1 #
coedge $-1 $314 $672 $668 $673 forward $196 $-1 #
coedge $-1 $670 $317 $314 $488 forward $482 $-1 #
edge $-1 $494 -10.720269812012527 $674 2.3166813942138109 $487 $675 forward 7 unknown #
coedge $-1 $676 $677 $315 $490 forward $666 $-1 #
edge $-1 $678 -56.380376472672118 $493 -51.11743335721318 $489 $679 forward 7 unknown #
edge $-1 $494 62.774747704557441 $678 69.856736135857744 $316 $680 forward 7 unknown #
coedge $-1 $317 $670 $676 $681 forward $482 $-1 #
vertex $-1 $318 $682 #
vertex $-1 $318 $683 #
straight-curve $-1 -14.922064020911884 31.376111715385246 11.556410923637728 0 -1 0 I I #
coedge $-1 $496 $496 $-1 $684 reversed $321 $-1 #
edge $-1 $685 0 $685 6.2831853071796004 $322 $686 forward 7 unknown #
vertex $-1 $325 $687 #
ellipse-curve $-1 -12.31467377966662 32.558980493864937 8.9249393659082568 0 0.74314483375859142 0.66913059716165679 1 0 0 1 I I #
coedge $-1 $500 $500 $-1 $688 reversed $328 $-1 #
edge $-1 $689 0 $689 6.2831853071796004 $329 $690 forward 7 unknown #
vertex $-1 $332 $691 #
ellipse-curve $-1 -8.4035884177987157 32.558980493864937 8.9249393659082568 0 0.74314483375859142 0.66913059716165679 1 0 0 1 I I #
coedge $-1 $504 $504 $-1 $692 reversed $335 $-1 #
edge $-1 $693 0 $693 6.2831853071796004 $336 $694 forward 7 unknown #
vertex $-1 $339 $695 #
ellipse-curve $-1 -4.4925030559308112 32.558980493864937 8.9249393659082568 0 0.74314483375859142 0.66913059716165679 1 0 0 1 I I #
face $-1 $-1 $696 $73 $-1 $697 reversed single #
loop $-1 $-1 $346 $340 #
plane-surface $-1 0 0 11.556410923637729 0 0 1 1 0 0 forward_v I I I I #
coedge $-1 $698 $699 $700 $701 reversed $341 $-1 #
coedge $-1 $702 $343 $345 $518 forward $215 $-1 #
coedge $-1 $343 $702 $698 $703 forward $215 $-1 #
coedge $-1 $700 $346 $343 $515 forward $509 $-1 #
edge $-1 $521 0.12840554110300495 $704 13.165356747329341 $514 $705 forward 7 unknown #
coedge $-1 $706 $707 $344 $517 forward $696 $-1 #
edge $-1 $708 -56.380376472672118 $520 -51.11743335721318 $516 $709 forward 7 unknown #
edge $-1 $521 62.774747704557441 $708 69.856736135857744 $345 $710 forward 7 unknown #
coedge $-1 $346 $700 $706 $711 forward $509 $-1 #
vertex $-1 $347 $712 #
vertex $-1 $347 $713 #
straight-curve $-1 6.7752866853191787 31.376111715385246 11.556410923637728 0 -1 0 I I #
coedge $-1 $523 $523 $-1 $714 reversed $350 $-1 #
edge $-1 $715 0 $715 6.2831853071796004 $351 $716 forward 7 unknown #
vertex $-1 $354 $717 #
ellipse-curve $-1 9.382676926564443 32.558980493864937 8.9249393659082568 0 0.74314483375859142 0.66913059716165679 1 0 0 1 I I #
coedge $-1 $527 $527 $-1 $718 reversed $357 $-1 #
edge $-1 $719 0 $719 6.2831853071796004 $358 $720 forward 7 unknown #
vertex $-1 $361 $721 #
ellipse-curve $-1 13.293762288432347 32.558980493864937 8.9249393659082568 0 0.74314483375859142 0.66913059716165679 1 0 0 1 I I #
coedge $-1 $531 $531 $-1 $722 reversed $364 $-1 #
edge $-1 $723 0 $723 6.2831853071796004 $365 $724 forward 7 unknown #
vertex $-1 $368 $725 #
ellipse-curve $-1 17.204847650300252 32.558980493864937 8.9249393659082568 0 0.74314483375859142 0.66913059716165679 1 0 0 1 I I #
face $-1 $-1 $726 $77 $-1 $727 reversed single #
loop $-1 $-1 $375 $369 #
plane-surface $-1 0 0 11.556410923637729 0 0 1 1 0 0 forward_v I I I I #
coedge $-1 $728 $729 $730 $731 reversed $370 $-1 #
coedge $-1 $732 $372 $374 $545 forward $234 $-1 #
coedge $-1 $372 $732 $728 $733 forward $234 $-1 #
coedge $-1 $730 $375 $372 $542 forward $536 $-1 #
edge $-1 $548 10.977080894218538 $734 24.014032100444872 $541 $735 forward 7 unknown #
coedge $-1 $736 $737 $373 $544 forward $726 $-1 #
edge $-1 $738 -56.380376472672118 $547 -51.11743335721318 $543 $739 forward 7 unknown #
edge $-1 $548 62.774747704557441 $738 69.856736135857744 $374 $740 forward 7 unknown #
coedge $-1 $375 $730 $736 $741 forward $536 $-1 #
vertex $-1 $376 $742 #
vertex $-1 $376 $743 #
straight-curve $-1 28.472637391550244 31.376111715385246 11.556410923637728 0 -1 0 I I #
coedge $-1 $550 $550 $-1 $744 reversed $379 $-1 #
edge $-1 $745 0 $745 6.2831853071796004 $380 $746 forward 7 unknown #
vertex $-1 $383 $747 #
ellipse-curve $-1 31.080027632795506 32.558980493864937 8.9249393659082568 0 0.74314483375859142 0.66913059716165679 1 0 0 1 I I #
coedge $-1 $554 $554 $-1 $748 reversed $386 $-1 #
edge $-1 $749 0 $749 6.2831853071796004 $387 $750 forward 7 unknown #
vertex $-1 $390 $751 #
ellipse-curve $-1 34.991112994663411 32.558980493864937 8.9249393659082568 0 0.74314483375859142 0.66913059716165679 1 0 0 1 I I #
coedge $-1 $558 $558 $-1 $752 reversed $393 $-1 #
edge $-1 $753 0 $753 6.2831853071796004 $394 $754 forward 7 unknown #
vertex $-1 $397 $755 #
ellipse-curve $-1 38.902198356531315 32.558980493864937 8.9249393659082568 0 0.74314483375859142 0.66913059716165679 1 0 0 1 I I #
face $-1 $-1 $756 $81 $-1 $757 reversed single #
loop $-1 $-1 $568 $398 #
plane-surface $-1 0 0 11.556410923637729 0 0 1 1 0 0 forward_v I I I I #
coedge $-1 $758 $759 $567 $760 forward $399 $-1 #
coedge $-1 $567 $401 $403 $573 reversed $253 $-1 #
coedge $-1 $401 $566 $565 $760 reversed $253 $-1 #
coedge $-1 $761 $404 $401 $569 forward $563 $-1 #
edge $-1 $576 -30.578105953028093 $762 -25.53988963314368 $568 $763 forward 7 unknown #
coedge $-1 $403 $402 $758 $764 reversed $160 $-1 #
coedge $-1 $765 $766 $402 $572 forward $756 $-1 #
edge $-1 $767 -7.6355047589220346 $575 2.1467165813524165 $571 $768 forward 7 unknown #
edge $-1 $769 1.393735185947377e-014 $576 9.782221340274468 $566 $770 forward 7 unknown #
coedge $-1 $404 $761 $765 $771 forward $563 $-1 #
vertex $-1 $572 $772 #
vertex $-1 $405 $773 #
straight-curve $-1 21.55171686045783 -29.890151748044481 11.556410923637729 -1 0 0 I I #
coedge $-1 $578 $578 $-1 $774 reversed $408 $-1 #
edge $-1 $775 0 $775 6.2831853071796004 $409 $776 forward 7 unknown #
vertex $-1 $412 $777 #
ellipse-curve $-1 40.074910416544682 -32.409259907986687 7.363910754759635 0 -0.85716730853699208 0.51503806187062418 2 0 0 1 I I #
coedge $-1 $582 $582 $-1 $778 reversed $415 $-1 #
edge $-1 $779 0 $779 6.2831853071796004 $416 $780 forward 7 unknown #
vertex $-1 $419 $781 #
ellipse-curve $-1 46.131957025286667 -32.409259907986687 7.363910754759635 0 -0.85716730853699208 0.51503806187062418 2 0 0 1 I I #
face $-1 $-1 $598 $63 $-1 $782 reversed single #
loop $-1 $-1 $783 $420 #
plane-surface $-1 0 34.928368067928893 0 0 -1 0 0 0 -1 forward_v I I I I #
coedge $-1 $597 $596 $423 $590 reversed $598 $-1 #
edge $-1 $784 -34.928368067928893 $785 34.928368067928893 $589 $786 forward 7 unknown #
coedge $-1 $425 $424 $428 $602 forward $169 $-1 #
coedge $-1 $783 $431 $424 $593 reversed $587 $-1 #
edge $-1 $600 -50.1699880977813 $607 50.1699880977813 $592 $787 forward 7 unknown #
coedge $-1 $429 $788 $425 $595 reversed $421 $-1 #
edge $-1 $604 -50.1699880977813 $599 50.1699880977813 $594 $789 forward 7 unknown #
coedge $-1 $589 $426 $788 $790 forward $598 $-1 #
coedge $-1 $426 $589 $783 $791 reversed $598 $-1 #
loop $-1 $-1 $596 $586 #
vertex $-1 $427 $792 #
vertex $-1 $427 $793 #
straight-curve $-1 50.1699880977813 0 11.556410923637729 0 1 0 I I #
edge $-1 $607 -34.928368067928893 $604 34.928368067928893 $428 $794 forward 7 unknown #
coedge $-1 $788 $429 $434 $610 reversed $421 $-1 #
vertex $-1 $602 $795 #
straight-curve $-1 -50.1699880977813 -34.928368067928893 0 0 0 -1 I I #
coedge $-1 $431 $783 $433 $609 reversed $587 $-1 #
vertex $-1 $593 $796 #
straight-curve $-1 -50.1699880977813 34.928368067928893 0 0 0 -1 I I #
edge $-1 $436 -50.1699880977813 $784 50.1699880977813 $606 $797 forward 7 unknown #
edge $-1 $785 -50.1699880977813 $435 50.1699880977813 $603 $798 forward 7 unknown #
point $-1 -50.1699880977813 -34.928368067928893 -11.556410923637729 #
point $-1 -50.1699880977813 34.928368067928893 -11.556410923637729 #
face $-1 $-1 $629 $64 $-1 $799 forward single #
plane-surface $-1 -56.945274783100473 -13.181601027291952 0 0 -1 0 0 0 -1 forward_v I I I I #
coedge $-1 $800 $801 $632 $802 forward $439 $-1 #
coedge $-1 $625 $441 $442 $621 reversed $275 $-1 #
coedge $-1 $441 $625 $628 $803 reversed $275 $-1 #
coedge $-1 $801 $800 $441 $619 reversed $439 $-1 #
edge $-1 $804 -11.556410923637729 $805 11.556410923637729 $618 $806 forward 7 unknown #
coedge $-1 $443 $442 $800 $807 forward $173 $-1 #
edge $-1 $623 -6.7752866853191733 $805 6.7752866853191733 $616 $808 forward 7 unknown #
edge $-1 $809 -6.7752866853191733 $451 6.7752866853191733 $448 $810 forward 7 unknown #
vertex $-1 $621 $811 #
straight-curve $-1 -50.1699880977813 0 -11.556410923637729 0 -1 0 I I #
coedge $-1 $617 $616 $445 $626 reversed $275 $-1 #
edge $-1 $630 -11.556410923637729 $623 11.556410923637729 $625 $812 forward 7 unknown #
coedge $-1 $813 $446 $449 $633 forward $629 $-1 #
coedge $-1 $446 $813 $617 $803 forward $629 $-1 #
loop $-1 $-1 $446 $613 #
vertex $-1 $447 $814 #
straight-curve $-1 -50.1699880977813 0 11.556410923637729 0 1 0 I I #
coedge $-1 $449 $448 $615 $802 reversed $450 $-1 #
edge $-1 $452 -6.7752866853191733 $815 6.7752866853191733 $449 $816 forward 7 unknown #
point $-1 -50.1699880977813 -13.181601027291952 -11.556410923637729 #
point $-1 -50.1699880977813 -13.181601027291952 11.556410923637729 #
loop $-1 $-1 $462 $454 #
plane-surface $-1 0 34.928368067928893 0 0 -1 0 0 0 -1 forward_v I I I I #
coedge $-1 $639 $457 $459 $643 reversed $283 $-1 #
coedge $-1 $457 $638 $817 $818 reversed $283 $-1 #
coedge $-1 $465 $460 $457 $641 forward $455 $-1 #
edge $-1 $644 -1.1865187955842735 $819 3.5522563525436475 $640 $820 forward 7 unknown #
coedge $-1 $459 $458 $647 $821 reversed $177 $-1 #
edge $-1 $822 -69.856736135857744 $644 -62.774747704557441 $638 $823 forward 7 unknown #
vertex $-1 $461 $824 #
straight-curve $-1 -15.050469562014889 30.189592919800972 11.556410923637728 1 0 0 I I #
coedge $-1 $817 $462 $465 $651 reversed $636 $-1 #
coedge $-1 $462 $817 $642 $821 forward $636 $-1 #
vertex $-1 $463 $825 #
straight-curve $-1 -36.619414727142946 34.928368067928893 62.673844280850908 0 0 1 I I #
straight-curve $-1 -36.619414727142946 -11.8149114984219 58.207140370778589 0 0.66913059716165679 -0.74314483375859142 I I #
edge $-1 $819 23.582463520916612 $466 36.619414727142946 $646 $826 forward 7 unknown #
point $-1 -36.619414727142946 34.928368067928893 11.556410923637729 #
point $-1 -36.619414727142946 30.189592919800972 11.556410923637728 #
edge $-1 $827 1 $827 0 $469 $-1 forward 7 unknown #
vertex $-1 $470 $828 #
ellipse-curve $-1 -34.012024485897683 31.650773002551617 8.1071856880207704 0 0.74314483375859142 0.66913059716165679 1 0 0 1 I I #
point $-1 -33.012024485897683 32.558980493864915 8.9249393659082354 #
edge $-1 $829 1 $829 0 $473 $-1 forward 7 unknown #
vertex $-1 $474 $830 #
ellipse-curve $-1 -30.100939124029779 31.650773002551617 8.1071856880207704 0 0.74314483375859142 0.66913059716165679 1 0 0 1 I I #
point $-1 -29.100939124029779 32.558980493864915 8.9249393659082354 #
edge $-1 $831 1 $831 0 $477 $-1 forward 7 unknown #
vertex $-1 $478 $832 #
ellipse-curve $-1 -26.189853762161878 31.650773002551617 8.1071856880207704 0 0.74314483375859142 0.66913059716165679 1 0 0 1 I I #
point $-1 -25.189853762161878 32.558980493864915 8.9249393659082354 #
loop $-1 $-1 $489 $481 #
plane-surface $-1 0 34.928368067928893 0 0 -1 0 0 0 -1 forward_v I I I I #
coedge $-1 $669 $484 $486 $673 reversed $312 $-1 #
coedge $-1 $484 $668 $833 $834 reversed $312 $-1 #
coedge $-1 $492 $487 $484 $671 forward $482 $-1 #
edge $-1 $674 -1.1865187955842735 $835 3.5522563525436475 $670 $836 forward 7 unknown #
coedge $-1 $486 $485 $677 $837 reversed $196 $-1 #
edge $-1 $838 -69.856736135857744 $674 -62.774747704557441 $668 $839 forward 7 unknown #
vertex $-1 $488 $840 #
straight-curve $-1 -4.2017942088993578 30.189592919800972 11.556410923637728 1 0 0 I I #
coedge $-1 $833 $489 $492 $681 reversed $666 $-1 #
coedge $-1 $489 $833 $672 $837 forward $666 $-1 #
vertex $-1 $490 $841 #
straight-curve $-1 -14.922064020911884 34.928368067928893 62.673844280850908 0 0 1 I I #
straight-curve $-1 -14.922064020911884 -11.8149114984219 58.207140370778589 0 0.66913059716165679 -0.74314483375859142 I I #
edge $-1 $835 1.8851128146855469 $493 14.922064020911884 $676 $842 forward 7 unknown #
point $-1 -14.922064020911884 34.928368067928893 11.556410923637729 #
point $-1 -14.922064020911884 30.189592919800972 11.556410923637728 #
edge $-1 $843 1 $843 0 $496 $-1 forward 7 unknown #
vertex $-1 $497 $844 #
ellipse-curve $-1 -12.31467377966662 31.650773002551617 8.1071856880207704 0 0.74314483375859142 0.66913059716165679 1 0 0 1 I I #
point $-1 -11.31467377966662 32.558980493864915 8.9249393659082354 #
edge $-1 $845 1 $845 0 $500 $-1 forward 7 unknown #
vertex $-1 $501 $846 #
ellipse-curve $-1 -8.4035884177987157 31.650773002551617 8.1071856880207704 0 0.74314483375859142 0.66913059716165679 1 0 0 1 I I #
point $-1 -7.4035884177987157 32.558980493864915 8.9249393659082354 #
edge $-1 $847 1 $847 0 $504 $-1 forward 7 unknown #
vertex $-1 $505 $848 #
ellipse-curve $-1 -4.4925030559308112 31.650773002551617 8.1071856880207704 0 0.74314483375859142 0.66913059716165679 1 0 0 1 I I #
point $-1 -3.4925030559308112 32.558980493864915 8.9249393659082354 #
loop $-1 $-1 $516 $508 #
plane-surface $-1 0 34.928368067928893 0 0 -1 0 0 0 -1 forward_v I I I I #
coedge $-1 $699 $511 $513 $703 reversed $341 $-1 #
coedge $-1 $511 $698 $849 $850 reversed $341 $-1 #
coedge $-1 $519 $514 $511 $701 forward $509 $-1 #
edge $-1 $704 -1.1865187955842735 $851 3.5522563525436475 $700 $852 forward 7 unknown #
coedge $-1 $513 $512 $707 $853 reversed $215 $-1 #
edge $-1 $854 -69.856736135857744 $704 -62.774747704557441 $698 $855 forward 7 unknown #
vertex $-1 $515 $856 #
straight-curve $-1 6.6468811442161737 30.189592919800972 11.556410923637728 1 0 0 I I #
coedge $-1 $849 $516 $519 $711 reversed $696 $-1 #
coedge $-1 $516 $849 $702 $853 forward $696 $-1 #
vertex $-1 $517 $857 #
straight-curve $-1 6.7752866853191787 34.928368067928893 62.673844280850908 0 0 1 I I #
straight-curve $-1 6.7752866853191787 -11.8149114984219 58.207140370778589 0 0.66913059716165679 -0.74314483375859142 I I #
edge $-1 $851 -19.812237891545514 $520 -6.7752866853191787 $706 $858 forward 7 unknown #
point $-1 6.7752866853191787 34.928368067928893 11.556410923637729 #
point $-1 6.7752866853191787 30.189592919800972 11.556410923637728 #
edge $-1 $859 1 $859 0 $523 $-1 forward 7 unknown #
vertex $-1 $524 $860 #
ellipse-curve $-1 9.382676926564443 31.650773002551617 8.1071856880207704 0 0.74314483375859142 0.66913059716165679 1 0 0 1 I I #
point $-1 10.382676926564443 32.558980493864915 8.9249393659082354 #
edge $-1 $861 1 $861 0 $527 $-1 forward 7 unknown #
vertex $-1 $528 $862 #
ellipse-curve $-1 13.293762288432347 31.650773002551617 8.1071856880207704 0 0.74314483375859142 0.66913059716165679 1 0 0 1 I I #
point $-1 14.293762288432347 32.558980493864915 8.9249393659082354 #
edge $-1 $863 1 $863 0 $531 $-1 forward 7 unknown #
vertex $-1 $532 $864 #
ellipse-curve $-1 17.204847650300252 31.650773002551617 8.1071856880207704 0 0.74314483375859142 0.66913059716165679 1 0 0 1 I I #
point $-1 18.204847650300252 32.558980493864915 8.9249393659082354 #
loop $-1 $-1 $543 $535 #
plane-surface $-1 0 34.928368067928893 0 0 -1 0 0 0 -1 forward_v I I I I #
coedge $-1 $729 $538 $540 $733 reversed $370 $-1 #
coedge $-1 $538 $728 $865 $866 reversed $370 $-1 #
coedge $-1 $546 $541 $538 $731 forward $536 $-1 #
edge $-1 $734 -1.1865187955842735 $867 3.5522563525436475 $730 $868 forward 7 unknown #
coedge $-1 $540 $539 $737 $869 reversed $234 $-1 #
edge $-1 $870 -69.856736135857744 $734 -62.774747704557441 $728 $871 forward 7 unknown #
vertex $-1 $542 $872 #
straight-curve $-1 17.495556497331705 30.189592919800972 11.556410923637728 1 0 0 I I #
coedge $-1 $865 $543 $546 $741 reversed $726 $-1 #
coedge $-1 $543 $865 $732 $869 forward $726 $-1 #
vertex $-1 $544 $873 #
straight-curve $-1 28.472637391550244 34.928368067928893 62.673844280850908 0 0 1 I I #
straight-curve $-1 28.472637391550244 -11.8149114984219 58.207140370778589 0 0.66913059716165679 -0.74314483375859142 I I #
edge $-1 $867 -41.509588597776578 $547 -28.472637391550244 $736 $874 forward 7 unknown #
point $-1 28.472637391550244 34.928368067928893 11.556410923637729 #
point $-1 28.472637391550244 30.189592919800972 11.556410923637728 #
edge $-1 $875 1 $875 0 $550 $-1 forward 7 unknown #
vertex $-1 $551 $876 #
ellipse-curve $-1 31.080027632795506 31.650773002551617 8.1071856880207704 0 0.74314483375859142 0.66913059716165679 1 0 0 1 I I #
point $-1 32.080027632795506 32.558980493864915 8.9249393659082354 #
edge $-1 $877 1 $877 0 $554 $-1 forward 7 unknown #
vertex $-1 $555 $878 #
ellipse-curve $-1 34.991112994663411 31.650773002551617 8.1071856880207704 0 0.74314483375859142 0.66913059716165679 1 0 0 1 I I #
point $-1 35.991112994663411 32.558980493864915 8.9249393659082354 #
edge $-1 $879 1 $879 0 $558 $-1 forward 7 unknown #
vertex $-1 $559 $880 #
ellipse-curve $-1 38.902198356531315 31.650773002551617 8.1071856880207704 0 0.74314483375859142 0.66913059716165679 1 0 0 1 I I #
point $-1 39.902198356531315 32.558980493864915 8.9249393659082354 #
loop $-1 $-1 $571 $562 #
plane-surface $-1 50.1699880977813 0 0 -1 0 0 0 0 1 forward_v I I I I #
coedge $-1 $881 $565 $570 $764 forward $399 $-1 #
coedge $-1 $565 $881 $761 $882 reversed $399 $-1 #
edge $-1 $762 15.868747803256602 $769 24.253748141012782 $565 $883 forward 7 unknown #
coedge $-1 $574 $568 $759 $882 forward $563 $-1 #
vertex $-1 $882 $884 #
straight-curve $-1 36.036879344050014 -60.468257701072574 11.556410923637728 0 -1 0 I I #
edge $-1 $769 14.485162483592184 $767 28.618271237323476 $758 $885 forward 7 unknown #
coedge $-1 $766 $571 $574 $771 reversed $756 $-1 #
coedge $-1 $571 $765 $881 $886 forward $756 $-1 #
vertex $-1 $764 $887 #
straight-curve $-1 50.1699880977813 -30.995792495489759 9.7163156494081448 0 0.51503806187062429 0.85716730853699219 I I #
vertex $-1 $764 $888 #
straight-curve $-1 36.036879344050014 -34.928368067928901 3.1714105858815387 0 0.51503806187062418 0.85716730853699208 I I #
edge $-1 $889 -34.928368067928893 $575 -29.890151748044481 $765 $890 forward 7 unknown #
point $-1 50.169988097781307 -29.890151748044481 11.556410923637729 #
point $-1 36.036879344050014 -29.890151748044481 11.556410923637729 #
edge $-1 $891 1 $891 0 $578 $-1 forward 7 unknown #
vertex $-1 $579 $892 #
ellipse-curve $-1 40.074910416544682 -26.63115647741169 3.8920760702910058 0 -0.85716730853699208 0.51503806187062418 2 0 0 1 I I #
point $-1 42.074910416544682 -32.40925990798668 7.3639107547596314 #
edge $-1 $893 1 $893 0 $582 $-1 forward 7 unknown #
vertex $-1 $583 $894 #
ellipse-curve $-1 46.131957025286667 -26.63115647741169 3.8920760702910058 0 -0.85716730853699208 0.51503806187062418 2 0 0 1 I I #
point $-1 48.131957025286667 -32.40925990798668 7.3639107547596314 #
plane-surface $-1 50.1699880977813 0 0 -1 0 0 0 0 1 forward_v I I I I #
coedge $-1 $606 $592 $597 $791 forward $587 $-1 #
vertex $-1 $590 $895 #
vertex $-1 $790 $896 #
straight-curve $-1 50.1699880977813 0 -11.556410923637729 0 -1 0 I I #
straight-curve $-1 0 34.928368067928893 11.556410923637729 -1 0 0 I I #
coedge $-1 $594 $603 $596 $790 reversed $421 $-1 #
straight-curve $-1 0 -34.928368067928893 11.556410923637729 1 0 0 I I #
edge $-1 $599 -11.556410923637729 $785 11.556410923637729 $596 $897 forward 7 unknown #
edge $-1 $600 -11.556410923637729 $784 11.556410923637729 $597 $898 forward 7 unknown #
point $-1 50.1699880977813 -34.928368067928893 11.556410923637729 #
point $-1 50.1699880977813 34.928368067928893 11.556410923637729 #
straight-curve $-1 -50.1699880977813 0 11.556410923637729 0 -1 0 I I #
point $-1 -50.1699880977813 -34.928368067928893 11.556410923637729 #
point $-1 -50.1699880977813 34.928368067928893 11.556410923637729 #
straight-curve $-1 0 34.928368067928893 -11.556410923637729 1 0 0 I I #
straight-curve $-1 0 -34.928368067928893 -11.556410923637729 -1 0 0 I I #
plane-surface $-1 0 0 11.556410923637729 0 0 1 1 0 0 forward_v I I I I #
coedge $-1 $618 $615 $620 $807 reversed $439 $-1 #
coedge $-1 $615 $618 $813 $899 reversed $439 $-1 #
edge $-1 $815 -11.556410923637729 $809 11.556410923637729 $632 $900 forward 7 unknown #
edge $-1 $804 -6.7752866853191733 $630 6.7752866853191733 $617 $901 forward 7 unknown #
vertex $-1 $899 $902 #
vertex $-1 $807 $903 #
straight-curve $-1 -63.720561468419646 -18.546001840021667 0 0 0 -1 I I #
edge $-1 $805 -2.6822004063648563 $809 2.6822004063648581 $800 $904 forward 7 unknown #
straight-curve $-1 -56.945274783100473 -18.546001840021667 -11.556410923637729 -1 0 0 I I #
vertex $-1 $622 $905 #
straight-curve $-1 -56.945274783100473 -13.181601027291952 -11.556410923637729 1 0 0 I I #
point $-1 -50.1699880977813 -18.546001840021667 -11.556410923637729 #
straight-curve $-1 -50.1699880977813 -18.546001840021667 0 0 0 -1 I I #
coedge $-1 $628 $627 $801 $899 forward $629 $-1 #
point $-1 -50.1699880977813 -18.546001840021667 11.556410923637729 #
vertex $-1 $633 $906 #
straight-curve $-1 -56.945274783100473 -13.181601027291952 11.556410923637729 -1 0 0 I I #
coedge $-1 $647 $646 $639 $818 forward $636 $-1 #
edge $-1 $819 51.11743335721318 $822 56.380376472672118 $817 $907 forward 7 unknown #
vertex $-1 $651 $908 #
straight-curve $-1 -23.582463520916612 31.376111715385246 11.556410923637728 0 1 0 I I #
edge $-1 $822 8.5319939589017224 $648 21.568945165128056 $647 $909 forward 7 unknown #
vertex $-1 $821 $910 #
straight-curve $-1 -23.582463520916612 -11.8149114984219 58.207140370778589 0 -0.66913059716165679 0.74314483375859142 I I #
point $-1 -23.582463520916612 30.189592919800972 11.556410923637728 #
point $-1 -36.619414727142946 34.928368067928893 6.2934678081787894 #
straight-curve $-1 0 34.928368067928893 11.556410923637729 -1 0 0 I I #
vertex $-1 $654 $911 #
point $-1 -33.012024485897683 31.650773002551617 8.1071856880207704 #
vertex $-1 $658 $912 #
point $-1 -29.100939124029779 31.650773002551617 8.1071856880207704 #
vertex $-1 $662 $913 #
point $-1 -25.189853762161878 31.650773002551617 8.1071856880207704 #
coedge $-1 $677 $676 $669 $834 forward $666 $-1 #
edge $-1 $835 51.11743335721318 $838 56.380376472672118 $833 $914 forward 7 unknown #
vertex $-1 $681 $915 #
straight-curve $-1 -1.8851128146855469 31.376111715385246 11.556410923637728 0 1 0 I I #
edge $-1 $838 -2.3166813942138109 $678 10.720269812012527 $677 $916 forward 7 unknown #
vertex $-1 $837 $917 #
straight-curve $-1 -1.8851128146855469 -11.8149114984219 58.207140370778589 0 -0.66913059716165679 0.74314483375859142 I I #
point $-1 -1.8851128146855469 30.189592919800972 11.556410923637728 #
point $-1 -14.922064020911884 34.928368067928893 6.2934678081787894 #
straight-curve $-1 0 34.928368067928893 11.556410923637729 -1 0 0 I I #
vertex $-1 $684 $918 #
point $-1 -11.31467377966662 31.650773002551617 8.1071856880207704 #
vertex $-1 $688 $919 #
point $-1 -7.4035884177987157 31.650773002551617 8.1071856880207704 #
vertex $-1 $692 $920 #
point $-1 -3.4925030559308112 31.650773002551617 8.1071856880207704 #
coedge $-1 $707 $706 $699 $850 forward $696 $-1 #
edge $-1 $851 51.11743335721318 $854 56.380376472672118 $849 $921 forward 7 unknown #
vertex $-1 $711 $922 #
straight-curve $-1 19.812237891545514 31.376111715385246 11.556410923637728 0 1 0 I I #
edge $-1 $854 -13.165356747329341 $708 -0.12840554110300495 $707 $923 forward 7 unknown #
vertex $-1 $853 $924 #
straight-curve $-1 19.812237891545514 -11.8149114984219 58.207140370778589 0 -0.66913059716165679 0.74314483375859142 I I #
point $-1 19.812237891545514 30.189592919800972 11.556410923637728 #
point $-1 6.7752866853191787 34.928368067928893 6.2934678081787894 #
straight-curve $-1 0 34.928368067928893 11.556410923637729 -1 0 0 I I #
vertex $-1 $714 $925 #
point $-1 10.382676926564443 31.650773002551617 8.1071856880207704 #
vertex $-1 $718 $926 #
point $-1 14.293762288432347 31.650773002551617 8.1071856880207704 #
vertex $-1 $722 $927 #
point $-1 18.204847650300252 31.650773002551617 8.1071856880207704 #
coedge $-1 $737 $736 $729 $866 forward $726 $-1 #
edge $-1 $867 51.11743335721318 $870 56.380376472672118 $865 $928 forward 7 unknown #
vertex $-1 $741 $929 #
straight-curve $-1 41.509588597776578 31.376111715385246 11.556410923637728 0 1 0 I I #
edge $-1 $870 -24.014032100444872 $738 -10.977080894218538 $737 $930 forward 7 unknown #
vertex $-1 $869 $931 #
straight-curve $-1 41.509588597776578 -11.8149114984219 58.207140370778589 0 -0.66913059716165679 0.74314483375859142 I I #
point $-1 41.509588597776578 30.189592919800972 11.556410923637728 #
point $-1 28.472637391550244 34.928368067928893 6.2934678081787894 #
straight-curve $-1 0 34.928368067928893 11.556410923637729 -1 0 0 I I #
vertex $-1 $744 $932 #
point $-1 32.080027632795506 31.650773002551617 8.1071856880207704 #
vertex $-1 $748 $933 #
point $-1 35.991112994663411 31.650773002551617 8.1071856880207704 #
vertex $-1 $752 $934 #
point $-1 39.902198356531315 31.650773002551617 8.1071856880207704 #
coedge $-1 $759 $758 $766 $886 reversed $399 $-1 #
edge $-1 $762 36.036879344050014 $889 50.1699880977813 $759 $935 forward 7 unknown #
straight-curve $-1 36.036879344050014 -34.928368067928893 27.425158726894331 0 0 -1 I I #
point $-1 36.036879344050014 -34.928368067928893 11.556410923637729 #
straight-curve $-1 21.55171686045783 -34.928368067928893 3.1714105858815529 1 0 0 I I #
edge $-1 $889 -11.556410923637729 $767 -3.1714105858815507 $766 $936 forward 7 unknown #
point $-1 50.169988097781307 -34.928368067928893 3.1714105858815507 #
point $-1 36.036879344050014 -34.928368067928893 3.1714105858815507 #
vertex $-1 $771 $937 #
straight-curve $-1 50.1699880977813 0 11.556410923637729 0 1 0 I I #
vertex $-1 $774 $938 #
point $-1 42.074910416544682 -26.63115647741169 3.8920760702910058 #
vertex $-1 $778 $939 #
point $-1 48.131957025286667 -26.63115647741169 3.8920760702910058 #
point $-1 50.1699880977813 34.928368067928893 -11.556410923637729 #
point $-1 50.1699880977813 -34.928368067928893 -11.556410923637729 #
straight-curve $-1 50.1699880977813 -34.928368067928893 0 0 0 -1 I I #
straight-curve $-1 50.1699880977813 34.928368067928893 0 0 0 -1 I I #
edge $-1 $815 -2.6822004063648581 $804 2.6822004063648563 $801 $940 forward 7 unknown #
straight-curve $-1 -63.720561468419646 -13.181601027291952 0 0 0 -1 I I #
straight-curve $-1 -56.945274783100473 -18.546001840021667 11.556410923637729 1 0 0 I I #
point $-1 -63.720561468419646 -18.546001840021667 11.556410923637729 #
point $-1 -63.720561468419646 -18.546001840021667 -11.556410923637729 #
straight-curve $-1 -63.720561468419646 -15.863801433656811 -11.556410923637729 0 1 0 I I #
point $-1 -63.720561468419646 -13.181601027291952 -11.556410923637729 #
point $-1 -63.720561468419646 -13.181601027291952 11.556410923637729 #
straight-curve $-1 -23.582463520916612 34.928368067928893 62.673844280850908 0 0 -1 I I #
point $-1 -23.582463520916612 34.928368067928893 11.556410923637729 #
straight-curve $-1 -15.050469562014889 34.928368067928901 6.2934678081787823 -1 0 0 I I #
point $-1 -23.582463520916612 34.928368067928893 6.2934678081787894 #
point $-1 -34.012024485897683 30.907628168793025 7.4380550908591134 #
point $-1 -30.100939124029779 30.907628168793025 7.4380550908591134 #
point $-1 -26.189853762161878 30.907628168793025 7.4380550908591134 #
straight-curve $-1 -1.8851128146855469 34.928368067928893 62.673844280850908 0 0 -1 I I #
point $-1 -1.8851128146855469 34.928368067928893 11.556410923637729 #
straight-curve $-1 -4.2017942088993578 34.928368067928901 6.2934678081787823 -1 0 0 I I #
point $-1 -1.8851128146855469 34.928368067928893 6.2934678081787894 #
point $-1 -12.31467377966662 30.907628168793025 7.4380550908591134 #
point $-1 -8.4035884177987157 30.907628168793025 7.4380550908591134 #
point $-1 -4.4925030559308112 30.907628168793025 7.4380550908591134 #
straight-curve $-1 19.812237891545514 34.928368067928893 62.673844280850908 0 0 -1 I I #
point $-1 19.812237891545514 34.928368067928893 11.556410923637729 #
straight-curve $-1 6.6468811442161737 34.928368067928901 6.2934678081787823 -1 0 0 I I #
point $-1 19.812237891545514 34.928368067928893 6.2934678081787894 #
point $-1 9.382676926564443 30.907628168793025 7.4380550908591134 #
point $-1 13.293762288432347 30.907628168793025 7.4380550908591134 #
point $-1 17.204847650300252 30.907628168793025 7.4380550908591134 #
straight-curve $-1 41.509588597776578 34.928368067928893 62.673844280850908 0 0 -1 I I #
point $-1 41.509588597776578 34.928368067928893 11.556410923637729 #
straight-curve $-1 17.495556497331705 34.928368067928901 6.2934678081787823 -1 0 0 I I #
point $-1 41.509588597776578 34.928368067928893 6.2934678081787894 #
point $-1 31.080027632795506 30.907628168793025 7.4380550908591134 #
point $-1 34.991112994663411 30.907628168793025 7.4380550908591134 #
point $-1 38.902198356531315 30.907628168793025 7.4380550908591134 #
straight-curve $-1 0 -34.928368067928893 11.556410923637729 1 0 0 I I #
straight-curve $-1 50.1699880977813 -34.928368067928893 0 0 0 -1 I I #
point $-1 50.1699880977813 -34.928368067928893 11.556410923637729 #
point $-1 40.074910416544682 -24.916821860337702 2.8619999465497572 #
point $-1 46.131957025286667 -24.916821860337702 2.8619999465497572 #
straight-curve $-1 -63.720561468419646 -15.863801433656811 11.556410923637729 0 -1 0 I I #
End-of-ACIS-data 