500 0 6 0           
7 Unknown 11 ACIS 5.0 NT 24 Thu Mar 25 20:29:16 1999 
-1 9.9999999999999995e-007 1e-010 
body $-1 $6 $-1 $7 #
body $-1 $8 $-1 $9 #
body $-1 $10 $-1 $11 #
body $-1 $12 $-1 $13 #
body $-1 $14 $-1 $15 #
body $-1 $16 $-1 $17 #
lump $-1 $-1 $18 $0 #
transform $-1 1 0 0 0 1 0 0 0 1 59.077730643635363 31.178661336722506 13.953371549850953 1 rotate no_reflect no_shear #
lump $-1 $-1 $19 $1 #
transform $-1 1 0 0 0 1 0 0 0 1 59.077730643635363 31.178661336722506 13.953371549850953 1 rotate no_reflect no_shear #
lump $-1 $-1 $20 $2 #
transform $-1 1 0 0 0 1 0 0 0 1 59.077730643635363 31.178661336722506 13.953371549850953 1 rotate no_reflect no_shear #
lump $-1 $-1 $21 $3 #
transform $-1 1 0 0 0 1 0 0 0 1 59.077730643635363 31.178661336722506 13.953371549850953 1 rotate no_reflect no_shear #
lump $-1 $-1 $22 $4 #
transform $-1 1 0 0 0 1 0 0 0 1 59.077730643635363 31.178661336722506 13.953371549850953 1 rotate no_reflect no_shear #
lump $-1 $-1 $23 $5 #
transform $-1 1 0 0 0 1 0 0 0 1 59.077730643635363 31.178661336722506 13.953371549850953 1 rotate no_reflect no_shear #
shell $-1 $-1 $-1 $24 $-1 $6 #
shell $-1 $-1 $-1 $25 $-1 $8 #
shell $-1 $-1 $-1 $26 $-1 $10 #
shell $-1 $-1 $-1 $27 $-1 $12 #
shell $-1 $-1 $-1 $28 $-1 $14 #
shell $-1 $-1 $-1 $29 $-1 $16 #
face $-1 $30 $31 $18 $-1 $32 forward single #
face $-1 $33 $34 $19 $-1 $35 forward single #
face $-1 $36 $37 $20 $-1 $38 reversed single #
face $-1 $39 $40 $21 $-1 $41 forward single #
face $-1 $42 $43 $22 $-1 $44 forward single #
face $-1 $45 $46 $23 $-1 $47 forward single #
face $-1 $48 $49 $18 $-1 $50 reversed single #
loop $-1 $-1 $51 $24 #
plane-surface $-1 0 0 13.953371549850953 0 0 1 1 0 0 forward_v I I I I #
face $-1 $52 $53 $19 $-1 $54 reversed single #
loop $-1 $-1 $55 $25 #
plane-surface $-1 0 -25.109909231308066 10.148793084061696 0 0 1 1 0 0 forward_v I I I I #
face $-1 $56 $57 $20 $-1 $58 reversed single #
loop $-1 $-1 $59 $26 #
plane-surface $-1 -17.743514775894035 79.441636936191117 131.71518137332794 1 0 0 0 -0.75470958851134928 -0.65605901945558964 forward_v I I I I #
face $-1 $60 $61 $21 $-1 $62 forward single #
loop $-1 $63 $64 $27 #
cone-surface $-1 -14.662104580013292 27.090053063750904 9.5663862668300492 0 -0.75470958851134928 -0.65605901945558964 1.5 0 0 1 I I 0 1 1.5 forward I I I I #
face $-1 $65 $66 $22 $-1 $67 forward single #
loop $-1 $68 $69 $28 #
cone-surface $-1 -10.039989286192174 27.090053063750904 9.5663862668300492 0 -0.75470958851134928 -0.65605901945558964 1.5 0 0 1 I I 0 1 1.5 forward I I I I #
face $-1 $70 $71 $23 $-1 $72 forward single #
loop $-1 $73 $74 $29 #
cone-surface $-1 -5.4178739923710566 27.090053063750904 9.5663862668300492 0 -0.75470958851134928 -0.65605901945558964 1.5 0 0 1 I I 0 1 1.5 forward I I I I #
face $-1 $75 $76 $18 $-1 $77 reversed single #
loop $-1 $-1 $78 $30 #
plane-surface $-1 0 0 -13.953371549850953 0 0 1 1 0 0 forward_v I I I I #
coedge $-1 $79 $80 $81 $82 forward $31 $-1 #
face $-1 $83 $84 $19 $-1 $85 reversed single #
loop $-1 $-1 $86 $33 #
plane-surface $-1 0 -25.109909231308066 5.091137702196411 0 0 1 1 0 0 forward_v I I I I #
coedge $-1 $87 $88 $89 $90 reversed $34 $-1 #
face $-1 $91 $92 $20 $-1 $93 reversed single #
loop $-1 $-1 $94 $36 #
plane-surface $-1 -10.039989286192174 -9.7314226322936292 54.198225297878224 0 0.75470958851134928 0.65605901945558964 1 0 0 forward_v I I I I #
coedge $-1 $95 $96 $97 $98 reversed $37 $-1 #
face $-1 $-1 $99 $21 $-1 $100 forward single #
loop $-1 $101 $102 $39 #
cone-surface $-1 -14.662104580013292 25.398296215978668 8.0957645129763911 0 -0.75470958851134928 -0.65605901945558964 0.75 0 0 1 I I -0.70710678118654757 0.70710678118654757 0.75 forward I I I I #
loop $-1 $-1 $103 $27 #
coedge $-1 $64 $64 $104 $105 reversed $40 $-1 #
face $-1 $-1 $106 $22 $-1 $107 forward single #
loop $-1 $108 $109 $42 #
cone-surface $-1 -10.039989286192174 25.398296215978668 8.0957645129763911 0 -0.75470958851134928 -0.65605901945558964 0.75 0 0 1 I I -0.70710678118654757 0.70710678118654757 0.75 forward I I I I #
loop $-1 $-1 $110 $28 #
coedge $-1 $69 $69 $111 $112 reversed $43 $-1 #
face $-1 $-1 $113 $23 $-1 $114 forward single #
loop $-1 $115 $116 $45 #
cone-surface $-1 -5.4178739923710566 25.398296215978668 8.0957645129763911 0 -0.75470958851134928 -0.65605901945558964 0.75 0 0 1 I I -0.70710678118654757 0.70710678118654757 0.75 forward I I I I #
loop $-1 $-1 $117 $29 #
coedge $-1 $74 $74 $118 $119 reversed $46 $-1 #
face $-1 $120 $121 $18 $-1 $122 reversed single #
loop $-1 $-1 $123 $48 #
plane-surface $-1 0 -31.178661336722506 0 0 1 0 0 0 1 forward_v I I I I #
coedge $-1 $124 $125 $126 $127 forward $49 $-1 #
coedge $-1 $128 $51 $129 $130 forward $31 $-1 #
coedge $-1 $51 $128 $131 $132 forward $31 $-1 #
coedge $-1 $133 $134 $51 $82 reversed $135 $-1 #
edge $-1 $136 -31.178661336722506 $137 31.178661336722506 $81 $138 forward 7 unknown #
face $-1 $139 $140 $19 $-1 $141 reversed single #
loop $-1 $-1 $142 $52 #
plane-surface $-1 0 -19.041157125893626 7.6199653931290534 0 -1 0 0 0 -1 forward_v I I I I #
coedge $-1 $143 $144 $145 $146 reversed $53 $-1 #
coedge $-1 $147 $55 $148 $149 forward $34 $-1 #
coedge $-1 $55 $147 $150 $151 reversed $34 $-1 #
coedge $-1 $152 $153 $55 $90 forward $154 $-1 #
edge $-1 $155 6.4862025102395933 $156 18.623706721068473 $89 $157 forward 7 unknown #
face $-1 $158 $159 $20 $-1 $160 reversed single #
loop $-1 $-1 $161 $56 #
plane-surface $-1 -2.3364637964903139 79.441636936191117 131.71518137332794 -1 0 0 0 0.75470958851134928 0.65605901945558964 forward_v I I I I #
coedge $-1 $162 $163 $164 $165 reversed $57 $-1 #
coedge $-1 $96 $59 $166 $167 reversed $37 $-1 #
coedge $-1 $59 $95 $162 $168 reversed $37 $-1 #
coedge $-1 $164 $169 $59 $98 forward $170 $-1 #
edge $-1 $171 8.5421571313730524 $172 14.467924364538767 $97 $173 forward 7 unknown #
loop $-1 $-1 $104 $60 #
plane-surface $-1 -10.039989286192174 -9.7314226322936292 54.198225297878224 0 0.75470958851134928 0.65605901945558964 1 0 0 forward_v I I I I #
loop $-1 $-1 $174 $39 #
coedge $-1 $102 $102 $103 $175 reversed $61 $-1 #
coedge $-1 $103 $103 $102 $175 forward $63 $-1 #
coedge $-1 $104 $104 $64 $105 forward $99 $-1 #
edge $-1 $176 5.081532115480137e-016 $176 6.2831853071796013 $104 $177 forward 7 unknown #
loop $-1 $-1 $111 $65 #
plane-surface $-1 -10.039989286192174 -9.7314226322936292 54.198225297878224 0 0.75470958851134928 0.65605901945558964 1 0 0 forward_v I I I I #
loop $-1 $-1 $178 $42 #
coedge $-1 $109 $109 $110 $179 reversed $66 $-1 #
coedge $-1 $110 $110 $109 $179 forward $68 $-1 #
coedge $-1 $111 $111 $69 $112 forward $106 $-1 #
edge $-1 $180 5.081532115480137e-016 $180 6.2831853071796013 $111 $181 forward 7 unknown #
loop $-1 $-1 $118 $70 #
plane-surface $-1 -10.039989286192174 -9.7314226322936292 54.198225297878224 0 0.75470958851134928 0.65605901945558964 1 0 0 forward_v I I I I #
loop $-1 $-1 $182 $45 #
coedge $-1 $116 $116 $117 $183 reversed $71 $-1 #
coedge $-1 $117 $117 $116 $183 forward $73 $-1 #
coedge $-1 $118 $118 $74 $119 forward $113 $-1 #
edge $-1 $184 5.081532115480137e-016 $184 6.2831853071796013 $118 $185 forward 7 unknown #
face $-1 $186 $187 $18 $-1 $188 reversed single #
loop $-1 $-1 $189 $75 #
plane-surface $-1 -59.077730643635363 0 0 1 0 0 0 0 -1 forward_v I I I I #
coedge $-1 $190 $131 $191 $192 forward $76 $-1 #
coedge $-1 $193 $78 $190 $194 forward $49 $-1 #
coedge $-1 $78 $193 $195 $196 forward $49 $-1 #
coedge $-1 $134 $133 $78 $127 reversed $135 $-1 #
edge $-1 $197 -31.178661336722506 $198 31.178661336722506 $126 $199 forward 7 unknown #
coedge $-1 $80 $79 $200 $201 forward $31 $-1 #
coedge $-1 $202 $203 $79 $130 reversed $187 $-1 #
edge $-1 $137 -59.077730643635363 $204 59.077730643635363 $129 $205 forward 7 unknown #
coedge $-1 $123 $206 $80 $132 reversed $76 $-1 #
edge $-1 $207 -59.077730643635363 $136 59.077730643635363 $131 $208 forward 7 unknown #
coedge $-1 $126 $81 $206 $209 forward $135 $-1 #
coedge $-1 $81 $126 $202 $210 reversed $135 $-1 #
loop $-1 $-1 $133 $186 #
vertex $-1 $82 $211 #
vertex $-1 $82 $212 #
straight-curve $-1 59.077730643635363 0 13.953371549850953 0 1 0 I I #
face $-1 $213 $214 $19 $-1 $215 reversed single #
loop $-1 $-1 $216 $83 #
plane-surface $-1 -59.077730643635363 0 0 1 0 0 0 0 -1 forward_v I I I I #
coedge $-1 $217 $148 $153 $218 reversed $84 $-1 #
coedge $-1 $219 $86 $220 $221 reversed $53 $-1 #
coedge $-1 $86 $219 $217 $222 forward $53 $-1 #
coedge $-1 $153 $152 $86 $146 forward $154 $-1 #
edge $-1 $223 -18.623706721068473 $224 -6.4862025102395933 $145 $225 forward 7 unknown #
coedge $-1 $88 $87 $216 $226 reversed $34 $-1 #
coedge $-1 $142 $227 $87 $149 reversed $84 $-1 #
edge $-1 $155 -59.077730643635363 $228 59.077730643635363 $148 $229 forward 7 unknown #
coedge $-1 $230 $231 $88 $151 forward $214 $-1 #
edge $-1 $156 -59.077730643635363 $232 59.077730643635363 $150 $233 forward 7 unknown #
coedge $-1 $145 $89 $231 $234 forward $154 $-1 #
coedge $-1 $89 $145 $142 $218 forward $154 $-1 #
loop $-1 $-1 $89 $213 #
vertex $-1 $90 $235 #
vertex $-1 $234 $236 #
straight-curve $-1 59.077730643635363 -12.554954615654033 10.148793084061696 0 -1 0 I I #
face $-1 $-1 $170 $20 $-1 $237 forward single #
loop $-1 $-1 $238 $91 #
plane-surface $-1 0 31.178661336722506 0 0 -1 0 0 0 -1 forward_v I I I I #
coedge $-1 $239 $240 $241 $242 reversed $92 $-1 #
coedge $-1 $243 $94 $96 $168 forward $57 $-1 #
coedge $-1 $94 $243 $239 $244 forward $57 $-1 #
coedge $-1 $241 $97 $94 $165 forward $170 $-1 #
edge $-1 $172 -12.723520132797947 $245 2.6835308466057732 $164 $246 forward 7 unknown #
coedge $-1 $247 $248 $95 $167 forward $159 $-1 #
edge $-1 $249 -58.721034724330849 $171 -51.904219136813012 $166 $250 forward 7 unknown #
edge $-1 $172 53.324953545918909 $249 62.357322673445019 $96 $251 forward 7 unknown #
coedge $-1 $97 $241 $247 $252 forward $170 $-1 #
loop $-1 $-1 $241 $158 #
vertex $-1 $167 $253 #
vertex $-1 $98 $254 #
straight-curve $-1 -17.743514775894035 39.720818468095558 13.953371549850957 0 -1 0 I I #
coedge $-1 $174 $174 $-1 $255 reversed $101 $-1 #
edge $-1 $256 0 $256 6.2831853071796004 $102 $257 forward 7 unknown #
vertex $-1 $105 $258 #
ellipse-curve $-1 -14.662104580013292 28.215777720139648 10.544963756092033 0 0.75470958851134928 0.65605901945558964 1.5 0 0 1 I I #
coedge $-1 $178 $178 $-1 $259 reversed $108 $-1 #
edge $-1 $260 0 $260 6.2831853071796004 $109 $261 forward 7 unknown #
vertex $-1 $112 $262 #
ellipse-curve $-1 -10.039989286192174 28.215777720139648 10.544963756092033 0 0.75470958851134928 0.65605901945558964 1.5 0 0 1 I I #
coedge $-1 $182 $182 $-1 $263 reversed $115 $-1 #
edge $-1 $264 0 $264 6.2831853071796004 $116 $265 forward 7 unknown #
vertex $-1 $119 $266 #
ellipse-curve $-1 -5.4178739923710566 28.215777720139648 10.544963756092033 0 0.75470958851134928 0.65605901945558964 1.5 0 0 1 I I #
face $-1 $-1 $135 $18 $-1 $267 reversed single #
loop $-1 $-1 $202 $120 #
plane-surface $-1 0 31.178661336722506 0 0 -1 0 0 0 -1 forward_v I I I I #
coedge $-1 $268 $200 $203 $269 forward $121 $-1 #
coedge $-1 $206 $123 $124 $194 reversed $76 $-1 #
coedge $-1 $200 $268 $123 $192 reversed $121 $-1 #
edge $-1 $207 -13.953371549850953 $270 13.953371549850953 $191 $271 forward 7 unknown #
coedge $-1 $125 $124 $268 $272 forward $49 $-1 #
edge $-1 $198 -59.077730643635363 $270 59.077730643635363 $190 $273 forward 7 unknown #
coedge $-1 $203 $202 $125 $196 reversed $187 $-1 #
edge $-1 $274 -59.077730643635363 $197 59.077730643635363 $195 $275 forward 7 unknown #
vertex $-1 $127 $276 #
vertex $-1 $209 $277 #
straight-curve $-1 59.077730643635363 0 -13.953371549850953 0 -1 0 I I #
coedge $-1 $189 $191 $128 $201 reversed $121 $-1 #
edge $-1 $204 -31.178661336722506 $207 31.178661336722506 $200 $278 forward 7 unknown #
coedge $-1 $195 $129 $134 $210 forward $187 $-1 #
coedge $-1 $129 $195 $189 $269 reversed $187 $-1 #
vertex $-1 $130 $279 #
straight-curve $-1 0 31.178661336722506 13.953371549850953 -1 0 0 I I #
coedge $-1 $131 $190 $133 $209 reversed $76 $-1 #
vertex $-1 $201 $280 #
straight-curve $-1 0 -31.178661336722506 13.953371549850953 1 0 0 I I #
edge $-1 $136 -13.953371549850953 $198 13.953371549850953 $133 $281 forward 7 unknown #
edge $-1 $137 -13.953371549850953 $197 13.953371549850953 $134 $282 forward 7 unknown #
point $-1 59.077730643635363 -31.178661336722506 13.953371549850953 #
point $-1 59.077730643635363 31.178661336722506 13.953371549850953 #
face $-1 $-1 $154 $19 $-1 $283 reversed single #
loop $-1 $-1 $150 $139 #
plane-surface $-1 0 -31.178661336722506 0 0 1 0 0 0 1 forward_v I I I I #
coedge $-1 $284 $285 $147 $226 forward $140 $-1 #
coedge $-1 $227 $142 $144 $222 reversed $84 $-1 #
edge $-1 $224 1.2811550056318843 $155 6.3388103874971691 $153 $286 forward 7 unknown #
coedge $-1 $144 $143 $287 $288 reversed $53 $-1 #
coedge $-1 $231 $230 $143 $221 forward $214 $-1 #
edge $-1 $289 -59.077730643635363 $223 59.077730643635363 $220 $290 forward 7 unknown #
edge $-1 $291 -59.077730643635363 $224 59.077730643635363 $217 $292 forward 7 unknown #
vertex $-1 $221 $293 #
vertex $-1 $146 $294 #
straight-curve $-1 59.077730643635363 -12.554954615654033 5.091137702196411 0 1 0 I I #
edge $-1 $232 -18.623706721068473 $228 -6.4862025102395933 $216 $295 forward 7 unknown #
coedge $-1 $148 $217 $284 $296 reversed $84 $-1 #
vertex $-1 $226 $297 #
straight-curve $-1 0 -19.041157125893626 10.148793084061696 -1 0 0 I I #
coedge $-1 $220 $150 $285 $298 forward $214 $-1 #
coedge $-1 $150 $220 $152 $234 reversed $214 $-1 #
vertex $-1 $298 $299 #
straight-curve $-1 0 -31.178661336722506 10.148793084061696 -1 0 0 I I #
edge $-1 $156 -10.148793084061696 $223 -5.091137702196411 $152 $300 forward 7 unknown #
point $-1 59.077730643635363 -19.041157125893626 10.148793084061696 #
point $-1 59.077730643635363 -31.178661336722506 10.148793084061696 #
plane-surface $-1 0 0 13.953371549850953 0 0 1 1 0 0 forward_v I I I I #
coedge $-1 $248 $247 $240 $301 forward $159 $-1 #
coedge $-1 $240 $161 $163 $244 reversed $92 $-1 #
coedge $-1 $161 $239 $238 $301 reversed $92 $-1 #
coedge $-1 $169 $164 $161 $242 forward $170 $-1 #
edge $-1 $245 -14.467924364538767 $302 -8.5421571313730524 $241 $303 forward 7 unknown #
coedge $-1 $163 $162 $248 $304 reversed $57 $-1 #
edge $-1 $305 -62.357322673445019 $245 -53.324953545918909 $239 $306 forward 7 unknown #
vertex $-1 $165 $307 #
straight-curve $-1 -5.0199946430960871 25.252894103556798 13.953371549850953 1 0 0 I I #
coedge $-1 $238 $166 $169 $252 reversed $159 $-1 #
coedge $-1 $166 $238 $243 $304 forward $159 $-1 #
vertex $-1 $167 $308 #
straight-curve $-1 -17.743514775894035 31.178661336722506 65.857590686663968 0 0 1 I I #
straight-curve $-1 -17.743514775894035 -9.7314226322936292 54.198225297878224 0 0.65605901945558964 -0.75470958851134928 I I #
edge $-1 $302 2.3364637964903139 $171 17.743514775894035 $247 $309 forward 7 unknown #
point $-1 -17.743514775894035 31.178661336722506 13.953371549850953 #
point $-1 -17.743514775894035 25.252894103556791 13.953371549850957 #
edge $-1 $310 1 $310 0 $174 $-1 forward 7 unknown #
vertex $-1 $175 $311 #
ellipse-curve $-1 -14.662104580013292 25.964328407362181 8.5878087775680836 0 0.75470958851134928 0.65605901945558964 1.5 0 0 1 I I #
point $-1 -13.162104580013292 28.215777720139627 10.544963756092013 #
edge $-1 $312 1 $312 0 $178 $-1 forward 7 unknown #
vertex $-1 $179 $313 #
ellipse-curve $-1 -10.039989286192174 25.964328407362181 8.5878087775680836 0 0.75470958851134928 0.65605901945558964 1.5 0 0 1 I I #
point $-1 -8.5399892861921742 28.215777720139627 10.544963756092013 #
edge $-1 $314 1 $314 0 $182 $-1 forward 7 unknown #
vertex $-1 $183 $315 #
ellipse-curve $-1 -5.4178739923710566 25.964328407362181 8.5878087775680836 0 0.75470958851134928 0.65605901945558964 1.5 0 0 1 I I #
point $-1 -3.9178739923710566 28.215777720139627 10.544963756092013 #
plane-surface $-1 59.077730643635363 0 0 -1 0 0 0 0 1 forward_v I I I I #
coedge $-1 $191 $189 $193 $272 reversed $121 $-1 #
edge $-1 $204 -13.953371549850953 $274 13.953371549850953 $203 $316 forward 7 unknown #
vertex $-1 $272 $317 #
straight-curve $-1 -59.077730643635363 -31.178661336722506 0 0 0 -1 I I #
edge $-1 $270 -31.178661336722506 $274 31.178661336722506 $268 $318 forward 7 unknown #
straight-curve $-1 0 -31.178661336722506 -13.953371549850953 -1 0 0 I I #
vertex $-1 $196 $319 #
straight-curve $-1 0 31.178661336722506 -13.953371549850953 1 0 0 I I #
point $-1 59.077730643635363 31.178661336722506 -13.953371549850953 #
point $-1 59.077730643635363 -31.178661336722506 -13.953371549850953 #
straight-curve $-1 -59.077730643635363 0 13.953371549850953 0 -1 0 I I #
point $-1 -59.077730643635363 31.178661336722506 13.953371549850953 #
point $-1 -59.077730643635363 -31.178661336722506 13.953371549850953 #
straight-curve $-1 59.077730643635363 -31.178661336722506 0 0 0 -1 I I #
straight-curve $-1 59.077730643635363 31.178661336722506 0 0 0 -1 I I #
plane-surface $-1 59.077730643635363 0 0 -1 0 0 0 0 1 forward_v I I I I #
coedge $-1 $287 $216 $227 $296 forward $140 $-1 #
coedge $-1 $216 $287 $230 $298 reversed $140 $-1 #
straight-curve $-1 59.077730643635363 -19.041157125893626 3.8099826965645267 0 0 1 I I #
coedge $-1 $285 $284 $219 $288 forward $140 $-1 #
edge $-1 $291 6.4862025102395933 $289 18.623706721068473 $287 $320 forward 7 unknown #
vertex $-1 $221 $321 #
straight-curve $-1 0 -31.178661336722506 5.091137702196411 1 0 0 I I #
vertex $-1 $288 $322 #
straight-curve $-1 0 -19.041157125893626 5.091137702196411 1 0 0 I I #
point $-1 59.077730643635363 -31.178661336722506 5.091137702196411 #
point $-1 59.077730643635363 -19.041157125893626 5.091137702196411 #
straight-curve $-1 -59.077730643635363 -12.554954615654033 10.148793084061696 0 1 0 I I #
edge $-1 $228 -6.3388103874971691 $291 -1.2811550056318843 $284 $323 forward 7 unknown #
point $-1 -59.077730643635363 -19.041157125893626 10.148793084061696 #
edge $-1 $232 -10.148793084061696 $289 -5.091137702196411 $285 $324 forward 7 unknown #
point $-1 -59.077730643635363 -31.178661336722506 10.148793084061696 #
straight-curve $-1 59.077730643635363 -31.178661336722506 0 0 0 -1 I I #
edge $-1 $302 51.904219136813012 $305 58.721034724330849 $238 $325 forward 7 unknown #
vertex $-1 $252 $326 #
straight-curve $-1 -2.3364637964903139 39.720818468095558 13.953371549850957 0 1 0 I I #
edge $-1 $305 -2.6835308466057732 $249 12.723520132797947 $248 $327 forward 7 unknown #
vertex $-1 $304 $328 #
straight-curve $-1 -2.3364637964903139 -9.7314226322936292 54.198225297878224 0 -0.65605901945558964 0.75470958851134928 I I #
point $-1 -2.3364637964903139 25.252894103556791 13.953371549850957 #
point $-1 -17.743514775894035 31.178661336722506 7.1365559623331194 #
straight-curve $-1 0 31.178661336722506 13.953371549850953 -1 0 0 I I #
vertex $-1 $255 $329 #
point $-1 -13.162104580013292 25.964328407362181 8.5878087775680836 #
vertex $-1 $259 $330 #
point $-1 -8.5399892861921742 25.964328407362181 8.5878087775680836 #
vertex $-1 $263 $331 #
point $-1 -3.9178739923710566 25.964328407362181 8.5878087775680836 #
straight-curve $-1 -59.077730643635363 31.178661336722506 0 0 0 -1 I I #
point $-1 -59.077730643635363 -31.178661336722506 -13.953371549850953 #
straight-curve $-1 -59.077730643635363 0 -13.953371549850953 0 1 0 I I #
point $-1 -59.077730643635363 31.178661336722506 -13.953371549850953 #
straight-curve $-1 -59.077730643635363 -12.554954615654033 5.091137702196411 0 -1 0 I I #
point $-1 -59.077730643635363 -31.178661336722506 5.091137702196411 #
point $-1 -59.077730643635363 -19.041157125893626 5.091137702196411 #
straight-curve $-1 -59.077730643635363 -19.041157125893626 3.8099826965645267 0 0 -1 I I #
straight-curve $-1 -59.077730643635363 -31.178661336722506 0 0 0 -1 I I #
straight-curve $-1 -2.3364637964903139 31.178661336722506 65.857590686663968 0 0 -1 I I #
point $-1 -2.3364637964903139 31.178661336722506 13.953371549850953 #
straight-curve $-1 -5.0199946430960871 31.178661336722506 7.1365559623331123 -1 0 0 I I #
point $-1 -2.3364637964903139 31.178661336722506 7.1365559623331194 #
point $-1 -14.662104580013292 24.832264024595155 7.6037202483846986 #
point $-1 -10.039989286192174 24.832264024595155 7.6037202483846986 #
point $-1 -5.4178739923710566 24.832264024595155 7.6037202483846986 #
End-of-ACIS-data 