500 0 9 0           
7 Unknown 11 ACIS 5.0 NT 24 Fri Mar 26 17:42:08 1999 
-1 9.9999999999999995e-007 1e-010 
body $-1 $9 $-1 $10 #
body $-1 $11 $-1 $12 #
body $-1 $13 $-1 $14 #
body $-1 $15 $-1 $16 #
body $-1 $17 $-1 $18 #
body $-1 $19 $-1 $20 #
body $-1 $21 $-1 $22 #
body $-1 $23 $-1 $24 #
body $-1 $25 $-1 $26 #
lump $-1 $-1 $27 $0 #
transform $-1 1 0 0 0 1 0 0 0 1 76.3487655262917 31.8361793272311 6.9125908706763246 1 rotate no_reflect no_shear #
lump $-1 $-1 $28 $1 #
transform $-1 1 0 0 0 1 0 0 0 1 76.3487655262917 31.8361793272311 6.9125908706763246 1 rotate no_reflect no_shear #
lump $-1 $-1 $29 $2 #
transform $-1 1 0 0 0 1 0 0 0 1 76.3487655262917 31.8361793272311 6.9125908706763246 1 rotate no_reflect no_shear #
lump $-1 $-1 $30 $3 #
transform $-1 1 0 0 0 1 0 0 0 1 76.3487655262917 31.8361793272311 6.9125908706763246 1 rotate no_reflect no_shear #
lump $-1 $-1 $31 $4 #
transform $-1 1 0 0 0 1 0 0 0 1 76.3487655262917 31.8361793272311 6.9125908706763246 1 rotate no_reflect no_shear #
lump $-1 $-1 $32 $5 #
transform $-1 1 0 0 0 1 0 0 0 1 76.3487655262917 31.8361793272311 6.9125908706763246 1 rotate no_reflect no_shear #
lump $-1 $-1 $33 $6 #
transform $-1 1 0 0 0 1 0 0 0 1 76.3487655262917 31.8361793272311 6.9125908706763246 1 rotate no_reflect no_shear #
lump $-1 $-1 $34 $7 #
transform $-1 1 0 0 0 1 0 0 0 1 76.3487655262917 31.8361793272311 6.9125908706763246 1 rotate no_reflect no_shear #
lump $-1 $-1 $35 $8 #
transform $-1 1 0 0 0 1 0 0 0 1 76.3487655262917 31.8361793272311 6.9125908706763246 1 rotate no_reflect no_shear #
shell $-1 $-1 $-1 $36 $-1 $9 #
shell $-1 $-1 $-1 $37 $-1 $11 #
shell $-1 $-1 $-1 $38 $-1 $13 #
shell $-1 $-1 $-1 $39 $-1 $15 #
shell $-1 $-1 $-1 $40 $-1 $17 #
shell $-1 $-1 $-1 $41 $-1 $19 #
shell $-1 $-1 $-1 $42 $-1 $21 #
shell $-1 $-1 $-1 $43 $-1 $23 #
shell $-1 $-1 $-1 $44 $-1 $25 #
face $-1 $45 $46 $27 $-1 $47 forward single #
face $-1 $48 $49 $28 $-1 $50 forward single #
face $-1 $51 $52 $29 $-1 $53 forward single #
face $-1 $54 $55 $30 $-1 $56 reversed single #
face $-1 $57 $58 $31 $-1 $59 forward single #
face $-1 $60 $61 $32 $-1 $62 forward single #
face $-1 $63 $64 $33 $-1 $65 forward single #
face $-1 $66 $67 $34 $-1 $68 reversed single #
face $-1 $69 $70 $35 $-1 $71 forward single #
face $-1 $72 $73 $27 $-1 $74 reversed single #
loop $-1 $-1 $75 $36 #
plane-surface $-1 0 0 6.9125908706763246 0 0 1 1 0 0 forward_v I I I I #
face $-1 $76 $77 $28 $-1 $78 forward single #
loop $-1 $-1 $79 $37 #
plane-surface $-1 0 -31.8361793272311 0 0 1 0 0 0 1 forward_v I I I I #
face $-1 $80 $81 $29 $-1 $82 reversed single #
loop $-1 $-1 $83 $38 #
plane-surface $-1 0 28.802877409061644 1.8113923127774352 0 0 1 1 0 0 forward_v I I I I #
face $-1 $84 $85 $30 $-1 $86 reversed single #
loop $-1 $-1 $87 $39 #
plane-surface $-1 42.567226699586371 -13.567616485369882 215.67602536030242 0 -1 0 -0.5877852598018023 0 -0.80901698891910034 forward_v I I I I #
face $-1 $88 $89 $31 $-1 $90 forward single #
loop $-1 $91 $92 $40 #
cone-surface $-1 72.463189984121669 -21.69189265143018 3.5881160177873861 -0.5877852598018023 0 -0.80901698891910034 0.80901698891910034 0 -0.5877852598018023 1 I I 0 1 1 forward I I I I #
face $-1 $93 $94 $32 $-1 $95 forward single #
loop $-1 $96 $97 $41 #
cone-surface $-1 72.463189984121669 -18.645289089157568 3.5881160177873861 -0.5877852598018023 0 -0.80901698891910034 0.80901698891910034 0 -0.5877852598018023 1 I I 0 1 1 forward I I I I #
face $-1 $98 $99 $33 $-1 $100 forward single #
loop $-1 $101 $102 $42 #
cone-surface $-1 72.463189984121669 -15.598685526884957 3.5881160177873861 -0.5877852598018023 0 -0.80901698891910034 0.80901698891910034 0 -0.5877852598018023 1 I I 0 1 1 forward I I I I #
face $-1 $103 $104 $34 $-1 $105 reversed single #
loop $-1 $-1 $106 $43 #
plane-surface $-1 -208.58870769411277 -10.046493445321225 79.347656260371267 0 1 0 -0.86602541151947299 0 0.49999998660252726 forward_v I I I I #
face $-1 $107 $108 $35 $-1 $109 forward single #
loop $-1 $110 $111 $44 #
cone-surface $-1 -74.437316768691701 -4.3593846121815574 4.5044493784744963 0.86602541151947299 0 -0.49999998660252726 0.24999999330126363 0 0.43301270575973649 1 I I 0 1 0.5 forward I I I I #
face $-1 $112 $113 $27 $-1 $114 reversed single #
loop $-1 $-1 $115 $45 #
plane-surface $-1 0 0 -6.9125908706763246 0 0 1 1 0 0 forward_v I I I I #
coedge $-1 $116 $117 $118 $119 forward $46 $-1 #
face $-1 $120 $121 $28 $-1 $122 reversed single #
loop $-1 $-1 $123 $48 #
plane-surface $-1 0 0 6.9125908706763246 0 0 1 1 0 0 forward_v I I I I #
coedge $-1 $124 $125 $126 $127 forward $49 $-1 #
face $-1 $128 $129 $29 $-1 $130 reversed single #
loop $-1 $-1 $131 $51 #
plane-surface $-1 0 28.802877409061644 -2.0071459212312894 0 0 1 1 0 0 forward_v I I I I #
coedge $-1 $132 $133 $134 $135 reversed $52 $-1 #
face $-1 $136 $137 $30 $-1 $138 reversed single #
loop $-1 $-1 $139 $54 #
plane-surface $-1 -47.186131261250139 -18.645289089157568 92.141128572760579 0.5877852598018023 0 0.80901698891910034 0.80901698891910034 0 -0.5877852598018023 forward_v I I I I #
coedge $-1 $140 $141 $142 $143 reversed $55 $-1 #
face $-1 $-1 $144 $31 $-1 $145 forward single #
loop $-1 $146 $147 $57 #
cone-surface $-1 71.397662150032588 -21.69189265143018 2.1215427998150327 -0.5877852598018023 0 -0.80901698891910034 0.40450849445955017 0 -0.29389262990090115 1 I I -0.70710678118654746 0.70710678118654746 0.5 forward I I I I #
loop $-1 $-1 $148 $40 #
coedge $-1 $92 $92 $149 $150 reversed $58 $-1 #
face $-1 $-1 $151 $32 $-1 $152 forward single #
loop $-1 $153 $154 $60 #
cone-surface $-1 71.397662150032588 -18.645289089157568 2.1215427998150327 -0.5877852598018023 0 -0.80901698891910034 0.40450849445955017 0 -0.29389262990090115 1 I I -0.70710678118654746 0.70710678118654746 0.5 forward I I I I #
loop $-1 $-1 $155 $41 #
coedge $-1 $97 $97 $156 $157 reversed $61 $-1 #
face $-1 $-1 $158 $33 $-1 $159 forward single #
loop $-1 $160 $161 $63 #
cone-surface $-1 71.397662150032588 -15.598685526884957 2.1215427998150327 -0.5877852598018023 0 -0.80901698891910034 0.40450849445955017 0 -0.29389262990090115 1 I I -0.70710678118654746 0.70710678118654746 0.5 forward I I I I #
loop $-1 $-1 $162 $42 #
coedge $-1 $102 $102 $163 $164 reversed $64 $-1 #
face $-1 $165 $166 $34 $-1 $167 reversed single #
loop $-1 $-1 $168 $66 #
plane-surface $-1 -76.348765526291714 -4.3593846121815574 2.998892779840574 -0.86602541151947299 0 0.49999998660252726 0.49999998660252726 0 0.86602541151947299 forward_v I I I I #
coedge $-1 $169 $170 $171 $172 reversed $67 $-1 #
face $-1 $-1 $173 $35 $-1 $174 forward single #
loop $-1 $175 $176 $69 #
cone-surface $-1 -73.439148940983856 -4.3593846121815574 3.9281569350399126 0.86602541151947299 0 -0.49999998660252726 0.12499999665063181 0 0.21650635287986825 1 I I -0.70710678118654746 0.70710678118654746 0.25 forward I I I I #
loop $-1 $-1 $177 $44 #
coedge $-1 $111 $111 $178 $179 reversed $70 $-1 #
face $-1 $180 $181 $27 $-1 $182 reversed single #
loop $-1 $-1 $183 $72 #
plane-surface $-1 0 -31.8361793272311 0 0 1 0 0 0 1 forward_v I I I I #
coedge $-1 $184 $185 $186 $187 forward $73 $-1 #
coedge $-1 $188 $75 $189 $190 forward $46 $-1 #
coedge $-1 $75 $188 $191 $192 forward $46 $-1 #
coedge $-1 $193 $194 $75 $119 reversed $195 $-1 #
edge $-1 $196 -31.8361793272311 $197 31.8361793272311 $118 $198 forward 7 unknown #
face $-1 $199 $200 $28 $-1 $201 reversed single #
loop $-1 $-1 $202 $76 #
plane-surface $-1 -76.3487655262917 0 0 1 0 0 0 0 -1 forward_v I I I I #
coedge $-1 $203 $204 $205 $206 forward $77 $-1 #
coedge $-1 $205 $79 $202 $207 reversed $49 $-1 #
coedge $-1 $79 $205 $208 $209 reversed $49 $-1 #
coedge $-1 $210 $211 $79 $127 reversed $200 $-1 #
edge $-1 $212 -76.3487655262917 $213 76.3487655262917 $126 $214 forward 7 unknown #
face $-1 $215 $216 $29 $-1 $217 reversed single #
loop $-1 $-1 $218 $80 #
plane-surface $-1 0 25.769575490892187 -0.097876804226927128 0 1 0 0 0 1 forward_v I I I I #
coedge $-1 $219 $220 $221 $222 reversed $81 $-1 #
coedge $-1 $223 $83 $224 $225 reversed $52 $-1 #
coedge $-1 $83 $223 $226 $227 forward $52 $-1 #
coedge $-1 $228 $229 $83 $135 forward $216 $-1 #
edge $-1 $230 -17.434740622700279 $231 -11.368136786361365 $134 $232 forward 7 unknown #
face $-1 $233 $234 $30 $-1 $235 forward single #
loop $-1 $-1 $236 $84 #
plane-surface $-1 42.567226699586371 -23.722961692945255 215.67602536030242 0 1 0 0.5877852598018023 0 0.80901698891910034 forward_v I I I I #
coedge $-1 $237 $238 $239 $240 reversed $85 $-1 #
coedge $-1 $141 $87 $241 $242 reversed $55 $-1 #
coedge $-1 $87 $140 $237 $243 reversed $55 $-1 #
coedge $-1 $239 $244 $87 $143 forward $234 $-1 #
edge $-1 $245 -55.065152176498515 $246 -48.837271500534925 $142 $247 forward 7 unknown #
loop $-1 $-1 $149 $88 #
plane-surface $-1 -47.186131261250139 -18.645289089157568 92.141128572760579 0.5877852598018023 0 0.80901698891910034 0.80901698891910034 0 -0.5877852598018023 forward_v I I I I #
loop $-1 $-1 $248 $57 #
coedge $-1 $147 $147 $148 $249 reversed $89 $-1 #
coedge $-1 $148 $148 $147 $249 forward $91 $-1 #
coedge $-1 $149 $149 $92 $150 forward $144 $-1 #
edge $-1 $250 0 $250 6.2831853071796004 $149 $251 forward 7 unknown #
loop $-1 $-1 $156 $93 #
plane-surface $-1 -47.186131261250139 -18.645289089157568 92.141128572760579 0.5877852598018023 0 0.80901698891910034 0.80901698891910034 0 -0.5877852598018023 forward_v I I I I #
loop $-1 $-1 $252 $60 #
coedge $-1 $154 $154 $155 $253 reversed $94 $-1 #
coedge $-1 $155 $155 $154 $253 forward $96 $-1 #
coedge $-1 $156 $156 $97 $157 forward $151 $-1 #
edge $-1 $254 0 $254 6.2831853071796004 $156 $255 forward 7 unknown #
loop $-1 $-1 $163 $98 #
plane-surface $-1 -47.186131261250139 -18.645289089157568 92.141128572760579 0.5877852598018023 0 0.80901698891910034 0.80901698891910034 0 -0.5877852598018023 forward_v I I I I #
loop $-1 $-1 $256 $63 #
coedge $-1 $161 $161 $162 $257 reversed $99 $-1 #
coedge $-1 $162 $162 $161 $257 forward $101 $-1 #
coedge $-1 $163 $163 $102 $164 forward $158 $-1 #
edge $-1 $258 0 $258 6.2831853071796004 $163 $259 forward 7 unknown #
face $-1 $260 $261 $34 $-1 $262 reversed single #
loop $-1 $-1 $263 $103 #
plane-surface $-1 -208.58870769411277 1.3277242209581104 79.347656260371267 0 -1 0 0.86602541151947299 0 -0.49999998660252726 forward_v I I I I #
coedge $-1 $264 $265 $266 $267 reversed $104 $-1 #
coedge $-1 $170 $106 $268 $269 reversed $67 $-1 #
coedge $-1 $106 $169 $264 $270 reversed $67 $-1 #
coedge $-1 $266 $271 $106 $172 forward $272 $-1 #
edge $-1 $273 27.945588320764685 $274 30.205162886308713 $171 $275 forward 7 unknown #
loop $-1 $-1 $178 $107 #
plane-surface $-1 -76.348765526291714 -4.3593846121815574 2.998892779840574 -0.86602541151947299 0 0.49999998660252726 0.49999998660252726 0 0.86602541151947299 forward_v I I I I #
loop $-1 $-1 $276 $69 #
coedge $-1 $176 $176 $177 $277 reversed $108 $-1 #
coedge $-1 $177 $177 $176 $277 forward $110 $-1 #
coedge $-1 $178 $178 $111 $179 forward $173 $-1 #
edge $-1 $278 0 $278 6.2831853071796004 $178 $279 forward 7 unknown #
face $-1 $280 $281 $27 $-1 $282 reversed single #
loop $-1 $-1 $283 $112 #
plane-surface $-1 -76.3487655262917 0 0 1 0 0 0 0 -1 forward_v I I I I #
coedge $-1 $284 $191 $285 $286 forward $113 $-1 #
coedge $-1 $287 $115 $284 $288 forward $73 $-1 #
coedge $-1 $115 $287 $289 $290 forward $73 $-1 #
coedge $-1 $194 $193 $115 $187 reversed $195 $-1 #
edge $-1 $291 -31.8361793272311 $292 31.8361793272311 $186 $293 forward 7 unknown #
coedge $-1 $117 $116 $294 $295 forward $46 $-1 #
coedge $-1 $296 $297 $116 $190 reversed $281 $-1 #
edge $-1 $197 -76.3487655262917 $298 76.3487655262917 $189 $299 forward 7 unknown #
coedge $-1 $183 $300 $117 $192 reversed $113 $-1 #
edge $-1 $301 -76.3487655262917 $196 76.3487655262917 $191 $302 forward 7 unknown #
coedge $-1 $186 $118 $300 $303 forward $195 $-1 #
coedge $-1 $118 $186 $296 $304 reversed $195 $-1 #
loop $-1 $-1 $193 $280 #
vertex $-1 $119 $305 #
vertex $-1 $119 $306 #
straight-curve $-1 76.3487655262917 0 6.9125908706763246 0 1 0 I I #
face $-1 $307 $308 $28 $-1 $309 reversed single #
loop $-1 $-1 $210 $120 #
plane-surface $-1 0 -35.892788144374023 3.9125908706763246 0 0 1 1 0 0 forward_v I I I I #
coedge $-1 $310 $311 $124 $207 forward $121 $-1 #
coedge $-1 $312 $123 $311 $313 forward $77 $-1 #
coedge $-1 $123 $312 $314 $315 forward $77 $-1 #
coedge $-1 $125 $124 $123 $206 reversed $49 $-1 #
edge $-1 $316 -76.3487655262917 $317 76.3487655262917 $123 $318 forward 7 unknown #
edge $-1 $317 -6.9125908706763246 $213 -3.9125908706763246 $202 $319 forward 7 unknown #
coedge $-1 $314 $320 $125 $209 forward $321 $-1 #
edge $-1 $212 3.9125908706763246 $316 6.9125908706763246 $208 $322 forward 7 unknown #
coedge $-1 $323 $126 $320 $324 forward $200 $-1 #
coedge $-1 $126 $323 $310 $325 forward $200 $-1 #
vertex $-1 $209 $326 #
vertex $-1 $207 $327 #
straight-curve $-1 0 -31.8361793272311 3.9125908706763246 -1 0 0 I I #
face $-1 $328 $329 $29 $-1 $330 reversed single #
loop $-1 $-1 $134 $128 #
plane-surface $-1 76.3487655262917 0 0 -1 0 0 0 0 1 forward_v I I I I #
coedge $-1 $331 $226 $332 $333 reversed $129 $-1 #
coedge $-1 $334 $131 $331 $335 forward $81 $-1 #
coedge $-1 $131 $334 $336 $337 reversed $81 $-1 #
coedge $-1 $229 $228 $131 $222 forward $216 $-1 #
edge $-1 $338 11.368136786361365 $339 17.434740622700279 $221 $340 forward 7 unknown #
coedge $-1 $133 $132 $341 $342 reversed $52 $-1 #
coedge $-1 $343 $344 $132 $225 forward $345 $-1 #
edge $-1 $346 -76.3487655262917 $230 76.3487655262917 $224 $347 forward 7 unknown #
coedge $-1 $218 $348 $133 $227 reversed $129 $-1 #
edge $-1 $349 -76.3487655262917 $231 76.3487655262917 $226 $350 forward 7 unknown #
coedge $-1 $221 $134 $348 $351 forward $216 $-1 #
coedge $-1 $134 $221 $343 $352 reversed $216 $-1 #
vertex $-1 $352 $353 #
vertex $-1 $135 $354 #
straight-curve $-1 76.3487655262917 14.401438704530822 1.8113923127774352 0 -1 0 I I #
face $-1 $-1 $355 $30 $-1 $356 reversed single #
loop $-1 $-1 $142 $136 #
plane-surface $-1 0 0 6.9125908706763246 0 0 1 1 0 0 forward_v I I I I #
coedge $-1 $357 $358 $359 $360 reversed $137 $-1 #
coedge $-1 $361 $139 $141 $243 forward $85 $-1 #
coedge $-1 $139 $361 $357 $362 forward $85 $-1 #
coedge $-1 $359 $142 $139 $240 forward $234 $-1 #
edge $-1 $246 4.244971940791098 $363 14.40031714836647 $239 $364 forward 7 unknown #
coedge $-1 $365 $366 $140 $242 forward $355 $-1 #
edge $-1 $367 -105.45024206822714 $245 -100.92542180947488 $241 $368 forward 7 unknown #
edge $-1 $246 144.99944712942073 $367 152.6975310525834 $141 $369 forward 7 unknown #
coedge $-1 $142 $359 $365 $370 forward $234 $-1 #
vertex $-1 $242 $371 #
vertex $-1 $143 $372 #
straight-curve $-1 21.283613349793185 -13.567616485369882 6.9125908706763255 -1 0 0 I I #
coedge $-1 $248 $248 $-1 $373 reversed $146 $-1 #
edge $-1 $374 0 $374 6.2831853071796004 $147 $375 forward 7 unknown #
vertex $-1 $150 $376 #
ellipse-curve $-1 73.234825188309884 -21.69189265143018 4.6501807413002281 0.5877852598018023 0 0.80901698891910034 0.80901698891910034 0 -0.5877852598018023 1 I I #
coedge $-1 $252 $252 $-1 $377 reversed $153 $-1 #
edge $-1 $378 0 $378 6.2831853071796004 $154 $379 forward 7 unknown #
vertex $-1 $157 $380 #
ellipse-curve $-1 73.234825188309884 -18.645289089157568 4.6501807413002281 0.5877852598018023 0 0.80901698891910034 0.80901698891910034 0 -0.5877852598018023 1 I I #
coedge $-1 $256 $256 $-1 $381 reversed $160 $-1 #
edge $-1 $382 0 $382 6.2831853071796004 $161 $383 forward 7 unknown #
vertex $-1 $164 $384 #
ellipse-curve $-1 73.234825188309884 -15.598685526884957 4.6501807413002281 0.5877852598018023 0 0.80901698891910034 0.80901698891910034 0 -0.5877852598018023 1 I I #
face $-1 $-1 $272 $34 $-1 $385 forward single #
loop $-1 $-1 $386 $165 #
plane-surface $-1 -76.3487655262917 0 0 1 0 0 0 0 -1 forward_v I I I I #
coedge $-1 $387 $388 $389 $390 reversed $166 $-1 #
coedge $-1 $391 $168 $170 $270 forward $104 $-1 #
coedge $-1 $168 $391 $387 $392 forward $104 $-1 #
coedge $-1 $389 $171 $168 $267 forward $272 $-1 #
edge $-1 $274 -7.8668011392304464 $393 3.5074165270488891 $266 $394 forward 7 unknown #
coedge $-1 $395 $396 $169 $269 forward $261 $-1 #
edge $-1 $397 -36.674935350345038 $273 -32.761237259509308 $268 $398 forward 7 unknown #
edge $-1 $274 -4.5191492521784404 $397 -2.8258016906358157e-014 $170 $399 forward 7 unknown #
coedge $-1 $171 $389 $395 $400 forward $272 $-1 #
loop $-1 $-1 $389 $260 #
vertex $-1 $269 $401 #
vertex $-1 $172 $402 #
straight-curve $-1 -104.29435384705639 -10.046493445321225 6.9125908706763255 1 0 0 I I #
coedge $-1 $276 $276 $-1 $403 reversed $175 $-1 #
edge $-1 $404 0 $404 6.2831853071796004 $176 $405 forward 7 unknown #
vertex $-1 $179 $406 #
ellipse-curve $-1 -75.218978243519686 -4.3593846121815574 4.9557418252584542 -0.86602541151947299 0 0.49999998660252726 0.24999999330126363 0 0.43301270575973649 1 I I #
face $-1 $-1 $195 $27 $-1 $407 reversed single #
loop $-1 $-1 $296 $180 #
plane-surface $-1 0 31.8361793272311 0 0 -1 0 0 0 -1 forward_v I I I I #
coedge $-1 $408 $294 $297 $409 forward $181 $-1 #
coedge $-1 $300 $183 $184 $288 reversed $113 $-1 #
coedge $-1 $294 $408 $183 $286 reversed $181 $-1 #
edge $-1 $301 -6.9125908706763246 $410 6.9125908706763246 $285 $411 forward 7 unknown #
coedge $-1 $185 $184 $408 $412 forward $73 $-1 #
edge $-1 $292 -76.3487655262917 $410 76.3487655262917 $284 $413 forward 7 unknown #
coedge $-1 $297 $296 $185 $290 reversed $281 $-1 #
edge $-1 $414 -76.3487655262917 $291 76.3487655262917 $289 $415 forward 7 unknown #
vertex $-1 $187 $416 #
vertex $-1 $303 $417 #
straight-curve $-1 76.3487655262917 0 -6.9125908706763246 0 -1 0 I I #
coedge $-1 $283 $285 $188 $295 reversed $181 $-1 #
edge $-1 $298 -31.8361793272311 $301 31.8361793272311 $294 $418 forward 7 unknown #
coedge $-1 $289 $189 $194 $304 forward $281 $-1 #
coedge $-1 $189 $289 $283 $409 reversed $281 $-1 #
vertex $-1 $190 $419 #
straight-curve $-1 0 31.8361793272311 6.9125908706763246 -1 0 0 I I #
coedge $-1 $191 $284 $193 $303 reversed $113 $-1 #
vertex $-1 $295 $420 #
straight-curve $-1 0 -31.8361793272311 6.9125908706763246 1 0 0 I I #
edge $-1 $196 -6.9125908706763246 $292 6.9125908706763246 $193 $421 forward 7 unknown #
edge $-1 $197 -6.9125908706763246 $291 6.9125908706763246 $194 $422 forward 7 unknown #
point $-1 76.3487655262917 -31.8361793272311 6.9125908706763246 #
point $-1 76.3487655262917 31.8361793272311 6.9125908706763246 #
face $-1 $-1 $321 $28 $-1 $423 reversed single #
loop $-1 $-1 $424 $199 #
plane-surface $-1 0 -39.949396961516946 5.4125908706763246 0 1 0 0 0 1 forward_v I I I I #
coedge $-1 $425 $202 $211 $325 reversed $121 $-1 #
coedge $-1 $202 $425 $203 $313 reversed $121 $-1 #
coedge $-1 $204 $203 $426 $427 forward $77 $-1 #
edge $-1 $317 31.8361793272311 $428 39.949396961516946 $311 $429 forward 7 unknown #
coedge $-1 $430 $208 $204 $315 reversed $321 $-1 #
edge $-1 $431 -39.949396961516946 $316 -31.8361793272311 $314 $432 forward 7 unknown #
vertex $-1 $209 $433 #
vertex $-1 $313 $434 #
straight-curve $-1 0 -31.8361793272311 6.9125908706763246 -1 0 0 I I #
straight-curve $-1 -76.3487655262917 -31.8361793272311 0 0 0 -1 I I #
coedge $-1 $208 $430 $210 $324 reversed $321 $-1 #
loop $-1 $-1 $208 $307 #
straight-curve $-1 76.3487655262917 -31.8361793272311 0 0 0 1 I I #
coedge $-1 $211 $210 $435 $436 forward $200 $-1 #
edge $-1 $212 -4.0566088171429229 $437 4.0566088171429229 $320 $438 forward 7 unknown #
edge $-1 $439 -4.0566088171429229 $213 4.0566088171429229 $310 $440 forward 7 unknown #
point $-1 76.3487655262917 -31.8361793272311 3.9125908706763246 #
point $-1 -76.3487655262917 -31.8361793272311 3.9125908706763246 #
face $-1 $-1 $345 $29 $-1 $441 reversed single #
loop $-1 $-1 $341 $215 #
plane-surface $-1 -76.3487655262917 0 0 1 0 0 0 0 -1 forward_v I I I I #
coedge $-1 $348 $218 $219 $335 reversed $129 $-1 #
coedge $-1 $341 $442 $218 $333 forward $329 $-1 #
edge $-1 $443 -1.9582075191178259 $349 1.8603307148908987 $332 $444 forward 7 unknown #
coedge $-1 $220 $219 $442 $445 reversed $81 $-1 #
edge $-1 $338 -76.3487655262917 $443 76.3487655262917 $331 $446 forward 7 unknown #
coedge $-1 $344 $343 $220 $337 forward $345 $-1 #
edge $-1 $339 -76.3487655262917 $447 76.3487655262917 $336 $448 forward 7 unknown #
vertex $-1 $222 $449 #
vertex $-1 $337 $450 #
straight-curve $-1 76.3487655262917 14.401438704530822 -2.0071459212312894 0 1 0 I I #
coedge $-1 $451 $332 $223 $342 forward $329 $-1 #
edge $-1 $349 11.368136786361365 $346 17.434740622700279 $341 $452 forward 7 unknown #
coedge $-1 $336 $224 $229 $352 forward $345 $-1 #
coedge $-1 $224 $336 $451 $453 reversed $345 $-1 #
loop $-1 $-1 $224 $328 #
vertex $-1 $453 $454 #
straight-curve $-1 0 31.8361793272311 1.8113923127774352 1 0 0 I I #
coedge $-1 $226 $331 $228 $351 reversed $129 $-1 #
vertex $-1 $342 $455 #
straight-curve $-1 0 25.769575490892187 1.8113923127774352 1 0 0 I I #
edge $-1 $231 -1.8603307148908987 $338 1.9582075191178259 $228 $456 forward 7 unknown #
edge $-1 $230 -1.8113923127774352 $339 2.0071459212312894 $229 $457 forward 7 unknown #
point $-1 76.3487655262917 31.8361793272311 1.8113923127774352 #
point $-1 76.3487655262917 25.769575490892187 1.8113923127774352 #
loop $-1 $-1 $241 $233 #
plane-surface $-1 76.3487655262917 0 0 -1 0 0 0 0 1 forward_v I I I I #
coedge $-1 $358 $236 $238 $362 reversed $137 $-1 #
coedge $-1 $236 $357 $458 $459 reversed $137 $-1 #
coedge $-1 $244 $239 $236 $360 forward $234 $-1 #
edge $-1 $363 48.837271500534925 $460 55.065152176498515 $359 $461 forward 7 unknown #
coedge $-1 $238 $237 $366 $462 reversed $85 $-1 #
edge $-1 $463 -152.6975310525834 $363 -144.99944712942073 $357 $464 forward 7 unknown #
vertex $-1 $240 $465 #
straight-curve $-1 70.120884850328082 -9.3226445445787842 6.9125908706763326 0 -1 0 I I #
coedge $-1 $458 $241 $244 $370 reversed $355 $-1 #
coedge $-1 $241 $458 $361 $462 forward $355 $-1 #
vertex $-1 $242 $466 #
straight-curve $-1 76.3487655262917 -13.567616485369882 107.83801268015121 0 0 1 I I #
straight-curve $-1 -47.186131261250139 -13.567616485369882 92.141128572760579 0.80901698891910034 0 -0.5877852598018023 I I #
edge $-1 $460 -23.722961692945255 $245 -13.567616485369882 $365 $467 forward 7 unknown #
point $-1 76.3487655262917 -13.567616485369882 6.9125908706763246 #
point $-1 70.12088485032811 -13.567616485369882 6.9125908706763255 #
edge $-1 $468 1 $468 0 $248 $-1 forward 7 unknown #
vertex $-1 $249 $469 #
ellipse-curve $-1 71.691554779933483 -21.69189265143018 2.5260512942745827 0.5877852598018023 0 0.80901698891910034 0.80901698891910034 0 -0.5877852598018023 1 I I #
point $-1 74.043842177228967 -21.69189265143018 4.0623954814983865 #
edge $-1 $470 1 $470 0 $252 $-1 forward 7 unknown #
vertex $-1 $253 $471 #
ellipse-curve $-1 71.691554779933483 -18.645289089157568 2.5260512942745827 0.5877852598018023 0 0.80901698891910034 0.80901698891910034 0 -0.5877852598018023 1 I I #
point $-1 74.043842177228967 -18.645289089157568 4.0623954814983865 #
edge $-1 $472 1 $472 0 $256 $-1 forward 7 unknown #
vertex $-1 $257 $473 #
ellipse-curve $-1 71.691554779933483 -15.598685526884957 2.5260512942745827 0.5877852598018023 0 0.80901698891910034 0.80901698891910034 0 -0.5877852598018023 1 I I #
point $-1 74.043842177228967 -15.598685526884957 4.0623954814983865 #
plane-surface $-1 0 0 6.9125908706763246 0 0 1 1 0 0 forward_v I I I I #
coedge $-1 $396 $395 $388 $474 forward $261 $-1 #
coedge $-1 $388 $263 $265 $392 reversed $166 $-1 #
coedge $-1 $263 $387 $386 $474 reversed $166 $-1 #
coedge $-1 $271 $266 $263 $390 forward $272 $-1 #
edge $-1 $393 -30.205162886308713 $475 -27.945588320764685 $389 $476 forward 7 unknown #
coedge $-1 $265 $264 $396 $477 reversed $104 $-1 #
edge $-1 $478 2.8258016906358157e-014 $393 4.5191492521784404 $387 $479 forward 7 unknown #
vertex $-1 $267 $480 #
straight-curve $-1 -74.089190960747672 -2.1796923060907787 6.9125908706763273 0 1 0 I I #
coedge $-1 $386 $268 $271 $400 reversed $261 $-1 #
coedge $-1 $268 $386 $391 $477 forward $261 $-1 #
vertex $-1 $269 $481 #
straight-curve $-1 -76.3487655262917 -10.046493445321225 39.673828130185633 0 0 1 I I #
straight-curve $-1 -76.348765526291714 -10.046493445321225 2.998892779840574 -0.49999998660252726 0 -0.86602541151947299 I I #
edge $-1 $475 -1.3277242209581104 $273 10.046493445321225 $395 $482 forward 7 unknown #
point $-1 -76.3487655262917 -10.046493445321225 6.9125908706763246 #
point $-1 -74.089190960747672 -10.046493445321225 6.9125908706763255 #
edge $-1 $483 1 $483 0 $276 $-1 forward 7 unknown #
vertex $-1 $277 $484 #
ellipse-curve $-1 -73.655655293863717 -4.3593846121815574 4.0531569316905447 -0.86602541151947299 0 0.49999998660252726 0.24999999330126363 0 0.43301270575973649 1 I I #
point $-1 -74.968978250218427 -4.3593846121815574 5.3887545310181846 #
plane-surface $-1 76.3487655262917 0 0 -1 0 0 0 0 1 forward_v I I I I #
coedge $-1 $285 $283 $287 $412 reversed $181 $-1 #
edge $-1 $298 -6.9125908706763246 $414 6.9125908706763246 $297 $485 forward 7 unknown #
vertex $-1 $412 $486 #
straight-curve $-1 -76.3487655262917 -31.8361793272311 0 0 0 -1 I I #
edge $-1 $410 -31.8361793272311 $414 31.8361793272311 $408 $487 forward 7 unknown #
straight-curve $-1 0 -31.8361793272311 -6.9125908706763246 -1 0 0 I I #
vertex $-1 $290 $488 #
straight-curve $-1 0 31.8361793272311 -6.9125908706763246 1 0 0 I I #
point $-1 76.3487655262917 31.8361793272311 -6.9125908706763246 #
point $-1 76.3487655262917 -31.8361793272311 -6.9125908706763246 #
straight-curve $-1 -76.3487655262917 0 6.9125908706763246 0 -1 0 I I #
point $-1 -76.3487655262917 31.8361793272311 6.9125908706763246 #
point $-1 -76.3487655262917 -31.8361793272311 6.9125908706763246 #
straight-curve $-1 76.3487655262917 -31.8361793272311 0 0 0 -1 I I #
straight-curve $-1 76.3487655262917 31.8361793272311 0 0 0 -1 I I #
plane-surface $-1 76.3487655262917 0 0 -1 0 0 0 0 1 forward_v I I I I #
coedge $-1 $435 $426 $425 $489 forward $308 $-1 #
coedge $-1 $311 $310 $424 $489 reversed $121 $-1 #
coedge $-1 $424 $490 $312 $427 reversed $308 $-1 #
edge $-1 $428 -76.3487655262917 $431 76.3487655262917 $426 $491 forward 7 unknown #
vertex $-1 $313 $492 #
straight-curve $-1 -76.3487655262917 0 6.9125908706763246 0 -1 0 I I #
coedge $-1 $320 $314 $490 $493 forward $321 $-1 #
vertex $-1 $315 $494 #
straight-curve $-1 76.3487655262917 0 6.9125908706763246 0 1 0 I I #
point $-1 76.3487655262917 -31.8361793272311 6.9125908706763246 #
point $-1 -76.3487655262917 -31.8361793272311 6.9125908706763246 #
coedge $-1 $490 $424 $323 $436 reversed $308 $-1 #
edge $-1 $437 -76.3487655262917 $439 76.3487655262917 $435 $495 forward 7 unknown #
vertex $-1 $493 $496 #
straight-curve $-1 76.3487655262917 -35.892788144374023 3.9125908706763246 0 -1 0 I I #
vertex $-1 $325 $497 #
straight-curve $-1 -76.3487655262917 -35.892788144374023 3.9125908706763246 0 1 0 I I #
plane-surface $-1 0 31.8361793272311 0 0 -1 0 0 0 -1 forward_v I I I I #
coedge $-1 $332 $451 $334 $445 forward $329 $-1 #
vertex $-1 $445 $498 #
straight-curve $-1 -76.3487655262917 25.769575490892187 -0.048938402113463564 0 0 1 I I #
edge $-1 $447 -17.434740622700279 $443 -11.368136786361365 $442 $499 forward 7 unknown #
straight-curve $-1 0 25.769575490892187 -2.0071459212312894 -1 0 0 I I #
vertex $-1 $337 $500 #
straight-curve $-1 0 31.8361793272311 -2.0071459212312894 -1 0 0 I I #
point $-1 76.3487655262917 25.769575490892187 -2.0071459212312894 #
point $-1 76.3487655262917 31.8361793272311 -2.0071459212312894 #
coedge $-1 $442 $341 $344 $453 forward $329 $-1 #
straight-curve $-1 -76.3487655262917 14.401438704530822 1.8113923127774352 0 1 0 I I #
edge $-1 $346 -1.8113923127774352 $447 2.0071459212312894 $344 $501 forward 7 unknown #
point $-1 -76.3487655262917 31.8361793272311 1.8113923127774352 #
point $-1 -76.3487655262917 25.769575490892187 1.8113923127774352 #
straight-curve $-1 76.3487655262917 25.769575490892187 -0.048938402113463564 0 0 -1 I I #
straight-curve $-1 76.3487655262917 31.8361793272311 0 0 0 -1 I I #
coedge $-1 $366 $365 $358 $459 forward $355 $-1 #
edge $-1 $460 100.92542180947488 $463 105.45024206822714 $458 $502 forward 7 unknown #
vertex $-1 $370 $503 #
straight-curve $-1 21.283613349793185 -23.722961692945255 6.9125908706763255 1 0 0 I I #
edge $-1 $463 -14.40031714836647 $367 -4.244971940791098 $366 $504 forward 7 unknown #
vertex $-1 $462 $505 #
straight-curve $-1 -47.186131261250139 -23.722961692945255 92.141128572760579 -0.80901698891910034 0 0.5877852598018023 I I #
point $-1 70.12088485032811 -23.722961692945255 6.9125908706763255 #
point $-1 76.3487655262917 -13.567616485369882 2.3877706119240685 #
straight-curve $-1 76.3487655262917 0 6.9125908706763246 0 1 0 I I #
vertex $-1 $373 $506 #
point $-1 72.500571768852595 -21.69189265143018 1.9382660344727807 #
vertex $-1 $377 $507 #
point $-1 72.500571768852595 -18.645289089157568 1.9382660344727807 #
vertex $-1 $381 $508 #
point $-1 72.500571768852595 -15.598685526884957 1.9382660344727807 #
edge $-1 $475 32.761237259509308 $478 36.674935350345038 $386 $509 forward 7 unknown #
vertex $-1 $400 $510 #
straight-curve $-1 -104.29435384705639 1.3277242209581104 6.9125908706763255 -1 0 0 I I #
edge $-1 $478 -3.5074165270488891 $397 7.8668011392304464 $396 $511 forward 7 unknown #
vertex $-1 $477 $512 #
straight-curve $-1 -76.348765526291714 1.3277242209581104 2.998892779840574 0.49999998660252726 0 0.86602541151947299 I I #
point $-1 -74.089190960747672 1.3277242209581104 6.9125908706763255 #
point $-1 -76.3487655262917 -10.046493445321225 2.9988927798405984 #
straight-curve $-1 -76.3487655262917 0 6.9125908706763246 0 -1 0 I I #
vertex $-1 $403 $513 #
point $-1 -73.405655300562458 -4.3593846121815574 4.4861696374502813 #
straight-curve $-1 -76.3487655262917 31.8361793272311 0 0 0 -1 I I #
point $-1 -76.3487655262917 -31.8361793272311 -6.9125908706763246 #
straight-curve $-1 -76.3487655262917 0 -6.9125908706763246 0 1 0 I I #
point $-1 -76.3487655262917 31.8361793272311 -6.9125908706763246 #
edge $-1 $428 -1.5 $439 1.5 $425 $514 forward 7 unknown #
coedge $-1 $426 $435 $430 $493 reversed $308 $-1 #
straight-curve $-1 0 -39.949396961516946 6.9125908706763246 1 0 0 I I #
point $-1 -76.3487655262917 -39.949396961516946 6.9125908706763246 #
edge $-1 $431 -1.5 $437 1.5 $430 $515 forward 7 unknown #
point $-1 76.3487655262917 -39.949396961516946 6.9125908706763246 #
straight-curve $-1 0 -39.949396961516946 3.9125908706763246 -1 0 0 I I #
point $-1 76.3487655262917 -39.949396961516946 3.9125908706763246 #
point $-1 -76.3487655262917 -39.949396961516946 3.9125908706763246 #
point $-1 -76.3487655262917 25.769575490892187 -2.0071459212312894 #
straight-curve $-1 -76.3487655262917 14.401438704530822 -2.0071459212312894 0 -1 0 I I #
point $-1 -76.3487655262917 31.8361793272311 -2.0071459212312894 #
straight-curve $-1 -76.3487655262917 31.8361793272311 0 0 0 -1 I I #
straight-curve $-1 76.3487655262917 -23.722961692945255 107.83801268015121 0 0 -1 I I #
point $-1 76.3487655262917 -23.722961692945255 6.9125908706763246 #
straight-curve $-1 76.3487655262917 -9.3226445445787842 2.3877706119240756 0 1 0 I I #
point $-1 76.3487655262917 -23.722961692945255 2.3877706119240685 #
point $-1 71.103769520131692 -21.69189265143018 1.7170343053554826 #
point $-1 71.103769520131692 -18.645289089157568 1.7170343053554826 #
point $-1 71.103769520131692 -15.598685526884957 1.7170343053554826 #
straight-curve $-1 -76.3487655262917 1.3277242209581104 39.673828130185633 0 0 -1 I I #
point $-1 -76.3487655262917 1.3277242209581104 6.9125908706763246 #
straight-curve $-1 -76.3487655262917 -2.1796923060907787 2.998892779840606 0 -1 0 I I #
point $-1 -76.3487655262917 1.3277242209581104 2.9988927798405984 #
point $-1 -73.222642588103994 -4.3593846121815574 3.8031569383892809 #
straight-curve $-1 -76.3487655262917 -39.949396961516946 5.4125908706763246 0 0 -1 I I #
straight-curve $-1 76.3487655262917 -39.949396961516946 5.4125908706763246 0 0 -1 I I #
End-of-ACIS-data 