500 0 17 0           
7 Unknown 11 ACIS 5.0 NT 24 Thu Mar 25 21:38:21 1999 
-1 9.9999999999999995e-007 1e-010 
body $-1 $17 $-1 $18 #
body $-1 $19 $-1 $20 #
body $-1 $21 $-1 $22 #
body $-1 $23 $-1 $24 #
body $-1 $25 $-1 $26 #
body $-1 $27 $-1 $28 #
body $-1 $29 $-1 $30 #
body $-1 $31 $-1 $32 #
body $-1 $33 $-1 $34 #
body $-1 $35 $-1 $36 #
body $-1 $37 $-1 $38 #
body $-1 $39 $-1 $40 #
body $-1 $41 $-1 $42 #
body $-1 $43 $-1 $44 #
body $-1 $45 $-1 $46 #
body $-1 $47 $-1 $48 #
body $-1 $49 $-1 $50 #
lump $-1 $-1 $51 $0 #
transform $-1 1 0 0 0 1 0 0 0 1 48.232673116245003 27.049275221537471 8.145656399686299 1 rotate no_reflect no_shear #
lump $-1 $-1 $52 $1 #
transform $-1 1 0 0 0 1 0 0 0 1 48.232673116245003 27.049275221537471 8.145656399686299 1 rotate no_reflect no_shear #
lump $-1 $-1 $53 $2 #
transform $-1 1 0 0 0 1 0 0 0 1 48.232673116245003 27.049275221537471 8.145656399686299 1 rotate no_reflect no_shear #
lump $-1 $-1 $54 $3 #
transform $-1 1 0 0 0 1 0 0 0 1 48.232673116245003 27.049275221537471 8.145656399686299 1 rotate no_reflect no_shear #
lump $-1 $-1 $55 $4 #
transform $-1 1 0 0 0 1 0 0 0 1 48.232673116245003 27.049275221537471 8.145656399686299 1 rotate no_reflect no_shear #
lump $-1 $-1 $56 $5 #
transform $-1 1 0 0 0 1 0 0 0 1 48.232673116245003 27.049275221537471 8.145656399686299 1 rotate no_reflect no_shear #
lump $-1 $-1 $57 $6 #
transform $-1 1 0 0 0 1 0 0 0 1 48.232673116245003 27.049275221537471 8.145656399686299 1 rotate no_reflect no_shear #
lump $-1 $-1 $58 $7 #
transform $-1 1 0 0 0 1 0 0 0 1 48.232673116245003 27.049275221537471 8.145656399686299 1 rotate no_reflect no_shear #
lump $-1 $-1 $59 $8 #
transform $-1 1 0 0 0 1 0 0 0 1 48.232673116245003 27.049275221537471 8.145656399686299 1 rotate no_reflect no_shear #
lump $-1 $-1 $60 $9 #
transform $-1 1 0 0 0 1 0 0 0 1 48.232673116245003 27.049275221537471 8.145656399686299 1 rotate no_reflect no_shear #
lump $-1 $-1 $61 $10 #
transform $-1 1 0 0 0 1 0 0 0 1 48.232673116245003 27.049275221537471 8.145656399686299 1 rotate no_reflect no_shear #
lump $-1 $-1 $62 $11 #
transform $-1 1 0 0 0 1 0 0 0 1 48.232673116245003 27.049275221537471 8.145656399686299 1 rotate no_reflect no_shear #
lump $-1 $-1 $63 $12 #
transform $-1 1 0 0 0 1 0 0 0 1 48.232673116245003 27.049275221537471 8.145656399686299 1 rotate no_reflect no_shear #
lump $-1 $-1 $64 $13 #
transform $-1 1 0 0 0 1 0 0 0 1 48.232673116245003 27.049275221537471 8.145656399686299 1 rotate no_reflect no_shear #
lump $-1 $-1 $65 $14 #
transform $-1 1 0 0 0 1 0 0 0 1 48.232673116245003 27.049275221537471 8.145656399686299 1 rotate no_reflect no_shear #
lump $-1 $-1 $66 $15 #
transform $-1 1 0 0 0 1 0 0 0 1 48.232673116245003 27.049275221537471 8.145656399686299 1 rotate no_reflect no_shear #
lump $-1 $-1 $67 $16 #
transform $-1 1 0 0 0 1 0 0 0 1 48.232673116245003 27.049275221537471 8.145656399686299 1 rotate no_reflect no_shear #
shell $-1 $-1 $-1 $68 $-1 $17 #
shell $-1 $-1 $-1 $69 $-1 $19 #
shell $-1 $-1 $-1 $70 $-1 $21 #
shell $-1 $-1 $-1 $71 $-1 $23 #
shell $-1 $-1 $-1 $72 $-1 $25 #
shell $-1 $-1 $-1 $73 $-1 $27 #
shell $-1 $-1 $-1 $74 $-1 $29 #
shell $-1 $-1 $-1 $75 $-1 $31 #
shell $-1 $-1 $-1 $76 $-1 $33 #
shell $-1 $-1 $-1 $77 $-1 $35 #
shell $-1 $-1 $-1 $78 $-1 $37 #
shell $-1 $-1 $-1 $79 $-1 $39 #
shell $-1 $-1 $-1 $80 $-1 $41 #
shell $-1 $-1 $-1 $81 $-1 $43 #
shell $-1 $-1 $-1 $82 $-1 $45 #
shell $-1 $-1 $-1 $83 $-1 $47 #
shell $-1 $-1 $-1 $84 $-1 $49 #
face $-1 $85 $86 $51 $-1 $87 forward single #
face $-1 $88 $89 $52 $-1 $90 forward single #
face $-1 $91 $92 $53 $-1 $93 forward single #
face $-1 $94 $95 $54 $-1 $96 reversed single #
face $-1 $97 $98 $55 $-1 $99 forward single #
face $-1 $100 $101 $56 $-1 $102 reversed single #
face $-1 $103 $104 $57 $-1 $105 forward single #
face $-1 $106 $107 $58 $-1 $108 forward single #
face $-1 $109 $110 $59 $-1 $111 reversed single #
face $-1 $112 $113 $60 $-1 $114 forward single #
face $-1 $115 $116 $61 $-1 $117 forward single #
face $-1 $118 $119 $62 $-1 $120 reversed single #
face $-1 $121 $122 $63 $-1 $123 forward single #
face $-1 $124 $125 $64 $-1 $126 forward single #
face $-1 $127 $128 $65 $-1 $129 reversed single #
face $-1 $130 $131 $66 $-1 $132 forward single #
face $-1 $133 $134 $67 $-1 $135 forward single #
face $-1 $136 $137 $51 $-1 $138 reversed single #
loop $-1 $-1 $139 $68 #
plane-surface $-1 0 0 8.145656399686299 0 0 1 1 0 0 forward_v I I I I #
face $-1 $140 $141 $52 $-1 $142 reversed single #
loop $-1 $-1 $143 $69 #
plane-surface $-1 0 -23.712141467903116 -5.145656399686299 0 0 1 1 0 0 forward_v I I I I #
face $-1 $144 $145 $53 $-1 $146 reversed single #
loop $-1 $-1 $147 $70 #
plane-surface $-1 0 23.712141467903116 -5.145656399686299 0 0 1 1 0 0 forward_v I I I I #
face $-1 $148 $149 $54 $-1 $150 reversed single #
loop $-1 $-1 $151 $71 #
plane-surface $-1 71.922211067437104 11.33887158389933 137.60244387864856 0 -1 0 -0.81915205242281985 0 -0.57357642473473569 forward_v I I I I #
face $-1 $152 $153 $55 $-1 $154 forward single #
loop $-1 $155 $156 $72 #
cone-surface $-1 46.109952826588383 7.2608422017535474 5.4122445483739705 -0.81915205242281985 0 -0.57357642473473569 0.28678821236736785 0 -0.40957602621140993 1 I I 0 1 0.5 forward I I I I #
face $-1 $157 $158 $56 $-1 $159 reversed single #
loop $-1 $-1 $160 $73 #
plane-surface $-1 -97.915999996264389 -20.375007714268765 87.504701593587725 0 1 0 -0.51503808176128008 0 0.85716729658548041 forward_v I I I I #
face $-1 $161 $162 $57 $-1 $163 forward single #
loop $-1 $164 $165 $74 #
cone-surface $-1 -45.205880566044634 -18.616247987176006 6.0531253262013696 0.51503808176128008 0 -0.85716729658548041 0.4285836482927402 0 0.25751904088064004 1 I I 0 1 0.5 forward I I I I #
face $-1 $166 $167 $58 $-1 $168 forward single #
loop $-1 $169 $170 $75 #
cone-surface $-1 -45.205880566044634 -15.978108396536868 6.0531253262013696 0.51503808176128008 0 -0.85716729658548041 0.4285836482927402 0 0.25751904088064004 1 I I 0 1 0.5 forward I I I I #
face $-1 $171 $172 $59 $-1 $173 reversed single #
loop $-1 $-1 $174 $76 #
plane-surface $-1 -97.915999996264389 -8.8435555863644755 87.504701593587725 0 1 0 -0.51503808176128008 0 0.85716729658548041 forward_v I I I I #
face $-1 $175 $176 $60 $-1 $177 forward single #
loop $-1 $178 $179 $77 #
cone-surface $-1 -45.205880566044634 -7.0847958592717148 6.0531253262013696 0.51503808176128008 0 -0.85716729658548041 0.4285836482927402 0 0.25751904088064004 1 I I 0 1 0.5 forward I I I I #
face $-1 $180 $181 $61 $-1 $182 forward single #
loop $-1 $183 $184 $78 #
cone-surface $-1 -45.205880566044634 -4.4466562686325801 6.0531253262013696 0.51503808176128008 0 -0.85716729658548041 0.4285836482927402 0 0.25751904088064004 1 I I 0 1 0.5 forward I I I I #
face $-1 $185 $186 $62 $-1 $187 reversed single #
loop $-1 $-1 $188 $79 #
plane-surface $-1 -97.915999996264389 2.6878965415398164 87.504701593587725 0 1 0 -0.51503808176128008 0 0.85716729658548041 forward_v I I I I #
face $-1 $189 $190 $63 $-1 $191 forward single #
loop $-1 $192 $193 $80 #
cone-surface $-1 -45.205880566044634 4.446656268632573 6.0531253262013696 0.51503808176128008 0 -0.85716729658548041 0.4285836482927402 0 0.25751904088064004 1 I I 0 1 0.5 forward I I I I #
face $-1 $194 $195 $64 $-1 $196 forward single #
loop $-1 $197 $198 $81 #
cone-surface $-1 -45.205880566044634 7.0847958592717077 6.0531253262013696 0.51503808176128008 0 -0.85716729658548041 0.4285836482927402 0 0.25751904088064004 1 I I 0 1 0.5 forward I I I I #
face $-1 $199 $200 $65 $-1 $201 reversed single #
loop $-1 $-1 $202 $82 #
plane-surface $-1 -97.915999996264389 14.219348669444104 87.504701593587725 0 1 0 -0.51503808176128008 0 0.85716729658548041 forward_v I I I I #
face $-1 $203 $204 $66 $-1 $205 forward single #
loop $-1 $206 $207 $83 #
cone-surface $-1 -45.205880566044634 15.978108396536861 6.0531253262013696 0.51503808176128008 0 -0.85716729658548041 0.4285836482927402 0 0.25751904088064004 1 I I 0 1 0.5 forward I I I I #
face $-1 $208 $209 $67 $-1 $210 forward single #
loop $-1 $211 $212 $84 #
cone-surface $-1 -45.205880566044634 18.616247987175996 6.0531253262013696 0.51503808176128008 0 -0.85716729658548041 0.4285836482927402 0 0.25751904088064004 1 I I 0 1 0.5 forward I I I I #
face $-1 $213 $214 $51 $-1 $215 reversed single #
loop $-1 $-1 $216 $85 #
plane-surface $-1 0 0 -8.145656399686299 0 0 1 1 0 0 forward_v I I I I #
coedge $-1 $217 $218 $219 $220 forward $86 $-1 #
face $-1 $221 $222 $52 $-1 $223 reversed single #
loop $-1 $-1 $224 $88 #
plane-surface $-1 0 -20.375007714268762 -6.645656399686299 0 -1 0 0 0 -1 forward_v I I I I #
coedge $-1 $225 $226 $227 $228 reversed $89 $-1 #
face $-1 $229 $230 $53 $-1 $231 reversed single #
loop $-1 $-1 $232 $91 #
plane-surface $-1 0 20.375007714268762 -6.645656399686299 0 1 0 0 0 1 forward_v I I I I #
coedge $-1 $233 $234 $235 $236 reversed $92 $-1 #
face $-1 $237 $238 $54 $-1 $239 reversed single #
loop $-1 $-1 $240 $94 #
plane-surface $-1 -7.0975752865850126 7.2608422017535474 82.272195475818535 0.81915205242281985 0 0.57357642473473569 0.57357642473473569 0 -0.81915205242281985 forward_v I I I I #
coedge $-1 $241 $242 $243 $244 reversed $95 $-1 #
face $-1 $-1 $245 $55 $-1 $246 forward single #
loop $-1 $247 $248 $97 #
cone-surface $-1 45.495588787271267 7.2608422017535474 4.9820622298229189 -0.81915205242281985 0 -0.57357642473473569 0.14339410618368392 0 -0.20478801310570496 1 I I -0.70710678118654746 0.70710678118654746 0.25 forward I I I I #
loop $-1 $-1 $249 $72 #
coedge $-1 $156 $156 $250 $251 reversed $98 $-1 #
face $-1 $252 $253 $56 $-1 $254 reversed single #
loop $-1 $-1 $255 $100 #
plane-surface $-1 -48.23267311624501 -17.297178191856439 4.8177615493019061 -0.51503808176128008 0 0.85716729658548041 0.85716729658548041 0 0.51503808176128008 forward_v I I I I #
coedge $-1 $256 $257 $258 $259 reversed $101 $-1 #
face $-1 $-1 $260 $57 $-1 $261 forward single #
loop $-1 $262 $263 $103 #
cone-surface $-1 -44.819602004723677 -18.616247987176006 5.4102498537622594 0.51503808176128008 0 -0.85716729658548041 0.2142918241463701 0 0.12875952044032002 1 I I -0.70710678118654746 0.70710678118654746 0.25 forward I I I I #
loop $-1 $-1 $264 $74 #
coedge $-1 $165 $165 $265 $266 reversed $104 $-1 #
face $-1 $-1 $267 $58 $-1 $268 forward single #
loop $-1 $269 $270 $106 #
cone-surface $-1 -44.819602004723677 -15.978108396536868 5.4102498537622594 0.51503808176128008 0 -0.85716729658548041 0.2142918241463701 0 0.12875952044032002 1 I I -0.70710678118654746 0.70710678118654746 0.25 forward I I I I #
loop $-1 $-1 $271 $75 #
coedge $-1 $170 $170 $272 $273 reversed $107 $-1 #
face $-1 $274 $275 $59 $-1 $276 reversed single #
loop $-1 $-1 $277 $109 #
plane-surface $-1 -48.23267311624501 -5.7657260639521475 4.8177615493019061 -0.51503808176128008 0 0.85716729658548041 0.85716729658548041 0 0.51503808176128008 forward_v I I I I #
coedge $-1 $278 $279 $280 $281 reversed $110 $-1 #
face $-1 $-1 $282 $60 $-1 $283 forward single #
loop $-1 $284 $285 $112 #
cone-surface $-1 -44.819602004723677 -7.0847958592717148 5.4102498537622594 0.51503808176128008 0 -0.85716729658548041 0.2142918241463701 0 0.12875952044032002 1 I I -0.70710678118654746 0.70710678118654746 0.25 forward I I I I #
loop $-1 $-1 $286 $77 #
coedge $-1 $179 $179 $287 $288 reversed $113 $-1 #
face $-1 $-1 $289 $61 $-1 $290 forward single #
loop $-1 $291 $292 $115 #
cone-surface $-1 -44.819602004723677 -4.4466562686325801 5.4102498537622594 0.51503808176128008 0 -0.85716729658548041 0.2142918241463701 0 0.12875952044032002 1 I I -0.70710678118654746 0.70710678118654746 0.25 forward I I I I #
loop $-1 $-1 $293 $78 #
coedge $-1 $184 $184 $294 $295 reversed $116 $-1 #
face $-1 $296 $297 $62 $-1 $298 reversed single #
loop $-1 $-1 $299 $118 #
plane-surface $-1 -48.23267311624501 5.7657260639521439 4.8177615493019061 -0.51503808176128008 0 0.85716729658548041 0.85716729658548041 0 0.51503808176128008 forward_v I I I I #
coedge $-1 $300 $301 $302 $303 reversed $119 $-1 #
face $-1 $-1 $304 $63 $-1 $305 forward single #
loop $-1 $306 $307 $121 #
cone-surface $-1 -44.819602004723677 4.446656268632573 5.4102498537622594 0.51503808176128008 0 -0.85716729658548041 0.2142918241463701 0 0.12875952044032002 1 I I -0.70710678118654746 0.70710678118654746 0.25 forward I I I I #
loop $-1 $-1 $308 $80 #
coedge $-1 $193 $193 $309 $310 reversed $122 $-1 #
face $-1 $-1 $311 $64 $-1 $312 forward single #
loop $-1 $313 $314 $124 #
cone-surface $-1 -44.819602004723677 7.0847958592717077 5.4102498537622594 0.51503808176128008 0 -0.85716729658548041 0.2142918241463701 0 0.12875952044032002 1 I I -0.70710678118654746 0.70710678118654746 0.25 forward I I I I #
loop $-1 $-1 $315 $81 #
coedge $-1 $198 $198 $316 $317 reversed $125 $-1 #
face $-1 $318 $319 $65 $-1 $320 reversed single #
loop $-1 $-1 $321 $127 #
plane-surface $-1 -48.23267311624501 17.297178191856432 4.8177615493019061 -0.51503808176128008 0 0.85716729658548041 0.85716729658548041 0 0.51503808176128008 forward_v I I I I #
coedge $-1 $322 $323 $324 $325 reversed $128 $-1 #
face $-1 $-1 $326 $66 $-1 $327 forward single #
loop $-1 $328 $329 $130 #
cone-surface $-1 -44.819602004723677 15.978108396536861 5.4102498537622594 0.51503808176128008 0 -0.85716729658548041 0.2142918241463701 0 0.12875952044032002 1 I I -0.70710678118654746 0.70710678118654746 0.25 forward I I I I #
loop $-1 $-1 $330 $83 #
coedge $-1 $207 $207 $331 $332 reversed $131 $-1 #
face $-1 $-1 $333 $67 $-1 $334 forward single #
loop $-1 $335 $336 $133 #
cone-surface $-1 -44.819602004723677 18.616247987175996 5.4102498537622594 0.51503808176128008 0 -0.85716729658548041 0.2142918241463701 0 0.12875952044032002 1 I I -0.70710678118654746 0.70710678118654746 0.25 forward I I I I #
loop $-1 $-1 $337 $84 #
coedge $-1 $212 $212 $338 $339 reversed $134 $-1 #
face $-1 $340 $341 $51 $-1 $342 reversed single #
loop $-1 $-1 $343 $136 #
plane-surface $-1 0 -27.049275221537471 0 0 1 0 0 0 1 forward_v I I I I #
coedge $-1 $344 $345 $346 $347 forward $137 $-1 #
coedge $-1 $348 $139 $349 $350 forward $86 $-1 #
coedge $-1 $139 $348 $351 $352 forward $86 $-1 #
coedge $-1 $353 $354 $139 $220 reversed $355 $-1 #
edge $-1 $356 -27.049275221537471 $357 27.049275221537471 $219 $358 forward 7 unknown #
face $-1 $359 $360 $52 $-1 $361 reversed single #
loop $-1 $-1 $362 $140 #
plane-surface $-1 0 0 -8.145656399686299 0 0 1 1 0 0 forward_v I I I I #
coedge $-1 $363 $364 $365 $366 reversed $141 $-1 #
coedge $-1 $367 $143 $364 $368 forward $89 $-1 #
coedge $-1 $143 $367 $369 $370 reversed $89 $-1 #
coedge $-1 $371 $365 $143 $228 forward $360 $-1 #
edge $-1 $372 8.5189369803172035 $373 15.193204487585913 $227 $374 forward 7 unknown #
face $-1 $375 $376 $53 $-1 $377 reversed single #
loop $-1 $-1 $235 $144 #
plane-surface $-1 48.232673116245003 0 0 -1 0 0 0 0 1 forward_v I I I I #
coedge $-1 $378 $379 $380 $381 reversed $145 $-1 #
coedge $-1 $382 $147 $383 $384 reversed $92 $-1 #
coedge $-1 $147 $382 $379 $385 forward $92 $-1 #
coedge $-1 $386 $387 $147 $236 forward $230 $-1 #
edge $-1 $388 -15.193204487585913 $389 -8.5189369803172035 $235 $390 forward 7 unknown #
face $-1 $391 $392 $54 $-1 $393 forward single #
loop $-1 $-1 $394 $148 #
plane-surface $-1 71.922211067437104 3.182812819607765 137.60244387864856 0 1 0 0.81915205242281985 0 0.57357642473473569 forward_v I I I I #
coedge $-1 $395 $396 $397 $398 reversed $149 $-1 #
coedge $-1 $242 $151 $399 $400 reversed $95 $-1 #
coedge $-1 $151 $241 $395 $401 reversed $95 $-1 #
coedge $-1 $397 $402 $151 $244 forward $392 $-1 #
edge $-1 $403 -12.271567582526451 $404 -8.8452790556360199 $243 $405 forward 7 unknown #
loop $-1 $-1 $250 $152 #
plane-surface $-1 -7.0975752865850126 7.2608422017535474 82.272195475818535 0.81915205242281985 0 0.57357642473473569 0.57357642473473569 0 -0.81915205242281985 forward_v I I I I #
loop $-1 $-1 $406 $97 #
coedge $-1 $248 $248 $249 $407 reversed $153 $-1 #
coedge $-1 $249 $249 $248 $407 forward $155 $-1 #
coedge $-1 $250 $250 $156 $251 forward $245 $-1 #
edge $-1 $408 0 $408 6.2831853071796004 $250 $409 forward 7 unknown #
face $-1 $410 $411 $56 $-1 $412 reversed single #
loop $-1 $-1 $413 $157 #
plane-surface $-1 -97.915999996264389 -14.219348669444111 87.504701593587725 0 -1 0 0.51503808176128008 0 -0.85716729658548041 forward_v I I I I #
coedge $-1 $414 $415 $416 $417 reversed $158 $-1 #
coedge $-1 $257 $160 $418 $419 reversed $101 $-1 #
coedge $-1 $160 $256 $414 $420 reversed $101 $-1 #
coedge $-1 $416 $421 $160 $259 forward $422 $-1 #
edge $-1 $423 0.72532688188719163 $424 6.2638739005266615 $258 $425 forward 7 unknown #
loop $-1 $-1 $265 $161 #
plane-surface $-1 -48.23267311624501 -17.297178191856439 4.8177615493019061 -0.51503808176128008 0 0.85716729658548041 0.85716729658548041 0 0.51503808176128008 forward_v I I I I #
loop $-1 $-1 $426 $103 #
coedge $-1 $263 $263 $264 $427 reversed $162 $-1 #
coedge $-1 $264 $264 $263 $427 forward $164 $-1 #
coedge $-1 $265 $265 $165 $266 forward $260 $-1 #
edge $-1 $428 0 $428 6.2831853071796004 $265 $429 forward 7 unknown #
loop $-1 $-1 $272 $166 #
plane-surface $-1 -48.23267311624501 -17.297178191856439 4.8177615493019061 -0.51503808176128008 0 0.85716729658548041 0.85716729658548041 0 0.51503808176128008 forward_v I I I I #
loop $-1 $-1 $430 $106 #
coedge $-1 $270 $270 $271 $431 reversed $167 $-1 #
coedge $-1 $271 $271 $270 $431 forward $169 $-1 #
coedge $-1 $272 $272 $170 $273 forward $267 $-1 #
edge $-1 $432 0 $432 6.2831853071796004 $272 $433 forward 7 unknown #
face $-1 $434 $435 $59 $-1 $436 forward single #
loop $-1 $-1 $437 $171 #
plane-surface $-1 -97.915999996264389 -2.6878965415398199 87.504701593587725 0 -1 0 0.51503808176128008 0 -0.85716729658548041 forward_v I I I I #
coedge $-1 $438 $439 $440 $441 reversed $172 $-1 #
coedge $-1 $279 $174 $442 $443 reversed $110 $-1 #
coedge $-1 $174 $278 $438 $444 reversed $110 $-1 #
coedge $-1 $440 $445 $174 $281 forward $435 $-1 #
edge $-1 $446 0.72532688188719163 $447 6.2638739005266615 $280 $448 forward 7 unknown #
loop $-1 $-1 $287 $175 #
plane-surface $-1 -48.23267311624501 -5.7657260639521475 4.8177615493019061 -0.51503808176128008 0 0.85716729658548041 0.85716729658548041 0 0.51503808176128008 forward_v I I I I #
loop $-1 $-1 $449 $112 #
coedge $-1 $285 $285 $286 $450 reversed $176 $-1 #
coedge $-1 $286 $286 $285 $450 forward $178 $-1 #
coedge $-1 $287 $287 $179 $288 forward $282 $-1 #
edge $-1 $451 0 $451 6.2831853071796004 $287 $452 forward 7 unknown #
loop $-1 $-1 $294 $180 #
plane-surface $-1 -48.23267311624501 -5.7657260639521475 4.8177615493019061 -0.51503808176128008 0 0.85716729658548041 0.85716729658548041 0 0.51503808176128008 forward_v I I I I #
loop $-1 $-1 $453 $115 #
coedge $-1 $292 $292 $293 $454 reversed $181 $-1 #
coedge $-1 $293 $293 $292 $454 forward $183 $-1 #
coedge $-1 $294 $294 $184 $295 forward $289 $-1 #
edge $-1 $455 0 $455 6.2831853071796004 $294 $456 forward 7 unknown #
face $-1 $457 $458 $62 $-1 $459 forward single #
loop $-1 $-1 $460 $185 #
plane-surface $-1 -97.915999996264389 8.8435555863644719 87.504701593587725 0 -1 0 0.51503808176128008 0 -0.85716729658548041 forward_v I I I I #
coedge $-1 $461 $462 $463 $464 reversed $186 $-1 #
coedge $-1 $301 $188 $465 $466 reversed $119 $-1 #
coedge $-1 $188 $300 $461 $467 reversed $119 $-1 #
coedge $-1 $463 $468 $188 $303 forward $458 $-1 #
edge $-1 $469 0.72532688188719163 $470 6.2638739005266615 $302 $471 forward 7 unknown #
loop $-1 $-1 $309 $189 #
plane-surface $-1 -48.23267311624501 5.7657260639521439 4.8177615493019061 -0.51503808176128008 0 0.85716729658548041 0.85716729658548041 0 0.51503808176128008 forward_v I I I I #
loop $-1 $-1 $472 $121 #
coedge $-1 $307 $307 $308 $473 reversed $190 $-1 #
coedge $-1 $308 $308 $307 $473 forward $192 $-1 #
coedge $-1 $309 $309 $193 $310 forward $304 $-1 #
edge $-1 $474 0 $474 6.2831853071796004 $309 $475 forward 7 unknown #
loop $-1 $-1 $316 $194 #
plane-surface $-1 -48.23267311624501 5.7657260639521439 4.8177615493019061 -0.51503808176128008 0 0.85716729658548041 0.85716729658548041 0 0.51503808176128008 forward_v I I I I #
loop $-1 $-1 $476 $124 #
coedge $-1 $314 $314 $315 $477 reversed $195 $-1 #
coedge $-1 $315 $315 $314 $477 forward $197 $-1 #
coedge $-1 $316 $316 $198 $317 forward $311 $-1 #
edge $-1 $478 0 $478 6.2831853071796004 $316 $479 forward 7 unknown #
face $-1 $480 $481 $65 $-1 $482 forward single #
loop $-1 $-1 $483 $199 #
plane-surface $-1 -97.915999996264389 20.375007714268758 87.504701593587725 0 -1 0 0.51503808176128008 0 -0.85716729658548041 forward_v I I I I #
coedge $-1 $484 $485 $486 $487 reversed $200 $-1 #
coedge $-1 $323 $202 $488 $489 reversed $128 $-1 #
coedge $-1 $202 $322 $484 $490 reversed $128 $-1 #
coedge $-1 $486 $491 $202 $325 forward $481 $-1 #
edge $-1 $492 0.72532688188719163 $493 6.2638739005266615 $324 $494 forward 7 unknown #
loop $-1 $-1 $331 $203 #
plane-surface $-1 -48.23267311624501 17.297178191856432 4.8177615493019061 -0.51503808176128008 0 0.85716729658548041 0.85716729658548041 0 0.51503808176128008 forward_v I I I I #
loop $-1 $-1 $495 $130 #
coedge $-1 $329 $329 $330 $496 reversed $204 $-1 #
coedge $-1 $330 $330 $329 $496 forward $206 $-1 #
coedge $-1 $331 $331 $207 $332 forward $326 $-1 #
edge $-1 $497 0 $497 6.2831853071796004 $331 $498 forward 7 unknown #
loop $-1 $-1 $338 $208 #
plane-surface $-1 -48.23267311624501 17.297178191856432 4.8177615493019061 -0.51503808176128008 0 0.85716729658548041 0.85716729658548041 0 0.51503808176128008 forward_v I I I I #
loop $-1 $-1 $499 $133 #
coedge $-1 $336 $336 $337 $500 reversed $209 $-1 #
coedge $-1 $337 $337 $336 $500 forward $211 $-1 #
coedge $-1 $338 $338 $212 $339 forward $333 $-1 #
edge $-1 $501 0 $501 6.2831853071796004 $338 $502 forward 7 unknown #
face $-1 $503 $504 $51 $-1 $505 reversed single #
loop $-1 $-1 $506 $213 #
plane-surface $-1 -48.232673116245003 0 0 1 0 0 0 0 -1 forward_v I I I I #
coedge $-1 $507 $351 $508 $509 forward $214 $-1 #
coedge $-1 $510 $216 $507 $511 forward $137 $-1 #
coedge $-1 $216 $510 $512 $513 forward $137 $-1 #
coedge $-1 $354 $353 $216 $347 reversed $355 $-1 #
edge $-1 $514 -27.049275221537471 $515 27.049275221537471 $346 $516 forward 7 unknown #
coedge $-1 $218 $217 $517 $518 forward $86 $-1 #
coedge $-1 $519 $520 $217 $350 reversed $504 $-1 #
edge $-1 $357 -48.232673116245003 $521 48.232673116245003 $349 $522 forward 7 unknown #
coedge $-1 $343 $523 $218 $352 reversed $214 $-1 #
edge $-1 $524 -48.232673116245003 $356 48.232673116245003 $351 $525 forward 7 unknown #
coedge $-1 $346 $219 $523 $526 forward $355 $-1 #
coedge $-1 $219 $346 $519 $527 reversed $355 $-1 #
loop $-1 $-1 $353 $503 #
vertex $-1 $220 $528 #
vertex $-1 $220 $529 #
straight-curve $-1 48.232673116245003 0 8.145656399686299 0 1 0 I I #
face $-1 $530 $531 $52 $-1 $532 reversed single #
loop $-1 $-1 $365 $221 #
plane-surface $-1 48.232673116245003 0 0 -1 0 0 0 0 1 forward_v I I I I #
coedge $-1 $533 $534 $363 $535 forward $222 $-1 #
coedge $-1 $536 $224 $362 $535 reversed $141 $-1 #
coedge $-1 $224 $536 $225 $368 reversed $141 $-1 #
coedge $-1 $227 $537 $224 $366 forward $360 $-1 #
edge $-1 $538 -4.8228281998431495 $372 -1.8228281998431495 $365 $539 forward 7 unknown #
coedge $-1 $226 $225 $540 $541 reversed $89 $-1 #
edge $-1 $372 -48.232673116245003 $542 48.232673116245003 $364 $543 forward 7 unknown #
coedge $-1 $544 $545 $226 $370 forward $531 $-1 #
edge $-1 $373 -48.232673116245003 $546 48.232673116245003 $369 $547 forward 7 unknown #
coedge $-1 $537 $227 $545 $548 forward $360 $-1 #
vertex $-1 $228 $549 #
vertex $-1 $548 $550 #
straight-curve $-1 48.232673116245003 -11.856070733951558 -5.145656399686299 0 -1 0 I I #
face $-1 $551 $552 $53 $-1 $553 reversed single #
loop $-1 $-1 $554 $229 #
plane-surface $-1 0 0 -8.145656399686299 0 0 1 1 0 0 forward_v I I I I #
coedge $-1 $555 $232 $554 $556 reversed $145 $-1 #
coedge $-1 $232 $555 $234 $385 reversed $145 $-1 #
coedge $-1 $557 $558 $232 $381 forward $552 $-1 #
edge $-1 $559 -4.8228281998431495 $560 -1.8228281998431495 $380 $561 forward 7 unknown #
coedge $-1 $234 $233 $557 $562 reversed $92 $-1 #
coedge $-1 $563 $564 $233 $384 forward $565 $-1 #
edge $-1 $566 -48.232673116245003 $388 48.232673116245003 $383 $567 forward 7 unknown #
edge $-1 $560 -48.232673116245003 $389 48.232673116245003 $379 $568 forward 7 unknown #
coedge $-1 $569 $235 $555 $570 forward $230 $-1 #
coedge $-1 $235 $569 $563 $571 reversed $230 $-1 #
vertex $-1 $571 $572 #
vertex $-1 $236 $573 #
straight-curve $-1 48.232673116245003 11.856070733951558 -5.145656399686299 0 -1 0 I I #
face $-1 $-1 $574 $54 $-1 $575 reversed single #
loop $-1 $-1 $243 $237 #
plane-surface $-1 0 0 8.145656399686299 0 0 1 1 0 0 forward_v I I I I #
coedge $-1 $576 $577 $578 $579 reversed $238 $-1 #
coedge $-1 $580 $240 $242 $401 forward $149 $-1 #
coedge $-1 $240 $580 $576 $581 forward $149 $-1 #
coedge $-1 $578 $243 $240 $398 forward $392 $-1 #
edge $-1 $404 -7.7084504830225562 $582 0.44760828126900876 $397 $583 forward 7 unknown #
coedge $-1 $584 $585 $241 $400 forward $574 $-1 #
edge $-1 $586 -65.54881281752786 $403 -60.655565539637976 $399 $587 forward 7 unknown #
edge $-1 $404 90.491794358430681 $586 96.465346232490006 $242 $588 forward 7 unknown #
coedge $-1 $243 $578 $584 $589 forward $392 $-1 #
vertex $-1 $400 $590 #
vertex $-1 $244 $591 #
straight-curve $-1 35.961105533718552 11.33887158389933 8.1456563996863025 -1 0 0 I I #
coedge $-1 $406 $406 $-1 $592 reversed $247 $-1 #
edge $-1 $593 0 $593 6.2831853071796004 $248 $594 forward 7 unknown #
vertex $-1 $251 $595 #
ellipse-curve $-1 46.519528852799802 7.2608422017535474 5.6990327607413427 0.81915205242281985 0 0.57357642473473569 0.28678821236736785 0 -0.40957602621140993 1 I I #
face $-1 $-1 $422 $56 $-1 $596 forward single #
loop $-1 $-1 $597 $252 #
plane-surface $-1 -48.232673116245003 0 0 1 0 0 0 0 -1 forward_v I I I I #
coedge $-1 $598 $599 $600 $601 reversed $253 $-1 #
coedge $-1 $602 $255 $257 $420 forward $158 $-1 #
coedge $-1 $255 $602 $598 $603 forward $158 $-1 #
coedge $-1 $600 $258 $255 $417 forward $422 $-1 #
edge $-1 $424 -11.726418618340546 $604 -5.5707595735158915 $416 $605 forward 7 unknown #
coedge $-1 $606 $607 $256 $419 forward $411 $-1 #
edge $-1 $608 -38.934589247491949 $423 -35.60669439710756 $418 $609 forward 7 unknown #
edge $-1 $424 -6.4614539550239929 $608 -8.3777685069199533e-015 $257 $610 forward 7 unknown #
coedge $-1 $258 $600 $606 $611 forward $422 $-1 #
loop $-1 $-1 $600 $410 #
vertex $-1 $419 $612 #
vertex $-1 $259 $613 #
straight-curve $-1 -48.957999998132195 -20.375007714268765 8.1456563996862954 1 0 0 I I #
coedge $-1 $426 $426 $-1 $614 reversed $262 $-1 #
edge $-1 $615 0 $615 6.2831853071796004 $263 $616 forward 7 unknown #
vertex $-1 $266 $617 #
ellipse-curve $-1 -45.463399606925272 -18.616247987176006 6.4817089744941043 -0.51503808176128008 0 0.85716729658548041 0.4285836482927402 0 0.25751904088064004 1 I I #
coedge $-1 $430 $430 $-1 $618 reversed $269 $-1 #
edge $-1 $619 0 $619 6.2831853071796004 $270 $620 forward 7 unknown #
vertex $-1 $273 $621 #
ellipse-curve $-1 -45.463399606925272 -15.978108396536868 6.4817089744941043 -0.51503808176128008 0 0.85716729658548041 0.4285836482927402 0 0.25751904088064004 1 I I #
face $-1 $-1 $622 $59 $-1 $623 reversed single #
loop $-1 $-1 $280 $274 #
plane-surface $-1 0 0 8.145656399686299 0 0 1 1 0 0 forward_v I I I I #
coedge $-1 $624 $625 $626 $627 reversed $275 $-1 #
coedge $-1 $628 $277 $279 $444 forward $172 $-1 #
coedge $-1 $277 $628 $624 $629 forward $172 $-1 #
coedge $-1 $626 $280 $277 $441 forward $435 $-1 #
edge $-1 $447 -5.9606925543884017 $630 0.1949664904362538 $440 $631 forward 7 unknown #
coedge $-1 $632 $633 $278 $443 forward $622 $-1 #
edge $-1 $634 -38.934589247491949 $446 -35.60669439710756 $442 $635 forward 7 unknown #
edge $-1 $447 -6.4614539550239929 $634 -8.3777685069199533e-015 $279 $636 forward 7 unknown #
coedge $-1 $280 $626 $632 $637 forward $435 $-1 #
vertex $-1 $443 $638 #
vertex $-1 $281 $639 #
straight-curve $-1 -48.957999998132195 -8.8435555863644755 8.1456563996862954 1 0 0 I I #
coedge $-1 $449 $449 $-1 $640 reversed $284 $-1 #
edge $-1 $641 0 $641 6.2831853071796004 $285 $642 forward 7 unknown #
vertex $-1 $288 $643 #
ellipse-curve $-1 -45.463399606925272 -7.0847958592717148 6.4817089744941043 -0.51503808176128008 0 0.85716729658548041 0.4285836482927402 0 0.25751904088064004 1 I I #
coedge $-1 $453 $453 $-1 $644 reversed $291 $-1 #
edge $-1 $645 0 $645 6.2831853071796004 $292 $646 forward 7 unknown #
vertex $-1 $295 $647 #
ellipse-curve $-1 -45.463399606925272 -4.4466562686325801 6.4817089744941043 -0.51503808176128008 0 0.85716729658548041 0.4285836482927402 0 0.25751904088064004 1 I I #
face $-1 $-1 $648 $62 $-1 $649 reversed single #
loop $-1 $-1 $302 $296 #
plane-surface $-1 0 0 8.145656399686299 0 0 1 1 0 0 forward_v I I I I #
coedge $-1 $650 $651 $652 $653 reversed $297 $-1 #
coedge $-1 $654 $299 $301 $467 forward $186 $-1 #
coedge $-1 $299 $654 $650 $655 forward $186 $-1 #
coedge $-1 $652 $302 $299 $464 forward $458 $-1 #
edge $-1 $470 -0.19496649043625558 $656 5.9606925543884 $463 $657 forward 7 unknown #
coedge $-1 $658 $659 $300 $466 forward $648 $-1 #
edge $-1 $660 -38.934589247491949 $469 -35.60669439710756 $465 $661 forward 7 unknown #
edge $-1 $470 -6.4614539550239929 $660 -8.3777685069199533e-015 $301 $662 forward 7 unknown #
coedge $-1 $302 $652 $658 $663 forward $458 $-1 #
vertex $-1 $303 $664 #
vertex $-1 $303 $665 #
straight-curve $-1 -48.957999998132195 2.6878965415398164 8.1456563996862954 1 0 0 I I #
coedge $-1 $472 $472 $-1 $666 reversed $306 $-1 #
edge $-1 $667 0 $667 6.2831853071796004 $307 $668 forward 7 unknown #
vertex $-1 $310 $669 #
ellipse-curve $-1 -45.463399606925272 4.446656268632573 6.4817089744941043 -0.51503808176128008 0 0.85716729658548041 0.4285836482927402 0 0.25751904088064004 1 I I #
coedge $-1 $476 $476 $-1 $670 reversed $313 $-1 #
edge $-1 $671 0 $671 6.2831853071796004 $314 $672 forward 7 unknown #
vertex $-1 $317 $673 #
ellipse-curve $-1 -45.463399606925272 7.0847958592717077 6.4817089744941043 -0.51503808176128008 0 0.85716729658548041 0.4285836482927402 0 0.25751904088064004 1 I I #
face $-1 $-1 $674 $65 $-1 $675 reversed single #
loop $-1 $-1 $324 $318 #
plane-surface $-1 0 0 8.145656399686299 0 0 1 1 0 0 forward_v I I I I #
coedge $-1 $676 $677 $678 $679 reversed $319 $-1 #
coedge $-1 $680 $321 $323 $490 forward $200 $-1 #
coedge $-1 $321 $680 $676 $681 forward $200 $-1 #
coedge $-1 $678 $324 $321 $487 forward $481 $-1 #
edge $-1 $493 5.5707595735158879 $682 11.726418618340542 $486 $683 forward 7 unknown #
coedge $-1 $684 $685 $322 $489 forward $674 $-1 #
edge $-1 $686 -38.934589247491949 $492 -35.60669439710756 $488 $687 forward 7 unknown #
edge $-1 $493 -6.4614539550239929 $686 -8.3777685069199533e-015 $323 $688 forward 7 unknown #
coedge $-1 $324 $678 $684 $689 forward $481 $-1 #
vertex $-1 $325 $690 #
vertex $-1 $325 $691 #
straight-curve $-1 -48.957999998132195 14.219348669444104 8.1456563996862954 1 0 0 I I #
coedge $-1 $495 $495 $-1 $692 reversed $328 $-1 #
edge $-1 $693 0 $693 6.2831853071796004 $329 $694 forward 7 unknown #
vertex $-1 $332 $695 #
ellipse-curve $-1 -45.463399606925272 15.978108396536861 6.4817089744941043 -0.51503808176128008 0 0.85716729658548041 0.4285836482927402 0 0.25751904088064004 1 I I #
coedge $-1 $499 $499 $-1 $696 reversed $335 $-1 #
edge $-1 $697 0 $697 6.2831853071796004 $336 $698 forward 7 unknown #
vertex $-1 $339 $699 #
ellipse-curve $-1 -45.463399606925272 18.616247987175996 6.4817089744941043 -0.51503808176128008 0 0.85716729658548041 0.4285836482927402 0 0.25751904088064004 1 I I #
face $-1 $-1 $355 $51 $-1 $700 reversed single #
loop $-1 $-1 $519 $340 #
plane-surface $-1 0 27.049275221537471 0 0 -1 0 0 0 -1 forward_v I I I I #
coedge $-1 $701 $517 $520 $702 forward $341 $-1 #
coedge $-1 $523 $343 $344 $511 reversed $214 $-1 #
coedge $-1 $517 $701 $343 $509 reversed $341 $-1 #
edge $-1 $524 -8.145656399686299 $703 8.145656399686299 $508 $704 forward 7 unknown #
coedge $-1 $345 $344 $701 $705 forward $137 $-1 #
edge $-1 $515 -48.232673116245003 $703 48.232673116245003 $507 $706 forward 7 unknown #
coedge $-1 $520 $519 $345 $513 reversed $504 $-1 #
edge $-1 $707 -48.232673116245003 $514 48.232673116245003 $512 $708 forward 7 unknown #
vertex $-1 $347 $709 #
vertex $-1 $526 $710 #
straight-curve $-1 48.232673116245003 0 -8.145656399686299 0 -1 0 I I #
coedge $-1 $506 $508 $348 $518 reversed $341 $-1 #
edge $-1 $521 -27.049275221537471 $524 27.049275221537471 $517 $711 forward 7 unknown #
coedge $-1 $512 $349 $354 $527 forward $504 $-1 #
coedge $-1 $349 $512 $506 $702 reversed $504 $-1 #
vertex $-1 $350 $712 #
straight-curve $-1 0 27.049275221537471 8.145656399686299 -1 0 0 I I #
coedge $-1 $351 $507 $353 $526 reversed $214 $-1 #
vertex $-1 $518 $713 #
straight-curve $-1 0 -27.049275221537471 8.145656399686299 1 0 0 I I #
edge $-1 $356 -8.145656399686299 $515 8.145656399686299 $353 $714 forward 7 unknown #
edge $-1 $357 -8.145656399686299 $514 8.145656399686299 $354 $715 forward 7 unknown #
point $-1 48.232673116245003 -27.049275221537471 8.145656399686299 #
point $-1 48.232673116245003 27.049275221537471 8.145656399686299 #
face $-1 $-1 $716 $52 $-1 $717 reversed single #
loop $-1 $-1 $369 $359 #
plane-surface $-1 0 -27.049275221537471 0 0 1 0 0 0 1 forward_v I I I I #
coedge $-1 $718 $362 $537 $719 forward $222 $-1 #
coedge $-1 $362 $718 $720 $721 forward $222 $-1 #
edge $-1 $722 -48.232673116245003 $538 48.232673116245003 $362 $723 forward 7 unknown #
coedge $-1 $364 $363 $724 $725 reversed $141 $-1 #
coedge $-1 $365 $371 $533 $719 reversed $360 $-1 #
vertex $-1 $719 $726 #
straight-curve $-1 48.232673116245003 -20.375007714268762 -3.3228281998431495 0 0 1 I I #
coedge $-1 $724 $727 $367 $541 forward $716 $-1 #
edge $-1 $546 -15.193204487585913 $542 -8.5189369803172035 $540 $728 forward 7 unknown #
vertex $-1 $541 $729 #
straight-curve $-1 0 -20.375007714268762 -5.145656399686299 -1 0 0 I I #
coedge $-1 $730 $369 $727 $731 forward $531 $-1 #
coedge $-1 $369 $730 $371 $548 reversed $531 $-1 #
vertex $-1 $731 $732 #
straight-curve $-1 0 -27.049275221537471 -5.145656399686299 -1 0 0 I I #
edge $-1 $373 5.145656399686299 $733 8.145656399686299 $371 $734 forward 7 unknown #
point $-1 48.232673116245003 -20.375007714268762 -5.145656399686299 #
point $-1 48.232673116245003 -27.049275221537471 -5.145656399686299 #
face $-1 $-1 $565 $53 $-1 $735 reversed single #
loop $-1 $-1 $557 $375 #
plane-surface $-1 -48.232673116245003 0 0 1 0 0 0 0 -1 forward_v I I I I #
coedge $-1 $736 $737 $378 $556 forward $376 $-1 #
coedge $-1 $379 $378 $386 $570 reversed $145 $-1 #
edge $-1 $738 -48.232673116245003 $559 48.232673116245003 $554 $739 forward 7 unknown #
coedge $-1 $740 $380 $382 $562 forward $552 $-1 #
coedge $-1 $380 $740 $736 $741 reversed $552 $-1 #
vertex $-1 $741 $742 #
vertex $-1 $562 $743 #
straight-curve $-1 -48.232673116245003 20.375007714268762 -3.3228281998431495 0 0 1 I I #
edge $-1 $560 8.5189369803172035 $566 15.193204487585913 $557 $744 forward 7 unknown #
coedge $-1 $745 $383 $387 $571 forward $565 $-1 #
coedge $-1 $383 $745 $740 $746 reversed $565 $-1 #
loop $-1 $-1 $383 $551 #
vertex $-1 $746 $747 #
straight-curve $-1 0 27.049275221537471 -5.145656399686299 1 0 0 I I #
straight-curve $-1 0 20.375007714268762 -5.145656399686299 1 0 0 I I #
coedge $-1 $387 $386 $737 $748 reversed $230 $-1 #
edge $-1 $389 1.8228281998431495 $738 4.8228281998431495 $386 $749 forward 7 unknown #
edge $-1 $388 5.145656399686299 $750 8.145656399686299 $387 $751 forward 7 unknown #
point $-1 48.232673116245003 27.049275221537471 -5.145656399686299 #
point $-1 48.232673116245003 20.375007714268762 -5.145656399686299 #
loop $-1 $-1 $399 $391 #
plane-surface $-1 48.232673116245003 0 0 -1 0 0 0 0 1 forward_v I I I I #
coedge $-1 $577 $394 $396 $581 reversed $238 $-1 #
coedge $-1 $394 $576 $752 $753 reversed $238 $-1 #
coedge $-1 $402 $397 $394 $579 forward $392 $-1 #
edge $-1 $582 8.8452790556360199 $754 12.271567582526451 $578 $755 forward 7 unknown #
coedge $-1 $396 $395 $585 $756 reversed $149 $-1 #
edge $-1 $757 -96.465346232490006 $582 -90.491794358430681 $576 $758 forward 7 unknown #
vertex $-1 $398 $759 #
straight-curve $-1 44.806384589354579 3.6304211008767737 8.1456563996863025 0 -1 0 I I #
coedge $-1 $752 $399 $402 $589 reversed $574 $-1 #
coedge $-1 $399 $752 $580 $756 forward $574 $-1 #
vertex $-1 $400 $760 #
straight-curve $-1 48.232673116245003 11.33887158389933 68.801221939324279 0 0 1 I I #
straight-curve $-1 -7.0975752865850126 11.33887158389933 82.272195475818535 0.57357642473473569 0 -0.81915205242281985 I I #
edge $-1 $754 3.182812819607765 $403 11.33887158389933 $584 $761 forward 7 unknown #
point $-1 48.232673116245003 11.33887158389933 8.145656399686299 #
point $-1 44.806384589354572 11.33887158389933 8.1456563996863025 #
edge $-1 $762 1 $762 0 $406 $-1 forward 7 unknown #
vertex $-1 $407 $763 #
ellipse-curve $-1 45.700376800376972 7.2608422017535474 5.1254563360066028 0.81915205242281985 0 0.57357642473473569 0.28678821236736785 0 -0.40957602621140993 1 I I #
point $-1 46.806317065167157 7.2608422017535474 5.2894567345299288 #
plane-surface $-1 0 0 8.145656399686299 0 0 1 1 0 0 forward_v I I I I #
coedge $-1 $607 $606 $599 $764 forward $411 $-1 #
coedge $-1 $599 $413 $415 $603 reversed $253 $-1 #
coedge $-1 $413 $598 $597 $764 reversed $253 $-1 #
coedge $-1 $421 $416 $413 $601 forward $422 $-1 #
edge $-1 $604 -6.2638739005266615 $765 -0.72532688188719163 $600 $766 forward 7 unknown #
coedge $-1 $415 $414 $607 $767 reversed $158 $-1 #
edge $-1 $768 8.3777685069199533e-015 $604 6.4614539550239929 $598 $769 forward 7 unknown #
vertex $-1 $417 $770 #
straight-curve $-1 -42.694126097605533 -8.6485890959282195 8.145656399686299 0 1 0 I I #
coedge $-1 $597 $418 $421 $611 reversed $411 $-1 #
coedge $-1 $418 $597 $602 $767 forward $411 $-1 #
vertex $-1 $419 $771 #
straight-curve $-1 -48.232673116245003 -20.375007714268765 43.752350796793863 0 0 1 I I #
straight-curve $-1 -48.23267311624501 -20.375007714268765 4.8177615493019061 -0.85716729658548041 0 -0.51503808176128008 I I #
edge $-1 $765 14.219348669444111 $423 20.375007714268765 $606 $772 forward 7 unknown #
point $-1 -48.232673116245003 -20.375007714268765 8.145656399686299 #
point $-1 -42.694126097605533 -20.375007714268765 8.145656399686299 #
edge $-1 $773 1 $773 0 $426 $-1 forward 7 unknown #
vertex $-1 $427 $774 #
ellipse-curve $-1 -44.948361525163996 -18.616247987176006 5.6245416779086295 -0.51503808176128008 0 0.85716729658548041 0.4285836482927402 0 0.25751904088064004 1 I I #
point $-1 -45.034815958632535 -18.616247987176006 6.7392280153747501 #
edge $-1 $775 1 $775 0 $430 $-1 forward 7 unknown #
vertex $-1 $431 $776 #
ellipse-curve $-1 -44.948361525163996 -15.978108396536868 5.6245416779086295 -0.51503808176128008 0 0.85716729658548041 0.4285836482927402 0 0.25751904088064004 1 I I #
point $-1 -45.034815958632535 -15.978108396536868 6.7392280153747501 #
loop $-1 $-1 $442 $434 #
plane-surface $-1 -48.232673116245003 0 0 1 0 0 0 0 -1 forward_v I I I I #
coedge $-1 $625 $437 $439 $629 reversed $275 $-1 #
coedge $-1 $437 $624 $777 $778 reversed $275 $-1 #
coedge $-1 $445 $440 $437 $627 forward $435 $-1 #
edge $-1 $630 -6.2638739005266615 $779 -0.72532688188719163 $626 $780 forward 7 unknown #
coedge $-1 $439 $438 $633 $781 reversed $172 $-1 #
edge $-1 $782 8.3777685069199533e-015 $630 6.4614539550239929 $624 $783 forward 7 unknown #
vertex $-1 $441 $784 #
straight-curve $-1 -42.694126097605533 -2.8828630319760737 8.145656399686299 0 1 0 I I #
coedge $-1 $777 $442 $445 $637 reversed $622 $-1 #
coedge $-1 $442 $777 $628 $781 forward $622 $-1 #
vertex $-1 $443 $785 #
straight-curve $-1 -48.232673116245003 -8.8435555863644755 43.752350796793863 0 0 1 I I #
straight-curve $-1 -48.23267311624501 -8.8435555863644755 4.8177615493019061 -0.85716729658548041 0 -0.51503808176128008 I I #
edge $-1 $779 2.6878965415398199 $446 8.8435555863644755 $632 $786 forward 7 unknown #
point $-1 -48.232673116245003 -8.8435555863644755 8.145656399686299 #
point $-1 -42.694126097605533 -8.8435555863644755 8.145656399686299 #
edge $-1 $787 1 $787 0 $449 $-1 forward 7 unknown #
vertex $-1 $450 $788 #
ellipse-curve $-1 -44.948361525163996 -7.0847958592717148 5.6245416779086295 -0.51503808176128008 0 0.85716729658548041 0.4285836482927402 0 0.25751904088064004 1 I I #
point $-1 -45.034815958632535 -7.0847958592717148 6.7392280153747501 #
edge $-1 $789 1 $789 0 $453 $-1 forward 7 unknown #
vertex $-1 $454 $790 #
ellipse-curve $-1 -44.948361525163996 -4.4466562686325801 5.6245416779086295 -0.51503808176128008 0 0.85716729658548041 0.4285836482927402 0 0.25751904088064004 1 I I #
point $-1 -45.034815958632535 -4.4466562686325801 6.7392280153747501 #
loop $-1 $-1 $465 $457 #
plane-surface $-1 -48.232673116245003 0 0 1 0 0 0 0 -1 forward_v I I I I #
coedge $-1 $651 $460 $462 $655 reversed $297 $-1 #
coedge $-1 $460 $650 $791 $792 reversed $297 $-1 #
coedge $-1 $468 $463 $460 $653 forward $458 $-1 #
edge $-1 $656 -6.2638739005266615 $793 -0.72532688188719163 $652 $794 forward 7 unknown #
coedge $-1 $462 $461 $659 $795 reversed $186 $-1 #
edge $-1 $796 8.3777685069199533e-015 $656 6.4614539550239929 $650 $797 forward 7 unknown #
vertex $-1 $464 $798 #
straight-curve $-1 -42.694126097605533 2.882863031976072 8.145656399686299 0 1 0 I I #
coedge $-1 $791 $465 $468 $663 reversed $648 $-1 #
coedge $-1 $465 $791 $654 $795 forward $648 $-1 #
vertex $-1 $466 $799 #
straight-curve $-1 -48.232673116245003 2.6878965415398164 43.752350796793863 0 0 1 I I #
straight-curve $-1 -48.23267311624501 2.6878965415398164 4.8177615493019061 -0.85716729658548041 0 -0.51503808176128008 I I #
edge $-1 $793 -8.8435555863644719 $469 -2.6878965415398164 $658 $800 forward 7 unknown #
point $-1 -48.232673116245003 2.6878965415398164 8.145656399686299 #
point $-1 -42.694126097605533 2.6878965415398164 8.145656399686299 #
edge $-1 $801 1 $801 0 $472 $-1 forward 7 unknown #
vertex $-1 $473 $802 #
ellipse-curve $-1 -44.948361525163996 4.446656268632573 5.6245416779086295 -0.51503808176128008 0 0.85716729658548041 0.4285836482927402 0 0.25751904088064004 1 I I #
point $-1 -45.034815958632535 4.446656268632573 6.7392280153747501 #
edge $-1 $803 1 $803 0 $476 $-1 forward 7 unknown #
vertex $-1 $477 $804 #
ellipse-curve $-1 -44.948361525163996 7.0847958592717077 5.6245416779086295 -0.51503808176128008 0 0.85716729658548041 0.4285836482927402 0 0.25751904088064004 1 I I #
point $-1 -45.034815958632535 7.0847958592717077 6.7392280153747501 #
loop $-1 $-1 $488 $480 #
plane-surface $-1 -48.232673116245003 0 0 1 0 0 0 0 -1 forward_v I I I I #
coedge $-1 $677 $483 $485 $681 reversed $319 $-1 #
coedge $-1 $483 $676 $805 $806 reversed $319 $-1 #
coedge $-1 $491 $486 $483 $679 forward $481 $-1 #
edge $-1 $682 -6.2638739005266615 $807 -0.72532688188719163 $678 $808 forward 7 unknown #
coedge $-1 $485 $484 $685 $809 reversed $200 $-1 #
edge $-1 $810 8.3777685069199533e-015 $682 6.4614539550239929 $676 $811 forward 7 unknown #
vertex $-1 $487 $812 #
straight-curve $-1 -42.694126097605533 8.6485890959282159 8.145656399686299 0 1 0 I I #
coedge $-1 $805 $488 $491 $689 reversed $674 $-1 #
coedge $-1 $488 $805 $680 $809 forward $674 $-1 #
vertex $-1 $489 $813 #
straight-curve $-1 -48.232673116245003 14.219348669444104 43.752350796793863 0 0 1 I I #
straight-curve $-1 -48.23267311624501 14.219348669444104 4.8177615493019061 -0.85716729658548041 0 -0.51503808176128008 I I #
edge $-1 $807 -20.375007714268758 $492 -14.219348669444104 $684 $814 forward 7 unknown #
point $-1 -48.232673116245003 14.219348669444104 8.145656399686299 #
point $-1 -42.694126097605533 14.219348669444104 8.145656399686299 #
edge $-1 $815 1 $815 0 $495 $-1 forward 7 unknown #
vertex $-1 $496 $816 #
ellipse-curve $-1 -44.948361525163996 15.978108396536861 5.6245416779086295 -0.51503808176128008 0 0.85716729658548041 0.4285836482927402 0 0.25751904088064004 1 I I #
point $-1 -45.034815958632535 15.978108396536861 6.7392280153747501 #
edge $-1 $817 1 $817 0 $499 $-1 forward 7 unknown #
vertex $-1 $500 $818 #
ellipse-curve $-1 -44.948361525163996 18.616247987175996 5.6245416779086295 -0.51503808176128008 0 0.85716729658548041 0.4285836482927402 0 0.25751904088064004 1 I I #
point $-1 -45.034815958632535 18.616247987175996 6.7392280153747501 #
plane-surface $-1 48.232673116245003 0 0 -1 0 0 0 0 1 forward_v I I I I #
coedge $-1 $508 $506 $510 $705 reversed $341 $-1 #
edge $-1 $521 -8.145656399686299 $707 8.145656399686299 $520 $819 forward 7 unknown #
vertex $-1 $705 $820 #
straight-curve $-1 -48.232673116245003 -27.049275221537471 0 0 0 -1 I I #
edge $-1 $703 -27.049275221537471 $707 27.049275221537471 $701 $821 forward 7 unknown #
straight-curve $-1 0 -27.049275221537471 -8.145656399686299 -1 0 0 I I #
vertex $-1 $513 $822 #
straight-curve $-1 0 27.049275221537471 -8.145656399686299 1 0 0 I I #
point $-1 48.232673116245003 27.049275221537471 -8.145656399686299 #
point $-1 48.232673116245003 -27.049275221537471 -8.145656399686299 #
straight-curve $-1 -48.232673116245003 0 8.145656399686299 0 -1 0 I I #
point $-1 -48.232673116245003 27.049275221537471 8.145656399686299 #
point $-1 -48.232673116245003 -27.049275221537471 8.145656399686299 #
straight-curve $-1 48.232673116245003 -27.049275221537471 0 0 0 -1 I I #
straight-curve $-1 48.232673116245003 27.049275221537471 0 0 0 -1 I I #
loop $-1 $-1 $724 $530 #
plane-surface $-1 -48.232673116245003 0 0 1 0 0 0 0 -1 forward_v I I I I #
coedge $-1 $534 $533 $730 $823 forward $222 $-1 #
edge $-1 $538 20.375007714268762 $733 27.049275221537471 $537 $824 forward 7 unknown #
coedge $-1 $727 $724 $534 $721 reversed $716 $-1 #
edge $-1 $825 -27.049275221537471 $722 -20.375007714268762 $720 $826 forward 7 unknown #
vertex $-1 $725 $827 #
straight-curve $-1 0 -20.375007714268762 -8.145656399686299 1 0 0 I I #
coedge $-1 $720 $540 $536 $725 forward $716 $-1 #
edge $-1 $542 1.8228281998431495 $722 4.8228281998431495 $724 $828 forward 7 unknown #
point $-1 48.232673116245003 -20.375007714268762 -8.145656399686299 #
coedge $-1 $540 $720 $544 $731 reversed $716 $-1 #
straight-curve $-1 -48.232673116245003 -11.856070733951558 -5.145656399686299 0 1 0 I I #
point $-1 -48.232673116245003 -20.375007714268762 -5.145656399686299 #
coedge $-1 $545 $544 $718 $823 reversed $531 $-1 #
edge $-1 $546 5.145656399686299 $825 8.145656399686299 $727 $829 forward 7 unknown #
point $-1 -48.232673116245003 -27.049275221537471 -5.145656399686299 #
vertex $-1 $548 $830 #
straight-curve $-1 48.232673116245003 -27.049275221537471 0 0 0 -1 I I #
plane-surface $-1 0 27.049275221537471 0 0 -1 0 0 0 -1 forward_v I I I I #
coedge $-1 $831 $554 $558 $741 forward $376 $-1 #
coedge $-1 $554 $831 $569 $748 forward $376 $-1 #
vertex $-1 $556 $832 #
straight-curve $-1 0 20.375007714268762 -8.145656399686299 -1 0 0 I I #
coedge $-1 $558 $557 $564 $746 forward $552 $-1 #
edge $-1 $559 20.375007714268762 $833 27.049275221537471 $558 $834 forward 7 unknown #
point $-1 -48.232673116245003 20.375007714268762 -8.145656399686299 #
point $-1 -48.232673116245003 20.375007714268762 -5.145656399686299 #
straight-curve $-1 -48.232673116245003 11.856070733951558 -5.145656399686299 0 1 0 I I #
coedge $-1 $564 $563 $831 $835 reversed $565 $-1 #
edge $-1 $566 5.145656399686299 $833 8.145656399686299 $564 $836 forward 7 unknown #
point $-1 -48.232673116245003 27.049275221537471 -5.145656399686299 #
edge $-1 $750 -27.049275221537471 $738 -20.375007714268762 $569 $837 forward 7 unknown #
straight-curve $-1 48.232673116245003 20.375007714268762 -3.3228281998431495 0 0 -1 I I #
vertex $-1 $748 $838 #
straight-curve $-1 48.232673116245003 27.049275221537471 0 0 0 -1 I I #
coedge $-1 $585 $584 $577 $753 forward $574 $-1 #
edge $-1 $754 60.655565539637976 $757 65.54881281752786 $752 $839 forward 7 unknown #
vertex $-1 $589 $840 #
straight-curve $-1 35.961105533718552 3.182812819607765 8.1456563996863025 1 0 0 I I #
edge $-1 $757 -0.44760828126900876 $586 7.7084504830225562 $585 $841 forward 7 unknown #
vertex $-1 $756 $842 #
straight-curve $-1 -7.0975752865850126 3.182812819607765 82.272195475818535 -0.57357642473473569 0 0.81915205242281985 I I #
point $-1 44.806384589354572 3.182812819607765 8.1456563996863025 #
point $-1 48.232673116245003 11.33887158389933 3.2524091217964184 #
straight-curve $-1 48.232673116245003 0 8.145656399686299 0 1 0 I I #
vertex $-1 $592 $843 #
point $-1 45.987165012744342 7.2608422017535474 4.7158803097951925 #
edge $-1 $765 35.60669439710756 $768 38.934589247491949 $597 $844 forward 7 unknown #
vertex $-1 $611 $845 #
straight-curve $-1 -48.957999998132195 -14.219348669444111 8.1456563996862954 -1 0 0 I I #
edge $-1 $768 5.5707595735158915 $608 11.726418618340546 $607 $846 forward 7 unknown #
vertex $-1 $767 $847 #
straight-curve $-1 -48.23267311624501 -14.219348669444111 4.8177615493019061 0.85716729658548041 0 0.51503808176128008 I I #
point $-1 -42.694126097605533 -14.219348669444111 8.145656399686299 #
point $-1 -48.232673116245003 -20.375007714268765 4.8177615493019106 #
straight-curve $-1 -48.232673116245003 0 8.145656399686299 0 -1 0 I I #
vertex $-1 $614 $848 #
point $-1 -44.51977787687126 -18.616247987176006 5.8820607187892699 #
vertex $-1 $618 $849 #
point $-1 -44.51977787687126 -15.978108396536868 5.8820607187892699 #
coedge $-1 $633 $632 $625 $778 forward $622 $-1 #
edge $-1 $779 35.60669439710756 $782 38.934589247491949 $777 $850 forward 7 unknown #
vertex $-1 $637 $851 #
straight-curve $-1 -48.957999998132195 -2.6878965415398199 8.1456563996862954 -1 0 0 I I #
edge $-1 $782 -0.1949664904362538 $634 5.9606925543884017 $633 $852 forward 7 unknown #
vertex $-1 $781 $853 #
straight-curve $-1 -48.23267311624501 -2.6878965415398199 4.8177615493019061 0.85716729658548041 0 0.51503808176128008 I I #
point $-1 -42.694126097605533 -2.6878965415398199 8.145656399686299 #
point $-1 -48.232673116245003 -8.8435555863644755 4.8177615493019106 #
straight-curve $-1 -48.232673116245003 0 8.145656399686299 0 -1 0 I I #
vertex $-1 $640 $854 #
point $-1 -44.51977787687126 -7.0847958592717148 5.8820607187892699 #
vertex $-1 $644 $855 #
point $-1 -44.51977787687126 -4.4466562686325801 5.8820607187892699 #
coedge $-1 $659 $658 $651 $792 forward $648 $-1 #
edge $-1 $793 35.60669439710756 $796 38.934589247491949 $791 $856 forward 7 unknown #
vertex $-1 $663 $857 #
straight-curve $-1 -48.957999998132195 8.8435555863644719 8.1456563996862954 -1 0 0 I I #
edge $-1 $796 -5.9606925543884 $660 0.19496649043625558 $659 $858 forward 7 unknown #
vertex $-1 $795 $859 #
straight-curve $-1 -48.23267311624501 8.8435555863644719 4.8177615493019061 0.85716729658548041 0 0.51503808176128008 I I #
point $-1 -42.694126097605533 8.8435555863644719 8.145656399686299 #
point $-1 -48.232673116245003 2.6878965415398164 4.8177615493019106 #
straight-curve $-1 -48.232673116245003 0 8.145656399686299 0 -1 0 I I #
vertex $-1 $666 $860 #
point $-1 -44.51977787687126 4.446656268632573 5.8820607187892699 #
vertex $-1 $670 $861 #
point $-1 -44.51977787687126 7.0847958592717077 5.8820607187892699 #
coedge $-1 $685 $684 $677 $806 forward $674 $-1 #
edge $-1 $807 35.60669439710756 $810 38.934589247491949 $805 $862 forward 7 unknown #
vertex $-1 $689 $863 #
straight-curve $-1 -48.957999998132195 20.375007714268758 8.1456563996862954 -1 0 0 I I #
edge $-1 $810 -11.726418618340542 $686 -5.5707595735158879 $685 $864 forward 7 unknown #
vertex $-1 $809 $865 #
straight-curve $-1 -48.23267311624501 20.375007714268758 4.8177615493019061 0.85716729658548041 0 0.51503808176128008 I I #
point $-1 -42.694126097605533 20.375007714268758 8.145656399686299 #
point $-1 -48.232673116245003 14.219348669444104 4.8177615493019106 #
straight-curve $-1 -48.232673116245003 0 8.145656399686299 0 -1 0 I I #
vertex $-1 $692 $866 #
point $-1 -44.51977787687126 15.978108396536861 5.8820607187892699 #
vertex $-1 $696 $867 #
point $-1 -44.51977787687126 18.616247987175996 5.8820607187892699 #
straight-curve $-1 -48.232673116245003 27.049275221537471 0 0 0 -1 I I #
point $-1 -48.232673116245003 -27.049275221537471 -8.145656399686299 #
straight-curve $-1 -48.232673116245003 0 -8.145656399686299 0 1 0 I I #
point $-1 -48.232673116245003 27.049275221537471 -8.145656399686299 #
edge $-1 $733 -48.232673116245003 $825 48.232673116245003 $730 $868 forward 7 unknown #
straight-curve $-1 48.232673116245003 0 -8.145656399686299 0 -1 0 I I #
vertex $-1 $721 $869 #
straight-curve $-1 -48.232673116245003 0 -8.145656399686299 0 1 0 I I #
point $-1 -48.232673116245003 -20.375007714268762 -8.145656399686299 #
straight-curve $-1 -48.232673116245003 -20.375007714268762 -3.3228281998431495 0 0 -1 I I #
straight-curve $-1 -48.232673116245003 -27.049275221537471 0 0 0 -1 I I #
point $-1 48.232673116245003 -27.049275221537471 -8.145656399686299 #
coedge $-1 $737 $736 $745 $835 forward $376 $-1 #
point $-1 48.232673116245003 20.375007714268762 -8.145656399686299 #
vertex $-1 $835 $870 #
straight-curve $-1 -48.232673116245003 0 -8.145656399686299 0 1 0 I I #
edge $-1 $833 -48.232673116245003 $750 48.232673116245003 $745 $871 forward 7 unknown #
straight-curve $-1 -48.232673116245003 27.049275221537471 0 0 0 -1 I I #
straight-curve $-1 48.232673116245003 0 -8.145656399686299 0 -1 0 I I #
point $-1 48.232673116245003 27.049275221537471 -8.145656399686299 #
straight-curve $-1 48.232673116245003 3.182812819607765 68.801221939324279 0 0 -1 I I #
point $-1 48.232673116245003 3.182812819607765 8.145656399686299 #
straight-curve $-1 48.23267311624501 3.6304211008767737 3.2524091217964184 0 1 0 I I #
point $-1 48.232673116245003 3.182812819607765 3.2524091217964184 #
point $-1 45.290800774165561 7.2608422017535474 4.838668123639235 #
straight-curve $-1 -48.232673116245003 -14.219348669444111 43.752350796793863 0 0 -1 I I #
point $-1 -48.232673116245003 -14.219348669444111 8.145656399686299 #
straight-curve $-1 -48.232673116245003 -8.6485890959282195 4.8177615493019141 0 -1 0 I I #
point $-1 -48.232673116245003 -14.219348669444111 4.8177615493019106 #
point $-1 -44.690842484283358 -18.616247987176006 5.1959580296158894 #
point $-1 -44.690842484283358 -15.978108396536868 5.1959580296158894 #
straight-curve $-1 -48.232673116245003 -2.6878965415398199 43.752350796793863 0 0 -1 I I #
point $-1 -48.232673116245003 -2.6878965415398199 8.145656399686299 #
straight-curve $-1 -48.232673116245003 -2.8828630319760737 4.8177615493019141 0 -1 0 I I #
point $-1 -48.232673116245003 -2.6878965415398199 4.8177615493019106 #
point $-1 -44.690842484283358 -7.0847958592717148 5.1959580296158894 #
point $-1 -44.690842484283358 -4.4466562686325801 5.1959580296158894 #
straight-curve $-1 -48.232673116245003 8.8435555863644719 43.752350796793863 0 0 -1 I I #
point $-1 -48.232673116245003 8.8435555863644719 8.145656399686299 #
straight-curve $-1 -48.232673116245003 2.882863031976072 4.8177615493019141 0 -1 0 I I #
point $-1 -48.232673116245003 8.8435555863644719 4.8177615493019106 #
point $-1 -44.690842484283358 4.446656268632573 5.1959580296158894 #
point $-1 -44.690842484283358 7.0847958592717077 5.1959580296158894 #
straight-curve $-1 -48.232673116245003 20.375007714268758 43.752350796793863 0 0 -1 I I #
point $-1 -48.232673116245003 20.375007714268758 8.145656399686299 #
straight-curve $-1 -48.232673116245003 8.6485890959282159 4.8177615493019141 0 -1 0 I I #
point $-1 -48.232673116245003 20.375007714268758 4.8177615493019106 #
point $-1 -44.690842484283358 15.978108396536861 5.1959580296158894 #
point $-1 -44.690842484283358 18.616247987175996 5.1959580296158894 #
straight-curve $-1 0 -27.049275221537471 -8.145656399686299 -1 0 0 I I #
point $-1 -48.232673116245003 -27.049275221537471 -8.145656399686299 #
point $-1 -48.232673116245003 27.049275221537471 -8.145656399686299 #
straight-curve $-1 0 27.049275221537471 -8.145656399686299 1 0 0 I I #
End-of-ACIS-data 