500 0 6 0           
7 Unknown 11 ACIS 5.0 NT 24 Fri Mar 26 00:44:50 1999 
-1 9.9999999999999995e-007 1e-010 
body $-1 $6 $-1 $7 #
body $-1 $8 $-1 $9 #
body $-1 $10 $-1 $11 #
body $-1 $12 $-1 $13 #
body $-1 $14 $-1 $15 #
body $-1 $16 $-1 $17 #
lump $-1 $-1 $18 $0 #
transform $-1 1 0 0 0 1 0 0 0 1 77.873470259712519 38.691947159131125 10.680758093318671 1 rotate no_reflect no_shear #
lump $-1 $-1 $19 $1 #
transform $-1 1 0 0 0 1 0 0 0 1 77.873470259712519 38.691947159131125 10.680758093318671 1 rotate no_reflect no_shear #
lump $-1 $-1 $20 $2 #
transform $-1 1 0 0 0 1 0 0 0 1 77.873470259712519 38.691947159131125 10.680758093318671 1 rotate no_reflect no_shear #
lump $-1 $-1 $21 $3 #
transform $-1 1 0 0 0 1 0 0 0 1 77.873470259712519 38.691947159131125 10.680758093318671 1 rotate no_reflect no_shear #
lump $-1 $-1 $22 $4 #
transform $-1 1 0 0 0 1 0 0 0 1 77.873470259712519 38.691947159131125 10.680758093318671 1 rotate no_reflect no_shear #
lump $-1 $-1 $23 $5 #
transform $-1 1 0 0 0 1 0 0 0 1 77.873470259712519 38.691947159131125 10.680758093318671 1 rotate no_reflect no_shear #
shell $-1 $-1 $-1 $24 $-1 $6 #
shell $-1 $-1 $-1 $25 $-1 $8 #
shell $-1 $-1 $-1 $26 $-1 $10 #
shell $-1 $-1 $-1 $27 $-1 $12 #
shell $-1 $-1 $-1 $28 $-1 $14 #
shell $-1 $-1 $-1 $29 $-1 $16 #
face $-1 $30 $31 $18 $-1 $32 forward single #
face $-1 $33 $34 $19 $-1 $35 forward single #
face $-1 $36 $37 $20 $-1 $38 reversed single #
face $-1 $39 $40 $21 $-1 $41 forward single #
face $-1 $42 $43 $22 $-1 $44 reversed single #
face $-1 $45 $46 $23 $-1 $47 forward single #
face $-1 $48 $49 $18 $-1 $50 reversed single #
loop $-1 $-1 $51 $24 #
plane-surface $-1 0 0 10.680758093318671 0 0 1 1 0 0 forward_v I I I I #
face $-1 $52 $53 $19 $-1 $54 reversed single #
loop $-1 $-1 $55 $25 #
plane-surface $-1 0 -38.691947159131125 0 0 1 0 0 0 1 forward_v I I I I #
face $-1 $56 $57 $20 $-1 $58 reversed single #
loop $-1 $-1 $59 $26 #
plane-surface $-1 -188.00318932784157 15.749154763670937 115.12137713444 0 1 0 -0.70710678939079041 0 0.70710677298230451 forward_v I I I I #
face $-1 $60 $61 $21 $-1 $62 forward single #
loop $-1 $63 $64 $27 #
cone-surface $-1 -72.582846130624219 22.649464511702341 5.3901339549837566 0.70710678939079041 0 -0.70710677298230451 1.414213545964609 0 1.4142135787815808 1 I I 0 1 2 forward I I I I #
face $-1 $65 $66 $22 $-1 $67 reversed single #
loop $-1 $-1 $68 $28 #
plane-surface $-1 28.325879767370594 -5.6624594241237176 215.02112850621847 0 -1 0 -0.52991927123019833 0 -0.84804809178421925 forward_v I I I I #
face $-1 $69 $70 $23 $-1 $71 forward single #
loop $-1 $72 $73 $29 #
cone-surface $-1 68.264336097584732 -12.983508895843386 3.322016104601115 -0.52991927123019833 0 -0.84804809178421925 1.2720721376763289 0 -0.79487890684529749 1 I I 0 1 1.5 forward I I I I #
face $-1 $74 $75 $18 $-1 $76 reversed single #
loop $-1 $-1 $77 $30 #
plane-surface $-1 0 0 -10.680758093318671 0 0 1 1 0 0 forward_v I I I I #
coedge $-1 $78 $79 $80 $81 forward $31 $-1 #
face $-1 $82 $83 $19 $-1 $84 reversed single #
loop $-1 $-1 $85 $33 #
plane-surface $-1 0 0 -10.680758093318671 0 0 1 1 0 0 forward_v I I I I #
coedge $-1 $86 $87 $88 $89 forward $34 $-1 #
face $-1 $90 $91 $20 $-1 $92 reversed single #
loop $-1 $-1 $93 $36 #
plane-surface $-1 -77.873470259712519 22.649464511702341 4.9916606218824313 -0.70710678939079041 0 0.70710677298230451 0.70710677298230451 0 0.70710678939079041 forward_v I I I I #
coedge $-1 $94 $95 $96 $97 reversed $37 $-1 #
face $-1 $-1 $98 $21 $-1 $99 forward single #
loop $-1 $100 $101 $39 #
cone-surface $-1 -69.429663881855205 22.649464511702341 2.2369517793846665 0.70710678939079041 0 -0.70710677298230451 0.70710677298230451 0 0.70710678939079041 1 I I -0.70710678118654746 0.70710678118654746 1 forward I I I I #
loop $-1 $-1 $102 $27 #
coedge $-1 $64 $64 $103 $104 reversed $40 $-1 #
face $-1 $105 $106 $22 $-1 $107 reversed single #
loop $-1 $-1 $108 $42 #
plane-surface $-1 -54.207425449016171 -12.983508895843386 82.940232797489784 0.52991927123019833 0 0.84804809178421925 0.84804809178421925 0 -0.52991927123019833 forward_v I I I I #
coedge $-1 $109 $110 $111 $112 reversed $43 $-1 #
face $-1 $-1 $113 $23 $-1 $114 forward single #
loop $-1 $115 $116 $45 #
cone-surface $-1 66.478545188211996 -12.983508895843386 0.46415330315322656 -0.52991927123019833 0 -0.84804809178421925 0.63603606883816444 0 -0.39743945342264875 1 I I -0.70710678118654757 0.70710678118654757 0.75 forward I I I I #
loop $-1 $-1 $117 $29 #
coedge $-1 $73 $73 $118 $119 reversed $46 $-1 #
face $-1 $120 $121 $18 $-1 $122 reversed single #
loop $-1 $-1 $123 $48 #
plane-surface $-1 0 -38.691947159131125 0 0 1 0 0 0 1 forward_v I I I I #
coedge $-1 $124 $125 $126 $127 forward $49 $-1 #
coedge $-1 $128 $51 $129 $130 forward $31 $-1 #
coedge $-1 $51 $128 $131 $132 forward $31 $-1 #
coedge $-1 $133 $134 $51 $81 reversed $135 $-1 #
edge $-1 $136 -38.691947159131125 $137 38.691947159131125 $80 $138 forward 7 unknown #
face $-1 $139 $140 $19 $-1 $141 forward single #
loop $-1 $-1 $142 $52 #
plane-surface $-1 77.873470259712519 0 0 -1 0 0 0 0 1 forward_v I I I I #
coedge $-1 $143 $144 $145 $146 forward $53 $-1 #
coedge $-1 $145 $55 $142 $147 reversed $34 $-1 #
coedge $-1 $55 $145 $148 $149 reversed $34 $-1 #
coedge $-1 $150 $151 $55 $89 reversed $140 $-1 #
edge $-1 $152 -77.873470259712519 $153 77.873470259712519 $88 $154 forward 7 unknown #
face $-1 $155 $156 $20 $-1 $157 forward single #
loop $-1 $-1 $158 $56 #
plane-surface $-1 -188.00318932784157 29.549774259733745 115.12137713444 0 -1 0 0.70710678939079041 0 -0.70710677298230451 forward_v I I I I #
coedge $-1 $159 $160 $161 $162 reversed $57 $-1 #
coedge $-1 $95 $59 $163 $164 reversed $37 $-1 #
coedge $-1 $59 $94 $159 $165 reversed $37 $-1 #
coedge $-1 $161 $166 $59 $97 forward $156 $-1 #
edge $-1 $167 16.128124404208265 $168 21.817221743628409 $96 $169 forward 7 unknown #
loop $-1 $-1 $103 $60 #
plane-surface $-1 -77.873470259712519 22.649464511702341 4.9916606218824313 -0.70710678939079041 0 0.70710677298230451 0.70710677298230451 0 0.70710678939079041 forward_v I I I I #
loop $-1 $-1 $170 $39 #
coedge $-1 $101 $101 $102 $171 reversed $61 $-1 #
coedge $-1 $102 $102 $101 $171 forward $63 $-1 #
coedge $-1 $103 $103 $64 $104 forward $98 $-1 #
edge $-1 $172 0 $172 6.2831853071796004 $103 $173 forward 7 unknown #
face $-1 $174 $175 $22 $-1 $176 reversed single #
loop $-1 $-1 $177 $65 #
plane-surface $-1 28.325879767370594 -20.304558367563054 215.02112850621847 0 1 0 0.52991927123019833 0 0.84804809178421925 forward_v I I I I #
coedge $-1 $178 $179 $180 $181 reversed $66 $-1 #
coedge $-1 $110 $68 $182 $183 reversed $43 $-1 #
coedge $-1 $68 $109 $178 $184 reversed $43 $-1 #
coedge $-1 $180 $185 $68 $112 forward $186 $-1 #
edge $-1 $187 -63.710530376027222 $188 -47.268964963671891 $111 $189 forward 7 unknown #
loop $-1 $-1 $118 $69 #
plane-surface $-1 -54.207425449016171 -12.983508895843386 82.940232797489784 0.52991927123019833 0 0.84804809178421925 0.84804809178421925 0 -0.52991927123019833 forward_v I I I I #
loop $-1 $-1 $190 $45 #
coedge $-1 $116 $116 $117 $191 reversed $70 $-1 #
coedge $-1 $117 $117 $116 $191 forward $72 $-1 #
coedge $-1 $118 $118 $73 $119 forward $113 $-1 #
edge $-1 $192 0 $192 6.2831853071796004 $118 $193 forward 7 unknown #
face $-1 $194 $195 $18 $-1 $196 reversed single #
loop $-1 $-1 $197 $74 #
plane-surface $-1 -77.873470259712519 0 0 1 0 0 0 0 -1 forward_v I I I I #
coedge $-1 $198 $131 $199 $200 forward $75 $-1 #
coedge $-1 $201 $77 $198 $202 forward $49 $-1 #
coedge $-1 $77 $201 $203 $204 forward $49 $-1 #
coedge $-1 $134 $133 $77 $127 reversed $135 $-1 #
edge $-1 $205 -38.691947159131125 $206 38.691947159131125 $126 $207 forward 7 unknown #
coedge $-1 $79 $78 $208 $209 forward $31 $-1 #
coedge $-1 $210 $211 $78 $130 reversed $195 $-1 #
edge $-1 $137 -77.873470259712519 $212 77.873470259712519 $129 $213 forward 7 unknown #
coedge $-1 $123 $214 $79 $132 reversed $75 $-1 #
edge $-1 $215 -77.873470259712519 $136 77.873470259712519 $131 $216 forward 7 unknown #
coedge $-1 $126 $80 $214 $217 forward $135 $-1 #
coedge $-1 $80 $126 $210 $218 reversed $135 $-1 #
loop $-1 $-1 $133 $194 #
vertex $-1 $81 $219 #
vertex $-1 $81 $220 #
straight-curve $-1 77.873470259712519 0 10.680758093318671 0 1 0 I I #
face $-1 $221 $222 $19 $-1 $223 reversed single #
loop $-1 $-1 $151 $82 #
plane-surface $-1 0 -44.930084228588925 -4.4987808130358893 0 0 1 1 0 0 forward_v I I I I #
coedge $-1 $224 $225 $86 $147 forward $83 $-1 #
coedge $-1 $226 $85 $225 $227 forward $53 $-1 #
coedge $-1 $85 $226 $228 $229 forward $53 $-1 #
coedge $-1 $87 $86 $85 $146 reversed $34 $-1 #
edge $-1 $230 -77.873470259712519 $231 77.873470259712519 $85 $232 forward 7 unknown #
edge $-1 $231 -10.680758093318671 $153 -4.4987808130358893 $142 $233 forward 7 unknown #
coedge $-1 $228 $234 $87 $149 forward $235 $-1 #
edge $-1 $152 4.4987808130358893 $230 10.680758093318671 $148 $236 forward 7 unknown #
coedge $-1 $237 $88 $234 $238 forward $140 $-1 #
coedge $-1 $88 $237 $224 $239 forward $140 $-1 #
vertex $-1 $149 $240 #
vertex $-1 $239 $241 #
straight-curve $-1 0 -38.691947159131125 -4.4987808130358893 1 0 0 I I #
face $-1 $-1 $242 $20 $-1 $243 reversed single #
loop $-1 $-1 $96 $90 #
plane-surface $-1 0 0 10.680758093318671 0 0 1 1 0 0 forward_v I I I I #
coedge $-1 $244 $245 $246 $247 reversed $91 $-1 #
coedge $-1 $248 $93 $95 $165 forward $57 $-1 #
coedge $-1 $93 $248 $244 $249 forward $57 $-1 #
coedge $-1 $246 $96 $93 $162 forward $156 $-1 #
edge $-1 $168 4.4244225078197665 $250 18.225042003882574 $161 $251 forward 7 unknown #
coedge $-1 $252 $253 $94 $164 forward $242 $-1 #
edge $-1 $254 -52.569027945337567 $167 -46.879930473901325 $163 $255 forward 7 unknown #
edge $-1 $168 -8.0455987084181384 $254 0 $95 $256 forward 7 unknown #
coedge $-1 $96 $246 $252 $257 forward $156 $-1 #
vertex $-1 $164 $258 #
vertex $-1 $97 $259 #
straight-curve $-1 -94.001594663920784 15.749154763670937 10.680758093318673 1 0 0 I I #
coedge $-1 $170 $170 $-1 $260 reversed $100 $-1 #
edge $-1 $261 0 $261 6.2831853071796004 $101 $262 forward 7 unknown #
vertex $-1 $104 $263 #
ellipse-curve $-1 -75.02892159000244 22.649464511702341 7.8362093576005503 -0.70710678939079041 0 0.70710677298230451 1.414213545964609 0 1.4142135787815808 1 I I #
face $-1 $-1 $186 $22 $-1 $264 forward single #
loop $-1 $-1 $265 $105 #
plane-surface $-1 77.873470259712519 0 0 -1 0 0 0 0 1 forward_v I I I I #
coedge $-1 $266 $267 $268 $269 reversed $106 $-1 #
coedge $-1 $270 $108 $110 $184 forward $66 $-1 #
coedge $-1 $108 $270 $266 $271 forward $66 $-1 #
coedge $-1 $268 $111 $108 $181 forward $186 $-1 #
edge $-1 $188 -0.82929502379797526 $272 13.812803919641361 $180 $273 forward 7 unknown #
coedge $-1 $274 $275 $109 $183 forward $175 $-1 #
edge $-1 $276 -107.10363667200622 $187 -96.829806159790564 $182 $277 forward 7 unknown #
edge $-1 $188 136.35940156775578 $276 155.74694051942504 $110 $278 forward 7 unknown #
coedge $-1 $111 $268 $274 $279 forward $186 $-1 #
loop $-1 $-1 $268 $174 #
vertex $-1 $183 $280 #
vertex $-1 $112 $281 #
straight-curve $-1 14.162939883685297 -5.6624594241237176 10.680758093318673 -1 0 0 I I #
coedge $-1 $190 $190 $-1 $282 reversed $115 $-1 #
edge $-1 $283 0 $283 6.2831853071796004 $116 $284 forward 7 unknown #
vertex $-1 $119 $285 #
ellipse-curve $-1 69.652687553534832 -12.983508895843386 5.5438428372108532 0.52991927123019833 0 0.84804809178421925 1.2720721376763289 0 -0.79487890684529749 1 I I #
face $-1 $-1 $135 $18 $-1 $286 reversed single #
loop $-1 $-1 $210 $120 #
plane-surface $-1 0 38.691947159131125 0 0 -1 0 0 0 -1 forward_v I I I I #
coedge $-1 $287 $208 $211 $288 forward $121 $-1 #
coedge $-1 $214 $123 $124 $202 reversed $75 $-1 #
coedge $-1 $208 $287 $123 $200 reversed $121 $-1 #
edge $-1 $215 -10.680758093318671 $289 10.680758093318671 $199 $290 forward 7 unknown #
coedge $-1 $125 $124 $287 $291 forward $49 $-1 #
edge $-1 $206 -77.873470259712519 $289 77.873470259712519 $198 $292 forward 7 unknown #
coedge $-1 $211 $210 $125 $204 reversed $195 $-1 #
edge $-1 $293 -77.873470259712519 $205 77.873470259712519 $203 $294 forward 7 unknown #
vertex $-1 $127 $295 #
vertex $-1 $217 $296 #
straight-curve $-1 77.873470259712519 0 -10.680758093318671 0 -1 0 I I #
coedge $-1 $197 $199 $128 $209 reversed $121 $-1 #
edge $-1 $212 -38.691947159131125 $215 38.691947159131125 $208 $297 forward 7 unknown #
coedge $-1 $203 $129 $134 $218 forward $195 $-1 #
coedge $-1 $129 $203 $197 $288 reversed $195 $-1 #
vertex $-1 $130 $298 #
straight-curve $-1 0 38.691947159131125 10.680758093318671 -1 0 0 I I #
coedge $-1 $131 $198 $133 $217 reversed $75 $-1 #
vertex $-1 $209 $299 #
straight-curve $-1 0 -38.691947159131125 10.680758093318671 1 0 0 I I #
edge $-1 $136 -10.680758093318671 $206 10.680758093318671 $133 $300 forward 7 unknown #
edge $-1 $137 -10.680758093318671 $205 10.680758093318671 $134 $301 forward 7 unknown #
point $-1 77.873470259712519 -38.691947159131125 10.680758093318671 #
point $-1 77.873470259712519 38.691947159131125 10.680758093318671 #
face $-1 $-1 $235 $19 $-1 $302 reversed single #
loop $-1 $-1 $303 $139 #
plane-surface $-1 0 -51.168221298046731 -7.5897694531772801 0 1 0 0 0 1 forward_v I I I I #
coedge $-1 $304 $142 $151 $239 reversed $83 $-1 #
coedge $-1 $142 $304 $143 $227 reversed $83 $-1 #
coedge $-1 $144 $143 $305 $306 forward $53 $-1 #
edge $-1 $231 38.691947159131125 $307 51.168221298046731 $225 $308 forward 7 unknown #
coedge $-1 $309 $148 $144 $229 reversed $235 $-1 #
edge $-1 $310 -51.168221298046731 $230 -38.691947159131125 $228 $311 forward 7 unknown #
vertex $-1 $149 $312 #
vertex $-1 $227 $313 #
straight-curve $-1 0 -38.691947159131125 -10.680758093318671 1 0 0 I I #
straight-curve $-1 77.873470259712519 -38.691947159131125 0 0 0 1 I I #
coedge $-1 $148 $309 $150 $238 reversed $235 $-1 #
loop $-1 $-1 $148 $221 #
straight-curve $-1 -77.873470259712519 -38.691947159131125 0 0 0 -1 I I #
coedge $-1 $151 $150 $314 $315 forward $140 $-1 #
edge $-1 $152 -6.2381370694578067 $316 6.2381370694578067 $234 $317 forward 7 unknown #
edge $-1 $318 -6.2381370694578067 $153 6.2381370694578067 $224 $319 forward 7 unknown #
point $-1 -77.873470259712519 -38.691947159131118 -4.4987808130358893 #
point $-1 77.873470259712519 -38.691947159131118 -4.4987808130358893 #
loop $-1 $-1 $163 $155 #
plane-surface $-1 -77.873470259712519 0 0 1 0 0 0 0 -1 forward_v I I I I #
coedge $-1 $245 $158 $160 $249 reversed $91 $-1 #
coedge $-1 $158 $244 $320 $321 reversed $91 $-1 #
coedge $-1 $166 $161 $158 $247 forward $156 $-1 #
edge $-1 $250 -21.817221743628409 $322 -16.128124404208265 $246 $323 forward 7 unknown #
coedge $-1 $160 $159 $253 $324 reversed $57 $-1 #
edge $-1 $325 0 $250 8.0455987084181384 $244 $326 forward 7 unknown #
vertex $-1 $162 $327 #
straight-curve $-1 -72.184372920292375 11.32473225585117 10.680758093318669 0 1 0 I I #
coedge $-1 $320 $163 $166 $257 reversed $242 $-1 #
coedge $-1 $163 $320 $248 $324 forward $242 $-1 #
vertex $-1 $164 $328 #
straight-curve $-1 -77.873470259712519 15.749154763670937 57.560688567219998 0 0 1 I I #
straight-curve $-1 -77.873470259712519 15.749154763670937 4.9916606218824313 -0.70710677298230451 0 -0.70710678939079041 I I #
edge $-1 $322 -29.549774259733745 $167 -15.749154763670937 $252 $329 forward 7 unknown #
point $-1 -77.873470259712519 15.749154763670937 10.680758093318671 #
point $-1 -72.184372920292375 15.749154763670937 10.680758093318671 #
edge $-1 $330 1 $330 0 $170 $-1 forward 7 unknown #
vertex $-1 $171 $331 #
ellipse-curve $-1 -70.136770671245998 22.649464511702341 2.9440585523669709 -0.70710678939079041 0 0.70710677298230451 1.414213545964609 0 1.4142135787815808 1 I I #
point $-1 -73.614708044037826 22.649464511702341 9.2504229363821224 #
plane-surface $-1 0 0 10.680758093318671 0 0 1 1 0 0 forward_v I I I I #
coedge $-1 $275 $274 $267 $332 forward $175 $-1 #
coedge $-1 $267 $177 $179 $271 reversed $106 $-1 #
coedge $-1 $177 $266 $265 $332 reversed $106 $-1 #
coedge $-1 $185 $180 $177 $269 forward $186 $-1 #
edge $-1 $272 47.268964963671891 $333 63.710530376027222 $268 $334 forward 7 unknown #
coedge $-1 $179 $178 $275 $335 reversed $66 $-1 #
edge $-1 $336 -155.74694051942504 $272 -136.35940156775578 $266 $337 forward 7 unknown #
vertex $-1 $181 $338 #
straight-curve $-1 61.43190484735721 -6.4917544479216929 10.680758093318666 0 -1 0 I I #
coedge $-1 $265 $182 $185 $279 reversed $175 $-1 #
coedge $-1 $182 $265 $270 $335 forward $175 $-1 #
vertex $-1 $183 $339 #
straight-curve $-1 77.873470259712519 -5.6624594241237176 107.51056425310924 0 0 1 I I #
straight-curve $-1 -54.207425449016171 -5.6624594241237176 82.940232797489784 0.84804809178421925 0 -0.52991927123019833 I I #
edge $-1 $333 -20.304558367563054 $187 -5.6624594241237176 $274 $340 forward 7 unknown #
point $-1 77.873470259712519 -5.6624594241237176 10.680758093318671 #
point $-1 61.431904847357188 -5.6624594241237176 10.680758093318673 #
edge $-1 $341 1 $341 0 $190 $-1 forward 7 unknown #
vertex $-1 $191 $342 #
ellipse-curve $-1 66.875984641634645 -12.983508895843386 1.1001893719913909 0.52991927123019833 0 0.84804809178421925 1.2720721376763289 0 -0.79487890684529749 1 I I #
point $-1 70.92475969121115 -12.983508895843386 4.7489639303655418 #
plane-surface $-1 77.873470259712519 0 0 -1 0 0 0 0 1 forward_v I I I I #
coedge $-1 $199 $197 $201 $291 reversed $121 $-1 #
edge $-1 $212 -10.680758093318671 $293 10.680758093318671 $211 $343 forward 7 unknown #
vertex $-1 $291 $344 #
straight-curve $-1 -77.873470259712519 -38.691947159131125 0 0 0 -1 I I #
edge $-1 $289 -38.691947159131125 $293 38.691947159131125 $287 $345 forward 7 unknown #
straight-curve $-1 0 -38.691947159131125 -10.680758093318671 -1 0 0 I I #
vertex $-1 $204 $346 #
straight-curve $-1 0 38.691947159131125 -10.680758093318671 1 0 0 I I #
point $-1 77.873470259712519 38.691947159131125 -10.680758093318671 #
point $-1 77.873470259712519 -38.691947159131125 -10.680758093318671 #
straight-curve $-1 -77.873470259712519 0 10.680758093318671 0 -1 0 I I #
point $-1 -77.873470259712519 38.691947159131125 10.680758093318671 #
point $-1 -77.873470259712519 -38.691947159131125 10.680758093318671 #
straight-curve $-1 77.873470259712519 -38.691947159131125 0 0 0 -1 I I #
straight-curve $-1 77.873470259712519 38.691947159131125 0 0 0 -1 I I #
plane-surface $-1 -77.873470259712519 0 0 1 0 0 0 0 -1 forward_v I I I I #
coedge $-1 $305 $314 $309 $347 forward $222 $-1 #
coedge $-1 $225 $224 $348 $349 forward $83 $-1 #
coedge $-1 $348 $303 $226 $306 reversed $222 $-1 #
edge $-1 $307 -77.873470259712519 $310 77.873470259712519 $305 $350 forward 7 unknown #
vertex $-1 $349 $351 #
straight-curve $-1 77.873470259712519 0 -10.680758093318671 0 -1 0 I I #
coedge $-1 $234 $228 $303 $347 reversed $235 $-1 #
vertex $-1 $229 $352 #
straight-curve $-1 -77.873470259712519 0 -10.680758093318671 0 1 0 I I #
point $-1 -77.873470259712519 -38.691947159131125 -10.680758093318671 #
point $-1 77.873470259712519 -38.691947159131125 -10.680758093318671 #
coedge $-1 $303 $348 $237 $315 reversed $222 $-1 #
edge $-1 $316 -77.873470259712519 $318 77.873470259712519 $314 $353 forward 7 unknown #
vertex $-1 $238 $354 #
straight-curve $-1 -77.873470259712519 -44.930084228588925 -4.4987808130358893 0 -1 0 I I #
vertex $-1 $239 $355 #
straight-curve $-1 77.873470259712519 -44.930084228588925 -4.4987808130358893 0 1 0 I I #
coedge $-1 $253 $252 $245 $321 forward $242 $-1 #
edge $-1 $322 46.879930473901325 $325 52.569027945337567 $320 $356 forward 7 unknown #
vertex $-1 $257 $357 #
straight-curve $-1 -94.001594663920784 29.549774259733745 10.680758093318673 -1 0 0 I I #
edge $-1 $325 -18.225042003882574 $254 -4.4244225078197665 $253 $358 forward 7 unknown #
vertex $-1 $324 $359 #
straight-curve $-1 -77.873470259712519 29.549774259733745 4.9916606218824313 0.70710677298230451 0 0.70710678939079041 I I #
point $-1 -72.184372920292375 29.549774259733745 10.680758093318671 #
point $-1 -77.873470259712519 15.749154763670937 4.9916606218824313 #
straight-curve $-1 -77.873470259712519 0 10.680758093318671 0 -1 0 I I #
vertex $-1 $260 $360 #
point $-1 -68.722557125281384 22.649464511702341 4.3582721311485519 #
edge $-1 $333 96.829806159790564 $336 107.10363667200622 $265 $361 forward 7 unknown #
vertex $-1 $279 $362 #
straight-curve $-1 14.162939883685297 -20.304558367563054 10.680758093318673 1 0 0 I I #
edge $-1 $336 -13.812803919641361 $276 0.82929502379797526 $275 $363 forward 7 unknown #
vertex $-1 $335 $364 #
straight-curve $-1 -54.207425449016171 -20.304558367563054 82.940232797489784 -0.84804809178421925 0 0.52991927123019833 I I #
point $-1 61.431904847357188 -20.304558367563054 10.680758093318673 #
point $-1 77.873470259712519 -5.6624594241237176 0.40692758110301952 #
straight-curve $-1 77.873470259712519 0 10.680758093318671 0 1 0 I I #
vertex $-1 $282 $365 #
point $-1 68.148056779310977 -12.983508895843386 0.3053104651460935 #
straight-curve $-1 -77.873470259712519 38.691947159131125 0 0 0 -1 I I #
point $-1 -77.873470259712519 -38.691947159131125 -10.680758093318671 #
straight-curve $-1 -77.873470259712519 0 -10.680758093318671 0 1 0 I I #
point $-1 -77.873470259712519 38.691947159131125 -10.680758093318671 #
edge $-1 $316 -3.0909886401413909 $310 3.0909886401413909 $309 $366 forward 7 unknown #
coedge $-1 $314 $305 $304 $349 reversed $222 $-1 #
edge $-1 $318 -3.0909886401413909 $307 3.0909886401413909 $304 $367 forward 7 unknown #
straight-curve $-1 0 -51.168221298046731 -10.680758093318671 -1 0 0 I I #
point $-1 77.873470259712519 -51.168221298046731 -10.680758093318671 #
point $-1 -77.873470259712519 -51.168221298046731 -10.680758093318671 #
straight-curve $-1 0 -51.168221298046731 -4.4987808130358893 1 0 0 I I #
point $-1 -77.873470259712519 -51.168221298046731 -4.4987808130358893 #
point $-1 77.873470259712519 -51.168221298046731 -4.4987808130358893 #
straight-curve $-1 -77.873470259712519 29.549774259733745 57.560688567219998 0 0 -1 I I #
point $-1 -77.873470259712519 29.549774259733745 10.680758093318671 #
straight-curve $-1 -77.873470259712519 11.32473225585117 4.9916606218824313 0 -1 0 I I #
point $-1 -77.873470259712519 29.549774259733745 4.9916606218824313 #
point $-1 -68.722557092464413 22.649464511702341 1.5298450064023621 #
straight-curve $-1 77.873470259712519 -20.304558367563054 107.51056425310924 0 0 -1 I I #
point $-1 77.873470259712519 -20.304558367563054 10.680758093318671 #
straight-curve $-1 77.873470259712533 -6.4917544479216929 0.40692758110302663 0 1 0 I I #
point $-1 77.873470259712519 -20.304558367563054 0.40692758110301952 #
point $-1 66.081105734789347 -12.983508895843386 -0.17188276568493788 #
straight-curve $-1 -77.873470259712519 -51.168221298046731 -7.5897694531772801 0 0 -1 I I #
straight-curve $-1 77.873470259712519 -51.168221298046731 -7.5897694531772801 0 0 -1 I I #
End-of-ACIS-data 