500 0 6 0           
7 Unknown 11 ACIS 5.0 NT 24 Fri Mar 26 17:13:07 1999 
-1 9.9999999999999995e-007 1e-010 
body $-1 $6 $-1 $7 #
body $-1 $8 $-1 $9 #
body $-1 $10 $-1 $11 #
body $-1 $12 $-1 $13 #
body $-1 $14 $-1 $15 #
body $-1 $16 $-1 $17 #
lump $-1 $-1 $18 $0 #
transform $-1 1 0 0 0 1 0 0 0 1 71.850337229529714 49.592674091361999 19.879447482382322 1 rotate no_reflect no_shear #
lump $-1 $-1 $19 $1 #
transform $-1 1 0 0 0 1 0 0 0 1 71.850337229529714 49.592674091361999 19.879447482382322 1 rotate no_reflect no_shear #
lump $-1 $-1 $20 $2 #
transform $-1 1 0 0 0 1 0 0 0 1 71.850337229529714 49.592674091361999 19.879447482382322 1 rotate no_reflect no_shear #
lump $-1 $-1 $21 $3 #
transform $-1 1 0 0 0 1 0 0 0 1 71.850337229529714 49.592674091361999 19.879447482382322 1 rotate no_reflect no_shear #
lump $-1 $-1 $22 $4 #
transform $-1 1 0 0 0 1 0 0 0 1 71.850337229529714 49.592674091361999 19.879447482382322 1 rotate no_reflect no_shear #
lump $-1 $-1 $23 $5 #
transform $-1 1 0 0 0 1 0 0 0 1 71.850337229529714 49.592674091361999 19.879447482382322 1 rotate no_reflect no_shear #
shell $-1 $-1 $-1 $24 $-1 $6 #
shell $-1 $-1 $-1 $25 $-1 $8 #
shell $-1 $-1 $-1 $26 $-1 $10 #
shell $-1 $-1 $-1 $27 $-1 $12 #
shell $-1 $-1 $-1 $28 $-1 $14 #
shell $-1 $-1 $-1 $29 $-1 $16 #
face $-1 $30 $31 $18 $-1 $32 forward single #
face $-1 $33 $34 $19 $-1 $35 forward single #
face $-1 $36 $37 $20 $-1 $38 reversed single #
face $-1 $39 $40 $21 $-1 $41 forward single #
face $-1 $42 $43 $22 $-1 $44 forward single #
face $-1 $45 $46 $23 $-1 $47 forward single #
face $-1 $48 $49 $18 $-1 $50 reversed single #
loop $-1 $-1 $51 $24 #
plane-surface $-1 0 0 19.879447482382322 0 0 1 1 0 0 forward_v I I I I #
face $-1 $52 $53 $19 $-1 $54 reversed single #
loop $-1 $-1 $55 $25 #
plane-surface $-1 -71.850337229529714 0 0 1 0 0 0 0 -1 forward_v I I I I #
face $-1 $56 $57 $20 $-1 $58 reversed single #
loop $-1 $-1 $59 $26 #
plane-surface $-1 -29.132482483248801 118.89753314770584 174.67410299303148 1 0 0 0 -0.84804810408105047 -0.52991925155115449 forward_v I I I I #
face $-1 $60 $61 $21 $-1 $62 forward single #
loop $-1 $63 $64 $27 #
cone-surface $-1 -25.643091605026967 47.37642527250938 16.827785370670924 0 -0.84804810408105047 -0.52991925155115449 1 0 0 1 I I 0 1 1 forward I I I I #
face $-1 $65 $66 $22 $-1 $67 forward single #
loop $-1 $68 $69 $28 #
cone-surface $-1 -20.409005287694221 47.37642527250938 16.827785370670924 0 -0.84804810408105047 -0.52991925155115449 1 0 0 1 I I 0 1 1 forward I I I I #
face $-1 $70 $71 $23 $-1 $72 forward single #
loop $-1 $73 $74 $29 #
cone-surface $-1 -15.174918970361475 47.37642527250938 16.827785370670924 0 -0.84804810408105047 -0.52991925155115449 1 0 0 1 I I 0 1 1 forward I I I I #
face $-1 $75 $76 $18 $-1 $77 reversed single #
loop $-1 $-1 $78 $30 #
plane-surface $-1 0 0 -19.879447482382322 0 0 1 1 0 0 forward_v I I I I #
coedge $-1 $79 $80 $81 $82 forward $31 $-1 #
face $-1 $83 $84 $19 $-1 $85 forward single #
loop $-1 $-1 $86 $33 #
plane-surface $-1 0 49.592674091361999 0 0 -1 0 0 0 -1 forward_v I I I I #
coedge $-1 $87 $88 $89 $90 forward $34 $-1 #
face $-1 $91 $92 $20 $-1 $93 reversed single #
loop $-1 $-1 $94 $36 #
plane-surface $-1 -20.409005287694221 -2.9675513824677324 98.52434913629061 0 0.84804810408105047 0.52991925155115449 1 0 0 forward_v I I I I #
coedge $-1 $95 $96 $97 $98 reversed $37 $-1 #
face $-1 $-1 $99 $21 $-1 $100 forward single #
loop $-1 $101 $102 $39 #
cone-surface $-1 -25.643091605026967 46.444871592458071 16.245686045718795 0 -0.84804810408105047 -0.52991925155115449 0.5 0 0 1 I I -0.70710678118654746 0.70710678118654746 0.5 forward I I I I #
loop $-1 $-1 $103 $27 #
coedge $-1 $64 $64 $104 $105 reversed $40 $-1 #
face $-1 $-1 $106 $22 $-1 $107 forward single #
loop $-1 $108 $109 $42 #
cone-surface $-1 -20.409005287694221 46.444871592458071 16.245686045718795 0 -0.84804810408105047 -0.52991925155115449 0.5 0 0 1 I I -0.70710678118654746 0.70710678118654746 0.5 forward I I I I #
loop $-1 $-1 $110 $28 #
coedge $-1 $69 $69 $111 $112 reversed $43 $-1 #
face $-1 $-1 $113 $23 $-1 $114 forward single #
loop $-1 $115 $116 $45 #
cone-surface $-1 -15.174918970361475 46.444871592458071 16.245686045718795 0 -0.84804810408105047 -0.52991925155115449 0.5 0 0 1 I I -0.70710678118654746 0.70710678118654746 0.5 forward I I I I #
loop $-1 $-1 $117 $29 #
coedge $-1 $74 $74 $118 $119 reversed $46 $-1 #
face $-1 $120 $121 $18 $-1 $122 reversed single #
loop $-1 $-1 $123 $48 #
plane-surface $-1 0 -49.592674091361999 0 0 1 0 0 0 1 forward_v I I I I #
coedge $-1 $124 $125 $126 $127 forward $49 $-1 #
coedge $-1 $128 $51 $129 $130 forward $31 $-1 #
coedge $-1 $51 $128 $131 $132 forward $31 $-1 #
coedge $-1 $133 $134 $51 $82 reversed $135 $-1 #
edge $-1 $136 -49.592674091361999 $137 49.592674091361999 $81 $138 forward 7 unknown #
face $-1 $139 $140 $19 $-1 $141 reversed single #
loop $-1 $-1 $89 $52 #
plane-surface $-1 -84.748341407574102 0 11.005359383635932 0 0 1 1 0 0 forward_v I I I I #
coedge $-1 $142 $143 $88 $144 forward $53 $-1 #
coedge $-1 $145 $55 $146 $147 reversed $34 $-1 #
coedge $-1 $55 $145 $86 $144 reversed $34 $-1 #
coedge $-1 $148 $149 $55 $90 reversed $84 $-1 #
edge $-1 $150 -49.592674091361999 $151 49.592674091361999 $89 $152 forward 7 unknown #
face $-1 $153 $154 $20 $-1 $155 forward single #
loop $-1 $-1 $156 $56 #
plane-surface $-1 -11.685528092139641 118.89753314770584 174.67410299303148 -1 0 0 0 0.84804810408105047 0.52991925155115449 forward_v I I I I #
coedge $-1 $157 $158 $159 $160 reversed $57 $-1 #
coedge $-1 $96 $59 $161 $162 reversed $37 $-1 #
coedge $-1 $59 $95 $157 $163 reversed $37 $-1 #
coedge $-1 $159 $164 $59 $98 forward $154 $-1 #
edge $-1 $165 9.8560924824909222 $166 13.273530864174532 $97 $167 forward 7 unknown #
loop $-1 $-1 $104 $60 #
plane-surface $-1 -20.409005287694221 -2.9675513824677324 98.52434913629061 0 0.84804810408105047 0.52991925155115449 1 0 0 forward_v I I I I #
loop $-1 $-1 $168 $39 #
coedge $-1 $102 $102 $103 $169 reversed $61 $-1 #
coedge $-1 $103 $103 $102 $169 forward $63 $-1 #
coedge $-1 $104 $104 $64 $105 forward $99 $-1 #
edge $-1 $170 -7.4928113855762938e-016 $170 6.2831853071795996 $104 $171 forward 7 unknown #
loop $-1 $-1 $111 $65 #
plane-surface $-1 -20.409005287694221 -2.9675513824677324 98.52434913629061 0 0.84804810408105047 0.52991925155115449 1 0 0 forward_v I I I I #
loop $-1 $-1 $172 $42 #
coedge $-1 $109 $109 $110 $173 reversed $66 $-1 #
coedge $-1 $110 $110 $109 $173 forward $68 $-1 #
coedge $-1 $111 $111 $69 $112 forward $106 $-1 #
edge $-1 $174 -7.4928113855762938e-016 $174 6.2831853071795996 $111 $175 forward 7 unknown #
loop $-1 $-1 $118 $70 #
plane-surface $-1 -20.409005287694221 -2.9675513824677324 98.52434913629061 0 0.84804810408105047 0.52991925155115449 1 0 0 forward_v I I I I #
loop $-1 $-1 $176 $45 #
coedge $-1 $116 $116 $117 $177 reversed $71 $-1 #
coedge $-1 $117 $117 $116 $177 forward $73 $-1 #
coedge $-1 $118 $118 $74 $119 forward $113 $-1 #
edge $-1 $178 -7.4928113855762938e-016 $178 6.2831853071795996 $118 $179 forward 7 unknown #
face $-1 $180 $181 $18 $-1 $182 reversed single #
loop $-1 $-1 $183 $75 #
plane-surface $-1 -71.850337229529714 0 0 1 0 0 0 0 -1 forward_v I I I I #
coedge $-1 $184 $131 $185 $186 forward $76 $-1 #
coedge $-1 $187 $78 $184 $188 forward $49 $-1 #
coedge $-1 $78 $187 $189 $190 forward $49 $-1 #
coedge $-1 $134 $133 $78 $127 reversed $135 $-1 #
edge $-1 $191 -49.592674091361999 $192 49.592674091361999 $126 $193 forward 7 unknown #
coedge $-1 $80 $79 $194 $195 forward $31 $-1 #
coedge $-1 $196 $197 $79 $130 reversed $181 $-1 #
edge $-1 $137 -71.850337229529714 $198 71.850337229529714 $129 $199 forward 7 unknown #
coedge $-1 $123 $200 $80 $132 reversed $76 $-1 #
edge $-1 $201 -71.850337229529714 $136 71.850337229529714 $131 $202 forward 7 unknown #
coedge $-1 $126 $81 $200 $203 forward $135 $-1 #
coedge $-1 $81 $126 $196 $204 reversed $135 $-1 #
loop $-1 $-1 $133 $180 #
vertex $-1 $82 $205 #
vertex $-1 $82 $206 #
straight-curve $-1 71.850337229529714 0 19.879447482382322 0 1 0 I I #
face $-1 $207 $208 $19 $-1 $209 reversed single #
loop $-1 $-1 $210 $83 #
plane-surface $-1 -84.748341407574102 0 0.62087039236589625 0 0 1 1 0 0 forward_v I I I I #
coedge $-1 $211 $86 $212 $213 reversed $53 $-1 #
coedge $-1 $86 $211 $148 $214 reversed $53 $-1 #
edge $-1 $150 -11.005359383635932 $215 -0.62087039236589625 $86 $216 forward 7 unknown #
coedge $-1 $88 $87 $210 $217 forward $34 $-1 #
coedge $-1 $218 $219 $87 $147 forward $220 $-1 #
edge $-1 $221 0.62087039236589625 $151 11.005359383635932 $146 $222 forward 7 unknown #
coedge $-1 $223 $89 $143 $214 forward $84 $-1 #
coedge $-1 $89 $223 $218 $224 forward $84 $-1 #
vertex $-1 $144 $225 #
vertex $-1 $224 $226 #
straight-curve $-1 -71.850337229529714 0 11.005359383635932 0 -1 0 I I #
face $-1 $-1 $227 $20 $-1 $228 reversed single #
loop $-1 $-1 $97 $91 #
plane-surface $-1 0 0 19.879447482382322 0 0 1 1 0 0 forward_v I I I I #
coedge $-1 $229 $230 $231 $232 reversed $92 $-1 #
coedge $-1 $233 $94 $96 $163 forward $57 $-1 #
coedge $-1 $94 $233 $229 $234 forward $57 $-1 #
coedge $-1 $231 $97 $94 $160 forward $154 $-1 #
edge $-1 $166 -18.92797983940169 $235 -1.4810254482925309 $159 $236 forward 7 unknown #
coedge $-1 $237 $238 $95 $162 forward $227 $-1 #
edge $-1 $239 -72.92664883920304 $165 -67.457604014133423 $161 $240 forward 7 unknown #
edge $-1 $166 92.7363686982454 $239 99.185348182723942 $96 $241 forward 7 unknown #
coedge $-1 $97 $231 $237 $242 forward $154 $-1 #
vertex $-1 $162 $243 #
vertex $-1 $98 $244 #
straight-curve $-1 -29.132482483248801 59.448766573852922 19.879447482382318 0 -1 0 I I #
coedge $-1 $168 $168 $-1 $245 reversed $101 $-1 #
edge $-1 $246 0 $246 6.2831853071796004 $102 $247 forward 7 unknown #
vertex $-1 $105 $248 #
ellipse-curve $-1 -25.643091605026967 47.883954900520202 17.144925069847499 0 0.84804810408105047 0.52991925155115449 1 0 0 1 I I #
coedge $-1 $172 $172 $-1 $249 reversed $108 $-1 #
edge $-1 $250 0 $250 6.2831853071796004 $109 $251 forward 7 unknown #
vertex $-1 $112 $252 #
ellipse-curve $-1 -20.409005287694221 47.883954900520202 17.144925069847499 0 0.84804810408105047 0.52991925155115449 1 0 0 1 I I #
coedge $-1 $176 $176 $-1 $253 reversed $115 $-1 #
edge $-1 $254 0 $254 6.2831853071796004 $116 $255 forward 7 unknown #
vertex $-1 $119 $256 #
ellipse-curve $-1 -15.174918970361475 47.883954900520202 17.144925069847499 0 0.84804810408105047 0.52991925155115449 1 0 0 1 I I #
face $-1 $-1 $135 $18 $-1 $257 reversed single #
loop $-1 $-1 $196 $120 #
plane-surface $-1 0 49.592674091361999 0 0 -1 0 0 0 -1 forward_v I I I I #
coedge $-1 $258 $194 $197 $259 forward $121 $-1 #
coedge $-1 $200 $123 $124 $188 reversed $76 $-1 #
coedge $-1 $194 $258 $123 $186 reversed $121 $-1 #
edge $-1 $201 -19.879447482382322 $260 19.879447482382322 $185 $261 forward 7 unknown #
coedge $-1 $125 $124 $258 $262 forward $49 $-1 #
edge $-1 $192 -71.850337229529714 $260 71.850337229529714 $184 $263 forward 7 unknown #
coedge $-1 $197 $196 $125 $190 reversed $181 $-1 #
edge $-1 $264 -71.850337229529714 $191 71.850337229529714 $189 $265 forward 7 unknown #
vertex $-1 $127 $266 #
vertex $-1 $203 $267 #
straight-curve $-1 71.850337229529714 0 -19.879447482382322 0 -1 0 I I #
coedge $-1 $183 $185 $128 $195 reversed $121 $-1 #
edge $-1 $198 -49.592674091361999 $201 49.592674091361999 $194 $268 forward 7 unknown #
coedge $-1 $189 $129 $134 $204 forward $181 $-1 #
coedge $-1 $129 $189 $183 $259 reversed $181 $-1 #
vertex $-1 $130 $269 #
straight-curve $-1 0 49.592674091361999 19.879447482382322 -1 0 0 I I #
coedge $-1 $131 $184 $133 $203 reversed $76 $-1 #
vertex $-1 $195 $270 #
straight-curve $-1 0 -49.592674091361999 19.879447482382322 1 0 0 I I #
edge $-1 $136 -19.879447482382322 $192 19.879447482382322 $133 $271 forward 7 unknown #
edge $-1 $137 -19.879447482382322 $191 19.879447482382322 $134 $272 forward 7 unknown #
point $-1 71.850337229529714 -49.592674091361999 19.879447482382322 #
point $-1 71.850337229529714 49.592674091361999 19.879447482382322 #
face $-1 $-1 $220 $19 $-1 $273 reversed single #
loop $-1 $-1 $274 $139 #
plane-surface $-1 -97.646345585618491 0 5.8131148880009142 1 0 0 0 0 -1 forward_v I I I I #
coedge $-1 $275 $212 $145 $217 reversed $140 $-1 #
coedge $-1 $143 $142 $274 $276 reversed $53 $-1 #
coedge $-1 $210 $277 $142 $213 forward $140 $-1 #
edge $-1 $278 -12.898004178044388 $215 12.898004178044388 $142 $279 forward 7 unknown #
edge $-1 $150 -12.898004178044388 $280 12.898004178044388 $143 $281 forward 7 unknown #
vertex $-1 $144 $282 #
straight-curve $-1 -71.850337229529714 49.592674091361999 0 0 0 -1 I I #
edge $-1 $221 -49.592674091361999 $215 49.592674091361999 $210 $283 forward 7 unknown #
coedge $-1 $284 $146 $149 $224 reversed $220 $-1 #
coedge $-1 $146 $284 $275 $285 reversed $220 $-1 #
loop $-1 $-1 $146 $207 #
vertex $-1 $147 $286 #
straight-curve $-1 -71.850337229529714 -49.592674091361999 0 0 0 1 I I #
coedge $-1 $149 $148 $287 $288 forward $84 $-1 #
edge $-1 $289 -12.898004178044388 $151 12.898004178044388 $218 $290 forward 7 unknown #
point $-1 -71.850337229529714 49.592674091361999 11.005359383635932 #
point $-1 -71.850337229529714 -49.592674091361999 11.005359383635932 #
loop $-1 $-1 $161 $153 #
plane-surface $-1 0 49.592674091361999 0 0 -1 0 0 0 -1 forward_v I I I I #
coedge $-1 $230 $156 $158 $234 reversed $92 $-1 #
coedge $-1 $156 $229 $291 $292 reversed $92 $-1 #
coedge $-1 $164 $159 $156 $232 forward $154 $-1 #
edge $-1 $235 -13.273530864174532 $293 -9.8560924824909222 $231 $294 forward 7 unknown #
coedge $-1 $158 $157 $238 $295 reversed $57 $-1 #
edge $-1 $296 -99.185348182723942 $235 -92.7363686982454 $229 $297 forward 7 unknown #
vertex $-1 $160 $298 #
straight-curve $-1 -10.20450264384711 46.175235709678383 19.879447482382318 1 0 0 I I #
coedge $-1 $291 $161 $164 $242 reversed $227 $-1 #
coedge $-1 $161 $291 $233 $295 forward $227 $-1 #
vertex $-1 $162 $299 #
straight-curve $-1 -29.132482483248801 49.592674091361999 87.337051496515741 0 0 1 I I #
straight-curve $-1 -29.132482483248801 -2.9675513824677324 98.52434913629061 0 0.52991925155115449 -0.84804810408105047 I I #
edge $-1 $293 11.685528092139641 $165 29.132482483248801 $237 $300 forward 7 unknown #
point $-1 -29.132482483248801 49.592674091361999 19.879447482382322 #
point $-1 -29.132482483248801 46.17523570967839 19.879447482382318 #
edge $-1 $301 1 $301 0 $168 $-1 forward 7 unknown #
vertex $-1 $169 $302 #
ellipse-curve $-1 -25.643091605026967 46.868895644498593 16.510645671494373 0 0.84804810408105047 0.52991925155115449 1 0 0 1 I I #
point $-1 -24.643091605026967 47.883954900520166 17.144925069847478 #
edge $-1 $303 1 $303 0 $172 $-1 forward 7 unknown #
vertex $-1 $173 $304 #
ellipse-curve $-1 -20.409005287694221 46.868895644498593 16.510645671494373 0 0.84804810408105047 0.52991925155115449 1 0 0 1 I I #
point $-1 -19.409005287694221 47.883954900520166 17.144925069847478 #
edge $-1 $305 1 $305 0 $176 $-1 forward 7 unknown #
vertex $-1 $177 $306 #
ellipse-curve $-1 -15.174918970361475 46.868895644498593 16.510645671494373 0 0.84804810408105047 0.52991925155115449 1 0 0 1 I I #
point $-1 -14.174918970361475 47.883954900520166 17.144925069847478 #
plane-surface $-1 71.850337229529714 0 0 -1 0 0 0 0 1 forward_v I I I I #
coedge $-1 $185 $183 $187 $262 reversed $121 $-1 #
edge $-1 $198 -19.879447482382322 $264 19.879447482382322 $197 $307 forward 7 unknown #
vertex $-1 $262 $308 #
straight-curve $-1 -71.850337229529714 -49.592674091361999 0 0 0 -1 I I #
edge $-1 $260 -49.592674091361999 $264 49.592674091361999 $258 $309 forward 7 unknown #
straight-curve $-1 0 -49.592674091361999 -19.879447482382322 -1 0 0 I I #
vertex $-1 $190 $310 #
straight-curve $-1 0 49.592674091361999 -19.879447482382322 1 0 0 I I #
point $-1 71.850337229529714 49.592674091361999 -19.879447482382322 #
point $-1 71.850337229529714 -49.592674091361999 -19.879447482382322 #
straight-curve $-1 -71.850337229529714 0 19.879447482382322 0 -1 0 I I #
point $-1 -71.850337229529714 49.592674091361999 19.879447482382322 #
point $-1 -71.850337229529714 -49.592674091361999 19.879447482382322 #
straight-curve $-1 71.850337229529714 -49.592674091361999 0 0 0 -1 I I #
straight-curve $-1 71.850337229529714 49.592674091361999 0 0 0 -1 I I #
plane-surface $-1 0 -49.592674091361999 0 0 1 0 0 0 1 forward_v I I I I #
coedge $-1 $311 $287 $211 $276 forward $208 $-1 #
coedge $-1 $277 $210 $219 $285 forward $140 $-1 #
edge $-1 $280 -5.192244495635018 $278 5.192244495635018 $211 $312 forward 7 unknown #
coedge $-1 $212 $275 $311 $313 forward $140 $-1 #
vertex $-1 $213 $314 #
straight-curve $-1 -84.748341407574102 49.592674091361999 0.62087039236589625 1 0 0 I I #
vertex $-1 $214 $315 #
straight-curve $-1 -84.748341407574102 49.592674091361999 11.005359383635932 -1 0 0 I I #
point $-1 -71.850337229529714 49.592674091361999 0.62087039236589625 #
straight-curve $-1 -71.850337229529714 0 0.62087039236589625 0 1 0 I I #
coedge $-1 $219 $218 $316 $317 forward $220 $-1 #
edge $-1 $221 -12.898004178044388 $318 12.898004178044388 $219 $319 forward 7 unknown #
point $-1 -71.850337229529714 -49.592674091361999 0.62087039236589625 #
coedge $-1 $274 $316 $223 $288 reversed $208 $-1 #
edge $-1 $280 -49.592674091361999 $289 49.592674091361999 $287 $320 forward 7 unknown #
vertex $-1 $288 $321 #
straight-curve $-1 -84.748341407574102 -49.592674091361999 11.005359383635932 1 0 0 I I #
coedge $-1 $238 $237 $230 $292 forward $227 $-1 #
edge $-1 $293 67.457604014133423 $296 72.92664883920304 $291 $322 forward 7 unknown #
vertex $-1 $242 $323 #
straight-curve $-1 -11.685528092139641 59.448766573852922 19.879447482382318 0 1 0 I I #
edge $-1 $296 1.4810254482925309 $239 18.92797983940169 $238 $324 forward 7 unknown #
vertex $-1 $295 $325 #
straight-curve $-1 -11.685528092139641 -2.9675513824677324 98.52434913629061 0 -0.52991925155115449 0.84804810408105047 I I #
point $-1 -11.685528092139641 46.17523570967839 19.879447482382318 #
point $-1 -29.132482483248801 49.592674091361999 14.410402657312702 #
straight-curve $-1 0 49.592674091361999 19.879447482382322 -1 0 0 I I #
vertex $-1 $245 $326 #
point $-1 -24.643091605026967 46.868895644498593 16.510645671494373 #
vertex $-1 $249 $327 #
point $-1 -19.409005287694221 46.868895644498593 16.510645671494373 #
vertex $-1 $253 $328 #
point $-1 -14.174918970361475 46.868895644498593 16.510645671494373 #
straight-curve $-1 -71.850337229529714 49.592674091361999 0 0 0 -1 I I #
point $-1 -71.850337229529714 -49.592674091361999 -19.879447482382322 #
straight-curve $-1 -71.850337229529714 0 -19.879447482382322 0 1 0 I I #
point $-1 -71.850337229529714 49.592674091361999 -19.879447482382322 #
coedge $-1 $316 $274 $277 $313 reversed $208 $-1 #
straight-curve $-1 -97.646345585618491 49.592674091361999 5.8131148880009142 0 0 -1 I I #
edge $-1 $318 -49.592674091361999 $278 49.592674091361999 $311 $329 forward 7 unknown #
point $-1 -97.646345585618491 49.592674091361999 0.62087039236589625 #
point $-1 -97.646345585618491 49.592674091361999 11.005359383635932 #
coedge $-1 $287 $311 $284 $317 reversed $208 $-1 #
edge $-1 $289 -5.192244495635018 $318 5.192244495635018 $316 $330 forward 7 unknown #
vertex $-1 $313 $331 #
straight-curve $-1 -84.748341407574102 -49.592674091361999 0.62087039236589625 -1 0 0 I I #
straight-curve $-1 -97.646345585618491 0 11.005359383635932 0 -1 0 I I #
point $-1 -97.646345585618491 -49.592674091361999 11.005359383635932 #
straight-curve $-1 -11.685528092139641 49.592674091361999 87.337051496515741 0 0 -1 I I #
point $-1 -11.685528092139641 49.592674091361999 19.879447482382322 #
straight-curve $-1 -10.20450264384711 49.592674091361999 14.410402657312723 -1 0 0 I I #
point $-1 -11.685528092139641 49.592674091361999 14.410402657312702 #
point $-1 -25.643091605026967 46.020847540417549 15.980726419943219 #
point $-1 -20.409005287694221 46.020847540417549 15.980726419943219 #
point $-1 -15.174918970361475 46.020847540417549 15.980726419943219 #
straight-curve $-1 -97.646345585618491 0 0.62087039236589625 0 1 0 I I #
straight-curve $-1 -97.646345585618491 -49.592674091361999 5.8131148880009142 0 0 -1 I I #
point $-1 -97.646345585618491 -49.592674091361999 0.62087039236589625 #
End-of-ACIS-data 