500 0 14 0           
7 Unknown 11 ACIS 5.0 NT 24 Fri Mar 26 19:30:46 1999 
-1 9.9999999999999995e-007 1e-010 
body $-1 $14 $-1 $15 #
body $-1 $16 $-1 $17 #
body $-1 $18 $-1 $19 #
body $-1 $20 $-1 $21 #
body $-1 $22 $-1 $23 #
body $-1 $24 $-1 $25 #
body $-1 $26 $-1 $27 #
body $-1 $28 $-1 $29 #
body $-1 $30 $-1 $31 #
body $-1 $32 $-1 $33 #
body $-1 $34 $-1 $35 #
body $-1 $36 $-1 $37 #
body $-1 $38 $-1 $39 #
body $-1 $40 $-1 $41 #
lump $-1 $-1 $42 $0 #
transform $-1 1 0 0 0 1 0 0 0 1 52.307504501480153 25.871996992568402 9.6780550168464821 1 rotate no_reflect no_shear #
lump $-1 $-1 $43 $1 #
transform $-1 1 0 0 0 1 0 0 0 1 52.307504501480153 25.871996992568402 9.6780550168464821 1 rotate no_reflect no_shear #
lump $-1 $-1 $44 $2 #
transform $-1 1 0 0 0 1 0 0 0 1 52.307504501480153 25.871996992568402 9.6780550168464821 1 rotate no_reflect no_shear #
lump $-1 $-1 $45 $3 #
transform $-1 1 0 0 0 1 0 0 0 1 52.307504501480153 25.871996992568402 9.6780550168464821 1 rotate no_reflect no_shear #
lump $-1 $-1 $46 $4 #
transform $-1 1 0 0 0 1 0 0 0 1 52.307504501480153 25.871996992568402 9.6780550168464821 1 rotate no_reflect no_shear #
lump $-1 $-1 $47 $5 #
transform $-1 1 0 0 0 1 0 0 0 1 52.307504501480153 25.871996992568402 9.6780550168464821 1 rotate no_reflect no_shear #
lump $-1 $-1 $48 $6 #
transform $-1 1 0 0 0 1 0 0 0 1 52.307504501480153 25.871996992568402 9.6780550168464821 1 rotate no_reflect no_shear #
lump $-1 $-1 $49 $7 #
transform $-1 1 0 0 0 1 0 0 0 1 52.307504501480153 25.871996992568402 9.6780550168464821 1 rotate no_reflect no_shear #
lump $-1 $-1 $50 $8 #
transform $-1 1 0 0 0 1 0 0 0 1 52.307504501480153 25.871996992568402 9.6780550168464821 1 rotate no_reflect no_shear #
lump $-1 $-1 $51 $9 #
transform $-1 1 0 0 0 1 0 0 0 1 52.307504501480153 25.871996992568402 9.6780550168464821 1 rotate no_reflect no_shear #
lump $-1 $-1 $52 $10 #
transform $-1 1 0 0 0 1 0 0 0 1 52.307504501480153 25.871996992568402 9.6780550168464821 1 rotate no_reflect no_shear #
lump $-1 $-1 $53 $11 #
transform $-1 1 0 0 0 1 0 0 0 1 52.307504501480153 25.871996992568402 9.6780550168464821 1 rotate no_reflect no_shear #
lump $-1 $-1 $54 $12 #
transform $-1 1 0 0 0 1 0 0 0 1 52.307504501480153 25.871996992568402 9.6780550168464821 1 rotate no_reflect no_shear #
lump $-1 $-1 $55 $13 #
transform $-1 1 0 0 0 1 0 0 0 1 52.307504501480153 25.871996992568402 9.6780550168464821 1 rotate no_reflect no_shear #
shell $-1 $-1 $-1 $56 $-1 $14 #
shell $-1 $-1 $-1 $57 $-1 $16 #
shell $-1 $-1 $-1 $58 $-1 $18 #
shell $-1 $-1 $-1 $59 $-1 $20 #
shell $-1 $-1 $-1 $60 $-1 $22 #
shell $-1 $-1 $-1 $61 $-1 $24 #
shell $-1 $-1 $-1 $62 $-1 $26 #
shell $-1 $-1 $-1 $63 $-1 $28 #
shell $-1 $-1 $-1 $64 $-1 $30 #
shell $-1 $-1 $-1 $65 $-1 $32 #
shell $-1 $-1 $-1 $66 $-1 $34 #
shell $-1 $-1 $-1 $67 $-1 $36 #
shell $-1 $-1 $-1 $68 $-1 $38 #
shell $-1 $-1 $-1 $69 $-1 $40 #
face $-1 $70 $71 $42 $-1 $72 forward single #
face $-1 $73 $74 $43 $-1 $75 forward single #
face $-1 $76 $77 $44 $-1 $78 reversed single #
face $-1 $79 $80 $45 $-1 $81 forward single #
face $-1 $82 $83 $46 $-1 $84 forward single #
face $-1 $85 $86 $47 $-1 $87 reversed single #
face $-1 $88 $89 $48 $-1 $90 forward single #
face $-1 $91 $92 $49 $-1 $93 forward single #
face $-1 $94 $95 $50 $-1 $96 reversed single #
face $-1 $97 $98 $51 $-1 $99 forward single #
face $-1 $100 $101 $52 $-1 $102 forward single #
face $-1 $103 $104 $53 $-1 $105 reversed single #
face $-1 $106 $107 $54 $-1 $108 forward single #
face $-1 $109 $110 $55 $-1 $111 forward single #
face $-1 $112 $113 $42 $-1 $114 reversed single #
loop $-1 $-1 $115 $56 #
plane-surface $-1 0 0 9.6780550168464821 0 0 1 1 0 0 forward_v I I I I #
face $-1 $116 $117 $43 $-1 $118 reversed single #
loop $-1 $-1 $119 $57 #
plane-surface $-1 0 -22.513614137624323 7.0025018945101438 0 0 1 1 0 0 forward_v I I I I #
face $-1 $120 $121 $44 $-1 $122 reversed single #
loop $-1 $-1 $123 $58 #
plane-surface $-1 -126.28148763965204 -12.493554023728294 80.146601810868574 0 -1 0 0.70710678939079041 0 -0.70710677298230451 forward_v I I I I #
face $-1 $124 $125 $45 $-1 $126 forward single #
loop $-1 $127 $128 $59 #
cone-surface $-1 -50.201233833668795 -17.251894922979687 7.5717843165673822 0.70710678939079041 0 -0.70710677298230451 0.17677669324557613 0 0.1767766973476976 1 I I 0 1 0.25 forward I I I I #
face $-1 $129 $130 $46 $-1 $131 forward single #
loop $-1 $132 $133 $60 #
cone-surface $-1 -50.201233833668795 -14.39689038342885 7.5717843165673822 0.70710678939079041 0 -0.70710677298230451 0.17677669324557613 0 0.1767766973476976 1 I I 0 1 0.25 forward I I I I #
face $-1 $134 $135 $47 $-1 $136 reversed single #
loop $-1 $-1 $137 $61 #
plane-surface $-1 -126.28148763965204 0.29496298170393498 80.146601810868574 0 -1 0 0.70710678939079041 0 -0.70710677298230451 forward_v I I I I #
face $-1 $138 $139 $48 $-1 $140 forward single #
loop $-1 $141 $142 $62 #
cone-surface $-1 -50.201233833668795 -4.4633779175474579 7.5717843165673822 0.70710678939079041 0 -0.70710677298230451 0.17677669324557613 0 0.1767766973476976 1 I I 0 1 0.25 forward I I I I #
face $-1 $143 $144 $49 $-1 $145 forward single #
loop $-1 $146 $147 $63 #
cone-surface $-1 -50.201233833668795 -1.6083733779966209 7.5717843165673822 0.70710678939079041 0 -0.70710677298230451 0.17677669324557613 0 0.1767766973476976 1 I I 0 1 0.25 forward I I I I #
face $-1 $148 $149 $50 $-1 $150 reversed single #
loop $-1 $-1 $151 $64 #
plane-surface $-1 -126.28148763965204 13.083479987136169 80.146601810868574 0 -1 0 0.70710678939079041 0 -0.70710677298230451 forward_v I I I I #
face $-1 $152 $153 $51 $-1 $154 forward single #
loop $-1 $155 $156 $65 #
cone-surface $-1 -50.201233833668795 8.3251390878847751 7.5717843165673822 0.70710678939079041 0 -0.70710677298230451 0.17677669324557613 0 0.1767766973476976 1 I I 0 1 0.25 forward I I I I #
face $-1 $157 $158 $52 $-1 $159 forward single #
loop $-1 $160 $161 $66 #
cone-surface $-1 -50.201233833668795 11.180143627435609 7.5717843165673822 0.70710678939079041 0 -0.70710677298230451 0.17677669324557613 0 0.1767766973476976 1 I I 0 1 0.25 forward I I I I #
face $-1 $162 $163 $53 $-1 $164 reversed single #
loop $-1 $-1 $165 $67 #
plane-surface $-1 -52.307504501480139 22.541158363092418 6.1726203892705769 -0.70710678939079041 0 0.70710677298230451 0.70710677298230451 0 0.70710678939079041 forward_v I I I I #
face $-1 $166 $167 $54 $-1 $168 forward single #
loop $-1 $169 $170 $68 #
cone-surface $-1 -50.201233833668795 21.113656093317001 7.5717843165673822 0.70710678939079041 0 -0.70710677298230451 0.17677669324557613 0 0.1767766973476976 1 I I 0 1 0.25 forward I I I I #
face $-1 $171 $172 $55 $-1 $173 forward single #
loop $-1 $174 $175 $69 #
cone-surface $-1 -50.201233833668795 23.968660632867834 7.5717843165673822 0.70710678939079041 0 -0.70710677298230451 0.17677669324557613 0 0.1767766973476976 1 I I 0 1 0.25 forward I I I I #
face $-1 $176 $177 $42 $-1 $178 reversed single #
loop $-1 $-1 $179 $70 #
plane-surface $-1 0 0 -9.6780550168464821 0 0 1 1 0 0 forward_v I I I I #
coedge $-1 $180 $181 $182 $183 forward $71 $-1 #
face $-1 $184 $185 $43 $-1 $186 reversed single #
loop $-1 $-1 $187 $73 #
plane-surface $-1 0 -22.513614137624323 2.241006337193876 0 0 1 1 0 0 forward_v I I I I #
coedge $-1 $188 $189 $190 $191 reversed $74 $-1 #
face $-1 $192 $193 $44 $-1 $194 forward single #
loop $-1 $-1 $195 $76 #
plane-surface $-1 -52.307504501480139 -15.824392653204271 6.1726203892705769 -0.70710678939079041 0 0.70710677298230451 0.70710677298230451 0 0.70710678939079041 forward_v I I I I #
coedge $-1 $196 $197 $198 $199 reversed $77 $-1 #
face $-1 $-1 $200 $45 $-1 $201 forward single #
loop $-1 $202 $203 $79 #
cone-surface $-1 -49.759292090299553 -17.251894922979687 7.129842583453442 0.70710678939079041 0 -0.70710677298230451 0.088388346622788064 0 0.088388348673848802 1 I I -0.70710678118654746 0.70710678118654746 0.125 forward I I I I #
loop $-1 $-1 $204 $59 #
coedge $-1 $128 $128 $205 $206 reversed $80 $-1 #
face $-1 $-1 $207 $46 $-1 $208 forward single #
loop $-1 $209 $210 $82 #
cone-surface $-1 -49.759292090299553 -14.39689038342885 7.129842583453442 0.70710678939079041 0 -0.70710677298230451 0.088388346622788064 0 0.088388348673848802 1 I I -0.70710678118654746 0.70710678118654746 0.125 forward I I I I #
loop $-1 $-1 $211 $60 #
coedge $-1 $133 $133 $212 $213 reversed $83 $-1 #
face $-1 $214 $215 $47 $-1 $216 reversed single #
loop $-1 $-1 $217 $85 #
plane-surface $-1 -52.307504501480139 -3.0358756477720412 6.1726203892705769 -0.70710678939079041 0 0.70710677298230451 0.70710677298230451 0 0.70710678939079041 forward_v I I I I #
coedge $-1 $218 $219 $220 $221 reversed $86 $-1 #
face $-1 $-1 $222 $48 $-1 $223 forward single #
loop $-1 $224 $225 $88 #
cone-surface $-1 -49.759292090299553 -4.4633779175474579 7.129842583453442 0.70710678939079041 0 -0.70710677298230451 0.088388346622788064 0 0.088388348673848802 1 I I -0.70710678118654746 0.70710678118654746 0.125 forward I I I I #
loop $-1 $-1 $226 $62 #
coedge $-1 $142 $142 $227 $228 reversed $89 $-1 #
face $-1 $-1 $229 $49 $-1 $230 forward single #
loop $-1 $231 $232 $91 #
cone-surface $-1 -49.759292090299553 -1.6083733779966209 7.129842583453442 0.70710678939079041 0 -0.70710677298230451 0.088388346622788064 0 0.088388348673848802 1 I I -0.70710678118654746 0.70710678118654746 0.125 forward I I I I #
loop $-1 $-1 $233 $63 #
coedge $-1 $147 $147 $234 $235 reversed $92 $-1 #
face $-1 $236 $237 $50 $-1 $238 reversed single #
loop $-1 $-1 $239 $94 #
plane-surface $-1 -52.307504501480139 9.7526413576601918 6.1726203892705769 -0.70710678939079041 0 0.70710677298230451 0.70710677298230451 0 0.70710678939079041 forward_v I I I I #
coedge $-1 $240 $241 $242 $243 reversed $95 $-1 #
face $-1 $-1 $244 $51 $-1 $245 forward single #
loop $-1 $246 $247 $97 #
cone-surface $-1 -49.759292090299553 8.3251390878847751 7.129842583453442 0.70710678939079041 0 -0.70710677298230451 0.088388346622788064 0 0.088388348673848802 1 I I -0.70710678118654746 0.70710678118654746 0.125 forward I I I I #
loop $-1 $-1 $248 $65 #
coedge $-1 $156 $156 $249 $250 reversed $98 $-1 #
face $-1 $-1 $251 $52 $-1 $252 forward single #
loop $-1 $253 $254 $100 #
cone-surface $-1 -49.759292090299553 11.180143627435609 7.129842583453442 0.70710678939079041 0 -0.70710677298230451 0.088388346622788064 0 0.088388348673848802 1 I I -0.70710678118654746 0.70710678118654746 0.125 forward I I I I #
loop $-1 $-1 $255 $66 #
coedge $-1 $161 $161 $256 $257 reversed $101 $-1 #
face $-1 $258 $259 $53 $-1 $260 forward single #
loop $-1 $-1 $261 $103 #
plane-surface $-1 -126.28148763965204 19.210319733616441 80.146601810868574 0 1 0 -0.70710678939079041 0 0.70710677298230451 forward_v I I I I #
coedge $-1 $262 $263 $264 $265 reversed $104 $-1 #
face $-1 $-1 $266 $54 $-1 $267 forward single #
loop $-1 $268 $269 $106 #
cone-surface $-1 -49.759292090299553 21.113656093317001 7.129842583453442 0.70710678939079041 0 -0.70710677298230451 0.088388346622788064 0 0.088388348673848802 1 I I -0.70710678118654746 0.70710678118654746 0.125 forward I I I I #
loop $-1 $-1 $270 $68 #
coedge $-1 $170 $170 $271 $272 reversed $107 $-1 #
face $-1 $-1 $273 $55 $-1 $274 forward single #
loop $-1 $275 $276 $109 #
cone-surface $-1 -49.759292090299553 23.968660632867834 7.129842583453442 0.70710678939079041 0 -0.70710677298230451 0.088388346622788064 0 0.088388348673848802 1 I I -0.70710678118654746 0.70710678118654746 0.125 forward I I I I #
loop $-1 $-1 $277 $69 #
coedge $-1 $175 $175 $278 $279 reversed $110 $-1 #
face $-1 $280 $281 $42 $-1 $282 reversed single #
loop $-1 $-1 $283 $112 #
plane-surface $-1 0 -25.871996992568402 0 0 1 0 0 0 1 forward_v I I I I #
coedge $-1 $284 $285 $286 $287 forward $113 $-1 #
coedge $-1 $288 $115 $289 $290 forward $71 $-1 #
coedge $-1 $115 $288 $291 $292 forward $71 $-1 #
coedge $-1 $293 $294 $115 $183 reversed $295 $-1 #
edge $-1 $296 -25.871996992568402 $297 25.871996992568402 $182 $298 forward 7 unknown #
face $-1 $299 $300 $43 $-1 $301 reversed single #
loop $-1 $-1 $302 $116 #
plane-surface $-1 0 -19.155231282680244 4.6217541158520099 0 -1 0 0 0 -1 forward_v I I I I #
coedge $-1 $303 $304 $305 $306 reversed $117 $-1 #
coedge $-1 $307 $119 $308 $309 forward $74 $-1 #
coedge $-1 $119 $307 $310 $311 reversed $74 $-1 #
coedge $-1 $312 $313 $119 $191 forward $314 $-1 #
edge $-1 $315 7.8984242138680827 $316 14.61518992375624 $190 $317 forward 7 unknown #
face $-1 $318 $319 $44 $-1 $320 forward single #
loop $-1 $-1 $321 $120 #
plane-surface $-1 0 -19.155231282680244 4.6217541158520099 0 -1 0 0 0 -1 forward_v I I I I #
coedge $-1 $322 $323 $324 $325 reversed $121 $-1 #
coedge $-1 $197 $123 $326 $327 reversed $77 $-1 #
coedge $-1 $123 $196 $322 $328 reversed $77 $-1 #
coedge $-1 $324 $329 $123 $199 forward $330 $-1 #
edge $-1 $331 30.395245888587805 $332 33.900680516163725 $198 $333 forward 7 unknown #
loop $-1 $-1 $205 $124 #
plane-surface $-1 -52.307504501480139 -15.824392653204271 6.1726203892705769 -0.70710678939079041 0 0.70710677298230451 0.70710677298230451 0 0.70710678939079041 forward_v I I I I #
loop $-1 $-1 $334 $79 #
coedge $-1 $203 $203 $204 $335 reversed $125 $-1 #
coedge $-1 $204 $204 $203 $335 forward $127 $-1 #
coedge $-1 $205 $205 $128 $206 forward $200 $-1 #
edge $-1 $336 0 $336 6.2831853071796004 $205 $337 forward 7 unknown #
loop $-1 $-1 $212 $129 #
plane-surface $-1 -52.307504501480139 -15.824392653204271 6.1726203892705769 -0.70710678939079041 0 0.70710677298230451 0.70710677298230451 0 0.70710678939079041 forward_v I I I I #
loop $-1 $-1 $338 $82 #
coedge $-1 $210 $210 $211 $339 reversed $130 $-1 #
coedge $-1 $211 $211 $210 $339 forward $132 $-1 #
coedge $-1 $212 $212 $133 $213 forward $207 $-1 #
edge $-1 $340 0 $340 6.2831853071796004 $212 $341 forward 7 unknown #
face $-1 $342 $343 $47 $-1 $344 forward single #
loop $-1 $-1 $345 $134 #
plane-surface $-1 -126.28148763965204 -6.3667142772480174 80.146601810868574 0 1 0 -0.70710678939079041 0 0.70710677298230451 forward_v I I I I #
coedge $-1 $346 $347 $348 $349 reversed $135 $-1 #
coedge $-1 $219 $137 $350 $351 reversed $86 $-1 #
coedge $-1 $137 $218 $346 $352 reversed $86 $-1 #
coedge $-1 $348 $353 $137 $221 forward $354 $-1 #
edge $-1 $355 30.395245888587805 $356 33.900680516163725 $220 $357 forward 7 unknown #
loop $-1 $-1 $227 $138 #
plane-surface $-1 -52.307504501480139 -3.0358756477720412 6.1726203892705769 -0.70710678939079041 0 0.70710677298230451 0.70710677298230451 0 0.70710678939079041 forward_v I I I I #
loop $-1 $-1 $358 $88 #
coedge $-1 $225 $225 $226 $359 reversed $139 $-1 #
coedge $-1 $226 $226 $225 $359 forward $141 $-1 #
coedge $-1 $227 $227 $142 $228 forward $222 $-1 #
edge $-1 $360 0 $360 6.2831853071796004 $227 $361 forward 7 unknown #
loop $-1 $-1 $234 $143 #
plane-surface $-1 -52.307504501480139 -3.0358756477720412 6.1726203892705769 -0.70710678939079041 0 0.70710677298230451 0.70710677298230451 0 0.70710678939079041 forward_v I I I I #
loop $-1 $-1 $362 $91 #
coedge $-1 $232 $232 $233 $363 reversed $144 $-1 #
coedge $-1 $233 $233 $232 $363 forward $146 $-1 #
coedge $-1 $234 $234 $147 $235 forward $229 $-1 #
edge $-1 $364 0 $364 6.2831853071796004 $234 $365 forward 7 unknown #
face $-1 $366 $367 $50 $-1 $368 forward single #
loop $-1 $-1 $369 $148 #
plane-surface $-1 -126.28148763965204 6.4218027281842156 80.146601810868574 0 1 0 -0.70710678939079041 0 0.70710677298230451 forward_v I I I I #
coedge $-1 $370 $371 $372 $373 reversed $149 $-1 #
coedge $-1 $241 $151 $374 $375 reversed $95 $-1 #
coedge $-1 $151 $240 $370 $376 reversed $95 $-1 #
coedge $-1 $372 $377 $151 $243 forward $378 $-1 #
edge $-1 $379 30.395245888587805 $380 33.900680516163725 $242 $381 forward 7 unknown #
loop $-1 $-1 $249 $152 #
plane-surface $-1 -52.307504501480139 9.7526413576601918 6.1726203892705769 -0.70710678939079041 0 0.70710677298230451 0.70710677298230451 0 0.70710678939079041 forward_v I I I I #
loop $-1 $-1 $382 $97 #
coedge $-1 $247 $247 $248 $383 reversed $153 $-1 #
coedge $-1 $248 $248 $247 $383 forward $155 $-1 #
coedge $-1 $249 $249 $156 $250 forward $244 $-1 #
edge $-1 $384 0 $384 6.2831853071796004 $249 $385 forward 7 unknown #
loop $-1 $-1 $256 $157 #
plane-surface $-1 -52.307504501480139 9.7526413576601918 6.1726203892705769 -0.70710678939079041 0 0.70710677298230451 0.70710677298230451 0 0.70710678939079041 forward_v I I I I #
loop $-1 $-1 $386 $100 #
coedge $-1 $254 $254 $255 $387 reversed $158 $-1 #
coedge $-1 $255 $255 $254 $387 forward $160 $-1 #
coedge $-1 $256 $256 $161 $257 forward $251 $-1 #
edge $-1 $388 0 $388 6.2831853071796004 $256 $389 forward 7 unknown #
face $-1 $390 $391 $53 $-1 $392 reversed single #
loop $-1 $-1 $393 $162 #
plane-surface $-1 0 0 9.6780550168464821 0 0 1 1 0 0 forward_v I I I I #
coedge $-1 $394 $395 $396 $397 reversed $163 $-1 #
coedge $-1 $398 $165 $399 $400 reversed $104 $-1 #
coedge $-1 $165 $398 $394 $401 forward $104 $-1 #
coedge $-1 $396 $402 $165 $265 forward $391 $-1 #
edge $-1 $403 -14.601417811022186 $404 -7.9397405520702318 $264 $405 forward 7 unknown #
loop $-1 $-1 $271 $166 #
plane-surface $-1 -52.307504501480139 22.541158363092418 6.1726203892705769 -0.70710678939079041 0 0.70710677298230451 0.70710677298230451 0 0.70710678939079041 forward_v I I I I #
loop $-1 $-1 $406 $106 #
coedge $-1 $269 $269 $270 $407 reversed $167 $-1 #
coedge $-1 $270 $270 $269 $407 forward $169 $-1 #
coedge $-1 $271 $271 $170 $272 forward $266 $-1 #
edge $-1 $408 0 $408 6.2831853071796004 $271 $409 forward 7 unknown #
loop $-1 $-1 $278 $171 #
plane-surface $-1 -52.307504501480139 22.541158363092418 6.1726203892705769 -0.70710678939079041 0 0.70710677298230451 0.70710677298230451 0 0.70710678939079041 forward_v I I I I #
loop $-1 $-1 $410 $109 #
coedge $-1 $276 $276 $277 $411 reversed $172 $-1 #
coedge $-1 $277 $277 $276 $411 forward $174 $-1 #
coedge $-1 $278 $278 $175 $279 forward $273 $-1 #
edge $-1 $412 0 $412 6.2831853071796004 $278 $413 forward 7 unknown #
face $-1 $414 $415 $42 $-1 $416 reversed single #
loop $-1 $-1 $417 $176 #
plane-surface $-1 -52.307504501480153 0 0 1 0 0 0 0 -1 forward_v I I I I #
coedge $-1 $418 $291 $419 $420 forward $177 $-1 #
coedge $-1 $421 $179 $418 $422 forward $113 $-1 #
coedge $-1 $179 $421 $423 $424 forward $113 $-1 #
coedge $-1 $294 $293 $179 $287 reversed $295 $-1 #
edge $-1 $425 -25.871996992568402 $426 25.871996992568402 $286 $427 forward 7 unknown #
coedge $-1 $181 $180 $428 $429 forward $71 $-1 #
coedge $-1 $430 $431 $180 $290 reversed $415 $-1 #
edge $-1 $297 -52.307504501480153 $432 52.307504501480153 $289 $433 forward 7 unknown #
coedge $-1 $283 $434 $181 $292 reversed $177 $-1 #
edge $-1 $435 -52.307504501480153 $296 52.307504501480153 $291 $436 forward 7 unknown #
coedge $-1 $286 $182 $434 $437 forward $295 $-1 #
coedge $-1 $182 $286 $430 $438 reversed $295 $-1 #
loop $-1 $-1 $293 $414 #
vertex $-1 $183 $439 #
vertex $-1 $183 $440 #
straight-curve $-1 52.307504501480153 0 9.6780550168464821 0 1 0 I I #
face $-1 $441 $442 $43 $-1 $443 reversed single #
loop $-1 $-1 $444 $184 #
plane-surface $-1 -52.307504501480153 0 0 1 0 0 0 0 -1 forward_v I I I I #
coedge $-1 $445 $308 $313 $446 reversed $185 $-1 #
coedge $-1 $447 $187 $448 $449 reversed $117 $-1 #
coedge $-1 $187 $447 $445 $450 forward $117 $-1 #
coedge $-1 $313 $312 $187 $306 forward $314 $-1 #
edge $-1 $451 -14.61518992375624 $452 -7.8984242138680827 $305 $453 forward 7 unknown #
coedge $-1 $189 $188 $444 $454 reversed $74 $-1 #
coedge $-1 $302 $455 $188 $309 reversed $185 $-1 #
edge $-1 $315 -52.307504501480153 $456 52.307504501480153 $308 $457 forward 7 unknown #
coedge $-1 $458 $459 $189 $311 forward $442 $-1 #
edge $-1 $316 -52.307504501480153 $460 52.307504501480153 $310 $461 forward 7 unknown #
coedge $-1 $305 $190 $459 $462 forward $314 $-1 #
coedge $-1 $190 $305 $302 $446 forward $314 $-1 #
loop $-1 $-1 $190 $441 #
vertex $-1 $191 $463 #
vertex $-1 $462 $464 #
straight-curve $-1 52.307504501480153 -11.256807068812162 7.0025018945101438 0 -1 0 I I #
face $-1 $-1 $330 $44 $-1 $465 reversed single #
loop $-1 $-1 $326 $192 #
plane-surface $-1 0 0 9.6780550168464821 0 0 1 1 0 0 forward_v I I I I #
coedge $-1 $466 $467 $323 $468 reversed $193 $-1 #
coedge $-1 $469 $195 $197 $328 forward $121 $-1 #
coedge $-1 $195 $469 $321 $468 forward $121 $-1 #
coedge $-1 $470 $198 $195 $325 forward $330 $-1 #
edge $-1 $332 4.5813576971261583 $471 11.243034956078109 $324 $472 forward 7 unknown #
coedge $-1 $473 $474 $196 $327 forward $319 $-1 #
edge $-1 $475 -14.338673864577814 $331 -10.833239318345868 $326 $476 forward 7 unknown #
edge $-1 $332 -2.0097183471152325e-014 $475 4.957433134811251 $197 $477 forward 7 unknown #
coedge $-1 $198 $470 $473 $478 reversed $330 $-1 #
loop $-1 $-1 $324 $318 #
vertex $-1 $478 $479 #
vertex $-1 $199 $480 #
straight-curve $-1 -52.307504501480153 -12.493554023728294 40.073300905434287 0 0 -1 I I #
coedge $-1 $334 $334 $-1 $481 reversed $202 $-1 #
edge $-1 $482 0 $482 6.2831853071796004 $203 $483 forward 7 unknown #
vertex $-1 $206 $484 #
ellipse-curve $-1 -50.554787228364177 -17.251894922979687 7.9253377030585233 -0.70710678939079041 0 0.70710677298230451 0.17677669324557613 0 0.1767766973476976 1 I I #
coedge $-1 $338 $338 $-1 $485 reversed $209 $-1 #
edge $-1 $486 0 $486 6.2831853071796004 $210 $487 forward 7 unknown #
vertex $-1 $213 $488 #
ellipse-curve $-1 -50.554787228364177 -14.39689038342885 7.9253377030585233 -0.70710678939079041 0 0.70710677298230451 0.17677669324557613 0 0.1767766973476976 1 I I #
face $-1 $-1 $354 $47 $-1 $489 reversed single #
loop $-1 $-1 $490 $214 #
plane-surface $-1 0 0 9.6780550168464821 0 0 1 1 0 0 forward_v I I I I #
coedge $-1 $491 $492 $493 $494 reversed $215 $-1 #
coedge $-1 $495 $217 $219 $352 forward $135 $-1 #
coedge $-1 $217 $495 $491 $496 forward $135 $-1 #
coedge $-1 $493 $220 $217 $349 forward $354 $-1 #
edge $-1 $356 -1.8129008055899556 $497 4.8487764533619968 $348 $498 forward 7 unknown #
coedge $-1 $499 $500 $218 $351 forward $343 $-1 #
edge $-1 $501 -14.338673864577814 $355 -10.833239318345868 $350 $502 forward 7 unknown #
edge $-1 $356 -2.0097183471152325e-014 $501 4.957433134811251 $219 $503 forward 7 unknown #
coedge $-1 $220 $493 $499 $504 reversed $354 $-1 #
loop $-1 $-1 $493 $342 #
vertex $-1 $504 $505 #
vertex $-1 $221 $506 #
straight-curve $-1 -52.307504501480153 0.29496298170393498 40.073300905434287 0 0 -1 I I #
coedge $-1 $358 $358 $-1 $507 reversed $224 $-1 #
edge $-1 $508 0 $508 6.2831853071796004 $225 $509 forward 7 unknown #
vertex $-1 $228 $510 #
ellipse-curve $-1 -50.554787228364177 -4.4633779175474579 7.9253377030585233 -0.70710678939079041 0 0.70710677298230451 0.17677669324557613 0 0.1767766973476976 1 I I #
coedge $-1 $362 $362 $-1 $511 reversed $231 $-1 #
edge $-1 $512 0 $512 6.2831853071796004 $232 $513 forward 7 unknown #
vertex $-1 $235 $514 #
ellipse-curve $-1 -50.554787228364177 -1.6083733779966209 7.9253377030585233 -0.70710678939079041 0 0.70710677298230451 0.17677669324557613 0 0.1767766973476976 1 I I #
face $-1 $-1 $378 $50 $-1 $515 reversed single #
loop $-1 $-1 $516 $236 #
plane-surface $-1 0 0 9.6780550168464821 0 0 1 1 0 0 forward_v I I I I #
coedge $-1 $517 $518 $519 $520 reversed $237 $-1 #
coedge $-1 $521 $239 $241 $376 forward $149 $-1 #
coedge $-1 $239 $521 $517 $522 forward $149 $-1 #
coedge $-1 $519 $242 $239 $373 forward $378 $-1 #
edge $-1 $380 -8.207159308306073 $523 -1.5454820493541197 $372 $524 forward 7 unknown #
coedge $-1 $525 $526 $240 $375 forward $367 $-1 #
edge $-1 $527 -14.338673864577814 $379 -10.833239318345868 $374 $528 forward 7 unknown #
edge $-1 $380 -2.0097183471152325e-014 $527 4.957433134811251 $241 $529 forward 7 unknown #
coedge $-1 $242 $519 $525 $530 reversed $378 $-1 #
loop $-1 $-1 $519 $366 #
vertex $-1 $530 $531 #
vertex $-1 $243 $532 #
straight-curve $-1 -52.307504501480153 13.083479987136169 40.073300905434287 0 0 -1 I I #
coedge $-1 $382 $382 $-1 $533 reversed $246 $-1 #
edge $-1 $534 0 $534 6.2831853071796004 $247 $535 forward 7 unknown #
vertex $-1 $250 $536 #
ellipse-curve $-1 -50.554787228364177 8.3251390878847751 7.9253377030585233 -0.70710678939079041 0 0.70710677298230451 0.17677669324557613 0 0.1767766973476976 1 I I #
coedge $-1 $386 $386 $-1 $537 reversed $253 $-1 #
edge $-1 $538 0 $538 6.2831853071796004 $254 $539 forward 7 unknown #
vertex $-1 $257 $540 #
ellipse-curve $-1 -50.554787228364177 11.180143627435609 7.9253377030585233 -0.70710678939079041 0 0.70710677298230451 0.17677669324557613 0 0.1767766973476976 1 I I #
face $-1 $-1 $541 $53 $-1 $542 reversed single #
loop $-1 $-1 $396 $258 #
plane-surface $-1 -52.307504501480153 0 0 1 0 0 0 0 -1 forward_v I I I I #
coedge $-1 $543 $544 $395 $545 forward $259 $-1 #
coedge $-1 $395 $261 $263 $401 reversed $163 $-1 #
coedge $-1 $261 $394 $393 $545 reversed $163 $-1 #
coedge $-1 $546 $264 $261 $397 forward $391 $-1 #
edge $-1 $404 -33.900680516163725 $547 -30.395245888587805 $396 $548 forward 7 unknown #
coedge $-1 $263 $262 $543 $549 reversed $104 $-1 #
coedge $-1 $550 $551 $262 $400 forward $541 $-1 #
edge $-1 $552 11.353711327795622 $403 16.31114446260689 $399 $553 forward 7 unknown #
edge $-1 $554 -4.957433134811251 $404 2.0097183471152325e-014 $394 $555 forward 7 unknown #
coedge $-1 $264 $546 $550 $556 forward $391 $-1 #
vertex $-1 $400 $557 #
vertex $-1 $265 $558 #
straight-curve $-1 -52.307504501480153 11.270579181546209 6.17262038927056 0 -1 0 I I #
coedge $-1 $406 $406 $-1 $559 reversed $268 $-1 #
edge $-1 $560 0 $560 6.2831853071796004 $269 $561 forward 7 unknown #
vertex $-1 $272 $562 #
ellipse-curve $-1 -50.554787228364177 21.113656093317001 7.9253377030585233 -0.70710678939079041 0 0.70710677298230451 0.17677669324557613 0 0.1767766973476976 1 I I #
coedge $-1 $410 $410 $-1 $563 reversed $275 $-1 #
edge $-1 $564 0 $564 6.2831853071796004 $276 $565 forward 7 unknown #
vertex $-1 $279 $566 #
ellipse-curve $-1 -50.554787228364177 23.968660632867834 7.9253377030585233 -0.70710678939079041 0 0.70710677298230451 0.17677669324557613 0 0.1767766973476976 1 I I #
face $-1 $-1 $295 $42 $-1 $567 reversed single #
loop $-1 $-1 $430 $280 #
plane-surface $-1 0 25.871996992568402 0 0 -1 0 0 0 -1 forward_v I I I I #
coedge $-1 $568 $428 $431 $569 forward $281 $-1 #
coedge $-1 $434 $283 $284 $422 reversed $177 $-1 #
coedge $-1 $428 $568 $283 $420 reversed $281 $-1 #
edge $-1 $435 -9.6780550168464821 $570 9.6780550168464821 $419 $571 forward 7 unknown #
coedge $-1 $285 $284 $568 $572 forward $113 $-1 #
edge $-1 $426 -52.307504501480153 $570 52.307504501480153 $418 $573 forward 7 unknown #
coedge $-1 $431 $430 $285 $424 reversed $415 $-1 #
edge $-1 $574 -52.307504501480153 $425 52.307504501480153 $423 $575 forward 7 unknown #
vertex $-1 $287 $576 #
vertex $-1 $437 $577 #
straight-curve $-1 52.307504501480153 0 -9.6780550168464821 0 -1 0 I I #
coedge $-1 $417 $419 $288 $429 reversed $281 $-1 #
edge $-1 $432 -25.871996992568402 $435 25.871996992568402 $428 $578 forward 7 unknown #
coedge $-1 $423 $289 $294 $438 forward $415 $-1 #
coedge $-1 $289 $423 $417 $569 reversed $415 $-1 #
vertex $-1 $290 $579 #
straight-curve $-1 0 25.871996992568402 9.6780550168464821 -1 0 0 I I #
coedge $-1 $291 $418 $293 $437 reversed $177 $-1 #
vertex $-1 $429 $580 #
straight-curve $-1 0 -25.871996992568402 9.6780550168464821 1 0 0 I I #
edge $-1 $296 -9.6780550168464821 $426 9.6780550168464821 $293 $581 forward 7 unknown #
edge $-1 $297 -9.6780550168464821 $425 9.6780550168464821 $294 $582 forward 7 unknown #
point $-1 52.307504501480153 -25.871996992568402 9.6780550168464821 #
point $-1 52.307504501480153 25.871996992568402 9.6780550168464821 #
face $-1 $-1 $314 $43 $-1 $583 reversed single #
loop $-1 $-1 $310 $299 #
plane-surface $-1 0 -25.871996992568402 0 0 1 0 0 0 1 forward_v I I I I #
coedge $-1 $584 $585 $307 $454 forward $300 $-1 #
coedge $-1 $455 $302 $304 $450 reversed $185 $-1 #
edge $-1 $452 -0.069870720732128966 $315 4.6916248365841389 $313 $586 forward 7 unknown #
coedge $-1 $304 $303 $587 $588 reversed $117 $-1 #
coedge $-1 $459 $458 $303 $449 forward $442 $-1 #
edge $-1 $589 -52.307504501480153 $451 52.307504501480153 $448 $590 forward 7 unknown #
edge $-1 $591 -52.307504501480153 $452 52.307504501480153 $445 $592 forward 7 unknown #
vertex $-1 $449 $593 #
vertex $-1 $306 $594 #
straight-curve $-1 52.307504501480153 -11.256807068812162 2.241006337193876 0 1 0 I I #
edge $-1 $460 -14.61518992375624 $456 -7.8984242138680827 $444 $595 forward 7 unknown #
coedge $-1 $308 $445 $584 $596 reversed $185 $-1 #
vertex $-1 $454 $597 #
straight-curve $-1 0 -19.155231282680244 7.0025018945101438 -1 0 0 I I #
coedge $-1 $448 $310 $585 $598 forward $442 $-1 #
coedge $-1 $310 $448 $312 $462 reversed $442 $-1 #
vertex $-1 $598 $599 #
straight-curve $-1 0 -25.871996992568402 7.0025018945101438 -1 0 0 I I #
edge $-1 $316 -7.0025018945101438 $451 -2.241006337193876 $312 $600 forward 7 unknown #
point $-1 52.307504501480153 -19.155231282680244 7.0025018945101438 #
point $-1 52.307504501480153 -25.871996992568402 7.0025018945101438 #
plane-surface $-1 -52.307504501480153 0 0 1 0 0 0 0 -1 forward_v I I I I #
coedge $-1 $467 $321 $601 $602 reversed $193 $-1 #
coedge $-1 $321 $466 $470 $603 reversed $193 $-1 #
edge $-1 $604 -4.957433134811251 $471 2.0097183471152325e-014 $321 $605 forward 7 unknown #
coedge $-1 $323 $322 $474 $606 reversed $121 $-1 #
coedge $-1 $329 $324 $467 $603 forward $330 $-1 #
vertex $-1 $603 $607 #
straight-curve $-1 -52.307504501480153 -7.9121963266021353 6.17262038927056 0 -1 0 I I #
coedge $-1 $601 $326 $329 $478 forward $319 $-1 #
coedge $-1 $326 $601 $469 $606 forward $319 $-1 #
vertex $-1 $327 $608 #
straight-curve $-1 -63.140743819826021 -12.493554023728294 9.6780550168464785 -1 0 0 I I #
straight-curve $-1 -52.307504501480139 -12.493554023728294 6.1726203892705769 0.70710677298230451 0 0.70710678939079041 I I #
edge $-1 $331 12.493554023728294 $609 19.155231282680248 $329 $610 forward 7 unknown #
point $-1 -52.307504501480153 -12.493554023728294 9.6780550168464821 #
point $-1 -52.307504501480153 -12.493554023728294 6.1726203892705627 #
edge $-1 $611 1 $611 0 $334 $-1 forward 7 unknown #
vertex $-1 $335 $612 #
ellipse-curve $-1 -49.847680438973399 -17.251894922979687 7.2182309300762304 -0.70710678939079041 0 0.70710677298230451 0.17677669324557613 0 0.1767766973476976 1 I I #
point $-1 -50.378010535118619 -17.251894922979687 8.1021144004062329 #
edge $-1 $613 1 $613 0 $338 $-1 forward 7 unknown #
vertex $-1 $339 $614 #
ellipse-curve $-1 -49.847680438973399 -14.39689038342885 7.2182309300762304 -0.70710678939079041 0 0.70710677298230451 0.17677669324557613 0 0.1767766973476976 1 I I #
point $-1 -50.378010535118619 -14.39689038342885 8.1021144004062329 #
plane-surface $-1 -52.307504501480153 0 0 1 0 0 0 0 -1 forward_v I I I I #
coedge $-1 $500 $499 $492 $615 forward $343 $-1 #
coedge $-1 $492 $345 $347 $496 reversed $215 $-1 #
coedge $-1 $345 $491 $490 $615 reversed $215 $-1 #
coedge $-1 $353 $348 $345 $494 forward $354 $-1 #
edge $-1 $497 -33.900680516163725 $616 -30.395245888587805 $493 $617 forward 7 unknown #
coedge $-1 $347 $346 $500 $618 reversed $135 $-1 #
edge $-1 $619 -4.957433134811251 $497 2.0097183471152325e-014 $491 $620 forward 7 unknown #
vertex $-1 $349 $621 #
straight-curve $-1 -52.307504501480153 -1.5179378238860206 6.17262038927056 0 -1 0 I I #
coedge $-1 $490 $350 $353 $504 forward $343 $-1 #
coedge $-1 $350 $490 $495 $618 forward $343 $-1 #
vertex $-1 $351 $622 #
straight-curve $-1 -63.140743819826021 0.29496298170393498 9.6780550168464785 -1 0 0 I I #
straight-curve $-1 -52.307504501480139 0.29496298170393498 6.1726203892705769 0.70710677298230451 0 0.70710678939079041 I I #
edge $-1 $355 -0.29496298170393498 $616 6.3667142772480174 $353 $623 forward 7 unknown #
point $-1 -52.307504501480153 0.29496298170393498 9.6780550168464821 #
point $-1 -52.307504501480153 0.29496298170393498 6.1726203892705627 #
edge $-1 $624 1 $624 0 $358 $-1 forward 7 unknown #
vertex $-1 $359 $625 #
ellipse-curve $-1 -49.847680438973399 -4.4633779175474579 7.2182309300762304 -0.70710678939079041 0 0.70710677298230451 0.17677669324557613 0 0.1767766973476976 1 I I #
point $-1 -50.378010535118619 -4.4633779175474579 8.1021144004062329 #
edge $-1 $626 1 $626 0 $362 $-1 forward 7 unknown #
vertex $-1 $363 $627 #
ellipse-curve $-1 -49.847680438973399 -1.6083733779966209 7.2182309300762304 -0.70710678939079041 0 0.70710677298230451 0.17677669324557613 0 0.1767766973476976 1 I I #
point $-1 -50.378010535118619 -1.6083733779966209 8.1021144004062329 #
plane-surface $-1 -52.307504501480153 0 0 1 0 0 0 0 -1 forward_v I I I I #
coedge $-1 $526 $525 $518 $628 forward $367 $-1 #
coedge $-1 $518 $369 $371 $522 reversed $237 $-1 #
coedge $-1 $369 $517 $516 $628 reversed $237 $-1 #
coedge $-1 $377 $372 $369 $520 forward $378 $-1 #
edge $-1 $523 -33.900680516163725 $629 -30.395245888587805 $519 $630 forward 7 unknown #
coedge $-1 $371 $370 $526 $631 reversed $149 $-1 #
edge $-1 $632 -4.957433134811251 $523 2.0097183471152325e-014 $517 $633 forward 7 unknown #
vertex $-1 $373 $634 #
straight-curve $-1 -52.307504501480153 4.8763206788300959 6.17262038927056 0 -1 0 I I #
coedge $-1 $516 $374 $377 $530 forward $367 $-1 #
coedge $-1 $374 $516 $521 $631 forward $367 $-1 #
vertex $-1 $375 $635 #
straight-curve $-1 -63.140743819826021 13.083479987136169 9.6780550168464785 -1 0 0 I I #
straight-curve $-1 -52.307504501480139 13.083479987136169 6.1726203892705769 0.70710677298230451 0 0.70710678939079041 I I #
edge $-1 $379 -13.083479987136169 $629 -6.4218027281842156 $377 $636 forward 7 unknown #
point $-1 -52.307504501480153 13.083479987136169 9.6780550168464821 #
point $-1 -52.307504501480153 13.083479987136169 6.1726203892705627 #
edge $-1 $637 1 $637 0 $382 $-1 forward 7 unknown #
vertex $-1 $383 $638 #
ellipse-curve $-1 -49.847680438973399 8.3251390878847751 7.2182309300762304 -0.70710678939079041 0 0.70710677298230451 0.17677669324557613 0 0.1767766973476976 1 I I #
point $-1 -50.378010535118619 8.3251390878847751 8.1021144004062329 #
edge $-1 $639 1 $639 0 $386 $-1 forward 7 unknown #
vertex $-1 $387 $640 #
ellipse-curve $-1 -49.847680438973399 11.180143627435609 7.2182309300762304 -0.70710678939079041 0 0.70710677298230451 0.17677669324557613 0 0.1767766973476976 1 I I #
point $-1 -50.378010535118619 11.180143627435609 8.1021144004062329 #
loop $-1 $-1 $399 $390 #
plane-surface $-1 0 25.871996992568402 0 0 -1 0 0 0 -1 forward_v I I I I #
coedge $-1 $641 $393 $398 $549 forward $259 $-1 #
coedge $-1 $393 $641 $546 $642 forward $259 $-1 #
edge $-1 $547 10.833239318345868 $554 14.338673864577814 $393 $643 forward 7 unknown #
coedge $-1 $402 $396 $544 $642 reversed $391 $-1 #
vertex $-1 $545 $644 #
straight-curve $-1 -52.307504501480153 19.210319733616441 40.073300905434287 0 0 1 I I #
edge $-1 $554 7.9397405520702318 $552 14.601417811022186 $543 $645 forward 7 unknown #
coedge $-1 $551 $399 $402 $556 reversed $541 $-1 #
coedge $-1 $399 $550 $641 $646 reversed $541 $-1 #
vertex $-1 $646 $647 #
straight-curve $-1 -40.773783776878005 25.871996992568402 17.706341381513887 -0.70710677298230462 0 -0.70710678939079052 I I #
vertex $-1 $549 $648 #
straight-curve $-1 -52.307504501480139 19.210319733616441 6.1726203892705769 -0.70710677298230451 0 -0.70710678939079041 I I #
edge $-1 $649 -9.6780550168464821 $403 -6.1726203892705627 $550 $650 forward 7 unknown #
point $-1 -52.307504501480153 25.871996992568395 6.1726203892705627 #
point $-1 -52.307504501480153 19.210319733616441 6.1726203892705627 #
edge $-1 $651 1 $651 0 $406 $-1 forward 7 unknown #
vertex $-1 $407 $652 #
ellipse-curve $-1 -49.847680438973399 21.113656093317001 7.2182309300762304 -0.70710678939079041 0 0.70710677298230451 0.17677669324557613 0 0.1767766973476976 1 I I #
point $-1 -50.378010535118619 21.113656093317001 8.1021144004062329 #
edge $-1 $653 1 $653 0 $410 $-1 forward 7 unknown #
vertex $-1 $411 $654 #
ellipse-curve $-1 -49.847680438973399 23.968660632867834 7.2182309300762304 -0.70710678939079041 0 0.70710677298230451 0.17677669324557613 0 0.1767766973476976 1 I I #
point $-1 -50.378010535118619 23.968660632867834 8.1021144004062329 #
plane-surface $-1 52.307504501480153 0 0 -1 0 0 0 0 1 forward_v I I I I #
coedge $-1 $419 $417 $421 $572 reversed $281 $-1 #
edge $-1 $432 -9.6780550168464821 $574 9.6780550168464821 $431 $655 forward 7 unknown #
vertex $-1 $572 $656 #
straight-curve $-1 -52.307504501480153 -25.871996992568402 0 0 0 -1 I I #
edge $-1 $570 -25.871996992568402 $574 25.871996992568402 $568 $657 forward 7 unknown #
straight-curve $-1 0 -25.871996992568402 -9.6780550168464821 -1 0 0 I I #
vertex $-1 $424 $658 #
straight-curve $-1 0 25.871996992568402 -9.6780550168464821 1 0 0 I I #
point $-1 52.307504501480153 25.871996992568402 -9.6780550168464821 #
point $-1 52.307504501480153 -25.871996992568402 -9.6780550168464821 #
straight-curve $-1 -52.307504501480153 0 9.6780550168464821 0 -1 0 I I #
point $-1 -52.307504501480153 25.871996992568402 9.6780550168464821 #
point $-1 -52.307504501480153 -25.871996992568402 9.6780550168464821 #
straight-curve $-1 52.307504501480153 -25.871996992568402 0 0 0 -1 I I #
straight-curve $-1 52.307504501480153 25.871996992568402 0 0 0 -1 I I #
plane-surface $-1 52.307504501480153 0 0 -1 0 0 0 0 1 forward_v I I I I #
coedge $-1 $587 $444 $455 $596 forward $300 $-1 #
coedge $-1 $444 $587 $458 $598 reversed $300 $-1 #
straight-curve $-1 52.307504501480153 -19.155231282680244 2.310877057926005 0 0 1 I I #
coedge $-1 $585 $584 $447 $588 forward $300 $-1 #
edge $-1 $591 7.8984242138680827 $589 14.61518992375624 $587 $659 forward 7 unknown #
vertex $-1 $449 $660 #
straight-curve $-1 0 -25.871996992568402 2.241006337193876 1 0 0 I I #
vertex $-1 $588 $661 #
straight-curve $-1 0 -19.155231282680244 2.241006337193876 1 0 0 I I #
point $-1 52.307504501480153 -25.871996992568402 2.241006337193876 #
point $-1 52.307504501480153 -19.155231282680244 2.241006337193876 #
straight-curve $-1 -52.307504501480153 -11.256807068812162 7.0025018945101438 0 1 0 I I #
edge $-1 $456 -4.6916248365841389 $591 0.069870720732128966 $584 $662 forward 7 unknown #
point $-1 -52.307504501480153 -19.155231282680244 7.0025018945101438 #
edge $-1 $460 -7.0025018945101438 $589 -2.241006337193876 $585 $663 forward 7 unknown #
point $-1 -52.307504501480153 -25.871996992568402 7.0025018945101438 #
straight-curve $-1 52.307504501480153 -25.871996992568402 0 0 0 -1 I I #
coedge $-1 $474 $473 $466 $602 forward $319 $-1 #
edge $-1 $609 10.833239318345868 $604 14.338673864577814 $601 $664 forward 7 unknown #
edge $-1 $471 -33.900680516163725 $609 -30.395245888587805 $470 $665 forward 7 unknown #
vertex $-1 $606 $666 #
straight-curve $-1 -52.307504501480139 -19.155231282680248 6.1726203892705769 -0.70710677298230451 0 -0.70710678939079041 I I #
edge $-1 $604 -11.243034956078112 $475 -4.5813576971261583 $474 $667 forward 7 unknown #
point $-1 -52.307504501480153 -19.155231282680244 6.1726203892705627 #
point $-1 -48.802069955248207 -12.493554023728294 9.6780550168464821 #
vertex $-1 $603 $668 #
straight-curve $-1 -52.307504501480153 0 9.6780550168464821 0 -1 0 I I #
vertex $-1 $481 $669 #
point $-1 -49.670903745727827 -17.251894922979687 7.3950076274239276 #
vertex $-1 $485 $670 #
point $-1 -49.670903745727827 -14.39689038342885 7.3950076274239276 #
edge $-1 $616 10.833239318345868 $619 14.338673864577814 $490 $671 forward 7 unknown #
vertex $-1 $494 $672 #
straight-curve $-1 -52.307504501480153 -6.3667142772480174 40.073300905434287 0 0 1 I I #
edge $-1 $619 -4.8487764533619968 $501 1.8129008055899556 $500 $673 forward 7 unknown #
vertex $-1 $618 $674 #
straight-curve $-1 -52.307504501480139 -6.3667142772480174 6.1726203892705769 -0.70710677298230451 0 -0.70710678939079041 I I #
point $-1 -52.307504501480153 -6.3667142772480174 6.1726203892705627 #
point $-1 -48.802069955248207 0.29496298170393498 9.6780550168464821 #
straight-curve $-1 -52.307504501480153 0 9.6780550168464821 0 -1 0 I I #
vertex $-1 $507 $675 #
point $-1 -49.670903745727827 -4.4633779175474579 7.3950076274239276 #
vertex $-1 $511 $676 #
point $-1 -49.670903745727827 -1.6083733779966209 7.3950076274239276 #
edge $-1 $629 10.833239318345868 $632 14.338673864577814 $516 $677 forward 7 unknown #
vertex $-1 $520 $678 #
straight-curve $-1 -52.307504501480153 6.4218027281842156 40.073300905434287 0 0 1 I I #
edge $-1 $632 1.5454820493541197 $527 8.207159308306073 $526 $679 forward 7 unknown #
vertex $-1 $631 $680 #
straight-curve $-1 -52.307504501480139 6.4218027281842156 6.1726203892705769 -0.70710677298230451 0 -0.70710678939079041 I I #
point $-1 -52.307504501480153 6.4218027281842156 6.1726203892705627 #
point $-1 -48.802069955248207 13.083479987136169 9.6780550168464821 #
straight-curve $-1 -52.307504501480153 0 9.6780550168464821 0 -1 0 I I #
vertex $-1 $533 $681 #
point $-1 -49.670903745727827 8.3251390878847751 7.3950076274239276 #
vertex $-1 $537 $682 #
point $-1 -49.670903745727827 11.180143627435609 7.3950076274239276 #
coedge $-1 $544 $543 $551 $646 forward $259 $-1 #
edge $-1 $649 -25.871996992568402 $547 -19.210319733616441 $546 $683 forward 7 unknown #
straight-curve $-1 -63.140743819826021 19.210319733616441 9.6780550168464785 1 0 0 I I #
point $-1 -52.307504501480153 19.210319733616441 9.6780550168464821 #
straight-curve $-1 -48.8020699552482 11.270579181546209 9.6780550168464803 0 1 0 I I #
edge $-1 $552 48.802069955248207 $649 52.307504501480153 $551 $684 forward 7 unknown #
point $-1 -48.802069955248207 25.871996992568395 9.6780550168464821 #
point $-1 -48.802069955248207 19.210319733616441 9.6780550168464821 #
vertex $-1 $646 $685 #
straight-curve $-1 -52.307504501480153 25.871996992568402 0 0 0 -1 I I #
vertex $-1 $559 $686 #
point $-1 -49.670903745727827 21.113656093317001 7.3950076274239276 #
vertex $-1 $563 $687 #
point $-1 -49.670903745727827 23.968660632867834 7.3950076274239276 #
straight-curve $-1 -52.307504501480153 25.871996992568402 0 0 0 -1 I I #
point $-1 -52.307504501480153 -25.871996992568402 -9.6780550168464821 #
straight-curve $-1 -52.307504501480153 0 -9.6780550168464821 0 1 0 I I #
point $-1 -52.307504501480153 25.871996992568402 -9.6780550168464821 #
straight-curve $-1 -52.307504501480153 -11.256807068812162 2.241006337193876 0 -1 0 I I #
point $-1 -52.307504501480153 -25.871996992568402 2.241006337193876 #
point $-1 -52.307504501480153 -19.155231282680244 2.241006337193876 #
straight-curve $-1 -52.307504501480153 -19.155231282680244 2.310877057926005 0 0 -1 I I #
straight-curve $-1 -52.307504501480153 -25.871996992568402 0 0 0 -1 I I #
straight-curve $-1 -63.140743819826021 -19.155231282680248 9.6780550168464785 1 0 0 I I #
straight-curve $-1 -52.307504501480153 -19.155231282680248 40.073300905434287 0 0 1 I I #
point $-1 -48.802069955248207 -19.155231282680248 9.6780550168464821 #
straight-curve $-1 -48.8020699552482 -7.9121963266021353 9.6780550168464803 0 1 0 I I #
point $-1 -52.307504501480153 -19.155231282680248 9.6780550168464821 #
point $-1 -49.670903741625708 -17.251894922979687 7.0414542368306536 #
point $-1 -49.670903741625708 -14.39689038342885 7.0414542368306536 #
straight-curve $-1 -63.140743819826021 -6.3667142772480174 9.6780550168464785 1 0 0 I I #
point $-1 -52.307504501480153 -6.3667142772480174 9.6780550168464821 #
straight-curve $-1 -48.8020699552482 -1.5179378238860206 9.6780550168464803 0 1 0 I I #
point $-1 -48.802069955248207 -6.3667142772480174 9.6780550168464821 #
point $-1 -49.670903741625708 -4.4633779175474579 7.0414542368306536 #
point $-1 -49.670903741625708 -1.6083733779966209 7.0414542368306536 #
straight-curve $-1 -63.140743819826021 6.4218027281842156 9.6780550168464785 1 0 0 I I #
point $-1 -52.307504501480153 6.4218027281842156 9.6780550168464821 #
straight-curve $-1 -48.8020699552482 4.8763206788300959 9.6780550168464803 0 1 0 I I #
point $-1 -48.802069955248207 6.4218027281842156 9.6780550168464821 #
point $-1 -49.670903741625708 8.3251390878847751 7.0414542368306536 #
point $-1 -49.670903741625708 11.180143627435609 7.0414542368306536 #
straight-curve $-1 -52.307504501480153 0 9.6780550168464821 0 -1 0 I I #
straight-curve $-1 0 25.871996992568402 9.6780550168464821 -1 0 0 I I #
point $-1 -52.307504501480153 25.871996992568402 9.6780550168464821 #
point $-1 -49.670903741625708 21.113656093317001 7.0414542368306536 #
point $-1 -49.670903741625708 23.968660632867834 7.0414542368306536 #
End-of-ACIS-data 