500 0 8 0           
7 Unknown 11 ACIS 5.0 NT 24 Fri Mar 26 14:43:37 1999 
-1 9.9999999999999995e-007 1e-010 
body $-1 $8 $-1 $9 #
body $-1 $10 $-1 $11 #
body $-1 $12 $-1 $13 #
body $-1 $14 $-1 $15 #
body $-1 $16 $-1 $17 #
body $-1 $18 $-1 $19 #
body $-1 $20 $-1 $21 #
body $-1 $22 $-1 $23 #
lump $-1 $-1 $24 $0 #
transform $-1 1 0 0 0 1 0 0 0 1 73.243202002014215 42.010174476340694 13.959885975774041 1 rotate no_reflect no_shear #
lump $-1 $-1 $25 $1 #
transform $-1 1 0 0 0 1 0 0 0 1 73.243202002014215 42.010174476340694 13.959885975774041 1 rotate no_reflect no_shear #
lump $-1 $-1 $26 $2 #
transform $-1 1 0 0 0 1 0 0 0 1 73.243202002014215 42.010174476340694 13.959885975774041 1 rotate no_reflect no_shear #
lump $-1 $-1 $27 $3 #
transform $-1 1 0 0 0 1 0 0 0 1 73.243202002014215 42.010174476340694 13.959885975774041 1 rotate no_reflect no_shear #
lump $-1 $-1 $28 $4 #
transform $-1 1 0 0 0 1 0 0 0 1 73.243202002014215 42.010174476340694 13.959885975774041 1 rotate no_reflect no_shear #
lump $-1 $-1 $29 $5 #
transform $-1 1 0 0 0 1 0 0 0 1 73.243202002014215 42.010174476340694 13.959885975774041 1 rotate no_reflect no_shear #
lump $-1 $-1 $30 $6 #
transform $-1 1 0 0 0 1 0 0 0 1 73.243202002014215 42.010174476340694 13.959885975774041 1 rotate no_reflect no_shear #
lump $-1 $-1 $31 $7 #
transform $-1 1 0 0 0 1 0 0 0 1 73.243202002014215 42.010174476340694 13.959885975774041 1 rotate no_reflect no_shear #
shell $-1 $-1 $-1 $32 $-1 $8 #
shell $-1 $-1 $-1 $33 $-1 $10 #
shell $-1 $-1 $-1 $34 $-1 $12 #
shell $-1 $-1 $-1 $35 $-1 $14 #
shell $-1 $-1 $-1 $36 $-1 $16 #
shell $-1 $-1 $-1 $37 $-1 $18 #
shell $-1 $-1 $-1 $38 $-1 $20 #
shell $-1 $-1 $-1 $39 $-1 $22 #
face $-1 $40 $41 $24 $-1 $42 forward single #
face $-1 $43 $44 $25 $-1 $45 reversed single #
face $-1 $46 $47 $26 $-1 $48 reversed single #
face $-1 $49 $50 $27 $-1 $51 forward single #
face $-1 $52 $53 $28 $-1 $54 forward single #
face $-1 $55 $56 $29 $-1 $57 reversed single #
face $-1 $58 $59 $30 $-1 $60 forward single #
face $-1 $61 $62 $31 $-1 $63 forward single #
face $-1 $64 $65 $24 $-1 $66 reversed single #
loop $-1 $-1 $67 $32 #
plane-surface $-1 0 0 13.959885975774041 0 0 1 1 0 0 forward_v I I I I #
face $-1 $68 $69 $25 $-1 $70 reversed single #
loop $-1 $-1 $71 $33 #
plane-surface $-1 -65.768653782535196 -22.913769486923769 0 0 1 0 0 0 1 forward_v I I I I #
face $-1 $72 $73 $26 $-1 $74 reversed single #
loop $-1 $-1 $75 $34 #
plane-surface $-1 -58.294105563056192 94.650202559369802 168.41040507622105 1 0 0 0 -0.74314483375859142 -0.66913059716165679 forward_v I I I I #
face $-1 $76 $77 $27 $-1 $78 forward single #
loop $-1 $79 $80 $35 #
cone-surface $-1 -49.158769043953527 38.562098323895484 10.28671531130569 0 -0.74314483375859142 -0.66913059716165679 1 0 0 1 I I 0 1 1 forward I I I I #
face $-1 $81 $82 $28 $-1 $83 forward single #
loop $-1 $84 $85 $36 #
cone-surface $-1 -35.455764265299536 38.562098323895484 10.28671531130569 0 -0.74314483375859142 -0.66913059716165679 1 0 0 1 I I 0 1 1 forward I I I I #
face $-1 $86 $87 $29 $-1 $88 reversed single #
loop $-1 $-1 $89 $37 #
plane-surface $-1 -26.320427746196874 -150.87078882780827 105.97111682144178 -1 0 0 0 -0.74314483375859142 0.66913059716165679 forward_v I I I I #
face $-1 $90 $91 $30 $-1 $92 forward single #
loop $-1 $93 $94 $38 #
cone-surface $-1 -49.158769043953527 -38.562098323895476 10.286715311305697 0 0.74314483375859142 -0.66913059716165679 1 0 0 1 I I 0 1 1 forward I I I I #
face $-1 $95 $96 $31 $-1 $97 forward single #
loop $-1 $98 $99 $39 #
cone-surface $-1 -35.455764265299536 -38.562098323895476 10.286715311305697 0 0.74314483375859142 -0.66913059716165679 1 0 0 1 I I 0 1 1 forward I I I I #
face $-1 $100 $101 $24 $-1 $102 reversed single #
loop $-1 $-1 $103 $40 #
plane-surface $-1 0 0 -13.959885975774041 0 0 1 1 0 0 forward_v I I I I #
coedge $-1 $104 $105 $106 $107 forward $41 $-1 #
face $-1 $108 $109 $25 $-1 $110 reversed single #
loop $-1 $-1 $111 $43 #
plane-surface $-1 -65.768653782535196 -15.185410968361309 0 0 -1 0 0 0 -1 forward_v I I I I #
coedge $-1 $112 $113 $114 $115 reversed $44 $-1 #
face $-1 $116 $117 $26 $-1 $118 reversed single #
loop $-1 $-1 $119 $46 #
plane-surface $-1 -42.307266654626531 -14.210411792097759 70.391870088941801 0 0.74314483375859142 0.66913059716165679 1 0 0 forward_v I I I I #
coedge $-1 $120 $121 $122 $123 reversed $47 $-1 #
face $-1 $-1 $124 $27 $-1 $125 forward single #
loop $-1 $126 $127 $49 #
cone-surface $-1 -49.158769043953527 37.446950159477225 9.2826314190622714 0 -0.74314483375859142 -0.66913059716165679 0.5 0 0 1 I I -0.70710678118654746 0.70710678118654746 0.5 forward I I I I #
loop $-1 $-1 $128 $35 #
coedge $-1 $80 $80 $129 $130 reversed $50 $-1 #
face $-1 $-1 $131 $28 $-1 $132 forward single #
loop $-1 $133 $134 $52 #
cone-surface $-1 -35.455764265299536 37.446950159477225 9.2826314190622714 0 -0.74314483375859142 -0.66913059716165679 0.5 0 0 1 I I -0.70710678118654746 0.70710678118654746 0.5 forward I I I I #
loop $-1 $-1 $135 $36 #
coedge $-1 $85 $85 $136 $137 reversed $53 $-1 #
face $-1 $138 $139 $29 $-1 $140 reversed single #
loop $-1 $-1 $141 $55 #
plane-surface $-1 -42.307266654626531 -42.010174476340708 7.9525818341625296 0 -0.74314483375859142 0.66913059716165679 1 0 0 forward_v I I I I #
coedge $-1 $142 $143 $144 $145 reversed $56 $-1 #
face $-1 $-1 $146 $30 $-1 $147 forward single #
loop $-1 $148 $149 $58 #
cone-surface $-1 -49.158769043953527 -37.446950159477218 9.2826314190622785 0 0.74314483375859142 -0.66913059716165679 0.5 0 0 1 I I -0.70710678118654746 0.70710678118654746 0.5 forward I I I I #
loop $-1 $-1 $150 $38 #
coedge $-1 $94 $94 $151 $152 reversed $59 $-1 #
face $-1 $-1 $153 $31 $-1 $154 forward single #
loop $-1 $155 $156 $61 #
cone-surface $-1 -35.455764265299536 -37.446950159477218 9.2826314190622785 0 0.74314483375859142 -0.66913059716165679 0.5 0 0 1 I I -0.70710678118654746 0.70710678118654746 0.5 forward I I I I #
loop $-1 $-1 $157 $39 #
coedge $-1 $99 $99 $158 $159 reversed $62 $-1 #
face $-1 $160 $161 $24 $-1 $162 reversed single #
loop $-1 $-1 $163 $64 #
plane-surface $-1 0 -42.010174476340694 0 0 1 0 0 0 1 forward_v I I I I #
coedge $-1 $164 $165 $166 $167 forward $65 $-1 #
coedge $-1 $168 $67 $169 $170 forward $41 $-1 #
coedge $-1 $67 $168 $171 $172 forward $41 $-1 #
coedge $-1 $173 $174 $67 $107 reversed $175 $-1 #
edge $-1 $176 -42.010174476340694 $177 42.010174476340694 $106 $178 forward 7 unknown #
face $-1 $179 $180 $25 $-1 $181 reversed single #
loop $-1 $-1 $182 $68 #
plane-surface $-1 -58.294105563056178 -19.04959022764254 0 -1 0 0 0 0 1 forward_v I I I I #
coedge $-1 $183 $184 $185 $186 forward $69 $-1 #
coedge $-1 $187 $71 $188 $189 reversed $44 $-1 #
coedge $-1 $71 $187 $190 $191 reversed $44 $-1 #
coedge $-1 $192 $193 $71 $115 forward $194 $-1 #
edge $-1 $195 -13.959885975774041 $196 13.959885975774041 $114 $197 forward 7 unknown #
face $-1 $198 $199 $26 $-1 $200 reversed single #
loop $-1 $-1 $201 $72 #
plane-surface $-1 -26.320427746196874 94.650202559369802 168.41040507622105 -1 0 0 0 0.74314483375859142 0.66913059716165679 forward_v I I I I #
coedge $-1 $202 $203 $204 $205 reversed $73 $-1 #
coedge $-1 $121 $75 $206 $207 reversed $47 $-1 #
coedge $-1 $75 $120 $202 $208 reversed $47 $-1 #
coedge $-1 $204 $209 $75 $123 forward $210 $-1 #
edge $-1 $211 5.314926803344207 $212 10.723927613156668 $122 $213 forward 7 unknown #
loop $-1 $-1 $129 $76 #
plane-surface $-1 -42.307266654626531 -14.210411792097759 70.391870088941801 0 0.74314483375859142 0.66913059716165679 1 0 0 forward_v I I I I #
loop $-1 $-1 $214 $49 #
coedge $-1 $127 $127 $128 $215 reversed $77 $-1 #
coedge $-1 $128 $128 $127 $215 forward $79 $-1 #
coedge $-1 $129 $129 $80 $130 forward $124 $-1 #
edge $-1 $216 2.5761793659140106e-016 $216 6.2831853071796004 $129 $217 forward 7 unknown #
loop $-1 $-1 $136 $81 #
plane-surface $-1 -42.307266654626531 -14.210411792097759 70.391870088941801 0 0.74314483375859142 0.66913059716165679 1 0 0 forward_v I I I I #
loop $-1 $-1 $218 $52 #
coedge $-1 $134 $134 $135 $219 reversed $82 $-1 #
coedge $-1 $135 $135 $134 $219 forward $84 $-1 #
coedge $-1 $136 $136 $85 $137 forward $131 $-1 #
edge $-1 $220 2.5761793659140106e-016 $220 6.2831853071796004 $136 $221 forward 7 unknown #
face $-1 $222 $223 $29 $-1 $224 forward single #
loop $-1 $-1 $225 $86 #
plane-surface $-1 -58.294105563056192 -150.87078882780827 105.97111682144178 1 0 0 0 0.74314483375859142 -0.66913059716165679 forward_v I I I I #
coedge $-1 $226 $227 $228 $229 reversed $87 $-1 #
coedge $-1 $143 $89 $230 $231 reversed $56 $-1 #
coedge $-1 $89 $142 $226 $232 reversed $56 $-1 #
coedge $-1 $228 $233 $89 $145 forward $223 $-1 #
edge $-1 $234 33.42521993756344 $235 38.834220747375937 $144 $236 forward 7 unknown #
loop $-1 $-1 $151 $90 #
plane-surface $-1 -42.307266654626531 -42.010174476340708 7.9525818341625296 0 -0.74314483375859142 0.66913059716165679 1 0 0 forward_v I I I I #
loop $-1 $-1 $237 $58 #
coedge $-1 $149 $149 $150 $238 reversed $91 $-1 #
coedge $-1 $150 $150 $149 $238 forward $93 $-1 #
coedge $-1 $151 $151 $94 $152 forward $146 $-1 #
edge $-1 $239 -5.2590278156781236e-016 $239 6.2831853071795996 $151 $240 forward 7 unknown #
loop $-1 $-1 $158 $95 #
plane-surface $-1 -42.307266654626531 -42.010174476340708 7.9525818341625296 0 -0.74314483375859142 0.66913059716165679 1 0 0 forward_v I I I I #
loop $-1 $-1 $241 $61 #
coedge $-1 $156 $156 $157 $242 reversed $96 $-1 #
coedge $-1 $157 $157 $156 $242 forward $98 $-1 #
coedge $-1 $158 $158 $99 $159 forward $153 $-1 #
edge $-1 $243 -5.2590278156781236e-016 $243 6.2831853071795996 $158 $244 forward 7 unknown #
face $-1 $245 $246 $24 $-1 $247 reversed single #
loop $-1 $-1 $248 $100 #
plane-surface $-1 -73.243202002014215 0 0 1 0 0 0 0 -1 forward_v I I I I #
coedge $-1 $249 $171 $250 $251 forward $101 $-1 #
coedge $-1 $252 $103 $249 $253 forward $65 $-1 #
coedge $-1 $103 $252 $254 $255 forward $65 $-1 #
coedge $-1 $174 $173 $103 $167 reversed $175 $-1 #
edge $-1 $256 -42.010174476340694 $257 42.010174476340694 $166 $258 forward 7 unknown #
coedge $-1 $105 $104 $259 $260 forward $41 $-1 #
coedge $-1 $261 $262 $104 $170 reversed $246 $-1 #
edge $-1 $177 -73.243202002014215 $263 73.243202002014215 $169 $264 forward 7 unknown #
coedge $-1 $163 $265 $105 $172 reversed $101 $-1 #
edge $-1 $266 -73.243202002014215 $176 73.243202002014215 $171 $267 forward 7 unknown #
coedge $-1 $166 $106 $265 $268 forward $175 $-1 #
coedge $-1 $106 $166 $261 $269 reversed $175 $-1 #
loop $-1 $-1 $173 $245 #
vertex $-1 $107 $270 #
vertex $-1 $107 $271 #
straight-curve $-1 73.243202002014215 0 13.959885975774041 0 1 0 I I #
face $-1 $272 $273 $25 $-1 $274 forward single #
loop $-1 $-1 $275 $108 #
plane-surface $-1 0 0 -13.959885975774041 0 0 1 1 0 0 forward_v I I I I #
coedge $-1 $276 $277 $187 $278 forward $109 $-1 #
coedge $-1 $279 $111 $275 $280 reversed $69 $-1 #
coedge $-1 $111 $279 $281 $282 reversed $69 $-1 #
coedge $-1 $277 $276 $111 $186 reversed $109 $-1 #
edge $-1 $283 -13.959885975774041 $284 13.959885975774041 $185 $285 forward 7 unknown #
coedge $-1 $113 $112 $182 $278 reversed $44 $-1 #
coedge $-1 $286 $287 $112 $189 forward $180 $-1 #
edge $-1 $288 25.40977867178858 $195 40.358875110746617 $188 $289 forward 7 unknown #
coedge $-1 $290 $291 $113 $191 forward $273 $-1 #
edge $-1 $196 -40.358875110746617 $292 -25.40977867178858 $190 $293 forward 7 unknown #
coedge $-1 $294 $114 $291 $295 reversed $194 $-1 #
coedge $-1 $114 $294 $286 $296 reversed $194 $-1 #
loop $-1 $-1 $294 $272 #
vertex $-1 $296 $297 #
vertex $-1 $115 $298 #
straight-curve $-1 -73.243202002014215 -22.913769486923769 0 0 0 1 I I #
face $-1 $-1 $210 $26 $-1 $299 forward single #
loop $-1 $-1 $300 $116 #
plane-surface $-1 0 42.010174476340694 0 0 -1 0 0 0 -1 forward_v I I I I #
coedge $-1 $301 $302 $303 $304 reversed $117 $-1 #
coedge $-1 $305 $119 $121 $208 forward $73 $-1 #
coedge $-1 $119 $305 $301 $306 forward $73 $-1 #
coedge $-1 $303 $122 $119 $205 forward $210 $-1 #
edge $-1 $212 -37.140472235742926 $307 -5.1667944188836081 $204 $308 forward 7 unknown #
coedge $-1 $309 $310 $120 $207 forward $199 $-1 #
edge $-1 $311 -76.25262070394794 $211 -70.245316562336484 $206 $312 forward 7 unknown #
edge $-1 $212 75.936723973108485 $311 84.020348952681331 $121 $313 forward 7 unknown #
coedge $-1 $122 $303 $309 $314 forward $210 $-1 #
loop $-1 $-1 $303 $198 #
vertex $-1 $207 $315 #
vertex $-1 $123 $316 #
straight-curve $-1 -58.294105563056192 47.325101279684901 13.959885975774043 0 -1 0 I I #
coedge $-1 $214 $214 $-1 $317 reversed $126 $-1 #
edge $-1 $318 0 $318 6.2831853071796004 $127 $319 forward 7 unknown #
vertex $-1 $130 $320 #
ellipse-curve $-1 -49.158769043953527 39.305674071434467 10.956233904968299 0 0.74314483375859142 0.66913059716165679 1 0 0 1 I I #
coedge $-1 $218 $218 $-1 $321 reversed $133 $-1 #
edge $-1 $322 0 $322 6.2831853071796004 $134 $323 forward 7 unknown #
vertex $-1 $137 $324 #
ellipse-curve $-1 -35.455764265299536 39.305674071434467 10.956233904968299 0 0.74314483375859142 0.66913059716165679 1 0 0 1 I I #
face $-1 $-1 $325 $29 $-1 $326 reversed single #
loop $-1 $-1 $144 $138 #
plane-surface $-1 0 0 13.959885975774041 0 0 1 1 0 0 forward_v I I I I #
coedge $-1 $327 $328 $329 $330 reversed $139 $-1 #
coedge $-1 $331 $141 $143 $232 forward $87 $-1 #
coedge $-1 $141 $331 $327 $332 forward $87 $-1 #
coedge $-1 $329 $144 $141 $229 forward $223 $-1 #
edge $-1 $235 5.1667944188836081 $333 37.140472235742926 $228 $334 forward 7 unknown #
coedge $-1 $335 $336 $142 $231 forward $325 $-1 #
edge $-1 $337 -45.032976576558347 $234 -39.025672434946848 $230 $338 forward 7 unknown #
edge $-1 $235 -8.0836249795729138 $337 -2.1389731374768986e-014 $143 $339 forward 7 unknown #
coedge $-1 $144 $329 $335 $340 forward $223 $-1 #
vertex $-1 $231 $341 #
vertex $-1 $145 $342 #
straight-curve $-1 -26.320427746196874 -75.435394413904135 13.959885975774043 0 1 0 I I #
coedge $-1 $237 $237 $-1 $343 reversed $148 $-1 #
edge $-1 $344 0 $344 6.2831853071796004 $149 $345 forward 7 unknown #
vertex $-1 $152 $346 #
ellipse-curve $-1 -49.158769043953527 -39.305674071434446 10.956233904968293 0 -0.74314483375859142 0.66913059716165679 1 0 0 1 I I #
coedge $-1 $241 $241 $-1 $347 reversed $155 $-1 #
edge $-1 $348 0 $348 6.2831853071796004 $156 $349 forward 7 unknown #
vertex $-1 $159 $350 #
ellipse-curve $-1 -35.455764265299536 -39.305674071434446 10.956233904968293 0 -0.74314483375859142 0.66913059716165679 1 0 0 1 I I #
face $-1 $-1 $175 $24 $-1 $351 reversed single #
loop $-1 $-1 $261 $160 #
plane-surface $-1 0 42.010174476340694 0 0 -1 0 0 0 -1 forward_v I I I I #
coedge $-1 $352 $259 $262 $353 forward $161 $-1 #
coedge $-1 $265 $163 $164 $253 reversed $101 $-1 #
coedge $-1 $259 $352 $163 $251 reversed $161 $-1 #
edge $-1 $266 -13.959885975774041 $354 13.959885975774041 $250 $355 forward 7 unknown #
coedge $-1 $165 $164 $352 $356 forward $65 $-1 #
edge $-1 $257 -73.243202002014215 $354 73.243202002014215 $249 $357 forward 7 unknown #
coedge $-1 $262 $261 $165 $255 reversed $246 $-1 #
edge $-1 $358 -73.243202002014215 $256 73.243202002014215 $254 $359 forward 7 unknown #
vertex $-1 $167 $360 #
vertex $-1 $268 $361 #
straight-curve $-1 73.243202002014215 0 -13.959885975774041 0 -1 0 I I #
coedge $-1 $248 $250 $168 $260 reversed $161 $-1 #
edge $-1 $263 -42.010174476340694 $266 42.010174476340694 $259 $362 forward 7 unknown #
coedge $-1 $254 $169 $174 $269 forward $246 $-1 #
coedge $-1 $169 $254 $248 $353 reversed $246 $-1 #
vertex $-1 $170 $363 #
straight-curve $-1 0 42.010174476340694 13.959885975774041 -1 0 0 I I #
coedge $-1 $171 $249 $173 $268 reversed $101 $-1 #
vertex $-1 $260 $364 #
straight-curve $-1 0 -42.010174476340694 13.959885975774041 1 0 0 I I #
edge $-1 $176 -13.959885975774041 $257 13.959885975774041 $173 $365 forward 7 unknown #
edge $-1 $177 -13.959885975774041 $256 13.959885975774041 $174 $366 forward 7 unknown #
point $-1 73.243202002014215 -42.010174476340694 13.959885975774041 #
point $-1 73.243202002014215 42.010174476340694 13.959885975774041 #
face $-1 $-1 $194 $25 $-1 $367 reversed single #
loop $-1 $-1 $281 $179 #
plane-surface $-1 0 0 13.959885975774041 0 0 1 1 0 0 forward_v I I I I #
coedge $-1 $287 $286 $183 $280 forward $180 $-1 #
coedge $-1 $185 $182 $287 $368 reversed $109 $-1 #
coedge $-1 $182 $185 $290 $369 reversed $109 $-1 #
edge $-1 $292 -13.959885975774041 $288 13.959885975774041 $182 $370 forward 7 unknown #
coedge $-1 $184 $183 $294 $371 reversed $69 $-1 #
edge $-1 $372 -40.358875110746617 $284 -25.40977867178858 $275 $373 forward 7 unknown #
coedge $-1 $291 $290 $184 $282 forward $273 $-1 #
edge $-1 $283 25.40977867178858 $374 40.358875110746617 $281 $375 forward 7 unknown #
vertex $-1 $282 $376 #
vertex $-1 $280 $377 #
straight-curve $-1 -58.294105563056178 -15.185410968361309 0 0 0 -1 I I #
coedge $-1 $275 $188 $193 $296 forward $180 $-1 #
coedge $-1 $188 $275 $276 $368 forward $180 $-1 #
vertex $-1 $189 $378 #
straight-curve $-1 -32.884326891267598 -22.913769486923769 -13.959885975774041 -1 0 0 I I #
coedge $-1 $281 $190 $277 $369 forward $273 $-1 #
coedge $-1 $190 $281 $192 $295 forward $273 $-1 #
vertex $-1 $191 $379 #
straight-curve $-1 -32.884326891267598 -22.913769486923769 13.959885975774041 1 0 0 I I #
coedge $-1 $193 $192 $279 $371 forward $194 $-1 #
edge $-1 $374 15.185410968361309 $196 22.913769486923769 $192 $380 forward 7 unknown #
edge $-1 $195 -22.913769486923769 $372 -15.185410968361309 $193 $381 forward 7 unknown #
point $-1 -73.243202002014215 -22.913769486923769 -13.959885975774041 #
point $-1 -73.243202002014215 -22.913769486923769 13.959885975774041 #
plane-surface $-1 0 0 13.959885975774041 0 0 1 1 0 0 forward_v I I I I #
coedge $-1 $310 $309 $302 $382 forward $199 $-1 #
coedge $-1 $302 $201 $203 $306 reversed $117 $-1 #
coedge $-1 $201 $301 $300 $382 reversed $117 $-1 #
coedge $-1 $209 $204 $201 $304 forward $210 $-1 #
edge $-1 $307 -10.723927613156668 $383 -5.314926803344207 $303 $384 forward 7 unknown #
coedge $-1 $203 $202 $310 $385 reversed $73 $-1 #
edge $-1 $386 -84.020348952681331 $307 -75.936723973108485 $301 $387 forward 7 unknown #
vertex $-1 $205 $388 #
straight-curve $-1 -21.153633327313266 36.601173666528233 13.959885975774036 1 0 0 I I #
coedge $-1 $300 $206 $209 $314 reversed $199 $-1 #
coedge $-1 $206 $300 $305 $385 forward $199 $-1 #
vertex $-1 $207 $389 #
straight-curve $-1 -58.294105563056192 42.010174476340694 84.205202538110527 0 0 1 I I #
straight-curve $-1 -58.294105563056192 -14.210411792097759 70.391870088941801 0 0.66913059716165679 -0.74314483375859142 I I #
edge $-1 $383 26.320427746196874 $211 58.294105563056192 $309 $390 forward 7 unknown #
point $-1 -58.294105563056192 42.010174476340694 13.959885975774041 #
point $-1 -58.294105563056192 36.601173666528233 13.959885975774043 #
edge $-1 $391 1 $391 0 $214 $-1 forward 7 unknown #
vertex $-1 $215 $392 #
ellipse-curve $-1 -49.158769043953527 37.818522576356521 9.6171967176431004 0 0.74314483375859142 0.66913059716165679 1 0 0 1 I I #
point $-1 -48.158769043953527 39.305674071434446 10.956233904968279 #
edge $-1 $393 1 $393 0 $218 $-1 forward 7 unknown #
vertex $-1 $219 $394 #
ellipse-curve $-1 -35.455764265299536 37.818522576356521 9.6171967176431004 0 0.74314483375859142 0.66913059716165679 1 0 0 1 I I #
point $-1 -34.455764265299536 39.305674071434446 10.956233904968279 #
loop $-1 $-1 $230 $222 #
plane-surface $-1 0 -42.010174476340694 0 0 1 0 0 0 1 forward_v I I I I #
coedge $-1 $328 $225 $227 $332 reversed $139 $-1 #
coedge $-1 $225 $327 $395 $396 reversed $139 $-1 #
coedge $-1 $233 $228 $225 $330 forward $223 $-1 #
edge $-1 $333 -38.834220747375937 $397 -33.42521993756344 $329 $398 forward 7 unknown #
coedge $-1 $227 $226 $336 $399 reversed $87 $-1 #
edge $-1 $400 2.1389731374768986e-014 $333 8.0836249795729138 $327 $401 forward 7 unknown #
vertex $-1 $229 $402 #
straight-curve $-1 -21.153633327313266 -36.601173666528197 13.959885975774041 -1 0 0 I I #
coedge $-1 $395 $230 $233 $340 reversed $325 $-1 #
coedge $-1 $230 $395 $331 $399 forward $325 $-1 #
vertex $-1 $231 $403 #
straight-curve $-1 -26.320427746196874 -42.010174476340694 52.985558410720891 0 0 1 I I #
straight-curve $-1 -26.320427746196874 -42.010174476340708 7.9525818341625296 0 -0.66913059716165679 -0.74314483375859142 I I #
edge $-1 $397 -58.294105563056192 $234 -26.320427746196874 $335 $404 forward 7 unknown #
point $-1 -26.320427746196874 -42.010174476340694 13.959885975774041 #
point $-1 -26.320427746196874 -36.601173666528197 13.959885975774041 #
edge $-1 $405 1 $405 0 $237 $-1 forward 7 unknown #
vertex $-1 $238 $406 #
ellipse-curve $-1 -49.158769043953527 -37.818522576356514 9.6171967176431075 0 -0.74314483375859142 0.66913059716165679 1 0 0 1 I I #
point $-1 -48.158769043953527 -39.305674071434439 10.956233904968286 #
edge $-1 $407 1 $407 0 $241 $-1 forward 7 unknown #
vertex $-1 $242 $408 #
ellipse-curve $-1 -35.455764265299536 -37.818522576356514 9.6171967176431075 0 -0.74314483375859142 0.66913059716165679 1 0 0 1 I I #
point $-1 -34.455764265299536 -39.305674071434439 10.956233904968286 #
plane-surface $-1 73.243202002014215 0 0 -1 0 0 0 0 1 forward_v I I I I #
coedge $-1 $250 $248 $252 $356 reversed $161 $-1 #
edge $-1 $263 -13.959885975774041 $358 13.959885975774041 $262 $409 forward 7 unknown #
vertex $-1 $356 $410 #
straight-curve $-1 -73.243202002014215 -42.010174476340694 0 0 0 -1 I I #
edge $-1 $354 -42.010174476340694 $358 42.010174476340694 $352 $411 forward 7 unknown #
straight-curve $-1 0 -42.010174476340694 -13.959885975774041 -1 0 0 I I #
vertex $-1 $255 $412 #
straight-curve $-1 0 42.010174476340694 -13.959885975774041 1 0 0 I I #
point $-1 73.243202002014215 42.010174476340694 -13.959885975774041 #
point $-1 73.243202002014215 -42.010174476340694 -13.959885975774041 #
straight-curve $-1 -73.243202002014215 0 13.959885975774041 0 -1 0 I I #
point $-1 -73.243202002014215 42.010174476340694 13.959885975774041 #
point $-1 -73.243202002014215 -42.010174476340694 13.959885975774041 #
straight-curve $-1 73.243202002014215 -42.010174476340694 0 0 0 -1 I I #
straight-curve $-1 73.243202002014215 42.010174476340694 0 0 0 -1 I I #
plane-surface $-1 -73.243202002014215 0 0 1 0 0 0 0 -1 forward_v I I I I #
edge $-1 $284 5.6606158545400387 $288 13.388974373102499 $287 $413 forward 7 unknown #
edge $-1 $292 -13.388974373102499 $283 -5.6606158545400387 $290 $414 forward 7 unknown #
straight-curve $-1 -58.294105563056178 -22.913769486923769 0 0 0 -1 I I #
edge $-1 $374 -13.959885975774041 $372 13.959885975774041 $294 $415 forward 7 unknown #
vertex $-1 $371 $416 #
straight-curve $-1 -32.884326891267598 -15.185410968361309 -13.959885975774041 1 0 0 I I #
vertex $-1 $295 $417 #
straight-curve $-1 -32.884326891267598 -15.185410968361309 13.959885975774041 -1 0 0 I I #
point $-1 -58.294105563056178 -15.185410968361309 13.959885975774041 #
point $-1 -58.294105563056178 -15.185410968361309 -13.959885975774041 #
point $-1 -58.294105563056178 -22.913769486923769 -13.959885975774041 #
point $-1 -58.294105563056178 -22.913769486923769 13.959885975774041 #
straight-curve $-1 -73.243202002014215 0 13.959885975774041 0 -1 0 I I #
straight-curve $-1 -73.243202002014215 0 -13.959885975774041 0 1 0 I I #
edge $-1 $383 70.245316562336484 $386 76.25262070394794 $300 $418 forward 7 unknown #
vertex $-1 $314 $419 #
straight-curve $-1 -26.320427746196874 47.325101279684901 13.959885975774043 0 1 0 I I #
edge $-1 $386 5.1667944188836081 $311 37.140472235742926 $310 $420 forward 7 unknown #
vertex $-1 $385 $421 #
straight-curve $-1 -26.320427746196874 -14.210411792097759 70.391870088941801 0 -0.66913059716165679 0.74314483375859142 I I #
point $-1 -26.320427746196874 36.601173666528233 13.959885975774043 #
point $-1 -58.294105563056192 42.010174476340694 7.9525818341625794 #
straight-curve $-1 0 42.010174476340694 13.959885975774041 -1 0 0 I I #
vertex $-1 $317 $422 #
point $-1 -48.158769043953527 37.818522576356521 9.6171967176431004 #
vertex $-1 $321 $423 #
point $-1 -34.455764265299536 37.818522576356521 9.6171967176431004 #
coedge $-1 $336 $335 $328 $396 forward $325 $-1 #
edge $-1 $397 39.025672434946848 $400 45.032976576558347 $395 $424 forward 7 unknown #
vertex $-1 $340 $425 #
straight-curve $-1 -58.294105563056192 -75.435394413904135 13.959885975774043 0 -1 0 I I #
edge $-1 $400 -37.140472235742926 $337 -5.1667944188836081 $336 $426 forward 7 unknown #
vertex $-1 $399 $427 #
straight-curve $-1 -58.294105563056192 -42.010174476340708 7.9525818341625296 0 0.66913059716165679 0.74314483375859142 I I #
point $-1 -58.294105563056192 -36.601173666528197 13.959885975774041 #
point $-1 -26.320427746196874 -42.010174476340694 7.9525818341625456 #
straight-curve $-1 0 -42.010174476340694 13.959885975774041 1 0 0 I I #
vertex $-1 $343 $428 #
point $-1 -48.158769043953527 -37.818522576356514 9.6171967176431075 #
vertex $-1 $347 $429 #
point $-1 -34.455764265299536 -37.818522576356514 9.6171967176431075 #
straight-curve $-1 -73.243202002014215 42.010174476340694 0 0 0 -1 I I #
point $-1 -73.243202002014215 -42.010174476340694 -13.959885975774041 #
straight-curve $-1 -73.243202002014215 0 -13.959885975774041 0 1 0 I I #
point $-1 -73.243202002014215 42.010174476340694 -13.959885975774041 #
straight-curve $-1 -58.294105563056178 -9.5247951138212699 -13.959885975774041 0 -1 0 I I #
straight-curve $-1 -58.294105563056178 -9.5247951138212699 13.959885975774041 0 1 0 I I #
straight-curve $-1 -73.243202002014215 -15.185410968361309 0 0 0 -1 I I #
point $-1 -73.243202002014215 -15.185410968361309 -13.959885975774041 #
point $-1 -73.243202002014215 -15.185410968361309 13.959885975774041 #
straight-curve $-1 -26.320427746196874 42.010174476340694 84.205202538110527 0 0 -1 I I #
point $-1 -26.320427746196874 42.010174476340694 13.959885975774041 #
straight-curve $-1 -21.153633327313266 42.010174476340694 7.9525818341625794 -1 0 0 I I #
point $-1 -26.320427746196874 42.010174476340694 7.9525818341625794 #
point $-1 -49.158769043953527 37.075377742597929 8.9480661204814425 #
point $-1 -35.455764265299536 37.075377742597929 8.9480661204814425 #
straight-curve $-1 -58.294105563056192 -42.010174476340694 52.985558410720891 0 0 -1 I I #
point $-1 -58.294105563056192 -42.010174476340694 13.959885975774041 #
straight-curve $-1 -21.153633327313266 -42.010174476340694 7.9525818341625492 1 0 0 I I #
point $-1 -58.294105563056192 -42.010174476340694 7.9525818341625456 #
point $-1 -49.158769043953527 -37.075377742597922 8.9480661204814496 #
point $-1 -35.455764265299536 -37.075377742597922 8.9480661204814496 #
End-of-ACIS-data 