500 0 7 0           
7 Unknown 11 ACIS 5.0 NT 24 Fri Mar 26 16:28:52 1999 
-1 9.9999999999999995e-007 1e-010 
body $-1 $7 $-1 $8 #
body $-1 $9 $-1 $10 #
body $-1 $11 $-1 $12 #
body $-1 $13 $-1 $14 #
body $-1 $15 $-1 $16 #
body $-1 $17 $-1 $18 #
body $-1 $19 $-1 $20 #
lump $-1 $-1 $21 $0 #
transform $-1 1 0 0 0 1 0 0 0 1 45.024567400128177 30.414083599083746 14.192898675656291 1 rotate no_reflect no_shear #
lump $-1 $-1 $22 $1 #
transform $-1 1 0 0 0 1 0 0 0 1 45.024567400128177 30.414083599083746 14.192898675656291 1 rotate no_reflect no_shear #
lump $-1 $-1 $23 $2 #
transform $-1 1 0 0 0 1 0 0 0 1 45.024567400128177 30.414083599083746 14.192898675656291 1 rotate no_reflect no_shear #
lump $-1 $-1 $24 $3 #
transform $-1 1 0 0 0 1 0 0 0 1 45.024567400128177 30.414083599083746 14.192898675656291 1 rotate no_reflect no_shear #
lump $-1 $-1 $25 $4 #
transform $-1 1 0 0 0 1 0 0 0 1 45.024567400128177 30.414083599083746 14.192898675656291 1 rotate no_reflect no_shear #
lump $-1 $-1 $26 $5 #
transform $-1 1 0 0 0 1 0 0 0 1 45.024567400128177 30.414083599083746 14.192898675656291 1 rotate no_reflect no_shear #
lump $-1 $-1 $27 $6 #
transform $-1 1 0 0 0 1 0 0 0 1 45.024567400128177 30.414083599083746 14.192898675656291 1 rotate no_reflect no_shear #
shell $-1 $-1 $-1 $28 $-1 $7 #
shell $-1 $-1 $-1 $29 $-1 $9 #
shell $-1 $-1 $-1 $30 $-1 $11 #
shell $-1 $-1 $-1 $31 $-1 $13 #
shell $-1 $-1 $-1 $32 $-1 $15 #
shell $-1 $-1 $-1 $33 $-1 $17 #
shell $-1 $-1 $-1 $34 $-1 $19 #
face $-1 $35 $36 $21 $-1 $37 forward single #
face $-1 $38 $39 $22 $-1 $40 forward single #
face $-1 $41 $42 $23 $-1 $43 reversed single #
face $-1 $44 $45 $24 $-1 $46 reversed single #
face $-1 $47 $48 $25 $-1 $49 forward single #
face $-1 $50 $51 $26 $-1 $52 forward single #
face $-1 $53 $54 $27 $-1 $55 forward single #
face $-1 $56 $57 $21 $-1 $58 reversed single #
loop $-1 $-1 $59 $28 #
plane-surface $-1 0 0 14.192898675656291 0 0 1 1 0 0 forward_v I I I I #
face $-1 $60 $61 $22 $-1 $62 reversed single #
loop $-1 $-1 $63 $29 #
plane-surface $-1 -37.412106766749751 0 -11.074160034814579 0 0 1 1 0 0 forward_v I I I I #
face $-1 $64 $65 $23 $-1 $66 reversed single #
loop $-1 $-1 $67 $30 #
plane-surface $-1 37.35536029452166 0 7.5376086536384399 0 0 1 1 0 0 forward_v I I I I #
face $-1 $68 $69 $24 $-1 $70 reversed single #
loop $-1 $-1 $71 $31 #
plane-surface $-1 -10.212743779937467 -80.768921397513537 82.278417525563654 -1 0 0 0 -0.55919291073839883 0.82903756765294845 forward_v I I I I #
face $-1 $72 $73 $25 $-1 $74 forward single #
loop $-1 $75 $76 $32 #
cone-surface $-1 -20.494457750856629 -25.013961928326946 10.121435830809068 0 0.55919291073839883 -0.82903756765294845 1 0 0 1 I I 0 1 1 forward I I I I #
face $-1 $77 $78 $26 $-1 $79 forward single #
loop $-1 $80 $81 $33 #
cone-surface $-1 -16.638815011761942 -25.013961928326946 10.121435830809068 0 0.55919291073839883 -0.82903756765294845 1 0 0 1 I I 0 1 1 forward I I I I #
face $-1 $82 $83 $27 $-1 $84 forward single #
loop $-1 $85 $86 $34 #
cone-surface $-1 -12.783172272667258 -25.013961928326946 10.121435830809068 0 0.55919291073839883 -0.82903756765294845 1 0 0 1 I I 0 1 1 forward I I I I #
face $-1 $87 $88 $21 $-1 $89 reversed single #
loop $-1 $-1 $90 $35 #
plane-surface $-1 0 0 -14.192898675656291 0 0 1 1 0 0 forward_v I I I I #
coedge $-1 $91 $92 $93 $94 forward $36 $-1 #
face $-1 $95 $96 $22 $-1 $97 reversed single #
loop $-1 $-1 $98 $38 #
plane-surface $-1 -29.799646133371322 0 -12.633529355235435 -1 0 0 0 0 1 forward_v I I I I #
coedge $-1 $99 $100 $101 $102 forward $39 $-1 #
face $-1 $103 $104 $23 $-1 $105 reversed single #
loop $-1 $-1 $106 $41 #
plane-surface $-1 29.686153188915142 0 10.865253664647366 1 0 0 0 0 -1 forward_v I I I I #
coedge $-1 $107 $108 $109 $110 reversed $42 $-1 #
face $-1 $111 $112 $24 $-1 $113 reversed single #
loop $-1 $-1 $114 $44 #
plane-surface $-1 -16.638815011761942 -30.414083599083739 7.6243018415066501 0 -0.55919291073839883 0.82903756765294845 1 0 0 forward_v I I I I #
coedge $-1 $115 $116 $117 $118 reversed $45 $-1 #
face $-1 $-1 $119 $25 $-1 $120 forward single #
loop $-1 $121 $122 $47 #
cone-surface $-1 -20.494457750856629 -24.203416352229787 8.9197526192101826 0 0.55919291073839883 -0.82903756765294845 0.5 0 0 1 I I -0.70710678118654746 0.70710678118654746 0.5 forward I I I I #
loop $-1 $-1 $123 $32 #
coedge $-1 $76 $76 $124 $125 reversed $48 $-1 #
face $-1 $-1 $126 $26 $-1 $127 forward single #
loop $-1 $128 $129 $50 #
cone-surface $-1 -16.638815011761942 -24.203416352229787 8.9197526192101826 0 0.55919291073839883 -0.82903756765294845 0.5 0 0 1 I I -0.70710678118654746 0.70710678118654746 0.5 forward I I I I #
loop $-1 $-1 $130 $33 #
coedge $-1 $81 $81 $131 $132 reversed $51 $-1 #
face $-1 $-1 $133 $27 $-1 $134 forward single #
loop $-1 $135 $136 $53 #
cone-surface $-1 -12.783172272667258 -24.203416352229787 8.9197526192101826 0 0.55919291073839883 -0.82903756765294845 0.5 0 0 1 I I -0.70710678118654746 0.70710678118654746 0.5 forward I I I I #
loop $-1 $-1 $137 $34 #
coedge $-1 $86 $86 $138 $139 reversed $54 $-1 #
face $-1 $140 $141 $21 $-1 $142 reversed single #
loop $-1 $-1 $143 $56 #
plane-surface $-1 0 -30.414083599083746 0 0 1 0 0 0 1 forward_v I I I I #
coedge $-1 $144 $145 $146 $147 forward $57 $-1 #
coedge $-1 $148 $59 $149 $150 forward $36 $-1 #
coedge $-1 $59 $148 $151 $152 forward $36 $-1 #
coedge $-1 $153 $154 $59 $94 reversed $155 $-1 #
edge $-1 $156 -30.414083599083746 $157 30.414083599083746 $93 $158 forward 7 unknown #
face $-1 $159 $160 $22 $-1 $161 reversed single #
loop $-1 $-1 $162 $60 #
plane-surface $-1 0 0 -14.192898675656291 0 0 1 1 0 0 forward_v I I I I #
coedge $-1 $163 $101 $164 $165 reversed $61 $-1 #
coedge $-1 $166 $63 $167 $168 reversed $39 $-1 #
coedge $-1 $63 $166 $169 $170 reversed $39 $-1 #
coedge $-1 $98 $171 $63 $102 reversed $61 $-1 #
edge $-1 $172 -30.414083599083746 $173 30.414083599083746 $101 $174 forward 7 unknown #
face $-1 $175 $176 $23 $-1 $177 reversed single #
loop $-1 $-1 $109 $64 #
plane-surface $-1 45.024567400128177 0 0 -1 0 0 0 0 1 forward_v I I I I #
coedge $-1 $178 $179 $180 $181 reversed $65 $-1 #
coedge $-1 $182 $67 $183 $184 reversed $42 $-1 #
coedge $-1 $67 $182 $185 $186 reversed $42 $-1 #
coedge $-1 $187 $188 $67 $110 forward $104 $-1 #
edge $-1 $189 -30.414083599083746 $190 30.414083599083746 $109 $191 forward 7 unknown #
face $-1 $192 $193 $24 $-1 $194 forward single #
loop $-1 $-1 $195 $68 #
plane-surface $-1 -23.064886243586415 -80.768921397513537 82.278417525563654 1 0 0 0 0.55919291073839883 -0.82903756765294845 forward_v I I I I #
coedge $-1 $196 $197 $198 $199 reversed $69 $-1 #
coedge $-1 $116 $71 $200 $201 reversed $45 $-1 #
coedge $-1 $71 $115 $196 $202 reversed $45 $-1 #
coedge $-1 $198 $203 $71 $118 forward $193 $-1 #
edge $-1 $204 9.9703770996730228 $205 19.708722199730708 $117 $206 forward 7 unknown #
loop $-1 $-1 $124 $72 #
plane-surface $-1 -16.638815011761942 -30.414083599083739 7.6243018415066501 0 -0.55919291073839883 0.82903756765294845 1 0 0 forward_v I I I I #
loop $-1 $-1 $207 $47 #
coedge $-1 $122 $122 $123 $208 reversed $73 $-1 #
coedge $-1 $123 $123 $122 $208 forward $75 $-1 #
coedge $-1 $124 $124 $76 $125 forward $119 $-1 #
edge $-1 $209 3.4645347762740274e-017 $209 6.2831853071796004 $124 $210 forward 7 unknown #
loop $-1 $-1 $131 $77 #
plane-surface $-1 -16.638815011761942 -30.414083599083739 7.6243018415066501 0 -0.55919291073839883 0.82903756765294845 1 0 0 forward_v I I I I #
loop $-1 $-1 $211 $50 #
coedge $-1 $129 $129 $130 $212 reversed $78 $-1 #
coedge $-1 $130 $130 $129 $212 forward $80 $-1 #
coedge $-1 $131 $131 $81 $132 forward $126 $-1 #
edge $-1 $213 3.4645347762740274e-017 $213 6.2831853071796004 $131 $214 forward 7 unknown #
loop $-1 $-1 $138 $82 #
plane-surface $-1 -16.638815011761942 -30.414083599083739 7.6243018415066501 0 -0.55919291073839883 0.82903756765294845 1 0 0 forward_v I I I I #
loop $-1 $-1 $215 $53 #
coedge $-1 $136 $136 $137 $216 reversed $83 $-1 #
coedge $-1 $137 $137 $136 $216 forward $85 $-1 #
coedge $-1 $138 $138 $86 $139 forward $133 $-1 #
edge $-1 $217 3.4645347762740274e-017 $217 6.2831853071796004 $138 $218 forward 7 unknown #
face $-1 $219 $220 $21 $-1 $221 reversed single #
loop $-1 $-1 $222 $87 #
plane-surface $-1 -45.024567400128177 0 0 1 0 0 0 0 -1 forward_v I I I I #
coedge $-1 $223 $151 $224 $225 forward $88 $-1 #
coedge $-1 $226 $90 $223 $227 forward $57 $-1 #
coedge $-1 $90 $226 $228 $229 forward $57 $-1 #
coedge $-1 $154 $153 $90 $147 reversed $155 $-1 #
edge $-1 $230 -30.414083599083746 $231 30.414083599083746 $146 $232 forward 7 unknown #
coedge $-1 $92 $91 $233 $234 forward $36 $-1 #
coedge $-1 $235 $236 $91 $150 reversed $220 $-1 #
edge $-1 $157 -45.024567400128177 $237 45.024567400128177 $149 $238 forward 7 unknown #
coedge $-1 $143 $239 $92 $152 reversed $88 $-1 #
edge $-1 $240 -45.024567400128177 $156 45.024567400128177 $151 $241 forward 7 unknown #
coedge $-1 $146 $93 $239 $242 forward $155 $-1 #
coedge $-1 $93 $146 $235 $243 reversed $155 $-1 #
loop $-1 $-1 $153 $219 #
vertex $-1 $94 $244 #
vertex $-1 $94 $245 #
straight-curve $-1 45.024567400128177 0 14.192898675656291 0 1 0 I I #
face $-1 $246 $247 $22 $-1 $248 reversed single #
loop $-1 $-1 $164 $95 #
plane-surface $-1 0 -30.414083599083746 0 0 1 0 0 0 1 forward_v I I I I #
coedge $-1 $249 $250 $163 $251 forward $96 $-1 #
coedge $-1 $171 $98 $162 $251 reversed $61 $-1 #
coedge $-1 $169 $252 $98 $165 forward $160 $-1 #
edge $-1 $253 -7.8761339980385738 $172 -4.7573953571968612 $164 $254 forward 7 unknown #
coedge $-1 $100 $99 $255 $256 reversed $39 $-1 #
coedge $-1 $257 $258 $99 $168 forward $259 $-1 #
edge $-1 $260 -26.318514016753301 $173 -11.093592749996446 $167 $261 forward 7 unknown #
coedge $-1 $262 $164 $100 $170 forward $160 $-1 #
edge $-1 $172 11.093592749996446 $263 26.318514016753301 $169 $264 forward 7 unknown #
coedge $-1 $101 $163 $257 $265 reversed $61 $-1 #
vertex $-1 $170 $266 #
vertex $-1 $168 $267 #
straight-curve $-1 -29.799646133371322 0 -11.074160034814579 0 1 0 I I #
face $-1 $268 $269 $23 $-1 $270 reversed single #
loop $-1 $-1 $185 $103 #
plane-surface $-1 0 30.414083599083746 0 0 -1 0 0 0 -1 forward_v I I I I #
coedge $-1 $271 $106 $182 $272 reversed $65 $-1 #
coedge $-1 $106 $271 $273 $274 reversed $65 $-1 #
coedge $-1 $275 $185 $106 $181 forward $176 $-1 #
edge $-1 $276 2.1049818213147571 $277 8.7602718433326086 $180 $278 forward 7 unknown #
coedge $-1 $108 $107 $178 $272 forward $42 $-1 #
coedge $-1 $279 $280 $107 $184 forward $269 $-1 #
edge $-1 $281 11.008473041654312 $189 26.346887252867347 $183 $282 forward 7 unknown #
coedge $-1 $180 $283 $108 $186 forward $176 $-1 #
edge $-1 $190 -26.346887252867347 $276 -11.008473041654312 $185 $284 forward 7 unknown #
coedge $-1 $285 $109 $283 $286 reversed $104 $-1 #
coedge $-1 $109 $285 $279 $287 forward $104 $-1 #
vertex $-1 $110 $288 #
vertex $-1 $110 $289 #
straight-curve $-1 45.024567400128177 0 7.5376086536384399 0 1 0 I I #
face $-1 $-1 $290 $24 $-1 $291 reversed single #
loop $-1 $-1 $117 $111 #
plane-surface $-1 0 0 14.192898675656291 0 0 1 1 0 0 forward_v I I I I #
coedge $-1 $292 $293 $294 $295 reversed $112 $-1 #
coedge $-1 $296 $114 $116 $202 forward $69 $-1 #
coedge $-1 $114 $296 $292 $297 forward $69 $-1 #
coedge $-1 $294 $117 $114 $199 forward $193 $-1 #
edge $-1 $205 1.8933362740564963 $298 14.745478737705444 $198 $299 forward 7 unknown #
coedge $-1 $300 $301 $115 $201 forward $290 $-1 #
edge $-1 $302 -33.514906921275184 $204 -26.946310087125536 $200 $303 forward 7 unknown #
edge $-1 $205 -11.746566717871996 $302 8.3739815925159718e-015 $116 $304 forward 7 unknown #
coedge $-1 $117 $294 $300 $305 forward $193 $-1 #
vertex $-1 $201 $306 #
vertex $-1 $118 $307 #
straight-curve $-1 -10.212743779937467 -40.384460698756769 14.192898675656288 0 1 0 I I #
coedge $-1 $207 $207 $-1 $308 reversed $121 $-1 #
edge $-1 $309 0 $309 6.2831853071796004 $122 $310 forward 7 unknown #
vertex $-1 $125 $311 #
ellipse-curve $-1 -20.494457750856629 -25.544911049054903 10.908600258581471 0 -0.55919291073839883 0.82903756765294845 1 0 0 1 I I #
coedge $-1 $211 $211 $-1 $312 reversed $128 $-1 #
edge $-1 $313 0 $313 6.2831853071796004 $129 $314 forward 7 unknown #
vertex $-1 $132 $315 #
ellipse-curve $-1 -16.638815011761942 -25.544911049054903 10.908600258581471 0 -0.55919291073839883 0.82903756765294845 1 0 0 1 I I #
coedge $-1 $215 $215 $-1 $316 reversed $135 $-1 #
edge $-1 $317 0 $317 6.2831853071796004 $136 $318 forward 7 unknown #
vertex $-1 $139 $319 #
ellipse-curve $-1 -12.783172272667258 -25.544911049054903 10.908600258581471 0 -0.55919291073839883 0.82903756765294845 1 0 0 1 I I #
face $-1 $-1 $155 $21 $-1 $320 reversed single #
loop $-1 $-1 $235 $140 #
plane-surface $-1 0 30.414083599083746 0 0 -1 0 0 0 -1 forward_v I I I I #
coedge $-1 $321 $233 $236 $322 forward $141 $-1 #
coedge $-1 $239 $143 $144 $227 reversed $88 $-1 #
coedge $-1 $233 $321 $143 $225 reversed $141 $-1 #
edge $-1 $240 -14.192898675656291 $323 14.192898675656291 $224 $324 forward 7 unknown #
coedge $-1 $145 $144 $321 $325 forward $57 $-1 #
edge $-1 $231 -45.024567400128177 $323 45.024567400128177 $223 $326 forward 7 unknown #
coedge $-1 $236 $235 $145 $229 reversed $220 $-1 #
edge $-1 $327 -45.024567400128177 $230 45.024567400128177 $228 $328 forward 7 unknown #
vertex $-1 $147 $329 #
vertex $-1 $242 $330 #
straight-curve $-1 45.024567400128177 0 -14.192898675656291 0 -1 0 I I #
coedge $-1 $222 $224 $148 $234 reversed $141 $-1 #
edge $-1 $237 -30.414083599083746 $240 30.414083599083746 $233 $331 forward 7 unknown #
coedge $-1 $228 $149 $154 $243 forward $220 $-1 #
coedge $-1 $149 $228 $222 $322 reversed $220 $-1 #
vertex $-1 $150 $332 #
straight-curve $-1 0 30.414083599083746 14.192898675656291 -1 0 0 I I #
coedge $-1 $151 $223 $153 $242 reversed $88 $-1 #
vertex $-1 $234 $333 #
straight-curve $-1 0 -30.414083599083746 14.192898675656291 1 0 0 I I #
edge $-1 $156 -14.192898675656291 $231 14.192898675656291 $153 $334 forward 7 unknown #
edge $-1 $157 -14.192898675656291 $230 14.192898675656291 $154 $335 forward 7 unknown #
point $-1 45.024567400128177 -30.414083599083746 14.192898675656291 #
point $-1 45.024567400128177 30.414083599083746 14.192898675656291 #
face $-1 $-1 $259 $22 $-1 $336 reversed single #
loop $-1 $-1 $255 $159 #
plane-surface $-1 -45.024567400128177 0 0 1 0 0 0 0 -1 forward_v I I I I #
coedge $-1 $337 $162 $252 $338 forward $96 $-1 #
coedge $-1 $162 $337 $339 $340 forward $96 $-1 #
edge $-1 $341 -30.414083599083746 $253 30.414083599083746 $162 $342 forward 7 unknown #
coedge $-1 $164 $262 $249 $338 reversed $160 $-1 #
vertex $-1 $338 $343 #
straight-curve $-1 -29.799646133371322 -30.414083599083746 -6.3167646776177175 0 0 1 I I #
coedge $-1 $344 $345 $166 $256 forward $247 $-1 #
edge $-1 $263 -30.414083599083746 $260 30.414083599083746 $255 $346 forward 7 unknown #
coedge $-1 $339 $167 $171 $265 forward $259 $-1 #
coedge $-1 $167 $339 $344 $347 reversed $259 $-1 #
loop $-1 $-1 $257 $246 #
vertex $-1 $347 $348 #
straight-curve $-1 -18.706053383374876 30.414083599083746 -11.074160034814579 1 0 0 I I #
coedge $-1 $252 $169 $345 $349 forward $160 $-1 #
vertex $-1 $349 $350 #
straight-curve $-1 -18.706053383374876 -30.414083599083746 -11.074160034814579 -1 0 0 I I #
edge $-1 $173 4.7573953571968612 $341 7.8761339980385738 $257 $351 forward 7 unknown #
point $-1 -29.799646133371322 -30.414083599083746 -11.074160034814579 #
point $-1 -29.799646133371322 30.414083599083746 -11.074160034814579 #
face $-1 $-1 $352 $23 $-1 $353 forward single #
loop $-1 $-1 $183 $175 #
plane-surface $-1 0 -30.414083599083746 0 0 1 0 0 0 1 forward_v I I I I #
coedge $-1 $179 $178 $280 $354 reversed $65 $-1 #
edge $-1 $281 -30.414083599083746 $276 30.414083599083746 $178 $355 forward 7 unknown #
coedge $-1 $356 $357 $179 $274 forward $352 $-1 #
edge $-1 $277 -30.414083599083746 $358 30.414083599083746 $273 $359 forward 7 unknown #
coedge $-1 $283 $180 $357 $360 reversed $176 $-1 #
vertex $-1 $186 $361 #
vertex $-1 $181 $362 #
straight-curve $-1 29.686153188915142 30.414083599083746 5.4326268323236828 0 0 1 I I #
coedge $-1 $363 $183 $188 $287 reversed $269 $-1 #
coedge $-1 $183 $363 $271 $354 forward $269 $-1 #
vertex $-1 $184 $364 #
straight-curve $-1 18.67768014726083 -30.414083599083746 7.5376086536384399 1 0 0 I I #
coedge $-1 $185 $275 $187 $286 forward $176 $-1 #
straight-curve $-1 18.67768014726083 30.414083599083746 7.5376086536384399 -1 0 0 I I #
coedge $-1 $188 $187 $365 $366 reversed $104 $-1 #
edge $-1 $367 -14.192898675656291 $190 -7.5376086536384399 $187 $368 forward 7 unknown #
edge $-1 $369 -14.192898675656291 $189 -7.5376086536384399 $188 $370 forward 7 unknown #
point $-1 45.024567400128177 -30.414083599083746 7.5376086536384399 #
point $-1 45.024567400128177 30.414083599083746 7.5376086536384399 #
loop $-1 $-1 $200 $192 #
plane-surface $-1 0 -30.414083599083746 0 0 1 0 0 0 1 forward_v I I I I #
coedge $-1 $293 $195 $197 $297 reversed $112 $-1 #
coedge $-1 $195 $292 $371 $372 reversed $112 $-1 #
coedge $-1 $203 $198 $195 $295 forward $193 $-1 #
edge $-1 $298 -19.708722199730708 $373 -9.9703770996730228 $294 $374 forward 7 unknown #
coedge $-1 $197 $196 $301 $375 reversed $69 $-1 #
edge $-1 $376 -8.3739815925159718e-015 $298 11.746566717871996 $292 $377 forward 7 unknown #
vertex $-1 $199 $378 #
straight-curve $-1 -8.3194075058809709 -20.67573849902606 14.192898675656291 -1 0 0 I I #
coedge $-1 $371 $200 $203 $305 reversed $290 $-1 #
coedge $-1 $200 $371 $296 $375 forward $290 $-1 #
vertex $-1 $201 $379 #
straight-curve $-1 -10.212743779937467 -30.414083599083746 41.139208762781827 0 0 1 I I #
straight-curve $-1 -10.212743779937467 -30.414083599083739 7.6243018415066501 0 -0.82903756765294845 -0.55919291073839883 I I #
edge $-1 $373 -23.064886243586415 $204 -10.212743779937467 $300 $380 forward 7 unknown #
point $-1 -10.212743779937467 -30.414083599083746 14.192898675656291 #
point $-1 -10.212743779937467 -20.67573849902606 14.192898675656291 #
edge $-1 $381 1 $381 0 $207 $-1 forward 7 unknown #
vertex $-1 $208 $382 #
ellipse-curve $-1 -20.494457750856629 -24.483012807598985 9.3342714030366576 0 -0.55919291073839883 0.82903756765294845 1 0 0 1 I I #
point $-1 -19.494457750856629 -25.544911049054907 10.908600258581476 #
edge $-1 $383 1 $383 0 $211 $-1 forward 7 unknown #
vertex $-1 $212 $384 #
ellipse-curve $-1 -16.638815011761942 -24.483012807598985 9.3342714030366576 0 -0.55919291073839883 0.82903756765294845 1 0 0 1 I I #
point $-1 -15.638815011761942 -25.544911049054907 10.908600258581476 #
edge $-1 $385 1 $385 0 $215 $-1 forward 7 unknown #
vertex $-1 $216 $386 #
ellipse-curve $-1 -12.783172272667258 -24.483012807598985 9.3342714030366576 0 -0.55919291073839883 0.82903756765294845 1 0 0 1 I I #
point $-1 -11.783172272667258 -25.544911049054907 10.908600258581476 #
plane-surface $-1 45.024567400128177 0 0 -1 0 0 0 0 1 forward_v I I I I #
coedge $-1 $224 $222 $226 $325 reversed $141 $-1 #
edge $-1 $237 -14.192898675656291 $327 14.192898675656291 $236 $387 forward 7 unknown #
vertex $-1 $325 $388 #
straight-curve $-1 -45.024567400128177 -30.414083599083746 0 0 0 -1 I I #
edge $-1 $323 -30.414083599083746 $327 30.414083599083746 $321 $389 forward 7 unknown #
straight-curve $-1 0 -30.414083599083746 -14.192898675656291 -1 0 0 I I #
vertex $-1 $229 $390 #
straight-curve $-1 0 30.414083599083746 -14.192898675656291 1 0 0 I I #
point $-1 45.024567400128177 30.414083599083746 -14.192898675656291 #
point $-1 45.024567400128177 -30.414083599083746 -14.192898675656291 #
straight-curve $-1 -45.024567400128177 0 14.192898675656291 0 -1 0 I I #
point $-1 -45.024567400128177 30.414083599083746 14.192898675656291 #
point $-1 -45.024567400128177 -30.414083599083746 14.192898675656291 #
straight-curve $-1 45.024567400128177 -30.414083599083746 0 0 0 -1 I I #
straight-curve $-1 45.024567400128177 30.414083599083746 0 0 0 -1 I I #
plane-surface $-1 0 30.414083599083746 0 0 -1 0 0 0 -1 forward_v I I I I #
coedge $-1 $250 $249 $391 $392 forward $96 $-1 #
edge $-1 $253 29.799646133371322 $393 45.024567400128177 $252 $394 forward 7 unknown #
coedge $-1 $258 $257 $250 $340 reversed $259 $-1 #
edge $-1 $395 -45.024567400128177 $341 -29.799646133371322 $339 $396 forward 7 unknown #
vertex $-1 $265 $397 #
straight-curve $-1 -29.799646133371322 0 -14.192898675656291 0 -1 0 I I #
point $-1 -29.799646133371322 -30.414083599083746 -14.192898675656291 #
coedge $-1 $391 $255 $258 $347 forward $247 $-1 #
coedge $-1 $255 $391 $262 $349 reversed $247 $-1 #
straight-curve $-1 -45.024567400128177 0 -11.074160034814579 0 1 0 I I #
edge $-1 $260 11.074160034814579 $395 14.192898675656291 $258 $398 forward 7 unknown #
point $-1 -45.024567400128177 30.414083599083746 -11.074160034814579 #
edge $-1 $263 11.074160034814579 $393 14.192898675656291 $345 $399 forward 7 unknown #
point $-1 -45.024567400128177 -30.414083599083746 -11.074160034814579 #
straight-curve $-1 -29.799646133371322 30.414083599083746 -6.3167646776177175 0 0 -1 I I #
loop $-1 $-1 $273 $268 #
plane-surface $-1 0 0 14.192898675656291 0 0 1 1 0 0 forward_v I I I I #
edge $-1 $358 -8.7602718433326086 $281 -2.1049818213147571 $280 $400 forward 7 unknown #
straight-curve $-1 29.686153188915142 0 7.5376086536384399 0 1 0 I I #
coedge $-1 $365 $273 $363 $401 forward $352 $-1 #
coedge $-1 $273 $365 $275 $360 forward $352 $-1 #
vertex $-1 $401 $402 #
straight-curve $-1 29.686153188915142 0 14.192898675656291 0 -1 0 I I #
edge $-1 $367 -45.024567400128177 $277 -29.686153188915142 $275 $403 forward 7 unknown #
point $-1 29.686153188915142 30.414083599083746 7.5376086536384399 #
point $-1 29.686153188915142 30.414083599083746 14.192898675656291 #
coedge $-1 $280 $279 $356 $401 reversed $269 $-1 #
point $-1 29.686153188915142 -30.414083599083746 7.5376086536384399 #
coedge $-1 $357 $356 $285 $366 forward $352 $-1 #
edge $-1 $369 -30.414083599083746 $367 30.414083599083746 $285 $404 forward 7 unknown #
vertex $-1 $366 $405 #
straight-curve $-1 45.024567400128177 30.414083599083746 0 0 0 -1 I I #
vertex $-1 $366 $406 #
straight-curve $-1 45.024567400128177 -30.414083599083746 0 0 0 -1 I I #
coedge $-1 $301 $300 $293 $372 forward $290 $-1 #
edge $-1 $373 26.946310087125536 $376 33.514906921275184 $371 $407 forward 7 unknown #
vertex $-1 $305 $408 #
straight-curve $-1 -23.064886243586415 -40.384460698756769 14.192898675656288 0 -1 0 I I #
edge $-1 $376 -14.745478737705444 $302 -1.8933362740564963 $301 $409 forward 7 unknown #
vertex $-1 $375 $410 #
straight-curve $-1 -23.064886243586415 -30.414083599083739 7.6243018415066501 0 0.82903756765294845 0.55919291073839883 I I #
point $-1 -23.064886243586415 -20.67573849902606 14.192898675656291 #
point $-1 -10.212743779937467 -30.414083599083746 7.6243018415066457 #
straight-curve $-1 0 -30.414083599083746 14.192898675656291 1 0 0 I I #
vertex $-1 $308 $411 #
point $-1 -19.494457750856629 -24.483012807598985 9.3342714030366576 #
vertex $-1 $312 $412 #
point $-1 -15.638815011761942 -24.483012807598985 9.3342714030366576 #
vertex $-1 $316 $413 #
point $-1 -11.783172272667258 -24.483012807598985 9.3342714030366576 #
straight-curve $-1 -45.024567400128177 30.414083599083746 0 0 0 -1 I I #
point $-1 -45.024567400128177 -30.414083599083746 -14.192898675656291 #
straight-curve $-1 -45.024567400128177 0 -14.192898675656291 0 1 0 I I #
point $-1 -45.024567400128177 30.414083599083746 -14.192898675656291 #
coedge $-1 $345 $344 $337 $392 reversed $247 $-1 #
edge $-1 $393 -30.414083599083746 $395 30.414083599083746 $391 $414 forward 7 unknown #
vertex $-1 $392 $415 #
straight-curve $-1 0 -30.414083599083746 -14.192898675656291 -1 0 0 I I #
vertex $-1 $340 $416 #
straight-curve $-1 0 30.414083599083746 -14.192898675656291 1 0 0 I I #
point $-1 -29.799646133371322 30.414083599083746 -14.192898675656291 #
straight-curve $-1 -45.024567400128177 30.414083599083746 0 0 0 -1 I I #
straight-curve $-1 -45.024567400128177 -30.414083599083746 0 0 0 -1 I I #
straight-curve $-1 29.686153188915142 -30.414083599083746 5.4326268323236828 0 0 -1 I I #
edge $-1 $358 29.686153188915142 $369 45.024567400128177 $363 $417 forward 7 unknown #
point $-1 29.686153188915142 -30.414083599083746 14.192898675656291 #
straight-curve $-1 0 30.414083599083746 14.192898675656291 -1 0 0 I I #
straight-curve $-1 45.024567400128177 0 14.192898675656291 0 1 0 I I #
point $-1 45.024567400128177 30.414083599083746 14.192898675656291 #
point $-1 45.024567400128177 -30.414083599083746 14.192898675656291 #
straight-curve $-1 -23.064886243586415 -30.414083599083746 41.139208762781827 0 0 -1 I I #
point $-1 -23.064886243586415 -30.414083599083746 14.192898675656291 #
straight-curve $-1 -8.3194075058809709 -30.414083599083746 7.6243018415066484 1 0 0 I I #
point $-1 -23.064886243586415 -30.414083599083746 7.6243018415066457 #
point $-1 -20.494457750856629 -23.923819896860589 8.5052338353837076 #
point $-1 -16.638815011761942 -23.923819896860589 8.5052338353837076 #
point $-1 -12.783172272667258 -23.923819896860589 8.5052338353837076 #
straight-curve $-1 -45.024567400128177 0 -14.192898675656291 0 1 0 I I #
point $-1 -45.024567400128177 -30.414083599083746 -14.192898675656291 #
point $-1 -45.024567400128177 30.414083599083746 -14.192898675656291 #
straight-curve $-1 0 -30.414083599083746 14.192898675656291 1 0 0 I I #
End-of-ACIS-data 