500 0 8 0           
7 Unknown 11 ACIS 5.0 NT 24 Thu Mar 25 20:23:32 1999 
-1 9.9999999999999995e-007 1e-010 
body $-1 $8 $-1 $9 #
body $-1 $10 $-1 $11 #
body $-1 $12 $-1 $13 #
body $-1 $14 $-1 $15 #
body $-1 $16 $-1 $17 #
body $-1 $18 $-1 $19 #
body $-1 $20 $-1 $21 #
body $-1 $22 $-1 $23 #
lump $-1 $-1 $24 $0 #
transform $-1 1 0 0 0 1 0 0 0 1 66.474196600238045 35.404757196794158 10.487769257330937 1 rotate no_reflect no_shear #
lump $-1 $-1 $25 $1 #
transform $-1 1 0 0 0 1 0 0 0 1 66.474196600238045 35.404757196794158 10.487769257330937 1 rotate no_reflect no_shear #
lump $-1 $-1 $26 $2 #
transform $-1 1 0 0 0 1 0 0 0 1 66.474196600238045 35.404757196794158 10.487769257330937 1 rotate no_reflect no_shear #
lump $-1 $-1 $27 $3 #
transform $-1 1 0 0 0 1 0 0 0 1 66.474196600238045 35.404757196794158 10.487769257330937 1 rotate no_reflect no_shear #
lump $-1 $-1 $28 $4 #
transform $-1 1 0 0 0 1 0 0 0 1 66.474196600238045 35.404757196794158 10.487769257330937 1 rotate no_reflect no_shear #
lump $-1 $-1 $29 $5 #
transform $-1 1 0 0 0 1 0 0 0 1 66.474196600238045 35.404757196794158 10.487769257330937 1 rotate no_reflect no_shear #
lump $-1 $-1 $30 $6 #
transform $-1 1 0 0 0 1 0 0 0 1 66.474196600238045 35.404757196794158 10.487769257330937 1 rotate no_reflect no_shear #
lump $-1 $-1 $31 $7 #
transform $-1 1 0 0 0 1 0 0 0 1 66.474196600238045 35.404757196794158 10.487769257330937 1 rotate no_reflect no_shear #
shell $-1 $-1 $-1 $32 $-1 $8 #
shell $-1 $-1 $-1 $33 $-1 $10 #
shell $-1 $-1 $-1 $34 $-1 $12 #
shell $-1 $-1 $-1 $35 $-1 $14 #
shell $-1 $-1 $-1 $36 $-1 $16 #
shell $-1 $-1 $-1 $37 $-1 $18 #
shell $-1 $-1 $-1 $38 $-1 $20 #
shell $-1 $-1 $-1 $39 $-1 $22 #
face $-1 $40 $41 $24 $-1 $42 forward single #
face $-1 $43 $44 $25 $-1 $45 reversed single #
face $-1 $46 $47 $26 $-1 $48 reversed single #
face $-1 $49 $50 $27 $-1 $51 forward single #
face $-1 $52 $53 $28 $-1 $54 forward single #
face $-1 $55 $56 $29 $-1 $57 reversed single #
face $-1 $58 $59 $30 $-1 $60 forward single #
face $-1 $61 $62 $31 $-1 $63 forward single #
face $-1 $64 $65 $24 $-1 $66 reversed single #
loop $-1 $-1 $67 $32 #
plane-surface $-1 0 0 10.487769257330937 0 0 1 1 0 0 forward_v I I I I #
face $-1 $68 $69 $25 $-1 $70 reversed single #
loop $-1 $-1 $71 $33 #
plane-surface $-1 -61.222809505329352 -20.382860942809575 0 0 1 0 0 0 1 forward_v I I I I #
face $-1 $72 $73 $26 $-1 $74 reversed single #
loop $-1 $-1 $75 $34 #
plane-surface $-1 -55.971422410420644 89.286963741186526 145.35883516457844 1 0 0 0 -0.75470958851134928 -0.65605901945558964 forward_v I I I I #
face $-1 $76 $77 $27 $-1 $78 forward single #
loop $-1 $79 $80 $35 #
cone-surface $-1 -51.214829520759139 32.471070556905076 7.2299994982582669 0 -0.75470958851134928 -0.65605901945558964 1 0 0 1 I I 0 1 1 forward I I I I #
face $-1 $81 $82 $28 $-1 $83 forward single #
loop $-1 $84 $85 $36 #
cone-surface $-1 -44.079940186266874 32.471070556905076 7.2299994982582669 0 -0.75470958851134928 -0.65605901945558964 1 0 0 1 I I 0 1 1 forward I I I I #
face $-1 $86 $87 $29 $-1 $88 reversed single #
loop $-1 $-1 $89 $37 #
plane-surface $-1 49.826121486422764 89.286963741186526 145.35883516457844 1 0 0 0 -0.75470958851134928 -0.65605901945558964 forward_v I I I I #
face $-1 $90 $91 $30 $-1 $92 forward single #
loop $-1 $93 $94 $38 #
cone-surface $-1 54.582714376084269 32.471070556905076 7.2299994982582669 0 -0.75470958851134928 -0.65605901945558964 1 0 0 1 I I 0 1 1 forward I I I I #
face $-1 $95 $96 $31 $-1 $97 forward single #
loop $-1 $98 $99 $39 #
cone-surface $-1 61.71760371057654 32.471070556905076 7.2299994982582669 0 -0.75470958851134928 -0.65605901945558964 1 0 0 1 I I 0 1 1 forward I I I I #
face $-1 $100 $101 $24 $-1 $102 reversed single #
loop $-1 $-1 $103 $40 #
plane-surface $-1 0 0 -10.487769257330937 0 0 1 1 0 0 forward_v I I I I #
coedge $-1 $104 $105 $106 $107 forward $41 $-1 #
face $-1 $108 $109 $25 $-1 $110 reversed single #
loop $-1 $-1 $111 $43 #
plane-surface $-1 -61.222809505329352 -14.429218682132284 0 0 -1 0 0 0 -1 forward_v I I I I #
coedge $-1 $112 $113 $114 $115 reversed $44 $-1 #
face $-1 $116 $117 $26 $-1 $118 reversed single #
loop $-1 $-1 $119 $46 #
plane-surface $-1 -47.647384853513003 -11.050463384389857 58.136842683277905 0 0.75470958851134928 0.65605901945558964 1 0 0 forward_v I I I I #
coedge $-1 $120 $121 $122 $123 reversed $47 $-1 #
face $-1 $-1 $124 $27 $-1 $125 forward single #
loop $-1 $126 $127 $49 #
cone-surface $-1 -51.214829520759139 31.677286142596138 6.5399732518210687 0 -0.75470958851134928 -0.65605901945558964 0.5 0 0 1 I I -0.70710678118654813 0.70710678118654691 0.5 forward I I I I #
loop $-1 $-1 $128 $35 #
coedge $-1 $80 $80 $129 $130 reversed $50 $-1 #
face $-1 $-1 $131 $28 $-1 $132 forward single #
loop $-1 $133 $134 $52 #
cone-surface $-1 -44.079940186266874 31.677286142596138 6.5399732518210687 0 -0.75470958851134928 -0.65605901945558964 0.5 0 0 1 I I -0.70710678118654813 0.70710678118654691 0.5 forward I I I I #
loop $-1 $-1 $135 $36 #
coedge $-1 $85 $85 $136 $137 reversed $53 $-1 #
face $-1 $138 $139 $29 $-1 $140 forward single #
loop $-1 $-1 $141 $55 #
plane-surface $-1 58.150159043330405 -11.050463384389857 58.136842683277905 0 0.75470958851134928 0.65605901945558964 1 0 0 forward_v I I I I #
coedge $-1 $142 $143 $144 $145 reversed $56 $-1 #
face $-1 $-1 $146 $30 $-1 $147 forward single #
loop $-1 $148 $149 $58 #
cone-surface $-1 54.582714376084269 31.677286142596138 6.5399732518210687 0 -0.75470958851134928 -0.65605901945558964 0.5 0 0 1 I I -0.70710678118654813 0.70710678118654691 0.5 forward I I I I #
loop $-1 $-1 $150 $38 #
coedge $-1 $94 $94 $151 $152 reversed $59 $-1 #
face $-1 $-1 $153 $31 $-1 $154 forward single #
loop $-1 $155 $156 $61 #
cone-surface $-1 61.71760371057654 31.677286142596138 6.5399732518210687 0 -0.75470958851134928 -0.65605901945558964 0.5 0 0 1 I I -0.70710678118654813 0.70710678118654691 0.5 forward I I I I #
loop $-1 $-1 $157 $39 #
coedge $-1 $99 $99 $158 $159 reversed $62 $-1 #
face $-1 $160 $161 $24 $-1 $162 reversed single #
loop $-1 $-1 $163 $64 #
plane-surface $-1 0 -35.404757196794158 0 0 1 0 0 0 1 forward_v I I I I #
coedge $-1 $164 $165 $166 $167 forward $65 $-1 #
coedge $-1 $168 $67 $169 $170 forward $41 $-1 #
coedge $-1 $67 $168 $171 $172 forward $41 $-1 #
coedge $-1 $173 $174 $67 $107 reversed $175 $-1 #
edge $-1 $176 -35.404757196794158 $177 35.404757196794158 $106 $178 forward 7 unknown #
face $-1 $179 $180 $25 $-1 $181 reversed single #
loop $-1 $-1 $182 $68 #
plane-surface $-1 -55.971422410420658 -17.406039812470929 0 -1 0 0 0 0 1 forward_v I I I I #
coedge $-1 $183 $184 $185 $186 forward $69 $-1 #
coedge $-1 $187 $71 $188 $189 reversed $44 $-1 #
coedge $-1 $71 $187 $190 $191 reversed $44 $-1 #
coedge $-1 $192 $193 $71 $115 forward $194 $-1 #
edge $-1 $195 -10.487769257330937 $196 10.487769257330937 $114 $197 forward 7 unknown #
face $-1 $198 $199 $26 $-1 $200 reversed single #
loop $-1 $-1 $201 $72 #
plane-surface $-1 -39.323347296605363 89.286963741186526 145.35883516457844 -1 0 0 0 0.75470958851134928 0.65605901945558964 forward_v I I I I #
coedge $-1 $202 $203 $204 $205 reversed $73 $-1 #
coedge $-1 $121 $75 $206 $207 reversed $47 $-1 #
coedge $-1 $75 $120 $202 $208 reversed $47 $-1 #
coedge $-1 $204 $209 $75 $123 forward $210 $-1 #
edge $-1 $211 9.2387246737991049 $212 14.273238713470739 $122 $213 forward 7 unknown #
loop $-1 $-1 $129 $76 #
plane-surface $-1 -47.647384853513003 -11.050463384389857 58.136842683277905 0 0.75470958851134928 0.65605901945558964 1 0 0 forward_v I I I I #
loop $-1 $-1 $214 $49 #
coedge $-1 $127 $127 $128 $215 reversed $77 $-1 #
coedge $-1 $128 $128 $127 $215 forward $79 $-1 #
coedge $-1 $129 $129 $80 $130 forward $124 $-1 #
edge $-1 $216 -1.980312626414467e-015 $216 6.2831853071795987 $129 $217 forward 7 unknown #
loop $-1 $-1 $136 $81 #
plane-surface $-1 -47.647384853513003 -11.050463384389857 58.136842683277905 0 0.75470958851134928 0.65605901945558964 1 0 0 forward_v I I I I #
loop $-1 $-1 $218 $52 #
coedge $-1 $134 $134 $135 $219 reversed $82 $-1 #
coedge $-1 $135 $135 $134 $219 forward $84 $-1 #
coedge $-1 $136 $136 $85 $137 forward $131 $-1 #
edge $-1 $220 -1.980312626414467e-015 $220 6.2831853071795987 $136 $221 forward 7 unknown #
face $-1 $222 $223 $29 $-1 $224 reversed single #
loop $-1 $-1 $144 $86 #
plane-surface $-1 0 0 10.487769257330937 0 0 1 1 0 0 forward_v I I I I #
coedge $-1 $225 $226 $227 $228 reversed $87 $-1 #
coedge $-1 $143 $89 $229 $230 reversed $56 $-1 #
coedge $-1 $89 $142 $225 $231 reversed $56 $-1 #
coedge $-1 $227 $232 $89 $145 forward $139 $-1 #
edge $-1 $233 9.2387246737991049 $234 14.273238713470739 $144 $235 forward 7 unknown #
loop $-1 $-1 $151 $90 #
plane-surface $-1 58.150159043330405 -11.050463384389857 58.136842683277905 0 0.75470958851134928 0.65605901945558964 1 0 0 forward_v I I I I #
loop $-1 $-1 $236 $58 #
coedge $-1 $149 $149 $150 $237 reversed $91 $-1 #
coedge $-1 $150 $150 $149 $237 forward $93 $-1 #
coedge $-1 $151 $151 $94 $152 forward $146 $-1 #
edge $-1 $238 -1.980312626414467e-015 $238 6.2831853071795987 $151 $239 forward 7 unknown #
loop $-1 $-1 $158 $95 #
plane-surface $-1 58.150159043330405 -11.050463384389857 58.136842683277905 0 0.75470958851134928 0.65605901945558964 1 0 0 forward_v I I I I #
loop $-1 $-1 $240 $61 #
coedge $-1 $156 $156 $157 $241 reversed $96 $-1 #
coedge $-1 $157 $157 $156 $241 forward $98 $-1 #
coedge $-1 $158 $158 $99 $159 forward $153 $-1 #
edge $-1 $242 -1.980312626414467e-015 $242 6.2831853071795987 $158 $243 forward 7 unknown #
face $-1 $244 $245 $24 $-1 $246 reversed single #
loop $-1 $-1 $247 $100 #
plane-surface $-1 -66.474196600238045 0 0 1 0 0 0 0 -1 forward_v I I I I #
coedge $-1 $248 $171 $249 $250 forward $101 $-1 #
coedge $-1 $251 $103 $248 $252 forward $65 $-1 #
coedge $-1 $103 $251 $253 $254 forward $65 $-1 #
coedge $-1 $174 $173 $103 $167 reversed $175 $-1 #
edge $-1 $255 -35.404757196794158 $256 35.404757196794158 $166 $257 forward 7 unknown #
coedge $-1 $105 $104 $258 $259 forward $41 $-1 #
coedge $-1 $260 $261 $104 $170 reversed $245 $-1 #
edge $-1 $177 -66.474196600238045 $262 66.474196600238045 $169 $263 forward 7 unknown #
coedge $-1 $163 $264 $105 $172 reversed $101 $-1 #
edge $-1 $265 -66.474196600238045 $176 66.474196600238045 $171 $266 forward 7 unknown #
coedge $-1 $166 $106 $264 $267 forward $175 $-1 #
coedge $-1 $106 $166 $260 $268 reversed $175 $-1 #
loop $-1 $-1 $173 $244 #
vertex $-1 $107 $269 #
vertex $-1 $107 $270 #
straight-curve $-1 66.474196600238045 0 10.487769257330937 0 1 0 I I #
face $-1 $271 $272 $25 $-1 $273 forward single #
loop $-1 $-1 $274 $108 #
plane-surface $-1 0 0 -10.487769257330937 0 0 1 1 0 0 forward_v I I I I #
coedge $-1 $275 $276 $187 $277 forward $109 $-1 #
coedge $-1 $278 $111 $274 $279 reversed $69 $-1 #
coedge $-1 $111 $278 $280 $281 reversed $69 $-1 #
coedge $-1 $276 $275 $111 $186 reversed $109 $-1 #
edge $-1 $282 -10.487769257330937 $283 10.487769257330937 $185 $284 forward 7 unknown #
coedge $-1 $113 $112 $182 $277 reversed $44 $-1 #
coedge $-1 $285 $286 $112 $189 forward $180 $-1 #
edge $-1 $287 25.360017657755982 $195 35.862791847573369 $188 $288 forward 7 unknown #
coedge $-1 $289 $290 $113 $191 forward $272 $-1 #
edge $-1 $196 -35.862791847573369 $291 -25.360017657755982 $190 $292 forward 7 unknown #
coedge $-1 $293 $114 $290 $294 reversed $194 $-1 #
coedge $-1 $114 $293 $285 $295 reversed $194 $-1 #
loop $-1 $-1 $293 $271 #
vertex $-1 $295 $296 #
vertex $-1 $115 $297 #
straight-curve $-1 -66.474196600238045 -20.382860942809575 0 0 0 1 I I #
face $-1 $-1 $210 $26 $-1 $298 forward single #
loop $-1 $-1 $299 $116 #
plane-surface $-1 0 35.404757196794158 0 0 -1 0 0 0 -1 forward_v I I I I #
coedge $-1 $300 $301 $302 $303 reversed $117 $-1 #
coedge $-1 $304 $119 $121 $208 forward $73 $-1 #
coedge $-1 $119 $304 $300 $305 forward $73 $-1 #
coedge $-1 $302 $122 $119 $205 forward $210 $-1 #
edge $-1 $212 -32.147729983664142 $306 -15.499654869848861 $204 $307 forward 7 unknown #
coedge $-1 $308 $309 $120 $207 forward $199 $-1 #
edge $-1 $310 -67.983194369684824 $211 -62.19164832495828 $206 $311 forward 7 unknown #
edge $-1 $212 63.135640717025858 $310 70.809514393588344 $121 $312 forward 7 unknown #
coedge $-1 $122 $302 $308 $313 forward $210 $-1 #
loop $-1 $-1 $302 $198 #
vertex $-1 $207 $314 #
vertex $-1 $123 $315 #
straight-curve $-1 -55.971422410420644 44.643481870593263 10.487769257330939 0 -1 0 I I #
coedge $-1 $214 $214 $-1 $316 reversed $126 $-1 #
edge $-1 $317 0 $317 6.2831853071796004 $127 $318 forward 7 unknown #
vertex $-1 $130 $319 #
ellipse-curve $-1 -51.214829520759139 32.887500176958341 7.5919962349676755 0 0.75470958851134928 0.65605901945558964 1 0 0 1 I I #
coedge $-1 $218 $218 $-1 $320 reversed $133 $-1 #
edge $-1 $321 0 $321 6.2831853071796004 $134 $322 forward 7 unknown #
vertex $-1 $137 $323 #
ellipse-curve $-1 -44.079940186266874 32.887500176958341 7.5919962349676755 0 0.75470958851134928 0.65605901945558964 1 0 0 1 I I #
face $-1 $-1 $324 $29 $-1 $325 reversed single #
loop $-1 $-1 $326 $138 #
plane-surface $-1 66.474196600238045 0 0 -1 0 0 0 0 1 forward_v I I I I #
coedge $-1 $327 $141 $143 $231 forward $87 $-1 #
coedge $-1 $141 $327 $326 $328 reversed $87 $-1 #
coedge $-1 $329 $144 $141 $228 forward $139 $-1 #
edge $-1 $234 20.751041964757562 $330 37.399117078572843 $227 $331 forward 7 unknown #
coedge $-1 $332 $333 $142 $230 forward $324 $-1 #
edge $-1 $334 -67.983194369684824 $233 -62.19164832495828 $229 $335 forward 7 unknown #
edge $-1 $234 63.135640717025858 $334 70.809514393588344 $143 $336 forward 7 unknown #
coedge $-1 $144 $329 $332 $337 forward $139 $-1 #
vertex $-1 $230 $338 #
vertex $-1 $145 $339 #
straight-curve $-1 49.826121486422764 44.643481870593263 10.487769257330939 0 -1 0 I I #
coedge $-1 $236 $236 $-1 $340 reversed $148 $-1 #
edge $-1 $341 0 $341 6.2831853071796004 $149 $342 forward 7 unknown #
vertex $-1 $152 $343 #
ellipse-curve $-1 54.582714376084269 32.887500176958341 7.5919962349676755 0 0.75470958851134928 0.65605901945558964 1 0 0 1 I I #
coedge $-1 $240 $240 $-1 $344 reversed $155 $-1 #
edge $-1 $345 0 $345 6.2831853071796004 $156 $346 forward 7 unknown #
vertex $-1 $159 $347 #
ellipse-curve $-1 61.71760371057654 32.887500176958341 7.5919962349676755 0 0.75470958851134928 0.65605901945558964 1 0 0 1 I I #
face $-1 $-1 $175 $24 $-1 $348 reversed single #
loop $-1 $-1 $260 $160 #
plane-surface $-1 0 35.404757196794158 0 0 -1 0 0 0 -1 forward_v I I I I #
coedge $-1 $349 $258 $261 $350 forward $161 $-1 #
coedge $-1 $264 $163 $164 $252 reversed $101 $-1 #
coedge $-1 $258 $349 $163 $250 reversed $161 $-1 #
edge $-1 $265 -10.487769257330937 $351 10.487769257330937 $249 $352 forward 7 unknown #
coedge $-1 $165 $164 $349 $353 forward $65 $-1 #
edge $-1 $256 -66.474196600238045 $351 66.474196600238045 $248 $354 forward 7 unknown #
coedge $-1 $261 $260 $165 $254 reversed $245 $-1 #
edge $-1 $355 -66.474196600238045 $255 66.474196600238045 $253 $356 forward 7 unknown #
vertex $-1 $167 $357 #
vertex $-1 $267 $358 #
straight-curve $-1 66.474196600238045 0 -10.487769257330937 0 -1 0 I I #
coedge $-1 $247 $249 $168 $259 reversed $161 $-1 #
edge $-1 $262 -35.404757196794158 $265 35.404757196794158 $258 $359 forward 7 unknown #
coedge $-1 $253 $169 $174 $268 forward $245 $-1 #
coedge $-1 $169 $253 $247 $350 reversed $245 $-1 #
vertex $-1 $170 $360 #
straight-curve $-1 0 35.404757196794158 10.487769257330937 -1 0 0 I I #
coedge $-1 $171 $248 $173 $267 reversed $101 $-1 #
vertex $-1 $259 $361 #
straight-curve $-1 0 -35.404757196794158 10.487769257330937 1 0 0 I I #
edge $-1 $176 -10.487769257330937 $256 10.487769257330937 $173 $362 forward 7 unknown #
edge $-1 $177 -10.487769257330937 $255 10.487769257330937 $174 $363 forward 7 unknown #
point $-1 66.474196600238045 -35.404757196794158 10.487769257330937 #
point $-1 66.474196600238045 35.404757196794158 10.487769257330937 #
face $-1 $-1 $194 $25 $-1 $364 reversed single #
loop $-1 $-1 $280 $179 #
plane-surface $-1 0 0 10.487769257330937 0 0 1 1 0 0 forward_v I I I I #
coedge $-1 $286 $285 $183 $279 forward $180 $-1 #
coedge $-1 $185 $182 $286 $365 reversed $109 $-1 #
coedge $-1 $182 $185 $289 $366 reversed $109 $-1 #
edge $-1 $291 -10.487769257330937 $287 10.487769257330937 $182 $367 forward 7 unknown #
coedge $-1 $184 $183 $293 $368 reversed $69 $-1 #
edge $-1 $369 -35.862791847573369 $283 -25.360017657755982 $274 $370 forward 7 unknown #
coedge $-1 $290 $289 $184 $281 forward $272 $-1 #
edge $-1 $282 25.360017657755982 $371 35.862791847573369 $280 $372 forward 7 unknown #
vertex $-1 $281 $373 #
vertex $-1 $279 $374 #
straight-curve $-1 -55.971422410420658 -14.429218682132284 0 0 0 -1 I I #
coedge $-1 $274 $188 $193 $295 forward $180 $-1 #
coedge $-1 $188 $274 $275 $365 forward $180 $-1 #
vertex $-1 $189 $375 #
straight-curve $-1 -30.611404752664676 -20.382860942809575 -10.487769257330937 -1 0 0 I I #
coedge $-1 $280 $190 $276 $366 forward $272 $-1 #
coedge $-1 $190 $280 $192 $294 forward $272 $-1 #
vertex $-1 $191 $376 #
straight-curve $-1 -30.611404752664676 -20.382860942809575 10.487769257330937 1 0 0 I I #
coedge $-1 $193 $192 $278 $368 forward $194 $-1 #
edge $-1 $371 14.429218682132284 $196 20.382860942809575 $192 $377 forward 7 unknown #
edge $-1 $195 -20.382860942809575 $369 -14.429218682132284 $193 $378 forward 7 unknown #
point $-1 -66.474196600238045 -20.382860942809575 -10.487769257330937 #
point $-1 -66.474196600238045 -20.382860942809575 10.487769257330937 #
plane-surface $-1 0 0 10.487769257330937 0 0 1 1 0 0 forward_v I I I I #
coedge $-1 $309 $308 $301 $379 forward $199 $-1 #
coedge $-1 $301 $201 $203 $305 reversed $117 $-1 #
coedge $-1 $201 $300 $299 $379 reversed $117 $-1 #
coedge $-1 $209 $204 $201 $303 forward $210 $-1 #
edge $-1 $306 -14.273238713470739 $380 -9.2387246737991049 $302 $381 forward 7 unknown #
coedge $-1 $203 $202 $309 $382 reversed $73 $-1 #
edge $-1 $383 -70.809514393588344 $306 -63.135640717025858 $300 $384 forward 7 unknown #
vertex $-1 $205 $385 #
straight-curve $-1 -23.823692426756502 30.370243157122523 10.487769257330935 1 0 0 I I #
coedge $-1 $299 $206 $209 $313 reversed $199 $-1 #
coedge $-1 $206 $299 $304 $382 forward $199 $-1 #
vertex $-1 $207 $386 #
straight-curve $-1 -55.971422410420644 35.404757196794158 72.679417582289219 0 0 1 I I #
straight-curve $-1 -55.971422410420644 -11.050463384389857 58.136842683277905 0 0.65605901945558964 -0.75470958851134928 I I #
edge $-1 $380 39.323347296605363 $211 55.971422410420644 $308 $387 forward 7 unknown #
point $-1 -55.971422410420644 35.404757196794158 10.487769257330937 #
point $-1 -55.971422410420644 30.370243157122523 10.487769257330939 #
edge $-1 $388 1 $388 0 $214 $-1 forward 7 unknown #
vertex $-1 $215 $389 #
ellipse-curve $-1 -51.214829520759139 32.054640936851811 6.8680027615488628 0 0.75470958851134928 0.65605901945558964 1 0 0 1 I I #
point $-1 -50.214829520759139 32.887500176958333 7.591996234967672 #
edge $-1 $390 1 $390 0 $218 $-1 forward 7 unknown #
vertex $-1 $219 $391 #
ellipse-curve $-1 -44.079940186266874 32.054640936851811 6.8680027615488628 0 0.75470958851134928 0.65605901945558964 1 0 0 1 I I #
point $-1 -43.079940186266874 32.887500176958333 7.591996234967672 #
loop $-1 $-1 $229 $222 #
plane-surface $-1 0 35.404757196794158 0 0 -1 0 0 0 -1 forward_v I I I I #
coedge $-1 $392 $393 $226 $328 forward $223 $-1 #
coedge $-1 $226 $225 $333 $394 reversed $87 $-1 #
edge $-1 $330 37.57254632135664 $395 45.246419997919119 $326 $396 forward 7 unknown #
coedge $-1 $232 $227 $393 $397 forward $139 $-1 #
vertex $-1 $397 $398 #
straight-curve $-1 29.075079521665202 30.370243157122523 10.487769257330935 1 0 0 I I #
coedge $-1 $399 $229 $232 $337 reversed $324 $-1 #
coedge $-1 $229 $399 $327 $394 forward $324 $-1 #
vertex $-1 $230 $400 #
straight-curve $-1 49.826121486422764 35.404757196794158 72.679417582289219 0 0 1 I I #
straight-curve $-1 49.826121486422764 -11.050463384389857 58.136842683277905 0 0.65605901945558964 -0.75470958851134928 I I #
edge $-1 $401 -66.474196600238045 $233 -49.826121486422764 $332 $402 forward 7 unknown #
point $-1 49.826121486422764 35.404757196794158 10.487769257330937 #
point $-1 49.826121486422764 30.370243157122523 10.487769257330939 #
edge $-1 $403 1 $403 0 $236 $-1 forward 7 unknown #
vertex $-1 $237 $404 #
ellipse-curve $-1 54.582714376084269 32.054640936851811 6.8680027615488628 0 0.75470958851134928 0.65605901945558964 1 0 0 1 I I #
point $-1 55.582714376084269 32.887500176958333 7.591996234967672 #
edge $-1 $405 1 $405 0 $240 $-1 forward 7 unknown #
vertex $-1 $241 $406 #
ellipse-curve $-1 61.71760371057654 32.054640936851811 6.8680027615488628 0 0.75470958851134928 0.65605901945558964 1 0 0 1 I I #
point $-1 62.71760371057654 32.887500176958333 7.591996234967672 #
plane-surface $-1 66.474196600238045 0 0 -1 0 0 0 0 1 forward_v I I I I #
coedge $-1 $249 $247 $251 $353 reversed $161 $-1 #
edge $-1 $262 -10.487769257330937 $355 10.487769257330937 $261 $407 forward 7 unknown #
vertex $-1 $353 $408 #
straight-curve $-1 -66.474196600238045 -35.404757196794158 0 0 0 -1 I I #
edge $-1 $351 -35.404757196794158 $355 35.404757196794158 $349 $409 forward 7 unknown #
straight-curve $-1 0 -35.404757196794158 -10.487769257330937 -1 0 0 I I #
vertex $-1 $254 $410 #
straight-curve $-1 0 35.404757196794158 -10.487769257330937 1 0 0 I I #
point $-1 66.474196600238045 35.404757196794158 -10.487769257330937 #
point $-1 66.474196600238045 -35.404757196794158 -10.487769257330937 #
straight-curve $-1 -66.474196600238045 0 10.487769257330937 0 -1 0 I I #
point $-1 -66.474196600238045 35.404757196794158 10.487769257330937 #
point $-1 -66.474196600238045 -35.404757196794158 10.487769257330937 #
straight-curve $-1 66.474196600238045 -35.404757196794158 0 0 0 -1 I I #
straight-curve $-1 66.474196600238045 35.404757196794158 0 0 0 -1 I I #
plane-surface $-1 -66.474196600238045 0 0 1 0 0 0 0 -1 forward_v I I I I #
edge $-1 $283 5.7261987758968189 $287 11.679841036574111 $286 $411 forward 7 unknown #
edge $-1 $291 -11.679841036574111 $282 -5.7261987758968189 $289 $412 forward 7 unknown #
straight-curve $-1 -55.971422410420658 -20.382860942809575 0 0 0 -1 I I #
edge $-1 $371 -10.487769257330937 $369 10.487769257330937 $293 $413 forward 7 unknown #
vertex $-1 $368 $414 #
straight-curve $-1 -30.611404752664676 -14.429218682132284 -10.487769257330937 1 0 0 I I #
vertex $-1 $294 $415 #
straight-curve $-1 -30.611404752664676 -14.429218682132284 10.487769257330937 -1 0 0 I I #
point $-1 -55.971422410420658 -14.429218682132284 10.487769257330937 #
point $-1 -55.971422410420658 -14.429218682132284 -10.487769257330937 #
point $-1 -55.971422410420658 -20.382860942809575 -10.487769257330937 #
point $-1 -55.971422410420658 -20.382860942809575 10.487769257330937 #
straight-curve $-1 -66.474196600238045 0 10.487769257330937 0 -1 0 I I #
straight-curve $-1 -66.474196600238045 0 -10.487769257330937 0 1 0 I I #
edge $-1 $380 62.19164832495828 $383 67.983194369684824 $299 $416 forward 7 unknown #
vertex $-1 $313 $417 #
straight-curve $-1 -39.323347296605363 44.643481870593263 10.487769257330939 0 1 0 I I #
edge $-1 $383 15.499654869848861 $310 32.147729983664142 $309 $418 forward 7 unknown #
vertex $-1 $382 $419 #
straight-curve $-1 -39.323347296605363 -11.050463384389857 58.136842683277905 0 -0.65605901945558964 0.75470958851134928 I I #
point $-1 -39.323347296605363 30.370243157122523 10.487769257330939 #
point $-1 -55.971422410420644 35.404757196794165 4.6962232126043943 #
straight-curve $-1 0 35.404757196794158 10.487769257330937 -1 0 0 I I #
vertex $-1 $316 $420 #
point $-1 -50.214829520759139 32.054640936851811 6.8680027615488628 #
vertex $-1 $320 $421 #
point $-1 -43.079940186266874 32.054640936851811 6.8680027615488628 #
coedge $-1 $393 $326 $399 $422 reversed $223 $-1 #
coedge $-1 $326 $392 $329 $397 reversed $223 $-1 #
edge $-1 $395 -37.399117078572843 $334 -20.751041964757562 $333 $423 forward 7 unknown #
vertex $-1 $328 $424 #
straight-curve $-1 66.474196600238045 5.7204352590835654 38.844130230845614 0 0.65605901945558975 -0.75470958851134939 I I #
edge $-1 $330 30.370243157122523 $401 35.404757196794158 $393 $425 forward 7 unknown #
point $-1 66.474196600238045 30.370243157122523 10.487769257330939 #
coedge $-1 $333 $332 $392 $422 forward $324 $-1 #
point $-1 49.826121486422764 35.404757196794165 4.6962232126043943 #
vertex $-1 $397 $426 #
straight-curve $-1 0 35.404757196794158 10.487769257330937 -1 0 0 I I #
vertex $-1 $340 $427 #
point $-1 55.582714376084269 32.054640936851811 6.8680027615488628 #
vertex $-1 $344 $428 #
point $-1 62.71760371057654 32.054640936851811 6.8680027615488628 #
straight-curve $-1 -66.474196600238045 35.404757196794158 0 0 0 -1 I I #
point $-1 -66.474196600238045 -35.404757196794158 -10.487769257330937 #
straight-curve $-1 -66.474196600238045 0 -10.487769257330937 0 1 0 I I #
point $-1 -66.474196600238045 35.404757196794158 -10.487769257330937 #
straight-curve $-1 -55.971422410420658 -8.7030199062354647 -10.487769257330937 0 -1 0 I I #
straight-curve $-1 -55.971422410420658 -8.7030199062354647 10.487769257330937 0 1 0 I I #
straight-curve $-1 -66.474196600238045 -14.429218682132284 0 0 0 -1 I I #
point $-1 -66.474196600238045 -14.429218682132284 -10.487769257330937 #
point $-1 -66.474196600238045 -14.429218682132284 10.487769257330937 #
straight-curve $-1 -39.323347296605363 35.404757196794158 72.679417582289219 0 0 -1 I I #
point $-1 -39.323347296605363 35.404757196794158 10.487769257330937 #
straight-curve $-1 -23.823692426756502 35.404757196794158 4.6962232126044015 -1 0 0 I I #
point $-1 -39.323347296605363 35.404757196794165 4.6962232126043943 #
point $-1 -51.214829520759139 31.299931348340465 6.2119437420932746 #
point $-1 -44.079940186266874 31.299931348340465 6.2119437420932746 #
edge $-1 $401 -10.487769257330937 $395 -4.6962232126043943 $392 $429 forward 7 unknown #
straight-curve $-1 29.075079521665202 35.404757196794158 4.6962232126044015 -1 0 0 I I #
point $-1 66.474196600238045 35.404757196794165 4.6962232126043943 #
straight-curve $-1 66.474196600238045 0 10.487769257330937 0 1 0 I I #
point $-1 66.474196600238045 35.404757196794158 10.487769257330937 #
point $-1 54.582714376084269 31.299931348340465 6.2119437420932746 #
point $-1 61.71760371057654 31.299931348340465 6.2119437420932746 #
straight-curve $-1 66.474196600238045 35.404757196794158 0 0 0 -1 I I #
End-of-ACIS-data 