500 0 5 0           
7 Unknown 11 ACIS 5.0 NT 24 Thu Mar 25 15:20:17 1999 
-1 9.9999999999999995e-007 1e-010 
body $-1 $5 $-1 $6 #
body $-1 $7 $-1 $8 #
body $-1 $9 $-1 $10 #
body $-1 $11 $-1 $12 #
body $-1 $13 $-1 $14 #
lump $-1 $-1 $15 $0 #
transform $-1 1 0 0 0 1 0 0 0 1 72.524185918759727 40.735233000940383 14.215001319191648 1 rotate no_reflect no_shear #
lump $-1 $-1 $16 $1 #
transform $-1 1 0 0 0 1 0 0 0 1 72.524185918759727 40.735233000940383 14.215001319191648 1 rotate no_reflect no_shear #
lump $-1 $-1 $17 $2 #
transform $-1 1 0 0 0 1 0 0 0 1 72.524185918759727 40.735233000940383 14.215001319191648 1 rotate no_reflect no_shear #
lump $-1 $-1 $18 $3 #
transform $-1 1 0 0 0 1 0 0 0 1 72.524185918759727 40.735233000940383 14.215001319191648 1 rotate no_reflect no_shear #
lump $-1 $-1 $19 $4 #
transform $-1 1 0 0 0 1 0 0 0 1 72.524185918759727 40.735233000940383 14.215001319191648 1 rotate no_reflect no_shear #
shell $-1 $-1 $-1 $20 $-1 $5 #
shell $-1 $-1 $-1 $21 $-1 $7 #
shell $-1 $-1 $-1 $22 $-1 $9 #
shell $-1 $-1 $-1 $23 $-1 $11 #
shell $-1 $-1 $-1 $24 $-1 $13 #
face $-1 $25 $26 $15 $-1 $27 forward single #
face $-1 $28 $29 $16 $-1 $30 reversed single #
face $-1 $31 $32 $17 $-1 $33 reversed single #
face $-1 $34 $35 $18 $-1 $36 reversed single #
face $-1 $37 $38 $19 $-1 $39 forward single #
face $-1 $40 $41 $15 $-1 $42 reversed single #
loop $-1 $-1 $43 $20 #
plane-surface $-1 0 0 14.215001319191648 0 0 1 1 0 0 forward_v I I I I #
face $-1 $44 $45 $16 $-1 $46 reversed single #
loop $-1 $-1 $47 $21 #
plane-surface $-1 -66.062765680461112 -16.39884880331017 0 0 1 0 0 0 1 forward_v I I I I #
face $-1 $48 $49 $17 $-1 $50 reversed single #
loop $-1 $-1 $51 $22 #
plane-surface $-1 66.062765680461112 -16.39884880331017 0 0 1 0 0 0 1 forward_v I I I I #
face $-1 $52 $53 $18 $-1 $54 reversed single #
loop $-1 $-1 $55 $23 #
plane-surface $-1 -31.137447134783237 115.42807880781973 150.05709481634014 1 0 0 0 -0.82903758062907751 -0.55919289150049634 forward_v I I I I #
face $-1 $56 $57 $19 $-1 $58 forward single #
loop $-1 $59 $60 $24 #
cone-surface $-1 -22.072011008522253 34.653429887146991 6.6218023941196202 0 -0.82903758062907751 -0.55919289150049634 1.5 0 0 1 I I 0 1 1.5 forward I I I I #
face $-1 $61 $62 $15 $-1 $63 reversed single #
loop $-1 $-1 $64 $25 #
plane-surface $-1 0 0 -14.215001319191648 0 0 1 1 0 0 forward_v I I I I #
coedge $-1 $65 $66 $67 $68 forward $26 $-1 #
face $-1 $69 $70 $16 $-1 $71 reversed single #
loop $-1 $-1 $72 $28 #
plane-surface $-1 -66.062765680461112 -12.305230362557086 0 0 -1 0 0 0 -1 forward_v I I I I #
coedge $-1 $73 $74 $75 $76 reversed $29 $-1 #
face $-1 $77 $78 $17 $-1 $79 reversed single #
loop $-1 $-1 $80 $31 #
plane-surface $-1 59.601345442162497 -14.352039582933628 0 1 0 0 0 0 -1 forward_v I I I I #
coedge $-1 $81 $82 $83 $84 forward $32 $-1 #
face $-1 $85 $86 $18 $-1 $87 reversed single #
loop $-1 $-1 $88 $34 #
plane-surface $-1 -22.072011008522253 -4.8224724545442257 68.947076361078473 0 0.82903758062907751 0.55919289150049634 1 0 0 forward_v I I I I #
coedge $-1 $89 $90 $91 $92 reversed $35 $-1 #
face $-1 $-1 $93 $19 $-1 $94 forward single #
loop $-1 $95 $96 $37 #
cone-surface $-1 -22.072011008522253 32.270076510418605 5.0142102929401791 0 -0.82903758062907751 -0.55919289150049634 0.75 0 0 1 I I -0.70710678118654757 0.70710678118654757 0.75 forward I I I I #
loop $-1 $-1 $97 $24 #
coedge $-1 $60 $60 $98 $99 reversed $38 $-1 #
face $-1 $100 $101 $15 $-1 $102 reversed single #
loop $-1 $-1 $103 $40 #
plane-surface $-1 0 -40.735233000940383 0 0 1 0 0 0 1 forward_v I I I I #
coedge $-1 $104 $105 $106 $107 forward $41 $-1 #
coedge $-1 $108 $43 $109 $110 forward $26 $-1 #
coedge $-1 $43 $108 $111 $112 forward $26 $-1 #
coedge $-1 $113 $114 $43 $68 reversed $115 $-1 #
edge $-1 $116 -40.735233000940383 $117 40.735233000940383 $67 $118 forward 7 unknown #
face $-1 $119 $120 $16 $-1 $121 reversed single #
loop $-1 $-1 $122 $44 #
plane-surface $-1 -59.601345442162497 -14.352039582933628 0 -1 0 0 0 0 1 forward_v I I I I #
coedge $-1 $123 $124 $125 $126 forward $45 $-1 #
coedge $-1 $127 $47 $128 $129 reversed $29 $-1 #
coedge $-1 $47 $127 $130 $131 reversed $29 $-1 #
coedge $-1 $132 $133 $47 $76 forward $134 $-1 #
edge $-1 $135 -14.215001319191648 $136 14.215001319191648 $75 $137 forward 7 unknown #
face $-1 $138 $139 $17 $-1 $140 reversed single #
loop $-1 $-1 $141 $48 #
plane-surface $-1 66.062765680461112 -12.305230362557086 0 0 -1 0 0 0 -1 forward_v I I I I #
coedge $-1 $142 $143 $144 $145 forward $49 $-1 #
coedge $-1 $146 $51 $147 $148 reversed $32 $-1 #
coedge $-1 $51 $146 $149 $150 reversed $32 $-1 #
coedge $-1 $143 $142 $51 $84 reversed $49 $-1 #
edge $-1 $151 -14.215001319191648 $152 14.215001319191648 $83 $153 forward 7 unknown #
face $-1 $154 $155 $18 $-1 $156 reversed single #
loop $-1 $-1 $157 $52 #
plane-surface $-1 -13.006574882261269 115.42807880781973 150.05709481634014 -1 0 0 0 0.82903758062907751 0.55919289150049634 forward_v I I I I #
coedge $-1 $158 $159 $160 $161 reversed $53 $-1 #
coedge $-1 $90 $55 $162 $163 reversed $35 $-1 #
coedge $-1 $55 $89 $158 $164 reversed $35 $-1 #
coedge $-1 $160 $165 $55 $92 forward $166 $-1 #
edge $-1 $167 16.978806402969482 $168 25.61926224804315 $91 $169 forward 7 unknown #
loop $-1 $-1 $98 $56 #
plane-surface $-1 -22.072011008522253 -4.8224724545442257 68.947076361078473 0 0.82903758062907751 0.55919289150049634 1 0 0 forward_v I I I I #
loop $-1 $-1 $170 $37 #
coedge $-1 $96 $96 $97 $171 reversed $57 $-1 #
coedge $-1 $97 $97 $96 $171 forward $59 $-1 #
coedge $-1 $98 $98 $60 $99 forward $93 $-1 #
edge $-1 $172 5.8327605653577808e-016 $172 6.2831853071796013 $98 $173 forward 7 unknown #
face $-1 $174 $175 $15 $-1 $176 reversed single #
loop $-1 $-1 $177 $61 #
plane-surface $-1 -72.524185918759727 0 0 1 0 0 0 0 -1 forward_v I I I I #
coedge $-1 $178 $111 $179 $180 forward $62 $-1 #
coedge $-1 $181 $64 $178 $182 forward $41 $-1 #
coedge $-1 $64 $181 $183 $184 forward $41 $-1 #
coedge $-1 $114 $113 $64 $107 reversed $115 $-1 #
edge $-1 $185 -40.735233000940383 $186 40.735233000940383 $106 $187 forward 7 unknown #
coedge $-1 $66 $65 $188 $189 forward $26 $-1 #
coedge $-1 $190 $191 $65 $110 reversed $175 $-1 #
edge $-1 $117 -72.524185918759727 $192 72.524185918759727 $109 $193 forward 7 unknown #
coedge $-1 $103 $194 $66 $112 reversed $62 $-1 #
edge $-1 $195 -72.524185918759727 $116 72.524185918759727 $111 $196 forward 7 unknown #
coedge $-1 $106 $67 $194 $197 forward $115 $-1 #
coedge $-1 $67 $106 $190 $198 reversed $115 $-1 #
loop $-1 $-1 $113 $174 #
vertex $-1 $68 $199 #
vertex $-1 $68 $200 #
straight-curve $-1 72.524185918759727 0 14.215001319191648 0 1 0 I I #
face $-1 $201 $202 $16 $-1 $203 forward single #
loop $-1 $-1 $204 $69 #
plane-surface $-1 0 0 -14.215001319191648 0 0 1 1 0 0 forward_v I I I I #
coedge $-1 $205 $206 $127 $207 forward $70 $-1 #
coedge $-1 $208 $72 $204 $209 reversed $45 $-1 #
coedge $-1 $72 $208 $210 $211 reversed $45 $-1 #
coedge $-1 $206 $205 $72 $126 reversed $70 $-1 #
edge $-1 $212 -14.215001319191648 $213 14.215001319191648 $125 $214 forward 7 unknown #
coedge $-1 $74 $73 $122 $207 reversed $29 $-1 #
coedge $-1 $215 $216 $73 $129 forward $120 $-1 #
edge $-1 $217 26.569962601931941 $135 39.492803078529171 $128 $218 forward 7 unknown #
coedge $-1 $219 $220 $74 $131 forward $202 $-1 #
edge $-1 $136 -39.492803078529171 $221 -26.569962601931941 $130 $222 forward 7 unknown #
coedge $-1 $223 $75 $220 $224 reversed $134 $-1 #
coedge $-1 $75 $223 $215 $225 reversed $134 $-1 #
loop $-1 $-1 $223 $201 #
vertex $-1 $225 $226 #
vertex $-1 $76 $227 #
straight-curve $-1 -72.524185918759727 -16.39884880331017 0 0 0 1 I I #
face $-1 $228 $229 $17 $-1 $230 forward single #
loop $-1 $-1 $147 $77 #
plane-surface $-1 0 0 -14.215001319191648 0 0 1 1 0 0 forward_v I I I I #
coedge $-1 $231 $232 $233 $234 reversed $78 $-1 #
coedge $-1 $83 $80 $235 $236 reversed $49 $-1 #
coedge $-1 $80 $83 $237 $238 reversed $49 $-1 #
coedge $-1 $232 $231 $80 $145 reversed $78 $-1 #
edge $-1 $239 -14.215001319191648 $240 14.215001319191648 $144 $241 forward 7 unknown #
coedge $-1 $82 $81 $242 $243 reversed $32 $-1 #
coedge $-1 $235 $244 $81 $148 forward $139 $-1 #
edge $-1 $245 -39.492803078529171 $152 -26.569962601931941 $147 $246 forward 7 unknown #
coedge $-1 $247 $237 $82 $150 forward $229 $-1 #
edge $-1 $151 26.569962601931941 $248 39.492803078529171 $149 $249 forward 7 unknown #
vertex $-1 $150 $250 #
vertex $-1 $148 $251 #
straight-curve $-1 59.601345442162497 -16.39884880331017 0 0 0 -1 I I #
face $-1 $-1 $166 $18 $-1 $252 forward single #
loop $-1 $-1 $253 $85 #
plane-surface $-1 0 40.735233000940383 0 0 -1 0 0 0 -1 forward_v I I I I #
coedge $-1 $254 $255 $256 $257 reversed $86 $-1 #
coedge $-1 $258 $88 $90 $164 forward $53 $-1 #
coedge $-1 $88 $258 $254 $259 forward $53 $-1 #
coedge $-1 $256 $91 $88 $161 forward $166 $-1 #
edge $-1 $168 -20.10144163052211 $260 -1.9705693780001425 $160 $261 forward 7 unknown #
coedge $-1 $262 $263 $89 $163 forward $155 $-1 #
edge $-1 $264 -73.623549074014377 $167 -60.81354608897842 $162 $265 forward 7 unknown #
edge $-1 $168 66.018810631426234 $264 81.470466001880808 $90 $266 forward 7 unknown #
coedge $-1 $91 $256 $262 $267 forward $166 $-1 #
loop $-1 $-1 $256 $154 #
vertex $-1 $163 $268 #
vertex $-1 $92 $269 #
straight-curve $-1 -31.137447134783237 57.714039403909865 14.215001319191643 0 -1 0 I I #
coedge $-1 $170 $170 $-1 $270 reversed $95 $-1 #
edge $-1 $271 0 $271 6.2831853071796004 $96 $272 forward 7 unknown #
vertex $-1 $99 $273 #
ellipse-curve $-1 -22.072011008522253 36.415005078403553 7.8099998266736756 0 0.82903758062907751 0.55919289150049634 1.5 0 0 1 I I #
face $-1 $-1 $115 $15 $-1 $274 reversed single #
loop $-1 $-1 $190 $100 #
plane-surface $-1 0 40.735233000940383 0 0 -1 0 0 0 -1 forward_v I I I I #
coedge $-1 $275 $188 $191 $276 forward $101 $-1 #
coedge $-1 $194 $103 $104 $182 reversed $62 $-1 #
coedge $-1 $188 $275 $103 $180 reversed $101 $-1 #
edge $-1 $195 -14.215001319191648 $277 14.215001319191648 $179 $278 forward 7 unknown #
coedge $-1 $105 $104 $275 $279 forward $41 $-1 #
edge $-1 $186 -72.524185918759727 $277 72.524185918759727 $178 $280 forward 7 unknown #
coedge $-1 $191 $190 $105 $184 reversed $175 $-1 #
edge $-1 $281 -72.524185918759727 $185 72.524185918759727 $183 $282 forward 7 unknown #
vertex $-1 $107 $283 #
vertex $-1 $197 $284 #
straight-curve $-1 72.524185918759727 0 -14.215001319191648 0 -1 0 I I #
coedge $-1 $177 $179 $108 $189 reversed $101 $-1 #
edge $-1 $192 -40.735233000940383 $195 40.735233000940383 $188 $285 forward 7 unknown #
coedge $-1 $183 $109 $114 $198 forward $175 $-1 #
coedge $-1 $109 $183 $177 $276 reversed $175 $-1 #
vertex $-1 $110 $286 #
straight-curve $-1 0 40.735233000940383 14.215001319191648 -1 0 0 I I #
coedge $-1 $111 $178 $113 $197 reversed $62 $-1 #
vertex $-1 $189 $287 #
straight-curve $-1 0 -40.735233000940383 14.215001319191648 1 0 0 I I #
edge $-1 $116 -14.215001319191648 $186 14.215001319191648 $113 $288 forward 7 unknown #
edge $-1 $117 -14.215001319191648 $185 14.215001319191648 $114 $289 forward 7 unknown #
point $-1 72.524185918759727 -40.735233000940383 14.215001319191648 #
point $-1 72.524185918759727 40.735233000940383 14.215001319191648 #
face $-1 $-1 $134 $16 $-1 $290 reversed single #
loop $-1 $-1 $210 $119 #
plane-surface $-1 0 0 14.215001319191648 0 0 1 1 0 0 forward_v I I I I #
coedge $-1 $216 $215 $123 $209 forward $120 $-1 #
coedge $-1 $125 $122 $216 $291 reversed $70 $-1 #
coedge $-1 $122 $125 $219 $292 reversed $70 $-1 #
edge $-1 $221 -14.215001319191648 $217 14.215001319191648 $122 $293 forward 7 unknown #
coedge $-1 $124 $123 $223 $294 reversed $45 $-1 #
edge $-1 $295 -39.492803078529171 $213 -26.569962601931941 $204 $296 forward 7 unknown #
coedge $-1 $220 $219 $124 $211 forward $202 $-1 #
edge $-1 $212 26.569962601931941 $297 39.492803078529171 $210 $298 forward 7 unknown #
vertex $-1 $211 $299 #
vertex $-1 $209 $300 #
straight-curve $-1 -59.601345442162497 -12.305230362557086 0 0 0 -1 I I #
coedge $-1 $204 $128 $133 $225 forward $120 $-1 #
coedge $-1 $128 $204 $205 $291 forward $120 $-1 #
vertex $-1 $129 $301 #
straight-curve $-1 -33.031382840230556 -16.39884880331017 -14.215001319191648 -1 0 0 I I #
coedge $-1 $210 $130 $206 $292 forward $202 $-1 #
coedge $-1 $130 $210 $132 $224 forward $202 $-1 #
vertex $-1 $131 $302 #
straight-curve $-1 -33.031382840230556 -16.39884880331017 14.215001319191648 1 0 0 I I #
coedge $-1 $133 $132 $208 $294 forward $134 $-1 #
edge $-1 $297 12.305230362557086 $136 16.39884880331017 $132 $303 forward 7 unknown #
edge $-1 $135 -16.39884880331017 $295 -12.305230362557086 $133 $304 forward 7 unknown #
point $-1 -72.524185918759727 -16.39884880331017 -14.215001319191648 #
point $-1 -72.524185918759727 -16.39884880331017 14.215001319191648 #
face $-1 $-1 $305 $17 $-1 $306 reversed single #
loop $-1 $-1 $149 $138 #
plane-surface $-1 0 0 14.215001319191648 0 0 1 1 0 0 forward_v I I I I #
coedge $-1 $144 $141 $307 $308 reversed $78 $-1 #
coedge $-1 $141 $144 $309 $310 reversed $78 $-1 #
coedge $-1 $311 $312 $141 $234 forward $305 $-1 #
edge $-1 $313 -14.215001319191648 $314 14.215001319191648 $233 $315 forward 7 unknown #
coedge $-1 $307 $147 $142 $236 forward $139 $-1 #
edge $-1 $152 -9.2228290118433556 $240 -5.1292105710902725 $235 $316 forward 7 unknown #
coedge $-1 $149 $309 $143 $238 forward $229 $-1 #
edge $-1 $239 5.1292105710902725 $151 9.2228290118433556 $237 $317 forward 7 unknown #
vertex $-1 $238 $318 #
vertex $-1 $236 $319 #
straight-curve $-1 59.601345442162497 -12.305230362557086 0 0 0 -1 I I #
coedge $-1 $312 $311 $146 $243 forward $305 $-1 #
edge $-1 $248 -14.215001319191648 $245 14.215001319191648 $242 $320 forward 7 unknown #
coedge $-1 $147 $307 $312 $321 forward $139 $-1 #
vertex $-1 $243 $322 #
straight-curve $-1 33.031382840230556 -16.39884880331017 -14.215001319191648 -1 0 0 I I #
coedge $-1 $309 $149 $311 $323 forward $229 $-1 #
vertex $-1 $323 $324 #
straight-curve $-1 33.031382840230556 -16.39884880331017 14.215001319191648 1 0 0 I I #
point $-1 59.601345442162497 -16.39884880331017 14.215001319191648 #
point $-1 59.601345442162497 -16.39884880331017 -14.215001319191648 #
plane-surface $-1 0 0 14.215001319191648 0 0 1 1 0 0 forward_v I I I I #
coedge $-1 $263 $262 $255 $325 forward $155 $-1 #
coedge $-1 $255 $157 $159 $259 reversed $86 $-1 #
coedge $-1 $157 $254 $253 $325 reversed $86 $-1 #
coedge $-1 $165 $160 $157 $257 forward $166 $-1 #
edge $-1 $260 -25.61926224804315 $326 -16.978806402969482 $256 $327 forward 7 unknown #
coedge $-1 $159 $158 $263 $328 reversed $53 $-1 #
edge $-1 $329 -81.470466001880808 $260 -66.018810631426234 $254 $330 forward 7 unknown #
vertex $-1 $161 $331 #
straight-curve $-1 -11.036005504261126 32.094777155866716 14.21500131919165 1 0 0 I I #
coedge $-1 $253 $162 $165 $267 reversed $155 $-1 #
coedge $-1 $162 $253 $258 $328 forward $155 $-1 #
vertex $-1 $163 $332 #
straight-curve $-1 -31.137447134783237 40.735233000940383 75.02854740817007 0 0 1 I I #
straight-curve $-1 -31.137447134783237 -4.8224724545442257 68.947076361078473 0 0.55919289150049634 -0.82903758062907751 I I #
edge $-1 $326 13.006574882261269 $167 31.137447134783237 $262 $333 forward 7 unknown #
point $-1 -31.137447134783237 40.735233000940383 14.215001319191648 #
point $-1 -31.137447134783237 32.094777155866716 14.21500131919165 #
edge $-1 $334 1 $334 0 $170 $-1 forward 7 unknown #
vertex $-1 $171 $335 #
ellipse-curve $-1 -22.072011008522253 32.891854695890416 5.4336049615655515 0 0.82903758062907751 0.55919289150049634 1.5 0 0 1 I I #
point $-1 -20.572011008522253 36.415005078403574 7.809999826673689 #
plane-surface $-1 72.524185918759727 0 0 -1 0 0 0 0 1 forward_v I I I I #
coedge $-1 $179 $177 $181 $279 reversed $101 $-1 #
edge $-1 $192 -14.215001319191648 $281 14.215001319191648 $191 $336 forward 7 unknown #
vertex $-1 $279 $337 #
straight-curve $-1 -72.524185918759727 -40.735233000940383 0 0 0 -1 I I #
edge $-1 $277 -40.735233000940383 $281 40.735233000940383 $275 $338 forward 7 unknown #
straight-curve $-1 0 -40.735233000940383 -14.215001319191648 -1 0 0 I I #
vertex $-1 $184 $339 #
straight-curve $-1 0 40.735233000940383 -14.215001319191648 1 0 0 I I #
point $-1 72.524185918759727 40.735233000940383 -14.215001319191648 #
point $-1 72.524185918759727 -40.735233000940383 -14.215001319191648 #
straight-curve $-1 -72.524185918759727 0 14.215001319191648 0 -1 0 I I #
point $-1 -72.524185918759727 40.735233000940383 14.215001319191648 #
point $-1 -72.524185918759727 -40.735233000940383 14.215001319191648 #
straight-curve $-1 72.524185918759727 -40.735233000940383 0 0 0 -1 I I #
straight-curve $-1 72.524185918759727 40.735233000940383 0 0 0 -1 I I #
plane-surface $-1 -72.524185918759727 0 0 1 0 0 0 0 -1 forward_v I I I I #
edge $-1 $213 5.1292105710902725 $217 9.2228290118433556 $216 $340 forward 7 unknown #
edge $-1 $221 -9.2228290118433556 $212 -5.1292105710902725 $219 $341 forward 7 unknown #
straight-curve $-1 -59.601345442162497 -16.39884880331017 0 0 0 -1 I I #
edge $-1 $297 -14.215001319191648 $295 14.215001319191648 $223 $342 forward 7 unknown #
vertex $-1 $294 $343 #
straight-curve $-1 -33.031382840230556 -12.305230362557086 -14.215001319191648 1 0 0 I I #
vertex $-1 $224 $344 #
straight-curve $-1 -33.031382840230556 -12.305230362557086 14.215001319191648 -1 0 0 I I #
point $-1 -59.601345442162497 -12.305230362557086 14.215001319191648 #
point $-1 -59.601345442162497 -12.305230362557086 -14.215001319191648 #
point $-1 -59.601345442162497 -16.39884880331017 -14.215001319191648 #
point $-1 -59.601345442162497 -16.39884880331017 14.215001319191648 #
straight-curve $-1 -72.524185918759727 0 14.215001319191648 0 -1 0 I I #
straight-curve $-1 -72.524185918759727 0 -14.215001319191648 0 1 0 I I #
loop $-1 $-1 $242 $228 #
plane-surface $-1 72.524185918759727 0 0 -1 0 0 0 0 1 forward_v I I I I #
coedge $-1 $244 $235 $231 $308 forward $139 $-1 #
edge $-1 $240 26.569962601931941 $313 39.492803078529171 $307 $345 forward 7 unknown #
coedge $-1 $237 $247 $232 $310 forward $229 $-1 #
edge $-1 $314 -39.492803078529171 $239 -26.569962601931941 $309 $346 forward 7 unknown #
coedge $-1 $242 $233 $247 $323 reversed $305 $-1 #
coedge $-1 $233 $242 $244 $321 reversed $305 $-1 #
vertex $-1 $321 $347 #
vertex $-1 $234 $348 #
straight-curve $-1 72.524185918759727 -12.305230362557086 0 0 0 1 I I #
straight-curve $-1 59.601345442162497 -7.176019791466814 -14.215001319191648 0 1 0 I I #
straight-curve $-1 59.601345442162497 -7.176019791466814 14.215001319191648 0 -1 0 I I #
point $-1 59.601345442162497 -12.305230362557086 14.215001319191648 #
point $-1 59.601345442162497 -12.305230362557086 -14.215001319191648 #
straight-curve $-1 72.524185918759727 -16.39884880331017 0 0 0 -1 I I #
edge $-1 $313 12.305230362557086 $245 16.39884880331017 $312 $349 forward 7 unknown #
point $-1 72.524185918759727 -16.39884880331017 -14.215001319191648 #
edge $-1 $248 -16.39884880331017 $314 -12.305230362557086 $311 $350 forward 7 unknown #
point $-1 72.524185918759727 -16.39884880331017 14.215001319191648 #
edge $-1 $326 60.81354608897842 $329 73.623549074014377 $253 $351 forward 7 unknown #
vertex $-1 $267 $352 #
straight-curve $-1 -13.006574882261269 57.714039403909865 14.215001319191643 0 1 0 I I #
edge $-1 $329 1.9705693780001425 $264 20.10144163052211 $263 $353 forward 7 unknown #
vertex $-1 $328 $354 #
straight-curve $-1 -13.006574882261269 -4.8224724545442257 68.947076361078473 0 -0.55919289150049634 0.82903758062907751 I I #
point $-1 -13.006574882261269 32.094777155866716 14.21500131919165 #
point $-1 -31.137447134783237 40.735233000940383 1.4049983341556924 #
straight-curve $-1 0 40.735233000940383 14.215001319191648 -1 0 0 I I #
vertex $-1 $270 $355 #
point $-1 -20.572011008522253 32.891854695890416 5.4336049615655515 #
straight-curve $-1 -72.524185918759727 40.735233000940383 0 0 0 -1 I I #
point $-1 -72.524185918759727 -40.735233000940383 -14.215001319191648 #
straight-curve $-1 -72.524185918759727 0 -14.215001319191648 0 1 0 I I #
point $-1 -72.524185918759727 40.735233000940383 -14.215001319191648 #
straight-curve $-1 -59.601345442162497 -7.176019791466814 -14.215001319191648 0 -1 0 I I #
straight-curve $-1 -59.601345442162497 -7.176019791466814 14.215001319191648 0 1 0 I I #
straight-curve $-1 -72.524185918759727 -12.305230362557086 0 0 0 -1 I I #
point $-1 -72.524185918759727 -12.305230362557086 -14.215001319191648 #
point $-1 -72.524185918759727 -12.305230362557086 14.215001319191648 #
straight-curve $-1 33.031382840230556 -12.305230362557086 -14.215001319191648 1 0 0 I I #
straight-curve $-1 33.031382840230556 -12.305230362557086 14.215001319191648 -1 0 0 I I #
point $-1 72.524185918759727 -12.305230362557086 -14.215001319191648 #
point $-1 72.524185918759727 -12.305230362557086 14.215001319191648 #
straight-curve $-1 72.524185918759727 0 -14.215001319191648 0 -1 0 I I #
straight-curve $-1 72.524185918759727 0 14.215001319191648 0 1 0 I I #
straight-curve $-1 -13.006574882261269 40.735233000940383 75.02854740817007 0 0 -1 I I #
point $-1 -13.006574882261269 40.735233000940383 14.215001319191648 #
straight-curve $-1 -11.036005504261126 40.735233000940383 1.4049983341556995 -1 0 0 I I #
point $-1 -13.006574882261269 40.735233000940383 1.4049983341556924 #
point $-1 -22.072011008522253 31.648298324946797 4.5948156243148066 #
End-of-ACIS-data 