500 0 8 0           
7 Unknown 11 ACIS 5.0 NT 24 Thu Mar 25 23:52:31 1999 
-1 9.9999999999999995e-007 1e-010 
body $-1 $8 $-1 $9 #
body $-1 $10 $-1 $11 #
body $-1 $12 $-1 $13 #
body $-1 $14 $-1 $15 #
body $-1 $16 $-1 $17 #
body $-1 $18 $-1 $19 #
body $-1 $20 $-1 $21 #
body $-1 $22 $-1 $23 #
lump $-1 $-1 $24 $0 #
transform $-1 1 0 0 0 1 0 0 0 1 74.883877071443834 36.769818773561461 10.208065658111328 1 rotate no_reflect no_shear #
lump $-1 $-1 $25 $1 #
transform $-1 1 0 0 0 1 0 0 0 1 74.883877071443834 36.769818773561461 10.208065658111328 1 rotate no_reflect no_shear #
lump $-1 $-1 $26 $2 #
transform $-1 1 0 0 0 1 0 0 0 1 74.883877071443834 36.769818773561461 10.208065658111328 1 rotate no_reflect no_shear #
lump $-1 $-1 $27 $3 #
transform $-1 1 0 0 0 1 0 0 0 1 74.883877071443834 36.769818773561461 10.208065658111328 1 rotate no_reflect no_shear #
lump $-1 $-1 $28 $4 #
transform $-1 1 0 0 0 1 0 0 0 1 74.883877071443834 36.769818773561461 10.208065658111328 1 rotate no_reflect no_shear #
lump $-1 $-1 $29 $5 #
transform $-1 1 0 0 0 1 0 0 0 1 74.883877071443834 36.769818773561461 10.208065658111328 1 rotate no_reflect no_shear #
lump $-1 $-1 $30 $6 #
transform $-1 1 0 0 0 1 0 0 0 1 74.883877071443834 36.769818773561461 10.208065658111328 1 rotate no_reflect no_shear #
lump $-1 $-1 $31 $7 #
transform $-1 1 0 0 0 1 0 0 0 1 74.883877071443834 36.769818773561461 10.208065658111328 1 rotate no_reflect no_shear #
shell $-1 $-1 $-1 $32 $-1 $8 #
shell $-1 $-1 $-1 $33 $-1 $10 #
shell $-1 $-1 $-1 $34 $-1 $12 #
shell $-1 $-1 $-1 $35 $-1 $14 #
shell $-1 $-1 $-1 $36 $-1 $16 #
shell $-1 $-1 $-1 $37 $-1 $18 #
shell $-1 $-1 $-1 $38 $-1 $20 #
shell $-1 $-1 $-1 $39 $-1 $22 #
face $-1 $40 $41 $24 $-1 $42 reversed single #
face $-1 $43 $44 $25 $-1 $45 forward single #
face $-1 $46 $47 $26 $-1 $48 reversed single #
face $-1 $49 $50 $27 $-1 $51 forward single #
face $-1 $52 $53 $28 $-1 $54 reversed single #
face $-1 $55 $56 $29 $-1 $57 forward single #
face $-1 $58 $59 $30 $-1 $60 forward single #
face $-1 $61 $62 $31 $-1 $63 forward single #
face $-1 $64 $65 $24 $-1 $66 forward single #
loop $-1 $-1 $67 $32 #
plane-surface $-1 0 -36.769818773561461 0 0 1 0 0 0 1 forward_v I I I I #
face $-1 $68 $69 $25 $-1 $70 reversed single #
loop $-1 $-1 $71 $33 #
plane-surface $-1 0 -36.769818773561461 0 0 1 0 0 0 1 forward_v I I I I #
face $-1 $72 $73 $26 $-1 $74 reversed single #
loop $-1 $-1 $75 $34 #
plane-surface $-1 74.883879528905908 27.034752685902067 216.12376494619187 0 1 0 0.70710678939079041 0 0.70710677298230451 forward_v I I I I #
face $-1 $76 $77 $27 $-1 $78 forward single #
loop $-1 $79 $80 $35 #
cone-surface $-1 71.330528186273341 31.902285729731766 6.654716718767598 -0.70710678939079041 0 -0.70710677298230451 0.70710677298230451 0 -0.70710678939079041 1 I I 0 1 1 forward I I I I #
face $-1 $81 $82 $28 $-1 $83 reversed single #
loop $-1 $-1 $84 $36 #
plane-surface $-1 -152.01997387489172 22.114922085435353 130.73156056466888 0 1 0 -0.51503808176128008 0 0.85716729658548041 forward_v I I I I #
face $-1 $85 $86 $29 $-1 $87 forward single #
loop $-1 $88 $89 $37 #
cone-surface $-1 -67.380042844582007 25.045901423060577 4.668391279610244 0.51503808176128008 0 -0.85716729658548041 0.85716729658548041 0 0.51503808176128008 1 I I 0 1 1 forward I I I I #
face $-1 $90 $91 $30 $-1 $92 forward single #
loop $-1 $93 $94 $38 #
cone-surface $-1 -67.380042844582007 29.442370429498403 4.668391279610244 0.51503808176128008 0 -0.85716729658548041 0.85716729658548041 0 0.51503808176128008 1 I I 0 1 1 forward I I I I #
face $-1 $95 $96 $31 $-1 $97 forward single #
loop $-1 $98 $99 $39 #
cone-surface $-1 -67.380042844582007 33.838839435936229 4.668391279610244 0.51503808176128008 0 -0.85716729658548041 0.85716729658548041 0 0.51503808176128008 1 I I 0 1 1 forward I I I I #
face $-1 $100 $101 $24 $-1 $102 reversed single #
loop $-1 $-1 $103 $40 #
plane-surface $-1 0 0 10.208065658111328 0 0 1 1 0 0 forward_v I I I I #
coedge $-1 $104 $105 $106 $107 reversed $41 $-1 #
face $-1 $108 $109 $25 $-1 $110 reversed single #
loop $-1 $-1 $111 $43 #
plane-surface $-1 0 0 -10.208065658111328 0 0 1 1 0 0 forward_v I I I I #
coedge $-1 $112 $113 $114 $115 forward $44 $-1 #
face $-1 $116 $117 $26 $-1 $118 reversed single #
loop $-1 $-1 $119 $46 #
plane-surface $-1 -31.017916257340644 31.902285729731766 110.22197161740741 0.70710678939079041 0 0.70710677298230451 0.70710677298230451 0 -0.70710678939079041 forward_v I I I I #
coedge $-1 $120 $121 $122 $123 reversed $47 $-1 #
face $-1 $-1 $124 $27 $-1 $125 forward single #
loop $-1 $126 $127 $49 #
cone-surface $-1 70.367570751568138 31.902285729731766 5.6917593064079259 -0.70710678939079041 0 -0.70710677298230451 0.35355338649115226 0 -0.35355339469539521 1 I I -0.70710678118654746 0.70710678118654746 0.5 forward I I I I #
loop $-1 $-1 $128 $35 #
coedge $-1 $80 $80 $129 $130 reversed $50 $-1 #
face $-1 $131 $132 $28 $-1 $133 reversed single #
loop $-1 $-1 $134 $52 #
plane-surface $-1 -74.883877071443848 29.442370429498403 2.3555396303309806 -0.51503808176128008 0 0.85716729658548041 0.85716729658548041 0 0.51503808176128008 forward_v I I I I #
coedge $-1 $135 $136 $137 $138 reversed $53 $-1 #
face $-1 $-1 $139 $29 $-1 $140 forward single #
loop $-1 $141 $142 $55 #
cone-surface $-1 -66.153088434863548 25.045901423060577 2.6263962667065819 0.51503808176128008 0 -0.85716729658548041 0.4285836482927402 0 0.25751904088064004 1 I I -0.70710678118654746 0.70710678118654746 0.5 forward I I I I #
loop $-1 $-1 $143 $37 #
coedge $-1 $89 $89 $144 $145 reversed $56 $-1 #
face $-1 $-1 $146 $30 $-1 $147 forward single #
loop $-1 $148 $149 $58 #
cone-surface $-1 -66.153088434863548 29.442370429498403 2.6263962667065819 0.51503808176128008 0 -0.85716729658548041 0.4285836482927402 0 0.25751904088064004 1 I I -0.70710678118654746 0.70710678118654746 0.5 forward I I I I #
loop $-1 $-1 $150 $38 #
coedge $-1 $94 $94 $151 $152 reversed $59 $-1 #
face $-1 $-1 $153 $31 $-1 $154 forward single #
loop $-1 $155 $156 $61 #
cone-surface $-1 -66.153088434863548 33.838839435936229 2.6263962667065819 0.51503808176128008 0 -0.85716729658548041 0.4285836482927402 0 0.25751904088064004 1 I I -0.70710678118654746 0.70710678118654746 0.5 forward I I I I #
loop $-1 $-1 $157 $39 #
coedge $-1 $99 $99 $158 $159 reversed $62 $-1 #
face $-1 $160 $161 $24 $-1 $162 reversed single #
loop $-1 $-1 $163 $64 #
plane-surface $-1 0 0 -10.208065658111328 0 0 1 1 0 0 forward_v I I I I #
coedge $-1 $164 $165 $166 $167 forward $65 $-1 #
coedge $-1 $168 $67 $169 $170 reversed $41 $-1 #
coedge $-1 $67 $168 $171 $172 forward $41 $-1 #
coedge $-1 $173 $163 $67 $107 forward $101 $-1 #
edge $-1 $174 -74.883877071443834 $175 74.883877071443834 $67 $176 forward 7 unknown #
face $-1 $177 $178 $25 $-1 $179 reversed single #
loop $-1 $-1 $180 $68 #
plane-surface $-1 -69.948327946316056 -50.076273954262156 0 0 1 0 0 0 1 forward_v I I I I #
coedge $-1 $181 $182 $113 $183 forward $69 $-1 #
coedge $-1 $184 $71 $185 $186 reversed $44 $-1 #
coedge $-1 $71 $184 $111 $183 reversed $44 $-1 #
coedge $-1 $187 $188 $71 $115 reversed $178 $-1 #
edge $-1 $189 -10.208065658111328 $190 10.208065658111328 $114 $191 forward 7 unknown #
face $-1 $192 $193 $26 $-1 $194 forward single #
loop $-1 $-1 $195 $72 #
plane-surface $-1 0 36.769818773561461 0 0 -1 0 0 0 -1 forward_v I I I I #
coedge $-1 $196 $197 $198 $199 reversed $73 $-1 #
coedge $-1 $121 $75 $200 $201 reversed $47 $-1 #
coedge $-1 $75 $120 $196 $202 reversed $47 $-1 #
coedge $-1 $198 $203 $75 $123 forward $204 $-1 #
edge $-1 $205 97.853816814984611 $206 103.7417066419351 $122 $207 forward 7 unknown #
loop $-1 $-1 $129 $76 #
plane-surface $-1 -31.017916257340644 31.902285729731766 110.22197161740741 0.70710678939079041 0 0.70710677298230451 0.70710677298230451 0 -0.70710678939079041 forward_v I I I I #
loop $-1 $-1 $208 $49 #
coedge $-1 $127 $127 $128 $209 reversed $77 $-1 #
coedge $-1 $128 $128 $127 $209 forward $79 $-1 #
coedge $-1 $129 $129 $80 $130 forward $124 $-1 #
edge $-1 $210 0 $210 6.2831853071796004 $129 $211 forward 7 unknown #
face $-1 $212 $213 $28 $-1 $214 reversed single #
loop $-1 $-1 $215 $81 #
plane-surface $-1 0 36.769818773561461 0 0 -1 0 0 0 -1 forward_v I I I I #
coedge $-1 $216 $217 $218 $219 reversed $82 $-1 #
coedge $-1 $136 $84 $220 $221 reversed $53 $-1 #
coedge $-1 $84 $135 $216 $222 reversed $53 $-1 #
coedge $-1 $218 $223 $84 $138 forward $224 $-1 #
edge $-1 $225 1.1261098660020252 $226 14.194907582050092 $137 $227 forward 7 unknown #
loop $-1 $-1 $144 $85 #
plane-surface $-1 -74.883877071443848 29.442370429498403 2.3555396303309806 -0.51503808176128008 0 0.85716729658548041 0.85716729658548041 0 0.51503808176128008 forward_v I I I I #
loop $-1 $-1 $228 $55 #
coedge $-1 $142 $142 $143 $229 reversed $86 $-1 #
coedge $-1 $143 $143 $142 $229 forward $88 $-1 #
coedge $-1 $144 $144 $89 $145 forward $139 $-1 #
edge $-1 $230 0 $230 6.2831853071796004 $144 $231 forward 7 unknown #
loop $-1 $-1 $151 $90 #
plane-surface $-1 -74.883877071443848 29.442370429498403 2.3555396303309806 -0.51503808176128008 0 0.85716729658548041 0.85716729658548041 0 0.51503808176128008 forward_v I I I I #
loop $-1 $-1 $232 $58 #
coedge $-1 $149 $149 $150 $233 reversed $91 $-1 #
coedge $-1 $150 $150 $149 $233 forward $93 $-1 #
coedge $-1 $151 $151 $94 $152 forward $146 $-1 #
edge $-1 $234 0 $234 6.2831853071796004 $151 $235 forward 7 unknown #
loop $-1 $-1 $158 $95 #
plane-surface $-1 -74.883877071443848 29.442370429498403 2.3555396303309806 -0.51503808176128008 0 0.85716729658548041 0.85716729658548041 0 0.51503808176128008 forward_v I I I I #
loop $-1 $-1 $236 $61 #
coedge $-1 $156 $156 $157 $237 reversed $96 $-1 #
coedge $-1 $157 $157 $156 $237 forward $98 $-1 #
coedge $-1 $158 $158 $99 $159 forward $153 $-1 #
edge $-1 $238 0 $238 6.2831853071796004 $158 $239 forward 7 unknown #
face $-1 $240 $241 $24 $-1 $242 reversed single #
loop $-1 $-1 $243 $100 #
plane-surface $-1 -74.883877071443834 0 0 1 0 0 0 0 -1 forward_v I I I I #
coedge $-1 $106 $244 $245 $246 forward $101 $-1 #
coedge $-1 $247 $103 $248 $249 forward $65 $-1 #
coedge $-1 $103 $247 $168 $250 forward $65 $-1 #
coedge $-1 $169 $251 $103 $167 reversed $252 $-1 #
edge $-1 $253 -36.769818773561461 $254 36.769818773561461 $166 $255 forward 7 unknown #
coedge $-1 $105 $104 $165 $250 reversed $41 $-1 #
coedge $-1 $245 $166 $104 $170 forward $252 $-1 #
edge $-1 $253 -10.208065658111328 $174 10.208065658111328 $169 $256 forward 7 unknown #
coedge $-1 $257 $258 $105 $172 reversed $161 $-1 #
edge $-1 $259 -10.208065658111328 $175 10.208065658111328 $171 $260 forward 7 unknown #
coedge $-1 $244 $106 $258 $261 forward $101 $-1 #
vertex $-1 $170 $262 #
vertex $-1 $261 $263 #
straight-curve $-1 0 -36.769818773561461 -10.208065658111328 -1 0 0 I I #
face $-1 $264 $265 $25 $-1 $266 reversed single #
loop $-1 $-1 $114 $108 #
plane-surface $-1 -71.602422755475942 -43.423046363911808 0 1 0 0 0 0 -1 forward_v I I I I #
coedge $-1 $267 $268 $269 $270 forward $109 $-1 #
coedge $-1 $271 $111 $272 $273 forward $69 $-1 #
coedge $-1 $111 $271 $187 $274 forward $69 $-1 #
edge $-1 $189 -71.602422755475942 $275 -68.294233137156169 $111 $276 forward 7 unknown #
coedge $-1 $113 $112 $277 $278 forward $44 $-1 #
coedge $-1 $279 $280 $112 $186 forward $281 $-1 #
edge $-1 $282 68.294233137156169 $190 71.602422755475942 $185 $283 forward 7 unknown #
coedge $-1 $269 $114 $182 $274 reversed $178 $-1 #
coedge $-1 $114 $269 $279 $284 reversed $178 $-1 #
vertex $-1 $183 $285 #
vertex $-1 $284 $286 #
straight-curve $-1 -71.602422755475942 -36.769818773561461 0 0 0 1 I I #
face $-1 $-1 $204 $26 $-1 $287 reversed single #
loop $-1 $-1 $288 $116 #
plane-surface $-1 0 0 10.208065658111328 0 0 1 1 0 0 forward_v I I I I #
coedge $-1 $289 $290 $197 $291 forward $117 $-1 #
coedge $-1 $292 $119 $121 $202 forward $73 $-1 #
coedge $-1 $119 $292 $195 $291 reversed $73 $-1 #
coedge $-1 $293 $122 $119 $199 forward $204 $-1 #
edge $-1 $206 11.083609821036184 $294 20.818675908695578 $198 $295 forward 7 unknown #
coedge $-1 $296 $288 $120 $201 forward $193 $-1 #
edge $-1 $297 31.554047616669493 $205 37.44193730699088 $200 $298 forward 7 unknown #
edge $-1 $206 -149.76775414288775 $297 -141.44102059246714 $121 $299 forward 7 unknown #
coedge $-1 $122 $293 $296 $300 reversed $204 $-1 #
loop $-1 $-1 $198 $192 #
vertex $-1 $300 $301 #
vertex $-1 $123 $302 #
straight-curve $-1 74.883877071443834 27.034752685902067 108.06188247309593 0 0 -1 I I #
coedge $-1 $208 $208 $-1 $303 reversed $126 $-1 #
edge $-1 $304 0 $304 6.2831853071796004 $127 $305 forward 7 unknown #
vertex $-1 $130 $306 #
ellipse-curve $-1 71.939932226283133 31.902285729731766 7.2641207446361005 0.70710678939079041 0 0.70710677298230451 0.70710677298230451 0 -0.70710678939079041 1 I I #
face $-1 $-1 $224 $28 $-1 $307 forward single #
loop $-1 $-1 $308 $131 #
plane-surface $-1 -74.883877071443834 0 0 1 0 0 0 0 -1 forward_v I I I I #
coedge $-1 $309 $310 $217 $311 forward $132 $-1 #
coedge $-1 $312 $134 $136 $222 forward $82 $-1 #
coedge $-1 $134 $312 $215 $311 reversed $82 $-1 #
coedge $-1 $313 $137 $134 $219 forward $224 $-1 #
edge $-1 $226 7.3937368706861513 $314 22.048633558812252 $218 $315 forward 7 unknown #
coedge $-1 $316 $308 $135 $221 forward $213 $-1 #
edge $-1 $317 -63.010240652003453 $225 -55.157714624223111 $220 $318 forward 7 unknown #
edge $-1 $226 -15.24649595021595 $317 -1.6526814159067847e-014 $136 $319 forward 7 unknown #
coedge $-1 $137 $313 $316 $320 forward $224 $-1 #
loop $-1 $-1 $218 $212 #
vertex $-1 $221 $321 #
vertex $-1 $138 $322 #
straight-curve $-1 -76.009986937445859 22.114922085435353 10.20806565811133 1 0 0 I I #
coedge $-1 $228 $228 $-1 $323 reversed $141 $-1 #
edge $-1 $324 0 $324 6.2831853071796004 $142 $325 forward 7 unknown #
vertex $-1 $145 $326 #
ellipse-curve $-1 -68.349478213419815 25.045901423060577 6.281802644221151 -0.51503808176128008 0 0.85716729658548041 0.85716729658548041 0 0.51503808176128008 1 I I #
coedge $-1 $232 $232 $-1 $327 reversed $148 $-1 #
edge $-1 $328 0 $328 6.2831853071796004 $149 $329 forward 7 unknown #
vertex $-1 $152 $330 #
ellipse-curve $-1 -68.349478213419815 29.442370429498403 6.281802644221151 -0.51503808176128008 0 0.85716729658548041 0.85716729658548041 0 0.51503808176128008 1 I I #
coedge $-1 $236 $236 $-1 $331 reversed $155 $-1 #
edge $-1 $332 0 $332 6.2831853071796004 $156 $333 forward 7 unknown #
vertex $-1 $159 $334 #
ellipse-curve $-1 -68.349478213419815 33.838839435936229 6.281802644221151 -0.51503808176128008 0 0.85716729658548041 0.85716729658548041 0 0.51503808176128008 1 I I #
face $-1 $-1 $252 $24 $-1 $335 reversed single #
loop $-1 $-1 $336 $160 #
plane-surface $-1 0 36.769818773561461 0 0 -1 0 0 0 -1 forward_v I I I I #
coedge $-1 $258 $257 $337 $338 forward $161 $-1 #
coedge $-1 $163 $173 $339 $340 forward $101 $-1 #
coedge $-1 $251 $169 $163 $246 reversed $252 $-1 #
edge $-1 $341 -36.769818773561461 $174 36.769818773561461 $245 $342 forward 7 unknown #
coedge $-1 $165 $164 $257 $343 forward $65 $-1 #
coedge $-1 $336 $337 $164 $249 reversed $241 $-1 #
edge $-1 $254 -74.883877071443834 $344 74.883877071443834 $248 $345 forward 7 unknown #
edge $-1 $259 -74.883877071443834 $253 74.883877071443834 $168 $346 forward 7 unknown #
coedge $-1 $166 $245 $336 $347 reversed $252 $-1 #
loop $-1 $-1 $169 $240 #
vertex $-1 $167 $348 #
vertex $-1 $167 $349 #
straight-curve $-1 74.883877071443834 0 10.208065658111328 0 1 0 I I #
straight-curve $-1 74.883877071443834 -36.769818773561461 0 0 0 -1 I I #
coedge $-1 $243 $171 $247 $343 reversed $161 $-1 #
coedge $-1 $171 $243 $173 $261 reversed $161 $-1 #
vertex $-1 $343 $350 #
straight-curve $-1 -74.883877071443834 -36.769818773561461 0 0 0 -1 I I #
edge $-1 $175 -36.769818773561461 $351 36.769818773561461 $258 $352 forward 7 unknown #
point $-1 74.883877071443834 -36.769818773561461 -10.208065658111328 #
point $-1 -74.883877071443834 -36.769818773561461 -10.208065658111328 #
face $-1 $-1 $281 $25 $-1 $353 forward single #
loop $-1 $-1 $354 $177 #
plane-surface $-1 -68.294233137156169 -43.423046363911808 0 -1 0 0 0 0 1 forward_v I I I I #
coedge $-1 $355 $180 $271 $356 reversed $109 $-1 #
coedge $-1 $180 $355 $357 $358 reversed $109 $-1 #
coedge $-1 $188 $187 $180 $270 reversed $178 $-1 #
edge $-1 $359 -10.208065658111328 $360 10.208065658111328 $269 $361 forward 7 unknown #
coedge $-1 $182 $181 $267 $356 forward $69 $-1 #
coedge $-1 $277 $354 $181 $273 reversed $265 $-1 #
edge $-1 $275 -6.6532275903503475 $362 6.6532275903503475 $272 $363 forward 7 unknown #
edge $-1 $360 -6.6532275903503475 $189 6.6532275903503475 $187 $364 forward 7 unknown #
vertex $-1 $273 $365 #
straight-curve $-1 0 -36.769818773561461 -10.208065658111328 1 0 0 I I #
coedge $-1 $366 $272 $184 $278 reversed $265 $-1 #
edge $-1 $282 -10.208065658111328 $275 10.208065658111328 $277 $367 forward 7 unknown #
coedge $-1 $357 $185 $188 $284 forward $281 $-1 #
coedge $-1 $185 $357 $366 $368 forward $281 $-1 #
loop $-1 $-1 $185 $264 #
vertex $-1 $186 $369 #
straight-curve $-1 0 -36.769818773561461 10.208065658111328 -1 0 0 I I #
edge $-1 $190 -6.6532275903503475 $359 6.6532275903503475 $188 $370 forward 7 unknown #
point $-1 -71.602422755475942 -36.769818773561461 -10.208065658111328 #
point $-1 -71.602422755475942 -36.769818773561461 10.208065658111328 #
plane-surface $-1 74.883877071443834 0 0 -1 0 0 0 0 1 forward_v I I I I #
coedge $-1 $200 $371 $292 $372 forward $193 $-1 #
coedge $-1 $290 $195 $371 $373 reversed $117 $-1 #
coedge $-1 $195 $289 $293 $374 forward $117 $-1 #
edge $-1 $294 -99.831912572852062 $375 -91.505179022431463 $195 $376 forward 7 unknown #
coedge $-1 $197 $196 $288 $372 reversed $73 $-1 #
coedge $-1 $203 $198 $290 $374 reversed $204 $-1 #
vertex $-1 $199 $377 #
straight-curve $-1 74.88387707144382 15.951142864865883 4.32017583116086 0 1 0 I I #
coedge $-1 $371 $200 $203 $300 forward $193 $-1 #
vertex $-1 $201 $378 #
straight-curve $-1 37.441939764452954 27.034752685902067 10.208065658111323 1 0 0 I I #
straight-curve $-1 -31.017916257340644 27.034752685902067 110.22197161740741 -0.70710677298230451 0 0.70710678939079041 I I #
edge $-1 $205 27.034752685902067 $379 36.769818773561461 $203 $380 forward 7 unknown #
point $-1 74.883877071443834 27.034752685902067 10.208065658111328 #
point $-1 74.883877071443834 27.034752685902067 4.3201758311608387 #
edge $-1 $381 1 $381 0 $208 $-1 forward 7 unknown #
vertex $-1 $209 $382 #
ellipse-curve $-1 70.721124146263534 31.902285729731766 6.0453126928990786 0.70710678939079041 0 0.70710677298230451 0.70710677298230451 0 -0.70710678939079041 1 I I #
point $-1 72.647038999265448 31.902285729731766 6.5570139552453277 #
plane-surface $-1 0 0 10.208065658111328 0 0 1 1 0 0 forward_v I I I I #
coedge $-1 $220 $383 $312 $384 forward $213 $-1 #
coedge $-1 $310 $215 $383 $385 reversed $132 $-1 #
coedge $-1 $215 $309 $313 $386 reversed $132 $-1 #
edge $-1 $314 16.240912977009362 $387 31.487408927225292 $215 $388 forward 7 unknown #
coedge $-1 $217 $216 $308 $384 reversed $82 $-1 #
coedge $-1 $223 $218 $310 $386 forward $224 $-1 #
vertex $-1 $386 $389 #
straight-curve $-1 -61.815079355395767 14.721185214749202 10.208065658111328 0 1 0 I I #
coedge $-1 $383 $220 $223 $320 reversed $213 $-1 #
vertex $-1 $221 $390 #
straight-curve $-1 -74.883877071443834 22.114922085435353 65.365780282334441 0 0 1 I I #
straight-curve $-1 -74.883877071443848 22.114922085435353 2.3555396303309806 -0.85716729658548041 0 -0.51503808176128008 I I #
edge $-1 $391 -36.769818773561461 $225 -22.114922085435353 $316 $392 forward 7 unknown #
point $-1 -74.883877071443834 22.114922085435353 10.208065658111328 #
point $-1 -61.815079355395767 22.114922085435353 10.208065658111328 #
edge $-1 $393 1 $393 0 $228 $-1 forward 7 unknown #
vertex $-1 $229 $394 #
ellipse-curve $-1 -66.410607475744186 25.045901423060577 3.054979914999322 -0.51503808176128008 0 0.85716729658548041 0.85716729658548041 0 0.51503808176128008 1 I I #
point $-1 -67.492310916834342 25.045901423060577 6.7968407259824462 #
edge $-1 $395 1 $395 0 $232 $-1 forward 7 unknown #
vertex $-1 $233 $396 #
ellipse-curve $-1 -66.410607475744186 29.442370429498403 3.054979914999322 -0.51503808176128008 0 0.85716729658548041 0.85716729658548041 0 0.51503808176128008 1 I I #
point $-1 -67.492310916834342 29.442370429498403 6.7968407259824462 #
edge $-1 $397 1 $397 0 $236 $-1 forward 7 unknown #
vertex $-1 $237 $398 #
ellipse-curve $-1 -66.410607475744186 33.838839435936229 3.054979914999322 -0.51503808176128008 0 0.85716729658548041 0.85716729658548041 0 0.51503808176128008 1 I I #
point $-1 -67.492310916834342 33.838839435936229 6.7968407259824462 #
plane-surface $-1 74.883877071443834 0 0 -1 0 0 0 0 1 forward_v I I I I #
coedge $-1 $339 $248 $251 $347 forward $241 $-1 #
coedge $-1 $248 $339 $243 $338 reversed $241 $-1 #
edge $-1 $344 -10.208065658111328 $351 10.208065658111328 $337 $399 forward 7 unknown #
coedge $-1 $337 $336 $244 $340 reversed $241 $-1 #
edge $-1 $351 -74.883877071443834 $341 74.883877071443834 $339 $400 forward 7 unknown #
vertex $-1 $246 $401 #
straight-curve $-1 74.883877071443834 0 -10.208065658111328 0 -1 0 I I #
edge $-1 $344 -36.769818773561461 $259 36.769818773561461 $257 $402 forward 7 unknown #
vertex $-1 $249 $403 #
straight-curve $-1 0 36.769818773561461 10.208065658111328 -1 0 0 I I #
straight-curve $-1 0 -36.769818773561461 10.208065658111328 1 0 0 I I #
edge $-1 $254 -10.208065658111328 $341 10.208065658111328 $251 $404 forward 7 unknown #
point $-1 74.883877071443834 -36.769818773561461 10.208065658111328 #
point $-1 74.883877071443834 36.769818773561461 10.208065658111328 #
point $-1 -74.883877071443834 -36.769818773561461 10.208065658111328 #
vertex $-1 $340 $405 #
straight-curve $-1 -74.883877071443834 0 -10.208065658111328 0 1 0 I I #
plane-surface $-1 0 0 10.208065658111328 0 0 1 1 0 0 forward_v I I I I #
coedge $-1 $272 $366 $355 $406 forward $265 $-1 #
coedge $-1 $268 $267 $354 $406 reversed $109 $-1 #
edge $-1 $362 -1.6540948091598864 $360 1.6540948091598864 $267 $407 forward 7 unknown #
coedge $-1 $280 $279 $268 $358 forward $281 $-1 #
edge $-1 $359 -1.6540948091598864 $408 1.6540948091598864 $268 $409 forward 7 unknown #
vertex $-1 $284 $410 #
vertex $-1 $274 $411 #
straight-curve $-1 -71.602422755475942 -50.076273954262156 0 0 0 -1 I I #
vertex $-1 $406 $412 #
straight-curve $-1 -68.294233137156169 -43.423046363911808 -10.208065658111328 0 -1 0 I I #
straight-curve $-1 -71.602422755475942 -43.423046363911808 -10.208065658111328 0 1 0 I I #
point $-1 -68.294233137156169 -36.769818773561461 -10.208065658111328 #
coedge $-1 $354 $277 $280 $368 reversed $265 $-1 #
straight-curve $-1 -68.294233137156169 -36.769818773561461 0 0 0 -1 I I #
edge $-1 $408 -6.6532275903503475 $282 6.6532275903503475 $366 $413 forward 7 unknown #
point $-1 -68.294233137156169 -36.769818773561461 10.208065658111328 #
straight-curve $-1 -71.602422755475942 -43.423046363911808 10.208065658111328 0 -1 0 I I #
coedge $-1 $288 $296 $289 $373 forward $193 $-1 #
edge $-1 $375 -20.818675908695585 $297 -11.083609821036184 $288 $414 forward 7 unknown #
edge $-1 $379 -74.883877071443834 $375 -68.995987381122447 $289 $415 forward 7 unknown #
edge $-1 $379 -10.208065658111328 $294 -4.3201758311608529 $293 $416 forward 7 unknown #
vertex $-1 $372 $417 #
straight-curve $-1 4.2920555314028732 36.769818773561461 74.911999009292344 -0.70710677298230462 0 0.70710678939079052 I I #
point $-1 74.883877071443834 36.769818773561461 4.3201758311608529 #
point $-1 68.995987381122447 27.034752685902067 10.208065658111323 #
vertex $-1 $300 $418 #
straight-curve $-1 74.883877071443834 0 10.208065658111328 0 1 0 I I #
vertex $-1 $303 $419 #
point $-1 71.428230919245834 31.902285729731766 5.3382059035082881 #
coedge $-1 $308 $316 $309 $385 forward $213 $-1 #
edge $-1 $387 -22.048633558812252 $317 -7.3937368706861513 $308 $420 forward 7 unknown #
edge $-1 $391 -10.208065658111328 $387 -2.355539630330989 $309 $421 forward 7 unknown #
edge $-1 $314 61.815079355395767 $391 74.883877071443834 $310 $422 forward 7 unknown #
vertex $-1 $384 $423 #
straight-curve $-1 -47.893899884812605 36.769818773561461 18.572754323842108 -0.85716729658548041 0 -0.51503808176128008 I I #
point $-1 -61.815079355395767 36.769818773561454 10.208065658111328 #
point $-1 -74.883877071443834 22.114922085435353 2.355539630330989 #
vertex $-1 $386 $424 #
straight-curve $-1 -74.883877071443834 0 10.208065658111328 0 -1 0 I I #
vertex $-1 $323 $425 #
point $-1 -65.553440179158713 25.045901423060577 3.5700179967606021 #
vertex $-1 $327 $426 #
point $-1 -65.553440179158713 29.442370429498403 3.5700179967606021 #
vertex $-1 $331 $427 #
point $-1 -65.553440179158713 33.838839435936229 3.5700179967606021 #
straight-curve $-1 -74.883877071443834 36.769818773561461 0 0 0 -1 I I #
straight-curve $-1 0 36.769818773561461 -10.208065658111328 1 0 0 I I #
point $-1 74.883877071443834 36.769818773561461 -10.208065658111328 #
straight-curve $-1 -74.883877071443834 0 10.208065658111328 0 -1 0 I I #
point $-1 -74.883877071443834 36.769818773561461 10.208065658111328 #
straight-curve $-1 74.883877071443834 36.769818773561461 0 0 0 -1 I I #
point $-1 -74.883877071443834 36.769818773561461 -10.208065658111328 #
edge $-1 $408 -10.208065658111328 $362 10.208065658111328 $354 $428 forward 7 unknown #
straight-curve $-1 -69.948327946316056 -50.076273954262156 -10.208065658111328 -1 0 0 I I #
vertex $-1 $368 $429 #
straight-curve $-1 -69.948327946316056 -50.076273954262156 10.208065658111328 1 0 0 I I #
point $-1 -71.602422755475942 -50.076273954262156 10.208065658111328 #
point $-1 -71.602422755475942 -50.076273954262156 -10.208065658111328 #
point $-1 -68.294233137156169 -50.076273954262156 -10.208065658111328 #
straight-curve $-1 -68.294233137156169 -43.423046363911808 10.208065658111328 0 1 0 I I #
straight-curve $-1 68.995987381122461 15.951142864865883 10.208065658111323 0 -1 0 I I #
straight-curve $-1 0 36.769818773561461 10.208065658111328 -1 0 0 I I #
straight-curve $-1 74.883877071443834 36.769818773561461 0 0 0 -1 I I #
point $-1 68.995987381122447 36.769818773561468 10.208065658111323 #
point $-1 74.883877071443834 36.769818773561461 10.208065658111328 #
point $-1 70.014017356872742 31.902285729731766 5.3382059199167733 #
straight-curve $-1 -74.883877071443834 14.721185214749202 2.3555396303309828 0 -1 0 I I #
straight-curve $-1 -74.883877071443834 36.769818773561461 0 0 0 -1 I I #
straight-curve $-1 0 36.769818773561461 10.208065658111328 -1 0 0 I I #
point $-1 -74.883877071443834 36.769818773561454 2.355539630330989 #
point $-1 -74.883877071443834 36.769818773561461 10.208065658111328 #
point $-1 -65.89556939398291 25.045901423060577 2.1978126184138418 #
point $-1 -65.89556939398291 29.442370429498403 2.1978126184138418 #
point $-1 -65.89556939398291 33.838839435936229 2.1978126184138418 #
straight-curve $-1 -68.294233137156169 -50.076273954262156 0 0 0 -1 I I #
point $-1 -68.294233137156169 -50.076273954262156 10.208065658111328 #
End-of-ACIS-data 