500 0 6 0           
7 Unknown 11 ACIS 5.0 NT 24 Fri Mar 26 20:02:06 1999 
-1 9.9999999999999995e-007 1e-010 
body $-1 $6 $-1 $7 #
body $-1 $8 $-1 $9 #
body $-1 $10 $-1 $11 #
body $-1 $12 $-1 $13 #
body $-1 $14 $-1 $15 #
body $-1 $16 $-1 $17 #
lump $-1 $-1 $18 $0 #
transform $-1 1 0 0 0 1 0 0 0 1 61.898861659596548 38.605039422641099 18.201874921482258 1 rotate no_reflect no_shear #
lump $-1 $-1 $19 $1 #
transform $-1 1 0 0 0 1 0 0 0 1 61.898861659596548 38.605039422641099 18.201874921482258 1 rotate no_reflect no_shear #
lump $-1 $-1 $20 $2 #
transform $-1 1 0 0 0 1 0 0 0 1 61.898861659596548 38.605039422641099 18.201874921482258 1 rotate no_reflect no_shear #
lump $-1 $-1 $21 $3 #
transform $-1 1 0 0 0 1 0 0 0 1 61.898861659596548 38.605039422641099 18.201874921482258 1 rotate no_reflect no_shear #
lump $-1 $-1 $22 $4 #
transform $-1 1 0 0 0 1 0 0 0 1 61.898861659596548 38.605039422641099 18.201874921482258 1 rotate no_reflect no_shear #
lump $-1 $-1 $23 $5 #
transform $-1 1 0 0 0 1 0 0 0 1 61.898861659596548 38.605039422641099 18.201874921482258 1 rotate no_reflect no_shear #
shell $-1 $-1 $-1 $24 $-1 $6 #
shell $-1 $-1 $-1 $25 $-1 $8 #
shell $-1 $-1 $-1 $26 $-1 $10 #
shell $-1 $-1 $-1 $27 $-1 $12 #
shell $-1 $-1 $-1 $28 $-1 $14 #
shell $-1 $-1 $-1 $29 $-1 $16 #
face $-1 $30 $31 $18 $-1 $32 forward single #
face $-1 $33 $34 $19 $-1 $35 forward single #
face $-1 $36 $37 $20 $-1 $38 reversed single #
face $-1 $39 $40 $21 $-1 $41 forward single #
face $-1 $42 $43 $22 $-1 $44 reversed single #
face $-1 $45 $46 $23 $-1 $47 forward single #
face $-1 $48 $49 $18 $-1 $50 reversed single #
loop $-1 $-1 $51 $24 #
plane-surface $-1 0 0 18.201874921482258 0 0 1 1 0 0 forward_v I I I I #
face $-1 $52 $53 $19 $-1 $54 reversed single #
loop $-1 $-1 $55 $25 #
plane-surface $-1 0 -27.34008584639896 9.8529603092140956 0 0 1 1 0 0 forward_v I I I I #
face $-1 $56 $57 $20 $-1 $58 reversed single #
loop $-1 $-1 $59 $26 #
plane-surface $-1 22.515237952788652 -12.791981330357729 183.4672290045238 0 1 0 0.52991927123019833 0 0.84804809178421925 forward_v I I I I #
face $-1 $60 $61 $21 $-1 $62 forward single #
loop $-1 $63 $64 $27 #
cone-surface $-1 55.644988055103319 -7.7047889542847869 12.349052112652398 -0.52991927123019833 0 -0.84804809178421925 2.1201202294605483 0 -1.3247981780754958 1 I I 0 1 2.5 forward I I I I #
face $-1 $65 $66 $22 $-1 $67 reversed single #
loop $-1 $-1 $68 $28 #
plane-surface $-1 -127.5016609808611 -12.791981330357729 117.86442968325925 0 1 0 -0.52991927123019833 0 0.84804809178421925 forward_v I I I I #
face $-1 $69 $70 $23 $-1 $71 forward single #
loop $-1 $72 $73 $29 #
cone-surface $-1 -55.644988055103333 -7.7047889542847869 12.34905211265238 0.52991927123019833 0 -0.84804809178421925 2.1201202294605483 0 1.3247981780754958 1 I I 0 1 2.5 forward I I I I #
face $-1 $74 $75 $18 $-1 $76 reversed single #
loop $-1 $-1 $77 $30 #
plane-surface $-1 0 0 -18.201874921482258 0 0 1 1 0 0 forward_v I I I I #
coedge $-1 $78 $79 $80 $81 forward $31 $-1 #
face $-1 $82 $83 $19 $-1 $84 reversed single #
loop $-1 $-1 $85 $33 #
plane-surface $-1 0 -27.34008584639896 5.3709006763068476 0 0 1 1 0 0 forward_v I I I I #
coedge $-1 $86 $87 $88 $89 reversed $34 $-1 #
face $-1 $90 $91 $20 $-1 $92 reversed single #
loop $-1 $-1 $93 $36 #
plane-surface $-1 -43.087561368475889 -7.7047889542847869 78.480805976451336 0.52991927123019833 0 0.84804809178421925 0.84804809178421925 0 -0.52991927123019833 forward_v I I I I #
coedge $-1 $94 $95 $96 $97 reversed $37 $-1 #
face $-1 $-1 $98 $21 $-1 $99 forward single #
loop $-1 $100 $101 $39 #
cone-surface $-1 52.988700390670473 -7.7047889542847869 8.098103322239993 -0.52991927123019833 0 -0.84804809178421925 1.0600601147302742 0 -0.66239908903774791 1 I I -0.70710678118654746 0.70710678118654746 1.25 forward I I I I #
loop $-1 $-1 $102 $27 #
coedge $-1 $64 $64 $103 $104 reversed $40 $-1 #
face $-1 $105 $106 $22 $-1 $107 reversed single #
loop $-1 $-1 $108 $42 #
plane-surface $-1 -61.898861659596562 -7.7047889542847869 12.87800665518678 -0.52991927123019833 0 0.84804809178421925 0.84804809178421925 0 0.52991927123019833 forward_v I I I I #
coedge $-1 $109 $110 $111 $112 reversed $43 $-1 #
face $-1 $-1 $113 $23 $-1 $114 forward single #
loop $-1 $115 $116 $45 #
cone-surface $-1 -52.988700390670488 -7.7047889542847869 8.0981033222399752 0.52991927123019833 0 -0.84804809178421925 1.0600601147302742 0 0.66239908903774791 1 I I -0.70710678118654746 0.70710678118654746 1.25 forward I I I I #
loop $-1 $-1 $117 $29 #
coedge $-1 $73 $73 $118 $119 reversed $46 $-1 #
face $-1 $120 $121 $18 $-1 $122 reversed single #
loop $-1 $-1 $123 $48 #
plane-surface $-1 0 -38.605039422641099 0 0 1 0 0 0 1 forward_v I I I I #
coedge $-1 $124 $125 $126 $127 forward $49 $-1 #
coedge $-1 $128 $51 $129 $130 forward $31 $-1 #
coedge $-1 $51 $128 $131 $132 forward $31 $-1 #
coedge $-1 $133 $134 $51 $81 reversed $135 $-1 #
edge $-1 $136 -38.605039422641099 $137 38.605039422641099 $80 $138 forward 7 unknown #
face $-1 $139 $140 $19 $-1 $141 reversed single #
loop $-1 $-1 $142 $52 #
plane-surface $-1 0 -16.075132270156821 7.6119304927604716 0 -1 0 0 0 -1 forward_v I I I I #
coedge $-1 $143 $144 $145 $146 reversed $53 $-1 #
coedge $-1 $147 $55 $148 $149 forward $34 $-1 #
coedge $-1 $55 $147 $150 $151 reversed $34 $-1 #
coedge $-1 $152 $153 $55 $89 forward $154 $-1 #
edge $-1 $155 2.4050893469573413 $156 24.934996499441617 $88 $157 forward 7 unknown #
face $-1 $158 $159 $20 $-1 $160 forward single #
loop $-1 $-1 $161 $56 #
plane-surface $-1 22.515237952788652 -2.6175965782118453 183.4672290045238 0 -1 0 -0.52991927123019833 0 -0.84804809178421925 forward_v I I I I #
coedge $-1 $162 $163 $164 $165 reversed $57 $-1 #
coedge $-1 $95 $59 $166 $167 reversed $37 $-1 #
coedge $-1 $59 $94 $162 $168 reversed $37 $-1 #
coedge $-1 $164 $169 $59 $97 forward $170 $-1 #
edge $-1 $171 73.531739580779643 $172 78.855607847075092 $96 $173 forward 7 unknown #
loop $-1 $-1 $103 $60 #
plane-surface $-1 -43.087561368475889 -7.7047889542847869 78.480805976451336 0.52991927123019833 0 0.84804809178421925 0.84804809178421925 0 -0.52991927123019833 forward_v I I I I #
loop $-1 $-1 $174 $39 #
coedge $-1 $101 $101 $102 $175 reversed $61 $-1 #
coedge $-1 $102 $102 $101 $175 forward $63 $-1 #
coedge $-1 $103 $103 $64 $104 forward $98 $-1 #
edge $-1 $176 0 $176 6.2831853071796004 $103 $177 forward 7 unknown #
face $-1 $178 $179 $22 $-1 $180 reversed single #
loop $-1 $-1 $181 $65 #
plane-surface $-1 -127.5016609808611 -2.6175965782118453 117.86442968325925 0 -1 0 0.52991927123019833 0 -0.84804809178421925 forward_v I I I I #
coedge $-1 $182 $183 $184 $185 reversed $66 $-1 #
coedge $-1 $110 $68 $186 $187 reversed $43 $-1 #
coedge $-1 $68 $109 $182 $188 reversed $43 $-1 #
coedge $-1 $184 $189 $68 $112 forward $190 $-1 #
edge $-1 $191 1.8519688308340037 $192 10.371938889030183 $111 $193 forward 7 unknown #
loop $-1 $-1 $118 $69 #
plane-surface $-1 -61.898861659596562 -7.7047889542847869 12.87800665518678 -0.52991927123019833 0 0.84804809178421925 0.84804809178421925 0 0.52991927123019833 forward_v I I I I #
loop $-1 $-1 $194 $45 #
coedge $-1 $116 $116 $117 $195 reversed $70 $-1 #
coedge $-1 $117 $117 $116 $195 forward $72 $-1 #
coedge $-1 $118 $118 $73 $119 forward $113 $-1 #
edge $-1 $196 0 $196 6.2831853071796004 $118 $197 forward 7 unknown #
face $-1 $198 $199 $18 $-1 $200 reversed single #
loop $-1 $-1 $201 $74 #
plane-surface $-1 -61.898861659596548 0 0 1 0 0 0 0 -1 forward_v I I I I #
coedge $-1 $202 $131 $203 $204 forward $75 $-1 #
coedge $-1 $205 $77 $202 $206 forward $49 $-1 #
coedge $-1 $77 $205 $207 $208 forward $49 $-1 #
coedge $-1 $134 $133 $77 $127 reversed $135 $-1 #
edge $-1 $209 -38.605039422641099 $210 38.605039422641099 $126 $211 forward 7 unknown #
coedge $-1 $79 $78 $212 $213 forward $31 $-1 #
coedge $-1 $214 $215 $78 $130 reversed $199 $-1 #
edge $-1 $137 -61.898861659596548 $216 61.898861659596548 $129 $217 forward 7 unknown #
coedge $-1 $123 $218 $79 $132 reversed $75 $-1 #
edge $-1 $219 -61.898861659596548 $136 61.898861659596548 $131 $220 forward 7 unknown #
coedge $-1 $126 $80 $218 $221 forward $135 $-1 #
coedge $-1 $80 $126 $214 $222 reversed $135 $-1 #
loop $-1 $-1 $133 $198 #
vertex $-1 $81 $223 #
vertex $-1 $81 $224 #
straight-curve $-1 61.898861659596548 0 18.201874921482258 0 1 0 I I #
face $-1 $225 $226 $19 $-1 $227 reversed single #
loop $-1 $-1 $228 $82 #
plane-surface $-1 -61.898861659596548 0 0 1 0 0 0 0 -1 forward_v I I I I #
coedge $-1 $229 $148 $153 $230 reversed $83 $-1 #
coedge $-1 $231 $85 $232 $233 reversed $53 $-1 #
coedge $-1 $85 $231 $229 $234 forward $53 $-1 #
coedge $-1 $153 $152 $85 $146 forward $154 $-1 #
edge $-1 $235 -24.934996499441617 $236 -2.4050893469573413 $145 $237 forward 7 unknown #
coedge $-1 $87 $86 $228 $238 reversed $34 $-1 #
coedge $-1 $142 $239 $86 $149 reversed $83 $-1 #
edge $-1 $155 -61.898861659596548 $240 61.898861659596548 $148 $241 forward 7 unknown #
coedge $-1 $242 $243 $87 $151 forward $226 $-1 #
edge $-1 $156 -61.898861659596548 $244 61.898861659596548 $150 $245 forward 7 unknown #
coedge $-1 $145 $88 $243 $246 forward $154 $-1 #
coedge $-1 $88 $145 $142 $230 forward $154 $-1 #
loop $-1 $-1 $88 $225 #
vertex $-1 $89 $247 #
vertex $-1 $246 $248 #
straight-curve $-1 61.898861659596548 -13.67004292319948 9.8529603092140956 0 -1 0 I I #
face $-1 $-1 $170 $20 $-1 $249 reversed single #
loop $-1 $-1 $250 $90 #
plane-surface $-1 0 0 18.201874921482258 0 0 1 1 0 0 forward_v I I I I #
coedge $-1 $251 $252 $253 $254 reversed $91 $-1 #
coedge $-1 $255 $93 $95 $168 forward $57 $-1 #
coedge $-1 $93 $255 $251 $256 forward $57 $-1 #
coedge $-1 $253 $96 $93 $165 forward $170 $-1 #
edge $-1 $172 -8.9395868532153351 $257 1.2347978989305481 $164 $258 forward 7 unknown #
coedge $-1 $259 $260 $94 $167 forward $159 $-1 #
edge $-1 $261 42.121272625006057 $171 50.641242683202222 $166 $262 forward 7 unknown #
edge $-1 $172 -123.79772331919308 $261 -113.75115857748028 $95 $263 forward 7 unknown #
coedge $-1 $96 $253 $259 $264 reversed $170 $-1 #
loop $-1 $-1 $253 $158 #
vertex $-1 $264 $265 #
vertex $-1 $97 $266 #
straight-curve $-1 61.898861659596548 -12.791981330357729 91.733614502261901 0 0 -1 I I #
coedge $-1 $174 $174 $-1 $267 reversed $100 $-1 #
edge $-1 $268 0 $268 6.2831853071796004 $101 $269 forward 7 unknown #
vertex $-1 $104 $270 #
ellipse-curve $-1 57.638876630498437 -7.7047889542847869 15.539940788334558 0.52991927123019833 0 0.84804809178421925 2.1201202294605483 0 -1.3247981780754958 1 I I #
face $-1 $-1 $190 $22 $-1 $271 forward single #
loop $-1 $-1 $272 $105 #
plane-surface $-1 -61.898861659596548 0 0 1 0 0 0 0 -1 forward_v I I I I #
coedge $-1 $273 $274 $275 $276 reversed $106 $-1 #
coedge $-1 $277 $108 $110 $188 forward $66 $-1 #
coedge $-1 $108 $277 $273 $278 forward $66 $-1 #
coedge $-1 $275 $111 $108 $185 forward $190 $-1 #
edge $-1 $192 -8.9395868532153351 $279 1.2347978989305481 $184 $280 forward 7 unknown #
coedge $-1 $281 $282 $109 $187 forward $179 $-1 #
edge $-1 $283 -46.054208186442835 $191 -40.730339920147365 $186 $284 forward 7 unknown #
edge $-1 $192 -10.046564741712844 $283 -1.675811683274863e-014 $110 $285 forward 7 unknown #
coedge $-1 $111 $275 $281 $286 forward $190 $-1 #
loop $-1 $-1 $275 $178 #
vertex $-1 $187 $287 #
vertex $-1 $112 $288 #
straight-curve $-1 -63.750830490430552 -12.791981330357729 18.201874921482258 1 0 0 I I #
coedge $-1 $194 $194 $-1 $289 reversed $115 $-1 #
edge $-1 $290 0 $290 6.2831853071796004 $116 $291 forward 7 unknown #
vertex $-1 $119 $292 #
ellipse-curve $-1 -57.638876630498444 -7.7047889542847869 15.539940788334532 -0.52991927123019833 0 0.84804809178421925 2.1201202294605483 0 1.3247981780754958 1 I I #
face $-1 $-1 $135 $18 $-1 $293 reversed single #
loop $-1 $-1 $214 $120 #
plane-surface $-1 0 38.605039422641099 0 0 -1 0 0 0 -1 forward_v I I I I #
coedge $-1 $294 $212 $215 $295 forward $121 $-1 #
coedge $-1 $218 $123 $124 $206 reversed $75 $-1 #
coedge $-1 $212 $294 $123 $204 reversed $121 $-1 #
edge $-1 $219 -18.201874921482258 $296 18.201874921482258 $203 $297 forward 7 unknown #
coedge $-1 $125 $124 $294 $298 forward $49 $-1 #
edge $-1 $210 -61.898861659596548 $296 61.898861659596548 $202 $299 forward 7 unknown #
coedge $-1 $215 $214 $125 $208 reversed $199 $-1 #
edge $-1 $300 -61.898861659596548 $209 61.898861659596548 $207 $301 forward 7 unknown #
vertex $-1 $127 $302 #
vertex $-1 $221 $303 #
straight-curve $-1 61.898861659596548 0 -18.201874921482258 0 -1 0 I I #
coedge $-1 $201 $203 $128 $213 reversed $121 $-1 #
edge $-1 $216 -38.605039422641099 $219 38.605039422641099 $212 $304 forward 7 unknown #
coedge $-1 $207 $129 $134 $222 forward $199 $-1 #
coedge $-1 $129 $207 $201 $295 reversed $199 $-1 #
vertex $-1 $130 $305 #
straight-curve $-1 0 38.605039422641099 18.201874921482258 -1 0 0 I I #
coedge $-1 $131 $202 $133 $221 reversed $75 $-1 #
vertex $-1 $213 $306 #
straight-curve $-1 0 -38.605039422641099 18.201874921482258 1 0 0 I I #
edge $-1 $136 -18.201874921482258 $210 18.201874921482258 $133 $307 forward 7 unknown #
edge $-1 $137 -18.201874921482258 $209 18.201874921482258 $134 $308 forward 7 unknown #
point $-1 61.898861659596548 -38.605039422641099 18.201874921482258 #
point $-1 61.898861659596548 38.605039422641099 18.201874921482258 #
face $-1 $-1 $154 $19 $-1 $309 reversed single #
loop $-1 $-1 $150 $139 #
plane-surface $-1 0 -38.605039422641099 0 0 1 0 0 0 1 forward_v I I I I #
coedge $-1 $310 $311 $147 $238 forward $140 $-1 #
coedge $-1 $239 $142 $144 $234 reversed $83 $-1 #
edge $-1 $236 1.5649354299266118 $155 6.0469950628338598 $153 $312 forward 7 unknown #
coedge $-1 $144 $143 $313 $314 reversed $53 $-1 #
coedge $-1 $243 $242 $143 $233 forward $226 $-1 #
edge $-1 $315 -61.898861659596548 $235 61.898861659596548 $232 $316 forward 7 unknown #
edge $-1 $317 -61.898861659596548 $236 61.898861659596548 $229 $318 forward 7 unknown #
vertex $-1 $233 $319 #
vertex $-1 $146 $320 #
straight-curve $-1 61.898861659596548 -13.67004292319948 5.3709006763068476 0 1 0 I I #
edge $-1 $244 -24.934996499441617 $240 -2.4050893469573413 $228 $321 forward 7 unknown #
coedge $-1 $148 $229 $310 $322 reversed $83 $-1 #
vertex $-1 $238 $323 #
straight-curve $-1 0 -16.075132270156821 9.8529603092140956 -1 0 0 I I #
coedge $-1 $232 $150 $311 $324 forward $226 $-1 #
coedge $-1 $150 $232 $152 $246 reversed $226 $-1 #
vertex $-1 $324 $325 #
straight-curve $-1 0 -38.605039422641099 9.8529603092140956 -1 0 0 I I #
edge $-1 $156 -9.8529603092140956 $235 -5.3709006763068476 $152 $326 forward 7 unknown #
point $-1 61.898861659596548 -16.075132270156821 9.8529603092140956 #
point $-1 61.898861659596548 -38.605039422641099 9.8529603092140956 #
plane-surface $-1 61.898861659596548 0 0 -1 0 0 0 0 1 forward_v I I I I #
coedge $-1 $260 $259 $252 $327 forward $159 $-1 #
coedge $-1 $252 $161 $163 $256 reversed $91 $-1 #
coedge $-1 $161 $251 $250 $327 reversed $91 $-1 #
coedge $-1 $169 $164 $161 $254 forward $170 $-1 #
edge $-1 $257 -78.855607847075092 $328 -73.531739580779643 $253 $329 forward 7 unknown #
coedge $-1 $163 $162 $260 $330 reversed $57 $-1 #
edge $-1 $331 113.75115857748028 $257 123.79772331919308 $251 $332 forward 7 unknown #
vertex $-1 $165 $333 #
straight-curve $-1 61.898861659596548 -3.8523944771423935 12.878006655186809 0 1 0 I I #
coedge $-1 $250 $166 $169 $264 forward $159 $-1 #
coedge $-1 $166 $250 $255 $330 forward $159 $-1 #
vertex $-1 $167 $334 #
straight-curve $-1 11.257618976394326 -12.791981330357729 18.201874921482258 1 0 0 I I #
straight-curve $-1 -43.087561368475889 -12.791981330357729 78.480805976451336 -0.84804809178421925 0 0.52991927123019833 I I #
edge $-1 $171 -12.791981330357729 $328 -2.6175965782118453 $169 $335 forward 7 unknown #
point $-1 61.898861659596548 -12.791981330357729 18.201874921482258 #
point $-1 61.898861659596548 -12.791981330357729 12.878006655186809 #
edge $-1 $336 1 $336 0 $174 $-1 forward 7 unknown #
vertex $-1 $175 $337 #
ellipse-curve $-1 53.651099479708222 -7.7047889542847869 9.1581634369702662 0.52991927123019833 0 0.84804809178421925 2.1201202294605483 0 -1.3247981780754958 1 I I #
point $-1 59.758996859958962 -7.7047889542847869 14.215142610259033 #
plane-surface $-1 0 0 18.201874921482258 0 0 1 1 0 0 forward_v I I I I #
coedge $-1 $282 $281 $274 $338 forward $179 $-1 #
coedge $-1 $274 $181 $183 $278 reversed $106 $-1 #
coedge $-1 $181 $273 $272 $338 reversed $106 $-1 #
coedge $-1 $189 $184 $181 $276 forward $190 $-1 #
edge $-1 $279 -10.371938889030183 $339 -1.8519688308340037 $275 $340 forward 7 unknown #
coedge $-1 $183 $182 $282 $341 reversed $66 $-1 #
edge $-1 $342 1.675811683274863e-014 $279 10.046564741712844 $273 $343 forward 7 unknown #
vertex $-1 $185 $344 #
straight-curve $-1 -53.378891601400369 -3.8523944771423935 18.201874921482258 0 1 0 I I #
coedge $-1 $272 $186 $189 $286 reversed $179 $-1 #
coedge $-1 $186 $272 $277 $341 forward $179 $-1 #
vertex $-1 $187 $345 #
straight-curve $-1 -61.898861659596548 -12.791981330357729 58.932214841629623 0 0 1 I I #
straight-curve $-1 -61.898861659596562 -12.791981330357729 12.87800665518678 -0.84804809178421925 0 -0.52991927123019833 I I #
edge $-1 $339 2.6175965782118453 $191 12.791981330357729 $281 $346 forward 7 unknown #
point $-1 -61.898861659596548 -12.791981330357729 18.201874921482258 #
point $-1 -53.378891601400369 -12.791981330357729 18.201874921482258 #
edge $-1 $347 1 $347 0 $194 $-1 forward 7 unknown #
vertex $-1 $195 $348 #
ellipse-curve $-1 -53.651099479708236 -7.7047889542847869 9.1581634369702485 -0.52991927123019833 0 0.84804809178421925 2.1201202294605483 0 1.3247981780754958 1 I I #
point $-1 -55.518756401037884 -7.7047889542847869 16.864738966410009 #
plane-surface $-1 61.898861659596548 0 0 -1 0 0 0 0 1 forward_v I I I I #
coedge $-1 $203 $201 $205 $298 reversed $121 $-1 #
edge $-1 $216 -18.201874921482258 $300 18.201874921482258 $215 $349 forward 7 unknown #
vertex $-1 $298 $350 #
straight-curve $-1 -61.898861659596548 -38.605039422641099 0 0 0 -1 I I #
edge $-1 $296 -38.605039422641099 $300 38.605039422641099 $294 $351 forward 7 unknown #
straight-curve $-1 0 -38.605039422641099 -18.201874921482258 -1 0 0 I I #
vertex $-1 $208 $352 #
straight-curve $-1 0 38.605039422641099 -18.201874921482258 1 0 0 I I #
point $-1 61.898861659596548 38.605039422641099 -18.201874921482258 #
point $-1 61.898861659596548 -38.605039422641099 -18.201874921482258 #
straight-curve $-1 -61.898861659596548 0 18.201874921482258 0 -1 0 I I #
point $-1 -61.898861659596548 38.605039422641099 18.201874921482258 #
point $-1 -61.898861659596548 -38.605039422641099 18.201874921482258 #
straight-curve $-1 61.898861659596548 -38.605039422641099 0 0 0 -1 I I #
straight-curve $-1 61.898861659596548 38.605039422641099 0 0 0 -1 I I #
plane-surface $-1 61.898861659596548 0 0 -1 0 0 0 0 1 forward_v I I I I #
coedge $-1 $313 $228 $239 $322 forward $140 $-1 #
coedge $-1 $228 $313 $242 $324 reversed $140 $-1 #
straight-curve $-1 61.898861659596548 -16.075132270156821 3.8059652463802358 0 0 1 I I #
coedge $-1 $311 $310 $231 $314 forward $140 $-1 #
edge $-1 $317 2.4050893469573413 $315 24.934996499441617 $313 $353 forward 7 unknown #
vertex $-1 $233 $354 #
straight-curve $-1 0 -38.605039422641099 5.3709006763068476 1 0 0 I I #
vertex $-1 $314 $355 #
straight-curve $-1 0 -16.075132270156821 5.3709006763068476 1 0 0 I I #
point $-1 61.898861659596548 -38.605039422641099 5.3709006763068476 #
point $-1 61.898861659596548 -16.075132270156821 5.3709006763068476 #
straight-curve $-1 -61.898861659596548 -13.67004292319948 9.8529603092140956 0 1 0 I I #
edge $-1 $240 -6.0469950628338598 $317 -1.5649354299266118 $310 $356 forward 7 unknown #
point $-1 -61.898861659596548 -16.075132270156821 9.8529603092140956 #
edge $-1 $244 -9.8529603092140956 $315 -5.3709006763068476 $311 $357 forward 7 unknown #
point $-1 -61.898861659596548 -38.605039422641099 9.8529603092140956 #
straight-curve $-1 61.898861659596548 -38.605039422641099 0 0 0 -1 I I #
edge $-1 $328 -50.641242683202222 $331 -42.121272625006057 $250 $358 forward 7 unknown #
vertex $-1 $327 $359 #
straight-curve $-1 61.898861659596548 -2.6175965782118453 91.733614502261901 0 0 1 I I #
edge $-1 $331 -1.2347978989305481 $261 8.9395868532153351 $260 $360 forward 7 unknown #
vertex $-1 $330 $361 #
straight-curve $-1 -43.087561368475889 -2.6175965782118453 78.480805976451336 0.84804809178421925 0 -0.52991927123019833 I I #
point $-1 61.898861659596548 -2.6175965782118453 12.878006655186809 #
point $-1 53.378891601400383 -12.791981330357729 18.201874921482258 #
straight-curve $-1 61.898861659596548 0 18.201874921482258 0 1 0 I I #
vertex $-1 $267 $362 #
point $-1 55.771219709168768 -7.7047889542847869 7.8333652588947711 #
edge $-1 $339 40.730339920147365 $342 46.054208186442835 $272 $363 forward 7 unknown #
vertex $-1 $286 $364 #
straight-curve $-1 -63.750830490430552 -2.6175965782118453 18.201874921482258 -1 0 0 I I #
edge $-1 $342 -1.2347978989305481 $283 8.9395868532153351 $282 $365 forward 7 unknown #
vertex $-1 $341 $366 #
straight-curve $-1 -61.898861659596562 -2.6175965782118453 12.87800665518678 0.84804809178421925 0 0.52991927123019833 I I #
point $-1 -53.378891601400369 -2.6175965782118453 18.201874921482258 #
point $-1 -61.898861659596548 -12.791981330357729 12.878006655186789 #
straight-curve $-1 -61.898861659596548 0 18.201874921482258 0 -1 0 I I #
vertex $-1 $289 $367 #
point $-1 -51.53097925024769 -7.7047889542847869 10.482961615045745 #
straight-curve $-1 -61.898861659596548 38.605039422641099 0 0 0 -1 I I #
point $-1 -61.898861659596548 -38.605039422641099 -18.201874921482258 #
straight-curve $-1 -61.898861659596548 0 -18.201874921482258 0 1 0 I I #
point $-1 -61.898861659596548 38.605039422641099 -18.201874921482258 #
straight-curve $-1 -61.898861659596548 -13.67004292319948 5.3709006763068476 0 -1 0 I I #
point $-1 -61.898861659596548 -38.605039422641099 5.3709006763068476 #
point $-1 -61.898861659596548 -16.075132270156821 5.3709006763068476 #
straight-curve $-1 -61.898861659596548 -16.075132270156821 3.8059652463802358 0 0 -1 I I #
straight-curve $-1 -61.898861659596548 -38.605039422641099 0 0 0 -1 I I #
straight-curve $-1 11.257618976394326 -2.6175965782118453 18.201874921482258 -1 0 0 I I #
point $-1 61.898861659596548 -2.6175965782118453 18.201874921482258 #
straight-curve $-1 53.37889160140039 -3.8523944771423935 18.201874921482258 0 -1 0 I I #
point $-1 53.378891601400383 -2.6175965782118453 18.201874921482258 #
point $-1 52.326301301632725 -7.7047889542847869 7.0380432075097188 #
straight-curve $-1 -61.898861659596548 -2.6175965782118453 58.932214841629623 0 0 -1 I I #
point $-1 -61.898861659596548 -2.6175965782118453 18.201874921482258 #
straight-curve $-1 -61.898861659596548 -3.8523944771423935 12.878006655186786 0 -1 0 I I #
point $-1 -61.898861659596548 -2.6175965782118453 12.878006655186789 #
point $-1 -52.326301301632739 -7.7047889542847869 7.038043207509701 #
End-of-ACIS-data 