500 0 6 0           
7 Unknown 11 ACIS 5.0 NT 24 Thu Mar 25 17:28:20 1999 
-1 9.9999999999999995e-007 1e-010 
body $-1 $6 $-1 $7 #
body $-1 $8 $-1 $9 #
body $-1 $10 $-1 $11 #
body $-1 $12 $-1 $13 #
body $-1 $14 $-1 $15 #
body $-1 $16 $-1 $17 #
lump $-1 $-1 $18 $0 #
transform $-1 1 0 0 0 1 0 0 0 1 64.475844599749749 29.935508720170684 14.424535466533492 1 rotate no_reflect no_shear #
lump $-1 $-1 $19 $1 #
transform $-1 1 0 0 0 1 0 0 0 1 64.475844599749749 29.935508720170684 14.424535466533492 1 rotate no_reflect no_shear #
lump $-1 $-1 $20 $2 #
transform $-1 1 0 0 0 1 0 0 0 1 64.475844599749749 29.935508720170684 14.424535466533492 1 rotate no_reflect no_shear #
lump $-1 $-1 $21 $3 #
transform $-1 1 0 0 0 1 0 0 0 1 64.475844599749749 29.935508720170684 14.424535466533492 1 rotate no_reflect no_shear #
lump $-1 $-1 $22 $4 #
transform $-1 1 0 0 0 1 0 0 0 1 64.475844599749749 29.935508720170684 14.424535466533492 1 rotate no_reflect no_shear #
lump $-1 $-1 $23 $5 #
transform $-1 1 0 0 0 1 0 0 0 1 64.475844599749749 29.935508720170684 14.424535466533492 1 rotate no_reflect no_shear #
shell $-1 $-1 $-1 $24 $-1 $6 #
shell $-1 $-1 $-1 $25 $-1 $8 #
shell $-1 $-1 $-1 $26 $-1 $10 #
shell $-1 $-1 $-1 $27 $-1 $12 #
shell $-1 $-1 $-1 $28 $-1 $14 #
shell $-1 $-1 $-1 $29 $-1 $16 #
face $-1 $30 $31 $18 $-1 $32 forward single #
face $-1 $33 $34 $19 $-1 $35 forward single #
face $-1 $36 $37 $20 $-1 $38 forward single #
face $-1 $39 $40 $21 $-1 $41 reversed single #
face $-1 $42 $43 $22 $-1 $44 forward single #
face $-1 $45 $46 $23 $-1 $47 forward single #
face $-1 $48 $49 $18 $-1 $50 reversed single #
loop $-1 $-1 $51 $24 #
plane-surface $-1 0 0 14.424535466533492 0 0 1 1 0 0 forward_v I I I I #
face $-1 $52 $53 $19 $-1 $54 reversed single #
loop $-1 $-1 $55 $25 #
plane-surface $-1 -64.475844599749749 0 0 1 0 0 0 0 -1 forward_v I I I I #
face $-1 $56 $57 $20 $-1 $58 reversed single #
loop $-1 $-1 $59 $26 #
plane-surface $-1 64.475844599749749 0 0 -1 0 0 0 0 1 forward_v I I I I #
face $-1 $60 $61 $21 $-1 $62 reversed single #
loop $-1 $-1 $63 $27 #
plane-surface $-1 50.131780494136756 -117.88035032711443 101.31247487122491 -1 0 0 0 -0.68199836817093118 0.7313536940579346 forward_v I I I I #
face $-1 $64 $65 $22 $-1 $66 forward single #
loop $-1 $67 $68 $28 #
cone-surface $-1 31.681272736011024 -23.291454560199075 7.8561671950363845 0 0.68199836817093118 -0.7313536940579346 2.5 0 0 1 I I 0 1 2.5 forward I I I I #
face $-1 $69 $70 $23 $-1 $71 forward single #
loop $-1 $72 $73 $29 #
cone-surface $-1 42.751577390886467 -23.291454560199075 7.8561671950363845 0 0.68199836817093118 -0.7313536940579346 2.5 0 0 1 I I 0 1 2.5 forward I I I I #
face $-1 $74 $75 $18 $-1 $76 reversed single #
loop $-1 $-1 $77 $30 #
plane-surface $-1 0 0 -14.424535466533492 0 0 1 1 0 0 forward_v I I I I #
coedge $-1 $78 $79 $80 $81 forward $31 $-1 #
face $-1 $82 $83 $19 $-1 $84 forward single #
loop $-1 $-1 $85 $33 #
plane-surface $-1 0 29.935508720170684 0 0 -1 0 0 0 -1 forward_v I I I I #
coedge $-1 $86 $87 $88 $89 forward $34 $-1 #
face $-1 $90 $91 $20 $-1 $92 forward single #
loop $-1 $-1 $93 $36 #
plane-surface $-1 0 -29.935508720170684 0 0 1 0 0 0 1 forward_v I I I I #
coedge $-1 $94 $95 $96 $97 forward $37 $-1 #
face $-1 $98 $99 $21 $-1 $100 reversed single #
loop $-1 $-1 $101 $39 #
plane-surface $-1 37.216425063448739 -29.935508720170674 7.0031806201602791 0 -0.68199836817093118 0.7313536940579346 1 0 0 forward_v I I I I #
coedge $-1 $102 $103 $104 $105 reversed $40 $-1 #
face $-1 $-1 $106 $22 $-1 $107 forward single #
loop $-1 $108 $109 $42 #
cone-surface $-1 31.681272736011024 -19.774116713184515 4.084284229153468 0 0.68199836817093118 -0.7313536940579346 1.25 0 0 1 I I -0.70710678118654746 0.70710678118654746 1.25 forward I I I I #
loop $-1 $-1 $110 $28 #
coedge $-1 $68 $68 $111 $112 reversed $43 $-1 #
face $-1 $-1 $113 $23 $-1 $114 forward single #
loop $-1 $115 $116 $45 #
cone-surface $-1 42.751577390886467 -19.774116713184515 4.084284229153468 0 0.68199836817093118 -0.7313536940579346 1.25 0 0 1 I I -0.70710678118654746 0.70710678118654746 1.25 forward I I I I #
loop $-1 $-1 $117 $29 #
coedge $-1 $73 $73 $118 $119 reversed $46 $-1 #
face $-1 $120 $121 $18 $-1 $122 reversed single #
loop $-1 $-1 $123 $48 #
plane-surface $-1 0 -29.935508720170684 0 0 1 0 0 0 1 forward_v I I I I #
coedge $-1 $124 $125 $126 $127 forward $49 $-1 #
coedge $-1 $128 $51 $129 $130 forward $31 $-1 #
coedge $-1 $51 $128 $131 $132 forward $31 $-1 #
coedge $-1 $133 $134 $51 $81 reversed $135 $-1 #
edge $-1 $136 -29.935508720170684 $137 29.935508720170684 $80 $138 forward 7 unknown #
face $-1 $139 $140 $19 $-1 $141 reversed single #
loop $-1 $-1 $88 $52 #
plane-surface $-1 -71.647876652556235 0 12.249760572434507 0 0 1 1 0 0 forward_v I I I I #
coedge $-1 $142 $143 $87 $144 forward $53 $-1 #
coedge $-1 $145 $55 $146 $147 reversed $34 $-1 #
coedge $-1 $55 $145 $85 $144 reversed $34 $-1 #
coedge $-1 $148 $149 $55 $89 reversed $83 $-1 #
edge $-1 $150 -29.935508720170684 $151 29.935508720170684 $88 $152 forward 7 unknown #
face $-1 $153 $154 $20 $-1 $155 reversed single #
loop $-1 $-1 $156 $56 #
plane-surface $-1 71.647876652556235 0 12.249760572434507 0 0 1 1 0 0 forward_v I I I I #
coedge $-1 $157 $158 $95 $159 forward $57 $-1 #
coedge $-1 $160 $59 $161 $162 reversed $37 $-1 #
coedge $-1 $59 $160 $93 $159 reversed $37 $-1 #
coedge $-1 $163 $164 $59 $97 reversed $91 $-1 #
edge $-1 $165 -29.935508720170684 $166 29.935508720170684 $96 $167 forward 7 unknown #
face $-1 $168 $169 $21 $-1 $170 forward single #
loop $-1 $-1 $171 $60 #
plane-surface $-1 24.301069632760722 -117.88035032711443 101.31247487122491 1 0 0 0 0.68199836817093118 -0.7313536940579346 forward_v I I I I #
coedge $-1 $172 $173 $174 $175 reversed $61 $-1 #
coedge $-1 $103 $63 $176 $177 reversed $40 $-1 #
coedge $-1 $63 $102 $172 $178 reversed $40 $-1 #
coedge $-1 $174 $179 $63 $105 forward $169 $-1 #
edge $-1 $180 29.00466644338653 $181 36.963094989727963 $104 $182 forward 7 unknown #
loop $-1 $-1 $111 $64 #
plane-surface $-1 37.216425063448739 -29.935508720170674 7.0031806201602791 0 -0.68199836817093118 0.7313536940579346 1 0 0 forward_v I I I I #
loop $-1 $-1 $183 $42 #
coedge $-1 $109 $109 $110 $184 reversed $65 $-1 #
coedge $-1 $110 $110 $109 $184 forward $67 $-1 #
coedge $-1 $111 $111 $68 $112 forward $106 $-1 #
edge $-1 $185 -7.0138136560165447e-017 $185 6.2831853071796004 $111 $186 forward 7 unknown #
loop $-1 $-1 $118 $69 #
plane-surface $-1 37.216425063448739 -29.935508720170674 7.0031806201602791 0 -0.68199836817093118 0.7313536940579346 1 0 0 forward_v I I I I #
loop $-1 $-1 $187 $45 #
coedge $-1 $116 $116 $117 $188 reversed $70 $-1 #
coedge $-1 $117 $117 $116 $188 forward $72 $-1 #
coedge $-1 $118 $118 $73 $119 forward $113 $-1 #
edge $-1 $189 -7.0138136560165447e-017 $189 6.2831853071796004 $118 $190 forward 7 unknown #
face $-1 $191 $192 $18 $-1 $193 reversed single #
loop $-1 $-1 $194 $74 #
plane-surface $-1 -64.475844599749749 0 0 1 0 0 0 0 -1 forward_v I I I I #
coedge $-1 $195 $131 $196 $197 forward $75 $-1 #
coedge $-1 $198 $77 $195 $199 forward $49 $-1 #
coedge $-1 $77 $198 $200 $201 forward $49 $-1 #
coedge $-1 $134 $133 $77 $127 reversed $135 $-1 #
edge $-1 $202 -29.935508720170684 $203 29.935508720170684 $126 $204 forward 7 unknown #
coedge $-1 $79 $78 $205 $206 forward $31 $-1 #
coedge $-1 $207 $208 $78 $130 reversed $192 $-1 #
edge $-1 $137 -64.475844599749749 $209 64.475844599749749 $129 $210 forward 7 unknown #
coedge $-1 $123 $211 $79 $132 reversed $75 $-1 #
edge $-1 $212 -64.475844599749749 $136 64.475844599749749 $131 $213 forward 7 unknown #
coedge $-1 $126 $80 $211 $214 forward $135 $-1 #
coedge $-1 $80 $126 $207 $215 reversed $135 $-1 #
loop $-1 $-1 $133 $191 #
vertex $-1 $81 $216 #
vertex $-1 $81 $217 #
straight-curve $-1 64.475844599749749 0 14.424535466533492 0 1 0 I I #
face $-1 $218 $219 $19 $-1 $220 reversed single #
loop $-1 $-1 $221 $82 #
plane-surface $-1 -71.647876652556235 0 8.6525850876103938 0 0 1 1 0 0 forward_v I I I I #
coedge $-1 $222 $85 $223 $224 reversed $53 $-1 #
coedge $-1 $85 $222 $148 $225 reversed $53 $-1 #
edge $-1 $150 -12.249760572434507 $226 -8.6525850876103938 $85 $227 forward 7 unknown #
coedge $-1 $87 $86 $221 $228 forward $34 $-1 #
coedge $-1 $229 $230 $86 $147 forward $231 $-1 #
edge $-1 $232 8.6525850876103938 $151 12.249760572434507 $146 $233 forward 7 unknown #
coedge $-1 $234 $88 $143 $225 forward $83 $-1 #
coedge $-1 $88 $234 $229 $235 forward $83 $-1 #
vertex $-1 $144 $236 #
vertex $-1 $235 $237 #
straight-curve $-1 -64.475844599749749 0 12.249760572434507 0 -1 0 I I #
face $-1 $238 $239 $20 $-1 $240 reversed single #
loop $-1 $-1 $241 $90 #
plane-surface $-1 71.647876652556235 0 8.6525850876103938 0 0 1 1 0 0 forward_v I I I I #
coedge $-1 $164 $163 $242 $243 forward $91 $-1 #
coedge $-1 $244 $93 $245 $246 reversed $57 $-1 #
coedge $-1 $93 $244 $163 $247 reversed $57 $-1 #
edge $-1 $165 -12.249760572434507 $248 -8.6525850876103938 $93 $249 forward 7 unknown #
coedge $-1 $95 $94 $250 $251 forward $37 $-1 #
coedge $-1 $252 $253 $94 $162 forward $254 $-1 #
edge $-1 $255 8.6525850876103938 $166 12.249760572434507 $161 $256 forward 7 unknown #
coedge $-1 $156 $96 $158 $247 forward $91 $-1 #
coedge $-1 $96 $156 $252 $257 forward $91 $-1 #
vertex $-1 $159 $258 #
vertex $-1 $257 $259 #
straight-curve $-1 64.475844599749749 0 12.249760572434507 0 1 0 I I #
face $-1 $-1 $260 $21 $-1 $261 reversed single #
loop $-1 $-1 $104 $98 #
plane-surface $-1 0 0 14.424535466533492 0 0 1 1 0 0 forward_v I I I I #
coedge $-1 $262 $263 $264 $265 reversed $99 $-1 #
coedge $-1 $266 $101 $103 $178 forward $61 $-1 #
coedge $-1 $101 $266 $262 $267 forward $61 $-1 #
coedge $-1 $264 $104 $101 $175 forward $169 $-1 #
edge $-1 $181 -31.523567962412386 $268 -5.6928571010363527 $174 $269 forward 7 unknown #
coedge $-1 $270 $271 $102 $177 forward $260 $-1 #
edge $-1 $272 -43.653056815452182 $180 -36.231701969078962 $176 $273 forward 7 unknown #
edge $-1 $181 -10.881778011106878 $272 1.4457969380444042e-014 $103 $274 forward 7 unknown #
coedge $-1 $104 $264 $270 $275 forward $169 $-1 #
vertex $-1 $177 $276 #
vertex $-1 $105 $277 #
straight-curve $-1 50.131780494136756 -58.940175163557214 14.424535466533492 0 1 0 I I #
coedge $-1 $183 $183 $-1 $278 reversed $108 $-1 #
edge $-1 $279 0 $279 6.2831853071796004 $109 $280 forward 7 unknown #
vertex $-1 $112 $281 #
ellipse-curve $-1 31.681272736011024 -25.956294446999969 10.71385804334688 0 -0.68199836817093118 0.7313536940579346 2.5 0 0 1 I I #
coedge $-1 $187 $187 $-1 $282 reversed $115 $-1 #
edge $-1 $283 0 $283 6.2831853071796004 $116 $284 forward 7 unknown #
vertex $-1 $119 $285 #
ellipse-curve $-1 42.751577390886467 -25.956294446999969 10.71385804334688 0 -0.68199836817093118 0.7313536940579346 2.5 0 0 1 I I #
face $-1 $-1 $135 $18 $-1 $286 reversed single #
loop $-1 $-1 $207 $120 #
plane-surface $-1 0 29.935508720170684 0 0 -1 0 0 0 -1 forward_v I I I I #
coedge $-1 $287 $205 $208 $288 forward $121 $-1 #
coedge $-1 $211 $123 $124 $199 reversed $75 $-1 #
coedge $-1 $205 $287 $123 $197 reversed $121 $-1 #
edge $-1 $212 -14.424535466533492 $289 14.424535466533492 $196 $290 forward 7 unknown #
coedge $-1 $125 $124 $287 $291 forward $49 $-1 #
edge $-1 $203 -64.475844599749749 $289 64.475844599749749 $195 $292 forward 7 unknown #
coedge $-1 $208 $207 $125 $201 reversed $192 $-1 #
edge $-1 $293 -64.475844599749749 $202 64.475844599749749 $200 $294 forward 7 unknown #
vertex $-1 $127 $295 #
vertex $-1 $214 $296 #
straight-curve $-1 64.475844599749749 0 -14.424535466533492 0 -1 0 I I #
coedge $-1 $194 $196 $128 $206 reversed $121 $-1 #
edge $-1 $209 -29.935508720170684 $212 29.935508720170684 $205 $297 forward 7 unknown #
coedge $-1 $200 $129 $134 $215 forward $192 $-1 #
coedge $-1 $129 $200 $194 $288 reversed $192 $-1 #
vertex $-1 $130 $298 #
straight-curve $-1 0 29.935508720170684 14.424535466533492 -1 0 0 I I #
coedge $-1 $131 $195 $133 $214 reversed $75 $-1 #
vertex $-1 $206 $299 #
straight-curve $-1 0 -29.935508720170684 14.424535466533492 1 0 0 I I #
edge $-1 $136 -14.424535466533492 $203 14.424535466533492 $133 $300 forward 7 unknown #
edge $-1 $137 -14.424535466533492 $202 14.424535466533492 $134 $301 forward 7 unknown #
point $-1 64.475844599749749 -29.935508720170684 14.424535466533492 #
point $-1 64.475844599749749 29.935508720170684 14.424535466533492 #
face $-1 $-1 $231 $19 $-1 $302 reversed single #
loop $-1 $-1 $303 $139 #
plane-surface $-1 -78.819908705362721 0 10.45117283002245 1 0 0 0 0 -1 forward_v I I I I #
coedge $-1 $304 $223 $145 $228 reversed $140 $-1 #
coedge $-1 $143 $142 $303 $305 reversed $53 $-1 #
coedge $-1 $221 $306 $142 $224 forward $140 $-1 #
edge $-1 $307 -7.172032052806486 $226 7.172032052806486 $142 $308 forward 7 unknown #
edge $-1 $150 -7.172032052806486 $309 7.172032052806486 $143 $310 forward 7 unknown #
vertex $-1 $144 $311 #
straight-curve $-1 -64.475844599749749 29.935508720170684 0 0 0 -1 I I #
edge $-1 $232 -29.935508720170684 $226 29.935508720170684 $221 $312 forward 7 unknown #
coedge $-1 $313 $146 $149 $235 reversed $231 $-1 #
coedge $-1 $146 $313 $304 $314 reversed $231 $-1 #
loop $-1 $-1 $146 $218 #
vertex $-1 $147 $315 #
straight-curve $-1 -64.475844599749749 -29.935508720170684 0 0 0 1 I I #
coedge $-1 $149 $148 $316 $317 forward $83 $-1 #
edge $-1 $318 -7.172032052806486 $151 7.172032052806486 $229 $319 forward 7 unknown #
point $-1 -64.475844599749749 29.935508720170684 12.249760572434507 #
point $-1 -64.475844599749749 -29.935508720170684 12.249760572434507 #
face $-1 $-1 $254 $20 $-1 $320 reversed single #
loop $-1 $-1 $321 $153 #
plane-surface $-1 78.819908705362721 0 10.45117283002245 -1 0 0 0 0 1 forward_v I I I I #
coedge $-1 $245 $322 $323 $324 forward $154 $-1 #
coedge $-1 $321 $325 $156 $243 reversed $239 $-1 #
edge $-1 $326 -29.935508720170684 $327 29.935508720170684 $242 $328 forward 7 unknown #
coedge $-1 $158 $157 $321 $329 reversed $57 $-1 #
coedge $-1 $250 $241 $157 $246 forward $154 $-1 #
edge $-1 $330 -7.172032052806486 $248 7.172032052806486 $157 $331 forward 7 unknown #
edge $-1 $165 -7.172032052806486 $326 7.172032052806486 $158 $332 forward 7 unknown #
vertex $-1 $159 $333 #
straight-curve $-1 64.475844599749749 -29.935508720170684 0 0 0 -1 I I #
coedge $-1 $322 $245 $160 $251 reversed $154 $-1 #
edge $-1 $255 -29.935508720170684 $248 29.935508720170684 $250 $334 forward 7 unknown #
coedge $-1 $335 $161 $164 $257 reversed $254 $-1 #
coedge $-1 $161 $335 $322 $336 reversed $254 $-1 #
loop $-1 $-1 $161 $238 #
vertex $-1 $162 $337 #
straight-curve $-1 64.475844599749749 29.935508720170684 0 0 0 1 I I #
edge $-1 $327 -7.172032052806486 $166 7.172032052806486 $252 $338 forward 7 unknown #
point $-1 64.475844599749749 -29.935508720170684 12.249760572434507 #
point $-1 64.475844599749749 29.935508720170684 12.249760572434507 #
loop $-1 $-1 $176 $168 #
plane-surface $-1 0 -29.935508720170684 0 0 1 0 0 0 1 forward_v I I I I #
coedge $-1 $263 $171 $173 $267 reversed $99 $-1 #
coedge $-1 $171 $262 $339 $340 reversed $99 $-1 #
coedge $-1 $179 $174 $171 $265 forward $169 $-1 #
edge $-1 $268 -36.963094989727963 $341 -29.00466644338653 $264 $342 forward 7 unknown #
coedge $-1 $173 $172 $271 $343 reversed $61 $-1 #
edge $-1 $344 -1.4457969380444042e-014 $268 10.881778011106878 $262 $345 forward 7 unknown #
vertex $-1 $175 $346 #
straight-curve $-1 18.608212531724369 -21.977080173829254 14.424535466533492 -1 0 0 I I #
coedge $-1 $339 $176 $179 $275 reversed $260 $-1 #
coedge $-1 $176 $339 $266 $343 forward $260 $-1 #
vertex $-1 $177 $347 #
straight-curve $-1 50.131780494136756 -29.935508720170688 50.656237435612454 0 0 1 I I #
straight-curve $-1 50.131780494136756 -29.935508720170674 7.0031806201602791 0 -0.7313536940579346 -0.68199836817093118 I I #
edge $-1 $341 24.301069632760722 $180 50.131780494136756 $270 $348 forward 7 unknown #
point $-1 50.131780494136756 -29.935508720170684 14.424535466533492 #
point $-1 50.131780494136756 -21.977080173829254 14.424535466533492 #
edge $-1 $349 1 $349 0 $183 $-1 forward 7 unknown #
vertex $-1 $184 $350 #
ellipse-curve $-1 31.681272736011024 -20.62661467339818 4.9984763467258864 0 -0.68199836817093118 0.7313536940579346 2.5 0 0 1 I I #
point $-1 34.181272736011024 -25.956294446999973 10.713858043346884 #
edge $-1 $351 1 $351 0 $187 $-1 forward 7 unknown #
vertex $-1 $188 $352 #
ellipse-curve $-1 42.751577390886467 -20.62661467339818 4.9984763467258864 0 -0.68199836817093118 0.7313536940579346 2.5 0 0 1 I I #
point $-1 45.251577390886467 -25.956294446999973 10.713858043346884 #
plane-surface $-1 64.475844599749749 0 0 -1 0 0 0 0 1 forward_v I I I I #
coedge $-1 $196 $194 $198 $291 reversed $121 $-1 #
edge $-1 $209 -14.424535466533492 $293 14.424535466533492 $208 $353 forward 7 unknown #
vertex $-1 $291 $354 #
straight-curve $-1 -64.475844599749749 -29.935508720170684 0 0 0 -1 I I #
edge $-1 $289 -29.935508720170684 $293 29.935508720170684 $287 $355 forward 7 unknown #
straight-curve $-1 0 -29.935508720170684 -14.424535466533492 -1 0 0 I I #
vertex $-1 $201 $356 #
straight-curve $-1 0 29.935508720170684 -14.424535466533492 1 0 0 I I #
point $-1 64.475844599749749 29.935508720170684 -14.424535466533492 #
point $-1 64.475844599749749 -29.935508720170684 -14.424535466533492 #
straight-curve $-1 -64.475844599749749 0 14.424535466533492 0 -1 0 I I #
point $-1 -64.475844599749749 29.935508720170684 14.424535466533492 #
point $-1 -64.475844599749749 -29.935508720170684 14.424535466533492 #
straight-curve $-1 64.475844599749749 -29.935508720170684 0 0 0 -1 I I #
straight-curve $-1 64.475844599749749 29.935508720170684 0 0 0 -1 I I #
plane-surface $-1 0 -29.935508720170684 0 0 1 0 0 0 1 forward_v I I I I #
coedge $-1 $357 $316 $222 $305 forward $219 $-1 #
coedge $-1 $306 $221 $230 $314 forward $140 $-1 #
edge $-1 $309 -1.7985877424120567 $307 1.7985877424120567 $222 $358 forward 7 unknown #
coedge $-1 $223 $304 $357 $359 forward $140 $-1 #
vertex $-1 $224 $360 #
straight-curve $-1 -71.647876652556235 29.935508720170684 8.6525850876103938 1 0 0 I I #
vertex $-1 $225 $361 #
straight-curve $-1 -71.647876652556235 29.935508720170684 12.249760572434507 -1 0 0 I I #
point $-1 -64.475844599749749 29.935508720170684 8.6525850876103938 #
straight-curve $-1 -64.475844599749749 0 8.6525850876103938 0 1 0 I I #
coedge $-1 $230 $229 $362 $363 forward $231 $-1 #
edge $-1 $232 -7.172032052806486 $364 7.172032052806486 $230 $365 forward 7 unknown #
point $-1 -64.475844599749749 -29.935508720170684 8.6525850876103938 #
coedge $-1 $303 $362 $234 $317 reversed $219 $-1 #
edge $-1 $309 -29.935508720170684 $318 29.935508720170684 $316 $366 forward 7 unknown #
vertex $-1 $317 $367 #
straight-curve $-1 -71.647876652556235 -29.935508720170684 12.249760572434507 1 0 0 I I #
plane-surface $-1 0 29.935508720170684 0 0 -1 0 0 0 -1 forward_v I I I I #
coedge $-1 $323 $242 $244 $329 forward $239 $-1 #
coedge $-1 $241 $250 $253 $336 forward $154 $-1 #
coedge $-1 $325 $321 $241 $324 reversed $239 $-1 #
edge $-1 $368 -29.935508720170684 $330 29.935508720170684 $323 $369 forward 7 unknown #
coedge $-1 $242 $323 $335 $370 reversed $239 $-1 #
vertex $-1 $243 $371 #
vertex $-1 $243 $372 #
straight-curve $-1 78.819908705362721 0 12.249760572434507 0 1 0 I I #
edge $-1 $326 -1.7985877424120567 $330 1.7985877424120567 $321 $373 forward 7 unknown #
vertex $-1 $329 $374 #
straight-curve $-1 71.647876652556235 -29.935508720170684 8.6525850876103938 -1 0 0 I I #
straight-curve $-1 71.647876652556235 -29.935508720170684 12.249760572434507 1 0 0 I I #
point $-1 64.475844599749749 -29.935508720170684 8.6525850876103938 #
straight-curve $-1 64.475844599749749 0 8.6525850876103938 0 -1 0 I I #
coedge $-1 $253 $252 $325 $370 forward $254 $-1 #
edge $-1 $255 -7.172032052806486 $368 7.172032052806486 $253 $375 forward 7 unknown #
point $-1 64.475844599749749 29.935508720170684 8.6525850876103938 #
straight-curve $-1 71.647876652556235 29.935508720170684 12.249760572434507 -1 0 0 I I #
coedge $-1 $271 $270 $263 $340 forward $260 $-1 #
edge $-1 $341 36.231701969078962 $344 43.653056815452182 $339 $376 forward 7 unknown #
vertex $-1 $275 $377 #
straight-curve $-1 24.301069632760722 -58.940175163557214 14.424535466533492 0 -1 0 I I #
edge $-1 $344 5.6928571010363527 $272 31.523567962412386 $271 $378 forward 7 unknown #
vertex $-1 $343 $379 #
straight-curve $-1 24.301069632760722 -29.935508720170674 7.0031806201602791 0 0.7313536940579346 0.68199836817093118 I I #
point $-1 24.301069632760722 -21.977080173829254 14.424535466533492 #
point $-1 50.131780494136756 -29.935508720170684 7.0031806201602693 #
straight-curve $-1 0 -29.935508720170684 14.424535466533492 1 0 0 I I #
vertex $-1 $278 $380 #
point $-1 34.181272736011024 -20.62661467339818 4.9984763467258864 #
vertex $-1 $282 $381 #
point $-1 45.251577390886467 -20.62661467339818 4.9984763467258864 #
straight-curve $-1 -64.475844599749749 29.935508720170684 0 0 0 -1 I I #
point $-1 -64.475844599749749 -29.935508720170684 -14.424535466533492 #
straight-curve $-1 -64.475844599749749 0 -14.424535466533492 0 1 0 I I #
point $-1 -64.475844599749749 29.935508720170684 -14.424535466533492 #
coedge $-1 $362 $303 $306 $359 reversed $219 $-1 #
straight-curve $-1 -78.819908705362721 29.935508720170684 10.45117283002245 0 0 -1 I I #
edge $-1 $364 -29.935508720170684 $307 29.935508720170684 $357 $382 forward 7 unknown #
point $-1 -78.819908705362721 29.935508720170684 8.6525850876103938 #
point $-1 -78.819908705362721 29.935508720170684 12.249760572434507 #
coedge $-1 $316 $357 $313 $363 reversed $219 $-1 #
edge $-1 $318 -1.7985877424120567 $364 1.7985877424120567 $362 $383 forward 7 unknown #
vertex $-1 $359 $384 #
straight-curve $-1 -71.647876652556235 -29.935508720170684 8.6525850876103938 -1 0 0 I I #
straight-curve $-1 -78.819908705362721 0 12.249760572434507 0 -1 0 I I #
point $-1 -78.819908705362721 -29.935508720170684 12.249760572434507 #
vertex $-1 $324 $385 #
straight-curve $-1 78.819908705362721 0 8.6525850876103938 0 -1 0 I I #
edge $-1 $327 -1.7985877424120567 $368 1.7985877424120567 $325 $386 forward 7 unknown #
point $-1 78.819908705362721 -29.935508720170684 12.249760572434507 #
point $-1 78.819908705362721 29.935508720170684 12.249760572434507 #
straight-curve $-1 78.819908705362721 -29.935508720170684 10.45117283002245 0 0 -1 I I #
point $-1 78.819908705362721 -29.935508720170684 8.6525850876103938 #
straight-curve $-1 71.647876652556235 29.935508720170684 8.6525850876103938 1 0 0 I I #
straight-curve $-1 24.301069632760722 -29.935508720170688 50.656237435612454 0 0 -1 I I #
point $-1 24.301069632760722 -29.935508720170684 14.424535466533492 #
straight-curve $-1 18.608212531724369 -29.935508720170684 7.0031806201602693 1 0 0 I I #
point $-1 24.301069632760722 -29.935508720170684 7.0031806201602693 #
point $-1 31.681272736011024 -18.921618752970851 3.1700921115810496 #
point $-1 42.751577390886467 -18.921618752970851 3.1700921115810496 #
straight-curve $-1 -78.819908705362721 0 8.6525850876103938 0 1 0 I I #
straight-curve $-1 -78.819908705362721 -29.935508720170684 10.45117283002245 0 0 -1 I I #
point $-1 -78.819908705362721 -29.935508720170684 8.6525850876103938 #
point $-1 78.819908705362721 29.935508720170684 8.6525850876103938 #
straight-curve $-1 78.819908705362721 29.935508720170684 10.45117283002245 0 0 -1 I I #
End-of-ACIS-data 