500 0 13 0           
7 Unknown 11 ACIS 5.0 NT 24 Thu Mar 25 20:06:13 1999 
-1 9.9999999999999995e-007 1e-010 
body $-1 $13 $-1 $14 #
body $-1 $15 $-1 $16 #
body $-1 $17 $-1 $18 #
body $-1 $19 $-1 $20 #
body $-1 $21 $-1 $22 #
body $-1 $23 $-1 $24 #
body $-1 $25 $-1 $26 #
body $-1 $27 $-1 $28 #
body $-1 $29 $-1 $30 #
body $-1 $31 $-1 $32 #
body $-1 $33 $-1 $34 #
body $-1 $35 $-1 $36 #
body $-1 $37 $-1 $38 #
lump $-1 $-1 $39 $0 #
transform $-1 1 0 0 0 1 0 0 0 1 42.153386028626365 23.755356925834096 11.629953451119889 1 rotate no_reflect no_shear #
lump $-1 $-1 $40 $1 #
transform $-1 1 0 0 0 1 0 0 0 1 42.153386028626365 23.755356925834096 11.629953451119889 1 rotate no_reflect no_shear #
lump $-1 $-1 $41 $2 #
transform $-1 1 0 0 0 1 0 0 0 1 42.153386028626365 23.755356925834096 11.629953451119889 1 rotate no_reflect no_shear #
lump $-1 $-1 $42 $3 #
transform $-1 1 0 0 0 1 0 0 0 1 42.153386028626365 23.755356925834096 11.629953451119889 1 rotate no_reflect no_shear #
lump $-1 $-1 $43 $4 #
transform $-1 1 0 0 0 1 0 0 0 1 42.153386028626365 23.755356925834096 11.629953451119889 1 rotate no_reflect no_shear #
lump $-1 $-1 $44 $5 #
transform $-1 1 0 0 0 1 0 0 0 1 42.153386028626365 23.755356925834096 11.629953451119889 1 rotate no_reflect no_shear #
lump $-1 $-1 $45 $6 #
transform $-1 1 0 0 0 1 0 0 0 1 42.153386028626365 23.755356925834096 11.629953451119889 1 rotate no_reflect no_shear #
lump $-1 $-1 $46 $7 #
transform $-1 1 0 0 0 1 0 0 0 1 42.153386028626365 23.755356925834096 11.629953451119889 1 rotate no_reflect no_shear #
lump $-1 $-1 $47 $8 #
transform $-1 1 0 0 0 1 0 0 0 1 42.153386028626365 23.755356925834096 11.629953451119889 1 rotate no_reflect no_shear #
lump $-1 $-1 $48 $9 #
transform $-1 1 0 0 0 1 0 0 0 1 42.153386028626365 23.755356925834096 11.629953451119889 1 rotate no_reflect no_shear #
lump $-1 $-1 $49 $10 #
transform $-1 1 0 0 0 1 0 0 0 1 42.153386028626365 23.755356925834096 11.629953451119889 1 rotate no_reflect no_shear #
lump $-1 $-1 $50 $11 #
transform $-1 1 0 0 0 1 0 0 0 1 42.153386028626365 23.755356925834096 11.629953451119889 1 rotate no_reflect no_shear #
lump $-1 $-1 $51 $12 #
transform $-1 1 0 0 0 1 0 0 0 1 42.153386028626365 23.755356925834096 11.629953451119889 1 rotate no_reflect no_shear #
shell $-1 $-1 $-1 $52 $-1 $13 #
shell $-1 $-1 $-1 $53 $-1 $15 #
shell $-1 $-1 $-1 $54 $-1 $17 #
shell $-1 $-1 $-1 $55 $-1 $19 #
shell $-1 $-1 $-1 $56 $-1 $21 #
shell $-1 $-1 $-1 $57 $-1 $23 #
shell $-1 $-1 $-1 $58 $-1 $25 #
shell $-1 $-1 $-1 $59 $-1 $27 #
shell $-1 $-1 $-1 $60 $-1 $29 #
shell $-1 $-1 $-1 $61 $-1 $31 #
shell $-1 $-1 $-1 $62 $-1 $33 #
shell $-1 $-1 $-1 $63 $-1 $35 #
shell $-1 $-1 $-1 $64 $-1 $37 #
face $-1 $65 $66 $39 $-1 $67 forward single #
face $-1 $68 $69 $40 $-1 $70 reversed single #
face $-1 $71 $72 $41 $-1 $73 reversed single #
face $-1 $74 $75 $42 $-1 $76 forward single #
face $-1 $77 $78 $43 $-1 $79 forward single #
face $-1 $80 $81 $44 $-1 $82 forward single #
face $-1 $83 $84 $45 $-1 $85 reversed single #
face $-1 $86 $87 $46 $-1 $88 forward single #
face $-1 $89 $90 $47 $-1 $91 forward single #
face $-1 $92 $93 $48 $-1 $94 forward single #
face $-1 $95 $96 $49 $-1 $97 reversed single #
face $-1 $98 $99 $50 $-1 $100 forward single #
face $-1 $101 $102 $51 $-1 $103 forward single #
face $-1 $104 $105 $39 $-1 $106 reversed single #
loop $-1 $-1 $107 $52 #
plane-surface $-1 0 0 11.629953451119889 0 0 1 1 0 0 forward_v I I I I #
face $-1 $108 $109 $40 $-1 $110 reversed single #
loop $-1 $-1 $111 $53 #
plane-surface $-1 -39.952507756125087 -10.275265886450018 0 0 -1 0 0 0 -1 forward_v I I I I #
face $-1 $112 $113 $41 $-1 $114 reversed single #
loop $-1 $-1 $115 $54 #
plane-surface $-1 37.992397819259345 -3.4722374953149036 126.02866695252308 0 -1 0 -0.68199836817093118 0 -0.7313536940579346 forward_v I I I I #
face $-1 $116 $117 $42 $-1 $118 forward single #
loop $-1 $119 $120 $55 #
cone-surface $-1 39.216218090275497 -8.9146602082229958 8.8368988675290829 -0.68199836817093118 0 -0.7313536940579346 0.3656768470289673 0 -0.34099918408546559 1 I I 0 1 0.5 forward I I I I #
face $-1 $121 $122 $43 $-1 $123 forward single #
loop $-1 $124 $125 $56 #
cone-surface $-1 39.216218090275497 -6.873751690882461 8.8368988675290829 -0.68199836817093118 0 -0.7313536940579346 0.3656768470289673 0 -0.34099918408546559 1 I I 0 1 0.5 forward I I I I #
face $-1 $126 $127 $44 $-1 $128 forward single #
loop $-1 $129 $130 $57 #
cone-surface $-1 39.216218090275497 -4.8328431735419279 8.8368988675290829 -0.68199836817093118 0 -0.7313536940579346 0.3656768470289673 0 -0.34099918408546559 1 I I 0 1 0.5 forward I I I I #
face $-1 $131 $132 $45 $-1 $133 reversed single #
loop $-1 $-1 $134 $58 #
plane-surface $-1 37.992397819259345 13.543073910827157 126.02866695252308 0 -1 0 -0.68199836817093118 0 -0.7313536940579346 forward_v I I I I #
face $-1 $135 $136 $46 $-1 $137 forward single #
loop $-1 $138 $139 $59 #
cone-surface $-1 39.216218090275497 8.1006511979190599 8.8368988675290829 -0.68199836817093118 0 -0.7313536940579346 0.3656768470289673 0 -0.34099918408546559 1 I I 0 1 0.5 forward I I I I #
face $-1 $140 $141 $47 $-1 $142 forward single #
loop $-1 $143 $144 $60 #
cone-surface $-1 39.216218090275497 10.1415597152596 8.8368988675290829 -0.68199836817093118 0 -0.7313536940579346 0.3656768470289673 0 -0.34099918408546559 1 I I 0 1 0.5 forward I I I I #
face $-1 $145 $146 $48 $-1 $147 forward single #
loop $-1 $148 $149 $61 #
cone-surface $-1 39.216218090275497 12.182468232600126 8.8368988675290829 -0.68199836817093118 0 -0.7313536940579346 0.3656768470289673 0 -0.34099918408546559 1 I I 0 1 0.5 forward I I I I #
face $-1 $150 $151 $49 $-1 $152 reversed single #
loop $-1 $-1 $153 $62 #
plane-surface $-1 -42.153386028626358 -5.7412833828986649 1.3371463262225944 -0.61566148304635926 0 0.78801074757464917 0.78801074757464917 0 0.61566148304635926 forward_v I I I I #
face $-1 $154 $155 $50 $-1 $156 forward single #
loop $-1 $157 $158 $63 #
cone-surface $-1 -35.143160111495881 -7.6844187415635297 5.9419683573933959 0.61566148304635926 0 -0.78801074757464917 0.78801074757464917 0 0.61566148304635926 1 I I 0 1 1 forward I I I I #
face $-1 $159 $160 $51 $-1 $161 forward single #
loop $-1 $162 $163 $64 #
cone-surface $-1 -35.143160111495881 -3.7981480242337966 5.9419683573933959 0.61566148304635926 0 -0.78801074757464917 0.78801074757464917 0 0.61566148304635926 1 I I 0 1 1 forward I I I I #
face $-1 $164 $165 $39 $-1 $166 reversed single #
loop $-1 $-1 $167 $65 #
plane-surface $-1 0 0 -11.629953451119889 0 0 1 1 0 0 forward_v I I I I #
coedge $-1 $168 $169 $170 $171 forward $66 $-1 #
face $-1 $172 $173 $40 $-1 $174 forward single #
loop $-1 $-1 $175 $68 #
plane-surface $-1 -37.751629483623809 -17.015311406142057 0 -1 0 0 0 0 1 forward_v I I I I #
coedge $-1 $176 $177 $178 $179 forward $69 $-1 #
face $-1 $180 $181 $41 $-1 $182 reversed single #
loop $-1 $-1 $183 $71 #
plane-surface $-1 -19.504683149545663 -6.873751690882461 64.37059777435104 0.68199836817093118 0 0.7313536940579346 0.7313536940579346 0 -0.68199836817093118 forward_v I I I I #
coedge $-1 $184 $185 $186 $187 reversed $72 $-1 #
face $-1 $-1 $188 $42 $-1 $189 forward single #
loop $-1 $190 $191 $74 #
cone-surface $-1 38.658877418157537 -8.9146602082229958 8.239224183210716 -0.68199836817093118 0 -0.7313536940579346 0.18283842351448365 0 -0.17049959204273279 1 I I -0.70710678118654746 0.70710678118654746 0.25 forward I I I I #
loop $-1 $-1 $192 $55 #
coedge $-1 $120 $120 $193 $194 reversed $75 $-1 #
face $-1 $-1 $195 $43 $-1 $196 forward single #
loop $-1 $197 $198 $77 #
cone-surface $-1 38.658877418157537 -6.873751690882461 8.239224183210716 -0.68199836817093118 0 -0.7313536940579346 0.18283842351448365 0 -0.17049959204273279 1 I I -0.70710678118654746 0.70710678118654746 0.25 forward I I I I #
loop $-1 $-1 $199 $56 #
coedge $-1 $125 $125 $200 $201 reversed $78 $-1 #
face $-1 $-1 $202 $44 $-1 $203 forward single #
loop $-1 $204 $205 $80 #
cone-surface $-1 38.658877418157537 -4.8328431735419279 8.239224183210716 -0.68199836817093118 0 -0.7313536940579346 0.18283842351448365 0 -0.17049959204273279 1 I I -0.70710678118654746 0.70710678118654746 0.25 forward I I I I #
loop $-1 $-1 $206 $57 #
coedge $-1 $130 $130 $207 $208 reversed $81 $-1 #
face $-1 $209 $210 $45 $-1 $211 reversed single #
loop $-1 $-1 $212 $83 #
plane-surface $-1 -19.504683149545663 10.1415597152596 64.37059777435104 0.68199836817093118 0 0.7313536940579346 0.7313536940579346 0 -0.68199836817093118 forward_v I I I I #
coedge $-1 $213 $214 $215 $216 reversed $84 $-1 #
face $-1 $-1 $217 $46 $-1 $218 forward single #
loop $-1 $219 $220 $86 #
cone-surface $-1 38.658877418157537 8.1006511979190599 8.239224183210716 -0.68199836817093118 0 -0.7313536940579346 0.18283842351448365 0 -0.17049959204273279 1 I I -0.70710678118654746 0.70710678118654746 0.25 forward I I I I #
loop $-1 $-1 $221 $59 #
coedge $-1 $139 $139 $222 $223 reversed $87 $-1 #
face $-1 $-1 $224 $47 $-1 $225 forward single #
loop $-1 $226 $227 $89 #
cone-surface $-1 38.658877418157537 10.1415597152596 8.239224183210716 -0.68199836817093118 0 -0.7313536940579346 0.18283842351448365 0 -0.17049959204273279 1 I I -0.70710678118654746 0.70710678118654746 0.25 forward I I I I #
loop $-1 $-1 $228 $60 #
coedge $-1 $144 $144 $229 $230 reversed $90 $-1 #
face $-1 $-1 $231 $48 $-1 $232 forward single #
loop $-1 $233 $234 $92 #
cone-surface $-1 38.658877418157537 12.182468232600126 8.239224183210716 -0.68199836817093118 0 -0.7313536940579346 0.18283842351448365 0 -0.17049959204273279 1 I I -0.70710678118654746 0.70710678118654746 0.25 forward I I I I #
loop $-1 $-1 $235 $61 #
coedge $-1 $149 $149 $236 $237 reversed $93 $-1 #
face $-1 $238 $239 $49 $-1 $240 reversed single #
loop $-1 $-1 $241 $95 #
plane-surface $-1 -94.057818344245931 -1.2073008793473115 67.771788800663856 0 -1 0 0.61566148304635926 0 -0.78801074757464917 forward_v I I I I #
coedge $-1 $242 $243 $244 $245 reversed $96 $-1 #
face $-1 $-1 $246 $50 $-1 $247 forward single #
loop $-1 $248 $249 $98 #
cone-surface $-1 -34.412199495458587 -7.6844187415635297 5.0063814523282275 0.61566148304635926 0 -0.78801074757464917 0.39400537378732459 0 0.30783074152317963 1 I I -0.70710678118654746 0.70710678118654746 0.5 forward I I I I #
loop $-1 $-1 $250 $63 #
coedge $-1 $158 $158 $251 $252 reversed $99 $-1 #
face $-1 $-1 $253 $51 $-1 $254 forward single #
loop $-1 $255 $256 $101 #
cone-surface $-1 -34.412199495458587 -3.7981480242337966 5.0063814523282275 0.61566148304635926 0 -0.78801074757464917 0.39400537378732459 0 0.30783074152317963 1 I I -0.70710678118654746 0.70710678118654746 0.5 forward I I I I #
loop $-1 $-1 $257 $64 #
coedge $-1 $163 $163 $258 $259 reversed $102 $-1 #
face $-1 $260 $261 $39 $-1 $262 reversed single #
loop $-1 $-1 $263 $104 #
plane-surface $-1 0 -23.755356925834096 0 0 1 0 0 0 1 forward_v I I I I #
coedge $-1 $264 $265 $266 $267 forward $105 $-1 #
coedge $-1 $268 $107 $269 $270 forward $66 $-1 #
coedge $-1 $107 $268 $271 $272 forward $66 $-1 #
coedge $-1 $273 $274 $107 $171 reversed $275 $-1 #
edge $-1 $276 -23.755356925834096 $277 23.755356925834096 $170 $278 forward 7 unknown #
face $-1 $279 $280 $40 $-1 $281 reversed single #
loop $-1 $-1 $282 $108 #
plane-surface $-1 0 0 11.629953451119889 0 0 1 1 0 0 forward_v I I I I #
coedge $-1 $283 $284 $285 $286 reversed $109 $-1 #
coedge $-1 $287 $111 $288 $289 reversed $69 $-1 #
coedge $-1 $111 $287 $290 $291 reversed $69 $-1 #
coedge $-1 $284 $283 $111 $179 reversed $109 $-1 #
edge $-1 $292 -11.629953451119889 $293 11.629953451119889 $178 $294 forward 7 unknown #
face $-1 $295 $296 $41 $-1 $297 reversed single #
loop $-1 $-1 $298 $112 #
plane-surface $-1 37.992397819259345 -10.275265886450018 126.02866695252308 0 1 0 0.68199836817093118 0 0.7313536940579346 forward_v I I I I #
coedge $-1 $299 $300 $301 $302 reversed $113 $-1 #
coedge $-1 $185 $115 $303 $304 reversed $72 $-1 #
coedge $-1 $115 $184 $299 $305 reversed $72 $-1 #
coedge $-1 $301 $306 $115 $187 forward $307 $-1 #
edge $-1 $308 -23.157187118996692 $309 -18.056533402445407 $186 $310 forward 7 unknown #
loop $-1 $-1 $193 $116 #
plane-surface $-1 -19.504683149545663 -6.873751690882461 64.37059777435104 0.68199836817093118 0 0.7313536940579346 0.7313536940579346 0 -0.68199836817093118 forward_v I I I I #
loop $-1 $-1 $311 $74 #
coedge $-1 $191 $191 $192 $312 reversed $117 $-1 #
coedge $-1 $192 $192 $191 $312 forward $119 $-1 #
coedge $-1 $193 $193 $120 $194 forward $188 $-1 #
edge $-1 $313 0 $313 6.2831853071796004 $193 $314 forward 7 unknown #
loop $-1 $-1 $200 $121 #
plane-surface $-1 -19.504683149545663 -6.873751690882461 64.37059777435104 0.68199836817093118 0 0.7313536940579346 0.7313536940579346 0 -0.68199836817093118 forward_v I I I I #
loop $-1 $-1 $315 $77 #
coedge $-1 $198 $198 $199 $316 reversed $122 $-1 #
coedge $-1 $199 $199 $198 $316 forward $124 $-1 #
coedge $-1 $200 $200 $125 $201 forward $195 $-1 #
edge $-1 $317 0 $317 6.2831853071796004 $200 $318 forward 7 unknown #
loop $-1 $-1 $207 $126 #
plane-surface $-1 -19.504683149545663 -6.873751690882461 64.37059777435104 0.68199836817093118 0 0.7313536940579346 0.7313536940579346 0 -0.68199836817093118 forward_v I I I I #
loop $-1 $-1 $319 $80 #
coedge $-1 $205 $205 $206 $320 reversed $127 $-1 #
coedge $-1 $206 $206 $205 $320 forward $129 $-1 #
coedge $-1 $207 $207 $130 $208 forward $202 $-1 #
edge $-1 $321 0 $321 6.2831853071796004 $207 $322 forward 7 unknown #
face $-1 $323 $324 $45 $-1 $325 reversed single #
loop $-1 $-1 $326 $131 #
plane-surface $-1 37.992397819259345 6.7400455196920426 126.02866695252308 0 1 0 0.68199836817093118 0 0.7313536940579346 forward_v I I I I #
coedge $-1 $327 $328 $329 $330 reversed $132 $-1 #
coedge $-1 $214 $134 $331 $332 reversed $84 $-1 #
coedge $-1 $134 $213 $327 $333 reversed $84 $-1 #
coedge $-1 $329 $334 $134 $216 forward $335 $-1 #
edge $-1 $336 -23.157187118996692 $337 -18.056533402445407 $215 $338 forward 7 unknown #
loop $-1 $-1 $222 $135 #
plane-surface $-1 -19.504683149545663 10.1415597152596 64.37059777435104 0.68199836817093118 0 0.7313536940579346 0.7313536940579346 0 -0.68199836817093118 forward_v I I I I #
loop $-1 $-1 $339 $86 #
coedge $-1 $220 $220 $221 $340 reversed $136 $-1 #
coedge $-1 $221 $221 $220 $340 forward $138 $-1 #
coedge $-1 $222 $222 $139 $223 forward $217 $-1 #
edge $-1 $341 0 $341 6.2831853071796004 $222 $342 forward 7 unknown #
loop $-1 $-1 $229 $140 #
plane-surface $-1 -19.504683149545663 10.1415597152596 64.37059777435104 0.68199836817093118 0 0.7313536940579346 0.7313536940579346 0 -0.68199836817093118 forward_v I I I I #
loop $-1 $-1 $343 $89 #
coedge $-1 $227 $227 $228 $344 reversed $141 $-1 #
coedge $-1 $228 $228 $227 $344 forward $143 $-1 #
coedge $-1 $229 $229 $144 $230 forward $224 $-1 #
edge $-1 $345 0 $345 6.2831853071796004 $229 $346 forward 7 unknown #
loop $-1 $-1 $236 $145 #
plane-surface $-1 -19.504683149545663 10.1415597152596 64.37059777435104 0.68199836817093118 0 0.7313536940579346 0.7313536940579346 0 -0.68199836817093118 forward_v I I I I #
loop $-1 $-1 $347 $92 #
coedge $-1 $234 $234 $235 $348 reversed $146 $-1 #
coedge $-1 $235 $235 $234 $348 forward $148 $-1 #
coedge $-1 $236 $236 $149 $237 forward $231 $-1 #
edge $-1 $349 0 $349 6.2831853071796004 $236 $350 forward 7 unknown #
face $-1 $351 $352 $49 $-1 $353 forward single #
loop $-1 $-1 $354 $150 #
plane-surface $-1 -42.153386028626365 0 0 1 0 0 0 0 -1 forward_v I I I I #
coedge $-1 $355 $356 $357 $358 reversed $151 $-1 #
coedge $-1 $359 $153 $360 $361 reversed $96 $-1 #
coedge $-1 $153 $359 $355 $362 forward $96 $-1 #
coedge $-1 $357 $363 $153 $245 forward $364 $-1 #
edge $-1 $365 -7.4046241950006859 $366 1.663340812102021 $244 $367 forward 7 unknown #
loop $-1 $-1 $251 $154 #
plane-surface $-1 -42.153386028626358 -5.7412833828986649 1.3371463262225944 -0.61566148304635926 0 0.78801074757464917 0.78801074757464917 0 0.61566148304635926 forward_v I I I I #
loop $-1 $-1 $368 $98 #
coedge $-1 $249 $249 $250 $369 reversed $155 $-1 #
coedge $-1 $250 $250 $249 $369 forward $157 $-1 #
coedge $-1 $251 $251 $158 $252 forward $246 $-1 #
edge $-1 $370 0 $370 6.2831853071796004 $251 $371 forward 7 unknown #
loop $-1 $-1 $258 $159 #
plane-surface $-1 -42.153386028626358 -5.7412833828986649 1.3371463262225944 -0.61566148304635926 0 0.78801074757464917 0.78801074757464917 0 0.61566148304635926 forward_v I I I I #
loop $-1 $-1 $372 $101 #
coedge $-1 $256 $256 $257 $373 reversed $160 $-1 #
coedge $-1 $257 $257 $256 $373 forward $162 $-1 #
coedge $-1 $258 $258 $163 $259 forward $253 $-1 #
edge $-1 $374 0 $374 6.2831853071796004 $258 $375 forward 7 unknown #
face $-1 $376 $377 $39 $-1 $378 reversed single #
loop $-1 $-1 $379 $164 #
plane-surface $-1 -42.153386028626365 0 0 1 0 0 0 0 -1 forward_v I I I I #
coedge $-1 $380 $271 $381 $382 forward $165 $-1 #
coedge $-1 $383 $167 $380 $384 forward $105 $-1 #
coedge $-1 $167 $383 $385 $386 forward $105 $-1 #
coedge $-1 $274 $273 $167 $267 reversed $275 $-1 #
edge $-1 $387 -23.755356925834096 $388 23.755356925834096 $266 $389 forward 7 unknown #
coedge $-1 $169 $168 $390 $391 forward $66 $-1 #
coedge $-1 $392 $393 $168 $270 reversed $377 $-1 #
edge $-1 $277 -42.153386028626365 $394 42.153386028626365 $269 $395 forward 7 unknown #
coedge $-1 $263 $396 $169 $272 reversed $165 $-1 #
edge $-1 $397 -42.153386028626365 $276 42.153386028626365 $271 $398 forward 7 unknown #
coedge $-1 $266 $170 $396 $399 forward $275 $-1 #
coedge $-1 $170 $266 $392 $400 reversed $275 $-1 #
loop $-1 $-1 $273 $376 #
vertex $-1 $171 $401 #
vertex $-1 $171 $402 #
straight-curve $-1 42.153386028626365 0 11.629953451119889 0 1 0 I I #
face $-1 $403 $404 $40 $-1 $405 reversed single #
loop $-1 $-1 $406 $172 #
plane-surface $-1 -42.153386028626365 0 0 1 0 0 0 0 -1 forward_v I I I I #
coedge $-1 $290 $407 $284 $408 forward $173 $-1 #
coedge $-1 $178 $175 $409 $410 reversed $109 $-1 #
coedge $-1 $175 $178 $282 $408 reversed $109 $-1 #
coedge $-1 $411 $412 $175 $286 forward $413 $-1 #
edge $-1 $414 -11.629953451119889 $415 11.629953451119889 $285 $416 forward 7 unknown #
coedge $-1 $177 $176 $406 $417 reversed $69 $-1 #
coedge $-1 $409 $418 $176 $289 forward $404 $-1 #
edge $-1 $419 -22.177132150563821 $293 -17.775375605561266 $288 $420 forward 7 unknown #
coedge $-1 $421 $282 $177 $291 forward $173 $-1 #
edge $-1 $292 17.775375605561266 $422 22.177132150563821 $290 $423 forward 7 unknown #
vertex $-1 $291 $424 #
vertex $-1 $289 $425 #
straight-curve $-1 -37.751629483623809 -10.275265886450018 0 0 0 -1 I I #
face $-1 $-1 $307 $41 $-1 $426 forward single #
loop $-1 $-1 $427 $180 #
plane-surface $-1 42.153386028626365 0 0 -1 0 0 0 0 1 forward_v I I I I #
coedge $-1 $428 $429 $430 $431 reversed $181 $-1 #
coedge $-1 $432 $183 $185 $305 forward $113 $-1 #
coedge $-1 $183 $432 $428 $433 forward $113 $-1 #
coedge $-1 $430 $186 $183 $302 forward $307 $-1 #
edge $-1 $309 0.035361649873673073 $434 6.8383900410087879 $301 $435 forward 7 unknown #
coedge $-1 $436 $437 $184 $304 forward $296 $-1 #
edge $-1 $438 -56.140816670715509 $308 -51.384380025141652 $303 $439 forward 7 unknown #
edge $-1 $309 77.332508088952807 $438 84.306772057252715 $185 $440 forward 7 unknown #
coedge $-1 $186 $430 $436 $441 forward $307 $-1 #
loop $-1 $-1 $430 $295 #
vertex $-1 $304 $442 #
vertex $-1 $187 $443 #
straight-curve $-1 18.996198909629673 -3.4722374953149036 11.629953451119889 -1 0 0 I I #
coedge $-1 $311 $311 $-1 $444 reversed $190 $-1 #
edge $-1 $445 0 $445 6.2831853071796004 $191 $446 forward 7 unknown #
vertex $-1 $194 $447 #
ellipse-curve $-1 39.603059170350718 -8.9146602082229958 9.2517351283329567 0.68199836817093118 0 0.7313536940579346 0.3656768470289673 0 -0.34099918408546559 1 I I #
coedge $-1 $315 $315 $-1 $448 reversed $197 $-1 #
edge $-1 $449 0 $449 6.2831853071796004 $198 $450 forward 7 unknown #
vertex $-1 $201 $451 #
ellipse-curve $-1 39.603059170350718 -6.873751690882461 9.2517351283329567 0.68199836817093118 0 0.7313536940579346 0.3656768470289673 0 -0.34099918408546559 1 I I #
coedge $-1 $319 $319 $-1 $452 reversed $204 $-1 #
edge $-1 $453 0 $453 6.2831853071796004 $205 $454 forward 7 unknown #
vertex $-1 $208 $455 #
ellipse-curve $-1 39.603059170350718 -4.8328431735419279 9.2517351283329567 0.68199836817093118 0 0.7313536940579346 0.3656768470289673 0 -0.34099918408546559 1 I I #
face $-1 $-1 $335 $45 $-1 $456 forward single #
loop $-1 $-1 $457 $209 #
plane-surface $-1 42.153386028626365 0 0 -1 0 0 0 0 1 forward_v I I I I #
coedge $-1 $458 $459 $460 $461 reversed $210 $-1 #
coedge $-1 $462 $212 $214 $333 forward $132 $-1 #
coedge $-1 $212 $462 $458 $463 forward $132 $-1 #
coedge $-1 $460 $215 $212 $330 forward $335 $-1 #
edge $-1 $337 -8.4722940531973574 $464 -1.6692656620622426 $329 $465 forward 7 unknown #
coedge $-1 $466 $467 $213 $332 forward $324 $-1 #
edge $-1 $468 -56.140816670715509 $336 -51.384380025141652 $331 $469 forward 7 unknown #
edge $-1 $337 77.332508088952807 $468 84.306772057252715 $214 $470 forward 7 unknown #
coedge $-1 $215 $460 $466 $471 forward $335 $-1 #
loop $-1 $-1 $460 $323 #
vertex $-1 $332 $472 #
vertex $-1 $216 $473 #
straight-curve $-1 18.996198909629673 13.543073910827157 11.629953451119889 -1 0 0 I I #
coedge $-1 $339 $339 $-1 $474 reversed $219 $-1 #
edge $-1 $475 0 $475 6.2831853071796004 $220 $476 forward 7 unknown #
vertex $-1 $223 $477 #
ellipse-curve $-1 39.603059170350718 8.1006511979190599 9.2517351283329567 0.68199836817093118 0 0.7313536940579346 0.3656768470289673 0 -0.34099918408546559 1 I I #
coedge $-1 $343 $343 $-1 $478 reversed $226 $-1 #
edge $-1 $479 0 $479 6.2831853071796004 $227 $480 forward 7 unknown #
vertex $-1 $230 $481 #
ellipse-curve $-1 39.603059170350718 10.1415597152596 9.2517351283329567 0.68199836817093118 0 0.7313536940579346 0.3656768470289673 0 -0.34099918408546559 1 I I #
coedge $-1 $347 $347 $-1 $482 reversed $233 $-1 #
edge $-1 $483 0 $483 6.2831853071796004 $234 $484 forward 7 unknown #
vertex $-1 $237 $485 #
ellipse-curve $-1 39.603059170350718 12.182468232600126 9.2517351283329567 0.68199836817093118 0 0.7313536940579346 0.3656768470289673 0 -0.34099918408546559 1 I I #
face $-1 $-1 $364 $49 $-1 $486 forward single #
loop $-1 $-1 $360 $238 #
plane-surface $-1 -39.952507756125087 -10.275265886450018 0 0 -1 0 0 0 -1 forward_v I I I I #
coedge $-1 $487 $488 $356 $489 forward $239 $-1 #
coedge $-1 $356 $241 $243 $362 reversed $151 $-1 #
coedge $-1 $241 $355 $354 $489 reversed $151 $-1 #
coedge $-1 $490 $244 $241 $358 forward $364 $-1 #
edge $-1 $366 -18.04971522872934 $491 -4.8755231434966007 $357 $492 forward 7 unknown #
coedge $-1 $243 $242 $487 $493 reversed $96 $-1 #
coedge $-1 $494 $495 $242 $361 forward $352 $-1 #
edge $-1 $496 -0.45554312129117752 $365 16.262746731709505 $360 $497 forward 7 unknown #
edge $-1 $498 -9.0167608931652224e-015 $366 16.718289853000673 $355 $499 forward 7 unknown #
coedge $-1 $244 $490 $494 $500 forward $364 $-1 #
loop $-1 $-1 $357 $351 #
vertex $-1 $245 $501 #
vertex $-1 $245 $502 #
straight-curve $-1 -28.979193943393625 -2.8706416914493325 11.629953451119889 0 1 0 I I #
coedge $-1 $368 $368 $-1 $503 reversed $248 $-1 #
edge $-1 $504 0 $504 6.2831853071796004 $249 $505 forward 7 unknown #
vertex $-1 $252 $506 #
ellipse-curve $-1 -35.566289986009998 -7.6844187415635297 6.4835498886712379 -0.61566148304635926 0 0.78801074757464917 0.78801074757464917 0 0.61566148304635926 1 I I #
coedge $-1 $372 $372 $-1 $507 reversed $255 $-1 #
edge $-1 $508 0 $508 6.2831853071796004 $256 $509 forward 7 unknown #
vertex $-1 $259 $510 #
ellipse-curve $-1 -35.566289986009998 -3.7981480242337966 6.4835498886712379 -0.61566148304635926 0 0.78801074757464917 0.78801074757464917 0 0.61566148304635926 1 I I #
face $-1 $-1 $275 $39 $-1 $511 reversed single #
loop $-1 $-1 $392 $260 #
plane-surface $-1 0 23.755356925834096 0 0 -1 0 0 0 -1 forward_v I I I I #
coedge $-1 $512 $390 $393 $513 forward $261 $-1 #
coedge $-1 $396 $263 $264 $384 reversed $165 $-1 #
coedge $-1 $390 $512 $263 $382 reversed $261 $-1 #
edge $-1 $397 -11.629953451119889 $514 11.629953451119889 $381 $515 forward 7 unknown #
coedge $-1 $265 $264 $512 $516 forward $105 $-1 #
edge $-1 $388 -42.153386028626365 $514 42.153386028626365 $380 $517 forward 7 unknown #
coedge $-1 $393 $392 $265 $386 reversed $377 $-1 #
edge $-1 $518 -42.153386028626365 $387 42.153386028626365 $385 $519 forward 7 unknown #
vertex $-1 $267 $520 #
vertex $-1 $399 $521 #
straight-curve $-1 42.153386028626365 0 -11.629953451119889 0 -1 0 I I #
coedge $-1 $379 $381 $268 $391 reversed $261 $-1 #
edge $-1 $394 -23.755356925834096 $397 23.755356925834096 $390 $522 forward 7 unknown #
coedge $-1 $385 $269 $274 $400 forward $377 $-1 #
coedge $-1 $269 $385 $379 $513 reversed $377 $-1 #
vertex $-1 $270 $523 #
straight-curve $-1 0 23.755356925834096 11.629953451119889 -1 0 0 I I #
coedge $-1 $271 $380 $273 $399 reversed $165 $-1 #
vertex $-1 $391 $524 #
straight-curve $-1 0 -23.755356925834096 11.629953451119889 1 0 0 I I #
edge $-1 $276 -11.629953451119889 $388 11.629953451119889 $273 $525 forward 7 unknown #
edge $-1 $277 -11.629953451119889 $387 11.629953451119889 $274 $526 forward 7 unknown #
point $-1 42.153386028626365 -23.755356925834096 11.629953451119889 #
point $-1 42.153386028626365 23.755356925834096 11.629953451119889 #
face $-1 $-1 $413 $40 $-1 $527 reversed single #
loop $-1 $-1 $409 $279 #
plane-surface $-1 0 0 -11.629953451119889 0 0 1 1 0 0 forward_v I I I I #
coedge $-1 $528 $529 $287 $417 forward $280 $-1 #
coedge $-1 $282 $421 $411 $530 forward $173 $-1 #
edge $-1 $415 -15.247701222763068 $292 -1.7676101833789897 $282 $531 forward 7 unknown #
coedge $-1 $532 $288 $283 $410 forward $404 $-1 #
edge $-1 $293 1.7676101833789897 $414 15.247701222763068 $409 $533 forward 7 unknown #
coedge $-1 $534 $285 $407 $530 reversed $413 $-1 #
coedge $-1 $285 $534 $532 $535 reversed $413 $-1 #
loop $-1 $-1 $285 $403 #
vertex $-1 $535 $536 #
vertex $-1 $286 $537 #
straight-curve $-1 -37.751629483623809 -23.755356925834096 0 0 0 1 I I #
edge $-1 $422 -11.629953451119889 $419 11.629953451119889 $406 $538 forward 7 unknown #
coedge $-1 $288 $532 $528 $539 forward $404 $-1 #
vertex $-1 $289 $540 #
straight-curve $-1 -19.976253878062543 -10.275265886450018 -11.629953451119889 1 0 0 I I #
coedge $-1 $407 $290 $529 $541 forward $173 $-1 #
vertex $-1 $541 $542 #
straight-curve $-1 -19.976253878062543 -10.275265886450018 11.629953451119889 -1 0 0 I I #
point $-1 -37.751629483623809 -10.275265886450018 11.629953451119889 #
point $-1 -37.751629483623809 -10.275265886450018 -11.629953451119889 #
plane-surface $-1 0 0 11.629953451119889 0 0 1 1 0 0 forward_v I I I I #
coedge $-1 $437 $436 $429 $543 forward $296 $-1 #
coedge $-1 $429 $298 $300 $433 reversed $181 $-1 #
coedge $-1 $298 $428 $427 $543 reversed $181 $-1 #
coedge $-1 $306 $301 $298 $431 forward $307 $-1 #
edge $-1 $434 18.056533402445407 $544 23.157187118996692 $430 $545 forward 7 unknown #
coedge $-1 $300 $299 $437 $546 reversed $113 $-1 #
edge $-1 $547 -84.306772057252715 $434 -77.332508088952807 $428 $548 forward 7 unknown #
vertex $-1 $302 $549 #
straight-curve $-1 37.052732312075079 -3.4368758454412305 11.629953451119896 0 -1 0 I I #
coedge $-1 $427 $303 $306 $441 reversed $296 $-1 #
coedge $-1 $303 $427 $432 $546 forward $296 $-1 #
vertex $-1 $304 $550 #
straight-curve $-1 42.153386028626365 -3.4722374953149036 63.014333476261541 0 0 1 I I #
straight-curve $-1 -19.504683149545663 -3.4722374953149036 64.37059777435104 0.7313536940579346 0 -0.68199836817093118 I I #
edge $-1 $544 -10.275265886450018 $308 -3.4722374953149036 $436 $551 forward 7 unknown #
point $-1 42.153386028626365 -3.4722374953149036 11.629953451119889 #
point $-1 37.052732312075079 -3.4722374953149036 11.629953451119889 #
edge $-1 $552 1 $552 0 $311 $-1 forward 7 unknown #
vertex $-1 $312 $553 #
ellipse-curve $-1 38.829377010200268 -8.9146602082229958 8.4220626067252002 0.68199836817093118 0 0.7313536940579346 0.3656768470289673 0 -0.34099918408546559 1 I I #
point $-1 39.96873601737969 -8.9146602082229958 8.9107359442474969 #
edge $-1 $554 1 $554 0 $315 $-1 forward 7 unknown #
vertex $-1 $316 $555 #
ellipse-curve $-1 38.829377010200268 -6.873751690882461 8.4220626067252002 0.68199836817093118 0 0.7313536940579346 0.3656768470289673 0 -0.34099918408546559 1 I I #
point $-1 39.96873601737969 -6.873751690882461 8.9107359442474969 #
edge $-1 $556 1 $556 0 $319 $-1 forward 7 unknown #
vertex $-1 $320 $557 #
ellipse-curve $-1 38.829377010200268 -4.8328431735419279 8.4220626067252002 0.68199836817093118 0 0.7313536940579346 0.3656768470289673 0 -0.34099918408546559 1 I I #
point $-1 39.96873601737969 -4.8328431735419279 8.9107359442474969 #
plane-surface $-1 0 0 11.629953451119889 0 0 1 1 0 0 forward_v I I I I #
coedge $-1 $467 $466 $459 $558 forward $324 $-1 #
coedge $-1 $459 $326 $328 $463 reversed $210 $-1 #
coedge $-1 $326 $458 $457 $558 reversed $210 $-1 #
coedge $-1 $334 $329 $326 $461 forward $335 $-1 #
edge $-1 $464 18.056533402445407 $559 23.157187118996692 $460 $560 forward 7 unknown #
coedge $-1 $328 $327 $467 $561 reversed $132 $-1 #
edge $-1 $562 -84.306772057252715 $464 -77.332508088952807 $458 $563 forward 7 unknown #
vertex $-1 $330 $564 #
straight-curve $-1 37.052732312075079 5.0707798576298 11.629953451119896 0 -1 0 I I #
coedge $-1 $457 $331 $334 $471 reversed $324 $-1 #
coedge $-1 $331 $457 $462 $561 forward $324 $-1 #
vertex $-1 $332 $565 #
straight-curve $-1 42.153386028626365 13.543073910827157 63.014333476261541 0 0 1 I I #
straight-curve $-1 -19.504683149545663 13.543073910827157 64.37059777435104 0.7313536940579346 0 -0.68199836817093118 I I #
edge $-1 $559 6.7400455196920426 $336 13.543073910827157 $466 $566 forward 7 unknown #
point $-1 42.153386028626365 13.543073910827157 11.629953451119889 #
point $-1 37.052732312075079 13.543073910827157 11.629953451119889 #
edge $-1 $567 1 $567 0 $339 $-1 forward 7 unknown #
vertex $-1 $340 $568 #
ellipse-curve $-1 38.829377010200268 8.1006511979190599 8.4220626067252002 0.68199836817093118 0 0.7313536940579346 0.3656768470289673 0 -0.34099918408546559 1 I I #
point $-1 39.96873601737969 8.1006511979190599 8.9107359442474969 #
edge $-1 $569 1 $569 0 $343 $-1 forward 7 unknown #
vertex $-1 $344 $570 #
ellipse-curve $-1 38.829377010200268 10.1415597152596 8.4220626067252002 0.68199836817093118 0 0.7313536940579346 0.3656768470289673 0 -0.34099918408546559 1 I I #
point $-1 39.96873601737969 10.1415597152596 8.9107359442474969 #
edge $-1 $571 1 $571 0 $347 $-1 forward 7 unknown #
vertex $-1 $348 $572 #
ellipse-curve $-1 38.829377010200268 12.182468232600126 8.4220626067252002 0.68199836817093118 0 0.7313536940579346 0.3656768470289673 0 -0.34099918408546559 1 I I #
point $-1 39.96873601737969 12.182468232600126 8.9107359442474969 #
plane-surface $-1 0 0 11.629953451119889 0 0 1 1 0 0 forward_v I I I I #
coedge $-1 $573 $354 $359 $493 forward $239 $-1 #
coedge $-1 $354 $573 $490 $574 reversed $239 $-1 #
edge $-1 $491 22.255940949212039 $498 32.548748074109341 $354 $575 forward 7 unknown #
coedge $-1 $363 $357 $488 $574 forward $364 $-1 #
vertex $-1 $574 $576 #
straight-curve $-1 -47.028909172122965 -1.2073008793473115 11.629953451119889 -1 0 0 I I #
edge $-1 $498 -1.663340812102021 $496 7.4046241950006859 $487 $577 forward 7 unknown #
coedge $-1 $495 $360 $363 $500 reversed $352 $-1 #
coedge $-1 $360 $494 $573 $578 reversed $352 $-1 #
vertex $-1 $578 $579 #
straight-curve $-1 -41.794413153065214 -10.275265886450018 1.6176066798682822 0.78801074757464917 0 0.61566148304635926 I I #
vertex $-1 $493 $580 #
straight-curve $-1 -42.153386028626358 -1.2073008793473115 1.3371463262225944 0.78801074757464917 0 0.61566148304635926 I I #
edge $-1 $581 -22.177132150563821 $365 -9.0029400653310816 $363 $582 forward 7 unknown #
point $-1 -28.979193943393625 -10.275265886450018 11.629953451119889 #
point $-1 -28.979193943393625 -1.2073008793473115 11.629953451119889 #
edge $-1 $583 1 $583 0 $368 $-1 forward 7 unknown #
vertex $-1 $369 $584 #
ellipse-curve $-1 -34.720030236981763 -7.6844187415635297 5.4003868261155521 -0.61566148304635926 0 0.78801074757464917 0.78801074757464917 0 0.61566148304635926 1 I I #
point $-1 -34.778279238435346 -7.6844187415635297 7.0992113717175984 #
edge $-1 $585 1 $585 0 $372 $-1 forward 7 unknown #
vertex $-1 $373 $586 #
ellipse-curve $-1 -34.720030236981763 -3.7981480242337966 5.4003868261155521 -0.61566148304635926 0 0.78801074757464917 0.78801074757464917 0 0.61566148304635926 1 I I #
point $-1 -34.778279238435346 -3.7981480242337966 7.0992113717175984 #
plane-surface $-1 42.153386028626365 0 0 -1 0 0 0 0 1 forward_v I I I I #
coedge $-1 $381 $379 $383 $516 reversed $261 $-1 #
edge $-1 $394 -11.629953451119889 $518 11.629953451119889 $393 $587 forward 7 unknown #
vertex $-1 $516 $588 #
straight-curve $-1 -42.153386028626365 -23.755356925834096 0 0 0 -1 I I #
edge $-1 $514 -23.755356925834096 $518 23.755356925834096 $512 $589 forward 7 unknown #
straight-curve $-1 0 -23.755356925834096 -11.629953451119889 -1 0 0 I I #
vertex $-1 $386 $590 #
straight-curve $-1 0 23.755356925834096 -11.629953451119889 1 0 0 I I #
point $-1 42.153386028626365 23.755356925834096 -11.629953451119889 #
point $-1 42.153386028626365 -23.755356925834096 -11.629953451119889 #
straight-curve $-1 -42.153386028626365 0 11.629953451119889 0 -1 0 I I #
point $-1 -42.153386028626365 23.755356925834096 11.629953451119889 #
point $-1 -42.153386028626365 -23.755356925834096 11.629953451119889 #
straight-curve $-1 42.153386028626365 -23.755356925834096 0 0 0 -1 I I #
straight-curve $-1 42.153386028626365 23.755356925834096 0 0 0 -1 I I #
plane-surface $-1 0 -23.755356925834096 0 0 1 0 0 0 1 forward_v I I I I #
coedge $-1 $591 $406 $418 $539 reversed $280 $-1 #
coedge $-1 $406 $591 $421 $541 reversed $280 $-1 #
edge $-1 $592 -42.153386028626365 $415 -37.751629483623809 $411 $593 forward 7 unknown #
straight-curve $-1 -37.751629483623809 -8.5076557030710287 11.629953451119889 0 1 0 I I #
coedge $-1 $418 $409 $412 $535 forward $404 $-1 #
straight-curve $-1 -37.751629483623809 -8.5076557030710287 -11.629953451119889 0 -1 0 I I #
coedge $-1 $412 $411 $591 $594 forward $413 $-1 #
edge $-1 $414 37.751629483623809 $595 42.153386028626365 $412 $596 forward 7 unknown #
point $-1 -37.751629483623809 -23.755356925834096 -11.629953451119889 #
point $-1 -37.751629483623809 -23.755356925834096 11.629953451119889 #
straight-curve $-1 -42.153386028626365 -10.275265886450018 0 0 0 -1 I I #
edge $-1 $595 -23.755356925834096 $419 -10.275265886450018 $528 $597 forward 7 unknown #
point $-1 -42.153386028626365 -10.275265886450018 -11.629953451119889 #
edge $-1 $422 10.275265886450018 $592 23.755356925834096 $529 $598 forward 7 unknown #
point $-1 -42.153386028626365 -10.275265886450018 11.629953451119889 #
edge $-1 $544 51.384380025141652 $547 56.140816670715509 $427 $599 forward 7 unknown #
vertex $-1 $441 $600 #
straight-curve $-1 18.996198909629673 -10.275265886450018 11.629953451119889 1 0 0 I I #
edge $-1 $547 -6.8383900410087879 $438 -0.035361649873673073 $437 $601 forward 7 unknown #
vertex $-1 $546 $602 #
straight-curve $-1 -19.504683149545663 -10.275265886450018 64.37059777435104 -0.7313536940579346 0 0.68199836817093118 I I #
point $-1 37.052732312075079 -10.275265886450018 11.629953451119889 #
point $-1 42.153386028626372 -3.4722374953149036 6.8735168055460321 #
straight-curve $-1 42.153386028626365 0 11.629953451119889 0 1 0 I I #
vertex $-1 $444 $603 #
point $-1 39.19505385722924 -8.9146602082229958 8.0810634226397333 #
vertex $-1 $448 $604 #
point $-1 39.19505385722924 -6.873751690882461 8.0810634226397333 #
vertex $-1 $452 $605 #
point $-1 39.19505385722924 -4.8328431735419279 8.0810634226397333 #
edge $-1 $559 51.384380025141652 $562 56.140816670715509 $457 $606 forward 7 unknown #
vertex $-1 $471 $607 #
straight-curve $-1 18.996198909629673 6.7400455196920426 11.629953451119889 1 0 0 I I #
edge $-1 $562 1.6692656620622426 $468 8.4722940531973574 $467 $608 forward 7 unknown #
vertex $-1 $561 $609 #
straight-curve $-1 -19.504683149545663 6.7400455196920426 64.37059777435104 -0.7313536940579346 0 0.68199836817093118 I I #
point $-1 37.052732312075079 6.7400455196920426 11.629953451119889 #
point $-1 42.153386028626372 13.543073910827157 6.8735168055460321 #
straight-curve $-1 42.153386028626365 0 11.629953451119889 0 1 0 I I #
vertex $-1 $474 $610 #
point $-1 39.19505385722924 8.1006511979190599 8.0810634226397333 #
vertex $-1 $478 $611 #
point $-1 39.19505385722924 10.1415597152596 8.0810634226397333 #
vertex $-1 $482 $612 #
point $-1 39.19505385722924 12.182468232600126 8.0810634226397333 #
coedge $-1 $488 $487 $495 $578 forward $239 $-1 #
edge $-1 $491 1.2073008793473115 $581 10.275265886450018 $488 $613 forward 7 unknown #
straight-curve $-1 -42.153386028626365 -1.2073008793473115 33.885894400331928 0 0 -1 I I #
point $-1 -42.153386028626365 -1.2073008793473115 11.629953451119889 #
straight-curve $-1 -42.153386028626365 -2.8706416914493325 1.337146326222588 0 -1 0 I I #
edge $-1 $496 1.3371463262225889 $581 11.629953451119889 $573 $614 forward 7 unknown #
point $-1 -42.153386028626365 -10.275265886450018 1.3371463262225889 #
point $-1 -42.153386028626365 -1.2073008793473115 1.3371463262225889 #
vertex $-1 $578 $615 #
straight-curve $-1 -19.976253878062543 -10.275265886450018 11.629953451119889 1 0 0 I I #
vertex $-1 $503 $616 #
point $-1 -33.932019489407118 -7.6844187415635297 6.0160483091619117 #
vertex $-1 $507 $617 #
point $-1 -33.932019489407118 -3.7981480242337966 6.0160483091619117 #
straight-curve $-1 -42.153386028626365 23.755356925834096 0 0 0 -1 I I #
point $-1 -42.153386028626365 -23.755356925834096 -11.629953451119889 #
straight-curve $-1 -42.153386028626365 0 -11.629953451119889 0 1 0 I I #
point $-1 -42.153386028626365 23.755356925834096 -11.629953451119889 #
coedge $-1 $529 $528 $534 $594 reversed $280 $-1 #
vertex $-1 $541 $618 #
straight-curve $-1 0 -23.755356925834096 11.629953451119889 1 0 0 I I #
edge $-1 $592 -11.629953451119889 $595 11.629953451119889 $591 $619 forward 7 unknown #
vertex $-1 $539 $620 #
straight-curve $-1 0 -23.755356925834096 -11.629953451119889 -1 0 0 I I #
straight-curve $-1 -42.153386028626365 0 -11.629953451119889 0 1 0 I I #
straight-curve $-1 -42.153386028626365 0 11.629953451119889 0 -1 0 I I #
straight-curve $-1 42.153386028626365 -10.275265886450018 63.014333476261541 0 0 -1 I I #
point $-1 42.153386028626365 -10.275265886450018 11.629953451119889 #
straight-curve $-1 42.153386028626365 -3.4368758454412305 6.8735168055460321 0 1 0 I I #
point $-1 42.153386028626372 -10.275265886450018 6.8735168055460321 #
point $-1 38.488377826114807 -8.9146602082229958 8.0563857596962318 #
point $-1 38.488377826114807 -6.873751690882461 8.0563857596962318 #
point $-1 38.488377826114807 -4.8328431735419279 8.0563857596962318 #
straight-curve $-1 42.153386028626365 6.7400455196920426 63.014333476261541 0 0 -1 I I #
point $-1 42.153386028626365 6.7400455196920426 11.629953451119889 #
straight-curve $-1 42.153386028626365 5.0707798576298 6.8735168055460321 0 1 0 I I #
point $-1 42.153386028626372 6.7400455196920426 6.8735168055460321 #
point $-1 38.488377826114807 8.1006511979190599 8.0563857596962318 #
point $-1 38.488377826114807 10.1415597152596 8.0563857596962318 #
point $-1 38.488377826114807 12.182468232600126 8.0563857596962318 #
straight-curve $-1 -42.153386028626365 0 11.629953451119889 0 -1 0 I I #
straight-curve $-1 -42.153386028626365 -10.275265886450018 0 0 0 1 I I #
point $-1 -42.153386028626365 -10.275265886450018 11.629953451119889 #
point $-1 -34.104368753935411 -7.6844187415635297 4.6123760785409029 #
point $-1 -34.104368753935411 -3.7981480242337966 4.6123760785409029 #
point $-1 -42.153386028626365 -23.755356925834096 11.629953451119889 #
straight-curve $-1 -42.153386028626365 -23.755356925834096 0 0 0 -1 I I #
point $-1 -42.153386028626365 -23.755356925834096 -11.629953451119889 #
End-of-ACIS-data 