500 0 5 0           
7 Unknown 11 ACIS 5.0 NT 24 Thu Mar 25 15:23:49 1999 
-1 9.9999999999999995e-007 1e-010 
body $-1 $5 $-1 $6 #
body $-1 $7 $-1 $8 #
body $-1 $9 $-1 $10 #
body $-1 $11 $-1 $12 #
body $-1 $13 $-1 $14 #
lump $-1 $-1 $15 $0 #
transform $-1 1 0 0 0 1 0 0 0 1 54.156926175725573 29.13354051353182 7.1678449938044633 1 rotate no_reflect no_shear #
lump $-1 $-1 $16 $1 #
transform $-1 1 0 0 0 1 0 0 0 1 54.156926175725573 29.13354051353182 7.1678449938044633 1 rotate no_reflect no_shear #
lump $-1 $-1 $17 $2 #
transform $-1 1 0 0 0 1 0 0 0 1 54.156926175725573 29.13354051353182 7.1678449938044633 1 rotate no_reflect no_shear #
lump $-1 $-1 $18 $3 #
transform $-1 1 0 0 0 1 0 0 0 1 54.156926175725573 29.13354051353182 7.1678449938044633 1 rotate no_reflect no_shear #
lump $-1 $-1 $19 $4 #
transform $-1 1 0 0 0 1 0 0 0 1 54.156926175725573 29.13354051353182 7.1678449938044633 1 rotate no_reflect no_shear #
shell $-1 $-1 $-1 $20 $-1 $5 #
shell $-1 $-1 $-1 $21 $-1 $7 #
shell $-1 $-1 $-1 $22 $-1 $9 #
shell $-1 $-1 $-1 $23 $-1 $11 #
shell $-1 $-1 $-1 $24 $-1 $13 #
face $-1 $25 $26 $15 $-1 $27 forward single #
face $-1 $28 $29 $16 $-1 $30 reversed single #
face $-1 $31 $32 $17 $-1 $33 forward single #
face $-1 $34 $35 $18 $-1 $36 forward single #
face $-1 $37 $38 $19 $-1 $39 forward single #
face $-1 $40 $41 $15 $-1 $42 reversed single #
loop $-1 $-1 $43 $20 #
plane-surface $-1 0 0 7.1678449938044633 0 0 1 1 0 0 forward_v I I I I #
face $-1 $44 $45 $16 $-1 $46 reversed single #
loop $-1 $-1 $47 $21 #
plane-surface $-1 44.966264248013019 -29.133540513531827 0.2024966957651344 0 -0.66913061440640931 0.74314481823134659 1 0 0 forward_v I I I I #
face $-1 $48 $49 $17 $-1 $50 forward single #
loop $-1 $51 $52 $22 #
cone-surface $-1 39.451867091385481 -24.931073795588095 3.3135984356691326 0 0.66913061440640931 -0.74314481823134659 0.5 0 0 1 I I 0 1 0.5 forward I I I I #
face $-1 $53 $54 $18 $-1 $55 forward single #
loop $-1 $56 $57 $23 #
cone-surface $-1 44.966264248013005 -24.931073795588095 3.3135984356691326 0 0.66913061440640931 -0.74314481823134659 0.5 0 0 1 I I 0 1 0.5 forward I I I I #
face $-1 $58 $59 $19 $-1 $60 forward single #
loop $-1 $61 $62 $24 #
cone-surface $-1 50.480661404640529 -24.931073795588095 3.3135984356691326 0 0.66913061440640931 -0.74314481823134659 0.5 0 0 1 I I 0 1 0.5 forward I I I I #
face $-1 $63 $64 $15 $-1 $65 reversed single #
loop $-1 $-1 $66 $25 #
plane-surface $-1 0 0 -7.1678449938044633 0 0 1 1 0 0 forward_v I I I I #
coedge $-1 $67 $68 $69 $70 forward $26 $-1 #
face $-1 $71 $72 $16 $-1 $73 reversed single #
loop $-1 $-1 $74 $28 #
plane-surface $-1 35.775602320300464 -101.60965508618344 80.695374813421211 1 0 0 0 0.66913061440640931 -0.74314481823134659 forward_v I I I I #
coedge $-1 $75 $76 $77 $78 reversed $29 $-1 #
face $-1 $-1 $79 $17 $-1 $80 forward single #
loop $-1 $81 $82 $31 #
cone-surface $-1 39.451867091385481 -24.429225834783288 2.7562398219956226 0 0.66913061440640931 -0.74314481823134659 0.25 0 0 1 I I -0.70710678118654746 0.70710678118654746 0.25 forward I I I I #
loop $-1 $-1 $83 $22 #
coedge $-1 $52 $52 $84 $85 reversed $32 $-1 #
face $-1 $-1 $86 $18 $-1 $87 forward single #
loop $-1 $88 $89 $34 #
cone-surface $-1 44.966264248013005 -24.429225834783288 2.7562398219956226 0 0.66913061440640931 -0.74314481823134659 0.25 0 0 1 I I -0.70710678118654746 0.70710678118654746 0.25 forward I I I I #
loop $-1 $-1 $90 $23 #
coedge $-1 $57 $57 $91 $92 reversed $35 $-1 #
face $-1 $-1 $93 $19 $-1 $94 forward single #
loop $-1 $95 $96 $37 #
cone-surface $-1 50.480661404640529 -24.429225834783288 2.7562398219956226 0 0.66913061440640931 -0.74314481823134659 0.25 0 0 1 I I -0.70710678118654746 0.70710678118654746 0.25 forward I I I I #
loop $-1 $-1 $97 $24 #
coedge $-1 $62 $62 $98 $99 reversed $38 $-1 #
face $-1 $100 $101 $15 $-1 $102 reversed single #
loop $-1 $-1 $103 $40 #
plane-surface $-1 0 -29.13354051353182 0 0 1 0 0 0 1 forward_v I I I I #
coedge $-1 $104 $105 $106 $107 forward $41 $-1 #
coedge $-1 $108 $43 $109 $110 forward $26 $-1 #
coedge $-1 $43 $108 $111 $112 forward $26 $-1 #
coedge $-1 $113 $114 $43 $70 reversed $115 $-1 #
edge $-1 $116 -29.13354051353182 $117 29.13354051353182 $69 $118 forward 7 unknown #
face $-1 $119 $120 $16 $-1 $121 forward single #
loop $-1 $-1 $122 $44 #
plane-surface $-1 0 -29.13354051353182 0 0 1 0 0 0 1 forward_v I I I I #
coedge $-1 $123 $124 $125 $126 reversed $45 $-1 #
coedge $-1 $127 $47 $128 $129 reversed $29 $-1 #
coedge $-1 $47 $127 $123 $130 forward $29 $-1 #
coedge $-1 $125 $131 $47 $78 forward $120 $-1 #
edge $-1 $132 -31.673794051719064 $133 -13.292470196293955 $77 $134 forward 7 unknown #
loop $-1 $-1 $84 $48 #
plane-surface $-1 44.966264248013019 -29.133540513531827 0.2024966957651344 0 -0.66913061440640931 0.74314481823134659 1 0 0 forward_v I I I I #
loop $-1 $-1 $135 $31 #
coedge $-1 $82 $82 $83 $136 reversed $49 $-1 #
coedge $-1 $83 $83 $82 $136 forward $51 $-1 #
coedge $-1 $84 $84 $52 $85 forward $79 $-1 #
edge $-1 $137 -3.4290345841233657e-015 $137 6.2831853071795969 $84 $138 forward 7 unknown #
loop $-1 $-1 $91 $53 #
plane-surface $-1 44.966264248013019 -29.133540513531827 0.2024966957651344 0 -0.66913061440640931 0.74314481823134659 1 0 0 forward_v I I I I #
loop $-1 $-1 $139 $34 #
coedge $-1 $89 $89 $90 $140 reversed $54 $-1 #
coedge $-1 $90 $90 $89 $140 forward $56 $-1 #
coedge $-1 $91 $91 $57 $92 forward $86 $-1 #
edge $-1 $141 -3.4290345841233657e-015 $141 6.2831853071795969 $91 $142 forward 7 unknown #
loop $-1 $-1 $98 $58 #
plane-surface $-1 44.966264248013019 -29.133540513531827 0.2024966957651344 0 -0.66913061440640931 0.74314481823134659 1 0 0 forward_v I I I I #
loop $-1 $-1 $143 $37 #
coedge $-1 $96 $96 $97 $144 reversed $59 $-1 #
coedge $-1 $97 $97 $96 $144 forward $61 $-1 #
coedge $-1 $98 $98 $62 $99 forward $93 $-1 #
edge $-1 $145 -3.4290345841233657e-015 $145 6.2831853071795969 $98 $146 forward 7 unknown #
face $-1 $147 $148 $15 $-1 $149 reversed single #
loop $-1 $-1 $150 $63 #
plane-surface $-1 -54.156926175725573 0 0 1 0 0 0 0 -1 forward_v I I I I #
coedge $-1 $151 $111 $152 $153 forward $64 $-1 #
coedge $-1 $154 $66 $151 $155 forward $41 $-1 #
coedge $-1 $66 $154 $156 $157 forward $41 $-1 #
coedge $-1 $114 $113 $66 $107 reversed $115 $-1 #
edge $-1 $158 -29.13354051353182 $159 29.13354051353182 $106 $160 forward 7 unknown #
coedge $-1 $68 $67 $161 $162 forward $26 $-1 #
coedge $-1 $163 $164 $67 $110 reversed $148 $-1 #
edge $-1 $117 -54.156926175725573 $165 54.156926175725573 $109 $166 forward 7 unknown #
coedge $-1 $103 $167 $68 $112 reversed $64 $-1 #
edge $-1 $168 -54.156926175725573 $116 54.156926175725573 $111 $169 forward 7 unknown #
coedge $-1 $106 $69 $167 $170 forward $115 $-1 #
coedge $-1 $69 $106 $163 $171 reversed $115 $-1 #
loop $-1 $-1 $113 $147 #
vertex $-1 $70 $172 #
vertex $-1 $70 $173 #
straight-curve $-1 54.156926175725573 0 7.1678449938044633 0 1 0 I I #
face $-1 $-1 $174 $16 $-1 $175 reversed single #
loop $-1 $-1 $125 $71 #
plane-surface $-1 0 0 7.1678449938044633 0 0 1 1 0 0 forward_v I I I I #
coedge $-1 $176 $177 $124 $178 forward $72 $-1 #
coedge $-1 $124 $74 $76 $130 reversed $45 $-1 #
coedge $-1 $74 $123 $122 $178 reversed $45 $-1 #
coedge $-1 $179 $77 $74 $126 forward $120 $-1 #
edge $-1 $133 -29.407089851040951 $180 -21.671287029559899 $125 $181 forward 7 unknown #
coedge $-1 $76 $75 $176 $182 reversed $29 $-1 #
coedge $-1 $183 $184 $75 $129 forward $174 $-1 #
edge $-1 $185 -10.757471465455785 $132 -0.34792189759102077 $128 $186 forward 7 unknown #
edge $-1 $187 9.5705178614098683e-015 $133 10.409549567864772 $123 $188 forward 7 unknown #
coedge $-1 $77 $179 $183 $189 forward $120 $-1 #
vertex $-1 $129 $190 #
vertex $-1 $78 $191 #
straight-curve $-1 22.483132124006509 -21.397737692050768 7.1678449938044633 -1 0 0 I I #
coedge $-1 $135 $135 $-1 $192 reversed $81 $-1 #
edge $-1 $193 0 $193 6.2831853071796004 $82 $194 forward 7 unknown #
vertex $-1 $85 $195 #
ellipse-curve $-1 39.451867091385481 -25.265639102791294 3.6851708447848006 0 -0.66913061440640931 0.74314481823134659 0.5 0 0 1 I I #
coedge $-1 $139 $139 $-1 $196 reversed $88 $-1 #
edge $-1 $197 0 $197 6.2831853071796004 $89 $198 forward 7 unknown #
vertex $-1 $92 $199 #
ellipse-curve $-1 44.966264248013005 -25.265639102791294 3.6851708447848006 0 -0.66913061440640931 0.74314481823134659 0.5 0 0 1 I I #
coedge $-1 $143 $143 $-1 $200 reversed $95 $-1 #
edge $-1 $201 0 $201 6.2831853071796004 $96 $202 forward 7 unknown #
vertex $-1 $99 $203 #
ellipse-curve $-1 50.480661404640529 -25.265639102791294 3.6851708447848006 0 -0.66913061440640931 0.74314481823134659 0.5 0 0 1 I I #
face $-1 $-1 $115 $15 $-1 $204 reversed single #
loop $-1 $-1 $163 $100 #
plane-surface $-1 0 29.13354051353182 0 0 -1 0 0 0 -1 forward_v I I I I #
coedge $-1 $205 $161 $164 $206 forward $101 $-1 #
coedge $-1 $167 $103 $104 $155 reversed $64 $-1 #
coedge $-1 $161 $205 $103 $153 reversed $101 $-1 #
edge $-1 $168 -7.1678449938044633 $207 7.1678449938044633 $152 $208 forward 7 unknown #
coedge $-1 $105 $104 $205 $209 forward $41 $-1 #
edge $-1 $159 -54.156926175725573 $207 54.156926175725573 $151 $210 forward 7 unknown #
coedge $-1 $164 $163 $105 $157 reversed $148 $-1 #
edge $-1 $211 -54.156926175725573 $158 54.156926175725573 $156 $212 forward 7 unknown #
vertex $-1 $107 $213 #
vertex $-1 $170 $214 #
straight-curve $-1 54.156926175725573 0 -7.1678449938044633 0 -1 0 I I #
coedge $-1 $150 $152 $108 $162 reversed $101 $-1 #
edge $-1 $165 -29.13354051353182 $168 29.13354051353182 $161 $215 forward 7 unknown #
coedge $-1 $156 $109 $114 $171 forward $148 $-1 #
coedge $-1 $109 $156 $150 $206 reversed $148 $-1 #
vertex $-1 $110 $216 #
straight-curve $-1 0 29.13354051353182 7.1678449938044633 -1 0 0 I I #
coedge $-1 $111 $151 $113 $170 reversed $64 $-1 #
vertex $-1 $162 $217 #
straight-curve $-1 0 -29.13354051353182 7.1678449938044633 1 0 0 I I #
edge $-1 $116 -7.1678449938044633 $159 7.1678449938044633 $113 $218 forward 7 unknown #
edge $-1 $117 -7.1678449938044633 $158 7.1678449938044633 $114 $219 forward 7 unknown #
point $-1 54.156926175725573 -29.13354051353182 7.1678449938044633 #
point $-1 54.156926175725573 29.13354051353182 7.1678449938044633 #
loop $-1 $-1 $128 $119 #
plane-surface $-1 54.156926175725573 0 0 -1 0 0 0 0 1 forward_v I I I I #
coedge $-1 $220 $122 $127 $182 forward $72 $-1 #
coedge $-1 $122 $220 $179 $221 reversed $72 $-1 #
edge $-1 $180 33.17984241290614 $187 40.145190710945464 $122 $222 forward 7 unknown #
coedge $-1 $131 $125 $177 $221 forward $120 $-1 #
vertex $-1 $221 $223 #
straight-curve $-1 35.775602320300464 -50.804827543091719 7.167844993804465 0 -1 0 I I #
edge $-1 $187 13.292470196293955 $185 31.673794051719064 $176 $224 forward 7 unknown #
coedge $-1 $184 $128 $131 $189 reversed $174 $-1 #
coedge $-1 $128 $183 $220 $225 forward $174 $-1 #
vertex $-1 $182 $226 #
straight-curve $-1 54.156926175725573 -21.139181336706784 7.4006501869049872 0 0.74314481823134659 0.66913061440640931 I I #
vertex $-1 $182 $227 #
straight-curve $-1 35.775602320300464 -29.133540513531827 0.2024966957651344 0 0.74314481823134659 0.66913061440640931 I I #
edge $-1 $228 -29.13354051353182 $132 -21.397737692050768 $183 $229 forward 7 unknown #
point $-1 54.156926175725573 -21.397737692050768 7.1678449938044633 #
point $-1 35.775602320300464 -21.397737692050768 7.1678449938044633 #
edge $-1 $230 1 $230 0 $135 $-1 forward 7 unknown #
vertex $-1 $136 $231 #
ellipse-curve $-1 39.451867091385481 -24.596508488384892 2.9420260265534592 0 -0.66913061440640931 0.74314481823134659 0.5 0 0 1 I I #
point $-1 39.951867091385481 -25.265639102791301 3.6851708447848059 #
edge $-1 $232 1 $232 0 $139 $-1 forward 7 unknown #
vertex $-1 $140 $233 #
ellipse-curve $-1 44.966264248013005 -24.596508488384892 2.9420260265534592 0 -0.66913061440640931 0.74314481823134659 0.5 0 0 1 I I #
point $-1 45.466264248013005 -25.265639102791301 3.6851708447848059 #
edge $-1 $234 1 $234 0 $143 $-1 forward 7 unknown #
vertex $-1 $144 $235 #
ellipse-curve $-1 50.480661404640529 -24.596508488384892 2.9420260265534592 0 -0.66913061440640931 0.74314481823134659 0.5 0 0 1 I I #
point $-1 50.980661404640529 -25.265639102791301 3.6851708447848059 #
plane-surface $-1 54.156926175725573 0 0 -1 0 0 0 0 1 forward_v I I I I #
coedge $-1 $152 $150 $154 $209 reversed $101 $-1 #
edge $-1 $165 -7.1678449938044633 $211 7.1678449938044633 $164 $236 forward 7 unknown #
vertex $-1 $209 $237 #
straight-curve $-1 -54.156926175725573 -29.13354051353182 0 0 0 -1 I I #
edge $-1 $207 -29.13354051353182 $211 29.13354051353182 $205 $238 forward 7 unknown #
straight-curve $-1 0 -29.13354051353182 -7.1678449938044633 -1 0 0 I I #
vertex $-1 $157 $239 #
straight-curve $-1 0 29.13354051353182 -7.1678449938044633 1 0 0 I I #
point $-1 54.156926175725573 29.13354051353182 -7.1678449938044633 #
point $-1 54.156926175725573 -29.13354051353182 -7.1678449938044633 #
straight-curve $-1 -54.156926175725573 0 7.1678449938044633 0 -1 0 I I #
point $-1 -54.156926175725573 29.13354051353182 7.1678449938044633 #
point $-1 -54.156926175725573 -29.13354051353182 7.1678449938044633 #
straight-curve $-1 54.156926175725573 -29.13354051353182 0 0 0 -1 I I #
straight-curve $-1 54.156926175725573 29.13354051353182 0 0 0 -1 I I #
coedge $-1 $177 $176 $184 $225 reversed $72 $-1 #
edge $-1 $180 35.775602320300464 $228 54.156926175725573 $177 $240 forward 7 unknown #
straight-curve $-1 35.775602320300464 -29.13354051353182 40.347687406710605 0 0 -1 I I #
point $-1 35.775602320300464 -29.13354051353182 7.1678449938044633 #
straight-curve $-1 22.483132124006509 -29.13354051353182 0.20249669576514057 1 0 0 I I #
edge $-1 $228 -7.1678449938044633 $185 -0.20249669576514082 $184 $241 forward 7 unknown #
point $-1 54.156926175725573 -29.13354051353182 0.20249669576514082 #
point $-1 35.775602320300464 -29.13354051353182 0.20249669576514082 #
vertex $-1 $189 $242 #
straight-curve $-1 54.156926175725573 0 7.1678449938044633 0 1 0 I I #
vertex $-1 $192 $243 #
point $-1 39.951867091385481 -24.596508488384892 2.9420260265534592 #
vertex $-1 $196 $244 #
point $-1 45.466264248013005 -24.596508488384892 2.9420260265534592 #
vertex $-1 $200 $245 #
point $-1 50.980661404640529 -24.596508488384892 2.9420260265534592 #
straight-curve $-1 -54.156926175725573 29.13354051353182 0 0 0 -1 I I #
point $-1 -54.156926175725573 -29.13354051353182 -7.1678449938044633 #
straight-curve $-1 -54.156926175725573 0 -7.1678449938044633 0 1 0 I I #
point $-1 -54.156926175725573 29.13354051353182 -7.1678449938044633 #
straight-curve $-1 0 -29.13354051353182 7.1678449938044633 1 0 0 I I #
straight-curve $-1 54.156926175725573 -29.13354051353182 0 0 0 -1 I I #
point $-1 54.156926175725573 -29.13354051353182 7.1678449938044633 #
point $-1 39.451867091385481 -24.261943181181685 2.5704536174377859 #
point $-1 44.966264248013005 -24.261943181181685 2.5704536174377859 #
point $-1 50.480661404640529 -24.261943181181685 2.5704536174377859 #
End-of-ACIS-data 