500 0 7 0           
7 Unknown 11 ACIS 5.0 NT 24 Fri Mar 26 02:39:51 1999 
-1 9.9999999999999995e-007 1e-010 
body $-1 $7 $-1 $8 #
body $-1 $9 $-1 $10 #
body $-1 $11 $-1 $12 #
body $-1 $13 $-1 $14 #
body $-1 $15 $-1 $16 #
body $-1 $17 $-1 $18 #
body $-1 $19 $-1 $20 #
lump $-1 $-1 $21 $0 #
transform $-1 1 0 0 0 1 0 0 0 1 67.283547471541496 41.444669343908735 10.265103532862165 1 rotate no_reflect no_shear #
lump $-1 $-1 $22 $1 #
transform $-1 1 0 0 0 1 0 0 0 1 67.283547471541496 41.444669343908735 10.265103532862165 1 rotate no_reflect no_shear #
lump $-1 $-1 $23 $2 #
transform $-1 1 0 0 0 1 0 0 0 1 67.283547471541496 41.444669343908735 10.265103532862165 1 rotate no_reflect no_shear #
lump $-1 $-1 $24 $3 #
transform $-1 1 0 0 0 1 0 0 0 1 67.283547471541496 41.444669343908735 10.265103532862165 1 rotate no_reflect no_shear #
lump $-1 $-1 $25 $4 #
transform $-1 1 0 0 0 1 0 0 0 1 67.283547471541496 41.444669343908735 10.265103532862165 1 rotate no_reflect no_shear #
lump $-1 $-1 $26 $5 #
transform $-1 1 0 0 0 1 0 0 0 1 67.283547471541496 41.444669343908735 10.265103532862165 1 rotate no_reflect no_shear #
lump $-1 $-1 $27 $6 #
transform $-1 1 0 0 0 1 0 0 0 1 67.283547471541496 41.444669343908735 10.265103532862165 1 rotate no_reflect no_shear #
shell $-1 $-1 $-1 $28 $-1 $7 #
shell $-1 $-1 $-1 $29 $-1 $9 #
shell $-1 $-1 $-1 $30 $-1 $11 #
shell $-1 $-1 $-1 $31 $-1 $13 #
shell $-1 $-1 $-1 $32 $-1 $15 #
shell $-1 $-1 $-1 $33 $-1 $17 #
shell $-1 $-1 $-1 $34 $-1 $19 #
face $-1 $35 $36 $21 $-1 $37 reversed single #
face $-1 $38 $39 $22 $-1 $40 forward single #
face $-1 $41 $42 $23 $-1 $43 forward single #
face $-1 $44 $45 $24 $-1 $46 reversed single #
face $-1 $47 $48 $25 $-1 $49 forward single #
face $-1 $50 $51 $26 $-1 $52 reversed single #
face $-1 $53 $54 $27 $-1 $55 forward single #
face $-1 $56 $57 $21 $-1 $58 forward single #
loop $-1 $-1 $59 $28 #
plane-surface $-1 67.283547471541496 0 0 -1 0 0 0 0 1 forward_v I I I I #
face $-1 $60 $61 $22 $-1 $62 reversed single #
loop $-1 $-1 $63 $29 #
plane-surface $-1 -67.283547471541496 0 0 1 0 0 0 0 -1 forward_v I I I I #
face $-1 $64 $65 $23 $-1 $66 reversed single #
loop $-1 $-1 $67 $30 #
plane-surface $-1 67.283547471541496 0 0 -1 0 0 0 0 1 forward_v I I I I #
face $-1 $68 $69 $24 $-1 $70 reversed single #
loop $-1 $-1 $71 $31 #
plane-surface $-1 -14.757591022717062 -146.02294483750353 85.261622617100954 -1 0 0 0 -0.77714596973225614 0.62932038083071107 forward_v I I I I #
face $-1 $72 $73 $25 $-1 $74 forward single #
loop $-1 $75 $76 $32 #
cone-surface $-1 -24.225078053603305 -35.033471650717651 3.4056487153792734 0 0.77714596973225614 -0.62932038083071107 3 0 0 1 I I 0 1 3 forward I I I I #
face $-1 $77 $78 $26 $-1 $79 reversed single #
loop $-1 $-1 $80 $33 #
plane-surface $-1 33.69256508448953 -146.02294483750353 85.261622617100954 -1 0 0 0 -0.77714596973225614 0.62932038083071107 forward_v I I I I #
face $-1 $81 $82 $27 $-1 $83 forward single #
loop $-1 $84 $85 $34 #
cone-surface $-1 24.225078053603298 -35.033471650717651 3.4056487153792734 0 0.77714596973225614 -0.62932038083071107 3 0 0 1 I I 0 1 3 forward I I I I #
face $-1 $86 $87 $21 $-1 $88 reversed single #
loop $-1 $-1 $89 $35 #
plane-surface $-1 0 0 10.265103532862165 0 0 1 1 0 0 forward_v I I I I #
coedge $-1 $90 $91 $92 $93 reversed $36 $-1 #
face $-1 $94 $95 $22 $-1 $96 forward single #
loop $-1 $-1 $97 $38 #
plane-surface $-1 0 41.444669343908735 0 0 -1 0 0 0 -1 forward_v I I I I #
coedge $-1 $98 $99 $100 $101 forward $39 $-1 #
face $-1 $102 $103 $23 $-1 $104 forward single #
loop $-1 $-1 $105 $41 #
plane-surface $-1 0 -41.444669343908735 0 0 1 0 0 0 1 forward_v I I I I #
coedge $-1 $106 $107 $108 $109 forward $42 $-1 #
face $-1 $110 $111 $24 $-1 $112 reversed single #
loop $-1 $-1 $113 $44 #
plane-surface $-1 -24.225078053603298 -41.444669343908714 0.57580718023751842 0 -0.77714596973225614 0.62932038083071107 1 0 0 forward_v I I I I #
coedge $-1 $114 $115 $116 $117 reversed $45 $-1 #
face $-1 $-1 $118 $25 $-1 $119 forward single #
loop $-1 $120 $121 $47 #
cone-surface $-1 -24.225078053603305 -31.379673637073665 0.44686150296263349 0 0.77714596973225614 -0.62932038083071107 1.5 0 0 1 I I -0.70710678118654757 0.70710678118654757 1.5 forward I I I I #
loop $-1 $-1 $122 $32 #
coedge $-1 $76 $76 $123 $124 reversed $48 $-1 #
face $-1 $125 $126 $26 $-1 $127 reversed single #
loop $-1 $-1 $128 $50 #
plane-surface $-1 24.225078053603298 -41.444669343908714 0.57580718023751842 0 -0.77714596973225614 0.62932038083071107 1 0 0 forward_v I I I I #
coedge $-1 $129 $130 $131 $132 reversed $51 $-1 #
face $-1 $-1 $133 $27 $-1 $134 forward single #
loop $-1 $135 $136 $53 #
cone-surface $-1 24.225078053603298 -31.379673637073665 0.44686150296263349 0 0.77714596973225614 -0.62932038083071107 1.5 0 0 1 I I -0.70710678118654757 0.70710678118654757 1.5 forward I I I I #
loop $-1 $-1 $137 $34 #
coedge $-1 $85 $85 $138 $139 reversed $54 $-1 #
face $-1 $140 $141 $21 $-1 $142 reversed single #
loop $-1 $-1 $143 $56 #
plane-surface $-1 0 0 -10.265103532862165 0 0 1 1 0 0 forward_v I I I I #
coedge $-1 $144 $145 $90 $146 forward $57 $-1 #
coedge $-1 $147 $59 $89 $146 reversed $36 $-1 #
coedge $-1 $59 $147 $143 $148 reversed $36 $-1 #
coedge $-1 $149 $150 $59 $93 forward $151 $-1 #
edge $-1 $152 -10.265103532862165 $153 10.265103532862165 $59 $154 forward 7 unknown #
face $-1 $155 $156 $22 $-1 $157 reversed single #
loop $-1 $-1 $100 $60 #
plane-surface $-1 -72.85888305502472 0 -5.987148893504779 0 0 1 1 0 0 forward_v I I I I #
coedge $-1 $158 $159 $99 $160 forward $61 $-1 #
coedge $-1 $161 $63 $162 $163 reversed $39 $-1 #
coedge $-1 $63 $161 $97 $160 reversed $39 $-1 #
coedge $-1 $164 $165 $63 $101 reversed $95 $-1 #
edge $-1 $166 -41.444669343908735 $167 41.444669343908735 $100 $168 forward 7 unknown #
face $-1 $169 $170 $23 $-1 $171 reversed single #
loop $-1 $-1 $172 $64 #
plane-surface $-1 72.85888305502472 0 -5.987148893504779 0 0 1 1 0 0 forward_v I I I I #
coedge $-1 $173 $174 $107 $175 forward $65 $-1 #
coedge $-1 $176 $67 $177 $178 reversed $42 $-1 #
coedge $-1 $67 $176 $105 $175 reversed $42 $-1 #
coedge $-1 $179 $180 $67 $109 reversed $103 $-1 #
edge $-1 $181 -41.444669343908735 $182 41.444669343908735 $108 $183 forward 7 unknown #
face $-1 $184 $185 $24 $-1 $186 forward single #
loop $-1 $-1 $187 $68 #
plane-surface $-1 -33.69256508448953 -146.02294483750353 85.261622617100954 1 0 0 0 0.77714596973225614 -0.62932038083071107 forward_v I I I I #
coedge $-1 $188 $189 $190 $191 reversed $69 $-1 #
coedge $-1 $115 $71 $192 $193 reversed $45 $-1 #
coedge $-1 $71 $114 $188 $194 reversed $45 $-1 #
coedge $-1 $190 $195 $71 $117 forward $185 $-1 #
edge $-1 $196 31.56680307484303 $197 39.413040343134028 $116 $198 forward 7 unknown #
loop $-1 $-1 $123 $72 #
plane-surface $-1 -24.225078053603298 -41.444669343908714 0.57580718023751842 0 -0.77714596973225614 0.62932038083071107 1 0 0 forward_v I I I I #
loop $-1 $-1 $199 $47 #
coedge $-1 $121 $121 $122 $200 reversed $73 $-1 #
coedge $-1 $122 $122 $121 $200 forward $75 $-1 #
coedge $-1 $123 $123 $76 $124 forward $118 $-1 #
edge $-1 $201 -3.3012457501171581e-016 $201 6.2831853071796004 $123 $202 forward 7 unknown #
face $-1 $203 $204 $26 $-1 $205 reversed single #
loop $-1 $-1 $206 $77 #
plane-surface $-1 14.757591022717062 -146.02294483750353 85.261622617100954 1 0 0 0 0.77714596973225614 -0.62932038083071107 forward_v I I I I #
coedge $-1 $207 $208 $209 $210 reversed $78 $-1 #
coedge $-1 $130 $80 $211 $212 reversed $51 $-1 #
coedge $-1 $80 $129 $207 $213 reversed $51 $-1 #
coedge $-1 $209 $214 $80 $132 forward $215 $-1 #
edge $-1 $216 31.56680307484303 $217 39.413040343134028 $131 $218 forward 7 unknown #
loop $-1 $-1 $138 $81 #
plane-surface $-1 24.225078053603298 -41.444669343908714 0.57580718023751842 0 -0.77714596973225614 0.62932038083071107 1 0 0 forward_v I I I I #
loop $-1 $-1 $219 $53 #
coedge $-1 $136 $136 $137 $220 reversed $82 $-1 #
coedge $-1 $137 $137 $136 $220 forward $84 $-1 #
coedge $-1 $138 $138 $85 $139 forward $133 $-1 #
edge $-1 $221 -3.3012457501171581e-016 $221 6.2831853071796004 $138 $222 forward 7 unknown #
face $-1 $223 $224 $21 $-1 $225 reversed single #
loop $-1 $-1 $226 $86 #
plane-surface $-1 0 -41.444669343908735 0 0 1 0 0 0 1 forward_v I I I I #
coedge $-1 $227 $228 $91 $148 forward $87 $-1 #
coedge $-1 $229 $89 $150 $230 forward $57 $-1 #
coedge $-1 $89 $229 $231 $232 forward $57 $-1 #
edge $-1 $233 -41.444669343908735 $152 41.444669343908735 $90 $234 forward 7 unknown #
coedge $-1 $91 $90 $235 $236 forward $36 $-1 #
edge $-1 $153 -41.444669343908735 $237 41.444669343908735 $91 $238 forward 7 unknown #
coedge $-1 $239 $92 $228 $240 reversed $151 $-1 #
coedge $-1 $92 $239 $144 $230 reversed $151 $-1 #
loop $-1 $-1 $92 $223 #
vertex $-1 $146 $241 #
vertex $-1 $148 $242 #
straight-curve $-1 67.283547471541496 41.444669343908735 0 0 0 -1 I I #
face $-1 $243 $244 $22 $-1 $245 reversed single #
loop $-1 $-1 $246 $94 #
plane-surface $-1 -72.85888305502472 0 -9.7275976120834624 0 0 1 1 0 0 forward_v I I I I #
coedge $-1 $247 $97 $248 $249 reversed $61 $-1 #
coedge $-1 $97 $247 $164 $250 reversed $61 $-1 #
edge $-1 $166 5.987148893504779 $251 9.7275976120834624 $97 $252 forward 7 unknown #
coedge $-1 $99 $98 $246 $253 forward $39 $-1 #
coedge $-1 $254 $255 $98 $163 forward $256 $-1 #
edge $-1 $257 -9.7275976120834624 $167 -5.987148893504779 $162 $258 forward 7 unknown #
coedge $-1 $259 $100 $159 $250 forward $95 $-1 #
coedge $-1 $100 $259 $254 $260 forward $95 $-1 #
vertex $-1 $160 $261 #
vertex $-1 $260 $262 #
straight-curve $-1 -67.283547471541496 0 -5.987148893504779 0 -1 0 I I #
face $-1 $263 $264 $23 $-1 $265 reversed single #
loop $-1 $-1 $266 $102 #
plane-surface $-1 72.85888305502472 0 -9.7275976120834624 0 0 1 1 0 0 forward_v I I I I #
coedge $-1 $180 $179 $267 $268 forward $103 $-1 #
coedge $-1 $269 $105 $270 $271 reversed $65 $-1 #
coedge $-1 $105 $269 $179 $272 reversed $65 $-1 #
edge $-1 $181 5.987148893504779 $273 9.7275976120834624 $105 $274 forward 7 unknown #
coedge $-1 $107 $106 $275 $276 forward $42 $-1 #
coedge $-1 $277 $278 $106 $178 forward $279 $-1 #
edge $-1 $280 -9.7275976120834624 $182 -5.987148893504779 $177 $281 forward 7 unknown #
coedge $-1 $172 $108 $174 $272 forward $103 $-1 #
coedge $-1 $108 $172 $277 $282 forward $103 $-1 #
vertex $-1 $175 $283 #
vertex $-1 $282 $284 #
straight-curve $-1 67.283547471541496 0 -5.987148893504779 0 1 0 I I #
face $-1 $-1 $285 $24 $-1 $286 reversed single #
loop $-1 $-1 $116 $110 #
plane-surface $-1 0 0 10.265103532862165 0 0 1 1 0 0 forward_v I I I I #
coedge $-1 $287 $288 $289 $290 reversed $111 $-1 #
coedge $-1 $291 $113 $115 $194 forward $69 $-1 #
coedge $-1 $113 $291 $287 $292 forward $69 $-1 #
coedge $-1 $289 $116 $113 $191 forward $185 $-1 #
edge $-1 $197 2.6450519959154128 $293 21.580026057687881 $190 $294 forward 7 unknown #
coedge $-1 $295 $296 $114 $193 forward $285 $-1 #
edge $-1 $297 -42.055004128312987 $196 -32.365707775688314 $192 $298 forward 7 unknown #
edge $-1 $197 -12.467794635752689 $297 3.3863257525417323e-014 $115 $299 forward 7 unknown #
coedge $-1 $116 $289 $295 $300 forward $185 $-1 #
vertex $-1 $193 $301 #
vertex $-1 $117 $302 #
straight-curve $-1 -14.757591022717062 -73.011472418751765 10.265103532862163 0 1 0 I I #
coedge $-1 $199 $199 $-1 $303 reversed $120 $-1 #
edge $-1 $304 0 $304 6.2831853071796004 $121 $305 forward 7 unknown #
vertex $-1 $124 $306 #
ellipse-curve $-1 -24.225078053603305 -37.521550709763233 5.4204553565498301 0 -0.77714596973225614 0.62932038083071107 3 0 0 1 I I #
face $-1 $-1 $215 $26 $-1 $307 forward single #
loop $-1 $-1 $308 $125 #
plane-surface $-1 0 -41.444669343908735 0 0 1 0 0 0 1 forward_v I I I I #
coedge $-1 $309 $310 $311 $312 reversed $126 $-1 #
coedge $-1 $313 $128 $130 $213 forward $78 $-1 #
coedge $-1 $128 $313 $309 $314 forward $78 $-1 #
coedge $-1 $311 $131 $128 $210 forward $215 $-1 #
edge $-1 $217 -21.580026057687881 $315 -2.6450519959154128 $209 $316 forward 7 unknown #
coedge $-1 $317 $318 $129 $212 forward $204 $-1 #
edge $-1 $319 -42.055004128312987 $216 -32.365707775688314 $211 $320 forward 7 unknown #
edge $-1 $217 -12.467794635752689 $319 3.3863257525417323e-014 $130 $321 forward 7 unknown #
coedge $-1 $131 $311 $317 $322 forward $215 $-1 #
loop $-1 $-1 $311 $203 #
vertex $-1 $212 $323 #
vertex $-1 $132 $324 #
straight-curve $-1 33.69256508448953 -73.011472418751765 10.265103532862163 0 1 0 I I #
coedge $-1 $219 $219 $-1 $325 reversed $135 $-1 #
edge $-1 $326 0 $326 6.2831853071796004 $136 $327 forward 7 unknown #
vertex $-1 $139 $328 #
ellipse-curve $-1 24.225078053603298 -37.521550709763233 5.4204553565498301 0 -0.77714596973225614 0.62932038083071107 3 0 0 1 I I #
face $-1 $-1 $151 $21 $-1 $329 reversed single #
loop $-1 $-1 $330 $140 #
plane-surface $-1 -67.283547471541496 0 0 1 0 0 0 0 -1 forward_v I I I I #
coedge $-1 $331 $231 $330 $332 forward $141 $-1 #
coedge $-1 $333 $143 $331 $334 forward $87 $-1 #
coedge $-1 $143 $333 $149 $240 forward $87 $-1 #
coedge $-1 $145 $144 $335 $336 forward $57 $-1 #
edge $-1 $152 -67.283547471541496 $337 67.283547471541496 $150 $338 forward 7 unknown #
coedge $-1 $226 $235 $145 $232 reversed $141 $-1 #
edge $-1 $339 -67.283547471541496 $233 67.283547471541496 $231 $340 forward 7 unknown #
vertex $-1 $146 $341 #
straight-curve $-1 67.283547471541496 0 10.265103532862165 0 1 0 I I #
coedge $-1 $231 $331 $147 $236 reversed $141 $-1 #
edge $-1 $233 -10.265103532862165 $237 10.265103532862165 $147 $342 forward 7 unknown #
vertex $-1 $236 $343 #
straight-curve $-1 67.283547471541496 0 -10.265103532862165 0 -1 0 I I #
coedge $-1 $150 $149 $344 $345 reversed $151 $-1 #
edge $-1 $346 -67.283547471541496 $153 67.283547471541496 $149 $347 forward 7 unknown #
point $-1 67.283547471541496 41.444669343908735 10.265103532862165 #
point $-1 67.283547471541496 41.444669343908735 -10.265103532862165 #
face $-1 $-1 $256 $22 $-1 $348 reversed single #
loop $-1 $-1 $349 $155 #
plane-surface $-1 -78.434218638507943 0 -7.8573732527941207 1 0 0 0 0 -1 forward_v I I I I #
coedge $-1 $350 $248 $161 $253 reversed $156 $-1 #
coedge $-1 $159 $158 $349 $351 reversed $61 $-1 #
coedge $-1 $246 $352 $158 $249 forward $156 $-1 #
edge $-1 $353 -5.5753355834832234 $251 5.5753355834832234 $158 $354 forward 7 unknown #
edge $-1 $166 -5.5753355834832234 $355 5.5753355834832234 $159 $356 forward 7 unknown #
vertex $-1 $160 $357 #
straight-curve $-1 -67.283547471541496 41.444669343908735 0 0 0 -1 I I #
edge $-1 $257 -41.444669343908735 $251 41.444669343908735 $246 $358 forward 7 unknown #
coedge $-1 $359 $162 $165 $260 reversed $256 $-1 #
coedge $-1 $162 $359 $350 $360 reversed $256 $-1 #
loop $-1 $-1 $162 $243 #
vertex $-1 $163 $361 #
straight-curve $-1 -67.283547471541496 -41.444669343908735 0 0 0 1 I I #
coedge $-1 $165 $164 $362 $363 forward $95 $-1 #
edge $-1 $364 -5.5753355834832234 $167 5.5753355834832234 $254 $365 forward 7 unknown #
point $-1 -67.283547471541496 41.444669343908735 -5.987148893504779 #
point $-1 -67.283547471541496 -41.444669343908735 -5.987148893504779 #
face $-1 $-1 $279 $23 $-1 $366 reversed single #
loop $-1 $-1 $367 $169 #
plane-surface $-1 78.434218638507943 0 -7.8573732527941207 -1 0 0 0 0 1 forward_v I I I I #
coedge $-1 $270 $368 $369 $370 forward $170 $-1 #
coedge $-1 $367 $371 $172 $268 reversed $264 $-1 #
edge $-1 $372 -41.444669343908735 $373 41.444669343908735 $267 $374 forward 7 unknown #
coedge $-1 $174 $173 $367 $375 reversed $65 $-1 #
coedge $-1 $275 $266 $173 $271 forward $170 $-1 #
edge $-1 $376 -5.5753355834832234 $273 5.5753355834832234 $173 $377 forward 7 unknown #
edge $-1 $181 -5.5753355834832234 $372 5.5753355834832234 $174 $378 forward 7 unknown #
vertex $-1 $175 $379 #
straight-curve $-1 67.283547471541496 -41.444669343908735 0 0 0 -1 I I #
coedge $-1 $368 $270 $176 $276 reversed $170 $-1 #
edge $-1 $280 -41.444669343908735 $273 41.444669343908735 $275 $380 forward 7 unknown #
coedge $-1 $381 $177 $180 $282 reversed $279 $-1 #
coedge $-1 $177 $381 $368 $382 reversed $279 $-1 #
loop $-1 $-1 $177 $263 #
vertex $-1 $178 $383 #
straight-curve $-1 67.283547471541496 41.444669343908735 0 0 0 1 I I #
edge $-1 $373 -5.5753355834832234 $182 5.5753355834832234 $277 $384 forward 7 unknown #
point $-1 67.283547471541496 -41.444669343908735 -5.987148893504779 #
point $-1 67.283547471541496 41.444669343908735 -5.987148893504779 #
loop $-1 $-1 $192 $184 #
plane-surface $-1 0 -41.444669343908735 0 0 1 0 0 0 1 forward_v I I I I #
coedge $-1 $288 $187 $189 $292 reversed $111 $-1 #
coedge $-1 $187 $287 $385 $386 reversed $111 $-1 #
coedge $-1 $195 $190 $187 $290 forward $185 $-1 #
edge $-1 $293 -39.413040343134028 $387 -31.56680307484303 $289 $388 forward 7 unknown #
coedge $-1 $189 $188 $296 $389 reversed $69 $-1 #
edge $-1 $390 -3.3863257525417323e-014 $293 12.467794635752689 $287 $391 forward 7 unknown #
vertex $-1 $191 $392 #
straight-curve $-1 -12.112539026801649 -33.59843207561773 10.265103532862165 -1 0 0 I I #
coedge $-1 $385 $192 $195 $300 reversed $285 $-1 #
coedge $-1 $192 $385 $291 $389 forward $285 $-1 #
vertex $-1 $193 $393 #
straight-curve $-1 -14.757591022717062 -41.444669343908735 42.630811308550477 0 0 1 I I #
straight-curve $-1 -14.757591022717062 -41.444669343908714 0.57580718023751842 0 -0.62932038083071107 -0.77714596973225614 I I #
edge $-1 $387 -33.69256508448953 $196 -14.757591022717062 $295 $394 forward 7 unknown #
point $-1 -14.757591022717062 -41.444669343908735 10.265103532862165 #
point $-1 -14.757591022717062 -33.598432075617737 10.265103532862165 #
edge $-1 $395 1 $395 0 $199 $-1 forward 7 unknown #
vertex $-1 $200 $396 #
ellipse-curve $-1 -24.225078053603305 -32.545392591672048 1.3908420742087002 0 -0.77714596973225614 0.62932038083071107 3 0 0 1 I I #
point $-1 -21.225078053603305 -37.521550709763254 5.4204553565498461 #
plane-surface $-1 0 0 10.265103532862165 0 0 1 1 0 0 forward_v I I I I #
coedge $-1 $318 $317 $310 $397 forward $204 $-1 #
coedge $-1 $310 $206 $208 $314 reversed $126 $-1 #
coedge $-1 $206 $309 $308 $397 reversed $126 $-1 #
coedge $-1 $214 $209 $206 $312 forward $215 $-1 #
edge $-1 $315 -39.413040343134028 $398 -31.56680307484303 $311 $399 forward 7 unknown #
coedge $-1 $208 $207 $318 $400 reversed $78 $-1 #
edge $-1 $401 -3.3863257525417323e-014 $315 12.467794635752689 $309 $402 forward 7 unknown #
vertex $-1 $210 $403 #
straight-curve $-1 12.112539026801649 -33.59843207561773 10.265103532862165 -1 0 0 I I #
coedge $-1 $308 $211 $214 $322 reversed $204 $-1 #
coedge $-1 $211 $308 $313 $400 forward $204 $-1 #
vertex $-1 $212 $404 #
straight-curve $-1 33.69256508448953 -41.444669343908735 42.630811308550477 0 0 1 I I #
straight-curve $-1 33.69256508448953 -41.444669343908714 0.57580718023751842 0 -0.62932038083071107 -0.77714596973225614 I I #
edge $-1 $398 14.757591022717062 $216 33.69256508448953 $317 $405 forward 7 unknown #
point $-1 33.69256508448953 -41.444669343908735 10.265103532862165 #
point $-1 33.69256508448953 -33.598432075617737 10.265103532862165 #
edge $-1 $406 1 $406 0 $219 $-1 forward 7 unknown #
vertex $-1 $220 $407 #
ellipse-curve $-1 24.225078053603298 -32.545392591672048 1.3908420742087002 0 -0.77714596973225614 0.62932038083071107 3 0 0 1 I I #
point $-1 27.225078053603298 -37.521550709763254 5.4204553565498461 #
plane-surface $-1 0 41.444669343908735 0 0 -1 0 0 0 -1 forward_v I I I I #
coedge $-1 $335 $408 $226 $332 reversed $224 $-1 #
coedge $-1 $235 $226 $227 $334 reversed $141 $-1 #
edge $-1 $339 -10.265103532862165 $409 10.265103532862165 $330 $410 forward 7 unknown #
coedge $-1 $228 $227 $408 $411 forward $87 $-1 #
edge $-1 $237 -67.283547471541496 $409 67.283547471541496 $331 $412 forward 7 unknown #
coedge $-1 $344 $330 $229 $336 reversed $224 $-1 #
edge $-1 $337 -41.444669343908735 $339 41.444669343908735 $335 $413 forward 7 unknown #
vertex $-1 $230 $414 #
straight-curve $-1 0 41.444669343908735 10.265103532862165 -1 0 0 I I #
vertex $-1 $336 $415 #
straight-curve $-1 0 -41.444669343908735 10.265103532862165 1 0 0 I I #
point $-1 67.283547471541496 -41.444669343908735 10.265103532862165 #
straight-curve $-1 67.283547471541496 -41.444669343908735 0 0 0 -1 I I #
point $-1 67.283547471541496 -41.444669343908735 -10.265103532862165 #
coedge $-1 $408 $335 $239 $345 forward $224 $-1 #
edge $-1 $337 -10.265103532862165 $346 10.265103532862165 $239 $416 forward 7 unknown #
vertex $-1 $240 $417 #
straight-curve $-1 0 41.444669343908735 -10.265103532862165 1 0 0 I I #
plane-surface $-1 0 -41.444669343908735 0 0 1 0 0 0 1 forward_v I I I I #
coedge $-1 $418 $362 $247 $351 forward $244 $-1 #
coedge $-1 $352 $246 $255 $360 forward $156 $-1 #
edge $-1 $355 -1.8702243592893417 $353 1.8702243592893417 $247 $419 forward 7 unknown #
coedge $-1 $248 $350 $418 $420 forward $156 $-1 #
vertex $-1 $249 $421 #
straight-curve $-1 -72.85888305502472 41.444669343908735 -9.7275976120834624 1 0 0 I I #
vertex $-1 $250 $422 #
straight-curve $-1 -72.85888305502472 41.444669343908735 -5.987148893504779 -1 0 0 I I #
point $-1 -67.283547471541496 41.444669343908735 -9.7275976120834624 #
straight-curve $-1 -67.283547471541496 0 -9.7275976120834624 0 1 0 I I #
coedge $-1 $255 $254 $423 $424 forward $256 $-1 #
edge $-1 $257 -5.5753355834832234 $425 5.5753355834832234 $255 $426 forward 7 unknown #
point $-1 -67.283547471541496 -41.444669343908735 -9.7275976120834624 #
coedge $-1 $349 $423 $259 $363 reversed $244 $-1 #
edge $-1 $355 -41.444669343908735 $364 41.444669343908735 $362 $427 forward 7 unknown #
vertex $-1 $363 $428 #
straight-curve $-1 -72.85888305502472 -41.444669343908735 -5.987148893504779 1 0 0 I I #
plane-surface $-1 0 41.444669343908735 0 0 -1 0 0 0 -1 forward_v I I I I #
coedge $-1 $369 $267 $269 $375 forward $264 $-1 #
coedge $-1 $266 $275 $278 $382 forward $170 $-1 #
coedge $-1 $371 $367 $266 $370 reversed $264 $-1 #
edge $-1 $429 -41.444669343908735 $376 41.444669343908735 $369 $430 forward 7 unknown #
coedge $-1 $267 $369 $381 $431 reversed $264 $-1 #
vertex $-1 $268 $432 #
vertex $-1 $268 $433 #
straight-curve $-1 78.434218638507943 0 -5.987148893504779 0 1 0 I I #
edge $-1 $372 -1.8702243592893417 $376 1.8702243592893417 $367 $434 forward 7 unknown #
vertex $-1 $375 $435 #
straight-curve $-1 72.85888305502472 -41.444669343908735 -9.7275976120834624 -1 0 0 I I #
straight-curve $-1 72.85888305502472 -41.444669343908735 -5.987148893504779 1 0 0 I I #
point $-1 67.283547471541496 -41.444669343908735 -9.7275976120834624 #
straight-curve $-1 67.283547471541496 0 -9.7275976120834624 0 -1 0 I I #
coedge $-1 $278 $277 $371 $431 forward $279 $-1 #
edge $-1 $280 -5.5753355834832234 $429 5.5753355834832234 $278 $436 forward 7 unknown #
point $-1 67.283547471541496 41.444669343908735 -9.7275976120834624 #
straight-curve $-1 72.85888305502472 41.444669343908735 -5.987148893504779 -1 0 0 I I #
coedge $-1 $296 $295 $288 $386 forward $285 $-1 #
edge $-1 $387 32.365707775688314 $390 42.055004128312987 $385 $437 forward 7 unknown #
vertex $-1 $300 $438 #
straight-curve $-1 -33.69256508448953 -73.011472418751765 10.265103532862163 0 -1 0 I I #
edge $-1 $390 -21.580026057687881 $297 -2.6450519959154128 $296 $439 forward 7 unknown #
vertex $-1 $389 $440 #
straight-curve $-1 -33.69256508448953 -41.444669343908714 0.57580718023751842 0 0.62932038083071107 0.77714596973225614 I I #
point $-1 -33.69256508448953 -33.598432075617737 10.265103532862165 #
point $-1 -14.757591022717062 -41.444669343908735 0.57580718023749211 #
straight-curve $-1 0 -41.444669343908735 10.265103532862165 1 0 0 I I #
vertex $-1 $303 $441 #
point $-1 -21.225078053603305 -32.545392591672048 1.3908420742087002 #
edge $-1 $398 32.365707775688314 $401 42.055004128312987 $308 $442 forward 7 unknown #
vertex $-1 $322 $443 #
straight-curve $-1 14.757591022717062 -73.011472418751765 10.265103532862163 0 -1 0 I I #
edge $-1 $401 2.6450519959154128 $319 21.580026057687881 $318 $444 forward 7 unknown #
vertex $-1 $400 $445 #
straight-curve $-1 14.757591022717062 -41.444669343908714 0.57580718023751842 0 0.62932038083071107 0.77714596973225614 I I #
point $-1 14.757591022717062 -33.598432075617737 10.265103532862165 #
point $-1 33.69256508448953 -41.444669343908735 0.57580718023749211 #
straight-curve $-1 0 -41.444669343908735 10.265103532862165 1 0 0 I I #
vertex $-1 $325 $446 #
point $-1 27.225078053603298 -32.545392591672048 1.3908420742087002 #
coedge $-1 $330 $344 $333 $411 reversed $224 $-1 #
vertex $-1 $411 $447 #
straight-curve $-1 -67.283547471541496 -41.444669343908735 0 0 0 -1 I I #
edge $-1 $409 -41.444669343908735 $346 41.444669343908735 $408 $448 forward 7 unknown #
straight-curve $-1 0 -41.444669343908735 -10.265103532862165 -1 0 0 I I #
straight-curve $-1 -67.283547471541496 0 10.265103532862165 0 -1 0 I I #
point $-1 -67.283547471541496 41.444669343908735 10.265103532862165 #
point $-1 -67.283547471541496 -41.444669343908735 10.265103532862165 #
straight-curve $-1 -67.283547471541496 41.444669343908735 0 0 0 -1 I I #
point $-1 -67.283547471541496 41.444669343908735 -10.265103532862165 #
coedge $-1 $423 $349 $352 $420 reversed $244 $-1 #
straight-curve $-1 -78.434218638507943 41.444669343908735 -7.8573732527941207 0 0 -1 I I #
edge $-1 $425 -41.444669343908735 $353 41.444669343908735 $418 $449 forward 7 unknown #
point $-1 -78.434218638507943 41.444669343908735 -9.7275976120834624 #
point $-1 -78.434218638507943 41.444669343908735 -5.987148893504779 #
coedge $-1 $362 $418 $359 $424 reversed $244 $-1 #
edge $-1 $364 -1.8702243592893417 $425 1.8702243592893417 $423 $450 forward 7 unknown #
vertex $-1 $420 $451 #
straight-curve $-1 -72.85888305502472 -41.444669343908735 -9.7275976120834624 -1 0 0 I I #
straight-curve $-1 -78.434218638507943 0 -5.987148893504779 0 -1 0 I I #
point $-1 -78.434218638507943 -41.444669343908735 -5.987148893504779 #
vertex $-1 $370 $452 #
straight-curve $-1 78.434218638507943 0 -9.7275976120834624 0 -1 0 I I #
edge $-1 $373 -1.8702243592893417 $429 1.8702243592893417 $371 $453 forward 7 unknown #
point $-1 78.434218638507943 -41.444669343908735 -5.987148893504779 #
point $-1 78.434218638507943 41.444669343908735 -5.987148893504779 #
straight-curve $-1 78.434218638507943 -41.444669343908735 -7.8573732527941207 0 0 -1 I I #
point $-1 78.434218638507943 -41.444669343908735 -9.7275976120834624 #
straight-curve $-1 72.85888305502472 41.444669343908735 -9.7275976120834624 1 0 0 I I #
straight-curve $-1 -33.69256508448953 -41.444669343908735 42.630811308550477 0 0 -1 I I #
point $-1 -33.69256508448953 -41.444669343908735 10.265103532862165 #
straight-curve $-1 -12.112539026801649 -41.444669343908735 0.57580718023749811 1 0 0 I I #
point $-1 -33.69256508448953 -41.444669343908735 0.57580718023749211 #
point $-1 -24.225078053603305 -30.213954682475283 -0.49711906828343311 #
straight-curve $-1 14.757591022717062 -41.444669343908735 42.630811308550477 0 0 -1 I I #
point $-1 14.757591022717062 -41.444669343908735 10.265103532862165 #
straight-curve $-1 12.112539026801649 -41.444669343908735 0.57580718023749811 1 0 0 I I #
point $-1 14.757591022717062 -41.444669343908735 0.57580718023749211 #
point $-1 24.225078053603298 -30.213954682475283 -0.49711906828343311 #
point $-1 -67.283547471541496 -41.444669343908735 -10.265103532862165 #
straight-curve $-1 -67.283547471541496 0 -10.265103532862165 0 1 0 I I #
straight-curve $-1 -78.434218638507943 0 -9.7275976120834624 0 1 0 I I #
straight-curve $-1 -78.434218638507943 -41.444669343908735 -7.8573732527941207 0 0 -1 I I #
point $-1 -78.434218638507943 -41.444669343908735 -9.7275976120834624 #
point $-1 78.434218638507943 41.444669343908735 -9.7275976120834624 #
straight-curve $-1 78.434218638507943 41.444669343908735 -7.8573732527941207 0 0 -1 I I #
End-of-ACIS-data 