500 0 10 0           
7 Unknown 11 ACIS 5.0 NT 24 Thu Mar 25 20:48:27 1999 
-1 9.9999999999999995e-007 1e-010 
body $-1 $10 $-1 $11 #
body $-1 $12 $-1 $13 #
body $-1 $14 $-1 $15 #
body $-1 $16 $-1 $17 #
body $-1 $18 $-1 $19 #
body $-1 $20 $-1 $21 #
body $-1 $22 $-1 $23 #
body $-1 $24 $-1 $25 #
body $-1 $26 $-1 $27 #
body $-1 $28 $-1 $29 #
lump $-1 $-1 $30 $0 #
transform $-1 1 0 0 0 1 0 0 0 1 68.230842005676436 29.513738280942885 6.0473124620631262 1 rotate no_reflect no_shear #
lump $-1 $-1 $31 $1 #
transform $-1 1 0 0 0 1 0 0 0 1 68.230842005676436 29.513738280942885 6.0473124620631262 1 rotate no_reflect no_shear #
lump $-1 $-1 $32 $2 #
transform $-1 1 0 0 0 1 0 0 0 1 68.230842005676436 29.513738280942885 6.0473124620631262 1 rotate no_reflect no_shear #
lump $-1 $-1 $33 $3 #
transform $-1 1 0 0 0 1 0 0 0 1 68.230842005676436 29.513738280942885 6.0473124620631262 1 rotate no_reflect no_shear #
lump $-1 $-1 $34 $4 #
transform $-1 1 0 0 0 1 0 0 0 1 68.230842005676436 29.513738280942885 6.0473124620631262 1 rotate no_reflect no_shear #
lump $-1 $-1 $35 $5 #
transform $-1 1 0 0 0 1 0 0 0 1 68.230842005676436 29.513738280942885 6.0473124620631262 1 rotate no_reflect no_shear #
lump $-1 $-1 $36 $6 #
transform $-1 1 0 0 0 1 0 0 0 1 68.230842005676436 29.513738280942885 6.0473124620631262 1 rotate no_reflect no_shear #
lump $-1 $-1 $37 $7 #
transform $-1 1 0 0 0 1 0 0 0 1 68.230842005676436 29.513738280942885 6.0473124620631262 1 rotate no_reflect no_shear #
lump $-1 $-1 $38 $8 #
transform $-1 1 0 0 0 1 0 0 0 1 68.230842005676436 29.513738280942885 6.0473124620631262 1 rotate no_reflect no_shear #
lump $-1 $-1 $39 $9 #
transform $-1 1 0 0 0 1 0 0 0 1 68.230842005676436 29.513738280942885 6.0473124620631262 1 rotate no_reflect no_shear #
shell $-1 $-1 $-1 $40 $-1 $10 #
shell $-1 $-1 $-1 $41 $-1 $12 #
shell $-1 $-1 $-1 $42 $-1 $14 #
shell $-1 $-1 $-1 $43 $-1 $16 #
shell $-1 $-1 $-1 $44 $-1 $18 #
shell $-1 $-1 $-1 $45 $-1 $20 #
shell $-1 $-1 $-1 $46 $-1 $22 #
shell $-1 $-1 $-1 $47 $-1 $24 #
shell $-1 $-1 $-1 $48 $-1 $26 #
shell $-1 $-1 $-1 $49 $-1 $28 #
face $-1 $50 $51 $30 $-1 $52 forward single #
face $-1 $53 $54 $31 $-1 $55 forward single #
face $-1 $56 $57 $32 $-1 $58 forward single #
face $-1 $59 $60 $33 $-1 $61 reversed single #
face $-1 $62 $63 $34 $-1 $64 forward single #
face $-1 $65 $66 $35 $-1 $67 forward single #
face $-1 $68 $69 $36 $-1 $70 reversed single #
face $-1 $71 $72 $37 $-1 $73 forward single #
face $-1 $74 $75 $38 $-1 $76 forward single #
face $-1 $77 $78 $39 $-1 $79 forward single #
face $-1 $80 $81 $30 $-1 $82 reversed single #
loop $-1 $-1 $83 $40 #
plane-surface $-1 0 0 6.0473124620631262 0 0 1 1 0 0 forward_v I I I I #
face $-1 $84 $85 $31 $-1 $86 reversed single #
loop $-1 $-1 $87 $41 #
plane-surface $-1 -68.230842005676436 0 0 1 0 0 0 0 -1 forward_v I I I I #
face $-1 $88 $89 $32 $-1 $90 reversed single #
loop $-1 $-1 $91 $42 #
plane-surface $-1 68.230842005676436 0 0 -1 0 0 0 0 1 forward_v I I I I #
face $-1 $92 $93 $33 $-1 $94 reversed single #
loop $-1 $-1 $95 $43 #
plane-surface $-1 -45.793479213952125 61.969673318957788 146.50042980014746 1 0 0 0 -0.5877852598018023 -0.80901698891910034 forward_v I I I I #
face $-1 $96 $97 $34 $-1 $98 forward single #
loop $-1 $99 $100 $44 #
cone-surface $-1 -40.824234902589929 25.973850956450089 3.2511232736469973 0 -0.5877852598018023 -0.80901698891910034 1 0 0 1 I I 0 1 1 forward I I I I #
face $-1 $101 $102 $35 $-1 $103 forward single #
loop $-1 $104 $105 $45 #
cone-surface $-1 -33.370368435546631 25.973850956450089 3.2511232736469973 0 -0.5877852598018023 -0.80901698891910034 1 0 0 1 I I 0 1 1 forward I I I I #
face $-1 $106 $107 $36 $-1 $108 reversed single #
loop $-1 $-1 $109 $46 #
plane-surface $-1 62.437857355481071 -147.69302433351504 70.734663945742042 -1 0 0 0 -0.86602541151947299 0.49999998660252726 forward_v I I I I #
face $-1 $110 $111 $37 $-1 $112 forward single #
loop $-1 $113 $114 $47 #
cone-surface $-1 43.158056162385293 -27.338058878870484 3.6100204783659837 0 0.86602541151947299 -0.49999998660252726 1 0 0 1 I I 0 1 1 forward I I I I #
face $-1 $115 $116 $38 $-1 $117 forward single #
loop $-1 $118 $119 $48 #
cone-surface $-1 50.387981609796213 -27.338058878870484 3.6100204783659837 0 0.86602541151947299 -0.49999998660252726 1 0 0 1 I I 0 1 1 forward I I I I #
face $-1 $120 $121 $39 $-1 $122 forward single #
loop $-1 $123 $124 $49 #
cone-surface $-1 57.617907057207134 -27.338058878870484 3.6100204783659837 0 0.86602541151947299 -0.49999998660252726 1 0 0 1 I I 0 1 1 forward I I I I #
face $-1 $125 $126 $30 $-1 $127 reversed single #
loop $-1 $-1 $128 $50 #
plane-surface $-1 0 0 -6.0473124620631262 0 0 1 1 0 0 forward_v I I I I #
coedge $-1 $129 $130 $131 $132 forward $51 $-1 #
face $-1 $133 $134 $31 $-1 $135 forward single #
loop $-1 $-1 $136 $53 #
plane-surface $-1 0 29.513738280942885 0 0 -1 0 0 0 -1 forward_v I I I I #
coedge $-1 $137 $138 $139 $140 forward $54 $-1 #
face $-1 $141 $142 $32 $-1 $143 forward single #
loop $-1 $-1 $144 $56 #
plane-surface $-1 0 29.513738280942885 0 0 -1 0 0 0 -1 forward_v I I I I #
coedge $-1 $145 $146 $147 $148 forward $57 $-1 #
face $-1 $149 $150 $33 $-1 $151 reversed single #
loop $-1 $-1 $152 $59 #
plane-surface $-1 -37.09730166906828 -18.240493070646707 36.10060909845302 0 0.5877852598018023 0.80901698891910034 1 0 0 forward_v I I I I #
coedge $-1 $153 $154 $155 $156 reversed $60 $-1 #
face $-1 $-1 $157 $34 $-1 $158 forward single #
loop $-1 $159 $160 $62 #
cone-surface $-1 -40.824234902589929 25.334780011117925 2.3715175957627883 0 -0.5877852598018023 -0.80901698891910034 0.5 0 0 1 I I -0.70710678118654746 0.70710678118654746 0.5 forward I I I I #
loop $-1 $-1 $161 $44 #
coedge $-1 $100 $100 $162 $163 reversed $63 $-1 #
face $-1 $-1 $164 $35 $-1 $165 forward single #
loop $-1 $166 $167 $65 #
cone-surface $-1 -33.370368435546631 25.334780011117925 2.3715175957627883 0 -0.5877852598018023 -0.80901698891910034 0.5 0 0 1 I I -0.70710678118654746 0.70710678118654746 0.5 forward I I I I #
loop $-1 $-1 $168 $45 #
coedge $-1 $105 $105 $169 $170 reversed $66 $-1 #
face $-1 $171 $172 $36 $-1 $173 reversed single #
loop $-1 $-1 $174 $68 #
plane-surface $-1 50.387981609796213 -29.513738280942889 2.5038237683072992 0 -0.86602541151947299 0.49999998660252726 1 0 0 forward_v I I I I #
coedge $-1 $175 $176 $177 $178 reversed $69 $-1 #
face $-1 $-1 $179 $37 $-1 $180 forward single #
loop $-1 $181 $182 $71 #
cone-surface $-1 43.158056162385293 -25.752283810098163 2.6944728482454865 0 0.86602541151947299 -0.49999998660252726 0.5 0 0 1 I I -0.70710678118654746 0.70710678118654746 0.5 forward I I I I #
loop $-1 $-1 $183 $47 #
coedge $-1 $114 $114 $184 $185 reversed $72 $-1 #
face $-1 $-1 $186 $38 $-1 $187 forward single #
loop $-1 $188 $189 $74 #
cone-surface $-1 50.387981609796213 -25.752283810098163 2.6944728482454865 0 0.86602541151947299 -0.49999998660252726 0.5 0 0 1 I I -0.70710678118654746 0.70710678118654746 0.5 forward I I I I #
loop $-1 $-1 $190 $48 #
coedge $-1 $119 $119 $191 $192 reversed $75 $-1 #
face $-1 $-1 $193 $39 $-1 $194 forward single #
loop $-1 $195 $196 $77 #
cone-surface $-1 57.617907057207134 -25.752283810098163 2.6944728482454865 0 0.86602541151947299 -0.49999998660252726 0.5 0 0 1 I I -0.70710678118654746 0.70710678118654746 0.5 forward I I I I #
loop $-1 $-1 $197 $49 #
coedge $-1 $124 $124 $198 $199 reversed $78 $-1 #
face $-1 $200 $201 $30 $-1 $202 reversed single #
loop $-1 $-1 $203 $80 #
plane-surface $-1 0 -29.513738280942885 0 0 1 0 0 0 1 forward_v I I I I #
coedge $-1 $204 $205 $206 $207 forward $81 $-1 #
coedge $-1 $208 $83 $209 $210 forward $51 $-1 #
coedge $-1 $83 $208 $211 $212 forward $51 $-1 #
coedge $-1 $213 $214 $83 $132 reversed $215 $-1 #
edge $-1 $216 -29.513738280942885 $217 29.513738280942885 $131 $218 forward 7 unknown #
face $-1 $219 $220 $31 $-1 $221 reversed single #
loop $-1 $-1 $139 $84 #
plane-surface $-1 -71.127334330774119 0 -2.8329186771040673 0 0 1 1 0 0 forward_v I I I I #
coedge $-1 $222 $223 $138 $224 forward $85 $-1 #
coedge $-1 $225 $87 $226 $227 reversed $54 $-1 #
coedge $-1 $87 $225 $136 $224 reversed $54 $-1 #
coedge $-1 $228 $229 $87 $140 reversed $134 $-1 #
edge $-1 $230 -29.513738280942885 $231 29.513738280942885 $139 $232 forward 7 unknown #
face $-1 $233 $234 $32 $-1 $235 reversed single #
loop $-1 $-1 $236 $88 #
plane-surface $-1 71.127334330774119 0 -2.8329186771040673 0 0 1 1 0 0 forward_v I I I I #
coedge $-1 $237 $238 $145 $239 forward $89 $-1 #
coedge $-1 $240 $91 $144 $239 reversed $57 $-1 #
coedge $-1 $91 $240 $241 $242 reversed $57 $-1 #
coedge $-1 $243 $244 $91 $148 reversed $142 $-1 #
edge $-1 $245 -29.513738280942885 $246 29.513738280942885 $147 $247 forward 7 unknown #
face $-1 $248 $249 $33 $-1 $250 reversed single #
loop $-1 $-1 $251 $92 #
plane-surface $-1 -28.401124124184435 61.969673318957788 146.50042980014746 -1 0 0 0 0.5877852598018023 0.80901698891910034 forward_v I I I I #
coedge $-1 $252 $253 $254 $255 reversed $93 $-1 #
coedge $-1 $154 $95 $256 $257 reversed $60 $-1 #
coedge $-1 $95 $153 $252 $258 reversed $60 $-1 #
coedge $-1 $254 $259 $95 $156 forward $260 $-1 #
edge $-1 $261 1.4710983785360092 $262 7.8605163966590723 $155 $263 forward 7 unknown #
loop $-1 $-1 $162 $96 #
plane-surface $-1 -37.09730166906828 -18.240493070646707 36.10060909845302 0 0.5877852598018023 0.80901698891910034 1 0 0 forward_v I I I I #
loop $-1 $-1 $264 $62 #
coedge $-1 $160 $160 $161 $265 reversed $97 $-1 #
coedge $-1 $161 $161 $160 $265 forward $99 $-1 #
coedge $-1 $162 $162 $100 $163 forward $157 $-1 #
edge $-1 $266 -5.2494389863281569e-016 $266 6.2831853071795996 $162 $267 forward 7 unknown #
loop $-1 $-1 $169 $101 #
plane-surface $-1 -37.09730166906828 -18.240493070646707 36.10060909845302 0 0.5877852598018023 0.80901698891910034 1 0 0 forward_v I I I I #
loop $-1 $-1 $268 $65 #
coedge $-1 $167 $167 $168 $269 reversed $102 $-1 #
coedge $-1 $168 $168 $167 $269 forward $104 $-1 #
coedge $-1 $169 $169 $105 $170 forward $164 $-1 #
edge $-1 $270 -5.2494389863281569e-016 $270 6.2831853071795996 $169 $271 forward 7 unknown #
face $-1 $272 $273 $36 $-1 $274 forward single #
loop $-1 $-1 $275 $106 #
plane-surface $-1 38.338105864111355 -147.69302433351504 70.734663945742042 1 0 0 0 0.86602541151947299 -0.49999998660252726 forward_v I I I I #
coedge $-1 $276 $277 $278 $279 reversed $107 $-1 #
coedge $-1 $176 $109 $280 $281 reversed $69 $-1 #
coedge $-1 $109 $175 $276 $282 reversed $69 $-1 #
coedge $-1 $278 $283 $109 $178 forward $273 $-1 #
edge $-1 $284 44.332773885814632 $285 46.378607963934272 $177 $286 forward 7 unknown #
loop $-1 $-1 $184 $110 #
plane-surface $-1 50.387981609796213 -29.513738280942889 2.5038237683072992 0 -0.86602541151947299 0.49999998660252726 1 0 0 forward_v I I I I #
loop $-1 $-1 $287 $71 #
coedge $-1 $182 $182 $183 $288 reversed $111 $-1 #
coedge $-1 $183 $183 $182 $288 forward $113 $-1 #
coedge $-1 $184 $184 $114 $185 forward $179 $-1 #
edge $-1 $289 7.6918508142351615e-016 $289 6.2831853071796013 $184 $290 forward 7 unknown #
loop $-1 $-1 $191 $115 #
plane-surface $-1 50.387981609796213 -29.513738280942889 2.5038237683072992 0 -0.86602541151947299 0.49999998660252726 1 0 0 forward_v I I I I #
loop $-1 $-1 $291 $74 #
coedge $-1 $189 $189 $190 $292 reversed $116 $-1 #
coedge $-1 $190 $190 $189 $292 forward $118 $-1 #
coedge $-1 $191 $191 $119 $192 forward $186 $-1 #
edge $-1 $293 7.6918508142351615e-016 $293 6.2831853071796013 $191 $294 forward 7 unknown #
loop $-1 $-1 $198 $120 #
plane-surface $-1 50.387981609796213 -29.513738280942889 2.5038237683072992 0 -0.86602541151947299 0.49999998660252726 1 0 0 forward_v I I I I #
loop $-1 $-1 $295 $77 #
coedge $-1 $196 $196 $197 $296 reversed $121 $-1 #
coedge $-1 $197 $197 $196 $296 forward $123 $-1 #
coedge $-1 $198 $198 $124 $199 forward $193 $-1 #
edge $-1 $297 7.6918508142351615e-016 $297 6.2831853071796013 $198 $298 forward 7 unknown #
face $-1 $299 $300 $30 $-1 $301 reversed single #
loop $-1 $-1 $302 $125 #
plane-surface $-1 -68.230842005676436 0 0 1 0 0 0 0 -1 forward_v I I I I #
coedge $-1 $303 $211 $302 $304 forward $126 $-1 #
coedge $-1 $305 $128 $303 $306 forward $81 $-1 #
coedge $-1 $128 $305 $307 $308 forward $81 $-1 #
coedge $-1 $214 $213 $128 $207 reversed $215 $-1 #
edge $-1 $309 -29.513738280942885 $310 29.513738280942885 $206 $311 forward 7 unknown #
coedge $-1 $130 $129 $312 $313 forward $51 $-1 #
coedge $-1 $314 $315 $129 $210 reversed $300 $-1 #
edge $-1 $217 -68.230842005676436 $316 68.230842005676436 $209 $317 forward 7 unknown #
coedge $-1 $203 $318 $130 $212 reversed $126 $-1 #
edge $-1 $319 -68.230842005676436 $216 68.230842005676436 $211 $320 forward 7 unknown #
coedge $-1 $206 $131 $318 $321 forward $215 $-1 #
coedge $-1 $131 $206 $314 $322 reversed $215 $-1 #
loop $-1 $-1 $214 $299 #
vertex $-1 $132 $323 #
vertex $-1 $132 $324 #
straight-curve $-1 68.230842005676436 0 6.0473124620631262 0 1 0 I I #
face $-1 $325 $326 $31 $-1 $327 reversed single #
loop $-1 $-1 $328 $133 #
plane-surface $-1 -74.023826655871801 0 -4.4401155695835968 1 0 0 0 0 -1 forward_v I I I I #
coedge $-1 $329 $136 $330 $331 reversed $85 $-1 #
coedge $-1 $136 $329 $228 $332 reversed $85 $-1 #
edge $-1 $230 2.8329186771040673 $333 6.0473124620631262 $136 $334 forward 7 unknown #
coedge $-1 $138 $137 $335 $336 reversed $54 $-1 #
coedge $-1 $337 $338 $137 $227 forward $339 $-1 #
edge $-1 $340 -6.0473124620631262 $231 -2.8329186771040673 $226 $341 forward 7 unknown #
coedge $-1 $342 $139 $223 $332 forward $134 $-1 #
coedge $-1 $139 $342 $337 $343 forward $134 $-1 #
vertex $-1 $224 $344 #
vertex $-1 $343 $345 #
straight-curve $-1 -68.230842005676436 0 -2.8329186771040673 0 -1 0 I I #
face $-1 $346 $347 $32 $-1 $348 reversed single #
loop $-1 $-1 $349 $141 #
plane-surface $-1 74.023826655871801 0 -4.4401155695835968 -1 0 0 0 0 1 forward_v I I I I #
coedge $-1 $244 $243 $350 $351 forward $142 $-1 #
coedge $-1 $352 $144 $244 $353 reversed $89 $-1 #
coedge $-1 $144 $352 $354 $355 reversed $89 $-1 #
edge $-1 $356 -6.0473124620631262 $246 -2.8329186771040673 $144 $357 forward 7 unknown #
coedge $-1 $146 $145 $358 $359 reversed $57 $-1 #
coedge $-1 $360 $361 $146 $242 forward $362 $-1 #
edge $-1 $245 2.8329186771040673 $363 6.0473124620631262 $241 $364 forward 7 unknown #
coedge $-1 $236 $147 $361 $365 forward $142 $-1 #
coedge $-1 $147 $236 $237 $353 forward $142 $-1 #
vertex $-1 $242 $366 #
vertex $-1 $353 $367 #
straight-curve $-1 68.230842005676436 0 -2.8329186771040673 0 1 0 I I #
face $-1 $-1 $260 $33 $-1 $368 forward single #
loop $-1 $-1 $369 $149 #
plane-surface $-1 0 29.513738280942885 0 0 -1 0 0 0 -1 forward_v I I I I #
coedge $-1 $370 $371 $372 $373 reversed $150 $-1 #
coedge $-1 $374 $152 $154 $258 forward $93 $-1 #
coedge $-1 $152 $374 $370 $375 forward $93 $-1 #
coedge $-1 $372 $155 $152 $255 forward $260 $-1 #
edge $-1 $262 -27.244828379417985 $376 -9.8524732896502947 $254 $377 forward 7 unknown #
coedge $-1 $378 $379 $153 $257 forward $249 $-1 #
edge $-1 $380 -71.845086447993538 $261 -67.202902438010597 $256 $381 forward 7 unknown #
edge $-1 $262 51.129721501562813 $380 59.027476561885763 $154 $382 forward 7 unknown #
coedge $-1 $155 $372 $378 $383 forward $260 $-1 #
loop $-1 $-1 $372 $248 #
vertex $-1 $257 $384 #
vertex $-1 $156 $385 #
straight-curve $-1 -45.793479213952125 30.984836659478894 6.0473124620631324 0 -1 0 I I #
coedge $-1 $264 $264 $-1 $386 reversed $159 $-1 #
edge $-1 $387 0 $387 6.2831853071796004 $160 $388 forward 7 unknown #
vertex $-1 $163 $389 #
ellipse-curve $-1 -40.824234902589929 26.319029271881355 3.7262204570716597 0 0.5877852598018023 0.80901698891910034 1 0 0 1 I I #
coedge $-1 $268 $268 $-1 $390 reversed $166 $-1 #
edge $-1 $391 0 $391 6.2831853071796004 $167 $392 forward 7 unknown #
vertex $-1 $170 $393 #
ellipse-curve $-1 -33.370368435546631 26.319029271881355 3.7262204570716597 0 0.5877852598018023 0.80901698891910034 1 0 0 1 I I #
face $-1 $-1 $394 $36 $-1 $395 reversed single #
loop $-1 $-1 $177 $171 #
plane-surface $-1 0 0 6.0473124620631262 0 0 1 1 0 0 forward_v I I I I #
coedge $-1 $396 $397 $398 $399 reversed $172 $-1 #
coedge $-1 $400 $174 $176 $282 forward $107 $-1 #
coedge $-1 $174 $400 $396 $401 forward $107 $-1 #
coedge $-1 $398 $177 $174 $279 forward $273 $-1 #
edge $-1 $285 -37.243866550582965 $402 -13.144115059213249 $278 $403 forward 7 unknown #
coedge $-1 $404 $405 $175 $281 forward $394 $-1 #
edge $-1 $406 -32.863508204563715 $284 -29.320019510807896 $280 $407 forward 7 unknown #
edge $-1 $285 -4.0916682658753025 $406 -7.160652361767478e-015 $176 $408 forward 7 unknown #
coedge $-1 $177 $398 $404 $409 forward $273 $-1 #
vertex $-1 $281 $410 #
vertex $-1 $178 $411 #
straight-curve $-1 62.437857355481071 -73.84651216675752 6.0473124620631253 0 1 0 I I #
coedge $-1 $287 $287 $-1 $412 reversed $181 $-1 #
edge $-1 $413 0 $413 6.2831853071796004 $182 $414 forward 7 unknown #
vertex $-1 $185 $415 #
ellipse-curve $-1 43.158056162385293 -28.490821241883069 4.2755681151852167 0 -0.86602541151947299 0.49999998660252726 1 0 0 1 I I #
coedge $-1 $291 $291 $-1 $416 reversed $188 $-1 #
edge $-1 $417 0 $417 6.2831853071796004 $189 $418 forward 7 unknown #
vertex $-1 $192 $419 #
ellipse-curve $-1 50.387981609796213 -28.490821241883069 4.2755681151852167 0 -0.86602541151947299 0.49999998660252726 1 0 0 1 I I #
coedge $-1 $295 $295 $-1 $420 reversed $195 $-1 #
edge $-1 $421 0 $421 6.2831853071796004 $196 $422 forward 7 unknown #
vertex $-1 $199 $423 #
ellipse-curve $-1 57.617907057207134 -28.490821241883069 4.2755681151852167 0 -0.86602541151947299 0.49999998660252726 1 0 0 1 I I #
face $-1 $-1 $215 $30 $-1 $424 reversed single #
loop $-1 $-1 $314 $200 #
plane-surface $-1 0 29.513738280942885 0 0 -1 0 0 0 -1 forward_v I I I I #
coedge $-1 $312 $425 $203 $304 reversed $201 $-1 #
coedge $-1 $318 $203 $204 $306 reversed $126 $-1 #
edge $-1 $319 -6.0473124620631262 $426 6.0473124620631262 $302 $427 forward 7 unknown #
coedge $-1 $205 $204 $425 $428 forward $81 $-1 #
edge $-1 $310 -68.230842005676436 $426 68.230842005676436 $303 $429 forward 7 unknown #
coedge $-1 $315 $314 $205 $308 reversed $300 $-1 #
edge $-1 $430 -68.230842005676436 $309 68.230842005676436 $307 $431 forward 7 unknown #
vertex $-1 $207 $432 #
vertex $-1 $321 $433 #
straight-curve $-1 68.230842005676436 0 -6.0473124620631262 0 -1 0 I I #
coedge $-1 $434 $302 $208 $313 reversed $201 $-1 #
edge $-1 $316 -29.513738280942885 $319 29.513738280942885 $312 $435 forward 7 unknown #
coedge $-1 $307 $209 $214 $322 forward $300 $-1 #
coedge $-1 $209 $307 $434 $436 reversed $300 $-1 #
vertex $-1 $210 $437 #
straight-curve $-1 0 29.513738280942885 6.0473124620631262 -1 0 0 I I #
coedge $-1 $211 $303 $213 $321 reversed $126 $-1 #
vertex $-1 $313 $438 #
straight-curve $-1 0 -29.513738280942885 6.0473124620631262 1 0 0 I I #
edge $-1 $216 -6.0473124620631262 $310 6.0473124620631262 $213 $439 forward 7 unknown #
edge $-1 $217 -6.0473124620631262 $309 6.0473124620631262 $214 $440 forward 7 unknown #
point $-1 68.230842005676436 -29.513738280942885 6.0473124620631262 #
point $-1 68.230842005676436 29.513738280942885 6.0473124620631262 #
face $-1 $-1 $339 $31 $-1 $441 reversed single #
loop $-1 $-1 $335 $219 #
plane-surface $-1 0 0 -6.0473124620631262 0 0 1 1 0 0 forward_v I I I I #
coedge $-1 $442 $443 $329 $444 forward $220 $-1 #
coedge $-1 $223 $222 $328 $444 reversed $85 $-1 #
coedge $-1 $335 $445 $222 $331 forward $326 $-1 #
edge $-1 $446 -74.023826655871801 $333 -68.230842005676436 $222 $447 forward 7 unknown #
edge $-1 $230 -2.8964923250976824 $448 2.8964923250976824 $223 $449 forward 7 unknown #
vertex $-1 $224 $450 #
straight-curve $-1 -68.230842005676436 29.513738280942885 0 0 0 -1 I I #
coedge $-1 $451 $330 $225 $336 forward $326 $-1 #
edge $-1 $333 -29.513738280942885 $340 29.513738280942885 $335 $452 forward 7 unknown #
coedge $-1 $453 $226 $229 $343 reversed $339 $-1 #
coedge $-1 $226 $453 $451 $454 reversed $339 $-1 #
loop $-1 $-1 $226 $325 #
vertex $-1 $454 $455 #
straight-curve $-1 -68.230842005676436 -29.513738280942885 0 0 0 1 I I #
coedge $-1 $229 $228 $443 $456 forward $134 $-1 #
edge $-1 $457 -2.8964923250976824 $231 2.8964923250976824 $337 $458 forward 7 unknown #
point $-1 -68.230842005676436 29.513738280942885 -2.8329186771040673 #
point $-1 -68.230842005676436 -29.513738280942885 -2.8329186771040673 #
face $-1 $-1 $362 $32 $-1 $459 reversed single #
loop $-1 $-1 $358 $233 #
plane-surface $-1 0 0 -6.0473124620631262 0 0 1 1 0 0 forward_v I I I I #
coedge $-1 $460 $350 $461 $462 forward $234 $-1 #
coedge $-1 $349 $463 $236 $351 reversed $234 $-1 #
edge $-1 $464 -29.513738280942885 $465 29.513738280942885 $350 $466 forward 7 unknown #
coedge $-1 $238 $237 $463 $467 forward $89 $-1 #
edge $-1 $465 -2.8964923250976824 $246 2.8964923250976824 $237 $468 forward 7 unknown #
coedge $-1 $469 $358 $238 $355 forward $347 $-1 #
edge $-1 $356 -2.8964923250976824 $470 2.8964923250976824 $238 $471 forward 7 unknown #
vertex $-1 $355 $472 #
straight-curve $-1 68.230842005676436 29.513738280942885 0 0 0 1 I I #
coedge $-1 $354 $473 $240 $359 forward $347 $-1 #
edge $-1 $363 -29.513738280942885 $356 29.513738280942885 $358 $474 forward 7 unknown #
coedge $-1 $461 $241 $473 $475 reversed $362 $-1 #
coedge $-1 $241 $461 $243 $365 reversed $362 $-1 #
loop $-1 $-1 $241 $346 #
vertex $-1 $242 $476 #
straight-curve $-1 68.230842005676436 -29.513738280942885 0 0 0 -1 I I #
edge $-1 $245 -2.8964923250976824 $464 2.8964923250976824 $361 $477 forward 7 unknown #
point $-1 68.230842005676436 -29.513738280942885 -2.8329186771040673 #
point $-1 68.230842005676436 29.513738280942885 -2.8329186771040673 #
plane-surface $-1 0 0 6.0473124620631262 0 0 1 1 0 0 forward_v I I I I #
coedge $-1 $379 $378 $371 $478 forward $249 $-1 #
coedge $-1 $371 $251 $253 $375 reversed $150 $-1 #
coedge $-1 $251 $370 $369 $478 reversed $150 $-1 #
coedge $-1 $259 $254 $251 $373 forward $260 $-1 #
edge $-1 $376 -7.8605163966590723 $479 -1.4710983785360092 $372 $480 forward 7 unknown #
coedge $-1 $253 $252 $379 $481 reversed $93 $-1 #
edge $-1 $482 -59.027476561885763 $376 -51.129721501562813 $370 $483 forward 7 unknown #
vertex $-1 $255 $484 #
straight-curve $-1 -18.54865083453414 23.124320262819825 6.0473124620631253 1 0 0 I I #
coedge $-1 $369 $256 $259 $383 reversed $249 $-1 #
coedge $-1 $256 $369 $374 $481 forward $249 $-1 #
vertex $-1 $257 $485 #
straight-curve $-1 -45.793479213952125 29.513738280942885 73.250214900073729 0 0 1 I I #
straight-curve $-1 -45.793479213952125 -18.240493070646707 36.10060909845302 0 0.80901698891910034 -0.5877852598018023 I I #
edge $-1 $479 28.401124124184435 $261 45.793479213952125 $378 $486 forward 7 unknown #
point $-1 -45.793479213952125 29.513738280942885 6.0473124620631262 #
point $-1 -45.793479213952125 23.124320262819822 6.0473124620631253 #
edge $-1 $487 1 $487 0 $264 $-1 forward 7 unknown #
vertex $-1 $265 $488 #
ellipse-curve $-1 -40.824234902589929 25.628672641018827 2.7760260902223384 0 0.5877852598018023 0.80901698891910034 1 0 0 1 I I #
point $-1 -39.824234902589929 26.319029271881352 3.7262204570716557 #
edge $-1 $489 1 $489 0 $268 $-1 forward 7 unknown #
vertex $-1 $269 $490 #
ellipse-curve $-1 -33.370368435546631 25.628672641018827 2.7760260902223384 0 0.5877852598018023 0.80901698891910034 1 0 0 1 I I #
point $-1 -32.370368435546631 26.319029271881352 3.7262204570716557 #
loop $-1 $-1 $280 $272 #
plane-surface $-1 0 -29.513738280942885 0 0 1 0 0 0 1 forward_v I I I I #
coedge $-1 $397 $275 $277 $401 reversed $172 $-1 #
coedge $-1 $275 $396 $491 $492 reversed $172 $-1 #
coedge $-1 $283 $278 $275 $399 forward $273 $-1 #
edge $-1 $402 -46.378607963934272 $493 -44.332773885814632 $398 $494 forward 7 unknown #
coedge $-1 $277 $276 $405 $495 reversed $107 $-1 #
edge $-1 $496 7.160652361767478e-015 $402 4.0916682658753025 $396 $497 forward 7 unknown #
vertex $-1 $279 $498 #
straight-curve $-1 25.193990804898107 -27.467904202823252 6.0473124620631262 -1 0 0 I I #
coedge $-1 $491 $280 $283 $409 reversed $394 $-1 #
coedge $-1 $280 $491 $400 $495 forward $394 $-1 #
vertex $-1 $281 $499 #
straight-curve $-1 62.437857355481071 -29.513738280942889 35.367331972871021 0 0 1 I I #
straight-curve $-1 62.437857355481071 -29.513738280942889 2.5038237683072992 0 -0.49999998660252726 -0.86602541151947299 I I #
edge $-1 $493 38.338105864111355 $284 62.437857355481071 $404 $500 forward 7 unknown #
point $-1 62.437857355481071 -29.513738280942885 6.0473124620631262 #
point $-1 62.437857355481071 -27.467904202823252 6.0473124620631271 #
edge $-1 $501 1 $501 0 $287 $-1 forward 7 unknown #
vertex $-1 $288 $502 #
ellipse-curve $-1 43.158056162385293 -26.1852965158579 2.9444728415467503 0 -0.86602541151947299 0.49999998660252726 1 0 0 1 I I #
point $-1 44.158056162385293 -28.490821241883069 4.2755681151852176 #
edge $-1 $503 1 $503 0 $291 $-1 forward 7 unknown #
vertex $-1 $292 $504 #
ellipse-curve $-1 50.387981609796213 -26.1852965158579 2.9444728415467503 0 -0.86602541151947299 0.49999998660252726 1 0 0 1 I I #
point $-1 51.387981609796213 -28.490821241883069 4.2755681151852176 #
edge $-1 $505 1 $505 0 $295 $-1 forward 7 unknown #
vertex $-1 $296 $506 #
ellipse-curve $-1 57.617907057207134 -26.1852965158579 2.9444728415467503 0 -0.86602541151947299 0.49999998660252726 1 0 0 1 I I #
point $-1 58.617907057207134 -28.490821241883069 4.2755681151852176 #
plane-surface $-1 68.230842005676436 0 0 -1 0 0 0 0 1 forward_v I I I I #
coedge $-1 $302 $434 $305 $428 reversed $201 $-1 #
vertex $-1 $428 $507 #
straight-curve $-1 -68.230842005676436 -29.513738280942885 0 0 0 -1 I I #
edge $-1 $426 -29.513738280942885 $430 29.513738280942885 $425 $508 forward 7 unknown #
straight-curve $-1 0 -29.513738280942885 -6.0473124620631262 -1 0 0 I I #
vertex $-1 $308 $509 #
straight-curve $-1 0 29.513738280942885 -6.0473124620631262 1 0 0 I I #
point $-1 68.230842005676436 29.513738280942885 -6.0473124620631262 #
point $-1 68.230842005676436 -29.513738280942885 -6.0473124620631262 #
coedge $-1 $425 $312 $315 $436 forward $201 $-1 #
straight-curve $-1 -68.230842005676436 0 6.0473124620631262 0 -1 0 I I #
edge $-1 $316 -6.0473124620631262 $430 6.0473124620631262 $315 $510 forward 7 unknown #
point $-1 -68.230842005676436 29.513738280942885 6.0473124620631262 #
point $-1 -68.230842005676436 -29.513738280942885 6.0473124620631262 #
straight-curve $-1 68.230842005676436 -29.513738280942885 0 0 0 -1 I I #
straight-curve $-1 68.230842005676436 29.513738280942885 0 0 0 -1 I I #
plane-surface $-1 0 -29.513738280942885 0 0 1 0 0 0 1 forward_v I I I I #
coedge $-1 $511 $328 $445 $512 reversed $220 $-1 #
coedge $-1 $328 $511 $342 $456 reversed $220 $-1 #
edge $-1 $448 -1.6071968924795295 $446 1.6071968924795295 $329 $513 forward 7 unknown #
coedge $-1 $330 $451 $442 $512 forward $326 $-1 #
vertex $-1 $331 $514 #
straight-curve $-1 0 29.513738280942885 -6.0473124620631262 1 0 0 I I #
vertex $-1 $332 $515 #
straight-curve $-1 -71.127334330774119 29.513738280942885 -2.8329186771040673 -1 0 0 I I #
point $-1 -68.230842005676436 29.513738280942885 -6.0473124620631262 #
coedge $-1 $445 $335 $338 $454 forward $326 $-1 #
straight-curve $-1 -68.230842005676436 0 -6.0473124620631262 0 -1 0 I I #
coedge $-1 $338 $337 $511 $516 forward $339 $-1 #
edge $-1 $340 -2.8964923250976824 $517 2.8964923250976824 $338 $518 forward 7 unknown #
point $-1 -68.230842005676436 -29.513738280942885 -6.0473124620631262 #
edge $-1 $448 -29.513738280942885 $457 29.513738280942885 $443 $519 forward 7 unknown #
vertex $-1 $456 $520 #
straight-curve $-1 -71.127334330774119 -29.513738280942885 -2.8329186771040673 1 0 0 I I #
plane-surface $-1 0 -29.513738280942885 0 0 1 0 0 0 1 forward_v I I I I #
coedge $-1 $463 $349 $469 $521 reversed $234 $-1 #
coedge $-1 $361 $360 $349 $462 reversed $362 $-1 #
edge $-1 $464 -1.6071968924795295 $522 1.6071968924795295 $349 $523 forward 7 unknown #
coedge $-1 $350 $460 $352 $467 reversed $234 $-1 #
vertex $-1 $351 $524 #
vertex $-1 $351 $525 #
straight-curve $-1 74.023826655871801 0 -2.8329186771040673 0 1 0 I I #
edge $-1 $465 -1.6071968924795295 $470 1.6071968924795295 $463 $526 forward 7 unknown #
straight-curve $-1 71.127334330774119 29.513738280942885 -2.8329186771040673 -1 0 0 I I #
coedge $-1 $473 $354 $460 $521 forward $347 $-1 #
vertex $-1 $521 $527 #
straight-curve $-1 71.127334330774119 29.513738280942885 -6.0473124620631262 1 0 0 I I #
point $-1 68.230842005676436 29.513738280942885 -6.0473124620631262 #
coedge $-1 $358 $469 $360 $475 forward $347 $-1 #
straight-curve $-1 68.230842005676436 0 -6.0473124620631262 0 1 0 I I #
edge $-1 $522 -2.8964923250976824 $363 2.8964923250976824 $360 $528 forward 7 unknown #
point $-1 68.230842005676436 -29.513738280942885 -6.0473124620631262 #
straight-curve $-1 71.127334330774119 -29.513738280942885 -2.8329186771040673 1 0 0 I I #
edge $-1 $479 67.202902438010597 $482 71.845086447993538 $369 $529 forward 7 unknown #
vertex $-1 $383 $530 #
straight-curve $-1 -28.401124124184435 30.984836659478894 6.0473124620631324 0 1 0 I I #
edge $-1 $482 9.8524732896502947 $380 27.244828379417985 $379 $531 forward 7 unknown #
vertex $-1 $481 $532 #
straight-curve $-1 -28.401124124184435 -18.240493070646707 36.10060909845302 0 -0.80901698891910034 0.5877852598018023 I I #
point $-1 -28.401124124184435 23.124320262819822 6.0473124620631253 #
point $-1 -45.793479213952125 29.513738280942889 1.4051284520801985 #
straight-curve $-1 0 29.513738280942885 6.0473124620631262 -1 0 0 I I #
vertex $-1 $386 $533 #
point $-1 -39.824234902589929 25.628672641018827 2.7760260902223384 #
vertex $-1 $390 $534 #
point $-1 -32.370368435546631 25.628672641018827 2.7760260902223384 #
coedge $-1 $405 $404 $397 $492 forward $394 $-1 #
edge $-1 $493 29.320019510807896 $496 32.863508204563715 $491 $535 forward 7 unknown #
vertex $-1 $409 $536 #
straight-curve $-1 38.338105864111355 -73.84651216675752 6.0473124620631253 0 -1 0 I I #
edge $-1 $496 13.144115059213249 $406 37.243866550582965 $405 $537 forward 7 unknown #
vertex $-1 $495 $538 #
straight-curve $-1 38.338105864111355 -29.513738280942889 2.5038237683072992 0 0.49999998660252726 0.86602541151947299 I I #
point $-1 38.338105864111355 -27.467904202823252 6.0473124620631271 #
point $-1 62.437857355481071 -29.513738280942885 2.5038237683073055 #
straight-curve $-1 0 -29.513738280942885 6.0473124620631262 1 0 0 I I #
vertex $-1 $412 $539 #
point $-1 44.158056162385293 -26.1852965158579 2.9444728415467503 #
vertex $-1 $416 $540 #
point $-1 51.387981609796213 -26.1852965158579 2.9444728415467503 #
vertex $-1 $420 $541 #
point $-1 58.617907057207134 -26.1852965158579 2.9444728415467503 #
point $-1 -68.230842005676436 -29.513738280942885 -6.0473124620631262 #
straight-curve $-1 -68.230842005676436 0 -6.0473124620631262 0 1 0 I I #
point $-1 -68.230842005676436 29.513738280942885 -6.0473124620631262 #
straight-curve $-1 -68.230842005676436 29.513738280942885 0 0 0 -1 I I #
coedge $-1 $443 $442 $453 $516 reversed $220 $-1 #
edge $-1 $517 -29.513738280942885 $446 29.513738280942885 $442 $542 forward 7 unknown #
straight-curve $-1 -74.023826655871801 29.513738280942885 -4.4401155695835968 0 0 -1 I I #
point $-1 -74.023826655871801 29.513738280942885 -6.0473124620631262 #
point $-1 -74.023826655871801 29.513738280942885 -2.8329186771040673 #
edge $-1 $457 -1.6071968924795295 $517 1.6071968924795295 $511 $543 forward 7 unknown #
vertex $-1 $512 $544 #
straight-curve $-1 -71.127334330774119 -29.513738280942885 -6.0473124620631262 -1 0 0 I I #
straight-curve $-1 -74.023826655871801 0 -2.8329186771040673 0 -1 0 I I #
point $-1 -74.023826655871801 -29.513738280942885 -2.8329186771040673 #
edge $-1 $470 -29.513738280942885 $522 29.513738280942885 $460 $545 forward 7 unknown #
vertex $-1 $462 $546 #
straight-curve $-1 74.023826655871801 -29.513738280942885 -4.4401155695835968 0 0 -1 I I #
point $-1 74.023826655871801 -29.513738280942885 -2.8329186771040673 #
point $-1 74.023826655871801 29.513738280942885 -2.8329186771040673 #
straight-curve $-1 74.023826655871801 29.513738280942885 -4.4401155695835968 0 0 -1 I I #
point $-1 74.023826655871801 29.513738280942885 -6.0473124620631262 #
straight-curve $-1 71.127334330774119 -29.513738280942885 -6.0473124620631262 -1 0 0 I I #
straight-curve $-1 -28.401124124184435 29.513738280942885 73.250214900073729 0 0 -1 I I #
point $-1 -28.401124124184435 29.513738280942885 6.0473124620631262 #
straight-curve $-1 -18.54865083453414 29.513738280942889 1.4051284520802021 -1 0 0 I I #
point $-1 -28.401124124184435 29.513738280942889 1.4051284520801985 #
point $-1 -40.824234902589929 25.040887381217022 1.9670091013032382 #
point $-1 -33.370368435546631 25.040887381217022 1.9670091013032382 #
straight-curve $-1 38.338105864111355 -29.513738280942889 35.367331972871021 0 0 -1 I I #
point $-1 38.338105864111355 -29.513738280942885 6.0473124620631262 #
straight-curve $-1 25.193990804898107 -29.513738280942885 2.5038237683073072 1 0 0 I I #
point $-1 38.338105864111355 -29.513738280942885 2.5038237683073055 #
point $-1 43.158056162385293 -25.319271104338426 2.4444728549442227 #
point $-1 50.387981609796213 -25.319271104338426 2.4444728549442227 #
point $-1 57.617907057207134 -25.319271104338426 2.4444728549442227 #
straight-curve $-1 -74.023826655871801 0 -6.0473124620631262 0 1 0 I I #
straight-curve $-1 -74.023826655871801 -29.513738280942885 -4.4401155695835968 0 0 -1 I I #
point $-1 -74.023826655871801 -29.513738280942885 -6.0473124620631262 #
straight-curve $-1 74.023826655871801 0 -6.0473124620631262 0 -1 0 I I #
point $-1 74.023826655871801 -29.513738280942885 -6.0473124620631262 #
End-of-ACIS-data 