500 0 8 0           
7 Unknown 11 ACIS 5.0 NT 24 Fri Mar 26 18:21:12 1999 
-1 9.9999999999999995e-007 1e-010 
body $-1 $8 $-1 $9 #
body $-1 $10 $-1 $11 #
body $-1 $12 $-1 $13 #
body $-1 $14 $-1 $15 #
body $-1 $16 $-1 $17 #
body $-1 $18 $-1 $19 #
body $-1 $20 $-1 $21 #
body $-1 $22 $-1 $23 #
lump $-1 $-1 $24 $0 #
transform $-1 1 0 0 0 1 0 0 0 1 76.375621814630577 42.592922381282094 9.8031184859974072 1 rotate no_reflect no_shear #
lump $-1 $-1 $25 $1 #
transform $-1 1 0 0 0 1 0 0 0 1 76.375621814630577 42.592922381282094 9.8031184859974072 1 rotate no_reflect no_shear #
lump $-1 $-1 $26 $2 #
transform $-1 1 0 0 0 1 0 0 0 1 76.375621814630577 42.592922381282094 9.8031184859974072 1 rotate no_reflect no_shear #
lump $-1 $-1 $27 $3 #
transform $-1 1 0 0 0 1 0 0 0 1 76.375621814630577 42.592922381282094 9.8031184859974072 1 rotate no_reflect no_shear #
lump $-1 $-1 $28 $4 #
transform $-1 1 0 0 0 1 0 0 0 1 76.375621814630577 42.592922381282094 9.8031184859974072 1 rotate no_reflect no_shear #
lump $-1 $-1 $29 $5 #
transform $-1 1 0 0 0 1 0 0 0 1 76.375621814630577 42.592922381282094 9.8031184859974072 1 rotate no_reflect no_shear #
lump $-1 $-1 $30 $6 #
transform $-1 1 0 0 0 1 0 0 0 1 76.375621814630577 42.592922381282094 9.8031184859974072 1 rotate no_reflect no_shear #
lump $-1 $-1 $31 $7 #
transform $-1 1 0 0 0 1 0 0 0 1 76.375621814630577 42.592922381282094 9.8031184859974072 1 rotate no_reflect no_shear #
shell $-1 $-1 $-1 $32 $-1 $8 #
shell $-1 $-1 $-1 $33 $-1 $10 #
shell $-1 $-1 $-1 $34 $-1 $12 #
shell $-1 $-1 $-1 $35 $-1 $14 #
shell $-1 $-1 $-1 $36 $-1 $16 #
shell $-1 $-1 $-1 $37 $-1 $18 #
shell $-1 $-1 $-1 $38 $-1 $20 #
shell $-1 $-1 $-1 $39 $-1 $22 #
face $-1 $40 $41 $24 $-1 $42 forward single #
face $-1 $43 $44 $25 $-1 $45 reversed single #
face $-1 $46 $47 $26 $-1 $48 reversed single #
face $-1 $49 $50 $27 $-1 $51 forward single #
face $-1 $52 $53 $28 $-1 $54 forward single #
face $-1 $55 $56 $29 $-1 $57 reversed single #
face $-1 $58 $59 $30 $-1 $60 forward single #
face $-1 $61 $62 $31 $-1 $63 forward single #
face $-1 $64 $65 $24 $-1 $66 reversed single #
loop $-1 $-1 $67 $32 #
plane-surface $-1 0 0 9.8031184859974072 0 0 1 1 0 0 forward_v I I I I #
face $-1 $68 $69 $25 $-1 $70 reversed single #
loop $-1 $-1 $71 $33 #
plane-surface $-1 -73.947534735541666 -33.117575755720154 0 0 -1 0 0 0 -1 forward_v I I I I #
face $-1 $72 $73 $26 $-1 $74 reversed single #
loop $-1 $-1 $75 $34 #
plane-surface $-1 27.781048840693828 23.719018635681252 215.0460015732059 0 1 0 0.52991927123019833 0 0.84804809178421925 forward_v I I I I #
face $-1 $76 $77 $27 $-1 $78 forward single #
loop $-1 $79 $80 $35 #
cone-surface $-1 71.607357331459013 29.111562562995772 6.2649161881075894 -0.52991927123019833 0 -0.84804809178421925 1.6960961835684385 0 -1.0598385424603967 1 I I 0 1 2 forward I I I I #
face $-1 $81 $82 $28 $-1 $83 forward single #
loop $-1 $84 $85 $36 #
cone-surface $-1 71.607357331459013 37.200378453967559 6.2649161881075894 -0.52991927123019833 0 -0.84804809178421925 1.6960961835684385 0 -1.0598385424603967 1 I I 0 1 2 forward I I I I #
face $-1 $86 $87 $29 $-1 $88 reversed single #
loop $-1 $-1 $89 $37 #
plane-surface $-1 -168.30361619967249 -1.7098710370227508 123.24618230448641 0 1 0 -0.6018150307709319 0 0.79863550430605224 forward_v I I I I #
face $-1 $90 $91 $30 $-1 $92 forward single #
loop $-1 $93 $94 $38 #
cone-surface $-1 -69.239154001157729 3.7030059199742453 3.5859964958617656 0.6018150307709319 0 -0.79863550430605224 1.5972710086121045 0 1.2036300615418638 1 I I 0 1 2 forward I I I I #
face $-1 $95 $96 $31 $-1 $97 forward single #
loop $-1 $98 $99 $39 #
cone-surface $-1 -69.239154001157729 11.82232135546974 3.5859964958617656 0.6018150307709319 0 -0.79863550430605224 1.5972710086121045 0 1.2036300615418638 1 I I 0 1 2 forward I I I I #
face $-1 $100 $101 $24 $-1 $102 reversed single #
loop $-1 $-1 $103 $40 #
plane-surface $-1 0 0 -9.8031184859974072 0 0 1 1 0 0 forward_v I I I I #
coedge $-1 $104 $105 $106 $107 forward $41 $-1 #
face $-1 $108 $109 $25 $-1 $110 forward single #
loop $-1 $-1 $111 $43 #
plane-surface $-1 -71.519447656452755 -37.855249068501124 0 -1 0 0 0 0 1 forward_v I I I I #
coedge $-1 $112 $113 $114 $115 forward $44 $-1 #
face $-1 $116 $117 $26 $-1 $118 reversed single #
loop $-1 $-1 $119 $46 #
plane-surface $-1 -53.164778862830715 33.155970508481673 85.505600895744607 0.52991927123019833 0 0.84804809178421925 0.84804809178421925 0 -0.52991927123019833 forward_v I I I I #
coedge $-1 $120 $121 $122 $123 reversed $47 $-1 #
face $-1 $-1 $124 $27 $-1 $125 forward single #
loop $-1 $126 $127 $49 #
cone-surface $-1 70.504726760687348 29.111562562995772 4.5003384453222228 -0.52991927123019833 0 -0.84804809178421925 0.84804809178421925 0 -0.52991927123019833 1 I I -0.70710678118654746 0.70710678118654746 1 forward I I I I #
loop $-1 $-1 $128 $35 #
coedge $-1 $80 $80 $129 $130 reversed $50 $-1 #
face $-1 $-1 $131 $28 $-1 $132 forward single #
loop $-1 $133 $134 $52 #
cone-surface $-1 70.504726760687348 37.200378453967559 4.5003384453222228 -0.52991927123019833 0 -0.84804809178421925 0.84804809178421925 0 -0.52991927123019833 1 I I -0.70710678118654746 0.70710678118654746 1 forward I I I I #
loop $-1 $-1 $135 $36 #
coedge $-1 $85 $85 $136 $137 reversed $53 $-1 #
face $-1 $138 $139 $29 $-1 $140 reversed single #
loop $-1 $-1 $141 $55 #
plane-surface $-1 -76.375621814630577 7.7626636377219995 1.2536158152547756 -0.6018150307709319 0 0.79863550430605224 0.79863550430605224 0 0.6018150307709319 forward_v I I I I #
coedge $-1 $142 $143 $144 $145 reversed $56 $-1 #
face $-1 $-1 $146 $30 $-1 $147 forward single #
loop $-1 $148 $149 $58 #
cone-surface $-1 -67.173657667636235 3.7030059199742453 0.84499033679140112 0.6018150307709319 0 -0.79863550430605224 0.79863550430605224 0 0.6018150307709319 1 I I -0.70710678118654746 0.70710678118654746 1 forward I I I I #
loop $-1 $-1 $150 $38 #
coedge $-1 $94 $94 $151 $152 reversed $59 $-1 #
face $-1 $-1 $153 $31 $-1 $154 forward single #
loop $-1 $155 $156 $61 #
cone-surface $-1 -67.173657667636235 11.82232135546974 0.84499033679140112 0.6018150307709319 0 -0.79863550430605224 0.79863550430605224 0 0.6018150307709319 1 I I -0.70710678118654746 0.70710678118654746 1 forward I I I I #
loop $-1 $-1 $157 $39 #
coedge $-1 $99 $99 $158 $159 reversed $62 $-1 #
face $-1 $160 $161 $24 $-1 $162 reversed single #
loop $-1 $-1 $163 $64 #
plane-surface $-1 0 -42.592922381282094 0 0 1 0 0 0 1 forward_v I I I I #
coedge $-1 $164 $165 $166 $167 forward $65 $-1 #
coedge $-1 $168 $67 $169 $170 forward $41 $-1 #
coedge $-1 $67 $168 $171 $172 forward $41 $-1 #
coedge $-1 $173 $174 $67 $107 reversed $175 $-1 #
edge $-1 $176 -42.592922381282094 $177 42.592922381282094 $106 $178 forward 7 unknown #
face $-1 $179 $180 $25 $-1 $181 reversed single #
loop $-1 $-1 $182 $68 #
plane-surface $-1 0 0 9.8031184859974072 0 0 1 1 0 0 forward_v I I I I #
coedge $-1 $183 $184 $185 $186 reversed $69 $-1 #
coedge $-1 $187 $71 $188 $189 reversed $44 $-1 #
coedge $-1 $71 $187 $190 $191 reversed $44 $-1 #
coedge $-1 $184 $183 $71 $115 reversed $69 $-1 #
edge $-1 $192 -9.8031184859974072 $193 9.8031184859974072 $114 $194 forward 7 unknown #
face $-1 $195 $196 $26 $-1 $197 reversed single #
loop $-1 $-1 $122 $72 #
plane-surface $-1 76.375621814630577 0 0 -1 0 0 0 0 1 forward_v I I I I #
coedge $-1 $198 $199 $200 $201 reversed $73 $-1 #
coedge $-1 $121 $75 $202 $203 reversed $47 $-1 #
coedge $-1 $75 $120 $198 $204 reversed $47 $-1 #
coedge $-1 $200 $205 $75 $123 forward $117 $-1 #
edge $-1 $206 97.719882300605548 $207 102.96322759438289 $122 $208 forward 7 unknown #
loop $-1 $-1 $129 $76 #
plane-surface $-1 -53.164778862830715 33.155970508481673 85.505600895744607 0.52991927123019833 0 0.84804809178421925 0.84804809178421925 0 -0.52991927123019833 forward_v I I I I #
loop $-1 $-1 $209 $49 #
coedge $-1 $127 $127 $128 $210 reversed $77 $-1 #
coedge $-1 $128 $128 $127 $210 forward $79 $-1 #
coedge $-1 $129 $129 $80 $130 forward $124 $-1 #
edge $-1 $211 0 $211 6.2831853071796004 $129 $212 forward 7 unknown #
loop $-1 $-1 $136 $81 #
plane-surface $-1 -53.164778862830715 33.155970508481673 85.505600895744607 0.52991927123019833 0 0.84804809178421925 0.84804809178421925 0 -0.52991927123019833 forward_v I I I I #
loop $-1 $-1 $213 $52 #
coedge $-1 $134 $134 $135 $214 reversed $82 $-1 #
coedge $-1 $135 $135 $134 $214 forward $84 $-1 #
coedge $-1 $136 $136 $85 $137 forward $131 $-1 #
edge $-1 $215 0 $215 6.2831853071796004 $136 $216 forward 7 unknown #
face $-1 $217 $218 $29 $-1 $219 reversed single #
loop $-1 $-1 $220 $86 #
plane-surface $-1 -168.30361619967249 17.23519831246675 123.24618230448641 0 -1 0 0.6018150307709319 0 -0.79863550430605224 forward_v I I I I #
coedge $-1 $221 $222 $223 $224 reversed $87 $-1 #
coedge $-1 $143 $89 $225 $226 reversed $56 $-1 #
coedge $-1 $89 $142 $221 $227 reversed $56 $-1 #
coedge $-1 $223 $228 $89 $145 forward $229 $-1 #
edge $-1 $230 7.776186285205668 $231 19.121759306650176 $144 $232 forward 7 unknown #
loop $-1 $-1 $151 $90 #
plane-surface $-1 -76.375621814630577 7.7626636377219995 1.2536158152547756 -0.6018150307709319 0 0.79863550430605224 0.79863550430605224 0 0.6018150307709319 forward_v I I I I #
loop $-1 $-1 $233 $58 #
coedge $-1 $149 $149 $150 $234 reversed $91 $-1 #
coedge $-1 $150 $150 $149 $234 forward $93 $-1 #
coedge $-1 $151 $151 $94 $152 forward $146 $-1 #
edge $-1 $235 0 $235 6.2831853071796004 $151 $236 forward 7 unknown #
loop $-1 $-1 $158 $95 #
plane-surface $-1 -76.375621814630577 7.7626636377219995 1.2536158152547756 -0.6018150307709319 0 0.79863550430605224 0.79863550430605224 0 0.6018150307709319 forward_v I I I I #
loop $-1 $-1 $237 $61 #
coedge $-1 $156 $156 $157 $238 reversed $96 $-1 #
coedge $-1 $157 $157 $156 $238 forward $98 $-1 #
coedge $-1 $158 $158 $99 $159 forward $153 $-1 #
edge $-1 $239 0 $239 6.2831853071796004 $158 $240 forward 7 unknown #
face $-1 $241 $242 $24 $-1 $243 reversed single #
loop $-1 $-1 $244 $100 #
plane-surface $-1 -76.375621814630577 0 0 1 0 0 0 0 -1 forward_v I I I I #
coedge $-1 $245 $171 $246 $247 forward $101 $-1 #
coedge $-1 $248 $103 $245 $249 forward $65 $-1 #
coedge $-1 $103 $248 $250 $251 forward $65 $-1 #
coedge $-1 $174 $173 $103 $167 reversed $175 $-1 #
edge $-1 $252 -42.592922381282094 $253 42.592922381282094 $166 $254 forward 7 unknown #
coedge $-1 $105 $104 $255 $256 forward $41 $-1 #
coedge $-1 $257 $258 $104 $170 reversed $242 $-1 #
edge $-1 $177 -76.375621814630577 $259 76.375621814630577 $169 $260 forward 7 unknown #
coedge $-1 $163 $261 $105 $172 reversed $101 $-1 #
edge $-1 $262 -76.375621814630577 $176 76.375621814630577 $171 $263 forward 7 unknown #
coedge $-1 $166 $106 $261 $264 forward $175 $-1 #
coedge $-1 $106 $166 $257 $265 reversed $175 $-1 #
loop $-1 $-1 $173 $241 #
vertex $-1 $107 $266 #
vertex $-1 $107 $267 #
straight-curve $-1 76.375621814630577 0 9.8031184859974072 0 1 0 I I #
face $-1 $268 $269 $25 $-1 $270 reversed single #
loop $-1 $-1 $271 $108 #
plane-surface $-1 -76.375621814630577 0 0 1 0 0 0 0 -1 forward_v I I I I #
coedge $-1 $190 $272 $184 $273 forward $109 $-1 #
coedge $-1 $114 $111 $274 $275 reversed $69 $-1 #
coedge $-1 $111 $114 $182 $273 reversed $69 $-1 #
coedge $-1 $276 $277 $111 $186 forward $278 $-1 #
edge $-1 $279 -9.8031184859974072 $280 9.8031184859974072 $185 $281 forward 7 unknown #
coedge $-1 $113 $112 $271 $282 reversed $44 $-1 #
coedge $-1 $274 $283 $112 $189 forward $269 $-1 #
edge $-1 $284 -39.401854446859744 $193 -34.545680288681922 $188 $285 forward 7 unknown #
coedge $-1 $286 $182 $113 $191 forward $109 $-1 #
edge $-1 $192 34.545680288681922 $287 39.401854446859744 $190 $288 forward 7 unknown #
vertex $-1 $191 $289 #
vertex $-1 $189 $290 #
straight-curve $-1 -71.519447656452755 -33.117575755720154 0 0 0 -1 I I #
face $-1 $-1 $291 $26 $-1 $292 forward single #
loop $-1 $-1 $293 $116 #
plane-surface $-1 0 42.592922381282094 0 0 -1 0 0 0 -1 forward_v I I I I #
coedge $-1 $294 $119 $121 $204 forward $73 $-1 #
coedge $-1 $119 $294 $293 $295 reversed $73 $-1 #
coedge $-1 $296 $122 $119 $201 forward $117 $-1 #
edge $-1 $207 7.1410333814404154 $297 26.014937127041257 $200 $298 forward 7 unknown #
coedge $-1 $299 $300 $120 $203 forward $291 $-1 #
edge $-1 $301 54.093991027023385 $206 62.485097394283663 $202 $302 forward 7 unknown #
edge $-1 $207 -152.75124362926115 $301 -142.85663216966088 $121 $303 forward 7 unknown #
coedge $-1 $122 $296 $299 $304 reversed $117 $-1 #
vertex $-1 $304 $305 #
vertex $-1 $123 $306 #
straight-curve $-1 76.375621814630577 23.719018635681252 107.52300078660295 0 0 -1 I I #
coedge $-1 $209 $209 $-1 $307 reversed $126 $-1 #
edge $-1 $308 0 $308 6.2831853071796004 $127 $309 forward 7 unknown #
vertex $-1 $130 $310 #
ellipse-curve $-1 72.180068631000466 29.111562562995772 7.1814458391087213 0.52991927123019833 0 0.84804809178421925 1.6960961835684385 0 -1.0598385424603967 1 I I #
coedge $-1 $213 $213 $-1 $311 reversed $133 $-1 #
edge $-1 $312 0 $312 6.2831853071796004 $134 $313 forward 7 unknown #
vertex $-1 $137 $314 #
ellipse-curve $-1 72.180068631000466 37.200378453967559 7.1814458391087213 0.52991927123019833 0 0.84804809178421925 1.6960961835684385 0 -1.0598385424603967 1 I I #
face $-1 $-1 $229 $29 $-1 $315 forward single #
loop $-1 $-1 $316 $138 #
plane-surface $-1 -76.375621814630577 0 0 1 0 0 0 0 -1 forward_v I I I I #
coedge $-1 $317 $318 $319 $320 reversed $139 $-1 #
coedge $-1 $321 $141 $143 $227 forward $87 $-1 #
coedge $-1 $141 $321 $317 $322 forward $87 $-1 #
coedge $-1 $319 $144 $141 $224 forward $229 $-1 #
edge $-1 $231 -5.5912028558837505 $323 13.35386649360575 $223 $324 forward 7 unknown #
coedge $-1 $325 $326 $142 $226 forward $218 $-1 #
edge $-1 $327 -60.36947533698843 $230 -51.819972666245796 $225 $328 forward 7 unknown #
edge $-1 $231 -14.206196644491616 $327 0 $143 $329 forward 7 unknown #
coedge $-1 $144 $319 $325 $330 forward $229 $-1 #
loop $-1 $-1 $319 $217 #
vertex $-1 $226 $331 #
vertex $-1 $145 $332 #
straight-curve $-1 -84.151808099836245 -1.7098710370227508 9.803118485997409 1 0 0 I I #
coedge $-1 $233 $233 $-1 $333 reversed $148 $-1 #
edge $-1 $334 0 $334 6.2831853071796004 $149 $335 forward 7 unknown #
vertex $-1 $152 $336 #
ellipse-curve $-1 -70.702835303908316 3.7030059199742453 5.5283671506260994 -0.6018150307709319 0 0.79863550430605224 1.5972710086121045 0 1.2036300615418638 1 I I #
coedge $-1 $237 $237 $-1 $337 reversed $155 $-1 #
edge $-1 $338 0 $338 6.2831853071796004 $156 $339 forward 7 unknown #
vertex $-1 $159 $340 #
ellipse-curve $-1 -70.702835303908316 11.82232135546974 5.5283671506260994 -0.6018150307709319 0 0.79863550430605224 1.5972710086121045 0 1.2036300615418638 1 I I #
face $-1 $-1 $175 $24 $-1 $341 reversed single #
loop $-1 $-1 $257 $160 #
plane-surface $-1 0 42.592922381282094 0 0 -1 0 0 0 -1 forward_v I I I I #
coedge $-1 $342 $255 $258 $343 forward $161 $-1 #
coedge $-1 $261 $163 $164 $249 reversed $101 $-1 #
coedge $-1 $255 $342 $163 $247 reversed $161 $-1 #
edge $-1 $262 -9.8031184859974072 $344 9.8031184859974072 $246 $345 forward 7 unknown #
coedge $-1 $165 $164 $342 $346 forward $65 $-1 #
edge $-1 $253 -76.375621814630577 $344 76.375621814630577 $245 $347 forward 7 unknown #
coedge $-1 $258 $257 $165 $251 reversed $242 $-1 #
edge $-1 $348 -76.375621814630577 $252 76.375621814630577 $250 $349 forward 7 unknown #
vertex $-1 $167 $350 #
vertex $-1 $264 $351 #
straight-curve $-1 76.375621814630577 0 -9.8031184859974072 0 -1 0 I I #
coedge $-1 $244 $246 $168 $256 reversed $161 $-1 #
edge $-1 $259 -42.592922381282094 $262 42.592922381282094 $255 $352 forward 7 unknown #
coedge $-1 $250 $169 $174 $265 forward $242 $-1 #
coedge $-1 $169 $250 $244 $343 reversed $242 $-1 #
vertex $-1 $170 $353 #
straight-curve $-1 0 42.592922381282094 9.8031184859974072 -1 0 0 I I #
coedge $-1 $171 $245 $173 $264 reversed $101 $-1 #
vertex $-1 $256 $354 #
straight-curve $-1 0 -42.592922381282094 9.8031184859974072 1 0 0 I I #
edge $-1 $176 -9.8031184859974072 $253 9.8031184859974072 $173 $355 forward 7 unknown #
edge $-1 $177 -9.8031184859974072 $252 9.8031184859974072 $174 $356 forward 7 unknown #
point $-1 76.375621814630577 -42.592922381282094 9.8031184859974072 #
point $-1 76.375621814630577 42.592922381282094 9.8031184859974072 #
face $-1 $-1 $278 $25 $-1 $357 reversed single #
loop $-1 $-1 $274 $179 #
plane-surface $-1 0 0 -9.8031184859974072 0 0 1 1 0 0 forward_v I I I I #
coedge $-1 $358 $359 $187 $282 forward $180 $-1 #
coedge $-1 $182 $286 $276 $360 forward $109 $-1 #
edge $-1 $280 -23.665297847031532 $192 -14.189951221469592 $182 $361 forward 7 unknown #
coedge $-1 $362 $188 $183 $275 forward $269 $-1 #
edge $-1 $193 14.189951221469592 $279 23.665297847031532 $274 $363 forward 7 unknown #
coedge $-1 $364 $185 $272 $360 reversed $278 $-1 #
coedge $-1 $185 $364 $362 $365 reversed $278 $-1 #
loop $-1 $-1 $185 $268 #
vertex $-1 $365 $366 #
vertex $-1 $186 $367 #
straight-curve $-1 -71.519447656452755 -42.592922381282094 0 0 0 1 I I #
edge $-1 $287 -9.8031184859974072 $284 9.8031184859974072 $271 $368 forward 7 unknown #
coedge $-1 $188 $362 $358 $369 forward $269 $-1 #
vertex $-1 $189 $370 #
straight-curve $-1 -36.973767367770833 -33.117575755720154 -9.8031184859974072 1 0 0 I I #
coedge $-1 $272 $190 $359 $371 forward $109 $-1 #
vertex $-1 $371 $372 #
straight-curve $-1 -36.973767367770833 -33.117575755720154 9.8031184859974072 -1 0 0 I I #
point $-1 -71.519447656452755 -33.117575755720154 9.8031184859974072 #
point $-1 -71.519447656452755 -33.117575755720154 -9.8031184859974072 #
loop $-1 $-1 $202 $195 #
plane-surface $-1 0 0 9.8031184859974072 0 0 1 1 0 0 forward_v I I I I #
coedge $-1 $373 $374 $199 $295 forward $196 $-1 #
coedge $-1 $199 $198 $300 $375 reversed $73 $-1 #
edge $-1 $297 -107.55256614049777 $376 -97.657954680897518 $293 $377 forward 7 unknown #
coedge $-1 $205 $200 $374 $378 reversed $117 $-1 #
vertex $-1 $295 $379 #
straight-curve $-1 76.375621814630577 16.577985254240836 4.5597731922200637 0 1 0 I I #
coedge $-1 $380 $202 $205 $304 forward $291 $-1 #
coedge $-1 $202 $380 $294 $375 forward $291 $-1 #
vertex $-1 $203 $381 #
straight-curve $-1 13.890524420346914 23.719018635681252 9.8031184859974019 1 0 0 I I #
straight-curve $-1 -53.164778862830715 23.719018635681252 85.505600895744607 -0.84804809178421925 0 0.52991927123019833 I I #
edge $-1 $206 23.719018635681252 $382 42.592922381282094 $205 $383 forward 7 unknown #
point $-1 76.375621814630577 23.719018635681252 9.8031184859974072 #
point $-1 76.375621814630577 23.719018635681252 4.5597731922200637 #
edge $-1 $384 1 $384 0 $209 $-1 forward 7 unknown #
vertex $-1 $210 $385 #
ellipse-curve $-1 71.034646031917546 29.111562562995772 5.3483865371064425 0.52991927123019833 0 0.84804809178421925 1.6960961835684385 0 -1.0598385424603967 1 I I #
point $-1 73.876164814568909 29.111562562995772 6.1216072966483388 #
edge $-1 $386 1 $386 0 $213 $-1 forward 7 unknown #
vertex $-1 $214 $387 #
ellipse-curve $-1 71.034646031917546 37.200378453967559 5.3483865371064425 0.52991927123019833 0 0.84804809178421925 1.6960961835684385 0 -1.0598385424603967 1 I I #
point $-1 73.876164814568909 37.200378453967559 6.1216072966483388 #
plane-surface $-1 0 0 9.8031184859974072 0 0 1 1 0 0 forward_v I I I I #
coedge $-1 $326 $325 $318 $388 forward $218 $-1 #
coedge $-1 $318 $220 $222 $322 reversed $139 $-1 #
coedge $-1 $220 $317 $316 $388 reversed $139 $-1 #
coedge $-1 $228 $223 $220 $320 forward $229 $-1 #
edge $-1 $323 -19.121759306650176 $389 -7.776186285205668 $319 $390 forward 7 unknown #
coedge $-1 $222 $221 $326 $391 reversed $87 $-1 #
edge $-1 $392 0 $323 14.206196644491616 $317 $393 forward 7 unknown #
vertex $-1 $224 $394 #
straight-curve $-1 -65.030048793186069 3.8813318188609998 9.8031184859974072 0 1 0 I I #
coedge $-1 $316 $225 $228 $330 reversed $218 $-1 #
coedge $-1 $225 $316 $321 $391 forward $218 $-1 #
vertex $-1 $226 $395 #
straight-curve $-1 -76.375621814630577 -1.7098710370227508 61.623091152243205 0 0 1 I I #
straight-curve $-1 -76.375621814630577 -1.7098710370227508 1.2536158152547756 -0.79863550430605224 0 -0.6018150307709319 I I #
edge $-1 $389 -17.23519831246675 $230 1.7098710370227508 $325 $396 forward 7 unknown #
point $-1 -76.375621814630577 -1.7098710370227508 9.8031184859974072 #
point $-1 -65.030048793186069 -1.7098710370227508 9.8031184859974072 #
edge $-1 $397 1 $397 0 $233 $-1 forward 7 unknown #
vertex $-1 $234 $398 #
ellipse-curve $-1 -67.775472698407171 3.7030059199742453 1.6436258410974534 -0.6018150307709319 0 0.79863550430605224 1.5972710086121045 0 1.2036300615418638 1 I I #
point $-1 -69.105564295296205 3.7030059199742453 6.7319972121679417 #
edge $-1 $399 1 $399 0 $237 $-1 forward 7 unknown #
vertex $-1 $238 $400 #
ellipse-curve $-1 -67.775472698407171 11.82232135546974 1.6436258410974534 -0.6018150307709319 0 0.79863550430605224 1.5972710086121045 0 1.2036300615418638 1 I I #
point $-1 -69.105564295296205 11.82232135546974 6.7319972121679417 #
plane-surface $-1 76.375621814630577 0 0 -1 0 0 0 0 1 forward_v I I I I #
coedge $-1 $246 $244 $248 $346 reversed $161 $-1 #
edge $-1 $259 -9.8031184859974072 $348 9.8031184859974072 $258 $401 forward 7 unknown #
vertex $-1 $346 $402 #
straight-curve $-1 -76.375621814630577 -42.592922381282094 0 0 0 -1 I I #
edge $-1 $344 -42.592922381282094 $348 42.592922381282094 $342 $403 forward 7 unknown #
straight-curve $-1 0 -42.592922381282094 -9.8031184859974072 -1 0 0 I I #
vertex $-1 $251 $404 #
straight-curve $-1 0 42.592922381282094 -9.8031184859974072 1 0 0 I I #
point $-1 76.375621814630577 42.592922381282094 -9.8031184859974072 #
point $-1 76.375621814630577 -42.592922381282094 -9.8031184859974072 #
straight-curve $-1 -76.375621814630577 0 9.8031184859974072 0 -1 0 I I #
point $-1 -76.375621814630577 42.592922381282094 9.8031184859974072 #
point $-1 -76.375621814630577 -42.592922381282094 9.8031184859974072 #
straight-curve $-1 76.375621814630577 -42.592922381282094 0 0 0 -1 I I #
straight-curve $-1 76.375621814630577 42.592922381282094 0 0 0 -1 I I #
plane-surface $-1 0 -42.592922381282094 0 0 1 0 0 0 1 forward_v I I I I #
coedge $-1 $405 $271 $283 $369 reversed $180 $-1 #
coedge $-1 $271 $405 $286 $371 reversed $180 $-1 #
edge $-1 $406 -76.375621814630577 $280 -71.519447656452755 $276 $407 forward 7 unknown #
straight-curve $-1 -71.519447656452755 -18.927624534250562 9.8031184859974072 0 1 0 I I #
coedge $-1 $283 $274 $277 $365 forward $269 $-1 #
straight-curve $-1 -71.519447656452755 -18.927624534250562 -9.8031184859974072 0 -1 0 I I #
coedge $-1 $277 $276 $405 $408 forward $278 $-1 #
edge $-1 $279 71.519447656452755 $409 76.375621814630577 $277 $410 forward 7 unknown #
point $-1 -71.519447656452755 -42.592922381282094 -9.8031184859974072 #
point $-1 -71.519447656452755 -42.592922381282094 9.8031184859974072 #
straight-curve $-1 -76.375621814630577 -33.117575755720154 0 0 0 -1 I I #
edge $-1 $409 -42.592922381282094 $284 -33.117575755720154 $358 $411 forward 7 unknown #
point $-1 -76.375621814630577 -33.117575755720154 -9.8031184859974072 #
edge $-1 $287 33.117575755720154 $406 42.592922381282094 $359 $412 forward 7 unknown #
point $-1 -76.375621814630577 -33.117575755720154 9.8031184859974072 #
coedge $-1 $374 $293 $380 $413 reversed $196 $-1 #
coedge $-1 $293 $373 $296 $378 forward $196 $-1 #
edge $-1 $376 -26.014937127041257 $301 -7.1410333814404154 $300 $414 forward 7 unknown #
vertex $-1 $295 $415 #
straight-curve $-1 -14.834126667314587 42.592922381282094 61.553950660330344 -0.84804809178421925 0 0.52991927123019833 I I #
edge $-1 $382 -9.8031184859974072 $297 -4.5597731922200628 $296 $416 forward 7 unknown #
point $-1 76.375621814630577 42.592922381282094 4.5597731922200628 #
coedge $-1 $300 $299 $373 $413 forward $291 $-1 #
point $-1 67.984515447370299 23.719018635681252 9.8031184859974019 #
vertex $-1 $304 $417 #
straight-curve $-1 76.375621814630577 0 9.8031184859974072 0 1 0 I I #
vertex $-1 $307 $418 #
point $-1 72.730742215485989 29.111562562995772 4.288547994646045 #
vertex $-1 $311 $419 #
point $-1 72.730742215485989 37.200378453967559 4.288547994646045 #
edge $-1 $389 51.819972666245796 $392 60.36947533698843 $316 $420 forward 7 unknown #
vertex $-1 $330 $421 #
straight-curve $-1 -84.151808099836245 17.23519831246675 9.803118485997409 -1 0 0 I I #
edge $-1 $392 -13.35386649360575 $327 5.5912028558837505 $326 $422 forward 7 unknown #
vertex $-1 $391 $423 #
straight-curve $-1 -76.375621814630577 17.23519831246675 1.2536158152547756 0.79863550430605224 0 0.6018150307709319 I I #
point $-1 -65.030048793186069 17.23519831246675 9.8031184859974072 #
point $-1 -76.375621814630577 -1.7098710370227508 1.2536158152547756 #
straight-curve $-1 -76.375621814630577 0 9.8031184859974072 0 -1 0 I I #
vertex $-1 $333 $424 #
point $-1 -66.17820168979506 3.7030059199742453 2.8472559026393172 #
vertex $-1 $337 $425 #
point $-1 -66.17820168979506 11.82232135546974 2.8472559026393172 #
straight-curve $-1 -76.375621814630577 42.592922381282094 0 0 0 -1 I I #
point $-1 -76.375621814630577 -42.592922381282094 -9.8031184859974072 #
straight-curve $-1 -76.375621814630577 0 -9.8031184859974072 0 1 0 I I #
point $-1 -76.375621814630577 42.592922381282094 -9.8031184859974072 #
coedge $-1 $359 $358 $364 $408 reversed $180 $-1 #
vertex $-1 $371 $426 #
straight-curve $-1 0 -42.592922381282094 9.8031184859974072 1 0 0 I I #
edge $-1 $406 -9.8031184859974072 $409 9.8031184859974072 $405 $427 forward 7 unknown #
vertex $-1 $369 $428 #
straight-curve $-1 0 -42.592922381282094 -9.8031184859974072 -1 0 0 I I #
straight-curve $-1 -76.375621814630577 0 -9.8031184859974072 0 1 0 I I #
straight-curve $-1 -76.375621814630577 0 9.8031184859974072 0 -1 0 I I #
edge $-1 $382 -76.375621814630577 $376 -67.984515447370299 $373 $429 forward 7 unknown #
straight-curve $-1 67.984515447370313 16.577985254240836 9.803118485997409 0 -1 0 I I #
point $-1 67.984515447370299 42.592922381282094 9.8031184859974019 #
straight-curve $-1 76.375621814630577 42.592922381282094 0 0 0 -1 I I #
point $-1 76.375621814630577 42.592922381282094 9.8031184859974072 #
point $-1 69.974807489457149 29.111562562995772 3.6522903535380036 #
point $-1 69.974807489457149 37.200378453967559 3.6522903535380036 #
straight-curve $-1 -76.375621814630577 17.23519831246675 61.623091152243205 0 0 -1 I I #
point $-1 -76.375621814630577 17.23519831246675 9.8031184859974072 #
straight-curve $-1 -76.375621814630577 3.8813318188609998 1.2536158152547743 0 -1 0 I I #
point $-1 -76.375621814630577 17.23519831246675 1.2536158152547756 #
point $-1 -66.571842636865298 3.7030059199742453 0.046354832485348885 #
point $-1 -66.571842636865298 11.82232135546974 0.046354832485348885 #
point $-1 -76.375621814630577 -42.592922381282094 9.8031184859974072 #
straight-curve $-1 -76.375621814630577 -42.592922381282094 0 0 0 -1 I I #
point $-1 -76.375621814630577 -42.592922381282094 -9.8031184859974072 #
straight-curve $-1 0 42.592922381282094 9.8031184859974072 -1 0 0 I I #
End-of-ACIS-data 