500 0 8 0           
7 Unknown 11 ACIS 5.0 NT 24 Fri Mar 26 02:12:23 1999 
-1 9.9999999999999995e-007 1e-010 
body $-1 $8 $-1 $9 #
body $-1 $10 $-1 $11 #
body $-1 $12 $-1 $13 #
body $-1 $14 $-1 $15 #
body $-1 $16 $-1 $17 #
body $-1 $18 $-1 $19 #
body $-1 $20 $-1 $21 #
body $-1 $22 $-1 $23 #
lump $-1 $-1 $24 $0 #
transform $-1 1 0 0 0 1 0 0 0 1 40.444349497970521 21.436603762048808 7.4836755807620081 1 rotate no_reflect no_shear #
lump $-1 $-1 $25 $1 #
transform $-1 1 0 0 0 1 0 0 0 1 40.444349497970521 21.436603762048808 7.4836755807620081 1 rotate no_reflect no_shear #
lump $-1 $-1 $26 $2 #
transform $-1 1 0 0 0 1 0 0 0 1 40.444349497970521 21.436603762048808 7.4836755807620081 1 rotate no_reflect no_shear #
lump $-1 $-1 $27 $3 #
transform $-1 1 0 0 0 1 0 0 0 1 40.444349497970521 21.436603762048808 7.4836755807620081 1 rotate no_reflect no_shear #
lump $-1 $-1 $28 $4 #
transform $-1 1 0 0 0 1 0 0 0 1 40.444349497970521 21.436603762048808 7.4836755807620081 1 rotate no_reflect no_shear #
lump $-1 $-1 $29 $5 #
transform $-1 1 0 0 0 1 0 0 0 1 40.444349497970521 21.436603762048808 7.4836755807620081 1 rotate no_reflect no_shear #
lump $-1 $-1 $30 $6 #
transform $-1 1 0 0 0 1 0 0 0 1 40.444349497970521 21.436603762048808 7.4836755807620081 1 rotate no_reflect no_shear #
lump $-1 $-1 $31 $7 #
transform $-1 1 0 0 0 1 0 0 0 1 40.444349497970521 21.436603762048808 7.4836755807620081 1 rotate no_reflect no_shear #
shell $-1 $-1 $-1 $32 $-1 $8 #
shell $-1 $-1 $-1 $33 $-1 $10 #
shell $-1 $-1 $-1 $34 $-1 $12 #
shell $-1 $-1 $-1 $35 $-1 $14 #
shell $-1 $-1 $-1 $36 $-1 $16 #
shell $-1 $-1 $-1 $37 $-1 $18 #
shell $-1 $-1 $-1 $38 $-1 $20 #
shell $-1 $-1 $-1 $39 $-1 $22 #
face $-1 $40 $41 $24 $-1 $42 forward single #
face $-1 $43 $44 $25 $-1 $45 forward single #
face $-1 $46 $47 $26 $-1 $48 reversed single #
face $-1 $49 $50 $27 $-1 $51 forward single #
face $-1 $52 $53 $28 $-1 $54 forward single #
face $-1 $55 $56 $29 $-1 $57 reversed single #
face $-1 $58 $59 $30 $-1 $60 forward single #
face $-1 $61 $62 $31 $-1 $63 forward single #
face $-1 $64 $65 $24 $-1 $66 reversed single #
loop $-1 $-1 $67 $32 #
plane-surface $-1 0 0 7.4836755807620081 0 0 1 1 0 0 forward_v I I I I #
face $-1 $68 $69 $25 $-1 $70 reversed single #
loop $-1 $-1 $71 $33 #
plane-surface $-1 0 -21.436603762048808 0 0 1 0 0 0 1 forward_v I I I I #
face $-1 $72 $73 $26 $-1 $74 reversed single #
loop $-1 $-1 $75 $34 #
plane-surface $-1 -80.888699537793116 0.94088209947502222 71.014576465151649 0 1 0 -0.50000000669873634 0 0.8660253999169214 forward_v I I I I #
face $-1 $76 $77 $27 $-1 $78 forward single #
loop $-1 $79 $80 $35 #
cone-surface $-1 -34.547199710660806 2.8133377506860207 3.7902793746387102 0.50000000669873634 0 -0.8660253999169214 0.4330126999584607 0 0.25000000334936817 1 I I 0 1 0.5 forward I I I I #
face $-1 $81 $82 $28 $-1 $83 forward single #
loop $-1 $84 $85 $36 #
cone-surface $-1 -34.547199710660806 5.6220212275025183 3.7902793746387102 0.50000000669873634 0 -0.8660253999169214 0.4330126999584607 0 0.25000000334936817 1 I I 0 1 0.5 forward I I I I #
face $-1 $86 $87 $29 $-1 $88 reversed single #
loop $-1 $-1 $89 $37 #
plane-surface $-1 10.837031641073786 7.4944768787135168 111.45892650497423 0 -1 0 -0.50000000669873634 0 -0.8660253999169214 forward_v I I I I #
face $-1 $90 $91 $30 $-1 $92 forward single #
loop $-1 $93 $94 $38 #
cone-surface $-1 34.547199710660806 2.8133377506860207 3.7902793746386996 -0.50000000669873634 0 -0.8660253999169214 0.4330126999584607 0 -0.25000000334936817 1 I I 0 1 0.5 forward I I I I #
face $-1 $95 $96 $31 $-1 $97 forward single #
loop $-1 $98 $99 $39 #
cone-surface $-1 34.547199710660806 5.6220212275025183 3.7902793746386996 -0.50000000669873634 0 -0.8660253999169214 0.4330126999584607 0 -0.25000000334936817 1 I I 0 1 0.5 forward I I I I #
face $-1 $100 $101 $24 $-1 $102 reversed single #
loop $-1 $-1 $103 $40 #
plane-surface $-1 0 0 -7.4836755807620081 0 0 1 1 0 0 forward_v I I I I #
coedge $-1 $104 $105 $106 $107 forward $41 $-1 #
face $-1 $108 $109 $25 $-1 $110 forward single #
loop $-1 $-1 $111 $43 #
plane-surface $-1 -40.444349497970521 0 0 1 0 0 0 0 -1 forward_v I I I I #
coedge $-1 $112 $113 $114 $115 forward $44 $-1 #
face $-1 $116 $117 $26 $-1 $118 reversed single #
loop $-1 $-1 $119 $46 #
plane-surface $-1 -40.444349497970528 4.2176794890942695 0.96290856843232575 -0.50000000669873634 0 0.8660253999169214 0.8660253999169214 0 0.50000000669873634 forward_v I I I I #
coedge $-1 $120 $121 $122 $123 reversed $47 $-1 #
face $-1 $-1 $124 $27 $-1 $125 forward single #
loop $-1 $126 $127 $49 #
cone-surface $-1 -34.172199705636757 2.8133377506860207 3.1407603247010192 0.50000000669873634 0 -0.8660253999169214 0.21650634997923035 0 0.12500000167468409 1 I I -0.70710678118654746 0.70710678118654746 0.25 forward I I I I #
loop $-1 $-1 $128 $35 #
coedge $-1 $80 $80 $129 $130 reversed $50 $-1 #
face $-1 $-1 $131 $28 $-1 $132 forward single #
loop $-1 $133 $134 $52 #
cone-surface $-1 -34.172199705636757 5.6220212275025183 3.1407603247010192 0.50000000669873634 0 -0.8660253999169214 0.21650634997923035 0 0.12500000167468409 1 I I -0.70710678118654746 0.70710678118654746 0.25 forward I I I I #
loop $-1 $-1 $135 $36 #
coedge $-1 $85 $85 $136 $137 reversed $53 $-1 #
face $-1 $138 $139 $29 $-1 $140 reversed single #
loop $-1 $-1 $141 $55 #
plane-surface $-1 -29.607318398748802 4.2176794890942695 41.407258608254907 0.50000000669873634 0 0.8660253999169214 0.8660253999169214 0 -0.50000000669873634 forward_v I I I I #
coedge $-1 $142 $143 $144 $145 reversed $56 $-1 #
face $-1 $-1 $146 $30 $-1 $147 forward single #
loop $-1 $148 $149 $58 #
cone-surface $-1 34.172199705636757 2.8133377506860207 3.1407603247010085 -0.50000000669873634 0 -0.8660253999169214 0.21650634997923035 0 -0.12500000167468409 1 I I -0.70710678118654746 0.70710678118654746 0.25 forward I I I I #
loop $-1 $-1 $150 $38 #
coedge $-1 $94 $94 $151 $152 reversed $59 $-1 #
face $-1 $-1 $153 $31 $-1 $154 forward single #
loop $-1 $155 $156 $61 #
cone-surface $-1 34.172199705636757 5.6220212275025183 3.1407603247010085 -0.50000000669873634 0 -0.8660253999169214 0.21650634997923035 0 -0.12500000167468409 1 I I -0.70710678118654746 0.70710678118654746 0.25 forward I I I I #
loop $-1 $-1 $157 $39 #
coedge $-1 $99 $99 $158 $159 reversed $62 $-1 #
face $-1 $160 $161 $24 $-1 $162 reversed single #
loop $-1 $-1 $163 $64 #
plane-surface $-1 0 -21.436603762048808 0 0 1 0 0 0 1 forward_v I I I I #
coedge $-1 $164 $165 $166 $167 forward $65 $-1 #
coedge $-1 $168 $67 $169 $170 forward $41 $-1 #
coedge $-1 $67 $168 $171 $172 forward $41 $-1 #
coedge $-1 $173 $174 $67 $107 reversed $175 $-1 #
edge $-1 $176 -21.436603762048808 $177 21.436603762048808 $106 $178 forward 7 unknown #
face $-1 $179 $180 $25 $-1 $181 reversed single #
loop $-1 $-1 $182 $68 #
plane-surface $-1 0 -24.510072378266496 -3.9836755807620081 0 0 1 1 0 0 forward_v I I I I #
coedge $-1 $183 $184 $113 $185 forward $69 $-1 #
coedge $-1 $186 $71 $187 $188 reversed $44 $-1 #
coedge $-1 $71 $186 $111 $185 reversed $44 $-1 #
coedge $-1 $189 $182 $71 $115 reversed $109 $-1 #
edge $-1 $190 -40.444349497970521 $191 40.444349497970521 $114 $192 forward 7 unknown #
face $-1 $193 $194 $26 $-1 $195 forward single #
loop $-1 $-1 $196 $72 #
plane-surface $-1 -80.888699537793116 7.4944768787135168 71.014576465151649 0 -1 0 0.50000000669873634 0 -0.8660253999169214 forward_v I I I I #
coedge $-1 $197 $198 $199 $200 reversed $73 $-1 #
coedge $-1 $121 $75 $201 $202 reversed $47 $-1 #
coedge $-1 $75 $120 $197 $203 reversed $47 $-1 #
coedge $-1 $199 $204 $75 $123 forward $194 $-1 #
edge $-1 $205 2.7092603716027952e-007 $206 11.294299838846726 $122 $207 forward 7 unknown #
loop $-1 $-1 $129 $76 #
plane-surface $-1 -40.444349497970528 4.2176794890942695 0.96290856843232575 -0.50000000669873634 0 0.8660253999169214 0.8660253999169214 0 0.50000000669873634 forward_v I I I I #
loop $-1 $-1 $208 $49 #
coedge $-1 $127 $127 $128 $209 reversed $77 $-1 #
coedge $-1 $128 $128 $127 $209 forward $79 $-1 #
coedge $-1 $129 $129 $80 $130 forward $124 $-1 #
edge $-1 $210 0 $210 6.2831853071796004 $129 $211 forward 7 unknown #
loop $-1 $-1 $136 $81 #
plane-surface $-1 -40.444349497970528 4.2176794890942695 0.96290856843232575 -0.50000000669873634 0 0.8660253999169214 0.8660253999169214 0 0.50000000669873634 forward_v I I I I #
loop $-1 $-1 $212 $52 #
coedge $-1 $134 $134 $135 $213 reversed $82 $-1 #
coedge $-1 $135 $135 $134 $213 forward $84 $-1 #
coedge $-1 $136 $136 $85 $137 forward $131 $-1 #
edge $-1 $214 0 $214 6.2831853071796004 $136 $215 forward 7 unknown #
face $-1 $216 $217 $29 $-1 $218 reversed single #
loop $-1 $-1 $219 $86 #
plane-surface $-1 10.837031641073786 0.94088209947502222 111.45892650497423 0 1 0 0.50000000669873634 0 0.8660253999169214 forward_v I I I I #
coedge $-1 $220 $221 $222 $223 reversed $87 $-1 #
coedge $-1 $143 $89 $224 $225 reversed $56 $-1 #
coedge $-1 $89 $142 $220 $226 reversed $56 $-1 #
coedge $-1 $222 $227 $89 $145 forward $228 $-1 #
edge $-1 $229 -35.025833677433624 $230 -23.731534109512918 $144 $231 forward 7 unknown #
loop $-1 $-1 $151 $90 #
plane-surface $-1 -29.607318398748802 4.2176794890942695 41.407258608254907 0.50000000669873634 0 0.8660253999169214 0.8660253999169214 0 -0.50000000669873634 forward_v I I I I #
loop $-1 $-1 $232 $58 #
coedge $-1 $149 $149 $150 $233 reversed $91 $-1 #
coedge $-1 $150 $150 $149 $233 forward $93 $-1 #
coedge $-1 $151 $151 $94 $152 forward $146 $-1 #
edge $-1 $234 0 $234 6.2831853071796004 $151 $235 forward 7 unknown #
loop $-1 $-1 $158 $95 #
plane-surface $-1 -29.607318398748802 4.2176794890942695 41.407258608254907 0.50000000669873634 0 0.8660253999169214 0.8660253999169214 0 -0.50000000669873634 forward_v I I I I #
loop $-1 $-1 $236 $61 #
coedge $-1 $156 $156 $157 $237 reversed $96 $-1 #
coedge $-1 $157 $157 $156 $237 forward $98 $-1 #
coedge $-1 $158 $158 $99 $159 forward $153 $-1 #
edge $-1 $238 0 $238 6.2831853071796004 $158 $239 forward 7 unknown #
face $-1 $240 $241 $24 $-1 $242 reversed single #
loop $-1 $-1 $243 $100 #
plane-surface $-1 -40.444349497970521 0 0 1 0 0 0 0 -1 forward_v I I I I #
coedge $-1 $244 $171 $245 $246 forward $101 $-1 #
coedge $-1 $247 $103 $244 $248 forward $65 $-1 #
coedge $-1 $103 $247 $249 $250 forward $65 $-1 #
coedge $-1 $174 $173 $103 $167 reversed $175 $-1 #
edge $-1 $251 -21.436603762048808 $252 21.436603762048808 $166 $253 forward 7 unknown #
coedge $-1 $105 $104 $254 $255 forward $41 $-1 #
coedge $-1 $256 $257 $104 $170 reversed $241 $-1 #
edge $-1 $177 -40.444349497970521 $258 40.444349497970521 $169 $259 forward 7 unknown #
coedge $-1 $163 $260 $105 $172 reversed $101 $-1 #
edge $-1 $261 -40.444349497970521 $176 40.444349497970521 $171 $262 forward 7 unknown #
coedge $-1 $166 $106 $260 $263 forward $175 $-1 #
coedge $-1 $106 $166 $256 $264 reversed $175 $-1 #
loop $-1 $-1 $173 $240 #
vertex $-1 $107 $265 #
vertex $-1 $107 $266 #
straight-curve $-1 40.444349497970521 0 7.4836755807620081 0 1 0 I I #
face $-1 $267 $268 $25 $-1 $269 reversed single #
loop $-1 $-1 $270 $108 #
plane-surface $-1 0 -24.510072378266496 -6.9836755807620081 0 0 1 1 0 0 forward_v I I I I #
coedge $-1 $114 $271 $272 $273 forward $109 $-1 #
coedge $-1 $274 $111 $275 $276 reversed $69 $-1 #
coedge $-1 $111 $274 $189 $277 reversed $69 $-1 #
edge $-1 $190 3.9836755807620081 $278 6.9836755807620081 $111 $279 forward 7 unknown #
coedge $-1 $113 $112 $280 $281 forward $44 $-1 #
coedge $-1 $272 $282 $112 $188 forward $283 $-1 #
edge $-1 $284 -6.9836755807620081 $191 -3.9836755807620081 $187 $285 forward 7 unknown #
coedge $-1 $271 $114 $184 $277 forward $109 $-1 #
vertex $-1 $185 $286 #
vertex $-1 $273 $287 #
straight-curve $-1 0 -21.436603762048808 -3.9836755807620081 1 0 0 I I #
face $-1 $-1 $288 $26 $-1 $289 reversed single #
loop $-1 $-1 $122 $116 #
plane-surface $-1 0 0 7.4836755807620081 0 0 1 1 0 0 forward_v I I I I #
coedge $-1 $290 $291 $292 $293 reversed $117 $-1 #
coedge $-1 $294 $119 $121 $203 forward $73 $-1 #
coedge $-1 $119 $294 $290 $295 forward $73 $-1 #
coedge $-1 $292 $122 $119 $200 forward $194 $-1 #
edge $-1 $206 -1.1679576450721125 $296 5.385637134166382 $199 $297 forward 7 unknown #
coedge $-1 $298 $299 $120 $202 forward $288 $-1 #
edge $-1 $300 -34.544379664143491 $205 -28.023612651813817 $201 $301 forward 7 unknown #
edge $-1 $206 -13.041533849935773 $300 -8.2073931920208199e-015 $121 $302 forward 7 unknown #
coedge $-1 $122 $292 $298 $303 forward $194 $-1 #
vertex $-1 $202 $304 #
vertex $-1 $123 $305 #
straight-curve $-1 -40.444349768896558 0.94088209947502222 7.4836755807620072 1 0 0 I I #
coedge $-1 $208 $208 $-1 $306 reversed $126 $-1 #
edge $-1 $307 0 $307 6.2831853071796004 $127 $308 forward 7 unknown #
vertex $-1 $130 $309 #
ellipse-curve $-1 -34.797199714010176 2.8133377506860207 4.2232920745971709 -0.50000000669873634 0 0.8660253999169214 0.4330126999584607 0 0.25000000334936817 1 I I #
coedge $-1 $212 $212 $-1 $310 reversed $133 $-1 #
edge $-1 $311 0 $311 6.2831853071796004 $134 $312 forward 7 unknown #
vertex $-1 $137 $313 #
ellipse-curve $-1 -34.797199714010176 5.6220212275025183 4.2232920745971709 -0.50000000669873634 0 0.8660253999169214 0.4330126999584607 0 0.25000000334936817 1 I I #
face $-1 $-1 $228 $29 $-1 $314 forward single #
loop $-1 $-1 $315 $138 #
plane-surface $-1 40.444349497970521 0 0 -1 0 0 0 0 1 forward_v I I I I #
coedge $-1 $316 $317 $318 $319 reversed $139 $-1 #
coedge $-1 $320 $141 $143 $226 forward $87 $-1 #
coedge $-1 $141 $320 $316 $321 forward $87 $-1 #
coedge $-1 $318 $144 $141 $223 forward $228 $-1 #
edge $-1 $230 -5.385637134166382 $322 1.1679576450721125 $222 $323 forward 7 unknown #
coedge $-1 $324 $325 $142 $225 forward $217 $-1 #
edge $-1 $326 -54.766554684054796 $229 -48.245787671725104 $224 $327 forward 7 unknown #
edge $-1 $230 67.847165146005267 $326 80.888698995941041 $143 $328 forward 7 unknown #
coedge $-1 $144 $318 $324 $329 forward $228 $-1 #
loop $-1 $-1 $318 $216 #
vertex $-1 $225 $330 #
vertex $-1 $145 $331 #
straight-curve $-1 5.4185158205368928 7.4944768787135168 7.4836755807620108 -1 0 0 I I #
coedge $-1 $232 $232 $-1 $332 reversed $148 $-1 #
edge $-1 $333 0 $333 6.2831853071796004 $149 $334 forward 7 unknown #
vertex $-1 $152 $335 #
ellipse-curve $-1 34.797199714010169 2.8133377506860207 4.2232920745971541 0.50000000669873634 0 0.8660253999169214 0.4330126999584607 0 -0.25000000334936817 1 I I #
coedge $-1 $236 $236 $-1 $336 reversed $155 $-1 #
edge $-1 $337 0 $337 6.2831853071796004 $156 $338 forward 7 unknown #
vertex $-1 $159 $339 #
ellipse-curve $-1 34.797199714010169 5.6220212275025183 4.2232920745971541 0.50000000669873634 0 0.8660253999169214 0.4330126999584607 0 -0.25000000334936817 1 I I #
face $-1 $-1 $175 $24 $-1 $340 reversed single #
loop $-1 $-1 $256 $160 #
plane-surface $-1 0 21.436603762048808 0 0 -1 0 0 0 -1 forward_v I I I I #
coedge $-1 $341 $254 $257 $342 forward $161 $-1 #
coedge $-1 $260 $163 $164 $248 reversed $101 $-1 #
coedge $-1 $254 $341 $163 $246 reversed $161 $-1 #
edge $-1 $261 -7.4836755807620081 $343 7.4836755807620081 $245 $344 forward 7 unknown #
coedge $-1 $165 $164 $341 $345 forward $65 $-1 #
edge $-1 $252 -40.444349497970521 $343 40.444349497970521 $244 $346 forward 7 unknown #
coedge $-1 $257 $256 $165 $250 reversed $241 $-1 #
edge $-1 $347 -40.444349497970521 $251 40.444349497970521 $249 $348 forward 7 unknown #
vertex $-1 $167 $349 #
vertex $-1 $263 $350 #
straight-curve $-1 40.444349497970521 0 -7.4836755807620081 0 -1 0 I I #
coedge $-1 $243 $245 $168 $255 reversed $161 $-1 #
edge $-1 $258 -21.436603762048808 $261 21.436603762048808 $254 $351 forward 7 unknown #
coedge $-1 $249 $169 $174 $264 forward $241 $-1 #
coedge $-1 $169 $249 $243 $342 reversed $241 $-1 #
vertex $-1 $170 $352 #
straight-curve $-1 0 21.436603762048808 7.4836755807620081 -1 0 0 I I #
coedge $-1 $171 $244 $173 $263 reversed $101 $-1 #
vertex $-1 $255 $353 #
straight-curve $-1 0 -21.436603762048808 7.4836755807620081 1 0 0 I I #
edge $-1 $176 -7.4836755807620081 $252 7.4836755807620081 $173 $354 forward 7 unknown #
edge $-1 $177 -7.4836755807620081 $251 7.4836755807620081 $174 $355 forward 7 unknown #
point $-1 40.444349497970521 -21.436603762048808 7.4836755807620081 #
point $-1 40.444349497970521 21.436603762048808 7.4836755807620081 #
face $-1 $-1 $283 $25 $-1 $356 reversed single #
loop $-1 $-1 $357 $179 #
plane-surface $-1 0 -27.583540994484185 -5.4836755807620081 0 1 0 0 0 1 forward_v I I I I #
coedge $-1 $358 $280 $282 $359 forward $180 $-1 #
coedge $-1 $182 $189 $360 $361 forward $109 $-1 #
coedge $-1 $362 $187 $182 $273 reversed $283 $-1 #
edge $-1 $363 -3.0734686162176885 $191 3.0734686162176885 $272 $364 forward 7 unknown #
coedge $-1 $184 $183 $357 $365 reversed $69 $-1 #
coedge $-1 $280 $358 $183 $276 forward $180 $-1 #
edge $-1 $366 -3.0734686162176885 $278 3.0734686162176885 $183 $367 forward 7 unknown #
edge $-1 $190 -3.0734686162176885 $368 3.0734686162176885 $184 $369 forward 7 unknown #
vertex $-1 $185 $370 #
straight-curve $-1 -40.444349497970521 -21.436603762048808 0 0 0 -1 I I #
coedge $-1 $270 $275 $186 $281 reversed $180 $-1 #
edge $-1 $284 -40.444349497970521 $278 40.444349497970521 $280 $371 forward 7 unknown #
coedge $-1 $187 $362 $270 $359 reversed $283 $-1 #
loop $-1 $-1 $187 $267 #
vertex $-1 $188 $372 #
straight-curve $-1 40.444349497970521 -21.436603762048808 0 0 0 1 I I #
point $-1 -40.444349497970521 -21.436603762048808 -3.9836755807620081 #
point $-1 40.444349497970521 -21.436603762048808 -3.9836755807620081 #
loop $-1 $-1 $201 $193 #
plane-surface $-1 -40.444349497970521 0 0 1 0 0 0 0 -1 forward_v I I I I #
coedge $-1 $291 $196 $198 $295 reversed $117 $-1 #
coedge $-1 $196 $290 $373 $374 reversed $117 $-1 #
coedge $-1 $204 $199 $196 $293 forward $194 $-1 #
edge $-1 $296 -11.294299838846726 $375 -2.7092603716027952e-007 $292 $376 forward 7 unknown #
coedge $-1 $198 $197 $299 $377 reversed $73 $-1 #
edge $-1 $378 8.2073931920208199e-015 $296 13.041533849935773 $290 $379 forward 7 unknown #
vertex $-1 $200 $380 #
straight-curve $-1 -29.150049930049832 2.1088397445471347 7.483675580762009 0 1 0 I I #
coedge $-1 $373 $201 $204 $303 reversed $288 $-1 #
coedge $-1 $201 $373 $294 $377 forward $288 $-1 #
vertex $-1 $202 $381 #
straight-curve $-1 -40.444349497970521 0.94088209947502222 35.507288232575824 0 0 1 I I #
straight-curve $-1 -40.444349497970528 0.94088209947502222 0.96290856843232575 -0.8660253999169214 0 -0.50000000669873634 I I #
edge $-1 $375 -7.4944768787135168 $205 -0.94088209947502222 $298 $382 forward 7 unknown #
point $-1 -40.444349497970521 0.94088209947502222 7.4836755807620081 #
point $-1 -29.150049930049832 0.94088209947502222 7.4836755807620081 #
edge $-1 $383 1 $383 0 $208 $-1 forward 7 unknown #
vertex $-1 $209 $384 #
ellipse-curve $-1 -34.297199707311442 2.8133377506860207 3.3572666746802495 -0.50000000669873634 0 0.8660253999169214 0.4330126999584607 0 0.25000000334936817 1 I I #
point $-1 -34.364187014051716 2.8133377506860207 4.4732920779465388 #
edge $-1 $385 1 $385 0 $212 $-1 forward 7 unknown #
vertex $-1 $213 $386 #
ellipse-curve $-1 -34.297199707311442 5.6220212275025183 3.3572666746802495 -0.50000000669873634 0 0.8660253999169214 0.4330126999584607 0 0.25000000334936817 1 I I #
point $-1 -34.364187014051716 5.6220212275025183 4.4732920779465388 #
plane-surface $-1 0 0 7.4836755807620081 0 0 1 1 0 0 forward_v I I I I #
coedge $-1 $325 $324 $317 $387 forward $217 $-1 #
coedge $-1 $317 $219 $221 $321 reversed $139 $-1 #
coedge $-1 $219 $316 $315 $387 reversed $139 $-1 #
coedge $-1 $227 $222 $219 $319 forward $228 $-1 #
edge $-1 $322 23.731534109512918 $388 35.025833677433624 $318 $389 forward 7 unknown #
coedge $-1 $221 $220 $325 $390 reversed $87 $-1 #
edge $-1 $391 -80.888698995941041 $322 -67.847165146005267 $316 $392 forward 7 unknown #
vertex $-1 $223 $393 #
straight-curve $-1 29.150049930049803 2.1088397445471347 7.4836755807620108 0 -1 0 I I #
coedge $-1 $315 $224 $227 $329 reversed $217 $-1 #
coedge $-1 $224 $315 $320 $390 forward $217 $-1 #
vertex $-1 $225 $394 #
straight-curve $-1 40.444349497970521 7.4944768787135168 55.729463252487115 0 0 1 I I #
straight-curve $-1 -29.607318398748802 7.4944768787135168 41.407258608254907 0.8660253999169214 0 -0.50000000669873634 I I #
edge $-1 $388 0.94088209947502222 $229 7.4944768787135168 $324 $395 forward 7 unknown #
point $-1 40.444349497970521 7.4944768787135168 7.4836755807620081 #
point $-1 29.150049930049811 7.4944768787135168 7.4836755807620108 #
edge $-1 $396 1 $396 0 $232 $-1 forward 7 unknown #
vertex $-1 $233 $397 #
ellipse-curve $-1 34.297199707311442 2.8133377506860207 3.3572666746802389 0.50000000669873634 0 0.8660253999169214 0.4330126999584607 0 -0.25000000334936817 1 I I #
point $-1 35.230212413968637 2.8133377506860207 3.9732920712477924 #
edge $-1 $398 1 $398 0 $236 $-1 forward 7 unknown #
vertex $-1 $237 $399 #
ellipse-curve $-1 34.297199707311442 5.6220212275025183 3.3572666746802389 0.50000000669873634 0 0.8660253999169214 0.4330126999584607 0 -0.25000000334936817 1 I I #
point $-1 35.230212413968637 5.6220212275025183 3.9732920712477924 #
plane-surface $-1 40.444349497970521 0 0 -1 0 0 0 0 1 forward_v I I I I #
coedge $-1 $245 $243 $247 $345 reversed $161 $-1 #
edge $-1 $258 -7.4836755807620081 $347 7.4836755807620081 $257 $400 forward 7 unknown #
vertex $-1 $345 $401 #
straight-curve $-1 -40.444349497970521 -21.436603762048808 0 0 0 -1 I I #
edge $-1 $343 -21.436603762048808 $347 21.436603762048808 $341 $402 forward 7 unknown #
straight-curve $-1 0 -21.436603762048808 -7.4836755807620081 -1 0 0 I I #
vertex $-1 $250 $403 #
straight-curve $-1 0 21.436603762048808 -7.4836755807620081 1 0 0 I I #
point $-1 40.444349497970521 21.436603762048808 -7.4836755807620081 #
point $-1 40.444349497970521 -21.436603762048808 -7.4836755807620081 #
straight-curve $-1 -40.444349497970521 0 7.4836755807620081 0 -1 0 I I #
point $-1 -40.444349497970521 21.436603762048808 7.4836755807620081 #
point $-1 -40.444349497970521 -21.436603762048808 7.4836755807620081 #
straight-curve $-1 40.444349497970521 -21.436603762048808 0 0 0 -1 I I #
straight-curve $-1 40.444349497970521 21.436603762048808 0 0 0 -1 I I #
plane-surface $-1 40.444349497970521 0 0 -1 0 0 0 0 1 forward_v I I I I #
coedge $-1 $404 $360 $274 $365 forward $268 $-1 #
coedge $-1 $275 $270 $404 $405 forward $180 $-1 #
edge $-1 $284 -3.0734686162176885 $406 3.0734686162176885 $282 $407 forward 7 unknown #
coedge $-1 $357 $408 $271 $361 reversed $268 $-1 #
edge $-1 $368 -40.444349497970521 $363 40.444349497970521 $360 $409 forward 7 unknown #
coedge $-1 $282 $272 $408 $410 forward $283 $-1 #
vertex $-1 $273 $411 #
straight-curve $-1 40.444349497970521 -24.510072378266496 -3.9836755807620081 0 1 0 I I #
edge $-1 $368 -1.5 $366 1.5 $274 $412 forward 7 unknown #
vertex $-1 $276 $413 #
straight-curve $-1 -40.444349497970521 -24.510072378266496 -6.9836755807620081 0 1 0 I I #
vertex $-1 $277 $414 #
straight-curve $-1 -40.444349497970521 -24.510072378266496 -3.9836755807620081 0 -1 0 I I #
point $-1 -40.444349497970521 -21.436603762048808 -6.9836755807620081 #
straight-curve $-1 0 -21.436603762048808 -6.9836755807620081 -1 0 0 I I #
point $-1 40.444349497970521 -21.436603762048808 -6.9836755807620081 #
coedge $-1 $299 $298 $291 $374 forward $288 $-1 #
edge $-1 $375 28.023612651813817 $378 34.544379664143491 $373 $415 forward 7 unknown #
vertex $-1 $303 $416 #
straight-curve $-1 -40.444349768896558 7.4944768787135168 7.4836755807620072 -1 0 0 I I #
edge $-1 $378 -5.385637134166382 $300 1.1679576450721125 $299 $417 forward 7 unknown #
vertex $-1 $377 $418 #
straight-curve $-1 -40.444349497970528 7.4944768787135168 0.96290856843232575 0.8660253999169214 0 0.50000000669873634 I I #
point $-1 -29.150049930049832 7.4944768787135168 7.4836755807620081 #
point $-1 -40.444349497970521 0.94088209947502222 0.96290856843232986 #
straight-curve $-1 -40.444349497970521 0 7.4836755807620081 0 -1 0 I I #
vertex $-1 $306 $419 #
point $-1 -33.864187007352982 2.8133377506860207 3.6072666780296179 #
vertex $-1 $310 $420 #
point $-1 -33.864187007352982 5.6220212275025183 3.6072666780296179 #
edge $-1 $388 48.245787671725104 $391 54.766554684054796 $315 $421 forward 7 unknown #
vertex $-1 $329 $422 #
straight-curve $-1 5.4185158205368928 0.94088209947502222 7.4836755807620108 1 0 0 I I #
edge $-1 $391 -1.1679576450721125 $326 5.385637134166382 $325 $423 forward 7 unknown #
vertex $-1 $390 $424 #
straight-curve $-1 -29.607318398748802 0.94088209947502222 41.407258608254907 -0.8660253999169214 0 0.50000000669873634 I I #
point $-1 29.150049930049811 0.94088209947502222 7.4836755807620108 #
point $-1 40.444349497970521 7.4944768787135168 0.96290856843231865 #
straight-curve $-1 40.444349497970521 0 7.4836755807620081 0 1 0 I I #
vertex $-1 $332 $425 #
point $-1 34.730212407269903 2.8133377506860207 3.1072666713308705 #
vertex $-1 $336 $426 #
point $-1 34.730212407269903 5.6220212275025183 3.1072666713308705 #
straight-curve $-1 -40.444349497970521 21.436603762048808 0 0 0 -1 I I #
point $-1 -40.444349497970521 -21.436603762048808 -7.4836755807620081 #
straight-curve $-1 -40.444349497970521 0 -7.4836755807620081 0 1 0 I I #
point $-1 -40.444349497970521 21.436603762048808 -7.4836755807620081 #
coedge $-1 $408 $357 $358 $405 reversed $268 $-1 #
edge $-1 $406 -40.444349497970521 $366 40.444349497970521 $404 $427 forward 7 unknown #
vertex $-1 $410 $428 #
straight-curve $-1 40.444349497970521 -24.510072378266496 -6.9836755807620081 0 -1 0 I I #
coedge $-1 $360 $404 $362 $410 reversed $268 $-1 #
straight-curve $-1 0 -27.583540994484185 -3.9836755807620081 1 0 0 I I #
edge $-1 $363 -1.5 $406 1.5 $362 $429 forward 7 unknown #
point $-1 40.444349497970521 -27.583540994484185 -3.9836755807620081 #
straight-curve $-1 -40.444349497970521 -27.583540994484185 -5.4836755807620081 0 0 -1 I I #
point $-1 -40.444349497970521 -27.583540994484185 -6.9836755807620081 #
point $-1 -40.444349497970521 -27.583540994484185 -3.9836755807620081 #
straight-curve $-1 -40.444349497970521 7.4944768787135168 35.507288232575824 0 0 -1 I I #
point $-1 -40.444349497970521 7.4944768787135168 7.4836755807620081 #
straight-curve $-1 -40.444349497970521 2.1088397445471347 0.96290856843232853 0 -1 0 I I #
point $-1 -40.444349497970521 7.4944768787135168 0.96290856843232986 #
point $-1 -34.047199703962072 2.8133377506860207 2.9242539747217888 #
point $-1 -34.047199703962072 5.6220212275025183 2.9242539747217888 #
straight-curve $-1 40.444349497970521 0.94088209947502222 55.729463252487115 0 0 -1 I I #
point $-1 40.444349497970521 0.94088209947502222 7.4836755807620081 #
straight-curve $-1 40.444349497970521 2.1088397445471347 0.96290856843231154 0 1 0 I I #
point $-1 40.444349497970521 0.94088209947502222 0.96290856843231865 #
point $-1 34.047199703962072 2.8133377506860207 2.9242539747217782 #
point $-1 34.047199703962072 5.6220212275025183 2.9242539747217782 #
straight-curve $-1 0 -27.583540994484185 -6.9836755807620081 -1 0 0 I I #
point $-1 40.444349497970521 -27.583540994484185 -6.9836755807620081 #
straight-curve $-1 40.444349497970521 -27.583540994484185 -5.4836755807620081 0 0 -1 I I #
End-of-ACIS-data 