500 0 9 0           
7 Unknown 11 ACIS 5.0 NT 24 Thu Mar 25 23:36:22 1999 
-1 9.9999999999999995e-007 1e-010 
body $-1 $9 $-1 $10 #
body $-1 $11 $-1 $12 #
body $-1 $13 $-1 $14 #
body $-1 $15 $-1 $16 #
body $-1 $17 $-1 $18 #
body $-1 $19 $-1 $20 #
body $-1 $21 $-1 $22 #
body $-1 $23 $-1 $24 #
body $-1 $25 $-1 $26 #
lump $-1 $-1 $27 $0 #
transform $-1 1 0 0 0 1 0 0 0 1 73.226111636707657 34.429926802639855 16.769550456233741 1 rotate no_reflect no_shear #
lump $-1 $-1 $28 $1 #
transform $-1 1 0 0 0 1 0 0 0 1 73.226111636707657 34.429926802639855 16.769550456233741 1 rotate no_reflect no_shear #
lump $-1 $-1 $29 $2 #
transform $-1 1 0 0 0 1 0 0 0 1 73.226111636707657 34.429926802639855 16.769550456233741 1 rotate no_reflect no_shear #
lump $-1 $-1 $30 $3 #
transform $-1 1 0 0 0 1 0 0 0 1 73.226111636707657 34.429926802639855 16.769550456233741 1 rotate no_reflect no_shear #
lump $-1 $-1 $31 $4 #
transform $-1 1 0 0 0 1 0 0 0 1 73.226111636707657 34.429926802639855 16.769550456233741 1 rotate no_reflect no_shear #
lump $-1 $-1 $32 $5 #
transform $-1 1 0 0 0 1 0 0 0 1 73.226111636707657 34.429926802639855 16.769550456233741 1 rotate no_reflect no_shear #
lump $-1 $-1 $33 $6 #
transform $-1 1 0 0 0 1 0 0 0 1 73.226111636707657 34.429926802639855 16.769550456233741 1 rotate no_reflect no_shear #
lump $-1 $-1 $34 $7 #
transform $-1 1 0 0 0 1 0 0 0 1 73.226111636707657 34.429926802639855 16.769550456233741 1 rotate no_reflect no_shear #
lump $-1 $-1 $35 $8 #
transform $-1 1 0 0 0 1 0 0 0 1 73.226111636707657 34.429926802639855 16.769550456233741 1 rotate no_reflect no_shear #
shell $-1 $-1 $-1 $36 $-1 $9 #
shell $-1 $-1 $-1 $37 $-1 $11 #
shell $-1 $-1 $-1 $38 $-1 $13 #
shell $-1 $-1 $-1 $39 $-1 $15 #
shell $-1 $-1 $-1 $40 $-1 $17 #
shell $-1 $-1 $-1 $41 $-1 $19 #
shell $-1 $-1 $-1 $42 $-1 $21 #
shell $-1 $-1 $-1 $43 $-1 $23 #
shell $-1 $-1 $-1 $44 $-1 $25 #
face $-1 $45 $46 $27 $-1 $47 forward single #
face $-1 $48 $49 $28 $-1 $50 forward single #
face $-1 $51 $52 $29 $-1 $53 reversed single #
face $-1 $54 $55 $30 $-1 $56 forward single #
face $-1 $57 $58 $31 $-1 $59 forward single #
face $-1 $60 $61 $32 $-1 $62 forward single #
face $-1 $63 $64 $33 $-1 $65 reversed single #
face $-1 $66 $67 $34 $-1 $68 forward single #
face $-1 $69 $70 $35 $-1 $71 forward single #
face $-1 $72 $73 $27 $-1 $74 reversed single #
loop $-1 $-1 $75 $36 #
plane-surface $-1 0 0 16.769550456233741 0 0 1 1 0 0 forward_v I I I I #
face $-1 $76 $77 $28 $-1 $78 reversed single #
loop $-1 $-1 $79 $37 #
plane-surface $-1 0 -23.950935803704386 -10.486932119958215 0 0 1 1 0 0 forward_v I I I I #
face $-1 $80 $81 $29 $-1 $82 reversed single #
loop $-1 $-1 $83 $38 #
plane-surface $-1 -157.22765704016473 5.8189412958142626 129.67890424633171 0 1 0 -0.57357644374324357 0 0.81915203911291934 forward_v I I I I #
face $-1 $84 $85 $30 $-1 $86 forward single #
loop $-1 $87 $88 $39 #
cone-surface $-1 -67.805826179534478 7.194133747503713 12.696980184116141 0.57357644374324357 0 -0.81915203911291934 0.40957601955645967 0 0.28678822187162178 1 I I 0 1 0.5 forward I I I I #
face $-1 $89 $90 $31 $-1 $91 forward single #
loop $-1 $92 $93 $40 #
cone-surface $-1 -67.805826179534478 9.2569224250378923 12.696980184116141 0.57357644374324357 0 -0.81915203911291934 0.40957601955645967 0 0.28678822187162178 1 I I 0 1 0.5 forward I I I I #
face $-1 $94 $95 $32 $-1 $96 forward single #
loop $-1 $97 $98 $41 #
cone-surface $-1 -67.805826179534478 11.319711102572072 12.696980184116141 0.57357644374324357 0 -0.81915203911291934 0.40957601955645967 0 0.28678822187162178 1 I I 0 1 0.5 forward I I I I #
face $-1 $99 $100 $33 $-1 $101 reversed single #
loop $-1 $-1 $102 $42 #
plane-surface $-1 40.826233048857375 3.102469460406347 211.84143091714256 0 -1 0 -0.5877852598018023 0 -0.80901698891910034 forward_v I I I I #
face $-1 $103 $104 $34 $-1 $105 forward single #
loop $-1 $106 $107 $43 #
cone-surface $-1 65.132471950243698 -6.3442073128974776 9.8749713400710046 -0.5877852598018023 0 -0.80901698891910034 1.2135254833786506 0 -0.88167788970270344 1 I I 0 1 1.5 forward I I I I #
face $-1 $108 $109 $35 $-1 $110 forward single #
loop $-1 $111 $112 $44 #
cone-surface $-1 65.132471950243698 -0.67620124891518429 9.8749713400710046 -0.5877852598018023 0 -0.80901698891910034 1.2135254833786506 0 -0.88167788970270344 1 I I 0 1 1.5 forward I I I I #
face $-1 $113 $114 $27 $-1 $115 reversed single #
loop $-1 $-1 $116 $45 #
plane-surface $-1 0 0 -16.769550456233741 0 0 1 1 0 0 forward_v I I I I #
coedge $-1 $117 $118 $119 $120 forward $46 $-1 #
face $-1 $121 $122 $28 $-1 $123 reversed single #
loop $-1 $-1 $124 $48 #
plane-surface $-1 0 -23.950935803704386 -14.21485226624252 0 0 1 1 0 0 forward_v I I I I #
coedge $-1 $125 $126 $127 $128 reversed $49 $-1 #
face $-1 $129 $130 $29 $-1 $131 reversed single #
loop $-1 $-1 $132 $51 #
plane-surface $-1 -73.226111636707685 9.2569224250378923 9.7122669192930147 -0.57357644374324357 0 0.81915203911291934 0.81915203911291934 0 0.57357644374324357 forward_v I I I I #
coedge $-1 $133 $134 $135 $136 reversed $52 $-1 #
face $-1 $-1 $137 $30 $-1 $138 forward single #
loop $-1 $139 $140 $54 #
cone-surface $-1 -67.281569222782608 7.194133747503713 11.948263670690668 0.57357644374324357 0 -0.81915203911291934 0.20478800977822983 0 0.14339411093581089 1 I I -0.70710678118654746 0.70710678118654746 0.25 forward I I I I #
loop $-1 $-1 $141 $39 #
coedge $-1 $88 $88 $142 $143 reversed $55 $-1 #
face $-1 $-1 $144 $31 $-1 $145 forward single #
loop $-1 $146 $147 $57 #
cone-surface $-1 -67.281569222782608 9.2569224250378923 11.948263670690668 0.57357644374324357 0 -0.81915203911291934 0.20478800977822983 0 0.14339411093581089 1 I I -0.70710678118654746 0.70710678118654746 0.25 forward I I I I #
loop $-1 $-1 $148 $40 #
coedge $-1 $93 $93 $149 $150 reversed $58 $-1 #
face $-1 $-1 $151 $32 $-1 $152 forward single #
loop $-1 $153 $154 $60 #
cone-surface $-1 -67.281569222782608 11.319711102572072 11.948263670690668 0.57357644374324357 0 -0.81915203911291934 0.20478800977822983 0 0.14339411093581089 1 I I -0.70710678118654746 0.70710678118654746 0.25 forward I I I I #
loop $-1 $-1 $155 $41 #
coedge $-1 $98 $98 $156 $157 reversed $61 $-1 #
face $-1 $158 $159 $33 $-1 $160 reversed single #
loop $-1 $-1 $161 $63 #
plane-surface $-1 -45.256225056458604 -3.5102042809063292 93.359094223976314 0.5877852598018023 0 0.80901698891910034 0.80901698891910034 0 -0.5877852598018023 forward_v I I I I #
coedge $-1 $162 $163 $164 $165 reversed $64 $-1 #
face $-1 $-1 $166 $34 $-1 $167 forward single #
loop $-1 $168 $169 $66 #
cone-surface $-1 63.130931024817954 -6.3442073128974776 7.1200866510056535 -0.5877852598018023 0 -0.80901698891910034 0.60676274168932531 0 -0.44083894485135172 1 I I -0.70710678118654757 0.70710678118654757 0.75 forward I I I I #
loop $-1 $-1 $170 $43 #
coedge $-1 $107 $107 $171 $172 reversed $67 $-1 #
face $-1 $-1 $173 $35 $-1 $174 forward single #
loop $-1 $175 $176 $69 #
cone-surface $-1 63.130931024817954 -0.67620124891518429 7.1200866510056535 -0.5877852598018023 0 -0.80901698891910034 0.60676274168932531 0 -0.44083894485135172 1 I I -0.70710678118654757 0.70710678118654757 0.75 forward I I I I #
loop $-1 $-1 $177 $44 #
coedge $-1 $112 $112 $178 $179 reversed $70 $-1 #
face $-1 $180 $181 $27 $-1 $182 reversed single #
loop $-1 $-1 $183 $72 #
plane-surface $-1 0 -34.429926802639855 0 0 1 0 0 0 1 forward_v I I I I #
coedge $-1 $184 $185 $186 $187 forward $73 $-1 #
coedge $-1 $188 $75 $189 $190 forward $46 $-1 #
coedge $-1 $75 $188 $191 $192 forward $46 $-1 #
coedge $-1 $193 $194 $75 $120 reversed $195 $-1 #
edge $-1 $196 -34.429926802639855 $197 34.429926802639855 $119 $198 forward 7 unknown #
face $-1 $199 $200 $28 $-1 $201 reversed single #
loop $-1 $-1 $202 $76 #
plane-surface $-1 0 -13.471944804768917 -12.350892193100368 0 -1 0 0 0 -1 forward_v I I I I #
coedge $-1 $203 $204 $205 $206 reversed $77 $-1 #
coedge $-1 $207 $79 $208 $209 forward $49 $-1 #
coedge $-1 $79 $207 $210 $211 reversed $49 $-1 #
coedge $-1 $212 $213 $79 $128 forward $214 $-1 #
edge $-1 $215 1.496476902916724 $216 22.454458900787664 $127 $217 forward 7 unknown #
face $-1 $218 $219 $29 $-1 $220 reversed single #
loop $-1 $-1 $221 $80 #
plane-surface $-1 -157.22765704016473 12.694903554261522 129.67890424633171 0 -1 0 0.57357644374324357 0 -0.81915203911291934 forward_v I I I I #
coedge $-1 $222 $223 $224 $225 reversed $81 $-1 #
coedge $-1 $134 $83 $226 $227 reversed $52 $-1 #
coedge $-1 $83 $133 $222 $228 reversed $52 $-1 #
coedge $-1 $224 $229 $83 $136 forward $230 $-1 #
edge $-1 $231 5.3877168833747078 $232 15.466562106088951 $135 $233 forward 7 unknown #
loop $-1 $-1 $142 $84 #
plane-surface $-1 -73.226111636707685 9.2569224250378923 9.7122669192930147 -0.57357644374324357 0 0.81915203911291934 0.81915203911291934 0 0.57357644374324357 forward_v I I I I #
loop $-1 $-1 $234 $54 #
coedge $-1 $140 $140 $141 $235 reversed $85 $-1 #
coedge $-1 $141 $141 $140 $235 forward $87 $-1 #
coedge $-1 $142 $142 $88 $143 forward $137 $-1 #
edge $-1 $236 0 $236 6.2831853071796004 $142 $237 forward 7 unknown #
loop $-1 $-1 $149 $89 #
plane-surface $-1 -73.226111636707685 9.2569224250378923 9.7122669192930147 -0.57357644374324357 0 0.81915203911291934 0.81915203911291934 0 0.57357644374324357 forward_v I I I I #
loop $-1 $-1 $238 $57 #
coedge $-1 $147 $147 $148 $239 reversed $90 $-1 #
coedge $-1 $148 $148 $147 $239 forward $92 $-1 #
coedge $-1 $149 $149 $93 $150 forward $144 $-1 #
edge $-1 $240 0 $240 6.2831853071796004 $149 $241 forward 7 unknown #
loop $-1 $-1 $156 $94 #
plane-surface $-1 -73.226111636707685 9.2569224250378923 9.7122669192930147 -0.57357644374324357 0 0.81915203911291934 0.81915203911291934 0 0.57357644374324357 forward_v I I I I #
loop $-1 $-1 $242 $60 #
coedge $-1 $154 $154 $155 $243 reversed $95 $-1 #
coedge $-1 $155 $155 $154 $243 forward $97 $-1 #
coedge $-1 $156 $156 $98 $157 forward $151 $-1 #
edge $-1 $244 0 $244 6.2831853071796004 $156 $245 forward 7 unknown #
face $-1 $246 $247 $33 $-1 $248 forward single #
loop $-1 $-1 $249 $99 #
plane-surface $-1 40.826233048857375 -10.122878022219005 211.84143091714256 0 1 0 0.5877852598018023 0 0.80901698891910034 forward_v I I I I #
coedge $-1 $250 $251 $252 $253 reversed $100 $-1 #
coedge $-1 $163 $102 $254 $255 reversed $64 $-1 #
coedge $-1 $102 $162 $250 $256 reversed $64 $-1 #
coedge $-1 $252 $257 $102 $165 forward $247 $-1 #
edge $-1 $258 -52.812995112278969 $259 -39.747119700499795 $164 $260 forward 7 unknown #
loop $-1 $-1 $171 $103 #
plane-surface $-1 -45.256225056458604 -3.5102042809063292 93.359094223976314 0.5877852598018023 0 0.80901698891910034 0.80901698891910034 0 -0.5877852598018023 forward_v I I I I #
loop $-1 $-1 $261 $66 #
coedge $-1 $169 $169 $170 $262 reversed $104 $-1 #
coedge $-1 $170 $170 $169 $262 forward $106 $-1 #
coedge $-1 $171 $171 $107 $172 forward $166 $-1 #
edge $-1 $263 0 $263 6.2831853071796004 $171 $264 forward 7 unknown #
loop $-1 $-1 $178 $108 #
plane-surface $-1 -45.256225056458604 -3.5102042809063292 93.359094223976314 0.5877852598018023 0 0.80901698891910034 0.80901698891910034 0 -0.5877852598018023 forward_v I I I I #
loop $-1 $-1 $265 $69 #
coedge $-1 $176 $176 $177 $266 reversed $109 $-1 #
coedge $-1 $177 $177 $176 $266 forward $111 $-1 #
coedge $-1 $178 $178 $112 $179 forward $173 $-1 #
edge $-1 $267 0 $267 6.2831853071796004 $178 $268 forward 7 unknown #
face $-1 $269 $270 $27 $-1 $271 reversed single #
loop $-1 $-1 $272 $113 #
plane-surface $-1 -73.226111636707657 0 0 1 0 0 0 0 -1 forward_v I I I I #
coedge $-1 $273 $191 $274 $275 forward $114 $-1 #
coedge $-1 $276 $116 $273 $277 forward $73 $-1 #
coedge $-1 $116 $276 $278 $279 forward $73 $-1 #
coedge $-1 $194 $193 $116 $187 reversed $195 $-1 #
edge $-1 $280 -34.429926802639855 $281 34.429926802639855 $186 $282 forward 7 unknown #
coedge $-1 $118 $117 $283 $284 forward $46 $-1 #
coedge $-1 $285 $286 $117 $190 reversed $270 $-1 #
edge $-1 $197 -73.226111636707657 $287 73.226111636707657 $189 $288 forward 7 unknown #
coedge $-1 $183 $289 $118 $192 reversed $114 $-1 #
edge $-1 $290 -73.226111636707657 $196 73.226111636707657 $191 $291 forward 7 unknown #
coedge $-1 $186 $119 $289 $292 forward $195 $-1 #
coedge $-1 $119 $186 $285 $293 reversed $195 $-1 #
loop $-1 $-1 $193 $269 #
vertex $-1 $120 $294 #
vertex $-1 $120 $295 #
straight-curve $-1 73.226111636707657 0 16.769550456233741 0 1 0 I I #
face $-1 $296 $297 $28 $-1 $298 reversed single #
loop $-1 $-1 $299 $121 #
plane-surface $-1 -73.226111636707657 0 0 1 0 0 0 0 -1 forward_v I I I I #
coedge $-1 $300 $208 $213 $301 reversed $122 $-1 #
coedge $-1 $302 $124 $303 $304 reversed $77 $-1 #
coedge $-1 $124 $302 $300 $305 forward $77 $-1 #
coedge $-1 $213 $212 $124 $206 forward $214 $-1 #
edge $-1 $306 -22.454458900787664 $307 -1.496476902916724 $205 $308 forward 7 unknown #
coedge $-1 $126 $125 $299 $309 reversed $49 $-1 #
coedge $-1 $202 $310 $125 $209 reversed $122 $-1 #
edge $-1 $215 -73.226111636707657 $311 73.226111636707657 $208 $312 forward 7 unknown #
coedge $-1 $313 $314 $126 $211 forward $297 $-1 #
edge $-1 $216 -73.226111636707657 $315 73.226111636707657 $210 $316 forward 7 unknown #
coedge $-1 $205 $127 $314 $317 forward $214 $-1 #
coedge $-1 $127 $205 $202 $301 forward $214 $-1 #
loop $-1 $-1 $127 $296 #
vertex $-1 $128 $318 #
vertex $-1 $317 $319 #
straight-curve $-1 73.226111636707657 -11.975467901852193 -10.486932119958215 0 -1 0 I I #
face $-1 $-1 $230 $29 $-1 $320 forward single #
loop $-1 $-1 $321 $129 #
plane-surface $-1 -73.226111636707657 0 0 1 0 0 0 0 -1 forward_v I I I I #
coedge $-1 $322 $323 $324 $325 reversed $130 $-1 #
coedge $-1 $326 $132 $134 $228 forward $81 $-1 #
coedge $-1 $132 $326 $322 $327 forward $81 $-1 #
coedge $-1 $324 $135 $132 $225 forward $230 $-1 #
edge $-1 $232 1.1904800832953164 $328 8.0664423417425759 $224 $329 forward 7 unknown #
coedge $-1 $330 $331 $133 $227 forward $219 $-1 #
edge $-1 $332 -55.12718520387282 $231 -48.069901666932111 $226 $333 forward 7 unknown #
edge $-1 $232 -12.303998209696104 $332 -3.4489342061374355e-014 $134 $334 forward 7 unknown #
coedge $-1 $135 $324 $330 $335 forward $230 $-1 #
loop $-1 $-1 $324 $218 #
vertex $-1 $227 $336 #
vertex $-1 $136 $337 #
straight-curve $-1 -78.613828520082365 5.8189412958142626 16.769550456233745 1 0 0 I I #
coedge $-1 $234 $234 $-1 $338 reversed $139 $-1 #
edge $-1 $339 0 $339 6.2831853071796004 $140 $340 forward 7 unknown #
vertex $-1 $143 $341 #
ellipse-curve $-1 -68.186689025350532 7.194133747503713 13.240908687763389 -0.57357644374324357 0 0.81915203911291934 0.40957601955645967 0 0.28678822187162178 1 I I #
coedge $-1 $238 $238 $-1 $342 reversed $146 $-1 #
edge $-1 $343 0 $343 6.2831853071796004 $147 $344 forward 7 unknown #
vertex $-1 $150 $345 #
ellipse-curve $-1 -68.186689025350532 9.2569224250378923 13.240908687763389 -0.57357644374324357 0 0.81915203911291934 0.40957601955645967 0 0.28678822187162178 1 I I #
coedge $-1 $242 $242 $-1 $346 reversed $153 $-1 #
edge $-1 $347 0 $347 6.2831853071796004 $154 $348 forward 7 unknown #
vertex $-1 $157 $349 #
ellipse-curve $-1 -68.186689025350532 11.319711102572072 13.240908687763389 -0.57357644374324357 0 0.81915203911291934 0.40957601955645967 0 0.28678822187162178 1 I I #
face $-1 $-1 $350 $33 $-1 $351 reversed single #
loop $-1 $-1 $164 $158 #
plane-surface $-1 0 0 16.769550456233741 0 0 1 1 0 0 forward_v I I I I #
coedge $-1 $352 $353 $354 $355 reversed $159 $-1 #
coedge $-1 $356 $161 $163 $256 forward $100 $-1 #
coedge $-1 $161 $356 $352 $357 forward $100 $-1 #
coedge $-1 $354 $164 $161 $253 forward $247 $-1 #
edge $-1 $259 -4.8575716008595116 $358 8.3677758817658408 $252 $359 forward 7 unknown #
coedge $-1 $360 $361 $162 $255 forward $350 $-1 #
edge $-1 $362 -98.644079339910959 $258 -89.151165002337535 $254 $363 forward 7 unknown #
edge $-1 $259 130.3019129699988 $362 146.45222327341534 $163 $364 forward 7 unknown #
coedge $-1 $164 $354 $360 $365 forward $247 $-1 #
vertex $-1 $255 $366 #
vertex $-1 $165 $367 #
straight-curve $-1 20.413116524428688 3.102469460406347 16.769550456233745 -1 0 0 I I #
coedge $-1 $261 $261 $-1 $368 reversed $168 $-1 #
edge $-1 $369 0 $369 6.2831853071796004 $169 $370 forward 7 unknown #
vertex $-1 $172 $371 #
ellipse-curve $-1 66.693173930818077 -6.3442073128974776 12.023093287447018 0.5877852598018023 0 0.80901698891910034 1.2135254833786506 0 -0.88167788970270344 1 I I #
coedge $-1 $265 $265 $-1 $372 reversed $175 $-1 #
edge $-1 $373 0 $373 6.2831853071796004 $176 $374 forward 7 unknown #
vertex $-1 $179 $375 #
ellipse-curve $-1 66.693173930818077 -0.67620124891518429 12.023093287447018 0.5877852598018023 0 0.80901698891910034 1.2135254833786506 0 -0.88167788970270344 1 I I #
face $-1 $-1 $195 $27 $-1 $376 reversed single #
loop $-1 $-1 $285 $180 #
plane-surface $-1 0 34.429926802639855 0 0 -1 0 0 0 -1 forward_v I I I I #
coedge $-1 $377 $283 $286 $378 forward $181 $-1 #
coedge $-1 $289 $183 $184 $277 reversed $114 $-1 #
coedge $-1 $283 $377 $183 $275 reversed $181 $-1 #
edge $-1 $290 -16.769550456233741 $379 16.769550456233741 $274 $380 forward 7 unknown #
coedge $-1 $185 $184 $377 $381 forward $73 $-1 #
edge $-1 $281 -73.226111636707657 $379 73.226111636707657 $273 $382 forward 7 unknown #
coedge $-1 $286 $285 $185 $279 reversed $270 $-1 #
edge $-1 $383 -73.226111636707657 $280 73.226111636707657 $278 $384 forward 7 unknown #
vertex $-1 $187 $385 #
vertex $-1 $292 $386 #
straight-curve $-1 73.226111636707657 0 -16.769550456233741 0 -1 0 I I #
coedge $-1 $272 $274 $188 $284 reversed $181 $-1 #
edge $-1 $287 -34.429926802639855 $290 34.429926802639855 $283 $387 forward 7 unknown #
coedge $-1 $278 $189 $194 $293 forward $270 $-1 #
coedge $-1 $189 $278 $272 $378 reversed $270 $-1 #
vertex $-1 $190 $388 #
straight-curve $-1 0 34.429926802639855 16.769550456233741 -1 0 0 I I #
coedge $-1 $191 $273 $193 $292 reversed $114 $-1 #
vertex $-1 $284 $389 #
straight-curve $-1 0 -34.429926802639855 16.769550456233741 1 0 0 I I #
edge $-1 $196 -16.769550456233741 $281 16.769550456233741 $193 $390 forward 7 unknown #
edge $-1 $197 -16.769550456233741 $280 16.769550456233741 $194 $391 forward 7 unknown #
point $-1 73.226111636707657 -34.429926802639855 16.769550456233741 #
point $-1 73.226111636707657 34.429926802639855 16.769550456233741 #
face $-1 $-1 $214 $28 $-1 $392 reversed single #
loop $-1 $-1 $210 $199 #
plane-surface $-1 0 -34.429926802639855 0 0 1 0 0 0 1 forward_v I I I I #
coedge $-1 $393 $394 $207 $309 forward $200 $-1 #
coedge $-1 $310 $202 $204 $305 reversed $122 $-1 #
edge $-1 $307 -8.0394061696923362 $215 -4.3114860234080314 $213 $395 forward 7 unknown #
coedge $-1 $204 $203 $396 $397 reversed $77 $-1 #
coedge $-1 $314 $313 $203 $304 forward $297 $-1 #
edge $-1 $398 -73.226111636707657 $306 73.226111636707657 $303 $399 forward 7 unknown #
edge $-1 $400 -73.226111636707657 $307 73.226111636707657 $300 $401 forward 7 unknown #
vertex $-1 $304 $402 #
vertex $-1 $206 $403 #
straight-curve $-1 73.226111636707657 -11.975467901852193 -14.21485226624252 0 1 0 I I #
edge $-1 $315 -22.454458900787664 $311 -1.496476902916724 $299 $404 forward 7 unknown #
coedge $-1 $208 $300 $393 $405 reversed $122 $-1 #
vertex $-1 $309 $406 #
straight-curve $-1 0 -13.471944804768917 -10.486932119958215 -1 0 0 I I #
coedge $-1 $303 $210 $394 $407 forward $297 $-1 #
coedge $-1 $210 $303 $212 $317 reversed $297 $-1 #
vertex $-1 $407 $408 #
straight-curve $-1 0 -34.429926802639855 -10.486932119958215 -1 0 0 I I #
edge $-1 $216 10.486932119958215 $306 14.21485226624252 $212 $409 forward 7 unknown #
point $-1 73.226111636707657 -13.471944804768917 -10.486932119958215 #
point $-1 73.226111636707657 -34.429926802639855 -10.486932119958215 #
plane-surface $-1 0 0 16.769550456233741 0 0 1 1 0 0 forward_v I I I I #
coedge $-1 $331 $330 $323 $410 forward $219 $-1 #
coedge $-1 $323 $221 $223 $327 reversed $130 $-1 #
coedge $-1 $221 $322 $321 $410 reversed $130 $-1 #
coedge $-1 $229 $224 $221 $325 forward $230 $-1 #
edge $-1 $328 -15.466562106088951 $411 -5.3877168833747078 $324 $412 forward 7 unknown #
coedge $-1 $223 $222 $331 $413 reversed $81 $-1 #
edge $-1 $414 3.4489342061374355e-014 $328 12.303998209696104 $322 $415 forward 7 unknown #
vertex $-1 $225 $416 #
straight-curve $-1 -63.147266413993407 4.6284612125189462 16.769550456233741 0 1 0 I I #
coedge $-1 $321 $226 $229 $335 reversed $219 $-1 #
coedge $-1 $226 $321 $326 $413 forward $219 $-1 #
vertex $-1 $227 $417 #
straight-curve $-1 -73.226111636707657 5.8189412958142626 64.839452123165856 0 0 1 I I #
straight-curve $-1 -73.226111636707685 5.8189412958142626 9.7122669192930147 -0.81915203911291934 0 -0.57357644374324357 I I #
edge $-1 $411 -12.694903554261522 $231 -5.8189412958142626 $330 $418 forward 7 unknown #
point $-1 -73.226111636707657 5.8189412958142626 16.769550456233741 #
point $-1 -63.147266413993414 5.8189412958142626 16.769550456233741 #
edge $-1 $419 1 $419 0 $234 $-1 forward 7 unknown #
vertex $-1 $235 $420 #
ellipse-curve $-1 -67.424963333718424 7.194133747503713 12.153051680468899 -0.57357644374324357 0 0.81915203911291934 0.40957601955645967 0 0.28678822187162178 1 I I #
point $-1 -67.777113005794064 7.194133747503713 13.527696909635003 #
edge $-1 $421 1 $421 0 $238 $-1 forward 7 unknown #
vertex $-1 $239 $422 #
ellipse-curve $-1 -67.424963333718424 9.2569224250378923 12.153051680468899 -0.57357644374324357 0 0.81915203911291934 0.40957601955645967 0 0.28678822187162178 1 I I #
point $-1 -67.777113005794064 9.2569224250378923 13.527696909635003 #
edge $-1 $423 1 $423 0 $242 $-1 forward 7 unknown #
vertex $-1 $243 $424 #
ellipse-curve $-1 -67.424963333718424 11.319711102572072 12.153051680468899 -0.57357644374324357 0 0.81915203911291934 0.40957601955645967 0 0.28678822187162178 1 I I #
point $-1 -67.777113005794064 11.319711102572072 13.527696909635003 #
loop $-1 $-1 $254 $246 #
plane-surface $-1 73.226111636707657 0 0 -1 0 0 0 0 1 forward_v I I I I #
coedge $-1 $353 $249 $251 $357 reversed $159 $-1 #
coedge $-1 $249 $352 $425 $426 reversed $159 $-1 #
coedge $-1 $257 $252 $249 $355 forward $247 $-1 #
edge $-1 $358 39.747119700499795 $427 52.812995112278969 $354 $428 forward 7 unknown #
coedge $-1 $251 $250 $361 $429 reversed $100 $-1 #
edge $-1 $430 -146.45222327341534 $358 -130.3019129699988 $352 $431 forward 7 unknown #
vertex $-1 $253 $432 #
straight-curve $-1 60.160236224928468 -1.7551021404531646 16.769550456233745 0 -1 0 I I #
coedge $-1 $425 $254 $257 $365 reversed $350 $-1 #
coedge $-1 $254 $425 $356 $429 forward $350 $-1 #
vertex $-1 $255 $433 #
straight-curve $-1 73.226111636707657 3.102469460406347 105.92071545857128 0 0 1 I I #
straight-curve $-1 -45.256225056458604 3.102469460406347 93.359094223976314 0.80901698891910034 0 -0.5877852598018023 I I #
edge $-1 $427 -10.122878022219005 $258 3.102469460406347 $360 $434 forward 7 unknown #
point $-1 73.226111636707657 3.102469460406347 16.769550456233741 #
point $-1 60.160236224928482 3.102469460406347 16.769550456233745 #
edge $-1 $435 1 $435 0 $261 $-1 forward 7 unknown #
vertex $-1 $262 $436 #
ellipse-curve $-1 63.571769969669305 -6.3442073128974776 7.7268493926949784 0.5877852598018023 0 0.80901698891910034 1.2135254833786506 0 -0.88167788970270344 1 I I #
point $-1 67.906699414196737 -6.3442073128974776 11.141415397744327 #
edge $-1 $437 1 $437 0 $265 $-1 forward 7 unknown #
vertex $-1 $266 $438 #
ellipse-curve $-1 63.571769969669305 -0.67620124891518429 7.7268493926949784 0.5877852598018023 0 0.80901698891910034 1.2135254833786506 0 -0.88167788970270344 1 I I #
point $-1 67.906699414196737 -0.67620124891518429 11.141415397744327 #
plane-surface $-1 73.226111636707657 0 0 -1 0 0 0 0 1 forward_v I I I I #
coedge $-1 $274 $272 $276 $381 reversed $181 $-1 #
edge $-1 $287 -16.769550456233741 $383 16.769550456233741 $286 $439 forward 7 unknown #
vertex $-1 $381 $440 #
straight-curve $-1 -73.226111636707657 -34.429926802639855 0 0 0 -1 I I #
edge $-1 $379 -34.429926802639855 $383 34.429926802639855 $377 $441 forward 7 unknown #
straight-curve $-1 0 -34.429926802639855 -16.769550456233741 -1 0 0 I I #
vertex $-1 $279 $442 #
straight-curve $-1 0 34.429926802639855 -16.769550456233741 1 0 0 I I #
point $-1 73.226111636707657 34.429926802639855 -16.769550456233741 #
point $-1 73.226111636707657 -34.429926802639855 -16.769550456233741 #
straight-curve $-1 -73.226111636707657 0 16.769550456233741 0 -1 0 I I #
point $-1 -73.226111636707657 34.429926802639855 16.769550456233741 #
point $-1 -73.226111636707657 -34.429926802639855 16.769550456233741 #
straight-curve $-1 73.226111636707657 -34.429926802639855 0 0 0 -1 I I #
straight-curve $-1 73.226111636707657 34.429926802639855 0 0 0 -1 I I #
plane-surface $-1 73.226111636707657 0 0 -1 0 0 0 0 1 forward_v I I I I #
coedge $-1 $396 $299 $310 $405 forward $200 $-1 #
coedge $-1 $299 $396 $313 $407 reversed $200 $-1 #
straight-curve $-1 73.226111636707657 -13.471944804768917 -6.1754460965501838 0 0 1 I I #
coedge $-1 $394 $393 $302 $397 forward $200 $-1 #
edge $-1 $400 1.496476902916724 $398 22.454458900787664 $396 $443 forward 7 unknown #
vertex $-1 $304 $444 #
straight-curve $-1 0 -34.429926802639855 -14.21485226624252 1 0 0 I I #
vertex $-1 $397 $445 #
straight-curve $-1 0 -13.471944804768917 -14.21485226624252 1 0 0 I I #
point $-1 73.226111636707657 -34.429926802639855 -14.21485226624252 #
point $-1 73.226111636707657 -13.471944804768917 -14.21485226624252 #
straight-curve $-1 -73.226111636707657 -11.975467901852193 -10.486932119958215 0 1 0 I I #
edge $-1 $311 4.3114860234080314 $400 8.0394061696923362 $393 $446 forward 7 unknown #
point $-1 -73.226111636707657 -13.471944804768917 -10.486932119958215 #
edge $-1 $315 10.486932119958215 $398 14.21485226624252 $394 $447 forward 7 unknown #
point $-1 -73.226111636707657 -34.429926802639855 -10.486932119958215 #
straight-curve $-1 73.226111636707657 -34.429926802639855 0 0 0 -1 I I #
edge $-1 $411 48.069901666932111 $414 55.12718520387282 $321 $448 forward 7 unknown #
vertex $-1 $335 $449 #
straight-curve $-1 -78.613828520082365 12.694903554261522 16.769550456233745 -1 0 0 I I #
edge $-1 $414 -8.0664423417425759 $332 -1.1904800832953164 $331 $450 forward 7 unknown #
vertex $-1 $413 $451 #
straight-curve $-1 -73.226111636707685 12.694903554261522 9.7122669192930147 0.81915203911291934 0 0.57357644374324357 I I #
point $-1 -63.147266413993414 12.694903554261522 16.769550456233741 #
point $-1 -73.226111636707657 5.8189412958142626 9.7122669192930342 #
straight-curve $-1 -73.226111636707657 0 16.769550456233741 0 -1 0 I I #
vertex $-1 $338 $452 #
point $-1 -67.015387314161956 7.194133747503713 12.43983990234052 #
vertex $-1 $342 $453 #
point $-1 -67.015387314161956 9.2569224250378923 12.43983990234052 #
vertex $-1 $346 $454 #
point $-1 -67.015387314161956 11.319711102572072 12.43983990234052 #
coedge $-1 $361 $360 $353 $426 forward $350 $-1 #
edge $-1 $427 89.151165002337535 $430 98.644079339910959 $425 $455 forward 7 unknown #
vertex $-1 $365 $456 #
straight-curve $-1 20.413116524428688 -10.122878022219005 16.769550456233745 1 0 0 I I #
edge $-1 $430 -8.3677758817658408 $362 4.8575716008595116 $361 $457 forward 7 unknown #
vertex $-1 $429 $458 #
straight-curve $-1 -45.256225056458604 -10.122878022219005 93.359094223976314 -0.80901698891910034 0 0.5877852598018023 I I #
point $-1 60.160236224928482 -10.122878022219005 16.769550456233745 #
point $-1 73.226111636707671 3.102469460406347 7.2766361186603206 #
straight-curve $-1 73.226111636707657 0 16.769550456233741 0 1 0 I I #
vertex $-1 $368 $459 #
point $-1 64.785295453047951 -6.3442073128974776 6.8451715029922751 #
vertex $-1 $372 $460 #
point $-1 64.785295453047951 -0.67620124891518429 6.8451715029922751 #
straight-curve $-1 -73.226111636707657 34.429926802639855 0 0 0 -1 I I #
point $-1 -73.226111636707657 -34.429926802639855 -16.769550456233741 #
straight-curve $-1 -73.226111636707657 0 -16.769550456233741 0 1 0 I I #
point $-1 -73.226111636707657 34.429926802639855 -16.769550456233741 #
straight-curve $-1 -73.226111636707657 -11.975467901852193 -14.21485226624252 0 -1 0 I I #
point $-1 -73.226111636707657 -34.429926802639855 -14.21485226624252 #
point $-1 -73.226111636707657 -13.471944804768917 -14.21485226624252 #
straight-curve $-1 -73.226111636707657 -13.471944804768917 -6.1754460965501838 0 0 -1 I I #
straight-curve $-1 -73.226111636707657 -34.429926802639855 0 0 0 -1 I I #
straight-curve $-1 -73.226111636707657 12.694903554261522 64.839452123165856 0 0 -1 I I #
point $-1 -73.226111636707657 12.694903554261522 16.769550456233741 #
straight-curve $-1 -73.226111636707657 4.6284612125189462 9.7122669192930307 0 -1 0 I I #
point $-1 -73.226111636707657 12.694903554261522 9.7122669192930342 #
point $-1 -67.138175111846792 7.194133747503713 11.743475660912438 #
point $-1 -67.138175111846792 9.2569224250378923 11.743475660912438 #
point $-1 -67.138175111846792 11.319711102572072 11.743475660912438 #
straight-curve $-1 73.226111636707657 -10.122878022219005 105.92071545857128 0 0 -1 I I #
point $-1 73.226111636707657 -10.122878022219005 16.769550456233741 #
straight-curve $-1 73.226111636707657 -1.7551021404531646 7.2766361186603206 0 1 0 I I #
point $-1 73.226111636707671 -10.122878022219005 7.2766361186603206 #
point $-1 62.690092079966604 -6.3442073128974776 6.5133239093163287 #
point $-1 62.690092079966604 -0.67620124891518429 6.5133239093163287 #
End-of-ACIS-data 