500 0 9 0           
7 Unknown 11 ACIS 5.0 NT 24 Thu Mar 25 20:48:04 1999 
-1 9.9999999999999995e-007 1e-010 
body $-1 $9 $-1 $10 #
body $-1 $11 $-1 $12 #
body $-1 $13 $-1 $14 #
body $-1 $15 $-1 $16 #
body $-1 $17 $-1 $18 #
body $-1 $19 $-1 $20 #
body $-1 $21 $-1 $22 #
body $-1 $23 $-1 $24 #
body $-1 $25 $-1 $26 #
lump $-1 $-1 $27 $0 #
transform $-1 1 0 0 0 1 0 0 0 1 60.186162907803578 38.239437577819132 14.47069851000829 1 rotate no_reflect no_shear #
lump $-1 $-1 $28 $1 #
transform $-1 1 0 0 0 1 0 0 0 1 60.186162907803578 38.239437577819132 14.47069851000829 1 rotate no_reflect no_shear #
lump $-1 $-1 $29 $2 #
transform $-1 1 0 0 0 1 0 0 0 1 60.186162907803578 38.239437577819132 14.47069851000829 1 rotate no_reflect no_shear #
lump $-1 $-1 $30 $3 #
transform $-1 1 0 0 0 1 0 0 0 1 60.186162907803578 38.239437577819132 14.47069851000829 1 rotate no_reflect no_shear #
lump $-1 $-1 $31 $4 #
transform $-1 1 0 0 0 1 0 0 0 1 60.186162907803578 38.239437577819132 14.47069851000829 1 rotate no_reflect no_shear #
lump $-1 $-1 $32 $5 #
transform $-1 1 0 0 0 1 0 0 0 1 60.186162907803578 38.239437577819132 14.47069851000829 1 rotate no_reflect no_shear #
lump $-1 $-1 $33 $6 #
transform $-1 1 0 0 0 1 0 0 0 1 60.186162907803578 38.239437577819132 14.47069851000829 1 rotate no_reflect no_shear #
lump $-1 $-1 $34 $7 #
transform $-1 1 0 0 0 1 0 0 0 1 60.186162907803578 38.239437577819132 14.47069851000829 1 rotate no_reflect no_shear #
lump $-1 $-1 $35 $8 #
transform $-1 1 0 0 0 1 0 0 0 1 60.186162907803578 38.239437577819132 14.47069851000829 1 rotate no_reflect no_shear #
shell $-1 $-1 $-1 $36 $-1 $9 #
shell $-1 $-1 $-1 $37 $-1 $11 #
shell $-1 $-1 $-1 $38 $-1 $13 #
shell $-1 $-1 $-1 $39 $-1 $15 #
shell $-1 $-1 $-1 $40 $-1 $17 #
shell $-1 $-1 $-1 $41 $-1 $19 #
shell $-1 $-1 $-1 $42 $-1 $21 #
shell $-1 $-1 $-1 $43 $-1 $23 #
shell $-1 $-1 $-1 $44 $-1 $25 #
face $-1 $45 $46 $27 $-1 $47 forward single #
face $-1 $48 $49 $28 $-1 $50 reversed single #
face $-1 $51 $52 $29 $-1 $53 forward single #
face $-1 $54 $55 $30 $-1 $56 reversed single #
face $-1 $57 $58 $31 $-1 $59 forward single #
face $-1 $60 $61 $32 $-1 $62 forward single #
face $-1 $63 $64 $33 $-1 $65 reversed single #
face $-1 $66 $67 $34 $-1 $68 forward single #
face $-1 $69 $70 $35 $-1 $71 forward single #
face $-1 $72 $73 $27 $-1 $74 reversed single #
loop $-1 $-1 $75 $36 #
plane-surface $-1 0 0 14.47069851000829 0 0 1 1 0 0 forward_v I I I I #
face $-1 $76 $77 $28 $-1 $78 reversed single #
loop $-1 $-1 $79 $37 #
plane-surface $-1 0 -28.78000727803844 9.5049882470536335 0 0 1 1 0 0 forward_v I I I I #
face $-1 $80 $81 $29 $-1 $82 reversed single #
loop $-1 $-1 $83 $38 #
plane-surface $-1 0 29.282504900421571 0.1005258241267164 0 0 1 1 0 0 forward_v I I I I #
face $-1 $84 $85 $30 $-1 $86 reversed single #
loop $-1 $-1 $87 $39 #
plane-surface $-1 -122.1824946930177 20.325572223023997 112.32441376262008 0 -1 0 0.51503808176128008 0 -0.85716729658548041 forward_v I I I I #
face $-1 $88 $89 $31 $-1 $90 forward single #
loop $-1 $91 $92 $40 #
cone-surface $-1 -55.438776173886971 14.992364240876995 11.282329928830261 0.51503808176128008 0 -0.85716729658548041 0.4285836482927402 0 0.25751904088064004 1 I I 0 1 0.5 forward I I I I #
face $-1 $93 $94 $32 $-1 $95 forward single #
loop $-1 $96 $97 $41 #
cone-surface $-1 -55.438776173886971 18.192289030165199 11.282329928830261 0.51503808176128008 0 -0.85716729658548041 0.4285836482927402 0 0.25751904088064004 1 I I 0 1 0.5 forward I I I I #
face $-1 $98 $99 $33 $-1 $100 reversed single #
loop $-1 $-1 $101 $42 #
plane-surface $-1 57.21520371967658 -9.6789014809969345 173.32991085836733 0 -1 0 -0.69465837861970381 0 -0.71933979245794832 forward_v I I I I #
face $-1 $102 $103 $34 $-1 $104 forward single #
loop $-1 $105 $106 $43 #
cone-surface $-1 53.144123056771974 -16.565812550468944 7.5887786869463429 -0.69465837861970381 0 -0.71933979245794832 0.71933979245794832 0 -0.69465837861970381 1 I I 0 1 1 forward I I I I #
face $-1 $107 $108 $35 $-1 $109 forward single #
loop $-1 $110 $111 $44 #
cone-surface $-1 53.144123056771974 -12.433665908785741 7.5887786869463429 -0.69465837861970381 0 -0.71933979245794832 0.71933979245794832 0 -0.69465837861970381 1 I I 0 1 1 forward I I I I #
face $-1 $112 $113 $27 $-1 $114 reversed single #
loop $-1 $-1 $115 $45 #
plane-surface $-1 0 0 -14.47069851000829 0 0 1 1 0 0 forward_v I I I I #
coedge $-1 $116 $117 $118 $119 forward $46 $-1 #
face $-1 $120 $121 $28 $-1 $122 reversed single #
loop $-1 $-1 $123 $48 #
plane-surface $-1 0 -19.320576978257748 11.987843378530961 0 -1 0 0 0 -1 forward_v I I I I #
coedge $-1 $124 $125 $126 $127 reversed $49 $-1 #
face $-1 $128 $129 $29 $-1 $130 reversed single #
loop $-1 $-1 $131 $51 #
plane-surface $-1 0 29.282504900421571 -4.7074362925901099 0 0 1 1 0 0 forward_v I I I I #
coedge $-1 $132 $133 $134 $135 reversed $52 $-1 #
face $-1 $136 $137 $30 $-1 $138 reversed single #
loop $-1 $-1 $139 $54 #
plane-surface $-1 -60.18616290780357 16.592326635521097 9.1451926595494513 -0.51503808176128008 0 0.85716729658548041 0.85716729658548041 0 0.51503808176128008 forward_v I I I I #
coedge $-1 $140 $141 $142 $143 reversed $55 $-1 #
face $-1 $-1 $144 $31 $-1 $145 forward single #
loop $-1 $146 $147 $57 #
cone-surface $-1 -54.994194899324853 14.992364240876995 10.542422448735287 0.51503808176128008 0 -0.85716729658548041 0.2142918241463701 0 0.12875952044032002 1 I I -0.70710678118654746 0.70710678118654746 0.25 forward I I I I #
loop $-1 $-1 $148 $40 #
coedge $-1 $92 $92 $149 $150 reversed $58 $-1 #
face $-1 $-1 $151 $32 $-1 $152 forward single #
loop $-1 $153 $154 $60 #
cone-surface $-1 -54.994194899324853 18.192289030165199 10.542422448735287 0.51503808176128008 0 -0.85716729658548041 0.2142918241463701 0 0.12875952044032002 1 I I -0.70710678118654746 0.70710678118654746 0.25 forward I I I I #
loop $-1 $-1 $155 $41 #
coedge $-1 $97 $97 $156 $157 reversed $61 $-1 #
face $-1 $158 $159 $33 $-1 $160 forward single #
loop $-1 $-1 $161 $63 #
plane-surface $-1 -26.402440962075801 -14.499739229627341 86.741306988487935 0.69465837861970381 0 0.71933979245794832 0.71933979245794832 0 -0.69465837861970381 forward_v I I I I #
coedge $-1 $162 $163 $164 $165 reversed $64 $-1 #
face $-1 $-1 $166 $34 $-1 $167 forward single #
loop $-1 $168 $169 $66 #
cone-surface $-1 51.629853863130563 -16.565812550468944 6.0207070692918023 -0.69465837861970381 0 -0.71933979245794832 0.35966989622897416 0 -0.3473291893098519 1 I I -0.70710678118654746 0.70710678118654746 0.5 forward I I I I #
loop $-1 $-1 $170 $43 #
coedge $-1 $106 $106 $171 $172 reversed $67 $-1 #
face $-1 $-1 $173 $35 $-1 $174 forward single #
loop $-1 $175 $176 $69 #
cone-surface $-1 51.629853863130563 -12.433665908785741 6.0207070692918023 -0.69465837861970381 0 -0.71933979245794832 0.35966989622897416 0 -0.3473291893098519 1 I I -0.70710678118654746 0.70710678118654746 0.5 forward I I I I #
loop $-1 $-1 $177 $44 #
coedge $-1 $111 $111 $178 $179 reversed $70 $-1 #
face $-1 $180 $181 $27 $-1 $182 reversed single #
loop $-1 $-1 $183 $72 #
plane-surface $-1 0 -38.239437577819132 0 0 1 0 0 0 1 forward_v I I I I #
coedge $-1 $184 $185 $186 $187 forward $73 $-1 #
coedge $-1 $188 $75 $189 $190 forward $46 $-1 #
coedge $-1 $75 $188 $191 $192 forward $46 $-1 #
coedge $-1 $193 $194 $75 $119 reversed $195 $-1 #
edge $-1 $196 -38.239437577819132 $197 38.239437577819132 $118 $198 forward 7 unknown #
face $-1 $199 $200 $28 $-1 $201 reversed single #
loop $-1 $-1 $202 $76 #
plane-surface $-1 -60.186162907803578 0 0 1 0 0 0 0 -1 forward_v I I I I #
coedge $-1 $203 $204 $205 $206 reversed $77 $-1 #
coedge $-1 $207 $79 $208 $209 reversed $49 $-1 #
coedge $-1 $79 $207 $203 $210 forward $49 $-1 #
coedge $-1 $205 $211 $79 $127 forward $212 $-1 #
edge $-1 $213 -23.849433938799912 $214 -4.9305733392385278 $126 $215 forward 7 unknown #
face $-1 $216 $217 $29 $-1 $218 reversed single #
loop $-1 $-1 $219 $80 #
plane-surface $-1 0 20.325572223024004 -2.3034552342316967 0 1 0 0 0 1 forward_v I I I I #
coedge $-1 $220 $221 $222 $223 reversed $81 $-1 #
coedge $-1 $224 $83 $225 $226 reversed $52 $-1 #
coedge $-1 $83 $224 $227 $228 forward $52 $-1 #
coedge $-1 $229 $230 $83 $135 forward $217 $-1 #
edge $-1 $231 -23.598185127608353 $232 -5.6843197728132182 $134 $233 forward 7 unknown #
face $-1 $234 $235 $30 $-1 $236 reversed single #
loop $-1 $-1 $237 $84 #
plane-surface $-1 -122.1824946930177 12.859081048018197 112.32441376262008 0 1 0 -0.51503808176128008 0 0.85716729658548041 forward_v I I I I #
coedge $-1 $238 $239 $240 $241 reversed $85 $-1 #
coedge $-1 $141 $87 $242 $243 reversed $55 $-1 #
coedge $-1 $87 $140 $238 $244 reversed $55 $-1 #
coedge $-1 $240 $245 $87 $143 forward $235 $-1 #
edge $-1 $246 41.691508371301751 $247 47.01701422176059 $142 $248 forward 7 unknown #
loop $-1 $-1 $149 $88 #
plane-surface $-1 -60.18616290780357 16.592326635521097 9.1451926595494513 -0.51503808176128008 0 0.85716729658548041 0.85716729658548041 0 0.51503808176128008 forward_v I I I I #
loop $-1 $-1 $249 $57 #
coedge $-1 $147 $147 $148 $250 reversed $89 $-1 #
coedge $-1 $148 $148 $147 $250 forward $91 $-1 #
coedge $-1 $149 $149 $92 $150 forward $144 $-1 #
edge $-1 $251 0 $251 6.2831853071796004 $149 $252 forward 7 unknown #
loop $-1 $-1 $156 $93 #
plane-surface $-1 -60.18616290780357 16.592326635521097 9.1451926595494513 -0.51503808176128008 0 0.85716729658548041 0.85716729658548041 0 0.51503808176128008 forward_v I I I I #
loop $-1 $-1 $253 $60 #
coedge $-1 $154 $154 $155 $254 reversed $94 $-1 #
coedge $-1 $155 $155 $154 $254 forward $96 $-1 #
coedge $-1 $156 $156 $97 $157 forward $151 $-1 #
edge $-1 $255 0 $255 6.2831853071796004 $156 $256 forward 7 unknown #
face $-1 $257 $258 $33 $-1 $259 forward single #
loop $-1 $-1 $164 $98 #
plane-surface $-1 0 0 14.47069851000829 0 0 1 1 0 0 forward_v I I I I #
coedge $-1 $260 $261 $262 $263 reversed $99 $-1 #
coedge $-1 $163 $101 $264 $265 reversed $64 $-1 #
coedge $-1 $101 $162 $260 $266 reversed $64 $-1 #
coedge $-1 $262 $267 $101 $165 forward $159 $-1 #
edge $-1 $268 -31.578561047965287 $269 -19.828361354565224 $164 $270 forward 7 unknown #
loop $-1 $-1 $171 $102 #
plane-surface $-1 -26.402440962075801 -14.499739229627341 86.741306988487935 0.69465837861970381 0 0.71933979245794832 0.71933979245794832 0 -0.69465837861970381 forward_v I I I I #
loop $-1 $-1 $271 $66 #
coedge $-1 $169 $169 $170 $272 reversed $103 $-1 #
coedge $-1 $170 $170 $169 $272 forward $105 $-1 #
coedge $-1 $171 $171 $106 $172 forward $166 $-1 #
edge $-1 $273 0 $273 6.2831853071796004 $171 $274 forward 7 unknown #
loop $-1 $-1 $178 $107 #
plane-surface $-1 -26.402440962075801 -14.499739229627341 86.741306988487935 0.69465837861970381 0 0.71933979245794832 0.71933979245794832 0 -0.69465837861970381 forward_v I I I I #
loop $-1 $-1 $275 $69 #
coedge $-1 $176 $176 $177 $276 reversed $108 $-1 #
coedge $-1 $177 $177 $176 $276 forward $110 $-1 #
coedge $-1 $178 $178 $111 $179 forward $173 $-1 #
edge $-1 $277 0 $277 6.2831853071796004 $178 $278 forward 7 unknown #
face $-1 $279 $280 $27 $-1 $281 reversed single #
loop $-1 $-1 $282 $112 #
plane-surface $-1 -60.186162907803578 0 0 1 0 0 0 0 -1 forward_v I I I I #
coedge $-1 $283 $191 $284 $285 forward $113 $-1 #
coedge $-1 $286 $115 $283 $287 forward $73 $-1 #
coedge $-1 $115 $286 $288 $289 forward $73 $-1 #
coedge $-1 $194 $193 $115 $187 reversed $195 $-1 #
edge $-1 $290 -38.239437577819132 $291 38.239437577819132 $186 $292 forward 7 unknown #
coedge $-1 $117 $116 $293 $294 forward $46 $-1 #
coedge $-1 $295 $296 $116 $190 reversed $280 $-1 #
edge $-1 $197 -60.186162907803578 $297 60.186162907803578 $189 $298 forward 7 unknown #
coedge $-1 $183 $299 $117 $192 reversed $113 $-1 #
edge $-1 $300 -60.186162907803578 $196 60.186162907803578 $191 $301 forward 7 unknown #
coedge $-1 $186 $118 $299 $302 forward $195 $-1 #
coedge $-1 $118 $186 $295 $303 reversed $195 $-1 #
loop $-1 $-1 $193 $279 #
vertex $-1 $119 $304 #
vertex $-1 $119 $305 #
straight-curve $-1 60.186162907803578 0 14.47069851000829 0 1 0 I I #
face $-1 $306 $307 $28 $-1 $308 forward single #
loop $-1 $-1 $208 $120 #
plane-surface $-1 0 -38.239437577819132 0 0 1 0 0 0 1 forward_v I I I I #
coedge $-1 $309 $310 $311 $312 forward $121 $-1 #
coedge $-1 $311 $123 $125 $210 reversed $77 $-1 #
coedge $-1 $123 $311 $313 $314 reversed $77 $-1 #
coedge $-1 $315 $126 $123 $206 forward $212 $-1 #
edge $-1 $214 3.511066557788153 $316 8.476776820742808 $205 $317 forward 7 unknown #
coedge $-1 $125 $124 $309 $318 reversed $49 $-1 #
coedge $-1 $319 $320 $124 $209 forward $200 $-1 #
edge $-1 $321 -60.186162907803578 $213 60.186162907803578 $208 $322 forward 7 unknown #
edge $-1 $323 -60.186162907803578 $214 60.186162907803578 $203 $324 forward 7 unknown #
coedge $-1 $126 $315 $319 $325 forward $212 $-1 #
loop $-1 $-1 $205 $306 #
vertex $-1 $209 $326 #
vertex $-1 $127 $327 #
straight-curve $-1 60.186162907803578 -14.39000363901922 9.5049882470536335 0 1 0 I I #
face $-1 $328 $329 $29 $-1 $330 reversed single #
loop $-1 $-1 $134 $128 #
plane-surface $-1 60.186162907803578 0 0 -1 0 0 0 0 1 forward_v I I I I #
coedge $-1 $331 $227 $332 $333 reversed $129 $-1 #
coedge $-1 $334 $131 $331 $335 forward $81 $-1 #
coedge $-1 $131 $334 $336 $337 reversed $81 $-1 #
coedge $-1 $230 $229 $131 $223 forward $217 $-1 #
edge $-1 $338 5.6843197728132182 $339 23.598185127608353 $222 $340 forward 7 unknown #
coedge $-1 $133 $132 $341 $342 reversed $52 $-1 #
coedge $-1 $343 $344 $132 $226 forward $345 $-1 #
edge $-1 $346 -60.186162907803578 $231 60.186162907803578 $225 $347 forward 7 unknown #
coedge $-1 $219 $348 $133 $228 reversed $129 $-1 #
edge $-1 $349 -60.186162907803578 $232 60.186162907803578 $227 $350 forward 7 unknown #
coedge $-1 $222 $134 $348 $351 forward $217 $-1 #
coedge $-1 $134 $222 $343 $352 reversed $217 $-1 #
vertex $-1 $352 $353 #
vertex $-1 $135 $354 #
straight-curve $-1 60.186162907803578 14.641252450210786 0.1005258241267164 0 -1 0 I I #
face $-1 $-1 $355 $30 $-1 $356 forward single #
loop $-1 $-1 $142 $136 #
plane-surface $-1 -60.186162907803578 0 0 1 0 0 0 0 -1 forward_v I I I I #
coedge $-1 $357 $358 $359 $360 reversed $137 $-1 #
coedge $-1 $361 $139 $141 $244 forward $85 $-1 #
coedge $-1 $139 $361 $357 $362 forward $85 $-1 #
coedge $-1 $359 $142 $139 $241 forward $235 $-1 #
edge $-1 $247 -12.029408905263448 $363 -4.5629177302576487 $240 $364 forward 7 unknown #
coedge $-1 $365 $366 $140 $243 forward $355 $-1 #
edge $-1 $367 -9.7682143982948872 $246 -0.90508443870527344 $242 $368 forward 7 unknown #
edge $-1 $247 -7.9203227973758348e-015 $367 10.340023464375996 $141 $369 forward 7 unknown #
coedge $-1 $142 $359 $365 $370 reversed $235 $-1 #
vertex $-1 $370 $371 #
vertex $-1 $143 $372 #
straight-curve $-1 -60.186162907803578 20.325572223023997 56.162206881310041 0 0 -1 I I #
coedge $-1 $249 $249 $-1 $373 reversed $146 $-1 #
edge $-1 $374 0 $374 6.2831853071796004 $147 $375 forward 7 unknown #
vertex $-1 $150 $376 #
ellipse-curve $-1 -55.754597928008771 14.992364240876995 11.807945584778869 -0.51503808176128008 0 0.85716729658548041 0.4285836482927402 0 0.25751904088064004 1 I I #
coedge $-1 $253 $253 $-1 $377 reversed $153 $-1 #
edge $-1 $378 0 $378 6.2831853071796004 $154 $379 forward 7 unknown #
vertex $-1 $157 $380 #
ellipse-curve $-1 -55.754597928008771 18.192289030165199 11.807945584778869 -0.51503808176128008 0 0.85716729658548041 0.4285836482927402 0 0.25751904088064004 1 I I #
face $-1 $-1 $381 $33 $-1 $382 reversed single #
loop $-1 $-1 $383 $158 #
plane-surface $-1 0 -19.320576978257748 11.987843378530961 0 -1 0 0 0 -1 forward_v I I I I #
coedge $-1 $384 $161 $163 $266 forward $99 $-1 #
coedge $-1 $161 $384 $383 $385 forward $99 $-1 #
coedge $-1 $386 $164 $161 $263 forward $159 $-1 #
edge $-1 $269 2.4290318661832639 $387 12.070707363444077 $262 $388 forward 7 unknown #
coedge $-1 $389 $390 $162 $265 forward $381 $-1 #
edge $-1 $391 -83.541293122448096 $268 -72.194256919175373 $264 $392 forward 7 unknown #
edge $-1 $269 104.03762583571277 $391 120.37232581560713 $163 $393 forward 7 unknown #
coedge $-1 $164 $386 $389 $394 forward $159 $-1 #
vertex $-1 $165 $395 #
vertex $-1 $165 $396 #
straight-curve $-1 28.60760185983829 -9.6789014809969345 14.47069851000829 -1 0 0 I I #
coedge $-1 $271 $271 $-1 $397 reversed $168 $-1 #
edge $-1 $398 0 $398 6.2831853071796004 $169 $399 forward 7 unknown #
vertex $-1 $172 $400 #
ellipse-curve $-1 54.311063061103546 -16.565812550468944 8.7971804083719221 0.69465837861970381 0 0.71933979245794832 0.71933979245794832 0 -0.69465837861970381 1 I I #
coedge $-1 $275 $275 $-1 $401 reversed $175 $-1 #
edge $-1 $402 0 $402 6.2831853071796004 $176 $403 forward 7 unknown #
vertex $-1 $179 $404 #
ellipse-curve $-1 54.311063061103546 -12.433665908785741 8.7971804083719221 0.69465837861970381 0 0.71933979245794832 0.71933979245794832 0 -0.69465837861970381 1 I I #
face $-1 $-1 $195 $27 $-1 $405 reversed single #
loop $-1 $-1 $295 $180 #
plane-surface $-1 0 38.239437577819132 0 0 -1 0 0 0 -1 forward_v I I I I #
coedge $-1 $406 $293 $296 $407 forward $181 $-1 #
coedge $-1 $299 $183 $184 $287 reversed $113 $-1 #
coedge $-1 $293 $406 $183 $285 reversed $181 $-1 #
edge $-1 $300 -14.47069851000829 $408 14.47069851000829 $284 $409 forward 7 unknown #
coedge $-1 $185 $184 $406 $410 forward $73 $-1 #
edge $-1 $291 -60.186162907803578 $408 60.186162907803578 $283 $411 forward 7 unknown #
coedge $-1 $296 $295 $185 $289 reversed $280 $-1 #
edge $-1 $412 -60.186162907803578 $290 60.186162907803578 $288 $413 forward 7 unknown #
vertex $-1 $187 $414 #
vertex $-1 $302 $415 #
straight-curve $-1 60.186162907803578 0 -14.47069851000829 0 -1 0 I I #
coedge $-1 $282 $284 $188 $294 reversed $181 $-1 #
edge $-1 $297 -38.239437577819132 $300 38.239437577819132 $293 $416 forward 7 unknown #
coedge $-1 $288 $189 $194 $303 forward $280 $-1 #
coedge $-1 $189 $288 $282 $407 reversed $280 $-1 #
vertex $-1 $190 $417 #
straight-curve $-1 0 38.239437577819132 14.47069851000829 -1 0 0 I I #
coedge $-1 $191 $283 $193 $302 reversed $113 $-1 #
vertex $-1 $294 $418 #
straight-curve $-1 0 -38.239437577819132 14.47069851000829 1 0 0 I I #
edge $-1 $196 -14.47069851000829 $291 14.47069851000829 $193 $419 forward 7 unknown #
edge $-1 $197 -14.47069851000829 $290 14.47069851000829 $194 $420 forward 7 unknown #
point $-1 60.186162907803578 -38.239437577819132 14.47069851000829 #
point $-1 60.186162907803578 38.239437577819132 14.47069851000829 #
face $-1 $-1 $212 $28 $-1 $421 reversed single #
loop $-1 $-1 $313 $199 #
plane-surface $-1 0 0 14.47069851000829 0 0 1 1 0 0 forward_v I I I I #
coedge $-1 $422 $202 $207 $318 forward $121 $-1 #
coedge $-1 $202 $422 $423 $424 reversed $121 $-1 #
coedge $-1 $204 $203 $202 $312 reversed $77 $-1 #
edge $-1 $425 -8.476776820742808 $323 -3.511066557788153 $202 $426 forward 7 unknown #
coedge $-1 $423 $427 $204 $314 forward $307 $-1 #
edge $-1 $316 -60.186162907803578 $425 60.186162907803578 $313 $428 forward 7 unknown #
coedge $-1 $211 $205 $427 $429 reversed $212 $-1 #
vertex $-1 $206 $430 #
straight-curve $-1 60.186162907803578 -19.320576978257748 5.9939216892654805 0 0 1 I I #
edge $-1 $323 4.9305733392385278 $321 23.849433938799912 $309 $431 forward 7 unknown #
coedge $-1 $432 $208 $211 $325 reversed $200 $-1 #
coedge $-1 $208 $432 $422 $433 forward $200 $-1 #
vertex $-1 $209 $434 #
straight-curve $-1 0 -38.239437577819132 9.5049882470536335 1 0 0 I I #
vertex $-1 $318 $435 #
straight-curve $-1 0 -19.320576978257748 9.5049882470536335 1 0 0 I I #
edge $-1 $436 -14.47069851000829 $213 -9.5049882470536335 $211 $437 forward 7 unknown #
point $-1 60.186162907803578 -38.239437577819132 9.5049882470536335 #
point $-1 60.186162907803578 -19.320576978257748 9.5049882470536335 #
face $-1 $-1 $345 $29 $-1 $438 reversed single #
loop $-1 $-1 $341 $216 #
plane-surface $-1 -60.186162907803578 0 0 1 0 0 0 0 -1 forward_v I I I I #
coedge $-1 $348 $219 $220 $335 reversed $129 $-1 #
coedge $-1 $341 $439 $219 $333 forward $329 $-1 #
edge $-1 $440 -3.5557086754742615 $349 1.2522534412425648 $332 $441 forward 7 unknown #
coedge $-1 $221 $220 $439 $442 reversed $81 $-1 #
edge $-1 $338 -60.186162907803578 $440 60.186162907803578 $331 $443 forward 7 unknown #
coedge $-1 $344 $343 $221 $337 forward $345 $-1 #
edge $-1 $339 -60.186162907803578 $444 60.186162907803578 $336 $445 forward 7 unknown #
vertex $-1 $223 $446 #
vertex $-1 $337 $447 #
straight-curve $-1 60.186162907803578 14.641252450210786 -4.7074362925901099 0 1 0 I I #
coedge $-1 $448 $332 $224 $342 forward $329 $-1 #
edge $-1 $349 5.6843197728132182 $346 23.598185127608353 $341 $449 forward 7 unknown #
coedge $-1 $336 $225 $230 $352 forward $345 $-1 #
coedge $-1 $225 $336 $448 $450 reversed $345 $-1 #
loop $-1 $-1 $225 $328 #
vertex $-1 $450 $451 #
straight-curve $-1 0 38.239437577819132 0.1005258241267164 1 0 0 I I #
coedge $-1 $227 $331 $229 $351 reversed $129 $-1 #
vertex $-1 $342 $452 #
straight-curve $-1 0 20.325572223024004 0.1005258241267164 1 0 0 I I #
edge $-1 $232 -1.2522534412425648 $338 3.5557086754742615 $229 $453 forward 7 unknown #
edge $-1 $231 -0.1005258241267164 $339 4.7074362925901099 $230 $454 forward 7 unknown #
point $-1 60.186162907803578 38.239437577819139 0.1005258241267164 #
point $-1 60.186162907803578 20.325572223024004 0.1005258241267164 #
loop $-1 $-1 $242 $234 #
plane-surface $-1 0 0 14.47069851000829 0 0 1 1 0 0 forward_v I I I I #
coedge $-1 $358 $237 $239 $362 reversed $137 $-1 #
coedge $-1 $237 $357 $455 $456 reversed $137 $-1 #
coedge $-1 $245 $240 $237 $360 forward $235 $-1 #
edge $-1 $363 -47.01701422176059 $457 -41.691508371301751 $359 $458 forward 7 unknown #
coedge $-1 $239 $238 $366 $459 reversed $85 $-1 #
edge $-1 $460 -10.340023464375996 $363 7.9203227973758348e-015 $357 $461 forward 7 unknown #
vertex $-1 $241 $462 #
straight-curve $-1 -60.186162907803578 8.2961633177605485 9.1451926595494495 0 -1 0 I I #
coedge $-1 $455 $242 $245 $370 forward $355 $-1 #
coedge $-1 $242 $455 $361 $459 forward $355 $-1 #
vertex $-1 $243 $463 #
straight-curve $-1 -61.091247346508851 20.325572223023997 14.47069851000829 -1 0 0 I I #
straight-curve $-1 -60.18616290780357 20.325572223023997 9.1451926595494513 0.85716729658548041 0 0.51503808176128008 I I #
edge $-1 $246 -20.325572223023997 $457 -12.859081048018197 $245 $464 forward 7 unknown #
point $-1 -60.186162907803578 20.325572223023997 14.47069851000829 #
point $-1 -60.186162907803578 20.325572223023997 9.1451926595494477 #
edge $-1 $465 1 $465 0 $249 $-1 forward 7 unknown #
vertex $-1 $250 $466 #
ellipse-curve $-1 -55.122954419765172 14.992364240876995 10.756714272881657 -0.51503808176128008 0 0.85716729658548041 0.4285836482927402 0 0.25751904088064004 1 I I #
point $-1 -55.326014279716027 14.992364240876995 12.065464625659507 #
edge $-1 $467 1 $467 0 $253 $-1 forward 7 unknown #
vertex $-1 $254 $468 #
ellipse-curve $-1 -55.122954419765172 18.192289030165199 10.756714272881657 -0.51503808176128008 0 0.85716729658548041 0.4285836482927402 0 0.25751904088064004 1 I I #
point $-1 -55.326014279716027 18.192289030165199 12.065464625659507 #
loop $-1 $-1 $264 $257 #
plane-surface $-1 60.186162907803578 0 0 -1 0 0 0 0 1 forward_v I I I I #
coedge $-1 $469 $470 $261 $385 reversed $258 $-1 #
coedge $-1 $261 $260 $390 $471 reversed $99 $-1 #
edge $-1 $472 -120.37232581560713 $387 -104.03762583571277 $383 $473 forward 7 unknown #
coedge $-1 $267 $262 $470 $474 forward $159 $-1 #
vertex $-1 $474 $475 #
straight-curve $-1 48.4359632144035 -7.2498696148136705 14.47069851000829 0 -1 0 I I #
coedge $-1 $476 $264 $267 $394 reversed $381 $-1 #
coedge $-1 $264 $476 $384 $471 forward $381 $-1 #
vertex $-1 $265 $477 #
straight-curve $-1 60.186162907803578 -9.6789014809969345 86.664955429183664 0 0 1 I I #
straight-curve $-1 -26.402440962075801 -9.6789014809969345 86.741306988487935 0.71933979245794832 0 -0.69465837861970381 I I #
edge $-1 $478 -19.320576978257748 $268 -9.6789014809969345 $389 $479 forward 7 unknown #
point $-1 60.186162907803578 -9.6789014809969345 14.47069851000829 #
point $-1 48.435963214403515 -9.6789014809969345 14.47069851000829 #
edge $-1 $480 1 $480 0 $271 $-1 forward 7 unknown #
vertex $-1 $272 $481 #
ellipse-curve $-1 51.977183052440417 -16.565812550468944 6.3803769655207763 0.69465837861970381 0 0.71933979245794832 0.71933979245794832 0 -0.69465837861970381 1 I I #
point $-1 55.03040285356149 -16.565812550468944 8.1025220297522047 #
edge $-1 $482 1 $482 0 $275 $-1 forward 7 unknown #
vertex $-1 $276 $483 #
ellipse-curve $-1 51.977183052440417 -12.433665908785741 6.3803769655207763 0.69465837861970381 0 0.71933979245794832 0.71933979245794832 0 -0.69465837861970381 1 I I #
point $-1 55.03040285356149 -12.433665908785741 8.1025220297522047 #
plane-surface $-1 60.186162907803578 0 0 -1 0 0 0 0 1 forward_v I I I I #
coedge $-1 $284 $282 $286 $410 reversed $181 $-1 #
edge $-1 $297 -14.47069851000829 $412 14.47069851000829 $296 $484 forward 7 unknown #
vertex $-1 $410 $485 #
straight-curve $-1 -60.186162907803578 -38.239437577819132 0 0 0 -1 I I #
edge $-1 $408 -38.239437577819132 $412 38.239437577819132 $406 $486 forward 7 unknown #
straight-curve $-1 0 -38.239437577819132 -14.47069851000829 -1 0 0 I I #
vertex $-1 $289 $487 #
straight-curve $-1 0 38.239437577819132 -14.47069851000829 1 0 0 I I #
point $-1 60.186162907803578 38.239437577819132 -14.47069851000829 #
point $-1 60.186162907803578 -38.239437577819132 -14.47069851000829 #
straight-curve $-1 -60.186162907803578 0 14.47069851000829 0 -1 0 I I #
point $-1 -60.186162907803578 38.239437577819132 14.47069851000829 #
point $-1 -60.186162907803578 -38.239437577819132 14.47069851000829 #
straight-curve $-1 60.186162907803578 -38.239437577819132 0 0 0 -1 I I #
straight-curve $-1 60.186162907803578 38.239437577819132 0 0 0 -1 I I #
plane-surface $-1 60.186162907803578 0 0 -1 0 0 0 0 1 forward_v I I I I #
coedge $-1 $310 $309 $320 $433 reversed $121 $-1 #
coedge $-1 $488 $313 $310 $424 forward $307 $-1 #
edge $-1 $425 19.320576978257748 $489 38.239437577819132 $310 $490 forward 7 unknown #
vertex $-1 $424 $491 #
straight-curve $-1 -60.186162907803578 -19.320576978257748 5.9939216892654805 0 0 -1 I I #
coedge $-1 $313 $488 $315 $429 forward $307 $-1 #
straight-curve $-1 0 -19.320576978257748 14.47069851000829 -1 0 0 I I #
edge $-1 $436 -38.239437577819132 $316 -19.320576978257748 $315 $492 forward 7 unknown #
point $-1 60.186162907803578 -19.320576978257748 14.470698510008289 #
straight-curve $-1 -60.186162907803578 -14.39000363901922 9.5049882470536335 0 -1 0 I I #
coedge $-1 $320 $319 $488 $493 reversed $200 $-1 #
edge $-1 $489 -14.47069851000829 $321 -9.5049882470536335 $422 $494 forward 7 unknown #
point $-1 -60.186162907803578 -38.239437577819132 9.5049882470536335 #
point $-1 -60.186162907803578 -19.320576978257748 9.5049882470536335 #
vertex $-1 $429 $495 #
straight-curve $-1 60.186162907803578 -38.239437577819132 0 0 0 -1 I I #
plane-surface $-1 0 38.239437577819132 0 0 -1 0 0 0 -1 forward_v I I I I #
coedge $-1 $332 $448 $334 $442 forward $329 $-1 #
vertex $-1 $442 $496 #
straight-curve $-1 -60.186162907803578 20.325572223024004 -1.1517276171158484 0 0 1 I I #
edge $-1 $444 -23.598185127608353 $440 -5.6843197728132182 $439 $497 forward 7 unknown #
straight-curve $-1 0 20.325572223024004 -4.7074362925901099 -1 0 0 I I #
vertex $-1 $337 $498 #
straight-curve $-1 0 38.239437577819132 -4.7074362925901099 -1 0 0 I I #
point $-1 60.186162907803578 20.325572223024004 -4.7074362925901099 #
point $-1 60.186162907803578 38.239437577819139 -4.7074362925901099 #
coedge $-1 $439 $341 $344 $450 forward $329 $-1 #
straight-curve $-1 -60.186162907803578 14.641252450210786 0.1005258241267164 0 1 0 I I #
edge $-1 $346 -0.1005258241267164 $444 4.7074362925901099 $344 $499 forward 7 unknown #
point $-1 -60.186162907803578 38.239437577819139 0.1005258241267164 #
point $-1 -60.186162907803578 20.325572223024004 0.1005258241267164 #
straight-curve $-1 60.186162907803578 20.325572223024004 -1.1517276171158484 0 0 -1 I I #
straight-curve $-1 60.186162907803578 38.239437577819132 0 0 0 -1 I I #
coedge $-1 $366 $365 $358 $456 forward $355 $-1 #
edge $-1 $457 0.90508443870527344 $460 9.7682143982948872 $455 $500 forward 7 unknown #
vertex $-1 $456 $501 #
straight-curve $-1 -60.186162907803578 12.859081048018197 56.162206881310041 0 0 1 I I #
edge $-1 $460 4.5629177302576487 $367 12.029408905263448 $366 $502 forward 7 unknown #
vertex $-1 $459 $503 #
straight-curve $-1 -60.18616290780357 12.859081048018197 9.1451926595494513 -0.85716729658548041 0 -0.51503808176128008 I I #
point $-1 -60.186162907803578 12.859081048018197 9.1451926595494477 #
point $-1 -51.323032948213964 20.325572223023997 14.47069851000829 #
straight-curve $-1 -60.186162907803578 0 14.47069851000829 0 -1 0 I I #
vertex $-1 $373 $504 #
point $-1 -54.694370771472435 14.992364240876995 11.014233313762297 #
vertex $-1 $377 $505 #
point $-1 -54.694370771472435 18.192289030165199 11.014233313762297 #
coedge $-1 $470 $383 $476 $506 reversed $258 $-1 #
coedge $-1 $383 $469 $386 $474 reversed $258 $-1 #
edge $-1 $472 -12.070707363444077 $391 -2.4290318661832639 $390 $507 forward 7 unknown #
vertex $-1 $506 $508 #
straight-curve $-1 -26.402440962075801 -19.320576978257748 86.741306988487935 -0.71933979245794832 0 0.69465837861970381 I I #
edge $-1 $387 48.435963214403507 $478 60.186162907803578 $386 $509 forward 7 unknown #
point $-1 48.435963214403507 -19.320576978257748 14.47069851000829 #
coedge $-1 $390 $389 $469 $506 forward $381 $-1 #
point $-1 60.186162907803578 -9.6789014809969345 3.123662306735568 #
vertex $-1 $394 $510 #
straight-curve $-1 60.186162907803578 0 14.47069851000829 0 1 0 I I #
vertex $-1 $397 $511 #
point $-1 52.696522844898361 -16.565812550468944 5.6857185869010731 #
vertex $-1 $401 $512 #
point $-1 52.696522844898361 -12.433665908785741 5.6857185869010731 #
straight-curve $-1 -60.186162907803578 38.239437577819132 0 0 0 -1 I I #
point $-1 -60.186162907803578 -38.239437577819132 -14.47069851000829 #
straight-curve $-1 -60.186162907803578 0 -14.47069851000829 0 1 0 I I #
point $-1 -60.186162907803578 38.239437577819132 -14.47069851000829 #
coedge $-1 $427 $423 $432 $493 forward $307 $-1 #
vertex $-1 $424 $513 #
straight-curve $-1 -60.186162907803578 0 14.47069851000829 0 -1 0 I I #
point $-1 -60.186162907803578 -19.320576978257748 14.470698510008289 #
straight-curve $-1 60.186162907803578 0 14.47069851000829 0 1 0 I I #
edge $-1 $489 -60.186162907803578 $436 60.186162907803578 $432 $514 forward 7 unknown #
straight-curve $-1 -60.186162907803578 -38.239437577819132 0 0 0 -1 I I #
point $-1 60.186162907803578 -38.239437577819132 14.47069851000829 #
point $-1 -60.186162907803578 20.325572223024004 -4.7074362925901099 #
straight-curve $-1 -60.186162907803578 14.641252450210786 -4.7074362925901099 0 -1 0 I I #
point $-1 -60.186162907803578 38.239437577819139 -4.7074362925901099 #
straight-curve $-1 -60.186162907803578 38.239437577819132 0 0 0 -1 I I #
straight-curve $-1 -61.091247346508851 12.859081048018197 14.47069851000829 1 0 0 I I #
point $-1 -60.186162907803578 12.859081048018197 14.47069851000829 #
straight-curve $-1 -51.323032948213964 8.2961633177605485 14.47069851000829 0 1 0 I I #
point $-1 -51.323032948213964 12.859081048018197 14.47069851000829 #
point $-1 -54.865435378884534 14.992364240876995 10.328130624588917 #
point $-1 -54.865435378884534 18.192289030165199 10.328130624588917 #
edge $-1 $478 72.194256919175373 $472 83.541293122448096 $476 $515 forward 7 unknown #
straight-curve $-1 60.186162907803578 -7.2498696148136705 3.123662306735568 0 1 0 I I #
point $-1 60.186162907803578 -19.320576978257748 3.123662306735568 #
straight-curve $-1 0 -19.320576978257748 14.47069851000829 1 0 0 I I #
point $-1 60.186162907803578 -19.320576978257748 14.470698510008289 #
point $-1 51.28252467382071 -16.565812550468944 5.6610371730628284 #
point $-1 51.28252467382071 -12.433665908785741 5.6610371730628284 #
point $-1 -60.186162907803578 -38.239437577819132 14.47069851000829 #
straight-curve $-1 0 -38.239437577819132 14.47069851000829 1 0 0 I I #
straight-curve $-1 60.186162907803578 -19.320576978257748 86.664955429183664 0 0 -1 I I #
End-of-ACIS-data 