500 0 8 0           
7 Unknown 11 ACIS 5.0 NT 24 Thu Mar 25 23:56:40 1999 
-1 9.9999999999999995e-007 1e-010 
body $-1 $8 $-1 $9 #
body $-1 $10 $-1 $11 #
body $-1 $12 $-1 $13 #
body $-1 $14 $-1 $15 #
body $-1 $16 $-1 $17 #
body $-1 $18 $-1 $19 #
body $-1 $20 $-1 $21 #
body $-1 $22 $-1 $23 #
lump $-1 $-1 $24 $0 #
transform $-1 1 0 0 0 1 0 0 0 1 68.531144138920254 32.087516907062856 8.2401080283874357 1 rotate no_reflect no_shear #
lump $-1 $-1 $25 $1 #
transform $-1 1 0 0 0 1 0 0 0 1 68.531144138920254 32.087516907062856 8.2401080283874357 1 rotate no_reflect no_shear #
lump $-1 $-1 $26 $2 #
transform $-1 1 0 0 0 1 0 0 0 1 68.531144138920254 32.087516907062856 8.2401080283874357 1 rotate no_reflect no_shear #
lump $-1 $-1 $27 $3 #
transform $-1 1 0 0 0 1 0 0 0 1 68.531144138920254 32.087516907062856 8.2401080283874357 1 rotate no_reflect no_shear #
lump $-1 $-1 $28 $4 #
transform $-1 1 0 0 0 1 0 0 0 1 68.531144138920254 32.087516907062856 8.2401080283874357 1 rotate no_reflect no_shear #
lump $-1 $-1 $29 $5 #
transform $-1 1 0 0 0 1 0 0 0 1 68.531144138920254 32.087516907062856 8.2401080283874357 1 rotate no_reflect no_shear #
lump $-1 $-1 $30 $6 #
transform $-1 1 0 0 0 1 0 0 0 1 68.531144138920254 32.087516907062856 8.2401080283874357 1 rotate no_reflect no_shear #
lump $-1 $-1 $31 $7 #
transform $-1 1 0 0 0 1 0 0 0 1 68.531144138920254 32.087516907062856 8.2401080283874357 1 rotate no_reflect no_shear #
shell $-1 $-1 $-1 $32 $-1 $8 #
shell $-1 $-1 $-1 $33 $-1 $10 #
shell $-1 $-1 $-1 $34 $-1 $12 #
shell $-1 $-1 $-1 $35 $-1 $14 #
shell $-1 $-1 $-1 $36 $-1 $16 #
shell $-1 $-1 $-1 $37 $-1 $18 #
shell $-1 $-1 $-1 $38 $-1 $20 #
shell $-1 $-1 $-1 $39 $-1 $22 #
face $-1 $40 $41 $24 $-1 $42 forward single #
face $-1 $43 $44 $25 $-1 $45 reversed single #
face $-1 $46 $47 $26 $-1 $48 reversed single #
face $-1 $49 $50 $27 $-1 $51 reversed single #
face $-1 $52 $53 $28 $-1 $54 forward single #
face $-1 $55 $56 $29 $-1 $57 reversed single #
face $-1 $58 $59 $30 $-1 $60 forward single #
face $-1 $61 $62 $31 $-1 $63 forward single #
face $-1 $64 $65 $24 $-1 $66 reversed single #
loop $-1 $-1 $67 $32 #
plane-surface $-1 0 0 8.2401080283874357 0 0 1 1 0 0 forward_v I I I I #
face $-1 $68 $69 $25 $-1 $70 reversed single #
loop $-1 $-1 $71 $33 #
plane-surface $-1 -64.416564753217941 0 5.2401080283874357 0 0 1 1 0 0 forward_v I I I I #
face $-1 $72 $73 $26 $-1 $74 reversed single #
loop $-1 $-1 $75 $34 #
plane-surface $-1 64.416564753217941 0 5.2401080283874357 0 0 1 1 0 0 forward_v I I I I #
face $-1 $76 $77 $27 $-1 $78 reversed single #
loop $-1 $-1 $79 $35 #
plane-surface $-1 24.973969610624536 109.83108205574584 130.73740862172073 1 0 0 0 -0.82903758062907751 -0.55919289150049634 forward_v I I I I #
face $-1 $80 $81 $28 $-1 $82 forward single #
loop $-1 $83 $84 $36 #
cone-surface $-1 42.637977489070082 28.749077155480098 3.9851578550437643 0 -0.82903758062907751 -0.55919289150049634 1 0 0 1 I I 0 1 1 forward I I I I #
face $-1 $85 $86 $29 $-1 $87 reversed single #
loop $-1 $-1 $88 $37 #
plane-surface $-1 26.865934347964107 -116.47148857792575 111.36920011476059 -1 0 0 0 -0.61566148304635926 0.78801074757464917 forward_v I I I I #
face $-1 $89 $90 $30 $-1 $91 forward single #
loop $-1 $92 $93 $38 #
cone-surface $-1 5.3748619106793569 -28.309488774957227 4.9609746409548308 0 0.61566148304635926 -0.78801074757464917 1.5 0 0 1 I I 0 1 1.5 forward I I I I #
face $-1 $94 $95 $31 $-1 $96 forward single #
loop $-1 $97 $98 $39 #
cone-surface $-1 18.269505373050208 -28.309488774957227 4.9609746409548308 0 0.61566148304635926 -0.78801074757464917 1.5 0 0 1 I I 0 1 1.5 forward I I I I #
face $-1 $99 $100 $24 $-1 $101 reversed single #
loop $-1 $-1 $102 $40 #
plane-surface $-1 0 0 -8.2401080283874357 0 0 1 1 0 0 forward_v I I I I #
coedge $-1 $103 $104 $105 $106 forward $41 $-1 #
face $-1 $107 $108 $25 $-1 $109 reversed single #
loop $-1 $-1 $110 $43 #
plane-surface $-1 -60.301985367515634 0 6.7401080283874357 -1 0 0 0 0 1 forward_v I I I I #
coedge $-1 $111 $112 $113 $114 forward $44 $-1 #
face $-1 $115 $116 $26 $-1 $117 forward single #
loop $-1 $-1 $118 $46 #
plane-surface $-1 60.301985367515627 0 6.7401080283874357 1 0 0 0 0 -1 forward_v I I I I #
coedge $-1 $119 $120 $121 $122 reversed $47 $-1 #
face $-1 $123 $124 $27 $-1 $125 forward single #
loop $-1 $-1 $126 $49 #
plane-surface $-1 42.637977489070082 -3.7987058136002219 54.093151323960512 0 0.82903758062907751 0.55919289150049634 1 0 0 forward_v I I I I #
coedge $-1 $127 $128 $129 $130 reversed $50 $-1 #
face $-1 $-1 $131 $28 $-1 $132 forward single #
loop $-1 $133 $134 $52 #
cone-surface $-1 42.637977489070082 27.475096342545868 3.1258469731893221 0 -0.82903758062907751 -0.55919289150049634 0.5 0 0 1 I I -0.70710678118654746 0.70710678118654746 0.5 forward I I I I #
loop $-1 $-1 $135 $36 #
coedge $-1 $84 $84 $136 $137 reversed $53 $-1 #
face $-1 $138 $139 $29 $-1 $140 reversed single #
loop $-1 $-1 $141 $55 #
plane-surface $-1 11.822183641864783 -32.087516907062849 3.3626438646474099 0 -0.61566148304635926 0.78801074757464917 1 0 0 forward_v I I I I #
coedge $-1 $142 $143 $144 $145 reversed $56 $-1 #
face $-1 $-1 $146 $30 $-1 $147 forward single #
loop $-1 $148 $149 $58 #
cone-surface $-1 5.3748619106793569 -27.191149188878807 3.5295652747112385 0 0.61566148304635926 -0.78801074757464917 0.75 0 0 1 I I -0.70710678118654757 0.70710678118654757 0.75 forward I I I I #
loop $-1 $-1 $150 $38 #
coedge $-1 $93 $93 $151 $152 reversed $59 $-1 #
face $-1 $-1 $153 $31 $-1 $154 forward single #
loop $-1 $155 $156 $61 #
cone-surface $-1 18.269505373050208 -27.191149188878807 3.5295652747112385 0 0.61566148304635926 -0.78801074757464917 0.75 0 0 1 I I -0.70710678118654757 0.70710678118654757 0.75 forward I I I I #
loop $-1 $-1 $157 $39 #
coedge $-1 $98 $98 $158 $159 reversed $62 $-1 #
face $-1 $160 $161 $24 $-1 $162 reversed single #
loop $-1 $-1 $163 $64 #
plane-surface $-1 0 -32.087516907062856 0 0 1 0 0 0 1 forward_v I I I I #
coedge $-1 $164 $165 $166 $167 forward $65 $-1 #
coedge $-1 $168 $67 $169 $170 forward $41 $-1 #
coedge $-1 $67 $168 $171 $172 forward $41 $-1 #
coedge $-1 $173 $174 $67 $106 reversed $175 $-1 #
edge $-1 $176 -32.087516907062856 $177 32.087516907062856 $105 $178 forward 7 unknown #
face $-1 $179 $180 $25 $-1 $181 reversed single #
loop $-1 $-1 $182 $68 #
plane-surface $-1 0 32.087516907062856 0 0 -1 0 0 0 -1 forward_v I I I I #
coedge $-1 $113 $183 $184 $185 reversed $69 $-1 #
coedge $-1 $186 $71 $187 $188 reversed $44 $-1 #
coedge $-1 $71 $186 $189 $190 reversed $44 $-1 #
coedge $-1 $191 $110 $71 $114 reversed $69 $-1 #
edge $-1 $192 -32.087516907062856 $193 32.087516907062856 $113 $194 forward 7 unknown #
face $-1 $195 $196 $26 $-1 $197 reversed single #
loop $-1 $-1 $198 $72 #
plane-surface $-1 0 0 8.2401080283874357 0 0 1 1 0 0 forward_v I I I I #
coedge $-1 $199 $200 $201 $202 reversed $73 $-1 #
coedge $-1 $203 $75 $204 $205 reversed $47 $-1 #
coedge $-1 $75 $203 $206 $207 reversed $47 $-1 #
coedge $-1 $208 $209 $75 $122 forward $210 $-1 #
edge $-1 $211 -32.087516907062856 $212 32.087516907062856 $121 $213 forward 7 unknown #
face $-1 $214 $215 $27 $-1 $216 forward single #
loop $-1 $-1 $129 $76 #
plane-surface $-1 0 0 8.2401080283874357 0 0 1 1 0 0 forward_v I I I I #
coedge $-1 $217 $218 $219 $220 reversed $77 $-1 #
coedge $-1 $128 $79 $221 $222 reversed $50 $-1 #
coedge $-1 $79 $127 $217 $223 reversed $50 $-1 #
coedge $-1 $219 $224 $79 $130 forward $124 $-1 #
edge $-1 $225 22.828024120810063 $226 27.785979578736178 $129 $227 forward 7 unknown #
loop $-1 $-1 $136 $80 #
plane-surface $-1 42.637977489070082 -3.7987058136002219 54.093151323960512 0 0.82903758062907751 0.55919289150049634 1 0 0 forward_v I I I I #
loop $-1 $-1 $228 $52 #
coedge $-1 $134 $134 $135 $229 reversed $81 $-1 #
coedge $-1 $135 $135 $134 $229 forward $83 $-1 #
coedge $-1 $136 $136 $84 $137 forward $131 $-1 #
edge $-1 $230 6.6704288995088982e-016 $230 6.2831853071796013 $136 $231 forward 7 unknown #
face $-1 $232 $233 $29 $-1 $234 forward single #
loop $-1 $-1 $235 $85 #
plane-surface $-1 -3.2215670642345415 -116.47148857792575 111.36920011476059 1 0 0 0 0.61566148304635926 -0.78801074757464917 forward_v I I I I #
coedge $-1 $236 $237 $238 $239 reversed $86 $-1 #
coedge $-1 $143 $88 $240 $241 reversed $56 $-1 #
coedge $-1 $88 $142 $236 $242 reversed $56 $-1 #
coedge $-1 $238 $243 $88 $145 forward $233 $-1 #
edge $-1 $244 26.148227381900021 $245 32.391096698524024 $144 $246 forward 7 unknown #
loop $-1 $-1 $151 $89 #
plane-surface $-1 11.822183641864783 -32.087516907062849 3.3626438646474099 0 -0.61566148304635926 0.78801074757464917 1 0 0 forward_v I I I I #
loop $-1 $-1 $247 $58 #
coedge $-1 $149 $149 $150 $248 reversed $90 $-1 #
coedge $-1 $150 $150 $149 $248 forward $92 $-1 #
coedge $-1 $151 $151 $93 $152 forward $146 $-1 #
edge $-1 $249 1.2835383907835738e-015 $249 6.2831853071796013 $151 $250 forward 7 unknown #
loop $-1 $-1 $158 $94 #
plane-surface $-1 11.822183641864783 -32.087516907062849 3.3626438646474099 0 -0.61566148304635926 0.78801074757464917 1 0 0 forward_v I I I I #
loop $-1 $-1 $251 $61 #
coedge $-1 $156 $156 $157 $252 reversed $95 $-1 #
coedge $-1 $157 $157 $156 $252 forward $97 $-1 #
coedge $-1 $158 $158 $98 $159 forward $153 $-1 #
edge $-1 $253 1.2835383907835738e-015 $253 6.2831853071796013 $158 $254 forward 7 unknown #
face $-1 $255 $256 $24 $-1 $257 reversed single #
loop $-1 $-1 $258 $99 #
plane-surface $-1 -68.531144138920254 0 0 1 0 0 0 0 -1 forward_v I I I I #
coedge $-1 $259 $171 $260 $261 forward $100 $-1 #
coedge $-1 $262 $102 $259 $263 forward $65 $-1 #
coedge $-1 $102 $262 $264 $265 forward $65 $-1 #
coedge $-1 $174 $173 $102 $167 reversed $175 $-1 #
edge $-1 $266 -32.087516907062856 $267 32.087516907062856 $166 $268 forward 7 unknown #
coedge $-1 $104 $103 $269 $270 forward $41 $-1 #
coedge $-1 $271 $272 $103 $170 reversed $256 $-1 #
edge $-1 $177 -68.531144138920254 $273 68.531144138920254 $169 $274 forward 7 unknown #
coedge $-1 $163 $275 $104 $172 reversed $100 $-1 #
edge $-1 $276 -68.531144138920254 $176 68.531144138920254 $171 $277 forward 7 unknown #
coedge $-1 $166 $105 $275 $278 forward $175 $-1 #
coedge $-1 $105 $166 $271 $279 reversed $175 $-1 #
loop $-1 $-1 $173 $255 #
vertex $-1 $106 $280 #
vertex $-1 $106 $281 #
straight-curve $-1 68.531144138920254 0 8.2401080283874357 0 1 0 I I #
face $-1 $282 $283 $25 $-1 $284 forward single #
loop $-1 $-1 $285 $107 #
plane-surface $-1 -68.531144138920254 0 0 1 0 0 0 0 -1 forward_v I I I I #
coedge $-1 $189 $286 $191 $287 forward $108 $-1 #
coedge $-1 $110 $191 $288 $289 reversed $69 $-1 #
coedge $-1 $290 $187 $110 $185 forward $291 $-1 #
edge $-1 $193 1.8700540141937179 $292 4.8700540141937179 $184 $293 forward 7 unknown #
coedge $-1 $112 $111 $285 $294 reversed $44 $-1 #
coedge $-1 $184 $295 $111 $188 forward $291 $-1 #
edge $-1 $296 -36.322861762311284 $193 -28.093702990906664 $187 $297 forward 7 unknown #
coedge $-1 $298 $182 $112 $190 forward $108 $-1 #
edge $-1 $192 28.093702990906664 $299 36.322861762311284 $189 $300 forward 7 unknown #
coedge $-1 $183 $113 $182 $287 reversed $69 $-1 #
vertex $-1 $190 $301 #
vertex $-1 $188 $302 #
straight-curve $-1 -60.301985367515634 0 5.2401080283874357 0 -1 0 I I #
face $-1 $303 $304 $26 $-1 $305 reversed single #
loop $-1 $-1 $306 $115 #
plane-surface $-1 0 -32.087516907062856 0 0 1 0 0 0 1 forward_v I I I I #
coedge $-1 $307 $308 $200 $309 forward $116 $-1 #
coedge $-1 $310 $118 $203 $311 reversed $73 $-1 #
coedge $-1 $118 $310 $198 $309 reversed $73 $-1 #
coedge $-1 $312 $206 $118 $202 forward $304 $-1 #
edge $-1 $313 1.8700540141937179 $314 4.8700540141937179 $201 $315 forward 7 unknown #
coedge $-1 $120 $119 $199 $311 forward $47 $-1 #
coedge $-1 $316 $306 $119 $205 forward $196 $-1 #
edge $-1 $317 28.093702990906657 $211 36.322861762311284 $204 $318 forward 7 unknown #
coedge $-1 $201 $319 $120 $207 forward $304 $-1 #
edge $-1 $212 -36.322861762311284 $313 -28.093702990906657 $206 $320 forward 7 unknown #
coedge $-1 $321 $121 $319 $322 reversed $210 $-1 #
coedge $-1 $121 $321 $316 $323 forward $210 $-1 #
loop $-1 $-1 $121 $303 #
vertex $-1 $205 $324 #
vertex $-1 $122 $325 #
straight-curve $-1 68.531144138920254 0 5.2401080283874357 0 1 0 I I #
face $-1 $-1 $326 $27 $-1 $327 reversed single #
loop $-1 $-1 $328 $123 #
plane-surface $-1 60.301985367515627 0 6.7401080283874357 1 0 0 0 0 -1 forward_v I I I I #
coedge $-1 $329 $126 $128 $223 forward $77 $-1 #
coedge $-1 $126 $329 $328 $330 forward $77 $-1 #
coedge $-1 $331 $129 $126 $220 forward $124 $-1 #
edge $-1 $226 3.6549808660894954 $332 38.982996622980586 $219 $333 forward 7 unknown #
coedge $-1 $334 $335 $127 $222 forward $326 $-1 #
edge $-1 $336 -64.479067756951864 $225 -57.128596282472927 $221 $337 forward 7 unknown #
edge $-1 $226 55.308763277992263 $336 64.175033814125698 $128 $338 forward 7 unknown #
coedge $-1 $129 $331 $334 $339 forward $124 $-1 #
vertex $-1 $222 $340 #
vertex $-1 $130 $341 #
straight-curve $-1 24.973969610624536 54.915541027872919 8.2401080283874393 0 -1 0 I I #
coedge $-1 $228 $228 $-1 $342 reversed $133 $-1 #
edge $-1 $343 0 $343 6.2831853071796004 $134 $344 forward 7 unknown #
vertex $-1 $137 $345 #
ellipse-curve $-1 42.637977489070082 29.6085391780998 4.5648722911479656 0 0.82903758062907751 0.55919289150049634 1 0 0 1 I I #
face $-1 $-1 $346 $29 $-1 $347 reversed single #
loop $-1 $-1 $144 $138 #
plane-surface $-1 0 0 8.2401080283874357 0 0 1 1 0 0 forward_v I I I I #
coedge $-1 $348 $349 $350 $351 reversed $139 $-1 #
coedge $-1 $352 $141 $143 $242 forward $86 $-1 #
coedge $-1 $141 $352 $348 $353 forward $86 $-1 #
coedge $-1 $350 $144 $141 $239 forward $233 $-1 #
edge $-1 $245 -20.954842527031715 $354 9.1326588851669328 $238 $355 forward 7 unknown #
coedge $-1 $356 $357 $142 $241 forward $346 $-1 #
edge $-1 $358 -52.321956192732891 $244 -47.444492028992855 $240 $359 forward 7 unknown #
edge $-1 $245 -7.9223149377573652 $358 9.1534652039358102e-015 $143 $360 forward 7 unknown #
coedge $-1 $144 $350 $356 $361 forward $233 $-1 #
vertex $-1 $241 $362 #
vertex $-1 $145 $363 #
straight-curve $-1 26.865934347964107 -58.235744288962877 8.2401080283874322 0 1 0 I I #
coedge $-1 $247 $247 $-1 $364 reversed $148 $-1 #
edge $-1 $365 0 $365 6.2831853071796004 $149 $366 forward 7 unknown #
vertex $-1 $152 $367 #
ellipse-curve $-1 5.3748619106793569 -28.966082248750862 5.8013759465174157 0 -0.61566148304635926 0.78801074757464917 1.5 0 0 1 I I #
coedge $-1 $251 $251 $-1 $368 reversed $155 $-1 #
edge $-1 $369 0 $369 6.2831853071796004 $156 $370 forward 7 unknown #
vertex $-1 $159 $371 #
ellipse-curve $-1 18.269505373050208 -28.966082248750862 5.8013759465174157 0 -0.61566148304635926 0.78801074757464917 1.5 0 0 1 I I #
face $-1 $-1 $175 $24 $-1 $372 reversed single #
loop $-1 $-1 $271 $160 #
plane-surface $-1 0 32.087516907062856 0 0 -1 0 0 0 -1 forward_v I I I I #
coedge $-1 $373 $269 $272 $374 forward $161 $-1 #
coedge $-1 $275 $163 $164 $263 reversed $100 $-1 #
coedge $-1 $269 $373 $163 $261 reversed $161 $-1 #
edge $-1 $276 -8.2401080283874357 $375 8.2401080283874357 $260 $376 forward 7 unknown #
coedge $-1 $165 $164 $373 $377 forward $65 $-1 #
edge $-1 $267 -68.531144138920254 $375 68.531144138920254 $259 $378 forward 7 unknown #
coedge $-1 $272 $271 $165 $265 reversed $256 $-1 #
edge $-1 $379 -68.531144138920254 $266 68.531144138920254 $264 $380 forward 7 unknown #
vertex $-1 $167 $381 #
vertex $-1 $278 $382 #
straight-curve $-1 68.531144138920254 0 -8.2401080283874357 0 -1 0 I I #
coedge $-1 $258 $260 $168 $270 reversed $161 $-1 #
edge $-1 $273 -32.087516907062856 $276 32.087516907062856 $269 $383 forward 7 unknown #
coedge $-1 $264 $169 $174 $279 forward $256 $-1 #
coedge $-1 $169 $264 $258 $374 reversed $256 $-1 #
vertex $-1 $170 $384 #
straight-curve $-1 0 32.087516907062856 8.2401080283874357 -1 0 0 I I #
coedge $-1 $171 $259 $173 $278 reversed $100 $-1 #
vertex $-1 $270 $385 #
straight-curve $-1 0 -32.087516907062856 8.2401080283874357 1 0 0 I I #
edge $-1 $176 -8.2401080283874357 $267 8.2401080283874357 $173 $386 forward 7 unknown #
edge $-1 $177 -8.2401080283874357 $266 8.2401080283874357 $174 $387 forward 7 unknown #
point $-1 68.531144138920254 -32.087516907062856 8.2401080283874357 #
point $-1 68.531144138920254 32.087516907062856 8.2401080283874357 #
face $-1 $-1 $291 $25 $-1 $388 reversed single #
loop $-1 $-1 $288 $179 #
plane-surface $-1 0 0 8.2401080283874357 0 0 1 1 0 0 forward_v I I I I #
coedge $-1 $389 $390 $186 $294 forward $180 $-1 #
coedge $-1 $182 $298 $391 $392 reversed $108 $-1 #
edge $-1 $393 -4.8700540141937179 $192 -1.8700540141937179 $182 $394 forward 7 unknown #
coedge $-1 $391 $395 $183 $289 forward $283 $-1 #
edge $-1 $292 -32.087516907062856 $393 32.087516907062856 $288 $396 forward 7 unknown #
coedge $-1 $295 $184 $395 $397 reversed $291 $-1 #
loop $-1 $-1 $184 $282 #
vertex $-1 $185 $398 #
straight-curve $-1 -60.301985367515634 -32.087516907062856 3.3700540141937179 0 0 1 I I #
edge $-1 $299 -32.087516907062856 $296 32.087516907062856 $285 $399 forward 7 unknown #
coedge $-1 $187 $290 $389 $400 forward $291 $-1 #
vertex $-1 $294 $401 #
straight-curve $-1 -32.20828237660897 -32.087516907062856 5.2401080283874357 1 0 0 I I #
coedge $-1 $286 $189 $390 $402 reversed $108 $-1 #
vertex $-1 $294 $403 #
straight-curve $-1 -32.20828237660897 32.087516907062856 5.2401080283874357 -1 0 0 I I #
point $-1 -60.301985367515634 32.087516907062856 5.2401080283874357 #
point $-1 -60.301985367515634 -32.087516907062856 5.2401080283874357 #
face $-1 $-1 $210 $26 $-1 $404 reversed single #
loop $-1 $-1 $201 $195 #
plane-surface $-1 0 32.087516907062856 0 0 -1 0 0 0 -1 forward_v I I I I #
coedge $-1 $204 $405 $310 $406 forward $196 $-1 #
coedge $-1 $407 $198 $405 $408 forward $116 $-1 #
coedge $-1 $198 $407 $312 $409 forward $116 $-1 #
edge $-1 $314 -32.087516907062856 $410 32.087516907062856 $198 $411 forward 7 unknown #
coedge $-1 $200 $199 $306 $406 reversed $73 $-1 #
edge $-1 $317 -32.087516907062856 $313 32.087516907062856 $199 $412 forward 7 unknown #
coedge $-1 $319 $201 $308 $409 reversed $304 $-1 #
vertex $-1 $207 $413 #
vertex $-1 $202 $414 #
straight-curve $-1 60.301985367515627 32.087516907062856 3.3700540141937179 0 0 1 I I #
coedge $-1 $405 $204 $209 $323 reversed $196 $-1 #
vertex $-1 $205 $415 #
straight-curve $-1 32.20828237660897 -32.087516907062856 5.2401080283874357 1 0 0 I I #
coedge $-1 $206 $312 $208 $322 forward $304 $-1 #
straight-curve $-1 32.20828237660897 32.087516907062856 5.2401080283874357 -1 0 0 I I #
coedge $-1 $209 $208 $407 $416 reversed $210 $-1 #
edge $-1 $417 -8.2401080283874357 $212 -5.2401080283874357 $208 $418 forward 7 unknown #
edge $-1 $419 -8.2401080283874357 $211 -5.2401080283874357 $209 $420 forward 7 unknown #
point $-1 68.531144138920254 -32.087516907062856 5.2401080283874357 #
point $-1 68.531144138920254 32.087516907062856 5.2401080283874357 #
loop $-1 $-1 $221 $214 #
plane-surface $-1 0 32.087516907062856 0 0 -1 0 0 0 -1 forward_v I I I I #
coedge $-1 $421 $422 $218 $330 reversed $215 $-1 #
coedge $-1 $218 $217 $335 $423 reversed $77 $-1 #
edge $-1 $424 -64.175033814125698 $332 -55.30876327799227 $328 $425 forward 7 unknown #
coedge $-1 $224 $219 $422 $426 forward $124 $-1 #
vertex $-1 $426 $427 #
straight-curve $-1 21.318988744535041 27.129561449136744 8.2401080283874357 1 0 0 I I #
coedge $-1 $428 $221 $224 $339 reversed $326 $-1 #
coedge $-1 $221 $428 $329 $423 forward $326 $-1 #
vertex $-1 $222 $429 #
straight-curve $-1 24.973969610624536 32.087516907062856 65.368704310860366 0 0 1 I I #
straight-curve $-1 24.973969610624536 -3.7987058136002219 54.093151323960512 0 0.55919289150049634 -0.82903758062907751 I I #
edge $-1 $430 -60.301985367515627 $225 -24.973969610624536 $334 $431 forward 7 unknown #
point $-1 24.973969610624536 32.087516907062856 8.2401080283874357 #
point $-1 24.973969610624536 27.129561449136741 8.2401080283874393 #
edge $-1 $432 1 $432 0 $228 $-1 forward 7 unknown #
vertex $-1 $229 $433 #
ellipse-curve $-1 42.637977489070082 27.889615132860406 3.4054434189395701 0 0.82903758062907751 0.55919289150049634 1 0 0 1 I I #
point $-1 43.637977489070082 29.60853917809979 4.5648722911479576 #
loop $-1 $-1 $240 $232 #
plane-surface $-1 0 -32.087516907062856 0 0 1 0 0 0 1 forward_v I I I I #
coedge $-1 $349 $235 $237 $353 reversed $139 $-1 #
coedge $-1 $235 $348 $434 $435 reversed $139 $-1 #
coedge $-1 $243 $238 $235 $351 forward $233 $-1 #
edge $-1 $354 -32.391096698524024 $436 -26.148227381900021 $350 $437 forward 7 unknown #
coedge $-1 $237 $236 $357 $438 reversed $86 $-1 #
edge $-1 $439 -9.1534652039358102e-015 $354 7.9223149377573652 $348 $440 forward 7 unknown #
vertex $-1 $239 $441 #
straight-curve $-1 5.9110918209323913 -25.844647590438854 8.2401080283874357 -1 0 0 I I #
coedge $-1 $434 $240 $243 $361 reversed $346 $-1 #
coedge $-1 $240 $434 $352 $438 forward $346 $-1 #
vertex $-1 $241 $442 #
straight-curve $-1 26.865934347964107 -32.087516907062856 55.684600057380294 0 0 1 I I #
straight-curve $-1 26.865934347964107 -32.087516907062849 3.3626438646474099 0 -0.78801074757464917 -0.61566148304635926 I I #
edge $-1 $436 -3.2215670642345415 $244 26.865934347964107 $356 $443 forward 7 unknown #
point $-1 26.865934347964107 -32.087516907062856 8.2401080283874357 #
point $-1 26.865934347964107 -25.844647590438857 8.2401080283874357 #
edge $-1 $444 1 $444 0 $247 $-1 forward 7 unknown #
vertex $-1 $248 $445 #
ellipse-curve $-1 5.3748619106793569 -27.652895301163575 4.1205733353922254 0 -0.61566148304635926 0.78801074757464917 1.5 0 0 1 I I #
point $-1 6.8748619106793569 -28.966082248750876 5.801375946517437 #
edge $-1 $446 1 $446 0 $251 $-1 forward 7 unknown #
vertex $-1 $252 $447 #
ellipse-curve $-1 18.269505373050208 -27.652895301163575 4.1205733353922254 0 -0.61566148304635926 0.78801074757464917 1.5 0 0 1 I I #
point $-1 19.769505373050208 -28.966082248750876 5.801375946517437 #
plane-surface $-1 68.531144138920254 0 0 -1 0 0 0 0 1 forward_v I I I I #
coedge $-1 $260 $258 $262 $377 reversed $161 $-1 #
edge $-1 $273 -8.2401080283874357 $379 8.2401080283874357 $272 $448 forward 7 unknown #
vertex $-1 $377 $449 #
straight-curve $-1 -68.531144138920254 -32.087516907062856 0 0 0 -1 I I #
edge $-1 $375 -32.087516907062856 $379 32.087516907062856 $373 $450 forward 7 unknown #
straight-curve $-1 0 -32.087516907062856 -8.2401080283874357 -1 0 0 I I #
vertex $-1 $265 $451 #
straight-curve $-1 0 32.087516907062856 -8.2401080283874357 1 0 0 I I #
point $-1 68.531144138920254 32.087516907062856 -8.2401080283874357 #
point $-1 68.531144138920254 -32.087516907062856 -8.2401080283874357 #
straight-curve $-1 -68.531144138920254 0 8.2401080283874357 0 -1 0 I I #
point $-1 -68.531144138920254 32.087516907062856 8.2401080283874357 #
point $-1 -68.531144138920254 -32.087516907062856 8.2401080283874357 #
straight-curve $-1 68.531144138920254 -32.087516907062856 0 0 0 -1 I I #
straight-curve $-1 68.531144138920254 32.087516907062856 0 0 0 -1 I I #
plane-surface $-1 0 -32.087516907062856 0 0 1 0 0 0 1 forward_v I I I I #
coedge $-1 $452 $285 $295 $400 reversed $180 $-1 #
coedge $-1 $285 $452 $298 $402 forward $180 $-1 #
coedge $-1 $453 $288 $286 $392 forward $283 $-1 #
edge $-1 $393 60.301985367515634 $454 68.531144138920254 $286 $455 forward 7 unknown #
vertex $-1 $392 $456 #
straight-curve $-1 -60.301985367515634 32.087516907062856 3.3700540141937179 0 0 -1 I I #
coedge $-1 $288 $453 $290 $397 forward $283 $-1 #
straight-curve $-1 -60.301985367515634 0 8.2401080283874357 0 1 0 I I #
edge $-1 $457 -68.531144138920254 $292 -60.301985367515634 $290 $458 forward 7 unknown #
point $-1 -60.301985367515634 -32.087516907062856 8.2401080283874357 #
straight-curve $-1 -68.531144138920254 0 5.2401080283874357 0 -1 0 I I #
edge $-1 $457 -8.2401080283874357 $296 -5.2401080283874357 $389 $459 forward 7 unknown #
point $-1 -68.531144138920254 -32.087516907062856 5.2401080283874357 #
edge $-1 $454 -8.2401080283874357 $299 -5.2401080283874357 $298 $460 forward 7 unknown #
point $-1 -68.531144138920254 32.087516907062856 5.2401080283874357 #
plane-surface $-1 68.531144138920254 0 0 -1 0 0 0 0 1 forward_v I I I I #
coedge $-1 $306 $316 $307 $408 reversed $196 $-1 #
edge $-1 $410 -4.8700540141937179 $317 -1.8700540141937179 $306 $461 forward 7 unknown #
coedge $-1 $308 $307 $321 $416 forward $116 $-1 #
edge $-1 $410 60.301985367515627 $419 68.531144138920254 $405 $462 forward 7 unknown #
edge $-1 $417 -68.531144138920254 $314 -60.301985367515627 $312 $463 forward 7 unknown #
vertex $-1 $408 $464 #
straight-curve $-1 60.301985367515627 0 8.2401080283874357 0 -1 0 I I #
straight-curve $-1 60.301985367515627 0 5.2401080283874357 0 1 0 I I #
point $-1 60.301985367515627 32.087516907062856 5.2401080283874357 #
point $-1 60.301985367515627 32.087516907062856 8.2401080283874357 #
point $-1 60.301985367515627 -32.087516907062856 5.2401080283874357 #
edge $-1 $419 -32.087516907062856 $417 32.087516907062856 $321 $465 forward 7 unknown #
vertex $-1 $416 $466 #
straight-curve $-1 68.531144138920254 32.087516907062856 0 0 0 -1 I I #
vertex $-1 $416 $467 #
straight-curve $-1 68.531144138920254 -32.087516907062856 0 0 0 -1 I I #
coedge $-1 $422 $328 $428 $468 reversed $215 $-1 #
coedge $-1 $328 $421 $331 $426 reversed $215 $-1 #
edge $-1 $424 -38.982996622980586 $336 -3.6549808660894954 $335 $469 forward 7 unknown #
vertex $-1 $468 $470 #
straight-curve $-1 60.301985367515627 -3.7987058136002219 54.093151323960512 0 -0.55919289150049634 0.82903758062907751 I I #
edge $-1 $332 27.129561449136744 $430 32.087516907062856 $331 $471 forward 7 unknown #
point $-1 60.301985367515627 27.129561449136744 8.2401080283874357 #
coedge $-1 $335 $334 $421 $468 forward $326 $-1 #
point $-1 24.973969610624536 32.087516907062856 0.88963655390850249 #
vertex $-1 $339 $472 #
straight-curve $-1 0 32.087516907062856 8.2401080283874357 -1 0 0 I I #
vertex $-1 $342 $473 #
point $-1 43.637977489070082 27.889615132860406 3.4054434189395701 #
coedge $-1 $357 $356 $349 $435 forward $346 $-1 #
edge $-1 $436 47.444492028992855 $439 52.321956192732891 $434 $474 forward 7 unknown #
vertex $-1 $361 $475 #
straight-curve $-1 -3.2215670642345415 -58.235744288962877 8.2401080283874322 0 -1 0 I I #
edge $-1 $439 -9.1326588851669328 $358 20.954842527031715 $357 $476 forward 7 unknown #
vertex $-1 $438 $477 #
straight-curve $-1 -3.2215670642345415 -32.087516907062849 3.3626438646474099 0 0.78801074757464917 0.61566148304635926 I I #
point $-1 -3.2215670642345415 -25.844647590438857 8.2401080283874357 #
point $-1 26.865934347964107 -32.087516907062856 3.3626438646474042 #
straight-curve $-1 0 -32.087516907062856 8.2401080283874357 1 0 0 I I #
vertex $-1 $364 $478 #
point $-1 6.8748619106793569 -27.652895301163575 4.1205733353922254 #
vertex $-1 $368 $479 #
point $-1 19.769505373050208 -27.652895301163575 4.1205733353922254 #
straight-curve $-1 -68.531144138920254 32.087516907062856 0 0 0 -1 I I #
point $-1 -68.531144138920254 -32.087516907062856 -8.2401080283874357 #
straight-curve $-1 -68.531144138920254 0 -8.2401080283874357 0 1 0 I I #
point $-1 -68.531144138920254 32.087516907062856 -8.2401080283874357 #
coedge $-1 $390 $389 $453 $480 reversed $180 $-1 #
coedge $-1 $395 $391 $452 $480 forward $283 $-1 #
vertex $-1 $392 $481 #
straight-curve $-1 0 32.087516907062856 8.2401080283874357 -1 0 0 I I #
point $-1 -60.301985367515634 32.087516907062856 8.2401080283874357 #
vertex $-1 $480 $482 #
straight-curve $-1 0 -32.087516907062856 8.2401080283874357 1 0 0 I I #
straight-curve $-1 -68.531144138920254 -32.087516907062856 0 0 0 -1 I I #
straight-curve $-1 -68.531144138920254 32.087516907062856 0 0 0 -1 I I #
straight-curve $-1 60.301985367515627 -32.087516907062856 3.3700540141937179 0 0 -1 I I #
straight-curve $-1 0 -32.087516907062856 8.2401080283874357 1 0 0 I I #
straight-curve $-1 0 32.087516907062856 8.2401080283874357 -1 0 0 I I #
point $-1 60.301985367515627 -32.087516907062856 8.2401080283874357 #
straight-curve $-1 68.531144138920254 0 8.2401080283874357 0 1 0 I I #
point $-1 68.531144138920254 32.087516907062856 8.2401080283874357 #
point $-1 68.531144138920254 -32.087516907062856 8.2401080283874357 #
edge $-1 $430 57.128596282472927 $424 64.479067756951864 $428 $483 forward 7 unknown #
straight-curve $-1 21.318988744535041 32.087516907062856 0.88963655390849539 -1 0 0 I I #
point $-1 60.301985367515627 32.087516907062856 0.88963655390850249 #
straight-curve $-1 60.301985367515627 0 8.2401080283874357 0 1 0 I I #
point $-1 60.301985367515627 32.087516907062856 8.2401080283874357 #
point $-1 42.637977489070082 27.060577552231329 2.8462505274390741 #
straight-curve $-1 -3.2215670642345415 -32.087516907062856 55.684600057380294 0 0 -1 I I #
point $-1 -3.2215670642345415 -32.087516907062856 8.2401080283874357 #
straight-curve $-1 5.9110918209323913 -32.087516907062856 3.3626438646474024 1 0 0 I I #
point $-1 -3.2215670642345415 -32.087516907062856 3.3626438646474042 #
point $-1 5.3748619106793569 -26.729403076594039 2.9385572140302516 #
point $-1 18.269505373050208 -26.729403076594039 2.9385572140302516 #
edge $-1 $454 -32.087516907062856 $457 32.087516907062856 $452 $484 forward 7 unknown #
point $-1 -68.531144138920254 32.087516907062856 8.2401080283874357 #
point $-1 -68.531144138920254 -32.087516907062856 8.2401080283874357 #
straight-curve $-1 60.301985367515627 32.087516907062856 65.368704310860366 0 0 -1 I I #
straight-curve $-1 -68.531144138920254 0 8.2401080283874357 0 -1 0 I I #
End-of-ACIS-data 