500 0 3 0           
7 Unknown 11 ACIS 5.0 NT 24 Fri Mar 26 01:55:13 1999 
-1 9.9999999999999995e-007 1e-010 
body $-1 $3 $-1 $4 #
body $-1 $5 $-1 $6 #
body $-1 $7 $-1 $8 #
lump $-1 $-1 $9 $0 #
transform $-1 1 0 0 0 1 0 0 0 1 72.728049562059397 41.280553684649732 13.344401647813816 1 rotate no_reflect no_shear #
lump $-1 $-1 $10 $1 #
transform $-1 1 0 0 0 1 0 0 0 1 72.728049562059397 41.280553684649732 13.344401647813816 1 rotate no_reflect no_shear #
lump $-1 $-1 $11 $2 #
transform $-1 1 0 0 0 1 0 0 0 1 72.728049562059397 41.280553684649732 13.344401647813816 1 rotate no_reflect no_shear #
shell $-1 $-1 $-1 $12 $-1 $3 #
shell $-1 $-1 $-1 $13 $-1 $5 #
shell $-1 $-1 $-1 $14 $-1 $7 #
face $-1 $15 $16 $9 $-1 $17 forward single #
face $-1 $18 $19 $10 $-1 $20 reversed single #
face $-1 $21 $22 $11 $-1 $23 forward single #
face $-1 $24 $25 $9 $-1 $26 reversed single #
loop $-1 $-1 $27 $12 #
plane-surface $-1 0 0 13.344401647813816 0 0 1 1 0 0 forward_v I I I I #
face $-1 $28 $29 $10 $-1 $30 reversed single #
loop $-1 $-1 $31 $13 #
plane-surface $-1 -162.2797672669526 -25.98657908761885 117.78171495584894 0 -1 0 0.61566148304635926 0 -0.78801074757464917 forward_v I I I I #
face $-1 $32 $33 $11 $-1 $34 forward single #
loop $-1 $35 $36 $14 #
cone-surface $-1 -63.239174521459056 -33.633566386134291 4.4490575651227182 0.61566148304635926 0 -0.78801074757464917 1.9700268689366229 0 1.5391537076158981 1 I I 0 1 2.5 forward I I I I #
face $-1 $37 $38 $9 $-1 $39 reversed single #
loop $-1 $-1 $40 $15 #
plane-surface $-1 0 0 -13.344401647813816 0 0 1 1 0 0 forward_v I I I I #
coedge $-1 $41 $42 $43 $44 forward $16 $-1 #
face $-1 $45 $46 $10 $-1 $47 forward single #
loop $-1 $-1 $48 $18 #
plane-surface $-1 -72.728049562059383 -33.633566386134291 3.1607455457598235 -0.61566148304635926 0 0.78801074757464917 0.78801074757464917 0 0.61566148304635926 forward_v I I I I #
coedge $-1 $49 $50 $51 $52 reversed $19 $-1 #
face $-1 $-1 $53 $11 $-1 $54 forward single #
loop $-1 $55 $56 $21 #
cone-surface $-1 -59.497965201911043 -33.633566386134291 -0.33947190100969316 0.61566148304635926 0 -0.78801074757464917 0.98501343446831147 0 0.76957685380794905 1 I I -0.70710678118654746 0.70710678118654746 1.25 forward I I I I #
loop $-1 $-1 $57 $14 #
coedge $-1 $36 $36 $58 $59 reversed $22 $-1 #
face $-1 $60 $61 $9 $-1 $62 reversed single #
loop $-1 $-1 $63 $24 #
plane-surface $-1 0 -41.280553684649732 0 0 1 0 0 0 1 forward_v I I I I #
coedge $-1 $64 $65 $66 $67 forward $25 $-1 #
coedge $-1 $68 $27 $69 $70 forward $16 $-1 #
coedge $-1 $27 $68 $71 $72 forward $16 $-1 #
coedge $-1 $73 $74 $27 $44 reversed $75 $-1 #
edge $-1 $76 -41.280553684649732 $77 41.280553684649732 $43 $78 forward 7 unknown #
face $-1 $79 $80 $10 $-1 $81 reversed single #
loop $-1 $-1 $82 $28 #
plane-surface $-1 0 0 13.344401647813816 0 0 1 1 0 0 forward_v I I I I #
coedge $-1 $83 $84 $85 $86 reversed $29 $-1 #
coedge $-1 $50 $31 $87 $88 reversed $19 $-1 #
coedge $-1 $31 $49 $83 $89 reversed $19 $-1 #
coedge $-1 $85 $90 $31 $52 forward $80 $-1 #
edge $-1 $91 45.546455830110652 $92 55.730111932164661 $51 $93 forward 7 unknown #
loop $-1 $-1 $58 $32 #
plane-surface $-1 -72.728049562059383 -33.633566386134291 3.1607455457598235 -0.61566148304635926 0 0.78801074757464917 0.78801074757464917 0 0.61566148304635926 forward_v I I I I #
loop $-1 $-1 $94 $21 #
coedge $-1 $56 $56 $57 $95 reversed $33 $-1 #
coedge $-1 $57 $57 $56 $95 forward $35 $-1 #
coedge $-1 $58 $58 $36 $59 forward $53 $-1 #
edge $-1 $96 0 $96 6.2831853071796004 $58 $97 forward 7 unknown #
face $-1 $98 $99 $9 $-1 $100 reversed single #
loop $-1 $-1 $101 $37 #
plane-surface $-1 -72.728049562059397 0 0 1 0 0 0 0 -1 forward_v I I I I #
coedge $-1 $102 $71 $103 $104 forward $38 $-1 #
coedge $-1 $105 $40 $102 $106 forward $25 $-1 #
coedge $-1 $40 $105 $107 $108 forward $25 $-1 #
coedge $-1 $74 $73 $40 $67 reversed $75 $-1 #
edge $-1 $109 -41.280553684649732 $110 41.280553684649732 $66 $111 forward 7 unknown #
coedge $-1 $42 $41 $112 $113 forward $16 $-1 #
coedge $-1 $114 $115 $41 $70 reversed $99 $-1 #
edge $-1 $77 -72.728049562059397 $116 72.728049562059397 $69 $117 forward 7 unknown #
coedge $-1 $63 $118 $42 $72 reversed $38 $-1 #
edge $-1 $119 -72.728049562059397 $76 72.728049562059397 $71 $120 forward 7 unknown #
coedge $-1 $66 $43 $118 $121 forward $75 $-1 #
coedge $-1 $43 $66 $114 $122 reversed $75 $-1 #
loop $-1 $-1 $73 $98 #
vertex $-1 $44 $123 #
vertex $-1 $44 $124 #
straight-curve $-1 72.728049562059397 0 13.344401647813816 0 1 0 I I #
face $-1 $-1 $125 $10 $-1 $126 reversed single #
loop $-1 $-1 $51 $45 #
plane-surface $-1 -72.728049562059397 0 0 1 0 0 0 0 -1 forward_v I I I I #
coedge $-1 $87 $127 $128 $129 forward $46 $-1 #
coedge $-1 $128 $48 $50 $89 forward $29 $-1 #
coedge $-1 $48 $128 $130 $131 reversed $29 $-1 #
coedge $-1 $132 $51 $48 $86 forward $80 $-1 #
edge $-1 $92 9.1697958945517044 $133 24.463770491582586 $85 $134 forward 7 unknown #
coedge $-1 $135 $82 $49 $88 forward $46 $-1 #
edge $-1 $136 -21.446319221137472 $91 -8.4118340714169051 $87 $137 forward 7 unknown #
edge $-1 $92 -1.8033521786330445e-014 $136 16.540999205706623 $50 $138 forward 7 unknown #
coedge $-1 $51 $132 $135 $139 reversed $80 $-1 #
vertex $-1 $139 $140 #
vertex $-1 $52 $141 #
straight-curve $-1 -72.728049562059397 -25.98657908761885 58.89085747792447 0 0 -1 I I #
coedge $-1 $94 $94 $-1 $142 reversed $55 $-1 #
edge $-1 $143 0 $143 6.2831853071796004 $56 $144 forward 7 unknown #
vertex $-1 $59 $145 #
ellipse-curve $-1 -66.210806987199106 -33.633566386134291 8.2525735967868137 -0.61566148304635926 0 0.78801074757464917 1.9700268689366229 0 1.5391537076158981 1 I I #
face $-1 $-1 $75 $9 $-1 $146 reversed single #
loop $-1 $-1 $114 $60 #
plane-surface $-1 0 41.280553684649732 0 0 -1 0 0 0 -1 forward_v I I I I #
coedge $-1 $147 $112 $115 $148 forward $61 $-1 #
coedge $-1 $118 $63 $64 $106 reversed $38 $-1 #
coedge $-1 $112 $147 $63 $104 reversed $61 $-1 #
edge $-1 $119 -13.344401647813816 $149 13.344401647813816 $103 $150 forward 7 unknown #
coedge $-1 $65 $64 $147 $151 forward $25 $-1 #
edge $-1 $110 -72.728049562059397 $149 72.728049562059397 $102 $152 forward 7 unknown #
coedge $-1 $115 $114 $65 $108 reversed $99 $-1 #
edge $-1 $153 -72.728049562059397 $109 72.728049562059397 $107 $154 forward 7 unknown #
vertex $-1 $67 $155 #
vertex $-1 $121 $156 #
straight-curve $-1 72.728049562059397 0 -13.344401647813816 0 -1 0 I I #
coedge $-1 $101 $103 $68 $113 reversed $61 $-1 #
edge $-1 $116 -41.280553684649732 $119 41.280553684649732 $112 $157 forward 7 unknown #
coedge $-1 $107 $69 $74 $122 forward $99 $-1 #
coedge $-1 $69 $107 $101 $148 reversed $99 $-1 #
vertex $-1 $70 $158 #
straight-curve $-1 0 41.280553684649732 13.344401647813816 -1 0 0 I I #
coedge $-1 $71 $102 $73 $121 reversed $38 $-1 #
vertex $-1 $113 $159 #
straight-curve $-1 0 -41.280553684649732 13.344401647813816 1 0 0 I I #
edge $-1 $76 -13.344401647813816 $110 13.344401647813816 $73 $160 forward 7 unknown #
edge $-1 $77 -13.344401647813816 $109 13.344401647813816 $74 $161 forward 7 unknown #
point $-1 72.728049562059397 -41.280553684649732 13.344401647813816 #
point $-1 72.728049562059397 41.280553684649732 13.344401647813816 #
loop $-1 $-1 $130 $79 #
plane-surface $-1 0 -41.280553684649732 0 0 1 0 0 0 1 forward_v I I I I #
coedge $-1 $82 $135 $162 $163 forward $46 $-1 #
coedge $-1 $84 $83 $82 $129 reversed $29 $-1 #
edge $-1 $164 -24.463770491582586 $136 -9.1697958945517044 $82 $165 forward 7 unknown #
coedge $-1 $162 $166 $84 $131 forward $125 $-1 #
edge $-1 $133 -27.682267707404961 $164 -11.141268501698319 $130 $167 forward 7 unknown #
coedge $-1 $90 $85 $166 $168 reversed $80 $-1 #
vertex $-1 $86 $169 #
straight-curve $-1 -72.728049562059397 -16.816783193067145 3.1607455457598199 0 -1 0 I I #
coedge $-1 $127 $87 $90 $139 forward $46 $-1 #
vertex $-1 $88 $170 #
straight-curve $-1 -81.139883633476302 -25.98657908761885 13.344401647813818 -1 0 0 I I #
straight-curve $-1 -72.728049562059383 -25.98657908761885 3.1607455457598235 0.78801074757464917 0 0.61566148304635926 I I #
edge $-1 $91 25.98657908761885 $171 41.280553684649732 $90 $172 forward 7 unknown #
point $-1 -72.728049562059397 -25.98657908761885 13.344401647813816 #
point $-1 -72.728049562059397 -25.98657908761885 3.1607455457598124 #
edge $-1 $173 1 $173 0 $94 $-1 forward 7 unknown #
vertex $-1 $95 $174 #
ellipse-curve $-1 -60.267542055718991 -33.633566386134291 0.64554153345861831 -0.61566148304635926 0 0.78801074757464917 1.9700268689366229 0 1.5391537076158981 1 I I #
point $-1 -64.240780118262492 -33.633566386134291 9.791727304402718 #
plane-surface $-1 72.728049562059397 0 0 -1 0 0 0 0 1 forward_v I I I I #
coedge $-1 $103 $101 $105 $151 reversed $61 $-1 #
edge $-1 $116 -13.344401647813816 $153 13.344401647813816 $115 $175 forward 7 unknown #
vertex $-1 $151 $176 #
straight-curve $-1 -72.728049562059397 -41.280553684649732 0 0 0 -1 I I #
edge $-1 $149 -41.280553684649732 $153 41.280553684649732 $147 $177 forward 7 unknown #
straight-curve $-1 0 -41.280553684649732 -13.344401647813816 -1 0 0 I I #
vertex $-1 $108 $178 #
straight-curve $-1 0 41.280553684649732 -13.344401647813816 1 0 0 I I #
point $-1 72.728049562059397 41.280553684649732 -13.344401647813816 #
point $-1 72.728049562059397 -41.280553684649732 -13.344401647813816 #
straight-curve $-1 -72.728049562059397 0 13.344401647813816 0 -1 0 I I #
point $-1 -72.728049562059397 41.280553684649732 13.344401647813816 #
point $-1 -72.728049562059397 -41.280553684649732 13.344401647813816 #
straight-curve $-1 72.728049562059397 -41.280553684649732 0 0 0 -1 I I #
straight-curve $-1 72.728049562059397 41.280553684649732 0 0 0 -1 I I #
coedge $-1 $166 $130 $127 $163 reversed $125 $-1 #
edge $-1 $171 -72.728049562059397 $164 -59.69356441233883 $162 $179 forward 7 unknown #
vertex $-1 $131 $180 #
straight-curve $-1 -59.693564412338816 -16.816783193067145 13.344401647813816 0 1 0 I I #
coedge $-1 $130 $162 $132 $168 forward $125 $-1 #
straight-curve $-1 -50.914125091385642 -41.280553684649732 20.203651536587088 0.78801074757464917 0 0.61566148304635926 I I #
edge $-1 $171 -13.344401647813816 $133 -3.1607455457598124 $132 $181 forward 7 unknown #
point $-1 -72.728049562059397 -41.280553684649732 3.1607455457598124 #
point $-1 -59.69356441233883 -25.98657908761885 13.344401647813816 #
vertex $-1 $139 $182 #
straight-curve $-1 -72.728049562059397 0 13.344401647813816 0 -1 0 I I #
vertex $-1 $142 $183 #
point $-1 -58.29751518678237 -33.633566386134291 2.1846952410745164 #
straight-curve $-1 -72.728049562059397 41.280553684649732 0 0 0 -1 I I #
point $-1 -72.728049562059397 -41.280553684649732 -13.344401647813816 #
straight-curve $-1 -72.728049562059397 0 -13.344401647813816 0 1 0 I I #
point $-1 -72.728049562059397 41.280553684649732 -13.344401647813816 #
straight-curve $-1 0 -41.280553684649732 13.344401647813816 1 0 0 I I #
point $-1 -59.69356441233883 -41.280553684649732 13.344401647813816 #
straight-curve $-1 -72.728049562059397 -41.280553684649732 0 0 0 -1 I I #
point $-1 -72.728049562059397 -41.280553684649732 13.344401647813816 #
point $-1 -58.728388348103095 -33.633566386134291 -1.3244853354780046 #
End-of-ACIS-data 