500 0 11 0           
7 Unknown 11 ACIS 5.0 NT 24 Fri Mar 26 02:44:56 1999 
-1 9.9999999999999995e-007 1e-010 
body $-1 $11 $-1 $12 #
body $-1 $13 $-1 $14 #
body $-1 $15 $-1 $16 #
body $-1 $17 $-1 $18 #
body $-1 $19 $-1 $20 #
body $-1 $21 $-1 $22 #
body $-1 $23 $-1 $24 #
body $-1 $25 $-1 $26 #
body $-1 $27 $-1 $28 #
body $-1 $29 $-1 $30 #
body $-1 $31 $-1 $32 #
lump $-1 $-1 $33 $0 #
transform $-1 1 0 0 0 1 0 0 0 1 78.914761803033542 45.161342871007562 12.754802555350363 1 rotate no_reflect no_shear #
lump $-1 $-1 $34 $1 #
transform $-1 1 0 0 0 1 0 0 0 1 78.914761803033542 45.161342871007562 12.754802555350363 1 rotate no_reflect no_shear #
lump $-1 $-1 $35 $2 #
transform $-1 1 0 0 0 1 0 0 0 1 78.914761803033542 45.161342871007562 12.754802555350363 1 rotate no_reflect no_shear #
lump $-1 $-1 $36 $3 #
transform $-1 1 0 0 0 1 0 0 0 1 78.914761803033542 45.161342871007562 12.754802555350363 1 rotate no_reflect no_shear #
lump $-1 $-1 $37 $4 #
transform $-1 1 0 0 0 1 0 0 0 1 78.914761803033542 45.161342871007562 12.754802555350363 1 rotate no_reflect no_shear #
lump $-1 $-1 $38 $5 #
transform $-1 1 0 0 0 1 0 0 0 1 78.914761803033542 45.161342871007562 12.754802555350363 1 rotate no_reflect no_shear #
lump $-1 $-1 $39 $6 #
transform $-1 1 0 0 0 1 0 0 0 1 78.914761803033542 45.161342871007562 12.754802555350363 1 rotate no_reflect no_shear #
lump $-1 $-1 $40 $7 #
transform $-1 1 0 0 0 1 0 0 0 1 78.914761803033542 45.161342871007562 12.754802555350363 1 rotate no_reflect no_shear #
lump $-1 $-1 $41 $8 #
transform $-1 1 0 0 0 1 0 0 0 1 78.914761803033542 45.161342871007562 12.754802555350363 1 rotate no_reflect no_shear #
lump $-1 $-1 $42 $9 #
transform $-1 1 0 0 0 1 0 0 0 1 78.914761803033542 45.161342871007562 12.754802555350363 1 rotate no_reflect no_shear #
lump $-1 $-1 $43 $10 #
transform $-1 1 0 0 0 1 0 0 0 1 78.914761803033542 45.161342871007562 12.754802555350363 1 rotate no_reflect no_shear #
shell $-1 $-1 $-1 $44 $-1 $11 #
shell $-1 $-1 $-1 $45 $-1 $13 #
shell $-1 $-1 $-1 $46 $-1 $15 #
shell $-1 $-1 $-1 $47 $-1 $17 #
shell $-1 $-1 $-1 $48 $-1 $19 #
shell $-1 $-1 $-1 $49 $-1 $21 #
shell $-1 $-1 $-1 $50 $-1 $23 #
shell $-1 $-1 $-1 $51 $-1 $25 #
shell $-1 $-1 $-1 $52 $-1 $27 #
shell $-1 $-1 $-1 $53 $-1 $29 #
shell $-1 $-1 $-1 $54 $-1 $31 #
face $-1 $55 $56 $33 $-1 $57 forward single #
face $-1 $58 $59 $34 $-1 $60 reversed single #
face $-1 $61 $62 $35 $-1 $63 reversed single #
face $-1 $64 $65 $36 $-1 $66 reversed single #
face $-1 $67 $68 $37 $-1 $69 forward single #
face $-1 $70 $71 $38 $-1 $72 forward single #
face $-1 $73 $74 $39 $-1 $75 forward single #
face $-1 $76 $77 $40 $-1 $78 reversed single #
face $-1 $79 $80 $41 $-1 $81 forward single #
face $-1 $82 $83 $42 $-1 $84 forward single #
face $-1 $85 $86 $43 $-1 $87 forward single #
face $-1 $88 $89 $33 $-1 $90 reversed single #
loop $-1 $-1 $91 $44 #
plane-surface $-1 0 0 12.754802555350363 0 0 1 1 0 0 forward_v I I I I #
face $-1 $92 $93 $34 $-1 $94 reversed single #
loop $-1 $-1 $95 $45 #
plane-surface $-1 0 -39.121902794376304 8.8355238600532466 0 0 1 1 0 0 forward_v I I I I #
face $-1 $96 $97 $35 $-1 $98 reversed single #
loop $-1 $-1 $99 $46 #
plane-surface $-1 0 39.121902794376311 8.8355238600532466 0 0 1 1 0 0 forward_v I I I I #
face $-1 $100 $101 $36 $-1 $102 reversed single #
loop $-1 $-1 $103 $47 #
plane-surface $-1 -188.55236276954437 2.3656316529278065 123.20063261384847 0 1 0 -0.69465837861970381 0 0.71933979245794832 forward_v I I I I #
face $-1 $104 $105 $37 $-1 $106 forward single #
loop $-1 $107 $108 $48 #
cone-surface $-1 -76.927909954866763 4.6660072245278599 10.808996004793869 0.69465837861970381 0 -0.71933979245794832 0.35966989622897416 0 0.3473291893098519 1 I I 0 1 0.5 forward I I I I #
face $-1 $109 $110 $38 $-1 $111 forward single #
loop $-1 $112 $113 $49 #
cone-surface $-1 -76.927909954866763 8.1165705819279452 10.808996004793869 0.69465837861970381 0 -0.71933979245794832 0.35966989622897416 0 0.3473291893098519 1 I I 0 1 0.5 forward I I I I #
face $-1 $114 $115 $39 $-1 $116 forward single #
loop $-1 $117 $118 $50 #
cone-surface $-1 -76.927909954866763 11.567133939328031 10.808996004793869 0.69465837861970381 0 -0.71933979245794832 0.35966989622897416 0 0.3473291893098519 1 I I 0 1 0.5 forward I I I I #
face $-1 $119 $120 $40 $-1 $121 reversed single #
loop $-1 $-1 $122 $51 #
plane-surface $-1 75.019306015019225 13.867509510928084 232.83823358035932 0 -1 0 -0.69465837861970381 0 -0.71933979245794832 forward_v I I I I #
face $-1 $123 $124 $41 $-1 $125 forward single #
loop $-1 $126 $127 $52 #
cone-surface $-1 76.927909954866763 4.6660072245278599 10.808996004793862 -0.69465837861970381 0 -0.71933979245794832 0.35966989622897416 0 -0.3473291893098519 1 I I 0 1 0.5 forward I I I I #
face $-1 $128 $129 $42 $-1 $130 forward single #
loop $-1 $131 $132 $53 #
cone-surface $-1 76.927909954866763 8.1165705819279452 10.808996004793862 -0.69465837861970381 0 -0.71933979245794832 0.35966989622897416 0 -0.3473291893098519 1 I I 0 1 0.5 forward I I I I #
face $-1 $133 $134 $43 $-1 $135 forward single #
loop $-1 $136 $137 $54 #
cone-surface $-1 76.927909954866763 11.567133939328031 10.808996004793862 -0.69465837861970381 0 -0.71933979245794832 0.35966989622897416 0 -0.3473291893098519 1 I I 0 1 0.5 forward I I I I #
face $-1 $138 $139 $33 $-1 $140 reversed single #
loop $-1 $-1 $141 $55 #
plane-surface $-1 0 0 -12.754802555350363 0 0 1 1 0 0 forward_v I I I I #
coedge $-1 $142 $143 $144 $145 forward $56 $-1 #
face $-1 $146 $147 $34 $-1 $148 reversed single #
loop $-1 $-1 $149 $58 #
plane-surface $-1 0 -33.082462717745045 10.795163207701805 0 -1 0 0 0 -1 forward_v I I I I #
coedge $-1 $150 $151 $152 $153 reversed $59 $-1 #
face $-1 $154 $155 $35 $-1 $156 forward single #
loop $-1 $-1 $157 $61 #
plane-surface $-1 0 33.082462717745052 10.795163207701805 0 1 0 0 0 1 forward_v I I I I #
coedge $-1 $158 $159 $160 $161 reversed $62 $-1 #
face $-1 $162 $163 $36 $-1 $164 reversed single #
loop $-1 $-1 $165 $64 #
plane-surface $-1 -78.914761803033542 8.1165705819279452 9.6675758593233212 -0.69465837861970381 0 0.71933979245794832 0.71933979245794832 0 0.69465837861970381 forward_v I I I I #
coedge $-1 $166 $167 $168 $169 reversed $65 $-1 #
face $-1 $-1 $170 $37 $-1 $171 forward single #
loop $-1 $172 $173 $67 #
cone-surface $-1 -76.365851890394566 4.6660072245278599 10.226967854136401 0.69465837861970381 0 -0.71933979245794832 0.17983494811448708 0 0.17366459465492595 1 I I -0.70710678118654746 0.70710678118654746 0.25 forward I I I I #
loop $-1 $-1 $174 $48 #
coedge $-1 $108 $108 $175 $176 reversed $68 $-1 #
face $-1 $-1 $177 $38 $-1 $178 forward single #
loop $-1 $179 $180 $70 #
cone-surface $-1 -76.365851890394566 8.1165705819279452 10.226967854136401 0.69465837861970381 0 -0.71933979245794832 0.17983494811448708 0 0.17366459465492595 1 I I -0.70710678118654746 0.70710678118654746 0.25 forward I I I I #
loop $-1 $-1 $181 $49 #
coedge $-1 $113 $113 $182 $183 reversed $71 $-1 #
face $-1 $-1 $184 $39 $-1 $185 forward single #
loop $-1 $186 $187 $73 #
cone-surface $-1 -76.365851890394566 11.567133939328031 10.226967854136401 0.69465837861970381 0 -0.71933979245794832 0.17983494811448708 0 0.17366459465492595 1 I I -0.70710678118654746 0.70710678118654746 0.25 forward I I I I #
loop $-1 $-1 $188 $50 #
coedge $-1 $118 $118 $189 $190 reversed $74 $-1 #
face $-1 $191 $192 $40 $-1 $193 reversed single #
loop $-1 $-1 $194 $76 #
plane-surface $-1 -34.618294951491606 8.1165705819279452 119.30517682583417 0.69465837861970381 0 0.71933979245794832 0.71933979245794832 0 -0.69465837861970381 forward_v I I I I #
coedge $-1 $195 $196 $197 $198 reversed $77 $-1 #
face $-1 $-1 $199 $41 $-1 $200 forward single #
loop $-1 $201 $202 $79 #
cone-surface $-1 76.365851890394566 4.6660072245278599 10.226967854136394 -0.69465837861970381 0 -0.71933979245794832 0.17983494811448708 0 -0.17366459465492595 1 I I -0.70710678118654746 0.70710678118654746 0.25 forward I I I I #
loop $-1 $-1 $203 $52 #
coedge $-1 $127 $127 $204 $205 reversed $80 $-1 #
face $-1 $-1 $206 $42 $-1 $207 forward single #
loop $-1 $208 $209 $82 #
cone-surface $-1 76.365851890394566 8.1165705819279452 10.226967854136394 -0.69465837861970381 0 -0.71933979245794832 0.17983494811448708 0 -0.17366459465492595 1 I I -0.70710678118654746 0.70710678118654746 0.25 forward I I I I #
loop $-1 $-1 $210 $53 #
coedge $-1 $132 $132 $211 $212 reversed $83 $-1 #
face $-1 $-1 $213 $43 $-1 $214 forward single #
loop $-1 $215 $216 $85 #
cone-surface $-1 76.365851890394566 11.567133939328031 10.226967854136394 -0.69465837861970381 0 -0.71933979245794832 0.17983494811448708 0 -0.17366459465492595 1 I I -0.70710678118654746 0.70710678118654746 0.25 forward I I I I #
loop $-1 $-1 $217 $54 #
coedge $-1 $137 $137 $218 $219 reversed $86 $-1 #
face $-1 $220 $221 $33 $-1 $222 reversed single #
loop $-1 $-1 $223 $88 #
plane-surface $-1 0 -45.161342871007562 0 0 1 0 0 0 1 forward_v I I I I #
coedge $-1 $224 $225 $226 $227 forward $89 $-1 #
coedge $-1 $228 $91 $229 $230 forward $56 $-1 #
coedge $-1 $91 $228 $231 $232 forward $56 $-1 #
coedge $-1 $233 $234 $91 $145 reversed $235 $-1 #
edge $-1 $236 -45.161342871007562 $237 45.161342871007562 $144 $238 forward 7 unknown #
face $-1 $239 $240 $34 $-1 $241 reversed single #
loop $-1 $-1 $242 $92 #
plane-surface $-1 -78.914761803033542 0 0 1 0 0 0 0 -1 forward_v I I I I #
coedge $-1 $243 $244 $245 $246 reversed $93 $-1 #
coedge $-1 $247 $95 $248 $249 reversed $59 $-1 #
coedge $-1 $95 $247 $243 $250 forward $59 $-1 #
coedge $-1 $245 $251 $95 $153 forward $252 $-1 #
edge $-1 $253 -25.60039147381941 $254 -13.521511320556893 $152 $255 forward 7 unknown #
face $-1 $256 $257 $35 $-1 $258 reversed single #
loop $-1 $-1 $259 $96 #
plane-surface $-1 0 0 12.754802555350363 0 0 1 1 0 0 forward_v I I I I #
coedge $-1 $260 $261 $262 $263 reversed $97 $-1 #
coedge $-1 $264 $99 $260 $265 forward $62 $-1 #
coedge $-1 $99 $264 $266 $267 reversed $62 $-1 #
coedge $-1 $268 $269 $99 $161 forward $257 $-1 #
edge $-1 $270 13.521511320556897 $271 25.600391473819414 $160 $272 forward 7 unknown #
face $-1 $273 $274 $36 $-1 $275 reversed single #
loop $-1 $-1 $276 $100 #
plane-surface $-1 -188.55236276954437 13.867509510928084 123.20063261384847 0 -1 0 0.69465837861970381 0 -0.71933979245794832 forward_v I I I I #
coedge $-1 $277 $278 $279 $280 reversed $101 $-1 #
coedge $-1 $167 $103 $281 $282 reversed $65 $-1 #
coedge $-1 $103 $166 $277 $283 reversed $65 $-1 #
coedge $-1 $279 $284 $103 $169 forward $285 $-1 #
edge $-1 $286 15.361419581738645 $287 18.558336338437698 $168 $288 forward 7 unknown #
loop $-1 $-1 $175 $104 #
plane-surface $-1 -78.914761803033542 8.1165705819279452 9.6675758593233212 -0.69465837861970381 0 0.71933979245794832 0.71933979245794832 0 0.69465837861970381 forward_v I I I I #
loop $-1 $-1 $289 $67 #
coedge $-1 $173 $173 $174 $290 reversed $105 $-1 #
coedge $-1 $174 $174 $173 $290 forward $107 $-1 #
coedge $-1 $175 $175 $108 $176 forward $170 $-1 #
edge $-1 $291 0 $291 6.2831853071796004 $175 $292 forward 7 unknown #
loop $-1 $-1 $182 $109 #
plane-surface $-1 -78.914761803033542 8.1165705819279452 9.6675758593233212 -0.69465837861970381 0 0.71933979245794832 0.71933979245794832 0 0.69465837861970381 forward_v I I I I #
loop $-1 $-1 $293 $70 #
coedge $-1 $180 $180 $181 $294 reversed $110 $-1 #
coedge $-1 $181 $181 $180 $294 forward $112 $-1 #
coedge $-1 $182 $182 $113 $183 forward $177 $-1 #
edge $-1 $295 0 $295 6.2831853071796004 $182 $296 forward 7 unknown #
loop $-1 $-1 $189 $114 #
plane-surface $-1 -78.914761803033542 8.1165705819279452 9.6675758593233212 -0.69465837861970381 0 0.71933979245794832 0.71933979245794832 0 0.69465837861970381 forward_v I I I I #
loop $-1 $-1 $297 $73 #
coedge $-1 $187 $187 $188 $298 reversed $115 $-1 #
coedge $-1 $188 $188 $187 $298 forward $117 $-1 #
coedge $-1 $189 $189 $118 $190 forward $184 $-1 #
edge $-1 $299 0 $299 6.2831853071796004 $189 $300 forward 7 unknown #
face $-1 $301 $302 $40 $-1 $303 forward single #
loop $-1 $-1 $304 $119 #
plane-surface $-1 75.019306015019225 2.3656316529278065 232.83823358035932 0 1 0 0.69465837861970381 0 0.71933979245794832 forward_v I I I I #
coedge $-1 $305 $306 $307 $308 reversed $120 $-1 #
coedge $-1 $196 $122 $309 $310 reversed $77 $-1 #
coedge $-1 $122 $195 $305 $311 reversed $77 $-1 #
coedge $-1 $307 $312 $122 $198 forward $302 $-1 #
edge $-1 $313 -41.40510879552393 $314 -38.20819203882489 $197 $315 forward 7 unknown #
loop $-1 $-1 $204 $123 #
plane-surface $-1 -34.618294951491606 8.1165705819279452 119.30517682583417 0.69465837861970381 0 0.71933979245794832 0.71933979245794832 0 -0.69465837861970381 forward_v I I I I #
loop $-1 $-1 $316 $79 #
coedge $-1 $202 $202 $203 $317 reversed $124 $-1 #
coedge $-1 $203 $203 $202 $317 forward $126 $-1 #
coedge $-1 $204 $204 $127 $205 forward $199 $-1 #
edge $-1 $318 0 $318 6.2831853071796004 $204 $319 forward 7 unknown #
loop $-1 $-1 $211 $128 #
plane-surface $-1 -34.618294951491606 8.1165705819279452 119.30517682583417 0.69465837861970381 0 0.71933979245794832 0.71933979245794832 0 -0.69465837861970381 forward_v I I I I #
loop $-1 $-1 $320 $82 #
coedge $-1 $209 $209 $210 $321 reversed $129 $-1 #
coedge $-1 $210 $210 $209 $321 forward $131 $-1 #
coedge $-1 $211 $211 $132 $212 forward $206 $-1 #
edge $-1 $322 0 $322 6.2831853071796004 $211 $323 forward 7 unknown #
loop $-1 $-1 $218 $133 #
plane-surface $-1 -34.618294951491606 8.1165705819279452 119.30517682583417 0.69465837861970381 0 0.71933979245794832 0.71933979245794832 0 -0.69465837861970381 forward_v I I I I #
loop $-1 $-1 $324 $85 #
coedge $-1 $216 $216 $217 $325 reversed $134 $-1 #
coedge $-1 $217 $217 $216 $325 forward $136 $-1 #
coedge $-1 $218 $218 $137 $219 forward $213 $-1 #
edge $-1 $326 0 $326 6.2831853071796004 $218 $327 forward 7 unknown #
face $-1 $328 $329 $33 $-1 $330 reversed single #
loop $-1 $-1 $331 $138 #
plane-surface $-1 -78.914761803033542 0 0 1 0 0 0 0 -1 forward_v I I I I #
coedge $-1 $332 $231 $333 $334 forward $139 $-1 #
coedge $-1 $335 $141 $332 $336 forward $89 $-1 #
coedge $-1 $141 $335 $337 $338 forward $89 $-1 #
coedge $-1 $234 $233 $141 $227 reversed $235 $-1 #
edge $-1 $339 -45.161342871007562 $340 45.161342871007562 $226 $341 forward 7 unknown #
coedge $-1 $143 $142 $342 $343 forward $56 $-1 #
coedge $-1 $344 $345 $142 $230 reversed $329 $-1 #
edge $-1 $237 -78.914761803033542 $346 78.914761803033542 $229 $347 forward 7 unknown #
coedge $-1 $223 $348 $143 $232 reversed $139 $-1 #
edge $-1 $349 -78.914761803033542 $236 78.914761803033542 $231 $350 forward 7 unknown #
coedge $-1 $226 $144 $348 $351 forward $235 $-1 #
coedge $-1 $144 $226 $344 $352 reversed $235 $-1 #
loop $-1 $-1 $233 $328 #
vertex $-1 $145 $353 #
vertex $-1 $145 $354 #
straight-curve $-1 78.914761803033542 0 12.754802555350363 0 1 0 I I #
face $-1 $355 $356 $34 $-1 $357 forward single #
loop $-1 $-1 $248 $146 #
plane-surface $-1 0 -45.161342871007562 0 0 1 0 0 0 1 forward_v I I I I #
coedge $-1 $358 $359 $360 $361 forward $147 $-1 #
coedge $-1 $360 $149 $151 $250 reversed $93 $-1 #
coedge $-1 $149 $360 $362 $363 reversed $93 $-1 #
coedge $-1 $364 $152 $149 $246 forward $252 $-1 #
edge $-1 $254 3.4379422562023443 $365 7.3572209514994604 $245 $366 forward 7 unknown #
coedge $-1 $151 $150 $358 $367 reversed $59 $-1 #
coedge $-1 $368 $369 $150 $249 forward $240 $-1 #
edge $-1 $370 -78.914761803033542 $253 78.914761803033542 $248 $371 forward 7 unknown #
edge $-1 $372 -78.914761803033542 $254 78.914761803033542 $243 $373 forward 7 unknown #
coedge $-1 $152 $364 $368 $374 forward $252 $-1 #
loop $-1 $-1 $245 $355 #
vertex $-1 $249 $375 #
vertex $-1 $153 $376 #
straight-curve $-1 78.914761803033542 -19.560951397188152 8.8355238600532466 0 1 0 I I #
face $-1 $377 $378 $35 $-1 $379 reversed single #
loop $-1 $-1 $269 $154 #
plane-surface $-1 78.914761803033542 0 0 -1 0 0 0 0 1 forward_v I I I I #
coedge $-1 $380 $381 $261 $382 forward $155 $-1 #
coedge $-1 $383 $157 $158 $265 reversed $97 $-1 #
coedge $-1 $157 $383 $259 $382 reversed $97 $-1 #
coedge $-1 $384 $385 $157 $263 forward $378 $-1 #
edge $-1 $386 3.4379422562023443 $387 7.3572209514994604 $262 $388 forward 7 unknown #
coedge $-1 $159 $158 $385 $389 reversed $62 $-1 #
edge $-1 $270 -78.914761803033542 $386 78.914761803033542 $260 $390 forward 7 unknown #
coedge $-1 $391 $392 $159 $267 forward $393 $-1 #
edge $-1 $271 -78.914761803033542 $394 78.914761803033542 $266 $395 forward 7 unknown #
coedge $-1 $396 $160 $392 $397 reversed $257 $-1 #
coedge $-1 $160 $396 $383 $398 forward $257 $-1 #
vertex $-1 $161 $399 #
vertex $-1 $267 $400 #
straight-curve $-1 78.914761803033542 19.560951397188155 8.8355238600532466 0 1 0 I I #
face $-1 $-1 $285 $36 $-1 $401 forward single #
loop $-1 $-1 $402 $162 #
plane-surface $-1 -78.914761803033542 0 0 1 0 0 0 0 -1 forward_v I I I I #
coedge $-1 $403 $404 $405 $406 reversed $163 $-1 #
coedge $-1 $407 $165 $167 $283 forward $101 $-1 #
coedge $-1 $165 $407 $403 $408 forward $101 $-1 #
coedge $-1 $405 $168 $165 $280 forward $285 $-1 #
edge $-1 $287 -1.6926536380361661 $409 9.8092242199641113 $279 $410 forward 7 unknown #
coedge $-1 $411 $412 $166 $282 forward $274 $-1 #
edge $-1 $413 -51.932740447600914 $286 -48.845513751573876 $281 $414 forward 7 unknown #
edge $-1 $287 -4.4442373273628437 $413 0 $167 $415 forward 7 unknown #
coedge $-1 $168 $405 $411 $416 forward $285 $-1 #
loop $-1 $-1 $405 $273 #
vertex $-1 $282 $417 #
vertex $-1 $169 $418 #
straight-curve $-1 -94.276181384772187 2.3656316529278065 12.754802555350366 1 0 0 I I #
coedge $-1 $289 $289 $-1 $419 reversed $172 $-1 #
edge $-1 $420 0 $420 6.2831853071796004 $173 $421 forward 7 unknown #
vertex $-1 $176 $422 #
ellipse-curve $-1 -77.316303424684023 4.6660072245278599 11.211189207336838 -0.69465837861970381 0 0.71933979245794832 0.35966989622897416 0 0.3473291893098519 1 I I #
coedge $-1 $293 $293 $-1 $423 reversed $179 $-1 #
edge $-1 $424 0 $424 6.2831853071796004 $180 $425 forward 7 unknown #
vertex $-1 $183 $426 #
ellipse-curve $-1 -77.316303424684023 8.1165705819279452 11.211189207336838 -0.69465837861970381 0 0.71933979245794832 0.35966989622897416 0 0.3473291893098519 1 I I #
coedge $-1 $297 $297 $-1 $427 reversed $186 $-1 #
edge $-1 $428 0 $428 6.2831853071796004 $187 $429 forward 7 unknown #
vertex $-1 $190 $430 #
ellipse-curve $-1 -77.316303424684023 11.567133939328031 11.211189207336838 -0.69465837861970381 0 0.71933979245794832 0.35966989622897416 0 0.3473291893098519 1 I I #
face $-1 $-1 $431 $40 $-1 $432 reversed single #
loop $-1 $-1 $197 $191 #
plane-surface $-1 0 0 12.754802555350363 0 0 1 1 0 0 forward_v I I I I #
coedge $-1 $433 $434 $435 $436 reversed $192 $-1 #
coedge $-1 $437 $194 $196 $311 forward $120 $-1 #
coedge $-1 $194 $437 $433 $438 forward $120 $-1 #
coedge $-1 $435 $197 $194 $308 forward $302 $-1 #
edge $-1 $314 -9.8092242199641113 $439 1.6926536380361661 $307 $440 forward 7 unknown #
coedge $-1 $441 $442 $195 $310 forward $431 $-1 #
edge $-1 $443 -106.75154093085632 $313 -103.66431423482929 $309 $444 forward 7 unknown #
edge $-1 $314 153.38528627870426 $443 157.82952360606708 $196 $445 forward 7 unknown #
coedge $-1 $197 $435 $441 $446 forward $302 $-1 #
vertex $-1 $310 $447 #
vertex $-1 $198 $448 #
straight-curve $-1 37.509653007509613 13.867509510928084 12.754802555350366 -1 0 0 I I #
coedge $-1 $316 $316 $-1 $449 reversed $201 $-1 #
edge $-1 $450 0 $450 6.2831853071796004 $202 $451 forward 7 unknown #
vertex $-1 $205 $452 #
ellipse-curve $-1 77.316303424684037 4.6660072245278599 11.211189207336851 0.69465837861970381 0 0.71933979245794832 0.35966989622897416 0 -0.3473291893098519 1 I I #
coedge $-1 $320 $320 $-1 $453 reversed $208 $-1 #
edge $-1 $454 0 $454 6.2831853071796004 $209 $455 forward 7 unknown #
vertex $-1 $212 $456 #
ellipse-curve $-1 77.316303424684037 8.1165705819279452 11.211189207336851 0.69465837861970381 0 0.71933979245794832 0.35966989622897416 0 -0.3473291893098519 1 I I #
coedge $-1 $324 $324 $-1 $457 reversed $215 $-1 #
edge $-1 $458 0 $458 6.2831853071796004 $216 $459 forward 7 unknown #
vertex $-1 $219 $460 #
ellipse-curve $-1 77.316303424684037 11.567133939328031 11.211189207336851 0.69465837861970381 0 0.71933979245794832 0.35966989622897416 0 -0.3473291893098519 1 I I #
face $-1 $-1 $235 $33 $-1 $461 reversed single #
loop $-1 $-1 $344 $220 #
plane-surface $-1 0 45.161342871007562 0 0 -1 0 0 0 -1 forward_v I I I I #
coedge $-1 $462 $342 $345 $463 forward $221 $-1 #
coedge $-1 $348 $223 $224 $336 reversed $139 $-1 #
coedge $-1 $342 $462 $223 $334 reversed $221 $-1 #
edge $-1 $349 -12.754802555350363 $464 12.754802555350363 $333 $465 forward 7 unknown #
coedge $-1 $225 $224 $462 $466 forward $89 $-1 #
edge $-1 $340 -78.914761803033542 $464 78.914761803033542 $332 $467 forward 7 unknown #
coedge $-1 $345 $344 $225 $338 reversed $329 $-1 #
edge $-1 $468 -78.914761803033542 $339 78.914761803033542 $337 $469 forward 7 unknown #
vertex $-1 $227 $470 #
vertex $-1 $351 $471 #
straight-curve $-1 78.914761803033542 0 -12.754802555350363 0 -1 0 I I #
coedge $-1 $331 $333 $228 $343 reversed $221 $-1 #
edge $-1 $346 -45.161342871007562 $349 45.161342871007562 $342 $472 forward 7 unknown #
coedge $-1 $337 $229 $234 $352 forward $329 $-1 #
coedge $-1 $229 $337 $331 $463 reversed $329 $-1 #
vertex $-1 $230 $473 #
straight-curve $-1 0 45.161342871007562 12.754802555350363 -1 0 0 I I #
coedge $-1 $231 $332 $233 $351 reversed $139 $-1 #
vertex $-1 $343 $474 #
straight-curve $-1 0 -45.161342871007562 12.754802555350363 1 0 0 I I #
edge $-1 $236 -12.754802555350363 $340 12.754802555350363 $233 $475 forward 7 unknown #
edge $-1 $237 -12.754802555350363 $339 12.754802555350363 $234 $476 forward 7 unknown #
point $-1 78.914761803033542 -45.161342871007562 12.754802555350363 #
point $-1 78.914761803033542 45.161342871007562 12.754802555350363 #
face $-1 $-1 $252 $34 $-1 $477 reversed single #
loop $-1 $-1 $362 $239 #
plane-surface $-1 0 0 12.754802555350363 0 0 1 1 0 0 forward_v I I I I #
coedge $-1 $478 $242 $247 $367 forward $147 $-1 #
coedge $-1 $242 $478 $479 $480 reversed $147 $-1 #
coedge $-1 $244 $243 $242 $361 reversed $93 $-1 #
edge $-1 $481 -7.3572209514994604 $372 -3.4379422562023443 $242 $482 forward 7 unknown #
coedge $-1 $479 $483 $244 $363 forward $356 $-1 #
edge $-1 $365 -78.914761803033542 $481 78.914761803033542 $362 $484 forward 7 unknown #
coedge $-1 $251 $245 $483 $485 reversed $252 $-1 #
vertex $-1 $246 $486 #
straight-curve $-1 78.914761803033542 -33.082462717745045 5.3975816038509024 0 0 1 I I #
edge $-1 $372 13.521511320556893 $370 25.60039147381941 $358 $487 forward 7 unknown #
coedge $-1 $488 $248 $251 $374 reversed $240 $-1 #
coedge $-1 $248 $488 $478 $489 forward $240 $-1 #
vertex $-1 $249 $490 #
straight-curve $-1 0 -45.161342871007562 8.8355238600532466 1 0 0 I I #
vertex $-1 $367 $491 #
straight-curve $-1 0 -33.082462717745045 8.8355238600532466 1 0 0 I I #
edge $-1 $492 -12.754802555350363 $253 -8.8355238600532466 $251 $493 forward 7 unknown #
point $-1 78.914761803033542 -45.161342871007562 8.8355238600532466 #
point $-1 78.914761803033542 -33.082462717745045 8.8355238600532466 #
face $-1 $-1 $393 $35 $-1 $494 reversed single #
loop $-1 $-1 $262 $256 #
plane-surface $-1 -78.914761803033542 0 0 1 0 0 0 0 -1 forward_v I I I I #
coedge $-1 $495 $259 $396 $496 forward $155 $-1 #
coedge $-1 $259 $495 $384 $497 forward $155 $-1 #
edge $-1 $387 -78.914761803033542 $498 78.914761803033542 $259 $499 forward 7 unknown #
coedge $-1 $261 $260 $269 $398 reversed $97 $-1 #
coedge $-1 $500 $262 $381 $497 reversed $378 $-1 #
coedge $-1 $262 $500 $264 $389 forward $378 $-1 #
vertex $-1 $389 $501 #
vertex $-1 $263 $502 #
straight-curve $-1 -78.914761803033542 33.082462717745052 5.3975816038509024 0 0 1 I I #
edge $-1 $394 -25.600391473819414 $386 -13.521511320556897 $385 $503 forward 7 unknown #
straight-curve $-1 0 33.082462717745052 8.8355238600532466 -1 0 0 I I #
coedge $-1 $504 $266 $500 $505 reversed $393 $-1 #
coedge $-1 $266 $504 $268 $397 forward $393 $-1 #
loop $-1 $-1 $266 $377 #
vertex $-1 $267 $506 #
straight-curve $-1 0 45.161342871007562 8.8355238600532466 -1 0 0 I I #
coedge $-1 $269 $268 $380 $496 reversed $257 $-1 #
edge $-1 $507 -12.754802555350363 $271 -8.8355238600532466 $268 $508 forward 7 unknown #
edge $-1 $498 -7.3572209514994604 $270 -3.4379422562023443 $269 $509 forward 7 unknown #
point $-1 78.914761803033542 33.082462717745052 8.8355238600532466 #
point $-1 78.914761803033542 45.161342871007569 8.8355238600532466 #
plane-surface $-1 0 0 12.754802555350363 0 0 1 1 0 0 forward_v I I I I #
coedge $-1 $412 $411 $404 $510 forward $274 $-1 #
coedge $-1 $404 $276 $278 $408 reversed $163 $-1 #
coedge $-1 $276 $403 $402 $510 reversed $163 $-1 #
coedge $-1 $284 $279 $276 $406 forward $285 $-1 #
edge $-1 $409 -18.558336338437698 $511 -15.361419581738645 $405 $512 forward 7 unknown #
coedge $-1 $278 $277 $412 $513 reversed $101 $-1 #
edge $-1 $514 0 $409 4.4442373273628437 $403 $515 forward 7 unknown #
vertex $-1 $280 $516 #
straight-curve $-1 -75.717845046334475 4.0582852909639726 12.754802555350363 0 1 0 I I #
coedge $-1 $402 $281 $284 $416 reversed $274 $-1 #
coedge $-1 $281 $402 $407 $513 forward $274 $-1 #
vertex $-1 $282 $517 #
straight-curve $-1 -78.914761803033542 2.3656316529278065 61.600316306924235 0 0 1 I I #
straight-curve $-1 -78.914761803033542 2.3656316529278065 9.6675758593233212 -0.71933979245794832 0 -0.69465837861970381 I I #
edge $-1 $511 -13.867509510928084 $286 -2.3656316529278065 $411 $518 forward 7 unknown #
point $-1 -78.914761803033542 2.3656316529278065 12.754802555350363 #
point $-1 -75.717845046334489 2.3656316529278065 12.754802555350363 #
edge $-1 $519 1 $519 0 $289 $-1 forward 7 unknown #
vertex $-1 $290 $520 #
ellipse-curve $-1 -76.539516485049489 4.6660072245278599 10.406802802250889 -0.69465837861970381 0 0.71933979245794832 0.35966989622897416 0 0.3473291893098519 1 I I #
point $-1 -76.956633528455043 4.6660072245278599 11.558518396646702 #
edge $-1 $521 1 $521 0 $293 $-1 forward 7 unknown #
vertex $-1 $294 $522 #
ellipse-curve $-1 -76.539516485049489 8.1165705819279452 10.406802802250889 -0.69465837861970381 0 0.71933979245794832 0.35966989622897416 0 0.3473291893098519 1 I I #
point $-1 -76.956633528455043 8.1165705819279452 11.558518396646702 #
edge $-1 $523 1 $523 0 $297 $-1 forward 7 unknown #
vertex $-1 $298 $524 #
ellipse-curve $-1 -76.539516485049489 11.567133939328031 10.406802802250889 -0.69465837861970381 0 0.71933979245794832 0.35966989622897416 0 0.3473291893098519 1 I I #
point $-1 -76.956633528455043 11.567133939328031 11.558518396646702 #
loop $-1 $-1 $309 $301 #
plane-surface $-1 78.914761803033542 0 0 -1 0 0 0 0 1 forward_v I I I I #
coedge $-1 $434 $304 $306 $438 reversed $192 $-1 #
coedge $-1 $304 $433 $525 $526 reversed $192 $-1 #
coedge $-1 $312 $307 $304 $436 forward $302 $-1 #
edge $-1 $439 38.20819203882489 $527 41.40510879552393 $435 $528 forward 7 unknown #
coedge $-1 $306 $305 $442 $529 reversed $120 $-1 #
edge $-1 $530 -157.82952360606708 $439 -153.38528627870426 $433 $531 forward 7 unknown #
vertex $-1 $308 $532 #
straight-curve $-1 75.717845046334503 4.0582852909639726 12.754802555350352 0 -1 0 I I #
coedge $-1 $525 $309 $312 $446 reversed $431 $-1 #
coedge $-1 $309 $525 $437 $529 forward $431 $-1 #
vertex $-1 $310 $533 #
straight-curve $-1 78.914761803033542 13.867509510928084 116.41911679017966 0 0 1 I I #
straight-curve $-1 -34.618294951491606 13.867509510928084 119.30517682583417 0.71933979245794832 0 -0.69465837861970381 I I #
edge $-1 $527 2.3656316529278065 $313 13.867509510928084 $441 $534 forward 7 unknown #
point $-1 78.914761803033542 13.867509510928084 12.754802555350363 #
point $-1 75.717845046334503 13.867509510928084 12.754802555350366 #
edge $-1 $535 1 $535 0 $316 $-1 forward 7 unknown #
vertex $-1 $317 $536 #
ellipse-curve $-1 76.539516485049489 4.6660072245278599 10.406802802250882 0.69465837861970381 0 0.71933979245794832 0.35966989622897416 0 -0.3473291893098519 1 I I #
point $-1 77.675973320913002 4.6660072245278599 10.86386001802699 #
edge $-1 $537 1 $537 0 $320 $-1 forward 7 unknown #
vertex $-1 $321 $538 #
ellipse-curve $-1 76.539516485049489 8.1165705819279452 10.406802802250882 0.69465837861970381 0 0.71933979245794832 0.35966989622897416 0 -0.3473291893098519 1 I I #
point $-1 77.675973320913002 8.1165705819279452 10.86386001802699 #
edge $-1 $539 1 $539 0 $324 $-1 forward 7 unknown #
vertex $-1 $325 $540 #
ellipse-curve $-1 76.539516485049489 11.567133939328031 10.406802802250882 0.69465837861970381 0 0.71933979245794832 0.35966989622897416 0 -0.3473291893098519 1 I I #
point $-1 77.675973320913002 11.567133939328031 10.86386001802699 #
plane-surface $-1 78.914761803033542 0 0 -1 0 0 0 0 1 forward_v I I I I #
coedge $-1 $333 $331 $335 $466 reversed $221 $-1 #
edge $-1 $346 -12.754802555350363 $468 12.754802555350363 $345 $541 forward 7 unknown #
vertex $-1 $466 $542 #
straight-curve $-1 -78.914761803033542 -45.161342871007562 0 0 0 -1 I I #
edge $-1 $464 -45.161342871007562 $468 45.161342871007562 $462 $543 forward 7 unknown #
straight-curve $-1 0 -45.161342871007562 -12.754802555350363 -1 0 0 I I #
vertex $-1 $338 $544 #
straight-curve $-1 0 45.161342871007562 -12.754802555350363 1 0 0 I I #
point $-1 78.914761803033542 45.161342871007562 -12.754802555350363 #
point $-1 78.914761803033542 -45.161342871007562 -12.754802555350363 #
straight-curve $-1 -78.914761803033542 0 12.754802555350363 0 -1 0 I I #
point $-1 -78.914761803033542 45.161342871007562 12.754802555350363 #
point $-1 -78.914761803033542 -45.161342871007562 12.754802555350363 #
straight-curve $-1 78.914761803033542 -45.161342871007562 0 0 0 -1 I I #
straight-curve $-1 78.914761803033542 45.161342871007562 0 0 0 -1 I I #
plane-surface $-1 78.914761803033542 0 0 -1 0 0 0 0 1 forward_v I I I I #
coedge $-1 $359 $358 $369 $489 reversed $147 $-1 #
coedge $-1 $545 $362 $359 $480 forward $356 $-1 #
edge $-1 $481 33.082462717745045 $546 45.161342871007562 $359 $547 forward 7 unknown #
vertex $-1 $480 $548 #
straight-curve $-1 -78.914761803033542 -33.082462717745045 5.3975816038509024 0 0 -1 I I #
coedge $-1 $362 $545 $364 $485 forward $356 $-1 #
straight-curve $-1 0 -33.082462717745045 12.754802555350363 -1 0 0 I I #
edge $-1 $492 -45.161342871007562 $365 -33.082462717745045 $364 $549 forward 7 unknown #
point $-1 78.914761803033542 -33.082462717745045 12.754802555350363 #
straight-curve $-1 -78.914761803033542 -19.560951397188152 8.8355238600532466 0 -1 0 I I #
coedge $-1 $369 $368 $545 $550 reversed $240 $-1 #
edge $-1 $546 -12.754802555350363 $370 -8.8355238600532466 $478 $551 forward 7 unknown #
point $-1 -78.914761803033542 -45.161342871007562 8.8355238600532466 #
point $-1 -78.914761803033542 -33.082462717745045 8.8355238600532466 #
vertex $-1 $485 $552 #
straight-curve $-1 78.914761803033542 -45.161342871007562 0 0 0 -1 I I #
plane-surface $-1 0 45.161342871007562 0 0 -1 0 0 0 -1 forward_v I I I I #
coedge $-1 $381 $380 $504 $553 forward $155 $-1 #
edge $-1 $498 33.082462717745052 $507 45.161342871007562 $396 $554 forward 7 unknown #
edge $-1 $555 -45.161342871007562 $387 -33.082462717745052 $384 $556 forward 7 unknown #
vertex $-1 $496 $557 #
straight-curve $-1 0 33.082462717745052 12.754802555350363 1 0 0 I I #
coedge $-1 $385 $384 $391 $505 forward $378 $-1 #
point $-1 -78.914761803033542 33.082462717745052 8.8355238600532466 #
point $-1 -78.914761803033542 33.082462717745052 12.754802555350363 #
straight-curve $-1 -78.914761803033542 19.560951397188155 8.8355238600532466 0 -1 0 I I #
coedge $-1 $392 $391 $495 $553 reversed $393 $-1 #
edge $-1 $555 -12.754802555350363 $394 -8.8355238600532466 $391 $558 forward 7 unknown #
point $-1 -78.914761803033542 45.161342871007569 8.8355238600532466 #
vertex $-1 $496 $559 #
straight-curve $-1 78.914761803033542 45.161342871007562 0 0 0 -1 I I #
straight-curve $-1 78.914761803033542 33.082462717745052 5.3975816038509024 0 0 -1 I I #
edge $-1 $511 48.845513751573876 $514 51.932740447600914 $402 $560 forward 7 unknown #
vertex $-1 $416 $561 #
straight-curve $-1 -94.276181384772187 13.867509510928084 12.754802555350366 -1 0 0 I I #
edge $-1 $514 -9.8092242199641113 $413 1.6926536380361661 $412 $562 forward 7 unknown #
vertex $-1 $513 $563 #
straight-curve $-1 -78.914761803033542 13.867509510928084 9.6675758593233212 0.71933979245794832 0 0.69465837861970381 I I #
point $-1 -75.717845046334489 13.867509510928084 12.754802555350363 #
point $-1 -78.914761803033542 2.3656316529278065 9.6675758593233212 #
straight-curve $-1 -78.914761803033542 0 12.754802555350363 0 -1 0 I I #
vertex $-1 $419 $564 #
point $-1 -76.179846588820524 4.6660072245278599 10.75413199156074 #
vertex $-1 $423 $565 #
point $-1 -76.179846588820524 8.1165705819279452 10.75413199156074 #
vertex $-1 $427 $566 #
point $-1 -76.179846588820524 11.567133939328031 10.75413199156074 #
coedge $-1 $442 $441 $434 $526 forward $431 $-1 #
edge $-1 $527 103.66431423482929 $530 106.75154093085632 $525 $567 forward 7 unknown #
vertex $-1 $446 $568 #
straight-curve $-1 37.509653007509613 2.3656316529278065 12.754802555350366 1 0 0 I I #
edge $-1 $530 -1.6926536380361661 $443 9.8092242199641113 $442 $569 forward 7 unknown #
vertex $-1 $529 $570 #
straight-curve $-1 -34.618294951491606 2.3656316529278065 119.30517682583417 -0.71933979245794832 0 0.69465837861970381 I I #
point $-1 75.717845046334503 2.3656316529278065 12.754802555350366 #
point $-1 78.914761803033542 13.867509510928084 9.6675758593233354 #
straight-curve $-1 78.914761803033542 0 12.754802555350363 0 1 0 I I #
vertex $-1 $449 $571 #
point $-1 76.899186381278469 4.6660072245278599 10.059473612941028 #
vertex $-1 $453 $572 #
point $-1 76.899186381278469 8.1165705819279452 10.059473612941028 #
vertex $-1 $457 $573 #
point $-1 76.899186381278469 11.567133939328031 10.059473612941028 #
straight-curve $-1 -78.914761803033542 45.161342871007562 0 0 0 -1 I I #
point $-1 -78.914761803033542 -45.161342871007562 -12.754802555350363 #
straight-curve $-1 -78.914761803033542 0 -12.754802555350363 0 1 0 I I #
point $-1 -78.914761803033542 45.161342871007562 -12.754802555350363 #
coedge $-1 $483 $479 $488 $550 forward $356 $-1 #
vertex $-1 $480 $574 #
straight-curve $-1 -78.914761803033542 0 12.754802555350363 0 -1 0 I I #
point $-1 -78.914761803033542 -33.082462717745045 12.754802555350363 #
straight-curve $-1 78.914761803033542 0 12.754802555350363 0 1 0 I I #
edge $-1 $546 -78.914761803033542 $492 78.914761803033542 $488 $575 forward 7 unknown #
straight-curve $-1 -78.914761803033542 -45.161342871007562 0 0 0 -1 I I #
point $-1 78.914761803033542 -45.161342871007562 12.754802555350363 #
edge $-1 $507 -78.914761803033542 $555 78.914761803033542 $504 $576 forward 7 unknown #
straight-curve $-1 78.914761803033542 0 12.754802555350363 0 1 0 I I #
vertex $-1 $553 $577 #
straight-curve $-1 -78.914761803033542 0 12.754802555350363 0 -1 0 I I #
point $-1 78.914761803033542 33.082462717745052 12.754802555350363 #
straight-curve $-1 -78.914761803033542 45.161342871007562 0 0 0 -1 I I #
point $-1 78.914761803033542 45.161342871007562 12.754802555350363 #
straight-curve $-1 -78.914761803033542 13.867509510928084 61.600316306924235 0 0 -1 I I #
point $-1 -78.914761803033542 13.867509510928084 12.754802555350363 #
straight-curve $-1 -78.914761803033542 4.0582852909639726 9.6675758593233265 0 -1 0 I I #
point $-1 -78.914761803033542 13.867509510928084 9.6675758593233212 #
point $-1 -76.192187295739643 4.6660072245278599 10.047132906021913 #
point $-1 -76.192187295739643 8.1165705819279452 10.047132906021913 #
point $-1 -76.192187295739643 11.567133939328031 10.047132906021913 #
straight-curve $-1 78.914761803033542 2.3656316529278065 116.41911679017966 0 0 -1 I I #
point $-1 78.914761803033542 2.3656316529278065 12.754802555350363 #
straight-curve $-1 78.914761803033542 4.0582852909639726 9.6675758593233496 0 1 0 I I #
point $-1 78.914761803033542 2.3656316529278065 9.6675758593233354 #
point $-1 76.192187295739643 4.6660072245278599 10.047132906021906 #
point $-1 76.192187295739643 8.1165705819279452 10.047132906021906 #
point $-1 76.192187295739643 11.567133939328031 10.047132906021906 #
point $-1 -78.914761803033542 -45.161342871007562 12.754802555350363 #
straight-curve $-1 0 -45.161342871007562 12.754802555350363 1 0 0 I I #
straight-curve $-1 0 45.161342871007562 12.754802555350363 -1 0 0 I I #
point $-1 -78.914761803033542 45.161342871007562 12.754802555350363 #
End-of-ACIS-data 