500 0 8 0           
7 Unknown 11 ACIS 5.0 NT 24 Fri Mar 26 15:20:37 1999 
-1 9.9999999999999995e-007 1e-010 
body $-1 $8 $-1 $9 #
body $-1 $10 $-1 $11 #
body $-1 $12 $-1 $13 #
body $-1 $14 $-1 $15 #
body $-1 $16 $-1 $17 #
body $-1 $18 $-1 $19 #
body $-1 $20 $-1 $21 #
body $-1 $22 $-1 $23 #
lump $-1 $-1 $24 $0 #
transform $-1 1 0 0 0 1 0 0 0 1 46.894741660817289 27.795227673133429 7.2892596489761914 1 rotate no_reflect no_shear #
lump $-1 $-1 $25 $1 #
transform $-1 1 0 0 0 1 0 0 0 1 46.894741660817289 27.795227673133429 7.2892596489761914 1 rotate no_reflect no_shear #
lump $-1 $-1 $26 $2 #
transform $-1 1 0 0 0 1 0 0 0 1 46.894741660817289 27.795227673133429 7.2892596489761914 1 rotate no_reflect no_shear #
lump $-1 $-1 $27 $3 #
transform $-1 1 0 0 0 1 0 0 0 1 46.894741660817289 27.795227673133429 7.2892596489761914 1 rotate no_reflect no_shear #
lump $-1 $-1 $28 $4 #
transform $-1 1 0 0 0 1 0 0 0 1 46.894741660817289 27.795227673133429 7.2892596489761914 1 rotate no_reflect no_shear #
lump $-1 $-1 $29 $5 #
transform $-1 1 0 0 0 1 0 0 0 1 46.894741660817289 27.795227673133429 7.2892596489761914 1 rotate no_reflect no_shear #
lump $-1 $-1 $30 $6 #
transform $-1 1 0 0 0 1 0 0 0 1 46.894741660817289 27.795227673133429 7.2892596489761914 1 rotate no_reflect no_shear #
lump $-1 $-1 $31 $7 #
transform $-1 1 0 0 0 1 0 0 0 1 46.894741660817289 27.795227673133429 7.2892596489761914 1 rotate no_reflect no_shear #
shell $-1 $-1 $-1 $32 $-1 $8 #
shell $-1 $-1 $-1 $33 $-1 $10 #
shell $-1 $-1 $-1 $34 $-1 $12 #
shell $-1 $-1 $-1 $35 $-1 $14 #
shell $-1 $-1 $-1 $36 $-1 $16 #
shell $-1 $-1 $-1 $37 $-1 $18 #
shell $-1 $-1 $-1 $38 $-1 $20 #
shell $-1 $-1 $-1 $39 $-1 $22 #
face $-1 $40 $41 $24 $-1 $42 forward single #
face $-1 $43 $44 $25 $-1 $45 forward single #
face $-1 $46 $47 $26 $-1 $48 forward single #
face $-1 $49 $50 $27 $-1 $51 reversed single #
face $-1 $52 $53 $28 $-1 $54 forward single #
face $-1 $55 $56 $29 $-1 $57 forward single #
face $-1 $58 $59 $30 $-1 $60 reversed single #
face $-1 $61 $62 $31 $-1 $63 forward single #
face $-1 $64 $65 $24 $-1 $66 reversed single #
loop $-1 $-1 $67 $32 #
plane-surface $-1 0 0 7.2892596489761914 0 0 1 1 0 0 forward_v I I I I #
face $-1 $68 $69 $25 $-1 $70 reversed single #
loop $-1 $-1 $71 $33 #
plane-surface $-1 -42.911978904603757 0 3.7991313154126765 0 0 1 1 0 0 forward_v I I I I #
face $-1 $72 $73 $26 $-1 $74 reversed single #
loop $-1 $-1 $75 $34 #
plane-surface $-1 42.911978904603757 0 3.7991313154126765 0 0 1 1 0 0 forward_v I I I I #
face $-1 $76 $77 $27 $-1 $78 reversed single #
loop $-1 $-1 $79 $35 #
plane-surface $-1 14.78169424979162 -82.923303494017219 79.91351183699183 1 0 0 0 0.5877852598018023 -0.80901698891910034 forward_v I I I I #
face $-1 $80 $81 $28 $-1 $82 forward single #
loop $-1 $83 $84 $36 #
cone-surface $-1 20.481063606371634 -25.15414050918082 5.1089156509468623 0 0.5877852598018023 -0.80901698891910034 0.5 0 0 1 I I 0 1 0.5 forward I I I I #
face $-1 $85 $86 $29 $-1 $87 forward single #
loop $-1 $88 $89 $37 #
cone-surface $-1 29.030117641241674 -25.15414050918082 5.1089156509468623 0 0.5877852598018023 -0.80901698891910034 0.5 0 0 1 I I 0 1 0.5 forward I I I I #
face $-1 $90 $91 $30 $-1 $92 reversed single #
loop $-1 $-1 $93 $38 #
plane-surface $-1 21.493978250416689 58.47591535989379 106.01296130304024 -1 0 0 0 0.73135370988377701 0.68199835119979291 forward_v I I I I #
face $-1 $94 $95 $31 $-1 $96 forward single #
loop $-1 $97 $98 $39 #
cone-surface $-1 11.181246693274694 23.658150116636801 3.0468512652360666 0 -0.73135370988377701 -0.68199835119979291 2 0 0 1 I I 0 1 2 forward I I I I #
face $-1 $99 $100 $24 $-1 $101 reversed single #
loop $-1 $-1 $102 $40 #
plane-surface $-1 0 0 -7.2892596489761914 0 0 1 1 0 0 forward_v I I I I #
coedge $-1 $103 $104 $105 $106 forward $41 $-1 #
face $-1 $107 $108 $25 $-1 $109 reversed single #
loop $-1 $-1 $110 $43 #
plane-surface $-1 -42.911978904603757 0 0.79913131541267646 0 0 1 1 0 0 forward_v I I I I #
coedge $-1 $111 $112 $113 $114 forward $44 $-1 #
face $-1 $115 $116 $26 $-1 $117 reversed single #
loop $-1 $-1 $118 $46 #
plane-surface $-1 42.911978904603757 0 0.79913131541267646 0 0 1 1 0 0 forward_v I I I I #
coedge $-1 $119 $120 $121 $122 reversed $47 $-1 #
face $-1 $123 $124 $27 $-1 $125 reversed single #
loop $-1 $-1 $126 $49 #
plane-surface $-1 24.755590623806654 -27.795227673133432 4.0362264478448395 0 -0.5877852598018023 0.80901698891910034 1 0 0 forward_v I I I I #
coedge $-1 $127 $128 $129 $130 reversed $50 $-1 #
face $-1 $-1 $131 $28 $-1 $132 forward single #
loop $-1 $133 $134 $52 #
cone-surface $-1 20.481063606371634 -24.604815028944284 4.352834006253433 0 0.5877852598018023 -0.80901698891910034 0.25 0 0 1 I I -0.70710678118654746 0.70710678118654746 0.25 forward I I I I #
loop $-1 $-1 $135 $36 #
coedge $-1 $84 $84 $136 $137 reversed $53 $-1 #
face $-1 $-1 $138 $29 $-1 $139 forward single #
loop $-1 $140 $141 $55 #
cone-surface $-1 29.030117641241674 -24.604815028944284 4.352834006253433 0 0.5877852598018023 -0.80901698891910034 0.25 0 0 1 I I -0.70710678118654746 0.70710678118654746 0.25 forward I I I I #
loop $-1 $-1 $142 $37 #
coedge $-1 $89 $89 $143 $144 reversed $56 $-1 #
face $-1 $145 $146 $30 $-1 $147 reversed single #
loop $-1 $-1 $148 $58 #
plane-surface $-1 11.181246693274694 -10.117371215466292 42.048688317804988 0 0.73135370988377701 0.68199835119979291 1 0 0 forward_v I I I I #
coedge $-1 $149 $150 $151 $152 reversed $59 $-1 #
face $-1 $-1 $153 $31 $-1 $154 forward single #
loop $-1 $155 $156 $61 #
cone-surface $-1 11.181246693274694 21.539172878707294 1.0708730716921124 0 -0.73135370988377701 -0.68199835119979291 1 0 0 1 I I -0.70710678118654746 0.70710678118654746 1 forward I I I I #
loop $-1 $-1 $157 $39 #
coedge $-1 $98 $98 $158 $159 reversed $62 $-1 #
face $-1 $160 $161 $24 $-1 $162 reversed single #
loop $-1 $-1 $163 $64 #
plane-surface $-1 0 -27.795227673133429 0 0 1 0 0 0 1 forward_v I I I I #
coedge $-1 $164 $165 $166 $167 forward $65 $-1 #
coedge $-1 $168 $67 $169 $170 forward $41 $-1 #
coedge $-1 $67 $168 $171 $172 forward $41 $-1 #
coedge $-1 $173 $174 $67 $106 reversed $175 $-1 #
edge $-1 $176 -27.795227673133429 $177 27.795227673133429 $105 $178 forward 7 unknown #
face $-1 $179 $180 $25 $-1 $181 reversed single #
loop $-1 $-1 $182 $68 #
plane-surface $-1 -38.929216148390225 0 2.2991313154126765 -1 0 0 0 0 1 forward_v I I I I #
coedge $-1 $183 $184 $185 $186 forward $69 $-1 #
coedge $-1 $187 $71 $188 $189 reversed $44 $-1 #
coedge $-1 $71 $187 $190 $191 reversed $44 $-1 #
coedge $-1 $182 $192 $71 $114 reversed $108 $-1 #
edge $-1 $193 -27.795227673133429 $194 27.795227673133429 $113 $195 forward 7 unknown #
face $-1 $196 $197 $26 $-1 $198 reversed single #
loop $-1 $-1 $199 $72 #
plane-surface $-1 38.929216148390225 0 2.2991313154126765 1 0 0 0 0 -1 forward_v I I I I #
coedge $-1 $200 $201 $202 $203 reversed $73 $-1 #
coedge $-1 $204 $75 $205 $206 reversed $47 $-1 #
coedge $-1 $75 $204 $207 $208 reversed $47 $-1 #
coedge $-1 $209 $210 $75 $122 forward $211 $-1 #
edge $-1 $212 -27.795227673133429 $213 27.795227673133429 $121 $214 forward 7 unknown #
face $-1 $215 $216 $27 $-1 $217 forward single #
loop $-1 $-1 $218 $76 #
plane-surface $-1 34.729486997821688 -82.923303494017219 79.91351183699183 -1 0 0 0 -0.5877852598018023 0.80901698891910034 forward_v I I I I #
coedge $-1 $219 $220 $221 $222 reversed $77 $-1 #
coedge $-1 $128 $79 $223 $224 reversed $50 $-1 #
coedge $-1 $79 $127 $219 $225 reversed $50 $-1 #
coedge $-1 $221 $226 $79 $130 forward $227 $-1 #
edge $-1 $228 32.667496269519724 $229 35.920529470651076 $129 $230 forward 7 unknown #
loop $-1 $-1 $136 $80 #
plane-surface $-1 24.755590623806654 -27.795227673133432 4.0362264478448395 0 -0.5877852598018023 0.80901698891910034 1 0 0 forward_v I I I I #
loop $-1 $-1 $231 $52 #
coedge $-1 $134 $134 $135 $232 reversed $81 $-1 #
coedge $-1 $135 $135 $134 $232 forward $83 $-1 #
coedge $-1 $136 $136 $84 $137 forward $131 $-1 #
edge $-1 $233 -1.0441163663475846e-015 $233 6.2831853071795996 $136 $234 forward 7 unknown #
loop $-1 $-1 $143 $85 #
plane-surface $-1 24.755590623806654 -27.795227673133432 4.0362264478448395 0 -0.5877852598018023 0.80901698891910034 1 0 0 forward_v I I I I #
loop $-1 $-1 $235 $55 #
coedge $-1 $141 $141 $142 $236 reversed $86 $-1 #
coedge $-1 $142 $142 $141 $236 forward $88 $-1 #
coedge $-1 $143 $143 $89 $144 forward $138 $-1 #
edge $-1 $237 -1.0441163663475846e-015 $237 6.2831853071795996 $143 $238 forward 7 unknown #
face $-1 $239 $240 $30 $-1 $241 reversed single #
loop $-1 $-1 $242 $90 #
plane-surface $-1 0.86851513613270015 58.47591535989379 106.01296130304024 1 0 0 0 -0.73135370988377701 -0.68199835119979291 forward_v I I I I #
coedge $-1 $243 $244 $245 $246 reversed $91 $-1 #
coedge $-1 $150 $93 $247 $248 reversed $59 $-1 #
coedge $-1 $93 $149 $243 $249 reversed $59 $-1 #
coedge $-1 $245 $250 $93 $152 forward $240 $-1 #
edge $-1 $251 45.71722100254393 $252 51.614078085335855 $151 $253 forward 7 unknown #
loop $-1 $-1 $158 $94 #
plane-surface $-1 11.181246693274694 -10.117371215466292 42.048688317804988 0 0.73135370988377701 0.68199835119979291 1 0 0 forward_v I I I I #
loop $-1 $-1 $254 $61 #
coedge $-1 $156 $156 $157 $255 reversed $95 $-1 #
coedge $-1 $157 $157 $156 $255 forward $97 $-1 #
coedge $-1 $158 $158 $98 $159 forward $153 $-1 #
edge $-1 $256 -5.6189985332704921e-016 $256 6.2831853071795996 $158 $257 forward 7 unknown #
face $-1 $258 $259 $24 $-1 $260 reversed single #
loop $-1 $-1 $261 $99 #
plane-surface $-1 -46.894741660817289 0 0 1 0 0 0 0 -1 forward_v I I I I #
coedge $-1 $262 $171 $263 $264 forward $100 $-1 #
coedge $-1 $265 $102 $262 $266 forward $65 $-1 #
coedge $-1 $102 $265 $267 $268 forward $65 $-1 #
coedge $-1 $174 $173 $102 $167 reversed $175 $-1 #
edge $-1 $269 -27.795227673133429 $270 27.795227673133429 $166 $271 forward 7 unknown #
coedge $-1 $104 $103 $272 $273 forward $41 $-1 #
coedge $-1 $274 $275 $103 $170 reversed $259 $-1 #
edge $-1 $177 -46.894741660817289 $276 46.894741660817289 $169 $277 forward 7 unknown #
coedge $-1 $163 $278 $104 $172 reversed $100 $-1 #
edge $-1 $279 -46.894741660817289 $176 46.894741660817289 $171 $280 forward 7 unknown #
coedge $-1 $166 $105 $278 $281 forward $175 $-1 #
coedge $-1 $105 $166 $274 $282 reversed $175 $-1 #
loop $-1 $-1 $173 $258 #
vertex $-1 $106 $283 #
vertex $-1 $106 $284 #
straight-curve $-1 46.894741660817289 0 7.2892596489761914 0 1 0 I I #
face $-1 $285 $286 $25 $-1 $287 reversed single #
loop $-1 $-1 $288 $107 #
plane-surface $-1 0 -27.795227673133429 0 0 1 0 0 0 1 forward_v I I I I #
coedge $-1 $185 $113 $289 $290 reversed $108 $-1 #
coedge $-1 $291 $110 $288 $292 reversed $69 $-1 #
coedge $-1 $110 $291 $293 $294 reversed $69 $-1 #
coedge $-1 $192 $182 $110 $186 reversed $108 $-1 #
edge $-1 $295 -27.795227673133429 $296 27.795227673133429 $185 $297 forward 7 unknown #
coedge $-1 $112 $111 $298 $299 reversed $44 $-1 #
coedge $-1 $300 $301 $111 $189 forward $302 $-1 #
edge $-1 $303 -25.43875220851541 $194 -17.473226696088346 $188 $304 forward 7 unknown #
coedge $-1 $305 $289 $112 $191 forward $180 $-1 #
edge $-1 $193 17.473226696088346 $306 25.43875220851541 $190 $307 forward 7 unknown #
coedge $-1 $113 $185 $300 $308 reversed $108 $-1 #
vertex $-1 $191 $309 #
vertex $-1 $189 $310 #
straight-curve $-1 -38.929216148390225 0 3.7991313154126765 0 1 0 I I #
face $-1 $311 $312 $26 $-1 $313 reversed single #
loop $-1 $-1 $207 $115 #
plane-surface $-1 0 -27.795227673133429 0 0 1 0 0 0 1 forward_v I I I I #
coedge $-1 $314 $315 $316 $317 reversed $116 $-1 #
coedge $-1 $318 $118 $319 $320 reversed $73 $-1 #
coedge $-1 $118 $318 $321 $322 reversed $73 $-1 #
coedge $-1 $210 $209 $118 $203 forward $211 $-1 #
edge $-1 $323 -27.795227673133429 $324 27.795227673133429 $202 $325 forward 7 unknown #
coedge $-1 $120 $119 $315 $326 forward $47 $-1 #
coedge $-1 $327 $316 $119 $206 forward $312 $-1 #
edge $-1 $328 17.473226696088346 $212 25.43875220851541 $205 $329 forward 7 unknown #
coedge $-1 $330 $331 $120 $208 forward $197 $-1 #
edge $-1 $213 -25.43875220851541 $332 -17.473226696088346 $207 $333 forward 7 unknown #
coedge $-1 $202 $121 $331 $334 forward $211 $-1 #
coedge $-1 $121 $202 $327 $335 reversed $211 $-1 #
loop $-1 $-1 $121 $311 #
vertex $-1 $335 $336 #
vertex $-1 $334 $337 #
straight-curve $-1 46.894741660817289 0 3.7991313154126765 0 -1 0 I I #
face $-1 $-1 $227 $27 $-1 $338 reversed single #
loop $-1 $-1 $339 $123 #
plane-surface $-1 0 0 7.2892596489761914 0 0 1 1 0 0 forward_v I I I I #
coedge $-1 $340 $341 $342 $343 reversed $124 $-1 #
coedge $-1 $344 $126 $128 $225 forward $77 $-1 #
coedge $-1 $126 $344 $340 $345 forward $77 $-1 #
coedge $-1 $342 $129 $126 $222 forward $227 $-1 #
edge $-1 $229 2.4038989378882931 $346 22.351691685918361 $221 $347 forward 7 unknown #
coedge $-1 $348 $349 $127 $224 forward $216 $-1 #
edge $-1 $350 -18.143840071208221 $228 -13.666424073875181 $223 $351 forward 7 unknown #
edge $-1 $229 4.4403802724362578e-015 $350 5.5343905735714696 $128 $352 forward 7 unknown #
coedge $-1 $129 $342 $348 $353 reversed $227 $-1 #
loop $-1 $-1 $342 $215 #
vertex $-1 $353 $354 #
vertex $-1 $130 $355 #
straight-curve $-1 14.78169424979162 -27.795227673133429 39.956755918495915 0 0 -1 I I #
coedge $-1 $231 $231 $-1 $356 reversed $133 $-1 #
edge $-1 $357 0 $357 6.2831853071796004 $134 $358 forward 7 unknown #
vertex $-1 $137 $359 #
ellipse-curve $-1 20.481063606371634 -25.556519674466905 5.6627430484105181 0 -0.5877852598018023 0.80901698891910034 0.5 0 0 1 I I #
coedge $-1 $235 $235 $-1 $360 reversed $140 $-1 #
edge $-1 $361 0 $361 6.2831853071796004 $141 $362 forward 7 unknown #
vertex $-1 $144 $363 #
ellipse-curve $-1 29.030117641241674 -25.556519674466905 5.6627430484105181 0 -0.5877852598018023 0.80901698891910034 0.5 0 0 1 I I #
face $-1 $-1 $364 $30 $-1 $365 forward single #
loop $-1 $-1 $151 $145 #
plane-surface $-1 0 27.795227673133429 0 0 -1 0 0 0 -1 forward_v I I I I #
coedge $-1 $366 $367 $368 $369 reversed $146 $-1 #
coedge $-1 $370 $148 $150 $249 forward $91 $-1 #
coedge $-1 $148 $370 $366 $371 forward $91 $-1 #
coedge $-1 $368 $151 $148 $246 forward $240 $-1 #
edge $-1 $252 -15.903354903779341 $372 4.722108210504647 $245 $373 forward 7 unknown #
coedge $-1 $374 $375 $149 $248 forward $364 $-1 #
edge $-1 $376 -6.9416380637152528 $251 -1.4427300068134663 $247 $377 forward 7 unknown #
edge $-1 $252 -55.590455346266864 $376 -47.527520813906293 $150 $378 forward 7 unknown #
coedge $-1 $151 $368 $374 $379 reversed $240 $-1 #
vertex $-1 $379 $380 #
vertex $-1 $152 $381 #
straight-curve $-1 21.493978250416689 27.795227673133429 53.006480651520121 0 0 -1 I I #
coedge $-1 $254 $254 $-1 $382 reversed $155 $-1 #
edge $-1 $383 0 $383 6.2831853071796004 $156 $384 forward 7 unknown #
vertex $-1 $159 $385 #
ellipse-curve $-1 11.181246693274694 25.045773644682534 4.3408311075802297 0 0.73135370988377701 0.68199835119979291 2 0 0 1 I I #
face $-1 $-1 $175 $24 $-1 $386 reversed single #
loop $-1 $-1 $274 $160 #
plane-surface $-1 0 27.795227673133429 0 0 -1 0 0 0 -1 forward_v I I I I #
coedge $-1 $387 $272 $275 $388 forward $161 $-1 #
coedge $-1 $278 $163 $164 $266 reversed $100 $-1 #
coedge $-1 $272 $387 $163 $264 reversed $161 $-1 #
edge $-1 $279 -7.2892596489761914 $389 7.2892596489761914 $263 $390 forward 7 unknown #
coedge $-1 $165 $164 $387 $391 forward $65 $-1 #
edge $-1 $270 -46.894741660817289 $389 46.894741660817289 $262 $392 forward 7 unknown #
coedge $-1 $275 $274 $165 $268 reversed $259 $-1 #
edge $-1 $393 -46.894741660817289 $269 46.894741660817289 $267 $394 forward 7 unknown #
vertex $-1 $167 $395 #
vertex $-1 $281 $396 #
straight-curve $-1 46.894741660817289 0 -7.2892596489761914 0 -1 0 I I #
coedge $-1 $261 $263 $168 $273 reversed $161 $-1 #
edge $-1 $276 -27.795227673133429 $279 27.795227673133429 $272 $397 forward 7 unknown #
coedge $-1 $267 $169 $174 $282 forward $259 $-1 #
coedge $-1 $169 $267 $261 $388 reversed $259 $-1 #
vertex $-1 $170 $398 #
straight-curve $-1 0 27.795227673133429 7.2892596489761914 -1 0 0 I I #
coedge $-1 $171 $262 $173 $281 reversed $100 $-1 #
vertex $-1 $273 $399 #
straight-curve $-1 0 -27.795227673133429 7.2892596489761914 1 0 0 I I #
edge $-1 $176 -7.2892596489761914 $270 7.2892596489761914 $173 $400 forward 7 unknown #
edge $-1 $177 -7.2892596489761914 $269 7.2892596489761914 $174 $401 forward 7 unknown #
point $-1 46.894741660817289 -27.795227673133429 7.2892596489761914 #
point $-1 46.894741660817289 27.795227673133429 7.2892596489761914 #
face $-1 $-1 $302 $25 $-1 $402 reversed single #
loop $-1 $-1 $403 $179 #
plane-surface $-1 -46.894741660817289 0 0 1 0 0 0 0 -1 forward_v I I I I #
coedge $-1 $289 $305 $183 $292 forward $180 $-1 #
coedge $-1 $190 $288 $182 $290 forward $180 $-1 #
edge $-1 $296 -0.35043434229366177 $193 2.6495656577063382 $289 $404 forward 7 unknown #
coedge $-1 $184 $183 $403 $405 reversed $69 $-1 #
edge $-1 $406 -25.43875220851541 $296 -17.473226696088346 $288 $407 forward 7 unknown #
coedge $-1 $301 $300 $184 $294 forward $302 $-1 #
edge $-1 $295 17.473226696088346 $408 25.43875220851541 $293 $409 forward 7 unknown #
vertex $-1 $294 $410 #
vertex $-1 $292 $411 #
straight-curve $-1 -38.929216148390225 0 0.79913131541267646 0 -1 0 I I #
coedge $-1 $412 $413 $187 $299 forward $286 $-1 #
edge $-1 $306 -27.795227673133429 $303 27.795227673133429 $298 $414 forward 7 unknown #
coedge $-1 $293 $188 $192 $308 forward $302 $-1 #
coedge $-1 $188 $293 $412 $415 reversed $302 $-1 #
loop $-1 $-1 $293 $285 #
vertex $-1 $415 $416 #
straight-curve $-1 -21.455989452301878 27.795227673133429 3.7991313154126765 1 0 0 I I #
coedge $-1 $288 $190 $413 $417 forward $180 $-1 #
vertex $-1 $417 $418 #
straight-curve $-1 -21.455989452301878 -27.795227673133429 3.7991313154126765 -1 0 0 I I #
edge $-1 $194 -2.6495656577063382 $295 0.35043434229366177 $300 $419 forward 7 unknown #
point $-1 -38.929216148390225 -27.795227673133429 3.7991313154126765 #
point $-1 -38.929216148390225 27.795227673133429 3.7991313154126765 #
face $-1 $-1 $211 $26 $-1 $420 reversed single #
loop $-1 $-1 $205 $196 #
plane-surface $-1 0 27.795227673133429 0 0 -1 0 0 0 -1 forward_v I I I I #
coedge $-1 $421 $199 $318 $422 reversed $116 $-1 #
coedge $-1 $199 $421 $204 $326 reversed $116 $-1 #
coedge $-1 $205 $321 $199 $317 forward $312 $-1 #
edge $-1 $423 -0.35043434229366177 $328 2.6495656577063382 $316 $424 forward 7 unknown #
coedge $-1 $201 $200 $314 $422 forward $73 $-1 #
coedge $-1 $331 $330 $200 $320 forward $197 $-1 #
edge $-1 $425 17.473226696088346 $323 25.43875220851541 $319 $426 forward 7 unknown #
coedge $-1 $316 $327 $201 $322 forward $312 $-1 #
edge $-1 $324 -25.43875220851541 $423 -17.473226696088346 $321 $427 forward 7 unknown #
vertex $-1 $203 $428 #
vertex $-1 $203 $429 #
straight-curve $-1 46.894741660817289 0 0.79913131541267646 0 1 0 I I #
edge $-1 $328 -27.795227673133429 $332 27.795227673133429 $315 $430 forward 7 unknown #
coedge $-1 $321 $205 $210 $335 forward $312 $-1 #
vertex $-1 $206 $431 #
straight-curve $-1 21.455989452301878 27.795227673133429 3.7991313154126765 1 0 0 I I #
coedge $-1 $319 $207 $421 $432 forward $197 $-1 #
coedge $-1 $207 $319 $209 $334 reversed $197 $-1 #
vertex $-1 $208 $433 #
straight-curve $-1 21.455989452301878 -27.795227673133429 3.7991313154126765 -1 0 0 I I #
edge $-1 $213 -3.7991313154126765 $323 -0.79913131541267646 $209 $434 forward 7 unknown #
edge $-1 $212 -3.7991313154126765 $324 -0.79913131541267646 $210 $435 forward 7 unknown #
point $-1 46.894741660817289 27.795227673133429 3.7991313154126765 #
point $-1 46.894741660817289 -27.795227673133429 3.7991313154126765 #
plane-surface $-1 0 -27.795227673133429 0 0 1 0 0 0 1 forward_v I I I I #
coedge $-1 $349 $348 $341 $436 forward $216 $-1 #
coedge $-1 $341 $218 $220 $345 reversed $124 $-1 #
coedge $-1 $218 $340 $339 $436 reversed $124 $-1 #
coedge $-1 $226 $221 $218 $343 forward $227 $-1 #
edge $-1 $346 -35.920529470651076 $437 -32.667496269519724 $342 $438 forward 7 unknown #
coedge $-1 $220 $219 $349 $439 reversed $77 $-1 #
edge $-1 $440 -5.5343905735714696 $346 -4.4403802724362578e-015 $340 $441 forward 7 unknown #
vertex $-1 $222 $442 #
straight-curve $-1 12.377795311903327 -27.795227673133429 4.0362264478448422 1 0 0 I I #
coedge $-1 $339 $223 $226 $353 forward $216 $-1 #
coedge $-1 $223 $339 $344 $439 forward $216 $-1 #
vertex $-1 $224 $443 #
straight-curve $-1 14.78169424979162 -41.461651747008609 7.2892596489761914 0 -1 0 I I #
straight-curve $-1 14.78169424979162 -27.795227673133432 4.0362264478448395 0 0.80901698891910034 0.5877852598018023 I I #
edge $-1 $228 14.78169424979162 $437 34.729486997821688 $226 $444 forward 7 unknown #
point $-1 14.78169424979162 -27.795227673133429 7.2892596489761914 #
point $-1 14.78169424979162 -27.795227673133429 4.0362264478448422 #
edge $-1 $445 1 $445 0 $231 $-1 forward 7 unknown #
vertex $-1 $232 $446 #
ellipse-curve $-1 20.481063606371634 -24.751761343894735 4.5550882534832082 0 -0.5877852598018023 0.80901698891910034 0.5 0 0 1 I I #
point $-1 20.981063606371634 -25.556519674466905 5.6627430484105172 #
edge $-1 $447 1 $447 0 $235 $-1 forward 7 unknown #
vertex $-1 $236 $448 #
ellipse-curve $-1 29.030117641241674 -24.751761343894735 4.5550882534832082 0 -0.5877852598018023 0.80901698891910034 0.5 0 0 1 I I #
point $-1 29.530117641241674 -25.556519674466905 5.6627430484105172 #
loop $-1 $-1 $247 $239 #
plane-surface $-1 0 0 7.2892596489761914 0 0 1 1 0 0 forward_v I I I I #
coedge $-1 $367 $242 $244 $371 reversed $146 $-1 #
coedge $-1 $242 $366 $449 $450 reversed $146 $-1 #
coedge $-1 $250 $245 $242 $369 forward $240 $-1 #
edge $-1 $372 -51.614078085335855 $451 -45.71722100254393 $368 $452 forward 7 unknown #
coedge $-1 $244 $243 $375 $453 reversed $91 $-1 #
edge $-1 $454 47.527520813906293 $372 55.590455346266864 $366 $455 forward 7 unknown #
vertex $-1 $246 $456 #
straight-curve $-1 5.5906233466373472 27.795227673133425 1.3924025661842663 -1 0 0 I I #
coedge $-1 $449 $247 $250 $379 forward $364 $-1 #
coedge $-1 $247 $449 $370 $453 forward $364 $-1 #
vertex $-1 $248 $457 #
straight-curve $-1 21.493978250416689 29.237957679946895 7.2892596489761914 0 1 0 I I #
straight-curve $-1 21.493978250416689 -10.117371215466292 42.048688317804988 0 -0.68199835119979291 0.73135370988377701 I I #
edge $-1 $251 -21.493978250416689 $451 -0.86851513613270015 $250 $458 forward 7 unknown #
point $-1 21.493978250416689 27.795227673133429 7.2892596489761914 #
point $-1 21.493978250416689 27.795227673133425 1.3924025661842663 #
edge $-1 $459 1 $459 0 $254 $-1 forward 7 unknown #
vertex $-1 $255 $460 #
ellipse-curve $-1 11.181246693274694 22.270526588591071 1.7528714228919053 0 0.73135370988377701 0.68199835119979291 2 0 0 1 I I #
point $-1 13.181246693274694 25.04577364468253 4.3408311075802279 #
plane-surface $-1 46.894741660817289 0 0 -1 0 0 0 0 1 forward_v I I I I #
coedge $-1 $263 $261 $265 $391 reversed $161 $-1 #
edge $-1 $276 -7.2892596489761914 $393 7.2892596489761914 $275 $461 forward 7 unknown #
vertex $-1 $391 $462 #
straight-curve $-1 -46.894741660817289 -27.795227673133429 0 0 0 -1 I I #
edge $-1 $389 -27.795227673133429 $393 27.795227673133429 $387 $463 forward 7 unknown #
straight-curve $-1 0 -27.795227673133429 -7.2892596489761914 -1 0 0 I I #
vertex $-1 $268 $464 #
straight-curve $-1 0 27.795227673133429 -7.2892596489761914 1 0 0 I I #
point $-1 46.894741660817289 27.795227673133429 -7.2892596489761914 #
point $-1 46.894741660817289 -27.795227673133429 -7.2892596489761914 #
straight-curve $-1 -46.894741660817289 0 7.2892596489761914 0 -1 0 I I #
point $-1 -46.894741660817289 27.795227673133429 7.2892596489761914 #
point $-1 -46.894741660817289 -27.795227673133429 7.2892596489761914 #
straight-curve $-1 46.894741660817289 -27.795227673133429 0 0 0 -1 I I #
straight-curve $-1 46.894741660817289 27.795227673133429 0 0 0 -1 I I #
plane-surface $-1 0 27.795227673133429 0 0 -1 0 0 0 -1 forward_v I I I I #
coedge $-1 $413 $412 $291 $405 forward $286 $-1 #
straight-curve $-1 -38.929216148390225 -27.795227673133429 1.1495656577063382 0 0 1 I I #
edge $-1 $408 -27.795227673133429 $406 27.795227673133429 $403 $465 forward 7 unknown #
vertex $-1 $292 $466 #
straight-curve $-1 -21.455989452301878 -27.795227673133429 0.79913131541267646 1 0 0 I I #
vertex $-1 $294 $467 #
straight-curve $-1 -21.455989452301878 27.795227673133429 0.79913131541267646 -1 0 0 I I #
point $-1 -38.929216148390225 27.795227673133429 0.79913131541267646 #
point $-1 -38.929216148390225 -27.795227673133429 0.79913131541267646 #
coedge $-1 $403 $298 $301 $415 forward $286 $-1 #
coedge $-1 $298 $403 $305 $417 reversed $286 $-1 #
straight-curve $-1 -46.894741660817289 0 3.7991313154126765 0 1 0 I I #
edge $-1 $303 -3.7991313154126765 $408 -0.79913131541267646 $301 $468 forward 7 unknown #
point $-1 -46.894741660817289 27.795227673133429 3.7991313154126765 #
edge $-1 $306 -3.7991313154126765 $406 -0.79913131541267646 $413 $469 forward 7 unknown #
point $-1 -46.894741660817289 -27.795227673133429 3.7991313154126765 #
straight-curve $-1 -38.929216148390225 27.795227673133429 1.1495656577063382 0 0 -1 I I #
plane-surface $-1 46.894741660817289 0 0 -1 0 0 0 0 1 forward_v I I I I #
coedge $-1 $315 $314 $330 $432 reversed $116 $-1 #
edge $-1 $425 -27.795227673133429 $423 27.795227673133429 $314 $470 forward 7 unknown #
vertex $-1 $322 $471 #
straight-curve $-1 38.929216148390225 27.795227673133429 1.1495656577063382 0 0 1 I I #
vertex $-1 $320 $472 #
straight-curve $-1 21.455989452301878 -27.795227673133429 0.79913131541267646 1 0 0 I I #
straight-curve $-1 21.455989452301878 27.795227673133429 0.79913131541267646 -1 0 0 I I #
point $-1 46.894741660817289 -27.795227673133429 0.79913131541267646 #
point $-1 46.894741660817289 27.795227673133429 0.79913131541267646 #
straight-curve $-1 38.929216148390225 0 3.7991313154126765 0 -1 0 I I #
point $-1 38.929216148390225 27.795227673133429 3.7991313154126765 #
edge $-1 $332 -2.6495656577063382 $425 0.35043434229366177 $330 $473 forward 7 unknown #
point $-1 38.929216148390225 -27.795227673133429 3.7991313154126765 #
straight-curve $-1 46.894741660817289 -27.795227673133429 0 0 0 -1 I I #
straight-curve $-1 46.894741660817289 27.795227673133429 0 0 0 -1 I I #
edge $-1 $437 13.666424073875181 $440 18.143840071208221 $339 $474 forward 7 unknown #
vertex $-1 $436 $475 #
straight-curve $-1 34.729486997821688 -27.795227673133429 39.956755918495915 0 0 1 I I #
edge $-1 $440 -22.351691685918361 $350 -2.4038989378882931 $349 $476 forward 7 unknown #
vertex $-1 $439 $477 #
straight-curve $-1 34.729486997821688 -27.795227673133432 4.0362264478448395 0 -0.80901698891910034 -0.5877852598018023 I I #
point $-1 34.729486997821688 -27.795227673133429 4.0362264478448422 #
point $-1 14.78169424979162 -23.317811675800389 7.2892596489761914 #
straight-curve $-1 0 -27.795227673133429 7.2892596489761914 1 0 0 I I #
vertex $-1 $356 $478 #
point $-1 20.981063606371634 -24.751761343894735 4.5550882534832082 #
vertex $-1 $360 $479 #
point $-1 29.530117641241674 -24.751761343894735 4.5550882534832082 #
coedge $-1 $375 $374 $367 $450 forward $364 $-1 #
edge $-1 $451 1.4427300068134663 $454 6.9416380637152528 $449 $480 forward 7 unknown #
vertex $-1 $450 $481 #
straight-curve $-1 0.86851513613270015 27.795227673133429 53.006480651520121 0 0 1 I I #
edge $-1 $454 -4.722108210504647 $376 15.903354903779341 $375 $482 forward 7 unknown #
vertex $-1 $453 $483 #
straight-curve $-1 0.86851513613270015 -10.117371215466292 42.048688317804988 0 0.68199835119979291 -0.73135370988377701 I I #
point $-1 0.86851513613270015 27.795227673133425 1.3924025661842663 #
point $-1 21.493978250416689 22.296319616231642 7.2892596489761914 #
straight-curve $-1 0 27.795227673133429 7.2892596489761914 -1 0 0 I I #
vertex $-1 $382 $484 #
point $-1 13.181246693274694 22.270526588591071 1.7528714228919053 #
straight-curve $-1 -46.894741660817289 27.795227673133429 0 0 0 -1 I I #
point $-1 -46.894741660817289 -27.795227673133429 -7.2892596489761914 #
straight-curve $-1 -46.894741660817289 0 -7.2892596489761914 0 1 0 I I #
point $-1 -46.894741660817289 27.795227673133429 -7.2892596489761914 #
straight-curve $-1 -46.894741660817289 0 0.79913131541267646 0 -1 0 I I #
point $-1 -46.894741660817289 -27.795227673133429 0.79913131541267646 #
point $-1 -46.894741660817289 27.795227673133429 0.79913131541267646 #
straight-curve $-1 -46.894741660817289 27.795227673133429 0 0 0 -1 I I #
straight-curve $-1 -46.894741660817289 -27.795227673133429 0 0 0 -1 I I #
straight-curve $-1 38.929216148390225 0 0.79913131541267646 0 1 0 I I #
point $-1 38.929216148390225 27.795227673133429 0.79913131541267646 #
point $-1 38.929216148390225 -27.795227673133429 0.79913131541267646 #
straight-curve $-1 38.929216148390225 -27.795227673133429 1.1495656577063382 0 0 -1 I I #
straight-curve $-1 34.729486997821688 -41.461651747008609 7.2892596489761914 0 1 0 I I #
point $-1 34.729486997821688 -27.795227673133429 7.2892596489761914 #
straight-curve $-1 12.377795311903327 -23.317811675800389 7.2892596489761914 -1 0 0 I I #
point $-1 34.729486997821688 -23.317811675800389 7.2892596489761914 #
point $-1 20.481063606371634 -24.457868713993832 4.1505797590236577 #
point $-1 29.030117641241674 -24.457868713993832 4.1505797590236577 #
straight-curve $-1 0.86851513613270015 29.237957679946895 7.2892596489761914 0 -1 0 I I #
point $-1 0.86851513613270015 27.795227673133429 7.2892596489761914 #
straight-curve $-1 5.5906233466373472 22.296319616231639 7.2892596489761914 1 0 0 I I #
point $-1 0.86851513613270015 22.296319616231642 7.2892596489761914 #
point $-1 11.181246693274694 20.807819168823517 0.38887472049231953 #
End-of-ACIS-data 