500 0 11 0           
7 Unknown 11 ACIS 5.0 NT 24 Fri Mar 26 14:19:24 1999 
-1 9.9999999999999995e-007 1e-010 
body $-1 $11 $-1 $12 #
body $-1 $13 $-1 $14 #
body $-1 $15 $-1 $16 #
body $-1 $17 $-1 $18 #
body $-1 $19 $-1 $20 #
body $-1 $21 $-1 $22 #
body $-1 $23 $-1 $24 #
body $-1 $25 $-1 $26 #
body $-1 $27 $-1 $28 #
body $-1 $29 $-1 $30 #
body $-1 $31 $-1 $32 #
lump $-1 $-1 $33 $0 #
transform $-1 1 0 0 0 1 0 0 0 1 67.563097018341622 43.107635359171091 20.985881457638033 1 rotate no_reflect no_shear #
lump $-1 $-1 $34 $1 #
transform $-1 1 0 0 0 1 0 0 0 1 67.563097018341622 43.107635359171091 20.985881457638033 1 rotate no_reflect no_shear #
lump $-1 $-1 $35 $2 #
transform $-1 1 0 0 0 1 0 0 0 1 67.563097018341622 43.107635359171091 20.985881457638033 1 rotate no_reflect no_shear #
lump $-1 $-1 $36 $3 #
transform $-1 1 0 0 0 1 0 0 0 1 67.563097018341622 43.107635359171091 20.985881457638033 1 rotate no_reflect no_shear #
lump $-1 $-1 $37 $4 #
transform $-1 1 0 0 0 1 0 0 0 1 67.563097018341622 43.107635359171091 20.985881457638033 1 rotate no_reflect no_shear #
lump $-1 $-1 $38 $5 #
transform $-1 1 0 0 0 1 0 0 0 1 67.563097018341622 43.107635359171091 20.985881457638033 1 rotate no_reflect no_shear #
lump $-1 $-1 $39 $6 #
transform $-1 1 0 0 0 1 0 0 0 1 67.563097018341622 43.107635359171091 20.985881457638033 1 rotate no_reflect no_shear #
lump $-1 $-1 $40 $7 #
transform $-1 1 0 0 0 1 0 0 0 1 67.563097018341622 43.107635359171091 20.985881457638033 1 rotate no_reflect no_shear #
lump $-1 $-1 $41 $8 #
transform $-1 1 0 0 0 1 0 0 0 1 67.563097018341622 43.107635359171091 20.985881457638033 1 rotate no_reflect no_shear #
lump $-1 $-1 $42 $9 #
transform $-1 1 0 0 0 1 0 0 0 1 67.563097018341622 43.107635359171091 20.985881457638033 1 rotate no_reflect no_shear #
lump $-1 $-1 $43 $10 #
transform $-1 1 0 0 0 1 0 0 0 1 67.563097018341622 43.107635359171091 20.985881457638033 1 rotate no_reflect no_shear #
shell $-1 $-1 $-1 $44 $-1 $11 #
shell $-1 $-1 $-1 $45 $-1 $13 #
shell $-1 $-1 $-1 $46 $-1 $15 #
shell $-1 $-1 $-1 $47 $-1 $17 #
shell $-1 $-1 $-1 $48 $-1 $19 #
shell $-1 $-1 $-1 $49 $-1 $21 #
shell $-1 $-1 $-1 $50 $-1 $23 #
shell $-1 $-1 $-1 $51 $-1 $25 #
shell $-1 $-1 $-1 $52 $-1 $27 #
shell $-1 $-1 $-1 $53 $-1 $29 #
shell $-1 $-1 $-1 $54 $-1 $31 #
face $-1 $55 $56 $33 $-1 $57 forward single #
face $-1 $58 $59 $34 $-1 $60 reversed single #
face $-1 $61 $62 $35 $-1 $63 reversed single #
face $-1 $64 $65 $36 $-1 $66 reversed single #
face $-1 $67 $68 $37 $-1 $69 forward single #
face $-1 $70 $71 $38 $-1 $72 forward single #
face $-1 $73 $74 $39 $-1 $75 forward single #
face $-1 $76 $77 $40 $-1 $78 reversed single #
face $-1 $79 $80 $41 $-1 $81 forward single #
face $-1 $82 $83 $42 $-1 $84 forward single #
face $-1 $85 $86 $43 $-1 $87 forward single #
face $-1 $88 $89 $33 $-1 $90 reversed single #
loop $-1 $-1 $91 $44 #
plane-surface $-1 0 0 20.985881457638033 0 0 1 1 0 0 forward_v I I I I #
face $-1 $92 $93 $34 $-1 $94 reversed single #
loop $-1 $-1 $95 $45 #
plane-surface $-1 0 -31.306002330352264 12.965428151140607 0 0 1 1 0 0 forward_v I I I I #
face $-1 $96 $97 $35 $-1 $98 reversed single #
loop $-1 $-1 $99 $46 #
plane-surface $-1 0 29.724039486807264 10.885221144871853 0 0 1 1 0 0 forward_v I I I I #
face $-1 $100 $101 $36 $-1 $102 reversed single #
loop $-1 $-1 $103 $47 #
plane-surface $-1 -157.98017025650717 5.5877250797600553 116.64662721889816 0 1 0 -0.66913061440640931 0 0.74314481823134659 forward_v I I I I #
face $-1 $104 $105 $37 $-1 $106 forward single #
loop $-1 $107 $108 $48 #
cone-surface $-1 -64.521451974823194 7.7382687866967288 18.163145642392568 0.66913061440640931 0 -0.74314481823134659 0.3715724091156733 0 0.33456530720320465 1 I I 0 1 0.5 forward I I I I #
face $-1 $109 $110 $38 $-1 $111 forward single #
loop $-1 $112 $113 $49 #
cone-surface $-1 -64.521451974823194 10.964084347101746 18.163145642392568 0.66913061440640931 0 -0.74314481823134659 0.3715724091156733 0 0.33456530720320465 1 I I 0 1 0.5 forward I I I I #
face $-1 $114 $115 $39 $-1 $116 forward single #
loop $-1 $117 $118 $50 #
cone-surface $-1 -64.521451974823194 14.189899907506764 18.163145642392568 0.66913061440640931 0 -0.74314481823134659 0.3715724091156733 0 0.33456530720320465 1 I I 0 1 0.5 forward I I I I #
face $-1 $119 $120 $40 $-1 $121 reversed single #
loop $-1 $-1 $122 $51 #
plane-surface $-1 57.561839350822495 5.5877250797600553 207.0637004570637 0 1 0 0.66913061440640931 0 0.74314481823134659 forward_v I I I I #
face $-1 $123 $124 $41 $-1 $125 forward single #
loop $-1 $126 $127 $52 #
cone-surface $-1 64.521451974823208 7.7382687866967288 18.163145642392568 -0.66913061440640931 0 -0.74314481823134659 0.3715724091156733 0 -0.33456530720320465 1 I I 0 1 0.5 forward I I I I #
face $-1 $128 $129 $42 $-1 $130 forward single #
loop $-1 $131 $132 $53 #
cone-surface $-1 64.521451974823208 10.964084347101746 18.163145642392568 -0.66913061440640931 0 -0.74314481823134659 0.3715724091156733 0 -0.33456530720320465 1 I I 0 1 0.5 forward I I I I #
face $-1 $133 $134 $43 $-1 $135 forward single #
loop $-1 $136 $137 $54 #
cone-surface $-1 64.521451974823208 14.189899907506764 18.163145642392568 -0.66913061440640931 0 -0.74314481823134659 0.3715724091156733 0 -0.33456530720320465 1 I I 0 1 0.5 forward I I I I #
face $-1 $138 $139 $33 $-1 $140 reversed single #
loop $-1 $-1 $141 $55 #
plane-surface $-1 0 0 -20.985881457638033 0 0 1 1 0 0 forward_v I I I I #
coedge $-1 $142 $143 $144 $145 forward $56 $-1 #
face $-1 $146 $147 $34 $-1 $148 reversed single #
loop $-1 $-1 $149 $58 #
plane-surface $-1 0 -19.504369301533437 16.975654804389318 0 -1 0 0 0 -1 forward_v I I I I #
coedge $-1 $150 $151 $152 $153 reversed $59 $-1 #
face $-1 $154 $155 $35 $-1 $156 forward single #
loop $-1 $-1 $157 $61 #
plane-surface $-1 0 16.340443614443441 15.935551301254943 0 1 0 0 0 1 forward_v I I I I #
coedge $-1 $158 $159 $160 $161 reversed $62 $-1 #
face $-1 $162 $163 $36 $-1 $164 forward single #
loop $-1 $-1 $165 $64 #
plane-surface $-1 -67.563097018341622 10.964084347101746 16.228296313213519 -0.66913061440640931 0 0.74314481823134659 0.74314481823134659 0 0.66913061440640931 forward_v I I I I #
coedge $-1 $166 $167 $168 $169 reversed $65 $-1 #
face $-1 $-1 $170 $37 $-1 $171 forward single #
loop $-1 $172 $173 $67 #
cone-surface $-1 -63.954441021050741 7.7382687866967288 17.533416194801514 0.66913061440640931 0 -0.74314481823134659 0.18578620455783665 0 0.16728265360160233 1 I I -0.70710678118654746 0.70710678118654746 0.25 forward I I I I #
loop $-1 $-1 $174 $48 #
coedge $-1 $108 $108 $175 $176 reversed $68 $-1 #
face $-1 $-1 $177 $38 $-1 $178 forward single #
loop $-1 $179 $180 $70 #
cone-surface $-1 -63.954441021050741 10.964084347101746 17.533416194801514 0.66913061440640931 0 -0.74314481823134659 0.18578620455783665 0 0.16728265360160233 1 I I -0.70710678118654746 0.70710678118654746 0.25 forward I I I I #
loop $-1 $-1 $181 $49 #
coedge $-1 $113 $113 $182 $183 reversed $71 $-1 #
face $-1 $-1 $184 $39 $-1 $185 forward single #
loop $-1 $186 $187 $73 #
cone-surface $-1 -63.954441021050741 14.189899907506764 17.533416194801514 0.66913061440640931 0 -0.74314481823134659 0.18578620455783665 0 0.16728265360160233 1 I I -0.70710678118654746 0.70710678118654746 0.25 forward I I I I #
loop $-1 $-1 $188 $50 #
coedge $-1 $118 $118 $189 $190 reversed $74 $-1 #
face $-1 $191 $192 $40 $-1 $193 forward single #
loop $-1 $-1 $194 $76 #
plane-surface $-1 -32.855233887343047 10.964084347101746 106.64536955137906 0.66913061440640931 0 0.74314481823134659 0.74314481823134659 0 -0.66913061440640931 forward_v I I I I #
coedge $-1 $195 $196 $197 $198 reversed $77 $-1 #
face $-1 $-1 $199 $41 $-1 $200 forward single #
loop $-1 $201 $202 $79 #
cone-surface $-1 63.954441021050755 7.7382687866967288 17.533416194801514 -0.66913061440640931 0 -0.74314481823134659 0.18578620455783665 0 -0.16728265360160233 1 I I -0.70710678118654746 0.70710678118654746 0.25 forward I I I I #
loop $-1 $-1 $203 $52 #
coedge $-1 $127 $127 $204 $205 reversed $80 $-1 #
face $-1 $-1 $206 $42 $-1 $207 forward single #
loop $-1 $208 $209 $82 #
cone-surface $-1 63.954441021050755 10.964084347101746 17.533416194801514 -0.66913061440640931 0 -0.74314481823134659 0.18578620455783665 0 -0.16728265360160233 1 I I -0.70710678118654746 0.70710678118654746 0.25 forward I I I I #
loop $-1 $-1 $210 $53 #
coedge $-1 $132 $132 $211 $212 reversed $83 $-1 #
face $-1 $-1 $213 $43 $-1 $214 forward single #
loop $-1 $215 $216 $85 #
cone-surface $-1 63.954441021050755 14.189899907506764 17.533416194801514 -0.66913061440640931 0 -0.74314481823134659 0.18578620455783665 0 -0.16728265360160233 1 I I -0.70710678118654746 0.70710678118654746 0.25 forward I I I I #
loop $-1 $-1 $217 $54 #
coedge $-1 $137 $137 $218 $219 reversed $86 $-1 #
face $-1 $220 $221 $33 $-1 $222 reversed single #
loop $-1 $-1 $223 $88 #
plane-surface $-1 0 -43.107635359171091 0 0 1 0 0 0 1 forward_v I I I I #
coedge $-1 $224 $225 $226 $227 forward $89 $-1 #
coedge $-1 $228 $91 $229 $230 forward $56 $-1 #
coedge $-1 $91 $228 $231 $232 forward $56 $-1 #
coedge $-1 $233 $234 $91 $145 reversed $235 $-1 #
edge $-1 $236 -43.107635359171091 $237 43.107635359171091 $144 $238 forward 7 unknown #
face $-1 $239 $240 $34 $-1 $241 reversed single #
loop $-1 $-1 $242 $92 #
plane-surface $-1 -67.563097018341622 0 0 1 0 0 0 0 -1 forward_v I I I I #
coedge $-1 $243 $244 $245 $246 reversed $93 $-1 #
coedge $-1 $247 $95 $248 $249 reversed $59 $-1 #
coedge $-1 $95 $247 $243 $250 forward $59 $-1 #
coedge $-1 $245 $251 $95 $153 forward $252 $-1 #
edge $-1 $253 -27.454634193994959 $254 -3.8513681363573049 $152 $255 forward 7 unknown #
face $-1 $256 $257 $35 $-1 $258 reversed single #
loop $-1 $-1 $259 $96 #
plane-surface $-1 0 0 20.985881457638033 0 0 1 1 0 0 forward_v I I I I #
coedge $-1 $260 $261 $259 $262 reversed $97 $-1 #
coedge $-1 $263 $99 $264 $265 forward $62 $-1 #
coedge $-1 $99 $263 $266 $267 reversed $62 $-1 #
coedge $-1 $268 $269 $99 $161 forward $257 $-1 #
edge $-1 $270 1.4784238710398085 $271 28.245615615767452 $160 $272 forward 7 unknown #
face $-1 $273 $274 $36 $-1 $275 forward single #
loop $-1 $-1 $168 $100 #
plane-surface $-1 0 0 20.985881457638033 0 0 1 1 0 0 forward_v I I I I #
coedge $-1 $276 $277 $278 $279 reversed $101 $-1 #
coedge $-1 $167 $103 $280 $281 reversed $65 $-1 #
coedge $-1 $103 $166 $276 $282 reversed $65 $-1 #
coedge $-1 $278 $283 $103 $169 forward $163 $-1 #
edge $-1 $284 11.42698810991196 $285 16.710821596607147 $168 $286 forward 7 unknown #
loop $-1 $-1 $175 $104 #
plane-surface $-1 -67.563097018341622 10.964084347101746 16.228296313213519 -0.66913061440640931 0 0.74314481823134659 0.74314481823134659 0 0.66913061440640931 forward_v I I I I #
loop $-1 $-1 $287 $67 #
coedge $-1 $173 $173 $174 $288 reversed $105 $-1 #
coedge $-1 $174 $174 $173 $288 forward $107 $-1 #
coedge $-1 $175 $175 $108 $176 forward $170 $-1 #
edge $-1 $289 0 $289 6.2831853071796004 $175 $290 forward 7 unknown #
loop $-1 $-1 $182 $109 #
plane-surface $-1 -67.563097018341622 10.964084347101746 16.228296313213519 -0.66913061440640931 0 0.74314481823134659 0.74314481823134659 0 0.66913061440640931 forward_v I I I I #
loop $-1 $-1 $291 $70 #
coedge $-1 $180 $180 $181 $292 reversed $110 $-1 #
coedge $-1 $181 $181 $180 $292 forward $112 $-1 #
coedge $-1 $182 $182 $113 $183 forward $177 $-1 #
edge $-1 $293 0 $293 6.2831853071796004 $182 $294 forward 7 unknown #
loop $-1 $-1 $189 $114 #
plane-surface $-1 -67.563097018341622 10.964084347101746 16.228296313213519 -0.66913061440640931 0 0.74314481823134659 0.74314481823134659 0 0.66913061440640931 forward_v I I I I #
loop $-1 $-1 $295 $73 #
coedge $-1 $187 $187 $188 $296 reversed $115 $-1 #
coedge $-1 $188 $188 $187 $296 forward $117 $-1 #
coedge $-1 $189 $189 $118 $190 forward $184 $-1 #
edge $-1 $297 0 $297 6.2831853071796004 $189 $298 forward 7 unknown #
face $-1 $299 $300 $40 $-1 $301 reversed single #
loop $-1 $-1 $302 $119 #
plane-surface $-1 0 0 20.985881457638033 0 0 1 1 0 0 forward_v I I I I #
coedge $-1 $303 $304 $305 $306 reversed $120 $-1 #
coedge $-1 $196 $122 $307 $308 reversed $77 $-1 #
coedge $-1 $122 $195 $303 $309 reversed $77 $-1 #
coedge $-1 $305 $310 $122 $198 forward $300 $-1 #
edge $-1 $311 82.545968770893822 $312 87.303553915318346 $197 $313 forward 7 unknown #
loop $-1 $-1 $204 $123 #
plane-surface $-1 -32.855233887343047 10.964084347101746 106.64536955137906 0.66913061440640931 0 0.74314481823134659 0.74314481823134659 0 -0.66913061440640931 forward_v I I I I #
loop $-1 $-1 $314 $79 #
coedge $-1 $202 $202 $203 $315 reversed $124 $-1 #
coedge $-1 $203 $203 $202 $315 forward $126 $-1 #
coedge $-1 $204 $204 $127 $205 forward $199 $-1 #
edge $-1 $316 0 $316 6.2831853071796004 $204 $317 forward 7 unknown #
loop $-1 $-1 $211 $128 #
plane-surface $-1 -32.855233887343047 10.964084347101746 106.64536955137906 0.66913061440640931 0 0.74314481823134659 0.74314481823134659 0 -0.66913061440640931 forward_v I I I I #
loop $-1 $-1 $318 $82 #
coedge $-1 $209 $209 $210 $319 reversed $129 $-1 #
coedge $-1 $210 $210 $209 $319 forward $131 $-1 #
coedge $-1 $211 $211 $132 $212 forward $206 $-1 #
edge $-1 $320 0 $320 6.2831853071796004 $211 $321 forward 7 unknown #
loop $-1 $-1 $218 $133 #
plane-surface $-1 -32.855233887343047 10.964084347101746 106.64536955137906 0.66913061440640931 0 0.74314481823134659 0.74314481823134659 0 -0.66913061440640931 forward_v I I I I #
loop $-1 $-1 $322 $85 #
coedge $-1 $216 $216 $217 $323 reversed $134 $-1 #
coedge $-1 $217 $217 $216 $323 forward $136 $-1 #
coedge $-1 $218 $218 $137 $219 forward $213 $-1 #
edge $-1 $324 0 $324 6.2831853071796004 $218 $325 forward 7 unknown #
face $-1 $326 $327 $33 $-1 $328 reversed single #
loop $-1 $-1 $329 $138 #
plane-surface $-1 -67.563097018341622 0 0 1 0 0 0 0 -1 forward_v I I I I #
coedge $-1 $330 $231 $331 $332 forward $139 $-1 #
coedge $-1 $333 $141 $330 $334 forward $89 $-1 #
coedge $-1 $141 $333 $335 $336 forward $89 $-1 #
coedge $-1 $234 $233 $141 $227 reversed $235 $-1 #
edge $-1 $337 -43.107635359171091 $338 43.107635359171091 $226 $339 forward 7 unknown #
coedge $-1 $143 $142 $340 $341 forward $56 $-1 #
coedge $-1 $342 $343 $142 $230 reversed $327 $-1 #
edge $-1 $237 -67.563097018341622 $344 67.563097018341622 $229 $345 forward 7 unknown #
coedge $-1 $223 $346 $143 $232 reversed $139 $-1 #
edge $-1 $347 -67.563097018341622 $236 67.563097018341622 $231 $348 forward 7 unknown #
coedge $-1 $226 $144 $346 $349 forward $235 $-1 #
coedge $-1 $144 $226 $342 $350 reversed $235 $-1 #
loop $-1 $-1 $233 $326 #
vertex $-1 $145 $351 #
vertex $-1 $145 $352 #
straight-curve $-1 67.563097018341622 0 20.985881457638033 0 1 0 I I #
face $-1 $353 $354 $34 $-1 $355 forward single #
loop $-1 $-1 $248 $146 #
plane-surface $-1 0 -43.107635359171091 0 0 1 0 0 0 1 forward_v I I I I #
coedge $-1 $356 $357 $358 $359 forward $147 $-1 #
coedge $-1 $358 $149 $151 $250 reversed $93 $-1 #
coedge $-1 $149 $358 $360 $361 reversed $93 $-1 #
coedge $-1 $362 $152 $149 $246 forward $252 $-1 #
edge $-1 $254 4.4776007489459477 $363 12.498054055443371 $245 $364 forward 7 unknown #
coedge $-1 $151 $150 $356 $365 reversed $59 $-1 #
coedge $-1 $366 $367 $150 $249 forward $240 $-1 #
edge $-1 $368 -67.563097018341622 $253 67.563097018341622 $248 $369 forward 7 unknown #
edge $-1 $370 -67.563097018341622 $254 67.563097018341622 $243 $371 forward 7 unknown #
coedge $-1 $152 $362 $366 $372 forward $252 $-1 #
loop $-1 $-1 $245 $353 #
vertex $-1 $249 $373 #
vertex $-1 $153 $374 #
straight-curve $-1 67.563097018341622 -15.653001165176132 12.965428151140607 0 1 0 I I #
face $-1 $375 $376 $35 $-1 $377 reversed single #
loop $-1 $-1 $269 $154 #
plane-surface $-1 67.563097018341622 0 0 -1 0 0 0 0 1 forward_v I I I I #
coedge $-1 $378 $379 $157 $262 forward $155 $-1 #
coedge $-1 $264 $157 $380 $381 reversed $97 $-1 #
coedge $-1 $157 $264 $269 $382 reversed $97 $-1 #
edge $-1 $383 -67.563097018341622 $384 67.563097018341622 $259 $385 forward 7 unknown #
coedge $-1 $159 $158 $386 $387 reversed $62 $-1 #
coedge $-1 $261 $260 $158 $265 reversed $97 $-1 #
edge $-1 $270 -67.563097018341622 $388 67.563097018341622 $264 $389 forward 7 unknown #
coedge $-1 $390 $391 $159 $267 forward $392 $-1 #
edge $-1 $271 -67.563097018341622 $393 67.563097018341622 $266 $394 forward 7 unknown #
coedge $-1 $395 $160 $391 $396 reversed $257 $-1 #
coedge $-1 $160 $395 $261 $382 forward $257 $-1 #
vertex $-1 $161 $397 #
vertex $-1 $267 $398 #
straight-curve $-1 67.563097018341622 14.862019743403632 10.885221144871853 0 1 0 I I #
face $-1 $-1 $399 $36 $-1 $400 reversed single #
loop $-1 $-1 $401 $162 #
plane-surface $-1 0 16.340443614443441 15.935551301254943 0 1 0 0 0 1 forward_v I I I I #
coedge $-1 $402 $165 $167 $282 forward $101 $-1 #
coedge $-1 $165 $402 $401 $403 reversed $101 $-1 #
coedge $-1 $404 $168 $165 $279 forward $163 $-1 #
edge $-1 $285 0.10568290620918219 $405 10.858401440892568 $278 $406 forward 7 unknown #
coedge $-1 $407 $408 $166 $281 forward $399 $-1 #
edge $-1 $409 -42.095017296235561 $284 -37.337432151811043 $280 $410 forward 7 unknown #
edge $-1 $285 -7.1100993468143772 $409 0 $167 $411 forward 7 unknown #
coedge $-1 $168 $404 $407 $412 forward $163 $-1 #
vertex $-1 $281 $413 #
vertex $-1 $169 $414 #
straight-curve $-1 -78.990085128253583 5.5877250797600553 20.98588145763803 1 0 0 I I #
coedge $-1 $287 $287 $-1 $415 reversed $172 $-1 #
edge $-1 $416 0 $416 6.2831853071796004 $173 $417 forward 7 unknown #
vertex $-1 $176 $418 #
ellipse-curve $-1 -64.921180274994029 7.7382687866967288 18.607088885425775 -0.66913061440640931 0 0.74314481823134659 0.3715724091156733 0 0.33456530720320465 1 I I #
coedge $-1 $291 $291 $-1 $419 reversed $179 $-1 #
edge $-1 $420 0 $420 6.2831853071796004 $180 $421 forward 7 unknown #
vertex $-1 $183 $422 #
ellipse-curve $-1 -64.921180274994029 10.964084347101746 18.607088885425775 -0.66913061440640931 0 0.74314481823134659 0.3715724091156733 0 0.33456530720320465 1 I I #
coedge $-1 $295 $295 $-1 $423 reversed $186 $-1 #
edge $-1 $424 0 $424 6.2831853071796004 $187 $425 forward 7 unknown #
vertex $-1 $190 $426 #
ellipse-curve $-1 -64.921180274994029 14.189899907506764 18.607088885425775 -0.66913061440640931 0 0.74314481823134659 0.3715724091156733 0 0.33456530720320465 1 I I #
face $-1 $-1 $427 $40 $-1 $428 forward single #
loop $-1 $-1 $197 $191 #
plane-surface $-1 67.563097018341622 0 0 -1 0 0 0 0 1 forward_v I I I I #
coedge $-1 $307 $429 $430 $431 forward $192 $-1 #
coedge $-1 $430 $194 $196 $309 forward $120 $-1 #
coedge $-1 $194 $430 $432 $433 reversed $120 $-1 #
coedge $-1 $434 $197 $194 $306 forward $300 $-1 #
edge $-1 $312 0.10568290620918219 $435 10.858401440892568 $305 $436 forward 7 unknown #
coedge $-1 $437 $302 $195 $308 forward $192 $-1 #
edge $-1 $438 33.498343856235174 $311 38.782177342930375 $307 $439 forward 7 unknown #
edge $-1 $312 -135.12619403668327 $438 -128.01609468986888 $196 $440 forward 7 unknown #
coedge $-1 $197 $434 $437 $441 reversed $300 $-1 #
vertex $-1 $441 $442 #
vertex $-1 $198 $443 #
straight-curve $-1 67.563097018341622 5.5877250797600553 103.53185022853185 0 0 -1 I I #
coedge $-1 $314 $314 $-1 $444 reversed $201 $-1 #
edge $-1 $445 0 $445 6.2831853071796004 $202 $446 forward 7 unknown #
vertex $-1 $205 $447 #
ellipse-curve $-1 64.921180274994029 7.7382687866967288 18.607088885425753 0.66913061440640931 0 0.74314481823134659 0.3715724091156733 0 -0.33456530720320465 1 I I #
coedge $-1 $318 $318 $-1 $448 reversed $208 $-1 #
edge $-1 $449 0 $449 6.2831853071796004 $209 $450 forward 7 unknown #
vertex $-1 $212 $451 #
ellipse-curve $-1 64.921180274994029 10.964084347101746 18.607088885425753 0.66913061440640931 0 0.74314481823134659 0.3715724091156733 0 -0.33456530720320465 1 I I #
coedge $-1 $322 $322 $-1 $452 reversed $215 $-1 #
edge $-1 $453 0 $453 6.2831853071796004 $216 $454 forward 7 unknown #
vertex $-1 $219 $455 #
ellipse-curve $-1 64.921180274994029 14.189899907506764 18.607088885425753 0.66913061440640931 0 0.74314481823134659 0.3715724091156733 0 -0.33456530720320465 1 I I #
face $-1 $-1 $235 $33 $-1 $456 reversed single #
loop $-1 $-1 $342 $220 #
plane-surface $-1 0 43.107635359171091 0 0 -1 0 0 0 -1 forward_v I I I I #
coedge $-1 $457 $340 $343 $458 forward $221 $-1 #
coedge $-1 $346 $223 $224 $334 reversed $139 $-1 #
coedge $-1 $340 $457 $223 $332 reversed $221 $-1 #
edge $-1 $347 -20.985881457638033 $459 20.985881457638033 $331 $460 forward 7 unknown #
coedge $-1 $225 $224 $457 $461 forward $89 $-1 #
edge $-1 $338 -67.563097018341622 $459 67.563097018341622 $330 $462 forward 7 unknown #
coedge $-1 $343 $342 $225 $336 reversed $327 $-1 #
edge $-1 $463 -67.563097018341622 $337 67.563097018341622 $335 $464 forward 7 unknown #
vertex $-1 $227 $465 #
vertex $-1 $349 $466 #
straight-curve $-1 67.563097018341622 0 -20.985881457638033 0 -1 0 I I #
coedge $-1 $329 $331 $228 $341 reversed $221 $-1 #
edge $-1 $344 -43.107635359171091 $347 43.107635359171091 $340 $467 forward 7 unknown #
coedge $-1 $335 $229 $234 $350 forward $327 $-1 #
coedge $-1 $229 $335 $329 $458 reversed $327 $-1 #
vertex $-1 $230 $468 #
straight-curve $-1 0 43.107635359171091 20.985881457638033 -1 0 0 I I #
coedge $-1 $231 $330 $233 $349 reversed $139 $-1 #
vertex $-1 $341 $469 #
straight-curve $-1 0 -43.107635359171091 20.985881457638033 1 0 0 I I #
edge $-1 $236 -20.985881457638033 $338 20.985881457638033 $233 $470 forward 7 unknown #
edge $-1 $237 -20.985881457638033 $337 20.985881457638033 $234 $471 forward 7 unknown #
point $-1 67.563097018341622 -43.107635359171091 20.985881457638033 #
point $-1 67.563097018341622 43.107635359171091 20.985881457638033 #
face $-1 $-1 $252 $34 $-1 $472 reversed single #
loop $-1 $-1 $360 $239 #
plane-surface $-1 0 0 20.985881457638033 0 0 1 1 0 0 forward_v I I I I #
coedge $-1 $473 $242 $247 $365 forward $147 $-1 #
coedge $-1 $242 $473 $474 $475 reversed $147 $-1 #
coedge $-1 $244 $243 $242 $359 reversed $93 $-1 #
edge $-1 $476 -12.498054055443371 $370 -4.4776007489459477 $242 $477 forward 7 unknown #
coedge $-1 $474 $478 $244 $361 forward $354 $-1 #
edge $-1 $363 -67.563097018341622 $476 67.563097018341622 $360 $479 forward 7 unknown #
coedge $-1 $251 $245 $478 $480 reversed $252 $-1 #
vertex $-1 $246 $481 #
straight-curve $-1 67.563097018341622 -19.504369301533437 8.4878274021946591 0 0 1 I I #
edge $-1 $370 3.8513681363573049 $368 27.454634193994959 $356 $482 forward 7 unknown #
coedge $-1 $483 $248 $251 $372 reversed $240 $-1 #
coedge $-1 $248 $483 $473 $484 forward $240 $-1 #
vertex $-1 $249 $485 #
straight-curve $-1 0 -43.107635359171091 12.965428151140607 1 0 0 I I #
vertex $-1 $365 $486 #
straight-curve $-1 0 -19.504369301533437 12.965428151140607 1 0 0 I I #
edge $-1 $487 -20.985881457638033 $253 -12.965428151140607 $251 $488 forward 7 unknown #
point $-1 67.563097018341622 -43.107635359171091 12.965428151140607 #
point $-1 67.563097018341622 -19.504369301533437 12.965428151140607 #
face $-1 $-1 $392 $35 $-1 $489 reversed single #
loop $-1 $-1 $380 $256 #
plane-surface $-1 -67.563097018341622 0 0 1 0 0 0 0 -1 forward_v I I I I #
coedge $-1 $490 $259 $395 $491 forward $155 $-1 #
coedge $-1 $259 $490 $492 $493 forward $155 $-1 #
coedge $-1 $492 $386 $260 $381 forward $376 $-1 #
edge $-1 $388 2.9174454942443813 $383 13.018105807010562 $380 $494 forward 7 unknown #
edge $-1 $384 -13.018105807010562 $270 -2.9174454942443813 $269 $495 forward 7 unknown #
vertex $-1 $381 $496 #
vertex $-1 $491 $497 #
straight-curve $-1 0 16.340443614443441 20.985881457638033 1 0 0 I I #
coedge $-1 $380 $498 $263 $387 forward $376 $-1 #
edge $-1 $393 -28.245615615767452 $388 -1.4784238710398085 $386 $499 forward 7 unknown #
vertex $-1 $387 $500 #
straight-curve $-1 0 16.340443614443441 10.885221144871853 -1 0 0 I I #
coedge $-1 $501 $266 $498 $502 reversed $392 $-1 #
coedge $-1 $266 $501 $268 $396 forward $392 $-1 #
loop $-1 $-1 $266 $375 #
vertex $-1 $267 $503 #
straight-curve $-1 0 43.107635359171091 10.885221144871853 -1 0 0 I I #
coedge $-1 $269 $268 $378 $491 reversed $257 $-1 #
edge $-1 $504 -20.985881457638033 $271 -10.885221144871853 $268 $505 forward 7 unknown #
point $-1 67.563097018341622 16.340443614443441 10.885221144871853 #
point $-1 67.563097018341622 43.107635359171084 10.885221144871853 #
loop $-1 $-1 $280 $273 #
plane-surface $-1 -67.563097018341622 0 0 1 0 0 0 0 -1 forward_v I I I I #
coedge $-1 $506 $507 $277 $403 forward $274 $-1 #
coedge $-1 $277 $276 $408 $508 reversed $101 $-1 #
edge $-1 $405 17.89654105474866 $509 25.00664040156304 $401 $510 forward 7 unknown #
coedge $-1 $283 $278 $507 $511 forward $163 $-1 #
vertex $-1 $511 $512 #
straight-curve $-1 -62.279263531646428 5.4820421735508731 20.985881457638033 0 1 0 I I #
coedge $-1 $513 $280 $283 $412 reversed $399 $-1 #
coedge $-1 $280 $513 $402 $508 forward $399 $-1 #
vertex $-1 $281 $514 #
straight-curve $-1 -67.563097018341622 5.5877250797600553 58.32331360944908 0 0 1 I I #
straight-curve $-1 -67.563097018341622 5.5877250797600553 16.228296313213519 -0.74314481823134659 0 -0.66913061440640931 I I #
edge $-1 $515 -16.340443614443441 $284 -5.5877250797600553 $407 $516 forward 7 unknown #
point $-1 -67.563097018341622 5.5877250797600553 20.985881457638033 #
point $-1 -62.279263531646436 5.5877250797600553 20.985881457638033 #
edge $-1 $517 1 $517 0 $287 $-1 forward 7 unknown #
vertex $-1 $288 $518 #
ellipse-curve $-1 -64.121723674652344 7.7382687866967288 17.71920239935935 -0.66913061440640931 0 0.74314481823134659 0.3715724091156733 0 0.33456530720320465 1 I I #
point $-1 -64.549607865878372 7.7382687866967288 18.941654192628992 #
edge $-1 $519 1 $519 0 $291 $-1 forward 7 unknown #
vertex $-1 $292 $520 #
ellipse-curve $-1 -64.121723674652344 10.964084347101746 17.71920239935935 -0.66913061440640931 0 0.74314481823134659 0.3715724091156733 0 0.33456530720320465 1 I I #
point $-1 -64.549607865878372 10.964084347101746 18.941654192628992 #
edge $-1 $521 1 $521 0 $295 $-1 forward 7 unknown #
vertex $-1 $296 $522 #
ellipse-curve $-1 -64.121723674652344 14.189899907506764 17.71920239935935 -0.66913061440640931 0 0.74314481823134659 0.3715724091156733 0 0.33456530720320465 1 I I #
point $-1 -64.549607865878372 14.189899907506764 18.941654192628992 #
loop $-1 $-1 $432 $299 #
plane-surface $-1 0 16.340443614443441 15.935551301254943 0 1 0 0 0 1 forward_v I I I I #
coedge $-1 $302 $437 $523 $524 forward $192 $-1 #
coedge $-1 $304 $303 $302 $431 reversed $120 $-1 #
edge $-1 $525 -10.858401440892568 $438 -0.10568290620918219 $302 $526 forward 7 unknown #
coedge $-1 $523 $527 $304 $433 forward $427 $-1 #
edge $-1 $435 -92.569737419904669 $525 -85.459638073090275 $432 $528 forward 7 unknown #
coedge $-1 $310 $305 $527 $529 forward $300 $-1 #
vertex $-1 $529 $530 #
straight-curve $-1 67.563097018341622 5.4820421735508731 16.228296313213498 0 1 0 I I #
coedge $-1 $429 $307 $310 $441 forward $192 $-1 #
vertex $-1 $308 $531 #
straight-curve $-1 28.780919675411248 5.5877250797600553 20.98588145763803 1 0 0 I I #
straight-curve $-1 -32.855233887343047 5.5877250797600553 106.64536955137906 -0.74314481823134659 0 0.66913061440640931 I I #
edge $-1 $311 5.5877250797600553 $532 16.340443614443441 $310 $533 forward 7 unknown #
point $-1 67.563097018341622 5.5877250797600553 20.985881457638033 #
point $-1 67.563097018341608 5.5877250797600553 16.228296313213505 #
edge $-1 $534 1 $534 0 $314 $-1 forward 7 unknown #
vertex $-1 $315 $535 #
ellipse-curve $-1 64.121723674652358 7.7382687866967288 17.71920239935935 0.66913061440640931 0 0.74314481823134659 0.3715724091156733 0 -0.33456530720320465 1 I I #
point $-1 65.292752684109729 7.7382687866967288 18.272523578222582 #
edge $-1 $536 1 $536 0 $318 $-1 forward 7 unknown #
vertex $-1 $319 $537 #
ellipse-curve $-1 64.121723674652358 10.964084347101746 17.71920239935935 0.66913061440640931 0 0.74314481823134659 0.3715724091156733 0 -0.33456530720320465 1 I I #
point $-1 65.292752684109729 10.964084347101746 18.272523578222582 #
edge $-1 $538 1 $538 0 $322 $-1 forward 7 unknown #
vertex $-1 $323 $539 #
ellipse-curve $-1 64.121723674652358 14.189899907506764 17.71920239935935 0.66913061440640931 0 0.74314481823134659 0.3715724091156733 0 -0.33456530720320465 1 I I #
point $-1 65.292752684109729 14.189899907506764 18.272523578222582 #
plane-surface $-1 67.563097018341622 0 0 -1 0 0 0 0 1 forward_v I I I I #
coedge $-1 $331 $329 $333 $461 reversed $221 $-1 #
edge $-1 $344 -20.985881457638033 $463 20.985881457638033 $343 $540 forward 7 unknown #
vertex $-1 $461 $541 #
straight-curve $-1 -67.563097018341622 -43.107635359171091 0 0 0 -1 I I #
edge $-1 $459 -43.107635359171091 $463 43.107635359171091 $457 $542 forward 7 unknown #
straight-curve $-1 0 -43.107635359171091 -20.985881457638033 -1 0 0 I I #
vertex $-1 $336 $543 #
straight-curve $-1 0 43.107635359171091 -20.985881457638033 1 0 0 I I #
point $-1 67.563097018341622 43.107635359171091 -20.985881457638033 #
point $-1 67.563097018341622 -43.107635359171091 -20.985881457638033 #
straight-curve $-1 -67.563097018341622 0 20.985881457638033 0 -1 0 I I #
point $-1 -67.563097018341622 43.107635359171091 20.985881457638033 #
point $-1 -67.563097018341622 -43.107635359171091 20.985881457638033 #
straight-curve $-1 67.563097018341622 -43.107635359171091 0 0 0 -1 I I #
straight-curve $-1 67.563097018341622 43.107635359171091 0 0 0 -1 I I #
plane-surface $-1 67.563097018341622 0 0 -1 0 0 0 0 1 forward_v I I I I #
coedge $-1 $357 $356 $367 $484 reversed $147 $-1 #
coedge $-1 $544 $360 $357 $475 forward $354 $-1 #
edge $-1 $476 19.504369301533437 $545 43.107635359171091 $357 $546 forward 7 unknown #
vertex $-1 $475 $547 #
straight-curve $-1 -67.563097018341622 -19.504369301533437 8.4878274021946591 0 0 -1 I I #
coedge $-1 $360 $544 $362 $480 forward $354 $-1 #
straight-curve $-1 0 -19.504369301533437 20.985881457638033 -1 0 0 I I #
edge $-1 $487 -43.107635359171091 $363 -19.504369301533437 $362 $548 forward 7 unknown #
point $-1 67.563097018341622 -19.504369301533437 20.98588145763803 #
straight-curve $-1 -67.563097018341622 -15.653001165176132 12.965428151140607 0 -1 0 I I #
coedge $-1 $367 $366 $544 $549 reversed $240 $-1 #
edge $-1 $545 -20.985881457638033 $368 -12.965428151140607 $473 $550 forward 7 unknown #
point $-1 -67.563097018341622 -43.107635359171091 12.965428151140607 #
point $-1 -67.563097018341622 -19.504369301533437 12.965428151140607 #
vertex $-1 $480 $551 #
straight-curve $-1 67.563097018341622 -43.107635359171091 0 0 0 -1 I I #
plane-surface $-1 0 43.107635359171091 0 0 -1 0 0 0 -1 forward_v I I I I #
coedge $-1 $379 $378 $501 $552 forward $155 $-1 #
edge $-1 $384 16.340443614443441 $504 43.107635359171091 $395 $553 forward 7 unknown #
coedge $-1 $498 $380 $379 $493 reversed $376 $-1 #
edge $-1 $554 -43.107635359171091 $383 -16.340443614443441 $492 $555 forward 7 unknown #
straight-curve $-1 -67.563097018341622 16.340443614443441 7.9677756506274715 0 0 1 I I #
straight-curve $-1 67.563097018341622 16.340443614443441 7.9677756506274715 0 0 -1 I I #
point $-1 -67.563097018341622 16.340443614443441 20.985881457638033 #
point $-1 67.563097018341622 16.340443614443441 20.985881457638033 #
coedge $-1 $386 $492 $390 $502 forward $376 $-1 #
straight-curve $-1 -67.563097018341622 14.862019743403632 10.885221144871853 0 -1 0 I I #
point $-1 -67.563097018341622 16.340443614443441 10.885221144871853 #
coedge $-1 $391 $390 $490 $552 reversed $392 $-1 #
edge $-1 $554 -20.985881457638033 $393 -10.885221144871853 $390 $556 forward 7 unknown #
point $-1 -67.563097018341622 43.107635359171084 10.885221144871853 #
vertex $-1 $491 $557 #
straight-curve $-1 67.563097018341622 43.107635359171091 0 0 0 -1 I I #
coedge $-1 $507 $401 $513 $558 reversed $274 $-1 #
coedge $-1 $401 $506 $404 $511 reversed $274 $-1 #
edge $-1 $509 -10.858401440892568 $409 -0.10568290620918219 $408 $559 forward 7 unknown #
vertex $-1 $403 $560 #
straight-curve $-1 -48.979541782545411 16.340443614443441 32.961004969351535 -0.74314481823134659 0 -0.66913061440640931 I I #
edge $-1 $405 62.279263531646436 $515 67.563097018341622 $404 $561 forward 7 unknown #
point $-1 -62.279263531646436 16.340443614443441 20.985881457638033 #
coedge $-1 $408 $407 $506 $558 forward $399 $-1 #
point $-1 -67.563097018341622 5.5877250797600553 16.228296313213519 #
vertex $-1 $412 $562 #
straight-curve $-1 -67.563097018341622 0 20.985881457638033 0 -1 0 I I #
vertex $-1 $415 $563 #
point $-1 -63.750151265536672 7.7382687866967288 18.053767706562557 #
vertex $-1 $419 $564 #
point $-1 -63.750151265536672 10.964084347101746 18.053767706562557 #
vertex $-1 $423 $565 #
point $-1 -63.750151265536672 14.189899907506764 18.053767706562557 #
coedge $-1 $527 $432 $429 $524 reversed $427 $-1 #
edge $-1 $532 -67.563097018341622 $525 -62.279263531646407 $429 $566 forward 7 unknown #
vertex $-1 $433 $567 #
straight-curve $-1 62.279263531646421 5.4820421735508731 20.985881457638023 0 -1 0 I I #
coedge $-1 $432 $523 $434 $529 reversed $427 $-1 #
straight-curve $-1 -1.229623670296931 16.340443614443441 78.169541588434299 -0.74314481823134659 0 0.66913061440640931 I I #
edge $-1 $435 8.2605206625860337 $532 13.018105807010562 $434 $568 forward 7 unknown #
point $-1 67.563097018341622 16.340443614443441 16.228296313213505 #
point $-1 62.279263531646421 5.5877250797600553 20.98588145763803 #
vertex $-1 $524 $569 #
straight-curve $-1 67.563097018341622 0 20.985881457638033 0 1 0 I I #
vertex $-1 $444 $570 #
point $-1 64.49329608376803 7.7382687866967288 17.384637092156147 #
vertex $-1 $448 $571 #
point $-1 64.49329608376803 10.964084347101746 17.384637092156147 #
vertex $-1 $452 $572 #
point $-1 64.49329608376803 14.189899907506764 17.384637092156147 #
straight-curve $-1 -67.563097018341622 43.107635359171091 0 0 0 -1 I I #
point $-1 -67.563097018341622 -43.107635359171091 -20.985881457638033 #
straight-curve $-1 -67.563097018341622 0 -20.985881457638033 0 1 0 I I #
point $-1 -67.563097018341622 43.107635359171091 -20.985881457638033 #
coedge $-1 $478 $474 $483 $549 forward $354 $-1 #
vertex $-1 $475 $573 #
straight-curve $-1 -67.563097018341622 0 20.985881457638033 0 -1 0 I I #
point $-1 -67.563097018341622 -19.504369301533437 20.98588145763803 #
straight-curve $-1 67.563097018341622 0 20.985881457638033 0 1 0 I I #
edge $-1 $545 -67.563097018341622 $487 67.563097018341622 $483 $574 forward 7 unknown #
straight-curve $-1 -67.563097018341622 -43.107635359171091 0 0 0 -1 I I #
point $-1 67.563097018341622 -43.107635359171091 20.985881457638033 #
edge $-1 $504 -67.563097018341622 $554 67.563097018341622 $501 $575 forward 7 unknown #
straight-curve $-1 67.563097018341622 0 20.985881457638033 0 1 0 I I #
vertex $-1 $552 $576 #
straight-curve $-1 -67.563097018341622 0 20.985881457638033 0 -1 0 I I #
straight-curve $-1 -67.563097018341622 43.107635359171091 0 0 0 -1 I I #
point $-1 67.563097018341622 43.107635359171091 20.985881457638033 #
edge $-1 $515 -13.018105807010562 $509 -8.2605206625860479 $513 $577 forward 7 unknown #
straight-curve $-1 -67.563097018341622 5.4820421735508731 16.228296313213519 0 -1 0 I I #
point $-1 -67.563097018341622 16.340443614443441 16.228296313213519 #
straight-curve $-1 0 16.340443614443441 20.985881457638033 -1 0 0 I I #
point $-1 -67.563097018341622 16.340443614443441 20.985881457638033 #
point $-1 -63.787158367449138 7.7382687866967288 17.347629990243679 #
point $-1 -63.787158367449138 10.964084347101746 17.347629990243679 #
point $-1 -63.787158367449138 14.189899907506764 17.347629990243679 #
straight-curve $-1 0 16.340443614443441 20.985881457638033 -1 0 0 I I #
point $-1 62.279263531646407 16.340443614443441 20.985881457638033 #
straight-curve $-1 67.563097018341622 16.340443614443441 7.9677756506274715 0 0 1 I I #
point $-1 67.563097018341622 16.340443614443441 20.985881457638033 #
point $-1 63.787158367449152 7.7382687866967288 17.347629990243679 #
point $-1 63.787158367449152 10.964084347101746 17.347629990243679 #
point $-1 63.787158367449152 14.189899907506764 17.347629990243679 #
point $-1 -67.563097018341622 -43.107635359171091 20.985881457638033 #
straight-curve $-1 0 -43.107635359171091 20.985881457638033 1 0 0 I I #
straight-curve $-1 0 43.107635359171091 20.985881457638033 -1 0 0 I I #
point $-1 -67.563097018341622 43.107635359171091 20.985881457638033 #
straight-curve $-1 -67.563097018341622 16.340443614443441 7.9677756506274715 0 0 -1 I I #
End-of-ACIS-data 