500 0 5 0           
7 Unknown 11 ACIS 5.0 NT 24 Fri Mar 26 20:31:36 1999 
-1 9.9999999999999995e-007 1e-010 
body $-1 $5 $-1 $6 #
body $-1 $7 $-1 $8 #
body $-1 $9 $-1 $10 #
body $-1 $11 $-1 $12 #
body $-1 $13 $-1 $14 #
lump $-1 $-1 $15 $0 #
transform $-1 1 0 0 0 1 0 0 0 1 78.729209265419485 47.170730551543365 18.574329905525175 1 rotate no_reflect no_shear #
lump $-1 $-1 $16 $1 #
transform $-1 1 0 0 0 1 0 0 0 1 78.729209265419485 47.170730551543365 18.574329905525175 1 rotate no_reflect no_shear #
lump $-1 $-1 $17 $2 #
transform $-1 1 0 0 0 1 0 0 0 1 78.729209265419485 47.170730551543365 18.574329905525175 1 rotate no_reflect no_shear #
lump $-1 $-1 $18 $3 #
transform $-1 1 0 0 0 1 0 0 0 1 78.729209265419485 47.170730551543365 18.574329905525175 1 rotate no_reflect no_shear #
lump $-1 $-1 $19 $4 #
transform $-1 1 0 0 0 1 0 0 0 1 78.729209265419485 47.170730551543365 18.574329905525175 1 rotate no_reflect no_shear #
shell $-1 $-1 $-1 $20 $-1 $5 #
shell $-1 $-1 $-1 $21 $-1 $7 #
shell $-1 $-1 $-1 $22 $-1 $9 #
shell $-1 $-1 $-1 $23 $-1 $11 #
shell $-1 $-1 $-1 $24 $-1 $13 #
face $-1 $25 $26 $15 $-1 $27 forward single #
face $-1 $28 $29 $16 $-1 $30 forward single #
face $-1 $31 $32 $17 $-1 $33 reversed single #
face $-1 $34 $35 $18 $-1 $36 forward single #
face $-1 $37 $38 $19 $-1 $39 forward single #
face $-1 $40 $41 $15 $-1 $42 reversed single #
loop $-1 $-1 $43 $20 #
plane-surface $-1 0 0 18.574329905525175 0 0 1 1 0 0 forward_v I I I I #
face $-1 $44 $45 $16 $-1 $46 reversed single #
loop $-1 $-1 $47 $21 #
plane-surface $-1 -70.453868279091608 0 11.006652744086885 0 0 1 1 0 0 forward_v I I I I #
face $-1 $48 $49 $17 $-1 $50 reversed single #
loop $-1 $-1 $51 $22 #
plane-surface $-1 56.654509595809131 -139.72246799567344 141.56679499832762 1 0 0 0 0.5877852598018023 -0.80901698891910034 forward_v I I I I #
face $-1 $52 $53 $18 $-1 $54 forward single #
loop $-1 $55 $56 $23 #
cone-surface $-1 62.961566644269254 -42.749895284425939 14.454660214965404 0 0.5877852598018023 -0.80901698891910034 1.5 0 0 1 I I 0 1 1.5 forward I I I I #
face $-1 $57 $58 $19 $-1 $59 forward single #
loop $-1 $60 $61 $24 #
cone-surface $-1 72.422152216959404 -42.749895284425939 14.454660214965404 0 0.5877852598018023 -0.80901698891910034 1.5 0 0 1 I I 0 1 1.5 forward I I I I #
face $-1 $62 $63 $15 $-1 $64 reversed single #
loop $-1 $-1 $65 $25 #
plane-surface $-1 0 0 -18.574329905525175 0 0 1 1 0 0 forward_v I I I I #
coedge $-1 $66 $67 $68 $69 forward $26 $-1 #
face $-1 $70 $71 $16 $-1 $72 reversed single #
loop $-1 $-1 $73 $28 #
plane-surface $-1 -70.453868279091608 0 4.7923838448190139 0 0 1 1 0 0 forward_v I I I I #
coedge $-1 $74 $75 $76 $77 forward $29 $-1 #
face $-1 $78 $79 $17 $-1 $80 forward single #
loop $-1 $-1 $81 $31 #
plane-surface $-1 67.691859430614301 -47.170730551543329 14.180259358544802 0 -0.5877852598018023 0.80901698891910034 1 0 0 forward_v I I I I #
coedge $-1 $82 $83 $84 $85 reversed $32 $-1 #
face $-1 $-1 $86 $18 $-1 $87 forward single #
loop $-1 $88 $89 $34 #
cone-surface $-1 62.961566644269254 -40.912180642500516 11.925263056206489 0 0.5877852598018023 -0.80901698891910034 0.75 0 0 1 I I -0.70710678118654757 0.70710678118654757 0.75 forward I I I I #
loop $-1 $-1 $90 $23 #
coedge $-1 $56 $56 $91 $92 reversed $35 $-1 #
face $-1 $-1 $93 $19 $-1 $94 forward single #
loop $-1 $95 $96 $37 #
cone-surface $-1 72.422152216959404 -40.912180642500516 11.925263056206489 0 0.5877852598018023 -0.80901698891910034 0.75 0 0 1 I I -0.70710678118654757 0.70710678118654757 0.75 forward I I I I #
loop $-1 $-1 $97 $24 #
coedge $-1 $61 $61 $98 $99 reversed $38 $-1 #
face $-1 $100 $101 $15 $-1 $102 reversed single #
loop $-1 $-1 $103 $40 #
plane-surface $-1 0 -47.170730551543365 0 0 1 0 0 0 1 forward_v I I I I #
coedge $-1 $104 $105 $106 $107 forward $41 $-1 #
coedge $-1 $108 $43 $109 $110 forward $26 $-1 #
coedge $-1 $43 $108 $111 $112 forward $26 $-1 #
coedge $-1 $113 $114 $43 $69 reversed $115 $-1 #
edge $-1 $116 -47.170730551543365 $117 47.170730551543365 $68 $118 forward 7 unknown #
face $-1 $119 $120 $16 $-1 $121 reversed single #
loop $-1 $-1 $122 $44 #
plane-surface $-1 -62.178527292763732 0 7.8995182944529496 -1 0 0 0 0 1 forward_v I I I I #
coedge $-1 $123 $124 $125 $126 forward $45 $-1 #
coedge $-1 $127 $47 $128 $129 reversed $29 $-1 #
coedge $-1 $47 $127 $130 $131 reversed $29 $-1 #
coedge $-1 $122 $132 $47 $77 reversed $71 $-1 #
edge $-1 $133 -47.170730551543365 $134 47.170730551543365 $76 $135 forward 7 unknown #
face $-1 $136 $137 $17 $-1 $138 reversed single #
loop $-1 $-1 $139 $48 #
plane-surface $-1 0 0 18.574329905525175 0 0 1 1 0 0 forward_v I I I I #
coedge $-1 $140 $141 $142 $143 reversed $49 $-1 #
coedge $-1 $83 $51 $144 $145 reversed $32 $-1 #
coedge $-1 $51 $82 $140 $146 reversed $32 $-1 #
coedge $-1 $142 $147 $51 $85 forward $137 $-1 #
edge $-1 $148 52.209067593638636 $149 56.603138140619038 $84 $150 forward 7 unknown #
loop $-1 $-1 $91 $52 #
plane-surface $-1 67.691859430614301 -47.170730551543329 14.180259358544802 0 -0.5877852598018023 0.80901698891910034 1 0 0 forward_v I I I I #
loop $-1 $-1 $151 $34 #
coedge $-1 $89 $89 $90 $152 reversed $53 $-1 #
coedge $-1 $90 $90 $89 $152 forward $55 $-1 #
coedge $-1 $91 $91 $56 $92 forward $86 $-1 #
edge $-1 $153 2.0805374914711066e-015 $153 6.2831853071796022 $91 $154 forward 7 unknown #
loop $-1 $-1 $98 $57 #
plane-surface $-1 67.691859430614301 -47.170730551543329 14.180259358544802 0 -0.5877852598018023 0.80901698891910034 1 0 0 forward_v I I I I #
loop $-1 $-1 $155 $37 #
coedge $-1 $96 $96 $97 $156 reversed $58 $-1 #
coedge $-1 $97 $97 $96 $156 forward $60 $-1 #
coedge $-1 $98 $98 $61 $99 forward $93 $-1 #
edge $-1 $157 2.0805374914711066e-015 $157 6.2831853071796022 $98 $158 forward 7 unknown #
face $-1 $159 $160 $15 $-1 $161 reversed single #
loop $-1 $-1 $162 $62 #
plane-surface $-1 -78.729209265419485 0 0 1 0 0 0 0 -1 forward_v I I I I #
coedge $-1 $163 $111 $164 $165 forward $63 $-1 #
coedge $-1 $166 $65 $163 $167 forward $41 $-1 #
coedge $-1 $65 $166 $168 $169 forward $41 $-1 #
coedge $-1 $114 $113 $65 $107 reversed $115 $-1 #
edge $-1 $170 -47.170730551543365 $171 47.170730551543365 $106 $172 forward 7 unknown #
coedge $-1 $67 $66 $173 $174 forward $26 $-1 #
coedge $-1 $175 $176 $66 $110 reversed $160 $-1 #
edge $-1 $117 -78.729209265419485 $177 78.729209265419485 $109 $178 forward 7 unknown #
coedge $-1 $103 $179 $67 $112 reversed $63 $-1 #
edge $-1 $180 -78.729209265419485 $116 78.729209265419485 $111 $181 forward 7 unknown #
coedge $-1 $106 $68 $179 $182 forward $115 $-1 #
coedge $-1 $68 $106 $175 $183 reversed $115 $-1 #
loop $-1 $-1 $113 $159 #
vertex $-1 $69 $184 #
vertex $-1 $69 $185 #
straight-curve $-1 78.729209265419485 0 18.574329905525175 0 1 0 I I #
face $-1 $186 $187 $16 $-1 $188 reversed single #
loop $-1 $-1 $189 $70 #
plane-surface $-1 0 -47.170730551543365 0 0 1 0 0 0 1 forward_v I I I I #
coedge $-1 $125 $76 $190 $191 reversed $71 $-1 #
coedge $-1 $192 $73 $189 $193 reversed $45 $-1 #
coedge $-1 $73 $192 $194 $195 reversed $45 $-1 #
coedge $-1 $132 $122 $73 $126 reversed $71 $-1 #
edge $-1 $196 -47.170730551543365 $197 47.170730551543365 $125 $198 forward 7 unknown #
coedge $-1 $75 $74 $199 $200 reversed $29 $-1 #
coedge $-1 $201 $202 $74 $129 forward $203 $-1 #
edge $-1 $204 -43.50227512587368 $134 -26.951593153217928 $128 $205 forward 7 unknown #
coedge $-1 $206 $190 $75 $131 forward $120 $-1 #
edge $-1 $133 26.951593153217928 $207 43.50227512587368 $130 $208 forward 7 unknown #
coedge $-1 $76 $125 $201 $209 reversed $71 $-1 #
vertex $-1 $131 $210 #
vertex $-1 $129 $211 #
straight-curve $-1 -62.178527292763732 0 11.006652744086885 0 1 0 I I #
face $-1 $-1 $212 $17 $-1 $213 reversed single #
loop $-1 $-1 $84 $78 #
plane-surface $-1 0 -47.170730551543365 0 0 1 0 0 0 1 forward_v I I I I #
coedge $-1 $144 $214 $215 $216 forward $79 $-1 #
coedge $-1 $215 $81 $83 $146 forward $49 $-1 #
coedge $-1 $81 $215 $217 $218 reversed $49 $-1 #
coedge $-1 $219 $84 $81 $143 forward $137 $-1 #
edge $-1 $149 22.808579880501981 $220 44.88327955011232 $142 $221 forward 7 unknown #
coedge $-1 $222 $139 $82 $145 forward $79 $-1 #
edge $-1 $223 -28.738422586380111 $148 -22.690503446293356 $144 $224 forward 7 unknown #
edge $-1 $149 -4.440380272436258e-014 $223 7.4756392299834591 $83 $225 forward 7 unknown #
coedge $-1 $84 $219 $222 $226 reversed $137 $-1 #
vertex $-1 $226 $227 #
vertex $-1 $85 $228 #
straight-curve $-1 56.654509595809131 -47.170730551543365 70.783397499163812 0 0 -1 I I #
coedge $-1 $151 $151 $-1 $229 reversed $88 $-1 #
edge $-1 $230 0 $230 6.2831853071796004 $89 $231 forward 7 unknown #
vertex $-1 $92 $232 #
ellipse-curve $-1 62.961566644269254 -44.146770981499998 16.377294632034971 0 -0.5877852598018023 0.80901698891910034 1.5 0 0 1 I I #
coedge $-1 $155 $155 $-1 $233 reversed $95 $-1 #
edge $-1 $234 0 $234 6.2831853071796004 $96 $235 forward 7 unknown #
vertex $-1 $99 $236 #
ellipse-curve $-1 72.422152216959404 -44.146770981499998 16.377294632034971 0 -0.5877852598018023 0.80901698891910034 1.5 0 0 1 I I #
face $-1 $-1 $115 $15 $-1 $237 reversed single #
loop $-1 $-1 $175 $100 #
plane-surface $-1 0 47.170730551543365 0 0 -1 0 0 0 -1 forward_v I I I I #
coedge $-1 $238 $173 $176 $239 forward $101 $-1 #
coedge $-1 $179 $103 $104 $167 reversed $63 $-1 #
coedge $-1 $173 $238 $103 $165 reversed $101 $-1 #
edge $-1 $180 -18.574329905525175 $240 18.574329905525175 $164 $241 forward 7 unknown #
coedge $-1 $105 $104 $238 $242 forward $41 $-1 #
edge $-1 $171 -78.729209265419485 $240 78.729209265419485 $163 $243 forward 7 unknown #
coedge $-1 $176 $175 $105 $169 reversed $160 $-1 #
edge $-1 $244 -78.729209265419485 $170 78.729209265419485 $168 $245 forward 7 unknown #
vertex $-1 $107 $246 #
vertex $-1 $182 $247 #
straight-curve $-1 78.729209265419485 0 -18.574329905525175 0 -1 0 I I #
coedge $-1 $162 $164 $108 $174 reversed $101 $-1 #
edge $-1 $177 -47.170730551543365 $180 47.170730551543365 $173 $248 forward 7 unknown #
coedge $-1 $168 $109 $114 $183 forward $160 $-1 #
coedge $-1 $109 $168 $162 $239 reversed $160 $-1 #
vertex $-1 $110 $249 #
straight-curve $-1 0 47.170730551543365 18.574329905525175 -1 0 0 I I #
coedge $-1 $111 $163 $113 $182 reversed $63 $-1 #
vertex $-1 $174 $250 #
straight-curve $-1 0 -47.170730551543365 18.574329905525175 1 0 0 I I #
edge $-1 $116 -18.574329905525175 $171 18.574329905525175 $113 $251 forward 7 unknown #
edge $-1 $117 -18.574329905525175 $170 18.574329905525175 $114 $252 forward 7 unknown #
point $-1 78.729209265419485 -47.170730551543365 18.574329905525175 #
point $-1 78.729209265419485 47.170730551543365 18.574329905525175 #
face $-1 $-1 $203 $16 $-1 $253 reversed single #
loop $-1 $-1 $254 $119 #
plane-surface $-1 -78.729209265419485 0 0 1 0 0 0 0 -1 forward_v I I I I #
coedge $-1 $190 $206 $123 $193 forward $120 $-1 #
coedge $-1 $130 $189 $122 $191 forward $120 $-1 #
edge $-1 $197 0.84262469759253911 $133 7.0568935968604105 $190 $255 forward 7 unknown #
coedge $-1 $124 $123 $254 $256 reversed $45 $-1 #
edge $-1 $257 -43.50227512587368 $197 -26.951593153217928 $189 $258 forward 7 unknown #
coedge $-1 $202 $201 $124 $195 forward $203 $-1 #
edge $-1 $196 26.951593153217928 $259 43.50227512587368 $194 $260 forward 7 unknown #
vertex $-1 $195 $261 #
vertex $-1 $193 $262 #
straight-curve $-1 -62.178527292763732 0 4.7923838448190139 0 -1 0 I I #
coedge $-1 $263 $264 $127 $200 forward $187 $-1 #
edge $-1 $207 -47.170730551543365 $204 47.170730551543365 $199 $265 forward 7 unknown #
coedge $-1 $194 $128 $132 $209 forward $203 $-1 #
coedge $-1 $128 $194 $263 $266 reversed $203 $-1 #
loop $-1 $-1 $194 $186 #
vertex $-1 $266 $267 #
straight-curve $-1 -35.226934139545804 47.170730551543365 11.006652744086885 1 0 0 I I #
coedge $-1 $189 $130 $264 $268 forward $120 $-1 #
vertex $-1 $268 $269 #
straight-curve $-1 -35.226934139545804 -47.170730551543365 11.006652744086885 -1 0 0 I I #
edge $-1 $134 -7.0568935968604105 $196 -0.84262469759253911 $201 $270 forward 7 unknown #
point $-1 -62.178527292763732 -47.170730551543365 11.006652744086885 #
point $-1 -62.178527292763732 47.170730551543365 11.006652744086885 #
loop $-1 $-1 $217 $136 #
plane-surface $-1 78.729209265419485 0 0 -1 0 0 0 0 1 forward_v I I I I #
coedge $-1 $139 $222 $271 $272 forward $79 $-1 #
coedge $-1 $141 $140 $139 $216 reversed $49 $-1 #
edge $-1 $273 -44.88327955011232 $223 -22.808579880501981 $139 $274 forward 7 unknown #
coedge $-1 $271 $275 $141 $218 forward $212 $-1 #
edge $-1 $220 -14.913487482402346 $273 -7.4378482524188421 $217 $276 forward 7 unknown #
coedge $-1 $147 $142 $275 $277 reversed $137 $-1 #
vertex $-1 $143 $278 #
straight-curve $-1 33.84592971530715 -47.170730551543365 14.180259358544774 1 0 0 I I #
coedge $-1 $214 $144 $147 $226 forward $79 $-1 #
vertex $-1 $145 $279 #
straight-curve $-1 56.654509595809131 -69.86123399783672 18.574329905525175 0 -1 0 I I #
straight-curve $-1 56.654509595809131 -47.170730551543329 14.180259358544802 0 0.80901698891910034 0.5877852598018023 I I #
edge $-1 $148 56.654509595809131 $280 78.729209265419485 $147 $281 forward 7 unknown #
point $-1 56.654509595809131 -47.170730551543365 18.574329905525175 #
point $-1 56.654509595809131 -47.170730551543365 14.180259358544776 #
edge $-1 $282 1 $282 0 $151 $-1 forward 7 unknown #
vertex $-1 $152 $283 #
ellipse-curve $-1 62.961566644269254 -41.353019587351866 12.532025797895814 0 -0.5877852598018023 0.80901698891910034 1.5 0 0 1 I I #
point $-1 64.461566644269254 -44.146770981500012 16.377294632034996 #
edge $-1 $284 1 $284 0 $155 $-1 forward 7 unknown #
vertex $-1 $156 $285 #
ellipse-curve $-1 72.422152216959404 -41.353019587351866 12.532025797895814 0 -0.5877852598018023 0.80901698891910034 1.5 0 0 1 I I #
point $-1 73.922152216959404 -44.146770981500012 16.377294632034996 #
plane-surface $-1 78.729209265419485 0 0 -1 0 0 0 0 1 forward_v I I I I #
coedge $-1 $164 $162 $166 $242 reversed $101 $-1 #
edge $-1 $177 -18.574329905525175 $244 18.574329905525175 $176 $286 forward 7 unknown #
vertex $-1 $242 $287 #
straight-curve $-1 -78.729209265419485 -47.170730551543365 0 0 0 -1 I I #
edge $-1 $240 -47.170730551543365 $244 47.170730551543365 $238 $288 forward 7 unknown #
straight-curve $-1 0 -47.170730551543365 -18.574329905525175 -1 0 0 I I #
vertex $-1 $169 $289 #
straight-curve $-1 0 47.170730551543365 -18.574329905525175 1 0 0 I I #
point $-1 78.729209265419485 47.170730551543365 -18.574329905525175 #
point $-1 78.729209265419485 -47.170730551543365 -18.574329905525175 #
straight-curve $-1 -78.729209265419485 0 18.574329905525175 0 -1 0 I I #
point $-1 -78.729209265419485 47.170730551543365 18.574329905525175 #
point $-1 -78.729209265419485 -47.170730551543365 18.574329905525175 #
straight-curve $-1 78.729209265419485 -47.170730551543365 0 0 0 -1 I I #
straight-curve $-1 78.729209265419485 47.170730551543365 0 0 0 -1 I I #
plane-surface $-1 0 47.170730551543365 0 0 -1 0 0 0 -1 forward_v I I I I #
coedge $-1 $264 $263 $192 $256 forward $187 $-1 #
straight-curve $-1 -62.178527292763732 -47.170730551543365 3.9497591472264748 0 0 1 I I #
edge $-1 $259 -47.170730551543365 $257 47.170730551543365 $254 $290 forward 7 unknown #
vertex $-1 $193 $291 #
straight-curve $-1 -35.226934139545804 -47.170730551543365 4.7923838448190139 1 0 0 I I #
vertex $-1 $195 $292 #
straight-curve $-1 -35.226934139545804 47.170730551543365 4.7923838448190139 -1 0 0 I I #
point $-1 -62.178527292763732 47.170730551543365 4.7923838448190139 #
point $-1 -62.178527292763732 -47.170730551543365 4.7923838448190139 #
coedge $-1 $254 $199 $202 $266 forward $187 $-1 #
coedge $-1 $199 $254 $206 $268 reversed $187 $-1 #
straight-curve $-1 -78.729209265419485 0 11.006652744086885 0 1 0 I I #
edge $-1 $204 -11.006652744086885 $259 -4.7923838448190139 $202 $293 forward 7 unknown #
point $-1 -78.729209265419485 47.170730551543365 11.006652744086885 #
edge $-1 $207 -11.006652744086885 $257 -4.7923838448190139 $264 $294 forward 7 unknown #
point $-1 -78.729209265419485 -47.170730551543365 11.006652744086885 #
straight-curve $-1 -62.178527292763732 47.170730551543365 3.9497591472264748 0 0 -1 I I #
coedge $-1 $275 $217 $214 $272 reversed $212 $-1 #
edge $-1 $280 -47.170730551543365 $273 -41.12281141145661 $271 $295 forward 7 unknown #
vertex $-1 $218 $296 #
straight-curve $-1 33.84592971530715 -41.12281141145661 18.574329905525175 -1 0 0 I I #
coedge $-1 $217 $271 $219 $277 forward $212 $-1 #
straight-curve $-1 78.729209265419485 -35.105465814247523 22.946187472939563 0 0.80901698891910034 0.5877852598018023 I I #
edge $-1 $280 -18.574329905525175 $220 -14.180259358544776 $275 $297 forward 7 unknown #
point $-1 78.72920926541947 -47.170730551543365 14.180259358544776 #
point $-1 56.654509595809131 -41.12281141145661 18.574329905525175 #
vertex $-1 $272 $298 #
straight-curve $-1 0 -47.170730551543365 18.574329905525175 1 0 0 I I #
vertex $-1 $229 $299 #
point $-1 64.461566644269254 -41.353019587351866 12.532025797895814 #
vertex $-1 $233 $300 #
point $-1 73.922152216959404 -41.353019587351866 12.532025797895814 #
straight-curve $-1 -78.729209265419485 47.170730551543365 0 0 0 -1 I I #
point $-1 -78.729209265419485 -47.170730551543365 -18.574329905525175 #
straight-curve $-1 -78.729209265419485 0 -18.574329905525175 0 1 0 I I #
point $-1 -78.729209265419485 47.170730551543365 -18.574329905525175 #
straight-curve $-1 -78.729209265419485 0 4.7923838448190139 0 -1 0 I I #
point $-1 -78.729209265419485 -47.170730551543365 4.7923838448190139 #
point $-1 -78.729209265419485 47.170730551543365 4.7923838448190139 #
straight-curve $-1 -78.729209265419485 47.170730551543365 0 0 0 -1 I I #
straight-curve $-1 -78.729209265419485 -47.170730551543365 0 0 0 -1 I I #
straight-curve $-1 78.729209265419485 0 18.574329905525175 0 1 0 I I #
point $-1 78.72920926541947 -41.12281141145661 18.574329905525175 #
straight-curve $-1 78.729209265419485 -47.170730551543365 0 0 0 -1 I I #
point $-1 78.729209265419485 -47.170730551543365 18.574329905525175 #
point $-1 62.961566644269254 -40.471341697649166 11.318500314517165 #
point $-1 72.422152216959404 -40.471341697649166 11.318500314517165 #
End-of-ACIS-data 