500 0 6 0           
7 Unknown 11 ACIS 5.0 NT 24 Thu Mar 25 22:45:30 1999 
-1 9.9999999999999995e-007 1e-010 
body $-1 $6 $-1 $7 #
body $-1 $8 $-1 $9 #
body $-1 $10 $-1 $11 #
body $-1 $12 $-1 $13 #
body $-1 $14 $-1 $15 #
body $-1 $16 $-1 $17 #
lump $-1 $-1 $18 $0 #
transform $-1 1 0 0 0 1 0 0 0 1 61.973326822717979 29.47889229581375 12.956246208347793 1 rotate no_reflect no_shear #
lump $-1 $-1 $19 $1 #
transform $-1 1 0 0 0 1 0 0 0 1 61.973326822717979 29.47889229581375 12.956246208347793 1 rotate no_reflect no_shear #
lump $-1 $-1 $20 $2 #
transform $-1 1 0 0 0 1 0 0 0 1 61.973326822717979 29.47889229581375 12.956246208347793 1 rotate no_reflect no_shear #
lump $-1 $-1 $21 $3 #
transform $-1 1 0 0 0 1 0 0 0 1 61.973326822717979 29.47889229581375 12.956246208347793 1 rotate no_reflect no_shear #
lump $-1 $-1 $22 $4 #
transform $-1 1 0 0 0 1 0 0 0 1 61.973326822717979 29.47889229581375 12.956246208347793 1 rotate no_reflect no_shear #
lump $-1 $-1 $23 $5 #
transform $-1 1 0 0 0 1 0 0 0 1 61.973326822717979 29.47889229581375 12.956246208347793 1 rotate no_reflect no_shear #
shell $-1 $-1 $-1 $24 $-1 $6 #
shell $-1 $-1 $-1 $25 $-1 $8 #
shell $-1 $-1 $-1 $26 $-1 $10 #
shell $-1 $-1 $-1 $27 $-1 $12 #
shell $-1 $-1 $-1 $28 $-1 $14 #
shell $-1 $-1 $-1 $29 $-1 $16 #
face $-1 $30 $31 $18 $-1 $32 forward single #
face $-1 $33 $34 $19 $-1 $35 reversed single #
face $-1 $36 $37 $20 $-1 $38 reversed single #
face $-1 $39 $40 $21 $-1 $41 forward single #
face $-1 $42 $43 $22 $-1 $44 reversed single #
face $-1 $45 $46 $23 $-1 $47 forward single #
face $-1 $48 $49 $18 $-1 $50 reversed single #
loop $-1 $-1 $51 $24 #
plane-surface $-1 0 0 12.956246208347793 0 0 1 1 0 0 forward_v I I I I #
face $-1 $52 $53 $19 $-1 $54 reversed single #
loop $-1 $-1 $55 $25 #
plane-surface $-1 -56.972479863931554 -25.051578438266542 0 1 0 0 0 0 -1 forward_v I I I I #
face $-1 $56 $57 $20 $-1 $58 reversed single #
loop $-1 $-1 $59 $26 #
plane-surface $-1 -33.811857995310021 49.910763992039918 141.80797646460167 1 0 0 0 -0.55919291073839883 -0.82903756765294845 forward_v I I I I #
face $-1 $60 $61 $21 $-1 $62 forward single #
loop $-1 $63 $64 $27 #
cone-surface $-1 -18.836846252268728 22.781535582989854 7.1441746944475053 0 -0.55919291073839883 -0.82903756765294845 2 0 0 1 I I 0 1 2 forward I I I I #
face $-1 $65 $66 $22 $-1 $67 reversed single #
loop $-1 $-1 $68 $28 #
plane-surface $-1 28.161468827407958 49.910763992039918 141.80797646460167 1 0 0 0 -0.55919291073839883 -0.82903756765294845 forward_v I I I I #
face $-1 $69 $70 $23 $-1 $71 forward single #
loop $-1 $72 $73 $29 #
cone-surface $-1 43.136480570449251 22.781535582989854 7.1441746944475053 0 -0.55919291073839883 -0.82903756765294845 2 0 0 1 I I 0 1 2 forward I I I I #
face $-1 $74 $75 $18 $-1 $76 reversed single #
loop $-1 $-1 $77 $30 #
plane-surface $-1 0 0 -12.956246208347793 0 0 1 1 0 0 forward_v I I I I #
coedge $-1 $78 $79 $80 $81 forward $31 $-1 #
face $-1 $82 $83 $19 $-1 $84 reversed single #
loop $-1 $-1 $85 $33 #
plane-surface $-1 -55.267452571990987 -20.624264580719334 0 0 -1 0 0 0 -1 forward_v I I I I #
coedge $-1 $86 $87 $88 $89 forward $34 $-1 #
face $-1 $90 $91 $20 $-1 $92 reversed single #
loop $-1 $-1 $93 $36 #
plane-surface $-1 -18.836846252268728 -19.399326036235593 39.051544207666979 0 0.55919291073839883 0.82903756765294845 1 0 0 forward_v I I I I #
coedge $-1 $94 $95 $96 $97 reversed $37 $-1 #
face $-1 $-1 $98 $21 $-1 $99 forward single #
loop $-1 $100 $101 $39 #
cone-surface $-1 -18.836846252268728 20.620160353490107 3.9398042014745158 0 -0.55919291073839883 -0.82903756765294845 1 0 0 1 I I -0.70710678118654746 0.70710678118654746 1 forward I I I I #
loop $-1 $-1 $102 $27 #
coedge $-1 $64 $64 $103 $104 reversed $40 $-1 #
face $-1 $105 $106 $22 $-1 $107 reversed single #
loop $-1 $-1 $108 $42 #
plane-surface $-1 43.136480570449251 -19.399326036235593 39.051544207666979 0 0.55919291073839883 0.82903756765294845 1 0 0 forward_v I I I I #
coedge $-1 $109 $110 $111 $112 reversed $43 $-1 #
face $-1 $-1 $113 $23 $-1 $114 forward single #
loop $-1 $115 $116 $45 #
cone-surface $-1 43.136480570449251 20.620160353490107 3.9398042014745158 0 -0.55919291073839883 -0.82903756765294845 1 0 0 1 I I -0.70710678118654746 0.70710678118654746 1 forward I I I I #
loop $-1 $-1 $117 $29 #
coedge $-1 $73 $73 $118 $119 reversed $46 $-1 #
face $-1 $120 $121 $18 $-1 $122 reversed single #
loop $-1 $-1 $123 $48 #
plane-surface $-1 0 -29.47889229581375 0 0 1 0 0 0 1 forward_v I I I I #
coedge $-1 $124 $125 $126 $127 forward $49 $-1 #
coedge $-1 $128 $51 $129 $130 forward $31 $-1 #
coedge $-1 $51 $128 $131 $132 forward $31 $-1 #
coedge $-1 $133 $134 $51 $81 reversed $135 $-1 #
edge $-1 $136 -29.47889229581375 $137 29.47889229581375 $80 $138 forward 7 unknown #
face $-1 $139 $140 $19 $-1 $141 forward single #
loop $-1 $-1 $142 $52 #
plane-surface $-1 -53.562425280050419 -25.051578438266542 0 -1 0 0 0 0 1 forward_v I I I I #
coedge $-1 $143 $144 $145 $146 forward $53 $-1 #
coedge $-1 $147 $55 $148 $149 reversed $34 $-1 #
coedge $-1 $55 $147 $150 $151 reversed $34 $-1 #
coedge $-1 $144 $143 $55 $89 reversed $53 $-1 #
edge $-1 $152 -12.956246208347793 $153 12.956246208347793 $88 $154 forward 7 unknown #
face $-1 $155 $156 $20 $-1 $157 reversed single #
loop $-1 $-1 $158 $56 #
plane-surface $-1 -3.8618345092274335 49.910763992039918 141.80797646460167 -1 0 0 0 0.55919291073839883 0.82903756765294845 forward_v I I I I #
coedge $-1 $159 $160 $161 $162 reversed $57 $-1 #
coedge $-1 $95 $59 $163 $164 reversed $37 $-1 #
coedge $-1 $59 $94 $159 $165 reversed $37 $-1 #
coedge $-1 $161 $166 $59 $97 forward $167 $-1 #
edge $-1 $168 -4.5235102997937915 $169 5.6668384883313436 $96 $170 forward 7 unknown #
loop $-1 $-1 $103 $60 #
plane-surface $-1 -18.836846252268728 -19.399326036235593 39.051544207666979 0 0.55919291073839883 0.82903756765294845 1 0 0 forward_v I I I I #
loop $-1 $-1 $171 $39 #
coedge $-1 $101 $101 $102 $172 reversed $61 $-1 #
coedge $-1 $102 $102 $101 $172 forward $63 $-1 #
coedge $-1 $103 $103 $64 $104 forward $98 $-1 #
edge $-1 $173 4.4469505412303409e-016 $173 6.2831853071796013 $103 $174 forward 7 unknown #
face $-1 $175 $176 $22 $-1 $177 forward single #
loop $-1 $-1 $178 $65 #
plane-surface $-1 58.111492313490544 49.910763992039918 141.80797646460167 -1 0 0 0 0.55919291073839883 0.82903756765294845 forward_v I I I I #
coedge $-1 $179 $180 $181 $182 reversed $66 $-1 #
coedge $-1 $110 $68 $183 $184 reversed $43 $-1 #
coedge $-1 $68 $109 $179 $185 reversed $43 $-1 #
coedge $-1 $181 $186 $68 $112 forward $176 $-1 #
edge $-1 $187 -4.5235102997937915 $188 5.6668384883313436 $111 $189 forward 7 unknown #
loop $-1 $-1 $118 $69 #
plane-surface $-1 43.136480570449251 -19.399326036235593 39.051544207666979 0 0.55919291073839883 0.82903756765294845 1 0 0 forward_v I I I I #
loop $-1 $-1 $190 $45 #
coedge $-1 $116 $116 $117 $191 reversed $70 $-1 #
coedge $-1 $117 $117 $116 $191 forward $72 $-1 #
coedge $-1 $118 $118 $73 $119 forward $113 $-1 #
edge $-1 $192 4.4469505412303409e-016 $192 6.2831853071796013 $118 $193 forward 7 unknown #
face $-1 $194 $195 $18 $-1 $196 reversed single #
loop $-1 $-1 $197 $74 #
plane-surface $-1 -61.973326822717979 0 0 1 0 0 0 0 -1 forward_v I I I I #
coedge $-1 $198 $131 $199 $200 forward $75 $-1 #
coedge $-1 $201 $77 $198 $202 forward $49 $-1 #
coedge $-1 $77 $201 $203 $204 forward $49 $-1 #
coedge $-1 $134 $133 $77 $127 reversed $135 $-1 #
edge $-1 $205 -29.47889229581375 $206 29.47889229581375 $126 $207 forward 7 unknown #
coedge $-1 $79 $78 $208 $209 forward $31 $-1 #
coedge $-1 $210 $211 $78 $130 reversed $195 $-1 #
edge $-1 $137 -61.973326822717979 $212 61.973326822717979 $129 $213 forward 7 unknown #
coedge $-1 $123 $214 $79 $132 reversed $75 $-1 #
edge $-1 $215 -61.973326822717979 $136 61.973326822717979 $131 $216 forward 7 unknown #
coedge $-1 $126 $80 $214 $217 forward $135 $-1 #
coedge $-1 $80 $126 $210 $218 reversed $135 $-1 #
loop $-1 $-1 $133 $194 #
vertex $-1 $81 $219 #
vertex $-1 $81 $220 #
straight-curve $-1 61.973326822717979 0 12.956246208347793 0 1 0 I I #
face $-1 $221 $222 $19 $-1 $223 reversed single #
loop $-1 $-1 $224 $82 #
plane-surface $-1 0 0 12.956246208347793 0 0 1 1 0 0 forward_v I I I I #
coedge $-1 $225 $226 $227 $228 reversed $83 $-1 #
coedge $-1 $88 $85 $229 $230 reversed $53 $-1 #
coedge $-1 $85 $88 $231 $232 reversed $53 $-1 #
coedge $-1 $226 $225 $85 $146 reversed $83 $-1 #
edge $-1 $233 -12.956246208347793 $234 12.956246208347793 $145 $235 forward 7 unknown #
coedge $-1 $87 $86 $236 $237 reversed $34 $-1 #
coedge $-1 $229 $238 $86 $149 forward $222 $-1 #
edge $-1 $239 -16.953103076680478 $153 -8.098475361586063 $148 $240 forward 7 unknown #
coedge $-1 $241 $231 $87 $151 forward $140 $-1 #
edge $-1 $152 8.098475361586063 $242 16.953103076680478 $150 $243 forward 7 unknown #
vertex $-1 $151 $244 #
vertex $-1 $149 $245 #
straight-curve $-1 -56.972479863931554 -20.624264580719334 0 0 0 -1 I I #
face $-1 $-1 $167 $20 $-1 $246 forward single #
loop $-1 $-1 $247 $90 #
plane-surface $-1 0 29.47889229581375 0 0 -1 0 0 0 -1 forward_v I I I I #
coedge $-1 $248 $249 $250 $251 reversed $91 $-1 #
coedge $-1 $252 $93 $95 $165 forward $57 $-1 #
coedge $-1 $93 $252 $248 $253 forward $57 $-1 #
coedge $-1 $250 $96 $93 $162 forward $167 $-1 #
edge $-1 $169 -24.393434869175657 $254 5.5565886169069305 $161 $255 forward 7 unknown #
coedge $-1 $256 $257 $94 $164 forward $156 $-1 #
edge $-1 $258 -64.821219201113564 $168 -57.94774202395304 $163 $259 forward 7 unknown #
edge $-1 $169 46.666002909194717 $258 58.957784591627494 $95 $260 forward 7 unknown #
coedge $-1 $96 $250 $256 $261 forward $167 $-1 #
loop $-1 $-1 $250 $155 #
vertex $-1 $164 $262 #
vertex $-1 $97 $263 #
straight-curve $-1 -33.811857995310021 24.955381996019959 12.956246208347793 0 -1 0 I I #
coedge $-1 $171 $171 $-1 $264 reversed $100 $-1 #
edge $-1 $265 0 $265 6.2831853071796004 $101 $266 forward 7 unknown #
vertex $-1 $104 $267 #
ellipse-curve $-1 -18.836846252268728 24.383717901751194 9.5195076197675306 0 0.55919291073839883 0.82903756765294845 2 0 0 1 I I #
face $-1 $-1 $268 $22 $-1 $269 reversed single #
loop $-1 $-1 $111 $105 #
plane-surface $-1 0 0 12.956246208347793 0 0 1 1 0 0 forward_v I I I I #
coedge $-1 $270 $271 $272 $273 reversed $106 $-1 #
coedge $-1 $274 $108 $110 $185 forward $66 $-1 #
coedge $-1 $108 $274 $270 $275 forward $66 $-1 #
coedge $-1 $272 $111 $108 $182 forward $176 $-1 #
edge $-1 $188 6.5932285421833328 $276 36.543252028265918 $181 $277 forward 7 unknown #
coedge $-1 $278 $279 $109 $184 forward $268 $-1 #
edge $-1 $280 -64.821219201113564 $187 -57.94774202395304 $183 $281 forward 7 unknown #
edge $-1 $188 46.666002909194717 $280 58.957784591627494 $110 $282 forward 7 unknown #
coedge $-1 $111 $272 $278 $283 forward $176 $-1 #
vertex $-1 $184 $284 #
vertex $-1 $112 $285 #
straight-curve $-1 28.161468827407958 24.955381996019959 12.956246208347793 0 -1 0 I I #
coedge $-1 $190 $190 $-1 $286 reversed $115 $-1 #
edge $-1 $287 0 $287 6.2831853071796004 $116 $288 forward 7 unknown #
vertex $-1 $119 $289 #
ellipse-curve $-1 43.136480570449251 24.383717901751194 9.5195076197675306 0 0.55919291073839883 0.82903756765294845 2 0 0 1 I I #
face $-1 $-1 $135 $18 $-1 $290 reversed single #
loop $-1 $-1 $210 $120 #
plane-surface $-1 0 29.47889229581375 0 0 -1 0 0 0 -1 forward_v I I I I #
coedge $-1 $291 $208 $211 $292 forward $121 $-1 #
coedge $-1 $214 $123 $124 $202 reversed $75 $-1 #
coedge $-1 $208 $291 $123 $200 reversed $121 $-1 #
edge $-1 $215 -12.956246208347793 $293 12.956246208347793 $199 $294 forward 7 unknown #
coedge $-1 $125 $124 $291 $295 forward $49 $-1 #
edge $-1 $206 -61.973326822717979 $293 61.973326822717979 $198 $296 forward 7 unknown #
coedge $-1 $211 $210 $125 $204 reversed $195 $-1 #
edge $-1 $297 -61.973326822717979 $205 61.973326822717979 $203 $298 forward 7 unknown #
vertex $-1 $127 $299 #
vertex $-1 $217 $300 #
straight-curve $-1 61.973326822717979 0 -12.956246208347793 0 -1 0 I I #
coedge $-1 $197 $199 $128 $209 reversed $121 $-1 #
edge $-1 $212 -29.47889229581375 $215 29.47889229581375 $208 $301 forward 7 unknown #
coedge $-1 $203 $129 $134 $218 forward $195 $-1 #
coedge $-1 $129 $203 $197 $292 reversed $195 $-1 #
vertex $-1 $130 $302 #
straight-curve $-1 0 29.47889229581375 12.956246208347793 -1 0 0 I I #
coedge $-1 $131 $198 $133 $217 reversed $75 $-1 #
vertex $-1 $209 $303 #
straight-curve $-1 0 -29.47889229581375 12.956246208347793 1 0 0 I I #
edge $-1 $136 -12.956246208347793 $206 12.956246208347793 $133 $304 forward 7 unknown #
edge $-1 $137 -12.956246208347793 $205 12.956246208347793 $134 $305 forward 7 unknown #
point $-1 61.973326822717979 -29.47889229581375 12.956246208347793 #
point $-1 61.973326822717979 29.47889229581375 12.956246208347793 #
face $-1 $-1 $306 $19 $-1 $307 reversed single #
loop $-1 $-1 $308 $139 #
plane-surface $-1 0 0 -12.956246208347793 0 0 1 1 0 0 forward_v I I I I #
coedge $-1 $231 $241 $226 $309 forward $140 $-1 #
coedge $-1 $145 $142 $308 $310 reversed $83 $-1 #
coedge $-1 $142 $145 $224 $309 reversed $83 $-1 #
coedge $-1 $311 $312 $142 $228 forward $306 $-1 #
edge $-1 $313 -12.956246208347793 $314 12.956246208347793 $227 $315 forward 7 unknown #
coedge $-1 $308 $148 $143 $230 forward $222 $-1 #
edge $-1 $153 -29.33875357793606 $234 -25.928698994054926 $229 $316 forward 7 unknown #
coedge $-1 $150 $224 $144 $232 forward $140 $-1 #
edge $-1 $233 25.928698994054926 $152 29.33875357793606 $231 $317 forward 7 unknown #
vertex $-1 $232 $318 #
vertex $-1 $230 $319 #
straight-curve $-1 -53.562425280050419 -20.624264580719334 0 0 0 -1 I I #
coedge $-1 $312 $311 $147 $237 forward $306 $-1 #
edge $-1 $242 -12.956246208347793 $239 12.956246208347793 $236 $320 forward 7 unknown #
coedge $-1 $148 $308 $312 $321 forward $222 $-1 #
vertex $-1 $149 $322 #
straight-curve $-1 -56.972479863931554 -12.525789219133271 -12.956246208347793 0 1 0 I I #
coedge $-1 $224 $150 $311 $323 forward $140 $-1 #
vertex $-1 $323 $324 #
straight-curve $-1 -56.972479863931554 -12.525789219133271 12.956246208347793 0 -1 0 I I #
point $-1 -56.972479863931554 -20.624264580719334 12.956246208347793 #
point $-1 -56.972479863931554 -20.624264580719334 -12.956246208347793 #
plane-surface $-1 0 0 12.956246208347793 0 0 1 1 0 0 forward_v I I I I #
coedge $-1 $257 $256 $249 $325 forward $156 $-1 #
coedge $-1 $249 $158 $160 $253 reversed $91 $-1 #
coedge $-1 $158 $248 $247 $325 reversed $91 $-1 #
coedge $-1 $166 $161 $158 $251 forward $167 $-1 #
edge $-1 $254 -5.6668384883313436 $326 4.5235102997937915 $250 $327 forward 7 unknown #
coedge $-1 $160 $159 $257 $328 reversed $57 $-1 #
edge $-1 $329 -58.957784591627494 $254 -46.666002909194717 $248 $330 forward 7 unknown #
vertex $-1 $162 $331 #
straight-curve $-1 -9.4184231261343641 19.288543507688615 12.956246208347793 1 0 0 I I #
coedge $-1 $247 $163 $166 $261 reversed $156 $-1 #
coedge $-1 $163 $247 $252 $328 forward $156 $-1 #
vertex $-1 $164 $332 #
straight-curve $-1 -33.811857995310021 29.47889229581375 70.903988232300833 0 0 1 I I #
straight-curve $-1 -33.811857995310021 -19.399326036235593 39.051544207666979 0 0.82903756765294845 -0.55919291073839883 I I #
edge $-1 $326 3.8618345092274335 $168 33.811857995310021 $256 $333 forward 7 unknown #
point $-1 -33.811857995310021 29.47889229581375 12.956246208347793 #
point $-1 -33.811857995310021 19.288543507688615 12.956246208347793 #
edge $-1 $334 1 $334 0 $171 $-1 forward 7 unknown #
vertex $-1 $172 $335 #
ellipse-curve $-1 -18.836846252268728 21.179353264228507 4.768841769127464 0 0.55919291073839883 0.82903756765294845 2 0 0 1 I I #
point $-1 -16.836846252268728 24.383717901751204 9.5195076197675448 #
loop $-1 $-1 $183 $175 #
plane-surface $-1 0 29.47889229581375 0 0 -1 0 0 0 -1 forward_v I I I I #
coedge $-1 $271 $178 $180 $275 reversed $106 $-1 #
coedge $-1 $178 $270 $336 $337 reversed $106 $-1 #
coedge $-1 $186 $181 $178 $273 forward $176 $-1 #
edge $-1 $276 -5.6668384883313436 $338 4.5235102997937915 $272 $339 forward 7 unknown #
coedge $-1 $180 $179 $279 $340 reversed $66 $-1 #
edge $-1 $341 -58.957784591627494 $276 -46.666002909194717 $270 $342 forward 7 unknown #
vertex $-1 $182 $343 #
straight-curve $-1 21.568240285224626 19.288543507688615 12.956246208347793 1 0 0 I I #
coedge $-1 $336 $183 $186 $283 reversed $268 $-1 #
coedge $-1 $183 $336 $274 $340 forward $268 $-1 #
vertex $-1 $184 $344 #
straight-curve $-1 28.161468827407958 29.47889229581375 70.903988232300833 0 0 1 I I #
straight-curve $-1 28.161468827407958 -19.399326036235593 39.051544207666979 0 0.82903756765294845 -0.55919291073839883 I I #
edge $-1 $338 -58.111492313490544 $187 -28.161468827407958 $278 $345 forward 7 unknown #
point $-1 28.161468827407958 29.47889229581375 12.956246208347793 #
point $-1 28.161468827407958 19.288543507688615 12.956246208347793 #
edge $-1 $346 1 $346 0 $190 $-1 forward 7 unknown #
vertex $-1 $191 $347 #
ellipse-curve $-1 43.136480570449251 21.179353264228507 4.768841769127464 0 0.55919291073839883 0.82903756765294845 2 0 0 1 I I #
point $-1 45.136480570449251 24.383717901751204 9.5195076197675448 #
plane-surface $-1 61.973326822717979 0 0 -1 0 0 0 0 1 forward_v I I I I #
coedge $-1 $199 $197 $201 $295 reversed $121 $-1 #
edge $-1 $212 -12.956246208347793 $297 12.956246208347793 $211 $348 forward 7 unknown #
vertex $-1 $295 $349 #
straight-curve $-1 -61.973326822717979 -29.47889229581375 0 0 0 -1 I I #
edge $-1 $293 -29.47889229581375 $297 29.47889229581375 $291 $350 forward 7 unknown #
straight-curve $-1 0 -29.47889229581375 -12.956246208347793 -1 0 0 I I #
vertex $-1 $204 $351 #
straight-curve $-1 0 29.47889229581375 -12.956246208347793 1 0 0 I I #
point $-1 61.973326822717979 29.47889229581375 -12.956246208347793 #
point $-1 61.973326822717979 -29.47889229581375 -12.956246208347793 #
straight-curve $-1 -61.973326822717979 0 12.956246208347793 0 -1 0 I I #
point $-1 -61.973326822717979 29.47889229581375 12.956246208347793 #
point $-1 -61.973326822717979 -29.47889229581375 12.956246208347793 #
straight-curve $-1 61.973326822717979 -29.47889229581375 0 0 0 -1 I I #
straight-curve $-1 61.973326822717979 29.47889229581375 0 0 0 -1 I I #
loop $-1 $-1 $227 $221 #
plane-surface $-1 0 -29.47889229581375 0 0 1 0 0 0 1 forward_v I I I I #
coedge $-1 $238 $229 $225 $310 forward $222 $-1 #
edge $-1 $314 -16.953103076680478 $233 -8.098475361586063 $224 $352 forward 7 unknown #
edge $-1 $234 8.098475361586063 $313 16.953103076680478 $308 $353 forward 7 unknown #
coedge $-1 $236 $227 $241 $323 reversed $306 $-1 #
coedge $-1 $227 $236 $238 $321 reversed $306 $-1 #
vertex $-1 $321 $354 #
vertex $-1 $228 $355 #
straight-curve $-1 -53.562425280050419 -29.47889229581375 0 0 0 1 I I #
straight-curve $-1 -27.633726285995493 -20.624264580719334 -12.956246208347793 1 0 0 I I #
straight-curve $-1 -27.633726285995493 -20.624264580719334 12.956246208347793 -1 0 0 I I #
point $-1 -53.562425280050419 -20.624264580719334 12.956246208347793 #
point $-1 -53.562425280050419 -20.624264580719334 -12.956246208347793 #
straight-curve $-1 -56.972479863931554 -29.47889229581375 0 0 0 -1 I I #
edge $-1 $313 53.562425280050419 $239 56.972479863931554 $312 $356 forward 7 unknown #
point $-1 -56.972479863931554 -29.47889229581375 -12.956246208347793 #
edge $-1 $242 -56.972479863931554 $314 -53.562425280050419 $311 $357 forward 7 unknown #
point $-1 -56.972479863931554 -29.47889229581375 12.956246208347793 #
edge $-1 $326 57.94774202395304 $329 64.821219201113564 $247 $358 forward 7 unknown #
vertex $-1 $261 $359 #
straight-curve $-1 -3.8618345092274335 24.955381996019959 12.956246208347793 0 1 0 I I #
edge $-1 $329 -5.5565886169069305 $258 24.393434869175657 $257 $360 forward 7 unknown #
vertex $-1 $328 $361 #
straight-curve $-1 -3.8618345092274335 -19.399326036235593 39.051544207666979 0 -0.82903756765294845 0.55919291073839883 I I #
point $-1 -3.8618345092274335 19.288543507688615 12.956246208347793 #
point $-1 -33.811857995310021 29.47889229581375 6.0827690311872757 #
straight-curve $-1 0 29.47889229581375 12.956246208347793 -1 0 0 I I #
vertex $-1 $264 $362 #
point $-1 -16.836846252268728 21.179353264228507 4.768841769127464 #
coedge $-1 $279 $278 $271 $337 forward $268 $-1 #
edge $-1 $338 57.94774202395304 $341 64.821219201113564 $336 $363 forward 7 unknown #
vertex $-1 $283 $364 #
straight-curve $-1 58.111492313490544 24.955381996019959 12.956246208347793 0 1 0 I I #
edge $-1 $341 -36.543252028265918 $280 -6.5932285421833328 $279 $365 forward 7 unknown #
vertex $-1 $340 $366 #
straight-curve $-1 58.111492313490544 -19.399326036235593 39.051544207666979 0 -0.82903756765294845 0.55919291073839883 I I #
point $-1 58.111492313490544 19.288543507688615 12.956246208347793 #
point $-1 28.161468827407958 29.47889229581375 6.0827690311872757 #
straight-curve $-1 0 29.47889229581375 12.956246208347793 -1 0 0 I I #
vertex $-1 $286 $367 #
point $-1 45.136480570449251 21.179353264228507 4.768841769127464 #
straight-curve $-1 -61.973326822717979 29.47889229581375 0 0 0 -1 I I #
point $-1 -61.973326822717979 -29.47889229581375 -12.956246208347793 #
straight-curve $-1 -61.973326822717979 0 -12.956246208347793 0 1 0 I I #
point $-1 -61.973326822717979 29.47889229581375 -12.956246208347793 #
straight-curve $-1 -53.562425280050419 -12.525789219133271 12.956246208347793 0 1 0 I I #
straight-curve $-1 -53.562425280050419 -12.525789219133271 -12.956246208347793 0 -1 0 I I #
point $-1 -53.562425280050419 -29.47889229581375 -12.956246208347793 #
point $-1 -53.562425280050419 -29.47889229581375 12.956246208347793 #
straight-curve $-1 0 -29.47889229581375 -12.956246208347793 -1 0 0 I I #
straight-curve $-1 0 -29.47889229581375 12.956246208347793 1 0 0 I I #
straight-curve $-1 -3.8618345092274335 29.47889229581375 70.903988232300833 0 0 -1 I I #
point $-1 -3.8618345092274335 29.47889229581375 12.956246208347793 #
straight-curve $-1 -9.4184231261343641 29.478892295813754 6.0827690311872722 -1 0 0 I I #
point $-1 -3.8618345092274335 29.47889229581375 6.0827690311872757 #
point $-1 -18.836846252268728 20.060967442751707 3.1107666338215676 #
straight-curve $-1 58.111492313490544 29.47889229581375 70.903988232300833 0 0 -1 I I #
point $-1 58.111492313490544 29.47889229581375 12.956246208347793 #
straight-curve $-1 21.568240285224626 29.478892295813754 6.0827690311872722 -1 0 0 I I #
point $-1 58.111492313490544 29.47889229581375 6.0827690311872757 #
point $-1 43.136480570449251 20.060967442751707 3.1107666338215676 #
End-of-ACIS-data 