500 0 9 0           
7 Unknown 11 ACIS 5.0 NT 24 Thu Mar 25 18:25:24 1999 
-1 9.9999999999999995e-007 1e-010 
body $-1 $9 $-1 $10 #
body $-1 $11 $-1 $12 #
body $-1 $13 $-1 $14 #
body $-1 $15 $-1 $16 #
body $-1 $17 $-1 $18 #
body $-1 $19 $-1 $20 #
body $-1 $21 $-1 $22 #
body $-1 $23 $-1 $24 #
body $-1 $25 $-1 $26 #
lump $-1 $-1 $27 $0 #
transform $-1 1 0 0 0 1 0 0 0 1 66.879482406079291 39.380864814832471 10.092495873365143 1 rotate no_reflect no_shear #
lump $-1 $-1 $28 $1 #
transform $-1 1 0 0 0 1 0 0 0 1 66.879482406079291 39.380864814832471 10.092495873365143 1 rotate no_reflect no_shear #
lump $-1 $-1 $29 $2 #
transform $-1 1 0 0 0 1 0 0 0 1 66.879482406079291 39.380864814832471 10.092495873365143 1 rotate no_reflect no_shear #
lump $-1 $-1 $30 $3 #
transform $-1 1 0 0 0 1 0 0 0 1 66.879482406079291 39.380864814832471 10.092495873365143 1 rotate no_reflect no_shear #
lump $-1 $-1 $31 $4 #
transform $-1 1 0 0 0 1 0 0 0 1 66.879482406079291 39.380864814832471 10.092495873365143 1 rotate no_reflect no_shear #
lump $-1 $-1 $32 $5 #
transform $-1 1 0 0 0 1 0 0 0 1 66.879482406079291 39.380864814832471 10.092495873365143 1 rotate no_reflect no_shear #
lump $-1 $-1 $33 $6 #
transform $-1 1 0 0 0 1 0 0 0 1 66.879482406079291 39.380864814832471 10.092495873365143 1 rotate no_reflect no_shear #
lump $-1 $-1 $34 $7 #
transform $-1 1 0 0 0 1 0 0 0 1 66.879482406079291 39.380864814832471 10.092495873365143 1 rotate no_reflect no_shear #
lump $-1 $-1 $35 $8 #
transform $-1 1 0 0 0 1 0 0 0 1 66.879482406079291 39.380864814832471 10.092495873365143 1 rotate no_reflect no_shear #
shell $-1 $-1 $-1 $36 $-1 $9 #
shell $-1 $-1 $-1 $37 $-1 $11 #
shell $-1 $-1 $-1 $38 $-1 $13 #
shell $-1 $-1 $-1 $39 $-1 $15 #
shell $-1 $-1 $-1 $40 $-1 $17 #
shell $-1 $-1 $-1 $41 $-1 $19 #
shell $-1 $-1 $-1 $42 $-1 $21 #
shell $-1 $-1 $-1 $43 $-1 $23 #
shell $-1 $-1 $-1 $44 $-1 $25 #
face $-1 $45 $46 $27 $-1 $47 forward single #
face $-1 $48 $49 $28 $-1 $50 reversed single #
face $-1 $51 $52 $29 $-1 $53 forward single #
face $-1 $54 $55 $30 $-1 $56 reversed single #
face $-1 $57 $58 $31 $-1 $59 forward single #
face $-1 $60 $61 $32 $-1 $62 reversed single #
face $-1 $63 $64 $33 $-1 $65 forward single #
face $-1 $66 $67 $34 $-1 $68 reversed single #
face $-1 $69 $70 $35 $-1 $71 forward single #
face $-1 $72 $73 $27 $-1 $74 reversed single #
loop $-1 $-1 $75 $36 #
plane-surface $-1 0 0 10.092495873365143 0 0 1 1 0 0 forward_v I I I I #
face $-1 $76 $77 $28 $-1 $78 reversed single #
loop $-1 $-1 $79 $37 #
plane-surface $-1 -14.637272869867761 111.07754451140107 139.50399235698742 1 0 0 0 -0.84804810408105047 -0.52991925155115449 forward_v I I I I #
face $-1 $80 $81 $29 $-1 $82 forward single #
loop $-1 $83 $84 $38 #
cone-surface $-1 -7.3186364349338788 35.965880599292475 5.4400592599586233 0 -0.84804810408105047 -0.52991925155115449 0.5 0 0 1 I I 0 1 0.5 forward I I I I #
face $-1 $85 $86 $30 $-1 $87 reversed single #
loop $-1 $-1 $88 $39 #
plane-surface $-1 52.242209536211533 111.07754451140107 139.50399235698742 1 0 0 0 -0.84804810408105047 -0.52991925155115449 forward_v I I I I #
face $-1 $89 $90 $31 $-1 $91 forward single #
loop $-1 $92 $93 $40 #
cone-surface $-1 59.560845971145412 35.965880599292475 5.4400592599586233 0 -0.84804810408105047 -0.52991925155115449 0.5 0 0 1 I I 0 1 0.5 forward I I I I #
face $-1 $94 $95 $32 $-1 $96 reversed single #
loop $-1 $-1 $97 $41 #
plane-surface $-1 3.5527136788005009e-015 -152.81490132762752 72.7102568704058 -1 0 0 0 -0.84804810408105047 0.52991925155115449 forward_v I I I I #
face $-1 $98 $99 $33 $-1 $100 forward single #
loop $-1 $101 $102 $42 #
cone-surface $-1 -7.3186364349338788 -35.965880599292483 5.4400592599586268 0 0.84804810408105047 -0.52991925155115449 0.5 0 0 1 I I 0 1 0.5 forward I I I I #
face $-1 $103 $104 $34 $-1 $105 reversed single #
loop $-1 $-1 $106 $43 #
plane-surface $-1 59.560845971145412 -39.380864814832492 1.8288063488895148 0 -0.84804810408105047 0.52991925155115449 1 0 0 forward_v I I I I #
face $-1 $107 $108 $35 $-1 $109 forward single #
loop $-1 $110 $111 $44 #
cone-surface $-1 59.560845971145412 -35.965880599292483 5.4400592599586268 0 0.84804810408105047 -0.52991925155115449 0.5 0 0 1 I I 0 1 0.5 forward I I I I #
face $-1 $112 $113 $27 $-1 $114 reversed single #
loop $-1 $-1 $115 $45 #
plane-surface $-1 0 0 -10.092495873365143 0 0 1 1 0 0 forward_v I I I I #
coedge $-1 $116 $117 $118 $119 forward $46 $-1 #
face $-1 $120 $121 $28 $-1 $122 reversed single #
loop $-1 $-1 $123 $48 #
plane-surface $-1 -7.3186364349338788 -2.3564920013939599 68.622541835471139 0 0.84804810408105047 0.52991925155115449 1 0 0 forward_v I I I I #
coedge $-1 $124 $125 $126 $127 reversed $49 $-1 #
face $-1 $-1 $128 $29 $-1 $129 forward single #
loop $-1 $130 $131 $51 #
cone-surface $-1 -7.3186364349338788 34.920747430586125 4.7869875959021417 0 -0.84804810408105047 -0.52991925155115449 0.25 0 0 1 I I -0.70710678118654746 0.70710678118654746 0.25 forward I I I I #
loop $-1 $-1 $132 $38 #
coedge $-1 $84 $84 $133 $134 reversed $52 $-1 #
face $-1 $135 $136 $30 $-1 $137 forward single #
loop $-1 $-1 $138 $54 #
plane-surface $-1 59.560845971145412 -2.3564920013939599 68.622541835471139 0 0.84804810408105047 0.52991925155115449 1 0 0 forward_v I I I I #
coedge $-1 $139 $140 $141 $142 reversed $55 $-1 #
face $-1 $-1 $143 $31 $-1 $144 forward single #
loop $-1 $145 $146 $57 #
cone-surface $-1 59.560845971145412 34.920747430586125 4.7869875959021417 0 -0.84804810408105047 -0.52991925155115449 0.25 0 0 1 I I -0.70710678118654746 0.70710678118654746 0.25 forward I I I I #
loop $-1 $-1 $147 $40 #
coedge $-1 $93 $93 $148 $149 reversed $58 $-1 #
face $-1 $150 $151 $32 $-1 $152 reversed single #
loop $-1 $-1 $153 $60 #
plane-surface $-1 -7.3186364349338788 -39.380864814832492 1.8288063488895148 0 -0.84804810408105047 0.52991925155115449 1 0 0 forward_v I I I I #
coedge $-1 $154 $155 $156 $157 reversed $61 $-1 #
face $-1 $-1 $158 $33 $-1 $159 forward single #
loop $-1 $160 $161 $63 #
cone-surface $-1 -7.3186364349338788 -34.920747430586133 4.7869875959021453 0 0.84804810408105047 -0.52991925155115449 0.25 0 0 1 I I -0.70710678118654746 0.70710678118654746 0.25 forward I I I I #
loop $-1 $-1 $162 $42 #
coedge $-1 $102 $102 $163 $164 reversed $64 $-1 #
face $-1 $165 $166 $34 $-1 $167 reversed single #
loop $-1 $-1 $168 $66 #
plane-surface $-1 52.242209536211533 -152.81490132762752 72.7102568704058 1 0 0 0 0.84804810408105047 -0.52991925155115449 forward_v I I I I #
coedge $-1 $169 $170 $171 $172 reversed $67 $-1 #
face $-1 $-1 $173 $35 $-1 $174 forward single #
loop $-1 $175 $176 $69 #
cone-surface $-1 59.560845971145412 -34.920747430586133 4.7869875959021453 0 0.84804810408105047 -0.52991925155115449 0.25 0 0 1 I I -0.70710678118654746 0.70710678118654746 0.25 forward I I I I #
loop $-1 $-1 $177 $44 #
coedge $-1 $111 $111 $178 $179 reversed $70 $-1 #
face $-1 $180 $181 $27 $-1 $182 reversed single #
loop $-1 $-1 $183 $72 #
plane-surface $-1 0 -39.380864814832471 0 0 1 0 0 0 1 forward_v I I I I #
coedge $-1 $184 $185 $186 $187 forward $73 $-1 #
coedge $-1 $188 $75 $189 $190 forward $46 $-1 #
coedge $-1 $75 $188 $191 $192 forward $46 $-1 #
coedge $-1 $193 $194 $75 $119 reversed $195 $-1 #
edge $-1 $196 -39.380864814832471 $197 39.380864814832471 $118 $198 forward 7 unknown #
face $-1 $199 $200 $28 $-1 $201 reversed single #
loop $-1 $-1 $202 $76 #
plane-surface $-1 3.5527136788005009e-015 111.07754451140107 139.50399235698742 -1 0 0 0 0.84804810408105047 0.52991925155115449 forward_v I I I I #
coedge $-1 $203 $204 $205 $206 reversed $77 $-1 #
coedge $-1 $125 $79 $207 $208 reversed $49 $-1 #
coedge $-1 $79 $124 $203 $209 reversed $49 $-1 #
coedge $-1 $205 $210 $79 $127 forward $211 $-1 #
edge $-1 $212 16.157907440868065 $213 21.321633586575864 $126 $214 forward 7 unknown #
loop $-1 $-1 $133 $80 #
plane-surface $-1 -7.3186364349338788 -2.3564920013939599 68.622541835471139 0 0.84804810408105047 0.52991925155115449 1 0 0 forward_v I I I I #
loop $-1 $-1 $215 $51 #
coedge $-1 $131 $131 $132 $216 reversed $81 $-1 #
coedge $-1 $132 $132 $131 $216 forward $83 $-1 #
coedge $-1 $133 $133 $84 $134 forward $128 $-1 #
edge $-1 $217 1.5747545419071707e-018 $217 6.2831853071796004 $133 $218 forward 7 unknown #
face $-1 $219 $220 $30 $-1 $221 reversed single #
loop $-1 $-1 $141 $85 #
plane-surface $-1 0 0 10.092495873365143 0 0 1 1 0 0 forward_v I I I I #
coedge $-1 $222 $223 $224 $225 reversed $86 $-1 #
coedge $-1 $140 $88 $226 $227 reversed $55 $-1 #
coedge $-1 $88 $139 $222 $228 reversed $55 $-1 #
coedge $-1 $224 $229 $88 $142 forward $136 $-1 #
edge $-1 $230 16.157907440868065 $231 21.321633586575864 $141 $232 forward 7 unknown #
loop $-1 $-1 $148 $89 #
plane-surface $-1 59.560845971145412 -2.3564920013939599 68.622541835471139 0 0.84804810408105047 0.52991925155115449 1 0 0 forward_v I I I I #
loop $-1 $-1 $233 $57 #
coedge $-1 $146 $146 $147 $234 reversed $90 $-1 #
coedge $-1 $147 $147 $146 $234 forward $92 $-1 #
coedge $-1 $148 $148 $93 $149 forward $143 $-1 #
edge $-1 $235 1.5747545419071707e-018 $235 6.2831853071796004 $148 $236 forward 7 unknown #
face $-1 $237 $238 $32 $-1 $239 reversed single #
loop $-1 $-1 $240 $94 #
plane-surface $-1 -14.637272869867761 -152.81490132762752 72.7102568704058 1 0 0 0 0.84804810408105047 -0.52991925155115449 forward_v I I I I #
coedge $-1 $241 $242 $243 $244 reversed $95 $-1 #
coedge $-1 $155 $97 $245 $246 reversed $61 $-1 #
coedge $-1 $97 $154 $241 $247 reversed $61 $-1 #
coedge $-1 $243 $248 $97 $157 forward $249 $-1 #
edge $-1 $250 37.026585848981291 $251 42.190311994689061 $156 $252 forward 7 unknown #
loop $-1 $-1 $163 $98 #
plane-surface $-1 -7.3186364349338788 -39.380864814832492 1.8288063488895148 0 -0.84804810408105047 0.52991925155115449 1 0 0 forward_v I I I I #
loop $-1 $-1 $253 $63 #
coedge $-1 $161 $161 $162 $254 reversed $99 $-1 #
coedge $-1 $162 $162 $161 $254 forward $101 $-1 #
coedge $-1 $163 $163 $102 $164 forward $158 $-1 #
edge $-1 $255 -3.0175963632752998e-015 $255 6.2831853071795978 $163 $256 forward 7 unknown #
face $-1 $257 $258 $34 $-1 $259 forward single #
loop $-1 $-1 $260 $103 #
plane-surface $-1 0 -39.380864814832471 0 0 1 0 0 0 1 forward_v I I I I #
coedge $-1 $261 $262 $263 $264 reversed $104 $-1 #
coedge $-1 $265 $106 $266 $267 reversed $67 $-1 #
coedge $-1 $106 $265 $261 $268 forward $67 $-1 #
coedge $-1 $263 $269 $106 $172 forward $258 $-1 #
edge $-1 $270 -37.099059420506585 $271 -22.461786550638827 $171 $272 forward 7 unknown #
loop $-1 $-1 $178 $107 #
plane-surface $-1 59.560845971145412 -39.380864814832492 1.8288063488895148 0 -0.84804810408105047 0.52991925155115449 1 0 0 forward_v I I I I #
loop $-1 $-1 $273 $69 #
coedge $-1 $176 $176 $177 $274 reversed $108 $-1 #
coedge $-1 $177 $177 $176 $274 forward $110 $-1 #
coedge $-1 $178 $178 $111 $179 forward $173 $-1 #
edge $-1 $275 -3.0175963632752998e-015 $275 6.2831853071795978 $178 $276 forward 7 unknown #
face $-1 $277 $278 $27 $-1 $279 reversed single #
loop $-1 $-1 $280 $112 #
plane-surface $-1 -66.879482406079291 0 0 1 0 0 0 0 -1 forward_v I I I I #
coedge $-1 $281 $191 $282 $283 forward $113 $-1 #
coedge $-1 $284 $115 $281 $285 forward $73 $-1 #
coedge $-1 $115 $284 $286 $287 forward $73 $-1 #
coedge $-1 $194 $193 $115 $187 reversed $195 $-1 #
edge $-1 $288 -39.380864814832471 $289 39.380864814832471 $186 $290 forward 7 unknown #
coedge $-1 $117 $116 $291 $292 forward $46 $-1 #
coedge $-1 $293 $294 $116 $190 reversed $278 $-1 #
edge $-1 $197 -66.879482406079291 $295 66.879482406079291 $189 $296 forward 7 unknown #
coedge $-1 $183 $297 $117 $192 reversed $113 $-1 #
edge $-1 $298 -66.879482406079291 $196 66.879482406079291 $191 $299 forward 7 unknown #
coedge $-1 $186 $118 $297 $300 forward $195 $-1 #
coedge $-1 $118 $186 $293 $301 reversed $195 $-1 #
loop $-1 $-1 $193 $277 #
vertex $-1 $119 $302 #
vertex $-1 $119 $303 #
straight-curve $-1 66.879482406079291 0 10.092495873365143 0 1 0 I I #
face $-1 $-1 $211 $28 $-1 $304 forward single #
loop $-1 $-1 $305 $120 #
plane-surface $-1 0 39.380864814832471 0 0 -1 0 0 0 -1 forward_v I I I I #
coedge $-1 $306 $307 $308 $309 reversed $121 $-1 #
coedge $-1 $310 $123 $125 $209 forward $77 $-1 #
coedge $-1 $123 $310 $306 $311 forward $77 $-1 #
coedge $-1 $308 $126 $123 $206 forward $211 $-1 #
edge $-1 $213 -10.977954652400822 $312 3.659318217466943 $205 $313 forward 7 unknown #
coedge $-1 $314 $315 $124 $208 forward $200 $-1 #
edge $-1 $316 -67.923189829604226 $212 -59.659500305128567 $207 $317 forward 7 unknown #
edge $-1 $213 69.017365501370321 $316 78.761729629664941 $125 $318 forward 7 unknown #
coedge $-1 $126 $308 $314 $319 forward $211 $-1 #
loop $-1 $-1 $308 $199 #
vertex $-1 $208 $320 #
vertex $-1 $127 $321 #
straight-curve $-1 -14.637272869867761 55.538772255700536 10.092495873365138 0 -1 0 I I #
coedge $-1 $215 $215 $-1 $322 reversed $130 $-1 #
edge $-1 $323 0 $323 6.2831853071796004 $131 $324 forward 7 unknown #
vertex $-1 $134 $325 #
ellipse-curve $-1 -7.3186364349338788 36.799001741978572 5.9606511111273202 0 0.84804810408105047 0.52991925155115449 0.5 0 0 1 I I #
face $-1 $-1 $326 $30 $-1 $327 reversed single #
loop $-1 $-1 $226 $135 #
plane-surface $-1 0 39.380864814832471 0 0 -1 0 0 0 -1 forward_v I I I I #
coedge $-1 $328 $138 $140 $228 forward $86 $-1 #
coedge $-1 $138 $328 $329 $330 reversed $86 $-1 #
coedge $-1 $331 $141 $138 $225 forward $136 $-1 #
edge $-1 $231 22.461786550638827 $332 37.099059420506585 $224 $333 forward 7 unknown #
coedge $-1 $334 $335 $139 $227 forward $220 $-1 #
edge $-1 $336 -67.923189829604226 $230 -59.659500305128567 $226 $337 forward 7 unknown #
edge $-1 $231 69.017365501370321 $336 78.761729629664941 $140 $338 forward 7 unknown #
coedge $-1 $141 $331 $334 $339 forward $136 $-1 #
vertex $-1 $142 $340 #
vertex $-1 $142 $341 #
straight-curve $-1 52.242209536211533 55.538772255700536 10.092495873365138 0 -1 0 I I #
coedge $-1 $233 $233 $-1 $342 reversed $145 $-1 #
edge $-1 $343 0 $343 6.2831853071796004 $146 $344 forward 7 unknown #
vertex $-1 $149 $345 #
ellipse-curve $-1 59.560845971145412 36.799001741978572 5.9606511111273202 0 0.84804810408105047 0.52991925155115449 0.5 0 0 1 I I #
face $-1 $-1 $249 $32 $-1 $346 forward single #
loop $-1 $-1 $347 $150 #
plane-surface $-1 0 -39.380864814832471 0 0 1 0 0 0 1 forward_v I I I I #
coedge $-1 $348 $349 $350 $351 reversed $151 $-1 #
coedge $-1 $352 $153 $155 $247 forward $95 $-1 #
coedge $-1 $153 $352 $348 $353 forward $95 $-1 #
coedge $-1 $350 $156 $153 $244 forward $249 $-1 #
edge $-1 $251 -3.659318217466943 $354 10.977954652400822 $243 $355 forward 7 unknown #
coedge $-1 $356 $357 $154 $246 forward $238 $-1 #
edge $-1 $358 -34.52632208631335 $250 -26.262632561837755 $245 $359 forward 7 unknown #
edge $-1 $251 -9.7443641282945954 $358 -4.0294802201000261e-014 $155 $360 forward 7 unknown #
coedge $-1 $156 $350 $356 $361 forward $249 $-1 #
loop $-1 $-1 $350 $237 #
vertex $-1 $246 $362 #
vertex $-1 $157 $363 #
straight-curve $-1 3.5527136788005009e-015 -76.407450663813762 10.092495873365145 0 1 0 I I #
coedge $-1 $253 $253 $-1 $364 reversed $160 $-1 #
edge $-1 $365 0 $365 6.2831853071796004 $161 $366 forward 7 unknown #
vertex $-1 $164 $367 #
ellipse-curve $-1 -7.3186364349338788 -36.799001741978593 5.9606511111273344 0 -0.84804810408105047 0.52991925155115449 0.5 0 0 1 I I #
face $-1 $-1 $368 $34 $-1 $369 reversed single #
loop $-1 $-1 $263 $165 #
plane-surface $-1 0 0 10.092495873365143 0 0 1 1 0 0 forward_v I I I I #
coedge $-1 $370 $371 $262 $372 forward $166 $-1 #
coedge $-1 $262 $168 $170 $268 reversed $104 $-1 #
coedge $-1 $168 $261 $260 $372 reversed $104 $-1 #
coedge $-1 $373 $171 $168 $264 forward $258 $-1 #
edge $-1 $271 -42.190311994689061 $374 -37.026585848981291 $263 $375 forward 7 unknown #
coedge $-1 $170 $169 $370 $376 reversed $67 $-1 #
coedge $-1 $377 $378 $169 $267 forward $368 $-1 #
edge $-1 $379 -9.6588813256030015 $270 0.085482802691552895 $266 $380 forward 7 unknown #
edge $-1 $381 4.0294802201000261e-014 $271 9.7443641282945954 $261 $382 forward 7 unknown #
coedge $-1 $171 $373 $377 $383 forward $258 $-1 #
vertex $-1 $267 $384 #
vertex $-1 $172 $385 #
straight-curve $-1 29.780422985572706 -34.217138669124701 10.092495873365143 -1 0 0 I I #
coedge $-1 $273 $273 $-1 $386 reversed $175 $-1 #
edge $-1 $387 0 $387 6.2831853071796004 $176 $388 forward 7 unknown #
vertex $-1 $179 $389 #
ellipse-curve $-1 59.560845971145412 -36.799001741978593 5.9606511111273344 0 -0.84804810408105047 0.52991925155115449 0.5 0 0 1 I I #
face $-1 $-1 $195 $27 $-1 $390 reversed single #
loop $-1 $-1 $293 $180 #
plane-surface $-1 0 39.380864814832471 0 0 -1 0 0 0 -1 forward_v I I I I #
coedge $-1 $391 $291 $294 $392 forward $181 $-1 #
coedge $-1 $297 $183 $184 $285 reversed $113 $-1 #
coedge $-1 $291 $391 $183 $283 reversed $181 $-1 #
edge $-1 $298 -10.092495873365143 $393 10.092495873365143 $282 $394 forward 7 unknown #
coedge $-1 $185 $184 $391 $395 forward $73 $-1 #
edge $-1 $289 -66.879482406079291 $393 66.879482406079291 $281 $396 forward 7 unknown #
coedge $-1 $294 $293 $185 $287 reversed $278 $-1 #
edge $-1 $397 -66.879482406079291 $288 66.879482406079291 $286 $398 forward 7 unknown #
vertex $-1 $187 $399 #
vertex $-1 $300 $400 #
straight-curve $-1 66.879482406079291 0 -10.092495873365143 0 -1 0 I I #
coedge $-1 $280 $282 $188 $292 reversed $181 $-1 #
edge $-1 $295 -39.380864814832471 $298 39.380864814832471 $291 $401 forward 7 unknown #
coedge $-1 $286 $189 $194 $301 forward $278 $-1 #
coedge $-1 $189 $286 $280 $392 reversed $278 $-1 #
vertex $-1 $190 $402 #
straight-curve $-1 0 39.380864814832471 10.092495873365143 -1 0 0 I I #
coedge $-1 $191 $281 $193 $300 reversed $113 $-1 #
vertex $-1 $292 $403 #
straight-curve $-1 0 -39.380864814832471 10.092495873365143 1 0 0 I I #
edge $-1 $196 -10.092495873365143 $289 10.092495873365143 $193 $404 forward 7 unknown #
edge $-1 $197 -10.092495873365143 $288 10.092495873365143 $194 $405 forward 7 unknown #
point $-1 66.879482406079291 -39.380864814832471 10.092495873365143 #
point $-1 66.879482406079291 39.380864814832471 10.092495873365143 #
plane-surface $-1 0 0 10.092495873365143 0 0 1 1 0 0 forward_v I I I I #
coedge $-1 $315 $314 $307 $406 forward $200 $-1 #
coedge $-1 $307 $202 $204 $311 reversed $121 $-1 #
coedge $-1 $202 $306 $305 $406 reversed $121 $-1 #
coedge $-1 $210 $205 $202 $309 forward $211 $-1 #
edge $-1 $312 -21.321633586575864 $407 -16.157907440868065 $308 $408 forward 7 unknown #
coedge $-1 $204 $203 $315 $409 reversed $77 $-1 #
edge $-1 $410 -78.761729629664941 $312 -69.017365501370321 $306 $411 forward 7 unknown #
vertex $-1 $206 $412 #
straight-curve $-1 -3.6593182174669394 34.217138669124665 10.092495873365145 1 0 0 I I #
coedge $-1 $305 $207 $210 $319 reversed $200 $-1 #
coedge $-1 $207 $305 $310 $409 forward $200 $-1 #
vertex $-1 $208 $413 #
straight-curve $-1 -14.637272869867761 39.380864814832471 69.751996178493712 0 0 1 I I #
straight-curve $-1 -14.637272869867761 -2.3564920013939599 68.622541835471139 0 0.52991925155115449 -0.84804810408105047 I I #
edge $-1 $407 -3.5527136788005009e-015 $212 14.637272869867761 $314 $414 forward 7 unknown #
point $-1 -14.637272869867761 39.380864814832471 10.092495873365143 #
point $-1 -14.637272869867761 34.217138669124672 10.092495873365138 #
edge $-1 $415 1 $415 0 $215 $-1 forward 7 unknown #
vertex $-1 $216 $416 #
ellipse-curve $-1 -7.3186364349338788 35.132759456606387 4.9194674087899299 0 0.84804810408105047 0.52991925155115449 0.5 0 0 1 I I #
point $-1 -6.8186364349338788 36.799001741978564 5.9606511111273157 #
loop $-1 $-1 $329 $219 #
plane-surface $-1 66.879482406079291 0 0 -1 0 0 0 0 1 forward_v I I I I #
coedge $-1 $223 $222 $335 $417 reversed $86 $-1 #
coedge $-1 $418 $419 $223 $330 forward $326 $-1 #
edge $-1 $332 39.295382012140898 $420 49.039746140435518 $329 $421 forward 7 unknown #
coedge $-1 $229 $224 $419 $422 forward $136 $-1 #
vertex $-1 $422 $423 #
straight-curve $-1 29.780422985572706 34.217138669124665 10.092495873365145 1 0 0 I I #
coedge $-1 $424 $226 $229 $339 reversed $220 $-1 #
coedge $-1 $226 $424 $328 $417 forward $220 $-1 #
vertex $-1 $227 $425 #
straight-curve $-1 52.242209536211533 39.380864814832471 69.751996178493712 0 0 1 I I #
straight-curve $-1 52.242209536211533 -2.3564920013939599 68.622541835471139 0 0.52991925155115449 -0.84804810408105047 I I #
edge $-1 $426 -66.879482406079291 $230 -52.242209536211533 $334 $427 forward 7 unknown #
point $-1 52.242209536211533 39.380864814832471 10.092495873365143 #
point $-1 52.242209536211533 34.217138669124672 10.092495873365138 #
edge $-1 $428 1 $428 0 $233 $-1 forward 7 unknown #
vertex $-1 $234 $429 #
ellipse-curve $-1 59.560845971145412 35.132759456606387 4.9194674087899299 0 0.84804810408105047 0.52991925155115449 0.5 0 0 1 I I #
point $-1 60.060845971145412 36.799001741978564 5.9606511111273157 #
plane-surface $-1 0 0 10.092495873365143 0 0 1 1 0 0 forward_v I I I I #
coedge $-1 $357 $356 $349 $430 forward $238 $-1 #
coedge $-1 $349 $240 $242 $353 reversed $151 $-1 #
coedge $-1 $240 $348 $347 $430 reversed $151 $-1 #
coedge $-1 $248 $243 $240 $351 forward $249 $-1 #
edge $-1 $354 -42.190311994689061 $431 -37.026585848981291 $350 $432 forward 7 unknown #
coedge $-1 $242 $241 $357 $433 reversed $95 $-1 #
edge $-1 $434 4.0294802201000261e-014 $354 9.7443641282945954 $348 $435 forward 7 unknown #
vertex $-1 $244 $436 #
straight-curve $-1 -3.6593182174669394 -34.217138669124701 10.092495873365143 -1 0 0 I I #
coedge $-1 $347 $245 $248 $361 reversed $238 $-1 #
coedge $-1 $245 $347 $352 $433 forward $238 $-1 #
vertex $-1 $246 $437 #
straight-curve $-1 3.5527136788005009e-015 -39.380864814832471 36.3551284352029 0 0 1 I I #
straight-curve $-1 3.5527136788005009e-015 -39.380864814832492 1.8288063488895148 0 -0.52991925155115449 -0.84804810408105047 I I #
edge $-1 $431 -14.637272869867761 $250 3.5527136788005009e-015 $356 $438 forward 7 unknown #
point $-1 3.5527136788005009e-015 -39.380864814832471 10.092495873365143 #
point $-1 3.5527136788005009e-015 -34.217138669124701 10.092495873365143 #
edge $-1 $439 1 $439 0 $253 $-1 forward 7 unknown #
vertex $-1 $254 $440 #
ellipse-curve $-1 -7.3186364349338788 -35.132759456606394 4.9194674087899335 0 -0.84804810408105047 0.52991925155115449 0.5 0 0 1 I I #
point $-1 -6.8186364349338788 -36.799001741978572 5.9606511111273193 #
loop $-1 $-1 $266 $257 #
plane-surface $-1 66.879482406079291 0 0 -1 0 0 0 0 1 forward_v I I I I #
coedge $-1 $441 $260 $265 $376 forward $166 $-1 #
coedge $-1 $260 $441 $373 $442 reversed $166 $-1 #
edge $-1 $374 26.262632561837755 $381 34.52632208631335 $260 $443 forward 7 unknown #
coedge $-1 $269 $263 $371 $442 forward $258 $-1 #
vertex $-1 $442 $444 #
straight-curve $-1 52.242209536211533 -76.407450663813762 10.092495873365145 0 -1 0 I I #
edge $-1 $381 22.461786550638827 $379 37.099059420506585 $370 $445 forward 7 unknown #
coedge $-1 $378 $266 $269 $383 reversed $368 $-1 #
coedge $-1 $266 $377 $441 $446 forward $368 $-1 #
vertex $-1 $376 $447 #
straight-curve $-1 66.879482406079291 -34.262437651947508 10.02000234461104 0 0.52991925155115449 0.84804810408105047 I I #
vertex $-1 $376 $448 #
straight-curve $-1 52.242209536211533 -39.380864814832492 1.8288063488895148 0 0.52991925155115449 0.84804810408105047 I I #
edge $-1 $449 -39.380864814832471 $270 -34.217138669124701 $377 $450 forward 7 unknown #
point $-1 66.879482406079291 -34.217138669124701 10.092495873365143 #
point $-1 52.242209536211533 -34.217138669124701 10.092495873365143 #
edge $-1 $451 1 $451 0 $273 $-1 forward 7 unknown #
vertex $-1 $274 $452 #
ellipse-curve $-1 59.560845971145412 -35.132759456606394 4.9194674087899335 0 -0.84804810408105047 0.52991925155115449 0.5 0 0 1 I I #
point $-1 60.060845971145412 -36.799001741978572 5.9606511111273193 #
plane-surface $-1 66.879482406079291 0 0 -1 0 0 0 0 1 forward_v I I I I #
coedge $-1 $282 $280 $284 $395 reversed $181 $-1 #
edge $-1 $295 -10.092495873365143 $397 10.092495873365143 $294 $453 forward 7 unknown #
vertex $-1 $395 $454 #
straight-curve $-1 -66.879482406079291 -39.380864814832471 0 0 0 -1 I I #
edge $-1 $393 -39.380864814832471 $397 39.380864814832471 $391 $455 forward 7 unknown #
straight-curve $-1 0 -39.380864814832471 -10.092495873365143 -1 0 0 I I #
vertex $-1 $287 $456 #
straight-curve $-1 0 39.380864814832471 -10.092495873365143 1 0 0 I I #
point $-1 66.879482406079291 39.380864814832471 -10.092495873365143 #
point $-1 66.879482406079291 -39.380864814832471 -10.092495873365143 #
straight-curve $-1 -66.879482406079291 0 10.092495873365143 0 -1 0 I I #
point $-1 -66.879482406079291 39.380864814832471 10.092495873365143 #
point $-1 -66.879482406079291 -39.380864814832471 10.092495873365143 #
straight-curve $-1 66.879482406079291 -39.380864814832471 0 0 0 -1 I I #
straight-curve $-1 66.879482406079291 39.380864814832471 0 0 0 -1 I I #
edge $-1 $407 59.659500305128567 $410 67.923189829604226 $305 $457 forward 7 unknown #
vertex $-1 $319 $458 #
straight-curve $-1 3.5527136788005009e-015 55.538772255700536 10.092495873365138 0 1 0 I I #
edge $-1 $410 -3.659318217466943 $316 10.977954652400822 $315 $459 forward 7 unknown #
vertex $-1 $409 $460 #
straight-curve $-1 3.5527136788005009e-015 -2.3564920013939599 68.622541835471139 0 -0.52991925155115449 0.84804810408105047 I I #
point $-1 3.5527136788005009e-015 34.217138669124672 10.092495873365138 #
point $-1 -14.637272869867761 39.380864814832478 1.8288063488894863 #
straight-curve $-1 0 39.380864814832471 10.092495873365143 -1 0 0 I I #
vertex $-1 $322 $461 #
point $-1 -6.8186364349338788 35.132759456606387 4.9194674087899299 #
edge $-1 $420 -37.099059420506585 $336 -22.461786550638827 $335 $462 forward 7 unknown #
coedge $-1 $419 $329 $424 $463 reversed $326 $-1 #
coedge $-1 $329 $418 $331 $422 reversed $326 $-1 #
vertex $-1 $330 $464 #
straight-curve $-1 66.879482406079291 13.393759243834266 43.416870087901842 0 0.52991925155115449 -0.84804810408105047 I I #
edge $-1 $332 34.217138669124672 $426 39.380864814832471 $419 $465 forward 7 unknown #
point $-1 66.879482406079291 34.217138669124672 10.092495873365138 #
coedge $-1 $335 $334 $418 $463 forward $220 $-1 #
point $-1 52.242209536211533 39.380864814832478 1.8288063488894863 #
vertex $-1 $422 $466 #
straight-curve $-1 0 39.380864814832471 10.092495873365143 -1 0 0 I I #
vertex $-1 $342 $467 #
point $-1 60.060845971145412 35.132759456606387 4.9194674087899299 #
edge $-1 $431 26.262632561837755 $434 34.52632208631335 $347 $468 forward 7 unknown #
vertex $-1 $361 $469 #
straight-curve $-1 -14.637272869867761 -76.407450663813762 10.092495873365145 0 -1 0 I I #
edge $-1 $434 -10.977954652400822 $358 3.659318217466943 $357 $470 forward 7 unknown #
vertex $-1 $433 $471 #
straight-curve $-1 -14.637272869867761 -39.380864814832492 1.8288063488895148 0 0.52991925155115449 0.84804810408105047 I I #
point $-1 -14.637272869867761 -34.217138669124701 10.092495873365143 #
point $-1 3.5527136788005009e-015 -39.380864814832471 1.828806348889549 #
straight-curve $-1 0 -39.380864814832471 10.092495873365143 1 0 0 I I #
vertex $-1 $364 $472 #
point $-1 -6.8186364349338788 -35.132759456606394 4.9194674087899335 #
coedge $-1 $371 $370 $378 $446 reversed $166 $-1 #
edge $-1 $374 52.242209536211533 $449 66.879482406079291 $371 $473 forward 7 unknown #
straight-curve $-1 52.242209536211533 -39.380864814832471 36.3551284352029 0 0 -1 I I #
point $-1 52.242209536211533 -39.380864814832471 10.092495873365143 #
straight-curve $-1 29.780422985572706 -39.380864814832471 1.8288063488895463 1 0 0 I I #
edge $-1 $449 -10.092495873365143 $379 -1.828806348889549 $378 $474 forward 7 unknown #
point $-1 66.879482406079291 -39.380864814832471 1.828806348889549 #
point $-1 52.242209536211533 -39.380864814832471 1.828806348889549 #
vertex $-1 $383 $475 #
straight-curve $-1 66.879482406079291 0 10.092495873365143 0 1 0 I I #
vertex $-1 $386 $476 #
point $-1 60.060845971145412 -35.132759456606394 4.9194674087899335 #
straight-curve $-1 -66.879482406079291 39.380864814832471 0 0 0 -1 I I #
point $-1 -66.879482406079291 -39.380864814832471 -10.092495873365143 #
straight-curve $-1 -66.879482406079291 0 -10.092495873365143 0 1 0 I I #
point $-1 -66.879482406079291 39.380864814832471 -10.092495873365143 #
straight-curve $-1 3.5527136788005009e-015 39.380864814832471 69.751996178493712 0 0 -1 I I #
point $-1 3.5527136788005009e-015 39.380864814832471 10.092495873365143 #
straight-curve $-1 -3.6593182174669394 39.380864814832464 1.8288063488894934 -1 0 0 I I #
point $-1 3.5527136788005009e-015 39.380864814832478 1.8288063488894863 #
point $-1 -7.3186364349338788 34.708735404565864 4.6545077830143535 #
straight-curve $-1 29.780422985572706 39.380864814832464 1.8288063488894934 -1 0 0 I I #
edge $-1 $426 -10.092495873365143 $420 -1.8288063488894863 $418 $477 forward 7 unknown #
point $-1 66.879482406079291 39.380864814832478 1.8288063488894863 #
straight-curve $-1 66.879482406079291 0 10.092495873365143 0 1 0 I I #
point $-1 66.879482406079291 39.380864814832471 10.092495873365143 #
point $-1 59.560845971145412 34.708735404565864 4.6545077830143535 #
straight-curve $-1 -14.637272869867761 -39.380864814832471 36.3551284352029 0 0 -1 I I #
point $-1 -14.637272869867761 -39.380864814832471 10.092495873365143 #
straight-curve $-1 -3.6593182174669394 -39.380864814832471 1.8288063488895463 1 0 0 I I #
point $-1 -14.637272869867761 -39.380864814832471 1.828806348889549 #
point $-1 -7.3186364349338788 -34.708735404565871 4.6545077830143571 #
straight-curve $-1 0 -39.380864814832471 10.092495873365143 1 0 0 I I #
straight-curve $-1 66.879482406079291 -39.380864814832471 0 0 0 -1 I I #
point $-1 66.879482406079291 -39.380864814832471 10.092495873365143 #
point $-1 59.560845971145412 -34.708735404565871 4.6545077830143571 #
straight-curve $-1 66.879482406079291 39.380864814832471 0 0 0 -1 I I #
End-of-ACIS-data 