500 0 5 0           
7 Unknown 11 ACIS 5.0 NT 24 Thu Mar 25 21:28:05 1999 
-1 9.9999999999999995e-007 1e-010 
body $-1 $5 $-1 $6 #
body $-1 $7 $-1 $8 #
body $-1 $9 $-1 $10 #
body $-1 $11 $-1 $12 #
body $-1 $13 $-1 $14 #
lump $-1 $-1 $15 $0 #
transform $-1 1 0 0 0 1 0 0 0 1 56.591082491531111 23.443149956718472 5.3546423908526286 1 rotate no_reflect no_shear #
lump $-1 $-1 $16 $1 #
transform $-1 1 0 0 0 1 0 0 0 1 56.591082491531111 23.443149956718472 5.3546423908526286 1 rotate no_reflect no_shear #
lump $-1 $-1 $17 $2 #
transform $-1 1 0 0 0 1 0 0 0 1 56.591082491531111 23.443149956718472 5.3546423908526286 1 rotate no_reflect no_shear #
lump $-1 $-1 $18 $3 #
transform $-1 1 0 0 0 1 0 0 0 1 56.591082491531111 23.443149956718472 5.3546423908526286 1 rotate no_reflect no_shear #
lump $-1 $-1 $19 $4 #
transform $-1 1 0 0 0 1 0 0 0 1 56.591082491531111 23.443149956718472 5.3546423908526286 1 rotate no_reflect no_shear #
shell $-1 $-1 $-1 $20 $-1 $5 #
shell $-1 $-1 $-1 $21 $-1 $7 #
shell $-1 $-1 $-1 $22 $-1 $9 #
shell $-1 $-1 $-1 $23 $-1 $11 #
shell $-1 $-1 $-1 $24 $-1 $13 #
face $-1 $25 $26 $15 $-1 $27 forward single #
face $-1 $28 $29 $16 $-1 $30 reversed single #
face $-1 $31 $32 $17 $-1 $33 reversed single #
face $-1 $34 $35 $18 $-1 $36 forward single #
face $-1 $37 $38 $19 $-1 $39 reversed single #
face $-1 $40 $41 $15 $-1 $42 reversed single #
loop $-1 $-1 $43 $20 #
plane-surface $-1 0 0 5.3546423908526286 0 0 1 1 0 0 forward_v I I I I #
face $-1 $44 $45 $16 $-1 $46 reversed single #
loop $-1 $-1 $47 $21 #
plane-surface $-1 0 -25.517351177220512 2.3546423908526286 0 0 1 1 0 0 forward_v I I I I #
face $-1 $48 $49 $17 $-1 $50 reversed single #
loop $-1 $-1 $51 $22 #
plane-surface $-1 0 25.517351177220512 2.3546423908526286 0 0 1 1 0 0 forward_v I I I I #
face $-1 $52 $53 $18 $-1 $54 forward single #
loop $-1 $-1 $55 $23 #
plane-surface $-1 -118.23450841646982 -6.2966608191813549 95.291767648035432 0 1 0 -0.54463904215088732 0 0.83867056331134215 forward_v I I I I #
face $-1 $56 $57 $19 $-1 $58 reversed single #
loop $-1 $59 $60 $24 #
cone-surface $-1 -51.801061240441868 -2.8220661944509331 1.3966240373150098 0.54463904215088732 0 -0.83867056331134215 1.2580058449670133 0 0.81695856322633098 1 I I 0 1 1.5 forward I I I I #
face $-1 $61 $62 $15 $-1 $63 reversed single #
loop $-1 $-1 $64 $25 #
plane-surface $-1 0 0 -5.3546423908526286 0 0 1 1 0 0 forward_v I I I I #
coedge $-1 $65 $66 $67 $68 forward $26 $-1 #
face $-1 $69 $70 $16 $-1 $71 forward single #
loop $-1 $-1 $72 $28 #
plane-surface $-1 0 -27.591552397722552 3.8546423908526286 0 1 0 0 0 1 forward_v I I I I #
coedge $-1 $73 $74 $75 $76 forward $29 $-1 #
face $-1 $77 $78 $17 $-1 $79 reversed single #
loop $-1 $-1 $80 $31 #
plane-surface $-1 0 27.591552397722552 3.8546423908526286 0 -1 0 0 0 -1 forward_v I I I I #
coedge $-1 $81 $82 $83 $84 forward $32 $-1 #
face $-1 $85 $86 $18 $-1 $87 forward single #
loop $-1 $-1 $88 $34 #
plane-surface $-1 -56.591082491531111 -2.8220661944509331 0.36921758489337719 -0.54463904215088732 0 0.83867056331134215 0.83867056331134215 0 0.54463904215088732 forward_v I I I I #
coedge $-1 $89 $90 $91 $92 reversed $35 $-1 #
face $-1 $93 $94 $19 $-1 $95 forward single #
loop $-1 $96 $97 $37 #
cone-surface $-1 -50.441001130453273 -2.8220661944509331 -0.69768483572648243 0.54463904215088732 0 -0.83867056331134215 0.62900292248350664 0 0.40847928161316549 1 I I -0.70710678118654757 0.70710678118654757 0.75 forward I I I I #
loop $-1 $-1 $98 $24 #
coedge $-1 $60 $60 $99 $100 reversed $38 $-1 #
face $-1 $101 $102 $15 $-1 $103 reversed single #
loop $-1 $-1 $104 $40 #
plane-surface $-1 0 -23.443149956718472 0 0 1 0 0 0 1 forward_v I I I I #
coedge $-1 $105 $106 $107 $108 forward $41 $-1 #
coedge $-1 $109 $43 $110 $111 forward $26 $-1 #
coedge $-1 $43 $109 $112 $113 forward $26 $-1 #
coedge $-1 $114 $115 $43 $68 reversed $116 $-1 #
edge $-1 $117 -23.443149956718472 $118 23.443149956718472 $67 $119 forward 7 unknown #
face $-1 $120 $121 $16 $-1 $122 reversed single #
loop $-1 $-1 $123 $44 #
plane-surface $-1 0 0 5.3546423908526286 0 0 1 1 0 0 forward_v I I I I #
coedge $-1 $124 $125 $126 $127 forward $45 $-1 #
coedge $-1 $128 $47 $124 $129 forward $29 $-1 #
coedge $-1 $47 $128 $130 $131 reversed $29 $-1 #
coedge $-1 $132 $133 $47 $76 reversed $134 $-1 #
edge $-1 $135 -2.0742012205020401 $136 2.0742012205020401 $75 $137 forward 7 unknown #
face $-1 $138 $139 $17 $-1 $140 reversed single #
loop $-1 $-1 $141 $48 #
plane-surface $-1 0 -25.517351177220512 2.3546423908526286 0 0 1 1 0 0 forward_v I I I I #
coedge $-1 $142 $143 $144 $145 forward $49 $-1 #
coedge $-1 $146 $51 $147 $148 reversed $32 $-1 #
coedge $-1 $51 $146 $142 $149 forward $32 $-1 #
coedge $-1 $144 $150 $51 $84 reversed $151 $-1 #
edge $-1 $152 -2.0742012205020401 $153 2.0742012205020401 $83 $154 forward 7 unknown #
face $-1 $155 $156 $18 $-1 $157 forward single #
loop $-1 $-1 $158 $52 #
plane-surface $-1 -118.23450841646982 0.6525284302794887 95.291767648035432 0 -1 0 0.54463904215088732 0 -0.83867056331134215 forward_v I I I I #
coedge $-1 $159 $160 $161 $162 reversed $53 $-1 #
coedge $-1 $90 $55 $160 $163 forward $35 $-1 #
coedge $-1 $55 $89 $164 $165 reversed $35 $-1 #
coedge $-1 $166 $161 $55 $92 forward $156 $-1 #
edge $-1 $167 -10.203052562131404 $168 -2.5261717167038 $91 $169 forward 7 unknown #
face $-1 $170 $171 $19 $-1 $172 forward single #
loop $-1 $-1 $173 $56 #
plane-surface $-1 -118.23450841646982 -6.2966608191813549 95.291767648035432 0 1 0 -0.54463904215088732 0 0.83867056331134215 forward_v I I I I #
loop $-1 $-1 $174 $37 #
coedge $-1 $97 $97 $98 $175 forward $57 $-1 #
coedge $-1 $98 $98 $97 $175 reversed $59 $-1 #
coedge $-1 $99 $99 $60 $100 forward $171 $-1 #
edge $-1 $176 0 $176 6.2831853071796004 $99 $177 forward 7 unknown #
face $-1 $178 $179 $15 $-1 $180 reversed single #
loop $-1 $-1 $181 $61 #
plane-surface $-1 -56.591082491531111 0 0 1 0 0 0 0 -1 forward_v I I I I #
coedge $-1 $182 $112 $183 $184 forward $62 $-1 #
coedge $-1 $185 $64 $182 $186 forward $41 $-1 #
coedge $-1 $64 $185 $187 $188 forward $41 $-1 #
coedge $-1 $115 $114 $64 $108 reversed $116 $-1 #
edge $-1 $189 -23.443149956718472 $190 23.443149956718472 $107 $191 forward 7 unknown #
coedge $-1 $66 $65 $192 $193 forward $26 $-1 #
coedge $-1 $194 $195 $65 $111 reversed $179 $-1 #
edge $-1 $118 -56.591082491531111 $196 56.591082491531111 $110 $197 forward 7 unknown #
coedge $-1 $104 $198 $66 $113 reversed $62 $-1 #
edge $-1 $199 -56.591082491531111 $117 56.591082491531111 $112 $200 forward 7 unknown #
coedge $-1 $107 $67 $198 $201 forward $116 $-1 #
coedge $-1 $67 $107 $194 $202 reversed $116 $-1 #
loop $-1 $-1 $114 $178 #
vertex $-1 $68 $203 #
vertex $-1 $68 $204 #
straight-curve $-1 56.591082491531111 0 5.3546423908526286 0 1 0 I I #
face $-1 $205 $206 $16 $-1 $207 reversed single #
loop $-1 $-1 $208 $69 #
plane-surface $-1 0 0 -5.3546423908526286 0 0 1 1 0 0 forward_v I I I I #
coedge $-1 $209 $210 $211 $212 forward $70 $-1 #
coedge $-1 $213 $72 $73 $129 reversed $45 $-1 #
coedge $-1 $72 $213 $210 $214 reversed $45 $-1 #
coedge $-1 $215 $216 $72 $127 reversed $217 $-1 #
edge $-1 $218 -1.5 $219 1.5 $126 $220 forward 7 unknown #
coedge $-1 $74 $73 $216 $221 forward $29 $-1 #
edge $-1 $136 -56.591082491531111 $219 56.591082491531111 $124 $222 forward 7 unknown #
coedge $-1 $223 $224 $74 $131 forward $206 $-1 #
edge $-1 $135 -56.591082491531111 $225 56.591082491531111 $130 $226 forward 7 unknown #
coedge $-1 $227 $75 $224 $228 forward $134 $-1 #
coedge $-1 $75 $211 $213 $229 forward $134 $-1 #
loop $-1 $-1 $132 $230 #
vertex $-1 $228 $231 #
vertex $-1 $229 $232 #
straight-curve $-1 56.591082491531111 -25.517351177220512 2.3546423908526286 0 -1 0 I I #
face $-1 $233 $234 $17 $-1 $235 forward single #
loop $-1 $-1 $236 $77 #
plane-surface $-1 0 -27.591552397722552 3.8546423908526286 0 1 0 0 0 1 forward_v I I I I #
coedge $-1 $237 $238 $239 $240 forward $78 $-1 #
coedge $-1 $241 $80 $82 $149 reversed $49 $-1 #
coedge $-1 $80 $241 $242 $243 reversed $49 $-1 #
coedge $-1 $244 $83 $80 $145 reversed $151 $-1 #
edge $-1 $245 -1.5 $152 1.5 $144 $246 forward 7 unknown #
coedge $-1 $82 $81 $247 $248 forward $32 $-1 #
coedge $-1 $249 $250 $81 $148 forward $251 $-1 #
edge $-1 $252 -56.591082491531111 $153 56.591082491531111 $147 $253 forward 7 unknown #
edge $-1 $254 -56.591082491531111 $152 56.591082491531111 $142 $255 forward 7 unknown #
coedge $-1 $83 $256 $249 $257 reversed $151 $-1 #
loop $-1 $-1 $258 $259 #
vertex $-1 $84 $260 #
vertex $-1 $257 $261 #
straight-curve $-1 56.591082491531111 25.517351177220512 2.3546423908526286 0 -1 0 I I #
face $-1 $262 $263 $18 $-1 $264 reversed single #
loop $-1 $-1 $265 $85 #
plane-surface $-1 0 0 5.3546423908526286 0 0 1 1 0 0 forward_v I I I I #
coedge $-1 $266 $267 $265 $268 reversed $86 $-1 #
coedge $-1 $269 $88 $267 $270 reversed $53 $-1 #
coedge $-1 $88 $269 $89 $163 reversed $53 $-1 #
coedge $-1 $91 $265 $88 $162 forward $156 $-1 #
edge $-1 $271 -2.0635615275049553 $167 4.8856277219558883 $161 $272 forward 7 unknown #
edge $-1 $167 -9.1536309741417412 $273 0 $89 $274 forward 7 unknown #
coedge $-1 $275 $276 $90 $165 forward $277 $-1 #
edge $-1 $168 42.291241433165084 $273 47.276666239124339 $164 $278 forward 7 unknown #
coedge $-1 $279 $91 $276 $280 forward $156 $-1 #
vertex $-1 $162 $281 #
vertex $-1 $280 $282 #
straight-curve $-1 -59.117254208234911 -6.2966608191813549 5.3546423908526322 -1 0 0 I I #
face $-1 $283 $284 $19 $-1 $285 forward single #
loop $-1 $286 $99 $93 #
plane-surface $-1 -56.591082491531111 -2.8220661944509331 0.36921758489337719 -0.54463904215088732 0 0.83867056331134215 0.83867056331134215 0 0.54463904215088732 forward_v I I I I #
coedge $-1 $287 $288 $289 $290 reversed $94 $-1 #
coedge $-1 $174 $174 $-1 $291 forward $96 $-1 #
edge $-1 $292 0 $292 6.2831853071796004 $97 $293 forward 7 unknown #
vertex $-1 $100 $294 #
ellipse-curve $-1 -52.752642068817309 -2.8220661944509331 2.8619299878730051 0.54463904215088732 0 -0.83867056331134215 1.2580058449670133 0 0.81695856322633098 1 I I #
face $-1 $-1 $116 $15 $-1 $295 reversed single #
loop $-1 $-1 $194 $101 #
plane-surface $-1 0 23.443149956718472 0 0 -1 0 0 0 -1 forward_v I I I I #
coedge $-1 $296 $192 $195 $297 forward $102 $-1 #
coedge $-1 $198 $104 $105 $186 reversed $62 $-1 #
coedge $-1 $192 $296 $104 $184 reversed $102 $-1 #
edge $-1 $199 -5.3546423908526286 $298 5.3546423908526286 $183 $299 forward 7 unknown #
coedge $-1 $106 $105 $296 $300 forward $41 $-1 #
edge $-1 $190 -56.591082491531111 $298 56.591082491531111 $182 $301 forward 7 unknown #
coedge $-1 $195 $194 $106 $188 reversed $179 $-1 #
edge $-1 $302 -56.591082491531111 $189 56.591082491531111 $187 $303 forward 7 unknown #
vertex $-1 $108 $304 #
vertex $-1 $201 $305 #
straight-curve $-1 56.591082491531111 0 -5.3546423908526286 0 -1 0 I I #
coedge $-1 $181 $183 $109 $193 reversed $102 $-1 #
edge $-1 $196 -23.443149956718472 $199 23.443149956718472 $192 $306 forward 7 unknown #
coedge $-1 $187 $110 $115 $202 forward $179 $-1 #
coedge $-1 $110 $187 $181 $297 reversed $179 $-1 #
vertex $-1 $111 $307 #
straight-curve $-1 0 23.443149956718472 5.3546423908526286 -1 0 0 I I #
coedge $-1 $112 $182 $114 $201 reversed $62 $-1 #
vertex $-1 $193 $308 #
straight-curve $-1 0 -23.443149956718472 5.3546423908526286 1 0 0 I I #
edge $-1 $117 -5.3546423908526286 $190 5.3546423908526286 $114 $309 forward 7 unknown #
edge $-1 $118 -5.3546423908526286 $189 5.3546423908526286 $115 $310 forward 7 unknown #
point $-1 56.591082491531111 -23.443149956718472 5.3546423908526286 #
point $-1 56.591082491531111 23.443149956718472 5.3546423908526286 #
face $-1 $311 $217 $16 $-1 $312 reversed single #
loop $-1 $-1 $130 $120 #
plane-surface $-1 0 -23.443149956718472 0 0 1 0 0 0 1 forward_v I I I I #
coedge $-1 $313 $314 $227 $315 forward $121 $-1 #
coedge $-1 $316 $123 $317 $318 forward $70 $-1 #
coedge $-1 $123 $316 $125 $214 forward $70 $-1 #
coedge $-1 $133 $319 $123 $212 reversed $134 $-1 #
edge $-1 $320 -27.591552397722552 $321 23.443149956718472 $211 $322 forward 7 unknown #
coedge $-1 $125 $124 $133 $229 reversed $45 $-1 #
edge $-1 $218 -56.591082491531111 $320 56.591082491531111 $125 $323 forward 7 unknown #
coedge $-1 $324 $126 $316 $325 reversed $217 $-1 #
coedge $-1 $126 $326 $128 $221 reversed $217 $-1 #
loop $-1 $-1 $324 $205 #
vertex $-1 $325 $327 #
vertex $-1 $221 $328 #
straight-curve $-1 -56.591082491531111 -27.591552397722552 3.8546423908526286 0 0 -1 I I #
edge $-1 $219 -2.0742012205020401 $225 2.0742012205020401 $216 $329 forward 7 unknown #
straight-curve $-1 0 -27.591552397722552 2.3546423908526286 -1 0 0 I I #
coedge $-1 $330 $130 $326 $331 forward $206 $-1 #
coedge $-1 $130 $330 $132 $228 reversed $206 $-1 #
vertex $-1 $331 $332 #
straight-curve $-1 0 -23.443149956718472 2.3546423908526286 -1 0 0 I I #
coedge $-1 $319 $132 $208 $315 reversed $134 $-1 #
edge $-1 $135 -2.3546423908526286 $333 5.3546423908526286 $132 $334 forward 7 unknown #
edge $-1 $320 -1.5 $136 1.5 $133 $335 forward 7 unknown #
face $-1 $-1 $134 $16 $-1 $336 reversed single #
point $-1 56.591082491531111 -23.443149956718472 2.3546423908526286 #
point $-1 56.591082491531111 -27.591552397722552 2.3546423908526286 #
face $-1 $337 $338 $17 $-1 $339 reversed single #
loop $-1 $-1 $340 $138 #
plane-surface $-1 0 0 5.3546423908526286 0 0 1 1 0 0 forward_v I I I I #
coedge $-1 $341 $342 $343 $344 forward $139 $-1 #
coedge $-1 $345 $141 $341 $346 forward $78 $-1 #
coedge $-1 $141 $345 $347 $348 reversed $78 $-1 #
coedge $-1 $258 $349 $141 $240 reversed $151 $-1 #
edge $-1 $350 -2.0742012205020401 $351 2.0742012205020401 $239 $352 forward 7 unknown #
coedge $-1 $143 $142 $353 $354 reversed $49 $-1 #
coedge $-1 $355 $340 $143 $243 forward $234 $-1 #
edge $-1 $245 -56.591082491531111 $356 56.591082491531111 $143 $357 forward 7 unknown #
coedge $-1 $349 $144 $340 $358 reversed $151 $-1 #
vertex $-1 $358 $359 #
straight-curve $-1 56.591082491531111 27.591552397722552 3.8546423908526286 0 0 -1 I I #
coedge $-1 $360 $353 $146 $248 reversed $361 $-1 #
edge $-1 $252 -2.0742012205020401 $254 2.0742012205020401 $247 $362 forward 7 unknown #
coedge $-1 $363 $147 $150 $257 forward $251 $-1 #
coedge $-1 $147 $363 $360 $364 reversed $251 $-1 #
loop $-1 $-1 $147 $365 #
vertex $-1 $364 $366 #
straight-curve $-1 0 23.443149956718472 2.3546423908526286 1 0 0 I I #
vertex $-1 $149 $367 #
straight-curve $-1 0 27.591552397722552 2.3546423908526286 1 0 0 I I #
coedge $-1 $150 $258 $368 $369 reversed $151 $-1 #
edge $-1 $153 -2.3546423908526286 $370 5.3546423908526286 $150 $371 forward 7 unknown #
coedge $-1 $256 $239 $372 $373 forward $151 $-1 #
face $-1 $-1 $151 $17 $-1 $374 reversed single #
point $-1 56.591082491531111 27.591552397722552 2.3546423908526286 #
point $-1 56.591082491531111 23.443149956718472 2.3546423908526286 #
face $-1 $375 $376 $18 $-1 $377 reversed single #
loop $-1 $-1 $378 $155 #
plane-surface $-1 0 25.517351177220512 2.3546423908526286 0 0 1 1 0 0 forward_v I I I I #
coedge $-1 $161 $379 $158 $268 forward $156 $-1 #
coedge $-1 $267 $158 $380 $381 reversed $86 $-1 #
coedge $-1 $158 $266 $159 $270 forward $86 $-1 #
edge $-1 $382 2.5261717167038 $271 10.203052562131404 $265 $383 forward 7 unknown #
coedge $-1 $160 $159 $275 $384 reversed $53 $-1 #
edge $-1 $385 0 $271 9.1536309741417412 $267 $386 forward 7 unknown #
vertex $-1 $162 $387 #
straight-curve $-1 -48.914201646103507 -1.4110330972254665 5.3546423908526286 0 -1 0 I I #
vertex $-1 $384 $388 #
straight-curve $-1 -56.591082491531111 -6.2966608191813549 0.36921758489337719 -0.83867056331134215 0 -0.54463904215088732 I I #
coedge $-1 $380 $164 $269 $384 forward $277 $-1 #
coedge $-1 $164 $389 $166 $280 reversed $277 $-1 #
loop $-1 $-1 $380 $390 #
straight-curve $-1 -56.591082491531111 -6.2966608191813549 47.645883824017716 0 0 -1 I I #
coedge $-1 $391 $166 $392 $393 forward $156 $-1 #
edge $-1 $168 6.2966608191813549 $394 27.591552397722552 $276 $395 forward 7 unknown #
point $-1 -48.914201646103507 -6.2966608191813549 5.3546423908526286 #
point $-1 -56.591082491531111 -6.2966608191813549 5.3546423908526286 #
face $-1 $396 $397 $19 $-1 $398 forward single #
loop $-1 $-1 $399 $170 #
plane-surface $-1 -118.23450841646982 0.6525284302794887 95.291767648035432 0 -1 0 0.54463904215088732 0 -0.83867056331134215 forward_v I I I I #
loop $-1 $-1 $400 $93 #
coedge $-1 $288 $173 $401 $402 forward $94 $-1 #
coedge $-1 $173 $287 $403 $404 reversed $94 $-1 #
coedge $-1 $405 $406 $173 $290 forward $397 $-1 #
edge $-1 $407 -10.203052562131404 $408 -2.5261717167038 $289 $409 forward 7 unknown #
edge $-1 $410 1 $410 0 $174 $-1 forward 7 unknown #
vertex $-1 $175 $411 #
ellipse-curve $-1 -50.849480412066441 -2.8220661944509331 -0.068681913242975789 -0.54463904215088732 0 0.83867056331134215 1.2580058449670133 0 0.81695856322633098 1 I I #
point $-1 -51.494636223850286 -2.8220661944509331 3.6788885510993268 #
plane-surface $-1 56.591082491531111 0 0 -1 0 0 0 0 1 forward_v I I I I #
coedge $-1 $183 $181 $185 $300 reversed $102 $-1 #
edge $-1 $196 -5.3546423908526286 $302 5.3546423908526286 $195 $412 forward 7 unknown #
vertex $-1 $300 $413 #
straight-curve $-1 -56.591082491531111 -23.443149956718472 0 0 0 -1 I I #
edge $-1 $298 -23.443149956718472 $302 23.443149956718472 $296 $414 forward 7 unknown #
straight-curve $-1 0 -23.443149956718472 -5.3546423908526286 -1 0 0 I I #
vertex $-1 $188 $415 #
straight-curve $-1 0 23.443149956718472 -5.3546423908526286 1 0 0 I I #
point $-1 56.591082491531111 23.443149956718472 -5.3546423908526286 #
point $-1 56.591082491531111 -23.443149956718472 -5.3546423908526286 #
straight-curve $-1 -56.591082491531111 0 5.3546423908526286 0 -1 0 I I #
point $-1 -56.591082491531111 23.443149956718472 5.3546423908526286 #
point $-1 -56.591082491531111 -23.443149956718472 5.3546423908526286 #
straight-curve $-1 56.591082491531111 -23.443149956718472 0 0 0 -1 I I #
straight-curve $-1 56.591082491531111 23.443149956718472 0 0 0 -1 I I #
face $-1 $230 $416 $16 $-1 $417 reversed single #
plane-surface $-1 -56.591082491531111 0 0 1 0 0 0 0 -1 forward_v I I I I #
coedge $-1 $418 $208 $330 $419 forward $121 $-1 #
coedge $-1 $208 $418 $420 $421 forward $121 $-1 #
edge $-1 $422 -23.443149956718472 $333 23.443149956718472 $227 $423 forward 7 unknown #
coedge $-1 $210 $209 $215 $325 forward $70 $-1 #
coedge $-1 $424 $425 $209 $318 reversed $416 $-1 #
edge $-1 $321 -56.591082491531111 $426 56.591082491531111 $317 $427 forward 7 unknown #
coedge $-1 $211 $227 $424 $428 reversed $134 $-1 #
vertex $-1 $212 $429 #
vertex $-1 $212 $430 #
straight-curve $-1 56.591082491531111 0 5.3546423908526286 0 1 0 I I #
straight-curve $-1 0 -27.591552397722552 5.3546423908526286 1 0 0 I I #
coedge $-1 $431 $215 $425 $432 forward $217 $-1 #
edge $-1 $426 -23.443149956718472 $218 27.591552397722552 $215 $433 forward 7 unknown #
coedge $-1 $216 $431 $223 $331 reversed $217 $-1 #
point $-1 -56.591082491531111 -27.591552397722552 5.3546423908526286 #
point $-1 -56.591082491531111 -27.591552397722552 2.3546423908526286 #
straight-curve $-1 -56.591082491531111 -25.517351177220512 2.3546423908526286 0 1 0 I I #
coedge $-1 $224 $223 $313 $419 reversed $206 $-1 #
edge $-1 $225 -2.3546423908526286 $434 5.3546423908526286 $326 $435 forward 7 unknown #
point $-1 -56.591082491531111 -23.443149956718472 2.3546423908526286 #
vertex $-1 $228 $436 #
straight-curve $-1 56.591082491531111 -23.443149956718472 0 0 0 -1 I I #
straight-curve $-1 56.591082491531111 -27.591552397722552 3.8546423908526286 0 0 -1 I I #
plane-surface $-1 56.591082491531111 0 0 -1 0 0 0 0 1 forward_v I I I I #
face $-1 $437 $438 $17 $-1 $439 reversed single #
loop $-1 $-1 $368 $233 #
plane-surface $-1 0 0 -5.3546423908526286 0 0 1 1 0 0 forward_v I I I I #
coedge $-1 $242 $440 $244 $358 forward $234 $-1 #
coedge $-1 $441 $236 $237 $346 reversed $139 $-1 #
coedge $-1 $236 $441 $440 $442 reversed $139 $-1 #
coedge $-1 $443 $444 $236 $344 reversed $361 $-1 #
edge $-1 $445 -1.5 $446 1.5 $343 $447 forward 7 unknown #
coedge $-1 $238 $237 $444 $448 forward $78 $-1 #
edge $-1 $351 -56.591082491531111 $446 56.591082491531111 $341 $449 forward 7 unknown #
coedge $-1 $450 $372 $238 $348 forward $438 $-1 #
edge $-1 $350 -56.591082491531111 $451 56.591082491531111 $347 $452 forward 7 unknown #
coedge $-1 $239 $244 $441 $453 forward $151 $-1 #
vertex $-1 $373 $454 #
vertex $-1 $453 $455 #
straight-curve $-1 56.591082491531111 -25.517351177220512 2.3546423908526286 0 -1 0 I I #
coedge $-1 $247 $443 $241 $354 forward $361 $-1 #
edge $-1 $356 -1.5 $254 1.5 $241 $456 forward 7 unknown #
coedge $-1 $440 $242 $443 $457 forward $234 $-1 #
vertex $-1 $243 $458 #
straight-curve $-1 0 27.591552397722552 5.3546423908526286 -1 0 0 I I #
edge $-1 $459 -27.591552397722552 $245 27.591552397722552 $244 $460 forward 7 unknown #
point $-1 56.591082491531111 27.591552397722552 5.3546423908526286 #
coedge $-1 $461 $247 $250 $364 forward $361 $-1 #
loop $-1 $-1 $360 $437 #
straight-curve $-1 -56.591082491531111 25.517351177220512 2.3546423908526286 0 1 0 I I #
coedge $-1 $250 $249 $462 $463 reversed $251 $-1 #
edge $-1 $252 -2.3546423908526286 $464 5.3546423908526286 $250 $465 forward 7 unknown #
face $-1 $259 $251 $17 $-1 $466 reversed single #
point $-1 -56.591082491531111 23.443149956718472 2.3546423908526286 #
point $-1 -56.591082491531111 27.591552397722552 2.3546423908526286 #
coedge $-1 $467 $462 $256 $369 forward $338 $-1 #
edge $-1 $370 -23.443149956718472 $468 23.443149956718472 $256 $469 forward 7 unknown #
vertex $-1 $369 $470 #
straight-curve $-1 56.591082491531111 23.443149956718472 0 0 0 -1 I I #
coedge $-1 $347 $471 $258 $373 reversed $438 $-1 #
edge $-1 $350 -2.3546423908526286 $468 5.3546423908526286 $258 $472 forward 7 unknown #
plane-surface $-1 56.591082491531111 0 0 -1 0 0 0 0 1 forward_v I I I I #
face $-1 $473 $474 $18 $-1 $475 reversed single #
loop $-1 $-1 $476 $262 #
plane-surface $-1 0 27.591552397722552 3.8546423908526286 0 -1 0 0 0 -1 forward_v I I I I #
coedge $-1 $477 $478 $479 $480 forward $263 $-1 #
coedge $-1 $265 $481 $482 $483 forward $156 $-1 #
coedge $-1 $482 $275 $266 $381 forward $277 $-1 #
edge $-1 $385 -47.276666239124339 $382 -42.291241433165084 $380 $484 forward 7 unknown #
vertex $-1 $381 $485 #
straight-curve $-1 -59.117254208234911 0.6525284302794887 5.3546423908526322 1 0 0 I I #
edge $-1 $273 -4.8856277219558883 $385 2.0635615275049553 $275 $486 forward 7 unknown #
vertex $-1 $384 $487 #
straight-curve $-1 -56.591082491531111 0.6525284302794887 0.36921758489337719 0.83867056331134215 0 0.54463904215088732 I I #
point $-1 -48.914201646103507 0.6525284302794887 5.3546423908526286 #
point $-1 -56.591082491531111 -6.2966608191813549 0.36921758489337719 #
coedge $-1 $276 $488 $489 $490 reversed $277 $-1 #
face $-1 $491 $277 $18 $-1 $492 reversed single #
coedge $-1 $481 $279 $493 $494 forward $156 $-1 #
coedge $-1 $489 $495 $279 $393 reversed $496 $-1 #
edge $-1 $394 -56.591082491531111 $497 56.591082491531111 $392 $498 forward 7 unknown #
vertex $-1 $280 $499 #
straight-curve $-1 -56.591082491531111 0 5.3546423908526286 0 -1 0 I I #
face $-1 $500 $501 $19 $-1 $502 reversed single #
loop $-1 $-1 $503 $283 #
plane-surface $-1 0 0 5.3546423908526286 0 0 1 1 0 0 forward_v I I I I #
coedge $-1 $504 $505 $503 $506 reversed $284 $-1 #
coedge $-1 $507 $401 $406 $508 reversed $286 $-1 #
coedge $-1 $400 $509 $287 $402 reversed $286 $-1 #
edge $-1 $407 -9.1536309741417412 $510 0 $287 $511 forward 7 unknown #
coedge $-1 $512 $513 $288 $404 forward $514 $-1 #
edge $-1 $408 42.291241433165084 $510 47.276666239124339 $403 $515 forward 7 unknown #
coedge $-1 $516 $289 $513 $517 forward $397 $-1 #
coedge $-1 $289 $503 $400 $508 forward $397 $-1 #
vertex $-1 $508 $518 #
vertex $-1 $517 $519 #
straight-curve $-1 -59.117254208234911 -6.2966608191813549 5.3546423908526322 -1 0 0 I I #
vertex $-1 $291 $520 #
point $-1 -49.591474567099425 -2.8220661944509331 0.7482766499833553 #
straight-curve $-1 -56.591082491531111 23.443149956718472 0 0 0 -1 I I #
point $-1 -56.591082491531111 -23.443149956718472 -5.3546423908526286 #
straight-curve $-1 -56.591082491531111 0 -5.3546423908526286 0 1 0 I I #
point $-1 -56.591082491531111 23.443149956718472 -5.3546423908526286 #
loop $-1 $-1 $424 $311 #
plane-surface $-1 0 23.443149956718472 0 0 -1 0 0 0 -1 forward_v I I I I #
coedge $-1 $314 $313 $431 $521 forward $121 $-1 #
edge $-1 $333 -56.591082491531111 $434 56.591082491531111 $330 $522 forward 7 unknown #
coedge $-1 $425 $424 $314 $421 reversed $416 $-1 #
edge $-1 $523 -56.591082491531111 $422 56.591082491531111 $420 $524 forward 7 unknown #
vertex $-1 $315 $525 #
straight-curve $-1 56.591082491531111 0 -5.3546423908526286 0 -1 0 I I #
coedge $-1 $420 $317 $319 $428 forward $416 $-1 #
coedge $-1 $317 $420 $324 $432 reversed $416 $-1 #
vertex $-1 $318 $526 #
straight-curve $-1 0 23.443149956718472 5.3546423908526286 -1 0 0 I I #
edge $-1 $321 -5.3546423908526286 $422 5.3546423908526286 $319 $527 forward 7 unknown #
point $-1 56.591082491531111 -27.591552397722552 5.3546423908526286 #
point $-1 56.591082491531111 23.443149956718472 5.3546423908526286 #
coedge $-1 $326 $324 $418 $521 reversed $217 $-1 #
edge $-1 $426 -5.3546423908526286 $523 5.3546423908526286 $425 $528 forward 7 unknown #
straight-curve $-1 -56.591082491531111 0 5.3546423908526286 0 -1 0 I I #
vertex $-1 $521 $529 #
straight-curve $-1 -56.591082491531111 -23.443149956718472 0 0 0 -1 I I #
point $-1 56.591082491531111 -23.443149956718472 -5.3546423908526286 #
face $-1 $365 $361 $17 $-1 $530 reversed single #
loop $-1 $-1 $347 $337 #
plane-surface $-1 0 -23.443149956718472 0 0 1 0 0 0 1 forward_v I I I I #
coedge $-1 $340 $355 $342 $442 forward $234 $-1 #
coedge $-1 $342 $341 $349 $453 reversed $139 $-1 #
edge $-1 $445 -56.591082491531111 $459 56.591082491531111 $342 $531 forward 7 unknown #
coedge $-1 $353 $343 $355 $457 reversed $361 $-1 #
coedge $-1 $343 $532 $345 $448 reversed $361 $-1 #
vertex $-1 $457 $533 #
vertex $-1 $448 $534 #
straight-curve $-1 -56.591082491531111 -27.591552397722552 3.8546423908526286 0 0 -1 I I #
edge $-1 $446 -2.0742012205020401 $451 2.0742012205020401 $444 $535 forward 7 unknown #
straight-curve $-1 0 -27.591552397722552 2.3546423908526286 -1 0 0 I I #
coedge $-1 $471 $347 $532 $536 forward $438 $-1 #
vertex $-1 $536 $537 #
straight-curve $-1 0 -23.443149956718472 2.3546423908526286 -1 0 0 I I #
edge $-1 $459 -1.5 $351 1.5 $349 $538 forward 7 unknown #
point $-1 56.591082491531111 -23.443149956718472 2.3546423908526286 #
point $-1 56.591082491531111 -27.591552397722552 2.3546423908526286 #
straight-curve $-1 -56.591082491531111 27.591552397722552 3.8546423908526286 0 0 -1 I I #
edge $-1 $356 -27.591552397722552 $445 27.591552397722552 $443 $539 forward 7 unknown #
point $-1 -56.591082491531111 27.591552397722552 5.3546423908526286 #
vertex $-1 $358 $540 #
straight-curve $-1 56.591082491531111 0 5.3546423908526286 0 1 0 I I #
coedge $-1 $532 $360 $541 $542 reversed $361 $-1 #
coedge $-1 $368 $541 $363 $463 forward $338 $-1 #
edge $-1 $464 -56.591082491531111 $370 56.591082491531111 $363 $543 forward 7 unknown #
vertex $-1 $463 $544 #
straight-curve $-1 -56.591082491531111 23.443149956718472 0 0 0 -1 I I #
plane-surface $-1 0 23.443149956718472 0 0 -1 0 0 0 -1 forward_v I I I I #
coedge $-1 $541 $368 $471 $545 forward $338 $-1 #
vertex $-1 $373 $546 #
straight-curve $-1 56.591082491531111 0 -5.3546423908526286 0 -1 0 I I #
point $-1 56.591082491531111 23.443149956718472 -5.3546423908526286 #
coedge $-1 $372 $450 $467 $545 reversed $438 $-1 #
straight-curve $-1 56.591082491531111 -23.443149956718472 0 0 0 -1 I I #
face $-1 $547 $496 $18 $-1 $548 reversed single #
loop $-1 $-1 $549 $375 #
plane-surface $-1 0 -25.517351177220512 2.3546423908526286 0 0 1 1 0 0 forward_v I I I I #
coedge $-1 $550 $551 $552 $553 forward $376 $-1 #
coedge $-1 $554 $378 $555 $556 reversed $263 $-1 #
coedge $-1 $378 $554 $550 $557 forward $263 $-1 #
coedge $-1 $552 $558 $378 $480 reversed $559 $-1 #
edge $-1 $560 -2.0742012205020401 $561 2.0742012205020401 $479 $562 forward 7 unknown #
coedge $-1 $379 $391 $551 $563 forward $156 $-1 #
coedge $-1 $564 $380 $379 $483 reversed $277 $-1 #
edge $-1 $565 -27.591552397722552 $382 -0.6525284302794887 $482 $395 forward 7 unknown #
straight-curve $-1 -56.591082491531111 0.6525284302794887 47.645883824017716 0 0 1 I I #
point $-1 -56.591082491531111 0.6525284302794887 5.3546423908526286 #
straight-curve $-1 -56.591082491531111 -1.4110330972254665 0.36921758489337531 0 1 0 I I #
point $-1 -56.591082491531111 0.6525284302794887 0.36921758489337719 #
coedge $-1 $389 $566 $567 $568 reversed $277 $-1 #
coedge $-1 $569 $392 $389 $490 forward $496 $-1 #
edge $-1 $394 -1.5 $570 1.5 $389 $571 forward 7 unknown #
face $-1 $572 $573 $18 $-1 $574 reversed single #
plane-surface $-1 -56.591082491531111 0 0 1 0 0 0 0 -1 forward_v I I I I #
coedge $-1 $575 $552 $391 $494 reversed $559 $-1 #
edge $-1 $497 -27.591552397722552 $576 27.591552397722552 $493 $577 forward 7 unknown #
coedge $-1 $392 $569 $575 $578 reversed $496 $-1 #
loop $-1 $-1 $489 $473 #
vertex $-1 $494 $579 #
straight-curve $-1 0 -27.591552397722552 5.3546423908526286 1 0 0 I I #
point $-1 -56.591082491531111 -27.591552397722552 5.3546423908526286 #
face $-1 $580 $581 $19 $-1 $582 reversed single #
loop $-1 $-1 $583 $396 #
plane-surface $-1 0 25.517351177220512 2.3546423908526286 0 0 1 1 0 0 forward_v I I I I #
coedge $-1 $406 $584 $399 $506 forward $397 $-1 #
coedge $-1 $505 $399 $585 $586 reversed $284 $-1 #
coedge $-1 $399 $504 $507 $587 forward $284 $-1 #
edge $-1 $588 2.5261717167038 $589 10.203052562131404 $503 $590 forward 7 unknown #
coedge $-1 $509 $400 $505 $587 reversed $286 $-1 #
edge $-1 $589 -2.0635615275049553 $407 4.8856277219558883 $406 $591 forward 7 unknown #
coedge $-1 $401 $507 $512 $592 reversed $286 $-1 #
vertex $-1 $592 $593 #
straight-curve $-1 -56.591082491531111 -6.2966608191813549 0.36921758489337719 -0.83867056331134215 0 -0.54463904215088732 I I #
coedge $-1 $585 $403 $509 $592 forward $514 $-1 #
coedge $-1 $403 $594 $405 $517 reversed $514 $-1 #
loop $-1 $-1 $585 $595 #
straight-curve $-1 -56.591082491531111 -6.2966608191813549 47.645883824017716 0 0 -1 I I #
coedge $-1 $596 $405 $597 $598 forward $397 $-1 #
edge $-1 $408 6.2966608191813549 $599 27.591552397722552 $513 $600 forward 7 unknown #
point $-1 -48.914201646103507 -6.2966608191813549 5.3546423908526286 #
point $-1 -56.591082491531111 -6.2966608191813549 5.3546423908526286 #
point $-1 -50.032521848840105 -2.8220661944509331 -1.3266877582099892 #
edge $-1 $434 -23.443149956718472 $523 23.443149956718472 $431 $601 forward 7 unknown #
straight-curve $-1 0 -23.443149956718472 -5.3546423908526286 -1 0 0 I I #
vertex $-1 $421 $602 #
straight-curve $-1 0 23.443149956718472 -5.3546423908526286 1 0 0 I I #
point $-1 56.591082491531111 23.443149956718472 -5.3546423908526286 #
point $-1 -56.591082491531111 23.443149956718472 5.3546423908526286 #
straight-curve $-1 56.591082491531111 23.443149956718472 0 0 0 -1 I I #
straight-curve $-1 -56.591082491531111 23.443149956718472 0 0 0 -1 I I #
point $-1 -56.591082491531111 -23.443149956718472 -5.3546423908526286 #
plane-surface $-1 -56.591082491531111 0 0 1 0 0 0 0 -1 forward_v I I I I #
straight-curve $-1 0 -27.591552397722552 5.3546423908526286 1 0 0 I I #
coedge $-1 $444 $461 $450 $536 reversed $361 $-1 #
point $-1 -56.591082491531111 -27.591552397722552 5.3546423908526286 #
point $-1 -56.591082491531111 -27.591552397722552 2.3546423908526286 #
straight-curve $-1 -56.591082491531111 -25.517351177220512 2.3546423908526286 0 1 0 I I #
edge $-1 $451 -2.3546423908526286 $603 5.3546423908526286 $532 $604 forward 7 unknown #
point $-1 -56.591082491531111 -23.443149956718472 2.3546423908526286 #
straight-curve $-1 56.591082491531111 -27.591552397722552 3.8546423908526286 0 0 -1 I I #
straight-curve $-1 -56.591082491531111 0 5.3546423908526286 0 -1 0 I I #
point $-1 56.591082491531111 -27.591552397722552 5.3546423908526286 #
coedge $-1 $462 $467 $461 $542 forward $338 $-1 #
edge $-1 $603 -23.443149956718472 $464 23.443149956718472 $461 $605 forward 7 unknown #
straight-curve $-1 0 23.443149956718472 -5.3546423908526286 1 0 0 I I #
point $-1 -56.591082491531111 23.443149956718472 -5.3546423908526286 #
edge $-1 $468 -56.591082491531111 $603 56.591082491531111 $471 $606 forward 7 unknown #
point $-1 56.591082491531111 -23.443149956718472 -5.3546423908526286 #
face $-1 $607 $608 $18 $-1 $609 reversed single #
plane-surface $-1 0 -27.591552397722552 3.8546423908526286 0 1 0 0 0 1 forward_v I I I I #
coedge $-1 $610 $611 $612 $613 forward $474 $-1 #
coedge $-1 $614 $476 $478 $557 reversed $376 $-1 #
coedge $-1 $476 $614 $481 $563 reversed $376 $-1 #
coedge $-1 $493 $479 $476 $553 reversed $559 $-1 #
edge $-1 $576 -1.5 $560 1.5 $552 $615 forward 7 unknown #
coedge $-1 $478 $477 $616 $617 forward $263 $-1 #
coedge $-1 $618 $619 $477 $556 forward $573 $-1 #
edge $-1 $620 -56.591082491531111 $561 56.591082491531111 $555 $621 forward 7 unknown #
edge $-1 $622 -56.591082491531111 $560 56.591082491531111 $550 $623 forward 7 unknown #
coedge $-1 $479 $624 $618 $625 reversed $559 $-1 #
loop $-1 $-1 $626 $572 #
vertex $-1 $480 $627 #
vertex $-1 $625 $628 #
straight-curve $-1 56.591082491531111 25.517351177220512 2.3546423908526286 0 -1 0 I I #
edge $-1 $576 -56.591082491531111 $565 56.591082491531111 $551 $629 forward 7 unknown #
coedge $-1 $616 $482 $614 $630 forward $277 $-1 #
vertex $-1 $563 $631 #
coedge $-1 $488 $632 $633 $634 reversed $277 $-1 #
coedge $-1 $611 $610 $488 $568 forward $474 $-1 #
edge $-1 $570 -2.0742012205020401 $635 2.0742012205020401 $488 $636 forward 7 unknown #
coedge $-1 $495 $489 $610 $637 reversed $496 $-1 #
vertex $-1 $568 $638 #
straight-curve $-1 -56.591082491531111 -27.591552397722552 3.8546423908526286 0 0 -1 I I #
face $-1 $-1 $559 $18 $-1 $639 reversed single #
loop $-1 $-1 $555 $491 #
plane-surface $-1 0 23.443149956718472 0 0 -1 0 0 0 -1 forward_v I I I I #
coedge $-1 $612 $493 $495 $578 forward $559 $-1 #
vertex $-1 $494 $640 #
straight-curve $-1 56.591082491531111 0 5.3546423908526286 0 1 0 I I #
edge $-1 $497 -1.5 $641 1.5 $575 $642 forward 7 unknown #
point $-1 56.591082491531111 -27.591552397722552 5.3546423908526286 #
face $-1 $643 $644 $19 $-1 $645 reversed single #
loop $-1 $-1 $646 $500 #
plane-surface $-1 0 27.591552397722552 3.8546423908526286 0 -1 0 0 0 -1 forward_v I I I I #
coedge $-1 $647 $648 $649 $650 forward $501 $-1 #
coedge $-1 $503 $651 $652 $653 forward $397 $-1 #
coedge $-1 $652 $512 $504 $586 forward $514 $-1 #
edge $-1 $654 -47.276666239124339 $588 -42.291241433165084 $585 $655 forward 7 unknown #
edge $-1 $654 0 $589 9.1536309741417412 $505 $656 forward 7 unknown #
vertex $-1 $586 $657 #
vertex $-1 $508 $658 #
straight-curve $-1 -59.117254208234911 0.6525284302794887 5.3546423908526322 1 0 0 I I #
straight-curve $-1 -48.914201646103507 -1.4110330972254665 5.3546423908526286 0 -1 0 I I #
edge $-1 $510 -4.8856277219558883 $654 2.0635615275049553 $512 $659 forward 7 unknown #
point $-1 -56.591082491531111 -6.2966608191813549 0.36921758489337719 #
coedge $-1 $513 $660 $661 $662 reversed $514 $-1 #
face $-1 $663 $514 $19 $-1 $664 reversed single #
coedge $-1 $651 $516 $665 $666 forward $397 $-1 #
coedge $-1 $661 $667 $516 $598 reversed $668 $-1 #
edge $-1 $599 -56.591082491531111 $669 56.591082491531111 $597 $670 forward 7 unknown #
vertex $-1 $517 $671 #
straight-curve $-1 -56.591082491531111 0 5.3546423908526286 0 -1 0 I I #
straight-curve $-1 -56.591082491531111 0 -5.3546423908526286 0 1 0 I I #
point $-1 -56.591082491531111 23.443149956718472 -5.3546423908526286 #
vertex $-1 $542 $672 #
straight-curve $-1 -56.591082491531111 -23.443149956718472 0 0 0 -1 I I #
straight-curve $-1 -56.591082491531111 0 -5.3546423908526286 0 1 0 I I #
straight-curve $-1 0 -23.443149956718472 -5.3546423908526286 -1 0 0 I I #
face $-1 $390 $673 $18 $-1 $674 reversed single #
loop $-1 $-1 $675 $547 #
plane-surface $-1 0 0 -5.3546423908526286 0 0 1 1 0 0 forward_v I I I I #
coedge $-1 $567 $549 $569 $637 forward $474 $-1 #
coedge $-1 $549 $567 $676 $677 reversed $474 $-1 #
coedge $-1 $626 $575 $549 $613 reversed $559 $-1 #
edge $-1 $678 -2.0742012205020401 $641 2.0742012205020401 $612 $679 forward 7 unknown #
coedge $-1 $551 $550 $564 $630 reversed $376 $-1 #
straight-curve $-1 56.591082491531111 27.591552397722552 3.8546423908526286 0 0 -1 I I #
coedge $-1 $680 $564 $554 $617 reversed $277 $-1 #
edge $-1 $620 -2.0742012205020401 $622 2.0742012205020401 $616 $681 forward 7 unknown #
coedge $-1 $682 $555 $558 $625 forward $573 $-1 #
coedge $-1 $555 $682 $680 $683 reversed $573 $-1 #
vertex $-1 $683 $684 #
straight-curve $-1 0 23.443149956718472 2.3546423908526286 1 0 0 I I #
vertex $-1 $557 $685 #
straight-curve $-1 0 27.591552397722552 2.3546423908526286 1 0 0 I I #
coedge $-1 $558 $626 $675 $686 reversed $559 $-1 #
edge $-1 $561 -2.3546423908526286 $687 5.3546423908526286 $558 $688 forward 7 unknown #
coedge $-1 $624 $612 $689 $690 forward $559 $-1 #
point $-1 56.591082491531111 27.591552397722552 2.3546423908526286 #
point $-1 56.591082491531111 23.443149956718472 2.3546423908526286 #
straight-curve $-1 0 27.591552397722552 5.3546423908526286 -1 0 0 I I #
edge $-1 $565 -1.5 $622 1.5 $614 $691 forward 7 unknown #
point $-1 -56.591082491531111 27.591552397722552 5.3546423908526286 #
coedge $-1 $566 $680 $692 $693 reversed $277 $-1 #
coedge $-1 $694 $676 $566 $634 forward $673 $-1 #
edge $-1 $635 -2.3546423908526286 $695 5.3546423908526286 $566 $696 forward 7 unknown #
vertex $-1 $634 $697 #
straight-curve $-1 -56.591082491531111 -25.517351177220512 2.3546423908526286 0 1 0 I I #
edge $-1 $641 -56.591082491531111 $570 56.591082491531111 $569 $698 forward 7 unknown #
point $-1 -56.591082491531111 -27.591552397722552 2.3546423908526286 #
plane-surface $-1 56.591082491531111 0 0 -1 0 0 0 0 1 forward_v I I I I #
point $-1 56.591082491531111 27.591552397722552 5.3546423908526286 #
vertex $-1 $578 $699 #
straight-curve $-1 56.591082491531111 -27.591552397722552 3.8546423908526286 0 0 -1 I I #
face $-1 $700 $668 $19 $-1 $701 reversed single #
loop $-1 $-1 $702 $580 #
plane-surface $-1 0 -25.517351177220512 2.3546423908526286 0 0 1 1 0 0 forward_v I I I I #
coedge $-1 $703 $704 $705 $706 forward $581 $-1 #
coedge $-1 $707 $583 $708 $709 reversed $501 $-1 #
coedge $-1 $583 $707 $703 $710 forward $501 $-1 #
coedge $-1 $705 $711 $583 $650 reversed $712 $-1 #
edge $-1 $713 -2.0742012205020401 $714 2.0742012205020401 $649 $715 forward 7 unknown #
coedge $-1 $584 $596 $704 $716 forward $397 $-1 #
coedge $-1 $717 $585 $584 $653 reversed $514 $-1 #
edge $-1 $718 -27.591552397722552 $588 -0.6525284302794887 $652 $600 forward 7 unknown #
vertex $-1 $592 $719 #
straight-curve $-1 -56.591082491531111 0.6525284302794887 47.645883824017716 0 0 1 I I #
straight-curve $-1 -56.591082491531111 0.6525284302794887 0.36921758489337719 0.83867056331134215 0 0.54463904215088732 I I #
point $-1 -56.591082491531111 0.6525284302794887 5.3546423908526286 #
point $-1 -48.914201646103507 0.6525284302794887 5.3546423908526286 #
straight-curve $-1 -56.591082491531111 -1.4110330972254665 0.36921758489337531 0 1 0 I I #
coedge $-1 $594 $720 $721 $722 reversed $514 $-1 #
coedge $-1 $723 $597 $594 $662 forward $668 $-1 #
edge $-1 $599 -1.5 $724 1.5 $594 $725 forward 7 unknown #
face $-1 $726 $727 $19 $-1 $728 reversed single #
plane-surface $-1 -56.591082491531111 0 0 1 0 0 0 0 -1 forward_v I I I I #
coedge $-1 $729 $705 $596 $666 reversed $712 $-1 #
edge $-1 $669 -27.591552397722552 $730 27.591552397722552 $665 $731 forward 7 unknown #
coedge $-1 $597 $723 $729 $732 reversed $668 $-1 #
loop $-1 $-1 $661 $643 #
vertex $-1 $666 $733 #
straight-curve $-1 0 -27.591552397722552 5.3546423908526286 1 0 0 I I #
point $-1 -56.591082491531111 -27.591552397722552 5.3546423908526286 #
point $-1 -56.591082491531111 -23.443149956718472 -5.3546423908526286 #
loop $-1 $-1 $676 $607 #
plane-surface $-1 0 -23.443149956718472 0 0 1 0 0 0 1 forward_v I I I I #
coedge $-1 $734 $735 $624 $686 forward $608 $-1 #
coedge $-1 $633 $689 $611 $677 forward $673 $-1 #
edge $-1 $678 -56.591082491531111 $635 56.591082491531111 $676 $736 forward 7 unknown #
vertex $-1 $690 $737 #
straight-curve $-1 56.591082491531111 -25.517351177220512 2.3546423908526286 0 -1 0 I I #
coedge $-1 $632 $616 $619 $683 forward $277 $-1 #
straight-curve $-1 -56.591082491531111 25.517351177220512 2.3546423908526286 0 1 0 I I #
coedge $-1 $619 $618 $735 $738 reversed $573 $-1 #
edge $-1 $620 -2.3546423908526286 $739 5.3546423908526286 $619 $740 forward 7 unknown #
point $-1 -56.591082491531111 23.443149956718472 2.3546423908526286 #
point $-1 -56.591082491531111 27.591552397722552 2.3546423908526286 #
edge $-1 $687 -23.443149956718472 $741 23.443149956718472 $624 $742 forward 7 unknown #
vertex $-1 $686 $743 #
straight-curve $-1 56.591082491531111 23.443149956718472 0 0 0 -1 I I #
coedge $-1 $676 $694 $626 $690 reversed $673 $-1 #
edge $-1 $678 -2.3546423908526286 $741 5.3546423908526286 $626 $744 forward 7 unknown #
straight-curve $-1 -56.591082491531111 27.591552397722552 3.8546423908526286 0 0 -1 I I #
coedge $-1 $735 $734 $632 $693 forward $608 $-1 #
edge $-1 $695 -23.443149956718472 $739 23.443149956718472 $632 $745 forward 7 unknown #
coedge $-1 $689 $633 $734 $746 reversed $673 $-1 #
vertex $-1 $693 $747 #
straight-curve $-1 -56.591082491531111 -23.443149956718472 0 0 0 -1 I I #
point $-1 -56.591082491531111 -23.443149956718472 2.3546423908526286 #
straight-curve $-1 0 -27.591552397722552 2.3546423908526286 -1 0 0 I I #
point $-1 56.591082491531111 -27.591552397722552 2.3546423908526286 #
face $-1 $748 $749 $19 $-1 $750 reversed single #
plane-surface $-1 0 -27.591552397722552 3.8546423908526286 0 1 0 0 0 1 forward_v I I I I #
coedge $-1 $751 $752 $753 $754 forward $644 $-1 #
coedge $-1 $755 $646 $648 $710 reversed $581 $-1 #
coedge $-1 $646 $755 $651 $716 reversed $581 $-1 #
coedge $-1 $665 $649 $646 $706 reversed $712 $-1 #
edge $-1 $730 -1.5 $713 1.5 $705 $756 forward 7 unknown #
coedge $-1 $648 $647 $757 $758 forward $501 $-1 #
coedge $-1 $759 $760 $647 $709 forward $727 $-1 #
edge $-1 $761 -56.591082491531111 $714 56.591082491531111 $708 $762 forward 7 unknown #
edge $-1 $763 -56.591082491531111 $713 56.591082491531111 $703 $764 forward 7 unknown #
coedge $-1 $649 $765 $759 $766 reversed $712 $-1 #
loop $-1 $-1 $767 $726 #
vertex $-1 $650 $768 #
vertex $-1 $766 $769 #
straight-curve $-1 56.591082491531111 25.517351177220512 2.3546423908526286 0 -1 0 I I #
edge $-1 $730 -56.591082491531111 $718 56.591082491531111 $704 $770 forward 7 unknown #
coedge $-1 $757 $652 $755 $771 forward $514 $-1 #
vertex $-1 $716 $772 #
point $-1 -56.591082491531111 0.6525284302794887 0.36921758489337719 #
coedge $-1 $660 $773 $774 $775 reversed $514 $-1 #
coedge $-1 $752 $751 $660 $722 forward $644 $-1 #
edge $-1 $724 -2.0742012205020401 $776 2.0742012205020401 $660 $777 forward 7 unknown #
coedge $-1 $667 $661 $751 $778 reversed $668 $-1 #
vertex $-1 $722 $779 #
straight-curve $-1 -56.591082491531111 -27.591552397722552 3.8546423908526286 0 0 -1 I I #
face $-1 $-1 $712 $19 $-1 $780 reversed single #
loop $-1 $-1 $708 $663 #
plane-surface $-1 0 23.443149956718472 0 0 -1 0 0 0 -1 forward_v I I I I #
coedge $-1 $753 $665 $667 $732 forward $712 $-1 #
vertex $-1 $666 $781 #
straight-curve $-1 56.591082491531111 0 5.3546423908526286 0 1 0 I I #
edge $-1 $669 -1.5 $782 1.5 $729 $783 forward 7 unknown #
point $-1 56.591082491531111 -27.591552397722552 5.3546423908526286 #
coedge $-1 $692 $675 $694 $746 forward $608 $-1 #
coedge $-1 $675 $692 $682 $738 forward $608 $-1 #
straight-curve $-1 0 -23.443149956718472 2.3546423908526286 -1 0 0 I I #
point $-1 56.591082491531111 -23.443149956718472 2.3546423908526286 #
edge $-1 $739 -56.591082491531111 $687 56.591082491531111 $682 $784 forward 7 unknown #
vertex $-1 $738 $785 #
straight-curve $-1 -56.591082491531111 23.443149956718472 0 0 0 -1 I I #
vertex $-1 $690 $786 #
straight-curve $-1 56.591082491531111 0 -5.3546423908526286 0 -1 0 I I #
point $-1 56.591082491531111 23.443149956718472 -5.3546423908526286 #
straight-curve $-1 56.591082491531111 -23.443149956718472 0 0 0 -1 I I #
straight-curve $-1 -56.591082491531111 0 -5.3546423908526286 0 1 0 I I #
edge $-1 $741 -56.591082491531111 $695 56.591082491531111 $694 $787 forward 7 unknown #
point $-1 -56.591082491531111 -23.443149956718472 -5.3546423908526286 #
face $-1 $595 $788 $19 $-1 $789 reversed single #
loop $-1 $-1 $790 $700 #
plane-surface $-1 0 0 -5.3546423908526286 0 0 1 1 0 0 forward_v I I I I #
coedge $-1 $721 $702 $723 $778 forward $644 $-1 #
coedge $-1 $702 $721 $791 $792 reversed $644 $-1 #
coedge $-1 $767 $729 $702 $754 reversed $712 $-1 #
edge $-1 $793 -2.0742012205020401 $782 2.0742012205020401 $753 $794 forward 7 unknown #
coedge $-1 $704 $703 $717 $771 reversed $581 $-1 #
straight-curve $-1 56.591082491531111 27.591552397722552 3.8546423908526286 0 0 -1 I I #
coedge $-1 $795 $717 $707 $758 reversed $514 $-1 #
edge $-1 $761 -2.0742012205020401 $763 2.0742012205020401 $757 $796 forward 7 unknown #
coedge $-1 $797 $708 $711 $766 forward $727 $-1 #
coedge $-1 $708 $797 $795 $798 reversed $727 $-1 #
vertex $-1 $798 $799 #
straight-curve $-1 0 23.443149956718472 2.3546423908526286 1 0 0 I I #
vertex $-1 $710 $800 #
straight-curve $-1 0 27.591552397722552 2.3546423908526286 1 0 0 I I #
coedge $-1 $711 $767 $790 $801 reversed $712 $-1 #
edge $-1 $714 -2.3546423908526286 $802 5.3546423908526286 $711 $803 forward 7 unknown #
coedge $-1 $765 $753 $804 $805 forward $712 $-1 #
point $-1 56.591082491531111 27.591552397722552 2.3546423908526286 #
point $-1 56.591082491531111 23.443149956718472 2.3546423908526286 #
straight-curve $-1 0 27.591552397722552 5.3546423908526286 -1 0 0 I I #
edge $-1 $718 -1.5 $763 1.5 $755 $806 forward 7 unknown #
point $-1 -56.591082491531111 27.591552397722552 5.3546423908526286 #
coedge $-1 $720 $795 $807 $808 reversed $514 $-1 #
coedge $-1 $809 $791 $720 $775 forward $788 $-1 #
edge $-1 $776 -2.3546423908526286 $810 5.3546423908526286 $720 $811 forward 7 unknown #
vertex $-1 $775 $812 #
straight-curve $-1 -56.591082491531111 -25.517351177220512 2.3546423908526286 0 1 0 I I #
edge $-1 $782 -56.591082491531111 $724 56.591082491531111 $723 $813 forward 7 unknown #
point $-1 -56.591082491531111 -27.591552397722552 2.3546423908526286 #
plane-surface $-1 56.591082491531111 0 0 -1 0 0 0 0 1 forward_v I I I I #
point $-1 56.591082491531111 27.591552397722552 5.3546423908526286 #
vertex $-1 $732 $814 #
straight-curve $-1 56.591082491531111 -27.591552397722552 3.8546423908526286 0 0 -1 I I #
straight-curve $-1 0 23.443149956718472 -5.3546423908526286 1 0 0 I I #
point $-1 -56.591082491531111 23.443149956718472 -5.3546423908526286 #
point $-1 56.591082491531111 -23.443149956718472 -5.3546423908526286 #
straight-curve $-1 0 -23.443149956718472 -5.3546423908526286 -1 0 0 I I #
loop $-1 $-1 $791 $748 #
plane-surface $-1 0 -23.443149956718472 0 0 1 0 0 0 1 forward_v I I I I #
coedge $-1 $815 $816 $765 $801 forward $749 $-1 #
coedge $-1 $774 $804 $752 $792 forward $788 $-1 #
edge $-1 $793 -56.591082491531111 $776 56.591082491531111 $791 $817 forward 7 unknown #
vertex $-1 $805 $818 #
straight-curve $-1 56.591082491531111 -25.517351177220512 2.3546423908526286 0 -1 0 I I #
coedge $-1 $773 $757 $760 $798 forward $514 $-1 #
straight-curve $-1 -56.591082491531111 25.517351177220512 2.3546423908526286 0 1 0 I I #
coedge $-1 $760 $759 $816 $819 reversed $727 $-1 #
edge $-1 $761 -2.3546423908526286 $820 5.3546423908526286 $760 $821 forward 7 unknown #
point $-1 -56.591082491531111 23.443149956718472 2.3546423908526286 #
point $-1 -56.591082491531111 27.591552397722552 2.3546423908526286 #
edge $-1 $802 -23.443149956718472 $822 23.443149956718472 $765 $823 forward 7 unknown #
vertex $-1 $801 $824 #
straight-curve $-1 56.591082491531111 23.443149956718472 0 0 0 -1 I I #
coedge $-1 $791 $809 $767 $805 reversed $788 $-1 #
edge $-1 $793 -2.3546423908526286 $822 5.3546423908526286 $767 $825 forward 7 unknown #
straight-curve $-1 -56.591082491531111 27.591552397722552 3.8546423908526286 0 0 -1 I I #
coedge $-1 $816 $815 $773 $808 forward $749 $-1 #
edge $-1 $810 -23.443149956718472 $820 23.443149956718472 $773 $826 forward 7 unknown #
coedge $-1 $804 $774 $815 $827 reversed $788 $-1 #
vertex $-1 $808 $828 #
straight-curve $-1 -56.591082491531111 -23.443149956718472 0 0 0 -1 I I #
point $-1 -56.591082491531111 -23.443149956718472 2.3546423908526286 #
straight-curve $-1 0 -27.591552397722552 2.3546423908526286 -1 0 0 I I #
point $-1 56.591082491531111 -27.591552397722552 2.3546423908526286 #
coedge $-1 $807 $790 $809 $827 forward $749 $-1 #
coedge $-1 $790 $807 $797 $819 forward $749 $-1 #
straight-curve $-1 0 -23.443149956718472 2.3546423908526286 -1 0 0 I I #
point $-1 56.591082491531111 -23.443149956718472 2.3546423908526286 #
edge $-1 $820 -56.591082491531111 $802 56.591082491531111 $797 $829 forward 7 unknown #
vertex $-1 $819 $830 #
straight-curve $-1 -56.591082491531111 23.443149956718472 0 0 0 -1 I I #
vertex $-1 $805 $831 #
straight-curve $-1 56.591082491531111 0 -5.3546423908526286 0 -1 0 I I #
point $-1 56.591082491531111 23.443149956718472 -5.3546423908526286 #
straight-curve $-1 56.591082491531111 -23.443149956718472 0 0 0 -1 I I #
straight-curve $-1 -56.591082491531111 0 -5.3546423908526286 0 1 0 I I #
edge $-1 $822 -56.591082491531111 $810 56.591082491531111 $809 $832 forward 7 unknown #
point $-1 -56.591082491531111 -23.443149956718472 -5.3546423908526286 #
straight-curve $-1 0 23.443149956718472 -5.3546423908526286 1 0 0 I I #
point $-1 -56.591082491531111 23.443149956718472 -5.3546423908526286 #
point $-1 56.591082491531111 -23.443149956718472 -5.3546423908526286 #
straight-curve $-1 0 -23.443149956718472 -5.3546423908526286 -1 0 0 I I #
End-of-ACIS-data 