500 0 9 0           
7 Unknown 11 ACIS 5.0 NT 24 Fri Mar 26 14:45:22 1999 
-1 9.9999999999999995e-007 1e-010 
body $-1 $9 $-1 $10 #
body $-1 $11 $-1 $12 #
body $-1 $13 $-1 $14 #
body $-1 $15 $-1 $16 #
body $-1 $17 $-1 $18 #
body $-1 $19 $-1 $20 #
body $-1 $21 $-1 $22 #
body $-1 $23 $-1 $24 #
body $-1 $25 $-1 $26 #
lump $-1 $-1 $27 $0 #
transform $-1 1 0 0 0 1 0 0 0 1 71.23264259773552 36.681104414330598 14.680277934160852 1 rotate no_reflect no_shear #
lump $-1 $-1 $28 $1 #
transform $-1 1 0 0 0 1 0 0 0 1 71.23264259773552 36.681104414330598 14.680277934160852 1 rotate no_reflect no_shear #
lump $-1 $-1 $29 $2 #
transform $-1 1 0 0 0 1 0 0 0 1 71.23264259773552 36.681104414330598 14.680277934160852 1 rotate no_reflect no_shear #
lump $-1 $-1 $30 $3 #
transform $-1 1 0 0 0 1 0 0 0 1 71.23264259773552 36.681104414330598 14.680277934160852 1 rotate no_reflect no_shear #
lump $-1 $-1 $31 $4 #
transform $-1 1 0 0 0 1 0 0 0 1 71.23264259773552 36.681104414330598 14.680277934160852 1 rotate no_reflect no_shear #
lump $-1 $-1 $32 $5 #
transform $-1 1 0 0 0 1 0 0 0 1 71.23264259773552 36.681104414330598 14.680277934160852 1 rotate no_reflect no_shear #
lump $-1 $-1 $33 $6 #
transform $-1 1 0 0 0 1 0 0 0 1 71.23264259773552 36.681104414330598 14.680277934160852 1 rotate no_reflect no_shear #
lump $-1 $-1 $34 $7 #
transform $-1 1 0 0 0 1 0 0 0 1 71.23264259773552 36.681104414330598 14.680277934160852 1 rotate no_reflect no_shear #
lump $-1 $-1 $35 $8 #
transform $-1 1 0 0 0 1 0 0 0 1 71.23264259773552 36.681104414330598 14.680277934160852 1 rotate no_reflect no_shear #
shell $-1 $-1 $-1 $36 $-1 $9 #
shell $-1 $-1 $-1 $37 $-1 $11 #
shell $-1 $-1 $-1 $38 $-1 $13 #
shell $-1 $-1 $-1 $39 $-1 $15 #
shell $-1 $-1 $-1 $40 $-1 $17 #
shell $-1 $-1 $-1 $41 $-1 $19 #
shell $-1 $-1 $-1 $42 $-1 $21 #
shell $-1 $-1 $-1 $43 $-1 $23 #
shell $-1 $-1 $-1 $44 $-1 $25 #
face $-1 $45 $46 $27 $-1 $47 reversed single #
face $-1 $48 $49 $28 $-1 $50 forward single #
face $-1 $51 $52 $29 $-1 $53 reversed single #
face $-1 $54 $55 $30 $-1 $56 reversed single #
face $-1 $57 $58 $31 $-1 $59 forward single #
face $-1 $60 $61 $32 $-1 $62 forward single #
face $-1 $63 $64 $33 $-1 $65 reversed single #
face $-1 $66 $67 $34 $-1 $68 forward single #
face $-1 $69 $70 $35 $-1 $71 forward single #
face $-1 $72 $73 $27 $-1 $74 forward single #
loop $-1 $-1 $75 $36 #
plane-surface $-1 -71.23264259773552 0 0 1 0 0 0 0 -1 forward_v I I I I #
face $-1 $76 $77 $28 $-1 $78 reversed single #
loop $-1 $-1 $79 $37 #
plane-surface $-1 -71.23264259773552 0 0 1 0 0 0 0 -1 forward_v I I I I #
face $-1 $80 $81 $29 $-1 $82 reversed single #
loop $-1 $-1 $83 $38 #
plane-surface $-1 64.761689702280449 0 7.4602531830339309 0 0 1 1 0 0 forward_v I I I I #
face $-1 $84 $85 $30 $-1 $86 reversed single #
loop $-1 $-1 $87 $39 #
plane-surface $-1 39.246713054149069 -153.38183518120309 91.602702490474911 -1 0 0 0 -0.81915205242281985 0.57357642473473569 forward_v I I I I #
face $-1 $88 $89 $31 $-1 $90 forward single #
loop $-1 $91 $92 $40 #
cone-surface $-1 29.427207127451979 -34.291858070836582 11.785968311375917 0 0.81915205242281985 -0.57357642473473569 1 0 0 1 I I 0 1 1 forward I I I I #
face $-1 $93 $94 $32 $-1 $95 forward single #
loop $-1 $96 $97 $41 #
cone-surface $-1 35.318910683470236 -34.291858070836582 11.785968311375917 0 0.81915205242281985 -0.57357642473473569 1 0 0 1 I I 0 1 1 forward I I I I #
face $-1 $98 $99 $33 $-1 $100 reversed single #
loop $-1 $-1 $101 $42 #
plane-surface $-1 -29.753987934116239 123.37855822151508 141.19074057804178 1 0 0 0 -0.86602541151947299 -0.49999998660252726 forward_v I I I I #
face $-1 $102 $103 $34 $-1 $104 forward single #
loop $-1 $105 $106 $43 #
cone-surface $-1 -21.252428025290946 33.835733255941818 10.285597044962396 0 -0.86602541151947299 -0.49999998660252726 1 0 0 1 I I 0 1 1 forward I I I I #
face $-1 $107 $108 $35 $-1 $109 forward single #
loop $-1 $110 $111 $44 #
cone-surface $-1 -8.5000881620530038 33.835733255941818 10.285597044962396 0 -0.86602541151947299 -0.49999998660252726 1 0 0 1 I I 0 1 1 forward I I I I #
face $-1 $112 $113 $27 $-1 $114 reversed single #
loop $-1 $-1 $115 $45 #
plane-surface $-1 0 0 14.680277934160852 0 0 1 1 0 0 forward_v I I I I #
coedge $-1 $116 $117 $118 $119 reversed $46 $-1 #
face $-1 $120 $121 $28 $-1 $122 reversed single #
loop $-1 $-1 $123 $48 #
plane-surface $-1 0 0 -14.680277934160852 0 0 1 1 0 0 forward_v I I I I #
coedge $-1 $124 $125 $126 $127 forward $49 $-1 #
face $-1 $128 $129 $29 $-1 $130 reversed single #
loop $-1 $-1 $131 $51 #
plane-surface $-1 58.290736806825379 0 11.070265558597391 1 0 0 0 0 -1 forward_v I I I I #
coedge $-1 $132 $133 $134 $135 reversed $52 $-1 #
face $-1 $136 $137 $30 $-1 $138 reversed single #
loop $-1 $-1 $139 $54 #
plane-surface $-1 32.373058905461107 -36.681104414330619 9.8879735592421554 0 -0.81915205242281985 0.57357642473473569 1 0 0 forward_v I I I I #
coedge $-1 $140 $141 $142 $143 reversed $55 $-1 #
face $-1 $-1 $144 $31 $-1 $145 forward single #
loop $-1 $146 $147 $57 #
cone-surface $-1 29.427207127451979 -33.170839474848421 11.001022663682964 0 0.81915205242281985 -0.57357642473473569 0.5 0 0 1 I I -0.70710678118654746 0.70710678118654746 0.5 forward I I I I #
loop $-1 $-1 $148 $40 #
coedge $-1 $92 $92 $149 $150 reversed $58 $-1 #
face $-1 $-1 $151 $32 $-1 $152 forward single #
loop $-1 $153 $154 $60 #
cone-surface $-1 35.318910683470236 -33.170839474848421 11.001022663682964 0 0.81915205242281985 -0.57357642473473569 0.5 0 0 1 I I -0.70710678118654746 0.70710678118654746 0.5 forward I I I I #
loop $-1 $-1 $155 $41 #
coedge $-1 $97 $97 $156 $157 reversed $61 $-1 #
face $-1 $158 $159 $33 $-1 $160 reversed single #
loop $-1 $-1 $161 $63 #
plane-surface $-1 -14.876258093671979 9.8286818683845922e-007 69.958099888981039 0 0.86602541151947299 0.49999998660252726 1 0 0 forward_v I I I I #
coedge $-1 $162 $163 $164 $165 reversed $64 $-1 #
face $-1 $-1 $166 $34 $-1 $167 forward single #
loop $-1 $168 $169 $66 #
cone-surface $-1 -21.252428025290946 32.94056898470982 9.768773730462005 0 -0.86602541151947299 -0.49999998660252726 0.5 0 0 1 I I -0.70710678118654746 0.70710678118654746 0.5 forward I I I I #
loop $-1 $-1 $170 $43 #
coedge $-1 $106 $106 $171 $172 reversed $67 $-1 #
face $-1 $-1 $173 $35 $-1 $174 forward single #
loop $-1 $175 $176 $69 #
cone-surface $-1 -8.5000881620530038 32.94056898470982 9.768773730462005 0 -0.86602541151947299 -0.49999998660252726 0.5 0 0 1 I I -0.70710678118654746 0.70710678118654746 0.5 forward I I I I #
loop $-1 $-1 $177 $44 #
coedge $-1 $111 $111 $178 $179 reversed $70 $-1 #
face $-1 $180 $181 $27 $-1 $182 reversed single #
loop $-1 $-1 $183 $72 #
plane-surface $-1 0 0 -14.680277934160852 0 0 1 1 0 0 forward_v I I I I #
coedge $-1 $184 $185 $186 $187 forward $73 $-1 #
coedge $-1 $188 $75 $189 $190 reversed $46 $-1 #
coedge $-1 $75 $188 $191 $192 forward $46 $-1 #
coedge $-1 $193 $194 $75 $119 forward $113 $-1 #
edge $-1 $195 -36.681104414330598 $196 36.681104414330598 $75 $197 forward 7 unknown #
face $-1 $198 $199 $28 $-1 $200 reversed single #
loop $-1 $-1 $201 $76 #
plane-surface $-1 -76.395743882123242 -13.182176046964123 0 0 1 0 0 0 1 forward_v I I I I #
coedge $-1 $202 $203 $125 $204 forward $77 $-1 #
coedge $-1 $205 $79 $206 $207 reversed $49 $-1 #
coedge $-1 $79 $205 $123 $204 reversed $49 $-1 #
coedge $-1 $208 $209 $79 $127 reversed $210 $-1 #
edge $-1 $211 -14.680277934160852 $212 14.680277934160852 $126 $213 forward 7 unknown #
face $-1 $214 $215 $29 $-1 $216 forward single #
loop $-1 $-1 $217 $80 #
plane-surface $-1 0 36.681104414330598 0 0 -1 0 0 0 -1 forward_v I I I I #
coedge $-1 $218 $219 $220 $221 reversed $81 $-1 #
coedge $-1 $222 $83 $223 $224 reversed $52 $-1 #
coedge $-1 $83 $222 $217 $225 reversed $52 $-1 #
coedge $-1 $226 $227 $83 $135 forward $228 $-1 #
edge $-1 $229 -36.681104414330598 $230 36.681104414330598 $134 $231 forward 7 unknown #
face $-1 $232 $233 $30 $-1 $234 reversed single #
loop $-1 $-1 $235 $84 #
plane-surface $-1 25.499404756773146 -153.38183518120309 91.602702490474911 1 0 0 0 0.81915205242281985 -0.57357642473473569 forward_v I I I I #
coedge $-1 $236 $237 $238 $239 reversed $85 $-1 #
coedge $-1 $141 $87 $240 $241 reversed $55 $-1 #
coedge $-1 $87 $140 $236 $242 reversed $55 $-1 #
coedge $-1 $238 $243 $87 $143 forward $244 $-1 #
edge $-1 $245 40.009813176270946 $246 43.365420723705455 $142 $247 forward 7 unknown #
loop $-1 $-1 $149 $88 #
plane-surface $-1 32.373058905461107 -36.681104414330619 9.8879735592421554 0 -0.81915205242281985 0.57357642473473569 1 0 0 forward_v I I I I #
loop $-1 $-1 $248 $57 #
coedge $-1 $147 $147 $148 $249 reversed $89 $-1 #
coedge $-1 $148 $148 $147 $249 forward $91 $-1 #
coedge $-1 $149 $149 $92 $150 forward $144 $-1 #
edge $-1 $250 -5.7962686500984556e-016 $250 6.2831853071795996 $149 $251 forward 7 unknown #
loop $-1 $-1 $156 $93 #
plane-surface $-1 32.373058905461107 -36.681104414330619 9.8879735592421554 0 -0.81915205242281985 0.57357642473473569 1 0 0 forward_v I I I I #
loop $-1 $-1 $252 $60 #
coedge $-1 $154 $154 $155 $253 reversed $94 $-1 #
coedge $-1 $155 $155 $154 $253 forward $96 $-1 #
coedge $-1 $156 $156 $97 $157 forward $151 $-1 #
edge $-1 $254 -5.7962686500984556e-016 $254 6.2831853071795996 $156 $255 forward 7 unknown #
face $-1 $256 $257 $33 $-1 $258 forward single #
loop $-1 $-1 $259 $98 #
plane-surface $-1 0.0014717467722817901 123.37855822151508 141.19074057804178 -1 0 0 0 0.86602541151947299 0.49999998660252726 forward_v I I I I #
coedge $-1 $260 $261 $262 $263 reversed $99 $-1 #
coedge $-1 $163 $101 $264 $265 reversed $64 $-1 #
coedge $-1 $101 $162 $260 $266 reversed $64 $-1 #
coedge $-1 $262 $267 $101 $165 forward $257 $-1 #
edge $-1 $268 25.008174696426941 $269 29.774613882259992 $164 $270 forward 7 unknown #
loop $-1 $-1 $171 $102 #
plane-surface $-1 -14.876258093671979 9.8286818683845922e-007 69.958099888981039 0 0.86602541151947299 0.49999998660252726 1 0 0 forward_v I I I I #
loop $-1 $-1 $271 $66 #
coedge $-1 $169 $169 $170 $272 reversed $103 $-1 #
coedge $-1 $170 $170 $169 $272 forward $105 $-1 #
coedge $-1 $171 $171 $106 $172 forward $166 $-1 #
edge $-1 $273 -2.0143434207586993e-015 $273 6.2831853071795987 $171 $274 forward 7 unknown #
loop $-1 $-1 $178 $107 #
plane-surface $-1 -14.876258093671979 9.8286818683845922e-007 69.958099888981039 0 0.86602541151947299 0.49999998660252726 1 0 0 forward_v I I I I #
loop $-1 $-1 $275 $69 #
coedge $-1 $176 $176 $177 $276 reversed $108 $-1 #
coedge $-1 $177 $177 $176 $276 forward $110 $-1 #
coedge $-1 $178 $178 $111 $179 forward $173 $-1 #
edge $-1 $277 -2.0143434207586993e-015 $277 6.2831853071795987 $178 $278 forward 7 unknown #
face $-1 $279 $280 $27 $-1 $281 reversed single #
loop $-1 $-1 $189 $112 #
plane-surface $-1 0 -36.681104414330598 0 0 1 0 0 0 1 forward_v I I I I #
coedge $-1 $194 $193 $282 $283 forward $113 $-1 #
coedge $-1 $284 $115 $285 $286 forward $73 $-1 #
coedge $-1 $115 $284 $287 $288 forward $73 $-1 #
coedge $-1 $289 $290 $115 $187 reversed $291 $-1 #
edge $-1 $292 -36.681104414330598 $293 36.681104414330598 $186 $294 forward 7 unknown #
coedge $-1 $117 $116 $284 $295 reversed $46 $-1 #
coedge $-1 $296 $287 $116 $190 forward $181 $-1 #
edge $-1 $297 -14.680277934160852 $195 14.680277934160852 $116 $298 forward 7 unknown #
coedge $-1 $285 $299 $117 $192 reversed $280 $-1 #
edge $-1 $300 -14.680277934160852 $196 14.680277934160852 $191 $301 forward 7 unknown #
coedge $-1 $183 $118 $299 $302 forward $113 $-1 #
coedge $-1 $118 $183 $296 $303 forward $113 $-1 #
vertex $-1 $119 $304 #
vertex $-1 $302 $305 #
straight-curve $-1 -71.23264259773552 0 -14.680277934160852 0 1 0 I I #
face $-1 $306 $210 $28 $-1 $307 reversed single #
loop $-1 $-1 $308 $120 #
plane-surface $-1 -81.558845166510963 -10.251362296486509 0 1 0 0 0 0 -1 forward_v I I I I #
coedge $-1 $309 $310 $311 $312 forward $121 $-1 #
coedge $-1 $313 $123 $309 $314 forward $77 $-1 #
coedge $-1 $123 $313 $208 $315 forward $77 $-1 #
edge $-1 $211 7.3205485460088937 $316 13.182176046964123 $123 $317 forward 7 unknown #
coedge $-1 $125 $124 $318 $319 forward $49 $-1 #
coedge $-1 $320 $321 $124 $207 forward $322 $-1 #
edge $-1 $323 -13.182176046964123 $212 -7.3205485460088937 $206 $324 forward 7 unknown #
coedge $-1 $325 $126 $203 $315 reversed $210 $-1 #
coedge $-1 $126 $325 $320 $326 reversed $210 $-1 #
loop $-1 $-1 $126 $198 #
vertex $-1 $204 $327 #
vertex $-1 $326 $328 #
straight-curve $-1 -71.23264259773552 -7.3205485460088937 0 0 0 1 I I #
face $-1 $329 $330 $29 $-1 $331 reversed single #
loop $-1 $-1 $332 $128 #
plane-surface $-1 0 0 14.680277934160852 0 0 1 1 0 0 forward_v I I I I #
coedge $-1 $220 $333 $133 $225 forward $129 $-1 #
coedge $-1 $334 $131 $222 $335 reversed $81 $-1 #
coedge $-1 $131 $334 $332 $336 reversed $81 $-1 #
coedge $-1 $337 $217 $131 $221 forward $129 $-1 #
edge $-1 $338 1.9251204037352352 $339 9.1451451548621563 $220 $340 forward 7 unknown #
coedge $-1 $133 $132 $218 $335 forward $52 $-1 #
coedge $-1 $341 $342 $132 $224 forward $330 $-1 #
edge $-1 $343 25.909891955685154 $229 38.851797746595295 $223 $344 forward 7 unknown #
edge $-1 $230 -38.851797746595295 $338 -25.909891955685154 $217 $345 forward 7 unknown #
coedge $-1 $346 $134 $333 $347 reversed $228 $-1 #
coedge $-1 $134 $346 $341 $348 forward $228 $-1 #
loop $-1 $-1 $134 $329 #
vertex $-1 $224 $349 #
vertex $-1 $225 $350 #
straight-curve $-1 71.23264259773552 0 7.4602531830339309 0 1 0 I I #
face $-1 $-1 $244 $30 $-1 $351 forward single #
loop $-1 $-1 $352 $136 #
plane-surface $-1 0 -36.681104414330598 0 0 1 0 0 0 1 forward_v I I I I #
coedge $-1 $353 $354 $355 $356 reversed $137 $-1 #
coedge $-1 $357 $139 $141 $242 forward $85 $-1 #
coedge $-1 $139 $357 $353 $358 forward $85 $-1 #
coedge $-1 $355 $142 $139 $239 forward $244 $-1 #
edge $-1 $246 -23.060183601418515 $359 -9.312875304042592 $238 $360 forward 7 unknown #
coedge $-1 $361 $362 $140 $241 forward $233 $-1 #
edge $-1 $363 -35.913377685995272 $245 -31.121073311076604 $240 $364 forward 7 unknown #
edge $-1 $246 -5.8503233444199019 $363 -3.6963324824065977e-014 $141 $365 forward 7 unknown #
coedge $-1 $142 $355 $361 $366 forward $244 $-1 #
loop $-1 $-1 $355 $232 #
vertex $-1 $241 $367 #
vertex $-1 $143 $368 #
straight-curve $-1 39.246713054149069 -76.690917590601543 14.680277934160848 0 1 0 I I #
coedge $-1 $248 $248 $-1 $369 reversed $146 $-1 #
edge $-1 $370 0 $370 6.2831853071796004 $147 $371 forward 7 unknown #
vertex $-1 $150 $372 #
ellipse-curve $-1 29.427207127451979 -35.003300640613347 12.284125746701514 0 -0.81915205242281985 0.57357642473473569 1 0 0 1 I I #
coedge $-1 $252 $252 $-1 $373 reversed $153 $-1 #
edge $-1 $374 0 $374 6.2831853071796004 $154 $375 forward 7 unknown #
vertex $-1 $157 $376 #
ellipse-curve $-1 35.318910683470236 -35.003300640613347 12.284125746701514 0 -0.81915205242281985 0.57357642473473569 1 0 0 1 I I #
face $-1 $-1 $377 $33 $-1 $378 reversed single #
loop $-1 $-1 $164 $158 #
plane-surface $-1 0 0 14.680277934160852 0 0 1 1 0 0 forward_v I I I I #
coedge $-1 $379 $380 $381 $382 reversed $159 $-1 #
coedge $-1 $383 $161 $163 $266 forward $99 $-1 #
coedge $-1 $161 $383 $379 $384 forward $99 $-1 #
coedge $-1 $381 $164 $161 $263 forward $257 $-1 #
edge $-1 $269 -22.31585888728025 $385 7.4396007936082711 $262 $386 forward 7 unknown #
coedge $-1 $387 $388 $162 $265 forward $377 $-1 #
edge $-1 $389 -64.170807490858692 $268 -55.915092354860036 $264 $390 forward 7 unknown #
edge $-1 $269 63.829330201562144 $389 73.36220882866121 $163 $391 forward 7 unknown #
coedge $-1 $164 $381 $387 $392 forward $257 $-1 #
vertex $-1 $165 $393 #
vertex $-1 $165 $394 #
straight-curve $-1 -29.753987934116239 61.689279110757539 14.680277934160856 0 -1 0 I I #
coedge $-1 $271 $271 $-1 $395 reversed $168 $-1 #
edge $-1 $396 0 $396 6.2831853071796004 $169 $397 forward 7 unknown #
vertex $-1 $172 $398 #
ellipse-curve $-1 -21.252428025290946 34.29788482141408 10.552420366161524 0 0.86602541151947299 0.49999998660252726 1 0 0 1 I I #
coedge $-1 $275 $275 $-1 $399 reversed $175 $-1 #
edge $-1 $400 0 $400 6.2831853071796004 $176 $401 forward 7 unknown #
vertex $-1 $179 $402 #
ellipse-curve $-1 -8.5000881620530038 34.29788482141408 10.552420366161524 0 0.86602541151947299 0.49999998660252726 1 0 0 1 I I #
face $-1 $-1 $291 $27 $-1 $403 reversed single #
loop $-1 $-1 $404 $180 #
plane-surface $-1 0 36.681104414330598 0 0 -1 0 0 0 -1 forward_v I I I I #
coedge $-1 $290 $289 $183 $283 reversed $291 $-1 #
edge $-1 $405 -36.681104414330598 $406 36.681104414330598 $282 $407 forward 7 unknown #
coedge $-1 $185 $184 $188 $295 forward $73 $-1 #
coedge $-1 $404 $191 $184 $286 reversed $280 $-1 #
edge $-1 $293 -71.23264259773552 $300 71.23264259773552 $285 $408 forward 7 unknown #
coedge $-1 $189 $409 $185 $288 reversed $181 $-1 #
edge $-1 $297 -71.23264259773552 $292 71.23264259773552 $287 $410 forward 7 unknown #
coedge $-1 $282 $186 $409 $411 forward $291 $-1 #
coedge $-1 $186 $282 $404 $412 reversed $291 $-1 #
loop $-1 $-1 $289 $279 #
vertex $-1 $187 $413 #
vertex $-1 $187 $414 #
straight-curve $-1 71.23264259773552 0 14.680277934160852 0 1 0 I I #
edge $-1 $300 -36.681104414330598 $297 36.681104414330598 $188 $415 forward 7 unknown #
coedge $-1 $409 $189 $194 $303 reversed $181 $-1 #
vertex $-1 $295 $416 #
straight-curve $-1 -71.23264259773552 -36.681104414330598 0 0 0 -1 I I #
coedge $-1 $191 $404 $193 $302 reversed $280 $-1 #
vertex $-1 $286 $417 #
straight-curve $-1 -71.23264259773552 36.681104414330598 0 0 0 -1 I I #
edge $-1 $196 -71.23264259773552 $405 71.23264259773552 $299 $418 forward 7 unknown #
edge $-1 $406 -71.23264259773552 $195 71.23264259773552 $296 $419 forward 7 unknown #
point $-1 -71.23264259773552 -36.681104414330598 -14.680277934160852 #
point $-1 -71.23264259773552 36.681104414330598 -14.680277934160852 #
face $-1 $-1 $322 $28 $-1 $420 forward single #
plane-surface $-1 -76.395743882123242 -7.3205485460088937 0 0 -1 0 0 0 -1 forward_v I I I I #
coedge $-1 $421 $422 $325 $423 forward $199 $-1 #
coedge $-1 $318 $201 $202 $314 reversed $121 $-1 #
coedge $-1 $201 $318 $321 $424 reversed $121 $-1 #
coedge $-1 $422 $421 $201 $312 reversed $199 $-1 #
edge $-1 $425 -14.680277934160852 $426 14.680277934160852 $311 $427 forward 7 unknown #
coedge $-1 $203 $202 $421 $428 forward $77 $-1 #
edge $-1 $316 -5.1631012843877215 $426 5.1631012843877215 $309 $429 forward 7 unknown #
edge $-1 $430 -5.1631012843877215 $211 5.1631012843877215 $208 $431 forward 7 unknown #
vertex $-1 $314 $432 #
straight-curve $-1 -71.23264259773552 0 -14.680277934160852 0 -1 0 I I #
coedge $-1 $310 $309 $205 $319 reversed $121 $-1 #
edge $-1 $323 -14.680277934160852 $316 14.680277934160852 $318 $433 forward 7 unknown #
coedge $-1 $434 $206 $209 $326 forward $322 $-1 #
coedge $-1 $206 $434 $310 $424 forward $322 $-1 #
loop $-1 $-1 $206 $306 #
vertex $-1 $207 $435 #
straight-curve $-1 -71.23264259773552 0 14.680277934160852 0 1 0 I I #
coedge $-1 $209 $208 $308 $423 reversed $210 $-1 #
edge $-1 $212 -5.1631012843877215 $436 5.1631012843877215 $209 $437 forward 7 unknown #
point $-1 -71.23264259773552 -7.3205485460088937 -14.680277934160852 #
point $-1 -71.23264259773552 -7.3205485460088937 14.680277934160852 #
face $-1 $-1 $228 $29 $-1 $438 reversed single #
loop $-1 $-1 $223 $214 #
plane-surface $-1 0 -36.681104414330598 0 0 1 0 0 0 1 forward_v I I I I #
coedge $-1 $439 $440 $219 $336 forward $215 $-1 #
coedge $-1 $217 $337 $226 $347 forward $129 $-1 #
coedge $-1 $219 $218 $342 $441 reversed $81 $-1 #
edge $-1 $343 -36.681104414330598 $338 36.681104414330598 $218 $442 forward 7 unknown #
edge $-1 $339 -36.681104414330598 $443 36.681104414330598 $332 $444 forward 7 unknown #
coedge $-1 $333 $220 $440 $445 reversed $129 $-1 #
vertex $-1 $225 $446 #
vertex $-1 $336 $447 #
straight-curve $-1 58.290736806825379 36.681104414330598 5.5351327792986957 0 0 1 I I #
coedge $-1 $448 $223 $227 $348 reversed $330 $-1 #
coedge $-1 $223 $448 $334 $441 forward $330 $-1 #
vertex $-1 $224 $449 #
straight-curve $-1 32.380844851140225 -36.681104414330598 7.4602531830339309 1 0 0 I I #
straight-curve $-1 32.380844851140225 36.681104414330598 7.4602531830339309 -1 0 0 I I #
coedge $-1 $227 $226 $450 $451 reversed $228 $-1 #
edge $-1 $452 -14.680277934160852 $230 -7.4602531830339309 $226 $453 forward 7 unknown #
edge $-1 $454 -14.680277934160852 $229 -7.4602531830339309 $227 $455 forward 7 unknown #
point $-1 71.23264259773552 -36.681104414330598 7.4602531830339309 #
point $-1 71.23264259773552 36.681104414330598 7.4602531830339309 #
plane-surface $-1 0 0 14.680277934160852 0 0 1 1 0 0 forward_v I I I I #
coedge $-1 $362 $361 $354 $456 forward $233 $-1 #
coedge $-1 $354 $235 $237 $358 reversed $137 $-1 #
coedge $-1 $235 $353 $352 $456 reversed $137 $-1 #
coedge $-1 $243 $238 $235 $356 forward $244 $-1 #
edge $-1 $359 -43.365420723705455 $457 -40.009813176270946 $355 $458 forward 7 unknown #
coedge $-1 $237 $236 $362 $459 reversed $85 $-1 #
edge $-1 $460 3.6963324824065977e-014 $359 5.8503233444199019 $353 $461 forward 7 unknown #
vertex $-1 $239 $462 #
straight-curve $-1 16.186529452730554 -33.325496866896096 14.680277934160852 -1 0 0 I I #
coedge $-1 $352 $240 $243 $366 reversed $233 $-1 #
coedge $-1 $240 $352 $357 $459 forward $233 $-1 #
vertex $-1 $241 $463 #
straight-curve $-1 39.246713054149069 -36.681104414330598 45.801351245237456 0 0 1 I I #
straight-curve $-1 39.246713054149069 -36.681104414330619 9.8879735592421554 0 -0.57357642473473569 -0.81915205242281985 I I #
edge $-1 $457 25.499404756773146 $245 39.246713054149069 $361 $464 forward 7 unknown #
point $-1 39.246713054149069 -36.681104414330598 14.680277934160852 #
point $-1 39.246713054149069 -33.325496866896088 14.680277934160852 #
edge $-1 $465 1 $465 0 $248 $-1 forward 7 unknown #
vertex $-1 $249 $466 #
ellipse-curve $-1 29.427207127451979 -33.580415501059832 11.287810876050331 0 -0.81915205242281985 0.57357642473473569 1 0 0 1 I I #
point $-1 30.427207127451979 -35.003300640613332 12.284125746701504 #
edge $-1 $467 1 $467 0 $252 $-1 forward 7 unknown #
vertex $-1 $253 $468 #
ellipse-curve $-1 35.318910683470236 -33.580415501059832 11.287810876050331 0 -0.81915205242281985 0.57357642473473569 1 0 0 1 I I #
point $-1 36.318910683470236 -35.003300640613332 12.284125746701504 #
loop $-1 $-1 $264 $256 #
plane-surface $-1 0 36.681104414330598 0 0 -1 0 0 0 -1 forward_v I I I I #
coedge $-1 $380 $259 $261 $384 reversed $159 $-1 #
coedge $-1 $259 $379 $469 $470 reversed $159 $-1 #
coedge $-1 $267 $262 $259 $382 forward $257 $-1 #
edge $-1 $385 -29.774613882259992 $471 -25.008174696426941 $381 $472 forward 7 unknown #
coedge $-1 $261 $260 $388 $473 reversed $99 $-1 #
edge $-1 $474 -73.36220882866121 $385 -63.829330201562144 $379 $475 forward 7 unknown #
vertex $-1 $263 $476 #
straight-curve $-1 -7.4381290468359893 31.914665228497554 14.680277934160848 1 0 0 I I #
coedge $-1 $469 $264 $267 $392 reversed $377 $-1 #
coedge $-1 $264 $469 $383 $473 forward $377 $-1 #
vertex $-1 $265 $477 #
straight-curve $-1 -29.753987934116239 36.681104414330598 70.595370289020892 0 0 1 I I #
straight-curve $-1 -29.753987934116239 9.8286818683845922e-007 69.958099888981039 0 0.49999998660252726 -0.86602541151947299 I I #
edge $-1 $471 -0.0014717467722817901 $268 29.753987934116239 $387 $478 forward 7 unknown #
point $-1 -29.753987934116239 36.681104414330598 14.680277934160852 #
point $-1 -29.753987934116239 31.914665228497547 14.680277934160856 #
edge $-1 $479 1 $479 0 $271 $-1 forward 7 unknown #
vertex $-1 $272 $480 #
ellipse-curve $-1 -21.252428025290946 33.373581690469557 10.018773723763269 0 0.86602541151947299 0.49999998660252726 1 0 0 1 I I #
point $-1 -20.252428025290946 34.297884821414073 10.552420366161522 #
edge $-1 $481 1 $481 0 $275 $-1 forward 7 unknown #
vertex $-1 $276 $482 #
ellipse-curve $-1 -8.5000881620530038 33.373581690469557 10.018773723763269 0 0.86602541151947299 0.49999998660252726 1 0 0 1 I I #
point $-1 -7.5000881620530038 34.297884821414073 10.552420366161522 #
plane-surface $-1 71.23264259773552 0 0 -1 0 0 0 0 1 forward_v I I I I #
coedge $-1 $299 $285 $290 $412 forward $280 $-1 #
vertex $-1 $283 $483 #
vertex $-1 $411 $484 #
straight-curve $-1 71.23264259773552 0 -14.680277934160852 0 -1 0 I I #
straight-curve $-1 0 36.681104414330598 14.680277934160852 -1 0 0 I I #
coedge $-1 $287 $296 $289 $411 reversed $181 $-1 #
straight-curve $-1 0 -36.681104414330598 14.680277934160852 1 0 0 I I #
edge $-1 $292 -14.680277934160852 $406 14.680277934160852 $289 $485 forward 7 unknown #
edge $-1 $293 -14.680277934160852 $405 14.680277934160852 $290 $486 forward 7 unknown #
point $-1 71.23264259773552 -36.681104414330598 14.680277934160852 #
point $-1 71.23264259773552 36.681104414330598 14.680277934160852 #
straight-curve $-1 -71.23264259773552 0 14.680277934160852 0 -1 0 I I #
point $-1 -71.23264259773552 -36.681104414330598 14.680277934160852 #
point $-1 -71.23264259773552 36.681104414330598 14.680277934160852 #
straight-curve $-1 0 36.681104414330598 -14.680277934160852 1 0 0 I I #
straight-curve $-1 0 -36.681104414330598 -14.680277934160852 -1 0 0 I I #
plane-surface $-1 0 0 14.680277934160852 0 0 1 1 0 0 forward_v I I I I #
coedge $-1 $311 $308 $313 $428 reversed $199 $-1 #
coedge $-1 $308 $311 $434 $487 reversed $199 $-1 #
edge $-1 $436 -14.680277934160852 $430 14.680277934160852 $325 $488 forward 7 unknown #
edge $-1 $425 -5.1631012843877215 $323 5.1631012843877215 $310 $489 forward 7 unknown #
vertex $-1 $487 $490 #
vertex $-1 $428 $491 #
straight-curve $-1 -81.558845166510963 -13.182176046964123 0 0 0 -1 I I #
edge $-1 $426 -2.9308137504776148 $430 2.9308137504776148 $421 $492 forward 7 unknown #
straight-curve $-1 -76.395743882123242 -13.182176046964123 -14.680277934160852 -1 0 0 I I #
vertex $-1 $315 $493 #
straight-curve $-1 -76.395743882123242 -7.3205485460088937 -14.680277934160852 1 0 0 I I #
point $-1 -71.23264259773552 -13.182176046964123 -14.680277934160852 #
straight-curve $-1 -71.23264259773552 -13.182176046964123 0 0 0 -1 I I #
coedge $-1 $321 $320 $422 $487 forward $322 $-1 #
point $-1 -71.23264259773552 -13.182176046964123 14.680277934160852 #
vertex $-1 $326 $494 #
straight-curve $-1 -76.395743882123242 -7.3205485460088937 14.680277934160852 -1 0 0 I I #
plane-surface $-1 71.23264259773552 0 0 -1 0 0 0 0 1 forward_v I I I I #
coedge $-1 $450 $332 $448 $495 forward $215 $-1 #
coedge $-1 $332 $450 $337 $445 forward $215 $-1 #
edge $-1 $443 -9.1451451548621563 $343 -1.9251204037352352 $342 $496 forward 7 unknown #
straight-curve $-1 58.290736806825379 0 7.4602531830339309 0 1 0 I I #
vertex $-1 $495 $497 #
straight-curve $-1 58.290736806825379 0 14.680277934160852 0 -1 0 I I #
edge $-1 $452 -71.23264259773552 $339 -58.290736806825379 $337 $498 forward 7 unknown #
point $-1 58.290736806825379 36.681104414330598 7.4602531830339309 #
point $-1 58.290736806825379 36.681104414330598 14.680277934160852 #
coedge $-1 $342 $341 $439 $495 reversed $330 $-1 #
point $-1 58.290736806825379 -36.681104414330598 7.4602531830339309 #
coedge $-1 $440 $439 $346 $451 forward $215 $-1 #
edge $-1 $454 -36.681104414330598 $452 36.681104414330598 $346 $499 forward 7 unknown #
vertex $-1 $451 $500 #
straight-curve $-1 71.23264259773552 36.681104414330598 0 0 0 -1 I I #
vertex $-1 $451 $501 #
straight-curve $-1 71.23264259773552 -36.681104414330598 0 0 0 -1 I I #
edge $-1 $457 31.121073311076604 $460 35.913377685995272 $352 $502 forward 7 unknown #
vertex $-1 $366 $503 #
straight-curve $-1 25.499404756773146 -76.690917590601543 14.680277934160848 0 -1 0 I I #
edge $-1 $460 9.312875304042592 $363 23.060183601418515 $362 $504 forward 7 unknown #
vertex $-1 $459 $505 #
straight-curve $-1 25.499404756773146 -36.681104414330619 9.8879735592421554 0 0.57357642473473569 0.81915205242281985 I I #
point $-1 25.499404756773146 -33.325496866896088 14.680277934160852 #
point $-1 39.246713054149069 -36.681104414330598 9.8879735592421856 #
straight-curve $-1 0 -36.681104414330598 14.680277934160852 1 0 0 I I #
vertex $-1 $369 $506 #
point $-1 30.427207127451979 -33.580415501059832 11.287810876050331 #
vertex $-1 $373 $507 #
point $-1 36.318910683470236 -33.580415501059832 11.287810876050331 #
coedge $-1 $388 $387 $380 $470 forward $377 $-1 #
edge $-1 $471 55.915092354860036 $474 64.170807490858692 $469 $508 forward 7 unknown #
vertex $-1 $392 $509 #
straight-curve $-1 0.0014717467722817901 61.689279110757539 14.680277934160856 0 1 0 I I #
edge $-1 $474 -7.4396007936082711 $389 22.31585888728025 $388 $510 forward 7 unknown #
vertex $-1 $473 $511 #
straight-curve $-1 0.0014717467722817901 9.8286818683845922e-007 69.958099888981039 0 -0.49999998660252726 0.86602541151947299 I I #
point $-1 0.0014717467722817901 31.914665228497547 14.680277934160856 #
point $-1 -29.753987934116239 36.681104414330598 6.4245627981621993 #
straight-curve $-1 0 36.681104414330598 14.680277934160852 -1 0 0 I I #
vertex $-1 $395 $512 #
point $-1 -20.252428025290946 33.373581690469557 10.018773723763269 #
vertex $-1 $399 $513 #
point $-1 -7.5000881620530038 33.373581690469557 10.018773723763269 #
point $-1 71.23264259773552 36.681104414330598 -14.680277934160852 #
point $-1 71.23264259773552 -36.681104414330598 -14.680277934160852 #
straight-curve $-1 71.23264259773552 -36.681104414330598 0 0 0 -1 I I #
straight-curve $-1 71.23264259773552 36.681104414330598 0 0 0 -1 I I #
edge $-1 $436 -2.9308137504776148 $425 2.9308137504776148 $422 $514 forward 7 unknown #
straight-curve $-1 -81.558845166510963 -7.3205485460088937 0 0 0 -1 I I #
straight-curve $-1 -76.395743882123242 -13.182176046964123 14.680277934160852 1 0 0 I I #
point $-1 -81.558845166510963 -13.182176046964123 14.680277934160852 #
point $-1 -81.558845166510963 -13.182176046964123 -14.680277934160852 #
straight-curve $-1 -81.558845166510963 -10.251362296486509 -14.680277934160852 0 1 0 I I #
point $-1 -81.558845166510963 -7.3205485460088937 -14.680277934160852 #
point $-1 -81.558845166510963 -7.3205485460088937 14.680277934160852 #
edge $-1 $443 58.290736806825379 $454 71.23264259773552 $448 $515 forward 7 unknown #
straight-curve $-1 58.290736806825379 -36.681104414330598 5.5351327792986957 0 0 -1 I I #
point $-1 58.290736806825379 -36.681104414330598 14.680277934160852 #
straight-curve $-1 0 36.681104414330598 14.680277934160852 -1 0 0 I I #
straight-curve $-1 71.23264259773552 0 14.680277934160852 0 1 0 I I #
point $-1 71.23264259773552 36.681104414330598 14.680277934160852 #
point $-1 71.23264259773552 -36.681104414330598 14.680277934160852 #
straight-curve $-1 25.499404756773146 -36.681104414330598 45.801351245237456 0 0 -1 I I #
point $-1 25.499404756773146 -36.681104414330598 14.680277934160852 #
straight-curve $-1 16.186529452730554 -36.681104414330598 9.8879735592421856 1 0 0 I I #
point $-1 25.499404756773146 -36.681104414330598 9.8879735592421856 #
point $-1 29.427207127451979 -32.76126344863701 10.714234451315596 #
point $-1 35.318910683470236 -32.76126344863701 10.714234451315596 #
straight-curve $-1 0.0014717467722817901 36.681104414330598 70.595370289020892 0 0 -1 I I #
point $-1 0.0014717467722817901 36.681104414330598 14.680277934160852 #
straight-curve $-1 -7.4381290468359893 36.681104414330605 6.4245627981621993 -1 0 0 I I #
point $-1 0.0014717467722817901 36.681104414330598 6.4245627981621993 #
point $-1 -21.252428025290946 32.507556278950084 9.5187737371607408 #
point $-1 -8.5000881620530038 32.507556278950084 9.5187737371607408 #
straight-curve $-1 -81.558845166510963 -10.251362296486509 14.680277934160852 0 -1 0 I I #
straight-curve $-1 0 -36.681104414330598 14.680277934160852 1 0 0 I I #
End-of-ACIS-data 