500 0 9 0           
7 Unknown 11 ACIS 5.0 NT 24 Fri Mar 26 02:56:43 1999 
-1 9.9999999999999995e-007 1e-010 
body $-1 $9 $-1 $10 #
body $-1 $11 $-1 $12 #
body $-1 $13 $-1 $14 #
body $-1 $15 $-1 $16 #
body $-1 $17 $-1 $18 #
body $-1 $19 $-1 $20 #
body $-1 $21 $-1 $22 #
body $-1 $23 $-1 $24 #
body $-1 $25 $-1 $26 #
lump $-1 $-1 $27 $0 #
transform $-1 1 0 0 0 1 0 0 0 1 70.81637012848293 43.895689222955355 12.688315087594887 1 rotate no_reflect no_shear #
lump $-1 $-1 $28 $1 #
transform $-1 1 0 0 0 1 0 0 0 1 70.81637012848293 43.895689222955355 12.688315087594887 1 rotate no_reflect no_shear #
lump $-1 $-1 $29 $2 #
transform $-1 1 0 0 0 1 0 0 0 1 70.81637012848293 43.895689222955355 12.688315087594887 1 rotate no_reflect no_shear #
lump $-1 $-1 $30 $3 #
transform $-1 1 0 0 0 1 0 0 0 1 70.81637012848293 43.895689222955355 12.688315087594887 1 rotate no_reflect no_shear #
lump $-1 $-1 $31 $4 #
transform $-1 1 0 0 0 1 0 0 0 1 70.81637012848293 43.895689222955355 12.688315087594887 1 rotate no_reflect no_shear #
lump $-1 $-1 $32 $5 #
transform $-1 1 0 0 0 1 0 0 0 1 70.81637012848293 43.895689222955355 12.688315087594887 1 rotate no_reflect no_shear #
lump $-1 $-1 $33 $6 #
transform $-1 1 0 0 0 1 0 0 0 1 70.81637012848293 43.895689222955355 12.688315087594887 1 rotate no_reflect no_shear #
lump $-1 $-1 $34 $7 #
transform $-1 1 0 0 0 1 0 0 0 1 70.81637012848293 43.895689222955355 12.688315087594887 1 rotate no_reflect no_shear #
lump $-1 $-1 $35 $8 #
transform $-1 1 0 0 0 1 0 0 0 1 70.81637012848293 43.895689222955355 12.688315087594887 1 rotate no_reflect no_shear #
shell $-1 $-1 $-1 $36 $-1 $9 #
shell $-1 $-1 $-1 $37 $-1 $11 #
shell $-1 $-1 $-1 $38 $-1 $13 #
shell $-1 $-1 $-1 $39 $-1 $15 #
shell $-1 $-1 $-1 $40 $-1 $17 #
shell $-1 $-1 $-1 $41 $-1 $19 #
shell $-1 $-1 $-1 $42 $-1 $21 #
shell $-1 $-1 $-1 $43 $-1 $23 #
shell $-1 $-1 $-1 $44 $-1 $25 #
face $-1 $45 $46 $27 $-1 $47 forward single #
face $-1 $48 $49 $28 $-1 $50 forward single #
face $-1 $51 $52 $29 $-1 $53 forward single #
face $-1 $54 $55 $30 $-1 $56 reversed single #
face $-1 $57 $58 $31 $-1 $59 forward single #
face $-1 $60 $61 $32 $-1 $62 forward single #
face $-1 $63 $64 $33 $-1 $65 forward single #
face $-1 $66 $67 $34 $-1 $68 reversed single #
face $-1 $69 $70 $35 $-1 $71 forward single #
face $-1 $72 $73 $27 $-1 $74 reversed single #
loop $-1 $-1 $75 $36 #
plane-surface $-1 0 0 12.688315087594887 0 0 1 1 0 0 forward_v I I I I #
face $-1 $76 $77 $28 $-1 $78 reversed single #
loop $-1 $-1 $79 $37 #
plane-surface $-1 -64.533417915742504 0 -9.6883150875948871 0 0 1 1 0 0 forward_v I I I I #
face $-1 $80 $81 $29 $-1 $82 reversed single #
loop $-1 $-1 $83 $38 #
plane-surface $-1 64.53341791574249 0 -9.6883150875948871 0 0 1 1 0 0 forward_v I I I I #
face $-1 $84 $85 $30 $-1 $86 reversed single #
loop $-1 $-1 $87 $39 #
plane-surface $-1 -15.282273645799336 -155.5038127773276 88.42072358714401 1 0 0 0 0.78801076186113728 -0.61566146476048833 forward_v I I I I #
face $-1 $88 $89 $31 $-1 $90 forward single #
loop $-1 $91 $92 $40 #
cone-surface $-1 -12.725702713556487 -38.030280509645138 5.8723347245314956 0 0.78801076186113728 -0.61566146476048833 1 0 0 1 I I 0 1 1 forward I I I I #
face $-1 $93 $94 $32 $-1 $95 forward single #
loop $-1 $96 $97 $41 #
cone-surface $-1 -8.8908463151922206 -38.030280509645138 5.8723347245314956 0 0.78801076186113728 -0.61566146476048833 1 0 0 1 I I 0 1 1 forward I I I I #
face $-1 $98 $99 $33 $-1 $100 forward single #
loop $-1 $101 $102 $42 #
cone-surface $-1 -5.0559899168279543 -38.030280509645138 5.8723347245314956 0 0.78801076186113728 -0.61566146476048833 1 0 0 1 I I 0 1 1 forward I I I I #
face $-1 $103 $104 $34 $-1 $105 reversed single #
loop $-1 $-1 $106 $43 #
plane-surface $-1 24.208085875879469 73.424783753696644 166.48325838429946 -1 0 0 0 0.66913061440640931 0.74314481823134659 forward_v I I I I #
face $-1 $107 $108 $35 $-1 $109 forward single #
loop $-1 $110 $111 $44 #
cone-surface $-1 10.977068660762626 37.710266601883106 7.0096566449292297 0 -0.66913061440640931 -0.74314481823134659 1.5 0 0 1 I I 0 1 1.5 forward I I I I #
face $-1 $112 $113 $27 $-1 $114 reversed single #
loop $-1 $-1 $115 $45 #
plane-surface $-1 0 0 -12.688315087594887 0 0 1 1 0 0 forward_v I I I I #
coedge $-1 $116 $117 $118 $119 forward $46 $-1 #
face $-1 $120 $121 $28 $-1 $122 reversed single #
loop $-1 $-1 $123 $48 #
plane-surface $-1 -58.250465703002078 0 -11.188315087594887 -1 0 0 0 0 1 forward_v I I I I #
coedge $-1 $124 $125 $126 $127 forward $49 $-1 #
face $-1 $128 $129 $29 $-1 $130 reversed single #
loop $-1 $-1 $131 $51 #
plane-surface $-1 58.250465703002064 0 -11.188315087594887 1 0 0 0 0 -1 forward_v I I I I #
coedge $-1 $132 $133 $134 $135 reversed $52 $-1 #
face $-1 $136 $137 $30 $-1 $138 reversed single #
loop $-1 $-1 $139 $54 #
plane-surface $-1 -8.8908463151922206 -43.895689222955355 1.2229032624986331 0 -0.78801076186113728 0.61566146476048833 1 0 0 forward_v I I I I #
coedge $-1 $140 $141 $142 $143 reversed $55 $-1 #
face $-1 $-1 $144 $31 $-1 $145 forward single #
loop $-1 $146 $147 $57 #
cone-surface $-1 -12.725702713556487 -36.249747022091356 4.4812295416359902 0 0.78801076186113728 -0.61566146476048833 0.5 0 0 1 I I -0.70710678118654746 0.70710678118654746 0.5 forward I I I I #
loop $-1 $-1 $148 $40 #
coedge $-1 $92 $92 $149 $150 reversed $58 $-1 #
face $-1 $-1 $151 $32 $-1 $152 forward single #
loop $-1 $153 $154 $60 #
cone-surface $-1 -8.8908463151922206 -36.249747022091356 4.4812295416359902 0 0.78801076186113728 -0.61566146476048833 0.5 0 0 1 I I -0.70710678118654746 0.70710678118654746 0.5 forward I I I I #
loop $-1 $-1 $155 $41 #
coedge $-1 $97 $97 $156 $157 reversed $61 $-1 #
face $-1 $-1 $158 $33 $-1 $159 forward single #
loop $-1 $160 $161 $63 #
cone-surface $-1 -5.0559899168279543 -36.249747022091356 4.4812295416359902 0 0.78801076186113728 -0.61566146476048833 0.5 0 0 1 I I -0.70710678118654746 0.70710678118654746 0.5 forward I I I I #
loop $-1 $-1 $162 $42 #
coedge $-1 $102 $102 $163 $164 reversed $64 $-1 #
face $-1 $165 $166 $34 $-1 $167 reversed single #
loop $-1 $-1 $168 $66 #
plane-surface $-1 10.977068660762626 -21.346018754510297 61.229621370429044 0 0.66913061440640931 0.74314481823134659 1 0 0 forward_v I I I I #
coedge $-1 $169 $170 $171 $172 reversed $67 $-1 #
face $-1 $-1 $173 $35 $-1 $174 forward single #
loop $-1 $175 $176 $69 #
cone-surface $-1 10.977068660762626 36.688559473818628 5.8749359467218909 0 -0.66913061440640931 -0.74314481823134659 0.75 0 0 1 I I -0.70710678118654757 0.70710678118654757 0.75 forward I I I I #
loop $-1 $-1 $177 $44 #
coedge $-1 $111 $111 $178 $179 reversed $70 $-1 #
face $-1 $180 $181 $27 $-1 $182 reversed single #
loop $-1 $-1 $183 $72 #
plane-surface $-1 0 -43.895689222955355 0 0 1 0 0 0 1 forward_v I I I I #
coedge $-1 $184 $185 $186 $187 forward $73 $-1 #
coedge $-1 $188 $75 $189 $190 forward $46 $-1 #
coedge $-1 $75 $188 $191 $192 forward $46 $-1 #
coedge $-1 $193 $194 $75 $119 reversed $195 $-1 #
edge $-1 $196 -43.895689222955355 $197 43.895689222955355 $118 $198 forward 7 unknown #
face $-1 $199 $200 $28 $-1 $201 reversed single #
loop $-1 $-1 $202 $76 #
plane-surface $-1 0 0 -12.688315087594887 0 0 1 1 0 0 forward_v I I I I #
coedge $-1 $203 $126 $204 $205 reversed $77 $-1 #
coedge $-1 $206 $79 $207 $208 reversed $49 $-1 #
coedge $-1 $79 $206 $209 $210 reversed $49 $-1 #
coedge $-1 $123 $211 $79 $127 reversed $77 $-1 #
edge $-1 $212 -43.895689222955355 $213 43.895689222955355 $126 $214 forward 7 unknown #
face $-1 $215 $216 $29 $-1 $217 reversed single #
loop $-1 $-1 $218 $80 #
plane-surface $-1 0 -43.895689222955355 0 0 1 0 0 0 1 forward_v I I I I #
coedge $-1 $219 $220 $221 $222 reversed $81 $-1 #
coedge $-1 $223 $83 $224 $225 reversed $52 $-1 #
coedge $-1 $83 $223 $218 $226 reversed $52 $-1 #
coedge $-1 $227 $228 $83 $135 forward $229 $-1 #
edge $-1 $230 -43.895689222955355 $231 43.895689222955355 $134 $232 forward 7 unknown #
face $-1 $233 $234 $30 $-1 $235 forward single #
loop $-1 $-1 $236 $84 #
plane-surface $-1 -2.4994189845851054 -155.5038127773276 88.42072358714401 -1 0 0 0 -0.78801076186113728 0.61566146476048833 forward_v I I I I #
coedge $-1 $237 $238 $239 $240 reversed $85 $-1 #
coedge $-1 $141 $87 $241 $242 reversed $55 $-1 #
coedge $-1 $87 $140 $237 $243 reversed $55 $-1 #
coedge $-1 $239 $244 $87 $143 forward $245 $-1 #
edge $-1 $246 31.522046705977118 $247 42.987458531073372 $142 $248 forward 7 unknown #
loop $-1 $-1 $149 $88 #
plane-surface $-1 -8.8908463151922206 -43.895689222955355 1.2229032624986331 0 -0.78801076186113728 0.61566146476048833 1 0 0 forward_v I I I I #
loop $-1 $-1 $249 $57 #
coedge $-1 $147 $147 $148 $250 reversed $89 $-1 #
coedge $-1 $148 $148 $147 $250 forward $91 $-1 #
coedge $-1 $149 $149 $92 $150 forward $144 $-1 #
edge $-1 $251 8.7506704884729591e-016 $251 6.2831853071796013 $149 $252 forward 7 unknown #
loop $-1 $-1 $156 $93 #
plane-surface $-1 -8.8908463151922206 -43.895689222955355 1.2229032624986331 0 -0.78801076186113728 0.61566146476048833 1 0 0 forward_v I I I I #
loop $-1 $-1 $253 $60 #
coedge $-1 $154 $154 $155 $254 reversed $94 $-1 #
coedge $-1 $155 $155 $154 $254 forward $96 $-1 #
coedge $-1 $156 $156 $97 $157 forward $151 $-1 #
edge $-1 $255 8.7506704884729591e-016 $255 6.2831853071796013 $156 $256 forward 7 unknown #
loop $-1 $-1 $163 $98 #
plane-surface $-1 -8.8908463151922206 -43.895689222955355 1.2229032624986331 0 -0.78801076186113728 0.61566146476048833 1 0 0 forward_v I I I I #
loop $-1 $-1 $257 $63 #
coedge $-1 $161 $161 $162 $258 reversed $99 $-1 #
coedge $-1 $162 $162 $161 $258 forward $101 $-1 #
coedge $-1 $163 $163 $102 $164 forward $158 $-1 #
edge $-1 $259 8.7506704884729591e-016 $259 6.2831853071796013 $163 $260 forward 7 unknown #
face $-1 $261 $262 $34 $-1 $263 reversed single #
loop $-1 $-1 $264 $103 #
plane-surface $-1 -2.253948554354217 73.424783753696644 166.48325838429946 1 0 0 0 -0.66913061440640931 -0.74314481823134659 forward_v I I I I #
coedge $-1 $265 $266 $267 $268 reversed $104 $-1 #
coedge $-1 $170 $106 $269 $270 reversed $67 $-1 #
coedge $-1 $106 $169 $265 $271 reversed $67 $-1 #
coedge $-1 $267 $272 $106 $172 forward $262 $-1 #
edge $-1 $273 70.553314104554843 $274 80.755906820818495 $171 $275 forward 7 unknown #
loop $-1 $-1 $178 $107 #
plane-surface $-1 10.977068660762626 -21.346018754510297 61.229621370429044 0 0.66913061440640931 0.74314481823134659 1 0 0 forward_v I I I I #
loop $-1 $-1 $276 $69 #
coedge $-1 $176 $176 $177 $277 reversed $108 $-1 #
coedge $-1 $177 $177 $176 $277 forward $110 $-1 #
coedge $-1 $178 $178 $111 $179 forward $173 $-1 #
edge $-1 $278 -1.1430115280411218e-015 $278 6.2831853071795996 $178 $279 forward 7 unknown #
face $-1 $280 $281 $27 $-1 $282 reversed single #
loop $-1 $-1 $283 $112 #
plane-surface $-1 -70.81637012848293 0 0 1 0 0 0 0 -1 forward_v I I I I #
coedge $-1 $284 $191 $285 $286 forward $113 $-1 #
coedge $-1 $287 $115 $284 $288 forward $73 $-1 #
coedge $-1 $115 $287 $289 $290 forward $73 $-1 #
coedge $-1 $194 $193 $115 $187 reversed $195 $-1 #
edge $-1 $291 -43.895689222955355 $292 43.895689222955355 $186 $293 forward 7 unknown #
coedge $-1 $117 $116 $294 $295 forward $46 $-1 #
coedge $-1 $296 $297 $116 $190 reversed $281 $-1 #
edge $-1 $197 -70.81637012848293 $298 70.81637012848293 $189 $299 forward 7 unknown #
coedge $-1 $183 $300 $117 $192 reversed $113 $-1 #
edge $-1 $301 -70.81637012848293 $196 70.81637012848293 $191 $302 forward 7 unknown #
coedge $-1 $186 $118 $300 $303 forward $195 $-1 #
coedge $-1 $118 $186 $296 $304 reversed $195 $-1 #
loop $-1 $-1 $193 $280 #
vertex $-1 $119 $305 #
vertex $-1 $119 $306 #
straight-curve $-1 70.81637012848293 0 12.688315087594887 0 1 0 I I #
face $-1 $307 $308 $28 $-1 $309 reversed single #
loop $-1 $-1 $204 $120 #
plane-surface $-1 0 -43.895689222955355 0 0 1 0 0 0 1 forward_v I I I I #
coedge $-1 $310 $311 $203 $312 forward $121 $-1 #
coedge $-1 $211 $123 $202 $312 reversed $77 $-1 #
coedge $-1 $209 $313 $123 $205 forward $200 $-1 #
edge $-1 $314 -7.0941575437974436 $212 -4.0941575437974436 $204 $315 forward 7 unknown #
coedge $-1 $125 $124 $316 $317 reversed $49 $-1 #
coedge $-1 $318 $319 $124 $208 forward $320 $-1 #
edge $-1 $321 -38.549661170611678 $213 -25.983756745130826 $207 $322 forward 7 unknown #
coedge $-1 $323 $204 $125 $210 forward $200 $-1 #
edge $-1 $212 25.983756745130826 $324 38.549661170611678 $209 $325 forward 7 unknown #
coedge $-1 $126 $203 $318 $326 reversed $77 $-1 #
vertex $-1 $210 $327 #
vertex $-1 $208 $328 #
straight-curve $-1 -58.250465703002078 0 -9.6883150875948871 0 1 0 I I #
face $-1 $329 $330 $29 $-1 $331 reversed single #
loop $-1 $-1 $332 $128 #
plane-surface $-1 0 0 -12.688315087594887 0 0 1 1 0 0 forward_v I I I I #
coedge $-1 $333 $334 $133 $226 forward $129 $-1 #
coedge $-1 $335 $131 $332 $336 reversed $81 $-1 #
coedge $-1 $131 $335 $223 $337 reversed $81 $-1 #
coedge $-1 $224 $338 $131 $222 forward $330 $-1 #
edge $-1 $339 -7.0941575437974436 $340 -4.0941575437974436 $221 $341 forward 7 unknown #
coedge $-1 $133 $132 $220 $337 forward $52 $-1 #
coedge $-1 $342 $221 $132 $225 forward $330 $-1 #
edge $-1 $340 25.983756745130819 $230 38.549661170611671 $224 $343 forward 7 unknown #
edge $-1 $231 -38.549661170611671 $344 -25.983756745130819 $218 $345 forward 7 unknown #
coedge $-1 $346 $134 $334 $347 forward $229 $-1 #
coedge $-1 $134 $346 $342 $348 reversed $229 $-1 #
loop $-1 $-1 $134 $329 #
vertex $-1 $348 $349 #
vertex $-1 $347 $350 #
straight-curve $-1 70.81637012848293 0 -9.6883150875948871 0 -1 0 I I #
face $-1 $-1 $245 $30 $-1 $351 reversed single #
loop $-1 $-1 $352 $136 #
plane-surface $-1 0 0 12.688315087594887 0 0 1 1 0 0 forward_v I I I I #
coedge $-1 $353 $354 $355 $356 reversed $137 $-1 #
coedge $-1 $357 $139 $141 $243 forward $85 $-1 #
coedge $-1 $139 $357 $353 $358 forward $85 $-1 #
coedge $-1 $355 $142 $139 $240 forward $245 $-1 #
edge $-1 $247 -10.836850488203225 $359 1.9460041730110049 $239 $360 forward 7 unknown #
coedge $-1 $361 $362 $140 $242 forward $234 $-1 #
edge $-1 $363 -42.813978379082435 $246 -33.856217165708443 $241 $364 forward 7 unknown #
edge $-1 $247 0 $363 14.549816296946313 $141 $365 forward 7 unknown #
coedge $-1 $142 $355 $361 $366 reversed $245 $-1 #
loop $-1 $-1 $355 $233 #
vertex $-1 $366 $367 #
vertex $-1 $143 $368 #
straight-curve $-1 -15.282273645799336 -43.895689222955355 44.210361793572005 0 0 -1 I I #
coedge $-1 $249 $249 $-1 $369 reversed $146 $-1 #
edge $-1 $370 0 $370 6.2831853071796004 $147 $371 forward 7 unknown #
vertex $-1 $150 $372 #
ellipse-curve $-1 -12.725702713556487 -39.416808616268362 6.955609175046761 0 -0.78801076186113728 0.61566146476048833 1 0 0 1 I I #
coedge $-1 $253 $253 $-1 $373 reversed $153 $-1 #
edge $-1 $374 0 $374 6.2831853071796004 $154 $375 forward 7 unknown #
vertex $-1 $157 $376 #
ellipse-curve $-1 -8.8908463151922206 -39.416808616268362 6.955609175046761 0 -0.78801076186113728 0.61566146476048833 1 0 0 1 I I #
coedge $-1 $257 $257 $-1 $377 reversed $160 $-1 #
edge $-1 $378 0 $378 6.2831853071796004 $161 $379 forward 7 unknown #
vertex $-1 $164 $380 #
ellipse-curve $-1 -5.0559899168279543 -39.416808616268362 6.955609175046761 0 -0.78801076186113728 0.61566146476048833 1 0 0 1 I I #
face $-1 $-1 $381 $34 $-1 $382 forward single #
loop $-1 $-1 $171 $165 #
plane-surface $-1 0 43.895689222955355 0 0 -1 0 0 0 -1 forward_v I I I I #
coedge $-1 $383 $384 $385 $386 reversed $166 $-1 #
coedge $-1 $387 $168 $170 $271 forward $104 $-1 #
coedge $-1 $168 $387 $383 $388 forward $104 $-1 #
coedge $-1 $385 $171 $168 $268 forward $262 $-1 #
edge $-1 $274 -18.719551545498156 $389 7.74248288473553 $267 $390 forward 7 unknown #
coedge $-1 $391 $392 $169 $270 forward $381 $-1 #
edge $-1 $393 -4.1478295615181224 $273 7.1832973461070324 $269 $394 forward 7 unknown #
edge $-1 $274 -87.791378445910681 $393 -72.543843067015402 $170 $395 forward 7 unknown #
coedge $-1 $171 $385 $391 $396 reversed $262 $-1 #
vertex $-1 $396 $397 #
vertex $-1 $172 $398 #
straight-curve $-1 24.208085875879469 43.895689222955355 83.24162919214973 0 0 -1 I I #
coedge $-1 $276 $276 $-1 $399 reversed $175 $-1 #
edge $-1 $400 0 $400 6.2831853071796004 $176 $401 forward 7 unknown #
vertex $-1 $179 $402 #
ellipse-curve $-1 10.977068660762626 38.230125769142781 7.5870187294630629 0 0.66913061440640931 0.74314481823134659 1.5 0 0 1 I I #
face $-1 $-1 $195 $27 $-1 $403 reversed single #
loop $-1 $-1 $296 $180 #
plane-surface $-1 0 43.895689222955355 0 0 -1 0 0 0 -1 forward_v I I I I #
coedge $-1 $404 $294 $297 $405 forward $181 $-1 #
coedge $-1 $300 $183 $184 $288 reversed $113 $-1 #
coedge $-1 $294 $404 $183 $286 reversed $181 $-1 #
edge $-1 $301 -12.688315087594887 $406 12.688315087594887 $285 $407 forward 7 unknown #
coedge $-1 $185 $184 $404 $408 forward $73 $-1 #
edge $-1 $292 -70.81637012848293 $406 70.81637012848293 $284 $409 forward 7 unknown #
coedge $-1 $297 $296 $185 $290 reversed $281 $-1 #
edge $-1 $410 -70.81637012848293 $291 70.81637012848293 $289 $411 forward 7 unknown #
vertex $-1 $187 $412 #
vertex $-1 $303 $413 #
straight-curve $-1 70.81637012848293 0 -12.688315087594887 0 -1 0 I I #
coedge $-1 $283 $285 $188 $295 reversed $181 $-1 #
edge $-1 $298 -43.895689222955355 $301 43.895689222955355 $294 $414 forward 7 unknown #
coedge $-1 $289 $189 $194 $304 forward $281 $-1 #
coedge $-1 $189 $289 $283 $405 reversed $281 $-1 #
vertex $-1 $190 $415 #
straight-curve $-1 0 43.895689222955355 12.688315087594887 -1 0 0 I I #
coedge $-1 $191 $284 $193 $303 reversed $113 $-1 #
vertex $-1 $295 $416 #
straight-curve $-1 0 -43.895689222955355 12.688315087594887 1 0 0 I I #
edge $-1 $196 -12.688315087594887 $292 12.688315087594887 $193 $417 forward 7 unknown #
edge $-1 $197 -12.688315087594887 $291 12.688315087594887 $194 $418 forward 7 unknown #
point $-1 70.81637012848293 -43.895689222955355 12.688315087594887 #
point $-1 70.81637012848293 43.895689222955355 12.688315087594887 #
face $-1 $-1 $320 $28 $-1 $419 reversed single #
loop $-1 $-1 $316 $199 #
plane-surface $-1 -70.81637012848293 0 0 1 0 0 0 0 -1 forward_v I I I I #
coedge $-1 $420 $202 $313 $421 forward $121 $-1 #
coedge $-1 $202 $420 $422 $423 forward $121 $-1 #
edge $-1 $424 -43.895689222955355 $314 43.895689222955355 $202 $425 forward 7 unknown #
coedge $-1 $204 $323 $310 $421 reversed $200 $-1 #
vertex $-1 $421 $426 #
straight-curve $-1 -58.250465703002078 -43.895689222955355 -5.5941575437974436 0 0 1 I I #
coedge $-1 $427 $428 $206 $317 forward $308 $-1 #
edge $-1 $324 -43.895689222955355 $321 43.895689222955355 $316 $429 forward 7 unknown #
coedge $-1 $422 $207 $211 $326 forward $320 $-1 #
coedge $-1 $207 $422 $427 $430 reversed $320 $-1 #
loop $-1 $-1 $318 $307 #
vertex $-1 $430 $431 #
straight-curve $-1 -32.266708957871252 43.895689222955355 -9.6883150875948871 1 0 0 I I #
coedge $-1 $313 $209 $428 $432 forward $200 $-1 #
vertex $-1 $432 $433 #
straight-curve $-1 -32.266708957871252 -43.895689222955355 -9.6883150875948871 -1 0 0 I I #
edge $-1 $213 4.0941575437974436 $424 7.0941575437974436 $318 $434 forward 7 unknown #
point $-1 -58.250465703002078 -43.895689222955355 -9.6883150875948871 #
point $-1 -58.250465703002078 43.895689222955355 -9.6883150875948871 #
face $-1 $-1 $229 $29 $-1 $435 reversed single #
loop $-1 $-1 $224 $215 #
plane-surface $-1 0 43.895689222955355 0 0 -1 0 0 0 -1 forward_v I I I I #
coedge $-1 $436 $437 $219 $336 forward $216 $-1 #
coedge $-1 $438 $218 $335 $439 forward $129 $-1 #
coedge $-1 $218 $438 $227 $347 reversed $129 $-1 #
coedge $-1 $220 $219 $333 $439 reversed $81 $-1 #
edge $-1 $440 -43.895689222955355 $339 43.895689222955355 $332 $441 forward 7 unknown #
edge $-1 $340 -43.895689222955355 $344 43.895689222955355 $220 $442 forward 7 unknown #
coedge $-1 $221 $342 $436 $443 reversed $330 $-1 #
vertex $-1 $443 $444 #
vertex $-1 $225 $445 #
straight-curve $-1 58.250465703002064 43.895689222955355 -5.5941575437974436 0 0 1 I I #
coedge $-1 $338 $224 $228 $348 forward $330 $-1 #
straight-curve $-1 32.266708957871245 43.895689222955355 -9.6883150875948871 1 0 0 I I #
vertex $-1 $226 $446 #
straight-curve $-1 32.266708957871245 -43.895689222955355 -9.6883150875948871 -1 0 0 I I #
coedge $-1 $228 $227 $447 $448 reversed $229 $-1 #
edge $-1 $231 9.6883150875948871 $449 12.688315087594887 $227 $450 forward 7 unknown #
edge $-1 $230 9.6883150875948871 $451 12.688315087594887 $228 $452 forward 7 unknown #
point $-1 70.816370128482916 43.895689222955355 -9.6883150875948871 #
point $-1 70.816370128482916 -43.895689222955355 -9.6883150875948871 #
plane-surface $-1 0 -43.895689222955355 0 0 1 0 0 0 1 forward_v I I I I #
coedge $-1 $362 $361 $354 $453 forward $234 $-1 #
coedge $-1 $354 $236 $238 $358 reversed $137 $-1 #
coedge $-1 $236 $353 $352 $453 reversed $137 $-1 #
coedge $-1 $244 $239 $236 $356 forward $245 $-1 #
edge $-1 $359 -42.987458531073372 $454 -31.522046705977118 $355 $455 forward 7 unknown #
coedge $-1 $238 $237 $362 $456 reversed $85 $-1 #
edge $-1 $457 -14.549816296946313 $359 0 $353 $458 forward 7 unknown #
vertex $-1 $240 $459 #
straight-curve $-1 -4.4454231575961103 -43.895689222955355 1.2229032624986336 1 0 0 I I #
coedge $-1 $352 $241 $244 $366 forward $234 $-1 #
coedge $-1 $241 $352 $357 $456 forward $234 $-1 #
vertex $-1 $242 $460 #
straight-curve $-1 -15.282273645799336 -77.751906388663798 12.688315087594887 0 -1 0 I I #
straight-curve $-1 -15.282273645799336 -43.895689222955355 1.2229032624986331 0 0.61566146476048833 0.78801076186113728 I I #
edge $-1 $246 -15.282273645799336 $454 -2.4994189845851054 $244 $461 forward 7 unknown #
point $-1 -15.282273645799336 -43.895689222955355 12.688315087594887 #
point $-1 -15.282273645799336 -43.895689222955355 1.2229032624986331 #
edge $-1 $462 1 $462 0 $249 $-1 forward 7 unknown #
vertex $-1 $250 $463 #
ellipse-curve $-1 -12.725702713556487 -36.643752403021921 4.7890602740162347 0 -0.78801076186113728 0.61566146476048833 1 0 0 1 I I #
point $-1 -11.725702713556487 -39.416808616268355 6.9556091750467566 #
edge $-1 $464 1 $464 0 $253 $-1 forward 7 unknown #
vertex $-1 $254 $465 #
ellipse-curve $-1 -8.8908463151922206 -36.643752403021921 4.7890602740162347 0 -0.78801076186113728 0.61566146476048833 1 0 0 1 I I #
point $-1 -7.8908463151922206 -39.416808616268355 6.9556091750467566 #
edge $-1 $466 1 $466 0 $257 $-1 forward 7 unknown #
vertex $-1 $258 $467 #
ellipse-curve $-1 -5.0559899168279543 -36.643752403021921 4.7890602740162347 0 -0.78801076186113728 0.61566146476048833 1 0 0 1 I I #
point $-1 -4.0559899168279543 -39.416808616268355 6.9556091750467566 #
loop $-1 $-1 $269 $261 #
plane-surface $-1 0 0 12.688315087594887 0 0 1 1 0 0 forward_v I I I I #
coedge $-1 $384 $264 $266 $388 reversed $166 $-1 #
coedge $-1 $264 $383 $468 $469 reversed $166 $-1 #
coedge $-1 $272 $267 $264 $386 forward $262 $-1 #
edge $-1 $389 -80.755906820818495 $470 -70.553314104554843 $385 $471 forward 7 unknown #
coedge $-1 $266 $265 $392 $472 reversed $104 $-1 #
edge $-1 $473 72.543843067015402 $389 87.791378445910681 $383 $474 forward 7 unknown #
vertex $-1 $268 $475 #
straight-curve $-1 5.488534330381313 43.895689222955355 2.4857223713312351 -1 0 0 I I #
coedge $-1 $468 $269 $272 $396 forward $381 $-1 #
coedge $-1 $269 $468 $387 $472 forward $381 $-1 #
vertex $-1 $270 $476 #
straight-curve $-1 24.208085875879469 36.712391876848322 12.688315087594887 0 1 0 I I #
straight-curve $-1 24.208085875879469 -21.346018754510297 61.229621370429044 0 -0.74314481823134659 0.66913061440640931 I I #
edge $-1 $273 -24.208085875879469 $470 2.253948554354217 $272 $477 forward 7 unknown #
point $-1 24.208085875879469 43.895689222955355 12.688315087594887 #
point $-1 24.208085875879469 43.895689222955355 2.485722371331228 #
edge $-1 $478 1 $478 0 $276 $-1 forward 7 unknown #
vertex $-1 $277 $479 #
ellipse-curve $-1 10.977068660762626 37.190407434623438 6.4322945603954009 0 0.66913061440640931 0.74314481823134659 1.5 0 0 1 I I #
point $-1 12.477068660762626 38.230125769142774 7.5870187294630576 #
plane-surface $-1 70.81637012848293 0 0 -1 0 0 0 0 1 forward_v I I I I #
coedge $-1 $285 $283 $287 $408 reversed $181 $-1 #
edge $-1 $298 -12.688315087594887 $410 12.688315087594887 $297 $480 forward 7 unknown #
vertex $-1 $408 $481 #
straight-curve $-1 -70.81637012848293 -43.895689222955355 0 0 0 -1 I I #
edge $-1 $406 -43.895689222955355 $410 43.895689222955355 $404 $482 forward 7 unknown #
straight-curve $-1 0 -43.895689222955355 -12.688315087594887 -1 0 0 I I #
vertex $-1 $290 $483 #
straight-curve $-1 0 43.895689222955355 -12.688315087594887 1 0 0 I I #
point $-1 70.81637012848293 43.895689222955355 -12.688315087594887 #
point $-1 70.81637012848293 -43.895689222955355 -12.688315087594887 #
straight-curve $-1 -70.81637012848293 0 12.688315087594887 0 -1 0 I I #
point $-1 -70.81637012848293 43.895689222955355 12.688315087594887 #
point $-1 -70.81637012848293 -43.895689222955355 12.688315087594887 #
straight-curve $-1 70.81637012848293 -43.895689222955355 0 0 0 -1 I I #
straight-curve $-1 70.81637012848293 43.895689222955355 0 0 0 -1 I I #
plane-surface $-1 0 43.895689222955355 0 0 -1 0 0 0 -1 forward_v I I I I #
coedge $-1 $311 $310 $484 $485 forward $121 $-1 #
edge $-1 $314 58.250465703002078 $486 70.81637012848293 $313 $487 forward 7 unknown #
coedge $-1 $319 $318 $311 $423 reversed $320 $-1 #
edge $-1 $488 -70.81637012848293 $424 -58.250465703002078 $422 $489 forward 7 unknown #
vertex $-1 $326 $490 #
straight-curve $-1 -58.250465703002078 0 -12.688315087594887 0 -1 0 I I #
point $-1 -58.250465703002078 -43.895689222955355 -12.688315087594887 #
coedge $-1 $484 $316 $319 $430 forward $308 $-1 #
coedge $-1 $316 $484 $323 $432 reversed $308 $-1 #
straight-curve $-1 -70.81637012848293 0 -9.6883150875948871 0 1 0 I I #
edge $-1 $321 9.6883150875948871 $488 12.688315087594887 $319 $491 forward 7 unknown #
point $-1 -70.81637012848293 43.895689222955355 -9.6883150875948871 #
edge $-1 $324 9.6883150875948871 $486 12.688315087594887 $428 $492 forward 7 unknown #
point $-1 -70.81637012848293 -43.895689222955355 -9.6883150875948871 #
straight-curve $-1 -58.250465703002078 43.895689222955355 -5.5941575437974436 0 0 -1 I I #
plane-surface $-1 70.81637012848293 0 0 -1 0 0 0 0 1 forward_v I I I I #
coedge $-1 $447 $332 $338 $443 forward $216 $-1 #
coedge $-1 $332 $447 $438 $493 forward $216 $-1 #
coedge $-1 $334 $333 $437 $493 reversed $129 $-1 #
edge $-1 $344 4.0941575437974436 $440 7.0941575437974436 $333 $494 forward 7 unknown #
vertex $-1 $336 $495 #
straight-curve $-1 58.250465703002064 0 -12.688315087594887 0 1 0 I I #
straight-curve $-1 58.250465703002064 0 -9.6883150875948871 0 -1 0 I I #
edge $-1 $339 58.250465703002064 $451 70.81637012848293 $338 $496 forward 7 unknown #
point $-1 58.250465703002064 43.895689222955355 -12.688315087594887 #
point $-1 58.250465703002064 43.895689222955355 -9.6883150875948871 #
point $-1 58.250465703002064 -43.895689222955355 -9.6883150875948871 #
coedge $-1 $437 $436 $346 $448 forward $216 $-1 #
edge $-1 $451 -43.895689222955355 $449 43.895689222955355 $346 $497 forward 7 unknown #
vertex $-1 $347 $498 #
straight-curve $-1 70.81637012848293 -43.895689222955355 0 0 0 -1 I I #
vertex $-1 $448 $499 #
straight-curve $-1 70.81637012848293 43.895689222955355 0 0 0 -1 I I #
edge $-1 $454 33.856217165708443 $457 42.813978379082435 $352 $500 forward 7 unknown #
vertex $-1 $453 $501 #
straight-curve $-1 -2.4994189845851054 -43.895689222955355 44.210361793572005 0 0 1 I I #
edge $-1 $457 -1.9460041730110049 $363 10.836850488203225 $362 $502 forward 7 unknown #
vertex $-1 $456 $503 #
straight-curve $-1 -2.4994189845851054 -43.895689222955355 1.2229032624986331 0 -0.61566146476048833 -0.78801076186113728 I I #
point $-1 -2.4994189845851054 -43.895689222955355 1.2229032624986331 #
point $-1 -15.282273645799336 -34.937928009581363 12.688315087594887 #
straight-curve $-1 0 -43.895689222955355 12.688315087594887 1 0 0 I I #
vertex $-1 $369 $504 #
point $-1 -11.725702713556487 -36.643752403021921 4.7890602740162347 #
vertex $-1 $373 $505 #
point $-1 -7.8908463151922206 -36.643752403021921 4.7890602740162347 #
vertex $-1 $377 $506 #
point $-1 -4.0559899168279543 -36.643752403021921 4.7890602740162347 #
coedge $-1 $392 $391 $384 $469 forward $381 $-1 #
edge $-1 $470 -7.1832973461070324 $473 4.1478295615181224 $468 $507 forward 7 unknown #
vertex $-1 $469 $508 #
straight-curve $-1 -2.253948554354217 43.895689222955355 83.24162919214973 0 0 1 I I #
edge $-1 $473 -7.74248288473553 $393 18.719551545498156 $392 $509 forward 7 unknown #
vertex $-1 $472 $510 #
straight-curve $-1 -2.253948554354217 -21.346018754510297 61.229621370429044 0 0.74314481823134659 -0.66913061440640931 I I #
point $-1 -2.253948554354217 43.895689222955355 2.485722371331228 #
point $-1 24.208085875879469 32.5645623153302 12.688315087594894 #
straight-curve $-1 0 43.895689222955355 12.688315087594887 -1 0 0 I I #
vertex $-1 $399 $511 #
point $-1 12.477068660762626 37.190407434623438 6.4322945603954009 #
straight-curve $-1 -70.81637012848293 43.895689222955355 0 0 0 -1 I I #
point $-1 -70.81637012848293 -43.895689222955355 -12.688315087594887 #
straight-curve $-1 -70.81637012848293 0 -12.688315087594887 0 1 0 I I #
point $-1 -70.81637012848293 43.895689222955355 -12.688315087594887 #
coedge $-1 $428 $427 $420 $485 reversed $308 $-1 #
edge $-1 $486 -43.895689222955355 $488 43.895689222955355 $484 $512 forward 7 unknown #
vertex $-1 $485 $513 #
straight-curve $-1 0 -43.895689222955355 -12.688315087594887 -1 0 0 I I #
vertex $-1 $423 $514 #
straight-curve $-1 0 43.895689222955355 -12.688315087594887 1 0 0 I I #
point $-1 -58.250465703002078 43.895689222955355 -12.688315087594887 #
straight-curve $-1 -70.81637012848293 43.895689222955355 0 0 0 -1 I I #
straight-curve $-1 -70.81637012848293 -43.895689222955355 0 0 0 -1 I I #
edge $-1 $449 -70.81637012848293 $440 -58.250465703002064 $438 $515 forward 7 unknown #
straight-curve $-1 58.250465703002064 -43.895689222955355 -5.5941575437974436 0 0 -1 I I #
point $-1 58.250465703002064 -43.895689222955355 -12.688315087594887 #
straight-curve $-1 0 43.895689222955355 -12.688315087594887 1 0 0 I I #
straight-curve $-1 70.81637012848293 0 -12.688315087594887 0 -1 0 I I #
point $-1 70.81637012848293 -43.895689222955355 -12.688315087594887 #
point $-1 70.81637012848293 43.895689222955355 -12.688315087594887 #
straight-curve $-1 -2.4994189845851054 -77.751906388663798 12.688315087594887 0 1 0 I I #
point $-1 -2.4994189845851054 -43.895689222955355 12.688315087594887 #
straight-curve $-1 -4.4454231575961103 -34.93792800958137 12.688315087594887 -1 0 0 I I #
point $-1 -2.4994189845851054 -34.937928009581363 12.688315087594887 #
point $-1 -12.725702713556487 -35.85574164116079 4.1733988092557457 #
point $-1 -8.8908463151922206 -35.85574164116079 4.1733988092557457 #
point $-1 -5.0559899168279543 -35.85574164116079 4.1733988092557457 #
straight-curve $-1 -2.253948554354217 36.712391876848322 12.688315087594887 0 -1 0 I I #
point $-1 -2.253948554354217 43.895689222955355 12.688315087594887 #
straight-curve $-1 5.488534330381313 32.5645623153302 12.688315087594887 1 0 0 I I #
point $-1 -2.253948554354217 32.5645623153302 12.688315087594894 #
point $-1 10.977068660762626 36.186711513013819 5.3175773330483809 #
straight-curve $-1 -70.81637012848293 0 -12.688315087594887 0 1 0 I I #
point $-1 -70.81637012848293 -43.895689222955355 -12.688315087594887 #
point $-1 -70.81637012848293 43.895689222955355 -12.688315087594887 #
straight-curve $-1 0 -43.895689222955355 -12.688315087594887 -1 0 0 I I #
End-of-ACIS-data 