500 0 7 0           
7 Unknown 11 ACIS 5.0 NT 24 Fri Mar 26 00:54:50 1999 
-1 9.9999999999999995e-007 1e-010 
body $-1 $7 $-1 $8 #
body $-1 $9 $-1 $10 #
body $-1 $11 $-1 $12 #
body $-1 $13 $-1 $14 #
body $-1 $15 $-1 $16 #
body $-1 $17 $-1 $18 #
body $-1 $19 $-1 $20 #
lump $-1 $-1 $21 $0 #
transform $-1 1 0 0 0 1 0 0 0 1 61.508224738303781 40.531192619081857 16.425232720427996 1 rotate no_reflect no_shear #
lump $-1 $-1 $22 $1 #
transform $-1 1 0 0 0 1 0 0 0 1 61.508224738303781 40.531192619081857 16.425232720427996 1 rotate no_reflect no_shear #
lump $-1 $-1 $23 $2 #
transform $-1 1 0 0 0 1 0 0 0 1 61.508224738303781 40.531192619081857 16.425232720427996 1 rotate no_reflect no_shear #
lump $-1 $-1 $24 $3 #
transform $-1 1 0 0 0 1 0 0 0 1 61.508224738303781 40.531192619081857 16.425232720427996 1 rotate no_reflect no_shear #
lump $-1 $-1 $25 $4 #
transform $-1 1 0 0 0 1 0 0 0 1 61.508224738303781 40.531192619081857 16.425232720427996 1 rotate no_reflect no_shear #
lump $-1 $-1 $26 $5 #
transform $-1 1 0 0 0 1 0 0 0 1 61.508224738303781 40.531192619081857 16.425232720427996 1 rotate no_reflect no_shear #
lump $-1 $-1 $27 $6 #
transform $-1 1 0 0 0 1 0 0 0 1 61.508224738303781 40.531192619081857 16.425232720427996 1 rotate no_reflect no_shear #
shell $-1 $-1 $-1 $28 $-1 $7 #
shell $-1 $-1 $-1 $29 $-1 $9 #
shell $-1 $-1 $-1 $30 $-1 $11 #
shell $-1 $-1 $-1 $31 $-1 $13 #
shell $-1 $-1 $-1 $32 $-1 $15 #
shell $-1 $-1 $-1 $33 $-1 $17 #
shell $-1 $-1 $-1 $34 $-1 $19 #
face $-1 $35 $36 $21 $-1 $37 forward single #
face $-1 $38 $39 $22 $-1 $40 forward single #
face $-1 $41 $42 $23 $-1 $43 reversed single #
face $-1 $44 $45 $24 $-1 $46 forward single #
face $-1 $47 $48 $25 $-1 $49 forward single #
face $-1 $50 $51 $26 $-1 $52 reversed single #
face $-1 $53 $54 $27 $-1 $55 forward single #
face $-1 $56 $57 $21 $-1 $58 reversed single #
loop $-1 $-1 $59 $28 #
plane-surface $-1 0 0 16.425232720427996 0 0 1 1 0 0 forward_v I I I I #
face $-1 $60 $61 $22 $-1 $62 reversed single #
loop $-1 $-1 $63 $29 #
plane-surface $-1 0 -31.281551418407425 -8.5904262879274462 0 0 1 1 0 0 forward_v I I I I #
face $-1 $64 $65 $23 $-1 $66 reversed single #
loop $-1 $-1 $67 $30 #
plane-surface $-1 -164.67850127214322 17.270381418178573 75.262753297037946 0 1 0 -0.83867057594974714 0 0.54463902268945019 forward_v I I I I #
face $-1 $68 $69 $24 $-1 $70 forward single #
loop $-1 $71 $72 $31 #
cone-surface $-1 -58.033872984068196 21.148454233220136 11.809032251209235 0.83867057594974714 0 -0.54463902268945019 0.54463902268945019 0 0.83867057594974714 1 I I 0 1 1 forward I I I I #
face $-1 $73 $74 $25 $-1 $75 forward single #
loop $-1 $76 $77 $32 #
cone-surface $-1 -58.033872984068196 26.965563455782465 11.809032251209235 0.83867057594974714 0 -0.54463902268945019 0.54463902268945019 0 0.83867057594974714 1 I I 0 1 1 forward I I I I #
face $-1 $78 $79 $26 $-1 $80 reversed single #
loop $-1 $-1 $81 $33 #
plane-surface $-1 25.337510970938624 26.730327837937814 170.23129390464968 0 -1 0 -0.54463904215088732 0 -0.83867056331134215 forward_v I I I I #
face $-1 $82 $83 $27 $-1 $84 forward single #
loop $-1 $85 $86 $34 #
cone-surface $-1 47.797352113037078 17.488107694600188 6.5312141199968679 -0.54463904215088732 0 -0.83867056331134215 1.2580058449670133 0 -0.81695856322633098 1 I I 0 1 1.5 forward I I I I #
face $-1 $87 $88 $21 $-1 $89 reversed single #
loop $-1 $-1 $90 $35 #
plane-surface $-1 0 0 -16.425232720427996 0 0 1 1 0 0 forward_v I I I I #
coedge $-1 $91 $92 $93 $94 forward $36 $-1 #
face $-1 $95 $96 $22 $-1 $97 reversed single #
loop $-1 $-1 $98 $38 #
plane-surface $-1 0 -22.031910217732992 -12.507829504177721 0 -1 0 0 0 -1 forward_v I I I I #
coedge $-1 $99 $100 $101 $102 reversed $39 $-1 #
face $-1 $103 $104 $23 $-1 $105 reversed single #
loop $-1 $-1 $106 $41 #
plane-surface $-1 -61.508224738303781 24.05700884450129 8.2631944793722738 -0.83867057594974714 0 0.54463902268945019 0.54463902268945019 0 0.83867057594974714 forward_v I I I I #
coedge $-1 $107 $108 $109 $110 reversed $42 $-1 #
face $-1 $-1 $111 $24 $-1 $112 forward single #
loop $-1 $113 $114 $44 #
cone-surface $-1 -56.79043066144169 21.148454233220136 11.001531391173604 0.83867057594974714 0 -0.54463902268945019 0.2723195113447251 0 0.41933528797487357 1 I I -0.70710678118654746 0.70710678118654746 0.5 forward I I I I #
loop $-1 $-1 $115 $31 #
coedge $-1 $72 $72 $116 $117 reversed $45 $-1 #
face $-1 $-1 $118 $25 $-1 $119 forward single #
loop $-1 $120 $121 $47 #
cone-surface $-1 -56.79043066144169 26.965563455782465 11.001531391173604 0.83867057594974714 0 -0.54463902268945019 0.2723195113447251 0 0.41933528797487357 1 I I -0.70710678118654746 0.70710678118654746 0.5 forward I I I I #
loop $-1 $-1 $122 $32 #
coedge $-1 $77 $77 $123 $124 reversed $48 $-1 #
face $-1 $125 $126 $26 $-1 $127 reversed single #
loop $-1 $-1 $128 $50 #
plane-surface $-1 -41.66205024080395 17.488107694600188 67.061018925541944 0.54463904215088732 0 0.83867056331134215 0.83867056331134215 0 -0.54463904215088732 forward_v I I I I #
coedge $-1 $129 $130 $131 $132 reversed $51 $-1 #
face $-1 $-1 $133 $27 $-1 $134 forward single #
loop $-1 $135 $136 $53 #
cone-surface $-1 46.277001875695291 17.488107694600188 4.1900801003965533 -0.54463904215088732 0 -0.83867056331134215 0.62900292248350664 0 -0.40847928161316549 1 I I -0.70710678118654757 0.70710678118654757 0.75 forward I I I I #
loop $-1 $-1 $137 $34 #
coedge $-1 $86 $86 $138 $139 reversed $54 $-1 #
face $-1 $140 $141 $21 $-1 $142 reversed single #
loop $-1 $-1 $143 $56 #
plane-surface $-1 0 -40.531192619081857 0 0 1 0 0 0 1 forward_v I I I I #
coedge $-1 $144 $145 $146 $147 forward $57 $-1 #
coedge $-1 $148 $59 $149 $150 forward $36 $-1 #
coedge $-1 $59 $148 $151 $152 forward $36 $-1 #
coedge $-1 $153 $154 $59 $94 reversed $155 $-1 #
edge $-1 $156 -40.531192619081857 $157 40.531192619081857 $93 $158 forward 7 unknown #
face $-1 $159 $160 $22 $-1 $161 reversed single #
loop $-1 $-1 $162 $60 #
plane-surface $-1 0 0 -16.425232720427996 0 0 1 1 0 0 forward_v I I I I #
coedge $-1 $163 $164 $165 $166 reversed $61 $-1 #
coedge $-1 $167 $63 $164 $168 forward $39 $-1 #
coedge $-1 $63 $167 $169 $170 reversed $39 $-1 #
coedge $-1 $171 $165 $63 $102 forward $160 $-1 #
edge $-1 $172 6.3911345085292801 $173 24.890416909878144 $101 $174 forward 7 unknown #
face $-1 $175 $176 $23 $-1 $177 forward single #
loop $-1 $-1 $178 $64 #
plane-surface $-1 -164.67850127214322 30.843636270824007 75.262753297037946 0 -1 0 0.83867057594974714 0 -0.54463902268945019 forward_v I I I I #
coedge $-1 $179 $180 $181 $182 reversed $65 $-1 #
coedge $-1 $108 $67 $183 $184 reversed $42 $-1 #
coedge $-1 $67 $107 $179 $185 reversed $42 $-1 #
coedge $-1 $181 $186 $67 $110 forward $176 $-1 #
edge $-1 $187 20.83102589776783 $188 26.131515336935749 $109 $189 forward 7 unknown #
loop $-1 $-1 $116 $68 #
plane-surface $-1 -61.508224738303781 24.05700884450129 8.2631944793722738 -0.83867057594974714 0 0.54463902268945019 0.54463902268945019 0 0.83867057594974714 forward_v I I I I #
loop $-1 $-1 $190 $44 #
coedge $-1 $114 $114 $115 $191 reversed $69 $-1 #
coedge $-1 $115 $115 $114 $191 forward $71 $-1 #
coedge $-1 $116 $116 $72 $117 forward $111 $-1 #
edge $-1 $192 0 $192 6.2831853071796004 $116 $193 forward 7 unknown #
loop $-1 $-1 $123 $73 #
plane-surface $-1 -61.508224738303781 24.05700884450129 8.2631944793722738 -0.83867057594974714 0 0.54463902268945019 0.54463902268945019 0 0.83867057594974714 forward_v I I I I #
loop $-1 $-1 $194 $47 #
coedge $-1 $121 $121 $122 $195 reversed $74 $-1 #
coedge $-1 $122 $122 $121 $195 forward $76 $-1 #
coedge $-1 $123 $123 $77 $124 forward $118 $-1 #
edge $-1 $196 0 $196 6.2831853071796004 $123 $197 forward 7 unknown #
face $-1 $198 $199 $26 $-1 $200 reversed single #
loop $-1 $-1 $201 $78 #
plane-surface $-1 25.337510970938624 8.2458875512625625 170.23129390464968 0 1 0 0.54463904215088732 0 0.83867056331134215 forward_v I I I I #
coedge $-1 $202 $203 $204 $205 reversed $79 $-1 #
coedge $-1 $130 $81 $206 $207 reversed $51 $-1 #
coedge $-1 $81 $129 $202 $208 reversed $51 $-1 #
coedge $-1 $204 $209 $81 $132 forward $210 $-1 #
edge $-1 $211 -48.839469252834469 $212 -23.641465913758317 $131 $213 forward 7 unknown #
loop $-1 $-1 $138 $82 #
plane-surface $-1 -41.66205024080395 17.488107694600188 67.061018925541944 0.54463904215088732 0 0.83867056331134215 0.83867056331134215 0 -0.54463904215088732 forward_v I I I I #
loop $-1 $-1 $214 $53 #
coedge $-1 $136 $136 $137 $215 reversed $83 $-1 #
coedge $-1 $137 $137 $136 $215 forward $85 $-1 #
coedge $-1 $138 $138 $86 $139 forward $133 $-1 #
edge $-1 $216 0 $216 6.2831853071796004 $138 $217 forward 7 unknown #
face $-1 $218 $219 $21 $-1 $220 reversed single #
loop $-1 $-1 $221 $87 #
plane-surface $-1 -61.508224738303781 0 0 1 0 0 0 0 -1 forward_v I I I I #
coedge $-1 $222 $151 $223 $224 forward $88 $-1 #
coedge $-1 $225 $90 $222 $226 forward $57 $-1 #
coedge $-1 $90 $225 $227 $228 forward $57 $-1 #
coedge $-1 $154 $153 $90 $147 reversed $155 $-1 #
edge $-1 $229 -40.531192619081857 $230 40.531192619081857 $146 $231 forward 7 unknown #
coedge $-1 $92 $91 $232 $233 forward $36 $-1 #
coedge $-1 $234 $235 $91 $150 reversed $219 $-1 #
edge $-1 $157 -61.508224738303781 $236 61.508224738303781 $149 $237 forward 7 unknown #
coedge $-1 $143 $238 $92 $152 reversed $88 $-1 #
edge $-1 $239 -61.508224738303781 $156 61.508224738303781 $151 $240 forward 7 unknown #
coedge $-1 $146 $93 $238 $241 forward $155 $-1 #
coedge $-1 $93 $146 $234 $242 reversed $155 $-1 #
loop $-1 $-1 $153 $218 #
vertex $-1 $94 $243 #
vertex $-1 $94 $244 #
straight-curve $-1 61.508224738303781 0 16.425232720427996 0 1 0 I I #
face $-1 $245 $246 $22 $-1 $247 reversed single #
loop $-1 $-1 $165 $95 #
plane-surface $-1 61.508224738303781 0 0 -1 0 0 0 0 1 forward_v I I I I #
coedge $-1 $248 $249 $163 $250 forward $96 $-1 #
coedge $-1 $251 $98 $162 $250 reversed $61 $-1 #
coedge $-1 $98 $251 $99 $168 reversed $61 $-1 #
coedge $-1 $101 $252 $98 $166 forward $160 $-1 #
edge $-1 $253 -10.171317968339135 $172 -2.3365115358385857 $165 $254 forward 7 unknown #
coedge $-1 $100 $99 $255 $256 reversed $39 $-1 #
edge $-1 $172 -61.508224738303781 $257 61.508224738303781 $164 $258 forward 7 unknown #
coedge $-1 $259 $260 $100 $170 forward $246 $-1 #
edge $-1 $173 -61.508224738303781 $261 61.508224738303781 $169 $262 forward 7 unknown #
coedge $-1 $252 $101 $260 $263 forward $160 $-1 #
vertex $-1 $102 $264 #
vertex $-1 $263 $265 #
straight-curve $-1 61.508224738303781 -15.640775709203712 -8.5904262879274462 0 -1 0 I I #
face $-1 $-1 $266 $23 $-1 $267 reversed single #
loop $-1 $-1 $109 $103 #
plane-surface $-1 0 0 16.425232720427996 0 0 1 1 0 0 forward_v I I I I #
coedge $-1 $268 $269 $270 $271 reversed $104 $-1 #
coedge $-1 $272 $106 $108 $185 forward $65 $-1 #
coedge $-1 $106 $272 $268 $273 forward $65 $-1 #
coedge $-1 $270 $109 $106 $182 forward $176 $-1 #
edge $-1 $188 5.2418769959279281 $274 18.815131848573362 $181 $275 forward 7 unknown #
coedge $-1 $276 $277 $107 $184 forward $266 $-1 #
edge $-1 $278 -29.368182169146699 $187 -21.206143928090977 $183 $279 forward 7 unknown #
edge $-1 $188 -9.7321147004742308 $278 0 $108 $280 forward 7 unknown #
coedge $-1 $109 $270 $276 $281 forward $176 $-1 #
vertex $-1 $184 $282 #
vertex $-1 $110 $283 #
straight-curve $-1 -82.339250636071611 17.270381418178573 16.425232720427996 1 0 0 I I #
coedge $-1 $190 $190 $-1 $284 reversed $113 $-1 #
edge $-1 $285 0 $285 6.2831853071796004 $114 $286 forward 7 unknown #
vertex $-1 $117 $287 #
ellipse-curve $-1 -58.857980018719822 21.148454233220136 12.344213599900138 -0.83867057594974714 0 0.54463902268945019 0.54463902268945019 0 0.83867057594974714 1 I I #
coedge $-1 $194 $194 $-1 $288 reversed $120 $-1 #
edge $-1 $289 0 $289 6.2831853071796004 $121 $290 forward 7 unknown #
vertex $-1 $124 $291 #
ellipse-curve $-1 -58.857980018719822 26.965563455782465 12.344213599900138 -0.83867057594974714 0 0.54463902268945019 0.54463902268945019 0 0.83867057594974714 1 I I #
face $-1 $-1 $210 $26 $-1 $292 forward single #
loop $-1 $-1 $293 $125 #
plane-surface $-1 61.508224738303781 0 0 -1 0 0 0 0 1 forward_v I I I I #
coedge $-1 $294 $295 $296 $297 reversed $126 $-1 #
coedge $-1 $298 $128 $130 $208 forward $79 $-1 #
coedge $-1 $128 $298 $294 $299 forward $79 $-1 #
coedge $-1 $296 $131 $128 $205 forward $210 $-1 #
edge $-1 $212 -17.98627399063772 $300 0.49816629603753171 $204 $301 forward 7 unknown #
coedge $-1 $302 $303 $129 $207 forward $199 $-1 #
edge $-1 $304 -85.054189238525453 $211 -68.690414231896838 $206 $305 forward 7 unknown #
edge $-1 $212 92.971275076320651 $304 123.01644947660756 $130 $306 forward 7 unknown #
coedge $-1 $131 $296 $302 $307 forward $210 $-1 #
loop $-1 $-1 $296 $198 #
vertex $-1 $207 $308 #
vertex $-1 $132 $309 #
straight-curve $-1 12.668755485469312 26.730327837937814 16.425232720427999 -1 0 0 I I #
coedge $-1 $214 $214 $-1 $310 reversed $135 $-1 #
edge $-1 $311 0 $311 6.2831853071796004 $136 $312 forward 7 unknown #
vertex $-1 $139 $313 #
ellipse-curve $-1 48.909223068765712 17.488107694600188 8.2433452171136867 0.54463904215088732 0 0.83867056331134215 1.2580058449670133 0 -0.81695856322633098 1 I I #
face $-1 $-1 $155 $21 $-1 $314 reversed single #
loop $-1 $-1 $234 $140 #
plane-surface $-1 0 40.531192619081857 0 0 -1 0 0 0 -1 forward_v I I I I #
coedge $-1 $315 $232 $235 $316 forward $141 $-1 #
coedge $-1 $238 $143 $144 $226 reversed $88 $-1 #
coedge $-1 $232 $315 $143 $224 reversed $141 $-1 #
edge $-1 $239 -16.425232720427996 $317 16.425232720427996 $223 $318 forward 7 unknown #
coedge $-1 $145 $144 $315 $319 forward $57 $-1 #
edge $-1 $230 -61.508224738303781 $317 61.508224738303781 $222 $320 forward 7 unknown #
coedge $-1 $235 $234 $145 $228 reversed $219 $-1 #
edge $-1 $321 -61.508224738303781 $229 61.508224738303781 $227 $322 forward 7 unknown #
vertex $-1 $147 $323 #
vertex $-1 $241 $324 #
straight-curve $-1 61.508224738303781 0 -16.425232720427996 0 -1 0 I I #
coedge $-1 $221 $223 $148 $233 reversed $141 $-1 #
edge $-1 $236 -40.531192619081857 $239 40.531192619081857 $232 $325 forward 7 unknown #
coedge $-1 $227 $149 $154 $242 forward $219 $-1 #
coedge $-1 $149 $227 $221 $316 reversed $219 $-1 #
vertex $-1 $150 $326 #
straight-curve $-1 0 40.531192619081857 16.425232720427996 -1 0 0 I I #
coedge $-1 $151 $222 $153 $241 reversed $88 $-1 #
vertex $-1 $233 $327 #
straight-curve $-1 0 -40.531192619081857 16.425232720427996 1 0 0 I I #
edge $-1 $156 -16.425232720427996 $230 16.425232720427996 $153 $328 forward 7 unknown #
edge $-1 $157 -16.425232720427996 $229 16.425232720427996 $154 $329 forward 7 unknown #
point $-1 61.508224738303781 -40.531192619081857 16.425232720427996 #
point $-1 61.508224738303781 40.531192619081857 16.425232720427996 #
face $-1 $-1 $330 $22 $-1 $331 reversed single #
loop $-1 $-1 $169 $159 #
plane-surface $-1 0 -40.531192619081857 0 0 1 0 0 0 1 forward_v I I I I #
coedge $-1 $332 $162 $252 $333 forward $96 $-1 #
coedge $-1 $162 $332 $334 $335 forward $96 $-1 #
edge $-1 $336 -61.508224738303781 $253 61.508224738303781 $162 $337 forward 7 unknown #
coedge $-1 $164 $163 $338 $339 reversed $61 $-1 #
coedge $-1 $165 $171 $248 $333 reversed $160 $-1 #
vertex $-1 $333 $340 #
straight-curve $-1 61.508224738303781 -22.031910217732992 -6.2539147520888605 0 0 1 I I #
coedge $-1 $338 $341 $167 $256 forward $330 $-1 #
edge $-1 $261 -24.890416909878144 $257 -6.3911345085292801 $255 $342 forward 7 unknown #
vertex $-1 $256 $343 #
straight-curve $-1 0 -22.031910217732992 -8.5904262879274462 -1 0 0 I I #
coedge $-1 $344 $169 $341 $345 forward $246 $-1 #
coedge $-1 $169 $344 $171 $263 reversed $246 $-1 #
vertex $-1 $345 $346 #
straight-curve $-1 0 -40.531192619081857 -8.5904262879274462 -1 0 0 I I #
edge $-1 $173 8.5904262879274462 $347 16.425232720427996 $171 $348 forward 7 unknown #
point $-1 61.508224738303781 -22.031910217732992 -8.5904262879274462 #
point $-1 61.508224738303781 -40.531192619081857 -8.5904262879274462 #
loop $-1 $-1 $183 $175 #
plane-surface $-1 -61.508224738303781 0 0 1 0 0 0 0 -1 forward_v I I I I #
coedge $-1 $269 $178 $180 $273 reversed $104 $-1 #
coedge $-1 $178 $268 $349 $350 reversed $104 $-1 #
coedge $-1 $186 $181 $178 $271 forward $176 $-1 #
edge $-1 $274 -26.131515336935749 $351 -20.83102589776783 $270 $352 forward 7 unknown #
coedge $-1 $180 $179 $277 $353 reversed $65 $-1 #
edge $-1 $354 0 $274 9.7321147004742308 $268 $355 forward 7 unknown #
vertex $-1 $182 $356 #
straight-curve $-1 -56.207735299135862 12.028504422250645 16.425232720427996 0 1 0 I I #
coedge $-1 $349 $183 $186 $281 reversed $266 $-1 #
coedge $-1 $183 $349 $272 $353 forward $266 $-1 #
vertex $-1 $184 $357 #
straight-curve $-1 -61.508224738303781 17.270381418178573 37.631376648518973 0 0 1 I I #
straight-curve $-1 -61.508224738303781 17.270381418178573 8.2631944793722738 -0.54463902268945019 0 -0.83867057594974714 I I #
edge $-1 $351 -30.843636270824007 $187 -17.270381418178573 $276 $358 forward 7 unknown #
point $-1 -61.508224738303781 17.270381418178573 16.425232720427996 #
point $-1 -56.207735299135862 17.270381418178573 16.425232720427996 #
edge $-1 $359 1 $359 0 $190 $-1 forward 7 unknown #
vertex $-1 $191 $360 #
ellipse-curve $-1 -57.209765949416564 21.148454233220136 11.273850902518328 -0.83867057594974714 0 0.54463902268945019 0.54463902268945019 0 0.83867057594974714 1 I I #
point $-1 -58.313340996030377 21.148454233220136 13.182884175849889 #
edge $-1 $361 1 $361 0 $194 $-1 forward 7 unknown #
vertex $-1 $195 $362 #
ellipse-curve $-1 -57.209765949416564 26.965563455782465 11.273850902518328 -0.83867057594974714 0 0.54463902268945019 0.54463902268945019 0 0.83867057594974714 1 I I #
point $-1 -58.313340996030377 26.965563455782465 13.182884175849889 #
plane-surface $-1 0 0 16.425232720427996 0 0 1 1 0 0 forward_v I I I I #
coedge $-1 $303 $302 $295 $363 forward $199 $-1 #
coedge $-1 $295 $201 $203 $299 reversed $126 $-1 #
coedge $-1 $201 $294 $293 $363 reversed $126 $-1 #
coedge $-1 $209 $204 $201 $297 forward $210 $-1 #
edge $-1 $300 23.641465913758317 $364 48.839469252834469 $296 $365 forward 7 unknown #
coedge $-1 $203 $202 $303 $366 reversed $79 $-1 #
edge $-1 $367 -123.01644947660756 $300 -92.971275076320651 $294 $368 forward 7 unknown #
vertex $-1 $205 $369 #
straight-curve $-1 36.310221399227636 8.7440538473000942 16.425232720427992 0 -1 0 I I #
coedge $-1 $293 $206 $209 $307 reversed $199 $-1 #
coedge $-1 $206 $293 $298 $366 forward $199 $-1 #
vertex $-1 $207 $370 #
straight-curve $-1 61.508224738303781 26.730327837937814 85.115646952324838 0 0 1 I I #
straight-curve $-1 -41.66205024080395 26.730327837937814 67.061018925541944 0.83867056331134215 0 -0.54463904215088732 I I #
edge $-1 $364 8.2458875512625625 $211 26.730327837937814 $302 $371 forward 7 unknown #
point $-1 61.508224738303781 26.730327837937814 16.425232720427996 #
point $-1 36.310221399227629 26.730327837937814 16.425232720427999 #
edge $-1 $372 1 $372 0 $214 $-1 forward 7 unknown #
vertex $-1 $215 $373 #
ellipse-curve $-1 46.685481157308459 17.488107694600188 4.8190830228800596 0.54463904215088732 0 0.83867056331134215 1.2580058449670133 0 -0.81695856322633098 1 I I #
point $-1 50.167228913732721 17.488107694600188 7.4263866538873451 #
plane-surface $-1 61.508224738303781 0 0 -1 0 0 0 0 1 forward_v I I I I #
coedge $-1 $223 $221 $225 $319 reversed $141 $-1 #
edge $-1 $236 -16.425232720427996 $321 16.425232720427996 $235 $374 forward 7 unknown #
vertex $-1 $319 $375 #
straight-curve $-1 -61.508224738303781 -40.531192619081857 0 0 0 -1 I I #
edge $-1 $317 -40.531192619081857 $321 40.531192619081857 $315 $376 forward 7 unknown #
straight-curve $-1 0 -40.531192619081857 -16.425232720427996 -1 0 0 I I #
vertex $-1 $228 $377 #
straight-curve $-1 0 40.531192619081857 -16.425232720427996 1 0 0 I I #
point $-1 61.508224738303781 40.531192619081857 -16.425232720427996 #
point $-1 61.508224738303781 -40.531192619081857 -16.425232720427996 #
straight-curve $-1 -61.508224738303781 0 16.425232720427996 0 -1 0 I I #
point $-1 -61.508224738303781 40.531192619081857 16.425232720427996 #
point $-1 -61.508224738303781 -40.531192619081857 16.425232720427996 #
straight-curve $-1 61.508224738303781 -40.531192619081857 0 0 0 -1 I I #
straight-curve $-1 61.508224738303781 40.531192619081857 0 0 0 -1 I I #
loop $-1 $-1 $338 $245 #
plane-surface $-1 -61.508224738303781 0 0 1 0 0 0 0 -1 forward_v I I I I #
coedge $-1 $249 $248 $344 $378 forward $96 $-1 #
edge $-1 $253 22.031910217732992 $347 40.531192619081857 $252 $379 forward 7 unknown #
coedge $-1 $341 $338 $249 $335 reversed $330 $-1 #
edge $-1 $380 -40.531192619081857 $336 -22.031910217732992 $334 $381 forward 7 unknown #
vertex $-1 $339 $382 #
straight-curve $-1 0 -22.031910217732992 -16.425232720427996 1 0 0 I I #
coedge $-1 $334 $255 $251 $339 forward $330 $-1 #
edge $-1 $257 2.3365115358385857 $336 10.171317968339135 $338 $383 forward 7 unknown #
point $-1 61.508224738303781 -22.031910217732992 -16.425232720427996 #
coedge $-1 $255 $334 $259 $345 reversed $330 $-1 #
straight-curve $-1 -61.508224738303781 -15.640775709203712 -8.5904262879274462 0 1 0 I I #
point $-1 -61.508224738303781 -22.031910217732992 -8.5904262879274462 #
coedge $-1 $260 $259 $332 $378 reversed $246 $-1 #
edge $-1 $261 8.5904262879274462 $380 16.425232720427996 $341 $384 forward 7 unknown #
point $-1 -61.508224738303781 -40.531192619081857 -8.5904262879274462 #
vertex $-1 $263 $385 #
straight-curve $-1 61.508224738303781 -40.531192619081857 0 0 0 -1 I I #
coedge $-1 $277 $276 $269 $350 forward $266 $-1 #
edge $-1 $351 21.206143928090977 $354 29.368182169146699 $349 $386 forward 7 unknown #
vertex $-1 $281 $387 #
straight-curve $-1 -82.339250636071611 30.843636270824007 16.425232720427996 -1 0 0 I I #
edge $-1 $354 -18.815131848573362 $278 -5.2418769959279281 $277 $388 forward 7 unknown #
vertex $-1 $353 $389 #
straight-curve $-1 -61.508224738303781 30.843636270824007 8.2631944793722738 0.54463902268945019 0 0.83867057594974714 I I #
point $-1 -56.207735299135862 30.843636270824007 16.425232720427996 #
point $-1 -61.508224738303781 17.270381418178573 8.2631944793722738 #
straight-curve $-1 -61.508224738303781 0 16.425232720427996 0 -1 0 I I #
vertex $-1 $284 $390 #
point $-1 -56.665126926727112 21.148454233220136 12.112521478468075 #
vertex $-1 $288 $391 #
point $-1 -56.665126926727112 26.965563455782465 12.112521478468075 #
edge $-1 $364 68.690414231896838 $367 85.054189238525453 $293 $392 forward 7 unknown #
vertex $-1 $307 $393 #
straight-curve $-1 12.668755485469312 8.2458875512625625 16.425232720427999 1 0 0 I I #
edge $-1 $367 -0.49816629603753171 $304 17.98627399063772 $303 $394 forward 7 unknown #
vertex $-1 $366 $395 #
straight-curve $-1 -41.66205024080395 8.2458875512625625 67.061018925541944 -0.83867056331134215 0 0.54463904215088732 I I #
point $-1 36.310221399227629 8.2458875512625625 16.425232720427999 #
point $-1 61.508224738303781 26.730327837937814 0.061457713799384805 #
straight-curve $-1 61.508224738303781 0 16.425232720427996 0 1 0 I I #
vertex $-1 $310 $396 #
point $-1 47.943487002275468 17.488107694600188 4.0021244596537286 #
straight-curve $-1 -61.508224738303781 40.531192619081857 0 0 0 -1 I I #
point $-1 -61.508224738303781 -40.531192619081857 -16.425232720427996 #
straight-curve $-1 -61.508224738303781 0 -16.425232720427996 0 1 0 I I #
point $-1 -61.508224738303781 40.531192619081857 -16.425232720427996 #
edge $-1 $347 -61.508224738303781 $380 61.508224738303781 $344 $397 forward 7 unknown #
straight-curve $-1 61.508224738303781 0 -16.425232720427996 0 -1 0 I I #
vertex $-1 $335 $398 #
straight-curve $-1 -61.508224738303781 0 -16.425232720427996 0 1 0 I I #
point $-1 -61.508224738303781 -22.031910217732992 -16.425232720427996 #
straight-curve $-1 -61.508224738303781 -22.031910217732992 -6.2539147520888605 0 0 -1 I I #
straight-curve $-1 -61.508224738303781 -40.531192619081857 0 0 0 -1 I I #
point $-1 61.508224738303781 -40.531192619081857 -16.425232720427996 #
straight-curve $-1 -61.508224738303781 30.843636270824007 37.631376648518973 0 0 -1 I I #
point $-1 -61.508224738303781 30.843636270824007 16.425232720427996 #
straight-curve $-1 -61.508224738303781 12.028504422250645 8.2631944793722703 0 -1 0 I I #
point $-1 -61.508224738303781 30.843636270824007 8.2631944793722738 #
point $-1 -56.371095373466815 21.148454233220136 10.729211879828879 #
point $-1 -56.371095373466815 26.965563455782465 10.729211879828879 #
straight-curve $-1 61.508224738303781 8.2458875512625625 85.115646952324838 0 0 -1 I I #
point $-1 61.508224738303781 8.2458875512625625 16.425232720427996 #
straight-curve $-1 61.508224738303781 8.7440538473000942 0.061457713799370595 0 1 0 I I #
point $-1 61.508224738303781 8.2458875512625625 0.061457713799384805 #
point $-1 45.868522594082123 17.488107694600188 3.5610771779130466 #
straight-curve $-1 0 -40.531192619081857 -16.425232720427996 -1 0 0 I I #
point $-1 -61.508224738303781 -40.531192619081857 -16.425232720427996 #
End-of-ACIS-data 