500 0 9 0           
7 Unknown 11 ACIS 5.0 NT 24 Thu Mar 25 18:23:54 1999 
-1 9.9999999999999995e-007 1e-010 
body $-1 $9 $-1 $10 #
body $-1 $11 $-1 $12 #
body $-1 $13 $-1 $14 #
body $-1 $15 $-1 $16 #
body $-1 $17 $-1 $18 #
body $-1 $19 $-1 $20 #
body $-1 $21 $-1 $22 #
body $-1 $23 $-1 $24 #
body $-1 $25 $-1 $26 #
lump $-1 $-1 $27 $0 #
transform $-1 1 0 0 0 1 0 0 0 1 74.156315805536053 50.536600202409787 15.737800901071497 1 rotate no_reflect no_shear #
lump $-1 $-1 $28 $1 #
transform $-1 1 0 0 0 1 0 0 0 1 74.156315805536053 50.536600202409787 15.737800901071497 1 rotate no_reflect no_shear #
lump $-1 $-1 $29 $2 #
transform $-1 1 0 0 0 1 0 0 0 1 74.156315805536053 50.536600202409787 15.737800901071497 1 rotate no_reflect no_shear #
lump $-1 $-1 $30 $3 #
transform $-1 1 0 0 0 1 0 0 0 1 74.156315805536053 50.536600202409787 15.737800901071497 1 rotate no_reflect no_shear #
lump $-1 $-1 $31 $4 #
transform $-1 1 0 0 0 1 0 0 0 1 74.156315805536053 50.536600202409787 15.737800901071497 1 rotate no_reflect no_shear #
lump $-1 $-1 $32 $5 #
transform $-1 1 0 0 0 1 0 0 0 1 74.156315805536053 50.536600202409787 15.737800901071497 1 rotate no_reflect no_shear #
lump $-1 $-1 $33 $6 #
transform $-1 1 0 0 0 1 0 0 0 1 74.156315805536053 50.536600202409787 15.737800901071497 1 rotate no_reflect no_shear #
lump $-1 $-1 $34 $7 #
transform $-1 1 0 0 0 1 0 0 0 1 74.156315805536053 50.536600202409787 15.737800901071497 1 rotate no_reflect no_shear #
lump $-1 $-1 $35 $8 #
transform $-1 1 0 0 0 1 0 0 0 1 74.156315805536053 50.536600202409787 15.737800901071497 1 rotate no_reflect no_shear #
shell $-1 $-1 $-1 $36 $-1 $9 #
shell $-1 $-1 $-1 $37 $-1 $11 #
shell $-1 $-1 $-1 $38 $-1 $13 #
shell $-1 $-1 $-1 $39 $-1 $15 #
shell $-1 $-1 $-1 $40 $-1 $17 #
shell $-1 $-1 $-1 $41 $-1 $19 #
shell $-1 $-1 $-1 $42 $-1 $21 #
shell $-1 $-1 $-1 $43 $-1 $23 #
shell $-1 $-1 $-1 $44 $-1 $25 #
face $-1 $45 $46 $27 $-1 $47 forward single #
face $-1 $48 $49 $28 $-1 $50 forward single #
face $-1 $51 $52 $29 $-1 $53 reversed single #
face $-1 $54 $55 $30 $-1 $56 forward single #
face $-1 $57 $58 $31 $-1 $59 reversed single #
face $-1 $60 $61 $32 $-1 $62 forward single #
face $-1 $63 $64 $33 $-1 $65 reversed single #
face $-1 $66 $67 $34 $-1 $68 forward single #
face $-1 $69 $70 $35 $-1 $71 forward single #
face $-1 $72 $73 $27 $-1 $74 reversed single #
loop $-1 $-1 $75 $36 #
plane-surface $-1 0 0 15.737800901071497 0 0 1 1 0 0 forward_v I I I I #
face $-1 $76 $77 $28 $-1 $78 reversed single #
loop $-1 $-1 $79 $37 #
plane-surface $-1 0 -50.536600202409787 0 0 1 0 0 0 1 forward_v I I I I #
face $-1 $80 $81 $29 $-1 $82 reversed single #
loop $-1 $-1 $83 $38 #
plane-surface $-1 -198.54175597941656 -10.085029453636672 81.253440376293099 0 1 0 -0.83867057594974714 0 0.54463902268945019 forward_v I I I I #
face $-1 $84 $85 $30 $-1 $86 forward single #
loop $-1 $87 $88 $39 #
cone-surface $-1 -67.93017266947831 -3.2498558449115365 7.281948729447234 0.83867057594974714 0 -0.54463902268945019 0.81695853403417529 0 1.2580058639246208 1 I I 0 1 1.5 forward I I I I #
face $-1 $89 $90 $31 $-1 $91 reversed single #
loop $-1 $-1 $92 $40 #
plane-surface $-1 -198.54175597941656 11.845325373890681 81.253440376293099 0 1 0 -0.83867057594974714 0 0.54463902268945019 forward_v I I I I #
face $-1 $93 $94 $32 $-1 $95 forward single #
loop $-1 $96 $97 $41 #
cone-surface $-1 -67.93017266947831 18.680498982615816 7.281948729447234 0.83867057594974714 0 -0.54463902268945019 0.81695853403417529 0 1.2580058639246208 1 I I 0 1 1.5 forward I I I I #
face $-1 $98 $99 $33 $-1 $100 reversed single #
loop $-1 $-1 $101 $42 #
plane-surface $-1 59.525195154261837 -14.227071594052184 219.77117883849598 0 -1 0 -0.6560590369687036 0 -0.75470957328743171 forward_v I I I I #
face $-1 $102 $103 $34 $-1 $104 forward single #
loop $-1 $105 $106 $43 #
cone-surface $-1 70.494973244303338 -29.140561215947407 12.366842209507571 -0.6560590369687036 0 -0.75470957328743171 0.75470957328743171 0 -0.6560590369687036 1 I I 0 1 1 forward I I I I #
face $-1 $107 $108 $35 $-1 $109 forward single #
loop $-1 $110 $111 $44 #
cone-surface $-1 70.494973244303338 -20.192467442810276 12.366842209507571 -0.6560590369687036 0 -0.75470957328743171 0.75470957328743171 0 -0.6560590369687036 1 I I 0 1 1 forward I I I I #
face $-1 $112 $113 $27 $-1 $114 reversed single #
loop $-1 $-1 $115 $45 #
plane-surface $-1 0 0 -15.737800901071497 0 0 1 1 0 0 forward_v I I I I #
coedge $-1 $116 $117 $118 $119 forward $46 $-1 #
face $-1 $120 $121 $28 $-1 $122 forward single #
loop $-1 $-1 $123 $48 #
plane-surface $-1 -74.156315805536053 0 0 1 0 0 0 0 -1 forward_v I I I I #
coedge $-1 $124 $125 $126 $127 forward $49 $-1 #
face $-1 $128 $129 $29 $-1 $130 reversed single #
loop $-1 $-1 $131 $51 #
plane-surface $-1 -74.156315805536039 -3.2498558449115365 0.47659364313832953 -0.83867057594974714 0 0.54463902268945019 0.54463902268945019 0 0.83867057594974714 forward_v I I I I #
coedge $-1 $132 $133 $134 $135 reversed $52 $-1 #
face $-1 $-1 $136 $30 $-1 $137 forward single #
loop $-1 $138 $139 $54 #
cone-surface $-1 -66.030398379351595 -3.2498558449115365 6.0482209197724668 0.83867057594974714 0 -0.54463902268945019 0.40847926701708764 0 0.62900293196231039 1 I I -0.70710678118654757 0.70710678118654757 0.75 forward I I I I #
loop $-1 $-1 $140 $39 #
coedge $-1 $88 $88 $141 $142 reversed $55 $-1 #
face $-1 $143 $144 $31 $-1 $145 reversed single #
loop $-1 $-1 $146 $57 #
plane-surface $-1 -74.156315805536039 18.680498982615816 0.47659364313832953 -0.83867057594974714 0 0.54463902268945019 0.54463902268945019 0 0.83867057594974714 forward_v I I I I #
coedge $-1 $147 $148 $149 $150 reversed $58 $-1 #
face $-1 $-1 $151 $32 $-1 $152 forward single #
loop $-1 $153 $154 $60 #
cone-surface $-1 -66.030398379351595 18.680498982615816 6.0482209197724668 0.83867057594974714 0 -0.54463902268945019 0.40847926701708764 0 0.62900293196231039 1 I I -0.70710678118654757 0.70710678118654757 0.75 forward I I I I #
loop $-1 $-1 $155 $41 #
coedge $-1 $97 $97 $156 $157 reversed $61 $-1 #
face $-1 $158 $159 $33 $-1 $160 reversed single #
loop $-1 $-1 $161 $63 #
plane-surface $-1 -37.77664711079224 -24.666514329378838 107.83821592216771 0.6560590369687036 0 0.75470957328743171 0.75470957328743171 0 -0.6560590369687036 forward_v I I I I #
coedge $-1 $162 $163 $164 $165 reversed $64 $-1 #
face $-1 $-1 $166 $34 $-1 $167 forward single #
loop $-1 $168 $169 $66 #
cone-surface $-1 69.49737988766509 -29.140561215947407 11.219242353278856 -0.6560590369687036 0 -0.75470957328743171 0.37735478664371586 0 -0.3280295184843518 1 I I -0.70710678118654746 0.70710678118654746 0.5 forward I I I I #
loop $-1 $-1 $170 $43 #
coedge $-1 $106 $106 $171 $172 reversed $67 $-1 #
face $-1 $-1 $173 $35 $-1 $174 forward single #
loop $-1 $175 $176 $69 #
cone-surface $-1 69.49737988766509 -20.192467442810276 11.219242353278856 -0.6560590369687036 0 -0.75470957328743171 0.37735478664371586 0 -0.3280295184843518 1 I I -0.70710678118654746 0.70710678118654746 0.5 forward I I I I #
loop $-1 $-1 $177 $44 #
coedge $-1 $111 $111 $178 $179 reversed $70 $-1 #
face $-1 $180 $181 $27 $-1 $182 reversed single #
loop $-1 $-1 $183 $72 #
plane-surface $-1 0 -50.536600202409787 0 0 1 0 0 0 1 forward_v I I I I #
coedge $-1 $184 $185 $186 $187 forward $73 $-1 #
coedge $-1 $188 $75 $189 $190 forward $46 $-1 #
coedge $-1 $75 $188 $191 $192 forward $46 $-1 #
coedge $-1 $193 $194 $75 $119 reversed $195 $-1 #
edge $-1 $196 -50.536600202409787 $197 50.536600202409787 $118 $198 forward 7 unknown #
face $-1 $199 $200 $28 $-1 $201 reversed single #
loop $-1 $-1 $202 $76 #
plane-surface $-1 0 -58.251921771261934 13.588777749098021 0 0 1 1 0 0 forward_v I I I I #
coedge $-1 $203 $204 $125 $205 forward $77 $-1 #
coedge $-1 $206 $79 $207 $208 reversed $49 $-1 #
coedge $-1 $79 $206 $123 $205 reversed $49 $-1 #
coedge $-1 $209 $202 $79 $127 reversed $121 $-1 #
edge $-1 $210 -74.156315805536053 $211 74.156315805536053 $126 $212 forward 7 unknown #
face $-1 $213 $214 $29 $-1 $215 forward single #
loop $-1 $-1 $216 $80 #
plane-surface $-1 -198.54175597941656 3.5853177638135989 81.253440376293099 0 -1 0 0.83867057594974714 0 -0.54463902268945019 forward_v I I I I #
coedge $-1 $217 $218 $219 $220 reversed $81 $-1 #
coedge $-1 $133 $83 $221 $222 reversed $52 $-1 #
coedge $-1 $83 $132 $217 $223 reversed $52 $-1 #
coedge $-1 $219 $224 $83 $135 forward $214 $-1 #
edge $-1 $225 25.114562184172229 $226 35.025305739958924 $134 $227 forward 7 unknown #
loop $-1 $-1 $141 $84 #
plane-surface $-1 -74.156315805536039 -3.2498558449115365 0.47659364313832953 -0.83867057594974714 0 0.54463902268945019 0.54463902268945019 0 0.83867057594974714 forward_v I I I I #
loop $-1 $-1 $228 $54 #
coedge $-1 $139 $139 $140 $229 reversed $85 $-1 #
coedge $-1 $140 $140 $139 $229 forward $87 $-1 #
coedge $-1 $141 $141 $88 $142 forward $136 $-1 #
edge $-1 $230 0 $230 6.2831853071796004 $141 $231 forward 7 unknown #
face $-1 $232 $233 $31 $-1 $234 forward single #
loop $-1 $-1 $235 $89 #
plane-surface $-1 -198.54175597941656 25.515672591340952 81.253440376293099 0 -1 0 0.83867057594974714 0 -0.54463902268945019 forward_v I I I I #
coedge $-1 $236 $237 $238 $239 reversed $90 $-1 #
coedge $-1 $148 $92 $240 $241 reversed $58 $-1 #
coedge $-1 $92 $147 $236 $242 reversed $58 $-1 #
coedge $-1 $238 $243 $92 $150 forward $233 $-1 #
edge $-1 $244 25.114562184172229 $245 35.025305739958924 $149 $246 forward 7 unknown #
loop $-1 $-1 $156 $93 #
plane-surface $-1 -74.156315805536039 18.680498982615816 0.47659364313832953 -0.83867057594974714 0 0.54463902268945019 0.54463902268945019 0 0.83867057594974714 forward_v I I I I #
loop $-1 $-1 $247 $60 #
coedge $-1 $154 $154 $155 $248 reversed $94 $-1 #
coedge $-1 $155 $155 $154 $248 forward $96 $-1 #
coedge $-1 $156 $156 $97 $157 forward $151 $-1 #
edge $-1 $249 0 $249 6.2831853071796004 $156 $250 forward 7 unknown #
face $-1 $251 $252 $33 $-1 $253 reversed single #
loop $-1 $-1 $254 $98 #
plane-surface $-1 59.525195154261837 -35.105957064705493 219.77117883849598 0 1 0 0.6560590369687036 0 0.75470957328743171 forward_v I I I I #
coedge $-1 $255 $256 $257 $258 reversed $99 $-1 #
coedge $-1 $163 $101 $259 $260 reversed $64 $-1 #
coedge $-1 $101 $162 $255 $261 reversed $64 $-1 #
coedge $-1 $257 $262 $101 $165 forward $263 $-1 #
edge $-1 $264 -44.393718228405135 $265 -38.410160782247544 $164 $266 forward 7 unknown #
loop $-1 $-1 $171 $102 #
plane-surface $-1 -37.77664711079224 -24.666514329378838 107.83821592216771 0.6560590369687036 0 0.75470957328743171 0.75470957328743171 0 -0.6560590369687036 forward_v I I I I #
loop $-1 $-1 $267 $66 #
coedge $-1 $169 $169 $170 $268 reversed $103 $-1 #
coedge $-1 $170 $170 $169 $268 forward $105 $-1 #
coedge $-1 $171 $171 $106 $172 forward $166 $-1 #
edge $-1 $269 0 $269 6.2831853071796004 $171 $270 forward 7 unknown #
loop $-1 $-1 $178 $107 #
plane-surface $-1 -37.77664711079224 -24.666514329378838 107.83821592216771 0.6560590369687036 0 0.75470957328743171 0.75470957328743171 0 -0.6560590369687036 forward_v I I I I #
loop $-1 $-1 $271 $69 #
coedge $-1 $176 $176 $177 $272 reversed $108 $-1 #
coedge $-1 $177 $177 $176 $272 forward $110 $-1 #
coedge $-1 $178 $178 $111 $179 forward $173 $-1 #
edge $-1 $273 0 $273 6.2831853071796004 $178 $274 forward 7 unknown #
face $-1 $275 $276 $27 $-1 $277 reversed single #
loop $-1 $-1 $278 $112 #
plane-surface $-1 -74.156315805536053 0 0 1 0 0 0 0 -1 forward_v I I I I #
coedge $-1 $279 $191 $280 $281 forward $113 $-1 #
coedge $-1 $282 $115 $279 $283 forward $73 $-1 #
coedge $-1 $115 $282 $284 $285 forward $73 $-1 #
coedge $-1 $194 $193 $115 $187 reversed $195 $-1 #
edge $-1 $286 -50.536600202409787 $287 50.536600202409787 $186 $288 forward 7 unknown #
coedge $-1 $117 $116 $289 $290 forward $46 $-1 #
coedge $-1 $291 $292 $116 $190 reversed $276 $-1 #
edge $-1 $197 -74.156315805536053 $293 74.156315805536053 $189 $294 forward 7 unknown #
coedge $-1 $183 $295 $117 $192 reversed $113 $-1 #
edge $-1 $296 -74.156315805536053 $196 74.156315805536053 $191 $297 forward 7 unknown #
coedge $-1 $186 $118 $295 $298 forward $195 $-1 #
coedge $-1 $118 $186 $291 $299 reversed $195 $-1 #
loop $-1 $-1 $193 $275 #
vertex $-1 $119 $300 #
vertex $-1 $119 $301 #
straight-curve $-1 74.156315805536053 0 15.737800901071497 0 1 0 I I #
face $-1 $302 $303 $28 $-1 $304 reversed single #
loop $-1 $-1 $305 $120 #
plane-surface $-1 0 -58.251921771261934 4.2638653526533297 0 0 1 1 0 0 forward_v I I I I #
coedge $-1 $126 $306 $307 $308 forward $121 $-1 #
coedge $-1 $309 $123 $310 $311 reversed $77 $-1 #
coedge $-1 $123 $309 $209 $312 reversed $77 $-1 #
edge $-1 $210 -13.588777749098021 $313 -4.2638653526533297 $123 $314 forward 7 unknown #
coedge $-1 $125 $124 $315 $316 forward $49 $-1 #
coedge $-1 $307 $317 $124 $208 forward $318 $-1 #
edge $-1 $319 4.2638653526533297 $211 13.588777749098021 $207 $320 forward 7 unknown #
coedge $-1 $306 $126 $204 $312 forward $121 $-1 #
vertex $-1 $205 $321 #
vertex $-1 $308 $322 #
straight-curve $-1 0 -50.536600202409787 13.588777749098021 1 0 0 I I #
face $-1 $-1 $323 $29 $-1 $324 reversed single #
loop $-1 $-1 $134 $128 #
plane-surface $-1 0 0 15.737800901071497 0 0 1 1 0 0 forward_v I I I I #
coedge $-1 $325 $326 $327 $328 reversed $129 $-1 #
coedge $-1 $329 $131 $133 $223 forward $81 $-1 #
coedge $-1 $131 $329 $325 $330 forward $81 $-1 #
coedge $-1 $327 $134 $131 $220 forward $214 $-1 #
edge $-1 $226 -8.4601015311809036 $331 5.2102456862693671 $219 $332 forward 7 unknown #
coedge $-1 $333 $334 $132 $222 forward $323 $-1 #
edge $-1 $335 -40.150126545008241 $225 -24.888919287075055 $221 $336 forward 7 unknown #
edge $-1 $226 -18.196903165048695 $335 2.6082680278521875e-014 $133 $337 forward 7 unknown #
coedge $-1 $134 $327 $333 $338 forward $214 $-1 #
vertex $-1 $222 $339 #
vertex $-1 $135 $340 #
straight-curve $-1 -99.270877989708282 -10.085029453636672 15.737800901071495 1 0 0 I I #
coedge $-1 $228 $228 $-1 $341 reversed $138 $-1 #
edge $-1 $342 0 $342 6.2831853071796004 $139 $343 forward 7 unknown #
vertex $-1 $142 $344 #
ellipse-curve $-1 -69.200944027642706 -3.2498558449115365 8.1071972721049068 -0.83867057594974714 0 0.54463902268945019 0.81695853403417529 0 1.2580058639246208 1 I I #
face $-1 $-1 $345 $31 $-1 $346 reversed single #
loop $-1 $-1 $149 $143 #
plane-surface $-1 0 0 15.737800901071497 0 0 1 1 0 0 forward_v I I I I #
coedge $-1 $347 $348 $349 $350 reversed $144 $-1 #
coedge $-1 $351 $146 $148 $242 forward $90 $-1 #
coedge $-1 $146 $351 $347 $352 forward $90 $-1 #
coedge $-1 $349 $149 $146 $239 forward $233 $-1 #
edge $-1 $245 2.5050758825827728 $353 16.175423100033044 $238 $354 forward 7 unknown #
coedge $-1 $355 $356 $147 $241 forward $345 $-1 #
edge $-1 $357 -40.150126545008241 $244 -24.888919287075055 $240 $358 forward 7 unknown #
edge $-1 $245 -18.196903165048695 $357 2.6082680278521875e-014 $148 $359 forward 7 unknown #
coedge $-1 $149 $349 $355 $360 forward $233 $-1 #
vertex $-1 $150 $361 #
vertex $-1 $150 $362 #
straight-curve $-1 -99.270877989708282 11.845325373890681 15.737800901071495 1 0 0 I I #
coedge $-1 $247 $247 $-1 $363 reversed $153 $-1 #
edge $-1 $364 0 $364 6.2831853071796004 $154 $365 forward 7 unknown #
vertex $-1 $157 $366 #
ellipse-curve $-1 -69.200944027642706 18.680498982615816 8.1071972721049068 -0.83867057594974714 0 0.54463902268945019 0.81695853403417529 0 1.2580058639246208 1 I I #
face $-1 $-1 $263 $33 $-1 $367 forward single #
loop $-1 $-1 $368 $158 #
plane-surface $-1 74.156315805536053 0 0 -1 0 0 0 0 1 forward_v I I I I #
coedge $-1 $369 $370 $371 $372 reversed $159 $-1 #
coedge $-1 $373 $161 $163 $261 forward $99 $-1 #
coedge $-1 $161 $373 $369 $374 forward $99 $-1 #
coedge $-1 $371 $164 $161 $258 forward $263 $-1 #
edge $-1 $265 1.8938144293627648 $375 22.772699900016072 $257 $376 forward 7 unknown #
coedge $-1 $377 $378 $162 $260 forward $252 $-1 #
edge $-1 $379 -99.349215762134364 $264 -94.147788518176498 $259 $380 forward 7 unknown #
edge $-1 $265 140.38434017560792 $379 148.31263161107211 $163 $381 forward 7 unknown #
coedge $-1 $164 $371 $377 $382 forward $263 $-1 #
loop $-1 $-1 $371 $251 #
vertex $-1 $260 $383 #
vertex $-1 $165 $384 #
straight-curve $-1 29.762597577130919 -14.227071594052184 15.737800901071495 -1 0 0 I I #
coedge $-1 $267 $267 $-1 $385 reversed $168 $-1 #
edge $-1 $386 0 $386 6.2831853071796004 $169 $387 forward 7 unknown #
vertex $-1 $172 $388 #
ellipse-curve $-1 71.164537082457244 -29.140561215947407 13.137087279092579 0.6560590369687036 0 0.75470957328743171 0.75470957328743171 0 -0.6560590369687036 1 I I #
coedge $-1 $271 $271 $-1 $389 reversed $175 $-1 #
edge $-1 $390 0 $390 6.2831853071796004 $176 $391 forward 7 unknown #
vertex $-1 $179 $392 #
ellipse-curve $-1 71.164537082457244 -20.192467442810276 13.137087279092579 0.6560590369687036 0 0.75470957328743171 0.75470957328743171 0 -0.6560590369687036 1 I I #
face $-1 $-1 $195 $27 $-1 $393 reversed single #
loop $-1 $-1 $291 $180 #
plane-surface $-1 0 50.536600202409787 0 0 -1 0 0 0 -1 forward_v I I I I #
coedge $-1 $394 $289 $292 $395 forward $181 $-1 #
coedge $-1 $295 $183 $184 $283 reversed $113 $-1 #
coedge $-1 $289 $394 $183 $281 reversed $181 $-1 #
edge $-1 $296 -15.737800901071497 $396 15.737800901071497 $280 $397 forward 7 unknown #
coedge $-1 $185 $184 $394 $398 forward $73 $-1 #
edge $-1 $287 -74.156315805536053 $396 74.156315805536053 $279 $399 forward 7 unknown #
coedge $-1 $292 $291 $185 $285 reversed $276 $-1 #
edge $-1 $400 -74.156315805536053 $286 74.156315805536053 $284 $401 forward 7 unknown #
vertex $-1 $187 $402 #
vertex $-1 $298 $403 #
straight-curve $-1 74.156315805536053 0 -15.737800901071497 0 -1 0 I I #
coedge $-1 $278 $280 $188 $290 reversed $181 $-1 #
edge $-1 $293 -50.536600202409787 $296 50.536600202409787 $289 $404 forward 7 unknown #
coedge $-1 $284 $189 $194 $299 forward $276 $-1 #
coedge $-1 $189 $284 $278 $395 reversed $276 $-1 #
vertex $-1 $190 $405 #
straight-curve $-1 0 50.536600202409787 15.737800901071497 -1 0 0 I I #
coedge $-1 $191 $279 $193 $298 reversed $113 $-1 #
vertex $-1 $290 $406 #
straight-curve $-1 0 -50.536600202409787 15.737800901071497 1 0 0 I I #
edge $-1 $196 -15.737800901071497 $287 15.737800901071497 $193 $407 forward 7 unknown #
edge $-1 $197 -15.737800901071497 $286 15.737800901071497 $194 $408 forward 7 unknown #
point $-1 74.156315805536053 -50.536600202409787 15.737800901071497 #
point $-1 74.156315805536053 50.536600202409787 15.737800901071497 #
face $-1 $-1 $318 $28 $-1 $409 reversed single #
loop $-1 $-1 $410 $199 #
plane-surface $-1 0 -65.967243340114081 8.9263215508756755 0 1 0 0 0 1 forward_v I I I I #
coedge $-1 $411 $315 $317 $412 forward $200 $-1 #
coedge $-1 $202 $209 $413 $414 forward $121 $-1 #
coedge $-1 $415 $207 $202 $308 reversed $318 $-1 #
edge $-1 $416 -7.715321568852147 $211 7.715321568852147 $307 $417 forward 7 unknown #
coedge $-1 $204 $203 $410 $418 reversed $77 $-1 #
coedge $-1 $315 $411 $203 $311 forward $200 $-1 #
edge $-1 $419 -7.715321568852147 $313 7.715321568852147 $203 $420 forward 7 unknown #
edge $-1 $210 -7.715321568852147 $421 7.715321568852147 $204 $422 forward 7 unknown #
vertex $-1 $205 $423 #
straight-curve $-1 -74.156315805536053 -50.536600202409787 0 0 0 -1 I I #
coedge $-1 $305 $310 $206 $316 reversed $200 $-1 #
edge $-1 $319 -74.156315805536053 $313 74.156315805536053 $315 $424 forward 7 unknown #
coedge $-1 $207 $415 $305 $412 reversed $318 $-1 #
loop $-1 $-1 $207 $302 #
vertex $-1 $208 $425 #
straight-curve $-1 74.156315805536053 -50.536600202409787 0 0 0 1 I I #
point $-1 -74.156315805536053 -50.536600202409787 13.588777749098021 #
point $-1 74.156315805536053 -50.536600202409787 13.588777749098021 #
loop $-1 $-1 $221 $213 #
plane-surface $-1 -74.156315805536053 0 0 1 0 0 0 0 -1 forward_v I I I I #
coedge $-1 $326 $216 $218 $330 reversed $129 $-1 #
coedge $-1 $216 $325 $426 $427 reversed $129 $-1 #
coedge $-1 $224 $219 $216 $328 forward $214 $-1 #
edge $-1 $331 -35.025305739958924 $428 -25.114562184172229 $327 $429 forward 7 unknown #
coedge $-1 $218 $217 $334 $430 reversed $81 $-1 #
edge $-1 $431 -2.6082680278521875e-014 $331 18.196903165048695 $325 $432 forward 7 unknown #
vertex $-1 $220 $433 #
straight-curve $-1 -64.245572249749358 -1.6249279224557682 15.737800901071497 0 1 0 I I #
coedge $-1 $426 $221 $224 $338 reversed $323 $-1 #
coedge $-1 $221 $426 $329 $430 forward $323 $-1 #
vertex $-1 $222 $434 #
straight-curve $-1 -74.156315805536053 -10.085029453636672 40.62672018814655 0 0 1 I I #
straight-curve $-1 -74.156315805536039 -10.085029453636672 0.47659364313832953 -0.54463902268945019 0 -0.83867057594974714 I I #
edge $-1 $428 -3.5853177638135989 $225 10.085029453636672 $333 $435 forward 7 unknown #
point $-1 -74.156315805536053 -10.085029453636672 15.737800901071497 #
point $-1 -64.245572249749358 -10.085029453636672 15.737800901071495 #
edge $-1 $436 1 $436 0 $228 $-1 forward 7 unknown #
vertex $-1 $229 $437 #
ellipse-curve $-1 -66.6594013113139 -3.2498558449115365 6.4567001867895542 -0.83867057594974714 0 0.54463902268945019 0.81695853403417529 0 1.2580058639246208 1 I I #
point $-1 -68.383985493608535 -3.2498558449115365 9.3652031360295336 #
loop $-1 $-1 $240 $232 #
plane-surface $-1 -74.156315805536053 0 0 1 0 0 0 0 -1 forward_v I I I I #
coedge $-1 $348 $235 $237 $352 reversed $144 $-1 #
coedge $-1 $235 $347 $438 $439 reversed $144 $-1 #
coedge $-1 $243 $238 $235 $350 forward $233 $-1 #
edge $-1 $353 -35.025305739958924 $440 -25.114562184172229 $349 $441 forward 7 unknown #
coedge $-1 $237 $236 $356 $442 reversed $90 $-1 #
edge $-1 $443 -2.6082680278521875e-014 $353 18.196903165048695 $347 $444 forward 7 unknown #
vertex $-1 $239 $445 #
straight-curve $-1 -64.245572249749358 9.3402494913079082 15.737800901071497 0 1 0 I I #
coedge $-1 $438 $240 $243 $360 reversed $345 $-1 #
coedge $-1 $240 $438 $351 $442 forward $345 $-1 #
vertex $-1 $241 $446 #
straight-curve $-1 -74.156315805536053 11.845325373890681 40.62672018814655 0 0 1 I I #
straight-curve $-1 -74.156315805536039 11.845325373890681 0.47659364313832953 -0.54463902268945019 0 -0.83867057594974714 I I #
edge $-1 $440 -25.515672591340952 $244 -11.845325373890681 $355 $447 forward 7 unknown #
point $-1 -74.156315805536053 11.845325373890681 15.737800901071497 #
point $-1 -64.245572249749358 11.845325373890681 15.737800901071495 #
edge $-1 $448 1 $448 0 $247 $-1 forward 7 unknown #
vertex $-1 $248 $449 #
ellipse-curve $-1 -66.6594013113139 18.680498982615816 6.4567001867895542 -0.83867057594974714 0 0.54463902268945019 0.81695853403417529 0 1.2580058639246208 1 I I #
point $-1 -68.383985493608535 18.680498982615816 9.3652031360295336 #
plane-surface $-1 0 0 15.737800901071497 0 0 1 1 0 0 forward_v I I I I #
coedge $-1 $378 $377 $370 $450 forward $252 $-1 #
coedge $-1 $370 $254 $256 $374 reversed $159 $-1 #
coedge $-1 $254 $369 $368 $450 reversed $159 $-1 #
coedge $-1 $262 $257 $254 $372 forward $263 $-1 #
edge $-1 $375 38.410160782247544 $451 44.393718228405135 $371 $452 forward 7 unknown #
coedge $-1 $256 $255 $378 $453 reversed $99 $-1 #
edge $-1 $454 -148.31263161107211 $375 -140.38434017560792 $369 $455 forward 7 unknown #
vertex $-1 $258 $456 #
straight-curve $-1 68.172758359378463 -12.333257164689419 15.737800901071502 0 -1 0 I I #
coedge $-1 $368 $259 $262 $382 reversed $252 $-1 #
coedge $-1 $259 $368 $373 $453 forward $252 $-1 #
vertex $-1 $260 $457 #
straight-curve $-1 74.156315805536053 -14.227071594052184 109.88558941924799 0 0 1 I I #
straight-curve $-1 -37.77664711079224 -14.227071594052184 107.83821592216771 0.75470957328743171 0 -0.6560590369687036 I I #
edge $-1 $451 -35.105957064705493 $264 -14.227071594052184 $377 $458 forward 7 unknown #
point $-1 74.156315805536053 -14.227071594052184 15.737800901071497 #
point $-1 68.172758359378463 -14.227071594052184 15.737800901071495 #
edge $-1 $459 1 $459 0 $267 $-1 forward 7 unknown #
vertex $-1 $268 $460 #
ellipse-curve $-1 69.825409406149447 -29.140561215947407 11.596597139922572 0.6560590369687036 0 0.75470957328743171 0.75470957328743171 0 -0.6560590369687036 1 I I #
point $-1 71.919246655744672 -29.140561215947407 12.481028242123864 #
edge $-1 $461 1 $461 0 $271 $-1 forward 7 unknown #
vertex $-1 $272 $462 #
ellipse-curve $-1 69.825409406149447 -20.192467442810276 11.596597139922572 0.6560590369687036 0 0.75470957328743171 0.75470957328743171 0 -0.6560590369687036 1 I I #
point $-1 71.919246655744672 -20.192467442810276 12.481028242123864 #
plane-surface $-1 74.156315805536053 0 0 -1 0 0 0 0 1 forward_v I I I I #
coedge $-1 $280 $278 $282 $398 reversed $181 $-1 #
edge $-1 $293 -15.737800901071497 $400 15.737800901071497 $292 $463 forward 7 unknown #
vertex $-1 $398 $464 #
straight-curve $-1 -74.156315805536053 -50.536600202409787 0 0 0 -1 I I #
edge $-1 $396 -50.536600202409787 $400 50.536600202409787 $394 $465 forward 7 unknown #
straight-curve $-1 0 -50.536600202409787 -15.737800901071497 -1 0 0 I I #
vertex $-1 $285 $466 #
straight-curve $-1 0 50.536600202409787 -15.737800901071497 1 0 0 I I #
point $-1 74.156315805536053 50.536600202409787 -15.737800901071497 #
point $-1 74.156315805536053 -50.536600202409787 -15.737800901071497 #
straight-curve $-1 -74.156315805536053 0 15.737800901071497 0 -1 0 I I #
point $-1 -74.156315805536053 50.536600202409787 15.737800901071497 #
point $-1 -74.156315805536053 -50.536600202409787 15.737800901071497 #
straight-curve $-1 74.156315805536053 -50.536600202409787 0 0 0 -1 I I #
straight-curve $-1 74.156315805536053 50.536600202409787 0 0 0 -1 I I #
plane-surface $-1 74.156315805536053 0 0 -1 0 0 0 0 1 forward_v I I I I #
coedge $-1 $467 $413 $309 $418 forward $303 $-1 #
coedge $-1 $310 $305 $467 $468 forward $200 $-1 #
edge $-1 $319 -7.715321568852147 $469 7.715321568852147 $317 $470 forward 7 unknown #
coedge $-1 $410 $471 $306 $414 reversed $303 $-1 #
edge $-1 $421 -74.156315805536053 $416 74.156315805536053 $413 $472 forward 7 unknown #
coedge $-1 $317 $307 $471 $473 forward $318 $-1 #
vertex $-1 $308 $474 #
straight-curve $-1 74.156315805536053 -58.251921771261934 13.588777749098021 0 1 0 I I #
edge $-1 $421 -4.6624561982223458 $419 4.6624561982223458 $309 $475 forward 7 unknown #
vertex $-1 $311 $476 #
straight-curve $-1 -74.156315805536053 -58.251921771261934 4.2638653526533297 0 1 0 I I #
vertex $-1 $312 $477 #
straight-curve $-1 -74.156315805536053 -58.251921771261934 13.588777749098021 0 -1 0 I I #
point $-1 -74.156315805536053 -50.536600202409787 4.2638653526533297 #
straight-curve $-1 0 -50.536600202409787 4.2638653526533297 -1 0 0 I I #
point $-1 74.156315805536053 -50.536600202409787 4.2638653526533297 #
coedge $-1 $334 $333 $326 $427 forward $323 $-1 #
edge $-1 $428 24.888919287075055 $431 40.150126545008241 $426 $478 forward 7 unknown #
vertex $-1 $338 $479 #
straight-curve $-1 -99.270877989708282 3.5853177638135989 15.737800901071495 -1 0 0 I I #
edge $-1 $431 -5.2102456862693671 $335 8.4601015311809036 $334 $480 forward 7 unknown #
vertex $-1 $430 $481 #
straight-curve $-1 -74.156315805536039 3.5853177638135989 0.47659364313832953 0.54463902268945019 0 0.83867057594974714 I I #
point $-1 -64.245572249749358 3.5853177638135989 15.737800901071495 #
point $-1 -74.156315805536053 -10.085029453636672 0.47659364313830765 #
straight-curve $-1 -74.156315805536053 0 15.737800901071497 0 -1 0 I I #
vertex $-1 $341 $482 #
point $-1 -65.842442777279729 -3.2498558449115365 7.7147060507141756 #
coedge $-1 $356 $355 $348 $439 forward $345 $-1 #
edge $-1 $440 24.888919287075055 $443 40.150126545008241 $438 $483 forward 7 unknown #
vertex $-1 $360 $484 #
straight-curve $-1 -99.270877989708282 25.515672591340952 15.737800901071495 -1 0 0 I I #
edge $-1 $443 -16.175423100033044 $357 -2.5050758825827728 $356 $485 forward 7 unknown #
vertex $-1 $442 $486 #
straight-curve $-1 -74.156315805536039 25.515672591340952 0.47659364313832953 0.54463902268945019 0 0.83867057594974714 I I #
point $-1 -64.245572249749358 25.515672591340952 15.737800901071495 #
point $-1 -74.156315805536053 11.845325373890681 0.47659364313830765 #
straight-curve $-1 -74.156315805536053 0 15.737800901071497 0 -1 0 I I #
vertex $-1 $363 $487 #
point $-1 -65.842442777279729 18.680498982615816 7.7147060507141756 #
edge $-1 $451 94.147788518176498 $454 99.349215762134364 $368 $488 forward 7 unknown #
vertex $-1 $382 $489 #
straight-curve $-1 29.762597577130919 -35.105957064705493 15.737800901071495 1 0 0 I I #
edge $-1 $454 -22.772699900016072 $379 -1.8938144293627648 $378 $490 forward 7 unknown #
vertex $-1 $453 $491 #
straight-curve $-1 -37.77664711079224 -35.105957064705493 107.83821592216771 -0.75470957328743171 0 0.6560590369687036 I I #
point $-1 68.172758359378463 -35.105957064705493 15.737800901071495 #
point $-1 74.156315805536039 -14.227071594052184 10.536373657113629 #
straight-curve $-1 74.156315805536053 0 15.737800901071497 0 1 0 I I #
vertex $-1 $385 $492 #
point $-1 70.580118979436875 -29.140561215947407 10.940538102953868 #
vertex $-1 $389 $493 #
point $-1 70.580118979436875 -20.192467442810276 10.940538102953868 #
straight-curve $-1 -74.156315805536053 50.536600202409787 0 0 0 -1 I I #
point $-1 -74.156315805536053 -50.536600202409787 -15.737800901071497 #
straight-curve $-1 -74.156315805536053 0 -15.737800901071497 0 1 0 I I #
point $-1 -74.156315805536053 50.536600202409787 -15.737800901071497 #
coedge $-1 $471 $410 $411 $468 reversed $303 $-1 #
edge $-1 $469 -74.156315805536053 $419 74.156315805536053 $467 $494 forward 7 unknown #
vertex $-1 $473 $495 #
straight-curve $-1 74.156315805536053 -58.251921771261934 4.2638653526533297 0 -1 0 I I #
coedge $-1 $413 $467 $415 $473 reversed $303 $-1 #
straight-curve $-1 0 -65.967243340114081 13.588777749098021 1 0 0 I I #
edge $-1 $416 -4.6624561982223458 $469 4.6624561982223458 $415 $496 forward 7 unknown #
point $-1 74.156315805536053 -65.967243340114081 13.588777749098021 #
straight-curve $-1 -74.156315805536053 -65.967243340114081 8.9263215508756755 0 0 -1 I I #
point $-1 -74.156315805536053 -65.967243340114081 4.2638653526533297 #
point $-1 -74.156315805536053 -65.967243340114081 13.588777749098021 #
straight-curve $-1 -74.156315805536053 3.5853177638135989 40.62672018814655 0 0 -1 I I #
point $-1 -74.156315805536053 3.5853177638135989 15.737800901071497 #
straight-curve $-1 -74.156315805536053 -1.6249279224557682 0.47659364313831931 0 -1 0 I I #
point $-1 -74.156315805536053 3.5853177638135989 0.47659364313830765 #
point $-1 -65.401395447389291 -3.2498558449115365 5.6397416527553794 #
straight-curve $-1 -74.156315805536053 25.515672591340952 40.62672018814655 0 0 -1 I I #
point $-1 -74.156315805536053 25.515672591340952 15.737800901071497 #
straight-curve $-1 -74.156315805536053 9.3402494913079082 0.47659364313831931 0 -1 0 I I #
point $-1 -74.156315805536053 25.515672591340952 0.47659364313830765 #
point $-1 -65.401395447389291 18.680498982615816 5.6397416527553794 #
straight-curve $-1 74.156315805536053 -35.105957064705493 109.88558941924799 0 0 -1 I I #
point $-1 74.156315805536053 -35.105957064705493 15.737800901071497 #
straight-curve $-1 74.156315805536053 -12.333257164689419 10.536373657113622 0 1 0 I I #
point $-1 74.156315805536039 -35.105957064705493 10.536373657113629 #
point $-1 69.169350369180734 -29.140561215947407 10.84188756663514 #
point $-1 69.169350369180734 -20.192467442810276 10.84188756663514 #
straight-curve $-1 0 -65.967243340114081 4.2638653526533297 -1 0 0 I I #
point $-1 74.156315805536053 -65.967243340114081 4.2638653526533297 #
straight-curve $-1 74.156315805536053 -65.967243340114081 8.9263215508756755 0 0 -1 I I #
End-of-ACIS-data 