500 0 8 0           
7 Unknown 11 ACIS 5.0 NT 24 Fri Mar 26 17:04:50 1999 
-1 9.9999999999999995e-007 1e-010 
body $-1 $8 $-1 $9 #
body $-1 $10 $-1 $11 #
body $-1 $12 $-1 $13 #
body $-1 $14 $-1 $15 #
body $-1 $16 $-1 $17 #
body $-1 $18 $-1 $19 #
body $-1 $20 $-1 $21 #
body $-1 $22 $-1 $23 #
lump $-1 $-1 $24 $0 #
transform $-1 1 0 0 0 1 0 0 0 1 67.111423078096863 43.740500306419634 15.591305138673668 1 rotate no_reflect no_shear #
lump $-1 $-1 $25 $1 #
transform $-1 1 0 0 0 1 0 0 0 1 67.111423078096863 43.740500306419634 15.591305138673668 1 rotate no_reflect no_shear #
lump $-1 $-1 $26 $2 #
transform $-1 1 0 0 0 1 0 0 0 1 67.111423078096863 43.740500306419634 15.591305138673668 1 rotate no_reflect no_shear #
lump $-1 $-1 $27 $3 #
transform $-1 1 0 0 0 1 0 0 0 1 67.111423078096863 43.740500306419634 15.591305138673668 1 rotate no_reflect no_shear #
lump $-1 $-1 $28 $4 #
transform $-1 1 0 0 0 1 0 0 0 1 67.111423078096863 43.740500306419634 15.591305138673668 1 rotate no_reflect no_shear #
lump $-1 $-1 $29 $5 #
transform $-1 1 0 0 0 1 0 0 0 1 67.111423078096863 43.740500306419634 15.591305138673668 1 rotate no_reflect no_shear #
lump $-1 $-1 $30 $6 #
transform $-1 1 0 0 0 1 0 0 0 1 67.111423078096863 43.740500306419634 15.591305138673668 1 rotate no_reflect no_shear #
lump $-1 $-1 $31 $7 #
transform $-1 1 0 0 0 1 0 0 0 1 67.111423078096863 43.740500306419634 15.591305138673668 1 rotate no_reflect no_shear #
shell $-1 $-1 $-1 $32 $-1 $8 #
shell $-1 $-1 $-1 $33 $-1 $10 #
shell $-1 $-1 $-1 $34 $-1 $12 #
shell $-1 $-1 $-1 $35 $-1 $14 #
shell $-1 $-1 $-1 $36 $-1 $16 #
shell $-1 $-1 $-1 $37 $-1 $18 #
shell $-1 $-1 $-1 $38 $-1 $20 #
shell $-1 $-1 $-1 $39 $-1 $22 #
face $-1 $40 $41 $24 $-1 $42 forward single #
face $-1 $43 $44 $25 $-1 $45 forward single #
face $-1 $46 $47 $26 $-1 $48 reversed single #
face $-1 $49 $50 $27 $-1 $51 forward single #
face $-1 $52 $53 $28 $-1 $54 forward single #
face $-1 $55 $56 $29 $-1 $57 reversed single #
face $-1 $58 $59 $30 $-1 $60 forward single #
face $-1 $61 $62 $31 $-1 $63 forward single #
face $-1 $64 $65 $24 $-1 $66 reversed single #
loop $-1 $-1 $67 $32 #
plane-surface $-1 0 0 15.591305138673668 0 0 1 1 0 0 forward_v I I I I #
face $-1 $68 $69 $25 $-1 $70 reversed single #
loop $-1 $-1 $71 $33 #
plane-surface $-1 0 -35.508793662703596 -11.144354866600658 0 0 1 1 0 0 forward_v I I I I #
face $-1 $72 $73 $26 $-1 $74 reversed single #
loop $-1 $-1 $75 $34 #
plane-surface $-1 -149.74725960132241 -18.47837689732733 113.31068646335407 0 1 0 -0.61566148304635926 0 0.78801074757464917 forward_v I I I I #
face $-1 $76 $77 $27 $-1 $78 forward single #
loop $-1 $79 $80 $35 #
cone-surface $-1 -61.556969692424587 -16.012736575805469 11.05078025451362 0.61566148304635926 0 -0.78801074757464917 0.39400537378732459 0 0.30783074152317963 1 I I 0 1 0.5 forward I I I I #
face $-1 $81 $82 $28 $-1 $83 forward single #
loop $-1 $84 $85 $36 #
cone-surface $-1 -61.556969692424587 -12.314276093522679 11.05078025451362 0.61566148304635926 0 -0.78801074757464917 0.39400537378732459 0 0.30783074152317963 1 I I 0 1 0.5 forward I I I I #
face $-1 $86 $87 $29 $-1 $88 reversed single #
loop $-1 $-1 $89 $37 #
plane-surface $-1 -149.74725960132241 26.312049059432898 113.31068646335407 0 1 0 -0.61566148304635926 0 0.78801074757464917 forward_v I I I I #
face $-1 $90 $91 $30 $-1 $92 forward single #
loop $-1 $93 $94 $38 #
cone-surface $-1 -61.556969692424587 28.777689380954754 11.05078025451362 0.61566148304635926 0 -0.78801074757464917 0.39400537378732459 0 0.30783074152317963 1 I I 0 1 0.5 forward I I I I #
face $-1 $95 $96 $31 $-1 $97 forward single #
loop $-1 $98 $99 $39 #
cone-surface $-1 -61.556969692424587 32.476149863237552 11.05078025451362 0.61566148304635926 0 -0.78801074757464917 0.39400537378732459 0 0.30783074152317963 1 I I 0 1 0.5 forward I I I I #
face $-1 $100 $101 $24 $-1 $102 reversed single #
loop $-1 $-1 $103 $40 #
plane-surface $-1 0 0 -15.591305138673668 0 0 1 1 0 0 forward_v I I I I #
coedge $-1 $104 $105 $106 $107 forward $41 $-1 #
face $-1 $108 $109 $25 $-1 $110 reversed single #
loop $-1 $-1 $111 $43 #
plane-surface $-1 0 -27.277087018987558 -13.367830002637163 0 -1 0 0 0 -1 forward_v I I I I #
coedge $-1 $112 $113 $114 $115 reversed $44 $-1 #
face $-1 $116 $117 $26 $-1 $118 reversed single #
loop $-1 $-1 $119 $46 #
plane-surface $-1 -67.111423078096863 -14.163506334664074 7.5416411222147275 -0.61566148304635926 0 0.78801074757464917 0.78801074757464917 0 0.61566148304635926 forward_v I I I I #
coedge $-1 $120 $121 $122 $123 reversed $47 $-1 #
face $-1 $-1 $124 $27 $-1 $125 forward single #
loop $-1 $126 $127 $49 #
cone-surface $-1 -61.000150881869772 -16.012736575805469 10.338084691689389 0.61566148304635926 0 -0.78801074757464917 0.19700268689366229 0 0.15391537076158981 1 I I -0.70710678118654746 0.70710678118654746 0.25 forward I I I I #
loop $-1 $-1 $128 $35 #
coedge $-1 $80 $80 $129 $130 reversed $50 $-1 #
face $-1 $-1 $131 $28 $-1 $132 forward single #
loop $-1 $133 $134 $52 #
cone-surface $-1 -61.000150881869772 -12.314276093522679 10.338084691689389 0.61566148304635926 0 -0.78801074757464917 0.19700268689366229 0 0.15391537076158981 1 I I -0.70710678118654746 0.70710678118654746 0.25 forward I I I I #
loop $-1 $-1 $135 $36 #
coedge $-1 $85 $85 $136 $137 reversed $53 $-1 #
face $-1 $138 $139 $29 $-1 $140 reversed single #
loop $-1 $-1 $141 $55 #
plane-surface $-1 -67.111423078096863 30.626919622096153 7.5416411222147275 -0.61566148304635926 0 0.78801074757464917 0.78801074757464917 0 0.61566148304635926 forward_v I I I I #
coedge $-1 $142 $143 $144 $145 reversed $56 $-1 #
face $-1 $-1 $146 $30 $-1 $147 forward single #
loop $-1 $148 $149 $58 #
cone-surface $-1 -61.000150881869772 28.777689380954754 10.338084691689389 0.61566148304635926 0 -0.78801074757464917 0.19700268689366229 0 0.15391537076158981 1 I I -0.70710678118654746 0.70710678118654746 0.25 forward I I I I #
loop $-1 $-1 $150 $38 #
coedge $-1 $94 $94 $151 $152 reversed $59 $-1 #
face $-1 $-1 $153 $31 $-1 $154 forward single #
loop $-1 $155 $156 $61 #
cone-surface $-1 -61.000150881869772 32.476149863237552 10.338084691689389 0.61566148304635926 0 -0.78801074757464917 0.19700268689366229 0 0.15391537076158981 1 I I -0.70710678118654746 0.70710678118654746 0.25 forward I I I I #
loop $-1 $-1 $157 $39 #
coedge $-1 $99 $99 $158 $159 reversed $62 $-1 #
face $-1 $160 $161 $24 $-1 $162 reversed single #
loop $-1 $-1 $163 $64 #
plane-surface $-1 0 -43.740500306419634 0 0 1 0 0 0 1 forward_v I I I I #
coedge $-1 $164 $165 $166 $167 forward $65 $-1 #
coedge $-1 $168 $67 $169 $170 forward $41 $-1 #
coedge $-1 $67 $168 $171 $172 forward $41 $-1 #
coedge $-1 $173 $174 $67 $107 reversed $175 $-1 #
edge $-1 $176 -43.740500306419634 $177 43.740500306419634 $106 $178 forward 7 unknown #
face $-1 $179 $180 $25 $-1 $181 reversed single #
loop $-1 $-1 $182 $68 #
plane-surface $-1 0 0 -15.591305138673668 0 0 1 1 0 0 forward_v I I I I #
coedge $-1 $183 $184 $185 $186 reversed $69 $-1 #
coedge $-1 $187 $71 $184 $188 forward $44 $-1 #
coedge $-1 $71 $187 $189 $190 reversed $44 $-1 #
coedge $-1 $191 $185 $71 $115 forward $180 $-1 #
edge $-1 $192 9.5226901876357601 $193 25.986103475067836 $114 $194 forward 7 unknown #
face $-1 $195 $196 $26 $-1 $197 forward single #
loop $-1 $-1 $198 $72 #
plane-surface $-1 -149.74725960132241 -9.8486357720008186 113.31068646335407 0 -1 0 0.61566148304635926 0 -0.78801074757464917 forward_v I I I I #
coedge $-1 $199 $200 $201 $202 reversed $73 $-1 #
coedge $-1 $121 $75 $203 $204 reversed $47 $-1 #
coedge $-1 $75 $120 $199 $205 reversed $47 $-1 #
coedge $-1 $201 $206 $75 $123 forward $196 $-1 #
edge $-1 $207 7.7622067225643434 $208 18.065306614322424 $122 $209 forward 7 unknown #
loop $-1 $-1 $129 $76 #
plane-surface $-1 -67.111423078096863 -14.163506334664074 7.5416411222147275 -0.61566148304635926 0 0.78801074757464917 0.78801074757464917 0 0.61566148304635926 forward_v I I I I #
loop $-1 $-1 $210 $49 #
coedge $-1 $127 $127 $128 $211 reversed $77 $-1 #
coedge $-1 $128 $128 $127 $211 forward $79 $-1 #
coedge $-1 $129 $129 $80 $130 forward $124 $-1 #
edge $-1 $212 0 $212 6.2831853071796004 $129 $213 forward 7 unknown #
loop $-1 $-1 $136 $81 #
plane-surface $-1 -67.111423078096863 -14.163506334664074 7.5416411222147275 -0.61566148304635926 0 0.78801074757464917 0.78801074757464917 0 0.61566148304635926 forward_v I I I I #
loop $-1 $-1 $214 $52 #
coedge $-1 $134 $134 $135 $215 reversed $82 $-1 #
coedge $-1 $135 $135 $134 $215 forward $84 $-1 #
coedge $-1 $136 $136 $85 $137 forward $131 $-1 #
edge $-1 $216 0 $216 6.2831853071796004 $136 $217 forward 7 unknown #
face $-1 $218 $219 $29 $-1 $220 forward single #
loop $-1 $-1 $221 $86 #
plane-surface $-1 -149.74725960132241 34.941790184759412 113.31068646335407 0 -1 0 0.61566148304635926 0 -0.78801074757464917 forward_v I I I I #
coedge $-1 $222 $223 $224 $225 reversed $87 $-1 #
coedge $-1 $143 $89 $226 $227 reversed $56 $-1 #
coedge $-1 $89 $142 $222 $228 reversed $56 $-1 #
coedge $-1 $224 $229 $89 $145 forward $219 $-1 #
edge $-1 $230 7.7622067225643434 $231 18.065306614322424 $144 $232 forward 7 unknown #
loop $-1 $-1 $151 $90 #
plane-surface $-1 -67.111423078096863 30.626919622096153 7.5416411222147275 -0.61566148304635926 0 0.78801074757464917 0.78801074757464917 0 0.61566148304635926 forward_v I I I I #
loop $-1 $-1 $233 $58 #
coedge $-1 $149 $149 $150 $234 reversed $91 $-1 #
coedge $-1 $150 $150 $149 $234 forward $93 $-1 #
coedge $-1 $151 $151 $94 $152 forward $146 $-1 #
edge $-1 $235 0 $235 6.2831853071796004 $151 $236 forward 7 unknown #
loop $-1 $-1 $158 $95 #
plane-surface $-1 -67.111423078096863 30.626919622096153 7.5416411222147275 -0.61566148304635926 0 0.78801074757464917 0.78801074757464917 0 0.61566148304635926 forward_v I I I I #
loop $-1 $-1 $237 $61 #
coedge $-1 $156 $156 $157 $238 reversed $96 $-1 #
coedge $-1 $157 $157 $156 $238 forward $98 $-1 #
coedge $-1 $158 $158 $99 $159 forward $153 $-1 #
edge $-1 $239 0 $239 6.2831853071796004 $158 $240 forward 7 unknown #
face $-1 $241 $242 $24 $-1 $243 reversed single #
loop $-1 $-1 $244 $100 #
plane-surface $-1 -67.111423078096863 0 0 1 0 0 0 0 -1 forward_v I I I I #
coedge $-1 $245 $171 $246 $247 forward $101 $-1 #
coedge $-1 $248 $103 $245 $249 forward $65 $-1 #
coedge $-1 $103 $248 $250 $251 forward $65 $-1 #
coedge $-1 $174 $173 $103 $167 reversed $175 $-1 #
edge $-1 $252 -43.740500306419634 $253 43.740500306419634 $166 $254 forward 7 unknown #
coedge $-1 $105 $104 $255 $256 forward $41 $-1 #
coedge $-1 $257 $258 $104 $170 reversed $242 $-1 #
edge $-1 $177 -67.111423078096863 $259 67.111423078096863 $169 $260 forward 7 unknown #
coedge $-1 $163 $261 $105 $172 reversed $101 $-1 #
edge $-1 $262 -67.111423078096863 $176 67.111423078096863 $171 $263 forward 7 unknown #
coedge $-1 $166 $106 $261 $264 forward $175 $-1 #
coedge $-1 $106 $166 $257 $265 reversed $175 $-1 #
loop $-1 $-1 $173 $241 #
vertex $-1 $107 $266 #
vertex $-1 $107 $267 #
straight-curve $-1 67.111423078096863 0 15.591305138673668 0 1 0 I I #
face $-1 $268 $269 $25 $-1 $270 reversed single #
loop $-1 $-1 $185 $108 #
plane-surface $-1 67.111423078096863 0 0 -1 0 0 0 0 1 forward_v I I I I #
coedge $-1 $271 $272 $183 $273 forward $109 $-1 #
coedge $-1 $274 $111 $182 $273 reversed $69 $-1 #
coedge $-1 $111 $274 $112 $188 reversed $69 $-1 #
coedge $-1 $114 $275 $111 $186 forward $180 $-1 #
edge $-1 $276 -8.9073901373550868 $192 -4.4604398652820763 $185 $277 forward 7 unknown #
coedge $-1 $113 $112 $278 $279 reversed $44 $-1 #
edge $-1 $192 -67.111423078096863 $280 67.111423078096863 $184 $281 forward 7 unknown #
coedge $-1 $282 $283 $113 $190 forward $269 $-1 #
edge $-1 $193 -67.111423078096863 $284 67.111423078096863 $189 $285 forward 7 unknown #
coedge $-1 $275 $114 $283 $286 forward $180 $-1 #
vertex $-1 $115 $287 #
vertex $-1 $286 $288 #
straight-curve $-1 67.111423078096863 -17.754396831351798 -11.144354866600658 0 -1 0 I I #
face $-1 $-1 $289 $26 $-1 $290 reversed single #
loop $-1 $-1 $122 $116 #
plane-surface $-1 0 0 15.591305138673668 0 0 1 1 0 0 forward_v I I I I #
coedge $-1 $291 $292 $293 $294 reversed $117 $-1 #
coedge $-1 $295 $119 $121 $205 forward $73 $-1 #
coedge $-1 $119 $295 $291 $296 forward $73 $-1 #
coedge $-1 $293 $122 $119 $202 forward $196 $-1 #
edge $-1 $208 -11.396623729995293 $297 -2.7668826046687816 $201 $298 forward 7 unknown #
coedge $-1 $299 $300 $120 $204 forward $289 $-1 #
edge $-1 $301 -49.113702109462309 $207 -41.064038093003369 $203 $302 forward 7 unknown #
edge $-1 $208 -13.074821534438595 $301 0 $121 $303 forward 7 unknown #
coedge $-1 $122 $293 $299 $304 forward $196 $-1 #
vertex $-1 $204 $305 #
vertex $-1 $123 $306 #
straight-curve $-1 -74.873629800661206 -18.47837689732733 15.591305138673668 1 0 0 I I #
coedge $-1 $210 $210 $-1 $307 reversed $126 $-1 #
edge $-1 $308 0 $308 6.2831853071796004 $127 $309 forward 7 unknown #
vertex $-1 $130 $310 #
ellipse-curve $-1 -61.959873132217822 -16.012736575805469 11.5664731304442 -0.61566148304635926 0 0.78801074757464917 0.39400537378732459 0 0.30783074152317963 1 I I #
coedge $-1 $214 $214 $-1 $311 reversed $133 $-1 #
edge $-1 $312 0 $312 6.2831853071796004 $134 $313 forward 7 unknown #
vertex $-1 $137 $314 #
ellipse-curve $-1 -61.959873132217822 -12.314276093522679 11.5664731304442 -0.61566148304635926 0 0.78801074757464917 0.39400537378732459 0 0.30783074152317963 1 I I #
face $-1 $-1 $315 $29 $-1 $316 reversed single #
loop $-1 $-1 $144 $138 #
plane-surface $-1 0 0 15.591305138673668 0 0 1 1 0 0 forward_v I I I I #
coedge $-1 $317 $318 $319 $320 reversed $139 $-1 #
coedge $-1 $321 $141 $143 $228 forward $87 $-1 #
coedge $-1 $141 $321 $317 $322 forward $87 $-1 #
coedge $-1 $319 $144 $141 $225 forward $219 $-1 #
edge $-1 $231 10.998589248384821 $323 19.628330373711336 $224 $324 forward 7 unknown #
coedge $-1 $325 $326 $142 $227 forward $315 $-1 #
edge $-1 $327 -49.113702109462309 $230 -41.064038093003369 $226 $328 forward 7 unknown #
edge $-1 $231 -13.074821534438595 $327 0 $143 $329 forward 7 unknown #
coedge $-1 $144 $319 $325 $330 forward $219 $-1 #
vertex $-1 $145 $331 #
vertex $-1 $145 $332 #
straight-curve $-1 -74.873629800661206 26.312049059432898 15.591305138673668 1 0 0 I I #
coedge $-1 $233 $233 $-1 $333 reversed $148 $-1 #
edge $-1 $334 0 $334 6.2831853071796004 $149 $335 forward 7 unknown #
vertex $-1 $152 $336 #
ellipse-curve $-1 -61.959873132217822 28.777689380954754 11.5664731304442 -0.61566148304635926 0 0.78801074757464917 0.39400537378732459 0 0.30783074152317963 1 I I #
coedge $-1 $237 $237 $-1 $337 reversed $155 $-1 #
edge $-1 $338 0 $338 6.2831853071796004 $156 $339 forward 7 unknown #
vertex $-1 $159 $340 #
ellipse-curve $-1 -61.959873132217822 32.476149863237552 11.5664731304442 -0.61566148304635926 0 0.78801074757464917 0.39400537378732459 0 0.30783074152317963 1 I I #
face $-1 $-1 $175 $24 $-1 $341 reversed single #
loop $-1 $-1 $257 $160 #
plane-surface $-1 0 43.740500306419634 0 0 -1 0 0 0 -1 forward_v I I I I #
coedge $-1 $342 $255 $258 $343 forward $161 $-1 #
coedge $-1 $261 $163 $164 $249 reversed $101 $-1 #
coedge $-1 $255 $342 $163 $247 reversed $161 $-1 #
edge $-1 $262 -15.591305138673668 $344 15.591305138673668 $246 $345 forward 7 unknown #
coedge $-1 $165 $164 $342 $346 forward $65 $-1 #
edge $-1 $253 -67.111423078096863 $344 67.111423078096863 $245 $347 forward 7 unknown #
coedge $-1 $258 $257 $165 $251 reversed $242 $-1 #
edge $-1 $348 -67.111423078096863 $252 67.111423078096863 $250 $349 forward 7 unknown #
vertex $-1 $167 $350 #
vertex $-1 $264 $351 #
straight-curve $-1 67.111423078096863 0 -15.591305138673668 0 -1 0 I I #
coedge $-1 $244 $246 $168 $256 reversed $161 $-1 #
edge $-1 $259 -43.740500306419634 $262 43.740500306419634 $255 $352 forward 7 unknown #
coedge $-1 $250 $169 $174 $265 forward $242 $-1 #
coedge $-1 $169 $250 $244 $343 reversed $242 $-1 #
vertex $-1 $170 $353 #
straight-curve $-1 0 43.740500306419634 15.591305138673668 -1 0 0 I I #
coedge $-1 $171 $245 $173 $264 reversed $101 $-1 #
vertex $-1 $256 $354 #
straight-curve $-1 0 -43.740500306419634 15.591305138673668 1 0 0 I I #
edge $-1 $176 -15.591305138673668 $253 15.591305138673668 $173 $355 forward 7 unknown #
edge $-1 $177 -15.591305138673668 $252 15.591305138673668 $174 $356 forward 7 unknown #
point $-1 67.111423078096863 -43.740500306419634 15.591305138673668 #
point $-1 67.111423078096863 43.740500306419634 15.591305138673668 #
face $-1 $-1 $357 $25 $-1 $358 reversed single #
loop $-1 $-1 $189 $179 #
plane-surface $-1 0 -43.740500306419634 0 0 1 0 0 0 1 forward_v I I I I #
coedge $-1 $359 $182 $275 $360 forward $109 $-1 #
coedge $-1 $182 $359 $361 $362 forward $109 $-1 #
edge $-1 $363 -67.111423078096863 $276 67.111423078096863 $182 $364 forward 7 unknown #
coedge $-1 $184 $183 $365 $366 reversed $69 $-1 #
coedge $-1 $185 $191 $271 $360 reversed $180 $-1 #
vertex $-1 $360 $367 #
straight-curve $-1 67.111423078096863 -27.277087018987558 -6.6839150013185815 0 0 1 I I #
coedge $-1 $365 $368 $187 $279 forward $357 $-1 #
edge $-1 $284 -25.986103475067836 $280 -9.5226901876357601 $278 $369 forward 7 unknown #
vertex $-1 $279 $370 #
straight-curve $-1 0 -27.277087018987558 -11.144354866600658 -1 0 0 I I #
coedge $-1 $371 $189 $368 $372 forward $269 $-1 #
coedge $-1 $189 $371 $191 $286 reversed $269 $-1 #
vertex $-1 $372 $373 #
straight-curve $-1 0 -43.740500306419634 -11.144354866600658 -1 0 0 I I #
edge $-1 $193 11.144354866600658 $374 15.591305138673668 $191 $375 forward 7 unknown #
point $-1 67.111423078096863 -27.277087018987558 -11.144354866600658 #
point $-1 67.111423078096863 -43.740500306419634 -11.144354866600658 #
loop $-1 $-1 $203 $195 #
plane-surface $-1 -67.111423078096863 0 0 1 0 0 0 0 -1 forward_v I I I I #
coedge $-1 $292 $198 $200 $296 reversed $117 $-1 #
coedge $-1 $198 $291 $376 $377 reversed $117 $-1 #
coedge $-1 $206 $201 $198 $294 forward $196 $-1 #
edge $-1 $297 -18.065306614322424 $378 -7.7622067225643434 $293 $379 forward 7 unknown #
coedge $-1 $200 $199 $300 $380 reversed $73 $-1 #
edge $-1 $381 0 $297 13.074821534438595 $291 $382 forward 7 unknown #
vertex $-1 $202 $383 #
straight-curve $-1 -56.808323186338782 -7.0817531673320371 15.591305138673667 0 1 0 I I #
coedge $-1 $376 $203 $206 $304 reversed $289 $-1 #
coedge $-1 $203 $376 $295 $380 forward $289 $-1 #
vertex $-1 $204 $384 #
straight-curve $-1 -67.111423078096863 -18.47837689732733 56.655343231677037 0 0 1 I I #
straight-curve $-1 -67.111423078096863 -18.47837689732733 7.5416411222147275 -0.78801074757464917 0 -0.61566148304635926 I I #
edge $-1 $378 9.8486357720008186 $207 18.47837689732733 $299 $385 forward 7 unknown #
point $-1 -67.111423078096863 -18.47837689732733 15.591305138673668 #
point $-1 -56.808323186338782 -18.47837689732733 15.591305138673668 #
edge $-1 $386 1 $386 0 $210 $-1 forward 7 unknown #
vertex $-1 $211 $387 #
ellipse-curve $-1 -61.15406625263136 -16.012736575805469 10.53508737858305 -0.61566148304635926 0 0.78801074757464917 0.39400537378732459 0 0.30783074152317963 1 I I #
point $-1 -61.565867758430485 -16.012736575805469 11.874303871967369 #
edge $-1 $388 1 $388 0 $214 $-1 forward 7 unknown #
vertex $-1 $215 $389 #
ellipse-curve $-1 -61.15406625263136 -12.314276093522679 10.53508737858305 -0.61566148304635926 0 0.78801074757464917 0.39400537378732459 0 0.30783074152317963 1 I I #
point $-1 -61.565867758430485 -12.314276093522679 11.874303871967369 #
loop $-1 $-1 $226 $218 #
plane-surface $-1 -67.111423078096863 0 0 1 0 0 0 0 -1 forward_v I I I I #
coedge $-1 $318 $221 $223 $322 reversed $139 $-1 #
coedge $-1 $221 $317 $390 $391 reversed $139 $-1 #
coedge $-1 $229 $224 $221 $320 forward $219 $-1 #
edge $-1 $323 -18.065306614322424 $392 -7.7622067225643434 $319 $393 forward 7 unknown #
coedge $-1 $223 $222 $326 $394 reversed $87 $-1 #
edge $-1 $395 0 $323 13.074821534438595 $317 $396 forward 7 unknown #
vertex $-1 $225 $397 #
straight-curve $-1 -56.808323186338782 15.313459811048077 15.591305138673667 0 1 0 I I #
coedge $-1 $390 $226 $229 $330 reversed $315 $-1 #
coedge $-1 $226 $390 $321 $394 forward $315 $-1 #
vertex $-1 $227 $398 #
straight-curve $-1 -67.111423078096863 26.312049059432898 56.655343231677037 0 0 1 I I #
straight-curve $-1 -67.111423078096863 26.312049059432898 7.5416411222147275 -0.78801074757464917 0 -0.61566148304635926 I I #
edge $-1 $392 -34.941790184759412 $230 -26.312049059432898 $325 $399 forward 7 unknown #
point $-1 -67.111423078096863 26.312049059432898 15.591305138673668 #
point $-1 -56.808323186338782 26.312049059432898 15.591305138673668 #
edge $-1 $400 1 $400 0 $233 $-1 forward 7 unknown #
vertex $-1 $234 $401 #
ellipse-curve $-1 -61.15406625263136 28.777689380954754 10.53508737858305 -0.61566148304635926 0 0.78801074757464917 0.39400537378732459 0 0.30783074152317963 1 I I #
point $-1 -61.565867758430485 28.777689380954754 11.874303871967369 #
edge $-1 $402 1 $402 0 $237 $-1 forward 7 unknown #
vertex $-1 $238 $403 #
ellipse-curve $-1 -61.15406625263136 32.476149863237552 10.53508737858305 -0.61566148304635926 0 0.78801074757464917 0.39400537378732459 0 0.30783074152317963 1 I I #
point $-1 -61.565867758430485 32.476149863237552 11.874303871967369 #
plane-surface $-1 67.111423078096863 0 0 -1 0 0 0 0 1 forward_v I I I I #
coedge $-1 $246 $244 $248 $346 reversed $161 $-1 #
edge $-1 $259 -15.591305138673668 $348 15.591305138673668 $258 $404 forward 7 unknown #
vertex $-1 $346 $405 #
straight-curve $-1 -67.111423078096863 -43.740500306419634 0 0 0 -1 I I #
edge $-1 $344 -43.740500306419634 $348 43.740500306419634 $342 $406 forward 7 unknown #
straight-curve $-1 0 -43.740500306419634 -15.591305138673668 -1 0 0 I I #
vertex $-1 $251 $407 #
straight-curve $-1 0 43.740500306419634 -15.591305138673668 1 0 0 I I #
point $-1 67.111423078096863 43.740500306419634 -15.591305138673668 #
point $-1 67.111423078096863 -43.740500306419634 -15.591305138673668 #
straight-curve $-1 -67.111423078096863 0 15.591305138673668 0 -1 0 I I #
point $-1 -67.111423078096863 43.740500306419634 15.591305138673668 #
point $-1 -67.111423078096863 -43.740500306419634 15.591305138673668 #
straight-curve $-1 67.111423078096863 -43.740500306419634 0 0 0 -1 I I #
straight-curve $-1 67.111423078096863 43.740500306419634 0 0 0 -1 I I #
loop $-1 $-1 $365 $268 #
plane-surface $-1 -67.111423078096863 0 0 1 0 0 0 0 -1 forward_v I I I I #
coedge $-1 $272 $271 $371 $408 forward $109 $-1 #
edge $-1 $276 27.277087018987558 $374 43.740500306419634 $275 $409 forward 7 unknown #
coedge $-1 $368 $365 $272 $362 reversed $357 $-1 #
edge $-1 $410 -43.740500306419634 $363 -27.277087018987558 $361 $411 forward 7 unknown #
vertex $-1 $366 $412 #
straight-curve $-1 0 -27.277087018987558 -15.591305138673668 1 0 0 I I #
coedge $-1 $361 $278 $274 $366 forward $357 $-1 #
edge $-1 $280 4.4604398652820763 $363 8.9073901373550868 $365 $413 forward 7 unknown #
point $-1 67.111423078096863 -27.277087018987558 -15.591305138673668 #
coedge $-1 $278 $361 $282 $372 reversed $357 $-1 #
straight-curve $-1 -67.111423078096863 -17.754396831351798 -11.144354866600658 0 1 0 I I #
point $-1 -67.111423078096863 -27.277087018987558 -11.144354866600658 #
coedge $-1 $283 $282 $359 $408 reversed $269 $-1 #
edge $-1 $284 11.144354866600658 $410 15.591305138673668 $368 $414 forward 7 unknown #
point $-1 -67.111423078096863 -43.740500306419634 -11.144354866600658 #
vertex $-1 $286 $415 #
straight-curve $-1 67.111423078096863 -43.740500306419634 0 0 0 -1 I I #
coedge $-1 $300 $299 $292 $377 forward $289 $-1 #
edge $-1 $378 41.064038093003369 $381 49.113702109462309 $376 $416 forward 7 unknown #
vertex $-1 $304 $417 #
straight-curve $-1 -74.873629800661206 -9.8486357720008186 15.591305138673668 -1 0 0 I I #
edge $-1 $381 2.7668826046687816 $301 11.396623729995293 $300 $418 forward 7 unknown #
vertex $-1 $380 $419 #
straight-curve $-1 -67.111423078096863 -9.8486357720008186 7.5416411222147275 0.78801074757464917 0 0.61566148304635926 I I #
point $-1 -56.808323186338782 -9.8486357720008186 15.591305138673668 #
point $-1 -67.111423078096863 -18.47837689732733 7.5416411222147275 #
straight-curve $-1 -67.111423078096863 0 15.591305138673668 0 -1 0 I I #
vertex $-1 $307 $420 #
point $-1 -60.760060878844037 -16.012736575805469 10.84291812010623 #
vertex $-1 $311 $421 #
point $-1 -60.760060878844037 -12.314276093522679 10.84291812010623 #
coedge $-1 $326 $325 $318 $391 forward $315 $-1 #
edge $-1 $392 41.064038093003369 $395 49.113702109462309 $390 $422 forward 7 unknown #
vertex $-1 $330 $423 #
straight-curve $-1 -74.873629800661206 34.941790184759412 15.591305138673668 -1 0 0 I I #
edge $-1 $395 -19.628330373711336 $327 -10.998589248384821 $326 $424 forward 7 unknown #
vertex $-1 $394 $425 #
straight-curve $-1 -67.111423078096863 34.941790184759412 7.5416411222147275 0.78801074757464917 0 0.61566148304635926 I I #
point $-1 -56.808323186338782 34.941790184759412 15.591305138673668 #
point $-1 -67.111423078096863 26.312049059432898 7.5416411222147275 #
straight-curve $-1 -67.111423078096863 0 15.591305138673668 0 -1 0 I I #
vertex $-1 $333 $426 #
point $-1 -60.760060878844037 28.777689380954754 10.84291812010623 #
vertex $-1 $337 $427 #
point $-1 -60.760060878844037 32.476149863237552 10.84291812010623 #
straight-curve $-1 -67.111423078096863 43.740500306419634 0 0 0 -1 I I #
point $-1 -67.111423078096863 -43.740500306419634 -15.591305138673668 #
straight-curve $-1 -67.111423078096863 0 -15.591305138673668 0 1 0 I I #
point $-1 -67.111423078096863 43.740500306419634 -15.591305138673668 #
edge $-1 $374 -67.111423078096863 $410 67.111423078096863 $371 $428 forward 7 unknown #
straight-curve $-1 67.111423078096863 0 -15.591305138673668 0 -1 0 I I #
vertex $-1 $362 $429 #
straight-curve $-1 -67.111423078096863 0 -15.591305138673668 0 1 0 I I #
point $-1 -67.111423078096863 -27.277087018987558 -15.591305138673668 #
straight-curve $-1 -67.111423078096863 -27.277087018987558 -6.6839150013185815 0 0 -1 I I #
straight-curve $-1 -67.111423078096863 -43.740500306419634 0 0 0 -1 I I #
point $-1 67.111423078096863 -43.740500306419634 -15.591305138673668 #
straight-curve $-1 -67.111423078096863 -9.8486357720008186 56.655343231677037 0 0 -1 I I #
point $-1 -67.111423078096863 -9.8486357720008186 15.591305138673668 #
straight-curve $-1 -67.111423078096863 -7.0817531673320371 7.5416411222147257 0 -1 0 I I #
point $-1 -67.111423078096863 -9.8486357720008186 7.5416411222147275 #
point $-1 -60.846235511108183 -16.012736575805469 10.141082004795727 #
point $-1 -60.846235511108183 -12.314276093522679 10.141082004795727 #
straight-curve $-1 -67.111423078096863 34.941790184759412 56.655343231677037 0 0 -1 I I #
point $-1 -67.111423078096863 34.941790184759412 15.591305138673668 #
straight-curve $-1 -67.111423078096863 15.313459811048077 7.5416411222147257 0 -1 0 I I #
point $-1 -67.111423078096863 34.941790184759412 7.5416411222147275 #
point $-1 -60.846235511108183 28.777689380954754 10.141082004795727 #
point $-1 -60.846235511108183 32.476149863237552 10.141082004795727 #
straight-curve $-1 0 -43.740500306419634 -15.591305138673668 -1 0 0 I I #
point $-1 -67.111423078096863 -43.740500306419634 -15.591305138673668 #
End-of-ACIS-data 