500 0 14 0           
7 Unknown 11 ACIS 5.0 NT 24 Thu Mar 25 20:41:17 1999 
-1 9.9999999999999995e-007 1e-010 
body $-1 $14 $-1 $15 #
body $-1 $16 $-1 $17 #
body $-1 $18 $-1 $19 #
body $-1 $20 $-1 $21 #
body $-1 $22 $-1 $23 #
body $-1 $24 $-1 $25 #
body $-1 $26 $-1 $27 #
body $-1 $28 $-1 $29 #
body $-1 $30 $-1 $31 #
body $-1 $32 $-1 $33 #
body $-1 $34 $-1 $35 #
body $-1 $36 $-1 $37 #
body $-1 $38 $-1 $39 #
body $-1 $40 $-1 $41 #
lump $-1 $-1 $42 $0 #
transform $-1 1 0 0 0 1 0 0 0 1 67.389751884517963 39.263008949618332 15.940779237048021 1 rotate no_reflect no_shear #
lump $-1 $-1 $43 $1 #
transform $-1 1 0 0 0 1 0 0 0 1 67.389751884517963 39.263008949618332 15.940779237048021 1 rotate no_reflect no_shear #
lump $-1 $-1 $44 $2 #
transform $-1 1 0 0 0 1 0 0 0 1 67.389751884517963 39.263008949618332 15.940779237048021 1 rotate no_reflect no_shear #
lump $-1 $-1 $45 $3 #
transform $-1 1 0 0 0 1 0 0 0 1 67.389751884517963 39.263008949618332 15.940779237048021 1 rotate no_reflect no_shear #
lump $-1 $-1 $46 $4 #
transform $-1 1 0 0 0 1 0 0 0 1 67.389751884517963 39.263008949618332 15.940779237048021 1 rotate no_reflect no_shear #
lump $-1 $-1 $47 $5 #
transform $-1 1 0 0 0 1 0 0 0 1 67.389751884517963 39.263008949618332 15.940779237048021 1 rotate no_reflect no_shear #
lump $-1 $-1 $48 $6 #
transform $-1 1 0 0 0 1 0 0 0 1 67.389751884517963 39.263008949618332 15.940779237048021 1 rotate no_reflect no_shear #
lump $-1 $-1 $49 $7 #
transform $-1 1 0 0 0 1 0 0 0 1 67.389751884517963 39.263008949618332 15.940779237048021 1 rotate no_reflect no_shear #
lump $-1 $-1 $50 $8 #
transform $-1 1 0 0 0 1 0 0 0 1 67.389751884517963 39.263008949618332 15.940779237048021 1 rotate no_reflect no_shear #
lump $-1 $-1 $51 $9 #
transform $-1 1 0 0 0 1 0 0 0 1 67.389751884517963 39.263008949618332 15.940779237048021 1 rotate no_reflect no_shear #
lump $-1 $-1 $52 $10 #
transform $-1 1 0 0 0 1 0 0 0 1 67.389751884517963 39.263008949618332 15.940779237048021 1 rotate no_reflect no_shear #
lump $-1 $-1 $53 $11 #
transform $-1 1 0 0 0 1 0 0 0 1 67.389751884517963 39.263008949618332 15.940779237048021 1 rotate no_reflect no_shear #
lump $-1 $-1 $54 $12 #
transform $-1 1 0 0 0 1 0 0 0 1 67.389751884517963 39.263008949618332 15.940779237048021 1 rotate no_reflect no_shear #
lump $-1 $-1 $55 $13 #
transform $-1 1 0 0 0 1 0 0 0 1 67.389751884517963 39.263008949618332 15.940779237048021 1 rotate no_reflect no_shear #
shell $-1 $-1 $-1 $56 $-1 $14 #
shell $-1 $-1 $-1 $57 $-1 $16 #
shell $-1 $-1 $-1 $58 $-1 $18 #
shell $-1 $-1 $-1 $59 $-1 $20 #
shell $-1 $-1 $-1 $60 $-1 $22 #
shell $-1 $-1 $-1 $61 $-1 $24 #
shell $-1 $-1 $-1 $62 $-1 $26 #
shell $-1 $-1 $-1 $63 $-1 $28 #
shell $-1 $-1 $-1 $64 $-1 $30 #
shell $-1 $-1 $-1 $65 $-1 $32 #
shell $-1 $-1 $-1 $66 $-1 $34 #
shell $-1 $-1 $-1 $67 $-1 $36 #
shell $-1 $-1 $-1 $68 $-1 $38 #
shell $-1 $-1 $-1 $69 $-1 $40 #
face $-1 $70 $71 $42 $-1 $72 forward single #
face $-1 $73 $74 $43 $-1 $75 forward single #
face $-1 $76 $77 $44 $-1 $78 reversed single #
face $-1 $79 $80 $45 $-1 $81 forward single #
face $-1 $82 $83 $46 $-1 $84 forward single #
face $-1 $85 $86 $47 $-1 $87 forward single #
face $-1 $88 $89 $48 $-1 $90 reversed single #
face $-1 $91 $92 $49 $-1 $93 forward single #
face $-1 $94 $95 $50 $-1 $96 forward single #
face $-1 $97 $98 $51 $-1 $99 forward single #
face $-1 $100 $101 $52 $-1 $102 reversed single #
face $-1 $103 $104 $53 $-1 $105 forward single #
face $-1 $106 $107 $54 $-1 $108 forward single #
face $-1 $109 $110 $55 $-1 $111 forward single #
face $-1 $112 $113 $42 $-1 $114 reversed single #
loop $-1 $-1 $115 $56 #
plane-surface $-1 0 0 15.940779237048021 0 0 1 1 0 0 forward_v I I I I #
face $-1 $116 $117 $43 $-1 $118 reversed single #
loop $-1 $-1 $119 $57 #
plane-surface $-1 0 -31.925307774142681 7.6276178715558531 0 0 1 1 0 0 forward_v I I I I #
face $-1 $120 $121 $44 $-1 $122 reversed single #
loop $-1 $-1 $123 $58 #
plane-surface $-1 34.291195002807498 5.752600879621717 190.42168099951746 0 1 0 0.57357644374324357 0 0.81915203911291934 forward_v I I I I #
face $-1 $124 $125 $45 $-1 $126 forward single #
loop $-1 $127 $128 $59 #
cone-surface $-1 57.621633052305057 7.6792070258233736 8.8676410528152232 -0.57357644374324357 0 -0.81915203911291934 0.40957601955645967 0 -0.28678822187162178 1 I I 0 1 0.5 forward I I I I #
face $-1 $129 $130 $46 $-1 $131 forward single #
loop $-1 $132 $133 $60 #
cone-surface $-1 57.621633052305057 10.569116245125862 8.8676410528152232 -0.57357644374324357 0 -0.81915203911291934 0.40957601955645967 0 -0.28678822187162178 1 I I 0 1 0.5 forward I I I I #
face $-1 $134 $135 $47 $-1 $136 forward single #
loop $-1 $137 $138 $61 #
cone-surface $-1 57.621633052305057 13.45902546442835 8.8676410528152232 -0.57357644374324357 0 -0.81915203911291934 0.40957601955645967 0 -0.28678822187162178 1 I I 0 1 0.5 forward I I I I #
face $-1 $139 $140 $48 $-1 $141 reversed single #
loop $-1 $-1 $142 $62 #
plane-surface $-1 -162.69325407032488 -24.587606598667033 105.13733898921802 0 1 0 -0.70710678939079041 0 0.70710677298230451 forward_v I I I I #
face $-1 $143 $144 $49 $-1 $145 forward single #
loop $-1 $146 $147 $63 #
cone-surface $-1 -63.668256154680982 -22.080212587718329 12.219283451856558 0.70710678939079041 0 -0.70710677298230451 0.70710677298230451 0 0.70710678939079041 1 I I 0 1 1 forward I I I I #
face $-1 $148 $149 $50 $-1 $150 forward single #
loop $-1 $151 $152 $64 #
cone-surface $-1 -63.668256154680982 -18.319121571295273 12.219283451856558 0.70710678939079041 0 -0.70710677298230451 0.70710677298230451 0 0.70710678939079041 1 I I 0 1 1 forward I I I I #
face $-1 $153 $154 $51 $-1 $155 forward single #
loop $-1 $156 $157 $65 #
cone-surface $-1 -63.668256154680982 -14.558030554872218 12.219283451856558 0.70710678939079041 0 -0.70710677298230451 0.70710677298230451 0 0.70710678939079041 1 I I 0 1 1 forward I I I I #
face $-1 $158 $159 $52 $-1 $160 reversed single #
loop $-1 $-1 $161 $66 #
plane-surface $-1 -162.69325407032488 26.726038894874804 105.13733898921802 0 1 0 -0.70710678939079041 0 0.70710677298230451 forward_v I I I I #
face $-1 $162 $163 $53 $-1 $164 forward single #
loop $-1 $165 $166 $67 #
cone-surface $-1 -63.668256154680982 29.233432905823513 12.219283451856558 0.70710678939079041 0 -0.70710677298230451 0.70710677298230451 0 0.70710678939079041 1 I I 0 1 1 forward I I I I #
face $-1 $167 $168 $54 $-1 $169 forward single #
loop $-1 $170 $171 $68 #
cone-surface $-1 -63.668256154680982 32.994523922246564 12.219283451856558 0.70710678939079041 0 -0.70710677298230451 0.70710677298230451 0 0.70710678939079041 1 I I 0 1 1 forward I I I I #
face $-1 $172 $173 $55 $-1 $174 forward single #
loop $-1 $175 $176 $69 #
cone-surface $-1 -63.668256154680982 36.755614938669616 12.219283451856558 0.70710678939079041 0 -0.70710677298230451 0.70710677298230451 0 0.70710678939079041 1 I I 0 1 1 forward I I I I #
face $-1 $177 $178 $42 $-1 $179 reversed single #
loop $-1 $-1 $180 $70 #
plane-surface $-1 0 0 -15.940779237048021 0 0 1 1 0 0 forward_v I I I I #
coedge $-1 $181 $182 $183 $184 forward $71 $-1 #
face $-1 $185 $186 $43 $-1 $187 reversed single #
loop $-1 $-1 $188 $73 #
plane-surface $-1 0 -31.925307774142681 -0.38456113679519266 0 0 1 1 0 0 forward_v I I I I #
coedge $-1 $189 $190 $191 $192 reversed $74 $-1 #
face $-1 $193 $194 $44 $-1 $195 reversed single #
loop $-1 $-1 $196 $76 #
plane-surface $-1 -43.015153458515215 10.569116245125862 80.016775656484285 0.57357644374324357 0 0.81915203911291934 0.81915203911291934 0 -0.57357644374324357 forward_v I I I I #
coedge $-1 $197 $198 $199 $200 reversed $77 $-1 #
face $-1 $-1 $201 $45 $-1 $202 forward single #
loop $-1 $203 $204 $79 #
cone-surface $-1 57.157570376260068 7.6792070258233736 8.2048908797474152 -0.57357644374324357 0 -0.81915203911291934 0.20478800977822983 0 -0.14339411093581089 1 I I -0.70710678118654746 0.70710678118654746 0.25 forward I I I I #
loop $-1 $-1 $205 $59 #
coedge $-1 $128 $128 $206 $207 reversed $80 $-1 #
face $-1 $-1 $208 $46 $-1 $209 forward single #
loop $-1 $210 $211 $82 #
cone-surface $-1 57.157570376260068 10.569116245125862 8.2048908797474152 -0.57357644374324357 0 -0.81915203911291934 0.20478800977822983 0 -0.14339411093581089 1 I I -0.70710678118654746 0.70710678118654746 0.25 forward I I I I #
loop $-1 $-1 $212 $60 #
coedge $-1 $133 $133 $213 $214 reversed $83 $-1 #
face $-1 $-1 $215 $47 $-1 $216 forward single #
loop $-1 $217 $218 $85 #
cone-surface $-1 57.157570376260068 13.45902546442835 8.2048908797474152 -0.57357644374324357 0 -0.81915203911291934 0.20478800977822983 0 -0.14339411093581089 1 I I -0.70710678118654746 0.70710678118654746 0.25 forward I I I I #
loop $-1 $-1 $219 $61 #
coedge $-1 $138 $138 $220 $221 reversed $86 $-1 #
face $-1 $222 $223 $48 $-1 $224 reversed single #
loop $-1 $-1 $225 $88 #
plane-surface $-1 -67.389751884517949 -18.319121571295273 9.8338390149386754 -0.70710678939079041 0 0.70710677298230451 0.70710677298230451 0 0.70710678939079041 forward_v I I I I #
coedge $-1 $226 $227 $228 $229 reversed $89 $-1 #
face $-1 $-1 $230 $49 $-1 $231 forward single #
loop $-1 $232 $233 $91 #
cone-surface $-1 -62.646677070347195 -22.080212587718329 11.197704391228617 0.70710678939079041 0 -0.70710677298230451 0.35355338649115226 0 0.35355339469539521 1 I I -0.70710678118654746 0.70710678118654746 0.5 forward I I I I #
loop $-1 $-1 $234 $63 #
coedge $-1 $147 $147 $235 $236 reversed $92 $-1 #
face $-1 $-1 $237 $50 $-1 $238 forward single #
loop $-1 $239 $240 $94 #
cone-surface $-1 -62.646677070347195 -18.319121571295273 11.197704391228617 0.70710678939079041 0 -0.70710677298230451 0.35355338649115226 0 0.35355339469539521 1 I I -0.70710678118654746 0.70710678118654746 0.5 forward I I I I #
loop $-1 $-1 $241 $64 #
coedge $-1 $152 $152 $242 $243 reversed $95 $-1 #
face $-1 $-1 $244 $51 $-1 $245 forward single #
loop $-1 $246 $247 $97 #
cone-surface $-1 -62.646677070347195 -14.558030554872218 11.197704391228617 0.70710678939079041 0 -0.70710677298230451 0.35355338649115226 0 0.35355339469539521 1 I I -0.70710678118654746 0.70710678118654746 0.5 forward I I I I #
loop $-1 $-1 $248 $65 #
coedge $-1 $157 $157 $249 $250 reversed $98 $-1 #
face $-1 $251 $252 $52 $-1 $253 forward single #
loop $-1 $-1 $254 $100 #
plane-surface $-1 -67.389751884517949 32.994523922246564 9.8338390149386754 -0.70710678939079041 0 0.70710677298230451 0.70710677298230451 0 0.70710678939079041 forward_v I I I I #
coedge $-1 $255 $256 $257 $258 reversed $101 $-1 #
face $-1 $-1 $259 $53 $-1 $260 forward single #
loop $-1 $261 $262 $103 #
cone-surface $-1 -62.646677070347195 29.233432905823513 11.197704391228617 0.70710678939079041 0 -0.70710677298230451 0.35355338649115226 0 0.35355339469539521 1 I I -0.70710678118654746 0.70710678118654746 0.5 forward I I I I #
loop $-1 $-1 $263 $67 #
coedge $-1 $166 $166 $264 $265 reversed $104 $-1 #
face $-1 $-1 $266 $54 $-1 $267 forward single #
loop $-1 $268 $269 $106 #
cone-surface $-1 -62.646677070347195 32.994523922246564 11.197704391228617 0.70710678939079041 0 -0.70710677298230451 0.35355338649115226 0 0.35355339469539521 1 I I -0.70710678118654746 0.70710678118654746 0.5 forward I I I I #
loop $-1 $-1 $270 $68 #
coedge $-1 $171 $171 $271 $272 reversed $107 $-1 #
face $-1 $-1 $273 $55 $-1 $274 forward single #
loop $-1 $275 $276 $109 #
cone-surface $-1 -62.646677070347195 36.755614938669616 11.197704391228617 0.70710678939079041 0 -0.70710677298230451 0.35355338649115226 0 0.35355339469539521 1 I I -0.70710678118654746 0.70710678118654746 0.5 forward I I I I #
loop $-1 $-1 $277 $69 #
coedge $-1 $176 $176 $278 $279 reversed $110 $-1 #
face $-1 $280 $281 $42 $-1 $282 reversed single #
loop $-1 $-1 $283 $112 #
plane-surface $-1 0 -39.263008949618332 0 0 1 0 0 0 1 forward_v I I I I #
coedge $-1 $284 $285 $286 $287 forward $113 $-1 #
coedge $-1 $288 $115 $289 $290 forward $71 $-1 #
coedge $-1 $115 $288 $291 $292 forward $71 $-1 #
coedge $-1 $293 $294 $115 $184 reversed $295 $-1 #
edge $-1 $296 -39.263008949618332 $297 39.263008949618332 $183 $298 forward 7 unknown #
face $-1 $299 $300 $43 $-1 $301 reversed single #
loop $-1 $-1 $302 $116 #
plane-surface $-1 0 -24.58760659866703 3.6215283673803302 0 -1 0 0 0 -1 forward_v I I I I #
coedge $-1 $303 $304 $305 $306 reversed $117 $-1 #
coedge $-1 $307 $119 $308 $309 forward $74 $-1 #
coedge $-1 $119 $307 $310 $311 reversed $74 $-1 #
coedge $-1 $312 $313 $119 $192 forward $314 $-1 #
edge $-1 $315 8.6249527115956894 $316 23.300355062546991 $191 $317 forward 7 unknown #
face $-1 $318 $319 $44 $-1 $320 forward single #
loop $-1 $-1 $321 $120 #
plane-surface $-1 34.291195002807498 15.385631610630007 190.42168099951746 0 -1 0 -0.57357644374324357 0 -0.81915203911291934 forward_v I I I I #
coedge $-1 $322 $323 $324 $325 reversed $121 $-1 #
coedge $-1 $198 $123 $326 $327 reversed $77 $-1 #
coedge $-1 $123 $197 $322 $328 reversed $77 $-1 #
coedge $-1 $324 $329 $123 $200 forward $330 $-1 #
edge $-1 $331 79.270061262710712 $332 92.50041330459716 $199 $333 forward 7 unknown #
loop $-1 $-1 $206 $124 #
plane-surface $-1 -43.015153458515215 10.569116245125862 80.016775656484285 0.57357644374324357 0 0.81915203911291934 0.81915203911291934 0 -0.57357644374324357 forward_v I I I I #
loop $-1 $-1 $334 $79 #
coedge $-1 $204 $204 $205 $335 reversed $125 $-1 #
coedge $-1 $205 $205 $204 $335 forward $127 $-1 #
coedge $-1 $206 $206 $128 $207 forward $201 $-1 #
edge $-1 $336 0 $336 6.2831853071796004 $206 $337 forward 7 unknown #
loop $-1 $-1 $213 $129 #
plane-surface $-1 -43.015153458515215 10.569116245125862 80.016775656484285 0.57357644374324357 0 0.81915203911291934 0.81915203911291934 0 -0.57357644374324357 forward_v I I I I #
loop $-1 $-1 $338 $82 #
coedge $-1 $211 $211 $212 $339 reversed $130 $-1 #
coedge $-1 $212 $212 $211 $339 forward $132 $-1 #
coedge $-1 $213 $213 $133 $214 forward $208 $-1 #
edge $-1 $340 0 $340 6.2831853071796004 $213 $341 forward 7 unknown #
loop $-1 $-1 $220 $134 #
plane-surface $-1 -43.015153458515215 10.569116245125862 80.016775656484285 0.57357644374324357 0 0.81915203911291934 0.81915203911291934 0 -0.57357644374324357 forward_v I I I I #
loop $-1 $-1 $342 $85 #
coedge $-1 $218 $218 $219 $343 reversed $135 $-1 #
coedge $-1 $219 $219 $218 $343 forward $137 $-1 #
coedge $-1 $220 $220 $138 $221 forward $215 $-1 #
edge $-1 $344 0 $344 6.2831853071796004 $220 $345 forward 7 unknown #
face $-1 $346 $347 $48 $-1 $348 reversed single #
loop $-1 $-1 $349 $139 #
plane-surface $-1 -162.69325407032488 -12.050636543923513 105.13733898921802 0 -1 0 0.70710678939079041 0 -0.70710677298230451 forward_v I I I I #
coedge $-1 $350 $351 $352 $353 reversed $140 $-1 #
coedge $-1 $227 $142 $354 $355 reversed $89 $-1 #
coedge $-1 $142 $226 $350 $356 reversed $89 $-1 #
coedge $-1 $352 $357 $142 $229 forward $358 $-1 #
edge $-1 $359 13.956875150644478 $360 20.063815231041659 $228 $361 forward 7 unknown #
loop $-1 $-1 $235 $143 #
plane-surface $-1 -67.389751884517949 -18.319121571295273 9.8338390149386754 -0.70710678939079041 0 0.70710677298230451 0.70710677298230451 0 0.70710678939079041 forward_v I I I I #
loop $-1 $-1 $362 $91 #
coedge $-1 $233 $233 $234 $363 reversed $144 $-1 #
coedge $-1 $234 $234 $233 $363 forward $146 $-1 #
coedge $-1 $235 $235 $147 $236 forward $230 $-1 #
edge $-1 $364 0 $364 6.2831853071796004 $235 $365 forward 7 unknown #
loop $-1 $-1 $242 $148 #
plane-surface $-1 -67.389751884517949 -18.319121571295273 9.8338390149386754 -0.70710678939079041 0 0.70710677298230451 0.70710677298230451 0 0.70710678939079041 forward_v I I I I #
loop $-1 $-1 $366 $94 #
coedge $-1 $240 $240 $241 $367 reversed $149 $-1 #
coedge $-1 $241 $241 $240 $367 forward $151 $-1 #
coedge $-1 $242 $242 $152 $243 forward $237 $-1 #
edge $-1 $368 0 $368 6.2831853071796004 $242 $369 forward 7 unknown #
loop $-1 $-1 $249 $153 #
plane-surface $-1 -67.389751884517949 -18.319121571295273 9.8338390149386754 -0.70710678939079041 0 0.70710677298230451 0.70710677298230451 0 0.70710678939079041 forward_v I I I I #
loop $-1 $-1 $370 $97 #
coedge $-1 $247 $247 $248 $371 reversed $154 $-1 #
coedge $-1 $248 $248 $247 $371 forward $156 $-1 #
coedge $-1 $249 $249 $157 $250 forward $244 $-1 #
edge $-1 $372 0 $372 6.2831853071796004 $249 $373 forward 7 unknown #
face $-1 $374 $375 $52 $-1 $376 reversed single #
loop $-1 $-1 $257 $158 #
plane-surface $-1 0 0 15.940779237048021 0 0 1 1 0 0 forward_v I I I I #
coedge $-1 $377 $378 $379 $380 reversed $159 $-1 #
coedge $-1 $256 $161 $381 $382 reversed $101 $-1 #
coedge $-1 $161 $255 $377 $383 reversed $101 $-1 #
coedge $-1 $379 $384 $161 $258 forward $252 $-1 #
edge $-1 $385 13.956875150644478 $386 20.063815231041659 $257 $387 forward 7 unknown #
loop $-1 $-1 $264 $162 #
plane-surface $-1 -67.389751884517949 32.994523922246564 9.8338390149386754 -0.70710678939079041 0 0.70710677298230451 0.70710677298230451 0 0.70710678939079041 forward_v I I I I #
loop $-1 $-1 $388 $103 #
coedge $-1 $262 $262 $263 $389 reversed $163 $-1 #
coedge $-1 $263 $263 $262 $389 forward $165 $-1 #
coedge $-1 $264 $264 $166 $265 forward $259 $-1 #
edge $-1 $390 0 $390 6.2831853071796004 $264 $391 forward 7 unknown #
loop $-1 $-1 $271 $167 #
plane-surface $-1 -67.389751884517949 32.994523922246564 9.8338390149386754 -0.70710678939079041 0 0.70710677298230451 0.70710677298230451 0 0.70710678939079041 forward_v I I I I #
loop $-1 $-1 $392 $106 #
coedge $-1 $269 $269 $270 $393 reversed $168 $-1 #
coedge $-1 $270 $270 $269 $393 forward $170 $-1 #
coedge $-1 $271 $271 $171 $272 forward $266 $-1 #
edge $-1 $394 0 $394 6.2831853071796004 $271 $395 forward 7 unknown #
loop $-1 $-1 $278 $172 #
plane-surface $-1 -67.389751884517949 32.994523922246564 9.8338390149386754 -0.70710678939079041 0 0.70710677298230451 0.70710677298230451 0 0.70710678939079041 forward_v I I I I #
loop $-1 $-1 $396 $109 #
coedge $-1 $276 $276 $277 $397 reversed $173 $-1 #
coedge $-1 $277 $277 $276 $397 forward $175 $-1 #
coedge $-1 $278 $278 $176 $279 forward $273 $-1 #
edge $-1 $398 0 $398 6.2831853071796004 $278 $399 forward 7 unknown #
face $-1 $400 $401 $42 $-1 $402 reversed single #
loop $-1 $-1 $403 $177 #
plane-surface $-1 -67.389751884517963 0 0 1 0 0 0 0 -1 forward_v I I I I #
coedge $-1 $404 $291 $405 $406 forward $178 $-1 #
coedge $-1 $407 $180 $404 $408 forward $113 $-1 #
coedge $-1 $180 $407 $409 $410 forward $113 $-1 #
coedge $-1 $294 $293 $180 $287 reversed $295 $-1 #
edge $-1 $411 -39.263008949618332 $412 39.263008949618332 $286 $413 forward 7 unknown #
coedge $-1 $182 $181 $414 $415 forward $71 $-1 #
coedge $-1 $416 $417 $181 $290 reversed $401 $-1 #
edge $-1 $297 -67.389751884517963 $418 67.389751884517963 $289 $419 forward 7 unknown #
coedge $-1 $283 $420 $182 $292 reversed $178 $-1 #
edge $-1 $421 -67.389751884517963 $296 67.389751884517963 $291 $422 forward 7 unknown #
coedge $-1 $286 $183 $420 $423 forward $295 $-1 #
coedge $-1 $183 $286 $416 $424 reversed $295 $-1 #
loop $-1 $-1 $293 $400 #
vertex $-1 $184 $425 #
vertex $-1 $184 $426 #
straight-curve $-1 67.389751884517963 0 15.940779237048021 0 1 0 I I #
face $-1 $427 $428 $43 $-1 $429 reversed single #
loop $-1 $-1 $430 $185 #
plane-surface $-1 -67.389751884517963 0 0 1 0 0 0 0 -1 forward_v I I I I #
coedge $-1 $431 $308 $313 $432 reversed $186 $-1 #
coedge $-1 $433 $188 $434 $435 reversed $117 $-1 #
coedge $-1 $188 $433 $431 $436 forward $117 $-1 #
coedge $-1 $313 $312 $188 $306 forward $314 $-1 #
edge $-1 $437 -23.300355062546991 $438 -8.6249527115956894 $305 $439 forward 7 unknown #
coedge $-1 $190 $189 $430 $440 reversed $74 $-1 #
coedge $-1 $302 $441 $189 $309 reversed $186 $-1 #
edge $-1 $315 -67.389751884517963 $442 67.389751884517963 $308 $443 forward 7 unknown #
coedge $-1 $444 $445 $190 $311 forward $428 $-1 #
edge $-1 $316 -67.389751884517963 $446 67.389751884517963 $310 $447 forward 7 unknown #
coedge $-1 $305 $191 $445 $448 forward $314 $-1 #
coedge $-1 $191 $305 $302 $432 forward $314 $-1 #
loop $-1 $-1 $191 $427 #
vertex $-1 $192 $449 #
vertex $-1 $448 $450 #
straight-curve $-1 67.389751884517963 -15.96265388707134 7.6276178715558531 0 -1 0 I I #
face $-1 $-1 $330 $44 $-1 $451 reversed single #
loop $-1 $-1 $452 $193 #
plane-surface $-1 0 0 15.940779237048021 0 0 1 1 0 0 forward_v I I I I #
coedge $-1 $453 $454 $455 $456 reversed $194 $-1 #
coedge $-1 $457 $196 $198 $328 forward $121 $-1 #
coedge $-1 $196 $457 $453 $458 forward $121 $-1 #
coedge $-1 $455 $199 $196 $325 forward $330 $-1 #
edge $-1 $332 0.46804275705878595 $459 10.101073488067076 $324 $460 forward 7 unknown #
coedge $-1 $461 $462 $197 $327 forward $319 $-1 #
edge $-1 $463 31.349253848906692 $331 50.244154383114214 $326 $464 forward 7 unknown #
edge $-1 $332 -134.77950376903593 $463 -111.71308919394765 $198 $465 forward 7 unknown #
coedge $-1 $199 $455 $461 $466 reversed $330 $-1 #
loop $-1 $-1 $455 $318 #
vertex $-1 $466 $467 #
vertex $-1 $200 $468 #
straight-curve $-1 67.389751884517963 5.752600879621717 95.210840499758731 0 0 -1 I I #
coedge $-1 $334 $334 $-1 $469 reversed $203 $-1 #
edge $-1 $470 0 $470 6.2831853071796004 $204 $471 forward 7 unknown #
vertex $-1 $207 $472 #
ellipse-curve $-1 57.942301617414223 7.6792070258233736 9.3256032161047813 0.57357644374324357 0 0.81915203911291934 0.40957601955645967 0 -0.28678822187162178 1 I I #
coedge $-1 $338 $338 $-1 $473 reversed $210 $-1 #
edge $-1 $474 0 $474 6.2831853071796004 $211 $475 forward 7 unknown #
vertex $-1 $214 $476 #
ellipse-curve $-1 57.942301617414223 10.569116245125862 9.3256032161047813 0.57357644374324357 0 0.81915203911291934 0.40957601955645967 0 -0.28678822187162178 1 I I #
coedge $-1 $342 $342 $-1 $477 reversed $217 $-1 #
edge $-1 $478 0 $478 6.2831853071796004 $218 $479 forward 7 unknown #
vertex $-1 $221 $480 #
ellipse-curve $-1 57.942301617414223 13.45902546442835 9.3256032161047813 0.57357644374324357 0 0.81915203911291934 0.40957601955645967 0 -0.28678822187162178 1 I I #
face $-1 $-1 $358 $48 $-1 $481 forward single #
loop $-1 $-1 $482 $222 #
plane-surface $-1 -67.389751884517963 0 0 1 0 0 0 0 -1 forward_v I I I I #
coedge $-1 $483 $484 $485 $486 reversed $223 $-1 #
coedge $-1 $487 $225 $227 $356 forward $140 $-1 #
coedge $-1 $225 $487 $483 $488 forward $140 $-1 #
coedge $-1 $485 $228 $225 $353 forward $358 $-1 #
edge $-1 $360 -15.428045813019397 $489 -2.8910757582758766 $352 $490 forward 7 unknown #
coedge $-1 $491 $492 $226 $355 forward $347 $-1 #
edge $-1 $493 -42.73483047967035 $359 -36.627890257560992 $354 $494 forward 7 unknown #
edge $-1 $360 -8.6365175865031585 $493 2.0097183471152325e-014 $227 $495 forward 7 unknown #
coedge $-1 $228 $485 $491 $496 forward $358 $-1 #
loop $-1 $-1 $485 $346 #
vertex $-1 $355 $497 #
vertex $-1 $229 $498 #
straight-curve $-1 -81.346627035162442 -24.587606598667033 15.940779237048019 1 0 0 I I #
coedge $-1 $362 $362 $-1 $499 reversed $232 $-1 #
edge $-1 $500 0 $500 6.2831853071796004 $233 $501 forward 7 unknown #
vertex $-1 $236 $502 #
ellipse-curve $-1 -64.336281844319373 -22.080212587718329 12.887309125993342 -0.70710678939079041 0 0.70710677298230451 0.70710677298230451 0 0.70710678939079041 1 I I #
coedge $-1 $366 $366 $-1 $503 reversed $239 $-1 #
edge $-1 $504 0 $504 6.2831853071796004 $240 $505 forward 7 unknown #
vertex $-1 $243 $506 #
ellipse-curve $-1 -64.336281844319373 -18.319121571295273 12.887309125993342 -0.70710678939079041 0 0.70710677298230451 0.70710677298230451 0 0.70710678939079041 1 I I #
coedge $-1 $370 $370 $-1 $507 reversed $246 $-1 #
edge $-1 $508 0 $508 6.2831853071796004 $247 $509 forward 7 unknown #
vertex $-1 $250 $510 #
ellipse-curve $-1 -64.336281844319373 -14.558030554872218 12.887309125993342 -0.70710678939079041 0 0.70710677298230451 0.70710677298230451 0 0.70710678939079041 1 I I #
face $-1 $-1 $511 $52 $-1 $512 reversed single #
loop $-1 $-1 $513 $251 #
plane-surface $-1 0 39.263008949618332 0 0 -1 0 0 0 -1 forward_v I I I I #
coedge $-1 $514 $254 $256 $383 forward $159 $-1 #
coedge $-1 $254 $514 $513 $515 reversed $159 $-1 #
coedge $-1 $516 $257 $254 $380 forward $252 $-1 #
edge $-1 $386 10.228776933751522 $517 22.765746988495042 $379 $518 forward 7 unknown #
coedge $-1 $519 $520 $255 $382 forward $511 $-1 #
edge $-1 $521 -42.73483047967035 $385 -36.627890257560992 $381 $522 forward 7 unknown #
edge $-1 $386 -8.6365175865031585 $521 2.0097183471152325e-014 $256 $523 forward 7 unknown #
coedge $-1 $257 $516 $519 $524 forward $252 $-1 #
vertex $-1 $382 $525 #
vertex $-1 $258 $526 #
straight-curve $-1 -81.346627035162442 26.726038894874804 15.940779237048019 1 0 0 I I #
coedge $-1 $388 $388 $-1 $527 reversed $261 $-1 #
edge $-1 $528 0 $528 6.2831853071796004 $262 $529 forward 7 unknown #
vertex $-1 $265 $530 #
ellipse-curve $-1 -64.336281844319373 29.233432905823513 12.887309125993342 -0.70710678939079041 0 0.70710677298230451 0.70710677298230451 0 0.70710678939079041 1 I I #
coedge $-1 $392 $392 $-1 $531 reversed $268 $-1 #
edge $-1 $532 0 $532 6.2831853071796004 $269 $533 forward 7 unknown #
vertex $-1 $272 $534 #
ellipse-curve $-1 -64.336281844319373 32.994523922246564 12.887309125993342 -0.70710678939079041 0 0.70710677298230451 0.70710677298230451 0 0.70710678939079041 1 I I #
coedge $-1 $396 $396 $-1 $535 reversed $275 $-1 #
edge $-1 $536 0 $536 6.2831853071796004 $276 $537 forward 7 unknown #
vertex $-1 $279 $538 #
ellipse-curve $-1 -64.336281844319373 36.755614938669616 12.887309125993342 -0.70710678939079041 0 0.70710677298230451 0.70710677298230451 0 0.70710678939079041 1 I I #
face $-1 $-1 $295 $42 $-1 $539 reversed single #
loop $-1 $-1 $416 $280 #
plane-surface $-1 0 39.263008949618332 0 0 -1 0 0 0 -1 forward_v I I I I #
coedge $-1 $540 $414 $417 $541 forward $281 $-1 #
coedge $-1 $420 $283 $284 $408 reversed $178 $-1 #
coedge $-1 $414 $540 $283 $406 reversed $281 $-1 #
edge $-1 $421 -15.940779237048021 $542 15.940779237048021 $405 $543 forward 7 unknown #
coedge $-1 $285 $284 $540 $544 forward $113 $-1 #
edge $-1 $412 -67.389751884517963 $542 67.389751884517963 $404 $545 forward 7 unknown #
coedge $-1 $417 $416 $285 $410 reversed $401 $-1 #
edge $-1 $546 -67.389751884517963 $411 67.389751884517963 $409 $547 forward 7 unknown #
vertex $-1 $287 $548 #
vertex $-1 $423 $549 #
straight-curve $-1 67.389751884517963 0 -15.940779237048021 0 -1 0 I I #
coedge $-1 $403 $405 $288 $415 reversed $281 $-1 #
edge $-1 $418 -39.263008949618332 $421 39.263008949618332 $414 $550 forward 7 unknown #
coedge $-1 $409 $289 $294 $424 forward $401 $-1 #
coedge $-1 $289 $409 $403 $541 reversed $401 $-1 #
vertex $-1 $290 $551 #
straight-curve $-1 0 39.263008949618332 15.940779237048021 -1 0 0 I I #
coedge $-1 $291 $404 $293 $423 reversed $178 $-1 #
vertex $-1 $415 $552 #
straight-curve $-1 0 -39.263008949618332 15.940779237048021 1 0 0 I I #
edge $-1 $296 -15.940779237048021 $412 15.940779237048021 $293 $553 forward 7 unknown #
edge $-1 $297 -15.940779237048021 $411 15.940779237048021 $294 $554 forward 7 unknown #
point $-1 67.389751884517963 -39.263008949618332 15.940779237048021 #
point $-1 67.389751884517963 39.263008949618332 15.940779237048021 #
face $-1 $-1 $314 $43 $-1 $555 reversed single #
loop $-1 $-1 $310 $299 #
plane-surface $-1 0 -39.263008949618332 0 0 1 0 0 0 1 forward_v I I I I #
coedge $-1 $556 $557 $307 $440 forward $300 $-1 #
coedge $-1 $441 $302 $304 $436 reversed $186 $-1 #
edge $-1 $438 -2.1953253204853578 $315 5.816853687865688 $313 $558 forward 7 unknown #
coedge $-1 $304 $303 $559 $560 reversed $117 $-1 #
coedge $-1 $445 $444 $303 $435 forward $428 $-1 #
edge $-1 $561 -67.389751884517963 $437 67.389751884517963 $434 $562 forward 7 unknown #
edge $-1 $563 -67.389751884517963 $438 67.389751884517963 $431 $564 forward 7 unknown #
vertex $-1 $435 $565 #
vertex $-1 $306 $566 #
straight-curve $-1 67.389751884517963 -15.96265388707134 -0.38456113679519266 0 1 0 I I #
edge $-1 $446 -23.300355062546991 $442 -8.6249527115956894 $430 $567 forward 7 unknown #
coedge $-1 $308 $431 $556 $568 reversed $186 $-1 #
vertex $-1 $440 $569 #
straight-curve $-1 0 -24.58760659866703 7.6276178715558531 -1 0 0 I I #
coedge $-1 $434 $310 $557 $570 forward $428 $-1 #
coedge $-1 $310 $434 $312 $448 reversed $428 $-1 #
vertex $-1 $570 $571 #
straight-curve $-1 0 -39.263008949618332 7.6276178715558531 -1 0 0 I I #
edge $-1 $316 -7.6276178715558531 $437 0.38456113679519266 $312 $572 forward 7 unknown #
point $-1 67.389751884517963 -24.58760659866703 7.6276178715558531 #
point $-1 67.389751884517963 -39.263008949618332 7.6276178715558531 #
plane-surface $-1 67.389751884517963 0 0 -1 0 0 0 0 1 forward_v I I I I #
coedge $-1 $462 $461 $454 $573 forward $319 $-1 #
coedge $-1 $454 $321 $323 $458 reversed $194 $-1 #
coedge $-1 $321 $453 $452 $573 reversed $194 $-1 #
coedge $-1 $329 $324 $321 $456 forward $330 $-1 #
edge $-1 $459 -92.50041330459716 $574 -79.270061262710712 $455 $575 forward 7 unknown #
coedge $-1 $323 $322 $462 $576 reversed $121 $-1 #
edge $-1 $577 111.71308919394765 $459 134.77950376903593 $453 $578 forward 7 unknown #
vertex $-1 $325 $579 #
straight-curve $-1 67.389751884517977 5.284558122562931 2.7104271951615573 0 1 0 I I #
coedge $-1 $452 $326 $329 $466 forward $319 $-1 #
coedge $-1 $326 $452 $457 $576 forward $319 $-1 #
vertex $-1 $327 $580 #
straight-curve $-1 17.145597501403749 5.752600879621717 15.940779237048019 1 0 0 I I #
straight-curve $-1 -43.015153458515215 5.752600879621717 80.016775656484285 -0.81915203911291934 0 0.57357644374324357 I I #
edge $-1 $331 5.752600879621717 $574 15.385631610630007 $329 $581 forward 7 unknown #
point $-1 67.389751884517963 5.752600879621717 15.940779237048021 #
point $-1 67.389751884517963 5.752600879621717 2.7104271951615715 #
edge $-1 $582 1 $582 0 $334 $-1 forward 7 unknown #
vertex $-1 $335 $583 #
ellipse-curve $-1 57.300964487195877 7.6792070258233736 8.4096788895256456 0.57357644374324357 0 0.81915203911291934 0.40957601955645967 0 -0.28678822187162178 1 I I #
point $-1 58.351877636970698 7.6792070258233736 9.0388149942331779 #
edge $-1 $584 1 $584 0 $338 $-1 forward 7 unknown #
vertex $-1 $339 $585 #
ellipse-curve $-1 57.300964487195877 10.569116245125862 8.4096788895256456 0.57357644374324357 0 0.81915203911291934 0.40957601955645967 0 -0.28678822187162178 1 I I #
point $-1 58.351877636970698 10.569116245125862 9.0388149942331779 #
edge $-1 $586 1 $586 0 $342 $-1 forward 7 unknown #
vertex $-1 $343 $587 #
ellipse-curve $-1 57.300964487195877 13.45902546442835 8.4096788895256456 0.57357644374324357 0 0.81915203911291934 0.40957601955645967 0 -0.28678822187162178 1 I I #
point $-1 58.351877636970698 13.45902546442835 9.0388149942331779 #
plane-surface $-1 0 0 15.940779237048021 0 0 1 1 0 0 forward_v I I I I #
coedge $-1 $492 $491 $484 $588 forward $347 $-1 #
coedge $-1 $484 $349 $351 $488 reversed $223 $-1 #
coedge $-1 $349 $483 $482 $588 reversed $223 $-1 #
coedge $-1 $357 $352 $349 $486 forward $358 $-1 #
edge $-1 $489 -20.063815231041659 $589 -13.956875150644478 $485 $590 forward 7 unknown #
coedge $-1 $351 $350 $492 $591 reversed $140 $-1 #
edge $-1 $592 -2.0097183471152325e-014 $489 8.6365175865031585 $483 $593 forward 7 unknown #
vertex $-1 $353 $594 #
straight-curve $-1 -61.282811804120776 -9.1595607856476366 15.940779237048019 0 1 0 I I #
coedge $-1 $482 $354 $357 $496 reversed $347 $-1 #
coedge $-1 $354 $482 $487 $591 forward $347 $-1 #
vertex $-1 $355 $595 #
straight-curve $-1 -67.389751884517963 -24.587606598667033 52.568669494609011 0 0 1 I I #
straight-curve $-1 -67.389751884517949 -24.587606598667033 9.8338390149386754 -0.70710677298230451 0 -0.70710678939079041 I I #
edge $-1 $589 12.050636543923513 $359 24.587606598667033 $491 $596 forward 7 unknown #
point $-1 -67.389751884517963 -24.587606598667033 15.940779237048021 #
point $-1 -61.282811804120783 -24.587606598667033 15.940779237048021 #
edge $-1 $597 1 $597 0 $362 $-1 forward 7 unknown #
vertex $-1 $363 $598 #
ellipse-curve $-1 -63.000230465042591 -22.080212587718329 11.551257777719769 -0.70710678939079041 0 0.70710677298230451 0.70710677298230451 0 0.70710678939079041 1 I I #
point $-1 -63.629175071337073 -22.080212587718329 13.59441591538414 #
edge $-1 $599 1 $599 0 $366 $-1 forward 7 unknown #
vertex $-1 $367 $600 #
ellipse-curve $-1 -63.000230465042591 -18.319121571295273 11.551257777719769 -0.70710678939079041 0 0.70710677298230451 0.70710677298230451 0 0.70710678939079041 1 I I #
point $-1 -63.629175071337073 -18.319121571295273 13.59441591538414 #
edge $-1 $601 1 $601 0 $370 $-1 forward 7 unknown #
vertex $-1 $371 $602 #
ellipse-curve $-1 -63.000230465042591 -14.558030554872218 11.551257777719769 -0.70710678939079041 0 0.70710677298230451 0.70710677298230451 0 0.70710678939079041 1 I I #
point $-1 -63.629175071337073 -14.558030554872218 13.59441591538414 #
loop $-1 $-1 $381 $374 #
plane-surface $-1 -67.389751884517963 0 0 1 0 0 0 0 -1 forward_v I I I I #
coedge $-1 $603 $604 $378 $515 forward $375 $-1 #
coedge $-1 $378 $377 $520 $605 reversed $159 $-1 #
edge $-1 $517 11.712570240447086 $606 20.349087826950264 $513 $607 forward 7 unknown #
coedge $-1 $384 $379 $604 $608 forward $252 $-1 #
vertex $-1 $608 $609 #
straight-curve $-1 -61.282811804120776 16.497261961123282 15.940779237048019 0 1 0 I I #
coedge $-1 $610 $381 $384 $524 reversed $511 $-1 #
coedge $-1 $381 $610 $514 $605 forward $511 $-1 #
vertex $-1 $382 $611 #
straight-curve $-1 -67.389751884517963 26.726038894874804 52.568669494609011 0 0 1 I I #
straight-curve $-1 -67.389751884517949 26.726038894874804 9.8338390149386754 -0.70710677298230451 0 -0.70710678939079041 I I #
edge $-1 $612 -39.263008949618332 $385 -26.726038894874804 $519 $613 forward 7 unknown #
point $-1 -67.389751884517963 26.726038894874804 15.940779237048021 #
point $-1 -61.282811804120783 26.726038894874804 15.940779237048021 #
edge $-1 $614 1 $614 0 $388 $-1 forward 7 unknown #
vertex $-1 $389 $615 #
ellipse-curve $-1 -63.000230465042591 29.233432905823513 11.551257777719769 -0.70710678939079041 0 0.70710677298230451 0.70710677298230451 0 0.70710678939079041 1 I I #
point $-1 -63.629175071337073 29.233432905823513 13.59441591538414 #
edge $-1 $616 1 $616 0 $392 $-1 forward 7 unknown #
vertex $-1 $393 $617 #
ellipse-curve $-1 -63.000230465042591 32.994523922246564 11.551257777719769 -0.70710678939079041 0 0.70710677298230451 0.70710677298230451 0 0.70710678939079041 1 I I #
point $-1 -63.629175071337073 32.994523922246564 13.59441591538414 #
edge $-1 $618 1 $618 0 $396 $-1 forward 7 unknown #
vertex $-1 $397 $619 #
ellipse-curve $-1 -63.000230465042591 36.755614938669616 11.551257777719769 -0.70710678939079041 0 0.70710677298230451 0.70710677298230451 0 0.70710678939079041 1 I I #
point $-1 -63.629175071337073 36.755614938669616 13.59441591538414 #
plane-surface $-1 67.389751884517963 0 0 -1 0 0 0 0 1 forward_v I I I I #
coedge $-1 $405 $403 $407 $544 reversed $281 $-1 #
edge $-1 $418 -15.940779237048021 $546 15.940779237048021 $417 $620 forward 7 unknown #
vertex $-1 $544 $621 #
straight-curve $-1 -67.389751884517963 -39.263008949618332 0 0 0 -1 I I #
edge $-1 $542 -39.263008949618332 $546 39.263008949618332 $540 $622 forward 7 unknown #
straight-curve $-1 0 -39.263008949618332 -15.940779237048021 -1 0 0 I I #
vertex $-1 $410 $623 #
straight-curve $-1 0 39.263008949618332 -15.940779237048021 1 0 0 I I #
point $-1 67.389751884517963 39.263008949618332 -15.940779237048021 #
point $-1 67.389751884517963 -39.263008949618332 -15.940779237048021 #
straight-curve $-1 -67.389751884517963 0 15.940779237048021 0 -1 0 I I #
point $-1 -67.389751884517963 39.263008949618332 15.940779237048021 #
point $-1 -67.389751884517963 -39.263008949618332 15.940779237048021 #
straight-curve $-1 67.389751884517963 -39.263008949618332 0 0 0 -1 I I #
straight-curve $-1 67.389751884517963 39.263008949618332 0 0 0 -1 I I #
plane-surface $-1 67.389751884517963 0 0 -1 0 0 0 0 1 forward_v I I I I #
coedge $-1 $559 $430 $441 $568 forward $300 $-1 #
coedge $-1 $430 $559 $444 $570 reversed $300 $-1 #
straight-curve $-1 67.389751884517963 -24.58760659866703 1.8107641836901651 0 0 1 I I #
coedge $-1 $557 $556 $433 $560 forward $300 $-1 #
edge $-1 $563 8.6249527115956894 $561 23.300355062546991 $559 $624 forward 7 unknown #
vertex $-1 $435 $625 #
straight-curve $-1 0 -39.263008949618332 -0.38456113679519266 1 0 0 I I #
vertex $-1 $560 $626 #
straight-curve $-1 0 -24.58760659866703 -0.38456113679519266 1 0 0 I I #
point $-1 67.389751884517963 -39.263008949618332 -0.38456113679519266 #
point $-1 67.389751884517963 -24.58760659866703 -0.38456113679519266 #
straight-curve $-1 -67.389751884517963 -15.96265388707134 7.6276178715558531 0 1 0 I I #
edge $-1 $442 -5.816853687865688 $563 2.1953253204853578 $556 $627 forward 7 unknown #
point $-1 -67.389751884517963 -24.58760659866703 7.6276178715558531 #
edge $-1 $446 -7.6276178715558531 $561 0.38456113679519266 $557 $628 forward 7 unknown #
point $-1 -67.389751884517963 -39.263008949618332 7.6276178715558531 #
straight-curve $-1 67.389751884517963 -39.263008949618332 0 0 0 -1 I I #
edge $-1 $574 -50.244154383114214 $577 -31.349253848906692 $452 $629 forward 7 unknown #
vertex $-1 $573 $630 #
straight-curve $-1 67.389751884517963 15.385631610630007 95.210840499758731 0 0 1 I I #
edge $-1 $577 -10.101073488067076 $463 -0.46804275705878595 $462 $631 forward 7 unknown #
vertex $-1 $576 $632 #
straight-curve $-1 -43.015153458515215 15.385631610630007 80.016775656484285 0.81915203911291934 0 -0.57357644374324357 I I #
point $-1 67.389751884517963 15.385631610630007 2.7104271951615715 #
point $-1 48.494851350310441 5.752600879621717 15.940779237048019 #
straight-curve $-1 67.389751884517963 0 15.940779237048021 0 1 0 I I #
vertex $-1 $469 $633 #
point $-1 57.710540506752338 7.6792070258233736 8.1228906676540227 #
vertex $-1 $473 $634 #
point $-1 57.710540506752338 10.569116245125862 8.1228906676540227 #
vertex $-1 $477 $635 #
point $-1 57.710540506752338 13.45902546442835 8.1228906676540227 #
edge $-1 $589 36.627890257560992 $592 42.73483047967035 $482 $636 forward 7 unknown #
vertex $-1 $496 $637 #
straight-curve $-1 -81.346627035162442 -12.050636543923513 15.940779237048019 -1 0 0 I I #
edge $-1 $592 2.8910757582758766 $493 15.428045813019397 $492 $638 forward 7 unknown #
vertex $-1 $591 $639 #
straight-curve $-1 -67.389751884517949 -12.050636543923513 9.8338390149386754 0.70710677298230451 0 0.70710678939079041 I I #
point $-1 -61.282811804120783 -12.050636543923513 15.940779237048021 #
point $-1 -67.389751884517963 -24.587606598667033 9.8338390149386612 #
straight-curve $-1 -67.389751884517963 0 15.940779237048021 0 -1 0 I I #
vertex $-1 $499 $640 #
point $-1 -62.293123692060284 -22.080212587718329 12.25836456711056 #
vertex $-1 $503 $641 #
point $-1 -62.293123692060284 -18.319121571295273 12.25836456711056 #
vertex $-1 $507 $642 #
point $-1 -62.293123692060284 -14.558030554872218 12.25836456711056 #
coedge $-1 $604 $513 $610 $643 reversed $375 $-1 #
coedge $-1 $513 $603 $516 $608 reversed $375 $-1 #
edge $-1 $606 -22.765746988495042 $521 -10.228776933751522 $520 $644 forward 7 unknown #
vertex $-1 $515 $645 #
straight-curve $-1 -53.000774058069666 39.263008949618332 24.222817175284675 -0.70710677298230462 0 -0.70710678939079052 I I #
edge $-1 $517 61.282811804120783 $612 67.389751884517963 $604 $646 forward 7 unknown #
point $-1 -61.282811804120783 39.263008949618325 15.940779237048021 #
coedge $-1 $520 $519 $603 $643 forward $511 $-1 #
point $-1 -67.389751884517963 26.726038894874804 9.8338390149386612 #
vertex $-1 $608 $647 #
straight-curve $-1 -67.389751884517963 0 15.940779237048021 0 -1 0 I I #
vertex $-1 $527 $648 #
point $-1 -62.293123692060284 29.233432905823513 12.25836456711056 #
vertex $-1 $531 $649 #
point $-1 -62.293123692060284 32.994523922246564 12.25836456711056 #
vertex $-1 $535 $650 #
point $-1 -62.293123692060284 36.755614938669616 12.25836456711056 #
straight-curve $-1 -67.389751884517963 39.263008949618332 0 0 0 -1 I I #
point $-1 -67.389751884517963 -39.263008949618332 -15.940779237048021 #
straight-curve $-1 -67.389751884517963 0 -15.940779237048021 0 1 0 I I #
point $-1 -67.389751884517963 39.263008949618332 -15.940779237048021 #
straight-curve $-1 -67.389751884517963 -15.96265388707134 -0.38456113679519266 0 -1 0 I I #
point $-1 -67.389751884517963 -39.263008949618332 -0.38456113679519266 #
point $-1 -67.389751884517963 -24.58760659866703 -0.38456113679519266 #
straight-curve $-1 -67.389751884517963 -24.58760659866703 1.8107641836901651 0 0 -1 I I #
straight-curve $-1 -67.389751884517963 -39.263008949618332 0 0 0 -1 I I #
straight-curve $-1 17.145597501403749 15.385631610630007 15.940779237048019 -1 0 0 I I #
point $-1 67.389751884517963 15.385631610630007 15.940779237048021 #
straight-curve $-1 48.494851350310427 5.284558122562931 15.940779237048027 0 -1 0 I I #
point $-1 48.494851350310441 15.385631610630007 15.940779237048019 #
point $-1 57.014176265324259 7.6792070258233736 8.0001028699691847 #
point $-1 57.014176265324259 10.569116245125862 8.0001028699691847 #
point $-1 57.014176265324259 13.45902546442835 8.0001028699691847 #
straight-curve $-1 -67.389751884517963 -12.050636543923513 52.568669494609011 0 0 -1 I I #
point $-1 -67.389751884517963 -12.050636543923513 15.940779237048021 #
straight-curve $-1 -67.389751884517963 -9.1595607856476366 9.833839014938647 0 -1 0 I I #
point $-1 -67.389751884517963 -12.050636543923513 9.8338390149386612 #
point $-1 -62.293123675651799 -22.080212587718329 10.844151004737466 #
point $-1 -62.293123675651799 -18.319121571295273 10.844151004737466 #
point $-1 -62.293123675651799 -14.558030554872218 10.844151004737466 #
edge $-1 $612 -15.940779237048021 $606 -9.8338390149386612 $603 $651 forward 7 unknown #
straight-curve $-1 -67.389751884517963 16.497261961123282 9.833839014938647 0 -1 0 I I #
point $-1 -67.389751884517963 39.263008949618325 9.8338390149386612 #
straight-curve $-1 0 39.263008949618332 15.940779237048021 -1 0 0 I I #
point $-1 -67.389751884517963 39.263008949618332 15.940779237048021 #
point $-1 -62.293123675651799 29.233432905823513 10.844151004737466 #
point $-1 -62.293123675651799 32.994523922246564 10.844151004737466 #
point $-1 -62.293123675651799 36.755614938669616 10.844151004737466 #
straight-curve $-1 -67.389751884517963 39.263008949618332 0 0 0 -1 I I #
End-of-ACIS-data 