500 0 8 0           
7 Unknown 11 ACIS 5.0 NT 24 Fri Mar 26 19:41:21 1999 
-1 9.9999999999999995e-007 1e-010 
body $-1 $8 $-1 $9 #
body $-1 $10 $-1 $11 #
body $-1 $12 $-1 $13 #
body $-1 $14 $-1 $15 #
body $-1 $16 $-1 $17 #
body $-1 $18 $-1 $19 #
body $-1 $20 $-1 $21 #
body $-1 $22 $-1 $23 #
lump $-1 $-1 $24 $0 #
transform $-1 1 0 0 0 1 0 0 0 1 49.062776573992124 26.738591843858813 7.5727654704487497 1 rotate no_reflect no_shear #
lump $-1 $-1 $25 $1 #
transform $-1 1 0 0 0 1 0 0 0 1 49.062776573992124 26.738591843858813 7.5727654704487497 1 rotate no_reflect no_shear #
lump $-1 $-1 $26 $2 #
transform $-1 1 0 0 0 1 0 0 0 1 49.062776573992124 26.738591843858813 7.5727654704487497 1 rotate no_reflect no_shear #
lump $-1 $-1 $27 $3 #
transform $-1 1 0 0 0 1 0 0 0 1 49.062776573992124 26.738591843858813 7.5727654704487497 1 rotate no_reflect no_shear #
lump $-1 $-1 $28 $4 #
transform $-1 1 0 0 0 1 0 0 0 1 49.062776573992124 26.738591843858813 7.5727654704487497 1 rotate no_reflect no_shear #
lump $-1 $-1 $29 $5 #
transform $-1 1 0 0 0 1 0 0 0 1 49.062776573992124 26.738591843858813 7.5727654704487497 1 rotate no_reflect no_shear #
lump $-1 $-1 $30 $6 #
transform $-1 1 0 0 0 1 0 0 0 1 49.062776573992124 26.738591843858813 7.5727654704487497 1 rotate no_reflect no_shear #
lump $-1 $-1 $31 $7 #
transform $-1 1 0 0 0 1 0 0 0 1 49.062776573992124 26.738591843858813 7.5727654704487497 1 rotate no_reflect no_shear #
shell $-1 $-1 $-1 $32 $-1 $8 #
shell $-1 $-1 $-1 $33 $-1 $10 #
shell $-1 $-1 $-1 $34 $-1 $12 #
shell $-1 $-1 $-1 $35 $-1 $14 #
shell $-1 $-1 $-1 $36 $-1 $16 #
shell $-1 $-1 $-1 $37 $-1 $18 #
shell $-1 $-1 $-1 $38 $-1 $20 #
shell $-1 $-1 $-1 $39 $-1 $22 #
face $-1 $40 $41 $24 $-1 $42 forward single #
face $-1 $43 $44 $25 $-1 $45 forward single #
face $-1 $46 $47 $26 $-1 $48 reversed single #
face $-1 $49 $50 $27 $-1 $51 forward single #
face $-1 $52 $53 $28 $-1 $54 forward single #
face $-1 $55 $56 $29 $-1 $57 reversed single #
face $-1 $58 $59 $30 $-1 $60 forward single #
face $-1 $61 $62 $31 $-1 $63 forward single #
face $-1 $64 $65 $24 $-1 $66 reversed single #
loop $-1 $-1 $67 $32 #
plane-surface $-1 0 0 7.5727654704487497 0 0 1 1 0 0 forward_v I I I I #
face $-1 $68 $69 $25 $-1 $70 reversed single #
loop $-1 $-1 $71 $33 #
plane-surface $-1 0 -24.009636826890915 -4.5727654704487497 0 0 1 1 0 0 forward_v I I I I #
face $-1 $72 $73 $26 $-1 $74 reversed single #
loop $-1 $-1 $75 $34 #
plane-surface $-1 63.568244254382748 -0.1149432769193055 141.78731727334792 0 -1 0 -0.77714596973225614 0 -0.62932038083071107 forward_v I I I I #
face $-1 $76 $77 $27 $-1 $78 forward single #
loop $-1 $79 $80 $35 #
cone-surface $-1 46.246908262626526 -8.3219315111026368 4.6391794072355461 -0.77714596973225614 0 -0.62932038083071107 0.62932038083071107 0 -0.77714596973225614 1 I I 0 1 1 forward I I I I #
face $-1 $81 $82 $28 $-1 $83 forward single #
loop $-1 $84 $85 $36 #
cone-surface $-1 46.246908262626526 -3.3977385705926366 4.6391794072355461 -0.77714596973225614 0 -0.62932038083071107 0.62932038083071107 0 -0.77714596973225614 1 I I 0 1 1 forward I I I I #
face $-1 $86 $87 $29 $-1 $88 reversed single #
loop $-1 $-1 $89 $37 #
plane-surface $-1 -134.8853198793845 -12.13549474582415 50.977328075057578 0 1 0 -0.87461971476443456 0 0.48480960649040278 forward_v I I I I #
face $-1 $90 $91 $30 $-1 $92 forward single #
loop $-1 $93 $94 $38 #
cone-surface $-1 -47.277520501480751 -8.5266840031267002 5.1396304765446903 0.87461971476443456 0 -0.48480960649040278 0.48480960649040278 0 0.87461971476443456 1 I I 0 1 1 forward I I I I #
face $-1 $95 $96 $31 $-1 $97 forward single #
loop $-1 $98 $99 $39 #
cone-surface $-1 -47.277520501480751 -3.1134678890805247 5.1396304765446903 0.87461971476443456 0 -0.48480960649040278 0.48480960649040278 0 0.87461971476443456 1 I I 0 1 1 forward I I I I #
face $-1 $100 $101 $24 $-1 $102 reversed single #
loop $-1 $-1 $103 $40 #
plane-surface $-1 0 0 -7.5727654704487497 0 0 1 1 0 0 forward_v I I I I #
coedge $-1 $104 $105 $106 $107 forward $41 $-1 #
face $-1 $108 $109 $25 $-1 $110 reversed single #
loop $-1 $-1 $111 $43 #
plane-surface $-1 0 -21.280681809923017 -6.0727654704487497 0 -1 0 0 0 -1 forward_v I I I I #
coedge $-1 $112 $113 $114 $115 reversed $44 $-1 #
face $-1 $116 $117 $26 $-1 $118 reversed single #
loop $-1 $-1 $119 $46 #
plane-surface $-1 -12.689633902321503 -5.8598350408476385 80.034906797034296 0.77714596973225614 0 0.62932038083071107 0.62932038083071107 0 -0.77714596973225614 forward_v I I I I #
coedge $-1 $120 $121 $122 $123 reversed $47 $-1 #
face $-1 $-1 $124 $27 $-1 $125 forward single #
loop $-1 $126 $127 $49 #
cone-surface $-1 44.579330464693854 -8.3219315111026368 3.2888015686663232 -0.77714596973225614 0 -0.62932038083071107 0.31466019041535553 0 -0.38857298486612807 1 I I -0.70710678118654746 0.70710678118654746 0.5 forward I I I I #
loop $-1 $-1 $128 $35 #
coedge $-1 $80 $80 $129 $130 reversed $50 $-1 #
face $-1 $-1 $131 $28 $-1 $132 forward single #
loop $-1 $133 $134 $52 #
cone-surface $-1 44.579330464693854 -3.3977385705926366 3.2888015686663232 -0.77714596973225614 0 -0.62932038083071107 0.31466019041535553 0 -0.38857298486612807 1 I I -0.70710678118654746 0.70710678118654746 0.5 forward I I I I #
loop $-1 $-1 $135 $36 #
coedge $-1 $85 $85 $136 $137 reversed $53 $-1 #
face $-1 $138 $139 $29 $-1 $140 reversed single #
loop $-1 $-1 $141 $55 #
plane-surface $-1 -49.062776573992153 -5.8200759461036107 3.4051172667302296 -0.87461971476443456 0 0.48480960649040278 0.48480960649040278 0 0.87461971476443456 forward_v I I I I #
coedge $-1 $142 $143 $144 $145 reversed $56 $-1 #
face $-1 $-1 $146 $30 $-1 $147 forward single #
loop $-1 $148 $149 $58 #
cone-surface $-1 -46.210037090038853 -8.5266840031267002 4.5479147812546907 0.87461971476443456 0 -0.48480960649040278 0.24240480324520139 0 0.43730985738221728 1 I I -0.70710678118654746 0.70710678118654746 0.5 forward I I I I #
loop $-1 $-1 $150 $38 #
coedge $-1 $94 $94 $151 $152 reversed $59 $-1 #
face $-1 $-1 $153 $31 $-1 $154 forward single #
loop $-1 $155 $156 $61 #
cone-surface $-1 -46.210037090038853 -3.1134678890805247 4.5479147812546907 0.87461971476443456 0 -0.48480960649040278 0.24240480324520139 0 0.43730985738221728 1 I I -0.70710678118654746 0.70710678118654746 0.5 forward I I I I #
loop $-1 $-1 $157 $39 #
coedge $-1 $99 $99 $158 $159 reversed $62 $-1 #
face $-1 $160 $161 $24 $-1 $162 reversed single #
loop $-1 $-1 $163 $64 #
plane-surface $-1 0 -26.738591843858813 0 0 1 0 0 0 1 forward_v I I I I #
coedge $-1 $164 $165 $166 $167 forward $65 $-1 #
coedge $-1 $168 $67 $169 $170 forward $41 $-1 #
coedge $-1 $67 $168 $171 $172 forward $41 $-1 #
coedge $-1 $173 $174 $67 $107 reversed $175 $-1 #
edge $-1 $176 -26.738591843858813 $177 26.738591843858813 $106 $178 forward 7 unknown #
face $-1 $179 $180 $25 $-1 $181 reversed single #
loop $-1 $-1 $182 $68 #
plane-surface $-1 0 0 -7.5727654704487497 0 0 1 1 0 0 forward_v I I I I #
coedge $-1 $183 $184 $185 $186 reversed $69 $-1 #
coedge $-1 $187 $71 $184 $188 forward $44 $-1 #
coedge $-1 $71 $187 $189 $190 reversed $44 $-1 #
coedge $-1 $191 $185 $71 $115 forward $180 $-1 #
edge $-1 $192 9.2758633964775594 $193 14.733773430413356 $114 $194 forward 7 unknown #
face $-1 $195 $196 $26 $-1 $197 reversed single #
loop $-1 $-1 $198 $72 #
plane-surface $-1 63.568244254382748 -11.604726804775972 141.78731727334792 0 1 0 0.77714596973225614 0 0.62932038083071107 forward_v I I I I #
coedge $-1 $199 $200 $201 $202 reversed $73 $-1 #
coedge $-1 $121 $75 $203 $204 reversed $47 $-1 #
coedge $-1 $75 $120 $199 $205 reversed $47 $-1 #
coedge $-1 $201 $206 $75 $123 forward $207 $-1 #
edge $-1 $208 -17.278654446800751 $209 -14.204927450202632 $122 $210 forward 7 unknown #
loop $-1 $-1 $129 $76 #
plane-surface $-1 -12.689633902321503 -5.8598350408476385 80.034906797034296 0.77714596973225614 0 0.62932038083071107 0.62932038083071107 0 -0.77714596973225614 forward_v I I I I #
loop $-1 $-1 $211 $49 #
coedge $-1 $127 $127 $128 $212 reversed $77 $-1 #
coedge $-1 $128 $128 $127 $212 forward $79 $-1 #
coedge $-1 $129 $129 $80 $130 forward $124 $-1 #
edge $-1 $213 0 $213 6.2831853071796004 $129 $214 forward 7 unknown #
loop $-1 $-1 $136 $81 #
plane-surface $-1 -12.689633902321503 -5.8598350408476385 80.034906797034296 0.77714596973225614 0 0.62932038083071107 0.62932038083071107 0 -0.77714596973225614 forward_v I I I I #
loop $-1 $-1 $215 $52 #
coedge $-1 $134 $134 $135 $216 reversed $82 $-1 #
coedge $-1 $135 $135 $134 $216 forward $84 $-1 #
coedge $-1 $136 $136 $85 $137 forward $131 $-1 #
edge $-1 $217 0 $217 6.2831853071796004 $136 $218 forward 7 unknown #
face $-1 $219 $220 $29 $-1 $221 forward single #
loop $-1 $-1 $222 $86 #
plane-surface $-1 -134.8853198793845 0.49534285361692909 50.977328075057578 0 -1 0 0.87461971476443456 0 -0.48480960649040278 forward_v I I I I #
coedge $-1 $223 $224 $225 $226 reversed $87 $-1 #
coedge $-1 $143 $89 $227 $228 reversed $56 $-1 #
coedge $-1 $89 $142 $223 $229 reversed $56 $-1 #
coedge $-1 $225 $230 $89 $145 forward $220 $-1 #
edge $-1 $231 18.379883365700124 $232 20.69004840260348 $144 $233 forward 7 unknown #
loop $-1 $-1 $151 $90 #
plane-surface $-1 -49.062776573992153 -5.8200759461036107 3.4051172667302296 -0.87461971476443456 0 0.48480960649040278 0.48480960649040278 0 0.87461971476443456 forward_v I I I I #
loop $-1 $-1 $234 $58 #
coedge $-1 $149 $149 $150 $235 reversed $91 $-1 #
coedge $-1 $150 $150 $149 $235 forward $93 $-1 #
coedge $-1 $151 $151 $94 $152 forward $146 $-1 #
edge $-1 $236 0 $236 6.2831853071796004 $151 $237 forward 7 unknown #
loop $-1 $-1 $158 $95 #
plane-surface $-1 -49.062776573992153 -5.8200759461036107 3.4051172667302296 -0.87461971476443456 0 0.48480960649040278 0.48480960649040278 0 0.87461971476443456 forward_v I I I I #
loop $-1 $-1 $238 $61 #
coedge $-1 $156 $156 $157 $239 reversed $96 $-1 #
coedge $-1 $157 $157 $156 $239 forward $98 $-1 #
coedge $-1 $158 $158 $99 $159 forward $153 $-1 #
edge $-1 $240 0 $240 6.2831853071796004 $158 $241 forward 7 unknown #
face $-1 $242 $243 $24 $-1 $244 reversed single #
loop $-1 $-1 $245 $100 #
plane-surface $-1 -49.062776573992124 0 0 1 0 0 0 0 -1 forward_v I I I I #
coedge $-1 $246 $171 $247 $248 forward $101 $-1 #
coedge $-1 $249 $103 $246 $250 forward $65 $-1 #
coedge $-1 $103 $249 $251 $252 forward $65 $-1 #
coedge $-1 $174 $173 $103 $167 reversed $175 $-1 #
edge $-1 $253 -26.738591843858813 $254 26.738591843858813 $166 $255 forward 7 unknown #
coedge $-1 $105 $104 $256 $257 forward $41 $-1 #
coedge $-1 $258 $259 $104 $170 reversed $243 $-1 #
edge $-1 $177 -49.062776573992124 $260 49.062776573992124 $169 $261 forward 7 unknown #
coedge $-1 $163 $262 $105 $172 reversed $101 $-1 #
edge $-1 $263 -49.062776573992124 $176 49.062776573992124 $171 $264 forward 7 unknown #
coedge $-1 $166 $106 $262 $265 forward $175 $-1 #
coedge $-1 $106 $166 $258 $266 reversed $175 $-1 #
loop $-1 $-1 $173 $242 #
vertex $-1 $107 $267 #
vertex $-1 $107 $268 #
straight-curve $-1 49.062776573992124 0 7.5727654704487497 0 1 0 I I #
face $-1 $269 $270 $25 $-1 $271 reversed single #
loop $-1 $-1 $185 $108 #
plane-surface $-1 49.062776573992124 0 0 -1 0 0 0 0 1 forward_v I I I I #
coedge $-1 $272 $273 $183 $274 forward $109 $-1 #
coedge $-1 $275 $111 $182 $274 reversed $69 $-1 #
coedge $-1 $111 $275 $112 $188 reversed $69 $-1 #
coedge $-1 $114 $276 $111 $186 forward $180 $-1 #
edge $-1 $277 -4.5363827352243753 $192 -1.5363827352243749 $185 $278 forward 7 unknown #
coedge $-1 $113 $112 $279 $280 reversed $44 $-1 #
edge $-1 $192 -49.062776573992124 $281 49.062776573992124 $184 $282 forward 7 unknown #
coedge $-1 $283 $284 $113 $190 forward $270 $-1 #
edge $-1 $193 -49.062776573992124 $285 49.062776573992124 $189 $286 forward 7 unknown #
coedge $-1 $276 $114 $284 $287 forward $180 $-1 #
vertex $-1 $115 $288 #
vertex $-1 $287 $289 #
straight-curve $-1 49.062776573992124 -12.004818413445458 -4.5727654704487497 0 -1 0 I I #
face $-1 $-1 $207 $26 $-1 $290 forward single #
loop $-1 $-1 $291 $116 #
plane-surface $-1 49.062776573992124 0 0 -1 0 0 0 0 1 forward_v I I I I #
coedge $-1 $292 $293 $294 $295 reversed $117 $-1 #
coedge $-1 $296 $119 $121 $205 forward $73 $-1 #
coedge $-1 $119 $296 $292 $297 forward $73 $-1 #
coedge $-1 $294 $122 $119 $202 forward $207 $-1 #
edge $-1 $209 -2.8149742435045138 $298 8.6748092843521523 $201 $299 forward 7 unknown #
coedge $-1 $300 $301 $120 $204 forward $196 $-1 #
edge $-1 $302 -67.116629996343917 $208 -63.320893166225211 $203 $303 forward 7 unknown #
edge $-1 $209 93.241352524224439 $302 98.125553147984249 $121 $304 forward 7 unknown #
coedge $-1 $122 $294 $300 $305 forward $207 $-1 #
loop $-1 $-1 $294 $195 #
vertex $-1 $204 $306 #
vertex $-1 $123 $307 #
straight-curve $-1 31.784122127191374 -0.1149432769193055 7.5727654704487435 -1 0 0 I I #
coedge $-1 $211 $211 $-1 $308 reversed $126 $-1 #
edge $-1 $309 0 $309 6.2831853071796004 $127 $310 forward 7 unknown #
vertex $-1 $130 $311 #
ellipse-curve $-1 47.525913075693055 -8.3219315111026368 5.6748970553894011 0.77714596973225614 0 0.62932038083071107 0.62932038083071107 0 -0.77714596973225614 1 I I #
coedge $-1 $215 $215 $-1 $312 reversed $133 $-1 #
edge $-1 $313 0 $313 6.2831853071796004 $134 $314 forward 7 unknown #
vertex $-1 $137 $315 #
ellipse-curve $-1 47.525913075693055 -3.3977385705926366 5.6748970553894011 0.77714596973225614 0 0.62932038083071107 0.62932038083071107 0 -0.77714596973225614 1 I I #
face $-1 $-1 $316 $29 $-1 $317 reversed single #
loop $-1 $-1 $144 $138 #
plane-surface $-1 0 0 7.5727654704487497 0 0 1 1 0 0 forward_v I I I I #
coedge $-1 $318 $319 $320 $321 reversed $139 $-1 #
coedge $-1 $322 $141 $143 $229 forward $87 $-1 #
coedge $-1 $141 $322 $318 $323 forward $87 $-1 #
coedge $-1 $320 $144 $141 $226 forward $220 $-1 #
edge $-1 $232 -9.2254567727723451 $324 3.4053808266687344 $225 $325 forward 7 unknown #
coedge $-1 $326 $327 $142 $228 forward $316 $-1 #
edge $-1 $328 -22.08354677079851 $231 -17.915898567080038 $227 $329 forward 7 unknown #
edge $-1 $232 -4.7650974856438166 $328 -5.8446173240376603e-014 $143 $330 forward 7 unknown #
coedge $-1 $144 $320 $326 $331 forward $220 $-1 #
vertex $-1 $228 $332 #
vertex $-1 $145 $333 #
straight-curve $-1 -67.442659939692248 -12.13549474582415 7.5727654704487506 1 0 0 I I #
coedge $-1 $234 $234 $-1 $334 reversed $148 $-1 #
edge $-1 $335 0 $335 6.2831853071796004 $149 $336 forward 7 unknown #
vertex $-1 $152 $337 #
ellipse-curve $-1 -47.907694055540453 -8.5266840031267002 5.4889413685895008 -0.87461971476443456 0 0.48480960649040278 0.48480960649040278 0 0.87461971476443456 1 I I #
coedge $-1 $238 $238 $-1 $338 reversed $155 $-1 #
edge $-1 $339 0 $339 6.2831853071796004 $156 $340 forward 7 unknown #
vertex $-1 $159 $341 #
ellipse-curve $-1 -47.907694055540453 -3.1134678890805247 5.4889413685895008 -0.87461971476443456 0 0.48480960649040278 0.48480960649040278 0 0.87461971476443456 1 I I #
face $-1 $-1 $175 $24 $-1 $342 reversed single #
loop $-1 $-1 $258 $160 #
plane-surface $-1 0 26.738591843858813 0 0 -1 0 0 0 -1 forward_v I I I I #
coedge $-1 $343 $256 $259 $344 forward $161 $-1 #
coedge $-1 $262 $163 $164 $250 reversed $101 $-1 #
coedge $-1 $256 $343 $163 $248 reversed $161 $-1 #
edge $-1 $263 -7.5727654704487497 $345 7.5727654704487497 $247 $346 forward 7 unknown #
coedge $-1 $165 $164 $343 $347 forward $65 $-1 #
edge $-1 $254 -49.062776573992124 $345 49.062776573992124 $246 $348 forward 7 unknown #
coedge $-1 $259 $258 $165 $252 reversed $243 $-1 #
edge $-1 $349 -49.062776573992124 $253 49.062776573992124 $251 $350 forward 7 unknown #
vertex $-1 $167 $351 #
vertex $-1 $265 $352 #
straight-curve $-1 49.062776573992124 0 -7.5727654704487497 0 -1 0 I I #
coedge $-1 $245 $247 $168 $257 reversed $161 $-1 #
edge $-1 $260 -26.738591843858813 $263 26.738591843858813 $256 $353 forward 7 unknown #
coedge $-1 $251 $169 $174 $266 forward $243 $-1 #
coedge $-1 $169 $251 $245 $344 reversed $243 $-1 #
vertex $-1 $170 $354 #
straight-curve $-1 0 26.738591843858813 7.5727654704487497 -1 0 0 I I #
coedge $-1 $171 $246 $173 $265 reversed $101 $-1 #
vertex $-1 $257 $355 #
straight-curve $-1 0 -26.738591843858813 7.5727654704487497 1 0 0 I I #
edge $-1 $176 -7.5727654704487497 $254 7.5727654704487497 $173 $356 forward 7 unknown #
edge $-1 $177 -7.5727654704487497 $253 7.5727654704487497 $174 $357 forward 7 unknown #
point $-1 49.062776573992124 -26.738591843858813 7.5727654704487497 #
point $-1 49.062776573992124 26.738591843858813 7.5727654704487497 #
face $-1 $-1 $358 $25 $-1 $359 reversed single #
loop $-1 $-1 $189 $179 #
plane-surface $-1 0 -26.738591843858813 0 0 1 0 0 0 1 forward_v I I I I #
coedge $-1 $360 $182 $276 $361 forward $109 $-1 #
coedge $-1 $182 $360 $362 $363 forward $109 $-1 #
edge $-1 $364 -49.062776573992124 $277 49.062776573992124 $182 $365 forward 7 unknown #
coedge $-1 $184 $183 $366 $367 reversed $69 $-1 #
coedge $-1 $185 $191 $272 $361 reversed $180 $-1 #
vertex $-1 $361 $368 #
straight-curve $-1 49.062776573992124 -21.280681809923017 -3.0363827352243749 0 0 1 I I #
coedge $-1 $366 $369 $187 $280 forward $358 $-1 #
edge $-1 $285 -14.733773430413356 $281 -9.2758633964775594 $279 $370 forward 7 unknown #
vertex $-1 $280 $371 #
straight-curve $-1 0 -21.280681809923017 -4.5727654704487497 -1 0 0 I I #
coedge $-1 $372 $189 $369 $373 forward $270 $-1 #
coedge $-1 $189 $372 $191 $287 reversed $270 $-1 #
vertex $-1 $373 $374 #
straight-curve $-1 0 -26.738591843858813 -4.5727654704487497 -1 0 0 I I #
edge $-1 $193 4.5727654704487497 $375 7.5727654704487497 $191 $376 forward 7 unknown #
point $-1 49.062776573992124 -21.280681809923017 -4.5727654704487497 #
point $-1 49.062776573992124 -26.738591843858813 -4.5727654704487497 #
plane-surface $-1 0 0 7.5727654704487497 0 0 1 1 0 0 forward_v I I I I #
coedge $-1 $301 $300 $293 $377 forward $196 $-1 #
coedge $-1 $293 $198 $200 $297 reversed $117 $-1 #
coedge $-1 $198 $292 $291 $377 reversed $117 $-1 #
coedge $-1 $206 $201 $198 $295 forward $207 $-1 #
edge $-1 $298 14.204927450202632 $378 17.278654446800751 $294 $379 forward 7 unknown #
coedge $-1 $200 $199 $301 $380 reversed $73 $-1 #
edge $-1 $381 -98.125553147984249 $298 -93.241352524224439 $292 $382 forward 7 unknown #
vertex $-1 $202 $383 #
straight-curve $-1 45.989049577393999 -2.9299175204238193 7.5727654704487577 0 -1 0 I I #
coedge $-1 $291 $203 $206 $305 reversed $196 $-1 #
coedge $-1 $203 $291 $296 $380 forward $196 $-1 #
vertex $-1 $204 $384 #
straight-curve $-1 49.062776573992124 -0.1149432769193055 70.893658636673962 0 0 1 I I #
straight-curve $-1 -12.689633902321503 -0.1149432769193055 80.034906797034296 0.62932038083071107 0 -0.77714596973225614 I I #
edge $-1 $378 -11.604726804775972 $208 -0.1149432769193055 $300 $385 forward 7 unknown #
point $-1 49.062776573992124 -0.1149432769193055 7.5727654704487497 #
point $-1 45.989049577394006 -0.1149432769193055 7.5727654704487435 #
edge $-1 $386 1 $386 0 $211 $-1 forward 7 unknown #
vertex $-1 $212 $387 #
ellipse-curve $-1 44.967903449559984 -8.3219315111026368 3.6034617590816787 0.77714596973225614 0 0.62932038083071107 0.62932038083071107 0 -0.77714596973225614 1 I I #
point $-1 48.155233456523774 -8.3219315111026368 4.8977510856571573 #
edge $-1 $388 1 $388 0 $215 $-1 forward 7 unknown #
vertex $-1 $216 $389 #
ellipse-curve $-1 44.967903449559984 -3.3977385705926366 3.6034617590816787 0.77714596973225614 0 0.62932038083071107 0.62932038083071107 0 -0.77714596973225614 1 I I #
point $-1 48.155233456523774 -3.3977385705926366 4.8977510856571573 #
loop $-1 $-1 $227 $219 #
plane-surface $-1 -49.062776573992124 0 0 1 0 0 0 0 -1 forward_v I I I I #
coedge $-1 $319 $222 $224 $323 reversed $139 $-1 #
coedge $-1 $222 $318 $390 $391 reversed $139 $-1 #
coedge $-1 $230 $225 $222 $321 forward $220 $-1 #
edge $-1 $324 -20.69004840260348 $392 -18.379883365700124 $320 $393 forward 7 unknown #
coedge $-1 $224 $223 $327 $394 reversed $87 $-1 #
edge $-1 $395 5.8446173240376603e-014 $324 4.7650974856438166 $318 $396 forward 7 unknown #
vertex $-1 $226 $397 #
straight-curve $-1 -46.752611537088768 -2.9100379730518053 7.5727654704487497 0 1 0 I I #
coedge $-1 $390 $227 $230 $331 reversed $316 $-1 #
coedge $-1 $227 $390 $322 $394 forward $316 $-1 #
vertex $-1 $228 $398 #
straight-curve $-1 -49.062776573992124 -12.13549474582415 25.488664037528789 0 0 1 I I #
straight-curve $-1 -49.062776573992153 -12.13549474582415 3.4051172667302296 -0.48480960649040278 0 -0.87461971476443456 I I #
edge $-1 $392 -0.49534285361692909 $231 12.13549474582415 $326 $399 forward 7 unknown #
point $-1 -49.062776573992124 -12.13549474582415 7.5727654704487497 #
point $-1 -46.752611537088768 -12.13549474582415 7.5727654704487497 #
edge $-1 $400 1 $400 0 $234 $-1 forward 7 unknown #
vertex $-1 $235 $401 #
ellipse-curve $-1 -46.64734694742107 -8.5266840031267002 4.7903195844998923 -0.87461971476443456 0 0.48480960649040278 0.48480960649040278 0 0.87461971476443456 1 I I #
point $-1 -47.422884449050024 -8.5266840031267002 6.3635610833539236 #
edge $-1 $402 1 $402 0 $238 $-1 forward 7 unknown #
vertex $-1 $239 $403 #
ellipse-curve $-1 -46.64734694742107 -3.1134678890805247 4.7903195844998923 -0.87461971476443456 0 0.48480960649040278 0.48480960649040278 0 0.87461971476443456 1 I I #
point $-1 -47.422884449050024 -3.1134678890805247 6.3635610833539236 #
plane-surface $-1 49.062776573992124 0 0 -1 0 0 0 0 1 forward_v I I I I #
coedge $-1 $247 $245 $249 $347 reversed $161 $-1 #
edge $-1 $260 -7.5727654704487497 $349 7.5727654704487497 $259 $404 forward 7 unknown #
vertex $-1 $347 $405 #
straight-curve $-1 -49.062776573992124 -26.738591843858813 0 0 0 -1 I I #
edge $-1 $345 -26.738591843858813 $349 26.738591843858813 $343 $406 forward 7 unknown #
straight-curve $-1 0 -26.738591843858813 -7.5727654704487497 -1 0 0 I I #
vertex $-1 $252 $407 #
straight-curve $-1 0 26.738591843858813 -7.5727654704487497 1 0 0 I I #
point $-1 49.062776573992124 26.738591843858813 -7.5727654704487497 #
point $-1 49.062776573992124 -26.738591843858813 -7.5727654704487497 #
straight-curve $-1 -49.062776573992124 0 7.5727654704487497 0 -1 0 I I #
point $-1 -49.062776573992124 26.738591843858813 7.5727654704487497 #
point $-1 -49.062776573992124 -26.738591843858813 7.5727654704487497 #
straight-curve $-1 49.062776573992124 -26.738591843858813 0 0 0 -1 I I #
straight-curve $-1 49.062776573992124 26.738591843858813 0 0 0 -1 I I #
loop $-1 $-1 $366 $269 #
plane-surface $-1 -49.062776573992124 0 0 1 0 0 0 0 -1 forward_v I I I I #
coedge $-1 $273 $272 $372 $408 forward $109 $-1 #
edge $-1 $277 21.280681809923017 $375 26.738591843858813 $276 $409 forward 7 unknown #
coedge $-1 $369 $366 $273 $363 reversed $358 $-1 #
edge $-1 $410 -26.738591843858813 $364 -21.280681809923017 $362 $411 forward 7 unknown #
vertex $-1 $367 $412 #
straight-curve $-1 0 -21.280681809923017 -7.5727654704487497 1 0 0 I I #
coedge $-1 $362 $279 $275 $367 forward $358 $-1 #
edge $-1 $281 1.5363827352243749 $364 4.5363827352243753 $366 $413 forward 7 unknown #
point $-1 49.062776573992124 -21.280681809923017 -7.5727654704487497 #
coedge $-1 $279 $362 $283 $373 reversed $358 $-1 #
straight-curve $-1 -49.062776573992124 -12.004818413445458 -4.5727654704487497 0 1 0 I I #
point $-1 -49.062776573992124 -21.280681809923017 -4.5727654704487497 #
coedge $-1 $284 $283 $360 $408 reversed $270 $-1 #
edge $-1 $285 4.5727654704487497 $410 7.5727654704487497 $369 $414 forward 7 unknown #
point $-1 -49.062776573992124 -26.738591843858813 -4.5727654704487497 #
vertex $-1 $287 $415 #
straight-curve $-1 49.062776573992124 -26.738591843858813 0 0 0 -1 I I #
edge $-1 $378 63.320893166225211 $381 67.116629996343917 $291 $416 forward 7 unknown #
vertex $-1 $305 $417 #
straight-curve $-1 31.784122127191374 -11.604726804775972 7.5727654704487435 1 0 0 I I #
edge $-1 $381 -8.6748092843521523 $302 2.8149742435045138 $301 $418 forward 7 unknown #
vertex $-1 $380 $419 #
straight-curve $-1 -12.689633902321503 -11.604726804775972 80.034906797034296 -0.62932038083071107 0 0.77714596973225614 I I #
point $-1 45.989049577394006 -11.604726804775972 7.5727654704487435 #
point $-1 49.062776573992124 -0.1149432769193055 3.7770286403300446 #
straight-curve $-1 49.062776573992124 0 7.5727654704487497 0 1 0 I I #
vertex $-1 $308 $420 #
point $-1 45.597223830390696 -8.3219315111026368 2.8263157893494224 #
vertex $-1 $312 $421 #
point $-1 45.597223830390696 -3.3977385705926366 2.8263157893494224 #
coedge $-1 $327 $326 $319 $391 forward $316 $-1 #
edge $-1 $392 17.915898567080038 $395 22.08354677079851 $390 $422 forward 7 unknown #
vertex $-1 $331 $423 #
straight-curve $-1 -67.442659939692248 0.49534285361692909 7.5727654704487506 -1 0 0 I I #
edge $-1 $395 -3.4053808266687344 $328 9.2254567727723451 $327 $424 forward 7 unknown #
vertex $-1 $394 $425 #
straight-curve $-1 -49.062776573992153 0.49534285361692909 3.4051172667302296 0.48480960649040278 0 0.87461971476443456 I I #
point $-1 -46.752611537088768 0.49534285361692909 7.5727654704487497 #
point $-1 -49.062776573992124 -12.13549474582415 3.4051172667302807 #
straight-curve $-1 -49.062776573992124 0 7.5727654704487497 0 -1 0 I I #
vertex $-1 $334 $426 #
point $-1 -46.162537340930669 -8.5266840031267002 5.6649392992643266 #
vertex $-1 $338 $427 #
point $-1 -46.162537340930669 -3.1134678890805247 5.6649392992643266 #
straight-curve $-1 -49.062776573992124 26.738591843858813 0 0 0 -1 I I #
point $-1 -49.062776573992124 -26.738591843858813 -7.5727654704487497 #
straight-curve $-1 -49.062776573992124 0 -7.5727654704487497 0 1 0 I I #
point $-1 -49.062776573992124 26.738591843858813 -7.5727654704487497 #
edge $-1 $375 -49.062776573992124 $410 49.062776573992124 $372 $428 forward 7 unknown #
straight-curve $-1 49.062776573992124 0 -7.5727654704487497 0 -1 0 I I #
vertex $-1 $363 $429 #
straight-curve $-1 -49.062776573992124 0 -7.5727654704487497 0 1 0 I I #
point $-1 -49.062776573992124 -21.280681809923017 -7.5727654704487497 #
straight-curve $-1 -49.062776573992124 -21.280681809923017 -3.0363827352243749 0 0 -1 I I #
straight-curve $-1 -49.062776573992124 -26.738591843858813 0 0 0 -1 I I #
point $-1 49.062776573992124 -26.738591843858813 -7.5727654704487497 #
straight-curve $-1 49.062776573992124 -11.604726804775972 70.893658636673962 0 0 -1 I I #
point $-1 49.062776573992124 -11.604726804775972 7.5727654704487497 #
straight-curve $-1 49.062776573992124 -2.9299175204238193 3.7770286403300375 0 1 0 I I #
point $-1 49.062776573992124 -11.604726804775972 3.7770286403300446 #
point $-1 44.190757479827724 -8.3219315111026368 2.9741413782509678 #
point $-1 44.190757479827724 -3.3977385705926366 2.9741413782509678 #
straight-curve $-1 -49.062776573992124 0.49534285361692909 25.488664037528789 0 0 -1 I I #
point $-1 -49.062776573992124 0.49534285361692909 7.5727654704487497 #
straight-curve $-1 -49.062776573992124 -2.9100379730518053 3.405117266730278 0 -1 0 I I #
point $-1 -49.062776573992124 0.49534285361692909 3.4051172667302807 #
point $-1 -45.772727232656635 -8.5266840031267002 4.3055099780094892 #
point $-1 -45.772727232656635 -3.1134678890805247 4.3055099780094892 #
straight-curve $-1 0 -26.738591843858813 -7.5727654704487497 -1 0 0 I I #
point $-1 -49.062776573992124 -26.738591843858813 -7.5727654704487497 #
End-of-ACIS-data 