500 0 3 0           
7 Unknown 11 ACIS 5.0 NT 24 Fri Mar 26 14:48:06 1999 
-1 9.9999999999999995e-007 1e-010 
body $-1 $3 $-1 $4 #
body $-1 $5 $-1 $6 #
body $-1 $7 $-1 $8 #
lump $-1 $-1 $9 $0 #
transform $-1 1 0 0 0 1 0 0 0 1 77.938169499801631 50.38377866235993 21.712829984842017 1 rotate no_reflect no_shear #
lump $-1 $-1 $10 $1 #
transform $-1 1 0 0 0 1 0 0 0 1 77.938169499801631 50.38377866235993 21.712829984842017 1 rotate no_reflect no_shear #
lump $-1 $-1 $11 $2 #
transform $-1 1 0 0 0 1 0 0 0 1 77.938169499801631 50.38377866235993 21.712829984842017 1 rotate no_reflect no_shear #
shell $-1 $-1 $-1 $12 $-1 $3 #
shell $-1 $-1 $-1 $13 $-1 $5 #
shell $-1 $-1 $-1 $14 $-1 $7 #
face $-1 $15 $16 $9 $-1 $17 forward single #
face $-1 $18 $19 $10 $-1 $20 reversed single #
face $-1 $21 $22 $11 $-1 $23 reversed single #
face $-1 $24 $25 $9 $-1 $26 reversed single #
loop $-1 $-1 $27 $12 #
plane-surface $-1 0 0 21.712829984842017 0 0 1 1 0 0 forward_v I I I I #
face $-1 $28 $29 $10 $-1 $30 reversed single #
loop $-1 $-1 $31 $13 #
plane-surface $-1 -76.676097491178311 -38.408629768907119 0 1 0 0 0 0 -1 forward_v I I I I #
face $-1 $32 $33 $11 $-1 $34 reversed single #
loop $-1 $-1 $35 $14 #
plane-surface $-1 -74.020554836548513 26.433480875454308 0 0 1 0 0 0 1 forward_v I I I I #
face $-1 $36 $37 $9 $-1 $38 reversed single #
loop $-1 $-1 $39 $15 #
plane-surface $-1 0 0 -21.712829984842017 0 0 1 1 0 0 forward_v I I I I #
coedge $-1 $40 $41 $42 $43 forward $16 $-1 #
face $-1 $44 $45 $10 $-1 $46 reversed single #
loop $-1 $-1 $47 $18 #
plane-surface $-1 -74.020554836548513 -26.433480875454311 0 0 -1 0 0 0 -1 forward_v I I I I #
coedge $-1 $48 $49 $50 $51 forward $19 $-1 #
face $-1 $52 $53 $11 $-1 $54 reversed single #
loop $-1 $-1 $55 $21 #
plane-surface $-1 -76.676097491178311 38.408629768907119 0 1 0 0 0 0 -1 forward_v I I I I #
coedge $-1 $56 $57 $58 $59 forward $22 $-1 #
face $-1 $60 $61 $9 $-1 $62 reversed single #
loop $-1 $-1 $63 $24 #
plane-surface $-1 0 -50.38377866235993 0 0 1 0 0 0 1 forward_v I I I I #
coedge $-1 $64 $65 $66 $67 forward $25 $-1 #
coedge $-1 $68 $27 $69 $70 forward $16 $-1 #
coedge $-1 $27 $68 $71 $72 forward $16 $-1 #
coedge $-1 $73 $74 $27 $43 reversed $75 $-1 #
edge $-1 $76 -50.38377866235993 $77 50.38377866235993 $42 $78 forward 7 unknown #
face $-1 $79 $80 $10 $-1 $81 forward single #
loop $-1 $-1 $82 $28 #
plane-surface $-1 -71.365012181918715 -38.408629768907119 0 -1 0 0 0 0 1 forward_v I I I I #
coedge $-1 $83 $84 $85 $86 forward $29 $-1 #
coedge $-1 $87 $31 $88 $89 reversed $19 $-1 #
coedge $-1 $31 $87 $90 $91 reversed $19 $-1 #
coedge $-1 $84 $83 $31 $51 reversed $29 $-1 #
edge $-1 $92 -21.712829984842017 $93 21.712829984842017 $50 $94 forward 7 unknown #
face $-1 $95 $96 $11 $-1 $97 reversed single #
loop $-1 $-1 $98 $32 #
plane-surface $-1 -71.365012181918715 38.408629768907119 0 -1 0 0 0 0 1 forward_v I I I I #
coedge $-1 $99 $100 $101 $102 reversed $33 $-1 #
coedge $-1 $103 $35 $104 $105 reversed $22 $-1 #
coedge $-1 $35 $103 $106 $107 reversed $22 $-1 #
coedge $-1 $100 $99 $35 $59 reversed $33 $-1 #
edge $-1 $108 -21.712829984842017 $109 21.712829984842017 $58 $110 forward 7 unknown #
face $-1 $111 $112 $9 $-1 $113 reversed single #
loop $-1 $-1 $114 $36 #
plane-surface $-1 -77.938169499801631 0 0 1 0 0 0 0 -1 forward_v I I I I #
coedge $-1 $115 $71 $116 $117 forward $37 $-1 #
coedge $-1 $118 $39 $115 $119 forward $25 $-1 #
coedge $-1 $39 $118 $120 $121 forward $25 $-1 #
coedge $-1 $74 $73 $39 $67 reversed $75 $-1 #
edge $-1 $122 -50.38377866235993 $123 50.38377866235993 $66 $124 forward 7 unknown #
coedge $-1 $41 $40 $125 $126 forward $16 $-1 #
coedge $-1 $127 $128 $40 $70 reversed $112 $-1 #
edge $-1 $77 -77.938169499801631 $129 77.938169499801631 $69 $130 forward 7 unknown #
coedge $-1 $63 $131 $41 $72 reversed $37 $-1 #
edge $-1 $132 -77.938169499801631 $76 77.938169499801631 $71 $133 forward 7 unknown #
coedge $-1 $66 $42 $131 $134 forward $75 $-1 #
coedge $-1 $42 $66 $127 $135 reversed $75 $-1 #
loop $-1 $-1 $73 $111 #
vertex $-1 $43 $136 #
vertex $-1 $43 $137 #
straight-curve $-1 77.938169499801631 0 21.712829984842017 0 1 0 I I #
face $-1 $138 $139 $10 $-1 $140 reversed single #
loop $-1 $-1 $141 $44 #
plane-surface $-1 0 0 21.712829984842017 0 0 1 1 0 0 forward_v I I I I #
coedge $-1 $142 $143 $144 $145 reversed $45 $-1 #
coedge $-1 $50 $47 $146 $147 reversed $29 $-1 #
coedge $-1 $47 $50 $148 $149 reversed $29 $-1 #
coedge $-1 $143 $142 $47 $86 reversed $45 $-1 #
edge $-1 $150 -21.712829984842017 $151 21.712829984842017 $85 $152 forward 7 unknown #
coedge $-1 $49 $48 $153 $154 reversed $19 $-1 #
coedge $-1 $146 $155 $48 $89 forward $139 $-1 #
edge $-1 $156 -31.179463777906371 $93 -7.2291659910007517 $88 $157 forward 7 unknown #
coedge $-1 $158 $148 $49 $91 forward $80 $-1 #
edge $-1 $92 7.2291659910007517 $159 31.179463777906371 $90 $160 forward 7 unknown #
vertex $-1 $91 $161 #
vertex $-1 $89 $162 #
straight-curve $-1 -76.676097491178311 -26.433480875454311 0 0 0 -1 I I #
face $-1 $163 $164 $11 $-1 $165 forward single #
loop $-1 $-1 $166 $52 #
plane-surface $-1 0 0 -21.712829984842017 0 0 1 1 0 0 forward_v I I I I #
coedge $-1 $167 $168 $103 $169 forward $53 $-1 #
coedge $-1 $58 $55 $170 $171 reversed $33 $-1 #
coedge $-1 $55 $58 $172 $173 reversed $33 $-1 #
coedge $-1 $174 $175 $55 $102 forward $176 $-1 #
edge $-1 $177 -21.712829984842017 $178 21.712829984842017 $101 $179 forward 7 unknown #
coedge $-1 $57 $56 $98 $169 reversed $22 $-1 #
coedge $-1 $170 $166 $56 $105 forward $96 $-1 #
edge $-1 $180 34.354734763644458 $109 39.665820072904054 $104 $181 forward 7 unknown #
coedge $-1 $182 $172 $57 $107 forward $164 $-1 #
edge $-1 $108 -39.665820072904054 $183 -34.354734763644458 $106 $184 forward 7 unknown #
vertex $-1 $107 $185 #
vertex $-1 $105 $186 #
straight-curve $-1 -76.676097491178311 26.433480875454308 0 0 0 -1 I I #
face $-1 $-1 $75 $9 $-1 $187 reversed single #
loop $-1 $-1 $127 $60 #
plane-surface $-1 0 50.38377866235993 0 0 -1 0 0 0 -1 forward_v I I I I #
coedge $-1 $188 $125 $128 $189 forward $61 $-1 #
coedge $-1 $131 $63 $64 $119 reversed $37 $-1 #
coedge $-1 $125 $188 $63 $117 reversed $61 $-1 #
edge $-1 $132 -21.712829984842017 $190 21.712829984842017 $116 $191 forward 7 unknown #
coedge $-1 $65 $64 $188 $192 forward $25 $-1 #
edge $-1 $123 -77.938169499801631 $190 77.938169499801631 $115 $193 forward 7 unknown #
coedge $-1 $128 $127 $65 $121 reversed $112 $-1 #
edge $-1 $194 -77.938169499801631 $122 77.938169499801631 $120 $195 forward 7 unknown #
vertex $-1 $67 $196 #
vertex $-1 $134 $197 #
straight-curve $-1 77.938169499801631 0 -21.712829984842017 0 -1 0 I I #
coedge $-1 $114 $116 $68 $126 reversed $61 $-1 #
edge $-1 $129 -50.38377866235993 $132 50.38377866235993 $125 $198 forward 7 unknown #
coedge $-1 $120 $69 $74 $135 forward $112 $-1 #
coedge $-1 $69 $120 $114 $189 reversed $112 $-1 #
vertex $-1 $70 $199 #
straight-curve $-1 0 50.38377866235993 21.712829984842017 -1 0 0 I I #
coedge $-1 $71 $115 $73 $134 reversed $37 $-1 #
vertex $-1 $126 $200 #
straight-curve $-1 0 -50.38377866235993 21.712829984842017 1 0 0 I I #
edge $-1 $76 -21.712829984842017 $123 21.712829984842017 $73 $201 forward 7 unknown #
edge $-1 $77 -21.712829984842017 $122 21.712829984842017 $74 $202 forward 7 unknown #
point $-1 77.938169499801631 -50.38377866235993 21.712829984842017 #
point $-1 77.938169499801631 50.38377866235993 21.712829984842017 #
face $-1 $-1 $203 $10 $-1 $204 reversed single #
loop $-1 $-1 $205 $79 #
plane-surface $-1 0 0 -21.712829984842017 0 0 1 1 0 0 forward_v I I I I #
coedge $-1 $148 $158 $143 $206 forward $80 $-1 #
coedge $-1 $85 $82 $205 $207 reversed $45 $-1 #
coedge $-1 $82 $85 $141 $206 reversed $45 $-1 #
coedge $-1 $208 $209 $82 $145 forward $203 $-1 #
edge $-1 $210 -21.712829984842017 $211 21.712829984842017 $144 $212 forward 7 unknown #
coedge $-1 $205 $88 $83 $147 forward $139 $-1 #
edge $-1 $93 -39.665820072904054 $151 -34.354734763644458 $146 $213 forward 7 unknown #
coedge $-1 $90 $141 $84 $149 forward $80 $-1 #
edge $-1 $150 34.354734763644458 $92 39.665820072904054 $148 $214 forward 7 unknown #
vertex $-1 $149 $215 #
vertex $-1 $147 $216 #
straight-curve $-1 -71.365012181918715 -26.433480875454311 0 0 0 -1 I I #
coedge $-1 $209 $208 $87 $154 forward $203 $-1 #
edge $-1 $159 -21.712829984842017 $156 21.712829984842017 $153 $217 forward 7 unknown #
coedge $-1 $88 $205 $209 $218 forward $139 $-1 #
vertex $-1 $89 $219 #
straight-curve $-1 -76.676097491178311 -19.204314884453559 -21.712829984842017 0 1 0 I I #
coedge $-1 $141 $90 $208 $220 forward $80 $-1 #
vertex $-1 $220 $221 #
straight-curve $-1 -76.676097491178311 -19.204314884453559 21.712829984842017 0 -1 0 I I #
point $-1 -76.676097491178311 -26.433480875454311 21.712829984842017 #
point $-1 -76.676097491178311 -26.433480875454311 -21.712829984842017 #
face $-1 $-1 $176 $11 $-1 $222 reversed single #
loop $-1 $-1 $182 $95 #
plane-surface $-1 0 0 21.712829984842017 0 0 1 1 0 0 forward_v I I I I #
coedge $-1 $104 $223 $167 $224 forward $96 $-1 #
coedge $-1 $225 $98 $166 $224 reversed $53 $-1 #
coedge $-1 $98 $225 $182 $226 reversed $53 $-1 #
edge $-1 $183 -21.712829984842017 $180 21.712829984842017 $98 $227 forward 7 unknown #
coedge $-1 $223 $104 $99 $171 forward $96 $-1 #
edge $-1 $109 7.2291659910007482 $177 31.179463777906371 $170 $228 forward 7 unknown #
coedge $-1 $106 $229 $100 $173 forward $164 $-1 #
edge $-1 $178 -31.179463777906371 $108 -7.2291659910007482 $172 $230 forward 7 unknown #
coedge $-1 $231 $101 $229 $232 reversed $176 $-1 #
coedge $-1 $101 $231 $223 $233 reversed $176 $-1 #
loop $-1 $-1 $231 $163 #
vertex $-1 $233 $234 #
vertex $-1 $102 $235 #
straight-curve $-1 -76.676097491178311 50.38377866235993 0 0 0 1 I I #
vertex $-1 $105 $236 #
straight-curve $-1 -37.010277418274256 26.433480875454308 -21.712829984842017 -1 0 0 I I #
coedge $-1 $229 $106 $168 $226 forward $164 $-1 #
vertex $-1 $107 $237 #
straight-curve $-1 -37.010277418274256 26.433480875454308 21.712829984842017 1 0 0 I I #
point $-1 -76.676097491178311 26.433480875454308 21.712829984842017 #
point $-1 -76.676097491178311 26.433480875454308 -21.712829984842017 #
plane-surface $-1 77.938169499801631 0 0 -1 0 0 0 0 1 forward_v I I I I #
coedge $-1 $116 $114 $118 $192 reversed $61 $-1 #
edge $-1 $129 -21.712829984842017 $194 21.712829984842017 $128 $238 forward 7 unknown #
vertex $-1 $192 $239 #
straight-curve $-1 -77.938169499801631 -50.38377866235993 0 0 0 -1 I I #
edge $-1 $190 -50.38377866235993 $194 50.38377866235993 $188 $240 forward 7 unknown #
straight-curve $-1 0 -50.38377866235993 -21.712829984842017 -1 0 0 I I #
vertex $-1 $121 $241 #
straight-curve $-1 0 50.38377866235993 -21.712829984842017 1 0 0 I I #
point $-1 77.938169499801631 50.38377866235993 -21.712829984842017 #
point $-1 77.938169499801631 -50.38377866235993 -21.712829984842017 #
straight-curve $-1 -77.938169499801631 0 21.712829984842017 0 -1 0 I I #
point $-1 -77.938169499801631 50.38377866235993 21.712829984842017 #
point $-1 -77.938169499801631 -50.38377866235993 21.712829984842017 #
straight-curve $-1 77.938169499801631 -50.38377866235993 0 0 0 -1 I I #
straight-curve $-1 77.938169499801631 50.38377866235993 0 0 0 -1 I I #
loop $-1 $-1 $144 $138 #
plane-surface $-1 0 -50.38377866235993 0 0 1 0 0 0 1 forward_v I I I I #
coedge $-1 $155 $146 $142 $207 forward $139 $-1 #
edge $-1 $211 -31.179463777906371 $150 -7.2291659910007517 $141 $242 forward 7 unknown #
edge $-1 $151 7.2291659910007517 $210 31.179463777906371 $205 $243 forward 7 unknown #
coedge $-1 $153 $144 $158 $220 reversed $203 $-1 #
coedge $-1 $144 $153 $155 $218 reversed $203 $-1 #
vertex $-1 $218 $244 #
vertex $-1 $145 $245 #
straight-curve $-1 -71.365012181918715 -50.38377866235993 0 0 0 1 I I #
straight-curve $-1 -37.010277418274256 -26.433480875454311 -21.712829984842017 1 0 0 I I #
straight-curve $-1 -37.010277418274256 -26.433480875454311 21.712829984842017 -1 0 0 I I #
point $-1 -71.365012181918715 -26.433480875454311 21.712829984842017 #
point $-1 -71.365012181918715 -26.433480875454311 -21.712829984842017 #
straight-curve $-1 -76.676097491178311 -50.38377866235993 0 0 0 -1 I I #
edge $-1 $210 71.365012181918715 $156 76.676097491178311 $209 $246 forward 7 unknown #
point $-1 -76.676097491178311 -50.38377866235993 -21.712829984842017 #
edge $-1 $159 -76.676097491178311 $211 -71.365012181918715 $208 $247 forward 7 unknown #
point $-1 -76.676097491178311 -50.38377866235993 21.712829984842017 #
plane-surface $-1 0 50.38377866235993 0 0 -1 0 0 0 -1 forward_v I I I I #
coedge $-1 $166 $170 $175 $233 forward $96 $-1 #
edge $-1 $248 -31.179463777906371 $180 -7.2291659910007482 $166 $249 forward 7 unknown #
coedge $-1 $168 $167 $231 $250 reversed $53 $-1 #
edge $-1 $183 7.2291659910007482 $251 31.179463777906371 $182 $252 forward 7 unknown #
straight-curve $-1 -71.365012181918715 26.433480875454308 0 0 0 -1 I I #
straight-curve $-1 -76.676097491178311 19.204314884453559 -21.712829984842017 0 1 0 I I #
coedge $-1 $172 $182 $174 $232 forward $164 $-1 #
straight-curve $-1 -76.676097491178311 19.204314884453559 21.712829984842017 0 -1 0 I I #
coedge $-1 $175 $174 $225 $250 forward $176 $-1 #
edge $-1 $251 71.365012181918715 $178 76.676097491178311 $174 $253 forward 7 unknown #
edge $-1 $177 -76.676097491178311 $248 -71.365012181918715 $175 $254 forward 7 unknown #
point $-1 -76.676097491178311 50.38377866235993 -21.712829984842017 #
point $-1 -76.676097491178311 50.38377866235993 21.712829984842017 #
point $-1 -71.365012181918715 26.433480875454308 -21.712829984842017 #
point $-1 -71.365012181918715 26.433480875454308 21.712829984842017 #
straight-curve $-1 -77.938169499801631 50.38377866235993 0 0 0 -1 I I #
point $-1 -77.938169499801631 -50.38377866235993 -21.712829984842017 #
straight-curve $-1 -77.938169499801631 0 -21.712829984842017 0 1 0 I I #
point $-1 -77.938169499801631 50.38377866235993 -21.712829984842017 #
straight-curve $-1 -71.365012181918715 -19.204314884453559 21.712829984842017 0 1 0 I I #
straight-curve $-1 -71.365012181918715 -19.204314884453559 -21.712829984842017 0 -1 0 I I #
point $-1 -71.365012181918715 -50.38377866235993 -21.712829984842017 #
point $-1 -71.365012181918715 -50.38377866235993 21.712829984842017 #
straight-curve $-1 0 -50.38377866235993 -21.712829984842017 -1 0 0 I I #
straight-curve $-1 0 -50.38377866235993 21.712829984842017 1 0 0 I I #
vertex $-1 $250 $255 #
straight-curve $-1 -71.365012181918715 19.204314884453559 -21.712829984842017 0 -1 0 I I #
edge $-1 $251 -21.712829984842017 $248 21.712829984842017 $231 $256 forward 7 unknown #
vertex $-1 $232 $257 #
straight-curve $-1 -71.365012181918715 19.204314884453559 21.712829984842017 0 1 0 I I #
straight-curve $-1 0 50.38377866235993 21.712829984842017 -1 0 0 I I #
straight-curve $-1 0 50.38377866235993 -21.712829984842017 1 0 0 I I #
point $-1 -71.365012181918715 50.38377866235993 -21.712829984842017 #
straight-curve $-1 -71.365012181918715 50.38377866235993 0 0 0 -1 I I #
point $-1 -71.365012181918715 50.38377866235993 21.712829984842017 #
End-of-ACIS-data 