500 0 4 0           
7 Unknown 11 ACIS 5.0 NT 24 Thu Mar 25 17:26:31 1999 
-1 9.9999999999999995e-007 1e-010 
body $-1 $4 $-1 $5 #
body $-1 $6 $-1 $7 #
body $-1 $8 $-1 $9 #
body $-1 $10 $-1 $11 #
lump $-1 $-1 $12 $0 #
transform $-1 1 0 0 0 1 0 0 0 1 70.7358012634663 37.157073643823388 12.244473091563957 1 rotate no_reflect no_shear #
lump $-1 $-1 $13 $1 #
transform $-1 1 0 0 0 1 0 0 0 1 70.7358012634663 37.157073643823388 12.244473091563957 1 rotate no_reflect no_shear #
lump $-1 $-1 $14 $2 #
transform $-1 1 0 0 0 1 0 0 0 1 70.7358012634663 37.157073643823388 12.244473091563957 1 rotate no_reflect no_shear #
lump $-1 $-1 $15 $3 #
transform $-1 1 0 0 0 1 0 0 0 1 70.7358012634663 37.157073643823388 12.244473091563957 1 rotate no_reflect no_shear #
shell $-1 $-1 $-1 $16 $-1 $4 #
shell $-1 $-1 $-1 $17 $-1 $6 #
shell $-1 $-1 $-1 $18 $-1 $8 #
shell $-1 $-1 $-1 $19 $-1 $10 #
face $-1 $20 $21 $12 $-1 $22 forward single #
face $-1 $23 $24 $13 $-1 $25 forward single #
face $-1 $26 $27 $14 $-1 $28 reversed single #
face $-1 $29 $30 $15 $-1 $31 forward single #
face $-1 $32 $33 $12 $-1 $34 reversed single #
loop $-1 $-1 $35 $16 #
plane-surface $-1 0 0 12.244473091563957 0 0 1 1 0 0 forward_v I I I I #
face $-1 $36 $37 $13 $-1 $38 reversed single #
loop $-1 $-1 $39 $17 #
plane-surface $-1 0 -37.157073643823388 0 0 1 0 0 0 1 forward_v I I I I #
face $-1 $40 $41 $14 $-1 $42 reversed single #
loop $-1 $-1 $43 $18 #
plane-surface $-1 -46.219727145338879 87.300285301844326 153.33686185567996 -1 0 0 0 0.71933980857756763 0.69465836192734942 forward_v I I I I #
face $-1 $44 $45 $15 $-1 $46 forward single #
loop $-1 $47 $48 $19 #
cone-surface $-1 -58.47776420440259 28.623854749496992 3.6452590182493703 0 -0.71933980857756763 -0.69465836192734942 2.5 0 0 1 I I 0 1 2.5 forward I I I I #
face $-1 $49 $50 $12 $-1 $51 reversed single #
loop $-1 $-1 $52 $20 #
plane-surface $-1 0 0 -12.244473091563957 0 0 1 1 0 0 forward_v I I I I #
coedge $-1 $53 $54 $55 $56 forward $21 $-1 #
face $-1 $57 $58 $13 $-1 $59 reversed single #
loop $-1 $-1 $60 $23 #
plane-surface $-1 0 0 -12.244473091563957 0 0 1 1 0 0 forward_v I I I I #
coedge $-1 $61 $62 $63 $64 forward $24 $-1 #
face $-1 $65 $66 $14 $-1 $67 forward single #
loop $-1 $-1 $68 $26 #
plane-surface $-1 -58.47776420440259 -14.465870179041104 55.062430185083883 0 0.71933980857756763 0.69465836192734942 1 0 0 forward_v I I I I #
coedge $-1 $69 $70 $71 $72 reversed $27 $-1 #
face $-1 $-1 $73 $15 $-1 $74 forward single #
loop $-1 $75 $76 $29 #
cone-surface $-1 -58.47776420440259 24.328523233901237 -0.50269431198387693 0 -0.71933980857756763 -0.69465836192734942 1.25 0 0 1 I I -0.70710678118654746 0.70710678118654746 1.25 forward I I I I #
loop $-1 $-1 $77 $19 #
coedge $-1 $48 $48 $78 $79 reversed $30 $-1 #
face $-1 $80 $81 $12 $-1 $82 reversed single #
loop $-1 $-1 $83 $32 #
plane-surface $-1 0 -37.157073643823388 0 0 1 0 0 0 1 forward_v I I I I #
coedge $-1 $84 $85 $86 $87 forward $33 $-1 #
coedge $-1 $88 $35 $89 $90 forward $21 $-1 #
coedge $-1 $35 $88 $91 $92 forward $21 $-1 #
coedge $-1 $93 $94 $35 $56 reversed $95 $-1 #
edge $-1 $96 -37.157073643823388 $97 37.157073643823388 $55 $98 forward 7 unknown #
face $-1 $99 $100 $13 $-1 $101 forward single #
loop $-1 $-1 $102 $36 #
plane-surface $-1 70.7358012634663 0 0 -1 0 0 0 0 1 forward_v I I I I #
coedge $-1 $103 $104 $105 $106 forward $37 $-1 #
coedge $-1 $105 $39 $102 $107 reversed $24 $-1 #
coedge $-1 $39 $105 $108 $109 reversed $24 $-1 #
coedge $-1 $110 $111 $39 $64 reversed $100 $-1 #
edge $-1 $112 -70.7358012634663 $113 70.7358012634663 $63 $114 forward 7 unknown #
face $-1 $115 $116 $14 $-1 $117 reversed single #
loop $-1 $-1 $118 $40 #
plane-surface $-1 0 0 12.244473091563957 0 0 1 1 0 0 forward_v I I I I #
coedge $-1 $119 $120 $121 $122 reversed $41 $-1 #
coedge $-1 $70 $43 $123 $124 reversed $27 $-1 #
coedge $-1 $43 $69 $119 $125 reversed $27 $-1 #
coedge $-1 $121 $126 $43 $72 forward $116 $-1 #
edge $-1 $127 64.423957836276017 $128 75.063125227257103 $71 $129 forward 7 unknown #
loop $-1 $-1 $78 $44 #
plane-surface $-1 -58.47776420440259 -14.465870179041104 55.062430185083883 0 0.71933980857756763 0.69465836192734942 1 0 0 forward_v I I I I #
loop $-1 $-1 $130 $29 #
coedge $-1 $76 $76 $77 $131 reversed $45 $-1 #
coedge $-1 $77 $77 $76 $131 forward $47 $-1 #
coedge $-1 $78 $78 $48 $79 forward $73 $-1 #
edge $-1 $132 2.5556083776392584e-016 $132 6.2831853071796004 $78 $133 forward 7 unknown #
face $-1 $134 $135 $12 $-1 $136 reversed single #
loop $-1 $-1 $137 $49 #
plane-surface $-1 -70.7358012634663 0 0 1 0 0 0 0 -1 forward_v I I I I #
coedge $-1 $138 $91 $139 $140 forward $50 $-1 #
coedge $-1 $141 $52 $138 $142 forward $33 $-1 #
coedge $-1 $52 $141 $143 $144 forward $33 $-1 #
coedge $-1 $94 $93 $52 $87 reversed $95 $-1 #
edge $-1 $145 -37.157073643823388 $146 37.157073643823388 $86 $147 forward 7 unknown #
coedge $-1 $54 $53 $148 $149 forward $21 $-1 #
coedge $-1 $150 $151 $53 $90 reversed $135 $-1 #
edge $-1 $97 -70.7358012634663 $152 70.7358012634663 $89 $153 forward 7 unknown #
coedge $-1 $83 $154 $54 $92 reversed $50 $-1 #
edge $-1 $155 -70.7358012634663 $96 70.7358012634663 $91 $156 forward 7 unknown #
coedge $-1 $86 $55 $154 $157 forward $95 $-1 #
coedge $-1 $55 $86 $150 $158 reversed $95 $-1 #
loop $-1 $-1 $93 $134 #
vertex $-1 $56 $159 #
vertex $-1 $56 $160 #
straight-curve $-1 70.7358012634663 0 12.244473091563957 0 1 0 I I #
face $-1 $161 $162 $13 $-1 $163 reversed single #
loop $-1 $-1 $111 $57 #
plane-surface $-1 0 -43.066348209110288 -5.5221389067627662 0 0 1 1 0 0 forward_v I I I I #
coedge $-1 $164 $165 $61 $107 forward $58 $-1 #
coedge $-1 $166 $60 $165 $167 forward $37 $-1 #
coedge $-1 $60 $166 $168 $169 forward $37 $-1 #
coedge $-1 $62 $61 $60 $106 reversed $24 $-1 #
edge $-1 $170 -70.7358012634663 $171 70.7358012634663 $60 $172 forward 7 unknown #
edge $-1 $171 -12.244473091563957 $113 -5.5221389067627662 $102 $173 forward 7 unknown #
coedge $-1 $168 $174 $62 $109 forward $175 $-1 #
edge $-1 $112 5.5221389067627662 $170 12.244473091563957 $108 $176 forward 7 unknown #
coedge $-1 $177 $63 $174 $178 forward $100 $-1 #
coedge $-1 $63 $177 $164 $179 forward $100 $-1 #
vertex $-1 $109 $180 #
vertex $-1 $179 $181 #
straight-curve $-1 0 -37.157073643823388 -5.5221389067627662 1 0 0 I I #
face $-1 $-1 $182 $14 $-1 $183 reversed single #
loop $-1 $-1 $71 $65 #
plane-surface $-1 0 37.157073643823388 0 0 -1 0 0 0 -1 forward_v I I I I #
coedge $-1 $123 $184 $185 $186 forward $66 $-1 #
coedge $-1 $185 $68 $70 $125 forward $41 $-1 #
coedge $-1 $68 $185 $187 $188 reversed $41 $-1 #
coedge $-1 $189 $71 $68 $122 forward $116 $-1 #
edge $-1 $128 16.980845043137585 $190 41.496919161265005 $121 $191 forward 7 unknown #
coedge $-1 $192 $118 $69 $124 forward $66 $-1 #
edge $-1 $193 -16.767193286003952 $127 -6.4930690070987751 $123 $194 forward 7 unknown #
edge $-1 $128 -74.31414728764679 $193 -59.523964311371472 $70 $195 forward 7 unknown #
coedge $-1 $71 $189 $192 $196 reversed $116 $-1 #
vertex $-1 $196 $197 #
vertex $-1 $72 $198 #
straight-curve $-1 -46.219727145338879 37.157073643823388 76.668430927839978 0 0 -1 I I #
coedge $-1 $130 $130 $-1 $199 reversed $75 $-1 #
edge $-1 $200 0 $200 6.2831853071796004 $76 $201 forward 7 unknown #
vertex $-1 $79 $202 #
ellipse-curve $-1 -58.47776420440259 32.020011504370792 6.9248893960734303 0 0.71933980857756763 0.69465836192734942 2.5 0 0 1 I I #
face $-1 $-1 $95 $12 $-1 $203 reversed single #
loop $-1 $-1 $150 $80 #
plane-surface $-1 0 37.157073643823388 0 0 -1 0 0 0 -1 forward_v I I I I #
coedge $-1 $204 $148 $151 $205 forward $81 $-1 #
coedge $-1 $154 $83 $84 $142 reversed $50 $-1 #
coedge $-1 $148 $204 $83 $140 reversed $81 $-1 #
edge $-1 $155 -12.244473091563957 $206 12.244473091563957 $139 $207 forward 7 unknown #
coedge $-1 $85 $84 $204 $208 forward $33 $-1 #
edge $-1 $146 -70.7358012634663 $206 70.7358012634663 $138 $209 forward 7 unknown #
coedge $-1 $151 $150 $85 $144 reversed $135 $-1 #
edge $-1 $210 -70.7358012634663 $145 70.7358012634663 $143 $211 forward 7 unknown #
vertex $-1 $87 $212 #
vertex $-1 $157 $213 #
straight-curve $-1 70.7358012634663 0 -12.244473091563957 0 -1 0 I I #
coedge $-1 $137 $139 $88 $149 reversed $81 $-1 #
edge $-1 $152 -37.157073643823388 $155 37.157073643823388 $148 $214 forward 7 unknown #
coedge $-1 $143 $89 $94 $158 forward $135 $-1 #
coedge $-1 $89 $143 $137 $205 reversed $135 $-1 #
vertex $-1 $90 $215 #
straight-curve $-1 0 37.157073643823388 12.244473091563957 -1 0 0 I I #
coedge $-1 $91 $138 $93 $157 reversed $50 $-1 #
vertex $-1 $149 $216 #
straight-curve $-1 0 -37.157073643823388 12.244473091563957 1 0 0 I I #
edge $-1 $96 -12.244473091563957 $146 12.244473091563957 $93 $217 forward 7 unknown #
edge $-1 $97 -12.244473091563957 $145 12.244473091563957 $94 $218 forward 7 unknown #
point $-1 70.7358012634663 -37.157073643823388 12.244473091563957 #
point $-1 70.7358012634663 37.157073643823388 12.244473091563957 #
face $-1 $-1 $175 $13 $-1 $219 reversed single #
loop $-1 $-1 $220 $99 #
plane-surface $-1 0 -48.975622774397188 -8.8833059991633618 0 1 0 0 0 1 forward_v I I I I #
coedge $-1 $221 $102 $111 $179 reversed $58 $-1 #
coedge $-1 $102 $221 $103 $167 reversed $58 $-1 #
coedge $-1 $104 $103 $222 $223 forward $37 $-1 #
edge $-1 $171 37.157073643823388 $224 48.975622774397188 $165 $225 forward 7 unknown #
coedge $-1 $226 $108 $104 $169 reversed $175 $-1 #
edge $-1 $227 -48.975622774397188 $170 -37.157073643823388 $168 $228 forward 7 unknown #
vertex $-1 $109 $229 #
vertex $-1 $167 $230 #
straight-curve $-1 0 -37.157073643823388 -12.244473091563957 1 0 0 I I #
straight-curve $-1 70.7358012634663 -37.157073643823388 0 0 0 1 I I #
coedge $-1 $108 $226 $110 $178 reversed $175 $-1 #
loop $-1 $-1 $108 $161 #
straight-curve $-1 -70.7358012634663 -37.157073643823388 0 0 0 -1 I I #
coedge $-1 $111 $110 $231 $232 forward $100 $-1 #
edge $-1 $112 -5.9092745652868999 $233 5.9092745652868999 $174 $234 forward 7 unknown #
edge $-1 $235 -5.9092745652868999 $113 5.9092745652868999 $164 $236 forward 7 unknown #
point $-1 -70.7358012634663 -37.157073643823388 -5.5221389067627662 #
point $-1 70.7358012634663 -37.157073643823388 -5.5221389067627662 #
loop $-1 $-1 $187 $115 #
plane-surface $-1 -70.7358012634663 0 0 1 0 0 0 0 -1 forward_v I I I I #
coedge $-1 $118 $192 $237 $238 forward $66 $-1 #
coedge $-1 $120 $119 $118 $186 reversed $41 $-1 #
edge $-1 $239 -41.496919161265005 $193 -16.980845043137585 $118 $240 forward 7 unknown #
coedge $-1 $237 $241 $120 $188 forward $182 $-1 #
edge $-1 $190 -49.485429451856632 $239 -34.695246475581314 $187 $242 forward 7 unknown #
coedge $-1 $126 $121 $241 $243 reversed $116 $-1 #
vertex $-1 $122 $244 #
straight-curve $-1 -29.238882102201295 37.157073643823388 1.6053057005828784 -1 0 0 I I #
coedge $-1 $184 $123 $126 $196 forward $66 $-1 #
vertex $-1 $124 $245 #
straight-curve $-1 -46.219727145338879 43.650142650922163 12.244473091563961 0 1 0 I I #
straight-curve $-1 -46.219727145338879 -14.465870179041104 55.062430185083883 0 -0.69465836192734942 0.71933980857756763 I I #
edge $-1 $127 46.219727145338879 $246 70.7358012634663 $126 $247 forward 7 unknown #
point $-1 -46.219727145338879 37.157073643823388 12.244473091563957 #
point $-1 -46.219727145338879 37.157073643823395 1.6053057005828748 #
edge $-1 $248 1 $248 0 $130 $-1 forward 7 unknown #
vertex $-1 $131 $249 #
ellipse-curve $-1 -58.47776420440259 25.227697994623195 0.36562864042530985 0 0.71933980857756763 0.69465836192734942 2.5 0 0 1 I I #
point $-1 -55.97776420440259 32.020011504370792 6.9248893960734295 #
plane-surface $-1 70.7358012634663 0 0 -1 0 0 0 0 1 forward_v I I I I #
coedge $-1 $139 $137 $141 $208 reversed $81 $-1 #
edge $-1 $152 -12.244473091563957 $210 12.244473091563957 $151 $250 forward 7 unknown #
vertex $-1 $208 $251 #
straight-curve $-1 -70.7358012634663 -37.157073643823388 0 0 0 -1 I I #
edge $-1 $206 -37.157073643823388 $210 37.157073643823388 $204 $252 forward 7 unknown #
straight-curve $-1 0 -37.157073643823388 -12.244473091563957 -1 0 0 I I #
vertex $-1 $144 $253 #
straight-curve $-1 0 37.157073643823388 -12.244473091563957 1 0 0 I I #
point $-1 70.7358012634663 37.157073643823388 -12.244473091563957 #
point $-1 70.7358012634663 -37.157073643823388 -12.244473091563957 #
straight-curve $-1 -70.7358012634663 0 12.244473091563957 0 -1 0 I I #
point $-1 -70.7358012634663 37.157073643823388 12.244473091563957 #
point $-1 -70.7358012634663 -37.157073643823388 12.244473091563957 #
straight-curve $-1 70.7358012634663 -37.157073643823388 0 0 0 -1 I I #
straight-curve $-1 70.7358012634663 37.157073643823388 0 0 0 -1 I I #
plane-surface $-1 -70.7358012634663 0 0 1 0 0 0 0 -1 forward_v I I I I #
coedge $-1 $222 $231 $226 $254 forward $162 $-1 #
coedge $-1 $165 $164 $255 $256 forward $58 $-1 #
coedge $-1 $255 $220 $166 $223 reversed $162 $-1 #
edge $-1 $224 -70.7358012634663 $227 70.7358012634663 $222 $257 forward 7 unknown #
vertex $-1 $256 $258 #
straight-curve $-1 70.7358012634663 0 -12.244473091563957 0 -1 0 I I #
coedge $-1 $174 $168 $220 $254 reversed $175 $-1 #
vertex $-1 $169 $259 #
straight-curve $-1 -70.7358012634663 0 -12.244473091563957 0 1 0 I I #
point $-1 -70.7358012634663 -37.157073643823388 -12.244473091563957 #
point $-1 70.7358012634663 -37.157073643823388 -12.244473091563957 #
coedge $-1 $220 $255 $177 $232 reversed $162 $-1 #
edge $-1 $233 -70.7358012634663 $235 70.7358012634663 $231 $260 forward 7 unknown #
vertex $-1 $178 $261 #
straight-curve $-1 -70.7358012634663 -43.066348209110288 -5.5221389067627662 0 -1 0 I I #
vertex $-1 $179 $262 #
straight-curve $-1 70.7358012634663 -43.066348209110288 -5.5221389067627662 0 1 0 I I #
coedge $-1 $241 $187 $184 $238 reversed $182 $-1 #
edge $-1 $246 -37.157073643823388 $239 -26.882949364918211 $237 $263 forward 7 unknown #
vertex $-1 $188 $264 #
straight-curve $-1 -29.238882102201295 26.882949364918211 12.244473091563957 1 0 0 I I #
coedge $-1 $187 $237 $189 $243 forward $182 $-1 #
straight-curve $-1 -70.7358012634663 2.7816062815252476 37.20214504986015 0 -0.69465836192734942 0.71933980857756763 I I #
edge $-1 $246 -12.244473091563957 $190 -1.6053057005828753 $189 $265 forward 7 unknown #
point $-1 -70.7358012634663 37.157073643823388 1.6053057005828753 #
point $-1 -46.219727145338879 26.882949364918211 12.244473091563961 #
vertex $-1 $196 $266 #
straight-curve $-1 0 37.157073643823388 12.244473091563957 -1 0 0 I I #
vertex $-1 $199 $267 #
point $-1 -55.97776420440259 25.227697994623195 0.36562864042530985 #
straight-curve $-1 -70.7358012634663 37.157073643823388 0 0 0 -1 I I #
point $-1 -70.7358012634663 -37.157073643823388 -12.244473091563957 #
straight-curve $-1 -70.7358012634663 0 -12.244473091563957 0 1 0 I I #
point $-1 -70.7358012634663 37.157073643823388 -12.244473091563957 #
edge $-1 $233 -3.3611670924005956 $227 3.3611670924005956 $226 $268 forward 7 unknown #
coedge $-1 $231 $222 $221 $256 reversed $162 $-1 #
edge $-1 $235 -3.3611670924005956 $224 3.3611670924005956 $221 $269 forward 7 unknown #
straight-curve $-1 0 -48.975622774397188 -12.244473091563957 -1 0 0 I I #
point $-1 70.7358012634663 -48.975622774397188 -12.244473091563957 #
point $-1 -70.7358012634663 -48.975622774397188 -12.244473091563957 #
straight-curve $-1 0 -48.975622774397188 -5.5221389067627662 1 0 0 I I #
point $-1 -70.7358012634663 -48.975622774397188 -5.5221389067627662 #
point $-1 70.7358012634663 -48.975622774397188 -5.5221389067627662 #
straight-curve $-1 -70.7358012634663 0 12.244473091563957 0 -1 0 I I #
point $-1 -70.7358012634663 26.882949364918211 12.244473091563961 #
straight-curve $-1 -70.7358012634663 37.157073643823388 0 0 0 -1 I I #
point $-1 -70.7358012634663 37.157073643823388 12.244473091563957 #
point $-1 -58.47776420440259 23.429348473179278 -1.3710172643930636 #
straight-curve $-1 -70.7358012634663 -48.975622774397188 -8.8833059991633618 0 0 -1 I I #
straight-curve $-1 70.7358012634663 -48.975622774397188 -8.8833059991633618 0 0 -1 I I #
End-of-ACIS-data 