500 0 8 0           
7 Unknown 11 ACIS 5.0 NT 24 Fri Mar 26 01:14:16 1999 
-1 9.9999999999999995e-007 1e-010 
body $-1 $8 $-1 $9 #
body $-1 $10 $-1 $11 #
body $-1 $12 $-1 $13 #
body $-1 $14 $-1 $15 #
body $-1 $16 $-1 $17 #
body $-1 $18 $-1 $19 #
body $-1 $20 $-1 $21 #
body $-1 $22 $-1 $23 #
lump $-1 $-1 $24 $0 #
transform $-1 1 0 0 0 1 0 0 0 1 68.167363505966364 33.440640520655101 11.543639301528424 1 rotate no_reflect no_shear #
lump $-1 $-1 $25 $1 #
transform $-1 1 0 0 0 1 0 0 0 1 68.167363505966364 33.440640520655101 11.543639301528424 1 rotate no_reflect no_shear #
lump $-1 $-1 $26 $2 #
transform $-1 1 0 0 0 1 0 0 0 1 68.167363505966364 33.440640520655101 11.543639301528424 1 rotate no_reflect no_shear #
lump $-1 $-1 $27 $3 #
transform $-1 1 0 0 0 1 0 0 0 1 68.167363505966364 33.440640520655101 11.543639301528424 1 rotate no_reflect no_shear #
lump $-1 $-1 $28 $4 #
transform $-1 1 0 0 0 1 0 0 0 1 68.167363505966364 33.440640520655101 11.543639301528424 1 rotate no_reflect no_shear #
lump $-1 $-1 $29 $5 #
transform $-1 1 0 0 0 1 0 0 0 1 68.167363505966364 33.440640520655101 11.543639301528424 1 rotate no_reflect no_shear #
lump $-1 $-1 $30 $6 #
transform $-1 1 0 0 0 1 0 0 0 1 68.167363505966364 33.440640520655101 11.543639301528424 1 rotate no_reflect no_shear #
lump $-1 $-1 $31 $7 #
transform $-1 1 0 0 0 1 0 0 0 1 68.167363505966364 33.440640520655101 11.543639301528424 1 rotate no_reflect no_shear #
shell $-1 $-1 $-1 $32 $-1 $8 #
shell $-1 $-1 $-1 $33 $-1 $10 #
shell $-1 $-1 $-1 $34 $-1 $12 #
shell $-1 $-1 $-1 $35 $-1 $14 #
shell $-1 $-1 $-1 $36 $-1 $16 #
shell $-1 $-1 $-1 $37 $-1 $18 #
shell $-1 $-1 $-1 $38 $-1 $20 #
shell $-1 $-1 $-1 $39 $-1 $22 #
face $-1 $40 $41 $24 $-1 $42 forward single #
face $-1 $43 $44 $25 $-1 $45 forward single #
face $-1 $46 $47 $26 $-1 $48 reversed single #
face $-1 $49 $50 $27 $-1 $51 forward single #
face $-1 $52 $53 $28 $-1 $54 reversed single #
face $-1 $55 $56 $29 $-1 $57 forward single #
face $-1 $58 $59 $30 $-1 $60 reversed single #
face $-1 $61 $62 $31 $-1 $63 forward single #
face $-1 $64 $65 $24 $-1 $66 reversed single #
loop $-1 $-1 $67 $32 #
plane-surface $-1 0 0 11.543639301528424 0 0 1 1 0 0 forward_v I I I I #
face $-1 $68 $69 $25 $-1 $70 reversed single #
loop $-1 $-1 $71 $33 #
plane-surface $-1 0 -33.440640520655101 0 0 1 0 0 0 1 forward_v I I I I #
face $-1 $72 $73 $26 $-1 $74 reversed single #
loop $-1 $-1 $75 $34 #
plane-surface $-1 -177.0491188715082 9.8932182051565114 88.955525883042398 0 1 0 -0.79863551827123203 0 0.60181501223851219 forward_v I I I I #
face $-1 $76 $77 $27 $-1 $78 forward single #
loop $-1 $79 $80 $35 #
cone-surface $-1 -65.638157316005248 14.654328553834716 8.6359212472811073 0.79863551827123203 0 -0.60181501223851219 0.60181501223851219 0 0.79863551827123203 1 I I 0 1 1 forward I I I I #
face $-1 $81 $82 $28 $-1 $83 reversed single #
loop $-1 $-1 $84 $36 #
plane-surface $-1 78.258074247406057 -0.78535623837572643 201.00056294390663 0 -1 0 -0.74314483375859142 0 -0.66913059716165679 forward_v I I I I #
face $-1 $85 $86 $29 $-1 $87 forward single #
loop $-1 $88 $89 $37 #
cone-surface $-1 66.061286595448479 -5.9877273084330547 9.355341433342236 -0.74314483375859142 0 -0.66913059716165679 0.3345652985808284 0 -0.37157241687929571 1 I I 0 1 0.5 forward I I I I #
face $-1 $90 $91 $30 $-1 $92 reversed single #
loop $-1 $-1 $93 $38 #
plane-surface $-1 78.258074247406057 22.157573846525434 201.00056294390663 0 -1 0 -0.74314483375859142 0 -0.66913059716165679 forward_v I I I I #
face $-1 $94 $95 $31 $-1 $96 forward single #
loop $-1 $97 $98 $39 #
cone-surface $-1 66.061286595448479 16.955202776468106 9.355341433342236 -0.74314483375859142 0 -0.66913059716165679 0.3345652985808284 0 -0.37157241687929571 1 I I 0 1 0.5 forward I I I I #
face $-1 $99 $100 $24 $-1 $101 reversed single #
loop $-1 $-1 $102 $40 #
plane-surface $-1 0 0 -11.543639301528424 0 0 1 1 0 0 forward_v I I I I #
coedge $-1 $103 $104 $105 $106 forward $41 $-1 #
face $-1 $107 $108 $25 $-1 $109 reversed single #
loop $-1 $-1 $110 $43 #
plane-surface $-1 0 0 -11.543639301528424 0 0 1 1 0 0 forward_v I I I I #
coedge $-1 $111 $112 $113 $114 forward $44 $-1 #
face $-1 $115 $116 $26 $-1 $117 reversed single #
loop $-1 $-1 $118 $46 #
plane-surface $-1 -68.167363505966364 14.654328553834709 6.9072404778218868 -0.79863551827123203 0 0.60181501223851219 0.60181501223851219 0 0.79863551827123203 forward_v I I I I #
coedge $-1 $119 $120 $121 $122 reversed $47 $-1 #
face $-1 $-1 $123 $27 $-1 $124 forward single #
loop $-1 $125 $126 $49 #
cone-surface $-1 -64.456521872989171 14.654328553834716 7.7454950987678064 0.79863551827123203 0 -0.60181501223851219 0.3009075061192561 0 0.39931775913561601 1 I I -0.70710678118654746 0.70710678118654746 0.5 forward I I I I #
loop $-1 $-1 $127 $35 #
coedge $-1 $80 $80 $128 $129 reversed $50 $-1 #
face $-1 $130 $131 $28 $-1 $132 reversed single #
loop $-1 $-1 $133 $52 #
plane-surface $-1 -23.058373793399639 -5.9877273084330547 109.77482564454063 0.74314483375859142 0 0.66913059716165679 0.66913059716165679 0 -0.74314483375859142 forward_v I I I I #
coedge $-1 $134 $135 $136 $137 reversed $53 $-1 #
face $-1 $-1 $138 $29 $-1 $139 forward single #
loop $-1 $140 $141 $55 #
cone-surface $-1 65.158414497126358 -5.9877273084330547 8.5423917647623764 -0.74314483375859142 0 -0.66913059716165679 0.1672826492904142 0 -0.18578620843964785 1 I I -0.70710678118654746 0.70710678118654746 0.25 forward I I I I #
loop $-1 $-1 $142 $37 #
coedge $-1 $89 $89 $143 $144 reversed $56 $-1 #
face $-1 $145 $146 $30 $-1 $147 reversed single #
loop $-1 $-1 $148 $58 #
plane-surface $-1 -23.058373793399639 16.955202776468106 109.77482564454063 0.74314483375859142 0 0.66913059716165679 0.66913059716165679 0 -0.74314483375859142 forward_v I I I I #
coedge $-1 $149 $150 $151 $152 reversed $59 $-1 #
face $-1 $-1 $153 $31 $-1 $154 forward single #
loop $-1 $155 $156 $61 #
cone-surface $-1 65.158414497126358 16.955202776468106 8.5423917647623764 -0.74314483375859142 0 -0.66913059716165679 0.1672826492904142 0 -0.18578620843964785 1 I I -0.70710678118654746 0.70710678118654746 0.25 forward I I I I #
loop $-1 $-1 $157 $39 #
coedge $-1 $98 $98 $158 $159 reversed $62 $-1 #
face $-1 $160 $161 $24 $-1 $162 reversed single #
loop $-1 $-1 $163 $64 #
plane-surface $-1 0 -33.440640520655101 0 0 1 0 0 0 1 forward_v I I I I #
coedge $-1 $164 $165 $166 $167 forward $65 $-1 #
coedge $-1 $168 $67 $169 $170 forward $41 $-1 #
coedge $-1 $67 $168 $171 $172 forward $41 $-1 #
coedge $-1 $173 $174 $67 $106 reversed $175 $-1 #
edge $-1 $176 -33.440640520655101 $177 33.440640520655101 $105 $178 forward 7 unknown #
face $-1 $179 $180 $25 $-1 $181 forward single #
loop $-1 $-1 $182 $68 #
plane-surface $-1 68.167363505966364 0 0 -1 0 0 0 0 1 forward_v I I I I #
coedge $-1 $183 $184 $185 $186 forward $69 $-1 #
coedge $-1 $185 $71 $182 $187 reversed $44 $-1 #
coedge $-1 $71 $185 $188 $189 reversed $44 $-1 #
coedge $-1 $190 $191 $71 $114 reversed $180 $-1 #
edge $-1 $192 -68.167363505966364 $193 68.167363505966364 $113 $194 forward 7 unknown #
face $-1 $195 $196 $26 $-1 $197 forward single #
loop $-1 $-1 $198 $72 #
plane-surface $-1 -177.0491188715082 19.415438902512907 88.955525883042398 0 -1 0 0.79863551827123203 0 -0.60181501223851219 forward_v I I I I #
coedge $-1 $199 $200 $201 $202 reversed $73 $-1 #
coedge $-1 $120 $75 $203 $204 reversed $47 $-1 #
coedge $-1 $75 $119 $199 $205 reversed $47 $-1 #
coedge $-1 $201 $206 $75 $122 forward $196 $-1 #
edge $-1 $207 20.357195929787736 $208 23.850972941949053 $121 $209 forward 7 unknown #
loop $-1 $-1 $128 $76 #
plane-surface $-1 -68.167363505966364 14.654328553834709 6.9072404778218868 -0.79863551827123203 0 0.60181501223851219 0.60181501223851219 0 0.79863551827123203 forward_v I I I I #
loop $-1 $-1 $210 $49 #
coedge $-1 $126 $126 $127 $211 reversed $77 $-1 #
coedge $-1 $127 $127 $126 $211 forward $79 $-1 #
coedge $-1 $128 $128 $80 $129 forward $123 $-1 #
edge $-1 $212 0 $212 6.2831853071796004 $128 $213 forward 7 unknown #
face $-1 $214 $215 $28 $-1 $216 reversed single #
loop $-1 $-1 $217 $81 #
plane-surface $-1 78.258074247406057 -11.190098378490383 201.00056294390663 0 1 0 0.74314483375859142 0 0.66913059716165679 forward_v I I I I #
coedge $-1 $218 $219 $220 $221 reversed $82 $-1 #
coedge $-1 $135 $84 $222 $223 reversed $53 $-1 #
coedge $-1 $84 $134 $218 $224 reversed $53 $-1 #
coedge $-1 $220 $225 $84 $137 forward $226 $-1 #
edge $-1 $227 -29.038326382263335 $228 -26.260344340992532 $136 $229 forward 7 unknown #
loop $-1 $-1 $143 $85 #
plane-surface $-1 -23.058373793399639 -5.9877273084330547 109.77482564454063 0.74314483375859142 0 0.66913059716165679 0.66913059716165679 0 -0.74314483375859142 forward_v I I I I #
loop $-1 $-1 $230 $55 #
coedge $-1 $141 $141 $142 $231 reversed $86 $-1 #
coedge $-1 $142 $142 $141 $231 forward $88 $-1 #
coedge $-1 $143 $143 $89 $144 forward $138 $-1 #
edge $-1 $232 0 $232 6.2831853071796004 $143 $233 forward 7 unknown #
face $-1 $234 $235 $30 $-1 $236 reversed single #
loop $-1 $-1 $237 $90 #
plane-surface $-1 78.258074247406057 11.752831706410777 201.00056294390663 0 1 0 0.74314483375859142 0 0.66913059716165679 forward_v I I I I #
coedge $-1 $238 $239 $240 $241 reversed $91 $-1 #
coedge $-1 $150 $93 $242 $243 reversed $59 $-1 #
coedge $-1 $93 $149 $238 $244 reversed $59 $-1 #
coedge $-1 $240 $245 $93 $152 forward $246 $-1 #
edge $-1 $247 -29.038326382263335 $248 -26.260344340992532 $151 $249 forward 7 unknown #
loop $-1 $-1 $158 $94 #
plane-surface $-1 -23.058373793399639 16.955202776468106 109.77482564454063 0.74314483375859142 0 0.66913059716165679 0.66913059716165679 0 -0.74314483375859142 forward_v I I I I #
loop $-1 $-1 $250 $61 #
coedge $-1 $156 $156 $157 $251 reversed $95 $-1 #
coedge $-1 $157 $157 $156 $251 forward $97 $-1 #
coedge $-1 $158 $158 $98 $159 forward $153 $-1 #
edge $-1 $252 0 $252 6.2831853071796004 $158 $253 forward 7 unknown #
face $-1 $254 $255 $24 $-1 $256 reversed single #
loop $-1 $-1 $257 $99 #
plane-surface $-1 -68.167363505966364 0 0 1 0 0 0 0 -1 forward_v I I I I #
coedge $-1 $171 $258 $173 $259 reversed $100 $-1 #
coedge $-1 $260 $102 $258 $261 forward $65 $-1 #
coedge $-1 $102 $260 $262 $263 forward $65 $-1 #
coedge $-1 $174 $173 $102 $167 reversed $175 $-1 #
edge $-1 $264 -33.440640520655101 $265 33.440640520655101 $166 $266 forward 7 unknown #
coedge $-1 $104 $103 $267 $268 forward $41 $-1 #
coedge $-1 $269 $270 $103 $170 reversed $255 $-1 #
edge $-1 $177 -68.167363505966364 $271 68.167363505966364 $169 $272 forward 7 unknown #
coedge $-1 $273 $163 $104 $172 reversed $100 $-1 #
edge $-1 $274 -68.167363505966364 $176 68.167363505966364 $171 $275 forward 7 unknown #
coedge $-1 $166 $105 $163 $259 forward $175 $-1 #
coedge $-1 $105 $166 $269 $276 reversed $175 $-1 #
loop $-1 $-1 $173 $254 #
vertex $-1 $106 $277 #
vertex $-1 $106 $278 #
straight-curve $-1 68.167363505966364 0 11.543639301528424 0 1 0 I I #
face $-1 $279 $280 $25 $-1 $281 reversed single #
loop $-1 $-1 $191 $107 #
plane-surface $-1 0 -38.924378254672625 -8.5436393015284242 0 0 1 1 0 0 forward_v I I I I #
coedge $-1 $282 $283 $111 $187 forward $108 $-1 #
coedge $-1 $284 $110 $283 $285 forward $69 $-1 #
coedge $-1 $110 $284 $286 $287 forward $69 $-1 #
coedge $-1 $112 $111 $110 $186 reversed $44 $-1 #
edge $-1 $288 -68.167363505966364 $289 68.167363505966364 $110 $290 forward 7 unknown #
edge $-1 $289 -11.543639301528424 $193 -8.5436393015284242 $182 $291 forward 7 unknown #
coedge $-1 $286 $292 $112 $189 forward $293 $-1 #
edge $-1 $192 8.5436393015284242 $288 11.543639301528424 $188 $294 forward 7 unknown #
coedge $-1 $295 $113 $292 $296 forward $180 $-1 #
coedge $-1 $113 $295 $282 $297 forward $180 $-1 #
vertex $-1 $189 $298 #
vertex $-1 $297 $299 #
straight-curve $-1 0 -33.440640520655101 -8.5436393015284242 1 0 0 I I #
face $-1 $-1 $300 $26 $-1 $301 reversed single #
loop $-1 $-1 $121 $115 #
plane-surface $-1 0 0 11.543639301528424 0 0 1 1 0 0 forward_v I I I I #
coedge $-1 $302 $303 $304 $305 reversed $116 $-1 #
coedge $-1 $306 $118 $120 $205 forward $73 $-1 #
coedge $-1 $118 $306 $302 $307 forward $73 $-1 #
coedge $-1 $304 $121 $118 $202 forward $196 $-1 #
edge $-1 $208 2.5660539282391568 $308 12.088274625595552 $201 $309 forward 7 unknown #
coedge $-1 $310 $311 $119 $204 forward $300 $-1 #
edge $-1 $312 -37.570522463699312 $207 -32.934123639992777 $203 $313 forward 7 unknown #
edge $-1 $208 -5.8054002328154972 $312 0 $120 $314 forward 7 unknown #
coedge $-1 $121 $304 $310 $315 forward $196 $-1 #
vertex $-1 $204 $316 #
vertex $-1 $122 $317 #
straight-curve $-1 -88.524559435754099 9.8932182051565114 11.543639301528422 1 0 0 I I #
coedge $-1 $210 $210 $-1 $318 reversed $125 $-1 #
edge $-1 $319 0 $319 6.2831853071796004 $126 $320 forward 7 unknown #
vertex $-1 $129 $321 #
ellipse-curve $-1 -66.420474999885698 14.654328553834716 9.2254398896751528 -0.79863551827123203 0 0.60181501223851219 0.60181501223851219 0 0.79863551827123203 1 I I #
face $-1 $-1 $226 $28 $-1 $322 forward single #
loop $-1 $-1 $323 $130 #
plane-surface $-1 68.167363505966364 0 0 -1 0 0 0 0 1 forward_v I I I I #
coedge $-1 $324 $325 $326 $327 reversed $131 $-1 #
coedge $-1 $328 $133 $135 $224 forward $82 $-1 #
coedge $-1 $133 $328 $324 $329 forward $82 $-1 #
coedge $-1 $326 $136 $133 $221 forward $226 $-1 #
edge $-1 $228 -2.2085074158408009 $330 8.1962347242738556 $220 $331 forward 7 unknown #
coedge $-1 $332 $333 $134 $223 forward $215 $-1 #
edge $-1 $334 -92.041903868218384 $227 -88.956642170424885 $222 $335 forward 7 unknown #
edge $-1 $228 132.18309793824432 $334 136.3347270119327 $135 $336 forward 7 unknown #
coedge $-1 $136 $326 $332 $337 forward $226 $-1 #
loop $-1 $-1 $326 $214 #
vertex $-1 $223 $338 #
vertex $-1 $137 $339 #
straight-curve $-1 39.129037123703029 -0.78535623837572643 11.54363930152843 -1 0 0 I I #
coedge $-1 $230 $230 $-1 $340 reversed $140 $-1 #
edge $-1 $341 0 $341 6.2831853071796004 $141 $342 forward 7 unknown #
vertex $-1 $144 $343 #
ellipse-curve $-1 66.778372485330962 -5.9877273084330547 10.001008452631691 0.74314483375859142 0 0.66913059716165679 0.3345652985808284 0 -0.37157241687929571 1 I I #
face $-1 $-1 $246 $30 $-1 $344 forward single #
loop $-1 $-1 $345 $145 #
plane-surface $-1 68.167363505966364 0 0 -1 0 0 0 0 1 forward_v I I I I #
coedge $-1 $346 $347 $348 $349 reversed $146 $-1 #
coedge $-1 $350 $148 $150 $244 forward $91 $-1 #
coedge $-1 $148 $350 $346 $351 forward $91 $-1 #
coedge $-1 $348 $151 $148 $241 forward $246 $-1 #
edge $-1 $248 -13.679972458291381 $352 -3.2752303181767246 $240 $353 forward 7 unknown #
coedge $-1 $354 $355 $149 $243 forward $235 $-1 #
edge $-1 $356 -92.041903868218384 $247 -88.956642170424885 $242 $357 forward 7 unknown #
edge $-1 $248 132.18309793824432 $356 136.3347270119327 $150 $358 forward 7 unknown #
coedge $-1 $151 $348 $354 $359 forward $246 $-1 #
loop $-1 $-1 $348 $234 #
vertex $-1 $243 $360 #
vertex $-1 $152 $361 #
straight-curve $-1 39.129037123703029 22.157573846525434 11.54363930152843 -1 0 0 I I #
coedge $-1 $250 $250 $-1 $362 reversed $155 $-1 #
edge $-1 $363 0 $363 6.2831853071796004 $156 $364 forward 7 unknown #
vertex $-1 $159 $365 #
ellipse-curve $-1 66.778372485330962 16.955202776468106 10.001008452631691 0.74314483375859142 0 0.66913059716165679 0.3345652985808284 0 -0.37157241687929571 1 I I #
face $-1 $-1 $175 $24 $-1 $366 reversed single #
loop $-1 $-1 $269 $160 #
plane-surface $-1 0 33.440640520655101 0 0 -1 0 0 0 -1 forward_v I I I I #
coedge $-1 $367 $267 $270 $368 forward $161 $-1 #
coedge $-1 $163 $273 $164 $261 reversed $100 $-1 #
edge $-1 $176 -11.543639301528424 $265 11.543639301528424 $173 $369 forward 7 unknown #
coedge $-1 $165 $164 $367 $370 forward $65 $-1 #
edge $-1 $265 -68.167363505966364 $371 68.167363505966364 $258 $372 forward 7 unknown #
coedge $-1 $270 $269 $165 $263 reversed $255 $-1 #
edge $-1 $373 -68.167363505966364 $264 68.167363505966364 $262 $374 forward 7 unknown #
vertex $-1 $167 $375 #
vertex $-1 $259 $376 #
straight-curve $-1 68.167363505966364 0 -11.543639301528424 0 -1 0 I I #
coedge $-1 $257 $377 $168 $268 reversed $161 $-1 #
edge $-1 $271 -33.440640520655101 $274 33.440640520655101 $267 $378 forward 7 unknown #
coedge $-1 $262 $169 $174 $276 forward $255 $-1 #
coedge $-1 $169 $262 $257 $368 reversed $255 $-1 #
vertex $-1 $170 $379 #
straight-curve $-1 0 33.440640520655101 11.543639301528424 -1 0 0 I I #
coedge $-1 $258 $171 $377 $380 forward $100 $-1 #
vertex $-1 $268 $381 #
straight-curve $-1 0 -33.440640520655101 11.543639301528424 1 0 0 I I #
edge $-1 $177 -11.543639301528424 $264 11.543639301528424 $174 $382 forward 7 unknown #
point $-1 68.167363505966364 -33.440640520655101 11.543639301528424 #
point $-1 68.167363505966364 33.440640520655101 11.543639301528424 #
face $-1 $-1 $293 $25 $-1 $383 reversed single #
loop $-1 $-1 $384 $179 #
plane-surface $-1 0 -44.408115988690149 -10.043639301528424 0 1 0 0 0 1 forward_v I I I I #
coedge $-1 $385 $182 $191 $297 reversed $108 $-1 #
coedge $-1 $182 $385 $183 $285 reversed $108 $-1 #
coedge $-1 $184 $183 $386 $387 forward $69 $-1 #
edge $-1 $289 33.440640520655101 $388 44.408115988690149 $283 $389 forward 7 unknown #
coedge $-1 $390 $188 $184 $287 reversed $293 $-1 #
edge $-1 $391 -44.408115988690149 $288 -33.440640520655101 $286 $392 forward 7 unknown #
vertex $-1 $189 $393 #
vertex $-1 $285 $394 #
straight-curve $-1 0 -33.440640520655101 -11.543639301528424 1 0 0 I I #
straight-curve $-1 68.167363505966364 -33.440640520655101 0 0 0 1 I I #
coedge $-1 $188 $390 $190 $296 reversed $293 $-1 #
loop $-1 $-1 $188 $279 #
straight-curve $-1 -68.167363505966364 -33.440640520655101 0 0 0 -1 I I #
coedge $-1 $191 $190 $395 $396 forward $180 $-1 #
edge $-1 $192 -5.4837377340175237 $397 5.4837377340175237 $292 $398 forward 7 unknown #
edge $-1 $399 -5.4837377340175237 $193 5.4837377340175237 $282 $400 forward 7 unknown #
point $-1 -68.167363505966364 -33.440640520655101 -8.5436393015284242 #
point $-1 68.167363505966364 -33.440640520655101 -8.5436393015284242 #
loop $-1 $-1 $203 $195 #
plane-surface $-1 -68.167363505966364 0 0 1 0 0 0 0 -1 forward_v I I I I #
coedge $-1 $303 $198 $200 $307 reversed $116 $-1 #
coedge $-1 $198 $302 $401 $402 reversed $116 $-1 #
coedge $-1 $206 $201 $198 $305 forward $196 $-1 #
edge $-1 $308 -23.850972941949053 $403 -20.357195929787736 $304 $404 forward 7 unknown #
coedge $-1 $200 $199 $311 $405 reversed $73 $-1 #
edge $-1 $406 0 $308 5.8054002328154972 $302 $407 forward 7 unknown #
vertex $-1 $202 $408 #
straight-curve $-1 -64.673586493805033 7.3271642769173546 11.543639301528426 0 1 0 I I #
coedge $-1 $401 $203 $206 $315 reversed $300 $-1 #
coedge $-1 $203 $401 $306 $405 forward $300 $-1 #
vertex $-1 $204 $409 #
straight-curve $-1 -68.167363505966364 9.8932182051565114 44.477762941521199 0 0 1 I I #
straight-curve $-1 -68.167363505966364 9.8932182051565114 6.9072404778218868 -0.60181501223851219 0 -0.79863551827123203 I I #
edge $-1 $403 -19.415438902512907 $207 -9.8932182051565114 $310 $410 forward 7 unknown #
point $-1 -68.167363505966364 9.8932182051565114 11.543639301528424 #
point $-1 -64.673586493805047 9.8932182051565114 11.543639301528424 #
edge $-1 $411 1 $411 0 $210 $-1 forward 7 unknown #
vertex $-1 $211 $412 #
ellipse-curve $-1 -64.855839632124784 14.654328553834716 8.0464026048870618 -0.79863551827123203 0 0.60181501223851219 0.60181501223851219 0 0.79863551827123203 1 I I #
point $-1 -65.81865998764718 14.654328553834716 10.024075407946384 #
plane-surface $-1 0 0 11.543639301528424 0 0 1 1 0 0 forward_v I I I I #
coedge $-1 $333 $332 $325 $413 forward $215 $-1 #
coedge $-1 $325 $217 $219 $329 reversed $131 $-1 #
coedge $-1 $217 $324 $323 $413 reversed $131 $-1 #
coedge $-1 $225 $220 $217 $327 forward $226 $-1 #
edge $-1 $330 26.260344340992532 $414 29.038326382263335 $326 $415 forward 7 unknown #
coedge $-1 $219 $218 $333 $416 reversed $82 $-1 #
edge $-1 $417 -136.3347270119327 $330 -132.18309793824432 $324 $418 forward 7 unknown #
vertex $-1 $221 $419 #
straight-curve $-1 65.389381464695546 -2.9938636542165273 11.543639301528444 0 -1 0 I I #
coedge $-1 $323 $222 $225 $337 reversed $215 $-1 #
coedge $-1 $222 $323 $328 $416 forward $215 $-1 #
vertex $-1 $223 $420 #
straight-curve $-1 68.167363505966364 -0.78535623837572643 100.50028147195331 0 0 1 I I #
straight-curve $-1 -23.058373793399639 -0.78535623837572643 109.77482564454063 0.66913059716165679 0 -0.74314483375859142 I I #
edge $-1 $414 -11.190098378490383 $227 -0.78535623837572643 $332 $421 forward 7 unknown #
point $-1 68.167363505966364 -0.78535623837572643 11.543639301528424 #
point $-1 65.38938146469556 -0.78535623837572643 11.54363930152843 #
edge $-1 $422 1 $422 0 $230 $-1 forward 7 unknown #
vertex $-1 $231 $423 #
ellipse-curve $-1 65.34420070556601 -5.9877273084330547 8.70967441405279 0.74314483375859142 0 0.66913059716165679 0.3345652985808284 0 -0.37157241687929571 1 I I #
point $-1 67.112937783911789 -5.9877273084330547 9.629436035752386 #
plane-surface $-1 0 0 11.543639301528424 0 0 1 1 0 0 forward_v I I I I #
coedge $-1 $355 $354 $347 $424 forward $235 $-1 #
coedge $-1 $347 $237 $239 $351 reversed $146 $-1 #
coedge $-1 $237 $346 $345 $424 reversed $146 $-1 #
coedge $-1 $245 $240 $237 $349 forward $246 $-1 #
edge $-1 $352 26.260344340992532 $425 29.038326382263335 $348 $426 forward 7 unknown #
coedge $-1 $239 $238 $355 $427 reversed $91 $-1 #
edge $-1 $428 -136.3347270119327 $352 -132.18309793824432 $346 $429 forward 7 unknown #
vertex $-1 $241 $430 #
straight-curve $-1 65.389381464695546 8.4776013882340528 11.543639301528444 0 -1 0 I I #
coedge $-1 $345 $242 $245 $359 reversed $235 $-1 #
coedge $-1 $242 $345 $350 $427 forward $235 $-1 #
vertex $-1 $243 $431 #
straight-curve $-1 68.167363505966364 22.157573846525434 100.50028147195331 0 0 1 I I #
straight-curve $-1 -23.058373793399639 22.157573846525434 109.77482564454063 0.66913059716165679 0 -0.74314483375859142 I I #
edge $-1 $425 11.752831706410777 $247 22.157573846525434 $354 $432 forward 7 unknown #
point $-1 68.167363505966364 22.157573846525434 11.543639301528424 #
point $-1 65.38938146469556 22.157573846525434 11.54363930152843 #
edge $-1 $433 1 $433 0 $250 $-1 forward 7 unknown #
vertex $-1 $251 $434 #
ellipse-curve $-1 65.34420070556601 16.955202776468106 8.70967441405279 0.74314483375859142 0 0.66913059716165679 0.3345652985808284 0 -0.37157241687929571 1 I I #
point $-1 67.112937783911789 16.955202776468106 9.629436035752386 #
plane-surface $-1 68.167363505966364 0 0 -1 0 0 0 0 1 forward_v I I I I #
coedge $-1 $377 $257 $260 $370 reversed $161 $-1 #
edge $-1 $271 -11.543639301528424 $373 11.543639301528424 $270 $435 forward 7 unknown #
straight-curve $-1 68.167363505966364 -33.440640520655101 0 0 0 -1 I I #
edge $-1 $371 -33.440640520655101 $373 33.440640520655101 $367 $436 forward 7 unknown #
vertex $-1 $370 $437 #
straight-curve $-1 0 -33.440640520655101 -11.543639301528424 -1 0 0 I I #
vertex $-1 $263 $438 #
straight-curve $-1 0 33.440640520655101 -11.543639301528424 1 0 0 I I #
point $-1 68.167363505966364 33.440640520655101 -11.543639301528424 #
point $-1 68.167363505966364 -33.440640520655101 -11.543639301528424 #
coedge $-1 $267 $367 $273 $380 reversed $161 $-1 #
straight-curve $-1 -68.167363505966364 0 11.543639301528424 0 -1 0 I I #
point $-1 -68.167363505966364 33.440640520655101 11.543639301528424 #
edge $-1 $274 -11.543639301528424 $371 11.543639301528424 $377 $439 forward 7 unknown #
point $-1 -68.167363505966364 -33.440640520655101 11.543639301528424 #
straight-curve $-1 68.167363505966364 33.440640520655101 0 0 0 -1 I I #
plane-surface $-1 -68.167363505966364 0 0 1 0 0 0 0 -1 forward_v I I I I #
coedge $-1 $386 $395 $390 $440 forward $280 $-1 #
coedge $-1 $283 $282 $441 $442 forward $108 $-1 #
coedge $-1 $441 $384 $284 $387 reversed $280 $-1 #
edge $-1 $388 -68.167363505966364 $391 68.167363505966364 $386 $443 forward 7 unknown #
vertex $-1 $442 $444 #
straight-curve $-1 68.167363505966364 0 -11.543639301528424 0 -1 0 I I #
coedge $-1 $292 $286 $384 $440 reversed $293 $-1 #
vertex $-1 $287 $445 #
straight-curve $-1 -68.167363505966364 0 -11.543639301528424 0 1 0 I I #
point $-1 -68.167363505966364 -33.440640520655101 -11.543639301528424 #
point $-1 68.167363505966364 -33.440640520655101 -11.543639301528424 #
coedge $-1 $384 $441 $295 $396 reversed $280 $-1 #
edge $-1 $397 -68.167363505966364 $399 68.167363505966364 $395 $446 forward 7 unknown #
vertex $-1 $296 $447 #
straight-curve $-1 -68.167363505966364 -38.924378254672625 -8.5436393015284242 0 -1 0 I I #
vertex $-1 $297 $448 #
straight-curve $-1 68.167363505966364 -38.924378254672625 -8.5436393015284242 0 1 0 I I #
coedge $-1 $311 $310 $303 $402 forward $300 $-1 #
edge $-1 $403 32.934123639992777 $406 37.570522463699312 $401 $449 forward 7 unknown #
vertex $-1 $315 $450 #
straight-curve $-1 -88.524559435754099 19.415438902512907 11.543639301528422 -1 0 0 I I #
edge $-1 $406 -12.088274625595552 $312 -2.5660539282391568 $311 $451 forward 7 unknown #
vertex $-1 $405 $452 #
straight-curve $-1 -68.167363505966364 19.415438902512907 6.9072404778218868 0.60181501223851219 0 0.79863551827123203 I I #
point $-1 -64.673586493805047 19.415438902512907 11.543639301528424 #
point $-1 -68.167363505966364 9.8932182051565114 6.9072404778218868 #
straight-curve $-1 -68.167363505966364 0 11.543639301528424 0 -1 0 I I #
vertex $-1 $318 $453 #
point $-1 -64.25402461988628 14.654328553834716 8.8450381231582949 #
edge $-1 $414 88.956642170424885 $417 92.041903868218384 $323 $454 forward 7 unknown #
vertex $-1 $337 $455 #
straight-curve $-1 39.129037123703029 -11.190098378490383 11.54363930152843 1 0 0 I I #
edge $-1 $417 -8.1962347242738556 $334 2.2085074158408009 $333 $456 forward 7 unknown #
vertex $-1 $416 $457 #
straight-curve $-1 -23.058373793399639 -11.190098378490383 109.77482564454063 -0.66913059716165679 0 0.74314483375859142 I I #
point $-1 65.38938146469556 -11.190098378490383 11.54363930152843 #
point $-1 68.167363505966364 -0.78535623837572643 8.458377603734931 #
straight-curve $-1 68.167363505966364 0 11.543639301528424 0 1 0 I I #
vertex $-1 $340 $458 #
point $-1 65.678766004146837 -5.9877273084330547 8.3381019971734958 #
edge $-1 $425 88.956642170424885 $428 92.041903868218384 $345 $459 forward 7 unknown #
vertex $-1 $359 $460 #
straight-curve $-1 39.129037123703029 11.752831706410777 11.54363930152843 1 0 0 I I #
edge $-1 $428 3.2752303181767246 $356 13.679972458291381 $355 $461 forward 7 unknown #
vertex $-1 $427 $462 #
straight-curve $-1 -23.058373793399639 11.752831706410777 109.77482564454063 -0.66913059716165679 0 0.74314483375859142 I I #
point $-1 65.38938146469556 11.752831706410777 11.54363930152843 #
point $-1 68.167363505966364 22.157573846525434 8.458377603734931 #
straight-curve $-1 68.167363505966364 0 11.543639301528424 0 1 0 I I #
vertex $-1 $362 $463 #
point $-1 65.678766004146837 16.955202776468106 8.3381019971734958 #
straight-curve $-1 -68.167363505966364 33.440640520655101 0 0 0 -1 I I #
straight-curve $-1 -68.167363505966364 0 -11.543639301528424 0 1 0 I I #
point $-1 -68.167363505966364 -33.440640520655101 -11.543639301528424 #
point $-1 -68.167363505966364 33.440640520655101 -11.543639301528424 #
straight-curve $-1 -68.167363505966364 -33.440640520655101 0 0 0 -1 I I #
edge $-1 $397 -1.5 $391 1.5 $390 $464 forward 7 unknown #
coedge $-1 $395 $386 $385 $442 reversed $280 $-1 #
edge $-1 $399 -1.5 $388 1.5 $385 $465 forward 7 unknown #
straight-curve $-1 0 -44.408115988690149 -11.543639301528424 -1 0 0 I I #
point $-1 68.167363505966364 -44.408115988690149 -11.543639301528424 #
point $-1 -68.167363505966364 -44.408115988690149 -11.543639301528424 #
straight-curve $-1 0 -44.408115988690149 -8.5436393015284242 1 0 0 I I #
point $-1 -68.167363505966364 -44.408115988690149 -8.5436393015284242 #
point $-1 68.167363505966364 -44.408115988690149 -8.5436393015284242 #
straight-curve $-1 -68.167363505966364 19.415438902512907 44.477762941521199 0 0 -1 I I #
point $-1 -68.167363505966364 19.415438902512907 11.543639301528424 #
straight-curve $-1 -68.167363505966364 7.3271642769173546 6.9072404778218841 0 -1 0 I I #
point $-1 -68.167363505966364 19.415438902512907 6.9072404778218868 #
point $-1 -64.057204113853558 14.654328553834716 7.4445875926485501 #
straight-curve $-1 68.167363505966364 -11.190098378490383 100.50028147195331 0 0 -1 I I #
point $-1 68.167363505966364 -11.190098378490383 11.543639301528424 #
straight-curve $-1 68.167363505966364 -2.9938636542165273 8.4583776037349381 0 1 0 I I #
point $-1 68.167363505966364 -11.190098378490383 8.458377603734931 #
point $-1 64.972628288686707 -5.9877273084330547 8.3751091154719628 #
straight-curve $-1 68.167363505966364 11.752831706410777 100.50028147195331 0 0 -1 I I #
point $-1 68.167363505966364 11.752831706410777 11.543639301528424 #
straight-curve $-1 68.167363505966364 8.4776013882340528 8.4583776037349381 0 1 0 I I #
point $-1 68.167363505966364 11.752831706410777 8.458377603734931 #
point $-1 64.972628288686707 16.955202776468106 8.3751091154719628 #
straight-curve $-1 -68.167363505966364 -44.408115988690149 -10.043639301528424 0 0 -1 I I #
straight-curve $-1 68.167363505966364 -44.408115988690149 -10.043639301528424 0 0 -1 I I #
End-of-ACIS-data 