500 0 11 0           
7 Unknown 11 ACIS 5.0 NT 24 Fri Mar 26 18:31:06 1999 
-1 9.9999999999999995e-007 1e-010 
body $-1 $11 $-1 $12 #
body $-1 $13 $-1 $14 #
body $-1 $15 $-1 $16 #
body $-1 $17 $-1 $18 #
body $-1 $19 $-1 $20 #
body $-1 $21 $-1 $22 #
body $-1 $23 $-1 $24 #
body $-1 $25 $-1 $26 #
body $-1 $27 $-1 $28 #
body $-1 $29 $-1 $30 #
body $-1 $31 $-1 $32 #
lump $-1 $-1 $33 $0 #
transform $-1 1 0 0 0 1 0 0 0 1 47.478255561998353 21.298635033934332 6.4591407878569553 1 rotate no_reflect no_shear #
lump $-1 $-1 $34 $1 #
transform $-1 1 0 0 0 1 0 0 0 1 47.478255561998353 21.298635033934332 6.4591407878569553 1 rotate no_reflect no_shear #
lump $-1 $-1 $35 $2 #
transform $-1 1 0 0 0 1 0 0 0 1 47.478255561998353 21.298635033934332 6.4591407878569553 1 rotate no_reflect no_shear #
lump $-1 $-1 $36 $3 #
transform $-1 1 0 0 0 1 0 0 0 1 47.478255561998353 21.298635033934332 6.4591407878569553 1 rotate no_reflect no_shear #
lump $-1 $-1 $37 $4 #
transform $-1 1 0 0 0 1 0 0 0 1 47.478255561998353 21.298635033934332 6.4591407878569553 1 rotate no_reflect no_shear #
lump $-1 $-1 $38 $5 #
transform $-1 1 0 0 0 1 0 0 0 1 47.478255561998353 21.298635033934332 6.4591407878569553 1 rotate no_reflect no_shear #
lump $-1 $-1 $39 $6 #
transform $-1 1 0 0 0 1 0 0 0 1 47.478255561998353 21.298635033934332 6.4591407878569553 1 rotate no_reflect no_shear #
lump $-1 $-1 $40 $7 #
transform $-1 1 0 0 0 1 0 0 0 1 47.478255561998353 21.298635033934332 6.4591407878569553 1 rotate no_reflect no_shear #
lump $-1 $-1 $41 $8 #
transform $-1 1 0 0 0 1 0 0 0 1 47.478255561998353 21.298635033934332 6.4591407878569553 1 rotate no_reflect no_shear #
lump $-1 $-1 $42 $9 #
transform $-1 1 0 0 0 1 0 0 0 1 47.478255561998353 21.298635033934332 6.4591407878569553 1 rotate no_reflect no_shear #
lump $-1 $-1 $43 $10 #
transform $-1 1 0 0 0 1 0 0 0 1 47.478255561998353 21.298635033934332 6.4591407878569553 1 rotate no_reflect no_shear #
shell $-1 $-1 $-1 $44 $-1 $11 #
shell $-1 $-1 $-1 $45 $-1 $13 #
shell $-1 $-1 $-1 $46 $-1 $15 #
shell $-1 $-1 $-1 $47 $-1 $17 #
shell $-1 $-1 $-1 $48 $-1 $19 #
shell $-1 $-1 $-1 $49 $-1 $21 #
shell $-1 $-1 $-1 $50 $-1 $23 #
shell $-1 $-1 $-1 $51 $-1 $25 #
shell $-1 $-1 $-1 $52 $-1 $27 #
shell $-1 $-1 $-1 $53 $-1 $29 #
shell $-1 $-1 $-1 $54 $-1 $31 #
face $-1 $55 $56 $33 $-1 $57 forward single #
face $-1 $58 $59 $34 $-1 $60 reversed single #
face $-1 $61 $62 $35 $-1 $63 reversed single #
face $-1 $64 $65 $36 $-1 $66 reversed single #
face $-1 $67 $68 $37 $-1 $69 forward single #
face $-1 $70 $71 $38 $-1 $72 forward single #
face $-1 $73 $74 $39 $-1 $75 forward single #
face $-1 $76 $77 $40 $-1 $78 reversed single #
face $-1 $79 $80 $41 $-1 $81 forward single #
face $-1 $82 $83 $42 $-1 $84 forward single #
face $-1 $85 $86 $43 $-1 $87 forward single #
face $-1 $88 $89 $33 $-1 $90 reversed single #
loop $-1 $-1 $91 $44 #
plane-surface $-1 0 0 6.4591407878569553 0 0 1 1 0 0 forward_v I I I I #
face $-1 $92 $93 $34 $-1 $94 reversed single #
loop $-1 $-1 $95 $45 #
plane-surface $-1 0 -18.647298388028805 3.3128550090250561 0 0 1 1 0 0 forward_v I I I I #
face $-1 $96 $97 $35 $-1 $98 reversed single #
loop $-1 $-1 $99 $46 #
plane-surface $-1 0 18.647298388028801 3.3128550090250561 0 0 1 1 0 0 forward_v I I I I #
face $-1 $100 $101 $36 $-1 $102 reversed single #
loop $-1 $-1 $103 $47 #
plane-surface $-1 42.791646010380617 10.854663265413237 137.45097438799519 0 -1 0 -0.68199836817093118 0 -0.7313536940579346 forward_v I I I I #
face $-1 $104 $105 $37 $-1 $106 forward single #
loop $-1 $107 $108 $48 #
cone-surface $-1 45.413344778331471 5.9850107834184918 4.4858903313176279 -0.68199836817093118 0 -0.7313536940579346 0.3656768470289673 0 -0.34099918408546559 1 I I 0 1 0.5 forward I I I I #
face $-1 $109 $110 $38 $-1 $111 forward single #
loop $-1 $112 $113 $49 #
cone-surface $-1 45.413344778331471 7.8111304641665207 4.4858903313176279 -0.68199836817093118 0 -0.7313536940579346 0.3656768470289673 0 -0.34099918408546559 1 I I 0 1 0.5 forward I I I I #
face $-1 $114 $115 $39 $-1 $116 forward single #
loop $-1 $117 $118 $50 #
cone-surface $-1 45.413344778331471 9.6372501449145496 4.4858903313176279 -0.68199836817093118 0 -0.7313536940579346 0.3656768470289673 0 -0.34099918408546559 1 I I 0 1 0.5 forward I I I I #
face $-1 $119 $120 $40 $-1 $121 reversed single #
loop $-1 $-1 $122 $51 #
plane-surface $-1 -112.23844119576897 4.7675976629198047 72.69078875422457 0 1 0 -0.68199836817093118 0 0.7313536940579346 forward_v I I I I #
face $-1 $123 $124 $41 $-1 $125 forward single #
loop $-1 $126 $127 $52 #
cone-surface $-1 -45.413344778331485 5.9850107834184918 4.4858903313176191 0.68199836817093118 0 -0.7313536940579346 0.3656768470289673 0 0.34099918408546559 1 I I 0 1 0.5 forward I I I I #
face $-1 $128 $129 $42 $-1 $130 forward single #
loop $-1 $131 $132 $53 #
cone-surface $-1 -45.413344778331485 7.8111304641665207 4.4858903313176191 0.68199836817093118 0 -0.7313536940579346 0.3656768470289673 0 0.34099918408546559 1 I I 0 1 0.5 forward I I I I #
face $-1 $133 $134 $43 $-1 $135 forward single #
loop $-1 $136 $137 $54 #
cone-surface $-1 -45.413344778331485 9.6372501449145496 4.4858903313176191 0.68199836817093118 0 -0.7313536940579346 0.3656768470289673 0 0.34099918408546559 1 I I 0 1 0.5 forward I I I I #
face $-1 $138 $139 $33 $-1 $140 reversed single #
loop $-1 $-1 $141 $55 #
plane-surface $-1 0 0 -6.4591407878569553 0 0 1 1 0 0 forward_v I I I I #
coedge $-1 $142 $143 $144 $145 forward $56 $-1 #
face $-1 $146 $147 $34 $-1 $148 reversed single #
loop $-1 $-1 $149 $58 #
plane-surface $-1 0 -15.99596174212328 4.8859978984410057 0 -1 0 0 0 -1 forward_v I I I I #
coedge $-1 $150 $151 $152 $153 reversed $59 $-1 #
face $-1 $154 $155 $35 $-1 $156 forward single #
loop $-1 $-1 $157 $61 #
plane-surface $-1 0 15.995961742123274 4.8859978984410057 0 1 0 0 0 1 forward_v I I I I #
coedge $-1 $158 $159 $160 $161 reversed $62 $-1 #
face $-1 $162 $163 $36 $-1 $164 reversed single #
loop $-1 $-1 $165 $64 #
plane-surface $-1 -21.968539623390015 7.8111304641665207 68.004179202606835 0.68199836817093118 0 0.7313536940579346 0.7313536940579346 0 -0.68199836817093118 forward_v I I I I #
coedge $-1 $166 $167 $168 $169 reversed $65 $-1 #
face $-1 $-1 $170 $37 $-1 $171 forward single #
loop $-1 $172 $173 $67 #
cone-surface $-1 44.901846002203271 5.9850107834184918 3.9373750607741771 -0.68199836817093118 0 -0.7313536940579346 0.18283842351448365 0 -0.17049959204273279 1 I I -0.70710678118654746 0.70710678118654746 0.25 forward I I I I #
loop $-1 $-1 $174 $48 #
coedge $-1 $108 $108 $175 $176 reversed $68 $-1 #
face $-1 $-1 $177 $38 $-1 $178 forward single #
loop $-1 $179 $180 $70 #
cone-surface $-1 44.901846002203271 7.8111304641665207 3.9373750607741771 -0.68199836817093118 0 -0.7313536940579346 0.18283842351448365 0 -0.17049959204273279 1 I I -0.70710678118654746 0.70710678118654746 0.25 forward I I I I #
loop $-1 $-1 $181 $49 #
coedge $-1 $113 $113 $182 $183 reversed $71 $-1 #
face $-1 $-1 $184 $39 $-1 $185 forward single #
loop $-1 $186 $187 $73 #
cone-surface $-1 44.901846002203271 9.6372501449145496 3.9373750607741771 -0.68199836817093118 0 -0.7313536940579346 0.18283842351448365 0 -0.17049959204273279 1 I I -0.70710678118654746 0.70710678118654746 0.25 forward I I I I #
loop $-1 $-1 $188 $50 #
coedge $-1 $118 $118 $189 $190 reversed $74 $-1 #
face $-1 $191 $192 $40 $-1 $193 reversed single #
loop $-1 $-1 $194 $76 #
plane-surface $-1 -47.478255561998338 7.8111304641665207 3.2439935688362169 -0.68199836817093118 0 0.7313536940579346 0.7313536940579346 0 0.68199836817093118 forward_v I I I I #
coedge $-1 $195 $196 $197 $198 reversed $77 $-1 #
face $-1 $-1 $199 $41 $-1 $200 forward single #
loop $-1 $201 $202 $79 #
cone-surface $-1 -44.901846002203285 5.9850107834184918 3.9373750607741682 0.68199836817093118 0 -0.7313536940579346 0.18283842351448365 0 0.17049959204273279 1 I I -0.70710678118654746 0.70710678118654746 0.25 forward I I I I #
loop $-1 $-1 $203 $52 #
coedge $-1 $127 $127 $204 $205 reversed $80 $-1 #
face $-1 $-1 $206 $42 $-1 $207 forward single #
loop $-1 $208 $209 $82 #
cone-surface $-1 -44.901846002203285 7.8111304641665207 3.9373750607741682 0.68199836817093118 0 -0.7313536940579346 0.18283842351448365 0 0.17049959204273279 1 I I -0.70710678118654746 0.70710678118654746 0.25 forward I I I I #
loop $-1 $-1 $210 $53 #
coedge $-1 $132 $132 $211 $212 reversed $83 $-1 #
face $-1 $-1 $213 $43 $-1 $214 forward single #
loop $-1 $215 $216 $85 #
cone-surface $-1 -44.901846002203285 9.6372501449145496 3.9373750607741682 0.68199836817093118 0 -0.7313536940579346 0.18283842351448365 0 0.17049959204273279 1 I I -0.70710678118654746 0.70710678118654746 0.25 forward I I I I #
loop $-1 $-1 $217 $54 #
coedge $-1 $137 $137 $218 $219 reversed $86 $-1 #
face $-1 $220 $221 $33 $-1 $222 reversed single #
loop $-1 $-1 $223 $88 #
plane-surface $-1 0 -21.298635033934332 0 0 1 0 0 0 1 forward_v I I I I #
coedge $-1 $224 $225 $226 $227 forward $89 $-1 #
coedge $-1 $228 $91 $229 $230 forward $56 $-1 #
coedge $-1 $91 $228 $231 $232 forward $56 $-1 #
coedge $-1 $233 $234 $91 $145 reversed $235 $-1 #
edge $-1 $236 -21.298635033934332 $237 21.298635033934332 $144 $238 forward 7 unknown #
face $-1 $239 $240 $34 $-1 $241 reversed single #
loop $-1 $-1 $242 $92 #
plane-surface $-1 -47.478255561998353 0 0 1 0 0 0 0 -1 forward_v I I I I #
coedge $-1 $243 $244 $245 $246 reversed $93 $-1 #
coedge $-1 $247 $95 $248 $249 reversed $59 $-1 #
coedge $-1 $95 $247 $243 $250 forward $59 $-1 #
coedge $-1 $245 $251 $95 $153 forward $252 $-1 #
edge $-1 $253 -11.974985839919929 $254 -6.6723125481088772 $152 $255 forward 7 unknown #
face $-1 $256 $257 $35 $-1 $258 reversed single #
loop $-1 $-1 $259 $96 #
plane-surface $-1 0 0 6.4591407878569553 0 0 1 1 0 0 forward_v I I I I #
coedge $-1 $260 $261 $262 $263 reversed $97 $-1 #
coedge $-1 $264 $99 $260 $265 forward $62 $-1 #
coedge $-1 $99 $264 $266 $267 reversed $62 $-1 #
coedge $-1 $268 $269 $99 $161 forward $257 $-1 #
edge $-1 $270 6.6723125481088736 $271 11.974985839919928 $160 $272 forward 7 unknown #
face $-1 $273 $274 $36 $-1 $275 forward single #
loop $-1 $-1 $276 $100 #
plane-surface $-1 42.791646010380617 4.7675976629198047 137.45097438799519 0 1 0 0.68199836817093118 0 0.7313536940579346 forward_v I I I I #
coedge $-1 $277 $278 $279 $280 reversed $101 $-1 #
coedge $-1 $167 $103 $281 $282 reversed $65 $-1 #
coedge $-1 $103 $166 $277 $283 reversed $65 $-1 #
coedge $-1 $279 $284 $103 $169 forward $274 $-1 #
edge $-1 $285 -26.082432556808044 $286 -22.634609357645218 $168 $287 forward 7 unknown #
loop $-1 $-1 $175 $104 #
plane-surface $-1 -21.968539623390015 7.8111304641665207 68.004179202606835 0.68199836817093118 0 0.7313536940579346 0.7313536940579346 0 -0.68199836817093118 forward_v I I I I #
loop $-1 $-1 $288 $67 #
coedge $-1 $173 $173 $174 $289 reversed $105 $-1 #
coedge $-1 $174 $174 $173 $289 forward $107 $-1 #
coedge $-1 $175 $175 $108 $176 forward $170 $-1 #
edge $-1 $290 0 $290 6.2831853071796004 $175 $291 forward 7 unknown #
loop $-1 $-1 $182 $109 #
plane-surface $-1 -21.968539623390015 7.8111304641665207 68.004179202606835 0.68199836817093118 0 0.7313536940579346 0.7313536940579346 0 -0.68199836817093118 forward_v I I I I #
loop $-1 $-1 $292 $70 #
coedge $-1 $180 $180 $181 $293 reversed $110 $-1 #
coedge $-1 $181 $181 $180 $293 forward $112 $-1 #
coedge $-1 $182 $182 $113 $183 forward $177 $-1 #
edge $-1 $294 0 $294 6.2831853071796004 $182 $295 forward 7 unknown #
loop $-1 $-1 $189 $114 #
plane-surface $-1 -21.968539623390015 7.8111304641665207 68.004179202606835 0.68199836817093118 0 0.7313536940579346 0.7313536940579346 0 -0.68199836817093118 forward_v I I I I #
loop $-1 $-1 $296 $73 #
coedge $-1 $187 $187 $188 $297 reversed $115 $-1 #
coedge $-1 $188 $188 $187 $297 forward $117 $-1 #
coedge $-1 $189 $189 $118 $190 forward $184 $-1 #
edge $-1 $298 0 $298 6.2831853071796004 $189 $299 forward 7 unknown #
face $-1 $300 $301 $40 $-1 $302 reversed single #
loop $-1 $-1 $303 $119 #
plane-surface $-1 -112.23844119576897 10.854663265413237 72.69078875422457 0 -1 0 0.68199836817093118 0 -0.7313536940579346 forward_v I I I I #
coedge $-1 $304 $305 $306 $307 reversed $120 $-1 #
coedge $-1 $196 $122 $308 $309 reversed $77 $-1 #
coedge $-1 $122 $195 $304 $310 reversed $77 $-1 #
coedge $-1 $306 $311 $122 $198 forward $312 $-1 #
edge $-1 $313 8.6409650358861327 $314 12.088788235048952 $197 $315 forward 7 unknown #
loop $-1 $-1 $204 $123 #
plane-surface $-1 -47.478255561998338 7.8111304641665207 3.2439935688362169 -0.68199836817093118 0 0.7313536940579346 0.7313536940579346 0 0.68199836817093118 forward_v I I I I #
loop $-1 $-1 $316 $79 #
coedge $-1 $202 $202 $203 $317 reversed $124 $-1 #
coedge $-1 $203 $203 $202 $317 forward $126 $-1 #
coedge $-1 $204 $204 $127 $205 forward $199 $-1 #
edge $-1 $318 0 $318 6.2831853071796004 $204 $319 forward 7 unknown #
loop $-1 $-1 $211 $128 #
plane-surface $-1 -47.478255561998338 7.8111304641665207 3.2439935688362169 -0.68199836817093118 0 0.7313536940579346 0.7313536940579346 0 0.68199836817093118 forward_v I I I I #
loop $-1 $-1 $320 $82 #
coedge $-1 $209 $209 $210 $321 reversed $129 $-1 #
coedge $-1 $210 $210 $209 $321 forward $131 $-1 #
coedge $-1 $211 $211 $132 $212 forward $206 $-1 #
edge $-1 $322 0 $322 6.2831853071796004 $211 $323 forward 7 unknown #
loop $-1 $-1 $218 $133 #
plane-surface $-1 -47.478255561998338 7.8111304641665207 3.2439935688362169 -0.68199836817093118 0 0.7313536940579346 0.7313536940579346 0 0.68199836817093118 forward_v I I I I #
loop $-1 $-1 $324 $85 #
coedge $-1 $216 $216 $217 $325 reversed $134 $-1 #
coedge $-1 $217 $217 $216 $325 forward $136 $-1 #
coedge $-1 $218 $218 $137 $219 forward $213 $-1 #
edge $-1 $326 0 $326 6.2831853071796004 $218 $327 forward 7 unknown #
face $-1 $328 $329 $33 $-1 $330 reversed single #
loop $-1 $-1 $331 $138 #
plane-surface $-1 -47.478255561998353 0 0 1 0 0 0 0 -1 forward_v I I I I #
coedge $-1 $332 $231 $333 $334 forward $139 $-1 #
coedge $-1 $335 $141 $332 $336 forward $89 $-1 #
coedge $-1 $141 $335 $337 $338 forward $89 $-1 #
coedge $-1 $234 $233 $141 $227 reversed $235 $-1 #
edge $-1 $339 -21.298635033934332 $340 21.298635033934332 $226 $341 forward 7 unknown #
coedge $-1 $143 $142 $342 $343 forward $56 $-1 #
coedge $-1 $344 $345 $142 $230 reversed $329 $-1 #
edge $-1 $237 -47.478255561998353 $346 47.478255561998353 $229 $347 forward 7 unknown #
coedge $-1 $223 $348 $143 $232 reversed $139 $-1 #
edge $-1 $349 -47.478255561998353 $236 47.478255561998353 $231 $350 forward 7 unknown #
coedge $-1 $226 $144 $348 $351 forward $235 $-1 #
coedge $-1 $144 $226 $344 $352 reversed $235 $-1 #
loop $-1 $-1 $233 $328 #
vertex $-1 $145 $353 #
vertex $-1 $145 $354 #
straight-curve $-1 47.478255561998353 0 6.4591407878569553 0 1 0 I I #
face $-1 $355 $356 $34 $-1 $357 forward single #
loop $-1 $-1 $248 $146 #
plane-surface $-1 0 -21.298635033934332 0 0 1 0 0 0 1 forward_v I I I I #
coedge $-1 $358 $359 $360 $361 forward $147 $-1 #
coedge $-1 $360 $149 $151 $250 reversed $93 $-1 #
coedge $-1 $149 $360 $362 $363 reversed $93 $-1 #
coedge $-1 $364 $152 $149 $246 forward $252 $-1 #
edge $-1 $254 0.86985605980455327 $365 4.016141838636452 $245 $366 forward 7 unknown #
coedge $-1 $151 $150 $358 $367 reversed $59 $-1 #
coedge $-1 $368 $369 $150 $249 forward $240 $-1 #
edge $-1 $370 -47.478255561998353 $253 47.478255561998353 $248 $371 forward 7 unknown #
edge $-1 $372 -47.478255561998353 $254 47.478255561998353 $243 $373 forward 7 unknown #
coedge $-1 $152 $364 $368 $374 forward $252 $-1 #
loop $-1 $-1 $245 $355 #
vertex $-1 $249 $375 #
vertex $-1 $153 $376 #
straight-curve $-1 47.478255561998353 -9.3236491940144024 3.3128550090250561 0 1 0 I I #
face $-1 $377 $378 $35 $-1 $379 reversed single #
loop $-1 $-1 $269 $154 #
plane-surface $-1 47.478255561998353 0 0 -1 0 0 0 0 1 forward_v I I I I #
coedge $-1 $380 $381 $261 $382 forward $155 $-1 #
coedge $-1 $383 $157 $158 $265 reversed $97 $-1 #
coedge $-1 $157 $383 $259 $382 reversed $97 $-1 #
coedge $-1 $384 $385 $157 $263 forward $378 $-1 #
edge $-1 $386 0.86985605980455327 $387 4.016141838636452 $262 $388 forward 7 unknown #
coedge $-1 $159 $158 $385 $389 reversed $62 $-1 #
edge $-1 $270 -47.478255561998353 $386 47.478255561998353 $260 $390 forward 7 unknown #
coedge $-1 $391 $392 $159 $267 forward $393 $-1 #
edge $-1 $271 -47.478255561998353 $394 47.478255561998353 $266 $395 forward 7 unknown #
coedge $-1 $396 $160 $392 $397 reversed $257 $-1 #
coedge $-1 $160 $396 $383 $398 forward $257 $-1 #
vertex $-1 $161 $399 #
vertex $-1 $267 $400 #
straight-curve $-1 47.478255561998353 9.3236491940144006 3.3128550090250561 0 1 0 I I #
face $-1 $-1 $401 $36 $-1 $402 reversed single #
loop $-1 $-1 $168 $162 #
plane-surface $-1 0 0 6.4591407878569553 0 0 1 1 0 0 forward_v I I I I #
coedge $-1 $403 $404 $405 $406 reversed $163 $-1 #
coedge $-1 $407 $165 $167 $283 forward $101 $-1 #
coedge $-1 $165 $407 $403 $408 forward $101 $-1 #
coedge $-1 $405 $168 $165 $280 forward $274 $-1 #
edge $-1 $286 -6.9490980333299763 $409 -0.86203243083654435 $279 $410 forward 7 unknown #
coedge $-1 $411 $412 $166 $282 forward $401 $-1 #
edge $-1 $413 -65.481493625161406 $285 -62.266346406140642 $281 $414 forward 7 unknown #
edge $-1 $286 90.242207734028881 $413 94.956511123996734 $167 $415 forward 7 unknown #
coedge $-1 $168 $405 $411 $416 forward $274 $-1 #
vertex $-1 $282 $417 #
vertex $-1 $169 $418 #
straight-curve $-1 21.395823005190309 10.854663265413237 6.4591407878569527 -1 0 0 I I #
coedge $-1 $288 $288 $-1 $419 reversed $172 $-1 #
edge $-1 $420 0 $420 6.2831853071796004 $173 $421 forward 7 unknown #
vertex $-1 $176 $422 #
ellipse-curve $-1 45.754343962416925 5.9850107834184918 4.8515671783465795 0.68199836817093118 0 0.7313536940579346 0.3656768470289673 0 -0.34099918408546559 1 I I #
coedge $-1 $292 $292 $-1 $423 reversed $179 $-1 #
edge $-1 $424 0 $424 6.2831853071796004 $180 $425 forward 7 unknown #
vertex $-1 $183 $426 #
ellipse-curve $-1 45.754343962416925 7.8111304641665207 4.8515671783465795 0.68199836817093118 0 0.7313536940579346 0.3656768470289673 0 -0.34099918408546559 1 I I #
coedge $-1 $296 $296 $-1 $427 reversed $186 $-1 #
edge $-1 $428 0 $428 6.2831853071796004 $187 $429 forward 7 unknown #
vertex $-1 $190 $430 #
ellipse-curve $-1 45.754343962416925 9.6372501449145496 4.8515671783465795 0.68199836817093118 0 0.7313536940579346 0.3656768470289673 0 -0.34099918408546559 1 I I #
face $-1 $-1 $312 $40 $-1 $431 forward single #
loop $-1 $-1 $432 $191 #
plane-surface $-1 -47.478255561998353 0 0 1 0 0 0 0 -1 forward_v I I I I #
coedge $-1 $433 $434 $435 $436 reversed $192 $-1 #
coedge $-1 $437 $194 $196 $310 forward $120 $-1 #
coedge $-1 $194 $437 $433 $438 forward $120 $-1 #
coedge $-1 $435 $197 $194 $307 forward $312 $-1 #
edge $-1 $314 0.86203243083654435 $439 6.9490980333299763 $306 $440 forward 7 unknown #
coedge $-1 $441 $442 $195 $309 forward $301 $-1 #
edge $-1 $443 -33.101400808276082 $313 -29.886253589255329 $308 $444 forward 7 unknown #
edge $-1 $314 -4.7143033899678146 $443 1.9479204584885432e-014 $196 $445 forward 7 unknown #
coedge $-1 $197 $435 $441 $446 forward $312 $-1 #
loop $-1 $-1 $435 $300 #
vertex $-1 $309 $447 #
vertex $-1 $198 $448 #
straight-curve $-1 -56.119220597884485 4.7675976629198047 6.4591407878569527 1 0 0 I I #
coedge $-1 $316 $316 $-1 $449 reversed $201 $-1 #
edge $-1 $450 0 $450 6.2831853071796004 $202 $451 forward 7 unknown #
vertex $-1 $205 $452 #
ellipse-curve $-1 -45.754343962416947 5.9850107834184918 4.8515671783465786 -0.68199836817093118 0 0.7313536940579346 0.3656768470289673 0 0.34099918408546559 1 I I #
coedge $-1 $320 $320 $-1 $453 reversed $208 $-1 #
edge $-1 $454 0 $454 6.2831853071796004 $209 $455 forward 7 unknown #
vertex $-1 $212 $456 #
ellipse-curve $-1 -45.754343962416947 7.8111304641665207 4.8515671783465786 -0.68199836817093118 0 0.7313536940579346 0.3656768470289673 0 0.34099918408546559 1 I I #
coedge $-1 $324 $324 $-1 $457 reversed $215 $-1 #
edge $-1 $458 0 $458 6.2831853071796004 $216 $459 forward 7 unknown #
vertex $-1 $219 $460 #
ellipse-curve $-1 -45.754343962416947 9.6372501449145496 4.8515671783465786 -0.68199836817093118 0 0.7313536940579346 0.3656768470289673 0 0.34099918408546559 1 I I #
face $-1 $-1 $235 $33 $-1 $461 reversed single #
loop $-1 $-1 $344 $220 #
plane-surface $-1 0 21.298635033934332 0 0 -1 0 0 0 -1 forward_v I I I I #
coedge $-1 $462 $342 $345 $463 forward $221 $-1 #
coedge $-1 $348 $223 $224 $336 reversed $139 $-1 #
coedge $-1 $342 $462 $223 $334 reversed $221 $-1 #
edge $-1 $349 -6.4591407878569553 $464 6.4591407878569553 $333 $465 forward 7 unknown #
coedge $-1 $225 $224 $462 $466 forward $89 $-1 #
edge $-1 $340 -47.478255561998353 $464 47.478255561998353 $332 $467 forward 7 unknown #
coedge $-1 $345 $344 $225 $338 reversed $329 $-1 #
edge $-1 $468 -47.478255561998353 $339 47.478255561998353 $337 $469 forward 7 unknown #
vertex $-1 $227 $470 #
vertex $-1 $351 $471 #
straight-curve $-1 47.478255561998353 0 -6.4591407878569553 0 -1 0 I I #
coedge $-1 $331 $333 $228 $343 reversed $221 $-1 #
edge $-1 $346 -21.298635033934332 $349 21.298635033934332 $342 $472 forward 7 unknown #
coedge $-1 $337 $229 $234 $352 forward $329 $-1 #
coedge $-1 $229 $337 $331 $463 reversed $329 $-1 #
vertex $-1 $230 $473 #
straight-curve $-1 0 21.298635033934332 6.4591407878569553 -1 0 0 I I #
coedge $-1 $231 $332 $233 $351 reversed $139 $-1 #
vertex $-1 $343 $474 #
straight-curve $-1 0 -21.298635033934332 6.4591407878569553 1 0 0 I I #
edge $-1 $236 -6.4591407878569553 $340 6.4591407878569553 $233 $475 forward 7 unknown #
edge $-1 $237 -6.4591407878569553 $339 6.4591407878569553 $234 $476 forward 7 unknown #
point $-1 47.478255561998353 -21.298635033934332 6.4591407878569553 #
point $-1 47.478255561998353 21.298635033934332 6.4591407878569553 #
face $-1 $-1 $252 $34 $-1 $477 reversed single #
loop $-1 $-1 $362 $239 #
plane-surface $-1 0 0 6.4591407878569553 0 0 1 1 0 0 forward_v I I I I #
coedge $-1 $478 $242 $247 $367 forward $147 $-1 #
coedge $-1 $242 $478 $479 $480 reversed $147 $-1 #
coedge $-1 $244 $243 $242 $361 reversed $93 $-1 #
edge $-1 $481 -4.016141838636452 $372 -0.86985605980455327 $242 $482 forward 7 unknown #
coedge $-1 $479 $483 $244 $363 forward $356 $-1 #
edge $-1 $365 -47.478255561998353 $481 47.478255561998353 $362 $484 forward 7 unknown #
coedge $-1 $251 $245 $483 $485 reversed $252 $-1 #
vertex $-1 $246 $486 #
straight-curve $-1 47.478255561998353 -15.99596174212328 2.4429989492205029 0 0 1 I I #
edge $-1 $372 6.6723125481088772 $370 11.974985839919929 $358 $487 forward 7 unknown #
coedge $-1 $488 $248 $251 $374 reversed $240 $-1 #
coedge $-1 $248 $488 $478 $489 forward $240 $-1 #
vertex $-1 $249 $490 #
straight-curve $-1 0 -21.298635033934332 3.3128550090250561 1 0 0 I I #
vertex $-1 $367 $491 #
straight-curve $-1 0 -15.99596174212328 3.3128550090250561 1 0 0 I I #
edge $-1 $492 -6.4591407878569553 $253 -3.3128550090250561 $251 $493 forward 7 unknown #
point $-1 47.478255561998353 -21.298635033934332 3.3128550090250561 #
point $-1 47.478255561998353 -15.99596174212328 3.3128550090250561 #
face $-1 $-1 $393 $35 $-1 $494 reversed single #
loop $-1 $-1 $262 $256 #
plane-surface $-1 -47.478255561998353 0 0 1 0 0 0 0 -1 forward_v I I I I #
coedge $-1 $495 $259 $396 $496 forward $155 $-1 #
coedge $-1 $259 $495 $384 $497 forward $155 $-1 #
edge $-1 $387 -47.478255561998353 $498 47.478255561998353 $259 $499 forward 7 unknown #
coedge $-1 $261 $260 $269 $398 reversed $97 $-1 #
coedge $-1 $500 $262 $381 $497 reversed $378 $-1 #
coedge $-1 $262 $500 $264 $389 forward $378 $-1 #
vertex $-1 $389 $501 #
vertex $-1 $263 $502 #
straight-curve $-1 -47.478255561998353 15.995961742123274 2.4429989492205029 0 0 1 I I #
edge $-1 $394 -11.974985839919928 $386 -6.6723125481088736 $385 $503 forward 7 unknown #
straight-curve $-1 0 15.995961742123274 3.3128550090250561 -1 0 0 I I #
coedge $-1 $504 $266 $500 $505 reversed $393 $-1 #
coedge $-1 $266 $504 $268 $397 forward $393 $-1 #
loop $-1 $-1 $266 $377 #
vertex $-1 $267 $506 #
straight-curve $-1 0 21.298635033934332 3.3128550090250561 -1 0 0 I I #
coedge $-1 $269 $268 $380 $496 reversed $257 $-1 #
edge $-1 $507 -6.4591407878569553 $271 -3.3128550090250561 $268 $508 forward 7 unknown #
edge $-1 $498 -4.016141838636452 $270 -0.86985605980455327 $269 $509 forward 7 unknown #
point $-1 47.478255561998353 15.995961742123274 3.3128550090250561 #
point $-1 47.478255561998353 21.298635033934328 3.3128550090250561 #
loop $-1 $-1 $281 $273 #
plane-surface $-1 47.478255561998353 0 0 -1 0 0 0 0 1 forward_v I I I I #
coedge $-1 $404 $276 $278 $408 reversed $163 $-1 #
coedge $-1 $276 $403 $510 $511 reversed $163 $-1 #
coedge $-1 $284 $279 $276 $406 forward $274 $-1 #
edge $-1 $409 22.634609357645218 $512 26.082432556808044 $405 $513 forward 7 unknown #
coedge $-1 $278 $277 $412 $514 reversed $101 $-1 #
edge $-1 $515 -94.956511123996734 $409 -90.242207734028881 $403 $516 forward 7 unknown #
vertex $-1 $280 $517 #
straight-curve $-1 44.030432362835526 3.9055652320832603 6.4591407878569527 0 -1 0 I I #
coedge $-1 $510 $281 $284 $416 reversed $401 $-1 #
coedge $-1 $281 $510 $407 $514 forward $401 $-1 #
vertex $-1 $282 $518 #
straight-curve $-1 47.478255561998353 10.854663265413237 68.725487193997594 0 0 1 I I #
straight-curve $-1 -21.968539623390015 10.854663265413237 68.004179202606835 0.7313536940579346 0 -0.68199836817093118 I I #
edge $-1 $512 4.7675976629198047 $285 10.854663265413237 $411 $519 forward 7 unknown #
point $-1 47.478255561998353 10.854663265413237 6.4591407878569553 #
point $-1 44.030432362835526 10.854663265413237 6.4591407878569527 #
edge $-1 $520 1 $520 0 $288 $-1 forward 7 unknown #
vertex $-1 $289 $521 #
ellipse-curve $-1 45.072345594246002 5.9850107834184918 4.1202134842886604 0.68199836817093118 0 0.7313536940579346 0.3656768470289673 0 -0.34099918408546559 1 I I #
point $-1 46.120020809445904 5.9850107834184918 4.5105679942611294 #
edge $-1 $522 1 $522 0 $292 $-1 forward 7 unknown #
vertex $-1 $293 $523 #
ellipse-curve $-1 45.072345594246002 7.8111304641665207 4.1202134842886604 0.68199836817093118 0 0.7313536940579346 0.3656768470289673 0 -0.34099918408546559 1 I I #
point $-1 46.120020809445904 7.8111304641665207 4.5105679942611294 #
edge $-1 $524 1 $524 0 $296 $-1 forward 7 unknown #
vertex $-1 $297 $525 #
ellipse-curve $-1 45.072345594246002 9.6372501449145496 4.1202134842886604 0.68199836817093118 0 0.7313536940579346 0.3656768470289673 0 -0.34099918408546559 1 I I #
point $-1 46.120020809445904 9.6372501449145496 4.5105679942611294 #
plane-surface $-1 0 0 6.4591407878569553 0 0 1 1 0 0 forward_v I I I I #
coedge $-1 $442 $441 $434 $526 forward $301 $-1 #
coedge $-1 $434 $303 $305 $438 reversed $192 $-1 #
coedge $-1 $303 $433 $432 $526 reversed $192 $-1 #
coedge $-1 $311 $306 $303 $436 forward $312 $-1 #
edge $-1 $439 -12.088788235048952 $527 -8.6409650358861327 $435 $528 forward 7 unknown #
coedge $-1 $305 $304 $442 $529 reversed $120 $-1 #
edge $-1 $530 -1.9479204584885432e-014 $439 4.7143033899678146 $433 $531 forward 7 unknown #
vertex $-1 $307 $532 #
straight-curve $-1 -44.030432362835526 3.9055652320832603 6.459140787856958 0 1 0 I I #
coedge $-1 $432 $308 $311 $446 reversed $301 $-1 #
coedge $-1 $308 $432 $437 $529 forward $301 $-1 #
vertex $-1 $309 $533 #
straight-curve $-1 -47.478255561998353 4.7675976629198047 36.345394377112285 0 0 1 I I #
straight-curve $-1 -47.478255561998338 4.7675976629198047 3.2439935688362169 -0.7313536940579346 0 -0.68199836817093118 I I #
edge $-1 $527 -10.854663265413237 $313 -4.7675976629198047 $441 $534 forward 7 unknown #
point $-1 -47.478255561998353 4.7675976629198047 6.4591407878569553 #
point $-1 -44.030432362835533 4.7675976629198047 6.4591407878569553 #
edge $-1 $535 1 $535 0 $316 $-1 forward 7 unknown #
vertex $-1 $317 $536 #
ellipse-curve $-1 -45.072345594246016 5.9850107834184918 4.1202134842886515 -0.68199836817093118 0 0.7313536940579346 0.3656768470289673 0 0.34099918408546559 1 I I #
point $-1 -45.388667115387982 5.9850107834184918 5.1925663624320517 #
edge $-1 $537 1 $537 0 $320 $-1 forward 7 unknown #
vertex $-1 $321 $538 #
ellipse-curve $-1 -45.072345594246016 7.8111304641665207 4.1202134842886515 -0.68199836817093118 0 0.7313536940579346 0.3656768470289673 0 0.34099918408546559 1 I I #
point $-1 -45.388667115387982 7.8111304641665207 5.1925663624320517 #
edge $-1 $539 1 $539 0 $324 $-1 forward 7 unknown #
vertex $-1 $325 $540 #
ellipse-curve $-1 -45.072345594246016 9.6372501449145496 4.1202134842886515 -0.68199836817093118 0 0.7313536940579346 0.3656768470289673 0 0.34099918408546559 1 I I #
point $-1 -45.388667115387982 9.6372501449145496 5.1925663624320517 #
plane-surface $-1 47.478255561998353 0 0 -1 0 0 0 0 1 forward_v I I I I #
coedge $-1 $333 $331 $335 $466 reversed $221 $-1 #
edge $-1 $346 -6.4591407878569553 $468 6.4591407878569553 $345 $541 forward 7 unknown #
vertex $-1 $466 $542 #
straight-curve $-1 -47.478255561998353 -21.298635033934332 0 0 0 -1 I I #
edge $-1 $464 -21.298635033934332 $468 21.298635033934332 $462 $543 forward 7 unknown #
straight-curve $-1 0 -21.298635033934332 -6.4591407878569553 -1 0 0 I I #
vertex $-1 $338 $544 #
straight-curve $-1 0 21.298635033934332 -6.4591407878569553 1 0 0 I I #
point $-1 47.478255561998353 21.298635033934332 -6.4591407878569553 #
point $-1 47.478255561998353 -21.298635033934332 -6.4591407878569553 #
straight-curve $-1 -47.478255561998353 0 6.4591407878569553 0 -1 0 I I #
point $-1 -47.478255561998353 21.298635033934332 6.4591407878569553 #
point $-1 -47.478255561998353 -21.298635033934332 6.4591407878569553 #
straight-curve $-1 47.478255561998353 -21.298635033934332 0 0 0 -1 I I #
straight-curve $-1 47.478255561998353 21.298635033934332 0 0 0 -1 I I #
plane-surface $-1 47.478255561998353 0 0 -1 0 0 0 0 1 forward_v I I I I #
coedge $-1 $359 $358 $369 $489 reversed $147 $-1 #
coedge $-1 $545 $362 $359 $480 forward $356 $-1 #
edge $-1 $481 15.99596174212328 $546 21.298635033934332 $359 $547 forward 7 unknown #
vertex $-1 $480 $548 #
straight-curve $-1 -47.478255561998353 -15.99596174212328 2.4429989492205029 0 0 -1 I I #
coedge $-1 $362 $545 $364 $485 forward $356 $-1 #
straight-curve $-1 0 -15.99596174212328 6.4591407878569553 -1 0 0 I I #
edge $-1 $492 -21.298635033934332 $365 -15.99596174212328 $364 $549 forward 7 unknown #
point $-1 47.478255561998353 -15.99596174212328 6.4591407878569553 #
straight-curve $-1 -47.478255561998353 -9.3236491940144024 3.3128550090250561 0 -1 0 I I #
coedge $-1 $369 $368 $545 $550 reversed $240 $-1 #
edge $-1 $546 -6.4591407878569553 $370 -3.3128550090250561 $478 $551 forward 7 unknown #
point $-1 -47.478255561998353 -21.298635033934332 3.3128550090250561 #
point $-1 -47.478255561998353 -15.99596174212328 3.3128550090250561 #
vertex $-1 $485 $552 #
straight-curve $-1 47.478255561998353 -21.298635033934332 0 0 0 -1 I I #
plane-surface $-1 0 21.298635033934332 0 0 -1 0 0 0 -1 forward_v I I I I #
coedge $-1 $381 $380 $504 $553 forward $155 $-1 #
edge $-1 $498 15.995961742123274 $507 21.298635033934332 $396 $554 forward 7 unknown #
edge $-1 $555 -21.298635033934332 $387 -15.995961742123274 $384 $556 forward 7 unknown #
vertex $-1 $496 $557 #
straight-curve $-1 0 15.995961742123274 6.4591407878569553 1 0 0 I I #
coedge $-1 $385 $384 $391 $505 forward $378 $-1 #
point $-1 -47.478255561998353 15.995961742123274 3.3128550090250561 #
point $-1 -47.478255561998353 15.995961742123274 6.4591407878569553 #
straight-curve $-1 -47.478255561998353 9.3236491940144006 3.3128550090250561 0 -1 0 I I #
coedge $-1 $392 $391 $495 $553 reversed $393 $-1 #
edge $-1 $555 -6.4591407878569553 $394 -3.3128550090250561 $391 $558 forward 7 unknown #
point $-1 -47.478255561998353 21.298635033934328 3.3128550090250561 #
vertex $-1 $496 $559 #
straight-curve $-1 47.478255561998353 21.298635033934332 0 0 0 -1 I I #
straight-curve $-1 47.478255561998353 15.995961742123274 2.4429989492205029 0 0 -1 I I #
coedge $-1 $412 $411 $404 $511 forward $401 $-1 #
edge $-1 $512 62.266346406140642 $515 65.481493625161406 $510 $560 forward 7 unknown #
vertex $-1 $416 $561 #
straight-curve $-1 21.395823005190309 4.7675976629198047 6.4591407878569527 1 0 0 I I #
edge $-1 $515 0.86203243083654435 $413 6.9490980333299763 $412 $562 forward 7 unknown #
vertex $-1 $514 $563 #
straight-curve $-1 -21.968539623390015 4.7675976629198047 68.004179202606835 -0.7313536940579346 0 0.68199836817093118 I I #
point $-1 44.030432362835526 4.7675976629198047 6.4591407878569527 #
point $-1 47.478255561998353 10.854663265413237 3.2439935688361885 #
straight-curve $-1 47.478255561998353 0 6.4591407878569553 0 1 0 I I #
vertex $-1 $419 $564 #
point $-1 45.438022441274974 5.9850107834184918 3.7792143002031953 #
vertex $-1 $423 $565 #
point $-1 45.438022441274974 7.8111304641665207 3.7792143002031953 #
vertex $-1 $427 $566 #
point $-1 45.438022441274974 9.6372501449145496 3.7792143002031953 #
edge $-1 $527 29.886253589255329 $530 33.101400808276082 $432 $567 forward 7 unknown #
vertex $-1 $446 $568 #
straight-curve $-1 -56.119220597884485 10.854663265413237 6.4591407878569527 -1 0 0 I I #
edge $-1 $530 -6.9490980333299763 $443 -0.86203243083654435 $442 $569 forward 7 unknown #
vertex $-1 $529 $570 #
straight-curve $-1 -47.478255561998338 10.854663265413237 3.2439935688362169 0.7313536940579346 0 0.68199836817093118 I I #
point $-1 -44.030432362835533 10.854663265413237 6.4591407878569553 #
point $-1 -47.478255561998353 4.7675976629198047 3.2439935688362036 #
straight-curve $-1 -47.478255561998353 0 6.4591407878569553 0 -1 0 I I #
vertex $-1 $449 $571 #
point $-1 -44.706668747217051 5.9850107834184918 4.4612126683741176 #
vertex $-1 $453 $572 #
point $-1 -44.706668747217051 7.8111304641665207 4.4612126683741176 #
vertex $-1 $457 $573 #
point $-1 -44.706668747217051 9.6372501449145496 4.4612126683741176 #
straight-curve $-1 -47.478255561998353 21.298635033934332 0 0 0 -1 I I #
point $-1 -47.478255561998353 -21.298635033934332 -6.4591407878569553 #
straight-curve $-1 -47.478255561998353 0 -6.4591407878569553 0 1 0 I I #
point $-1 -47.478255561998353 21.298635033934332 -6.4591407878569553 #
coedge $-1 $483 $479 $488 $550 forward $356 $-1 #
vertex $-1 $480 $574 #
straight-curve $-1 -47.478255561998353 0 6.4591407878569553 0 -1 0 I I #
point $-1 -47.478255561998353 -15.99596174212328 6.4591407878569553 #
straight-curve $-1 47.478255561998353 0 6.4591407878569553 0 1 0 I I #
edge $-1 $546 -47.478255561998353 $492 47.478255561998353 $488 $575 forward 7 unknown #
straight-curve $-1 -47.478255561998353 -21.298635033934332 0 0 0 -1 I I #
point $-1 47.478255561998353 -21.298635033934332 6.4591407878569553 #
edge $-1 $507 -47.478255561998353 $555 47.478255561998353 $504 $576 forward 7 unknown #
straight-curve $-1 47.478255561998353 0 6.4591407878569553 0 1 0 I I #
vertex $-1 $553 $577 #
straight-curve $-1 -47.478255561998353 0 6.4591407878569553 0 -1 0 I I #
point $-1 47.478255561998353 15.995961742123274 6.4591407878569553 #
straight-curve $-1 -47.478255561998353 21.298635033934332 0 0 0 -1 I I #
point $-1 47.478255561998353 21.298635033934332 6.4591407878569553 #
straight-curve $-1 47.478255561998353 4.7675976629198047 68.725487193997594 0 0 -1 I I #
point $-1 47.478255561998353 4.7675976629198047 6.4591407878569553 #
straight-curve $-1 47.478255561998353 3.9055652320832603 3.2439935688361921 0 1 0 I I #
point $-1 47.478255561998353 4.7675976629198047 3.2439935688361885 #
point $-1 44.73134641016054 5.9850107834184918 3.7545366372596933 #
point $-1 44.73134641016054 7.8111304641665207 3.7545366372596933 #
point $-1 44.73134641016054 9.6372501449145496 3.7545366372596933 #
straight-curve $-1 -47.478255561998353 10.854663265413237 36.345394377112285 0 0 -1 I I #
point $-1 -47.478255561998353 10.854663265413237 6.4591407878569553 #
straight-curve $-1 -47.478255561998353 3.9055652320832603 3.2439935688362063 0 -1 0 I I #
point $-1 -47.478255561998353 10.854663265413237 3.2439935688362036 #
point $-1 -44.731346410160555 5.9850107834184918 3.7545366372596845 #
point $-1 -44.731346410160555 7.8111304641665207 3.7545366372596845 #
point $-1 -44.731346410160555 9.6372501449145496 3.7545366372596845 #
point $-1 -47.478255561998353 -21.298635033934332 6.4591407878569553 #
straight-curve $-1 0 -21.298635033934332 6.4591407878569553 1 0 0 I I #
straight-curve $-1 0 21.298635033934332 6.4591407878569553 -1 0 0 I I #
point $-1 -47.478255561998353 21.298635033934332 6.4591407878569553 #
End-of-ACIS-data 