500 0 11 0           
7 Unknown 11 ACIS 5.0 NT 24 Fri Mar 26 03:29:42 1999 
-1 9.9999999999999995e-007 1e-010 
body $-1 $11 $-1 $12 #
body $-1 $13 $-1 $14 #
body $-1 $15 $-1 $16 #
body $-1 $17 $-1 $18 #
body $-1 $19 $-1 $20 #
body $-1 $21 $-1 $22 #
body $-1 $23 $-1 $24 #
body $-1 $25 $-1 $26 #
body $-1 $27 $-1 $28 #
body $-1 $29 $-1 $30 #
body $-1 $31 $-1 $32 #
lump $-1 $-1 $33 $0 #
transform $-1 1 0 0 0 1 0 0 0 1 56.703390606402785 28.266900657987801 9.8086585241692212 1 rotate no_reflect no_shear #
lump $-1 $-1 $34 $1 #
transform $-1 1 0 0 0 1 0 0 0 1 56.703390606402785 28.266900657987801 9.8086585241692212 1 rotate no_reflect no_shear #
lump $-1 $-1 $35 $2 #
transform $-1 1 0 0 0 1 0 0 0 1 56.703390606402785 28.266900657987801 9.8086585241692212 1 rotate no_reflect no_shear #
lump $-1 $-1 $36 $3 #
transform $-1 1 0 0 0 1 0 0 0 1 56.703390606402785 28.266900657987801 9.8086585241692212 1 rotate no_reflect no_shear #
lump $-1 $-1 $37 $4 #
transform $-1 1 0 0 0 1 0 0 0 1 56.703390606402785 28.266900657987801 9.8086585241692212 1 rotate no_reflect no_shear #
lump $-1 $-1 $38 $5 #
transform $-1 1 0 0 0 1 0 0 0 1 56.703390606402785 28.266900657987801 9.8086585241692212 1 rotate no_reflect no_shear #
lump $-1 $-1 $39 $6 #
transform $-1 1 0 0 0 1 0 0 0 1 56.703390606402785 28.266900657987801 9.8086585241692212 1 rotate no_reflect no_shear #
lump $-1 $-1 $40 $7 #
transform $-1 1 0 0 0 1 0 0 0 1 56.703390606402785 28.266900657987801 9.8086585241692212 1 rotate no_reflect no_shear #
lump $-1 $-1 $41 $8 #
transform $-1 1 0 0 0 1 0 0 0 1 56.703390606402785 28.266900657987801 9.8086585241692212 1 rotate no_reflect no_shear #
lump $-1 $-1 $42 $9 #
transform $-1 1 0 0 0 1 0 0 0 1 56.703390606402785 28.266900657987801 9.8086585241692212 1 rotate no_reflect no_shear #
lump $-1 $-1 $43 $10 #
transform $-1 1 0 0 0 1 0 0 0 1 56.703390606402785 28.266900657987801 9.8086585241692212 1 rotate no_reflect no_shear #
shell $-1 $-1 $-1 $44 $-1 $11 #
shell $-1 $-1 $-1 $45 $-1 $13 #
shell $-1 $-1 $-1 $46 $-1 $15 #
shell $-1 $-1 $-1 $47 $-1 $17 #
shell $-1 $-1 $-1 $48 $-1 $19 #
shell $-1 $-1 $-1 $49 $-1 $21 #
shell $-1 $-1 $-1 $50 $-1 $23 #
shell $-1 $-1 $-1 $51 $-1 $25 #
shell $-1 $-1 $-1 $52 $-1 $27 #
shell $-1 $-1 $-1 $53 $-1 $29 #
shell $-1 $-1 $-1 $54 $-1 $31 #
face $-1 $55 $56 $33 $-1 $57 forward single #
face $-1 $58 $59 $34 $-1 $60 forward single #
face $-1 $61 $62 $35 $-1 $63 reversed single #
face $-1 $64 $65 $36 $-1 $66 reversed single #
face $-1 $67 $68 $37 $-1 $69 forward single #
face $-1 $70 $71 $38 $-1 $72 forward single #
face $-1 $73 $74 $39 $-1 $75 forward single #
face $-1 $76 $77 $40 $-1 $78 reversed single #
face $-1 $79 $80 $41 $-1 $81 forward single #
face $-1 $82 $83 $42 $-1 $84 forward single #
face $-1 $85 $86 $43 $-1 $87 forward single #
face $-1 $88 $89 $33 $-1 $90 reversed single #
loop $-1 $-1 $91 $44 #
plane-surface $-1 0 0 9.8086585241692212 0 0 1 1 0 0 forward_v I I I I #
face $-1 $92 $93 $34 $-1 $94 reversed single #
loop $-1 $-1 $95 $45 #
plane-surface $-1 -56.703390606402785 0 0 1 0 0 0 0 -1 forward_v I I I I #
face $-1 $96 $97 $35 $-1 $98 reversed single #
loop $-1 $-1 $99 $46 #
plane-surface $-1 52.593479766034115 -11.833603424041225 0 0 1 0 0 0 1 forward_v I I I I #
face $-1 $100 $101 $36 $-1 $102 reversed single #
loop $-1 $-1 $103 $47 #
plane-surface $-1 48.483568925665466 -104.15084984876563 86.845739776234993 -1 0 0 0 -0.66913061440640931 0.74314481823134659 forward_v I I I I #
face $-1 $104 $105 $37 $-1 $106 forward single #
loop $-1 $107 $108 $48 #
cone-surface $-1 31.930896029497539 -22.274194313357018 3.9982773515212684 0 0.66913061440640931 -0.74314481823134659 1.5 0 0 1 I I 0 1 1.5 forward I I I I #
face $-1 $109 $110 $38 $-1 $111 forward single #
loop $-1 $112 $113 $49 #
cone-surface $-1 38.138148365560504 -22.274194313357018 3.9982773515212684 0 0.66913061440640931 -0.74314481823134659 1.5 0 0 1 I I 0 1 1.5 forward I I I I #
face $-1 $114 $115 $39 $-1 $116 forward single #
loop $-1 $117 $118 $50 #
cone-surface $-1 44.345400701623468 -22.274194313357018 3.9982773515212684 0 0.66913061440640931 -0.74314481823134659 1.5 0 0 1 I I 0 1 1.5 forward I I I I #
face $-1 $119 $120 $40 $-1 $121 reversed single #
loop $-1 $-1 $122 $51 #
plane-surface $-1 34.432063434641876 51.366905258882383 129.52443258709926 1 0 0 0 -0.6018150307709319 -0.79863550430605224 forward_v I I I I #
face $-1 $123 $124 $41 $-1 $125 forward single #
loop $-1 $126 $127 $52 #
cone-surface $-1 37.242364532846601 24.641516133777476 6.8537302597987741 0 -0.6018150307709319 -0.79863550430605224 0.5 0 0 1 I I 0 1 0.5 forward I I I I #
face $-1 $128 $129 $42 $-1 $130 forward single #
loop $-1 $131 $132 $53 #
cone-surface $-1 41.457816180153678 24.641516133777476 6.8537302597987741 0 -0.6018150307709319 -0.79863550430605224 0.5 0 0 1 I I 0 1 0.5 forward I I I I #
face $-1 $133 $134 $43 $-1 $135 forward single #
loop $-1 $136 $137 $54 #
cone-surface $-1 45.673267827460755 24.641516133777476 6.8537302597987741 0 -0.6018150307709319 -0.79863550430605224 0.5 0 0 1 I I 0 1 0.5 forward I I I I #
face $-1 $138 $139 $33 $-1 $140 reversed single #
loop $-1 $-1 $141 $55 #
plane-surface $-1 0 0 -9.8086585241692212 0 0 1 1 0 0 forward_v I I I I #
coedge $-1 $142 $143 $144 $145 forward $56 $-1 #
face $-1 $146 $147 $34 $-1 $148 forward single #
loop $-1 $-1 $149 $58 #
plane-surface $-1 0 28.266900657987801 0 0 -1 0 0 0 -1 forward_v I I I I #
coedge $-1 $150 $151 $152 $153 forward $59 $-1 #
face $-1 $154 $155 $35 $-1 $156 reversed single #
loop $-1 $-1 $157 $61 #
plane-surface $-1 48.483568925665452 -10.241593516845292 0 1 0 0 0 0 -1 forward_v I I I I #
coedge $-1 $158 $159 $160 $161 forward $62 $-1 #
face $-1 $162 $163 $36 $-1 $164 reversed single #
loop $-1 $-1 $165 $64 #
plane-surface $-1 38.138148365560518 -28.266900657987804 2.5680779656425017 0 -0.66913061440640931 0.74314481823134659 1 0 0 forward_v I I I I #
coedge $-1 $166 $167 $168 $169 reversed $65 $-1 #
face $-1 $-1 $170 $37 $-1 $171 forward single #
loop $-1 $172 $173 $67 #
cone-surface $-1 31.930896029497539 -19.80037961182456 1.2508278444631706 0 0.66913061440640931 -0.74314481823134659 0.75 0 0 1 I I -0.70710678118654757 0.70710678118654757 0.75 forward I I I I #
loop $-1 $-1 $174 $48 #
coedge $-1 $108 $108 $175 $176 reversed $68 $-1 #
face $-1 $-1 $177 $38 $-1 $178 forward single #
loop $-1 $179 $180 $70 #
cone-surface $-1 38.138148365560504 -19.80037961182456 1.2508278444631706 0 0.66913061440640931 -0.74314481823134659 0.75 0 0 1 I I -0.70710678118654757 0.70710678118654757 0.75 forward I I I I #
loop $-1 $-1 $181 $49 #
coedge $-1 $113 $113 $182 $183 reversed $71 $-1 #
face $-1 $-1 $184 $39 $-1 $185 forward single #
loop $-1 $186 $187 $73 #
cone-surface $-1 44.345400701623468 -19.80037961182456 1.2508278444631706 0 0.66913061440640931 -0.74314481823134659 0.75 0 0 1 I I -0.70710678118654757 0.70710678118654757 0.75 forward I I I I #
loop $-1 $-1 $188 $50 #
coedge $-1 $118 $118 $189 $190 reversed $74 $-1 #
face $-1 $191 $192 $40 $-1 $193 reversed single #
loop $-1 $-1 $194 $76 #
plane-surface $-1 41.457816180153664 -16.883000266334548 38.953750681484152 0 0.6018150307709319 0.79863550430605224 1 0 0 forward_v I I I I #
coedge $-1 $195 $196 $197 $198 reversed $77 $-1 #
face $-1 $-1 $199 $41 $-1 $200 forward single #
loop $-1 $201 $202 $79 #
cone-surface $-1 37.242364532846601 24.102206886370023 6.1380427299801497 0 -0.6018150307709319 -0.79863550430605224 0.25 0 0 1 I I -0.70710678118654746 0.70710678118654746 0.25 forward I I I I #
loop $-1 $-1 $203 $52 #
coedge $-1 $127 $127 $204 $205 reversed $80 $-1 #
face $-1 $-1 $206 $42 $-1 $207 forward single #
loop $-1 $208 $209 $82 #
cone-surface $-1 41.457816180153678 24.102206886370023 6.1380427299801497 0 -0.6018150307709319 -0.79863550430605224 0.25 0 0 1 I I -0.70710678118654746 0.70710678118654746 0.25 forward I I I I #
loop $-1 $-1 $210 $53 #
coedge $-1 $132 $132 $211 $212 reversed $83 $-1 #
face $-1 $-1 $213 $43 $-1 $214 forward single #
loop $-1 $215 $216 $85 #
cone-surface $-1 45.673267827460755 24.102206886370023 6.1380427299801497 0 -0.6018150307709319 -0.79863550430605224 0.25 0 0 1 I I -0.70710678118654746 0.70710678118654746 0.25 forward I I I I #
loop $-1 $-1 $217 $54 #
coedge $-1 $137 $137 $218 $219 reversed $86 $-1 #
face $-1 $220 $221 $33 $-1 $222 reversed single #
loop $-1 $-1 $223 $88 #
plane-surface $-1 0 -28.266900657987801 0 0 1 0 0 0 1 forward_v I I I I #
coedge $-1 $224 $225 $226 $227 forward $89 $-1 #
coedge $-1 $228 $91 $229 $230 forward $56 $-1 #
coedge $-1 $91 $228 $231 $232 forward $56 $-1 #
coedge $-1 $233 $234 $91 $145 reversed $235 $-1 #
edge $-1 $236 -28.266900657987801 $237 28.266900657987801 $144 $238 forward 7 unknown #
face $-1 $239 $240 $34 $-1 $241 reversed single #
loop $-1 $-1 $152 $92 #
plane-surface $-1 -62.418937567414453 0 -5.2681240160878104 0 0 1 1 0 0 forward_v I I I I #
coedge $-1 $242 $243 $151 $244 forward $93 $-1 #
coedge $-1 $245 $95 $246 $247 reversed $59 $-1 #
coedge $-1 $95 $245 $149 $244 reversed $59 $-1 #
coedge $-1 $248 $249 $95 $153 reversed $147 $-1 #
edge $-1 $250 -28.266900657987801 $251 28.266900657987801 $152 $252 forward 7 unknown #
face $-1 $253 $254 $35 $-1 $255 forward single #
loop $-1 $-1 $256 $96 #
plane-surface $-1 52.593479766034115 -8.6495836096493584 0 0 -1 0 0 0 -1 forward_v I I I I #
coedge $-1 $257 $258 $259 $260 forward $97 $-1 #
coedge $-1 $261 $99 $262 $263 reversed $62 $-1 #
coedge $-1 $99 $261 $264 $265 reversed $62 $-1 #
coedge $-1 $258 $257 $99 $161 reversed $97 $-1 #
edge $-1 $266 -9.8086585241692212 $267 9.8086585241692212 $160 $268 forward 7 unknown #
face $-1 $269 $270 $36 $-1 $271 reversed single #
loop $-1 $-1 $272 $100 #
plane-surface $-1 27.79272780545557 -104.15084984876563 86.845739776234993 1 0 0 0 0.66913061440640931 -0.74314481823134659 forward_v I I I I #
coedge $-1 $273 $274 $275 $276 reversed $101 $-1 #
coedge $-1 $167 $103 $277 $278 reversed $65 $-1 #
coedge $-1 $103 $166 $273 $279 reversed $65 $-1 #
coedge $-1 $275 $280 $103 $169 forward $281 $-1 #
edge $-1 $282 23.808524266395015 $283 31.850003474201259 $168 $284 forward 7 unknown #
loop $-1 $-1 $175 $104 #
plane-surface $-1 38.138148365560518 -28.266900657987804 2.5680779656425017 0 -0.66913061440640931 0.74314481823134659 1 0 0 forward_v I I I I #
loop $-1 $-1 $285 $67 #
coedge $-1 $173 $173 $174 $286 reversed $105 $-1 #
coedge $-1 $174 $174 $173 $286 forward $107 $-1 #
coedge $-1 $175 $175 $108 $176 forward $170 $-1 #
edge $-1 $287 -4.4180812976276716e-016 $287 6.2831853071796004 $175 $288 forward 7 unknown #
loop $-1 $-1 $182 $109 #
plane-surface $-1 38.138148365560518 -28.266900657987804 2.5680779656425017 0 -0.66913061440640931 0.74314481823134659 1 0 0 forward_v I I I I #
loop $-1 $-1 $289 $70 #
coedge $-1 $180 $180 $181 $290 reversed $110 $-1 #
coedge $-1 $181 $181 $180 $290 forward $112 $-1 #
coedge $-1 $182 $182 $113 $183 forward $177 $-1 #
edge $-1 $291 -4.4180812976276716e-016 $291 6.2831853071796004 $182 $292 forward 7 unknown #
loop $-1 $-1 $189 $114 #
plane-surface $-1 38.138148365560518 -28.266900657987804 2.5680779656425017 0 -0.66913061440640931 0.74314481823134659 1 0 0 forward_v I I I I #
loop $-1 $-1 $293 $73 #
coedge $-1 $187 $187 $188 $294 reversed $115 $-1 #
coedge $-1 $188 $188 $187 $294 forward $117 $-1 #
coedge $-1 $189 $189 $118 $190 forward $184 $-1 #
edge $-1 $295 -4.4180812976276716e-016 $295 6.2831853071796004 $189 $296 forward 7 unknown #
face $-1 $297 $298 $40 $-1 $299 forward single #
loop $-1 $-1 $300 $119 #
plane-surface $-1 48.483568925665452 51.366905258882383 129.52443258709926 -1 0 0 0 0.6018150307709319 0.79863550430605224 forward_v I I I I #
coedge $-1 $301 $302 $303 $304 reversed $120 $-1 #
coedge $-1 $196 $122 $305 $306 reversed $77 $-1 #
coedge $-1 $122 $195 $301 $307 reversed $77 $-1 #
coedge $-1 $303 $308 $122 $198 forward $298 $-1 #
edge $-1 $309 -2.5834480285466093 $310 3.8896100404446514 $197 $311 forward 7 unknown #
loop $-1 $-1 $204 $123 #
plane-surface $-1 41.457816180153664 -16.883000266334548 38.953750681484152 0 0.6018150307709319 0.79863550430605224 1 0 0 forward_v I I I I #
loop $-1 $-1 $312 $79 #
coedge $-1 $202 $202 $203 $313 reversed $124 $-1 #
coedge $-1 $203 $203 $202 $313 forward $126 $-1 #
coedge $-1 $204 $204 $127 $205 forward $199 $-1 #
edge $-1 $314 -2.5482040754342276e-015 $314 6.2831853071795978 $204 $315 forward 7 unknown #
loop $-1 $-1 $211 $128 #
plane-surface $-1 41.457816180153664 -16.883000266334548 38.953750681484152 0 0.6018150307709319 0.79863550430605224 1 0 0 forward_v I I I I #
loop $-1 $-1 $316 $82 #
coedge $-1 $209 $209 $210 $317 reversed $129 $-1 #
coedge $-1 $210 $210 $209 $317 forward $131 $-1 #
coedge $-1 $211 $211 $132 $212 forward $206 $-1 #
edge $-1 $318 -2.5482040754342276e-015 $318 6.2831853071795978 $211 $319 forward 7 unknown #
loop $-1 $-1 $218 $133 #
plane-surface $-1 41.457816180153664 -16.883000266334548 38.953750681484152 0 0.6018150307709319 0.79863550430605224 1 0 0 forward_v I I I I #
loop $-1 $-1 $320 $85 #
coedge $-1 $216 $216 $217 $321 reversed $134 $-1 #
coedge $-1 $217 $217 $216 $321 forward $136 $-1 #
coedge $-1 $218 $218 $137 $219 forward $213 $-1 #
edge $-1 $322 -2.5482040754342276e-015 $322 6.2831853071795978 $218 $323 forward 7 unknown #
face $-1 $324 $325 $33 $-1 $326 reversed single #
loop $-1 $-1 $327 $138 #
plane-surface $-1 -56.703390606402785 0 0 1 0 0 0 0 -1 forward_v I I I I #
coedge $-1 $328 $231 $329 $330 forward $139 $-1 #
coedge $-1 $331 $141 $328 $332 forward $89 $-1 #
coedge $-1 $141 $331 $333 $334 forward $89 $-1 #
coedge $-1 $234 $233 $141 $227 reversed $235 $-1 #
edge $-1 $335 -28.266900657987801 $336 28.266900657987801 $226 $337 forward 7 unknown #
coedge $-1 $143 $142 $338 $339 forward $56 $-1 #
coedge $-1 $340 $341 $142 $230 reversed $325 $-1 #
edge $-1 $237 -56.703390606402785 $342 56.703390606402785 $229 $343 forward 7 unknown #
coedge $-1 $223 $344 $143 $232 reversed $139 $-1 #
edge $-1 $345 -56.703390606402785 $236 56.703390606402785 $231 $346 forward 7 unknown #
coedge $-1 $226 $144 $344 $347 forward $235 $-1 #
coedge $-1 $144 $226 $340 $348 reversed $235 $-1 #
loop $-1 $-1 $233 $324 #
vertex $-1 $145 $349 #
vertex $-1 $145 $350 #
straight-curve $-1 56.703390606402785 0 9.8086585241692212 0 1 0 I I #
face $-1 $351 $352 $34 $-1 $353 reversed single #
loop $-1 $-1 $354 $146 #
plane-surface $-1 -68.134484528426114 0 -7.5383912701285158 1 0 0 0 0 -1 forward_v I I I I #
coedge $-1 $355 $149 $356 $357 reversed $93 $-1 #
coedge $-1 $149 $355 $248 $358 reversed $93 $-1 #
edge $-1 $250 5.2681240160878104 $359 9.8086585241692212 $149 $360 forward 7 unknown #
coedge $-1 $151 $150 $361 $362 reversed $59 $-1 #
coedge $-1 $363 $364 $150 $247 forward $365 $-1 #
edge $-1 $366 -9.8086585241692212 $251 -5.2681240160878104 $246 $367 forward 7 unknown #
coedge $-1 $368 $152 $243 $358 forward $147 $-1 #
coedge $-1 $152 $368 $363 $369 forward $147 $-1 #
vertex $-1 $244 $370 #
vertex $-1 $369 $371 #
straight-curve $-1 -56.703390606402785 0 -5.2681240160878104 0 -1 0 I I #
face $-1 $372 $373 $35 $-1 $374 reversed single #
loop $-1 $-1 $375 $154 #
plane-surface $-1 0 0 9.8086585241692212 0 0 1 1 0 0 forward_v I I I I #
coedge $-1 $376 $377 $378 $379 reversed $155 $-1 #
coedge $-1 $160 $157 $380 $381 reversed $97 $-1 #
coedge $-1 $157 $160 $382 $383 reversed $97 $-1 #
coedge $-1 $377 $376 $157 $260 reversed $155 $-1 #
edge $-1 $384 -9.8086585241692212 $385 9.8086585241692212 $259 $386 forward 7 unknown #
coedge $-1 $159 $158 $387 $388 reversed $62 $-1 #
coedge $-1 $380 $389 $158 $263 forward $373 $-1 #
edge $-1 $390 -30.40665072338572 $267 -22.186829042648395 $262 $391 forward 7 unknown #
coedge $-1 $392 $382 $159 $265 forward $254 $-1 #
edge $-1 $266 22.186829042648395 $393 30.40665072338572 $264 $394 forward 7 unknown #
vertex $-1 $265 $395 #
vertex $-1 $263 $396 #
straight-curve $-1 48.483568925665452 -11.833603424041225 0 0 0 -1 I I #
face $-1 $-1 $281 $36 $-1 $397 forward single #
loop $-1 $-1 $398 $162 #
plane-surface $-1 0 -28.266900657987801 0 0 1 0 0 0 1 forward_v I I I I #
coedge $-1 $399 $400 $401 $402 reversed $163 $-1 #
coedge $-1 $403 $165 $167 $279 forward $101 $-1 #
coedge $-1 $165 $403 $399 $404 forward $101 $-1 #
coedge $-1 $401 $168 $165 $276 forward $281 $-1 #
edge $-1 $283 -29.414494742885207 $405 -8.723653622675311 $275 $406 forward 7 unknown #
coedge $-1 $407 $408 $166 $278 forward $270 $-1 #
edge $-1 $409 -40.854791922474995 $282 -33.614211363948272 $277 $410 forward 7 unknown #
edge $-1 $283 -10.820877721982413 $409 -4.720256561927822e-015 $167 $411 forward 7 unknown #
coedge $-1 $168 $401 $407 $412 forward $281 $-1 #
loop $-1 $-1 $401 $269 #
vertex $-1 $278 $413 #
vertex $-1 $169 $414 #
straight-curve $-1 48.483568925665466 -52.075424924382816 9.8086585241692177 0 1 0 I I #
coedge $-1 $285 $285 $-1 $415 reversed $172 $-1 #
edge $-1 $416 0 $416 6.2831853071796004 $173 $417 forward 7 unknown #
vertex $-1 $176 $418 #
ellipse-curve $-1 31.930896029497539 -24.246161054084677 6.188368244905865 0 -0.66913061440640931 0.74314481823134659 1.5 0 0 1 I I #
coedge $-1 $289 $289 $-1 $419 reversed $179 $-1 #
edge $-1 $420 0 $420 6.2831853071796004 $180 $421 forward 7 unknown #
vertex $-1 $183 $422 #
ellipse-curve $-1 38.138148365560504 -24.246161054084677 6.188368244905865 0 -0.66913061440640931 0.74314481823134659 1.5 0 0 1 I I #
coedge $-1 $293 $293 $-1 $423 reversed $186 $-1 #
edge $-1 $424 0 $424 6.2831853071796004 $187 $425 forward 7 unknown #
vertex $-1 $190 $426 #
ellipse-curve $-1 44.345400701623468 -24.246161054084677 6.188368244905865 0 -0.66913061440640931 0.74314481823134659 1.5 0 0 1 I I #
face $-1 $-1 $427 $40 $-1 $428 reversed single #
loop $-1 $-1 $197 $191 #
plane-surface $-1 0 0 9.8086585241692212 0 0 1 1 0 0 forward_v I I I I #
coedge $-1 $429 $430 $431 $432 reversed $192 $-1 #
coedge $-1 $433 $194 $196 $307 forward $120 $-1 #
coedge $-1 $194 $433 $429 $434 forward $120 $-1 #
coedge $-1 $431 $197 $194 $304 forward $298 $-1 #
edge $-1 $310 13.703155344565044 $435 27.75466083558862 $303 $436 forward 7 unknown #
coedge $-1 $437 $438 $195 $306 forward $427 $-1 #
edge $-1 $439 -59.831356990637097 $309 -54.95355776938041 $305 $440 forward 7 unknown #
edge $-1 $310 48.428654432209406 $439 56.53380131597563 $196 $441 forward 7 unknown #
coedge $-1 $197 $431 $437 $442 forward $298 $-1 #
vertex $-1 $306 $443 #
vertex $-1 $198 $444 #
straight-curve $-1 34.432063434641876 25.683452629441192 9.8086585241692177 0 -1 0 I I #
coedge $-1 $312 $312 $-1 $445 reversed $201 $-1 #
edge $-1 $446 0 $446 6.2831853071796004 $202 $447 forward 7 unknown #
vertex $-1 $205 $448 #
ellipse-curve $-1 37.242364532846601 25.030371623492186 7.3697589135408732 0 0.6018150307709319 0.79863550430605224 0.5 0 0 1 I I #
coedge $-1 $316 $316 $-1 $449 reversed $208 $-1 #
edge $-1 $450 0 $450 6.2831853071796004 $209 $451 forward 7 unknown #
vertex $-1 $212 $452 #
ellipse-curve $-1 41.457816180153678 25.030371623492186 7.3697589135408732 0 0.6018150307709319 0.79863550430605224 0.5 0 0 1 I I #
coedge $-1 $320 $320 $-1 $453 reversed $215 $-1 #
edge $-1 $454 0 $454 6.2831853071796004 $216 $455 forward 7 unknown #
vertex $-1 $219 $456 #
ellipse-curve $-1 45.673267827460755 25.030371623492186 7.3697589135408732 0 0.6018150307709319 0.79863550430605224 0.5 0 0 1 I I #
face $-1 $-1 $235 $33 $-1 $457 reversed single #
loop $-1 $-1 $340 $220 #
plane-surface $-1 0 28.266900657987801 0 0 -1 0 0 0 -1 forward_v I I I I #
coedge $-1 $458 $338 $341 $459 forward $221 $-1 #
coedge $-1 $344 $223 $224 $332 reversed $139 $-1 #
coedge $-1 $338 $458 $223 $330 reversed $221 $-1 #
edge $-1 $345 -9.8086585241692212 $460 9.8086585241692212 $329 $461 forward 7 unknown #
coedge $-1 $225 $224 $458 $462 forward $89 $-1 #
edge $-1 $336 -56.703390606402785 $460 56.703390606402785 $328 $463 forward 7 unknown #
coedge $-1 $341 $340 $225 $334 reversed $325 $-1 #
edge $-1 $464 -56.703390606402785 $335 56.703390606402785 $333 $465 forward 7 unknown #
vertex $-1 $227 $466 #
vertex $-1 $347 $467 #
straight-curve $-1 56.703390606402785 0 -9.8086585241692212 0 -1 0 I I #
coedge $-1 $327 $329 $228 $339 reversed $221 $-1 #
edge $-1 $342 -28.266900657987801 $345 28.266900657987801 $338 $468 forward 7 unknown #
coedge $-1 $333 $229 $234 $348 forward $325 $-1 #
coedge $-1 $229 $333 $327 $459 reversed $325 $-1 #
vertex $-1 $230 $469 #
straight-curve $-1 0 28.266900657987801 9.8086585241692212 -1 0 0 I I #
coedge $-1 $231 $328 $233 $347 reversed $139 $-1 #
vertex $-1 $339 $470 #
straight-curve $-1 0 -28.266900657987801 9.8086585241692212 1 0 0 I I #
edge $-1 $236 -9.8086585241692212 $336 9.8086585241692212 $233 $471 forward 7 unknown #
edge $-1 $237 -9.8086585241692212 $335 9.8086585241692212 $234 $472 forward 7 unknown #
point $-1 56.703390606402785 -28.266900657987801 9.8086585241692212 #
point $-1 56.703390606402785 28.266900657987801 9.8086585241692212 #
face $-1 $-1 $365 $34 $-1 $473 reversed single #
loop $-1 $-1 $361 $239 #
plane-surface $-1 0 0 -9.8086585241692212 0 0 1 1 0 0 forward_v I I I I #
coedge $-1 $474 $475 $355 $476 forward $240 $-1 #
coedge $-1 $243 $242 $354 $476 reversed $93 $-1 #
coedge $-1 $361 $477 $242 $357 forward $352 $-1 #
edge $-1 $478 -68.134484528426114 $359 -56.703390606402785 $242 $479 forward 7 unknown #
edge $-1 $250 -5.7155469610116683 $480 5.7155469610116612 $243 $481 forward 7 unknown #
vertex $-1 $244 $482 #
straight-curve $-1 -56.703390606402785 28.266900657987801 0 0 0 -1 I I #
coedge $-1 $483 $356 $245 $362 forward $352 $-1 #
edge $-1 $359 -28.266900657987801 $366 28.266900657987801 $361 $484 forward 7 unknown #
coedge $-1 $485 $246 $249 $369 reversed $365 $-1 #
coedge $-1 $246 $485 $483 $486 reversed $365 $-1 #
loop $-1 $-1 $246 $351 #
vertex $-1 $486 $487 #
straight-curve $-1 -56.703390606402785 -28.266900657987801 0 0 0 1 I I #
coedge $-1 $249 $248 $475 $488 forward $147 $-1 #
edge $-1 $489 -5.7155469610116612 $251 5.7155469610116683 $363 $490 forward 7 unknown #
point $-1 -56.703390606402785 28.266900657987801 -5.2681240160878104 #
point $-1 -56.703390606402785 -28.266900657987801 -5.2681240160878104 #
face $-1 $-1 $491 $35 $-1 $492 reversed single #
loop $-1 $-1 $493 $253 #
plane-surface $-1 0 0 -9.8086585241692212 0 0 1 1 0 0 forward_v I I I I #
coedge $-1 $382 $392 $377 $494 forward $254 $-1 #
coedge $-1 $259 $256 $493 $495 reversed $155 $-1 #
coedge $-1 $256 $259 $375 $494 reversed $155 $-1 #
coedge $-1 $496 $497 $256 $379 forward $491 $-1 #
edge $-1 $498 -9.8086585241692212 $499 9.8086585241692212 $378 $500 forward 7 unknown #
coedge $-1 $493 $262 $257 $381 forward $373 $-1 #
edge $-1 $267 -6.7128066656185794 $385 -3.5287868512267124 $380 $501 forward 7 unknown #
coedge $-1 $264 $375 $258 $383 forward $254 $-1 #
edge $-1 $384 3.5287868512267124 $266 6.7128066656185794 $382 $502 forward 7 unknown #
vertex $-1 $383 $503 #
vertex $-1 $381 $504 #
straight-curve $-1 48.483568925665452 -8.6495836096493584 0 0 0 -1 I I #
coedge $-1 $497 $496 $261 $388 forward $491 $-1 #
edge $-1 $393 -9.8086585241692212 $390 9.8086585241692212 $387 $505 forward 7 unknown #
coedge $-1 $262 $493 $497 $506 forward $373 $-1 #
vertex $-1 $388 $507 #
straight-curve $-1 26.296739883017057 -11.833603424041225 -9.8086585241692212 -1 0 0 I I #
coedge $-1 $375 $264 $496 $508 forward $254 $-1 #
vertex $-1 $508 $509 #
straight-curve $-1 26.296739883017057 -11.833603424041225 9.8086585241692212 1 0 0 I I #
point $-1 48.483568925665452 -11.833603424041225 9.8086585241692212 #
point $-1 48.483568925665452 -11.833603424041225 -9.8086585241692212 #
plane-surface $-1 0 0 9.8086585241692212 0 0 1 1 0 0 forward_v I I I I #
coedge $-1 $408 $407 $400 $510 forward $270 $-1 #
coedge $-1 $400 $272 $274 $404 reversed $163 $-1 #
coedge $-1 $272 $399 $398 $510 reversed $163 $-1 #
coedge $-1 $280 $275 $272 $402 forward $281 $-1 #
edge $-1 $405 -31.850003474201259 $511 -23.808524266395015 $401 $512 forward 7 unknown #
coedge $-1 $274 $273 $408 $513 reversed $101 $-1 #
edge $-1 $514 4.720256561927822e-015 $405 10.820877721982413 $399 $515 forward 7 unknown #
vertex $-1 $276 $516 #
straight-curve $-1 19.069074182780259 -20.225421450181553 9.8086585241692212 -1 0 0 I I #
coedge $-1 $398 $277 $280 $412 reversed $270 $-1 #
coedge $-1 $277 $398 $403 $513 forward $270 $-1 #
vertex $-1 $278 $517 #
straight-curve $-1 48.483568925665466 -28.266900657987804 43.422869888117496 0 0 1 I I #
straight-curve $-1 48.483568925665466 -28.266900657987804 2.5680779656425017 0 -0.74314481823134659 -0.66913061440640931 I I #
edge $-1 $511 27.79272780545557 $282 48.483568925665466 $407 $518 forward 7 unknown #
point $-1 48.483568925665466 -28.266900657987801 9.8086585241692212 #
point $-1 48.483568925665466 -20.225421450181557 9.8086585241692212 #
edge $-1 $519 1 $519 0 $285 $-1 forward 7 unknown #
vertex $-1 $286 $520 #
ellipse-curve $-1 31.930896029497539 -20.302227572629366 1.8081864581366807 0 -0.66913061440640931 0.74314481823134659 1.5 0 0 1 I I #
point $-1 33.430896029497539 -24.24616105408467 6.1883682449058561 #
edge $-1 $521 1 $521 0 $289 $-1 forward 7 unknown #
vertex $-1 $290 $522 #
ellipse-curve $-1 38.138148365560504 -20.302227572629366 1.8081864581366807 0 -0.66913061440640931 0.74314481823134659 1.5 0 0 1 I I #
point $-1 39.638148365560504 -24.24616105408467 6.1883682449058561 #
edge $-1 $523 1 $523 0 $293 $-1 forward 7 unknown #
vertex $-1 $294 $524 #
ellipse-curve $-1 44.345400701623468 -20.302227572629366 1.8081864581366807 0 -0.66913061440640931 0.74314481823134659 1.5 0 0 1 I I #
point $-1 45.845400701623468 -24.24616105408467 6.1883682449058561 #
loop $-1 $-1 $305 $297 #
plane-surface $-1 0 28.266900657987801 0 0 -1 0 0 0 -1 forward_v I I I I #
coedge $-1 $430 $300 $302 $434 reversed $192 $-1 #
coedge $-1 $300 $429 $525 $526 reversed $192 $-1 #
coedge $-1 $308 $303 $300 $432 forward $298 $-1 #
edge $-1 $435 -3.8896100404446514 $527 2.5834480285466093 $431 $528 forward 7 unknown #
coedge $-1 $302 $301 $438 $529 reversed $120 $-1 #
edge $-1 $530 -56.53380131597563 $435 -48.428654432209406 $429 $531 forward 7 unknown #
vertex $-1 $304 $532 #
straight-curve $-1 20.728908090076832 21.79384258899654 9.8086585241692177 1 0 0 I I #
coedge $-1 $525 $305 $308 $442 reversed $427 $-1 #
coedge $-1 $305 $525 $433 $529 forward $427 $-1 #
vertex $-1 $306 $533 #
straight-curve $-1 34.432063434641876 28.266900657987801 64.762216293549628 0 0 1 I I #
straight-curve $-1 34.432063434641876 -16.883000266334548 38.953750681484152 0 0.79863550430605224 -0.6018150307709319 I I #
edge $-1 $527 -48.483568925665452 $309 -34.432063434641876 $437 $534 forward 7 unknown #
point $-1 34.432063434641876 28.266900657987801 9.8086585241692212 #
point $-1 34.432063434641876 21.79384258899654 9.8086585241692212 #
edge $-1 $535 1 $535 0 $312 $-1 forward 7 unknown #
vertex $-1 $313 $536 #
ellipse-curve $-1 37.242364532846601 24.252660644062757 6.3377016060566627 0 0.6018150307709319 0.79863550430605224 0.5 0 0 1 I I #
point $-1 37.742364532846601 25.030371623492194 7.3697589135408847 #
edge $-1 $537 1 $537 0 $316 $-1 forward 7 unknown #
vertex $-1 $317 $538 #
ellipse-curve $-1 41.457816180153678 24.252660644062757 6.3377016060566627 0 0.6018150307709319 0.79863550430605224 0.5 0 0 1 I I #
point $-1 41.957816180153678 25.030371623492194 7.3697589135408847 #
edge $-1 $539 1 $539 0 $320 $-1 forward 7 unknown #
vertex $-1 $321 $540 #
ellipse-curve $-1 45.673267827460755 24.252660644062757 6.3377016060566627 0 0.6018150307709319 0.79863550430605224 0.5 0 0 1 I I #
point $-1 46.173267827460755 25.030371623492194 7.3697589135408847 #
plane-surface $-1 56.703390606402785 0 0 -1 0 0 0 0 1 forward_v I I I I #
coedge $-1 $329 $327 $331 $462 reversed $221 $-1 #
edge $-1 $342 -9.8086585241692212 $464 9.8086585241692212 $341 $541 forward 7 unknown #
vertex $-1 $462 $542 #
straight-curve $-1 -56.703390606402785 -28.266900657987801 0 0 0 -1 I I #
edge $-1 $460 -28.266900657987801 $464 28.266900657987801 $458 $543 forward 7 unknown #
straight-curve $-1 0 -28.266900657987801 -9.8086585241692212 -1 0 0 I I #
vertex $-1 $334 $544 #
straight-curve $-1 0 28.266900657987801 -9.8086585241692212 1 0 0 I I #
point $-1 56.703390606402785 28.266900657987801 -9.8086585241692212 #
point $-1 56.703390606402785 -28.266900657987801 -9.8086585241692212 #
straight-curve $-1 -56.703390606402785 0 9.8086585241692212 0 -1 0 I I #
point $-1 -56.703390606402785 28.266900657987801 9.8086585241692212 #
point $-1 -56.703390606402785 -28.266900657987801 9.8086585241692212 #
straight-curve $-1 56.703390606402785 -28.266900657987801 0 0 0 -1 I I #
straight-curve $-1 56.703390606402785 28.266900657987801 0 0 0 -1 I I #
plane-surface $-1 0 -28.266900657987801 0 0 1 0 0 0 1 forward_v I I I I #
coedge $-1 $545 $354 $477 $546 reversed $240 $-1 #
coedge $-1 $354 $545 $368 $488 reversed $240 $-1 #
edge $-1 $480 -2.2702672540407054 $478 2.2702672540407054 $355 $547 forward 7 unknown #
coedge $-1 $356 $483 $474 $546 forward $352 $-1 #
vertex $-1 $357 $548 #
straight-curve $-1 0 28.266900657987801 -9.8086585241692212 1 0 0 I I #
vertex $-1 $358 $549 #
straight-curve $-1 -62.418937567414453 28.266900657987801 -5.2681240160878104 -1 0 0 I I #
point $-1 -56.703390606402785 28.266900657987801 -9.8086585241692212 #
coedge $-1 $477 $361 $364 $486 forward $352 $-1 #
straight-curve $-1 -56.703390606402785 0 -9.8086585241692212 0 -1 0 I I #
coedge $-1 $364 $363 $545 $550 forward $365 $-1 #
edge $-1 $366 -5.7155469610116683 $551 5.7155469610116612 $364 $552 forward 7 unknown #
point $-1 -56.703390606402785 -28.266900657987801 -9.8086585241692212 #
edge $-1 $480 -28.266900657987801 $489 28.266900657987801 $475 $553 forward 7 unknown #
vertex $-1 $488 $554 #
straight-curve $-1 -62.418937567414453 -28.266900657987801 -5.2681240160878104 1 0 0 I I #
loop $-1 $-1 $378 $372 #
plane-surface $-1 56.703390606402785 0 0 -1 0 0 0 0 1 forward_v I I I I #
coedge $-1 $389 $380 $376 $495 forward $373 $-1 #
edge $-1 $499 -30.40665072338572 $384 -22.186829042648395 $375 $555 forward 7 unknown #
edge $-1 $385 22.186829042648395 $498 30.40665072338572 $493 $556 forward 7 unknown #
coedge $-1 $387 $378 $392 $508 reversed $491 $-1 #
coedge $-1 $378 $387 $389 $506 reversed $491 $-1 #
vertex $-1 $506 $557 #
vertex $-1 $379 $558 #
straight-curve $-1 56.703390606402785 -8.6495836096493584 0 0 0 1 I I #
straight-curve $-1 48.483568925665452 -5.1207967584226459 -9.8086585241692212 0 1 0 I I #
straight-curve $-1 48.483568925665452 -5.1207967584226459 9.8086585241692212 0 -1 0 I I #
point $-1 48.483568925665452 -8.6495836096493584 9.8086585241692212 #
point $-1 48.483568925665452 -8.6495836096493584 -9.8086585241692212 #
straight-curve $-1 56.703390606402785 -11.833603424041225 0 0 0 -1 I I #
edge $-1 $498 8.6495836096493584 $390 11.833603424041225 $497 $559 forward 7 unknown #
point $-1 56.703390606402778 -11.833603424041225 -9.8086585241692212 #
edge $-1 $393 -11.833603424041225 $499 -8.6495836096493584 $496 $560 forward 7 unknown #
point $-1 56.703390606402778 -11.833603424041225 9.8086585241692212 #
edge $-1 $511 33.614211363948272 $514 40.854791922474995 $398 $561 forward 7 unknown #
vertex $-1 $412 $562 #
straight-curve $-1 27.79272780545557 -52.075424924382816 9.8086585241692177 0 -1 0 I I #
edge $-1 $514 8.723653622675311 $409 29.414494742885207 $408 $563 forward 7 unknown #
vertex $-1 $513 $564 #
straight-curve $-1 27.79272780545557 -28.266900657987804 2.5680779656425017 0 0.74314481823134659 0.66913061440640931 I I #
point $-1 27.79272780545557 -20.225421450181557 9.8086585241692212 #
point $-1 48.483568925665466 -28.266900657987801 2.5680779656425048 #
straight-curve $-1 0 -28.266900657987801 9.8086585241692212 1 0 0 I I #
vertex $-1 $415 $565 #
point $-1 33.430896029497539 -20.302227572629366 1.8081864581366807 #
vertex $-1 $419 $566 #
point $-1 39.638148365560504 -20.302227572629366 1.8081864581366807 #
vertex $-1 $423 $567 #
point $-1 45.845400701623468 -20.302227572629366 1.8081864581366807 #
coedge $-1 $438 $437 $430 $526 forward $427 $-1 #
edge $-1 $527 54.95355776938041 $530 59.831356990637097 $525 $568 forward 7 unknown #
vertex $-1 $442 $569 #
straight-curve $-1 48.483568925665452 25.683452629441192 9.8086585241692177 0 1 0 I I #
edge $-1 $530 -27.75466083558862 $439 -13.703155344565044 $438 $570 forward 7 unknown #
vertex $-1 $529 $571 #
straight-curve $-1 48.483568925665452 -16.883000266334548 38.953750681484152 0 -0.79863550430605224 0.6018150307709319 I I #
point $-1 48.483568925665452 21.79384258899654 9.8086585241692212 #
point $-1 34.432063434641876 28.266900657987804 4.9308593029125305 #
straight-curve $-1 0 28.266900657987801 9.8086585241692212 -1 0 0 I I #
vertex $-1 $445 $572 #
point $-1 37.742364532846601 24.252660644062757 6.3377016060566627 #
vertex $-1 $449 $573 #
point $-1 41.957816180153678 24.252660644062757 6.3377016060566627 #
vertex $-1 $453 $574 #
point $-1 46.173267827460755 24.252660644062757 6.3377016060566627 #
straight-curve $-1 -56.703390606402785 28.266900657987801 0 0 0 -1 I I #
point $-1 -56.703390606402785 -28.266900657987801 -9.8086585241692212 #
straight-curve $-1 -56.703390606402785 0 -9.8086585241692212 0 1 0 I I #
point $-1 -56.703390606402785 28.266900657987801 -9.8086585241692212 #
coedge $-1 $475 $474 $485 $550 reversed $240 $-1 #
edge $-1 $551 -28.266900657987801 $478 28.266900657987801 $474 $575 forward 7 unknown #
straight-curve $-1 -68.134484528426114 28.266900657987801 -7.5383912701285158 0 0 -1 I I #
point $-1 -68.134484528426114 28.266900657987801 -9.8086585241692212 #
point $-1 -68.134484528426114 28.266900657987801 -5.2681240160878104 #
edge $-1 $489 -2.2702672540407054 $551 2.2702672540407054 $545 $576 forward 7 unknown #
vertex $-1 $546 $577 #
straight-curve $-1 -62.418937567414453 -28.266900657987801 -9.8086585241692212 -1 0 0 I I #
straight-curve $-1 -68.134484528426114 0 -5.2681240160878104 0 -1 0 I I #
point $-1 -68.134484528426114 -28.266900657987801 -5.2681240160878104 #
straight-curve $-1 26.296739883017057 -8.6495836096493584 9.8086585241692212 -1 0 0 I I #
straight-curve $-1 26.296739883017057 -8.6495836096493584 -9.8086585241692212 1 0 0 I I #
point $-1 56.703390606402778 -8.6495836096493584 -9.8086585241692212 #
point $-1 56.703390606402778 -8.6495836096493584 9.8086585241692212 #
straight-curve $-1 56.703390606402785 0 -9.8086585241692212 0 -1 0 I I #
straight-curve $-1 56.703390606402785 0 9.8086585241692212 0 1 0 I I #
straight-curve $-1 27.79272780545557 -28.266900657987804 43.422869888117496 0 0 -1 I I #
point $-1 27.79272780545557 -28.266900657987801 9.8086585241692212 #
straight-curve $-1 19.069074182780259 -28.266900657987801 2.5680779656425048 1 0 0 I I #
point $-1 27.79272780545557 -28.266900657987801 2.5680779656425048 #
point $-1 31.930896029497539 -19.298531651019754 0.69346923078966072 #
point $-1 38.138148365560504 -19.298531651019754 0.69346923078966072 #
point $-1 44.345400701623468 -19.298531651019754 0.69346923078966072 #
straight-curve $-1 48.483568925665452 28.266900657987801 64.762216293549628 0 0 -1 I I #
point $-1 48.483568925665452 28.266900657987801 9.8086585241692212 #
straight-curve $-1 20.728908090076832 28.266900657987804 4.930859302912534 -1 0 0 I I #
point $-1 48.483568925665452 28.266900657987804 4.9308593029125305 #
point $-1 37.242364532846601 23.951753128677289 5.9383838539036367 #
point $-1 41.457816180153678 23.951753128677289 5.9383838539036367 #
point $-1 45.673267827460755 23.951753128677289 5.9383838539036367 #
straight-curve $-1 -68.134484528426114 0 -9.8086585241692212 0 1 0 I I #
straight-curve $-1 -68.134484528426114 -28.266900657987801 -7.5383912701285158 0 0 -1 I I #
point $-1 -68.134484528426114 -28.266900657987801 -9.8086585241692212 #
End-of-ACIS-data 