500 0 9 0           
7 Unknown 11 ACIS 5.0 NT 24 Thu Mar 25 17:54:04 1999 
-1 9.9999999999999995e-007 1e-010 
body $-1 $9 $-1 $10 #
body $-1 $11 $-1 $12 #
body $-1 $13 $-1 $14 #
body $-1 $15 $-1 $16 #
body $-1 $17 $-1 $18 #
body $-1 $19 $-1 $20 #
body $-1 $21 $-1 $22 #
body $-1 $23 $-1 $24 #
body $-1 $25 $-1 $26 #
lump $-1 $-1 $27 $0 #
transform $-1 1 0 0 0 1 0 0 0 1 66.248359630115658 34.09262258561435 7.0507543020012271 1 rotate no_reflect no_shear #
lump $-1 $-1 $28 $1 #
transform $-1 1 0 0 0 1 0 0 0 1 66.248359630115658 34.09262258561435 7.0507543020012271 1 rotate no_reflect no_shear #
lump $-1 $-1 $29 $2 #
transform $-1 1 0 0 0 1 0 0 0 1 66.248359630115658 34.09262258561435 7.0507543020012271 1 rotate no_reflect no_shear #
lump $-1 $-1 $30 $3 #
transform $-1 1 0 0 0 1 0 0 0 1 66.248359630115658 34.09262258561435 7.0507543020012271 1 rotate no_reflect no_shear #
lump $-1 $-1 $31 $4 #
transform $-1 1 0 0 0 1 0 0 0 1 66.248359630115658 34.09262258561435 7.0507543020012271 1 rotate no_reflect no_shear #
lump $-1 $-1 $32 $5 #
transform $-1 1 0 0 0 1 0 0 0 1 66.248359630115658 34.09262258561435 7.0507543020012271 1 rotate no_reflect no_shear #
lump $-1 $-1 $33 $6 #
transform $-1 1 0 0 0 1 0 0 0 1 66.248359630115658 34.09262258561435 7.0507543020012271 1 rotate no_reflect no_shear #
lump $-1 $-1 $34 $7 #
transform $-1 1 0 0 0 1 0 0 0 1 66.248359630115658 34.09262258561435 7.0507543020012271 1 rotate no_reflect no_shear #
lump $-1 $-1 $35 $8 #
transform $-1 1 0 0 0 1 0 0 0 1 66.248359630115658 34.09262258561435 7.0507543020012271 1 rotate no_reflect no_shear #
shell $-1 $-1 $-1 $36 $-1 $9 #
shell $-1 $-1 $-1 $37 $-1 $11 #
shell $-1 $-1 $-1 $38 $-1 $13 #
shell $-1 $-1 $-1 $39 $-1 $15 #
shell $-1 $-1 $-1 $40 $-1 $17 #
shell $-1 $-1 $-1 $41 $-1 $19 #
shell $-1 $-1 $-1 $42 $-1 $21 #
shell $-1 $-1 $-1 $43 $-1 $23 #
shell $-1 $-1 $-1 $44 $-1 $25 #
face $-1 $45 $46 $27 $-1 $47 reversed single #
face $-1 $48 $49 $28 $-1 $50 forward single #
face $-1 $51 $52 $29 $-1 $53 reversed single #
face $-1 $54 $55 $30 $-1 $56 forward single #
face $-1 $57 $58 $31 $-1 $59 forward single #
face $-1 $60 $61 $32 $-1 $62 reversed single #
face $-1 $63 $64 $33 $-1 $65 forward single #
face $-1 $66 $67 $34 $-1 $68 reversed single #
face $-1 $69 $70 $35 $-1 $71 forward single #
face $-1 $72 $73 $27 $-1 $74 forward single #
loop $-1 $-1 $75 $36 #
plane-surface $-1 0 -34.09262258561435 0 0 1 0 0 0 1 forward_v I I I I #
face $-1 $76 $77 $28 $-1 $78 reversed single #
loop $-1 $-1 $79 $37 #
plane-surface $-1 0 -34.09262258561435 0 0 1 0 0 0 1 forward_v I I I I #
face $-1 $80 $81 $29 $-1 $82 reversed single #
loop $-1 $-1 $83 $38 #
plane-surface $-1 -173.44045829489193 26.314029981401426 78.535930485527757 0 1 0 -0.80901700255871778 0 0.5877852410284794 forward_v I I I I #
face $-1 $84 $85 $30 $-1 $86 forward single #
loop $-1 $87 $88 $39 #
cone-surface $-1 -63.381868552301796 28.536485011176538 3.4586040997044702 0.80901700255871778 0 -0.5877852410284794 0.5877852410284794 0 0.80901700255871778 1 I I 0 1 1 forward I I I I #
face $-1 $89 $90 $31 $-1 $91 forward single #
loop $-1 $92 $93 $40 #
cone-surface $-1 -63.381868552301796 31.870167555839217 3.4586040997044702 0.80901700255871778 0 -0.5877852410284794 0.5877852410284794 0 0.80901700255871778 1 I I 0 1 1 forward I I I I #
face $-1 $94 $95 $32 $-1 $96 reversed single #
loop $-1 $-1 $97 $41 #
plane-surface $-1 82.579488092760357 -16.186702756103792 187.67772614118007 0 -1 0 -0.7660444514056185 0 -0.64278759981090561 forward_v I I I I #
face $-1 $98 $99 $33 $-1 $100 forward single #
loop $-1 $101 $102 $42 #
cone-surface $-1 62.509727256471308 -21.572459120700067 3.0202148700529969 -0.7660444514056185 0 -0.64278759981090561 0.64278759981090561 0 -0.7660444514056185 1 I I 0 1 1 forward I I I I #
face $-1 $103 $104 $34 $-1 $105 reversed single #
loop $-1 $-1 $106 $43 #
plane-surface $-1 82.579488092760357 23.321109856421799 187.67772614118007 0 1 0 0.7660444514056185 0 0.64278759981090561 forward_v I I I I #
face $-1 $107 $108 $35 $-1 $109 forward single #
loop $-1 $110 $111 $44 #
cone-surface $-1 62.509727256471308 28.706866221018075 3.0202148700529969 -0.7660444514056185 0 -0.64278759981090561 0.64278759981090561 0 -0.7660444514056185 1 I I 0 1 1 forward I I I I #
face $-1 $112 $113 $27 $-1 $114 reversed single #
loop $-1 $-1 $115 $45 #
plane-surface $-1 0 0 7.0507543020012271 0 0 1 1 0 0 forward_v I I I I #
coedge $-1 $116 $117 $118 $119 reversed $46 $-1 #
face $-1 $120 $121 $28 $-1 $122 reversed single #
loop $-1 $-1 $123 $48 #
plane-surface $-1 0 0 -7.0507543020012271 0 0 1 1 0 0 forward_v I I I I #
coedge $-1 $124 $125 $126 $127 forward $49 $-1 #
face $-1 $128 $129 $29 $-1 $130 reversed single #
loop $-1 $-1 $131 $51 #
plane-surface $-1 -66.248359630115658 30.203326283507892 0.65631441966992554 -0.80901700255871778 0 0.5877852410284794 0.5877852410284794 0 0.80901700255871778 forward_v I I I I #
coedge $-1 $132 $133 $134 $135 reversed $52 $-1 #
face $-1 $-1 $136 $30 $-1 $137 forward single #
loop $-1 $138 $139 $54 #
cone-surface $-1 -62.433785163839211 28.536485011176538 2.7697812180591228 0.80901700255871778 0 -0.5877852410284794 0.2938926205142397 0 0.40450850127935889 1 I I -0.70710678118654746 0.70710678118654746 0.5 forward I I I I #
loop $-1 $-1 $140 $39 #
coedge $-1 $88 $88 $141 $142 reversed $55 $-1 #
face $-1 $-1 $143 $31 $-1 $144 forward single #
loop $-1 $145 $146 $57 #
cone-surface $-1 -62.433785163839211 31.870167555839217 2.7697812180591228 0.80901700255871778 0 -0.5877852410284794 0.2938926205142397 0 0.40450850127935889 1 I I -0.70710678118654746 0.70710678118654746 0.5 forward I I I I #
loop $-1 $-1 $147 $40 #
coedge $-1 $93 $93 $148 $149 reversed $58 $-1 #
face $-1 $150 $151 $32 $-1 $152 reversed single #
loop $-1 $-1 $153 $60 #
plane-surface $-1 -18.918888525987782 -21.572459120700067 102.51047798507659 0.7660444514056185 0 0.64278759981090561 0.64278759981090561 0 -0.7660444514056185 forward_v I I I I #
coedge $-1 $154 $155 $156 $157 reversed $61 $-1 #
face $-1 $-1 $158 $33 $-1 $159 forward single #
loop $-1 $160 $161 $63 #
cone-surface $-1 60.921588316358978 -21.572459120700067 1.6876081060357073 -0.7660444514056185 0 -0.64278759981090561 0.3213937999054528 0 -0.38302222570280925 1 I I -0.70710678118654746 0.70710678118654746 0.5 forward I I I I #
loop $-1 $-1 $162 $42 #
coedge $-1 $102 $102 $163 $164 reversed $64 $-1 #
face $-1 $165 $166 $34 $-1 $167 reversed single #
loop $-1 $-1 $168 $66 #
plane-surface $-1 -18.918888525987782 28.706866221018075 102.51047798507659 0.7660444514056185 0 0.64278759981090561 0.64278759981090561 0 -0.7660444514056185 forward_v I I I I #
coedge $-1 $169 $170 $171 $172 reversed $67 $-1 #
face $-1 $-1 $173 $35 $-1 $174 forward single #
loop $-1 $175 $176 $69 #
cone-surface $-1 60.921588316358978 28.706866221018075 1.6876081060357073 -0.7660444514056185 0 -0.64278759981090561 0.3213937999054528 0 -0.38302222570280925 1 I I -0.70710678118654746 0.70710678118654746 0.5 forward I I I I #
loop $-1 $-1 $177 $44 #
coedge $-1 $111 $111 $178 $179 reversed $70 $-1 #
face $-1 $180 $181 $27 $-1 $182 reversed single #
loop $-1 $-1 $183 $72 #
plane-surface $-1 0 0 -7.0507543020012271 0 0 1 1 0 0 forward_v I I I I #
coedge $-1 $184 $185 $186 $187 forward $73 $-1 #
coedge $-1 $188 $75 $189 $190 reversed $46 $-1 #
coedge $-1 $75 $188 $191 $192 forward $46 $-1 #
coedge $-1 $193 $183 $75 $119 forward $113 $-1 #
edge $-1 $194 -66.248359630115658 $195 66.248359630115658 $75 $196 forward 7 unknown #
face $-1 $197 $198 $28 $-1 $199 reversed single #
loop $-1 $-1 $200 $76 #
plane-surface $-1 -53.646851026113204 -41.227029685932365 0 0 1 0 0 0 1 forward_v I I I I #
coedge $-1 $201 $202 $125 $203 forward $77 $-1 #
coedge $-1 $204 $79 $205 $206 reversed $49 $-1 #
coedge $-1 $79 $204 $123 $203 reversed $49 $-1 #
coedge $-1 $207 $208 $79 $127 reversed $198 $-1 #
edge $-1 $209 -7.0507543020012271 $210 7.0507543020012271 $126 $211 forward 7 unknown #
face $-1 $212 $213 $29 $-1 $214 forward single #
loop $-1 $-1 $215 $80 #
plane-surface $-1 -66.248359630115658 0 0 1 0 0 0 0 -1 forward_v I I I I #
coedge $-1 $216 $217 $218 $219 reversed $81 $-1 #
coedge $-1 $133 $83 $220 $221 reversed $52 $-1 #
coedge $-1 $83 $132 $216 $222 reversed $52 $-1 #
coedge $-1 $218 $223 $83 $135 forward $213 $-1 #
edge $-1 $224 20.471869517330305 $225 25.117701898591577 $134 $226 forward 7 unknown #
loop $-1 $-1 $141 $84 #
plane-surface $-1 -66.248359630115658 30.203326283507892 0.65631441966992554 -0.80901700255871778 0 0.5877852410284794 0.5877852410284794 0 0.80901700255871778 forward_v I I I I #
loop $-1 $-1 $227 $54 #
coedge $-1 $139 $139 $140 $228 reversed $85 $-1 #
coedge $-1 $140 $140 $139 $228 forward $87 $-1 #
coedge $-1 $141 $141 $88 $142 forward $136 $-1 #
edge $-1 $229 0 $229 6.2831853071796004 $141 $230 forward 7 unknown #
loop $-1 $-1 $148 $89 #
plane-surface $-1 -66.248359630115658 30.203326283507892 0.65631441966992554 -0.80901700255871778 0 0.5877852410284794 0.5877852410284794 0 0.80901700255871778 forward_v I I I I #
loop $-1 $-1 $231 $57 #
coedge $-1 $146 $146 $147 $232 reversed $90 $-1 #
coedge $-1 $147 $147 $146 $232 forward $92 $-1 #
coedge $-1 $148 $148 $93 $149 forward $143 $-1 #
edge $-1 $233 0 $233 6.2831853071796004 $148 $234 forward 7 unknown #
face $-1 $235 $236 $32 $-1 $237 forward single #
loop $-1 $-1 $238 $94 #
plane-surface $-1 82.579488092760357 -26.958215485296343 187.67772614118007 0 1 0 0.7660444514056185 0 0.64278759981090561 forward_v I I I I #
coedge $-1 $239 $240 $241 $242 reversed $95 $-1 #
coedge $-1 $155 $97 $243 $244 reversed $61 $-1 #
coedge $-1 $97 $154 $239 $245 reversed $61 $-1 #
coedge $-1 $241 $246 $97 $157 forward $236 $-1 #
edge $-1 $247 -24.95861558373548 $248 -19.891584265265848 $156 $249 forward 7 unknown #
loop $-1 $-1 $163 $98 #
plane-surface $-1 -18.918888525987782 -21.572459120700067 102.51047798507659 0.7660444514056185 0 0.64278759981090561 0.64278759981090561 0 -0.7660444514056185 forward_v I I I I #
loop $-1 $-1 $250 $63 #
coedge $-1 $161 $161 $162 $251 reversed $99 $-1 #
coedge $-1 $162 $162 $161 $251 forward $101 $-1 #
coedge $-1 $163 $163 $102 $164 forward $158 $-1 #
edge $-1 $252 0 $252 6.2831853071796004 $163 $253 forward 7 unknown #
face $-1 $254 $255 $34 $-1 $256 forward single #
loop $-1 $-1 $171 $103 #
plane-surface $-1 66.248359630115658 0 0 -1 0 0 0 0 1 forward_v I I I I #
coedge $-1 $257 $258 $259 $260 reversed $104 $-1 #
coedge $-1 $170 $106 $261 $262 reversed $67 $-1 #
coedge $-1 $106 $169 $257 $263 reversed $67 $-1 #
coedge $-1 $259 $264 $106 $172 forward $166 $-1 #
edge $-1 $265 86.788108768588813 $266 92.826761704261543 $171 $267 forward 7 unknown #
loop $-1 $-1 $178 $107 #
plane-surface $-1 -18.918888525987782 28.706866221018075 102.51047798507659 0.7660444514056185 0 0.64278759981090561 0.64278759981090561 0 -0.7660444514056185 forward_v I I I I #
loop $-1 $-1 $268 $69 #
coedge $-1 $176 $176 $177 $269 reversed $108 $-1 #
coedge $-1 $177 $177 $176 $269 forward $110 $-1 #
coedge $-1 $178 $178 $111 $179 forward $173 $-1 #
edge $-1 $270 0 $270 6.2831853071796004 $178 $271 forward 7 unknown #
face $-1 $272 $273 $27 $-1 $274 reversed single #
loop $-1 $-1 $275 $112 #
plane-surface $-1 -66.248359630115658 0 0 1 0 0 0 0 -1 forward_v I I I I #
coedge $-1 $118 $276 $277 $278 forward $113 $-1 #
coedge $-1 $279 $115 $280 $281 forward $73 $-1 #
coedge $-1 $115 $279 $188 $282 forward $73 $-1 #
coedge $-1 $189 $283 $115 $187 reversed $284 $-1 #
edge $-1 $285 -34.09262258561435 $286 34.09262258561435 $186 $287 forward 7 unknown #
coedge $-1 $117 $116 $185 $282 reversed $46 $-1 #
coedge $-1 $277 $186 $116 $190 forward $284 $-1 #
edge $-1 $285 -7.0507543020012271 $194 7.0507543020012271 $189 $288 forward 7 unknown #
coedge $-1 $289 $290 $117 $192 reversed $181 $-1 #
edge $-1 $291 -7.0507543020012271 $195 7.0507543020012271 $191 $292 forward 7 unknown #
coedge $-1 $276 $118 $290 $293 forward $113 $-1 #
vertex $-1 $190 $294 #
vertex $-1 $293 $295 #
straight-curve $-1 0 -34.09262258561435 -7.0507543020012271 -1 0 0 I I #
face $-1 $296 $297 $28 $-1 $298 reversed single #
loop $-1 $-1 $126 $120 #
plane-surface $-1 -55.146851026113204 -37.659826135773358 0 1 0 0 0 0 -1 forward_v I I I I #
coedge $-1 $299 $300 $301 $302 forward $121 $-1 #
coedge $-1 $303 $123 $304 $305 forward $77 $-1 #
coedge $-1 $123 $303 $207 $306 forward $77 $-1 #
edge $-1 $209 -55.146851026113204 $307 -52.146851026113204 $123 $308 forward 7 unknown #
coedge $-1 $125 $124 $309 $310 forward $49 $-1 #
coedge $-1 $311 $312 $124 $206 forward $313 $-1 #
edge $-1 $314 52.146851026113204 $210 55.146851026113204 $205 $315 forward 7 unknown #
coedge $-1 $301 $126 $202 $306 reversed $198 $-1 #
coedge $-1 $126 $301 $311 $316 reversed $198 $-1 #
vertex $-1 $203 $317 #
vertex $-1 $316 $318 #
straight-curve $-1 -55.146851026113204 -34.09262258561435 0 0 0 1 I I #
face $-1 $-1 $319 $29 $-1 $320 reversed single #
loop $-1 $-1 $218 $128 #
plane-surface $-1 0 0 7.0507543020012271 0 0 1 1 0 0 forward_v I I I I #
coedge $-1 $220 $321 $322 $323 forward $129 $-1 #
coedge $-1 $322 $131 $133 $222 forward $81 $-1 #
coedge $-1 $131 $322 $324 $325 reversed $81 $-1 #
coedge $-1 $326 $134 $131 $219 forward $213 $-1 #
edge $-1 $225 11.21236683964748 $327 18.990959443860412 $218 $328 forward 7 unknown #
coedge $-1 $329 $215 $132 $221 forward $129 $-1 #
edge $-1 $330 -38.611650823093953 $224 -32.217210940762655 $220 $331 forward 7 unknown #
edge $-1 $225 -7.9039622926431612 $330 0 $133 $332 forward 7 unknown #
coedge $-1 $134 $326 $329 $333 forward $213 $-1 #
vertex $-1 $221 $334 #
vertex $-1 $135 $335 #
straight-curve $-1 -86.720229147445963 26.314029981401426 7.0507543020012236 1 0 0 I I #
coedge $-1 $227 $227 $-1 $336 reversed $138 $-1 #
edge $-1 $337 0 $337 6.2831853071796004 $139 $338 forward 7 unknown #
vertex $-1 $142 $339 #
ellipse-curve $-1 -63.925443439485022 28.536485011176538 3.8535343608355772 -0.80901700255871778 0 0.5877852410284794 0.5877852410284794 0 0.80901700255871778 1 I I #
coedge $-1 $231 $231 $-1 $340 reversed $145 $-1 #
edge $-1 $341 0 $341 6.2831853071796004 $146 $342 forward 7 unknown #
vertex $-1 $149 $343 #
ellipse-curve $-1 -63.925443439485022 31.870167555839217 3.8535343608355772 -0.80901700255871778 0 0.5877852410284794 0.5877852410284794 0 0.80901700255871778 1 I I #
face $-1 $-1 $344 $32 $-1 $345 reversed single #
loop $-1 $-1 $156 $150 #
plane-surface $-1 0 0 7.0507543020012271 0 0 1 1 0 0 forward_v I I I I #
coedge $-1 $346 $347 $348 $349 reversed $151 $-1 #
coedge $-1 $350 $153 $155 $245 forward $95 $-1 #
coedge $-1 $153 $350 $346 $351 forward $95 $-1 #
coedge $-1 $348 $156 $153 $242 forward $236 $-1 #
edge $-1 $248 5.4004731957537579 $352 16.171985924946309 $241 $353 forward 7 unknown #
coedge $-1 $354 $355 $154 $244 forward $344 $-1 #
edge $-1 $356 -92.826761704261543 $247 -86.788108768588813 $243 $357 forward 7 unknown #
edge $-1 $248 124.61381778552915 $356 132.49671926023129 $155 $358 forward 7 unknown #
coedge $-1 $156 $348 $354 $359 forward $236 $-1 #
vertex $-1 $157 $360 #
vertex $-1 $157 $361 #
straight-curve $-1 41.289744046380179 -16.186702756103792 7.0507543020012236 -1 0 0 I I #
coedge $-1 $250 $250 $-1 $362 reversed $160 $-1 #
edge $-1 $363 0 $363 6.2831853071796004 $161 $364 forward 7 unknown #
vertex $-1 $164 $365 #
ellipse-curve $-1 63.714843970880843 -21.572459120700067 4.0314278341648464 0.7660444514056185 0 0.64278759981090561 0.64278759981090561 0 -0.7660444514056185 1 I I #
face $-1 $-1 $366 $34 $-1 $367 reversed single #
loop $-1 $-1 $261 $165 #
plane-surface $-1 0 0 7.0507543020012271 0 0 1 1 0 0 forward_v I I I I #
coedge $-1 $368 $168 $170 $263 forward $104 $-1 #
coedge $-1 $168 $368 $369 $370 reversed $104 $-1 #
coedge $-1 $371 $171 $168 $260 forward $166 $-1 #
edge $-1 $266 8.9676767459127618 $372 19.739189475105313 $259 $373 forward 7 unknown #
coedge $-1 $374 $375 $169 $262 forward $255 $-1 #
edge $-1 $376 19.891584265265848 $265 24.95861558373548 $261 $377 forward 7 unknown #
edge $-1 $266 -132.49671926023129 $376 -124.61381778552915 $170 $378 forward 7 unknown #
coedge $-1 $171 $371 $374 $379 reversed $166 $-1 #
vertex $-1 $379 $380 #
vertex $-1 $172 $381 #
straight-curve $-1 66.248359630115658 23.321109856421799 93.838863070590037 0 0 -1 I I #
coedge $-1 $268 $268 $-1 $382 reversed $175 $-1 #
edge $-1 $383 0 $383 6.2831853071796004 $176 $384 forward 7 unknown #
vertex $-1 $179 $385 #
ellipse-curve $-1 63.714843970880843 28.706866221018075 4.0314278341648464 0.7660444514056185 0 0.64278759981090561 0.64278759981090561 0 -0.7660444514056185 1 I I #
face $-1 $-1 $284 $27 $-1 $386 reversed single #
loop $-1 $-1 $387 $180 #
plane-surface $-1 0 34.09262258561435 0 0 -1 0 0 0 -1 forward_v I I I I #
coedge $-1 $290 $289 $388 $389 forward $181 $-1 #
coedge $-1 $183 $193 $390 $391 forward $113 $-1 #
coedge $-1 $283 $189 $183 $278 reversed $284 $-1 #
edge $-1 $392 -34.09262258561435 $194 34.09262258561435 $277 $393 forward 7 unknown #
coedge $-1 $185 $184 $289 $394 forward $73 $-1 #
coedge $-1 $387 $388 $184 $281 reversed $273 $-1 #
edge $-1 $286 -66.248359630115658 $395 66.248359630115658 $280 $396 forward 7 unknown #
edge $-1 $291 -66.248359630115658 $285 66.248359630115658 $188 $397 forward 7 unknown #
coedge $-1 $186 $277 $387 $398 reversed $284 $-1 #
loop $-1 $-1 $189 $272 #
vertex $-1 $187 $399 #
vertex $-1 $187 $400 #
straight-curve $-1 66.248359630115658 0 7.0507543020012271 0 1 0 I I #
straight-curve $-1 66.248359630115658 -34.09262258561435 0 0 0 -1 I I #
coedge $-1 $275 $191 $279 $394 reversed $181 $-1 #
coedge $-1 $191 $275 $193 $293 reversed $181 $-1 #
vertex $-1 $394 $401 #
straight-curve $-1 -66.248359630115658 -34.09262258561435 0 0 0 -1 I I #
edge $-1 $195 -34.09262258561435 $402 34.09262258561435 $290 $403 forward 7 unknown #
point $-1 66.248359630115658 -34.09262258561435 -7.0507543020012271 #
point $-1 -66.248359630115658 -34.09262258561435 -7.0507543020012271 #
face $-1 $-1 $313 $28 $-1 $404 forward single #
loop $-1 $-1 $405 $197 #
plane-surface $-1 -52.146851026113204 -37.659826135773358 0 -1 0 0 0 0 1 forward_v I I I I #
coedge $-1 $406 $200 $303 $407 reversed $121 $-1 #
coedge $-1 $200 $406 $408 $409 reversed $121 $-1 #
coedge $-1 $208 $207 $200 $302 reversed $198 $-1 #
edge $-1 $410 -7.0507543020012271 $411 7.0507543020012271 $301 $412 forward 7 unknown #
coedge $-1 $202 $201 $299 $407 forward $77 $-1 #
coedge $-1 $309 $405 $201 $305 reversed $297 $-1 #
edge $-1 $307 -3.5672035501590074 $413 3.5672035501590074 $304 $414 forward 7 unknown #
edge $-1 $411 -3.5672035501590074 $209 3.5672035501590074 $207 $415 forward 7 unknown #
vertex $-1 $305 $416 #
straight-curve $-1 0 -34.09262258561435 -7.0507543020012271 1 0 0 I I #
coedge $-1 $417 $304 $204 $310 reversed $297 $-1 #
edge $-1 $314 -7.0507543020012271 $307 7.0507543020012271 $309 $418 forward 7 unknown #
coedge $-1 $408 $205 $208 $316 forward $313 $-1 #
coedge $-1 $205 $408 $417 $419 forward $313 $-1 #
loop $-1 $-1 $205 $296 #
vertex $-1 $206 $420 #
straight-curve $-1 0 -34.09262258561435 7.0507543020012271 -1 0 0 I I #
edge $-1 $210 -3.5672035501590074 $410 3.5672035501590074 $208 $421 forward 7 unknown #
point $-1 -55.146851026113204 -34.09262258561435 -7.0507543020012271 #
point $-1 -55.146851026113204 -34.09262258561435 7.0507543020012271 #
loop $-1 $-1 $324 $212 #
plane-surface $-1 0 34.09262258561435 0 0 -1 0 0 0 -1 forward_v I I I I #
coedge $-1 $215 $329 $422 $423 forward $129 $-1 #
coedge $-1 $217 $216 $215 $323 reversed $81 $-1 #
edge $-1 $424 -18.990959443860412 $330 -11.21236683964748 $215 $425 forward 7 unknown #
coedge $-1 $422 $426 $217 $325 forward $319 $-1 #
edge $-1 $327 11.300456961552586 $424 19.204419254195745 $324 $427 forward 7 unknown #
coedge $-1 $223 $218 $426 $428 forward $213 $-1 #
vertex $-1 $428 $429 #
straight-curve $-1 -61.602527248854379 15.101663141753946 7.0507543020012289 0 1 0 I I #
coedge $-1 $321 $220 $223 $333 reversed $129 $-1 #
vertex $-1 $221 $430 #
straight-curve $-1 -66.248359630115658 26.314029981401426 39.267965242763879 0 0 1 I I #
straight-curve $-1 -66.248359630115658 26.314029981401426 0.65631441966992554 -0.5877852410284794 0 -0.80901700255871778 I I #
edge $-1 $431 -34.09262258561435 $224 -26.314029981401426 $329 $432 forward 7 unknown #
point $-1 -66.248359630115658 26.314029981401426 7.0507543020012271 #
point $-1 -61.602527248854386 26.314029981401426 7.0507543020012271 #
edge $-1 $433 1 $433 0 $227 $-1 forward 7 unknown #
vertex $-1 $228 $434 #
ellipse-curve $-1 -62.83829366511857 28.536485011176538 3.0636738385733624 -0.80901700255871778 0 0.5877852410284794 0.5877852410284794 0 0.80901700255871778 1 I I #
point $-1 -63.337658198456538 28.536485011176538 4.6625513633942957 #
edge $-1 $435 1 $435 0 $231 $-1 forward 7 unknown #
vertex $-1 $232 $436 #
ellipse-curve $-1 -62.83829366511857 31.870167555839217 3.0636738385733624 -0.80901700255871778 0 0.5877852410284794 0.5877852410284794 0 0.80901700255871778 1 I I #
point $-1 -63.337658198456538 31.870167555839217 4.6625513633942957 #
loop $-1 $-1 $243 $235 #
plane-surface $-1 66.248359630115658 0 0 -1 0 0 0 0 1 forward_v I I I I #
coedge $-1 $347 $238 $240 $351 reversed $151 $-1 #
coedge $-1 $238 $346 $437 $438 reversed $151 $-1 #
coedge $-1 $246 $241 $238 $349 forward $236 $-1 #
edge $-1 $352 19.891584265265848 $439 24.95861558373548 $348 $440 forward 7 unknown #
coedge $-1 $240 $239 $355 $441 reversed $95 $-1 #
edge $-1 $442 -132.49671926023129 $352 -124.61381778552915 $346 $443 forward 7 unknown #
vertex $-1 $242 $444 #
straight-curve $-1 61.181328311646034 -10.786229560350034 7.0507543020012164 0 -1 0 I I #
coedge $-1 $437 $243 $246 $359 reversed $344 $-1 #
coedge $-1 $243 $437 $350 $441 forward $344 $-1 #
vertex $-1 $244 $445 #
straight-curve $-1 66.248359630115658 -16.186702756103792 93.838863070590037 0 0 1 I I #
straight-curve $-1 -18.918888525987782 -16.186702756103792 102.51047798507659 0.64278759981090561 0 -0.7660444514056185 I I #
edge $-1 $439 -26.958215485296343 $247 -16.186702756103792 $354 $446 forward 7 unknown #
point $-1 66.248359630115658 -16.186702756103792 7.0507543020012271 #
point $-1 61.181328311646027 -16.186702756103792 7.0507543020012236 #
edge $-1 $447 1 $447 0 $250 $-1 forward 7 unknown #
vertex $-1 $251 $448 #
ellipse-curve $-1 61.304610542061788 -21.572459120700067 2.0090019059411599 0.7660444514056185 0 0.64278759981090561 0.64278759981090561 0 -0.7660444514056185 1 I I #
point $-1 64.357631570691737 -21.572459120700067 3.2653833827592149 #
loop $-1 $-1 $369 $254 #
plane-surface $-1 0 34.09262258561435 0 0 -1 0 0 0 -1 forward_v I I I I #
coedge $-1 $258 $257 $375 $449 reversed $104 $-1 #
coedge $-1 $450 $451 $258 $370 forward $366 $-1 #
edge $-1 $372 -87.152514351173508 $452 -79.269612876471385 $369 $453 forward 7 unknown #
coedge $-1 $264 $259 $451 $454 reversed $166 $-1 #
vertex $-1 $260 $455 #
straight-curve $-1 66.248359630115658 14.353433110509037 1.0121013663284941 0 1 0 I I #
coedge $-1 $456 $261 $264 $379 forward $255 $-1 #
coedge $-1 $261 $456 $368 $449 forward $255 $-1 #
vertex $-1 $262 $457 #
straight-curve $-1 41.289744046380179 23.321109856421799 7.0507543020012236 1 0 0 I I #
straight-curve $-1 -18.918888525987782 23.321109856421799 102.51047798507659 -0.64278759981090561 0 0.7660444514056185 I I #
edge $-1 $265 23.321109856421799 $458 34.09262258561435 $264 $459 forward 7 unknown #
point $-1 66.248359630115658 23.321109856421799 7.0507543020012271 #
point $-1 66.248359630115658 23.321109856421799 1.0121013663284941 #
edge $-1 $460 1 $460 0 $268 $-1 forward 7 unknown #
vertex $-1 $269 $461 #
ellipse-curve $-1 61.304610542061788 28.706866221018075 2.0090019059411599 0.7660444514056185 0 0.64278759981090561 0.64278759981090561 0 -0.7660444514056185 1 I I #
point $-1 64.357631570691737 28.706866221018075 3.2653833827592149 #
plane-surface $-1 66.248359630115658 0 0 -1 0 0 0 0 1 forward_v I I I I #
coedge $-1 $390 $280 $283 $398 forward $273 $-1 #
coedge $-1 $280 $390 $275 $389 reversed $273 $-1 #
edge $-1 $395 -7.0507543020012271 $402 7.0507543020012271 $388 $462 forward 7 unknown #
coedge $-1 $388 $387 $276 $391 reversed $273 $-1 #
edge $-1 $402 -66.248359630115658 $392 66.248359630115658 $390 $463 forward 7 unknown #
vertex $-1 $278 $464 #
straight-curve $-1 66.248359630115658 0 -7.0507543020012271 0 -1 0 I I #
edge $-1 $395 -34.09262258561435 $291 34.09262258561435 $289 $465 forward 7 unknown #
vertex $-1 $281 $466 #
straight-curve $-1 0 34.09262258561435 7.0507543020012271 -1 0 0 I I #
straight-curve $-1 0 -34.09262258561435 7.0507543020012271 1 0 0 I I #
edge $-1 $286 -7.0507543020012271 $392 7.0507543020012271 $283 $467 forward 7 unknown #
point $-1 66.248359630115658 -34.09262258561435 7.0507543020012271 #
point $-1 66.248359630115658 34.09262258561435 7.0507543020012271 #
point $-1 -66.248359630115658 -34.09262258561435 7.0507543020012271 #
vertex $-1 $391 $468 #
straight-curve $-1 -66.248359630115658 0 -7.0507543020012271 0 1 0 I I #
plane-surface $-1 0 0 7.0507543020012271 0 0 1 1 0 0 forward_v I I I I #
coedge $-1 $304 $417 $406 $469 forward $297 $-1 #
coedge $-1 $300 $299 $405 $469 reversed $121 $-1 #
edge $-1 $413 -1.5 $411 1.5 $299 $470 forward 7 unknown #
coedge $-1 $312 $311 $300 $409 forward $313 $-1 #
edge $-1 $410 -1.5 $471 1.5 $300 $472 forward 7 unknown #
vertex $-1 $316 $473 #
vertex $-1 $306 $474 #
straight-curve $-1 -55.146851026113204 -41.227029685932365 0 0 0 -1 I I #
vertex $-1 $469 $475 #
straight-curve $-1 -52.146851026113204 -37.659826135773358 -7.0507543020012271 0 -1 0 I I #
straight-curve $-1 -55.146851026113204 -37.659826135773358 -7.0507543020012271 0 1 0 I I #
point $-1 -52.146851026113204 -34.09262258561435 -7.0507543020012271 #
coedge $-1 $405 $309 $312 $419 reversed $297 $-1 #
straight-curve $-1 -52.146851026113204 -34.09262258561435 0 0 0 -1 I I #
edge $-1 $471 -3.5672035501590074 $314 3.5672035501590074 $417 $476 forward 7 unknown #
point $-1 -52.146851026113204 -34.09262258561435 7.0507543020012271 #
straight-curve $-1 -55.146851026113204 -37.659826135773358 7.0507543020012271 0 -1 0 I I #
coedge $-1 $426 $324 $321 $423 reversed $319 $-1 #
edge $-1 $431 -7.0507543020012271 $424 -0.65631441966992554 $422 $477 forward 7 unknown #
vertex $-1 $325 $478 #
straight-curve $-1 -66.248359630115658 15.101663141753946 0.65631441966991633 0 -1 0 I I #
coedge $-1 $324 $422 $326 $428 reversed $319 $-1 #
straight-curve $-1 -54.960285429976238 34.09262258561435 16.193016120580292 -0.5877852410284794 0 -0.80901700255871778 I I #
edge $-1 $327 61.602527248854386 $431 66.248359630115658 $426 $479 forward 7 unknown #
point $-1 -61.602527248854386 34.092622585614357 7.0507543020012271 #
point $-1 -66.248359630115658 26.314029981401426 0.65631441966992554 #
vertex $-1 $428 $480 #
straight-curve $-1 -66.248359630115658 0 7.0507543020012271 0 -1 0 I I #
vertex $-1 $336 $481 #
point $-1 -62.250508424090093 28.536485011176538 3.8726908411320804 #
vertex $-1 $340 $482 #
point $-1 -62.250508424090093 31.870167555839217 3.8726908411320804 #
coedge $-1 $355 $354 $347 $438 forward $344 $-1 #
edge $-1 $439 86.788108768588813 $442 92.826761704261543 $437 $483 forward 7 unknown #
vertex $-1 $359 $484 #
straight-curve $-1 41.289744046380179 -26.958215485296343 7.0507543020012236 1 0 0 I I #
edge $-1 $442 -16.171985924946309 $356 -5.4004731957537579 $355 $485 forward 7 unknown #
vertex $-1 $441 $486 #
straight-curve $-1 -18.918888525987782 -26.958215485296343 102.51047798507659 -0.64278759981090561 0 0.7660444514056185 I I #
point $-1 61.181328311646027 -26.958215485296343 7.0507543020012236 #
point $-1 66.248359630115658 -16.186702756103792 1.0121013663284941 #
straight-curve $-1 66.248359630115658 0 7.0507543020012271 0 1 0 I I #
vertex $-1 $362 $487 #
point $-1 61.947398141872696 -21.572459120700067 1.2429574545355417 #
edge $-1 $452 -19.739189475105313 $376 -8.9676767459127618 $375 $488 forward 7 unknown #
coedge $-1 $451 $369 $456 $489 reversed $366 $-1 #
coedge $-1 $369 $450 $371 $454 forward $366 $-1 #
vertex $-1 $370 $490 #
straight-curve $-1 10.227804112839333 34.09262258561435 67.774801411093492 -0.64278759981090572 0 0.76604445140561861 I I #
edge $-1 $458 -7.0507543020012271 $372 -1.0121013663284877 $371 $491 forward 7 unknown #
point $-1 66.248359630115658 34.09262258561435 1.0121013663284877 #
coedge $-1 $375 $374 $450 $489 forward $255 $-1 #
point $-1 61.181328311646027 23.321109856421799 7.0507543020012236 #
vertex $-1 $379 $492 #
straight-curve $-1 66.248359630115658 0 7.0507543020012271 0 1 0 I I #
vertex $-1 $382 $493 #
point $-1 61.947398141872696 28.706866221018075 1.2429574545355417 #
straight-curve $-1 -66.248359630115658 34.09262258561435 0 0 0 -1 I I #
straight-curve $-1 0 34.09262258561435 -7.0507543020012271 1 0 0 I I #
point $-1 66.248359630115658 34.09262258561435 -7.0507543020012271 #
straight-curve $-1 -66.248359630115658 0 7.0507543020012271 0 -1 0 I I #
point $-1 -66.248359630115658 34.09262258561435 7.0507543020012271 #
straight-curve $-1 66.248359630115658 34.09262258561435 0 0 0 -1 I I #
point $-1 -66.248359630115658 34.09262258561435 -7.0507543020012271 #
edge $-1 $471 -7.0507543020012271 $413 7.0507543020012271 $405 $494 forward 7 unknown #
straight-curve $-1 -53.646851026113204 -41.227029685932365 -7.0507543020012271 -1 0 0 I I #
vertex $-1 $419 $495 #
straight-curve $-1 -53.646851026113204 -41.227029685932365 7.0507543020012271 1 0 0 I I #
point $-1 -55.146851026113204 -41.227029685932365 7.0507543020012271 #
point $-1 -55.146851026113204 -41.227029685932365 -7.0507543020012271 #
point $-1 -52.146851026113204 -41.227029685932365 -7.0507543020012271 #
straight-curve $-1 -52.146851026113204 -37.659826135773358 7.0507543020012271 0 1 0 I I #
straight-curve $-1 -66.248359630115658 34.09262258561435 0 0 0 -1 I I #
point $-1 -66.248359630115658 34.092622585614357 0.65631441966992554 #
straight-curve $-1 0 34.09262258561435 7.0507543020012271 -1 0 0 I I #
point $-1 -66.248359630115658 34.09262258561435 7.0507543020012271 #
point $-1 -62.029276662559852 28.536485011176538 2.4758885975448832 #
point $-1 -62.029276662559852 31.870167555839217 2.4758885975448832 #
straight-curve $-1 66.248359630115658 -26.958215485296343 93.838863070590037 0 0 -1 I I #
point $-1 66.248359630115658 -26.958215485296343 7.0507543020012271 #
straight-curve $-1 66.248359630115658 -10.786229560350034 1.0121013663284941 0 1 0 I I #
point $-1 66.248359630115658 -26.958215485296343 1.0121013663284941 #
point $-1 60.538566090656168 -21.572459120700067 1.3662143061302545 #
straight-curve $-1 61.181328311646034 14.353433110509037 7.0507543020012164 0 -1 0 I I #
edge $-1 $458 -66.248359630115658 $452 -61.181328311646027 $450 $496 forward 7 unknown #
point $-1 61.181328311646027 34.09262258561435 7.0507543020012236 #
straight-curve $-1 66.248359630115658 34.09262258561435 0 0 0 -1 I I #
point $-1 66.248359630115658 34.09262258561435 7.0507543020012271 #
point $-1 60.538566090656168 28.706866221018075 1.3662143061302545 #
straight-curve $-1 -52.146851026113204 -41.227029685932365 0 0 0 -1 I I #
point $-1 -52.146851026113204 -41.227029685932365 7.0507543020012271 #
straight-curve $-1 0 34.09262258561435 7.0507543020012271 -1 0 0 I I #
End-of-ACIS-data 