500 0 8 0           
7 Unknown 11 ACIS 5.0 NT 24 Thu Mar 25 17:26:00 1999 
-1 9.9999999999999995e-007 1e-010 
body $-1 $8 $-1 $9 #
body $-1 $10 $-1 $11 #
body $-1 $12 $-1 $13 #
body $-1 $14 $-1 $15 #
body $-1 $16 $-1 $17 #
body $-1 $18 $-1 $19 #
body $-1 $20 $-1 $21 #
body $-1 $22 $-1 $23 #
lump $-1 $-1 $24 $0 #
transform $-1 1 0 0 0 1 0 0 0 1 60.30579546494949 27.605724633823964 9.2132536836015539 1 rotate no_reflect no_shear #
lump $-1 $-1 $25 $1 #
transform $-1 1 0 0 0 1 0 0 0 1 60.30579546494949 27.605724633823964 9.2132536836015539 1 rotate no_reflect no_shear #
lump $-1 $-1 $26 $2 #
transform $-1 1 0 0 0 1 0 0 0 1 60.30579546494949 27.605724633823964 9.2132536836015539 1 rotate no_reflect no_shear #
lump $-1 $-1 $27 $3 #
transform $-1 1 0 0 0 1 0 0 0 1 60.30579546494949 27.605724633823964 9.2132536836015539 1 rotate no_reflect no_shear #
lump $-1 $-1 $28 $4 #
transform $-1 1 0 0 0 1 0 0 0 1 60.30579546494949 27.605724633823964 9.2132536836015539 1 rotate no_reflect no_shear #
lump $-1 $-1 $29 $5 #
transform $-1 1 0 0 0 1 0 0 0 1 60.30579546494949 27.605724633823964 9.2132536836015539 1 rotate no_reflect no_shear #
lump $-1 $-1 $30 $6 #
transform $-1 1 0 0 0 1 0 0 0 1 60.30579546494949 27.605724633823964 9.2132536836015539 1 rotate no_reflect no_shear #
lump $-1 $-1 $31 $7 #
transform $-1 1 0 0 0 1 0 0 0 1 60.30579546494949 27.605724633823964 9.2132536836015539 1 rotate no_reflect no_shear #
shell $-1 $-1 $-1 $32 $-1 $8 #
shell $-1 $-1 $-1 $33 $-1 $10 #
shell $-1 $-1 $-1 $34 $-1 $12 #
shell $-1 $-1 $-1 $35 $-1 $14 #
shell $-1 $-1 $-1 $36 $-1 $16 #
shell $-1 $-1 $-1 $37 $-1 $18 #
shell $-1 $-1 $-1 $38 $-1 $20 #
shell $-1 $-1 $-1 $39 $-1 $22 #
face $-1 $40 $41 $24 $-1 $42 forward single #
face $-1 $43 $44 $25 $-1 $45 forward single #
face $-1 $46 $47 $26 $-1 $48 reversed single #
face $-1 $49 $50 $27 $-1 $51 forward single #
face $-1 $52 $53 $28 $-1 $54 forward single #
face $-1 $55 $56 $29 $-1 $57 reversed single #
face $-1 $58 $59 $30 $-1 $60 forward single #
face $-1 $61 $62 $31 $-1 $63 forward single #
face $-1 $64 $65 $24 $-1 $66 reversed single #
loop $-1 $-1 $67 $32 #
plane-surface $-1 0 0 9.2132536836015539 0 0 1 1 0 0 forward_v I I I I #
face $-1 $68 $69 $25 $-1 $70 reversed single #
loop $-1 $-1 $71 $33 #
plane-surface $-1 0 -21.993462168924182 -4.1168079514272495 0 0 1 1 0 0 forward_v I I I I #
face $-1 $72 $73 $26 $-1 $74 reversed single #
loop $-1 $-1 $75 $34 #
plane-surface $-1 -149.93767615590849 -0.57326267788844731 84.908385207334192 0 1 0 -0.74314483375859142 0 0.66913059716165679 forward_v I I I I #
face $-1 $76 $77 $27 $-1 $78 forward single #
loop $-1 $79 $80 $35 #
cone-surface $-1 -57.67881256591248 1.6443145538574697 6.3738012151166625 0.74314483375859142 0 -0.66913059716165679 0.1672826492904142 0 0.18578620843964785 1 I I 0 1 0.25 forward I I I I #
face $-1 $81 $82 $28 $-1 $83 forward single #
loop $-1 $84 $85 $36 #
cone-surface $-1 -57.67881256591248 4.970680401476347 6.3738012151166625 0.74314483375859142 0 -0.66913059716165679 0.1672826492904142 0 0.18578620843964785 1 I I 0 1 0.25 forward I I I I #
face $-1 $86 $87 $29 $-1 $88 reversed single #
loop $-1 $-1 $89 $37 #
plane-surface $-1 39.518476474594458 17.864806450386542 170.91924767801041 0 -1 0 -0.61566148304635926 0 -0.78801074757464917 forward_v I I I I #
face $-1 $90 $91 $30 $-1 $92 forward single #
loop $-1 $93 $94 $38 #
cone-surface $-1 54.877277502477327 10.144336190882026 4.6882326400008738 -0.61566148304635926 0 -0.78801074757464917 1.1820161213619738 0 -0.92349222456953894 1 I I 0 1 1.5 forward I I I I #
face $-1 $95 $96 $31 $-1 $97 forward single #
loop $-1 $98 $99 $39 #
cone-surface $-1 54.877277502477327 14.776618346584737 4.6882326400008738 -0.61566148304635926 0 -0.78801074757464917 1.1820161213619738 0 -0.92349222456953894 1 I I 0 1 1.5 forward I I I I #
face $-1 $100 $101 $24 $-1 $102 reversed single #
loop $-1 $-1 $103 $40 #
plane-surface $-1 0 0 -9.2132536836015539 0 0 1 1 0 0 forward_v I I I I #
coedge $-1 $104 $105 $106 $107 forward $41 $-1 #
face $-1 $108 $109 $25 $-1 $110 reversed single #
loop $-1 $-1 $111 $43 #
plane-surface $-1 0 -21.993462168924182 -7.1168079514272495 0 0 1 1 0 0 forward_v I I I I #
coedge $-1 $112 $113 $114 $115 reversed $44 $-1 #
face $-1 $116 $117 $26 $-1 $118 reversed single #
loop $-1 $-1 $119 $46 #
plane-surface $-1 -60.305795464949483 3.3074974776669066 4.2034793437934184 -0.74314483375859142 0 0.66913059716165679 0.66913059716165679 0 0.74314483375859142 forward_v I I I I #
coedge $-1 $120 $121 $122 $123 reversed $47 $-1 #
face $-1 $-1 $124 $27 $-1 $125 forward single #
loop $-1 $126 $127 $49 #
cone-surface $-1 -57.214347044813358 1.6443145538574697 5.9555945918906268 0.74314483375859142 0 -0.66913059716165679 0.083641324645207099 0 0.092893104219823927 1 I I -0.70710678118654746 0.70710678118654746 0.125 forward I I I I #
loop $-1 $-1 $128 $35 #
coedge $-1 $80 $80 $129 $130 reversed $50 $-1 #
face $-1 $-1 $131 $28 $-1 $132 forward single #
loop $-1 $133 $134 $52 #
cone-surface $-1 -57.214347044813358 4.970680401476347 5.9555945918906268 0.74314483375859142 0 -0.66913059716165679 0.083641324645207099 0 0.092893104219823927 1 I I -0.70710678118654746 0.70710678118654746 0.125 forward I I I I #
loop $-1 $-1 $135 $36 #
coedge $-1 $85 $85 $136 $137 reversed $53 $-1 #
face $-1 $138 $139 $29 $-1 $140 reversed single #
loop $-1 $-1 $141 $55 #
plane-surface $-1 -34.737434469887965 12.460477268733381 75.876017743172937 0.61566148304635926 0 0.78801074757464917 0.78801074757464917 0 -0.61566148304635926 forward_v I I I I #
coedge $-1 $142 $143 $144 $145 reversed $56 $-1 #
face $-1 $-1 $146 $30 $-1 $147 forward single #
loop $-1 $148 $149 $58 #
cone-surface $-1 53.846405738260891 10.144336190882026 3.3687769781747399 -0.61566148304635926 0 -0.78801074757464917 0.59100806068098688 0 -0.46174611228476947 1 I I -0.70710678118654768 0.70710678118654735 0.75 forward I I I I #
loop $-1 $-1 $150 $38 #
coedge $-1 $94 $94 $151 $152 reversed $59 $-1 #
face $-1 $-1 $153 $31 $-1 $154 forward single #
loop $-1 $155 $156 $61 #
cone-surface $-1 53.846405738260891 14.776618346584737 3.3687769781747399 -0.61566148304635926 0 -0.78801074757464917 0.59100806068098688 0 -0.46174611228476947 1 I I -0.70710678118654768 0.70710678118654735 0.75 forward I I I I #
loop $-1 $-1 $157 $39 #
coedge $-1 $99 $99 $158 $159 reversed $62 $-1 #
face $-1 $160 $161 $24 $-1 $162 reversed single #
loop $-1 $-1 $163 $64 #
plane-surface $-1 0 -27.605724633823964 0 0 1 0 0 0 1 forward_v I I I I #
coedge $-1 $164 $165 $166 $167 forward $65 $-1 #
coedge $-1 $168 $67 $169 $170 forward $41 $-1 #
coedge $-1 $67 $168 $171 $172 forward $41 $-1 #
coedge $-1 $173 $174 $67 $107 reversed $175 $-1 #
edge $-1 $176 -27.605724633823964 $177 27.605724633823964 $106 $178 forward 7 unknown #
face $-1 $179 $180 $25 $-1 $181 reversed single #
loop $-1 $-1 $182 $68 #
plane-surface $-1 0 -16.3811997040244 -5.6168079514272495 0 -1 0 0 0 -1 forward_v I I I I #
coedge $-1 $183 $184 $185 $186 reversed $69 $-1 #
coedge $-1 $187 $71 $188 $189 forward $44 $-1 #
coedge $-1 $71 $187 $190 $191 reversed $44 $-1 #
coedge $-1 $192 $193 $71 $115 forward $194 $-1 #
edge $-1 $195 5.384468619562309 $196 16.608993549361873 $114 $197 forward 7 unknown #
face $-1 $198 $199 $26 $-1 $200 reversed single #
loop $-1 $-1 $201 $72 #
plane-surface $-1 -149.93767615590849 7.1882576332222605 84.908385207334192 0 -1 0 0.74314483375859142 0 -0.66913059716165679 forward_v I I I I #
coedge $-1 $202 $203 $204 $205 reversed $73 $-1 #
coedge $-1 $121 $75 $206 $207 reversed $47 $-1 #
coedge $-1 $75 $120 $202 $208 reversed $47 $-1 #
coedge $-1 $204 $209 $75 $123 forward $210 $-1 #
edge $-1 $211 14.663042613004755 $212 19.173863577320198 $122 $213 forward 7 unknown #
loop $-1 $-1 $129 $76 #
plane-surface $-1 -60.305795464949483 3.3074974776669066 4.2034793437934184 -0.74314483375859142 0 0.66913059716165679 0.66913059716165679 0 0.74314483375859142 forward_v I I I I #
loop $-1 $-1 $214 $49 #
coedge $-1 $127 $127 $128 $215 reversed $77 $-1 #
coedge $-1 $128 $128 $127 $215 forward $79 $-1 #
coedge $-1 $129 $129 $80 $130 forward $124 $-1 #
edge $-1 $216 0 $216 6.2831853071796004 $129 $217 forward 7 unknown #
loop $-1 $-1 $136 $81 #
plane-surface $-1 -60.305795464949483 3.3074974776669066 4.2034793437934184 -0.74314483375859142 0 0.66913059716165679 0.66913059716165679 0 0.74314483375859142 forward_v I I I I #
loop $-1 $-1 $218 $52 #
coedge $-1 $134 $134 $135 $219 reversed $82 $-1 #
coedge $-1 $135 $135 $134 $219 forward $84 $-1 #
coedge $-1 $136 $136 $85 $137 forward $131 $-1 #
edge $-1 $220 0 $220 6.2831853071796004 $136 $221 forward 7 unknown #
face $-1 $222 $223 $29 $-1 $224 forward single #
loop $-1 $-1 $225 $86 #
plane-surface $-1 39.518476474594458 7.0561480870802207 170.91924767801041 0 1 0 0.61566148304635926 0 0.78801074757464917 forward_v I I I I #
coedge $-1 $226 $227 $228 $229 reversed $87 $-1 #
coedge $-1 $143 $89 $230 $231 reversed $56 $-1 #
coedge $-1 $89 $142 $226 $232 reversed $56 $-1 #
coedge $-1 $228 $233 $89 $145 forward $223 $-1 #
edge $-1 $234 -40.546557227652258 $235 -30.827772606571305 $144 $236 forward 7 unknown #
loop $-1 $-1 $151 $90 #
plane-surface $-1 -34.737434469887965 12.460477268733381 75.876017743172937 0.61566148304635926 0 0.78801074757464917 0.78801074757464917 0 -0.61566148304635926 forward_v I I I I #
loop $-1 $-1 $237 $58 #
coedge $-1 $149 $149 $150 $238 reversed $91 $-1 #
coedge $-1 $150 $150 $149 $238 forward $93 $-1 #
coedge $-1 $151 $151 $94 $152 forward $146 $-1 #
edge $-1 $239 0 $239 6.2831853071796004 $151 $240 forward 7 unknown #
loop $-1 $-1 $158 $95 #
plane-surface $-1 -34.737434469887965 12.460477268733381 75.876017743172937 0.61566148304635926 0 0.78801074757464917 0.78801074757464917 0 -0.61566148304635926 forward_v I I I I #
loop $-1 $-1 $241 $61 #
coedge $-1 $156 $156 $157 $242 reversed $96 $-1 #
coedge $-1 $157 $157 $156 $242 forward $98 $-1 #
coedge $-1 $158 $158 $99 $159 forward $153 $-1 #
edge $-1 $243 0 $243 6.2831853071796004 $158 $244 forward 7 unknown #
face $-1 $245 $246 $24 $-1 $247 reversed single #
loop $-1 $-1 $248 $100 #
plane-surface $-1 -60.30579546494949 0 0 1 0 0 0 0 -1 forward_v I I I I #
coedge $-1 $249 $171 $250 $251 forward $101 $-1 #
coedge $-1 $252 $103 $249 $253 forward $65 $-1 #
coedge $-1 $103 $252 $254 $255 forward $65 $-1 #
coedge $-1 $174 $173 $103 $167 reversed $175 $-1 #
edge $-1 $256 -27.605724633823964 $257 27.605724633823964 $166 $258 forward 7 unknown #
coedge $-1 $105 $104 $259 $260 forward $41 $-1 #
coedge $-1 $261 $262 $104 $170 reversed $246 $-1 #
edge $-1 $177 -60.30579546494949 $263 60.30579546494949 $169 $264 forward 7 unknown #
coedge $-1 $163 $265 $105 $172 reversed $101 $-1 #
edge $-1 $266 -60.30579546494949 $176 60.30579546494949 $171 $267 forward 7 unknown #
coedge $-1 $166 $106 $265 $268 forward $175 $-1 #
coedge $-1 $106 $166 $261 $269 reversed $175 $-1 #
loop $-1 $-1 $173 $245 #
vertex $-1 $107 $270 #
vertex $-1 $107 $271 #
straight-curve $-1 60.30579546494949 0 9.2132536836015539 0 1 0 I I #
face $-1 $272 $273 $25 $-1 $274 reversed single #
loop $-1 $-1 $275 $108 #
plane-surface $-1 -60.30579546494949 0 0 1 0 0 0 0 -1 forward_v I I I I #
coedge $-1 $276 $188 $193 $277 reversed $109 $-1 #
coedge $-1 $278 $111 $279 $280 reversed $69 $-1 #
coedge $-1 $111 $278 $276 $281 forward $69 $-1 #
coedge $-1 $193 $192 $111 $186 forward $194 $-1 #
edge $-1 $282 -16.608993549361873 $283 -5.384468619562309 $185 $284 forward 7 unknown #
coedge $-1 $113 $112 $275 $285 reversed $44 $-1 #
coedge $-1 $182 $286 $112 $189 reversed $109 $-1 #
edge $-1 $195 -60.30579546494949 $287 60.30579546494949 $188 $288 forward 7 unknown #
coedge $-1 $289 $290 $113 $191 forward $273 $-1 #
edge $-1 $196 -60.30579546494949 $291 60.30579546494949 $190 $292 forward 7 unknown #
coedge $-1 $185 $114 $290 $293 forward $194 $-1 #
coedge $-1 $114 $185 $182 $277 forward $194 $-1 #
loop $-1 $-1 $114 $272 #
vertex $-1 $115 $294 #
vertex $-1 $293 $295 #
straight-curve $-1 60.30579546494949 -10.996731084462091 -4.1168079514272495 0 -1 0 I I #
face $-1 $-1 $210 $26 $-1 $296 forward single #
loop $-1 $-1 $297 $116 #
plane-surface $-1 -60.30579546494949 0 0 1 0 0 0 0 -1 forward_v I I I I #
coedge $-1 $298 $299 $300 $301 reversed $117 $-1 #
coedge $-1 $302 $119 $121 $208 forward $73 $-1 #
coedge $-1 $119 $302 $298 $303 forward $73 $-1 #
coedge $-1 $300 $122 $119 $205 forward $210 $-1 #
edge $-1 $212 -2.2270114167219006 $304 5.5345088943888072 $204 $305 forward 7 unknown #
coedge $-1 $306 $307 $120 $207 forward $199 $-1 #
edge $-1 $308 -38.250713259873685 $211 -33.240938920065545 $206 $309 forward 7 unknown #
edge $-1 $212 -6.741316244466482 $308 1.0694865687384493e-014 $121 $310 forward 7 unknown #
coedge $-1 $122 $300 $306 $311 forward $210 $-1 #
loop $-1 $-1 $300 $198 #
vertex $-1 $207 $312 #
vertex $-1 $123 $313 #
straight-curve $-1 -74.968838077954246 -0.57326267788844731 9.2132536836015504 1 0 0 I I #
coedge $-1 $214 $214 $-1 $314 reversed $126 $-1 #
edge $-1 $315 0 $315 6.2831853071796004 $127 $316 forward 7 unknown #
vertex $-1 $130 $317 #
ellipse-curve $-1 -58.050384982791769 1.6443145538574697 6.7083665136974835 -0.74314483375859142 0 0.66913059716165679 0.1672826492904142 0 0.18578620843964785 1 I I #
coedge $-1 $218 $218 $-1 $318 reversed $133 $-1 #
edge $-1 $319 0 $319 6.2831853071796004 $134 $320 forward 7 unknown #
vertex $-1 $137 $321 #
ellipse-curve $-1 -58.050384982791769 4.970680401476347 6.7083665136974835 -0.74314483375859142 0 0.66913059716165679 0.1672826492904142 0 0.18578620843964785 1 I I #
face $-1 $-1 $322 $29 $-1 $323 reversed single #
loop $-1 $-1 $144 $138 #
plane-surface $-1 0 0 9.2132536836015539 0 0 1 1 0 0 forward_v I I I I #
coedge $-1 $324 $325 $326 $327 reversed $139 $-1 #
coedge $-1 $328 $141 $143 $232 forward $87 $-1 #
coedge $-1 $141 $328 $324 $329 forward $87 $-1 #
coedge $-1 $326 $144 $141 $229 forward $223 $-1 #
edge $-1 $235 -11.634567816019851 $330 -0.82590945271353 $228 $331 forward 7 unknown #
coedge $-1 $332 $333 $142 $231 forward $322 $-1 #
edge $-1 $334 -83.839517040314675 $234 -76.246370155403653 $230 $335 forward 7 unknown #
edge $-1 $235 108.27827612297078 $334 120.61159092989897 $143 $336 forward 7 unknown #
coedge $-1 $144 $326 $332 $337 forward $223 $-1 #
vertex $-1 $231 $338 #
vertex $-1 $145 $339 #
straight-curve $-1 19.759238237297229 17.864806450386542 9.2132536836015504 -1 0 0 I I #
coedge $-1 $237 $237 $-1 $340 reversed $148 $-1 #
edge $-1 $341 0 $341 6.2831853071796004 $149 $342 forward 7 unknown #
vertex $-1 $152 $343 #
ellipse-curve $-1 55.446403154409012 10.144336190882026 5.4166802411460448 0.61566148304635926 0 0.78801074757464917 1.1820161213619738 0 -0.92349222456953894 1 I I #
coedge $-1 $241 $241 $-1 $344 reversed $155 $-1 #
edge $-1 $345 0 $345 6.2831853071796004 $156 $346 forward 7 unknown #
vertex $-1 $159 $347 #
ellipse-curve $-1 55.446403154409012 14.776618346584737 5.4166802411460448 0.61566148304635926 0 0.78801074757464917 1.1820161213619738 0 -0.92349222456953894 1 I I #
face $-1 $-1 $175 $24 $-1 $348 reversed single #
loop $-1 $-1 $261 $160 #
plane-surface $-1 0 27.605724633823964 0 0 -1 0 0 0 -1 forward_v I I I I #
coedge $-1 $349 $259 $262 $350 forward $161 $-1 #
coedge $-1 $265 $163 $164 $253 reversed $101 $-1 #
coedge $-1 $259 $349 $163 $251 reversed $161 $-1 #
edge $-1 $266 -9.2132536836015539 $351 9.2132536836015539 $250 $352 forward 7 unknown #
coedge $-1 $165 $164 $349 $353 forward $65 $-1 #
edge $-1 $257 -60.30579546494949 $351 60.30579546494949 $249 $354 forward 7 unknown #
coedge $-1 $262 $261 $165 $255 reversed $246 $-1 #
edge $-1 $355 -60.30579546494949 $256 60.30579546494949 $254 $356 forward 7 unknown #
vertex $-1 $167 $357 #
vertex $-1 $268 $358 #
straight-curve $-1 60.30579546494949 0 -9.2132536836015539 0 -1 0 I I #
coedge $-1 $248 $250 $168 $260 reversed $161 $-1 #
edge $-1 $263 -27.605724633823964 $266 27.605724633823964 $259 $359 forward 7 unknown #
coedge $-1 $254 $169 $174 $269 forward $246 $-1 #
coedge $-1 $169 $254 $248 $350 reversed $246 $-1 #
vertex $-1 $170 $360 #
straight-curve $-1 0 27.605724633823964 9.2132536836015539 -1 0 0 I I #
coedge $-1 $171 $249 $173 $268 reversed $101 $-1 #
vertex $-1 $260 $361 #
straight-curve $-1 0 -27.605724633823964 9.2132536836015539 1 0 0 I I #
edge $-1 $176 -9.2132536836015539 $257 9.2132536836015539 $173 $362 forward 7 unknown #
edge $-1 $177 -9.2132536836015539 $256 9.2132536836015539 $174 $363 forward 7 unknown #
point $-1 60.30579546494949 -27.605724633823964 9.2132536836015539 #
point $-1 60.30579546494949 27.605724633823964 9.2132536836015539 #
face $-1 $-1 $194 $25 $-1 $364 reversed single #
loop $-1 $-1 $190 $179 #
plane-surface $-1 0 -27.605724633823964 0 0 1 0 0 0 1 forward_v I I I I #
coedge $-1 $365 $366 $187 $285 forward $180 $-1 #
coedge $-1 $286 $182 $184 $281 reversed $109 $-1 #
edge $-1 $283 -4.3084039757136248 $195 -1.3084039757136248 $193 $367 forward 7 unknown #
coedge $-1 $184 $183 $368 $369 reversed $69 $-1 #
coedge $-1 $290 $289 $183 $280 forward $273 $-1 #
edge $-1 $370 -60.30579546494949 $282 60.30579546494949 $279 $371 forward 7 unknown #
edge $-1 $372 -60.30579546494949 $283 60.30579546494949 $276 $373 forward 7 unknown #
vertex $-1 $280 $374 #
vertex $-1 $186 $375 #
straight-curve $-1 60.30579546494949 -10.996731084462091 -7.1168079514272495 0 1 0 I I #
edge $-1 $291 -16.608993549361873 $287 -5.384468619562309 $275 $376 forward 7 unknown #
coedge $-1 $188 $276 $365 $377 reversed $109 $-1 #
vertex $-1 $285 $378 #
straight-curve $-1 0 -16.3811997040244 -4.1168079514272495 -1 0 0 I I #
coedge $-1 $279 $190 $366 $379 forward $273 $-1 #
coedge $-1 $190 $279 $192 $293 reversed $273 $-1 #
vertex $-1 $379 $380 #
straight-curve $-1 0 -27.605724633823964 -4.1168079514272495 -1 0 0 I I #
edge $-1 $196 4.1168079514272495 $282 7.1168079514272495 $192 $381 forward 7 unknown #
point $-1 60.30579546494949 -16.3811997040244 -4.1168079514272495 #
point $-1 60.30579546494949 -27.605724633823964 -4.1168079514272495 #
plane-surface $-1 0 0 9.2132536836015539 0 0 1 1 0 0 forward_v I I I I #
coedge $-1 $307 $306 $299 $382 forward $199 $-1 #
coedge $-1 $299 $201 $203 $303 reversed $117 $-1 #
coedge $-1 $201 $298 $297 $382 reversed $117 $-1 #
coedge $-1 $209 $204 $201 $301 forward $210 $-1 #
edge $-1 $304 -19.173863577320198 $383 -14.663042613004755 $300 $384 forward 7 unknown #
coedge $-1 $203 $202 $307 $385 reversed $73 $-1 #
edge $-1 $386 -1.0694865687384493e-014 $304 6.741316244466482 $298 $387 forward 7 unknown #
vertex $-1 $205 $388 #
straight-curve $-1 -55.794974500634041 1.6537487388334533 9.2132536836015539 0 1 0 I I #
coedge $-1 $297 $206 $209 $311 reversed $199 $-1 #
coedge $-1 $206 $297 $302 $385 forward $199 $-1 #
vertex $-1 $207 $389 #
straight-curve $-1 -60.30579546494949 -0.57326267788844731 42.454192603667096 0 0 1 I I #
straight-curve $-1 -60.305795464949483 -0.57326267788844731 4.2034793437934184 -0.66913059716165679 0 -0.74314483375859142 I I #
edge $-1 $383 -7.1882576332222605 $211 0.57326267788844731 $306 $390 forward 7 unknown #
point $-1 -60.30579546494949 -0.57326267788844731 9.2132536836015539 #
point $-1 -55.794974500634048 -0.57326267788844731 9.2132536836015539 #
edge $-1 $391 1 $391 0 $214 $-1 forward 7 unknown #
vertex $-1 $215 $392 #
ellipse-curve $-1 -57.307240149033184 1.6443145538574697 6.0392359165358336 -0.74314483375859142 0 0.66913059716165679 0.1672826492904142 0 0.18578620843964785 1 I I #
point $-1 -57.883102333501363 1.6443145538574697 6.8941527221371386 #
edge $-1 $393 1 $393 0 $218 $-1 forward 7 unknown #
vertex $-1 $219 $394 #
ellipse-curve $-1 -57.307240149033184 4.970680401476347 6.0392359165358336 -0.74314483375859142 0 0.66913059716165679 0.1672826492904142 0 0.18578620843964785 1 I I #
point $-1 -57.883102333501363 4.970680401476347 6.8941527221371386 #
loop $-1 $-1 $230 $222 #
plane-surface $-1 60.30579546494949 0 0 -1 0 0 0 0 1 forward_v I I I I #
coedge $-1 $325 $225 $227 $329 reversed $139 $-1 #
coedge $-1 $225 $324 $395 $396 reversed $139 $-1 #
coedge $-1 $233 $228 $225 $327 forward $223 $-1 #
edge $-1 $330 30.827772606571305 $397 40.546557227652258 $326 $398 forward 7 unknown #
coedge $-1 $227 $226 $333 $399 reversed $87 $-1 #
edge $-1 $400 -120.61159092989897 $330 -108.27827612297078 $324 $401 forward 7 unknown #
vertex $-1 $229 $402 #
straight-curve $-1 50.587010843868526 6.2302386343666907 9.2132536836015433 0 -1 0 I I #
coedge $-1 $395 $230 $233 $337 reversed $322 $-1 #
coedge $-1 $230 $395 $328 $399 forward $322 $-1 #
vertex $-1 $231 $403 #
straight-curve $-1 60.30579546494949 17.864806450386542 85.459623839005204 0 0 1 I I #
straight-curve $-1 -34.737434469887965 17.864806450386542 75.876017743172937 0.78801074757464917 0 -0.61566148304635926 I I #
edge $-1 $397 7.0561480870802207 $234 17.864806450386542 $332 $404 forward 7 unknown #
point $-1 60.30579546494949 17.864806450386542 9.2132536836015539 #
point $-1 50.587010843868534 17.864806450386542 9.2132536836015504 #
edge $-1 $405 1 $405 0 $237 $-1 forward 7 unknown #
vertex $-1 $238 $406 #
ellipse-curve $-1 54.308151850545663 10.144336190882026 3.9597850388557263 0.61566148304635926 0 0.78801074757464917 1.1820161213619738 0 -0.92349222456953894 1 I I #
point $-1 56.628419275770973 10.144336190882026 4.4931880165764815 #
edge $-1 $407 1 $407 0 $241 $-1 forward 7 unknown #
vertex $-1 $242 $408 #
ellipse-curve $-1 54.308151850545663 14.776618346584737 3.9597850388557263 0.61566148304635926 0 0.78801074757464917 1.1820161213619738 0 -0.92349222456953894 1 I I #
point $-1 56.628419275770973 14.776618346584737 4.4931880165764815 #
plane-surface $-1 60.30579546494949 0 0 -1 0 0 0 0 1 forward_v I I I I #
coedge $-1 $250 $248 $252 $353 reversed $161 $-1 #
edge $-1 $263 -9.2132536836015539 $355 9.2132536836015539 $262 $409 forward 7 unknown #
vertex $-1 $353 $410 #
straight-curve $-1 -60.30579546494949 -27.605724633823964 0 0 0 -1 I I #
edge $-1 $351 -27.605724633823964 $355 27.605724633823964 $349 $411 forward 7 unknown #
straight-curve $-1 0 -27.605724633823964 -9.2132536836015539 -1 0 0 I I #
vertex $-1 $255 $412 #
straight-curve $-1 0 27.605724633823964 -9.2132536836015539 1 0 0 I I #
point $-1 60.30579546494949 27.605724633823964 -9.2132536836015539 #
point $-1 60.30579546494949 -27.605724633823964 -9.2132536836015539 #
straight-curve $-1 -60.30579546494949 0 9.2132536836015539 0 -1 0 I I #
point $-1 -60.30579546494949 27.605724633823964 9.2132536836015539 #
point $-1 -60.30579546494949 -27.605724633823964 9.2132536836015539 #
straight-curve $-1 60.30579546494949 -27.605724633823964 0 0 0 -1 I I #
straight-curve $-1 60.30579546494949 27.605724633823964 0 0 0 -1 I I #
plane-surface $-1 60.30579546494949 0 0 -1 0 0 0 0 1 forward_v I I I I #
coedge $-1 $368 $275 $286 $377 forward $180 $-1 #
coedge $-1 $275 $368 $289 $379 reversed $180 $-1 #
straight-curve $-1 60.30579546494949 -16.3811997040244 -2.8084039757136248 0 0 1 I I #
coedge $-1 $366 $365 $278 $369 forward $180 $-1 #
edge $-1 $372 5.384468619562309 $370 16.608993549361873 $368 $413 forward 7 unknown #
vertex $-1 $280 $414 #
straight-curve $-1 0 -27.605724633823964 -7.1168079514272495 1 0 0 I I #
vertex $-1 $369 $415 #
straight-curve $-1 0 -16.3811997040244 -7.1168079514272495 1 0 0 I I #
point $-1 60.30579546494949 -27.605724633823964 -7.1168079514272495 #
point $-1 60.30579546494949 -16.3811997040244 -7.1168079514272495 #
straight-curve $-1 -60.30579546494949 -10.996731084462091 -4.1168079514272495 0 1 0 I I #
edge $-1 $287 1.3084039757136248 $372 4.3084039757136248 $365 $416 forward 7 unknown #
point $-1 -60.30579546494949 -16.3811997040244 -4.1168079514272495 #
edge $-1 $291 4.1168079514272495 $370 7.1168079514272495 $366 $417 forward 7 unknown #
point $-1 -60.30579546494949 -27.605724633823964 -4.1168079514272495 #
straight-curve $-1 60.30579546494949 -27.605724633823964 0 0 0 -1 I I #
edge $-1 $383 33.240938920065545 $386 38.250713259873685 $297 $418 forward 7 unknown #
vertex $-1 $311 $419 #
straight-curve $-1 -74.968838077954246 7.1882576332222605 9.2132536836015504 -1 0 0 I I #
edge $-1 $386 -5.5345088943888072 $308 2.2270114167219006 $307 $420 forward 7 unknown #
vertex $-1 $385 $421 #
straight-curve $-1 -60.305795464949483 7.1882576332222605 4.2034793437934184 0.66913059716165679 0 0.74314483375859142 I I #
point $-1 -55.794974500634048 7.1882576332222605 9.2132536836015539 #
point $-1 -60.30579546494949 -0.57326267788844731 4.2034793437934104 #
straight-curve $-1 -60.30579546494949 0 9.2132536836015539 0 -1 0 I I #
vertex $-1 $314 $422 #
point $-1 -57.139957499742771 1.6443145538574697 6.2250221249754816 #
vertex $-1 $318 $423 #
point $-1 -57.139957499742771 4.970680401476347 6.2250221249754816 #
coedge $-1 $333 $332 $325 $396 forward $322 $-1 #
edge $-1 $397 76.246370155403653 $400 83.839517040314675 $395 $424 forward 7 unknown #
vertex $-1 $337 $425 #
straight-curve $-1 19.759238237297229 7.0561480870802207 9.2132536836015504 1 0 0 I I #
edge $-1 $400 0.82590945271353 $334 11.634567816019851 $333 $426 forward 7 unknown #
vertex $-1 $399 $427 #
straight-curve $-1 -34.737434469887965 7.0561480870802207 75.876017743172937 -0.78801074757464917 0 0.61566148304635926 I I #
point $-1 50.587010843868534 7.0561480870802207 9.2132536836015504 #
point $-1 60.30579546494949 17.864806450386542 1.6201067986905286 #
straight-curve $-1 60.30579546494949 0 9.2132536836015539 0 1 0 I I #
vertex $-1 $340 $428 #
point $-1 55.490167971907631 10.144336190882026 3.0362928142861874 #
vertex $-1 $344 $429 #
point $-1 55.490167971907631 14.776618346584737 3.0362928142861874 #
straight-curve $-1 -60.30579546494949 27.605724633823964 0 0 0 -1 I I #
point $-1 -60.30579546494949 -27.605724633823964 -9.2132536836015539 #
straight-curve $-1 -60.30579546494949 0 -9.2132536836015539 0 1 0 I I #
point $-1 -60.30579546494949 27.605724633823964 -9.2132536836015539 #
straight-curve $-1 -60.30579546494949 -10.996731084462091 -7.1168079514272495 0 -1 0 I I #
point $-1 -60.30579546494949 -27.605724633823964 -7.1168079514272495 #
point $-1 -60.30579546494949 -16.3811997040244 -7.1168079514272495 #
straight-curve $-1 -60.30579546494949 -16.3811997040244 -2.8084039757136248 0 0 -1 I I #
straight-curve $-1 -60.30579546494949 -27.605724633823964 0 0 0 -1 I I #
straight-curve $-1 -60.30579546494949 7.1882576332222605 42.454192603667096 0 0 -1 I I #
point $-1 -60.30579546494949 7.1882576332222605 9.2132536836015539 #
straight-curve $-1 -60.30579546494949 1.6537487388334533 4.2034793437934086 0 -1 0 I I #
point $-1 -60.30579546494949 7.1882576332222605 4.2034793437934104 #
point $-1 -57.121453940593533 1.6443145538574697 5.87195326724542 #
point $-1 -57.121453940593533 4.970680401476347 5.87195326724542 #
straight-curve $-1 60.30579546494949 7.0561480870802207 85.459623839005204 0 0 -1 I I #
point $-1 60.30579546494949 7.0561480870802207 9.2132536836015539 #
straight-curve $-1 60.30579546494949 6.2302386343666907 1.6201067986905358 0 1 0 I I #
point $-1 60.30579546494949 7.0561480870802207 1.6201067986905286 #
point $-1 53.38465962597612 10.144336190882026 2.7777689174937534 #
point $-1 53.38465962597612 14.776618346584737 2.7777689174937534 #
End-of-ACIS-data 