500 0 7 0           
7 Unknown 11 ACIS 5.0 NT 24 Fri Mar 26 00:30:26 1999 
-1 9.9999999999999995e-007 1e-010 
body $-1 $7 $-1 $8 #
body $-1 $9 $-1 $10 #
body $-1 $11 $-1 $12 #
body $-1 $13 $-1 $14 #
body $-1 $15 $-1 $16 #
body $-1 $17 $-1 $18 #
body $-1 $19 $-1 $20 #
lump $-1 $-1 $21 $0 #
transform $-1 1 0 0 0 1 0 0 0 1 57.933896908474992 38.569968799972266 18.812144150132657 1 rotate no_reflect no_shear #
lump $-1 $-1 $22 $1 #
transform $-1 1 0 0 0 1 0 0 0 1 57.933896908474992 38.569968799972266 18.812144150132657 1 rotate no_reflect no_shear #
lump $-1 $-1 $23 $2 #
transform $-1 1 0 0 0 1 0 0 0 1 57.933896908474992 38.569968799972266 18.812144150132657 1 rotate no_reflect no_shear #
lump $-1 $-1 $24 $3 #
transform $-1 1 0 0 0 1 0 0 0 1 57.933896908474992 38.569968799972266 18.812144150132657 1 rotate no_reflect no_shear #
lump $-1 $-1 $25 $4 #
transform $-1 1 0 0 0 1 0 0 0 1 57.933896908474992 38.569968799972266 18.812144150132657 1 rotate no_reflect no_shear #
lump $-1 $-1 $26 $5 #
transform $-1 1 0 0 0 1 0 0 0 1 57.933896908474992 38.569968799972266 18.812144150132657 1 rotate no_reflect no_shear #
lump $-1 $-1 $27 $6 #
transform $-1 1 0 0 0 1 0 0 0 1 57.933896908474992 38.569968799972266 18.812144150132657 1 rotate no_reflect no_shear #
shell $-1 $-1 $-1 $28 $-1 $7 #
shell $-1 $-1 $-1 $29 $-1 $9 #
shell $-1 $-1 $-1 $30 $-1 $11 #
shell $-1 $-1 $-1 $31 $-1 $13 #
shell $-1 $-1 $-1 $32 $-1 $15 #
shell $-1 $-1 $-1 $33 $-1 $17 #
shell $-1 $-1 $-1 $34 $-1 $19 #
face $-1 $35 $36 $21 $-1 $37 forward single #
face $-1 $38 $39 $22 $-1 $40 forward single #
face $-1 $41 $42 $23 $-1 $43 reversed single #
face $-1 $44 $45 $24 $-1 $46 forward single #
face $-1 $47 $48 $25 $-1 $49 forward single #
face $-1 $50 $51 $26 $-1 $52 reversed single #
face $-1 $53 $54 $27 $-1 $55 forward single #
face $-1 $56 $57 $21 $-1 $58 reversed single #
loop $-1 $-1 $59 $28 #
plane-surface $-1 0 0 18.812144150132657 0 0 1 1 0 0 forward_v I I I I #
face $-1 $60 $61 $22 $-1 $62 reversed single #
loop $-1 $-1 $63 $29 #
plane-surface $-1 0 -30.423794250343867 -11.294237311216653 0 0 1 1 0 0 forward_v I I I I #
face $-1 $64 $65 $23 $-1 $66 reversed single #
loop $-1 $-1 $67 $30 #
plane-surface $-1 -121.04002114907513 27.381364495910184 101.63234299768514 0 1 0 -0.54463904215088732 0 0.83867056331134215 forward_v I I I I #
face $-1 $68 $69 $24 $-1 $70 forward single #
loop $-1 $71 $72 $31 #
cone-surface $-1 -46.609420817686413 29.787530094656908 11.21545433720129 0.54463904215088732 0 -0.83867056331134215 0.20966764082783554 0 0.13615976053772183 1 I I 0 1 0.25 forward I I I I #
face $-1 $73 $74 $25 $-1 $75 forward single #
loop $-1 $76 $77 $32 #
cone-surface $-1 -46.609420817686413 33.396778492776996 11.21545433720129 0.54463904215088732 0 -0.83867056331134215 0.20966764082783554 0 0.13615976053772183 1 I I 0 1 0.25 forward I I I I #
face $-1 $78 $79 $26 $-1 $80 reversed single #
loop $-1 $-1 $81 $33 #
plane-surface $-1 -30.825981913331219 30.104843077147159 79.524062613894131 0.64278761758704617 0 0.76604443648966558 0.76604443648966558 0 -0.64278761758704617 forward_v I I I I #
face $-1 $82 $83 $27 $-1 $84 forward single #
loop $-1 $85 $86 $34 #
cone-surface $-1 47.975879973411622 30.104843077147159 9.8375031915915851 -0.64278761758704617 0 -0.76604443648966558 1.1490666547344983 0 -0.96418142638056925 1 I I 0 1 1.5 forward I I I I #
face $-1 $87 $88 $21 $-1 $89 reversed single #
loop $-1 $-1 $90 $35 #
plane-surface $-1 0 0 -18.812144150132657 0 0 1 1 0 0 forward_v I I I I #
coedge $-1 $91 $92 $93 $94 forward $36 $-1 #
face $-1 $95 $96 $22 $-1 $97 reversed single #
loop $-1 $-1 $98 $38 #
plane-surface $-1 0 -30.423794250343867 -16.445573857176925 0 0 1 1 0 0 forward_v I I I I #
coedge $-1 $99 $100 $101 $102 reversed $39 $-1 #
face $-1 $103 $104 $23 $-1 $105 reversed single #
loop $-1 $-1 $106 $41 #
plane-surface $-1 -57.933896908474985 31.592154293716952 4.4574350875812456 -0.54463904215088732 0 0.83867056331134215 0.83867056331134215 0 0.54463904215088732 forward_v I I I I #
coedge $-1 $107 $108 $109 $110 reversed $42 $-1 #
face $-1 $-1 $111 $24 $-1 $112 forward single #
loop $-1 $113 $114 $44 #
cone-surface $-1 -46.269021416342106 29.787530094656908 10.691285235131701 0.54463904215088732 0 -0.83867056331134215 0.10483382041391777 0 0.068079880268860915 1 I I -0.70710678118654746 0.70710678118654746 0.125 forward I I I I #
loop $-1 $-1 $115 $31 #
coedge $-1 $72 $72 $116 $117 reversed $45 $-1 #
face $-1 $-1 $118 $25 $-1 $119 forward single #
loop $-1 $120 $121 $47 #
cone-surface $-1 -46.269021416342106 33.396778492776996 10.691285235131701 0.54463904215088732 0 -0.83867056331134215 0.10483382041391777 0 0.068079880268860915 1 I I -0.70710678118654746 0.70710678118654746 0.125 forward I I I I #
loop $-1 $-1 $122 $32 #
coedge $-1 $77 $77 $123 $124 reversed $48 $-1 #
face $-1 $125 $126 $26 $-1 $127 forward single #
loop $-1 $-1 $128 $50 #
plane-surface $-1 43.652401229333137 21.639717354322059 168.28394143570034 0 1 0 0.64278761758704617 0 0.76604443648966558 forward_v I I I I #
coedge $-1 $129 $130 $131 $132 reversed $51 $-1 #
face $-1 $-1 $133 $27 $-1 $134 forward single #
loop $-1 $135 $136 $53 #
cone-surface $-1 45.738889022545905 30.104843077147159 7.1715612451346793 -0.64278761758704617 0 -0.76604443648966558 0.57453332736724916 0 -0.48209071319028463 1 I I -0.70710678118654757 0.70710678118654757 0.75 forward I I I I #
loop $-1 $-1 $137 $34 #
coedge $-1 $86 $86 $138 $139 reversed $54 $-1 #
face $-1 $140 $141 $21 $-1 $142 reversed single #
loop $-1 $-1 $143 $56 #
plane-surface $-1 0 -38.569968799972266 0 0 1 0 0 0 1 forward_v I I I I #
coedge $-1 $144 $145 $146 $147 forward $57 $-1 #
coedge $-1 $148 $59 $149 $150 forward $36 $-1 #
coedge $-1 $59 $148 $151 $152 forward $36 $-1 #
coedge $-1 $153 $154 $59 $94 reversed $155 $-1 #
edge $-1 $156 -38.569968799972266 $157 38.569968799972266 $93 $158 forward 7 unknown #
face $-1 $159 $160 $22 $-1 $161 reversed single #
loop $-1 $-1 $162 $60 #
plane-surface $-1 0 -22.277619700715469 -13.86990558419679 0 -1 0 0 0 -1 forward_v I I I I #
coedge $-1 $163 $164 $165 $166 reversed $61 $-1 #
coedge $-1 $167 $63 $168 $169 forward $39 $-1 #
coedge $-1 $63 $167 $170 $171 reversed $39 $-1 #
coedge $-1 $172 $173 $63 $102 forward $174 $-1 #
edge $-1 $175 7.0657225755435356 $176 23.358071674800332 $101 $177 forward 7 unknown #
face $-1 $178 $179 $23 $-1 $180 reversed single #
loop $-1 $-1 $181 $64 #
plane-surface $-1 -121.04002114907513 35.80294409152372 101.63234299768514 0 -1 0 0.54463904215088732 0 -0.83867056331134215 forward_v I I I I #
coedge $-1 $182 $183 $184 $185 reversed $65 $-1 #
coedge $-1 $108 $67 $186 $187 reversed $42 $-1 #
coedge $-1 $67 $107 $182 $188 reversed $42 $-1 #
coedge $-1 $184 $189 $67 $110 forward $190 $-1 #
edge $-1 $191 2.5861136660625732 $192 24.690426805488897 $109 $193 forward 7 unknown #
loop $-1 $-1 $116 $68 #
plane-surface $-1 -57.933896908474985 31.592154293716952 4.4574350875812456 -0.54463904215088732 0 0.83867056331134215 0.83867056331134215 0 0.54463904215088732 forward_v I I I I #
loop $-1 $-1 $194 $44 #
coedge $-1 $114 $114 $115 $195 reversed $69 $-1 #
coedge $-1 $115 $115 $114 $195 forward $71 $-1 #
coedge $-1 $116 $116 $72 $117 forward $111 $-1 #
edge $-1 $196 0 $196 6.2831853071796004 $116 $197 forward 7 unknown #
loop $-1 $-1 $123 $73 #
plane-surface $-1 -57.933896908474985 31.592154293716952 4.4574350875812456 -0.54463904215088732 0 0.83867056331134215 0.83867056331134215 0 0.54463904215088732 forward_v I I I I #
loop $-1 $-1 $198 $47 #
coedge $-1 $121 $121 $122 $199 reversed $74 $-1 #
coedge $-1 $122 $122 $121 $199 forward $76 $-1 #
coedge $-1 $123 $123 $77 $124 forward $118 $-1 #
edge $-1 $200 0 $200 6.2831853071796004 $123 $201 forward 7 unknown #
face $-1 $202 $203 $26 $-1 $204 reversed single #
loop $-1 $-1 $131 $78 #
plane-surface $-1 0 0 18.812144150132657 0 0 1 1 0 0 forward_v I I I I #
coedge $-1 $205 $206 $207 $208 reversed $79 $-1 #
coedge $-1 $209 $81 $210 $211 reversed $51 $-1 #
coedge $-1 $81 $209 $205 $212 forward $51 $-1 #
coedge $-1 $207 $213 $81 $132 forward $126 $-1 #
edge $-1 $214 -23.517547261398679 $215 -6.5872958157484796 $131 $216 forward 7 unknown #
loop $-1 $-1 $138 $82 #
plane-surface $-1 -30.825981913331219 30.104843077147159 79.524062613894131 0.64278761758704617 0 0.76604443648966558 0.76604443648966558 0 -0.64278761758704617 forward_v I I I I #
loop $-1 $-1 $217 $53 #
coedge $-1 $136 $136 $137 $218 reversed $83 $-1 #
coedge $-1 $137 $137 $136 $218 forward $85 $-1 #
coedge $-1 $138 $138 $86 $139 forward $133 $-1 #
edge $-1 $219 0 $219 6.2831853071796004 $138 $220 forward 7 unknown #
face $-1 $221 $222 $21 $-1 $223 reversed single #
loop $-1 $-1 $224 $87 #
plane-surface $-1 -57.933896908474992 0 0 1 0 0 0 0 -1 forward_v I I I I #
coedge $-1 $225 $151 $226 $227 forward $88 $-1 #
coedge $-1 $228 $90 $225 $229 forward $57 $-1 #
coedge $-1 $90 $228 $230 $231 forward $57 $-1 #
coedge $-1 $154 $153 $90 $147 reversed $155 $-1 #
edge $-1 $232 -38.569968799972266 $233 38.569968799972266 $146 $234 forward 7 unknown #
coedge $-1 $92 $91 $235 $236 forward $36 $-1 #
coedge $-1 $237 $238 $91 $150 reversed $222 $-1 #
edge $-1 $157 -57.933896908474992 $239 57.933896908474992 $149 $240 forward 7 unknown #
coedge $-1 $143 $241 $92 $152 reversed $88 $-1 #
edge $-1 $242 -57.933896908474992 $156 57.933896908474992 $151 $243 forward 7 unknown #
coedge $-1 $146 $93 $241 $244 forward $155 $-1 #
coedge $-1 $93 $146 $237 $245 reversed $155 $-1 #
loop $-1 $-1 $153 $221 #
vertex $-1 $94 $246 #
vertex $-1 $94 $247 #
straight-curve $-1 57.933896908474992 0 18.812144150132657 0 1 0 I I #
face $-1 $248 $249 $22 $-1 $250 reversed single #
loop $-1 $-1 $251 $95 #
plane-surface $-1 -57.933896908474992 0 0 1 0 0 0 0 -1 forward_v I I I I #
coedge $-1 $252 $168 $173 $253 reversed $96 $-1 #
coedge $-1 $254 $98 $255 $256 reversed $61 $-1 #
coedge $-1 $98 $254 $252 $257 forward $61 $-1 #
coedge $-1 $173 $172 $98 $166 forward $174 $-1 #
edge $-1 $258 -23.358071674800332 $259 -7.0657225755435356 $165 $260 forward 7 unknown #
coedge $-1 $100 $99 $251 $261 reversed $39 $-1 #
coedge $-1 $162 $262 $99 $169 reversed $96 $-1 #
edge $-1 $175 -57.933896908474992 $263 57.933896908474992 $168 $264 forward 7 unknown #
coedge $-1 $265 $266 $100 $171 forward $249 $-1 #
edge $-1 $176 -57.933896908474992 $267 57.933896908474992 $170 $268 forward 7 unknown #
coedge $-1 $165 $101 $266 $269 forward $174 $-1 #
coedge $-1 $101 $165 $162 $253 forward $174 $-1 #
loop $-1 $-1 $101 $248 #
vertex $-1 $102 $270 #
vertex $-1 $269 $271 #
straight-curve $-1 57.933896908474992 -15.211897125171934 -11.294237311216653 0 -1 0 I I #
face $-1 $-1 $190 $23 $-1 $272 forward single #
loop $-1 $-1 $273 $103 #
plane-surface $-1 -57.933896908474992 0 0 1 0 0 0 0 -1 forward_v I I I I #
coedge $-1 $274 $275 $276 $277 reversed $104 $-1 #
coedge $-1 $278 $106 $108 $188 forward $65 $-1 #
coedge $-1 $106 $278 $274 $279 forward $65 $-1 #
coedge $-1 $276 $109 $106 $185 forward $190 $-1 #
edge $-1 $192 11.585287349051708 $280 20.006866944665244 $184 $281 forward 7 unknown #
coedge $-1 $282 $283 $107 $187 forward $179 $-1 #
edge $-1 $284 -46.358736411261333 $191 -32.004027348709911 $186 $285 forward 7 unknown #
edge $-1 $192 -26.356371746435634 $284 8.3777959833898778e-015 $108 $286 forward 7 unknown #
coedge $-1 $109 $276 $282 $287 forward $190 $-1 #
loop $-1 $-1 $276 $178 #
vertex $-1 $187 $288 #
vertex $-1 $110 $289 #
straight-curve $-1 -60.520010574537565 27.381364495910184 18.812144150132653 1 0 0 I I #
coedge $-1 $194 $194 $-1 $290 reversed $113 $-1 #
edge $-1 $291 0 $291 6.2831853071796004 $114 $292 forward 7 unknown #
vertex $-1 $117 $293 #
ellipse-curve $-1 -46.881740338761844 29.787530094656908 11.63478961885694 -0.54463904215088732 0 0.83867056331134215 0.20966764082783554 0 0.13615976053772183 1 I I #
coedge $-1 $198 $198 $-1 $294 reversed $120 $-1 #
edge $-1 $295 0 $295 6.2831853071796004 $121 $296 forward 7 unknown #
vertex $-1 $124 $297 #
ellipse-curve $-1 -46.881740338761844 33.396778492776996 11.63478961885694 -0.54463904215088732 0 0.83867056331134215 0.20966764082783554 0 0.13615976053772183 1 I I #
face $-1 $-1 $298 $26 $-1 $299 reversed single #
loop $-1 $-1 $300 $125 #
plane-surface $-1 57.933896908474992 0 0 -1 0 0 0 0 1 forward_v I I I I #
coedge $-1 $206 $128 $130 $212 reversed $79 $-1 #
coedge $-1 $128 $205 $301 $302 reversed $79 $-1 #
coedge $-1 $303 $131 $128 $208 forward $126 $-1 #
edge $-1 $215 19.701462899032514 $304 36.107696293808424 $207 $305 forward 7 unknown #
coedge $-1 $130 $129 $300 $306 reversed $51 $-1 #
coedge $-1 $307 $308 $129 $211 forward $298 $-1 #
edge $-1 $309 -78.502216470716718 $214 -57.085399621349467 $210 $310 forward 7 unknown #
edge $-1 $311 -115.86779381694998 $215 -94.450976967582733 $205 $312 forward 7 unknown #
coedge $-1 $131 $303 $307 $313 forward $126 $-1 #
vertex $-1 $211 $314 #
vertex $-1 $132 $315 #
straight-curve $-1 41.527663513699082 15.052421538573579 18.81214415013266 0 -1 0 I I #
coedge $-1 $217 $217 $-1 $316 reversed $135 $-1 #
edge $-1 $317 0 $317 6.2831853071796004 $136 $318 forward 7 unknown #
vertex $-1 $139 $319 #
ellipse-curve $-1 49.73078021108703 30.104843077147159 11.928911810681219 0.64278761758704617 0 0.76604443648966558 1.1490666547344983 0 -0.96418142638056925 1 I I #
face $-1 $-1 $155 $21 $-1 $320 reversed single #
loop $-1 $-1 $237 $140 #
plane-surface $-1 0 38.569968799972266 0 0 -1 0 0 0 -1 forward_v I I I I #
coedge $-1 $321 $235 $238 $322 forward $141 $-1 #
coedge $-1 $241 $143 $144 $229 reversed $88 $-1 #
coedge $-1 $235 $321 $143 $227 reversed $141 $-1 #
edge $-1 $242 -18.812144150132657 $323 18.812144150132657 $226 $324 forward 7 unknown #
coedge $-1 $145 $144 $321 $325 forward $57 $-1 #
edge $-1 $233 -57.933896908474992 $323 57.933896908474992 $225 $326 forward 7 unknown #
coedge $-1 $238 $237 $145 $231 reversed $222 $-1 #
edge $-1 $327 -57.933896908474992 $232 57.933896908474992 $230 $328 forward 7 unknown #
vertex $-1 $147 $329 #
vertex $-1 $244 $330 #
straight-curve $-1 57.933896908474992 0 -18.812144150132657 0 -1 0 I I #
coedge $-1 $224 $226 $148 $236 reversed $141 $-1 #
edge $-1 $239 -38.569968799972266 $242 38.569968799972266 $235 $331 forward 7 unknown #
coedge $-1 $230 $149 $154 $245 forward $222 $-1 #
coedge $-1 $149 $230 $224 $322 reversed $222 $-1 #
vertex $-1 $150 $332 #
straight-curve $-1 0 38.569968799972266 18.812144150132657 -1 0 0 I I #
coedge $-1 $151 $225 $153 $244 reversed $88 $-1 #
vertex $-1 $236 $333 #
straight-curve $-1 0 -38.569968799972266 18.812144150132657 1 0 0 I I #
edge $-1 $156 -18.812144150132657 $233 18.812144150132657 $153 $334 forward 7 unknown #
edge $-1 $157 -18.812144150132657 $232 18.812144150132657 $154 $335 forward 7 unknown #
point $-1 57.933896908474992 -38.569968799972266 18.812144150132657 #
point $-1 57.933896908474992 38.569968799972266 18.812144150132657 #
face $-1 $-1 $174 $22 $-1 $336 reversed single #
loop $-1 $-1 $170 $159 #
plane-surface $-1 0 -38.569968799972266 0 0 1 0 0 0 1 forward_v I I I I #
coedge $-1 $337 $338 $167 $261 forward $160 $-1 #
coedge $-1 $262 $162 $164 $257 reversed $96 $-1 #
edge $-1 $259 -9.5106210650785297 $175 -4.3592845191182583 $173 $339 forward 7 unknown #
coedge $-1 $164 $163 $340 $341 reversed $61 $-1 #
coedge $-1 $266 $265 $163 $256 forward $249 $-1 #
edge $-1 $342 -57.933896908474992 $258 57.933896908474992 $255 $343 forward 7 unknown #
edge $-1 $344 -57.933896908474992 $259 57.933896908474992 $252 $345 forward 7 unknown #
vertex $-1 $256 $346 #
vertex $-1 $166 $347 #
straight-curve $-1 57.933896908474992 -15.211897125171934 -16.445573857176925 0 1 0 I I #
edge $-1 $267 -23.358071674800332 $263 -7.0657225755435356 $251 $348 forward 7 unknown #
coedge $-1 $168 $252 $337 $349 reversed $96 $-1 #
vertex $-1 $261 $350 #
straight-curve $-1 0 -22.277619700715469 -11.294237311216653 -1 0 0 I I #
coedge $-1 $255 $170 $338 $351 forward $249 $-1 #
coedge $-1 $170 $255 $172 $269 reversed $249 $-1 #
vertex $-1 $351 $352 #
straight-curve $-1 0 -38.569968799972266 -11.294237311216653 -1 0 0 I I #
edge $-1 $176 11.294237311216653 $258 16.445573857176925 $172 $353 forward 7 unknown #
point $-1 57.933896908474992 -22.277619700715469 -11.294237311216653 #
point $-1 57.933896908474992 -38.569968799972266 -11.294237311216653 #
plane-surface $-1 0 0 18.812144150132657 0 0 1 1 0 0 forward_v I I I I #
coedge $-1 $283 $282 $275 $354 forward $179 $-1 #
coedge $-1 $275 $181 $183 $279 reversed $104 $-1 #
coedge $-1 $181 $274 $273 $354 reversed $104 $-1 #
coedge $-1 $189 $184 $181 $277 forward $190 $-1 #
edge $-1 $280 -24.690426805488897 $355 -2.5861136660625732 $276 $356 forward 7 unknown #
coedge $-1 $183 $182 $283 $357 reversed $65 $-1 #
edge $-1 $358 -8.3777959833898778e-015 $280 26.356371746435634 $274 $359 forward 7 unknown #
vertex $-1 $185 $360 #
straight-curve $-1 -35.829583769048668 15.796077146858476 18.812144150132657 0 1 0 I I #
coedge $-1 $273 $186 $189 $287 reversed $179 $-1 #
coedge $-1 $186 $273 $278 $357 forward $179 $-1 #
vertex $-1 $187 $361 #
straight-curve $-1 -57.933896908474992 27.381364495910184 50.816171498842571 0 0 1 I I #
straight-curve $-1 -57.933896908474985 27.381364495910184 4.4574350875812456 -0.83867056331134215 0 -0.54463904215088732 I I #
edge $-1 $355 -35.80294409152372 $191 -27.381364495910184 $282 $362 forward 7 unknown #
point $-1 -57.933896908474992 27.381364495910184 18.812144150132657 #
point $-1 -35.829583769048668 27.381364495910184 18.812144150132657 #
edge $-1 $363 1 $363 0 $194 $-1 forward 7 unknown #
vertex $-1 $195 $364 #
ellipse-curve $-1 -46.337101296610967 29.787530094656908 10.796119055545619 -0.54463904215088732 0 0.83867056331134215 0.20966764082783554 0 0.13615976053772183 1 I I #
point $-1 -46.67207269793402 29.787530094656908 11.770949379394683 #
edge $-1 $365 1 $365 0 $198 $-1 forward 7 unknown #
vertex $-1 $199 $366 #
ellipse-curve $-1 -46.337101296610967 33.396778492776996 10.796119055545619 -0.54463904215088732 0 0.83867056331134215 0.20966764082783554 0 0.13615976053772183 1 I I #
point $-1 -46.67207269793402 33.396778492776996 11.770949379394683 #
loop $-1 $-1 $210 $202 #
plane-surface $-1 0 38.569968799972266 0 0 -1 0 0 0 -1 forward_v I I I I #
coedge $-1 $367 $301 $209 $306 forward $203 $-1 #
coedge $-1 $300 $368 $206 $302 forward $203 $-1 #
edge $-1 $304 65.329826567717518 $311 79.096291246620396 $301 $369 forward 7 unknown #
coedge $-1 $213 $207 $368 $370 forward $126 $-1 #
vertex $-1 $370 $371 #
straight-curve $-1 21.826200614666568 21.639717354322059 18.812144150132653 1 0 0 I I #
edge $-1 $311 6.5872958157484796 $309 23.517547261398679 $300 $372 forward 7 unknown #
coedge $-1 $308 $210 $213 $313 reversed $298 $-1 #
coedge $-1 $210 $307 $367 $373 forward $298 $-1 #
vertex $-1 $211 $374 #
straight-curve $-1 -2.2022892710249415 38.569968799972266 55.505932171744348 -0.76604443648966558 0 0.64278761758704617 I I #
vertex $-1 $306 $375 #
straight-curve $-1 -30.825981913331219 21.639717354322059 79.524062613894131 -0.76604443648966558 0 0.64278761758704617 I I #
edge $-1 $376 -57.933896908474992 $214 -41.527663513699082 $307 $377 forward 7 unknown #
point $-1 41.527663513699082 38.569968799972258 18.812144150132653 #
point $-1 41.527663513699082 21.639717354322059 18.812144150132653 #
edge $-1 $378 1 $378 0 $217 $-1 forward 7 unknown #
vertex $-1 $218 $379 #
ellipse-curve $-1 46.220979735736186 30.104843077147159 7.7460945725019288 0.64278761758704617 0 0.76604443648966558 1.1490666547344983 0 -0.96418142638056925 1 I I #
point $-1 50.879846865821548 30.104843077147159 10.964730384300672 #
plane-surface $-1 57.933896908474992 0 0 -1 0 0 0 0 1 forward_v I I I I #
coedge $-1 $226 $224 $228 $325 reversed $141 $-1 #
edge $-1 $239 -18.812144150132657 $327 18.812144150132657 $238 $380 forward 7 unknown #
vertex $-1 $325 $381 #
straight-curve $-1 -57.933896908474992 -38.569968799972266 0 0 0 -1 I I #
edge $-1 $323 -38.569968799972266 $327 38.569968799972266 $321 $382 forward 7 unknown #
straight-curve $-1 0 -38.569968799972266 -18.812144150132657 -1 0 0 I I #
vertex $-1 $231 $383 #
straight-curve $-1 0 38.569968799972266 -18.812144150132657 1 0 0 I I #
point $-1 57.933896908474992 38.569968799972266 -18.812144150132657 #
point $-1 57.933896908474992 -38.569968799972266 -18.812144150132657 #
straight-curve $-1 -57.933896908474992 0 18.812144150132657 0 -1 0 I I #
point $-1 -57.933896908474992 38.569968799972266 18.812144150132657 #
point $-1 -57.933896908474992 -38.569968799972266 18.812144150132657 #
straight-curve $-1 57.933896908474992 -38.569968799972266 0 0 0 -1 I I #
straight-curve $-1 57.933896908474992 38.569968799972266 0 0 0 -1 I I #
plane-surface $-1 57.933896908474992 0 0 -1 0 0 0 0 1 forward_v I I I I #
coedge $-1 $340 $251 $262 $349 forward $160 $-1 #
coedge $-1 $251 $340 $265 $351 reversed $160 $-1 #
straight-curve $-1 57.933896908474992 -22.277619700715469 -6.9349527920983949 0 0 1 I I #
coedge $-1 $338 $337 $254 $341 forward $160 $-1 #
edge $-1 $344 7.0657225755435356 $342 23.358071674800332 $340 $384 forward 7 unknown #
vertex $-1 $256 $385 #
straight-curve $-1 0 -38.569968799972266 -16.445573857176925 1 0 0 I I #
vertex $-1 $341 $386 #
straight-curve $-1 0 -22.277619700715469 -16.445573857176925 1 0 0 I I #
point $-1 57.933896908474992 -38.569968799972266 -16.445573857176925 #
point $-1 57.933896908474992 -22.277619700715469 -16.445573857176925 #
straight-curve $-1 -57.933896908474992 -15.211897125171934 -11.294237311216653 0 1 0 I I #
edge $-1 $263 4.3592845191182583 $344 9.5106210650785297 $337 $387 forward 7 unknown #
point $-1 -57.933896908474992 -22.277619700715469 -11.294237311216653 #
edge $-1 $267 11.294237311216653 $342 16.445573857176925 $338 $388 forward 7 unknown #
point $-1 -57.933896908474992 -38.569968799972266 -11.294237311216653 #
straight-curve $-1 57.933896908474992 -38.569968799972266 0 0 0 -1 I I #
edge $-1 $355 32.004027348709911 $358 46.358736411261333 $273 $389 forward 7 unknown #
vertex $-1 $287 $390 #
straight-curve $-1 -60.520010574537565 35.80294409152372 18.812144150132653 -1 0 0 I I #
edge $-1 $358 -20.006866944665244 $284 -11.585287349051708 $283 $391 forward 7 unknown #
vertex $-1 $357 $392 #
straight-curve $-1 -57.933896908474985 35.80294409152372 4.4574350875812456 0.83867056331134215 0 0.54463904215088732 I I #
point $-1 -35.829583769048668 35.80294409152372 18.812144150132657 #
point $-1 -57.933896908474992 27.381364495910184 4.4574350875812412 #
straight-curve $-1 -57.933896908474992 0 18.812144150132657 0 -1 0 I I #
vertex $-1 $290 $393 #
point $-1 -46.127433655783129 29.787530094656908 10.932278816083342 #
vertex $-1 $294 $394 #
point $-1 -46.127433655783129 33.396778492776996 10.932278816083342 #
coedge $-1 $368 $300 $308 $373 reversed $203 $-1 #
coedge $-1 $301 $367 $303 $370 reversed $203 $-1 #
straight-curve $-1 57.933896908474992 21.639717354322059 84.141970717850171 0 0 -1 I I #
edge $-1 $304 21.639717354322059 $376 38.569968799972266 $368 $395 forward 7 unknown #
point $-1 57.933896908474992 21.639717354322059 18.812144150132657 #
straight-curve $-1 57.933896908474992 15.052421538573579 5.045679471229775 0 1 0 I I #
edge $-1 $376 -18.812144150132657 $309 -5.045679471229775 $367 $396 forward 7 unknown #
point $-1 57.933896908474992 38.569968799972258 5.045679471229775 #
point $-1 57.933896908474992 21.639717354322059 5.045679471229775 #
vertex $-1 $370 $397 #
straight-curve $-1 0 38.569968799972266 18.812144150132657 -1 0 0 I I #
vertex $-1 $316 $398 #
point $-1 47.370046390470691 30.104843077147159 6.7819131461213589 #
straight-curve $-1 -57.933896908474992 38.569968799972266 0 0 0 -1 I I #
point $-1 -57.933896908474992 -38.569968799972266 -18.812144150132657 #
straight-curve $-1 -57.933896908474992 0 -18.812144150132657 0 1 0 I I #
point $-1 -57.933896908474992 38.569968799972266 -18.812144150132657 #
straight-curve $-1 -57.933896908474992 -15.211897125171934 -16.445573857176925 0 -1 0 I I #
point $-1 -57.933896908474992 -38.569968799972266 -16.445573857176925 #
point $-1 -57.933896908474992 -22.277619700715469 -16.445573857176925 #
straight-curve $-1 -57.933896908474992 -22.277619700715469 -6.9349527920983949 0 0 -1 I I #
straight-curve $-1 -57.933896908474992 -38.569968799972266 0 0 0 -1 I I #
straight-curve $-1 -57.933896908474992 35.80294409152372 50.816171498842571 0 0 -1 I I #
point $-1 -57.933896908474992 35.80294409152372 18.812144150132657 #
straight-curve $-1 -57.933896908474992 15.796077146858476 4.4574350875812438 0 -1 0 I I #
point $-1 -57.933896908474992 35.80294409152372 4.4574350875812412 #
point $-1 -46.200941536073245 29.787530094656908 10.586451414717784 #
point $-1 -46.200941536073245 33.396778492776996 10.586451414717784 #
straight-curve $-1 57.933896908474992 0 18.812144150132657 0 1 0 I I #
straight-curve $-1 57.933896908474992 38.569968799972266 0 0 0 -1 I I #
point $-1 57.933896908474992 38.569968799972266 18.812144150132657 #
point $-1 45.256798309355624 30.104843077147159 6.5970279177674298 #
End-of-ACIS-data 