500 0 9 0           
7 Unknown 11 ACIS 5.0 NT 24 Fri Mar 26 14:45:22 1999 
-1 9.9999999999999995e-007 1e-010 
body $-1 $9 $-1 $10 #
body $-1 $11 $-1 $12 #
body $-1 $13 $-1 $14 #
body $-1 $15 $-1 $16 #
body $-1 $17 $-1 $18 #
body $-1 $19 $-1 $20 #
body $-1 $21 $-1 $22 #
body $-1 $23 $-1 $24 #
body $-1 $25 $-1 $26 #
lump $-1 $-1 $27 $0 #
transform $-1 1 0 0 0 1 0 0 0 1 71.23264259773552 36.681104414330598 14.680277934160852 1 rotate no_reflect no_shear #
lump $-1 $-1 $28 $1 #
transform $-1 1 0 0 0 1 0 0 0 1 71.23264259773552 36.681104414330598 14.680277934160852 1 rotate no_reflect no_shear #
lump $-1 $-1 $29 $2 #
transform $-1 1 0 0 0 1 0 0 0 1 71.23264259773552 36.681104414330598 14.680277934160852 1 rotate no_reflect no_shear #
lump $-1 $-1 $30 $3 #
transform $-1 1 0 0 0 1 0 0 0 1 71.23264259773552 36.681104414330598 14.680277934160852 1 rotate no_reflect no_shear #
lump $-1 $-1 $31 $4 #
transform $-1 1 0 0 0 1 0 0 0 1 71.23264259773552 36.681104414330598 14.680277934160852 1 rotate no_reflect no_shear #
lump $-1 $-1 $32 $5 #
transform $-1 1 0 0 0 1 0 0 0 1 71.23264259773552 36.681104414330598 14.680277934160852 1 rotate no_reflect no_shear #
lump $-1 $-1 $33 $6 #
transform $-1 1 0 0 0 1 0 0 0 1 71.23264259773552 36.681104414330598 14.680277934160852 1 rotate no_reflect no_shear #
lump $-1 $-1 $34 $7 #
transform $-1 1 0 0 0 1 0 0 0 1 71.23264259773552 36.681104414330598 14.680277934160852 1 rotate no_reflect no_shear #
lump $-1 $-1 $35 $8 #
transform $-1 1 0 0 0 1 0 0 0 1 71.23264259773552 36.681104414330598 14.680277934160852 1 rotate no_reflect no_shear #
shell $-1 $-1 $-1 $36 $-1 $9 #
shell $-1 $-1 $-1 $37 $-1 $11 #
shell $-1 $-1 $-1 $38 $-1 $13 #
shell $-1 $-1 $-1 $39 $-1 $15 #
shell $-1 $-1 $-1 $40 $-1 $17 #
shell $-1 $-1 $-1 $41 $-1 $19 #
shell $-1 $-1 $-1 $42 $-1 $21 #
shell $-1 $-1 $-1 $43 $-1 $23 #
shell $-1 $-1 $-1 $44 $-1 $25 #
face $-1 $45 $46 $27 $-1 $47 forward single #
face $-1 $48 $49 $28 $-1 $50 forward single #
face $-1 $51 $52 $29 $-1 $53 reversed single #
face $-1 $54 $55 $30 $-1 $56 reversed single #
face $-1 $57 $58 $31 $-1 $59 forward single #
face $-1 $60 $61 $32 $-1 $62 forward single #
face $-1 $63 $64 $33 $-1 $65 reversed single #
face $-1 $66 $67 $34 $-1 $68 forward single #
face $-1 $69 $70 $35 $-1 $71 forward single #
face $-1 $72 $73 $27 $-1 $74 reversed single #
loop $-1 $-1 $75 $36 #
plane-surface $-1 0 0 14.680277934160852 0 0 1 1 0 0 forward_v I I I I #
face $-1 $76 $77 $28 $-1 $78 reversed single #
loop $-1 $-1 $79 $37 #
plane-surface $-1 -71.23264259773552 0 0 1 0 0 0 0 -1 forward_v I I I I #
face $-1 $80 $81 $29 $-1 $82 reversed single #
loop $-1 $-1 $83 $38 #
plane-surface $-1 64.761689702280449 0 7.4602531830339309 0 0 1 1 0 0 forward_v I I I I #
face $-1 $84 $85 $30 $-1 $86 reversed single #
loop $-1 $-1 $87 $39 #
plane-surface $-1 39.246713054149069 -153.38183518120309 91.602702490474911 -1 0 0 0 -0.81915205242281985 0.57357642473473569 forward_v I I I I #
face $-1 $88 $89 $31 $-1 $90 forward single #
loop $-1 $91 $92 $40 #
cone-surface $-1 29.427207127451979 -34.291858070836582 11.785968311375917 0 0.81915205242281985 -0.57357642473473569 1 0 0 1 I I 0 1 1 forward I I I I #
face $-1 $93 $94 $32 $-1 $95 forward single #
loop $-1 $96 $97 $41 #
cone-surface $-1 35.318910683470236 -34.291858070836582 11.785968311375917 0 0.81915205242281985 -0.57357642473473569 1 0 0 1 I I 0 1 1 forward I I I I #
face $-1 $98 $99 $33 $-1 $100 reversed single #
loop $-1 $-1 $101 $42 #
plane-surface $-1 -29.753987934116239 123.37855822151508 141.19074057804178 1 0 0 0 -0.86602541151947299 -0.49999998660252726 forward_v I I I I #
face $-1 $102 $103 $34 $-1 $104 forward single #
loop $-1 $105 $106 $43 #
cone-surface $-1 -21.252428025290946 33.835733255941818 10.285597044962396 0 -0.86602541151947299 -0.49999998660252726 1 0 0 1 I I 0 1 1 forward I I I I #
face $-1 $107 $108 $35 $-1 $109 forward single #
loop $-1 $110 $111 $44 #
cone-surface $-1 -8.5000881620530038 33.835733255941818 10.285597044962396 0 -0.86602541151947299 -0.49999998660252726 1 0 0 1 I I 0 1 1 forward I I I I #
face $-1 $112 $113 $27 $-1 $114 reversed single #
loop $-1 $-1 $115 $45 #
plane-surface $-1 0 0 -14.680277934160852 0 0 1 1 0 0 forward_v I I I I #
coedge $-1 $116 $117 $118 $119 forward $46 $-1 #
face $-1 $120 $121 $28 $-1 $122 reversed single #
loop $-1 $-1 $123 $48 #
plane-surface $-1 0 0 -14.680277934160852 0 0 1 1 0 0 forward_v I I I I #
coedge $-1 $124 $125 $126 $127 forward $49 $-1 #
face $-1 $128 $129 $29 $-1 $130 reversed single #
loop $-1 $-1 $131 $51 #
plane-surface $-1 58.290736806825379 0 11.070265558597391 1 0 0 0 0 -1 forward_v I I I I #
coedge $-1 $132 $133 $134 $135 reversed $52 $-1 #
face $-1 $136 $137 $30 $-1 $138 reversed single #
loop $-1 $-1 $139 $54 #
plane-surface $-1 32.373058905461107 -36.681104414330619 9.8879735592421554 0 -0.81915205242281985 0.57357642473473569 1 0 0 forward_v I I I I #
coedge $-1 $140 $141 $142 $143 reversed $55 $-1 #
face $-1 $-1 $144 $31 $-1 $145 forward single #
loop $-1 $146 $147 $57 #
cone-surface $-1 29.427207127451979 -33.170839474848421 11.001022663682964 0 0.81915205242281985 -0.57357642473473569 0.5 0 0 1 I I -0.70710678118654746 0.70710678118654746 0.5 forward I I I I #
loop $-1 $-1 $148 $40 #
coedge $-1 $92 $92 $149 $150 reversed $58 $-1 #
face $-1 $-1 $151 $32 $-1 $152 forward single #
loop $-1 $153 $154 $60 #
cone-surface $-1 35.318910683470236 -33.170839474848421 11.001022663682964 0 0.81915205242281985 -0.57357642473473569 0.5 0 0 1 I I -0.70710678118654746 0.70710678118654746 0.5 forward I I I I #
loop $-1 $-1 $155 $41 #
coedge $-1 $97 $97 $156 $157 reversed $61 $-1 #
face $-1 $158 $159 $33 $-1 $160 reversed single #
loop $-1 $-1 $161 $63 #
plane-surface $-1 -14.876258093671979 9.8286818683845922e-007 69.958099888981039 0 0.86602541151947299 0.49999998660252726 1 0 0 forward_v I I I I #
coedge $-1 $162 $163 $164 $165 reversed $64 $-1 #
face $-1 $-1 $166 $34 $-1 $167 forward single #
loop $-1 $168 $169 $66 #
cone-surface $-1 -21.252428025290946 32.94056898470982 9.768773730462005 0 -0.86602541151947299 -0.49999998660252726 0.5 0 0 1 I I -0.70710678118654746 0.70710678118654746 0.5 forward I I I I #
loop $-1 $-1 $170 $43 #
coedge $-1 $106 $106 $171 $172 reversed $67 $-1 #
face $-1 $-1 $173 $35 $-1 $174 forward single #
loop $-1 $175 $176 $69 #
cone-surface $-1 -8.5000881620530038 32.94056898470982 9.768773730462005 0 -0.86602541151947299 -0.49999998660252726 0.5 0 0 1 I I -0.70710678118654746 0.70710678118654746 0.5 forward I I I I #
loop $-1 $-1 $177 $44 #
coedge $-1 $111 $111 $178 $179 reversed $70 $-1 #
face $-1 $180 $181 $27 $-1 $182 reversed single #
loop $-1 $-1 $183 $72 #
plane-surface $-1 0 -36.681104414330598 0 0 1 0 0 0 1 forward_v I I I I #
coedge $-1 $184 $185 $186 $187 forward $73 $-1 #
coedge $-1 $188 $75 $189 $190 forward $46 $-1 #
coedge $-1 $75 $188 $191 $192 forward $46 $-1 #
coedge $-1 $193 $194 $75 $119 reversed $195 $-1 #
edge $-1 $196 -36.681104414330598 $197 36.681104414330598 $118 $198 forward 7 unknown #
face $-1 $199 $200 $28 $-1 $201 reversed single #
loop $-1 $-1 $202 $76 #
plane-surface $-1 -76.395743882123242 -13.182176046964123 0 0 1 0 0 0 1 forward_v I I I I #
coedge $-1 $203 $204 $125 $205 forward $77 $-1 #
coedge $-1 $206 $79 $207 $208 reversed $49 $-1 #
coedge $-1 $79 $206 $123 $205 reversed $49 $-1 #
coedge $-1 $209 $210 $79 $127 reversed $211 $-1 #
edge $-1 $212 -14.680277934160852 $213 14.680277934160852 $126 $214 forward 7 unknown #
face $-1 $215 $216 $29 $-1 $217 forward single #
loop $-1 $-1 $218 $80 #
plane-surface $-1 0 36.681104414330598 0 0 -1 0 0 0 -1 forward_v I I I I #
coedge $-1 $219 $220 $221 $222 reversed $81 $-1 #
coedge $-1 $223 $83 $224 $225 reversed $52 $-1 #
coedge $-1 $83 $223 $218 $226 reversed $52 $-1 #
coedge $-1 $227 $228 $83 $135 forward $229 $-1 #
edge $-1 $230 -36.681104414330598 $231 36.681104414330598 $134 $232 forward 7 unknown #
face $-1 $233 $234 $30 $-1 $235 reversed single #
loop $-1 $-1 $236 $84 #
plane-surface $-1 25.499404756773146 -153.38183518120309 91.602702490474911 1 0 0 0 0.81915205242281985 -0.57357642473473569 forward_v I I I I #
coedge $-1 $237 $238 $239 $240 reversed $85 $-1 #
coedge $-1 $141 $87 $241 $242 reversed $55 $-1 #
coedge $-1 $87 $140 $237 $243 reversed $55 $-1 #
coedge $-1 $239 $244 $87 $143 forward $245 $-1 #
edge $-1 $246 40.009813176270946 $247 43.365420723705455 $142 $248 forward 7 unknown #
loop $-1 $-1 $149 $88 #
plane-surface $-1 32.373058905461107 -36.681104414330619 9.8879735592421554 0 -0.81915205242281985 0.57357642473473569 1 0 0 forward_v I I I I #
loop $-1 $-1 $249 $57 #
coedge $-1 $147 $147 $148 $250 reversed $89 $-1 #
coedge $-1 $148 $148 $147 $250 forward $91 $-1 #
coedge $-1 $149 $149 $92 $150 forward $144 $-1 #
edge $-1 $251 -5.7962686500984556e-016 $251 6.2831853071795996 $149 $252 forward 7 unknown #
loop $-1 $-1 $156 $93 #
plane-surface $-1 32.373058905461107 -36.681104414330619 9.8879735592421554 0 -0.81915205242281985 0.57357642473473569 1 0 0 forward_v I I I I #
loop $-1 $-1 $253 $60 #
coedge $-1 $154 $154 $155 $254 reversed $94 $-1 #
coedge $-1 $155 $155 $154 $254 forward $96 $-1 #
coedge $-1 $156 $156 $97 $157 forward $151 $-1 #
edge $-1 $255 -5.7962686500984556e-016 $255 6.2831853071795996 $156 $256 forward 7 unknown #
face $-1 $257 $258 $33 $-1 $259 forward single #
loop $-1 $-1 $260 $98 #
plane-surface $-1 0.0014717467722817901 123.37855822151508 141.19074057804178 -1 0 0 0 0.86602541151947299 0.49999998660252726 forward_v I I I I #
coedge $-1 $261 $262 $263 $264 reversed $99 $-1 #
coedge $-1 $163 $101 $265 $266 reversed $64 $-1 #
coedge $-1 $101 $162 $261 $267 reversed $64 $-1 #
coedge $-1 $263 $268 $101 $165 forward $258 $-1 #
edge $-1 $269 25.008174696426941 $270 29.774613882259992 $164 $271 forward 7 unknown #
loop $-1 $-1 $171 $102 #
plane-surface $-1 -14.876258093671979 9.8286818683845922e-007 69.958099888981039 0 0.86602541151947299 0.49999998660252726 1 0 0 forward_v I I I I #
loop $-1 $-1 $272 $66 #
coedge $-1 $169 $169 $170 $273 reversed $103 $-1 #
coedge $-1 $170 $170 $169 $273 forward $105 $-1 #
coedge $-1 $171 $171 $106 $172 forward $166 $-1 #
edge $-1 $274 -2.0143434207586993e-015 $274 6.2831853071795987 $171 $275 forward 7 unknown #
loop $-1 $-1 $178 $107 #
plane-surface $-1 -14.876258093671979 9.8286818683845922e-007 69.958099888981039 0 0.86602541151947299 0.49999998660252726 1 0 0 forward_v I I I I #
loop $-1 $-1 $276 $69 #
coedge $-1 $176 $176 $177 $277 reversed $108 $-1 #
coedge $-1 $177 $177 $176 $277 forward $110 $-1 #
coedge $-1 $178 $178 $111 $179 forward $173 $-1 #
edge $-1 $278 -2.0143434207586993e-015 $278 6.2831853071795987 $178 $279 forward 7 unknown #
face $-1 $280 $281 $27 $-1 $282 reversed single #
loop $-1 $-1 $283 $112 #
plane-surface $-1 -71.23264259773552 0 0 1 0 0 0 0 -1 forward_v I I I I #
coedge $-1 $284 $191 $285 $286 forward $113 $-1 #
coedge $-1 $287 $115 $284 $288 forward $73 $-1 #
coedge $-1 $115 $287 $289 $290 forward $73 $-1 #
coedge $-1 $194 $193 $115 $187 reversed $195 $-1 #
edge $-1 $291 -36.681104414330598 $292 36.681104414330598 $186 $293 forward 7 unknown #
coedge $-1 $117 $116 $294 $295 forward $46 $-1 #
coedge $-1 $296 $297 $116 $190 reversed $281 $-1 #
edge $-1 $197 -71.23264259773552 $298 71.23264259773552 $189 $299 forward 7 unknown #
coedge $-1 $183 $300 $117 $192 reversed $113 $-1 #
edge $-1 $301 -71.23264259773552 $196 71.23264259773552 $191 $302 forward 7 unknown #
coedge $-1 $186 $118 $300 $303 forward $195 $-1 #
coedge $-1 $118 $186 $296 $304 reversed $195 $-1 #
loop $-1 $-1 $193 $280 #
vertex $-1 $119 $305 #
vertex $-1 $119 $306 #
straight-curve $-1 71.23264259773552 0 14.680277934160852 0 1 0 I I #
face $-1 $307 $211 $28 $-1 $308 reversed single #
loop $-1 $-1 $309 $120 #
plane-surface $-1 -81.558845166510963 -10.251362296486509 0 1 0 0 0 0 -1 forward_v I I I I #
coedge $-1 $310 $311 $312 $313 forward $121 $-1 #
coedge $-1 $314 $123 $310 $315 forward $77 $-1 #
coedge $-1 $123 $314 $209 $316 forward $77 $-1 #
edge $-1 $212 7.3205485460088937 $317 13.182176046964123 $123 $318 forward 7 unknown #
coedge $-1 $125 $124 $319 $320 forward $49 $-1 #
coedge $-1 $321 $322 $124 $208 forward $323 $-1 #
edge $-1 $324 -13.182176046964123 $213 -7.3205485460088937 $207 $325 forward 7 unknown #
coedge $-1 $326 $126 $204 $316 reversed $211 $-1 #
coedge $-1 $126 $326 $321 $327 reversed $211 $-1 #
loop $-1 $-1 $126 $199 #
vertex $-1 $205 $328 #
vertex $-1 $327 $329 #
straight-curve $-1 -71.23264259773552 -7.3205485460088937 0 0 0 1 I I #
face $-1 $330 $331 $29 $-1 $332 reversed single #
loop $-1 $-1 $333 $128 #
plane-surface $-1 0 0 14.680277934160852 0 0 1 1 0 0 forward_v I I I I #
coedge $-1 $221 $334 $133 $226 forward $129 $-1 #
coedge $-1 $335 $131 $223 $336 reversed $81 $-1 #
coedge $-1 $131 $335 $333 $337 reversed $81 $-1 #
coedge $-1 $338 $218 $131 $222 forward $129 $-1 #
edge $-1 $339 1.9251204037352352 $340 9.1451451548621563 $221 $341 forward 7 unknown #
coedge $-1 $133 $132 $219 $336 forward $52 $-1 #
coedge $-1 $342 $343 $132 $225 forward $331 $-1 #
edge $-1 $344 25.909891955685154 $230 38.851797746595295 $224 $345 forward 7 unknown #
edge $-1 $231 -38.851797746595295 $339 -25.909891955685154 $218 $346 forward 7 unknown #
coedge $-1 $347 $134 $334 $348 reversed $229 $-1 #
coedge $-1 $134 $347 $342 $349 forward $229 $-1 #
loop $-1 $-1 $134 $330 #
vertex $-1 $225 $350 #
vertex $-1 $226 $351 #
straight-curve $-1 71.23264259773552 0 7.4602531830339309 0 1 0 I I #
face $-1 $-1 $245 $30 $-1 $352 forward single #
loop $-1 $-1 $353 $136 #
plane-surface $-1 0 -36.681104414330598 0 0 1 0 0 0 1 forward_v I I I I #
coedge $-1 $354 $355 $356 $357 reversed $137 $-1 #
coedge $-1 $358 $139 $141 $243 forward $85 $-1 #
coedge $-1 $139 $358 $354 $359 forward $85 $-1 #
coedge $-1 $356 $142 $139 $240 forward $245 $-1 #
edge $-1 $247 -23.060183601418515 $360 -9.312875304042592 $239 $361 forward 7 unknown #
coedge $-1 $362 $363 $140 $242 forward $234 $-1 #
edge $-1 $364 -35.913377685995272 $246 -31.121073311076604 $241 $365 forward 7 unknown #
edge $-1 $247 -5.8503233444199019 $364 -3.6963324824065977e-014 $141 $366 forward 7 unknown #
coedge $-1 $142 $356 $362 $367 forward $245 $-1 #
loop $-1 $-1 $356 $233 #
vertex $-1 $242 $368 #
vertex $-1 $143 $369 #
straight-curve $-1 39.246713054149069 -76.690917590601543 14.680277934160848 0 1 0 I I #
coedge $-1 $249 $249 $-1 $370 reversed $146 $-1 #
edge $-1 $371 0 $371 6.2831853071796004 $147 $372 forward 7 unknown #
vertex $-1 $150 $373 #
ellipse-curve $-1 29.427207127451979 -35.003300640613347 12.284125746701514 0 -0.81915205242281985 0.57357642473473569 1 0 0 1 I I #
coedge $-1 $253 $253 $-1 $374 reversed $153 $-1 #
edge $-1 $375 0 $375 6.2831853071796004 $154 $376 forward 7 unknown #
vertex $-1 $157 $377 #
ellipse-curve $-1 35.318910683470236 -35.003300640613347 12.284125746701514 0 -0.81915205242281985 0.57357642473473569 1 0 0 1 I I #
face $-1 $-1 $378 $33 $-1 $379 reversed single #
loop $-1 $-1 $164 $158 #
plane-surface $-1 0 0 14.680277934160852 0 0 1 1 0 0 forward_v I I I I #
coedge $-1 $380 $381 $382 $383 reversed $159 $-1 #
coedge $-1 $384 $161 $163 $267 forward $99 $-1 #
coedge $-1 $161 $384 $380 $385 forward $99 $-1 #
coedge $-1 $382 $164 $161 $264 forward $258 $-1 #
edge $-1 $270 -22.31585888728025 $386 7.4396007936082711 $263 $387 forward 7 unknown #
coedge $-1 $388 $389 $162 $266 forward $378 $-1 #
edge $-1 $390 -64.170807490858692 $269 -55.915092354860036 $265 $391 forward 7 unknown #
edge $-1 $270 63.829330201562144 $390 73.36220882866121 $163 $392 forward 7 unknown #
coedge $-1 $164 $382 $388 $393 forward $258 $-1 #
vertex $-1 $165 $394 #
vertex $-1 $165 $395 #
straight-curve $-1 -29.753987934116239 61.689279110757539 14.680277934160856 0 -1 0 I I #
coedge $-1 $272 $272 $-1 $396 reversed $168 $-1 #
edge $-1 $397 0 $397 6.2831853071796004 $169 $398 forward 7 unknown #
vertex $-1 $172 $399 #
ellipse-curve $-1 -21.252428025290946 34.29788482141408 10.552420366161524 0 0.86602541151947299 0.49999998660252726 1 0 0 1 I I #
coedge $-1 $276 $276 $-1 $400 reversed $175 $-1 #
edge $-1 $401 0 $401 6.2831853071796004 $176 $402 forward 7 unknown #
vertex $-1 $179 $403 #
ellipse-curve $-1 -8.5000881620530038 34.29788482141408 10.552420366161524 0 0.86602541151947299 0.49999998660252726 1 0 0 1 I I #
face $-1 $-1 $195 $27 $-1 $404 reversed single #
loop $-1 $-1 $296 $180 #
plane-surface $-1 0 36.681104414330598 0 0 -1 0 0 0 -1 forward_v I I I I #
coedge $-1 $405 $294 $297 $406 forward $181 $-1 #
coedge $-1 $300 $183 $184 $288 reversed $113 $-1 #
coedge $-1 $294 $405 $183 $286 reversed $181 $-1 #
edge $-1 $301 -14.680277934160852 $407 14.680277934160852 $285 $408 forward 7 unknown #
coedge $-1 $185 $184 $405 $409 forward $73 $-1 #
edge $-1 $292 -71.23264259773552 $407 71.23264259773552 $284 $410 forward 7 unknown #
coedge $-1 $297 $296 $185 $290 reversed $281 $-1 #
edge $-1 $411 -71.23264259773552 $291 71.23264259773552 $289 $412 forward 7 unknown #
vertex $-1 $187 $413 #
vertex $-1 $303 $414 #
straight-curve $-1 71.23264259773552 0 -14.680277934160852 0 -1 0 I I #
coedge $-1 $283 $285 $188 $295 reversed $181 $-1 #
edge $-1 $298 -36.681104414330598 $301 36.681104414330598 $294 $415 forward 7 unknown #
coedge $-1 $289 $189 $194 $304 forward $281 $-1 #
coedge $-1 $189 $289 $283 $406 reversed $281 $-1 #
vertex $-1 $190 $416 #
straight-curve $-1 0 36.681104414330598 14.680277934160852 -1 0 0 I I #
coedge $-1 $191 $284 $193 $303 reversed $113 $-1 #
vertex $-1 $295 $417 #
straight-curve $-1 0 -36.681104414330598 14.680277934160852 1 0 0 I I #
edge $-1 $196 -14.680277934160852 $292 14.680277934160852 $193 $418 forward 7 unknown #
edge $-1 $197 -14.680277934160852 $291 14.680277934160852 $194 $419 forward 7 unknown #
point $-1 71.23264259773552 -36.681104414330598 14.680277934160852 #
point $-1 71.23264259773552 36.681104414330598 14.680277934160852 #
face $-1 $-1 $323 $28 $-1 $420 forward single #
plane-surface $-1 -76.395743882123242 -7.3205485460088937 0 0 -1 0 0 0 -1 forward_v I I I I #
coedge $-1 $421 $422 $326 $423 forward $200 $-1 #
coedge $-1 $319 $202 $203 $315 reversed $121 $-1 #
coedge $-1 $202 $319 $322 $424 reversed $121 $-1 #
coedge $-1 $422 $421 $202 $313 reversed $200 $-1 #
edge $-1 $425 -14.680277934160852 $426 14.680277934160852 $312 $427 forward 7 unknown #
coedge $-1 $204 $203 $421 $428 forward $77 $-1 #
edge $-1 $317 -5.1631012843877215 $426 5.1631012843877215 $310 $429 forward 7 unknown #
edge $-1 $430 -5.1631012843877215 $212 5.1631012843877215 $209 $431 forward 7 unknown #
vertex $-1 $315 $432 #
straight-curve $-1 -71.23264259773552 0 -14.680277934160852 0 -1 0 I I #
coedge $-1 $311 $310 $206 $320 reversed $121 $-1 #
edge $-1 $324 -14.680277934160852 $317 14.680277934160852 $319 $433 forward 7 unknown #
coedge $-1 $434 $207 $210 $327 forward $323 $-1 #
coedge $-1 $207 $434 $311 $424 forward $323 $-1 #
loop $-1 $-1 $207 $307 #
vertex $-1 $208 $435 #
straight-curve $-1 -71.23264259773552 0 14.680277934160852 0 1 0 I I #
coedge $-1 $210 $209 $309 $423 reversed $211 $-1 #
edge $-1 $213 -5.1631012843877215 $436 5.1631012843877215 $210 $437 forward 7 unknown #
point $-1 -71.23264259773552 -7.3205485460088937 -14.680277934160852 #
point $-1 -71.23264259773552 -7.3205485460088937 14.680277934160852 #
face $-1 $-1 $229 $29 $-1 $438 reversed single #
loop $-1 $-1 $224 $215 #
plane-surface $-1 0 -36.681104414330598 0 0 1 0 0 0 1 forward_v I I I I #
coedge $-1 $439 $440 $220 $337 forward $216 $-1 #
coedge $-1 $218 $338 $227 $348 forward $129 $-1 #
coedge $-1 $220 $219 $343 $441 reversed $81 $-1 #
edge $-1 $344 -36.681104414330598 $339 36.681104414330598 $219 $442 forward 7 unknown #
edge $-1 $340 -36.681104414330598 $443 36.681104414330598 $333 $444 forward 7 unknown #
coedge $-1 $334 $221 $440 $445 reversed $129 $-1 #
vertex $-1 $226 $446 #
vertex $-1 $337 $447 #
straight-curve $-1 58.290736806825379 36.681104414330598 5.5351327792986957 0 0 1 I I #
coedge $-1 $448 $224 $228 $349 reversed $331 $-1 #
coedge $-1 $224 $448 $335 $441 forward $331 $-1 #
vertex $-1 $225 $449 #
straight-curve $-1 32.380844851140225 -36.681104414330598 7.4602531830339309 1 0 0 I I #
straight-curve $-1 32.380844851140225 36.681104414330598 7.4602531830339309 -1 0 0 I I #
coedge $-1 $228 $227 $450 $451 reversed $229 $-1 #
edge $-1 $452 -14.680277934160852 $231 -7.4602531830339309 $227 $453 forward 7 unknown #
edge $-1 $454 -14.680277934160852 $230 -7.4602531830339309 $228 $455 forward 7 unknown #
point $-1 71.23264259773552 -36.681104414330598 7.4602531830339309 #
point $-1 71.23264259773552 36.681104414330598 7.4602531830339309 #
plane-surface $-1 0 0 14.680277934160852 0 0 1 1 0 0 forward_v I I I I #
coedge $-1 $363 $362 $355 $456 forward $234 $-1 #
coedge $-1 $355 $236 $238 $359 reversed $137 $-1 #
coedge $-1 $236 $354 $353 $456 reversed $137 $-1 #
coedge $-1 $244 $239 $236 $357 forward $245 $-1 #
edge $-1 $360 -43.365420723705455 $457 -40.009813176270946 $356 $458 forward 7 unknown #
coedge $-1 $238 $237 $363 $459 reversed $85 $-1 #
edge $-1 $460 3.6963324824065977e-014 $360 5.8503233444199019 $354 $461 forward 7 unknown #
vertex $-1 $240 $462 #
straight-curve $-1 16.186529452730554 -33.325496866896096 14.680277934160852 -1 0 0 I I #
coedge $-1 $353 $241 $244 $367 reversed $234 $-1 #
coedge $-1 $241 $353 $358 $459 forward $234 $-1 #
vertex $-1 $242 $463 #
straight-curve $-1 39.246713054149069 -36.681104414330598 45.801351245237456 0 0 1 I I #
straight-curve $-1 39.246713054149069 -36.681104414330619 9.8879735592421554 0 -0.57357642473473569 -0.81915205242281985 I I #
edge $-1 $457 25.499404756773146 $246 39.246713054149069 $362 $464 forward 7 unknown #
point $-1 39.246713054149069 -36.681104414330598 14.680277934160852 #
point $-1 39.246713054149069 -33.325496866896088 14.680277934160852 #
edge $-1 $465 1 $465 0 $249 $-1 forward 7 unknown #
vertex $-1 $250 $466 #
ellipse-curve $-1 29.427207127451979 -33.580415501059832 11.287810876050331 0 -0.81915205242281985 0.57357642473473569 1 0 0 1 I I #
point $-1 30.427207127451979 -35.003300640613332 12.284125746701504 #
edge $-1 $467 1 $467 0 $253 $-1 forward 7 unknown #
vertex $-1 $254 $468 #
ellipse-curve $-1 35.318910683470236 -33.580415501059832 11.287810876050331 0 -0.81915205242281985 0.57357642473473569 1 0 0 1 I I #
point $-1 36.318910683470236 -35.003300640613332 12.284125746701504 #
loop $-1 $-1 $265 $257 #
plane-surface $-1 0 36.681104414330598 0 0 -1 0 0 0 -1 forward_v I I I I #
coedge $-1 $381 $260 $262 $385 reversed $159 $-1 #
coedge $-1 $260 $380 $469 $470 reversed $159 $-1 #
coedge $-1 $268 $263 $260 $383 forward $258 $-1 #
edge $-1 $386 -29.774613882259992 $471 -25.008174696426941 $382 $472 forward 7 unknown #
coedge $-1 $262 $261 $389 $473 reversed $99 $-1 #
edge $-1 $474 -73.36220882866121 $386 -63.829330201562144 $380 $475 forward 7 unknown #
vertex $-1 $264 $476 #
straight-curve $-1 -7.4381290468359893 31.914665228497554 14.680277934160848 1 0 0 I I #
coedge $-1 $469 $265 $268 $393 reversed $378 $-1 #
coedge $-1 $265 $469 $384 $473 forward $378 $-1 #
vertex $-1 $266 $477 #
straight-curve $-1 -29.753987934116239 36.681104414330598 70.595370289020892 0 0 1 I I #
straight-curve $-1 -29.753987934116239 9.8286818683845922e-007 69.958099888981039 0 0.49999998660252726 -0.86602541151947299 I I #
edge $-1 $471 -0.0014717467722817901 $269 29.753987934116239 $388 $478 forward 7 unknown #
point $-1 -29.753987934116239 36.681104414330598 14.680277934160852 #
point $-1 -29.753987934116239 31.914665228497547 14.680277934160856 #
edge $-1 $479 1 $479 0 $272 $-1 forward 7 unknown #
vertex $-1 $273 $480 #
ellipse-curve $-1 -21.252428025290946 33.373581690469557 10.018773723763269 0 0.86602541151947299 0.49999998660252726 1 0 0 1 I I #
point $-1 -20.252428025290946 34.297884821414073 10.552420366161522 #
edge $-1 $481 1 $481 0 $276 $-1 forward 7 unknown #
vertex $-1 $277 $482 #
ellipse-curve $-1 -8.5000881620530038 33.373581690469557 10.018773723763269 0 0.86602541151947299 0.49999998660252726 1 0 0 1 I I #
point $-1 -7.5000881620530038 34.297884821414073 10.552420366161522 #
plane-surface $-1 71.23264259773552 0 0 -1 0 0 0 0 1 forward_v I I I I #
coedge $-1 $285 $283 $287 $409 reversed $181 $-1 #
edge $-1 $298 -14.680277934160852 $411 14.680277934160852 $297 $483 forward 7 unknown #
vertex $-1 $409 $484 #
straight-curve $-1 -71.23264259773552 -36.681104414330598 0 0 0 -1 I I #
edge $-1 $407 -36.681104414330598 $411 36.681104414330598 $405 $485 forward 7 unknown #
straight-curve $-1 0 -36.681104414330598 -14.680277934160852 -1 0 0 I I #
vertex $-1 $290 $486 #
straight-curve $-1 0 36.681104414330598 -14.680277934160852 1 0 0 I I #
point $-1 71.23264259773552 36.681104414330598 -14.680277934160852 #
point $-1 71.23264259773552 -36.681104414330598 -14.680277934160852 #
straight-curve $-1 -71.23264259773552 0 14.680277934160852 0 -1 0 I I #
point $-1 -71.23264259773552 36.681104414330598 14.680277934160852 #
point $-1 -71.23264259773552 -36.681104414330598 14.680277934160852 #
straight-curve $-1 71.23264259773552 -36.681104414330598 0 0 0 -1 I I #
straight-curve $-1 71.23264259773552 36.681104414330598 0 0 0 -1 I I #
plane-surface $-1 0 0 14.680277934160852 0 0 1 1 0 0 forward_v I I I I #
coedge $-1 $312 $309 $314 $428 reversed $200 $-1 #
coedge $-1 $309 $312 $434 $487 reversed $200 $-1 #
edge $-1 $436 -14.680277934160852 $430 14.680277934160852 $326 $488 forward 7 unknown #
edge $-1 $425 -5.1631012843877215 $324 5.1631012843877215 $311 $489 forward 7 unknown #
vertex $-1 $487 $490 #
vertex $-1 $428 $491 #
straight-curve $-1 -81.558845166510963 -13.182176046964123 0 0 0 -1 I I #
edge $-1 $426 -2.9308137504776148 $430 2.9308137504776148 $421 $492 forward 7 unknown #
straight-curve $-1 -76.395743882123242 -13.182176046964123 -14.680277934160852 -1 0 0 I I #
vertex $-1 $316 $493 #
straight-curve $-1 -76.395743882123242 -7.3205485460088937 -14.680277934160852 1 0 0 I I #
point $-1 -71.23264259773552 -13.182176046964123 -14.680277934160852 #
straight-curve $-1 -71.23264259773552 -13.182176046964123 0 0 0 -1 I I #
coedge $-1 $322 $321 $422 $487 forward $323 $-1 #
point $-1 -71.23264259773552 -13.182176046964123 14.680277934160852 #
vertex $-1 $327 $494 #
straight-curve $-1 -76.395743882123242 -7.3205485460088937 14.680277934160852 -1 0 0 I I #
plane-surface $-1 71.23264259773552 0 0 -1 0 0 0 0 1 forward_v I I I I #
coedge $-1 $450 $333 $448 $495 forward $216 $-1 #
coedge $-1 $333 $450 $338 $445 forward $216 $-1 #
edge $-1 $443 -9.1451451548621563 $344 -1.9251204037352352 $343 $496 forward 7 unknown #
straight-curve $-1 58.290736806825379 0 7.4602531830339309 0 1 0 I I #
vertex $-1 $495 $497 #
straight-curve $-1 58.290736806825379 0 14.680277934160852 0 -1 0 I I #
edge $-1 $452 -71.23264259773552 $340 -58.290736806825379 $338 $498 forward 7 unknown #
point $-1 58.290736806825379 36.681104414330598 7.4602531830339309 #
point $-1 58.290736806825379 36.681104414330598 14.680277934160852 #
coedge $-1 $343 $342 $439 $495 reversed $331 $-1 #
point $-1 58.290736806825379 -36.681104414330598 7.4602531830339309 #
coedge $-1 $440 $439 $347 $451 forward $216 $-1 #
edge $-1 $454 -36.681104414330598 $452 36.681104414330598 $347 $499 forward 7 unknown #
vertex $-1 $451 $500 #
straight-curve $-1 71.23264259773552 36.681104414330598 0 0 0 -1 I I #
vertex $-1 $451 $501 #
straight-curve $-1 71.23264259773552 -36.681104414330598 0 0 0 -1 I I #
edge $-1 $457 31.121073311076604 $460 35.913377685995272 $353 $502 forward 7 unknown #
vertex $-1 $367 $503 #
straight-curve $-1 25.499404756773146 -76.690917590601543 14.680277934160848 0 -1 0 I I #
edge $-1 $460 9.312875304042592 $364 23.060183601418515 $363 $504 forward 7 unknown #
vertex $-1 $459 $505 #
straight-curve $-1 25.499404756773146 -36.681104414330619 9.8879735592421554 0 0.57357642473473569 0.81915205242281985 I I #
point $-1 25.499404756773146 -33.325496866896088 14.680277934160852 #
point $-1 39.246713054149069 -36.681104414330598 9.8879735592421856 #
straight-curve $-1 0 -36.681104414330598 14.680277934160852 1 0 0 I I #
vertex $-1 $370 $506 #
point $-1 30.427207127451979 -33.580415501059832 11.287810876050331 #
vertex $-1 $374 $507 #
point $-1 36.318910683470236 -33.580415501059832 11.287810876050331 #
coedge $-1 $389 $388 $381 $470 forward $378 $-1 #
edge $-1 $471 55.915092354860036 $474 64.170807490858692 $469 $508 forward 7 unknown #
vertex $-1 $393 $509 #
straight-curve $-1 0.0014717467722817901 61.689279110757539 14.680277934160856 0 1 0 I I #
edge $-1 $474 -7.4396007936082711 $390 22.31585888728025 $389 $510 forward 7 unknown #
vertex $-1 $473 $511 #
straight-curve $-1 0.0014717467722817901 9.8286818683845922e-007 69.958099888981039 0 -0.49999998660252726 0.86602541151947299 I I #
point $-1 0.0014717467722817901 31.914665228497547 14.680277934160856 #
point $-1 -29.753987934116239 36.681104414330598 6.4245627981621993 #
straight-curve $-1 0 36.681104414330598 14.680277934160852 -1 0 0 I I #
vertex $-1 $396 $512 #
point $-1 -20.252428025290946 33.373581690469557 10.018773723763269 #
vertex $-1 $400 $513 #
point $-1 -7.5000881620530038 33.373581690469557 10.018773723763269 #
straight-curve $-1 -71.23264259773552 36.681104414330598 0 0 0 -1 I I #
point $-1 -71.23264259773552 -36.681104414330598 -14.680277934160852 #
straight-curve $-1 -71.23264259773552 0 -14.680277934160852 0 1 0 I I #
point $-1 -71.23264259773552 36.681104414330598 -14.680277934160852 #
edge $-1 $436 -2.9308137504776148 $425 2.9308137504776148 $422 $514 forward 7 unknown #
straight-curve $-1 -81.558845166510963 -7.3205485460088937 0 0 0 -1 I I #
straight-curve $-1 -76.395743882123242 -13.182176046964123 14.680277934160852 1 0 0 I I #
point $-1 -81.558845166510963 -13.182176046964123 14.680277934160852 #
point $-1 -81.558845166510963 -13.182176046964123 -14.680277934160852 #
straight-curve $-1 -81.558845166510963 -10.251362296486509 -14.680277934160852 0 1 0 I I #
point $-1 -81.558845166510963 -7.3205485460088937 -14.680277934160852 #
point $-1 -81.558845166510963 -7.3205485460088937 14.680277934160852 #
edge $-1 $443 58.290736806825379 $454 71.23264259773552 $448 $515 forward 7 unknown #
straight-curve $-1 58.290736806825379 -36.681104414330598 5.5351327792986957 0 0 -1 I I #
point $-1 58.290736806825379 -36.681104414330598 14.680277934160852 #
straight-curve $-1 0 36.681104414330598 14.680277934160852 -1 0 0 I I #
straight-curve $-1 71.23264259773552 0 14.680277934160852 0 1 0 I I #
point $-1 71.23264259773552 36.681104414330598 14.680277934160852 #
point $-1 71.23264259773552 -36.681104414330598 14.680277934160852 #
straight-curve $-1 25.499404756773146 -36.681104414330598 45.801351245237456 0 0 -1 I I #
point $-1 25.499404756773146 -36.681104414330598 14.680277934160852 #
straight-curve $-1 16.186529452730554 -36.681104414330598 9.8879735592421856 1 0 0 I I #
point $-1 25.499404756773146 -36.681104414330598 9.8879735592421856 #
point $-1 29.427207127451979 -32.76126344863701 10.714234451315596 #
point $-1 35.318910683470236 -32.76126344863701 10.714234451315596 #
straight-curve $-1 0.0014717467722817901 36.681104414330598 70.595370289020892 0 0 -1 I I #
point $-1 0.0014717467722817901 36.681104414330598 14.680277934160852 #
straight-curve $-1 -7.4381290468359893 36.681104414330605 6.4245627981621993 -1 0 0 I I #
point $-1 0.0014717467722817901 36.681104414330598 6.4245627981621993 #
point $-1 -21.252428025290946 32.507556278950084 9.5187737371607408 #
point $-1 -8.5000881620530038 32.507556278950084 9.5187737371607408 #
straight-curve $-1 -81.558845166510963 -10.251362296486509 14.680277934160852 0 -1 0 I I #
straight-curve $-1 0 -36.681104414330598 14.680277934160852 1 0 0 I I #
End-of-ACIS-data 