500 0 9 0           
7 Unknown 11 ACIS 5.0 NT 24 Fri Mar 26 19:29:42 1999 
-1 9.9999999999999995e-007 1e-010 
body $-1 $9 $-1 $10 #
body $-1 $11 $-1 $12 #
body $-1 $13 $-1 $14 #
body $-1 $15 $-1 $16 #
body $-1 $17 $-1 $18 #
body $-1 $19 $-1 $20 #
body $-1 $21 $-1 $22 #
body $-1 $23 $-1 $24 #
body $-1 $25 $-1 $26 #
lump $-1 $-1 $27 $0 #
transform $-1 1 0 0 0 1 0 0 0 1 78.84640034180731 47.839386267754307 20.951394045740575 1 rotate no_reflect no_shear #
lump $-1 $-1 $28 $1 #
transform $-1 1 0 0 0 1 0 0 0 1 78.84640034180731 47.839386267754307 20.951394045740575 1 rotate no_reflect no_shear #
lump $-1 $-1 $29 $2 #
transform $-1 1 0 0 0 1 0 0 0 1 78.84640034180731 47.839386267754307 20.951394045740575 1 rotate no_reflect no_shear #
lump $-1 $-1 $30 $3 #
transform $-1 1 0 0 0 1 0 0 0 1 78.84640034180731 47.839386267754307 20.951394045740575 1 rotate no_reflect no_shear #
lump $-1 $-1 $31 $4 #
transform $-1 1 0 0 0 1 0 0 0 1 78.84640034180731 47.839386267754307 20.951394045740575 1 rotate no_reflect no_shear #
lump $-1 $-1 $32 $5 #
transform $-1 1 0 0 0 1 0 0 0 1 78.84640034180731 47.839386267754307 20.951394045740575 1 rotate no_reflect no_shear #
lump $-1 $-1 $33 $6 #
transform $-1 1 0 0 0 1 0 0 0 1 78.84640034180731 47.839386267754307 20.951394045740575 1 rotate no_reflect no_shear #
lump $-1 $-1 $34 $7 #
transform $-1 1 0 0 0 1 0 0 0 1 78.84640034180731 47.839386267754307 20.951394045740575 1 rotate no_reflect no_shear #
lump $-1 $-1 $35 $8 #
transform $-1 1 0 0 0 1 0 0 0 1 78.84640034180731 47.839386267754307 20.951394045740575 1 rotate no_reflect no_shear #
shell $-1 $-1 $-1 $36 $-1 $9 #
shell $-1 $-1 $-1 $37 $-1 $11 #
shell $-1 $-1 $-1 $38 $-1 $13 #
shell $-1 $-1 $-1 $39 $-1 $15 #
shell $-1 $-1 $-1 $40 $-1 $17 #
shell $-1 $-1 $-1 $41 $-1 $19 #
shell $-1 $-1 $-1 $42 $-1 $21 #
shell $-1 $-1 $-1 $43 $-1 $23 #
shell $-1 $-1 $-1 $44 $-1 $25 #
face $-1 $45 $46 $27 $-1 $47 forward single #
face $-1 $48 $49 $28 $-1 $50 reversed single #
face $-1 $51 $52 $29 $-1 $53 reversed single #
face $-1 $54 $55 $30 $-1 $56 reversed single #
face $-1 $57 $58 $31 $-1 $59 forward single #
face $-1 $60 $61 $32 $-1 $62 reversed single #
face $-1 $63 $64 $33 $-1 $65 forward single #
face $-1 $66 $67 $34 $-1 $68 forward single #
face $-1 $69 $70 $35 $-1 $71 forward single #
face $-1 $72 $73 $27 $-1 $74 reversed single #
loop $-1 $-1 $75 $36 #
plane-surface $-1 0 0 20.951394045740575 0 0 1 1 0 0 forward_v I I I I #
face $-1 $76 $77 $28 $-1 $78 reversed single #
loop $-1 $-1 $79 $37 #
plane-surface $-1 -55.742755208513898 -45.009698034183188 0 -1 0 0 0 0 1 forward_v I I I I #
face $-1 $80 $81 $29 $-1 $82 reversed single #
loop $-1 $-1 $83 $38 #
plane-surface $-1 55.742755208513898 -45.009698034183188 0 1 0 0 0 0 -1 forward_v I I I I #
face $-1 $84 $85 $30 $-1 $86 reversed single #
loop $-1 $-1 $87 $39 #
plane-surface $-1 -55.742755208513898 119.17697282580853 174.5826922475421 1 0 0 0 -0.80901700255871778 -0.5877852410284794 forward_v I I I I #
face $-1 $88 $89 $31 $-1 $90 forward single #
loop $-1 $91 $92 $40 #
cone-surface $-1 -43.989092376666513 38.626213741795681 10.371019435208527 0 -0.80901700255871778 -0.5877852410284794 2 0 0 1 I I 0 1 2 forward I I I I #
face $-1 $93 $94 $32 $-1 $95 reversed single #
loop $-1 $-1 $96 $41 #
plane-surface $-1 -47.105664767852687 -47.839386267754307 3.2909336842788122 0 -0.62932039886446345 0.77714595512881146 1 0 0 forward_v I I I I #
face $-1 $97 $98 $33 $-1 $99 forward single #
loop $-1 $100 $101 $42 #
cone-surface $-1 -52.287919032249413 -36.455052410321294 11.528526926816351 0 0.62932039886446345 -0.77714595512881146 1 0 0 1 I I 0 1 1 forward I I I I #
face $-1 $102 $103 $34 $-1 $104 forward single #
loop $-1 $105 $106 $43 #
cone-surface $-1 -47.105664767852687 -36.455052410321294 11.528526926816351 0 0.62932039886446345 -0.77714595512881146 1 0 0 1 I I 0 1 1 forward I I I I #
face $-1 $107 $108 $35 $-1 $109 forward single #
loop $-1 $110 $111 $44 #
cone-surface $-1 -41.923410503455962 -36.455052410321294 11.528526926816351 0 0.62932039886446345 -0.77714595512881146 1 0 0 1 I I 0 1 1 forward I I I I #
face $-1 $112 $113 $27 $-1 $114 reversed single #
loop $-1 $-1 $115 $45 #
plane-surface $-1 0 0 -20.951394045740575 0 0 1 1 0 0 forward_v I I I I #
coedge $-1 $116 $117 $118 $119 forward $46 $-1 #
face $-1 $120 $121 $28 $-1 $122 forward single #
loop $-1 $-1 $123 $48 #
plane-surface $-1 -67.294577775160604 -42.180009800612069 0 0 -1 0 0 0 -1 forward_v I I I I #
coedge $-1 $124 $125 $126 $127 reversed $49 $-1 #
face $-1 $128 $129 $29 $-1 $130 forward single #
loop $-1 $-1 $131 $51 #
plane-surface $-1 67.294577775160604 -42.180009800612069 0 0 -1 0 0 0 -1 forward_v I I I I #
coedge $-1 $132 $133 $134 $135 forward $52 $-1 #
face $-1 $136 $137 $30 $-1 $138 reversed single #
loop $-1 $-1 $139 $54 #
plane-surface $-1 -43.989092376666513 -8.3991841083386873 81.893191389267713 0 0.80901700255871778 0.5877852410284794 1 0 0 forward_v I I I I #
coedge $-1 $140 $141 $142 $143 reversed $55 $-1 #
face $-1 $-1 $144 $31 $-1 $145 forward single #
loop $-1 $146 $147 $57 #
cone-surface $-1 -43.989092376666513 34.584906297940094 7.4348377944717008 0 -0.80901700255871778 -0.5877852410284794 1 0 0 1 I I -0.70710678118654746 0.70710678118654746 1 forward I I I I #
loop $-1 $-1 $148 $40 #
coedge $-1 $92 $92 $149 $150 reversed $58 $-1 #
face $-1 $151 $152 $32 $-1 $153 forward single #
loop $-1 $-1 $154 $60 #
plane-surface $-1 -38.468574327191476 -147.07868249202099 125.84125588848379 -1 0 0 0 -0.62932039886446345 0.77714595512881146 forward_v I I I I #
coedge $-1 $155 $156 $157 $158 reversed $61 $-1 #
face $-1 $-1 $159 $33 $-1 $160 forward single #
loop $-1 $161 $162 $63 #
cone-surface $-1 -52.287919032249413 -35.660484270991425 10.547317011058606 0 0.62932039886446345 -0.77714595512881146 0.5 0 0 1 I I -0.70710678118654746 0.70710678118654746 0.5 forward I I I I #
loop $-1 $-1 $163 $42 #
coedge $-1 $101 $101 $164 $165 reversed $64 $-1 #
face $-1 $-1 $166 $34 $-1 $167 forward single #
loop $-1 $168 $169 $66 #
cone-surface $-1 -47.105664767852687 -35.660484270991425 10.547317011058606 0 0.62932039886446345 -0.77714595512881146 0.5 0 0 1 I I -0.70710678118654746 0.70710678118654746 0.5 forward I I I I #
loop $-1 $-1 $170 $43 #
coedge $-1 $106 $106 $171 $172 reversed $67 $-1 #
face $-1 $-1 $173 $35 $-1 $174 forward single #
loop $-1 $175 $176 $69 #
cone-surface $-1 -41.923410503455962 -35.660484270991425 10.547317011058606 0 0.62932039886446345 -0.77714595512881146 0.5 0 0 1 I I -0.70710678118654746 0.70710678118654746 0.5 forward I I I I #
loop $-1 $-1 $177 $44 #
coedge $-1 $111 $111 $178 $179 reversed $70 $-1 #
face $-1 $180 $181 $27 $-1 $182 reversed single #
loop $-1 $-1 $183 $72 #
plane-surface $-1 0 -47.839386267754307 0 0 1 0 0 0 1 forward_v I I I I #
coedge $-1 $184 $185 $186 $187 forward $73 $-1 #
coedge $-1 $188 $75 $189 $190 forward $46 $-1 #
coedge $-1 $75 $188 $191 $192 forward $46 $-1 #
coedge $-1 $193 $194 $75 $119 reversed $195 $-1 #
edge $-1 $196 -47.839386267754307 $197 47.839386267754307 $118 $198 forward 7 unknown #
face $-1 $199 $200 $28 $-1 $201 reversed single #
loop $-1 $-1 $202 $76 #
plane-surface $-1 0 0 20.951394045740575 0 0 1 1 0 0 forward_v I I I I #
coedge $-1 $203 $204 $205 $206 forward $77 $-1 #
coedge $-1 $205 $79 $207 $208 reversed $49 $-1 #
coedge $-1 $79 $205 $202 $209 reversed $49 $-1 #
coedge $-1 $210 $211 $79 $127 forward $212 $-1 #
edge $-1 $213 -20.951394045740575 $214 20.951394045740575 $126 $215 forward 7 unknown #
face $-1 $216 $217 $29 $-1 $218 reversed single #
loop $-1 $-1 $219 $80 #
plane-surface $-1 0 0 20.951394045740575 0 0 1 1 0 0 forward_v I I I I #
coedge $-1 $220 $221 $222 $223 reversed $81 $-1 #
coedge $-1 $224 $83 $225 $226 reversed $52 $-1 #
coedge $-1 $83 $224 $227 $228 reversed $52 $-1 #
coedge $-1 $221 $220 $83 $135 reversed $81 $-1 #
edge $-1 $229 -20.951394045740575 $230 20.951394045740575 $134 $231 forward 7 unknown #
face $-1 $232 $233 $30 $-1 $234 reversed single #
loop $-1 $-1 $235 $84 #
plane-surface $-1 -32.235429544819127 119.17697282580853 174.5826922475421 -1 0 0 0 0.80901700255871778 0.5877852410284794 forward_v I I I I #
coedge $-1 $236 $237 $238 $239 reversed $85 $-1 #
coedge $-1 $141 $87 $240 $241 reversed $55 $-1 #
coedge $-1 $87 $140 $236 $242 reversed $55 $-1 #
coedge $-1 $238 $243 $87 $143 forward $244 $-1 #
edge $-1 $245 11.74910014514996 $246 23.710864314473511 $142 $247 forward 7 unknown #
loop $-1 $-1 $149 $88 #
plane-surface $-1 -43.989092376666513 -8.3991841083386873 81.893191389267713 0 0.80901700255871778 0.5877852410284794 1 0 0 forward_v I I I I #
loop $-1 $-1 $248 $57 #
coedge $-1 $147 $147 $148 $249 reversed $89 $-1 #
coedge $-1 $148 $148 $147 $249 forward $91 $-1 #
coedge $-1 $149 $149 $92 $150 forward $144 $-1 #
edge $-1 $250 -8.5339476790408293e-016 $250 6.2831853071795996 $149 $251 forward 7 unknown #
face $-1 $252 $253 $32 $-1 $254 forward single #
loop $-1 $-1 $255 $93 #
plane-surface $-1 0 0 20.951394045740575 0 0 1 1 0 0 forward_v I I I I #
coedge $-1 $256 $257 $258 $259 reversed $94 $-1 #
coedge $-1 $260 $96 $261 $262 reversed $61 $-1 #
coedge $-1 $96 $260 $256 $263 forward $61 $-1 #
coedge $-1 $258 $264 $96 $158 forward $265 $-1 #
edge $-1 $266 -32.189922824587555 $267 -14.915741943265132 $157 $268 forward 7 unknown #
loop $-1 $-1 $164 $97 #
plane-surface $-1 -47.105664767852687 -47.839386267754307 3.2909336842788122 0 -0.62932039886446345 0.77714595512881146 1 0 0 forward_v I I I I #
loop $-1 $-1 $269 $63 #
coedge $-1 $162 $162 $163 $270 reversed $98 $-1 #
coedge $-1 $163 $163 $162 $270 forward $100 $-1 #
coedge $-1 $164 $164 $101 $165 forward $159 $-1 #
edge $-1 $271 5.5219541304212176e-015 $271 6.2831853071796058 $164 $272 forward 7 unknown #
loop $-1 $-1 $171 $102 #
plane-surface $-1 -47.105664767852687 -47.839386267754307 3.2909336842788122 0 -0.62932039886446345 0.77714595512881146 1 0 0 forward_v I I I I #
loop $-1 $-1 $273 $66 #
coedge $-1 $169 $169 $170 $274 reversed $103 $-1 #
coedge $-1 $170 $170 $169 $274 forward $105 $-1 #
coedge $-1 $171 $171 $106 $172 forward $166 $-1 #
edge $-1 $275 5.5219541304212176e-015 $275 6.2831853071796058 $171 $276 forward 7 unknown #
loop $-1 $-1 $178 $107 #
plane-surface $-1 -47.105664767852687 -47.839386267754307 3.2909336842788122 0 -0.62932039886446345 0.77714595512881146 1 0 0 forward_v I I I I #
loop $-1 $-1 $277 $69 #
coedge $-1 $176 $176 $177 $278 reversed $108 $-1 #
coedge $-1 $177 $177 $176 $278 forward $110 $-1 #
coedge $-1 $178 $178 $111 $179 forward $173 $-1 #
edge $-1 $279 5.5219541304212176e-015 $279 6.2831853071796058 $178 $280 forward 7 unknown #
face $-1 $281 $282 $27 $-1 $283 reversed single #
loop $-1 $-1 $284 $112 #
plane-surface $-1 -78.84640034180731 0 0 1 0 0 0 0 -1 forward_v I I I I #
coedge $-1 $285 $191 $286 $287 forward $113 $-1 #
coedge $-1 $288 $115 $285 $289 forward $73 $-1 #
coedge $-1 $115 $288 $290 $291 forward $73 $-1 #
coedge $-1 $194 $193 $115 $187 reversed $195 $-1 #
edge $-1 $292 -47.839386267754307 $293 47.839386267754307 $186 $294 forward 7 unknown #
coedge $-1 $117 $116 $295 $296 forward $46 $-1 #
coedge $-1 $297 $298 $116 $190 reversed $282 $-1 #
edge $-1 $197 -78.84640034180731 $299 78.84640034180731 $189 $300 forward 7 unknown #
coedge $-1 $183 $301 $117 $192 reversed $113 $-1 #
edge $-1 $302 -78.84640034180731 $196 78.84640034180731 $191 $303 forward 7 unknown #
coedge $-1 $186 $118 $301 $304 forward $195 $-1 #
coedge $-1 $118 $186 $297 $305 reversed $195 $-1 #
loop $-1 $-1 $193 $281 #
vertex $-1 $119 $306 #
vertex $-1 $119 $307 #
straight-curve $-1 78.84640034180731 0 20.951394045740575 0 1 0 I I #
face $-1 $308 $309 $28 $-1 $310 reversed single #
loop $-1 $-1 $311 $120 #
plane-surface $-1 -78.84640034180731 0 0 1 0 0 0 0 -1 forward_v I I I I #
coedge $-1 $312 $313 $125 $209 forward $121 $-1 #
coedge $-1 $314 $123 $315 $316 reversed $77 $-1 #
coedge $-1 $123 $314 $312 $317 reversed $77 $-1 #
coedge $-1 $125 $124 $123 $206 reversed $49 $-1 #
edge $-1 $318 -20.951394045740575 $319 20.951394045740575 $205 $320 forward 7 unknown #
coedge $-1 $321 $315 $124 $208 forward $309 $-1 #
edge $-1 $319 19.675160783520475 $213 25.334537250662713 $207 $322 forward 7 unknown #
edge $-1 $214 -25.334537250662713 $318 -19.675160783520475 $202 $323 forward 7 unknown #
coedge $-1 $324 $126 $313 $325 reversed $212 $-1 #
coedge $-1 $126 $324 $321 $326 reversed $212 $-1 #
loop $-1 $-1 $126 $308 #
vertex $-1 $326 $327 #
vertex $-1 $127 $328 #
straight-curve $-1 -55.742755208513898 -47.839386267754307 0 0 0 1 I I #
face $-1 $329 $330 $29 $-1 $331 reversed single #
loop $-1 $-1 $332 $128 #
plane-surface $-1 0 -47.839386267754307 0 0 1 0 0 0 1 forward_v I I I I #
coedge $-1 $227 $333 $221 $334 forward $129 $-1 #
coedge $-1 $134 $131 $335 $336 reversed $81 $-1 #
coedge $-1 $131 $134 $219 $334 reversed $81 $-1 #
coedge $-1 $337 $338 $131 $223 forward $339 $-1 #
edge $-1 $340 -20.951394045740575 $341 20.951394045740575 $222 $342 forward 7 unknown #
coedge $-1 $133 $132 $332 $343 reversed $52 $-1 #
coedge $-1 $335 $344 $132 $226 forward $330 $-1 #
edge $-1 $345 -25.334537250662713 $230 -19.675160783520475 $225 $346 forward 7 unknown #
coedge $-1 $347 $219 $133 $228 forward $129 $-1 #
edge $-1 $229 19.675160783520475 $348 25.334537250662713 $227 $349 forward 7 unknown #
vertex $-1 $228 $350 #
vertex $-1 $226 $351 #
straight-curve $-1 55.742755208513898 -42.180009800612069 0 0 0 -1 I I #
face $-1 $-1 $244 $30 $-1 $352 forward single #
loop $-1 $-1 $353 $136 #
plane-surface $-1 0 47.839386267754307 0 0 -1 0 0 0 -1 forward_v I I I I #
coedge $-1 $354 $355 $356 $357 reversed $137 $-1 #
coedge $-1 $358 $139 $141 $242 forward $85 $-1 #
coedge $-1 $139 $358 $354 $359 forward $85 $-1 #
coedge $-1 $356 $142 $139 $239 forward $244 $-1 #
edge $-1 $246 -33.748209020180639 $360 -10.24088335648587 $238 $361 forward 7 unknown #
coedge $-1 $362 $363 $140 $241 forward $233 $-1 #
edge $-1 $364 -82.803908499677902 $245 -66.339952078030478 $240 $365 forward 7 unknown #
edge $-1 $246 75.328203425618412 $364 95.678772535508642 $141 $366 forward 7 unknown #
coedge $-1 $142 $356 $362 $367 forward $244 $-1 #
loop $-1 $-1 $356 $232 #
vertex $-1 $241 $368 #
vertex $-1 $143 $369 #
straight-curve $-1 -55.742755208513898 59.588486412904267 20.951394045740571 0 -1 0 I I #
coedge $-1 $248 $248 $-1 $370 reversed $146 $-1 #
edge $-1 $371 0 $371 6.2831853071796004 $147 $372 forward 7 unknown #
vertex $-1 $150 $373 #
ellipse-curve $-1 -43.989092376666513 41.858504183092535 12.719415834916861 0 0.80901700255871778 0.5877852410284794 2 0 0 1 I I #
face $-1 $-1 $265 $32 $-1 $374 reversed single #
loop $-1 $-1 $261 $151 #
plane-surface $-1 -55.742755208513898 -45.009698034183188 0 -1 0 0 0 0 1 forward_v I I I I #
coedge $-1 $375 $376 $257 $377 forward $152 $-1 #
coedge $-1 $257 $154 $156 $263 reversed $94 $-1 #
coedge $-1 $154 $256 $255 $377 reversed $94 $-1 #
coedge $-1 $378 $157 $154 $259 forward $265 $-1 #
edge $-1 $267 -59.629694259963081 $379 -41.969233898501315 $258 $380 forward 7 unknown #
coedge $-1 $156 $155 $375 $381 reversed $61 $-1 #
coedge $-1 $382 $383 $155 $262 forward $253 $-1 #
edge $-1 $384 -27.998734415349681 $266 0.064014533084275779 $261 $385 forward 7 unknown #
edge $-1 $386 -28.062748948433956 $267 0 $256 $387 forward 7 unknown #
coedge $-1 $157 $378 $382 $388 forward $265 $-1 #
loop $-1 $-1 $258 $252 #
vertex $-1 $262 $389 #
vertex $-1 $158 $390 #
straight-curve $-1 -23.552832383926344 -47.839386267754307 3.2909336842788095 1 0 0 I I #
coedge $-1 $269 $269 $-1 $391 reversed $161 $-1 #
edge $-1 $392 0 $392 6.2831853071796004 $162 $393 forward 7 unknown #
vertex $-1 $165 $394 #
ellipse-curve $-1 -52.287919032249413 -36.93496035021893 12.121163865009692 0 -0.62932039886446345 0.77714595512881146 1 0 0 1 I I #
coedge $-1 $273 $273 $-1 $395 reversed $168 $-1 #
edge $-1 $396 0 $396 6.2831853071796004 $169 $397 forward 7 unknown #
vertex $-1 $172 $398 #
ellipse-curve $-1 -47.105664767852687 -36.93496035021893 12.121163865009692 0 -0.62932039886446345 0.77714595512881146 1 0 0 1 I I #
coedge $-1 $277 $277 $-1 $399 reversed $175 $-1 #
edge $-1 $400 0 $400 6.2831853071796004 $176 $401 forward 7 unknown #
vertex $-1 $179 $402 #
ellipse-curve $-1 -41.923410503455962 -36.93496035021893 12.121163865009692 0 -0.62932039886446345 0.77714595512881146 1 0 0 1 I I #
face $-1 $-1 $195 $27 $-1 $403 reversed single #
loop $-1 $-1 $297 $180 #
plane-surface $-1 0 47.839386267754307 0 0 -1 0 0 0 -1 forward_v I I I I #
coedge $-1 $404 $295 $298 $405 forward $181 $-1 #
coedge $-1 $301 $183 $184 $289 reversed $113 $-1 #
coedge $-1 $295 $404 $183 $287 reversed $181 $-1 #
edge $-1 $302 -20.951394045740575 $406 20.951394045740575 $286 $407 forward 7 unknown #
coedge $-1 $185 $184 $404 $408 forward $73 $-1 #
edge $-1 $293 -78.84640034180731 $406 78.84640034180731 $285 $409 forward 7 unknown #
coedge $-1 $298 $297 $185 $291 reversed $282 $-1 #
edge $-1 $410 -78.84640034180731 $292 78.84640034180731 $290 $411 forward 7 unknown #
vertex $-1 $187 $412 #
vertex $-1 $304 $413 #
straight-curve $-1 78.84640034180731 0 -20.951394045740575 0 -1 0 I I #
coedge $-1 $284 $286 $188 $296 reversed $181 $-1 #
edge $-1 $299 -47.839386267754307 $302 47.839386267754307 $295 $414 forward 7 unknown #
coedge $-1 $290 $189 $194 $305 forward $282 $-1 #
coedge $-1 $189 $290 $284 $405 reversed $282 $-1 #
vertex $-1 $190 $415 #
straight-curve $-1 0 47.839386267754307 20.951394045740575 -1 0 0 I I #
coedge $-1 $191 $285 $193 $304 reversed $113 $-1 #
vertex $-1 $296 $416 #
straight-curve $-1 0 -47.839386267754307 20.951394045740575 1 0 0 I I #
edge $-1 $196 -20.951394045740575 $293 20.951394045740575 $193 $417 forward 7 unknown #
edge $-1 $197 -20.951394045740575 $292 20.951394045740575 $194 $418 forward 7 unknown #
point $-1 78.84640034180731 -47.839386267754307 20.951394045740575 #
point $-1 78.84640034180731 47.839386267754307 20.951394045740575 #
face $-1 $-1 $212 $28 $-1 $419 reversed single #
loop $-1 $-1 $207 $199 #
plane-surface $-1 0 0 -20.951394045740575 0 0 1 1 0 0 forward_v I I I I #
coedge $-1 $420 $421 $314 $422 forward $200 $-1 #
coedge $-1 $423 $202 $204 $317 forward $121 $-1 #
coedge $-1 $202 $423 $210 $325 forward $121 $-1 #
coedge $-1 $204 $203 $311 $422 reversed $77 $-1 #
coedge $-1 $207 $424 $203 $316 forward $309 $-1 #
edge $-1 $425 -45.199111454227008 $319 -22.095466320933596 $315 $426 forward 7 unknown #
edge $-1 $318 22.095466320933596 $427 45.199111454227008 $312 $428 forward 7 unknown #
vertex $-1 $317 $429 #
vertex $-1 $316 $430 #
straight-curve $-1 -55.742755208513898 -42.180009800612069 0 0 0 -1 I I #
coedge $-1 $424 $207 $211 $326 forward $309 $-1 #
straight-curve $-1 -55.742755208513898 -22.504849017091594 -20.951394045740575 0 -1 0 I I #
straight-curve $-1 -55.742755208513898 -22.504849017091594 20.951394045740575 0 1 0 I I #
coedge $-1 $211 $210 $431 $432 forward $212 $-1 #
edge $-1 $433 -78.84640034180731 $214 -55.742755208513898 $210 $434 forward 7 unknown #
edge $-1 $213 55.742755208513898 $435 78.84640034180731 $211 $436 forward 7 unknown #
point $-1 -55.742755208513898 -47.839386267754307 -20.951394045740575 #
point $-1 -55.742755208513898 -47.839386267754307 20.951394045740575 #
face $-1 $-1 $339 $29 $-1 $437 reversed single #
loop $-1 $-1 $335 $216 #
plane-surface $-1 0 0 -20.951394045740575 0 0 1 1 0 0 forward_v I I I I #
coedge $-1 $438 $439 $224 $343 forward $217 $-1 #
coedge $-1 $219 $347 $337 $440 forward $129 $-1 #
edge $-1 $341 -45.199111454227008 $229 -22.095466320933596 $219 $441 forward 7 unknown #
coedge $-1 $442 $225 $220 $336 forward $330 $-1 #
edge $-1 $230 22.095466320933596 $340 45.199111454227008 $335 $443 forward 7 unknown #
coedge $-1 $444 $222 $333 $440 reversed $339 $-1 #
coedge $-1 $222 $444 $442 $445 reversed $339 $-1 #
loop $-1 $-1 $222 $329 #
vertex $-1 $445 $446 #
vertex $-1 $223 $447 #
straight-curve $-1 78.84640034180731 -42.180009800612069 0 0 0 1 I I #
edge $-1 $348 -20.951394045740575 $345 20.951394045740575 $332 $448 forward 7 unknown #
coedge $-1 $225 $442 $438 $449 forward $330 $-1 #
vertex $-1 $226 $450 #
straight-curve $-1 55.742755208513898 -22.504849017091594 -20.951394045740575 0 1 0 I I #
coedge $-1 $333 $227 $439 $451 forward $129 $-1 #
vertex $-1 $451 $452 #
straight-curve $-1 55.742755208513898 -22.504849017091594 20.951394045740575 0 -1 0 I I #
point $-1 55.742755208513898 -42.180009800612069 20.951394045740575 #
point $-1 55.742755208513898 -42.180009800612069 -20.951394045740575 #
plane-surface $-1 0 0 20.951394045740575 0 0 1 1 0 0 forward_v I I I I #
coedge $-1 $363 $362 $355 $453 forward $233 $-1 #
coedge $-1 $355 $235 $237 $359 reversed $137 $-1 #
coedge $-1 $235 $354 $353 $453 reversed $137 $-1 #
coedge $-1 $243 $238 $235 $357 forward $244 $-1 #
edge $-1 $360 -23.710864314473511 $454 -11.74910014514996 $356 $455 forward 7 unknown #
coedge $-1 $237 $236 $363 $456 reversed $85 $-1 #
edge $-1 $457 -95.678772535508642 $360 -75.328203425618412 $354 $458 forward 7 unknown #
vertex $-1 $239 $459 #
straight-curve $-1 -21.994546188333256 35.877622098430763 20.951394045740571 1 0 0 I I #
coedge $-1 $353 $240 $243 $367 reversed $233 $-1 #
coedge $-1 $240 $353 $358 $456 forward $233 $-1 #
vertex $-1 $241 $460 #
straight-curve $-1 -55.742755208513898 47.839386267754307 87.291346123771049 0 0 1 I I #
straight-curve $-1 -55.742755208513898 -8.3991841083386873 81.893191389267713 0 0.5877852410284794 -0.80901700255871778 I I #
edge $-1 $454 32.235429544819127 $245 55.742755208513898 $362 $461 forward 7 unknown #
point $-1 -55.742755208513898 47.839386267754307 20.951394045740575 #
point $-1 -55.742755208513898 35.877622098430756 20.951394045740571 #
edge $-1 $462 1 $462 0 $248 $-1 forward 7 unknown #
vertex $-1 $249 $463 #
ellipse-curve $-1 -43.989092376666513 35.393923300498813 8.02262303550018 0 0.80901700255871778 0.5877852410284794 2 0 0 1 I I #
point $-1 -41.989092376666513 41.858504183092549 12.719415834916873 #
plane-surface $-1 0 -47.839386267754307 0 0 1 0 0 0 1 forward_v I I I I #
coedge $-1 $464 $255 $260 $381 forward $152 $-1 #
coedge $-1 $255 $464 $378 $465 forward $152 $-1 #
edge $-1 $379 25.699954978256187 $386 47.508806813326942 $255 $466 forward 7 unknown #
coedge $-1 $264 $258 $376 $465 reversed $265 $-1 #
vertex $-1 $259 $467 #
straight-curve $-1 -38.468574327191476 -47.839386267754307 62.920627944241893 0 0 1 I I #
edge $-1 $386 14.915741943265132 $384 32.189922824587555 $375 $468 forward 7 unknown #
coedge $-1 $383 $261 $264 $388 reversed $253 $-1 #
coedge $-1 $261 $382 $464 $469 reversed $253 $-1 #
vertex $-1 $381 $470 #
straight-curve $-1 -55.742755208513898 -47.789637632298401 3.3312193357725293 0 -0.77714595512881146 -0.62932039886446345 I I #
vertex $-1 $381 $471 #
straight-curve $-1 -38.468574327191476 -47.839386267754307 3.2909336842788122 0 -0.77714595512881146 -0.62932039886446345 I I #
edge $-1 $472 -20.951394045740575 $266 -3.2909336842788122 $264 $473 forward 7 unknown #
point $-1 -55.742755208513898 -47.839386267754307 3.2909336842788122 #
point $-1 -38.468574327191476 -47.839386267754307 3.2909336842788122 #
edge $-1 $474 1 $474 0 $269 $-1 forward 7 unknown #
vertex $-1 $270 $475 #
ellipse-curve $-1 -52.287919032249413 -35.975144470423658 10.935889988623012 0 -0.62932039886446345 0.77714595512881146 1 0 0 1 I I #
point $-1 -51.287919032249413 -36.934960350218923 12.121163865009692 #
edge $-1 $476 1 $476 0 $273 $-1 forward 7 unknown #
vertex $-1 $274 $477 #
ellipse-curve $-1 -47.105664767852687 -35.975144470423658 10.935889988623012 0 -0.62932039886446345 0.77714595512881146 1 0 0 1 I I #
point $-1 -46.105664767852687 -36.934960350218923 12.121163865009692 #
edge $-1 $478 1 $478 0 $277 $-1 forward 7 unknown #
vertex $-1 $278 $479 #
ellipse-curve $-1 -41.923410503455962 -35.975144470423658 10.935889988623012 0 -0.62932039886446345 0.77714595512881146 1 0 0 1 I I #
point $-1 -40.923410503455962 -36.934960350218923 12.121163865009692 #
plane-surface $-1 78.84640034180731 0 0 -1 0 0 0 0 1 forward_v I I I I #
coedge $-1 $286 $284 $288 $408 reversed $181 $-1 #
edge $-1 $299 -20.951394045740575 $410 20.951394045740575 $298 $480 forward 7 unknown #
vertex $-1 $408 $481 #
straight-curve $-1 -78.84640034180731 -47.839386267754307 0 0 0 -1 I I #
edge $-1 $406 -47.839386267754307 $410 47.839386267754307 $404 $482 forward 7 unknown #
straight-curve $-1 0 -47.839386267754307 -20.951394045740575 -1 0 0 I I #
vertex $-1 $291 $483 #
straight-curve $-1 0 47.839386267754307 -20.951394045740575 1 0 0 I I #
point $-1 78.84640034180731 47.839386267754307 -20.951394045740575 #
point $-1 78.84640034180731 -47.839386267754307 -20.951394045740575 #
straight-curve $-1 -78.84640034180731 0 20.951394045740575 0 -1 0 I I #
point $-1 -78.84640034180731 47.839386267754307 20.951394045740575 #
point $-1 -78.84640034180731 -47.839386267754307 20.951394045740575 #
straight-curve $-1 78.84640034180731 -47.839386267754307 0 0 0 -1 I I #
straight-curve $-1 78.84640034180731 47.839386267754307 0 0 0 -1 I I #
plane-surface $-1 0 -47.839386267754307 0 0 1 0 0 0 1 forward_v I I I I #
coedge $-1 $431 $311 $424 $484 reversed $200 $-1 #
coedge $-1 $311 $431 $423 $485 reversed $200 $-1 #
edge $-1 $427 -20.951394045740575 $425 20.951394045740575 $311 $486 forward 7 unknown #
coedge $-1 $313 $312 $421 $485 forward $121 $-1 #
coedge $-1 $315 $321 $420 $484 forward $309 $-1 #
vertex $-1 $316 $487 #
straight-curve $-1 -33.647288887580302 -42.180009800612069 -20.951394045740575 1 0 0 I I #
vertex $-1 $485 $488 #
straight-curve $-1 -33.647288887580302 -42.180009800612069 20.951394045740575 -1 0 0 I I #
point $-1 -55.742755208513898 -42.180009800612069 20.951394045740575 #
point $-1 -55.742755208513898 -42.180009800612069 -20.951394045740575 #
coedge $-1 $421 $420 $324 $432 reversed $200 $-1 #
edge $-1 $433 -20.951394045740575 $435 20.951394045740575 $431 $489 forward 7 unknown #
vertex $-1 $485 $490 #
straight-curve $-1 0 -47.839386267754307 20.951394045740575 1 0 0 I I #
vertex $-1 $484 $491 #
straight-curve $-1 0 -47.839386267754307 -20.951394045740575 -1 0 0 I I #
plane-surface $-1 78.84640034180731 0 0 -1 0 0 0 0 1 forward_v I I I I #
coedge $-1 $492 $332 $344 $449 reversed $217 $-1 #
coedge $-1 $332 $492 $347 $451 reversed $217 $-1 #
edge $-1 $493 -47.839386267754307 $341 -42.180009800612069 $337 $494 forward 7 unknown #
straight-curve $-1 33.647288887580302 -42.180009800612069 20.951394045740575 -1 0 0 I I #
coedge $-1 $344 $335 $338 $445 forward $330 $-1 #
straight-curve $-1 33.647288887580302 -42.180009800612069 -20.951394045740575 1 0 0 I I #
coedge $-1 $338 $337 $492 $495 forward $339 $-1 #
edge $-1 $340 42.180009800612069 $496 47.839386267754307 $338 $497 forward 7 unknown #
point $-1 78.84640034180731 -42.180009800612069 -20.951394045740575 #
point $-1 78.84640034180731 -42.180009800612069 20.951394045740575 #
straight-curve $-1 55.742755208513898 -47.839386267754307 0 0 0 -1 I I #
edge $-1 $496 -78.84640034180731 $345 -55.742755208513898 $438 $498 forward 7 unknown #
point $-1 55.742755208513898 -47.839386267754307 -20.951394045740575 #
edge $-1 $348 55.742755208513898 $493 78.84640034180731 $439 $499 forward 7 unknown #
point $-1 55.742755208513898 -47.839386267754307 20.951394045740575 #
edge $-1 $454 66.339952078030478 $457 82.803908499677902 $353 $500 forward 7 unknown #
vertex $-1 $367 $501 #
straight-curve $-1 -32.235429544819127 59.588486412904267 20.951394045740571 0 1 0 I I #
edge $-1 $457 10.24088335648587 $364 33.748209020180639 $363 $502 forward 7 unknown #
vertex $-1 $456 $503 #
straight-curve $-1 -32.235429544819127 -8.3991841083386873 81.893191389267713 0 -0.5877852410284794 0.80901700255871778 I I #
point $-1 -32.235429544819127 35.877622098430756 20.951394045740571 #
point $-1 -55.742755208513898 47.839386267754307 4.4874376240931468 #
straight-curve $-1 0 47.839386267754307 20.951394045740575 -1 0 0 I I #
vertex $-1 $370 $504 #
point $-1 -41.989092376666513 35.393923300498813 8.02262303550018 #
coedge $-1 $376 $375 $383 $469 forward $152 $-1 #
edge $-1 $472 -55.742755208513898 $379 -38.468574327191476 $378 $505 forward 7 unknown #
straight-curve $-1 -38.468574327191476 -73.539341246010494 20.951394045740571 0 1 0 I I #
point $-1 -38.468574327191476 -47.839386267754307 20.951394045740575 #
straight-curve $-1 -23.552832383926344 -26.030534432683549 20.951394045740575 -1 0 0 I I #
edge $-1 $384 -47.508806813326942 $472 -25.699954978256187 $464 $506 forward 7 unknown #
point $-1 -55.742755208513898 -26.030534432683549 20.951394045740575 #
point $-1 -38.468574327191476 -26.030534432683549 20.951394045740575 #
vertex $-1 $465 $507 #
straight-curve $-1 -55.742755208513898 -47.839386267754307 0 0 0 -1 I I #
vertex $-1 $391 $508 #
point $-1 -51.287919032249413 -35.975144470423658 10.935889988623012 #
vertex $-1 $395 $509 #
point $-1 -46.105664767852687 -35.975144470423658 10.935889988623012 #
vertex $-1 $399 $510 #
point $-1 -40.923410503455962 -35.975144470423658 10.935889988623012 #
straight-curve $-1 -78.84640034180731 47.839386267754307 0 0 0 -1 I I #
point $-1 -78.84640034180731 -47.839386267754307 -20.951394045740575 #
straight-curve $-1 -78.84640034180731 0 -20.951394045740575 0 1 0 I I #
point $-1 -78.84640034180731 47.839386267754307 -20.951394045740575 #
edge $-1 $435 -47.839386267754307 $425 -42.180009800612069 $420 $511 forward 7 unknown #
edge $-1 $427 42.180009800612069 $433 47.839386267754307 $421 $512 forward 7 unknown #
straight-curve $-1 -78.84640034180731 -42.180009800612069 0 0 0 -1 I I #
point $-1 -78.84640034180731 -42.180009800612069 -20.951394045740575 #
point $-1 -78.84640034180731 -42.180009800612069 20.951394045740575 #
straight-curve $-1 -78.84640034180731 -47.839386267754307 0 0 0 -1 I I #
point $-1 -78.84640034180731 -47.839386267754307 20.951394045740575 #
point $-1 -78.84640034180731 -47.839386267754307 -20.951394045740575 #
coedge $-1 $439 $438 $444 $495 reversed $217 $-1 #
vertex $-1 $440 $513 #
straight-curve $-1 78.84640034180731 0 20.951394045740575 0 1 0 I I #
edge $-1 $493 -20.951394045740575 $496 20.951394045740575 $444 $514 forward 7 unknown #
vertex $-1 $495 $515 #
straight-curve $-1 78.84640034180731 0 -20.951394045740575 0 -1 0 I I #
straight-curve $-1 0 -47.839386267754307 -20.951394045740575 -1 0 0 I I #
straight-curve $-1 0 -47.839386267754307 20.951394045740575 1 0 0 I I #
straight-curve $-1 -32.235429544819127 47.839386267754307 87.291346123771049 0 0 -1 I I #
point $-1 -32.235429544819127 47.839386267754307 20.951394045740575 #
straight-curve $-1 -21.994546188333256 47.839386267754307 4.4874376240931539 -1 0 0 I I #
point $-1 -32.235429544819127 47.839386267754307 4.4874376240931468 #
point $-1 -43.989092376666513 33.775889295381376 6.8470525534432216 #
straight-curve $-1 0 -47.839386267754307 20.951394045740575 1 0 0 I I #
straight-curve $-1 -55.742755208513898 -73.539341246010494 20.951394045740571 0 -1 0 I I #
point $-1 -55.742755208513898 -47.839386267754307 20.951394045740575 #
point $-1 -52.287919032249413 -35.345824071559193 10.1587440334942 #
point $-1 -47.105664767852687 -35.345824071559193 10.1587440334942 #
point $-1 -41.923410503455962 -35.345824071559193 10.1587440334942 #
straight-curve $-1 -78.84640034180731 0 -20.951394045740575 0 1 0 I I #
straight-curve $-1 -78.84640034180731 0 20.951394045740575 0 -1 0 I I #
point $-1 78.84640034180731 -47.839386267754307 20.951394045740575 #
straight-curve $-1 78.84640034180731 -47.839386267754307 0 0 0 -1 I I #
point $-1 78.84640034180731 -47.839386267754307 -20.951394045740575 #
End-of-ACIS-data 