500 0 5 0           
7 Unknown 11 ACIS 5.0 NT 24 Fri Mar 26 03:04:57 1999 
-1 9.9999999999999995e-007 1e-010 
body $-1 $5 $-1 $6 #
body $-1 $7 $-1 $8 #
body $-1 $9 $-1 $10 #
body $-1 $11 $-1 $12 #
body $-1 $13 $-1 $14 #
lump $-1 $-1 $15 $0 #
transform $-1 1 0 0 0 1 0 0 0 1 53.603930784020505 36.405260014082323 12.348701527528288 1 rotate no_reflect no_shear #
lump $-1 $-1 $16 $1 #
transform $-1 1 0 0 0 1 0 0 0 1 53.603930784020505 36.405260014082323 12.348701527528288 1 rotate no_reflect no_shear #
lump $-1 $-1 $17 $2 #
transform $-1 1 0 0 0 1 0 0 0 1 53.603930784020505 36.405260014082323 12.348701527528288 1 rotate no_reflect no_shear #
lump $-1 $-1 $18 $3 #
transform $-1 1 0 0 0 1 0 0 0 1 53.603930784020505 36.405260014082323 12.348701527528288 1 rotate no_reflect no_shear #
lump $-1 $-1 $19 $4 #
transform $-1 1 0 0 0 1 0 0 0 1 53.603930784020505 36.405260014082323 12.348701527528288 1 rotate no_reflect no_shear #
shell $-1 $-1 $-1 $20 $-1 $5 #
shell $-1 $-1 $-1 $21 $-1 $7 #
shell $-1 $-1 $-1 $22 $-1 $9 #
shell $-1 $-1 $-1 $23 $-1 $11 #
shell $-1 $-1 $-1 $24 $-1 $13 #
face $-1 $25 $26 $15 $-1 $27 forward single #
face $-1 $28 $29 $16 $-1 $30 reversed single #
face $-1 $31 $32 $17 $-1 $33 forward single #
face $-1 $34 $35 $18 $-1 $36 reversed single #
face $-1 $37 $38 $19 $-1 $39 reversed single #
face $-1 $40 $41 $15 $-1 $42 reversed single #
loop $-1 $-1 $43 $20 #
plane-surface $-1 0 0 12.348701527528288 0 0 1 1 0 0 forward_v I I I I #
face $-1 $44 $45 $16 $-1 $46 forward single #
loop $-1 $-1 $47 $21 #
plane-surface $-1 -49.430983939694023 0 -5.5116797253456262 0 0 1 1 0 0 forward_v I I I I #
face $-1 $48 $49 $17 $-1 $50 forward single #
loop $-1 $-1 $51 $22 #
plane-surface $-1 -45.258037095367541 38.254278043654132 134.9368915954619 1 0 0 0 -0.57357644374324357 -0.81915203911291934 forward_v I I I I #
face $-1 $52 $53 $18 $-1 $54 reversed single #
loop $-1 $55 $56 $23 #
cone-surface $-1 -39.668693168915723 30.372044813215378 7.3677506316544168 0 -0.57357644374324357 -0.81915203911291934 1.5 0 0 1 I I 0 1 1.5 forward I I I I #
face $-1 $57 $58 $19 $-1 $59 reversed single #
loop $-1 $60 $61 $24 #
cone-surface $-1 -31.284677279237982 30.372044813215378 7.3677506316544168 0 -0.57357644374324357 -0.81915203911291934 1.5 0 0 1 I I 0 1 1.5 forward I I I I #
face $-1 $62 $63 $15 $-1 $64 reversed single #
loop $-1 $-1 $65 $25 #
plane-surface $-1 0 0 -12.348701527528288 0 0 1 1 0 0 forward_v I I I I #
coedge $-1 $66 $67 $68 $69 forward $26 $-1 #
face $-1 $70 $71 $16 $-1 $72 forward single #
loop $-1 $-1 $73 $28 #
plane-surface $-1 -49.430983939694023 0 -8.8798637224198576 0 0 1 1 0 0 forward_v I I I I #
coedge $-1 $74 $75 $76 $77 reversed $29 $-1 #
face $-1 $78 $79 $17 $-1 $80 forward single #
loop $-1 $-1 $81 $31 #
plane-surface $-1 -35.476685224076853 -23.237625935860784 47.117353183065532 0 0.57357644374324357 0.81915203911291934 1 0 0 forward_v I I I I #
coedge $-1 $82 $83 $84 $85 reversed $32 $-1 #
face $-1 $86 $87 $18 $-1 $88 forward single #
loop $-1 $89 $90 $34 #
cone-surface $-1 -39.668693168915723 28.90270045188209 5.2693094511026892 0 -0.57357644374324357 -0.81915203911291934 0.75 0 0 1 I I -0.70710678118654757 0.70710678118654757 0.75 forward I I I I #
loop $-1 $-1 $91 $23 #
coedge $-1 $56 $56 $92 $93 reversed $35 $-1 #
face $-1 $94 $95 $19 $-1 $96 reversed single #
loop $-1 $97 $98 $37 #
cone-surface $-1 -31.284677279237982 28.90270045188209 5.2693094511026892 0 -0.57357644374324357 -0.81915203911291934 0.75 0 0 1 I I -0.70710678118654757 0.70710678118654757 0.75 forward I I I I #
loop $-1 $-1 $99 $24 #
coedge $-1 $61 $61 $100 $101 reversed $38 $-1 #
face $-1 $102 $103 $15 $-1 $104 reversed single #
loop $-1 $-1 $105 $40 #
plane-surface $-1 0 -36.405260014082323 0 0 1 0 0 0 1 forward_v I I I I #
coedge $-1 $106 $107 $108 $109 forward $41 $-1 #
coedge $-1 $110 $43 $111 $112 forward $26 $-1 #
coedge $-1 $43 $110 $113 $114 forward $26 $-1 #
coedge $-1 $115 $116 $43 $69 reversed $117 $-1 #
edge $-1 $118 -36.405260014082323 $119 36.405260014082323 $68 $120 forward 7 unknown #
face $-1 $121 $122 $16 $-1 $123 reversed single #
loop $-1 $-1 $124 $44 #
plane-surface $-1 -45.258037095367541 0 -7.1957717238827419 -1 0 0 0 0 1 forward_v I I I I #
coedge $-1 $125 $126 $127 $128 reversed $45 $-1 #
coedge $-1 $129 $47 $130 $131 reversed $29 $-1 #
coedge $-1 $47 $129 $132 $133 reversed $29 $-1 #
coedge $-1 $134 $124 $47 $77 forward $71 $-1 #
edge $-1 $135 -36.405260014082323 $136 36.405260014082323 $76 $137 forward 7 unknown #
face $-1 $138 $139 $17 $-1 $140 forward single #
loop $-1 $-1 $141 $48 #
plane-surface $-1 -25.695333352786161 38.254278043654132 134.9368915954619 -1 0 0 0 0.57357644374324357 0.81915203911291934 forward_v I I I I #
coedge $-1 $142 $143 $144 $145 reversed $49 $-1 #
coedge $-1 $83 $51 $143 $146 forward $32 $-1 #
coedge $-1 $51 $82 $147 $148 reversed $32 $-1 #
coedge $-1 $149 $144 $51 $85 forward $139 $-1 #
edge $-1 $150 7.2900146475730914 $151 17.278120992255257 $84 $152 forward 7 unknown #
face $-1 $153 $154 $18 $-1 $155 forward single #
loop $-1 $-1 $156 $52 #
plane-surface $-1 -45.258037095367541 38.254278043654132 134.9368915954619 1 0 0 0 -0.57357644374324357 -0.81915203911291934 forward_v I I I I #
loop $-1 $-1 $157 $34 #
coedge $-1 $90 $90 $91 $158 forward $53 $-1 #
coedge $-1 $91 $91 $90 $158 reversed $55 $-1 #
coedge $-1 $92 $92 $56 $93 forward $154 $-1 #
edge $-1 $159 2.8880652740743036e-016 $159 6.2831853071796004 $92 $160 forward 7 unknown #
face $-1 $161 $162 $19 $-1 $163 reversed single #
loop $-1 $164 $165 $57 #
cone-surface $-1 -39.668693168915723 30.372044813215378 7.3677506316544168 0 -0.57357644374324357 -0.81915203911291934 1.5 0 0 1 I I 0 1 1.5 forward I I I I #
loop $-1 $-1 $166 $37 #
coedge $-1 $98 $98 $99 $167 forward $58 $-1 #
coedge $-1 $99 $99 $98 $167 reversed $60 $-1 #
coedge $-1 $100 $100 $61 $101 forward $168 $-1 #
edge $-1 $169 2.8880652740743036e-016 $169 6.2831853071796004 $100 $170 forward 7 unknown #
face $-1 $171 $172 $15 $-1 $173 reversed single #
loop $-1 $-1 $174 $62 #
plane-surface $-1 -53.603930784020505 0 0 1 0 0 0 0 -1 forward_v I I I I #
coedge $-1 $175 $113 $176 $177 forward $63 $-1 #
coedge $-1 $178 $65 $175 $179 forward $41 $-1 #
coedge $-1 $65 $178 $180 $181 forward $41 $-1 #
coedge $-1 $116 $115 $65 $109 reversed $117 $-1 #
edge $-1 $182 -36.405260014082323 $183 36.405260014082323 $108 $184 forward 7 unknown #
coedge $-1 $67 $66 $185 $186 forward $26 $-1 #
coedge $-1 $187 $188 $66 $112 reversed $172 $-1 #
edge $-1 $119 -53.603930784020505 $189 53.603930784020505 $111 $190 forward 7 unknown #
coedge $-1 $105 $191 $67 $114 reversed $63 $-1 #
edge $-1 $192 -53.603930784020505 $118 53.603930784020505 $113 $193 forward 7 unknown #
coedge $-1 $108 $68 $191 $194 forward $117 $-1 #
coedge $-1 $68 $108 $187 $195 reversed $117 $-1 #
loop $-1 $-1 $115 $171 #
vertex $-1 $69 $196 #
vertex $-1 $69 $197 #
straight-curve $-1 53.603930784020505 0 12.348701527528288 0 1 0 I I #
face $-1 $198 $199 $16 $-1 $123 reversed single #
loop $-1 $-1 $200 $70 #
plane-surface $-1 -53.603930784020505 0 0 1 0 0 0 0 -1 forward_v I I I I #
coedge $-1 $76 $127 $201 $202 reversed $71 $-1 #
coedge $-1 $203 $73 $204 $205 reversed $45 $-1 #
coedge $-1 $73 $203 $206 $207 reversed $45 $-1 #
coedge $-1 $124 $134 $73 $128 forward $71 $-1 #
edge $-1 $208 -36.405260014082323 $209 36.405260014082323 $127 $210 forward 7 unknown #
coedge $-1 $75 $74 $211 $212 reversed $29 $-1 #
coedge $-1 $201 $213 $74 $131 forward $214 $-1 #
edge $-1 $215 -28.888438814173494 $135 -20.54254512552053 $130 $216 forward 7 unknown #
coedge $-1 $217 $218 $75 $133 forward $219 $-1 #
edge $-1 $136 20.54254512552053 $220 28.888438814173494 $132 $221 forward 7 unknown #
coedge $-1 $127 $76 $218 $222 reversed $71 $-1 #
vertex $-1 $131 $223 #
vertex $-1 $133 $224 #
straight-curve $-1 -45.258037095367541 0 -5.5116797253456262 0 1 0 I I #
face $-1 $225 $226 $17 $-1 $227 reversed single #
loop $-1 $-1 $228 $78 #
plane-surface $-1 0 0 12.348701527528288 0 0 1 1 0 0 forward_v I I I I #
coedge $-1 $229 $230 $228 $231 reversed $79 $-1 #
coedge $-1 $232 $81 $230 $233 reversed $49 $-1 #
coedge $-1 $81 $232 $82 $146 reversed $49 $-1 #
coedge $-1 $84 $228 $81 $145 forward $139 $-1 #
edge $-1 $234 7.9569907407477345 $150 27.519694483329115 $144 $235 forward 7 unknown #
edge $-1 $150 60.617293535682791 $236 72.810520028164632 $82 $237 forward 7 unknown #
coedge $-1 $238 $239 $83 $148 forward $240 $-1 #
edge $-1 $151 55.119744270202659 $236 62.1134917595163 $147 $241 forward 7 unknown #
coedge $-1 $242 $84 $239 $243 forward $139 $-1 #
vertex $-1 $145 $244 #
vertex $-1 $243 $245 #
straight-curve $-1 -45.258037095367541 19.127139021827066 12.348701527528291 0 1 0 I I #
face $-1 $246 $247 $18 $-1 $248 forward single #
loop $-1 $249 $92 $86 #
plane-surface $-1 -35.476685224076853 -23.237625935860784 47.117353183065532 0 0.57357644374324357 0.81915203911291934 1 0 0 forward_v I I I I #
coedge $-1 $250 $251 $252 $253 reversed $87 $-1 #
coedge $-1 $157 $157 $-1 $254 forward $89 $-1 #
edge $-1 $255 0 $255 6.2831853071796004 $90 $256 forward 7 unknown #
vertex $-1 $93 $257 #
ellipse-curve $-1 -39.668693168915723 31.411206841741247 8.8518277828714744 0 -0.57357644374324357 -0.81915203911291934 1.5 0 0 1 I I #
face $-1 $258 $259 $19 $-1 $260 forward single #
loop $-1 $261 $262 $94 #
cone-surface $-1 -39.668693168915723 28.90270045188209 5.2693094511026892 0 -0.57357644374324357 -0.81915203911291934 0.75 0 0 1 I I -0.70710678118654757 0.70710678118654757 0.75 forward I I I I #
loop $-1 $-1 $263 $57 #
coedge $-1 $165 $165 $264 $265 reversed $95 $-1 #
coedge $-1 $166 $166 $-1 $266 forward $97 $-1 #
edge $-1 $267 0 $267 6.2831853071796004 $98 $268 forward 7 unknown #
loop $-1 $269 $100 $258 #
vertex $-1 $101 $270 #
ellipse-curve $-1 -31.284677279237982 31.411206841741247 8.8518277828714744 0 -0.57357644374324357 -0.81915203911291934 1.5 0 0 1 I I #
face $-1 $-1 $117 $15 $-1 $271 reversed single #
loop $-1 $-1 $187 $102 #
plane-surface $-1 0 36.405260014082323 0 0 -1 0 0 0 -1 forward_v I I I I #
coedge $-1 $272 $185 $188 $273 forward $103 $-1 #
coedge $-1 $191 $105 $106 $179 reversed $63 $-1 #
coedge $-1 $185 $272 $105 $177 reversed $103 $-1 #
edge $-1 $192 -12.348701527528288 $274 12.348701527528288 $176 $275 forward 7 unknown #
coedge $-1 $107 $106 $272 $276 forward $41 $-1 #
edge $-1 $183 -53.603930784020505 $274 53.603930784020505 $175 $277 forward 7 unknown #
coedge $-1 $188 $187 $107 $181 reversed $172 $-1 #
edge $-1 $278 -53.603930784020505 $182 53.603930784020505 $180 $279 forward 7 unknown #
vertex $-1 $109 $280 #
vertex $-1 $194 $281 #
straight-curve $-1 53.603930784020505 0 -12.348701527528288 0 -1 0 I I #
coedge $-1 $174 $176 $110 $186 reversed $103 $-1 #
edge $-1 $189 -36.405260014082323 $192 36.405260014082323 $185 $282 forward 7 unknown #
coedge $-1 $180 $111 $116 $195 forward $172 $-1 #
coedge $-1 $111 $180 $174 $273 reversed $172 $-1 #
vertex $-1 $112 $283 #
straight-curve $-1 0 36.405260014082323 12.348701527528288 -1 0 0 I I #
coedge $-1 $113 $175 $115 $194 reversed $63 $-1 #
vertex $-1 $186 $284 #
straight-curve $-1 0 -36.405260014082323 12.348701527528288 1 0 0 I I #
edge $-1 $118 -12.348701527528288 $183 12.348701527528288 $115 $285 forward 7 unknown #
edge $-1 $119 -12.348701527528288 $182 12.348701527528288 $116 $286 forward 7 unknown #
point $-1 53.603930784020505 -36.405260014082323 12.348701527528288 #
point $-1 53.603930784020505 36.405260014082323 12.348701527528288 #
face $-1 $287 $214 $16 $-1 $288 reversed single #
loop $-1 $-1 $211 $121 #
coedge $-1 $289 $290 $203 $291 forward $122 $-1 #
coedge $-1 $206 $130 $124 $202 forward $214 $-1 #
edge $-1 $135 1.9137938634042553 $209 5.2819778604784862 $201 $292 forward 7 unknown #
coedge $-1 $126 $125 $200 $291 reversed $45 $-1 #
coedge $-1 $218 $293 $125 $205 forward $219 $-1 #
edge $-1 $294 -28.888438814173494 $208 -20.54254512552053 $204 $295 forward 7 unknown #
coedge $-1 $296 $201 $126 $207 forward $214 $-1 #
edge $-1 $209 20.54254512552053 $297 28.888438814173494 $206 $298 forward 7 unknown #
vertex $-1 $205 $299 #
vertex $-1 $207 $300 #
straight-curve $-1 -45.258037095367541 0 -8.8798637224198576 0 -1 0 I I #
coedge $-1 $301 $302 $129 $212 forward $199 $-1 #
edge $-1 $220 -36.405260014082323 $215 36.405260014082323 $211 $303 forward 7 unknown #
coedge $-1 $130 $304 $301 $305 forward $214 $-1 #
loop $-1 $-1 $130 $198 #
vertex $-1 $131 $306 #
straight-curve $-1 -24.715491969847012 -36.405260014082323 -5.5116797253456262 1 0 0 I I #
coedge $-1 $307 $132 $302 $308 reversed $219 $-1 #
coedge $-1 $132 $204 $134 $222 forward $219 $-1 #
loop $-1 $-1 $132 $309 #
vertex $-1 $212 $310 #
straight-curve $-1 -24.715491969847012 36.405260014082323 -5.5116797253456262 -1 0 0 I I #
edge $-1 $208 -5.2819778604784862 $136 -1.9137938634042553 $218 $311 forward 7 unknown #
point $-1 -45.258037095367541 -36.405260014082323 -5.5116797253456262 #
point $-1 -45.258037095367541 36.405260014082323 -5.5116797253456262 #
face $-1 $312 $313 $17 $-1 $314 forward single #
loop $-1 $-1 $315 $138 #
plane-surface $-1 -49.430983939694023 0 -5.5116797253456262 0 0 1 1 0 0 forward_v I I I I #
coedge $-1 $144 $316 $141 $231 forward $139 $-1 #
coedge $-1 $230 $141 $317 $318 reversed $79 $-1 #
coedge $-1 $141 $229 $142 $233 forward $79 $-1 #
edge $-1 $319 -17.278120992255257 $234 -7.2900146475730914 $228 $320 forward 7 unknown #
coedge $-1 $143 $142 $238 $321 reversed $49 $-1 #
edge $-1 $322 -72.810520028164632 $234 -60.617293535682791 $230 $323 forward 7 unknown #
vertex $-1 $145 $324 #
straight-curve $-1 -17.738342612038426 26.417153669400157 12.348701527528295 -1 0 0 I I #
vertex $-1 $321 $325 #
straight-curve $-1 -45.258037095367541 -23.237625935860784 47.117353183065532 0 0.81915203911291934 -0.57357644374324357 I I #
coedge $-1 $317 $147 $232 $321 forward $240 $-1 #
coedge $-1 $147 $326 $149 $243 reversed $240 $-1 #
loop $-1 $-1 $317 $327 #
straight-curve $-1 -45.258037095367541 36.405260014082323 67.468445797730951 0 0 -1 I I #
coedge $-1 $328 $149 $329 $330 forward $139 $-1 #
edge $-1 $151 45.258037095367541 $331 53.603930784020505 $239 $332 forward 7 unknown #
point $-1 -45.258037095367541 26.417153669400157 12.348701527528291 #
point $-1 -45.258037095367541 36.405260014082323 12.348701527528288 #
face $-1 $333 $334 $18 $-1 $335 forward single #
loop $-1 $-1 $336 $153 #
plane-surface $-1 -25.695333352786161 38.254278043654132 134.9368915954619 -1 0 0 0 0.57357644374324357 0.81915203911291934 forward_v I I I I #
loop $-1 $-1 $337 $86 #
coedge $-1 $251 $156 $338 $339 forward $87 $-1 #
coedge $-1 $156 $250 $340 $341 reversed $87 $-1 #
coedge $-1 $342 $343 $156 $253 forward $334 $-1 #
edge $-1 $344 7.2900146475730914 $345 17.278120992255257 $252 $346 forward 7 unknown #
edge $-1 $347 1 $347 0 $157 $-1 forward 7 unknown #
vertex $-1 $158 $348 #
ellipse-curve $-1 -39.668693168915723 29.332882784689524 5.8836734804373787 0 0.57357644374324357 0.81915203911291934 1.5 0 0 1 I I #
point $-1 -38.168693168915723 31.411206841741233 8.8518277828714549 #
face $-1 $349 $168 $19 $-1 $350 forward single #
loop $-1 $-1 $351 $161 #
plane-surface $-1 -45.258037095367541 38.254278043654132 134.9368915954619 1 0 0 0 -0.57357644374324357 -0.81915203911291934 forward_v I I I I #
loop $-1 $-1 $352 $94 #
coedge $-1 $262 $262 $263 $353 forward $162 $-1 #
coedge $-1 $263 $263 $262 $353 reversed $164 $-1 #
coedge $-1 $264 $264 $165 $265 forward $269 $-1 #
edge $-1 $354 2.8880652740743036e-016 $354 6.2831853071796004 $264 $355 forward 7 unknown #
edge $-1 $356 1 $356 0 $166 $-1 forward 7 unknown #
vertex $-1 $167 $357 #
ellipse-curve $-1 -31.284677279237982 29.332882784689524 5.8836734804373787 0 0.57357644374324357 0.81915203911291934 1.5 0 0 1 I I #
loop $-1 $358 $264 $258 #
point $-1 -29.784677279237982 31.411206841741233 8.8518277828714549 #
plane-surface $-1 53.603930784020505 0 0 -1 0 0 0 0 1 forward_v I I I I #
coedge $-1 $176 $174 $178 $276 reversed $103 $-1 #
edge $-1 $189 -12.348701527528288 $278 12.348701527528288 $188 $359 forward 7 unknown #
vertex $-1 $276 $360 #
straight-curve $-1 -53.603930784020505 -36.405260014082323 0 0 0 -1 I I #
edge $-1 $274 -36.405260014082323 $278 36.405260014082323 $272 $361 forward 7 unknown #
straight-curve $-1 0 -36.405260014082323 -12.348701527528288 -1 0 0 I I #
vertex $-1 $181 $362 #
straight-curve $-1 0 36.405260014082323 -12.348701527528288 1 0 0 I I #
point $-1 53.603930784020505 36.405260014082323 -12.348701527528288 #
point $-1 53.603930784020505 -36.405260014082323 -12.348701527528288 #
straight-curve $-1 -53.603930784020505 0 12.348701527528288 0 -1 0 I I #
point $-1 -53.603930784020505 36.405260014082323 12.348701527528288 #
point $-1 -53.603930784020505 -36.405260014082323 12.348701527528288 #
straight-curve $-1 53.603930784020505 -36.405260014082323 0 0 0 -1 I I #
straight-curve $-1 53.603930784020505 36.405260014082323 0 0 0 -1 I I #
face $-1 $363 $364 $16 $-1 $365 forward single #
plane-surface $-1 0 -36.405260014082323 0 0 1 0 0 0 1 forward_v I I I I #
coedge $-1 $366 $200 $293 $367 forward $122 $-1 #
coedge $-1 $200 $366 $296 $368 reversed $122 $-1 #
edge $-1 $297 -36.405260014082323 $294 36.405260014082323 $200 $369 forward 7 unknown #
straight-curve $-1 -45.258037095367541 -36.405260014082323 -3.5978858619413709 0 0 -1 I I #
coedge $-1 $204 $370 $289 $367 reversed $219 $-1 #
vertex $-1 $367 $371 #
straight-curve $-1 -24.715491969847012 36.405260014082323 -8.8798637224198576 1 0 0 I I #
coedge $-1 $372 $206 $290 $368 forward $214 $-1 #
vertex $-1 $368 $373 #
straight-curve $-1 -24.715491969847012 -36.405260014082323 -8.8798637224198576 -1 0 0 I I #
point $-1 -45.258037095367541 36.405260014082323 -8.8798637224198576 #
point $-1 -45.258037095367541 -36.405260014082323 -8.8798637224198576 #
coedge $-1 $374 $211 $213 $305 reversed $199 $-1 #
coedge $-1 $211 $374 $217 $308 forward $199 $-1 #
straight-curve $-1 -53.603930784020505 0 -5.5116797253456262 0 -1 0 I I #
coedge $-1 $213 $375 $376 $377 reversed $214 $-1 #
edge $-1 $378 -12.348701527528288 $215 5.5116797253456262 $301 $379 forward 7 unknown #
point $-1 -53.603930784020505 -36.405260014082323 -5.5116797253456262 #
coedge $-1 $380 $217 $381 $382 reversed $219 $-1 #
edge $-1 $383 -12.348701527528288 $220 5.5116797253456262 $217 $384 forward 7 unknown #
face $-1 $385 $219 $16 $-1 $386 reversed single #
point $-1 -53.603930784020505 36.405260014082323 -5.5116797253456262 #
straight-curve $-1 -45.258037095367541 36.405260014082323 -3.5978858619413709 0 0 1 I I #
face $-1 $387 $388 $17 $-1 $389 forward single #
loop $-1 $-1 $390 $225 #
plane-surface $-1 -49.430983939694023 0 -8.8798637224198576 0 0 1 1 0 0 forward_v I I I I #
coedge $-1 $391 $392 $393 $394 reversed $226 $-1 #
coedge $-1 $228 $395 $396 $397 forward $139 $-1 #
coedge $-1 $396 $238 $229 $318 forward $240 $-1 #
edge $-1 $322 -62.1134917595163 $319 -55.119744270202659 $317 $398 forward 7 unknown #
vertex $-1 $318 $399 #
straight-curve $-1 -25.695333352786161 19.127139021827066 12.348701527528291 0 -1 0 I I #
edge $-1 $236 -27.519694483329115 $322 -7.9569907407477345 $238 $400 forward 7 unknown #
vertex $-1 $321 $401 #
straight-curve $-1 -25.695333352786161 -23.237625935860784 47.117353183065532 0 -0.81915203911291934 0.57357644374324357 I I #
point $-1 -25.695333352786161 26.417153669400157 12.348701527528291 #
point $-1 -45.258037095367541 36.40526001408233 5.3549540382146503 #
coedge $-1 $239 $402 $403 $404 reversed $240 $-1 #
face $-1 $405 $240 $17 $-1 $406 reversed single #
coedge $-1 $395 $242 $407 $408 forward $139 $-1 #
coedge $-1 $403 $409 $242 $330 reversed $410 $-1 #
edge $-1 $331 -36.405260014082323 $411 36.405260014082323 $329 $412 forward 7 unknown #
vertex $-1 $243 $413 #
straight-curve $-1 0 36.405260014082323 12.348701527528288 -1 0 0 I I #
face $-1 $414 $415 $18 $-1 $416 reversed single #
loop $-1 $-1 $417 $246 #
plane-surface $-1 0 0 12.348701527528288 0 0 1 1 0 0 forward_v I I I I #
coedge $-1 $418 $419 $417 $420 reversed $247 $-1 #
coedge $-1 $421 $338 $343 $422 reversed $249 $-1 #
coedge $-1 $337 $423 $250 $339 reversed $249 $-1 #
edge $-1 $344 60.617293535682791 $424 72.810520028164632 $250 $425 forward 7 unknown #
coedge $-1 $426 $427 $251 $341 forward $428 $-1 #
edge $-1 $345 55.119744270202659 $424 62.1134917595163 $340 $429 forward 7 unknown #
coedge $-1 $430 $252 $427 $431 forward $334 $-1 #
coedge $-1 $252 $417 $337 $422 forward $334 $-1 #
vertex $-1 $422 $432 #
vertex $-1 $431 $433 #
straight-curve $-1 -45.258037095367541 19.127139021827066 12.348701527528291 0 1 0 I I #
vertex $-1 $254 $434 #
point $-1 -38.168693168915723 29.332882784689524 5.8836734804373787 #
face $-1 $435 $436 $19 $-1 $437 forward single #
plane-surface $-1 -35.476685224076853 -23.237625935860784 47.117353183065532 0 0.57357644374324357 0.81915203911291934 1 0 0 forward_v I I I I #
coedge $-1 $438 $439 $440 $441 reversed $259 $-1 #
coedge $-1 $352 $352 $-1 $442 forward $261 $-1 #
edge $-1 $443 0 $443 6.2831853071796004 $262 $444 forward 7 unknown #
vertex $-1 $265 $445 #
ellipse-curve $-1 -39.668693168915723 31.411206841741247 8.8518277828714744 0 -0.57357644374324357 -0.81915203911291934 1.5 0 0 1 I I #
vertex $-1 $266 $446 #
point $-1 -29.784677279237982 29.332882784689524 5.8836734804373787 #
loop $-1 $-1 $447 $258 #
straight-curve $-1 -53.603930784020505 36.405260014082323 0 0 0 -1 I I #
point $-1 -53.603930784020505 -36.405260014082323 -12.348701527528288 #
straight-curve $-1 -53.603930784020505 0 -12.348701527528288 0 1 0 I I #
point $-1 -53.603930784020505 36.405260014082323 -12.348701527528288 #
face $-1 $309 $448 $16 $-1 $449 reversed single #
loop $-1 $-1 $450 $287 #
plane-surface $-1 0 0 12.348701527528288 0 0 1 1 0 0 forward_v I I I I #
coedge $-1 $290 $289 $451 $452 reversed $122 $-1 #
edge $-1 $294 8.8798637224198576 $453 12.348701527528288 $293 $384 forward 7 unknown #
edge $-1 $297 8.8798637224198576 $454 12.348701527528288 $290 $379 forward 7 unknown #
straight-curve $-1 -53.603930784020505 0 -8.8798637224198576 0 1 0 I I #
coedge $-1 $293 $380 $455 $456 reversed $219 $-1 #
point $-1 -53.603930784020505 36.405260014082323 -8.8798637224198576 #
coedge $-1 $375 $296 $457 $458 reversed $214 $-1 #
point $-1 -53.603930784020505 -36.405260014082323 -8.8798637224198576 #
coedge $-1 $302 $301 $459 $460 reversed $199 $-1 #
coedge $-1 $304 $372 $461 $462 reversed $214 $-1 #
coedge $-1 $450 $459 $304 $377 forward $364 $-1 #
edge $-1 $378 -53.603930784020505 $463 53.603930784020505 $304 $464 forward 7 unknown #
vertex $-1 $460 $465 #
straight-curve $-1 -53.603930784020505 -36.405260014082323 0 0 0 -1 I I #
coedge $-1 $370 $307 $466 $467 forward $219 $-1 #
coedge $-1 $459 $450 $307 $382 forward $364 $-1 #
edge $-1 $468 -53.603930784020505 $383 53.603930784020505 $307 $469 forward 7 unknown #
vertex $-1 $382 $470 #
straight-curve $-1 -53.603930784020505 36.405260014082323 0 0 0 -1 I I #
face $-1 $-1 $471 $16 $-1 $472 reversed single #
plane-surface $-1 0 36.405260014082323 0 0 -1 0 0 0 -1 forward_v I I I I #
face $-1 $473 $474 $17 $-1 $475 reversed single #
loop $-1 $-1 $476 $312 #
plane-surface $-1 -45.258037095367541 0 -7.1957717238827419 -1 0 0 0 0 1 forward_v I I I I #
coedge $-1 $477 $478 $479 $480 reversed $313 $-1 #
coedge $-1 $481 $315 $482 $483 reversed $226 $-1 #
coedge $-1 $315 $481 $402 $484 reversed $226 $-1 #
coedge $-1 $485 $476 $315 $394 forward $388 $-1 #
edge $-1 $486 -36.405260014082323 $487 36.405260014082323 $393 $488 forward 7 unknown #
coedge $-1 $316 $328 $489 $490 forward $139 $-1 #
coedge $-1 $491 $317 $316 $397 reversed $240 $-1 #
edge $-1 $492 -53.603930784020505 $319 25.695333352786161 $396 $332 forward 7 unknown #
straight-curve $-1 -25.695333352786161 36.405260014082323 67.468445797730951 0 0 1 I I #
point $-1 -25.695333352786161 36.405260014082323 12.348701527528288 #
straight-curve $-1 -17.738342612038426 36.405260014082323 5.3549540382146574 1 0 0 I I #
point $-1 -25.695333352786161 36.40526001408233 5.3549540382146503 #
coedge $-1 $326 $493 $392 $484 forward $240 $-1 #
coedge $-1 $494 $329 $326 $404 forward $410 $-1 #
edge $-1 $331 -12.348701527528288 $495 5.5116797253456262 $326 $496 forward 7 unknown #
face $-1 $-1 $497 $17 $-1 $498 reversed single #
plane-surface $-1 0 36.405260014082323 0 0 -1 0 0 0 -1 forward_v I I I I #
coedge $-1 $499 $500 $328 $408 reversed $501 $-1 #
edge $-1 $411 -53.603930784020505 $502 53.603930784020505 $407 $503 forward 7 unknown #
coedge $-1 $329 $494 $499 $504 reversed $410 $-1 #
loop $-1 $-1 $494 $473 #
vertex $-1 $330 $505 #
straight-curve $-1 -53.603930784020505 0 12.348701527528288 0 -1 0 I I #
point $-1 -53.603930784020505 36.405260014082323 12.348701527528288 #
face $-1 $506 $507 $18 $-1 $508 forward single #
loop $-1 $-1 $509 $333 #
plane-surface $-1 -49.430983939694023 0 -5.5116797253456262 0 0 1 1 0 0 forward_v I I I I #
coedge $-1 $343 $510 $336 $420 forward $334 $-1 #
coedge $-1 $419 $336 $511 $512 reversed $247 $-1 #
coedge $-1 $336 $418 $421 $513 forward $247 $-1 #
edge $-1 $514 -17.278120992255257 $515 -7.2900146475730914 $417 $516 forward 7 unknown #
coedge $-1 $423 $337 $419 $513 reversed $249 $-1 #
edge $-1 $515 7.9569907407477345 $344 27.519694483329115 $343 $517 forward 7 unknown #
coedge $-1 $338 $421 $426 $518 reversed $249 $-1 #
vertex $-1 $518 $519 #
straight-curve $-1 -45.258037095367541 -23.237625935860784 47.117353183065532 0 0.81915203911291934 -0.57357644374324357 I I #
coedge $-1 $511 $340 $423 $518 forward $428 $-1 #
coedge $-1 $340 $520 $342 $431 reversed $428 $-1 #
loop $-1 $-1 $511 $521 #
straight-curve $-1 -45.258037095367541 36.405260014082323 67.468445797730951 0 0 -1 I I #
coedge $-1 $522 $342 $523 $524 forward $334 $-1 #
edge $-1 $345 45.258037095367541 $525 53.603930784020505 $427 $526 forward 7 unknown #
point $-1 -45.258037095367541 26.417153669400157 12.348701527528291 #
point $-1 -45.258037095367541 36.405260014082323 12.348701527528288 #
point $-1 -39.668693168915723 28.472518119074657 4.6549454217679997 #
face $-1 $527 $528 $19 $-1 $529 forward single #
loop $-1 $-1 $530 $349 #
plane-surface $-1 -25.695333352786161 38.254278043654132 134.9368915954619 -1 0 0 0 0.57357644374324357 0.81915203911291934 forward_v I I I I #
coedge $-1 $439 $351 $531 $532 forward $259 $-1 #
coedge $-1 $351 $438 $533 $534 reversed $259 $-1 #
coedge $-1 $535 $536 $351 $441 forward $528 $-1 #
edge $-1 $537 7.2900146475730914 $538 17.278120992255257 $440 $539 forward 7 unknown #
edge $-1 $540 1 $540 0 $352 $-1 forward 7 unknown #
vertex $-1 $353 $541 #
ellipse-curve $-1 -39.668693168915723 29.332882784689524 5.8836734804373787 0 0.57357644374324357 0.81915203911291934 1.5 0 0 1 I I #
point $-1 -38.168693168915723 31.411206841741233 8.8518277828714549 #
point $-1 -31.284677279237982 28.472518119074657 4.6549454217679997 #
coedge $-1 $542 $531 $536 $543 reversed $358 $-1 #
loop $-1 $-1 $544 $363 #
plane-surface $-1 0 0 -12.348701527528288 0 0 1 1 0 0 forward_v I I I I #
coedge $-1 $381 $376 $545 $546 forward $364 $-1 #
coedge $-1 $455 $457 $366 $452 forward $448 $-1 #
edge $-1 $454 -36.405260014082323 $453 36.405260014082323 $366 $547 forward 7 unknown #
vertex $-1 $456 $548 #
vertex $-1 $452 $549 #
coedge $-1 $544 $451 $370 $456 forward $448 $-1 #
edge $-1 $453 -53.603930784020505 $550 53.603930784020505 $370 $551 forward 7 unknown #
coedge $-1 $451 $544 $372 $458 forward $448 $-1 #
edge $-1 $552 -53.603930784020505 $454 53.603930784020505 $372 $553 forward 7 unknown #
coedge $-1 $376 $381 $374 $460 forward $364 $-1 #
edge $-1 $383 -36.405260014082323 $378 36.405260014082323 $374 $554 forward 7 unknown #
coedge $-1 $555 $545 $375 $462 forward $471 $-1 #
edge $-1 $463 -12.348701527528288 $552 12.348701527528288 $461 $556 forward 7 unknown #
vertex $-1 $546 $557 #
straight-curve $-1 0 -36.405260014082323 12.348701527528288 1 0 0 I I #
point $-1 -53.603930784020505 -36.405260014082323 12.348701527528288 #
coedge $-1 $545 $555 $380 $467 reversed $471 $-1 #
edge $-1 $468 -12.348701527528288 $550 12.348701527528288 $466 $558 forward 7 unknown #
vertex $-1 $546 $559 #
straight-curve $-1 0 36.405260014082323 12.348701527528288 -1 0 0 I I #
point $-1 -53.603930784020505 36.405260014082323 12.348701527528288 #
loop $-1 $-1 $461 $385 #
plane-surface $-1 53.603930784020505 0 0 -1 0 0 0 0 1 forward_v I I I I #
face $-1 $560 $410 $17 $-1 $475 reversed single #
loop $-1 $-1 $561 $387 #
plane-surface $-1 -53.603930784020505 0 0 1 0 0 0 0 -1 forward_v I I I I #
coedge $-1 $393 $479 $562 $563 reversed $388 $-1 #
coedge $-1 $564 $390 $565 $566 reversed $313 $-1 #
coedge $-1 $390 $564 $567 $568 reversed $313 $-1 #
coedge $-1 $476 $485 $390 $480 forward $388 $-1 #
edge $-1 $569 -36.405260014082323 $570 36.405260014082323 $479 $571 forward 7 unknown #
coedge $-1 $392 $391 $494 $572 reversed $226 $-1 #
coedge $-1 $562 $499 $391 $483 forward $501 $-1 #
edge $-1 $573 -28.888438814173494 $486 -20.54254512552053 $482 $574 forward 7 unknown #
edge $-1 $487 20.54254512552053 $495 28.888438814173494 $402 $575 forward 7 unknown #
coedge $-1 $479 $393 $493 $576 reversed $388 $-1 #
vertex $-1 $483 $577 #
vertex $-1 $484 $578 #
straight-curve $-1 -45.258037095367541 0 -5.5116797253456262 0 1 0 I I #
coedge $-1 $579 $580 $395 $490 reversed $497 $-1 #
edge $-1 $502 -36.405260014082323 $492 36.405260014082323 $489 $581 forward 7 unknown #
coedge $-1 $582 $396 $580 $583 forward $240 $-1 #
vertex $-1 $490 $584 #
coedge $-1 $402 $565 $485 $576 forward $240 $-1 #
coedge $-1 $409 $403 $481 $572 forward $410 $-1 #
vertex $-1 $572 $585 #
straight-curve $-1 -53.603930784020505 36.405260014082323 0 0 0 -1 I I #
loop $-1 $-1 $579 $405 #
plane-surface $-1 53.603930784020505 0 0 -1 0 0 0 0 1 forward_v I I I I #
coedge $-1 $482 $407 $409 $504 forward $501 $-1 #
coedge $-1 $407 $586 $579 $587 reversed $501 $-1 #
loop $-1 $-1 $482 $560 #
vertex $-1 $490 $588 #
straight-curve $-1 0 -36.405260014082323 12.348701527528288 1 0 0 I I #
edge $-1 $411 -12.348701527528288 $573 5.5116797253456262 $409 $589 forward 7 unknown #
point $-1 -53.603930784020505 -36.405260014082323 12.348701527528288 #
face $-1 $590 $591 $18 $-1 $592 forward single #
loop $-1 $-1 $593 $414 #
plane-surface $-1 -49.430983939694023 0 -8.8798637224198576 0 0 1 1 0 0 forward_v I I I I #
coedge $-1 $594 $595 $596 $597 reversed $415 $-1 #
coedge $-1 $417 $598 $599 $600 forward $334 $-1 #
coedge $-1 $599 $426 $418 $512 forward $428 $-1 #
edge $-1 $601 -62.1134917595163 $514 -55.119744270202659 $511 $602 forward 7 unknown #
edge $-1 $601 -72.810520028164632 $515 -60.617293535682791 $419 $603 forward 7 unknown #
vertex $-1 $512 $604 #
vertex $-1 $422 $605 #
straight-curve $-1 -25.695333352786161 19.127139021827066 12.348701527528291 0 -1 0 I I #
straight-curve $-1 -17.738342612038426 26.417153669400157 12.348701527528295 -1 0 0 I I #
edge $-1 $424 -27.519694483329115 $601 -7.9569907407477345 $426 $606 forward 7 unknown #
point $-1 -45.258037095367541 36.40526001408233 5.3549540382146503 #
coedge $-1 $427 $607 $608 $609 reversed $428 $-1 #
face $-1 $610 $428 $18 $-1 $611 reversed single #
coedge $-1 $598 $430 $612 $613 forward $334 $-1 #
coedge $-1 $608 $614 $430 $524 reversed $615 $-1 #
edge $-1 $525 -36.405260014082323 $616 36.405260014082323 $523 $617 forward 7 unknown #
vertex $-1 $431 $618 #
straight-curve $-1 0 36.405260014082323 12.348701527528288 -1 0 0 I I #
face $-1 $619 $620 $19 $-1 $621 reversed single #
loop $-1 $-1 $622 $435 #
plane-surface $-1 0 0 12.348701527528288 0 0 1 1 0 0 forward_v I I I I #
coedge $-1 $623 $624 $622 $625 reversed $436 $-1 #
coedge $-1 $447 $626 $438 $532 reversed $358 $-1 #
edge $-1 $537 60.617293535682791 $627 72.810520028164632 $438 $628 forward 7 unknown #
coedge $-1 $629 $630 $439 $534 forward $631 $-1 #
edge $-1 $538 55.119744270202659 $627 62.1134917595163 $533 $632 forward 7 unknown #
coedge $-1 $633 $440 $630 $634 forward $528 $-1 #
coedge $-1 $440 $622 $447 $543 forward $528 $-1 #
vertex $-1 $543 $635 #
vertex $-1 $634 $636 #
straight-curve $-1 -45.258037095367541 19.127139021827066 12.348701527528291 0 1 0 I I #
vertex $-1 $442 $637 #
point $-1 -38.168693168915723 29.332882784689524 5.8836734804373787 #
coedge $-1 $626 $447 $624 $638 reversed $358 $-1 #
edge $-1 $639 7.9569907407477345 $537 27.519694483329115 $536 $640 forward 7 unknown #
coedge $-1 $457 $455 $555 $641 forward $448 $-1 #
coedge $-1 $461 $466 $450 $546 reversed $471 $-1 #
edge $-1 $463 -36.405260014082323 $468 36.405260014082323 $545 $642 forward 7 unknown #
straight-curve $-1 -53.603930784020505 0 -12.348701527528288 0 1 0 I I #
point $-1 -53.603930784020505 36.405260014082323 -12.348701527528288 #
point $-1 -53.603930784020505 -36.405260014082323 -12.348701527528288 #
vertex $-1 $641 $643 #
straight-curve $-1 0 36.405260014082323 -12.348701527528288 1 0 0 I I #
vertex $-1 $462 $644 #
straight-curve $-1 0 -36.405260014082323 -12.348701527528288 -1 0 0 I I #
straight-curve $-1 -53.603930784020505 0 12.348701527528288 0 -1 0 I I #
coedge $-1 $466 $461 $544 $641 reversed $471 $-1 #
straight-curve $-1 53.603930784020505 -36.405260014082323 0 0 0 -1 I I #
point $-1 53.603930784020505 -36.405260014082323 12.348701527528288 #
straight-curve $-1 53.603930784020505 36.405260014082323 0 0 0 -1 I I #
point $-1 53.603930784020505 36.405260014082323 12.348701527528288 #
face $-1 $645 $501 $17 $-1 $646 reversed single #
coedge $-1 $647 $648 $564 $649 forward $474 $-1 #
coedge $-1 $567 $482 $476 $563 forward $501 $-1 #
edge $-1 $486 1.9137938634042553 $570 5.2819778604784862 $562 $650 forward 7 unknown #
coedge $-1 $478 $477 $561 $649 reversed $313 $-1 #
coedge $-1 $493 $651 $477 $566 forward $240 $-1 #
edge $-1 $652 -28.888438814173494 $569 -20.54254512552053 $565 $653 forward 7 unknown #
coedge $-1 $654 $562 $478 $568 forward $501 $-1 #
edge $-1 $570 20.54254512552053 $655 28.888438814173494 $567 $656 forward 7 unknown #
vertex $-1 $566 $657 #
vertex $-1 $568 $658 #
straight-curve $-1 -45.258037095367541 0 -8.8798637224198576 0 -1 0 I I #
edge $-1 $495 -36.405260014082323 $573 36.405260014082323 $494 $659 forward 7 unknown #
vertex $-1 $483 $660 #
straight-curve $-1 -24.715491969847012 -36.405260014082323 -5.5116797253456262 1 0 0 I I #
straight-curve $-1 -24.715491969847012 36.405260014082323 -5.5116797253456262 -1 0 0 I I #
edge $-1 $569 -5.2819778604784862 $487 -1.9137938634042553 $493 $661 forward 7 unknown #
point $-1 -45.258037095367541 -36.405260014082323 -5.5116797253456262 #
point $-1 -45.258037095367541 36.405260014082323 -5.5116797253456262 #
coedge $-1 $662 $489 $500 $587 forward $497 $-1 #
coedge $-1 $489 $662 $491 $583 reversed $497 $-1 #
straight-curve $-1 53.603930784020505 0 12.348701527528288 0 1 0 I I #
coedge $-1 $651 $491 $663 $664 reversed $240 $-1 #
edge $-1 $492 -12.348701527528288 $665 12.348701527528288 $580 $666 forward 7 unknown #
point $-1 53.603930784020505 36.405260014082323 12.348701527528288 #
point $-1 -53.603930784020505 36.405260014082323 -5.5116797253456262 #
coedge $-1 $500 $654 $667 $668 reversed $501 $-1 #
edge $-1 $502 -12.348701527528288 $669 12.348701527528288 $579 $670 forward 7 unknown #
point $-1 53.603930784020505 -36.405260014082323 12.348701527528288 #
straight-curve $-1 -53.603930784020505 -36.405260014082323 0 0 0 -1 I I #
face $-1 $671 $672 $18 $-1 $673 reversed single #
loop $-1 $-1 $674 $506 #
plane-surface $-1 -45.258037095367541 0 -7.1957717238827419 -1 0 0 0 0 1 forward_v I I I I #
coedge $-1 $675 $676 $677 $678 reversed $507 $-1 #
coedge $-1 $679 $509 $680 $681 reversed $415 $-1 #
coedge $-1 $509 $679 $607 $682 reversed $415 $-1 #
coedge $-1 $683 $674 $509 $597 forward $591 $-1 #
edge $-1 $684 -36.405260014082323 $685 36.405260014082323 $596 $686 forward 7 unknown #
coedge $-1 $510 $522 $687 $688 forward $334 $-1 #
coedge $-1 $689 $511 $510 $600 reversed $428 $-1 #
edge $-1 $690 -53.603930784020505 $514 25.695333352786161 $599 $526 forward 7 unknown #
vertex $-1 $518 $691 #
straight-curve $-1 -25.695333352786161 36.405260014082323 67.468445797730951 0 0 1 I I #
straight-curve $-1 -25.695333352786161 -23.237625935860784 47.117353183065532 0 -0.81915203911291934 0.57357644374324357 I I #
point $-1 -25.695333352786161 36.405260014082323 12.348701527528288 #
point $-1 -25.695333352786161 26.417153669400157 12.348701527528291 #
straight-curve $-1 -17.738342612038426 36.405260014082323 5.3549540382146574 1 0 0 I I #
coedge $-1 $520 $692 $595 $682 forward $428 $-1 #
coedge $-1 $693 $523 $520 $609 forward $615 $-1 #
edge $-1 $525 -12.348701527528288 $694 5.5116797253456262 $520 $695 forward 7 unknown #
face $-1 $-1 $696 $18 $-1 $697 reversed single #
plane-surface $-1 0 36.405260014082323 0 0 -1 0 0 0 -1 forward_v I I I I #
coedge $-1 $698 $699 $522 $613 reversed $700 $-1 #
edge $-1 $616 -53.603930784020505 $701 53.603930784020505 $612 $702 forward 7 unknown #
coedge $-1 $523 $693 $698 $703 reversed $615 $-1 #
loop $-1 $-1 $693 $671 #
vertex $-1 $524 $704 #
straight-curve $-1 -53.603930784020505 0 12.348701527528288 0 -1 0 I I #
point $-1 -53.603930784020505 36.405260014082323 12.348701527528288 #
face $-1 $705 $706 $19 $-1 $707 forward single #
loop $-1 $-1 $708 $527 #
plane-surface $-1 -49.430983939694023 0 -5.5116797253456262 0 0 1 1 0 0 forward_v I I I I #
coedge $-1 $536 $709 $530 $625 forward $528 $-1 #
coedge $-1 $624 $530 $710 $711 reversed $436 $-1 #
coedge $-1 $530 $623 $542 $638 forward $436 $-1 #
edge $-1 $712 -17.278120992255257 $639 -7.2900146475730914 $622 $713 forward 7 unknown #
coedge $-1 $531 $542 $629 $714 reversed $358 $-1 #
vertex $-1 $714 $715 #
straight-curve $-1 -45.258037095367541 -23.237625935860784 47.117353183065532 0 0.81915203911291934 -0.57357644374324357 I I #
coedge $-1 $710 $533 $626 $714 forward $631 $-1 #
coedge $-1 $533 $716 $535 $634 reversed $631 $-1 #
loop $-1 $-1 $710 $717 #
straight-curve $-1 -45.258037095367541 36.405260014082323 67.468445797730951 0 0 -1 I I #
coedge $-1 $718 $535 $719 $720 forward $528 $-1 #
edge $-1 $538 45.258037095367541 $721 53.603930784020505 $630 $722 forward 7 unknown #
point $-1 -45.258037095367541 26.417153669400157 12.348701527528291 #
point $-1 -45.258037095367541 36.405260014082323 12.348701527528288 #
point $-1 -39.668693168915723 28.472518119074657 4.6549454217679997 #
edge $-1 $723 -72.810520028164632 $639 -60.617293535682791 $624 $724 forward 7 unknown #
vertex $-1 $543 $725 #
straight-curve $-1 -17.738342612038426 26.417153669400157 12.348701527528295 -1 0 0 I I #
edge $-1 $550 -36.405260014082323 $552 36.405260014082323 $555 $726 forward 7 unknown #
straight-curve $-1 53.603930784020505 0 12.348701527528288 0 1 0 I I #
point $-1 53.603930784020505 36.405260014082323 -12.348701527528288 #
point $-1 53.603930784020505 -36.405260014082323 -12.348701527528288 #
face $-1 $327 $727 $17 $-1 $728 reversed single #
plane-surface $-1 0 -36.405260014082323 0 0 1 0 0 0 1 forward_v I I I I #
coedge $-1 $729 $561 $651 $730 forward $474 $-1 #
coedge $-1 $561 $729 $654 $731 reversed $474 $-1 #
edge $-1 $655 -36.405260014082323 $652 36.405260014082323 $561 $732 forward 7 unknown #
straight-curve $-1 -45.258037095367541 -36.405260014082323 -3.5978858619413709 0 0 -1 I I #
coedge $-1 $565 $582 $647 $730 reversed $240 $-1 #
vertex $-1 $730 $733 #
straight-curve $-1 -24.715491969847012 36.405260014082323 -8.8798637224198576 1 0 0 I I #
coedge $-1 $586 $567 $648 $731 forward $501 $-1 #
vertex $-1 $731 $734 #
straight-curve $-1 -24.715491969847012 -36.405260014082323 -8.8798637224198576 -1 0 0 I I #
point $-1 -45.258037095367541 36.405260014082323 -8.8798637224198576 #
point $-1 -45.258037095367541 -36.405260014082323 -8.8798637224198576 #
straight-curve $-1 -53.603930784020505 0 -5.5116797253456262 0 -1 0 I I #
point $-1 -53.603930784020505 -36.405260014082323 -5.5116797253456262 #
straight-curve $-1 -45.258037095367541 36.405260014082323 -3.5978858619413709 0 0 1 I I #
coedge $-1 $580 $579 $735 $736 reversed $497 $-1 #
coedge $-1 $735 $737 $582 $664 forward $727 $-1 #
edge $-1 $738 -53.603930784020505 $665 53.603930784020505 $582 $739 forward 7 unknown #
vertex $-1 $736 $740 #
straight-curve $-1 53.603930784020505 36.405260014082323 0 0 0 -1 I I #
coedge $-1 $737 $735 $586 $668 forward $727 $-1 #
edge $-1 $669 -53.603930784020505 $741 53.603930784020505 $586 $742 forward 7 unknown #
vertex $-1 $587 $743 #
straight-curve $-1 53.603930784020505 -36.405260014082323 0 0 0 -1 I I #
face $-1 $744 $615 $18 $-1 $673 reversed single #
loop $-1 $-1 $745 $590 #
plane-surface $-1 -53.603930784020505 0 0 1 0 0 0 0 -1 forward_v I I I I #
coedge $-1 $596 $677 $746 $747 reversed $591 $-1 #
coedge $-1 $748 $593 $749 $750 reversed $507 $-1 #
coedge $-1 $593 $748 $751 $752 reversed $507 $-1 #
coedge $-1 $674 $683 $593 $678 forward $591 $-1 #
edge $-1 $753 -36.405260014082323 $754 36.405260014082323 $677 $755 forward 7 unknown #
coedge $-1 $595 $594 $693 $756 reversed $415 $-1 #
coedge $-1 $746 $698 $594 $681 forward $700 $-1 #
edge $-1 $757 -28.888438814173494 $684 -20.54254512552053 $680 $758 forward 7 unknown #
edge $-1 $685 20.54254512552053 $694 28.888438814173494 $607 $759 forward 7 unknown #
coedge $-1 $677 $596 $692 $760 reversed $591 $-1 #
vertex $-1 $681 $761 #
vertex $-1 $682 $762 #
straight-curve $-1 -45.258037095367541 0 -5.5116797253456262 0 1 0 I I #
coedge $-1 $763 $764 $598 $688 reversed $696 $-1 #
edge $-1 $701 -36.405260014082323 $690 36.405260014082323 $687 $765 forward 7 unknown #
coedge $-1 $766 $599 $764 $767 forward $428 $-1 #
vertex $-1 $688 $768 #
point $-1 -25.695333352786161 36.40526001408233 5.3549540382146503 #
coedge $-1 $607 $749 $683 $760 forward $428 $-1 #
coedge $-1 $614 $608 $679 $756 forward $615 $-1 #
vertex $-1 $756 $769 #
straight-curve $-1 -53.603930784020505 36.405260014082323 0 0 0 -1 I I #
loop $-1 $-1 $763 $610 #
plane-surface $-1 53.603930784020505 0 0 -1 0 0 0 0 1 forward_v I I I I #
coedge $-1 $680 $612 $614 $703 forward $700 $-1 #
coedge $-1 $612 $770 $763 $771 reversed $700 $-1 #
loop $-1 $-1 $680 $744 #
vertex $-1 $688 $772 #
straight-curve $-1 0 -36.405260014082323 12.348701527528288 1 0 0 I I #
edge $-1 $616 -12.348701527528288 $757 5.5116797253456262 $614 $773 forward 7 unknown #
point $-1 -53.603930784020505 -36.405260014082323 12.348701527528288 #
face $-1 $774 $775 $19 $-1 $776 forward single #
loop $-1 $-1 $777 $619 #
plane-surface $-1 -49.430983939694023 0 -8.8798637224198576 0 0 1 1 0 0 forward_v I I I I #
coedge $-1 $778 $779 $780 $781 reversed $620 $-1 #
coedge $-1 $622 $782 $783 $784 forward $528 $-1 #
coedge $-1 $783 $629 $623 $711 forward $631 $-1 #
edge $-1 $723 -62.1134917595163 $712 -55.119744270202659 $710 $785 forward 7 unknown #
vertex $-1 $711 $786 #
straight-curve $-1 -25.695333352786161 19.127139021827066 12.348701527528291 0 -1 0 I I #
edge $-1 $627 -27.519694483329115 $723 -7.9569907407477345 $629 $787 forward 7 unknown #
point $-1 -45.258037095367541 36.40526001408233 5.3549540382146503 #
coedge $-1 $630 $788 $789 $790 reversed $631 $-1 #
face $-1 $791 $631 $19 $-1 $792 reversed single #
coedge $-1 $782 $633 $793 $794 forward $528 $-1 #
coedge $-1 $789 $795 $633 $720 reversed $796 $-1 #
edge $-1 $721 -36.405260014082323 $797 36.405260014082323 $719 $798 forward 7 unknown #
vertex $-1 $634 $799 #
straight-curve $-1 0 36.405260014082323 12.348701527528288 -1 0 0 I I #
vertex $-1 $714 $800 #
straight-curve $-1 -25.695333352786161 -23.237625935860784 47.117353183065532 0 -0.81915203911291934 0.57357644374324357 I I #
point $-1 -25.695333352786161 26.417153669400157 12.348701527528291 #
straight-curve $-1 53.603930784020505 0 -12.348701527528288 0 -1 0 I I #
loop $-1 $-1 $735 $645 #
plane-surface $-1 0 0 -12.348701527528288 0 0 1 1 0 0 forward_v I I I I #
coedge $-1 $648 $647 $737 $801 reversed $474 $-1 #
edge $-1 $652 8.8798637224198576 $738 12.348701527528288 $651 $496 forward 7 unknown #
edge $-1 $655 8.8798637224198576 $741 12.348701527528288 $648 $589 forward 7 unknown #
straight-curve $-1 -53.603930784020505 0 -8.8798637224198576 0 1 0 I I #
point $-1 -53.603930784020505 36.405260014082323 -8.8798637224198576 #
point $-1 -53.603930784020505 -36.405260014082323 -8.8798637224198576 #
coedge $-1 $667 $663 $662 $736 forward $727 $-1 #
edge $-1 $665 -36.405260014082323 $669 36.405260014082323 $662 $802 forward 7 unknown #
coedge $-1 $663 $667 $729 $801 forward $727 $-1 #
vertex $-1 $664 $803 #
straight-curve $-1 0 36.405260014082323 -12.348701527528288 1 0 0 I I #
point $-1 53.603930784020505 36.405260014082323 -12.348701527528288 #
vertex $-1 $801 $804 #
straight-curve $-1 0 -36.405260014082323 -12.348701527528288 -1 0 0 I I #
point $-1 53.603930784020505 -36.405260014082323 -12.348701527528288 #
face $-1 $805 $700 $18 $-1 $806 reversed single #
coedge $-1 $807 $808 $748 $809 forward $672 $-1 #
coedge $-1 $751 $680 $674 $747 forward $700 $-1 #
edge $-1 $684 1.9137938634042553 $754 5.2819778604784862 $746 $810 forward 7 unknown #
coedge $-1 $676 $675 $745 $809 reversed $507 $-1 #
coedge $-1 $692 $811 $675 $750 forward $428 $-1 #
edge $-1 $812 -28.888438814173494 $753 -20.54254512552053 $749 $813 forward 7 unknown #
coedge $-1 $814 $746 $676 $752 forward $700 $-1 #
edge $-1 $754 20.54254512552053 $815 28.888438814173494 $751 $816 forward 7 unknown #
vertex $-1 $750 $817 #
vertex $-1 $752 $818 #
straight-curve $-1 -45.258037095367541 0 -8.8798637224198576 0 -1 0 I I #
edge $-1 $694 -36.405260014082323 $757 36.405260014082323 $693 $819 forward 7 unknown #
vertex $-1 $681 $820 #
straight-curve $-1 -24.715491969847012 -36.405260014082323 -5.5116797253456262 1 0 0 I I #
straight-curve $-1 -24.715491969847012 36.405260014082323 -5.5116797253456262 -1 0 0 I I #
edge $-1 $753 -5.2819778604784862 $685 -1.9137938634042553 $692 $821 forward 7 unknown #
point $-1 -45.258037095367541 -36.405260014082323 -5.5116797253456262 #
point $-1 -45.258037095367541 36.405260014082323 -5.5116797253456262 #
coedge $-1 $822 $687 $699 $771 forward $696 $-1 #
coedge $-1 $687 $822 $689 $767 reversed $696 $-1 #
straight-curve $-1 53.603930784020505 0 12.348701527528288 0 1 0 I I #
coedge $-1 $811 $689 $823 $824 reversed $428 $-1 #
edge $-1 $690 -12.348701527528288 $825 12.348701527528288 $764 $826 forward 7 unknown #
point $-1 53.603930784020505 36.405260014082323 12.348701527528288 #
point $-1 -53.603930784020505 36.405260014082323 -5.5116797253456262 #
coedge $-1 $699 $814 $827 $828 reversed $700 $-1 #
edge $-1 $701 -12.348701527528288 $829 12.348701527528288 $763 $830 forward 7 unknown #
point $-1 53.603930784020505 -36.405260014082323 12.348701527528288 #
straight-curve $-1 -53.603930784020505 -36.405260014082323 0 0 0 -1 I I #
face $-1 $831 $832 $19 $-1 $833 reversed single #
loop $-1 $-1 $834 $705 #
plane-surface $-1 -45.258037095367541 0 -7.1957717238827419 -1 0 0 0 0 1 forward_v I I I I #
coedge $-1 $835 $836 $837 $838 reversed $706 $-1 #
coedge $-1 $839 $708 $840 $841 reversed $620 $-1 #
coedge $-1 $708 $839 $788 $842 reversed $620 $-1 #
coedge $-1 $843 $834 $708 $781 forward $775 $-1 #
edge $-1 $844 -36.405260014082323 $845 36.405260014082323 $780 $846 forward 7 unknown #
coedge $-1 $709 $718 $847 $848 forward $528 $-1 #
coedge $-1 $849 $710 $709 $784 reversed $631 $-1 #
edge $-1 $850 -53.603930784020505 $712 25.695333352786161 $783 $722 forward 7 unknown #
straight-curve $-1 -25.695333352786161 36.405260014082323 67.468445797730951 0 0 1 I I #
point $-1 -25.695333352786161 36.405260014082323 12.348701527528288 #
straight-curve $-1 -17.738342612038426 36.405260014082323 5.3549540382146574 1 0 0 I I #
coedge $-1 $716 $851 $779 $842 forward $631 $-1 #
coedge $-1 $852 $719 $716 $790 forward $796 $-1 #
edge $-1 $721 -12.348701527528288 $853 5.5116797253456262 $716 $854 forward 7 unknown #
face $-1 $-1 $855 $19 $-1 $856 reversed single #
plane-surface $-1 0 36.405260014082323 0 0 -1 0 0 0 -1 forward_v I I I I #
coedge $-1 $857 $858 $718 $794 reversed $859 $-1 #
edge $-1 $797 -53.603930784020505 $860 53.603930784020505 $793 $861 forward 7 unknown #
coedge $-1 $719 $852 $857 $862 reversed $796 $-1 #
loop $-1 $-1 $852 $831 #
vertex $-1 $720 $863 #
straight-curve $-1 -53.603930784020505 0 12.348701527528288 0 -1 0 I I #
point $-1 -53.603930784020505 36.405260014082323 12.348701527528288 #
point $-1 -25.695333352786161 36.40526001408233 5.3549540382146503 #
edge $-1 $741 -36.405260014082323 $738 36.405260014082323 $729 $864 forward 7 unknown #
straight-curve $-1 53.603930784020505 0 -12.348701527528288 0 -1 0 I I #
point $-1 -53.603930784020505 36.405260014082323 -12.348701527528288 #
point $-1 -53.603930784020505 -36.405260014082323 -12.348701527528288 #
face $-1 $521 $865 $18 $-1 $866 reversed single #
plane-surface $-1 0 -36.405260014082323 0 0 1 0 0 0 1 forward_v I I I I #
coedge $-1 $867 $745 $811 $868 forward $672 $-1 #
coedge $-1 $745 $867 $814 $869 reversed $672 $-1 #
edge $-1 $815 -36.405260014082323 $812 36.405260014082323 $745 $870 forward 7 unknown #
straight-curve $-1 -45.258037095367541 -36.405260014082323 -3.5978858619413709 0 0 -1 I I #
coedge $-1 $749 $766 $807 $868 reversed $428 $-1 #
vertex $-1 $868 $871 #
straight-curve $-1 -24.715491969847012 36.405260014082323 -8.8798637224198576 1 0 0 I I #
coedge $-1 $770 $751 $808 $869 forward $700 $-1 #
vertex $-1 $869 $872 #
straight-curve $-1 -24.715491969847012 -36.405260014082323 -8.8798637224198576 -1 0 0 I I #
point $-1 -45.258037095367541 36.405260014082323 -8.8798637224198576 #
point $-1 -45.258037095367541 -36.405260014082323 -8.8798637224198576 #
straight-curve $-1 -53.603930784020505 0 -5.5116797253456262 0 -1 0 I I #
point $-1 -53.603930784020505 -36.405260014082323 -5.5116797253456262 #
straight-curve $-1 -45.258037095367541 36.405260014082323 -3.5978858619413709 0 0 1 I I #
coedge $-1 $764 $763 $873 $874 reversed $696 $-1 #
coedge $-1 $873 $875 $766 $824 forward $865 $-1 #
edge $-1 $876 -53.603930784020505 $825 53.603930784020505 $766 $877 forward 7 unknown #
vertex $-1 $874 $878 #
straight-curve $-1 53.603930784020505 36.405260014082323 0 0 0 -1 I I #
coedge $-1 $875 $873 $770 $828 forward $865 $-1 #
edge $-1 $829 -53.603930784020505 $879 53.603930784020505 $770 $880 forward 7 unknown #
vertex $-1 $771 $881 #
straight-curve $-1 53.603930784020505 -36.405260014082323 0 0 0 -1 I I #
face $-1 $882 $796 $19 $-1 $833 reversed single #
loop $-1 $-1 $883 $774 #
plane-surface $-1 -53.603930784020505 0 0 1 0 0 0 0 -1 forward_v I I I I #
coedge $-1 $780 $837 $884 $885 reversed $775 $-1 #
coedge $-1 $886 $777 $887 $888 reversed $706 $-1 #
coedge $-1 $777 $886 $889 $890 reversed $706 $-1 #
coedge $-1 $834 $843 $777 $838 forward $775 $-1 #
edge $-1 $891 -36.405260014082323 $892 36.405260014082323 $837 $893 forward 7 unknown #
coedge $-1 $779 $778 $852 $894 reversed $620 $-1 #
coedge $-1 $884 $857 $778 $841 forward $859 $-1 #
edge $-1 $895 -28.888438814173494 $844 -20.54254512552053 $840 $896 forward 7 unknown #
edge $-1 $845 20.54254512552053 $853 28.888438814173494 $788 $897 forward 7 unknown #
coedge $-1 $837 $780 $851 $898 reversed $775 $-1 #
vertex $-1 $841 $899 #
vertex $-1 $842 $900 #
straight-curve $-1 -45.258037095367541 0 -5.5116797253456262 0 1 0 I I #
coedge $-1 $901 $902 $782 $848 reversed $855 $-1 #
edge $-1 $860 -36.405260014082323 $850 36.405260014082323 $847 $903 forward 7 unknown #
coedge $-1 $904 $783 $902 $905 forward $631 $-1 #
vertex $-1 $848 $906 #
coedge $-1 $788 $887 $843 $898 forward $631 $-1 #
coedge $-1 $795 $789 $839 $894 forward $796 $-1 #
vertex $-1 $894 $907 #
straight-curve $-1 -53.603930784020505 36.405260014082323 0 0 0 -1 I I #
loop $-1 $-1 $901 $791 #
plane-surface $-1 53.603930784020505 0 0 -1 0 0 0 0 1 forward_v I I I I #
coedge $-1 $840 $793 $795 $862 forward $859 $-1 #
coedge $-1 $793 $908 $901 $909 reversed $859 $-1 #
loop $-1 $-1 $840 $882 #
vertex $-1 $848 $910 #
straight-curve $-1 0 -36.405260014082323 12.348701527528288 1 0 0 I I #
edge $-1 $797 -12.348701527528288 $895 5.5116797253456262 $795 $911 forward 7 unknown #
point $-1 -53.603930784020505 -36.405260014082323 12.348701527528288 #
straight-curve $-1 -53.603930784020505 0 -12.348701527528288 0 1 0 I I #
loop $-1 $-1 $873 $805 #
plane-surface $-1 0 0 -12.348701527528288 0 0 1 1 0 0 forward_v I I I I #
coedge $-1 $808 $807 $875 $912 reversed $672 $-1 #
edge $-1 $812 8.8798637224198576 $876 12.348701527528288 $811 $695 forward 7 unknown #
edge $-1 $815 8.8798637224198576 $879 12.348701527528288 $808 $773 forward 7 unknown #
straight-curve $-1 -53.603930784020505 0 -8.8798637224198576 0 1 0 I I #
point $-1 -53.603930784020505 36.405260014082323 -8.8798637224198576 #
point $-1 -53.603930784020505 -36.405260014082323 -8.8798637224198576 #
coedge $-1 $827 $823 $822 $874 forward $865 $-1 #
edge $-1 $825 -36.405260014082323 $829 36.405260014082323 $822 $913 forward 7 unknown #
coedge $-1 $823 $827 $867 $912 forward $865 $-1 #
vertex $-1 $824 $914 #
straight-curve $-1 0 36.405260014082323 -12.348701527528288 1 0 0 I I #
point $-1 53.603930784020505 36.405260014082323 -12.348701527528288 #
vertex $-1 $912 $915 #
straight-curve $-1 0 -36.405260014082323 -12.348701527528288 -1 0 0 I I #
point $-1 53.603930784020505 -36.405260014082323 -12.348701527528288 #
face $-1 $916 $859 $19 $-1 $917 reversed single #
coedge $-1 $918 $919 $886 $920 forward $832 $-1 #
coedge $-1 $889 $840 $834 $885 forward $859 $-1 #
edge $-1 $844 1.9137938634042553 $892 5.2819778604784862 $884 $921 forward 7 unknown #
coedge $-1 $836 $835 $883 $920 reversed $706 $-1 #
coedge $-1 $851 $922 $835 $888 forward $631 $-1 #
edge $-1 $923 -28.888438814173494 $891 -20.54254512552053 $887 $924 forward 7 unknown #
coedge $-1 $925 $884 $836 $890 forward $859 $-1 #
edge $-1 $892 20.54254512552053 $926 28.888438814173494 $889 $927 forward 7 unknown #
vertex $-1 $888 $928 #
vertex $-1 $890 $929 #
straight-curve $-1 -45.258037095367541 0 -8.8798637224198576 0 -1 0 I I #
edge $-1 $853 -36.405260014082323 $895 36.405260014082323 $852 $930 forward 7 unknown #
vertex $-1 $841 $931 #
straight-curve $-1 -24.715491969847012 -36.405260014082323 -5.5116797253456262 1 0 0 I I #
straight-curve $-1 -24.715491969847012 36.405260014082323 -5.5116797253456262 -1 0 0 I I #
edge $-1 $891 -5.2819778604784862 $845 -1.9137938634042553 $851 $932 forward 7 unknown #
point $-1 -45.258037095367541 -36.405260014082323 -5.5116797253456262 #
point $-1 -45.258037095367541 36.405260014082323 -5.5116797253456262 #
coedge $-1 $933 $847 $858 $909 forward $855 $-1 #
coedge $-1 $847 $933 $849 $905 reversed $855 $-1 #
straight-curve $-1 53.603930784020505 0 12.348701527528288 0 1 0 I I #
coedge $-1 $922 $849 $934 $935 reversed $631 $-1 #
edge $-1 $850 -12.348701527528288 $936 12.348701527528288 $902 $937 forward 7 unknown #
point $-1 53.603930784020505 36.405260014082323 12.348701527528288 #
point $-1 -53.603930784020505 36.405260014082323 -5.5116797253456262 #
coedge $-1 $858 $925 $938 $939 reversed $859 $-1 #
edge $-1 $860 -12.348701527528288 $940 12.348701527528288 $901 $941 forward 7 unknown #
point $-1 53.603930784020505 -36.405260014082323 12.348701527528288 #
straight-curve $-1 -53.603930784020505 -36.405260014082323 0 0 0 -1 I I #
edge $-1 $879 -36.405260014082323 $876 36.405260014082323 $867 $942 forward 7 unknown #
straight-curve $-1 53.603930784020505 0 -12.348701527528288 0 -1 0 I I #
point $-1 -53.603930784020505 36.405260014082323 -12.348701527528288 #
point $-1 -53.603930784020505 -36.405260014082323 -12.348701527528288 #
face $-1 $717 $943 $19 $-1 $944 reversed single #
plane-surface $-1 0 -36.405260014082323 0 0 1 0 0 0 1 forward_v I I I I #
coedge $-1 $945 $883 $922 $946 forward $832 $-1 #
coedge $-1 $883 $945 $925 $947 reversed $832 $-1 #
edge $-1 $926 -36.405260014082323 $923 36.405260014082323 $883 $948 forward 7 unknown #
straight-curve $-1 -45.258037095367541 -36.405260014082323 -3.5978858619413709 0 0 -1 I I #
coedge $-1 $887 $904 $918 $946 reversed $631 $-1 #
vertex $-1 $946 $949 #
straight-curve $-1 -24.715491969847012 36.405260014082323 -8.8798637224198576 1 0 0 I I #
coedge $-1 $908 $889 $919 $947 forward $859 $-1 #
vertex $-1 $947 $950 #
straight-curve $-1 -24.715491969847012 -36.405260014082323 -8.8798637224198576 -1 0 0 I I #
point $-1 -45.258037095367541 36.405260014082323 -8.8798637224198576 #
point $-1 -45.258037095367541 -36.405260014082323 -8.8798637224198576 #
straight-curve $-1 -53.603930784020505 0 -5.5116797253456262 0 -1 0 I I #
point $-1 -53.603930784020505 -36.405260014082323 -5.5116797253456262 #
straight-curve $-1 -45.258037095367541 36.405260014082323 -3.5978858619413709 0 0 1 I I #
coedge $-1 $902 $901 $951 $952 reversed $855 $-1 #
coedge $-1 $951 $953 $904 $935 forward $943 $-1 #
edge $-1 $954 -53.603930784020505 $936 53.603930784020505 $904 $955 forward 7 unknown #
vertex $-1 $952 $956 #
straight-curve $-1 53.603930784020505 36.405260014082323 0 0 0 -1 I I #
coedge $-1 $953 $951 $908 $939 forward $943 $-1 #
edge $-1 $940 -53.603930784020505 $957 53.603930784020505 $908 $958 forward 7 unknown #
vertex $-1 $909 $959 #
straight-curve $-1 53.603930784020505 -36.405260014082323 0 0 0 -1 I I #
straight-curve $-1 -53.603930784020505 0 -12.348701527528288 0 1 0 I I #
loop $-1 $-1 $951 $916 #
plane-surface $-1 0 0 -12.348701527528288 0 0 1 1 0 0 forward_v I I I I #
coedge $-1 $919 $918 $953 $960 reversed $832 $-1 #
edge $-1 $923 8.8798637224198576 $954 12.348701527528288 $922 $854 forward 7 unknown #
edge $-1 $926 8.8798637224198576 $957 12.348701527528288 $919 $911 forward 7 unknown #
straight-curve $-1 -53.603930784020505 0 -8.8798637224198576 0 1 0 I I #
point $-1 -53.603930784020505 36.405260014082323 -8.8798637224198576 #
point $-1 -53.603930784020505 -36.405260014082323 -8.8798637224198576 #
coedge $-1 $938 $934 $933 $952 forward $943 $-1 #
edge $-1 $936 -36.405260014082323 $940 36.405260014082323 $933 $961 forward 7 unknown #
coedge $-1 $934 $938 $945 $960 forward $943 $-1 #
vertex $-1 $935 $962 #
straight-curve $-1 0 36.405260014082323 -12.348701527528288 1 0 0 I I #
point $-1 53.603930784020505 36.405260014082323 -12.348701527528288 #
vertex $-1 $960 $963 #
straight-curve $-1 0 -36.405260014082323 -12.348701527528288 -1 0 0 I I #
point $-1 53.603930784020505 -36.405260014082323 -12.348701527528288 #
edge $-1 $957 -36.405260014082323 $954 36.405260014082323 $945 $964 forward 7 unknown #
straight-curve $-1 53.603930784020505 0 -12.348701527528288 0 -1 0 I I #
point $-1 -53.603930784020505 36.405260014082323 -12.348701527528288 #
point $-1 -53.603930784020505 -36.405260014082323 -12.348701527528288 #
straight-curve $-1 -53.603930784020505 0 -12.348701527528288 0 1 0 I I #
End-of-ACIS-data 