500 0 5 0           
7 Unknown 11 ACIS 5.0 NT 24 Fri Mar 26 02:51:53 1999 
-1 9.9999999999999995e-007 1e-010 
body $-1 $5 $-1 $6 #
body $-1 $7 $-1 $8 #
body $-1 $9 $-1 $10 #
body $-1 $11 $-1 $12 #
body $-1 $13 $-1 $14 #
lump $-1 $-1 $15 $0 #
transform $-1 1 0 0 0 1 0 0 0 1 73.755912961210981 39.967795090238788 12.703042853718156 1 rotate no_reflect no_shear #
lump $-1 $-1 $16 $1 #
transform $-1 1 0 0 0 1 0 0 0 1 73.755912961210981 39.967795090238788 12.703042853718156 1 rotate no_reflect no_shear #
lump $-1 $-1 $17 $2 #
transform $-1 1 0 0 0 1 0 0 0 1 73.755912961210981 39.967795090238788 12.703042853718156 1 rotate no_reflect no_shear #
lump $-1 $-1 $18 $3 #
transform $-1 1 0 0 0 1 0 0 0 1 73.755912961210981 39.967795090238788 12.703042853718156 1 rotate no_reflect no_shear #
lump $-1 $-1 $19 $4 #
transform $-1 1 0 0 0 1 0 0 0 1 73.755912961210981 39.967795090238788 12.703042853718156 1 rotate no_reflect no_shear #
shell $-1 $-1 $-1 $20 $-1 $5 #
shell $-1 $-1 $-1 $21 $-1 $7 #
shell $-1 $-1 $-1 $22 $-1 $9 #
shell $-1 $-1 $-1 $23 $-1 $11 #
shell $-1 $-1 $-1 $24 $-1 $13 #
face $-1 $25 $26 $15 $-1 $27 forward single #
face $-1 $28 $29 $16 $-1 $30 reversed single #
face $-1 $31 $32 $17 $-1 $33 forward single #
face $-1 $34 $35 $18 $-1 $36 reversed single #
face $-1 $37 $38 $19 $-1 $39 reversed single #
face $-1 $40 $41 $15 $-1 $42 reversed single #
loop $-1 $-1 $43 $20 #
plane-surface $-1 0 0 12.703042853718156 0 0 1 1 0 0 forward_v I I I I #
face $-1 $44 $45 $16 $-1 $46 reversed single #
loop $-1 $-1 $47 $21 #
plane-surface $-1 -71.943092175412119 -51.167368642137475 0 0 1 0 0 0 1 forward_v I I I I #
face $-1 $48 $49 $17 $-1 $50 forward single #
loop $-1 $-1 $51 $22 #
plane-surface $-1 120.68368087650083 15.691364361913973 203.5048592270461 0 -1 0 -0.84804810408105047 0 -0.52991925155115449 forward_v I I I I #
face $-1 $52 $53 $18 $-1 $54 reversed single #
loop $-1 $55 $56 $23 #
cone-surface $-1 69.13249910350784 10.579368670871965 6.0151680613062002 -0.84804810408105047 0 -0.52991925155115449 0.26495962577557725 0 -0.42402405204052523 1 I I 0 1 0.5 forward I I I I #
face $-1 $57 $58 $19 $-1 $59 reversed single #
loop $-1 $60 $61 $24 #
cone-surface $-1 69.13249910350784 13.646566085497163 6.0151680613062002 -0.84804810408105047 0 -0.52991925155115449 0.26495962577557725 0 -0.42402405204052523 1 I I 0 1 0.5 forward I I I I #
face $-1 $62 $63 $15 $-1 $64 reversed single #
loop $-1 $-1 $65 $25 #
plane-surface $-1 0 0 -12.703042853718156 0 0 1 1 0 0 forward_v I I I I #
coedge $-1 $66 $67 $68 $69 forward $26 $-1 #
face $-1 $70 $71 $16 $-1 $72 reversed single #
loop $-1 $-1 $73 $28 #
plane-surface $-1 -70.130271389613256 -45.567581866188135 0 -1 0 0 0 0 1 forward_v I I I I #
coedge $-1 $74 $75 $76 $77 forward $29 $-1 #
face $-1 $78 $79 $17 $-1 $80 forward single #
loop $-1 $-1 $81 $31 #
plane-surface $-1 -4.4134434265430684 12.112967378184571 125.33550283929206 0.84804810408105047 0 0.52991925155115449 0.52991925155115449 0 -0.84804810408105047 forward_v I I I I #
coedge $-1 $82 $83 $84 $85 reversed $32 $-1 #
face $-1 $86 $87 $18 $-1 $88 forward single #
loop $-1 $89 $90 $34 #
cone-surface $-1 68.191466447104716 10.579368670871965 5.4271456147414519 -0.84804810408105047 0 -0.52991925155115449 0.13247981288778862 0 -0.21201202602026262 1 I I -0.70710678118654746 0.70710678118654746 0.25 forward I I I I #
loop $-1 $-1 $91 $23 #
coedge $-1 $56 $56 $92 $93 reversed $35 $-1 #
face $-1 $94 $95 $19 $-1 $96 reversed single #
loop $-1 $97 $98 $37 #
cone-surface $-1 68.191466447104716 13.646566085497163 5.4271456147414519 -0.84804810408105047 0 -0.52991925155115449 0.13247981288778862 0 -0.21201202602026262 1 I I -0.70710678118654746 0.70710678118654746 0.25 forward I I I I #
loop $-1 $-1 $99 $24 #
coedge $-1 $61 $61 $100 $101 reversed $38 $-1 #
face $-1 $102 $103 $15 $-1 $104 reversed single #
loop $-1 $-1 $105 $40 #
plane-surface $-1 0 -39.967795090238788 0 0 1 0 0 0 1 forward_v I I I I #
coedge $-1 $106 $107 $108 $109 forward $41 $-1 #
coedge $-1 $110 $43 $111 $112 forward $26 $-1 #
coedge $-1 $43 $110 $113 $114 forward $26 $-1 #
coedge $-1 $115 $116 $43 $69 reversed $117 $-1 #
edge $-1 $118 -39.967795090238788 $119 39.967795090238788 $68 $120 forward 7 unknown #
face $-1 $121 $122 $16 $-1 $123 forward single #
loop $-1 $-1 $124 $44 #
plane-surface $-1 0 -39.967795090238788 0 0 1 0 0 0 1 forward_v I I I I #
coedge $-1 $125 $126 $127 $128 forward $45 $-1 #
coedge $-1 $127 $47 $129 $130 reversed $29 $-1 #
coedge $-1 $47 $127 $131 $132 reversed $29 $-1 #
coedge $-1 $133 $134 $47 $77 reversed $135 $-1 #
edge $-1 $136 -12.703042853718156 $137 12.703042853718156 $76 $138 forward 7 unknown #
face $-1 $139 $140 $17 $-1 $141 forward single #
loop $-1 $-1 $142 $48 #
plane-surface $-1 120.68368087650083 8.5345703944551694 203.5048592270461 0 1 0 0.84804810408105047 0 0.52991925155115449 forward_v I I I I #
coedge $-1 $143 $144 $145 $146 reversed $49 $-1 #
coedge $-1 $83 $51 $144 $147 forward $32 $-1 #
coedge $-1 $51 $82 $148 $149 reversed $32 $-1 #
coedge $-1 $150 $145 $51 $85 forward $140 $-1 #
edge $-1 $151 5.6252860683200083 $152 13.414072522960566 $84 $153 forward 7 unknown #
face $-1 $154 $155 $18 $-1 $156 forward single #
loop $-1 $-1 $157 $52 #
plane-surface $-1 120.68368087650083 15.691364361913973 203.5048592270461 0 -1 0 -0.84804810408105047 0 -0.52991925155115449 forward_v I I I I #
loop $-1 $-1 $158 $34 #
coedge $-1 $90 $90 $91 $159 forward $53 $-1 #
coedge $-1 $91 $91 $90 $159 reversed $55 $-1 #
coedge $-1 $92 $92 $56 $93 forward $155 $-1 #
edge $-1 $160 0 $160 6.2831853071796004 $92 $161 forward 7 unknown #
face $-1 $162 $163 $19 $-1 $164 reversed single #
loop $-1 $165 $166 $57 #
cone-surface $-1 69.13249910350784 10.579368670871965 6.0151680613062002 -0.84804810408105047 0 -0.52991925155115449 0.26495962577557725 0 -0.42402405204052523 1 I I 0 1 0.5 forward I I I I #
loop $-1 $-1 $167 $37 #
coedge $-1 $98 $98 $99 $168 forward $58 $-1 #
coedge $-1 $99 $99 $98 $168 reversed $60 $-1 #
coedge $-1 $100 $100 $61 $101 forward $169 $-1 #
edge $-1 $170 0 $170 6.2831853071796004 $100 $171 forward 7 unknown #
face $-1 $172 $173 $15 $-1 $174 reversed single #
loop $-1 $-1 $175 $62 #
plane-surface $-1 -73.755912961210981 0 0 1 0 0 0 0 -1 forward_v I I I I #
coedge $-1 $176 $113 $177 $178 forward $63 $-1 #
coedge $-1 $179 $65 $176 $180 forward $41 $-1 #
coedge $-1 $65 $179 $181 $182 forward $41 $-1 #
coedge $-1 $116 $115 $65 $109 reversed $117 $-1 #
edge $-1 $183 -39.967795090238788 $184 39.967795090238788 $108 $185 forward 7 unknown #
coedge $-1 $67 $66 $186 $187 forward $26 $-1 #
coedge $-1 $188 $189 $66 $112 reversed $173 $-1 #
edge $-1 $119 -73.755912961210981 $190 73.755912961210981 $111 $191 forward 7 unknown #
coedge $-1 $105 $192 $67 $114 reversed $63 $-1 #
edge $-1 $193 -73.755912961210981 $118 73.755912961210981 $113 $194 forward 7 unknown #
coedge $-1 $108 $68 $192 $195 forward $117 $-1 #
coedge $-1 $68 $108 $188 $196 reversed $117 $-1 #
loop $-1 $-1 $115 $172 #
vertex $-1 $69 $197 #
vertex $-1 $69 $198 #
straight-curve $-1 73.755912961210981 0 12.703042853718156 0 1 0 I I #
face $-1 $199 $200 $16 $-1 $201 reversed single #
loop $-1 $-1 $202 $70 #
plane-surface $-1 0 0 12.703042853718156 0 0 1 1 0 0 forward_v I I I I #
coedge $-1 $203 $204 $205 $206 forward $71 $-1 #
coedge $-1 $205 $73 $207 $208 reversed $45 $-1 #
coedge $-1 $73 $205 $209 $210 reversed $45 $-1 #
coedge $-1 $75 $74 $73 $128 reversed $29 $-1 #
edge $-1 $211 -12.703042853718156 $212 12.703042853718156 $73 $213 forward 7 unknown #
coedge $-1 $214 $207 $74 $130 forward $200 $-1 #
edge $-1 $212 -1.8128207857988627 $137 1.8128207857988627 $74 $215 forward 7 unknown #
coedge $-1 $209 $216 $75 $132 forward $122 $-1 #
edge $-1 $136 -1.8128207857988627 $211 1.8128207857988627 $75 $217 forward 7 unknown #
coedge $-1 $218 $76 $216 $219 reversed $135 $-1 #
coedge $-1 $76 $218 $214 $220 reversed $135 $-1 #
loop $-1 $-1 $218 $199 #
vertex $-1 $219 $221 #
vertex $-1 $220 $222 #
straight-curve $-1 -73.755912961210981 -51.167368642137475 0 0 0 -1 I I #
face $-1 $223 $224 $17 $-1 $225 reversed single #
loop $-1 $-1 $226 $78 #
plane-surface $-1 0 0 12.703042853718156 0 0 1 1 0 0 forward_v I I I I #
coedge $-1 $227 $228 $226 $229 reversed $79 $-1 #
coedge $-1 $230 $81 $228 $231 reversed $49 $-1 #
coedge $-1 $81 $230 $82 $147 reversed $49 $-1 #
coedge $-1 $84 $226 $81 $146 forward $140 $-1 #
edge $-1 $232 2.4780867053628839 $151 9.6348806728216871 $145 $233 forward 7 unknown #
edge $-1 $151 132.81376309144991 $234 147.51182592242199 $82 $235 forward 7 unknown #
coedge $-1 $236 $237 $83 $149 forward $238 $-1 #
edge $-1 $152 89.049386759804889 $234 101.51405107727491 $148 $239 forward 7 unknown #
coedge $-1 $240 $84 $237 $241 forward $140 $-1 #
vertex $-1 $146 $242 #
vertex $-1 $241 $243 #
straight-curve $-1 60.341840438250415 15.691364361913973 12.703042853718159 1 0 0 I I #
face $-1 $244 $245 $18 $-1 $246 forward single #
loop $-1 $247 $92 $86 #
plane-surface $-1 -4.4134434265430684 12.112967378184571 125.33550283929206 0.84804810408105047 0 0.52991925155115449 0.52991925155115449 0 -0.84804810408105047 forward_v I I I I #
coedge $-1 $248 $249 $250 $251 reversed $87 $-1 #
coedge $-1 $158 $158 $-1 $252 forward $89 $-1 #
edge $-1 $253 0 $253 6.2831853071796004 $90 $254 forward 7 unknown #
vertex $-1 $93 $255 #
ellipse-curve $-1 69.861519733890688 10.579368670871965 6.4707106949831577 -0.84804810408105047 0 -0.52991925155115449 0.26495962577557725 0 -0.42402405204052523 1 I I #
face $-1 $256 $257 $19 $-1 $258 forward single #
loop $-1 $259 $260 $94 #
cone-surface $-1 68.191466447104716 10.579368670871965 5.4271456147414519 -0.84804810408105047 0 -0.52991925155115449 0.13247981288778862 0 -0.21201202602026262 1 I I -0.70710678118654746 0.70710678118654746 0.25 forward I I I I #
loop $-1 $-1 $261 $57 #
coedge $-1 $166 $166 $262 $263 reversed $95 $-1 #
coedge $-1 $167 $167 $-1 $264 forward $97 $-1 #
edge $-1 $265 0 $265 6.2831853071796004 $98 $266 forward 7 unknown #
loop $-1 $267 $100 $256 #
vertex $-1 $101 $268 #
ellipse-curve $-1 69.861519733890688 13.646566085497163 6.4707106949831577 -0.84804810408105047 0 -0.52991925155115449 0.26495962577557725 0 -0.42402405204052523 1 I I #
face $-1 $-1 $117 $15 $-1 $269 reversed single #
loop $-1 $-1 $188 $102 #
plane-surface $-1 0 39.967795090238788 0 0 -1 0 0 0 -1 forward_v I I I I #
coedge $-1 $270 $186 $189 $271 forward $103 $-1 #
coedge $-1 $192 $105 $106 $180 reversed $63 $-1 #
coedge $-1 $186 $270 $105 $178 reversed $103 $-1 #
edge $-1 $193 -12.703042853718156 $272 12.703042853718156 $177 $273 forward 7 unknown #
coedge $-1 $107 $106 $270 $274 forward $41 $-1 #
edge $-1 $184 -73.755912961210981 $272 73.755912961210981 $176 $275 forward 7 unknown #
coedge $-1 $189 $188 $107 $182 reversed $173 $-1 #
edge $-1 $276 -73.755912961210981 $183 73.755912961210981 $181 $277 forward 7 unknown #
vertex $-1 $109 $278 #
vertex $-1 $195 $279 #
straight-curve $-1 73.755912961210981 0 -12.703042853718156 0 -1 0 I I #
coedge $-1 $175 $177 $110 $187 reversed $103 $-1 #
edge $-1 $190 -39.967795090238788 $193 39.967795090238788 $186 $280 forward 7 unknown #
coedge $-1 $181 $111 $116 $196 forward $173 $-1 #
coedge $-1 $111 $181 $175 $271 reversed $173 $-1 #
vertex $-1 $112 $281 #
straight-curve $-1 0 39.967795090238788 12.703042853718156 -1 0 0 I I #
coedge $-1 $113 $176 $115 $195 reversed $63 $-1 #
vertex $-1 $187 $282 #
straight-curve $-1 0 -39.967795090238788 12.703042853718156 1 0 0 I I #
edge $-1 $118 -12.703042853718156 $184 12.703042853718156 $115 $283 forward 7 unknown #
edge $-1 $119 -12.703042853718156 $183 12.703042853718156 $116 $284 forward 7 unknown #
point $-1 73.755912961210981 -39.967795090238788 12.703042853718156 #
point $-1 73.755912961210981 39.967795090238788 12.703042853718156 #
face $-1 $285 $135 $16 $-1 $286 reversed single #
loop $-1 $-1 $287 $121 #
plane-surface $-1 0 0 -12.703042853718156 0 0 1 1 0 0 forward_v I I I I #
coedge $-1 $288 $289 $290 $291 forward $122 $-1 #
coedge $-1 $292 $124 $293 $294 reversed $71 $-1 #
coedge $-1 $124 $292 $289 $295 reversed $71 $-1 #
coedge $-1 $126 $125 $124 $206 reversed $45 $-1 #
edge $-1 $296 -12.703042853718156 $297 12.703042853718156 $124 $298 forward 7 unknown #
coedge $-1 $129 $293 $125 $208 forward $200 $-1 #
edge $-1 $297 -5.5997867759493403 $212 5.5997867759493403 $125 $299 forward 7 unknown #
coedge $-1 $289 $131 $126 $210 forward $122 $-1 #
edge $-1 $211 -5.5997867759493403 $296 5.5997867759493403 $126 $300 forward 7 unknown #
vertex $-1 $210 $301 #
vertex $-1 $128 $302 #
straight-curve $-1 -70.130271389613256 -51.167368642137475 0 0 0 -1 I I #
coedge $-1 $303 $129 $134 $220 forward $200 $-1 #
straight-curve $-1 -71.943092175412119 -51.167368642137475 -12.703042853718156 -1 0 0 I I #
coedge $-1 $131 $288 $133 $219 forward $122 $-1 #
straight-curve $-1 -71.943092175412119 -51.167368642137475 12.703042853718156 1 0 0 I I #
coedge $-1 $134 $133 $304 $305 forward $135 $-1 #
edge $-1 $306 -39.967795090238788 $136 51.167368642137475 $133 $307 forward 7 unknown #
edge $-1 $137 -51.167368642137475 $308 39.967795090238788 $134 $309 forward 7 unknown #
point $-1 -73.755912961210981 -51.167368642137475 12.703042853718156 #
point $-1 -73.755912961210981 -51.167368642137475 -12.703042853718156 #
face $-1 $310 $311 $17 $-1 $312 reversed single #
loop $-1 $-1 $313 $139 #
plane-surface $-1 -71.943092175412119 -51.167368642137475 0 0 1 0 0 0 1 forward_v I I I I #
coedge $-1 $145 $314 $142 $229 forward $140 $-1 #
coedge $-1 $228 $142 $315 $316 reversed $79 $-1 #
coedge $-1 $142 $227 $143 $231 forward $79 $-1 #
edge $-1 $317 -13.414072522960566 $232 -5.6252860683200083 $226 $318 forward 7 unknown #
coedge $-1 $144 $143 $236 $319 reversed $49 $-1 #
edge $-1 $320 -147.51182592242199 $232 -132.81376309144991 $228 $321 forward 7 unknown #
vertex $-1 $146 $322 #
straight-curve $-1 65.967126506570409 6.0564836890922855 12.703042853718159 0 1 0 I I #
vertex $-1 $319 $323 #
straight-curve $-1 -4.4134434265430684 15.691364361913973 125.33550283929206 0.52991925155115449 0 -0.84804810408105047 I I #
coedge $-1 $315 $148 $230 $319 forward $238 $-1 #
coedge $-1 $148 $324 $150 $241 reversed $238 $-1 #
loop $-1 $-1 $315 $325 #
straight-curve $-1 73.755912961210981 15.691364361913973 101.75242961352305 0 0 -1 I I #
coedge $-1 $326 $150 $327 $328 forward $140 $-1 #
edge $-1 $152 15.691364361913973 $329 39.967795090238788 $237 $330 forward 7 unknown #
point $-1 65.967126506570423 15.691364361913973 12.703042853718159 #
point $-1 73.755912961210981 15.691364361913973 12.703042853718156 #
face $-1 $331 $332 $18 $-1 $333 forward single #
loop $-1 $-1 $334 $154 #
plane-surface $-1 120.68368087650083 8.5345703944551694 203.5048592270461 0 1 0 0.84804810408105047 0 0.52991925155115449 forward_v I I I I #
loop $-1 $-1 $335 $86 #
coedge $-1 $249 $157 $336 $337 forward $87 $-1 #
coedge $-1 $157 $248 $338 $339 reversed $87 $-1 #
coedge $-1 $340 $341 $157 $251 forward $332 $-1 #
edge $-1 $342 5.6252860683200083 $343 13.414072522960566 $250 $344 forward 7 unknown #
edge $-1 $345 1 $345 0 $158 $-1 forward 7 unknown #
vertex $-1 $159 $346 #
ellipse-curve $-1 68.403478473124977 10.579368670871965 5.5596254276292401 0.84804810408105047 0 0.52991925155115449 0.26495962577557725 0 -0.42402405204052523 1 I I #
point $-1 70.126479359666263 10.579368670871965 6.0466866429426336 #
face $-1 $347 $169 $19 $-1 $348 forward single #
loop $-1 $-1 $349 $162 #
plane-surface $-1 120.68368087650083 15.691364361913973 203.5048592270461 0 -1 0 -0.84804810408105047 0 -0.52991925155115449 forward_v I I I I #
loop $-1 $-1 $350 $94 #
coedge $-1 $260 $260 $261 $351 forward $163 $-1 #
coedge $-1 $261 $261 $260 $351 reversed $165 $-1 #
coedge $-1 $262 $262 $166 $263 forward $267 $-1 #
edge $-1 $352 0 $352 6.2831853071796004 $262 $353 forward 7 unknown #
edge $-1 $354 1 $354 0 $167 $-1 forward 7 unknown #
vertex $-1 $168 $355 #
ellipse-curve $-1 68.403478473124977 13.646566085497163 5.5596254276292401 0.84804810408105047 0 0.52991925155115449 0.26495962577557725 0 -0.42402405204052523 1 I I #
loop $-1 $356 $262 $256 #
point $-1 70.126479359666263 13.646566085497163 6.0466866429426336 #
plane-surface $-1 73.755912961210981 0 0 -1 0 0 0 0 1 forward_v I I I I #
coedge $-1 $177 $175 $179 $274 reversed $103 $-1 #
edge $-1 $190 -12.703042853718156 $276 12.703042853718156 $189 $357 forward 7 unknown #
vertex $-1 $274 $358 #
straight-curve $-1 -73.755912961210981 -39.967795090238788 0 0 0 -1 I I #
edge $-1 $272 -39.967795090238788 $276 39.967795090238788 $270 $359 forward 7 unknown #
straight-curve $-1 0 -39.967795090238788 -12.703042853718156 -1 0 0 I I #
vertex $-1 $182 $360 #
straight-curve $-1 0 39.967795090238788 -12.703042853718156 1 0 0 I I #
point $-1 73.755912961210981 39.967795090238788 -12.703042853718156 #
point $-1 73.755912961210981 -39.967795090238788 -12.703042853718156 #
straight-curve $-1 -73.755912961210981 0 12.703042853718156 0 -1 0 I I #
point $-1 -73.755912961210981 39.967795090238788 12.703042853718156 #
point $-1 -73.755912961210981 -39.967795090238788 12.703042853718156 #
straight-curve $-1 73.755912961210981 -39.967795090238788 0 0 0 -1 I I #
straight-curve $-1 73.755912961210981 39.967795090238788 0 0 0 -1 I I #
face $-1 $361 $362 $16 $-1 $363 reversed single #
plane-surface $-1 -73.755912961210981 0 0 1 0 0 0 0 -1 forward_v I I I I #
coedge $-1 $293 $303 $364 $365 forward $200 $-1 #
coedge $-1 $216 $202 $366 $367 forward $122 $-1 #
coedge $-1 $202 $209 $204 $295 forward $122 $-1 #
coedge $-1 $368 $369 $202 $291 reversed $370 $-1 #
edge $-1 $371 -39.967795090238788 $372 39.967795090238788 $290 $373 forward 7 unknown #
coedge $-1 $204 $203 $368 $374 reversed $71 $-1 #
coedge $-1 $207 $287 $203 $294 forward $200 $-1 #
edge $-1 $375 -73.755912961210981 $297 70.130271389613256 $203 $376 forward 7 unknown #
edge $-1 $296 -70.130271389613256 $371 73.755912961210981 $204 $377 forward 7 unknown #
vertex $-1 $295 $378 #
vertex $-1 $208 $379 #
straight-curve $-1 -70.130271389613256 -39.967795090238788 0 0 0 -1 I I #
straight-curve $-1 -70.130271389613256 -45.567581866188135 -12.703042853718156 0 -1 0 I I #
straight-curve $-1 -70.130271389613256 -45.567581866188135 12.703042853718156 0 1 0 I I #
point $-1 -70.130271389613256 -51.167368642137475 12.703042853718156 #
point $-1 -70.130271389613256 -51.167368642137475 -12.703042853718156 #
coedge $-1 $287 $214 $380 $381 forward $200 $-1 #
coedge $-1 $366 $380 $218 $305 reversed $362 $-1 #
edge $-1 $306 -12.703042853718156 $308 12.703042853718156 $304 $382 forward 7 unknown #
vertex $-1 $367 $383 #
straight-curve $-1 -73.755912961210981 0 12.703042853718156 0 -1 0 I I #
vertex $-1 $381 $384 #
straight-curve $-1 -73.755912961210981 0 -12.703042853718156 0 1 0 I I #
face $-1 $385 $386 $17 $-1 $387 reversed single #
loop $-1 $-1 $388 $223 #
plane-surface $-1 -70.130271389613256 -45.567581866188135 0 -1 0 0 0 0 1 forward_v I I I I #
coedge $-1 $389 $390 $391 $392 forward $224 $-1 #
coedge $-1 $226 $393 $394 $395 forward $140 $-1 #
coedge $-1 $394 $236 $227 $316 forward $238 $-1 #
edge $-1 $320 -101.51405107727491 $317 -89.049386759804889 $315 $396 forward 7 unknown #
vertex $-1 $316 $397 #
straight-curve $-1 60.341840438250415 8.5345703944551694 12.703042853718159 -1 0 0 I I #
edge $-1 $234 -9.6348806728216871 $320 -2.4780867053628839 $236 $398 forward 7 unknown #
vertex $-1 $319 $399 #
straight-curve $-1 -4.4134434265430684 8.5345703944551694 125.33550283929206 -0.52991925155115449 0 0.84804810408105047 I I #
point $-1 65.967126506570423 8.5345703944551694 12.703042853718159 #
point $-1 73.755912961210981 15.691364361913973 0.23837853624813476 #
coedge $-1 $237 $400 $401 $402 reversed $238 $-1 #
face $-1 $-1 $238 $17 $-1 $403 reversed single #
coedge $-1 $404 $240 $405 $406 forward $140 $-1 #
coedge $-1 $401 $407 $240 $328 reversed $408 $-1 #
edge $-1 $329 -73.755912961210981 $409 73.755912961210981 $327 $410 forward 7 unknown #
vertex $-1 $241 $411 #
straight-curve $-1 73.755912961210981 0 12.703042853718156 0 1 0 I I #
face $-1 $412 $413 $18 $-1 $414 reversed single #
loop $-1 $-1 $415 $244 #
plane-surface $-1 0 0 12.703042853718156 0 0 1 1 0 0 forward_v I I I I #
coedge $-1 $416 $417 $415 $418 reversed $245 $-1 #
coedge $-1 $419 $336 $341 $420 reversed $247 $-1 #
coedge $-1 $335 $421 $248 $337 reversed $247 $-1 #
edge $-1 $342 132.81376309144991 $422 147.51182592242199 $248 $423 forward 7 unknown #
coedge $-1 $424 $425 $249 $339 forward $426 $-1 #
edge $-1 $343 89.049386759804889 $422 101.51405107727491 $338 $427 forward 7 unknown #
coedge $-1 $428 $250 $425 $429 forward $332 $-1 #
coedge $-1 $250 $415 $335 $420 forward $332 $-1 #
vertex $-1 $420 $430 #
vertex $-1 $429 $431 #
straight-curve $-1 60.341840438250415 15.691364361913973 12.703042853718159 1 0 0 I I #
vertex $-1 $252 $432 #
point $-1 68.668438098900552 10.579368670871965 5.1356013755887151 #
face $-1 $433 $434 $19 $-1 $435 forward single #
plane-surface $-1 -4.4134434265430684 12.112967378184571 125.33550283929206 0.84804810408105047 0 0.52991925155115449 0.52991925155115449 0 -0.84804810408105047 forward_v I I I I #
coedge $-1 $436 $437 $438 $439 reversed $257 $-1 #
coedge $-1 $350 $350 $-1 $440 forward $259 $-1 #
edge $-1 $441 0 $441 6.2831853071796004 $260 $442 forward 7 unknown #
vertex $-1 $263 $443 #
ellipse-curve $-1 69.861519733890688 10.579368670871965 6.4707106949831577 -0.84804810408105047 0 -0.52991925155115449 0.26495962577557725 0 -0.42402405204052523 1 I I #
vertex $-1 $264 $444 #
point $-1 68.668438098900552 13.646566085497163 5.1356013755887151 #
loop $-1 $-1 $445 $256 #
straight-curve $-1 -73.755912961210981 39.967795090238788 0 0 0 -1 I I #
point $-1 -73.755912961210981 -39.967795090238788 -12.703042853718156 #
straight-curve $-1 -73.755912961210981 0 -12.703042853718156 0 1 0 I I #
point $-1 -73.755912961210981 39.967795090238788 -12.703042853718156 #
face $-1 $-1 $370 $16 $-1 $446 reversed single #
loop $-1 $-1 $447 $285 #
plane-surface $-1 0 39.967795090238788 0 0 -1 0 0 0 -1 forward_v I I I I #
coedge $-1 $369 $368 $287 $365 reversed $370 $-1 #
edge $-1 $448 -39.967795090238788 $375 39.967795090238788 $364 $449 forward 7 unknown #
coedge $-1 $447 $304 $288 $367 reversed $362 $-1 #
edge $-1 $372 -73.755912961210981 $306 73.755912961210981 $366 $450 forward 7 unknown #
coedge $-1 $364 $290 $292 $374 forward $370 $-1 #
coedge $-1 $290 $364 $447 $451 reversed $370 $-1 #
loop $-1 $-1 $368 $361 #
vertex $-1 $291 $452 #
vertex $-1 $291 $453 #
straight-curve $-1 73.755912961210981 0 12.703042853718156 0 1 0 I I #
edge $-1 $371 -12.703042853718156 $375 12.703042853718156 $368 $454 forward 7 unknown #
vertex $-1 $374 $455 #
straight-curve $-1 0 -39.967795090238788 -12.703042853718156 -1 0 0 I I #
straight-curve $-1 0 -39.967795090238788 12.703042853718156 1 0 0 I I #
point $-1 -70.130271389613256 -39.967795090238795 12.703042853718156 #
point $-1 -70.130271389613256 -39.967795090238795 -12.703042853718156 #
coedge $-1 $304 $447 $303 $381 reversed $362 $-1 #
edge $-1 $308 -73.755912961210981 $448 73.755912961210981 $380 $456 forward 7 unknown #
straight-curve $-1 -73.755912961210981 39.967795090238788 0 0 0 -1 I I #
point $-1 -73.755912961210981 39.967795090238788 12.703042853718156 #
point $-1 -73.755912961210981 39.967795090238788 -12.703042853718156 #
face $-1 $457 $458 $17 $-1 $459 reversed single #
loop $-1 $-1 $460 $310 #
plane-surface $-1 0 -39.967795090238788 0 0 1 0 0 0 1 forward_v I I I I #
coedge $-1 $461 $462 $463 $464 forward $311 $-1 #
coedge $-1 $463 $313 $465 $466 reversed $224 $-1 #
coedge $-1 $313 $463 $404 $467 reversed $224 $-1 #
coedge $-1 $405 $468 $313 $392 reversed $469 $-1 #
edge $-1 $470 -12.703042853718156 $471 12.703042853718156 $391 $472 forward 7 unknown #
coedge $-1 $314 $473 $474 $475 forward $140 $-1 #
coedge $-1 $476 $315 $314 $395 reversed $238 $-1 #
edge $-1 $477 -39.967795090238788 $317 8.5345703944551694 $394 $330 forward 7 unknown #
straight-curve $-1 73.755912961210981 8.5345703944551694 101.75242961352305 0 0 1 I I #
point $-1 73.755912961210981 8.5345703944551694 12.703042853718156 #
straight-curve $-1 73.755912961210981 6.0564836890922855 0.23837853624813476 0 -1 0 I I #
point $-1 73.755912961210981 8.5345703944551694 0.23837853624813476 #
coedge $-1 $324 $476 $478 $479 reversed $238 $-1 #
coedge $-1 $480 $327 $324 $402 forward $408 $-1 #
edge $-1 $329 -12.703042853718156 $481 12.703042853718156 $324 $482 forward 7 unknown #
plane-surface $-1 73.755912961210981 0 0 -1 0 0 0 0 1 forward_v I I I I #
coedge $-1 $473 $326 $390 $467 forward $140 $-1 #
coedge $-1 $483 $391 $326 $406 reversed $469 $-1 #
edge $-1 $409 -39.967795090238788 $470 51.167368642137475 $405 $484 forward 7 unknown #
coedge $-1 $327 $480 $483 $485 reversed $408 $-1 #
loop $-1 $-1 $401 $486 #
vertex $-1 $328 $487 #
straight-curve $-1 0 39.967795090238788 12.703042853718156 -1 0 0 I I #
point $-1 73.755912961210981 39.967795090238788 12.703042853718156 #
face $-1 $488 $489 $18 $-1 $490 reversed single #
loop $-1 $-1 $491 $331 #
plane-surface $-1 -71.943092175412119 -51.167368642137475 0 0 1 0 0 0 1 forward_v I I I I #
coedge $-1 $341 $492 $334 $418 forward $332 $-1 #
coedge $-1 $417 $334 $493 $494 reversed $245 $-1 #
coedge $-1 $334 $416 $419 $495 forward $245 $-1 #
edge $-1 $496 -13.414072522960566 $497 -5.6252860683200083 $415 $498 forward 7 unknown #
coedge $-1 $421 $335 $417 $495 reversed $247 $-1 #
edge $-1 $497 2.4780867053628839 $342 9.6348806728216871 $341 $499 forward 7 unknown #
coedge $-1 $336 $419 $424 $500 reversed $247 $-1 #
vertex $-1 $500 $501 #
straight-curve $-1 -4.4134434265430684 15.691364361913973 125.33550283929206 0.52991925155115449 0 -0.84804810408105047 I I #
coedge $-1 $493 $338 $421 $500 forward $426 $-1 #
coedge $-1 $338 $502 $340 $429 reversed $426 $-1 #
loop $-1 $-1 $493 $503 #
straight-curve $-1 73.755912961210981 15.691364361913973 101.75242961352305 0 0 -1 I I #
coedge $-1 $504 $340 $505 $506 forward $332 $-1 #
edge $-1 $343 15.691364361913973 $507 39.967795090238788 $425 $508 forward 7 unknown #
point $-1 65.967126506570423 15.691364361913973 12.703042853718159 #
point $-1 73.755912961210981 15.691364361913973 12.703042853718156 #
point $-1 67.979454421084455 10.579368670871965 5.2946658018536636 #
face $-1 $509 $510 $19 $-1 $511 forward single #
loop $-1 $-1 $512 $347 #
plane-surface $-1 120.68368087650083 8.5345703944551694 203.5048592270461 0 1 0 0.84804810408105047 0 0.52991925155115449 forward_v I I I I #
coedge $-1 $437 $349 $513 $514 forward $257 $-1 #
coedge $-1 $349 $436 $515 $516 reversed $257 $-1 #
coedge $-1 $517 $518 $349 $439 forward $510 $-1 #
edge $-1 $519 5.6252860683200083 $520 13.414072522960566 $438 $521 forward 7 unknown #
edge $-1 $522 1 $522 0 $350 $-1 forward 7 unknown #
vertex $-1 $351 $523 #
ellipse-curve $-1 68.403478473124977 10.579368670871965 5.5596254276292401 0.84804810408105047 0 0.52991925155115449 0.26495962577557725 0 -0.42402405204052523 1 I I #
point $-1 70.126479359666263 10.579368670871965 6.0466866429426336 #
point $-1 67.979454421084455 13.646566085497163 5.2946658018536636 #
coedge $-1 $524 $513 $518 $525 reversed $356 $-1 #
plane-surface $-1 73.755912961210981 0 0 -1 0 0 0 0 1 forward_v I I I I #
coedge $-1 $380 $366 $369 $451 forward $362 $-1 #
vertex $-1 $365 $526 #
straight-curve $-1 73.755912961210981 0 -12.703042853718156 0 -1 0 I I #
straight-curve $-1 0 39.967795090238788 12.703042853718156 -1 0 0 I I #
edge $-1 $372 -12.703042853718156 $448 12.703042853718156 $369 $527 forward 7 unknown #
point $-1 73.755912961210981 -39.967795090238788 12.703042853718156 #
point $-1 73.755912961210981 39.967795090238788 12.703042853718156 #
straight-curve $-1 73.755912961210981 -39.967795090238788 0 0 0 -1 I I #
point $-1 73.755912961210981 -39.967795090238788 -12.703042853718156 #
straight-curve $-1 0 39.967795090238788 -12.703042853718156 1 0 0 I I #
face $-1 $486 $469 $17 $-1 $528 reversed single #
loop $-1 $-1 $478 $385 #
plane-surface $-1 0 0 -12.703042853718156 0 0 1 1 0 0 forward_v I I I I #
coedge $-1 $529 $474 $530 $531 forward $386 $-1 #
coedge $-1 $530 $388 $532 $533 reversed $311 $-1 #
coedge $-1 $388 $530 $473 $534 reversed $311 $-1 #
coedge $-1 $390 $389 $388 $464 reversed $224 $-1 #
edge $-1 $535 -12.703042853718156 $536 12.703042853718156 $388 $537 forward 7 unknown #
coedge $-1 $538 $532 $389 $466 forward $458 $-1 #
edge $-1 $536 -1.8128207857988627 $471 1.8128207857988627 $389 $539 forward 7 unknown #
edge $-1 $470 -1.8128207857988627 $535 1.8128207857988627 $390 $540 forward 7 unknown #
coedge $-1 $391 $483 $538 $541 reversed $469 $-1 #
loop $-1 $-1 $483 $457 #
vertex $-1 $406 $542 #
vertex $-1 $541 $543 #
straight-curve $-1 -73.755912961210981 -51.167368642137475 0 0 0 -1 I I #
coedge $-1 $393 $404 $462 $534 forward $140 $-1 #
coedge $-1 $460 $544 $393 $475 reversed $386 $-1 #
edge $-1 $545 -70.130271389613256 $477 73.755912961210981 $474 $546 forward 7 unknown #
coedge $-1 $400 $394 $544 $547 forward $238 $-1 #
vertex $-1 $395 $548 #
coedge $-1 $549 $550 $400 $479 forward $458 $-1 #
edge $-1 $481 -39.967795090238788 $551 39.967795090238788 $400 $552 forward 7 unknown #
coedge $-1 $407 $401 $550 $553 reversed $408 $-1 #
vertex $-1 $479 $554 #
straight-curve $-1 73.755912961210981 39.967795090238788 0 0 0 -1 I I #
coedge $-1 $468 $405 $407 $485 forward $469 $-1 #
straight-curve $-1 -73.755912961210981 0 12.703042853718156 0 -1 0 I I #
edge $-1 $409 -12.703042853718156 $555 12.703042853718156 $407 $556 forward 7 unknown #
face $-1 $325 $408 $17 $-1 $557 reversed single #
point $-1 -73.755912961210981 39.967795090238788 12.703042853718156 #
face $-1 $558 $559 $18 $-1 $560 reversed single #
loop $-1 $-1 $561 $412 #
plane-surface $-1 -70.130271389613256 -45.567581866188135 0 -1 0 0 0 0 1 forward_v I I I I #
coedge $-1 $562 $563 $564 $565 forward $413 $-1 #
coedge $-1 $415 $566 $567 $568 forward $332 $-1 #
coedge $-1 $567 $424 $416 $494 forward $426 $-1 #
edge $-1 $569 -101.51405107727491 $496 -89.049386759804889 $493 $570 forward 7 unknown #
edge $-1 $569 -147.51182592242199 $497 -132.81376309144991 $417 $571 forward 7 unknown #
vertex $-1 $494 $572 #
vertex $-1 $420 $573 #
straight-curve $-1 60.341840438250415 8.5345703944551694 12.703042853718159 -1 0 0 I I #
straight-curve $-1 65.967126506570409 6.0564836890922855 12.703042853718159 0 1 0 I I #
edge $-1 $422 -9.6348806728216871 $569 -2.4780867053628839 $424 $574 forward 7 unknown #
point $-1 73.755912961210981 15.691364361913973 0.23837853624813476 #
coedge $-1 $425 $575 $576 $577 reversed $426 $-1 #
face $-1 $-1 $426 $18 $-1 $578 reversed single #
coedge $-1 $579 $428 $580 $581 forward $332 $-1 #
coedge $-1 $576 $582 $428 $506 reversed $583 $-1 #
edge $-1 $507 -73.755912961210981 $584 73.755912961210981 $505 $585 forward 7 unknown #
vertex $-1 $429 $586 #
straight-curve $-1 73.755912961210981 0 12.703042853718156 0 1 0 I I #
face $-1 $587 $588 $19 $-1 $589 reversed single #
loop $-1 $-1 $590 $433 #
plane-surface $-1 0 0 12.703042853718156 0 0 1 1 0 0 forward_v I I I I #
coedge $-1 $591 $592 $590 $593 reversed $434 $-1 #
coedge $-1 $445 $594 $436 $514 reversed $356 $-1 #
edge $-1 $519 132.81376309144991 $595 147.51182592242199 $436 $596 forward 7 unknown #
coedge $-1 $597 $598 $437 $516 forward $599 $-1 #
edge $-1 $520 89.049386759804889 $595 101.51405107727491 $515 $600 forward 7 unknown #
coedge $-1 $601 $438 $598 $602 forward $510 $-1 #
coedge $-1 $438 $590 $445 $525 forward $510 $-1 #
vertex $-1 $525 $603 #
vertex $-1 $602 $604 #
straight-curve $-1 60.341840438250415 15.691364361913973 12.703042853718159 1 0 0 I I #
vertex $-1 $440 $605 #
point $-1 68.668438098900552 10.579368670871965 5.1356013755887151 #
coedge $-1 $594 $445 $592 $606 reversed $356 $-1 #
edge $-1 $607 2.4780867053628839 $519 9.6348806728216871 $518 $608 forward 7 unknown #
point $-1 73.755912961210981 39.967795090238788 -12.703042853718156 #
straight-curve $-1 73.755912961210981 39.967795090238788 0 0 0 -1 I I #
plane-surface $-1 -73.755912961210981 0 0 1 0 0 0 0 -1 forward_v I I I I #
coedge $-1 $544 $460 $549 $609 reversed $386 $-1 #
coedge $-1 $462 $461 $460 $531 reversed $311 $-1 #
edge $-1 $545 -12.703042853718156 $610 12.703042853718156 $460 $611 forward 7 unknown #
coedge $-1 $465 $549 $461 $533 forward $458 $-1 #
edge $-1 $610 -5.5997867759493403 $536 5.5997867759493403 $461 $612 forward 7 unknown #
edge $-1 $535 -5.5997867759493403 $545 5.5997867759493403 $462 $613 forward 7 unknown #
vertex $-1 $534 $614 #
vertex $-1 $464 $615 #
straight-curve $-1 -70.130271389613256 -51.167368642137475 0 0 0 -1 I I #
coedge $-1 $550 $465 $468 $541 forward $458 $-1 #
straight-curve $-1 -71.943092175412119 -51.167368642137475 -12.703042853718156 -1 0 0 I I #
straight-curve $-1 -71.943092175412119 -51.167368642137475 12.703042853718156 1 0 0 I I #
edge $-1 $471 -51.167368642137475 $555 39.967795090238788 $468 $616 forward 7 unknown #
point $-1 -73.755912961210981 -51.167368642137475 12.703042853718156 #
point $-1 -73.755912961210981 -51.167368642137475 -12.703042853718156 #
coedge $-1 $474 $529 $476 $547 reversed $386 $-1 #
vertex $-1 $475 $617 #
straight-curve $-1 0 -39.967795090238788 12.703042853718156 1 0 0 I I #
edge $-1 $477 -12.703042853718156 $551 12.703042853718156 $476 $618 forward 7 unknown #
point $-1 73.755912961210981 -39.967795090238788 12.703042853718156 #
coedge $-1 $532 $478 $529 $609 forward $458 $-1 #
coedge $-1 $478 $538 $480 $553 forward $458 $-1 #
vertex $-1 $547 $619 #
straight-curve $-1 73.755912961210981 0 -12.703042853718156 0 -1 0 I I #
edge $-1 $555 -73.755912961210981 $481 73.755912961210981 $480 $620 forward 7 unknown #
point $-1 73.755912961210981 39.967795090238788 -12.703042853718156 #
vertex $-1 $553 $621 #
straight-curve $-1 -73.755912961210981 39.967795090238788 0 0 0 -1 I I #
plane-surface $-1 0 39.967795090238788 0 0 -1 0 0 0 -1 forward_v I I I I #
face $-1 $622 $623 $18 $-1 $624 reversed single #
loop $-1 $-1 $625 $488 #
plane-surface $-1 0 -39.967795090238788 0 0 1 0 0 0 1 forward_v I I I I #
coedge $-1 $626 $627 $628 $629 forward $489 $-1 #
coedge $-1 $628 $491 $630 $631 reversed $413 $-1 #
coedge $-1 $491 $628 $579 $632 reversed $413 $-1 #
coedge $-1 $580 $633 $491 $565 reversed $634 $-1 #
edge $-1 $635 -12.703042853718156 $636 12.703042853718156 $564 $637 forward 7 unknown #
coedge $-1 $492 $638 $639 $640 forward $332 $-1 #
coedge $-1 $641 $493 $492 $568 reversed $426 $-1 #
edge $-1 $642 -39.967795090238788 $496 8.5345703944551694 $567 $508 forward 7 unknown #
vertex $-1 $500 $643 #
straight-curve $-1 73.755912961210981 8.5345703944551694 101.75242961352305 0 0 1 I I #
straight-curve $-1 -4.4134434265430684 8.5345703944551694 125.33550283929206 -0.52991925155115449 0 0.84804810408105047 I I #
point $-1 73.755912961210981 8.5345703944551694 12.703042853718156 #
point $-1 65.967126506570423 8.5345703944551694 12.703042853718159 #
straight-curve $-1 73.755912961210981 6.0564836890922855 0.23837853624813476 0 -1 0 I I #
coedge $-1 $502 $641 $644 $645 reversed $426 $-1 #
coedge $-1 $646 $505 $502 $577 forward $583 $-1 #
edge $-1 $507 -12.703042853718156 $647 12.703042853718156 $502 $648 forward 7 unknown #
plane-surface $-1 73.755912961210981 0 0 -1 0 0 0 0 1 forward_v I I I I #
coedge $-1 $638 $504 $563 $632 forward $332 $-1 #
coedge $-1 $649 $564 $504 $581 reversed $634 $-1 #
edge $-1 $584 -39.967795090238788 $635 51.167368642137475 $580 $650 forward 7 unknown #
coedge $-1 $505 $646 $649 $651 reversed $583 $-1 #
loop $-1 $-1 $576 $652 #
vertex $-1 $506 $653 #
straight-curve $-1 0 39.967795090238788 12.703042853718156 -1 0 0 I I #
point $-1 73.755912961210981 39.967795090238788 12.703042853718156 #
face $-1 $654 $655 $19 $-1 $656 reversed single #
loop $-1 $-1 $657 $509 #
plane-surface $-1 -71.943092175412119 -51.167368642137475 0 0 1 0 0 0 1 forward_v I I I I #
coedge $-1 $518 $658 $512 $593 forward $510 $-1 #
coedge $-1 $592 $512 $659 $660 reversed $434 $-1 #
coedge $-1 $512 $591 $524 $606 forward $434 $-1 #
edge $-1 $661 -13.414072522960566 $607 -5.6252860683200083 $590 $662 forward 7 unknown #
coedge $-1 $513 $524 $597 $663 reversed $356 $-1 #
vertex $-1 $663 $664 #
straight-curve $-1 -4.4134434265430684 15.691364361913973 125.33550283929206 0.52991925155115449 0 -0.84804810408105047 I I #
coedge $-1 $659 $515 $594 $663 forward $599 $-1 #
coedge $-1 $515 $665 $517 $602 reversed $599 $-1 #
loop $-1 $-1 $659 $666 #
straight-curve $-1 73.755912961210981 15.691364361913973 101.75242961352305 0 0 -1 I I #
coedge $-1 $667 $517 $668 $669 forward $510 $-1 #
edge $-1 $520 15.691364361913973 $670 39.967795090238788 $598 $671 forward 7 unknown #
point $-1 65.967126506570423 15.691364361913973 12.703042853718159 #
point $-1 73.755912961210981 15.691364361913973 12.703042853718156 #
point $-1 67.979454421084455 10.579368670871965 5.2946658018536636 #
edge $-1 $672 -147.51182592242199 $607 -132.81376309144991 $592 $673 forward 7 unknown #
vertex $-1 $525 $674 #
straight-curve $-1 65.967126506570409 6.0564836890922855 12.703042853718159 0 1 0 I I #
edge $-1 $551 -73.755912961210981 $610 70.130271389613256 $529 $675 forward 7 unknown #
vertex $-1 $533 $676 #
straight-curve $-1 -70.130271389613256 -39.967795090238788 0 0 0 -1 I I #
straight-curve $-1 -70.130271389613256 -45.567581866188135 -12.703042853718156 0 -1 0 I I #
straight-curve $-1 -70.130271389613256 -45.567581866188135 12.703042853718156 0 1 0 I I #
point $-1 -70.130271389613256 -51.167368642137475 12.703042853718156 #
point $-1 -70.130271389613256 -51.167368642137475 -12.703042853718156 #
straight-curve $-1 -73.755912961210981 0 -12.703042853718156 0 1 0 I I #
point $-1 -70.130271389613256 -39.967795090238795 12.703042853718156 #
straight-curve $-1 73.755912961210981 -39.967795090238788 0 0 0 -1 I I #
point $-1 73.755912961210981 -39.967795090238788 -12.703042853718156 #
straight-curve $-1 0 39.967795090238788 -12.703042853718156 1 0 0 I I #
point $-1 -73.755912961210981 39.967795090238788 -12.703042853718156 #
face $-1 $652 $634 $18 $-1 $677 reversed single #
loop $-1 $-1 $644 $558 #
plane-surface $-1 0 0 -12.703042853718156 0 0 1 1 0 0 forward_v I I I I #
coedge $-1 $678 $639 $679 $680 forward $559 $-1 #
coedge $-1 $679 $561 $681 $682 reversed $489 $-1 #
coedge $-1 $561 $679 $638 $683 reversed $489 $-1 #
coedge $-1 $563 $562 $561 $629 reversed $413 $-1 #
edge $-1 $684 -12.703042853718156 $685 12.703042853718156 $561 $686 forward 7 unknown #
coedge $-1 $687 $681 $562 $631 forward $623 $-1 #
edge $-1 $685 -1.8128207857988627 $636 1.8128207857988627 $562 $688 forward 7 unknown #
edge $-1 $635 -1.8128207857988627 $684 1.8128207857988627 $563 $689 forward 7 unknown #
coedge $-1 $564 $649 $687 $690 reversed $634 $-1 #
loop $-1 $-1 $649 $622 #
vertex $-1 $581 $691 #
vertex $-1 $690 $692 #
straight-curve $-1 -73.755912961210981 -51.167368642137475 0 0 0 -1 I I #
coedge $-1 $566 $579 $627 $683 forward $332 $-1 #
coedge $-1 $625 $693 $566 $640 reversed $559 $-1 #
edge $-1 $694 -70.130271389613256 $642 73.755912961210981 $639 $695 forward 7 unknown #
coedge $-1 $575 $567 $693 $696 forward $426 $-1 #
vertex $-1 $568 $697 #
point $-1 73.755912961210981 8.5345703944551694 0.23837853624813476 #
coedge $-1 $698 $699 $575 $645 forward $623 $-1 #
edge $-1 $647 -39.967795090238788 $700 39.967795090238788 $575 $701 forward 7 unknown #
coedge $-1 $582 $576 $699 $702 reversed $583 $-1 #
vertex $-1 $645 $703 #
straight-curve $-1 73.755912961210981 39.967795090238788 0 0 0 -1 I I #
coedge $-1 $633 $580 $582 $651 forward $634 $-1 #
straight-curve $-1 -73.755912961210981 0 12.703042853718156 0 -1 0 I I #
edge $-1 $584 -12.703042853718156 $704 12.703042853718156 $582 $705 forward 7 unknown #
face $-1 $503 $583 $18 $-1 $706 reversed single #
point $-1 -73.755912961210981 39.967795090238788 12.703042853718156 #
face $-1 $707 $708 $19 $-1 $709 reversed single #
loop $-1 $-1 $710 $587 #
plane-surface $-1 -70.130271389613256 -45.567581866188135 0 -1 0 0 0 0 1 forward_v I I I I #
coedge $-1 $711 $712 $713 $714 forward $588 $-1 #
coedge $-1 $590 $715 $716 $717 forward $510 $-1 #
coedge $-1 $716 $597 $591 $660 forward $599 $-1 #
edge $-1 $672 -101.51405107727491 $661 -89.049386759804889 $659 $718 forward 7 unknown #
vertex $-1 $660 $719 #
straight-curve $-1 60.341840438250415 8.5345703944551694 12.703042853718159 -1 0 0 I I #
edge $-1 $595 -9.6348806728216871 $672 -2.4780867053628839 $597 $720 forward 7 unknown #
point $-1 73.755912961210981 15.691364361913973 0.23837853624813476 #
coedge $-1 $598 $721 $722 $723 reversed $599 $-1 #
face $-1 $-1 $599 $19 $-1 $724 reversed single #
coedge $-1 $725 $601 $726 $727 forward $510 $-1 #
coedge $-1 $722 $728 $601 $669 reversed $729 $-1 #
edge $-1 $670 -73.755912961210981 $730 73.755912961210981 $668 $731 forward 7 unknown #
vertex $-1 $602 $732 #
straight-curve $-1 73.755912961210981 0 12.703042853718156 0 1 0 I I #
vertex $-1 $663 $733 #
straight-curve $-1 -4.4134434265430684 8.5345703944551694 125.33550283929206 -0.52991925155115449 0 0.84804810408105047 I I #
point $-1 65.967126506570423 8.5345703944551694 12.703042853718159 #
straight-curve $-1 0 -39.967795090238788 -12.703042853718156 -1 0 0 I I #
point $-1 -70.130271389613256 -39.967795090238795 -12.703042853718156 #
plane-surface $-1 -73.755912961210981 0 0 1 0 0 0 0 -1 forward_v I I I I #
coedge $-1 $693 $625 $698 $734 reversed $559 $-1 #
coedge $-1 $627 $626 $625 $680 reversed $489 $-1 #
edge $-1 $694 -12.703042853718156 $735 12.703042853718156 $625 $736 forward 7 unknown #
coedge $-1 $630 $698 $626 $682 forward $623 $-1 #
edge $-1 $735 -5.5997867759493403 $685 5.5997867759493403 $626 $737 forward 7 unknown #
edge $-1 $684 -5.5997867759493403 $694 5.5997867759493403 $627 $738 forward 7 unknown #
vertex $-1 $683 $739 #
vertex $-1 $629 $740 #
straight-curve $-1 -70.130271389613256 -51.167368642137475 0 0 0 -1 I I #
coedge $-1 $699 $630 $633 $690 forward $623 $-1 #
straight-curve $-1 -71.943092175412119 -51.167368642137475 -12.703042853718156 -1 0 0 I I #
straight-curve $-1 -71.943092175412119 -51.167368642137475 12.703042853718156 1 0 0 I I #
edge $-1 $636 -51.167368642137475 $704 39.967795090238788 $633 $741 forward 7 unknown #
point $-1 -73.755912961210981 -51.167368642137475 12.703042853718156 #
point $-1 -73.755912961210981 -51.167368642137475 -12.703042853718156 #
coedge $-1 $639 $678 $641 $696 reversed $559 $-1 #
vertex $-1 $640 $742 #
straight-curve $-1 0 -39.967795090238788 12.703042853718156 1 0 0 I I #
edge $-1 $642 -12.703042853718156 $700 12.703042853718156 $641 $743 forward 7 unknown #
point $-1 73.755912961210981 -39.967795090238788 12.703042853718156 #
coedge $-1 $681 $644 $678 $734 forward $623 $-1 #
coedge $-1 $644 $687 $646 $702 forward $623 $-1 #
vertex $-1 $696 $744 #
straight-curve $-1 73.755912961210981 0 -12.703042853718156 0 -1 0 I I #
edge $-1 $704 -73.755912961210981 $647 73.755912961210981 $646 $745 forward 7 unknown #
point $-1 73.755912961210981 39.967795090238788 -12.703042853718156 #
vertex $-1 $702 $746 #
straight-curve $-1 -73.755912961210981 39.967795090238788 0 0 0 -1 I I #
plane-surface $-1 0 39.967795090238788 0 0 -1 0 0 0 -1 forward_v I I I I #
face $-1 $747 $748 $19 $-1 $749 reversed single #
loop $-1 $-1 $750 $654 #
plane-surface $-1 0 -39.967795090238788 0 0 1 0 0 0 1 forward_v I I I I #
coedge $-1 $751 $752 $753 $754 forward $655 $-1 #
coedge $-1 $753 $657 $755 $756 reversed $588 $-1 #
coedge $-1 $657 $753 $725 $757 reversed $588 $-1 #
coedge $-1 $726 $758 $657 $714 reversed $759 $-1 #
edge $-1 $760 -12.703042853718156 $761 12.703042853718156 $713 $762 forward 7 unknown #
coedge $-1 $658 $763 $764 $765 forward $510 $-1 #
coedge $-1 $766 $659 $658 $717 reversed $599 $-1 #
edge $-1 $767 -39.967795090238788 $661 8.5345703944551694 $716 $671 forward 7 unknown #
straight-curve $-1 73.755912961210981 8.5345703944551694 101.75242961352305 0 0 1 I I #
point $-1 73.755912961210981 8.5345703944551694 12.703042853718156 #
straight-curve $-1 73.755912961210981 6.0564836890922855 0.23837853624813476 0 -1 0 I I #
coedge $-1 $665 $766 $768 $769 reversed $599 $-1 #
coedge $-1 $770 $668 $665 $723 forward $729 $-1 #
edge $-1 $670 -12.703042853718156 $771 12.703042853718156 $665 $772 forward 7 unknown #
plane-surface $-1 73.755912961210981 0 0 -1 0 0 0 0 1 forward_v I I I I #
coedge $-1 $763 $667 $712 $757 forward $510 $-1 #
coedge $-1 $773 $713 $667 $727 reversed $759 $-1 #
edge $-1 $730 -39.967795090238788 $760 51.167368642137475 $726 $774 forward 7 unknown #
coedge $-1 $668 $770 $773 $775 reversed $729 $-1 #
loop $-1 $-1 $722 $776 #
vertex $-1 $669 $777 #
straight-curve $-1 0 39.967795090238788 12.703042853718156 -1 0 0 I I #
point $-1 73.755912961210981 39.967795090238788 12.703042853718156 #
point $-1 73.755912961210981 8.5345703944551694 0.23837853624813476 #
edge $-1 $700 -73.755912961210981 $735 70.130271389613256 $678 $778 forward 7 unknown #
vertex $-1 $682 $779 #
straight-curve $-1 -70.130271389613256 -39.967795090238788 0 0 0 -1 I I #
straight-curve $-1 -70.130271389613256 -45.567581866188135 -12.703042853718156 0 -1 0 I I #
straight-curve $-1 -70.130271389613256 -45.567581866188135 12.703042853718156 0 1 0 I I #
point $-1 -70.130271389613256 -51.167368642137475 12.703042853718156 #
point $-1 -70.130271389613256 -51.167368642137475 -12.703042853718156 #
straight-curve $-1 -73.755912961210981 0 -12.703042853718156 0 1 0 I I #
point $-1 -70.130271389613256 -39.967795090238795 12.703042853718156 #
straight-curve $-1 73.755912961210981 -39.967795090238788 0 0 0 -1 I I #
point $-1 73.755912961210981 -39.967795090238788 -12.703042853718156 #
straight-curve $-1 0 39.967795090238788 -12.703042853718156 1 0 0 I I #
point $-1 -73.755912961210981 39.967795090238788 -12.703042853718156 #
face $-1 $776 $759 $19 $-1 $780 reversed single #
loop $-1 $-1 $768 $707 #
plane-surface $-1 0 0 -12.703042853718156 0 0 1 1 0 0 forward_v I I I I #
coedge $-1 $781 $764 $782 $783 forward $708 $-1 #
coedge $-1 $782 $710 $784 $785 reversed $655 $-1 #
coedge $-1 $710 $782 $763 $786 reversed $655 $-1 #
coedge $-1 $712 $711 $710 $754 reversed $588 $-1 #
edge $-1 $787 -12.703042853718156 $788 12.703042853718156 $710 $789 forward 7 unknown #
coedge $-1 $790 $784 $711 $756 forward $748 $-1 #
edge $-1 $788 -1.8128207857988627 $761 1.8128207857988627 $711 $791 forward 7 unknown #
edge $-1 $760 -1.8128207857988627 $787 1.8128207857988627 $712 $792 forward 7 unknown #
coedge $-1 $713 $773 $790 $793 reversed $759 $-1 #
loop $-1 $-1 $773 $747 #
vertex $-1 $727 $794 #
vertex $-1 $793 $795 #
straight-curve $-1 -73.755912961210981 -51.167368642137475 0 0 0 -1 I I #
coedge $-1 $715 $725 $752 $786 forward $510 $-1 #
coedge $-1 $750 $796 $715 $765 reversed $708 $-1 #
edge $-1 $797 -70.130271389613256 $767 73.755912961210981 $764 $798 forward 7 unknown #
coedge $-1 $721 $716 $796 $799 forward $599 $-1 #
vertex $-1 $717 $800 #
coedge $-1 $801 $802 $721 $769 forward $748 $-1 #
edge $-1 $771 -39.967795090238788 $803 39.967795090238788 $721 $804 forward 7 unknown #
coedge $-1 $728 $722 $802 $805 reversed $729 $-1 #
vertex $-1 $769 $806 #
straight-curve $-1 73.755912961210981 39.967795090238788 0 0 0 -1 I I #
coedge $-1 $758 $726 $728 $775 forward $759 $-1 #
straight-curve $-1 -73.755912961210981 0 12.703042853718156 0 -1 0 I I #
edge $-1 $730 -12.703042853718156 $807 12.703042853718156 $728 $808 forward 7 unknown #
face $-1 $666 $729 $19 $-1 $809 reversed single #
point $-1 -73.755912961210981 39.967795090238788 12.703042853718156 #
straight-curve $-1 0 -39.967795090238788 -12.703042853718156 -1 0 0 I I #
point $-1 -70.130271389613256 -39.967795090238795 -12.703042853718156 #
plane-surface $-1 -73.755912961210981 0 0 1 0 0 0 0 -1 forward_v I I I I #
coedge $-1 $796 $750 $801 $810 reversed $708 $-1 #
coedge $-1 $752 $751 $750 $783 reversed $655 $-1 #
edge $-1 $797 -12.703042853718156 $811 12.703042853718156 $750 $812 forward 7 unknown #
coedge $-1 $755 $801 $751 $785 forward $748 $-1 #
edge $-1 $811 -5.5997867759493403 $788 5.5997867759493403 $751 $813 forward 7 unknown #
edge $-1 $787 -5.5997867759493403 $797 5.5997867759493403 $752 $814 forward 7 unknown #
vertex $-1 $786 $815 #
vertex $-1 $754 $816 #
straight-curve $-1 -70.130271389613256 -51.167368642137475 0 0 0 -1 I I #
coedge $-1 $802 $755 $758 $793 forward $748 $-1 #
straight-curve $-1 -71.943092175412119 -51.167368642137475 -12.703042853718156 -1 0 0 I I #
straight-curve $-1 -71.943092175412119 -51.167368642137475 12.703042853718156 1 0 0 I I #
edge $-1 $761 -51.167368642137475 $807 39.967795090238788 $758 $817 forward 7 unknown #
point $-1 -73.755912961210981 -51.167368642137475 12.703042853718156 #
point $-1 -73.755912961210981 -51.167368642137475 -12.703042853718156 #
coedge $-1 $764 $781 $766 $799 reversed $708 $-1 #
vertex $-1 $765 $818 #
straight-curve $-1 0 -39.967795090238788 12.703042853718156 1 0 0 I I #
edge $-1 $767 -12.703042853718156 $803 12.703042853718156 $766 $819 forward 7 unknown #
point $-1 73.755912961210981 -39.967795090238788 12.703042853718156 #
coedge $-1 $784 $768 $781 $810 forward $748 $-1 #
coedge $-1 $768 $790 $770 $805 forward $748 $-1 #
vertex $-1 $799 $820 #
straight-curve $-1 73.755912961210981 0 -12.703042853718156 0 -1 0 I I #
edge $-1 $807 -73.755912961210981 $771 73.755912961210981 $770 $821 forward 7 unknown #
point $-1 73.755912961210981 39.967795090238788 -12.703042853718156 #
vertex $-1 $805 $822 #
straight-curve $-1 -73.755912961210981 39.967795090238788 0 0 0 -1 I I #
plane-surface $-1 0 39.967795090238788 0 0 -1 0 0 0 -1 forward_v I I I I #
edge $-1 $803 -73.755912961210981 $811 70.130271389613256 $781 $823 forward 7 unknown #
vertex $-1 $785 $824 #
straight-curve $-1 -70.130271389613256 -39.967795090238788 0 0 0 -1 I I #
straight-curve $-1 -70.130271389613256 -45.567581866188135 -12.703042853718156 0 -1 0 I I #
straight-curve $-1 -70.130271389613256 -45.567581866188135 12.703042853718156 0 1 0 I I #
point $-1 -70.130271389613256 -51.167368642137475 12.703042853718156 #
point $-1 -70.130271389613256 -51.167368642137475 -12.703042853718156 #
straight-curve $-1 -73.755912961210981 0 -12.703042853718156 0 1 0 I I #
point $-1 -70.130271389613256 -39.967795090238795 12.703042853718156 #
straight-curve $-1 73.755912961210981 -39.967795090238788 0 0 0 -1 I I #
point $-1 73.755912961210981 -39.967795090238788 -12.703042853718156 #
straight-curve $-1 0 39.967795090238788 -12.703042853718156 1 0 0 I I #
point $-1 -73.755912961210981 39.967795090238788 -12.703042853718156 #
straight-curve $-1 0 -39.967795090238788 -12.703042853718156 -1 0 0 I I #
point $-1 -70.130271389613256 -39.967795090238795 -12.703042853718156 #
End-of-ACIS-data 