500 0 11 0           
7 Unknown 11 ACIS 5.0 NT 24 Thu Mar 25 23:37:01 1999 
-1 9.9999999999999995e-007 1e-010 
body $-1 $11 $-1 $12 #
body $-1 $13 $-1 $14 #
body $-1 $15 $-1 $16 #
body $-1 $17 $-1 $18 #
body $-1 $19 $-1 $20 #
body $-1 $21 $-1 $22 #
body $-1 $23 $-1 $24 #
body $-1 $25 $-1 $26 #
body $-1 $27 $-1 $28 #
body $-1 $29 $-1 $30 #
body $-1 $31 $-1 $32 #
lump $-1 $-1 $33 $0 #
transform $-1 1 0 0 0 1 0 0 0 1 77.198400830103452 31.68369194748977 7.4474612796032886 1 rotate no_reflect no_shear #
lump $-1 $-1 $34 $1 #
transform $-1 1 0 0 0 1 0 0 0 1 77.198400830103452 31.68369194748977 7.4474612796032886 1 rotate no_reflect no_shear #
lump $-1 $-1 $35 $2 #
transform $-1 1 0 0 0 1 0 0 0 1 77.198400830103452 31.68369194748977 7.4474612796032886 1 rotate no_reflect no_shear #
lump $-1 $-1 $36 $3 #
transform $-1 1 0 0 0 1 0 0 0 1 77.198400830103452 31.68369194748977 7.4474612796032886 1 rotate no_reflect no_shear #
lump $-1 $-1 $37 $4 #
transform $-1 1 0 0 0 1 0 0 0 1 77.198400830103452 31.68369194748977 7.4474612796032886 1 rotate no_reflect no_shear #
lump $-1 $-1 $38 $5 #
transform $-1 1 0 0 0 1 0 0 0 1 77.198400830103452 31.68369194748977 7.4474612796032886 1 rotate no_reflect no_shear #
lump $-1 $-1 $39 $6 #
transform $-1 1 0 0 0 1 0 0 0 1 77.198400830103452 31.68369194748977 7.4474612796032886 1 rotate no_reflect no_shear #
lump $-1 $-1 $40 $7 #
transform $-1 1 0 0 0 1 0 0 0 1 77.198400830103452 31.68369194748977 7.4474612796032886 1 rotate no_reflect no_shear #
lump $-1 $-1 $41 $8 #
transform $-1 1 0 0 0 1 0 0 0 1 77.198400830103452 31.68369194748977 7.4474612796032886 1 rotate no_reflect no_shear #
lump $-1 $-1 $42 $9 #
transform $-1 1 0 0 0 1 0 0 0 1 77.198400830103452 31.68369194748977 7.4474612796032886 1 rotate no_reflect no_shear #
lump $-1 $-1 $43 $10 #
transform $-1 1 0 0 0 1 0 0 0 1 77.198400830103452 31.68369194748977 7.4474612796032886 1 rotate no_reflect no_shear #
shell $-1 $-1 $-1 $44 $-1 $11 #
shell $-1 $-1 $-1 $45 $-1 $13 #
shell $-1 $-1 $-1 $46 $-1 $15 #
shell $-1 $-1 $-1 $47 $-1 $17 #
shell $-1 $-1 $-1 $48 $-1 $19 #
shell $-1 $-1 $-1 $49 $-1 $21 #
shell $-1 $-1 $-1 $50 $-1 $23 #
shell $-1 $-1 $-1 $51 $-1 $25 #
shell $-1 $-1 $-1 $52 $-1 $27 #
shell $-1 $-1 $-1 $53 $-1 $29 #
shell $-1 $-1 $-1 $54 $-1 $31 #
face $-1 $55 $56 $33 $-1 $57 forward single #
face $-1 $58 $59 $34 $-1 $60 forward single #
face $-1 $61 $62 $35 $-1 $63 forward single #
face $-1 $64 $65 $36 $-1 $66 reversed single #
face $-1 $67 $68 $37 $-1 $69 forward single #
face $-1 $70 $71 $38 $-1 $72 reversed single #
face $-1 $73 $74 $39 $-1 $75 forward single #
face $-1 $76 $77 $40 $-1 $78 reversed single #
face $-1 $79 $80 $41 $-1 $81 forward single #
face $-1 $82 $83 $42 $-1 $84 reversed single #
face $-1 $85 $86 $43 $-1 $87 forward single #
face $-1 $88 $89 $33 $-1 $90 reversed single #
loop $-1 $-1 $91 $44 #
plane-surface $-1 0 0 7.4474612796032886 0 0 1 1 0 0 forward_v I I I I #
face $-1 $92 $93 $34 $-1 $94 reversed single #
loop $-1 $-1 $95 $45 #
plane-surface $-1 -72.445985481508416 0 -4.4474612796032886 0 0 1 1 0 0 forward_v I I I I #
face $-1 $96 $97 $35 $-1 $98 reversed single #
loop $-1 $-1 $99 $46 #
plane-surface $-1 72.445985481508416 0 -4.4474612796032886 0 0 1 1 0 0 forward_v I I I I #
face $-1 $100 $101 $36 $-1 $102 reversed single #
loop $-1 $-1 $103 $47 #
plane-surface $-1 1.0658141036401503e-014 114.33717686584902 148.47602080937924 -1 0 0 0 0.78801076186113728 0.61566146476048833 forward_v I I I I #
face $-1 $104 $105 $37 $-1 $106 forward single #
loop $-1 $107 $108 $48 #
cone-surface $-1 -14.738696027122927 29.592653092174835 5.0420218453972305 0 -0.78801076186113728 -0.61566146476048833 0.5 0 0 1 I I 0 1 0.5 forward I I I I #
face $-1 $109 $110 $38 $-1 $111 reversed single #
loop $-1 $-1 $112 $49 #
plane-surface $-1 67.693570132913393 114.33717686584902 148.47602080937924 -1 0 0 0 0.78801076186113728 0.61566146476048833 forward_v I I I I #
face $-1 $113 $114 $39 $-1 $115 forward single #
loop $-1 $116 $117 $50 #
cone-surface $-1 52.954874105790452 29.592653092174835 5.0420218453972305 0 -0.78801076186113728 -0.61566146476048833 0.5 0 0 1 I I 0 1 0.5 forward I I I I #
face $-1 $118 $119 $40 $-1 $120 reversed single #
loop $-1 $-1 $121 $51 #
plane-surface $-1 -29.477392054245865 -153.35003325267229 98.54184034914924 1 0 0 0 0.78801076186113728 -0.61566146476048833 forward_v I I I I #
face $-1 $122 $123 $41 $-1 $124 forward single #
loop $-1 $125 $126 $52 #
cone-surface $-1 -14.738696027122927 -29.592653092174832 5.042021845397227 0 0.78801076186113728 -0.61566146476048833 0.5 0 0 1 I I 0 1 0.5 forward I I I I #
face $-1 $127 $128 $42 $-1 $129 reversed single #
loop $-1 $-1 $130 $53 #
plane-surface $-1 38.216178078667511 -153.35003325267229 98.54184034914924 1 0 0 0 0.78801076186113728 -0.61566146476048833 forward_v I I I I #
face $-1 $131 $132 $43 $-1 $133 forward single #
loop $-1 $134 $135 $54 #
cone-surface $-1 52.954874105790452 -29.592653092174832 5.042021845397227 0 0.78801076186113728 -0.61566146476048833 0.5 0 0 1 I I 0 1 0.5 forward I I I I #
face $-1 $136 $137 $33 $-1 $138 reversed single #
loop $-1 $-1 $139 $55 #
plane-surface $-1 0 0 -7.4474612796032886 0 0 1 1 0 0 forward_v I I I I #
coedge $-1 $140 $141 $142 $143 forward $56 $-1 #
face $-1 $144 $145 $34 $-1 $146 reversed single #
loop $-1 $-1 $147 $58 #
plane-surface $-1 -67.693570132913379 0 -5.9474612796032886 -1 0 0 0 0 1 forward_v I I I I #
coedge $-1 $148 $149 $150 $151 forward $59 $-1 #
face $-1 $152 $153 $35 $-1 $154 reversed single #
loop $-1 $-1 $155 $61 #
plane-surface $-1 67.693570132913379 0 -5.9474612796032886 1 0 0 0 0 -1 forward_v I I I I #
coedge $-1 $156 $157 $158 $159 reversed $62 $-1 #
face $-1 $160 $161 $36 $-1 $162 reversed single #
loop $-1 $-1 $163 $64 #
plane-surface $-1 -14.738696027122927 -7.3291644393335247 53.419859744921652 0 0.78801076186113728 0.61566146476048833 1 0 0 forward_v I I I I #
coedge $-1 $164 $165 $166 $167 reversed $65 $-1 #
face $-1 $-1 $168 $37 $-1 $169 forward single #
loop $-1 $170 $171 $67 #
cone-surface $-1 -14.738696027122927 28.852253167613256 4.4635580424568531 0 -0.78801076186113728 -0.61566146476048833 0.25 0 0 1 I I -0.70710678118654746 0.70710678118654746 0.25 forward I I I I #
loop $-1 $-1 $172 $48 #
coedge $-1 $108 $108 $173 $174 reversed $68 $-1 #
face $-1 $175 $176 $38 $-1 $177 reversed single #
loop $-1 $-1 $178 $70 #
plane-surface $-1 52.954874105790452 -7.3291644393335247 53.419859744921652 0 0.78801076186113728 0.61566146476048833 1 0 0 forward_v I I I I #
coedge $-1 $179 $180 $181 $182 reversed $71 $-1 #
face $-1 $-1 $183 $39 $-1 $184 forward single #
loop $-1 $185 $186 $73 #
cone-surface $-1 52.954874105790452 28.852253167613256 4.4635580424568531 0 -0.78801076186113728 -0.61566146476048833 0.25 0 0 1 I I -0.70710678118654746 0.70710678118654746 0.25 forward I I I I #
loop $-1 $-1 $187 $50 #
coedge $-1 $117 $117 $188 $189 reversed $74 $-1 #
face $-1 $190 $191 $40 $-1 $192 reversed single #
loop $-1 $-1 $193 $76 #
plane-surface $-1 -14.738696027122927 -31.683691947489748 3.4856792846916562 0 -0.78801076186113728 0.61566146476048833 1 0 0 forward_v I I I I #
coedge $-1 $194 $195 $196 $197 reversed $77 $-1 #
face $-1 $-1 $198 $41 $-1 $199 forward single #
loop $-1 $200 $201 $79 #
cone-surface $-1 -14.738696027122927 -28.852253167613252 4.4635580424568495 0 0.78801076186113728 -0.61566146476048833 0.25 0 0 1 I I -0.70710678118654746 0.70710678118654746 0.25 forward I I I I #
loop $-1 $-1 $202 $52 #
coedge $-1 $126 $126 $203 $204 reversed $80 $-1 #
face $-1 $205 $206 $42 $-1 $207 reversed single #
loop $-1 $-1 $208 $82 #
plane-surface $-1 52.954874105790452 -31.683691947489748 3.4856792846916562 0 -0.78801076186113728 0.61566146476048833 1 0 0 forward_v I I I I #
coedge $-1 $209 $210 $211 $212 reversed $83 $-1 #
face $-1 $-1 $213 $43 $-1 $214 forward single #
loop $-1 $215 $216 $85 #
cone-surface $-1 52.954874105790452 -28.852253167613252 4.4635580424568495 0 0.78801076186113728 -0.61566146476048833 0.25 0 0 1 I I -0.70710678118654746 0.70710678118654746 0.25 forward I I I I #
loop $-1 $-1 $217 $54 #
coedge $-1 $135 $135 $218 $219 reversed $86 $-1 #
face $-1 $220 $221 $33 $-1 $222 reversed single #
loop $-1 $-1 $223 $88 #
plane-surface $-1 0 -31.68369194748977 0 0 1 0 0 0 1 forward_v I I I I #
coedge $-1 $224 $225 $226 $227 forward $89 $-1 #
coedge $-1 $228 $91 $229 $230 forward $56 $-1 #
coedge $-1 $91 $228 $231 $232 forward $56 $-1 #
coedge $-1 $233 $234 $91 $143 reversed $235 $-1 #
edge $-1 $236 -31.68369194748977 $237 31.68369194748977 $142 $238 forward 7 unknown #
face $-1 $239 $240 $34 $-1 $241 reversed single #
loop $-1 $-1 $242 $92 #
plane-surface $-1 0 0 -7.4474612796032886 0 0 1 1 0 0 forward_v I I I I #
coedge $-1 $243 $150 $244 $245 reversed $93 $-1 #
coedge $-1 $246 $95 $247 $248 reversed $59 $-1 #
coedge $-1 $95 $246 $249 $250 reversed $59 $-1 #
coedge $-1 $147 $251 $95 $151 reversed $93 $-1 #
edge $-1 $252 -31.68369194748977 $253 31.68369194748977 $150 $254 forward 7 unknown #
face $-1 $255 $256 $35 $-1 $257 reversed single #
loop $-1 $-1 $258 $96 #
plane-surface $-1 0 -31.68369194748977 0 0 1 0 0 0 1 forward_v I I I I #
coedge $-1 $259 $260 $261 $262 reversed $97 $-1 #
coedge $-1 $263 $99 $264 $265 reversed $62 $-1 #
coedge $-1 $99 $263 $258 $266 reversed $62 $-1 #
coedge $-1 $267 $268 $99 $159 forward $269 $-1 #
edge $-1 $270 -31.68369194748977 $271 31.68369194748977 $158 $272 forward 7 unknown #
face $-1 $273 $274 $36 $-1 $275 reversed single #
loop $-1 $-1 $276 $100 #
plane-surface $-1 -29.477392054245865 114.33717686584902 148.47602080937924 1 0 0 0 -0.78801076186113728 -0.61566146476048833 forward_v I I I I #
coedge $-1 $277 $278 $279 $280 reversed $101 $-1 #
coedge $-1 $165 $103 $281 $282 reversed $65 $-1 #
coedge $-1 $103 $164 $277 $283 reversed $65 $-1 #
coedge $-1 $279 $284 $103 $167 forward $274 $-1 #
edge $-1 $285 66.790549125086329 $286 70.752331119997962 $166 $287 forward 7 unknown #
loop $-1 $-1 $173 $104 #
plane-surface $-1 -14.738696027122927 -7.3291644393335247 53.419859744921652 0 0.78801076186113728 0.61566146476048833 1 0 0 forward_v I I I I #
loop $-1 $-1 $288 $67 #
coedge $-1 $171 $171 $172 $289 reversed $105 $-1 #
coedge $-1 $172 $172 $171 $289 forward $107 $-1 #
coedge $-1 $173 $173 $108 $174 forward $168 $-1 #
edge $-1 $290 2.2756527847069312e-015 $290 6.2831853071796031 $173 $291 forward 7 unknown #
face $-1 $292 $293 $38 $-1 $294 forward single #
loop $-1 $-1 $295 $109 #
plane-surface $-1 38.216178078667511 114.33717686584902 148.47602080937924 1 0 0 0 -0.78801076186113728 -0.61566146476048833 forward_v I I I I #
coedge $-1 $296 $297 $298 $299 reversed $110 $-1 #
coedge $-1 $180 $112 $300 $301 reversed $71 $-1 #
coedge $-1 $112 $179 $296 $302 reversed $71 $-1 #
coedge $-1 $298 $303 $112 $182 forward $304 $-1 #
edge $-1 $305 66.790549125086329 $306 70.752331119997962 $181 $307 forward 7 unknown #
loop $-1 $-1 $188 $113 #
plane-surface $-1 52.954874105790452 -7.3291644393335247 53.419859744921652 0 0.78801076186113728 0.61566146476048833 1 0 0 forward_v I I I I #
loop $-1 $-1 $308 $73 #
coedge $-1 $186 $186 $187 $309 reversed $114 $-1 #
coedge $-1 $187 $187 $186 $309 forward $116 $-1 #
coedge $-1 $188 $188 $117 $189 forward $183 $-1 #
edge $-1 $310 2.2756527847069312e-015 $310 6.2831853071796031 $188 $311 forward 7 unknown #
face $-1 $312 $313 $40 $-1 $314 forward single #
loop $-1 $-1 $315 $118 #
plane-surface $-1 1.0658141036401503e-014 -153.35003325267229 98.54184034914924 -1 0 0 0 -0.78801076186113728 0.61566146476048833 forward_v I I I I #
coedge $-1 $316 $317 $318 $319 reversed $119 $-1 #
coedge $-1 $195 $121 $320 $321 reversed $77 $-1 #
coedge $-1 $121 $194 $316 $322 reversed $77 $-1 #
coedge $-1 $318 $323 $121 $197 forward $324 $-1 #
edge $-1 $325 41.823458894971331 $326 45.785240889882992 $196 $327 forward 7 unknown #
loop $-1 $-1 $203 $122 #
plane-surface $-1 -14.738696027122927 -31.683691947489748 3.4856792846916562 0 -0.78801076186113728 0.61566146476048833 1 0 0 forward_v I I I I #
loop $-1 $-1 $328 $79 #
coedge $-1 $201 $201 $202 $329 reversed $123 $-1 #
coedge $-1 $202 $202 $201 $329 forward $125 $-1 #
coedge $-1 $203 $203 $126 $204 forward $198 $-1 #
edge $-1 $330 3.4875093232835735e-016 $330 6.2831853071796004 $203 $331 forward 7 unknown #
face $-1 $332 $333 $42 $-1 $334 reversed single #
loop $-1 $-1 $335 $127 #
plane-surface $-1 67.693570132913393 -153.35003325267229 98.54184034914924 -1 0 0 0 -0.78801076186113728 0.61566146476048833 forward_v I I I I #
coedge $-1 $336 $337 $338 $339 reversed $128 $-1 #
coedge $-1 $210 $130 $340 $341 reversed $83 $-1 #
coedge $-1 $130 $209 $336 $342 reversed $83 $-1 #
coedge $-1 $338 $343 $130 $212 forward $333 $-1 #
edge $-1 $344 41.823458894971331 $345 45.785240889882992 $211 $346 forward 7 unknown #
loop $-1 $-1 $218 $131 #
plane-surface $-1 52.954874105790452 -31.683691947489748 3.4856792846916562 0 -0.78801076186113728 0.61566146476048833 1 0 0 forward_v I I I I #
loop $-1 $-1 $347 $85 #
coedge $-1 $216 $216 $217 $348 reversed $132 $-1 #
coedge $-1 $217 $217 $216 $348 forward $134 $-1 #
coedge $-1 $218 $218 $135 $219 forward $213 $-1 #
edge $-1 $349 3.4875093232835735e-016 $349 6.2831853071796004 $218 $350 forward 7 unknown #
face $-1 $351 $352 $33 $-1 $353 reversed single #
loop $-1 $-1 $354 $136 #
plane-surface $-1 -77.198400830103452 0 0 1 0 0 0 0 -1 forward_v I I I I #
coedge $-1 $355 $231 $356 $357 forward $137 $-1 #
coedge $-1 $358 $139 $355 $359 forward $89 $-1 #
coedge $-1 $139 $358 $360 $361 forward $89 $-1 #
coedge $-1 $234 $233 $139 $227 reversed $235 $-1 #
edge $-1 $362 -31.68369194748977 $363 31.68369194748977 $226 $364 forward 7 unknown #
coedge $-1 $141 $140 $365 $366 forward $56 $-1 #
coedge $-1 $367 $368 $140 $230 reversed $352 $-1 #
edge $-1 $237 -77.198400830103452 $369 77.198400830103452 $229 $370 forward 7 unknown #
coedge $-1 $223 $371 $141 $232 reversed $137 $-1 #
edge $-1 $372 -77.198400830103452 $236 77.198400830103452 $231 $373 forward 7 unknown #
coedge $-1 $226 $142 $371 $374 forward $235 $-1 #
coedge $-1 $142 $226 $367 $375 reversed $235 $-1 #
loop $-1 $-1 $233 $351 #
vertex $-1 $143 $376 #
vertex $-1 $143 $377 #
straight-curve $-1 77.198400830103452 0 7.4474612796032886 0 1 0 I I #
face $-1 $378 $379 $34 $-1 $380 reversed single #
loop $-1 $-1 $244 $144 #
plane-surface $-1 0 -31.68369194748977 0 0 1 0 0 0 1 forward_v I I I I #
coedge $-1 $381 $382 $243 $383 forward $145 $-1 #
coedge $-1 $251 $147 $242 $383 reversed $93 $-1 #
coedge $-1 $249 $384 $147 $245 forward $240 $-1 #
edge $-1 $385 -4.4737306398016443 $252 -1.4737306398016443 $244 $386 forward 7 unknown #
coedge $-1 $149 $148 $387 $388 reversed $59 $-1 #
coedge $-1 $389 $390 $148 $248 forward $391 $-1 #
edge $-1 $392 -40.975408089349244 $253 -31.470577392159171 $247 $393 forward 7 unknown #
coedge $-1 $394 $244 $149 $250 forward $240 $-1 #
edge $-1 $252 31.470577392159171 $395 40.975408089349244 $249 $396 forward 7 unknown #
coedge $-1 $150 $243 $389 $397 reversed $93 $-1 #
vertex $-1 $250 $398 #
vertex $-1 $248 $399 #
straight-curve $-1 -67.693570132913379 0 -4.4474612796032886 0 1 0 I I #
face $-1 $400 $401 $35 $-1 $402 reversed single #
loop $-1 $-1 $403 $152 #
plane-surface $-1 0 0 -7.4474612796032886 0 0 1 1 0 0 forward_v I I I I #
coedge $-1 $404 $405 $157 $266 forward $153 $-1 #
coedge $-1 $406 $155 $403 $407 reversed $97 $-1 #
coedge $-1 $155 $406 $263 $408 reversed $97 $-1 #
coedge $-1 $264 $409 $155 $262 forward $401 $-1 #
edge $-1 $410 -4.4737306398016443 $411 -1.4737306398016443 $261 $412 forward 7 unknown #
coedge $-1 $157 $156 $260 $408 forward $62 $-1 #
coedge $-1 $413 $261 $156 $265 forward $401 $-1 #
edge $-1 $411 31.470577392159171 $270 40.975408089349244 $264 $414 forward 7 unknown #
edge $-1 $271 -40.975408089349244 $415 -31.470577392159171 $258 $416 forward 7 unknown #
coedge $-1 $417 $158 $405 $418 forward $269 $-1 #
coedge $-1 $158 $417 $413 $419 reversed $269 $-1 #
loop $-1 $-1 $158 $400 #
vertex $-1 $419 $420 #
vertex $-1 $418 $421 #
straight-curve $-1 77.198400830103452 0 -4.4474612796032886 0 -1 0 I I #
face $-1 $-1 $422 $36 $-1 $423 forward single #
loop $-1 $-1 $166 $160 #
plane-surface $-1 0 31.68369194748977 0 0 -1 0 0 0 -1 forward_v I I I I #
coedge $-1 $424 $425 $426 $427 reversed $161 $-1 #
coedge $-1 $428 $163 $165 $283 forward $101 $-1 #
coedge $-1 $163 $428 $424 $429 forward $101 $-1 #
coedge $-1 $426 $166 $163 $280 forward $274 $-1 #
edge $-1 $286 -7.3693480135614742 $430 22.108044040684401 $279 $431 forward 7 unknown #
coedge $-1 $432 $433 $164 $282 forward $422 $-1 #
edge $-1 $434 -28.580179727872043 $285 -25.484896485434739 $281 $435 forward 7 unknown #
edge $-1 $286 -63.367383894979561 $434 -58.339810431953957 $165 $436 forward 7 unknown #
coedge $-1 $166 $426 $432 $437 reversed $274 $-1 #
vertex $-1 $437 $438 #
vertex $-1 $167 $439 #
straight-curve $-1 1.0658141036401503e-014 31.68369194748977 74.238010404689618 0 0 -1 I I #
coedge $-1 $288 $288 $-1 $440 reversed $170 $-1 #
edge $-1 $441 0 $441 6.2831853071796004 $171 $442 forward 7 unknown #
vertex $-1 $174 $443 #
ellipse-curve $-1 -14.738696027122927 30.136050326271114 5.4665702821474733 0 0.78801076186113728 0.61566146476048833 0.5 0 0 1 I I #
face $-1 $-1 $304 $38 $-1 $444 reversed single #
loop $-1 $-1 $445 $175 #
plane-surface $-1 0 0 7.4474612796032886 0 0 1 1 0 0 forward_v I I I I #
coedge $-1 $446 $447 $448 $449 reversed $176 $-1 #
coedge $-1 $450 $178 $180 $302 forward $110 $-1 #
coedge $-1 $178 $450 $446 $451 forward $110 $-1 #
coedge $-1 $448 $181 $178 $299 forward $304 $-1 #
edge $-1 $306 -41.216133080018167 $452 -11.738741025772285 $298 $453 forward 7 unknown #
coedge $-1 $454 $455 $179 $301 forward $293 $-1 #
edge $-1 $456 -28.580179727872043 $305 -25.484896485434739 $300 $457 forward 7 unknown #
edge $-1 $306 -63.367383894979561 $456 -58.339810431953957 $180 $458 forward 7 unknown #
coedge $-1 $181 $448 $454 $459 reversed $304 $-1 #
loop $-1 $-1 $448 $292 #
vertex $-1 $459 $460 #
vertex $-1 $182 $461 #
straight-curve $-1 67.693570132913393 31.68369194748977 74.238010404689618 0 0 -1 I I #
coedge $-1 $308 $308 $-1 $462 reversed $185 $-1 #
edge $-1 $463 0 $463 6.2831853071796004 $186 $464 forward 7 unknown #
vertex $-1 $189 $465 #
ellipse-curve $-1 52.954874105790452 30.136050326271114 5.4665702821474733 0 0.78801076186113728 0.61566146476048833 0.5 0 0 1 I I #
face $-1 $-1 $324 $40 $-1 $466 reversed single #
loop $-1 $-1 $467 $190 #
plane-surface $-1 0 0 7.4474612796032886 0 0 1 1 0 0 forward_v I I I I #
coedge $-1 $468 $469 $470 $471 reversed $191 $-1 #
coedge $-1 $472 $193 $195 $322 forward $119 $-1 #
coedge $-1 $193 $472 $468 $473 forward $119 $-1 #
coedge $-1 $470 $196 $193 $319 forward $324 $-1 #
edge $-1 $326 -22.108044040684401 $474 7.3693480135614742 $318 $475 forward 7 unknown #
coedge $-1 $476 $477 $194 $321 forward $313 $-1 #
edge $-1 $478 -48.086607921283694 $325 -44.991324678846375 $320 $479 forward 7 unknown #
edge $-1 $326 -3.4470385116073395e-014 $478 5.0275734630255915 $195 $480 forward 7 unknown #
coedge $-1 $196 $470 $476 $481 reversed $324 $-1 #
loop $-1 $-1 $470 $312 #
vertex $-1 $481 $482 #
vertex $-1 $197 $483 #
straight-curve $-1 -29.477392054245865 -31.68369194748977 49.27092017457462 0 0 -1 I I #
coedge $-1 $328 $328 $-1 $484 reversed $200 $-1 #
edge $-1 $485 0 $485 6.2831853071796004 $201 $486 forward 7 unknown #
vertex $-1 $204 $487 #
ellipse-curve $-1 -14.738696027122927 -30.136050326271107 5.4665702821474653 0 -0.78801076186113728 0.61566146476048833 0.5 0 0 1 I I #
face $-1 $-1 $488 $42 $-1 $489 forward single #
loop $-1 $-1 $211 $205 #
plane-surface $-1 0 -31.68369194748977 0 0 1 0 0 0 1 forward_v I I I I #
coedge $-1 $490 $491 $492 $493 reversed $206 $-1 #
coedge $-1 $494 $208 $210 $342 forward $128 $-1 #
coedge $-1 $208 $494 $490 $495 forward $128 $-1 #
coedge $-1 $492 $211 $208 $339 forward $333 $-1 #
edge $-1 $345 11.738741025772285 $496 41.216133080018167 $338 $497 forward 7 unknown #
coedge $-1 $498 $499 $209 $341 forward $488 $-1 #
edge $-1 $500 -48.086607921283694 $344 -44.991324678846375 $340 $501 forward 7 unknown #
edge $-1 $345 -3.4470385116073395e-014 $500 5.0275734630255915 $210 $502 forward 7 unknown #
coedge $-1 $211 $492 $498 $503 reversed $333 $-1 #
vertex $-1 $503 $504 #
vertex $-1 $212 $505 #
straight-curve $-1 38.216178078667511 -31.68369194748977 49.27092017457462 0 0 -1 I I #
coedge $-1 $347 $347 $-1 $506 reversed $215 $-1 #
edge $-1 $507 0 $507 6.2831853071796004 $216 $508 forward 7 unknown #
vertex $-1 $219 $509 #
ellipse-curve $-1 52.954874105790452 -30.136050326271107 5.4665702821474653 0 -0.78801076186113728 0.61566146476048833 0.5 0 0 1 I I #
face $-1 $-1 $235 $33 $-1 $510 reversed single #
loop $-1 $-1 $367 $220 #
plane-surface $-1 0 31.68369194748977 0 0 -1 0 0 0 -1 forward_v I I I I #
coedge $-1 $511 $365 $368 $512 forward $221 $-1 #
coedge $-1 $371 $223 $224 $359 reversed $137 $-1 #
coedge $-1 $365 $511 $223 $357 reversed $221 $-1 #
edge $-1 $372 -7.4474612796032886 $513 7.4474612796032886 $356 $514 forward 7 unknown #
coedge $-1 $225 $224 $511 $515 forward $89 $-1 #
edge $-1 $363 -77.198400830103452 $513 77.198400830103452 $355 $516 forward 7 unknown #
coedge $-1 $368 $367 $225 $361 reversed $352 $-1 #
edge $-1 $517 -77.198400830103452 $362 77.198400830103452 $360 $518 forward 7 unknown #
vertex $-1 $227 $519 #
vertex $-1 $374 $520 #
straight-curve $-1 77.198400830103452 0 -7.4474612796032886 0 -1 0 I I #
coedge $-1 $354 $356 $228 $366 reversed $221 $-1 #
edge $-1 $369 -31.68369194748977 $372 31.68369194748977 $365 $521 forward 7 unknown #
coedge $-1 $360 $229 $234 $375 forward $352 $-1 #
coedge $-1 $229 $360 $354 $512 reversed $352 $-1 #
vertex $-1 $230 $522 #
straight-curve $-1 0 31.68369194748977 7.4474612796032886 -1 0 0 I I #
coedge $-1 $231 $355 $233 $374 reversed $137 $-1 #
vertex $-1 $366 $523 #
straight-curve $-1 0 -31.68369194748977 7.4474612796032886 1 0 0 I I #
edge $-1 $236 -7.4474612796032886 $363 7.4474612796032886 $233 $524 forward 7 unknown #
edge $-1 $237 -7.4474612796032886 $362 7.4474612796032886 $234 $525 forward 7 unknown #
point $-1 77.198400830103452 -31.68369194748977 7.4474612796032886 #
point $-1 77.198400830103452 31.68369194748977 7.4474612796032886 #
face $-1 $-1 $391 $34 $-1 $526 reversed single #
loop $-1 $-1 $387 $239 #
plane-surface $-1 -77.198400830103452 0 0 1 0 0 0 0 -1 forward_v I I I I #
coedge $-1 $527 $242 $384 $528 forward $145 $-1 #
coedge $-1 $242 $527 $529 $530 forward $145 $-1 #
edge $-1 $531 -31.68369194748977 $385 31.68369194748977 $242 $532 forward 7 unknown #
coedge $-1 $244 $394 $381 $528 reversed $240 $-1 #
vertex $-1 $528 $533 #
straight-curve $-1 -67.693570132913379 -31.68369194748977 -2.9737306398016443 0 0 1 I I #
coedge $-1 $534 $535 $246 $388 forward $379 $-1 #
edge $-1 $395 -31.68369194748977 $392 31.68369194748977 $387 $536 forward 7 unknown #
coedge $-1 $529 $247 $251 $397 forward $391 $-1 #
coedge $-1 $247 $529 $534 $537 reversed $391 $-1 #
loop $-1 $-1 $389 $378 #
vertex $-1 $537 $538 #
straight-curve $-1 -36.222992740754208 31.68369194748977 -4.4474612796032886 1 0 0 I I #
coedge $-1 $384 $249 $535 $539 forward $240 $-1 #
vertex $-1 $539 $540 #
straight-curve $-1 -36.222992740754208 -31.68369194748977 -4.4474612796032886 -1 0 0 I I #
edge $-1 $253 1.4737306398016443 $531 4.4737306398016443 $389 $541 forward 7 unknown #
point $-1 -67.693570132913379 -31.68369194748977 -4.4474612796032886 #
point $-1 -67.693570132913379 31.68369194748977 -4.4474612796032886 #
face $-1 $-1 $269 $35 $-1 $542 reversed single #
loop $-1 $-1 $264 $255 #
plane-surface $-1 0 31.68369194748977 0 0 -1 0 0 0 -1 forward_v I I I I #
coedge $-1 $543 $544 $259 $407 forward $256 $-1 #
coedge $-1 $545 $258 $406 $546 forward $153 $-1 #
coedge $-1 $258 $545 $267 $418 reversed $153 $-1 #
coedge $-1 $260 $259 $404 $546 reversed $97 $-1 #
edge $-1 $547 -31.68369194748977 $410 31.68369194748977 $403 $548 forward 7 unknown #
edge $-1 $411 -31.68369194748977 $415 31.68369194748977 $260 $549 forward 7 unknown #
coedge $-1 $261 $413 $543 $550 reversed $401 $-1 #
vertex $-1 $550 $551 #
vertex $-1 $265 $552 #
straight-curve $-1 67.693570132913379 31.68369194748977 -2.9737306398016443 0 0 1 I I #
coedge $-1 $409 $264 $268 $419 forward $401 $-1 #
straight-curve $-1 36.222992740754208 31.68369194748977 -4.4474612796032886 1 0 0 I I #
vertex $-1 $266 $553 #
straight-curve $-1 36.222992740754208 -31.68369194748977 -4.4474612796032886 -1 0 0 I I #
coedge $-1 $268 $267 $554 $555 reversed $269 $-1 #
edge $-1 $271 4.4474612796032886 $556 7.4474612796032886 $267 $557 forward 7 unknown #
edge $-1 $270 4.4474612796032886 $558 7.4474612796032886 $268 $559 forward 7 unknown #
point $-1 77.198400830103452 31.68369194748977 -4.4474612796032886 #
point $-1 77.198400830103452 -31.68369194748977 -4.4474612796032886 #
loop $-1 $-1 $281 $273 #
plane-surface $-1 0 0 7.4474612796032886 0 0 1 1 0 0 forward_v I I I I #
coedge $-1 $425 $276 $278 $429 reversed $161 $-1 #
coedge $-1 $276 $424 $560 $561 reversed $161 $-1 #
coedge $-1 $284 $279 $276 $427 forward $274 $-1 #
edge $-1 $430 -70.752331119997962 $562 -66.790549125086329 $426 $563 forward 7 unknown #
coedge $-1 $278 $277 $433 $564 reversed $101 $-1 #
edge $-1 $565 58.339810431953957 $430 63.367383894979561 $424 $566 forward 7 unknown #
vertex $-1 $280 $567 #
straight-curve $-1 -7.3693480135614635 31.68369194748977 3.4856792846916491 -1 0 0 I I #
coedge $-1 $560 $281 $284 $437 forward $422 $-1 #
coedge $-1 $281 $560 $428 $564 forward $422 $-1 #
vertex $-1 $282 $568 #
straight-curve $-1 1.0658141036401503e-014 57.168588432924508 7.4474612796032886 0 1 0 I I #
straight-curve $-1 1.0658141036401503e-014 -7.3291644393335247 53.419859744921652 0 -0.61566146476048833 0.78801076186113728 I I #
edge $-1 $285 -1.0658141036401503e-014 $562 29.477392054245865 $284 $569 forward 7 unknown #
point $-1 1.0658141036401503e-014 31.68369194748977 7.4474612796032886 #
point $-1 1.0658141036401503e-014 31.68369194748977 3.4856792846916491 #
edge $-1 $570 1 $570 0 $288 $-1 forward 7 unknown #
vertex $-1 $289 $571 #
ellipse-curve $-1 -14.738696027122927 29.049255858078538 4.6174734086469753 0 0.78801076186113728 0.61566146476048833 0.5 0 0 1 I I #
point $-1 -14.238696027122927 30.136050326271132 5.4665702821474857 #
plane-surface $-1 0 31.68369194748977 0 0 -1 0 0 0 -1 forward_v I I I I #
coedge $-1 $455 $454 $447 $572 forward $293 $-1 #
coedge $-1 $447 $295 $297 $451 reversed $176 $-1 #
coedge $-1 $295 $446 $445 $572 reversed $176 $-1 #
coedge $-1 $303 $298 $295 $449 forward $304 $-1 #
edge $-1 $452 -70.752331119997962 $573 -66.790549125086329 $448 $574 forward 7 unknown #
coedge $-1 $297 $296 $455 $575 reversed $110 $-1 #
edge $-1 $576 58.339810431953957 $452 63.367383894979561 $446 $577 forward 7 unknown #
vertex $-1 $299 $578 #
straight-curve $-1 26.477437052895226 31.68369194748977 3.4856792846916491 -1 0 0 I I #
coedge $-1 $445 $300 $303 $459 forward $293 $-1 #
coedge $-1 $300 $445 $450 $575 forward $293 $-1 #
vertex $-1 $301 $579 #
straight-curve $-1 67.693570132913393 57.168588432924508 7.4474612796032886 0 1 0 I I #
straight-curve $-1 67.693570132913393 -7.3291644393335247 53.419859744921652 0 -0.61566146476048833 0.78801076186113728 I I #
edge $-1 $305 -67.693570132913393 $573 -38.216178078667511 $303 $580 forward 7 unknown #
point $-1 67.693570132913393 31.68369194748977 7.4474612796032886 #
point $-1 67.693570132913393 31.68369194748977 3.4856792846916491 #
edge $-1 $581 1 $581 0 $308 $-1 forward 7 unknown #
vertex $-1 $309 $582 #
ellipse-curve $-1 52.954874105790452 29.049255858078538 4.6174734086469753 0 0.78801076186113728 0.61566146476048833 0.5 0 0 1 I I #
point $-1 53.454874105790452 30.136050326271132 5.4665702821474857 #
plane-surface $-1 0 -31.68369194748977 0 0 1 0 0 0 1 forward_v I I I I #
coedge $-1 $477 $476 $469 $583 forward $313 $-1 #
coedge $-1 $469 $315 $317 $473 reversed $191 $-1 #
coedge $-1 $315 $468 $467 $583 reversed $191 $-1 #
coedge $-1 $323 $318 $315 $471 forward $324 $-1 #
edge $-1 $474 -45.785240889882992 $584 -41.823458894971331 $470 $585 forward 7 unknown #
coedge $-1 $317 $316 $477 $586 reversed $119 $-1 #
edge $-1 $587 -5.0275734630255915 $474 3.4470385116073395e-014 $468 $588 forward 7 unknown #
vertex $-1 $319 $589 #
straight-curve $-1 -7.3693480135614635 -31.68369194748977 3.4856792846916278 1 0 0 I I #
coedge $-1 $467 $320 $323 $481 forward $313 $-1 #
coedge $-1 $320 $467 $472 $586 forward $313 $-1 #
vertex $-1 $321 $590 #
straight-curve $-1 -29.477392054245865 -76.675016626336145 7.4474612796032886 0 -1 0 I I #
straight-curve $-1 -29.477392054245865 -31.683691947489748 3.4856792846916562 0 0.61566146476048833 0.78801076186113728 I I #
edge $-1 $325 -29.477392054245865 $584 1.0658141036401503e-014 $323 $591 forward 7 unknown #
point $-1 -29.477392054245865 -31.68369194748977 7.4474612796032886 #
point $-1 -29.477392054245865 -31.68369194748977 3.4856792846916291 #
edge $-1 $592 1 $592 0 $328 $-1 forward 7 unknown #
vertex $-1 $329 $593 #
ellipse-curve $-1 -14.738696027122927 -29.049255858078535 4.6174734086469718 0 -0.78801076186113728 0.61566146476048833 0.5 0 0 1 I I #
point $-1 -14.238696027122927 -30.136050326271128 5.4665702821474822 #
loop $-1 $-1 $340 $332 #
plane-surface $-1 0 0 7.4474612796032886 0 0 1 1 0 0 forward_v I I I I #
coedge $-1 $491 $335 $337 $495 reversed $206 $-1 #
coedge $-1 $335 $490 $594 $595 reversed $206 $-1 #
coedge $-1 $343 $338 $335 $493 forward $333 $-1 #
edge $-1 $496 -45.785240889882992 $596 -41.823458894971331 $492 $597 forward 7 unknown #
coedge $-1 $337 $336 $499 $598 reversed $128 $-1 #
edge $-1 $599 -5.0275734630255915 $496 3.4470385116073395e-014 $490 $600 forward 7 unknown #
vertex $-1 $339 $601 #
straight-curve $-1 26.477437052895226 -31.68369194748977 3.4856792846916278 1 0 0 I I #
coedge $-1 $594 $340 $343 $503 forward $488 $-1 #
coedge $-1 $340 $594 $494 $598 forward $488 $-1 #
vertex $-1 $341 $602 #
straight-curve $-1 38.216178078667511 -76.675016626336145 7.4474612796032886 0 -1 0 I I #
straight-curve $-1 38.216178078667511 -31.683691947489748 3.4856792846916562 0 0.61566146476048833 0.78801076186113728 I I #
edge $-1 $344 38.216178078667511 $596 67.693570132913393 $343 $603 forward 7 unknown #
point $-1 38.216178078667511 -31.68369194748977 7.4474612796032886 #
point $-1 38.216178078667511 -31.68369194748977 3.4856792846916291 #
edge $-1 $604 1 $604 0 $347 $-1 forward 7 unknown #
vertex $-1 $348 $605 #
ellipse-curve $-1 52.954874105790452 -29.049255858078535 4.6174734086469718 0 -0.78801076186113728 0.61566146476048833 0.5 0 0 1 I I #
point $-1 53.454874105790452 -30.136050326271128 5.4665702821474822 #
plane-surface $-1 77.198400830103452 0 0 -1 0 0 0 0 1 forward_v I I I I #
coedge $-1 $356 $354 $358 $515 reversed $221 $-1 #
edge $-1 $369 -7.4474612796032886 $517 7.4474612796032886 $368 $606 forward 7 unknown #
vertex $-1 $515 $607 #
straight-curve $-1 -77.198400830103452 -31.68369194748977 0 0 0 -1 I I #
edge $-1 $513 -31.68369194748977 $517 31.68369194748977 $511 $608 forward 7 unknown #
straight-curve $-1 0 -31.68369194748977 -7.4474612796032886 -1 0 0 I I #
vertex $-1 $361 $609 #
straight-curve $-1 0 31.68369194748977 -7.4474612796032886 1 0 0 I I #
point $-1 77.198400830103452 31.68369194748977 -7.4474612796032886 #
point $-1 77.198400830103452 -31.68369194748977 -7.4474612796032886 #
straight-curve $-1 -77.198400830103452 0 7.4474612796032886 0 -1 0 I I #
point $-1 -77.198400830103452 31.68369194748977 7.4474612796032886 #
point $-1 -77.198400830103452 -31.68369194748977 7.4474612796032886 #
straight-curve $-1 77.198400830103452 -31.68369194748977 0 0 0 -1 I I #
straight-curve $-1 77.198400830103452 31.68369194748977 0 0 0 -1 I I #
plane-surface $-1 0 31.68369194748977 0 0 -1 0 0 0 -1 forward_v I I I I #
coedge $-1 $382 $381 $610 $611 forward $145 $-1 #
edge $-1 $385 67.693570132913379 $612 77.198400830103452 $384 $613 forward 7 unknown #
coedge $-1 $390 $389 $382 $530 reversed $391 $-1 #
edge $-1 $614 -77.198400830103452 $531 -67.693570132913379 $529 $615 forward 7 unknown #
vertex $-1 $397 $616 #
straight-curve $-1 -67.693570132913379 0 -7.4474612796032886 0 -1 0 I I #
point $-1 -67.693570132913379 -31.68369194748977 -7.4474612796032886 #
coedge $-1 $610 $387 $390 $537 forward $379 $-1 #
coedge $-1 $387 $610 $394 $539 reversed $379 $-1 #
straight-curve $-1 -77.198400830103452 0 -4.4474612796032886 0 1 0 I I #
edge $-1 $392 4.4474612796032886 $614 7.4474612796032886 $390 $617 forward 7 unknown #
point $-1 -77.198400830103452 31.68369194748977 -4.4474612796032886 #
edge $-1 $395 4.4474612796032886 $612 7.4474612796032886 $535 $618 forward 7 unknown #
point $-1 -77.198400830103452 -31.68369194748977 -4.4474612796032886 #
straight-curve $-1 -67.693570132913379 31.68369194748977 -2.9737306398016443 0 0 -1 I I #
plane-surface $-1 77.198400830103452 0 0 -1 0 0 0 0 1 forward_v I I I I #
coedge $-1 $554 $403 $409 $550 forward $256 $-1 #
coedge $-1 $403 $554 $545 $619 forward $256 $-1 #
coedge $-1 $405 $404 $544 $619 reversed $153 $-1 #
edge $-1 $415 1.4737306398016443 $547 4.4737306398016443 $404 $620 forward 7 unknown #
vertex $-1 $407 $621 #
straight-curve $-1 67.693570132913379 0 -7.4474612796032886 0 1 0 I I #
straight-curve $-1 67.693570132913379 0 -4.4474612796032886 0 -1 0 I I #
edge $-1 $410 67.693570132913379 $558 77.198400830103452 $409 $622 forward 7 unknown #
point $-1 67.693570132913379 31.68369194748977 -7.4474612796032886 #
point $-1 67.693570132913379 31.68369194748977 -4.4474612796032886 #
point $-1 67.693570132913379 -31.68369194748977 -4.4474612796032886 #
coedge $-1 $544 $543 $417 $555 forward $256 $-1 #
edge $-1 $558 -31.68369194748977 $556 31.68369194748977 $417 $623 forward 7 unknown #
vertex $-1 $418 $624 #
straight-curve $-1 77.198400830103452 -31.68369194748977 0 0 0 -1 I I #
vertex $-1 $555 $625 #
straight-curve $-1 77.198400830103452 31.68369194748977 0 0 0 -1 I I #
coedge $-1 $433 $432 $425 $561 forward $422 $-1 #
edge $-1 $562 25.484896485434739 $565 28.580179727872043 $560 $626 forward 7 unknown #
vertex $-1 $561 $627 #
straight-curve $-1 -29.477392054245865 31.68369194748977 74.238010404689618 0 0 1 I I #
edge $-1 $565 -22.108044040684401 $434 7.3693480135614742 $433 $628 forward 7 unknown #
vertex $-1 $564 $629 #
straight-curve $-1 -29.477392054245865 -7.3291644393335247 53.419859744921652 0 0.61566146476048833 -0.78801076186113728 I I #
point $-1 -29.477392054245865 31.68369194748977 3.4856792846916491 #
point $-1 1.0658141036401503e-014 28.588408705052466 7.4474612796032886 #
straight-curve $-1 0 31.68369194748977 7.4474612796032886 -1 0 0 I I #
vertex $-1 $440 $630 #
point $-1 -14.238696027122927 29.049255858078538 4.6174734086469753 #
edge $-1 $573 25.484896485434739 $576 28.580179727872043 $445 $631 forward 7 unknown #
vertex $-1 $572 $632 #
straight-curve $-1 38.216178078667511 31.68369194748977 74.238010404689618 0 0 1 I I #
edge $-1 $576 11.738741025772285 $456 41.216133080018167 $455 $633 forward 7 unknown #
vertex $-1 $575 $634 #
straight-curve $-1 38.216178078667511 -7.3291644393335247 53.419859744921652 0 0.61566146476048833 -0.78801076186113728 I I #
point $-1 38.216178078667511 31.68369194748977 3.4856792846916491 #
point $-1 67.693570132913393 28.588408705052466 7.4474612796032886 #
straight-curve $-1 0 31.68369194748977 7.4474612796032886 -1 0 0 I I #
vertex $-1 $462 $635 #
point $-1 53.454874105790452 29.049255858078538 4.6174734086469753 #
edge $-1 $584 44.991324678846375 $587 48.086607921283694 $467 $636 forward 7 unknown #
vertex $-1 $471 $637 #
straight-curve $-1 1.0658141036401503e-014 -31.68369194748977 49.27092017457462 0 0 1 I I #
edge $-1 $587 -7.3693480135614742 $478 22.108044040684401 $477 $638 forward 7 unknown #
vertex $-1 $586 $639 #
straight-curve $-1 1.0658141036401503e-014 -31.683691947489748 3.4856792846916562 0 -0.61566146476048833 -0.78801076186113728 I I #
point $-1 1.0658141036401503e-014 -31.68369194748977 3.4856792846916291 #
point $-1 -29.477392054245865 -28.588408705052451 7.4474612796032886 #
straight-curve $-1 0 -31.68369194748977 7.4474612796032886 1 0 0 I I #
vertex $-1 $484 $640 #
point $-1 -14.238696027122927 -29.049255858078535 4.6174734086469718 #
coedge $-1 $499 $498 $491 $595 forward $488 $-1 #
edge $-1 $596 44.991324678846375 $599 48.086607921283694 $594 $641 forward 7 unknown #
vertex $-1 $595 $642 #
straight-curve $-1 67.693570132913393 -31.68369194748977 49.27092017457462 0 0 1 I I #
edge $-1 $599 -41.216133080018167 $500 -11.738741025772285 $499 $643 forward 7 unknown #
vertex $-1 $598 $644 #
straight-curve $-1 67.693570132913393 -31.683691947489748 3.4856792846916562 0 -0.61566146476048833 -0.78801076186113728 I I #
point $-1 67.693570132913393 -31.68369194748977 3.4856792846916291 #
point $-1 38.216178078667511 -28.588408705052451 7.4474612796032886 #
straight-curve $-1 0 -31.68369194748977 7.4474612796032886 1 0 0 I I #
vertex $-1 $506 $645 #
point $-1 53.454874105790452 -29.049255858078535 4.6174734086469718 #
straight-curve $-1 -77.198400830103452 31.68369194748977 0 0 0 -1 I I #
point $-1 -77.198400830103452 -31.68369194748977 -7.4474612796032886 #
straight-curve $-1 -77.198400830103452 0 -7.4474612796032886 0 1 0 I I #
point $-1 -77.198400830103452 31.68369194748977 -7.4474612796032886 #
coedge $-1 $535 $534 $527 $611 reversed $379 $-1 #
edge $-1 $612 -31.68369194748977 $614 31.68369194748977 $610 $646 forward 7 unknown #
vertex $-1 $611 $647 #
straight-curve $-1 0 -31.68369194748977 -7.4474612796032886 -1 0 0 I I #
vertex $-1 $530 $648 #
straight-curve $-1 0 31.68369194748977 -7.4474612796032886 1 0 0 I I #
point $-1 -67.693570132913379 31.68369194748977 -7.4474612796032886 #
straight-curve $-1 -77.198400830103452 31.68369194748977 0 0 0 -1 I I #
straight-curve $-1 -77.198400830103452 -31.68369194748977 0 0 0 -1 I I #
edge $-1 $556 -77.198400830103452 $547 -67.693570132913379 $545 $649 forward 7 unknown #
straight-curve $-1 67.693570132913379 -31.68369194748977 -2.9737306398016443 0 0 -1 I I #
point $-1 67.693570132913379 -31.68369194748977 -7.4474612796032886 #
straight-curve $-1 0 31.68369194748977 -7.4474612796032886 1 0 0 I I #
straight-curve $-1 77.198400830103452 0 -7.4474612796032886 0 -1 0 I I #
point $-1 77.198400830103452 -31.68369194748977 -7.4474612796032886 #
point $-1 77.198400830103452 31.68369194748977 -7.4474612796032886 #
straight-curve $-1 -29.477392054245865 57.168588432924508 7.4474612796032886 0 -1 0 I I #
point $-1 -29.477392054245865 31.68369194748977 7.4474612796032886 #
straight-curve $-1 -7.3693480135614635 28.588408705052469 7.4474612796032886 1 0 0 I I #
point $-1 -29.477392054245865 28.588408705052466 7.4474612796032886 #
point $-1 -14.738696027122927 28.655250477147973 4.3096426762667308 #
straight-curve $-1 38.216178078667511 57.168588432924508 7.4474612796032886 0 -1 0 I I #
point $-1 38.216178078667511 31.68369194748977 7.4474612796032886 #
straight-curve $-1 26.477437052895226 28.588408705052469 7.4474612796032886 1 0 0 I I #
point $-1 38.216178078667511 28.588408705052466 7.4474612796032886 #
point $-1 52.954874105790452 28.655250477147973 4.3096426762667308 #
straight-curve $-1 1.0658141036401503e-014 -76.675016626336145 7.4474612796032886 0 1 0 I I #
point $-1 1.0658141036401503e-014 -31.68369194748977 7.4474612796032886 #
straight-curve $-1 -7.3693480135614635 -28.588408705052451 7.4474612796032886 -1 0 0 I I #
point $-1 1.0658141036401503e-014 -28.588408705052451 7.4474612796032886 #
point $-1 -14.738696027122927 -28.65525047714797 4.3096426762667273 #
straight-curve $-1 67.693570132913393 -76.675016626336145 7.4474612796032886 0 1 0 I I #
point $-1 67.693570132913393 -31.68369194748977 7.4474612796032886 #
straight-curve $-1 26.477437052895226 -28.588408705052451 7.4474612796032886 -1 0 0 I I #
point $-1 67.693570132913393 -28.588408705052451 7.4474612796032886 #
point $-1 52.954874105790452 -28.65525047714797 4.3096426762667273 #
straight-curve $-1 -77.198400830103452 0 -7.4474612796032886 0 1 0 I I #
point $-1 -77.198400830103452 -31.68369194748977 -7.4474612796032886 #
point $-1 -77.198400830103452 31.68369194748977 -7.4474612796032886 #
straight-curve $-1 0 -31.68369194748977 -7.4474612796032886 -1 0 0 I I #
End-of-ACIS-data 