500 0 9 0           
7 Unknown 11 ACIS 5.0 NT 24 Fri Mar 26 20:02:01 1999 
-1 9.9999999999999995e-007 1e-010 
body $-1 $9 $-1 $10 #
body $-1 $11 $-1 $12 #
body $-1 $13 $-1 $14 #
body $-1 $15 $-1 $16 #
body $-1 $17 $-1 $18 #
body $-1 $19 $-1 $20 #
body $-1 $21 $-1 $22 #
body $-1 $23 $-1 $24 #
body $-1 $25 $-1 $26 #
lump $-1 $-1 $27 $0 #
transform $-1 1 0 0 0 1 0 0 0 1 42.305978576006346 17.291908660190224 5.4363941237774469 1 rotate no_reflect no_shear #
lump $-1 $-1 $28 $1 #
transform $-1 1 0 0 0 1 0 0 0 1 42.305978576006346 17.291908660190224 5.4363941237774469 1 rotate no_reflect no_shear #
lump $-1 $-1 $29 $2 #
transform $-1 1 0 0 0 1 0 0 0 1 42.305978576006346 17.291908660190224 5.4363941237774469 1 rotate no_reflect no_shear #
lump $-1 $-1 $30 $3 #
transform $-1 1 0 0 0 1 0 0 0 1 42.305978576006346 17.291908660190224 5.4363941237774469 1 rotate no_reflect no_shear #
lump $-1 $-1 $31 $4 #
transform $-1 1 0 0 0 1 0 0 0 1 42.305978576006346 17.291908660190224 5.4363941237774469 1 rotate no_reflect no_shear #
lump $-1 $-1 $32 $5 #
transform $-1 1 0 0 0 1 0 0 0 1 42.305978576006346 17.291908660190224 5.4363941237774469 1 rotate no_reflect no_shear #
lump $-1 $-1 $33 $6 #
transform $-1 1 0 0 0 1 0 0 0 1 42.305978576006346 17.291908660190224 5.4363941237774469 1 rotate no_reflect no_shear #
lump $-1 $-1 $34 $7 #
transform $-1 1 0 0 0 1 0 0 0 1 42.305978576006346 17.291908660190224 5.4363941237774469 1 rotate no_reflect no_shear #
lump $-1 $-1 $35 $8 #
transform $-1 1 0 0 0 1 0 0 0 1 42.305978576006346 17.291908660190224 5.4363941237774469 1 rotate no_reflect no_shear #
shell $-1 $-1 $-1 $36 $-1 $9 #
shell $-1 $-1 $-1 $37 $-1 $11 #
shell $-1 $-1 $-1 $38 $-1 $13 #
shell $-1 $-1 $-1 $39 $-1 $15 #
shell $-1 $-1 $-1 $40 $-1 $17 #
shell $-1 $-1 $-1 $41 $-1 $19 #
shell $-1 $-1 $-1 $42 $-1 $21 #
shell $-1 $-1 $-1 $43 $-1 $23 #
shell $-1 $-1 $-1 $44 $-1 $25 #
face $-1 $45 $46 $27 $-1 $47 forward single #
face $-1 $48 $49 $28 $-1 $50 reversed single #
face $-1 $51 $52 $29 $-1 $53 reversed single #
face $-1 $54 $55 $30 $-1 $56 forward single #
face $-1 $57 $58 $31 $-1 $59 forward single #
face $-1 $60 $61 $32 $-1 $62 forward single #
face $-1 $63 $64 $33 $-1 $65 reversed single #
face $-1 $66 $67 $34 $-1 $68 forward single #
face $-1 $69 $70 $35 $-1 $71 forward single #
face $-1 $72 $73 $27 $-1 $74 reversed single #
loop $-1 $-1 $75 $36 #
plane-surface $-1 0 0 5.4363941237774469 0 0 1 1 0 0 forward_v I I I I #
face $-1 $76 $77 $28 $-1 $78 reversed single #
loop $-1 $-1 $79 $37 #
plane-surface $-1 -39.012735216531254 -9.4191204126353298 0 0 1 0 0 0 1 forward_v I I I I #
face $-1 $80 $81 $29 $-1 $82 reversed single #
loop $-1 $-1 $83 $38 #
plane-surface $-1 -20.481820179813496 -64.606315263296892 71.358553916383627 -1 0 0 0 -0.55919291073839883 0.82903756765294845 forward_v I I I I #
face $-1 $84 $85 $30 $-1 $86 forward single #
loop $-1 $87 $88 $39 #
cone-surface $-1 -32.671957521607624 -13.08522507974665 1.7300762623634371 0 0.55919291073839883 -0.82903756765294845 1.5 0 0 1 I I 0 1 1.5 forward I I I I #
face $-1 $89 $90 $31 $-1 $91 forward single #
loop $-1 $92 $93 $40 #
cone-surface $-1 -28.100656018434826 -13.08522507974665 1.7300762623634371 0 0.55919291073839883 -0.82903756765294845 1.5 0 0 1 I I 0 1 1.5 forward I I I I #
face $-1 $94 $95 $32 $-1 $96 forward single #
loop $-1 $97 $98 $41 #
cone-surface $-1 -23.529354515262028 -13.08522507974665 1.7300762623634371 0 0.55919291073839883 -0.82903756765294845 1.5 0 0 1 I I 0 1 1.5 forward I I I I #
face $-1 $99 $100 $33 $-1 $101 reversed single #
loop $-1 $-1 $102 $42 #
plane-surface $-1 -26.740569935708869 55.587071033147588 84.654552958380535 1 0 0 0 -0.73135370988377701 -0.68199835119979291 forward_v I I I I #
face $-1 $103 $104 $34 $-1 $105 forward single #
loop $-1 $106 $107 $43 #
cone-surface $-1 -22.861560830955344 14.918310620072729 2.9764887240727158 0 -0.73135370988377701 -0.68199835119979291 1 0 0 1 I I 0 1 1 forward I I I I #
face $-1 $108 $109 $35 $-1 $110 forward single #
loop $-1 $111 $112 $44 #
cone-surface $-1 -17.043047173825052 14.918310620072729 2.9764887240727158 0 -0.73135370988377701 -0.68199835119979291 1 0 0 1 I I 0 1 1 forward I I I I #
face $-1 $113 $114 $27 $-1 $115 reversed single #
loop $-1 $-1 $116 $45 #
plane-surface $-1 0 0 -5.4363941237774469 0 0 1 1 0 0 forward_v I I I I #
coedge $-1 $117 $118 $119 $120 forward $46 $-1 #
face $-1 $121 $122 $28 $-1 $123 reversed single #
loop $-1 $-1 $124 $48 #
plane-surface $-1 -39.012735216531254 -6.4191204126353298 0 0 -1 0 0 0 -1 forward_v I I I I #
coedge $-1 $125 $126 $127 $128 reversed $49 $-1 #
face $-1 $129 $130 $29 $-1 $131 reversed single #
loop $-1 $-1 $132 $51 #
plane-surface $-1 -28.100656018434826 -17.291908660190231 1.2120627647235267 0 -0.55919291073839883 0.82903756765294845 1 0 0 forward_v I I I I #
coedge $-1 $133 $134 $135 $136 reversed $52 $-1 #
face $-1 $-1 $137 $30 $-1 $138 forward single #
loop $-1 $139 $140 $54 #
cone-surface $-1 -32.671957521607624 -11.590561152534104 -0.48585409526332946 0 0.55919291073839883 -0.82903756765294845 0.75 0 0 1 I I -0.70710678118654757 0.70710678118654757 0.75 forward I I I I #
loop $-1 $-1 $141 $39 #
coedge $-1 $88 $88 $142 $143 reversed $55 $-1 #
face $-1 $-1 $144 $31 $-1 $145 forward single #
loop $-1 $146 $147 $57 #
cone-surface $-1 -28.100656018434826 -11.590561152534104 -0.48585409526332946 0 0.55919291073839883 -0.82903756765294845 0.75 0 0 1 I I -0.70710678118654757 0.70710678118654757 0.75 forward I I I I #
loop $-1 $-1 $148 $40 #
coedge $-1 $93 $93 $149 $150 reversed $58 $-1 #
face $-1 $-1 $151 $32 $-1 $152 forward single #
loop $-1 $153 $154 $60 #
cone-surface $-1 -23.529354515262028 -11.590561152534104 -0.48585409526332946 0 0.55919291073839883 -0.82903756765294845 0.75 0 0 1 I I -0.70710678118654757 0.70710678118654757 0.75 forward I I I I #
loop $-1 $-1 $155 $41 #
coedge $-1 $98 $98 $156 $157 reversed $61 $-1 #
face $-1 $158 $159 $33 $-1 $160 reversed single #
loop $-1 $-1 $161 $63 #
plane-surface $-1 -19.9523040023902 -6.2941977305040666 26.949337688920366 0 0.73135370988377701 0.68199835119979291 1 0 0 forward_v I I I I #
coedge $-1 $162 $163 $164 $165 reversed $64 $-1 #
face $-1 $-1 $166 $34 $-1 $167 forward single #
loop $-1 $168 $169 $66 #
cone-surface $-1 -22.861560830955344 13.94151695319756 2.065613915798167 0 -0.73135370988377701 -0.68199835119979291 0.5 0 0 1 I I -0.70710678118654746 0.70710678118654746 0.5 forward I I I I #
loop $-1 $-1 $170 $43 #
coedge $-1 $107 $107 $171 $172 reversed $67 $-1 #
face $-1 $-1 $173 $35 $-1 $174 forward single #
loop $-1 $175 $176 $69 #
cone-surface $-1 -17.043047173825052 13.94151695319756 2.065613915798167 0 -0.73135370988377701 -0.68199835119979291 0.5 0 0 1 I I -0.70710678118654746 0.70710678118654746 0.5 forward I I I I #
loop $-1 $-1 $177 $44 #
coedge $-1 $112 $112 $178 $179 reversed $70 $-1 #
face $-1 $180 $181 $27 $-1 $182 reversed single #
loop $-1 $-1 $183 $72 #
plane-surface $-1 0 -17.291908660190224 0 0 1 0 0 0 1 forward_v I I I I #
coedge $-1 $184 $185 $186 $187 forward $73 $-1 #
coedge $-1 $188 $75 $189 $190 forward $46 $-1 #
coedge $-1 $75 $188 $191 $192 forward $46 $-1 #
coedge $-1 $193 $194 $75 $120 reversed $195 $-1 #
edge $-1 $196 -17.291908660190224 $197 17.291908660190224 $119 $198 forward 7 unknown #
face $-1 $199 $200 $28 $-1 $201 reversed single #
loop $-1 $-1 $202 $76 #
plane-surface $-1 -35.719491857056155 -7.9191204126353298 0 -1 0 0 0 0 1 forward_v I I I I #
coedge $-1 $203 $204 $205 $206 forward $77 $-1 #
coedge $-1 $207 $79 $208 $209 reversed $49 $-1 #
coedge $-1 $79 $207 $210 $211 reversed $49 $-1 #
coedge $-1 $212 $213 $79 $128 forward $214 $-1 #
edge $-1 $215 -5.4363941237774469 $216 5.4363941237774469 $127 $217 forward 7 unknown #
face $-1 $218 $219 $29 $-1 $220 reversed single #
loop $-1 $-1 $221 $80 #
plane-surface $-1 -35.719491857056155 -64.606315263296892 71.358553916383627 1 0 0 0 0.55919291073839883 -0.82903756765294845 forward_v I I I I #
coedge $-1 $222 $223 $224 $225 reversed $81 $-1 #
coedge $-1 $134 $83 $226 $227 reversed $52 $-1 #
coedge $-1 $83 $133 $222 $228 reversed $52 $-1 #
coedge $-1 $224 $229 $83 $136 forward $230 $-1 #
edge $-1 $231 15.011248971458222 $232 21.274077644027884 $135 $233 forward 7 unknown #
loop $-1 $-1 $142 $84 #
plane-surface $-1 -28.100656018434826 -17.291908660190231 1.2120627647235267 0 -0.55919291073839883 0.82903756765294845 1 0 0 forward_v I I I I #
loop $-1 $-1 $234 $54 #
coedge $-1 $140 $140 $141 $235 reversed $85 $-1 #
coedge $-1 $141 $141 $140 $235 forward $87 $-1 #
coedge $-1 $142 $142 $88 $143 forward $137 $-1 #
edge $-1 $236 -6.391205358476991e-016 $236 6.2831853071795996 $142 $237 forward 7 unknown #
loop $-1 $-1 $149 $89 #
plane-surface $-1 -28.100656018434826 -17.291908660190231 1.2120627647235267 0 -0.55919291073839883 0.82903756765294845 1 0 0 forward_v I I I I #
loop $-1 $-1 $238 $57 #
coedge $-1 $147 $147 $148 $239 reversed $90 $-1 #
coedge $-1 $148 $148 $147 $239 forward $92 $-1 #
coedge $-1 $149 $149 $93 $150 forward $144 $-1 #
edge $-1 $240 -6.391205358476991e-016 $240 6.2831853071795996 $149 $241 forward 7 unknown #
loop $-1 $-1 $156 $94 #
plane-surface $-1 -28.100656018434826 -17.291908660190231 1.2120627647235267 0 -0.55919291073839883 0.82903756765294845 1 0 0 forward_v I I I I #
loop $-1 $-1 $242 $60 #
coedge $-1 $154 $154 $155 $243 reversed $95 $-1 #
coedge $-1 $155 $155 $154 $243 forward $97 $-1 #
coedge $-1 $156 $156 $98 $157 forward $151 $-1 #
edge $-1 $244 -6.391205358476991e-016 $244 6.2831853071795996 $156 $245 forward 7 unknown #
face $-1 $246 $247 $33 $-1 $248 reversed single #
loop $-1 $-1 $249 $99 #
plane-surface $-1 -13.164038069071529 55.587071033147588 84.654552958380535 -1 0 0 0 0.73135370988377701 0.68199835119979291 forward_v I I I I #
coedge $-1 $250 $251 $252 $253 reversed $100 $-1 #
coedge $-1 $163 $102 $254 $255 reversed $64 $-1 #
coedge $-1 $102 $162 $250 $256 reversed $64 $-1 #
coedge $-1 $252 $257 $102 $165 forward $258 $-1 #
edge $-1 $259 10.50162685638357 $260 14.026589312751977 $164 $261 forward 7 unknown #
loop $-1 $-1 $171 $103 #
plane-surface $-1 -19.9523040023902 -6.2941977305040666 26.949337688920366 0 0.73135370988377701 0.68199835119979291 1 0 0 forward_v I I I I #
loop $-1 $-1 $262 $66 #
coedge $-1 $169 $169 $170 $263 reversed $104 $-1 #
coedge $-1 $170 $170 $169 $263 forward $106 $-1 #
coedge $-1 $171 $171 $107 $172 forward $166 $-1 #
edge $-1 $264 -7.7310879081670816e-016 $264 6.2831853071795996 $171 $265 forward 7 unknown #
loop $-1 $-1 $178 $108 #
plane-surface $-1 -19.9523040023902 -6.2941977305040666 26.949337688920366 0 0.73135370988377701 0.68199835119979291 1 0 0 forward_v I I I I #
loop $-1 $-1 $266 $69 #
coedge $-1 $176 $176 $177 $267 reversed $109 $-1 #
coedge $-1 $177 $177 $176 $267 forward $111 $-1 #
coedge $-1 $178 $178 $112 $179 forward $173 $-1 #
edge $-1 $268 -7.7310879081670816e-016 $268 6.2831853071795996 $178 $269 forward 7 unknown #
face $-1 $270 $271 $27 $-1 $272 reversed single #
loop $-1 $-1 $273 $113 #
plane-surface $-1 -42.305978576006346 0 0 1 0 0 0 0 -1 forward_v I I I I #
coedge $-1 $274 $191 $275 $276 forward $114 $-1 #
coedge $-1 $277 $116 $274 $278 forward $73 $-1 #
coedge $-1 $116 $277 $279 $280 forward $73 $-1 #
coedge $-1 $194 $193 $116 $187 reversed $195 $-1 #
edge $-1 $281 -17.291908660190224 $282 17.291908660190224 $186 $283 forward 7 unknown #
coedge $-1 $118 $117 $284 $285 forward $46 $-1 #
coedge $-1 $286 $287 $117 $190 reversed $271 $-1 #
edge $-1 $197 -42.305978576006346 $288 42.305978576006346 $189 $289 forward 7 unknown #
coedge $-1 $183 $290 $118 $192 reversed $114 $-1 #
edge $-1 $291 -42.305978576006346 $196 42.305978576006346 $191 $292 forward 7 unknown #
coedge $-1 $186 $119 $290 $293 forward $195 $-1 #
coedge $-1 $119 $186 $286 $294 reversed $195 $-1 #
loop $-1 $-1 $193 $270 #
vertex $-1 $120 $295 #
vertex $-1 $120 $296 #
straight-curve $-1 42.305978576006346 0 5.4363941237774469 0 1 0 I I #
face $-1 $297 $298 $28 $-1 $299 forward single #
loop $-1 $-1 $300 $121 #
plane-surface $-1 0 0 -5.4363941237774469 0 0 1 1 0 0 forward_v I I I I #
coedge $-1 $301 $302 $207 $303 forward $122 $-1 #
coedge $-1 $304 $124 $300 $305 reversed $77 $-1 #
coedge $-1 $124 $304 $306 $307 reversed $77 $-1 #
coedge $-1 $302 $301 $124 $206 reversed $122 $-1 #
edge $-1 $308 -5.4363941237774469 $309 5.4363941237774469 $205 $310 forward 7 unknown #
coedge $-1 $126 $125 $202 $303 reversed $49 $-1 #
coedge $-1 $311 $312 $125 $209 forward $200 $-1 #
edge $-1 $313 16.213124248790528 $215 22.799610967740726 $208 $314 forward 7 unknown #
coedge $-1 $315 $316 $126 $211 forward $298 $-1 #
edge $-1 $216 -22.799610967740726 $317 -16.213124248790528 $210 $318 forward 7 unknown #
coedge $-1 $319 $127 $316 $320 reversed $214 $-1 #
coedge $-1 $127 $319 $311 $321 reversed $214 $-1 #
loop $-1 $-1 $319 $297 #
vertex $-1 $321 $322 #
vertex $-1 $128 $323 #
straight-curve $-1 -42.305978576006346 -9.4191204126353298 0 0 0 1 I I #
face $-1 $-1 $230 $29 $-1 $324 forward single #
loop $-1 $-1 $325 $129 #
plane-surface $-1 0 -17.291908660190224 0 0 1 0 0 0 1 forward_v I I I I #
coedge $-1 $326 $327 $328 $329 reversed $130 $-1 #
coedge $-1 $330 $132 $134 $228 forward $81 $-1 #
coedge $-1 $132 $330 $326 $331 forward $81 $-1 #
coedge $-1 $328 $135 $132 $225 forward $230 $-1 #
edge $-1 $232 6.4314921705960835 $332 21.669163847838742 $224 $333 forward 7 unknown #
coedge $-1 $334 $335 $133 $227 forward $219 $-1 #
edge $-1 $336 -34.46721419346828 $231 -30.242882834414367 $226 $337 forward 7 unknown #
edge $-1 $232 -7.5543363979271589 $336 -8.6223131303995443e-015 $134 $338 forward 7 unknown #
coedge $-1 $135 $328 $334 $339 forward $230 $-1 #
loop $-1 $-1 $328 $218 #
vertex $-1 $227 $340 #
vertex $-1 $136 $341 #
straight-curve $-1 -20.481820179813496 -32.303157631648446 5.4363941237774469 0 1 0 I I #
coedge $-1 $234 $234 $-1 $342 reversed $139 $-1 #
edge $-1 $343 0 $343 6.2831853071796004 $140 $344 forward 7 unknown #
vertex $-1 $143 $345 #
ellipse-curve $-1 -32.671957521607624 -14.160494323905393 3.3242284442504886 0 -0.55919291073839883 0.82903756765294845 1.5 0 0 1 I I #
coedge $-1 $238 $238 $-1 $346 reversed $146 $-1 #
edge $-1 $347 0 $347 6.2831853071796004 $147 $348 forward 7 unknown #
vertex $-1 $150 $349 #
ellipse-curve $-1 -28.100656018434826 -14.160494323905393 3.3242284442504886 0 -0.55919291073839883 0.82903756765294845 1.5 0 0 1 I I #
coedge $-1 $242 $242 $-1 $350 reversed $153 $-1 #
edge $-1 $351 0 $351 6.2831853071796004 $154 $352 forward 7 unknown #
vertex $-1 $157 $353 #
ellipse-curve $-1 -23.529354515262028 -14.160494323905393 3.3242284442504886 0 -0.55919291073839883 0.82903756765294845 1.5 0 0 1 I I #
face $-1 $-1 $258 $33 $-1 $354 forward single #
loop $-1 $-1 $355 $158 #
plane-surface $-1 0 17.291908660190224 0 0 -1 0 0 0 -1 forward_v I I I I #
coedge $-1 $356 $357 $358 $359 reversed $159 $-1 #
coedge $-1 $360 $161 $163 $256 forward $100 $-1 #
coedge $-1 $161 $360 $356 $361 forward $100 $-1 #
coedge $-1 $358 $164 $161 $253 forward $258 $-1 #
edge $-1 $260 -16.764417934513769 $362 -3.1878860678764287 $252 $363 forward 7 unknown #
coedge $-1 $364 $365 $162 $255 forward $247 $-1 #
edge $-1 $366 -40.67094188947295 $259 -36.89088235541282 $254 $367 forward 7 unknown #
edge $-1 $260 29.415238173279583 $366 34.583817320380419 $163 $368 forward 7 unknown #
coedge $-1 $164 $358 $364 $369 forward $258 $-1 #
loop $-1 $-1 $358 $246 #
vertex $-1 $255 $370 #
vertex $-1 $165 $371 #
straight-curve $-1 -26.740569935708869 27.793535516573794 5.4363941237774469 0 -1 0 I I #
coedge $-1 $262 $262 $-1 $372 reversed $168 $-1 #
edge $-1 $373 0 $373 6.2831853071796004 $169 $374 forward 7 unknown #
vertex $-1 $172 $375 #
ellipse-curve $-1 -22.861560830955344 15.52942743200602 3.546364356747377 0 0.73135370988377701 0.68199835119979291 1 0 0 1 I I #
coedge $-1 $266 $266 $-1 $376 reversed $175 $-1 #
edge $-1 $377 0 $377 6.2831853071796004 $176 $378 forward 7 unknown #
vertex $-1 $179 $379 #
ellipse-curve $-1 -17.043047173825052 15.52942743200602 3.546364356747377 0 0.73135370988377701 0.68199835119979291 1 0 0 1 I I #
face $-1 $-1 $195 $27 $-1 $380 reversed single #
loop $-1 $-1 $286 $180 #
plane-surface $-1 0 17.291908660190224 0 0 -1 0 0 0 -1 forward_v I I I I #
coedge $-1 $381 $284 $287 $382 forward $181 $-1 #
coedge $-1 $290 $183 $184 $278 reversed $114 $-1 #
coedge $-1 $284 $381 $183 $276 reversed $181 $-1 #
edge $-1 $291 -5.4363941237774469 $383 5.4363941237774469 $275 $384 forward 7 unknown #
coedge $-1 $185 $184 $381 $385 forward $73 $-1 #
edge $-1 $282 -42.305978576006346 $383 42.305978576006346 $274 $386 forward 7 unknown #
coedge $-1 $287 $286 $185 $280 reversed $271 $-1 #
edge $-1 $387 -42.305978576006346 $281 42.305978576006346 $279 $388 forward 7 unknown #
vertex $-1 $187 $389 #
vertex $-1 $293 $390 #
straight-curve $-1 42.305978576006346 0 -5.4363941237774469 0 -1 0 I I #
coedge $-1 $273 $275 $188 $285 reversed $181 $-1 #
edge $-1 $288 -17.291908660190224 $291 17.291908660190224 $284 $391 forward 7 unknown #
coedge $-1 $279 $189 $194 $294 forward $271 $-1 #
coedge $-1 $189 $279 $273 $382 reversed $271 $-1 #
vertex $-1 $190 $392 #
straight-curve $-1 0 17.291908660190224 5.4363941237774469 -1 0 0 I I #
coedge $-1 $191 $274 $193 $293 reversed $114 $-1 #
vertex $-1 $285 $393 #
straight-curve $-1 0 -17.291908660190224 5.4363941237774469 1 0 0 I I #
edge $-1 $196 -5.4363941237774469 $282 5.4363941237774469 $193 $394 forward 7 unknown #
edge $-1 $197 -5.4363941237774469 $281 5.4363941237774469 $194 $395 forward 7 unknown #
point $-1 42.305978576006346 -17.291908660190224 5.4363941237774469 #
point $-1 42.305978576006346 17.291908660190224 5.4363941237774469 #
face $-1 $-1 $214 $28 $-1 $396 reversed single #
loop $-1 $-1 $306 $199 #
plane-surface $-1 0 0 5.4363941237774469 0 0 1 1 0 0 forward_v I I I I #
coedge $-1 $312 $311 $203 $305 forward $200 $-1 #
coedge $-1 $205 $202 $312 $397 reversed $122 $-1 #
coedge $-1 $202 $205 $315 $398 reversed $122 $-1 #
edge $-1 $317 -5.4363941237774469 $313 5.4363941237774469 $202 $399 forward 7 unknown #
coedge $-1 $204 $203 $319 $400 reversed $77 $-1 #
edge $-1 $401 -22.799610967740726 $309 -16.213124248790528 $300 $402 forward 7 unknown #
coedge $-1 $316 $315 $204 $307 forward $298 $-1 #
edge $-1 $308 16.213124248790528 $403 22.799610967740726 $306 $404 forward 7 unknown #
vertex $-1 $307 $405 #
vertex $-1 $305 $406 #
straight-curve $-1 -35.719491857056155 -6.4191204126353298 0 0 0 -1 I I #
coedge $-1 $300 $208 $213 $321 forward $200 $-1 #
coedge $-1 $208 $300 $301 $397 forward $200 $-1 #
vertex $-1 $209 $407 #
straight-curve $-1 -19.506367608265627 -9.4191204126353298 -5.4363941237774469 -1 0 0 I I #
coedge $-1 $306 $210 $302 $398 forward $298 $-1 #
coedge $-1 $210 $306 $212 $320 forward $298 $-1 #
vertex $-1 $211 $408 #
straight-curve $-1 -19.506367608265627 -9.4191204126353298 5.4363941237774469 1 0 0 I I #
coedge $-1 $213 $212 $304 $400 forward $214 $-1 #
edge $-1 $403 6.4191204126353298 $216 9.4191204126353298 $212 $409 forward 7 unknown #
edge $-1 $215 -9.4191204126353298 $401 -6.4191204126353298 $213 $410 forward 7 unknown #
point $-1 -42.305978576006353 -9.4191204126353298 -5.4363941237774469 #
point $-1 -42.305978576006353 -9.4191204126353298 5.4363941237774469 #
plane-surface $-1 0 0 5.4363941237774469 0 0 1 1 0 0 forward_v I I I I #
coedge $-1 $335 $334 $327 $411 forward $219 $-1 #
coedge $-1 $327 $221 $223 $331 reversed $130 $-1 #
coedge $-1 $221 $326 $325 $411 reversed $130 $-1 #
coedge $-1 $229 $224 $221 $329 forward $230 $-1 #
edge $-1 $332 -21.274077644027884 $412 -15.011248971458222 $328 $413 forward 7 unknown #
coedge $-1 $223 $222 $335 $414 reversed $81 $-1 #
edge $-1 $415 8.6223131303995443e-015 $332 7.5543363979271589 $326 $416 forward 7 unknown #
vertex $-1 $225 $417 #
straight-curve $-1 -14.050328009217413 -11.029079987620559 5.4363941237774469 -1 0 0 I I #
coedge $-1 $325 $226 $229 $339 reversed $219 $-1 #
coedge $-1 $226 $325 $330 $414 forward $219 $-1 #
vertex $-1 $227 $418 #
straight-curve $-1 -20.481820179813496 -17.291908660190224 35.679276958191814 0 0 1 I I #
straight-curve $-1 -20.481820179813496 -17.291908660190231 1.2120627647235267 0 -0.82903756765294845 -0.55919291073839883 I I #
edge $-1 $412 -35.719491857056155 $231 -20.481820179813496 $334 $419 forward 7 unknown #
point $-1 -20.481820179813496 -17.291908660190224 5.4363941237774469 #
point $-1 -20.481820179813496 -11.029079987620563 5.4363941237774469 #
edge $-1 $420 1 $420 0 $234 $-1 forward 7 unknown #
vertex $-1 $235 $421 #
ellipse-curve $-1 -32.671957521607624 -12.009955835587903 0.13592408047638194 0 -0.55919291073839883 0.82903756765294845 1.5 0 0 1 I I #
point $-1 -31.171957521607624 -14.160494323905397 3.3242284442504921 #
edge $-1 $422 1 $422 0 $238 $-1 forward 7 unknown #
vertex $-1 $239 $423 #
ellipse-curve $-1 -28.100656018434826 -12.009955835587903 0.13592408047638194 0 -0.55919291073839883 0.82903756765294845 1.5 0 0 1 I I #
point $-1 -26.600656018434826 -14.160494323905397 3.3242284442504921 #
edge $-1 $424 1 $424 0 $242 $-1 forward 7 unknown #
vertex $-1 $243 $425 #
ellipse-curve $-1 -23.529354515262028 -12.009955835587903 0.13592408047638194 0 -0.55919291073839883 0.82903756765294845 1.5 0 0 1 I I #
point $-1 -22.029354515262028 -14.160494323905397 3.3242284442504921 #
plane-surface $-1 0 0 5.4363941237774469 0 0 1 1 0 0 forward_v I I I I #
coedge $-1 $365 $364 $357 $426 forward $247 $-1 #
coedge $-1 $357 $249 $251 $361 reversed $159 $-1 #
coedge $-1 $249 $356 $355 $426 reversed $159 $-1 #
coedge $-1 $257 $252 $249 $359 forward $258 $-1 #
edge $-1 $362 -14.026589312751977 $427 -10.50162685638357 $358 $428 forward 7 unknown #
coedge $-1 $251 $250 $365 $429 reversed $100 $-1 #
edge $-1 $430 -34.583817320380419 $362 -29.415238173279583 $356 $431 forward 7 unknown #
vertex $-1 $253 $432 #
straight-curve $-1 -9.9761520011950999 13.766946203821821 5.4363941237774451 1 0 0 I I #
coedge $-1 $355 $254 $257 $369 reversed $247 $-1 #
coedge $-1 $254 $355 $360 $429 forward $247 $-1 #
vertex $-1 $255 $433 #
straight-curve $-1 -26.740569935708869 17.291908660190224 42.327276479190267 0 0 1 I I #
straight-curve $-1 -26.740569935708869 -6.2941977305040666 26.949337688920366 0 0.68199835119979291 -0.73135370988377701 I I #
edge $-1 $427 13.164038069071529 $259 26.740569935708869 $364 $434 forward 7 unknown #
point $-1 -26.740569935708869 17.291908660190224 5.4363941237774469 #
point $-1 -26.740569935708869 13.766946203821817 5.4363941237774469 #
edge $-1 $435 1 $435 0 $262 $-1 forward 7 unknown #
vertex $-1 $263 $436 #
ellipse-curve $-1 -22.861560830955344 14.307193808139449 2.4066130913980635 0 0.73135370988377701 0.68199835119979291 1 0 0 1 I I #
point $-1 -21.861560830955344 15.52942743200601 3.5463643567473682 #
edge $-1 $437 1 $437 0 $266 $-1 forward 7 unknown #
vertex $-1 $267 $438 #
ellipse-curve $-1 -17.043047173825052 14.307193808139449 2.4066130913980635 0 0.73135370988377701 0.68199835119979291 1 0 0 1 I I #
point $-1 -16.043047173825052 15.52942743200601 3.5463643567473682 #
plane-surface $-1 42.305978576006346 0 0 -1 0 0 0 0 1 forward_v I I I I #
coedge $-1 $275 $273 $277 $385 reversed $181 $-1 #
edge $-1 $288 -5.4363941237774469 $387 5.4363941237774469 $287 $439 forward 7 unknown #
vertex $-1 $385 $440 #
straight-curve $-1 -42.305978576006346 -17.291908660190224 0 0 0 -1 I I #
edge $-1 $383 -17.291908660190224 $387 17.291908660190224 $381 $441 forward 7 unknown #
straight-curve $-1 0 -17.291908660190224 -5.4363941237774469 -1 0 0 I I #
vertex $-1 $280 $442 #
straight-curve $-1 0 17.291908660190224 -5.4363941237774469 1 0 0 I I #
point $-1 42.305978576006346 17.291908660190224 -5.4363941237774469 #
point $-1 42.305978576006346 -17.291908660190224 -5.4363941237774469 #
straight-curve $-1 -42.305978576006346 0 5.4363941237774469 0 -1 0 I I #
point $-1 -42.305978576006346 17.291908660190224 5.4363941237774469 #
point $-1 -42.305978576006346 -17.291908660190224 5.4363941237774469 #
straight-curve $-1 42.305978576006346 -17.291908660190224 0 0 0 -1 I I #
straight-curve $-1 42.305978576006346 17.291908660190224 0 0 0 -1 I I #
plane-surface $-1 -42.305978576006346 0 0 1 0 0 0 0 -1 forward_v I I I I #
edge $-1 $309 2.4595602063176649 $313 5.4595602063176649 $312 $443 forward 7 unknown #
edge $-1 $317 -5.4595602063176649 $308 -2.4595602063176649 $315 $444 forward 7 unknown #
straight-curve $-1 -35.719491857056155 -9.4191204126353298 0 0 0 -1 I I #
edge $-1 $403 -5.4363941237774469 $401 5.4363941237774469 $319 $445 forward 7 unknown #
vertex $-1 $400 $446 #
straight-curve $-1 -19.506367608265627 -6.4191204126353298 -5.4363941237774469 1 0 0 I I #
vertex $-1 $320 $447 #
straight-curve $-1 -19.506367608265627 -6.4191204126353298 5.4363941237774469 -1 0 0 I I #
point $-1 -35.719491857056155 -6.4191204126353298 5.4363941237774469 #
point $-1 -35.719491857056155 -6.4191204126353298 -5.4363941237774469 #
point $-1 -35.719491857056155 -9.4191204126353298 -5.4363941237774469 #
point $-1 -35.719491857056155 -9.4191204126353298 5.4363941237774469 #
straight-curve $-1 -42.305978576006346 0 5.4363941237774469 0 -1 0 I I #
straight-curve $-1 -42.305978576006346 0 -5.4363941237774469 0 1 0 I I #
edge $-1 $412 30.242882834414367 $415 34.46721419346828 $325 $448 forward 7 unknown #
vertex $-1 $339 $449 #
straight-curve $-1 -35.719491857056155 -32.303157631648446 5.4363941237774469 0 -1 0 I I #
edge $-1 $415 -21.669163847838742 $336 -6.4314921705960835 $335 $450 forward 7 unknown #
vertex $-1 $414 $451 #
straight-curve $-1 -35.719491857056155 -17.291908660190231 1.2120627647235267 0 0.82903756765294845 0.55919291073839883 I I #
point $-1 -35.719491857056155 -11.029079987620563 5.4363941237774469 #
point $-1 -20.481820179813496 -17.291908660190224 1.2120627647235316 #
straight-curve $-1 0 -17.291908660190224 5.4363941237774469 1 0 0 I I #
vertex $-1 $342 $452 #
point $-1 -31.171957521607624 -12.009955835587903 0.13592408047638194 #
vertex $-1 $346 $453 #
point $-1 -26.600656018434826 -12.009955835587903 0.13592408047638194 #
vertex $-1 $350 $454 #
point $-1 -22.029354515262028 -12.009955835587903 0.13592408047638194 #
edge $-1 $427 36.89088235541282 $430 40.67094188947295 $355 $455 forward 7 unknown #
vertex $-1 $369 $456 #
straight-curve $-1 -13.164038069071529 27.793535516573794 5.4363941237774469 0 1 0 I I #
edge $-1 $430 3.1878860678764287 $366 16.764417934513769 $365 $457 forward 7 unknown #
vertex $-1 $429 $458 #
straight-curve $-1 -13.164038069071529 -6.2941977305040666 26.949337688920366 0 -0.68199835119979291 0.73135370988377701 I I #
point $-1 -13.164038069071529 13.766946203821817 5.4363941237774469 #
point $-1 -26.740569935708869 17.291908660190224 1.6563345897173178 #
straight-curve $-1 0 17.291908660190224 5.4363941237774469 -1 0 0 I I #
vertex $-1 $372 $459 #
point $-1 -21.861560830955344 14.307193808139449 2.4066130913980635 #
vertex $-1 $376 $460 #
point $-1 -16.043047173825052 14.307193808139449 2.4066130913980635 #
straight-curve $-1 -42.305978576006346 17.291908660190224 0 0 0 -1 I I #
point $-1 -42.305978576006346 -17.291908660190224 -5.4363941237774469 #
straight-curve $-1 -42.305978576006346 0 -5.4363941237774469 0 1 0 I I #
point $-1 -42.305978576006346 17.291908660190224 -5.4363941237774469 #
straight-curve $-1 -35.719491857056155 -3.9595602063176649 -5.4363941237774469 0 -1 0 I I #
straight-curve $-1 -35.719491857056155 -3.9595602063176649 5.4363941237774469 0 1 0 I I #
straight-curve $-1 -42.305978576006346 -6.4191204126353298 0 0 0 -1 I I #
point $-1 -42.305978576006353 -6.4191204126353298 -5.4363941237774469 #
point $-1 -42.305978576006353 -6.4191204126353298 5.4363941237774469 #
straight-curve $-1 -35.719491857056155 -17.291908660190224 35.679276958191814 0 0 -1 I I #
point $-1 -35.719491857056155 -17.291908660190224 5.4363941237774469 #
straight-curve $-1 -14.050328009217413 -17.291908660190224 1.2120627647235311 1 0 0 I I #
point $-1 -35.719491857056155 -17.291908660190224 1.2120627647235316 #
point $-1 -32.671957521607624 -11.171166469480305 -1.1076322710030408 #
point $-1 -28.100656018434826 -11.171166469480305 -1.1076322710030408 #
point $-1 -23.529354515262028 -11.171166469480305 -1.1076322710030408 #
straight-curve $-1 -13.164038069071529 17.291908660190224 42.327276479190267 0 0 -1 I I #
point $-1 -13.164038069071529 17.291908660190224 5.4363941237774469 #
straight-curve $-1 -9.9761520011950999 17.291908660190224 1.6563345897173161 -1 0 0 I I #
point $-1 -13.164038069071529 17.291908660190224 1.6563345897173178 #
point $-1 -22.861560830955344 13.575840098255672 1.7246147401982705 #
point $-1 -17.043047173825052 13.575840098255672 1.7246147401982705 #
End-of-ACIS-data 