500 0 9 0           
7 Unknown 11 ACIS 5.0 NT 24 Fri Mar 26 01:55:53 1999 
-1 9.9999999999999995e-007 1e-010 
body $-1 $9 $-1 $10 #
body $-1 $11 $-1 $12 #
body $-1 $13 $-1 $14 #
body $-1 $15 $-1 $16 #
body $-1 $17 $-1 $18 #
body $-1 $19 $-1 $20 #
body $-1 $21 $-1 $22 #
body $-1 $23 $-1 $24 #
body $-1 $25 $-1 $26 #
lump $-1 $-1 $27 $0 #
transform $-1 1 0 0 0 1 0 0 0 1 64.563737907040618 28.989742933589174 13.540962325555052 1 rotate no_reflect no_shear #
lump $-1 $-1 $28 $1 #
transform $-1 1 0 0 0 1 0 0 0 1 64.563737907040618 28.989742933589174 13.540962325555052 1 rotate no_reflect no_shear #
lump $-1 $-1 $29 $2 #
transform $-1 1 0 0 0 1 0 0 0 1 64.563737907040618 28.989742933589174 13.540962325555052 1 rotate no_reflect no_shear #
lump $-1 $-1 $30 $3 #
transform $-1 1 0 0 0 1 0 0 0 1 64.563737907040618 28.989742933589174 13.540962325555052 1 rotate no_reflect no_shear #
lump $-1 $-1 $31 $4 #
transform $-1 1 0 0 0 1 0 0 0 1 64.563737907040618 28.989742933589174 13.540962325555052 1 rotate no_reflect no_shear #
lump $-1 $-1 $32 $5 #
transform $-1 1 0 0 0 1 0 0 0 1 64.563737907040618 28.989742933589174 13.540962325555052 1 rotate no_reflect no_shear #
lump $-1 $-1 $33 $6 #
transform $-1 1 0 0 0 1 0 0 0 1 64.563737907040618 28.989742933589174 13.540962325555052 1 rotate no_reflect no_shear #
lump $-1 $-1 $34 $7 #
transform $-1 1 0 0 0 1 0 0 0 1 64.563737907040618 28.989742933589174 13.540962325555052 1 rotate no_reflect no_shear #
lump $-1 $-1 $35 $8 #
transform $-1 1 0 0 0 1 0 0 0 1 64.563737907040618 28.989742933589174 13.540962325555052 1 rotate no_reflect no_shear #
shell $-1 $-1 $-1 $36 $-1 $9 #
shell $-1 $-1 $-1 $37 $-1 $11 #
shell $-1 $-1 $-1 $38 $-1 $13 #
shell $-1 $-1 $-1 $39 $-1 $15 #
shell $-1 $-1 $-1 $40 $-1 $17 #
shell $-1 $-1 $-1 $41 $-1 $19 #
shell $-1 $-1 $-1 $42 $-1 $21 #
shell $-1 $-1 $-1 $43 $-1 $23 #
shell $-1 $-1 $-1 $44 $-1 $25 #
face $-1 $45 $46 $27 $-1 $47 forward single #
face $-1 $48 $49 $28 $-1 $50 forward single #
face $-1 $51 $52 $29 $-1 $53 reversed single #
face $-1 $54 $55 $30 $-1 $56 forward single #
face $-1 $57 $58 $31 $-1 $59 forward single #
face $-1 $60 $61 $32 $-1 $62 reversed single #
face $-1 $63 $64 $33 $-1 $65 forward single #
face $-1 $66 $67 $34 $-1 $68 reversed single #
face $-1 $69 $70 $35 $-1 $71 forward single #
face $-1 $72 $73 $27 $-1 $74 reversed single #
loop $-1 $-1 $75 $36 #
plane-surface $-1 0 0 13.540962325555052 0 0 1 1 0 0 forward_v I I I I #
face $-1 $76 $77 $28 $-1 $78 reversed single #
loop $-1 $-1 $79 $37 #
plane-surface $-1 -64.563737907040618 0 0 1 0 0 0 0 -1 forward_v I I I I #
face $-1 $80 $81 $29 $-1 $82 reversed single #
loop $-1 $-1 $83 $38 #
plane-surface $-1 49.858258263116021 97.222606506685352 131.0125063514258 1 0 0 0 -0.79863551827123203 -0.60181501223851219 forward_v I I I I #
face $-1 $84 $85 $30 $-1 $86 forward single #
loop $-1 $87 $88 $39 #
cone-surface $-1 54.059823875665913 24.241818373906703 8.5491753545107692 0 -0.79863551827123203 -0.60181501223851219 2 0 0 1 I I 0 1 2 forward I I I I #
face $-1 $89 $90 $31 $-1 $91 forward single #
loop $-1 $92 $93 $40 #
cone-surface $-1 60.362172294490733 24.241818373906703 8.5491753545107692 0 -0.79863551827123203 -0.60181501223851219 2 0 0 1 I I 0 1 2 forward I I I I #
face $-1 $94 $95 $32 $-1 $96 reversed single #
loop $-1 $-1 $97 $41 #
plane-surface $-1 0.076572014384069575 -138.49605398249247 69.275443625464931 -1 0 0 0 -0.84804810408105047 0.52991925155115449 forward_v I I I I #
face $-1 $98 $99 $33 $-1 $100 forward single #
loop $-1 $101 $102 $42 #
cone-surface $-1 -12.621594902321768 -22.745902463018375 5.771048403879929 0 0.84804810408105047 -0.52991925155115449 3 0 0 1 I I 0 1 3 forward I I I I #
face $-1 $103 $104 $34 $-1 $105 reversed single #
loop $-1 $-1 $106 $43 #
plane-surface $-1 40.681577972507519 -138.49605398249247 69.275443625464931 -1 0 0 0 -0.84804810408105047 0.52991925155115449 forward_v I I I I #
face $-1 $107 $108 $35 $-1 $109 forward single #
loop $-1 $110 $111 $44 #
cone-surface $-1 27.983411055801682 -22.745902463018375 5.771048403879929 0 0.84804810408105047 -0.52991925155115449 3 0 0 1 I I 0 1 3 forward I I I I #
face $-1 $112 $113 $27 $-1 $114 reversed single #
loop $-1 $-1 $115 $45 #
plane-surface $-1 0 0 -13.540962325555052 0 0 1 1 0 0 forward_v I I I I #
coedge $-1 $116 $117 $118 $119 forward $46 $-1 #
face $-1 $120 $121 $28 $-1 $122 forward single #
loop $-1 $-1 $123 $48 #
plane-surface $-1 0 28.989742933589174 0 0 -1 0 0 0 -1 forward_v I I I I #
coedge $-1 $124 $125 $126 $127 forward $49 $-1 #
face $-1 $128 $129 $29 $-1 $130 reversed single #
loop $-1 $-1 $131 $51 #
plane-surface $-1 57.210998085078316 -5.9031820631494014 53.301652914046315 0 0.79863551827123203 0.60181501223851219 1 0 0 forward_v I I I I #
coedge $-1 $132 $133 $134 $135 reversed $52 $-1 #
face $-1 $-1 $136 $30 $-1 $137 forward single #
loop $-1 $138 $139 $54 #
cone-surface $-1 54.059823875665913 21.160806506336694 6.2274664492991132 0 -0.79863551827123203 -0.60181501223851219 1 0 0 1 I I -0.70710678118654746 0.70710678118654746 1 forward I I I I #
loop $-1 $-1 $140 $39 #
coedge $-1 $88 $88 $141 $142 reversed $55 $-1 #
face $-1 $-1 $143 $31 $-1 $144 forward single #
loop $-1 $145 $146 $57 #
cone-surface $-1 60.362172294490733 21.160806506336694 6.2274664492991132 0 -0.79863551827123203 -0.60181501223851219 1 0 0 1 I I -0.70710678118654746 0.70710678118654746 1 forward I I I I #
loop $-1 $-1 $147 $40 #
coedge $-1 $93 $93 $148 $149 reversed $58 $-1 #
face $-1 $150 $151 $32 $-1 $152 reversed single #
loop $-1 $-1 $153 $60 #
plane-surface $-1 -12.621594902321768 -28.989742933589184 0.84830828737719344 0 -0.84804810408105047 0.52991925155115449 1 0 0 forward_v I I I I #
coedge $-1 $154 $155 $156 $157 reversed $61 $-1 #
face $-1 $-1 $158 $33 $-1 $159 forward single #
loop $-1 $160 $161 $63 #
cone-surface $-1 -12.621594902321768 -19.195614955786276 3.552582623967 0 0.84804810408105047 -0.52991925155115449 1.5 0 0 1 I I -0.70710678118654757 0.70710678118654757 1.5 forward I I I I #
loop $-1 $-1 $162 $42 #
coedge $-1 $102 $102 $163 $164 reversed $64 $-1 #
face $-1 $165 $166 $34 $-1 $167 reversed single #
loop $-1 $-1 $168 $66 #
plane-surface $-1 27.983411055801682 -28.989742933589184 0.84830828737719344 0 -0.84804810408105047 0.52991925155115449 1 0 0 forward_v I I I I #
coedge $-1 $169 $170 $171 $172 reversed $67 $-1 #
face $-1 $-1 $173 $35 $-1 $174 forward single #
loop $-1 $175 $176 $69 #
cone-surface $-1 27.983411055801682 -19.195614955786276 3.552582623967 0 0.84804810408105047 -0.52991925155115449 1.5 0 0 1 I I -0.70710678118654757 0.70710678118654757 1.5 forward I I I I #
loop $-1 $-1 $177 $44 #
coedge $-1 $111 $111 $178 $179 reversed $70 $-1 #
face $-1 $180 $181 $27 $-1 $182 reversed single #
loop $-1 $-1 $183 $72 #
plane-surface $-1 0 -28.989742933589174 0 0 1 0 0 0 1 forward_v I I I I #
coedge $-1 $184 $185 $186 $187 forward $73 $-1 #
coedge $-1 $188 $75 $189 $190 forward $46 $-1 #
coedge $-1 $75 $188 $191 $192 forward $46 $-1 #
coedge $-1 $193 $194 $75 $119 reversed $195 $-1 #
edge $-1 $196 -28.989742933589174 $197 28.989742933589174 $118 $198 forward 7 unknown #
face $-1 $199 $200 $28 $-1 $201 reversed single #
loop $-1 $-1 $126 $76 #
plane-surface $-1 -72.244645983780572 0 -9.9018002896255215 0 0 1 1 0 0 forward_v I I I I #
coedge $-1 $202 $203 $125 $204 forward $77 $-1 #
coedge $-1 $205 $79 $206 $207 reversed $49 $-1 #
coedge $-1 $79 $205 $123 $204 reversed $49 $-1 #
coedge $-1 $208 $209 $79 $127 reversed $121 $-1 #
edge $-1 $210 -28.989742933589174 $211 28.989742933589174 $126 $212 forward 7 unknown #
face $-1 $213 $214 $29 $-1 $215 reversed single #
loop $-1 $-1 $216 $80 #
plane-surface $-1 64.563737907040618 0 0 -1 0 0 0 0 1 forward_v I I I I #
coedge $-1 $217 $218 $219 $220 reversed $81 $-1 #
coedge $-1 $133 $83 $221 $222 reversed $52 $-1 #
coedge $-1 $83 $132 $217 $223 reversed $52 $-1 #
coedge $-1 $219 $224 $83 $135 forward $225 $-1 #
edge $-1 $226 19.621560319753502 $227 24.552656740520881 $134 $228 forward 7 unknown #
loop $-1 $-1 $141 $84 #
plane-surface $-1 57.210998085078316 -5.9031820631494014 53.301652914046315 0 0.79863551827123203 0.60181501223851219 1 0 0 forward_v I I I I #
loop $-1 $-1 $229 $54 #
coedge $-1 $139 $139 $140 $230 reversed $85 $-1 #
coedge $-1 $140 $140 $139 $230 forward $87 $-1 #
coedge $-1 $141 $141 $88 $142 forward $136 $-1 #
edge $-1 $231 -1.0083928483652995e-017 $231 6.2831853071796004 $141 $232 forward 7 unknown #
loop $-1 $-1 $148 $89 #
plane-surface $-1 57.210998085078316 -5.9031820631494014 53.301652914046315 0 0.79863551827123203 0.60181501223851219 1 0 0 forward_v I I I I #
loop $-1 $-1 $233 $57 #
coedge $-1 $146 $146 $147 $234 reversed $90 $-1 #
coedge $-1 $147 $147 $146 $234 forward $92 $-1 #
coedge $-1 $148 $148 $93 $149 forward $143 $-1 #
edge $-1 $235 -1.0083928483652995e-017 $235 6.2831853071796004 $148 $236 forward 7 unknown #
face $-1 $237 $238 $32 $-1 $239 forward single #
loop $-1 $-1 $240 $94 #
plane-surface $-1 -25.319761819027605 -138.49605398249247 69.275443625464931 1 0 0 0 0.84804810408105047 -0.52991925155115449 forward_v I I I I #
coedge $-1 $241 $242 $243 $244 reversed $95 $-1 #
coedge $-1 $155 $97 $245 $246 reversed $61 $-1 #
coedge $-1 $97 $154 $241 $247 reversed $61 $-1 #
coedge $-1 $243 $248 $97 $157 forward $238 $-1 #
edge $-1 $249 40.258284057657065 $250 48.189534296577598 $156 $251 forward 7 unknown #
loop $-1 $-1 $163 $98 #
plane-surface $-1 -12.621594902321768 -28.989742933589184 0.84830828737719344 0 -0.84804810408105047 0.52991925155115449 1 0 0 forward_v I I I I #
loop $-1 $-1 $252 $63 #
coedge $-1 $161 $161 $162 $253 reversed $99 $-1 #
coedge $-1 $162 $162 $161 $253 forward $101 $-1 #
coedge $-1 $163 $163 $102 $164 forward $158 $-1 #
edge $-1 $254 -2.6245909031786177e-019 $254 6.2831853071796004 $163 $255 forward 7 unknown #
face $-1 $256 $257 $34 $-1 $258 reversed single #
loop $-1 $-1 $259 $103 #
plane-surface $-1 15.285244139095845 -138.49605398249247 69.275443625464931 1 0 0 0 0.84804810408105047 -0.52991925155115449 forward_v I I I I #
coedge $-1 $260 $261 $262 $263 reversed $104 $-1 #
coedge $-1 $170 $106 $264 $265 reversed $67 $-1 #
coedge $-1 $106 $169 $260 $266 reversed $67 $-1 #
coedge $-1 $262 $267 $106 $172 forward $268 $-1 #
edge $-1 $269 40.258284057657065 $270 48.189534296577598 $171 $271 forward 7 unknown #
loop $-1 $-1 $178 $107 #
plane-surface $-1 27.983411055801682 -28.989742933589184 0.84830828737719344 0 -0.84804810408105047 0.52991925155115449 1 0 0 forward_v I I I I #
loop $-1 $-1 $272 $69 #
coedge $-1 $176 $176 $177 $273 reversed $108 $-1 #
coedge $-1 $177 $177 $176 $273 forward $110 $-1 #
coedge $-1 $178 $178 $111 $179 forward $173 $-1 #
edge $-1 $274 -2.6245909031786177e-019 $274 6.2831853071796004 $178 $275 forward 7 unknown #
face $-1 $276 $277 $27 $-1 $278 reversed single #
loop $-1 $-1 $279 $112 #
plane-surface $-1 -64.563737907040618 0 0 1 0 0 0 0 -1 forward_v I I I I #
coedge $-1 $280 $191 $281 $282 forward $113 $-1 #
coedge $-1 $283 $115 $280 $284 forward $73 $-1 #
coedge $-1 $115 $283 $285 $286 forward $73 $-1 #
coedge $-1 $194 $193 $115 $187 reversed $195 $-1 #
edge $-1 $287 -28.989742933589174 $288 28.989742933589174 $186 $289 forward 7 unknown #
coedge $-1 $117 $116 $290 $291 forward $46 $-1 #
coedge $-1 $292 $293 $116 $190 reversed $277 $-1 #
edge $-1 $197 -64.563737907040618 $294 64.563737907040618 $189 $295 forward 7 unknown #
coedge $-1 $183 $296 $117 $192 reversed $113 $-1 #
edge $-1 $297 -64.563737907040618 $196 64.563737907040618 $191 $298 forward 7 unknown #
coedge $-1 $186 $118 $296 $299 forward $195 $-1 #
coedge $-1 $118 $186 $292 $300 reversed $195 $-1 #
loop $-1 $-1 $193 $276 #
vertex $-1 $119 $301 #
vertex $-1 $119 $302 #
straight-curve $-1 64.563737907040618 0 13.540962325555052 0 1 0 I I #
face $-1 $303 $304 $28 $-1 $305 reversed single #
loop $-1 $-1 $306 $120 #
plane-surface $-1 -79.925554060520525 0 -11.721381307590287 1 0 0 0 0 -1 forward_v I I I I #
coedge $-1 $307 $123 $308 $309 reversed $77 $-1 #
coedge $-1 $123 $307 $208 $310 reversed $77 $-1 #
edge $-1 $210 9.9018002896255215 $311 13.540962325555052 $123 $312 forward 7 unknown #
coedge $-1 $125 $124 $313 $314 reversed $49 $-1 #
coedge $-1 $315 $316 $124 $207 forward $317 $-1 #
edge $-1 $318 -13.540962325555052 $211 -9.9018002896255215 $206 $319 forward 7 unknown #
coedge $-1 $320 $126 $203 $310 forward $121 $-1 #
coedge $-1 $126 $320 $315 $321 forward $121 $-1 #
vertex $-1 $204 $322 #
vertex $-1 $321 $323 #
straight-curve $-1 -64.563737907040618 0 -9.9018002896255215 0 -1 0 I I #
face $-1 $-1 $225 $29 $-1 $324 forward single #
loop $-1 $-1 $325 $128 #
plane-surface $-1 0 28.989742933589174 0 0 -1 0 0 0 -1 forward_v I I I I #
coedge $-1 $326 $327 $218 $328 forward $129 $-1 #
coedge $-1 $329 $131 $133 $223 forward $81 $-1 #
coedge $-1 $131 $329 $216 $328 reversed $81 $-1 #
coedge $-1 $330 $134 $131 $220 forward $225 $-1 #
edge $-1 $227 21.252759220576863 $331 35.958238864501446 $219 $332 forward 7 unknown #
coedge $-1 $333 $325 $132 $222 forward $214 $-1 #
edge $-1 $334 -58.509077006300124 $226 -51.965290850157849 $221 $335 forward 7 unknown #
edge $-1 $227 49.785777966098131 $334 57.979485867178333 $133 $336 forward 7 unknown #
coedge $-1 $134 $330 $333 $337 forward $225 $-1 #
loop $-1 $-1 $219 $213 #
vertex $-1 $222 $338 #
vertex $-1 $135 $339 #
straight-curve $-1 49.858258263116021 48.611303253342676 13.54096232555505 0 -1 0 I I #
coedge $-1 $229 $229 $-1 $340 reversed $138 $-1 #
edge $-1 $341 0 $341 6.2831853071796004 $139 $342 forward 7 unknown #
vertex $-1 $142 $343 #
ellipse-curve $-1 54.059823875665913 26.524194723205486 10.269069247483918 0 0.79863551827123203 0.60181501223851219 2 0 0 1 I I #
coedge $-1 $233 $233 $-1 $344 reversed $145 $-1 #
edge $-1 $345 0 $345 6.2831853071796004 $146 $346 forward 7 unknown #
vertex $-1 $149 $347 #
ellipse-curve $-1 60.362172294490733 26.524194723205486 10.269069247483918 0 0.79863551827123203 0.60181501223851219 2 0 0 1 I I #
face $-1 $-1 $348 $32 $-1 $349 reversed single #
loop $-1 $-1 $156 $150 #
plane-surface $-1 0 0 13.540962325555052 0 0 1 1 0 0 forward_v I I I I #
coedge $-1 $350 $351 $352 $353 reversed $151 $-1 #
coedge $-1 $354 $153 $155 $247 forward $95 $-1 #
coedge $-1 $153 $354 $350 $355 forward $95 $-1 #
coedge $-1 $352 $156 $153 $244 forward $238 $-1 #
edge $-1 $250 -6.3873694655449533 $356 19.008964367866721 $243 $357 forward 7 unknown #
coedge $-1 $358 $359 $154 $246 forward $348 $-1 #
edge $-1 $360 -33.789413525355258 $249 -21.096759487177415 $245 $361 forward 7 unknown #
edge $-1 $250 -14.966903383307113 $360 -2.014740110050013e-014 $155 $362 forward 7 unknown #
coedge $-1 $156 $352 $358 $363 forward $238 $-1 #
vertex $-1 $246 $364 #
vertex $-1 $157 $365 #
straight-curve $-1 0.076572014384069575 -69.248026991246235 13.54096232555505 0 1 0 I I #
coedge $-1 $252 $252 $-1 $366 reversed $160 $-1 #
edge $-1 $367 0 $367 6.2831853071796004 $161 $368 forward 7 unknown #
vertex $-1 $164 $369 #
ellipse-curve $-1 -12.621594902321768 -25.024117814128907 7.1946353064661306 0 -0.84804810408105047 0.52991925155115449 3 0 0 1 I I #
face $-1 $-1 $268 $34 $-1 $370 forward single #
loop $-1 $-1 $371 $165 #
plane-surface $-1 0 -28.989742933589174 0 0 1 0 0 0 1 forward_v I I I I #
coedge $-1 $372 $373 $374 $375 reversed $166 $-1 #
coedge $-1 $376 $168 $170 $266 forward $104 $-1 #
coedge $-1 $168 $376 $372 $377 forward $104 $-1 #
coedge $-1 $374 $171 $168 $263 forward $268 $-1 #
edge $-1 $270 -26.689872444606678 $378 -1.2935386111950038 $262 $379 forward 7 unknown #
coedge $-1 $380 $381 $169 $265 forward $257 $-1 #
edge $-1 $382 -33.789413525355258 $269 -21.096759487177415 $264 $383 forward 7 unknown #
edge $-1 $270 -14.966903383307113 $382 -2.014740110050013e-014 $170 $384 forward 7 unknown #
coedge $-1 $171 $374 $380 $385 forward $268 $-1 #
loop $-1 $-1 $374 $256 #
vertex $-1 $265 $386 #
vertex $-1 $172 $387 #
straight-curve $-1 40.681577972507519 -69.248026991246235 13.54096232555505 0 1 0 I I #
coedge $-1 $272 $272 $-1 $388 reversed $175 $-1 #
edge $-1 $389 0 $389 6.2831853071796004 $176 $390 forward 7 unknown #
vertex $-1 $179 $391 #
ellipse-curve $-1 27.983411055801682 -25.024117814128907 7.1946353064661306 0 -0.84804810408105047 0.52991925155115449 3 0 0 1 I I #
face $-1 $-1 $195 $27 $-1 $392 reversed single #
loop $-1 $-1 $292 $180 #
plane-surface $-1 0 28.989742933589174 0 0 -1 0 0 0 -1 forward_v I I I I #
coedge $-1 $393 $290 $293 $394 forward $181 $-1 #
coedge $-1 $296 $183 $184 $284 reversed $113 $-1 #
coedge $-1 $290 $393 $183 $282 reversed $181 $-1 #
edge $-1 $297 -13.540962325555052 $395 13.540962325555052 $281 $396 forward 7 unknown #
coedge $-1 $185 $184 $393 $397 forward $73 $-1 #
edge $-1 $288 -64.563737907040618 $395 64.563737907040618 $280 $398 forward 7 unknown #
coedge $-1 $293 $292 $185 $286 reversed $277 $-1 #
edge $-1 $399 -64.563737907040618 $287 64.563737907040618 $285 $400 forward 7 unknown #
vertex $-1 $187 $401 #
vertex $-1 $299 $402 #
straight-curve $-1 64.563737907040618 0 -13.540962325555052 0 -1 0 I I #
coedge $-1 $279 $281 $188 $291 reversed $181 $-1 #
edge $-1 $294 -28.989742933589174 $297 28.989742933589174 $290 $403 forward 7 unknown #
coedge $-1 $285 $189 $194 $300 forward $277 $-1 #
coedge $-1 $189 $285 $279 $394 reversed $277 $-1 #
vertex $-1 $190 $404 #
straight-curve $-1 0 28.989742933589174 13.540962325555052 -1 0 0 I I #
coedge $-1 $191 $280 $193 $299 reversed $113 $-1 #
vertex $-1 $291 $405 #
straight-curve $-1 0 -28.989742933589174 13.540962325555052 1 0 0 I I #
edge $-1 $196 -13.540962325555052 $288 13.540962325555052 $193 $406 forward 7 unknown #
edge $-1 $197 -13.540962325555052 $287 13.540962325555052 $194 $407 forward 7 unknown #
point $-1 64.563737907040618 -28.989742933589174 13.540962325555052 #
point $-1 64.563737907040618 28.989742933589174 13.540962325555052 #
face $-1 $-1 $317 $28 $-1 $408 reversed single #
loop $-1 $-1 $313 $199 #
plane-surface $-1 0 0 -13.540962325555052 0 0 1 1 0 0 forward_v I I I I #
coedge $-1 $409 $410 $307 $411 forward $200 $-1 #
coedge $-1 $203 $202 $306 $411 reversed $77 $-1 #
coedge $-1 $313 $412 $202 $309 forward $304 $-1 #
edge $-1 $413 -79.925554060520525 $311 -64.563737907040618 $202 $414 forward 7 unknown #
edge $-1 $210 -7.6809080767399536 $415 7.6809080767399536 $203 $416 forward 7 unknown #
vertex $-1 $204 $417 #
straight-curve $-1 -64.563737907040618 28.989742933589174 0 0 0 -1 I I #
coedge $-1 $418 $308 $205 $314 forward $304 $-1 #
edge $-1 $311 -28.989742933589174 $318 28.989742933589174 $313 $419 forward 7 unknown #
coedge $-1 $420 $206 $209 $321 reversed $317 $-1 #
coedge $-1 $206 $420 $418 $421 reversed $317 $-1 #
loop $-1 $-1 $206 $303 #
vertex $-1 $421 $422 #
straight-curve $-1 -64.563737907040618 -28.989742933589174 0 0 0 1 I I #
coedge $-1 $209 $208 $410 $423 forward $121 $-1 #
edge $-1 $424 -7.6809080767399536 $211 7.6809080767399536 $315 $425 forward 7 unknown #
point $-1 -64.563737907040618 28.989742933589174 -9.9018002896255215 #
point $-1 -64.563737907040618 -28.989742933589174 -9.9018002896255215 #
plane-surface $-1 0 0 13.540962325555052 0 0 1 1 0 0 forward_v I I I I #
coedge $-1 $221 $426 $329 $427 forward $214 $-1 #
coedge $-1 $327 $216 $426 $428 reversed $129 $-1 #
coedge $-1 $216 $326 $330 $429 reversed $129 $-1 #
edge $-1 $331 26.725169573446564 $430 34.918877474526766 $216 $431 forward 7 unknown #
coedge $-1 $218 $217 $325 $427 reversed $81 $-1 #
coedge $-1 $224 $219 $327 $429 forward $225 $-1 #
vertex $-1 $429 $432 #
straight-curve $-1 28.605499042539158 24.058646512821792 13.540962325555057 1 0 0 I I #
coedge $-1 $426 $221 $224 $337 reversed $214 $-1 #
vertex $-1 $222 $433 #
straight-curve $-1 49.858258263116021 28.98974293358917 65.506253175712899 0 0 1 I I #
straight-curve $-1 49.858258263116021 -5.9031820631494014 53.301652914046315 0 0.60181501223851219 -0.79863551827123203 I I #
edge $-1 $434 -64.563737907040618 $226 -49.858258263116021 $333 $435 forward 7 unknown #
point $-1 49.858258263116021 28.989742933589174 13.540962325555052 #
point $-1 49.858258263116021 24.058646512821795 13.54096232555505 #
edge $-1 $436 1 $436 0 $229 $-1 forward 7 unknown #
vertex $-1 $230 $437 #
ellipse-curve $-1 54.059823875665913 21.959442024607927 6.8292814615376258 0 0.79863551827123203 0.60181501223851219 2 0 0 1 I I #
point $-1 56.059823875665913 26.524194723205479 10.269069247483912 #
edge $-1 $438 1 $438 0 $233 $-1 forward 7 unknown #
vertex $-1 $234 $439 #
ellipse-curve $-1 60.362172294490733 21.959442024607927 6.8292814615376258 0 0.79863551827123203 0.60181501223851219 2 0 0 1 I I #
point $-1 62.362172294490733 26.524194723205479 10.269069247483912 #
loop $-1 $-1 $245 $237 #
plane-surface $-1 0 -28.989742933589174 0 0 1 0 0 0 1 forward_v I I I I #
coedge $-1 $351 $240 $242 $355 reversed $151 $-1 #
coedge $-1 $240 $350 $440 $441 reversed $151 $-1 #
coedge $-1 $248 $243 $240 $353 forward $238 $-1 #
edge $-1 $356 -48.189534296577598 $442 -40.258284057657065 $352 $443 forward 7 unknown #
coedge $-1 $242 $241 $359 $444 reversed $95 $-1 #
edge $-1 $445 2.014740110050013e-014 $356 14.966903383307113 $350 $446 forward 7 unknown #
vertex $-1 $244 $447 #
straight-curve $-1 -6.3107974511608838 -21.058492694668637 13.540962325555052 -1 0 0 I I #
coedge $-1 $440 $245 $248 $363 reversed $348 $-1 #
coedge $-1 $245 $440 $354 $444 forward $348 $-1 #
vertex $-1 $246 $448 #
straight-curve $-1 0.076572014384069575 -28.98974293358917 34.637721812732465 0 0 1 I I #
straight-curve $-1 0.076572014384069575 -28.989742933589184 0.84830828737719344 0 -0.52991925155115449 -0.84804810408105047 I I #
edge $-1 $442 -25.319761819027605 $249 0.076572014384069575 $358 $449 forward 7 unknown #
point $-1 0.076572014384069575 -28.989742933589174 13.540962325555052 #
point $-1 0.076572014384069575 -21.058492694668637 13.540962325555052 #
edge $-1 $450 1 $450 0 $252 $-1 forward 7 unknown #
vertex $-1 $253 $451 #
ellipse-curve $-1 -12.621594902321768 -20.46768711190785 4.3474615012937319 0 -0.84804810408105047 0.52991925155115449 3 0 0 1 I I #
point $-1 -9.6215949023217675 -25.0241178141289 7.1946353064661261 #
plane-surface $-1 0 0 13.540962325555052 0 0 1 1 0 0 forward_v I I I I #
coedge $-1 $381 $380 $373 $452 forward $257 $-1 #
coedge $-1 $373 $259 $261 $377 reversed $166 $-1 #
coedge $-1 $259 $372 $371 $452 reversed $166 $-1 #
coedge $-1 $267 $262 $259 $375 forward $268 $-1 #
edge $-1 $378 -48.189534296577598 $453 -40.258284057657065 $374 $454 forward 7 unknown #
coedge $-1 $261 $260 $381 $455 reversed $104 $-1 #
edge $-1 $456 2.014740110050013e-014 $378 14.966903383307113 $372 $457 forward 7 unknown #
vertex $-1 $263 $458 #
straight-curve $-1 13.991705527900841 -21.058492694668637 13.540962325555052 -1 0 0 I I #
coedge $-1 $371 $264 $267 $385 reversed $257 $-1 #
coedge $-1 $264 $371 $376 $455 forward $257 $-1 #
vertex $-1 $265 $459 #
straight-curve $-1 40.681577972507519 -28.98974293358917 34.637721812732465 0 0 1 I I #
straight-curve $-1 40.681577972507519 -28.989742933589184 0.84830828737719344 0 -0.52991925155115449 -0.84804810408105047 I I #
edge $-1 $453 15.285244139095845 $269 40.681577972507519 $380 $460 forward 7 unknown #
point $-1 40.681577972507519 -28.989742933589174 13.540962325555052 #
point $-1 40.681577972507519 -21.058492694668637 13.540962325555052 #
edge $-1 $461 1 $461 0 $272 $-1 forward 7 unknown #
vertex $-1 $273 $462 #
ellipse-curve $-1 27.983411055801682 -20.46768711190785 4.3474615012937319 0 -0.84804810408105047 0.52991925155115449 3 0 0 1 I I #
point $-1 30.983411055801682 -25.0241178141289 7.1946353064661261 #
plane-surface $-1 64.563737907040618 0 0 -1 0 0 0 0 1 forward_v I I I I #
coedge $-1 $281 $279 $283 $397 reversed $181 $-1 #
edge $-1 $294 -13.540962325555052 $399 13.540962325555052 $293 $463 forward 7 unknown #
vertex $-1 $397 $464 #
straight-curve $-1 -64.563737907040618 -28.989742933589174 0 0 0 -1 I I #
edge $-1 $395 -28.989742933589174 $399 28.989742933589174 $393 $465 forward 7 unknown #
straight-curve $-1 0 -28.989742933589174 -13.540962325555052 -1 0 0 I I #
vertex $-1 $286 $466 #
straight-curve $-1 0 28.989742933589174 -13.540962325555052 1 0 0 I I #
point $-1 64.563737907040618 28.989742933589174 -13.540962325555052 #
point $-1 64.563737907040618 -28.989742933589174 -13.540962325555052 #
straight-curve $-1 -64.563737907040618 0 13.540962325555052 0 -1 0 I I #
point $-1 -64.563737907040618 28.989742933589174 13.540962325555052 #
point $-1 -64.563737907040618 -28.989742933589174 13.540962325555052 #
straight-curve $-1 64.563737907040618 -28.989742933589174 0 0 0 -1 I I #
straight-curve $-1 64.563737907040618 28.989742933589174 0 0 0 -1 I I #
plane-surface $-1 0 -28.989742933589174 0 0 1 0 0 0 1 forward_v I I I I #
coedge $-1 $467 $306 $412 $468 reversed $200 $-1 #
coedge $-1 $306 $467 $320 $423 reversed $200 $-1 #
edge $-1 $415 -1.8195810179647651 $413 1.8195810179647651 $307 $469 forward 7 unknown #
coedge $-1 $308 $418 $409 $468 forward $304 $-1 #
vertex $-1 $309 $470 #
straight-curve $-1 0 28.989742933589174 -13.540962325555052 1 0 0 I I #
vertex $-1 $310 $471 #
straight-curve $-1 -72.244645983780572 28.989742933589174 -9.9018002896255215 -1 0 0 I I #
point $-1 -64.563737907040618 28.989742933589174 -13.540962325555052 #
coedge $-1 $412 $313 $316 $421 forward $304 $-1 #
straight-curve $-1 -64.563737907040618 0 -13.540962325555052 0 -1 0 I I #
coedge $-1 $316 $315 $467 $472 forward $317 $-1 #
edge $-1 $318 -7.6809080767399536 $473 7.6809080767399536 $316 $474 forward 7 unknown #
point $-1 -64.563737907040618 -28.989742933589174 -13.540962325555052 #
edge $-1 $415 -28.989742933589174 $424 28.989742933589174 $410 $475 forward 7 unknown #
vertex $-1 $423 $476 #
straight-curve $-1 -72.244645983780572 -28.989742933589174 -9.9018002896255215 1 0 0 I I #
coedge $-1 $325 $333 $326 $428 forward $214 $-1 #
edge $-1 $430 -35.958238864501446 $334 -21.252759220576863 $325 $477 forward 7 unknown #
edge $-1 $434 -13.540962325555052 $430 -6.997176169412775 $326 $478 forward 7 unknown #
edge $-1 $331 24.058646512821795 $434 28.989742933589174 $327 $479 forward 7 unknown #
vertex $-1 $328 $480 #
straight-curve $-1 64.563737907040618 7.9750382589017352 34.884631978731107 0 0.60181501223851219 -0.79863551827123203 I I #
point $-1 64.563737907040604 24.058646512821795 13.54096232555505 #
point $-1 49.858258263116021 28.98974293358917 6.997176169412775 #
vertex $-1 $429 $481 #
straight-curve $-1 0 28.989742933589174 13.540962325555052 -1 0 0 I I #
vertex $-1 $340 $482 #
point $-1 56.059823875665913 21.959442024607927 6.8292814615376258 #
vertex $-1 $344 $483 #
point $-1 62.362172294490733 21.959442024607927 6.8292814615376258 #
coedge $-1 $359 $358 $351 $441 forward $348 $-1 #
edge $-1 $442 21.096759487177415 $445 33.789413525355258 $440 $484 forward 7 unknown #
vertex $-1 $363 $485 #
straight-curve $-1 -25.319761819027605 -69.248026991246235 13.54096232555505 0 -1 0 I I #
edge $-1 $445 -19.008964367866721 $360 6.3873694655449533 $359 $486 forward 7 unknown #
vertex $-1 $444 $487 #
straight-curve $-1 -25.319761819027605 -28.989742933589184 0.84830828737719344 0 0.52991925155115449 0.84804810408105047 I I #
point $-1 -25.319761819027605 -21.058492694668637 13.540962325555052 #
point $-1 0.076572014384069575 -28.989742933589174 0.84830828737721053 #
straight-curve $-1 0 -28.989742933589174 13.540962325555052 1 0 0 I I #
vertex $-1 $366 $488 #
point $-1 -9.6215949023217675 -20.46768711190785 4.3474615012937319 #
edge $-1 $453 21.096759487177415 $456 33.789413525355258 $371 $489 forward 7 unknown #
vertex $-1 $385 $490 #
straight-curve $-1 15.285244139095845 -69.248026991246235 13.54096232555505 0 -1 0 I I #
edge $-1 $456 1.2935386111950038 $382 26.689872444606678 $381 $491 forward 7 unknown #
vertex $-1 $455 $492 #
straight-curve $-1 15.285244139095845 -28.989742933589184 0.84830828737719344 0 0.52991925155115449 0.84804810408105047 I I #
point $-1 15.285244139095845 -21.058492694668637 13.540962325555052 #
point $-1 40.681577972507519 -28.989742933589174 0.84830828737721053 #
straight-curve $-1 0 -28.989742933589174 13.540962325555052 1 0 0 I I #
vertex $-1 $388 $493 #
point $-1 30.983411055801682 -20.46768711190785 4.3474615012937319 #
straight-curve $-1 -64.563737907040618 28.989742933589174 0 0 0 -1 I I #
point $-1 -64.563737907040618 -28.989742933589174 -13.540962325555052 #
straight-curve $-1 -64.563737907040618 0 -13.540962325555052 0 1 0 I I #
point $-1 -64.563737907040618 28.989742933589174 -13.540962325555052 #
coedge $-1 $410 $409 $420 $472 reversed $200 $-1 #
edge $-1 $473 -28.989742933589174 $413 28.989742933589174 $409 $494 forward 7 unknown #
straight-curve $-1 -79.925554060520525 28.989742933589174 -11.721381307590287 0 0 -1 I I #
point $-1 -79.925554060520525 28.989742933589174 -13.540962325555052 #
point $-1 -79.925554060520525 28.989742933589174 -9.9018002896255215 #
edge $-1 $424 -1.8195810179647651 $473 1.8195810179647651 $467 $495 forward 7 unknown #
vertex $-1 $468 $496 #
straight-curve $-1 -72.244645983780572 -28.989742933589174 -13.540962325555052 -1 0 0 I I #
straight-curve $-1 -79.925554060520525 0 -9.9018002896255215 0 -1 0 I I #
point $-1 -79.925554060520525 -28.989742933589174 -9.9018002896255215 #
straight-curve $-1 28.605499042539158 28.989742933589174 6.997176169412775 -1 0 0 I I #
straight-curve $-1 64.563737907040618 28.989742933589174 0 0 0 -1 I I #
straight-curve $-1 64.563737907040618 0 13.540962325555052 0 1 0 I I #
point $-1 64.563737907040604 28.98974293358917 6.997176169412775 #
point $-1 64.563737907040618 28.989742933589174 13.540962325555052 #
point $-1 54.059823875665913 20.362170988065461 5.6256514370606006 #
point $-1 60.362172294490733 20.362170988065461 5.6256514370606006 #
straight-curve $-1 -25.319761819027605 -28.98974293358917 34.637721812732465 0 0 -1 I I #
point $-1 -25.319761819027605 -28.989742933589174 13.540962325555052 #
straight-curve $-1 -6.3107974511608838 -28.989742933589174 0.84830828737720587 1 0 0 I I #
point $-1 -25.319761819027605 -28.989742933589174 0.84830828737721053 #
point $-1 -12.621594902321768 -17.923542799664702 2.7577037466402681 #
straight-curve $-1 15.285244139095845 -28.98974293358917 34.637721812732465 0 0 -1 I I #
point $-1 15.285244139095845 -28.989742933589174 13.540962325555052 #
straight-curve $-1 13.991705527900841 -28.989742933589174 0.84830828737720587 1 0 0 I I #
point $-1 15.285244139095845 -28.989742933589174 0.84830828737721053 #
point $-1 27.983411055801682 -17.923542799664702 2.7577037466402681 #
straight-curve $-1 -79.925554060520525 0 -13.540962325555052 0 1 0 I I #
straight-curve $-1 -79.925554060520525 -28.989742933589174 -11.721381307590287 0 0 -1 I I #
point $-1 -79.925554060520525 -28.989742933589174 -13.540962325555052 #
End-of-ACIS-data 