500 0 4 0           
7 Unknown 11 ACIS 5.0 NT 24 Thu Mar 25 17:17:02 1999 
-1 9.9999999999999995e-007 1e-010 
body $-1 $4 $-1 $5 #
body $-1 $6 $-1 $7 #
body $-1 $8 $-1 $9 #
body $-1 $10 $-1 $11 #
lump $-1 $-1 $12 $0 #
transform $-1 1 0 0 0 1 0 0 0 1 67.598498489333778 35.560436968912143 9.2283278823648036 1 rotate no_reflect no_shear #
lump $-1 $-1 $13 $1 #
transform $-1 1 0 0 0 1 0 0 0 1 67.598498489333778 35.560436968912143 9.2283278823648036 1 rotate no_reflect no_shear #
lump $-1 $-1 $14 $2 #
transform $-1 1 0 0 0 1 0 0 0 1 67.598498489333778 35.560436968912143 9.2283278823648036 1 rotate no_reflect no_shear #
lump $-1 $-1 $15 $3 #
transform $-1 1 0 0 0 1 0 0 0 1 67.598498489333778 35.560436968912143 9.2283278823648036 1 rotate no_reflect no_shear #
shell $-1 $-1 $-1 $16 $-1 $4 #
shell $-1 $-1 $-1 $17 $-1 $6 #
shell $-1 $-1 $-1 $18 $-1 $8 #
shell $-1 $-1 $-1 $19 $-1 $10 #
face $-1 $20 $21 $12 $-1 $22 forward single #
face $-1 $23 $24 $13 $-1 $25 forward single #
face $-1 $26 $27 $14 $-1 $28 reversed single #
face $-1 $29 $30 $15 $-1 $31 forward single #
face $-1 $32 $33 $12 $-1 $34 reversed single #
loop $-1 $-1 $35 $16 #
plane-surface $-1 0 0 9.2283278823648036 0 0 1 1 0 0 forward_v I I I I #
face $-1 $36 $37 $13 $-1 $38 reversed single #
loop $-1 $-1 $39 $17 #
plane-surface $-1 0 -35.560436968912143 0 0 1 0 0 0 1 forward_v I I I I #
face $-1 $40 $41 $14 $-1 $42 reversed single #
loop $-1 $-1 $43 $18 #
plane-surface $-1 -47.567953696330534 103.13330618983363 140.51441959846684 -1 0 0 0 0.80901700255871778 0.5877852410284794 forward_v I I I I #
face $-1 $44 $45 $15 $-1 $46 forward single #
loop $-1 $47 $48 $19 #
cone-surface $-1 -57.583226092832156 31.871733427634542 5.1983249912261531 0 -0.80901700255871778 -0.5877852410284794 1.5 0 0 1 I I 0 1 1.5 forward I I I I #
face $-1 $49 $50 $12 $-1 $51 reversed single #
loop $-1 $-1 $52 $20 #
plane-surface $-1 0 0 -9.2283278823648036 0 0 1 1 0 0 forward_v I I I I #
coedge $-1 $53 $54 $55 $56 forward $21 $-1 #
face $-1 $57 $58 $13 $-1 $59 forward single #
loop $-1 $-1 $60 $23 #
plane-surface $-1 -67.598498489333778 0 0 1 0 0 0 0 -1 forward_v I I I I #
coedge $-1 $61 $62 $63 $64 forward $24 $-1 #
face $-1 $65 $66 $14 $-1 $67 forward single #
loop $-1 $-1 $68 $26 #
plane-surface $-1 -57.583226092832156 -6.2433630607880133 61.047620143034138 0 0.80901700255871778 0.5877852410284794 1 0 0 forward_v I I I I #
coedge $-1 $69 $70 $71 $72 reversed $27 $-1 #
face $-1 $-1 $73 $15 $-1 $74 forward single #
loop $-1 $75 $76 $29 #
cone-surface $-1 -57.583226092832156 29.653707901194451 3.5868351652489974 0 -0.80901700255871778 -0.5877852410284794 0.75 0 0 1 I I -0.70710678118654757 0.70710678118654757 0.75 forward I I I I #
loop $-1 $-1 $77 $19 #
coedge $-1 $48 $48 $78 $79 reversed $30 $-1 #
face $-1 $80 $81 $12 $-1 $82 reversed single #
loop $-1 $-1 $83 $32 #
plane-surface $-1 0 -35.560436968912143 0 0 1 0 0 0 1 forward_v I I I I #
coedge $-1 $84 $85 $86 $87 forward $33 $-1 #
coedge $-1 $88 $35 $89 $90 forward $21 $-1 #
coedge $-1 $35 $88 $91 $92 forward $21 $-1 #
coedge $-1 $93 $94 $35 $56 reversed $95 $-1 #
edge $-1 $96 -35.560436968912143 $97 35.560436968912143 $55 $98 forward 7 unknown #
face $-1 $99 $100 $13 $-1 $101 reversed single #
loop $-1 $-1 $102 $36 #
plane-surface $-1 0 -41.194335788070255 -3.1461479828700911 0 0 1 1 0 0 forward_v I I I I #
coedge $-1 $103 $104 $62 $105 forward $37 $-1 #
coedge $-1 $106 $39 $107 $108 reversed $24 $-1 #
coedge $-1 $39 $106 $60 $105 reversed $24 $-1 #
coedge $-1 $109 $102 $39 $64 reversed $58 $-1 #
edge $-1 $110 -67.598498489333778 $111 67.598498489333778 $63 $112 forward 7 unknown #
face $-1 $113 $114 $14 $-1 $115 reversed single #
loop $-1 $-1 $116 $40 #
plane-surface $-1 0 0 9.2283278823648036 0 0 1 1 0 0 forward_v I I I I #
coedge $-1 $117 $118 $119 $120 reversed $41 $-1 #
coedge $-1 $70 $43 $121 $122 reversed $27 $-1 #
coedge $-1 $43 $69 $117 $123 reversed $27 $-1 #
coedge $-1 $119 $124 $43 $72 forward $114 $-1 #
edge $-1 $125 61.02888191686862 $126 66.747585908734322 $71 $127 forward 7 unknown #
loop $-1 $-1 $78 $44 #
plane-surface $-1 -57.583226092832156 -6.2433630607880133 61.047620143034138 0 0.80901700255871778 0.5877852410284794 1 0 0 forward_v I I I I #
loop $-1 $-1 $128 $29 #
coedge $-1 $76 $76 $77 $129 reversed $45 $-1 #
coedge $-1 $77 $77 $76 $129 forward $47 $-1 #
coedge $-1 $78 $78 $48 $79 forward $73 $-1 #
edge $-1 $130 -1.2573117856050034e-015 $130 6.2831853071795996 $78 $131 forward 7 unknown #
face $-1 $132 $133 $12 $-1 $134 reversed single #
loop $-1 $-1 $135 $49 #
plane-surface $-1 -67.598498489333778 0 0 1 0 0 0 0 -1 forward_v I I I I #
coedge $-1 $136 $91 $137 $138 forward $50 $-1 #
coedge $-1 $139 $52 $136 $140 forward $33 $-1 #
coedge $-1 $52 $139 $141 $142 forward $33 $-1 #
coedge $-1 $94 $93 $52 $87 reversed $95 $-1 #
edge $-1 $143 -35.560436968912143 $144 35.560436968912143 $86 $145 forward 7 unknown #
coedge $-1 $54 $53 $146 $147 forward $21 $-1 #
coedge $-1 $148 $149 $53 $90 reversed $133 $-1 #
edge $-1 $97 -67.598498489333778 $150 67.598498489333778 $89 $151 forward 7 unknown #
coedge $-1 $83 $152 $54 $92 reversed $50 $-1 #
edge $-1 $153 -67.598498489333778 $96 67.598498489333778 $91 $154 forward 7 unknown #
coedge $-1 $86 $55 $152 $155 forward $95 $-1 #
coedge $-1 $55 $86 $148 $156 reversed $95 $-1 #
loop $-1 $-1 $93 $132 #
vertex $-1 $56 $157 #
vertex $-1 $56 $158 #
straight-curve $-1 67.598498489333778 0 9.2283278823648036 0 1 0 I I #
face $-1 $159 $160 $13 $-1 $161 reversed single #
loop $-1 $-1 $162 $57 #
plane-surface $-1 0 -41.194335788070255 -6.1461479828700911 0 0 1 1 0 0 forward_v I I I I #
coedge $-1 $63 $163 $164 $165 forward $58 $-1 #
coedge $-1 $166 $60 $167 $168 reversed $37 $-1 #
coedge $-1 $60 $166 $109 $169 reversed $37 $-1 #
edge $-1 $110 3.1461479828700911 $170 6.1461479828700911 $60 $171 forward 7 unknown #
coedge $-1 $62 $61 $172 $173 forward $24 $-1 #
coedge $-1 $164 $174 $61 $108 forward $175 $-1 #
edge $-1 $176 -6.1461479828700911 $111 -3.1461479828700911 $107 $177 forward 7 unknown #
coedge $-1 $163 $63 $104 $169 forward $58 $-1 #
vertex $-1 $105 $178 #
vertex $-1 $165 $179 #
straight-curve $-1 0 -35.560436968912143 -3.1461479828700911 1 0 0 I I #
face $-1 $-1 $180 $14 $-1 $181 reversed single #
loop $-1 $-1 $71 $65 #
plane-surface $-1 0 35.560436968912143 0 0 -1 0 0 0 -1 forward_v I I I I #
coedge $-1 $121 $182 $183 $184 forward $66 $-1 #
coedge $-1 $183 $68 $70 $123 forward $41 $-1 #
coedge $-1 $68 $183 $185 $186 reversed $41 $-1 #
coedge $-1 $187 $71 $68 $120 forward $114 $-1 #
edge $-1 $126 18.776340649914456 $188 38.806885442917704 $119 $189 forward 7 unknown #
coedge $-1 $190 $116 $69 $122 forward $66 $-1 #
edge $-1 $191 -20.16109765951775 $125 -16.006216126004674 $121 $192 forward 7 unknown #
edge $-1 $126 -71.1208739378243 $191 -64.052167132183769 $70 $193 forward 7 unknown #
coedge $-1 $71 $187 $190 $194 reversed $114 $-1 #
vertex $-1 $194 $195 #
vertex $-1 $72 $196 #
straight-curve $-1 -47.567953696330534 35.560436968912143 70.257209799233422 0 0 -1 I I #
coedge $-1 $128 $128 $-1 $197 reversed $75 $-1 #
edge $-1 $198 0 $198 6.2831853071796004 $76 $199 forward 7 unknown #
vertex $-1 $79 $200 #
ellipse-curve $-1 -57.583226092832156 33.482996202155604 6.368975886431957 0 0.80901700255871778 0.5877852410284794 1.5 0 0 1 I I #
face $-1 $-1 $95 $12 $-1 $201 reversed single #
loop $-1 $-1 $148 $80 #
plane-surface $-1 0 35.560436968912143 0 0 -1 0 0 0 -1 forward_v I I I I #
coedge $-1 $202 $146 $149 $203 forward $81 $-1 #
coedge $-1 $152 $83 $84 $140 reversed $50 $-1 #
coedge $-1 $146 $202 $83 $138 reversed $81 $-1 #
edge $-1 $153 -9.2283278823648036 $204 9.2283278823648036 $137 $205 forward 7 unknown #
coedge $-1 $85 $84 $202 $206 forward $33 $-1 #
edge $-1 $144 -67.598498489333778 $204 67.598498489333778 $136 $207 forward 7 unknown #
coedge $-1 $149 $148 $85 $142 reversed $133 $-1 #
edge $-1 $208 -67.598498489333778 $143 67.598498489333778 $141 $209 forward 7 unknown #
vertex $-1 $87 $210 #
vertex $-1 $155 $211 #
straight-curve $-1 67.598498489333778 0 -9.2283278823648036 0 -1 0 I I #
coedge $-1 $135 $137 $88 $147 reversed $81 $-1 #
edge $-1 $150 -35.560436968912143 $153 35.560436968912143 $146 $212 forward 7 unknown #
coedge $-1 $141 $89 $94 $156 forward $133 $-1 #
coedge $-1 $89 $141 $135 $203 reversed $133 $-1 #
vertex $-1 $90 $213 #
straight-curve $-1 0 35.560436968912143 9.2283278823648036 -1 0 0 I I #
coedge $-1 $91 $136 $93 $155 reversed $50 $-1 #
vertex $-1 $147 $214 #
straight-curve $-1 0 -35.560436968912143 9.2283278823648036 1 0 0 I I #
edge $-1 $96 -9.2283278823648036 $144 9.2283278823648036 $93 $215 forward 7 unknown #
edge $-1 $97 -9.2283278823648036 $143 9.2283278823648036 $94 $216 forward 7 unknown #
point $-1 67.598498489333778 -35.560436968912143 9.2283278823648036 #
point $-1 67.598498489333778 35.560436968912143 9.2283278823648036 #
face $-1 $-1 $175 $13 $-1 $217 reversed single #
loop $-1 $-1 $218 $99 #
plane-surface $-1 0 -46.828234607228367 -4.6461479828700911 0 1 0 0 0 1 forward_v I I I I #
coedge $-1 $219 $172 $174 $220 forward $100 $-1 #
coedge $-1 $102 $109 $221 $222 forward $58 $-1 #
coedge $-1 $223 $107 $102 $165 reversed $175 $-1 #
edge $-1 $224 -5.6338988191581123 $111 5.6338988191581123 $164 $225 forward 7 unknown #
coedge $-1 $104 $103 $218 $226 reversed $37 $-1 #
coedge $-1 $172 $219 $103 $168 forward $100 $-1 #
edge $-1 $227 -5.6338988191581123 $170 5.6338988191581123 $103 $228 forward 7 unknown #
edge $-1 $110 -5.6338988191581123 $229 5.6338988191581123 $104 $230 forward 7 unknown #
vertex $-1 $105 $231 #
straight-curve $-1 -67.598498489333778 -35.560436968912143 0 0 0 -1 I I #
coedge $-1 $162 $167 $106 $173 reversed $100 $-1 #
edge $-1 $176 -67.598498489333778 $170 67.598498489333778 $172 $232 forward 7 unknown #
coedge $-1 $107 $223 $162 $220 reversed $175 $-1 #
loop $-1 $-1 $107 $159 #
vertex $-1 $108 $233 #
straight-curve $-1 67.598498489333778 -35.560436968912143 0 0 0 1 I I #
point $-1 -67.598498489333778 -35.560436968912143 -3.1461479828700911 #
point $-1 67.598498489333778 -35.560436968912143 -3.1461479828700911 #
loop $-1 $-1 $185 $113 #
plane-surface $-1 -67.598498489333778 0 0 1 0 0 0 0 -1 forward_v I I I I #
coedge $-1 $116 $190 $234 $235 forward $66 $-1 #
coedge $-1 $118 $117 $116 $184 reversed $41 $-1 #
edge $-1 $236 -38.806885442917704 $191 -18.776340649914456 $116 $237 forward 7 unknown #
coedge $-1 $234 $238 $118 $186 forward $180 $-1 #
edge $-1 $188 -44.591714276337171 $236 -37.523007470696633 $185 $239 forward 7 unknown #
coedge $-1 $124 $119 $238 $240 reversed $114 $-1 #
vertex $-1 $120 $241 #
straight-curve $-1 -28.791613046416078 35.560436968912143 3.5096238904990855 -1 0 0 I I #
coedge $-1 $182 $121 $124 $194 forward $66 $-1 #
vertex $-1 $122 $242 #
straight-curve $-1 -47.567953696330534 51.566653094916816 9.2283278823648089 0 1 0 I I #
straight-curve $-1 -47.567953696330534 -6.2433630607880133 61.047620143034138 0 -0.5877852410284794 0.80901700255871778 I I #
edge $-1 $125 47.567953696330534 $243 67.598498489333778 $124 $244 forward 7 unknown #
point $-1 -47.567953696330534 35.560436968912143 9.2283278823648036 #
point $-1 -47.567953696330534 35.560436968912143 3.5096238904990926 #
edge $-1 $245 1 $245 0 $128 $-1 forward 7 unknown #
vertex $-1 $129 $246 #
ellipse-curve $-1 -57.583226092832156 30.26047065311349 4.0276740960203572 0 0.80901700255871778 0.5877852410284794 1.5 0 0 1 I I #
point $-1 -56.083226092832156 33.48299620215559 6.368975886431949 #
plane-surface $-1 67.598498489333778 0 0 -1 0 0 0 0 1 forward_v I I I I #
coedge $-1 $137 $135 $139 $206 reversed $81 $-1 #
edge $-1 $150 -9.2283278823648036 $208 9.2283278823648036 $149 $247 forward 7 unknown #
vertex $-1 $206 $248 #
straight-curve $-1 -67.598498489333778 -35.560436968912143 0 0 0 -1 I I #
edge $-1 $204 -35.560436968912143 $208 35.560436968912143 $202 $249 forward 7 unknown #
straight-curve $-1 0 -35.560436968912143 -9.2283278823648036 -1 0 0 I I #
vertex $-1 $142 $250 #
straight-curve $-1 0 35.560436968912143 -9.2283278823648036 1 0 0 I I #
point $-1 67.598498489333778 35.560436968912143 -9.2283278823648036 #
point $-1 67.598498489333778 -35.560436968912143 -9.2283278823648036 #
straight-curve $-1 -67.598498489333778 0 9.2283278823648036 0 -1 0 I I #
point $-1 -67.598498489333778 35.560436968912143 9.2283278823648036 #
point $-1 -67.598498489333778 -35.560436968912143 9.2283278823648036 #
straight-curve $-1 67.598498489333778 -35.560436968912143 0 0 0 -1 I I #
straight-curve $-1 67.598498489333778 35.560436968912143 0 0 0 -1 I I #
plane-surface $-1 67.598498489333778 0 0 -1 0 0 0 0 1 forward_v I I I I #
coedge $-1 $251 $221 $166 $226 forward $160 $-1 #
coedge $-1 $167 $162 $251 $252 forward $100 $-1 #
edge $-1 $176 -5.6338988191581123 $253 5.6338988191581123 $174 $254 forward 7 unknown #
coedge $-1 $218 $255 $163 $222 reversed $160 $-1 #
edge $-1 $229 -67.598498489333778 $224 67.598498489333778 $221 $256 forward 7 unknown #
coedge $-1 $174 $164 $255 $257 forward $175 $-1 #
vertex $-1 $165 $258 #
straight-curve $-1 67.598498489333778 -41.194335788070255 -3.1461479828700911 0 1 0 I I #
edge $-1 $229 -1.5 $227 1.5 $166 $259 forward 7 unknown #
vertex $-1 $168 $260 #
straight-curve $-1 -67.598498489333778 -41.194335788070255 -6.1461479828700911 0 1 0 I I #
vertex $-1 $169 $261 #
straight-curve $-1 -67.598498489333778 -41.194335788070255 -3.1461479828700911 0 -1 0 I I #
point $-1 -67.598498489333778 -35.560436968912143 -6.1461479828700911 #
straight-curve $-1 0 -35.560436968912143 -6.1461479828700911 -1 0 0 I I #
point $-1 67.598498489333778 -35.560436968912143 -6.1461479828700911 #
coedge $-1 $238 $185 $182 $235 reversed $180 $-1 #
edge $-1 $243 -35.560436968912143 $236 -31.405555435399066 $234 $262 forward 7 unknown #
vertex $-1 $186 $263 #
straight-curve $-1 -28.791613046416078 31.405555435399066 9.2283278823648089 1 0 0 I I #
coedge $-1 $185 $234 $187 $240 forward $180 $-1 #
straight-curve $-1 -67.598498489333778 9.3500854451222146 39.585078913296172 0 -0.5877852410284794 0.80901700255871778 I I #
edge $-1 $243 -9.2283278823648036 $188 -3.5096238904990882 $187 $264 forward 7 unknown #
point $-1 -67.598498489333778 35.560436968912143 3.5096238904990882 #
point $-1 -47.567953696330534 31.405555435399066 9.2283278823648018 #
vertex $-1 $194 $265 #
straight-curve $-1 0 35.560436968912143 9.2283278823648036 -1 0 0 I I #
vertex $-1 $197 $266 #
point $-1 -56.083226092832156 30.26047065311349 4.0276740960203572 #
straight-curve $-1 -67.598498489333778 35.560436968912143 0 0 0 -1 I I #
point $-1 -67.598498489333778 -35.560436968912143 -9.2283278823648036 #
straight-curve $-1 -67.598498489333778 0 -9.2283278823648036 0 1 0 I I #
point $-1 -67.598498489333778 35.560436968912143 -9.2283278823648036 #
coedge $-1 $255 $218 $219 $252 reversed $160 $-1 #
edge $-1 $253 -67.598498489333778 $227 67.598498489333778 $251 $267 forward 7 unknown #
vertex $-1 $257 $268 #
straight-curve $-1 67.598498489333778 -41.194335788070255 -6.1461479828700911 0 -1 0 I I #
coedge $-1 $221 $251 $223 $257 reversed $160 $-1 #
straight-curve $-1 0 -46.828234607228367 -3.1461479828700911 1 0 0 I I #
edge $-1 $224 -1.5 $253 1.5 $223 $269 forward 7 unknown #
point $-1 67.598498489333778 -46.828234607228367 -3.1461479828700911 #
straight-curve $-1 -67.598498489333778 -46.828234607228367 -4.6461479828700911 0 0 -1 I I #
point $-1 -67.598498489333778 -46.828234607228367 -6.1461479828700911 #
point $-1 -67.598498489333778 -46.828234607228367 -3.1461479828700911 #
straight-curve $-1 -67.598498489333778 0 9.2283278823648036 0 -1 0 I I #
point $-1 -67.598498489333778 31.405555435399066 9.2283278823648018 #
straight-curve $-1 -67.598498489333778 35.560436968912143 0 0 0 -1 I I #
point $-1 -67.598498489333778 35.560436968912143 9.2283278823648036 #
point $-1 -57.583226092832156 29.046945149275412 3.145996234477638 #
straight-curve $-1 0 -46.828234607228367 -6.1461479828700911 -1 0 0 I I #
point $-1 67.598498489333778 -46.828234607228367 -6.1461479828700911 #
straight-curve $-1 67.598498489333778 -46.828234607228367 -4.6461479828700911 0 0 -1 I I #
End-of-ACIS-data 