500 0 10 0           
7 Unknown 11 ACIS 5.0 NT 24 Thu Mar 25 22:37:03 1999 
-1 9.9999999999999995e-007 1e-010 
body $-1 $10 $-1 $11 #
body $-1 $12 $-1 $13 #
body $-1 $14 $-1 $15 #
body $-1 $16 $-1 $17 #
body $-1 $18 $-1 $19 #
body $-1 $20 $-1 $21 #
body $-1 $22 $-1 $23 #
body $-1 $24 $-1 $25 #
body $-1 $26 $-1 $27 #
body $-1 $28 $-1 $29 #
lump $-1 $-1 $30 $0 #
transform $-1 1 0 0 0 1 0 0 0 1 77.750175481429494 40.856629277765492 18.926443550132827 1 rotate no_reflect no_shear #
lump $-1 $-1 $31 $1 #
transform $-1 1 0 0 0 1 0 0 0 1 77.750175481429494 40.856629277765492 18.926443550132827 1 rotate no_reflect no_shear #
lump $-1 $-1 $32 $2 #
transform $-1 1 0 0 0 1 0 0 0 1 77.750175481429494 40.856629277765492 18.926443550132827 1 rotate no_reflect no_shear #
lump $-1 $-1 $33 $3 #
transform $-1 1 0 0 0 1 0 0 0 1 77.750175481429494 40.856629277765492 18.926443550132827 1 rotate no_reflect no_shear #
lump $-1 $-1 $34 $4 #
transform $-1 1 0 0 0 1 0 0 0 1 77.750175481429494 40.856629277765492 18.926443550132827 1 rotate no_reflect no_shear #
lump $-1 $-1 $35 $5 #
transform $-1 1 0 0 0 1 0 0 0 1 77.750175481429494 40.856629277765492 18.926443550132827 1 rotate no_reflect no_shear #
lump $-1 $-1 $36 $6 #
transform $-1 1 0 0 0 1 0 0 0 1 77.750175481429494 40.856629277765492 18.926443550132827 1 rotate no_reflect no_shear #
lump $-1 $-1 $37 $7 #
transform $-1 1 0 0 0 1 0 0 0 1 77.750175481429494 40.856629277765492 18.926443550132827 1 rotate no_reflect no_shear #
lump $-1 $-1 $38 $8 #
transform $-1 1 0 0 0 1 0 0 0 1 77.750175481429494 40.856629277765492 18.926443550132827 1 rotate no_reflect no_shear #
lump $-1 $-1 $39 $9 #
transform $-1 1 0 0 0 1 0 0 0 1 77.750175481429494 40.856629277765492 18.926443550132827 1 rotate no_reflect no_shear #
shell $-1 $-1 $-1 $40 $-1 $10 #
shell $-1 $-1 $-1 $41 $-1 $12 #
shell $-1 $-1 $-1 $42 $-1 $14 #
shell $-1 $-1 $-1 $43 $-1 $16 #
shell $-1 $-1 $-1 $44 $-1 $18 #
shell $-1 $-1 $-1 $45 $-1 $20 #
shell $-1 $-1 $-1 $46 $-1 $22 #
shell $-1 $-1 $-1 $47 $-1 $24 #
shell $-1 $-1 $-1 $48 $-1 $26 #
shell $-1 $-1 $-1 $49 $-1 $28 #
face $-1 $50 $51 $30 $-1 $52 forward single #
face $-1 $53 $54 $31 $-1 $55 forward single #
face $-1 $56 $57 $32 $-1 $58 reversed single #
face $-1 $59 $60 $33 $-1 $61 forward single #
face $-1 $62 $63 $34 $-1 $64 forward single #
face $-1 $65 $66 $35 $-1 $67 forward single #
face $-1 $68 $69 $36 $-1 $70 reversed single #
face $-1 $71 $72 $37 $-1 $73 forward single #
face $-1 $74 $75 $38 $-1 $76 forward single #
face $-1 $77 $78 $39 $-1 $79 forward single #
face $-1 $80 $81 $30 $-1 $82 reversed single #
loop $-1 $-1 $83 $40 #
plane-surface $-1 0 0 18.926443550132827 0 0 1 1 0 0 forward_v I I I I #
face $-1 $84 $85 $31 $-1 $86 reversed single #
loop $-1 $-1 $87 $41 #
plane-surface $-1 0 -40.856629277765492 0 0 1 0 0 0 1 forward_v I I I I #
face $-1 $88 $89 $32 $-1 $90 reversed single #
loop $-1 $-1 $91 $42 #
plane-surface $-1 66.240940810415168 28.171554249712536 230.17559504217178 0 1 0 0.66913061440640931 0 0.74314481823134659 forward_v I I I I #
face $-1 $92 $93 $33 $-1 $94 forward single #
loop $-1 $95 $96 $43 #
cone-surface $-1 71.852743966320674 30.708569255323127 13.352565986967187 -0.66913061440640931 0 -0.74314481823134659 0.74314481823134659 0 -0.66913061440640931 1 I I 0 1 1 forward I I I I #
face $-1 $97 $98 $34 $-1 $99 forward single #
loop $-1 $100 $101 $44 #
cone-surface $-1 71.852743966320674 34.514091763739017 13.352565986967187 -0.66913061440640931 0 -0.74314481823134659 0.74314481823134659 0 -0.66913061440640931 1 I I 0 1 1 forward I I I I #
face $-1 $102 $103 $35 $-1 $104 forward single #
loop $-1 $105 $106 $45 #
cone-surface $-1 71.852743966320674 38.319614272154908 13.352565986967187 -0.66913061440640931 0 -0.74314481823134659 0.74314481823134659 0 -0.66913061440640931 1 I I 0 1 1 forward I I I I #
face $-1 $107 $108 $36 $-1 $109 reversed single #
loop $-1 $-1 $110 $46 #
plane-surface $-1 -181.80022086161961 28.171554249712536 126.12554966198167 0 1 0 -0.66913061440640931 0 0.74314481823134659 forward_v I I I I #
face $-1 $111 $112 $37 $-1 $113 forward single #
loop $-1 $114 $115 $47 #
cone-surface $-1 -71.852743966320674 30.708569255323127 13.352565986967173 0.66913061440640931 0 -0.74314481823134659 0.74314481823134659 0 0.66913061440640931 1 I I 0 1 1 forward I I I I #
face $-1 $116 $117 $38 $-1 $118 forward single #
loop $-1 $119 $120 $48 #
cone-surface $-1 -71.852743966320674 34.514091763739017 13.352565986967173 0.66913061440640931 0 -0.74314481823134659 0.74314481823134659 0 0.66913061440640931 1 I I 0 1 1 forward I I I I #
face $-1 $121 $122 $39 $-1 $123 forward single #
loop $-1 $124 $125 $49 #
cone-surface $-1 -71.852743966320674 38.319614272154908 13.352565986967173 0.66913061440640931 0 -0.74314481823134659 0.74314481823134659 0 0.66913061440640931 1 I I 0 1 1 forward I I I I #
face $-1 $126 $127 $30 $-1 $128 reversed single #
loop $-1 $-1 $129 $50 #
plane-surface $-1 0 0 -18.926443550132827 0 0 1 1 0 0 forward_v I I I I #
coedge $-1 $130 $131 $132 $133 forward $51 $-1 #
face $-1 $134 $135 $31 $-1 $136 forward single #
loop $-1 $-1 $137 $53 #
plane-surface $-1 -77.750175481429494 0 0 1 0 0 0 0 -1 forward_v I I I I #
coedge $-1 $138 $139 $140 $141 forward $54 $-1 #
face $-1 $142 $143 $32 $-1 $144 forward single #
loop $-1 $-1 $145 $56 #
plane-surface $-1 -37.809104569774945 34.514091763739017 114.61631499096734 0.66913061440640931 0 0.74314481823134659 0.74314481823134659 0 -0.66913061440640931 forward_v I I I I #
coedge $-1 $146 $147 $148 $149 reversed $57 $-1 #
face $-1 $-1 $150 $33 $-1 $151 forward single #
loop $-1 $152 $153 $59 #
cone-surface $-1 70.263203944506643 30.708569255323127 11.58720298436366 -0.66913061440640931 0 -0.74314481823134659 0.3715724091156733 0 -0.33456530720320465 1 I I -0.70710678118654746 0.70710678118654746 0.5 forward I I I I #
loop $-1 $-1 $154 $43 #
coedge $-1 $96 $96 $155 $156 reversed $60 $-1 #
face $-1 $-1 $157 $34 $-1 $158 forward single #
loop $-1 $159 $160 $62 #
cone-surface $-1 70.263203944506643 34.514091763739017 11.58720298436366 -0.66913061440640931 0 -0.74314481823134659 0.3715724091156733 0 -0.33456530720320465 1 I I -0.70710678118654746 0.70710678118654746 0.5 forward I I I I #
loop $-1 $-1 $161 $44 #
coedge $-1 $101 $101 $162 $163 reversed $63 $-1 #
face $-1 $-1 $164 $35 $-1 $165 forward single #
loop $-1 $166 $167 $65 #
cone-surface $-1 70.263203944506643 38.319614272154908 11.58720298436366 -0.66913061440640931 0 -0.74314481823134659 0.3715724091156733 0 -0.33456530720320465 1 I I -0.70710678118654746 0.70710678118654746 0.5 forward I I I I #
loop $-1 $-1 $168 $45 #
coedge $-1 $106 $106 $169 $170 reversed $66 $-1 #
face $-1 $171 $172 $36 $-1 $173 reversed single #
loop $-1 $-1 $174 $68 #
plane-surface $-1 -77.750175481429494 34.514091763739017 10.566269610777226 -0.66913061440640931 0 0.74314481823134659 0.74314481823134659 0 0.66913061440640931 forward_v I I I I #
coedge $-1 $175 $176 $177 $178 reversed $69 $-1 #
face $-1 $-1 $179 $37 $-1 $180 forward single #
loop $-1 $181 $182 $71 #
cone-surface $-1 -70.263203944506643 30.708569255323127 11.587202984363646 0.66913061440640931 0 -0.74314481823134659 0.3715724091156733 0 0.33456530720320465 1 I I -0.70710678118654746 0.70710678118654746 0.5 forward I I I I #
loop $-1 $-1 $183 $47 #
coedge $-1 $115 $115 $184 $185 reversed $72 $-1 #
face $-1 $-1 $186 $38 $-1 $187 forward single #
loop $-1 $188 $189 $74 #
cone-surface $-1 -70.263203944506643 34.514091763739017 11.587202984363646 0.66913061440640931 0 -0.74314481823134659 0.3715724091156733 0 0.33456530720320465 1 I I -0.70710678118654746 0.70710678118654746 0.5 forward I I I I #
loop $-1 $-1 $190 $48 #
coedge $-1 $120 $120 $191 $192 reversed $75 $-1 #
face $-1 $-1 $193 $39 $-1 $194 forward single #
loop $-1 $195 $196 $77 #
cone-surface $-1 -70.263203944506643 38.319614272154908 11.587202984363646 0.66913061440640931 0 -0.74314481823134659 0.3715724091156733 0 0.33456530720320465 1 I I -0.70710678118654746 0.70710678118654746 0.5 forward I I I I #
loop $-1 $-1 $197 $49 #
coedge $-1 $125 $125 $198 $199 reversed $78 $-1 #
face $-1 $200 $201 $30 $-1 $202 reversed single #
loop $-1 $-1 $203 $80 #
plane-surface $-1 0 -40.856629277765492 0 0 1 0 0 0 1 forward_v I I I I #
coedge $-1 $204 $205 $206 $207 forward $81 $-1 #
coedge $-1 $208 $83 $209 $210 forward $51 $-1 #
coedge $-1 $83 $208 $211 $212 forward $51 $-1 #
coedge $-1 $213 $214 $83 $133 reversed $215 $-1 #
edge $-1 $216 -40.856629277765492 $217 40.856629277765492 $132 $218 forward 7 unknown #
face $-1 $219 $220 $31 $-1 $221 reversed single #
loop $-1 $-1 $222 $84 #
plane-surface $-1 0 -48.984250740903072 7.7715549952655785 0 0 1 1 0 0 forward_v I I I I #
coedge $-1 $223 $224 $139 $225 forward $85 $-1 #
coedge $-1 $226 $87 $227 $228 reversed $54 $-1 #
coedge $-1 $87 $226 $137 $225 reversed $54 $-1 #
coedge $-1 $229 $222 $87 $141 reversed $135 $-1 #
edge $-1 $230 -77.750175481429494 $231 77.750175481429494 $140 $232 forward 7 unknown #
face $-1 $233 $234 $32 $-1 $235 reversed single #
loop $-1 $-1 $236 $88 #
plane-surface $-1 0 0 18.926443550132827 0 0 1 1 0 0 forward_v I I I I #
coedge $-1 $237 $238 $239 $240 reversed $89 $-1 #
coedge $-1 $147 $91 $241 $242 reversed $57 $-1 #
coedge $-1 $91 $146 $237 $243 reversed $57 $-1 #
coedge $-1 $239 $244 $91 $149 forward $234 $-1 #
edge $-1 $245 96.161353970953058 $246 104.52152791030866 $148 $247 forward 7 unknown #
loop $-1 $-1 $155 $92 #
plane-surface $-1 -37.809104569774945 34.514091763739017 114.61631499096734 0.66913061440640931 0 0.74314481823134659 0.74314481823134659 0 -0.66913061440640931 forward_v I I I I #
loop $-1 $-1 $248 $59 #
coedge $-1 $153 $153 $154 $249 reversed $93 $-1 #
coedge $-1 $154 $154 $153 $249 forward $95 $-1 #
coedge $-1 $155 $155 $96 $156 forward $150 $-1 #
edge $-1 $250 0 $250 6.2831853071796004 $155 $251 forward 7 unknown #
loop $-1 $-1 $162 $97 #
plane-surface $-1 -37.809104569774945 34.514091763739017 114.61631499096734 0.66913061440640931 0 0.74314481823134659 0.74314481823134659 0 -0.66913061440640931 forward_v I I I I #
loop $-1 $-1 $252 $62 #
coedge $-1 $160 $160 $161 $253 reversed $98 $-1 #
coedge $-1 $161 $161 $160 $253 forward $100 $-1 #
coedge $-1 $162 $162 $101 $163 forward $157 $-1 #
edge $-1 $254 0 $254 6.2831853071796004 $162 $255 forward 7 unknown #
loop $-1 $-1 $169 $102 #
plane-surface $-1 -37.809104569774945 34.514091763739017 114.61631499096734 0.66913061440640931 0 0.74314481823134659 0.74314481823134659 0 -0.66913061440640931 forward_v I I I I #
loop $-1 $-1 $256 $65 #
coedge $-1 $167 $167 $168 $257 reversed $103 $-1 #
coedge $-1 $168 $168 $167 $257 forward $105 $-1 #
coedge $-1 $169 $169 $106 $170 forward $164 $-1 #
edge $-1 $258 0 $258 6.2831853071796004 $169 $259 forward 7 unknown #
face $-1 $260 $261 $36 $-1 $262 forward single #
loop $-1 $-1 $263 $107 #
plane-surface $-1 0 40.856629277765492 0 0 -1 0 0 0 -1 forward_v I I I I #
coedge $-1 $264 $265 $266 $267 reversed $108 $-1 #
coedge $-1 $176 $110 $268 $269 reversed $69 $-1 #
coedge $-1 $110 $175 $264 $270 reversed $69 $-1 #
coedge $-1 $266 $271 $110 $178 forward $261 $-1 #
edge $-1 $272 13.149934949380309 $273 22.434848550376273 $177 $274 forward 7 unknown #
loop $-1 $-1 $184 $111 #
plane-surface $-1 -77.750175481429494 34.514091763739017 10.566269610777226 -0.66913061440640931 0 0.74314481823134659 0.74314481823134659 0 0.66913061440640931 forward_v I I I I #
loop $-1 $-1 $275 $71 #
coedge $-1 $182 $182 $183 $276 reversed $112 $-1 #
coedge $-1 $183 $183 $182 $276 forward $114 $-1 #
coedge $-1 $184 $184 $115 $185 forward $179 $-1 #
edge $-1 $277 0 $277 6.2831853071796004 $184 $278 forward 7 unknown #
loop $-1 $-1 $191 $116 #
plane-surface $-1 -77.750175481429494 34.514091763739017 10.566269610777226 -0.66913061440640931 0 0.74314481823134659 0.74314481823134659 0 0.66913061440640931 forward_v I I I I #
loop $-1 $-1 $279 $74 #
coedge $-1 $189 $189 $190 $280 reversed $117 $-1 #
coedge $-1 $190 $190 $189 $280 forward $119 $-1 #
coedge $-1 $191 $191 $120 $192 forward $186 $-1 #
edge $-1 $281 0 $281 6.2831853071796004 $191 $282 forward 7 unknown #
loop $-1 $-1 $198 $121 #
plane-surface $-1 -77.750175481429494 34.514091763739017 10.566269610777226 -0.66913061440640931 0 0.74314481823134659 0.74314481823134659 0 0.66913061440640931 forward_v I I I I #
loop $-1 $-1 $283 $77 #
coedge $-1 $196 $196 $197 $284 reversed $122 $-1 #
coedge $-1 $197 $197 $196 $284 forward $124 $-1 #
coedge $-1 $198 $198 $125 $199 forward $193 $-1 #
edge $-1 $285 0 $285 6.2831853071796004 $198 $286 forward 7 unknown #
face $-1 $287 $288 $30 $-1 $289 reversed single #
loop $-1 $-1 $290 $126 #
plane-surface $-1 -77.750175481429494 0 0 1 0 0 0 0 -1 forward_v I I I I #
coedge $-1 $291 $211 $292 $293 forward $127 $-1 #
coedge $-1 $294 $129 $291 $295 forward $81 $-1 #
coedge $-1 $129 $294 $296 $297 forward $81 $-1 #
coedge $-1 $214 $213 $129 $207 reversed $215 $-1 #
edge $-1 $298 -40.856629277765492 $299 40.856629277765492 $206 $300 forward 7 unknown #
coedge $-1 $131 $130 $301 $302 forward $51 $-1 #
coedge $-1 $303 $304 $130 $210 reversed $288 $-1 #
edge $-1 $217 -77.750175481429494 $305 77.750175481429494 $209 $306 forward 7 unknown #
coedge $-1 $203 $307 $131 $212 reversed $127 $-1 #
edge $-1 $308 -77.750175481429494 $216 77.750175481429494 $211 $309 forward 7 unknown #
coedge $-1 $206 $132 $307 $310 forward $215 $-1 #
coedge $-1 $132 $206 $303 $311 reversed $215 $-1 #
loop $-1 $-1 $213 $287 #
vertex $-1 $133 $312 #
vertex $-1 $133 $313 #
straight-curve $-1 77.750175481429494 0 18.926443550132827 0 1 0 I I #
face $-1 $314 $315 $31 $-1 $316 reversed single #
loop $-1 $-1 $317 $134 #
plane-surface $-1 0 -48.984250740903072 -3.1360882216727539 0 0 1 1 0 0 forward_v I I I I #
coedge $-1 $140 $318 $319 $320 forward $135 $-1 #
coedge $-1 $321 $137 $322 $323 reversed $85 $-1 #
coedge $-1 $137 $321 $229 $324 reversed $85 $-1 #
edge $-1 $230 -7.7715549952655785 $325 3.1360882216727539 $137 $326 forward 7 unknown #
coedge $-1 $139 $138 $327 $328 forward $54 $-1 #
coedge $-1 $319 $329 $138 $228 forward $330 $-1 #
edge $-1 $331 -3.1360882216727539 $231 7.7715549952655785 $227 $332 forward 7 unknown #
coedge $-1 $318 $140 $224 $324 forward $135 $-1 #
vertex $-1 $225 $333 #
vertex $-1 $320 $334 #
straight-curve $-1 0 -40.856629277765492 7.7715549952655785 1 0 0 I I #
face $-1 $-1 $335 $32 $-1 $336 reversed single #
loop $-1 $-1 $148 $142 #
plane-surface $-1 77.750175481429494 0 0 -1 0 0 0 0 1 forward_v I I I I #
coedge $-1 $241 $337 $338 $339 forward $143 $-1 #
coedge $-1 $338 $145 $147 $243 forward $89 $-1 #
coedge $-1 $145 $338 $340 $341 reversed $89 $-1 #
coedge $-1 $342 $148 $145 $240 forward $234 $-1 #
edge $-1 $246 10.914508367843027 $343 23.599583395895984 $239 $344 forward 7 unknown #
coedge $-1 $345 $236 $146 $242 forward $143 $-1 #
edge $-1 $346 35.344791475225932 $245 44.62970507622191 $241 $347 forward 7 unknown #
edge $-1 $246 -155.50035096285899 $346 -143.0062672079676 $147 $348 forward 7 unknown #
coedge $-1 $148 $342 $345 $349 reversed $234 $-1 #
vertex $-1 $349 $350 #
vertex $-1 $149 $351 #
straight-curve $-1 77.750175481429494 28.171554249712536 115.08779752108589 0 0 -1 I I #
coedge $-1 $248 $248 $-1 $352 reversed $152 $-1 #
edge $-1 $353 0 $353 6.2831853071796004 $153 $354 forward 7 unknown #
vertex $-1 $156 $355 #
ellipse-curve $-1 73.107718680931498 30.708569255323127 14.746356580455034 0.66913061440640931 0 0.74314481823134659 0.74314481823134659 0 -0.66913061440640931 1 I I #
coedge $-1 $252 $252 $-1 $356 reversed $159 $-1 #
edge $-1 $357 0 $357 6.2831853071796004 $160 $358 forward 7 unknown #
vertex $-1 $163 $359 #
ellipse-curve $-1 73.107718680931498 34.514091763739017 14.746356580455034 0.66913061440640931 0 0.74314481823134659 0.74314481823134659 0 -0.66913061440640931 1 I I #
coedge $-1 $256 $256 $-1 $360 reversed $166 $-1 #
edge $-1 $361 0 $361 6.2831853071796004 $167 $362 forward 7 unknown #
vertex $-1 $170 $363 #
ellipse-curve $-1 73.107718680931498 38.319614272154908 14.746356580455034 0.66913061440640931 0 0.74314481823134659 0.74314481823134659 0 -0.66913061440640931 1 I I #
face $-1 $-1 $364 $36 $-1 $365 reversed single #
loop $-1 $-1 $266 $171 #
plane-surface $-1 0 0 18.926443550132827 0 0 1 1 0 0 forward_v I I I I #
coedge $-1 $366 $367 $265 $368 forward $172 $-1 #
coedge $-1 $369 $174 $176 $270 forward $108 $-1 #
coedge $-1 $174 $369 $263 $368 reversed $108 $-1 #
coedge $-1 $370 $177 $174 $267 forward $261 $-1 #
edge $-1 $273 10.914508367843027 $371 23.599583395895991 $266 $372 forward 7 unknown #
coedge $-1 $373 $374 $175 $269 forward $364 $-1 #
edge $-1 $375 -52.496505220213606 $272 -44.136331280858002 $268 $376 forward 7 unknown #
edge $-1 $273 -12.494083754891367 $375 0 $176 $377 forward 7 unknown #
coedge $-1 $177 $370 $373 $378 forward $261 $-1 #
vertex $-1 $269 $379 #
vertex $-1 $178 $380 #
straight-curve $-1 -90.900110430809804 28.171554249712536 18.926443550132831 1 0 0 I I #
coedge $-1 $275 $275 $-1 $381 reversed $181 $-1 #
edge $-1 $382 0 $382 6.2831853071796004 $182 $383 forward 7 unknown #
vertex $-1 $185 $384 #
ellipse-curve $-1 -73.107718680931512 30.708569255323127 14.74635658045503 -0.66913061440640931 0 0.74314481823134659 0.74314481823134659 0 0.66913061440640931 1 I I #
coedge $-1 $279 $279 $-1 $385 reversed $188 $-1 #
edge $-1 $386 0 $386 6.2831853071796004 $189 $387 forward 7 unknown #
vertex $-1 $192 $388 #
ellipse-curve $-1 -73.107718680931512 34.514091763739017 14.74635658045503 -0.66913061440640931 0 0.74314481823134659 0.74314481823134659 0 0.66913061440640931 1 I I #
coedge $-1 $283 $283 $-1 $389 reversed $195 $-1 #
edge $-1 $390 0 $390 6.2831853071796004 $196 $391 forward 7 unknown #
vertex $-1 $199 $392 #
ellipse-curve $-1 -73.107718680931512 38.319614272154908 14.74635658045503 -0.66913061440640931 0 0.74314481823134659 0.74314481823134659 0 0.66913061440640931 1 I I #
face $-1 $-1 $215 $30 $-1 $393 reversed single #
loop $-1 $-1 $303 $200 #
plane-surface $-1 0 40.856629277765492 0 0 -1 0 0 0 -1 forward_v I I I I #
coedge $-1 $394 $301 $304 $395 forward $201 $-1 #
coedge $-1 $307 $203 $204 $295 reversed $127 $-1 #
coedge $-1 $301 $394 $203 $293 reversed $201 $-1 #
edge $-1 $308 -18.926443550132827 $396 18.926443550132827 $292 $397 forward 7 unknown #
coedge $-1 $205 $204 $394 $398 forward $81 $-1 #
edge $-1 $299 -77.750175481429494 $396 77.750175481429494 $291 $399 forward 7 unknown #
coedge $-1 $304 $303 $205 $297 reversed $288 $-1 #
edge $-1 $400 -77.750175481429494 $298 77.750175481429494 $296 $401 forward 7 unknown #
vertex $-1 $207 $402 #
vertex $-1 $310 $403 #
straight-curve $-1 77.750175481429494 0 -18.926443550132827 0 -1 0 I I #
coedge $-1 $290 $292 $208 $302 reversed $201 $-1 #
edge $-1 $305 -40.856629277765492 $308 40.856629277765492 $301 $404 forward 7 unknown #
coedge $-1 $296 $209 $214 $311 forward $288 $-1 #
coedge $-1 $209 $296 $290 $395 reversed $288 $-1 #
vertex $-1 $210 $405 #
straight-curve $-1 0 40.856629277765492 18.926443550132827 -1 0 0 I I #
coedge $-1 $211 $291 $213 $310 reversed $127 $-1 #
vertex $-1 $302 $406 #
straight-curve $-1 0 -40.856629277765492 18.926443550132827 1 0 0 I I #
edge $-1 $216 -18.926443550132827 $299 18.926443550132827 $213 $407 forward 7 unknown #
edge $-1 $217 -18.926443550132827 $298 18.926443550132827 $214 $408 forward 7 unknown #
point $-1 77.750175481429494 -40.856629277765492 18.926443550132827 #
point $-1 77.750175481429494 40.856629277765492 18.926443550132827 #
face $-1 $-1 $330 $31 $-1 $409 reversed single #
loop $-1 $-1 $410 $219 #
plane-surface $-1 0 -57.111872204040651 2.3177333867964123 0 1 0 0 0 1 forward_v I I I I #
coedge $-1 $411 $327 $329 $412 forward $220 $-1 #
coedge $-1 $222 $229 $413 $414 forward $135 $-1 #
coedge $-1 $415 $227 $222 $320 reversed $330 $-1 #
edge $-1 $416 -8.1276214631375794 $231 8.1276214631375794 $319 $417 forward 7 unknown #
coedge $-1 $224 $223 $410 $418 reversed $85 $-1 #
coedge $-1 $327 $411 $223 $323 forward $220 $-1 #
edge $-1 $419 -8.1276214631375794 $325 8.1276214631375794 $223 $420 forward 7 unknown #
edge $-1 $230 -8.1276214631375794 $421 8.1276214631375794 $224 $422 forward 7 unknown #
vertex $-1 $225 $423 #
straight-curve $-1 -77.750175481429494 -40.856629277765492 0 0 0 -1 I I #
coedge $-1 $317 $322 $226 $328 reversed $220 $-1 #
edge $-1 $331 -77.750175481429494 $325 77.750175481429494 $327 $424 forward 7 unknown #
coedge $-1 $227 $415 $317 $412 reversed $330 $-1 #
loop $-1 $-1 $227 $314 #
vertex $-1 $228 $425 #
straight-curve $-1 77.750175481429494 -40.856629277765492 0 0 0 1 I I #
point $-1 -77.750175481429494 -40.856629277765492 7.7715549952655785 #
point $-1 77.750175481429494 -40.856629277765492 7.7715549952655785 #
loop $-1 $-1 $340 $233 #
plane-surface $-1 0 40.856629277765492 0 0 -1 0 0 0 -1 forward_v I I I I #
coedge $-1 $236 $345 $426 $427 forward $143 $-1 #
coedge $-1 $238 $237 $236 $339 reversed $89 $-1 #
edge $-1 $428 -23.599583395895991 $346 -10.914508367843027 $236 $429 forward 7 unknown #
coedge $-1 $426 $430 $238 $341 forward $335 $-1 #
edge $-1 $343 -103.10488825590903 $428 -90.61080450101764 $340 $431 forward 7 unknown #
coedge $-1 $244 $239 $430 $432 reversed $234 $-1 #
vertex $-1 $240 $433 #
straight-curve $-1 77.750175481429494 17.257045881869509 10.566269610777233 0 1 0 I I #
coedge $-1 $337 $241 $244 $349 forward $143 $-1 #
vertex $-1 $242 $434 #
straight-curve $-1 33.120470405207584 28.171554249712536 18.926443550132831 1 0 0 I I #
straight-curve $-1 -37.809104569774945 28.171554249712536 114.61631499096734 -0.74314481823134659 0 0.66913061440640931 I I #
edge $-1 $245 28.171554249712536 $435 40.856629277765492 $244 $436 forward 7 unknown #
point $-1 77.750175481429494 28.171554249712536 18.926443550132827 #
point $-1 77.750175481429494 28.171554249712536 10.566269610777226 #
edge $-1 $437 1 $437 0 $248 $-1 forward 7 unknown #
vertex $-1 $249 $438 #
ellipse-curve $-1 70.597769251709849 30.708569255323127 11.958775393479334 0.66913061440640931 0 0.74314481823134659 0.74314481823134659 0 -0.66913061440640931 1 I I #
point $-1 73.850863499162855 30.708569255323127 14.077225966048633 #
edge $-1 $439 1 $439 0 $252 $-1 forward 7 unknown #
vertex $-1 $253 $440 #
ellipse-curve $-1 70.597769251709849 34.514091763739017 11.958775393479334 0.66913061440640931 0 0.74314481823134659 0.74314481823134659 0 -0.66913061440640931 1 I I #
point $-1 73.850863499162855 34.514091763739017 14.077225966048633 #
edge $-1 $441 1 $441 0 $256 $-1 forward 7 unknown #
vertex $-1 $257 $442 #
ellipse-curve $-1 70.597769251709849 38.319614272154908 11.958775393479334 0.66913061440640931 0 0.74314481823134659 0.74314481823134659 0 -0.66913061440640931 1 I I #
point $-1 73.850863499162855 38.319614272154908 14.077225966048633 #
loop $-1 $-1 $268 $260 #
plane-surface $-1 -77.750175481429494 0 0 1 0 0 0 0 -1 forward_v I I I I #
coedge $-1 $367 $263 $443 $444 reversed $172 $-1 #
coedge $-1 $263 $366 $370 $445 reversed $172 $-1 #
edge $-1 $371 12.860629019588178 $446 25.354712774479545 $263 $447 forward 7 unknown #
coedge $-1 $265 $264 $374 $448 reversed $108 $-1 #
coedge $-1 $271 $266 $367 $445 forward $261 $-1 #
vertex $-1 $445 $449 #
straight-curve $-1 -68.46526188043353 17.257045881869509 18.926443550132827 0 1 0 I I #
coedge $-1 $443 $268 $271 $378 reversed $364 $-1 #
coedge $-1 $268 $443 $369 $448 forward $364 $-1 #
vertex $-1 $269 $450 #
straight-curve $-1 -77.750175481429494 28.171554249712536 63.062774830990833 0 0 1 I I #
straight-curve $-1 -77.750175481429494 28.171554249712536 10.566269610777226 -0.74314481823134659 0 -0.66913061440640931 I I #
edge $-1 $451 -40.856629277765492 $272 -28.171554249712536 $373 $452 forward 7 unknown #
point $-1 -77.750175481429494 28.171554249712536 18.926443550132827 #
point $-1 -68.46526188043353 28.171554249712536 18.926443550132827 #
edge $-1 $453 1 $453 0 $275 $-1 forward 7 unknown #
vertex $-1 $276 $454 #
ellipse-curve $-1 -70.597769251709849 30.708569255323127 11.95877539347932 -0.66913061440640931 0 0.74314481823134659 0.74314481823134659 0 0.66913061440640931 1 I I #
point $-1 -72.364573862700155 30.708569255323127 15.415487194861438 #
edge $-1 $455 1 $455 0 $279 $-1 forward 7 unknown #
vertex $-1 $280 $456 #
ellipse-curve $-1 -70.597769251709849 34.514091763739017 11.95877539347932 -0.66913061440640931 0 0.74314481823134659 0.74314481823134659 0 0.66913061440640931 1 I I #
point $-1 -72.364573862700155 34.514091763739017 15.415487194861438 #
edge $-1 $457 1 $457 0 $283 $-1 forward 7 unknown #
vertex $-1 $284 $458 #
ellipse-curve $-1 -70.597769251709849 38.319614272154908 11.95877539347932 -0.66913061440640931 0 0.74314481823134659 0.74314481823134659 0 0.66913061440640931 1 I I #
point $-1 -72.364573862700155 38.319614272154908 15.415487194861438 #
plane-surface $-1 77.750175481429494 0 0 -1 0 0 0 0 1 forward_v I I I I #
coedge $-1 $292 $290 $294 $398 reversed $201 $-1 #
edge $-1 $305 -18.926443550132827 $400 18.926443550132827 $304 $459 forward 7 unknown #
vertex $-1 $398 $460 #
straight-curve $-1 -77.750175481429494 -40.856629277765492 0 0 0 -1 I I #
edge $-1 $396 -40.856629277765492 $400 40.856629277765492 $394 $461 forward 7 unknown #
straight-curve $-1 0 -40.856629277765492 -18.926443550132827 -1 0 0 I I #
vertex $-1 $297 $462 #
straight-curve $-1 0 40.856629277765492 -18.926443550132827 1 0 0 I I #
point $-1 77.750175481429494 40.856629277765492 -18.926443550132827 #
point $-1 77.750175481429494 -40.856629277765492 -18.926443550132827 #
straight-curve $-1 -77.750175481429494 0 18.926443550132827 0 -1 0 I I #
point $-1 -77.750175481429494 40.856629277765492 18.926443550132827 #
point $-1 -77.750175481429494 -40.856629277765492 18.926443550132827 #
straight-curve $-1 77.750175481429494 -40.856629277765492 0 0 0 -1 I I #
straight-curve $-1 77.750175481429494 40.856629277765492 0 0 0 -1 I I #
plane-surface $-1 77.750175481429494 0 0 -1 0 0 0 0 1 forward_v I I I I #
coedge $-1 $463 $413 $321 $418 forward $315 $-1 #
coedge $-1 $322 $317 $463 $464 forward $220 $-1 #
edge $-1 $331 -8.1276214631375794 $465 8.1276214631375794 $329 $466 forward 7 unknown #
coedge $-1 $410 $467 $318 $414 reversed $315 $-1 #
edge $-1 $421 -77.750175481429494 $416 77.750175481429494 $413 $468 forward 7 unknown #
coedge $-1 $329 $319 $467 $469 forward $330 $-1 #
vertex $-1 $320 $470 #
straight-curve $-1 77.750175481429494 -48.984250740903072 7.7715549952655785 0 1 0 I I #
edge $-1 $421 -5.4538216084691662 $419 5.4538216084691662 $321 $471 forward 7 unknown #
vertex $-1 $323 $472 #
straight-curve $-1 -77.750175481429494 -48.984250740903072 -3.1360882216727539 0 1 0 I I #
vertex $-1 $324 $473 #
straight-curve $-1 -77.750175481429494 -48.984250740903072 7.7715549952655785 0 -1 0 I I #
point $-1 -77.750175481429494 -40.856629277765492 -3.1360882216727539 #
straight-curve $-1 0 -40.856629277765492 -3.1360882216727539 -1 0 0 I I #
point $-1 77.750175481429494 -40.856629277765492 -3.1360882216727539 #
coedge $-1 $430 $340 $337 $427 reversed $335 $-1 #
edge $-1 $435 -77.750175481429494 $428 -68.465261880433516 $426 $474 forward 7 unknown #
vertex $-1 $341 $475 #
straight-curve $-1 68.465261880433545 17.257045881869509 18.926443550132817 0 -1 0 I I #
coedge $-1 $340 $426 $342 $432 forward $335 $-1 #
straight-curve $-1 1.128312039728673 40.856629277765492 79.556906837757822 -0.74314481823134659 0 0.66913061440640931 I I #
edge $-1 $435 -18.926443550132827 $343 -10.566269610777226 $342 $476 forward 7 unknown #
point $-1 77.750175481429494 40.856629277765492 10.566269610777226 #
point $-1 68.465261880433516 28.171554249712536 18.926443550132845 #
vertex $-1 $349 $477 #
straight-curve $-1 77.750175481429494 0 18.926443550132827 0 1 0 I I #
vertex $-1 $352 $478 #
point $-1 71.340914069941192 30.708569255323127 11.289644779072924 #
vertex $-1 $356 $479 #
point $-1 71.340914069941192 34.514091763739017 11.289644779072924 #
vertex $-1 $360 $480 #
point $-1 71.340914069941192 38.319614272154908 11.289644779072924 #
coedge $-1 $374 $373 $366 $444 forward $364 $-1 #
edge $-1 $451 -18.926443550132827 $446 -10.566269610777226 $366 $481 forward 7 unknown #
edge $-1 $371 68.46526188043353 $451 77.750175481429494 $367 $482 forward 7 unknown #
vertex $-1 $368 $483 #
straight-curve $-1 -58.907952065330889 40.856629277765492 27.531884147662758 -0.74314481823134659 0 -0.66913061440640931 I I #
edge $-1 $446 -23.599583395895991 $375 -10.914508367843027 $374 $484 forward 7 unknown #
point $-1 -68.46526188043353 40.856629277765499 18.926443550132827 #
point $-1 -77.750175481429494 28.171554249712536 10.566269610777226 #
vertex $-1 $445 $485 #
straight-curve $-1 -77.750175481429494 0 18.926443550132827 0 -1 0 I I #
vertex $-1 $381 $486 #
point $-1 -69.854624433478506 30.708569255323127 12.627906007885729 #
vertex $-1 $385 $487 #
point $-1 -69.854624433478506 34.514091763739017 12.627906007885729 #
vertex $-1 $389 $488 #
point $-1 -69.854624433478506 38.319614272154908 12.627906007885729 #
straight-curve $-1 -77.750175481429494 40.856629277765492 0 0 0 -1 I I #
point $-1 -77.750175481429494 -40.856629277765492 -18.926443550132827 #
straight-curve $-1 -77.750175481429494 0 -18.926443550132827 0 1 0 I I #
point $-1 -77.750175481429494 40.856629277765492 -18.926443550132827 #
coedge $-1 $467 $410 $411 $464 reversed $315 $-1 #
edge $-1 $465 -77.750175481429494 $419 77.750175481429494 $463 $489 forward 7 unknown #
vertex $-1 $469 $490 #
straight-curve $-1 77.750175481429494 -48.984250740903072 -3.1360882216727539 0 -1 0 I I #
coedge $-1 $413 $463 $415 $469 reversed $315 $-1 #
straight-curve $-1 0 -57.111872204040651 7.7715549952655785 1 0 0 I I #
edge $-1 $416 -5.4538216084691662 $465 5.4538216084691662 $415 $491 forward 7 unknown #
point $-1 77.750175481429494 -57.111872204040651 7.7715549952655785 #
straight-curve $-1 -77.750175481429494 -57.111872204040651 2.3177333867964123 0 0 -1 I I #
point $-1 -77.750175481429494 -57.111872204040651 -3.1360882216727539 #
point $-1 -77.750175481429494 -57.111872204040651 7.7715549952655785 #
straight-curve $-1 0 40.856629277765492 18.926443550132827 -1 0 0 I I #
point $-1 68.465261880433516 40.856629277765499 18.926443550132845 #
straight-curve $-1 77.750175481429494 40.856629277765492 0 0 0 -1 I I #
point $-1 77.750175481429494 40.856629277765492 18.926443550132827 #
point $-1 69.928638637303436 30.708569255323127 11.215630575247987 #
point $-1 69.928638637303436 34.514091763739017 11.215630575247987 #
point $-1 69.928638637303436 38.319614272154908 11.215630575247987 #
straight-curve $-1 -77.750175481429494 40.856629277765492 0 0 0 -1 I I #
straight-curve $-1 0 40.856629277765492 18.926443550132827 -1 0 0 I I #
point $-1 -77.750175481429494 40.856629277765499 10.566269610777226 #
straight-curve $-1 -77.750175481429494 17.257045881869509 10.566269610777226 0 -1 0 I I #
point $-1 -77.750175481429494 40.856629277765492 18.926443550132827 #
point $-1 -69.928638637303436 30.708569255323127 11.215630575247973 #
point $-1 -69.928638637303436 34.514091763739017 11.215630575247973 #
point $-1 -69.928638637303436 38.319614272154908 11.215630575247973 #
straight-curve $-1 0 -57.111872204040651 -3.1360882216727539 -1 0 0 I I #
point $-1 77.750175481429494 -57.111872204040651 -3.1360882216727539 #
straight-curve $-1 77.750175481429494 -57.111872204040651 2.3177333867964123 0 0 -1 I I #
End-of-ACIS-data 