500 0 9 0           
7 Unknown 11 ACIS 5.0 NT 24 Fri Mar 26 20:00:08 1999 
-1 9.9999999999999995e-007 1e-010 
body $-1 $9 $-1 $10 #
body $-1 $11 $-1 $12 #
body $-1 $13 $-1 $14 #
body $-1 $15 $-1 $16 #
body $-1 $17 $-1 $18 #
body $-1 $19 $-1 $20 #
body $-1 $21 $-1 $22 #
body $-1 $23 $-1 $24 #
body $-1 $25 $-1 $26 #
lump $-1 $-1 $27 $0 #
transform $-1 1 0 0 0 1 0 0 0 1 58.462477492599263 35.246270649458289 10.451470672058218 1 rotate no_reflect no_shear #
lump $-1 $-1 $28 $1 #
transform $-1 1 0 0 0 1 0 0 0 1 58.462477492599263 35.246270649458289 10.451470672058218 1 rotate no_reflect no_shear #
lump $-1 $-1 $29 $2 #
transform $-1 1 0 0 0 1 0 0 0 1 58.462477492599263 35.246270649458289 10.451470672058218 1 rotate no_reflect no_shear #
lump $-1 $-1 $30 $3 #
transform $-1 1 0 0 0 1 0 0 0 1 58.462477492599263 35.246270649458289 10.451470672058218 1 rotate no_reflect no_shear #
lump $-1 $-1 $31 $4 #
transform $-1 1 0 0 0 1 0 0 0 1 58.462477492599263 35.246270649458289 10.451470672058218 1 rotate no_reflect no_shear #
lump $-1 $-1 $32 $5 #
transform $-1 1 0 0 0 1 0 0 0 1 58.462477492599263 35.246270649458289 10.451470672058218 1 rotate no_reflect no_shear #
lump $-1 $-1 $33 $6 #
transform $-1 1 0 0 0 1 0 0 0 1 58.462477492599263 35.246270649458289 10.451470672058218 1 rotate no_reflect no_shear #
lump $-1 $-1 $34 $7 #
transform $-1 1 0 0 0 1 0 0 0 1 58.462477492599263 35.246270649458289 10.451470672058218 1 rotate no_reflect no_shear #
lump $-1 $-1 $35 $8 #
transform $-1 1 0 0 0 1 0 0 0 1 58.462477492599263 35.246270649458289 10.451470672058218 1 rotate no_reflect no_shear #
shell $-1 $-1 $-1 $36 $-1 $9 #
shell $-1 $-1 $-1 $37 $-1 $11 #
shell $-1 $-1 $-1 $38 $-1 $13 #
shell $-1 $-1 $-1 $39 $-1 $15 #
shell $-1 $-1 $-1 $40 $-1 $17 #
shell $-1 $-1 $-1 $41 $-1 $19 #
shell $-1 $-1 $-1 $42 $-1 $21 #
shell $-1 $-1 $-1 $43 $-1 $23 #
shell $-1 $-1 $-1 $44 $-1 $25 #
face $-1 $45 $46 $27 $-1 $47 forward single #
face $-1 $48 $49 $28 $-1 $50 reversed single #
face $-1 $51 $52 $29 $-1 $53 reversed single #
face $-1 $54 $55 $30 $-1 $56 forward single #
face $-1 $57 $58 $31 $-1 $59 forward single #
face $-1 $60 $61 $32 $-1 $62 reversed single #
face $-1 $63 $64 $33 $-1 $65 forward single #
face $-1 $66 $67 $34 $-1 $68 forward single #
face $-1 $69 $70 $35 $-1 $71 forward single #
face $-1 $72 $73 $27 $-1 $74 reversed single #
loop $-1 $-1 $75 $36 #
plane-surface $-1 0 0 10.451470672058218 0 0 1 1 0 0 forward_v I I I I #
face $-1 $76 $77 $28 $-1 $78 reversed single #
loop $-1 $-1 $79 $37 #
plane-surface $-1 -54.896550653668747 0 4.7360947638474453 0 0 1 1 0 0 forward_v I I I I #
face $-1 $80 $81 $29 $-1 $82 reversed single #
loop $-1 $-1 $83 $38 #
plane-surface $-1 41.942034905662069 -98.928166136132432 103.51111786213819 -1 0 0 0 -0.54463904215088732 0.83867056331134215 forward_v I I I I #
face $-1 $84 $85 $30 $-1 $86 forward single #
loop $-1 $87 $88 $39 #
cone-surface $-1 22.079674071384929 -30.835752400676554 7.0891108392425544 0 0.54463904215088732 -0.83867056331134215 1 0 0 1 I I 0 1 1 forward I I I I #
face $-1 $89 $90 $31 $-1 $91 forward single #
loop $-1 $92 $93 $40 #
cone-surface $-1 33.997090571951219 -30.835752400676554 7.0891108392425544 0 0.54463904215088732 -0.83867056331134215 1 0 0 1 I I 0 1 1 forward I I I I #
face $-1 $94 $95 $32 $-1 $96 reversed single #
loop $-1 $-1 $97 $41 #
plane-surface $-1 -39.930965633862407 -8.1532705813218911 56.624519965918424 0 0.78801076186113728 0.61566146476048833 1 0 0 forward_v I I I I #
face $-1 $98 $99 $33 $-1 $100 forward single #
loop $-1 $101 $102 $42 #
cone-surface $-1 -46.770760542387904 30.247728192010069 4.719803090492686 0 -0.78801076186113728 -0.61566146476048833 1.5 0 0 1 I I 0 1 1.5 forward I I I I #
face $-1 $103 $104 $34 $-1 $105 forward single #
loop $-1 $106 $107 $43 #
cone-surface $-1 -39.930965633862407 30.247728192010069 4.719803090492686 0 -0.78801076186113728 -0.61566146476048833 1.5 0 0 1 I I 0 1 1.5 forward I I I I #
face $-1 $108 $109 $35 $-1 $110 forward single #
loop $-1 $111 $112 $44 #
cone-surface $-1 -33.091170725336909 30.247728192010069 4.719803090492686 0 -0.78801076186113728 -0.61566146476048833 1.5 0 0 1 I I 0 1 1.5 forward I I I I #
face $-1 $113 $114 $27 $-1 $115 reversed single #
loop $-1 $-1 $116 $45 #
plane-surface $-1 0 0 -10.451470672058218 0 0 1 1 0 0 forward_v I I I I #
coedge $-1 $117 $118 $119 $120 forward $46 $-1 #
face $-1 $121 $122 $28 $-1 $123 reversed single #
loop $-1 $-1 $124 $48 #
plane-surface $-1 -51.330623814738232 0 7.5937827179528306 -1 0 0 0 0 1 forward_v I I I I #
coedge $-1 $125 $126 $127 $128 forward $49 $-1 #
face $-1 $129 $130 $29 $-1 $131 reversed single #
loop $-1 $-1 $132 $51 #
plane-surface $-1 28.038382321668067 -35.246270649458289 5.4495999995484254 0 -0.54463904215088732 0.83867056331134215 1 0 0 forward_v I I I I #
coedge $-1 $133 $134 $135 $136 reversed $52 $-1 #
face $-1 $-1 $137 $30 $-1 $138 forward single #
loop $-1 $139 $140 $54 #
cone-surface $-1 22.079674071384929 -30.004017260147688 5.8083510610261193 0 0.54463904215088732 -0.83867056331134215 0.5 0 0 1 I I -0.70710678118654746 0.70710678118654746 0.5 forward I I I I #
loop $-1 $-1 $141 $39 #
coedge $-1 $88 $88 $142 $143 reversed $55 $-1 #
face $-1 $-1 $144 $31 $-1 $145 forward single #
loop $-1 $146 $147 $57 #
cone-surface $-1 33.997090571951219 -30.004017260147688 5.8083510610261193 0 0.54463904215088732 -0.83867056331134215 0.5 0 0 1 I I -0.70710678118654746 0.70710678118654746 0.5 forward I I I I #
loop $-1 $-1 $148 $40 #
coedge $-1 $93 $93 $149 $150 reversed $58 $-1 #
face $-1 $151 $152 $32 $-1 $153 forward single #
loop $-1 $-1 $154 $60 #
plane-surface $-1 -28.531307452986582 83.984852277143574 128.61070901915991 -1 0 0 0 0.78801076186113728 0.61566146476048833 forward_v I I I I #
coedge $-1 $155 $156 $157 $158 reversed $61 $-1 #
face $-1 $-1 $159 $33 $-1 $160 forward single #
loop $-1 $161 $162 $63 #
cone-surface $-1 -46.770760542387904 28.32077890438606 3.2143053506701484 0 -0.78801076186113728 -0.61566146476048833 0.75 0 0 1 I I -0.70710678118654757 0.70710678118654757 0.75 forward I I I I #
loop $-1 $-1 $163 $42 #
coedge $-1 $102 $102 $164 $165 reversed $64 $-1 #
face $-1 $-1 $166 $34 $-1 $167 forward single #
loop $-1 $168 $169 $66 #
cone-surface $-1 -39.930965633862407 28.32077890438606 3.2143053506701484 0 -0.78801076186113728 -0.61566146476048833 0.75 0 0 1 I I -0.70710678118654757 0.70710678118654757 0.75 forward I I I I #
loop $-1 $-1 $170 $43 #
coedge $-1 $107 $107 $171 $172 reversed $67 $-1 #
face $-1 $-1 $173 $35 $-1 $174 forward single #
loop $-1 $175 $176 $69 #
cone-surface $-1 -33.091170725336909 28.32077890438606 3.2143053506701484 0 -0.78801076186113728 -0.61566146476048833 0.75 0 0 1 I I -0.70710678118654757 0.70710678118654757 0.75 forward I I I I #
loop $-1 $-1 $177 $44 #
coedge $-1 $112 $112 $178 $179 reversed $70 $-1 #
face $-1 $180 $181 $27 $-1 $182 reversed single #
loop $-1 $-1 $183 $72 #
plane-surface $-1 0 -35.246270649458289 0 0 1 0 0 0 1 forward_v I I I I #
coedge $-1 $184 $185 $186 $187 forward $73 $-1 #
coedge $-1 $188 $75 $189 $190 forward $46 $-1 #
coedge $-1 $75 $188 $191 $192 forward $46 $-1 #
coedge $-1 $193 $194 $75 $120 reversed $195 $-1 #
edge $-1 $196 -35.246270649458289 $197 35.246270649458289 $119 $198 forward 7 unknown #
face $-1 $199 $200 $28 $-1 $201 reversed single #
loop $-1 $-1 $202 $76 #
plane-surface $-1 0 35.246270649458289 0 0 -1 0 0 0 -1 forward_v I I I I #
coedge $-1 $127 $203 $204 $205 reversed $77 $-1 #
coedge $-1 $206 $79 $207 $208 reversed $49 $-1 #
coedge $-1 $79 $206 $209 $210 reversed $49 $-1 #
coedge $-1 $211 $124 $79 $128 reversed $77 $-1 #
edge $-1 $212 -35.246270649458289 $213 35.246270649458289 $127 $214 forward 7 unknown #
face $-1 $215 $216 $29 $-1 $217 reversed single #
loop $-1 $-1 $218 $80 #
plane-surface $-1 14.134729737674064 -98.928166136132432 103.51111786213819 1 0 0 0 0.54463904215088732 -0.83867056331134215 forward_v I I I I #
coedge $-1 $219 $220 $221 $222 reversed $81 $-1 #
coedge $-1 $134 $83 $223 $224 reversed $52 $-1 #
coedge $-1 $83 $133 $219 $225 reversed $52 $-1 #
coedge $-1 $221 $226 $83 $136 forward $227 $-1 #
edge $-1 $228 14.217812418607927 $229 21.92001767726455 $135 $230 forward 7 unknown #
loop $-1 $-1 $142 $84 #
plane-surface $-1 28.038382321668067 -35.246270649458289 5.4495999995484254 0 -0.54463904215088732 0.83867056331134215 1 0 0 forward_v I I I I #
loop $-1 $-1 $231 $54 #
coedge $-1 $140 $140 $141 $232 reversed $85 $-1 #
coedge $-1 $141 $141 $140 $232 forward $87 $-1 #
coedge $-1 $142 $142 $88 $143 forward $137 $-1 #
edge $-1 $233 1.0446098072252668e-015 $233 6.2831853071796013 $142 $234 forward 7 unknown #
loop $-1 $-1 $149 $89 #
plane-surface $-1 28.038382321668067 -35.246270649458289 5.4495999995484254 0 -0.54463904215088732 0.83867056331134215 1 0 0 forward_v I I I I #
loop $-1 $-1 $235 $57 #
coedge $-1 $147 $147 $148 $236 reversed $90 $-1 #
coedge $-1 $148 $148 $147 $236 forward $92 $-1 #
coedge $-1 $149 $149 $93 $150 forward $144 $-1 #
edge $-1 $237 1.0446098072252668e-015 $237 6.2831853071796013 $149 $238 forward 7 unknown #
face $-1 $239 $240 $32 $-1 $241 reversed single #
loop $-1 $-1 $157 $94 #
plane-surface $-1 0 0 10.451470672058218 0 0 1 1 0 0 forward_v I I I I #
coedge $-1 $242 $243 $244 $245 reversed $95 $-1 #
coedge $-1 $246 $97 $247 $248 reversed $61 $-1 #
coedge $-1 $97 $246 $242 $249 forward $61 $-1 #
coedge $-1 $244 $250 $97 $158 forward $152 $-1 #
edge $-1 $251 -31.365140997807028 $252 -8.5658246360553782 $157 $253 forward 7 unknown #
loop $-1 $-1 $164 $98 #
plane-surface $-1 -39.930965633862407 -8.1532705813218911 56.624519965918424 0 0.78801076186113728 0.61566146476048833 1 0 0 forward_v I I I I #
loop $-1 $-1 $254 $63 #
coedge $-1 $162 $162 $163 $255 reversed $99 $-1 #
coedge $-1 $163 $163 $162 $255 forward $101 $-1 #
coedge $-1 $164 $164 $102 $165 forward $159 $-1 #
edge $-1 $256 2.3329805105883887e-015 $256 6.2831853071796031 $164 $257 forward 7 unknown #
loop $-1 $-1 $171 $103 #
plane-surface $-1 -39.930965633862407 -8.1532705813218911 56.624519965918424 0 0.78801076186113728 0.61566146476048833 1 0 0 forward_v I I I I #
loop $-1 $-1 $258 $66 #
coedge $-1 $169 $169 $170 $259 reversed $104 $-1 #
coedge $-1 $170 $170 $169 $259 forward $106 $-1 #
coedge $-1 $171 $171 $107 $172 forward $166 $-1 #
edge $-1 $260 2.3329805105883887e-015 $260 6.2831853071796031 $171 $261 forward 7 unknown #
loop $-1 $-1 $178 $108 #
plane-surface $-1 -39.930965633862407 -8.1532705813218911 56.624519965918424 0 0.78801076186113728 0.61566146476048833 1 0 0 forward_v I I I I #
loop $-1 $-1 $262 $69 #
coedge $-1 $176 $176 $177 $263 reversed $109 $-1 #
coedge $-1 $177 $177 $176 $263 forward $111 $-1 #
coedge $-1 $178 $178 $112 $179 forward $173 $-1 #
edge $-1 $264 2.3329805105883887e-015 $264 6.2831853071796031 $178 $265 forward 7 unknown #
face $-1 $266 $267 $27 $-1 $268 reversed single #
loop $-1 $-1 $269 $113 #
plane-surface $-1 -58.462477492599263 0 0 1 0 0 0 0 -1 forward_v I I I I #
coedge $-1 $270 $191 $271 $272 forward $114 $-1 #
coedge $-1 $273 $116 $270 $274 forward $73 $-1 #
coedge $-1 $116 $273 $275 $276 forward $73 $-1 #
coedge $-1 $194 $193 $116 $187 reversed $195 $-1 #
edge $-1 $277 -35.246270649458289 $278 35.246270649458289 $186 $279 forward 7 unknown #
coedge $-1 $118 $117 $280 $281 forward $46 $-1 #
coedge $-1 $282 $283 $117 $190 reversed $267 $-1 #
edge $-1 $197 -58.462477492599263 $284 58.462477492599263 $189 $285 forward 7 unknown #
coedge $-1 $183 $286 $118 $192 reversed $114 $-1 #
edge $-1 $287 -58.462477492599263 $196 58.462477492599263 $191 $288 forward 7 unknown #
coedge $-1 $186 $119 $286 $289 forward $195 $-1 #
coedge $-1 $119 $186 $282 $290 reversed $195 $-1 #
loop $-1 $-1 $193 $266 #
vertex $-1 $120 $291 #
vertex $-1 $120 $292 #
straight-curve $-1 58.462477492599263 0 10.451470672058218 0 1 0 I I #
face $-1 $293 $294 $28 $-1 $295 forward single #
loop $-1 $-1 $296 $121 #
plane-surface $-1 -58.462477492599263 0 0 1 0 0 0 0 -1 forward_v I I I I #
coedge $-1 $209 $297 $211 $298 forward $122 $-1 #
coedge $-1 $124 $211 $299 $300 reversed $77 $-1 #
coedge $-1 $301 $207 $124 $205 forward $302 $-1 #
edge $-1 $213 0.93920340487103005 $303 6.6545793130818005 $204 $304 forward 7 unknown #
coedge $-1 $126 $125 $296 $305 reversed $49 $-1 #
coedge $-1 $204 $306 $125 $208 forward $302 $-1 #
edge $-1 $307 -31.014202165764889 $213 -23.882348487903858 $207 $308 forward 7 unknown #
coedge $-1 $309 $202 $126 $210 forward $122 $-1 #
edge $-1 $212 23.882348487903858 $310 31.014202165764889 $209 $311 forward 7 unknown #
coedge $-1 $203 $127 $202 $298 reversed $77 $-1 #
vertex $-1 $210 $312 #
vertex $-1 $208 $313 #
straight-curve $-1 -51.330623814738232 0 4.7360947638474453 0 -1 0 I I #
face $-1 $-1 $227 $29 $-1 $314 forward single #
loop $-1 $-1 $315 $129 #
plane-surface $-1 0 -35.246270649458289 0 0 1 0 0 0 1 forward_v I I I I #
coedge $-1 $316 $317 $318 $319 reversed $130 $-1 #
coedge $-1 $320 $132 $134 $225 forward $81 $-1 #
coedge $-1 $132 $320 $316 $321 forward $81 $-1 #
coedge $-1 $318 $135 $132 $222 forward $227 $-1 #
edge $-1 $229 -27.922843744828036 $322 -0.11553857684003077 $221 $323 forward 7 unknown #
coedge $-1 $324 $325 $133 $224 forward $216 $-1 #
edge $-1 $326 -46.305958931520671 $228 -41.304088259010882 $223 $327 forward 7 unknown #
edge $-1 $229 -9.1838268750554803 $326 0 $134 $328 forward 7 unknown #
coedge $-1 $135 $318 $324 $329 forward $227 $-1 #
loop $-1 $-1 $318 $215 #
vertex $-1 $224 $330 #
vertex $-1 $136 $331 #
straight-curve $-1 41.942034905662069 -49.464083068066216 10.451470672058221 0 1 0 I I #
coedge $-1 $231 $231 $-1 $332 reversed $139 $-1 #
edge $-1 $333 0 $333 6.2831853071796004 $140 $334 forward 7 unknown #
vertex $-1 $143 $335 #
ellipse-curve $-1 22.079674071384929 -31.395168020129979 7.9505353358033215 0 -0.54463904215088732 0.83867056331134215 1 0 0 1 I I #
coedge $-1 $235 $235 $-1 $336 reversed $146 $-1 #
edge $-1 $337 0 $337 6.2831853071796004 $147 $338 forward 7 unknown #
vertex $-1 $150 $339 #
ellipse-curve $-1 33.997090571951219 -31.395168020129979 7.9505353358033215 0 -0.54463904215088732 0.83867056331134215 1 0 0 1 I I #
face $-1 $-1 $340 $32 $-1 $341 forward single #
loop $-1 $-1 $342 $151 #
plane-surface $-1 0 35.246270649458289 0 0 -1 0 0 0 -1 forward_v I I I I #
coedge $-1 $243 $154 $156 $249 reversed $95 $-1 #
coedge $-1 $154 $242 $342 $343 reversed $95 $-1 #
coedge $-1 $344 $157 $154 $245 forward $152 $-1 #
edge $-1 $252 -14.07135797155361 $345 -6.746155489113498 $244 $346 forward 7 unknown #
coedge $-1 $156 $155 $347 $348 reversed $61 $-1 #
coedge $-1 $349 $350 $155 $248 forward $340 $-1 #
edge $-1 $351 -48.664339737882628 $251 -36.766238424541797 $247 $352 forward 7 unknown #
edge $-1 $353 -70.492541298916549 $252 -58.594439985575711 $242 $354 forward 7 unknown #
coedge $-1 $157 $344 $349 $355 forward $152 $-1 #
vertex $-1 $248 $356 #
vertex $-1 $158 $357 #
straight-curve $-1 -19.965482816931203 27.921068167018184 10.451470672058214 1 0 0 I I #
coedge $-1 $254 $254 $-1 $358 reversed $161 $-1 #
edge $-1 $359 0 $359 6.2831853071796004 $162 $360 forward 7 unknown #
vertex $-1 $165 $361 #
ellipse-curve $-1 -46.770760542387904 31.583669408238229 5.7635547317448603 0 0.78801076186113728 0.61566146476048833 1.5 0 0 1 I I #
coedge $-1 $258 $258 $-1 $362 reversed $168 $-1 #
edge $-1 $363 0 $363 6.2831853071796004 $169 $364 forward 7 unknown #
vertex $-1 $172 $365 #
ellipse-curve $-1 -39.930965633862407 31.583669408238229 5.7635547317448603 0 0.78801076186113728 0.61566146476048833 1.5 0 0 1 I I #
coedge $-1 $262 $262 $-1 $366 reversed $175 $-1 #
edge $-1 $367 0 $367 6.2831853071796004 $176 $368 forward 7 unknown #
vertex $-1 $179 $369 #
ellipse-curve $-1 -33.091170725336909 31.583669408238229 5.7635547317448603 0 0.78801076186113728 0.61566146476048833 1.5 0 0 1 I I #
face $-1 $-1 $195 $27 $-1 $370 reversed single #
loop $-1 $-1 $282 $180 #
plane-surface $-1 0 35.246270649458289 0 0 -1 0 0 0 -1 forward_v I I I I #
coedge $-1 $371 $280 $283 $372 forward $181 $-1 #
coedge $-1 $286 $183 $184 $274 reversed $114 $-1 #
coedge $-1 $280 $371 $183 $272 reversed $181 $-1 #
edge $-1 $287 -10.451470672058218 $373 10.451470672058218 $271 $374 forward 7 unknown #
coedge $-1 $185 $184 $371 $375 forward $73 $-1 #
edge $-1 $278 -58.462477492599263 $373 58.462477492599263 $270 $376 forward 7 unknown #
coedge $-1 $283 $282 $185 $276 reversed $267 $-1 #
edge $-1 $377 -58.462477492599263 $277 58.462477492599263 $275 $378 forward 7 unknown #
vertex $-1 $187 $379 #
vertex $-1 $289 $380 #
straight-curve $-1 58.462477492599263 0 -10.451470672058218 0 -1 0 I I #
coedge $-1 $269 $271 $188 $281 reversed $181 $-1 #
edge $-1 $284 -35.246270649458289 $287 35.246270649458289 $280 $381 forward 7 unknown #
coedge $-1 $275 $189 $194 $290 forward $267 $-1 #
coedge $-1 $189 $275 $269 $372 reversed $267 $-1 #
vertex $-1 $190 $382 #
straight-curve $-1 0 35.246270649458289 10.451470672058218 -1 0 0 I I #
coedge $-1 $191 $270 $193 $289 reversed $114 $-1 #
vertex $-1 $281 $383 #
straight-curve $-1 0 -35.246270649458289 10.451470672058218 1 0 0 I I #
edge $-1 $196 -10.451470672058218 $278 10.451470672058218 $193 $384 forward 7 unknown #
edge $-1 $197 -10.451470672058218 $277 10.451470672058218 $194 $385 forward 7 unknown #
point $-1 58.462477492599263 -35.246270649458289 10.451470672058218 #
point $-1 58.462477492599263 35.246270649458289 10.451470672058218 #
face $-1 $-1 $302 $28 $-1 $386 reversed single #
loop $-1 $-1 $299 $199 #
plane-surface $-1 0 0 10.451470672058218 0 0 1 1 0 0 forward_v I I I I #
coedge $-1 $387 $388 $206 $305 forward $200 $-1 #
coedge $-1 $202 $309 $389 $390 reversed $122 $-1 #
edge $-1 $391 -6.6545793130818005 $212 -0.93920340487103005 $202 $392 forward 7 unknown #
coedge $-1 $389 $393 $203 $300 forward $294 $-1 #
edge $-1 $303 -35.246270649458289 $391 35.246270649458289 $299 $394 forward 7 unknown #
coedge $-1 $306 $204 $393 $395 reversed $302 $-1 #
loop $-1 $-1 $204 $293 #
vertex $-1 $205 $396 #
straight-curve $-1 -51.330623814738232 -35.246270649458289 3.7968913589764153 0 0 1 I I #
edge $-1 $310 -35.246270649458289 $307 35.246270649458289 $296 $397 forward 7 unknown #
coedge $-1 $207 $301 $387 $398 forward $302 $-1 #
vertex $-1 $305 $399 #
straight-curve $-1 -27.448275326834374 -35.246270649458289 4.7360947638474453 1 0 0 I I #
coedge $-1 $297 $209 $388 $400 reversed $122 $-1 #
vertex $-1 $305 $401 #
straight-curve $-1 -27.448275326834374 35.246270649458289 4.7360947638474453 -1 0 0 I I #
point $-1 -51.330623814738232 35.246270649458289 4.7360947638474453 #
point $-1 -51.330623814738232 -35.246270649458289 4.7360947638474453 #
plane-surface $-1 0 0 10.451470672058218 0 0 1 1 0 0 forward_v I I I I #
coedge $-1 $325 $324 $317 $402 forward $216 $-1 #
coedge $-1 $317 $218 $220 $321 reversed $130 $-1 #
coedge $-1 $218 $316 $315 $402 reversed $130 $-1 #
coedge $-1 $226 $221 $218 $319 forward $227 $-1 #
edge $-1 $322 -21.92001767726455 $403 -14.217812418607927 $318 $404 forward 7 unknown #
coedge $-1 $220 $219 $325 $405 reversed $81 $-1 #
edge $-1 $406 0 $322 9.1838268750554803 $316 $407 forward 7 unknown #
vertex $-1 $222 $408 #
straight-curve $-1 14.019191160834033 -27.54406539080167 10.451470672058218 -1 0 0 I I #
coedge $-1 $315 $223 $226 $329 reversed $216 $-1 #
coedge $-1 $223 $315 $320 $405 forward $216 $-1 #
vertex $-1 $224 $409 #
straight-curve $-1 41.942034905662069 -35.246270649458289 51.755558931069096 0 0 1 I I #
straight-curve $-1 41.942034905662069 -35.246270649458289 5.4495999995484254 0 -0.83867056331134215 -0.54463904215088732 I I #
edge $-1 $403 14.134729737674064 $228 41.942034905662069 $324 $410 forward 7 unknown #
point $-1 41.942034905662069 -35.246270649458289 10.451470672058218 #
point $-1 41.942034905662069 -27.544065390801666 10.451470672058218 #
edge $-1 $411 1 $411 0 $231 $-1 forward 7 unknown #
vertex $-1 $232 $412 #
ellipse-curve $-1 22.079674071384929 -30.276336781223129 6.2276863426817908 0 -0.54463904215088732 0.83867056331134215 1 0 0 1 I I #
point $-1 23.079674071384929 -31.395168020129976 7.9505353358033179 #
edge $-1 $413 1 $413 0 $235 $-1 forward 7 unknown #
vertex $-1 $236 $414 #
ellipse-curve $-1 33.997090571951219 -30.276336781223129 6.2276863426817908 0 -0.54463904215088732 0.83867056331134215 1 0 0 1 I I #
point $-1 34.997090571951219 -31.395168020129976 7.9505353358033179 #
loop $-1 $-1 $247 $239 #
plane-surface $-1 -51.330623814738232 0 7.5937827179528306 -1 0 0 0 0 1 forward_v I I I I #
coedge $-1 $347 $415 $243 $343 forward $240 $-1 #
edge $-1 $345 53.853883837521735 $353 63.229715718148448 $342 $416 forward 7 unknown #
coedge $-1 $250 $244 $415 $417 forward $152 $-1 #
vertex $-1 $417 $418 #
straight-curve $-1 -28.531307452986582 41.992426138571787 10.451470672058221 0 1 0 I I #
coedge $-1 $419 $342 $246 $348 forward $240 $-1 #
edge $-1 $353 8.5658246360553782 $351 31.365140997807028 $347 $420 forward 7 unknown #
coedge $-1 $350 $247 $250 $355 reversed $340 $-1 #
coedge $-1 $247 $349 $419 $421 reversed $340 $-1 #
vertex $-1 $421 $422 #
straight-curve $-1 -51.330623814738232 5.2855119648314304 39.423662223749616 0 -0.61566146476048833 0.78801076186113728 I I #
vertex $-1 $348 $423 #
straight-curve $-1 -28.531307452986582 -8.1532705813218911 56.624519965918424 0 -0.61566146476048833 0.78801076186113728 I I #
edge $-1 $424 -35.246270649458289 $251 -27.921068167018177 $250 $425 forward 7 unknown #
point $-1 -51.330623814738232 27.921068167018177 10.451470672058221 #
point $-1 -28.531307452986582 27.921068167018177 10.451470672058221 #
edge $-1 $426 1 $426 0 $254 $-1 forward 7 unknown #
vertex $-1 $255 $427 #
ellipse-curve $-1 -46.770760542387904 28.911786975781911 3.6760514492405147 0 0.78801076186113728 0.61566146476048833 1.5 0 0 1 I I #
point $-1 -45.270760542387904 31.583669408238229 5.7635547317448559 #
edge $-1 $428 1 $428 0 $258 $-1 forward 7 unknown #
vertex $-1 $259 $429 #
ellipse-curve $-1 -39.930965633862407 28.911786975781911 3.6760514492405147 0 0.78801076186113728 0.61566146476048833 1.5 0 0 1 I I #
point $-1 -38.430965633862407 31.583669408238229 5.7635547317448559 #
edge $-1 $430 1 $430 0 $262 $-1 forward 7 unknown #
vertex $-1 $263 $431 #
ellipse-curve $-1 -33.091170725336909 28.911786975781911 3.6760514492405147 0 0.78801076186113728 0.61566146476048833 1.5 0 0 1 I I #
point $-1 -31.591170725336909 31.583669408238229 5.7635547317448559 #
plane-surface $-1 58.462477492599263 0 0 -1 0 0 0 0 1 forward_v I I I I #
coedge $-1 $271 $269 $273 $375 reversed $181 $-1 #
edge $-1 $284 -10.451470672058218 $377 10.451470672058218 $283 $432 forward 7 unknown #
vertex $-1 $375 $433 #
straight-curve $-1 -58.462477492599263 -35.246270649458289 0 0 0 -1 I I #
edge $-1 $373 -35.246270649458289 $377 35.246270649458289 $371 $434 forward 7 unknown #
straight-curve $-1 0 -35.246270649458289 -10.451470672058218 -1 0 0 I I #
vertex $-1 $276 $435 #
straight-curve $-1 0 35.246270649458289 -10.451470672058218 1 0 0 I I #
point $-1 58.462477492599263 35.246270649458289 -10.451470672058218 #
point $-1 58.462477492599263 -35.246270649458289 -10.451470672058218 #
straight-curve $-1 -58.462477492599263 0 10.451470672058218 0 -1 0 I I #
point $-1 -58.462477492599263 35.246270649458289 10.451470672058218 #
point $-1 -58.462477492599263 -35.246270649458289 10.451470672058218 #
straight-curve $-1 58.462477492599263 -35.246270649458289 0 0 0 -1 I I #
straight-curve $-1 58.462477492599263 35.246270649458289 0 0 0 -1 I I #
plane-surface $-1 0 -35.246270649458289 0 0 1 0 0 0 1 forward_v I I I I #
coedge $-1 $436 $296 $306 $398 reversed $200 $-1 #
coedge $-1 $296 $436 $309 $400 forward $200 $-1 #
coedge $-1 $437 $299 $297 $390 forward $294 $-1 #
edge $-1 $391 51.330623814738232 $438 58.462477492599263 $297 $439 forward 7 unknown #
vertex $-1 $390 $440 #
straight-curve $-1 -51.330623814738232 35.246270649458289 3.7968913589764153 0 0 -1 I I #
coedge $-1 $299 $437 $301 $395 forward $294 $-1 #
straight-curve $-1 -51.330623814738232 0 10.451470672058218 0 1 0 I I #
edge $-1 $441 -58.462477492599263 $303 -51.330623814738232 $301 $442 forward 7 unknown #
point $-1 -51.330623814738232 -35.246270649458289 10.451470672058216 #
straight-curve $-1 -58.462477492599263 0 4.7360947638474453 0 -1 0 I I #
edge $-1 $441 -10.451470672058218 $307 -4.7360947638474453 $387 $443 forward 7 unknown #
point $-1 -58.462477492599263 -35.246270649458289 4.7360947638474453 #
edge $-1 $438 -10.451470672058218 $310 -4.7360947638474453 $309 $444 forward 7 unknown #
point $-1 -58.462477492599263 35.246270649458289 4.7360947638474453 #
edge $-1 $403 41.304088259010882 $406 46.305958931520671 $315 $445 forward 7 unknown #
vertex $-1 $329 $446 #
straight-curve $-1 14.134729737674064 -49.464083068066216 10.451470672058221 0 -1 0 I I #
edge $-1 $406 0.11553857684003077 $326 27.922843744828036 $325 $447 forward 7 unknown #
vertex $-1 $405 $448 #
straight-curve $-1 14.134729737674064 -35.246270649458289 5.4495999995484254 0 0.83867056331134215 0.54463904215088732 I I #
point $-1 14.134729737674064 -27.544065390801666 10.451470672058218 #
point $-1 41.942034905662069 -35.246270649458289 5.4495999995484254 #
straight-curve $-1 0 -35.246270649458289 10.451470672058218 1 0 0 I I #
vertex $-1 $332 $449 #
point $-1 23.079674071384929 -30.276336781223129 6.2276863426817908 #
vertex $-1 $336 $450 #
point $-1 34.997090571951219 -30.276336781223129 6.2276863426817908 #
coedge $-1 $342 $419 $344 $417 reversed $240 $-1 #
straight-curve $-1 -28.531307452986582 35.246270649458289 64.305354509579956 0 0 -1 I I #
edge $-1 $345 28.531307452986582 $424 51.330623814738232 $415 $451 forward 7 unknown #
point $-1 -28.531307452986582 35.246270649458289 10.451470672058218 #
coedge $-1 $415 $347 $350 $421 forward $240 $-1 #
straight-curve $-1 -19.965482816931203 35.246270649458289 1.0756387914315155 -1 0 0 I I #
edge $-1 $351 -63.229715718148448 $424 -53.853883837521742 $419 $452 forward 7 unknown #
point $-1 -51.330623814738232 35.246270649458289 1.0756387914315084 #
point $-1 -28.531307452986582 35.246270649458289 1.0756387914315084 #
vertex $-1 $355 $453 #
straight-curve $-1 -51.330623814738232 0 10.451470672058218 0 -1 0 I I #
vertex $-1 $358 $454 #
point $-1 -45.270760542387904 28.911786975781911 3.6760514492405147 #
vertex $-1 $362 $455 #
point $-1 -38.430965633862407 28.911786975781911 3.6760514492405147 #
vertex $-1 $366 $456 #
point $-1 -31.591170725336909 28.911786975781911 3.6760514492405147 #
straight-curve $-1 -58.462477492599263 35.246270649458289 0 0 0 -1 I I #
point $-1 -58.462477492599263 -35.246270649458289 -10.451470672058218 #
straight-curve $-1 -58.462477492599263 0 -10.451470672058218 0 1 0 I I #
point $-1 -58.462477492599263 35.246270649458289 -10.451470672058218 #
coedge $-1 $388 $387 $437 $457 reversed $200 $-1 #
coedge $-1 $393 $389 $436 $457 forward $294 $-1 #
vertex $-1 $390 $458 #
straight-curve $-1 0 35.246270649458289 10.451470672058218 -1 0 0 I I #
point $-1 -51.330623814738232 35.246270649458289 10.451470672058216 #
vertex $-1 $457 $459 #
straight-curve $-1 0 -35.246270649458289 10.451470672058218 1 0 0 I I #
straight-curve $-1 -58.462477492599263 -35.246270649458289 0 0 0 -1 I I #
straight-curve $-1 -58.462477492599263 35.246270649458289 0 0 0 -1 I I #
straight-curve $-1 14.134729737674064 -35.246270649458289 51.755558931069096 0 0 -1 I I #
point $-1 14.134729737674064 -35.246270649458289 10.451470672058218 #
straight-curve $-1 14.019191160834033 -35.246270649458289 5.4495999995484272 1 0 0 I I #
point $-1 14.134729737674064 -35.246270649458289 5.4495999995484254 #
point $-1 22.079674071384929 -29.731697739072246 5.3890157793704478 #
point $-1 33.997090571951219 -29.731697739072246 5.3890157793704478 #
straight-curve $-1 0 35.246270649458289 10.451470672058218 -1 0 0 I I #
straight-curve $-1 -51.330623814738232 35.246270649458289 64.305354509579956 0 0 1 I I #
point $-1 -51.330623814738232 35.246270649458289 10.451470672058216 #
point $-1 -46.770760542387904 27.729770832990209 2.7525592520997821 #
point $-1 -39.930965633862407 27.729770832990209 2.7525592520997821 #
point $-1 -33.091170725336909 27.729770832990209 2.7525592520997821 #
edge $-1 $438 -35.246270649458289 $441 35.246270649458289 $436 $460 forward 7 unknown #
point $-1 -58.462477492599263 35.246270649458289 10.451470672058218 #
point $-1 -58.462477492599263 -35.246270649458289 10.451470672058218 #
straight-curve $-1 -58.462477492599263 0 10.451470672058218 0 -1 0 I I #
End-of-ACIS-data 