500 0 9 0           
7 Unknown 11 ACIS 5.0 NT 24 Fri Mar 26 20:10:59 1999 
-1 9.9999999999999995e-007 1e-010 
body $-1 $9 $-1 $10 #
body $-1 $11 $-1 $12 #
body $-1 $13 $-1 $14 #
body $-1 $15 $-1 $16 #
body $-1 $17 $-1 $18 #
body $-1 $19 $-1 $20 #
body $-1 $21 $-1 $22 #
body $-1 $23 $-1 $24 #
body $-1 $25 $-1 $26 #
lump $-1 $-1 $27 $0 #
transform $-1 1 0 0 0 1 0 0 0 1 59.884640034180734 32.869936364963351 11.580465693667712 1 rotate no_reflect no_shear #
lump $-1 $-1 $28 $1 #
transform $-1 1 0 0 0 1 0 0 0 1 59.884640034180734 32.869936364963351 11.580465693667712 1 rotate no_reflect no_shear #
lump $-1 $-1 $29 $2 #
transform $-1 1 0 0 0 1 0 0 0 1 59.884640034180734 32.869936364963351 11.580465693667712 1 rotate no_reflect no_shear #
lump $-1 $-1 $30 $3 #
transform $-1 1 0 0 0 1 0 0 0 1 59.884640034180734 32.869936364963351 11.580465693667712 1 rotate no_reflect no_shear #
lump $-1 $-1 $31 $4 #
transform $-1 1 0 0 0 1 0 0 0 1 59.884640034180734 32.869936364963351 11.580465693667712 1 rotate no_reflect no_shear #
lump $-1 $-1 $32 $5 #
transform $-1 1 0 0 0 1 0 0 0 1 59.884640034180734 32.869936364963351 11.580465693667712 1 rotate no_reflect no_shear #
lump $-1 $-1 $33 $6 #
transform $-1 1 0 0 0 1 0 0 0 1 59.884640034180734 32.869936364963351 11.580465693667712 1 rotate no_reflect no_shear #
lump $-1 $-1 $34 $7 #
transform $-1 1 0 0 0 1 0 0 0 1 59.884640034180734 32.869936364963351 11.580465693667712 1 rotate no_reflect no_shear #
lump $-1 $-1 $35 $8 #
transform $-1 1 0 0 0 1 0 0 0 1 59.884640034180734 32.869936364963351 11.580465693667712 1 rotate no_reflect no_shear #
shell $-1 $-1 $-1 $36 $-1 $9 #
shell $-1 $-1 $-1 $37 $-1 $11 #
shell $-1 $-1 $-1 $38 $-1 $13 #
shell $-1 $-1 $-1 $39 $-1 $15 #
shell $-1 $-1 $-1 $40 $-1 $17 #
shell $-1 $-1 $-1 $41 $-1 $19 #
shell $-1 $-1 $-1 $42 $-1 $21 #
shell $-1 $-1 $-1 $43 $-1 $23 #
shell $-1 $-1 $-1 $44 $-1 $25 #
face $-1 $45 $46 $27 $-1 $47 forward single #
face $-1 $48 $49 $28 $-1 $50 reversed single #
face $-1 $51 $52 $29 $-1 $53 reversed single #
face $-1 $54 $55 $30 $-1 $56 forward single #
face $-1 $57 $58 $31 $-1 $59 forward single #
face $-1 $60 $61 $32 $-1 $62 reversed single #
face $-1 $63 $64 $33 $-1 $65 forward single #
face $-1 $66 $67 $34 $-1 $68 forward single #
face $-1 $69 $70 $35 $-1 $71 forward single #
face $-1 $72 $73 $27 $-1 $74 reversed single #
loop $-1 $-1 $75 $36 #
plane-surface $-1 0 0 11.580465693667712 0 0 1 1 0 0 forward_v I I I I #
face $-1 $76 $77 $28 $-1 $78 reversed single #
loop $-1 $-1 $79 $37 #
plane-surface $-1 0 -28.659194642395551 5.1061912394210989 0 0 1 1 0 0 forward_v I I I I #
face $-1 $80 $81 $29 $-1 $82 reversed single #
loop $-1 $-1 $83 $38 #
plane-surface $-1 -159.1778742157415 26.397064413577954 70.423389780964357 0 1 0 -0.82903758062907751 0 0.55919289150049634 forward_v I I I I #
face $-1 $84 $85 $30 $-1 $86 forward single #
loop $-1 $87 $88 $39 #
cone-surface $-1 -56.727837497528625 28.246456399688071 7.2352662743858822 0.82903758062907751 0 -0.55919289150049634 0.27959644575024817 0 0.41451879031453875 1 I I 0 1 0.5 forward I I I I #
face $-1 $89 $90 $31 $-1 $91 forward single #
loop $-1 $92 $93 $40 #
cone-surface $-1 -56.727837497528625 31.020544378853238 7.2352662743858822 0.82903758062907751 0 -0.55919289150049634 0.27959644575024817 0 0.41451879031453875 1 I I 0 1 0.5 forward I I I I #
face $-1 $94 $95 $32 $-1 $96 reversed single #
loop $-1 $-1 $97 $41 #
plane-surface $-1 71.699947668323233 10.14717415909538 169.32365982038519 0 -1 0 -0.75470958851134928 0 -0.65605901945558964 forward_v I I I I #
face $-1 $98 $99 $33 $-1 $100 forward single #
loop $-1 $101 $102 $42 #
cone-surface $-1 54.296995702268653 -0.95076955874907654 5.3520166406203433 -0.75470958851134928 0 -0.65605901945558964 0.65605901945558964 0 -0.75470958851134928 1 I I 0 1 1 forward I I I I #
face $-1 $103 $104 $34 $-1 $105 forward single #
loop $-1 $106 $107 $43 #
cone-surface $-1 54.296995702268653 3.2109593354425954 5.3520166406203433 -0.75470958851134928 0 -0.65605901945558964 0.65605901945558964 0 -0.75470958851134928 1 I I 0 1 1 forward I I I I #
face $-1 $108 $109 $35 $-1 $110 forward single #
loop $-1 $111 $112 $44 #
cone-surface $-1 54.296995702268653 7.3726882296342637 5.3520166406203433 -0.75470958851134928 0 -0.65605901945558964 0.65605901945558964 0 -0.75470958851134928 1 I I 0 1 1 forward I I I I #
face $-1 $113 $114 $27 $-1 $115 reversed single #
loop $-1 $-1 $116 $45 #
plane-surface $-1 0 0 -11.580465693667712 0 0 1 1 0 0 forward_v I I I I #
coedge $-1 $117 $118 $119 $120 forward $46 $-1 #
face $-1 $121 $122 $28 $-1 $123 reversed single #
loop $-1 $-1 $124 $48 #
plane-surface $-1 0 -24.448452919827751 8.3433284665444063 0 -1 0 0 0 -1 forward_v I I I I #
coedge $-1 $125 $126 $127 $128 reversed $49 $-1 #
face $-1 $129 $130 $29 $-1 $131 forward single #
loop $-1 $-1 $132 $51 #
plane-surface $-1 -59.884640034180705 29.633500389270651 3.4492597466045396 -0.82903758062907751 0 0.55919289150049634 0.55919289150049634 0 0.82903758062907751 forward_v I I I I #
coedge $-1 $133 $134 $135 $136 reversed $52 $-1 #
face $-1 $-1 $137 $30 $-1 $138 forward single #
loop $-1 $139 $140 $54 #
cone-surface $-1 -56.106059312056814 28.246456399688071 6.8158716057605098 0.82903758062907751 0 -0.55919289150049634 0.13979822287512408 0 0.20725939515726938 1 I I -0.70710678118654746 0.70710678118654746 0.25 forward I I I I #
loop $-1 $-1 $141 $39 #
coedge $-1 $88 $88 $142 $143 reversed $55 $-1 #
face $-1 $-1 $144 $31 $-1 $145 forward single #
loop $-1 $146 $147 $57 #
cone-surface $-1 -56.106059312056814 31.020544378853238 6.8158716057605098 0.82903758062907751 0 -0.55919289150049634 0.13979822287512408 0 0.20725939515726938 1 I I -0.70710678118654746 0.70710678118654746 0.25 forward I I I I #
loop $-1 $-1 $148 $40 #
coedge $-1 $93 $93 $149 $150 reversed $58 $-1 #
face $-1 $151 $152 $32 $-1 $153 reversed single #
loop $-1 $-1 $154 $60 #
plane-surface $-1 -18.691076408370392 3.2109593354425954 90.747943377834062 0.75470958851134928 0 0.65605901945558964 0.65605901945558964 0 -0.75470958851134928 forward_v I I I I #
coedge $-1 $155 $156 $157 $158 reversed $61 $-1 #
face $-1 $-1 $159 $33 $-1 $160 forward single #
loop $-1 $161 $162 $63 #
cone-surface $-1 53.210236466771804 -0.95076955874907654 4.4073112741088281 -0.75470958851134928 0 -0.65605901945558964 0.32802950972779482 0 -0.37735479425567464 1 I I -0.70710678118654746 0.70710678118654746 0.5 forward I I I I #
loop $-1 $-1 $163 $42 #
coedge $-1 $102 $102 $164 $165 reversed $64 $-1 #
face $-1 $-1 $166 $34 $-1 $167 forward single #
loop $-1 $168 $169 $66 #
cone-surface $-1 53.210236466771804 3.2109593354425954 4.4073112741088281 -0.75470958851134928 0 -0.65605901945558964 0.32802950972779482 0 -0.37735479425567464 1 I I -0.70710678118654746 0.70710678118654746 0.5 forward I I I I #
loop $-1 $-1 $170 $43 #
coedge $-1 $107 $107 $171 $172 reversed $67 $-1 #
face $-1 $-1 $173 $35 $-1 $174 forward single #
loop $-1 $175 $176 $69 #
cone-surface $-1 53.210236466771804 7.3726882296342637 4.4073112741088281 -0.75470958851134928 0 -0.65605901945558964 0.32802950972779482 0 -0.37735479425567464 1 I I -0.70710678118654746 0.70710678118654746 0.5 forward I I I I #
loop $-1 $-1 $177 $44 #
coedge $-1 $112 $112 $178 $179 reversed $70 $-1 #
face $-1 $180 $181 $27 $-1 $182 reversed single #
loop $-1 $-1 $183 $72 #
plane-surface $-1 0 -32.869936364963351 0 0 1 0 0 0 1 forward_v I I I I #
coedge $-1 $184 $185 $186 $187 forward $73 $-1 #
coedge $-1 $188 $75 $189 $190 forward $46 $-1 #
coedge $-1 $75 $188 $191 $192 forward $46 $-1 #
coedge $-1 $193 $194 $75 $120 reversed $195 $-1 #
edge $-1 $196 -32.869936364963351 $197 32.869936364963351 $119 $198 forward 7 unknown #
face $-1 $199 $200 $28 $-1 $201 reversed single #
loop $-1 $-1 $202 $76 #
plane-surface $-1 -59.884640034180734 0 0 1 0 0 0 0 -1 forward_v I I I I #
coedge $-1 $203 $204 $205 $206 reversed $77 $-1 #
coedge $-1 $207 $79 $208 $209 reversed $49 $-1 #
coedge $-1 $79 $207 $203 $210 forward $49 $-1 #
coedge $-1 $205 $211 $79 $128 forward $212 $-1 #
edge $-1 $213 -18.540339043765577 $214 -10.118855598629976 $127 $215 forward 7 unknown #
face $-1 $216 $217 $29 $-1 $218 reversed single #
loop $-1 $-1 $135 $80 #
plane-surface $-1 0 0 11.580465693667712 0 0 1 1 0 0 forward_v I I I I #
coedge $-1 $219 $220 $221 $222 reversed $81 $-1 #
coedge $-1 $134 $83 $223 $224 reversed $52 $-1 #
coedge $-1 $83 $133 $219 $225 reversed $52 $-1 #
coedge $-1 $221 $226 $83 $136 forward $130 $-1 #
edge $-1 $227 19.704297073690014 $228 25.188864566365183 $135 $229 forward 7 unknown #
loop $-1 $-1 $142 $84 #
plane-surface $-1 -59.884640034180705 29.633500389270651 3.4492597466045396 -0.82903758062907751 0 0.55919289150049634 0.55919289150049634 0 0.82903758062907751 forward_v I I I I #
loop $-1 $-1 $230 $54 #
coedge $-1 $140 $140 $141 $231 reversed $85 $-1 #
coedge $-1 $141 $141 $140 $231 forward $87 $-1 #
coedge $-1 $142 $142 $88 $143 forward $137 $-1 #
edge $-1 $232 0 $232 6.2831853071796004 $142 $233 forward 7 unknown #
loop $-1 $-1 $149 $89 #
plane-surface $-1 -59.884640034180705 29.633500389270651 3.4492597466045396 -0.82903758062907751 0 0.55919289150049634 0.55919289150049634 0 0.82903758062907751 forward_v I I I I #
loop $-1 $-1 $234 $57 #
coedge $-1 $147 $147 $148 $235 reversed $90 $-1 #
coedge $-1 $148 $148 $147 $235 forward $92 $-1 #
coedge $-1 $149 $149 $93 $150 forward $144 $-1 #
edge $-1 $236 0 $236 6.2831853071796004 $149 $237 forward 7 unknown #
face $-1 $238 $239 $32 $-1 $240 reversed single #
loop $-1 $-1 $241 $94 #
plane-surface $-1 71.699947668323233 -3.7252554882101894 169.32365982038519 0 1 0 0.75470958851134928 0 0.65605901945558964 forward_v I I I I #
coedge $-1 $242 $243 $244 $245 reversed $95 $-1 #
coedge $-1 $156 $97 $246 $247 reversed $61 $-1 #
coedge $-1 $97 $155 $242 $248 reversed $61 $-1 #
coedge $-1 $244 $249 $97 $158 forward $250 $-1 #
edge $-1 $251 -24.034666200019117 $252 -14.278186418677322 $157 $253 forward 7 unknown #
loop $-1 $-1 $164 $98 #
plane-surface $-1 -18.691076408370392 3.2109593354425954 90.747943377834062 0.75470958851134928 0 0.65605901945558964 0.65605901945558964 0 -0.75470958851134928 forward_v I I I I #
loop $-1 $-1 $254 $63 #
coedge $-1 $162 $162 $163 $255 reversed $99 $-1 #
coedge $-1 $163 $163 $162 $255 forward $101 $-1 #
coedge $-1 $164 $164 $102 $165 forward $159 $-1 #
edge $-1 $256 0 $256 6.2831853071796004 $164 $257 forward 7 unknown #
loop $-1 $-1 $171 $103 #
plane-surface $-1 -18.691076408370392 3.2109593354425954 90.747943377834062 0.75470958851134928 0 0.65605901945558964 0.65605901945558964 0 -0.75470958851134928 forward_v I I I I #
loop $-1 $-1 $258 $66 #
coedge $-1 $169 $169 $170 $259 reversed $104 $-1 #
coedge $-1 $170 $170 $169 $259 forward $106 $-1 #
coedge $-1 $171 $171 $107 $172 forward $166 $-1 #
edge $-1 $260 0 $260 6.2831853071796004 $171 $261 forward 7 unknown #
loop $-1 $-1 $178 $108 #
plane-surface $-1 -18.691076408370392 3.2109593354425954 90.747943377834062 0.75470958851134928 0 0.65605901945558964 0.65605901945558964 0 -0.75470958851134928 forward_v I I I I #
loop $-1 $-1 $262 $69 #
coedge $-1 $176 $176 $177 $263 reversed $109 $-1 #
coedge $-1 $177 $177 $176 $263 forward $111 $-1 #
coedge $-1 $178 $178 $112 $179 forward $173 $-1 #
edge $-1 $264 0 $264 6.2831853071796004 $178 $265 forward 7 unknown #
face $-1 $266 $267 $27 $-1 $268 reversed single #
loop $-1 $-1 $269 $113 #
plane-surface $-1 -59.884640034180734 0 0 1 0 0 0 0 -1 forward_v I I I I #
coedge $-1 $270 $191 $271 $272 forward $114 $-1 #
coedge $-1 $273 $116 $270 $274 forward $73 $-1 #
coedge $-1 $116 $273 $275 $276 forward $73 $-1 #
coedge $-1 $194 $193 $116 $187 reversed $195 $-1 #
edge $-1 $277 -32.869936364963351 $278 32.869936364963351 $186 $279 forward 7 unknown #
coedge $-1 $118 $117 $280 $281 forward $46 $-1 #
coedge $-1 $282 $283 $117 $190 reversed $267 $-1 #
edge $-1 $197 -59.884640034180734 $284 59.884640034180734 $189 $285 forward 7 unknown #
coedge $-1 $183 $286 $118 $192 reversed $114 $-1 #
edge $-1 $287 -59.884640034180734 $196 59.884640034180734 $191 $288 forward 7 unknown #
coedge $-1 $186 $119 $286 $289 forward $195 $-1 #
coedge $-1 $119 $186 $282 $290 reversed $195 $-1 #
loop $-1 $-1 $193 $266 #
vertex $-1 $120 $291 #
vertex $-1 $120 $292 #
straight-curve $-1 59.884640034180734 0 11.580465693667712 0 1 0 I I #
face $-1 $293 $294 $28 $-1 $295 forward single #
loop $-1 $-1 $208 $121 #
plane-surface $-1 0 -32.869936364963351 0 0 1 0 0 0 1 forward_v I I I I #
coedge $-1 $296 $297 $298 $299 forward $122 $-1 #
coedge $-1 $298 $124 $126 $210 reversed $77 $-1 #
coedge $-1 $124 $298 $300 $301 reversed $77 $-1 #
coedge $-1 $302 $127 $124 $206 forward $212 $-1 #
edge $-1 $214 0.93452700614889572 $303 7.4088014603955106 $205 $304 forward 7 unknown #
coedge $-1 $126 $125 $296 $305 reversed $49 $-1 #
coedge $-1 $306 $307 $125 $209 forward $200 $-1 #
edge $-1 $308 -59.884640034180734 $213 59.884640034180734 $208 $309 forward 7 unknown #
edge $-1 $310 -59.884640034180734 $214 59.884640034180734 $203 $311 forward 7 unknown #
coedge $-1 $127 $302 $306 $312 forward $212 $-1 #
loop $-1 $-1 $205 $293 #
vertex $-1 $209 $313 #
vertex $-1 $128 $314 #
straight-curve $-1 59.884640034180734 -14.329597321197776 5.1061912394210989 0 1 0 I I #
face $-1 $-1 $315 $29 $-1 $316 reversed single #
loop $-1 $-1 $317 $129 #
plane-surface $-1 0 32.869936364963351 0 0 -1 0 0 0 -1 forward_v I I I I #
coedge $-1 $318 $132 $134 $225 forward $81 $-1 #
coedge $-1 $132 $318 $317 $319 reversed $81 $-1 #
coedge $-1 $320 $135 $132 $222 forward $130 $-1 #
edge $-1 $228 11.580314218942629 $321 18.053186170328026 $221 $322 forward 7 unknown #
coedge $-1 $323 $324 $133 $224 forward $315 $-1 #
edge $-1 $325 -31.762435143877681 $227 -23.631229196814466 $223 $326 forward 7 unknown #
edge $-1 $228 -9.8080064608086577 $325 5.0869049068944123e-014 $134 $327 forward 7 unknown #
coedge $-1 $135 $320 $323 $328 forward $130 $-1 #
vertex $-1 $224 $329 #
vertex $-1 $136 $330 #
straight-curve $-1 -79.588937107870748 26.397064413577954 11.580465693667712 1 0 0 I I #
coedge $-1 $230 $230 $-1 $331 reversed $139 $-1 #
edge $-1 $332 0 $332 6.2831853071796004 $140 $333 forward 7 unknown #
vertex $-1 $143 $334 #
ellipse-curve $-1 -57.142356287843143 28.246456399688071 7.5148627201361151 -0.82903758062907751 0 0.55919289150049634 0.27959644575024817 0 0.41451879031453875 1 I I #
coedge $-1 $234 $234 $-1 $335 reversed $146 $-1 #
edge $-1 $336 0 $336 6.2831853071796004 $147 $337 forward 7 unknown #
vertex $-1 $150 $338 #
ellipse-curve $-1 -57.142356287843143 31.020544378853238 7.5148627201361151 -0.82903758062907751 0 0.55919289150049634 0.27959644575024817 0 0.41451879031453875 1 I I #
face $-1 $-1 $250 $32 $-1 $339 forward single #
loop $-1 $-1 $340 $151 #
plane-surface $-1 59.884640034180734 0 0 -1 0 0 0 0 1 forward_v I I I I #
coedge $-1 $341 $342 $343 $344 reversed $152 $-1 #
coedge $-1 $345 $154 $156 $248 forward $95 $-1 #
coedge $-1 $154 $345 $341 $346 forward $95 $-1 #
coedge $-1 $343 $157 $154 $245 forward $250 $-1 #
edge $-1 $252 -8.5416944913740824 $347 5.3307351559314871 $244 $348 forward 7 unknown #
coedge $-1 $349 $350 $155 $247 forward $239 $-1 #
edge $-1 $351 -84.304910609052172 $251 -73.081364216524889 $246 $352 forward 7 unknown #
edge $-1 $252 104.89793543013381 $351 119.76928006836151 $156 $353 forward 7 unknown #
coedge $-1 $157 $343 $349 $354 forward $250 $-1 #
loop $-1 $-1 $343 $238 #
vertex $-1 $247 $355 #
vertex $-1 $158 $356 #
straight-curve $-1 35.849973834161617 10.14717415909538 11.580465693667719 -1 0 0 I I #
coedge $-1 $254 $254 $-1 $357 reversed $161 $-1 #
edge $-1 $358 0 $358 6.2831853071796004 $162 $359 forward 7 unknown #
vertex $-1 $165 $360 #
ellipse-curve $-1 55.006400143509829 -0.95076955874907654 5.9686924974040645 0.75470958851134928 0 0.65605901945558964 0.65605901945558964 0 -0.75470958851134928 1 I I #
coedge $-1 $258 $258 $-1 $361 reversed $168 $-1 #
edge $-1 $362 0 $362 6.2831853071796004 $169 $363 forward 7 unknown #
vertex $-1 $172 $364 #
ellipse-curve $-1 55.006400143509829 3.2109593354425954 5.9686924974040645 0.75470958851134928 0 0.65605901945558964 0.65605901945558964 0 -0.75470958851134928 1 I I #
coedge $-1 $262 $262 $-1 $365 reversed $175 $-1 #
edge $-1 $366 0 $366 6.2831853071796004 $176 $367 forward 7 unknown #
vertex $-1 $179 $368 #
ellipse-curve $-1 55.006400143509829 7.3726882296342637 5.9686924974040645 0.75470958851134928 0 0.65605901945558964 0.65605901945558964 0 -0.75470958851134928 1 I I #
face $-1 $-1 $195 $27 $-1 $369 reversed single #
loop $-1 $-1 $282 $180 #
plane-surface $-1 0 32.869936364963351 0 0 -1 0 0 0 -1 forward_v I I I I #
coedge $-1 $370 $280 $283 $371 forward $181 $-1 #
coedge $-1 $286 $183 $184 $274 reversed $114 $-1 #
coedge $-1 $280 $370 $183 $272 reversed $181 $-1 #
edge $-1 $287 -11.580465693667712 $372 11.580465693667712 $271 $373 forward 7 unknown #
coedge $-1 $185 $184 $370 $374 forward $73 $-1 #
edge $-1 $278 -59.884640034180734 $372 59.884640034180734 $270 $375 forward 7 unknown #
coedge $-1 $283 $282 $185 $276 reversed $267 $-1 #
edge $-1 $376 -59.884640034180734 $277 59.884640034180734 $275 $377 forward 7 unknown #
vertex $-1 $187 $378 #
vertex $-1 $289 $379 #
straight-curve $-1 59.884640034180734 0 -11.580465693667712 0 -1 0 I I #
coedge $-1 $269 $271 $188 $281 reversed $181 $-1 #
edge $-1 $284 -32.869936364963351 $287 32.869936364963351 $280 $380 forward 7 unknown #
coedge $-1 $275 $189 $194 $290 forward $267 $-1 #
coedge $-1 $189 $275 $269 $371 reversed $267 $-1 #
vertex $-1 $190 $381 #
straight-curve $-1 0 32.869936364963351 11.580465693667712 -1 0 0 I I #
coedge $-1 $191 $270 $193 $289 reversed $114 $-1 #
vertex $-1 $281 $382 #
straight-curve $-1 0 -32.869936364963351 11.580465693667712 1 0 0 I I #
edge $-1 $196 -11.580465693667712 $278 11.580465693667712 $193 $383 forward 7 unknown #
edge $-1 $197 -11.580465693667712 $277 11.580465693667712 $194 $384 forward 7 unknown #
point $-1 59.884640034180734 -32.869936364963351 11.580465693667712 #
point $-1 59.884640034180734 32.869936364963351 11.580465693667712 #
face $-1 $-1 $212 $28 $-1 $385 reversed single #
loop $-1 $-1 $300 $199 #
plane-surface $-1 0 0 11.580465693667712 0 0 1 1 0 0 forward_v I I I I #
coedge $-1 $386 $202 $207 $305 forward $122 $-1 #
coedge $-1 $202 $386 $387 $388 reversed $122 $-1 #
coedge $-1 $204 $203 $202 $299 reversed $77 $-1 #
edge $-1 $389 -7.4088014603955106 $310 -0.93452700614889572 $202 $390 forward 7 unknown #
coedge $-1 $387 $391 $204 $301 forward $294 $-1 #
edge $-1 $303 -59.884640034180734 $389 59.884640034180734 $300 $392 forward 7 unknown #
coedge $-1 $211 $205 $391 $393 reversed $212 $-1 #
vertex $-1 $206 $394 #
straight-curve $-1 59.884640034180734 -24.448452919827751 4.1716642332722031 0 0 1 I I #
edge $-1 $310 10.118855598629976 $308 18.540339043765577 $296 $395 forward 7 unknown #
coedge $-1 $396 $208 $211 $312 reversed $200 $-1 #
coedge $-1 $208 $396 $386 $397 forward $200 $-1 #
vertex $-1 $209 $398 #
straight-curve $-1 0 -32.869936364963351 5.1061912394210989 1 0 0 I I #
vertex $-1 $305 $399 #
straight-curve $-1 0 -24.448452919827751 5.1061912394210989 1 0 0 I I #
edge $-1 $400 -11.580465693667712 $213 -5.1061912394210989 $211 $401 forward 7 unknown #
point $-1 59.884640034180734 -32.869936364963351 5.1061912394210989 #
point $-1 59.884640034180734 -24.448452919827751 5.1061912394210989 #
loop $-1 $-1 $223 $216 #
plane-surface $-1 -59.884640034180734 0 0 1 0 0 0 0 -1 forward_v I I I I #
coedge $-1 $402 $403 $220 $319 forward $217 $-1 #
coedge $-1 $220 $219 $324 $404 reversed $81 $-1 #
edge $-1 $321 5.505743070138144 $405 15.313749530946854 $317 $406 forward 7 unknown #
coedge $-1 $226 $221 $403 $407 forward $130 $-1 #
vertex $-1 $407 $408 #
straight-curve $-1 -54.400072541505558 14.816750194635325 11.580465693667712 0 1 0 I I #
coedge $-1 $409 $223 $226 $328 reversed $315 $-1 #
coedge $-1 $223 $409 $318 $404 forward $315 $-1 #
vertex $-1 $224 $410 #
straight-curve $-1 -59.884640034180734 26.397064413577954 35.211694890482178 0 0 1 I I #
straight-curve $-1 -59.884640034180705 26.397064413577954 3.4492597466045396 -0.55919289150049634 0 -0.82903758062907751 I I #
edge $-1 $411 -32.869936364963351 $227 -26.397064413577954 $323 $412 forward 7 unknown #
point $-1 -59.884640034180734 26.397064413577954 11.580465693667712 #
point $-1 -54.400072541505565 26.397064413577954 11.580465693667712 #
edge $-1 $413 1 $413 0 $230 $-1 forward 7 unknown #
vertex $-1 $231 $414 #
ellipse-curve $-1 -56.313318707214087 28.246456399688071 6.9556698286356342 -0.82903758062907751 0 0.55919289150049634 0.27959644575024817 0 0.41451879031453875 1 I I #
point $-1 -56.862759842092913 28.246456399688071 7.9293815104506695 #
edge $-1 $415 1 $415 0 $234 $-1 forward 7 unknown #
vertex $-1 $235 $416 #
ellipse-curve $-1 -56.313318707214087 31.020544378853238 6.9556698286356342 -0.82903758062907751 0 0.55919289150049634 0.27959644575024817 0 0.41451879031453875 1 I I #
point $-1 -56.862759842092913 31.020544378853238 7.9293815104506695 #
plane-surface $-1 0 0 11.580465693667712 0 0 1 1 0 0 forward_v I I I I #
coedge $-1 $350 $349 $342 $417 forward $239 $-1 #
coedge $-1 $342 $241 $243 $346 reversed $152 $-1 #
coedge $-1 $241 $341 $340 $417 reversed $152 $-1 #
coedge $-1 $249 $244 $241 $344 forward $250 $-1 #
edge $-1 $347 14.278186418677322 $418 24.034666200019117 $343 $419 forward 7 unknown #
coedge $-1 $243 $242 $350 $420 reversed $95 $-1 #
edge $-1 $421 -119.76928006836151 $347 -104.89793543013381 $341 $422 forward 7 unknown #
vertex $-1 $245 $423 #
straight-curve $-1 50.128160252838931 1.6054796677212977 11.580465693667712 0 -1 0 I I #
coedge $-1 $340 $246 $249 $354 reversed $239 $-1 #
coedge $-1 $246 $340 $345 $420 forward $239 $-1 #
vertex $-1 $247 $424 #
straight-curve $-1 59.884640034180734 10.14717415909538 84.661829910192594 0 0 1 I I #
straight-curve $-1 -18.691076408370392 10.14717415909538 90.747943377834062 0.65605901945558964 0 -0.75470958851134928 I I #
edge $-1 $418 -3.7252554882101894 $251 10.14717415909538 $349 $425 forward 7 unknown #
point $-1 59.884640034180734 10.14717415909538 11.580465693667712 #
point $-1 50.128160252838939 10.14717415909538 11.580465693667705 #
edge $-1 $426 1 $426 0 $254 $-1 forward 7 unknown #
vertex $-1 $255 $427 #
ellipse-curve $-1 53.587591261027477 -0.95076955874907654 4.735340783836623 0.75470958851134928 0 0.65605901945558964 0.65605901945558964 0 -0.75470958851134928 1 I I #
point $-1 55.662459162965419 -0.95076955874907654 5.2139829088927137 #
edge $-1 $428 1 $428 0 $258 $-1 forward 7 unknown #
vertex $-1 $259 $429 #
ellipse-curve $-1 53.587591261027477 3.2109593354425954 4.735340783836623 0.75470958851134928 0 0.65605901945558964 0.65605901945558964 0 -0.75470958851134928 1 I I #
point $-1 55.662459162965419 3.2109593354425954 5.2139829088927137 #
edge $-1 $430 1 $430 0 $262 $-1 forward 7 unknown #
vertex $-1 $263 $431 #
ellipse-curve $-1 53.587591261027477 7.3726882296342637 4.735340783836623 0.75470958851134928 0 0.65605901945558964 0.65605901945558964 0 -0.75470958851134928 1 I I #
point $-1 55.662459162965419 7.3726882296342637 5.2139829088927137 #
plane-surface $-1 59.884640034180734 0 0 -1 0 0 0 0 1 forward_v I I I I #
coedge $-1 $271 $269 $273 $374 reversed $181 $-1 #
edge $-1 $284 -11.580465693667712 $376 11.580465693667712 $283 $432 forward 7 unknown #
vertex $-1 $374 $433 #
straight-curve $-1 -59.884640034180734 -32.869936364963351 0 0 0 -1 I I #
edge $-1 $372 -32.869936364963351 $376 32.869936364963351 $370 $434 forward 7 unknown #
straight-curve $-1 0 -32.869936364963351 -11.580465693667712 -1 0 0 I I #
vertex $-1 $276 $435 #
straight-curve $-1 0 32.869936364963351 -11.580465693667712 1 0 0 I I #
point $-1 59.884640034180734 32.869936364963351 -11.580465693667712 #
point $-1 59.884640034180734 -32.869936364963351 -11.580465693667712 #
straight-curve $-1 -59.884640034180734 0 11.580465693667712 0 -1 0 I I #
point $-1 -59.884640034180734 32.869936364963351 11.580465693667712 #
point $-1 -59.884640034180734 -32.869936364963351 11.580465693667712 #
straight-curve $-1 59.884640034180734 -32.869936364963351 0 0 0 -1 I I #
straight-curve $-1 59.884640034180734 32.869936364963351 0 0 0 -1 I I #
plane-surface $-1 59.884640034180734 0 0 -1 0 0 0 0 1 forward_v I I I I #
coedge $-1 $297 $296 $307 $397 reversed $122 $-1 #
coedge $-1 $436 $300 $297 $388 forward $294 $-1 #
edge $-1 $389 24.448452919827751 $437 32.869936364963351 $297 $438 forward 7 unknown #
vertex $-1 $388 $439 #
straight-curve $-1 -59.884640034180734 -24.448452919827751 4.1716642332722031 0 0 -1 I I #
coedge $-1 $300 $436 $302 $393 forward $294 $-1 #
straight-curve $-1 0 -24.448452919827751 11.580465693667712 -1 0 0 I I #
edge $-1 $400 -32.869936364963351 $303 -24.448452919827751 $302 $440 forward 7 unknown #
point $-1 59.884640034180734 -24.448452919827751 11.580465693667714 #
straight-curve $-1 -59.884640034180734 -14.329597321197776 5.1061912394210989 0 -1 0 I I #
coedge $-1 $307 $306 $436 $441 reversed $200 $-1 #
edge $-1 $437 -11.580465693667712 $308 -5.1061912394210989 $386 $442 forward 7 unknown #
point $-1 -59.884640034180734 -32.869936364963351 5.1061912394210989 #
point $-1 -59.884640034180734 -24.448452919827751 5.1061912394210989 #
vertex $-1 $393 $443 #
straight-curve $-1 59.884640034180734 -32.869936364963351 0 0 0 -1 I I #
coedge $-1 $403 $317 $409 $444 reversed $217 $-1 #
coedge $-1 $317 $402 $320 $407 reversed $217 $-1 #
edge $-1 $405 -18.053186170328026 $325 -11.580314218942629 $324 $445 forward 7 unknown #
vertex $-1 $319 $446 #
straight-curve $-1 -51.321300154256193 32.869936364963351 16.144933608100345 -0.55919289150049634 0 -0.82903758062907751 I I #
edge $-1 $321 54.400072541505565 $411 59.884640034180734 $403 $447 forward 7 unknown #
point $-1 -54.400072541505565 32.869936364963351 11.580465693667712 #
coedge $-1 $324 $323 $402 $444 forward $315 $-1 #
point $-1 -59.884640034180734 26.397064413577954 3.4492597466044974 #
vertex $-1 $407 $448 #
straight-curve $-1 -59.884640034180734 0 11.580465693667712 0 -1 0 I I #
vertex $-1 $331 $449 #
point $-1 -56.033722261463836 28.246456399688071 7.3701886189501726 #
vertex $-1 $335 $450 #
point $-1 -56.033722261463836 31.020544378853238 7.3701886189501726 #
edge $-1 $418 73.081364216524889 $421 84.304910609052172 $340 $451 forward 7 unknown #
vertex $-1 $354 $452 #
straight-curve $-1 35.849973834161617 -3.7252554882101894 11.580465693667719 1 0 0 I I #
edge $-1 $421 -5.3307351559314871 $351 8.5416944913740824 $350 $453 forward 7 unknown #
vertex $-1 $420 $454 #
straight-curve $-1 -18.691076408370392 -3.7252554882101894 90.747943377834062 -0.65605901945558964 0 0.75470958851134928 I I #
point $-1 50.128160252838939 -3.7252554882101894 11.580465693667705 #
point $-1 59.884640034180734 10.14717415909538 0.35691930114042236 #
straight-curve $-1 59.884640034180734 0 11.580465693667712 0 1 0 I I #
vertex $-1 $357 $455 #
point $-1 54.243650280483067 -0.95076955874907654 3.9806311953252735 #
vertex $-1 $361 $456 #
point $-1 54.243650280483067 3.2109593354425954 3.9806311953252735 #
vertex $-1 $365 $457 #
point $-1 54.243650280483067 7.3726882296342637 3.9806311953252735 #
straight-curve $-1 -59.884640034180734 32.869936364963351 0 0 0 -1 I I #
point $-1 -59.884640034180734 -32.869936364963351 -11.580465693667712 #
straight-curve $-1 -59.884640034180734 0 -11.580465693667712 0 1 0 I I #
point $-1 -59.884640034180734 32.869936364963351 -11.580465693667712 #
coedge $-1 $391 $387 $396 $441 forward $294 $-1 #
vertex $-1 $388 $458 #
straight-curve $-1 -59.884640034180734 0 11.580465693667712 0 -1 0 I I #
point $-1 -59.884640034180734 -24.448452919827751 11.580465693667714 #
straight-curve $-1 59.884640034180734 0 11.580465693667712 0 1 0 I I #
edge $-1 $437 -59.884640034180734 $400 59.884640034180734 $396 $459 forward 7 unknown #
straight-curve $-1 -59.884640034180734 -32.869936364963351 0 0 0 -1 I I #
point $-1 59.884640034180734 -32.869936364963351 11.580465693667712 #
edge $-1 $411 -11.580465693667712 $405 -3.4492597466044974 $402 $460 forward 7 unknown #
straight-curve $-1 -59.884640034180734 14.816750194635325 3.449259746604497 0 -1 0 I I #
point $-1 -59.884640034180734 32.869936364963351 3.4492597466044974 #
straight-curve $-1 0 32.869936364963351 11.580465693667712 -1 0 0 I I #
point $-1 -59.884640034180734 32.869936364963351 11.580465693667712 #
point $-1 -55.898799916899542 28.246456399688071 6.6760733828853853 #
point $-1 -55.898799916899542 31.020544378853238 6.6760733828853853 #
straight-curve $-1 59.884640034180734 -3.7252554882101894 84.661829910192594 0 0 -1 I I #
point $-1 59.884640034180734 -3.7252554882101894 11.580465693667712 #
straight-curve $-1 59.884640034180734 1.6054796677212977 0.35691930114042947 0 1 0 I I #
point $-1 59.884640034180734 -3.7252554882101894 0.35691930114042236 #
point $-1 52.83288167251613 -0.95076955874907654 4.0792817643810331 #
point $-1 52.83288167251613 3.2109593354425954 4.0792817643810331 #
point $-1 52.83288167251613 7.3726882296342637 4.0792817643810331 #
point $-1 -59.884640034180734 -32.869936364963351 11.580465693667712 #
straight-curve $-1 0 -32.869936364963351 11.580465693667712 1 0 0 I I #
straight-curve $-1 -59.884640034180734 32.869936364963351 0 0 0 -1 I I #
End-of-ACIS-data 