500 0 4 0           
7 Unknown 11 ACIS 5.0 NT 24 Thu Mar 25 15:47:47 1999 
-1 9.9999999999999995e-007 1e-010 
body $-1 $4 $-1 $5 #
body $-1 $6 $-1 $7 #
body $-1 $8 $-1 $9 #
body $-1 $10 $-1 $11 #
lump $-1 $-1 $12 $0 #
transform $-1 1 0 0 0 1 0 0 0 1 59.838251899777219 34.973976295009713 15.439270214158009 1 rotate no_reflect no_shear #
lump $-1 $-1 $13 $1 #
transform $-1 1 0 0 0 1 0 0 0 1 59.838251899777219 34.973976295009713 15.439270214158009 1 rotate no_reflect no_shear #
lump $-1 $-1 $14 $2 #
transform $-1 1 0 0 0 1 0 0 0 1 59.838251899777219 34.973976295009713 15.439270214158009 1 rotate no_reflect no_shear #
lump $-1 $-1 $15 $3 #
transform $-1 1 0 0 0 1 0 0 0 1 59.838251899777219 34.973976295009713 15.439270214158009 1 rotate no_reflect no_shear #
shell $-1 $-1 $-1 $16 $-1 $4 #
shell $-1 $-1 $-1 $17 $-1 $6 #
shell $-1 $-1 $-1 $18 $-1 $8 #
shell $-1 $-1 $-1 $19 $-1 $10 #
face $-1 $20 $21 $12 $-1 $22 forward single #
face $-1 $23 $24 $13 $-1 $25 reversed single #
face $-1 $26 $27 $14 $-1 $28 reversed single #
face $-1 $29 $30 $15 $-1 $31 forward single #
face $-1 $32 $33 $12 $-1 $34 reversed single #
loop $-1 $-1 $35 $16 #
plane-surface $-1 0 0 15.439270214158009 0 0 1 1 0 0 forward_v I I I I #
face $-1 $36 $37 $13 $-1 $38 reversed single #
loop $-1 $-1 $39 $17 #
plane-surface $-1 -53.24856197842081 -28.89881877130523 0 0 -1 0 0 0 -1 forward_v I I I I #
face $-1 $40 $41 $14 $-1 $42 reversed single #
loop $-1 $-1 $43 $18 #
plane-surface $-1 46.571694527322194 -34.973976295009706 6.3595280198850759 0 -0.6560590369687036 0.75470957328743171 1 0 0 forward_v I I I I #
face $-1 $44 $45 $15 $-1 $46 forward single #
loop $-1 $47 $48 $19 #
cone-surface $-1 46.571694527322194 -27.977147495741555 8.8582951720285532 0 0.6560590369687036 -0.75470957328743171 2 0 0 1 I I 0 1 2 forward I I I I #
face $-1 $49 $50 $12 $-1 $51 reversed single #
loop $-1 $-1 $52 $20 #
plane-surface $-1 0 0 -15.439270214158009 0 0 1 1 0 0 forward_v I I I I #
coedge $-1 $53 $54 $55 $56 forward $21 $-1 #
face $-1 $57 $58 $13 $-1 $59 forward single #
loop $-1 $-1 $60 $23 #
plane-surface $-1 -46.6588720570644 -31.936397533157471 0 -1 0 0 0 0 1 forward_v I I I I #
coedge $-1 $61 $62 $63 $64 forward $24 $-1 #
face $-1 $65 $66 $14 $-1 $67 reversed single #
loop $-1 $-1 $68 $26 #
plane-surface $-1 33.305137154867168 -113.48882812552679 96.680531134978509 1 0 0 0 0.6560590369687036 -0.75470957328743171 forward_v I I I I #
coedge $-1 $69 $70 $71 $72 reversed $27 $-1 #
face $-1 $-1 $73 $15 $-1 $74 forward single #
loop $-1 $75 $76 $29 #
cone-surface $-1 46.571694527322194 -25.546783831004287 6.0624816537481241 0 0.6560590369687036 -0.75470957328743171 1 0 0 1 I I -0.70710678118654746 0.70710678118654746 1 forward I I I I #
loop $-1 $-1 $77 $19 #
coedge $-1 $48 $48 $78 $79 reversed $30 $-1 #
face $-1 $80 $81 $12 $-1 $82 reversed single #
loop $-1 $-1 $83 $32 #
plane-surface $-1 0 -34.973976295009713 0 0 1 0 0 0 1 forward_v I I I I #
coedge $-1 $84 $85 $86 $87 forward $33 $-1 #
coedge $-1 $88 $35 $89 $90 forward $21 $-1 #
coedge $-1 $35 $88 $91 $92 forward $21 $-1 #
coedge $-1 $93 $94 $35 $56 reversed $95 $-1 #
edge $-1 $96 -34.973976295009713 $97 34.973976295009713 $55 $98 forward 7 unknown #
face $-1 $99 $100 $13 $-1 $101 reversed single #
loop $-1 $-1 $102 $36 #
plane-surface $-1 0 0 15.439270214158009 0 0 1 1 0 0 forward_v I I I I #
coedge $-1 $103 $104 $105 $106 reversed $37 $-1 #
coedge $-1 $107 $39 $108 $109 reversed $24 $-1 #
coedge $-1 $39 $107 $110 $111 reversed $24 $-1 #
coedge $-1 $104 $103 $39 $64 reversed $37 $-1 #
edge $-1 $112 -15.439270214158009 $113 15.439270214158009 $63 $114 forward 7 unknown #
face $-1 $115 $116 $14 $-1 $117 forward single #
loop $-1 $-1 $118 $40 #
plane-surface $-1 59.838251899777219 0 0 -1 0 0 0 0 1 forward_v I I I I #
coedge $-1 $119 $120 $121 $122 reversed $41 $-1 #
coedge $-1 $123 $43 $118 $124 reversed $27 $-1 #
coedge $-1 $43 $123 $119 $125 forward $27 $-1 #
coedge $-1 $121 $126 $43 $72 forward $116 $-1 #
edge $-1 $127 -36.552404636116123 $128 -10.019289891206071 $71 $129 forward 7 unknown #
loop $-1 $-1 $78 $44 #
plane-surface $-1 46.571694527322194 -34.973976295009706 6.3595280198850759 0 -0.6560590369687036 0.75470957328743171 1 0 0 forward_v I I I I #
loop $-1 $-1 $130 $29 #
coedge $-1 $76 $76 $77 $131 reversed $45 $-1 #
coedge $-1 $77 $77 $76 $131 forward $47 $-1 #
coedge $-1 $78 $78 $48 $79 forward $73 $-1 #
edge $-1 $132 -7.0095421960110184e-016 $132 6.2831853071795996 $78 $133 forward 7 unknown #
face $-1 $134 $135 $12 $-1 $136 reversed single #
loop $-1 $-1 $137 $49 #
plane-surface $-1 -59.838251899777219 0 0 1 0 0 0 0 -1 forward_v I I I I #
coedge $-1 $138 $91 $139 $140 forward $50 $-1 #
coedge $-1 $141 $52 $138 $142 forward $33 $-1 #
coedge $-1 $52 $141 $143 $144 forward $33 $-1 #
coedge $-1 $94 $93 $52 $87 reversed $95 $-1 #
edge $-1 $145 -34.973976295009713 $146 34.973976295009713 $86 $147 forward 7 unknown #
coedge $-1 $54 $53 $148 $149 forward $21 $-1 #
coedge $-1 $150 $151 $53 $90 reversed $135 $-1 #
edge $-1 $97 -59.838251899777219 $152 59.838251899777219 $89 $153 forward 7 unknown #
coedge $-1 $83 $154 $54 $92 reversed $50 $-1 #
edge $-1 $155 -59.838251899777219 $96 59.838251899777219 $91 $156 forward 7 unknown #
coedge $-1 $86 $55 $154 $157 forward $95 $-1 #
coedge $-1 $55 $86 $150 $158 reversed $95 $-1 #
loop $-1 $-1 $93 $134 #
vertex $-1 $56 $159 #
vertex $-1 $56 $160 #
straight-curve $-1 59.838251899777219 0 15.439270214158009 0 1 0 I I #
face $-1 $161 $162 $13 $-1 $163 reversed single #
loop $-1 $-1 $164 $57 #
plane-surface $-1 -59.838251899777219 0 0 1 0 0 0 0 -1 forward_v I I I I #
coedge $-1 $110 $165 $104 $166 forward $58 $-1 #
coedge $-1 $63 $60 $167 $168 reversed $37 $-1 #
coedge $-1 $60 $63 $102 $166 reversed $37 $-1 #
coedge $-1 $169 $170 $60 $106 forward $171 $-1 #
edge $-1 $172 -15.439270214158009 $173 15.439270214158009 $105 $174 forward 7 unknown #
coedge $-1 $62 $61 $164 $175 reversed $24 $-1 #
coedge $-1 $167 $176 $61 $109 forward $162 $-1 #
edge $-1 $177 -33.213970910566815 $113 -20.034591067853995 $108 $178 forward 7 unknown #
coedge $-1 $179 $102 $62 $111 forward $58 $-1 #
edge $-1 $112 20.034591067853995 $180 33.213970910566815 $110 $181 forward 7 unknown #
vertex $-1 $111 $182 #
vertex $-1 $109 $183 #
straight-curve $-1 -46.6588720570644 -28.89881877130523 0 0 0 -1 I I #
face $-1 $-1 $184 $14 $-1 $185 reversed single #
loop $-1 $-1 $71 $65 #
plane-surface $-1 0 0 15.439270214158009 0 0 1 1 0 0 forward_v I I I I #
coedge $-1 $186 $187 $69 $124 forward $66 $-1 #
coedge $-1 $120 $68 $70 $125 reversed $41 $-1 #
coedge $-1 $68 $119 $188 $189 reversed $41 $-1 #
coedge $-1 $190 $71 $68 $122 forward $116 $-1 #
edge $-1 $128 -32.215486110752899 $191 -21.770437767753684 $121 $192 forward 7 unknown #
coedge $-1 $70 $69 $193 $194 reversed $27 $-1 #
edge $-1 $195 -11.111484448735126 $127 2.7283404490752141 $118 $196 forward 7 unknown #
edge $-1 $197 -9.44141639987384e-015 $128 13.839824897810331 $119 $198 forward 7 unknown #
coedge $-1 $71 $190 $186 $199 forward $116 $-1 #
vertex $-1 $124 $200 #
vertex $-1 $72 $201 #
straight-curve $-1 23.285847263661097 -24.528927952010491 15.439270214158009 -1 0 0 I I #
coedge $-1 $130 $130 $-1 $202 reversed $75 $-1 #
edge $-1 $203 0 $203 6.2831853071796004 $76 $204 forward 7 unknown #
vertex $-1 $79 $205 #
ellipse-curve $-1 46.571694527322194 -29.751452123510106 10.899399117021538 0 -0.6560590369687036 0.75470957328743171 2 0 0 1 I I #
face $-1 $-1 $95 $12 $-1 $206 reversed single #
loop $-1 $-1 $150 $80 #
plane-surface $-1 0 34.973976295009713 0 0 -1 0 0 0 -1 forward_v I I I I #
coedge $-1 $207 $148 $151 $208 forward $81 $-1 #
coedge $-1 $154 $83 $84 $142 reversed $50 $-1 #
coedge $-1 $148 $207 $83 $140 reversed $81 $-1 #
edge $-1 $155 -15.439270214158009 $209 15.439270214158009 $139 $210 forward 7 unknown #
coedge $-1 $85 $84 $207 $211 forward $33 $-1 #
edge $-1 $146 -59.838251899777219 $209 59.838251899777219 $138 $212 forward 7 unknown #
coedge $-1 $151 $150 $85 $144 reversed $135 $-1 #
edge $-1 $213 -59.838251899777219 $145 59.838251899777219 $143 $214 forward 7 unknown #
vertex $-1 $87 $215 #
vertex $-1 $157 $216 #
straight-curve $-1 59.838251899777219 0 -15.439270214158009 0 -1 0 I I #
coedge $-1 $137 $139 $88 $149 reversed $81 $-1 #
edge $-1 $152 -34.973976295009713 $155 34.973976295009713 $148 $217 forward 7 unknown #
coedge $-1 $143 $89 $94 $158 forward $135 $-1 #
coedge $-1 $89 $143 $137 $208 reversed $135 $-1 #
vertex $-1 $90 $218 #
straight-curve $-1 0 34.973976295009713 15.439270214158009 -1 0 0 I I #
coedge $-1 $91 $138 $93 $157 reversed $50 $-1 #
vertex $-1 $149 $219 #
straight-curve $-1 0 -34.973976295009713 15.439270214158009 1 0 0 I I #
edge $-1 $96 -15.439270214158009 $146 15.439270214158009 $93 $220 forward 7 unknown #
edge $-1 $97 -15.439270214158009 $145 15.439270214158009 $94 $221 forward 7 unknown #
point $-1 59.838251899777219 -34.973976295009713 15.439270214158009 #
point $-1 59.838251899777219 34.973976295009713 15.439270214158009 #
face $-1 $-1 $171 $13 $-1 $222 reversed single #
loop $-1 $-1 $167 $99 #
plane-surface $-1 0 0 -15.439270214158009 0 0 1 1 0 0 forward_v I I I I #
coedge $-1 $223 $224 $107 $175 forward $100 $-1 #
coedge $-1 $102 $179 $169 $225 forward $58 $-1 #
edge $-1 $173 -19.005777528430976 $112 -12.930620004726494 $102 $226 forward 7 unknown #
coedge $-1 $227 $108 $103 $168 forward $162 $-1 #
edge $-1 $113 12.930620004726494 $172 19.005777528430976 $167 $228 forward 7 unknown #
coedge $-1 $229 $105 $165 $225 reversed $171 $-1 #
coedge $-1 $105 $229 $227 $230 reversed $171 $-1 #
loop $-1 $-1 $105 $161 #
vertex $-1 $230 $231 #
vertex $-1 $106 $232 #
straight-curve $-1 -46.6588720570644 -34.973976295009713 0 0 0 1 I I #
edge $-1 $180 -15.439270214158009 $177 15.439270214158009 $164 $233 forward 7 unknown #
coedge $-1 $108 $227 $223 $234 forward $162 $-1 #
vertex $-1 $109 $235 #
straight-curve $-1 -26.624280989210405 -28.89881877130523 -15.439270214158009 1 0 0 I I #
coedge $-1 $165 $110 $224 $236 forward $58 $-1 #
vertex $-1 $236 $237 #
straight-curve $-1 -26.624280989210405 -28.89881877130523 15.439270214158009 -1 0 0 I I #
point $-1 -46.6588720570644 -28.89881877130523 15.439270214158009 #
point $-1 -46.6588720570644 -28.89881877130523 -15.439270214158009 #
loop $-1 $-1 $193 $115 #
plane-surface $-1 0 -34.973976295009713 0 0 1 0 0 0 1 forward_v I I I I #
coedge $-1 $187 $118 $126 $199 reversed $66 $-1 #
coedge $-1 $118 $186 $238 $239 forward $66 $-1 #
coedge $-1 $193 $240 $120 $189 forward $184 $-1 #
edge $-1 $191 32.900995353331247 $197 41.980737547604186 $188 $241 forward 7 unknown #
coedge $-1 $126 $121 $240 $242 forward $116 $-1 #
vertex $-1 $242 $243 #
straight-curve $-1 33.305137154867168 -56.744414062763397 15.439270214158007 0 -1 0 I I #
coedge $-1 $238 $188 $123 $194 forward $184 $-1 #
edge $-1 $197 10.019289891206071 $195 36.552404636116123 $193 $244 forward 7 unknown #
vertex $-1 $124 $245 #
straight-curve $-1 59.838251899777219 -26.588032608114894 13.649317806614965 0 0.75470957328743171 0.6560590369687036 I I #
vertex $-1 $194 $246 #
straight-curve $-1 33.305137154867168 -34.973976295009706 6.3595280198850759 0 0.75470957328743171 0.6560590369687036 I I #
edge $-1 $247 -34.973976295009713 $127 -24.528927952010498 $186 $248 forward 7 unknown #
point $-1 59.838251899777219 -24.528927952010498 15.439270214158009 #
point $-1 33.305137154867168 -24.528927952010498 15.439270214158009 #
edge $-1 $249 1 $249 0 $130 $-1 forward 7 unknown #
vertex $-1 $131 $250 #
ellipse-curve $-1 46.571694527322194 -26.20284286797299 6.8171912270355559 0 -0.6560590369687036 0.75470957328743171 2 0 0 1 I I #
point $-1 48.571694527322194 -29.75145212351012 10.899399117021552 #
plane-surface $-1 59.838251899777219 0 0 -1 0 0 0 0 1 forward_v I I I I #
coedge $-1 $139 $137 $141 $211 reversed $81 $-1 #
edge $-1 $152 -15.439270214158009 $213 15.439270214158009 $151 $251 forward 7 unknown #
vertex $-1 $211 $252 #
straight-curve $-1 -59.838251899777219 -34.973976295009713 0 0 0 -1 I I #
edge $-1 $209 -34.973976295009713 $213 34.973976295009713 $207 $253 forward 7 unknown #
straight-curve $-1 0 -34.973976295009713 -15.439270214158009 -1 0 0 I I #
vertex $-1 $144 $254 #
straight-curve $-1 0 34.973976295009713 -15.439270214158009 1 0 0 I I #
point $-1 59.838251899777219 34.973976295009713 -15.439270214158009 #
point $-1 59.838251899777219 -34.973976295009713 -15.439270214158009 #
straight-curve $-1 -59.838251899777219 0 15.439270214158009 0 -1 0 I I #
point $-1 -59.838251899777219 34.973976295009713 15.439270214158009 #
point $-1 -59.838251899777219 -34.973976295009713 15.439270214158009 #
straight-curve $-1 59.838251899777219 -34.973976295009713 0 0 0 -1 I I #
straight-curve $-1 59.838251899777219 34.973976295009713 0 0 0 -1 I I #
plane-surface $-1 0 -34.973976295009713 0 0 1 0 0 0 1 forward_v I I I I #
coedge $-1 $255 $164 $176 $234 reversed $100 $-1 #
coedge $-1 $164 $255 $179 $236 reversed $100 $-1 #
edge $-1 $256 -59.838251899777219 $173 -46.6588720570644 $169 $257 forward 7 unknown #
straight-curve $-1 -46.6588720570644 -15.968198766578736 15.439270214158009 0 1 0 I I #
coedge $-1 $176 $167 $170 $230 forward $162 $-1 #
straight-curve $-1 -46.6588720570644 -15.968198766578736 -15.439270214158009 0 -1 0 I I #
coedge $-1 $170 $169 $255 $258 forward $171 $-1 #
edge $-1 $172 46.6588720570644 $259 59.838251899777219 $170 $260 forward 7 unknown #
point $-1 -46.6588720570644 -34.973976295009713 -15.439270214158009 #
point $-1 -46.6588720570644 -34.973976295009713 15.439270214158009 #
straight-curve $-1 -59.838251899777219 -28.89881877130523 0 0 0 -1 I I #
edge $-1 $259 -34.973976295009713 $177 -28.89881877130523 $223 $261 forward 7 unknown #
point $-1 -59.838251899777219 -28.89881877130523 -15.439270214158009 #
edge $-1 $180 28.89881877130523 $256 34.973976295009713 $224 $262 forward 7 unknown #
point $-1 -59.838251899777219 -28.89881877130523 15.439270214158009 #
coedge $-1 $240 $193 $187 $239 reversed $184 $-1 #
edge $-1 $247 -15.439270214158009 $195 -6.3595280198850697 $187 $263 forward 7 unknown #
coedge $-1 $188 $238 $190 $242 reversed $184 $-1 #
straight-curve $-1 33.305137154867168 -34.973976295009713 48.340265567489254 0 0 -1 I I #
edge $-1 $191 33.305137154867168 $247 59.838251899777219 $240 $264 forward 7 unknown #
point $-1 33.305137154867168 -34.973976295009713 15.439270214158009 #
straight-curve $-1 23.285847263661097 -34.973976295009713 6.3595280198850679 1 0 0 I I #
point $-1 59.838251899777219 -34.973976295009713 6.3595280198850697 #
point $-1 33.305137154867168 -34.973976295009713 6.3595280198850697 #
vertex $-1 $199 $265 #
straight-curve $-1 59.838251899777219 0 15.439270214158009 0 1 0 I I #
vertex $-1 $202 $266 #
point $-1 48.571694527322194 -26.20284286797299 6.8171912270355559 #
straight-curve $-1 -59.838251899777219 34.973976295009713 0 0 0 -1 I I #
point $-1 -59.838251899777219 -34.973976295009713 -15.439270214158009 #
straight-curve $-1 -59.838251899777219 0 -15.439270214158009 0 1 0 I I #
point $-1 -59.838251899777219 34.973976295009713 -15.439270214158009 #
coedge $-1 $224 $223 $229 $258 reversed $100 $-1 #
vertex $-1 $236 $267 #
straight-curve $-1 0 -34.973976295009713 15.439270214158009 1 0 0 I I #
edge $-1 $256 -15.439270214158009 $259 15.439270214158009 $255 $268 forward 7 unknown #
vertex $-1 $234 $269 #
straight-curve $-1 0 -34.973976295009713 -15.439270214158009 -1 0 0 I I #
straight-curve $-1 -59.838251899777219 0 -15.439270214158009 0 1 0 I I #
straight-curve $-1 -59.838251899777219 0 15.439270214158009 0 -1 0 I I #
straight-curve $-1 59.838251899777219 -34.973976295009713 0 0 0 -1 I I #
straight-curve $-1 0 -34.973976295009713 15.439270214158009 1 0 0 I I #
point $-1 59.838251899777219 -34.973976295009713 15.439270214158009 #
point $-1 46.571694527322194 -24.890724794035584 5.3077720804606923 #
point $-1 -59.838251899777219 -34.973976295009713 15.439270214158009 #
straight-curve $-1 -59.838251899777219 -34.973976295009713 0 0 0 -1 I I #
point $-1 -59.838251899777219 -34.973976295009713 -15.439270214158009 #
End-of-ACIS-data 