500 0 8 0           
7 Unknown 11 ACIS 5.0 NT 24 Thu Mar 25 23:54:46 1999 
-1 9.9999999999999995e-007 1e-010 
body $-1 $8 $-1 $9 #
body $-1 $10 $-1 $11 #
body $-1 $12 $-1 $13 #
body $-1 $14 $-1 $15 #
body $-1 $16 $-1 $17 #
body $-1 $18 $-1 $19 #
body $-1 $20 $-1 $21 #
body $-1 $22 $-1 $23 #
lump $-1 $-1 $24 $0 #
transform $-1 1 0 0 0 1 0 0 0 1 77.112949003570662 37.925064723116002 15.754868419981301 1 rotate no_reflect no_shear #
lump $-1 $-1 $25 $1 #
transform $-1 1 0 0 0 1 0 0 0 1 77.112949003570662 37.925064723116002 15.754868419981301 1 rotate no_reflect no_shear #
lump $-1 $-1 $26 $2 #
transform $-1 1 0 0 0 1 0 0 0 1 77.112949003570662 37.925064723116002 15.754868419981301 1 rotate no_reflect no_shear #
lump $-1 $-1 $27 $3 #
transform $-1 1 0 0 0 1 0 0 0 1 77.112949003570662 37.925064723116002 15.754868419981301 1 rotate no_reflect no_shear #
lump $-1 $-1 $28 $4 #
transform $-1 1 0 0 0 1 0 0 0 1 77.112949003570662 37.925064723116002 15.754868419981301 1 rotate no_reflect no_shear #
lump $-1 $-1 $29 $5 #
transform $-1 1 0 0 0 1 0 0 0 1 77.112949003570662 37.925064723116002 15.754868419981301 1 rotate no_reflect no_shear #
lump $-1 $-1 $30 $6 #
transform $-1 1 0 0 0 1 0 0 0 1 77.112949003570662 37.925064723116002 15.754868419981301 1 rotate no_reflect no_shear #
lump $-1 $-1 $31 $7 #
transform $-1 1 0 0 0 1 0 0 0 1 77.112949003570662 37.925064723116002 15.754868419981301 1 rotate no_reflect no_shear #
shell $-1 $-1 $-1 $32 $-1 $8 #
shell $-1 $-1 $-1 $33 $-1 $10 #
shell $-1 $-1 $-1 $34 $-1 $12 #
shell $-1 $-1 $-1 $35 $-1 $14 #
shell $-1 $-1 $-1 $36 $-1 $16 #
shell $-1 $-1 $-1 $37 $-1 $18 #
shell $-1 $-1 $-1 $38 $-1 $20 #
shell $-1 $-1 $-1 $39 $-1 $22 #
face $-1 $40 $41 $24 $-1 $42 forward single #
face $-1 $43 $44 $25 $-1 $45 reversed single #
face $-1 $46 $47 $26 $-1 $48 reversed single #
face $-1 $49 $50 $27 $-1 $51 reversed single #
face $-1 $52 $53 $28 $-1 $54 forward single #
face $-1 $55 $56 $29 $-1 $57 forward single #
face $-1 $58 $59 $30 $-1 $60 reversed single #
face $-1 $61 $62 $31 $-1 $63 forward single #
face $-1 $64 $65 $24 $-1 $66 reversed single #
loop $-1 $-1 $67 $32 #
plane-surface $-1 0 0 15.754868419981301 0 0 1 1 0 0 forward_v I I I I #
face $-1 $68 $69 $25 $-1 $70 reversed single #
loop $-1 $-1 $71 $33 #
plane-surface $-1 0 -32.222977467190027 12.343292951151827 0 0 1 1 0 0 forward_v I I I I #
face $-1 $72 $73 $26 $-1 $74 reversed single #
loop $-1 $-1 $75 $34 #
plane-surface $-1 -54.927183598944112 25.630757214471195 0 0 1 0 0 0 1 forward_v I I I I #
face $-1 $76 $77 $27 $-1 $78 reversed single #
loop $-1 $-1 $79 $35 #
plane-surface $-1 31.765673610193758 2.3430558844667217 219.78752612975055 0 -1 0 -0.54463904215088732 0 -0.83867056331134215 forward_v I I I I #
face $-1 $80 $81 $28 $-1 $82 forward single #
loop $-1 $83 $84 $36 #
cone-surface $-1 69.523575253146973 -5.3085245731659754 10.450782480906446 -0.54463904215088732 0 -0.83867056331134215 1.2580058449670133 0 -0.81695856322633098 1 I I 0 1 1.5 forward I I I I #
face $-1 $85 $86 $29 $-1 $87 forward single #
loop $-1 $88 $89 $37 #
cone-surface $-1 69.523575253146973 -0.71757629858635852 10.450782480906446 -0.54463904215088732 0 -0.83867056331134215 1.2580058449670133 0 -0.81695856322633098 1 I I 0 1 1.5 forward I I I I #
face $-1 $90 $91 $30 $-1 $92 reversed single #
loop $-1 $-1 $93 $38 #
plane-surface $-1 -77.112949003570648 -18.858278259605981 11.010207014959278 -0.81915205242281985 0 0.57357642473473569 0.57357642473473569 0 0.81915205242281985 forward_v I I I I #
face $-1 $94 $95 $31 $-1 $96 forward single #
loop $-1 $97 $98 $39 #
cone-surface $-1 -74.651922621008424 -18.858278259605978 12.82243990985174 0.81915205242281985 0 -0.57357642473473569 0.57357642473473569 0 0.81915205242281985 1 I I 0 1 1 forward I I I I #
face $-1 $99 $100 $24 $-1 $101 reversed single #
loop $-1 $-1 $102 $40 #
plane-surface $-1 0 0 -15.754868419981301 0 0 1 1 0 0 forward_v I I I I #
coedge $-1 $103 $104 $105 $106 forward $41 $-1 #
face $-1 $107 $108 $25 $-1 $109 reversed single #
loop $-1 $-1 $110 $43 #
plane-surface $-1 0 -26.520890211264053 14.049080685566564 0 -1 0 0 0 -1 forward_v I I I I #
coedge $-1 $111 $112 $113 $114 reversed $44 $-1 #
face $-1 $115 $116 $26 $-1 $117 reversed single #
loop $-1 $-1 $118 $46 #
plane-surface $-1 -57.266300984617715 31.777910968793599 0 1 0 0 0 0 -1 forward_v I I I I #
coedge $-1 $119 $120 $121 $122 forward $47 $-1 #
face $-1 $123 $124 $27 $-1 $125 reversed single #
loop $-1 $-1 $126 $49 #
plane-surface $-1 -52.231771755276128 -3.0130504358761669 90.442805370903727 0.54463904215088732 0 0.83867056331134215 0.83867056331134215 0 -0.54463904215088732 forward_v I I I I #
coedge $-1 $127 $128 $129 $130 reversed $50 $-1 #
face $-1 $-1 $131 $28 $-1 $132 forward single #
loop $-1 $133 $134 $52 #
cone-surface $-1 68.693415006543205 -5.3085245731659754 9.1724478266218252 -0.54463904215088732 0 -0.83867056331134215 0.62900292248350664 0 -0.40847928161316549 1 I I -0.70710678118654757 0.70710678118654757 0.75 forward I I I I #
loop $-1 $-1 $135 $36 #
coedge $-1 $84 $84 $136 $137 reversed $53 $-1 #
face $-1 $-1 $138 $29 $-1 $139 forward single #
loop $-1 $140 $141 $55 #
cone-surface $-1 68.693415006543205 -0.71757629858635852 9.1724478266218252 -0.54463904215088732 0 -0.83867056331134215 0.62900292248350664 0 -0.40847928161316549 1 I I -0.70710678118654757 0.70710678118654757 0.75 forward I I I I #
loop $-1 $-1 $142 $37 #
coedge $-1 $89 $89 $143 $144 reversed $56 $-1 #
face $-1 $145 $146 $30 $-1 $147 reversed single #
loop $-1 $-1 $148 $58 #
plane-surface $-1 -203.44740989287294 -11.195666307947912 99.470546195399393 0 -1 0 0.81915205242281985 0 -0.57357642473473569 forward_v I I I I #
coedge $-1 $149 $150 $151 $152 reversed $59 $-1 #
face $-1 $-1 $153 $31 $-1 $154 forward single #
loop $-1 $155 $156 $61 #
cone-surface $-1 -73.442444003123285 -18.858278259605978 11.975553889865813 0.81915205242281985 0 -0.57357642473473569 0.28678821236736785 0 0.40957602621140993 1 I I -0.70710678118654746 0.70710678118654746 0.5 forward I I I I #
loop $-1 $-1 $157 $39 #
coedge $-1 $98 $98 $158 $159 reversed $62 $-1 #
face $-1 $160 $161 $24 $-1 $162 reversed single #
loop $-1 $-1 $163 $64 #
plane-surface $-1 0 -37.925064723116002 0 0 1 0 0 0 1 forward_v I I I I #
coedge $-1 $164 $165 $166 $167 forward $65 $-1 #
coedge $-1 $168 $67 $169 $170 forward $41 $-1 #
coedge $-1 $67 $168 $171 $172 forward $41 $-1 #
coedge $-1 $173 $174 $67 $106 reversed $175 $-1 #
edge $-1 $176 -37.925064723116002 $177 37.925064723116002 $105 $178 forward 7 unknown #
face $-1 $179 $180 $25 $-1 $181 reversed single #
loop $-1 $-1 $182 $68 #
plane-surface $-1 -77.112949003570662 0 0 1 0 0 0 0 -1 forward_v I I I I #
coedge $-1 $183 $184 $185 $186 reversed $69 $-1 #
coedge $-1 $187 $71 $188 $189 reversed $44 $-1 #
coedge $-1 $71 $187 $183 $190 forward $44 $-1 #
coedge $-1 $185 $191 $71 $114 forward $192 $-1 #
edge $-1 $193 -21.813575989520988 $194 -10.409401477669039 $113 $195 forward 7 unknown #
face $-1 $196 $197 $26 $-1 $198 forward single #
loop $-1 $-1 $199 $72 #
plane-surface $-1 -52.588066213270508 31.777910968793599 0 -1 0 0 0 0 1 forward_v I I I I #
coedge $-1 $200 $201 $202 $203 reversed $73 $-1 #
coedge $-1 $204 $75 $205 $206 reversed $47 $-1 #
coedge $-1 $75 $204 $207 $208 reversed $47 $-1 #
coedge $-1 $201 $200 $75 $122 reversed $73 $-1 #
edge $-1 $209 -15.754868419981301 $210 15.754868419981301 $121 $211 forward 7 unknown #
face $-1 $212 $213 $27 $-1 $214 reversed single #
loop $-1 $-1 $215 $76 #
plane-surface $-1 31.765673610193758 -8.3691567562190556 219.78752612975055 0 1 0 0.54463904215088732 0 0.83867056331134215 forward_v I I I I #
coedge $-1 $216 $217 $218 $219 reversed $77 $-1 #
coedge $-1 $128 $79 $220 $221 reversed $50 $-1 #
coedge $-1 $79 $127 $216 $222 reversed $50 $-1 #
coedge $-1 $218 $223 $79 $130 forward $224 $-1 #
edge $-1 $225 -61.230112198473783 $226 -46.894726627607632 $129 $227 forward 7 unknown #
loop $-1 $-1 $136 $80 #
plane-surface $-1 -52.231771755276128 -3.0130504358761669 90.442805370903727 0.54463904215088732 0 0.83867056331134215 0.83867056331134215 0 -0.54463904215088732 forward_v I I I I #
loop $-1 $-1 $228 $52 #
coedge $-1 $134 $134 $135 $229 reversed $81 $-1 #
coedge $-1 $135 $135 $134 $229 forward $83 $-1 #
coedge $-1 $136 $136 $84 $137 forward $131 $-1 #
edge $-1 $230 0 $230 6.2831853071796004 $136 $231 forward 7 unknown #
loop $-1 $-1 $143 $85 #
plane-surface $-1 -52.231771755276128 -3.0130504358761669 90.442805370903727 0.54463904215088732 0 0.83867056331134215 0.83867056331134215 0 -0.54463904215088732 forward_v I I I I #
loop $-1 $-1 $232 $55 #
coedge $-1 $141 $141 $142 $233 reversed $86 $-1 #
coedge $-1 $142 $142 $141 $233 forward $88 $-1 #
coedge $-1 $143 $143 $89 $144 forward $138 $-1 #
edge $-1 $234 0 $234 6.2831853071796004 $143 $235 forward 7 unknown #
face $-1 $236 $237 $30 $-1 $238 forward single #
loop $-1 $-1 $239 $90 #
plane-surface $-1 -77.112949003570662 0 0 1 0 0 0 0 -1 forward_v I I I I #
coedge $-1 $240 $241 $242 $243 reversed $91 $-1 #
coedge $-1 $244 $93 $245 $246 reversed $59 $-1 #
coedge $-1 $93 $244 $240 $247 forward $59 $-1 #
coedge $-1 $242 $248 $93 $152 forward $237 $-1 #
edge $-1 $249 -17.091751081461062 $250 -1.766527178144921 $151 $251 forward 7 unknown #
loop $-1 $-1 $158 $94 #
plane-surface $-1 -77.112949003570648 -18.858278259605981 11.010207014959278 -0.81915205242281985 0 0.57357642473473569 0.57357642473473569 0 0.81915205242281985 forward_v I I I I #
loop $-1 $-1 $252 $61 #
coedge $-1 $156 $156 $157 $253 reversed $95 $-1 #
coedge $-1 $157 $157 $156 $253 forward $97 $-1 #
coedge $-1 $158 $158 $98 $159 forward $153 $-1 #
edge $-1 $254 0 $254 6.2831853071796004 $158 $255 forward 7 unknown #
face $-1 $256 $257 $24 $-1 $258 reversed single #
loop $-1 $-1 $259 $99 #
plane-surface $-1 -77.112949003570662 0 0 1 0 0 0 0 -1 forward_v I I I I #
coedge $-1 $260 $171 $261 $262 forward $100 $-1 #
coedge $-1 $263 $102 $260 $264 forward $65 $-1 #
coedge $-1 $102 $263 $265 $266 forward $65 $-1 #
coedge $-1 $174 $173 $102 $167 reversed $175 $-1 #
edge $-1 $267 -37.925064723116002 $268 37.925064723116002 $166 $269 forward 7 unknown #
coedge $-1 $104 $103 $270 $271 forward $41 $-1 #
coedge $-1 $272 $273 $103 $170 reversed $257 $-1 #
edge $-1 $177 -77.112949003570662 $274 77.112949003570662 $169 $275 forward 7 unknown #
coedge $-1 $163 $276 $104 $172 reversed $100 $-1 #
edge $-1 $277 -77.112949003570662 $176 77.112949003570662 $171 $278 forward 7 unknown #
coedge $-1 $166 $105 $276 $279 forward $175 $-1 #
coedge $-1 $105 $166 $272 $280 reversed $175 $-1 #
loop $-1 $-1 $173 $256 #
vertex $-1 $106 $281 #
vertex $-1 $106 $282 #
straight-curve $-1 77.112949003570662 0 15.754868419981301 0 1 0 I I #
face $-1 $283 $284 $25 $-1 $285 forward single #
loop $-1 $-1 $188 $107 #
plane-surface $-1 0 -37.925064723116002 0 0 1 0 0 0 1 forward_v I I I I #
coedge $-1 $286 $287 $288 $289 forward $108 $-1 #
coedge $-1 $288 $110 $112 $190 reversed $69 $-1 #
coedge $-1 $110 $288 $290 $291 reversed $69 $-1 #
coedge $-1 $292 $113 $110 $186 forward $192 $-1 #
edge $-1 $194 5.3187526083685457 $293 8.730328077198017 $185 $294 forward 7 unknown #
coedge $-1 $112 $111 $286 $295 reversed $44 $-1 #
coedge $-1 $296 $297 $111 $189 forward $180 $-1 #
edge $-1 $298 -77.112949003570662 $193 77.112949003570662 $188 $299 forward 7 unknown #
edge $-1 $300 -77.112949003570662 $194 77.112949003570662 $183 $301 forward 7 unknown #
coedge $-1 $113 $292 $296 $302 forward $192 $-1 #
loop $-1 $-1 $185 $283 #
vertex $-1 $189 $303 #
vertex $-1 $114 $304 #
straight-curve $-1 77.112949003570662 -16.111488733595014 12.343292951151827 0 1 0 I I #
face $-1 $305 $306 $26 $-1 $307 reversed single #
loop $-1 $-1 $308 $115 #
plane-surface $-1 0 0 15.754868419981301 0 0 1 1 0 0 forward_v I I I I #
coedge $-1 $309 $310 $204 $311 forward $116 $-1 #
coedge $-1 $121 $118 $312 $313 reversed $73 $-1 #
coedge $-1 $118 $121 $308 $314 reversed $73 $-1 #
coedge $-1 $315 $316 $118 $203 forward $317 $-1 #
edge $-1 $318 -15.754868419981301 $319 15.754868419981301 $202 $320 forward 7 unknown #
coedge $-1 $120 $119 $199 $311 reversed $47 $-1 #
coedge $-1 $312 $321 $119 $206 forward $306 $-1 #
edge $-1 $322 25.124474413798453 $210 29.802709185145659 $205 $323 forward 7 unknown #
coedge $-1 $324 $308 $120 $208 forward $197 $-1 #
edge $-1 $209 -29.802709185145659 $325 -25.124474413798453 $207 $326 forward 7 unknown #
vertex $-1 $208 $327 #
vertex $-1 $206 $328 #
straight-curve $-1 -57.266300984617715 25.630757214471195 0 0 0 -1 I I #
face $-1 $-1 $224 $27 $-1 $329 forward single #
loop $-1 $-1 $330 $123 #
plane-surface $-1 77.112949003570662 0 0 -1 0 0 0 0 1 forward_v I I I I #
coedge $-1 $331 $332 $333 $334 reversed $124 $-1 #
coedge $-1 $335 $126 $128 $222 forward $77 $-1 #
coedge $-1 $126 $335 $331 $336 forward $77 $-1 #
coedge $-1 $333 $129 $126 $219 forward $224 $-1 #
edge $-1 $226 -3.8495811024048052 $337 6.8626315382809722 $218 $338 forward 7 unknown #
coedge $-1 $339 $340 $127 $221 forward $213 $-1 #
edge $-1 $341 -103.44840305944142 $225 -94.138894644893966 $220 $342 forward 7 unknown #
edge $-1 $226 137.13291036934294 $341 154.2258980071413 $128 $343 forward 7 unknown #
coedge $-1 $129 $333 $339 $344 forward $224 $-1 #
loop $-1 $-1 $333 $212 #
vertex $-1 $221 $345 #
vertex $-1 $130 $346 #
straight-curve $-1 15.882836805096879 2.3430558844667217 15.754868419981307 -1 0 0 I I #
coedge $-1 $228 $228 $-1 $347 reversed $133 $-1 #
edge $-1 $348 0 $348 6.2831853071796004 $134 $349 forward 7 unknown #
vertex $-1 $137 $350 #
ellipse-curve $-1 69.945256218137587 -5.3085245731659754 11.100114212707588 0.54463904215088732 0 0.83867056331134215 1.2580058449670133 0 -0.81695856322633098 1 I I #
coedge $-1 $232 $232 $-1 $351 reversed $140 $-1 #
edge $-1 $352 0 $352 6.2831853071796004 $141 $353 forward 7 unknown #
vertex $-1 $144 $354 #
ellipse-curve $-1 69.945256218137587 -0.71757629858635852 11.100114212707588 0.54463904215088732 0 0.83867056331134215 1.2580058449670133 0 -0.81695856322633098 1 I I #
face $-1 $-1 $355 $30 $-1 $356 forward single #
loop $-1 $-1 $242 $145 #
plane-surface $-1 0 0 15.754868419981301 0 0 1 1 0 0 forward_v I I I I #
coedge $-1 $357 $358 $241 $359 forward $146 $-1 #
coedge $-1 $241 $148 $150 $247 reversed $91 $-1 #
coedge $-1 $148 $240 $239 $359 reversed $91 $-1 #
coedge $-1 $360 $151 $148 $243 forward $237 $-1 #
edge $-1 $250 -27.933003524642871 $361 -24.610755942865808 $242 $362 forward 7 unknown #
coedge $-1 $150 $149 $357 $363 reversed $59 $-1 #
coedge $-1 $364 $365 $149 $246 forward $355 $-1 #
edge $-1 $366 -23.359734597275864 $249 -17.567572579261409 $245 $367 forward 7 unknown #
edge $-1 $368 -2.4157181099100639e-014 $250 5.792162018014432 $240 $369 forward 7 unknown #
coedge $-1 $151 $360 $364 $370 forward $237 $-1 #
vertex $-1 $246 $371 #
vertex $-1 $152 $372 #
straight-curve $-1 -73.790701421793614 -9.4291391298029907 15.754868419981301 0 1 0 I I #
coedge $-1 $252 $252 $-1 $373 reversed $155 $-1 #
edge $-1 $374 0 $374 6.2831853071796004 $156 $375 forward 7 unknown #
vertex $-1 $159 $376 #
ellipse-curve $-1 -75.451825212682124 -18.858278259605978 13.382537717470283 -0.81915205242281985 0 0.57357642473473569 0.57357642473473569 0 0.81915205242281985 1 I I #
face $-1 $-1 $175 $24 $-1 $377 reversed single #
loop $-1 $-1 $272 $160 #
plane-surface $-1 0 37.925064723116002 0 0 -1 0 0 0 -1 forward_v I I I I #
coedge $-1 $378 $270 $273 $379 forward $161 $-1 #
coedge $-1 $276 $163 $164 $264 reversed $100 $-1 #
coedge $-1 $270 $378 $163 $262 reversed $161 $-1 #
edge $-1 $277 -15.754868419981301 $380 15.754868419981301 $261 $381 forward 7 unknown #
coedge $-1 $165 $164 $378 $382 forward $65 $-1 #
edge $-1 $268 -77.112949003570662 $380 77.112949003570662 $260 $383 forward 7 unknown #
coedge $-1 $273 $272 $165 $266 reversed $257 $-1 #
edge $-1 $384 -77.112949003570662 $267 77.112949003570662 $265 $385 forward 7 unknown #
vertex $-1 $167 $386 #
vertex $-1 $279 $387 #
straight-curve $-1 77.112949003570662 0 -15.754868419981301 0 -1 0 I I #
coedge $-1 $259 $261 $168 $271 reversed $161 $-1 #
edge $-1 $274 -37.925064723116002 $277 37.925064723116002 $270 $388 forward 7 unknown #
coedge $-1 $265 $169 $174 $280 forward $257 $-1 #
coedge $-1 $169 $265 $259 $379 reversed $257 $-1 #
vertex $-1 $170 $389 #
straight-curve $-1 0 37.925064723116002 15.754868419981301 -1 0 0 I I #
coedge $-1 $171 $260 $173 $279 reversed $100 $-1 #
vertex $-1 $271 $390 #
straight-curve $-1 0 -37.925064723116002 15.754868419981301 1 0 0 I I #
edge $-1 $176 -15.754868419981301 $268 15.754868419981301 $173 $391 forward 7 unknown #
edge $-1 $177 -15.754868419981301 $267 15.754868419981301 $174 $392 forward 7 unknown #
point $-1 77.112949003570662 -37.925064723116002 15.754868419981301 #
point $-1 77.112949003570662 37.925064723116002 15.754868419981301 #
face $-1 $-1 $192 $25 $-1 $393 reversed single #
loop $-1 $-1 $290 $179 #
plane-surface $-1 0 0 15.754868419981301 0 0 1 1 0 0 forward_v I I I I #
coedge $-1 $394 $182 $187 $295 forward $108 $-1 #
coedge $-1 $182 $394 $395 $396 reversed $108 $-1 #
coedge $-1 $184 $183 $182 $289 reversed $69 $-1 #
edge $-1 $397 -8.730328077198017 $300 -5.3187526083685457 $182 $398 forward 7 unknown #
coedge $-1 $395 $399 $184 $291 forward $284 $-1 #
edge $-1 $293 -77.112949003570662 $397 77.112949003570662 $290 $400 forward 7 unknown #
coedge $-1 $191 $185 $399 $401 reversed $192 $-1 #
vertex $-1 $186 $402 #
straight-curve $-1 77.112949003570662 -26.520890211264053 7.0245403427832818 0 0 1 I I #
edge $-1 $300 10.409401477669039 $298 21.813575989520988 $286 $403 forward 7 unknown #
coedge $-1 $404 $188 $191 $302 reversed $180 $-1 #
coedge $-1 $188 $404 $394 $405 forward $180 $-1 #
vertex $-1 $189 $406 #
straight-curve $-1 0 -37.925064723116002 12.343292951151827 1 0 0 I I #
vertex $-1 $295 $407 #
straight-curve $-1 0 -26.520890211264053 12.343292951151827 1 0 0 I I #
edge $-1 $408 -15.754868419981301 $193 -12.343292951151827 $191 $409 forward 7 unknown #
point $-1 77.112949003570662 -37.925064723116002 12.343292951151827 #
point $-1 77.112949003570662 -26.520890211264053 12.343292951151827 #
face $-1 $-1 $317 $26 $-1 $410 reversed single #
loop $-1 $-1 $312 $196 #
plane-surface $-1 0 0 -15.754868419981301 0 0 1 1 0 0 forward_v I I I I #
coedge $-1 $207 $411 $201 $314 forward $197 $-1 #
coedge $-1 $412 $199 $321 $413 reversed $116 $-1 #
coedge $-1 $199 $412 $324 $414 reversed $116 $-1 #
edge $-1 $325 -15.754868419981301 $322 15.754868419981301 $199 $415 forward 7 unknown #
coedge $-1 $416 $205 $200 $313 forward $306 $-1 #
edge $-1 $210 9.7418017300743962 $318 22.036109238719202 $312 $417 forward 7 unknown #
edge $-1 $319 -22.036109238719202 $209 -9.7418017300743962 $308 $418 forward 7 unknown #
coedge $-1 $419 $202 $411 $420 reversed $317 $-1 #
coedge $-1 $202 $419 $416 $421 reversed $317 $-1 #
loop $-1 $-1 $202 $305 #
vertex $-1 $421 $422 #
vertex $-1 $203 $423 #
straight-curve $-1 -57.266300984617715 37.925064723116002 0 0 0 1 I I #
coedge $-1 $205 $416 $309 $413 forward $306 $-1 #
vertex $-1 $206 $424 #
straight-curve $-1 -27.463591799472056 25.630757214471195 -15.754868419981301 -1 0 0 I I #
coedge $-1 $411 $207 $310 $414 forward $197 $-1 #
vertex $-1 $208 $425 #
straight-curve $-1 -27.463591799472056 25.630757214471195 15.754868419981301 1 0 0 I I #
point $-1 -57.266300984617715 25.630757214471195 15.754868419981301 #
point $-1 -57.266300984617715 25.630757214471195 -15.754868419981301 #
plane-surface $-1 0 0 15.754868419981301 0 0 1 1 0 0 forward_v I I I I #
coedge $-1 $340 $339 $332 $426 forward $213 $-1 #
coedge $-1 $332 $215 $217 $336 reversed $124 $-1 #
coedge $-1 $215 $331 $330 $426 reversed $124 $-1 #
coedge $-1 $223 $218 $215 $334 forward $224 $-1 #
edge $-1 $337 46.894726627607632 $427 61.230112198473783 $333 $428 forward 7 unknown #
coedge $-1 $217 $216 $340 $429 reversed $77 $-1 #
edge $-1 $430 -154.2258980071413 $337 -137.13291036934294 $331 $431 forward 7 unknown #
vertex $-1 $219 $432 #
straight-curve $-1 62.777563432704525 -1.5065252179380835 15.7548684199813 0 -1 0 I I #
coedge $-1 $330 $220 $223 $344 reversed $213 $-1 #
coedge $-1 $220 $330 $335 $429 forward $213 $-1 #
vertex $-1 $221 $433 #
straight-curve $-1 77.112949003570662 2.3430558844667217 109.89376306487527 0 0 1 I I #
straight-curve $-1 -52.231771755276128 2.3430558844667217 90.442805370903727 0.83867056331134215 0 -0.54463904215088732 I I #
edge $-1 $427 -8.3691567562190556 $225 2.3430558844667217 $339 $434 forward 7 unknown #
point $-1 77.112949003570662 2.3430558844667217 15.754868419981301 #
point $-1 62.777563432704511 2.3430558844667217 15.754868419981307 #
edge $-1 $435 1 $435 0 $228 $-1 forward 7 unknown #
vertex $-1 $229 $436 #
ellipse-curve $-1 69.101894288156373 -5.3085245731659754 9.8014507491053315 0.54463904215088732 0 0.83867056331134215 1.2580058449670133 0 -0.81695856322633098 1 I I #
point $-1 71.203262063104575 -5.3085245731659754 10.283155649481227 #
edge $-1 $437 1 $437 0 $232 $-1 forward 7 unknown #
vertex $-1 $233 $438 #
ellipse-curve $-1 69.101894288156373 -0.71757629858635852 9.8014507491053315 0.54463904215088732 0 0.83867056331134215 1.2580058449670133 0 -0.81695856322633098 1 I I #
point $-1 71.203262063104575 -0.71757629858635852 10.283155649481227 #
loop $-1 $-1 $245 $236 #
plane-surface $-1 0 -26.520890211264053 14.049080685566564 0 -1 0 0 0 -1 forward_v I I I I #
coedge $-1 $439 $239 $244 $363 forward $146 $-1 #
coedge $-1 $239 $439 $360 $440 reversed $146 $-1 #
edge $-1 $361 33.980404677718397 $368 38.72506608274044 $239 $441 forward 7 unknown #
coedge $-1 $248 $242 $358 $440 forward $237 $-1 #
vertex $-1 $440 $442 #
straight-curve $-1 -101.72370494643647 -11.195666307947912 15.7548684199813 -1 0 0 I I #
edge $-1 $368 1.766527178144921 $366 17.091751081461062 $357 $443 forward 7 unknown #
coedge $-1 $365 $245 $248 $370 reversed $355 $-1 #
coedge $-1 $245 $364 $439 $444 reversed $355 $-1 #
vertex $-1 $444 $445 #
straight-curve $-1 -63.714355950512868 -26.520890211264053 30.145381554370136 0.57357642473473569 0 0.81915205242281985 I I #
vertex $-1 $363 $446 #
straight-curve $-1 -77.112949003570648 -11.195666307947912 11.010207014959278 0.57357642473473569 0 0.81915205242281985 I I #
edge $-1 $447 -77.112949003570662 $249 -73.790701421793599 $248 $448 forward 7 unknown #
point $-1 -73.790701421793599 -26.520890211264053 15.754868419981301 #
point $-1 -73.790701421793599 -11.195666307947912 15.754868419981301 #
edge $-1 $449 1 $449 0 $252 $-1 forward 7 unknown #
vertex $-1 $253 $450 #
ellipse-curve $-1 -73.852020029334696 -18.858278259605978 12.26234210223318 -0.81915205242281985 0 0.57357642473473569 0.57357642473473569 0 0.81915205242281985 1 I I #
point $-1 -74.878248787947413 -18.858278259605978 14.20168976989312 #
plane-surface $-1 77.112949003570662 0 0 -1 0 0 0 0 1 forward_v I I I I #
coedge $-1 $261 $259 $263 $382 reversed $161 $-1 #
edge $-1 $274 -15.754868419981301 $384 15.754868419981301 $273 $451 forward 7 unknown #
vertex $-1 $382 $452 #
straight-curve $-1 -77.112949003570662 -37.925064723116002 0 0 0 -1 I I #
edge $-1 $380 -37.925064723116002 $384 37.925064723116002 $378 $453 forward 7 unknown #
straight-curve $-1 0 -37.925064723116002 -15.754868419981301 -1 0 0 I I #
vertex $-1 $266 $454 #
straight-curve $-1 0 37.925064723116002 -15.754868419981301 1 0 0 I I #
point $-1 77.112949003570662 37.925064723116002 -15.754868419981301 #
point $-1 77.112949003570662 -37.925064723116002 -15.754868419981301 #
straight-curve $-1 -77.112949003570662 0 15.754868419981301 0 -1 0 I I #
point $-1 -77.112949003570662 37.925064723116002 15.754868419981301 #
point $-1 -77.112949003570662 -37.925064723116002 15.754868419981301 #
straight-curve $-1 77.112949003570662 -37.925064723116002 0 0 0 -1 I I #
straight-curve $-1 77.112949003570662 37.925064723116002 0 0 0 -1 I I #
plane-surface $-1 77.112949003570662 0 0 -1 0 0 0 0 1 forward_v I I I I #
coedge $-1 $287 $286 $297 $405 reversed $108 $-1 #
coedge $-1 $455 $290 $287 $396 forward $284 $-1 #
edge $-1 $397 26.520890211264053 $456 37.925064723116002 $287 $457 forward 7 unknown #
vertex $-1 $396 $458 #
straight-curve $-1 -77.112949003570662 -26.520890211264053 7.0245403427832818 0 0 -1 I I #
coedge $-1 $290 $455 $292 $401 forward $284 $-1 #
straight-curve $-1 0 -26.520890211264053 15.754868419981301 -1 0 0 I I #
edge $-1 $408 -37.925064723116002 $293 -26.520890211264053 $292 $459 forward 7 unknown #
point $-1 77.112949003570662 -26.520890211264053 15.7548684199813 #
straight-curve $-1 -77.112949003570662 -16.111488733595014 12.343292951151827 0 -1 0 I I #
coedge $-1 $297 $296 $455 $460 reversed $180 $-1 #
edge $-1 $456 -15.754868419981301 $298 -12.343292951151827 $394 $461 forward 7 unknown #
point $-1 -77.112949003570662 -37.925064723116002 12.343292951151827 #
point $-1 -77.112949003570662 -26.520890211264053 12.343292951151827 #
vertex $-1 $401 $462 #
straight-curve $-1 77.112949003570662 -37.925064723116002 0 0 0 -1 I I #
plane-surface $-1 0 37.925064723116002 0 0 -1 0 0 0 -1 forward_v I I I I #
coedge $-1 $308 $324 $315 $420 forward $197 $-1 #
coedge $-1 $310 $309 $419 $463 reversed $116 $-1 #
edge $-1 $464 -22.036109238719202 $322 -9.7418017300743962 $321 $465 forward 7 unknown #
edge $-1 $325 9.7418017300743962 $466 22.036109238719202 $324 $467 forward 7 unknown #
straight-curve $-1 -52.588066213270508 25.630757214471195 0 0 0 -1 I I #
coedge $-1 $321 $312 $316 $421 forward $306 $-1 #
straight-curve $-1 -57.266300984617715 15.888955484396799 -15.754868419981301 0 1 0 I I #
straight-curve $-1 -57.266300984617715 15.888955484396799 15.754868419981301 0 -1 0 I I #
coedge $-1 $316 $315 $412 $463 forward $317 $-1 #
edge $-1 $466 52.588066213270508 $319 57.266300984617715 $315 $468 forward 7 unknown #
edge $-1 $318 -57.266300984617715 $464 -52.588066213270508 $316 $469 forward 7 unknown #
point $-1 -57.266300984617715 37.925064723116002 -15.754868419981301 #
point $-1 -57.266300984617715 37.925064723116002 15.754868419981301 #
point $-1 -52.588066213270508 25.630757214471195 -15.754868419981301 #
point $-1 -52.588066213270508 25.630757214471195 15.754868419981301 #
edge $-1 $427 94.138894644893966 $430 103.44840305944142 $330 $470 forward 7 unknown #
vertex $-1 $344 $471 #
straight-curve $-1 15.882836805096879 -8.3691567562190556 15.754868419981307 1 0 0 I I #
edge $-1 $430 -6.8626315382809722 $341 3.8495811024048052 $340 $472 forward 7 unknown #
vertex $-1 $429 $473 #
straight-curve $-1 -52.231771755276128 -8.3691567562190556 90.442805370903727 -0.83867056331134215 0 0.54463904215088732 I I #
point $-1 62.777563432704511 -8.3691567562190556 15.754868419981307 #
point $-1 77.112949003570662 2.3430558844667217 6.4453600054338551 #
straight-curve $-1 77.112949003570662 0 15.754868419981301 0 1 0 I I #
vertex $-1 $347 $474 #
point $-1 70.359900133123389 -5.3085245731659754 8.9844921858790006 #
vertex $-1 $351 $475 #
point $-1 70.359900133123389 -0.71757629858635852 8.9844921858790006 #
coedge $-1 $358 $357 $365 $444 forward $146 $-1 #
edge $-1 $361 11.195666307947912 $447 26.520890211264053 $358 $476 forward 7 unknown #
straight-curve $-1 -77.112949003570662 -11.195666307947912 49.735273097699697 0 0 -1 I I #
point $-1 -77.112949003570662 -11.195666307947912 15.754868419981301 #
straight-curve $-1 -77.112949003570662 -9.4291391298029907 11.010207014959263 0 -1 0 I I #
edge $-1 $366 -38.72506608274044 $447 -33.980404677718397 $439 $477 forward 7 unknown #
point $-1 -77.112949003570662 -26.520890211264053 11.010207014959258 #
point $-1 -77.112949003570662 -11.195666307947912 11.010207014959258 #
vertex $-1 $444 $478 #
straight-curve $-1 0 -26.520890211264053 15.754868419981301 1 0 0 I I #
vertex $-1 $373 $479 #
point $-1 -73.278443604599957 -18.858278259605978 13.081494154656001 #
straight-curve $-1 -77.112949003570662 37.925064723116002 0 0 0 -1 I I #
point $-1 -77.112949003570662 -37.925064723116002 -15.754868419981301 #
straight-curve $-1 -77.112949003570662 0 -15.754868419981301 0 1 0 I I #
point $-1 -77.112949003570662 37.925064723116002 -15.754868419981301 #
coedge $-1 $399 $395 $404 $460 forward $284 $-1 #
vertex $-1 $396 $480 #
straight-curve $-1 -77.112949003570662 0 15.754868419981301 0 -1 0 I I #
point $-1 -77.112949003570662 -26.520890211264053 15.7548684199813 #
straight-curve $-1 77.112949003570662 0 15.754868419981301 0 1 0 I I #
edge $-1 $456 -77.112949003570662 $408 77.112949003570662 $404 $481 forward 7 unknown #
straight-curve $-1 -77.112949003570662 -37.925064723116002 0 0 0 -1 I I #
point $-1 77.112949003570662 -37.925064723116002 15.754868419981301 #
edge $-1 $466 -15.754868419981301 $464 15.754868419981301 $419 $482 forward 7 unknown #
vertex $-1 $463 $483 #
straight-curve $-1 -52.588066213270508 15.888955484396799 -15.754868419981301 0 -1 0 I I #
vertex $-1 $420 $484 #
straight-curve $-1 -52.588066213270508 15.888955484396799 15.754868419981301 0 1 0 I I #
straight-curve $-1 0 37.925064723116002 15.754868419981301 -1 0 0 I I #
straight-curve $-1 0 37.925064723116002 -15.754868419981301 1 0 0 I I #
straight-curve $-1 77.112949003570662 -8.3691567562190556 109.89376306487527 0 0 -1 I I #
point $-1 77.112949003570662 -8.3691567562190556 15.754868419981301 #
straight-curve $-1 77.112949003570662 -1.5065252179380835 6.445360005433848 0 1 0 I I #
point $-1 77.112949003570662 -8.3691567562190556 6.4453600054338551 #
point $-1 68.284935724930037 -5.3085245731659754 8.5434449041383189 #
point $-1 68.284935724930037 -0.71757629858635852 8.5434449041383189 #
straight-curve $-1 -77.112949003570662 0 15.754868419981301 0 -1 0 I I #
straight-curve $-1 -77.112949003570662 -26.520890211264053 49.735273097699697 0 0 1 I I #
point $-1 -77.112949003570662 -26.520890211264053 15.7548684199813 #
point $-1 -73.032867976911874 -18.858278259605978 11.688765677498445 #
point $-1 -77.112949003570662 -37.925064723116002 15.754868419981301 #
straight-curve $-1 0 -37.925064723116002 15.754868419981301 1 0 0 I I #
straight-curve $-1 -52.588066213270508 37.925064723116002 0 0 0 -1 I I #
point $-1 -52.588066213270508 37.925064723116002 -15.754868419981301 #
point $-1 -52.588066213270508 37.925064723116002 15.754868419981301 #
End-of-ACIS-data 