500 0 2 0           
7 Unknown 11 ACIS 5.0 NT 24 Fri Mar 26 16:34:20 1999 
-1 9.9999999999999995e-007 1e-010 
body $-1 $2 $-1 $3 #
body $-1 $4 $-1 $5 #
lump $-1 $-1 $6 $0 #
transform $-1 1 0 0 0 1 0 0 0 1 76.413464766380812 37.258530998443241 13.133441716916995 1 rotate no_reflect no_shear #
lump $-1 $-1 $7 $1 #
transform $-1 1 0 0 0 1 0 0 0 1 76.413464766380812 37.258530998443241 13.133441716916995 1 rotate no_reflect no_shear #
shell $-1 $-1 $-1 $8 $-1 $2 #
shell $-1 $-1 $-1 $9 $-1 $4 #
face $-1 $10 $11 $6 $-1 $12 reversed single #
face $-1 $13 $14 $7 $-1 $15 forward single #
face $-1 $16 $17 $6 $-1 $18 forward single #
loop $-1 $-1 $19 $8 #
plane-surface $-1 -76.413464766380812 0 0 1 0 0 0 0 -1 forward_v I I I I #
face $-1 $20 $21 $7 $-1 $22 reversed single #
loop $-1 $-1 $23 $9 #
plane-surface $-1 -76.413464766380812 0 0 1 0 0 0 0 -1 forward_v I I I I #
face $-1 $24 $25 $6 $-1 $26 reversed single #
loop $-1 $-1 $27 $10 #
plane-surface $-1 0 0 13.133441716916995 0 0 1 1 0 0 forward_v I I I I #
coedge $-1 $28 $29 $30 $31 reversed $11 $-1 #
face $-1 $32 $33 $7 $-1 $34 reversed single #
loop $-1 $-1 $35 $13 #
plane-surface $-1 0 0 -13.133441716916995 0 0 1 1 0 0 forward_v I I I I #
coedge $-1 $36 $37 $38 $39 forward $14 $-1 #
face $-1 $40 $41 $6 $-1 $42 reversed single #
loop $-1 $-1 $43 $16 #
plane-surface $-1 0 0 -13.133441716916995 0 0 1 1 0 0 forward_v I I I I #
coedge $-1 $44 $45 $46 $47 forward $17 $-1 #
coedge $-1 $48 $19 $49 $50 reversed $11 $-1 #
coedge $-1 $19 $48 $51 $52 forward $11 $-1 #
coedge $-1 $53 $54 $19 $31 forward $25 $-1 #
edge $-1 $55 -37.258530998443241 $56 37.258530998443241 $19 $57 forward 7 unknown #
face $-1 $58 $59 $7 $-1 $60 reversed single #
loop $-1 $-1 $61 $20 #
plane-surface $-1 -81.277631925903364 -24.076590014989399 0 0 1 0 0 0 1 forward_v I I I I #
coedge $-1 $62 $63 $37 $64 forward $21 $-1 #
coedge $-1 $65 $23 $66 $67 reversed $14 $-1 #
coedge $-1 $23 $65 $35 $64 reversed $14 $-1 #
coedge $-1 $68 $69 $23 $39 reversed $70 $-1 #
edge $-1 $71 -13.133441716916995 $72 13.133441716916995 $38 $73 forward 7 unknown #
face $-1 $74 $75 $6 $-1 $76 reversed single #
loop $-1 $-1 $49 $24 #
plane-surface $-1 0 -37.258530998443241 0 0 1 0 0 0 1 forward_v I I I I #
coedge $-1 $54 $53 $77 $78 forward $25 $-1 #
coedge $-1 $79 $27 $80 $81 forward $17 $-1 #
coedge $-1 $27 $79 $82 $83 forward $17 $-1 #
coedge $-1 $84 $85 $27 $47 reversed $86 $-1 #
edge $-1 $87 -37.258530998443241 $88 37.258530998443241 $46 $89 forward 7 unknown #
coedge $-1 $29 $28 $79 $90 reversed $11 $-1 #
coedge $-1 $91 $82 $28 $50 forward $41 $-1 #
edge $-1 $92 -13.133441716916995 $55 13.133441716916995 $28 $93 forward 7 unknown #
coedge $-1 $80 $94 $29 $52 reversed $75 $-1 #
edge $-1 $95 -13.133441716916995 $56 13.133441716916995 $51 $96 forward 7 unknown #
coedge $-1 $43 $30 $94 $97 forward $25 $-1 #
coedge $-1 $30 $43 $91 $98 forward $25 $-1 #
vertex $-1 $31 $99 #
vertex $-1 $97 $100 #
straight-curve $-1 -76.413464766380812 0 -13.133441716916995 0 1 0 I I #
face $-1 $101 $70 $7 $-1 $102 reversed single #
loop $-1 $-1 $103 $32 #
plane-surface $-1 -86.141799085425916 -22.359065948057392 0 1 0 0 0 0 -1 forward_v I I I I #
coedge $-1 $104 $105 $106 $107 forward $33 $-1 #
coedge $-1 $108 $35 $104 $109 forward $21 $-1 #
coedge $-1 $35 $108 $68 $110 forward $21 $-1 #
edge $-1 $71 20.641541881125384 $111 24.076590014989399 $35 $112 forward 7 unknown #
coedge $-1 $37 $36 $113 $114 forward $14 $-1 #
coedge $-1 $115 $116 $36 $67 forward $117 $-1 #
edge $-1 $118 -24.076590014989399 $72 -20.641541881125384 $66 $119 forward 7 unknown #
coedge $-1 $120 $38 $63 $110 reversed $70 $-1 #
coedge $-1 $38 $120 $115 $121 reversed $70 $-1 #
loop $-1 $-1 $38 $58 #
vertex $-1 $64 $122 #
vertex $-1 $121 $123 #
straight-curve $-1 -76.413464766380812 -20.641541881125384 0 0 0 1 I I #
face $-1 $-1 $86 $6 $-1 $124 reversed single #
loop $-1 $-1 $125 $40 #
plane-surface $-1 0 37.258530998443241 0 0 -1 0 0 0 -1 forward_v I I I I #
coedge $-1 $85 $84 $43 $78 reversed $86 $-1 #
edge $-1 $126 -37.258530998443241 $127 37.258530998443241 $77 $128 forward 7 unknown #
coedge $-1 $45 $44 $48 $90 forward $17 $-1 #
coedge $-1 $125 $51 $44 $81 reversed $75 $-1 #
edge $-1 $88 -76.413464766380812 $95 76.413464766380812 $80 $129 forward 7 unknown #
coedge $-1 $49 $130 $45 $83 reversed $41 $-1 #
edge $-1 $92 -76.413464766380812 $87 76.413464766380812 $82 $131 forward 7 unknown #
coedge $-1 $77 $46 $130 $132 forward $86 $-1 #
coedge $-1 $46 $77 $125 $133 reversed $86 $-1 #
loop $-1 $-1 $84 $74 #
vertex $-1 $47 $134 #
vertex $-1 $47 $135 #
straight-curve $-1 76.413464766380812 0 13.133441716916995 0 1 0 I I #
edge $-1 $95 -37.258530998443241 $92 37.258530998443241 $48 $136 forward 7 unknown #
coedge $-1 $130 $49 $54 $98 reversed $41 $-1 #
vertex $-1 $90 $137 #
straight-curve $-1 -76.413464766380812 -37.258530998443241 0 0 0 -1 I I #
coedge $-1 $51 $125 $53 $97 reversed $75 $-1 #
vertex $-1 $81 $138 #
straight-curve $-1 -76.413464766380812 37.258530998443241 0 0 0 -1 I I #
edge $-1 $56 -76.413464766380812 $126 76.413464766380812 $94 $139 forward 7 unknown #
edge $-1 $127 -76.413464766380812 $55 76.413464766380812 $91 $140 forward 7 unknown #
point $-1 -76.413464766380812 -37.258530998443241 -13.133441716916995 #
point $-1 -76.413464766380812 37.258530998443241 -13.133441716916995 #
face $-1 $-1 $117 $7 $-1 $141 forward single #
plane-surface $-1 -81.277631925903364 -20.641541881125384 0 0 -1 0 0 0 -1 forward_v I I I I #
coedge $-1 $142 $143 $120 $144 forward $59 $-1 #
coedge $-1 $113 $61 $62 $109 reversed $33 $-1 #
coedge $-1 $61 $113 $116 $145 reversed $33 $-1 #
coedge $-1 $143 $142 $61 $107 reversed $59 $-1 #
edge $-1 $146 -13.133441716916995 $147 13.133441716916995 $106 $148 forward 7 unknown #
coedge $-1 $63 $62 $142 $149 forward $21 $-1 #
edge $-1 $111 -4.8641671595225517 $147 4.8641671595225517 $104 $150 forward 7 unknown #
edge $-1 $151 -4.8641671595225517 $71 4.8641671595225517 $68 $152 forward 7 unknown #
vertex $-1 $109 $153 #
straight-curve $-1 -76.413464766380812 0 -13.133441716916995 0 -1 0 I I #
coedge $-1 $105 $104 $65 $114 reversed $33 $-1 #
edge $-1 $118 -13.133441716916995 $111 13.133441716916995 $113 $154 forward 7 unknown #
coedge $-1 $155 $66 $69 $121 forward $117 $-1 #
coedge $-1 $66 $155 $105 $145 forward $117 $-1 #
loop $-1 $-1 $66 $101 #
vertex $-1 $67 $156 #
straight-curve $-1 -76.413464766380812 0 13.133441716916995 0 1 0 I I #
coedge $-1 $69 $68 $103 $144 reversed $70 $-1 #
edge $-1 $72 -4.8641671595225517 $157 4.8641671595225517 $69 $158 forward 7 unknown #
point $-1 -76.413464766380812 -20.641541881125384 -13.133441716916995 #
point $-1 -76.413464766380812 -20.641541881125384 13.133441716916995 #
plane-surface $-1 76.413464766380812 0 0 -1 0 0 0 0 1 forward_v I I I I #
coedge $-1 $94 $80 $85 $133 forward $75 $-1 #
vertex $-1 $78 $159 #
vertex $-1 $132 $160 #
straight-curve $-1 76.413464766380812 0 -13.133441716916995 0 -1 0 I I #
straight-curve $-1 0 37.258530998443241 13.133441716916995 -1 0 0 I I #
coedge $-1 $82 $91 $84 $132 reversed $41 $-1 #
straight-curve $-1 0 -37.258530998443241 13.133441716916995 1 0 0 I I #
edge $-1 $87 -13.133441716916995 $127 13.133441716916995 $84 $161 forward 7 unknown #
edge $-1 $88 -13.133441716916995 $126 13.133441716916995 $85 $162 forward 7 unknown #
point $-1 76.413464766380812 -37.258530998443241 13.133441716916995 #
point $-1 76.413464766380812 37.258530998443241 13.133441716916995 #
straight-curve $-1 -76.413464766380812 0 13.133441716916995 0 -1 0 I I #
point $-1 -76.413464766380812 -37.258530998443241 13.133441716916995 #
point $-1 -76.413464766380812 37.258530998443241 13.133441716916995 #
straight-curve $-1 0 37.258530998443241 -13.133441716916995 1 0 0 I I #
straight-curve $-1 0 -37.258530998443241 -13.133441716916995 -1 0 0 I I #
plane-surface $-1 0 0 13.133441716916995 0 0 1 1 0 0 forward_v I I I I #
coedge $-1 $106 $103 $108 $149 reversed $59 $-1 #
coedge $-1 $103 $106 $155 $163 reversed $59 $-1 #
edge $-1 $157 -13.133441716916995 $151 13.133441716916995 $120 $164 forward 7 unknown #
edge $-1 $146 -4.8641671595225517 $118 4.8641671595225517 $105 $165 forward 7 unknown #
vertex $-1 $163 $166 #
vertex $-1 $149 $167 #
straight-curve $-1 -86.141799085425916 -24.076590014989399 0 0 0 -1 I I #
edge $-1 $147 -1.7175240669320075 $151 1.7175240669320075 $142 $168 forward 7 unknown #
straight-curve $-1 -81.277631925903364 -24.076590014989399 -13.133441716916995 -1 0 0 I I #
vertex $-1 $110 $169 #
straight-curve $-1 -81.277631925903364 -20.641541881125384 -13.133441716916995 1 0 0 I I #
point $-1 -76.413464766380812 -24.076590014989399 -13.133441716916995 #
straight-curve $-1 -76.413464766380812 -24.076590014989399 0 0 0 -1 I I #
coedge $-1 $116 $115 $143 $163 forward $117 $-1 #
point $-1 -76.413464766380812 -24.076590014989399 13.133441716916995 #
vertex $-1 $121 $170 #
straight-curve $-1 -81.277631925903364 -20.641541881125384 13.133441716916995 -1 0 0 I I #
point $-1 76.413464766380812 37.258530998443241 -13.133441716916995 #
point $-1 76.413464766380812 -37.258530998443241 -13.133441716916995 #
straight-curve $-1 76.413464766380812 -37.258530998443241 0 0 0 -1 I I #
straight-curve $-1 76.413464766380812 37.258530998443241 0 0 0 -1 I I #
edge $-1 $157 -1.7175240669320075 $146 1.7175240669320075 $143 $171 forward 7 unknown #
straight-curve $-1 -86.141799085425916 -20.641541881125384 0 0 0 -1 I I #
straight-curve $-1 -81.277631925903364 -24.076590014989399 13.133441716916995 1 0 0 I I #
point $-1 -86.141799085425916 -24.076590014989399 13.133441716916995 #
point $-1 -86.141799085425916 -24.076590014989399 -13.133441716916995 #
straight-curve $-1 -86.141799085425916 -22.359065948057392 -13.133441716916995 0 1 0 I I #
point $-1 -86.141799085425916 -20.641541881125384 -13.133441716916995 #
point $-1 -86.141799085425916 -20.641541881125384 13.133441716916995 #
straight-curve $-1 -86.141799085425916 -22.359065948057392 13.133441716916995 0 -1 0 I I #
End-of-ACIS-data 