500 0 8 0           
7 Unknown 11 ACIS 5.0 NT 24 Thu Mar 25 23:05:30 1999 
-1 9.9999999999999995e-007 1e-010 
body $-1 $8 $-1 $9 #
body $-1 $10 $-1 $11 #
body $-1 $12 $-1 $13 #
body $-1 $14 $-1 $15 #
body $-1 $16 $-1 $17 #
body $-1 $18 $-1 $19 #
body $-1 $20 $-1 $21 #
body $-1 $22 $-1 $23 #
lump $-1 $-1 $24 $0 #
transform $-1 1 0 0 0 1 0 0 0 1 63.002410962248604 26.660900620857433 6.3244274555456022 1 rotate no_reflect no_shear #
lump $-1 $-1 $25 $1 #
transform $-1 1 0 0 0 1 0 0 0 1 63.002410962248604 26.660900620857433 6.3244274555456022 1 rotate no_reflect no_shear #
lump $-1 $-1 $26 $2 #
transform $-1 1 0 0 0 1 0 0 0 1 63.002410962248604 26.660900620857433 6.3244274555456022 1 rotate no_reflect no_shear #
lump $-1 $-1 $27 $3 #
transform $-1 1 0 0 0 1 0 0 0 1 63.002410962248604 26.660900620857433 6.3244274555456022 1 rotate no_reflect no_shear #
lump $-1 $-1 $28 $4 #
transform $-1 1 0 0 0 1 0 0 0 1 63.002410962248604 26.660900620857433 6.3244274555456022 1 rotate no_reflect no_shear #
lump $-1 $-1 $29 $5 #
transform $-1 1 0 0 0 1 0 0 0 1 63.002410962248604 26.660900620857433 6.3244274555456022 1 rotate no_reflect no_shear #
lump $-1 $-1 $30 $6 #
transform $-1 1 0 0 0 1 0 0 0 1 63.002410962248604 26.660900620857433 6.3244274555456022 1 rotate no_reflect no_shear #
lump $-1 $-1 $31 $7 #
transform $-1 1 0 0 0 1 0 0 0 1 63.002410962248604 26.660900620857433 6.3244274555456022 1 rotate no_reflect no_shear #
shell $-1 $-1 $-1 $32 $-1 $8 #
shell $-1 $-1 $-1 $33 $-1 $10 #
shell $-1 $-1 $-1 $34 $-1 $12 #
shell $-1 $-1 $-1 $35 $-1 $14 #
shell $-1 $-1 $-1 $36 $-1 $16 #
shell $-1 $-1 $-1 $37 $-1 $18 #
shell $-1 $-1 $-1 $38 $-1 $20 #
shell $-1 $-1 $-1 $39 $-1 $22 #
face $-1 $40 $41 $24 $-1 $42 forward single #
face $-1 $43 $44 $25 $-1 $45 reversed single #
face $-1 $46 $47 $26 $-1 $48 reversed single #
face $-1 $49 $50 $27 $-1 $51 forward single #
face $-1 $52 $53 $28 $-1 $54 forward single #
face $-1 $55 $56 $29 $-1 $57 reversed single #
face $-1 $58 $59 $30 $-1 $60 forward single #
face $-1 $61 $62 $31 $-1 $63 forward single #
face $-1 $64 $65 $24 $-1 $66 reversed single #
loop $-1 $-1 $67 $32 #
plane-surface $-1 0 0 6.3244274555456022 0 0 1 1 0 0 forward_v I I I I #
face $-1 $68 $69 $25 $-1 $70 reversed single #
loop $-1 $-1 $71 $33 #
plane-surface $-1 -61.502410962248604 -21.099013786232945 0 0 -1 0 0 0 -1 forward_v I I I I #
face $-1 $72 $73 $26 $-1 $74 reversed single #
loop $-1 $-1 $75 $34 #
plane-surface $-1 -48.431505149872976 84.621484356114962 126.61481117460933 -1 0 0 0 0.74314483375859142 0.66913059716165679 forward_v I I I I #
face $-1 $76 $77 $27 $-1 $78 forward single #
loop $-1 $79 $80 $35 #
cone-surface $-1 -58.839295015855562 23.784092876414736 3.388799063383968 0 -0.74314483375859142 -0.66913059716165679 1 0 0 1 I I 0 1 1 forward I I I I #
face $-1 $81 $82 $28 $-1 $83 forward single #
loop $-1 $84 $85 $36 #
cone-surface $-1 -52.59462109626601 23.784092876414736 3.388799063383968 0 -0.74314483375859142 -0.66913059716165679 1 0 0 1 I I 0 1 1 forward I I I I #
face $-1 $86 $87 $29 $-1 $88 reversed single #
loop $-1 $-1 $89 $37 #
plane-surface $-1 14.570905812375631 84.621484356114962 126.61481117460933 -1 0 0 0 0.74314483375859142 0.66913059716165679 forward_v I I I I #
face $-1 $90 $91 $30 $-1 $92 forward single #
loop $-1 $93 $94 $38 #
cone-surface $-1 4.1631159463930345 23.784092876414736 3.388799063383968 0 -0.74314483375859142 -0.66913059716165679 1 0 0 1 I I 0 1 1 forward I I I I #
face $-1 $95 $96 $31 $-1 $97 forward single #
loop $-1 $98 $99 $39 #
cone-surface $-1 10.407789865982593 23.784092876414736 3.388799063383968 0 -0.74314483375859142 -0.66913059716165679 1 0 0 1 I I 0 1 1 forward I I I I #
face $-1 $100 $101 $24 $-1 $102 reversed single #
loop $-1 $-1 $103 $40 #
plane-surface $-1 0 0 -6.3244274555456022 0 0 1 1 0 0 forward_v I I I I #
coedge $-1 $104 $105 $106 $107 forward $41 $-1 #
face $-1 $108 $109 $25 $-1 $110 forward single #
loop $-1 $-1 $111 $43 #
plane-surface $-1 -60.002410962248604 -23.879957203545189 0 -1 0 0 0 0 1 forward_v I I I I #
coedge $-1 $112 $113 $114 $115 forward $44 $-1 #
face $-1 $116 $117 $26 $-1 $118 reversed single #
loop $-1 $-1 $119 $46 #
plane-surface $-1 -55.71695805606079 -9.0183480857464247 42.301129435022304 0 0.74314483375859142 0.66913059716165679 1 0 0 forward_v I I I I #
coedge $-1 $120 $121 $122 $123 reversed $47 $-1 #
face $-1 $-1 $124 $27 $-1 $125 forward single #
loop $-1 $126 $127 $49 #
cone-surface $-1 -58.839295015855562 22.178553490098068 1.9431649426445654 0 -0.74314483375859142 -0.66913059716165679 0.5 0 0 1 I I -0.70710678118654746 0.70710678118654746 0.5 forward I I I I #
loop $-1 $-1 $128 $35 #
coedge $-1 $80 $80 $129 $130 reversed $50 $-1 #
face $-1 $-1 $131 $28 $-1 $132 forward single #
loop $-1 $133 $134 $52 #
cone-surface $-1 -52.59462109626601 22.178553490098068 1.9431649426445654 0 -0.74314483375859142 -0.66913059716165679 0.5 0 0 1 I I -0.70710678118654746 0.70710678118654746 0.5 forward I I I I #
loop $-1 $-1 $135 $36 #
coedge $-1 $85 $85 $136 $137 reversed $53 $-1 #
face $-1 $138 $139 $29 $-1 $140 reversed single #
loop $-1 $-1 $141 $55 #
plane-surface $-1 7.2854529061878139 -9.0183480857464247 42.301129435022304 0 0.74314483375859142 0.66913059716165679 1 0 0 forward_v I I I I #
coedge $-1 $142 $143 $144 $145 reversed $56 $-1 #
face $-1 $-1 $146 $30 $-1 $147 forward single #
loop $-1 $148 $149 $58 #
cone-surface $-1 4.1631159463930345 22.178553490098068 1.9431649426445654 0 -0.74314483375859142 -0.66913059716165679 0.5 0 0 1 I I -0.70710678118654746 0.70710678118654746 0.5 forward I I I I #
loop $-1 $-1 $150 $38 #
coedge $-1 $94 $94 $151 $152 reversed $59 $-1 #
face $-1 $-1 $153 $31 $-1 $154 forward single #
loop $-1 $155 $156 $61 #
cone-surface $-1 10.407789865982593 22.178553490098068 1.9431649426445654 0 -0.74314483375859142 -0.66913059716165679 0.5 0 0 1 I I -0.70710678118654746 0.70710678118654746 0.5 forward I I I I #
loop $-1 $-1 $157 $39 #
coedge $-1 $99 $99 $158 $159 reversed $62 $-1 #
face $-1 $160 $161 $24 $-1 $162 reversed single #
loop $-1 $-1 $163 $64 #
plane-surface $-1 0 -26.660900620857433 0 0 1 0 0 0 1 forward_v I I I I #
coedge $-1 $164 $165 $166 $167 forward $65 $-1 #
coedge $-1 $168 $67 $169 $170 forward $41 $-1 #
coedge $-1 $67 $168 $171 $172 forward $41 $-1 #
coedge $-1 $173 $174 $67 $107 reversed $175 $-1 #
edge $-1 $176 -26.660900620857433 $177 26.660900620857433 $106 $178 forward 7 unknown #
face $-1 $179 $180 $25 $-1 $181 reversed single #
loop $-1 $-1 $182 $68 #
plane-surface $-1 0 0 6.3244274555456022 0 0 1 1 0 0 forward_v I I I I #
coedge $-1 $183 $184 $185 $186 reversed $69 $-1 #
coedge $-1 $187 $71 $188 $189 reversed $44 $-1 #
coedge $-1 $71 $187 $190 $191 reversed $44 $-1 #
coedge $-1 $184 $183 $71 $115 reversed $69 $-1 #
edge $-1 $192 -6.3244274555456022 $193 6.3244274555456022 $114 $194 forward 7 unknown #
face $-1 $195 $196 $26 $-1 $197 reversed single #
loop $-1 $-1 $122 $72 #
plane-surface $-1 0 26.660900620857433 0 0 -1 0 0 0 -1 forward_v I I I I #
coedge $-1 $198 $199 $200 $201 reversed $73 $-1 #
coedge $-1 $121 $75 $202 $203 reversed $47 $-1 #
coedge $-1 $75 $120 $198 $204 reversed $47 $-1 #
coedge $-1 $200 $205 $75 $123 forward $117 $-1 #
edge $-1 $206 56.982978131759062 $207 60.632097271765232 $122 $208 forward 7 unknown #
loop $-1 $-1 $129 $76 #
plane-surface $-1 -55.71695805606079 -9.0183480857464247 42.301129435022304 0 0.74314483375859142 0.66913059716165679 1 0 0 forward_v I I I I #
loop $-1 $-1 $209 $49 #
coedge $-1 $127 $127 $128 $210 reversed $77 $-1 #
coedge $-1 $128 $128 $127 $210 forward $79 $-1 #
coedge $-1 $129 $129 $80 $130 forward $124 $-1 #
edge $-1 $211 -1.7118507671916436e-015 $211 6.2831853071795987 $129 $212 forward 7 unknown #
loop $-1 $-1 $136 $81 #
plane-surface $-1 -55.71695805606079 -9.0183480857464247 42.301129435022304 0 0.74314483375859142 0.66913059716165679 1 0 0 forward_v I I I I #
loop $-1 $-1 $213 $52 #
coedge $-1 $134 $134 $135 $214 reversed $82 $-1 #
coedge $-1 $135 $135 $134 $214 forward $84 $-1 #
coedge $-1 $136 $136 $85 $137 forward $131 $-1 #
edge $-1 $215 -1.7118507671916436e-015 $215 6.2831853071795987 $136 $216 forward 7 unknown #
face $-1 $217 $218 $29 $-1 $219 reversed single #
loop $-1 $-1 $220 $86 #
plane-surface $-1 -3.5527136788005009e-015 84.621484356114962 126.61481117460933 1 0 0 0 -0.74314483375859142 -0.66913059716165679 forward_v I I I I #
coedge $-1 $221 $222 $223 $224 reversed $87 $-1 #
coedge $-1 $143 $89 $225 $226 reversed $56 $-1 #
coedge $-1 $89 $142 $221 $227 reversed $56 $-1 #
coedge $-1 $223 $228 $89 $145 forward $218 $-1 #
edge $-1 $229 56.982978131759062 $230 60.632097271765232 $144 $231 forward 7 unknown #
loop $-1 $-1 $151 $90 #
plane-surface $-1 7.2854529061878139 -9.0183480857464247 42.301129435022304 0 0.74314483375859142 0.66913059716165679 1 0 0 forward_v I I I I #
loop $-1 $-1 $232 $58 #
coedge $-1 $149 $149 $150 $233 reversed $91 $-1 #
coedge $-1 $150 $150 $149 $233 forward $93 $-1 #
coedge $-1 $151 $151 $94 $152 forward $146 $-1 #
edge $-1 $234 -1.7118507671916436e-015 $234 6.2831853071795987 $151 $235 forward 7 unknown #
loop $-1 $-1 $158 $95 #
plane-surface $-1 7.2854529061878139 -9.0183480857464247 42.301129435022304 0 0.74314483375859142 0.66913059716165679 1 0 0 forward_v I I I I #
loop $-1 $-1 $236 $61 #
coedge $-1 $156 $156 $157 $237 reversed $96 $-1 #
coedge $-1 $157 $157 $156 $237 forward $98 $-1 #
coedge $-1 $158 $158 $99 $159 forward $153 $-1 #
edge $-1 $238 -1.7118507671916436e-015 $238 6.2831853071795987 $158 $239 forward 7 unknown #
face $-1 $240 $241 $24 $-1 $242 reversed single #
loop $-1 $-1 $243 $100 #
plane-surface $-1 -63.002410962248604 0 0 1 0 0 0 0 -1 forward_v I I I I #
coedge $-1 $244 $171 $245 $246 forward $101 $-1 #
coedge $-1 $247 $103 $244 $248 forward $65 $-1 #
coedge $-1 $103 $247 $249 $250 forward $65 $-1 #
coedge $-1 $174 $173 $103 $167 reversed $175 $-1 #
edge $-1 $251 -26.660900620857433 $252 26.660900620857433 $166 $253 forward 7 unknown #
coedge $-1 $105 $104 $254 $255 forward $41 $-1 #
coedge $-1 $256 $257 $104 $170 reversed $241 $-1 #
edge $-1 $177 -63.002410962248604 $258 63.002410962248604 $169 $259 forward 7 unknown #
coedge $-1 $163 $260 $105 $172 reversed $101 $-1 #
edge $-1 $261 -63.002410962248604 $176 63.002410962248604 $171 $262 forward 7 unknown #
coedge $-1 $166 $106 $260 $263 forward $175 $-1 #
coedge $-1 $106 $166 $256 $264 reversed $175 $-1 #
loop $-1 $-1 $173 $240 #
vertex $-1 $107 $265 #
vertex $-1 $107 $266 #
straight-curve $-1 63.002410962248604 0 6.3244274555456022 0 1 0 I I #
face $-1 $267 $268 $25 $-1 $269 reversed single #
loop $-1 $-1 $270 $108 #
plane-surface $-1 -63.002410962248604 0 0 1 0 0 0 0 -1 forward_v I I I I #
coedge $-1 $190 $271 $184 $272 forward $109 $-1 #
coedge $-1 $114 $111 $273 $274 reversed $69 $-1 #
coedge $-1 $111 $114 $182 $272 reversed $69 $-1 #
coedge $-1 $275 $276 $111 $186 forward $277 $-1 #
edge $-1 $278 -6.3244274555456022 $279 6.3244274555456022 $185 $280 forward 7 unknown #
coedge $-1 $113 $112 $270 $281 reversed $44 $-1 #
coedge $-1 $273 $282 $112 $189 forward $268 $-1 #
edge $-1 $283 -32.251205481124302 $193 -29.251205481124302 $188 $284 forward 7 unknown #
coedge $-1 $285 $182 $113 $191 forward $109 $-1 #
edge $-1 $192 29.251205481124302 $286 32.251205481124302 $190 $287 forward 7 unknown #
vertex $-1 $191 $288 #
vertex $-1 $189 $289 #
straight-curve $-1 -60.002410962248604 -21.099013786232945 0 0 0 -1 I I #
face $-1 $-1 $290 $26 $-1 $291 forward single #
loop $-1 $-1 $292 $116 #
plane-surface $-1 -63.002410962248604 0 0 1 0 0 0 0 -1 forward_v I I I I #
coedge $-1 $293 $119 $121 $204 forward $73 $-1 #
coedge $-1 $119 $293 $292 $294 reversed $73 $-1 #
coedge $-1 $295 $122 $119 $201 forward $117 $-1 #
edge $-1 $207 20.573026121842581 $296 35.143931934218209 $200 $297 forward 7 unknown #
coedge $-1 $298 $299 $120 $203 forward $290 $-1 #
edge $-1 $300 -18.935523107210727 $206 -15.649841557200048 $202 $301 forward 7 unknown #
edge $-1 $207 -53.321801241714887 $300 -48.411427147408027 $121 $302 forward 7 unknown #
coedge $-1 $122 $295 $298 $303 reversed $117 $-1 #
vertex $-1 $303 $304 #
vertex $-1 $123 $305 #
straight-curve $-1 -48.431505149872976 26.660900620857433 63.307405587304665 0 0 -1 I I #
coedge $-1 $209 $209 $-1 $306 reversed $126 $-1 #
edge $-1 $307 0 $307 6.2831853071796004 $127 $308 forward 7 unknown #
vertex $-1 $130 $309 #
ellipse-curve $-1 -58.839295015855562 25.01805984585209 4.4998678855425274 0 0.74314483375859142 0.66913059716165679 1 0 0 1 I I #
coedge $-1 $213 $213 $-1 $310 reversed $133 $-1 #
edge $-1 $311 0 $311 6.2831853071796004 $134 $312 forward 7 unknown #
vertex $-1 $137 $313 #
ellipse-curve $-1 -52.59462109626601 25.01805984585209 4.4998678855425274 0 0.74314483375859142 0.66913059716165679 1 0 0 1 I I #
face $-1 $-1 $314 $29 $-1 $315 forward single #
loop $-1 $-1 $144 $138 #
plane-surface $-1 0 26.660900620857433 0 0 -1 0 0 0 -1 forward_v I I I I #
coedge $-1 $316 $317 $318 $319 reversed $139 $-1 #
coedge $-1 $320 $141 $143 $227 forward $87 $-1 #
coedge $-1 $141 $320 $316 $321 forward $87 $-1 #
coedge $-1 $318 $144 $141 $224 forward $218 $-1 #
edge $-1 $230 -10.928179359281724 $322 3.6427264530939105 $223 $323 forward 7 unknown #
coedge $-1 $324 $325 $142 $226 forward $314 $-1 #
edge $-1 $326 -18.935523107210727 $229 -15.649841557200048 $225 $327 forward 7 unknown #
edge $-1 $230 -53.321801241714887 $326 -48.411427147408027 $143 $328 forward 7 unknown #
coedge $-1 $144 $318 $324 $329 reversed $218 $-1 #
vertex $-1 $329 $330 #
vertex $-1 $145 $331 #
straight-curve $-1 14.570905812375631 26.660900620857433 63.307405587304665 0 0 -1 I I #
coedge $-1 $232 $232 $-1 $332 reversed $148 $-1 #
edge $-1 $333 0 $333 6.2831853071796004 $149 $334 forward 7 unknown #
vertex $-1 $152 $335 #
ellipse-curve $-1 4.1631159463930345 25.01805984585209 4.4998678855425274 0 0.74314483375859142 0.66913059716165679 1 0 0 1 I I #
coedge $-1 $236 $236 $-1 $336 reversed $155 $-1 #
edge $-1 $337 0 $337 6.2831853071796004 $156 $338 forward 7 unknown #
vertex $-1 $159 $339 #
ellipse-curve $-1 10.407789865982593 25.01805984585209 4.4998678855425274 0 0.74314483375859142 0.66913059716165679 1 0 0 1 I I #
face $-1 $-1 $175 $24 $-1 $340 reversed single #
loop $-1 $-1 $256 $160 #
plane-surface $-1 0 26.660900620857433 0 0 -1 0 0 0 -1 forward_v I I I I #
coedge $-1 $341 $254 $257 $342 forward $161 $-1 #
coedge $-1 $260 $163 $164 $248 reversed $101 $-1 #
coedge $-1 $254 $341 $163 $246 reversed $161 $-1 #
edge $-1 $261 -6.3244274555456022 $343 6.3244274555456022 $245 $344 forward 7 unknown #
coedge $-1 $165 $164 $341 $345 forward $65 $-1 #
edge $-1 $252 -63.002410962248604 $343 63.002410962248604 $244 $346 forward 7 unknown #
coedge $-1 $257 $256 $165 $250 reversed $241 $-1 #
edge $-1 $347 -63.002410962248604 $251 63.002410962248604 $249 $348 forward 7 unknown #
vertex $-1 $167 $349 #
vertex $-1 $263 $350 #
straight-curve $-1 63.002410962248604 0 -6.3244274555456022 0 -1 0 I I #
coedge $-1 $243 $245 $168 $255 reversed $161 $-1 #
edge $-1 $258 -26.660900620857433 $261 26.660900620857433 $254 $351 forward 7 unknown #
coedge $-1 $249 $169 $174 $264 forward $241 $-1 #
coedge $-1 $169 $249 $243 $342 reversed $241 $-1 #
vertex $-1 $170 $352 #
straight-curve $-1 0 26.660900620857433 6.3244274555456022 -1 0 0 I I #
coedge $-1 $171 $244 $173 $263 reversed $101 $-1 #
vertex $-1 $255 $353 #
straight-curve $-1 0 -26.660900620857433 6.3244274555456022 1 0 0 I I #
edge $-1 $176 -6.3244274555456022 $252 6.3244274555456022 $173 $354 forward 7 unknown #
edge $-1 $177 -6.3244274555456022 $251 6.3244274555456022 $174 $355 forward 7 unknown #
point $-1 63.002410962248604 -26.660900620857433 6.3244274555456022 #
point $-1 63.002410962248604 26.660900620857433 6.3244274555456022 #
face $-1 $-1 $277 $25 $-1 $356 reversed single #
loop $-1 $-1 $273 $179 #
plane-surface $-1 0 0 -6.3244274555456022 0 0 1 1 0 0 forward_v I I I I #
coedge $-1 $357 $358 $187 $281 forward $180 $-1 #
coedge $-1 $182 $285 $275 $359 forward $109 $-1 #
edge $-1 $279 -14.720922019084838 $192 -9.1590351844603504 $182 $360 forward 7 unknown #
coedge $-1 $361 $188 $183 $274 forward $268 $-1 #
edge $-1 $193 9.1590351844603504 $278 14.720922019084838 $273 $362 forward 7 unknown #
coedge $-1 $363 $185 $271 $359 reversed $277 $-1 #
coedge $-1 $185 $363 $361 $364 reversed $277 $-1 #
loop $-1 $-1 $185 $267 #
vertex $-1 $364 $365 #
vertex $-1 $186 $366 #
straight-curve $-1 -60.002410962248604 -26.660900620857433 0 0 0 1 I I #
edge $-1 $286 -6.3244274555456022 $283 6.3244274555456022 $270 $367 forward 7 unknown #
coedge $-1 $188 $361 $357 $368 forward $268 $-1 #
vertex $-1 $189 $369 #
straight-curve $-1 -30.751205481124302 -21.099013786232945 -6.3244274555456022 1 0 0 I I #
coedge $-1 $271 $190 $358 $370 forward $109 $-1 #
vertex $-1 $370 $371 #
straight-curve $-1 -30.751205481124302 -21.099013786232945 6.3244274555456022 -1 0 0 I I #
point $-1 -60.002410962248604 -21.099013786232945 6.3244274555456022 #
point $-1 -60.002410962248604 -21.099013786232945 -6.3244274555456022 #
loop $-1 $-1 $202 $195 #
plane-surface $-1 0 0 6.3244274555456022 0 0 1 1 0 0 forward_v I I I I #
coedge $-1 $372 $373 $199 $294 forward $196 $-1 #
coedge $-1 $199 $198 $299 $374 reversed $73 $-1 #
edge $-1 $296 -34.586642020806138 $375 -29.676267926499278 $292 $376 forward 7 unknown #
coedge $-1 $205 $200 $373 $377 reversed $117 $-1 #
vertex $-1 $294 $378 #
straight-curve $-1 -27.858479028030395 26.660900620857433 2.6753083155394357 -1 0 0 I I #
coedge $-1 $379 $202 $205 $303 forward $290 $-1 #
coedge $-1 $202 $379 $293 $374 forward $290 $-1 #
vertex $-1 $203 $380 #
straight-curve $-1 -48.431505149872976 42.310742178057481 6.324427455545603 0 1 0 I I #
straight-curve $-1 -48.431505149872976 -9.0183480857464247 42.301129435022304 0 -0.66913059716165679 0.74314483375859142 I I #
edge $-1 $206 48.431505149872976 $381 63.002410962248604 $205 $382 forward 7 unknown #
point $-1 -48.431505149872976 26.660900620857433 6.3244274555456022 #
point $-1 -48.431505149872976 26.660900620857433 2.6753083155394322 #
edge $-1 $383 1 $383 0 $209 $-1 forward 7 unknown #
vertex $-1 $210 $384 #
ellipse-curve $-1 -58.839295015855562 22.550125906977364 2.2777302412253939 0 0.74314483375859142 0.66913059716165679 1 0 0 1 I I #
point $-1 -57.839295015855562 25.018059845852104 4.4998678855425425 #
edge $-1 $385 1 $385 0 $213 $-1 forward 7 unknown #
vertex $-1 $214 $386 #
ellipse-curve $-1 -52.59462109626601 22.550125906977364 2.2777302412253939 0 0.74314483375859142 0.66913059716165679 1 0 0 1 I I #
point $-1 -51.59462109626601 25.018059845852104 4.4998678855425425 #
loop $-1 $-1 $225 $217 #
plane-surface $-1 0 0 6.3244274555456022 0 0 1 1 0 0 forward_v I I I I #
coedge $-1 $317 $220 $222 $321 reversed $139 $-1 #
coedge $-1 $220 $316 $387 $388 reversed $139 $-1 #
coedge $-1 $228 $223 $220 $319 forward $218 $-1 #
edge $-1 $322 -60.632097271765232 $389 -56.982978131759062 $318 $390 forward 7 unknown #
coedge $-1 $222 $221 $325 $391 reversed $87 $-1 #
edge $-1 $392 48.411427147408027 $322 53.321801241714887 $316 $393 forward 7 unknown #
vertex $-1 $224 $394 #
straight-curve $-1 3.642726453093907 26.660900620857433 2.6753083155394357 -1 0 0 I I #
coedge $-1 $387 $225 $228 $329 forward $314 $-1 #
coedge $-1 $225 $387 $320 $391 forward $314 $-1 #
vertex $-1 $226 $395 #
straight-curve $-1 14.570905812375631 42.310742178057481 6.324427455545603 0 1 0 I I #
straight-curve $-1 14.570905812375631 -9.0183480857464247 42.301129435022304 0 -0.66913059716165679 0.74314483375859142 I I #
edge $-1 $229 -14.570905812375631 $389 3.5527136788005009e-015 $228 $396 forward 7 unknown #
point $-1 14.570905812375631 26.660900620857433 6.3244274555456022 #
point $-1 14.570905812375631 26.660900620857433 2.6753083155394322 #
edge $-1 $397 1 $397 0 $232 $-1 forward 7 unknown #
vertex $-1 $233 $398 #
ellipse-curve $-1 4.1631159463930345 22.550125906977364 2.2777302412253939 0 0.74314483375859142 0.66913059716165679 1 0 0 1 I I #
point $-1 5.1631159463930345 25.018059845852104 4.4998678855425425 #
edge $-1 $399 1 $399 0 $236 $-1 forward 7 unknown #
vertex $-1 $237 $400 #
ellipse-curve $-1 10.407789865982593 22.550125906977364 2.2777302412253939 0 0.74314483375859142 0.66913059716165679 1 0 0 1 I I #
point $-1 11.407789865982593 25.018059845852104 4.4998678855425425 #
plane-surface $-1 63.002410962248604 0 0 -1 0 0 0 0 1 forward_v I I I I #
coedge $-1 $245 $243 $247 $345 reversed $161 $-1 #
edge $-1 $258 -6.3244274555456022 $347 6.3244274555456022 $257 $401 forward 7 unknown #
vertex $-1 $345 $402 #
straight-curve $-1 -63.002410962248604 -26.660900620857433 0 0 0 -1 I I #
edge $-1 $343 -26.660900620857433 $347 26.660900620857433 $341 $403 forward 7 unknown #
straight-curve $-1 0 -26.660900620857433 -6.3244274555456022 -1 0 0 I I #
vertex $-1 $250 $404 #
straight-curve $-1 0 26.660900620857433 -6.3244274555456022 1 0 0 I I #
point $-1 63.002410962248604 26.660900620857433 -6.3244274555456022 #
point $-1 63.002410962248604 -26.660900620857433 -6.3244274555456022 #
straight-curve $-1 -63.002410962248604 0 6.3244274555456022 0 -1 0 I I #
point $-1 -63.002410962248604 26.660900620857433 6.3244274555456022 #
point $-1 -63.002410962248604 -26.660900620857433 6.3244274555456022 #
straight-curve $-1 63.002410962248604 -26.660900620857433 0 0 0 -1 I I #
straight-curve $-1 63.002410962248604 26.660900620857433 0 0 0 -1 I I #
plane-surface $-1 0 -26.660900620857433 0 0 1 0 0 0 1 forward_v I I I I #
coedge $-1 $405 $270 $282 $368 reversed $180 $-1 #
coedge $-1 $270 $405 $285 $370 reversed $180 $-1 #
edge $-1 $406 -63.002410962248604 $279 -60.002410962248604 $275 $407 forward 7 unknown #
straight-curve $-1 -60.002410962248604 -11.939978601772594 6.3244274555456022 0 1 0 I I #
coedge $-1 $282 $273 $276 $364 forward $268 $-1 #
straight-curve $-1 -60.002410962248604 -11.939978601772594 -6.3244274555456022 0 -1 0 I I #
coedge $-1 $276 $275 $405 $408 forward $277 $-1 #
edge $-1 $278 60.002410962248604 $409 63.002410962248604 $276 $410 forward 7 unknown #
point $-1 -60.002410962248604 -26.660900620857433 -6.3244274555456022 #
point $-1 -60.002410962248604 -26.660900620857433 6.3244274555456022 #
straight-curve $-1 -63.002410962248604 -21.099013786232945 0 0 0 -1 I I #
edge $-1 $409 -26.660900620857433 $283 -21.099013786232945 $357 $411 forward 7 unknown #
point $-1 -63.002410962248604 -21.099013786232945 -6.3244274555456022 #
edge $-1 $286 21.099013786232945 $406 26.660900620857433 $358 $412 forward 7 unknown #
point $-1 -63.002410962248604 -21.099013786232945 6.3244274555456022 #
coedge $-1 $373 $292 $379 $413 reversed $196 $-1 #
coedge $-1 $292 $372 $295 $377 forward $196 $-1 #
edge $-1 $375 -35.143931934218209 $300 -20.573026121842581 $299 $414 forward 7 unknown #
vertex $-1 $294 $415 #
straight-curve $-1 -63.002410962248604 3.5179201916589662 28.378192650359328 0 -0.66913059716165679 0.74314483375859142 I I #
edge $-1 $381 -6.3244274555456022 $296 -2.6753083155394379 $295 $416 forward 7 unknown #
point $-1 -63.002410962248604 26.660900620857433 2.6753083155394379 #
coedge $-1 $299 $298 $372 $413 forward $290 $-1 #
point $-1 -48.431505149872976 23.375219070846754 6.324427455545603 #
vertex $-1 $303 $417 #
straight-curve $-1 0 26.660900620857433 6.3244274555456022 -1 0 0 I I #
vertex $-1 $306 $418 #
point $-1 -57.839295015855562 22.550125906977364 2.2777302412253939 #
vertex $-1 $310 $419 #
point $-1 -51.59462109626601 22.550125906977364 2.2777302412253939 #
coedge $-1 $325 $324 $317 $388 forward $314 $-1 #
edge $-1 $389 15.649841557200048 $392 18.935523107210727 $387 $420 forward 7 unknown #
vertex $-1 $388 $421 #
straight-curve $-1 -3.5527136788005009e-015 26.660900620857433 63.307405587304665 0 0 1 I I #
edge $-1 $392 -3.6427264530939105 $326 10.928179359281724 $325 $422 forward 7 unknown #
vertex $-1 $391 $423 #
straight-curve $-1 -3.5527136788005009e-015 -9.0183480857464247 42.301129435022304 0 0.66913059716165679 -0.74314483375859142 I I #
point $-1 -3.5527136788005009e-015 26.660900620857433 2.6753083155394322 #
point $-1 14.570905812375631 23.375219070846754 6.324427455545603 #
straight-curve $-1 0 26.660900620857433 6.3244274555456022 -1 0 0 I I #
vertex $-1 $332 $424 #
point $-1 5.1631159463930345 22.550125906977364 2.2777302412253939 #
vertex $-1 $336 $425 #
point $-1 11.407789865982593 22.550125906977364 2.2777302412253939 #
straight-curve $-1 -63.002410962248604 26.660900620857433 0 0 0 -1 I I #
point $-1 -63.002410962248604 -26.660900620857433 -6.3244274555456022 #
straight-curve $-1 -63.002410962248604 0 -6.3244274555456022 0 1 0 I I #
point $-1 -63.002410962248604 26.660900620857433 -6.3244274555456022 #
coedge $-1 $358 $357 $363 $408 reversed $180 $-1 #
vertex $-1 $370 $426 #
straight-curve $-1 0 -26.660900620857433 6.3244274555456022 1 0 0 I I #
edge $-1 $406 -6.3244274555456022 $409 6.3244274555456022 $405 $427 forward 7 unknown #
vertex $-1 $368 $428 #
straight-curve $-1 0 -26.660900620857433 -6.3244274555456022 -1 0 0 I I #
straight-curve $-1 -63.002410962248604 0 -6.3244274555456022 0 1 0 I I #
straight-curve $-1 -63.002410962248604 0 6.3244274555456022 0 -1 0 I I #
edge $-1 $381 -26.660900620857433 $375 -23.375219070846754 $372 $429 forward 7 unknown #
straight-curve $-1 -27.858479028030395 23.375219070846747 6.324427455545603 1 0 0 I I #
point $-1 -63.002410962248604 23.375219070846754 6.324427455545603 #
straight-curve $-1 -63.002410962248604 26.660900620857433 0 0 0 -1 I I #
point $-1 -63.002410962248604 26.660900620857433 6.3244274555456022 #
point $-1 -58.839295015855562 21.806981073218772 1.6085996440637369 #
point $-1 -52.59462109626601 21.806981073218772 1.6085996440637369 #
straight-curve $-1 -3.5527136788005009e-015 42.310742178057481 6.324427455545603 0 -1 0 I I #
point $-1 -3.5527136788005009e-015 26.660900620857433 6.3244274555456022 #
straight-curve $-1 3.642726453093907 23.375219070846747 6.324427455545603 1 0 0 I I #
point $-1 -3.5527136788005009e-015 23.375219070846754 6.324427455545603 #
point $-1 4.1631159463930345 21.806981073218772 1.6085996440637369 #
point $-1 10.407789865982593 21.806981073218772 1.6085996440637369 #
point $-1 -63.002410962248604 -26.660900620857433 6.3244274555456022 #
straight-curve $-1 -63.002410962248604 -26.660900620857433 0 0 0 -1 I I #
point $-1 -63.002410962248604 -26.660900620857433 -6.3244274555456022 #
straight-curve $-1 -63.002410962248604 0 6.3244274555456022 0 -1 0 I I #
End-of-ACIS-data 