500 0 7 0           
7 Unknown 11 ACIS 5.0 NT 24 Thu Mar 25 21:19:05 1999 
-1 9.9999999999999995e-007 1e-010 
body $-1 $7 $-1 $8 #
body $-1 $9 $-1 $10 #
body $-1 $11 $-1 $12 #
body $-1 $13 $-1 $14 #
body $-1 $15 $-1 $16 #
body $-1 $17 $-1 $18 #
body $-1 $19 $-1 $20 #
lump $-1 $-1 $21 $0 #
transform $-1 1 0 0 0 1 0 0 0 1 40.705587939085056 17.667122087297955 8.1718325076908247 1 rotate no_reflect no_shear #
lump $-1 $-1 $22 $1 #
transform $-1 1 0 0 0 1 0 0 0 1 40.705587939085056 17.667122087297955 8.1718325076908247 1 rotate no_reflect no_shear #
lump $-1 $-1 $23 $2 #
transform $-1 1 0 0 0 1 0 0 0 1 40.705587939085056 17.667122087297955 8.1718325076908247 1 rotate no_reflect no_shear #
lump $-1 $-1 $24 $3 #
transform $-1 1 0 0 0 1 0 0 0 1 40.705587939085056 17.667122087297955 8.1718325076908247 1 rotate no_reflect no_shear #
lump $-1 $-1 $25 $4 #
transform $-1 1 0 0 0 1 0 0 0 1 40.705587939085056 17.667122087297955 8.1718325076908247 1 rotate no_reflect no_shear #
lump $-1 $-1 $26 $5 #
transform $-1 1 0 0 0 1 0 0 0 1 40.705587939085056 17.667122087297955 8.1718325076908247 1 rotate no_reflect no_shear #
lump $-1 $-1 $27 $6 #
transform $-1 1 0 0 0 1 0 0 0 1 40.705587939085056 17.667122087297955 8.1718325076908247 1 rotate no_reflect no_shear #
shell $-1 $-1 $-1 $28 $-1 $7 #
shell $-1 $-1 $-1 $29 $-1 $9 #
shell $-1 $-1 $-1 $30 $-1 $11 #
shell $-1 $-1 $-1 $31 $-1 $13 #
shell $-1 $-1 $-1 $32 $-1 $15 #
shell $-1 $-1 $-1 $33 $-1 $17 #
shell $-1 $-1 $-1 $34 $-1 $19 #
face $-1 $35 $36 $21 $-1 $37 forward single #
face $-1 $38 $39 $22 $-1 $40 forward single #
face $-1 $41 $42 $23 $-1 $43 reversed single #
face $-1 $44 $45 $24 $-1 $46 forward single #
face $-1 $47 $48 $25 $-1 $49 reversed single #
face $-1 $50 $51 $26 $-1 $52 forward single #
face $-1 $53 $54 $27 $-1 $55 forward single #
face $-1 $56 $57 $21 $-1 $58 reversed single #
loop $-1 $-1 $59 $28 #
plane-surface $-1 0 0 8.1718325076908247 0 0 1 1 0 0 forward_v I I I I #
face $-1 $60 $61 $22 $-1 $62 reversed single #
loop $-1 $-1 $63 $29 #
plane-surface $-1 0 -13.756994876687994 -0.08635966269170714 0 0 1 1 0 0 forward_v I I I I #
face $-1 $64 $65 $23 $-1 $66 reversed single #
loop $-1 $-1 $67 $30 #
plane-surface $-1 -82.635443797307985 2.9841560654155774 69.968139893885592 0 1 0 -0.51503808176128008 0 0.85716729658548041 forward_v I I I I #
face $-1 $68 $69 $24 $-1 $70 forward single #
loop $-1 $71 $72 $31 #
cone-surface $-1 -33.280705311604606 6.3116189813926553 2.8822792388036333 0.51503808176128008 0 -0.85716729658548041 1.2857509448782207 0 0.77255712264192011 1 I I 0 1 1.5 forward I I I I #
face $-1 $73 $74 $25 $-1 $75 reversed single #
loop $-1 $-1 $76 $32 #
plane-surface $-1 -19.794705560897853 14.472054629681779 59.233799882883133 0.66913061440640931 0 0.74314481823134659 0.74314481823134659 0 -0.66913061440640931 forward_v I I I I #
face $-1 $77 $78 $26 $-1 $79 forward single #
loop $-1 $80 $81 $33 #
cone-surface $-1 38.314115823894404 13.102740004989133 5.9142033459750385 -0.66913061440640931 0 -0.74314481823134659 0.3715724091156733 0 -0.33456530720320465 1 I I 0 1 0.5 forward I I I I #
face $-1 $82 $83 $27 $-1 $84 forward single #
loop $-1 $85 $86 $34 #
cone-surface $-1 38.314115823894404 15.841369254374428 5.9142033459750385 -0.66913061440640931 0 -0.74314481823134659 0.3715724091156733 0 -0.33456530720320465 1 I I 0 1 0.5 forward I I I I #
face $-1 $87 $88 $21 $-1 $89 reversed single #
loop $-1 $-1 $90 $35 #
plane-surface $-1 0 0 -8.1718325076908247 0 0 1 1 0 0 forward_v I I I I #
coedge $-1 $91 $92 $93 $94 forward $36 $-1 #
face $-1 $95 $96 $22 $-1 $97 reversed single #
loop $-1 $-1 $98 $38 #
plane-surface $-1 0 -13.756994876687994 -3.086359662691708 0 0 1 1 0 0 forward_v I I I I #
coedge $-1 $99 $100 $101 $102 reversed $39 $-1 #
face $-1 $103 $104 $23 $-1 $105 reversed single #
loop $-1 $-1 $106 $41 #
plane-surface $-1 -40.705587939085056 6.3116189813926553 0.18514235454944128 -0.51503808176128008 0 0.85716729658548041 0.85716729658548041 0 0.51503808176128008 forward_v I I I I #
coedge $-1 $107 $108 $109 $110 reversed $42 $-1 #
face $-1 $-1 $111 $24 $-1 $112 forward single #
loop $-1 $113 $114 $44 #
cone-surface $-1 -32.11558627935888 6.3116189813926553 0.94319557404802445 0.51503808176128008 0 -0.85716729658548041 0.64287547243911036 0 0.38627856132096006 1 I I -0.70710678118654757 0.70710678118654757 0.75 forward I I I I #
loop $-1 $-1 $115 $31 #
coedge $-1 $72 $72 $116 $117 reversed $45 $-1 #
face $-1 $118 $119 $25 $-1 $120 forward single #
loop $-1 $-1 $121 $47 #
plane-surface $-1 34.680004574010361 11.276987172065603 119.73409338286605 0 1 0 0.66913061440640931 0 0.74314481823134659 forward_v I I I I #
coedge $-1 $122 $123 $124 $125 reversed $48 $-1 #
face $-1 $-1 $126 $26 $-1 $127 forward single #
loop $-1 $128 $129 $50 #
cone-surface $-1 37.650478423248039 13.102740004989133 5.1771593595593668 -0.66913061440640931 0 -0.74314481823134659 0.18578620455783665 0 -0.16728265360160233 1 I I -0.70710678118654746 0.70710678118654746 0.25 forward I I I I #
loop $-1 $-1 $130 $33 #
coedge $-1 $81 $81 $131 $132 reversed $51 $-1 #
face $-1 $-1 $133 $27 $-1 $134 forward single #
loop $-1 $135 $136 $53 #
cone-surface $-1 37.650478423248039 15.841369254374428 5.1771593595593668 -0.66913061440640931 0 -0.74314481823134659 0.18578620455783665 0 -0.16728265360160233 1 I I -0.70710678118654746 0.70710678118654746 0.25 forward I I I I #
loop $-1 $-1 $137 $34 #
coedge $-1 $86 $86 $138 $139 reversed $54 $-1 #
face $-1 $140 $141 $21 $-1 $142 reversed single #
loop $-1 $-1 $143 $56 #
plane-surface $-1 0 -17.667122087297955 0 0 1 0 0 0 1 forward_v I I I I #
coedge $-1 $144 $145 $146 $147 forward $57 $-1 #
coedge $-1 $148 $59 $149 $150 forward $36 $-1 #
coedge $-1 $59 $148 $151 $152 forward $36 $-1 #
coedge $-1 $153 $154 $59 $94 reversed $155 $-1 #
edge $-1 $156 -17.667122087297955 $157 17.667122087297955 $93 $158 forward 7 unknown #
face $-1 $159 $160 $22 $-1 $161 reversed single #
loop $-1 $-1 $162 $60 #
plane-surface $-1 0 -9.8468676660780332 -1.5863596626917076 0 -1 0 0 0 -1 forward_v I I I I #
coedge $-1 $163 $164 $165 $166 reversed $61 $-1 #
coedge $-1 $167 $63 $168 $169 forward $39 $-1 #
coedge $-1 $63 $167 $170 $171 reversed $39 $-1 #
coedge $-1 $172 $173 $63 $102 forward $174 $-1 #
edge $-1 $175 2.9683702277340362 $176 10.788624648953958 $101 $177 forward 7 unknown #
face $-1 $178 $179 $23 $-1 $180 reversed single #
loop $-1 $-1 $181 $64 #
plane-surface $-1 -82.635443797307985 9.6390818973697332 69.968139893885592 0 -1 0 0.51503808176128008 0 -0.85716729658548041 forward_v I I I I #
coedge $-1 $182 $183 $184 $185 reversed $65 $-1 #
coedge $-1 $108 $67 $186 $187 reversed $42 $-1 #
coedge $-1 $67 $107 $182 $188 reversed $42 $-1 #
coedge $-1 $184 $189 $67 $110 forward $190 $-1 #
edge $-1 $191 0.61213395956893635 $192 13.904218272680296 $109 $193 forward 7 unknown #
loop $-1 $-1 $116 $68 #
plane-surface $-1 -40.705587939085056 6.3116189813926553 0.18514235454944128 -0.51503808176128008 0 0.85716729658548041 0.85716729658548041 0 0.51503808176128008 forward_v I I I I #
loop $-1 $-1 $194 $44 #
coedge $-1 $114 $114 $115 $195 reversed $69 $-1 #
coedge $-1 $115 $115 $114 $195 forward $71 $-1 #
coedge $-1 $116 $116 $72 $117 forward $111 $-1 #
edge $-1 $196 0 $196 6.2831853071796004 $116 $197 forward 7 unknown #
face $-1 $198 $199 $25 $-1 $200 reversed single #
loop $-1 $-1 $124 $73 #
plane-surface $-1 0 0 8.1718325076908247 0 0 1 1 0 0 forward_v I I I I #
coedge $-1 $201 $202 $203 $204 reversed $74 $-1 #
coedge $-1 $205 $76 $206 $207 reversed $48 $-1 #
coedge $-1 $76 $205 $201 $208 forward $48 $-1 #
coedge $-1 $203 $209 $76 $125 forward $119 $-1 #
edge $-1 $210 -10.431094772457065 $211 -4.0409598572247134 $124 $212 forward 7 unknown #
loop $-1 $-1 $131 $77 #
plane-surface $-1 -19.794705560897853 14.472054629681779 59.233799882883133 0.66913061440640931 0 0.74314481823134659 0.74314481823134659 0 -0.66913061440640931 forward_v I I I I #
loop $-1 $-1 $213 $50 #
coedge $-1 $129 $129 $130 $214 reversed $78 $-1 #
coedge $-1 $130 $130 $129 $214 forward $80 $-1 #
coedge $-1 $131 $131 $81 $132 forward $126 $-1 #
edge $-1 $215 0 $215 6.2831853071796004 $131 $216 forward 7 unknown #
loop $-1 $-1 $138 $82 #
plane-surface $-1 -19.794705560897853 14.472054629681779 59.233799882883133 0.66913061440640931 0 0.74314481823134659 0.74314481823134659 0 -0.66913061440640931 forward_v I I I I #
loop $-1 $-1 $217 $53 #
coedge $-1 $136 $136 $137 $218 reversed $83 $-1 #
coedge $-1 $137 $137 $136 $218 forward $85 $-1 #
coedge $-1 $138 $138 $86 $139 forward $133 $-1 #
edge $-1 $219 0 $219 6.2831853071796004 $138 $220 forward 7 unknown #
face $-1 $221 $222 $21 $-1 $223 reversed single #
loop $-1 $-1 $224 $87 #
plane-surface $-1 -40.705587939085056 0 0 1 0 0 0 0 -1 forward_v I I I I #
coedge $-1 $225 $151 $226 $227 forward $88 $-1 #
coedge $-1 $228 $90 $225 $229 forward $57 $-1 #
coedge $-1 $90 $228 $230 $231 forward $57 $-1 #
coedge $-1 $154 $153 $90 $147 reversed $155 $-1 #
edge $-1 $232 -17.667122087297955 $233 17.667122087297955 $146 $234 forward 7 unknown #
coedge $-1 $92 $91 $235 $236 forward $36 $-1 #
coedge $-1 $237 $238 $91 $150 reversed $222 $-1 #
edge $-1 $157 -40.705587939085056 $239 40.705587939085056 $149 $240 forward 7 unknown #
coedge $-1 $143 $241 $92 $152 reversed $88 $-1 #
edge $-1 $242 -40.705587939085056 $156 40.705587939085056 $151 $243 forward 7 unknown #
coedge $-1 $146 $93 $241 $244 forward $155 $-1 #
coedge $-1 $93 $146 $237 $245 reversed $155 $-1 #
loop $-1 $-1 $153 $221 #
vertex $-1 $94 $246 #
vertex $-1 $94 $247 #
straight-curve $-1 40.705587939085056 0 8.1718325076908247 0 1 0 I I #
face $-1 $248 $249 $22 $-1 $250 reversed single #
loop $-1 $-1 $251 $95 #
plane-surface $-1 -40.705587939085056 0 0 1 0 0 0 0 -1 forward_v I I I I #
coedge $-1 $252 $168 $173 $253 reversed $96 $-1 #
coedge $-1 $254 $98 $255 $256 reversed $61 $-1 #
coedge $-1 $98 $254 $252 $257 forward $61 $-1 #
coedge $-1 $173 $172 $98 $166 forward $174 $-1 #
edge $-1 $258 -10.788624648953958 $259 -2.9683702277340362 $165 $260 forward 7 unknown #
coedge $-1 $100 $99 $251 $261 reversed $39 $-1 #
coedge $-1 $162 $262 $99 $169 reversed $96 $-1 #
edge $-1 $175 -40.705587939085056 $263 40.705587939085056 $168 $264 forward 7 unknown #
coedge $-1 $265 $266 $100 $171 forward $249 $-1 #
edge $-1 $176 -40.705587939085056 $267 40.705587939085056 $170 $268 forward 7 unknown #
coedge $-1 $165 $101 $266 $269 forward $174 $-1 #
coedge $-1 $101 $165 $162 $253 forward $174 $-1 #
loop $-1 $-1 $101 $248 #
vertex $-1 $102 $270 #
vertex $-1 $269 $271 #
straight-curve $-1 40.705587939085056 -6.878497438343997 -0.08635966269170714 0 -1 0 I I #
face $-1 $-1 $190 $23 $-1 $272 forward single #
loop $-1 $-1 $273 $103 #
plane-surface $-1 -40.705587939085056 0 0 1 0 0 0 0 -1 forward_v I I I I #
coedge $-1 $274 $275 $276 $277 reversed $104 $-1 #
coedge $-1 $278 $106 $108 $188 forward $65 $-1 #
coedge $-1 $106 $278 $274 $279 forward $65 $-1 #
coedge $-1 $276 $109 $106 $185 forward $190 $-1 #
edge $-1 $192 -0.17165342528075023 $280 6.4832724066734055 $184 $281 forward 7 unknown #
coedge $-1 $282 $283 $107 $187 forward $179 $-1 #
edge $-1 $284 -34.798927592393355 $191 -26.812237439251973 $186 $285 forward 7 unknown #
edge $-1 $192 -15.50698955275158 $284 0 $108 $286 forward 7 unknown #
coedge $-1 $109 $276 $282 $287 forward $190 $-1 #
loop $-1 $-1 $276 $178 #
vertex $-1 $187 $288 #
vertex $-1 $110 $289 #
straight-curve $-1 -41.317721898653993 2.9841560654155774 8.1718325076908229 1 0 0 I I #
coedge $-1 $194 $194 $-1 $290 reversed $113 $-1 #
edge $-1 $291 0 $291 6.2831853071796004 $114 $292 forward 7 unknown #
vertex $-1 $117 $293 #
ellipse-curve $-1 -34.059545782529376 6.3116189813926553 4.1784874311201339 -0.51503808176128008 0 0.85716729658548041 1.2857509448782207 0 0.77255712264192011 1 I I #
face $-1 $-1 $294 $25 $-1 $295 reversed single #
loop $-1 $-1 $296 $118 #
plane-surface $-1 40.705587939085056 0 0 -1 0 0 0 0 1 forward_v I I I I #
coedge $-1 $202 $121 $123 $208 reversed $74 $-1 #
coedge $-1 $121 $201 $297 $298 reversed $74 $-1 #
coedge $-1 $299 $124 $121 $204 forward $119 $-1 #
edge $-1 $211 19.575350915788125 $300 23.365585652079876 $203 $301 forward 7 unknown #
coedge $-1 $123 $122 $296 $302 reversed $48 $-1 #
coedge $-1 $303 $304 $122 $207 forward $294 $-1 #
edge $-1 $305 -54.238434990541919 $210 -49.138171026766535 $206 $306 forward 7 unknown #
edge $-1 $307 -81.411175878170098 $211 -76.310911914394708 $201 $308 forward 7 unknown #
coedge $-1 $124 $299 $303 $309 forward $119 $-1 #
vertex $-1 $207 $310 #
vertex $-1 $125 $311 #
straight-curve $-1 36.915353202793312 7.2360273148408893 8.1718325076908229 0 -1 0 I I #
coedge $-1 $213 $213 $-1 $312 reversed $128 $-1 #
edge $-1 $313 0 $313 6.2831853071796004 $129 $314 forward 7 unknown #
vertex $-1 $132 $315 #
ellipse-curve $-1 38.810470570939174 13.102740004989133 6.4654611278328789 0.66913061440640931 0 0.74314481823134659 0.3715724091156733 0 -0.33456530720320465 1 I I #
coedge $-1 $217 $217 $-1 $316 reversed $135 $-1 #
edge $-1 $317 0 $317 6.2831853071796004 $136 $318 forward 7 unknown #
vertex $-1 $139 $319 #
ellipse-curve $-1 38.810470570939174 15.841369254374428 6.4654611278328789 0.66913061440640931 0 0.74314481823134659 0.3715724091156733 0 -0.33456530720320465 1 I I #
face $-1 $-1 $155 $21 $-1 $320 reversed single #
loop $-1 $-1 $237 $140 #
plane-surface $-1 0 17.667122087297955 0 0 -1 0 0 0 -1 forward_v I I I I #
coedge $-1 $321 $235 $238 $322 forward $141 $-1 #
coedge $-1 $241 $143 $144 $229 reversed $88 $-1 #
coedge $-1 $235 $321 $143 $227 reversed $141 $-1 #
edge $-1 $242 -8.1718325076908247 $323 8.1718325076908247 $226 $324 forward 7 unknown #
coedge $-1 $145 $144 $321 $325 forward $57 $-1 #
edge $-1 $233 -40.705587939085056 $323 40.705587939085056 $225 $326 forward 7 unknown #
coedge $-1 $238 $237 $145 $231 reversed $222 $-1 #
edge $-1 $327 -40.705587939085056 $232 40.705587939085056 $230 $328 forward 7 unknown #
vertex $-1 $147 $329 #
vertex $-1 $244 $330 #
straight-curve $-1 40.705587939085056 0 -8.1718325076908247 0 -1 0 I I #
coedge $-1 $224 $226 $148 $236 reversed $141 $-1 #
edge $-1 $239 -17.667122087297955 $242 17.667122087297955 $235 $331 forward 7 unknown #
coedge $-1 $230 $149 $154 $245 forward $222 $-1 #
coedge $-1 $149 $230 $224 $322 reversed $222 $-1 #
vertex $-1 $150 $332 #
straight-curve $-1 0 17.667122087297955 8.1718325076908247 -1 0 0 I I #
coedge $-1 $151 $225 $153 $244 reversed $88 $-1 #
vertex $-1 $236 $333 #
straight-curve $-1 0 -17.667122087297955 8.1718325076908247 1 0 0 I I #
edge $-1 $156 -8.1718325076908247 $233 8.1718325076908247 $153 $334 forward 7 unknown #
edge $-1 $157 -8.1718325076908247 $232 8.1718325076908247 $154 $335 forward 7 unknown #
point $-1 40.705587939085056 -17.667122087297955 8.1718325076908247 #
point $-1 40.705587939085056 17.667122087297955 8.1718325076908247 #
face $-1 $-1 $174 $22 $-1 $336 reversed single #
loop $-1 $-1 $170 $159 #
plane-surface $-1 0 -17.667122087297955 0 0 1 0 0 0 1 forward_v I I I I #
coedge $-1 $337 $338 $167 $261 forward $160 $-1 #
coedge $-1 $262 $162 $164 $257 reversed $96 $-1 #
edge $-1 $259 -2.2931798313458542 $175 0.70682016865414665 $173 $339 forward 7 unknown #
coedge $-1 $164 $163 $340 $341 reversed $61 $-1 #
coedge $-1 $266 $265 $163 $256 forward $249 $-1 #
edge $-1 $342 -40.705587939085056 $258 40.705587939085056 $255 $343 forward 7 unknown #
edge $-1 $344 -40.705587939085056 $259 40.705587939085056 $252 $345 forward 7 unknown #
vertex $-1 $256 $346 #
vertex $-1 $166 $347 #
straight-curve $-1 40.705587939085056 -6.878497438343997 -3.086359662691708 0 1 0 I I #
edge $-1 $267 -10.788624648953958 $263 -2.9683702277340362 $251 $348 forward 7 unknown #
coedge $-1 $168 $252 $337 $349 reversed $96 $-1 #
vertex $-1 $261 $350 #
straight-curve $-1 0 -9.8468676660780332 -0.08635966269170714 -1 0 0 I I #
coedge $-1 $255 $170 $338 $351 forward $249 $-1 #
coedge $-1 $170 $255 $172 $269 reversed $249 $-1 #
vertex $-1 $351 $352 #
straight-curve $-1 0 -17.667122087297955 -0.08635966269170714 -1 0 0 I I #
edge $-1 $176 0.08635966269170714 $258 3.086359662691708 $172 $353 forward 7 unknown #
point $-1 40.705587939085056 -9.8468676660780332 -0.08635966269170714 #
point $-1 40.705587939085056 -17.667122087297955 -0.08635966269170714 #
plane-surface $-1 0 0 8.1718325076908247 0 0 1 1 0 0 forward_v I I I I #
coedge $-1 $283 $282 $275 $354 forward $179 $-1 #
coedge $-1 $275 $181 $183 $279 reversed $104 $-1 #
coedge $-1 $181 $274 $273 $354 reversed $104 $-1 #
coedge $-1 $189 $184 $181 $277 forward $190 $-1 #
edge $-1 $280 -13.904218272680296 $355 -0.61213395956893635 $276 $356 forward 7 unknown #
coedge $-1 $183 $182 $283 $357 reversed $65 $-1 #
edge $-1 $358 0 $280 15.50698955275158 $274 $359 forward 7 unknown #
vertex $-1 $185 $360 #
straight-curve $-1 -27.413503625973696 3.1558094906963277 8.1718325076908247 0 1 0 I I #
coedge $-1 $273 $186 $189 $287 reversed $179 $-1 #
coedge $-1 $186 $273 $278 $357 forward $179 $-1 #
vertex $-1 $187 $361 #
straight-curve $-1 -40.705587939085056 2.9841560654155774 34.984069946942796 0 0 1 I I #
straight-curve $-1 -40.705587939085056 2.9841560654155774 0.18514235454944128 -0.85716729658548041 0 -0.51503808176128008 I I #
edge $-1 $355 -9.6390818973697332 $191 -2.9841560654155774 $282 $362 forward 7 unknown #
point $-1 -40.705587939085056 2.9841560654155774 8.1718325076908247 #
point $-1 -27.413503625973696 2.9841560654155774 8.1718325076908247 #
edge $-1 $363 1 $363 0 $194 $-1 forward 7 unknown #
vertex $-1 $195 $364 #
ellipse-curve $-1 -32.501864840679836 6.3116189813926553 1.5860710464871348 -0.51503808176128008 0 0.85716729658548041 1.2857509448782207 0 0.77255712264192011 1 I I #
point $-1 -32.773794837651153 6.3116189813926553 4.9510445537620527 #
loop $-1 $-1 $206 $198 #
plane-surface $-1 0 17.667122087297955 0 0 -1 0 0 0 -1 forward_v I I I I #
coedge $-1 $365 $297 $205 $302 forward $199 $-1 #
coedge $-1 $296 $366 $202 $298 forward $199 $-1 #
edge $-1 $300 51.695214183742202 $307 55.107956943458099 $297 $367 forward 7 unknown #
coedge $-1 $209 $203 $366 $368 forward $119 $-1 #
vertex $-1 $368 $369 #
straight-curve $-1 17.340002287005181 11.276987172065603 8.1718325076908229 1 0 0 I I #
edge $-1 $307 4.0409598572247134 $305 10.431094772457065 $296 $370 forward 7 unknown #
coedge $-1 $304 $206 $209 $309 reversed $294 $-1 #
coedge $-1 $206 $303 $365 $371 forward $294 $-1 #
vertex $-1 $207 $372 #
straight-curve $-1 0.39857602688606697 17.667122087297955 41.051687077638334 -0.74314481823134659 0 0.66913061440640931 I I #
vertex $-1 $302 $373 #
straight-curve $-1 -19.794705560897853 11.276987172065603 59.233799882883133 -0.74314481823134659 0 0.66913061440640931 I I #
edge $-1 $374 -40.705587939085056 $210 -36.915353202793305 $303 $375 forward 7 unknown #
point $-1 36.915353202793305 17.667122087297955 8.1718325076908229 #
point $-1 36.915353202793305 11.276987172065603 8.1718325076908229 #
edge $-1 $376 1 $376 0 $213 $-1 forward 7 unknown #
vertex $-1 $214 $377 #
ellipse-curve $-1 37.817761076849642 13.102740004989133 5.3629455641172035 0.66913061440640931 0 0.74314481823134659 0.3715724091156733 0 -0.33456530720320465 1 I I #
point $-1 39.182042980054845 13.102740004989133 6.130895820629668 #
edge $-1 $378 1 $378 0 $217 $-1 forward 7 unknown #
vertex $-1 $218 $379 #
ellipse-curve $-1 37.817761076849642 15.841369254374428 5.3629455641172035 0.66913061440640931 0 0.74314481823134659 0.3715724091156733 0 -0.33456530720320465 1 I I #
point $-1 39.182042980054845 15.841369254374428 6.130895820629668 #
plane-surface $-1 40.705587939085056 0 0 -1 0 0 0 0 1 forward_v I I I I #
coedge $-1 $226 $224 $228 $325 reversed $141 $-1 #
edge $-1 $239 -8.1718325076908247 $327 8.1718325076908247 $238 $380 forward 7 unknown #
vertex $-1 $325 $381 #
straight-curve $-1 -40.705587939085056 -17.667122087297955 0 0 0 -1 I I #
edge $-1 $323 -17.667122087297955 $327 17.667122087297955 $321 $382 forward 7 unknown #
straight-curve $-1 0 -17.667122087297955 -8.1718325076908247 -1 0 0 I I #
vertex $-1 $231 $383 #
straight-curve $-1 0 17.667122087297955 -8.1718325076908247 1 0 0 I I #
point $-1 40.705587939085056 17.667122087297955 -8.1718325076908247 #
point $-1 40.705587939085056 -17.667122087297955 -8.1718325076908247 #
straight-curve $-1 -40.705587939085056 0 8.1718325076908247 0 -1 0 I I #
point $-1 -40.705587939085056 17.667122087297955 8.1718325076908247 #
point $-1 -40.705587939085056 -17.667122087297955 8.1718325076908247 #
straight-curve $-1 40.705587939085056 -17.667122087297955 0 0 0 -1 I I #
straight-curve $-1 40.705587939085056 17.667122087297955 0 0 0 -1 I I #
plane-surface $-1 40.705587939085056 0 0 -1 0 0 0 0 1 forward_v I I I I #
coedge $-1 $340 $251 $262 $349 forward $160 $-1 #
coedge $-1 $251 $340 $265 $351 reversed $160 $-1 #
straight-curve $-1 40.705587939085056 -9.8468676660780332 -0.79317983134585379 0 0 1 I I #
coedge $-1 $338 $337 $254 $341 forward $160 $-1 #
edge $-1 $344 2.9683702277340362 $342 10.788624648953958 $340 $384 forward 7 unknown #
vertex $-1 $256 $385 #
straight-curve $-1 0 -17.667122087297955 -3.086359662691708 1 0 0 I I #
vertex $-1 $341 $386 #
straight-curve $-1 0 -9.8468676660780332 -3.086359662691708 1 0 0 I I #
point $-1 40.705587939085056 -17.667122087297955 -3.086359662691708 #
point $-1 40.705587939085056 -9.8468676660780332 -3.086359662691708 #
straight-curve $-1 -40.705587939085056 -6.878497438343997 -0.08635966269170714 0 1 0 I I #
edge $-1 $263 -0.70682016865414665 $344 2.2931798313458542 $337 $387 forward 7 unknown #
point $-1 -40.705587939085056 -9.8468676660780332 -0.08635966269170714 #
edge $-1 $267 0.08635966269170714 $342 3.086359662691708 $338 $388 forward 7 unknown #
point $-1 -40.705587939085056 -17.667122087297955 -0.08635966269170714 #
straight-curve $-1 40.705587939085056 -17.667122087297955 0 0 0 -1 I I #
edge $-1 $355 26.812237439251973 $358 34.798927592393355 $273 $389 forward 7 unknown #
vertex $-1 $287 $390 #
straight-curve $-1 -41.317721898653993 9.6390818973697332 8.1718325076908229 -1 0 0 I I #
edge $-1 $358 -6.4832724066734055 $284 0.17165342528075023 $283 $391 forward 7 unknown #
vertex $-1 $357 $392 #
straight-curve $-1 -40.705587939085056 9.6390818973697332 0.18514235454944128 0.85716729658548041 0 0.51503808176128008 I I #
point $-1 -27.413503625973696 9.6390818973697332 8.1718325076908247 #
point $-1 -40.705587939085056 2.9841560654155774 0.18514235454944128 #
straight-curve $-1 -40.705587939085056 0 8.1718325076908247 0 -1 0 I I #
vertex $-1 $290 $393 #
point $-1 -31.21611389580162 6.3116189813926553 2.3586281691290552 #
coedge $-1 $366 $296 $304 $371 reversed $199 $-1 #
coedge $-1 $297 $365 $299 $368 reversed $199 $-1 #
straight-curve $-1 40.705587939085056 11.276987172065603 59.867046691433025 0 0 -1 I I #
edge $-1 $300 11.276987172065603 $374 17.667122087297955 $366 $394 forward 7 unknown #
point $-1 40.705587939085056 11.276987172065603 8.1718325076908247 #
straight-curve $-1 40.705587939085056 7.2360273148408893 4.7590897479749259 0 1 0 I I #
edge $-1 $374 -8.1718325076908247 $305 -4.7590897479749259 $365 $395 forward 7 unknown #
point $-1 40.705587939085056 17.667122087297955 4.7590897479749259 #
point $-1 40.705587939085056 11.276987172065603 4.7590897479749259 #
vertex $-1 $368 $396 #
straight-curve $-1 0 17.667122087297955 8.1718325076908247 -1 0 0 I I #
vertex $-1 $312 $397 #
point $-1 38.189333485965314 13.102740004989133 5.0283802569139988 #
vertex $-1 $316 $398 #
point $-1 38.189333485965314 15.841369254374428 5.0283802569139988 #
straight-curve $-1 -40.705587939085056 17.667122087297955 0 0 0 -1 I I #
point $-1 -40.705587939085056 -17.667122087297955 -8.1718325076908247 #
straight-curve $-1 -40.705587939085056 0 -8.1718325076908247 0 1 0 I I #
point $-1 -40.705587939085056 17.667122087297955 -8.1718325076908247 #
straight-curve $-1 -40.705587939085056 -6.878497438343997 -3.086359662691708 0 -1 0 I I #
point $-1 -40.705587939085056 -17.667122087297955 -3.086359662691708 #
point $-1 -40.705587939085056 -9.8468676660780332 -3.086359662691708 #
straight-curve $-1 -40.705587939085056 -9.8468676660780332 -0.79317983134585379 0 0 -1 I I #
straight-curve $-1 -40.705587939085056 -17.667122087297955 0 0 0 -1 I I #
straight-curve $-1 -40.705587939085056 9.6390818973697332 34.984069946942796 0 0 -1 I I #
point $-1 -40.705587939085056 9.6390818973697332 8.1718325076908247 #
straight-curve $-1 -40.705587939085056 3.1558094906963277 0.18514235454943992 0 -1 0 I I #
point $-1 -40.705587939085056 9.6390818973697332 0.18514235454944128 #
point $-1 -31.729307718037919 6.3116189813926553 0.30032010160891409 #
straight-curve $-1 40.705587939085056 0 8.1718325076908247 0 1 0 I I #
straight-curve $-1 40.705587939085056 17.667122087297955 0 0 0 -1 I I #
point $-1 40.705587939085056 17.667122087297955 8.1718325076908247 #
point $-1 37.483195769646436 13.102740004989133 4.9913731550015301 #
point $-1 37.483195769646436 15.841369254374428 4.9913731550015301 #
End-of-ACIS-data 