500 0 11 0           
7 Unknown 11 ACIS 5.0 NT 24 Fri Mar 26 17:29:55 1999 
-1 9.9999999999999995e-007 1e-010 
body $-1 $11 $-1 $12 #
body $-1 $13 $-1 $14 #
body $-1 $15 $-1 $16 #
body $-1 $17 $-1 $18 #
body $-1 $19 $-1 $20 #
body $-1 $21 $-1 $22 #
body $-1 $23 $-1 $24 #
body $-1 $25 $-1 $26 #
body $-1 $27 $-1 $28 #
body $-1 $29 $-1 $30 #
body $-1 $31 $-1 $32 #
lump $-1 $-1 $33 $0 #
transform $-1 1 0 0 0 1 0 0 0 1 41.632129886776333 18.950134404989178 7.4227480410521292 1 rotate no_reflect no_shear #
lump $-1 $-1 $34 $1 #
transform $-1 0.70710677298230451 0 -0.70710678939079041 0 1 0 0.70710678939079041 0 0.70710677298230451 83.264261139793092 11.749161513262749 126.59640755769121 1 rotate no_reflect no_shear #
lump $-1 $-1 $35 $2 #
transform $-1 0.70710677298230451 0 -0.70710678939079041 0 -1 0 -0.70710678939079041 0 -0.70710677298230451 77.500475949432996 11.749161513262749 9.0817122524443548 1 rotate no_reflect no_shear #
lump $-1 $-1 $36 $3 #
transform $-1 0.70710677298230451 0 -0.70710678939079041 0 1 0 0.70710678939079041 0 0.70710677298230451 83.264261139793092 30.699295918251927 126.59640755769121 1 rotate no_reflect no_shear #
lump $-1 $-1 $37 $4 #
transform $-1 0.70710677298230451 0 -0.70710678939079041 0 -1 0 -0.70710678939079041 0 -0.70710677298230451 77.500475949432996 30.699295918251927 9.0817122524443548 1 rotate no_reflect no_shear #
lump $-1 $-1 $38 $5 #
transform $-1 0.78801074757464917 0 0.61566148304635926 0 1 0 -0.61566148304635926 0 0.78801074757464917 -51.262597656942752 9.3752804618356915 73.129282800635707 1 rotate no_reflect no_shear #
lump $-1 $-1 $39 $6 #
transform $-1 0.78801074757464917 0 0.61566148304635926 0 -1 0 0.61566148304635926 0 -0.78801074757464917 7.4104397331445444 9.3752804618356915 7.699545018275666 1 rotate no_reflect no_shear #
lump $-1 $-1 $40 $7 #
transform $-1 0.78801074757464917 0 0.61566148304635926 0 1 0 -0.61566148304635926 0 0.78801074757464917 -51.262597656942752 18.950134404989178 73.129282800635707 1 rotate no_reflect no_shear #
lump $-1 $-1 $41 $8 #
transform $-1 0.78801074757464917 0 0.61566148304635926 0 -1 0 0.61566148304635926 0 -0.78801074757464917 7.4104397331445444 18.950134404989178 7.699545018275666 1 rotate no_reflect no_shear #
lump $-1 $-1 $42 $9 #
transform $-1 0.78801074757464917 0 0.61566148304635926 0 1 0 -0.61566148304635926 0 0.78801074757464917 -51.262597656942752 28.524988348142667 73.129282800635707 1 rotate no_reflect no_shear #
lump $-1 $-1 $43 $10 #
transform $-1 0.78801074757464917 0 0.61566148304635926 0 -1 0 0.61566148304635926 0 -0.78801074757464917 7.4104397331445444 28.524988348142667 7.699545018275666 1 rotate no_reflect no_shear #
shell $-1 $-1 $-1 $44 $-1 $11 #
shell $-1 $-1 $-1 $45 $-1 $13 #
shell $-1 $-1 $-1 $46 $-1 $15 #
shell $-1 $-1 $-1 $47 $-1 $17 #
shell $-1 $-1 $-1 $48 $-1 $19 #
shell $-1 $-1 $-1 $49 $-1 $21 #
shell $-1 $-1 $-1 $50 $-1 $23 #
shell $-1 $-1 $-1 $51 $-1 $25 #
shell $-1 $-1 $-1 $52 $-1 $27 #
shell $-1 $-1 $-1 $53 $-1 $29 #
shell $-1 $-1 $-1 $54 $-1 $31 #
face $-1 $55 $56 $33 $-1 $57 forward single #
face $-1 $58 $59 $34 $-1 $60 forward single #
face $-1 $61 $62 $35 $-1 $63 forward single #
face $-1 $64 $65 $36 $-1 $66 forward single #
face $-1 $67 $68 $37 $-1 $69 forward single #
face $-1 $70 $71 $38 $-1 $72 forward single #
face $-1 $73 $74 $39 $-1 $75 forward single #
face $-1 $76 $77 $40 $-1 $78 forward single #
face $-1 $79 $80 $41 $-1 $81 forward single #
face $-1 $82 $83 $42 $-1 $84 forward single #
face $-1 $85 $86 $43 $-1 $87 forward single #
face $-1 $88 $89 $33 $-1 $90 reversed single #
loop $-1 $-1 $91 $44 #
plane-surface $-1 0 0 7.4227480410521292 0 0 1 1 0 0 forward_v I I I I #
face $-1 $92 $93 $34 $-1 $94 reversed single #
loop $-1 $-1 $95 $45 #
plane-surface $-1 0 0 83.264259773552666 0 0 1 1 0 0 forward_v I I I I #
face $-1 $96 $97 $35 $-1 $98 forward single #
loop $-1 $99 $100 $46 #
cone-surface $-1 0 0 -2.3283944212164682 0 0 1 1.5 0 0 1 I I 0 1 1.5 forward I I I I #
face $-1 $101 $102 $36 $-1 $103 reversed single #
loop $-1 $-1 $104 $47 #
plane-surface $-1 0 0 83.264259773552666 0 0 1 1 0 0 forward_v I I I I #
face $-1 $105 $106 $37 $-1 $107 forward single #
loop $-1 $108 $109 $48 #
cone-surface $-1 0 0 -2.3283944212164682 0 0 1 1.5 0 0 1 I I 0 1 1.5 forward I I I I #
face $-1 $110 $111 $38 $-1 $112 reversed single #
loop $-1 $-1 $113 $49 #
plane-surface $-1 0 0 83.264259773552666 0 0 1 1 0 0 forward_v I I I I #
face $-1 $114 $115 $39 $-1 $116 forward single #
loop $-1 $117 $118 $50 #
cone-surface $-1 0 0 -2.5839030121768847 0 0 1 1.5 0 0 1 I I 0 1 1.5 forward I I I I #
face $-1 $119 $120 $40 $-1 $121 reversed single #
loop $-1 $-1 $122 $51 #
plane-surface $-1 0 0 83.264259773552666 0 0 1 1 0 0 forward_v I I I I #
face $-1 $123 $124 $41 $-1 $125 forward single #
loop $-1 $126 $127 $52 #
cone-surface $-1 0 0 -2.5839030121768847 0 0 1 1.5 0 0 1 I I 0 1 1.5 forward I I I I #
face $-1 $128 $129 $42 $-1 $130 reversed single #
loop $-1 $-1 $131 $53 #
plane-surface $-1 0 0 83.264259773552666 0 0 1 1 0 0 forward_v I I I I #
face $-1 $132 $133 $43 $-1 $134 forward single #
loop $-1 $135 $136 $54 #
cone-surface $-1 0 0 -2.5839030121768847 0 0 1 1.5 0 0 1 I I 0 1 1.5 forward I I I I #
face $-1 $137 $138 $33 $-1 $139 reversed single #
loop $-1 $-1 $140 $55 #
plane-surface $-1 0 0 -7.4227480410521292 0 0 1 1 0 0 forward_v I I I I #
coedge $-1 $141 $142 $143 $144 forward $56 $-1 #
face $-1 $145 $146 $34 $-1 $147 reversed single #
loop $-1 $-1 $148 $58 #
plane-surface $-1 0 0 -83.264259773552666 0 0 1 1 0 0 forward_v I I I I #
coedge $-1 $149 $150 $151 $152 forward $59 $-1 #
face $-1 $-1 $153 $35 $-1 $154 forward single #
loop $-1 $-1 $155 $61 #
plane-surface $-1 0 0 -3.906788842432936 0 0 -1 -1 0 0 forward_v I I I I #
loop $-1 $-1 $156 $46 #
coedge $-1 $100 $100 $155 $157 reversed $62 $-1 #
face $-1 $158 $159 $36 $-1 $160 reversed single #
loop $-1 $-1 $161 $64 #
plane-surface $-1 0 0 -83.264259773552666 0 0 1 1 0 0 forward_v I I I I #
coedge $-1 $162 $163 $164 $165 forward $65 $-1 #
face $-1 $-1 $166 $37 $-1 $167 forward single #
loop $-1 $-1 $168 $67 #
plane-surface $-1 0 0 -3.906788842432936 0 0 -1 -1 0 0 forward_v I I I I #
loop $-1 $-1 $169 $48 #
coedge $-1 $109 $109 $168 $170 reversed $68 $-1 #
face $-1 $171 $172 $38 $-1 $173 reversed single #
loop $-1 $-1 $174 $70 #
plane-surface $-1 0 0 -83.264259773552666 0 0 1 1 0 0 forward_v I I I I #
coedge $-1 $175 $176 $177 $178 forward $71 $-1 #
face $-1 $-1 $179 $39 $-1 $180 forward single #
loop $-1 $-1 $181 $73 #
plane-surface $-1 0 0 -4.4178060243537693 0 0 -1 -1 0 0 forward_v I I I I #
loop $-1 $-1 $182 $50 #
coedge $-1 $118 $118 $181 $183 reversed $74 $-1 #
face $-1 $184 $185 $40 $-1 $186 reversed single #
loop $-1 $-1 $187 $76 #
plane-surface $-1 0 0 -83.264259773552666 0 0 1 1 0 0 forward_v I I I I #
coedge $-1 $188 $189 $190 $191 forward $77 $-1 #
face $-1 $-1 $192 $41 $-1 $193 forward single #
loop $-1 $-1 $194 $79 #
plane-surface $-1 0 0 -4.4178060243537693 0 0 -1 -1 0 0 forward_v I I I I #
loop $-1 $-1 $195 $52 #
coedge $-1 $127 $127 $194 $196 reversed $80 $-1 #
face $-1 $197 $198 $42 $-1 $199 reversed single #
loop $-1 $-1 $200 $82 #
plane-surface $-1 0 0 -83.264259773552666 0 0 1 1 0 0 forward_v I I I I #
coedge $-1 $201 $202 $203 $204 forward $83 $-1 #
face $-1 $-1 $205 $43 $-1 $206 forward single #
loop $-1 $-1 $207 $85 #
plane-surface $-1 0 0 -4.4178060243537693 0 0 -1 -1 0 0 forward_v I I I I #
loop $-1 $-1 $208 $54 #
coedge $-1 $136 $136 $207 $209 reversed $86 $-1 #
face $-1 $210 $211 $33 $-1 $212 reversed single #
loop $-1 $-1 $213 $88 #
plane-surface $-1 0 -18.950134404989178 0 0 1 0 0 0 1 forward_v I I I I #
coedge $-1 $214 $215 $216 $217 forward $89 $-1 #
coedge $-1 $218 $91 $219 $220 forward $56 $-1 #
coedge $-1 $91 $218 $221 $222 forward $56 $-1 #
coedge $-1 $223 $224 $91 $144 reversed $225 $-1 #
edge $-1 $226 -18.950134404989178 $227 18.950134404989178 $143 $228 forward 7 unknown #
face $-1 $229 $230 $34 $-1 $231 reversed single #
loop $-1 $-1 $232 $92 #
plane-surface $-1 0 -4.7147320189072479 0 0 1 0 0 0 1 forward_v I I I I #
coedge $-1 $233 $234 $235 $236 forward $93 $-1 #
coedge $-1 $237 $95 $238 $239 forward $59 $-1 #
coedge $-1 $95 $237 $240 $241 forward $59 $-1 #
coedge $-1 $242 $243 $95 $152 reversed $244 $-1 #
edge $-1 $245 -4.7147320189072479 $246 4.7147320189072479 $151 $247 forward 7 unknown #
loop $-1 $248 $249 $96 #
cone-surface $-1 0 0 0 0 0 1 0.75 0 0 1 I I -0.70710678118654757 0.70710678118654757 0.75 forward I I I I #
coedge $-1 $155 $155 $100 $157 forward $97 $-1 #
coedge $-1 $156 $156 $249 $250 forward $99 $-1 #
edge $-1 $251 0 $251 6.2831853071796004 $155 $252 forward 7 unknown #
face $-1 $253 $254 $36 $-1 $255 reversed single #
loop $-1 $-1 $256 $101 #
plane-surface $-1 0 -4.7147320189072479 0 0 1 0 0 0 1 forward_v I I I I #
coedge $-1 $257 $258 $259 $260 forward $102 $-1 #
coedge $-1 $261 $104 $262 $263 forward $65 $-1 #
coedge $-1 $104 $261 $264 $265 forward $65 $-1 #
coedge $-1 $266 $267 $104 $165 reversed $268 $-1 #
edge $-1 $269 -4.7147320189072479 $270 4.7147320189072479 $164 $271 forward 7 unknown #
loop $-1 $272 $273 $105 #
cone-surface $-1 0 0 0 0 0 1 0.75 0 0 1 I I -0.70710678118654757 0.70710678118654757 0.75 forward I I I I #
coedge $-1 $168 $168 $109 $170 forward $106 $-1 #
coedge $-1 $169 $169 $273 $274 forward $108 $-1 #
edge $-1 $275 0 $275 6.2831853071796004 $168 $276 forward 7 unknown #
face $-1 $277 $278 $38 $-1 $279 reversed single #
loop $-1 $-1 $280 $110 #
plane-surface $-1 0 -3.2581424748237606 0 0 1 0 0 0 1 forward_v I I I I #
coedge $-1 $281 $282 $283 $284 forward $111 $-1 #
coedge $-1 $285 $113 $286 $287 forward $71 $-1 #
coedge $-1 $113 $285 $288 $289 forward $71 $-1 #
coedge $-1 $290 $291 $113 $178 reversed $292 $-1 #
edge $-1 $293 -3.2581424748237606 $294 3.2581424748237606 $177 $295 forward 7 unknown #
loop $-1 $296 $297 $114 #
cone-surface $-1 0 0 0 0 0 1 0.75 0 0 1 I I -0.70710678118654757 0.70710678118654757 0.75 forward I I I I #
coedge $-1 $181 $181 $118 $183 forward $115 $-1 #
coedge $-1 $182 $182 $297 $298 forward $117 $-1 #
edge $-1 $299 0 $299 6.2831853071796004 $181 $300 forward 7 unknown #
face $-1 $301 $302 $40 $-1 $303 reversed single #
loop $-1 $-1 $304 $119 #
plane-surface $-1 0 -3.2581424748237606 0 0 1 0 0 0 1 forward_v I I I I #
coedge $-1 $305 $306 $307 $308 forward $120 $-1 #
coedge $-1 $309 $122 $310 $311 forward $77 $-1 #
coedge $-1 $122 $309 $312 $313 forward $77 $-1 #
coedge $-1 $314 $315 $122 $191 reversed $316 $-1 #
edge $-1 $317 -3.2581424748237606 $318 3.2581424748237606 $190 $319 forward 7 unknown #
loop $-1 $320 $321 $123 #
cone-surface $-1 0 0 0 0 0 1 0.75 0 0 1 I I -0.70710678118654757 0.70710678118654757 0.75 forward I I I I #
coedge $-1 $194 $194 $127 $196 forward $124 $-1 #
coedge $-1 $195 $195 $321 $322 forward $126 $-1 #
edge $-1 $323 0 $323 6.2831853071796004 $194 $324 forward 7 unknown #
face $-1 $325 $326 $42 $-1 $327 reversed single #
loop $-1 $-1 $328 $128 #
plane-surface $-1 0 -3.2581424748237606 0 0 1 0 0 0 1 forward_v I I I I #
coedge $-1 $329 $330 $331 $332 forward $129 $-1 #
coedge $-1 $333 $131 $334 $335 forward $83 $-1 #
coedge $-1 $131 $333 $336 $337 forward $83 $-1 #
coedge $-1 $338 $339 $131 $204 reversed $340 $-1 #
edge $-1 $341 -3.2581424748237606 $342 3.2581424748237606 $203 $343 forward 7 unknown #
loop $-1 $344 $345 $132 #
cone-surface $-1 0 0 0 0 0 1 0.75 0 0 1 I I -0.70710678118654757 0.70710678118654757 0.75 forward I I I I #
coedge $-1 $207 $207 $136 $209 forward $133 $-1 #
coedge $-1 $208 $208 $345 $346 forward $135 $-1 #
edge $-1 $347 0 $347 6.2831853071796004 $207 $348 forward 7 unknown #
face $-1 $349 $350 $33 $-1 $351 reversed single #
loop $-1 $-1 $352 $137 #
plane-surface $-1 -41.632129886776333 0 0 1 0 0 0 0 -1 forward_v I I I I #
coedge $-1 $353 $221 $354 $355 forward $138 $-1 #
coedge $-1 $356 $140 $353 $357 forward $89 $-1 #
coedge $-1 $140 $356 $358 $359 forward $89 $-1 #
coedge $-1 $224 $223 $140 $217 reversed $225 $-1 #
edge $-1 $360 -18.950134404989178 $361 18.950134404989178 $216 $362 forward 7 unknown #
coedge $-1 $142 $141 $363 $364 forward $56 $-1 #
coedge $-1 $365 $366 $141 $220 reversed $350 $-1 #
edge $-1 $227 -41.632129886776333 $367 41.632129886776333 $219 $368 forward 7 unknown #
coedge $-1 $213 $369 $142 $222 reversed $138 $-1 #
edge $-1 $370 -41.632129886776333 $226 41.632129886776333 $221 $371 forward 7 unknown #
coedge $-1 $216 $143 $369 $372 forward $225 $-1 #
coedge $-1 $143 $216 $365 $373 reversed $225 $-1 #
loop $-1 $-1 $223 $349 #
vertex $-1 $144 $374 #
vertex $-1 $144 $375 #
straight-curve $-1 41.632129886776333 0 7.4227480410521292 0 1 0 I I #
face $-1 $376 $377 $34 $-1 $378 reversed single #
loop $-1 $-1 $379 $145 #
plane-surface $-1 -166.52851954710533 0 0 1 0 0 0 0 -1 forward_v I I I I #
coedge $-1 $380 $240 $381 $382 forward $146 $-1 #
coedge $-1 $383 $148 $380 $384 forward $93 $-1 #
coedge $-1 $148 $383 $385 $386 forward $93 $-1 #
coedge $-1 $243 $242 $148 $236 reversed $244 $-1 #
edge $-1 $387 -4.7147320189072479 $388 4.7147320189072479 $235 $389 forward 7 unknown #
coedge $-1 $150 $149 $390 $391 forward $59 $-1 #
coedge $-1 $392 $393 $149 $239 reversed $377 $-1 #
edge $-1 $246 -166.52851954710533 $394 166.52851954710533 $238 $395 forward 7 unknown #
coedge $-1 $232 $396 $150 $241 reversed $146 $-1 #
edge $-1 $397 -166.52851954710533 $245 166.52851954710533 $240 $398 forward 7 unknown #
coedge $-1 $235 $151 $396 $399 forward $244 $-1 #
coedge $-1 $151 $235 $392 $400 reversed $244 $-1 #
loop $-1 $-1 $242 $376 #
vertex $-1 $152 $401 #
vertex $-1 $152 $402 #
straight-curve $-1 166.52851954710533 0 83.264259773552666 0 1 0 I I #
loop $-1 $-1 $403 $96 #
coedge $-1 $249 $249 $156 $250 reversed $153 $-1 #
edge $-1 $404 0 $404 6.2831853071796004 $249 $405 forward 7 unknown #
vertex $-1 $157 $406 #
ellipse-curve $-1 0 0 -3.906788842432936 0 0 -1 1.5 0 0 1 I I #
face $-1 $407 $408 $36 $-1 $409 reversed single #
loop $-1 $-1 $410 $158 #
plane-surface $-1 -166.52851954710533 0 0 1 0 0 0 0 -1 forward_v I I I I #
coedge $-1 $411 $264 $412 $413 forward $159 $-1 #
coedge $-1 $414 $161 $411 $415 forward $102 $-1 #
coedge $-1 $161 $414 $416 $417 forward $102 $-1 #
coedge $-1 $267 $266 $161 $260 reversed $268 $-1 #
edge $-1 $418 -4.7147320189072479 $419 4.7147320189072479 $259 $420 forward 7 unknown #
coedge $-1 $163 $162 $421 $422 forward $65 $-1 #
coedge $-1 $423 $424 $162 $263 reversed $408 $-1 #
edge $-1 $270 -166.52851954710533 $425 166.52851954710533 $262 $426 forward 7 unknown #
coedge $-1 $256 $427 $163 $265 reversed $159 $-1 #
edge $-1 $428 -166.52851954710533 $269 166.52851954710533 $264 $429 forward 7 unknown #
coedge $-1 $259 $164 $427 $430 forward $268 $-1 #
coedge $-1 $164 $259 $423 $431 reversed $268 $-1 #
loop $-1 $-1 $266 $407 #
vertex $-1 $165 $432 #
vertex $-1 $165 $433 #
straight-curve $-1 166.52851954710533 0 83.264259773552666 0 1 0 I I #
loop $-1 $-1 $434 $105 #
coedge $-1 $273 $273 $169 $274 reversed $166 $-1 #
edge $-1 $435 0 $435 6.2831853071796004 $273 $436 forward 7 unknown #
vertex $-1 $170 $437 #
ellipse-curve $-1 0 0 -3.906788842432936 0 0 -1 1.5 0 0 1 I I #
face $-1 $438 $439 $38 $-1 $440 reversed single #
loop $-1 $-1 $441 $171 #
plane-surface $-1 -166.52851954710533 0 0 1 0 0 0 0 -1 forward_v I I I I #
coedge $-1 $442 $288 $443 $444 forward $172 $-1 #
coedge $-1 $445 $174 $442 $446 forward $111 $-1 #
coedge $-1 $174 $445 $447 $448 forward $111 $-1 #
coedge $-1 $291 $290 $174 $284 reversed $292 $-1 #
edge $-1 $449 -3.2581424748237606 $450 3.2581424748237606 $283 $451 forward 7 unknown #
coedge $-1 $176 $175 $452 $453 forward $71 $-1 #
coedge $-1 $454 $455 $175 $287 reversed $439 $-1 #
edge $-1 $294 -166.52851954710533 $456 166.52851954710533 $286 $457 forward 7 unknown #
coedge $-1 $280 $458 $176 $289 reversed $172 $-1 #
edge $-1 $459 -166.52851954710533 $293 166.52851954710533 $288 $460 forward 7 unknown #
coedge $-1 $283 $177 $458 $461 forward $292 $-1 #
coedge $-1 $177 $283 $454 $462 reversed $292 $-1 #
loop $-1 $-1 $290 $438 #
vertex $-1 $178 $463 #
vertex $-1 $178 $464 #
straight-curve $-1 166.52851954710533 0 83.264259773552666 0 1 0 I I #
loop $-1 $-1 $465 $114 #
coedge $-1 $297 $297 $182 $298 reversed $179 $-1 #
edge $-1 $466 0 $466 6.2831853071796004 $297 $467 forward 7 unknown #
vertex $-1 $183 $468 #
ellipse-curve $-1 0 0 -4.4178060243537693 0 0 -1 1.5 0 0 1 I I #
face $-1 $469 $470 $40 $-1 $471 reversed single #
loop $-1 $-1 $472 $184 #
plane-surface $-1 -166.52851954710533 0 0 1 0 0 0 0 -1 forward_v I I I I #
coedge $-1 $473 $312 $474 $475 forward $185 $-1 #
coedge $-1 $476 $187 $473 $477 forward $120 $-1 #
coedge $-1 $187 $476 $478 $479 forward $120 $-1 #
coedge $-1 $315 $314 $187 $308 reversed $316 $-1 #
edge $-1 $480 -3.2581424748237606 $481 3.2581424748237606 $307 $482 forward 7 unknown #
coedge $-1 $189 $188 $483 $484 forward $77 $-1 #
coedge $-1 $485 $486 $188 $311 reversed $470 $-1 #
edge $-1 $318 -166.52851954710533 $487 166.52851954710533 $310 $488 forward 7 unknown #
coedge $-1 $304 $489 $189 $313 reversed $185 $-1 #
edge $-1 $490 -166.52851954710533 $317 166.52851954710533 $312 $491 forward 7 unknown #
coedge $-1 $307 $190 $489 $492 forward $316 $-1 #
coedge $-1 $190 $307 $485 $493 reversed $316 $-1 #
loop $-1 $-1 $314 $469 #
vertex $-1 $191 $494 #
vertex $-1 $191 $495 #
straight-curve $-1 166.52851954710533 0 83.264259773552666 0 1 0 I I #
loop $-1 $-1 $496 $123 #
coedge $-1 $321 $321 $195 $322 reversed $192 $-1 #
edge $-1 $497 0 $497 6.2831853071796004 $321 $498 forward 7 unknown #
vertex $-1 $196 $499 #
ellipse-curve $-1 0 0 -4.4178060243537693 0 0 -1 1.5 0 0 1 I I #
face $-1 $500 $501 $42 $-1 $502 reversed single #
loop $-1 $-1 $503 $197 #
plane-surface $-1 -166.52851954710533 0 0 1 0 0 0 0 -1 forward_v I I I I #
coedge $-1 $504 $336 $505 $506 forward $198 $-1 #
coedge $-1 $507 $200 $504 $508 forward $129 $-1 #
coedge $-1 $200 $507 $509 $510 forward $129 $-1 #
coedge $-1 $339 $338 $200 $332 reversed $340 $-1 #
edge $-1 $511 -3.2581424748237606 $512 3.2581424748237606 $331 $513 forward 7 unknown #
coedge $-1 $202 $201 $514 $515 forward $83 $-1 #
coedge $-1 $516 $517 $201 $335 reversed $501 $-1 #
edge $-1 $342 -166.52851954710533 $518 166.52851954710533 $334 $519 forward 7 unknown #
coedge $-1 $328 $520 $202 $337 reversed $198 $-1 #
edge $-1 $521 -166.52851954710533 $341 166.52851954710533 $336 $522 forward 7 unknown #
coedge $-1 $331 $203 $520 $523 forward $340 $-1 #
coedge $-1 $203 $331 $516 $524 reversed $340 $-1 #
loop $-1 $-1 $338 $500 #
vertex $-1 $204 $525 #
vertex $-1 $204 $526 #
straight-curve $-1 166.52851954710533 0 83.264259773552666 0 1 0 I I #
loop $-1 $-1 $527 $132 #
coedge $-1 $345 $345 $208 $346 reversed $205 $-1 #
edge $-1 $528 0 $528 6.2831853071796004 $345 $529 forward 7 unknown #
vertex $-1 $209 $530 #
ellipse-curve $-1 0 0 -4.4178060243537693 0 0 -1 1.5 0 0 1 I I #
face $-1 $-1 $225 $33 $-1 $531 reversed single #
loop $-1 $-1 $365 $210 #
plane-surface $-1 0 18.950134404989178 0 0 -1 0 0 0 -1 forward_v I I I I #
coedge $-1 $532 $363 $366 $533 forward $211 $-1 #
coedge $-1 $369 $213 $214 $357 reversed $138 $-1 #
coedge $-1 $363 $532 $213 $355 reversed $211 $-1 #
edge $-1 $370 -7.4227480410521292 $534 7.4227480410521292 $354 $535 forward 7 unknown #
coedge $-1 $215 $214 $532 $536 forward $89 $-1 #
edge $-1 $361 -41.632129886776333 $534 41.632129886776333 $353 $537 forward 7 unknown #
coedge $-1 $366 $365 $215 $359 reversed $350 $-1 #
edge $-1 $538 -41.632129886776333 $360 41.632129886776333 $358 $539 forward 7 unknown #
vertex $-1 $217 $540 #
vertex $-1 $372 $541 #
straight-curve $-1 41.632129886776333 0 -7.4227480410521292 0 -1 0 I I #
coedge $-1 $352 $354 $218 $364 reversed $211 $-1 #
edge $-1 $367 -18.950134404989178 $370 18.950134404989178 $363 $542 forward 7 unknown #
coedge $-1 $358 $219 $224 $373 forward $350 $-1 #
coedge $-1 $219 $358 $352 $533 reversed $350 $-1 #
vertex $-1 $220 $543 #
straight-curve $-1 0 18.950134404989178 7.4227480410521292 -1 0 0 I I #
coedge $-1 $221 $353 $223 $372 reversed $138 $-1 #
vertex $-1 $364 $544 #
straight-curve $-1 0 -18.950134404989178 7.4227480410521292 1 0 0 I I #
edge $-1 $226 -7.4227480410521292 $361 7.4227480410521292 $223 $545 forward 7 unknown #
edge $-1 $227 -7.4227480410521292 $360 7.4227480410521292 $224 $546 forward 7 unknown #
point $-1 41.632129886776333 -18.950134404989178 7.4227480410521292 #
point $-1 41.632129886776333 18.950134404989178 7.4227480410521292 #
face $-1 $-1 $244 $34 $-1 $547 reversed single #
loop $-1 $-1 $392 $229 #
plane-surface $-1 0 4.7147320189072479 0 0 -1 0 0 0 -1 forward_v I I I I #
coedge $-1 $548 $390 $393 $549 forward $230 $-1 #
coedge $-1 $396 $232 $233 $384 reversed $146 $-1 #
coedge $-1 $390 $548 $232 $382 reversed $230 $-1 #
edge $-1 $397 -83.264259773552666 $550 83.264259773552666 $381 $551 forward 7 unknown #
coedge $-1 $234 $233 $548 $552 forward $93 $-1 #
edge $-1 $388 -166.52851954710533 $550 166.52851954710533 $380 $553 forward 7 unknown #
coedge $-1 $393 $392 $234 $386 reversed $377 $-1 #
edge $-1 $554 -166.52851954710533 $387 166.52851954710533 $385 $555 forward 7 unknown #
vertex $-1 $236 $556 #
vertex $-1 $399 $557 #
straight-curve $-1 166.52851954710533 0 -83.264259773552666 0 -1 0 I I #
coedge $-1 $379 $381 $237 $391 reversed $230 $-1 #
edge $-1 $394 -4.7147320189072479 $397 4.7147320189072479 $390 $558 forward 7 unknown #
coedge $-1 $385 $238 $243 $400 forward $377 $-1 #
coedge $-1 $238 $385 $379 $549 reversed $377 $-1 #
vertex $-1 $239 $559 #
straight-curve $-1 0 4.7147320189072479 83.264259773552666 -1 0 0 I I #
coedge $-1 $240 $380 $242 $399 reversed $146 $-1 #
vertex $-1 $391 $560 #
straight-curve $-1 0 -4.7147320189072479 83.264259773552666 1 0 0 I I #
edge $-1 $245 -83.264259773552666 $388 83.264259773552666 $242 $561 forward 7 unknown #
edge $-1 $246 -83.264259773552666 $387 83.264259773552666 $243 $562 forward 7 unknown #
point $-1 166.52851954710533 -4.7147320189072479 83.264259773552666 #
point $-1 166.52851954710533 4.7147320189072479 83.264259773552666 #
coedge $-1 $403 $403 $-1 $563 reversed $248 $-1 #
vertex $-1 $250 $564 #
ellipse-curve $-1 0 0 -0.75 0 0 -1 1.5 0 0 1 I I #
point $-1 1.5 0 -3.906788842432936 #
face $-1 $-1 $268 $36 $-1 $565 reversed single #
loop $-1 $-1 $423 $253 #
plane-surface $-1 0 4.7147320189072479 0 0 -1 0 0 0 -1 forward_v I I I I #
coedge $-1 $566 $421 $424 $567 forward $254 $-1 #
coedge $-1 $427 $256 $257 $415 reversed $159 $-1 #
coedge $-1 $421 $566 $256 $413 reversed $254 $-1 #
edge $-1 $428 -83.264259773552666 $568 83.264259773552666 $412 $569 forward 7 unknown #
coedge $-1 $258 $257 $566 $570 forward $102 $-1 #
edge $-1 $419 -166.52851954710533 $568 166.52851954710533 $411 $571 forward 7 unknown #
coedge $-1 $424 $423 $258 $417 reversed $408 $-1 #
edge $-1 $572 -166.52851954710533 $418 166.52851954710533 $416 $573 forward 7 unknown #
vertex $-1 $260 $574 #
vertex $-1 $430 $575 #
straight-curve $-1 166.52851954710533 0 -83.264259773552666 0 -1 0 I I #
coedge $-1 $410 $412 $261 $422 reversed $254 $-1 #
edge $-1 $425 -4.7147320189072479 $428 4.7147320189072479 $421 $576 forward 7 unknown #
coedge $-1 $416 $262 $267 $431 forward $408 $-1 #
coedge $-1 $262 $416 $410 $567 reversed $408 $-1 #
vertex $-1 $263 $577 #
straight-curve $-1 0 4.7147320189072479 83.264259773552666 -1 0 0 I I #
coedge $-1 $264 $411 $266 $430 reversed $159 $-1 #
vertex $-1 $422 $578 #
straight-curve $-1 0 -4.7147320189072479 83.264259773552666 1 0 0 I I #
edge $-1 $269 -83.264259773552666 $419 83.264259773552666 $266 $579 forward 7 unknown #
edge $-1 $270 -83.264259773552666 $418 83.264259773552666 $267 $580 forward 7 unknown #
point $-1 166.52851954710533 -4.7147320189072479 83.264259773552666 #
point $-1 166.52851954710533 4.7147320189072479 83.264259773552666 #
coedge $-1 $434 $434 $-1 $581 reversed $272 $-1 #
vertex $-1 $274 $582 #
ellipse-curve $-1 0 0 -0.75 0 0 -1 1.5 0 0 1 I I #
point $-1 1.5 0 -3.906788842432936 #
face $-1 $-1 $292 $38 $-1 $583 reversed single #
loop $-1 $-1 $454 $277 #
plane-surface $-1 0 3.2581424748237606 0 0 -1 0 0 0 -1 forward_v I I I I #
coedge $-1 $584 $452 $455 $585 forward $278 $-1 #
coedge $-1 $458 $280 $281 $446 reversed $172 $-1 #
coedge $-1 $452 $584 $280 $444 reversed $278 $-1 #
edge $-1 $459 -83.264259773552666 $586 83.264259773552666 $443 $587 forward 7 unknown #
coedge $-1 $282 $281 $584 $588 forward $111 $-1 #
edge $-1 $450 -166.52851954710533 $586 166.52851954710533 $442 $589 forward 7 unknown #
coedge $-1 $455 $454 $282 $448 reversed $439 $-1 #
edge $-1 $590 -166.52851954710533 $449 166.52851954710533 $447 $591 forward 7 unknown #
vertex $-1 $284 $592 #
vertex $-1 $461 $593 #
straight-curve $-1 166.52851954710533 0 -83.264259773552666 0 -1 0 I I #
coedge $-1 $441 $443 $285 $453 reversed $278 $-1 #
edge $-1 $456 -3.2581424748237606 $459 3.2581424748237606 $452 $594 forward 7 unknown #
coedge $-1 $447 $286 $291 $462 forward $439 $-1 #
coedge $-1 $286 $447 $441 $585 reversed $439 $-1 #
vertex $-1 $287 $595 #
straight-curve $-1 0 3.2581424748237606 83.264259773552666 -1 0 0 I I #
coedge $-1 $288 $442 $290 $461 reversed $172 $-1 #
vertex $-1 $453 $596 #
straight-curve $-1 0 -3.2581424748237606 83.264259773552666 1 0 0 I I #
edge $-1 $293 -83.264259773552666 $450 83.264259773552666 $290 $597 forward 7 unknown #
edge $-1 $294 -83.264259773552666 $449 83.264259773552666 $291 $598 forward 7 unknown #
point $-1 166.52851954710533 -3.2581424748237606 83.264259773552666 #
point $-1 166.52851954710533 3.2581424748237606 83.264259773552666 #
coedge $-1 $465 $465 $-1 $599 reversed $296 $-1 #
vertex $-1 $298 $600 #
ellipse-curve $-1 0 0 -0.75 0 0 -1 1.5 0 0 1 I I #
point $-1 1.5 0 -4.4178060243537693 #
face $-1 $-1 $316 $40 $-1 $601 reversed single #
loop $-1 $-1 $485 $301 #
plane-surface $-1 0 3.2581424748237606 0 0 -1 0 0 0 -1 forward_v I I I I #
coedge $-1 $602 $483 $486 $603 forward $302 $-1 #
coedge $-1 $489 $304 $305 $477 reversed $185 $-1 #
coedge $-1 $483 $602 $304 $475 reversed $302 $-1 #
edge $-1 $490 -83.264259773552666 $604 83.264259773552666 $474 $605 forward 7 unknown #
coedge $-1 $306 $305 $602 $606 forward $120 $-1 #
edge $-1 $481 -166.52851954710533 $604 166.52851954710533 $473 $607 forward 7 unknown #
coedge $-1 $486 $485 $306 $479 reversed $470 $-1 #
edge $-1 $608 -166.52851954710533 $480 166.52851954710533 $478 $609 forward 7 unknown #
vertex $-1 $308 $610 #
vertex $-1 $492 $611 #
straight-curve $-1 166.52851954710533 0 -83.264259773552666 0 -1 0 I I #
coedge $-1 $472 $474 $309 $484 reversed $302 $-1 #
edge $-1 $487 -3.2581424748237606 $490 3.2581424748237606 $483 $612 forward 7 unknown #
coedge $-1 $478 $310 $315 $493 forward $470 $-1 #
coedge $-1 $310 $478 $472 $603 reversed $470 $-1 #
vertex $-1 $311 $613 #
straight-curve $-1 0 3.2581424748237606 83.264259773552666 -1 0 0 I I #
coedge $-1 $312 $473 $314 $492 reversed $185 $-1 #
vertex $-1 $484 $614 #
straight-curve $-1 0 -3.2581424748237606 83.264259773552666 1 0 0 I I #
edge $-1 $317 -83.264259773552666 $481 83.264259773552666 $314 $615 forward 7 unknown #
edge $-1 $318 -83.264259773552666 $480 83.264259773552666 $315 $616 forward 7 unknown #
point $-1 166.52851954710533 -3.2581424748237606 83.264259773552666 #
point $-1 166.52851954710533 3.2581424748237606 83.264259773552666 #
coedge $-1 $496 $496 $-1 $617 reversed $320 $-1 #
vertex $-1 $322 $618 #
ellipse-curve $-1 0 0 -0.75 0 0 -1 1.5 0 0 1 I I #
point $-1 1.5 0 -4.4178060243537693 #
face $-1 $-1 $340 $42 $-1 $619 reversed single #
loop $-1 $-1 $516 $325 #
plane-surface $-1 0 3.2581424748237606 0 0 -1 0 0 0 -1 forward_v I I I I #
coedge $-1 $620 $514 $517 $621 forward $326 $-1 #
coedge $-1 $520 $328 $329 $508 reversed $198 $-1 #
coedge $-1 $514 $620 $328 $506 reversed $326 $-1 #
edge $-1 $521 -83.264259773552666 $622 83.264259773552666 $505 $623 forward 7 unknown #
coedge $-1 $330 $329 $620 $624 forward $129 $-1 #
edge $-1 $512 -166.52851954710533 $622 166.52851954710533 $504 $625 forward 7 unknown #
coedge $-1 $517 $516 $330 $510 reversed $501 $-1 #
edge $-1 $626 -166.52851954710533 $511 166.52851954710533 $509 $627 forward 7 unknown #
vertex $-1 $332 $628 #
vertex $-1 $523 $629 #
straight-curve $-1 166.52851954710533 0 -83.264259773552666 0 -1 0 I I #
coedge $-1 $503 $505 $333 $515 reversed $326 $-1 #
edge $-1 $518 -3.2581424748237606 $521 3.2581424748237606 $514 $630 forward 7 unknown #
coedge $-1 $509 $334 $339 $524 forward $501 $-1 #
coedge $-1 $334 $509 $503 $621 reversed $501 $-1 #
vertex $-1 $335 $631 #
straight-curve $-1 0 3.2581424748237606 83.264259773552666 -1 0 0 I I #
coedge $-1 $336 $504 $338 $523 reversed $198 $-1 #
vertex $-1 $515 $632 #
straight-curve $-1 0 -3.2581424748237606 83.264259773552666 1 0 0 I I #
edge $-1 $341 -83.264259773552666 $512 83.264259773552666 $338 $633 forward 7 unknown #
edge $-1 $342 -83.264259773552666 $511 83.264259773552666 $339 $634 forward 7 unknown #
point $-1 166.52851954710533 -3.2581424748237606 83.264259773552666 #
point $-1 166.52851954710533 3.2581424748237606 83.264259773552666 #
coedge $-1 $527 $527 $-1 $635 reversed $344 $-1 #
vertex $-1 $346 $636 #
ellipse-curve $-1 0 0 -0.75 0 0 -1 1.5 0 0 1 I I #
point $-1 1.5 0 -4.4178060243537693 #
plane-surface $-1 41.632129886776333 0 0 -1 0 0 0 0 1 forward_v I I I I #
coedge $-1 $354 $352 $356 $536 reversed $211 $-1 #
edge $-1 $367 -7.4227480410521292 $538 7.4227480410521292 $366 $637 forward 7 unknown #
vertex $-1 $536 $638 #
straight-curve $-1 -41.632129886776333 -18.950134404989178 0 0 0 -1 I I #
edge $-1 $534 -18.950134404989178 $538 18.950134404989178 $532 $639 forward 7 unknown #
straight-curve $-1 0 -18.950134404989178 -7.4227480410521292 -1 0 0 I I #
vertex $-1 $359 $640 #
straight-curve $-1 0 18.950134404989178 -7.4227480410521292 1 0 0 I I #
point $-1 41.632129886776333 18.950134404989178 -7.4227480410521292 #
point $-1 41.632129886776333 -18.950134404989178 -7.4227480410521292 #
straight-curve $-1 -41.632129886776333 0 7.4227480410521292 0 -1 0 I I #
point $-1 -41.632129886776333 18.950134404989178 7.4227480410521292 #
point $-1 -41.632129886776333 -18.950134404989178 7.4227480410521292 #
straight-curve $-1 41.632129886776333 -18.950134404989178 0 0 0 -1 I I #
straight-curve $-1 41.632129886776333 18.950134404989178 0 0 0 -1 I I #
plane-surface $-1 166.52851954710533 0 0 -1 0 0 0 0 1 forward_v I I I I #
coedge $-1 $381 $379 $383 $552 reversed $230 $-1 #
edge $-1 $394 -83.264259773552666 $554 83.264259773552666 $393 $641 forward 7 unknown #
vertex $-1 $552 $642 #
straight-curve $-1 -166.52851954710533 -4.7147320189072479 0 0 0 -1 I I #
edge $-1 $550 -4.7147320189072479 $554 4.7147320189072479 $548 $643 forward 7 unknown #
straight-curve $-1 0 -4.7147320189072479 -83.264259773552666 -1 0 0 I I #
vertex $-1 $386 $644 #
straight-curve $-1 0 4.7147320189072479 -83.264259773552666 1 0 0 I I #
point $-1 166.52851954710533 4.7147320189072479 -83.264259773552666 #
point $-1 166.52851954710533 -4.7147320189072479 -83.264259773552666 #
straight-curve $-1 -166.52851954710533 0 83.264259773552666 0 -1 0 I I #
point $-1 -166.52851954710533 4.7147320189072479 83.264259773552666 #
point $-1 -166.52851954710533 -4.7147320189072479 83.264259773552666 #
straight-curve $-1 166.52851954710533 -4.7147320189072479 0 0 0 -1 I I #
straight-curve $-1 166.52851954710533 4.7147320189072479 0 0 0 -1 I I #
edge $-1 $645 1 $645 0 $403 $-1 forward 7 unknown #
point $-1 1.5 0 -0.75 #
plane-surface $-1 166.52851954710533 0 0 -1 0 0 0 0 1 forward_v I I I I #
coedge $-1 $412 $410 $414 $570 reversed $254 $-1 #
edge $-1 $425 -83.264259773552666 $572 83.264259773552666 $424 $646 forward 7 unknown #
vertex $-1 $570 $647 #
straight-curve $-1 -166.52851954710533 -4.7147320189072479 0 0 0 -1 I I #
edge $-1 $568 -4.7147320189072479 $572 4.7147320189072479 $566 $648 forward 7 unknown #
straight-curve $-1 0 -4.7147320189072479 -83.264259773552666 -1 0 0 I I #
vertex $-1 $417 $649 #
straight-curve $-1 0 4.7147320189072479 -83.264259773552666 1 0 0 I I #
point $-1 166.52851954710533 4.7147320189072479 -83.264259773552666 #
point $-1 166.52851954710533 -4.7147320189072479 -83.264259773552666 #
straight-curve $-1 -166.52851954710533 0 83.264259773552666 0 -1 0 I I #
point $-1 -166.52851954710533 4.7147320189072479 83.264259773552666 #
point $-1 -166.52851954710533 -4.7147320189072479 83.264259773552666 #
straight-curve $-1 166.52851954710533 -4.7147320189072479 0 0 0 -1 I I #
straight-curve $-1 166.52851954710533 4.7147320189072479 0 0 0 -1 I I #
edge $-1 $650 1 $650 0 $434 $-1 forward 7 unknown #
point $-1 1.5 0 -0.75 #
plane-surface $-1 166.52851954710533 0 0 -1 0 0 0 0 1 forward_v I I I I #
coedge $-1 $443 $441 $445 $588 reversed $278 $-1 #
edge $-1 $456 -83.264259773552666 $590 83.264259773552666 $455 $651 forward 7 unknown #
vertex $-1 $588 $652 #
straight-curve $-1 -166.52851954710533 -3.2581424748237606 0 0 0 -1 I I #
edge $-1 $586 -3.2581424748237606 $590 3.2581424748237606 $584 $653 forward 7 unknown #
straight-curve $-1 0 -3.2581424748237606 -83.264259773552666 -1 0 0 I I #
vertex $-1 $448 $654 #
straight-curve $-1 0 3.2581424748237606 -83.264259773552666 1 0 0 I I #
point $-1 166.52851954710533 3.2581424748237606 -83.264259773552666 #
point $-1 166.52851954710533 -3.2581424748237606 -83.264259773552666 #
straight-curve $-1 -166.52851954710533 0 83.264259773552666 0 -1 0 I I #
point $-1 -166.52851954710533 3.2581424748237606 83.264259773552666 #
point $-1 -166.52851954710533 -3.2581424748237606 83.264259773552666 #
straight-curve $-1 166.52851954710533 -3.2581424748237606 0 0 0 -1 I I #
straight-curve $-1 166.52851954710533 3.2581424748237606 0 0 0 -1 I I #
edge $-1 $655 1 $655 0 $465 $-1 forward 7 unknown #
point $-1 1.5 0 -0.75 #
plane-surface $-1 166.52851954710533 0 0 -1 0 0 0 0 1 forward_v I I I I #
coedge $-1 $474 $472 $476 $606 reversed $302 $-1 #
edge $-1 $487 -83.264259773552666 $608 83.264259773552666 $486 $656 forward 7 unknown #
vertex $-1 $606 $657 #
straight-curve $-1 -166.52851954710533 -3.2581424748237606 0 0 0 -1 I I #
edge $-1 $604 -3.2581424748237606 $608 3.2581424748237606 $602 $658 forward 7 unknown #
straight-curve $-1 0 -3.2581424748237606 -83.264259773552666 -1 0 0 I I #
vertex $-1 $479 $659 #
straight-curve $-1 0 3.2581424748237606 -83.264259773552666 1 0 0 I I #
point $-1 166.52851954710533 3.2581424748237606 -83.264259773552666 #
point $-1 166.52851954710533 -3.2581424748237606 -83.264259773552666 #
straight-curve $-1 -166.52851954710533 0 83.264259773552666 0 -1 0 I I #
point $-1 -166.52851954710533 3.2581424748237606 83.264259773552666 #
point $-1 -166.52851954710533 -3.2581424748237606 83.264259773552666 #
straight-curve $-1 166.52851954710533 -3.2581424748237606 0 0 0 -1 I I #
straight-curve $-1 166.52851954710533 3.2581424748237606 0 0 0 -1 I I #
edge $-1 $660 1 $660 0 $496 $-1 forward 7 unknown #
point $-1 1.5 0 -0.75 #
plane-surface $-1 166.52851954710533 0 0 -1 0 0 0 0 1 forward_v I I I I #
coedge $-1 $505 $503 $507 $624 reversed $326 $-1 #
edge $-1 $518 -83.264259773552666 $626 83.264259773552666 $517 $661 forward 7 unknown #
vertex $-1 $624 $662 #
straight-curve $-1 -166.52851954710533 -3.2581424748237606 0 0 0 -1 I I #
edge $-1 $622 -3.2581424748237606 $626 3.2581424748237606 $620 $663 forward 7 unknown #
straight-curve $-1 0 -3.2581424748237606 -83.264259773552666 -1 0 0 I I #
vertex $-1 $510 $664 #
straight-curve $-1 0 3.2581424748237606 -83.264259773552666 1 0 0 I I #
point $-1 166.52851954710533 3.2581424748237606 -83.264259773552666 #
point $-1 166.52851954710533 -3.2581424748237606 -83.264259773552666 #
straight-curve $-1 -166.52851954710533 0 83.264259773552666 0 -1 0 I I #
point $-1 -166.52851954710533 3.2581424748237606 83.264259773552666 #
point $-1 -166.52851954710533 -3.2581424748237606 83.264259773552666 #
straight-curve $-1 166.52851954710533 -3.2581424748237606 0 0 0 -1 I I #
straight-curve $-1 166.52851954710533 3.2581424748237606 0 0 0 -1 I I #
edge $-1 $665 1 $665 0 $527 $-1 forward 7 unknown #
point $-1 1.5 0 -0.75 #
straight-curve $-1 -41.632129886776333 18.950134404989178 0 0 0 -1 I I #
point $-1 -41.632129886776333 -18.950134404989178 -7.4227480410521292 #
straight-curve $-1 -41.632129886776333 0 -7.4227480410521292 0 1 0 I I #
point $-1 -41.632129886776333 18.950134404989178 -7.4227480410521292 #
straight-curve $-1 -166.52851954710533 4.7147320189072479 0 0 0 -1 I I #
point $-1 -166.52851954710533 -4.7147320189072479 -83.264259773552666 #
straight-curve $-1 -166.52851954710533 0 -83.264259773552666 0 1 0 I I #
point $-1 -166.52851954710533 4.7147320189072479 -83.264259773552666 #
vertex $-1 $563 $666 #
straight-curve $-1 -166.52851954710533 4.7147320189072479 0 0 0 -1 I I #
point $-1 -166.52851954710533 -4.7147320189072479 -83.264259773552666 #
straight-curve $-1 -166.52851954710533 0 -83.264259773552666 0 1 0 I I #
point $-1 -166.52851954710533 4.7147320189072479 -83.264259773552666 #
vertex $-1 $581 $667 #
straight-curve $-1 -166.52851954710533 3.2581424748237606 0 0 0 -1 I I #
point $-1 -166.52851954710533 -3.2581424748237606 -83.264259773552666 #
straight-curve $-1 -166.52851954710533 0 -83.264259773552666 0 1 0 I I #
point $-1 -166.52851954710533 3.2581424748237606 -83.264259773552666 #
vertex $-1 $599 $668 #
straight-curve $-1 -166.52851954710533 3.2581424748237606 0 0 0 -1 I I #
point $-1 -166.52851954710533 -3.2581424748237606 -83.264259773552666 #
straight-curve $-1 -166.52851954710533 0 -83.264259773552666 0 1 0 I I #
point $-1 -166.52851954710533 3.2581424748237606 -83.264259773552666 #
vertex $-1 $617 $669 #
straight-curve $-1 -166.52851954710533 3.2581424748237606 0 0 0 -1 I I #
point $-1 -166.52851954710533 -3.2581424748237606 -83.264259773552666 #
straight-curve $-1 -166.52851954710533 0 -83.264259773552666 0 1 0 I I #
point $-1 -166.52851954710533 3.2581424748237606 -83.264259773552666 #
vertex $-1 $635 $670 #
point $-1 0 0 0.75 #
point $-1 0 0 0.75 #
point $-1 0 0 0.75 #
point $-1 0 0 0.75 #
point $-1 0 0 0.75 #
End-of-ACIS-data 