500 0 5 0           
7 Unknown 11 ACIS 5.0 NT 24 Fri Mar 26 14:52:06 1999 
-1 9.9999999999999995e-007 1e-010 
body $-1 $5 $-1 $6 #
body $-1 $7 $-1 $8 #
body $-1 $9 $-1 $10 #
body $-1 $11 $-1 $12 #
body $-1 $13 $-1 $14 #
lump $-1 $-1 $15 $0 #
transform $-1 1 0 0 0 1 0 0 0 1 40.859401226844078 24.948588033874334 8.763413302819405 1 rotate no_reflect no_shear #
lump $-1 $-1 $16 $1 #
transform $-1 1 0 0 0 1 0 0 0 1 40.859401226844078 24.948588033874334 8.763413302819405 1 rotate no_reflect no_shear #
lump $-1 $-1 $17 $2 #
transform $-1 1 0 0 0 1 0 0 0 1 40.859401226844078 24.948588033874334 8.763413302819405 1 rotate no_reflect no_shear #
lump $-1 $-1 $18 $3 #
transform $-1 1 0 0 0 1 0 0 0 1 40.859401226844078 24.948588033874334 8.763413302819405 1 rotate no_reflect no_shear #
lump $-1 $-1 $19 $4 #
transform $-1 1 0 0 0 1 0 0 0 1 40.859401226844078 24.948588033874334 8.763413302819405 1 rotate no_reflect no_shear #
shell $-1 $-1 $-1 $20 $-1 $5 #
shell $-1 $-1 $-1 $21 $-1 $7 #
shell $-1 $-1 $-1 $22 $-1 $9 #
shell $-1 $-1 $-1 $23 $-1 $11 #
shell $-1 $-1 $-1 $24 $-1 $13 #
face $-1 $25 $26 $15 $-1 $27 forward single #
face $-1 $28 $29 $16 $-1 $30 forward single #
face $-1 $31 $32 $17 $-1 $33 forward single #
face $-1 $34 $35 $18 $-1 $36 reversed single #
face $-1 $37 $38 $19 $-1 $39 reversed single #
face $-1 $40 $41 $15 $-1 $42 reversed single #
loop $-1 $-1 $43 $20 #
plane-surface $-1 0 0 8.763413302819405 0 0 1 1 0 0 forward_v I I I I #
face $-1 $44 $45 $16 $-1 $46 forward single #
loop $-1 $-1 $47 $21 #
plane-surface $-1 0 -19.245402410616094 4.3746728134060966 0 0 1 1 0 0 forward_v I I I I #
face $-1 $48 $49 $17 $-1 $50 forward single #
loop $-1 $-1 $51 $22 #
plane-surface $-1 -9.7439988236235333 35.940196130273932 99.569498122172149 1 0 0 0 -0.61566148304635926 -0.78801074757464917 forward_v I I I I #
face $-1 $52 $53 $18 $-1 $54 reversed single #
loop $-1 $55 $56 $23 #
cone-surface $-1 -6.776286182949633 21.841960157309412 6.1622151297797565 0 -0.61566148304635926 -0.78801074757464917 1 0 0 1 I I 0 1 1 forward I I I I #
face $-1 $57 $58 $19 $-1 $59 reversed single #
loop $-1 $60 $61 $24 #
cone-surface $-1 -2.3247172219387835 21.841960157309412 6.1622151297797565 0 -0.61566148304635926 -0.78801074757464917 1 0 0 1 I I 0 1 1 forward I I I I #
face $-1 $62 $63 $15 $-1 $64 reversed single #
loop $-1 $-1 $65 $25 #
plane-surface $-1 0 0 -8.763413302819405 0 0 1 1 0 0 forward_v I I I I #
coedge $-1 $66 $67 $68 $69 forward $26 $-1 #
face $-1 $70 $71 $16 $-1 $72 forward single #
loop $-1 $-1 $73 $28 #
plane-surface $-1 0 -13.542216787357855 6.5690430581127508 0 -1 0 0 0 -1 forward_v I I I I #
coedge $-1 $74 $75 $76 $77 reversed $29 $-1 #
face $-1 $78 $79 $17 $-1 $80 forward single #
loop $-1 $-1 $81 $31 #
plane-surface $-1 -4.5505017024442083 -14.370922981136182 35.174203509736273 0 0.61566148304635926 0.78801074757464917 1 0 0 forward_v I I I I #
coedge $-1 $82 $83 $84 $85 reversed $32 $-1 #
face $-1 $86 $87 $18 $-1 $88 forward single #
loop $-1 $89 $90 $34 #
cone-surface $-1 -6.776286182949633 21.185122425595306 5.3215011883420793 0 -0.61566148304635926 -0.78801074757464917 0.5 0 0 1 I I -0.70710678118654746 0.70710678118654746 0.5 forward I I I I #
loop $-1 $-1 $91 $23 #
coedge $-1 $56 $56 $92 $93 reversed $35 $-1 #
face $-1 $94 $95 $19 $-1 $96 reversed single #
loop $-1 $97 $98 $37 #
cone-surface $-1 -2.3247172219387835 21.185122425595306 5.3215011883420793 0 -0.61566148304635926 -0.78801074757464917 0.5 0 0 1 I I -0.70710678118654746 0.70710678118654746 0.5 forward I I I I #
loop $-1 $-1 $99 $24 #
coedge $-1 $61 $61 $100 $101 reversed $38 $-1 #
face $-1 $102 $103 $15 $-1 $104 reversed single #
loop $-1 $-1 $105 $40 #
plane-surface $-1 0 -24.948588033874334 0 0 1 0 0 0 1 forward_v I I I I #
coedge $-1 $106 $107 $108 $109 forward $41 $-1 #
coedge $-1 $110 $43 $111 $112 forward $26 $-1 #
coedge $-1 $43 $110 $113 $114 forward $26 $-1 #
coedge $-1 $115 $116 $43 $69 reversed $117 $-1 #
edge $-1 $118 -24.948588033874334 $119 24.948588033874334 $68 $120 forward 7 unknown #
face $-1 $121 $122 $16 $-1 $123 reversed single #
loop $-1 $-1 $124 $44 #
plane-surface $-1 0 0 8.763413302819405 0 0 1 1 0 0 forward_v I I I I #
coedge $-1 $125 $126 $127 $128 reversed $45 $-1 #
coedge $-1 $129 $47 $126 $130 reversed $29 $-1 #
coedge $-1 $47 $129 $131 $132 reversed $29 $-1 #
coedge $-1 $133 $127 $47 $77 forward $122 $-1 #
edge $-1 $134 3.919515582049808 $135 15.325886828566286 $76 $136 forward 7 unknown #
face $-1 $137 $138 $17 $-1 $139 forward single #
loop $-1 $-1 $140 $48 #
plane-surface $-1 0.64299541873511679 35.940196130273932 99.569498122172149 -1 0 0 0 0.61566148304635926 0.78801074757464917 forward_v I I I I #
coedge $-1 $141 $142 $143 $144 reversed $49 $-1 #
coedge $-1 $83 $51 $142 $145 forward $32 $-1 #
coedge $-1 $51 $82 $146 $147 reversed $32 $-1 #
coedge $-1 $148 $143 $51 $85 forward $138 $-1 #
edge $-1 $149 1.4632481959893937 $150 6.9784899687373674 $84 $151 forward 7 unknown #
face $-1 $152 $153 $18 $-1 $154 forward single #
loop $-1 $-1 $155 $52 #
plane-surface $-1 -9.7439988236235333 35.940196130273932 99.569498122172149 1 0 0 0 -0.61566148304635926 -0.78801074757464917 forward_v I I I I #
loop $-1 $-1 $156 $34 #
coedge $-1 $90 $90 $91 $157 forward $53 $-1 #
coedge $-1 $91 $91 $90 $157 reversed $55 $-1 #
coedge $-1 $92 $92 $56 $93 forward $153 $-1 #
edge $-1 $158 -4.1583655000532949e-016 $158 6.2831853071796004 $92 $159 forward 7 unknown #
face $-1 $160 $161 $19 $-1 $162 reversed single #
loop $-1 $163 $164 $57 #
cone-surface $-1 -6.776286182949633 21.841960157309412 6.1622151297797565 0 -0.61566148304635926 -0.78801074757464917 1 0 0 1 I I 0 1 1 forward I I I I #
loop $-1 $-1 $165 $37 #
coedge $-1 $98 $98 $99 $166 forward $58 $-1 #
coedge $-1 $99 $99 $98 $166 reversed $60 $-1 #
coedge $-1 $100 $100 $61 $101 forward $167 $-1 #
edge $-1 $168 -4.1583655000532949e-016 $168 6.2831853071796004 $100 $169 forward 7 unknown #
face $-1 $170 $171 $15 $-1 $172 reversed single #
loop $-1 $-1 $173 $62 #
plane-surface $-1 -40.859401226844078 0 0 1 0 0 0 0 -1 forward_v I I I I #
coedge $-1 $174 $113 $175 $176 forward $63 $-1 #
coedge $-1 $177 $65 $174 $178 forward $41 $-1 #
coedge $-1 $65 $177 $179 $180 forward $41 $-1 #
coedge $-1 $116 $115 $65 $109 reversed $117 $-1 #
edge $-1 $181 -24.948588033874334 $182 24.948588033874334 $108 $183 forward 7 unknown #
coedge $-1 $67 $66 $184 $185 forward $26 $-1 #
coedge $-1 $186 $187 $66 $112 reversed $171 $-1 #
edge $-1 $119 -40.859401226844078 $188 40.859401226844078 $111 $189 forward 7 unknown #
coedge $-1 $105 $190 $67 $114 reversed $63 $-1 #
edge $-1 $191 -40.859401226844078 $118 40.859401226844078 $113 $192 forward 7 unknown #
coedge $-1 $108 $68 $190 $193 forward $117 $-1 #
coedge $-1 $68 $108 $186 $194 reversed $117 $-1 #
loop $-1 $-1 $115 $170 #
vertex $-1 $69 $195 #
vertex $-1 $69 $196 #
straight-curve $-1 40.859401226844078 0 8.763413302819405 0 1 0 I I #
face $-1 $197 $198 $16 $-1 $199 reversed single #
loop $-1 $-1 $127 $70 #
plane-surface $-1 40.859401226844078 0 0 -1 0 0 0 0 1 forward_v I I I I #
coedge $-1 $200 $201 $125 $202 forward $71 $-1 #
coedge $-1 $203 $73 $124 $202 reversed $45 $-1 #
coedge $-1 $73 $203 $74 $130 forward $45 $-1 #
coedge $-1 $76 $204 $73 $128 forward $122 $-1 #
edge $-1 $205 -5.4788917737630296 $134 -1.0901512843497212 $127 $206 forward 7 unknown #
coedge $-1 $75 $74 $207 $208 reversed $29 $-1 #
edge $-1 $209 -40.859401226844078 $134 40.859401226844078 $126 $210 forward 7 unknown #
coedge $-1 $211 $212 $75 $132 forward $213 $-1 #
edge $-1 $135 -40.859401226844078 $214 40.859401226844078 $131 $215 forward 7 unknown #
coedge $-1 $216 $76 $212 $217 forward $122 $-1 #
vertex $-1 $77 $218 #
vertex $-1 $217 $219 #
straight-curve $-1 40.859401226844078 -9.6227012053080472 4.3746728134060966 0 -1 0 I I #
face $-1 $220 $221 $17 $-1 $222 forward single #
loop $-1 $-1 $223 $78 #
plane-surface $-1 0 0 8.763413302819405 0 0 1 1 0 0 forward_v I I I I #
coedge $-1 $224 $225 $223 $226 reversed $79 $-1 #
coedge $-1 $227 $81 $225 $228 reversed $49 $-1 #
coedge $-1 $81 $227 $82 $145 reversed $49 $-1 #
coedge $-1 $84 $223 $81 $144 forward $138 $-1 #
edge $-1 $229 -2.9182462699572209 $149 7.4687479724014292 $143 $230 forward 7 unknown #
edge $-1 $149 42.898233744026726 $231 49.89717606774866 $82 $232 forward 7 unknown #
coedge $-1 $233 $234 $83 $147 forward $235 $-1 #
edge $-1 $150 41.021335758266673 $231 45.330314969045247 $146 $236 forward 7 unknown #
coedge $-1 $237 $84 $234 $238 forward $138 $-1 #
vertex $-1 $144 $239 #
vertex $-1 $238 $240 #
straight-curve $-1 -9.7439988236235333 17.970098065136966 8.7634133028194015 0 1 0 I I #
face $-1 $241 $242 $18 $-1 $243 forward single #
loop $-1 $244 $92 $86 #
plane-surface $-1 -4.5505017024442083 -14.370922981136182 35.174203509736273 0 0.61566148304635926 0.78801074757464917 1 0 0 forward_v I I I I #
coedge $-1 $245 $246 $247 $248 reversed $87 $-1 #
coedge $-1 $156 $156 $-1 $249 forward $89 $-1 #
edge $-1 $250 0 $250 6.2831853071796004 $90 $251 forward 7 unknown #
vertex $-1 $93 $252 #
ellipse-curve $-1 -6.776286182949633 22.190967147500348 6.6089236974301189 0 -0.61566148304635926 -0.78801074757464917 1 0 0 1 I I #
face $-1 $253 $254 $19 $-1 $255 forward single #
loop $-1 $256 $257 $94 #
cone-surface $-1 -6.776286182949633 21.185122425595306 5.3215011883420793 0 -0.61566148304635926 -0.78801074757464917 0.5 0 0 1 I I -0.70710678118654746 0.70710678118654746 0.5 forward I I I I #
loop $-1 $-1 $258 $57 #
coedge $-1 $164 $164 $259 $260 reversed $95 $-1 #
coedge $-1 $165 $165 $-1 $261 forward $97 $-1 #
edge $-1 $262 0 $262 6.2831853071796004 $98 $263 forward 7 unknown #
loop $-1 $264 $100 $253 #
vertex $-1 $101 $265 #
ellipse-curve $-1 -2.3247172219387835 22.190967147500348 6.6089236974301189 0 -0.61566148304635926 -0.78801074757464917 1 0 0 1 I I #
face $-1 $-1 $117 $15 $-1 $266 reversed single #
loop $-1 $-1 $186 $102 #
plane-surface $-1 0 24.948588033874334 0 0 -1 0 0 0 -1 forward_v I I I I #
coedge $-1 $267 $184 $187 $268 forward $103 $-1 #
coedge $-1 $190 $105 $106 $178 reversed $63 $-1 #
coedge $-1 $184 $267 $105 $176 reversed $103 $-1 #
edge $-1 $191 -8.763413302819405 $269 8.763413302819405 $175 $270 forward 7 unknown #
coedge $-1 $107 $106 $267 $271 forward $41 $-1 #
edge $-1 $182 -40.859401226844078 $269 40.859401226844078 $174 $272 forward 7 unknown #
coedge $-1 $187 $186 $107 $180 reversed $171 $-1 #
edge $-1 $273 -40.859401226844078 $181 40.859401226844078 $179 $274 forward 7 unknown #
vertex $-1 $109 $275 #
vertex $-1 $193 $276 #
straight-curve $-1 40.859401226844078 0 -8.763413302819405 0 -1 0 I I #
coedge $-1 $173 $175 $110 $185 reversed $103 $-1 #
edge $-1 $188 -24.948588033874334 $191 24.948588033874334 $184 $277 forward 7 unknown #
coedge $-1 $179 $111 $116 $194 forward $171 $-1 #
coedge $-1 $111 $179 $173 $268 reversed $171 $-1 #
vertex $-1 $112 $278 #
straight-curve $-1 0 24.948588033874334 8.763413302819405 -1 0 0 I I #
coedge $-1 $113 $174 $115 $193 reversed $63 $-1 #
vertex $-1 $185 $279 #
straight-curve $-1 0 -24.948588033874334 8.763413302819405 1 0 0 I I #
edge $-1 $118 -8.763413302819405 $182 8.763413302819405 $115 $280 forward 7 unknown #
edge $-1 $119 -8.763413302819405 $181 8.763413302819405 $116 $281 forward 7 unknown #
point $-1 40.859401226844078 -24.948588033874334 8.763413302819405 #
point $-1 40.859401226844078 24.948588033874334 8.763413302819405 #
face $-1 $282 $213 $16 $-1 $283 reversed single #
loop $-1 $-1 $284 $121 #
plane-surface $-1 0 0 -8.763413302819405 0 0 1 1 0 0 forward_v I I I I #
coedge $-1 $285 $124 $204 $286 forward $71 $-1 #
coedge $-1 $124 $285 $287 $288 forward $71 $-1 #
edge $-1 $289 -40.859401226844078 $205 40.859401226844078 $124 $290 forward 7 unknown #
coedge $-1 $126 $125 $291 $292 reversed $45 $-1 #
coedge $-1 $127 $293 $200 $286 reversed $122 $-1 #
vertex $-1 $286 $294 #
straight-curve $-1 40.859401226844078 -13.542216787357855 3.2845215290563754 0 0 -1 I I #
coedge $-1 $291 $295 $129 $208 forward $296 $-1 #
edge $-1 $214 -15.325886828566286 $209 -3.919515582049808 $207 $297 forward 7 unknown #
vertex $-1 $208 $298 #
straight-curve $-1 0 -13.542216787357855 4.3746728134060966 1 0 0 I I #
coedge $-1 $299 $131 $295 $300 forward $213 $-1 #
coedge $-1 $131 $299 $133 $217 reversed $213 $-1 #
loop $-1 $-1 $131 $197 #
vertex $-1 $300 $301 #
straight-curve $-1 0 -24.948588033874334 4.3746728134060966 -1 0 0 I I #
coedge $-1 $293 $133 $284 $302 reversed $122 $-1 #
edge $-1 $135 -4.3746728134060966 $303 8.763413302819405 $133 $304 forward 7 unknown #
point $-1 40.859401226844078 -13.542216787357855 4.3746728134060966 #
point $-1 40.859401226844078 -24.948588033874334 4.3746728134060966 #
face $-1 $305 $306 $17 $-1 $307 forward single #
loop $-1 $-1 $308 $137 #
plane-surface $-1 0 -19.245402410616094 4.3746728134060966 0 0 1 1 0 0 forward_v I I I I #
coedge $-1 $143 $309 $140 $226 forward $138 $-1 #
coedge $-1 $225 $140 $310 $311 reversed $79 $-1 #
coedge $-1 $140 $224 $141 $228 forward $79 $-1 #
edge $-1 $312 -6.9784899687373674 $229 -1.4632481959893937 $223 $313 forward 7 unknown #
coedge $-1 $142 $141 $233 $314 reversed $49 $-1 #
edge $-1 $315 -49.89717606774866 $229 -42.898233744026726 $225 $316 forward 7 unknown #
vertex $-1 $144 $317 #
straight-curve $-1 -2.2752508512221041 19.433346261126363 8.7634133028194015 -1 0 0 I I #
vertex $-1 $314 $318 #
straight-curve $-1 -9.7439988236235333 -14.370922981136182 35.174203509736273 0 0.78801074757464917 -0.61566148304635926 I I #
coedge $-1 $310 $146 $227 $314 forward $235 $-1 #
coedge $-1 $146 $319 $148 $238 reversed $235 $-1 #
loop $-1 $-1 $310 $320 #
straight-curve $-1 -9.7439988236235333 24.948588033874334 49.784749061086075 0 0 -1 I I #
coedge $-1 $321 $148 $322 $323 forward $138 $-1 #
edge $-1 $150 9.7439988236235333 $324 40.859401226844078 $234 $325 forward 7 unknown #
point $-1 -9.7439988236235333 19.43334626112636 8.763413302819405 #
point $-1 -9.7439988236235333 24.948588033874334 8.763413302819405 #
face $-1 $326 $327 $18 $-1 $328 forward single #
loop $-1 $-1 $329 $152 #
plane-surface $-1 0.64299541873511679 35.940196130273932 99.569498122172149 -1 0 0 0 0.61566148304635926 0.78801074757464917 forward_v I I I I #
loop $-1 $-1 $330 $86 #
coedge $-1 $246 $155 $331 $332 forward $87 $-1 #
coedge $-1 $155 $245 $333 $334 reversed $87 $-1 #
coedge $-1 $335 $336 $155 $248 forward $327 $-1 #
edge $-1 $337 1.4632481959893937 $338 6.9784899687373674 $247 $339 forward 7 unknown #
edge $-1 $340 1 $340 0 $156 $-1 forward 7 unknown #
vertex $-1 $157 $341 #
ellipse-curve $-1 -6.776286182949633 21.492953167118486 5.7155065621294039 0 0.61566148304635926 0.78801074757464917 1 0 0 1 I I #
point $-1 -5.776286182949633 22.190967147500341 6.6089236974301091 #
face $-1 $342 $167 $19 $-1 $343 forward single #
loop $-1 $-1 $344 $160 #
plane-surface $-1 -9.7439988236235333 35.940196130273932 99.569498122172149 1 0 0 0 -0.61566148304635926 -0.78801074757464917 forward_v I I I I #
loop $-1 $-1 $345 $94 #
coedge $-1 $257 $257 $258 $346 forward $161 $-1 #
coedge $-1 $258 $258 $257 $346 reversed $163 $-1 #
coedge $-1 $259 $259 $164 $260 forward $264 $-1 #
edge $-1 $347 -4.1583655000532949e-016 $347 6.2831853071796004 $259 $348 forward 7 unknown #
edge $-1 $349 1 $349 0 $165 $-1 forward 7 unknown #
vertex $-1 $166 $350 #
ellipse-curve $-1 -2.3247172219387835 21.492953167118486 5.7155065621294039 0 0.61566148304635926 0.78801074757464917 1 0 0 1 I I #
loop $-1 $351 $259 $253 #
point $-1 -1.3247172219387835 22.190967147500341 6.6089236974301091 #
plane-surface $-1 40.859401226844078 0 0 -1 0 0 0 0 1 forward_v I I I I #
coedge $-1 $175 $173 $177 $271 reversed $103 $-1 #
edge $-1 $188 -8.763413302819405 $273 8.763413302819405 $187 $352 forward 7 unknown #
vertex $-1 $271 $353 #
straight-curve $-1 -40.859401226844078 -24.948588033874334 0 0 0 -1 I I #
edge $-1 $269 -24.948588033874334 $273 24.948588033874334 $267 $354 forward 7 unknown #
straight-curve $-1 0 -24.948588033874334 -8.763413302819405 -1 0 0 I I #
vertex $-1 $180 $355 #
straight-curve $-1 0 24.948588033874334 -8.763413302819405 1 0 0 I I #
point $-1 40.859401226844078 24.948588033874334 -8.763413302819405 #
point $-1 40.859401226844078 -24.948588033874334 -8.763413302819405 #
straight-curve $-1 -40.859401226844078 0 8.763413302819405 0 -1 0 I I #
point $-1 -40.859401226844078 24.948588033874334 8.763413302819405 #
point $-1 -40.859401226844078 -24.948588033874334 8.763413302819405 #
straight-curve $-1 40.859401226844078 -24.948588033874334 0 0 0 -1 I I #
straight-curve $-1 40.859401226844078 24.948588033874334 0 0 0 -1 I I #
face $-1 $356 $296 $16 $-1 $357 reversed single #
plane-surface $-1 0 -24.948588033874334 0 0 1 0 0 0 1 forward_v I I I I #
coedge $-1 $358 $359 $216 $302 forward $198 $-1 #
coedge $-1 $201 $200 $360 $361 forward $71 $-1 #
edge $-1 $205 -13.542216787357855 $362 24.948588033874334 $204 $363 forward 7 unknown #
coedge $-1 $364 $291 $201 $288 reversed $296 $-1 #
edge $-1 $365 -24.948588033874334 $289 13.542216787357855 $287 $366 forward 7 unknown #
vertex $-1 $292 $367 #
straight-curve $-1 0 -13.542216787357855 8.763413302819405 1 0 0 I I #
coedge $-1 $287 $207 $203 $292 forward $296 $-1 #
edge $-1 $209 1.0901512843497212 $289 5.4788917737630296 $291 $368 forward 7 unknown #
coedge $-1 $204 $216 $369 $370 reversed $122 $-1 #
point $-1 40.859401226844078 -13.542216787357855 8.763413302819405 #
coedge $-1 $207 $371 $211 $300 reversed $296 $-1 #
loop $-1 $-1 $291 $282 #
straight-curve $-1 -40.859401226844078 -9.6227012053080472 4.3746728134060966 0 1 0 I I #
point $-1 -40.859401226844078 -13.542216787357855 4.3746728134060966 #
coedge $-1 $212 $211 $358 $372 reversed $213 $-1 #
edge $-1 $214 -4.3746728134060966 $373 8.763413302819405 $295 $374 forward 7 unknown #
point $-1 -40.859401226844078 -24.948588033874334 4.3746728134060966 #
edge $-1 $375 -24.948588033874334 $303 24.948588033874334 $216 $376 forward 7 unknown #
vertex $-1 $217 $377 #
straight-curve $-1 40.859401226844078 -24.948588033874334 0 0 0 -1 I I #
face $-1 $378 $379 $17 $-1 $380 reversed single #
loop $-1 $-1 $381 $220 #
plane-surface $-1 0 -13.542216787357855 6.5690430581127508 0 -1 0 0 0 -1 forward_v I I I I #
coedge $-1 $382 $383 $384 $385 reversed $221 $-1 #
coedge $-1 $223 $386 $387 $388 forward $138 $-1 #
coedge $-1 $387 $233 $224 $311 forward $235 $-1 #
edge $-1 $315 -45.330314969045247 $312 -41.021335758266673 $310 $389 forward 7 unknown #
vertex $-1 $311 $390 #
straight-curve $-1 0.64299541873511679 17.970098065136966 8.7634133028194015 0 -1 0 I I #
edge $-1 $231 -7.4687479724014292 $315 2.9182462699572209 $233 $391 forward 7 unknown #
vertex $-1 $314 $392 #
straight-curve $-1 0.64299541873511679 -14.370922981136182 35.174203509736273 0 -0.78801074757464917 0.61566148304635926 I I #
point $-1 0.64299541873511679 19.43334626112636 8.763413302819405 #
point $-1 -9.7439988236235333 24.948588033874337 4.4544340920408239 #
coedge $-1 $234 $393 $394 $395 reversed $235 $-1 #
face $-1 $-1 $235 $17 $-1 $396 reversed single #
coedge $-1 $386 $237 $397 $398 forward $138 $-1 #
coedge $-1 $394 $399 $237 $323 reversed $400 $-1 #
edge $-1 $324 -24.948588033874334 $401 13.542216787357855 $322 $402 forward 7 unknown #
vertex $-1 $238 $403 #
straight-curve $-1 0 24.948588033874334 8.763413302819405 -1 0 0 I I #
face $-1 $404 $405 $18 $-1 $406 forward single #
loop $-1 $-1 $407 $241 #
plane-surface $-1 0 0 8.763413302819405 0 0 1 1 0 0 forward_v I I I I #
coedge $-1 $408 $409 $407 $410 reversed $242 $-1 #
coedge $-1 $411 $331 $336 $412 reversed $244 $-1 #
coedge $-1 $330 $413 $245 $332 reversed $244 $-1 #
edge $-1 $337 42.898233744026726 $414 49.89717606774866 $245 $415 forward 7 unknown #
coedge $-1 $416 $417 $246 $334 forward $418 $-1 #
edge $-1 $338 41.021335758266673 $414 45.330314969045247 $333 $419 forward 7 unknown #
coedge $-1 $420 $247 $417 $421 forward $327 $-1 #
coedge $-1 $247 $407 $330 $412 forward $327 $-1 #
vertex $-1 $412 $422 #
vertex $-1 $421 $423 #
straight-curve $-1 -9.7439988236235333 17.970098065136966 8.7634133028194015 0 1 0 I I #
vertex $-1 $249 $424 #
point $-1 -5.776286182949633 21.492953167118486 5.7155065621294039 #
face $-1 $425 $426 $19 $-1 $427 forward single #
plane-surface $-1 -4.5505017024442083 -14.370922981136182 35.174203509736273 0 0.61566148304635926 0.78801074757464917 1 0 0 forward_v I I I I #
coedge $-1 $428 $429 $430 $431 reversed $254 $-1 #
coedge $-1 $345 $345 $-1 $432 forward $256 $-1 #
edge $-1 $433 0 $433 6.2831853071796004 $257 $434 forward 7 unknown #
vertex $-1 $260 $435 #
ellipse-curve $-1 -6.776286182949633 22.190967147500348 6.6089236974301189 0 -0.61566148304635926 -0.78801074757464917 1 0 0 1 I I #
vertex $-1 $261 $436 #
point $-1 -1.3247172219387835 21.492953167118486 5.7155065621294039 #
loop $-1 $-1 $437 $253 #
straight-curve $-1 -40.859401226844078 24.948588033874334 0 0 0 -1 I I #
point $-1 -40.859401226844078 -24.948588033874334 -8.763413302819405 #
straight-curve $-1 -40.859401226844078 0 -8.763413302819405 0 1 0 I I #
point $-1 -40.859401226844078 24.948588033874334 -8.763413302819405 #
face $-1 $-1 $438 $16 $-1 $439 reversed single #
plane-surface $-1 -40.859401226844078 0 0 1 0 0 0 0 -1 forward_v I I I I #
coedge $-1 $440 $284 $299 $372 forward $198 $-1 #
coedge $-1 $284 $440 $441 $442 forward $198 $-1 #
coedge $-1 $369 $443 $285 $361 reversed $438 $-1 #
edge $-1 $362 -40.859401226844078 $365 40.859401226844078 $360 $444 forward 7 unknown #
vertex $-1 $286 $445 #
straight-curve $-1 40.859401226844078 0 8.763413302819405 0 1 0 I I #
coedge $-1 $371 $287 $443 $446 forward $296 $-1 #
vertex $-1 $361 $447 #
straight-curve $-1 -40.859401226844078 0 8.763413302819405 0 -1 0 I I #
point $-1 -40.859401226844078 -13.542216787357855 8.763413302819405 #
straight-curve $-1 -40.859401226844078 -13.542216787357855 3.2845215290563754 0 0 1 I I #
coedge $-1 $441 $360 $293 $370 forward $438 $-1 #
edge $-1 $362 -8.763413302819405 $375 8.763413302819405 $293 $448 forward 7 unknown #
coedge $-1 $295 $364 $440 $449 reversed $296 $-1 #
edge $-1 $303 -40.859401226844078 $373 40.859401226844078 $299 $450 forward 7 unknown #
vertex $-1 $449 $451 #
straight-curve $-1 -40.859401226844078 -24.948588033874334 0 0 0 -1 I I #
vertex $-1 $302 $452 #
straight-curve $-1 40.859401226844078 0 -8.763413302819405 0 -1 0 I I #
point $-1 40.859401226844078 -24.948588033874334 -8.763413302819405 #
face $-1 $453 $454 $17 $-1 $455 reversed single #
loop $-1 $-1 $456 $305 #
plane-surface $-1 40.859401226844078 0 0 -1 0 0 0 0 1 forward_v I I I I #
coedge $-1 $397 $457 $456 $458 reversed $306 $-1 #
coedge $-1 $459 $308 $457 $460 reversed $221 $-1 #
coedge $-1 $308 $459 $461 $462 reversed $221 $-1 #
coedge $-1 $463 $456 $308 $385 forward $379 $-1 #
edge $-1 $464 3.919515582049808 $465 15.325886828566286 $384 $466 forward 7 unknown #
coedge $-1 $309 $321 $467 $468 forward $138 $-1 #
coedge $-1 $469 $310 $309 $388 reversed $235 $-1 #
edge $-1 $470 -40.859401226844078 $312 -0.64299541873511679 $387 $325 forward 7 unknown #
straight-curve $-1 0.64299541873511679 24.948588033874334 49.784749061086075 0 0 1 I I #
point $-1 0.64299541873511679 24.948588033874334 8.763413302819405 #
straight-curve $-1 -2.2752508512221041 24.948588033874334 4.4544340920408256 1 0 0 I I #
point $-1 0.64299541873511679 24.948588033874337 4.4544340920408239 #
coedge $-1 $319 $469 $471 $472 reversed $235 $-1 #
coedge $-1 $473 $322 $319 $395 forward $400 $-1 #
edge $-1 $324 -8.763413302819405 $474 8.763413302819405 $319 $475 forward 7 unknown #
plane-surface $-1 0 24.948588033874334 0 0 -1 0 0 0 -1 forward_v I I I I #
coedge $-1 $476 $381 $321 $398 reversed $306 $-1 #
edge $-1 $401 -40.859401226844078 $477 40.859401226844078 $321 $478 forward 7 unknown #
coedge $-1 $322 $479 $476 $480 forward $400 $-1 #
loop $-1 $-1 $399 $481 #
vertex $-1 $480 $482 #
straight-curve $-1 -40.859401226844078 0 8.763413302819405 0 -1 0 I I #
point $-1 -40.859401226844078 24.948588033874334 8.763413302819405 #
face $-1 $483 $484 $18 $-1 $485 forward single #
loop $-1 $-1 $486 $326 #
plane-surface $-1 0 -19.245402410616094 4.3746728134060966 0 0 1 1 0 0 forward_v I I I I #
coedge $-1 $336 $487 $329 $410 forward $327 $-1 #
coedge $-1 $409 $329 $488 $489 reversed $242 $-1 #
coedge $-1 $329 $408 $411 $490 forward $242 $-1 #
edge $-1 $491 -6.9784899687373674 $492 -1.4632481959893937 $407 $493 forward 7 unknown #
coedge $-1 $413 $330 $409 $490 reversed $244 $-1 #
edge $-1 $492 -2.9182462699572209 $337 7.4687479724014292 $336 $494 forward 7 unknown #
coedge $-1 $331 $411 $416 $495 reversed $244 $-1 #
vertex $-1 $495 $496 #
straight-curve $-1 -9.7439988236235333 -14.370922981136182 35.174203509736273 0 0.78801074757464917 -0.61566148304635926 I I #
coedge $-1 $488 $333 $413 $495 forward $418 $-1 #
coedge $-1 $333 $497 $335 $421 reversed $418 $-1 #
loop $-1 $-1 $488 $498 #
straight-curve $-1 -9.7439988236235333 24.948588033874334 49.784749061086075 0 0 -1 I I #
coedge $-1 $499 $335 $500 $501 forward $327 $-1 #
edge $-1 $338 9.7439988236235333 $502 40.859401226844078 $417 $503 forward 7 unknown #
point $-1 -9.7439988236235333 19.43334626112636 8.763413302819405 #
point $-1 -9.7439988236235333 24.948588033874334 8.763413302819405 #
point $-1 -6.776286182949633 20.877291684072127 4.9274958145547547 #
face $-1 $504 $505 $19 $-1 $506 forward single #
loop $-1 $-1 $507 $342 #
plane-surface $-1 0.64299541873511679 35.940196130273932 99.569498122172149 -1 0 0 0 0.61566148304635926 0.78801074757464917 forward_v I I I I #
coedge $-1 $429 $344 $508 $509 forward $254 $-1 #
coedge $-1 $344 $428 $510 $511 reversed $254 $-1 #
coedge $-1 $512 $513 $344 $431 forward $505 $-1 #
edge $-1 $514 1.4632481959893937 $515 6.9784899687373674 $430 $516 forward 7 unknown #
edge $-1 $517 1 $517 0 $345 $-1 forward 7 unknown #
vertex $-1 $346 $518 #
ellipse-curve $-1 -6.776286182949633 21.492953167118486 5.7155065621294039 0 0.61566148304635926 0.78801074757464917 1 0 0 1 I I #
point $-1 -5.776286182949633 22.190967147500341 6.6089236974301091 #
point $-1 -2.3247172219387835 20.877291684072127 4.9274958145547547 #
coedge $-1 $519 $508 $513 $520 reversed $351 $-1 #
loop $-1 $-1 $369 $356 #
plane-surface $-1 0 24.948588033874334 0 0 -1 0 0 0 -1 forward_v I I I I #
coedge $-1 $359 $358 $371 $449 forward $198 $-1 #
coedge $-1 $443 $369 $359 $442 reversed $438 $-1 #
edge $-1 $521 -40.859401226844078 $375 40.859401226844078 $441 $522 forward 7 unknown #
coedge $-1 $360 $441 $364 $446 reversed $438 $-1 #
straight-curve $-1 0 24.948588033874334 8.763413302819405 -1 0 0 I I #
point $-1 40.859401226844078 24.948588033874334 8.763413302819405 #
edge $-1 $365 -8.763413302819405 $521 8.763413302819405 $443 $523 forward 7 unknown #
point $-1 -40.859401226844078 24.948588033874334 8.763413302819405 #
straight-curve $-1 40.859401226844078 24.948588033874334 0 0 0 -1 I I #
edge $-1 $373 -24.948588033874334 $521 24.948588033874334 $371 $524 forward 7 unknown #
straight-curve $-1 0 -24.948588033874334 -8.763413302819405 -1 0 0 I I #
point $-1 -40.859401226844078 -24.948588033874334 -8.763413302819405 #
point $-1 40.859401226844078 24.948588033874334 -8.763413302819405 #
face $-1 $481 $525 $17 $-1 $526 reversed single #
loop $-1 $-1 $527 $378 #
plane-surface $-1 0 0 -8.763413302819405 0 0 1 1 0 0 forward_v I I I I #
coedge $-1 $384 $467 $381 $458 forward $379 $-1 #
coedge $-1 $381 $476 $382 $460 forward $306 $-1 #
edge $-1 $477 -5.4788917737630296 $464 -1.0901512843497212 $456 $528 forward 7 unknown #
coedge $-1 $383 $382 $479 $529 reversed $221 $-1 #
edge $-1 $530 -40.859401226844078 $464 40.859401226844078 $457 $531 forward 7 unknown #
coedge $-1 $532 $533 $383 $462 forward $525 $-1 #
edge $-1 $465 -40.859401226844078 $534 40.859401226844078 $461 $535 forward 7 unknown #
coedge $-1 $536 $384 $533 $537 forward $379 $-1 #
vertex $-1 $385 $538 #
vertex $-1 $537 $539 #
straight-curve $-1 40.859401226844078 -9.6227012053080472 4.3746728134060966 0 -1 0 I I #
coedge $-1 $456 $540 $386 $468 reversed $379 $-1 #
edge $-1 $477 -13.542216787357855 $470 24.948588033874334 $467 $541 forward 7 unknown #
coedge $-1 $393 $387 $540 $542 forward $235 $-1 #
vertex $-1 $468 $543 #
coedge $-1 $527 $544 $393 $472 forward $454 $-1 #
edge $-1 $474 -40.859401226844078 $545 40.859401226844078 $393 $546 forward 7 unknown #
coedge $-1 $547 $394 $544 $548 reversed $400 $-1 #
vertex $-1 $472 $549 #
straight-curve $-1 -40.859401226844078 24.948588033874334 0 0 0 -1 I I #
coedge $-1 $457 $397 $399 $480 reversed $306 $-1 #
vertex $-1 $468 $550 #
straight-curve $-1 0 -13.542216787357855 8.763413302819405 1 0 0 I I #
coedge $-1 $399 $547 $459 $529 forward $400 $-1 #
edge $-1 $530 1.0901512843497212 $401 5.4788917737630296 $399 $551 forward 7 unknown #
face $-1 $320 $400 $17 $-1 $552 reversed single #
point $-1 -40.859401226844078 -13.542216787357855 8.763413302819405 #
face $-1 $553 $554 $18 $-1 $555 reversed single #
loop $-1 $-1 $556 $404 #
plane-surface $-1 0 -13.542216787357855 6.5690430581127508 0 -1 0 0 0 -1 forward_v I I I I #
coedge $-1 $557 $558 $559 $560 reversed $405 $-1 #
coedge $-1 $407 $561 $562 $563 forward $327 $-1 #
coedge $-1 $562 $416 $408 $489 forward $418 $-1 #
edge $-1 $564 -45.330314969045247 $491 -41.021335758266673 $488 $565 forward 7 unknown #
edge $-1 $564 -49.89717606774866 $492 -42.898233744026726 $409 $566 forward 7 unknown #
vertex $-1 $489 $567 #
vertex $-1 $412 $568 #
straight-curve $-1 0.64299541873511679 17.970098065136966 8.7634133028194015 0 -1 0 I I #
straight-curve $-1 -2.2752508512221041 19.433346261126363 8.7634133028194015 -1 0 0 I I #
edge $-1 $414 -7.4687479724014292 $564 2.9182462699572209 $416 $569 forward 7 unknown #
point $-1 -9.7439988236235333 24.948588033874337 4.4544340920408239 #
coedge $-1 $417 $570 $571 $572 reversed $418 $-1 #
face $-1 $-1 $418 $18 $-1 $573 reversed single #
coedge $-1 $561 $420 $574 $575 forward $327 $-1 #
coedge $-1 $571 $576 $420 $501 reversed $577 $-1 #
edge $-1 $502 -24.948588033874334 $578 13.542216787357855 $500 $579 forward 7 unknown #
vertex $-1 $421 $580 #
straight-curve $-1 0 24.948588033874334 8.763413302819405 -1 0 0 I I #
face $-1 $581 $582 $19 $-1 $583 forward single #
loop $-1 $-1 $584 $425 #
plane-surface $-1 0 0 8.763413302819405 0 0 1 1 0 0 forward_v I I I I #
coedge $-1 $585 $586 $584 $587 reversed $426 $-1 #
coedge $-1 $437 $588 $428 $509 reversed $351 $-1 #
edge $-1 $514 42.898233744026726 $589 49.89717606774866 $428 $590 forward 7 unknown #
coedge $-1 $591 $592 $429 $511 forward $593 $-1 #
edge $-1 $515 41.021335758266673 $589 45.330314969045247 $510 $594 forward 7 unknown #
coedge $-1 $595 $430 $592 $596 forward $505 $-1 #
coedge $-1 $430 $584 $437 $520 forward $505 $-1 #
vertex $-1 $520 $597 #
vertex $-1 $596 $598 #
straight-curve $-1 -9.7439988236235333 17.970098065136966 8.7634133028194015 0 1 0 I I #
vertex $-1 $432 $599 #
point $-1 -5.776286182949633 21.492953167118486 5.7155065621294039 #
coedge $-1 $588 $437 $586 $600 reversed $351 $-1 #
edge $-1 $601 -2.9182462699572209 $514 7.4687479724014292 $513 $602 forward 7 unknown #
vertex $-1 $442 $603 #
straight-curve $-1 0 24.948588033874334 -8.763413302819405 1 0 0 I I #
straight-curve $-1 -40.859401226844078 24.948588033874334 0 0 0 -1 I I #
straight-curve $-1 -40.859401226844078 0 -8.763413302819405 0 1 0 I I #
loop $-1 $-1 $461 $453 #
plane-surface $-1 0 -24.948588033874334 0 0 1 0 0 0 1 forward_v I I I I #
coedge $-1 $604 $471 $536 $605 forward $454 $-1 #
straight-curve $-1 40.859401226844078 -13.542216787357855 3.2845215290563754 0 0 -1 I I #
edge $-1 $534 -15.325886828566286 $530 -3.919515582049808 $479 $606 forward 7 unknown #
vertex $-1 $529 $607 #
straight-curve $-1 0 -13.542216787357855 4.3746728134060966 1 0 0 I I #
coedge $-1 $608 $461 $547 $609 forward $525 $-1 #
coedge $-1 $461 $608 $463 $537 reversed $525 $-1 #
vertex $-1 $609 $610 #
straight-curve $-1 0 -24.948588033874334 4.3746728134060966 -1 0 0 I I #
coedge $-1 $540 $463 $527 $605 reversed $379 $-1 #
edge $-1 $465 -4.3746728134060966 $611 8.763413302819405 $463 $612 forward 7 unknown #
point $-1 40.859401226844078 -13.542216787357855 4.3746728134060966 #
point $-1 40.859401226844078 -24.948588033874334 4.3746728134060966 #
coedge $-1 $467 $536 $469 $542 reversed $379 $-1 #
straight-curve $-1 40.859401226844078 0 8.763413302819405 0 1 0 I I #
edge $-1 $470 -8.763413302819405 $545 8.763413302819405 $540 $613 forward 7 unknown #
point $-1 40.859401226844078 24.948588033874334 8.763413302819405 #
coedge $-1 $471 $604 $473 $548 forward $454 $-1 #
vertex $-1 $605 $614 #
straight-curve $-1 0 24.948588033874334 -8.763413302819405 1 0 0 I I #
coedge $-1 $479 $473 $532 $609 reversed $400 $-1 #
edge $-1 $615 -24.948588033874334 $474 24.948588033874334 $473 $616 forward 7 unknown #
point $-1 -40.859401226844078 24.948588033874334 -8.763413302819405 #
point $-1 40.859401226844078 -13.542216787357855 8.763413302819405 #
straight-curve $-1 -40.859401226844078 -13.542216787357855 3.2845215290563754 0 0 1 I I #
plane-surface $-1 -40.859401226844078 0 0 1 0 0 0 0 -1 forward_v I I I I #
face $-1 $617 $618 $18 $-1 $619 reversed single #
loop $-1 $-1 $620 $483 #
plane-surface $-1 40.859401226844078 0 0 -1 0 0 0 0 1 forward_v I I I I #
coedge $-1 $574 $621 $620 $622 reversed $484 $-1 #
coedge $-1 $623 $486 $621 $624 reversed $405 $-1 #
coedge $-1 $486 $623 $625 $626 reversed $405 $-1 #
coedge $-1 $627 $620 $486 $560 forward $554 $-1 #
edge $-1 $628 3.919515582049808 $629 15.325886828566286 $559 $630 forward 7 unknown #
coedge $-1 $487 $499 $631 $632 forward $327 $-1 #
coedge $-1 $633 $488 $487 $563 reversed $418 $-1 #
edge $-1 $634 -40.859401226844078 $491 -0.64299541873511679 $562 $503 forward 7 unknown #
vertex $-1 $495 $635 #
straight-curve $-1 0.64299541873511679 24.948588033874334 49.784749061086075 0 0 1 I I #
straight-curve $-1 0.64299541873511679 -14.370922981136182 35.174203509736273 0 -0.78801074757464917 0.61566148304635926 I I #
point $-1 0.64299541873511679 24.948588033874334 8.763413302819405 #
point $-1 0.64299541873511679 19.43334626112636 8.763413302819405 #
straight-curve $-1 -2.2752508512221041 24.948588033874334 4.4544340920408256 1 0 0 I I #
coedge $-1 $497 $633 $636 $637 reversed $418 $-1 #
coedge $-1 $638 $500 $497 $572 forward $577 $-1 #
edge $-1 $502 -8.763413302819405 $639 8.763413302819405 $497 $640 forward 7 unknown #
plane-surface $-1 0 24.948588033874334 0 0 -1 0 0 0 -1 forward_v I I I I #
coedge $-1 $641 $556 $499 $575 reversed $484 $-1 #
edge $-1 $578 -40.859401226844078 $642 40.859401226844078 $499 $643 forward 7 unknown #
coedge $-1 $500 $644 $641 $645 forward $577 $-1 #
loop $-1 $-1 $576 $646 #
vertex $-1 $645 $647 #
straight-curve $-1 -40.859401226844078 0 8.763413302819405 0 -1 0 I I #
point $-1 -40.859401226844078 24.948588033874334 8.763413302819405 #
face $-1 $648 $649 $19 $-1 $650 forward single #
loop $-1 $-1 $651 $504 #
plane-surface $-1 0 -19.245402410616094 4.3746728134060966 0 0 1 1 0 0 forward_v I I I I #
coedge $-1 $513 $652 $507 $587 forward $505 $-1 #
coedge $-1 $586 $507 $653 $654 reversed $426 $-1 #
coedge $-1 $507 $585 $519 $600 forward $426 $-1 #
edge $-1 $655 -6.9784899687373674 $601 -1.4632481959893937 $584 $656 forward 7 unknown #
coedge $-1 $508 $519 $591 $657 reversed $351 $-1 #
vertex $-1 $657 $658 #
straight-curve $-1 -9.7439988236235333 -14.370922981136182 35.174203509736273 0 0.78801074757464917 -0.61566148304635926 I I #
coedge $-1 $653 $510 $588 $657 forward $593 $-1 #
coedge $-1 $510 $659 $512 $596 reversed $593 $-1 #
loop $-1 $-1 $653 $660 #
straight-curve $-1 -9.7439988236235333 24.948588033874334 49.784749061086075 0 0 -1 I I #
coedge $-1 $661 $512 $662 $663 forward $505 $-1 #
edge $-1 $515 9.7439988236235333 $664 40.859401226844078 $592 $665 forward 7 unknown #
point $-1 -9.7439988236235333 19.43334626112636 8.763413302819405 #
point $-1 -9.7439988236235333 24.948588033874334 8.763413302819405 #
point $-1 -6.776286182949633 20.877291684072127 4.9274958145547547 #
edge $-1 $666 -49.89717606774866 $601 -42.898233744026726 $586 $667 forward 7 unknown #
vertex $-1 $520 $668 #
straight-curve $-1 -2.2752508512221041 19.433346261126363 8.7634133028194015 -1 0 0 I I #
point $-1 -40.859401226844078 24.948588033874334 -8.763413302819405 #
coedge $-1 $544 $527 $608 $669 forward $454 $-1 #
edge $-1 $545 -24.948588033874334 $611 24.948588033874334 $536 $670 forward 7 unknown #
straight-curve $-1 -40.859401226844078 -9.6227012053080472 4.3746728134060966 0 1 0 I I #
point $-1 -40.859401226844078 -13.542216787357855 4.3746728134060966 #
coedge $-1 $533 $532 $604 $669 reversed $525 $-1 #
edge $-1 $534 -4.3746728134060966 $615 8.763413302819405 $547 $671 forward 7 unknown #
point $-1 -40.859401226844078 -24.948588033874334 4.3746728134060966 #
vertex $-1 $537 $672 #
straight-curve $-1 40.859401226844078 -24.948588033874334 0 0 0 -1 I I #
straight-curve $-1 40.859401226844078 24.948588033874334 0 0 0 -1 I I #
point $-1 40.859401226844078 24.948588033874334 -8.763413302819405 #
vertex $-1 $548 $673 #
straight-curve $-1 -40.859401226844078 0 -8.763413302819405 0 1 0 I I #
face $-1 $646 $674 $18 $-1 $675 reversed single #
loop $-1 $-1 $676 $553 #
plane-surface $-1 0 0 -8.763413302819405 0 0 1 1 0 0 forward_v I I I I #
coedge $-1 $559 $631 $556 $622 forward $554 $-1 #
coedge $-1 $556 $641 $557 $624 forward $484 $-1 #
edge $-1 $642 -5.4788917737630296 $628 -1.0901512843497212 $620 $677 forward 7 unknown #
coedge $-1 $558 $557 $644 $678 reversed $405 $-1 #
edge $-1 $679 -40.859401226844078 $628 40.859401226844078 $621 $680 forward 7 unknown #
coedge $-1 $681 $682 $558 $626 forward $674 $-1 #
edge $-1 $629 -40.859401226844078 $683 40.859401226844078 $625 $684 forward 7 unknown #
coedge $-1 $685 $559 $682 $686 forward $554 $-1 #
vertex $-1 $560 $687 #
vertex $-1 $686 $688 #
straight-curve $-1 40.859401226844078 -9.6227012053080472 4.3746728134060966 0 -1 0 I I #
coedge $-1 $620 $689 $561 $632 reversed $554 $-1 #
edge $-1 $642 -13.542216787357855 $634 24.948588033874334 $631 $690 forward 7 unknown #
coedge $-1 $570 $562 $689 $691 forward $418 $-1 #
vertex $-1 $632 $692 #
point $-1 0.64299541873511679 24.948588033874337 4.4544340920408239 #
coedge $-1 $676 $693 $570 $637 forward $618 $-1 #
edge $-1 $639 -40.859401226844078 $694 40.859401226844078 $570 $695 forward 7 unknown #
coedge $-1 $696 $571 $693 $697 reversed $577 $-1 #
vertex $-1 $637 $698 #
straight-curve $-1 -40.859401226844078 24.948588033874334 0 0 0 -1 I I #
coedge $-1 $621 $574 $576 $645 reversed $484 $-1 #
vertex $-1 $632 $699 #
straight-curve $-1 0 -13.542216787357855 8.763413302819405 1 0 0 I I #
coedge $-1 $576 $696 $623 $678 forward $577 $-1 #
edge $-1 $679 1.0901512843497212 $578 5.4788917737630296 $576 $700 forward 7 unknown #
face $-1 $498 $577 $18 $-1 $701 reversed single #
point $-1 -40.859401226844078 -13.542216787357855 8.763413302819405 #
face $-1 $702 $703 $19 $-1 $704 reversed single #
loop $-1 $-1 $705 $581 #
plane-surface $-1 0 -13.542216787357855 6.5690430581127508 0 -1 0 0 0 -1 forward_v I I I I #
coedge $-1 $706 $707 $708 $709 reversed $582 $-1 #
coedge $-1 $584 $710 $711 $712 forward $505 $-1 #
coedge $-1 $711 $591 $585 $654 forward $593 $-1 #
edge $-1 $666 -45.330314969045247 $655 -41.021335758266673 $653 $713 forward 7 unknown #
vertex $-1 $654 $714 #
straight-curve $-1 0.64299541873511679 17.970098065136966 8.7634133028194015 0 -1 0 I I #
edge $-1 $589 -7.4687479724014292 $666 2.9182462699572209 $591 $715 forward 7 unknown #
point $-1 -9.7439988236235333 24.948588033874337 4.4544340920408239 #
coedge $-1 $592 $716 $717 $718 reversed $593 $-1 #
face $-1 $-1 $593 $19 $-1 $719 reversed single #
coedge $-1 $710 $595 $720 $721 forward $505 $-1 #
coedge $-1 $717 $722 $595 $663 reversed $723 $-1 #
edge $-1 $664 -24.948588033874334 $724 13.542216787357855 $662 $725 forward 7 unknown #
vertex $-1 $596 $726 #
straight-curve $-1 0 24.948588033874334 8.763413302819405 -1 0 0 I I #
vertex $-1 $657 $727 #
straight-curve $-1 0.64299541873511679 -14.370922981136182 35.174203509736273 0 -0.78801074757464917 0.61566148304635926 I I #
point $-1 0.64299541873511679 19.43334626112636 8.763413302819405 #
edge $-1 $611 -40.859401226844078 $615 40.859401226844078 $608 $728 forward 7 unknown #
straight-curve $-1 40.859401226844078 0 -8.763413302819405 0 -1 0 I I #
straight-curve $-1 -40.859401226844078 -24.948588033874334 0 0 0 -1 I I #
point $-1 40.859401226844078 -24.948588033874334 -8.763413302819405 #
point $-1 -40.859401226844078 -24.948588033874334 -8.763413302819405 #
loop $-1 $-1 $625 $617 #
plane-surface $-1 0 -24.948588033874334 0 0 1 0 0 0 1 forward_v I I I I #
coedge $-1 $729 $636 $685 $730 forward $618 $-1 #
straight-curve $-1 40.859401226844078 -13.542216787357855 3.2845215290563754 0 0 -1 I I #
edge $-1 $683 -15.325886828566286 $679 -3.919515582049808 $644 $731 forward 7 unknown #
vertex $-1 $678 $732 #
straight-curve $-1 0 -13.542216787357855 4.3746728134060966 1 0 0 I I #
coedge $-1 $733 $625 $696 $734 forward $674 $-1 #
coedge $-1 $625 $733 $627 $686 reversed $674 $-1 #
vertex $-1 $734 $735 #
straight-curve $-1 0 -24.948588033874334 4.3746728134060966 -1 0 0 I I #
coedge $-1 $689 $627 $676 $730 reversed $554 $-1 #
edge $-1 $629 -4.3746728134060966 $736 8.763413302819405 $627 $737 forward 7 unknown #
point $-1 40.859401226844078 -13.542216787357855 4.3746728134060966 #
point $-1 40.859401226844078 -24.948588033874334 4.3746728134060966 #
coedge $-1 $631 $685 $633 $691 reversed $554 $-1 #
straight-curve $-1 40.859401226844078 0 8.763413302819405 0 1 0 I I #
edge $-1 $634 -8.763413302819405 $694 8.763413302819405 $689 $738 forward 7 unknown #
point $-1 40.859401226844078 24.948588033874334 8.763413302819405 #
coedge $-1 $636 $729 $638 $697 forward $618 $-1 #
vertex $-1 $730 $739 #
straight-curve $-1 0 24.948588033874334 -8.763413302819405 1 0 0 I I #
coedge $-1 $644 $638 $681 $734 reversed $577 $-1 #
edge $-1 $740 -24.948588033874334 $639 24.948588033874334 $638 $741 forward 7 unknown #
point $-1 -40.859401226844078 24.948588033874334 -8.763413302819405 #
point $-1 40.859401226844078 -13.542216787357855 8.763413302819405 #
straight-curve $-1 -40.859401226844078 -13.542216787357855 3.2845215290563754 0 0 1 I I #
plane-surface $-1 -40.859401226844078 0 0 1 0 0 0 0 -1 forward_v I I I I #
face $-1 $742 $743 $19 $-1 $744 reversed single #
loop $-1 $-1 $745 $648 #
plane-surface $-1 40.859401226844078 0 0 -1 0 0 0 0 1 forward_v I I I I #
coedge $-1 $720 $746 $745 $747 reversed $649 $-1 #
coedge $-1 $748 $651 $746 $749 reversed $582 $-1 #
coedge $-1 $651 $748 $750 $751 reversed $582 $-1 #
coedge $-1 $752 $745 $651 $709 forward $703 $-1 #
edge $-1 $753 3.919515582049808 $754 15.325886828566286 $708 $755 forward 7 unknown #
coedge $-1 $652 $661 $756 $757 forward $505 $-1 #
coedge $-1 $758 $653 $652 $712 reversed $593 $-1 #
edge $-1 $759 -40.859401226844078 $655 -0.64299541873511679 $711 $665 forward 7 unknown #
straight-curve $-1 0.64299541873511679 24.948588033874334 49.784749061086075 0 0 1 I I #
point $-1 0.64299541873511679 24.948588033874334 8.763413302819405 #
straight-curve $-1 -2.2752508512221041 24.948588033874334 4.4544340920408256 1 0 0 I I #
coedge $-1 $659 $758 $760 $761 reversed $593 $-1 #
coedge $-1 $762 $662 $659 $718 forward $723 $-1 #
edge $-1 $664 -8.763413302819405 $763 8.763413302819405 $659 $764 forward 7 unknown #
plane-surface $-1 0 24.948588033874334 0 0 -1 0 0 0 -1 forward_v I I I I #
coedge $-1 $765 $705 $661 $721 reversed $649 $-1 #
edge $-1 $724 -40.859401226844078 $766 40.859401226844078 $661 $767 forward 7 unknown #
coedge $-1 $662 $768 $765 $769 forward $723 $-1 #
loop $-1 $-1 $722 $770 #
vertex $-1 $769 $771 #
straight-curve $-1 -40.859401226844078 0 8.763413302819405 0 -1 0 I I #
point $-1 -40.859401226844078 24.948588033874334 8.763413302819405 #
point $-1 0.64299541873511679 24.948588033874337 4.4544340920408239 #
straight-curve $-1 0 -24.948588033874334 -8.763413302819405 -1 0 0 I I #
coedge $-1 $693 $676 $733 $772 forward $618 $-1 #
edge $-1 $694 -24.948588033874334 $736 24.948588033874334 $685 $773 forward 7 unknown #
straight-curve $-1 -40.859401226844078 -9.6227012053080472 4.3746728134060966 0 1 0 I I #
point $-1 -40.859401226844078 -13.542216787357855 4.3746728134060966 #
coedge $-1 $682 $681 $729 $772 reversed $674 $-1 #
edge $-1 $683 -4.3746728134060966 $740 8.763413302819405 $696 $774 forward 7 unknown #
point $-1 -40.859401226844078 -24.948588033874334 4.3746728134060966 #
vertex $-1 $686 $775 #
straight-curve $-1 40.859401226844078 -24.948588033874334 0 0 0 -1 I I #
straight-curve $-1 40.859401226844078 24.948588033874334 0 0 0 -1 I I #
point $-1 40.859401226844078 24.948588033874334 -8.763413302819405 #
vertex $-1 $697 $776 #
straight-curve $-1 -40.859401226844078 0 -8.763413302819405 0 1 0 I I #
face $-1 $770 $777 $19 $-1 $778 reversed single #
loop $-1 $-1 $779 $702 #
plane-surface $-1 0 0 -8.763413302819405 0 0 1 1 0 0 forward_v I I I I #
coedge $-1 $708 $756 $705 $747 forward $703 $-1 #
coedge $-1 $705 $765 $706 $749 forward $649 $-1 #
edge $-1 $766 -5.4788917737630296 $753 -1.0901512843497212 $745 $780 forward 7 unknown #
coedge $-1 $707 $706 $768 $781 reversed $582 $-1 #
edge $-1 $782 -40.859401226844078 $753 40.859401226844078 $746 $783 forward 7 unknown #
coedge $-1 $784 $785 $707 $751 forward $777 $-1 #
edge $-1 $754 -40.859401226844078 $786 40.859401226844078 $750 $787 forward 7 unknown #
coedge $-1 $788 $708 $785 $789 forward $703 $-1 #
vertex $-1 $709 $790 #
vertex $-1 $789 $791 #
straight-curve $-1 40.859401226844078 -9.6227012053080472 4.3746728134060966 0 -1 0 I I #
coedge $-1 $745 $792 $710 $757 reversed $703 $-1 #
edge $-1 $766 -13.542216787357855 $759 24.948588033874334 $756 $793 forward 7 unknown #
coedge $-1 $716 $711 $792 $794 forward $593 $-1 #
vertex $-1 $757 $795 #
coedge $-1 $779 $796 $716 $761 forward $743 $-1 #
edge $-1 $763 -40.859401226844078 $797 40.859401226844078 $716 $798 forward 7 unknown #
coedge $-1 $799 $717 $796 $800 reversed $723 $-1 #
vertex $-1 $761 $801 #
straight-curve $-1 -40.859401226844078 24.948588033874334 0 0 0 -1 I I #
coedge $-1 $746 $720 $722 $769 reversed $649 $-1 #
vertex $-1 $757 $802 #
straight-curve $-1 0 -13.542216787357855 8.763413302819405 1 0 0 I I #
coedge $-1 $722 $799 $748 $781 forward $723 $-1 #
edge $-1 $782 1.0901512843497212 $724 5.4788917737630296 $722 $803 forward 7 unknown #
face $-1 $660 $723 $19 $-1 $804 reversed single #
point $-1 -40.859401226844078 -13.542216787357855 8.763413302819405 #
edge $-1 $736 -40.859401226844078 $740 40.859401226844078 $733 $805 forward 7 unknown #
straight-curve $-1 40.859401226844078 0 -8.763413302819405 0 -1 0 I I #
straight-curve $-1 -40.859401226844078 -24.948588033874334 0 0 0 -1 I I #
point $-1 40.859401226844078 -24.948588033874334 -8.763413302819405 #
point $-1 -40.859401226844078 -24.948588033874334 -8.763413302819405 #
loop $-1 $-1 $750 $742 #
plane-surface $-1 0 -24.948588033874334 0 0 1 0 0 0 1 forward_v I I I I #
coedge $-1 $806 $760 $788 $807 forward $743 $-1 #
straight-curve $-1 40.859401226844078 -13.542216787357855 3.2845215290563754 0 0 -1 I I #
edge $-1 $786 -15.325886828566286 $782 -3.919515582049808 $768 $808 forward 7 unknown #
vertex $-1 $781 $809 #
straight-curve $-1 0 -13.542216787357855 4.3746728134060966 1 0 0 I I #
coedge $-1 $810 $750 $799 $811 forward $777 $-1 #
coedge $-1 $750 $810 $752 $789 reversed $777 $-1 #
vertex $-1 $811 $812 #
straight-curve $-1 0 -24.948588033874334 4.3746728134060966 -1 0 0 I I #
coedge $-1 $792 $752 $779 $807 reversed $703 $-1 #
edge $-1 $754 -4.3746728134060966 $813 8.763413302819405 $752 $814 forward 7 unknown #
point $-1 40.859401226844078 -13.542216787357855 4.3746728134060966 #
point $-1 40.859401226844078 -24.948588033874334 4.3746728134060966 #
coedge $-1 $756 $788 $758 $794 reversed $703 $-1 #
straight-curve $-1 40.859401226844078 0 8.763413302819405 0 1 0 I I #
edge $-1 $759 -8.763413302819405 $797 8.763413302819405 $792 $815 forward 7 unknown #
point $-1 40.859401226844078 24.948588033874334 8.763413302819405 #
coedge $-1 $760 $806 $762 $800 forward $743 $-1 #
vertex $-1 $807 $816 #
straight-curve $-1 0 24.948588033874334 -8.763413302819405 1 0 0 I I #
coedge $-1 $768 $762 $784 $811 reversed $723 $-1 #
edge $-1 $817 -24.948588033874334 $763 24.948588033874334 $762 $818 forward 7 unknown #
point $-1 -40.859401226844078 24.948588033874334 -8.763413302819405 #
point $-1 40.859401226844078 -13.542216787357855 8.763413302819405 #
straight-curve $-1 -40.859401226844078 -13.542216787357855 3.2845215290563754 0 0 1 I I #
plane-surface $-1 -40.859401226844078 0 0 1 0 0 0 0 -1 forward_v I I I I #
straight-curve $-1 0 -24.948588033874334 -8.763413302819405 -1 0 0 I I #
coedge $-1 $796 $779 $810 $819 forward $743 $-1 #
edge $-1 $797 -24.948588033874334 $813 24.948588033874334 $788 $820 forward 7 unknown #
straight-curve $-1 -40.859401226844078 -9.6227012053080472 4.3746728134060966 0 1 0 I I #
point $-1 -40.859401226844078 -13.542216787357855 4.3746728134060966 #
coedge $-1 $785 $784 $806 $819 reversed $777 $-1 #
edge $-1 $786 -4.3746728134060966 $817 8.763413302819405 $799 $821 forward 7 unknown #
point $-1 -40.859401226844078 -24.948588033874334 4.3746728134060966 #
vertex $-1 $789 $822 #
straight-curve $-1 40.859401226844078 -24.948588033874334 0 0 0 -1 I I #
straight-curve $-1 40.859401226844078 24.948588033874334 0 0 0 -1 I I #
point $-1 40.859401226844078 24.948588033874334 -8.763413302819405 #
vertex $-1 $800 $823 #
straight-curve $-1 -40.859401226844078 0 -8.763413302819405 0 1 0 I I #
edge $-1 $813 -40.859401226844078 $817 40.859401226844078 $810 $824 forward 7 unknown #
straight-curve $-1 40.859401226844078 0 -8.763413302819405 0 -1 0 I I #
straight-curve $-1 -40.859401226844078 -24.948588033874334 0 0 0 -1 I I #
point $-1 40.859401226844078 -24.948588033874334 -8.763413302819405 #
point $-1 -40.859401226844078 -24.948588033874334 -8.763413302819405 #
straight-curve $-1 0 -24.948588033874334 -8.763413302819405 -1 0 0 I I #
End-of-ACIS-data 