500 0 4 0           
7 Unknown 11 ACIS 5.0 NT 24 Thu Mar 25 19:12:26 1999 
-1 9.9999999999999995e-007 1e-010 
body $-1 $4 $-1 $5 #
body $-1 $6 $-1 $7 #
body $-1 $8 $-1 $9 #
body $-1 $10 $-1 $11 #
lump $-1 $-1 $12 $0 #
transform $-1 1 0 0 0 1 0 0 0 1 79.940183721427047 47.378836937321992 22.111762626432171 1 rotate no_reflect no_shear #
lump $-1 $-1 $13 $1 #
transform $-1 1 0 0 0 1 0 0 0 1 79.940183721427047 47.378836937321992 22.111762626432171 1 rotate no_reflect no_shear #
lump $-1 $-1 $14 $2 #
transform $-1 1 0 0 0 1 0 0 0 1 79.940183721427047 47.378836937321992 22.111762626432171 1 rotate no_reflect no_shear #
lump $-1 $-1 $15 $3 #
transform $-1 1 0 0 0 1 0 0 0 1 79.940183721427047 47.378836937321992 22.111762626432171 1 rotate no_reflect no_shear #
shell $-1 $-1 $-1 $16 $-1 $4 #
shell $-1 $-1 $-1 $17 $-1 $6 #
shell $-1 $-1 $-1 $18 $-1 $8 #
shell $-1 $-1 $-1 $19 $-1 $10 #
face $-1 $20 $21 $12 $-1 $22 forward single #
face $-1 $23 $24 $13 $-1 $25 forward single #
face $-1 $26 $27 $14 $-1 $28 reversed single #
face $-1 $29 $30 $15 $-1 $31 forward single #
face $-1 $32 $33 $12 $-1 $34 reversed single #
loop $-1 $-1 $35 $16 #
plane-surface $-1 0 0 22.111762626432171 0 0 1 1 0 0 forward_v I I I I #
face $-1 $36 $37 $13 $-1 $38 reversed single #
loop $-1 $-1 $39 $17 #
plane-surface $-1 0 -47.378836937321992 0 0 1 0 0 0 1 forward_v I I I I #
face $-1 $40 $41 $14 $-1 $42 reversed single #
loop $-1 $-1 $43 $18 #
plane-surface $-1 55.971546708898231 87.115611807359457 197.94218626361373 1 0 0 0 -0.68199836817093118 -0.7313536940579346 forward_v I I I I #
face $-1 $44 $45 $15 $-1 $46 forward single #
loop $-1 $47 $48 $19 #
cone-surface $-1 67.955865215162646 42.981941896782175 17.825841329690796 0 -0.68199836817093118 -0.7313536940579346 1.5 0 0 1 I I 0 1 1.5 forward I I I I #
face $-1 $49 $50 $12 $-1 $51 reversed single #
loop $-1 $-1 $52 $20 #
plane-surface $-1 0 0 -22.111762626432171 0 0 1 1 0 0 forward_v I I I I #
coedge $-1 $53 $54 $55 $56 forward $21 $-1 #
face $-1 $57 $58 $13 $-1 $59 reversed single #
loop $-1 $-1 $60 $23 #
plane-surface $-1 0 0 -22.111762626432171 0 0 1 1 0 0 forward_v I I I I #
coedge $-1 $61 $62 $63 $64 forward $24 $-1 #
face $-1 $65 $66 $14 $-1 $67 forward single #
loop $-1 $-1 $68 $26 #
plane-surface $-1 67.955865215162646 -21.922537891235905 81.013088926942459 0 0.68199836817093118 0.7313536940579346 1 0 0 forward_v I I I I #
coedge $-1 $69 $70 $71 $72 reversed $27 $-1 #
face $-1 $-1 $73 $15 $-1 $74 forward single #
loop $-1 $75 $76 $29 #
cone-surface $-1 67.955865215162646 41.142266544583791 15.853031089241068 0 -0.68199836817093118 -0.7313536940579346 0.75 0 0 1 I I -0.70710678118654757 0.70710678118654757 0.75 forward I I I I #
loop $-1 $-1 $77 $19 #
coedge $-1 $48 $48 $78 $79 reversed $30 $-1 #
face $-1 $80 $81 $12 $-1 $82 reversed single #
loop $-1 $-1 $83 $32 #
plane-surface $-1 0 -47.378836937321992 0 0 1 0 0 0 1 forward_v I I I I #
coedge $-1 $84 $85 $86 $87 forward $33 $-1 #
coedge $-1 $88 $35 $89 $90 forward $21 $-1 #
coedge $-1 $35 $88 $91 $92 forward $21 $-1 #
coedge $-1 $93 $94 $35 $56 reversed $95 $-1 #
edge $-1 $96 -47.378836937321992 $97 47.378836937321992 $55 $98 forward 7 unknown #
face $-1 $99 $100 $13 $-1 $101 forward single #
loop $-1 $-1 $102 $36 #
plane-surface $-1 79.940183721427047 0 0 -1 0 0 0 0 1 forward_v I I I I #
coedge $-1 $103 $104 $105 $106 forward $37 $-1 #
coedge $-1 $105 $39 $102 $107 reversed $24 $-1 #
coedge $-1 $39 $105 $108 $109 reversed $24 $-1 #
coedge $-1 $110 $111 $39 $64 reversed $100 $-1 #
edge $-1 $112 -79.940183721427047 $113 79.940183721427047 $63 $114 forward 7 unknown #
face $-1 $115 $116 $14 $-1 $117 reversed single #
loop $-1 $-1 $71 $40 #
plane-surface $-1 0 0 22.111762626432171 0 0 1 1 0 0 forward_v I I I I #
coedge $-1 $118 $119 $120 $121 reversed $41 $-1 #
coedge $-1 $70 $43 $122 $123 reversed $27 $-1 #
coedge $-1 $43 $69 $118 $124 reversed $27 $-1 #
coedge $-1 $120 $125 $43 $72 forward $66 $-1 #
edge $-1 $126 -3.8210310336422637 $127 2.3164058952969384 $71 $128 forward 7 unknown #
loop $-1 $-1 $78 $44 #
plane-surface $-1 67.955865215162646 -21.922537891235905 81.013088926942459 0 0.68199836817093118 0.7313536940579346 1 0 0 forward_v I I I I #
loop $-1 $-1 $129 $29 #
coedge $-1 $76 $76 $77 $130 reversed $45 $-1 #
coedge $-1 $77 $77 $76 $130 forward $47 $-1 #
coedge $-1 $78 $78 $48 $79 forward $73 $-1 #
edge $-1 $131 -7.0138136560165516e-016 $131 6.2831853071795996 $78 $132 forward 7 unknown #
face $-1 $133 $134 $12 $-1 $135 reversed single #
loop $-1 $-1 $136 $49 #
plane-surface $-1 -79.940183721427047 0 0 1 0 0 0 0 -1 forward_v I I I I #
coedge $-1 $137 $91 $138 $139 forward $50 $-1 #
coedge $-1 $140 $52 $137 $141 forward $33 $-1 #
coedge $-1 $52 $140 $142 $143 forward $33 $-1 #
coedge $-1 $94 $93 $52 $87 reversed $95 $-1 #
edge $-1 $144 -47.378836937321992 $145 47.378836937321992 $86 $146 forward 7 unknown #
coedge $-1 $54 $53 $147 $148 forward $21 $-1 #
coedge $-1 $149 $150 $53 $90 reversed $134 $-1 #
edge $-1 $97 -79.940183721427047 $151 79.940183721427047 $89 $152 forward 7 unknown #
coedge $-1 $83 $153 $54 $92 reversed $50 $-1 #
edge $-1 $154 -79.940183721427047 $96 79.940183721427047 $91 $155 forward 7 unknown #
coedge $-1 $86 $55 $153 $156 forward $95 $-1 #
coedge $-1 $55 $86 $149 $157 reversed $95 $-1 #
loop $-1 $-1 $93 $133 #
vertex $-1 $56 $158 #
vertex $-1 $56 $159 #
straight-curve $-1 79.940183721427047 0 22.111762626432171 0 1 0 I I #
face $-1 $160 $161 $13 $-1 $162 reversed single #
loop $-1 $-1 $111 $57 #
plane-surface $-1 0 -55.815891159775063 -9.9611240113922701 0 0 1 1 0 0 forward_v I I I I #
coedge $-1 $163 $164 $61 $107 forward $58 $-1 #
coedge $-1 $165 $60 $164 $166 forward $37 $-1 #
coedge $-1 $60 $165 $167 $168 forward $37 $-1 #
coedge $-1 $62 $61 $60 $106 reversed $24 $-1 #
edge $-1 $169 -79.940183721427047 $170 79.940183721427047 $60 $171 forward 7 unknown #
edge $-1 $170 -22.111762626432171 $113 -9.9611240113922701 $102 $172 forward 7 unknown #
coedge $-1 $167 $173 $62 $109 forward $174 $-1 #
edge $-1 $112 9.9611240113922701 $169 22.111762626432171 $108 $175 forward 7 unknown #
coedge $-1 $176 $63 $173 $177 forward $100 $-1 #
coedge $-1 $63 $176 $163 $178 forward $100 $-1 #
vertex $-1 $109 $179 #
vertex $-1 $178 $180 #
straight-curve $-1 0 -47.378836937321992 -9.9611240113922701 1 0 0 I I #
face $-1 $-1 $181 $14 $-1 $182 reversed single #
loop $-1 $-1 $183 $65 #
plane-surface $-1 79.940183721427047 0 0 -1 0 0 0 0 1 forward_v I I I I #
coedge $-1 $184 $68 $70 $124 forward $41 $-1 #
coedge $-1 $68 $184 $183 $185 reversed $41 $-1 #
coedge $-1 $186 $71 $68 $121 forward $66 $-1 #
edge $-1 $127 21.993614101316908 $187 45.962251113845738 $120 $188 forward 7 unknown #
coedge $-1 $189 $190 $69 $123 forward $181 $-1 #
edge $-1 $191 -82.582583159044859 $126 -76.8593305053747 $122 $192 forward 7 unknown #
edge $-1 $127 86.365787734183684 $191 94.757673874643956 $70 $193 forward 7 unknown #
coedge $-1 $71 $186 $189 $194 forward $66 $-1 #
vertex $-1 $123 $195 #
vertex $-1 $72 $196 #
straight-curve $-1 55.971546708898231 43.557805903679728 22.111762626432167 0 -1 0 I I #
coedge $-1 $129 $129 $-1 $197 reversed $75 $-1 #
edge $-1 $198 0 $198 6.2831853071796004 $76 $199 forward 7 unknown #
vertex $-1 $79 $200 #
ellipse-curve $-1 67.955865215162646 44.310118472852373 19.250136299597095 0 0.68199836817093118 0.7313536940579346 1.5 0 0 1 I I #
face $-1 $-1 $95 $12 $-1 $201 reversed single #
loop $-1 $-1 $149 $80 #
plane-surface $-1 0 47.378836937321992 0 0 -1 0 0 0 -1 forward_v I I I I #
coedge $-1 $202 $147 $150 $203 forward $81 $-1 #
coedge $-1 $153 $83 $84 $141 reversed $50 $-1 #
coedge $-1 $147 $202 $83 $139 reversed $81 $-1 #
edge $-1 $154 -22.111762626432171 $204 22.111762626432171 $138 $205 forward 7 unknown #
coedge $-1 $85 $84 $202 $206 forward $33 $-1 #
edge $-1 $145 -79.940183721427047 $204 79.940183721427047 $137 $207 forward 7 unknown #
coedge $-1 $150 $149 $85 $143 reversed $134 $-1 #
edge $-1 $208 -79.940183721427047 $144 79.940183721427047 $142 $209 forward 7 unknown #
vertex $-1 $87 $210 #
vertex $-1 $156 $211 #
straight-curve $-1 79.940183721427047 0 -22.111762626432171 0 -1 0 I I #
coedge $-1 $136 $138 $88 $148 reversed $81 $-1 #
edge $-1 $151 -47.378836937321992 $154 47.378836937321992 $147 $212 forward 7 unknown #
coedge $-1 $142 $89 $94 $157 forward $134 $-1 #
coedge $-1 $89 $142 $136 $203 reversed $134 $-1 #
vertex $-1 $90 $213 #
straight-curve $-1 0 47.378836937321992 22.111762626432171 -1 0 0 I I #
coedge $-1 $91 $137 $93 $156 reversed $50 $-1 #
vertex $-1 $148 $214 #
straight-curve $-1 0 -47.378836937321992 22.111762626432171 1 0 0 I I #
edge $-1 $96 -22.111762626432171 $145 22.111762626432171 $93 $215 forward 7 unknown #
edge $-1 $97 -22.111762626432171 $144 22.111762626432171 $94 $216 forward 7 unknown #
point $-1 79.940183721427047 -47.378836937321992 22.111762626432171 #
point $-1 79.940183721427047 47.378836937321992 22.111762626432171 #
face $-1 $-1 $174 $13 $-1 $217 reversed single #
loop $-1 $-1 $218 $99 #
plane-surface $-1 0 -64.252945382228134 -16.03644331891222 0 1 0 0 0 1 forward_v I I I I #
coedge $-1 $219 $102 $111 $178 reversed $58 $-1 #
coedge $-1 $102 $219 $103 $166 reversed $58 $-1 #
coedge $-1 $104 $103 $220 $221 forward $37 $-1 #
edge $-1 $170 47.378836937321992 $222 64.252945382228134 $164 $223 forward 7 unknown #
coedge $-1 $224 $108 $104 $168 reversed $174 $-1 #
edge $-1 $225 -64.252945382228134 $169 -47.378836937321992 $167 $226 forward 7 unknown #
vertex $-1 $109 $227 #
vertex $-1 $166 $228 #
straight-curve $-1 0 -47.378836937321992 -22.111762626432171 1 0 0 I I #
straight-curve $-1 79.940183721427047 -47.378836937321992 0 0 0 1 I I #
coedge $-1 $108 $224 $110 $177 reversed $174 $-1 #
loop $-1 $-1 $108 $160 #
straight-curve $-1 -79.940183721427047 -47.378836937321992 0 0 0 -1 I I #
coedge $-1 $111 $110 $229 $230 forward $100 $-1 #
edge $-1 $112 -8.4370542224530709 $231 8.4370542224530709 $173 $232 forward 7 unknown #
edge $-1 $233 -8.4370542224530709 $113 8.4370542224530709 $163 $234 forward 7 unknown #
point $-1 -79.940183721427047 -47.378836937321992 -9.9611240113922701 #
point $-1 79.940183721427047 -47.378836937321992 -9.9611240113922701 #
loop $-1 $-1 $122 $115 #
plane-surface $-1 0 47.378836937321992 0 0 -1 0 0 0 -1 forward_v I I I I #
coedge $-1 $235 $236 $119 $185 forward $116 $-1 #
coedge $-1 $119 $118 $190 $237 reversed $41 $-1 #
edge $-1 $187 50.723825974912828 $238 59.115712115373093 $183 $239 forward 7 unknown #
coedge $-1 $125 $120 $236 $240 forward $66 $-1 #
vertex $-1 $240 $241 #
straight-curve $-1 33.977932607581323 41.241400008382776 22.111762626432181 1 0 0 I I #
coedge $-1 $242 $122 $125 $194 reversed $181 $-1 #
coedge $-1 $122 $242 $184 $237 forward $181 $-1 #
vertex $-1 $123 $243 #
straight-curve $-1 55.971546708898231 47.378836937321992 98.971093131806867 0 0 1 I I #
straight-curve $-1 55.971546708898231 -21.922537891235905 81.013088926942459 0 0.7313536940579346 -0.68199836817093118 I I #
edge $-1 $244 -79.940183721427047 $126 -55.971546708898231 $189 $245 forward 7 unknown #
point $-1 55.971546708898231 47.378836937321992 22.111762626432171 #
point $-1 55.971546708898231 41.24140000838279 22.11176262643216 #
edge $-1 $246 1 $246 0 $129 $-1 forward 7 unknown #
vertex $-1 $130 $247 #
ellipse-curve $-1 67.955865215162646 41.65376532071199 16.401546359784518 0 0.68199836817093118 0.7313536940579346 1.5 0 0 1 I I #
point $-1 69.455865215162646 44.310118472852352 19.250136299597074 #
plane-surface $-1 79.940183721427047 0 0 -1 0 0 0 0 1 forward_v I I I I #
coedge $-1 $138 $136 $140 $206 reversed $81 $-1 #
edge $-1 $151 -22.111762626432171 $208 22.111762626432171 $150 $248 forward 7 unknown #
vertex $-1 $206 $249 #
straight-curve $-1 -79.940183721427047 -47.378836937321992 0 0 0 -1 I I #
edge $-1 $204 -47.378836937321992 $208 47.378836937321992 $202 $250 forward 7 unknown #
straight-curve $-1 0 -47.378836937321992 -22.111762626432171 -1 0 0 I I #
vertex $-1 $143 $251 #
straight-curve $-1 0 47.378836937321992 -22.111762626432171 1 0 0 I I #
point $-1 79.940183721427047 47.378836937321992 -22.111762626432171 #
point $-1 79.940183721427047 -47.378836937321992 -22.111762626432171 #
straight-curve $-1 -79.940183721427047 0 22.111762626432171 0 -1 0 I I #
point $-1 -79.940183721427047 47.378836937321992 22.111762626432171 #
point $-1 -79.940183721427047 -47.378836937321992 22.111762626432171 #
straight-curve $-1 79.940183721427047 -47.378836937321992 0 0 0 -1 I I #
straight-curve $-1 79.940183721427047 47.378836937321992 0 0 0 -1 I I #
plane-surface $-1 -79.940183721427047 0 0 1 0 0 0 0 -1 forward_v I I I I #
coedge $-1 $220 $229 $224 $252 forward $161 $-1 #
coedge $-1 $164 $163 $253 $254 forward $58 $-1 #
coedge $-1 $253 $218 $165 $221 reversed $161 $-1 #
edge $-1 $222 -79.940183721427047 $225 79.940183721427047 $220 $255 forward 7 unknown #
vertex $-1 $254 $256 #
straight-curve $-1 79.940183721427047 0 -22.111762626432171 0 -1 0 I I #
coedge $-1 $173 $167 $218 $252 reversed $174 $-1 #
vertex $-1 $168 $257 #
straight-curve $-1 -79.940183721427047 0 -22.111762626432171 0 1 0 I I #
point $-1 -79.940183721427047 -47.378836937321992 -22.111762626432171 #
point $-1 79.940183721427047 -47.378836937321992 -22.111762626432171 #
coedge $-1 $218 $253 $176 $230 reversed $161 $-1 #
edge $-1 $231 -79.940183721427047 $233 79.940183721427047 $229 $258 forward 7 unknown #
vertex $-1 $177 $259 #
straight-curve $-1 -79.940183721427047 -55.815891159775063 -9.9611240113922701 0 -1 0 I I #
vertex $-1 $178 $260 #
straight-curve $-1 79.940183721427047 -55.815891159775063 -9.9611240113922701 0 1 0 I I #
coedge $-1 $236 $183 $242 $261 reversed $116 $-1 #
coedge $-1 $183 $235 $186 $240 reversed $116 $-1 #
edge $-1 $238 -45.962251113845738 $191 -21.993614101316908 $190 $262 forward 7 unknown #
vertex $-1 $185 $263 #
straight-curve $-1 79.940183721427047 4.1443425048784768 56.705329168709 0 0.7313536940579346 -0.68199836817093118 I I #
edge $-1 $187 41.24140000838279 $244 47.378836937321992 $236 $264 forward 7 unknown #
point $-1 79.940183721427061 41.24140000838279 22.11176262643216 #
coedge $-1 $190 $189 $235 $261 forward $181 $-1 #
point $-1 55.971546708898231 47.378836937321992 16.388509972762009 #
vertex $-1 $240 $265 #
straight-curve $-1 0 47.378836937321992 22.111762626432171 -1 0 0 I I #
vertex $-1 $197 $266 #
point $-1 69.455865215162646 41.65376532071199 16.401546359784518 #
straight-curve $-1 -79.940183721427047 47.378836937321992 0 0 0 -1 I I #
point $-1 -79.940183721427047 -47.378836937321992 -22.111762626432171 #
straight-curve $-1 -79.940183721427047 0 -22.111762626432171 0 1 0 I I #
point $-1 -79.940183721427047 47.378836937321992 -22.111762626432171 #
edge $-1 $231 -6.0753193075199494 $225 6.0753193075199476 $224 $267 forward 7 unknown #
coedge $-1 $229 $220 $219 $254 reversed $161 $-1 #
edge $-1 $233 -6.0753193075199494 $222 6.0753193075199476 $219 $268 forward 7 unknown #
straight-curve $-1 0 -64.252945382228134 -22.111762626432167 -1 0 0 I I #
point $-1 79.940183721427047 -64.252945382228134 -22.111762626432167 #
point $-1 -79.940183721427047 -64.252945382228134 -22.111762626432167 #
straight-curve $-1 0 -64.252945382228134 -9.9611240113922701 1 0 0 I I #
point $-1 -79.940183721427047 -64.252945382228134 -9.9611240113922701 #
point $-1 79.940183721427047 -64.252945382228134 -9.9611240113922701 #
edge $-1 $244 -22.111762626432171 $238 -16.388509972762009 $235 $269 forward 7 unknown #
straight-curve $-1 33.977932607581323 47.378836937321992 16.388509972762012 -1 0 0 I I #
point $-1 79.940183721427061 47.378836937321992 16.388509972762009 #
straight-curve $-1 79.940183721427047 0 22.111762626432171 0 1 0 I I #
point $-1 79.940183721427047 47.378836937321992 22.111762626432171 #
point $-1 67.955865215162646 40.630767768455591 15.304515818697617 #
straight-curve $-1 -79.940183721427047 -64.252945382228134 -16.03644331891222 0 0 -1 I I #
straight-curve $-1 79.940183721427047 -64.252945382228134 -16.03644331891222 0 0 -1 I I #
straight-curve $-1 79.940183721427047 47.378836937321992 0 0 0 -1 I I #
End-of-ACIS-data 