500 0 9 0           
7 Unknown 11 ACIS 5.0 NT 24 Fri Mar 26 17:30:20 1999 
-1 9.9999999999999995e-007 1e-010 
body $-1 $9 $-1 $10 #
body $-1 $11 $-1 $12 #
body $-1 $13 $-1 $14 #
body $-1 $15 $-1 $16 #
body $-1 $17 $-1 $18 #
body $-1 $19 $-1 $20 #
body $-1 $21 $-1 $22 #
body $-1 $23 $-1 $24 #
body $-1 $25 $-1 $26 #
lump $-1 $-1 $27 $0 #
transform $-1 1 0 0 0 1 0 0 0 1 65.924863429670097 30.801419238569032 12.663296582856498 1 rotate no_reflect no_shear #
lump $-1 $-1 $28 $1 #
transform $-1 1 0 0 0 1 0 0 0 1 65.924863429670097 30.801419238569032 12.663296582856498 1 rotate no_reflect no_shear #
lump $-1 $-1 $29 $2 #
transform $-1 1 0 0 0 1 0 0 0 1 65.924863429670097 30.801419238569032 12.663296582856498 1 rotate no_reflect no_shear #
lump $-1 $-1 $30 $3 #
transform $-1 1 0 0 0 1 0 0 0 1 65.924863429670097 30.801419238569032 12.663296582856498 1 rotate no_reflect no_shear #
lump $-1 $-1 $31 $4 #
transform $-1 1 0 0 0 1 0 0 0 1 65.924863429670097 30.801419238569032 12.663296582856498 1 rotate no_reflect no_shear #
lump $-1 $-1 $32 $5 #
transform $-1 1 0 0 0 1 0 0 0 1 65.924863429670097 30.801419238569032 12.663296582856498 1 rotate no_reflect no_shear #
lump $-1 $-1 $33 $6 #
transform $-1 1 0 0 0 1 0 0 0 1 65.924863429670097 30.801419238569032 12.663296582856498 1 rotate no_reflect no_shear #
lump $-1 $-1 $34 $7 #
transform $-1 1 0 0 0 1 0 0 0 1 65.924863429670097 30.801419238569032 12.663296582856498 1 rotate no_reflect no_shear #
lump $-1 $-1 $35 $8 #
transform $-1 1 0 0 0 1 0 0 0 1 65.924863429670097 30.801419238569032 12.663296582856498 1 rotate no_reflect no_shear #
shell $-1 $-1 $-1 $36 $-1 $9 #
shell $-1 $-1 $-1 $37 $-1 $11 #
shell $-1 $-1 $-1 $38 $-1 $13 #
shell $-1 $-1 $-1 $39 $-1 $15 #
shell $-1 $-1 $-1 $40 $-1 $17 #
shell $-1 $-1 $-1 $41 $-1 $19 #
shell $-1 $-1 $-1 $42 $-1 $21 #
shell $-1 $-1 $-1 $43 $-1 $23 #
shell $-1 $-1 $-1 $44 $-1 $25 #
face $-1 $45 $46 $27 $-1 $47 forward single #
face $-1 $48 $49 $28 $-1 $50 reversed single #
face $-1 $51 $52 $29 $-1 $53 forward single #
face $-1 $54 $55 $30 $-1 $56 forward single #
face $-1 $57 $58 $31 $-1 $59 forward single #
face $-1 $60 $61 $32 $-1 $62 reversed single #
face $-1 $63 $64 $33 $-1 $65 forward single #
face $-1 $66 $67 $34 $-1 $68 forward single #
face $-1 $69 $70 $35 $-1 $71 forward single #
face $-1 $72 $73 $27 $-1 $74 reversed single #
loop $-1 $-1 $75 $36 #
plane-surface $-1 0 0 12.663296582856498 0 0 1 1 0 0 forward_v I I I I #
face $-1 $76 $77 $28 $-1 $78 reversed single #
loop $-1 $-1 $79 $37 #
plane-surface $-1 -50.64366236740095 -108.30074519538297 106.74062690918255 -1 0 0 0 -0.5877852598018023 0.80901698891910034 forward_v I I I I #
face $-1 $80 $81 $29 $-1 $82 forward single #
loop $-1 $83 $84 $38 #
cone-surface $-1 -62.868623217216268 -21.185550084759232 5.0592057691445396 0 0.5877852598018023 -0.80901698891910034 1 0 0 1 I I 0 1 1 forward I I I I #
face $-1 $85 $86 $30 $-1 $87 forward single #
loop $-1 $88 $89 $39 #
cone-surface $-1 -58.284262898535523 -21.185550084759232 5.0592057691445396 0 0.5877852598018023 -0.80901698891910034 1 0 0 1 I I 0 1 1 forward I I I I #
face $-1 $90 $91 $31 $-1 $92 forward single #
loop $-1 $93 $94 $40 #
cone-surface $-1 -53.699902579854779 -21.185550084759232 5.0592057691445396 0 0.5877852598018023 -0.80901698891910034 1 0 0 1 I I 0 1 1 forward I I I I #
face $-1 $95 $96 $32 $-1 $97 reversed single #
loop $-1 $-1 $98 $41 #
plane-surface $-1 58.284262898535516 -30.801419238569025 0.071957895633318003 0 -0.5877852598018023 0.80901698891910034 1 0 0 forward_v I I I I #
face $-1 $99 $100 $33 $-1 $101 forward single #
loop $-1 $102 $103 $42 #
cone-surface $-1 53.699902579854765 -21.185550084759232 5.0592057691445396 0 0.5877852598018023 -0.80901698891910034 1 0 0 1 I I 0 1 1 forward I I I I #
face $-1 $104 $105 $34 $-1 $106 forward single #
loop $-1 $107 $108 $43 #
cone-surface $-1 58.284262898535516 -21.185550084759232 5.0592057691445396 0 0.5877852598018023 -0.80901698891910034 1 0 0 1 I I 0 1 1 forward I I I I #
face $-1 $109 $110 $35 $-1 $111 forward single #
loop $-1 $112 $113 $44 #
cone-surface $-1 62.868623217216253 -21.185550084759232 5.0592057691445396 0 0.5877852598018023 -0.80901698891910034 1 0 0 1 I I 0 1 1 forward I I I I #
face $-1 $114 $115 $27 $-1 $116 reversed single #
loop $-1 $-1 $117 $45 #
plane-surface $-1 0 0 -12.663296582856498 0 0 1 1 0 0 forward_v I I I I #
coedge $-1 $118 $119 $120 $121 forward $46 $-1 #
face $-1 $122 $123 $28 $-1 $124 forward single #
loop $-1 $-1 $125 $48 #
plane-surface $-1 -58.284262898535523 -30.801419238569025 0.071957895633318003 0 -0.5877852598018023 0.80901698891910034 1 0 0 forward_v I I I I #
coedge $-1 $126 $127 $128 $129 reversed $49 $-1 #
face $-1 $-1 $130 $29 $-1 $131 forward single #
loop $-1 $132 $133 $51 #
cone-surface $-1 -62.868623217216268 -19.941033593719482 3.3462758045846197 0 0.5877852598018023 -0.80901698891910034 0.5 0 0 1 I I -0.70710678118654746 0.70710678118654746 0.5 forward I I I I #
loop $-1 $-1 $134 $38 #
coedge $-1 $84 $84 $135 $136 reversed $52 $-1 #
face $-1 $-1 $137 $30 $-1 $138 forward single #
loop $-1 $139 $140 $54 #
cone-surface $-1 -58.284262898535523 -19.941033593719482 3.3462758045846197 0 0.5877852598018023 -0.80901698891910034 0.5 0 0 1 I I -0.70710678118654746 0.70710678118654746 0.5 forward I I I I #
loop $-1 $-1 $141 $39 #
coedge $-1 $89 $89 $142 $143 reversed $55 $-1 #
face $-1 $-1 $144 $31 $-1 $145 forward single #
loop $-1 $146 $147 $57 #
cone-surface $-1 -53.699902579854779 -19.941033593719482 3.3462758045846197 0 0.5877852598018023 -0.80901698891910034 0.5 0 0 1 I I -0.70710678118654746 0.70710678118654746 0.5 forward I I I I #
loop $-1 $-1 $148 $40 #
coedge $-1 $94 $94 $149 $150 reversed $58 $-1 #
face $-1 $151 $152 $32 $-1 $153 reversed single #
loop $-1 $-1 $154 $60 #
plane-surface $-1 50.643662367400943 -108.30074519538297 106.74062690918255 1 0 0 0 0.5877852598018023 -0.80901698891910034 forward_v I I I I #
coedge $-1 $155 $156 $157 $158 reversed $61 $-1 #
face $-1 $-1 $159 $33 $-1 $160 forward single #
loop $-1 $161 $162 $63 #
cone-surface $-1 53.699902579854765 -19.941033593719482 3.3462758045846197 0 0.5877852598018023 -0.80901698891910034 0.5 0 0 1 I I -0.70710678118654746 0.70710678118654746 0.5 forward I I I I #
loop $-1 $-1 $163 $42 #
coedge $-1 $103 $103 $164 $165 reversed $64 $-1 #
face $-1 $-1 $166 $34 $-1 $167 forward single #
loop $-1 $168 $169 $66 #
cone-surface $-1 58.284262898535516 -19.941033593719482 3.3462758045846197 0 0.5877852598018023 -0.80901698891910034 0.5 0 0 1 I I -0.70710678118654746 0.70710678118654746 0.5 forward I I I I #
loop $-1 $-1 $170 $43 #
coedge $-1 $108 $108 $171 $172 reversed $67 $-1 #
face $-1 $-1 $173 $35 $-1 $174 forward single #
loop $-1 $175 $176 $69 #
cone-surface $-1 62.868623217216253 -19.941033593719482 3.3462758045846197 0 0.5877852598018023 -0.80901698891910034 0.5 0 0 1 I I -0.70710678118654746 0.70710678118654746 0.5 forward I I I I #
loop $-1 $-1 $177 $44 #
coedge $-1 $113 $113 $178 $179 reversed $70 $-1 #
face $-1 $180 $181 $27 $-1 $182 reversed single #
loop $-1 $-1 $183 $72 #
plane-surface $-1 0 -30.801419238569032 0 0 1 0 0 0 1 forward_v I I I I #
coedge $-1 $184 $185 $186 $187 forward $73 $-1 #
coedge $-1 $188 $75 $189 $190 forward $46 $-1 #
coedge $-1 $75 $188 $191 $192 forward $46 $-1 #
coedge $-1 $193 $194 $75 $121 reversed $195 $-1 #
edge $-1 $196 -30.801419238569032 $197 30.801419238569032 $120 $198 forward 7 unknown #
face $-1 $199 $200 $28 $-1 $201 reversed single #
loop $-1 $-1 $128 $76 #
plane-surface $-1 0 0 12.663296582856498 0 0 1 1 0 0 forward_v I I I I #
coedge $-1 $202 $203 $204 $205 reversed $77 $-1 #
coedge $-1 $127 $79 $206 $207 reversed $49 $-1 #
coedge $-1 $79 $126 $202 $208 reversed $49 $-1 #
coedge $-1 $204 $209 $79 $129 forward $123 $-1 #
edge $-1 $210 23.348953359122454 $211 40.67944394446436 $128 $212 forward 7 unknown #
loop $-1 $-1 $135 $80 #
plane-surface $-1 -58.284262898535523 -30.801419238569025 0.071957895633318003 0 -0.5877852598018023 0.80901698891910034 1 0 0 forward_v I I I I #
loop $-1 $-1 $213 $51 #
coedge $-1 $133 $133 $134 $214 reversed $81 $-1 #
coedge $-1 $134 $134 $133 $214 forward $83 $-1 #
coedge $-1 $135 $135 $84 $136 forward $130 $-1 #
edge $-1 $215 -1.3080311733935042e-015 $215 6.2831853071795996 $135 $216 forward 7 unknown #
loop $-1 $-1 $142 $85 #
plane-surface $-1 -58.284262898535523 -30.801419238569025 0.071957895633318003 0 -0.5877852598018023 0.80901698891910034 1 0 0 forward_v I I I I #
loop $-1 $-1 $217 $54 #
coedge $-1 $140 $140 $141 $218 reversed $86 $-1 #
coedge $-1 $141 $141 $140 $218 forward $88 $-1 #
coedge $-1 $142 $142 $89 $143 forward $137 $-1 #
edge $-1 $219 -1.3080311733935042e-015 $219 6.2831853071795996 $142 $220 forward 7 unknown #
loop $-1 $-1 $149 $90 #
plane-surface $-1 -58.284262898535523 -30.801419238569025 0.071957895633318003 0 -0.5877852598018023 0.80901698891910034 1 0 0 forward_v I I I I #
loop $-1 $-1 $221 $57 #
coedge $-1 $147 $147 $148 $222 reversed $91 $-1 #
coedge $-1 $148 $148 $147 $222 forward $93 $-1 #
coedge $-1 $149 $149 $94 $150 forward $144 $-1 #
edge $-1 $223 -1.3080311733935042e-015 $223 6.2831853071795996 $149 $224 forward 7 unknown #
face $-1 $225 $226 $32 $-1 $227 forward single #
loop $-1 $-1 $228 $95 #
plane-surface $-1 65.924863429670097 0 0 -1 0 0 0 0 1 forward_v I I I I #
coedge $-1 $229 $230 $231 $232 reversed $96 $-1 #
coedge $-1 $233 $98 $228 $234 reversed $61 $-1 #
coedge $-1 $98 $233 $229 $235 forward $61 $-1 #
coedge $-1 $231 $236 $98 $158 forward $226 $-1 #
edge $-1 $237 -36.782731980402339 $238 -21.501530918133184 $157 $239 forward 7 unknown #
loop $-1 $-1 $164 $99 #
plane-surface $-1 58.284262898535516 -30.801419238569025 0.071957895633318003 0 -0.5877852598018023 0.80901698891910034 1 0 0 forward_v I I I I #
loop $-1 $-1 $240 $63 #
coedge $-1 $162 $162 $163 $241 reversed $100 $-1 #
coedge $-1 $163 $163 $162 $241 forward $102 $-1 #
coedge $-1 $164 $164 $103 $165 forward $159 $-1 #
edge $-1 $242 -1.3080311733935042e-015 $242 6.2831853071795996 $164 $243 forward 7 unknown #
loop $-1 $-1 $171 $104 #
plane-surface $-1 58.284262898535516 -30.801419238569025 0.071957895633318003 0 -0.5877852598018023 0.80901698891910034 1 0 0 forward_v I I I I #
loop $-1 $-1 $244 $66 #
coedge $-1 $169 $169 $170 $245 reversed $105 $-1 #
coedge $-1 $170 $170 $169 $245 forward $107 $-1 #
coedge $-1 $171 $171 $108 $172 forward $166 $-1 #
edge $-1 $246 -1.3080311733935042e-015 $246 6.2831853071795996 $171 $247 forward 7 unknown #
loop $-1 $-1 $178 $109 #
plane-surface $-1 58.284262898535516 -30.801419238569025 0.071957895633318003 0 -0.5877852598018023 0.80901698891910034 1 0 0 forward_v I I I I #
loop $-1 $-1 $248 $69 #
coedge $-1 $176 $176 $177 $249 reversed $110 $-1 #
coedge $-1 $177 $177 $176 $249 forward $112 $-1 #
coedge $-1 $178 $178 $113 $179 forward $173 $-1 #
edge $-1 $250 -1.3080311733935042e-015 $250 6.2831853071795996 $178 $251 forward 7 unknown #
face $-1 $252 $253 $27 $-1 $254 reversed single #
loop $-1 $-1 $255 $114 #
plane-surface $-1 -65.924863429670097 0 0 1 0 0 0 0 -1 forward_v I I I I #
coedge $-1 $256 $191 $257 $258 forward $115 $-1 #
coedge $-1 $259 $117 $256 $260 forward $73 $-1 #
coedge $-1 $117 $259 $261 $262 forward $73 $-1 #
coedge $-1 $194 $193 $117 $187 reversed $195 $-1 #
edge $-1 $263 -30.801419238569032 $264 30.801419238569032 $186 $265 forward 7 unknown #
coedge $-1 $119 $118 $266 $267 forward $46 $-1 #
coedge $-1 $268 $269 $118 $190 reversed $253 $-1 #
edge $-1 $197 -65.924863429670097 $270 65.924863429670097 $189 $271 forward 7 unknown #
coedge $-1 $183 $272 $119 $192 reversed $115 $-1 #
edge $-1 $273 -65.924863429670097 $196 65.924863429670097 $191 $274 forward 7 unknown #
coedge $-1 $186 $120 $272 $275 forward $195 $-1 #
coedge $-1 $120 $186 $268 $276 reversed $195 $-1 #
loop $-1 $-1 $193 $252 #
vertex $-1 $121 $277 #
vertex $-1 $121 $278 #
straight-curve $-1 65.924863429670097 0 12.663296582856498 0 1 0 I I #
face $-1 $-1 $279 $28 $-1 $280 reversed single #
loop $-1 $-1 $281 $122 #
plane-surface $-1 -65.924863429670097 0 0 1 0 0 0 0 -1 forward_v I I I I #
coedge $-1 $282 $125 $127 $208 forward $77 $-1 #
coedge $-1 $125 $282 $281 $283 reversed $77 $-1 #
coedge $-1 $284 $128 $125 $205 forward $123 $-1 #
edge $-1 $211 21.501530918133188 $285 36.782731980402332 $204 $286 forward 7 unknown #
coedge $-1 $287 $288 $126 $207 forward $279 $-1 #
edge $-1 $289 -53.298355558957965 $210 -40.70701687173478 $206 $290 forward 7 unknown #
edge $-1 $211 -21.421664591366081 $289 8.7828746355274299e-015 $127 $291 forward 7 unknown #
coedge $-1 $128 $284 $287 $292 forward $123 $-1 #
vertex $-1 $207 $293 #
vertex $-1 $129 $294 #
straight-curve $-1 -50.64366236740095 -54.150372597691486 12.663296582856496 0 1 0 I I #
coedge $-1 $213 $213 $-1 $295 reversed $132 $-1 #
edge $-1 $296 0 $296 6.2831853071796004 $133 $297 forward 7 unknown #
vertex $-1 $136 $298 #
ellipse-curve $-1 -62.868623217216268 -22.136173945898079 6.3676272392449063 0 -0.5877852598018023 0.80901698891910034 1 0 0 1 I I #
coedge $-1 $217 $217 $-1 $299 reversed $139 $-1 #
edge $-1 $300 0 $300 6.2831853071796004 $140 $301 forward 7 unknown #
vertex $-1 $143 $302 #
ellipse-curve $-1 -58.284262898535523 -22.136173945898079 6.3676272392449063 0 -0.5877852598018023 0.80901698891910034 1 0 0 1 I I #
coedge $-1 $221 $221 $-1 $303 reversed $146 $-1 #
edge $-1 $304 0 $304 6.2831853071796004 $147 $305 forward 7 unknown #
vertex $-1 $150 $306 #
ellipse-curve $-1 -53.699902579854779 -22.136173945898079 6.3676272392449063 0 -0.5877852598018023 0.80901698891910034 1 0 0 1 I I #
face $-1 $-1 $307 $32 $-1 $308 reversed single #
loop $-1 $-1 $157 $151 #
plane-surface $-1 0 0 12.663296582856498 0 0 1 1 0 0 forward_v I I I I #
coedge $-1 $309 $310 $155 $234 forward $152 $-1 #
coedge $-1 $230 $154 $156 $235 reversed $96 $-1 #
coedge $-1 $154 $229 $311 $312 reversed $96 $-1 #
coedge $-1 $313 $157 $154 $232 forward $226 $-1 #
edge $-1 $238 -40.67944394446436 $314 -23.348953359122454 $231 $315 forward 7 unknown #
coedge $-1 $156 $155 $316 $317 reversed $61 $-1 #
edge $-1 $318 -12.438287828221178 $237 8.9833767631449124 $228 $319 forward 7 unknown #
edge $-1 $320 -8.7828746355274299e-015 $238 21.421664591366081 $229 $321 forward 7 unknown #
coedge $-1 $157 $313 $309 $322 forward $226 $-1 #
vertex $-1 $158 $323 #
vertex $-1 $158 $324 #
straight-curve $-1 29.142131449267758 -13.47092865322713 12.663296582856498 -1 0 0 I I #
coedge $-1 $240 $240 $-1 $325 reversed $161 $-1 #
edge $-1 $326 0 $326 6.2831853071796004 $162 $327 forward 7 unknown #
vertex $-1 $165 $328 #
ellipse-curve $-1 53.699902579854765 -22.136173945898079 6.3676272392449063 0 -0.5877852598018023 0.80901698891910034 1 0 0 1 I I #
coedge $-1 $244 $244 $-1 $329 reversed $168 $-1 #
edge $-1 $330 0 $330 6.2831853071796004 $169 $331 forward 7 unknown #
vertex $-1 $172 $332 #
ellipse-curve $-1 58.284262898535516 -22.136173945898079 6.3676272392449063 0 -0.5877852598018023 0.80901698891910034 1 0 0 1 I I #
coedge $-1 $248 $248 $-1 $333 reversed $175 $-1 #
edge $-1 $334 0 $334 6.2831853071796004 $176 $335 forward 7 unknown #
vertex $-1 $179 $336 #
ellipse-curve $-1 62.868623217216253 -22.136173945898079 6.3676272392449063 0 -0.5877852598018023 0.80901698891910034 1 0 0 1 I I #
face $-1 $-1 $195 $27 $-1 $337 reversed single #
loop $-1 $-1 $268 $180 #
plane-surface $-1 0 30.801419238569032 0 0 -1 0 0 0 -1 forward_v I I I I #
coedge $-1 $338 $266 $269 $339 forward $181 $-1 #
coedge $-1 $272 $183 $184 $260 reversed $115 $-1 #
coedge $-1 $266 $338 $183 $258 reversed $181 $-1 #
edge $-1 $273 -12.663296582856498 $340 12.663296582856498 $257 $341 forward 7 unknown #
coedge $-1 $185 $184 $338 $342 forward $73 $-1 #
edge $-1 $264 -65.924863429670097 $340 65.924863429670097 $256 $343 forward 7 unknown #
coedge $-1 $269 $268 $185 $262 reversed $253 $-1 #
edge $-1 $344 -65.924863429670097 $263 65.924863429670097 $261 $345 forward 7 unknown #
vertex $-1 $187 $346 #
vertex $-1 $275 $347 #
straight-curve $-1 65.924863429670097 0 -12.663296582856498 0 -1 0 I I #
coedge $-1 $255 $257 $188 $267 reversed $181 $-1 #
edge $-1 $270 -30.801419238569032 $273 30.801419238569032 $266 $348 forward 7 unknown #
coedge $-1 $261 $189 $194 $276 forward $253 $-1 #
coedge $-1 $189 $261 $255 $339 reversed $253 $-1 #
vertex $-1 $190 $349 #
straight-curve $-1 0 30.801419238569032 12.663296582856498 -1 0 0 I I #
coedge $-1 $191 $256 $193 $275 reversed $115 $-1 #
vertex $-1 $267 $350 #
straight-curve $-1 0 -30.801419238569032 12.663296582856498 1 0 0 I I #
edge $-1 $196 -12.663296582856498 $264 12.663296582856498 $193 $351 forward 7 unknown #
edge $-1 $197 -12.663296582856498 $263 12.663296582856498 $194 $352 forward 7 unknown #
point $-1 65.924863429670097 -30.801419238569032 12.663296582856498 #
point $-1 65.924863429670097 30.801419238569032 12.663296582856498 #
loop $-1 $-1 $206 $199 #
plane-surface $-1 0 -30.801419238569032 0 0 1 0 0 0 1 forward_v I I I I #
coedge $-1 $353 $354 $203 $283 forward $200 $-1 #
coedge $-1 $203 $202 $288 $355 reversed $77 $-1 #
edge $-1 $285 -8.9833767631449124 $356 12.438287828221178 $281 $357 forward 7 unknown #
coedge $-1 $209 $204 $354 $358 forward $123 $-1 #
vertex $-1 $358 $359 #
straight-curve $-1 -29.142131449267762 -13.47092865322713 12.663296582856498 -1 0 0 I I #
coedge $-1 $360 $206 $209 $292 reversed $279 $-1 #
coedge $-1 $206 $360 $282 $355 forward $279 $-1 #
vertex $-1 $207 $361 #
straight-curve $-1 -50.64366236740095 -30.801419238569032 53.370313454591276 0 0 1 I I #
straight-curve $-1 -50.64366236740095 -30.801419238569025 0.071957895633318003 0 -0.80901698891910034 -0.5877852598018023 I I #
edge $-1 $362 -65.924863429670097 $210 -50.64366236740095 $287 $363 forward 7 unknown #
point $-1 -50.64366236740095 -30.801419238569032 12.663296582856498 #
point $-1 -50.64366236740095 -13.470928653227126 12.6632965828565 #
edge $-1 $364 1 $364 0 $213 $-1 forward 7 unknown #
vertex $-1 $214 $365 #
ellipse-curve $-1 -62.868623217216268 -20.234926223620384 3.7507842990441698 0 -0.5877852598018023 0.80901698891910034 1 0 0 1 I I #
point $-1 -61.868623217216268 -22.136173945898083 6.3676272392449089 #
edge $-1 $366 1 $366 0 $217 $-1 forward 7 unknown #
vertex $-1 $218 $367 #
ellipse-curve $-1 -58.284262898535523 -20.234926223620384 3.7507842990441698 0 -0.5877852598018023 0.80901698891910034 1 0 0 1 I I #
point $-1 -57.284262898535523 -22.136173945898083 6.3676272392449089 #
edge $-1 $368 1 $368 0 $221 $-1 forward 7 unknown #
vertex $-1 $222 $369 #
ellipse-curve $-1 -53.699902579854779 -20.234926223620384 3.7507842990441698 0 -0.5877852598018023 0.80901698891910034 1 0 0 1 I I #
point $-1 -52.699902579854779 -22.136173945898083 6.3676272392449089 #
loop $-1 $-1 $316 $225 #
plane-surface $-1 0 -30.801419238569032 0 0 1 0 0 0 1 forward_v I I I I #
coedge $-1 $310 $228 $236 $322 reversed $152 $-1 #
coedge $-1 $228 $309 $370 $371 forward $152 $-1 #
coedge $-1 $316 $372 $230 $312 forward $307 $-1 #
edge $-1 $314 40.70701687173478 $320 53.298355558957965 $311 $373 forward 7 unknown #
coedge $-1 $236 $231 $372 $374 forward $226 $-1 #
vertex $-1 $374 $375 #
straight-curve $-1 50.643662367400943 -54.150372597691486 12.663296582856496 0 -1 0 I I #
coedge $-1 $370 $311 $233 $317 forward $307 $-1 #
edge $-1 $320 21.501530918133184 $318 36.782731980402339 $316 $376 forward 7 unknown #
vertex $-1 $317 $377 #
straight-curve $-1 65.924863429670097 -20.738633072472439 7.3830001382338937 0 0.80901698891910034 0.5877852598018023 I I #
vertex $-1 $317 $378 #
straight-curve $-1 50.643662367400943 -30.801419238569025 0.071957895633318003 0 0.80901698891910034 0.5877852598018023 I I #
edge $-1 $379 -30.801419238569032 $237 -13.470928653227126 $309 $380 forward 7 unknown #
point $-1 65.924863429670097 -13.470928653227126 12.6632965828565 #
point $-1 50.643662367400943 -13.470928653227126 12.6632965828565 #
edge $-1 $381 1 $381 0 $240 $-1 forward 7 unknown #
vertex $-1 $241 $382 #
ellipse-curve $-1 53.699902579854765 -20.234926223620384 3.7507842990441698 0 -0.5877852598018023 0.80901698891910034 1 0 0 1 I I #
point $-1 54.699902579854765 -22.136173945898083 6.3676272392449089 #
edge $-1 $383 1 $383 0 $244 $-1 forward 7 unknown #
vertex $-1 $245 $384 #
ellipse-curve $-1 58.284262898535516 -20.234926223620384 3.7507842990441698 0 -0.5877852598018023 0.80901698891910034 1 0 0 1 I I #
point $-1 59.284262898535516 -22.136173945898083 6.3676272392449089 #
edge $-1 $385 1 $385 0 $248 $-1 forward 7 unknown #
vertex $-1 $249 $386 #
ellipse-curve $-1 62.868623217216253 -20.234926223620384 3.7507842990441698 0 -0.5877852598018023 0.80901698891910034 1 0 0 1 I I #
point $-1 63.868623217216253 -22.136173945898083 6.3676272392449089 #
plane-surface $-1 65.924863429670097 0 0 -1 0 0 0 0 1 forward_v I I I I #
coedge $-1 $257 $255 $259 $342 reversed $181 $-1 #
edge $-1 $270 -12.663296582856498 $344 12.663296582856498 $269 $387 forward 7 unknown #
vertex $-1 $342 $388 #
straight-curve $-1 -65.924863429670097 -30.801419238569032 0 0 0 -1 I I #
edge $-1 $340 -30.801419238569032 $344 30.801419238569032 $338 $389 forward 7 unknown #
straight-curve $-1 0 -30.801419238569032 -12.663296582856498 -1 0 0 I I #
vertex $-1 $262 $390 #
straight-curve $-1 0 30.801419238569032 -12.663296582856498 1 0 0 I I #
point $-1 65.924863429670097 30.801419238569032 -12.663296582856498 #
point $-1 65.924863429670097 -30.801419238569032 -12.663296582856498 #
straight-curve $-1 -65.924863429670097 0 12.663296582856498 0 -1 0 I I #
point $-1 -65.924863429670097 30.801419238569032 12.663296582856498 #
point $-1 -65.924863429670097 -30.801419238569032 12.663296582856498 #
straight-curve $-1 65.924863429670097 -30.801419238569032 0 0 0 -1 I I #
straight-curve $-1 65.924863429670097 30.801419238569032 0 0 0 -1 I I #
coedge $-1 $354 $281 $360 $391 reversed $200 $-1 #
coedge $-1 $281 $353 $284 $358 reversed $200 $-1 #
edge $-1 $356 -36.782731980402332 $289 -21.501530918133188 $288 $392 forward 7 unknown #
vertex $-1 $283 $393 #
straight-curve $-1 -65.924863429670097 -20.738633072472439 7.3830001382338937 0 -0.80901698891910034 -0.5877852598018023 I I #
edge $-1 $285 13.470928653227126 $362 30.801419238569032 $354 $394 forward 7 unknown #
point $-1 -65.924863429670097 -13.470928653227126 12.6632965828565 #
coedge $-1 $288 $287 $353 $391 forward $279 $-1 #
point $-1 -50.64366236740095 -30.801419238569032 0.071957895633312841 #
vertex $-1 $358 $395 #
straight-curve $-1 0 -30.801419238569032 12.663296582856498 1 0 0 I I #
vertex $-1 $295 $396 #
point $-1 -61.868623217216268 -20.234926223620384 3.7507842990441698 #
vertex $-1 $299 $397 #
point $-1 -57.284262898535523 -20.234926223620384 3.7507842990441698 #
vertex $-1 $303 $398 #
point $-1 -52.699902579854779 -20.234926223620384 3.7507842990441698 #
coedge $-1 $372 $316 $310 $371 reversed $307 $-1 #
edge $-1 $379 -12.663296582856498 $318 -0.071957895633312841 $310 $399 forward 7 unknown #
coedge $-1 $311 $370 $313 $374 reversed $307 $-1 #
straight-curve $-1 50.643662367400943 -30.801419238569032 53.370313454591276 0 0 -1 I I #
edge $-1 $314 50.643662367400943 $379 65.924863429670097 $372 $400 forward 7 unknown #
point $-1 50.643662367400943 -30.801419238569032 12.663296582856498 #
straight-curve $-1 29.142131449267758 -30.801419238569032 0.071957895633312938 1 0 0 I I #
point $-1 65.924863429670097 -30.801419238569032 0.071957895633312841 #
point $-1 50.643662367400943 -30.801419238569032 0.071957895633312841 #
vertex $-1 $322 $401 #
straight-curve $-1 65.924863429670097 0 12.663296582856498 0 1 0 I I #
vertex $-1 $325 $402 #
point $-1 54.699902579854765 -20.234926223620384 3.7507842990441698 #
vertex $-1 $329 $403 #
point $-1 59.284262898535516 -20.234926223620384 3.7507842990441698 #
vertex $-1 $333 $404 #
point $-1 63.868623217216253 -20.234926223620384 3.7507842990441698 #
straight-curve $-1 -65.924863429670097 30.801419238569032 0 0 0 -1 I I #
point $-1 -65.924863429670097 -30.801419238569032 -12.663296582856498 #
straight-curve $-1 -65.924863429670097 0 -12.663296582856498 0 1 0 I I #
point $-1 -65.924863429670097 30.801419238569032 -12.663296582856498 #
edge $-1 $362 -12.663296582856498 $356 -0.071957895633312841 $353 $405 forward 7 unknown #
straight-curve $-1 -29.142131449267762 -30.801419238569032 0.071957895633312938 1 0 0 I I #
point $-1 -65.924863429670097 -30.801419238569032 0.071957895633312841 #
straight-curve $-1 -65.924863429670097 0 12.663296582856498 0 -1 0 I I #
point $-1 -65.924863429670097 -30.801419238569032 12.663296582856498 #
point $-1 -62.868623217216268 -19.647140963818579 2.9417673101250696 #
point $-1 -58.284262898535523 -19.647140963818579 2.9417673101250696 #
point $-1 -53.699902579854779 -19.647140963818579 2.9417673101250696 #
straight-curve $-1 65.924863429670097 -30.801419238569032 0 0 0 -1 I I #
straight-curve $-1 0 -30.801419238569032 12.663296582856498 1 0 0 I I #
point $-1 65.924863429670097 -30.801419238569032 12.663296582856498 #
point $-1 53.699902579854765 -19.647140963818579 2.9417673101250696 #
point $-1 58.284262898535516 -19.647140963818579 2.9417673101250696 #
point $-1 62.868623217216253 -19.647140963818579 2.9417673101250696 #
straight-curve $-1 -65.924863429670097 -30.801419238569032 0 0 0 -1 I I #
End-of-ACIS-data 