500 0 6 0           
7 Unknown 11 ACIS 5.0 NT 24 Fri Mar 26 02:53:40 1999 
-1 9.9999999999999995e-007 1e-010 
body $-1 $6 $-1 $7 #
body $-1 $8 $-1 $9 #
body $-1 $10 $-1 $11 #
body $-1 $12 $-1 $13 #
body $-1 $14 $-1 $15 #
body $-1 $16 $-1 $17 #
lump $-1 $-1 $18 $0 #
transform $-1 1 0 0 0 1 0 0 0 1 52.519913327433088 27.875448489111598 6.149834196837908 1 rotate no_reflect no_shear #
lump $-1 $-1 $19 $1 #
transform $-1 1 0 0 0 1 0 0 0 1 52.519913327433088 27.875448489111598 6.149834196837908 1 rotate no_reflect no_shear #
lump $-1 $-1 $20 $2 #
transform $-1 1 0 0 0 1 0 0 0 1 52.519913327433088 27.875448489111598 6.149834196837908 1 rotate no_reflect no_shear #
lump $-1 $-1 $21 $3 #
transform $-1 1 0 0 0 1 0 0 0 1 52.519913327433088 27.875448489111598 6.149834196837908 1 rotate no_reflect no_shear #
lump $-1 $-1 $22 $4 #
transform $-1 1 0 0 0 1 0 0 0 1 52.519913327433088 27.875448489111598 6.149834196837908 1 rotate no_reflect no_shear #
lump $-1 $-1 $23 $5 #
transform $-1 1 0 0 0 1 0 0 0 1 52.519913327433088 27.875448489111598 6.149834196837908 1 rotate no_reflect no_shear #
shell $-1 $-1 $-1 $24 $-1 $6 #
shell $-1 $-1 $-1 $25 $-1 $8 #
shell $-1 $-1 $-1 $26 $-1 $10 #
shell $-1 $-1 $-1 $27 $-1 $12 #
shell $-1 $-1 $-1 $28 $-1 $14 #
shell $-1 $-1 $-1 $29 $-1 $16 #
face $-1 $30 $31 $18 $-1 $32 forward single #
face $-1 $33 $34 $19 $-1 $35 forward single #
face $-1 $36 $37 $20 $-1 $38 reversed single #
face $-1 $39 $40 $21 $-1 $41 forward single #
face $-1 $42 $43 $22 $-1 $44 reversed single #
face $-1 $45 $46 $23 $-1 $47 forward single #
face $-1 $48 $49 $18 $-1 $50 reversed single #
loop $-1 $-1 $51 $24 #
plane-surface $-1 0 0 6.149834196837908 0 0 1 1 0 0 forward_v I I I I #
face $-1 $52 $53 $19 $-1 $54 reversed single #
loop $-1 $-1 $55 $25 #
plane-surface $-1 0 -25.738730666738032 -2.088830772509124 0 0 1 1 0 0 forward_v I I I I #
face $-1 $56 $57 $20 $-1 $58 reversed single #
loop $-1 $-1 $59 $26 #
plane-surface $-1 -23.014713464231715 70.574134035806395 113.40261144903502 1 0 0 0 -0.75470958851134928 -0.65605901945558964 forward_v I I I I #
face $-1 $60 $61 $21 $-1 $62 forward single #
loop $-1 $63 $64 $27 #
cone-surface $-1 -17.232345859017698 24.838523963460101 3.0535351568217752 0 -0.75470958851134928 -0.65605901945558964 1 0 0 1 I I 0 1 1 forward I I I I #
face $-1 $65 $66 $22 $-1 $67 reversed single #
loop $-1 $-1 $68 $28 #
plane-surface $-1 29.505199863201373 70.574134035806395 113.40261144903502 1 0 0 0 -0.75470958851134928 -0.65605901945558964 forward_v I I I I #
face $-1 $69 $70 $23 $-1 $71 forward single #
loop $-1 $72 $73 $29 #
cone-surface $-1 35.287567468415389 24.838523963460101 3.0535351568217752 0 -0.75470958851134928 -0.65605901945558964 1 0 0 1 I I 0 1 1 forward I I I I #
face $-1 $74 $75 $18 $-1 $76 reversed single #
loop $-1 $-1 $77 $30 #
plane-surface $-1 0 0 -6.149834196837908 0 0 1 1 0 0 forward_v I I I I #
coedge $-1 $78 $79 $80 $81 forward $31 $-1 #
face $-1 $82 $83 $19 $-1 $84 reversed single #
loop $-1 $-1 $85 $33 #
plane-surface $-1 0 -25.738730666738032 -5.6441244884642154 0 0 1 1 0 0 forward_v I I I I #
coedge $-1 $86 $87 $88 $89 reversed $34 $-1 #
face $-1 $90 $91 $20 $-1 $92 reversed single #
loop $-1 $-1 $93 $36 #
plane-surface $-1 -17.232345859017698 -8.7004303161911167 44.490285770058406 0 0.75470958851134928 0.65605901945558964 1 0 0 forward_v I I I I #
coedge $-1 $94 $95 $96 $97 reversed $37 $-1 #
face $-1 $-1 $98 $21 $-1 $99 forward single #
loop $-1 $100 $101 $39 #
cone-surface $-1 -17.232345859017698 23.047761434172436 1.496849079254325 0 -0.75470958851134928 -0.65605901945558964 0.5 0 0 1 I I -0.70710678118654746 0.70710678118654746 0.5 forward I I I I #
loop $-1 $-1 $102 $27 #
coedge $-1 $64 $64 $103 $104 reversed $40 $-1 #
face $-1 $105 $106 $22 $-1 $107 reversed single #
loop $-1 $-1 $108 $42 #
plane-surface $-1 35.287567468415389 -8.7004303161911167 44.490285770058406 0 0.75470958851134928 0.65605901945558964 1 0 0 forward_v I I I I #
coedge $-1 $109 $110 $111 $112 reversed $43 $-1 #
face $-1 $-1 $113 $23 $-1 $114 forward single #
loop $-1 $115 $116 $45 #
cone-surface $-1 35.287567468415389 23.047761434172436 1.496849079254325 0 -0.75470958851134928 -0.65605901945558964 0.5 0 0 1 I I -0.70710678118654746 0.70710678118654746 0.5 forward I I I I #
loop $-1 $-1 $117 $29 #
coedge $-1 $73 $73 $118 $119 reversed $46 $-1 #
face $-1 $120 $121 $18 $-1 $122 reversed single #
loop $-1 $-1 $123 $48 #
plane-surface $-1 0 -27.875448489111598 0 0 1 0 0 0 1 forward_v I I I I #
coedge $-1 $124 $125 $126 $127 forward $49 $-1 #
coedge $-1 $128 $51 $129 $130 forward $31 $-1 #
coedge $-1 $51 $128 $131 $132 forward $31 $-1 #
coedge $-1 $133 $134 $51 $81 reversed $135 $-1 #
edge $-1 $136 -27.875448489111598 $137 27.875448489111598 $80 $138 forward 7 unknown #
face $-1 $139 $140 $19 $-1 $141 reversed single #
loop $-1 $-1 $142 $52 #
plane-surface $-1 0 -23.602012844364467 -3.8664776304866697 0 -1 0 0 0 -1 forward_v I I I I #
coedge $-1 $143 $144 $145 $146 reversed $53 $-1 #
coedge $-1 $147 $55 $148 $149 forward $34 $-1 #
coedge $-1 $55 $147 $150 $151 reversed $34 $-1 #
coedge $-1 $152 $153 $55 $89 forward $154 $-1 #
edge $-1 $155 10.73264751099545 $156 15.006083155742582 $88 $157 forward 7 unknown #
face $-1 $158 $159 $20 $-1 $160 reversed single #
loop $-1 $-1 $161 $56 #
plane-surface $-1 -11.449978253803682 70.574134035806395 113.40261144903502 -1 0 0 0 0.75470958851134928 0.65605901945558964 forward_v I I I I #
coedge $-1 $162 $163 $164 $165 reversed $57 $-1 #
coedge $-1 $95 $59 $166 $167 reversed $37 $-1 #
coedge $-1 $59 $94 $162 $168 reversed $37 $-1 #
coedge $-1 $164 $169 $59 $97 forward $170 $-1 #
edge $-1 $171 7.4116185287915997 $172 10.658652110030623 $96 $173 forward 7 unknown #
loop $-1 $-1 $103 $60 #
plane-surface $-1 -17.232345859017698 -8.7004303161911167 44.490285770058406 0 0.75470958851134928 0.65605901945558964 1 0 0 forward_v I I I I #
loop $-1 $-1 $174 $39 #
coedge $-1 $101 $101 $102 $175 reversed $61 $-1 #
coedge $-1 $102 $102 $101 $175 forward $63 $-1 #
coedge $-1 $103 $103 $64 $104 forward $98 $-1 #
edge $-1 $176 -1.0207939957623927e-015 $176 6.2831853071795996 $103 $177 forward 7 unknown #
face $-1 $178 $179 $22 $-1 $180 forward single #
loop $-1 $-1 $181 $65 #
plane-surface $-1 41.069935073629409 70.574134035806395 113.40261144903502 -1 0 0 0 0.75470958851134928 0.65605901945558964 forward_v I I I I #
coedge $-1 $182 $183 $184 $185 reversed $66 $-1 #
coedge $-1 $110 $68 $186 $187 reversed $43 $-1 #
coedge $-1 $68 $109 $182 $188 reversed $43 $-1 #
coedge $-1 $184 $189 $68 $112 forward $179 $-1 #
edge $-1 $190 7.4116185287915997 $191 10.658652110030623 $111 $192 forward 7 unknown #
loop $-1 $-1 $118 $69 #
plane-surface $-1 35.287567468415389 -8.7004303161911167 44.490285770058406 0 0.75470958851134928 0.65605901945558964 1 0 0 forward_v I I I I #
loop $-1 $-1 $193 $45 #
coedge $-1 $116 $116 $117 $194 reversed $70 $-1 #
coedge $-1 $117 $117 $116 $194 forward $72 $-1 #
coedge $-1 $118 $118 $73 $119 forward $113 $-1 #
edge $-1 $195 -1.0207939957623927e-015 $195 6.2831853071795996 $118 $196 forward 7 unknown #
face $-1 $197 $198 $18 $-1 $199 reversed single #
loop $-1 $-1 $200 $74 #
plane-surface $-1 -52.519913327433088 0 0 1 0 0 0 0 -1 forward_v I I I I #
coedge $-1 $201 $131 $202 $203 forward $75 $-1 #
coedge $-1 $204 $77 $201 $205 forward $49 $-1 #
coedge $-1 $77 $204 $206 $207 forward $49 $-1 #
coedge $-1 $134 $133 $77 $127 reversed $135 $-1 #
edge $-1 $208 -27.875448489111598 $209 27.875448489111598 $126 $210 forward 7 unknown #
coedge $-1 $79 $78 $211 $212 forward $31 $-1 #
coedge $-1 $213 $214 $78 $130 reversed $198 $-1 #
edge $-1 $137 -52.519913327433088 $215 52.519913327433088 $129 $216 forward 7 unknown #
coedge $-1 $123 $217 $79 $132 reversed $75 $-1 #
edge $-1 $218 -52.519913327433088 $136 52.519913327433088 $131 $219 forward 7 unknown #
coedge $-1 $126 $80 $217 $220 forward $135 $-1 #
coedge $-1 $80 $126 $213 $221 reversed $135 $-1 #
loop $-1 $-1 $133 $197 #
vertex $-1 $81 $222 #
vertex $-1 $81 $223 #
straight-curve $-1 52.519913327433088 0 6.149834196837908 0 1 0 I I #
face $-1 $224 $225 $19 $-1 $226 reversed single #
loop $-1 $-1 $227 $82 #
plane-surface $-1 -52.519913327433088 0 0 1 0 0 0 0 -1 forward_v I I I I #
coedge $-1 $228 $148 $153 $229 reversed $83 $-1 #
coedge $-1 $230 $85 $231 $232 reversed $53 $-1 #
coedge $-1 $85 $230 $228 $233 forward $53 $-1 #
coedge $-1 $153 $152 $85 $146 forward $154 $-1 #
edge $-1 $234 -15.006083155742582 $235 -10.73264751099545 $145 $236 forward 7 unknown #
coedge $-1 $87 $86 $227 $237 reversed $34 $-1 #
coedge $-1 $142 $238 $86 $149 reversed $83 $-1 #
edge $-1 $155 -52.519913327433088 $239 52.519913327433088 $148 $240 forward 7 unknown #
coedge $-1 $241 $242 $87 $151 forward $225 $-1 #
edge $-1 $156 -52.519913327433088 $243 52.519913327433088 $150 $244 forward 7 unknown #
coedge $-1 $145 $88 $242 $245 forward $154 $-1 #
coedge $-1 $88 $145 $142 $229 forward $154 $-1 #
loop $-1 $-1 $88 $224 #
vertex $-1 $89 $246 #
vertex $-1 $245 $247 #
straight-curve $-1 52.519913327433088 -12.869365333369016 -2.088830772509124 0 -1 0 I I #
face $-1 $-1 $170 $20 $-1 $248 forward single #
loop $-1 $-1 $249 $90 #
plane-surface $-1 0 27.875448489111598 0 0 -1 0 0 0 -1 forward_v I I I I #
coedge $-1 $250 $251 $252 $253 reversed $91 $-1 #
coedge $-1 $254 $93 $95 $168 forward $57 $-1 #
coedge $-1 $93 $254 $250 $255 forward $57 $-1 #
coedge $-1 $252 $96 $93 $165 forward $170 $-1 #
edge $-1 $172 -14.398540534722866 $256 -2.8338053242948327 $164 $257 forward 7 unknown #
coedge $-1 $258 $259 $94 $167 forward $159 $-1 #
edge $-1 $260 -54.286756472032572 $171 -50.551471527679603 $166 $261 forward 7 unknown #
edge $-1 $172 50.801595947450913 $260 55.750896978223224 $95 $262 forward 7 unknown #
coedge $-1 $96 $252 $258 $263 forward $170 $-1 #
loop $-1 $-1 $252 $158 #
vertex $-1 $167 $264 #
vertex $-1 $97 $265 #
straight-curve $-1 -23.014713464231715 35.287067017903198 6.149834196837908 0 -1 0 I I #
coedge $-1 $174 $174 $-1 $266 reversed $100 $-1 #
edge $-1 $267 0 $267 6.2831853071796004 $101 $268 forward 7 unknown #
vertex $-1 $104 $269 #
ellipse-curve $-1 -17.232345859017698 26.251931698492086 4.2821917246614261 0 0.75470958851134928 0.65605901945558964 1 0 0 1 I I #
face $-1 $-1 $270 $22 $-1 $271 reversed single #
loop $-1 $-1 $111 $105 #
plane-surface $-1 0 0 6.149834196837908 0 0 1 1 0 0 forward_v I I I I #
coedge $-1 $272 $273 $274 $275 reversed $106 $-1 #
coedge $-1 $276 $108 $110 $188 forward $66 $-1 #
coedge $-1 $108 $276 $272 $277 forward $66 $-1 #
coedge $-1 $274 $111 $108 $185 forward $179 $-1 #
edge $-1 $191 11.861416128993678 $278 23.426151339421715 $184 $279 forward 7 unknown #
coedge $-1 $280 $281 $109 $187 forward $270 $-1 #
edge $-1 $282 -54.286756472032572 $190 -50.551471527679603 $186 $283 forward 7 unknown #
edge $-1 $191 50.801595947450913 $282 55.750896978223224 $110 $284 forward 7 unknown #
coedge $-1 $111 $274 $280 $285 forward $179 $-1 #
vertex $-1 $112 $286 #
vertex $-1 $112 $287 #
straight-curve $-1 29.505199863201373 35.287067017903198 6.149834196837908 0 -1 0 I I #
coedge $-1 $193 $193 $-1 $288 reversed $115 $-1 #
edge $-1 $289 0 $289 6.2831853071796004 $116 $290 forward 7 unknown #
vertex $-1 $119 $291 #
ellipse-curve $-1 35.287567468415389 26.251931698492086 4.2821917246614261 0 0.75470958851134928 0.65605901945558964 1 0 0 1 I I #
face $-1 $-1 $135 $18 $-1 $292 reversed single #
loop $-1 $-1 $213 $120 #
plane-surface $-1 0 27.875448489111598 0 0 -1 0 0 0 -1 forward_v I I I I #
coedge $-1 $293 $211 $214 $294 forward $121 $-1 #
coedge $-1 $217 $123 $124 $205 reversed $75 $-1 #
coedge $-1 $211 $293 $123 $203 reversed $121 $-1 #
edge $-1 $218 -6.149834196837908 $295 6.149834196837908 $202 $296 forward 7 unknown #
coedge $-1 $125 $124 $293 $297 forward $49 $-1 #
edge $-1 $209 -52.519913327433088 $295 52.519913327433088 $201 $298 forward 7 unknown #
coedge $-1 $214 $213 $125 $207 reversed $198 $-1 #
edge $-1 $299 -52.519913327433088 $208 52.519913327433088 $206 $300 forward 7 unknown #
vertex $-1 $127 $301 #
vertex $-1 $220 $302 #
straight-curve $-1 52.519913327433088 0 -6.149834196837908 0 -1 0 I I #
coedge $-1 $200 $202 $128 $212 reversed $121 $-1 #
edge $-1 $215 -27.875448489111598 $218 27.875448489111598 $211 $303 forward 7 unknown #
coedge $-1 $206 $129 $134 $221 forward $198 $-1 #
coedge $-1 $129 $206 $200 $294 reversed $198 $-1 #
vertex $-1 $130 $304 #
straight-curve $-1 0 27.875448489111598 6.149834196837908 -1 0 0 I I #
coedge $-1 $131 $201 $133 $220 reversed $75 $-1 #
vertex $-1 $212 $305 #
straight-curve $-1 0 -27.875448489111598 6.149834196837908 1 0 0 I I #
edge $-1 $136 -6.149834196837908 $209 6.149834196837908 $133 $306 forward 7 unknown #
edge $-1 $137 -6.149834196837908 $208 6.149834196837908 $134 $307 forward 7 unknown #
point $-1 52.519913327433088 -27.875448489111598 6.149834196837908 #
point $-1 52.519913327433088 27.875448489111598 6.149834196837908 #
face $-1 $-1 $154 $19 $-1 $308 reversed single #
loop $-1 $-1 $150 $139 #
plane-surface $-1 0 -27.875448489111598 0 0 1 0 0 0 1 forward_v I I I I #
coedge $-1 $309 $310 $147 $237 forward $140 $-1 #
coedge $-1 $238 $142 $144 $233 reversed $83 $-1 #
edge $-1 $235 -3.7108856732208806 $155 -0.15559195726578912 $153 $311 forward 7 unknown #
coedge $-1 $144 $143 $312 $313 reversed $53 $-1 #
coedge $-1 $242 $241 $143 $232 forward $225 $-1 #
edge $-1 $314 -52.519913327433088 $234 52.519913327433088 $231 $315 forward 7 unknown #
edge $-1 $316 -52.519913327433088 $235 52.519913327433088 $228 $317 forward 7 unknown #
vertex $-1 $232 $318 #
vertex $-1 $146 $319 #
straight-curve $-1 52.519913327433088 -12.869365333369016 -5.6441244884642154 0 1 0 I I #
edge $-1 $243 -15.006083155742582 $239 -10.73264751099545 $227 $320 forward 7 unknown #
coedge $-1 $148 $228 $309 $321 reversed $83 $-1 #
vertex $-1 $237 $322 #
straight-curve $-1 0 -23.602012844364467 -2.088830772509124 -1 0 0 I I #
coedge $-1 $231 $150 $310 $323 forward $225 $-1 #
coedge $-1 $150 $231 $152 $245 reversed $225 $-1 #
vertex $-1 $323 $324 #
straight-curve $-1 0 -27.875448489111598 -2.088830772509124 -1 0 0 I I #
edge $-1 $156 2.088830772509124 $234 5.6441244884642154 $152 $325 forward 7 unknown #
point $-1 52.519913327433088 -23.602012844364467 -2.088830772509124 #
point $-1 52.519913327433088 -27.875448489111598 -2.088830772509124 #
plane-surface $-1 0 0 6.149834196837908 0 0 1 1 0 0 forward_v I I I I #
coedge $-1 $259 $258 $251 $326 forward $159 $-1 #
coedge $-1 $251 $161 $163 $255 reversed $91 $-1 #
coedge $-1 $161 $250 $249 $326 reversed $91 $-1 #
coedge $-1 $169 $164 $161 $253 forward $170 $-1 #
edge $-1 $256 -10.658652110030623 $327 -7.4116185287915997 $252 $328 forward 7 unknown #
coedge $-1 $163 $162 $259 $329 reversed $57 $-1 #
edge $-1 $330 -55.750896978223224 $256 -50.801595947450913 $250 $331 forward 7 unknown #
vertex $-1 $165 $332 #
straight-curve $-1 -8.6161729295088492 24.628414907872575 6.149834196837908 1 0 0 I I #
coedge $-1 $249 $166 $169 $263 reversed $159 $-1 #
coedge $-1 $166 $249 $254 $329 forward $159 $-1 #
vertex $-1 $167 $333 #
straight-curve $-1 -23.014713464231715 27.875448489111598 56.70130572451751 0 0 1 I I #
straight-curve $-1 -23.014713464231715 -8.7004303161911167 44.490285770058406 0 0.65605901945558964 -0.75470958851134928 I I #
edge $-1 $327 11.449978253803682 $171 23.014713464231715 $258 $334 forward 7 unknown #
point $-1 -23.014713464231715 27.875448489111598 6.149834196837908 #
point $-1 -23.014713464231715 24.628414907872575 6.149834196837908 #
edge $-1 $335 1 $335 0 $174 $-1 forward 7 unknown #
vertex $-1 $175 $336 #
ellipse-curve $-1 -17.232345859017698 23.425116228428109 1.8248785889821197 0 0.75470958851134928 0.65605901945558964 1 0 0 1 I I #
point $-1 -16.232345859017698 26.25193169849209 4.2821917246614305 #
loop $-1 $-1 $186 $178 #
plane-surface $-1 0 27.875448489111598 0 0 -1 0 0 0 -1 forward_v I I I I #
coedge $-1 $273 $181 $183 $277 reversed $106 $-1 #
coedge $-1 $181 $272 $337 $338 reversed $106 $-1 #
coedge $-1 $189 $184 $181 $275 forward $179 $-1 #
edge $-1 $278 -10.658652110030623 $339 -7.4116185287915997 $274 $340 forward 7 unknown #
coedge $-1 $183 $182 $281 $341 reversed $66 $-1 #
edge $-1 $342 -55.750896978223224 $278 -50.801595947450913 $272 $343 forward 7 unknown #
vertex $-1 $185 $344 #
straight-curve $-1 17.643783734207695 24.628414907872575 6.149834196837908 1 0 0 I I #
coedge $-1 $337 $186 $189 $285 reversed $270 $-1 #
coedge $-1 $186 $337 $276 $341 forward $270 $-1 #
vertex $-1 $187 $345 #
straight-curve $-1 29.505199863201373 27.875448489111598 56.70130572451751 0 0 1 I I #
straight-curve $-1 29.505199863201373 -8.7004303161911167 44.490285770058406 0 0.65605901945558964 -0.75470958851134928 I I #
edge $-1 $339 -41.069935073629409 $190 -29.505199863201373 $280 $346 forward 7 unknown #
point $-1 29.505199863201373 27.875448489111598 6.149834196837908 #
point $-1 29.505199863201373 24.628414907872575 6.149834196837908 #
edge $-1 $347 1 $347 0 $193 $-1 forward 7 unknown #
vertex $-1 $194 $348 #
ellipse-curve $-1 35.287567468415389 23.425116228428109 1.8248785889821197 0 0.75470958851134928 0.65605901945558964 1 0 0 1 I I #
point $-1 36.287567468415389 26.25193169849209 4.2821917246614305 #
plane-surface $-1 52.519913327433088 0 0 -1 0 0 0 0 1 forward_v I I I I #
coedge $-1 $202 $200 $204 $297 reversed $121 $-1 #
edge $-1 $215 -6.149834196837908 $299 6.149834196837908 $214 $349 forward 7 unknown #
vertex $-1 $297 $350 #
straight-curve $-1 -52.519913327433088 -27.875448489111598 0 0 0 -1 I I #
edge $-1 $295 -27.875448489111598 $299 27.875448489111598 $293 $351 forward 7 unknown #
straight-curve $-1 0 -27.875448489111598 -6.149834196837908 -1 0 0 I I #
vertex $-1 $207 $352 #
straight-curve $-1 0 27.875448489111598 -6.149834196837908 1 0 0 I I #
point $-1 52.519913327433088 27.875448489111598 -6.149834196837908 #
point $-1 52.519913327433088 -27.875448489111598 -6.149834196837908 #
straight-curve $-1 -52.519913327433088 0 6.149834196837908 0 -1 0 I I #
point $-1 -52.519913327433088 27.875448489111598 6.149834196837908 #
point $-1 -52.519913327433088 -27.875448489111598 6.149834196837908 #
straight-curve $-1 52.519913327433088 -27.875448489111598 0 0 0 -1 I I #
straight-curve $-1 52.519913327433088 27.875448489111598 0 0 0 -1 I I #
plane-surface $-1 52.519913327433088 0 0 -1 0 0 0 0 1 forward_v I I I I #
coedge $-1 $312 $227 $238 $321 forward $140 $-1 #
coedge $-1 $227 $312 $241 $323 reversed $140 $-1 #
straight-curve $-1 52.519913327433088 -23.602012844364467 -1.9332388152433349 0 0 1 I I #
coedge $-1 $310 $309 $230 $313 forward $140 $-1 #
edge $-1 $316 10.73264751099545 $314 15.006083155742582 $312 $353 forward 7 unknown #
vertex $-1 $232 $354 #
straight-curve $-1 0 -27.875448489111598 -5.6441244884642154 1 0 0 I I #
vertex $-1 $313 $355 #
straight-curve $-1 0 -23.602012844364467 -5.6441244884642154 1 0 0 I I #
point $-1 52.519913327433088 -27.875448489111598 -5.6441244884642154 #
point $-1 52.519913327433088 -23.602012844364467 -5.6441244884642154 #
straight-curve $-1 -52.519913327433088 -12.869365333369016 -2.088830772509124 0 1 0 I I #
edge $-1 $239 0.15559195726578912 $316 3.7108856732208806 $309 $356 forward 7 unknown #
point $-1 -52.519913327433088 -23.602012844364467 -2.088830772509124 #
edge $-1 $243 2.088830772509124 $314 5.6441244884642154 $310 $357 forward 7 unknown #
point $-1 -52.519913327433088 -27.875448489111598 -2.088830772509124 #
straight-curve $-1 52.519913327433088 -27.875448489111598 0 0 0 -1 I I #
edge $-1 $327 50.551471527679603 $330 54.286756472032572 $249 $358 forward 7 unknown #
vertex $-1 $263 $359 #
straight-curve $-1 -11.449978253803682 35.287067017903198 6.149834196837908 0 1 0 I I #
edge $-1 $330 2.8338053242948327 $260 14.398540534722866 $259 $360 forward 7 unknown #
vertex $-1 $329 $361 #
straight-curve $-1 -11.449978253803682 -8.7004303161911167 44.490285770058406 0 -0.65605901945558964 0.75470958851134928 I I #
point $-1 -11.449978253803682 24.628414907872575 6.149834196837908 #
point $-1 -23.014713464231715 27.875448489111598 2.4145492524849388 #
straight-curve $-1 0 27.875448489111598 6.149834196837908 -1 0 0 I I #
vertex $-1 $266 $362 #
point $-1 -16.232345859017698 23.425116228428109 1.8248785889821197 #
coedge $-1 $281 $280 $273 $338 forward $270 $-1 #
edge $-1 $339 50.551471527679603 $342 54.286756472032572 $337 $363 forward 7 unknown #
vertex $-1 $285 $364 #
straight-curve $-1 41.069935073629409 35.287067017903198 6.149834196837908 0 1 0 I I #
edge $-1 $342 -23.426151339421715 $282 -11.861416128993678 $281 $365 forward 7 unknown #
vertex $-1 $341 $366 #
straight-curve $-1 41.069935073629409 -8.7004303161911167 44.490285770058406 0 -0.65605901945558964 0.75470958851134928 I I #
point $-1 41.069935073629409 24.628414907872575 6.149834196837908 #
point $-1 29.505199863201373 27.875448489111598 2.4145492524849388 #
straight-curve $-1 0 27.875448489111598 6.149834196837908 -1 0 0 I I #
vertex $-1 $288 $367 #
point $-1 36.287567468415389 23.425116228428109 1.8248785889821197 #
straight-curve $-1 -52.519913327433088 27.875448489111598 0 0 0 -1 I I #
point $-1 -52.519913327433088 -27.875448489111598 -6.149834196837908 #
straight-curve $-1 -52.519913327433088 0 -6.149834196837908 0 1 0 I I #
point $-1 -52.519913327433088 27.875448489111598 -6.149834196837908 #
straight-curve $-1 -52.519913327433088 -12.869365333369016 -5.6441244884642154 0 -1 0 I I #
point $-1 -52.519913327433088 -27.875448489111598 -5.6441244884642154 #
point $-1 -52.519913327433088 -23.602012844364467 -5.6441244884642154 #
straight-curve $-1 -52.519913327433088 -23.602012844364467 -1.9332388152433349 0 0 -1 I I #
straight-curve $-1 -52.519913327433088 -27.875448489111598 0 0 0 -1 I I #
straight-curve $-1 -11.449978253803682 27.875448489111598 56.70130572451751 0 0 -1 I I #
point $-1 -11.449978253803682 27.875448489111598 6.149834196837908 #
straight-curve $-1 -8.6161729295088492 27.875448489111598 2.4145492524849423 -1 0 0 I I #
point $-1 -11.449978253803682 27.875448489111598 2.4145492524849388 #
point $-1 -17.232345859017698 22.670406639916763 1.1688195695265302 #
straight-curve $-1 41.069935073629409 27.875448489111598 56.70130572451751 0 0 -1 I I #
point $-1 41.069935073629409 27.875448489111598 6.149834196837908 #
straight-curve $-1 17.643783734207695 27.875448489111598 2.4145492524849423 -1 0 0 I I #
point $-1 41.069935073629409 27.875448489111598 2.4145492524849388 #
point $-1 35.287567468415389 22.670406639916763 1.1688195695265302 #
End-of-ACIS-data 