500 0 14 0           
7 Unknown 11 ACIS 5.0 NT 24 Fri Mar 26 01:32:18 1999 
-1 9.9999999999999995e-007 1e-010 
body $-1 $14 $-1 $15 #
body $-1 $16 $-1 $17 #
body $-1 $18 $-1 $19 #
body $-1 $20 $-1 $21 #
body $-1 $22 $-1 $23 #
body $-1 $24 $-1 $25 #
body $-1 $26 $-1 $27 #
body $-1 $28 $-1 $29 #
body $-1 $30 $-1 $31 #
body $-1 $32 $-1 $33 #
body $-1 $34 $-1 $35 #
body $-1 $36 $-1 $37 #
body $-1 $38 $-1 $39 #
body $-1 $40 $-1 $41 #
lump $-1 $-1 $42 $0 #
transform $-1 1 0 0 0 1 0 0 0 1 54.145939512314214 31.657866871268865 7.7958716936023578 1 rotate no_reflect no_shear #
lump $-1 $-1 $43 $1 #
transform $-1 1 0 0 0 1 0 0 0 1 54.145939512314214 31.657866871268865 7.7958716936023578 1 rotate no_reflect no_shear #
lump $-1 $-1 $44 $2 #
transform $-1 1 0 0 0 1 0 0 0 1 54.145939512314214 31.657866871268865 7.7958716936023578 1 rotate no_reflect no_shear #
lump $-1 $-1 $45 $3 #
transform $-1 1 0 0 0 1 0 0 0 1 54.145939512314214 31.657866871268865 7.7958716936023578 1 rotate no_reflect no_shear #
lump $-1 $-1 $46 $4 #
transform $-1 1 0 0 0 1 0 0 0 1 54.145939512314214 31.657866871268865 7.7958716936023578 1 rotate no_reflect no_shear #
lump $-1 $-1 $47 $5 #
transform $-1 1 0 0 0 1 0 0 0 1 54.145939512314214 31.657866871268865 7.7958716936023578 1 rotate no_reflect no_shear #
lump $-1 $-1 $48 $6 #
transform $-1 1 0 0 0 1 0 0 0 1 54.145939512314214 31.657866871268865 7.7958716936023578 1 rotate no_reflect no_shear #
lump $-1 $-1 $49 $7 #
transform $-1 1 0 0 0 1 0 0 0 1 54.145939512314214 31.657866871268865 7.7958716936023578 1 rotate no_reflect no_shear #
lump $-1 $-1 $50 $8 #
transform $-1 1 0 0 0 1 0 0 0 1 54.145939512314214 31.657866871268865 7.7958716936023578 1 rotate no_reflect no_shear #
lump $-1 $-1 $51 $9 #
transform $-1 1 0 0 0 1 0 0 0 1 54.145939512314214 31.657866871268865 7.7958716936023578 1 rotate no_reflect no_shear #
lump $-1 $-1 $52 $10 #
transform $-1 1 0 0 0 1 0 0 0 1 54.145939512314214 31.657866871268865 7.7958716936023578 1 rotate no_reflect no_shear #
lump $-1 $-1 $53 $11 #
transform $-1 1 0 0 0 1 0 0 0 1 54.145939512314214 31.657866871268865 7.7958716936023578 1 rotate no_reflect no_shear #
lump $-1 $-1 $54 $12 #
transform $-1 1 0 0 0 1 0 0 0 1 54.145939512314214 31.657866871268865 7.7958716936023578 1 rotate no_reflect no_shear #
lump $-1 $-1 $55 $13 #
transform $-1 1 0 0 0 1 0 0 0 1 54.145939512314214 31.657866871268865 7.7958716936023578 1 rotate no_reflect no_shear #
shell $-1 $-1 $-1 $56 $-1 $14 #
shell $-1 $-1 $-1 $57 $-1 $16 #
shell $-1 $-1 $-1 $58 $-1 $18 #
shell $-1 $-1 $-1 $59 $-1 $20 #
shell $-1 $-1 $-1 $60 $-1 $22 #
shell $-1 $-1 $-1 $61 $-1 $24 #
shell $-1 $-1 $-1 $62 $-1 $26 #
shell $-1 $-1 $-1 $63 $-1 $28 #
shell $-1 $-1 $-1 $64 $-1 $30 #
shell $-1 $-1 $-1 $65 $-1 $32 #
shell $-1 $-1 $-1 $66 $-1 $34 #
shell $-1 $-1 $-1 $67 $-1 $36 #
shell $-1 $-1 $-1 $68 $-1 $38 #
shell $-1 $-1 $-1 $69 $-1 $40 #
face $-1 $70 $71 $42 $-1 $72 forward single #
face $-1 $73 $74 $43 $-1 $75 forward single #
face $-1 $76 $77 $44 $-1 $78 reversed single #
face $-1 $79 $80 $45 $-1 $81 forward single #
face $-1 $82 $83 $46 $-1 $84 forward single #
face $-1 $85 $86 $47 $-1 $87 reversed single #
face $-1 $88 $89 $48 $-1 $90 forward single #
face $-1 $91 $92 $49 $-1 $93 forward single #
face $-1 $94 $95 $50 $-1 $96 reversed single #
face $-1 $97 $98 $51 $-1 $99 forward single #
face $-1 $100 $101 $52 $-1 $102 forward single #
face $-1 $103 $104 $53 $-1 $105 reversed single #
face $-1 $106 $107 $54 $-1 $108 forward single #
face $-1 $109 $110 $55 $-1 $111 forward single #
face $-1 $112 $113 $42 $-1 $114 reversed single #
loop $-1 $-1 $115 $56 #
plane-surface $-1 0 0 7.7958716936023578 0 0 1 1 0 0 forward_v I I I I #
face $-1 $116 $117 $43 $-1 $118 reversed single #
loop $-1 $-1 $119 $57 #
plane-surface $-1 0 -31.657866871268865 0 0 1 0 0 0 1 forward_v I I I I #
face $-1 $120 $121 $44 $-1 $122 reversed single #
loop $-1 $-1 $123 $58 #
plane-surface $-1 -39.249237644289636 52.763880217802367 124.24480340054942 -1 0 0 0 0.64278761758704617 0.76604443648966558 forward_v I I I I #
face $-1 $124 $125 $45 $-1 $126 forward single #
loop $-1 $127 $128 $59 #
cone-surface $-1 -49.889738978592909 25.936565498931781 2.4917530137097441 0 -0.64278761758704617 -0.76604443648966558 1.5 0 0 1 I I 0 1 1.5 forward I I I I #
face $-1 $129 $130 $46 $-1 $131 forward single #
loop $-1 $132 $133 $60 #
cone-surface $-1 -43.505438178010948 25.936565498931781 2.4917530137097441 0 -0.64278761758704617 -0.76604443648966558 1.5 0 0 1 I I 0 1 1.5 forward I I I I #
face $-1 $134 $135 $47 $-1 $136 reversed single #
loop $-1 $-1 $137 $61 #
plane-surface $-1 -8.1175119254216881 52.763880217802367 124.24480340054942 -1 0 0 0 0.64278761758704617 0.76604443648966558 forward_v I I I I #
face $-1 $138 $139 $48 $-1 $140 forward single #
loop $-1 $141 $142 $62 #
cone-surface $-1 -18.758013259724962 25.936565498931781 2.4917530137097441 0 -0.64278761758704617 -0.76604443648966558 1.5 0 0 1 I I 0 1 1.5 forward I I I I #
face $-1 $143 $144 $49 $-1 $145 forward single #
loop $-1 $146 $147 $63 #
cone-surface $-1 -12.373712459142993 25.936565498931781 2.4917530137097441 0 -0.64278761758704617 -0.76604443648966558 1.5 0 0 1 I I 0 1 1.5 forward I I I I #
face $-1 $148 $149 $50 $-1 $150 reversed single #
loop $-1 $-1 $151 $64 #
plane-surface $-1 23.014213793446253 52.763880217802367 124.24480340054942 -1 0 0 0 0.64278761758704617 0.76604443648966558 forward_v I I I I #
face $-1 $152 $153 $51 $-1 $154 forward single #
loop $-1 $155 $156 $65 #
cone-surface $-1 12.373712459142979 25.936565498931781 2.4917530137097441 0 -0.64278761758704617 -0.76604443648966558 1.5 0 0 1 I I 0 1 1.5 forward I I I I #
face $-1 $157 $158 $52 $-1 $159 forward single #
loop $-1 $160 $161 $66 #
cone-surface $-1 18.758013259724947 25.936565498931781 2.4917530137097441 0 -0.64278761758704617 -0.76604443648966558 1.5 0 0 1 I I 0 1 1.5 forward I I I I #
face $-1 $162 $163 $53 $-1 $164 reversed single #
loop $-1 $-1 $165 $67 #
plane-surface $-1 46.697588578301918 -16.844798704463159 41.288411956720893 0 0.64278761758704617 0.76604443648966558 1 0 0 forward_v I I I I #
face $-1 $166 $167 $54 $-1 $168 forward single #
loop $-1 $169 $170 $68 #
cone-surface $-1 43.505438178010934 25.936565498931781 2.4917530137097441 0 -0.64278761758704617 -0.76604443648966558 1.5 0 0 1 I I 0 1 1.5 forward I I I I #
face $-1 $171 $172 $55 $-1 $173 forward single #
loop $-1 $174 $175 $69 #
cone-surface $-1 49.889738978592902 25.936565498931781 2.4917530137097441 0 -0.64278761758704617 -0.76604443648966558 1.5 0 0 1 I I 0 1 1.5 forward I I I I #
face $-1 $176 $177 $42 $-1 $178 reversed single #
loop $-1 $-1 $179 $70 #
plane-surface $-1 0 0 -7.7958716936023578 0 0 1 1 0 0 forward_v I I I I #
coedge $-1 $180 $181 $182 $183 forward $71 $-1 #
face $-1 $184 $185 $43 $-1 $186 reversed single #
loop $-1 $-1 $187 $73 #
plane-surface $-1 0 0 -7.7958716936023578 0 0 1 1 0 0 forward_v I I I I #
coedge $-1 $188 $189 $190 $191 forward $74 $-1 #
face $-1 $192 $193 $44 $-1 $194 reversed single #
loop $-1 $-1 $195 $76 #
plane-surface $-1 -46.697588578301925 -16.844798704463159 41.288411956720893 0 0.64278761758704617 0.76604443648966558 1 0 0 forward_v I I I I #
coedge $-1 $196 $197 $198 $199 reversed $77 $-1 #
face $-1 $-1 $200 $45 $-1 $201 forward single #
loop $-1 $202 $203 $79 #
cone-surface $-1 -49.889738978592909 24.027079027439086 0.21611569896141702 0 -0.64278761758704617 -0.76604443648966558 0.75 0 0 1 I I -0.70710678118654757 0.70710678118654757 0.75 forward I I I I #
loop $-1 $-1 $204 $59 #
coedge $-1 $128 $128 $205 $206 reversed $80 $-1 #
face $-1 $-1 $207 $46 $-1 $208 forward single #
loop $-1 $209 $210 $82 #
cone-surface $-1 -43.505438178010948 24.027079027439086 0.21611569896141702 0 -0.64278761758704617 -0.76604443648966558 0.75 0 0 1 I I -0.70710678118654757 0.70710678118654757 0.75 forward I I I I #
loop $-1 $-1 $211 $60 #
coedge $-1 $133 $133 $212 $213 reversed $83 $-1 #
face $-1 $214 $215 $47 $-1 $216 reversed single #
loop $-1 $-1 $217 $85 #
plane-surface $-1 -15.565862859433977 -16.844798704463159 41.288411956720893 0 0.64278761758704617 0.76604443648966558 1 0 0 forward_v I I I I #
coedge $-1 $218 $219 $220 $221 reversed $86 $-1 #
face $-1 $-1 $222 $48 $-1 $223 forward single #
loop $-1 $224 $225 $88 #
cone-surface $-1 -18.758013259724962 24.027079027439086 0.21611569896141702 0 -0.64278761758704617 -0.76604443648966558 0.75 0 0 1 I I -0.70710678118654757 0.70710678118654757 0.75 forward I I I I #
loop $-1 $-1 $226 $62 #
coedge $-1 $142 $142 $227 $228 reversed $89 $-1 #
face $-1 $-1 $229 $49 $-1 $230 forward single #
loop $-1 $231 $232 $91 #
cone-surface $-1 -12.373712459142993 24.027079027439086 0.21611569896141702 0 -0.64278761758704617 -0.76604443648966558 0.75 0 0 1 I I -0.70710678118654757 0.70710678118654757 0.75 forward I I I I #
loop $-1 $-1 $233 $63 #
coedge $-1 $147 $147 $234 $235 reversed $92 $-1 #
face $-1 $236 $237 $50 $-1 $238 reversed single #
loop $-1 $-1 $239 $94 #
plane-surface $-1 15.565862859433963 -16.844798704463159 41.288411956720893 0 0.64278761758704617 0.76604443648966558 1 0 0 forward_v I I I I #
coedge $-1 $240 $241 $242 $243 reversed $95 $-1 #
face $-1 $-1 $244 $51 $-1 $245 forward single #
loop $-1 $246 $247 $97 #
cone-surface $-1 12.373712459142979 24.027079027439086 0.21611569896141702 0 -0.64278761758704617 -0.76604443648966558 0.75 0 0 1 I I -0.70710678118654757 0.70710678118654757 0.75 forward I I I I #
loop $-1 $-1 $248 $65 #
coedge $-1 $156 $156 $249 $250 reversed $98 $-1 #
face $-1 $-1 $251 $52 $-1 $252 forward single #
loop $-1 $253 $254 $100 #
cone-surface $-1 18.758013259724947 24.027079027439086 0.21611569896141702 0 -0.64278761758704617 -0.76604443648966558 0.75 0 0 1 I I -0.70710678118654757 0.70710678118654757 0.75 forward I I I I #
loop $-1 $-1 $255 $66 #
coedge $-1 $161 $161 $256 $257 reversed $101 $-1 #
face $-1 $258 $259 $53 $-1 $260 forward single #
loop $-1 $-1 $261 $103 #
plane-surface $-1 39.249237644289629 52.763880217802367 124.24480340054942 1 0 0 0 -0.64278761758704617 -0.76604443648966558 forward_v I I I I #
coedge $-1 $262 $263 $264 $265 reversed $104 $-1 #
face $-1 $-1 $266 $54 $-1 $267 forward single #
loop $-1 $268 $269 $106 #
cone-surface $-1 43.505438178010934 24.027079027439086 0.21611569896141702 0 -0.64278761758704617 -0.76604443648966558 0.75 0 0 1 I I -0.70710678118654757 0.70710678118654757 0.75 forward I I I I #
loop $-1 $-1 $270 $68 #
coedge $-1 $170 $170 $271 $272 reversed $107 $-1 #
face $-1 $-1 $273 $55 $-1 $274 forward single #
loop $-1 $275 $276 $109 #
cone-surface $-1 49.889738978592902 24.027079027439086 0.21611569896141702 0 -0.64278761758704617 -0.76604443648966558 0.75 0 0 1 I I -0.70710678118654757 0.70710678118654757 0.75 forward I I I I #
loop $-1 $-1 $277 $69 #
coedge $-1 $175 $175 $278 $279 reversed $110 $-1 #
face $-1 $280 $281 $42 $-1 $282 reversed single #
loop $-1 $-1 $283 $112 #
plane-surface $-1 0 -31.657866871268865 0 0 1 0 0 0 1 forward_v I I I I #
coedge $-1 $284 $285 $286 $287 forward $113 $-1 #
coedge $-1 $288 $115 $289 $290 forward $71 $-1 #
coedge $-1 $115 $288 $291 $292 forward $71 $-1 #
coedge $-1 $293 $294 $115 $183 reversed $295 $-1 #
edge $-1 $296 -31.657866871268865 $297 31.657866871268865 $182 $298 forward 7 unknown #
face $-1 $299 $300 $43 $-1 $301 reversed single #
loop $-1 $-1 $302 $116 #
plane-surface $-1 -45.243409555377099 -40.865565289916901 0 0 1 0 0 0 1 forward_v I I I I #
coedge $-1 $303 $304 $189 $305 forward $117 $-1 #
coedge $-1 $306 $119 $307 $308 reversed $74 $-1 #
coedge $-1 $119 $306 $187 $305 reversed $74 $-1 #
coedge $-1 $309 $310 $119 $191 reversed $300 $-1 #
edge $-1 $311 -7.7958716936023578 $312 7.7958716936023578 $190 $313 forward 7 unknown #
face $-1 $314 $315 $44 $-1 $316 forward single #
loop $-1 $-1 $317 $120 #
plane-surface $-1 -54.145939512314214 0 0 1 0 0 0 0 -1 forward_v I I I I #
coedge $-1 $318 $319 $320 $321 reversed $121 $-1 #
coedge $-1 $197 $123 $322 $323 reversed $77 $-1 #
coedge $-1 $123 $196 $318 $324 reversed $77 $-1 #
coedge $-1 $320 $325 $123 $199 forward $326 $-1 #
edge $-1 $327 54.32653000667235 $328 61.532559391695401 $198 $329 forward 7 unknown #
loop $-1 $-1 $205 $124 #
plane-surface $-1 -46.697588578301925 -16.844798704463159 41.288411956720893 0 0.64278761758704617 0.76604443648966558 1 0 0 forward_v I I I I #
loop $-1 $-1 $330 $79 #
coedge $-1 $203 $203 $204 $331 reversed $125 $-1 #
coedge $-1 $204 $204 $203 $331 forward $127 $-1 #
coedge $-1 $205 $205 $128 $206 forward $200 $-1 #
edge $-1 $332 -1.4596539550692403e-015 $332 6.2831853071795987 $205 $333 forward 7 unknown #
loop $-1 $-1 $212 $129 #
plane-surface $-1 -46.697588578301925 -16.844798704463159 41.288411956720893 0 0.64278761758704617 0.76604443648966558 1 0 0 forward_v I I I I #
loop $-1 $-1 $334 $82 #
coedge $-1 $210 $210 $211 $335 reversed $130 $-1 #
coedge $-1 $211 $211 $210 $335 forward $132 $-1 #
coedge $-1 $212 $212 $133 $213 forward $207 $-1 #
edge $-1 $336 -1.4596539550692403e-015 $336 6.2831853071795987 $212 $337 forward 7 unknown #
face $-1 $338 $339 $47 $-1 $340 forward single #
loop $-1 $-1 $341 $134 #
plane-surface $-1 -23.014213793446267 52.763880217802367 124.24480340054942 1 0 0 0 -0.64278761758704617 -0.76604443648966558 forward_v I I I I #
coedge $-1 $342 $343 $344 $345 reversed $135 $-1 #
coedge $-1 $219 $137 $346 $347 reversed $86 $-1 #
coedge $-1 $137 $218 $342 $348 reversed $86 $-1 #
coedge $-1 $344 $349 $137 $221 forward $350 $-1 #
edge $-1 $351 54.32653000667235 $352 61.532559391695401 $220 $353 forward 7 unknown #
loop $-1 $-1 $227 $138 #
plane-surface $-1 -15.565862859433977 -16.844798704463159 41.288411956720893 0 0.64278761758704617 0.76604443648966558 1 0 0 forward_v I I I I #
loop $-1 $-1 $354 $88 #
coedge $-1 $225 $225 $226 $355 reversed $139 $-1 #
coedge $-1 $226 $226 $225 $355 forward $141 $-1 #
coedge $-1 $227 $227 $142 $228 forward $222 $-1 #
edge $-1 $356 -1.4596539550692403e-015 $356 6.2831853071795987 $227 $357 forward 7 unknown #
loop $-1 $-1 $234 $143 #
plane-surface $-1 -15.565862859433977 -16.844798704463159 41.288411956720893 0 0.64278761758704617 0.76604443648966558 1 0 0 forward_v I I I I #
loop $-1 $-1 $358 $91 #
coedge $-1 $232 $232 $233 $359 reversed $144 $-1 #
coedge $-1 $233 $233 $232 $359 forward $146 $-1 #
coedge $-1 $234 $234 $147 $235 forward $229 $-1 #
edge $-1 $360 -1.4596539550692403e-015 $360 6.2831853071795987 $234 $361 forward 7 unknown #
face $-1 $362 $363 $50 $-1 $364 forward single #
loop $-1 $-1 $365 $148 #
plane-surface $-1 8.1175119254216739 52.763880217802367 124.24480340054942 1 0 0 0 -0.64278761758704617 -0.76604443648966558 forward_v I I I I #
coedge $-1 $366 $367 $368 $369 reversed $149 $-1 #
coedge $-1 $241 $151 $370 $371 reversed $95 $-1 #
coedge $-1 $151 $240 $366 $372 reversed $95 $-1 #
coedge $-1 $368 $373 $151 $243 forward $374 $-1 #
edge $-1 $375 54.32653000667235 $376 61.532559391695401 $242 $377 forward 7 unknown #
loop $-1 $-1 $249 $152 #
plane-surface $-1 15.565862859433963 -16.844798704463159 41.288411956720893 0 0.64278761758704617 0.76604443648966558 1 0 0 forward_v I I I I #
loop $-1 $-1 $378 $97 #
coedge $-1 $247 $247 $248 $379 reversed $153 $-1 #
coedge $-1 $248 $248 $247 $379 forward $155 $-1 #
coedge $-1 $249 $249 $156 $250 forward $244 $-1 #
edge $-1 $380 -1.4596539550692403e-015 $380 6.2831853071795987 $249 $381 forward 7 unknown #
loop $-1 $-1 $256 $157 #
plane-surface $-1 15.565862859433963 -16.844798704463159 41.288411956720893 0 0.64278761758704617 0.76604443648966558 1 0 0 forward_v I I I I #
loop $-1 $-1 $382 $100 #
coedge $-1 $254 $254 $255 $383 reversed $158 $-1 #
coedge $-1 $255 $255 $254 $383 forward $160 $-1 #
coedge $-1 $256 $256 $161 $257 forward $251 $-1 #
edge $-1 $384 -1.4596539550692403e-015 $384 6.2831853071795987 $256 $385 forward 7 unknown #
face $-1 $386 $387 $53 $-1 $388 reversed single #
loop $-1 $-1 $389 $162 #
plane-surface $-1 0 0 7.7958716936023578 0 0 1 1 0 0 forward_v I I I I #
coedge $-1 $390 $391 $392 $393 reversed $163 $-1 #
coedge $-1 $394 $165 $395 $396 reversed $104 $-1 #
coedge $-1 $165 $394 $390 $397 forward $104 $-1 #
coedge $-1 $392 $398 $165 $265 forward $387 $-1 #
edge $-1 $399 -30.797145223163248 $400 -15.90044335513867 $264 $401 forward 7 unknown #
loop $-1 $-1 $271 $166 #
plane-surface $-1 46.697588578301918 -16.844798704463159 41.288411956720893 0 0.64278761758704617 0.76604443648966558 1 0 0 forward_v I I I I #
loop $-1 $-1 $402 $106 #
coedge $-1 $269 $269 $270 $403 reversed $167 $-1 #
coedge $-1 $270 $270 $269 $403 forward $169 $-1 #
coedge $-1 $271 $271 $170 $272 forward $266 $-1 #
edge $-1 $404 -1.4596539550692403e-015 $404 6.2831853071795987 $271 $405 forward 7 unknown #
loop $-1 $-1 $278 $171 #
plane-surface $-1 46.697588578301918 -16.844798704463159 41.288411956720893 0 0.64278761758704617 0.76604443648966558 1 0 0 forward_v I I I I #
loop $-1 $-1 $406 $109 #
coedge $-1 $276 $276 $277 $407 reversed $172 $-1 #
coedge $-1 $277 $277 $276 $407 forward $174 $-1 #
coedge $-1 $278 $278 $175 $279 forward $273 $-1 #
edge $-1 $408 -1.4596539550692403e-015 $408 6.2831853071795987 $278 $409 forward 7 unknown #
face $-1 $410 $411 $42 $-1 $412 reversed single #
loop $-1 $-1 $413 $176 #
plane-surface $-1 -54.145939512314214 0 0 1 0 0 0 0 -1 forward_v I I I I #
coedge $-1 $414 $291 $415 $416 forward $177 $-1 #
coedge $-1 $417 $179 $414 $418 forward $113 $-1 #
coedge $-1 $179 $417 $419 $420 forward $113 $-1 #
coedge $-1 $294 $293 $179 $287 reversed $295 $-1 #
edge $-1 $421 -31.657866871268865 $422 31.657866871268865 $286 $423 forward 7 unknown #
coedge $-1 $181 $180 $424 $425 forward $71 $-1 #
coedge $-1 $426 $427 $180 $290 reversed $411 $-1 #
edge $-1 $297 -54.145939512314214 $428 54.145939512314214 $289 $429 forward 7 unknown #
coedge $-1 $283 $430 $181 $292 reversed $177 $-1 #
edge $-1 $431 -54.145939512314214 $296 54.145939512314214 $291 $432 forward 7 unknown #
coedge $-1 $286 $182 $430 $433 forward $295 $-1 #
coedge $-1 $182 $286 $426 $434 reversed $295 $-1 #
loop $-1 $-1 $293 $410 #
vertex $-1 $183 $435 #
vertex $-1 $183 $436 #
straight-curve $-1 54.145939512314214 0 7.7958716936023578 0 1 0 I I #
face $-1 $437 $438 $43 $-1 $439 reversed single #
loop $-1 $-1 $190 $184 #
plane-surface $-1 -47.381320363554273 -36.261716080592883 0 1 0 0 0 0 -1 forward_v I I I I #
coedge $-1 $440 $441 $442 $443 forward $185 $-1 #
coedge $-1 $444 $187 $445 $446 forward $117 $-1 #
coedge $-1 $187 $444 $309 $447 forward $117 $-1 #
edge $-1 $311 -47.381320363554273 $448 -43.105498747199924 $187 $449 forward 7 unknown #
coedge $-1 $189 $188 $450 $451 forward $74 $-1 #
coedge $-1 $452 $453 $188 $308 forward $454 $-1 #
edge $-1 $455 43.105498747199924 $312 47.381320363554273 $307 $456 forward 7 unknown #
coedge $-1 $442 $190 $304 $447 reversed $300 $-1 #
coedge $-1 $190 $442 $452 $457 reversed $300 $-1 #
vertex $-1 $305 $458 #
vertex $-1 $457 $459 #
straight-curve $-1 -47.381320363554273 -31.657866871268865 0 0 0 1 I I #
face $-1 $-1 $326 $44 $-1 $460 reversed single #
loop $-1 $-1 $322 $192 #
plane-surface $-1 0 0 7.7958716936023578 0 0 1 1 0 0 forward_v I I I I #
coedge $-1 $461 $462 $319 $463 forward $193 $-1 #
coedge $-1 $464 $195 $197 $324 forward $121 $-1 #
coedge $-1 $195 $464 $317 $463 reversed $121 $-1 #
coedge $-1 $465 $198 $195 $321 forward $326 $-1 #
edge $-1 $328 15.900443355138673 $466 30.797145223163252 $320 $467 forward 7 unknown #
coedge $-1 $468 $469 $196 $323 forward $315 $-1 #
edge $-1 $470 -3.3118844657016169 $327 5.275926762367682 $322 $471 forward 7 unknown #
edge $-1 $328 -63.315733742537738 $470 -52.105142268990555 $197 $472 forward 7 unknown #
coedge $-1 $198 $465 $468 $473 reversed $326 $-1 #
loop $-1 $-1 $320 $314 #
vertex $-1 $473 $474 #
vertex $-1 $199 $475 #
straight-curve $-1 -39.249237644289636 31.657866871268865 62.122401700274708 0 0 -1 I I #
coedge $-1 $330 $330 $-1 $476 reversed $202 $-1 #
edge $-1 $477 0 $477 6.2831853071796004 $203 $478 forward 7 unknown #
vertex $-1 $206 $479 #
ellipse-curve $-1 -49.889738978592909 27.363961257234205 4.1928570010908395 0 0.64278761758704617 0.76604443648966558 1.5 0 0 1 I I #
coedge $-1 $334 $334 $-1 $480 reversed $209 $-1 #
edge $-1 $481 0 $481 6.2831853071796004 $210 $482 forward 7 unknown #
vertex $-1 $213 $483 #
ellipse-curve $-1 -43.505438178010948 27.363961257234205 4.1928570010908395 0 0.64278761758704617 0.76604443648966558 1.5 0 0 1 I I #
face $-1 $-1 $350 $47 $-1 $484 reversed single #
loop $-1 $-1 $485 $214 #
plane-surface $-1 0 0 7.7958716936023578 0 0 1 1 0 0 forward_v I I I I #
coedge $-1 $486 $487 $488 $489 reversed $215 $-1 #
coedge $-1 $490 $217 $219 $348 forward $135 $-1 #
coedge $-1 $217 $490 $486 $491 forward $135 $-1 #
coedge $-1 $488 $220 $217 $345 forward $350 $-1 #
edge $-1 $352 0.33458049570469939 $492 15.231282363729278 $344 $493 forward 7 unknown #
coedge $-1 $494 $495 $218 $347 forward $339 $-1 #
edge $-1 $496 -3.3118844657016169 $351 5.275926762367682 $346 $497 forward 7 unknown #
edge $-1 $352 -63.315733742537738 $496 -52.105142268990555 $219 $498 forward 7 unknown #
coedge $-1 $220 $488 $494 $499 reversed $350 $-1 #
loop $-1 $-1 $488 $338 #
vertex $-1 $499 $500 #
vertex $-1 $221 $501 #
straight-curve $-1 -8.1175119254216881 31.657866871268865 62.122401700274708 0 0 -1 I I #
coedge $-1 $354 $354 $-1 $502 reversed $224 $-1 #
edge $-1 $503 0 $503 6.2831853071796004 $225 $504 forward 7 unknown #
vertex $-1 $228 $505 #
ellipse-curve $-1 -18.758013259724962 27.363961257234205 4.1928570010908395 0 0.64278761758704617 0.76604443648966558 1.5 0 0 1 I I #
coedge $-1 $358 $358 $-1 $506 reversed $231 $-1 #
edge $-1 $507 0 $507 6.2831853071796004 $232 $508 forward 7 unknown #
vertex $-1 $235 $509 #
ellipse-curve $-1 -12.373712459142993 27.363961257234205 4.1928570010908395 0 0.64278761758704617 0.76604443648966558 1.5 0 0 1 I I #
face $-1 $-1 $374 $50 $-1 $510 reversed single #
loop $-1 $-1 $511 $236 #
plane-surface $-1 0 0 7.7958716936023578 0 0 1 1 0 0 forward_v I I I I #
coedge $-1 $512 $513 $514 $515 reversed $237 $-1 #
coedge $-1 $516 $239 $241 $372 forward $149 $-1 #
coedge $-1 $239 $516 $512 $517 forward $149 $-1 #
coedge $-1 $514 $242 $239 $369 forward $374 $-1 #
edge $-1 $376 -15.231282363729271 $518 -0.33458049570469228 $368 $519 forward 7 unknown #
coedge $-1 $520 $521 $240 $371 forward $363 $-1 #
edge $-1 $522 -3.3118844657016169 $375 5.275926762367682 $370 $523 forward 7 unknown #
edge $-1 $376 -63.315733742537738 $522 -52.105142268990555 $241 $524 forward 7 unknown #
coedge $-1 $242 $514 $520 $525 reversed $374 $-1 #
loop $-1 $-1 $514 $362 #
vertex $-1 $525 $526 #
vertex $-1 $243 $527 #
straight-curve $-1 23.014213793446253 31.657866871268865 62.122401700274708 0 0 -1 I I #
coedge $-1 $378 $378 $-1 $528 reversed $246 $-1 #
edge $-1 $529 0 $529 6.2831853071796004 $247 $530 forward 7 unknown #
vertex $-1 $250 $531 #
ellipse-curve $-1 12.373712459142979 27.363961257234205 4.1928570010908395 0 0.64278761758704617 0.76604443648966558 1.5 0 0 1 I I #
coedge $-1 $382 $382 $-1 $532 reversed $253 $-1 #
edge $-1 $533 0 $533 6.2831853071796004 $254 $534 forward 7 unknown #
vertex $-1 $257 $535 #
ellipse-curve $-1 18.758013259724947 27.363961257234205 4.1928570010908395 0 0.64278761758704617 0.76604443648966558 1.5 0 0 1 I I #
face $-1 $-1 $536 $53 $-1 $537 reversed single #
loop $-1 $-1 $392 $258 #
plane-surface $-1 0 31.657866871268865 0 0 -1 0 0 0 -1 forward_v I I I I #
coedge $-1 $538 $539 $391 $540 forward $259 $-1 #
coedge $-1 $391 $261 $263 $397 reversed $163 $-1 #
coedge $-1 $261 $390 $389 $540 reversed $163 $-1 #
coedge $-1 $541 $264 $261 $393 forward $387 $-1 #
edge $-1 $400 -61.532559391695401 $542 -54.32653000667235 $392 $543 forward 7 unknown #
coedge $-1 $263 $262 $538 $544 reversed $104 $-1 #
coedge $-1 $545 $546 $262 $396 forward $536 $-1 #
edge $-1 $547 32.383370125512819 $399 43.593961599060009 $395 $548 forward 7 unknown #
edge $-1 $549 52.105142268990555 $400 63.315733742537738 $390 $550 forward 7 unknown #
coedge $-1 $264 $541 $545 $551 forward $387 $-1 #
vertex $-1 $396 $552 #
vertex $-1 $265 $553 #
straight-curve $-1 23.348794289150959 31.657866871268858 0.58984230857931763 -1 0 0 I I #
coedge $-1 $402 $402 $-1 $554 reversed $268 $-1 #
edge $-1 $555 0 $555 6.2831853071796004 $269 $556 forward 7 unknown #
vertex $-1 $272 $557 #
ellipse-curve $-1 43.505438178010934 27.363961257234205 4.1928570010908395 0 0.64278761758704617 0.76604443648966558 1.5 0 0 1 I I #
coedge $-1 $406 $406 $-1 $558 reversed $275 $-1 #
edge $-1 $559 0 $559 6.2831853071796004 $276 $560 forward 7 unknown #
vertex $-1 $279 $561 #
ellipse-curve $-1 49.889738978592902 27.363961257234205 4.1928570010908395 0 0.64278761758704617 0.76604443648966558 1.5 0 0 1 I I #
face $-1 $-1 $295 $42 $-1 $562 reversed single #
loop $-1 $-1 $426 $280 #
plane-surface $-1 0 31.657866871268865 0 0 -1 0 0 0 -1 forward_v I I I I #
coedge $-1 $563 $424 $427 $564 forward $281 $-1 #
coedge $-1 $430 $283 $284 $418 reversed $177 $-1 #
coedge $-1 $424 $563 $283 $416 reversed $281 $-1 #
edge $-1 $431 -7.7958716936023578 $565 7.7958716936023578 $415 $566 forward 7 unknown #
coedge $-1 $285 $284 $563 $567 forward $113 $-1 #
edge $-1 $422 -54.145939512314214 $565 54.145939512314214 $414 $568 forward 7 unknown #
coedge $-1 $427 $426 $285 $420 reversed $411 $-1 #
edge $-1 $569 -54.145939512314214 $421 54.145939512314214 $419 $570 forward 7 unknown #
vertex $-1 $287 $571 #
vertex $-1 $433 $572 #
straight-curve $-1 54.145939512314214 0 -7.7958716936023578 0 -1 0 I I #
coedge $-1 $413 $415 $288 $425 reversed $281 $-1 #
edge $-1 $428 -31.657866871268865 $431 31.657866871268865 $424 $573 forward 7 unknown #
coedge $-1 $419 $289 $294 $434 forward $411 $-1 #
coedge $-1 $289 $419 $413 $564 reversed $411 $-1 #
vertex $-1 $290 $574 #
straight-curve $-1 0 31.657866871268865 7.7958716936023578 -1 0 0 I I #
coedge $-1 $291 $414 $293 $433 reversed $177 $-1 #
vertex $-1 $425 $575 #
straight-curve $-1 0 -31.657866871268865 7.7958716936023578 1 0 0 I I #
edge $-1 $296 -7.7958716936023578 $422 7.7958716936023578 $293 $576 forward 7 unknown #
edge $-1 $297 -7.7958716936023578 $421 7.7958716936023578 $294 $577 forward 7 unknown #
point $-1 54.145939512314214 -31.657866871268865 7.7958716936023578 #
point $-1 54.145939512314214 31.657866871268865 7.7958716936023578 #
face $-1 $-1 $454 $43 $-1 $578 forward single #
loop $-1 $-1 $579 $299 #
plane-surface $-1 -43.105498747199924 -36.261716080592883 0 -1 0 0 0 0 1 forward_v I I I I #
coedge $-1 $580 $302 $444 $581 reversed $185 $-1 #
coedge $-1 $302 $580 $582 $583 reversed $185 $-1 #
coedge $-1 $310 $309 $302 $443 reversed $300 $-1 #
edge $-1 $584 -7.7958716936023578 $585 7.7958716936023578 $442 $586 forward 7 unknown #
coedge $-1 $304 $303 $440 $581 forward $117 $-1 #
coedge $-1 $450 $579 $303 $446 reversed $438 $-1 #
edge $-1 $448 -4.6038492093240215 $587 4.603849209324018 $445 $588 forward 7 unknown #
edge $-1 $585 -4.603849209324018 $311 4.6038492093240215 $309 $589 forward 7 unknown #
vertex $-1 $446 $590 #
straight-curve $-1 0 -31.657866871268865 -7.7958716936023578 1 0 0 I I #
coedge $-1 $591 $445 $306 $451 reversed $438 $-1 #
edge $-1 $455 -7.7958716936023578 $448 7.7958716936023578 $450 $592 forward 7 unknown #
coedge $-1 $582 $307 $310 $457 forward $454 $-1 #
coedge $-1 $307 $582 $591 $593 forward $454 $-1 #
loop $-1 $-1 $307 $437 #
vertex $-1 $308 $594 #
straight-curve $-1 0 -31.657866871268865 7.7958716936023578 -1 0 0 I I #
edge $-1 $312 -4.6038492093240215 $584 4.603849209324018 $310 $595 forward 7 unknown #
point $-1 -47.381320363554273 -31.657866871268862 -7.7958716936023578 #
point $-1 -47.381320363554273 -31.657866871268862 7.7958716936023578 #
plane-surface $-1 0 31.657866871268865 0 0 -1 0 0 0 -1 forward_v I I I I #
coedge $-1 $462 $317 $596 $597 reversed $193 $-1 #
coedge $-1 $317 $461 $465 $598 forward $193 $-1 #
edge $-1 $466 -43.593961599060002 $599 -32.383370125512819 $317 $600 forward 7 unknown #
coedge $-1 $319 $318 $469 $601 reversed $121 $-1 #
coedge $-1 $325 $320 $462 $598 reversed $326 $-1 #
vertex $-1 $463 $602 #
straight-curve $-1 -23.348794289150963 31.657866871268858 0.58984230857931763 -1 0 0 I I #
coedge $-1 $596 $322 $325 $473 forward $315 $-1 #
coedge $-1 $322 $596 $464 $601 forward $315 $-1 #
vertex $-1 $323 $603 #
straight-curve $-1 -39.249237644289636 26.381940108901183 7.7958716936023578 0 1 0 I I #
straight-curve $-1 -39.249237644289636 -16.844798704463159 41.288411956720893 0 -0.76604443648966558 0.64278761758704617 I I #
edge $-1 $327 39.249237644289636 $604 54.145939512314214 $325 $605 forward 7 unknown #
point $-1 -39.249237644289636 31.657866871268865 7.7958716936023578 #
point $-1 -39.249237644289636 31.657866871268865 0.58984230857930697 #
edge $-1 $606 1 $606 0 $330 $-1 forward 7 unknown #
vertex $-1 $331 $607 #
ellipse-curve $-1 -49.889738978592909 24.509169740629371 0.79064902632866618 0 0.64278761758704617 0.76604443648966558 1.5 0 0 1 I I #
point $-1 -48.389738978592909 27.363961257234187 4.1928570010908217 #
edge $-1 $608 1 $608 0 $334 $-1 forward 7 unknown #
vertex $-1 $335 $609 #
ellipse-curve $-1 -43.505438178010948 24.509169740629371 0.79064902632866618 0 0.64278761758704617 0.76604443648966558 1.5 0 0 1 I I #
point $-1 -42.005438178010948 27.363961257234187 4.1928570010908217 #
plane-surface $-1 0 31.657866871268865 0 0 -1 0 0 0 -1 forward_v I I I I #
coedge $-1 $495 $494 $487 $610 forward $339 $-1 #
coedge $-1 $487 $341 $343 $491 reversed $215 $-1 #
coedge $-1 $341 $486 $485 $610 reversed $215 $-1 #
coedge $-1 $349 $344 $341 $489 forward $350 $-1 #
edge $-1 $492 -61.532559391695401 $611 -54.32653000667235 $488 $612 forward 7 unknown #
coedge $-1 $343 $342 $495 $613 reversed $135 $-1 #
edge $-1 $614 52.105142268990555 $492 63.315733742537738 $486 $615 forward 7 unknown #
vertex $-1 $345 $616 #
straight-curve $-1 -7.7829314297169887 31.657866871268858 0.58984230857931763 -1 0 0 I I #
coedge $-1 $485 $346 $349 $499 forward $339 $-1 #
coedge $-1 $346 $485 $490 $613 forward $339 $-1 #
vertex $-1 $347 $617 #
straight-curve $-1 -8.1175119254216881 26.381940108901183 7.7958716936023578 0 1 0 I I #
straight-curve $-1 -8.1175119254216881 -16.844798704463159 41.288411956720893 0 -0.76604443648966558 0.64278761758704617 I I #
edge $-1 $351 8.1175119254216881 $611 23.014213793446267 $349 $618 forward 7 unknown #
point $-1 -8.1175119254216881 31.657866871268865 7.7958716936023578 #
point $-1 -8.1175119254216881 31.657866871268865 0.58984230857930697 #
edge $-1 $619 1 $619 0 $354 $-1 forward 7 unknown #
vertex $-1 $355 $620 #
ellipse-curve $-1 -18.758013259724962 24.509169740629371 0.79064902632866618 0 0.64278761758704617 0.76604443648966558 1.5 0 0 1 I I #
point $-1 -17.258013259724962 27.363961257234187 4.1928570010908217 #
edge $-1 $621 1 $621 0 $358 $-1 forward 7 unknown #
vertex $-1 $359 $622 #
ellipse-curve $-1 -12.373712459142993 24.509169740629371 0.79064902632866618 0 0.64278761758704617 0.76604443648966558 1.5 0 0 1 I I #
point $-1 -10.873712459142993 27.363961257234187 4.1928570010908217 #
plane-surface $-1 0 31.657866871268865 0 0 -1 0 0 0 -1 forward_v I I I I #
coedge $-1 $521 $520 $513 $623 forward $363 $-1 #
coedge $-1 $513 $365 $367 $517 reversed $237 $-1 #
coedge $-1 $365 $512 $511 $623 reversed $237 $-1 #
coedge $-1 $373 $368 $365 $515 forward $374 $-1 #
edge $-1 $518 -61.532559391695401 $624 -54.32653000667235 $514 $625 forward 7 unknown #
coedge $-1 $367 $366 $521 $626 reversed $149 $-1 #
edge $-1 $627 52.105142268990555 $518 63.315733742537738 $512 $628 forward 7 unknown #
vertex $-1 $369 $629 #
straight-curve $-1 7.7829314297169816 31.657866871268858 0.58984230857931763 -1 0 0 I I #
coedge $-1 $511 $370 $373 $525 forward $363 $-1 #
coedge $-1 $370 $511 $516 $626 forward $363 $-1 #
vertex $-1 $371 $630 #
straight-curve $-1 23.014213793446253 26.381940108901183 7.7958716936023578 0 1 0 I I #
straight-curve $-1 23.014213793446253 -16.844798704463159 41.288411956720893 0 -0.76604443648966558 0.64278761758704617 I I #
edge $-1 $375 -23.014213793446253 $624 -8.1175119254216739 $373 $631 forward 7 unknown #
point $-1 23.014213793446253 31.657866871268865 7.7958716936023578 #
point $-1 23.014213793446253 31.657866871268865 0.58984230857930697 #
edge $-1 $632 1 $632 0 $378 $-1 forward 7 unknown #
vertex $-1 $379 $633 #
ellipse-curve $-1 12.373712459142979 24.509169740629371 0.79064902632866618 0 0.64278761758704617 0.76604443648966558 1.5 0 0 1 I I #
point $-1 13.873712459142979 27.363961257234187 4.1928570010908217 #
edge $-1 $634 1 $634 0 $382 $-1 forward 7 unknown #
vertex $-1 $383 $635 #
ellipse-curve $-1 18.758013259724947 24.509169740629371 0.79064902632866618 0 0.64278761758704617 0.76604443648966558 1.5 0 0 1 I I #
point $-1 20.258013259724947 27.363961257234187 4.1928570010908217 #
loop $-1 $-1 $395 $386 #
plane-surface $-1 54.145939512314214 0 0 -1 0 0 0 0 1 forward_v I I I I #
coedge $-1 $636 $389 $394 $544 forward $259 $-1 #
coedge $-1 $389 $636 $541 $637 forward $259 $-1 #
edge $-1 $542 -5.275926762367682 $549 3.3118844657016169 $389 $638 forward 7 unknown #
coedge $-1 $398 $392 $539 $637 reversed $387 $-1 #
vertex $-1 $540 $639 #
straight-curve $-1 39.249237644289629 31.657866871268865 62.122401700274708 0 0 1 I I #
edge $-1 $549 15.90044335513867 $547 30.797145223163248 $538 $640 forward 7 unknown #
coedge $-1 $546 $395 $398 $551 reversed $536 $-1 #
coedge $-1 $395 $545 $636 $641 reversed $536 $-1 #
vertex $-1 $641 $642 #
straight-curve $-1 54.145939512314214 -1.737044876235176 28.611501026020267 0 0.76604443648966558 -0.64278761758704617 I I #
vertex $-1 $544 $643 #
straight-curve $-1 39.249237644289629 -16.844798704463159 41.288411956720893 0 0.76604443648966558 -0.64278761758704617 I I #
edge $-1 $644 -7.7958716936023578 $399 -0.58984230857930697 $545 $645 forward 7 unknown #
point $-1 54.145939512314207 31.657866871268865 0.58984230857930697 #
point $-1 39.249237644289629 31.657866871268865 0.58984230857930697 #
edge $-1 $646 1 $646 0 $402 $-1 forward 7 unknown #
vertex $-1 $403 $647 #
ellipse-curve $-1 43.505438178010934 24.509169740629371 0.79064902632866618 0 0.64278761758704617 0.76604443648966558 1.5 0 0 1 I I #
point $-1 45.005438178010934 27.363961257234187 4.1928570010908217 #
edge $-1 $648 1 $648 0 $406 $-1 forward 7 unknown #
vertex $-1 $407 $649 #
ellipse-curve $-1 49.889738978592902 24.509169740629371 0.79064902632866618 0 0.64278761758704617 0.76604443648966558 1.5 0 0 1 I I #
point $-1 51.389738978592902 27.363961257234187 4.1928570010908217 #
plane-surface $-1 54.145939512314214 0 0 -1 0 0 0 0 1 forward_v I I I I #
coedge $-1 $415 $413 $417 $567 reversed $281 $-1 #
edge $-1 $428 -7.7958716936023578 $569 7.7958716936023578 $427 $650 forward 7 unknown #
vertex $-1 $567 $651 #
straight-curve $-1 -54.145939512314214 -31.657866871268865 0 0 0 -1 I I #
edge $-1 $565 -31.657866871268865 $569 31.657866871268865 $563 $652 forward 7 unknown #
straight-curve $-1 0 -31.657866871268865 -7.7958716936023578 -1 0 0 I I #
vertex $-1 $420 $653 #
straight-curve $-1 0 31.657866871268865 -7.7958716936023578 1 0 0 I I #
point $-1 54.145939512314214 31.657866871268865 -7.7958716936023578 #
point $-1 54.145939512314214 -31.657866871268865 -7.7958716936023578 #
straight-curve $-1 -54.145939512314214 0 7.7958716936023578 0 -1 0 I I #
point $-1 -54.145939512314214 31.657866871268865 7.7958716936023578 #
point $-1 -54.145939512314214 -31.657866871268865 7.7958716936023578 #
straight-curve $-1 54.145939512314214 -31.657866871268865 0 0 0 -1 I I #
straight-curve $-1 54.145939512314214 31.657866871268865 0 0 0 -1 I I #
plane-surface $-1 0 0 7.7958716936023578 0 0 1 1 0 0 forward_v I I I I #
coedge $-1 $445 $591 $580 $654 forward $438 $-1 #
coedge $-1 $441 $440 $579 $654 reversed $185 $-1 #
edge $-1 $587 -2.1379108081771747 $585 2.1379108081771747 $440 $655 forward 7 unknown #
coedge $-1 $453 $452 $441 $583 forward $454 $-1 #
edge $-1 $584 -2.1379108081771747 $656 2.1379108081771747 $441 $657 forward 7 unknown #
vertex $-1 $457 $658 #
vertex $-1 $447 $659 #
straight-curve $-1 -47.381320363554273 -40.865565289916901 0 0 0 -1 I I #
vertex $-1 $654 $660 #
straight-curve $-1 -43.105498747199924 -36.261716080592883 -7.7958716936023578 0 -1 0 I I #
straight-curve $-1 -47.381320363554273 -36.261716080592883 -7.7958716936023578 0 1 0 I I #
point $-1 -43.105498747199924 -31.657866871268862 -7.7958716936023578 #
coedge $-1 $579 $450 $453 $593 reversed $438 $-1 #
straight-curve $-1 -43.105498747199924 -31.657866871268865 0 0 0 -1 I I #
edge $-1 $656 -4.603849209324018 $455 4.6038492093240215 $591 $661 forward 7 unknown #
point $-1 -43.105498747199924 -31.657866871268862 7.7958716936023578 #
straight-curve $-1 -47.381320363554273 -36.261716080592883 7.7958716936023578 0 -1 0 I I #
coedge $-1 $469 $468 $461 $597 forward $315 $-1 #
edge $-1 $604 -31.657866871268865 $599 -23.070055643199566 $461 $662 forward 7 unknown #
edge $-1 $604 -7.7958716936023578 $466 -0.58984230857931164 $465 $663 forward 7 unknown #
vertex $-1 $463 $664 #
straight-curve $-1 -54.145939512314214 -1.737044876235176 28.611501026020267 0 -0.76604443648966558 0.64278761758704617 I I #
edge $-1 $599 -30.797145223163252 $470 -15.900443355138673 $469 $665 forward 7 unknown #
point $-1 -54.145939512314214 31.657866871268865 0.58984230857931164 #
point $-1 -39.249237644289636 23.070055643199566 7.7958716936023578 #
vertex $-1 $473 $666 #
straight-curve $-1 0 31.657866871268865 7.7958716936023578 -1 0 0 I I #
vertex $-1 $476 $667 #
point $-1 -48.389738978592909 24.509169740629371 0.79064902632866618 #
vertex $-1 $480 $668 #
point $-1 -42.005438178010948 24.509169740629371 0.79064902632866618 #
edge $-1 $611 -5.275926762367682 $614 3.3118844657016169 $485 $669 forward 7 unknown #
vertex $-1 $489 $670 #
straight-curve $-1 -23.014213793446267 31.657866871268865 62.122401700274708 0 0 1 I I #
edge $-1 $614 -15.231282363729278 $496 -0.33458049570469939 $495 $671 forward 7 unknown #
vertex $-1 $613 $672 #
straight-curve $-1 -23.014213793446267 -16.844798704463159 41.288411956720893 0 0.76604443648966558 -0.64278761758704617 I I #
point $-1 -23.014213793446267 31.657866871268865 0.58984230857930697 #
point $-1 -8.1175119254216881 23.070055643199566 7.7958716936023578 #
straight-curve $-1 0 31.657866871268865 7.7958716936023578 -1 0 0 I I #
vertex $-1 $502 $673 #
point $-1 -17.258013259724962 24.509169740629371 0.79064902632866618 #
vertex $-1 $506 $674 #
point $-1 -10.873712459142993 24.509169740629371 0.79064902632866618 #
edge $-1 $624 -5.275926762367682 $627 3.3118844657016169 $511 $675 forward 7 unknown #
vertex $-1 $515 $676 #
straight-curve $-1 8.1175119254216739 31.657866871268865 62.122401700274708 0 0 1 I I #
edge $-1 $627 0.33458049570469228 $522 15.231282363729271 $521 $677 forward 7 unknown #
vertex $-1 $626 $678 #
straight-curve $-1 8.1175119254216739 -16.844798704463159 41.288411956720893 0 0.76604443648966558 -0.64278761758704617 I I #
point $-1 8.1175119254216739 31.657866871268865 0.58984230857930697 #
point $-1 23.014213793446253 23.070055643199566 7.7958716936023578 #
straight-curve $-1 0 31.657866871268865 7.7958716936023578 -1 0 0 I I #
vertex $-1 $528 $679 #
point $-1 13.873712459142979 24.509169740629371 0.79064902632866618 #
vertex $-1 $532 $680 #
point $-1 20.258013259724947 24.509169740629371 0.79064902632866618 #
coedge $-1 $539 $538 $546 $641 forward $259 $-1 #
edge $-1 $644 -54.145939512314214 $542 -39.249237644289629 $541 $681 forward 7 unknown #
straight-curve $-1 39.249237644289629 26.381940108901183 7.7958716936023578 0 -1 0 I I #
point $-1 39.249237644289629 31.657866871268865 7.7958716936023578 #
straight-curve $-1 23.348794289150959 23.070055643199563 7.7958716936023613 1 0 0 I I #
edge $-1 $547 23.070055643199566 $644 31.657866871268865 $546 $682 forward 7 unknown #
point $-1 54.145939512314207 23.070055643199566 7.7958716936023578 #
point $-1 39.249237644289629 23.070055643199566 7.7958716936023578 #
vertex $-1 $641 $683 #
straight-curve $-1 54.145939512314214 31.657866871268865 0 0 0 -1 I I #
vertex $-1 $554 $684 #
point $-1 45.005438178010934 24.509169740629371 0.79064902632866618 #
vertex $-1 $558 $685 #
point $-1 51.389738978592902 24.509169740629371 0.79064902632866618 #
straight-curve $-1 -54.145939512314214 31.657866871268865 0 0 0 -1 I I #
point $-1 -54.145939512314214 -31.657866871268865 -7.7958716936023578 #
straight-curve $-1 -54.145939512314214 0 -7.7958716936023578 0 1 0 I I #
point $-1 -54.145939512314214 31.657866871268865 -7.7958716936023578 #
edge $-1 $656 -7.7958716936023578 $587 7.7958716936023578 $579 $686 forward 7 unknown #
straight-curve $-1 -45.243409555377099 -40.865565289916901 -7.7958716936023578 -1 0 0 I I #
vertex $-1 $593 $687 #
straight-curve $-1 -45.243409555377099 -40.865565289916901 7.7958716936023578 1 0 0 I I #
point $-1 -47.381320363554273 -40.865565289916901 7.7958716936023578 #
point $-1 -47.381320363554273 -40.865565289916901 -7.7958716936023578 #
point $-1 -43.105498747199924 -40.865565289916901 -7.7958716936023578 #
straight-curve $-1 -43.105498747199924 -36.261716080592883 7.7958716936023578 0 1 0 I I #
straight-curve $-1 -54.145939512314214 0 7.7958716936023578 0 -1 0 I I #
straight-curve $-1 -54.145939512314214 31.657866871268865 0 0 0 -1 I I #
point $-1 -54.145939512314214 23.070055643199566 7.7958716936023578 #
straight-curve $-1 -23.348794289150963 23.070055643199563 7.7958716936023613 1 0 0 I I #
point $-1 -54.145939512314214 31.657866871268865 7.7958716936023578 #
point $-1 -49.889738978592909 23.544988314248801 -0.35841762840583213 #
point $-1 -43.505438178010948 23.544988314248801 -0.35841762840583213 #
straight-curve $-1 -23.014213793446267 26.381940108901183 7.7958716936023578 0 -1 0 I I #
point $-1 -23.014213793446267 31.657866871268865 7.7958716936023578 #
straight-curve $-1 -7.7829314297169887 23.070055643199563 7.7958716936023613 1 0 0 I I #
point $-1 -23.014213793446267 23.070055643199566 7.7958716936023578 #
point $-1 -18.758013259724962 23.544988314248801 -0.35841762840583213 #
point $-1 -12.373712459142993 23.544988314248801 -0.35841762840583213 #
straight-curve $-1 8.1175119254216739 26.381940108901183 7.7958716936023578 0 -1 0 I I #
point $-1 8.1175119254216739 31.657866871268865 7.7958716936023578 #
straight-curve $-1 7.7829314297169816 23.070055643199563 7.7958716936023613 1 0 0 I I #
point $-1 8.1175119254216739 23.070055643199566 7.7958716936023578 #
point $-1 12.373712459142979 23.544988314248801 -0.35841762840583213 #
point $-1 18.758013259724947 23.544988314248801 -0.35841762840583213 #
straight-curve $-1 0 31.657866871268865 7.7958716936023578 -1 0 0 I I #
straight-curve $-1 54.145939512314214 0 7.7958716936023578 0 1 0 I I #
point $-1 54.145939512314214 31.657866871268865 7.7958716936023578 #
point $-1 43.505438178010934 23.544988314248801 -0.35841762840583213 #
point $-1 49.889738978592902 23.544988314248801 -0.35841762840583213 #
straight-curve $-1 -43.105498747199924 -40.865565289916901 0 0 0 -1 I I #
point $-1 -43.105498747199924 -40.865565289916901 7.7958716936023578 #
End-of-ACIS-data 