500 0 9 0           
7 Unknown 11 ACIS 5.0 NT 24 Thu Mar 25 16:35:59 1999 
-1 9.9999999999999995e-007 1e-010 
body $-1 $9 $-1 $10 #
body $-1 $11 $-1 $12 #
body $-1 $13 $-1 $14 #
body $-1 $15 $-1 $16 #
body $-1 $17 $-1 $18 #
body $-1 $19 $-1 $20 #
body $-1 $21 $-1 $22 #
body $-1 $23 $-1 $24 #
body $-1 $25 $-1 $26 #
lump $-1 $-1 $27 $0 #
transform $-1 1 0 0 0 1 0 0 0 1 65.520798364207891 28.284501020586475 5.7307038735792588 1 rotate no_reflect no_shear #
lump $-1 $-1 $28 $1 #
transform $-1 1 0 0 0 1 0 0 0 1 65.520798364207891 28.284501020586475 5.7307038735792588 1 rotate no_reflect no_shear #
lump $-1 $-1 $29 $2 #
transform $-1 1 0 0 0 1 0 0 0 1 65.520798364207891 28.284501020586475 5.7307038735792588 1 rotate no_reflect no_shear #
lump $-1 $-1 $30 $3 #
transform $-1 1 0 0 0 1 0 0 0 1 65.520798364207891 28.284501020586475 5.7307038735792588 1 rotate no_reflect no_shear #
lump $-1 $-1 $31 $4 #
transform $-1 1 0 0 0 1 0 0 0 1 65.520798364207891 28.284501020586475 5.7307038735792588 1 rotate no_reflect no_shear #
lump $-1 $-1 $32 $5 #
transform $-1 1 0 0 0 1 0 0 0 1 65.520798364207891 28.284501020586475 5.7307038735792588 1 rotate no_reflect no_shear #
lump $-1 $-1 $33 $6 #
transform $-1 1 0 0 0 1 0 0 0 1 65.520798364207891 28.284501020586475 5.7307038735792588 1 rotate no_reflect no_shear #
lump $-1 $-1 $34 $7 #
transform $-1 1 0 0 0 1 0 0 0 1 65.520798364207891 28.284501020586475 5.7307038735792588 1 rotate no_reflect no_shear #
lump $-1 $-1 $35 $8 #
transform $-1 1 0 0 0 1 0 0 0 1 65.520798364207891 28.284501020586475 5.7307038735792588 1 rotate no_reflect no_shear #
shell $-1 $-1 $-1 $36 $-1 $9 #
shell $-1 $-1 $-1 $37 $-1 $11 #
shell $-1 $-1 $-1 $38 $-1 $13 #
shell $-1 $-1 $-1 $39 $-1 $15 #
shell $-1 $-1 $-1 $40 $-1 $17 #
shell $-1 $-1 $-1 $41 $-1 $19 #
shell $-1 $-1 $-1 $42 $-1 $21 #
shell $-1 $-1 $-1 $43 $-1 $23 #
shell $-1 $-1 $-1 $44 $-1 $25 #
face $-1 $45 $46 $27 $-1 $47 forward single #
face $-1 $48 $49 $28 $-1 $50 forward single #
face $-1 $51 $52 $29 $-1 $53 reversed single #
face $-1 $54 $55 $30 $-1 $56 forward single #
face $-1 $57 $58 $31 $-1 $59 reversed single #
face $-1 $60 $61 $32 $-1 $62 forward single #
face $-1 $63 $64 $33 $-1 $65 reversed single #
face $-1 $66 $67 $34 $-1 $68 forward single #
face $-1 $69 $70 $35 $-1 $71 forward single #
face $-1 $72 $73 $27 $-1 $74 reversed single #
loop $-1 $-1 $75 $36 #
plane-surface $-1 0 0 5.7307038735792588 0 0 1 1 0 0 forward_v I I I I #
face $-1 $76 $77 $28 $-1 $78 reversed single #
loop $-1 $-1 $79 $37 #
plane-surface $-1 0 -24.836749928330253 2.9490551339207141 0 0 1 1 0 0 forward_v I I I I #
face $-1 $80 $81 $29 $-1 $82 reversed single #
loop $-1 $-1 $83 $38 #
plane-surface $-1 -134.96226580337151 -3.0448851892121844 111.78593835673276 0 1 0 -0.52991927123019833 0 0.84804809178421925 forward_v I I I I #
face $-1 $84 $85 $30 $-1 $86 forward single #
loop $-1 $87 $88 $39 #
cone-surface $-1 -60.935805083199192 0.20143295152201901 2.3538834360555252 0.52991927123019833 0 -0.84804809178421925 0.84804809178421925 0 0.52991927123019833 1 I I 0 1 1 forward I I I I #
face $-1 $89 $90 $31 $-1 $91 reversed single #
loop $-1 $-1 $92 $40 #
plane-surface $-1 -134.96226580337151 21.791864739118068 111.78593835673276 0 1 0 -0.52991927123019833 0 0.84804809178421925 forward_v I I I I #
face $-1 $93 $94 $32 $-1 $95 forward single #
loop $-1 $96 $97 $41 #
cone-surface $-1 -60.935805083199192 25.038182879852272 2.3538834360555252 0.52991927123019833 0 -0.84804809178421925 0.84804809178421925 0 0.52991927123019833 1 I I 0 1 1 forward I I I I #
face $-1 $98 $99 $33 $-1 $100 reversed single #
loop $-1 $-1 $101 $42 #
plane-surface $-1 1.9905734204306071 23.491430867194715 116.52056488772851 0.87461971476443456 0 0.48480960649040278 0.48480960649040278 0 -0.87461971476443456 forward_v I I I I #
face $-1 $102 $103 $34 $-1 $104 forward single #
loop $-1 $105 $106 $43 #
cone-surface $-1 63.848919249013946 21.437257944312535 3.4802400716039807 -0.87461971476443456 0 -0.48480960649040278 0.48480960649040278 0 -0.87461971476443456 1 I I 0 1 1 forward I I I I #
face $-1 $107 $108 $35 $-1 $109 forward single #
loop $-1 $110 $111 $44 #
cone-surface $-1 63.848919249013946 25.545603790076896 3.4802400716039807 -0.87461971476443456 0 -0.48480960649040278 0.48480960649040278 0 -0.87461971476443456 1 I I 0 1 1 forward I I I I #
face $-1 $112 $113 $27 $-1 $114 reversed single #
loop $-1 $-1 $115 $45 #
plane-surface $-1 0 0 -5.7307038735792588 0 0 1 1 0 0 forward_v I I I I #
coedge $-1 $116 $117 $118 $119 forward $46 $-1 #
face $-1 $120 $121 $28 $-1 $122 reversed single #
loop $-1 $-1 $123 $48 #
plane-surface $-1 0 -24.836749928330253 -0.050944866079285944 0 0 1 1 0 0 forward_v I I I I #
coedge $-1 $124 $125 $126 $127 reversed $49 $-1 #
face $-1 $128 $129 $29 $-1 $130 reversed single #
loop $-1 $-1 $131 $51 #
plane-surface $-1 -65.520798364207877 0.20143295152201901 0.65636230684256702 -0.52991927123019833 0 0.84804809178421925 0.84804809178421925 0 0.52991927123019833 forward_v I I I I #
coedge $-1 $132 $133 $134 $135 reversed $52 $-1 #
face $-1 $-1 $136 $30 $-1 $137 forward single #
loop $-1 $138 $139 $54 #
cone-surface $-1 -60.146174102728423 0.20143295152201901 1.0902097360080294 0.52991927123019833 0 -0.84804809178421925 0.42402404589210962 0 0.26495963561509916 1 I I -0.70710678118654746 0.70710678118654746 0.5 forward I I I I #
loop $-1 $-1 $140 $39 #
coedge $-1 $88 $88 $141 $142 reversed $55 $-1 #
face $-1 $143 $144 $31 $-1 $145 forward single #
loop $-1 $-1 $146 $57 #
plane-surface $-1 -65.520798364207877 25.038182879852272 0.65636230684256702 -0.52991927123019833 0 0.84804809178421925 0.84804809178421925 0 0.52991927123019833 forward_v I I I I #
coedge $-1 $147 $148 $149 $150 reversed $58 $-1 #
face $-1 $-1 $151 $32 $-1 $152 forward single #
loop $-1 $153 $154 $60 #
cone-surface $-1 -60.146174102728423 25.038182879852272 1.0902097360080294 0.52991927123019833 0 -0.84804809178421925 0.42402404589210962 0 0.26495963561509916 1 I I -0.70710678118654746 0.70710678118654746 0.5 forward I I I I #
loop $-1 $-1 $155 $41 #
coedge $-1 $97 $97 $156 $157 reversed $61 $-1 #
face $-1 $158 $159 $33 $-1 $160 reversed single #
loop $-1 $-1 $161 $63 #
plane-surface $-1 116.60213737331368 18.698360713802956 180.05078983150582 0 1 0 0.87461971476443456 0 0.48480960649040278 forward_v I I I I #
coedge $-1 $162 $163 $164 $165 reversed $64 $-1 #
face $-1 $-1 $166 $34 $-1 $167 forward single #
loop $-1 $168 $169 $66 #
cone-surface $-1 62.798932502601744 21.437257944312535 2.8982229357504394 -0.87461971476443456 0 -0.48480960649040278 0.24240480324520139 0 -0.43730985738221728 1 I I -0.70710678118654746 0.70710678118654746 0.5 forward I I I I #
loop $-1 $-1 $170 $43 #
coedge $-1 $106 $106 $171 $172 reversed $67 $-1 #
face $-1 $-1 $173 $35 $-1 $174 forward single #
loop $-1 $175 $176 $69 #
cone-surface $-1 62.798932502601744 25.545603790076896 2.8982229357504394 -0.87461971476443456 0 -0.48480960649040278 0.24240480324520139 0 -0.43730985738221728 1 I I -0.70710678118654746 0.70710678118654746 0.5 forward I I I I #
loop $-1 $-1 $177 $44 #
coedge $-1 $111 $111 $178 $179 reversed $70 $-1 #
face $-1 $180 $181 $27 $-1 $182 reversed single #
loop $-1 $-1 $183 $72 #
plane-surface $-1 0 -28.284501020586475 0 0 1 0 0 0 1 forward_v I I I I #
coedge $-1 $184 $185 $186 $187 forward $73 $-1 #
coedge $-1 $188 $75 $189 $190 forward $46 $-1 #
coedge $-1 $75 $188 $191 $192 forward $46 $-1 #
coedge $-1 $193 $194 $75 $119 reversed $195 $-1 #
edge $-1 $196 -28.284501020586475 $197 28.284501020586475 $118 $198 forward 7 unknown #
face $-1 $199 $200 $28 $-1 $201 reversed single #
loop $-1 $-1 $202 $76 #
plane-surface $-1 0 -21.38899883607403 1.4490551339207141 0 -1 0 0 0 -1 forward_v I I I I #
coedge $-1 $203 $204 $205 $206 reversed $77 $-1 #
coedge $-1 $207 $79 $208 $209 forward $49 $-1 #
coedge $-1 $79 $207 $210 $211 reversed $49 $-1 #
coedge $-1 $212 $213 $79 $127 forward $214 $-1 #
edge $-1 $215 8.970623871908904 $216 15.866126056421349 $126 $217 forward 7 unknown #
face $-1 $218 $219 $29 $-1 $220 reversed single #
loop $-1 $-1 $221 $80 #
plane-surface $-1 -134.96226580337151 3.4477510922562224 111.78593835673276 0 -1 0 0.52991927123019833 0 -0.84804809178421925 forward_v I I I I #
coedge $-1 $222 $223 $224 $225 reversed $81 $-1 #
coedge $-1 $133 $83 $226 $227 reversed $52 $-1 #
coedge $-1 $83 $132 $222 $228 reversed $52 $-1 #
coedge $-1 $224 $229 $83 $135 forward $230 $-1 #
edge $-1 $231 1.9603345374778627 $232 10.080978409783924 $134 $233 forward 7 unknown #
loop $-1 $-1 $141 $84 #
plane-surface $-1 -65.520798364207877 0.20143295152201901 0.65636230684256702 -0.52991927123019833 0 0.84804809178421925 0.84804809178421925 0 0.52991927123019833 forward_v I I I I #
loop $-1 $-1 $234 $54 #
coedge $-1 $139 $139 $140 $235 reversed $85 $-1 #
coedge $-1 $140 $140 $139 $235 forward $87 $-1 #
coedge $-1 $141 $141 $88 $142 forward $136 $-1 #
edge $-1 $236 0 $236 6.2831853071796004 $141 $237 forward 7 unknown #
face $-1 $238 $239 $31 $-1 $240 reversed single #
loop $-1 $-1 $149 $89 #
plane-surface $-1 0 0 5.7307038735792588 0 0 1 1 0 0 forward_v I I I I #
coedge $-1 $241 $242 $243 $244 reversed $90 $-1 #
coedge $-1 $148 $92 $245 $246 reversed $58 $-1 #
coedge $-1 $92 $147 $241 $247 reversed $58 $-1 #
coedge $-1 $243 $248 $92 $150 forward $144 $-1 #
edge $-1 $249 1.9603345374778627 $250 10.080978409783924 $149 $251 forward 7 unknown #
loop $-1 $-1 $156 $93 #
plane-surface $-1 -65.520798364207877 25.038182879852272 0.65636230684256702 -0.52991927123019833 0 0.84804809178421925 0.84804809178421925 0 0.52991927123019833 forward_v I I I I #
loop $-1 $-1 $252 $60 #
coedge $-1 $154 $154 $155 $253 reversed $94 $-1 #
coedge $-1 $155 $155 $154 $253 forward $96 $-1 #
coedge $-1 $156 $156 $97 $157 forward $151 $-1 #
edge $-1 $254 0 $254 6.2831853071796004 $156 $255 forward 7 unknown #
face $-1 $256 $257 $33 $-1 $258 forward single #
loop $-1 $-1 $259 $98 #
plane-surface $-1 65.520798364207891 0 0 -1 0 0 0 0 1 forward_v I I I I #
coedge $-1 $260 $261 $262 $263 reversed $99 $-1 #
coedge $-1 $264 $101 $265 $266 reversed $64 $-1 #
coedge $-1 $101 $264 $260 $267 forward $64 $-1 #
coedge $-1 $262 $268 $101 $165 forward $257 $-1 #
edge $-1 $269 -16.538785586989118 $270 -6.9526452802055978 $164 $271 forward 7 unknown #
loop $-1 $-1 $171 $102 #
plane-surface $-1 1.9905734204306071 23.491430867194715 116.52056488772851 0.87461971476443456 0 0.48480960649040278 0.48480960649040278 0 -0.87461971476443456 forward_v I I I I #
loop $-1 $-1 $272 $66 #
coedge $-1 $169 $169 $170 $273 reversed $103 $-1 #
coedge $-1 $170 $170 $169 $273 forward $105 $-1 #
coedge $-1 $171 $171 $106 $172 forward $166 $-1 #
edge $-1 $274 0 $274 6.2831853071796004 $171 $275 forward 7 unknown #
loop $-1 $-1 $178 $107 #
plane-surface $-1 1.9905734204306071 23.491430867194715 116.52056488772851 0.87461971476443456 0 0.48480960649040278 0.48480960649040278 0 -0.87461971476443456 forward_v I I I I #
loop $-1 $-1 $276 $69 #
coedge $-1 $176 $176 $177 $277 reversed $108 $-1 #
coedge $-1 $177 $177 $176 $277 forward $110 $-1 #
coedge $-1 $178 $178 $111 $179 forward $173 $-1 #
edge $-1 $278 0 $278 6.2831853071796004 $178 $279 forward 7 unknown #
face $-1 $280 $281 $27 $-1 $282 reversed single #
loop $-1 $-1 $283 $112 #
plane-surface $-1 -65.520798364207891 0 0 1 0 0 0 0 -1 forward_v I I I I #
coedge $-1 $284 $191 $285 $286 forward $113 $-1 #
coedge $-1 $287 $115 $284 $288 forward $73 $-1 #
coedge $-1 $115 $287 $289 $290 forward $73 $-1 #
coedge $-1 $194 $193 $115 $187 reversed $195 $-1 #
edge $-1 $291 -28.284501020586475 $292 28.284501020586475 $186 $293 forward 7 unknown #
coedge $-1 $117 $116 $294 $295 forward $46 $-1 #
coedge $-1 $296 $297 $116 $190 reversed $281 $-1 #
edge $-1 $197 -65.520798364207891 $298 65.520798364207891 $189 $299 forward 7 unknown #
coedge $-1 $183 $300 $117 $192 reversed $113 $-1 #
edge $-1 $301 -65.520798364207891 $196 65.520798364207891 $191 $302 forward 7 unknown #
coedge $-1 $186 $118 $300 $303 forward $195 $-1 #
coedge $-1 $118 $186 $296 $304 reversed $195 $-1 #
loop $-1 $-1 $193 $280 #
vertex $-1 $119 $305 #
vertex $-1 $119 $306 #
straight-curve $-1 65.520798364207891 0 5.7307038735792588 0 1 0 I I #
face $-1 $307 $308 $28 $-1 $309 reversed single #
loop $-1 $-1 $310 $120 #
plane-surface $-1 -65.520798364207891 0 0 1 0 0 0 0 -1 forward_v I I I I #
coedge $-1 $311 $208 $213 $312 reversed $121 $-1 #
coedge $-1 $313 $123 $314 $315 reversed $77 $-1 #
coedge $-1 $123 $313 $311 $316 forward $77 $-1 #
coedge $-1 $213 $212 $123 $206 forward $214 $-1 #
edge $-1 $317 -15.866126056421349 $318 -8.970623871908904 $205 $319 forward 7 unknown #
coedge $-1 $125 $124 $310 $320 reversed $49 $-1 #
coedge $-1 $202 $321 $124 $209 reversed $121 $-1 #
edge $-1 $215 -65.520798364207891 $322 65.520798364207891 $208 $323 forward 7 unknown #
coedge $-1 $324 $325 $125 $211 forward $308 $-1 #
edge $-1 $216 -65.520798364207891 $326 65.520798364207891 $210 $327 forward 7 unknown #
coedge $-1 $205 $126 $325 $328 forward $214 $-1 #
coedge $-1 $126 $205 $202 $312 forward $214 $-1 #
loop $-1 $-1 $126 $307 #
vertex $-1 $127 $329 #
vertex $-1 $328 $330 #
straight-curve $-1 65.520798364207891 -12.418374964165126 2.9490551339207141 0 -1 0 I I #
face $-1 $-1 $230 $29 $-1 $331 forward single #
loop $-1 $-1 $332 $128 #
plane-surface $-1 -65.520798364207891 0 0 1 0 0 0 0 -1 forward_v I I I I #
coedge $-1 $333 $334 $335 $336 reversed $129 $-1 #
coedge $-1 $337 $131 $133 $228 forward $81 $-1 #
coedge $-1 $131 $337 $333 $338 forward $81 $-1 #
coedge $-1 $335 $134 $131 $225 forward $230 $-1 #
edge $-1 $232 -3.1456016649731939 $339 3.3470346164952129 $224 $340 forward 7 unknown #
coedge $-1 $341 $342 $132 $227 forward $219 $-1 #
edge $-1 $343 -55.236606871523819 $231 -50.16226530478712 $226 $344 forward 7 unknown #
edge $-1 $232 -9.5756879249865658 $343 1.675811683274863e-014 $133 $345 forward 7 unknown #
coedge $-1 $134 $335 $341 $346 forward $230 $-1 #
loop $-1 $-1 $335 $218 #
vertex $-1 $227 $347 #
vertex $-1 $135 $348 #
straight-curve $-1 -67.481132901685754 -3.0448851892121844 5.7307038735792588 1 0 0 I I #
coedge $-1 $234 $234 $-1 $349 reversed $138 $-1 #
edge $-1 $350 0 $350 6.2831853071796004 $139 $351 forward 7 unknown #
vertex $-1 $142 $352 #
ellipse-curve $-1 -61.460476428054861 0.20143295152201901 3.1935330902109089 -0.52991927123019833 0 0.84804809178421925 0.84804809178421925 0 0.52991927123019833 1 I I #
face $-1 $-1 $353 $31 $-1 $354 reversed single #
loop $-1 $-1 $355 $143 #
plane-surface $-1 0 28.284501020586475 0 0 -1 0 0 0 -1 forward_v I I I I #
coedge $-1 $356 $146 $148 $247 forward $90 $-1 #
coedge $-1 $146 $356 $355 $357 reversed $90 $-1 #
coedge $-1 $358 $149 $146 $244 forward $144 $-1 #
edge $-1 $250 9.2727732991919325 $359 15.765409580660339 $243 $360 forward 7 unknown #
coedge $-1 $361 $362 $147 $246 forward $353 $-1 #
edge $-1 $363 -55.236606871523819 $249 -50.16226530478712 $245 $364 forward 7 unknown #
edge $-1 $250 -9.5756879249865658 $363 1.675811683274863e-014 $148 $365 forward 7 unknown #
coedge $-1 $149 $358 $361 $366 forward $144 $-1 #
vertex $-1 $246 $367 #
vertex $-1 $150 $368 #
straight-curve $-1 -67.481132901685754 21.791864739118068 5.7307038735792588 1 0 0 I I #
coedge $-1 $252 $252 $-1 $369 reversed $153 $-1 #
edge $-1 $370 0 $370 6.2831853071796004 $154 $371 forward 7 unknown #
vertex $-1 $157 $372 #
ellipse-curve $-1 -61.460476428054861 25.038182879852272 3.1935330902109089 -0.52991927123019833 0 0.84804809178421925 0.84804809178421925 0 0.52991927123019833 1 I I #
face $-1 $-1 $373 $33 $-1 $374 reversed single #
loop $-1 $-1 $262 $158 #
plane-surface $-1 0 0 5.7307038735792588 0 0 1 1 0 0 forward_v I I I I #
coedge $-1 $375 $376 $261 $377 forward $159 $-1 #
coedge $-1 $261 $161 $163 $267 reversed $99 $-1 #
coedge $-1 $161 $260 $259 $377 reversed $99 $-1 #
coedge $-1 $378 $164 $161 $263 forward $257 $-1 #
edge $-1 $270 5.1013252252231425 $379 7.2197296775510509 $262 $380 forward 7 unknown #
coedge $-1 $163 $162 $375 $381 reversed $64 $-1 #
coedge $-1 $382 $383 $162 $266 forward $373 $-1 #
edge $-1 $384 -80.568529673592394 $269 -76.198970110482051 $265 $385 forward 7 unknown #
edge $-1 $386 -131.04159672841573 $270 -126.6720371653054 $260 $387 forward 7 unknown #
coedge $-1 $164 $378 $382 $388 forward $257 $-1 #
vertex $-1 $266 $389 #
vertex $-1 $165 $390 #
straight-curve $-1 63.402393911879983 11.745715433597358 5.7307038735792588 0 -1 0 I I #
coedge $-1 $272 $272 $-1 $391 reversed $168 $-1 #
edge $-1 $392 0 $392 6.2831853071796004 $169 $393 forward 7 unknown #
vertex $-1 $172 $394 #
ellipse-curve $-1 64.461596138043959 21.437257944312535 3.8198524042123347 0.87461971476443456 0 0.48480960649040278 0.48480960649040278 0 -0.87461971476443456 1 I I #
coedge $-1 $276 $276 $-1 $395 reversed $175 $-1 #
edge $-1 $396 0 $396 6.2831853071796004 $176 $397 forward 7 unknown #
vertex $-1 $179 $398 #
ellipse-curve $-1 64.461596138043959 25.545603790076896 3.8198524042123347 0.87461971476443456 0 0.48480960649040278 0.48480960649040278 0 -0.87461971476443456 1 I I #
face $-1 $-1 $195 $27 $-1 $399 reversed single #
loop $-1 $-1 $296 $180 #
plane-surface $-1 0 28.284501020586475 0 0 -1 0 0 0 -1 forward_v I I I I #
coedge $-1 $400 $294 $297 $401 forward $181 $-1 #
coedge $-1 $300 $183 $184 $288 reversed $113 $-1 #
coedge $-1 $294 $400 $183 $286 reversed $181 $-1 #
edge $-1 $301 -5.7307038735792588 $402 5.7307038735792588 $285 $403 forward 7 unknown #
coedge $-1 $185 $184 $400 $404 forward $73 $-1 #
edge $-1 $292 -65.520798364207891 $402 65.520798364207891 $284 $405 forward 7 unknown #
coedge $-1 $297 $296 $185 $290 reversed $281 $-1 #
edge $-1 $406 -65.520798364207891 $291 65.520798364207891 $289 $407 forward 7 unknown #
vertex $-1 $187 $408 #
vertex $-1 $303 $409 #
straight-curve $-1 65.520798364207891 0 -5.7307038735792588 0 -1 0 I I #
coedge $-1 $283 $285 $188 $295 reversed $181 $-1 #
edge $-1 $298 -28.284501020586475 $301 28.284501020586475 $294 $410 forward 7 unknown #
coedge $-1 $289 $189 $194 $304 forward $281 $-1 #
coedge $-1 $189 $289 $283 $401 reversed $281 $-1 #
vertex $-1 $190 $411 #
straight-curve $-1 0 28.284501020586475 5.7307038735792588 -1 0 0 I I #
coedge $-1 $191 $284 $193 $303 reversed $113 $-1 #
vertex $-1 $295 $412 #
straight-curve $-1 0 -28.284501020586475 5.7307038735792588 1 0 0 I I #
edge $-1 $196 -5.7307038735792588 $292 5.7307038735792588 $193 $413 forward 7 unknown #
edge $-1 $197 -5.7307038735792588 $291 5.7307038735792588 $194 $414 forward 7 unknown #
point $-1 65.520798364207891 -28.284501020586475 5.7307038735792588 #
point $-1 65.520798364207891 28.284501020586475 5.7307038735792588 #
face $-1 $-1 $214 $28 $-1 $415 reversed single #
loop $-1 $-1 $210 $199 #
plane-surface $-1 0 -28.284501020586475 0 0 1 0 0 0 1 forward_v I I I I #
coedge $-1 $416 $417 $207 $320 forward $200 $-1 #
coedge $-1 $321 $202 $204 $316 reversed $121 $-1 #
edge $-1 $318 -0.77547243303964297 $215 2.224527566960357 $213 $418 forward 7 unknown #
coedge $-1 $204 $203 $419 $420 reversed $77 $-1 #
coedge $-1 $325 $324 $203 $315 forward $308 $-1 #
edge $-1 $421 -65.520798364207891 $317 65.520798364207891 $314 $422 forward 7 unknown #
edge $-1 $423 -65.520798364207891 $318 65.520798364207891 $311 $424 forward 7 unknown #
vertex $-1 $315 $425 #
vertex $-1 $206 $426 #
straight-curve $-1 65.520798364207891 -12.418374964165126 -0.050944866079285944 0 1 0 I I #
edge $-1 $326 -15.866126056421349 $322 -8.970623871908904 $310 $427 forward 7 unknown #
coedge $-1 $208 $311 $416 $428 reversed $121 $-1 #
vertex $-1 $320 $429 #
straight-curve $-1 0 -21.38899883607403 2.9490551339207141 -1 0 0 I I #
coedge $-1 $314 $210 $417 $430 forward $308 $-1 #
coedge $-1 $210 $314 $212 $328 reversed $308 $-1 #
vertex $-1 $430 $431 #
straight-curve $-1 0 -28.284501020586475 2.9490551339207141 -1 0 0 I I #
edge $-1 $216 -2.9490551339207141 $317 0.050944866079285944 $212 $432 forward 7 unknown #
point $-1 65.520798364207891 -21.38899883607403 2.9490551339207141 #
point $-1 65.520798364207891 -28.284501020586475 2.9490551339207141 #
plane-surface $-1 0 0 5.7307038735792588 0 0 1 1 0 0 forward_v I I I I #
coedge $-1 $342 $341 $334 $433 forward $219 $-1 #
coedge $-1 $334 $221 $223 $338 reversed $129 $-1 #
coedge $-1 $221 $333 $332 $433 reversed $129 $-1 #
coedge $-1 $229 $224 $221 $336 forward $230 $-1 #
edge $-1 $339 -10.080978409783924 $434 -1.9603345374778627 $335 $435 forward 7 unknown #
coedge $-1 $223 $222 $342 $436 reversed $81 $-1 #
edge $-1 $437 -1.675811683274863e-014 $339 9.5756879249865658 $333 $438 forward 7 unknown #
vertex $-1 $225 $439 #
straight-curve $-1 -57.400154491901837 0.10071647576100951 5.730703873579257 0 1 0 I I #
coedge $-1 $332 $226 $229 $346 reversed $219 $-1 #
coedge $-1 $226 $332 $337 $436 forward $219 $-1 #
vertex $-1 $227 $440 #
straight-curve $-1 -65.520798364207891 -3.0448851892121844 55.892969178366378 0 0 1 I I #
straight-curve $-1 -65.520798364207877 -3.0448851892121844 0.65636230684256702 -0.84804809178421925 0 -0.52991927123019833 I I #
edge $-1 $434 -3.4477510922562224 $231 3.0448851892121844 $341 $441 forward 7 unknown #
point $-1 -65.520798364207891 -3.0448851892121844 5.7307038735792588 #
point $-1 -57.40015449190183 -3.0448851892121844 5.7307038735792588 #
edge $-1 $442 1 $442 0 $234 $-1 forward 7 unknown #
vertex $-1 $235 $443 #
ellipse-curve $-1 -60.411133738343523 0.20143295152201901 1.514233781900139 -0.52991927123019833 0 0.84804809178421925 0.84804809178421925 0 0.52991927123019833 1 I I #
point $-1 -60.612428336270639 0.20143295152201901 3.7234523614411095 #
loop $-1 $-1 $245 $238 #
plane-surface $-1 -65.520798364207891 0 0 1 0 0 0 0 -1 forward_v I I I I #
coedge $-1 $444 $445 $242 $357 forward $239 $-1 #
coedge $-1 $242 $241 $362 $446 reversed $90 $-1 #
edge $-1 $359 18.032796569833483 $447 27.608484494820068 $355 $448 forward 7 unknown #
coedge $-1 $248 $243 $445 $449 forward $144 $-1 #
vertex $-1 $449 $450 #
straight-curve $-1 -57.400154491901837 12.519091439926136 5.730703873579257 0 1 0 I I #
coedge $-1 $451 $245 $248 $366 reversed $353 $-1 #
coedge $-1 $245 $451 $356 $446 forward $353 $-1 #
vertex $-1 $246 $452 #
straight-curve $-1 -65.520798364207891 21.791864739118068 55.892969178366378 0 0 1 I I #
straight-curve $-1 -65.520798364207877 21.791864739118068 0.65636230684256702 -0.84804809178421925 0 -0.52991927123019833 I I #
edge $-1 $453 -28.284501020586475 $249 -21.791864739118068 $361 $454 forward 7 unknown #
point $-1 -65.520798364207891 21.791864739118068 5.7307038735792588 #
point $-1 -57.40015449190183 21.791864739118068 5.7307038735792588 #
edge $-1 $455 1 $455 0 $252 $-1 forward 7 unknown #
vertex $-1 $253 $456 #
ellipse-curve $-1 -60.411133738343523 25.038182879852272 1.514233781900139 -0.52991927123019833 0 0.84804809178421925 0.84804809178421925 0 0.52991927123019833 1 I I #
point $-1 -60.612428336270639 25.038182879852272 3.7234523614411095 #
loop $-1 $-1 $265 $256 #
plane-surface $-1 0 28.284501020586475 0 0 -1 0 0 0 -1 forward_v I I I I #
coedge $-1 $457 $259 $264 $381 forward $159 $-1 #
coedge $-1 $259 $457 $378 $458 reversed $159 $-1 #
edge $-1 $379 84.294691042173653 $386 88.116393980907418 $259 $459 forward 7 unknown #
coedge $-1 $268 $262 $376 $458 forward $257 $-1 #
vertex $-1 $458 $460 #
straight-curve $-1 58.301068686656841 18.698360713802956 5.7307038735792588 1 0 0 I I #
edge $-1 $386 6.9526452802055978 $384 16.538785586989118 $375 $461 forward 7 unknown #
coedge $-1 $383 $265 $268 $388 reversed $373 $-1 #
coedge $-1 $265 $382 $457 $462 forward $373 $-1 #
vertex $-1 $266 $463 #
straight-curve $-1 26.460401197643225 28.284501020586475 72.375825376952747 -0.48480960649040278 0 0.87461971476443456 I I #
vertex $-1 $381 $464 #
straight-curve $-1 1.9905734204306071 18.698360713802956 116.52056488772851 -0.48480960649040278 0 0.87461971476443456 I I #
edge $-1 $465 -65.520798364207891 $269 -63.402393911879983 $382 $466 forward 7 unknown #
point $-1 63.402393911879983 28.284501020586475 5.7307038735792588 #
point $-1 63.402393911879983 18.698360713802956 5.7307038735792588 #
edge $-1 $467 1 $467 0 $272 $-1 forward 7 unknown #
vertex $-1 $273 $468 #
ellipse-curve $-1 63.236242359983962 21.437257944312535 3.140627738995641 0.87461971476443456 0 0.48480960649040278 0.48480960649040278 0 -0.87461971476443456 1 I I #
point $-1 64.946405744534331 21.437257944312535 2.9452326894478853 #
edge $-1 $469 1 $469 0 $276 $-1 forward 7 unknown #
vertex $-1 $277 $470 #
ellipse-curve $-1 63.236242359983962 25.545603790076896 3.140627738995641 0.87461971476443456 0 0.48480960649040278 0.48480960649040278 0 -0.87461971476443456 1 I I #
point $-1 64.946405744534331 25.545603790076896 2.9452326894478853 #
plane-surface $-1 65.520798364207891 0 0 -1 0 0 0 0 1 forward_v I I I I #
coedge $-1 $285 $283 $287 $404 reversed $181 $-1 #
edge $-1 $298 -5.7307038735792588 $406 5.7307038735792588 $297 $471 forward 7 unknown #
vertex $-1 $404 $472 #
straight-curve $-1 -65.520798364207891 -28.284501020586475 0 0 0 -1 I I #
edge $-1 $402 -28.284501020586475 $406 28.284501020586475 $400 $473 forward 7 unknown #
straight-curve $-1 0 -28.284501020586475 -5.7307038735792588 -1 0 0 I I #
vertex $-1 $290 $474 #
straight-curve $-1 0 28.284501020586475 -5.7307038735792588 1 0 0 I I #
point $-1 65.520798364207891 28.284501020586475 -5.7307038735792588 #
point $-1 65.520798364207891 -28.284501020586475 -5.7307038735792588 #
straight-curve $-1 -65.520798364207891 0 5.7307038735792588 0 -1 0 I I #
point $-1 -65.520798364207891 28.284501020586475 5.7307038735792588 #
point $-1 -65.520798364207891 -28.284501020586475 5.7307038735792588 #
straight-curve $-1 65.520798364207891 -28.284501020586475 0 0 0 -1 I I #
straight-curve $-1 65.520798364207891 28.284501020586475 0 0 0 -1 I I #
plane-surface $-1 65.520798364207891 0 0 -1 0 0 0 0 1 forward_v I I I I #
coedge $-1 $419 $310 $321 $428 forward $200 $-1 #
coedge $-1 $310 $419 $324 $430 reversed $200 $-1 #
straight-curve $-1 65.520798364207891 -21.38899883607403 0.72452756696035703 0 0 1 I I #
coedge $-1 $417 $416 $313 $420 forward $200 $-1 #
edge $-1 $423 8.970623871908904 $421 15.866126056421349 $419 $475 forward 7 unknown #
vertex $-1 $315 $476 #
straight-curve $-1 0 -28.284501020586475 -0.050944866079285944 1 0 0 I I #
vertex $-1 $420 $477 #
straight-curve $-1 0 -21.38899883607403 -0.050944866079285944 1 0 0 I I #
point $-1 65.520798364207891 -28.284501020586475 -0.050944866079285944 #
point $-1 65.520798364207891 -21.38899883607403 -0.050944866079285944 #
straight-curve $-1 -65.520798364207891 -12.418374964165126 2.9490551339207141 0 1 0 I I #
edge $-1 $322 -2.224527566960357 $423 0.77547243303964297 $416 $478 forward 7 unknown #
point $-1 -65.520798364207891 -21.38899883607403 2.9490551339207141 #
edge $-1 $326 -2.9490551339207141 $421 0.050944866079285944 $417 $479 forward 7 unknown #
point $-1 -65.520798364207891 -28.284501020586475 2.9490551339207141 #
straight-curve $-1 65.520798364207891 -28.284501020586475 0 0 0 -1 I I #
edge $-1 $434 50.16226530478712 $437 55.236606871523819 $332 $480 forward 7 unknown #
vertex $-1 $346 $481 #
straight-curve $-1 -67.481132901685754 3.4477510922562224 5.7307038735792588 -1 0 0 I I #
edge $-1 $437 -3.3470346164952129 $343 3.1456016649731939 $342 $482 forward 7 unknown #
vertex $-1 $436 $483 #
straight-curve $-1 -65.520798364207877 3.4477510922562224 0.65636230684256702 0.84804809178421925 0 0.52991927123019833 I I #
point $-1 -57.40015449190183 3.4477510922562224 5.7307038735792588 #
point $-1 -65.520798364207891 -3.0448851892121844 0.65636230684255814 #
straight-curve $-1 -65.520798364207891 0 5.7307038735792588 0 -1 0 I I #
vertex $-1 $349 $484 #
point $-1 -59.563085646559301 0.20143295152201901 2.0441530531303371 #
coedge $-1 $445 $355 $451 $485 reversed $239 $-1 #
coedge $-1 $355 $444 $358 $449 reversed $239 $-1 #
edge $-1 $447 -15.765409580660339 $363 -9.2727732991919325 $362 $486 forward 7 unknown #
vertex $-1 $357 $487 #
straight-curve $-1 -42.107475771321532 28.284501020586475 15.286630290107837 -0.84804809178421925 0 -0.52991927123019833 I I #
edge $-1 $359 57.40015449190183 $453 65.520798364207891 $445 $488 forward 7 unknown #
point $-1 -57.40015449190183 28.284501020586475 5.7307038735792588 #
coedge $-1 $362 $361 $444 $485 forward $353 $-1 #
point $-1 -65.520798364207891 21.791864739118068 0.65636230684255814 #
vertex $-1 $449 $489 #
straight-curve $-1 -65.520798364207891 0 5.7307038735792588 0 -1 0 I I #
vertex $-1 $369 $490 #
point $-1 -59.563085646559301 25.038182879852272 2.0441530531303371 #
coedge $-1 $376 $375 $383 $462 reversed $159 $-1 #
edge $-1 $379 18.698360713802956 $465 28.284501020586475 $376 $491 forward 7 unknown #
straight-curve $-1 65.520798364207891 18.698360713802956 90.025394915752912 0 0 -1 I I #
point $-1 65.520798364207891 18.698360713802956 5.7307038735792588 #
straight-curve $-1 65.520798364207891 11.745715433597358 1.9090009348454728 0 1 0 I I #
edge $-1 $465 -5.7307038735792588 $384 -1.9090009348454942 $457 $492 forward 7 unknown #
point $-1 65.520798364207877 28.284501020586475 1.9090009348454942 #
point $-1 65.520798364207877 18.698360713802956 1.9090009348454942 #
vertex $-1 $458 $493 #
straight-curve $-1 0 28.284501020586475 5.7307038735792588 -1 0 0 I I #
vertex $-1 $391 $494 #
point $-1 63.721051966474363 21.437257944312535 2.2660080242312062 #
vertex $-1 $395 $495 #
point $-1 63.721051966474363 25.545603790076896 2.2660080242312062 #
straight-curve $-1 -65.520798364207891 28.284501020586475 0 0 0 -1 I I #
point $-1 -65.520798364207891 -28.284501020586475 -5.7307038735792588 #
straight-curve $-1 -65.520798364207891 0 -5.7307038735792588 0 1 0 I I #
point $-1 -65.520798364207891 28.284501020586475 -5.7307038735792588 #
straight-curve $-1 -65.520798364207891 -12.418374964165126 -0.050944866079285944 0 -1 0 I I #
point $-1 -65.520798364207891 -28.284501020586475 -0.050944866079285944 #
point $-1 -65.520798364207891 -21.38899883607403 -0.050944866079285944 #
straight-curve $-1 -65.520798364207891 -21.38899883607403 0.72452756696035703 0 0 -1 I I #
straight-curve $-1 -65.520798364207891 -28.284501020586475 0 0 0 -1 I I #
straight-curve $-1 -65.520798364207891 3.4477510922562224 55.892969178366378 0 0 -1 I I #
point $-1 -65.520798364207891 3.4477510922562224 5.7307038735792588 #
straight-curve $-1 -65.520798364207891 0.10071647576100951 0.65636230684255603 0 -1 0 I I #
point $-1 -65.520798364207891 3.4477510922562224 0.65636230684255814 #
point $-1 -59.881214467113324 0.20143295152201901 0.66618569011591977 #
edge $-1 $453 -5.7307038735792588 $447 -0.65636230684255814 $444 $496 forward 7 unknown #
straight-curve $-1 -65.520798364207891 12.519091439926136 0.65636230684255603 0 -1 0 I I #
point $-1 -65.520798364207891 28.284501020586475 0.65636230684255814 #
straight-curve $-1 0 28.284501020586475 5.7307038735792588 -1 0 0 I I #
point $-1 -65.520798364207891 28.284501020586475 5.7307038735792588 #
point $-1 -59.881214467113324 25.038182879852272 0.66618569011591977 #
straight-curve $-1 65.520798364207891 0 5.7307038735792588 0 1 0 I I #
straight-curve $-1 65.520798364207891 28.284501020586475 0 0 0 -1 I I #
point $-1 65.520798364207891 28.284501020586475 5.7307038735792588 #
point $-1 62.361622645219526 21.437257944312535 2.6558181325052379 #
point $-1 62.361622645219526 25.545603790076896 2.6558181325052379 #
straight-curve $-1 -65.520798364207891 28.284501020586475 0 0 0 -1 I I #
End-of-ACIS-data 