500 0 9 0           
7 Unknown 11 ACIS 5.0 NT 24 Thu Mar 25 19:24:58 1999 
-1 9.9999999999999995e-007 1e-010 
body $-1 $9 $-1 $10 #
body $-1 $11 $-1 $12 #
body $-1 $13 $-1 $14 #
body $-1 $15 $-1 $16 #
body $-1 $17 $-1 $18 #
body $-1 $19 $-1 $20 #
body $-1 $21 $-1 $22 #
body $-1 $23 $-1 $24 #
body $-1 $25 $-1 $26 #
lump $-1 $-1 $27 $0 #
transform $-1 1 0 0 0 1 0 0 0 1 59.005706961272011 34.749926112972027 10.674305133588247 1 rotate no_reflect no_shear #
lump $-1 $-1 $28 $1 #
transform $-1 1 0 0 0 1 0 0 0 1 59.005706961272011 34.749926112972027 10.674305133588247 1 rotate no_reflect no_shear #
lump $-1 $-1 $29 $2 #
transform $-1 1 0 0 0 1 0 0 0 1 59.005706961272011 34.749926112972027 10.674305133588247 1 rotate no_reflect no_shear #
lump $-1 $-1 $30 $3 #
transform $-1 1 0 0 0 1 0 0 0 1 59.005706961272011 34.749926112972027 10.674305133588247 1 rotate no_reflect no_shear #
lump $-1 $-1 $31 $4 #
transform $-1 1 0 0 0 1 0 0 0 1 59.005706961272011 34.749926112972027 10.674305133588247 1 rotate no_reflect no_shear #
lump $-1 $-1 $32 $5 #
transform $-1 1 0 0 0 1 0 0 0 1 59.005706961272011 34.749926112972027 10.674305133588247 1 rotate no_reflect no_shear #
lump $-1 $-1 $33 $6 #
transform $-1 1 0 0 0 1 0 0 0 1 59.005706961272011 34.749926112972027 10.674305133588247 1 rotate no_reflect no_shear #
lump $-1 $-1 $34 $7 #
transform $-1 1 0 0 0 1 0 0 0 1 59.005706961272011 34.749926112972027 10.674305133588247 1 rotate no_reflect no_shear #
lump $-1 $-1 $35 $8 #
transform $-1 1 0 0 0 1 0 0 0 1 59.005706961272011 34.749926112972027 10.674305133588247 1 rotate no_reflect no_shear #
shell $-1 $-1 $-1 $36 $-1 $9 #
shell $-1 $-1 $-1 $37 $-1 $11 #
shell $-1 $-1 $-1 $38 $-1 $13 #
shell $-1 $-1 $-1 $39 $-1 $15 #
shell $-1 $-1 $-1 $40 $-1 $17 #
shell $-1 $-1 $-1 $41 $-1 $19 #
shell $-1 $-1 $-1 $42 $-1 $21 #
shell $-1 $-1 $-1 $43 $-1 $23 #
shell $-1 $-1 $-1 $44 $-1 $25 #
face $-1 $45 $46 $27 $-1 $47 forward single #
face $-1 $48 $49 $28 $-1 $50 reversed single #
face $-1 $51 $52 $29 $-1 $53 forward single #
face $-1 $54 $55 $30 $-1 $56 reversed single #
face $-1 $57 $58 $31 $-1 $59 forward single #
face $-1 $60 $61 $32 $-1 $62 forward single #
face $-1 $63 $64 $33 $-1 $65 reversed single #
face $-1 $66 $67 $34 $-1 $68 forward single #
face $-1 $69 $70 $35 $-1 $71 forward single #
face $-1 $72 $73 $27 $-1 $74 reversed single #
loop $-1 $-1 $75 $36 #
plane-surface $-1 0 0 10.674305133588247 0 0 1 1 0 0 forward_v I I I I #
face $-1 $76 $77 $28 $-1 $78 reversed single #
loop $-1 $-1 $79 $37 #
plane-surface $-1 -53.395818356880831 -28.423396059034715 0 0 -1 0 0 0 -1 forward_v I I I I #
face $-1 $80 $81 $29 $-1 $82 reversed single #
loop $-1 $-1 $83 $38 #
plane-surface $-1 59.005706961272011 0 0 -1 0 0 0 0 1 forward_v I I I I #
face $-1 $84 $85 $30 $-1 $86 reversed single #
loop $-1 $-1 $87 $39 #
plane-surface $-1 -47.78592975248965 82.724347354772902 130.87612286004668 1 0 0 0 -0.77714596973225614 -0.62932038083071107 forward_v I I I I #
face $-1 $88 $89 $31 $-1 $90 forward single #
loop $-1 $91 $92 $40 #
cone-surface $-1 -43.334526869291338 30.115371229423278 5.5311152393197203 0 -0.77714596973225614 -0.62932038083071107 2 0 0 1 I I 0 1 2 forward I I I I #
face $-1 $93 $94 $32 $-1 $95 forward single #
loop $-1 $96 $97 $41 #
cone-surface $-1 -36.657422544493869 30.115371229423278 5.5311152393197203 0 -0.77714596973225614 -0.62932038083071107 2 0 0 1 I I 0 1 2 forward I I I I #
face $-1 $98 $99 $33 $-1 $100 reversed single #
loop $-1 $-1 $101 $42 #
plane-surface $-1 -38.897736201692361 -34.749926112972041 3.4906413071382474 0 -0.50000000669873634 0.8660253999169214 1 0 0 forward_v I I I I #
face $-1 $102 $103 $34 $-1 $104 forward single #
loop $-1 $105 $106 $43 #
cone-surface $-1 -42.70696200917692 -26.590033036224419 3.7246194342783161 0 0.50000000669873634 -0.8660253999169214 2 0 0 1 I I 0 1 2 forward I I I I #
face $-1 $107 $108 $35 $-1 $109 forward single #
loop $-1 $110 $111 $44 #
cone-surface $-1 -35.088510394207809 -26.590033036224419 3.7246194342783161 0 0.50000000669873634 -0.8660253999169214 2 0 0 1 I I 0 1 2 forward I I I I #
face $-1 $112 $113 $27 $-1 $114 reversed single #
loop $-1 $-1 $115 $45 #
plane-surface $-1 0 0 -10.674305133588247 0 0 1 1 0 0 forward_v I I I I #
coedge $-1 $116 $117 $118 $119 forward $46 $-1 #
face $-1 $120 $121 $28 $-1 $122 forward single #
loop $-1 $-1 $123 $48 #
plane-surface $-1 -47.78592975248965 -31.586661086003371 0 -1 0 0 0 0 1 forward_v I I I I #
coedge $-1 $124 $125 $126 $127 forward $49 $-1 #
face $-1 $128 $129 $29 $-1 $130 forward single #
loop $-1 $-1 $131 $51 #
plane-surface $-1 0 34.749926112972027 0 0 -1 0 0 0 -1 forward_v I I I I #
coedge $-1 $132 $133 $134 $135 forward $52 $-1 #
face $-1 $136 $137 $30 $-1 $138 reversed single #
loop $-1 $-1 $139 $54 #
plane-surface $-1 -39.995974706892603 -8.9877473575372449 56.6091349079406 0 0.77714596973225614 0.62932038083071107 1 0 0 forward_v I I I I #
coedge $-1 $140 $141 $142 $143 reversed $55 $-1 #
face $-1 $-1 $144 $31 $-1 $145 forward single #
loop $-1 $146 $147 $57 #
cone-surface $-1 -43.334526869291338 27.973861752051697 3.7969551042341951 0 -0.77714596973225614 -0.62932038083071107 1 0 0 1 I I -0.70710678118654746 0.70710678118654746 1 forward I I I I #
loop $-1 $-1 $148 $40 #
coedge $-1 $92 $92 $149 $150 reversed $58 $-1 #
face $-1 $-1 $151 $32 $-1 $152 forward single #
loop $-1 $153 $154 $60 #
cone-surface $-1 -36.657422544493869 27.973861752051697 3.7969551042341951 0 -0.77714596973225614 -0.62932038083071107 1 0 0 1 I I -0.70710678118654746 0.70710678118654746 1 forward I I I I #
loop $-1 $-1 $155 $41 #
coedge $-1 $97 $97 $156 $157 reversed $61 $-1 #
face $-1 $158 $159 $33 $-1 $160 reversed single #
loop $-1 $-1 $161 $63 #
plane-surface $-1 -30.009542650895071 -93.755633864771397 105.69152324417078 -1 0 0 0 -0.50000000669873634 0.8660253999169214 forward_v I I I I #
coedge $-1 $162 $163 $164 $165 reversed $64 $-1 #
face $-1 $-1 $166 $34 $-1 $167 forward single #
loop $-1 $168 $169 $66 #
cone-surface $-1 -42.70696200917692 -24.151375207599322 -0.49925975172353887 0 0.50000000669873634 -0.8660253999169214 1 0 0 1 I I -0.70710678118654746 0.70710678118654746 1 forward I I I I #
loop $-1 $-1 $170 $43 #
coedge $-1 $106 $106 $171 $172 reversed $67 $-1 #
face $-1 $-1 $173 $35 $-1 $174 forward single #
loop $-1 $175 $176 $69 #
cone-surface $-1 -35.088510394207809 -24.151375207599322 -0.49925975172353887 0 0.50000000669873634 -0.8660253999169214 1 0 0 1 I I -0.70710678118654746 0.70710678118654746 1 forward I I I I #
loop $-1 $-1 $177 $44 #
coedge $-1 $111 $111 $178 $179 reversed $70 $-1 #
face $-1 $180 $181 $27 $-1 $182 reversed single #
loop $-1 $-1 $183 $72 #
plane-surface $-1 0 -34.749926112972027 0 0 1 0 0 0 1 forward_v I I I I #
coedge $-1 $184 $185 $186 $187 forward $73 $-1 #
coedge $-1 $188 $75 $189 $190 forward $46 $-1 #
coedge $-1 $75 $188 $191 $192 forward $46 $-1 #
coedge $-1 $193 $194 $75 $119 reversed $195 $-1 #
edge $-1 $196 -34.749926112972027 $197 34.749926112972027 $118 $198 forward 7 unknown #
face $-1 $199 $200 $28 $-1 $201 reversed single #
loop $-1 $-1 $202 $76 #
plane-surface $-1 0 0 10.674305133588247 0 0 1 1 0 0 forward_v I I I I #
coedge $-1 $203 $204 $205 $206 reversed $77 $-1 #
coedge $-1 $207 $79 $208 $209 reversed $49 $-1 #
coedge $-1 $79 $207 $210 $211 reversed $49 $-1 #
coedge $-1 $204 $203 $79 $127 reversed $77 $-1 #
edge $-1 $212 -10.674305133588247 $213 10.674305133588247 $126 $214 forward 7 unknown #
face $-1 $215 $216 $29 $-1 $217 reversed single #
loop $-1 $-1 $218 $80 #
plane-surface $-1 0 0 10.674305133588247 0 0 1 1 0 0 forward_v I I I I #
coedge $-1 $219 $220 $133 $221 forward $81 $-1 #
coedge $-1 $222 $83 $223 $224 reversed $52 $-1 #
coedge $-1 $83 $222 $131 $221 reversed $52 $-1 #
coedge $-1 $225 $226 $83 $135 reversed $216 $-1 #
edge $-1 $227 -34.749926112972027 $228 34.749926112972027 $134 $229 forward 7 unknown #
face $-1 $230 $231 $30 $-1 $232 forward single #
loop $-1 $-1 $233 $84 #
plane-surface $-1 -32.206019661295556 82.724347354772902 130.87612286004668 -1 0 0 0 0.77714596973225614 0.62932038083071107 forward_v I I I I #
coedge $-1 $234 $235 $236 $237 reversed $85 $-1 #
coedge $-1 $141 $87 $238 $239 reversed $55 $-1 #
coedge $-1 $87 $140 $234 $240 reversed $55 $-1 #
coedge $-1 $236 $241 $87 $143 forward $231 $-1 #
edge $-1 $242 6.6122475644144245 $243 13.152630316233285 $142 $244 forward 7 unknown #
loop $-1 $-1 $149 $88 #
plane-surface $-1 -39.995974706892603 -8.9877473575372449 56.6091349079406 0 0.77714596973225614 0.62932038083071107 1 0 0 forward_v I I I I #
loop $-1 $-1 $245 $57 #
coedge $-1 $147 $147 $148 $246 reversed $89 $-1 #
coedge $-1 $148 $148 $147 $246 forward $91 $-1 #
coedge $-1 $149 $149 $92 $150 forward $144 $-1 #
edge $-1 $247 -1.800598521307003e-016 $247 6.2831853071796004 $149 $248 forward 7 unknown #
loop $-1 $-1 $156 $93 #
plane-surface $-1 -39.995974706892603 -8.9877473575372449 56.6091349079406 0 0.77714596973225614 0.62932038083071107 1 0 0 forward_v I I I I #
loop $-1 $-1 $249 $60 #
coedge $-1 $154 $154 $155 $250 reversed $94 $-1 #
coedge $-1 $155 $155 $154 $250 forward $96 $-1 #
coedge $-1 $156 $156 $97 $157 forward $151 $-1 #
edge $-1 $251 -1.800598521307003e-016 $251 6.2831853071796004 $156 $252 forward 7 unknown #
face $-1 $253 $254 $33 $-1 $255 forward single #
loop $-1 $-1 $164 $98 #
plane-surface $-1 0 -34.749926112972027 0 0 1 0 0 0 1 forward_v I I I I #
coedge $-1 $256 $257 $258 $259 reversed $99 $-1 #
coedge $-1 $260 $101 $261 $262 reversed $64 $-1 #
coedge $-1 $101 $260 $256 $263 forward $64 $-1 #
coedge $-1 $258 $264 $101 $165 forward $159 $-1 #
edge $-1 $265 -28.33706165164347 $266 -10.560674550048891 $164 $267 forward 7 unknown #
loop $-1 $-1 $171 $102 #
plane-surface $-1 -38.897736201692361 -34.749926112972041 3.4906413071382474 0 -0.50000000669873634 0.8660253999169214 1 0 0 forward_v I I I I #
loop $-1 $-1 $268 $66 #
coedge $-1 $169 $169 $170 $269 reversed $103 $-1 #
coedge $-1 $170 $170 $169 $269 forward $105 $-1 #
coedge $-1 $171 $171 $106 $172 forward $166 $-1 #
edge $-1 $270 -2.2204460789986784e-016 $270 6.2831853071796004 $171 $271 forward 7 unknown #
loop $-1 $-1 $178 $107 #
plane-surface $-1 -38.897736201692361 -34.749926112972041 3.4906413071382474 0 -0.50000000669873634 0.8660253999169214 1 0 0 forward_v I I I I #
loop $-1 $-1 $272 $69 #
coedge $-1 $176 $176 $177 $273 reversed $108 $-1 #
coedge $-1 $177 $177 $176 $273 forward $110 $-1 #
coedge $-1 $178 $178 $111 $179 forward $173 $-1 #
edge $-1 $274 -2.2204460789986784e-016 $274 6.2831853071796004 $178 $275 forward 7 unknown #
face $-1 $276 $277 $27 $-1 $278 reversed single #
loop $-1 $-1 $279 $112 #
plane-surface $-1 -59.005706961272011 0 0 1 0 0 0 0 -1 forward_v I I I I #
coedge $-1 $280 $191 $281 $282 forward $113 $-1 #
coedge $-1 $283 $115 $280 $284 forward $73 $-1 #
coedge $-1 $115 $283 $285 $286 forward $73 $-1 #
coedge $-1 $194 $193 $115 $187 reversed $195 $-1 #
edge $-1 $287 -34.749926112972027 $288 34.749926112972027 $186 $289 forward 7 unknown #
coedge $-1 $117 $116 $290 $291 forward $46 $-1 #
coedge $-1 $292 $293 $116 $190 reversed $277 $-1 #
edge $-1 $197 -59.005706961272011 $294 59.005706961272011 $189 $295 forward 7 unknown #
coedge $-1 $183 $296 $117 $192 reversed $113 $-1 #
edge $-1 $297 -59.005706961272011 $196 59.005706961272011 $191 $298 forward 7 unknown #
coedge $-1 $186 $118 $296 $299 forward $195 $-1 #
coedge $-1 $118 $186 $292 $300 reversed $195 $-1 #
loop $-1 $-1 $193 $276 #
vertex $-1 $119 $301 #
vertex $-1 $119 $302 #
straight-curve $-1 59.005706961272011 0 10.674305133588247 0 1 0 I I #
face $-1 $303 $304 $28 $-1 $305 reversed single #
loop $-1 $-1 $306 $120 #
plane-surface $-1 -59.005706961272011 0 0 1 0 0 0 0 -1 forward_v I I I I #
coedge $-1 $210 $307 $204 $308 forward $121 $-1 #
coedge $-1 $126 $123 $309 $310 reversed $77 $-1 #
coedge $-1 $123 $126 $202 $308 reversed $77 $-1 #
coedge $-1 $311 $312 $123 $206 forward $313 $-1 #
edge $-1 $314 -10.674305133588247 $315 10.674305133588247 $205 $316 forward 7 unknown #
coedge $-1 $125 $124 $306 $317 reversed $49 $-1 #
coedge $-1 $309 $318 $124 $209 forward $304 $-1 #
edge $-1 $319 -32.307797782831599 $213 -21.088020574049235 $208 $320 forward 7 unknown #
coedge $-1 $321 $202 $125 $211 forward $121 $-1 #
edge $-1 $212 21.088020574049235 $322 32.307797782831599 $210 $323 forward 7 unknown #
vertex $-1 $211 $324 #
vertex $-1 $209 $325 #
straight-curve $-1 -47.78592975248965 -28.423396059034715 0 0 0 -1 I I #
face $-1 $326 $327 $29 $-1 $328 reversed single #
loop $-1 $-1 $329 $128 #
plane-surface $-1 65.262435588134096 0 7.6743051335882466 0 0 1 1 0 0 forward_v I I I I #
coedge $-1 $330 $331 $222 $332 forward $129 $-1 #
coedge $-1 $333 $131 $331 $334 reversed $81 $-1 #
coedge $-1 $131 $333 $225 $335 reversed $81 $-1 #
edge $-1 $227 7.6743051335882466 $336 10.674305133588247 $131 $337 forward 7 unknown #
coedge $-1 $133 $132 $218 $332 reversed $52 $-1 #
coedge $-1 $338 $339 $132 $224 forward $340 $-1 #
edge $-1 $341 -10.674305133588247 $228 -7.6743051335882466 $223 $342 forward 7 unknown #
coedge $-1 $329 $134 $220 $335 forward $216 $-1 #
coedge $-1 $134 $329 $338 $343 forward $216 $-1 #
vertex $-1 $221 $344 #
vertex $-1 $224 $345 #
straight-curve $-1 59.005706961272011 0 7.6743051335882466 0 -1 0 I I #
face $-1 $-1 $346 $30 $-1 $347 reversed single #
loop $-1 $-1 $142 $136 #
plane-surface $-1 0 0 10.674305133588247 0 0 1 1 0 0 forward_v I I I I #
coedge $-1 $348 $349 $350 $351 reversed $137 $-1 #
coedge $-1 $352 $139 $141 $240 forward $85 $-1 #
coedge $-1 $139 $352 $348 $353 forward $85 $-1 #
coedge $-1 $350 $142 $139 $237 forward $231 $-1 #
edge $-1 $243 -27.787942399043349 $354 -12.208032307849255 $236 $355 forward 7 unknown #
coedge $-1 $356 $357 $140 $239 forward $346 $-1 #
edge $-1 $358 -62.84045657646255 $242 -54.763756296435091 $238 $359 forward 7 unknown #
edge $-1 $243 59.107080990432095 $358 69.499852225944082 $141 $360 forward 7 unknown #
coedge $-1 $142 $350 $356 $361 forward $231 $-1 #
vertex $-1 $143 $362 #
vertex $-1 $143 $363 #
straight-curve $-1 -47.78592975248965 41.362173677386451 10.674305133588248 0 -1 0 I I #
coedge $-1 $245 $245 $-1 $364 reversed $146 $-1 #
edge $-1 $365 0 $365 6.2831853071796004 $147 $366 forward 7 unknown #
vertex $-1 $150 $367 #
ellipse-curve $-1 -43.334526869291338 31.479734737062596 6.6359549935745274 0 0.77714596973225614 0.62932038083071107 2 0 0 1 I I #
coedge $-1 $249 $249 $-1 $368 reversed $153 $-1 #
edge $-1 $369 0 $369 6.2831853071796004 $154 $370 forward 7 unknown #
vertex $-1 $157 $371 #
ellipse-curve $-1 -36.657422544493869 31.479734737062596 6.6359549935745274 0 0.77714596973225614 0.62932038083071107 2 0 0 1 I I #
face $-1 $-1 $372 $33 $-1 $373 forward single #
loop $-1 $-1 $374 $158 #
plane-surface $-1 0 0 10.674305133588247 0 0 1 1 0 0 forward_v I I I I #
coedge $-1 $257 $161 $163 $263 reversed $99 $-1 #
coedge $-1 $161 $256 $375 $376 reversed $99 $-1 #
coedge $-1 $377 $164 $161 $259 forward $159 $-1 #
edge $-1 $266 -49.355120314947136 $378 -42.171456488497142 $258 $379 forward 7 unknown #
coedge $-1 $163 $162 $380 $381 reversed $64 $-1 #
coedge $-1 $382 $383 $162 $262 forward $372 $-1 #
edge $-1 $384 -13.870253868878246 $265 0.49707359153585751 $261 $385 forward 7 unknown #
edge $-1 $386 -14.367327460414121 $266 -1.6303764080091705e-014 $256 $387 forward 7 unknown #
coedge $-1 $164 $377 $382 $388 forward $159 $-1 #
vertex $-1 $165 $389 #
vertex $-1 $165 $390 #
straight-curve $-1 -19.44886810084618 -34.749926112972027 3.4906413071382567 1 0 0 I I #
coedge $-1 $268 $268 $-1 $391 reversed $168 $-1 #
edge $-1 $392 0 $392 6.2831853071796004 $169 $393 forward 7 unknown #
vertex $-1 $172 $394 #
ellipse-curve $-1 -42.70696200917692 -28.528690858150782 7.0824732203632514 0 -0.50000000669873634 0.8660253999169214 2 0 0 1 I I #
coedge $-1 $272 $272 $-1 $395 reversed $175 $-1 #
edge $-1 $396 0 $396 6.2831853071796004 $176 $397 forward 7 unknown #
vertex $-1 $179 $398 #
ellipse-curve $-1 -35.088510394207809 -28.528690858150782 7.0824732203632514 0 -0.50000000669873634 0.8660253999169214 2 0 0 1 I I #
face $-1 $-1 $195 $27 $-1 $399 reversed single #
loop $-1 $-1 $292 $180 #
plane-surface $-1 0 34.749926112972027 0 0 -1 0 0 0 -1 forward_v I I I I #
coedge $-1 $400 $290 $293 $401 forward $181 $-1 #
coedge $-1 $296 $183 $184 $284 reversed $113 $-1 #
coedge $-1 $290 $400 $183 $282 reversed $181 $-1 #
edge $-1 $297 -10.674305133588247 $402 10.674305133588247 $281 $403 forward 7 unknown #
coedge $-1 $185 $184 $400 $404 forward $73 $-1 #
edge $-1 $288 -59.005706961272011 $402 59.005706961272011 $280 $405 forward 7 unknown #
coedge $-1 $293 $292 $185 $286 reversed $277 $-1 #
edge $-1 $406 -59.005706961272011 $287 59.005706961272011 $285 $407 forward 7 unknown #
vertex $-1 $187 $408 #
vertex $-1 $299 $409 #
straight-curve $-1 59.005706961272011 0 -10.674305133588247 0 -1 0 I I #
coedge $-1 $279 $281 $188 $291 reversed $181 $-1 #
edge $-1 $294 -34.749926112972027 $297 34.749926112972027 $290 $410 forward 7 unknown #
coedge $-1 $285 $189 $194 $300 forward $277 $-1 #
coedge $-1 $189 $285 $279 $401 reversed $277 $-1 #
vertex $-1 $190 $411 #
straight-curve $-1 0 34.749926112972027 10.674305133588247 -1 0 0 I I #
coedge $-1 $191 $280 $193 $299 reversed $113 $-1 #
vertex $-1 $291 $412 #
straight-curve $-1 0 -34.749926112972027 10.674305133588247 1 0 0 I I #
edge $-1 $196 -10.674305133588247 $288 10.674305133588247 $193 $413 forward 7 unknown #
edge $-1 $197 -10.674305133588247 $287 10.674305133588247 $194 $414 forward 7 unknown #
point $-1 59.005706961272011 -34.749926112972027 10.674305133588247 #
point $-1 59.005706961272011 34.749926112972027 10.674305133588247 #
face $-1 $-1 $313 $28 $-1 $415 reversed single #
loop $-1 $-1 $309 $199 #
plane-surface $-1 0 0 -10.674305133588247 0 0 1 1 0 0 forward_v I I I I #
coedge $-1 $416 $417 $207 $317 forward $200 $-1 #
coedge $-1 $202 $321 $311 $418 forward $121 $-1 #
edge $-1 $315 -18.956595569970339 $212 -12.63006551603303 $202 $419 forward 7 unknown #
coedge $-1 $420 $208 $203 $310 forward $304 $-1 #
edge $-1 $213 12.63006551603303 $314 18.956595569970339 $309 $421 forward 7 unknown #
coedge $-1 $422 $205 $307 $418 reversed $313 $-1 #
coedge $-1 $205 $422 $420 $423 reversed $313 $-1 #
loop $-1 $-1 $205 $303 #
vertex $-1 $423 $424 #
vertex $-1 $206 $425 #
straight-curve $-1 -47.78592975248965 -34.749926112972027 0 0 0 1 I I #
edge $-1 $322 -10.674305133588247 $319 10.674305133588247 $306 $426 forward 7 unknown #
coedge $-1 $208 $420 $416 $427 forward $304 $-1 #
vertex $-1 $209 $428 #
straight-curve $-1 -26.697909178440415 -28.423396059034715 -10.674305133588247 1 0 0 I I #
coedge $-1 $307 $210 $417 $429 forward $121 $-1 #
vertex $-1 $429 $430 #
straight-curve $-1 -26.697909178440415 -28.423396059034715 10.674305133588247 -1 0 0 I I #
point $-1 -47.78592975248965 -28.423396059034715 10.674305133588247 #
point $-1 -47.78592975248965 -28.423396059034715 -10.674305133588247 #
face $-1 $-1 $340 $29 $-1 $431 reversed single #
loop $-1 $-1 $432 $215 #
plane-surface $-1 71.519164214996181 0 9.1743051335882466 -1 0 0 0 0 1 forward_v I I I I #
coedge $-1 $226 $225 $433 $434 forward $216 $-1 #
coedge $-1 $435 $218 $339 $436 forward $129 $-1 #
coedge $-1 $218 $435 $219 $334 forward $129 $-1 #
edge $-1 $336 -34.749926112972027 $341 34.749926112972027 $218 $437 forward 7 unknown #
coedge $-1 $220 $219 $438 $439 forward $81 $-1 #
edge $-1 $440 -71.519164214996181 $336 -59.005706961272011 $219 $441 forward 7 unknown #
edge $-1 $227 -6.2567286268620848 $442 6.2567286268620848 $220 $443 forward 7 unknown #
vertex $-1 $332 $444 #
straight-curve $-1 59.005706961272011 34.749926112972027 0 0 0 1 I I #
coedge $-1 $445 $223 $226 $343 reversed $340 $-1 #
coedge $-1 $223 $445 $330 $436 reversed $340 $-1 #
loop $-1 $-1 $223 $326 #
vertex $-1 $436 $446 #
straight-curve $-1 59.005706961272011 -34.749926112972027 0 0 0 -1 I I #
edge $-1 $447 -6.2567286268620848 $228 6.2567286268620848 $338 $448 forward 7 unknown #
point $-1 59.005706961272011 34.749926112972027 7.6743051335882466 #
point $-1 59.005706961272011 -34.749926112972027 7.6743051335882466 #
loop $-1 $-1 $238 $230 #
plane-surface $-1 0 34.749926112972027 0 0 -1 0 0 0 -1 forward_v I I I I #
coedge $-1 $349 $233 $235 $353 reversed $137 $-1 #
coedge $-1 $233 $348 $449 $450 reversed $137 $-1 #
coedge $-1 $241 $236 $233 $351 forward $231 $-1 #
edge $-1 $354 -13.152630316233285 $451 -6.6122475644144245 $350 $452 forward 7 unknown #
coedge $-1 $235 $234 $357 $453 reversed $85 $-1 #
edge $-1 $454 -69.499852225944082 $354 -59.107080990432095 $348 $455 forward 7 unknown #
vertex $-1 $237 $456 #
straight-curve $-1 -19.997987353446302 28.209543361153159 10.674305133588248 1 0 0 I I #
coedge $-1 $449 $238 $241 $361 reversed $346 $-1 #
coedge $-1 $238 $449 $352 $453 forward $346 $-1 #
vertex $-1 $239 $457 #
straight-curve $-1 -47.78592975248965 34.749926112972027 65.438061430023339 0 0 1 I I #
straight-curve $-1 -47.78592975248965 -8.9877473575372449 56.6091349079406 0 0.62932038083071107 -0.77714596973225614 I I #
edge $-1 $451 32.206019661295556 $242 47.78592975248965 $356 $458 forward 7 unknown #
point $-1 -47.78592975248965 34.749926112972027 10.674305133588247 #
point $-1 -47.78592975248965 28.209543361153166 10.674305133588248 #
edge $-1 $459 1 $459 0 $245 $-1 forward 7 unknown #
vertex $-1 $246 $460 #
ellipse-curve $-1 -43.334526869291338 28.751007721783953 4.426275485064906 0 0.77714596973225614 0.62932038083071107 2 0 0 1 I I #
point $-1 -41.334526869291338 31.479734737062604 6.6359549935745337 #
edge $-1 $461 1 $461 0 $249 $-1 forward 7 unknown #
vertex $-1 $250 $462 #
ellipse-curve $-1 -36.657422544493869 28.751007721783953 4.426275485064906 0 0.77714596973225614 0.62932038083071107 2 0 0 1 I I #
point $-1 -34.657422544493869 31.479734737062604 6.6359549935745337 #
loop $-1 $-1 $261 $253 #
plane-surface $-1 -47.78592975248965 -31.586661086003371 0 -1 0 0 0 0 1 forward_v I I I I #
coedge $-1 $463 $380 $383 $464 forward $254 $-1 #
coedge $-1 $380 $463 $257 $376 forward $254 $-1 #
edge $-1 $378 12.127890819413672 $386 24.570361329056162 $375 $465 forward 7 unknown #
coedge $-1 $264 $258 $463 $466 reversed $159 $-1 #
vertex $-1 $259 $467 #
straight-curve $-1 -30.009542650895071 -34.749926112972027 52.845761622085391 0 0 1 I I #
coedge $-1 $374 $375 $260 $381 forward $254 $-1 #
edge $-1 $386 10.560674550048891 $384 28.33706165164347 $380 $468 forward 7 unknown #
coedge $-1 $383 $261 $264 $388 reversed $372 $-1 #
coedge $-1 $261 $382 $374 $464 reversed $372 $-1 #
vertex $-1 $381 $469 #
straight-curve $-1 -47.78592975248965 -34.319447757074045 3.7391781062359479 0 -0.8660253999169214 -0.50000000669873634 I I #
vertex $-1 $381 $470 #
straight-curve $-1 -30.009542650895071 -34.749926112972041 3.4906413071382474 0 -0.8660253999169214 -0.50000000669873634 I I #
edge $-1 $471 -10.674305133588247 $265 -3.4906413071382554 $264 $472 forward 7 unknown #
point $-1 -47.78592975248965 -34.749926112972027 3.4906413071382554 #
point $-1 -30.009542650895071 -34.749926112972027 3.4906413071382554 #
edge $-1 $473 1 $473 0 $268 $-1 forward 7 unknown #
vertex $-1 $269 $474 #
ellipse-curve $-1 -42.70696200917692 -24.65137521429806 0.36676564819338253 0 -0.50000000669873634 0.8660253999169214 2 0 0 1 I I #
point $-1 -40.70696200917692 -28.528690858150782 7.0824732203632506 #
edge $-1 $475 1 $475 0 $272 $-1 forward 7 unknown #
vertex $-1 $273 $476 #
ellipse-curve $-1 -35.088510394207809 -24.65137521429806 0.36676564819338253 0 -0.50000000669873634 0.8660253999169214 2 0 0 1 I I #
point $-1 -33.088510394207809 -28.528690858150782 7.0824732203632506 #
plane-surface $-1 59.005706961272011 0 0 -1 0 0 0 0 1 forward_v I I I I #
coedge $-1 $281 $279 $283 $404 reversed $181 $-1 #
edge $-1 $294 -10.674305133588247 $406 10.674305133588247 $293 $477 forward 7 unknown #
vertex $-1 $404 $478 #
straight-curve $-1 -59.005706961272011 -34.749926112972027 0 0 0 -1 I I #
edge $-1 $402 -34.749926112972027 $406 34.749926112972027 $400 $479 forward 7 unknown #
straight-curve $-1 0 -34.749926112972027 -10.674305133588247 -1 0 0 I I #
vertex $-1 $286 $480 #
straight-curve $-1 0 34.749926112972027 -10.674305133588247 1 0 0 I I #
point $-1 59.005706961272011 34.749926112972027 -10.674305133588247 #
point $-1 59.005706961272011 -34.749926112972027 -10.674305133588247 #
straight-curve $-1 -59.005706961272011 0 10.674305133588247 0 -1 0 I I #
point $-1 -59.005706961272011 34.749926112972027 10.674305133588247 #
point $-1 -59.005706961272011 -34.749926112972027 10.674305133588247 #
straight-curve $-1 59.005706961272011 -34.749926112972027 0 0 0 -1 I I #
straight-curve $-1 59.005706961272011 34.749926112972027 0 0 0 -1 I I #
plane-surface $-1 0 -34.749926112972027 0 0 1 0 0 0 1 forward_v I I I I #
coedge $-1 $481 $306 $318 $427 reversed $200 $-1 #
coedge $-1 $306 $481 $321 $429 reversed $200 $-1 #
edge $-1 $482 -59.005706961272011 $315 -47.78592975248965 $311 $483 forward 7 unknown #
straight-curve $-1 -47.78592975248965 -15.793330543001685 10.674305133588247 0 1 0 I I #
coedge $-1 $318 $309 $312 $423 forward $304 $-1 #
straight-curve $-1 -47.78592975248965 -15.793330543001685 -10.674305133588247 0 -1 0 I I #
coedge $-1 $312 $311 $481 $484 forward $313 $-1 #
edge $-1 $314 47.78592975248965 $485 59.005706961272011 $312 $486 forward 7 unknown #
point $-1 -47.78592975248965 -34.749926112972027 -10.674305133588247 #
point $-1 -47.78592975248965 -34.749926112972027 10.674305133588247 #
straight-curve $-1 -59.005706961272011 -28.423396059034715 0 0 0 -1 I I #
edge $-1 $485 -34.749926112972027 $319 -28.423396059034715 $416 $487 forward 7 unknown #
point $-1 -59.005706961272011 -28.423396059034715 -10.674305133588247 #
edge $-1 $322 28.423396059034715 $482 34.749926112972027 $417 $488 forward 7 unknown #
point $-1 -59.005706961272011 -28.423396059034715 10.674305133588247 #
plane-surface $-1 0 -34.749926112972027 0 0 1 0 0 0 1 forward_v I I I I #
coedge $-1 $433 $489 $445 $490 forward $327 $-1 #
coedge $-1 $438 $432 $329 $434 reversed $327 $-1 #
edge $-1 $442 -34.749926112972027 $447 34.749926112972027 $433 $491 forward 7 unknown #
coedge $-1 $331 $330 $489 $492 forward $129 $-1 #
edge $-1 $341 -6.2567286268620848 $493 6.2567286268620848 $339 $494 forward 7 unknown #
straight-curve $-1 59.005706961272011 0 10.674305133588247 0 -1 0 I I #
coedge $-1 $489 $433 $333 $439 reversed $327 $-1 #
edge $-1 $440 -1.5 $442 1.5 $438 $495 forward 7 unknown #
vertex $-1 $492 $496 #
straight-curve $-1 0 34.749926112972027 10.674305133588247 -1 0 0 I I #
vertex $-1 $434 $497 #
straight-curve $-1 65.262435588134096 34.749926112972027 7.6743051335882466 1 0 0 I I #
point $-1 59.005706961272011 34.749926112972027 10.674305133588247 #
coedge $-1 $339 $338 $432 $490 reversed $340 $-1 #
point $-1 59.005706961272011 -34.749926112972027 10.674305133588247 #
vertex $-1 $490 $498 #
straight-curve $-1 65.262435588134096 -34.749926112972027 7.6743051335882466 -1 0 0 I I #
coedge $-1 $357 $356 $349 $450 forward $346 $-1 #
edge $-1 $451 54.763756296435091 $454 62.84045657646255 $449 $499 forward 7 unknown #
vertex $-1 $361 $500 #
straight-curve $-1 -32.206019661295556 41.362173677386451 10.674305133588248 0 1 0 I I #
edge $-1 $454 12.208032307849255 $358 27.787942399043349 $357 $501 forward 7 unknown #
vertex $-1 $453 $502 #
straight-curve $-1 -32.206019661295556 -8.9877473575372449 56.6091349079406 0 -0.62932038083071107 0.77714596973225614 I I #
point $-1 -32.206019661295556 28.209543361153166 10.674305133588248 #
point $-1 -47.78592975248965 34.749926112972027 2.5976048535607887 #
straight-curve $-1 0 34.749926112972027 10.674305133588247 -1 0 0 I I #
vertex $-1 $364 $503 #
point $-1 -41.334526869291338 28.751007721783953 4.426275485064906 #
vertex $-1 $368 $504 #
point $-1 -34.657422544493869 28.751007721783953 4.426275485064906 #
coedge $-1 $375 $374 $377 $466 forward $254 $-1 #
edge $-1 $384 -24.570361329056162 $471 -12.127890819413672 $374 $505 forward 7 unknown #
straight-curve $-1 -30.009542650895071 -46.877816932385699 10.674305133588248 0 1 0 I I #
edge $-1 $471 -113.04836534062375 $378 -95.271978239029167 $377 $506 forward 7 unknown #
point $-1 -30.009542650895071 -34.749926112972027 10.674305133588247 #
straight-curve $-1 -19.44886810084618 -22.307455603329533 10.674305133588247 -1 0 0 I I #
point $-1 -47.78592975248965 -22.307455603329537 10.674305133588247 #
point $-1 -30.009542650895071 -22.307455603329537 10.674305133588247 #
vertex $-1 $466 $507 #
straight-curve $-1 -47.78592975248965 -34.749926112972027 0 0 0 -1 I I #
vertex $-1 $391 $508 #
point $-1 -40.70696200917692 -24.65137521429806 0.36676564819338253 #
vertex $-1 $395 $509 #
point $-1 -33.088510394207809 -24.65137521429806 0.36676564819338253 #
straight-curve $-1 -59.005706961272011 34.749926112972027 0 0 0 -1 I I #
point $-1 -59.005706961272011 -34.749926112972027 -10.674305133588247 #
straight-curve $-1 -59.005706961272011 0 -10.674305133588247 0 1 0 I I #
point $-1 -59.005706961272011 34.749926112972027 -10.674305133588247 #
coedge $-1 $417 $416 $422 $484 reversed $200 $-1 #
vertex $-1 $429 $510 #
straight-curve $-1 0 -34.749926112972027 10.674305133588247 1 0 0 I I #
edge $-1 $482 -10.674305133588247 $485 10.674305133588247 $481 $511 forward 7 unknown #
vertex $-1 $427 $512 #
straight-curve $-1 0 -34.749926112972027 -10.674305133588247 -1 0 0 I I #
straight-curve $-1 -59.005706961272011 0 -10.674305133588247 0 1 0 I I #
straight-curve $-1 -59.005706961272011 0 10.674305133588247 0 -1 0 I I #
coedge $-1 $432 $438 $435 $492 reversed $327 $-1 #
edge $-1 $493 -1.5 $447 1.5 $432 $513 forward 7 unknown #
straight-curve $-1 71.519164214996181 0 7.6743051335882466 0 -1 0 I I #
edge $-1 $493 -34.749926112972027 $440 34.749926112972027 $489 $514 forward 7 unknown #
vertex $-1 $492 $515 #
straight-curve $-1 65.262435588134096 -34.749926112972027 10.674305133588247 1 0 0 I I #
straight-curve $-1 71.519164214996181 34.749926112972027 9.1743051335882466 0 0 -1 I I #
point $-1 71.519164214996181 34.749926112972027 10.674305133588247 #
point $-1 71.519164214996181 34.749926112972027 7.6743051335882466 #
point $-1 71.519164214996181 -34.749926112972027 7.6743051335882466 #
straight-curve $-1 -32.206019661295556 34.749926112972027 65.438061430023339 0 0 -1 I I #
point $-1 -32.206019661295556 34.749926112972027 10.674305133588247 #
straight-curve $-1 -19.997987353446302 34.749926112972027 2.5976048535607852 -1 0 0 I I #
point $-1 -32.206019661295556 34.749926112972027 2.5976048535607887 #
point $-1 -43.334526869291338 27.196715782319441 3.1676347234034843 #
point $-1 -36.657422544493869 27.196715782319441 3.1676347234034843 #
straight-curve $-1 -47.78592975248965 -46.877816932385699 10.674305133588248 0 -1 0 I I #
straight-curve $-1 65.262435588134096 -34.749926112972027 10.674305133588247 1 0 0 I I #
point $-1 -47.78592975248965 -34.749926112972027 10.674305133588247 #
point $-1 -42.70696200917692 -23.651375200900585 -1.3652851516404603 #
point $-1 -35.088510394207809 -23.651375200900585 -1.3652851516404603 #
point $-1 -59.005706961272011 -34.749926112972027 10.674305133588247 #
straight-curve $-1 -59.005706961272011 -34.749926112972027 0 0 0 -1 I I #
point $-1 -59.005706961272011 -34.749926112972027 -10.674305133588247 #
straight-curve $-1 71.519164214996181 -34.749926112972027 9.1743051335882466 0 0 -1 I I #
straight-curve $-1 71.519164214996181 0 10.674305133588247 0 1 0 I I #
point $-1 71.519164214996181 -34.749926112972027 10.674305133588247 #
End-of-ACIS-data 