500 0 8 0           
7 Unknown 11 ACIS 5.0 NT 24 Fri Mar 26 00:57:15 1999 
-1 9.9999999999999995e-007 1e-010 
body $-1 $8 $-1 $9 #
body $-1 $10 $-1 $11 #
body $-1 $12 $-1 $13 #
body $-1 $14 $-1 $15 #
body $-1 $16 $-1 $17 #
body $-1 $18 $-1 $19 #
body $-1 $20 $-1 $21 #
body $-1 $22 $-1 $23 #
lump $-1 $-1 $24 $0 #
transform $-1 1 0 0 0 1 0 0 0 1 78.503372295297098 39.827158727540827 15.117838604000365 1 rotate no_reflect no_shear #
lump $-1 $-1 $25 $1 #
transform $-1 1 0 0 0 1 0 0 0 1 78.503372295297098 39.827158727540827 15.117838604000365 1 rotate no_reflect no_shear #
lump $-1 $-1 $26 $2 #
transform $-1 1 0 0 0 1 0 0 0 1 78.503372295297098 39.827158727540827 15.117838604000365 1 rotate no_reflect no_shear #
lump $-1 $-1 $27 $3 #
transform $-1 1 0 0 0 1 0 0 0 1 78.503372295297098 39.827158727540827 15.117838604000365 1 rotate no_reflect no_shear #
lump $-1 $-1 $28 $4 #
transform $-1 1 0 0 0 1 0 0 0 1 78.503372295297098 39.827158727540827 15.117838604000365 1 rotate no_reflect no_shear #
lump $-1 $-1 $29 $5 #
transform $-1 1 0 0 0 1 0 0 0 1 78.503372295297098 39.827158727540827 15.117838604000365 1 rotate no_reflect no_shear #
lump $-1 $-1 $30 $6 #
transform $-1 1 0 0 0 1 0 0 0 1 78.503372295297098 39.827158727540827 15.117838604000365 1 rotate no_reflect no_shear #
lump $-1 $-1 $31 $7 #
transform $-1 1 0 0 0 1 0 0 0 1 78.503372295297098 39.827158727540827 15.117838604000365 1 rotate no_reflect no_shear #
shell $-1 $-1 $-1 $32 $-1 $8 #
shell $-1 $-1 $-1 $33 $-1 $10 #
shell $-1 $-1 $-1 $34 $-1 $12 #
shell $-1 $-1 $-1 $35 $-1 $14 #
shell $-1 $-1 $-1 $36 $-1 $16 #
shell $-1 $-1 $-1 $37 $-1 $18 #
shell $-1 $-1 $-1 $38 $-1 $20 #
shell $-1 $-1 $-1 $39 $-1 $22 #
face $-1 $40 $41 $24 $-1 $42 forward single #
face $-1 $43 $44 $25 $-1 $45 forward single #
face $-1 $46 $47 $26 $-1 $48 reversed single #
face $-1 $49 $50 $27 $-1 $51 forward single #
face $-1 $52 $53 $28 $-1 $54 reversed single #
face $-1 $55 $56 $29 $-1 $57 forward single #
face $-1 $58 $59 $30 $-1 $60 forward single #
face $-1 $61 $62 $31 $-1 $63 forward single #
face $-1 $64 $65 $24 $-1 $66 reversed single #
loop $-1 $-1 $67 $32 #
plane-surface $-1 0 0 15.117838604000365 0 0 1 1 0 0 forward_v I I I I #
face $-1 $68 $69 $25 $-1 $70 reversed single #
loop $-1 $-1 $71 $33 #
plane-surface $-1 -71.705106302152089 0 3.1134925480933475 0 0 1 1 0 0 forward_v I I I I #
face $-1 $72 $73 $26 $-1 $74 reversed single #
loop $-1 $-1 $75 $34 #
plane-surface $-1 -45.152885528305077 -163.55016314971198 108.33631927245918 1 0 0 0 0.78801076186113728 -0.61566146476048833 forward_v I I I I #
face $-1 $76 $77 $27 $-1 $78 forward single #
loop $-1 $79 $80 $35 #
cone-surface $-1 -26.13999221842051 -37.159912938160183 12.362977434208233 0 0.78801076186113728 -0.61566146476048833 1 0 0 1 I I 0 1 1 forward I I I I #
face $-1 $81 $82 $28 $-1 $83 reversed single #
loop $-1 $-1 $84 $36 #
plane-surface $-1 51.920883105589624 114.51006939081944 165.87406759845376 1 0 0 0 -0.78801076186113728 -0.61566146476048833 forward_v I I I I #
face $-1 $85 $86 $29 $-1 $87 forward single #
loop $-1 $88 $89 $37 #
cone-surface $-1 56.82686301576355 35.745506520505948 10.238998367900418 0 -0.78801076186113728 -0.61566146476048833 1.5 0 0 1 I I 0 1 1.5 forward I I I I #
face $-1 $90 $91 $30 $-1 $92 forward single #
loop $-1 $93 $94 $38 #
cone-surface $-1 64.185832881024439 35.745506520505948 10.238998367900418 0 -0.78801076186113728 -0.61566146476048833 1.5 0 0 1 I I 0 1 1.5 forward I I I I #
face $-1 $95 $96 $31 $-1 $97 forward single #
loop $-1 $98 $99 $39 #
cone-surface $-1 71.544802746285328 35.745506520505948 10.238998367900418 0 -0.78801076186113728 -0.61566146476048833 1.5 0 0 1 I I 0 1 1.5 forward I I I I #
face $-1 $100 $101 $24 $-1 $102 reversed single #
loop $-1 $-1 $103 $40 #
plane-surface $-1 0 0 -15.117838604000365 0 0 1 1 0 0 forward_v I I I I #
coedge $-1 $104 $105 $106 $107 forward $41 $-1 #
face $-1 $108 $109 $25 $-1 $110 reversed single #
loop $-1 $-1 $111 $43 #
plane-surface $-1 -71.705106302152089 0 -4.0031998700928035 0 0 1 1 0 0 forward_v I I I I #
coedge $-1 $112 $113 $114 $115 forward $44 $-1 #
face $-1 $116 $117 $26 $-1 $118 reversed single #
loop $-1 $-1 $119 $46 #
plane-surface $-1 -26.139992218420502 -39.827158727540848 11.673316920538085 0 -0.78801076186113728 0.61566146476048833 1 0 0 forward_v I I I I #
coedge $-1 $120 $121 $122 $123 reversed $47 $-1 #
face $-1 $-1 $124 $27 $-1 $125 forward single #
loop $-1 $126 $127 $49 #
cone-surface $-1 -26.13999221842051 -35.444239371402915 11.022546373766996 0 0.78801076186113728 -0.61566146476048833 0.5 0 0 1 I I -0.70710678118654746 0.70710678118654746 0.5 forward I I I I #
loop $-1 $-1 $128 $35 #
coedge $-1 $80 $80 $129 $130 reversed $50 $-1 #
face $-1 $131 $132 $28 $-1 $133 reversed single #
loop $-1 $-1 $134 $52 #
plane-surface $-1 64.18583288102441 -9.2129350313517051 69.211065246532641 0 0.78801076186113728 0.61566146476048833 1 0 0 forward_v I I I I #
coedge $-1 $135 $136 $137 $138 reversed $53 $-1 #
face $-1 $-1 $139 $29 $-1 $140 forward single #
loop $-1 $141 $142 $55 #
cone-surface $-1 56.82686301576355 34.461763471904355 9.2360284036178406 0 -0.78801076186113728 -0.61566146476048833 0.75 0 0 1 I I -0.70710678118654757 0.70710678118654757 0.75 forward I I I I #
loop $-1 $-1 $143 $37 #
coedge $-1 $89 $89 $144 $145 reversed $56 $-1 #
face $-1 $-1 $146 $30 $-1 $147 forward single #
loop $-1 $148 $149 $58 #
cone-surface $-1 64.185832881024439 34.461763471904355 9.2360284036178406 0 -0.78801076186113728 -0.61566146476048833 0.75 0 0 1 I I -0.70710678118654757 0.70710678118654757 0.75 forward I I I I #
loop $-1 $-1 $150 $38 #
coedge $-1 $94 $94 $151 $152 reversed $59 $-1 #
face $-1 $-1 $153 $31 $-1 $154 forward single #
loop $-1 $155 $156 $61 #
cone-surface $-1 71.544802746285328 34.461763471904355 9.2360284036178406 0 -0.78801076186113728 -0.61566146476048833 0.75 0 0 1 I I -0.70710678118654757 0.70710678118654757 0.75 forward I I I I #
loop $-1 $-1 $157 $39 #
coedge $-1 $99 $99 $158 $159 reversed $62 $-1 #
face $-1 $160 $161 $24 $-1 $162 reversed single #
loop $-1 $-1 $163 $64 #
plane-surface $-1 0 -39.827158727540827 0 0 1 0 0 0 1 forward_v I I I I #
coedge $-1 $164 $165 $166 $167 forward $65 $-1 #
coedge $-1 $168 $67 $169 $170 forward $41 $-1 #
coedge $-1 $67 $168 $171 $172 forward $41 $-1 #
coedge $-1 $173 $174 $67 $107 reversed $175 $-1 #
edge $-1 $176 -39.827158727540827 $177 39.827158727540827 $106 $178 forward 7 unknown #
face $-1 $179 $180 $25 $-1 $181 reversed single #
loop $-1 $-1 $182 $68 #
plane-surface $-1 -64.90684030900708 0 -0.44485366099972801 -1 0 0 0 0 1 forward_v I I I I #
coedge $-1 $183 $184 $185 $186 forward $69 $-1 #
coedge $-1 $187 $71 $188 $189 reversed $44 $-1 #
coedge $-1 $71 $187 $190 $191 reversed $44 $-1 #
coedge $-1 $182 $192 $71 $115 reversed $109 $-1 #
edge $-1 $193 -39.827158727540827 $194 39.827158727540827 $114 $195 forward 7 unknown #
face $-1 $196 $197 $26 $-1 $198 forward single #
loop $-1 $-1 $199 $72 #
plane-surface $-1 -7.127098908535924 -163.55016314971198 108.33631927245918 -1 0 0 0 -0.78801076186113728 0.61566146476048833 forward_v I I I I #
coedge $-1 $200 $201 $202 $203 reversed $73 $-1 #
coedge $-1 $121 $75 $204 $205 reversed $47 $-1 #
coedge $-1 $75 $120 $200 $206 reversed $47 $-1 #
coedge $-1 $202 $207 $75 $123 forward $208 $-1 #
edge $-1 $209 39.05032103222922 $210 42.494842715691476 $122 $211 forward 7 unknown #
loop $-1 $-1 $129 $76 #
plane-surface $-1 -26.139992218420502 -39.827158727540848 11.673316920538085 0 -0.78801076186113728 0.61566146476048833 1 0 0 forward_v I I I I #
loop $-1 $-1 $212 $49 #
coedge $-1 $127 $127 $128 $213 reversed $77 $-1 #
coedge $-1 $128 $128 $127 $213 forward $79 $-1 #
coedge $-1 $129 $129 $80 $130 forward $124 $-1 #
edge $-1 $214 3.3250952997184043e-015 $214 6.283185307179604 $129 $215 forward 7 unknown #
face $-1 $216 $217 $28 $-1 $218 reversed single #
loop $-1 $-1 $219 $81 #
plane-surface $-1 76.450782656459197 114.51006939081944 165.87406759845376 -1 0 0 0 0.78801076186113728 0.61566146476048833 forward_v I I I I #
coedge $-1 $220 $221 $222 $223 reversed $82 $-1 #
coedge $-1 $136 $84 $224 $225 reversed $53 $-1 #
coedge $-1 $84 $135 $220 $226 reversed $53 $-1 #
coedge $-1 $222 $227 $84 $138 forward $228 $-1 #
edge $-1 $229 17.427875967868893 $230 24.205710427527208 $137 $231 forward 7 unknown #
loop $-1 $-1 $144 $85 #
plane-surface $-1 64.18583288102441 -9.2129350313517051 69.211065246532641 0 0.78801076186113728 0.61566146476048833 1 0 0 forward_v I I I I #
loop $-1 $-1 $232 $55 #
coedge $-1 $142 $142 $143 $233 reversed $86 $-1 #
coedge $-1 $143 $143 $142 $233 forward $88 $-1 #
coedge $-1 $144 $144 $89 $145 forward $139 $-1 #
edge $-1 $234 1.5171018564712873e-015 $234 6.2831853071796022 $144 $235 forward 7 unknown #
loop $-1 $-1 $151 $90 #
plane-surface $-1 64.18583288102441 -9.2129350313517051 69.211065246532641 0 0.78801076186113728 0.61566146476048833 1 0 0 forward_v I I I I #
loop $-1 $-1 $236 $58 #
coedge $-1 $149 $149 $150 $237 reversed $91 $-1 #
coedge $-1 $150 $150 $149 $237 forward $93 $-1 #
coedge $-1 $151 $151 $94 $152 forward $146 $-1 #
edge $-1 $238 1.5171018564712873e-015 $238 6.2831853071796022 $151 $239 forward 7 unknown #
loop $-1 $-1 $158 $95 #
plane-surface $-1 64.18583288102441 -9.2129350313517051 69.211065246532641 0 0.78801076186113728 0.61566146476048833 1 0 0 forward_v I I I I #
loop $-1 $-1 $240 $61 #
coedge $-1 $156 $156 $157 $241 reversed $96 $-1 #
coedge $-1 $157 $157 $156 $241 forward $98 $-1 #
coedge $-1 $158 $158 $99 $159 forward $153 $-1 #
edge $-1 $242 1.5171018564712873e-015 $242 6.2831853071796022 $158 $243 forward 7 unknown #
face $-1 $244 $245 $24 $-1 $246 reversed single #
loop $-1 $-1 $247 $100 #
plane-surface $-1 -78.503372295297098 0 0 1 0 0 0 0 -1 forward_v I I I I #
coedge $-1 $248 $171 $249 $250 forward $101 $-1 #
coedge $-1 $251 $103 $248 $252 forward $65 $-1 #
coedge $-1 $103 $251 $253 $254 forward $65 $-1 #
coedge $-1 $174 $173 $103 $167 reversed $175 $-1 #
edge $-1 $255 -39.827158727540827 $256 39.827158727540827 $166 $257 forward 7 unknown #
coedge $-1 $105 $104 $258 $259 forward $41 $-1 #
coedge $-1 $260 $261 $104 $170 reversed $245 $-1 #
edge $-1 $177 -78.503372295297098 $262 78.503372295297098 $169 $263 forward 7 unknown #
coedge $-1 $163 $264 $105 $172 reversed $101 $-1 #
edge $-1 $265 -78.503372295297098 $176 78.503372295297098 $171 $266 forward 7 unknown #
coedge $-1 $166 $106 $264 $267 forward $175 $-1 #
coedge $-1 $106 $166 $260 $268 reversed $175 $-1 #
loop $-1 $-1 $173 $244 #
vertex $-1 $107 $269 #
vertex $-1 $107 $270 #
straight-curve $-1 78.503372295297098 0 15.117838604000365 0 1 0 I I #
face $-1 $271 $272 $25 $-1 $273 reversed single #
loop $-1 $-1 $274 $108 #
plane-surface $-1 0 -39.827158727540827 0 0 1 0 0 0 1 forward_v I I I I #
coedge $-1 $185 $114 $275 $276 reversed $109 $-1 #
coedge $-1 $277 $111 $274 $278 reversed $69 $-1 #
coedge $-1 $111 $277 $279 $280 reversed $69 $-1 #
coedge $-1 $192 $182 $111 $186 reversed $109 $-1 #
edge $-1 $281 -39.827158727540827 $282 39.827158727540827 $185 $283 forward 7 unknown #
coedge $-1 $113 $112 $284 $285 reversed $44 $-1 #
coedge $-1 $286 $287 $112 $189 forward $288 $-1 #
edge $-1 $289 -42.650819144221053 $194 -29.054287157931036 $188 $290 forward 7 unknown #
coedge $-1 $291 $275 $113 $191 forward $180 $-1 #
edge $-1 $193 29.054287157931036 $292 42.650819144221053 $190 $293 forward 7 unknown #
coedge $-1 $114 $185 $286 $294 reversed $109 $-1 #
vertex $-1 $191 $295 #
vertex $-1 $189 $296 #
straight-curve $-1 -64.90684030900708 0 3.1134925480933475 0 1 0 I I #
face $-1 $-1 $208 $26 $-1 $297 reversed single #
loop $-1 $-1 $298 $116 #
plane-surface $-1 0 0 15.117838604000365 0 0 1 1 0 0 forward_v I I I I #
coedge $-1 $299 $300 $301 $302 reversed $117 $-1 #
coedge $-1 $303 $119 $121 $206 forward $73 $-1 #
coedge $-1 $119 $303 $299 $304 forward $73 $-1 #
coedge $-1 $301 $122 $119 $203 forward $208 $-1 #
edge $-1 $210 -32.082889419094826 $305 5.9428972006743273 $202 $306 forward 7 unknown #
coedge $-1 $307 $308 $120 $205 forward $197 $-1 #
edge $-1 $309 -44.639078054423024 $209 -41.947922847315162 $204 $310 forward 7 unknown #
edge $-1 $210 3.4120438039485133e-014 $309 4.371160712738174 $121 $311 forward 7 unknown #
coedge $-1 $122 $301 $307 $312 reversed $208 $-1 #
loop $-1 $-1 $301 $196 #
vertex $-1 $312 $313 #
vertex $-1 $123 $314 #
straight-curve $-1 -45.152885528305077 -39.827158727540827 54.168159636229589 0 0 -1 I I #
coedge $-1 $212 $212 $-1 $315 reversed $126 $-1 #
edge $-1 $316 0 $316 6.2831853071796004 $127 $317 forward 7 unknown #
vertex $-1 $130 $318 #
ellipse-curve $-1 -26.13999221842051 -38.481581123986899 13.395577762269237 0 -0.78801076186113728 0.61566146476048833 1 0 0 1 I I #
face $-1 $-1 $228 $28 $-1 $319 forward single #
loop $-1 $-1 $320 $131 #
plane-surface $-1 0 39.827158727540827 0 0 -1 0 0 0 -1 forward_v I I I I #
coedge $-1 $321 $322 $323 $324 reversed $132 $-1 #
coedge $-1 $325 $134 $136 $226 forward $82 $-1 #
coedge $-1 $134 $325 $321 $326 forward $82 $-1 #
coedge $-1 $323 $137 $134 $223 forward $228 $-1 #
edge $-1 $230 19.827966665077419 $327 44.357866215946991 $222 $328 forward 7 unknown #
coedge $-1 $329 $330 $135 $225 forward $217 $-1 #
edge $-1 $331 -76.494427936002054 $229 -67.819195195226513 $224 $332 forward 7 unknown #
edge $-1 $230 68.645289202363131 $331 79.654317455081696 $136 $333 forward 7 unknown #
coedge $-1 $137 $323 $329 $334 forward $228 $-1 #
loop $-1 $-1 $323 $216 #
vertex $-1 $225 $335 #
vertex $-1 $138 $336 #
straight-curve $-1 51.920883105589624 57.255034695409719 15.117838604000369 0 -1 0 I I #
coedge $-1 $232 $232 $-1 $337 reversed $141 $-1 #
edge $-1 $338 0 $338 6.2831853071796004 $142 $339 forward 7 unknown #
vertex $-1 $145 $340 #
ellipse-curve $-1 56.82686301576355 36.438241497711658 10.780222233612607 0 0.78801076186113728 0.61566146476048833 1.5 0 0 1 I I #
coedge $-1 $236 $236 $-1 $341 reversed $148 $-1 #
edge $-1 $342 0 $342 6.2831853071796004 $149 $343 forward 7 unknown #
vertex $-1 $152 $344 #
ellipse-curve $-1 64.185832881024439 36.438241497711658 10.780222233612607 0 0.78801076186113728 0.61566146476048833 1.5 0 0 1 I I #
coedge $-1 $240 $240 $-1 $345 reversed $155 $-1 #
edge $-1 $346 0 $346 6.2831853071796004 $156 $347 forward 7 unknown #
vertex $-1 $159 $348 #
ellipse-curve $-1 71.544802746285328 36.438241497711658 10.780222233612607 0 0.78801076186113728 0.61566146476048833 1.5 0 0 1 I I #
face $-1 $-1 $175 $24 $-1 $349 reversed single #
loop $-1 $-1 $260 $160 #
plane-surface $-1 0 39.827158727540827 0 0 -1 0 0 0 -1 forward_v I I I I #
coedge $-1 $350 $258 $261 $351 forward $161 $-1 #
coedge $-1 $264 $163 $164 $252 reversed $101 $-1 #
coedge $-1 $258 $350 $163 $250 reversed $161 $-1 #
edge $-1 $265 -15.117838604000365 $352 15.117838604000365 $249 $353 forward 7 unknown #
coedge $-1 $165 $164 $350 $354 forward $65 $-1 #
edge $-1 $256 -78.503372295297098 $352 78.503372295297098 $248 $355 forward 7 unknown #
coedge $-1 $261 $260 $165 $254 reversed $245 $-1 #
edge $-1 $356 -78.503372295297098 $255 78.503372295297098 $253 $357 forward 7 unknown #
vertex $-1 $167 $358 #
vertex $-1 $267 $359 #
straight-curve $-1 78.503372295297098 0 -15.117838604000365 0 -1 0 I I #
coedge $-1 $247 $249 $168 $259 reversed $161 $-1 #
edge $-1 $262 -39.827158727540827 $265 39.827158727540827 $258 $360 forward 7 unknown #
coedge $-1 $253 $169 $174 $268 forward $245 $-1 #
coedge $-1 $169 $253 $247 $351 reversed $245 $-1 #
vertex $-1 $170 $361 #
straight-curve $-1 0 39.827158727540827 15.117838604000365 -1 0 0 I I #
coedge $-1 $171 $248 $173 $267 reversed $101 $-1 #
vertex $-1 $259 $362 #
straight-curve $-1 0 -39.827158727540827 15.117838604000365 1 0 0 I I #
edge $-1 $176 -15.117838604000365 $256 15.117838604000365 $173 $363 forward 7 unknown #
edge $-1 $177 -15.117838604000365 $255 15.117838604000365 $174 $364 forward 7 unknown #
point $-1 78.503372295297098 -39.827158727540827 15.117838604000365 #
point $-1 78.503372295297098 39.827158727540827 15.117838604000365 #
face $-1 $-1 $288 $25 $-1 $365 reversed single #
loop $-1 $-1 $366 $179 #
plane-surface $-1 -78.503372295297098 0 0 1 0 0 0 0 -1 forward_v I I I I #
coedge $-1 $275 $291 $183 $278 forward $180 $-1 #
coedge $-1 $190 $274 $182 $276 forward $180 $-1 #
edge $-1 $282 -3.7807730395929395 $193 3.3359193785932115 $275 $367 forward 7 unknown #
coedge $-1 $184 $183 $366 $368 reversed $69 $-1 #
edge $-1 $369 -42.650819144221053 $282 -29.054287157931036 $274 $370 forward 7 unknown #
coedge $-1 $287 $286 $184 $280 forward $288 $-1 #
edge $-1 $281 29.054287157931036 $371 42.650819144221053 $279 $372 forward 7 unknown #
vertex $-1 $280 $373 #
vertex $-1 $278 $374 #
straight-curve $-1 -64.90684030900708 0 -4.0031998700928035 0 -1 0 I I #
coedge $-1 $375 $376 $187 $285 forward $272 $-1 #
edge $-1 $292 -39.827158727540827 $289 39.827158727540827 $284 $377 forward 7 unknown #
coedge $-1 $279 $188 $192 $294 forward $288 $-1 #
coedge $-1 $188 $279 $375 $378 reversed $288 $-1 #
loop $-1 $-1 $279 $271 #
vertex $-1 $378 $379 #
straight-curve $-1 -35.852553151076044 39.827158727540827 3.1134925480933475 1 0 0 I I #
coedge $-1 $274 $190 $376 $380 forward $180 $-1 #
vertex $-1 $380 $381 #
straight-curve $-1 -35.852553151076044 -39.827158727540827 3.1134925480933475 -1 0 0 I I #
edge $-1 $194 -3.3359193785932115 $281 3.7807730395929395 $286 $382 forward 7 unknown #
point $-1 -64.90684030900708 -39.827158727540827 3.1134925480933475 #
point $-1 -64.90684030900708 39.827158727540827 3.1134925480933475 #
plane-surface $-1 0 -39.827158727540827 0 0 1 0 0 0 1 forward_v I I I I #
coedge $-1 $308 $307 $300 $383 forward $197 $-1 #
coedge $-1 $300 $199 $201 $304 reversed $117 $-1 #
coedge $-1 $199 $299 $298 $383 reversed $117 $-1 #
coedge $-1 $207 $202 $199 $302 forward $208 $-1 #
edge $-1 $305 -42.494842715691476 $384 -39.05032103222922 $301 $385 forward 7 unknown #
coedge $-1 $201 $200 $308 $386 reversed $73 $-1 #
edge $-1 $387 -4.371160712738174 $305 -3.4120438039485133e-014 $299 $388 forward 7 unknown #
vertex $-1 $203 $389 #
straight-curve $-1 -13.069996109210251 -39.827158727540827 11.673316920538106 1 0 0 I I #
coedge $-1 $298 $204 $207 $312 forward $197 $-1 #
coedge $-1 $204 $298 $303 $386 forward $197 $-1 #
vertex $-1 $205 $390 #
straight-curve $-1 -45.152885528305077 -81.775081574855989 15.117838604000362 0 -1 0 I I #
straight-curve $-1 -45.152885528305077 -39.827158727540848 11.673316920538085 0 0.61566146476048833 0.78801076186113728 I I #
edge $-1 $209 -45.152885528305077 $384 -7.127098908535924 $207 $391 forward 7 unknown #
point $-1 -45.152885528305077 -39.827158727540827 15.117838604000365 #
point $-1 -45.152885528305077 -39.827158727540827 11.673316920538111 #
edge $-1 $392 1 $392 0 $212 $-1 forward 7 unknown #
vertex $-1 $213 $393 #
ellipse-curve $-1 -26.13999221842051 -35.83824475233348 11.330377106147241 0 -0.78801076186113728 0.61566146476048833 1 0 0 1 I I #
point $-1 -25.13999221842051 -38.481581123986878 13.395577762269225 #
plane-surface $-1 0 0 15.117838604000365 0 0 1 1 0 0 forward_v I I I I #
coedge $-1 $330 $329 $322 $394 forward $217 $-1 #
coedge $-1 $322 $219 $221 $326 reversed $132 $-1 #
coedge $-1 $219 $321 $320 $394 reversed $132 $-1 #
coedge $-1 $227 $222 $219 $324 forward $228 $-1 #
edge $-1 $327 -24.205710427527208 $395 -17.427875967868893 $323 $396 forward 7 unknown #
coedge $-1 $221 $220 $330 $397 reversed $82 $-1 #
edge $-1 $398 -79.654317455081696 $327 -68.645289202363131 $321 $399 forward 7 unknown #
vertex $-1 $223 $400 #
straight-curve $-1 32.092916440512205 33.049324267882518 15.117838604000369 1 0 0 I I #
coedge $-1 $320 $224 $227 $334 reversed $217 $-1 #
coedge $-1 $224 $320 $325 $397 forward $217 $-1 #
vertex $-1 $225 $401 #
straight-curve $-1 51.920883105589624 39.827158727540827 82.937033799226882 0 0 1 I I #
straight-curve $-1 51.920883105589624 -9.2129350313517051 69.211065246532641 0 0.61566146476048833 -0.78801076186113728 I I #
edge $-1 $395 -76.450782656459197 $229 -51.920883105589624 $329 $402 forward 7 unknown #
point $-1 51.920883105589624 39.827158727540827 15.117838604000365 #
point $-1 51.920883105589624 33.049324267882511 15.117838604000369 #
edge $-1 $403 1 $403 0 $232 $-1 forward 7 unknown #
vertex $-1 $233 $404 #
ellipse-curve $-1 56.82686301576355 35.05277154330021 9.6977745021882065 0 0.78801076186113728 0.61566146476048833 1.5 0 0 1 I I #
point $-1 58.32686301576355 36.438241497711694 10.780222233612632 #
edge $-1 $405 1 $405 0 $236 $-1 forward 7 unknown #
vertex $-1 $237 $406 #
ellipse-curve $-1 64.185832881024439 35.05277154330021 9.6977745021882065 0 0.78801076186113728 0.61566146476048833 1.5 0 0 1 I I #
point $-1 65.685832881024439 36.438241497711694 10.780222233612632 #
edge $-1 $407 1 $407 0 $240 $-1 forward 7 unknown #
vertex $-1 $241 $408 #
ellipse-curve $-1 71.544802746285328 35.05277154330021 9.6977745021882065 0 0.78801076186113728 0.61566146476048833 1.5 0 0 1 I I #
point $-1 73.044802746285328 36.438241497711694 10.780222233612632 #
plane-surface $-1 78.503372295297098 0 0 -1 0 0 0 0 1 forward_v I I I I #
coedge $-1 $249 $247 $251 $354 reversed $161 $-1 #
edge $-1 $262 -15.117838604000365 $356 15.117838604000365 $261 $409 forward 7 unknown #
vertex $-1 $354 $410 #
straight-curve $-1 -78.503372295297098 -39.827158727540827 0 0 0 -1 I I #
edge $-1 $352 -39.827158727540827 $356 39.827158727540827 $350 $411 forward 7 unknown #
straight-curve $-1 0 -39.827158727540827 -15.117838604000365 -1 0 0 I I #
vertex $-1 $254 $412 #
straight-curve $-1 0 39.827158727540827 -15.117838604000365 1 0 0 I I #
point $-1 78.503372295297098 39.827158727540827 -15.117838604000365 #
point $-1 78.503372295297098 -39.827158727540827 -15.117838604000365 #
straight-curve $-1 -78.503372295297098 0 15.117838604000365 0 -1 0 I I #
point $-1 -78.503372295297098 39.827158727540827 15.117838604000365 #
point $-1 -78.503372295297098 -39.827158727540827 15.117838604000365 #
straight-curve $-1 78.503372295297098 -39.827158727540827 0 0 0 -1 I I #
straight-curve $-1 78.503372295297098 39.827158727540827 0 0 0 -1 I I #
plane-surface $-1 0 39.827158727540827 0 0 -1 0 0 0 -1 forward_v I I I I #
coedge $-1 $376 $375 $277 $368 forward $272 $-1 #
straight-curve $-1 -64.90684030900708 -39.827158727540827 -0.222426830499864 0 0 1 I I #
edge $-1 $371 -39.827158727540827 $369 39.827158727540827 $366 $413 forward 7 unknown #
vertex $-1 $278 $414 #
straight-curve $-1 -35.852553151076044 -39.827158727540827 -4.0031998700928035 1 0 0 I I #
vertex $-1 $280 $415 #
straight-curve $-1 -35.852553151076044 39.827158727540827 -4.0031998700928035 -1 0 0 I I #
point $-1 -64.90684030900708 39.827158727540827 -4.0031998700928035 #
point $-1 -64.90684030900708 -39.827158727540827 -4.0031998700928035 #
coedge $-1 $366 $284 $287 $378 forward $272 $-1 #
coedge $-1 $284 $366 $291 $380 reversed $272 $-1 #
straight-curve $-1 -78.503372295297098 0 3.1134925480933475 0 1 0 I I #
edge $-1 $289 -3.1134925480933475 $371 4.0031998700928035 $287 $416 forward 7 unknown #
point $-1 -78.503372295297098 39.827158727540827 3.1134925480933475 #
edge $-1 $292 -3.1134925480933475 $369 4.0031998700928035 $376 $417 forward 7 unknown #
point $-1 -78.503372295297098 -39.827158727540827 3.1134925480933475 #
straight-curve $-1 -64.90684030900708 39.827158727540827 -0.222426830499864 0 0 -1 I I #
edge $-1 $384 41.947922847315162 $387 44.639078054423024 $298 $418 forward 7 unknown #
vertex $-1 $383 $419 #
straight-curve $-1 -7.127098908535924 -39.827158727540827 54.168159636229589 0 0 1 I I #
edge $-1 $387 -5.9428972006743273 $309 32.082889419094826 $308 $420 forward 7 unknown #
vertex $-1 $386 $421 #
straight-curve $-1 -7.127098908535924 -39.827158727540848 11.673316920538085 0 -0.61566146476048833 -0.78801076186113728 I I #
point $-1 -7.127098908535924 -39.827158727540827 11.673316920538111 #
point $-1 -45.152885528305077 -37.136003520432965 15.117838604000365 #
straight-curve $-1 0 -39.827158727540827 15.117838604000365 1 0 0 I I #
vertex $-1 $315 $422 #
point $-1 -25.13999221842051 -35.83824475233348 11.330377106147241 #
edge $-1 $395 67.819195195226513 $398 76.494427936002054 $320 $423 forward 7 unknown #
vertex $-1 $334 $424 #
straight-curve $-1 76.450782656459197 57.255034695409719 15.117838604000369 0 1 0 I I #
edge $-1 $398 -44.357866215946991 $331 -19.827966665077419 $330 $425 forward 7 unknown #
vertex $-1 $397 $426 #
straight-curve $-1 76.450782656459197 -9.2129350313517051 69.211065246532641 0 -0.61566146476048833 0.78801076186113728 I I #
point $-1 76.450782656459197 33.049324267882511 15.117838604000369 #
point $-1 51.920883105589624 39.827158727540827 6.4426058632248271 #
straight-curve $-1 0 39.827158727540827 15.117838604000365 -1 0 0 I I #
vertex $-1 $337 $427 #
point $-1 58.32686301576355 35.05277154330021 9.6977745021882065 #
vertex $-1 $341 $428 #
point $-1 65.685832881024439 35.05277154330021 9.6977745021882065 #
vertex $-1 $345 $429 #
point $-1 73.044802746285328 35.05277154330021 9.6977745021882065 #
straight-curve $-1 -78.503372295297098 39.827158727540827 0 0 0 -1 I I #
point $-1 -78.503372295297098 -39.827158727540827 -15.117838604000365 #
straight-curve $-1 -78.503372295297098 0 -15.117838604000365 0 1 0 I I #
point $-1 -78.503372295297098 39.827158727540827 -15.117838604000365 #
straight-curve $-1 -78.503372295297098 0 -4.0031998700928035 0 -1 0 I I #
point $-1 -78.503372295297098 -39.827158727540827 -4.0031998700928035 #
point $-1 -78.503372295297098 39.827158727540827 -4.0031998700928035 #
straight-curve $-1 -78.503372295297098 39.827158727540827 0 0 0 -1 I I #
straight-curve $-1 -78.503372295297098 -39.827158727540827 0 0 0 -1 I I #
straight-curve $-1 -7.127098908535924 -81.775081574855989 15.117838604000362 0 1 0 I I #
point $-1 -7.127098908535924 -39.827158727540827 15.117838604000365 #
straight-curve $-1 -13.069996109210251 -37.136003520432965 15.117838604000365 -1 0 0 I I #
point $-1 -7.127098908535924 -37.136003520432965 15.117838604000365 #
point $-1 -26.13999221842051 -35.05023399047235 10.714715641386752 #
straight-curve $-1 76.450782656459197 39.827158727540827 82.937033799226882 0 0 -1 I I #
point $-1 76.450782656459197 39.827158727540827 15.117838604000365 #
straight-curve $-1 32.092916440512205 39.827158727540827 6.4426058632248342 -1 0 0 I I #
point $-1 76.450782656459197 39.827158727540827 6.4426058632248271 #
point $-1 56.82686301576355 33.8707554005085 8.7742823050474748 #
point $-1 64.185832881024439 33.8707554005085 8.7742823050474748 #
point $-1 71.544802746285328 33.8707554005085 8.7742823050474748 #
End-of-ACIS-data 