500 0 8 0           
7 Unknown 11 ACIS 5.0 NT 24 Thu Mar 25 19:27:50 1999 
-1 9.9999999999999995e-007 1e-010 
body $-1 $8 $-1 $9 #
body $-1 $10 $-1 $11 #
body $-1 $12 $-1 $13 #
body $-1 $14 $-1 $15 #
body $-1 $16 $-1 $17 #
body $-1 $18 $-1 $19 #
body $-1 $20 $-1 $21 #
body $-1 $22 $-1 $23 #
lump $-1 $-1 $24 $0 #
transform $-1 1 0 0 0 1 0 0 0 1 77.803888058107248 47.087890379965359 16.493479545212452 1 rotate no_reflect no_shear #
lump $-1 $-1 $25 $1 #
transform $-1 1 0 0 0 1 0 0 0 1 77.803888058107248 47.087890379965359 16.493479545212452 1 rotate no_reflect no_shear #
lump $-1 $-1 $26 $2 #
transform $-1 1 0 0 0 1 0 0 0 1 77.803888058107248 47.087890379965359 16.493479545212452 1 rotate no_reflect no_shear #
lump $-1 $-1 $27 $3 #
transform $-1 1 0 0 0 1 0 0 0 1 77.803888058107248 47.087890379965359 16.493479545212452 1 rotate no_reflect no_shear #
lump $-1 $-1 $28 $4 #
transform $-1 1 0 0 0 1 0 0 0 1 77.803888058107248 47.087890379965359 16.493479545212452 1 rotate no_reflect no_shear #
lump $-1 $-1 $29 $5 #
transform $-1 1 0 0 0 1 0 0 0 1 77.803888058107248 47.087890379965359 16.493479545212452 1 rotate no_reflect no_shear #
lump $-1 $-1 $30 $6 #
transform $-1 1 0 0 0 1 0 0 0 1 77.803888058107248 47.087890379965359 16.493479545212452 1 rotate no_reflect no_shear #
lump $-1 $-1 $31 $7 #
transform $-1 1 0 0 0 1 0 0 0 1 77.803888058107248 47.087890379965359 16.493479545212452 1 rotate no_reflect no_shear #
shell $-1 $-1 $-1 $32 $-1 $8 #
shell $-1 $-1 $-1 $33 $-1 $10 #
shell $-1 $-1 $-1 $34 $-1 $12 #
shell $-1 $-1 $-1 $35 $-1 $14 #
shell $-1 $-1 $-1 $36 $-1 $16 #
shell $-1 $-1 $-1 $37 $-1 $18 #
shell $-1 $-1 $-1 $38 $-1 $20 #
shell $-1 $-1 $-1 $39 $-1 $22 #
face $-1 $40 $41 $24 $-1 $42 reversed single #
face $-1 $43 $44 $25 $-1 $45 forward single #
face $-1 $46 $47 $26 $-1 $48 reversed single #
face $-1 $49 $50 $27 $-1 $51 forward single #
face $-1 $52 $53 $28 $-1 $54 forward single #
face $-1 $55 $56 $29 $-1 $57 reversed single #
face $-1 $58 $59 $30 $-1 $60 forward single #
face $-1 $61 $62 $31 $-1 $63 forward single #
face $-1 $64 $65 $24 $-1 $66 forward single #
loop $-1 $-1 $67 $32 #
plane-surface $-1 0 -47.087890379965359 0 0 1 0 0 0 1 forward_v I I I I #
face $-1 $68 $69 $25 $-1 $70 reversed single #
loop $-1 $-1 $71 $33 #
plane-surface $-1 0 -47.087890379965359 0 0 1 0 0 0 1 forward_v I I I I #
face $-1 $72 $73 $26 $-1 $74 reversed single #
loop $-1 $-1 $75 $34 #
plane-surface $-1 -202.07778498371405 -12.222840262665212 102.09066100029793 0 1 0 -0.79863551827123203 0 0.60181501223851219 forward_v I I I I #
face $-1 $76 $77 $27 $-1 $78 forward single #
loop $-1 $79 $80 $35 #
cone-surface $-1 -72.943536060880362 -7.9325578225094304 11.091531037749817 0.79863551827123203 0 -0.60181501223851219 0.90272251835776829 0 1.197953277406848 1 I I 0 1 1.5 forward I I I I #
face $-1 $81 $82 $28 $-1 $83 forward single #
loop $-1 $84 $85 $36 #
cone-surface $-1 -72.943536060880362 -1.4971341622757564 11.091531037749817 0.79863551827123203 0 -0.60181501223851219 0.90272251835776829 0 1.197953277406848 1 I I 0 1 1.5 forward I I I I #
face $-1 $86 $87 $29 $-1 $88 reversed single #
loop $-1 $-1 $89 $37 #
plane-surface $-1 -202.07778498371405 8.130420758383476 102.09066100029793 0 1 0 -0.79863551827123203 0 0.60181501223851219 forward_v I I I I #
face $-1 $90 $91 $30 $-1 $92 forward single #
loop $-1 $93 $94 $38 #
cone-surface $-1 -72.943536060880362 12.420703198539258 11.091531037749817 0.79863551827123203 0 -0.60181501223851219 0.90272251835776829 0 1.197953277406848 1 I I 0 1 1.5 forward I I I I #
face $-1 $95 $96 $31 $-1 $97 forward single #
loop $-1 $98 $99 $39 #
cone-surface $-1 -72.943536060880362 18.856126858772939 11.091531037749817 0.79863551827123203 0 -0.60181501223851219 0.90272251835776829 0 1.197953277406848 1 I I 0 1 1.5 forward I I I I #
face $-1 $100 $101 $24 $-1 $102 reversed single #
loop $-1 $-1 $103 $40 #
plane-surface $-1 0 0 16.493479545212452 0 0 1 1 0 0 forward_v I I I I #
coedge $-1 $104 $105 $106 $107 reversed $41 $-1 #
face $-1 $108 $109 $25 $-1 $110 reversed single #
loop $-1 $-1 $111 $43 #
plane-surface $-1 0 0 -16.493479545212452 0 0 1 1 0 0 forward_v I I I I #
coedge $-1 $112 $113 $114 $115 forward $44 $-1 #
face $-1 $116 $117 $26 $-1 $118 reversed single #
loop $-1 $-1 $119 $46 #
plane-surface $-1 -77.803888058107248 -4.7148459923925969 8.4435653125106427 -0.79863551827123203 0 0.60181501223851219 0.60181501223851219 0 0.79863551827123203 forward_v I I I I #
coedge $-1 $120 $121 $122 $123 reversed $47 $-1 #
face $-1 $-1 $124 $27 $-1 $125 forward single #
loop $-1 $126 $127 $49 #
cone-surface $-1 -70.517230075231865 -7.9325578225094304 9.263178387459206 0.79863551827123203 0 -0.60181501223851219 0.45136125917888414 0 0.59897663870342399 1 I I -0.70710678118654757 0.70710678118654757 0.75 forward I I I I #
loop $-1 $-1 $128 $35 #
coedge $-1 $80 $80 $129 $130 reversed $50 $-1 #
face $-1 $-1 $131 $28 $-1 $132 forward single #
loop $-1 $133 $134 $52 #
cone-surface $-1 -70.517230075231865 -1.4971341622757564 9.263178387459206 0.79863551827123203 0 -0.60181501223851219 0.45136125917888414 0 0.59897663870342399 1 I I -0.70710678118654757 0.70710678118654757 0.75 forward I I I I #
loop $-1 $-1 $135 $36 #
coedge $-1 $85 $85 $136 $137 reversed $53 $-1 #
face $-1 $138 $139 $29 $-1 $140 reversed single #
loop $-1 $-1 $141 $55 #
plane-surface $-1 -77.803888058107248 15.638415028656091 8.4435653125106427 -0.79863551827123203 0 0.60181501223851219 0.60181501223851219 0 0.79863551827123203 forward_v I I I I #
coedge $-1 $142 $143 $144 $145 reversed $56 $-1 #
face $-1 $-1 $146 $30 $-1 $147 forward single #
loop $-1 $148 $149 $58 #
cone-surface $-1 -70.517230075231865 12.420703198539258 9.263178387459206 0.79863551827123203 0 -0.60181501223851219 0.45136125917888414 0 0.59897663870342399 1 I I -0.70710678118654757 0.70710678118654757 0.75 forward I I I I #
loop $-1 $-1 $150 $38 #
coedge $-1 $94 $94 $151 $152 reversed $59 $-1 #
face $-1 $-1 $153 $31 $-1 $154 forward single #
loop $-1 $155 $156 $61 #
cone-surface $-1 -70.517230075231865 18.856126858772939 9.263178387459206 0.79863551827123203 0 -0.60181501223851219 0.45136125917888414 0 0.59897663870342399 1 I I -0.70710678118654757 0.70710678118654757 0.75 forward I I I I #
loop $-1 $-1 $157 $39 #
coedge $-1 $99 $99 $158 $159 reversed $62 $-1 #
face $-1 $160 $161 $24 $-1 $162 reversed single #
loop $-1 $-1 $163 $64 #
plane-surface $-1 0 0 -16.493479545212452 0 0 1 1 0 0 forward_v I I I I #
coedge $-1 $164 $165 $166 $167 forward $65 $-1 #
coedge $-1 $168 $67 $169 $170 reversed $41 $-1 #
coedge $-1 $67 $168 $171 $172 forward $41 $-1 #
coedge $-1 $173 $163 $67 $107 forward $101 $-1 #
edge $-1 $174 -77.803888058107248 $175 77.803888058107248 $67 $176 forward 7 unknown #
face $-1 $177 $178 $25 $-1 $179 reversed single #
loop $-1 $-1 $180 $68 #
plane-surface $-1 -49.386348138295588 -58.01145941622886 0 0 1 0 0 0 1 forward_v I I I I #
coedge $-1 $181 $182 $113 $183 forward $69 $-1 #
coedge $-1 $184 $71 $185 $186 reversed $44 $-1 #
coedge $-1 $71 $184 $111 $183 reversed $44 $-1 #
coedge $-1 $187 $188 $71 $115 reversed $178 $-1 #
edge $-1 $189 -16.493479545212452 $190 16.493479545212452 $114 $191 forward 7 unknown #
face $-1 $192 $193 $26 $-1 $194 reversed single #
loop $-1 $-1 $195 $72 #
plane-surface $-1 -202.07778498371405 2.7931482778800181 102.09066100029793 0 -1 0 0.79863551827123203 0 -0.60181501223851219 forward_v I I I I #
coedge $-1 $196 $197 $198 $199 reversed $73 $-1 #
coedge $-1 $121 $75 $200 $201 reversed $47 $-1 #
coedge $-1 $75 $120 $196 $202 reversed $47 $-1 #
coedge $-1 $198 $203 $75 $123 forward $204 $-1 #
edge $-1 $205 23.235004433749779 $206 29.301049734313423 $122 $207 forward 7 unknown #
loop $-1 $-1 $129 $76 #
plane-surface $-1 -77.803888058107248 -4.7148459923925969 8.4435653125106427 -0.79863551827123203 0 0.60181501223851219 0.60181501223851219 0 0.79863551827123203 forward_v I I I I #
loop $-1 $-1 $208 $49 #
coedge $-1 $127 $127 $128 $209 reversed $77 $-1 #
coedge $-1 $128 $128 $127 $209 forward $79 $-1 #
coedge $-1 $129 $129 $80 $130 forward $124 $-1 #
edge $-1 $210 0 $210 6.2831853071796004 $129 $211 forward 7 unknown #
loop $-1 $-1 $136 $81 #
plane-surface $-1 -77.803888058107248 -4.7148459923925969 8.4435653125106427 -0.79863551827123203 0 0.60181501223851219 0.60181501223851219 0 0.79863551827123203 forward_v I I I I #
loop $-1 $-1 $212 $52 #
coedge $-1 $134 $134 $135 $213 reversed $82 $-1 #
coedge $-1 $135 $135 $134 $213 forward $84 $-1 #
coedge $-1 $136 $136 $85 $137 forward $131 $-1 #
edge $-1 $214 0 $214 6.2831853071796004 $136 $215 forward 7 unknown #
face $-1 $216 $217 $29 $-1 $218 forward single #
loop $-1 $-1 $219 $86 #
plane-surface $-1 -202.07778498371405 23.146409298928706 102.09066100029793 0 -1 0 0.79863551827123203 0 -0.60181501223851219 forward_v I I I I #
coedge $-1 $220 $221 $222 $223 reversed $87 $-1 #
coedge $-1 $143 $89 $224 $225 reversed $56 $-1 #
coedge $-1 $89 $142 $220 $226 reversed $56 $-1 #
coedge $-1 $222 $227 $89 $145 forward $217 $-1 #
edge $-1 $228 23.235004433749779 $229 29.301049734313423 $144 $230 forward 7 unknown #
loop $-1 $-1 $151 $90 #
plane-surface $-1 -77.803888058107248 15.638415028656091 8.4435653125106427 -0.79863551827123203 0 0.60181501223851219 0.60181501223851219 0 0.79863551827123203 forward_v I I I I #
loop $-1 $-1 $231 $58 #
coedge $-1 $149 $149 $150 $232 reversed $91 $-1 #
coedge $-1 $150 $150 $149 $232 forward $93 $-1 #
coedge $-1 $151 $151 $94 $152 forward $146 $-1 #
edge $-1 $233 0 $233 6.2831853071796004 $151 $234 forward 7 unknown #
loop $-1 $-1 $158 $95 #
plane-surface $-1 -77.803888058107248 15.638415028656091 8.4435653125106427 -0.79863551827123203 0 0.60181501223851219 0.60181501223851219 0 0.79863551827123203 forward_v I I I I #
loop $-1 $-1 $235 $61 #
coedge $-1 $156 $156 $157 $236 reversed $96 $-1 #
coedge $-1 $157 $157 $156 $236 forward $98 $-1 #
coedge $-1 $158 $158 $99 $159 forward $153 $-1 #
edge $-1 $237 0 $237 6.2831853071796004 $158 $238 forward 7 unknown #
face $-1 $239 $240 $24 $-1 $241 reversed single #
loop $-1 $-1 $242 $100 #
plane-surface $-1 -77.803888058107248 0 0 1 0 0 0 0 -1 forward_v I I I I #
coedge $-1 $106 $243 $244 $245 forward $101 $-1 #
coedge $-1 $246 $103 $247 $248 forward $65 $-1 #
coedge $-1 $103 $246 $168 $249 forward $65 $-1 #
coedge $-1 $169 $250 $103 $167 reversed $251 $-1 #
edge $-1 $252 -47.087890379965359 $253 47.087890379965359 $166 $254 forward 7 unknown #
coedge $-1 $105 $104 $165 $249 reversed $41 $-1 #
coedge $-1 $244 $166 $104 $170 forward $251 $-1 #
edge $-1 $252 -16.493479545212452 $174 16.493479545212452 $169 $255 forward 7 unknown #
coedge $-1 $256 $257 $105 $172 reversed $161 $-1 #
edge $-1 $258 -16.493479545212452 $175 16.493479545212452 $171 $259 forward 7 unknown #
coedge $-1 $243 $106 $257 $260 forward $101 $-1 #
vertex $-1 $170 $261 #
vertex $-1 $260 $262 #
straight-curve $-1 0 -47.087890379965359 -16.493479545212452 -1 0 0 I I #
face $-1 $263 $264 $25 $-1 $265 reversed single #
loop $-1 $-1 $114 $108 #
plane-surface $-1 -53.955767308908833 -52.549674898097109 0 1 0 0 0 0 -1 forward_v I I I I #
coedge $-1 $266 $267 $268 $269 forward $109 $-1 #
coedge $-1 $270 $111 $271 $272 forward $69 $-1 #
coedge $-1 $111 $270 $187 $273 forward $69 $-1 #
edge $-1 $189 -53.955767308908833 $274 -44.816928967682344 $111 $275 forward 7 unknown #
coedge $-1 $113 $112 $276 $277 forward $44 $-1 #
coedge $-1 $278 $279 $112 $186 forward $280 $-1 #
edge $-1 $281 44.816928967682344 $190 53.955767308908833 $185 $282 forward 7 unknown #
coedge $-1 $268 $114 $182 $273 reversed $178 $-1 #
coedge $-1 $114 $268 $278 $283 reversed $178 $-1 #
vertex $-1 $183 $284 #
vertex $-1 $283 $285 #
straight-curve $-1 -53.955767308908833 -47.087890379965359 0 0 0 1 I I #
face $-1 $-1 $204 $26 $-1 $286 forward single #
loop $-1 $-1 $287 $116 #
plane-surface $-1 -77.803888058107248 0 0 1 0 0 0 0 -1 forward_v I I I I #
coedge $-1 $288 $289 $290 $291 reversed $117 $-1 #
coedge $-1 $292 $119 $121 $202 forward $73 $-1 #
coedge $-1 $119 $292 $288 $293 forward $73 $-1 #
coedge $-1 $290 $122 $119 $199 forward $204 $-1 #
edge $-1 $206 -9.8654172664689135 $294 5.1505712740763165 $198 $295 forward 7 unknown #
coedge $-1 $296 $297 $120 $201 forward $193 $-1 #
edge $-1 $298 -42.601765187638321 $205 -34.551850954936512 $200 $299 forward 7 unknown #
edge $-1 $206 -10.079584552070855 $298 0 $121 $300 forward 7 unknown #
coedge $-1 $122 $290 $296 $301 forward $204 $-1 #
loop $-1 $-1 $290 $192 #
vertex $-1 $201 $302 #
vertex $-1 $123 $303 #
straight-curve $-1 -101.03889249185703 -12.222840262665212 16.493479545212452 1 0 0 I I #
coedge $-1 $208 $208 $-1 $304 reversed $126 $-1 #
edge $-1 $305 0 $305 6.2831853071796004 $127 $306 forward 7 unknown #
vertex $-1 $130 $307 #
ellipse-curve $-1 -74.770865407825426 -7.9325578225094304 12.468522428861544 -0.79863551827123203 0 0.60181501223851219 0.90272251835776829 0 1.197953277406848 1 I I #
coedge $-1 $212 $212 $-1 $308 reversed $133 $-1 #
edge $-1 $309 0 $309 6.2831853071796004 $134 $310 forward 7 unknown #
vertex $-1 $137 $311 #
ellipse-curve $-1 -74.770865407825426 -1.4971341622757564 12.468522428861544 -0.79863551827123203 0 0.60181501223851219 0.90272251835776829 0 1.197953277406848 1 I I #
face $-1 $-1 $312 $29 $-1 $313 reversed single #
loop $-1 $-1 $144 $138 #
plane-surface $-1 0 0 16.493479545212452 0 0 1 1 0 0 forward_v I I I I #
coedge $-1 $314 $315 $316 $317 reversed $139 $-1 #
coedge $-1 $318 $141 $143 $226 forward $87 $-1 #
coedge $-1 $141 $318 $314 $319 forward $87 $-1 #
coedge $-1 $316 $144 $141 $223 forward $217 $-1 #
edge $-1 $229 0.31121324405543049 $320 15.327201784600661 $222 $321 forward 7 unknown #
coedge $-1 $322 $323 $142 $225 forward $312 $-1 #
edge $-1 $324 -42.601765187638321 $228 -34.551850954936512 $224 $325 forward 7 unknown #
edge $-1 $229 -10.079584552070855 $324 0 $143 $326 forward 7 unknown #
coedge $-1 $144 $316 $322 $327 forward $217 $-1 #
vertex $-1 $145 $328 #
vertex $-1 $145 $329 #
straight-curve $-1 -101.03889249185703 8.130420758383476 16.493479545212452 1 0 0 I I #
coedge $-1 $231 $231 $-1 $330 reversed $148 $-1 #
edge $-1 $331 0 $331 6.2831853071796004 $149 $332 forward 7 unknown #
vertex $-1 $152 $333 #
ellipse-curve $-1 -74.770865407825426 12.420703198539258 12.468522428861544 -0.79863551827123203 0 0.60181501223851219 0.90272251835776829 0 1.197953277406848 1 I I #
coedge $-1 $235 $235 $-1 $334 reversed $155 $-1 #
edge $-1 $335 0 $335 6.2831853071796004 $156 $336 forward 7 unknown #
vertex $-1 $159 $337 #
ellipse-curve $-1 -74.770865407825426 18.856126858772939 12.468522428861544 -0.79863551827123203 0 0.60181501223851219 0.90272251835776829 0 1.197953277406848 1 I I #
face $-1 $-1 $251 $24 $-1 $338 reversed single #
loop $-1 $-1 $339 $160 #
plane-surface $-1 0 47.087890379965359 0 0 -1 0 0 0 -1 forward_v I I I I #
coedge $-1 $257 $256 $340 $341 forward $161 $-1 #
coedge $-1 $163 $173 $342 $343 forward $101 $-1 #
coedge $-1 $250 $169 $163 $245 reversed $251 $-1 #
edge $-1 $344 -47.087890379965359 $174 47.087890379965359 $244 $345 forward 7 unknown #
coedge $-1 $165 $164 $256 $346 forward $65 $-1 #
coedge $-1 $339 $340 $164 $248 reversed $240 $-1 #
edge $-1 $253 -77.803888058107248 $347 77.803888058107248 $247 $348 forward 7 unknown #
edge $-1 $258 -77.803888058107248 $252 77.803888058107248 $168 $349 forward 7 unknown #
coedge $-1 $166 $244 $339 $350 reversed $251 $-1 #
loop $-1 $-1 $169 $239 #
vertex $-1 $167 $351 #
vertex $-1 $167 $352 #
straight-curve $-1 77.803888058107248 0 16.493479545212452 0 1 0 I I #
straight-curve $-1 77.803888058107248 -47.087890379965359 0 0 0 -1 I I #
coedge $-1 $242 $171 $246 $346 reversed $161 $-1 #
coedge $-1 $171 $242 $173 $260 reversed $161 $-1 #
vertex $-1 $346 $353 #
straight-curve $-1 -77.803888058107248 -47.087890379965359 0 0 0 -1 I I #
edge $-1 $175 -47.087890379965359 $354 47.087890379965359 $257 $355 forward 7 unknown #
point $-1 77.803888058107248 -47.087890379965359 -16.493479545212452 #
point $-1 -77.803888058107248 -47.087890379965359 -16.493479545212452 #
face $-1 $-1 $280 $25 $-1 $356 forward single #
loop $-1 $-1 $357 $177 #
plane-surface $-1 -44.816928967682344 -52.549674898097109 0 -1 0 0 0 0 1 forward_v I I I I #
coedge $-1 $358 $180 $270 $359 reversed $109 $-1 #
coedge $-1 $180 $358 $360 $361 reversed $109 $-1 #
coedge $-1 $188 $187 $180 $269 reversed $178 $-1 #
edge $-1 $362 -16.493479545212452 $363 16.493479545212452 $268 $364 forward 7 unknown #
coedge $-1 $182 $181 $266 $359 forward $69 $-1 #
coedge $-1 $276 $357 $181 $272 reversed $264 $-1 #
edge $-1 $274 -5.4617845181317506 $365 5.4617845181317506 $271 $366 forward 7 unknown #
edge $-1 $363 -5.4617845181317506 $189 5.4617845181317506 $187 $367 forward 7 unknown #
vertex $-1 $272 $368 #
straight-curve $-1 0 -47.087890379965359 -16.493479545212452 1 0 0 I I #
coedge $-1 $369 $271 $184 $277 reversed $264 $-1 #
edge $-1 $281 -16.493479545212452 $274 16.493479545212452 $276 $370 forward 7 unknown #
coedge $-1 $360 $185 $188 $283 forward $280 $-1 #
coedge $-1 $185 $360 $369 $371 forward $280 $-1 #
loop $-1 $-1 $185 $263 #
vertex $-1 $186 $372 #
straight-curve $-1 0 -47.087890379965359 16.493479545212452 -1 0 0 I I #
edge $-1 $190 -5.4617845181317506 $362 5.4617845181317506 $188 $373 forward 7 unknown #
point $-1 -53.955767308908833 -47.087890379965359 -16.493479545212452 #
point $-1 -53.955767308908833 -47.087890379965359 16.493479545212452 #
plane-surface $-1 0 0 16.493479545212452 0 0 1 1 0 0 forward_v I I I I #
coedge $-1 $297 $296 $289 $374 forward $193 $-1 #
coedge $-1 $289 $195 $197 $293 reversed $117 $-1 #
coedge $-1 $195 $288 $287 $374 reversed $117 $-1 #
coedge $-1 $203 $198 $195 $291 forward $204 $-1 #
edge $-1 $294 -29.301049734313423 $375 -23.235004433749779 $290 $376 forward 7 unknown #
coedge $-1 $197 $196 $297 $377 reversed $73 $-1 #
edge $-1 $378 0 $294 10.079584552070855 $288 $379 forward 7 unknown #
vertex $-1 $199 $380 #
straight-curve $-1 -71.737842757543604 -2.3574229961962985 16.493479545212452 0 1 0 I I #
coedge $-1 $287 $200 $203 $301 reversed $193 $-1 #
coedge $-1 $200 $287 $292 $377 forward $193 $-1 #
vertex $-1 $201 $381 #
straight-curve $-1 -77.803888058107248 -12.222840262665212 51.045330500148964 0 0 1 I I #
straight-curve $-1 -77.803888058107248 -12.222840262665212 8.4435653125106427 -0.60181501223851219 0 -0.79863551827123203 I I #
edge $-1 $375 -2.7931482778800181 $205 12.222840262665212 $296 $382 forward 7 unknown #
point $-1 -77.803888058107248 -12.222840262665212 16.493479545212452 #
point $-1 -71.737842757543604 -12.222840262665212 16.493479545212452 #
edge $-1 $383 1 $383 0 $208 $-1 forward 7 unknown #
vertex $-1 $209 $384 #
ellipse-curve $-1 -71.116206713935284 -7.9325578225094304 9.7145396466380909 -0.79863551827123203 0 0.60181501223851219 0.90272251835776829 0 1.197953277406848 1 I I #
point $-1 -73.868142889467663 -7.9325578225094304 13.666475706268393 #
edge $-1 $385 1 $385 0 $212 $-1 forward 7 unknown #
vertex $-1 $213 $386 #
ellipse-curve $-1 -71.116206713935284 -1.4971341622757564 9.7145396466380909 -0.79863551827123203 0 0.60181501223851219 0.90272251835776829 0 1.197953277406848 1 I I #
point $-1 -73.868142889467663 -1.4971341622757564 13.666475706268393 #
loop $-1 $-1 $224 $216 #
plane-surface $-1 -77.803888058107248 0 0 1 0 0 0 0 -1 forward_v I I I I #
coedge $-1 $315 $219 $221 $319 reversed $139 $-1 #
coedge $-1 $219 $314 $387 $388 reversed $139 $-1 #
coedge $-1 $227 $222 $219 $317 forward $217 $-1 #
edge $-1 $320 -29.301049734313423 $389 -23.235004433749779 $316 $390 forward 7 unknown #
coedge $-1 $221 $220 $323 $391 reversed $87 $-1 #
edge $-1 $392 0 $320 10.079584552070855 $314 $393 forward 7 unknown #
vertex $-1 $223 $394 #
straight-curve $-1 -71.737842757543604 7.8192075143280455 16.493479545212452 0 1 0 I I #
coedge $-1 $387 $224 $227 $327 reversed $312 $-1 #
coedge $-1 $224 $387 $318 $391 forward $312 $-1 #
vertex $-1 $225 $395 #
straight-curve $-1 -77.803888058107248 8.130420758383476 51.045330500148964 0 0 1 I I #
straight-curve $-1 -77.803888058107248 8.130420758383476 8.4435653125106427 -0.60181501223851219 0 -0.79863551827123203 I I #
edge $-1 $389 -23.146409298928706 $228 -8.130420758383476 $322 $396 forward 7 unknown #
point $-1 -77.803888058107248 8.130420758383476 16.493479545212452 #
point $-1 -71.737842757543604 8.130420758383476 16.493479545212452 #
edge $-1 $397 1 $397 0 $231 $-1 forward 7 unknown #
vertex $-1 $232 $398 #
ellipse-curve $-1 -71.116206713935284 12.420703198539258 9.7145396466380909 -0.79863551827123203 0 0.60181501223851219 0.90272251835776829 0 1.197953277406848 1 I I #
point $-1 -73.868142889467663 12.420703198539258 13.666475706268393 #
edge $-1 $399 1 $399 0 $235 $-1 forward 7 unknown #
vertex $-1 $236 $400 #
ellipse-curve $-1 -71.116206713935284 18.856126858772939 9.7145396466380909 -0.79863551827123203 0 0.60181501223851219 0.90272251835776829 0 1.197953277406848 1 I I #
point $-1 -73.868142889467663 18.856126858772939 13.666475706268393 #
plane-surface $-1 77.803888058107248 0 0 -1 0 0 0 0 1 forward_v I I I I #
coedge $-1 $342 $247 $250 $350 forward $240 $-1 #
coedge $-1 $247 $342 $242 $341 reversed $240 $-1 #
edge $-1 $347 -16.493479545212452 $354 16.493479545212452 $340 $401 forward 7 unknown #
coedge $-1 $340 $339 $243 $343 reversed $240 $-1 #
edge $-1 $354 -77.803888058107248 $344 77.803888058107248 $342 $402 forward 7 unknown #
vertex $-1 $245 $403 #
straight-curve $-1 77.803888058107248 0 -16.493479545212452 0 -1 0 I I #
edge $-1 $347 -47.087890379965359 $258 47.087890379965359 $256 $404 forward 7 unknown #
vertex $-1 $248 $405 #
straight-curve $-1 0 47.087890379965359 16.493479545212452 -1 0 0 I I #
straight-curve $-1 0 -47.087890379965359 16.493479545212452 1 0 0 I I #
edge $-1 $253 -16.493479545212452 $344 16.493479545212452 $250 $406 forward 7 unknown #
point $-1 77.803888058107248 -47.087890379965359 16.493479545212452 #
point $-1 77.803888058107248 47.087890379965359 16.493479545212452 #
point $-1 -77.803888058107248 -47.087890379965359 16.493479545212452 #
vertex $-1 $343 $407 #
straight-curve $-1 -77.803888058107248 0 -16.493479545212452 0 1 0 I I #
plane-surface $-1 0 0 16.493479545212452 0 0 1 1 0 0 forward_v I I I I #
coedge $-1 $271 $369 $358 $408 forward $264 $-1 #
coedge $-1 $267 $266 $357 $408 reversed $109 $-1 #
edge $-1 $365 -4.5694191706132443 $363 4.5694191706132443 $266 $409 forward 7 unknown #
coedge $-1 $279 $278 $267 $361 forward $280 $-1 #
edge $-1 $362 -4.5694191706132443 $410 4.5694191706132443 $267 $411 forward 7 unknown #
vertex $-1 $283 $412 #
vertex $-1 $273 $413 #
straight-curve $-1 -53.955767308908833 -58.01145941622886 0 0 0 -1 I I #
vertex $-1 $408 $414 #
straight-curve $-1 -44.816928967682344 -52.549674898097109 -16.493479545212452 0 -1 0 I I #
straight-curve $-1 -53.955767308908833 -52.549674898097109 -16.493479545212452 0 1 0 I I #
point $-1 -44.816928967682344 -47.087890379965359 -16.493479545212452 #
coedge $-1 $357 $276 $279 $371 reversed $264 $-1 #
straight-curve $-1 -44.816928967682344 -47.087890379965359 0 0 0 -1 I I #
edge $-1 $410 -5.4617845181317506 $281 5.4617845181317506 $369 $415 forward 7 unknown #
point $-1 -44.816928967682344 -47.087890379965359 16.493479545212452 #
straight-curve $-1 -53.955767308908833 -52.549674898097109 16.493479545212452 0 -1 0 I I #
edge $-1 $375 34.551850954936512 $378 42.601765187638321 $287 $416 forward 7 unknown #
vertex $-1 $301 $417 #
straight-curve $-1 -101.03889249185703 2.7931482778800181 16.493479545212452 -1 0 0 I I #
edge $-1 $378 -5.1505712740763165 $298 9.8654172664689135 $297 $418 forward 7 unknown #
vertex $-1 $377 $419 #
straight-curve $-1 -77.803888058107248 2.7931482778800181 8.4435653125106427 0.60181501223851219 0 0.79863551827123203 I I #
point $-1 -71.737842757543604 2.7931482778800181 16.493479545212452 #
point $-1 -77.803888058107248 -12.222840262665212 8.4435653125106427 #
straight-curve $-1 -77.803888058107248 0 16.493479545212452 0 -1 0 I I #
vertex $-1 $304 $420 #
point $-1 -70.213484195577522 -7.9325578225094304 10.912492924044939 #
vertex $-1 $308 $421 #
point $-1 -70.213484195577522 -1.4971341622757564 10.912492924044939 #
coedge $-1 $323 $322 $315 $388 forward $312 $-1 #
edge $-1 $389 34.551850954936512 $392 42.601765187638321 $387 $422 forward 7 unknown #
vertex $-1 $327 $423 #
straight-curve $-1 -101.03889249185703 23.146409298928706 16.493479545212452 -1 0 0 I I #
edge $-1 $392 -15.327201784600661 $324 -0.31121324405543049 $323 $424 forward 7 unknown #
vertex $-1 $391 $425 #
straight-curve $-1 -77.803888058107248 23.146409298928706 8.4435653125106427 0.60181501223851219 0 0.79863551827123203 I I #
point $-1 -71.737842757543604 23.146409298928706 16.493479545212452 #
point $-1 -77.803888058107248 8.130420758383476 8.4435653125106427 #
straight-curve $-1 -77.803888058107248 0 16.493479545212452 0 -1 0 I I #
vertex $-1 $330 $426 #
point $-1 -70.213484195577522 12.420703198539258 10.912492924044939 #
vertex $-1 $334 $427 #
point $-1 -70.213484195577522 18.856126858772939 10.912492924044939 #
straight-curve $-1 -77.803888058107248 47.087890379965359 0 0 0 -1 I I #
straight-curve $-1 0 47.087890379965359 -16.493479545212452 1 0 0 I I #
point $-1 77.803888058107248 47.087890379965359 -16.493479545212452 #
straight-curve $-1 -77.803888058107248 0 16.493479545212452 0 -1 0 I I #
point $-1 -77.803888058107248 47.087890379965359 16.493479545212452 #
straight-curve $-1 77.803888058107248 47.087890379965359 0 0 0 -1 I I #
point $-1 -77.803888058107248 47.087890379965359 -16.493479545212452 #
edge $-1 $410 -16.493479545212452 $365 16.493479545212452 $357 $428 forward 7 unknown #
straight-curve $-1 -49.386348138295588 -58.01145941622886 -16.493479545212452 -1 0 0 I I #
vertex $-1 $371 $429 #
straight-curve $-1 -49.386348138295588 -58.01145941622886 16.493479545212452 1 0 0 I I #
point $-1 -53.955767308908833 -58.01145941622886 16.493479545212452 #
point $-1 -53.955767308908833 -58.01145941622886 -16.493479545212452 #
point $-1 -44.816928967682344 -58.01145941622886 -16.493479545212452 #
straight-curve $-1 -44.816928967682344 -52.549674898097109 16.493479545212452 0 1 0 I I #
straight-curve $-1 -77.803888058107248 2.7931482778800181 51.045330500148964 0 0 -1 I I #
point $-1 -77.803888058107248 2.7931482778800181 16.493479545212452 #
straight-curve $-1 -77.803888058107248 -2.3574229961962985 8.4435653125106427 0 -1 0 I I #
point $-1 -77.803888058107248 2.7931482778800181 8.4435653125106427 #
point $-1 -69.918253436528445 -7.9325578225094304 8.811817128280321 #
point $-1 -69.918253436528445 -1.4971341622757564 8.811817128280321 #
straight-curve $-1 -77.803888058107248 23.146409298928706 51.045330500148964 0 0 -1 I I #
point $-1 -77.803888058107248 23.146409298928706 16.493479545212452 #
straight-curve $-1 -77.803888058107248 7.8192075143280455 8.4435653125106427 0 -1 0 I I #
point $-1 -77.803888058107248 23.146409298928706 8.4435653125106427 #
point $-1 -69.918253436528445 12.420703198539258 8.811817128280321 #
point $-1 -69.918253436528445 18.856126858772939 8.811817128280321 #
straight-curve $-1 -44.816928967682344 -58.01145941622886 0 0 0 -1 I I #
point $-1 -44.816928967682344 -58.01145941622886 16.493479545212452 #
End-of-ACIS-data 