500 0 4 0           
7 Unknown 11 ACIS 5.0 NT 24 Thu Mar 25 23:29:49 1999 
-1 9.9999999999999995e-007 1e-010 
body $-1 $4 $-1 $5 #
body $-1 $6 $-1 $7 #
body $-1 $8 $-1 $9 #
body $-1 $10 $-1 $11 #
lump $-1 $-1 $12 $0 #
transform $-1 1 0 0 0 1 0 0 0 1 44.843897824030272 26.468807210475706 5.6594473158151146 1 rotate no_reflect no_shear #
lump $-1 $-1 $13 $1 #
transform $-1 1 0 0 0 1 0 0 0 1 44.843897824030272 26.468807210475706 5.6594473158151146 1 rotate no_reflect no_shear #
lump $-1 $-1 $14 $2 #
transform $-1 1 0 0 0 1 0 0 0 1 44.843897824030272 26.468807210475706 5.6594473158151146 1 rotate no_reflect no_shear #
lump $-1 $-1 $15 $3 #
transform $-1 1 0 0 0 1 0 0 0 1 44.843897824030272 26.468807210475706 5.6594473158151146 1 rotate no_reflect no_shear #
shell $-1 $-1 $-1 $16 $-1 $4 #
shell $-1 $-1 $-1 $17 $-1 $6 #
shell $-1 $-1 $-1 $18 $-1 $8 #
shell $-1 $-1 $-1 $19 $-1 $10 #
face $-1 $20 $21 $12 $-1 $22 forward single #
face $-1 $23 $24 $13 $-1 $25 reversed single #
face $-1 $26 $27 $14 $-1 $28 forward single #
face $-1 $29 $30 $15 $-1 $31 forward single #
face $-1 $32 $33 $12 $-1 $34 reversed single #
loop $-1 $-1 $35 $16 #
plane-surface $-1 0 0 5.6594473158151146 0 0 1 1 0 0 forward_v I I I I #
face $-1 $36 $37 $13 $-1 $38 reversed single #
loop $-1 $-1 $39 $17 #
plane-surface $-1 -104.85674763077351 19.969420423637462 67.066653081532351 0 1 0 -0.66913061440640931 0 0.74314481823134659 forward_v I I I I #
face $-1 $40 $41 $14 $-1 $42 forward single #
loop $-1 $43 $44 $18 #
cone-surface $-1 -41.597409393123463 21.826388077019818 2.6659674923340031 0.66913061440640931 0 -0.74314481823134659 0.3715724091156733 0 0.33456530720320465 1 I I 0 1 0.5 forward I I I I #
face $-1 $45 $46 $15 $-1 $47 forward single #
loop $-1 $48 $49 $19 #
cone-surface $-1 -41.597409393123463 24.611839557093351 2.6659674923340031 0.66913061440640931 0 -0.74314481823134659 0.3715724091156733 0 0.33456530720320465 1 I I 0 1 0.5 forward I I I I #
face $-1 $50 $51 $12 $-1 $52 reversed single #
loop $-1 $-1 $53 $20 #
plane-surface $-1 0 0 -5.6594473158151146 0 0 1 1 0 0 forward_v I I I I #
coedge $-1 $54 $55 $56 $57 forward $21 $-1 #
face $-1 $58 $59 $13 $-1 $60 forward single #
loop $-1 $-1 $61 $23 #
plane-surface $-1 -44.843897824030279 23.219113817056584 0.41563248708423828 -0.66913061440640931 0 0.74314481823134659 0.74314481823134659 0 0.66913061440640931 forward_v I I I I #
coedge $-1 $62 $63 $64 $65 reversed $24 $-1 #
face $-1 $-1 $66 $14 $-1 $67 forward single #
loop $-1 $68 $69 $26 #
cone-surface $-1 -41.095561432318654 21.826388077019818 2.1086088786604931 0.66913061440640931 0 -0.74314481823134659 0.18578620455783665 0 0.16728265360160233 1 I I -0.70710678118654746 0.70710678118654746 0.25 forward I I I I #
loop $-1 $-1 $70 $18 #
coedge $-1 $44 $44 $71 $72 reversed $27 $-1 #
face $-1 $-1 $73 $15 $-1 $74 forward single #
loop $-1 $75 $76 $29 #
cone-surface $-1 -41.095561432318654 24.611839557093351 2.1086088786604931 0.66913061440640931 0 -0.74314481823134659 0.18578620455783665 0 0.16728265360160233 1 I I -0.70710678118654746 0.70710678118654746 0.25 forward I I I I #
loop $-1 $-1 $77 $19 #
coedge $-1 $49 $49 $78 $79 reversed $30 $-1 #
face $-1 $80 $81 $12 $-1 $82 reversed single #
loop $-1 $-1 $83 $32 #
plane-surface $-1 0 -26.468807210475706 0 0 1 0 0 0 1 forward_v I I I I #
coedge $-1 $84 $85 $86 $87 forward $33 $-1 #
coedge $-1 $88 $35 $89 $90 forward $21 $-1 #
coedge $-1 $35 $88 $91 $92 forward $21 $-1 #
coedge $-1 $93 $94 $35 $57 reversed $95 $-1 #
edge $-1 $96 -26.468807210475706 $97 26.468807210475706 $56 $98 forward 7 unknown #
face $-1 $99 $100 $13 $-1 $101 reversed single #
loop $-1 $-1 $64 $36 #
plane-surface $-1 0 0 5.6594473158151146 0 0 1 1 0 0 forward_v I I I I #
coedge $-1 $102 $103 $104 $105 reversed $37 $-1 #
coedge $-1 $63 $39 $106 $107 reversed $24 $-1 #
coedge $-1 $39 $62 $102 $108 reversed $24 $-1 #
coedge $-1 $104 $109 $39 $65 forward $59 $-1 #
edge $-1 $110 7.5844759913564843 $111 13.408322238763688 $64 $112 forward 7 unknown #
loop $-1 $-1 $71 $40 #
plane-surface $-1 -44.843897824030279 23.219113817056584 0.41563248708423828 -0.66913061440640931 0 0.74314481823134659 0.74314481823134659 0 0.66913061440640931 forward_v I I I I #
loop $-1 $-1 $113 $26 #
coedge $-1 $69 $69 $70 $114 reversed $41 $-1 #
coedge $-1 $70 $70 $69 $114 forward $43 $-1 #
coedge $-1 $71 $71 $44 $72 forward $66 $-1 #
edge $-1 $115 0 $115 6.2831853071796004 $71 $116 forward 7 unknown #
loop $-1 $-1 $78 $45 #
plane-surface $-1 -44.843897824030279 23.219113817056584 0.41563248708423828 -0.66913061440640931 0 0.74314481823134659 0.74314481823134659 0 0.66913061440640931 forward_v I I I I #
loop $-1 $-1 $117 $29 #
coedge $-1 $76 $76 $77 $118 reversed $46 $-1 #
coedge $-1 $77 $77 $76 $118 forward $48 $-1 #
coedge $-1 $78 $78 $49 $79 forward $73 $-1 #
edge $-1 $119 0 $119 6.2831853071796004 $78 $120 forward 7 unknown #
face $-1 $121 $122 $12 $-1 $123 reversed single #
loop $-1 $-1 $124 $50 #
plane-surface $-1 -44.843897824030272 0 0 1 0 0 0 0 -1 forward_v I I I I #
coedge $-1 $125 $91 $126 $127 forward $51 $-1 #
coedge $-1 $128 $53 $125 $129 forward $33 $-1 #
coedge $-1 $53 $128 $130 $131 forward $33 $-1 #
coedge $-1 $94 $93 $53 $87 reversed $95 $-1 #
edge $-1 $132 -26.468807210475706 $133 26.468807210475706 $86 $134 forward 7 unknown #
coedge $-1 $55 $54 $135 $136 forward $21 $-1 #
coedge $-1 $137 $138 $54 $90 reversed $122 $-1 #
edge $-1 $97 -44.843897824030272 $139 44.843897824030272 $89 $140 forward 7 unknown #
coedge $-1 $83 $141 $55 $92 reversed $51 $-1 #
edge $-1 $142 -44.843897824030272 $96 44.843897824030272 $91 $143 forward 7 unknown #
coedge $-1 $86 $56 $141 $144 forward $95 $-1 #
coedge $-1 $56 $86 $137 $145 reversed $95 $-1 #
loop $-1 $-1 $93 $121 #
vertex $-1 $57 $146 #
vertex $-1 $57 $147 #
straight-curve $-1 44.843897824030272 0 5.6594473158151146 0 1 0 I I #
face $-1 $-1 $148 $13 $-1 $149 reversed single #
loop $-1 $-1 $150 $58 #
plane-surface $-1 0 26.468807210475706 0 0 -1 0 0 0 -1 forward_v I I I I #
coedge $-1 $151 $61 $63 $108 forward $37 $-1 #
coedge $-1 $61 $151 $150 $152 reversed $37 $-1 #
coedge $-1 $153 $64 $61 $105 forward $59 $-1 #
edge $-1 $111 8.3598635151091703 $154 14.859250301947414 $104 $155 forward 7 unknown #
coedge $-1 $156 $157 $62 $107 forward $148 $-1 #
edge $-1 $158 -33.11769405368193 $110 -27.873879224951061 $106 $159 forward 7 unknown #
edge $-1 $111 -7.8367581991188722 $158 -9.5519457560449789e-015 $63 $160 forward 7 unknown #
coedge $-1 $64 $153 $156 $161 forward $59 $-1 #
vertex $-1 $107 $162 #
vertex $-1 $65 $163 #
straight-curve $-1 -52.428373815386756 19.969420423637462 5.6594473158151146 1 0 0 I I #
coedge $-1 $113 $113 $-1 $164 reversed $68 $-1 #
edge $-1 $165 0 $165 6.2831853071796004 $69 $166 forward 7 unknown #
vertex $-1 $72 $167 #
ellipse-curve $-1 -41.93197470032667 21.826388077019818 3.0375399014496796 -0.66913061440640931 0 0.74314481823134659 0.3715724091156733 0 0.33456530720320465 1 I I #
coedge $-1 $117 $117 $-1 $168 reversed $75 $-1 #
edge $-1 $169 0 $169 6.2831853071796004 $76 $170 forward 7 unknown #
vertex $-1 $79 $171 #
ellipse-curve $-1 -41.93197470032667 24.611839557093351 3.0375399014496796 -0.66913061440640931 0 0.74314481823134659 0.3715724091156733 0 0.33456530720320465 1 I I #
face $-1 $-1 $95 $12 $-1 $172 reversed single #
loop $-1 $-1 $137 $80 #
plane-surface $-1 0 26.468807210475706 0 0 -1 0 0 0 -1 forward_v I I I I #
coedge $-1 $173 $135 $138 $174 forward $81 $-1 #
coedge $-1 $141 $83 $84 $129 reversed $51 $-1 #
coedge $-1 $135 $173 $83 $127 reversed $81 $-1 #
edge $-1 $142 -5.6594473158151146 $175 5.6594473158151146 $126 $176 forward 7 unknown #
coedge $-1 $85 $84 $173 $177 forward $33 $-1 #
edge $-1 $133 -44.843897824030272 $175 44.843897824030272 $125 $178 forward 7 unknown #
coedge $-1 $138 $137 $85 $131 reversed $122 $-1 #
edge $-1 $179 -44.843897824030272 $132 44.843897824030272 $130 $180 forward 7 unknown #
vertex $-1 $87 $181 #
vertex $-1 $144 $182 #
straight-curve $-1 44.843897824030272 0 -5.6594473158151146 0 -1 0 I I #
coedge $-1 $124 $126 $88 $136 reversed $81 $-1 #
edge $-1 $139 -26.468807210475706 $142 26.468807210475706 $135 $183 forward 7 unknown #
coedge $-1 $130 $89 $94 $145 forward $122 $-1 #
coedge $-1 $89 $130 $124 $174 reversed $122 $-1 #
vertex $-1 $90 $184 #
straight-curve $-1 0 26.468807210475706 5.6594473158151146 -1 0 0 I I #
coedge $-1 $91 $125 $93 $144 reversed $51 $-1 #
vertex $-1 $136 $185 #
straight-curve $-1 0 -26.468807210475706 5.6594473158151146 1 0 0 I I #
edge $-1 $96 -5.6594473158151146 $133 5.6594473158151146 $93 $186 forward 7 unknown #
edge $-1 $97 -5.6594473158151146 $132 5.6594473158151146 $94 $187 forward 7 unknown #
point $-1 44.843897824030272 -26.468807210475706 5.6594473158151146 #
point $-1 44.843897824030272 26.468807210475706 5.6594473158151146 #
loop $-1 $-1 $106 $99 #
plane-surface $-1 -44.843897824030272 0 0 1 0 0 0 0 -1 forward_v I I I I #
coedge $-1 $188 $189 $103 $152 forward $100 $-1 #
coedge $-1 $103 $102 $157 $190 reversed $37 $-1 #
edge $-1 $154 8.6869407387681878 $191 16.523698937887051 $150 $192 forward 7 unknown #
coedge $-1 $109 $104 $189 $193 forward $59 $-1 #
vertex $-1 $193 $194 #
straight-curve $-1 -39.020051576623068 11.609556908528292 5.6594473158151137 0 1 0 I I #
coedge $-1 $195 $106 $109 $161 reversed $148 $-1 #
coedge $-1 $106 $195 $151 $190 forward $148 $-1 #
vertex $-1 $107 $196 #
straight-curve $-1 -44.843897824030272 19.969420423637462 33.533326540766176 0 0 1 I I #
straight-curve $-1 -44.843897824030279 19.969420423637462 0.41563248708423828 -0.74314481823134659 0 -0.66913061440640931 I I #
edge $-1 $197 -26.468807210475706 $110 -19.969420423637462 $156 $198 forward 7 unknown #
point $-1 -44.843897824030272 19.969420423637462 5.6594473158151146 #
point $-1 -39.020051576623068 19.969420423637462 5.6594473158151146 #
edge $-1 $199 1 $199 0 $113 $-1 forward 7 unknown #
vertex $-1 $114 $200 #
ellipse-curve $-1 -41.262844085920257 21.826388077019818 2.2943950832183297 -0.66913061440640931 0 0.74314481823134659 0.3715724091156733 0 0.33456530720320465 1 I I #
point $-1 -41.560402291210991 21.826388077019818 3.3721052086528811 #
edge $-1 $201 1 $201 0 $117 $-1 forward 7 unknown #
vertex $-1 $118 $202 #
ellipse-curve $-1 -41.262844085920257 24.611839557093351 2.2943950832183297 -0.66913061440640931 0 0.74314481823134659 0.3715724091156733 0 0.33456530720320465 1 I I #
point $-1 -41.560402291210991 24.611839557093351 3.3721052086528811 #
plane-surface $-1 44.843897824030272 0 0 -1 0 0 0 0 1 forward_v I I I I #
coedge $-1 $126 $124 $128 $177 reversed $81 $-1 #
edge $-1 $139 -5.6594473158151146 $179 5.6594473158151146 $138 $203 forward 7 unknown #
vertex $-1 $177 $204 #
straight-curve $-1 -44.843897824030272 -26.468807210475706 0 0 0 -1 I I #
edge $-1 $175 -26.468807210475706 $179 26.468807210475706 $173 $205 forward 7 unknown #
straight-curve $-1 0 -26.468807210475706 -5.6594473158151146 -1 0 0 I I #
vertex $-1 $131 $206 #
straight-curve $-1 0 26.468807210475706 -5.6594473158151146 1 0 0 I I #
point $-1 44.843897824030272 26.468807210475706 -5.6594473158151146 #
point $-1 44.843897824030272 -26.468807210475706 -5.6594473158151146 #
straight-curve $-1 -44.843897824030272 0 5.6594473158151146 0 -1 0 I I #
point $-1 -44.843897824030272 26.468807210475706 5.6594473158151146 #
point $-1 -44.843897824030272 -26.468807210475706 5.6594473158151146 #
straight-curve $-1 44.843897824030272 -26.468807210475706 0 0 0 -1 I I #
straight-curve $-1 44.843897824030272 26.468807210475706 0 0 0 -1 I I #
coedge $-1 $189 $150 $195 $207 reversed $100 $-1 #
coedge $-1 $150 $188 $153 $193 reversed $100 $-1 #
edge $-1 $191 -14.859250301947414 $158 -8.3598635151091703 $157 $208 forward 7 unknown #
vertex $-1 $152 $209 #
straight-curve $-1 -32.564396580324704 26.468807210475706 11.47214530965914 -0.74314481823134659 0 -0.66913061440640931 I I #
edge $-1 $154 39.020051576623068 $197 44.843897824030272 $189 $210 forward 7 unknown #
point $-1 -39.020051576623068 26.468807210475706 5.6594473158151146 #
coedge $-1 $157 $156 $188 $207 forward $148 $-1 #
point $-1 -44.843897824030272 19.969420423637462 0.41563248708424466 #
vertex $-1 $193 $211 #
straight-curve $-1 -44.843897824030272 0 5.6594473158151146 0 -1 0 I I #
vertex $-1 $164 $212 #
point $-1 -40.891271676804585 21.826388077019818 2.6289603904215344 #
vertex $-1 $168 $213 #
point $-1 -40.891271676804585 24.611839557093351 2.6289603904215344 #
straight-curve $-1 -44.843897824030272 26.468807210475706 0 0 0 -1 I I #
point $-1 -44.843897824030272 -26.468807210475706 -5.6594473158151146 #
straight-curve $-1 -44.843897824030272 0 -5.6594473158151146 0 1 0 I I #
point $-1 -44.843897824030272 26.468807210475706 -5.6594473158151146 #
edge $-1 $197 -5.6594473158151146 $191 -0.41563248708424466 $188 $214 forward 7 unknown #
straight-curve $-1 -44.843897824030272 11.609556908528292 0.41563248708424716 0 -1 0 I I #
point $-1 -44.843897824030272 26.468807210475706 0.41563248708424466 #
straight-curve $-1 0 26.468807210475706 5.6594473158151146 -1 0 0 I I #
point $-1 -44.843897824030272 26.468807210475706 5.6594473158151146 #
point $-1 -40.928278778717051 21.826388077019818 1.9228226741026564 #
point $-1 -40.928278778717051 24.611839557093351 1.9228226741026564 #
straight-curve $-1 -44.843897824030272 26.468807210475706 0 0 0 -1 I I #
End-of-ACIS-data 