500 0 5 0           
7 Unknown 11 ACIS 5.0 NT 24 Thu Mar 25 16:59:22 1999 
-1 9.9999999999999995e-007 1e-010 
body $-1 $5 $-1 $6 #
body $-1 $7 $-1 $8 #
body $-1 $9 $-1 $10 #
body $-1 $11 $-1 $12 #
body $-1 $13 $-1 $14 #
lump $-1 $-1 $15 $0 #
transform $-1 1 0 0 0 1 0 0 0 1 49.147007660145874 32.077020637269555 11.747216405077394 1 rotate no_reflect no_shear #
lump $-1 $-1 $16 $1 #
transform $-1 1 0 0 0 1 0 0 0 1 49.147007660145874 32.077020637269555 11.747216405077394 1 rotate no_reflect no_shear #
lump $-1 $-1 $17 $2 #
transform $-1 1 0 0 0 1 0 0 0 1 49.147007660145874 32.077020637269555 11.747216405077394 1 rotate no_reflect no_shear #
lump $-1 $-1 $18 $3 #
transform $-1 1 0 0 0 1 0 0 0 1 49.147007660145874 32.077020637269555 11.747216405077394 1 rotate no_reflect no_shear #
lump $-1 $-1 $19 $4 #
transform $-1 1 0 0 0 1 0 0 0 1 49.147007660145874 32.077020637269555 11.747216405077394 1 rotate no_reflect no_shear #
shell $-1 $-1 $-1 $20 $-1 $5 #
shell $-1 $-1 $-1 $21 $-1 $7 #
shell $-1 $-1 $-1 $22 $-1 $9 #
shell $-1 $-1 $-1 $23 $-1 $11 #
shell $-1 $-1 $-1 $24 $-1 $13 #
face $-1 $25 $26 $15 $-1 $27 forward single #
face $-1 $28 $29 $16 $-1 $30 forward single #
face $-1 $31 $32 $17 $-1 $33 forward single #
face $-1 $34 $35 $18 $-1 $36 reversed single #
face $-1 $37 $38 $19 $-1 $39 reversed single #
face $-1 $40 $41 $15 $-1 $42 reversed single #
loop $-1 $-1 $43 $20 #
plane-surface $-1 0 0 11.747216405077394 0 0 1 1 0 0 forward_v I I I I #
face $-1 $44 $45 $16 $-1 $46 forward single #
loop $-1 $-1 $47 $21 #
plane-surface $-1 0 -24.417084109365369 5.0150902080552591 0 0 1 1 0 0 forward_v I I I I #
face $-1 $48 $49 $17 $-1 $50 forward single #
loop $-1 $-1 $51 $22 #
plane-surface $-1 -11.368829789134807 26.917427939311303 80.784565615040947 0.78801076186113728 0 0.61566146476048833 0.61566146476048833 0 -0.78801076186113728 forward_v I I I I #
face $-1 $52 $53 $18 $-1 $54 reversed single #
loop $-1 $55 $56 $23 #
cone-surface $-1 44.359713022233478 24.706173925900622 6.3669046170372621 -0.78801076186113728 0 -0.61566146476048833 0.61566146476048833 0 -0.78801076186113728 1 I I 0 1 1 forward I I I I #
face $-1 $57 $58 $19 $-1 $59 reversed single #
loop $-1 $60 $61 $24 #
cone-surface $-1 44.359713022233478 29.128681952721983 6.3669046170372621 -0.78801076186113728 0 -0.61566146476048833 0.61566146476048833 0 -0.78801076186113728 1 I I 0 1 1 forward I I I I #
face $-1 $62 $63 $15 $-1 $64 reversed single #
loop $-1 $-1 $65 $25 #
plane-surface $-1 0 0 -11.747216405077394 0 0 1 1 0 0 forward_v I I I I #
coedge $-1 $66 $67 $68 $69 forward $26 $-1 #
face $-1 $70 $71 $16 $-1 $72 forward single #
loop $-1 $-1 $73 $28 #
plane-surface $-1 0 -16.757147581461183 8.3811533065663273 0 -1 0 0 0 -1 forward_v I I I I #
coedge $-1 $74 $75 $76 $77 reversed $29 $-1 #
face $-1 $78 $79 $17 $-1 $80 forward single #
loop $-1 $-1 $81 $31 #
plane-surface $-1 66.087912109798594 21.75783524135305 141.30040306432164 0 1 0 0.78801076186113728 0 0.61566146476048833 forward_v I I I I #
coedge $-1 $82 $83 $84 $85 reversed $32 $-1 #
face $-1 $86 $87 $18 $-1 $88 forward single #
loop $-1 $89 $90 $34 #
cone-surface $-1 42.467388158401377 24.706173925900622 4.8884584411018341 -0.78801076186113728 0 -0.61566146476048833 0.30783073238024417 0 -0.39400538093056864 1 I I -0.70710678118654746 0.70710678118654746 0.5 forward I I I I #
loop $-1 $-1 $91 $23 #
coedge $-1 $56 $56 $92 $93 reversed $35 $-1 #
face $-1 $94 $95 $19 $-1 $96 reversed single #
loop $-1 $97 $98 $37 #
cone-surface $-1 42.467388158401377 29.128681952721983 4.8884584411018341 -0.78801076186113728 0 -0.61566146476048833 0.30783073238024417 0 -0.39400538093056864 1 I I -0.70710678118654746 0.70710678118654746 0.5 forward I I I I #
loop $-1 $-1 $99 $24 #
coedge $-1 $61 $61 $100 $101 reversed $38 $-1 #
face $-1 $102 $103 $15 $-1 $104 reversed single #
loop $-1 $-1 $105 $40 #
plane-surface $-1 0 -32.077020637269555 0 0 1 0 0 0 1 forward_v I I I I #
coedge $-1 $106 $107 $108 $109 forward $41 $-1 #
coedge $-1 $110 $43 $111 $112 forward $26 $-1 #
coedge $-1 $43 $110 $113 $114 forward $26 $-1 #
coedge $-1 $115 $116 $43 $69 reversed $117 $-1 #
edge $-1 $118 -32.077020637269555 $119 32.077020637269555 $68 $120 forward 7 unknown #
face $-1 $121 $122 $16 $-1 $123 reversed single #
loop $-1 $-1 $124 $44 #
plane-surface $-1 0 0 11.747216405077394 0 0 1 1 0 0 forward_v I I I I #
coedge $-1 $125 $126 $127 $128 reversed $45 $-1 #
coedge $-1 $129 $47 $126 $130 reversed $29 $-1 #
coedge $-1 $47 $129 $131 $132 reversed $29 $-1 #
coedge $-1 $133 $127 $47 $77 forward $122 $-1 #
edge $-1 $134 4.5486055267784984 $135 19.868478582586871 $76 $136 forward 7 unknown #
face $-1 $137 $138 $17 $-1 $139 reversed single #
loop $-1 $-1 $140 $48 #
plane-surface $-1 0 0 11.747216405077394 0 0 1 1 0 0 forward_v I I I I #
coedge $-1 $141 $142 $140 $143 reversed $49 $-1 #
coedge $-1 $144 $51 $142 $145 reversed $32 $-1 #
coedge $-1 $51 $144 $146 $147 reversed $32 $-1 #
coedge $-1 $148 $140 $51 $85 forward $79 $-1 #
edge $-1 $149 8.2991212716973983 $150 18.618306667613904 $84 $151 forward 7 unknown #
face $-1 $152 $153 $18 $-1 $154 forward single #
loop $-1 $155 $92 $52 #
plane-surface $-1 -11.368829789134807 26.917427939311303 80.784565615040947 0.78801076186113728 0 0.61566146476048833 0.61566146476048833 0 -0.78801076186113728 forward_v I I I I #
loop $-1 $-1 $156 $34 #
coedge $-1 $90 $90 $91 $157 forward $53 $-1 #
coedge $-1 $91 $91 $90 $157 reversed $55 $-1 #
coedge $-1 $92 $92 $56 $93 forward $87 $-1 #
edge $-1 $158 0 $158 6.2831853071796004 $92 $159 forward 7 unknown #
face $-1 $160 $161 $19 $-1 $162 reversed single #
loop $-1 $163 $164 $57 #
cone-surface $-1 44.359713022233478 24.706173925900622 6.3669046170372621 -0.78801076186113728 0 -0.61566146476048833 0.61566146476048833 0 -0.78801076186113728 1 I I 0 1 1 forward I I I I #
loop $-1 $-1 $165 $37 #
coedge $-1 $98 $98 $99 $166 forward $58 $-1 #
coedge $-1 $99 $99 $98 $166 reversed $60 $-1 #
coedge $-1 $100 $100 $61 $101 forward $167 $-1 #
edge $-1 $168 0 $168 6.2831853071796004 $100 $169 forward 7 unknown #
face $-1 $170 $171 $15 $-1 $172 reversed single #
loop $-1 $-1 $173 $62 #
plane-surface $-1 -49.147007660145874 0 0 1 0 0 0 0 -1 forward_v I I I I #
coedge $-1 $174 $113 $175 $176 forward $63 $-1 #
coedge $-1 $177 $65 $174 $178 forward $41 $-1 #
coedge $-1 $65 $177 $179 $180 forward $41 $-1 #
coedge $-1 $116 $115 $65 $109 reversed $117 $-1 #
edge $-1 $181 -32.077020637269555 $182 32.077020637269555 $108 $183 forward 7 unknown #
coedge $-1 $67 $66 $184 $185 forward $26 $-1 #
coedge $-1 $186 $187 $66 $112 reversed $171 $-1 #
edge $-1 $119 -49.147007660145874 $188 49.147007660145874 $111 $189 forward 7 unknown #
coedge $-1 $105 $190 $67 $114 reversed $63 $-1 #
edge $-1 $191 -49.147007660145874 $118 49.147007660145874 $113 $192 forward 7 unknown #
coedge $-1 $108 $68 $190 $193 forward $117 $-1 #
coedge $-1 $68 $108 $186 $194 reversed $117 $-1 #
loop $-1 $-1 $115 $170 #
vertex $-1 $69 $195 #
vertex $-1 $69 $196 #
straight-curve $-1 49.147007660145874 0 11.747216405077394 0 1 0 I I #
face $-1 $197 $198 $16 $-1 $199 reversed single #
loop $-1 $-1 $127 $70 #
plane-surface $-1 49.147007660145874 0 0 -1 0 0 0 0 1 forward_v I I I I #
coedge $-1 $200 $201 $125 $202 forward $71 $-1 #
coedge $-1 $203 $73 $124 $202 reversed $45 $-1 #
coedge $-1 $73 $203 $74 $130 forward $45 $-1 #
coedge $-1 $76 $204 $73 $128 forward $122 $-1 #
edge $-1 $205 -7.5566397517942319 $134 -0.82451355477209542 $127 $206 forward 7 unknown #
coedge $-1 $75 $74 $207 $208 reversed $29 $-1 #
edge $-1 $209 -49.147007660145874 $134 49.147007660145874 $126 $210 forward 7 unknown #
coedge $-1 $211 $212 $75 $132 forward $213 $-1 #
edge $-1 $135 -49.147007660145874 $214 49.147007660145874 $131 $215 forward 7 unknown #
coedge $-1 $216 $76 $212 $217 forward $122 $-1 #
vertex $-1 $77 $218 #
vertex $-1 $217 $219 #
straight-curve $-1 49.147007660145874 -12.208542054682685 5.0150902080552591 0 -1 0 I I #
face $-1 $220 $221 $17 $-1 $222 forward single #
loop $-1 $-1 $146 $78 #
plane-surface $-1 0 32.077020637269555 0 0 -1 0 0 0 -1 forward_v I I I I #
coedge $-1 $84 $223 $81 $143 forward $79 $-1 #
coedge $-1 $142 $81 $224 $225 reversed $49 $-1 #
coedge $-1 $81 $141 $82 $145 forward $49 $-1 #
edge $-1 $226 -16.103051605246577 $149 -9.5251012952248644 $140 $227 forward 7 unknown #
coedge $-1 $83 $82 $228 $229 reversed $32 $-1 #
edge $-1 $230 -98.29401532029172 $149 -87.609652750058842 $142 $231 forward 7 unknown #
coedge $-1 $232 $233 $83 $147 forward $138 $-1 #
edge $-1 $150 52.280424001298414 $234 62.964786571531292 $146 $235 forward 7 unknown #
coedge $-1 $236 $84 $233 $237 forward $79 $-1 #
vertex $-1 $85 $238 #
vertex $-1 $237 $239 #
straight-curve $-1 42.569057350124176 13.458713969655651 11.747216405077396 0 1 0 I I #
face $-1 $240 $241 $18 $-1 $242 forward single #
loop $-1 $-1 $243 $86 #
plane-surface $-1 66.087912109798594 21.75783524135305 141.30040306432164 0 1 0 0.78801076186113728 0 0.61566146476048833 forward_v I I I I #
loop $-1 $-1 $244 $52 #
coedge $-1 $156 $156 $-1 $245 forward $89 $-1 #
edge $-1 $246 0 $246 6.2831853071796004 $90 $247 forward 7 unknown #
vertex $-1 $93 $248 #
ellipse-curve $-1 45.858032505135036 24.706173925900622 7.537520060592465 -0.78801076186113728 0 -0.61566146476048833 0.61566146476048833 0 -0.78801076186113728 1 I I #
face $-1 $249 $167 $19 $-1 $250 forward single #
loop $-1 $251 $252 $94 #
cone-surface $-1 42.467388158401377 24.706173925900622 4.8884584411018341 -0.78801076186113728 0 -0.61566146476048833 0.30783073238024417 0 -0.39400538093056864 1 I I -0.70710678118654746 0.70710678118654746 0.5 forward I I I I #
loop $-1 $-1 $253 $57 #
coedge $-1 $164 $164 $254 $255 reversed $95 $-1 #
coedge $-1 $165 $165 $-1 $256 forward $97 $-1 #
edge $-1 $257 0 $257 6.2831853071796004 $98 $258 forward 7 unknown #
loop $-1 $259 $100 $160 #
vertex $-1 $101 $260 #
ellipse-curve $-1 45.858032505135036 29.128681952721983 7.537520060592465 -0.78801076186113728 0 -0.61566146476048833 0.61566146476048833 0 -0.78801076186113728 1 I I #
face $-1 $-1 $117 $15 $-1 $261 reversed single #
loop $-1 $-1 $186 $102 #
plane-surface $-1 0 32.077020637269555 0 0 -1 0 0 0 -1 forward_v I I I I #
coedge $-1 $262 $184 $187 $263 forward $103 $-1 #
coedge $-1 $190 $105 $106 $178 reversed $63 $-1 #
coedge $-1 $184 $262 $105 $176 reversed $103 $-1 #
edge $-1 $191 -11.747216405077394 $264 11.747216405077394 $175 $265 forward 7 unknown #
coedge $-1 $107 $106 $262 $266 forward $41 $-1 #
edge $-1 $182 -49.147007660145874 $264 49.147007660145874 $174 $267 forward 7 unknown #
coedge $-1 $187 $186 $107 $180 reversed $171 $-1 #
edge $-1 $268 -49.147007660145874 $181 49.147007660145874 $179 $269 forward 7 unknown #
vertex $-1 $109 $270 #
vertex $-1 $193 $271 #
straight-curve $-1 49.147007660145874 0 -11.747216405077394 0 -1 0 I I #
coedge $-1 $173 $175 $110 $185 reversed $103 $-1 #
edge $-1 $188 -32.077020637269555 $191 32.077020637269555 $184 $272 forward 7 unknown #
coedge $-1 $179 $111 $116 $194 forward $171 $-1 #
coedge $-1 $111 $179 $173 $263 reversed $171 $-1 #
vertex $-1 $112 $273 #
straight-curve $-1 0 32.077020637269555 11.747216405077394 -1 0 0 I I #
coedge $-1 $113 $174 $115 $193 reversed $63 $-1 #
vertex $-1 $185 $274 #
straight-curve $-1 0 -32.077020637269555 11.747216405077394 1 0 0 I I #
edge $-1 $118 -11.747216405077394 $182 11.747216405077394 $115 $275 forward 7 unknown #
edge $-1 $119 -11.747216405077394 $181 11.747216405077394 $116 $276 forward 7 unknown #
point $-1 49.147007660145874 -32.077020637269555 11.747216405077394 #
point $-1 49.147007660145874 32.077020637269555 11.747216405077394 #
face $-1 $277 $213 $16 $-1 $278 reversed single #
loop $-1 $-1 $279 $121 #
plane-surface $-1 0 0 -11.747216405077394 0 0 1 1 0 0 forward_v I I I I #
coedge $-1 $280 $124 $204 $281 forward $71 $-1 #
coedge $-1 $124 $280 $282 $283 forward $71 $-1 #
edge $-1 $284 -49.147007660145874 $205 49.147007660145874 $124 $285 forward 7 unknown #
coedge $-1 $126 $125 $286 $287 reversed $45 $-1 #
coedge $-1 $127 $288 $200 $281 reversed $122 $-1 #
vertex $-1 $281 $289 #
straight-curve $-1 49.147007660145874 -16.757147581461183 4.1905766532831636 0 0 -1 I I #
coedge $-1 $286 $290 $129 $208 forward $291 $-1 #
edge $-1 $214 -19.868478582586871 $209 -4.5486055267784984 $207 $292 forward 7 unknown #
vertex $-1 $208 $293 #
straight-curve $-1 0 -16.757147581461183 5.0150902080552591 1 0 0 I I #
coedge $-1 $294 $131 $290 $295 forward $213 $-1 #
coedge $-1 $131 $294 $133 $217 reversed $213 $-1 #
loop $-1 $-1 $131 $197 #
vertex $-1 $295 $296 #
straight-curve $-1 0 -32.077020637269555 5.0150902080552591 -1 0 0 I I #
coedge $-1 $288 $133 $279 $297 reversed $122 $-1 #
edge $-1 $135 -5.0150902080552591 $298 11.747216405077394 $133 $299 forward 7 unknown #
point $-1 49.147007660145874 -16.757147581461183 5.0150902080552591 #
point $-1 49.147007660145874 -32.077020637269555 5.0150902080552591 #
face $-1 $300 $301 $17 $-1 $302 forward single #
loop $-1 $-1 $303 $137 #
plane-surface $-1 0 -24.417084109365369 5.0150902080552591 0 0 1 1 0 0 forward_v I I I I #
coedge $-1 $140 $304 $305 $306 forward $79 $-1 #
coedge $-1 $305 $228 $141 $225 forward $307 $-1 #
edge $-1 $230 -67.322377816053248 $226 -58.902985127083426 $224 $308 forward 7 unknown #
vertex $-1 $225 $309 #
straight-curve $-1 33.043956054899297 21.75783524135305 11.747216405077396 -1 0 0 I I #
coedge $-1 $224 $310 $144 $229 forward $307 $-1 #
edge $-1 $234 -18.618306667613904 $230 -8.2991212716973983 $228 $311 forward 7 unknown #
vertex $-1 $229 $312 #
straight-curve $-1 -11.368829789134807 21.75783524135305 80.784565615040947 -0.61566146476048833 0 0.78801076186113728 I I #
coedge $-1 $313 $146 $310 $314 forward $138 $-1 #
coedge $-1 $146 $315 $148 $237 reversed $138 $-1 #
vertex $-1 $314 $316 #
straight-curve $-1 10.382014931185395 32.077020637269555 52.944753152763852 0.61566146476048833 0 -0.78801076186113728 I I #
coedge $-1 $304 $148 $317 $318 forward $79 $-1 #
edge $-1 $150 -42.569057350124162 $319 49.147007660145874 $233 $320 forward 7 unknown #
point $-1 42.569057350124162 21.75783524135305 11.747216405077396 #
point $-1 42.569057350124162 32.077020637269555 11.747216405077396 #
face $-1 $321 $322 $18 $-1 $323 reversed single #
loop $-1 $-1 $324 $152 #
plane-surface $-1 0 0 11.747216405077394 0 0 1 1 0 0 forward_v I I I I #
coedge $-1 $325 $326 $324 $327 reversed $153 $-1 #
coedge $-1 $328 $329 $330 $331 reversed $155 $-1 #
edge $-1 $332 1 $332 0 $156 $-1 forward 7 unknown #
vertex $-1 $157 $333 #
ellipse-curve $-1 42.861393539331942 24.706173925900622 5.1962891734820786 0.78801076186113728 0 0.61566146476048833 0.61566146476048833 0 -0.78801076186113728 1 I I #
point $-1 46.473693969895493 24.706173925900622 6.7495092987313079 #
face $-1 $334 $335 $19 $-1 $336 forward single #
plane-surface $-1 -11.368829789134807 26.917427939311303 80.784565615040947 0.78801076186113728 0 0.61566146476048833 0.61566146476048833 0 -0.78801076186113728 forward_v I I I I #
loop $-1 $-1 $337 $94 #
coedge $-1 $252 $252 $253 $338 forward $161 $-1 #
coedge $-1 $253 $253 $252 $338 reversed $163 $-1 #
coedge $-1 $254 $254 $164 $255 forward $259 $-1 #
edge $-1 $339 0 $339 6.2831853071796004 $254 $340 forward 7 unknown #
edge $-1 $341 1 $341 0 $165 $-1 forward 7 unknown #
vertex $-1 $166 $342 #
ellipse-curve $-1 42.861393539331942 29.128681952721983 5.1962891734820786 0.78801076186113728 0 0.61566146476048833 0.61566146476048833 0 -0.78801076186113728 1 I I #
loop $-1 $343 $254 $160 #
point $-1 46.473693969895493 29.128681952721983 6.7495092987313079 #
plane-surface $-1 49.147007660145874 0 0 -1 0 0 0 0 1 forward_v I I I I #
coedge $-1 $175 $173 $177 $266 reversed $103 $-1 #
edge $-1 $188 -11.747216405077394 $268 11.747216405077394 $187 $344 forward 7 unknown #
vertex $-1 $266 $345 #
straight-curve $-1 -49.147007660145874 -32.077020637269555 0 0 0 -1 I I #
edge $-1 $264 -32.077020637269555 $268 32.077020637269555 $262 $346 forward 7 unknown #
straight-curve $-1 0 -32.077020637269555 -11.747216405077394 -1 0 0 I I #
vertex $-1 $180 $347 #
straight-curve $-1 0 32.077020637269555 -11.747216405077394 1 0 0 I I #
point $-1 49.147007660145874 32.077020637269555 -11.747216405077394 #
point $-1 49.147007660145874 -32.077020637269555 -11.747216405077394 #
straight-curve $-1 -49.147007660145874 0 11.747216405077394 0 -1 0 I I #
point $-1 -49.147007660145874 32.077020637269555 11.747216405077394 #
point $-1 -49.147007660145874 -32.077020637269555 11.747216405077394 #
straight-curve $-1 49.147007660145874 -32.077020637269555 0 0 0 -1 I I #
straight-curve $-1 49.147007660145874 32.077020637269555 0 0 0 -1 I I #
face $-1 $348 $291 $16 $-1 $349 reversed single #
plane-surface $-1 0 -32.077020637269555 0 0 1 0 0 0 1 forward_v I I I I #
coedge $-1 $350 $351 $216 $297 forward $198 $-1 #
coedge $-1 $201 $200 $352 $353 forward $71 $-1 #
edge $-1 $205 -16.757147581461183 $354 32.077020637269555 $204 $355 forward 7 unknown #
coedge $-1 $356 $286 $201 $283 reversed $291 $-1 #
edge $-1 $357 -32.077020637269555 $284 16.757147581461183 $282 $358 forward 7 unknown #
vertex $-1 $287 $359 #
straight-curve $-1 0 -16.757147581461183 11.747216405077394 1 0 0 I I #
coedge $-1 $282 $207 $203 $287 forward $291 $-1 #
edge $-1 $209 0.82451355477209542 $284 7.5566397517942319 $286 $360 forward 7 unknown #
coedge $-1 $204 $216 $361 $362 reversed $122 $-1 #
point $-1 49.147007660145874 -16.757147581461183 11.747216405077396 #
coedge $-1 $207 $363 $211 $295 reversed $291 $-1 #
loop $-1 $-1 $286 $277 #
straight-curve $-1 -49.147007660145874 -12.208542054682685 5.0150902080552591 0 1 0 I I #
point $-1 -49.147007660145874 -16.757147581461183 5.0150902080552591 #
coedge $-1 $212 $211 $350 $364 reversed $213 $-1 #
edge $-1 $214 -5.0150902080552591 $365 11.747216405077394 $290 $366 forward 7 unknown #
point $-1 -49.147007660145874 -32.077020637269555 5.0150902080552591 #
edge $-1 $367 -32.077020637269555 $298 32.077020637269555 $216 $368 forward 7 unknown #
vertex $-1 $217 $369 #
straight-curve $-1 49.147007660145874 -32.077020637269555 0 0 0 -1 I I #
face $-1 $370 $307 $17 $-1 $371 reversed single #
loop $-1 $-1 $372 $220 #
plane-surface $-1 0 -16.757147581461183 8.3811533065663273 0 -1 0 0 0 -1 forward_v I I I I #
coedge $-1 $373 $374 $375 $376 reversed $221 $-1 #
coedge $-1 $223 $236 $377 $378 forward $79 $-1 #
coedge $-1 $379 $224 $223 $306 reversed $307 $-1 #
edge $-1 $380 -16.757147581461183 $226 21.75783524135305 $305 $381 forward 7 unknown #
loop $-1 $-1 $224 $300 #
straight-curve $-1 49.147007660145874 21.75783524135305 70.650201532160821 0 0 1 I I #
point $-1 49.147007660145874 21.75783524135305 11.747216405077394 #
coedge $-1 $228 $382 $232 $314 reversed $307 $-1 #
straight-curve $-1 49.147007660145874 13.458713969655651 3.3278237161075808 0 -1 0 I I #
point $-1 49.147007660145874 21.75783524135305 3.3278237161075737 #
coedge $-1 $315 $232 $383 $384 reversed $138 $-1 #
edge $-1 $234 -3.3278237161075737 $385 11.747216405077394 $310 $386 forward 7 unknown #
coedge $-1 $233 $313 $387 $388 reversed $138 $-1 #
point $-1 49.147007660145874 32.077020637269555 3.3278237161075737 #
coedge $-1 $387 $389 $236 $318 reversed $390 $-1 #
edge $-1 $319 -32.077020637269555 $391 16.757147581461183 $317 $392 forward 7 unknown #
vertex $-1 $237 $393 #
straight-curve $-1 0 32.077020637269555 11.747216405077394 -1 0 0 I I #
face $-1 $394 $395 $18 $-1 $396 forward single #
loop $-1 $-1 $397 $240 #
plane-surface $-1 0 32.077020637269555 0 0 -1 0 0 0 -1 forward_v I I I I #
coedge $-1 $330 $398 $243 $327 forward $241 $-1 #
coedge $-1 $326 $243 $399 $400 reversed $153 $-1 #
coedge $-1 $243 $325 $328 $401 forward $153 $-1 #
edge $-1 $402 -16.103051605246577 $403 -9.5251012952248644 $324 $404 forward 7 unknown #
coedge $-1 $405 $244 $326 $401 reversed $155 $-1 #
coedge $-1 $244 $405 $397 $406 reversed $155 $-1 #
coedge $-1 $407 $324 $244 $331 forward $241 $-1 #
edge $-1 $403 8.2991212716973983 $408 18.618306667613904 $330 $409 forward 7 unknown #
vertex $-1 $245 $410 #
point $-1 43.477055004092435 24.706173925900622 4.408278411620941 #
face $-1 $411 $412 $19 $-1 $413 forward single #
loop $-1 $-1 $414 $249 #
plane-surface $-1 66.087912109798594 21.75783524135305 141.30040306432164 0 1 0 0.78801076186113728 0 0.61566146476048833 forward_v I I I I #
coedge $-1 $337 $337 $-1 $415 forward $251 $-1 #
edge $-1 $416 0 $416 6.2831853071796004 $252 $417 forward 7 unknown #
vertex $-1 $255 $418 #
ellipse-curve $-1 45.858032505135036 24.706173925900622 7.537520060592465 -0.78801076186113728 0 -0.61566146476048833 0.61566146476048833 0 -0.78801076186113728 1 I I #
vertex $-1 $256 $419 #
point $-1 43.477055004092435 29.128681952721983 4.408278411620941 #
loop $-1 $-1 $420 $160 #
straight-curve $-1 -49.147007660145874 32.077020637269555 0 0 0 -1 I I #
point $-1 -49.147007660145874 -32.077020637269555 -11.747216405077394 #
straight-curve $-1 -49.147007660145874 0 -11.747216405077394 0 1 0 I I #
point $-1 -49.147007660145874 32.077020637269555 -11.747216405077394 #
face $-1 $-1 $421 $16 $-1 $422 reversed single #
plane-surface $-1 -49.147007660145874 0 0 1 0 0 0 0 -1 forward_v I I I I #
coedge $-1 $423 $279 $294 $364 forward $198 $-1 #
coedge $-1 $279 $423 $424 $425 forward $198 $-1 #
coedge $-1 $361 $426 $280 $353 reversed $421 $-1 #
edge $-1 $354 -49.147007660145874 $357 49.147007660145874 $352 $427 forward 7 unknown #
vertex $-1 $281 $428 #
straight-curve $-1 49.147007660145874 0 11.747216405077394 0 1 0 I I #
coedge $-1 $363 $282 $426 $429 forward $291 $-1 #
vertex $-1 $353 $430 #
straight-curve $-1 -49.147007660145874 0 11.747216405077394 0 -1 0 I I #
point $-1 -49.147007660145874 -16.757147581461183 11.747216405077396 #
straight-curve $-1 -49.147007660145874 -16.757147581461183 4.1905766532831636 0 0 1 I I #
coedge $-1 $424 $352 $288 $362 forward $421 $-1 #
edge $-1 $354 -11.747216405077394 $367 11.747216405077394 $288 $431 forward 7 unknown #
coedge $-1 $290 $356 $423 $432 reversed $291 $-1 #
edge $-1 $298 -49.147007660145874 $365 49.147007660145874 $294 $433 forward 7 unknown #
vertex $-1 $432 $434 #
straight-curve $-1 -49.147007660145874 -32.077020637269555 0 0 0 -1 I I #
vertex $-1 $297 $435 #
straight-curve $-1 49.147007660145874 0 -11.747216405077394 0 -1 0 I I #
point $-1 49.147007660145874 -32.077020637269555 -11.747216405077394 #
face $-1 $436 $437 $17 $-1 $438 reversed single #
plane-surface $-1 49.147007660145874 0 0 -1 0 0 0 0 1 forward_v I I I I #
coedge $-1 $377 $439 $379 $440 reversed $301 $-1 #
coedge $-1 $441 $303 $439 $442 reversed $221 $-1 #
coedge $-1 $303 $441 $443 $444 reversed $221 $-1 #
coedge $-1 $445 $379 $303 $376 forward $307 $-1 #
edge $-1 $446 4.5486055267784984 $447 19.868478582586871 $375 $448 forward 7 unknown #
coedge $-1 $449 $372 $304 $378 reversed $301 $-1 #
edge $-1 $391 -49.147007660145874 $380 49.147007660145874 $304 $450 forward 7 unknown #
coedge $-1 $375 $305 $372 $440 forward $307 $-1 #
vertex $-1 $306 $451 #
straight-curve $-1 49.147007660145874 0 11.747216405077394 0 1 0 I I #
coedge $-1 $310 $445 $452 $453 reversed $307 $-1 #
coedge $-1 $452 $454 $313 $384 forward $437 $-1 #
edge $-1 $455 -49.147007660145874 $385 49.147007660145874 $313 $456 forward 7 unknown #
vertex $-1 $453 $457 #
straight-curve $-1 49.147007660145874 32.077020637269555 0 0 0 -1 I I #
coedge $-1 $458 $317 $315 $388 forward $390 $-1 #
edge $-1 $319 -11.747216405077394 $455 11.747216405077394 $315 $459 forward 7 unknown #
coedge $-1 $317 $460 $449 $461 forward $390 $-1 #
loop $-1 $-1 $389 $462 #
vertex $-1 $461 $463 #
straight-curve $-1 -49.147007660145874 0 11.747216405077394 0 -1 0 I I #
point $-1 -49.147007660145874 32.077020637269555 11.747216405077394 #
face $-1 $464 $465 $18 $-1 $466 forward single #
loop $-1 $-1 $467 $321 #
plane-surface $-1 0 -24.417084109365369 5.0150902080552591 0 0 1 1 0 0 forward_v I I I I #
coedge $-1 $468 $469 $329 $406 forward $322 $-1 #
coedge $-1 $324 $470 $471 $472 forward $241 $-1 #
coedge $-1 $471 $473 $325 $400 forward $474 $-1 #
edge $-1 $475 -67.322377816053248 $402 -58.902985127083426 $399 $476 forward 7 unknown #
edge $-1 $475 -98.29401532029172 $403 -87.609652750058842 $326 $477 forward 7 unknown #
vertex $-1 $400 $478 #
vertex $-1 $331 $479 #
straight-curve $-1 33.043956054899297 21.75783524135305 11.747216405077396 -1 0 0 I I #
coedge $-1 $329 $328 $473 $480 reversed $155 $-1 #
edge $-1 $408 52.280424001298414 $481 62.964786571531292 $397 $482 forward 7 unknown #
coedge $-1 $483 $330 $469 $484 forward $241 $-1 #
vertex $-1 $484 $485 #
straight-curve $-1 42.569057350124176 13.458713969655651 11.747216405077396 0 1 0 I I #
point $-1 42.073382777470812 24.706173925900622 4.5806277087215896 #
face $-1 $486 $487 $19 $-1 $488 reversed single #
loop $-1 $-1 $489 $334 #
plane-surface $-1 0 0 11.747216405077394 0 0 1 1 0 0 forward_v I I I I #
coedge $-1 $490 $491 $489 $492 reversed $335 $-1 #
edge $-1 $493 1 $493 0 $337 $-1 forward 7 unknown #
vertex $-1 $338 $494 #
ellipse-curve $-1 42.861393539331942 24.706173925900622 5.1962891734820786 0.78801076186113728 0 0.61566146476048833 0.61566146476048833 0 -0.78801076186113728 1 I I #
point $-1 46.473693969895493 24.706173925900622 6.7495092987313079 #
point $-1 42.073382777470812 29.128681952721983 4.5806277087215896 #
coedge $-1 $495 $496 $497 $498 reversed $343 $-1 #
loop $-1 $-1 $361 $348 #
plane-surface $-1 0 32.077020637269555 0 0 -1 0 0 0 -1 forward_v I I I I #
coedge $-1 $351 $350 $363 $432 forward $198 $-1 #
coedge $-1 $426 $361 $351 $425 reversed $421 $-1 #
edge $-1 $499 -49.147007660145874 $367 49.147007660145874 $424 $500 forward 7 unknown #
coedge $-1 $352 $424 $356 $429 reversed $421 $-1 #
straight-curve $-1 0 32.077020637269555 11.747216405077394 -1 0 0 I I #
point $-1 49.147007660145874 32.077020637269555 11.747216405077394 #
edge $-1 $357 -11.747216405077394 $499 11.747216405077394 $426 $501 forward 7 unknown #
point $-1 -49.147007660145874 32.077020637269555 11.747216405077394 #
straight-curve $-1 49.147007660145874 32.077020637269555 0 0 0 -1 I I #
edge $-1 $365 -32.077020637269555 $499 32.077020637269555 $363 $502 forward 7 unknown #
straight-curve $-1 0 -32.077020637269555 -11.747216405077394 -1 0 0 I I #
point $-1 -49.147007660145874 -32.077020637269555 -11.747216405077394 #
point $-1 49.147007660145874 32.077020637269555 -11.747216405077394 #
face $-1 $462 $503 $17 $-1 $504 reversed single #
loop $-1 $-1 $452 $370 #
plane-surface $-1 0 0 -11.747216405077394 0 0 1 1 0 0 forward_v I I I I #
coedge $-1 $372 $449 $373 $442 forward $301 $-1 #
edge $-1 $380 -7.5566397517942319 $446 -0.82451355477209542 $379 $505 forward 7 unknown #
coedge $-1 $374 $373 $460 $506 reversed $221 $-1 #
edge $-1 $507 -49.147007660145874 $446 49.147007660145874 $439 $508 forward 7 unknown #
coedge $-1 $509 $510 $374 $444 forward $503 $-1 #
edge $-1 $447 -49.147007660145874 $511 49.147007660145874 $443 $512 forward 7 unknown #
coedge $-1 $382 $375 $510 $513 forward $307 $-1 #
vertex $-1 $376 $514 #
vertex $-1 $513 $515 #
straight-curve $-1 49.147007660145874 -12.208542054682685 5.0150902080552591 0 -1 0 I I #
coedge $-1 $439 $377 $389 $461 reversed $301 $-1 #
straight-curve $-1 0 -16.757147581461183 11.747216405077394 1 0 0 I I #
point $-1 49.147007660145874 -16.757147581461183 11.747216405077396 #
coedge $-1 $516 $383 $382 $453 forward $437 $-1 #
edge $-1 $385 -32.077020637269555 $517 32.077020637269555 $382 $518 forward 7 unknown #
coedge $-1 $383 $516 $458 $519 forward $437 $-1 #
vertex $-1 $384 $520 #
straight-curve $-1 0 32.077020637269555 -11.747216405077394 1 0 0 I I #
point $-1 49.147007660145874 32.077020637269555 -11.747216405077394 #
coedge $-1 $521 $387 $454 $519 reversed $390 $-1 #
straight-curve $-1 -49.147007660145874 32.077020637269555 0 0 0 -1 I I #
coedge $-1 $389 $521 $441 $506 forward $390 $-1 #
edge $-1 $507 0.82451355477209542 $391 7.5566397517942319 $389 $522 forward 7 unknown #
face $-1 $-1 $390 $17 $-1 $523 reversed single #
point $-1 -49.147007660145874 -16.757147581461183 11.747216405077396 #
face $-1 $524 $474 $18 $-1 $525 reversed single #
loop $-1 $-1 $526 $394 #
plane-surface $-1 0 -16.757147581461183 8.3811533065663273 0 -1 0 0 0 -1 forward_v I I I I #
coedge $-1 $527 $528 $529 $530 reversed $395 $-1 #
coedge $-1 $531 $397 $532 $533 forward $322 $-1 #
coedge $-1 $397 $534 $407 $484 reversed $322 $-1 #
coedge $-1 $398 $483 $535 $536 forward $241 $-1 #
coedge $-1 $537 $399 $398 $472 reversed $474 $-1 #
edge $-1 $538 -16.757147581461183 $402 21.75783524135305 $471 $539 forward 7 unknown #
coedge $-1 $399 $532 $405 $480 forward $474 $-1 #
loop $-1 $-1 $399 $464 #
vertex $-1 $480 $540 #
straight-curve $-1 49.147007660145874 21.75783524135305 70.650201532160821 0 0 1 I I #
straight-curve $-1 -11.368829789134807 21.75783524135305 80.784565615040947 -0.61566146476048833 0 0.78801076186113728 I I #
point $-1 49.147007660145874 21.75783524135305 11.747216405077394 #
point $-1 42.569057350124162 21.75783524135305 11.747216405077396 #
edge $-1 $481 -18.618306667613904 $475 -8.2991212716973983 $473 $541 forward 7 unknown #
vertex $-1 $533 $542 #
straight-curve $-1 10.382014931185395 32.077020637269555 52.944753152763852 0.61566146476048833 0 -0.78801076186113728 I I #
coedge $-1 $470 $407 $543 $544 forward $241 $-1 #
edge $-1 $408 -42.569057350124162 $545 49.147007660145874 $469 $546 forward 7 unknown #
point $-1 42.569057350124162 32.077020637269555 11.747216405077396 #
face $-1 $547 $548 $19 $-1 $549 forward single #
loop $-1 $-1 $550 $411 #
plane-surface $-1 0 32.077020637269555 0 0 -1 0 0 0 -1 forward_v I I I I #
coedge $-1 $497 $551 $414 $492 forward $412 $-1 #
coedge $-1 $491 $414 $552 $553 reversed $335 $-1 #
coedge $-1 $414 $490 $495 $554 forward $335 $-1 #
edge $-1 $555 -16.103051605246577 $556 -9.5251012952248644 $489 $557 forward 7 unknown #
vertex $-1 $415 $558 #
point $-1 43.477055004092435 24.706173925900622 4.408278411620941 #
coedge $-1 $559 $420 $491 $554 reversed $343 $-1 #
coedge $-1 $420 $559 $550 $560 reversed $343 $-1 #
coedge $-1 $561 $489 $420 $498 forward $412 $-1 #
edge $-1 $556 8.2991212716973983 $562 18.618306667613904 $497 $563 forward 7 unknown #
vertex $-1 $425 $564 #
straight-curve $-1 0 32.077020637269555 -11.747216405077394 1 0 0 I I #
straight-curve $-1 -49.147007660145874 32.077020637269555 0 0 0 -1 I I #
straight-curve $-1 -49.147007660145874 0 -11.747216405077394 0 1 0 I I #
loop $-1 $-1 $443 $436 #
plane-surface $-1 0 -32.077020637269555 0 0 1 0 0 0 1 forward_v I I I I #
straight-curve $-1 49.147007660145874 -16.757147581461183 4.1905766532831636 0 0 -1 I I #
edge $-1 $511 -19.868478582586871 $507 -4.5486055267784984 $460 $565 forward 7 unknown #
vertex $-1 $506 $566 #
straight-curve $-1 0 -16.757147581461183 5.0150902080552591 1 0 0 I I #
coedge $-1 $567 $443 $521 $568 forward $503 $-1 #
coedge $-1 $443 $567 $445 $513 reversed $503 $-1 #
vertex $-1 $568 $569 #
straight-curve $-1 0 -32.077020637269555 5.0150902080552591 -1 0 0 I I #
edge $-1 $447 -5.0150902080552591 $517 11.747216405077394 $445 $570 forward 7 unknown #
point $-1 49.147007660145874 -16.757147581461183 5.0150902080552591 #
point $-1 49.147007660145874 -32.077020637269555 5.0150902080552591 #
coedge $-1 $454 $452 $567 $571 forward $437 $-1 #
vertex $-1 $513 $572 #
straight-curve $-1 49.147007660145874 0 -11.747216405077394 0 -1 0 I I #
edge $-1 $573 -32.077020637269555 $455 32.077020637269555 $458 $574 forward 7 unknown #
point $-1 -49.147007660145874 32.077020637269555 -11.747216405077394 #
coedge $-1 $460 $458 $509 $568 reversed $390 $-1 #
straight-curve $-1 -49.147007660145874 -16.757147581461183 4.1905766532831636 0 0 1 I I #
plane-surface $-1 -49.147007660145874 0 0 1 0 0 0 0 -1 forward_v I I I I #
face $-1 $575 $576 $18 $-1 $577 reversed single #
plane-surface $-1 49.147007660145874 0 0 -1 0 0 0 0 1 forward_v I I I I #
coedge $-1 $535 $578 $537 $579 reversed $465 $-1 #
coedge $-1 $580 $467 $578 $581 reversed $395 $-1 #
coedge $-1 $467 $580 $582 $583 reversed $395 $-1 #
coedge $-1 $584 $537 $467 $530 forward $474 $-1 #
edge $-1 $585 4.5486055267784984 $586 19.868478582586871 $529 $587 forward 7 unknown #
coedge $-1 $534 $468 $588 $589 reversed $322 $-1 #
coedge $-1 $473 $590 $468 $533 reversed $474 $-1 #
edge $-1 $481 -3.3278237161075737 $591 11.747216405077394 $532 $592 forward 7 unknown #
coedge $-1 $469 $531 $593 $594 reversed $322 $-1 #
coedge $-1 $595 $526 $470 $536 reversed $465 $-1 #
edge $-1 $596 -49.147007660145874 $538 49.147007660145874 $470 $597 forward 7 unknown #
coedge $-1 $529 $471 $526 $579 forward $474 $-1 #
vertex $-1 $472 $598 #
straight-curve $-1 49.147007660145874 0 11.747216405077394 0 1 0 I I #
point $-1 49.147007660145874 21.75783524135305 3.3278237161075737 #
straight-curve $-1 49.147007660145874 13.458713969655651 3.3278237161075808 0 -1 0 I I #
point $-1 49.147007660145874 32.077020637269555 3.3278237161075737 #
coedge $-1 $593 $599 $483 $544 reversed $600 $-1 #
edge $-1 $545 -32.077020637269555 $596 16.757147581461183 $543 $601 forward 7 unknown #
vertex $-1 $484 $602 #
straight-curve $-1 0 32.077020637269555 11.747216405077394 -1 0 0 I I #
face $-1 $603 $604 $19 $-1 $605 forward single #
loop $-1 $-1 $606 $486 #
plane-surface $-1 0 -24.417084109365369 5.0150902080552591 0 0 1 1 0 0 forward_v I I I I #
coedge $-1 $607 $608 $496 $560 forward $487 $-1 #
coedge $-1 $489 $609 $610 $611 forward $412 $-1 #
coedge $-1 $610 $612 $490 $553 forward $613 $-1 #
edge $-1 $614 -67.322377816053248 $555 -58.902985127083426 $552 $615 forward 7 unknown #
edge $-1 $614 -98.29401532029172 $556 -87.609652750058842 $491 $616 forward 7 unknown #
vertex $-1 $553 $617 #
vertex $-1 $498 $618 #
straight-curve $-1 33.043956054899297 21.75783524135305 11.747216405077396 -1 0 0 I I #
point $-1 42.073382777470812 24.706173925900622 4.5806277087215896 #
coedge $-1 $496 $495 $612 $619 reversed $343 $-1 #
edge $-1 $562 52.280424001298414 $620 62.964786571531292 $550 $621 forward 7 unknown #
coedge $-1 $622 $497 $608 $623 forward $412 $-1 #
vertex $-1 $623 $624 #
straight-curve $-1 42.569057350124176 13.458713969655651 11.747216405077396 0 1 0 I I #
point $-1 -49.147007660145874 32.077020637269555 -11.747216405077394 #
straight-curve $-1 -49.147007660145874 -12.208542054682685 5.0150902080552591 0 1 0 I I #
point $-1 -49.147007660145874 -16.757147581461183 5.0150902080552591 #
coedge $-1 $510 $509 $516 $571 reversed $503 $-1 #
edge $-1 $511 -5.0150902080552591 $573 11.747216405077394 $521 $625 forward 7 unknown #
point $-1 -49.147007660145874 -32.077020637269555 5.0150902080552591 #
straight-curve $-1 49.147007660145874 -32.077020637269555 0 0 0 -1 I I #
edge $-1 $517 -49.147007660145874 $573 49.147007660145874 $567 $626 forward 7 unknown #
point $-1 49.147007660145874 -32.077020637269555 -11.747216405077394 #
vertex $-1 $519 $627 #
straight-curve $-1 -49.147007660145874 0 -11.747216405077394 0 1 0 I I #
face $-1 $628 $629 $18 $-1 $630 reversed single #
loop $-1 $-1 $631 $524 #
plane-surface $-1 0 0 -11.747216405077394 0 0 1 1 0 0 forward_v I I I I #
coedge $-1 $526 $595 $527 $581 forward $465 $-1 #
edge $-1 $538 -7.5566397517942319 $585 -0.82451355477209542 $537 $632 forward 7 unknown #
coedge $-1 $528 $527 $633 $634 reversed $395 $-1 #
edge $-1 $635 -49.147007660145874 $585 49.147007660145874 $578 $636 forward 7 unknown #
coedge $-1 $637 $638 $528 $583 forward $629 $-1 #
edge $-1 $586 -49.147007660145874 $639 49.147007660145874 $582 $640 forward 7 unknown #
coedge $-1 $590 $529 $638 $641 forward $474 $-1 #
vertex $-1 $530 $642 #
vertex $-1 $641 $643 #
straight-curve $-1 49.147007660145874 -12.208542054682685 5.0150902080552591 0 -1 0 I I #
coedge $-1 $631 $644 $531 $589 forward $576 $-1 #
edge $-1 $645 -49.147007660145874 $591 49.147007660145874 $531 $646 forward 7 unknown #
coedge $-1 $532 $584 $631 $647 reversed $474 $-1 #
vertex $-1 $647 $648 #
straight-curve $-1 49.147007660145874 32.077020637269555 0 0 0 -1 I I #
coedge $-1 $649 $543 $534 $594 forward $600 $-1 #
edge $-1 $545 -11.747216405077394 $645 11.747216405077394 $534 $650 forward 7 unknown #
coedge $-1 $578 $535 $599 $651 reversed $465 $-1 #
vertex $-1 $651 $652 #
straight-curve $-1 0 -16.757147581461183 11.747216405077394 1 0 0 I I #
point $-1 49.147007660145874 -16.757147581461183 11.747216405077396 #
coedge $-1 $543 $633 $595 $651 forward $600 $-1 #
loop $-1 $-1 $599 $628 #
straight-curve $-1 -49.147007660145874 0 11.747216405077394 0 -1 0 I I #
point $-1 -49.147007660145874 32.077020637269555 11.747216405077394 #
face $-1 $653 $613 $19 $-1 $654 reversed single #
loop $-1 $-1 $655 $547 #
plane-surface $-1 0 -16.757147581461183 8.3811533065663273 0 -1 0 0 0 -1 forward_v I I I I #
coedge $-1 $656 $657 $658 $659 reversed $548 $-1 #
coedge $-1 $660 $550 $661 $662 forward $487 $-1 #
coedge $-1 $550 $663 $561 $623 reversed $487 $-1 #
coedge $-1 $551 $622 $664 $665 forward $412 $-1 #
coedge $-1 $666 $552 $551 $611 reversed $613 $-1 #
edge $-1 $667 -16.757147581461183 $555 21.75783524135305 $610 $668 forward 7 unknown #
coedge $-1 $552 $661 $559 $619 forward $613 $-1 #
loop $-1 $-1 $552 $603 #
vertex $-1 $619 $669 #
straight-curve $-1 49.147007660145874 21.75783524135305 70.650201532160821 0 0 1 I I #
straight-curve $-1 -11.368829789134807 21.75783524135305 80.784565615040947 -0.61566146476048833 0 0.78801076186113728 I I #
point $-1 49.147007660145874 21.75783524135305 11.747216405077394 #
point $-1 42.569057350124162 21.75783524135305 11.747216405077396 #
edge $-1 $620 -18.618306667613904 $614 -8.2991212716973983 $612 $670 forward 7 unknown #
vertex $-1 $662 $671 #
straight-curve $-1 10.382014931185395 32.077020637269555 52.944753152763852 0.61566146476048833 0 -0.78801076186113728 I I #
coedge $-1 $609 $561 $672 $673 forward $412 $-1 #
edge $-1 $562 -42.569057350124162 $674 49.147007660145874 $608 $675 forward 7 unknown #
point $-1 42.569057350124162 32.077020637269555 11.747216405077396 #
straight-curve $-1 -49.147007660145874 -32.077020637269555 0 0 0 -1 I I #
straight-curve $-1 0 -32.077020637269555 -11.747216405077394 -1 0 0 I I #
point $-1 -49.147007660145874 -32.077020637269555 -11.747216405077394 #
face $-1 $-1 $600 $18 $-1 $676 reversed single #
loop $-1 $-1 $582 $575 #
plane-surface $-1 0 -32.077020637269555 0 0 1 0 0 0 1 forward_v I I I I #
coedge $-1 $677 $588 $590 $647 forward $576 $-1 #
straight-curve $-1 49.147007660145874 -16.757147581461183 4.1905766532831636 0 0 -1 I I #
coedge $-1 $599 $678 $580 $634 forward $600 $-1 #
edge $-1 $639 -19.868478582586871 $635 -4.5486055267784984 $633 $679 forward 7 unknown #
vertex $-1 $634 $680 #
straight-curve $-1 0 -16.757147581461183 5.0150902080552591 1 0 0 I I #
coedge $-1 $681 $582 $678 $682 forward $629 $-1 #
coedge $-1 $582 $681 $584 $641 reversed $629 $-1 #
vertex $-1 $682 $683 #
straight-curve $-1 0 -32.077020637269555 5.0150902080552591 -1 0 0 I I #
edge $-1 $586 -5.0150902080552591 $684 11.747216405077394 $584 $685 forward 7 unknown #
point $-1 49.147007660145874 -16.757147581461183 5.0150902080552591 #
point $-1 49.147007660145874 -32.077020637269555 5.0150902080552591 #
coedge $-1 $588 $677 $649 $686 forward $576 $-1 #
vertex $-1 $589 $687 #
straight-curve $-1 0 32.077020637269555 -11.747216405077394 1 0 0 I I #
edge $-1 $591 -32.077020637269555 $684 32.077020637269555 $590 $688 forward 7 unknown #
point $-1 49.147007660145874 32.077020637269555 -11.747216405077394 #
coedge $-1 $678 $593 $644 $686 reversed $600 $-1 #
straight-curve $-1 -49.147007660145874 32.077020637269555 0 0 0 -1 I I #
edge $-1 $635 0.82451355477209542 $596 7.5566397517942319 $599 $689 forward 7 unknown #
point $-1 -49.147007660145874 -16.757147581461183 11.747216405077396 #
face $-1 $690 $691 $19 $-1 $692 reversed single #
plane-surface $-1 49.147007660145874 0 0 -1 0 0 0 0 1 forward_v I I I I #
coedge $-1 $664 $693 $666 $694 reversed $604 $-1 #
coedge $-1 $695 $606 $693 $696 reversed $548 $-1 #
coedge $-1 $606 $695 $697 $698 reversed $548 $-1 #
coedge $-1 $699 $666 $606 $659 forward $613 $-1 #
edge $-1 $700 4.5486055267784984 $701 19.868478582586871 $658 $702 forward 7 unknown #
coedge $-1 $663 $607 $703 $704 reversed $487 $-1 #
coedge $-1 $612 $705 $607 $662 reversed $613 $-1 #
edge $-1 $620 -3.3278237161075737 $706 11.747216405077394 $661 $707 forward 7 unknown #
coedge $-1 $608 $660 $708 $709 reversed $487 $-1 #
coedge $-1 $710 $655 $609 $665 reversed $604 $-1 #
edge $-1 $711 -49.147007660145874 $667 49.147007660145874 $609 $712 forward 7 unknown #
coedge $-1 $658 $610 $655 $694 forward $613 $-1 #
vertex $-1 $611 $713 #
straight-curve $-1 49.147007660145874 0 11.747216405077394 0 1 0 I I #
point $-1 49.147007660145874 21.75783524135305 3.3278237161075737 #
straight-curve $-1 49.147007660145874 13.458713969655651 3.3278237161075808 0 -1 0 I I #
point $-1 49.147007660145874 32.077020637269555 3.3278237161075737 #
coedge $-1 $708 $714 $622 $673 reversed $715 $-1 #
edge $-1 $674 -32.077020637269555 $711 16.757147581461183 $672 $716 forward 7 unknown #
vertex $-1 $623 $717 #
straight-curve $-1 0 32.077020637269555 11.747216405077394 -1 0 0 I I #
plane-surface $-1 -49.147007660145874 0 0 1 0 0 0 0 -1 forward_v I I I I #
coedge $-1 $644 $631 $681 $718 forward $576 $-1 #
coedge $-1 $633 $649 $637 $682 reversed $600 $-1 #
straight-curve $-1 -49.147007660145874 -12.208542054682685 5.0150902080552591 0 1 0 I I #
point $-1 -49.147007660145874 -16.757147581461183 5.0150902080552591 #
coedge $-1 $638 $637 $677 $718 reversed $629 $-1 #
edge $-1 $639 -5.0150902080552591 $719 11.747216405077394 $678 $720 forward 7 unknown #
point $-1 -49.147007660145874 -32.077020637269555 5.0150902080552591 #
vertex $-1 $641 $721 #
straight-curve $-1 49.147007660145874 -32.077020637269555 0 0 0 -1 I I #
edge $-1 $719 -32.077020637269555 $645 32.077020637269555 $649 $722 forward 7 unknown #
point $-1 -49.147007660145874 32.077020637269555 -11.747216405077394 #
straight-curve $-1 49.147007660145874 0 -11.747216405077394 0 -1 0 I I #
straight-curve $-1 -49.147007660145874 -16.757147581461183 4.1905766532831636 0 0 1 I I #
face $-1 $723 $724 $19 $-1 $725 reversed single #
loop $-1 $-1 $726 $653 #
plane-surface $-1 0 0 -11.747216405077394 0 0 1 1 0 0 forward_v I I I I #
coedge $-1 $655 $710 $656 $696 forward $604 $-1 #
edge $-1 $667 -7.5566397517942319 $700 -0.82451355477209542 $666 $727 forward 7 unknown #
coedge $-1 $657 $656 $728 $729 reversed $548 $-1 #
edge $-1 $730 -49.147007660145874 $700 49.147007660145874 $693 $731 forward 7 unknown #
coedge $-1 $732 $733 $657 $698 forward $724 $-1 #
edge $-1 $701 -49.147007660145874 $734 49.147007660145874 $697 $735 forward 7 unknown #
coedge $-1 $705 $658 $733 $736 forward $613 $-1 #
vertex $-1 $659 $737 #
vertex $-1 $736 $738 #
straight-curve $-1 49.147007660145874 -12.208542054682685 5.0150902080552591 0 -1 0 I I #
coedge $-1 $726 $739 $660 $704 forward $691 $-1 #
edge $-1 $740 -49.147007660145874 $706 49.147007660145874 $660 $741 forward 7 unknown #
coedge $-1 $661 $699 $726 $742 reversed $613 $-1 #
vertex $-1 $742 $743 #
straight-curve $-1 49.147007660145874 32.077020637269555 0 0 0 -1 I I #
coedge $-1 $744 $672 $663 $709 forward $715 $-1 #
edge $-1 $674 -11.747216405077394 $740 11.747216405077394 $663 $745 forward 7 unknown #
coedge $-1 $693 $664 $714 $746 reversed $604 $-1 #
vertex $-1 $746 $747 #
straight-curve $-1 0 -16.757147581461183 11.747216405077394 1 0 0 I I #
point $-1 49.147007660145874 -16.757147581461183 11.747216405077396 #
coedge $-1 $672 $728 $710 $746 forward $715 $-1 #
loop $-1 $-1 $714 $723 #
straight-curve $-1 -49.147007660145874 0 11.747216405077394 0 -1 0 I I #
point $-1 -49.147007660145874 32.077020637269555 11.747216405077394 #
edge $-1 $684 -49.147007660145874 $719 49.147007660145874 $681 $748 forward 7 unknown #
vertex $-1 $686 $749 #
straight-curve $-1 -49.147007660145874 -32.077020637269555 0 0 0 -1 I I #
point $-1 49.147007660145874 -32.077020637269555 -11.747216405077394 #
straight-curve $-1 -49.147007660145874 0 -11.747216405077394 0 1 0 I I #
face $-1 $-1 $715 $19 $-1 $750 reversed single #
loop $-1 $-1 $697 $690 #
plane-surface $-1 0 -32.077020637269555 0 0 1 0 0 0 1 forward_v I I I I #
coedge $-1 $751 $703 $705 $742 forward $691 $-1 #
straight-curve $-1 49.147007660145874 -16.757147581461183 4.1905766532831636 0 0 -1 I I #
coedge $-1 $714 $752 $695 $729 forward $715 $-1 #
edge $-1 $734 -19.868478582586871 $730 -4.5486055267784984 $728 $753 forward 7 unknown #
vertex $-1 $729 $754 #
straight-curve $-1 0 -16.757147581461183 5.0150902080552591 1 0 0 I I #
coedge $-1 $755 $697 $752 $756 forward $724 $-1 #
coedge $-1 $697 $755 $699 $736 reversed $724 $-1 #
vertex $-1 $756 $757 #
straight-curve $-1 0 -32.077020637269555 5.0150902080552591 -1 0 0 I I #
edge $-1 $701 -5.0150902080552591 $758 11.747216405077394 $699 $759 forward 7 unknown #
point $-1 49.147007660145874 -16.757147581461183 5.0150902080552591 #
point $-1 49.147007660145874 -32.077020637269555 5.0150902080552591 #
coedge $-1 $703 $751 $744 $760 forward $691 $-1 #
vertex $-1 $704 $761 #
straight-curve $-1 0 32.077020637269555 -11.747216405077394 1 0 0 I I #
edge $-1 $706 -32.077020637269555 $758 32.077020637269555 $705 $762 forward 7 unknown #
point $-1 49.147007660145874 32.077020637269555 -11.747216405077394 #
coedge $-1 $752 $708 $739 $760 reversed $715 $-1 #
straight-curve $-1 -49.147007660145874 32.077020637269555 0 0 0 -1 I I #
edge $-1 $730 0.82451355477209542 $711 7.5566397517942319 $714 $763 forward 7 unknown #
point $-1 -49.147007660145874 -16.757147581461183 11.747216405077396 #
straight-curve $-1 0 -32.077020637269555 -11.747216405077394 -1 0 0 I I #
point $-1 -49.147007660145874 -32.077020637269555 -11.747216405077394 #
plane-surface $-1 -49.147007660145874 0 0 1 0 0 0 0 -1 forward_v I I I I #
coedge $-1 $739 $726 $755 $764 forward $691 $-1 #
coedge $-1 $728 $744 $732 $756 reversed $715 $-1 #
straight-curve $-1 -49.147007660145874 -12.208542054682685 5.0150902080552591 0 1 0 I I #
point $-1 -49.147007660145874 -16.757147581461183 5.0150902080552591 #
coedge $-1 $733 $732 $751 $764 reversed $724 $-1 #
edge $-1 $734 -5.0150902080552591 $765 11.747216405077394 $752 $766 forward 7 unknown #
point $-1 -49.147007660145874 -32.077020637269555 5.0150902080552591 #
vertex $-1 $736 $767 #
straight-curve $-1 49.147007660145874 -32.077020637269555 0 0 0 -1 I I #
edge $-1 $765 -32.077020637269555 $740 32.077020637269555 $744 $768 forward 7 unknown #
point $-1 -49.147007660145874 32.077020637269555 -11.747216405077394 #
straight-curve $-1 49.147007660145874 0 -11.747216405077394 0 -1 0 I I #
straight-curve $-1 -49.147007660145874 -16.757147581461183 4.1905766532831636 0 0 1 I I #
edge $-1 $758 -49.147007660145874 $765 49.147007660145874 $755 $769 forward 7 unknown #
vertex $-1 $760 $770 #
straight-curve $-1 -49.147007660145874 -32.077020637269555 0 0 0 -1 I I #
point $-1 49.147007660145874 -32.077020637269555 -11.747216405077394 #
straight-curve $-1 -49.147007660145874 0 -11.747216405077394 0 1 0 I I #
straight-curve $-1 0 -32.077020637269555 -11.747216405077394 -1 0 0 I I #
point $-1 -49.147007660145874 -32.077020637269555 -11.747216405077394 #
End-of-ACIS-data 