500 0 8 0           
7 Unknown 11 ACIS 5.0 NT 24 Fri Mar 26 17:23:52 1999 
-1 9.9999999999999995e-007 1e-010 
body $-1 $8 $-1 $9 #
body $-1 $10 $-1 $11 #
body $-1 $12 $-1 $13 #
body $-1 $14 $-1 $15 #
body $-1 $16 $-1 $17 #
body $-1 $18 $-1 $19 #
body $-1 $20 $-1 $21 #
body $-1 $22 $-1 $23 #
lump $-1 $-1 $24 $0 #
transform $-1 1 0 0 0 1 0 0 0 1 47.314676351207005 24.528776121645357 7.7571777263878294 1 rotate no_reflect no_shear #
lump $-1 $-1 $25 $1 #
transform $-1 1 0 0 0 1 0 0 0 1 47.314676351207005 24.528776121645357 7.7571777263878294 1 rotate no_reflect no_shear #
lump $-1 $-1 $26 $2 #
transform $-1 1 0 0 0 1 0 0 0 1 47.314676351207005 24.528776121645357 7.7571777263878294 1 rotate no_reflect no_shear #
lump $-1 $-1 $27 $3 #
transform $-1 1 0 0 0 1 0 0 0 1 47.314676351207005 24.528776121645357 7.7571777263878294 1 rotate no_reflect no_shear #
lump $-1 $-1 $28 $4 #
transform $-1 1 0 0 0 1 0 0 0 1 47.314676351207005 24.528776121645357 7.7571777263878294 1 rotate no_reflect no_shear #
lump $-1 $-1 $29 $5 #
transform $-1 1 0 0 0 1 0 0 0 1 47.314676351207005 24.528776121645357 7.7571777263878294 1 rotate no_reflect no_shear #
lump $-1 $-1 $30 $6 #
transform $-1 1 0 0 0 1 0 0 0 1 47.314676351207005 24.528776121645357 7.7571777263878294 1 rotate no_reflect no_shear #
lump $-1 $-1 $31 $7 #
transform $-1 1 0 0 0 1 0 0 0 1 47.314676351207005 24.528776121645357 7.7571777263878294 1 rotate no_reflect no_shear #
shell $-1 $-1 $-1 $32 $-1 $8 #
shell $-1 $-1 $-1 $33 $-1 $10 #
shell $-1 $-1 $-1 $34 $-1 $12 #
shell $-1 $-1 $-1 $35 $-1 $14 #
shell $-1 $-1 $-1 $36 $-1 $16 #
shell $-1 $-1 $-1 $37 $-1 $18 #
shell $-1 $-1 $-1 $38 $-1 $20 #
shell $-1 $-1 $-1 $39 $-1 $22 #
face $-1 $40 $41 $24 $-1 $42 forward single #
face $-1 $43 $44 $25 $-1 $45 reversed single #
face $-1 $46 $47 $26 $-1 $48 reversed single #
face $-1 $49 $50 $27 $-1 $51 forward single #
face $-1 $52 $53 $28 $-1 $54 forward single #
face $-1 $55 $56 $29 $-1 $57 reversed single #
face $-1 $58 $59 $30 $-1 $60 forward single #
face $-1 $61 $62 $31 $-1 $63 forward single #
face $-1 $64 $65 $24 $-1 $66 reversed single #
loop $-1 $-1 $67 $32 #
plane-surface $-1 0 0 7.7571777263878294 0 0 1 1 0 0 forward_v I I I I #
face $-1 $68 $69 $25 $-1 $70 reversed single #
loop $-1 $-1 $71 $33 #
plane-surface $-1 -42.200095194583504 0 4.6928001536497295 0 0 1 1 0 0 forward_v I I I I #
face $-1 $72 $73 $26 $-1 $74 reversed single #
loop $-1 $-1 $75 $34 #
plane-surface $-1 2.2343767906170235 62.026181476521636 102.65812396363816 1 0 0 0 -0.74314483375859142 -0.66913059716165679 forward_v I I I I #
face $-1 $76 $77 $27 $-1 $78 forward single #
loop $-1 $79 $80 $35 #
cone-surface $-1 7.6052946520471139 20.635934533868603 3.7906656854250644 0 -0.74314483375859142 -0.66913059716165679 1.5 0 0 1 I I 0 1 1.5 forward I I I I #
face $-1 $81 $82 $28 $-1 $83 forward single #
loop $-1 $84 $85 $36 #
cone-surface $-1 15.661671444192258 20.635934533868603 3.7906656854250644 0 -0.74314483375859142 -0.66913059716165679 1.5 0 0 1 I I 0 1 1.5 forward I I I I #
face $-1 $86 $87 $29 $-1 $88 reversed single #
loop $-1 $-1 $89 $37 #
plane-surface $-1 36.335593996267441 -24.528776121645336 3.7388713641061315 0 -0.75470958851134928 0.65605901945558964 1 0 0 forward_v I I I I #
face $-1 $90 $91 $30 $-1 $92 forward single #
loop $-1 $93 $94 $38 #
cone-surface $-1 31.630272987007622 -21.475490725180315 4.6120795863306059 0 0.75470958851134928 -0.65605901945558964 1 0 0 1 I I 0 1 1 forward I I I I #
face $-1 $95 $96 $31 $-1 $97 forward single #
loop $-1 $98 $99 $39 #
cone-surface $-1 41.04091500552726 -21.475490725180315 4.6120795863306059 0 0.75470958851134928 -0.65605901945558964 1 0 0 1 I I 0 1 1 forward I I I I #
face $-1 $100 $101 $24 $-1 $102 reversed single #
loop $-1 $-1 $103 $40 #
plane-surface $-1 0 0 -7.7571777263878294 0 0 1 1 0 0 forward_v I I I I #
coedge $-1 $104 $105 $106 $107 forward $41 $-1 #
face $-1 $108 $109 $25 $-1 $110 reversed single #
loop $-1 $-1 $111 $43 #
plane-surface $-1 -37.085514037960003 0 6.2249889400187799 -1 0 0 0 0 1 forward_v I I I I #
coedge $-1 $112 $113 $114 $115 forward $44 $-1 #
face $-1 $116 $117 $26 $-1 $118 reversed single #
loop $-1 $-1 $119 $46 #
plane-surface $-1 11.633483048119693 -8.2971331061969309 39.338728680850835 0 0.74314483375859142 0.66913059716165679 1 0 0 forward_v I I I I #
coedge $-1 $120 $121 $122 $123 reversed $47 $-1 #
face $-1 $-1 $124 $27 $-1 $125 forward single #
loop $-1 $126 $127 $49 #
cone-surface $-1 7.6052946520471139 18.380611186261596 1.7599634725814086 0 -0.74314483375859142 -0.66913059716165679 0.75 0 0 1 I I -0.70710678118654757 0.70710678118654757 0.75 forward I I I I #
loop $-1 $-1 $128 $35 #
coedge $-1 $80 $80 $129 $130 reversed $50 $-1 #
face $-1 $-1 $131 $28 $-1 $132 forward single #
loop $-1 $133 $134 $52 #
cone-surface $-1 15.661671444192258 18.380611186261596 1.7599634725814086 0 -0.74314483375859142 -0.66913059716165679 0.75 0 0 1 I I -0.70710678118654757 0.70710678118654757 0.75 forward I I I I #
loop $-1 $-1 $135 $36 #
coedge $-1 $85 $85 $136 $137 reversed $53 $-1 #
face $-1 $138 $139 $29 $-1 $140 reversed single #
loop $-1 $-1 $141 $55 #
plane-surface $-1 25.35651164132787 -95.946455960779559 65.82131170976902 1 0 0 0 0.75470958851134928 -0.65605901945558964 forward_v I I I I #
coedge $-1 $142 $143 $144 $145 reversed $56 $-1 #
face $-1 $-1 $146 $30 $-1 $147 forward single #
loop $-1 $148 $149 $58 #
cone-surface $-1 31.630272987007622 -19.791380704501975 3.148105117686435 0 0.75470958851134928 -0.65605901945558964 0.5 0 0 1 I I -0.70710678118654779 0.70710678118654713 0.5 forward I I I I #
loop $-1 $-1 $150 $38 #
coedge $-1 $94 $94 $151 $152 reversed $59 $-1 #
face $-1 $-1 $153 $31 $-1 $154 forward single #
loop $-1 $155 $156 $61 #
cone-surface $-1 41.04091500552726 -19.791380704501975 3.148105117686435 0 0.75470958851134928 -0.65605901945558964 0.5 0 0 1 I I -0.70710678118654779 0.70710678118654713 0.5 forward I I I I #
loop $-1 $-1 $157 $39 #
coedge $-1 $99 $99 $158 $159 reversed $62 $-1 #
face $-1 $160 $161 $24 $-1 $162 reversed single #
loop $-1 $-1 $163 $64 #
plane-surface $-1 0 -24.528776121645357 0 0 1 0 0 0 1 forward_v I I I I #
coedge $-1 $164 $165 $166 $167 forward $65 $-1 #
coedge $-1 $168 $67 $169 $170 forward $41 $-1 #
coedge $-1 $67 $168 $171 $172 forward $41 $-1 #
coedge $-1 $173 $174 $67 $107 reversed $175 $-1 #
edge $-1 $176 -24.528776121645357 $177 24.528776121645357 $106 $178 forward 7 unknown #
face $-1 $179 $180 $25 $-1 $181 reversed single #
loop $-1 $-1 $182 $68 #
plane-surface $-1 0 24.528776121645357 0 0 -1 0 0 0 -1 forward_v I I I I #
coedge $-1 $114 $183 $184 $185 reversed $69 $-1 #
coedge $-1 $186 $71 $187 $188 reversed $44 $-1 #
coedge $-1 $71 $186 $189 $190 reversed $44 $-1 #
coedge $-1 $191 $111 $71 $115 reversed $69 $-1 #
edge $-1 $192 -24.528776121645357 $193 24.528776121645357 $114 $194 forward 7 unknown #
face $-1 $195 $196 $26 $-1 $197 forward single #
loop $-1 $-1 $198 $72 #
plane-surface $-1 21.032589305622363 62.026181476521636 102.65812396363816 -1 0 0 0 0.74314483375859142 0.66913059716165679 forward_v I I I I #
coedge $-1 $199 $200 $201 $202 reversed $73 $-1 #
coedge $-1 $121 $75 $203 $204 reversed $47 $-1 #
coedge $-1 $75 $120 $199 $205 reversed $47 $-1 #
coedge $-1 $201 $206 $75 $123 forward $196 $-1 #
edge $-1 $207 6.4843146166154604 $208 10.87406834759285 $122 $209 forward 7 unknown #
loop $-1 $-1 $129 $76 #
plane-surface $-1 11.633483048119693 -8.2971331061969309 39.338728680850835 0 0.74314483375859142 0.66913059716165679 1 0 0 forward_v I I I I #
loop $-1 $-1 $210 $49 #
coedge $-1 $127 $127 $128 $211 reversed $77 $-1 #
coedge $-1 $128 $128 $127 $211 forward $79 $-1 #
coedge $-1 $129 $129 $80 $130 forward $124 $-1 #
edge $-1 $212 -1.6742478986189133e-015 $212 6.2831853071795987 $129 $213 forward 7 unknown #
loop $-1 $-1 $136 $81 #
plane-surface $-1 11.633483048119693 -8.2971331061969309 39.338728680850835 0 0.74314483375859142 0.66913059716165679 1 0 0 forward_v I I I I #
loop $-1 $-1 $214 $52 #
coedge $-1 $134 $134 $135 $215 reversed $82 $-1 #
coedge $-1 $135 $135 $134 $215 forward $84 $-1 #
coedge $-1 $136 $136 $85 $137 forward $131 $-1 #
edge $-1 $216 -1.6742478986189133e-015 $216 6.2831853071795987 $136 $217 forward 7 unknown #
face $-1 $218 $219 $29 $-1 $220 forward single #
loop $-1 $-1 $221 $86 #
plane-surface $-1 47.314676351207005 0 0 -1 0 0 0 0 1 forward_v I I I I #
coedge $-1 $222 $223 $224 $225 reversed $87 $-1 #
coedge $-1 $226 $89 $221 $227 reversed $56 $-1 #
coedge $-1 $89 $226 $222 $228 forward $56 $-1 #
coedge $-1 $224 $229 $89 $145 forward $219 $-1 #
edge $-1 $230 -29.146879353073292 $231 -7.1887146431941495 $144 $232 forward 7 unknown #
loop $-1 $-1 $151 $90 #
plane-surface $-1 36.335593996267441 -24.528776121645336 3.7388713641061315 0 -0.75470958851134928 0.65605901945558964 1 0 0 forward_v I I I I #
loop $-1 $-1 $233 $58 #
coedge $-1 $149 $149 $150 $234 reversed $91 $-1 #
coedge $-1 $150 $150 $149 $234 forward $93 $-1 #
coedge $-1 $151 $151 $94 $152 forward $146 $-1 #
edge $-1 $235 7.3159213476686097e-016 $235 6.2831853071796013 $151 $236 forward 7 unknown #
loop $-1 $-1 $158 $95 #
plane-surface $-1 36.335593996267441 -24.528776121645336 3.7388713641061315 0 -0.75470958851134928 0.65605901945558964 1 0 0 forward_v I I I I #
loop $-1 $-1 $237 $61 #
coedge $-1 $156 $156 $157 $238 reversed $96 $-1 #
coedge $-1 $157 $157 $156 $238 forward $98 $-1 #
coedge $-1 $158 $158 $99 $159 forward $153 $-1 #
edge $-1 $239 7.3159213476686097e-016 $239 6.2831853071796013 $158 $240 forward 7 unknown #
face $-1 $241 $242 $24 $-1 $243 reversed single #
loop $-1 $-1 $244 $100 #
plane-surface $-1 -47.314676351207005 0 0 1 0 0 0 0 -1 forward_v I I I I #
coedge $-1 $245 $171 $246 $247 forward $101 $-1 #
coedge $-1 $248 $103 $245 $249 forward $65 $-1 #
coedge $-1 $103 $248 $250 $251 forward $65 $-1 #
coedge $-1 $174 $173 $103 $167 reversed $175 $-1 #
edge $-1 $252 -24.528776121645357 $253 24.528776121645357 $166 $254 forward 7 unknown #
coedge $-1 $105 $104 $255 $256 forward $41 $-1 #
coedge $-1 $257 $258 $104 $170 reversed $242 $-1 #
edge $-1 $177 -47.314676351207005 $259 47.314676351207005 $169 $260 forward 7 unknown #
coedge $-1 $163 $261 $105 $172 reversed $101 $-1 #
edge $-1 $262 -47.314676351207005 $176 47.314676351207005 $171 $263 forward 7 unknown #
coedge $-1 $166 $106 $261 $264 forward $175 $-1 #
coedge $-1 $106 $166 $257 $265 reversed $175 $-1 #
loop $-1 $-1 $173 $241 #
vertex $-1 $107 $266 #
vertex $-1 $107 $267 #
straight-curve $-1 47.314676351207005 0 7.7571777263878294 0 1 0 I I #
face $-1 $268 $269 $25 $-1 $270 forward single #
loop $-1 $-1 $271 $108 #
plane-surface $-1 -47.314676351207005 0 0 1 0 0 0 0 -1 forward_v I I I I #
coedge $-1 $189 $272 $191 $273 forward $109 $-1 #
coedge $-1 $111 $191 $274 $275 reversed $69 $-1 #
coedge $-1 $276 $187 $111 $185 forward $277 $-1 #
edge $-1 $193 1.5803056836403395 $278 4.6446832563784408 $184 $279 forward 7 unknown #
coedge $-1 $113 $112 $271 $280 reversed $44 $-1 #
coedge $-1 $184 $281 $112 $188 forward $277 $-1 #
edge $-1 $282 -26.214628753915253 $193 -15.985466440668251 $187 $283 forward 7 unknown #
coedge $-1 $284 $182 $113 $190 forward $109 $-1 #
edge $-1 $192 15.985466440668251 $285 26.214628753915253 $189 $286 forward 7 unknown #
coedge $-1 $183 $114 $182 $273 reversed $69 $-1 #
vertex $-1 $190 $287 #
vertex $-1 $188 $288 #
straight-curve $-1 -37.085514037960003 0 4.6928001536497295 0 -1 0 I I #
face $-1 $-1 $289 $26 $-1 $290 reversed single #
loop $-1 $-1 $122 $116 #
plane-surface $-1 0 0 7.7571777263878294 0 0 1 1 0 0 forward_v I I I I #
coedge $-1 $291 $292 $293 $294 reversed $117 $-1 #
coedge $-1 $295 $119 $121 $205 forward $73 $-1 #
coedge $-1 $119 $295 $291 $296 forward $73 $-1 #
coedge $-1 $293 $122 $119 $202 forward $196 $-1 #
edge $-1 $208 -3.582364733442823 $297 15.215847781562516 $201 $298 forward 7 unknown #
coedge $-1 $299 $300 $120 $204 forward $289 $-1 #
edge $-1 $301 -48.447199807411934 $207 -43.57188425543125 $203 $302 forward 7 unknown #
edge $-1 $208 42.49716814249183 $301 49.057552243290701 $121 $303 forward 7 unknown #
coedge $-1 $122 $293 $299 $304 forward $196 $-1 #
vertex $-1 $204 $305 #
vertex $-1 $123 $306 #
straight-curve $-1 2.2343767906170235 31.013090738260818 7.7571777263878303 0 -1 0 I I #
coedge $-1 $210 $210 $-1 $307 reversed $126 $-1 #
edge $-1 $308 0 $308 6.2831853071796004 $127 $309 forward 7 unknown #
vertex $-1 $130 $310 #
ellipse-curve $-1 7.6052946520471139 22.333899256156673 5.3195199503974839 0 0.74314483375859142 0.66913059716165679 1.5 0 0 1 I I #
coedge $-1 $214 $214 $-1 $311 reversed $133 $-1 #
edge $-1 $312 0 $312 6.2831853071796004 $134 $313 forward 7 unknown #
vertex $-1 $137 $314 #
ellipse-curve $-1 15.661671444192258 22.333899256156673 5.3195199503974839 0 0.74314483375859142 0.66913059716165679 1.5 0 0 1 I I #
face $-1 $-1 $315 $29 $-1 $316 reversed single #
loop $-1 $-1 $144 $138 #
plane-surface $-1 0 0 7.7571777263878294 0 0 1 1 0 0 forward_v I I I I #
coedge $-1 $317 $318 $142 $227 forward $139 $-1 #
coedge $-1 $223 $141 $143 $228 reversed $87 $-1 #
coedge $-1 $141 $222 $319 $320 reversed $87 $-1 #
coedge $-1 $321 $144 $141 $225 forward $219 $-1 #
edge $-1 $231 -26.937512198829211 $322 -23.444451858744422 $224 $323 forward 7 unknown #
coedge $-1 $143 $142 $324 $325 reversed $56 $-1 #
edge $-1 $326 -6.6352813710554903 $230 -1.3109732882500791 $221 $327 forward 7 unknown #
edge $-1 $328 -3.2418450280676821e-014 $231 5.3243080828053797 $222 $329 forward 7 unknown #
coedge $-1 $144 $321 $317 $330 forward $219 $-1 #
vertex $-1 $145 $331 #
vertex $-1 $145 $332 #
straight-curve $-1 18.167796998133721 -21.035715781560569 7.7571777263878285 -1 0 0 I I #
coedge $-1 $233 $233 $-1 $333 reversed $148 $-1 #
edge $-1 $334 0 $334 6.2831853071796004 $149 $335 forward 7 unknown #
vertex $-1 $152 $336 #
ellipse-curve $-1 31.630272987007622 -22.782245951602963 5.7480245452469685 0 -0.75470958851134928 0.65605901945558964 1 0 0 1 I I #
coedge $-1 $237 $237 $-1 $337 reversed $155 $-1 #
edge $-1 $338 0 $338 6.2831853071796004 $156 $339 forward 7 unknown #
vertex $-1 $159 $340 #
ellipse-curve $-1 41.04091500552726 -22.782245951602963 5.7480245452469685 0 -0.75470958851134928 0.65605901945558964 1 0 0 1 I I #
face $-1 $-1 $175 $24 $-1 $341 reversed single #
loop $-1 $-1 $257 $160 #
plane-surface $-1 0 24.528776121645357 0 0 -1 0 0 0 -1 forward_v I I I I #
coedge $-1 $342 $255 $258 $343 forward $161 $-1 #
coedge $-1 $261 $163 $164 $249 reversed $101 $-1 #
coedge $-1 $255 $342 $163 $247 reversed $161 $-1 #
edge $-1 $262 -7.7571777263878294 $344 7.7571777263878294 $246 $345 forward 7 unknown #
coedge $-1 $165 $164 $342 $346 forward $65 $-1 #
edge $-1 $253 -47.314676351207005 $344 47.314676351207005 $245 $347 forward 7 unknown #
coedge $-1 $258 $257 $165 $251 reversed $242 $-1 #
edge $-1 $348 -47.314676351207005 $252 47.314676351207005 $250 $349 forward 7 unknown #
vertex $-1 $167 $350 #
vertex $-1 $264 $351 #
straight-curve $-1 47.314676351207005 0 -7.7571777263878294 0 -1 0 I I #
coedge $-1 $244 $246 $168 $256 reversed $161 $-1 #
edge $-1 $259 -24.528776121645357 $262 24.528776121645357 $255 $352 forward 7 unknown #
coedge $-1 $250 $169 $174 $265 forward $242 $-1 #
coedge $-1 $169 $250 $244 $343 reversed $242 $-1 #
vertex $-1 $170 $353 #
straight-curve $-1 0 24.528776121645357 7.7571777263878294 -1 0 0 I I #
coedge $-1 $171 $245 $173 $264 reversed $101 $-1 #
vertex $-1 $256 $354 #
straight-curve $-1 0 -24.528776121645357 7.7571777263878294 1 0 0 I I #
edge $-1 $176 -7.7571777263878294 $253 7.7571777263878294 $173 $355 forward 7 unknown #
edge $-1 $177 -7.7571777263878294 $252 7.7571777263878294 $174 $356 forward 7 unknown #
point $-1 47.314676351207005 -24.528776121645357 7.7571777263878294 #
point $-1 47.314676351207005 24.528776121645357 7.7571777263878294 #
face $-1 $-1 $277 $25 $-1 $357 reversed single #
loop $-1 $-1 $274 $179 #
plane-surface $-1 0 0 7.7571777263878294 0 0 1 1 0 0 forward_v I I I I #
coedge $-1 $358 $359 $186 $280 forward $180 $-1 #
coedge $-1 $182 $284 $360 $361 reversed $109 $-1 #
edge $-1 $362 -4.6446832563784408 $192 -1.5803056836403395 $182 $363 forward 7 unknown #
coedge $-1 $360 $364 $183 $275 forward $269 $-1 #
edge $-1 $278 -24.528776121645357 $362 24.528776121645357 $274 $365 forward 7 unknown #
coedge $-1 $281 $184 $364 $366 reversed $277 $-1 #
loop $-1 $-1 $184 $268 #
vertex $-1 $185 $367 #
straight-curve $-1 -37.085514037960003 -24.528776121645357 3.1124944700093899 0 0 1 I I #
edge $-1 $285 -24.528776121645357 $282 24.528776121645357 $271 $368 forward 7 unknown #
coedge $-1 $187 $276 $358 $369 forward $277 $-1 #
vertex $-1 $280 $370 #
straight-curve $-1 -21.100047597291752 -24.528776121645357 4.6928001536497295 1 0 0 I I #
coedge $-1 $272 $189 $359 $371 reversed $109 $-1 #
vertex $-1 $280 $372 #
straight-curve $-1 -21.100047597291752 24.528776121645357 4.6928001536497295 -1 0 0 I I #
point $-1 -37.085514037960003 24.528776121645357 4.6928001536497295 #
point $-1 -37.085514037960003 -24.528776121645357 4.6928001536497295 #
loop $-1 $-1 $203 $195 #
plane-surface $-1 0 24.528776121645357 0 0 -1 0 0 0 -1 forward_v I I I I #
coedge $-1 $292 $198 $200 $296 reversed $117 $-1 #
coedge $-1 $198 $291 $373 $374 reversed $117 $-1 #
coedge $-1 $206 $201 $198 $294 forward $196 $-1 #
edge $-1 $297 -10.87406834759285 $375 -6.4843146166154604 $293 $376 forward 7 unknown #
coedge $-1 $200 $199 $300 $377 reversed $73 $-1 #
edge $-1 $378 -49.057552243290701 $297 -42.49716814249183 $291 $379 forward 7 unknown #
vertex $-1 $202 $380 #
straight-curve $-1 5.8167415240598466 20.139022390667968 7.7571777263878303 1 0 0 I I #
coedge $-1 $373 $203 $206 $304 reversed $289 $-1 #
coedge $-1 $203 $373 $295 $377 forward $289 $-1 #
vertex $-1 $204 $381 #
straight-curve $-1 2.2343767906170235 24.528776121645357 51.329061981819081 0 0 1 I I #
straight-curve $-1 2.2343767906170235 -8.2971331061969309 39.338728680850835 0 0.66913059716165679 -0.74314483375859142 I I #
edge $-1 $375 -21.032589305622363 $207 -2.2343767906170235 $299 $382 forward 7 unknown #
point $-1 2.2343767906170235 24.528776121645357 7.7571777263878294 #
point $-1 2.2343767906170235 20.139022390667968 7.7571777263878303 #
edge $-1 $383 1 $383 0 $210 $-1 forward 7 unknown #
vertex $-1 $211 $384 #
ellipse-curve $-1 7.6052946520471139 18.93796981158054 2.2618114204526512 0 0.74314483375859142 0.66913059716165679 1.5 0 0 1 I I #
point $-1 9.1052946520471139 22.333899256156663 5.3195199503974777 #
edge $-1 $385 1 $385 0 $214 $-1 forward 7 unknown #
vertex $-1 $215 $386 #
ellipse-curve $-1 15.661671444192258 18.93796981158054 2.2618114204526512 0 0.74314483375859142 0.66913059716165679 1.5 0 0 1 I I #
point $-1 17.161671444192258 22.333899256156663 5.3195199503974777 #
loop $-1 $-1 $324 $218 #
plane-surface $-1 0 -24.528776121645357 0 0 1 0 0 0 1 forward_v I I I I #
coedge $-1 $318 $221 $229 $330 reversed $139 $-1 #
coedge $-1 $221 $317 $387 $388 forward $139 $-1 #
coedge $-1 $324 $389 $223 $320 forward $315 $-1 #
edge $-1 $322 25.15347812849668 $328 29.171784490778403 $319 $390 forward 7 unknown #
coedge $-1 $229 $224 $389 $391 forward $219 $-1 #
vertex $-1 $391 $392 #
straight-curve $-1 25.35651164132787 -47.97322798038978 7.7571777263878303 0 -1 0 I I #
coedge $-1 $387 $319 $226 $325 forward $315 $-1 #
edge $-1 $328 7.1887146431941495 $326 29.146879353073292 $324 $393 forward 7 unknown #
vertex $-1 $325 $394 #
straight-curve $-1 47.314676351207005 -20.17563993153875 8.7465818373124158 0 0.65605901945558975 0.75470958851134939 I I #
vertex $-1 $325 $395 #
straight-curve $-1 25.35651164132787 -24.528776121645336 3.7388713641061315 0 0.65605901945558964 0.75470958851134928 I I #
edge $-1 $396 -24.528776121645357 $230 -21.035715781560569 $317 $397 forward 7 unknown #
point $-1 47.314676351207012 -21.035715781560569 7.7571777263878294 #
point $-1 25.35651164132787 -21.035715781560569 7.7571777263878294 #
edge $-1 $398 1 $398 0 $233 $-1 forward 7 unknown #
vertex $-1 $234 $399 #
ellipse-curve $-1 31.630272987007622 -20.168735498757648 3.4761346274142295 0 -0.75470958851134928 0.65605901945558964 1 0 0 1 I I #
point $-1 32.630272987007622 -22.782245951602977 5.7480245452469818 #
edge $-1 $400 1 $400 0 $237 $-1 forward 7 unknown #
vertex $-1 $238 $401 #
ellipse-curve $-1 41.04091500552726 -20.168735498757648 3.4761346274142295 0 -0.75470958851134928 0.65605901945558964 1 0 0 1 I I #
point $-1 42.04091500552726 -22.782245951602977 5.7480245452469818 #
plane-surface $-1 47.314676351207005 0 0 -1 0 0 0 0 1 forward_v I I I I #
coedge $-1 $246 $244 $248 $346 reversed $161 $-1 #
edge $-1 $259 -7.7571777263878294 $348 7.7571777263878294 $258 $402 forward 7 unknown #
vertex $-1 $346 $403 #
straight-curve $-1 -47.314676351207005 -24.528776121645357 0 0 0 -1 I I #
edge $-1 $344 -24.528776121645357 $348 24.528776121645357 $342 $404 forward 7 unknown #
straight-curve $-1 0 -24.528776121645357 -7.7571777263878294 -1 0 0 I I #
vertex $-1 $251 $405 #
straight-curve $-1 0 24.528776121645357 -7.7571777263878294 1 0 0 I I #
point $-1 47.314676351207005 24.528776121645357 -7.7571777263878294 #
point $-1 47.314676351207005 -24.528776121645357 -7.7571777263878294 #
straight-curve $-1 -47.314676351207005 0 7.7571777263878294 0 -1 0 I I #
point $-1 -47.314676351207005 24.528776121645357 7.7571777263878294 #
point $-1 -47.314676351207005 -24.528776121645357 7.7571777263878294 #
straight-curve $-1 47.314676351207005 -24.528776121645357 0 0 0 -1 I I #
straight-curve $-1 47.314676351207005 24.528776121645357 0 0 0 -1 I I #
plane-surface $-1 0 -24.528776121645357 0 0 1 0 0 0 1 forward_v I I I I #
coedge $-1 $406 $271 $281 $369 reversed $180 $-1 #
coedge $-1 $271 $406 $284 $371 forward $180 $-1 #
coedge $-1 $407 $274 $272 $361 forward $269 $-1 #
edge $-1 $362 37.085514037960003 $408 47.314676351207005 $272 $409 forward 7 unknown #
vertex $-1 $361 $410 #
straight-curve $-1 -37.085514037960003 24.528776121645357 3.1124944700093899 0 0 -1 I I #
coedge $-1 $274 $407 $276 $366 forward $269 $-1 #
straight-curve $-1 -37.085514037960003 0 7.7571777263878294 0 1 0 I I #
edge $-1 $411 -47.314676351207005 $278 -37.085514037960003 $276 $412 forward 7 unknown #
point $-1 -37.085514037960003 -24.528776121645357 7.7571777263878303 #
straight-curve $-1 -47.314676351207005 0 4.6928001536497295 0 -1 0 I I #
edge $-1 $411 -7.7571777263878294 $282 -4.6928001536497295 $358 $413 forward 7 unknown #
point $-1 -47.314676351207005 -24.528776121645357 4.6928001536497295 #
edge $-1 $408 -7.7571777263878294 $285 -4.6928001536497295 $284 $414 forward 7 unknown #
point $-1 -47.314676351207005 24.528776121645357 4.6928001536497295 #
coedge $-1 $300 $299 $292 $374 forward $289 $-1 #
edge $-1 $375 43.57188425543125 $378 48.447199807411934 $373 $415 forward 7 unknown #
vertex $-1 $304 $416 #
straight-curve $-1 21.032589305622363 31.013090738260818 7.7571777263878303 0 1 0 I I #
edge $-1 $378 -15.215847781562516 $301 3.582364733442823 $300 $417 forward 7 unknown #
vertex $-1 $377 $418 #
straight-curve $-1 21.032589305622363 -8.2971331061969309 39.338728680850835 0 -0.66913059716165679 0.74314483375859142 I I #
point $-1 21.032589305622363 20.139022390667968 7.7571777263878303 #
point $-1 2.2343767906170235 24.528776121645357 2.8818621744071464 #
straight-curve $-1 0 24.528776121645357 7.7571777263878294 -1 0 0 I I #
vertex $-1 $307 $419 #
point $-1 9.1052946520471139 18.93796981158054 2.2618114204526512 #
vertex $-1 $311 $420 #
point $-1 17.161671444192258 18.93796981158054 2.2618114204526512 #
coedge $-1 $389 $324 $318 $388 reversed $315 $-1 #
edge $-1 $396 -7.7571777263878294 $326 -3.7388713641061071 $318 $421 forward 7 unknown #
coedge $-1 $319 $387 $321 $391 reversed $315 $-1 #
straight-curve $-1 25.35651164132787 -24.528776121645357 32.91065585488451 0 0 -1 I I #
edge $-1 $322 25.35651164132787 $396 47.314676351207005 $389 $422 forward 7 unknown #
point $-1 25.35651164132787 -24.528776121645357 7.7571777263878294 #
straight-curve $-1 18.167796998133721 -24.528776121645357 3.7388713641061075 1 0 0 I I #
point $-1 47.314676351207012 -24.528776121645357 3.7388713641061071 #
point $-1 25.35651164132787 -24.528776121645357 3.7388713641061071 #
vertex $-1 $330 $423 #
straight-curve $-1 47.314676351207005 0 7.7571777263878294 0 1 0 I I #
vertex $-1 $333 $424 #
point $-1 32.630272987007622 -20.168735498757648 3.4761346274142295 #
vertex $-1 $337 $425 #
point $-1 42.04091500552726 -20.168735498757648 3.4761346274142295 #
straight-curve $-1 -47.314676351207005 24.528776121645357 0 0 0 -1 I I #
point $-1 -47.314676351207005 -24.528776121645357 -7.7571777263878294 #
straight-curve $-1 -47.314676351207005 0 -7.7571777263878294 0 1 0 I I #
point $-1 -47.314676351207005 24.528776121645357 -7.7571777263878294 #
coedge $-1 $359 $358 $407 $426 reversed $180 $-1 #
coedge $-1 $364 $360 $406 $426 forward $269 $-1 #
vertex $-1 $361 $427 #
straight-curve $-1 0 24.528776121645357 7.7571777263878294 -1 0 0 I I #
point $-1 -37.085514037960003 24.528776121645357 7.7571777263878303 #
vertex $-1 $426 $428 #
straight-curve $-1 0 -24.528776121645357 7.7571777263878294 1 0 0 I I #
straight-curve $-1 -47.314676351207005 -24.528776121645357 0 0 0 -1 I I #
straight-curve $-1 -47.314676351207005 24.528776121645357 0 0 0 -1 I I #
straight-curve $-1 21.032589305622363 24.528776121645357 51.329061981819081 0 0 -1 I I #
point $-1 21.032589305622363 24.528776121645357 7.7571777263878294 #
straight-curve $-1 5.8167415240598466 24.528776121645357 2.8818621744071464 -1 0 0 I I #
point $-1 21.032589305622363 24.528776121645357 2.8818621744071464 #
point $-1 7.6052946520471139 17.823252560942652 1.2581155247101661 #
point $-1 15.661671444192258 17.823252560942652 1.2581155247101661 #
straight-curve $-1 47.314676351207005 -24.528776121645357 0 0 0 -1 I I #
straight-curve $-1 0 -24.528776121645357 7.7571777263878294 1 0 0 I I #
point $-1 47.314676351207005 -24.528776121645357 7.7571777263878294 #
point $-1 31.630272987007622 -19.414025910246302 2.8200756079586404 #
point $-1 41.04091500552726 -19.414025910246302 2.8200756079586404 #
edge $-1 $408 -24.528776121645357 $411 24.528776121645357 $406 $429 forward 7 unknown #
point $-1 -47.314676351207005 24.528776121645357 7.7571777263878294 #
point $-1 -47.314676351207005 -24.528776121645357 7.7571777263878294 #
straight-curve $-1 -47.314676351207005 0 7.7571777263878294 0 -1 0 I I #
End-of-ACIS-data 