500 0 16 0           
7 Unknown 11 ACIS 5.0 NT 24 Fri Mar 26 15:02:30 1999 
-1 9.9999999999999995e-007 1e-010 
body $-1 $16 $-1 $17 #
body $-1 $18 $-1 $19 #
body $-1 $20 $-1 $21 #
body $-1 $22 $-1 $23 #
body $-1 $24 $-1 $25 #
body $-1 $26 $-1 $27 #
body $-1 $28 $-1 $29 #
body $-1 $30 $-1 $31 #
body $-1 $32 $-1 $33 #
body $-1 $34 $-1 $35 #
body $-1 $36 $-1 $37 #
body $-1 $38 $-1 $39 #
body $-1 $40 $-1 $41 #
body $-1 $42 $-1 $43 #
body $-1 $44 $-1 $45 #
body $-1 $46 $-1 $47 #
lump $-1 $-1 $48 $0 #
transform $-1 1 0 0 0 1 0 0 0 1 72.366710409863572 45.089228788957627 13.262841085134749 1 rotate no_reflect no_shear #
lump $-1 $-1 $49 $1 #
transform $-1 1 0 0 0 1 0 0 0 1 72.366710409863572 45.089228788957627 13.262841085134749 1 rotate no_reflect no_shear #
lump $-1 $-1 $50 $2 #
transform $-1 1 0 0 0 1 0 0 0 1 72.366710409863572 45.089228788957627 13.262841085134749 1 rotate no_reflect no_shear #
lump $-1 $-1 $51 $3 #
transform $-1 1 0 0 0 1 0 0 0 1 72.366710409863572 45.089228788957627 13.262841085134749 1 rotate no_reflect no_shear #
lump $-1 $-1 $52 $4 #
transform $-1 1 0 0 0 1 0 0 0 1 72.366710409863572 45.089228788957627 13.262841085134749 1 rotate no_reflect no_shear #
lump $-1 $-1 $53 $5 #
transform $-1 1 0 0 0 1 0 0 0 1 72.366710409863572 45.089228788957627 13.262841085134749 1 rotate no_reflect no_shear #
lump $-1 $-1 $54 $6 #
transform $-1 1 0 0 0 1 0 0 0 1 72.366710409863572 45.089228788957627 13.262841085134749 1 rotate no_reflect no_shear #
lump $-1 $-1 $55 $7 #
transform $-1 1 0 0 0 1 0 0 0 1 72.366710409863572 45.089228788957627 13.262841085134749 1 rotate no_reflect no_shear #
lump $-1 $-1 $56 $8 #
transform $-1 1 0 0 0 1 0 0 0 1 72.366710409863572 45.089228788957627 13.262841085134749 1 rotate no_reflect no_shear #
lump $-1 $-1 $57 $9 #
transform $-1 1 0 0 0 1 0 0 0 1 72.366710409863572 45.089228788957627 13.262841085134749 1 rotate no_reflect no_shear #
lump $-1 $-1 $58 $10 #
transform $-1 1 0 0 0 1 0 0 0 1 72.366710409863572 45.089228788957627 13.262841085134749 1 rotate no_reflect no_shear #
lump $-1 $-1 $59 $11 #
transform $-1 1 0 0 0 1 0 0 0 1 72.366710409863572 45.089228788957627 13.262841085134749 1 rotate no_reflect no_shear #
lump $-1 $-1 $60 $12 #
transform $-1 1 0 0 0 1 0 0 0 1 72.366710409863572 45.089228788957627 13.262841085134749 1 rotate no_reflect no_shear #
lump $-1 $-1 $61 $13 #
transform $-1 1 0 0 0 1 0 0 0 1 72.366710409863572 45.089228788957627 13.262841085134749 1 rotate no_reflect no_shear #
lump $-1 $-1 $62 $14 #
transform $-1 1 0 0 0 1 0 0 0 1 72.366710409863572 45.089228788957627 13.262841085134749 1 rotate no_reflect no_shear #
lump $-1 $-1 $63 $15 #
transform $-1 1 0 0 0 1 0 0 0 1 72.366710409863572 45.089228788957627 13.262841085134749 1 rotate no_reflect no_shear #
shell $-1 $-1 $-1 $64 $-1 $16 #
shell $-1 $-1 $-1 $65 $-1 $18 #
shell $-1 $-1 $-1 $66 $-1 $20 #
shell $-1 $-1 $-1 $67 $-1 $22 #
shell $-1 $-1 $-1 $68 $-1 $24 #
shell $-1 $-1 $-1 $69 $-1 $26 #
shell $-1 $-1 $-1 $70 $-1 $28 #
shell $-1 $-1 $-1 $71 $-1 $30 #
shell $-1 $-1 $-1 $72 $-1 $32 #
shell $-1 $-1 $-1 $73 $-1 $34 #
shell $-1 $-1 $-1 $74 $-1 $36 #
shell $-1 $-1 $-1 $75 $-1 $38 #
shell $-1 $-1 $-1 $76 $-1 $40 #
shell $-1 $-1 $-1 $77 $-1 $42 #
shell $-1 $-1 $-1 $78 $-1 $44 #
shell $-1 $-1 $-1 $79 $-1 $46 #
face $-1 $80 $81 $48 $-1 $82 forward single #
face $-1 $83 $84 $49 $-1 $85 reversed single #
face $-1 $86 $87 $50 $-1 $88 reversed single #
face $-1 $89 $90 $51 $-1 $91 forward single #
face $-1 $92 $93 $52 $-1 $94 reversed single #
face $-1 $95 $96 $53 $-1 $97 forward single #
face $-1 $98 $99 $54 $-1 $100 forward single #
face $-1 $101 $102 $55 $-1 $103 reversed single #
face $-1 $104 $105 $56 $-1 $106 forward single #
face $-1 $107 $108 $57 $-1 $109 forward single #
face $-1 $110 $111 $58 $-1 $112 reversed single #
face $-1 $113 $114 $59 $-1 $115 forward single #
face $-1 $116 $117 $60 $-1 $118 forward single #
face $-1 $119 $120 $61 $-1 $121 reversed single #
face $-1 $122 $123 $62 $-1 $124 forward single #
face $-1 $125 $126 $63 $-1 $127 forward single #
face $-1 $128 $129 $48 $-1 $130 reversed single #
loop $-1 $-1 $131 $64 #
plane-surface $-1 0 0 13.262841085134749 0 0 1 1 0 0 forward_v I I I I #
face $-1 $132 $133 $49 $-1 $134 reversed single #
loop $-1 $-1 $135 $65 #
plane-surface $-1 -52.069427118033865 -39.619876306542572 0 1 0 0 0 0 -1 forward_v I I I I #
face $-1 $136 $137 $50 $-1 $138 reversed single #
loop $-1 $-1 $139 $66 #
plane-surface $-1 -178.21803467054093 6.9960662740097348 104.87186050457611 0 1 0 -0.73135370988377701 0 0.68199835119979291 forward_v I I I I #
face $-1 $140 $141 $51 $-1 $142 forward single #
loop $-1 $143 $144 $67 #
cone-surface $-1 -68.444690800970378 16.86953726483388 9.1425925904691763 0.73135370988377701 0 -0.68199835119979291 0.68199835119979291 0 0.73135370988377701 1 I I 0 1 1 forward I I I I #
face $-1 $145 $146 $52 $-1 $147 reversed single #
loop $-1 $-1 $148 $68 #
plane-surface $-1 83.079044061898571 -14.340585670856228 206.70333041532038 0 -1 0 -0.74314483375859142 0 -0.66913059716165679 forward_v I I I I #
face $-1 $149 $150 $53 $-1 $151 forward single #
loop $-1 $152 $153 $69 #
cone-surface $-1 66.645498003957243 -23.231302565623608 7.0739440015305775 -0.74314483375859142 0 -0.66913059716165679 1.0036958957424851 0 -1.1147172506378871 1 I I 0 1 1.5 forward I I I I #
face $-1 $154 $155 $54 $-1 $156 forward single #
loop $-1 $157 $158 $70 #
cone-surface $-1 66.645498003957243 -17.896872428763182 7.0739440015305775 -0.74314483375859142 0 -0.66913059716165679 1.0036958957424851 0 -1.1147172506378871 1 I I 0 1 1.5 forward I I I I #
face $-1 $159 $160 $55 $-1 $161 reversed single #
loop $-1 $-1 $162 $71 #
plane-surface $-1 83.079044061898571 3.0150409822160746 206.70333041532038 0 -1 0 -0.74314483375859142 0 -0.66913059716165679 forward_v I I I I #
face $-1 $163 $164 $56 $-1 $165 forward single #
loop $-1 $166 $167 $72 #
cone-surface $-1 66.645498003957243 -5.8756759125513014 7.0739440015305775 -0.74314483375859142 0 -0.66913059716165679 1.0036958957424851 0 -1.1147172506378871 1 I I 0 1 1.5 forward I I I I #
face $-1 $168 $169 $57 $-1 $170 forward single #
loop $-1 $171 $172 $73 #
cone-surface $-1 66.645498003957243 -0.54124577569088217 7.0739440015305775 -0.74314483375859142 0 -0.66913059716165679 1.0036958957424851 0 -1.1147172506378871 1 I I 0 1 1.5 forward I I I I #
face $-1 $173 $174 $58 $-1 $175 reversed single #
loop $-1 $-1 $176 $74 #
plane-surface $-1 83.079044061898571 20.370667635288381 206.70333041532038 0 -1 0 -0.74314483375859142 0 -0.66913059716165679 forward_v I I I I #
face $-1 $177 $178 $59 $-1 $179 forward single #
loop $-1 $180 $181 $75 #
cone-surface $-1 66.645498003957243 11.479950740521005 7.0739440015305775 -0.74314483375859142 0 -0.66913059716165679 1.0036958957424851 0 -1.1147172506378871 1 I I 0 1 1.5 forward I I I I #
face $-1 $182 $183 $60 $-1 $184 forward single #
loop $-1 $185 $186 $76 #
cone-surface $-1 66.645498003957243 16.814380877381424 7.0739440015305775 -0.74314483375859142 0 -0.66913059716165679 1.0036958957424851 0 -1.1147172506378871 1 I I 0 1 1.5 forward I I I I #
face $-1 $187 $188 $61 $-1 $189 reversed single #
loop $-1 $-1 $190 $77 #
plane-surface $-1 83.079044061898571 37.726294288360691 206.70333041532038 0 -1 0 -0.74314483375859142 0 -0.66913059716165679 forward_v I I I I #
face $-1 $191 $192 $62 $-1 $193 forward single #
loop $-1 $194 $195 $78 #
cone-surface $-1 66.645498003957243 28.835577393593312 7.0739440015305775 -0.74314483375859142 0 -0.66913059716165679 1.0036958957424851 0 -1.1147172506378871 1 I I 0 1 1.5 forward I I I I #
face $-1 $196 $197 $63 $-1 $198 forward single #
loop $-1 $199 $200 $79 #
cone-surface $-1 66.645498003957243 34.170007530453731 7.0739440015305775 -0.74314483375859142 0 -0.66913059716165679 1.0036958957424851 0 -1.1147172506378871 1 I I 0 1 1.5 forward I I I I #
face $-1 $201 $202 $48 $-1 $203 reversed single #
loop $-1 $-1 $204 $80 #
plane-surface $-1 0 0 -13.262841085134749 0 0 1 1 0 0 forward_v I I I I #
coedge $-1 $205 $206 $207 $208 forward $81 $-1 #
face $-1 $209 $210 $49 $-1 $211 reversed single #
loop $-1 $-1 $212 $83 #
plane-surface $-1 -48.955227678813969 -34.150523824127518 0 0 -1 0 0 0 -1 forward_v I I I I #
coedge $-1 $213 $214 $215 $216 forward $84 $-1 #
face $-1 $217 $218 $50 $-1 $219 reversed single #
loop $-1 $-1 $220 $86 #
plane-surface $-1 -72.3667104098636 16.86953726483388 6.1639061420164154 -0.73135370988377701 0 0.68199835119979291 0.68199835119979291 0 0.73135370988377701 forward_v I I I I #
coedge $-1 $221 $222 $223 $224 reversed $87 $-1 #
face $-1 $-1 $225 $51 $-1 $226 forward single #
loop $-1 $227 $228 $89 #
cone-surface $-1 -67.466926221702252 16.86953726483388 8.2308123917628784 0.73135370988377701 0 -0.68199835119979291 0.34099917559989645 0 0.36567685494188851 1 I I -0.70710678118654746 0.70710678118654746 0.5 forward I I I I #
loop $-1 $-1 $229 $67 #
coedge $-1 $144 $144 $230 $231 reversed $90 $-1 #
face $-1 $232 $233 $52 $-1 $234 reversed single #
loop $-1 $-1 $235 $92 #
plane-surface $-1 -24.478849892489805 -20.564087497193395 109.85777011296699 0.74314483375859142 0 0.66913059716165679 0.66913059716165679 0 -0.74314483375859142 forward_v I I I I #
coedge $-1 $236 $237 $238 $239 reversed $93 $-1 #
face $-1 $-1 $240 $53 $-1 $241 forward single #
loop $-1 $242 $243 $95 #
cone-surface $-1 65.302475828577059 -23.231302565623608 5.8646814333332493 -0.74314483375859142 0 -0.66913059716165679 0.50184794787124254 0 -0.55735862531894353 1 I I -0.70710678118654757 0.70710678118654757 0.75 forward I I I I #
loop $-1 $-1 $244 $69 #
coedge $-1 $153 $153 $245 $246 reversed $96 $-1 #
face $-1 $-1 $247 $54 $-1 $248 forward single #
loop $-1 $249 $250 $98 #
cone-surface $-1 65.302475828577059 -17.896872428763182 5.8646814333332493 -0.74314483375859142 0 -0.66913059716165679 0.50184794787124254 0 -0.55735862531894353 1 I I -0.70710678118654757 0.70710678118654757 0.75 forward I I I I #
loop $-1 $-1 $251 $70 #
coedge $-1 $158 $158 $252 $253 reversed $99 $-1 #
face $-1 $254 $255 $55 $-1 $256 reversed single #
loop $-1 $-1 $257 $101 #
plane-surface $-1 -24.478849892489805 -3.2084608441210918 109.85777011296699 0.74314483375859142 0 0.66913059716165679 0.66913059716165679 0 -0.74314483375859142 forward_v I I I I #
coedge $-1 $258 $259 $260 $261 reversed $102 $-1 #
face $-1 $-1 $262 $56 $-1 $263 forward single #
loop $-1 $264 $265 $104 #
cone-surface $-1 65.302475828577059 -5.8756759125513014 5.8646814333332493 -0.74314483375859142 0 -0.66913059716165679 0.50184794787124254 0 -0.55735862531894353 1 I I -0.70710678118654757 0.70710678118654757 0.75 forward I I I I #
loop $-1 $-1 $266 $72 #
coedge $-1 $167 $167 $267 $268 reversed $105 $-1 #
face $-1 $-1 $269 $57 $-1 $270 forward single #
loop $-1 $271 $272 $107 #
cone-surface $-1 65.302475828577059 -0.54124577569088217 5.8646814333332493 -0.74314483375859142 0 -0.66913059716165679 0.50184794787124254 0 -0.55735862531894353 1 I I -0.70710678118654757 0.70710678118654757 0.75 forward I I I I #
loop $-1 $-1 $273 $73 #
coedge $-1 $172 $172 $274 $275 reversed $108 $-1 #
face $-1 $276 $277 $58 $-1 $278 reversed single #
loop $-1 $-1 $279 $110 #
plane-surface $-1 -24.478849892489805 14.147165808951215 109.85777011296699 0.74314483375859142 0 0.66913059716165679 0.66913059716165679 0 -0.74314483375859142 forward_v I I I I #
coedge $-1 $280 $281 $282 $283 reversed $111 $-1 #
face $-1 $-1 $284 $59 $-1 $285 forward single #
loop $-1 $286 $287 $113 #
cone-surface $-1 65.302475828577059 11.479950740521005 5.8646814333332493 -0.74314483375859142 0 -0.66913059716165679 0.50184794787124254 0 -0.55735862531894353 1 I I -0.70710678118654757 0.70710678118654757 0.75 forward I I I I #
loop $-1 $-1 $288 $75 #
coedge $-1 $181 $181 $289 $290 reversed $114 $-1 #
face $-1 $-1 $291 $60 $-1 $292 forward single #
loop $-1 $293 $294 $116 #
cone-surface $-1 65.302475828577059 16.814380877381424 5.8646814333332493 -0.74314483375859142 0 -0.66913059716165679 0.50184794787124254 0 -0.55735862531894353 1 I I -0.70710678118654757 0.70710678118654757 0.75 forward I I I I #
loop $-1 $-1 $295 $76 #
coedge $-1 $186 $186 $296 $297 reversed $117 $-1 #
face $-1 $298 $299 $61 $-1 $300 reversed single #
loop $-1 $-1 $301 $119 #
plane-surface $-1 -24.478849892489805 31.502792462023521 109.85777011296699 0.74314483375859142 0 0.66913059716165679 0.66913059716165679 0 -0.74314483375859142 forward_v I I I I #
coedge $-1 $302 $303 $304 $305 reversed $120 $-1 #
face $-1 $-1 $306 $62 $-1 $307 forward single #
loop $-1 $308 $309 $122 #
cone-surface $-1 65.302475828577059 28.835577393593312 5.8646814333332493 -0.74314483375859142 0 -0.66913059716165679 0.50184794787124254 0 -0.55735862531894353 1 I I -0.70710678118654757 0.70710678118654757 0.75 forward I I I I #
loop $-1 $-1 $310 $78 #
coedge $-1 $195 $195 $311 $312 reversed $123 $-1 #
face $-1 $-1 $313 $63 $-1 $314 forward single #
loop $-1 $315 $316 $125 #
cone-surface $-1 65.302475828577059 34.170007530453731 5.8646814333332493 -0.74314483375859142 0 -0.66913059716165679 0.50184794787124254 0 -0.55735862531894353 1 I I -0.70710678118654757 0.70710678118654757 0.75 forward I I I I #
loop $-1 $-1 $317 $79 #
coedge $-1 $200 $200 $318 $319 reversed $126 $-1 #
face $-1 $320 $321 $48 $-1 $322 reversed single #
loop $-1 $-1 $323 $128 #
plane-surface $-1 0 -45.089228788957627 0 0 1 0 0 0 1 forward_v I I I I #
coedge $-1 $324 $325 $326 $327 forward $129 $-1 #
coedge $-1 $328 $131 $329 $330 forward $81 $-1 #
coedge $-1 $131 $328 $331 $332 forward $81 $-1 #
coedge $-1 $333 $334 $131 $208 reversed $335 $-1 #
edge $-1 $336 -45.089228788957627 $337 45.089228788957627 $207 $338 forward 7 unknown #
face $-1 $339 $340 $49 $-1 $341 forward single #
loop $-1 $-1 $342 $132 #
plane-surface $-1 -45.841028239594074 -39.619876306542572 0 -1 0 0 0 0 1 forward_v I I I I #
coedge $-1 $343 $344 $345 $346 forward $133 $-1 #
coedge $-1 $347 $135 $348 $349 reversed $84 $-1 #
coedge $-1 $135 $347 $350 $351 reversed $84 $-1 #
coedge $-1 $344 $343 $135 $216 reversed $133 $-1 #
edge $-1 $352 -13.262841085134749 $353 13.262841085134749 $215 $354 forward 7 unknown #
face $-1 $355 $356 $50 $-1 $357 reversed single #
loop $-1 $-1 $358 $136 #
plane-surface $-1 -178.21803467054093 26.743008255658026 104.87186050457611 0 -1 0 0.73135370988377701 0 -0.68199835119979291 forward_v I I I I #
coedge $-1 $359 $360 $361 $362 reversed $137 $-1 #
coedge $-1 $222 $139 $363 $364 reversed $87 $-1 #
coedge $-1 $139 $221 $359 $365 reversed $87 $-1 #
coedge $-1 $361 $366 $139 $224 forward $367 $-1 #
edge $-1 $368 16.742306925406893 $369 23.362170694540794 $223 $370 forward 7 unknown #
loop $-1 $-1 $230 $140 #
plane-surface $-1 -72.3667104098636 16.86953726483388 6.1639061420164154 -0.73135370988377701 0 0.68199835119979291 0.68199835119979291 0 0.73135370988377701 forward_v I I I I #
loop $-1 $-1 $371 $89 #
coedge $-1 $228 $228 $229 $372 reversed $141 $-1 #
coedge $-1 $229 $229 $228 $372 forward $143 $-1 #
coedge $-1 $230 $230 $144 $231 forward $225 $-1 #
edge $-1 $373 0 $373 6.2831853071796004 $230 $374 forward 7 unknown #
face $-1 $375 $376 $52 $-1 $377 forward single #
loop $-1 $-1 $378 $145 #
plane-surface $-1 83.079044061898571 -26.787589323530561 206.70333041532038 0 1 0 0.74314483375859142 0 0.66913059716165679 forward_v I I I I #
coedge $-1 $379 $380 $381 $382 reversed $146 $-1 #
coedge $-1 $237 $148 $383 $384 reversed $93 $-1 #
coedge $-1 $148 $236 $379 $385 reversed $93 $-1 #
coedge $-1 $381 $386 $148 $239 forward $376 $-1 #
edge $-1 $387 -30.827188378914286 $388 -20.956090667224117 $238 $389 forward 7 unknown #
loop $-1 $-1 $245 $149 #
plane-surface $-1 -24.478849892489805 -20.564087497193395 109.85777011296699 0.74314483375859142 0 0.66913059716165679 0.66913059716165679 0 -0.74314483375859142 forward_v I I I I #
loop $-1 $-1 $390 $95 #
coedge $-1 $243 $243 $244 $391 reversed $150 $-1 #
coedge $-1 $244 $244 $243 $391 forward $152 $-1 #
coedge $-1 $245 $245 $153 $246 forward $240 $-1 #
edge $-1 $392 0 $392 6.2831853071796004 $245 $393 forward 7 unknown #
loop $-1 $-1 $252 $154 #
plane-surface $-1 -24.478849892489805 -20.564087497193395 109.85777011296699 0.74314483375859142 0 0.66913059716165679 0.66913059716165679 0 -0.74314483375859142 forward_v I I I I #
loop $-1 $-1 $394 $98 #
coedge $-1 $250 $250 $251 $395 reversed $155 $-1 #
coedge $-1 $251 $251 $250 $395 forward $157 $-1 #
coedge $-1 $252 $252 $158 $253 forward $247 $-1 #
edge $-1 $396 0 $396 6.2831853071796004 $252 $397 forward 7 unknown #
face $-1 $398 $399 $55 $-1 $400 reversed single #
loop $-1 $-1 $401 $159 #
plane-surface $-1 83.079044061898571 -9.4319626704582582 206.70333041532038 0 1 0 0.74314483375859142 0 0.66913059716165679 forward_v I I I I #
coedge $-1 $402 $403 $404 $405 reversed $160 $-1 #
coedge $-1 $259 $162 $406 $407 reversed $102 $-1 #
coedge $-1 $162 $258 $402 $408 reversed $102 $-1 #
coedge $-1 $404 $409 $162 $261 forward $410 $-1 #
edge $-1 $411 -30.827188378914286 $412 -20.956090667224117 $260 $413 forward 7 unknown #
loop $-1 $-1 $267 $163 #
plane-surface $-1 -24.478849892489805 -3.2084608441210918 109.85777011296699 0.74314483375859142 0 0.66913059716165679 0.66913059716165679 0 -0.74314483375859142 forward_v I I I I #
loop $-1 $-1 $414 $104 #
coedge $-1 $265 $265 $266 $415 reversed $164 $-1 #
coedge $-1 $266 $266 $265 $415 forward $166 $-1 #
coedge $-1 $267 $267 $167 $268 forward $262 $-1 #
edge $-1 $416 0 $416 6.2831853071796004 $267 $417 forward 7 unknown #
loop $-1 $-1 $274 $168 #
plane-surface $-1 -24.478849892489805 -3.2084608441210918 109.85777011296699 0.74314483375859142 0 0.66913059716165679 0.66913059716165679 0 -0.74314483375859142 forward_v I I I I #
loop $-1 $-1 $418 $107 #
coedge $-1 $272 $272 $273 $419 reversed $169 $-1 #
coedge $-1 $273 $273 $272 $419 forward $171 $-1 #
coedge $-1 $274 $274 $172 $275 forward $269 $-1 #
edge $-1 $420 0 $420 6.2831853071796004 $274 $421 forward 7 unknown #
face $-1 $422 $423 $58 $-1 $424 reversed single #
loop $-1 $-1 $425 $173 #
plane-surface $-1 83.079044061898571 7.9236639826140483 206.70333041532038 0 1 0 0.74314483375859142 0 0.66913059716165679 forward_v I I I I #
coedge $-1 $426 $427 $428 $429 reversed $174 $-1 #
coedge $-1 $281 $176 $430 $431 reversed $111 $-1 #
coedge $-1 $176 $280 $426 $432 reversed $111 $-1 #
coedge $-1 $428 $433 $176 $283 forward $434 $-1 #
edge $-1 $435 -30.827188378914286 $436 -20.956090667224117 $282 $437 forward 7 unknown #
loop $-1 $-1 $289 $177 #
plane-surface $-1 -24.478849892489805 14.147165808951215 109.85777011296699 0.74314483375859142 0 0.66913059716165679 0.66913059716165679 0 -0.74314483375859142 forward_v I I I I #
loop $-1 $-1 $438 $113 #
coedge $-1 $287 $287 $288 $439 reversed $178 $-1 #
coedge $-1 $288 $288 $287 $439 forward $180 $-1 #
coedge $-1 $289 $289 $181 $290 forward $284 $-1 #
edge $-1 $440 0 $440 6.2831853071796004 $289 $441 forward 7 unknown #
loop $-1 $-1 $296 $182 #
plane-surface $-1 -24.478849892489805 14.147165808951215 109.85777011296699 0.74314483375859142 0 0.66913059716165679 0.66913059716165679 0 -0.74314483375859142 forward_v I I I I #
loop $-1 $-1 $442 $116 #
coedge $-1 $294 $294 $295 $443 reversed $183 $-1 #
coedge $-1 $295 $295 $294 $443 forward $185 $-1 #
coedge $-1 $296 $296 $186 $297 forward $291 $-1 #
edge $-1 $444 0 $444 6.2831853071796004 $296 $445 forward 7 unknown #
face $-1 $446 $447 $61 $-1 $448 reversed single #
loop $-1 $-1 $449 $187 #
plane-surface $-1 83.079044061898571 25.279290635686355 206.70333041532038 0 1 0 0.74314483375859142 0 0.66913059716165679 forward_v I I I I #
coedge $-1 $450 $451 $452 $453 reversed $188 $-1 #
coedge $-1 $303 $190 $454 $455 reversed $120 $-1 #
coedge $-1 $190 $302 $450 $456 reversed $120 $-1 #
coedge $-1 $452 $457 $190 $305 forward $458 $-1 #
edge $-1 $459 -30.827188378914286 $460 -20.956090667224117 $304 $461 forward 7 unknown #
loop $-1 $-1 $311 $191 #
plane-surface $-1 -24.478849892489805 31.502792462023521 109.85777011296699 0.74314483375859142 0 0.66913059716165679 0.66913059716165679 0 -0.74314483375859142 forward_v I I I I #
loop $-1 $-1 $462 $122 #
coedge $-1 $309 $309 $310 $463 reversed $192 $-1 #
coedge $-1 $310 $310 $309 $463 forward $194 $-1 #
coedge $-1 $311 $311 $195 $312 forward $306 $-1 #
edge $-1 $464 0 $464 6.2831853071796004 $311 $465 forward 7 unknown #
loop $-1 $-1 $318 $196 #
plane-surface $-1 -24.478849892489805 31.502792462023521 109.85777011296699 0.74314483375859142 0 0.66913059716165679 0.66913059716165679 0 -0.74314483375859142 forward_v I I I I #
loop $-1 $-1 $466 $125 #
coedge $-1 $316 $316 $317 $467 reversed $197 $-1 #
coedge $-1 $317 $317 $316 $467 forward $199 $-1 #
coedge $-1 $318 $318 $200 $319 forward $313 $-1 #
edge $-1 $468 0 $468 6.2831853071796004 $318 $469 forward 7 unknown #
face $-1 $470 $471 $48 $-1 $472 reversed single #
loop $-1 $-1 $473 $201 #
plane-surface $-1 -72.366710409863572 0 0 1 0 0 0 0 -1 forward_v I I I I #
coedge $-1 $474 $331 $475 $476 forward $202 $-1 #
coedge $-1 $477 $204 $474 $478 forward $129 $-1 #
coedge $-1 $204 $477 $479 $480 forward $129 $-1 #
coedge $-1 $334 $333 $204 $327 reversed $335 $-1 #
edge $-1 $481 -45.089228788957627 $482 45.089228788957627 $326 $483 forward 7 unknown #
coedge $-1 $206 $205 $484 $485 forward $81 $-1 #
coedge $-1 $486 $487 $205 $330 reversed $471 $-1 #
edge $-1 $337 -72.366710409863572 $488 72.366710409863572 $329 $489 forward 7 unknown #
coedge $-1 $323 $490 $206 $332 reversed $202 $-1 #
edge $-1 $491 -72.366710409863572 $336 72.366710409863572 $331 $492 forward 7 unknown #
coedge $-1 $326 $207 $490 $493 forward $335 $-1 #
coedge $-1 $207 $326 $486 $494 reversed $335 $-1 #
loop $-1 $-1 $333 $470 #
vertex $-1 $208 $495 #
vertex $-1 $208 $496 #
straight-curve $-1 72.366710409863572 0 13.262841085134749 0 1 0 I I #
face $-1 $497 $498 $49 $-1 $499 reversed single #
loop $-1 $-1 $500 $209 #
plane-surface $-1 0 0 13.262841085134749 0 0 1 1 0 0 forward_v I I I I #
coedge $-1 $501 $502 $503 $504 reversed $210 $-1 #
coedge $-1 $215 $212 $505 $506 reversed $133 $-1 #
coedge $-1 $212 $215 $507 $508 reversed $133 $-1 #
coedge $-1 $502 $501 $212 $346 reversed $210 $-1 #
edge $-1 $509 -13.262841085134749 $510 13.262841085134749 $345 $511 forward 7 unknown #
coedge $-1 $214 $213 $512 $513 reversed $84 $-1 #
coedge $-1 $505 $514 $213 $349 forward $498 $-1 #
edge $-1 $515 -25.27929063568634 $353 -14.340585670856232 $348 $516 forward 7 unknown #
coedge $-1 $517 $507 $214 $351 forward $340 $-1 #
edge $-1 $352 14.340585670856232 $518 25.27929063568634 $350 $519 forward 7 unknown #
vertex $-1 $351 $520 #
vertex $-1 $349 $521 #
straight-curve $-1 -52.069427118033865 -34.150523824127518 0 0 0 -1 I I #
face $-1 $-1 $367 $50 $-1 $522 forward single #
loop $-1 $-1 $523 $217 #
plane-surface $-1 -72.366710409863572 0 0 1 0 0 0 0 -1 forward_v I I I I #
coedge $-1 $524 $525 $526 $527 reversed $218 $-1 #
coedge $-1 $528 $220 $222 $365 forward $137 $-1 #
coedge $-1 $220 $528 $524 $529 forward $137 $-1 #
coedge $-1 $526 $223 $220 $362 forward $367 $-1 #
edge $-1 $369 -1.4387023584072054 $530 18.308239623241086 $361 $531 forward 7 unknown #
coedge $-1 $532 $533 $221 $364 forward $356 $-1 #
edge $-1 $534 -46.272024110271609 $368 -39.173089167153307 $363 $535 forward 7 unknown #
edge $-1 $369 -9.7065685825897603 $534 -4.1469026767552634e-014 $222 $536 forward 7 unknown #
coedge $-1 $223 $526 $532 $537 forward $367 $-1 #
loop $-1 $-1 $526 $355 #
vertex $-1 $364 $538 #
vertex $-1 $224 $539 #
straight-curve $-1 -89.109017335270465 6.9960662740097348 13.262841085134752 1 0 0 I I #
coedge $-1 $371 $371 $-1 $540 reversed $227 $-1 #
edge $-1 $541 0 $541 6.2831853071796004 $228 $542 forward 7 unknown #
vertex $-1 $231 $543 #
ellipse-curve $-1 -69.056778525296622 16.86953726483388 9.7133736135755928 -0.73135370988377701 0 0.68199835119979291 0.68199835119979291 0 0.73135370988377701 1 I I #
face $-1 $-1 $544 $52 $-1 $545 reversed single #
loop $-1 $-1 $238 $232 #
plane-surface $-1 0 0 13.262841085134749 0 0 1 1 0 0 forward_v I I I I #
coedge $-1 $546 $547 $548 $549 reversed $233 $-1 #
coedge $-1 $550 $235 $237 $385 forward $146 $-1 #
coedge $-1 $235 $550 $546 $551 forward $146 $-1 #
coedge $-1 $548 $238 $235 $382 forward $376 $-1 #
edge $-1 $388 4.0585419222595309 $552 16.505545574933862 $381 $553 forward 7 unknown #
coedge $-1 $554 $555 $236 $384 forward $544 $-1 #
edge $-1 $556 -101.05178904908156 $387 -90.088824122525438 $383 $557 forward 7 unknown #
edge $-1 $388 129.98129656541599 $556 144.73342081972709 $237 $558 forward 7 unknown #
coedge $-1 $238 $548 $554 $559 forward $376 $-1 #
vertex $-1 $384 $560 #
vertex $-1 $239 $561 #
straight-curve $-1 41.539522030949286 -14.340585670856228 13.262841085134752 -1 0 0 I I #
coedge $-1 $390 $390 $-1 $562 reversed $242 $-1 #
edge $-1 $563 0 $563 6.2831853071796004 $243 $564 forward 7 unknown #
vertex $-1 $246 $565 #
ellipse-curve $-1 67.431161554018516 -23.231302565623608 7.7813586218566853 0.74314483375859142 0 0.66913059716165679 1.0036958957424851 0 -1.1147172506378871 1 I I #
coedge $-1 $394 $394 $-1 $566 reversed $249 $-1 #
edge $-1 $567 0 $567 6.2831853071796004 $250 $568 forward 7 unknown #
vertex $-1 $253 $569 #
ellipse-curve $-1 67.431161554018516 -17.896872428763182 7.7813586218566853 0.74314483375859142 0 0.66913059716165679 1.0036958957424851 0 -1.1147172506378871 1 I I #
face $-1 $-1 $410 $55 $-1 $570 forward single #
loop $-1 $-1 $571 $254 #
plane-surface $-1 72.366710409863572 0 0 -1 0 0 0 0 1 forward_v I I I I #
coedge $-1 $572 $573 $574 $575 reversed $255 $-1 #
coedge $-1 $576 $257 $259 $408 forward $160 $-1 #
coedge $-1 $257 $576 $572 $577 forward $160 $-1 #
coedge $-1 $574 $260 $257 $405 forward $410 $-1 #
edge $-1 $412 -4.6192714042766205 $578 7.8277322483977123 $404 $579 forward 7 unknown #
coedge $-1 $580 $581 $258 $407 forward $399 $-1 #
edge $-1 $582 -101.05178904908156 $411 -90.088824122525438 $406 $583 forward 7 unknown #
edge $-1 $412 129.98129656541599 $582 144.73342081972709 $259 $584 forward 7 unknown #
coedge $-1 $260 $574 $580 $585 forward $410 $-1 #
loop $-1 $-1 $574 $398 #
vertex $-1 $407 $586 #
vertex $-1 $261 $587 #
straight-curve $-1 41.539522030949286 3.0150409822160746 13.262841085134752 -1 0 0 I I #
coedge $-1 $414 $414 $-1 $588 reversed $264 $-1 #
edge $-1 $589 0 $589 6.2831853071796004 $265 $590 forward 7 unknown #
vertex $-1 $268 $591 #
ellipse-curve $-1 67.431161554018516 -5.8756759125513014 7.7813586218566853 0.74314483375859142 0 0.66913059716165679 1.0036958957424851 0 -1.1147172506378871 1 I I #
coedge $-1 $418 $418 $-1 $592 reversed $271 $-1 #
edge $-1 $593 0 $593 6.2831853071796004 $272 $594 forward 7 unknown #
vertex $-1 $275 $595 #
ellipse-curve $-1 67.431161554018516 -0.54124577569088217 7.7813586218566853 0.74314483375859142 0 0.66913059716165679 1.0036958957424851 0 -1.1147172506378871 1 I I #
face $-1 $-1 $434 $58 $-1 $596 forward single #
loop $-1 $-1 $597 $276 #
plane-surface $-1 72.366710409863572 0 0 -1 0 0 0 0 1 forward_v I I I I #
coedge $-1 $598 $599 $600 $601 reversed $277 $-1 #
coedge $-1 $602 $279 $281 $432 forward $174 $-1 #
coedge $-1 $279 $602 $598 $603 forward $174 $-1 #
coedge $-1 $600 $282 $279 $429 forward $434 $-1 #
edge $-1 $436 -13.297084730812774 $604 -0.85008107813844092 $428 $605 forward 7 unknown #
coedge $-1 $606 $607 $280 $431 forward $423 $-1 #
edge $-1 $608 -101.05178904908156 $435 -90.088824122525438 $430 $609 forward 7 unknown #
edge $-1 $436 129.98129656541599 $608 144.73342081972709 $281 $610 forward 7 unknown #
coedge $-1 $282 $600 $606 $611 forward $434 $-1 #
loop $-1 $-1 $600 $422 #
vertex $-1 $431 $612 #
vertex $-1 $283 $613 #
straight-curve $-1 41.539522030949286 20.370667635288381 13.262841085134752 -1 0 0 I I #
coedge $-1 $438 $438 $-1 $614 reversed $286 $-1 #
edge $-1 $615 0 $615 6.2831853071796004 $287 $616 forward 7 unknown #
vertex $-1 $290 $617 #
ellipse-curve $-1 67.431161554018516 11.479950740521005 7.7813586218566853 0.74314483375859142 0 0.66913059716165679 1.0036958957424851 0 -1.1147172506378871 1 I I #
coedge $-1 $442 $442 $-1 $618 reversed $293 $-1 #
edge $-1 $619 0 $619 6.2831853071796004 $294 $620 forward 7 unknown #
vertex $-1 $297 $621 #
ellipse-curve $-1 67.431161554018516 16.814380877381424 7.7813586218566853 0.74314483375859142 0 0.66913059716165679 1.0036958957424851 0 -1.1147172506378871 1 I I #
face $-1 $-1 $458 $61 $-1 $622 forward single #
loop $-1 $-1 $623 $298 #
plane-surface $-1 72.366710409863572 0 0 -1 0 0 0 0 1 forward_v I I I I #
coedge $-1 $624 $625 $626 $627 reversed $299 $-1 #
coedge $-1 $628 $301 $303 $456 forward $188 $-1 #
coedge $-1 $301 $628 $624 $629 forward $188 $-1 #
coedge $-1 $626 $304 $301 $453 forward $458 $-1 #
edge $-1 $460 -21.974898057348931 $630 -9.5278944046745941 $452 $631 forward 7 unknown #
coedge $-1 $632 $633 $302 $455 forward $447 $-1 #
edge $-1 $634 -101.05178904908156 $459 -90.088824122525438 $454 $635 forward 7 unknown #
edge $-1 $460 129.98129656541599 $634 144.73342081972709 $303 $636 forward 7 unknown #
coedge $-1 $304 $626 $632 $637 forward $458 $-1 #
loop $-1 $-1 $626 $446 #
vertex $-1 $455 $638 #
vertex $-1 $305 $639 #
straight-curve $-1 41.539522030949286 37.726294288360691 13.262841085134752 -1 0 0 I I #
coedge $-1 $462 $462 $-1 $640 reversed $308 $-1 #
edge $-1 $641 0 $641 6.2831853071796004 $309 $642 forward 7 unknown #
vertex $-1 $312 $643 #
ellipse-curve $-1 67.431161554018516 28.835577393593312 7.7813586218566853 0.74314483375859142 0 0.66913059716165679 1.0036958957424851 0 -1.1147172506378871 1 I I #
coedge $-1 $466 $466 $-1 $644 reversed $315 $-1 #
edge $-1 $645 0 $645 6.2831853071796004 $316 $646 forward 7 unknown #
vertex $-1 $319 $647 #
ellipse-curve $-1 67.431161554018516 34.170007530453731 7.7813586218566853 0.74314483375859142 0 0.66913059716165679 1.0036958957424851 0 -1.1147172506378871 1 I I #
face $-1 $-1 $335 $48 $-1 $648 reversed single #
loop $-1 $-1 $486 $320 #
plane-surface $-1 0 45.089228788957627 0 0 -1 0 0 0 -1 forward_v I I I I #
coedge $-1 $649 $484 $487 $650 forward $321 $-1 #
coedge $-1 $490 $323 $324 $478 reversed $202 $-1 #
coedge $-1 $484 $649 $323 $476 reversed $321 $-1 #
edge $-1 $491 -13.262841085134749 $651 13.262841085134749 $475 $652 forward 7 unknown #
coedge $-1 $325 $324 $649 $653 forward $129 $-1 #
edge $-1 $482 -72.366710409863572 $651 72.366710409863572 $474 $654 forward 7 unknown #
coedge $-1 $487 $486 $325 $480 reversed $471 $-1 #
edge $-1 $655 -72.366710409863572 $481 72.366710409863572 $479 $656 forward 7 unknown #
vertex $-1 $327 $657 #
vertex $-1 $493 $658 #
straight-curve $-1 72.366710409863572 0 -13.262841085134749 0 -1 0 I I #
coedge $-1 $473 $475 $328 $485 reversed $321 $-1 #
edge $-1 $488 -45.089228788957627 $491 45.089228788957627 $484 $659 forward 7 unknown #
coedge $-1 $479 $329 $334 $494 forward $471 $-1 #
coedge $-1 $329 $479 $473 $650 reversed $471 $-1 #
vertex $-1 $330 $660 #
straight-curve $-1 0 45.089228788957627 13.262841085134749 -1 0 0 I I #
coedge $-1 $331 $474 $333 $493 reversed $202 $-1 #
vertex $-1 $485 $661 #
straight-curve $-1 0 -45.089228788957627 13.262841085134749 1 0 0 I I #
edge $-1 $336 -13.262841085134749 $482 13.262841085134749 $333 $662 forward 7 unknown #
edge $-1 $337 -13.262841085134749 $481 13.262841085134749 $334 $663 forward 7 unknown #
point $-1 72.366710409863572 -45.089228788957627 13.262841085134749 #
point $-1 72.366710409863572 45.089228788957627 13.262841085134749 #
face $-1 $-1 $664 $49 $-1 $665 reversed single #
loop $-1 $-1 $666 $339 #
plane-surface $-1 0 0 -13.262841085134749 0 0 1 1 0 0 forward_v I I I I #
coedge $-1 $507 $517 $502 $667 forward $340 $-1 #
coedge $-1 $345 $342 $666 $668 reversed $210 $-1 #
coedge $-1 $342 $345 $500 $667 reversed $210 $-1 #
coedge $-1 $669 $670 $342 $504 forward $664 $-1 #
edge $-1 $671 -13.262841085134749 $672 13.262841085134749 $503 $673 forward 7 unknown #
coedge $-1 $666 $348 $343 $506 forward $498 $-1 #
edge $-1 $353 -27.59181327862688 $510 -21.363414400187089 $505 $674 forward 7 unknown #
coedge $-1 $350 $500 $344 $508 forward $340 $-1 #
edge $-1 $509 21.363414400187089 $352 27.59181327862688 $507 $675 forward 7 unknown #
vertex $-1 $508 $676 #
vertex $-1 $506 $677 #
straight-curve $-1 -45.841028239594074 -34.150523824127518 0 0 0 -1 I I #
coedge $-1 $670 $669 $347 $513 forward $664 $-1 #
edge $-1 $518 -13.262841085134749 $515 13.262841085134749 $512 $678 forward 7 unknown #
coedge $-1 $348 $666 $670 $679 forward $498 $-1 #
vertex $-1 $349 $680 #
straight-curve $-1 -52.069427118033865 -19.809938153271286 -13.262841085134749 0 1 0 I I #
coedge $-1 $500 $350 $669 $681 forward $340 $-1 #
vertex $-1 $681 $682 #
straight-curve $-1 -52.069427118033865 -19.809938153271286 13.262841085134749 0 -1 0 I I #
point $-1 -52.069427118033865 -34.150523824127518 13.262841085134749 #
point $-1 -52.069427118033865 -34.150523824127518 -13.262841085134749 #
plane-surface $-1 0 0 13.262841085134749 0 0 1 1 0 0 forward_v I I I I #
coedge $-1 $533 $532 $525 $683 forward $356 $-1 #
coedge $-1 $525 $358 $360 $529 reversed $218 $-1 #
coedge $-1 $358 $524 $523 $683 reversed $218 $-1 #
coedge $-1 $366 $361 $358 $527 forward $367 $-1 #
edge $-1 $530 -23.362170694540794 $684 -16.742306925406893 $526 $685 forward 7 unknown #
coedge $-1 $360 $359 $533 $686 reversed $137 $-1 #
edge $-1 $687 4.1469026767552634e-014 $530 9.7065685825897603 $524 $688 forward 7 unknown #
vertex $-1 $362 $689 #
straight-curve $-1 -65.746846640729672 8.4347686324169402 13.262841085134747 0 1 0 I I #
coedge $-1 $523 $363 $366 $537 reversed $356 $-1 #
coedge $-1 $363 $523 $528 $686 forward $356 $-1 #
vertex $-1 $364 $690 #
straight-curve $-1 -72.366710409863572 6.9960662740097348 52.435930252288053 0 0 1 I I #
straight-curve $-1 -72.3667104098636 6.9960662740097348 6.1639061420164154 -0.68199835119979291 0 -0.73135370988377701 I I #
edge $-1 $684 -26.743008255658026 $368 -6.9960662740097348 $532 $691 forward 7 unknown #
point $-1 -72.366710409863572 6.9960662740097348 13.262841085134749 #
point $-1 -65.746846640729672 6.9960662740097348 13.262841085134749 #
edge $-1 $692 1 $692 0 $371 $-1 forward 7 unknown #
vertex $-1 $372 $693 #
ellipse-curve $-1 -67.832603076644148 16.86953726483388 8.5718115673627757 -0.73135370988377701 0 0.68199835119979291 0.68199835119979291 0 0.73135370988377701 1 I I #
point $-1 -68.374780174096813 16.86953726483388 10.444727323459357 #
loop $-1 $-1 $383 $375 #
plane-surface $-1 72.366710409863572 0 0 -1 0 0 0 0 1 forward_v I I I I #
coedge $-1 $547 $378 $380 $551 reversed $233 $-1 #
coedge $-1 $378 $546 $694 $695 reversed $233 $-1 #
coedge $-1 $386 $381 $378 $549 forward $376 $-1 #
edge $-1 $552 20.956090667224117 $696 30.827188378914286 $548 $697 forward 7 unknown #
coedge $-1 $380 $379 $555 $698 reversed $146 $-1 #
edge $-1 $699 -144.73342081972709 $552 -129.98129656541599 $546 $700 forward 7 unknown #
vertex $-1 $382 $701 #
straight-curve $-1 62.495612698173403 -10.282043748596697 13.26284108513476 0 -1 0 I I #
coedge $-1 $694 $383 $386 $559 reversed $544 $-1 #
coedge $-1 $383 $694 $550 $698 forward $544 $-1 #
vertex $-1 $384 $702 #
straight-curve $-1 72.366710409863572 -14.340585670856228 103.35166520766019 0 0 1 I I #
straight-curve $-1 -24.478849892489805 -14.340585670856228 109.85777011296699 0.66913059716165679 0 -0.74314483375859142 I I #
edge $-1 $696 -26.787589323530561 $387 -14.340585670856228 $554 $703 forward 7 unknown #
point $-1 72.366710409863572 -14.340585670856228 13.262841085134749 #
point $-1 62.495612698173403 -14.340585670856228 13.262841085134752 #
edge $-1 $704 1 $704 0 $390 $-1 forward 7 unknown #
vertex $-1 $391 $705 #
ellipse-curve $-1 65.859834453895999 -23.231302565623608 6.3665293812044919 0.74314483375859142 0 0.66913059716165679 1.0036958957424851 0 -1.1147172506378871 1 I I #
point $-1 68.434857449760969 -23.231302565623608 6.6666413712187751 #
edge $-1 $706 1 $706 0 $394 $-1 forward 7 unknown #
vertex $-1 $395 $707 #
ellipse-curve $-1 65.859834453895999 -17.896872428763182 6.3665293812044919 0.74314483375859142 0 0.66913059716165679 1.0036958957424851 0 -1.1147172506378871 1 I I #
point $-1 68.434857449760969 -17.896872428763182 6.6666413712187751 #
plane-surface $-1 0 0 13.262841085134749 0 0 1 1 0 0 forward_v I I I I #
coedge $-1 $581 $580 $573 $708 forward $399 $-1 #
coedge $-1 $573 $401 $403 $577 reversed $255 $-1 #
coedge $-1 $401 $572 $571 $708 reversed $255 $-1 #
coedge $-1 $409 $404 $401 $575 forward $410 $-1 #
edge $-1 $578 20.956090667224117 $709 30.827188378914286 $574 $710 forward 7 unknown #
coedge $-1 $403 $402 $581 $711 reversed $160 $-1 #
edge $-1 $712 -144.73342081972709 $578 -129.98129656541599 $572 $713 forward 7 unknown #
vertex $-1 $405 $714 #
straight-curve $-1 62.495612698173403 -1.6042304220605459 13.26284108513476 0 -1 0 I I #
coedge $-1 $571 $406 $409 $585 reversed $399 $-1 #
coedge $-1 $406 $571 $576 $711 forward $399 $-1 #
vertex $-1 $407 $715 #
straight-curve $-1 72.366710409863572 3.0150409822160746 103.35166520766019 0 0 1 I I #
straight-curve $-1 -24.478849892489805 3.0150409822160746 109.85777011296699 0.66913059716165679 0 -0.74314483375859142 I I #
edge $-1 $709 -9.4319626704582582 $411 3.0150409822160746 $580 $716 forward 7 unknown #
point $-1 72.366710409863572 3.0150409822160746 13.262841085134749 #
point $-1 62.495612698173403 3.0150409822160746 13.262841085134752 #
edge $-1 $717 1 $717 0 $414 $-1 forward 7 unknown #
vertex $-1 $415 $718 #
ellipse-curve $-1 65.859834453895999 -5.8756759125513014 6.3665293812044919 0.74314483375859142 0 0.66913059716165679 1.0036958957424851 0 -1.1147172506378871 1 I I #
point $-1 68.434857449760969 -5.8756759125513014 6.6666413712187751 #
edge $-1 $719 1 $719 0 $418 $-1 forward 7 unknown #
vertex $-1 $419 $720 #
ellipse-curve $-1 65.859834453895999 -0.54124577569088217 6.3665293812044919 0.74314483375859142 0 0.66913059716165679 1.0036958957424851 0 -1.1147172506378871 1 I I #
point $-1 68.434857449760969 -0.54124577569088217 6.6666413712187751 #
plane-surface $-1 0 0 13.262841085134749 0 0 1 1 0 0 forward_v I I I I #
coedge $-1 $607 $606 $599 $721 forward $423 $-1 #
coedge $-1 $599 $425 $427 $603 reversed $277 $-1 #
coedge $-1 $425 $598 $597 $721 reversed $277 $-1 #
coedge $-1 $433 $428 $425 $601 forward $434 $-1 #
edge $-1 $604 20.956090667224117 $722 30.827188378914286 $600 $723 forward 7 unknown #
coedge $-1 $427 $426 $607 $724 reversed $174 $-1 #
edge $-1 $725 -144.73342081972709 $604 -129.98129656541599 $598 $726 forward 7 unknown #
vertex $-1 $429 $727 #
straight-curve $-1 62.495612698173403 7.0735829044756073 13.26284108513476 0 -1 0 I I #
coedge $-1 $597 $430 $433 $611 reversed $423 $-1 #
coedge $-1 $430 $597 $602 $724 forward $423 $-1 #
vertex $-1 $431 $728 #
straight-curve $-1 72.366710409863572 20.370667635288381 103.35166520766019 0 0 1 I I #
straight-curve $-1 -24.478849892489805 20.370667635288381 109.85777011296699 0.66913059716165679 0 -0.74314483375859142 I I #
edge $-1 $722 7.9236639826140483 $435 20.370667635288381 $606 $729 forward 7 unknown #
point $-1 72.366710409863572 20.370667635288381 13.262841085134749 #
point $-1 62.495612698173403 20.370667635288381 13.262841085134752 #
edge $-1 $730 1 $730 0 $438 $-1 forward 7 unknown #
vertex $-1 $439 $731 #
ellipse-curve $-1 65.859834453895999 11.479950740521005 6.3665293812044919 0.74314483375859142 0 0.66913059716165679 1.0036958957424851 0 -1.1147172506378871 1 I I #
point $-1 68.434857449760969 11.479950740521005 6.6666413712187751 #
edge $-1 $732 1 $732 0 $442 $-1 forward 7 unknown #
vertex $-1 $443 $733 #
ellipse-curve $-1 65.859834453895999 16.814380877381424 6.3665293812044919 0.74314483375859142 0 0.66913059716165679 1.0036958957424851 0 -1.1147172506378871 1 I I #
point $-1 68.434857449760969 16.814380877381424 6.6666413712187751 #
plane-surface $-1 0 0 13.262841085134749 0 0 1 1 0 0 forward_v I I I I #
coedge $-1 $633 $632 $625 $734 forward $447 $-1 #
coedge $-1 $625 $449 $451 $629 reversed $299 $-1 #
coedge $-1 $449 $624 $623 $734 reversed $299 $-1 #
coedge $-1 $457 $452 $449 $627 forward $458 $-1 #
edge $-1 $630 20.956090667224117 $735 30.827188378914286 $626 $736 forward 7 unknown #
coedge $-1 $451 $450 $633 $737 reversed $188 $-1 #
edge $-1 $738 -144.73342081972709 $630 -129.98129656541599 $624 $739 forward 7 unknown #
vertex $-1 $453 $740 #
straight-curve $-1 62.495612698173403 15.751396231011761 13.26284108513476 0 -1 0 I I #
coedge $-1 $623 $454 $457 $637 reversed $447 $-1 #
coedge $-1 $454 $623 $628 $737 forward $447 $-1 #
vertex $-1 $455 $741 #
straight-curve $-1 72.366710409863572 37.726294288360691 103.35166520766019 0 0 1 I I #
straight-curve $-1 -24.478849892489805 37.726294288360691 109.85777011296699 0.66913059716165679 0 -0.74314483375859142 I I #
edge $-1 $735 25.279290635686355 $459 37.726294288360691 $632 $742 forward 7 unknown #
point $-1 72.366710409863572 37.726294288360691 13.262841085134749 #
point $-1 62.495612698173403 37.726294288360691 13.262841085134752 #
edge $-1 $743 1 $743 0 $462 $-1 forward 7 unknown #
vertex $-1 $463 $744 #
ellipse-curve $-1 65.859834453895999 28.835577393593312 6.3665293812044919 0.74314483375859142 0 0.66913059716165679 1.0036958957424851 0 -1.1147172506378871 1 I I #
point $-1 68.434857449760969 28.835577393593312 6.6666413712187751 #
edge $-1 $745 1 $745 0 $466 $-1 forward 7 unknown #
vertex $-1 $467 $746 #
ellipse-curve $-1 65.859834453895999 34.170007530453731 6.3665293812044919 0.74314483375859142 0 0.66913059716165679 1.0036958957424851 0 -1.1147172506378871 1 I I #
point $-1 68.434857449760969 34.170007530453731 6.6666413712187751 #
plane-surface $-1 72.366710409863572 0 0 -1 0 0 0 0 1 forward_v I I I I #
coedge $-1 $475 $473 $477 $653 reversed $321 $-1 #
edge $-1 $488 -13.262841085134749 $655 13.262841085134749 $487 $747 forward 7 unknown #
vertex $-1 $653 $748 #
straight-curve $-1 -72.366710409863572 -45.089228788957627 0 0 0 -1 I I #
edge $-1 $651 -45.089228788957627 $655 45.089228788957627 $649 $749 forward 7 unknown #
straight-curve $-1 0 -45.089228788957627 -13.262841085134749 -1 0 0 I I #
vertex $-1 $480 $750 #
straight-curve $-1 0 45.089228788957627 -13.262841085134749 1 0 0 I I #
point $-1 72.366710409863572 45.089228788957627 -13.262841085134749 #
point $-1 72.366710409863572 -45.089228788957627 -13.262841085134749 #
straight-curve $-1 -72.366710409863572 0 13.262841085134749 0 -1 0 I I #
point $-1 -72.366710409863572 45.089228788957627 13.262841085134749 #
point $-1 -72.366710409863572 -45.089228788957627 13.262841085134749 #
straight-curve $-1 72.366710409863572 -45.089228788957627 0 0 0 -1 I I #
straight-curve $-1 72.366710409863572 45.089228788957627 0 0 0 -1 I I #
loop $-1 $-1 $503 $497 #
plane-surface $-1 0 -45.089228788957627 0 0 1 0 0 0 1 forward_v I I I I #
coedge $-1 $514 $505 $501 $668 forward $498 $-1 #
edge $-1 $672 -25.27929063568634 $509 -14.340585670856232 $500 $751 forward 7 unknown #
edge $-1 $510 14.340585670856232 $671 25.27929063568634 $666 $752 forward 7 unknown #
coedge $-1 $512 $503 $517 $681 reversed $664 $-1 #
coedge $-1 $503 $512 $514 $679 reversed $664 $-1 #
vertex $-1 $679 $753 #
vertex $-1 $504 $754 #
straight-curve $-1 -45.841028239594074 -45.089228788957627 0 0 0 1 I I #
straight-curve $-1 -24.477613839406985 -34.150523824127518 -13.262841085134749 1 0 0 I I #
straight-curve $-1 -24.477613839406985 -34.150523824127518 13.262841085134749 -1 0 0 I I #
point $-1 -45.841028239594074 -34.150523824127518 13.262841085134749 #
point $-1 -45.841028239594074 -34.150523824127518 -13.262841085134749 #
straight-curve $-1 -52.069427118033865 -45.089228788957627 0 0 0 -1 I I #
edge $-1 $671 45.841028239594074 $515 52.069427118033865 $670 $755 forward 7 unknown #
point $-1 -52.069427118033865 -45.089228788957627 -13.262841085134749 #
edge $-1 $518 -52.069427118033865 $672 -45.841028239594074 $669 $756 forward 7 unknown #
point $-1 -52.069427118033865 -45.089228788957627 13.262841085134749 #
edge $-1 $684 39.173089167153307 $687 46.272024110271609 $523 $757 forward 7 unknown #
vertex $-1 $537 $758 #
straight-curve $-1 -89.109017335270465 26.743008255658026 13.262841085134752 -1 0 0 I I #
edge $-1 $687 -18.308239623241086 $534 1.4387023584072054 $533 $759 forward 7 unknown #
vertex $-1 $686 $760 #
straight-curve $-1 -72.3667104098636 26.743008255658026 6.1639061420164154 0.68199835119979291 0 0.73135370988377701 I I #
point $-1 -65.746846640729672 26.743008255658026 13.262841085134749 #
point $-1 -72.366710409863572 6.9960662740097348 6.1639061420164456 #
straight-curve $-1 -72.366710409863572 0 13.262841085134749 0 -1 0 I I #
vertex $-1 $540 $761 #
point $-1 -67.150604725444353 16.86953726483388 9.3031652772465527 #
coedge $-1 $555 $554 $547 $695 forward $544 $-1 #
edge $-1 $696 90.088824122525438 $699 101.05178904908156 $694 $762 forward 7 unknown #
vertex $-1 $559 $763 #
straight-curve $-1 41.539522030949286 -26.787589323530561 13.262841085134752 1 0 0 I I #
edge $-1 $699 -16.505545574933862 $556 -4.0585419222595309 $555 $764 forward 7 unknown #
vertex $-1 $698 $765 #
straight-curve $-1 -24.478849892489805 -26.787589323530561 109.85777011296699 -0.66913059716165679 0 0.74314483375859142 I I #
point $-1 62.495612698173403 -26.787589323530561 13.262841085134752 #
point $-1 72.366710409863572 -14.340585670856228 2.2998761585786269 #
straight-curve $-1 72.366710409863572 0 13.262841085134749 0 1 0 I I #
vertex $-1 $562 $766 #
point $-1 66.863530349638481 -23.231302565623608 5.2518121305666048 #
vertex $-1 $566 $767 #
point $-1 66.863530349638481 -17.896872428763182 5.2518121305666048 #
edge $-1 $709 90.088824122525438 $712 101.05178904908156 $571 $768 forward 7 unknown #
vertex $-1 $585 $769 #
straight-curve $-1 41.539522030949286 -9.4319626704582582 13.262841085134752 1 0 0 I I #
edge $-1 $712 -7.8277322483977123 $582 4.6192714042766205 $581 $770 forward 7 unknown #
vertex $-1 $711 $771 #
straight-curve $-1 -24.478849892489805 -9.4319626704582582 109.85777011296699 -0.66913059716165679 0 0.74314483375859142 I I #
point $-1 62.495612698173403 -9.4319626704582582 13.262841085134752 #
point $-1 72.366710409863572 3.0150409822160746 2.2998761585786269 #
straight-curve $-1 72.366710409863572 0 13.262841085134749 0 1 0 I I #
vertex $-1 $588 $772 #
point $-1 66.863530349638481 -5.8756759125513014 5.2518121305666048 #
vertex $-1 $592 $773 #
point $-1 66.863530349638481 -0.54124577569088217 5.2518121305666048 #
edge $-1 $722 90.088824122525438 $725 101.05178904908156 $597 $774 forward 7 unknown #
vertex $-1 $611 $775 #
straight-curve $-1 41.539522030949286 7.9236639826140483 13.262841085134752 1 0 0 I I #
edge $-1 $725 0.85008107813844092 $608 13.297084730812774 $607 $776 forward 7 unknown #
vertex $-1 $724 $777 #
straight-curve $-1 -24.478849892489805 7.9236639826140483 109.85777011296699 -0.66913059716165679 0 0.74314483375859142 I I #
point $-1 62.495612698173403 7.9236639826140483 13.262841085134752 #
point $-1 72.366710409863572 20.370667635288381 2.2998761585786269 #
straight-curve $-1 72.366710409863572 0 13.262841085134749 0 1 0 I I #
vertex $-1 $614 $778 #
point $-1 66.863530349638481 11.479950740521005 5.2518121305666048 #
vertex $-1 $618 $779 #
point $-1 66.863530349638481 16.814380877381424 5.2518121305666048 #
edge $-1 $735 90.088824122525438 $738 101.05178904908156 $623 $780 forward 7 unknown #
vertex $-1 $637 $781 #
straight-curve $-1 41.539522030949286 25.279290635686355 13.262841085134752 1 0 0 I I #
edge $-1 $738 9.5278944046745941 $634 21.974898057348931 $633 $782 forward 7 unknown #
vertex $-1 $737 $783 #
straight-curve $-1 -24.478849892489805 25.279290635686355 109.85777011296699 -0.66913059716165679 0 0.74314483375859142 I I #
point $-1 62.495612698173403 25.279290635686355 13.262841085134752 #
point $-1 72.366710409863572 37.726294288360691 2.2998761585786269 #
straight-curve $-1 72.366710409863572 0 13.262841085134749 0 1 0 I I #
vertex $-1 $640 $784 #
point $-1 66.863530349638481 28.835577393593312 5.2518121305666048 #
vertex $-1 $644 $785 #
point $-1 66.863530349638481 34.170007530453731 5.2518121305666048 #
straight-curve $-1 -72.366710409863572 45.089228788957627 0 0 0 -1 I I #
point $-1 -72.366710409863572 -45.089228788957627 -13.262841085134749 #
straight-curve $-1 -72.366710409863572 0 -13.262841085134749 0 1 0 I I #
point $-1 -72.366710409863572 45.089228788957627 -13.262841085134749 #
straight-curve $-1 -45.841028239594074 -19.809938153271286 13.262841085134749 0 1 0 I I #
straight-curve $-1 -45.841028239594074 -19.809938153271286 -13.262841085134749 0 -1 0 I I #
point $-1 -45.841028239594074 -45.089228788957627 -13.262841085134749 #
point $-1 -45.841028239594074 -45.089228788957627 13.262841085134749 #
straight-curve $-1 0 -45.089228788957627 -13.262841085134749 -1 0 0 I I #
straight-curve $-1 0 -45.089228788957627 13.262841085134749 1 0 0 I I #
straight-curve $-1 -72.366710409863572 26.743008255658026 52.435930252288053 0 0 -1 I I #
point $-1 -72.366710409863572 26.743008255658026 13.262841085134749 #
straight-curve $-1 -72.366710409863572 8.4347686324169402 6.1639061420164509 0 -1 0 I I #
point $-1 -72.366710409863572 26.743008255658026 6.1639061420164456 #
point $-1 -67.101249366760356 16.86953726483388 7.8898132161629819 #
straight-curve $-1 72.366710409863572 -26.787589323530561 103.35166520766019 0 0 -1 I I #
point $-1 72.366710409863572 -26.787589323530561 13.262841085134749 #
straight-curve $-1 72.366710409863572 -10.282043748596697 2.2998761585786198 0 1 0 I I #
point $-1 72.366710409863572 -26.787589323530561 2.2998761585786269 #
point $-1 64.745117203258118 -23.231302565623608 5.3628334854620068 #
point $-1 64.745117203258118 -17.896872428763182 5.3628334854620068 #
straight-curve $-1 72.366710409863572 -9.4319626704582582 103.35166520766019 0 0 -1 I I #
point $-1 72.366710409863572 -9.4319626704582582 13.262841085134749 #
straight-curve $-1 72.366710409863572 -1.6042304220605459 2.2998761585786198 0 1 0 I I #
point $-1 72.366710409863572 -9.4319626704582582 2.2998761585786269 #
point $-1 64.745117203258118 -5.8756759125513014 5.3628334854620068 #
point $-1 64.745117203258118 -0.54124577569088217 5.3628334854620068 #
straight-curve $-1 72.366710409863572 7.9236639826140483 103.35166520766019 0 0 -1 I I #
point $-1 72.366710409863572 7.9236639826140483 13.262841085134749 #
straight-curve $-1 72.366710409863572 7.0735829044756073 2.2998761585786198 0 1 0 I I #
point $-1 72.366710409863572 7.9236639826140483 2.2998761585786269 #
point $-1 64.745117203258118 11.479950740521005 5.3628334854620068 #
point $-1 64.745117203258118 16.814380877381424 5.3628334854620068 #
straight-curve $-1 72.366710409863572 25.279290635686355 103.35166520766019 0 0 -1 I I #
point $-1 72.366710409863572 25.279290635686355 13.262841085134749 #
straight-curve $-1 72.366710409863572 15.751396231011761 2.2998761585786198 0 1 0 I I #
point $-1 72.366710409863572 25.279290635686355 2.2998761585786269 #
point $-1 64.745117203258118 28.835577393593312 5.3628334854620068 #
point $-1 64.745117203258118 34.170007530453731 5.3628334854620068 #
End-of-ACIS-data 