500 0 6 0           
7 Unknown 11 ACIS 5.0 NT 24 Fri Mar 26 20:13:18 1999 
-1 9.9999999999999995e-007 1e-010 
body $-1 $6 $-1 $7 #
body $-1 $8 $-1 $9 #
body $-1 $10 $-1 $11 #
body $-1 $12 $-1 $13 #
body $-1 $14 $-1 $15 #
body $-1 $16 $-1 $17 #
lump $-1 $-1 $18 $0 #
transform $-1 1 0 0 0 1 0 0 0 1 57.026886806848353 25.564899086637087 11.084806673278148 1 rotate no_reflect no_shear #
lump $-1 $-1 $19 $1 #
transform $-1 1 0 0 0 1 0 0 0 1 57.026886806848353 25.564899086637087 11.084806673278148 1 rotate no_reflect no_shear #
lump $-1 $-1 $20 $2 #
transform $-1 1 0 0 0 1 0 0 0 1 57.026886806848353 25.564899086637087 11.084806673278148 1 rotate no_reflect no_shear #
lump $-1 $-1 $21 $3 #
transform $-1 1 0 0 0 1 0 0 0 1 57.026886806848353 25.564899086637087 11.084806673278148 1 rotate no_reflect no_shear #
lump $-1 $-1 $22 $4 #
transform $-1 1 0 0 0 1 0 0 0 1 57.026886806848353 25.564899086637087 11.084806673278148 1 rotate no_reflect no_shear #
lump $-1 $-1 $23 $5 #
transform $-1 1 0 0 0 1 0 0 0 1 57.026886806848353 25.564899086637087 11.084806673278148 1 rotate no_reflect no_shear #
shell $-1 $-1 $-1 $24 $-1 $6 #
shell $-1 $-1 $-1 $25 $-1 $8 #
shell $-1 $-1 $-1 $26 $-1 $10 #
shell $-1 $-1 $-1 $27 $-1 $12 #
shell $-1 $-1 $-1 $28 $-1 $14 #
shell $-1 $-1 $-1 $29 $-1 $16 #
face $-1 $30 $31 $18 $-1 $32 forward single #
face $-1 $33 $34 $19 $-1 $35 reversed single #
face $-1 $36 $37 $20 $-1 $38 forward single #
face $-1 $39 $40 $21 $-1 $41 forward single #
face $-1 $42 $43 $22 $-1 $44 reversed single #
face $-1 $45 $46 $23 $-1 $47 forward single #
face $-1 $48 $49 $18 $-1 $50 reversed single #
loop $-1 $-1 $51 $24 #
plane-surface $-1 0 0 11.084806673278148 0 0 1 1 0 0 forward_v I I I I #
face $-1 $52 $53 $19 $-1 $54 reversed single #
loop $-1 $-1 $55 $25 #
plane-surface $-1 26.250085396250654 16.137077656875729 163.73102036323505 0 1 0 0.55919291073839883 0 0.82903756765294845 forward_v I I I I #
face $-1 $56 $57 $20 $-1 $58 forward single #
loop $-1 $59 $60 $26 #
cone-surface $-1 51.858778513510892 18.83074092252183 6.8290739521943369 -0.55919291073839883 0 -0.82903756765294845 0.82903756765294845 0 -0.55919291073839883 1 I I 0 1 1 forward I I I I #
face $-1 $61 $62 $21 $-1 $63 forward single #
loop $-1 $64 $65 $27 #
cone-surface $-1 51.858778513510892 22.871235820990986 6.8290739521943369 -0.55919291073839883 0 -0.82903756765294845 0.82903756765294845 0 -0.55919291073839883 1 I I 0 1 1 forward I I I I #
face $-1 $66 $67 $22 $-1 $68 reversed single #
loop $-1 $-1 $69 $28 #
plane-surface $-1 -133.34375842035072 -0.02037406344175352 90.721592528274613 0 1 0 -0.66913061440640931 0 0.74314481823134659 forward_v I I I I #
face $-1 $70 $71 $23 $-1 $72 forward single #
loop $-1 $73 $74 $29 #
cone-surface $-1 -53.409250829433475 6.1342647904132086 7.6648695281640489 0.66913061440640931 0 -0.74314481823134659 1.1147172273470198 0 1.003695921609614 1 I I 0 1 1.5 forward I I I I #
face $-1 $75 $76 $18 $-1 $77 reversed single #
loop $-1 $-1 $78 $30 #
plane-surface $-1 0 0 -11.084806673278148 0 0 1 1 0 0 forward_v I I I I #
coedge $-1 $79 $80 $81 $82 forward $31 $-1 #
face $-1 $83 $84 $19 $-1 $85 forward single #
loop $-1 $-1 $86 $33 #
plane-surface $-1 -37.527976251490799 20.850988371756412 69.176157304895895 0.55919291073839883 0 0.82903756765294845 0.82903756765294845 0 -0.55919291073839883 forward_v I I I I #
coedge $-1 $87 $88 $89 $90 reversed $34 $-1 #
face $-1 $-1 $91 $20 $-1 $92 forward single #
loop $-1 $93 $94 $36 #
cone-surface $-1 50.626521580949714 18.83074092252183 5.0021779553459034 -0.55919291073839883 0 -0.82903756765294845 0.41451878382647422 0 -0.27959645536919941 1 I I -0.70710678118654746 0.70710678118654746 0.5 forward I I I I #
loop $-1 $-1 $95 $26 #
coedge $-1 $60 $60 $96 $97 reversed $37 $-1 #
face $-1 $-1 $98 $21 $-1 $99 forward single #
loop $-1 $100 $101 $39 #
cone-surface $-1 50.626521580949714 22.871235820990986 5.0021779553459034 -0.55919291073839883 0 -0.82903756765294845 0.41451878382647422 0 -0.27959645536919941 1 I I -0.70710678118654746 0.70710678118654746 0.5 forward I I I I #
loop $-1 $-1 $102 $27 #
coedge $-1 $65 $65 $103 $104 reversed $40 $-1 #
face $-1 $105 $106 $22 $-1 $107 reversed single #
loop $-1 $-1 $108 $42 #
plane-surface $-1 -57.026886806848339 6.1342647904132086 5.9631216675248169 -0.66913061440640931 0 0.74314481823134659 0.74314481823134659 0 0.66913061440640931 forward_v I I I I #
coedge $-1 $109 $110 $111 $112 reversed $43 $-1 #
face $-1 $-1 $113 $23 $-1 $114 forward single #
loop $-1 $115 $116 $45 #
cone-surface $-1 -52.133870561477949 6.1342647904132086 6.2484162722530954 0.66913061440640931 0 -0.74314481823134659 0.55735861367350992 0 0.50184796080480698 1 I I -0.70710678118654757 0.70710678118654757 0.75 forward I I I I #
loop $-1 $-1 $117 $29 #
coedge $-1 $74 $74 $118 $119 reversed $46 $-1 #
face $-1 $120 $121 $18 $-1 $122 reversed single #
loop $-1 $-1 $123 $48 #
plane-surface $-1 0 -25.564899086637087 0 0 1 0 0 0 1 forward_v I I I I #
coedge $-1 $124 $125 $126 $127 forward $49 $-1 #
coedge $-1 $128 $51 $129 $130 forward $31 $-1 #
coedge $-1 $51 $128 $131 $132 forward $31 $-1 #
coedge $-1 $133 $134 $51 $82 reversed $135 $-1 #
edge $-1 $136 -25.564899086637087 $137 25.564899086637087 $81 $138 forward 7 unknown #
face $-1 $139 $140 $19 $-1 $141 reversed single #
loop $-1 $-1 $142 $52 #
plane-surface $-1 0 0 11.084806673278148 0 0 1 1 0 0 forward_v I I I I #
coedge $-1 $143 $144 $145 $146 reversed $53 $-1 #
coedge $-1 $88 $55 $147 $148 reversed $34 $-1 #
coedge $-1 $55 $87 $143 $149 reversed $34 $-1 #
coedge $-1 $145 $150 $55 $90 forward $140 $-1 #
edge $-1 $151 70.780703508339371 $152 76.467414524463081 $89 $153 forward 7 unknown #
loop $-1 $-1 $96 $56 #
plane-surface $-1 -37.527976251490799 20.850988371756412 69.176157304895895 0.55919291073839883 0 0.82903756765294845 0.82903756765294845 0 -0.55919291073839883 forward_v I I I I #
loop $-1 $-1 $154 $36 #
coedge $-1 $94 $94 $95 $155 reversed $57 $-1 #
coedge $-1 $95 $95 $94 $155 forward $59 $-1 #
coedge $-1 $96 $96 $60 $97 forward $91 $-1 #
edge $-1 $156 0 $156 6.2831853071796004 $96 $157 forward 7 unknown #
loop $-1 $-1 $103 $61 #
plane-surface $-1 -37.527976251490799 20.850988371756412 69.176157304895895 0.55919291073839883 0 0.82903756765294845 0.82903756765294845 0 -0.55919291073839883 forward_v I I I I #
loop $-1 $-1 $158 $39 #
coedge $-1 $101 $101 $102 $159 reversed $62 $-1 #
coedge $-1 $102 $102 $101 $159 forward $64 $-1 #
coedge $-1 $103 $103 $65 $104 forward $98 $-1 #
edge $-1 $160 0 $160 6.2831853071796004 $103 $161 forward 7 unknown #
face $-1 $162 $163 $22 $-1 $164 reversed single #
loop $-1 $-1 $165 $66 #
plane-surface $-1 -133.34375842035072 12.288903644268171 90.721592528274613 0 -1 0 0.66913061440640931 0 -0.74314481823134659 forward_v I I I I #
coedge $-1 $166 $167 $168 $169 reversed $67 $-1 #
coedge $-1 $110 $69 $170 $171 reversed $43 $-1 #
coedge $-1 $69 $109 $166 $172 reversed $43 $-1 #
coedge $-1 $168 $173 $69 $112 forward $174 $-1 #
edge $-1 $175 9.6449924033270094 $176 15.33319974385536 $111 $177 forward 7 unknown #
loop $-1 $-1 $118 $70 #
plane-surface $-1 -57.026886806848339 6.1342647904132086 5.9631216675248169 -0.66913061440640931 0 0.74314481823134659 0.74314481823134659 0 0.66913061440640931 forward_v I I I I #
loop $-1 $-1 $178 $45 #
coedge $-1 $116 $116 $117 $179 reversed $71 $-1 #
coedge $-1 $117 $117 $116 $179 forward $73 $-1 #
coedge $-1 $118 $118 $74 $119 forward $113 $-1 #
edge $-1 $180 0 $180 6.2831853071796004 $118 $181 forward 7 unknown #
face $-1 $182 $183 $18 $-1 $184 reversed single #
loop $-1 $-1 $185 $75 #
plane-surface $-1 -57.026886806848353 0 0 1 0 0 0 0 -1 forward_v I I I I #
coedge $-1 $186 $131 $187 $188 forward $76 $-1 #
coedge $-1 $189 $78 $186 $190 forward $49 $-1 #
coedge $-1 $78 $189 $191 $192 forward $49 $-1 #
coedge $-1 $134 $133 $78 $127 reversed $135 $-1 #
edge $-1 $193 -25.564899086637087 $194 25.564899086637087 $126 $195 forward 7 unknown #
coedge $-1 $80 $79 $196 $197 forward $31 $-1 #
coedge $-1 $198 $199 $79 $130 reversed $183 $-1 #
edge $-1 $137 -57.026886806848353 $200 57.026886806848353 $129 $201 forward 7 unknown #
coedge $-1 $123 $202 $80 $132 reversed $76 $-1 #
edge $-1 $203 -57.026886806848353 $136 57.026886806848353 $131 $204 forward 7 unknown #
coedge $-1 $126 $81 $202 $205 forward $135 $-1 #
coedge $-1 $81 $126 $198 $206 reversed $135 $-1 #
loop $-1 $-1 $133 $182 #
vertex $-1 $82 $207 #
vertex $-1 $82 $208 #
straight-curve $-1 57.026886806848353 0 11.084806673278148 0 1 0 I I #
face $-1 $-1 $209 $19 $-1 $210 reversed single #
loop $-1 $-1 $89 $83 #
plane-surface $-1 57.026886806848353 0 0 -1 0 0 0 0 1 forward_v I I I I #
coedge $-1 $147 $211 $212 $213 forward $84 $-1 #
coedge $-1 $212 $86 $88 $149 forward $53 $-1 #
coedge $-1 $86 $212 $214 $215 reversed $53 $-1 #
coedge $-1 $216 $89 $86 $146 forward $140 $-1 #
edge $-1 $152 5.7115834709975228 $217 15.139404900758882 $145 $218 forward 7 unknown #
coedge $-1 $219 $142 $87 $148 forward $84 $-1 #
edge $-1 $220 35.470948476432085 $151 43.901844108723026 $147 $221 forward 7 unknown #
edge $-1 $152 -114.05377361369671 $220 -103.88427591993202 $88 $222 forward 7 unknown #
coedge $-1 $89 $216 $219 $223 reversed $140 $-1 #
vertex $-1 $223 $224 #
vertex $-1 $90 $225 #
straight-curve $-1 57.026886806848353 16.137077656875729 81.865510181617523 0 0 -1 I I #
coedge $-1 $154 $154 $-1 $226 reversed $93 $-1 #
edge $-1 $227 0 $227 6.2831853071796004 $94 $228 forward 7 unknown #
vertex $-1 $97 $229 #
ellipse-curve $-1 52.811438990702875 18.83074092252183 8.2414511652163025 0.55919291073839883 0 0.82903756765294845 0.82903756765294845 0 -0.55919291073839883 1 I I #
coedge $-1 $158 $158 $-1 $230 reversed $100 $-1 #
edge $-1 $231 0 $231 6.2831853071796004 $101 $232 forward 7 unknown #
vertex $-1 $104 $233 #
ellipse-curve $-1 52.811438990702875 22.871235820990986 8.2414511652163025 0.55919291073839883 0 0.82903756765294845 0.82903756765294845 0 -0.55919291073839883 1 I I #
face $-1 $-1 $174 $22 $-1 $234 forward single #
loop $-1 $-1 $235 $105 #
plane-surface $-1 -57.026886806848353 0 0 1 0 0 0 0 -1 forward_v I I I I #
coedge $-1 $236 $237 $238 $239 reversed $106 $-1 #
coedge $-1 $240 $108 $110 $172 forward $67 $-1 #
coedge $-1 $108 $240 $236 $241 forward $67 $-1 #
coedge $-1 $238 $111 $108 $169 forward $174 $-1 #
edge $-1 $176 -3.0875064586483578 $242 9.2217712490615664 $168 $243 forward 7 unknown #
coedge $-1 $244 $245 $109 $171 forward $163 $-1 #
edge $-1 $246 -39.397674596612504 $175 -34.275989590859155 $170 $247 forward 7 unknown #
edge $-1 $176 -7.6542380448349627 $246 1.8881026247711288e-014 $110 $248 forward 7 unknown #
coedge $-1 $111 $238 $244 $249 forward $174 $-1 #
loop $-1 $-1 $238 $162 #
vertex $-1 $171 $250 #
vertex $-1 $112 $251 #
straight-curve $-1 -66.671879210175362 -0.02037406344175352 11.084806673278145 1 0 0 I I #
coedge $-1 $178 $178 $-1 $252 reversed $115 $-1 #
edge $-1 $253 0 $253 6.2831853071796004 $116 $254 forward 7 unknown #
vertex $-1 $119 $255 #
ellipse-curve $-1 -54.182783136584177 6.1342647904132086 8.5239641704014755 -0.66913061440640931 0 0.74314481823134659 1.1147172273470198 0 1.003695921609614 1 I I #
face $-1 $-1 $135 $18 $-1 $256 reversed single #
loop $-1 $-1 $198 $120 #
plane-surface $-1 0 25.564899086637087 0 0 -1 0 0 0 -1 forward_v I I I I #
coedge $-1 $257 $196 $199 $258 forward $121 $-1 #
coedge $-1 $202 $123 $124 $190 reversed $76 $-1 #
coedge $-1 $196 $257 $123 $188 reversed $121 $-1 #
edge $-1 $203 -11.084806673278148 $259 11.084806673278148 $187 $260 forward 7 unknown #
coedge $-1 $125 $124 $257 $261 forward $49 $-1 #
edge $-1 $194 -57.026886806848353 $259 57.026886806848353 $186 $262 forward 7 unknown #
coedge $-1 $199 $198 $125 $192 reversed $183 $-1 #
edge $-1 $263 -57.026886806848353 $193 57.026886806848353 $191 $264 forward 7 unknown #
vertex $-1 $127 $265 #
vertex $-1 $205 $266 #
straight-curve $-1 57.026886806848353 0 -11.084806673278148 0 -1 0 I I #
coedge $-1 $185 $187 $128 $197 reversed $121 $-1 #
edge $-1 $200 -25.564899086637087 $203 25.564899086637087 $196 $267 forward 7 unknown #
coedge $-1 $191 $129 $134 $206 forward $183 $-1 #
coedge $-1 $129 $191 $185 $258 reversed $183 $-1 #
vertex $-1 $130 $268 #
straight-curve $-1 0 25.564899086637087 11.084806673278148 -1 0 0 I I #
coedge $-1 $131 $186 $133 $205 reversed $76 $-1 #
vertex $-1 $197 $269 #
straight-curve $-1 0 -25.564899086637087 11.084806673278148 1 0 0 I I #
edge $-1 $136 -11.084806673278148 $194 11.084806673278148 $133 $270 forward 7 unknown #
edge $-1 $137 -11.084806673278148 $193 11.084806673278148 $134 $271 forward 7 unknown #
point $-1 57.026886806848353 -25.564899086637087 11.084806673278148 #
point $-1 57.026886806848353 25.564899086637087 11.084806673278148 #
loop $-1 $-1 $214 $139 #
plane-surface $-1 0 25.564899086637087 0 0 -1 0 0 0 -1 forward_v I I I I #
coedge $-1 $142 $219 $272 $273 forward $84 $-1 #
coedge $-1 $144 $143 $142 $213 reversed $53 $-1 #
edge $-1 $274 -15.139404900758889 $220 -5.7115834709975228 $142 $275 forward 7 unknown #
coedge $-1 $272 $276 $144 $215 forward $209 $-1 #
edge $-1 $217 -79.156314159948892 $274 -68.986816466184209 $214 $277 forward 7 unknown #
coedge $-1 $150 $145 $276 $278 reversed $140 $-1 #
vertex $-1 $146 $279 #
straight-curve $-1 57.026886806848353 10.425494185878206 5.3980956571544425 0 1 0 I I #
coedge $-1 $211 $147 $150 $223 forward $84 $-1 #
vertex $-1 $148 $280 #
straight-curve $-1 13.125042698125327 16.137077656875729 11.084806673278152 1 0 0 I I #
straight-curve $-1 -37.527976251490799 16.137077656875729 69.176157304895895 -0.82903756765294845 0 0.55919291073839883 I I #
edge $-1 $151 16.137077656875729 $281 25.564899086637087 $150 $282 forward 7 unknown #
point $-1 57.026886806848353 16.137077656875729 11.084806673278148 #
point $-1 57.026886806848353 16.137077656875729 5.3980956571544425 #
edge $-1 $283 1 $283 0 $154 $-1 forward 7 unknown #
vertex $-1 $155 $284 #
ellipse-curve $-1 50.906118036318915 18.83074092252183 5.4166967391723775 0.55919291073839883 0 0.82903756765294845 0.82903756765294845 0 -0.55919291073839883 1 I I #
point $-1 53.640476558355822 18.83074092252183 7.6822582544778966 #
edge $-1 $285 1 $285 0 $158 $-1 forward 7 unknown #
vertex $-1 $159 $286 #
ellipse-curve $-1 50.906118036318915 22.871235820990986 5.4166967391723775 0.55919291073839883 0 0.82903756765294845 0.82903756765294845 0 -0.55919291073839883 1 I I #
point $-1 53.640476558355822 22.871235820990986 7.6822582544778966 #
plane-surface $-1 0 0 11.084806673278148 0 0 1 1 0 0 forward_v I I I I #
coedge $-1 $245 $244 $237 $287 forward $163 $-1 #
coedge $-1 $237 $165 $167 $241 reversed $106 $-1 #
coedge $-1 $165 $236 $235 $287 reversed $106 $-1 #
coedge $-1 $173 $168 $165 $239 forward $174 $-1 #
edge $-1 $242 -15.33319974385536 $288 -9.6449924033270094 $238 $289 forward 7 unknown #
coedge $-1 $167 $166 $245 $290 reversed $67 $-1 #
edge $-1 $291 -1.8881026247711288e-014 $242 7.6542380448349627 $236 $292 forward 7 unknown #
vertex $-1 $169 $293 #
straight-curve $-1 -51.338679466320002 3.0671323952066043 11.084806673278147 0 1 0 I I #
coedge $-1 $235 $170 $173 $249 reversed $163 $-1 #
coedge $-1 $170 $235 $240 $290 forward $163 $-1 #
vertex $-1 $171 $294 #
straight-curve $-1 -57.026886806848353 -0.02037406344175352 45.360796264137306 0 0 1 I I #
straight-curve $-1 -57.026886806848339 -0.02037406344175352 5.9631216675248169 -0.74314481823134659 0 -0.66913061440640931 I I #
edge $-1 $288 -12.288903644268171 $175 0.02037406344175352 $244 $295 forward 7 unknown #
point $-1 -57.026886806848353 -0.02037406344175352 11.084806673278148 #
point $-1 -51.338679466320002 -0.02037406344175352 11.084806673278148 #
edge $-1 $296 1 $296 0 $178 $-1 forward 7 unknown #
vertex $-1 $179 $297 #
ellipse-curve $-1 -52.635718522282758 6.1342647904132086 6.8057748859266054 -0.66913061440640931 0 0.74314481823134659 1.1147172273470198 0 1.003695921609614 1 I I #
point $-1 -53.06806590923717 6.1342647904132086 9.5276600920111054 #
plane-surface $-1 57.026886806848353 0 0 -1 0 0 0 0 1 forward_v I I I I #
coedge $-1 $187 $185 $189 $261 reversed $121 $-1 #
edge $-1 $200 -11.084806673278148 $263 11.084806673278148 $199 $298 forward 7 unknown #
vertex $-1 $261 $299 #
straight-curve $-1 -57.026886806848353 -25.564899086637087 0 0 0 -1 I I #
edge $-1 $259 -25.564899086637087 $263 25.564899086637087 $257 $300 forward 7 unknown #
straight-curve $-1 0 -25.564899086637087 -11.084806673278148 -1 0 0 I I #
vertex $-1 $192 $301 #
straight-curve $-1 0 25.564899086637087 -11.084806673278148 1 0 0 I I #
point $-1 57.026886806848353 25.564899086637087 -11.084806673278148 #
point $-1 57.026886806848353 -25.564899086637087 -11.084806673278148 #
straight-curve $-1 -57.026886806848353 0 11.084806673278148 0 -1 0 I I #
point $-1 -57.026886806848353 25.564899086637087 11.084806673278148 #
point $-1 -57.026886806848353 -25.564899086637087 11.084806673278148 #
straight-curve $-1 57.026886806848353 -25.564899086637087 0 0 0 -1 I I #
straight-curve $-1 57.026886806848353 25.564899086637087 0 0 0 -1 I I #
coedge $-1 $276 $214 $211 $273 reversed $209 $-1 #
edge $-1 $281 -57.026886806848353 $274 -48.595991174557412 $272 $302 forward 7 unknown #
vertex $-1 $215 $303 #
straight-curve $-1 48.595991174557412 10.425494185878206 11.084806673278152 0 -1 0 I I #
coedge $-1 $214 $272 $216 $278 forward $209 $-1 #
straight-curve $-1 -8.5966713486883179 25.564899086637087 49.6617453755794 -0.82903756765294845 0 0.55919291073839883 I I #
edge $-1 $281 -11.084806673278148 $217 -5.3980956571544461 $216 $304 forward 7 unknown #
point $-1 57.026886806848353 25.564899086637087 5.3980956571544461 #
point $-1 48.595991174557412 16.137077656875729 11.084806673278152 #
vertex $-1 $223 $305 #
straight-curve $-1 57.026886806848353 0 11.084806673278148 0 1 0 I I #
vertex $-1 $226 $306 #
point $-1 51.735155603971862 18.83074092252183 4.8575038284339787 #
vertex $-1 $230 $307 #
point $-1 51.735155603971862 22.871235820990986 4.8575038284339787 #
edge $-1 $288 34.275989590859155 $291 39.397674596612504 $235 $308 forward 7 unknown #
vertex $-1 $249 $309 #
straight-curve $-1 -66.671879210175362 12.288903644268171 11.084806673278145 -1 0 0 I I #
edge $-1 $291 -9.2217712490615664 $246 3.0875064586483578 $245 $310 forward 7 unknown #
vertex $-1 $290 $311 #
straight-curve $-1 -57.026886806848339 12.288903644268171 5.9631216675248169 0.74314481823134659 0 0.66913061440640931 I I #
point $-1 -51.338679466320002 12.288903644268171 11.084806673278148 #
point $-1 -57.026886806848353 -0.02037406344175352 5.9631216675248044 #
straight-curve $-1 -57.026886806848353 0 11.084806673278148 0 -1 0 I I #
vertex $-1 $252 $312 #
point $-1 -51.521001294935736 6.1342647904132086 7.8094708075362194 #
straight-curve $-1 -57.026886806848353 25.564899086637087 0 0 0 -1 I I #
point $-1 -57.026886806848353 -25.564899086637087 -11.084806673278148 #
straight-curve $-1 -57.026886806848353 0 -11.084806673278148 0 1 0 I I #
point $-1 -57.026886806848353 25.564899086637087 -11.084806673278148 #
straight-curve $-1 0 25.564899086637087 11.084806673278148 -1 0 0 I I #
point $-1 48.595991174557412 25.564899086637094 11.084806673278152 #
straight-curve $-1 57.026886806848353 25.564899086637087 0 0 0 -1 I I #
point $-1 57.026886806848353 25.564899086637087 11.084806673278148 #
point $-1 50.346925125580512 18.83074092252183 4.5876591715194293 #
point $-1 50.346925125580512 22.871235820990986 4.5876591715194293 #
straight-curve $-1 -57.026886806848353 12.288903644268171 45.360796264137306 0 0 -1 I I #
point $-1 -57.026886806848353 12.288903644268171 11.084806673278148 #
straight-curve $-1 -57.026886806848353 3.0671323952066043 5.9631216675248062 0 -1 0 I I #
point $-1 -57.026886806848353 12.288903644268171 5.9631216675248044 #
point $-1 -51.632022600673139 6.1342647904132086 5.6910576585795853 #
End-of-ACIS-data 