500 0 6 0           
7 Unknown 11 ACIS 5.0 NT 24 Fri Mar 26 01:13:54 1999 
-1 9.9999999999999995e-007 1e-010 
body $-1 $6 $-1 $7 #
body $-1 $8 $-1 $9 #
body $-1 $10 $-1 $11 #
body $-1 $12 $-1 $13 #
body $-1 $14 $-1 $15 #
body $-1 $16 $-1 $17 #
lump $-1 $-1 $18 $0 #
transform $-1 1 0 0 0 1 0 0 0 1 58.11212500381481 24.44621581095566 9.5735430740612237 1 rotate no_reflect no_shear #
lump $-1 $-1 $19 $1 #
transform $-1 1 0 0 0 1 0 0 0 1 58.11212500381481 24.44621581095566 9.5735430740612237 1 rotate no_reflect no_shear #
lump $-1 $-1 $20 $2 #
transform $-1 1 0 0 0 1 0 0 0 1 58.11212500381481 24.44621581095566 9.5735430740612237 1 rotate no_reflect no_shear #
lump $-1 $-1 $21 $3 #
transform $-1 1 0 0 0 1 0 0 0 1 58.11212500381481 24.44621581095566 9.5735430740612237 1 rotate no_reflect no_shear #
lump $-1 $-1 $22 $4 #
transform $-1 1 0 0 0 1 0 0 0 1 58.11212500381481 24.44621581095566 9.5735430740612237 1 rotate no_reflect no_shear #
lump $-1 $-1 $23 $5 #
transform $-1 1 0 0 0 1 0 0 0 1 58.11212500381481 24.44621581095566 9.5735430740612237 1 rotate no_reflect no_shear #
shell $-1 $-1 $-1 $24 $-1 $6 #
shell $-1 $-1 $-1 $25 $-1 $8 #
shell $-1 $-1 $-1 $26 $-1 $10 #
shell $-1 $-1 $-1 $27 $-1 $12 #
shell $-1 $-1 $-1 $28 $-1 $14 #
shell $-1 $-1 $-1 $29 $-1 $16 #
face $-1 $30 $31 $18 $-1 $32 forward single #
face $-1 $33 $34 $19 $-1 $35 reversed single #
face $-1 $36 $37 $20 $-1 $38 forward single #
face $-1 $39 $40 $21 $-1 $41 reversed single #
face $-1 $42 $43 $22 $-1 $44 forward single #
face $-1 $45 $46 $23 $-1 $47 forward single #
face $-1 $48 $49 $18 $-1 $50 reversed single #
loop $-1 $-1 $51 $24 #
plane-surface $-1 0 0 9.5735430740612237 0 0 1 1 0 0 forward_v I I I I #
face $-1 $52 $53 $19 $-1 $54 reversed single #
loop $-1 $-1 $55 $25 #
plane-surface $-1 -144.48357595445168 10.503552596018292 83.874510091115624 0 1 0 -0.74314483375859142 0 0.66913059716165679 forward_v I I I I #
face $-1 $56 $57 $20 $-1 $58 forward single #
loop $-1 $59 $60 $26 #
cone-surface $-1 -55.340259235847583 17.474884203486976 6.7495230844637204 0.74314483375859142 0 -0.66913059716165679 0.66913059716165679 0 0.74314483375859142 1 I I 0 1 1 forward I I I I #
face $-1 $61 $62 $21 $-1 $63 reversed single #
loop $-1 $-1 $64 $27 #
plane-surface $-1 72.437560138712058 -8.1922803161615398 168.17283052971652 0 -1 0 -0.7660444514056185 0 -0.64278759981090561 forward_v I I I I #
face $-1 $65 $66 $22 $-1 $67 forward single #
loop $-1 $68 $69 $28 #
cone-surface $-1 55.471695464295742 -17.521564203371746 6.5972944463254617 -0.7660444514056185 0 -0.64278759981090561 0.64278759981090561 0 -0.7660444514056185 1 I I 0 1 1 forward I I I I #
face $-1 $70 $71 $23 $-1 $72 forward single #
loop $-1 $73 $74 $29 #
cone-surface $-1 55.471695464295742 -11.923993871045623 6.5972944463254617 -0.7660444514056185 0 -0.64278759981090561 0.64278759981090561 0 -0.7660444514056185 1 I I 0 1 1 forward I I I I #
face $-1 $75 $76 $18 $-1 $77 reversed single #
loop $-1 $-1 $78 $30 #
plane-surface $-1 0 0 -9.5735430740612237 0 0 1 1 0 0 forward_v I I I I #
coedge $-1 $79 $80 $81 $82 forward $31 $-1 #
face $-1 $83 $84 $19 $-1 $85 forward single #
loop $-1 $-1 $86 $33 #
plane-surface $-1 -58.112125003814796 17.474884203486976 6.1053082788447171 -0.74314483375859142 0 0.66913059716165679 0.66913059716165679 0 0.74314483375859142 forward_v I I I I #
coedge $-1 $87 $88 $89 $90 reversed $34 $-1 #
face $-1 $-1 $91 $20 $-1 $92 forward single #
loop $-1 $93 $94 $36 #
cone-surface $-1 -53.75822733023378 17.474884203486976 5.3250551938936361 0.74314483375859142 0 -0.66913059716165679 0.3345652985808284 0 0.37157241687929571 1 I I -0.70710678118654746 0.70710678118654746 0.5 forward I I I I #
loop $-1 $-1 $95 $26 #
coedge $-1 $60 $60 $96 $97 reversed $37 $-1 #
face $-1 $98 $99 $21 $-1 $100 reversed single #
loop $-1 $-1 $101 $39 #
plane-surface $-1 -16.595381698412027 -14.722779037208685 93.465323827489655 0.7660444514056185 0 0.64278759981090561 0.64278759981090561 0 -0.7660444514056185 forward_v I I I I #
coedge $-1 $102 $103 $104 $105 reversed $40 $-1 #
face $-1 $-1 $106 $22 $-1 $107 forward single #
loop $-1 $108 $109 $42 #
cone-surface $-1 54.605216827177713 -17.521564203371746 5.8702325605320844 -0.7660444514056185 0 -0.64278759981090561 0.3213937999054528 0 -0.38302222570280925 1 I I -0.70710678118654746 0.70710678118654746 0.5 forward I I I I #
loop $-1 $-1 $110 $28 #
coedge $-1 $69 $69 $111 $112 reversed $43 $-1 #
face $-1 $-1 $113 $23 $-1 $114 forward single #
loop $-1 $115 $116 $45 #
cone-surface $-1 54.605216827177713 -11.923993871045623 5.8702325605320844 -0.7660444514056185 0 -0.64278759981090561 0.3213937999054528 0 -0.38302222570280925 1 I I -0.70710678118654746 0.70710678118654746 0.5 forward I I I I #
loop $-1 $-1 $117 $29 #
coedge $-1 $74 $74 $118 $119 reversed $46 $-1 #
face $-1 $120 $121 $18 $-1 $122 reversed single #
loop $-1 $-1 $123 $48 #
plane-surface $-1 0 -24.44621581095566 0 0 1 0 0 0 1 forward_v I I I I #
coedge $-1 $124 $125 $126 $127 forward $49 $-1 #
coedge $-1 $128 $51 $129 $130 forward $31 $-1 #
coedge $-1 $51 $128 $131 $132 forward $31 $-1 #
coedge $-1 $133 $134 $51 $82 reversed $135 $-1 #
edge $-1 $136 -24.44621581095566 $137 24.44621581095566 $81 $138 forward 7 unknown #
face $-1 $139 $140 $19 $-1 $141 reversed single #
loop $-1 $-1 $89 $52 #
plane-surface $-1 0 0 9.5735430740612237 0 0 1 1 0 0 forward_v I I I I #
coedge $-1 $142 $143 $144 $145 reversed $53 $-1 #
coedge $-1 $88 $55 $146 $147 reversed $34 $-1 #
coedge $-1 $55 $87 $142 $148 reversed $34 $-1 #
coedge $-1 $144 $149 $55 $90 forward $84 $-1 #
edge $-1 $150 14.12966297341103 $151 17.252475531876506 $89 $152 forward 7 unknown #
loop $-1 $-1 $96 $56 #
plane-surface $-1 -58.112125003814796 17.474884203486976 6.1053082788447171 -0.74314483375859142 0 0.66913059716165679 0.66913059716165679 0 0.74314483375859142 forward_v I I I I #
loop $-1 $-1 $153 $36 #
coedge $-1 $94 $94 $95 $154 reversed $57 $-1 #
coedge $-1 $95 $95 $94 $154 forward $59 $-1 #
coedge $-1 $96 $96 $60 $97 forward $91 $-1 #
edge $-1 $155 0 $155 6.2831853071796004 $96 $156 forward 7 unknown #
face $-1 $157 $158 $21 $-1 $159 forward single #
loop $-1 $-1 $160 $61 #
plane-surface $-1 72.437560138712058 -21.25327775825583 168.17283052971652 0 1 0 0.7660444514056185 0 0.64278759981090561 forward_v I I I I #
coedge $-1 $161 $162 $163 $164 reversed $62 $-1 #
coedge $-1 $103 $64 $165 $166 reversed $40 $-1 #
coedge $-1 $64 $102 $161 $167 reversed $40 $-1 #
coedge $-1 $163 $168 $64 $105 forward $158 $-1 #
edge $-1 $169 -21.893344934458781 $170 -17.579398678251096 $104 $171 forward 7 unknown #
loop $-1 $-1 $111 $65 #
plane-surface $-1 -16.595381698412027 -14.722779037208685 93.465323827489655 0.7660444514056185 0 0.64278759981090561 0.64278759981090561 0 -0.7660444514056185 forward_v I I I I #
loop $-1 $-1 $172 $42 #
coedge $-1 $109 $109 $110 $173 reversed $66 $-1 #
coedge $-1 $110 $110 $109 $173 forward $68 $-1 #
coedge $-1 $111 $111 $69 $112 forward $106 $-1 #
edge $-1 $174 0 $174 6.2831853071796004 $111 $175 forward 7 unknown #
loop $-1 $-1 $118 $70 #
plane-surface $-1 -16.595381698412027 -14.722779037208685 93.465323827489655 0.7660444514056185 0 0.64278759981090561 0.64278759981090561 0 -0.7660444514056185 forward_v I I I I #
loop $-1 $-1 $176 $45 #
coedge $-1 $116 $116 $117 $177 reversed $71 $-1 #
coedge $-1 $117 $117 $116 $177 forward $73 $-1 #
coedge $-1 $118 $118 $74 $119 forward $113 $-1 #
edge $-1 $178 0 $178 6.2831853071796004 $118 $179 forward 7 unknown #
face $-1 $180 $181 $18 $-1 $182 reversed single #
loop $-1 $-1 $183 $75 #
plane-surface $-1 -58.11212500381481 0 0 1 0 0 0 0 -1 forward_v I I I I #
coedge $-1 $184 $131 $185 $186 forward $76 $-1 #
coedge $-1 $187 $78 $184 $188 forward $49 $-1 #
coedge $-1 $78 $187 $189 $190 forward $49 $-1 #
coedge $-1 $134 $133 $78 $127 reversed $135 $-1 #
edge $-1 $191 -24.44621581095566 $192 24.44621581095566 $126 $193 forward 7 unknown #
coedge $-1 $80 $79 $194 $195 forward $31 $-1 #
coedge $-1 $196 $197 $79 $130 reversed $181 $-1 #
edge $-1 $137 -58.11212500381481 $198 58.11212500381481 $129 $199 forward 7 unknown #
coedge $-1 $123 $200 $80 $132 reversed $76 $-1 #
edge $-1 $201 -58.11212500381481 $136 58.11212500381481 $131 $202 forward 7 unknown #
coedge $-1 $126 $81 $200 $203 forward $135 $-1 #
coedge $-1 $81 $126 $196 $204 reversed $135 $-1 #
loop $-1 $-1 $133 $180 #
vertex $-1 $82 $205 #
vertex $-1 $82 $206 #
straight-curve $-1 58.11212500381481 0 9.5735430740612237 0 1 0 I I #
face $-1 $-1 $207 $19 $-1 $208 reversed single #
loop $-1 $-1 $209 $83 #
plane-surface $-1 0 24.44621581095566 0 0 -1 0 0 0 -1 forward_v I I I I #
coedge $-1 $210 $86 $88 $148 forward $53 $-1 #
coedge $-1 $86 $210 $209 $211 reversed $53 $-1 #
coedge $-1 $212 $89 $86 $145 forward $84 $-1 #
edge $-1 $151 1.7661104942748036 $213 15.708773709212172 $144 $214 forward 7 unknown #
coedge $-1 $215 $216 $87 $147 forward $207 $-1 #
edge $-1 $217 -35.831946766713109 $150 -32.363711971496585 $146 $218 forward 7 unknown #
edge $-1 $151 -4.6669702023968487 $217 2.1389731374768986e-014 $88 $219 forward 7 unknown #
coedge $-1 $89 $212 $215 $220 forward $84 $-1 #
vertex $-1 $147 $221 #
vertex $-1 $90 $222 #
straight-curve $-1 -72.24178797722584 10.503552596018292 9.5735430740612202 1 0 0 I I #
coedge $-1 $153 $153 $-1 $223 reversed $93 $-1 #
edge $-1 $224 0 $224 6.2831853071796004 $94 $225 forward 7 unknown #
vertex $-1 $97 $226 #
ellipse-curve $-1 -56.550718724582076 17.474884203486976 7.8394256764529615 -0.74314483375859142 0 0.66913059716165679 0.66913059716165679 0 0.74314483375859142 1 I I #
face $-1 $-1 $227 $21 $-1 $228 reversed single #
loop $-1 $-1 $104 $98 #
plane-surface $-1 0 0 9.5735430740612237 0 0 1 1 0 0 forward_v I I I I #
coedge $-1 $229 $230 $231 $232 reversed $99 $-1 #
coedge $-1 $233 $101 $103 $167 forward $62 $-1 #
coedge $-1 $101 $233 $229 $234 forward $62 $-1 #
coedge $-1 $231 $104 $101 $164 forward $158 $-1 #
edge $-1 $170 0.8308907975571973 $235 13.891888239651488 $163 $236 forward 7 unknown #
coedge $-1 $237 $238 $102 $166 forward $227 $-1 #
edge $-1 $239 -79.654033274492647 $169 -74.51287219079704 $165 $240 forward 7 unknown #
edge $-1 $170 109.51294092594109 $239 116.22425000762958 $103 $241 forward 7 unknown #
coedge $-1 $104 $231 $237 $242 forward $158 $-1 #
vertex $-1 $166 $243 #
vertex $-1 $105 $244 #
straight-curve $-1 36.218780069356029 -8.1922803161615398 9.5735430740612202 -1 0 0 I I #
coedge $-1 $172 $172 $-1 $245 reversed $108 $-1 #
edge $-1 $246 0 $246 6.2831853071796004 $109 $247 forward 7 unknown #
vertex $-1 $112 $248 #
ellipse-curve $-1 55.955151875710989 -17.521564203371746 7.0029625322134068 0.7660444514056185 0 0.64278759981090561 0.64278759981090561 0 -0.7660444514056185 1 I I #
coedge $-1 $176 $176 $-1 $249 reversed $115 $-1 #
edge $-1 $250 0 $250 6.2831853071796004 $116 $251 forward 7 unknown #
vertex $-1 $119 $252 #
ellipse-curve $-1 55.955151875710989 -11.923993871045623 7.0029625322134068 0.7660444514056185 0 0.64278759981090561 0.64278759981090561 0 -0.7660444514056185 1 I I #
face $-1 $-1 $135 $18 $-1 $253 reversed single #
loop $-1 $-1 $196 $120 #
plane-surface $-1 0 24.44621581095566 0 0 -1 0 0 0 -1 forward_v I I I I #
coedge $-1 $254 $194 $197 $255 forward $121 $-1 #
coedge $-1 $200 $123 $124 $188 reversed $76 $-1 #
coedge $-1 $194 $254 $123 $186 reversed $121 $-1 #
edge $-1 $201 -9.5735430740612237 $256 9.5735430740612237 $185 $257 forward 7 unknown #
coedge $-1 $125 $124 $254 $258 forward $49 $-1 #
edge $-1 $192 -58.11212500381481 $256 58.11212500381481 $184 $259 forward 7 unknown #
coedge $-1 $197 $196 $125 $190 reversed $181 $-1 #
edge $-1 $260 -58.11212500381481 $191 58.11212500381481 $189 $261 forward 7 unknown #
vertex $-1 $127 $262 #
vertex $-1 $203 $263 #
straight-curve $-1 58.11212500381481 0 -9.5735430740612237 0 -1 0 I I #
coedge $-1 $183 $185 $128 $195 reversed $121 $-1 #
edge $-1 $198 -24.44621581095566 $201 24.44621581095566 $194 $264 forward 7 unknown #
coedge $-1 $189 $129 $134 $204 forward $181 $-1 #
coedge $-1 $129 $189 $183 $255 reversed $181 $-1 #
vertex $-1 $130 $265 #
straight-curve $-1 0 24.44621581095566 9.5735430740612237 -1 0 0 I I #
coedge $-1 $131 $184 $133 $203 reversed $76 $-1 #
vertex $-1 $195 $266 #
straight-curve $-1 0 -24.44621581095566 9.5735430740612237 1 0 0 I I #
edge $-1 $136 -9.5735430740612237 $192 9.5735430740612237 $133 $267 forward 7 unknown #
edge $-1 $137 -9.5735430740612237 $191 9.5735430740612237 $134 $268 forward 7 unknown #
point $-1 58.11212500381481 -24.44621581095566 9.5735430740612237 #
point $-1 58.11212500381481 24.44621581095566 9.5735430740612237 #
loop $-1 $-1 $146 $139 #
plane-surface $-1 -58.11212500381481 0 0 1 0 0 0 0 -1 forward_v I I I I #
coedge $-1 $269 $270 $143 $211 forward $140 $-1 #
coedge $-1 $143 $142 $216 $271 reversed $53 $-1 #
edge $-1 $213 12.50676609770737 $272 17.173736300104242 $209 $273 forward 7 unknown #
coedge $-1 $149 $144 $270 $274 forward $84 $-1 #
vertex $-1 $274 $275 #
straight-curve $-1 -54.989312445349327 8.737442101743488 9.5735430740612237 0 1 0 I I #
coedge $-1 $276 $146 $149 $220 reversed $207 $-1 #
coedge $-1 $146 $276 $210 $271 forward $207 $-1 #
vertex $-1 $147 $277 #
straight-curve $-1 -58.11212500381481 10.503552596018292 41.937255045557812 0 0 1 I I #
straight-curve $-1 -58.112125003814796 10.503552596018292 6.1053082788447171 -0.66913059716165679 0 -0.74314483375859142 I I #
edge $-1 $278 -24.44621581095566 $150 -10.503552596018292 $215 $279 forward 7 unknown #
point $-1 -58.11212500381481 10.503552596018292 9.5735430740612237 #
point $-1 -54.989312445349334 10.503552596018292 9.5735430740612237 #
edge $-1 $280 1 $280 0 $153 $-1 forward 7 unknown #
vertex $-1 $154 $281 #
ellipse-curve $-1 -54.129799747113076 17.474884203486976 5.6596204924744642 -0.74314483375859142 0 0.66913059716165679 0.66913059716165679 0 0.74314483375859142 1 I I #
point $-1 -55.881588127420429 17.474884203486976 8.5825705102115677 #
loop $-1 $-1 $165 $157 #
plane-surface $-1 58.11212500381481 0 0 -1 0 0 0 0 1 forward_v I I I I #
coedge $-1 $230 $160 $162 $234 reversed $99 $-1 #
coedge $-1 $160 $229 $282 $283 reversed $99 $-1 #
coedge $-1 $168 $163 $160 $232 forward $158 $-1 #
edge $-1 $235 17.579398678251096 $284 21.893344934458781 $231 $285 forward 7 unknown #
coedge $-1 $162 $161 $238 $286 reversed $62 $-1 #
edge $-1 $287 -116.22425000762958 $235 -109.51294092594109 $229 $288 forward 7 unknown #
vertex $-1 $164 $289 #
straight-curve $-1 53.798178747607139 -7.3613895186043425 9.573543074061206 0 -1 0 I I #
coedge $-1 $282 $165 $168 $242 reversed $227 $-1 #
coedge $-1 $165 $282 $233 $286 forward $227 $-1 #
vertex $-1 $166 $290 #
straight-curve $-1 58.11212500381481 -8.1922803161615398 84.08641526485826 0 0 1 I I #
straight-curve $-1 -16.595381698412027 -8.1922803161615398 93.465323827489655 0.64278759981090561 0 -0.7660444514056185 I I #
edge $-1 $284 -21.25327775825583 $169 -8.1922803161615398 $237 $291 forward 7 unknown #
point $-1 58.11212500381481 -8.1922803161615398 9.5735430740612237 #
point $-1 53.798178747607125 -8.1922803161615398 9.5735430740612202 #
edge $-1 $292 1 $292 0 $172 $-1 forward 7 unknown #
vertex $-1 $173 $293 #
ellipse-curve $-1 54.988239052880523 -17.521564203371746 6.191626360437537 0.7660444514056185 0 0.64278759981090561 0.64278759981090561 0 -0.7660444514056185 1 I I #
point $-1 56.597939475521869 -17.521564203371746 6.2369180808077678 #
edge $-1 $294 1 $294 0 $176 $-1 forward 7 unknown #
vertex $-1 $177 $295 #
ellipse-curve $-1 54.988239052880523 -11.923993871045623 6.191626360437537 0.7660444514056185 0 0.64278759981090561 0.64278759981090561 0 -0.7660444514056185 1 I I #
point $-1 56.597939475521869 -11.923993871045623 6.2369180808077678 #
plane-surface $-1 58.11212500381481 0 0 -1 0 0 0 0 1 forward_v I I I I #
coedge $-1 $185 $183 $187 $258 reversed $121 $-1 #
edge $-1 $198 -9.5735430740612237 $260 9.5735430740612237 $197 $296 forward 7 unknown #
vertex $-1 $258 $297 #
straight-curve $-1 -58.11212500381481 -24.44621581095566 0 0 0 -1 I I #
edge $-1 $256 -24.44621581095566 $260 24.44621581095566 $254 $298 forward 7 unknown #
straight-curve $-1 0 -24.44621581095566 -9.5735430740612237 -1 0 0 I I #
vertex $-1 $190 $299 #
straight-curve $-1 0 24.44621581095566 -9.5735430740612237 1 0 0 I I #
point $-1 58.11212500381481 24.44621581095566 -9.5735430740612237 #
point $-1 58.11212500381481 -24.44621581095566 -9.5735430740612237 #
straight-curve $-1 -58.11212500381481 0 9.5735430740612237 0 -1 0 I I #
point $-1 -58.11212500381481 24.44621581095566 9.5735430740612237 #
point $-1 -58.11212500381481 -24.44621581095566 9.5735430740612237 #
straight-curve $-1 58.11212500381481 -24.44621581095566 0 0 0 -1 I I #
straight-curve $-1 58.11212500381481 24.44621581095566 0 0 0 -1 I I #
coedge $-1 $270 $209 $276 $300 reversed $140 $-1 #
coedge $-1 $209 $269 $212 $274 reversed $140 $-1 #
edge $-1 $272 -15.708773709212172 $217 -1.7661104942748036 $216 $301 forward 7 unknown #
vertex $-1 $211 $302 #
straight-curve $-1 -46.620652577829233 24.44621581095566 18.867881686599553 -0.66913059716165679 0 -0.74314483375859142 I I #
edge $-1 $213 54.989312445349334 $278 58.11212500381481 $270 $303 forward 7 unknown #
point $-1 -54.989312445349334 24.44621581095566 9.5735430740612237 #
coedge $-1 $216 $215 $269 $300 forward $207 $-1 #
point $-1 -58.11212500381481 10.503552596018292 6.1053082788447011 #
vertex $-1 $274 $304 #
straight-curve $-1 -58.11212500381481 0 9.5735430740612237 0 -1 0 I I #
vertex $-1 $223 $305 #
point $-1 -53.460669149951421 17.474884203486976 6.4027653262330562 #
coedge $-1 $238 $237 $230 $283 forward $227 $-1 #
edge $-1 $284 74.51287219079704 $287 79.654033274492647 $282 $306 forward 7 unknown #
vertex $-1 $242 $307 #
straight-curve $-1 36.218780069356029 -21.25327775825583 9.5735430740612202 1 0 0 I I #
edge $-1 $287 -13.891888239651488 $239 -0.8308907975571973 $238 $308 forward 7 unknown #
vertex $-1 $286 $309 #
straight-curve $-1 -16.595381698412027 -21.25327775825583 93.465323827489655 -0.64278759981090561 0 0.7660444514056185 I I #
point $-1 53.798178747607125 -21.25327775825583 9.5735430740612202 #
point $-1 58.11212500381481 -8.1922803161615398 4.432381990365613 #
straight-curve $-1 58.11212500381481 0 9.5735430740612237 0 1 0 I I #
vertex $-1 $245 $310 #
point $-1 55.631026652691432 -17.521564203371746 5.4255819090319184 #
vertex $-1 $249 $311 #
point $-1 55.631026652691432 -11.923993871045623 5.4255819090319184 #
straight-curve $-1 -58.11212500381481 24.44621581095566 0 0 0 -1 I I #
point $-1 -58.11212500381481 -24.44621581095566 -9.5735430740612237 #
straight-curve $-1 -58.11212500381481 0 -9.5735430740612237 0 1 0 I I #
point $-1 -58.11212500381481 24.44621581095566 -9.5735430740612237 #
edge $-1 $278 -9.5735430740612237 $272 -6.1053082788447011 $269 $312 forward 7 unknown #
straight-curve $-1 -58.11212500381481 8.737442101743488 6.1053082788447011 0 -1 0 I I #
point $-1 -58.11212500381481 24.44621581095566 6.1053082788447011 #
straight-curve $-1 0 24.44621581095566 9.5735430740612237 -1 0 0 I I #
point $-1 -58.11212500381481 24.44621581095566 9.5735430740612237 #
point $-1 -53.386654913354484 17.474884203486976 4.9904898953128081 #
straight-curve $-1 58.11212500381481 -21.25327775825583 84.08641526485826 0 0 -1 I I #
point $-1 58.11212500381481 -21.25327775825583 9.5735430740612237 #
straight-curve $-1 58.11212500381481 -7.3613895186043425 4.432381990365613 0 1 0 I I #
point $-1 58.11212500381481 -21.25327775825583 4.432381990365613 #
point $-1 54.222194601474904 -17.521564203371746 5.5488387606266318 #
point $-1 54.222194601474904 -11.923993871045623 5.5488387606266318 #
straight-curve $-1 -58.11212500381481 24.44621581095566 0 0 0 -1 I I #
End-of-ACIS-data 