500 0 13 0           
7 Unknown 11 ACIS 5.0 NT 24 Fri Mar 26 03:16:01 1999 
-1 9.9999999999999995e-007 1e-010 
body $-1 $13 $-1 $14 #
body $-1 $15 $-1 $16 #
body $-1 $17 $-1 $18 #
body $-1 $19 $-1 $20 #
body $-1 $21 $-1 $22 #
body $-1 $23 $-1 $24 #
body $-1 $25 $-1 $26 #
body $-1 $27 $-1 $28 #
body $-1 $29 $-1 $30 #
body $-1 $31 $-1 $32 #
body $-1 $33 $-1 $34 #
body $-1 $35 $-1 $36 #
body $-1 $37 $-1 $38 #
lump $-1 $-1 $39 $0 #
transform $-1 1 0 0 0 1 0 0 0 1 57.054963835566269 24.308649803851633 4.9919270505428406 1 rotate no_reflect no_shear #
lump $-1 $-1 $40 $1 #
transform $-1 1 0 0 0 1 0 0 0 1 57.054963835566269 24.308649803851633 4.9919270505428406 1 rotate no_reflect no_shear #
lump $-1 $-1 $41 $2 #
transform $-1 1 0 0 0 1 0 0 0 1 57.054963835566269 24.308649803851633 4.9919270505428406 1 rotate no_reflect no_shear #
lump $-1 $-1 $42 $3 #
transform $-1 1 0 0 0 1 0 0 0 1 57.054963835566269 24.308649803851633 4.9919270505428406 1 rotate no_reflect no_shear #
lump $-1 $-1 $43 $4 #
transform $-1 1 0 0 0 1 0 0 0 1 57.054963835566269 24.308649803851633 4.9919270505428406 1 rotate no_reflect no_shear #
lump $-1 $-1 $44 $5 #
transform $-1 1 0 0 0 1 0 0 0 1 57.054963835566269 24.308649803851633 4.9919270505428406 1 rotate no_reflect no_shear #
lump $-1 $-1 $45 $6 #
transform $-1 1 0 0 0 1 0 0 0 1 57.054963835566269 24.308649803851633 4.9919270505428406 1 rotate no_reflect no_shear #
lump $-1 $-1 $46 $7 #
transform $-1 1 0 0 0 1 0 0 0 1 57.054963835566269 24.308649803851633 4.9919270505428406 1 rotate no_reflect no_shear #
lump $-1 $-1 $47 $8 #
transform $-1 1 0 0 0 1 0 0 0 1 57.054963835566269 24.308649803851633 4.9919270505428406 1 rotate no_reflect no_shear #
lump $-1 $-1 $48 $9 #
transform $-1 1 0 0 0 1 0 0 0 1 57.054963835566269 24.308649803851633 4.9919270505428406 1 rotate no_reflect no_shear #
lump $-1 $-1 $49 $10 #
transform $-1 1 0 0 0 1 0 0 0 1 57.054963835566269 24.308649803851633 4.9919270505428406 1 rotate no_reflect no_shear #
lump $-1 $-1 $50 $11 #
transform $-1 1 0 0 0 1 0 0 0 1 57.054963835566269 24.308649803851633 4.9919270505428406 1 rotate no_reflect no_shear #
lump $-1 $-1 $51 $12 #
transform $-1 1 0 0 0 1 0 0 0 1 57.054963835566269 24.308649803851633 4.9919270505428406 1 rotate no_reflect no_shear #
shell $-1 $-1 $-1 $52 $-1 $13 #
shell $-1 $-1 $-1 $53 $-1 $15 #
shell $-1 $-1 $-1 $54 $-1 $17 #
shell $-1 $-1 $-1 $55 $-1 $19 #
shell $-1 $-1 $-1 $56 $-1 $21 #
shell $-1 $-1 $-1 $57 $-1 $23 #
shell $-1 $-1 $-1 $58 $-1 $25 #
shell $-1 $-1 $-1 $59 $-1 $27 #
shell $-1 $-1 $-1 $60 $-1 $29 #
shell $-1 $-1 $-1 $61 $-1 $31 #
shell $-1 $-1 $-1 $62 $-1 $33 #
shell $-1 $-1 $-1 $63 $-1 $35 #
shell $-1 $-1 $-1 $64 $-1 $37 #
face $-1 $65 $66 $39 $-1 $67 forward single #
face $-1 $68 $69 $40 $-1 $70 forward single #
face $-1 $71 $72 $41 $-1 $73 reversed single #
face $-1 $74 $75 $42 $-1 $76 forward single #
face $-1 $77 $78 $43 $-1 $79 forward single #
face $-1 $80 $81 $44 $-1 $82 reversed single #
face $-1 $83 $84 $45 $-1 $85 forward single #
face $-1 $86 $87 $46 $-1 $88 forward single #
face $-1 $89 $90 $47 $-1 $91 forward single #
face $-1 $92 $93 $48 $-1 $94 reversed single #
face $-1 $95 $96 $49 $-1 $97 forward single #
face $-1 $98 $99 $50 $-1 $100 forward single #
face $-1 $101 $102 $51 $-1 $103 forward single #
face $-1 $104 $105 $39 $-1 $106 reversed single #
loop $-1 $-1 $107 $52 #
plane-surface $-1 0 0 4.9919270505428406 0 0 1 1 0 0 forward_v I I I I #
face $-1 $108 $109 $40 $-1 $110 reversed single #
loop $-1 $-1 $111 $53 #
plane-surface $-1 0 -24.308649803851633 0 0 1 0 0 0 1 forward_v I I I I #
face $-1 $112 $113 $41 $-1 $114 reversed single #
loop $-1 $-1 $115 $54 #
plane-surface $-1 23.503048222913691 18.25887738691608 158.04771889930163 0 -1 0 -0.54463904215088732 0 -0.83867056331134215 forward_v I I I I #
face $-1 $116 $117 $42 $-1 $118 forward single #
loop $-1 $119 $120 $55 #
cone-surface $-1 52.911552323167143 13.399454232648861 1.8980643032241238 -0.54463904215088732 0 -0.83867056331134215 0.41933528165567108 0 -0.27231952107544366 1 I I 0 1 0.5 forward I I I I #
face $-1 $121 $122 $43 $-1 $123 forward single #
loop $-1 $124 $125 $56 #
cone-surface $-1 52.911552323167143 16.315108125209196 1.8980643032241238 -0.54463904215088732 0 -0.83867056331134215 0.41933528165567108 0 -0.27231952107544366 1 I I 0 1 0.5 forward I I I I #
face $-1 $126 $127 $44 $-1 $128 reversed single #
loop $-1 $-1 $129 $57 #
plane-surface $-1 -150.52834528919402 -10.631167155642419 66.203474101382099 0 1 0 -0.81915205242281985 0 0.57357642473473569 forward_v I I I I #
face $-1 $130 $131 $45 $-1 $132 forward single #
loop $-1 $133 $134 $58 #
cone-surface $-1 -55.077305503857453 -8.9161243536033687 2.5267712999087353 0.81915205242281985 0 -0.57357642473473569 0.28678821236736785 0 0.40957602621140993 1 I I 0 1 0.5 forward I I I I #
face $-1 $135 $136 $46 $-1 $137 forward single #
loop $-1 $138 $139 $59 #
cone-surface $-1 -55.077305503857453 -6.3435601505447927 2.5267712999087353 0.81915205242281985 0 -0.57357642473473569 0.28678821236736785 0 0.40957602621140993 1 I I 0 1 0.5 forward I I I I #
face $-1 $140 $141 $47 $-1 $142 forward single #
loop $-1 $143 $144 $60 #
cone-surface $-1 -55.077305503857453 -3.7709959474862167 2.5267712999087353 0.81915205242281985 0 -0.57357642473473569 0.28678821236736785 0 0.40957602621140993 1 I I 0 1 0.5 forward I I I I #
face $-1 $145 $146 $48 $-1 $147 reversed single #
loop $-1 $-1 $148 $61 #
plane-surface $-1 -150.52834528919402 7.4649583137997348 66.203474101382099 0 1 0 -0.81915205242281985 0 0.57357642473473569 forward_v I I I I #
face $-1 $149 $150 $49 $-1 $151 forward single #
loop $-1 $152 $153 $62 #
cone-surface $-1 -55.077305503857453 9.1800011158387811 2.5267712999087353 0.81915205242281985 0 -0.57357642473473569 0.28678821236736785 0 0.40957602621140993 1 I I 0 1 0.5 forward I I I I #
face $-1 $154 $155 $50 $-1 $156 forward single #
loop $-1 $157 $158 $63 #
cone-surface $-1 -55.077305503857453 11.752565318897357 2.5267712999087353 0.81915205242281985 0 -0.57357642473473569 0.28678821236736785 0 0.40957602621140993 1 I I 0 1 0.5 forward I I I I #
face $-1 $159 $160 $51 $-1 $161 forward single #
loop $-1 $162 $163 $64 #
cone-surface $-1 -55.077305503857453 14.325129521955933 2.5267712999087353 0.81915205242281985 0 -0.57357642473473569 0.28678821236736785 0 0.40957602621140993 1 I I 0 1 0.5 forward I I I I #
face $-1 $164 $165 $39 $-1 $166 reversed single #
loop $-1 $-1 $167 $65 #
plane-surface $-1 0 0 -4.9919270505428406 0 0 1 1 0 0 forward_v I I I I #
coedge $-1 $168 $169 $170 $171 forward $66 $-1 #
face $-1 $172 $173 $40 $-1 $174 reversed single #
loop $-1 $-1 $175 $68 #
plane-surface $-1 0 0 -4.9919270505428406 0 0 1 1 0 0 forward_v I I I I #
coedge $-1 $176 $177 $178 $179 forward $69 $-1 #
face $-1 $180 $181 $41 $-1 $182 reversed single #
loop $-1 $-1 $183 $71 #
plane-surface $-1 -38.645673483798966 14.857281178929025 62.347081579936386 0.54463904215088732 0 0.83867056331134215 0.83867056331134215 0 -0.54463904215088732 forward_v I I I I #
coedge $-1 $184 $185 $186 $187 reversed $72 $-1 #
face $-1 $-1 $188 $42 $-1 $189 forward single #
loop $-1 $190 $191 $74 #
cone-surface $-1 52.322704055503976 13.399454232648861 0.9913175037371369 -0.54463904215088732 0 -0.83867056331134215 0.20966764082783554 0 -0.13615976053772183 1 I I -0.70710678118654746 0.70710678118654746 0.25 forward I I I I #
loop $-1 $-1 $192 $55 #
coedge $-1 $120 $120 $193 $194 reversed $75 $-1 #
face $-1 $-1 $195 $43 $-1 $196 forward single #
loop $-1 $197 $198 $77 #
cone-surface $-1 52.322704055503976 16.315108125209196 0.9913175037371369 -0.54463904215088732 0 -0.83867056331134215 0.20966764082783554 0 -0.13615976053772183 1 I I -0.70710678118654746 0.70710678118654746 0.25 forward I I I I #
loop $-1 $-1 $199 $56 #
coedge $-1 $125 $125 $200 $201 reversed $78 $-1 #
face $-1 $202 $203 $44 $-1 $204 reversed single #
loop $-1 $-1 $205 $80 #
plane-surface $-1 -57.054963835566284 -6.3435601505447963 0.75270976103460896 -0.81915205242281985 0 0.57357642473473569 0.57357642473473569 0 0.81915205242281985 forward_v I I I I #
coedge $-1 $206 $207 $208 $209 reversed $81 $-1 #
face $-1 $-1 $210 $45 $-1 $211 forward single #
loop $-1 $212 $213 $83 #
cone-surface $-1 -54.379025065359137 -8.9161243536033687 2.0378300878450544 0.81915205242281985 0 -0.57357642473473569 0.14339410618368392 0 0.20478801310570496 1 I I -0.70710678118654746 0.70710678118654746 0.25 forward I I I I #
loop $-1 $-1 $214 $58 #
coedge $-1 $134 $134 $215 $216 reversed $84 $-1 #
face $-1 $-1 $217 $46 $-1 $218 forward single #
loop $-1 $219 $220 $86 #
cone-surface $-1 -54.379025065359137 -6.3435601505447927 2.0378300878450544 0.81915205242281985 0 -0.57357642473473569 0.14339410618368392 0 0.20478801310570496 1 I I -0.70710678118654746 0.70710678118654746 0.25 forward I I I I #
loop $-1 $-1 $221 $59 #
coedge $-1 $139 $139 $222 $223 reversed $87 $-1 #
face $-1 $-1 $224 $47 $-1 $225 forward single #
loop $-1 $226 $227 $89 #
cone-surface $-1 -54.379025065359137 -3.7709959474862167 2.0378300878450544 0.81915205242281985 0 -0.57357642473473569 0.14339410618368392 0 0.20478801310570496 1 I I -0.70710678118654746 0.70710678118654746 0.25 forward I I I I #
loop $-1 $-1 $228 $60 #
coedge $-1 $144 $144 $229 $230 reversed $90 $-1 #
face $-1 $231 $232 $48 $-1 $233 reversed single #
loop $-1 $-1 $234 $92 #
plane-surface $-1 -57.054963835566284 11.752565318897357 0.75270976103460896 -0.81915205242281985 0 0.57357642473473569 0.57357642473473569 0 0.81915205242281985 forward_v I I I I #
coedge $-1 $235 $236 $237 $238 reversed $93 $-1 #
face $-1 $-1 $239 $49 $-1 $240 forward single #
loop $-1 $241 $242 $95 #
cone-surface $-1 -54.379025065359137 9.1800011158387811 2.0378300878450544 0.81915205242281985 0 -0.57357642473473569 0.14339410618368392 0 0.20478801310570496 1 I I -0.70710678118654746 0.70710678118654746 0.25 forward I I I I #
loop $-1 $-1 $243 $62 #
coedge $-1 $153 $153 $244 $245 reversed $96 $-1 #
face $-1 $-1 $246 $50 $-1 $247 forward single #
loop $-1 $248 $249 $98 #
cone-surface $-1 -54.379025065359137 11.752565318897357 2.0378300878450544 0.81915205242281985 0 -0.57357642473473569 0.14339410618368392 0 0.20478801310570496 1 I I -0.70710678118654746 0.70710678118654746 0.25 forward I I I I #
loop $-1 $-1 $250 $63 #
coedge $-1 $158 $158 $251 $252 reversed $99 $-1 #
face $-1 $-1 $253 $51 $-1 $254 forward single #
loop $-1 $255 $256 $101 #
cone-surface $-1 -54.379025065359137 14.325129521955933 2.0378300878450544 0.81915205242281985 0 -0.57357642473473569 0.14339410618368392 0 0.20478801310570496 1 I I -0.70710678118654746 0.70710678118654746 0.25 forward I I I I #
loop $-1 $-1 $257 $64 #
coedge $-1 $163 $163 $258 $259 reversed $102 $-1 #
face $-1 $260 $261 $39 $-1 $262 reversed single #
loop $-1 $-1 $263 $104 #
plane-surface $-1 0 -24.308649803851633 0 0 1 0 0 0 1 forward_v I I I I #
coedge $-1 $264 $265 $266 $267 forward $105 $-1 #
coedge $-1 $268 $107 $269 $270 forward $66 $-1 #
coedge $-1 $107 $268 $271 $272 forward $66 $-1 #
coedge $-1 $273 $274 $107 $171 reversed $275 $-1 #
edge $-1 $276 -24.308649803851633 $277 24.308649803851633 $170 $278 forward 7 unknown #
face $-1 $279 $280 $40 $-1 $281 reversed single #
loop $-1 $-1 $282 $108 #
plane-surface $-1 -53.046982903302862 -29.717654972204198 0 0 1 0 0 0 1 forward_v I I I I #
coedge $-1 $283 $284 $177 $285 forward $109 $-1 #
coedge $-1 $286 $111 $287 $288 reversed $69 $-1 #
coedge $-1 $111 $286 $175 $285 reversed $69 $-1 #
coedge $-1 $289 $290 $111 $179 reversed $280 $-1 #
edge $-1 $291 -4.9919270505428406 $292 4.9919270505428406 $178 $293 forward 7 unknown #
face $-1 $294 $295 $41 $-1 $296 forward single #
loop $-1 $-1 $297 $112 #
plane-surface $-1 23.503048222913691 11.45568497094197 158.04771889930163 0 1 0 0.54463904215088732 0 0.83867056331134215 forward_v I I I I #
coedge $-1 $298 $299 $300 $301 reversed $113 $-1 #
coedge $-1 $185 $115 $302 $303 reversed $72 $-1 #
coedge $-1 $115 $184 $298 $304 reversed $72 $-1 #
coedge $-1 $300 $305 $115 $187 forward $295 $-1 #
edge $-1 $306 -45.303439724109424 $307 -37.921993713562095 $186 $308 forward 7 unknown #
loop $-1 $-1 $193 $116 #
plane-surface $-1 -38.645673483798966 14.857281178929025 62.347081579936386 0.54463904215088732 0 0.83867056331134215 0.83867056331134215 0 -0.54463904215088732 forward_v I I I I #
loop $-1 $-1 $309 $74 #
coedge $-1 $191 $191 $192 $310 reversed $117 $-1 #
coedge $-1 $192 $192 $191 $310 forward $119 $-1 #
coedge $-1 $193 $193 $120 $194 forward $188 $-1 #
edge $-1 $311 0 $311 6.2831853071796004 $193 $312 forward 7 unknown #
loop $-1 $-1 $200 $121 #
plane-surface $-1 -38.645673483798966 14.857281178929025 62.347081579936386 0.54463904215088732 0 0.83867056331134215 0.83867056331134215 0 -0.54463904215088732 forward_v I I I I #
loop $-1 $-1 $313 $77 #
coedge $-1 $198 $198 $199 $314 reversed $122 $-1 #
coedge $-1 $199 $199 $198 $314 forward $124 $-1 #
coedge $-1 $200 $200 $125 $201 forward $195 $-1 #
edge $-1 $315 0 $315 6.2831853071796004 $200 $316 forward 7 unknown #
face $-1 $317 $318 $44 $-1 $319 reversed single #
loop $-1 $-1 $320 $126 #
plane-surface $-1 -150.52834528919402 -2.055953145447174 66.203474101382099 0 -1 0 0.81915205242281985 0 -0.57357642473473569 forward_v I I I I #
coedge $-1 $321 $322 $323 $324 reversed $127 $-1 #
coedge $-1 $207 $129 $325 $326 reversed $81 $-1 #
coedge $-1 $129 $206 $321 $327 reversed $81 $-1 #
coedge $-1 $323 $328 $129 $209 forward $329 $-1 #
edge $-1 $330 18.209208809030741 $331 21.177540621663162 $208 $332 forward 7 unknown #
loop $-1 $-1 $215 $130 #
plane-surface $-1 -57.054963835566284 -6.3435601505447963 0.75270976103460896 -0.81915205242281985 0 0.57357642473473569 0.57357642473473569 0 0.81915205242281985 forward_v I I I I #
loop $-1 $-1 $333 $83 #
coedge $-1 $213 $213 $214 $334 reversed $131 $-1 #
coedge $-1 $214 $214 $213 $334 forward $133 $-1 #
coedge $-1 $215 $215 $134 $216 forward $210 $-1 #
edge $-1 $335 0 $335 6.2831853071796004 $215 $336 forward 7 unknown #
loop $-1 $-1 $222 $135 #
plane-surface $-1 -57.054963835566284 -6.3435601505447963 0.75270976103460896 -0.81915205242281985 0 0.57357642473473569 0.57357642473473569 0 0.81915205242281985 forward_v I I I I #
loop $-1 $-1 $337 $86 #
coedge $-1 $220 $220 $221 $338 reversed $136 $-1 #
coedge $-1 $221 $221 $220 $338 forward $138 $-1 #
coedge $-1 $222 $222 $139 $223 forward $217 $-1 #
edge $-1 $339 0 $339 6.2831853071796004 $222 $340 forward 7 unknown #
loop $-1 $-1 $229 $140 #
plane-surface $-1 -57.054963835566284 -6.3435601505447963 0.75270976103460896 -0.81915205242281985 0 0.57357642473473569 0.57357642473473569 0 0.81915205242281985 forward_v I I I I #
loop $-1 $-1 $341 $89 #
coedge $-1 $227 $227 $228 $342 reversed $141 $-1 #
coedge $-1 $228 $228 $227 $342 forward $143 $-1 #
coedge $-1 $229 $229 $144 $230 forward $224 $-1 #
edge $-1 $343 0 $343 6.2831853071796004 $229 $344 forward 7 unknown #
face $-1 $345 $346 $48 $-1 $347 forward single #
loop $-1 $-1 $348 $145 #
plane-surface $-1 -150.52834528919402 16.04017232399498 66.203474101382099 0 -1 0 0.81915205242281985 0 -0.57357642473473569 forward_v I I I I #
coedge $-1 $349 $350 $351 $352 reversed $146 $-1 #
coedge $-1 $236 $148 $353 $354 reversed $93 $-1 #
coedge $-1 $148 $235 $349 $355 reversed $93 $-1 #
coedge $-1 $351 $356 $148 $238 forward $346 $-1 #
edge $-1 $357 18.209208809030741 $358 21.177540621663162 $237 $359 forward 7 unknown #
loop $-1 $-1 $244 $149 #
plane-surface $-1 -57.054963835566284 11.752565318897357 0.75270976103460896 -0.81915205242281985 0 0.57357642473473569 0.57357642473473569 0 0.81915205242281985 forward_v I I I I #
loop $-1 $-1 $360 $95 #
coedge $-1 $242 $242 $243 $361 reversed $150 $-1 #
coedge $-1 $243 $243 $242 $361 forward $152 $-1 #
coedge $-1 $244 $244 $153 $245 forward $239 $-1 #
edge $-1 $362 0 $362 6.2831853071796004 $244 $363 forward 7 unknown #
loop $-1 $-1 $251 $154 #
plane-surface $-1 -57.054963835566284 11.752565318897357 0.75270976103460896 -0.81915205242281985 0 0.57357642473473569 0.57357642473473569 0 0.81915205242281985 forward_v I I I I #
loop $-1 $-1 $364 $98 #
coedge $-1 $249 $249 $250 $365 reversed $155 $-1 #
coedge $-1 $250 $250 $249 $365 forward $157 $-1 #
coedge $-1 $251 $251 $158 $252 forward $246 $-1 #
edge $-1 $366 0 $366 6.2831853071796004 $251 $367 forward 7 unknown #
loop $-1 $-1 $258 $159 #
plane-surface $-1 -57.054963835566284 11.752565318897357 0.75270976103460896 -0.81915205242281985 0 0.57357642473473569 0.57357642473473569 0 0.81915205242281985 forward_v I I I I #
loop $-1 $-1 $368 $101 #
coedge $-1 $256 $256 $257 $369 reversed $160 $-1 #
coedge $-1 $257 $257 $256 $369 forward $162 $-1 #
coedge $-1 $258 $258 $163 $259 forward $253 $-1 #
edge $-1 $370 0 $370 6.2831853071796004 $258 $371 forward 7 unknown #
face $-1 $372 $373 $39 $-1 $374 reversed single #
loop $-1 $-1 $375 $164 #
plane-surface $-1 -57.054963835566269 0 0 1 0 0 0 0 -1 forward_v I I I I #
coedge $-1 $376 $271 $377 $378 forward $165 $-1 #
coedge $-1 $379 $167 $376 $380 forward $105 $-1 #
coedge $-1 $167 $379 $381 $382 forward $105 $-1 #
coedge $-1 $274 $273 $167 $267 reversed $275 $-1 #
edge $-1 $383 -24.308649803851633 $384 24.308649803851633 $266 $385 forward 7 unknown #
coedge $-1 $169 $168 $386 $387 forward $66 $-1 #
coedge $-1 $388 $389 $168 $270 reversed $373 $-1 #
edge $-1 $277 -57.054963835566269 $390 57.054963835566269 $269 $391 forward 7 unknown #
coedge $-1 $263 $392 $169 $272 reversed $165 $-1 #
edge $-1 $393 -57.054963835566269 $276 57.054963835566269 $271 $394 forward 7 unknown #
coedge $-1 $266 $170 $392 $395 forward $275 $-1 #
coedge $-1 $170 $266 $388 $396 reversed $275 $-1 #
loop $-1 $-1 $273 $372 #
vertex $-1 $171 $397 #
vertex $-1 $171 $398 #
straight-curve $-1 57.054963835566269 0 4.9919270505428406 0 1 0 I I #
face $-1 $399 $400 $40 $-1 $401 reversed single #
loop $-1 $-1 $178 $172 #
plane-surface $-1 -54.546982903302862 -27.013152388027915 0 1 0 0 0 0 -1 forward_v I I I I #
coedge $-1 $402 $403 $404 $405 forward $173 $-1 #
coedge $-1 $406 $175 $407 $408 forward $109 $-1 #
coedge $-1 $175 $406 $289 $409 forward $109 $-1 #
edge $-1 $291 -54.546982903302862 $410 -51.546982903302862 $175 $411 forward 7 unknown #
coedge $-1 $177 $176 $412 $413 forward $69 $-1 #
coedge $-1 $414 $415 $176 $288 forward $416 $-1 #
edge $-1 $417 51.546982903302862 $292 54.546982903302862 $287 $418 forward 7 unknown #
coedge $-1 $404 $178 $284 $409 reversed $280 $-1 #
coedge $-1 $178 $404 $414 $419 reversed $280 $-1 #
vertex $-1 $285 $420 #
vertex $-1 $419 $421 #
straight-curve $-1 -54.546982903302862 -24.308649803851633 0 0 0 1 I I #
face $-1 $-1 $422 $41 $-1 $423 reversed single #
loop $-1 $-1 $186 $180 #
plane-surface $-1 0 0 4.9919270505428406 0 0 1 1 0 0 forward_v I I I I #
coedge $-1 $424 $425 $426 $427 reversed $181 $-1 #
coedge $-1 $428 $183 $185 $304 forward $113 $-1 #
coedge $-1 $183 $428 $424 $429 forward $113 $-1 #
coedge $-1 $426 $186 $183 $301 forward $295 $-1 #
edge $-1 $307 -10.830236797451567 $430 -4.0270443814774577 $300 $431 forward 7 unknown #
coedge $-1 $432 $433 $184 $303 forward $422 $-1 #
edge $-1 $434 -78.825499576427077 $306 -74.031932399107973 $302 $435 forward 7 unknown #
edge $-1 $307 105.30856235147354 $434 114.10992767113251 $185 $436 forward 7 unknown #
coedge $-1 $186 $426 $432 $437 forward $295 $-1 #
vertex $-1 $187 $438 #
vertex $-1 $187 $439 #
straight-curve $-1 11.751524111456845 18.25887738691608 4.9919270505428415 -1 0 0 I I #
coedge $-1 $309 $309 $-1 $440 reversed $190 $-1 #
edge $-1 $441 0 $441 6.2831853071796004 $191 $442 forward 7 unknown #
vertex $-1 $194 $443 #
ellipse-curve $-1 53.364240830292594 13.399454232648861 2.5951434618832909 0.54463904215088732 0 0.83867056331134215 0.41933528165567108 0 -0.27231952107544366 1 I I #
coedge $-1 $313 $313 $-1 $444 reversed $197 $-1 #
edge $-1 $445 0 $445 6.2831853071796004 $198 $446 forward 7 unknown #
vertex $-1 $201 $447 #
ellipse-curve $-1 53.364240830292594 16.315108125209196 2.5951434618832909 0.54463904215088732 0 0.83867056331134215 0.41933528165567108 0 -0.27231952107544366 1 I I #
face $-1 $-1 $329 $44 $-1 $448 forward single #
loop $-1 $-1 $449 $202 #
plane-surface $-1 -57.054963835566269 0 0 1 0 0 0 0 -1 forward_v I I I I #
coedge $-1 $450 $451 $452 $453 reversed $203 $-1 #
coedge $-1 $454 $205 $207 $327 forward $127 $-1 #
coedge $-1 $205 $454 $450 $455 forward $127 $-1 #
coedge $-1 $452 $208 $205 $324 forward $329 $-1 #
edge $-1 $331 -7.4593870803700213 $456 1.1158269298252241 $323 $457 forward 7 unknown #
coedge $-1 $458 $459 $206 $326 forward $318 $-1 #
edge $-1 $460 -32.349027289656419 $330 -28.109810000148208 $325 $461 forward 7 unknown #
edge $-1 $331 -5.1751286918830601 $460 -2.4793790127588779e-014 $207 $462 forward 7 unknown #
coedge $-1 $208 $452 $458 $463 forward $329 $-1 #
loop $-1 $-1 $452 $317 #
vertex $-1 $326 $464 #
vertex $-1 $209 $465 #
straight-curve $-1 -75.264172644597011 -10.631167155642419 4.9919270505428415 1 0 0 I I #
coedge $-1 $333 $333 $-1 $466 reversed $212 $-1 #
edge $-1 $467 0 $467 6.2831853071796004 $213 $468 forward 7 unknown #
vertex $-1 $216 $469 #
ellipse-curve $-1 -55.570797929250062 -8.9161243536033687 2.8723184057887328 -0.81915205242281985 0 0.57357642473473569 0.28678821236736785 0 0.40957602621140993 1 I I #
coedge $-1 $337 $337 $-1 $470 reversed $219 $-1 #
edge $-1 $471 0 $471 6.2831853071796004 $220 $472 forward 7 unknown #
vertex $-1 $223 $473 #
ellipse-curve $-1 -55.570797929250062 -6.3435601505447927 2.8723184057887328 -0.81915205242281985 0 0.57357642473473569 0.28678821236736785 0 0.40957602621140993 1 I I #
coedge $-1 $341 $341 $-1 $474 reversed $226 $-1 #
edge $-1 $475 0 $475 6.2831853071796004 $227 $476 forward 7 unknown #
vertex $-1 $230 $477 #
ellipse-curve $-1 -55.570797929250062 -3.7709959474862167 2.8723184057887328 -0.81915205242281985 0 0.57357642473473569 0.28678821236736785 0 0.40957602621140993 1 I I #
face $-1 $-1 $478 $48 $-1 $479 reversed single #
loop $-1 $-1 $237 $231 #
plane-surface $-1 0 0 4.9919270505428406 0 0 1 1 0 0 forward_v I I I I #
coedge $-1 $480 $481 $482 $483 reversed $232 $-1 #
coedge $-1 $484 $234 $236 $355 forward $146 $-1 #
coedge $-1 $234 $484 $480 $485 forward $146 $-1 #
coedge $-1 $482 $237 $234 $352 forward $346 $-1 #
edge $-1 $358 1.5886756543510563 $486 10.163889664546302 $351 $487 forward 7 unknown #
coedge $-1 $488 $489 $235 $354 forward $478 $-1 #
edge $-1 $490 -32.349027289656419 $357 -28.109810000148208 $353 $491 forward 7 unknown #
edge $-1 $358 -5.1751286918830601 $490 -2.4793790127588779e-014 $236 $492 forward 7 unknown #
coedge $-1 $237 $482 $488 $493 forward $346 $-1 #
vertex $-1 $354 $494 #
vertex $-1 $238 $495 #
straight-curve $-1 -75.264172644597011 7.4649583137997348 4.9919270505428415 1 0 0 I I #
coedge $-1 $360 $360 $-1 $496 reversed $241 $-1 #
edge $-1 $497 0 $497 6.2831853071796004 $242 $498 forward 7 unknown #
vertex $-1 $245 $499 #
ellipse-curve $-1 -55.570797929250062 9.1800011158387811 2.8723184057887328 -0.81915205242281985 0 0.57357642473473569 0.28678821236736785 0 0.40957602621140993 1 I I #
coedge $-1 $364 $364 $-1 $500 reversed $248 $-1 #
edge $-1 $501 0 $501 6.2831853071796004 $249 $502 forward 7 unknown #
vertex $-1 $252 $503 #
ellipse-curve $-1 -55.570797929250062 11.752565318897357 2.8723184057887328 -0.81915205242281985 0 0.57357642473473569 0.28678821236736785 0 0.40957602621140993 1 I I #
coedge $-1 $368 $368 $-1 $504 reversed $255 $-1 #
edge $-1 $505 0 $505 6.2831853071796004 $256 $506 forward 7 unknown #
vertex $-1 $259 $507 #
ellipse-curve $-1 -55.570797929250062 14.325129521955933 2.8723184057887328 -0.81915205242281985 0 0.57357642473473569 0.28678821236736785 0 0.40957602621140993 1 I I #
face $-1 $-1 $275 $39 $-1 $508 reversed single #
loop $-1 $-1 $388 $260 #
plane-surface $-1 0 24.308649803851633 0 0 -1 0 0 0 -1 forward_v I I I I #
coedge $-1 $509 $386 $389 $510 forward $261 $-1 #
coedge $-1 $392 $263 $264 $380 reversed $165 $-1 #
coedge $-1 $386 $509 $263 $378 reversed $261 $-1 #
edge $-1 $393 -4.9919270505428406 $511 4.9919270505428406 $377 $512 forward 7 unknown #
coedge $-1 $265 $264 $509 $513 forward $105 $-1 #
edge $-1 $384 -57.054963835566269 $511 57.054963835566269 $376 $514 forward 7 unknown #
coedge $-1 $389 $388 $265 $382 reversed $373 $-1 #
edge $-1 $515 -57.054963835566269 $383 57.054963835566269 $381 $516 forward 7 unknown #
vertex $-1 $267 $517 #
vertex $-1 $395 $518 #
straight-curve $-1 57.054963835566269 0 -4.9919270505428406 0 -1 0 I I #
coedge $-1 $375 $377 $268 $387 reversed $261 $-1 #
edge $-1 $390 -24.308649803851633 $393 24.308649803851633 $386 $519 forward 7 unknown #
coedge $-1 $381 $269 $274 $396 forward $373 $-1 #
coedge $-1 $269 $381 $375 $510 reversed $373 $-1 #
vertex $-1 $270 $520 #
straight-curve $-1 0 24.308649803851633 4.9919270505428406 -1 0 0 I I #
coedge $-1 $271 $376 $273 $395 reversed $165 $-1 #
vertex $-1 $387 $521 #
straight-curve $-1 0 -24.308649803851633 4.9919270505428406 1 0 0 I I #
edge $-1 $276 -4.9919270505428406 $384 4.9919270505428406 $273 $522 forward 7 unknown #
edge $-1 $277 -4.9919270505428406 $383 4.9919270505428406 $274 $523 forward 7 unknown #
point $-1 57.054963835566269 -24.308649803851633 4.9919270505428406 #
point $-1 57.054963835566269 24.308649803851633 4.9919270505428406 #
face $-1 $-1 $416 $40 $-1 $524 forward single #
loop $-1 $-1 $525 $279 #
plane-surface $-1 -51.546982903302862 -27.013152388027915 0 -1 0 0 0 0 1 forward_v I I I I #
coedge $-1 $526 $282 $406 $527 reversed $173 $-1 #
coedge $-1 $282 $526 $528 $529 reversed $173 $-1 #
coedge $-1 $290 $289 $282 $405 reversed $280 $-1 #
edge $-1 $530 -4.9919270505428406 $531 4.9919270505428406 $404 $532 forward 7 unknown #
coedge $-1 $284 $283 $402 $527 forward $109 $-1 #
coedge $-1 $412 $525 $283 $408 reversed $400 $-1 #
edge $-1 $410 -2.7045025841762822 $533 2.7045025841762822 $407 $534 forward 7 unknown #
edge $-1 $531 -2.7045025841762822 $291 2.7045025841762822 $289 $535 forward 7 unknown #
vertex $-1 $408 $536 #
straight-curve $-1 0 -24.308649803851633 -4.9919270505428406 1 0 0 I I #
coedge $-1 $537 $407 $286 $413 reversed $400 $-1 #
edge $-1 $417 -4.9919270505428406 $410 4.9919270505428406 $412 $538 forward 7 unknown #
coedge $-1 $528 $287 $290 $419 forward $416 $-1 #
coedge $-1 $287 $528 $537 $539 forward $416 $-1 #
loop $-1 $-1 $287 $399 #
vertex $-1 $288 $540 #
straight-curve $-1 0 -24.308649803851633 4.9919270505428406 -1 0 0 I I #
edge $-1 $292 -2.7045025841762822 $530 2.7045025841762822 $290 $541 forward 7 unknown #
point $-1 -54.546982903302862 -24.308649803851633 -4.9919270505428406 #
point $-1 -54.546982903302862 -24.308649803851633 4.9919270505428406 #
loop $-1 $-1 $302 $294 #
plane-surface $-1 57.054963835566269 0 0 -1 0 0 0 0 1 forward_v I I I I #
coedge $-1 $425 $297 $299 $429 reversed $181 $-1 #
coedge $-1 $297 $424 $542 $543 reversed $181 $-1 #
coedge $-1 $305 $300 $297 $427 forward $295 $-1 #
edge $-1 $430 37.921993713562095 $544 45.303439724109424 $426 $545 forward 7 unknown #
coedge $-1 $299 $298 $433 $546 reversed $113 $-1 #
edge $-1 $547 -114.10992767113251 $430 -105.30856235147354 $424 $548 forward 7 unknown #
vertex $-1 $301 $549 #
straight-curve $-1 49.673517825018948 7.4286405894645124 4.9919270505428344 0 -1 0 I I #
coedge $-1 $542 $302 $305 $437 reversed $422 $-1 #
coedge $-1 $302 $542 $428 $546 forward $422 $-1 #
vertex $-1 $303 $550 #
straight-curve $-1 57.054963835566269 18.25887738691608 79.023859449650814 0 0 1 I I #
straight-curve $-1 -38.645673483798966 18.25887738691608 62.347081579936386 0.83867056331134215 0 -0.54463904215088732 I I #
edge $-1 $544 11.45568497094197 $306 18.25887738691608 $432 $551 forward 7 unknown #
point $-1 57.054963835566269 18.25887738691608 4.9919270505428406 #
point $-1 49.673517825018941 18.25887738691608 4.9919270505428415 #
edge $-1 $552 1 $552 0 $309 $-1 forward 7 unknown #
vertex $-1 $310 $553 #
ellipse-curve $-1 52.458863816041699 13.399454232648861 1.2009851445649724 0.54463904215088732 0 0.83867056331134215 0.41933528165567108 0 -0.27231952107544366 1 I I #
point $-1 53.783576111948257 13.399454232648861 2.3228239408078313 #
edge $-1 $554 1 $554 0 $313 $-1 forward 7 unknown #
vertex $-1 $314 $555 #
ellipse-curve $-1 52.458863816041699 16.315108125209196 1.2009851445649724 0.54463904215088732 0 0.83867056331134215 0.41933528165567108 0 -0.27231952107544366 1 I I #
point $-1 53.783576111948257 16.315108125209196 2.3228239408078313 #
plane-surface $-1 0 0 4.9919270505428406 0 0 1 1 0 0 forward_v I I I I #
coedge $-1 $459 $458 $451 $556 forward $318 $-1 #
coedge $-1 $451 $320 $322 $455 reversed $203 $-1 #
coedge $-1 $320 $450 $449 $556 reversed $203 $-1 #
coedge $-1 $328 $323 $320 $453 forward $329 $-1 #
edge $-1 $456 -21.177540621663162 $557 -18.209208809030741 $452 $558 forward 7 unknown #
coedge $-1 $322 $321 $459 $559 reversed $127 $-1 #
edge $-1 $560 2.4793790127588779e-014 $456 5.1751286918830601 $450 $561 forward 7 unknown #
vertex $-1 $324 $562 #
straight-curve $-1 -54.086632022933856 -3.1717800752723981 4.9919270505428415 0 1 0 I I #
coedge $-1 $449 $325 $328 $463 reversed $318 $-1 #
coedge $-1 $325 $449 $454 $559 forward $318 $-1 #
vertex $-1 $326 $563 #
straight-curve $-1 -57.054963835566269 -10.631167155642419 33.10173705069105 0 0 1 I I #
straight-curve $-1 -57.054963835566284 -10.631167155642419 0.75270976103460896 -0.57357642473473569 0 -0.81915205242281985 I I #
edge $-1 $557 2.055953145447174 $330 10.631167155642419 $458 $564 forward 7 unknown #
point $-1 -57.054963835566269 -10.631167155642419 4.9919270505428406 #
point $-1 -54.086632022933848 -10.631167155642419 4.9919270505428406 #
edge $-1 $565 1 $565 0 $333 $-1 forward 7 unknown #
vertex $-1 $334 $566 #
ellipse-curve $-1 -54.583813078464843 -8.9161243536033687 2.1812241940287382 -0.81915205242281985 0 0.57357642473473569 0.28678821236736785 0 0.40957602621140993 1 I I #
point $-1 -55.284009716882686 -8.9161243536033687 3.2818944320001422 #
edge $-1 $567 1 $567 0 $337 $-1 forward 7 unknown #
vertex $-1 $338 $568 #
ellipse-curve $-1 -54.583813078464843 -6.3435601505447927 2.1812241940287382 -0.81915205242281985 0 0.57357642473473569 0.28678821236736785 0 0.40957602621140993 1 I I #
point $-1 -55.284009716882686 -6.3435601505447927 3.2818944320001422 #
edge $-1 $569 1 $569 0 $341 $-1 forward 7 unknown #
vertex $-1 $342 $570 #
ellipse-curve $-1 -54.583813078464843 -3.7709959474862167 2.1812241940287382 -0.81915205242281985 0 0.57357642473473569 0.28678821236736785 0 0.40957602621140993 1 I I #
point $-1 -55.284009716882686 -3.7709959474862167 3.2818944320001422 #
loop $-1 $-1 $353 $345 #
plane-surface $-1 -57.054963835566269 0 0 1 0 0 0 0 -1 forward_v I I I I #
coedge $-1 $481 $348 $350 $485 reversed $232 $-1 #
coedge $-1 $348 $480 $571 $572 reversed $232 $-1 #
coedge $-1 $356 $351 $348 $483 forward $346 $-1 #
edge $-1 $486 -21.177540621663162 $573 -18.209208809030741 $482 $574 forward 7 unknown #
coedge $-1 $350 $349 $489 $575 reversed $146 $-1 #
edge $-1 $576 2.4793790127588779e-014 $486 5.1751286918830601 $480 $577 forward 7 unknown #
vertex $-1 $352 $578 #
straight-curve $-1 -54.086632022933856 5.8762826594486786 4.9919270505428415 0 1 0 I I #
coedge $-1 $571 $353 $356 $493 reversed $478 $-1 #
coedge $-1 $353 $571 $484 $575 forward $478 $-1 #
vertex $-1 $354 $579 #
straight-curve $-1 -57.054963835566269 7.4649583137997348 33.10173705069105 0 0 1 I I #
straight-curve $-1 -57.054963835566284 7.4649583137997348 0.75270976103460896 -0.57357642473473569 0 -0.81915205242281985 I I #
edge $-1 $573 -16.04017232399498 $357 -7.4649583137997348 $488 $580 forward 7 unknown #
point $-1 -57.054963835566269 7.4649583137997348 4.9919270505428406 #
point $-1 -54.086632022933848 7.4649583137997348 4.9919270505428406 #
edge $-1 $581 1 $581 0 $360 $-1 forward 7 unknown #
vertex $-1 $361 $582 #
ellipse-curve $-1 -54.583813078464843 9.1800011158387811 2.1812241940287382 -0.81915205242281985 0 0.57357642473473569 0.28678821236736785 0 0.40957602621140993 1 I I #
point $-1 -55.284009716882686 9.1800011158387811 3.2818944320001422 #
edge $-1 $583 1 $583 0 $364 $-1 forward 7 unknown #
vertex $-1 $365 $584 #
ellipse-curve $-1 -54.583813078464843 11.752565318897357 2.1812241940287382 -0.81915205242281985 0 0.57357642473473569 0.28678821236736785 0 0.40957602621140993 1 I I #
point $-1 -55.284009716882686 11.752565318897357 3.2818944320001422 #
edge $-1 $585 1 $585 0 $368 $-1 forward 7 unknown #
vertex $-1 $369 $586 #
ellipse-curve $-1 -54.583813078464843 14.325129521955933 2.1812241940287382 -0.81915205242281985 0 0.57357642473473569 0.28678821236736785 0 0.40957602621140993 1 I I #
point $-1 -55.284009716882686 14.325129521955933 3.2818944320001422 #
plane-surface $-1 57.054963835566269 0 0 -1 0 0 0 0 1 forward_v I I I I #
coedge $-1 $377 $375 $379 $513 reversed $261 $-1 #
edge $-1 $390 -4.9919270505428406 $515 4.9919270505428406 $389 $587 forward 7 unknown #
vertex $-1 $513 $588 #
straight-curve $-1 -57.054963835566269 -24.308649803851633 0 0 0 -1 I I #
edge $-1 $511 -24.308649803851633 $515 24.308649803851633 $509 $589 forward 7 unknown #
straight-curve $-1 0 -24.308649803851633 -4.9919270505428406 -1 0 0 I I #
vertex $-1 $382 $590 #
straight-curve $-1 0 24.308649803851633 -4.9919270505428406 1 0 0 I I #
point $-1 57.054963835566269 24.308649803851633 -4.9919270505428406 #
point $-1 57.054963835566269 -24.308649803851633 -4.9919270505428406 #
straight-curve $-1 -57.054963835566269 0 4.9919270505428406 0 -1 0 I I #
point $-1 -57.054963835566269 24.308649803851633 4.9919270505428406 #
point $-1 -57.054963835566269 -24.308649803851633 4.9919270505428406 #
straight-curve $-1 57.054963835566269 -24.308649803851633 0 0 0 -1 I I #
straight-curve $-1 57.054963835566269 24.308649803851633 0 0 0 -1 I I #
plane-surface $-1 0 0 4.9919270505428406 0 0 1 1 0 0 forward_v I I I I #
coedge $-1 $407 $537 $526 $591 forward $400 $-1 #
coedge $-1 $403 $402 $525 $591 reversed $173 $-1 #
edge $-1 $533 -1.5 $531 1.5 $402 $592 forward 7 unknown #
coedge $-1 $415 $414 $403 $529 forward $416 $-1 #
edge $-1 $530 -1.5 $593 1.5 $403 $594 forward 7 unknown #
vertex $-1 $419 $595 #
vertex $-1 $409 $596 #
straight-curve $-1 -54.546982903302862 -29.717654972204198 0 0 0 -1 I I #
vertex $-1 $591 $597 #
straight-curve $-1 -51.546982903302862 -27.013152388027915 -4.9919270505428406 0 -1 0 I I #
straight-curve $-1 -54.546982903302862 -27.013152388027915 -4.9919270505428406 0 1 0 I I #
point $-1 -51.546982903302862 -24.308649803851633 -4.9919270505428406 #
coedge $-1 $525 $412 $415 $539 reversed $400 $-1 #
straight-curve $-1 -51.546982903302862 -24.308649803851633 0 0 0 -1 I I #
edge $-1 $593 -2.7045025841762822 $417 2.7045025841762822 $537 $598 forward 7 unknown #
point $-1 -51.546982903302862 -24.308649803851633 4.9919270505428406 #
straight-curve $-1 -54.546982903302862 -27.013152388027915 4.9919270505428406 0 -1 0 I I #
coedge $-1 $433 $432 $425 $543 forward $422 $-1 #
edge $-1 $544 74.031932399107973 $547 78.825499576427077 $542 $599 forward 7 unknown #
vertex $-1 $437 $600 #
straight-curve $-1 11.751524111456845 11.45568497094197 4.9919270505428415 1 0 0 I I #
edge $-1 $547 4.0270443814774577 $434 10.830236797451567 $433 $601 forward 7 unknown #
vertex $-1 $546 $602 #
straight-curve $-1 -38.645673483798966 11.45568497094197 62.347081579936386 -0.83867056331134215 0 0.54463904215088732 I I #
point $-1 49.673517825018941 11.45568497094197 4.9919270505428415 #
point $-1 57.054963835566262 18.25887738691608 0.19835987322373683 #
straight-curve $-1 57.054963835566269 0 4.9919270505428406 0 1 0 I I #
vertex $-1 $440 $603 #
point $-1 52.878199097697369 13.399454232648861 0.92866562348952875 #
vertex $-1 $444 $604 #
point $-1 52.878199097697369 16.315108125209196 0.92866562348952875 #
edge $-1 $557 28.109810000148208 $560 32.349027289656419 $449 $605 forward 7 unknown #
vertex $-1 $463 $606 #
straight-curve $-1 -75.264172644597011 -2.055953145447174 4.9919270505428415 -1 0 0 I I #
edge $-1 $560 -1.1158269298252241 $460 7.4593870803700213 $459 $607 forward 7 unknown #
vertex $-1 $559 $608 #
straight-curve $-1 -57.054963835566284 -2.055953145447174 0.75270976103460896 0.57357642473473569 0 0.81915205242281985 I I #
point $-1 -54.086632022933848 -2.055953145447174 4.9919270505428406 #
point $-1 -57.054963835566269 -10.631167155642419 0.75270976103462928 #
straight-curve $-1 -57.054963835566269 0 4.9919270505428406 0 -1 0 I I #
vertex $-1 $466 $609 #
point $-1 -54.297024866097473 -8.9161243536033687 2.5908002202401481 #
vertex $-1 $470 $610 #
point $-1 -54.297024866097473 -6.3435601505447927 2.5908002202401481 #
vertex $-1 $474 $611 #
point $-1 -54.297024866097473 -3.7709959474862167 2.5908002202401481 #
coedge $-1 $489 $488 $481 $572 forward $478 $-1 #
edge $-1 $573 28.109810000148208 $576 32.349027289656419 $571 $612 forward 7 unknown #
vertex $-1 $493 $613 #
straight-curve $-1 -75.264172644597011 16.04017232399498 4.9919270505428415 -1 0 0 I I #
edge $-1 $576 -10.163889664546302 $490 -1.5886756543510563 $489 $614 forward 7 unknown #
vertex $-1 $575 $615 #
straight-curve $-1 -57.054963835566284 16.04017232399498 0.75270976103460896 0.57357642473473569 0 0.81915205242281985 I I #
point $-1 -54.086632022933848 16.04017232399498 4.9919270505428406 #
point $-1 -57.054963835566269 7.4649583137997348 0.75270976103462928 #
straight-curve $-1 -57.054963835566269 0 4.9919270505428406 0 -1 0 I I #
vertex $-1 $496 $616 #
point $-1 -54.297024866097473 9.1800011158387811 2.5908002202401481 #
vertex $-1 $500 $617 #
point $-1 -54.297024866097473 11.752565318897357 2.5908002202401481 #
vertex $-1 $504 $618 #
point $-1 -54.297024866097473 14.325129521955933 2.5908002202401481 #
straight-curve $-1 -57.054963835566269 24.308649803851633 0 0 0 -1 I I #
point $-1 -57.054963835566269 -24.308649803851633 -4.9919270505428406 #
straight-curve $-1 -57.054963835566269 0 -4.9919270505428406 0 1 0 I I #
point $-1 -57.054963835566269 24.308649803851633 -4.9919270505428406 #
edge $-1 $593 -4.9919270505428406 $533 4.9919270505428406 $525 $619 forward 7 unknown #
straight-curve $-1 -53.046982903302862 -29.717654972204198 -4.9919270505428406 -1 0 0 I I #
vertex $-1 $539 $620 #
straight-curve $-1 -53.046982903302862 -29.717654972204198 4.9919270505428406 1 0 0 I I #
point $-1 -54.546982903302862 -29.717654972204198 4.9919270505428406 #
point $-1 -54.546982903302862 -29.717654972204198 -4.9919270505428406 #
point $-1 -51.546982903302862 -29.717654972204198 -4.9919270505428406 #
straight-curve $-1 -51.546982903302862 -27.013152388027915 4.9919270505428406 0 1 0 I I #
straight-curve $-1 57.054963835566269 11.45568497094197 79.023859449650814 0 0 -1 I I #
point $-1 57.054963835566269 11.45568497094197 4.9919270505428406 #
straight-curve $-1 57.054963835566269 7.4286405894645124 0.19835987322372972 0 1 0 I I #
point $-1 57.054963835566262 11.45568497094197 0.19835987322373683 #
point $-1 52.186544294966254 13.399454232648861 0.78164986290930139 #
point $-1 52.186544294966254 16.315108125209196 0.78164986290930139 #
straight-curve $-1 -57.054963835566269 -2.055953145447174 33.10173705069105 0 0 -1 I I #
point $-1 -57.054963835566269 -2.055953145447174 4.9919270505428406 #
straight-curve $-1 -57.054963835566269 -3.1717800752723981 0.75270976103462506 0 -1 0 I I #
point $-1 -57.054963835566269 -2.055953145447174 0.75270976103462928 #
point $-1 -54.174237052253432 -8.9161243536033687 1.8944359816613705 #
point $-1 -54.174237052253432 -6.3435601505447927 1.8944359816613705 #
point $-1 -54.174237052253432 -3.7709959474862167 1.8944359816613705 #
straight-curve $-1 -57.054963835566269 16.04017232399498 33.10173705069105 0 0 -1 I I #
point $-1 -57.054963835566269 16.04017232399498 4.9919270505428406 #
straight-curve $-1 -57.054963835566269 5.8762826594486786 0.75270976103462506 0 -1 0 I I #
point $-1 -57.054963835566269 16.04017232399498 0.75270976103462928 #
point $-1 -54.174237052253432 9.1800011158387811 1.8944359816613705 #
point $-1 -54.174237052253432 11.752565318897357 1.8944359816613705 #
point $-1 -54.174237052253432 14.325129521955933 1.8944359816613705 #
straight-curve $-1 -51.546982903302862 -29.717654972204198 0 0 0 -1 I I #
point $-1 -51.546982903302862 -29.717654972204198 4.9919270505428406 #
End-of-ACIS-data 