500 0 11 0           
7 Unknown 11 ACIS 5.0 NT 24 Fri Mar 26 00:53:19 1999 
-1 9.9999999999999995e-007 1e-010 
body $-1 $11 $-1 $12 #
body $-1 $13 $-1 $14 #
body $-1 $15 $-1 $16 #
body $-1 $17 $-1 $18 #
body $-1 $19 $-1 $20 #
body $-1 $21 $-1 $22 #
body $-1 $23 $-1 $24 #
body $-1 $25 $-1 $26 #
body $-1 $27 $-1 $28 #
body $-1 $29 $-1 $30 #
body $-1 $31 $-1 $32 #
lump $-1 $-1 $33 $0 #
transform $-1 1 0 0 0 1 0 0 0 1 55.870845667897584 34.73602346451743 12.712089156003321 1 rotate no_reflect no_shear #
lump $-1 $-1 $34 $1 #
transform $-1 1 0 0 0 1 0 0 0 1 55.870845667897584 34.73602346451743 12.712089156003321 1 rotate no_reflect no_shear #
lump $-1 $-1 $35 $2 #
transform $-1 1 0 0 0 1 0 0 0 1 55.870845667897584 34.73602346451743 12.712089156003321 1 rotate no_reflect no_shear #
lump $-1 $-1 $36 $3 #
transform $-1 1 0 0 0 1 0 0 0 1 55.870845667897584 34.73602346451743 12.712089156003321 1 rotate no_reflect no_shear #
lump $-1 $-1 $37 $4 #
transform $-1 1 0 0 0 1 0 0 0 1 55.870845667897584 34.73602346451743 12.712089156003321 1 rotate no_reflect no_shear #
lump $-1 $-1 $38 $5 #
transform $-1 1 0 0 0 1 0 0 0 1 55.870845667897584 34.73602346451743 12.712089156003321 1 rotate no_reflect no_shear #
lump $-1 $-1 $39 $6 #
transform $-1 1 0 0 0 1 0 0 0 1 55.870845667897584 34.73602346451743 12.712089156003321 1 rotate no_reflect no_shear #
lump $-1 $-1 $40 $7 #
transform $-1 1 0 0 0 1 0 0 0 1 55.870845667897584 34.73602346451743 12.712089156003321 1 rotate no_reflect no_shear #
lump $-1 $-1 $41 $8 #
transform $-1 1 0 0 0 1 0 0 0 1 55.870845667897584 34.73602346451743 12.712089156003321 1 rotate no_reflect no_shear #
lump $-1 $-1 $42 $9 #
transform $-1 1 0 0 0 1 0 0 0 1 55.870845667897584 34.73602346451743 12.712089156003321 1 rotate no_reflect no_shear #
lump $-1 $-1 $43 $10 #
transform $-1 1 0 0 0 1 0 0 0 1 55.870845667897584 34.73602346451743 12.712089156003321 1 rotate no_reflect no_shear #
shell $-1 $-1 $-1 $44 $-1 $11 #
shell $-1 $-1 $-1 $45 $-1 $13 #
shell $-1 $-1 $-1 $46 $-1 $15 #
shell $-1 $-1 $-1 $47 $-1 $17 #
shell $-1 $-1 $-1 $48 $-1 $19 #
shell $-1 $-1 $-1 $49 $-1 $21 #
shell $-1 $-1 $-1 $50 $-1 $23 #
shell $-1 $-1 $-1 $51 $-1 $25 #
shell $-1 $-1 $-1 $52 $-1 $27 #
shell $-1 $-1 $-1 $53 $-1 $29 #
shell $-1 $-1 $-1 $54 $-1 $31 #
face $-1 $55 $56 $33 $-1 $57 forward single #
face $-1 $58 $59 $34 $-1 $60 reversed single #
face $-1 $61 $62 $35 $-1 $63 reversed single #
face $-1 $64 $65 $36 $-1 $66 forward single #
face $-1 $67 $68 $37 $-1 $69 forward single #
face $-1 $70 $71 $38 $-1 $72 reversed single #
face $-1 $73 $74 $39 $-1 $75 forward single #
face $-1 $76 $77 $40 $-1 $78 forward single #
face $-1 $79 $80 $41 $-1 $81 reversed single #
face $-1 $82 $83 $42 $-1 $84 forward single #
face $-1 $85 $86 $43 $-1 $87 forward single #
face $-1 $88 $89 $33 $-1 $90 reversed single #
loop $-1 $-1 $91 $44 #
plane-surface $-1 0 0 12.712089156003321 0 0 1 1 0 0 forward_v I I I I #
face $-1 $92 $93 $34 $-1 $94 reversed single #
loop $-1 $-1 $95 $45 #
plane-surface $-1 0 -28.391497241172644 5.7806699807767554 0 0 1 1 0 0 forward_v I I I I #
face $-1 $96 $97 $35 $-1 $98 reversed single #
loop $-1 $-1 $99 $46 #
plane-surface $-1 64.141321648166752 6.3445262233447846 166.10386768858663 0 -1 0 -0.74314483375859142 0 -0.66913059716165679 forward_v I I I I #
face $-1 $100 $101 $36 $-1 $102 forward single #
loop $-1 $103 $104 $47 #
cone-surface $-1 52.648820727305647 -1.225469000339281 9.3928365290115341 -0.74314483375859142 0 -0.66913059716165679 0.66913059716165679 0 -0.74314483375859142 1 I I 0 1 1 forward I I I I #
face $-1 $105 $106 $37 $-1 $107 forward single #
loop $-1 $108 $109 $48 #
cone-surface $-1 52.648820727305647 3.3165281338711594 9.3928365290115341 -0.74314483375859142 0 -0.66913059716165679 0.66913059716165679 0 -0.74314483375859142 1 I I 0 1 1 forward I I I I #
face $-1 $110 $111 $38 $-1 $112 reversed single #
loop $-1 $-1 $113 $49 #
plane-surface $-1 -18.898938983476583 29.43702680793858 91.33408303721248 0.74314483375859142 0 0.66913059716165679 0.66913059716165679 0 -0.74314483375859142 forward_v I I I I #
face $-1 $114 $115 $39 $-1 $116 forward single #
loop $-1 $117 $118 $50 #
cone-surface $-1 52.648820727305647 27.16602824083337 9.3928365290115341 -0.74314483375859142 0 -0.66913059716165679 0.66913059716165679 0 -0.74314483375859142 1 I I 0 1 1 forward I I I I #
face $-1 $119 $120 $40 $-1 $121 forward single #
loop $-1 $122 $123 $51 #
cone-surface $-1 52.648820727305647 31.708025375043803 9.3928365290115341 -0.74314483375859142 0 -0.66913059716165679 0.66913059716165679 0 -0.74314483375859142 1 I I 0 1 1 forward I I I I #
face $-1 $124 $125 $41 $-1 $126 reversed single #
loop $-1 $-1 $127 $52 #
plane-surface $-1 -55.870845667897584 28.339543247973104 7.7967621463261167 -0.69465837861970381 0 0.71933979245794832 0.71933979245794832 0 0.69465837861970381 forward_v I I I I #
face $-1 $128 $129 $42 $-1 $130 forward single #
loop $-1 $131 $132 $53 #
cone-surface $-1 -51.704049484613961 25.598194583739826 8.57499104842789 0.69465837861970381 0 -0.71933979245794832 1.0790096886869225 0 1.0419875679295556 1 I I 0 1 1.5 forward I I I I #
face $-1 $133 $134 $43 $-1 $135 forward single #
loop $-1 $136 $137 $54 #
cone-surface $-1 -51.704049484613961 31.080891912206397 8.57499104842789 0.69465837861970381 0 -0.71933979245794832 1.0790096886869225 0 1.0419875679295556 1 I I 0 1 1.5 forward I I I I #
face $-1 $138 $139 $33 $-1 $140 reversed single #
loop $-1 $-1 $141 $55 #
plane-surface $-1 0 0 -12.712089156003321 0 0 1 1 0 0 forward_v I I I I #
coedge $-1 $142 $143 $144 $145 forward $56 $-1 #
face $-1 $146 $147 $34 $-1 $148 reversed single #
loop $-1 $-1 $149 $58 #
plane-surface $-1 0 -22.046971017827858 9.2463795683900383 0 -1 0 0 0 -1 forward_v I I I I #
coedge $-1 $150 $151 $152 $153 reversed $59 $-1 #
face $-1 $154 $155 $35 $-1 $156 reversed single #
loop $-1 $-1 $157 $61 #
plane-surface $-1 -18.898938983476583 1.0455295667659357 91.33408303721248 0.74314483375859142 0 0.66913059716165679 0.66913059716165679 0 -0.74314483375859142 forward_v I I I I #
coedge $-1 $158 $159 $160 $161 reversed $62 $-1 #
face $-1 $-1 $162 $36 $-1 $163 forward single #
loop $-1 $164 $165 $64 #
cone-surface $-1 51.044335945767259 -1.225469000339281 7.9481519786559947 -0.74314483375859142 0 -0.66913059716165679 0.3345652985808284 0 -0.37157241687929571 1 I I -0.70710678118654746 0.70710678118654746 0.5 forward I I I I #
loop $-1 $-1 $166 $47 #
coedge $-1 $104 $104 $167 $168 reversed $65 $-1 #
face $-1 $-1 $169 $37 $-1 $170 forward single #
loop $-1 $171 $172 $67 #
cone-surface $-1 51.044335945767259 3.3165281338711594 7.9481519786559947 -0.74314483375859142 0 -0.66913059716165679 0.3345652985808284 0 -0.37157241687929571 1 I I -0.70710678118654746 0.70710678118654746 0.5 forward I I I I #
loop $-1 $-1 $173 $48 #
coedge $-1 $109 $109 $174 $175 reversed $68 $-1 #
face $-1 $176 $177 $38 $-1 $178 reversed single #
loop $-1 $-1 $179 $70 #
plane-surface $-1 64.141321648166752 24.138030151359729 166.10386768858663 0 1 0 0.74314483375859142 0 0.66913059716165679 forward_v I I I I #
coedge $-1 $180 $181 $182 $183 reversed $71 $-1 #
face $-1 $-1 $184 $39 $-1 $185 forward single #
loop $-1 $186 $187 $73 #
cone-surface $-1 51.044335945767259 27.16602824083337 7.9481519786559947 -0.74314483375859142 0 -0.66913059716165679 0.3345652985808284 0 -0.37157241687929571 1 I I -0.70710678118654746 0.70710678118654746 0.5 forward I I I I #
loop $-1 $-1 $188 $50 #
coedge $-1 $118 $118 $189 $190 reversed $74 $-1 #
face $-1 $-1 $191 $40 $-1 $192 forward single #
loop $-1 $193 $194 $76 #
cone-surface $-1 51.044335945767259 31.708025375043803 7.9481519786559947 -0.74314483375859142 0 -0.66913059716165679 0.3345652985808284 0 -0.37157241687929571 1 I I -0.70710678118654746 0.70710678118654746 0.5 forward I I I I #
loop $-1 $-1 $195 $51 #
coedge $-1 $123 $123 $196 $197 reversed $77 $-1 #
face $-1 $198 $199 $41 $-1 $200 reversed single #
loop $-1 $-1 $201 $79 #
plane-surface $-1 -133.49314779544446 21.943063031428778 88.177007200717128 0 1 0 -0.69465837861970381 0 0.71933979245794832 forward_v I I I I #
coedge $-1 $202 $203 $204 $205 reversed $80 $-1 #
face $-1 $-1 $206 $42 $-1 $207 forward single #
loop $-1 $208 $209 $82 #
cone-surface $-1 -49.561244519943251 25.598194583739826 6.3560516013476107 0.69465837861970381 0 -0.71933979245794832 0.53950484434346124 0 0.5209937839647778 1 I I -0.70710678118654757 0.70710678118654757 0.75 forward I I I I #
loop $-1 $-1 $210 $53 #
coedge $-1 $132 $132 $211 $212 reversed $83 $-1 #
face $-1 $-1 $213 $43 $-1 $214 forward single #
loop $-1 $215 $216 $85 #
cone-surface $-1 -49.561244519943251 31.080891912206397 6.3560516013476107 0.69465837861970381 0 -0.71933979245794832 0.53950484434346124 0 0.5209937839647778 1 I I -0.70710678118654757 0.70710678118654757 0.75 forward I I I I #
loop $-1 $-1 $217 $54 #
coedge $-1 $137 $137 $218 $219 reversed $86 $-1 #
face $-1 $220 $221 $33 $-1 $222 reversed single #
loop $-1 $-1 $223 $88 #
plane-surface $-1 0 -34.73602346451743 0 0 1 0 0 0 1 forward_v I I I I #
coedge $-1 $224 $225 $226 $227 forward $89 $-1 #
coedge $-1 $228 $91 $229 $230 forward $56 $-1 #
coedge $-1 $91 $228 $231 $232 forward $56 $-1 #
coedge $-1 $233 $234 $91 $145 reversed $235 $-1 #
edge $-1 $236 -34.73602346451743 $237 34.73602346451743 $144 $238 forward 7 unknown #
face $-1 $239 $240 $34 $-1 $241 reversed single #
loop $-1 $-1 $242 $92 #
plane-surface $-1 -55.870845667897584 0 0 1 0 0 0 0 -1 forward_v I I I I #
coedge $-1 $243 $244 $245 $246 reversed $93 $-1 #
coedge $-1 $247 $95 $248 $249 reversed $59 $-1 #
coedge $-1 $95 $247 $243 $250 forward $59 $-1 #
coedge $-1 $245 $251 $95 $153 forward $252 $-1 #
edge $-1 $253 -20.540274843931108 $254 -7.8512223972415356 $152 $255 forward 7 unknown #
face $-1 $256 $257 $35 $-1 $258 reversed single #
loop $-1 $-1 $259 $96 #
plane-surface $-1 64.141321648166752 -4.2534670898129132 166.10386768858663 0 1 0 0.74314483375859142 0 0.66913059716165679 forward_v I I I I #
coedge $-1 $260 $261 $262 $263 reversed $97 $-1 #
coedge $-1 $159 $99 $264 $265 reversed $62 $-1 #
coedge $-1 $99 $158 $260 $266 reversed $62 $-1 #
coedge $-1 $262 $267 $99 $161 forward $268 $-1 #
edge $-1 $269 -23.800184843814208 $270 -19.82195969194845 $160 $271 forward 7 unknown #
loop $-1 $-1 $167 $100 #
plane-surface $-1 -18.898938983476583 1.0455295667659357 91.33408303721248 0.74314483375859142 0 0.66913059716165679 0.66913059716165679 0 -0.74314483375859142 forward_v I I I I #
loop $-1 $-1 $272 $64 #
coedge $-1 $165 $165 $166 $273 reversed $101 $-1 #
coedge $-1 $166 $166 $165 $273 forward $103 $-1 #
coedge $-1 $167 $167 $104 $168 forward $162 $-1 #
edge $-1 $274 0 $274 6.2831853071796004 $167 $275 forward 7 unknown #
loop $-1 $-1 $174 $105 #
plane-surface $-1 -18.898938983476583 1.0455295667659357 91.33408303721248 0.74314483375859142 0 0.66913059716165679 0.66913059716165679 0 -0.74314483375859142 forward_v I I I I #
loop $-1 $-1 $276 $67 #
coedge $-1 $172 $172 $173 $277 reversed $106 $-1 #
coedge $-1 $173 $173 $172 $277 forward $108 $-1 #
coedge $-1 $174 $174 $109 $175 forward $169 $-1 #
edge $-1 $278 0 $278 6.2831853071796004 $174 $279 forward 7 unknown #
face $-1 $280 $281 $38 $-1 $282 reversed single #
loop $-1 $-1 $283 $110 #
plane-surface $-1 55.870845667897584 0 0 -1 0 0 0 0 1 forward_v I I I I #
coedge $-1 $284 $285 $286 $287 reversed $111 $-1 #
coedge $-1 $288 $113 $289 $290 reversed $71 $-1 #
coedge $-1 $113 $288 $284 $291 forward $71 $-1 #
coedge $-1 $286 $292 $113 $183 forward $293 $-1 #
edge $-1 $294 -20.01751006054814 $295 -9.4195167473904391 $182 $296 forward 7 unknown #
loop $-1 $-1 $189 $114 #
plane-surface $-1 -18.898938983476583 29.43702680793858 91.33408303721248 0.74314483375859142 0 0.66913059716165679 0.66913059716165679 0 -0.74314483375859142 forward_v I I I I #
loop $-1 $-1 $297 $73 #
coedge $-1 $187 $187 $188 $298 reversed $115 $-1 #
coedge $-1 $188 $188 $187 $298 forward $117 $-1 #
coedge $-1 $189 $189 $118 $190 forward $184 $-1 #
edge $-1 $299 0 $299 6.2831853071796004 $189 $300 forward 7 unknown #
loop $-1 $-1 $196 $119 #
plane-surface $-1 -18.898938983476583 29.43702680793858 91.33408303721248 0.74314483375859142 0 0.66913059716165679 0.66913059716165679 0 -0.74314483375859142 forward_v I I I I #
loop $-1 $-1 $301 $76 #
coedge $-1 $194 $194 $195 $302 reversed $120 $-1 #
coedge $-1 $195 $195 $194 $302 forward $122 $-1 #
coedge $-1 $196 $196 $123 $197 forward $191 $-1 #
edge $-1 $303 0 $303 6.2831853071796004 $196 $304 forward 7 unknown #
face $-1 $305 $306 $41 $-1 $307 forward single #
loop $-1 $-1 $204 $124 #
plane-surface $-1 -55.870845667897584 0 0 1 0 0 0 0 -1 forward_v I I I I #
coedge $-1 $308 $309 $310 $311 reversed $125 $-1 #
coedge $-1 $312 $127 $313 $314 reversed $80 $-1 #
coedge $-1 $127 $312 $308 $315 forward $80 $-1 #
coedge $-1 $310 $316 $127 $205 forward $199 $-1 #
edge $-1 $317 -20.566251840530878 $318 -7.7732914074422261 $204 $319 forward 7 unknown #
loop $-1 $-1 $211 $128 #
plane-surface $-1 -55.870845667897584 28.339543247973104 7.7967621463261167 -0.69465837861970381 0 0.71933979245794832 0.71933979245794832 0 0.69465837861970381 forward_v I I I I #
loop $-1 $-1 $320 $82 #
coedge $-1 $209 $209 $210 $321 reversed $129 $-1 #
coedge $-1 $210 $210 $209 $321 forward $131 $-1 #
coedge $-1 $211 $211 $132 $212 forward $206 $-1 #
edge $-1 $322 0 $322 6.2831853071796004 $211 $323 forward 7 unknown #
loop $-1 $-1 $218 $133 #
plane-surface $-1 -55.870845667897584 28.339543247973104 7.7967621463261167 -0.69465837861970381 0 0.71933979245794832 0.71933979245794832 0 0.69465837861970381 forward_v I I I I #
loop $-1 $-1 $324 $85 #
coedge $-1 $216 $216 $217 $325 reversed $134 $-1 #
coedge $-1 $217 $217 $216 $325 forward $136 $-1 #
coedge $-1 $218 $218 $137 $219 forward $213 $-1 #
edge $-1 $326 0 $326 6.2831853071796004 $218 $327 forward 7 unknown #
face $-1 $328 $329 $33 $-1 $330 reversed single #
loop $-1 $-1 $331 $138 #
plane-surface $-1 -55.870845667897584 0 0 1 0 0 0 0 -1 forward_v I I I I #
coedge $-1 $332 $231 $333 $334 forward $139 $-1 #
coedge $-1 $335 $141 $332 $336 forward $89 $-1 #
coedge $-1 $141 $335 $337 $338 forward $89 $-1 #
coedge $-1 $234 $233 $141 $227 reversed $235 $-1 #
edge $-1 $339 -34.73602346451743 $340 34.73602346451743 $226 $341 forward 7 unknown #
coedge $-1 $143 $142 $342 $343 forward $56 $-1 #
coedge $-1 $344 $345 $142 $230 reversed $329 $-1 #
edge $-1 $237 -55.870845667897584 $346 55.870845667897584 $229 $347 forward 7 unknown #
coedge $-1 $223 $348 $143 $232 reversed $139 $-1 #
edge $-1 $349 -55.870845667897584 $236 55.870845667897584 $231 $350 forward 7 unknown #
coedge $-1 $226 $144 $348 $351 forward $235 $-1 #
coedge $-1 $144 $226 $344 $352 reversed $235 $-1 #
loop $-1 $-1 $233 $328 #
vertex $-1 $145 $353 #
vertex $-1 $145 $354 #
straight-curve $-1 55.870845667897584 0 12.712089156003321 0 1 0 I I #
face $-1 $355 $356 $34 $-1 $357 forward single #
loop $-1 $-1 $248 $146 #
plane-surface $-1 0 -34.73602346451743 0 0 1 0 0 0 1 forward_v I I I I #
coedge $-1 $358 $359 $360 $361 forward $147 $-1 #
coedge $-1 $360 $149 $151 $250 reversed $93 $-1 #
coedge $-1 $149 $360 $362 $363 reversed $93 $-1 #
coedge $-1 $364 $152 $149 $246 forward $252 $-1 #
edge $-1 $254 1.1574801965817363 $365 8.0888993718083029 $245 $366 forward 7 unknown #
coedge $-1 $151 $150 $358 $367 reversed $59 $-1 #
coedge $-1 $368 $369 $150 $249 forward $240 $-1 #
edge $-1 $370 -55.870845667897584 $253 55.870845667897584 $248 $371 forward 7 unknown #
edge $-1 $372 -55.870845667897584 $254 55.870845667897584 $243 $373 forward 7 unknown #
coedge $-1 $152 $364 $368 $374 forward $252 $-1 #
loop $-1 $-1 $245 $355 #
vertex $-1 $249 $375 #
vertex $-1 $153 $376 #
straight-curve $-1 55.870845667897584 -14.195748620586322 5.7806699807767554 0 1 0 I I #
face $-1 $-1 $268 $35 $-1 $377 forward single #
loop $-1 $-1 $378 $154 #
plane-surface $-1 55.870845667897584 0 0 -1 0 0 0 0 1 forward_v I I I I #
coedge $-1 $379 $380 $381 $382 reversed $155 $-1 #
coedge $-1 $383 $157 $159 $266 forward $97 $-1 #
coedge $-1 $157 $383 $379 $384 forward $97 $-1 #
coedge $-1 $381 $160 $157 $263 forward $268 $-1 #
edge $-1 $270 -5.8217614399618167 $385 4.7762318731958811 $262 $386 forward 7 unknown #
coedge $-1 $387 $388 $158 $265 forward $257 $-1 #
edge $-1 $389 -74.758111438724185 $269 -70.33984468829 $264 $390 forward 7 unknown #
edge $-1 $270 105.79632705453119 $389 111.74169133579518 $159 $391 forward 7 unknown #
coedge $-1 $160 $381 $387 $392 forward $268 $-1 #
loop $-1 $-1 $381 $256 #
vertex $-1 $265 $393 #
vertex $-1 $161 $394 #
straight-curve $-1 32.070660824083376 6.3445262233447846 12.712089156003316 -1 0 0 I I #
coedge $-1 $272 $272 $-1 $395 reversed $164 $-1 #
edge $-1 $396 0 $396 6.2831853071796004 $165 $397 forward 7 unknown #
vertex $-1 $168 $398 #
ellipse-curve $-1 53.881733091964712 -1.225469000339281 10.50295578078622 0.74314483375859142 0 0.66913059716165679 0.66913059716165679 0 -0.74314483375859142 1 I I #
coedge $-1 $276 $276 $-1 $399 reversed $171 $-1 #
edge $-1 $400 0 $400 6.2831853071796004 $172 $401 forward 7 unknown #
vertex $-1 $175 $402 #
ellipse-curve $-1 53.881733091964712 3.3165281338711594 10.50295578078622 0.74314483375859142 0 0.66913059716165679 0.66913059716165679 0 -0.74314483375859142 1 I I #
face $-1 $-1 $293 $38 $-1 $403 forward single #
loop $-1 $-1 $289 $176 #
plane-surface $-1 0 34.73602346451743 0 0 -1 0 0 0 -1 forward_v I I I I #
coedge $-1 $404 $405 $285 $406 forward $177 $-1 #
coedge $-1 $285 $179 $181 $291 reversed $111 $-1 #
coedge $-1 $179 $284 $283 $406 reversed $111 $-1 #
coedge $-1 $407 $182 $179 $287 forward $293 $-1 #
edge $-1 $295 19.82195969194845 $408 23.800184843814208 $286 $409 forward 7 unknown #
coedge $-1 $181 $180 $404 $410 reversed $71 $-1 #
coedge $-1 $411 $412 $180 $290 forward $281 $-1 #
edge $-1 $413 -71.481536194336158 $294 -65.536171913072167 $289 $414 forward 7 unknown #
edge $-1 $415 -111.74169133579518 $295 -105.79632705453119 $284 $416 forward 7 unknown #
coedge $-1 $182 $407 $411 $417 forward $293 $-1 #
loop $-1 $-1 $286 $280 #
vertex $-1 $290 $418 #
vertex $-1 $183 $419 #
straight-curve $-1 51.892620516031819 14.71851340396929 12.712089156003323 0 -1 0 I I #
coedge $-1 $297 $297 $-1 $420 reversed $186 $-1 #
edge $-1 $421 0 $421 6.2831853071796004 $187 $422 forward 7 unknown #
vertex $-1 $190 $423 #
ellipse-curve $-1 53.881733091964712 27.16602824083337 10.50295578078622 0.74314483375859142 0 0.66913059716165679 0.66913059716165679 0 -0.74314483375859142 1 I I #
coedge $-1 $301 $301 $-1 $424 reversed $193 $-1 #
edge $-1 $425 0 $425 6.2831853071796004 $194 $426 forward 7 unknown #
vertex $-1 $197 $427 #
ellipse-curve $-1 53.881733091964712 31.708025375043803 10.50295578078622 0.74314483375859142 0 0.66913059716165679 0.66913059716165679 0 -0.74314483375859142 1 I I #
face $-1 $-1 $428 $41 $-1 $429 reversed single #
loop $-1 $-1 $430 $198 #
plane-surface $-1 0 0 12.712089156003321 0 0 1 1 0 0 forward_v I I I I #
coedge $-1 $309 $201 $203 $315 reversed $125 $-1 #
coedge $-1 $201 $308 $430 $431 reversed $125 $-1 #
coedge $-1 $432 $204 $201 $311 forward $199 $-1 #
edge $-1 $318 -36.291741454032447 $433 -31.376414444355241 $310 $434 forward 7 unknown #
coedge $-1 $203 $202 $435 $436 reversed $80 $-1 #
coedge $-1 $437 $438 $202 $314 forward $428 $-1 #
edge $-1 $439 10.311127130018924 $317 17.387018188072567 $313 $440 forward 7 unknown #
edge $-1 $441 -7.0758910580536414 $318 0 $308 $442 forward 7 unknown #
coedge $-1 $204 $432 $437 $443 forward $199 $-1 #
vertex $-1 $314 $444 #
vertex $-1 $205 $445 #
straight-curve $-1 -55.870845667897584 14.169771623986552 7.7967621463261123 0 -1 0 I I #
coedge $-1 $320 $320 $-1 $446 reversed $208 $-1 #
edge $-1 $447 0 $447 6.2831853071796004 $209 $448 forward 7 unknown #
vertex $-1 $212 $449 #
ellipse-curve $-1 -53.325860665319901 25.598194583739826 10.25442565116472 -0.69465837861970381 0 0.71933979245794832 1.0790096886869225 0 1.0419875679295556 1 I I #
coedge $-1 $324 $324 $-1 $450 reversed $215 $-1 #
edge $-1 $451 0 $451 6.2831853071796004 $216 $452 forward 7 unknown #
vertex $-1 $219 $453 #
ellipse-curve $-1 -53.325860665319901 31.080891912206397 10.25442565116472 -0.69465837861970381 0 0.71933979245794832 1.0790096886869225 0 1.0419875679295556 1 I I #
face $-1 $-1 $235 $33 $-1 $454 reversed single #
loop $-1 $-1 $344 $220 #
plane-surface $-1 0 34.73602346451743 0 0 -1 0 0 0 -1 forward_v I I I I #
coedge $-1 $455 $342 $345 $456 forward $221 $-1 #
coedge $-1 $348 $223 $224 $336 reversed $139 $-1 #
coedge $-1 $342 $455 $223 $334 reversed $221 $-1 #
edge $-1 $349 -12.712089156003321 $457 12.712089156003321 $333 $458 forward 7 unknown #
coedge $-1 $225 $224 $455 $459 forward $89 $-1 #
edge $-1 $340 -55.870845667897584 $457 55.870845667897584 $332 $460 forward 7 unknown #
coedge $-1 $345 $344 $225 $338 reversed $329 $-1 #
edge $-1 $461 -55.870845667897584 $339 55.870845667897584 $337 $462 forward 7 unknown #
vertex $-1 $227 $463 #
vertex $-1 $351 $464 #
straight-curve $-1 55.870845667897584 0 -12.712089156003321 0 -1 0 I I #
coedge $-1 $331 $333 $228 $343 reversed $221 $-1 #
edge $-1 $346 -34.73602346451743 $349 34.73602346451743 $342 $465 forward 7 unknown #
coedge $-1 $337 $229 $234 $352 forward $329 $-1 #
coedge $-1 $229 $337 $331 $456 reversed $329 $-1 #
vertex $-1 $230 $466 #
straight-curve $-1 0 34.73602346451743 12.712089156003321 -1 0 0 I I #
coedge $-1 $231 $332 $233 $351 reversed $139 $-1 #
vertex $-1 $343 $467 #
straight-curve $-1 0 -34.73602346451743 12.712089156003321 1 0 0 I I #
edge $-1 $236 -12.712089156003321 $340 12.712089156003321 $233 $468 forward 7 unknown #
edge $-1 $237 -12.712089156003321 $339 12.712089156003321 $234 $469 forward 7 unknown #
point $-1 55.870845667897584 -34.73602346451743 12.712089156003321 #
point $-1 55.870845667897584 34.73602346451743 12.712089156003321 #
face $-1 $-1 $252 $34 $-1 $470 reversed single #
loop $-1 $-1 $362 $239 #
plane-surface $-1 0 0 12.712089156003321 0 0 1 1 0 0 forward_v I I I I #
coedge $-1 $471 $242 $247 $367 forward $147 $-1 #
coedge $-1 $242 $471 $472 $473 reversed $147 $-1 #
coedge $-1 $244 $243 $242 $361 reversed $93 $-1 #
edge $-1 $474 -8.0888993718083029 $372 -1.1574801965817363 $242 $475 forward 7 unknown #
coedge $-1 $472 $476 $244 $363 forward $356 $-1 #
edge $-1 $365 -55.870845667897584 $474 55.870845667897584 $362 $477 forward 7 unknown #
coedge $-1 $251 $245 $476 $478 reversed $252 $-1 #
vertex $-1 $246 $479 #
straight-curve $-1 55.870845667897584 -22.046971017827858 4.6231897841950191 0 0 1 I I #
edge $-1 $372 7.8512223972415356 $370 20.540274843931108 $358 $480 forward 7 unknown #
coedge $-1 $481 $248 $251 $374 reversed $240 $-1 #
coedge $-1 $248 $481 $471 $482 forward $240 $-1 #
vertex $-1 $249 $483 #
straight-curve $-1 0 -34.73602346451743 5.7806699807767554 1 0 0 I I #
vertex $-1 $367 $484 #
straight-curve $-1 0 -22.046971017827858 5.7806699807767554 1 0 0 I I #
edge $-1 $485 -12.712089156003321 $253 -5.7806699807767554 $251 $486 forward 7 unknown #
point $-1 55.870845667897584 -34.73602346451743 5.7806699807767554 #
point $-1 55.870845667897584 -22.046971017827858 5.7806699807767554 #
plane-surface $-1 0 0 12.712089156003321 0 0 1 1 0 0 forward_v I I I I #
coedge $-1 $388 $387 $380 $487 forward $257 $-1 #
coedge $-1 $380 $259 $261 $384 reversed $155 $-1 #
coedge $-1 $259 $379 $378 $487 reversed $155 $-1 #
coedge $-1 $267 $262 $259 $382 forward $268 $-1 #
edge $-1 $385 19.82195969194845 $488 23.800184843814208 $381 $489 forward 7 unknown #
coedge $-1 $261 $260 $388 $490 reversed $97 $-1 #
edge $-1 $491 -111.74169133579518 $385 -105.79632705453119 $379 $492 forward 7 unknown #
vertex $-1 $263 $493 #
straight-curve $-1 51.892620516031819 0.52276478338296783 12.712089156003323 0 -1 0 I I #
coedge $-1 $378 $264 $267 $392 reversed $257 $-1 #
coedge $-1 $264 $378 $383 $490 forward $257 $-1 #
vertex $-1 $265 $494 #
straight-curve $-1 55.870845667897584 6.3445262233447846 83.051933844293316 0 0 1 I I #
straight-curve $-1 -18.898938983476583 6.3445262233447846 91.33408303721248 0.66913059716165679 0 -0.74314483375859142 I I #
edge $-1 $488 -4.2534670898129132 $269 6.3445262233447846 $387 $495 forward 7 unknown #
point $-1 55.870845667897584 6.3445262233447846 12.712089156003321 #
point $-1 51.892620516031826 6.3445262233447846 12.712089156003316 #
edge $-1 $496 1 $496 0 $272 $-1 forward 7 unknown #
vertex $-1 $273 $497 #
ellipse-curve $-1 51.415908362646555 -1.225469000339281 8.2827172772368236 0.74314483375859142 0 0.66913059716165679 0.66913059716165679 0 -0.74314483375859142 1 I I #
point $-1 54.550863689126402 -1.225469000339281 9.7598109470276544 #
edge $-1 $498 1 $498 0 $276 $-1 forward 7 unknown #
vertex $-1 $277 $499 #
ellipse-curve $-1 51.415908362646555 3.3165281338711594 8.2827172772368236 0.74314483375859142 0 0.66913059716165679 0.66913059716165679 0 -0.74314483375859142 1 I I #
point $-1 54.550863689126402 3.3165281338711594 9.7598109470276544 #
plane-surface $-1 0 0 12.712089156003321 0 0 1 1 0 0 forward_v I I I I #
coedge $-1 $500 $283 $288 $410 forward $177 $-1 #
coedge $-1 $283 $500 $407 $501 reversed $177 $-1 #
edge $-1 $408 70.33984468829 $415 74.758111438724185 $283 $502 forward 7 unknown #
coedge $-1 $292 $286 $405 $501 forward $293 $-1 #
vertex $-1 $501 $503 #
straight-curve $-1 32.070660824083376 24.138030151359729 12.712089156003316 1 0 0 I I #
edge $-1 $415 9.4195167473904391 $413 20.01751006054814 $404 $504 forward 7 unknown #
coedge $-1 $412 $289 $292 $417 reversed $281 $-1 #
coedge $-1 $289 $411 $500 $505 forward $281 $-1 #
vertex $-1 $290 $506 #
straight-curve $-1 8.0403626681488447 34.73602346451743 61.414956737517812 -0.66913059716165679 0 0.74314483375859142 I I #
vertex $-1 $410 $507 #
straight-curve $-1 -18.898938983476583 24.138030151359729 91.33408303721248 -0.66913059716165679 0 0.74314483375859142 I I #
edge $-1 $508 -55.870845667897584 $294 -51.892620516031826 $411 $509 forward 7 unknown #
point $-1 51.892620516031826 34.73602346451743 12.712089156003316 #
point $-1 51.892620516031826 24.138030151359729 12.712089156003316 #
edge $-1 $510 1 $510 0 $297 $-1 forward 7 unknown #
vertex $-1 $298 $511 #
ellipse-curve $-1 51.415908362646555 27.16602824083337 8.2827172772368236 0.74314483375859142 0 0.66913059716165679 0.66913059716165679 0 -0.74314483375859142 1 I I #
point $-1 54.550863689126402 27.16602824083337 9.7598109470276544 #
edge $-1 $512 1 $512 0 $301 $-1 forward 7 unknown #
vertex $-1 $302 $513 #
ellipse-curve $-1 51.415908362646555 31.708025375043803 8.2827172772368236 0.74314483375859142 0 0.66913059716165679 0.66913059716165679 0 -0.74314483375859142 1 I I #
point $-1 54.550863689126402 31.708025375043803 9.7598109470276544 #
loop $-1 $-1 $313 $305 #
plane-surface $-1 0 34.73602346451743 0 0 -1 0 0 0 -1 forward_v I I I I #
coedge $-1 $435 $514 $309 $431 forward $306 $-1 #
edge $-1 $433 10.875728229824645 $441 15.965698234980003 $430 $515 forward 7 unknown #
coedge $-1 $316 $310 $514 $516 reversed $199 $-1 #
vertex $-1 $311 $517 #
straight-curve $-1 -55.870845667897584 21.943063031428778 44.088503600358564 0 0 1 I I #
coedge $-1 $518 $430 $312 $436 forward $306 $-1 #
edge $-1 $441 7.7732914074422261 $439 20.566251840530878 $435 $519 forward 7 unknown #
coedge $-1 $438 $313 $316 $443 reversed $428 $-1 #
coedge $-1 $313 $437 $518 $520 reversed $428 $-1 #
vertex $-1 $520 $521 #
straight-curve $-1 -43.363671613026888 34.73602346451743 19.874800009883902 -0.71933979245794832 0 -0.69465837861970381 I I #
vertex $-1 $436 $522 #
straight-curve $-1 -55.870845667897584 21.943063031428778 7.7967621463261167 -0.71933979245794832 0 -0.69465837861970381 I I #
edge $-1 $523 -12.712089156003321 $317 -7.7967621463261159 $437 $524 forward 7 unknown #
point $-1 -55.870845667897584 34.73602346451743 7.7967621463261159 #
point $-1 -55.870845667897584 21.943063031428778 7.7967621463261167 #
edge $-1 $525 1 $525 0 $320 $-1 forward 7 unknown #
vertex $-1 $321 $526 #
ellipse-curve $-1 -50.082238303908028 25.598194583739826 6.8955564456910716 -0.69465837861970381 0 0.71933979245794832 1.0790096886869225 0 1.0419875679295556 1 I I #
point $-1 -52.24685097663297 25.598194583739826 11.296413219094266 #
edge $-1 $527 1 $527 0 $324 $-1 forward 7 unknown #
vertex $-1 $325 $528 #
ellipse-curve $-1 -50.082238303908028 31.080891912206397 6.8955564456910716 -0.69465837861970381 0 0.71933979245794832 1.0790096886869225 0 1.0419875679295556 1 I I #
point $-1 -52.24685097663297 31.080891912206397 11.296413219094266 #
plane-surface $-1 55.870845667897584 0 0 -1 0 0 0 0 1 forward_v I I I I #
coedge $-1 $333 $331 $335 $459 reversed $221 $-1 #
edge $-1 $346 -12.712089156003321 $461 12.712089156003321 $345 $529 forward 7 unknown #
vertex $-1 $459 $530 #
straight-curve $-1 -55.870845667897584 -34.73602346451743 0 0 0 -1 I I #
edge $-1 $457 -34.73602346451743 $461 34.73602346451743 $455 $531 forward 7 unknown #
straight-curve $-1 0 -34.73602346451743 -12.712089156003321 -1 0 0 I I #
vertex $-1 $338 $532 #
straight-curve $-1 0 34.73602346451743 -12.712089156003321 1 0 0 I I #
point $-1 55.870845667897584 34.73602346451743 -12.712089156003321 #
point $-1 55.870845667897584 -34.73602346451743 -12.712089156003321 #
straight-curve $-1 -55.870845667897584 0 12.712089156003321 0 -1 0 I I #
point $-1 -55.870845667897584 34.73602346451743 12.712089156003321 #
point $-1 -55.870845667897584 -34.73602346451743 12.712089156003321 #
straight-curve $-1 55.870845667897584 -34.73602346451743 0 0 0 -1 I I #
straight-curve $-1 55.870845667897584 34.73602346451743 0 0 0 -1 I I #
plane-surface $-1 55.870845667897584 0 0 -1 0 0 0 0 1 forward_v I I I I #
coedge $-1 $359 $358 $369 $482 reversed $147 $-1 #
coedge $-1 $533 $362 $359 $473 forward $356 $-1 #
edge $-1 $474 22.046971017827858 $534 34.73602346451743 $359 $535 forward 7 unknown #
vertex $-1 $473 $536 #
straight-curve $-1 -55.870845667897584 -22.046971017827858 4.6231897841950191 0 0 -1 I I #
coedge $-1 $362 $533 $364 $478 forward $356 $-1 #
straight-curve $-1 0 -22.046971017827858 12.712089156003321 -1 0 0 I I #
edge $-1 $485 -34.73602346451743 $365 -22.046971017827858 $364 $537 forward 7 unknown #
point $-1 55.870845667897584 -22.046971017827858 12.712089156003321 #
straight-curve $-1 -55.870845667897584 -14.195748620586322 5.7806699807767554 0 -1 0 I I #
coedge $-1 $369 $368 $533 $538 reversed $240 $-1 #
edge $-1 $534 -12.712089156003321 $370 -5.7806699807767554 $471 $539 forward 7 unknown #
point $-1 -55.870845667897584 -34.73602346451743 5.7806699807767554 #
point $-1 -55.870845667897584 -22.046971017827858 5.7806699807767554 #
vertex $-1 $478 $540 #
straight-curve $-1 55.870845667897584 -34.73602346451743 0 0 0 -1 I I #
edge $-1 $488 70.33984468829 $491 74.758111438724185 $378 $541 forward 7 unknown #
vertex $-1 $392 $542 #
straight-curve $-1 32.070660824083376 -4.2534670898129132 12.712089156003316 1 0 0 I I #
edge $-1 $491 -4.7762318731958811 $389 5.8217614399618167 $388 $543 forward 7 unknown #
vertex $-1 $490 $544 #
straight-curve $-1 -18.898938983476583 -4.2534670898129132 91.33408303721248 -0.66913059716165679 0 0.74314483375859142 I I #
point $-1 51.892620516031826 -4.2534670898129132 12.712089156003316 #
point $-1 55.870845667897584 6.3445262233447846 8.2938224055691308 #
straight-curve $-1 55.870845667897584 0 12.712089156003321 0 1 0 I I #
vertex $-1 $395 $545 #
point $-1 52.085038959808209 -1.225469000339281 7.5395724434782316 #
vertex $-1 $399 $546 #
point $-1 52.085038959808209 3.3165281338711594 7.5395724434782316 #
coedge $-1 $405 $404 $412 $505 reversed $177 $-1 #
edge $-1 $408 24.138030151359729 $508 34.73602346451743 $405 $547 forward 7 unknown #
straight-curve $-1 55.870845667897584 24.138030151359729 83.051933844293316 0 0 -1 I I #
point $-1 55.870845667897584 24.138030151359729 12.712089156003321 #
straight-curve $-1 55.870845667897584 14.71851340396929 8.2938224055691236 0 1 0 I I #
edge $-1 $508 -12.712089156003321 $413 -8.2938224055691308 $500 $548 forward 7 unknown #
point $-1 55.870845667897584 34.73602346451743 8.2938224055691308 #
point $-1 55.870845667897584 24.138030151359729 8.2938224055691308 #
vertex $-1 $501 $549 #
straight-curve $-1 0 34.73602346451743 12.712089156003321 -1 0 0 I I #
vertex $-1 $420 $550 #
point $-1 52.085038959808209 27.16602824083337 7.5395724434782316 #
vertex $-1 $424 $551 #
point $-1 52.085038959808209 31.708025375043803 7.5395724434782316 #
coedge $-1 $430 $518 $432 $516 forward $306 $-1 #
straight-curve $-1 -66.746573897722229 21.943063031428778 12.712089156003323 1 0 0 I I #
edge $-1 $523 -34.73602346451743 $433 -21.943063031428778 $432 $552 forward 7 unknown #
point $-1 -55.870845667897584 21.943063031428778 12.712089156003321 #
coedge $-1 $514 $435 $438 $520 forward $306 $-1 #
straight-curve $-1 -50.780875662742218 14.169771623986552 12.712089156003321 0 1 0 I I #
edge $-1 $439 50.780875662742226 $523 55.870845667897584 $438 $553 forward 7 unknown #
point $-1 -50.780875662742226 34.73602346451743 12.712089156003321 #
point $-1 -50.780875662742226 21.943063031428778 12.712089156003321 #
vertex $-1 $520 $554 #
straight-curve $-1 -55.870845667897584 34.73602346451743 0 0 0 -1 I I #
vertex $-1 $446 $555 #
point $-1 -49.003228615221104 25.598194583739826 7.9375440136206272 #
vertex $-1 $450 $556 #
point $-1 -49.003228615221104 31.080891912206397 7.9375440136206272 #
straight-curve $-1 -55.870845667897584 34.73602346451743 0 0 0 -1 I I #
point $-1 -55.870845667897584 -34.73602346451743 -12.712089156003321 #
straight-curve $-1 -55.870845667897584 0 -12.712089156003321 0 1 0 I I #
point $-1 -55.870845667897584 34.73602346451743 -12.712089156003321 #
coedge $-1 $476 $472 $481 $538 forward $356 $-1 #
vertex $-1 $473 $557 #
straight-curve $-1 -55.870845667897584 0 12.712089156003321 0 -1 0 I I #
point $-1 -55.870845667897584 -22.046971017827858 12.712089156003321 #
straight-curve $-1 55.870845667897584 0 12.712089156003321 0 1 0 I I #
edge $-1 $534 -55.870845667897584 $485 55.870845667897584 $481 $558 forward 7 unknown #
straight-curve $-1 -55.870845667897584 -34.73602346451743 0 0 0 -1 I I #
point $-1 55.870845667897584 -34.73602346451743 12.712089156003321 #
straight-curve $-1 55.870845667897584 -4.2534670898129132 83.051933844293316 0 0 -1 I I #
point $-1 55.870845667897584 -4.2534670898129132 12.712089156003321 #
straight-curve $-1 55.870845667897584 0.52276478338296783 8.2938224055691236 0 1 0 I I #
point $-1 55.870845667897584 -4.2534670898129132 8.2938224055691308 #
point $-1 50.672763528887963 -1.225469000339281 7.6135866800751666 #
point $-1 50.672763528887963 3.3165281338711594 7.6135866800751666 #
straight-curve $-1 55.870845667897584 0 12.712089156003321 0 1 0 I I #
straight-curve $-1 55.870845667897584 34.73602346451743 0 0 0 -1 I I #
point $-1 55.870845667897584 34.73602346451743 12.712089156003321 #
point $-1 50.672763528887963 27.16602824083337 7.6135866800751666 #
point $-1 50.672763528887963 31.708025375043803 7.6135866800751666 #
straight-curve $-1 -55.870845667897584 0 12.712089156003321 0 -1 0 I I #
straight-curve $-1 0 34.73602346451743 12.712089156003321 -1 0 0 I I #
point $-1 -55.870845667897584 34.73602346451743 12.712089156003321 #
point $-1 -49.040250735978475 25.598194583739826 5.8165467570041498 #
point $-1 -49.040250735978475 31.080891912206397 5.8165467570041498 #
point $-1 -55.870845667897584 -34.73602346451743 12.712089156003321 #
straight-curve $-1 0 -34.73602346451743 12.712089156003321 1 0 0 I I #
End-of-ACIS-data 