500 0 5 0           
7 Unknown 11 ACIS 5.0 NT 24 Thu Mar 25 20:20:34 1999 
-1 9.9999999999999995e-007 1e-010 
body $-1 $5 $-1 $6 #
body $-1 $7 $-1 $8 #
body $-1 $9 $-1 $10 #
body $-1 $11 $-1 $12 #
body $-1 $13 $-1 $14 #
lump $-1 $-1 $15 $0 #
transform $-1 1 0 0 0 1 0 0 0 1 66.343577379680781 43.023810943076533 8.8911324137407384 1 rotate no_reflect no_shear #
lump $-1 $-1 $16 $1 #
transform $-1 1 0 0 0 1 0 0 0 1 66.343577379680781 43.023810943076533 8.8911324137407384 1 rotate no_reflect no_shear #
lump $-1 $-1 $17 $2 #
transform $-1 1 0 0 0 1 0 0 0 1 66.343577379680781 43.023810943076533 8.8911324137407384 1 rotate no_reflect no_shear #
lump $-1 $-1 $18 $3 #
transform $-1 1 0 0 0 1 0 0 0 1 66.343577379680781 43.023810943076533 8.8911324137407384 1 rotate no_reflect no_shear #
lump $-1 $-1 $19 $4 #
transform $-1 1 0 0 0 1 0 0 0 1 66.343577379680781 43.023810943076533 8.8911324137407384 1 rotate no_reflect no_shear #
shell $-1 $-1 $-1 $20 $-1 $5 #
shell $-1 $-1 $-1 $21 $-1 $7 #
shell $-1 $-1 $-1 $22 $-1 $9 #
shell $-1 $-1 $-1 $23 $-1 $11 #
shell $-1 $-1 $-1 $24 $-1 $13 #
face $-1 $25 $26 $15 $-1 $27 forward single #
face $-1 $28 $29 $16 $-1 $30 reversed single #
face $-1 $31 $32 $17 $-1 $33 forward single #
face $-1 $34 $35 $18 $-1 $36 reversed single #
face $-1 $37 $38 $19 $-1 $39 reversed single #
face $-1 $40 $41 $15 $-1 $42 reversed single #
loop $-1 $-1 $43 $20 #
plane-surface $-1 0 0 8.8911324137407384 0 0 1 1 0 0 forward_v I I I I #
face $-1 $44 $45 $16 $-1 $46 forward single #
loop $-1 $-1 $47 $21 #
plane-surface $-1 0 -38.327161891990741 3.8760925528558516 0 0 1 1 0 0 forward_v I I I I #
face $-1 $48 $49 $17 $-1 $50 forward single #
loop $-1 $-1 $51 $22 #
plane-surface $-1 20.588024047400971 59.654982803151476 161.4731652980135 1 0 0 0 -0.62932039886446345 -0.77714595512881146 forward_v I I I I #
face $-1 $52 $53 $18 $-1 $54 reversed single #
loop $-1 $55 $56 $23 #
cone-surface $-1 26.718490038214284 39.718427875721972 6.0395350324464792 0 -0.62932039886446345 -0.77714595512881146 0.5 0 0 1 I I 0 1 0.5 forward I I I I #
face $-1 $57 $58 $19 $-1 $59 reversed single #
loop $-1 $60 $61 $24 #
cone-surface $-1 35.914189024434251 39.718427875721972 6.0395350324464792 0 -0.62932039886446345 -0.77714595512881146 0.5 0 0 1 I I 0 1 0.5 forward I I I I #
face $-1 $62 $63 $15 $-1 $64 reversed single #
loop $-1 $-1 $65 $25 #
plane-surface $-1 0 0 -8.8911324137407384 0 0 1 1 0 0 forward_v I I I I #
coedge $-1 $66 $67 $68 $69 forward $26 $-1 #
face $-1 $70 $71 $16 $-1 $72 forward single #
loop $-1 $-1 $73 $28 #
plane-surface $-1 0 -38.327161891990741 0.24903585024430797 0 0 1 1 0 0 forward_v I I I I #
coedge $-1 $74 $75 $76 $77 reversed $29 $-1 #
face $-1 $78 $79 $17 $-1 $80 forward single #
loop $-1 $-1 $81 $31 #
plane-surface $-1 31.31633953132426 -23.847750354200734 58.35587967922504 0 0.62932039886446345 0.77714595512881146 1 0 0 forward_v I I I I #
coedge $-1 $82 $83 $84 $85 reversed $32 $-1 #
face $-1 $86 $87 $18 $-1 $88 forward single #
loop $-1 $89 $90 $34 #
cone-surface $-1 26.718490038214284 39.149558111808098 5.3370393929940469 0 -0.62932039886446345 -0.77714595512881146 0.25 0 0 1 I I -0.70710678118654746 0.70710678118654746 0.25 forward I I I I #
loop $-1 $-1 $91 $23 #
coedge $-1 $56 $56 $92 $93 reversed $35 $-1 #
face $-1 $94 $95 $19 $-1 $96 reversed single #
loop $-1 $97 $98 $37 #
cone-surface $-1 35.914189024434251 39.149558111808098 5.3370393929940469 0 -0.62932039886446345 -0.77714595512881146 0.25 0 0 1 I I -0.70710678118654746 0.70710678118654746 0.25 forward I I I I #
loop $-1 $-1 $99 $24 #
coedge $-1 $61 $61 $100 $101 reversed $38 $-1 #
face $-1 $102 $103 $15 $-1 $104 reversed single #
loop $-1 $-1 $105 $40 #
plane-surface $-1 0 -43.023810943076533 0 0 1 0 0 0 1 forward_v I I I I #
coedge $-1 $106 $107 $108 $109 forward $41 $-1 #
coedge $-1 $110 $43 $111 $112 forward $26 $-1 #
coedge $-1 $43 $110 $113 $114 forward $26 $-1 #
coedge $-1 $115 $116 $43 $69 reversed $117 $-1 #
edge $-1 $118 -43.023810943076533 $119 43.023810943076533 $68 $120 forward 7 unknown #
face $-1 $121 $122 $16 $-1 $123 reversed single #
loop $-1 $-1 $124 $44 #
plane-surface $-1 0 -33.630512840904949 2.0625642015500798 0 -1 0 0 0 -1 forward_v I I I I #
coedge $-1 $125 $126 $127 $128 reversed $45 $-1 #
coedge $-1 $129 $47 $130 $131 reversed $29 $-1 #
coedge $-1 $47 $129 $132 $133 reversed $29 $-1 #
coedge $-1 $134 $135 $47 $77 forward $122 $-1 #
edge $-1 $136 -23.860229997081163 $137 -14.466931894909578 $76 $138 forward 7 unknown #
face $-1 $139 $140 $17 $-1 $141 forward single #
loop $-1 $-1 $142 $48 #
plane-surface $-1 42.04465501524755 59.654982803151476 161.4731652980135 -1 0 0 0 0.62932039886446345 0.77714595512881146 forward_v I I I I #
coedge $-1 $143 $144 $145 $146 reversed $49 $-1 #
coedge $-1 $83 $51 $144 $147 forward $32 $-1 #
coedge $-1 $51 $82 $148 $149 reversed $32 $-1 #
coedge $-1 $150 $145 $51 $85 forward $140 $-1 #
edge $-1 $151 7.4086327351871795 $152 13.196319541500795 $84 $153 forward 7 unknown #
face $-1 $154 $155 $18 $-1 $156 forward single #
loop $-1 $-1 $157 $52 #
plane-surface $-1 20.588024047400971 59.654982803151476 161.4731652980135 1 0 0 0 -0.62932039886446345 -0.77714595512881146 forward_v I I I I #
loop $-1 $-1 $158 $34 #
coedge $-1 $90 $90 $91 $159 forward $53 $-1 #
coedge $-1 $91 $91 $90 $159 reversed $55 $-1 #
coedge $-1 $92 $92 $56 $93 forward $155 $-1 #
edge $-1 $160 3.6238281563457453e-015 $160 6.283185307179604 $92 $161 forward 7 unknown #
face $-1 $162 $163 $19 $-1 $164 reversed single #
loop $-1 $165 $166 $57 #
cone-surface $-1 26.718490038214284 39.718427875721972 6.0395350324464792 0 -0.62932039886446345 -0.77714595512881146 0.5 0 0 1 I I 0 1 0.5 forward I I I I #
loop $-1 $-1 $167 $37 #
coedge $-1 $98 $98 $99 $168 forward $58 $-1 #
coedge $-1 $99 $99 $98 $168 reversed $60 $-1 #
coedge $-1 $100 $100 $61 $101 forward $169 $-1 #
edge $-1 $170 3.6238281563457453e-015 $170 6.283185307179604 $100 $171 forward 7 unknown #
face $-1 $172 $173 $15 $-1 $174 reversed single #
loop $-1 $-1 $175 $62 #
plane-surface $-1 -66.343577379680781 0 0 1 0 0 0 0 -1 forward_v I I I I #
coedge $-1 $176 $113 $177 $178 forward $63 $-1 #
coedge $-1 $179 $65 $176 $180 forward $41 $-1 #
coedge $-1 $65 $179 $181 $182 forward $41 $-1 #
coedge $-1 $116 $115 $65 $109 reversed $117 $-1 #
edge $-1 $183 -43.023810943076533 $184 43.023810943076533 $108 $185 forward 7 unknown #
coedge $-1 $67 $66 $186 $187 forward $26 $-1 #
coedge $-1 $188 $189 $66 $112 reversed $173 $-1 #
edge $-1 $119 -66.343577379680781 $190 66.343577379680781 $111 $191 forward 7 unknown #
coedge $-1 $105 $192 $67 $114 reversed $63 $-1 #
edge $-1 $193 -66.343577379680781 $118 66.343577379680781 $113 $194 forward 7 unknown #
coedge $-1 $108 $68 $192 $195 forward $117 $-1 #
coedge $-1 $68 $108 $188 $196 reversed $117 $-1 #
loop $-1 $-1 $115 $172 #
vertex $-1 $69 $197 #
vertex $-1 $69 $198 #
straight-curve $-1 66.343577379680781 0 8.8911324137407384 0 1 0 I I #
face $-1 $199 $200 $16 $-1 $201 reversed single #
loop $-1 $-1 $76 $70 #
plane-surface $-1 66.343577379680781 0 0 -1 0 0 0 0 1 forward_v I I I I #
coedge $-1 $132 $202 $134 $203 reversed $71 $-1 #
coedge $-1 $204 $73 $202 $205 reversed $45 $-1 #
coedge $-1 $73 $204 $206 $207 reversed $45 $-1 #
coedge $-1 $208 $134 $73 $128 forward $122 $-1 #
edge $-1 $209 14.466931894909578 $210 23.860229997081163 $127 $211 forward 7 unknown #
coedge $-1 $75 $74 $212 $213 reversed $29 $-1 #
coedge $-1 $214 $215 $74 $131 forward $216 $-1 #
edge $-1 $217 -66.343577379680781 $136 66.343577379680781 $130 $218 forward 7 unknown #
coedge $-1 $219 $124 $75 $133 forward $71 $-1 #
edge $-1 $137 -66.343577379680781 $220 66.343577379680781 $132 $221 forward 7 unknown #
coedge $-1 $127 $76 $124 $203 forward $122 $-1 #
coedge $-1 $76 $222 $214 $223 forward $122 $-1 #
vertex $-1 $131 $224 #
vertex $-1 $77 $225 #
straight-curve $-1 66.343577379680781 -19.163580945995371 3.8760925528558516 0 1 0 I I #
face $-1 $226 $227 $17 $-1 $228 reversed single #
loop $-1 $-1 $229 $78 #
plane-surface $-1 0 0 8.8911324137407384 0 0 1 1 0 0 forward_v I I I I #
coedge $-1 $230 $231 $229 $232 reversed $79 $-1 #
coedge $-1 $233 $81 $231 $234 reversed $49 $-1 #
coedge $-1 $81 $233 $82 $147 reversed $49 $-1 #
coedge $-1 $84 $229 $81 $146 forward $140 $-1 #
edge $-1 $235 -26.386485249585419 $151 -4.9298542817388409 $145 $236 forward 7 unknown #
edge $-1 $151 78.600260463092852 $237 86.047621886153095 $82 $238 forward 7 unknown #
coedge $-1 $239 $240 $83 $149 forward $241 $-1 #
edge $-1 $152 71.845450235266014 $237 76.532226696514101 $148 $242 forward 7 unknown #
coedge $-1 $243 $84 $240 $244 forward $140 $-1 #
vertex $-1 $146 $245 #
vertex $-1 $244 $246 #
straight-curve $-1 20.588024047400971 29.827491401575738 8.8911324137407348 0 1 0 I I #
face $-1 $247 $248 $18 $-1 $249 forward single #
loop $-1 $250 $92 $86 #
plane-surface $-1 31.31633953132426 -23.847750354200734 58.35587967922504 0 0.62932039886446345 0.77714595512881146 1 0 0 forward_v I I I I #
coedge $-1 $251 $252 $253 $254 reversed $87 $-1 #
coedge $-1 $158 $158 $-1 $255 forward $89 $-1 #
edge $-1 $256 0 $256 6.2831853071796004 $90 $257 forward 7 unknown #
vertex $-1 $93 $258 #
ellipse-curve $-1 26.718490038214284 40.129967539919718 6.5477441831166878 0 -0.62932039886446345 -0.77714595512881146 0.5 0 0 1 I I #
face $-1 $259 $260 $19 $-1 $261 forward single #
loop $-1 $262 $263 $94 #
cone-surface $-1 26.718490038214284 39.149558111808098 5.3370393929940469 0 -0.62932039886446345 -0.77714595512881146 0.25 0 0 1 I I -0.70710678118654746 0.70710678118654746 0.25 forward I I I I #
loop $-1 $-1 $264 $57 #
coedge $-1 $166 $166 $265 $266 reversed $95 $-1 #
coedge $-1 $167 $167 $-1 $267 forward $97 $-1 #
edge $-1 $268 0 $268 6.2831853071796004 $98 $269 forward 7 unknown #
loop $-1 $270 $100 $259 #
vertex $-1 $101 $271 #
ellipse-curve $-1 35.914189024434251 40.129967539919718 6.5477441831166878 0 -0.62932039886446345 -0.77714595512881146 0.5 0 0 1 I I #
face $-1 $-1 $117 $15 $-1 $272 reversed single #
loop $-1 $-1 $188 $102 #
plane-surface $-1 0 43.023810943076533 0 0 -1 0 0 0 -1 forward_v I I I I #
coedge $-1 $273 $186 $189 $274 forward $103 $-1 #
coedge $-1 $192 $105 $106 $180 reversed $63 $-1 #
coedge $-1 $186 $273 $105 $178 reversed $103 $-1 #
edge $-1 $193 -8.8911324137407384 $275 8.8911324137407384 $177 $276 forward 7 unknown #
coedge $-1 $107 $106 $273 $277 forward $41 $-1 #
edge $-1 $184 -66.343577379680781 $275 66.343577379680781 $176 $278 forward 7 unknown #
coedge $-1 $189 $188 $107 $182 reversed $173 $-1 #
edge $-1 $279 -66.343577379680781 $183 66.343577379680781 $181 $280 forward 7 unknown #
vertex $-1 $109 $281 #
vertex $-1 $195 $282 #
straight-curve $-1 66.343577379680781 0 -8.8911324137407384 0 -1 0 I I #
coedge $-1 $175 $177 $110 $187 reversed $103 $-1 #
edge $-1 $190 -43.023810943076533 $193 43.023810943076533 $186 $283 forward 7 unknown #
coedge $-1 $181 $111 $116 $196 forward $173 $-1 #
coedge $-1 $111 $181 $175 $274 reversed $173 $-1 #
vertex $-1 $112 $284 #
straight-curve $-1 0 43.023810943076533 8.8911324137407384 -1 0 0 I I #
coedge $-1 $113 $176 $115 $195 reversed $63 $-1 #
vertex $-1 $187 $285 #
straight-curve $-1 0 -43.023810943076533 8.8911324137407384 1 0 0 I I #
edge $-1 $118 -8.8911324137407384 $184 8.8911324137407384 $115 $286 forward 7 unknown #
edge $-1 $119 -8.8911324137407384 $183 8.8911324137407384 $116 $287 forward 7 unknown #
point $-1 66.343577379680781 -43.023810943076533 8.8911324137407384 #
point $-1 66.343577379680781 43.023810943076533 8.8911324137407384 #
face $-1 $288 $289 $16 $-1 $290 forward single #
loop $-1 $-1 $206 $121 #
plane-surface $-1 0 -43.023810943076533 0 0 1 0 0 0 1 forward_v I I I I #
coedge $-1 $124 $219 $125 $205 forward $71 $-1 #
edge $-1 $137 -2.8448104520808117 $209 0.78224625053073193 $134 $291 forward 7 unknown #
coedge $-1 $126 $125 $292 $293 reversed $45 $-1 #
edge $-1 $294 -66.343577379680781 $209 66.343577379680781 $202 $295 forward 7 unknown #
coedge $-1 $296 $297 $126 $207 forward $200 $-1 #
edge $-1 $210 -66.343577379680781 $298 66.343577379680781 $206 $299 forward 7 unknown #
coedge $-1 $300 $127 $297 $301 forward $122 $-1 #
vertex $-1 $128 $302 #
vertex $-1 $301 $303 #
straight-curve $-1 66.343577379680781 -19.163580945995371 0.24903585024430797 0 -1 0 I I #
coedge $-1 $304 $305 $129 $213 forward $306 $-1 #
edge $-1 $220 14.466931894909578 $217 23.860229997081163 $212 $307 forward 7 unknown #
coedge $-1 $308 $130 $135 $223 reversed $216 $-1 #
coedge $-1 $130 $308 $304 $309 forward $216 $-1 #
loop $-1 $-1 $130 $310 #
vertex $-1 $213 $311 #
straight-curve $-1 0 -43.023810943076533 3.8760925528558516 1 0 0 I I #
coedge $-1 $202 $132 $305 $312 reversed $71 $-1 #
vertex $-1 $213 $313 #
straight-curve $-1 0 -33.630512840904949 3.8760925528558516 -1 0 0 I I #
coedge $-1 $135 $314 $315 $316 reversed $122 $-1 #
edge $-1 $317 -8.8911324137407384 $136 -3.8760925528558516 $135 $318 forward 7 unknown #
point $-1 66.343577379680781 -43.023810943076533 3.8760925528558516 #
point $-1 66.343577379680781 -33.630512840904949 3.8760925528558516 #
face $-1 $319 $320 $17 $-1 $321 forward single #
loop $-1 $-1 $322 $139 #
plane-surface $-1 0 -38.327161891990741 3.8760925528558516 0 0 1 1 0 0 forward_v I I I I #
coedge $-1 $145 $323 $142 $232 forward $140 $-1 #
coedge $-1 $231 $142 $324 $325 reversed $79 $-1 #
coedge $-1 $142 $230 $143 $234 forward $79 $-1 #
edge $-1 $326 -13.196319541500795 $235 -7.4086327351871795 $229 $327 forward 7 unknown #
coedge $-1 $144 $143 $239 $328 reversed $49 $-1 #
edge $-1 $329 -86.047621886153095 $235 -78.600260463092852 $231 $330 forward 7 unknown #
vertex $-1 $146 $331 #
straight-curve $-1 15.65816976566213 37.236124136762903 8.8911324137407348 -1 0 0 I I #
vertex $-1 $328 $332 #
straight-curve $-1 20.588024047400971 -23.847750354200734 58.35587967922504 0 0.77714595512881146 -0.62932039886446345 I I #
coedge $-1 $324 $148 $233 $328 forward $241 $-1 #
coedge $-1 $148 $333 $150 $244 reversed $241 $-1 #
loop $-1 $-1 $324 $334 #
straight-curve $-1 20.588024047400971 43.023810943076533 80.736582649006749 0 0 -1 I I #
coedge $-1 $335 $150 $336 $337 forward $140 $-1 #
edge $-1 $152 -20.588024047400971 $338 66.343577379680781 $240 $339 forward 7 unknown #
point $-1 20.588024047400971 37.236124136762918 8.8911324137407277 #
point $-1 20.588024047400971 43.023810943076533 8.8911324137407384 #
face $-1 $340 $341 $18 $-1 $342 forward single #
loop $-1 $-1 $343 $154 #
plane-surface $-1 42.04465501524755 59.654982803151476 161.4731652980135 -1 0 0 0 0.62932039886446345 0.77714595512881146 forward_v I I I I #
loop $-1 $-1 $344 $86 #
coedge $-1 $252 $157 $345 $346 forward $87 $-1 #
coedge $-1 $157 $251 $347 $348 reversed $87 $-1 #
coedge $-1 $349 $350 $157 $254 forward $341 $-1 #
edge $-1 $351 7.4086327351871795 $352 13.196319541500795 $253 $353 forward 7 unknown #
edge $-1 $354 1 $354 0 $158 $-1 forward 7 unknown #
vertex $-1 $159 $355 #
ellipse-curve $-1 26.718490038214284 39.30688821152421 5.5313258817762501 0 0.62932039886446345 0.77714595512881146 0.5 0 0 1 I I #
point $-1 27.218490038214284 40.129967539919733 6.5477441831167082 #
face $-1 $356 $169 $19 $-1 $357 forward single #
loop $-1 $-1 $358 $162 #
plane-surface $-1 20.588024047400971 59.654982803151476 161.4731652980135 1 0 0 0 -0.62932039886446345 -0.77714595512881146 forward_v I I I I #
loop $-1 $-1 $359 $94 #
coedge $-1 $263 $263 $264 $360 forward $163 $-1 #
coedge $-1 $264 $264 $263 $360 reversed $165 $-1 #
coedge $-1 $265 $265 $166 $266 forward $270 $-1 #
edge $-1 $361 3.6238281563457453e-015 $361 6.283185307179604 $265 $362 forward 7 unknown #
edge $-1 $363 1 $363 0 $167 $-1 forward 7 unknown #
vertex $-1 $168 $364 #
ellipse-curve $-1 35.914189024434251 39.30688821152421 5.5313258817762501 0 0.62932039886446345 0.77714595512881146 0.5 0 0 1 I I #
loop $-1 $365 $265 $259 #
point $-1 36.414189024434251 40.129967539919733 6.5477441831167082 #
plane-surface $-1 66.343577379680781 0 0 -1 0 0 0 0 1 forward_v I I I I #
coedge $-1 $177 $175 $179 $277 reversed $103 $-1 #
edge $-1 $190 -8.8911324137407384 $279 8.8911324137407384 $189 $366 forward 7 unknown #
vertex $-1 $277 $367 #
straight-curve $-1 -66.343577379680781 -43.023810943076533 0 0 0 -1 I I #
edge $-1 $275 -43.023810943076533 $279 43.023810943076533 $273 $368 forward 7 unknown #
straight-curve $-1 0 -43.023810943076533 -8.8911324137407384 -1 0 0 I I #
vertex $-1 $182 $369 #
straight-curve $-1 0 43.023810943076533 -8.8911324137407384 1 0 0 I I #
point $-1 66.343577379680781 43.023810943076533 -8.8911324137407384 #
point $-1 66.343577379680781 -43.023810943076533 -8.8911324137407384 #
straight-curve $-1 -66.343577379680781 0 8.8911324137407384 0 -1 0 I I #
point $-1 -66.343577379680781 43.023810943076533 8.8911324137407384 #
point $-1 -66.343577379680781 -43.023810943076533 8.8911324137407384 #
straight-curve $-1 66.343577379680781 -43.023810943076533 0 0 0 -1 I I #
straight-curve $-1 66.343577379680781 43.023810943076533 0 0 0 -1 I I #
face $-1 $310 $370 $16 $-1 $371 reversed single #
loop $-1 $-1 $315 $199 #
plane-surface $-1 0 0 8.8911324137407384 0 0 1 1 0 0 forward_v I I I I #
straight-curve $-1 66.343577379680781 -33.630512840904949 1.0312821007750399 0 0 -1 I I #
coedge $-1 $305 $372 $204 $293 forward $306 $-1 #
edge $-1 $298 -23.860229997081163 $294 -14.466931894909578 $292 $373 forward 7 unknown #
vertex $-1 $293 $374 #
straight-curve $-1 0 -33.630512840904949 0.24903585024430797 1 0 0 I I #
coedge $-1 $375 $206 $372 $376 forward $200 $-1 #
coedge $-1 $206 $375 $208 $301 reversed $200 $-1 #
vertex $-1 $376 $377 #
straight-curve $-1 0 -43.023810943076533 0.24903585024430797 -1 0 0 I I #
coedge $-1 $314 $208 $378 $379 reversed $122 $-1 #
edge $-1 $210 -0.24903585024430797 $380 8.8911324137407384 $208 $318 forward 7 unknown #
point $-1 66.343577379680781 -33.630512840904949 0.24903585024430797 #
point $-1 66.343577379680781 -43.023810943076533 0.24903585024430797 #
coedge $-1 $381 $212 $215 $309 reversed $306 $-1 #
coedge $-1 $212 $292 $219 $312 forward $306 $-1 #
loop $-1 $-1 $212 $382 #
straight-curve $-1 -66.343577379680781 -19.163580945995371 3.8760925528558516 0 -1 0 I I #
coedge $-1 $215 $214 $383 $384 reversed $216 $-1 #
edge $-1 $385 -8.8911324137407384 $217 -3.8760925528558516 $304 $386 forward 7 unknown #
face $-1 $382 $216 $16 $-1 $201 reversed single #
point $-1 -66.343577379680781 -43.023810943076533 3.8760925528558516 #
edge $-1 $294 -0.78224625053073193 $220 2.8448104520808117 $305 $387 forward 7 unknown #
point $-1 -66.343577379680781 -33.630512840904949 3.8760925528558516 #
coedge $-1 $222 $300 $388 $389 reversed $122 $-1 #
coedge $-1 $390 $383 $222 $316 forward $289 $-1 #
edge $-1 $317 -43.023810943076533 $391 43.023810943076533 $222 $392 forward 7 unknown #
vertex $-1 $316 $393 #
straight-curve $-1 66.343577379680781 -43.023810943076533 0 0 0 -1 I I #
face $-1 $394 $395 $17 $-1 $396 forward single #
loop $-1 $-1 $397 $226 #
plane-surface $-1 0 -38.327161891990741 0.24903585024430797 0 0 1 1 0 0 forward_v I I I I #
coedge $-1 $398 $399 $400 $401 reversed $227 $-1 #
coedge $-1 $229 $402 $403 $404 forward $140 $-1 #
coedge $-1 $403 $239 $230 $325 forward $241 $-1 #
edge $-1 $329 -76.532226696514101 $326 -71.845450235266014 $324 $405 forward 7 unknown #
vertex $-1 $325 $406 #
straight-curve $-1 42.04465501524755 29.827491401575738 8.8911324137407348 0 -1 0 I I #
edge $-1 $237 4.9298542817388409 $329 26.386485249585419 $239 $407 forward 7 unknown #
vertex $-1 $328 $408 #
straight-curve $-1 42.04465501524755 -23.847750354200734 58.35587967922504 0 -0.77714595512881146 0.62932039886446345 I I #
point $-1 42.04465501524755 37.236124136762918 8.8911324137407277 #
point $-1 20.588024047400971 43.023810943076533 4.2043559524926408 #
coedge $-1 $240 $409 $410 $411 reversed $241 $-1 #
face $-1 $-1 $241 $17 $-1 $412 reversed single #
coedge $-1 $402 $243 $413 $414 forward $140 $-1 #
coedge $-1 $410 $415 $243 $337 reversed $416 $-1 #
edge $-1 $338 -43.023810943076533 $417 43.023810943076533 $336 $418 forward 7 unknown #
vertex $-1 $244 $419 #
straight-curve $-1 0 43.023810943076533 8.8911324137407384 -1 0 0 I I #
face $-1 $420 $421 $18 $-1 $422 reversed single #
loop $-1 $-1 $423 $247 #
plane-surface $-1 0 0 8.8911324137407384 0 0 1 1 0 0 forward_v I I I I #
coedge $-1 $424 $425 $423 $426 reversed $248 $-1 #
coedge $-1 $427 $345 $350 $428 reversed $250 $-1 #
coedge $-1 $344 $429 $251 $346 reversed $250 $-1 #
edge $-1 $351 78.600260463092852 $430 86.047621886153095 $251 $431 forward 7 unknown #
coedge $-1 $432 $433 $252 $348 forward $434 $-1 #
edge $-1 $352 71.845450235266014 $430 76.532226696514101 $347 $435 forward 7 unknown #
coedge $-1 $436 $253 $433 $437 forward $341 $-1 #
coedge $-1 $253 $423 $344 $428 forward $341 $-1 #
vertex $-1 $428 $438 #
vertex $-1 $437 $439 #
straight-curve $-1 20.588024047400971 29.827491401575738 8.8911324137407348 0 1 0 I I #
vertex $-1 $255 $440 #
point $-1 27.218490038214284 39.30688821152421 5.5313258817762501 #
face $-1 $441 $442 $19 $-1 $443 forward single #
plane-surface $-1 31.31633953132426 -23.847750354200734 58.35587967922504 0 0.62932039886446345 0.77714595512881146 1 0 0 forward_v I I I I #
coedge $-1 $444 $445 $446 $447 reversed $260 $-1 #
coedge $-1 $359 $359 $-1 $448 forward $262 $-1 #
edge $-1 $449 0 $449 6.2831853071796004 $263 $450 forward 7 unknown #
vertex $-1 $266 $451 #
ellipse-curve $-1 26.718490038214284 40.129967539919718 6.5477441831166878 0 -0.62932039886446345 -0.77714595512881146 0.5 0 0 1 I I #
vertex $-1 $267 $452 #
point $-1 36.414189024434251 39.30688821152421 5.5313258817762501 #
loop $-1 $-1 $453 $259 #
straight-curve $-1 -66.343577379680781 43.023810943076533 0 0 0 -1 I I #
point $-1 -66.343577379680781 -43.023810943076533 -8.8911324137407384 #
straight-curve $-1 -66.343577379680781 0 -8.8911324137407384 0 1 0 I I #
point $-1 -66.343577379680781 43.023810943076533 -8.8911324137407384 #
loop $-1 $-1 $378 $288 #
plane-surface $-1 0 0 -8.8911324137407384 0 0 1 1 0 0 forward_v I I I I #
coedge $-1 $292 $454 $296 $376 reversed $306 $-1 #
straight-curve $-1 -66.343577379680781 -19.163580945995371 0.24903585024430797 0 1 0 I I #
point $-1 -66.343577379680781 -33.630512840904949 0.24903585024430797 #
coedge $-1 $297 $296 $455 $456 reversed $200 $-1 #
edge $-1 $298 -0.24903585024430797 $457 8.8911324137407384 $372 $386 forward 7 unknown #
point $-1 -66.343577379680781 -43.023810943076533 0.24903585024430797 #
coedge $-1 $455 $458 $300 $379 forward $370 $-1 #
edge $-1 $459 -43.023810943076533 $380 43.023810943076533 $300 $460 forward 7 unknown #
vertex $-1 $301 $461 #
coedge $-1 $462 $304 $463 $464 reversed $306 $-1 #
face $-1 $465 $306 $16 $-1 $466 reversed single #
coedge $-1 $315 $463 $308 $384 forward $289 $-1 #
edge $-1 $385 -66.343577379680781 $317 66.343577379680781 $308 $467 forward 7 unknown #
vertex $-1 $464 $468 #
straight-curve $-1 -66.343577379680781 -43.023810943076533 0 0 0 -1 I I #
straight-curve $-1 -66.343577379680781 -33.630512840904949 1.0312821007750399 0 0 1 I I #
coedge $-1 $469 $470 $314 $389 forward $471 $-1 #
edge $-1 $391 -8.8911324137407384 $459 8.8911324137407384 $314 $472 forward 7 unknown #
coedge $-1 $463 $315 $470 $473 forward $289 $-1 #
vertex $-1 $316 $474 #
straight-curve $-1 66.343577379680781 0 8.8911324137407384 0 1 0 I I #
point $-1 66.343577379680781 -43.023810943076533 8.8911324137407384 #
face $-1 $475 $476 $17 $-1 $477 reversed single #
loop $-1 $-1 $478 $319 #
plane-surface $-1 0 -33.630512840904949 2.0625642015500798 0 -1 0 0 0 -1 forward_v I I I I #
coedge $-1 $479 $480 $481 $482 reversed $320 $-1 #
coedge $-1 $483 $322 $484 $485 reversed $227 $-1 #
coedge $-1 $322 $483 $486 $487 reversed $227 $-1 #
coedge $-1 $488 $489 $322 $401 forward $476 $-1 #
edge $-1 $490 -23.860229997081163 $491 -14.466931894909578 $400 $492 forward 7 unknown #
coedge $-1 $323 $335 $493 $494 forward $140 $-1 #
coedge $-1 $495 $324 $323 $404 reversed $241 $-1 #
edge $-1 $496 -66.343577379680781 $326 -42.04465501524755 $403 $339 forward 7 unknown #
straight-curve $-1 42.04465501524755 43.023810943076533 80.736582649006749 0 0 1 I I #
point $-1 42.04465501524755 43.023810943076533 8.8911324137407384 #
straight-curve $-1 15.65816976566213 43.023810943076533 4.2043559524926408 1 0 0 I I #
point $-1 42.04465501524755 43.023810943076533 4.2043559524926408 #
coedge $-1 $333 $495 $497 $498 reversed $241 $-1 #
coedge $-1 $499 $336 $333 $411 forward $416 $-1 #
edge $-1 $338 -8.8911324137407384 $500 8.8911324137407384 $333 $501 forward 7 unknown #
plane-surface $-1 0 43.023810943076533 0 0 -1 0 0 0 -1 forward_v I I I I #
coedge $-1 $502 $503 $335 $414 reversed $504 $-1 #
edge $-1 $417 -66.343577379680781 $505 66.343577379680781 $413 $506 forward 7 unknown #
coedge $-1 $336 $507 $502 $508 reversed $416 $-1 #
loop $-1 $-1 $507 $509 #
vertex $-1 $337 $510 #
straight-curve $-1 -66.343577379680781 0 8.8911324137407384 0 -1 0 I I #
point $-1 -66.343577379680781 43.023810943076533 8.8911324137407384 #
face $-1 $511 $512 $18 $-1 $513 forward single #
loop $-1 $-1 $514 $340 #
plane-surface $-1 0 -38.327161891990741 3.8760925528558516 0 0 1 1 0 0 forward_v I I I I #
coedge $-1 $350 $515 $343 $426 forward $341 $-1 #
coedge $-1 $425 $343 $516 $517 reversed $248 $-1 #
coedge $-1 $343 $424 $427 $518 forward $248 $-1 #
edge $-1 $519 -13.196319541500795 $520 -7.4086327351871795 $423 $521 forward 7 unknown #
coedge $-1 $429 $344 $425 $518 reversed $250 $-1 #
edge $-1 $520 -26.386485249585419 $351 -4.9298542817388409 $350 $522 forward 7 unknown #
coedge $-1 $345 $427 $432 $523 reversed $250 $-1 #
vertex $-1 $523 $524 #
straight-curve $-1 20.588024047400971 -23.847750354200734 58.35587967922504 0 0.77714595512881146 -0.62932039886446345 I I #
coedge $-1 $516 $347 $429 $523 forward $434 $-1 #
coedge $-1 $347 $525 $349 $437 reversed $434 $-1 #
loop $-1 $-1 $516 $526 #
straight-curve $-1 20.588024047400971 43.023810943076533 80.736582649006749 0 0 -1 I I #
coedge $-1 $527 $349 $528 $529 forward $341 $-1 #
edge $-1 $352 -20.588024047400971 $530 66.343577379680781 $433 $531 forward 7 unknown #
point $-1 20.588024047400971 37.236124136762918 8.8911324137407277 #
point $-1 20.588024047400971 43.023810943076533 8.8911324137407384 #
point $-1 26.718490038214284 38.992228012091985 5.1427529042118438 #
face $-1 $532 $533 $19 $-1 $534 forward single #
loop $-1 $-1 $535 $356 #
plane-surface $-1 42.04465501524755 59.654982803151476 161.4731652980135 -1 0 0 0 0.62932039886446345 0.77714595512881146 forward_v I I I I #
coedge $-1 $445 $358 $536 $537 forward $260 $-1 #
coedge $-1 $358 $444 $538 $539 reversed $260 $-1 #
coedge $-1 $540 $541 $358 $447 forward $533 $-1 #
edge $-1 $542 7.4086327351871795 $543 13.196319541500795 $446 $544 forward 7 unknown #
edge $-1 $545 1 $545 0 $359 $-1 forward 7 unknown #
vertex $-1 $360 $546 #
ellipse-curve $-1 26.718490038214284 39.30688821152421 5.5313258817762501 0 0.62932039886446345 0.77714595512881146 0.5 0 0 1 I I #
point $-1 27.218490038214284 40.129967539919733 6.5477441831167082 #
point $-1 35.914189024434251 38.992228012091985 5.1427529042118438 #
coedge $-1 $547 $536 $541 $548 reversed $365 $-1 #
coedge $-1 $372 $462 $549 $550 reversed $306 $-1 #
coedge $-1 $549 $378 $375 $456 forward $370 $-1 #
edge $-1 $380 -66.343577379680781 $457 66.343577379680781 $375 $551 forward 7 unknown #
vertex $-1 $550 $552 #
coedge $-1 $378 $549 $469 $553 forward $370 $-1 #
vertex $-1 $379 $554 #
straight-curve $-1 66.343577379680781 0 -8.8911324137407384 0 -1 0 I I #
point $-1 66.343577379680781 -43.023810943076533 -8.8911324137407384 #
coedge $-1 $454 $381 $555 $556 forward $306 $-1 #
coedge $-1 $383 $390 $381 $464 forward $289 $-1 #
edge $-1 $557 -43.023810943076533 $385 43.023810943076533 $381 $558 forward 7 unknown #
face $-1 $-1 $471 $16 $-1 $559 reversed single #
plane-surface $-1 -66.343577379680781 0 0 1 0 0 0 0 -1 forward_v I I I I #
straight-curve $-1 0 -43.023810943076533 8.8911324137407384 1 0 0 I I #
point $-1 -66.343577379680781 -43.023810943076533 8.8911324137407384 #
coedge $-1 $555 $388 $458 $553 reversed $471 $-1 #
coedge $-1 $388 $555 $390 $473 reversed $471 $-1 #
loop $-1 $-1 $388 $465 #
straight-curve $-1 66.343577379680781 43.023810943076533 0 0 0 -1 I I #
edge $-1 $391 -66.343577379680781 $557 66.343577379680781 $470 $560 forward 7 unknown #
point $-1 66.343577379680781 43.023810943076533 8.8911324137407384 #
face $-1 $561 $562 $17 $-1 $563 reversed single #
loop $-1 $-1 $400 $394 #
plane-surface $-1 66.343577379680781 0 0 -1 0 0 0 0 1 forward_v I I I I #
coedge $-1 $486 $564 $488 $565 reversed $395 $-1 #
coedge $-1 $566 $397 $564 $567 reversed $320 $-1 #
coedge $-1 $397 $566 $568 $569 reversed $320 $-1 #
coedge $-1 $570 $488 $397 $482 forward $476 $-1 #
edge $-1 $571 14.466931894909578 $572 23.860229997081163 $481 $573 forward 7 unknown #
coedge $-1 $399 $398 $507 $574 reversed $227 $-1 #
coedge $-1 $503 $502 $398 $485 forward $504 $-1 #
edge $-1 $575 -66.343577379680781 $490 66.343577379680781 $484 $576 forward 7 unknown #
coedge $-1 $577 $478 $399 $487 forward $395 $-1 #
edge $-1 $491 -66.343577379680781 $578 66.343577379680781 $486 $579 forward 7 unknown #
coedge $-1 $481 $400 $478 $565 forward $476 $-1 #
coedge $-1 $400 $493 $503 $580 forward $476 $-1 #
vertex $-1 $485 $581 #
vertex $-1 $401 $582 #
straight-curve $-1 66.343577379680781 -19.163580945995371 3.8760925528558516 0 1 0 I I #
coedge $-1 $489 $583 $402 $494 reversed $476 $-1 #
edge $-1 $505 -43.023810943076533 $496 43.023810943076533 $493 $584 forward 7 unknown #
coedge $-1 $409 $403 $583 $585 forward $241 $-1 #
vertex $-1 $494 $586 #
coedge $-1 $587 $588 $409 $498 forward $589 $-1 #
edge $-1 $500 -66.343577379680781 $590 66.343577379680781 $409 $591 forward 7 unknown #
coedge $-1 $592 $410 $588 $593 reversed $416 $-1 #
vertex $-1 $498 $594 #
straight-curve $-1 -66.343577379680781 43.023810943076533 0 0 0 -1 I I #
coedge $-1 $484 $413 $415 $508 forward $504 $-1 #
coedge $-1 $413 $484 $489 $580 reversed $504 $-1 #
loop $-1 $-1 $484 $595 #
vertex $-1 $494 $596 #
straight-curve $-1 0 -43.023810943076533 8.8911324137407384 1 0 0 I I #
coedge $-1 $415 $597 $483 $574 forward $416 $-1 #
edge $-1 $417 -8.8911324137407384 $575 -3.8760925528558516 $415 $598 forward 7 unknown #
face $-1 $334 $416 $17 $-1 $599 reversed single #
point $-1 -66.343577379680781 -43.023810943076533 8.8911324137407384 #
face $-1 $600 $601 $18 $-1 $602 forward single #
loop $-1 $-1 $603 $420 #
plane-surface $-1 0 -38.327161891990741 0.24903585024430797 0 0 1 1 0 0 forward_v I I I I #
coedge $-1 $604 $605 $606 $607 reversed $421 $-1 #
coedge $-1 $423 $608 $609 $610 forward $341 $-1 #
coedge $-1 $609 $432 $424 $517 forward $434 $-1 #
edge $-1 $611 -76.532226696514101 $519 -71.845450235266014 $516 $612 forward 7 unknown #
edge $-1 $611 -86.047621886153095 $520 -78.600260463092852 $425 $613 forward 7 unknown #
vertex $-1 $517 $614 #
vertex $-1 $428 $615 #
straight-curve $-1 42.04465501524755 29.827491401575738 8.8911324137407348 0 -1 0 I I #
straight-curve $-1 15.65816976566213 37.236124136762903 8.8911324137407348 -1 0 0 I I #
edge $-1 $430 4.9298542817388409 $611 26.386485249585419 $432 $616 forward 7 unknown #
point $-1 20.588024047400971 43.023810943076533 4.2043559524926408 #
coedge $-1 $433 $617 $618 $619 reversed $434 $-1 #
face $-1 $-1 $434 $18 $-1 $620 reversed single #
coedge $-1 $608 $436 $621 $622 forward $341 $-1 #
coedge $-1 $618 $623 $436 $529 reversed $624 $-1 #
edge $-1 $530 -43.023810943076533 $625 43.023810943076533 $528 $626 forward 7 unknown #
vertex $-1 $437 $627 #
straight-curve $-1 0 43.023810943076533 8.8911324137407384 -1 0 0 I I #
face $-1 $628 $629 $19 $-1 $630 reversed single #
loop $-1 $-1 $631 $441 #
plane-surface $-1 0 0 8.8911324137407384 0 0 1 1 0 0 forward_v I I I I #
coedge $-1 $632 $633 $631 $634 reversed $442 $-1 #
coedge $-1 $453 $635 $444 $537 reversed $365 $-1 #
edge $-1 $542 78.600260463092852 $636 86.047621886153095 $444 $637 forward 7 unknown #
coedge $-1 $638 $639 $445 $539 forward $640 $-1 #
edge $-1 $543 71.845450235266014 $636 76.532226696514101 $538 $641 forward 7 unknown #
coedge $-1 $642 $446 $639 $643 forward $533 $-1 #
coedge $-1 $446 $631 $453 $548 forward $533 $-1 #
vertex $-1 $548 $644 #
vertex $-1 $643 $645 #
straight-curve $-1 20.588024047400971 29.827491401575738 8.8911324137407348 0 1 0 I I #
vertex $-1 $448 $646 #
point $-1 27.218490038214284 39.30688821152421 5.5313258817762501 #
coedge $-1 $635 $453 $633 $647 reversed $365 $-1 #
edge $-1 $648 -26.386485249585419 $542 -4.9298542817388409 $541 $649 forward 7 unknown #
coedge $-1 $458 $455 $454 $550 forward $370 $-1 #
edge $-1 $457 -43.023810943076533 $650 43.023810943076533 $454 $651 forward 7 unknown #
straight-curve $-1 0 -43.023810943076533 -8.8911324137407384 -1 0 0 I I #
point $-1 -66.343577379680781 -43.023810943076533 -8.8911324137407384 #
edge $-1 $650 -66.343577379680781 $459 66.343577379680781 $469 $652 forward 7 unknown #
point $-1 66.343577379680781 43.023810943076533 -8.8911324137407384 #
coedge $-1 $470 $469 $462 $556 reversed $471 $-1 #
edge $-1 $557 -8.8911324137407384 $650 8.8911324137407384 $555 $653 forward 7 unknown #
vertex $-1 $473 $654 #
straight-curve $-1 -66.343577379680781 0 8.8911324137407384 0 -1 0 I I #
plane-surface $-1 0 43.023810943076533 0 0 -1 0 0 0 -1 forward_v I I I I #
straight-curve $-1 0 43.023810943076533 8.8911324137407384 -1 0 0 I I #
face $-1 $595 $589 $17 $-1 $655 reversed single #
loop $-1 $-1 $568 $475 #
plane-surface $-1 0 -43.023810943076533 0 0 1 0 0 0 1 forward_v I I I I #
coedge $-1 $478 $577 $479 $567 forward $395 $-1 #
edge $-1 $491 -2.8448104520808117 $571 0.78224625053073193 $488 $656 forward 7 unknown #
coedge $-1 $480 $479 $657 $658 reversed $320 $-1 #
edge $-1 $659 -66.343577379680781 $571 66.343577379680781 $564 $660 forward 7 unknown #
coedge $-1 $661 $662 $480 $569 forward $562 $-1 #
edge $-1 $572 -66.343577379680781 $663 66.343577379680781 $568 $664 forward 7 unknown #
coedge $-1 $665 $481 $662 $666 forward $476 $-1 #
vertex $-1 $482 $667 #
vertex $-1 $666 $668 #
straight-curve $-1 66.343577379680781 -19.163580945995371 0.24903585024430797 0 -1 0 I I #
edge $-1 $578 14.466931894909578 $575 23.860229997081163 $507 $669 forward 7 unknown #
vertex $-1 $574 $670 #
straight-curve $-1 0 -43.023810943076533 3.8760925528558516 1 0 0 I I #
coedge $-1 $564 $486 $597 $671 reversed $395 $-1 #
vertex $-1 $574 $672 #
straight-curve $-1 0 -33.630512840904949 3.8760925528558516 -1 0 0 I I #
edge $-1 $505 -8.8911324137407384 $490 -3.8760925528558516 $489 $673 forward 7 unknown #
point $-1 66.343577379680781 -43.023810943076533 3.8760925528558516 #
point $-1 66.343577379680781 -33.630512840904949 3.8760925528558516 #
coedge $-1 $493 $665 $495 $585 reversed $476 $-1 #
straight-curve $-1 66.343577379680781 0 8.8911324137407384 0 1 0 I I #
edge $-1 $496 -8.8911324137407384 $590 8.8911324137407384 $583 $674 forward 7 unknown #
point $-1 66.343577379680781 43.023810943076533 8.8911324137407384 #
coedge $-1 $675 $497 $665 $676 forward $589 $-1 #
coedge $-1 $497 $675 $499 $593 forward $589 $-1 #
loop $-1 $-1 $587 $561 #
vertex $-1 $676 $677 #
straight-curve $-1 0 43.023810943076533 -8.8911324137407384 1 0 0 I I #
coedge $-1 $657 $499 $661 $678 reversed $416 $-1 #
edge $-1 $679 -43.023810943076533 $500 43.023810943076533 $499 $680 forward 7 unknown #
point $-1 -66.343577379680781 43.023810943076533 -8.8911324137407384 #
face $-1 $509 $504 $17 $-1 $563 reversed single #
point $-1 66.343577379680781 -43.023810943076533 8.8911324137407384 #
coedge $-1 $507 $657 $577 $671 forward $416 $-1 #
straight-curve $-1 -66.343577379680781 -43.023810943076533 0 0 0 -1 I I #
plane-surface $-1 -66.343577379680781 0 0 1 0 0 0 0 -1 forward_v I I I I #
face $-1 $681 $682 $18 $-1 $683 reversed single #
loop $-1 $-1 $684 $511 #
plane-surface $-1 0 -33.630512840904949 2.0625642015500798 0 -1 0 0 0 -1 forward_v I I I I #
coedge $-1 $685 $686 $687 $688 reversed $512 $-1 #
coedge $-1 $689 $514 $690 $691 reversed $421 $-1 #
coedge $-1 $514 $689 $692 $693 reversed $421 $-1 #
coedge $-1 $694 $695 $514 $607 forward $682 $-1 #
edge $-1 $696 -23.860229997081163 $697 -14.466931894909578 $606 $698 forward 7 unknown #
coedge $-1 $515 $527 $699 $700 forward $341 $-1 #
coedge $-1 $701 $516 $515 $610 reversed $434 $-1 #
edge $-1 $702 -66.343577379680781 $519 -42.04465501524755 $609 $531 forward 7 unknown #
vertex $-1 $523 $703 #
straight-curve $-1 42.04465501524755 43.023810943076533 80.736582649006749 0 0 1 I I #
straight-curve $-1 42.04465501524755 -23.847750354200734 58.35587967922504 0 -0.77714595512881146 0.62932039886446345 I I #
point $-1 42.04465501524755 43.023810943076533 8.8911324137407384 #
point $-1 42.04465501524755 37.236124136762918 8.8911324137407277 #
straight-curve $-1 15.65816976566213 43.023810943076533 4.2043559524926408 1 0 0 I I #
coedge $-1 $525 $701 $704 $705 reversed $434 $-1 #
coedge $-1 $706 $528 $525 $619 forward $624 $-1 #
edge $-1 $530 -8.8911324137407384 $707 8.8911324137407384 $525 $708 forward 7 unknown #
plane-surface $-1 0 43.023810943076533 0 0 -1 0 0 0 -1 forward_v I I I I #
coedge $-1 $709 $710 $527 $622 reversed $711 $-1 #
edge $-1 $625 -66.343577379680781 $712 66.343577379680781 $621 $713 forward 7 unknown #
coedge $-1 $528 $714 $709 $715 reversed $624 $-1 #
loop $-1 $-1 $714 $716 #
vertex $-1 $529 $717 #
straight-curve $-1 -66.343577379680781 0 8.8911324137407384 0 -1 0 I I #
point $-1 -66.343577379680781 43.023810943076533 8.8911324137407384 #
face $-1 $718 $719 $19 $-1 $720 forward single #
loop $-1 $-1 $721 $532 #
plane-surface $-1 0 -38.327161891990741 3.8760925528558516 0 0 1 1 0 0 forward_v I I I I #
coedge $-1 $541 $722 $535 $634 forward $533 $-1 #
coedge $-1 $633 $535 $723 $724 reversed $442 $-1 #
coedge $-1 $535 $632 $547 $647 forward $442 $-1 #
edge $-1 $725 -13.196319541500795 $648 -7.4086327351871795 $631 $726 forward 7 unknown #
coedge $-1 $536 $547 $638 $727 reversed $365 $-1 #
vertex $-1 $727 $728 #
straight-curve $-1 20.588024047400971 -23.847750354200734 58.35587967922504 0 0.77714595512881146 -0.62932039886446345 I I #
coedge $-1 $723 $538 $635 $727 forward $640 $-1 #
coedge $-1 $538 $729 $540 $643 reversed $640 $-1 #
loop $-1 $-1 $723 $730 #
straight-curve $-1 20.588024047400971 43.023810943076533 80.736582649006749 0 0 -1 I I #
coedge $-1 $731 $540 $732 $733 forward $533 $-1 #
edge $-1 $543 -20.588024047400971 $734 66.343577379680781 $639 $735 forward 7 unknown #
point $-1 20.588024047400971 37.236124136762918 8.8911324137407277 #
point $-1 20.588024047400971 43.023810943076533 8.8911324137407384 #
point $-1 26.718490038214284 38.992228012091985 5.1427529042118438 #
edge $-1 $736 -86.047621886153095 $648 -78.600260463092852 $633 $737 forward 7 unknown #
vertex $-1 $548 $738 #
straight-curve $-1 15.65816976566213 37.236124136762903 8.8911324137407348 -1 0 0 I I #
vertex $-1 $553 $739 #
straight-curve $-1 -66.343577379680781 0 -8.8911324137407384 0 1 0 I I #
straight-curve $-1 0 43.023810943076533 -8.8911324137407384 1 0 0 I I #
straight-curve $-1 -66.343577379680781 43.023810943076533 0 0 0 -1 I I #
point $-1 -66.343577379680781 43.023810943076533 8.8911324137407384 #
plane-surface $-1 0 0 -8.8911324137407384 0 0 1 1 0 0 forward_v I I I I #
straight-curve $-1 66.343577379680781 -33.630512840904949 1.0312821007750399 0 0 -1 I I #
coedge $-1 $597 $592 $566 $658 forward $416 $-1 #
edge $-1 $663 -23.860229997081163 $659 -14.466931894909578 $657 $740 forward 7 unknown #
vertex $-1 $658 $741 #
straight-curve $-1 0 -33.630512840904949 0.24903585024430797 1 0 0 I I #
coedge $-1 $742 $568 $592 $678 forward $562 $-1 #
coedge $-1 $568 $742 $570 $666 reversed $562 $-1 #
vertex $-1 $678 $743 #
straight-curve $-1 0 -43.023810943076533 0.24903585024430797 -1 0 0 I I #
coedge $-1 $583 $570 $587 $676 reversed $476 $-1 #
edge $-1 $572 -0.24903585024430797 $744 8.8911324137407384 $570 $673 forward 7 unknown #
point $-1 66.343577379680781 -33.630512840904949 0.24903585024430797 #
point $-1 66.343577379680781 -43.023810943076533 0.24903585024430797 #
straight-curve $-1 -66.343577379680781 -19.163580945995371 3.8760925528558516 0 -1 0 I I #
point $-1 -66.343577379680781 -43.023810943076533 3.8760925528558516 #
edge $-1 $659 -0.78224625053073193 $578 2.8448104520808117 $597 $745 forward 7 unknown #
point $-1 -66.343577379680781 -33.630512840904949 3.8760925528558516 #
straight-curve $-1 66.343577379680781 -43.023810943076533 0 0 0 -1 I I #
straight-curve $-1 66.343577379680781 43.023810943076533 0 0 0 -1 I I #
coedge $-1 $588 $587 $742 $746 forward $589 $-1 #
edge $-1 $590 -43.023810943076533 $744 43.023810943076533 $665 $747 forward 7 unknown #
point $-1 66.343577379680781 43.023810943076533 -8.8911324137407384 #
edge $-1 $663 -0.24903585024430797 $679 8.8911324137407384 $592 $598 forward 7 unknown #
vertex $-1 $593 $748 #
straight-curve $-1 -66.343577379680781 0 -8.8911324137407384 0 1 0 I I #
face $-1 $749 $750 $18 $-1 $751 reversed single #
loop $-1 $-1 $606 $600 #
plane-surface $-1 66.343577379680781 0 0 -1 0 0 0 0 1 forward_v I I I I #
coedge $-1 $692 $752 $694 $753 reversed $601 $-1 #
coedge $-1 $754 $603 $752 $755 reversed $512 $-1 #
coedge $-1 $603 $754 $756 $757 reversed $512 $-1 #
coedge $-1 $758 $694 $603 $688 forward $682 $-1 #
edge $-1 $759 14.466931894909578 $760 23.860229997081163 $687 $761 forward 7 unknown #
coedge $-1 $605 $604 $714 $762 reversed $421 $-1 #
coedge $-1 $710 $709 $604 $691 forward $711 $-1 #
edge $-1 $763 -66.343577379680781 $696 66.343577379680781 $690 $764 forward 7 unknown #
coedge $-1 $765 $684 $605 $693 forward $601 $-1 #
edge $-1 $697 -66.343577379680781 $766 66.343577379680781 $692 $767 forward 7 unknown #
coedge $-1 $687 $606 $684 $753 forward $682 $-1 #
coedge $-1 $606 $699 $710 $768 forward $682 $-1 #
vertex $-1 $691 $769 #
vertex $-1 $607 $770 #
straight-curve $-1 66.343577379680781 -19.163580945995371 3.8760925528558516 0 1 0 I I #
coedge $-1 $695 $771 $608 $700 reversed $682 $-1 #
edge $-1 $712 -43.023810943076533 $702 43.023810943076533 $699 $772 forward 7 unknown #
coedge $-1 $617 $609 $771 $773 forward $434 $-1 #
vertex $-1 $700 $774 #
point $-1 42.04465501524755 43.023810943076533 4.2043559524926408 #
coedge $-1 $775 $776 $617 $705 forward $777 $-1 #
edge $-1 $707 -66.343577379680781 $778 66.343577379680781 $617 $779 forward 7 unknown #
coedge $-1 $780 $618 $776 $781 reversed $624 $-1 #
vertex $-1 $705 $782 #
straight-curve $-1 -66.343577379680781 43.023810943076533 0 0 0 -1 I I #
coedge $-1 $690 $621 $623 $715 forward $711 $-1 #
coedge $-1 $621 $690 $695 $768 reversed $711 $-1 #
loop $-1 $-1 $690 $783 #
vertex $-1 $700 $784 #
straight-curve $-1 0 -43.023810943076533 8.8911324137407384 1 0 0 I I #
coedge $-1 $623 $785 $689 $762 forward $624 $-1 #
edge $-1 $625 -8.8911324137407384 $763 -3.8760925528558516 $623 $786 forward 7 unknown #
face $-1 $526 $624 $18 $-1 $787 reversed single #
point $-1 -66.343577379680781 -43.023810943076533 8.8911324137407384 #
face $-1 $788 $789 $19 $-1 $790 forward single #
loop $-1 $-1 $791 $628 #
plane-surface $-1 0 -38.327161891990741 0.24903585024430797 0 0 1 1 0 0 forward_v I I I I #
coedge $-1 $792 $793 $794 $795 reversed $629 $-1 #
coedge $-1 $631 $796 $797 $798 forward $533 $-1 #
coedge $-1 $797 $638 $632 $724 forward $640 $-1 #
edge $-1 $736 -76.532226696514101 $725 -71.845450235266014 $723 $799 forward 7 unknown #
vertex $-1 $724 $800 #
straight-curve $-1 42.04465501524755 29.827491401575738 8.8911324137407348 0 -1 0 I I #
edge $-1 $636 4.9298542817388409 $736 26.386485249585419 $638 $801 forward 7 unknown #
point $-1 20.588024047400971 43.023810943076533 4.2043559524926408 #
coedge $-1 $639 $802 $803 $804 reversed $640 $-1 #
face $-1 $-1 $640 $19 $-1 $805 reversed single #
coedge $-1 $796 $642 $806 $807 forward $533 $-1 #
coedge $-1 $803 $808 $642 $733 reversed $809 $-1 #
edge $-1 $734 -43.023810943076533 $810 43.023810943076533 $732 $811 forward 7 unknown #
vertex $-1 $643 $812 #
straight-curve $-1 0 43.023810943076533 8.8911324137407384 -1 0 0 I I #
vertex $-1 $727 $813 #
straight-curve $-1 42.04465501524755 -23.847750354200734 58.35587967922504 0 -0.77714595512881146 0.62932039886446345 I I #
point $-1 42.04465501524755 37.236124136762918 8.8911324137407277 #
point $-1 -66.343577379680781 43.023810943076533 -8.8911324137407384 #
straight-curve $-1 -66.343577379680781 -19.163580945995371 0.24903585024430797 0 1 0 I I #
point $-1 -66.343577379680781 -33.630512840904949 0.24903585024430797 #
coedge $-1 $662 $661 $675 $746 reversed $562 $-1 #
point $-1 -66.343577379680781 -43.023810943076533 0.24903585024430797 #
vertex $-1 $666 $814 #
straight-curve $-1 -66.343577379680781 -33.630512840904949 1.0312821007750399 0 0 1 I I #
edge $-1 $744 -66.343577379680781 $679 66.343577379680781 $742 $815 forward 7 unknown #
straight-curve $-1 66.343577379680781 0 -8.8911324137407384 0 -1 0 I I #
point $-1 -66.343577379680781 -43.023810943076533 -8.8911324137407384 #
face $-1 $783 $777 $18 $-1 $816 reversed single #
loop $-1 $-1 $756 $681 #
plane-surface $-1 0 -43.023810943076533 0 0 1 0 0 0 1 forward_v I I I I #
coedge $-1 $684 $765 $685 $755 forward $601 $-1 #
edge $-1 $697 -2.8448104520808117 $759 0.78224625053073193 $694 $817 forward 7 unknown #
coedge $-1 $686 $685 $818 $819 reversed $512 $-1 #
edge $-1 $820 -66.343577379680781 $759 66.343577379680781 $752 $821 forward 7 unknown #
coedge $-1 $822 $823 $686 $757 forward $750 $-1 #
edge $-1 $760 -66.343577379680781 $824 66.343577379680781 $756 $825 forward 7 unknown #
coedge $-1 $826 $687 $823 $827 forward $682 $-1 #
vertex $-1 $688 $828 #
vertex $-1 $827 $829 #
straight-curve $-1 66.343577379680781 -19.163580945995371 0.24903585024430797 0 -1 0 I I #
edge $-1 $766 14.466931894909578 $763 23.860229997081163 $714 $830 forward 7 unknown #
vertex $-1 $762 $831 #
straight-curve $-1 0 -43.023810943076533 3.8760925528558516 1 0 0 I I #
coedge $-1 $752 $692 $785 $832 reversed $601 $-1 #
vertex $-1 $762 $833 #
straight-curve $-1 0 -33.630512840904949 3.8760925528558516 -1 0 0 I I #
edge $-1 $712 -8.8911324137407384 $696 -3.8760925528558516 $695 $834 forward 7 unknown #
point $-1 66.343577379680781 -43.023810943076533 3.8760925528558516 #
point $-1 66.343577379680781 -33.630512840904949 3.8760925528558516 #
coedge $-1 $699 $826 $701 $773 reversed $682 $-1 #
straight-curve $-1 66.343577379680781 0 8.8911324137407384 0 1 0 I I #
edge $-1 $702 -8.8911324137407384 $778 8.8911324137407384 $771 $835 forward 7 unknown #
point $-1 66.343577379680781 43.023810943076533 8.8911324137407384 #
coedge $-1 $836 $704 $826 $837 forward $777 $-1 #
coedge $-1 $704 $836 $706 $781 forward $777 $-1 #
loop $-1 $-1 $775 $749 #
vertex $-1 $837 $838 #
straight-curve $-1 0 43.023810943076533 -8.8911324137407384 1 0 0 I I #
coedge $-1 $818 $706 $822 $839 reversed $624 $-1 #
edge $-1 $840 -43.023810943076533 $707 43.023810943076533 $706 $841 forward 7 unknown #
point $-1 -66.343577379680781 43.023810943076533 -8.8911324137407384 #
face $-1 $716 $711 $18 $-1 $751 reversed single #
point $-1 66.343577379680781 -43.023810943076533 8.8911324137407384 #
coedge $-1 $714 $818 $765 $832 forward $624 $-1 #
straight-curve $-1 -66.343577379680781 -43.023810943076533 0 0 0 -1 I I #
plane-surface $-1 -66.343577379680781 0 0 1 0 0 0 0 -1 forward_v I I I I #
face $-1 $842 $843 $19 $-1 $844 reversed single #
loop $-1 $-1 $845 $718 #
plane-surface $-1 0 -33.630512840904949 2.0625642015500798 0 -1 0 0 0 -1 forward_v I I I I #
coedge $-1 $846 $847 $848 $849 reversed $719 $-1 #
coedge $-1 $850 $721 $851 $852 reversed $629 $-1 #
coedge $-1 $721 $850 $853 $854 reversed $629 $-1 #
coedge $-1 $855 $856 $721 $795 forward $843 $-1 #
edge $-1 $857 -23.860229997081163 $858 -14.466931894909578 $794 $859 forward 7 unknown #
coedge $-1 $722 $731 $860 $861 forward $533 $-1 #
coedge $-1 $862 $723 $722 $798 reversed $640 $-1 #
edge $-1 $863 -66.343577379680781 $725 -42.04465501524755 $797 $735 forward 7 unknown #
straight-curve $-1 42.04465501524755 43.023810943076533 80.736582649006749 0 0 1 I I #
point $-1 42.04465501524755 43.023810943076533 8.8911324137407384 #
straight-curve $-1 15.65816976566213 43.023810943076533 4.2043559524926408 1 0 0 I I #
coedge $-1 $729 $862 $864 $865 reversed $640 $-1 #
coedge $-1 $866 $732 $729 $804 forward $809 $-1 #
edge $-1 $734 -8.8911324137407384 $867 8.8911324137407384 $729 $868 forward 7 unknown #
plane-surface $-1 0 43.023810943076533 0 0 -1 0 0 0 -1 forward_v I I I I #
coedge $-1 $869 $870 $731 $807 reversed $871 $-1 #
edge $-1 $810 -66.343577379680781 $872 66.343577379680781 $806 $873 forward 7 unknown #
coedge $-1 $732 $874 $869 $875 reversed $809 $-1 #
loop $-1 $-1 $874 $876 #
vertex $-1 $733 $877 #
straight-curve $-1 -66.343577379680781 0 8.8911324137407384 0 -1 0 I I #
point $-1 -66.343577379680781 43.023810943076533 8.8911324137407384 #
point $-1 42.04465501524755 43.023810943076533 4.2043559524926408 #
point $-1 66.343577379680781 -43.023810943076533 -8.8911324137407384 #
straight-curve $-1 0 -43.023810943076533 -8.8911324137407384 -1 0 0 I I #
plane-surface $-1 0 0 -8.8911324137407384 0 0 1 1 0 0 forward_v I I I I #
straight-curve $-1 66.343577379680781 -33.630512840904949 1.0312821007750399 0 0 -1 I I #
coedge $-1 $785 $780 $754 $819 forward $624 $-1 #
edge $-1 $824 -23.860229997081163 $820 -14.466931894909578 $818 $878 forward 7 unknown #
vertex $-1 $819 $879 #
straight-curve $-1 0 -33.630512840904949 0.24903585024430797 1 0 0 I I #
coedge $-1 $880 $756 $780 $839 forward $750 $-1 #
coedge $-1 $756 $880 $758 $827 reversed $750 $-1 #
vertex $-1 $839 $881 #
straight-curve $-1 0 -43.023810943076533 0.24903585024430797 -1 0 0 I I #
coedge $-1 $771 $758 $775 $837 reversed $682 $-1 #
edge $-1 $760 -0.24903585024430797 $882 8.8911324137407384 $758 $834 forward 7 unknown #
point $-1 66.343577379680781 -33.630512840904949 0.24903585024430797 #
point $-1 66.343577379680781 -43.023810943076533 0.24903585024430797 #
straight-curve $-1 -66.343577379680781 -19.163580945995371 3.8760925528558516 0 -1 0 I I #
point $-1 -66.343577379680781 -43.023810943076533 3.8760925528558516 #
edge $-1 $820 -0.78224625053073193 $766 2.8448104520808117 $785 $883 forward 7 unknown #
point $-1 -66.343577379680781 -33.630512840904949 3.8760925528558516 #
straight-curve $-1 66.343577379680781 -43.023810943076533 0 0 0 -1 I I #
straight-curve $-1 66.343577379680781 43.023810943076533 0 0 0 -1 I I #
coedge $-1 $776 $775 $880 $884 forward $777 $-1 #
edge $-1 $778 -43.023810943076533 $882 43.023810943076533 $826 $885 forward 7 unknown #
point $-1 66.343577379680781 43.023810943076533 -8.8911324137407384 #
edge $-1 $824 -0.24903585024430797 $840 8.8911324137407384 $780 $786 forward 7 unknown #
vertex $-1 $781 $886 #
straight-curve $-1 -66.343577379680781 0 -8.8911324137407384 0 1 0 I I #
face $-1 $887 $888 $19 $-1 $889 reversed single #
loop $-1 $-1 $794 $788 #
plane-surface $-1 66.343577379680781 0 0 -1 0 0 0 0 1 forward_v I I I I #
coedge $-1 $853 $890 $855 $891 reversed $789 $-1 #
coedge $-1 $892 $791 $890 $893 reversed $719 $-1 #
coedge $-1 $791 $892 $894 $895 reversed $719 $-1 #
coedge $-1 $896 $855 $791 $849 forward $843 $-1 #
edge $-1 $897 14.466931894909578 $898 23.860229997081163 $848 $899 forward 7 unknown #
coedge $-1 $793 $792 $874 $900 reversed $629 $-1 #
coedge $-1 $870 $869 $792 $852 forward $871 $-1 #
edge $-1 $901 -66.343577379680781 $857 66.343577379680781 $851 $902 forward 7 unknown #
coedge $-1 $903 $845 $793 $854 forward $789 $-1 #
edge $-1 $858 -66.343577379680781 $904 66.343577379680781 $853 $905 forward 7 unknown #
coedge $-1 $848 $794 $845 $891 forward $843 $-1 #
coedge $-1 $794 $860 $870 $906 forward $843 $-1 #
vertex $-1 $852 $907 #
vertex $-1 $795 $908 #
straight-curve $-1 66.343577379680781 -19.163580945995371 3.8760925528558516 0 1 0 I I #
coedge $-1 $856 $909 $796 $861 reversed $843 $-1 #
edge $-1 $872 -43.023810943076533 $863 43.023810943076533 $860 $910 forward 7 unknown #
coedge $-1 $802 $797 $909 $911 forward $640 $-1 #
vertex $-1 $861 $912 #
coedge $-1 $913 $914 $802 $865 forward $915 $-1 #
edge $-1 $867 -66.343577379680781 $916 66.343577379680781 $802 $917 forward 7 unknown #
coedge $-1 $918 $803 $914 $919 reversed $809 $-1 #
vertex $-1 $865 $920 #
straight-curve $-1 -66.343577379680781 43.023810943076533 0 0 0 -1 I I #
coedge $-1 $851 $806 $808 $875 forward $871 $-1 #
coedge $-1 $806 $851 $856 $906 reversed $871 $-1 #
loop $-1 $-1 $851 $921 #
vertex $-1 $861 $922 #
straight-curve $-1 0 -43.023810943076533 8.8911324137407384 1 0 0 I I #
coedge $-1 $808 $923 $850 $900 forward $809 $-1 #
edge $-1 $810 -8.8911324137407384 $901 -3.8760925528558516 $808 $924 forward 7 unknown #
face $-1 $730 $809 $19 $-1 $925 reversed single #
point $-1 -66.343577379680781 -43.023810943076533 8.8911324137407384 #
straight-curve $-1 -66.343577379680781 -19.163580945995371 0.24903585024430797 0 1 0 I I #
point $-1 -66.343577379680781 -33.630512840904949 0.24903585024430797 #
coedge $-1 $823 $822 $836 $884 reversed $750 $-1 #
point $-1 -66.343577379680781 -43.023810943076533 0.24903585024430797 #
vertex $-1 $827 $926 #
straight-curve $-1 -66.343577379680781 -33.630512840904949 1.0312821007750399 0 0 1 I I #
edge $-1 $882 -66.343577379680781 $840 66.343577379680781 $880 $927 forward 7 unknown #
straight-curve $-1 66.343577379680781 0 -8.8911324137407384 0 -1 0 I I #
point $-1 -66.343577379680781 -43.023810943076533 -8.8911324137407384 #
face $-1 $921 $915 $19 $-1 $928 reversed single #
loop $-1 $-1 $894 $842 #
plane-surface $-1 0 -43.023810943076533 0 0 1 0 0 0 1 forward_v I I I I #
coedge $-1 $845 $903 $846 $893 forward $789 $-1 #
edge $-1 $858 -2.8448104520808117 $897 0.78224625053073193 $855 $929 forward 7 unknown #
coedge $-1 $847 $846 $930 $931 reversed $719 $-1 #
edge $-1 $932 -66.343577379680781 $897 66.343577379680781 $890 $933 forward 7 unknown #
coedge $-1 $934 $935 $847 $895 forward $888 $-1 #
edge $-1 $898 -66.343577379680781 $936 66.343577379680781 $894 $937 forward 7 unknown #
coedge $-1 $938 $848 $935 $939 forward $843 $-1 #
vertex $-1 $849 $940 #
vertex $-1 $939 $941 #
straight-curve $-1 66.343577379680781 -19.163580945995371 0.24903585024430797 0 -1 0 I I #
edge $-1 $904 14.466931894909578 $901 23.860229997081163 $874 $942 forward 7 unknown #
vertex $-1 $900 $943 #
straight-curve $-1 0 -43.023810943076533 3.8760925528558516 1 0 0 I I #
coedge $-1 $890 $853 $923 $944 reversed $789 $-1 #
vertex $-1 $900 $945 #
straight-curve $-1 0 -33.630512840904949 3.8760925528558516 -1 0 0 I I #
edge $-1 $872 -8.8911324137407384 $857 -3.8760925528558516 $856 $946 forward 7 unknown #
point $-1 66.343577379680781 -43.023810943076533 3.8760925528558516 #
point $-1 66.343577379680781 -33.630512840904949 3.8760925528558516 #
coedge $-1 $860 $938 $862 $911 reversed $843 $-1 #
straight-curve $-1 66.343577379680781 0 8.8911324137407384 0 1 0 I I #
edge $-1 $863 -8.8911324137407384 $916 8.8911324137407384 $909 $947 forward 7 unknown #
point $-1 66.343577379680781 43.023810943076533 8.8911324137407384 #
coedge $-1 $948 $864 $938 $949 forward $915 $-1 #
coedge $-1 $864 $948 $866 $919 forward $915 $-1 #
loop $-1 $-1 $913 $887 #
vertex $-1 $949 $950 #
straight-curve $-1 0 43.023810943076533 -8.8911324137407384 1 0 0 I I #
coedge $-1 $930 $866 $934 $951 reversed $809 $-1 #
edge $-1 $952 -43.023810943076533 $867 43.023810943076533 $866 $953 forward 7 unknown #
point $-1 -66.343577379680781 43.023810943076533 -8.8911324137407384 #
face $-1 $876 $871 $19 $-1 $889 reversed single #
point $-1 66.343577379680781 -43.023810943076533 8.8911324137407384 #
coedge $-1 $874 $930 $903 $944 forward $809 $-1 #
straight-curve $-1 -66.343577379680781 -43.023810943076533 0 0 0 -1 I I #
plane-surface $-1 -66.343577379680781 0 0 1 0 0 0 0 -1 forward_v I I I I #
point $-1 66.343577379680781 -43.023810943076533 -8.8911324137407384 #
straight-curve $-1 0 -43.023810943076533 -8.8911324137407384 -1 0 0 I I #
plane-surface $-1 0 0 -8.8911324137407384 0 0 1 1 0 0 forward_v I I I I #
straight-curve $-1 66.343577379680781 -33.630512840904949 1.0312821007750399 0 0 -1 I I #
coedge $-1 $923 $918 $892 $931 forward $809 $-1 #
edge $-1 $936 -23.860229997081163 $932 -14.466931894909578 $930 $954 forward 7 unknown #
vertex $-1 $931 $955 #
straight-curve $-1 0 -33.630512840904949 0.24903585024430797 1 0 0 I I #
coedge $-1 $956 $894 $918 $951 forward $888 $-1 #
coedge $-1 $894 $956 $896 $939 reversed $888 $-1 #
vertex $-1 $951 $957 #
straight-curve $-1 0 -43.023810943076533 0.24903585024430797 -1 0 0 I I #
coedge $-1 $909 $896 $913 $949 reversed $843 $-1 #
edge $-1 $898 -0.24903585024430797 $958 8.8911324137407384 $896 $946 forward 7 unknown #
point $-1 66.343577379680781 -33.630512840904949 0.24903585024430797 #
point $-1 66.343577379680781 -43.023810943076533 0.24903585024430797 #
straight-curve $-1 -66.343577379680781 -19.163580945995371 3.8760925528558516 0 -1 0 I I #
point $-1 -66.343577379680781 -43.023810943076533 3.8760925528558516 #
edge $-1 $932 -0.78224625053073193 $904 2.8448104520808117 $923 $959 forward 7 unknown #
point $-1 -66.343577379680781 -33.630512840904949 3.8760925528558516 #
straight-curve $-1 66.343577379680781 -43.023810943076533 0 0 0 -1 I I #
straight-curve $-1 66.343577379680781 43.023810943076533 0 0 0 -1 I I #
coedge $-1 $914 $913 $956 $960 forward $915 $-1 #
edge $-1 $916 -43.023810943076533 $958 43.023810943076533 $938 $961 forward 7 unknown #
point $-1 66.343577379680781 43.023810943076533 -8.8911324137407384 #
edge $-1 $936 -0.24903585024430797 $952 8.8911324137407384 $918 $924 forward 7 unknown #
vertex $-1 $919 $962 #
straight-curve $-1 -66.343577379680781 0 -8.8911324137407384 0 1 0 I I #
straight-curve $-1 -66.343577379680781 -19.163580945995371 0.24903585024430797 0 1 0 I I #
point $-1 -66.343577379680781 -33.630512840904949 0.24903585024430797 #
coedge $-1 $935 $934 $948 $960 reversed $888 $-1 #
point $-1 -66.343577379680781 -43.023810943076533 0.24903585024430797 #
vertex $-1 $939 $963 #
straight-curve $-1 -66.343577379680781 -33.630512840904949 1.0312821007750399 0 0 1 I I #
edge $-1 $958 -66.343577379680781 $952 66.343577379680781 $956 $964 forward 7 unknown #
straight-curve $-1 66.343577379680781 0 -8.8911324137407384 0 -1 0 I I #
point $-1 -66.343577379680781 -43.023810943076533 -8.8911324137407384 #
point $-1 66.343577379680781 -43.023810943076533 -8.8911324137407384 #
straight-curve $-1 0 -43.023810943076533 -8.8911324137407384 -1 0 0 I I #
End-of-ACIS-data 