500 0 18 0           
7 Unknown 11 ACIS 5.0 NT 24 Thu Mar 25 23:06:49 1999 
-1 9.9999999999999995e-007 1e-010 
body $-1 $18 $-1 $19 #
body $-1 $20 $-1 $21 #
body $-1 $22 $-1 $23 #
body $-1 $24 $-1 $25 #
body $-1 $26 $-1 $27 #
body $-1 $28 $-1 $29 #
body $-1 $30 $-1 $31 #
body $-1 $32 $-1 $33 #
body $-1 $34 $-1 $35 #
body $-1 $36 $-1 $37 #
body $-1 $38 $-1 $39 #
body $-1 $40 $-1 $41 #
body $-1 $42 $-1 $43 #
body $-1 $44 $-1 $45 #
body $-1 $46 $-1 $47 #
body $-1 $48 $-1 $49 #
body $-1 $50 $-1 $51 #
body $-1 $52 $-1 $53 #
lump $-1 $-1 $54 $0 #
transform $-1 1 0 0 0 1 0 0 0 1 79.459212012085331 36.565496388641961 7.8822207462243608 1 rotate no_reflect no_shear #
lump $-1 $-1 $55 $1 #
transform $-1 1 0 0 0 1 0 0 0 1 79.459212012085331 36.565496388641961 7.8822207462243608 1 rotate no_reflect no_shear #
lump $-1 $-1 $56 $2 #
transform $-1 1 0 0 0 1 0 0 0 1 79.459212012085331 36.565496388641961 7.8822207462243608 1 rotate no_reflect no_shear #
lump $-1 $-1 $57 $3 #
transform $-1 1 0 0 0 1 0 0 0 1 79.459212012085331 36.565496388641961 7.8822207462243608 1 rotate no_reflect no_shear #
lump $-1 $-1 $58 $4 #
transform $-1 1 0 0 0 1 0 0 0 1 79.459212012085331 36.565496388641961 7.8822207462243608 1 rotate no_reflect no_shear #
lump $-1 $-1 $59 $5 #
transform $-1 1 0 0 0 1 0 0 0 1 79.459212012085331 36.565496388641961 7.8822207462243608 1 rotate no_reflect no_shear #
lump $-1 $-1 $60 $6 #
transform $-1 1 0 0 0 1 0 0 0 1 79.459212012085331 36.565496388641961 7.8822207462243608 1 rotate no_reflect no_shear #
lump $-1 $-1 $61 $7 #
transform $-1 1 0 0 0 1 0 0 0 1 79.459212012085331 36.565496388641961 7.8822207462243608 1 rotate no_reflect no_shear #
lump $-1 $-1 $62 $8 #
transform $-1 1 0 0 0 1 0 0 0 1 79.459212012085331 36.565496388641961 7.8822207462243608 1 rotate no_reflect no_shear #
lump $-1 $-1 $63 $9 #
transform $-1 1 0 0 0 1 0 0 0 1 79.459212012085331 36.565496388641961 7.8822207462243608 1 rotate no_reflect no_shear #
lump $-1 $-1 $64 $10 #
transform $-1 1 0 0 0 1 0 0 0 1 79.459212012085331 36.565496388641961 7.8822207462243608 1 rotate no_reflect no_shear #
lump $-1 $-1 $65 $11 #
transform $-1 1 0 0 0 1 0 0 0 1 79.459212012085331 36.565496388641961 7.8822207462243608 1 rotate no_reflect no_shear #
lump $-1 $-1 $66 $12 #
transform $-1 1 0 0 0 1 0 0 0 1 79.459212012085331 36.565496388641961 7.8822207462243608 1 rotate no_reflect no_shear #
lump $-1 $-1 $67 $13 #
transform $-1 1 0 0 0 1 0 0 0 1 79.459212012085331 36.565496388641961 7.8822207462243608 1 rotate no_reflect no_shear #
lump $-1 $-1 $68 $14 #
transform $-1 1 0 0 0 1 0 0 0 1 79.459212012085331 36.565496388641961 7.8822207462243608 1 rotate no_reflect no_shear #
lump $-1 $-1 $69 $15 #
transform $-1 1 0 0 0 1 0 0 0 1 79.459212012085331 36.565496388641961 7.8822207462243608 1 rotate no_reflect no_shear #
lump $-1 $-1 $70 $16 #
transform $-1 1 0 0 0 1 0 0 0 1 79.459212012085331 36.565496388641961 7.8822207462243608 1 rotate no_reflect no_shear #
lump $-1 $-1 $71 $17 #
transform $-1 1 0 0 0 1 0 0 0 1 79.459212012085331 36.565496388641961 7.8822207462243608 1 rotate no_reflect no_shear #
shell $-1 $-1 $-1 $72 $-1 $18 #
shell $-1 $-1 $-1 $73 $-1 $20 #
shell $-1 $-1 $-1 $74 $-1 $22 #
shell $-1 $-1 $-1 $75 $-1 $24 #
shell $-1 $-1 $-1 $76 $-1 $26 #
shell $-1 $-1 $-1 $77 $-1 $28 #
shell $-1 $-1 $-1 $78 $-1 $30 #
shell $-1 $-1 $-1 $79 $-1 $32 #
shell $-1 $-1 $-1 $80 $-1 $34 #
shell $-1 $-1 $-1 $81 $-1 $36 #
shell $-1 $-1 $-1 $82 $-1 $38 #
shell $-1 $-1 $-1 $83 $-1 $40 #
shell $-1 $-1 $-1 $84 $-1 $42 #
shell $-1 $-1 $-1 $85 $-1 $44 #
shell $-1 $-1 $-1 $86 $-1 $46 #
shell $-1 $-1 $-1 $87 $-1 $48 #
shell $-1 $-1 $-1 $88 $-1 $50 #
shell $-1 $-1 $-1 $89 $-1 $52 #
face $-1 $90 $91 $54 $-1 $92 forward single #
face $-1 $93 $94 $55 $-1 $95 forward single #
face $-1 $96 $97 $56 $-1 $98 reversed single #
face $-1 $99 $100 $57 $-1 $101 forward single #
face $-1 $102 $103 $58 $-1 $104 forward single #
face $-1 $105 $106 $59 $-1 $107 forward single #
face $-1 $108 $109 $60 $-1 $110 reversed single #
face $-1 $111 $112 $61 $-1 $113 forward single #
face $-1 $114 $115 $62 $-1 $116 forward single #
face $-1 $117 $118 $63 $-1 $119 forward single #
face $-1 $120 $121 $64 $-1 $122 reversed single #
face $-1 $123 $124 $65 $-1 $125 forward single #
face $-1 $126 $127 $66 $-1 $128 forward single #
face $-1 $129 $130 $67 $-1 $131 forward single #
face $-1 $132 $133 $68 $-1 $134 reversed single #
face $-1 $135 $136 $69 $-1 $137 forward single #
face $-1 $138 $139 $70 $-1 $140 forward single #
face $-1 $141 $142 $71 $-1 $143 forward single #
face $-1 $144 $145 $54 $-1 $146 reversed single #
loop $-1 $-1 $147 $72 #
plane-surface $-1 0 0 7.8822207462243608 0 0 1 1 0 0 forward_v I I I I #
face $-1 $148 $149 $55 $-1 $150 reversed single #
loop $-1 $-1 $151 $73 #
plane-surface $-1 -79.459212012085331 0 0 1 0 0 0 0 -1 forward_v I I I I #
face $-1 $152 $153 $56 $-1 $154 reversed single #
loop $-1 $-1 $155 $74 #
plane-surface $-1 4.1572718637142181 -171.33596458588835 86.391688547749595 -1 0 0 0 -0.84804810408105047 0.52991925155115449 forward_v I I I I #
face $-1 $156 $157 $57 $-1 $158 forward single #
loop $-1 $159 $160 $75 #
cone-surface $-1 -19.366477874411046 -33.843064758579942 4.4425118588008417 0 0.84804810408105047 -0.52991925155115449 1 0 0 1 I I 0 1 1 forward I I I I #
face $-1 $161 $162 $58 $-1 $163 forward single #
loop $-1 $164 $165 $76 #
cone-surface $-1 -10.545071722614068 -33.843064758579942 4.4425118588008417 0 0.84804810408105047 -0.52991925155115449 1 0 0 1 I I 0 1 1 forward I I I I #
face $-1 $166 $167 $59 $-1 $168 forward single #
loop $-1 $169 $170 $77 #
cone-surface $-1 -1.72366557081709 -33.843064758579942 4.4425118588008417 0 0.84804810408105047 -0.52991925155115449 1 0 0 1 I I 0 1 1 forward I I I I #
face $-1 $171 $172 $60 $-1 $173 reversed single #
loop $-1 $-1 $174 $78 #
plane-surface $-1 -10.545071722614068 -36.565496388641947 2.1777562311720686 0 -0.84804810408105047 0.52991925155115449 1 0 0 forward_v I I I I #
face $-1 $175 $176 $61 $-1 $177 forward single #
loop $-1 $178 $179 $79 #
cone-surface $-1 10.038209298245533 -33.843064758579942 4.4425118588008417 0 0.84804810408105047 -0.52991925155115449 1 0 0 1 I I 0 1 1 forward I I I I #
face $-1 $180 $181 $62 $-1 $182 forward single #
loop $-1 $183 $184 $80 #
cone-surface $-1 18.859615450042511 -33.843064758579942 4.4425118588008417 0 0.84804810408105047 -0.52991925155115449 1 0 0 1 I I 0 1 1 forward I I I I #
face $-1 $185 $186 $63 $-1 $187 forward single #
loop $-1 $188 $189 $81 #
cone-surface $-1 27.68102160183949 -33.843064758579942 4.4425118588008417 0 0.84804810408105047 -0.52991925155115449 1 0 0 1 I I 0 1 1 forward I I I I #
face $-1 $190 $191 $64 $-1 $192 reversed single #
loop $-1 $-1 $193 $82 #
plane-surface $-1 -25.247415308942355 132.58244362815719 148.41028832209022 1 0 0 0 -0.84804810408105047 -0.52991925155115449 forward_v I I I I #
face $-1 $194 $195 $65 $-1 $196 forward single #
loop $-1 $197 $198 $83 #
cone-surface $-1 -19.366477874411046 33.843064758579942 4.4425118588008168 0 -0.84804810408105047 -0.52991925155115449 1 0 0 1 I I 0 1 1 forward I I I I #
face $-1 $199 $200 $66 $-1 $201 forward single #
loop $-1 $202 $203 $84 #
cone-surface $-1 -10.545071722614068 33.843064758579942 4.4425118588008168 0 -0.84804810408105047 -0.52991925155115449 1 0 0 1 I I 0 1 1 forward I I I I #
face $-1 $204 $205 $67 $-1 $206 forward single #
loop $-1 $207 $208 $85 #
cone-surface $-1 -1.72366557081709 33.843064758579942 4.4425118588008168 0 -0.84804810408105047 -0.52991925155115449 1 0 0 1 I I 0 1 1 forward I I I I #
face $-1 $209 $210 $68 $-1 $211 reversed single #
loop $-1 $-1 $212 $86 #
plane-surface $-1 -10.545071722614068 -2.1880245690892082 64.196356005512698 0 0.84804810408105047 0.52991925155115449 1 0 0 forward_v I I I I #
face $-1 $213 $214 $69 $-1 $215 forward single #
loop $-1 $216 $217 $87 #
cone-surface $-1 10.038209298245533 33.843064758579942 4.4425118588008168 0 -0.84804810408105047 -0.52991925155115449 1 0 0 1 I I 0 1 1 forward I I I I #
face $-1 $218 $219 $70 $-1 $220 forward single #
loop $-1 $221 $222 $88 #
cone-surface $-1 18.859615450042511 33.843064758579942 4.4425118588008168 0 -0.84804810408105047 -0.52991925155115449 1 0 0 1 I I 0 1 1 forward I I I I #
face $-1 $223 $224 $71 $-1 $225 forward single #
loop $-1 $226 $227 $89 #
cone-surface $-1 27.68102160183949 33.843064758579942 4.4425118588008168 0 -0.84804810408105047 -0.52991925155115449 1 0 0 1 I I 0 1 1 forward I I I I #
face $-1 $228 $229 $54 $-1 $230 reversed single #
loop $-1 $-1 $231 $90 #
plane-surface $-1 0 0 -7.8822207462243608 0 0 1 1 0 0 forward_v I I I I #
coedge $-1 $232 $233 $234 $235 forward $91 $-1 #
face $-1 $236 $237 $55 $-1 $238 reversed single #
loop $-1 $-1 $239 $93 #
plane-surface $-1 0 36.565496388641961 0 0 -1 0 0 0 -1 forward_v I I I I #
coedge $-1 $240 $241 $242 $243 forward $94 $-1 #
face $-1 $244 $245 $56 $-1 $246 reversed single #
loop $-1 $-1 $247 $96 #
plane-surface $-1 -10.545071722614068 -36.565496388641947 2.1777562311720686 0 -0.84804810408105047 0.52991925155115449 1 0 0 forward_v I I I I #
coedge $-1 $248 $249 $250 $251 reversed $97 $-1 #
face $-1 $-1 $252 $57 $-1 $253 forward single #
loop $-1 $254 $255 $99 #
cone-surface $-1 -19.366477874411046 -32.478881539424691 3.5900756031278913 0 0.84804810408105047 -0.52991925155115449 0.5 0 0 1 I I -0.70710678118654746 0.70710678118654746 0.5 forward I I I I #
loop $-1 $-1 $256 $75 #
coedge $-1 $160 $160 $257 $258 reversed $100 $-1 #
face $-1 $-1 $259 $58 $-1 $260 forward single #
loop $-1 $261 $262 $102 #
cone-surface $-1 -10.545071722614068 -32.478881539424691 3.5900756031278913 0 0.84804810408105047 -0.52991925155115449 0.5 0 0 1 I I -0.70710678118654746 0.70710678118654746 0.5 forward I I I I #
loop $-1 $-1 $263 $76 #
coedge $-1 $165 $165 $264 $265 reversed $103 $-1 #
face $-1 $-1 $266 $59 $-1 $267 forward single #
loop $-1 $268 $269 $105 #
cone-surface $-1 -1.72366557081709 -32.478881539424691 3.5900756031278913 0 0.84804810408105047 -0.52991925155115449 0.5 0 0 1 I I -0.70710678118654746 0.70710678118654746 0.5 forward I I I I #
loop $-1 $-1 $270 $77 #
coedge $-1 $170 $170 $271 $272 reversed $106 $-1 #
face $-1 $273 $274 $60 $-1 $275 reversed single #
loop $-1 $-1 $276 $108 #
plane-surface $-1 33.561959036370794 -171.33596458588835 86.391688547749595 -1 0 0 0 -0.84804810408105047 0.52991925155115449 forward_v I I I I #
coedge $-1 $277 $278 $279 $280 reversed $109 $-1 #
face $-1 $-1 $281 $61 $-1 $282 forward single #
loop $-1 $283 $284 $111 #
cone-surface $-1 10.038209298245533 -32.478881539424691 3.5900756031278913 0 0.84804810408105047 -0.52991925155115449 0.5 0 0 1 I I -0.70710678118654746 0.70710678118654746 0.5 forward I I I I #
loop $-1 $-1 $285 $79 #
coedge $-1 $179 $179 $286 $287 reversed $112 $-1 #
face $-1 $-1 $288 $62 $-1 $289 forward single #
loop $-1 $290 $291 $114 #
cone-surface $-1 18.859615450042511 -32.478881539424691 3.5900756031278913 0 0.84804810408105047 -0.52991925155115449 0.5 0 0 1 I I -0.70710678118654746 0.70710678118654746 0.5 forward I I I I #
loop $-1 $-1 $292 $80 #
coedge $-1 $184 $184 $293 $294 reversed $115 $-1 #
face $-1 $-1 $295 $63 $-1 $296 forward single #
loop $-1 $297 $298 $117 #
cone-surface $-1 27.68102160183949 -32.478881539424691 3.5900756031278913 0 0.84804810408105047 -0.52991925155115449 0.5 0 0 1 I I -0.70710678118654746 0.70710678118654746 0.5 forward I I I I #
loop $-1 $-1 $299 $81 #
coedge $-1 $189 $189 $300 $301 reversed $118 $-1 #
face $-1 $302 $303 $64 $-1 $304 reversed single #
loop $-1 $-1 $305 $120 #
plane-surface $-1 -10.545071722614068 -2.1880245690892082 64.196356005512698 0 0.84804810408105047 0.52991925155115449 1 0 0 forward_v I I I I #
coedge $-1 $306 $307 $308 $309 reversed $121 $-1 #
face $-1 $-1 $310 $65 $-1 $311 forward single #
loop $-1 $312 $313 $123 #
cone-surface $-1 -19.366477874411046 32.478881539424691 3.5900756031278664 0 -0.84804810408105047 -0.52991925155115449 0.5 0 0 1 I I -0.70710678118654746 0.70710678118654746 0.5 forward I I I I #
loop $-1 $-1 $314 $83 #
coedge $-1 $198 $198 $315 $316 reversed $124 $-1 #
face $-1 $-1 $317 $66 $-1 $318 forward single #
loop $-1 $319 $320 $126 #
cone-surface $-1 -10.545071722614068 32.478881539424691 3.5900756031278664 0 -0.84804810408105047 -0.52991925155115449 0.5 0 0 1 I I -0.70710678118654746 0.70710678118654746 0.5 forward I I I I #
loop $-1 $-1 $321 $84 #
coedge $-1 $203 $203 $322 $323 reversed $127 $-1 #
face $-1 $-1 $324 $67 $-1 $325 forward single #
loop $-1 $326 $327 $129 #
cone-surface $-1 -1.72366557081709 32.478881539424691 3.5900756031278664 0 -0.84804810408105047 -0.52991925155115449 0.5 0 0 1 I I -0.70710678118654746 0.70710678118654746 0.5 forward I I I I #
loop $-1 $-1 $328 $85 #
coedge $-1 $208 $208 $329 $330 reversed $130 $-1 #
face $-1 $331 $332 $68 $-1 $333 forward single #
loop $-1 $-1 $334 $132 #
plane-surface $-1 33.561959036370794 132.58244362815719 148.41028832209022 -1 0 0 0 0.84804810408105047 0.52991925155115449 forward_v I I I I #
coedge $-1 $335 $336 $337 $338 reversed $133 $-1 #
face $-1 $-1 $339 $69 $-1 $340 forward single #
loop $-1 $341 $342 $135 #
cone-surface $-1 10.038209298245533 32.478881539424691 3.5900756031278664 0 -0.84804810408105047 -0.52991925155115449 0.5 0 0 1 I I -0.70710678118654746 0.70710678118654746 0.5 forward I I I I #
loop $-1 $-1 $343 $87 #
coedge $-1 $217 $217 $344 $345 reversed $136 $-1 #
face $-1 $-1 $346 $70 $-1 $347 forward single #
loop $-1 $348 $349 $138 #
cone-surface $-1 18.859615450042511 32.478881539424691 3.5900756031278664 0 -0.84804810408105047 -0.52991925155115449 0.5 0 0 1 I I -0.70710678118654746 0.70710678118654746 0.5 forward I I I I #
loop $-1 $-1 $350 $88 #
coedge $-1 $222 $222 $351 $352 reversed $139 $-1 #
face $-1 $-1 $353 $71 $-1 $354 forward single #
loop $-1 $355 $356 $141 #
cone-surface $-1 27.68102160183949 32.478881539424691 3.5900756031278664 0 -0.84804810408105047 -0.52991925155115449 0.5 0 0 1 I I -0.70710678118654746 0.70710678118654746 0.5 forward I I I I #
loop $-1 $-1 $357 $89 #
coedge $-1 $227 $227 $358 $359 reversed $142 $-1 #
face $-1 $360 $361 $54 $-1 $362 reversed single #
loop $-1 $-1 $363 $144 #
plane-surface $-1 0 -36.565496388641961 0 0 1 0 0 0 1 forward_v I I I I #
coedge $-1 $364 $365 $366 $367 forward $145 $-1 #
coedge $-1 $368 $147 $369 $370 forward $91 $-1 #
coedge $-1 $147 $368 $371 $372 forward $91 $-1 #
coedge $-1 $373 $374 $147 $235 reversed $375 $-1 #
edge $-1 $376 -36.565496388641961 $377 36.565496388641961 $234 $378 forward 7 unknown #
face $-1 $379 $380 $55 $-1 $381 reversed single #
loop $-1 $-1 $242 $148 #
plane-surface $-1 -83.61648387579956 0 4.8822207462243608 0 0 1 1 0 0 forward_v I I I I #
coedge $-1 $382 $383 $240 $384 forward $149 $-1 #
coedge $-1 $385 $151 $239 $384 reversed $94 $-1 #
coedge $-1 $151 $385 $386 $387 reversed $94 $-1 #
coedge $-1 $388 $389 $151 $243 reversed $237 $-1 #
edge $-1 $390 -36.565496388641961 $391 36.565496388641961 $242 $392 forward 7 unknown #
face $-1 $393 $394 $56 $-1 $395 reversed single #
loop $-1 $-1 $396 $152 #
plane-surface $-1 -25.247415308942355 -171.33596458588835 86.391688547749595 1 0 0 0 0.84804810408105047 -0.52991925155115449 forward_v I I I I #
coedge $-1 $397 $398 $399 $400 reversed $153 $-1 #
coedge $-1 $249 $155 $401 $402 reversed $97 $-1 #
coedge $-1 $155 $248 $397 $403 reversed $97 $-1 #
coedge $-1 $399 $404 $155 $251 forward $405 $-1 #
edge $-1 $406 49.102485904302213 $407 52.667030830196808 $250 $408 forward 7 unknown #
loop $-1 $-1 $257 $156 #
plane-surface $-1 -10.545071722614068 -36.565496388641947 2.1777562311720686 0 -0.84804810408105047 0.52991925155115449 1 0 0 forward_v I I I I #
loop $-1 $-1 $409 $99 #
coedge $-1 $255 $255 $256 $410 reversed $157 $-1 #
coedge $-1 $256 $256 $255 $410 forward $159 $-1 #
coedge $-1 $257 $257 $160 $258 forward $252 $-1 #
edge $-1 $411 -1.5048612952828829e-015 $411 6.2831853071795987 $257 $412 forward 7 unknown #
loop $-1 $-1 $264 $161 #
plane-surface $-1 -10.545071722614068 -36.565496388641947 2.1777562311720686 0 -0.84804810408105047 0.52991925155115449 1 0 0 forward_v I I I I #
loop $-1 $-1 $413 $102 #
coedge $-1 $262 $262 $263 $414 reversed $162 $-1 #
coedge $-1 $263 $263 $262 $414 forward $164 $-1 #
coedge $-1 $264 $264 $165 $265 forward $259 $-1 #
edge $-1 $415 -1.5048612952828829e-015 $415 6.2831853071795987 $264 $416 forward 7 unknown #
loop $-1 $-1 $271 $166 #
plane-surface $-1 -10.545071722614068 -36.565496388641947 2.1777562311720686 0 -0.84804810408105047 0.52991925155115449 1 0 0 forward_v I I I I #
loop $-1 $-1 $417 $105 #
coedge $-1 $269 $269 $270 $418 reversed $167 $-1 #
coedge $-1 $270 $270 $269 $418 forward $169 $-1 #
coedge $-1 $271 $271 $170 $272 forward $266 $-1 #
edge $-1 $419 -1.5048612952828829e-015 $419 6.2831853071795987 $271 $420 forward 7 unknown #
face $-1 $421 $422 $60 $-1 $423 forward single #
loop $-1 $-1 $424 $171 #
plane-surface $-1 0 -36.565496388641961 0 0 1 0 0 0 1 forward_v I I I I #
coedge $-1 $425 $426 $427 $428 reversed $172 $-1 #
coedge $-1 $429 $174 $430 $431 reversed $109 $-1 #
coedge $-1 $174 $429 $424 $432 reversed $109 $-1 #
coedge $-1 $433 $434 $174 $280 forward $422 $-1 #
edge $-1 $435 -6.7265812960382467 $436 2.6737665129848107e-014 $279 $437 forward 7 unknown #
loop $-1 $-1 $286 $175 #
plane-surface $-1 -10.545071722614068 -36.565496388641947 2.1777562311720686 0 -0.84804810408105047 0.52991925155115449 1 0 0 forward_v I I I I #
loop $-1 $-1 $438 $111 #
coedge $-1 $284 $284 $285 $439 reversed $176 $-1 #
coedge $-1 $285 $285 $284 $439 forward $178 $-1 #
coedge $-1 $286 $286 $179 $287 forward $281 $-1 #
edge $-1 $440 -1.5048612952828829e-015 $440 6.2831853071795987 $286 $441 forward 7 unknown #
loop $-1 $-1 $293 $180 #
plane-surface $-1 -10.545071722614068 -36.565496388641947 2.1777562311720686 0 -0.84804810408105047 0.52991925155115449 1 0 0 forward_v I I I I #
loop $-1 $-1 $442 $114 #
coedge $-1 $291 $291 $292 $443 reversed $181 $-1 #
coedge $-1 $292 $292 $291 $443 forward $183 $-1 #
coedge $-1 $293 $293 $184 $294 forward $288 $-1 #
edge $-1 $444 -1.5048612952828829e-015 $444 6.2831853071795987 $293 $445 forward 7 unknown #
loop $-1 $-1 $300 $185 #
plane-surface $-1 -10.545071722614068 -36.565496388641947 2.1777562311720686 0 -0.84804810408105047 0.52991925155115449 1 0 0 forward_v I I I I #
loop $-1 $-1 $446 $117 #
coedge $-1 $298 $298 $299 $447 reversed $186 $-1 #
coedge $-1 $299 $299 $298 $447 forward $188 $-1 #
coedge $-1 $300 $300 $189 $301 forward $295 $-1 #
edge $-1 $448 -1.5048612952828829e-015 $448 6.2831853071795987 $300 $449 forward 7 unknown #
face $-1 $450 $451 $64 $-1 $452 forward single #
loop $-1 $-1 $453 $190 #
plane-surface $-1 4.1572718637142181 132.58244362815719 148.41028832209022 -1 0 0 0 0.84804810408105047 0.52991925155115449 forward_v I I I I #
coedge $-1 $454 $455 $456 $457 reversed $191 $-1 #
coedge $-1 $307 $193 $458 $459 reversed $121 $-1 #
coedge $-1 $193 $306 $454 $460 reversed $121 $-1 #
coedge $-1 $456 $461 $193 $309 forward $451 $-1 #
edge $-1 $462 29.725725425436636 $463 33.290270351331209 $308 $464 forward 7 unknown #
loop $-1 $-1 $315 $194 #
plane-surface $-1 -10.545071722614068 -2.1880245690892082 64.196356005512698 0 0.84804810408105047 0.52991925155115449 1 0 0 forward_v I I I I #
loop $-1 $-1 $465 $123 #
coedge $-1 $313 $313 $314 $466 reversed $195 $-1 #
coedge $-1 $314 $314 $313 $466 forward $197 $-1 #
coedge $-1 $315 $315 $198 $316 forward $310 $-1 #
edge $-1 $467 2.362131812860923e-018 $467 6.2831853071796004 $315 $468 forward 7 unknown #
loop $-1 $-1 $322 $199 #
plane-surface $-1 -10.545071722614068 -2.1880245690892082 64.196356005512698 0 0.84804810408105047 0.52991925155115449 1 0 0 forward_v I I I I #
loop $-1 $-1 $469 $126 #
coedge $-1 $320 $320 $321 $470 reversed $200 $-1 #
coedge $-1 $321 $321 $320 $470 forward $202 $-1 #
coedge $-1 $322 $322 $203 $323 forward $317 $-1 #
edge $-1 $471 2.362131812860923e-018 $471 6.2831853071796004 $322 $472 forward 7 unknown #
loop $-1 $-1 $329 $204 #
plane-surface $-1 -10.545071722614068 -2.1880245690892082 64.196356005512698 0 0.84804810408105047 0.52991925155115449 1 0 0 forward_v I I I I #
loop $-1 $-1 $473 $129 #
coedge $-1 $327 $327 $328 $474 reversed $205 $-1 #
coedge $-1 $328 $328 $327 $474 forward $207 $-1 #
coedge $-1 $329 $329 $208 $330 forward $324 $-1 #
edge $-1 $475 2.362131812860923e-018 $475 6.2831853071796004 $329 $476 forward 7 unknown #
face $-1 $477 $478 $68 $-1 $479 forward single #
loop $-1 $-1 $480 $209 #
plane-surface $-1 0 0 7.8822207462243608 0 0 1 1 0 0 forward_v I I I I #
coedge $-1 $481 $482 $483 $484 reversed $210 $-1 #
coedge $-1 $485 $212 $486 $487 reversed $133 $-1 #
coedge $-1 $212 $485 $480 $488 reversed $133 $-1 #
coedge $-1 $489 $490 $212 $338 forward $478 $-1 #
edge $-1 $491 -73.130992777283893 $492 -66.404411481245674 $337 $493 forward 7 unknown #
loop $-1 $-1 $344 $213 #
plane-surface $-1 -10.545071722614068 -2.1880245690892082 64.196356005512698 0 0.84804810408105047 0.52991925155115449 1 0 0 forward_v I I I I #
loop $-1 $-1 $494 $135 #
coedge $-1 $342 $342 $343 $495 reversed $214 $-1 #
coedge $-1 $343 $343 $342 $495 forward $216 $-1 #
coedge $-1 $344 $344 $217 $345 forward $339 $-1 #
edge $-1 $496 2.362131812860923e-018 $496 6.2831853071796004 $344 $497 forward 7 unknown #
loop $-1 $-1 $351 $218 #
plane-surface $-1 -10.545071722614068 -2.1880245690892082 64.196356005512698 0 0.84804810408105047 0.52991925155115449 1 0 0 forward_v I I I I #
loop $-1 $-1 $498 $138 #
coedge $-1 $349 $349 $350 $499 reversed $219 $-1 #
coedge $-1 $350 $350 $349 $499 forward $221 $-1 #
coedge $-1 $351 $351 $222 $352 forward $346 $-1 #
edge $-1 $500 2.362131812860923e-018 $500 6.2831853071796004 $351 $501 forward 7 unknown #
loop $-1 $-1 $358 $223 #
plane-surface $-1 -10.545071722614068 -2.1880245690892082 64.196356005512698 0 0.84804810408105047 0.52991925155115449 1 0 0 forward_v I I I I #
loop $-1 $-1 $502 $141 #
coedge $-1 $356 $356 $357 $503 reversed $224 $-1 #
coedge $-1 $357 $357 $356 $503 forward $226 $-1 #
coedge $-1 $358 $358 $227 $359 forward $353 $-1 #
edge $-1 $504 2.362131812860923e-018 $504 6.2831853071796004 $358 $505 forward 7 unknown #
face $-1 $506 $507 $54 $-1 $508 reversed single #
loop $-1 $-1 $509 $228 #
plane-surface $-1 -79.459212012085331 0 0 1 0 0 0 0 -1 forward_v I I I I #
coedge $-1 $510 $371 $511 $512 forward $229 $-1 #
coedge $-1 $513 $231 $510 $514 forward $145 $-1 #
coedge $-1 $231 $513 $515 $516 forward $145 $-1 #
coedge $-1 $374 $373 $231 $367 reversed $375 $-1 #
edge $-1 $517 -36.565496388641961 $518 36.565496388641961 $366 $519 forward 7 unknown #
coedge $-1 $233 $232 $520 $521 forward $91 $-1 #
coedge $-1 $522 $523 $232 $370 reversed $507 $-1 #
edge $-1 $377 -79.459212012085331 $524 79.459212012085331 $369 $525 forward 7 unknown #
coedge $-1 $363 $526 $233 $372 reversed $229 $-1 #
edge $-1 $527 -79.459212012085331 $376 79.459212012085331 $371 $528 forward 7 unknown #
coedge $-1 $366 $234 $526 $529 forward $375 $-1 #
coedge $-1 $234 $366 $522 $530 reversed $375 $-1 #
loop $-1 $-1 $373 $506 #
vertex $-1 $235 $531 #
vertex $-1 $235 $532 #
straight-curve $-1 79.459212012085331 0 7.8822207462243608 0 1 0 I I #
face $-1 $533 $534 $55 $-1 $535 forward single #
loop $-1 $-1 $536 $236 #
plane-surface $-1 -87.773755739513788 0 6.3822207462243608 1 0 0 0 0 -1 forward_v I I I I #
coedge $-1 $537 $239 $389 $538 reversed $149 $-1 #
coedge $-1 $239 $537 $539 $540 reversed $149 $-1 #
edge $-1 $541 -7.8822207462243608 $391 -4.8822207462243608 $239 $542 forward 7 unknown #
coedge $-1 $241 $240 $543 $544 reversed $94 $-1 #
coedge $-1 $545 $546 $241 $387 forward $547 $-1 #
edge $-1 $390 4.8822207462243608 $548 7.8822207462243608 $386 $549 forward 7 unknown #
coedge $-1 $550 $242 $546 $551 forward $237 $-1 #
coedge $-1 $242 $550 $382 $538 forward $237 $-1 #
vertex $-1 $387 $552 #
vertex $-1 $384 $553 #
straight-curve $-1 -79.459212012085331 0 4.8822207462243608 0 1 0 I I #
face $-1 $-1 $405 $56 $-1 $554 forward single #
loop $-1 $-1 $555 $244 #
plane-surface $-1 0 -36.565496388641961 0 0 1 0 0 0 1 forward_v I I I I #
coedge $-1 $556 $557 $558 $559 reversed $245 $-1 #
coedge $-1 $560 $247 $249 $403 forward $153 $-1 #
coedge $-1 $247 $560 $556 $561 forward $153 $-1 #
coedge $-1 $558 $250 $247 $400 forward $405 $-1 #
edge $-1 $407 -9.4298077250212522 $562 19.97487944763532 $399 $563 forward 7 unknown #
coedge $-1 $564 $565 $248 $402 forward $394 $-1 #
edge $-1 $566 -41.01808804270275 $406 -35.313623527650435 $401 $567 forward 7 unknown #
edge $-1 $407 -6.7265812960382467 $566 2.6737665129848107e-014 $249 $568 forward 7 unknown #
coedge $-1 $250 $558 $564 $569 forward $405 $-1 #
loop $-1 $-1 $558 $393 #
vertex $-1 $402 $570 #
vertex $-1 $251 $571 #
straight-curve $-1 4.1572718637142181 -85.667982292944174 7.8822207462243625 0 1 0 I I #
coedge $-1 $409 $409 $-1 $572 reversed $254 $-1 #
edge $-1 $573 0 $573 6.2831853071796004 $255 $574 forward 7 unknown #
vertex $-1 $258 $575 #
ellipse-curve $-1 -19.366477874411046 -34.783223925694656 5.0299884886982085 0 -0.84804810408105047 0.52991925155115449 1 0 0 1 I I #
coedge $-1 $413 $413 $-1 $576 reversed $261 $-1 #
edge $-1 $577 0 $577 6.2831853071796004 $262 $578 forward 7 unknown #
vertex $-1 $265 $579 #
ellipse-curve $-1 -10.545071722614068 -34.783223925694656 5.0299884886982085 0 -0.84804810408105047 0.52991925155115449 1 0 0 1 I I #
coedge $-1 $417 $417 $-1 $580 reversed $268 $-1 #
edge $-1 $581 0 $581 6.2831853071796004 $269 $582 forward 7 unknown #
vertex $-1 $272 $583 #
ellipse-curve $-1 -1.72366557081709 -34.783223925694656 5.0299884886982085 0 -0.84804810408105047 0.52991925155115449 1 0 0 1 I I #
face $-1 $-1 $584 $60 $-1 $585 forward single #
loop $-1 $-1 $434 $273 #
plane-surface $-1 4.1572718637142181 -171.33596458588835 86.391688547749595 -1 0 0 0 -0.84804810408105047 0.52991925155115449 forward_v I I I I #
coedge $-1 $427 $586 $278 $432 forward $274 $-1 #
coedge $-1 $426 $276 $429 $587 reversed $172 $-1 #
coedge $-1 $276 $425 $588 $589 reversed $172 $-1 #
coedge $-1 $590 $424 $276 $428 forward $274 $-1 #
edge $-1 $591 -41.01808804270275 $592 -35.313623527650435 $427 $593 forward 7 unknown #
coedge $-1 $278 $277 $425 $587 forward $109 $-1 #
coedge $-1 $594 $588 $277 $431 forward $584 $-1 #
edge $-1 $595 -38.834494897677828 $435 -9.4298077250212522 $430 $596 forward 7 unknown #
edge $-1 $436 9.4298077250212522 $591 38.834494897677828 $424 $597 forward 7 unknown #
coedge $-1 $434 $279 $586 $598 reversed $422 $-1 #
coedge $-1 $279 $433 $594 $599 reversed $422 $-1 #
vertex $-1 $431 $600 #
vertex $-1 $432 $601 #
straight-curve $-1 4.1572718637142181 -36.565496388641947 2.1777562311720686 0 -0.52991925155115449 -0.84804810408105047 I I #
coedge $-1 $438 $438 $-1 $602 reversed $283 $-1 #
edge $-1 $603 0 $603 6.2831853071796004 $284 $604 forward 7 unknown #
vertex $-1 $287 $605 #
ellipse-curve $-1 10.038209298245533 -34.783223925694656 5.0299884886982085 0 -0.84804810408105047 0.52991925155115449 1 0 0 1 I I #
coedge $-1 $442 $442 $-1 $606 reversed $290 $-1 #
edge $-1 $607 0 $607 6.2831853071796004 $291 $608 forward 7 unknown #
vertex $-1 $294 $609 #
ellipse-curve $-1 18.859615450042511 -34.783223925694656 5.0299884886982085 0 -0.84804810408105047 0.52991925155115449 1 0 0 1 I I #
coedge $-1 $446 $446 $-1 $610 reversed $297 $-1 #
edge $-1 $611 0 $611 6.2831853071796004 $298 $612 forward 7 unknown #
vertex $-1 $301 $613 #
ellipse-curve $-1 27.68102160183949 -34.783223925694656 5.0299884886982085 0 -0.84804810408105047 0.52991925155115449 1 0 0 1 I I #
face $-1 $-1 $614 $64 $-1 $615 reversed single #
loop $-1 $-1 $308 $302 #
plane-surface $-1 0 0 7.8822207462243608 0 0 1 1 0 0 forward_v I I I I #
coedge $-1 $616 $617 $618 $619 reversed $303 $-1 #
coedge $-1 $620 $305 $307 $460 forward $191 $-1 #
coedge $-1 $305 $620 $616 $621 forward $191 $-1 #
coedge $-1 $618 $308 $305 $457 forward $451 $-1 #
edge $-1 $463 -19.97487944763532 $622 9.4298077250212522 $456 $623 forward 7 unknown #
coedge $-1 $624 $625 $306 $459 forward $614 $-1 #
edge $-1 $626 -72.027387929873015 $462 -66.32292341482075 $458 $627 forward 7 unknown #
edge $-1 $463 66.404411481245674 $626 73.130992777283893 $307 $628 forward 7 unknown #
coedge $-1 $308 $618 $624 $629 forward $451 $-1 #
vertex $-1 $459 $630 #
vertex $-1 $309 $631 #
straight-curve $-1 -25.247415308942355 66.291221814078597 7.8822207462243625 0 -1 0 I I #
coedge $-1 $465 $465 $-1 $632 reversed $312 $-1 #
edge $-1 $633 0 $633 6.2831853071796004 $313 $634 forward 7 unknown #
vertex $-1 $316 $635 #
ellipse-curve $-1 -19.366477874411046 34.783223925694692 5.029988488698204 0 0.84804810408105047 0.52991925155115449 1 0 0 1 I I #
coedge $-1 $469 $469 $-1 $636 reversed $319 $-1 #
edge $-1 $637 0 $637 6.2831853071796004 $320 $638 forward 7 unknown #
vertex $-1 $323 $639 #
ellipse-curve $-1 -10.545071722614068 34.783223925694692 5.029988488698204 0 0.84804810408105047 0.52991925155115449 1 0 0 1 I I #
coedge $-1 $473 $473 $-1 $640 reversed $326 $-1 #
edge $-1 $641 0 $641 6.2831853071796004 $327 $642 forward 7 unknown #
vertex $-1 $330 $643 #
ellipse-curve $-1 -1.72366557081709 34.783223925694692 5.029988488698204 0 0.84804810408105047 0.52991925155115449 1 0 0 1 I I #
face $-1 $-1 $644 $68 $-1 $645 reversed single #
loop $-1 $-1 $489 $331 #
plane-surface $-1 4.1572718637142181 132.58244362815719 148.41028832209022 -1 0 0 0 0.84804810408105047 0.52991925155115449 forward_v I I I I #
coedge $-1 $483 $646 $336 $488 forward $332 $-1 #
coedge $-1 $482 $334 $485 $647 reversed $210 $-1 #
coedge $-1 $334 $481 $648 $649 reversed $210 $-1 #
coedge $-1 $650 $480 $334 $484 forward $332 $-1 #
edge $-1 $651 -33.290270351331209 $652 -29.725725425436636 $483 $653 forward 7 unknown #
coedge $-1 $336 $335 $481 $647 forward $133 $-1 #
coedge $-1 $654 $648 $335 $487 forward $644 $-1 #
edge $-1 $655 -38.834494897677828 $491 -9.4298077250212522 $486 $656 forward 7 unknown #
edge $-1 $492 9.4298077250212522 $651 38.834494897677828 $480 $657 forward 7 unknown #
coedge $-1 $490 $337 $646 $658 reversed $478 $-1 #
coedge $-1 $337 $489 $654 $659 reversed $478 $-1 #
vertex $-1 $487 $660 #
vertex $-1 $488 $661 #
straight-curve $-1 4.1572718637142181 -2.1880245690892082 64.196356005512698 0 -0.52991925155115449 0.84804810408105047 I I #
coedge $-1 $494 $494 $-1 $662 reversed $341 $-1 #
edge $-1 $663 0 $663 6.2831853071796004 $342 $664 forward 7 unknown #
vertex $-1 $345 $665 #
ellipse-curve $-1 10.038209298245533 34.783223925694692 5.029988488698204 0 0.84804810408105047 0.52991925155115449 1 0 0 1 I I #
coedge $-1 $498 $498 $-1 $666 reversed $348 $-1 #
edge $-1 $667 0 $667 6.2831853071796004 $349 $668 forward 7 unknown #
vertex $-1 $352 $669 #
ellipse-curve $-1 18.859615450042511 34.783223925694692 5.029988488698204 0 0.84804810408105047 0.52991925155115449 1 0 0 1 I I #
coedge $-1 $502 $502 $-1 $670 reversed $355 $-1 #
edge $-1 $671 0 $671 6.2831853071796004 $356 $672 forward 7 unknown #
vertex $-1 $359 $673 #
ellipse-curve $-1 27.68102160183949 34.783223925694692 5.029988488698204 0 0.84804810408105047 0.52991925155115449 1 0 0 1 I I #
face $-1 $-1 $375 $54 $-1 $674 reversed single #
loop $-1 $-1 $522 $360 #
plane-surface $-1 0 36.565496388641961 0 0 -1 0 0 0 -1 forward_v I I I I #
coedge $-1 $675 $520 $523 $676 forward $361 $-1 #
coedge $-1 $526 $363 $364 $514 reversed $229 $-1 #
coedge $-1 $520 $675 $363 $512 reversed $361 $-1 #
edge $-1 $527 -7.8822207462243608 $677 7.8822207462243608 $511 $678 forward 7 unknown #
coedge $-1 $365 $364 $675 $679 forward $145 $-1 #
edge $-1 $518 -79.459212012085331 $677 79.459212012085331 $510 $680 forward 7 unknown #
coedge $-1 $523 $522 $365 $516 reversed $507 $-1 #
edge $-1 $681 -79.459212012085331 $517 79.459212012085331 $515 $682 forward 7 unknown #
vertex $-1 $367 $683 #
vertex $-1 $529 $684 #
straight-curve $-1 79.459212012085331 0 -7.8822207462243608 0 -1 0 I I #
coedge $-1 $509 $511 $368 $521 reversed $361 $-1 #
edge $-1 $524 -36.565496388641961 $527 36.565496388641961 $520 $685 forward 7 unknown #
coedge $-1 $515 $369 $374 $530 forward $507 $-1 #
coedge $-1 $369 $515 $509 $676 reversed $507 $-1 #
vertex $-1 $370 $686 #
straight-curve $-1 0 36.565496388641961 7.8822207462243608 -1 0 0 I I #
coedge $-1 $371 $510 $373 $529 reversed $229 $-1 #
vertex $-1 $521 $687 #
straight-curve $-1 0 -36.565496388641961 7.8822207462243608 1 0 0 I I #
edge $-1 $376 -7.8822207462243608 $518 7.8822207462243608 $373 $688 forward 7 unknown #
edge $-1 $377 -7.8822207462243608 $517 7.8822207462243608 $374 $689 forward 7 unknown #
point $-1 79.459212012085331 -36.565496388641961 7.8822207462243608 #
point $-1 79.459212012085331 36.565496388641961 7.8822207462243608 #
face $-1 $-1 $547 $55 $-1 $690 reversed single #
loop $-1 $-1 $543 $379 #
plane-surface $-1 0 0 7.8822207462243608 0 0 1 1 0 0 forward_v I I I I #
coedge $-1 $691 $692 $537 $693 forward $380 $-1 #
coedge $-1 $383 $382 $536 $693 reversed $149 $-1 #
edge $-1 $694 -4.1572718637142287 $391 4.1572718637142287 $382 $695 forward 7 unknown #
coedge $-1 $696 $543 $383 $540 forward $534 $-1 #
edge $-1 $541 79.459212012085331 $697 87.773755739513788 $383 $698 forward 7 unknown #
vertex $-1 $540 $699 #
straight-curve $-1 -79.459212012085331 36.565496388641961 0 0 0 -1 I I #
coedge $-1 $539 $700 $385 $544 forward $534 $-1 #
edge $-1 $548 -36.565496388641961 $541 36.565496388641961 $543 $701 forward 7 unknown #
coedge $-1 $702 $386 $700 $703 reversed $547 $-1 #
coedge $-1 $386 $702 $388 $551 reversed $547 $-1 #
loop $-1 $-1 $386 $533 #
vertex $-1 $387 $704 #
straight-curve $-1 -79.459212012085331 -36.565496388641961 0 0 0 1 I I #
coedge $-1 $389 $388 $691 $705 forward $237 $-1 #
edge $-1 $390 -4.1572718637142287 $706 4.1572718637142287 $546 $707 forward 7 unknown #
point $-1 -79.459212012085331 -36.565496388641961 4.8822207462243608 #
point $-1 -79.459212012085331 36.565496388641961 4.8822207462243608 #
plane-surface $-1 0 0 7.8822207462243608 0 0 1 1 0 0 forward_v I I I I #
coedge $-1 $565 $564 $557 $708 forward $394 $-1 #
coedge $-1 $557 $396 $398 $561 reversed $245 $-1 #
coedge $-1 $396 $556 $555 $708 reversed $245 $-1 #
coedge $-1 $404 $399 $396 $559 forward $405 $-1 #
edge $-1 $562 -52.667030830196808 $709 -49.102485904302213 $558 $710 forward 7 unknown #
coedge $-1 $398 $397 $565 $711 reversed $153 $-1 #
edge $-1 $712 -2.6737665129848107e-014 $562 6.7265812960382467 $556 $713 forward 7 unknown #
vertex $-1 $400 $714 #
straight-curve $-1 -5.2725358613070341 -33.000951462747366 7.8822207462243608 -1 0 0 I I #
coedge $-1 $555 $401 $404 $569 reversed $394 $-1 #
coedge $-1 $401 $555 $560 $711 forward $394 $-1 #
vertex $-1 $402 $715 #
straight-curve $-1 4.1572718637142181 -36.565496388641961 43.195844273874798 0 0 1 I I #
straight-curve $-1 4.1572718637142181 -36.565496388641947 2.1777562311720686 0 -0.52991925155115449 -0.84804810408105047 I I #
edge $-1 $709 -25.247415308942355 $406 4.1572718637142181 $564 $716 forward 7 unknown #
point $-1 4.1572718637142181 -36.565496388641961 7.8822207462243608 #
point $-1 4.1572718637142181 -33.000951462747366 7.8822207462243608 #
edge $-1 $717 1 $717 0 $409 $-1 forward 7 unknown #
vertex $-1 $410 $718 #
ellipse-curve $-1 -19.366477874411046 -32.902905591465213 3.8550352289034686 0 -0.84804810408105047 0.52991925155115449 1 0 0 1 I I #
point $-1 -18.366477874411046 -34.783223925694671 5.0299884886982156 #
edge $-1 $719 1 $719 0 $413 $-1 forward 7 unknown #
vertex $-1 $414 $720 #
ellipse-curve $-1 -10.545071722614068 -32.902905591465213 3.8550352289034686 0 -0.84804810408105047 0.52991925155115449 1 0 0 1 I I #
point $-1 -9.5450717226140682 -34.783223925694671 5.0299884886982156 #
edge $-1 $721 1 $721 0 $417 $-1 forward 7 unknown #
vertex $-1 $418 $722 #
ellipse-curve $-1 -1.72366557081709 -32.902905591465213 3.8550352289034686 0 -0.84804810408105047 0.52991925155115449 1 0 0 1 I I #
point $-1 -0.72366557081709004 -34.783223925694671 5.0299884886982156 #
loop $-1 $-1 $430 $421 #
plane-surface $-1 0 0 7.8822207462243608 0 0 1 1 0 0 forward_v I I I I #
coedge $-1 $424 $590 $433 $598 forward $274 $-1 #
edge $-1 $595 -6.7265812960382467 $591 2.6737665129848107e-014 $425 $723 forward 7 unknown #
coedge $-1 $430 $724 $426 $589 forward $584 $-1 #
edge $-1 $592 49.102485904302213 $595 52.667030830196808 $588 $725 forward 7 unknown #
coedge $-1 $586 $427 $724 $726 reversed $274 $-1 #
vertex $-1 $428 $727 #
vertex $-1 $428 $728 #
straight-curve $-1 33.561959036370794 -36.565496388641961 43.195844273874798 0 0 1 I I #
coedge $-1 $724 $430 $434 $599 forward $584 $-1 #
vertex $-1 $589 $729 #
straight-curve $-1 -5.2725358613070341 -33.000951462747366 7.8822207462243608 -1 0 0 I I #
straight-curve $-1 -5.2725358613070341 -36.565496388641961 2.177756231172042 1 0 0 I I #
edge $-1 $730 35.313623527650435 $436 41.01808804270275 $586 $731 forward 7 unknown #
edge $-1 $435 -52.667030830196808 $730 -49.102485904302213 $594 $732 forward 7 unknown #
point $-1 4.1572718637142181 -33.000951462747366 7.8822207462243608 #
point $-1 4.1572718637142181 -36.565496388641961 2.177756231172046 #
edge $-1 $733 1 $733 0 $438 $-1 forward 7 unknown #
vertex $-1 $439 $734 #
ellipse-curve $-1 10.038209298245533 -32.902905591465213 3.8550352289034686 0 -0.84804810408105047 0.52991925155115449 1 0 0 1 I I #
point $-1 11.038209298245533 -34.783223925694671 5.0299884886982156 #
edge $-1 $735 1 $735 0 $442 $-1 forward 7 unknown #
vertex $-1 $443 $736 #
ellipse-curve $-1 18.859615450042511 -32.902905591465213 3.8550352289034686 0 -0.84804810408105047 0.52991925155115449 1 0 0 1 I I #
point $-1 19.859615450042511 -34.783223925694671 5.0299884886982156 #
edge $-1 $737 1 $737 0 $446 $-1 forward 7 unknown #
vertex $-1 $447 $738 #
ellipse-curve $-1 27.68102160183949 -32.902905591465213 3.8550352289034686 0 -0.84804810408105047 0.52991925155115449 1 0 0 1 I I #
point $-1 28.68102160183949 -34.783223925694671 5.0299884886982156 #
loop $-1 $-1 $458 $450 #
plane-surface $-1 0 36.565496388641961 0 0 -1 0 0 0 -1 forward_v I I I I #
coedge $-1 $617 $453 $455 $621 reversed $303 $-1 #
coedge $-1 $453 $616 $739 $740 reversed $303 $-1 #
coedge $-1 $461 $456 $453 $619 forward $451 $-1 #
edge $-1 $622 -33.290270351331209 $741 -29.725725425436636 $618 $742 forward 7 unknown #
coedge $-1 $455 $454 $625 $743 reversed $191 $-1 #
edge $-1 $744 -73.130992777283893 $622 -66.404411481245674 $616 $745 forward 7 unknown #
vertex $-1 $457 $746 #
straight-curve $-1 -5.2725358613070341 33.000951462747388 7.8822207462243625 1 0 0 I I #
coedge $-1 $739 $458 $461 $629 reversed $614 $-1 #
coedge $-1 $458 $739 $620 $743 forward $614 $-1 #
vertex $-1 $459 $747 #
straight-curve $-1 -25.247415308942355 36.565496388641961 74.205144161045112 0 0 1 I I #
straight-curve $-1 -25.247415308942355 -2.1880245690892082 64.196356005512698 0 0.52991925155115449 -0.84804810408105047 I I #
edge $-1 $741 -4.1572718637142181 $462 25.247415308942355 $624 $748 forward 7 unknown #
point $-1 -25.247415308942355 36.565496388641961 7.8822207462243608 #
point $-1 -25.247415308942355 33.000951462747388 7.8822207462243625 #
edge $-1 $749 1 $749 0 $465 $-1 forward 7 unknown #
vertex $-1 $466 $750 #
ellipse-curve $-1 -19.366477874411046 32.902905591465213 3.8550352289034437 0 0.84804810408105047 0.52991925155115449 1 0 0 1 I I #
point $-1 -18.366477874411046 34.783223925694671 5.0299884886981907 #
edge $-1 $751 1 $751 0 $469 $-1 forward 7 unknown #
vertex $-1 $470 $752 #
ellipse-curve $-1 -10.545071722614068 32.902905591465213 3.8550352289034437 0 0.84804810408105047 0.52991925155115449 1 0 0 1 I I #
point $-1 -9.5450717226140682 34.783223925694671 5.0299884886981907 #
edge $-1 $753 1 $753 0 $473 $-1 forward 7 unknown #
vertex $-1 $474 $754 #
ellipse-curve $-1 -1.72366557081709 32.902905591465213 3.8550352289034437 0 0.84804810408105047 0.52991925155115449 1 0 0 1 I I #
point $-1 -0.72366557081709004 34.783223925694671 5.0299884886981907 #
loop $-1 $-1 $486 $477 #
plane-surface $-1 0 36.565496388641961 0 0 -1 0 0 0 -1 forward_v I I I I #
coedge $-1 $480 $650 $489 $658 forward $332 $-1 #
edge $-1 $655 -73.130992777283893 $651 -66.404411481245674 $481 $755 forward 7 unknown #
coedge $-1 $486 $756 $482 $649 forward $644 $-1 #
edge $-1 $652 66.32292341482075 $655 72.027387929873015 $648 $757 forward 7 unknown #
coedge $-1 $646 $483 $756 $758 forward $332 $-1 #
vertex $-1 $484 $759 #
vertex $-1 $758 $760 #
straight-curve $-1 33.561959036370794 66.291221814078597 7.8822207462243625 0 1 0 I I #
coedge $-1 $756 $486 $490 $659 forward $644 $-1 #
vertex $-1 $649 $761 #
straight-curve $-1 -5.2725358613070341 36.565496388641961 2.177756231172097 -1 0 0 I I #
straight-curve $-1 -5.2725358613070341 33.000951462747388 7.8822207462243625 1 0 0 I I #
edge $-1 $762 29.725725425436636 $492 33.290270351331209 $646 $763 forward 7 unknown #
edge $-1 $491 -72.027387929873015 $762 -66.32292341482075 $654 $764 forward 7 unknown #
point $-1 4.1572718637142181 36.565496388641961 2.177756231172097 #
point $-1 4.1572718637142181 33.000951462747388 7.8822207462243625 #
edge $-1 $765 1 $765 0 $494 $-1 forward 7 unknown #
vertex $-1 $495 $766 #
ellipse-curve $-1 10.038209298245533 32.902905591465213 3.8550352289034437 0 0.84804810408105047 0.52991925155115449 1 0 0 1 I I #
point $-1 11.038209298245533 34.783223925694671 5.0299884886981907 #
edge $-1 $767 1 $767 0 $498 $-1 forward 7 unknown #
vertex $-1 $499 $768 #
ellipse-curve $-1 18.859615450042511 32.902905591465213 3.8550352289034437 0 0.84804810408105047 0.52991925155115449 1 0 0 1 I I #
point $-1 19.859615450042511 34.783223925694671 5.0299884886981907 #
edge $-1 $769 1 $769 0 $502 $-1 forward 7 unknown #
vertex $-1 $503 $770 #
ellipse-curve $-1 27.68102160183949 32.902905591465213 3.8550352289034437 0 0.84804810408105047 0.52991925155115449 1 0 0 1 I I #
point $-1 28.68102160183949 34.783223925694671 5.0299884886981907 #
plane-surface $-1 79.459212012085331 0 0 -1 0 0 0 0 1 forward_v I I I I #
coedge $-1 $511 $509 $513 $679 reversed $361 $-1 #
edge $-1 $524 -7.8822207462243608 $681 7.8822207462243608 $523 $771 forward 7 unknown #
vertex $-1 $679 $772 #
straight-curve $-1 -79.459212012085331 -36.565496388641961 0 0 0 -1 I I #
edge $-1 $677 -36.565496388641961 $681 36.565496388641961 $675 $773 forward 7 unknown #
straight-curve $-1 0 -36.565496388641961 -7.8822207462243608 -1 0 0 I I #
vertex $-1 $516 $774 #
straight-curve $-1 0 36.565496388641961 -7.8822207462243608 1 0 0 I I #
point $-1 79.459212012085331 36.565496388641961 -7.8822207462243608 #
point $-1 79.459212012085331 -36.565496388641961 -7.8822207462243608 #
straight-curve $-1 -79.459212012085331 0 7.8822207462243608 0 -1 0 I I #
point $-1 -79.459212012085331 36.565496388641961 7.8822207462243608 #
point $-1 -79.459212012085331 -36.565496388641961 7.8822207462243608 #
straight-curve $-1 79.459212012085331 -36.565496388641961 0 0 0 -1 I I #
straight-curve $-1 79.459212012085331 36.565496388641961 0 0 0 -1 I I #
plane-surface $-1 0 -36.565496388641961 0 0 1 0 0 0 1 forward_v I I I I #
coedge $-1 $775 $536 $550 $705 reversed $380 $-1 #
coedge $-1 $536 $775 $696 $776 reversed $380 $-1 #
edge $-1 $697 -1.5 $694 1.5 $537 $777 forward 7 unknown #
vertex $-1 $538 $778 #
straight-curve $-1 -83.61648387579956 36.565496388641961 4.8822207462243608 1 0 0 I I #
coedge $-1 $700 $539 $692 $776 forward $534 $-1 #
vertex $-1 $540 $779 #
straight-curve $-1 0 36.565496388641961 7.8822207462243608 -1 0 0 I I #
point $-1 -79.459212012085331 36.565496388641961 7.8822207462243608 #
coedge $-1 $543 $696 $545 $703 forward $534 $-1 #
straight-curve $-1 -79.459212012085331 0 7.8822207462243608 0 1 0 I I #
coedge $-1 $546 $545 $775 $780 forward $547 $-1 #
edge $-1 $781 -87.773755739513788 $548 -79.459212012085331 $545 $782 forward 7 unknown #
point $-1 -79.459212012085331 -36.565496388641961 7.8822207462243608 #
edge $-1 $706 -36.565496388641961 $694 36.565496388641961 $691 $783 forward 7 unknown #
vertex $-1 $705 $784 #
straight-curve $-1 -83.61648387579956 -36.565496388641961 4.8822207462243608 -1 0 0 I I #
edge $-1 $709 35.313623527650435 $712 41.01808804270275 $555 $785 forward 7 unknown #
vertex $-1 $569 $786 #
straight-curve $-1 -25.247415308942355 -85.667982292944174 7.8822207462243625 0 -1 0 I I #
edge $-1 $712 -19.97487944763532 $566 9.4298077250212522 $565 $787 forward 7 unknown #
vertex $-1 $711 $788 #
straight-curve $-1 -25.247415308942355 -36.565496388641947 2.1777562311720686 0 0.52991925155115449 0.84804810408105047 I I #
point $-1 -25.247415308942355 -33.000951462747366 7.8822207462243608 #
point $-1 4.1572718637142181 -36.565496388641961 2.177756231172046 #
straight-curve $-1 0 -36.565496388641961 7.8822207462243608 1 0 0 I I #
vertex $-1 $572 $789 #
point $-1 -18.366477874411046 -32.902905591465213 3.8550352289034686 #
vertex $-1 $576 $790 #
point $-1 -9.5450717226140682 -32.902905591465213 3.8550352289034686 #
vertex $-1 $580 $791 #
point $-1 -0.72366557081709004 -32.902905591465213 3.8550352289034686 #
straight-curve $-1 33.561959036370794 -36.565496388641947 2.1777562311720686 0 -0.52991925155115449 -0.84804810408105047 I I #
coedge $-1 $588 $594 $590 $726 forward $584 $-1 #
straight-curve $-1 33.561959036370794 -85.667982292944174 7.8822207462243625 0 1 0 I I #
edge $-1 $730 4.1572718637142181 $592 33.561959036370794 $590 $792 forward 7 unknown #
point $-1 33.561959036370794 -36.565496388641961 2.177756231172046 #
point $-1 33.561959036370794 -36.565496388641961 7.8822207462243608 #
point $-1 33.561959036370794 -33.000951462747366 7.8822207462243608 #
vertex $-1 $726 $793 #
straight-curve $-1 4.1572718637142181 -36.565496388641961 43.195844273874798 0 0 -1 I I #
straight-curve $-1 4.1572718637142181 -85.667982292944174 7.8822207462243625 0 -1 0 I I #
vertex $-1 $602 $794 #
point $-1 11.038209298245533 -32.902905591465213 3.8550352289034686 #
vertex $-1 $606 $795 #
point $-1 19.859615450042511 -32.902905591465213 3.8550352289034686 #
vertex $-1 $610 $796 #
point $-1 28.68102160183949 -32.902905591465213 3.8550352289034686 #
coedge $-1 $625 $624 $617 $740 forward $614 $-1 #
edge $-1 $741 66.32292341482075 $744 72.027387929873015 $739 $797 forward 7 unknown #
vertex $-1 $629 $798 #
straight-curve $-1 4.1572718637142181 66.291221814078597 7.8822207462243625 0 1 0 I I #
edge $-1 $744 -9.4298077250212522 $626 19.97487944763532 $625 $799 forward 7 unknown #
vertex $-1 $743 $800 #
straight-curve $-1 4.1572718637142181 -2.1880245690892082 64.196356005512698 0 -0.52991925155115449 0.84804810408105047 I I #
point $-1 4.1572718637142181 33.000951462747388 7.8822207462243625 #
point $-1 -25.247415308942355 36.565496388641961 2.177756231172097 #
straight-curve $-1 0 36.565496388641961 7.8822207462243608 -1 0 0 I I #
vertex $-1 $632 $801 #
point $-1 -18.366477874411046 32.902905591465213 3.8550352289034437 #
vertex $-1 $636 $802 #
point $-1 -9.5450717226140682 32.902905591465213 3.8550352289034437 #
vertex $-1 $640 $803 #
point $-1 -0.72366557081709004 32.902905591465213 3.8550352289034437 #
straight-curve $-1 33.561959036370794 -2.1880245690892082 64.196356005512698 0 -0.52991925155115449 0.84804810408105047 I I #
coedge $-1 $648 $654 $650 $758 reversed $644 $-1 #
straight-curve $-1 33.561959036370794 36.565496388641961 74.205144161045112 0 0 -1 I I #
edge $-1 $652 -33.561959036370794 $762 -4.1572718637142181 $756 $804 forward 7 unknown #
point $-1 33.561959036370794 33.000951462747388 7.8822207462243625 #
point $-1 33.561959036370794 36.565496388641961 7.8822207462243608 #
point $-1 33.561959036370794 36.565496388641961 2.177756231172097 #
vertex $-1 $659 $805 #
straight-curve $-1 4.1572718637142181 66.291221814078597 7.8822207462243625 0 -1 0 I I #
straight-curve $-1 4.1572718637142181 36.565496388641961 74.205144161045112 0 0 1 I I #
vertex $-1 $662 $806 #
point $-1 11.038209298245533 32.902905591465213 3.8550352289034437 #
vertex $-1 $666 $807 #
point $-1 19.859615450042511 32.902905591465213 3.8550352289034437 #
vertex $-1 $670 $808 #
point $-1 28.68102160183949 32.902905591465213 3.8550352289034437 #
straight-curve $-1 -79.459212012085331 36.565496388641961 0 0 0 -1 I I #
point $-1 -79.459212012085331 -36.565496388641961 -7.8822207462243608 #
straight-curve $-1 -79.459212012085331 0 -7.8822207462243608 0 1 0 I I #
point $-1 -79.459212012085331 36.565496388641961 -7.8822207462243608 #
coedge $-1 $692 $691 $702 $780 reversed $380 $-1 #
edge $-1 $697 -36.565496388641961 $781 36.565496388641961 $692 $809 forward 7 unknown #
straight-curve $-1 -87.773755739513788 36.565496388641961 6.3822207462243608 0 0 -1 I I #
point $-1 -87.773755739513788 36.565496388641961 4.8822207462243608 #
point $-1 -87.773755739513788 36.565496388641961 7.8822207462243608 #
edge $-1 $781 -1.5 $706 1.5 $775 $810 forward 7 unknown #
vertex $-1 $776 $811 #
straight-curve $-1 0 -36.565496388641961 7.8822207462243608 1 0 0 I I #
straight-curve $-1 -87.773755739513788 0 4.8822207462243608 0 1 0 I I #
point $-1 -87.773755739513788 -36.565496388641961 4.8822207462243608 #
straight-curve $-1 -25.247415308942355 -36.565496388641961 43.195844273874798 0 0 -1 I I #
point $-1 -25.247415308942355 -36.565496388641961 7.8822207462243608 #
straight-curve $-1 -5.2725358613070341 -36.565496388641961 2.177756231172042 1 0 0 I I #
point $-1 -25.247415308942355 -36.565496388641961 2.177756231172046 #
point $-1 -19.366477874411046 -32.054857487384169 3.325115977352314 #
point $-1 -10.545071722614068 -32.054857487384169 3.325115977352314 #
point $-1 -1.72366557081709 -32.054857487384169 3.325115977352314 #
straight-curve $-1 0 -36.565496388641961 7.8822207462243608 1 0 0 I I #
point $-1 4.1572718637142181 -36.565496388641961 7.8822207462243608 #
point $-1 10.038209298245533 -32.054857487384169 3.325115977352314 #
point $-1 18.859615450042511 -32.054857487384169 3.325115977352314 #
point $-1 27.68102160183949 -32.054857487384169 3.325115977352314 #
straight-curve $-1 4.1572718637142181 36.565496388641961 74.205144161045112 0 0 -1 I I #
point $-1 4.1572718637142181 36.565496388641961 7.8822207462243608 #
straight-curve $-1 -5.2725358613070341 36.565496388641961 2.177756231172097 -1 0 0 I I #
point $-1 4.1572718637142181 36.565496388641961 2.177756231172097 #
point $-1 -19.366477874411046 32.054857487384169 3.3251159773522891 #
point $-1 -10.545071722614068 32.054857487384169 3.3251159773522891 #
point $-1 -1.72366557081709 32.054857487384169 3.3251159773522891 #
straight-curve $-1 0 36.565496388641961 7.8822207462243608 -1 0 0 I I #
point $-1 4.1572718637142181 36.565496388641961 7.8822207462243608 #
point $-1 10.038209298245533 32.054857487384169 3.3251159773522891 #
point $-1 18.859615450042511 32.054857487384169 3.3251159773522891 #
point $-1 27.68102160183949 32.054857487384169 3.3251159773522891 #
straight-curve $-1 -87.773755739513788 0 7.8822207462243608 0 -1 0 I I #
straight-curve $-1 -87.773755739513788 -36.565496388641961 6.3822207462243608 0 0 -1 I I #
point $-1 -87.773755739513788 -36.565496388641961 7.8822207462243608 #
End-of-ACIS-data 