500 0 6 0           
7 Unknown 11 ACIS 5.0 NT 24 Thu Mar 25 21:08:09 1999 
-1 9.9999999999999995e-007 1e-010 
body $-1 $6 $-1 $7 #
body $-1 $8 $-1 $9 #
body $-1 $10 $-1 $11 #
body $-1 $12 $-1 $13 #
body $-1 $14 $-1 $15 #
body $-1 $16 $-1 $17 #
lump $-1 $-1 $18 $0 #
transform $-1 1 0 0 0 1 0 0 0 1 65.177770317697679 26.552676112976915 12.58810941722483 1 rotate no_reflect no_shear #
lump $-1 $-1 $19 $1 #
transform $-1 1 0 0 0 1 0 0 0 1 65.177770317697679 26.552676112976915 12.58810941722483 1 rotate no_reflect no_shear #
lump $-1 $-1 $20 $2 #
transform $-1 1 0 0 0 1 0 0 0 1 65.177770317697679 26.552676112976915 12.58810941722483 1 rotate no_reflect no_shear #
lump $-1 $-1 $21 $3 #
transform $-1 1 0 0 0 1 0 0 0 1 65.177770317697679 26.552676112976915 12.58810941722483 1 rotate no_reflect no_shear #
lump $-1 $-1 $22 $4 #
transform $-1 1 0 0 0 1 0 0 0 1 65.177770317697679 26.552676112976915 12.58810941722483 1 rotate no_reflect no_shear #
lump $-1 $-1 $23 $5 #
transform $-1 1 0 0 0 1 0 0 0 1 65.177770317697679 26.552676112976915 12.58810941722483 1 rotate no_reflect no_shear #
shell $-1 $-1 $-1 $24 $-1 $6 #
shell $-1 $-1 $-1 $25 $-1 $8 #
shell $-1 $-1 $-1 $26 $-1 $10 #
shell $-1 $-1 $-1 $27 $-1 $12 #
shell $-1 $-1 $-1 $28 $-1 $14 #
shell $-1 $-1 $-1 $29 $-1 $16 #
face $-1 $30 $31 $18 $-1 $32 forward single #
face $-1 $33 $34 $19 $-1 $35 reversed single #
face $-1 $36 $37 $20 $-1 $38 reversed single #
face $-1 $39 $40 $21 $-1 $41 reversed single #
face $-1 $42 $43 $22 $-1 $44 forward single #
face $-1 $45 $46 $23 $-1 $47 forward single #
face $-1 $48 $49 $18 $-1 $50 reversed single #
loop $-1 $-1 $51 $24 #
plane-surface $-1 0 0 12.58810941722483 0 0 1 1 0 0 forward_v I I I I #
face $-1 $52 $53 $19 $-1 $54 reversed single #
loop $-1 $-1 $55 $25 #
plane-surface $-1 -57.202405656352269 -11.258486558118285 0 0 1 0 0 0 1 forward_v I I I I #
face $-1 $56 $57 $20 $-1 $58 reversed single #
loop $-1 $-1 $59 $26 #
plane-surface $-1 57.202405656352269 -11.258486558118285 0 0 1 0 0 0 1 forward_v I I I I #
face $-1 $60 $61 $21 $-1 $62 reversed single #
loop $-1 $-1 $63 $27 #
plane-surface $-1 -11.364002632926951 76.616146583656985 140.82585516832847 1 0 0 0 -0.68199836817093118 -0.7313536940579346 forward_v I I I I #
face $-1 $64 $65 $22 $-1 $66 forward single #
loop $-1 $67 $68 $28 #
cone-surface $-1 -5.4246248944539204 23.519013881304339 9.5835647199952181 0 -0.68199836817093118 -0.7313536940579346 1 0 0 1 I I 0 1 1 forward I I I I #
face $-1 $69 $70 $23 $-1 $71 forward single #
loop $-1 $72 $73 $29 #
cone-surface $-1 3.4844417132556202 23.519013881304339 9.5835647199952181 0 -0.68199836817093118 -0.7313536940579346 1 0 0 1 I I 0 1 1 forward I I I I #
face $-1 $74 $75 $18 $-1 $76 reversed single #
loop $-1 $-1 $77 $30 #
plane-surface $-1 0 0 -12.58810941722483 0 0 1 1 0 0 forward_v I I I I #
coedge $-1 $78 $79 $80 $81 forward $31 $-1 #
face $-1 $82 $83 $19 $-1 $84 reversed single #
loop $-1 $-1 $85 $33 #
plane-surface $-1 -57.202405656352269 -5.7165221173393936 0 0 -1 0 0 0 -1 forward_v I I I I #
coedge $-1 $86 $87 $88 $89 reversed $34 $-1 #
face $-1 $90 $91 $20 $-1 $92 reversed single #
loop $-1 $-1 $93 $36 #
plane-surface $-1 49.22704099500686 -8.4875043377288399 0 1 0 0 0 0 -1 forward_v I I I I #
coedge $-1 $94 $95 $96 $97 forward $37 $-1 #
face $-1 $98 $99 $21 $-1 $100 reversed single #
loop $-1 $-1 $101 $39 #
plane-surface $-1 -0.97009159059915362 -12.286119411722154 45.489848983712875 0 0.68199836817093118 0.7313536940579346 1 0 0 forward_v I I I I #
coedge $-1 $102 $103 $104 $105 reversed $40 $-1 #
face $-1 $-1 $106 $22 $-1 $107 forward single #
loop $-1 $108 $109 $42 #
cone-surface $-1 -5.4246248944539204 21.922352611785843 7.871355172114141 0 -0.68199836817093118 -0.7313536940579346 0.5 0 0 1 I I -0.70710678118654746 0.70710678118654746 0.5 forward I I I I #
loop $-1 $-1 $110 $28 #
coedge $-1 $68 $68 $111 $112 reversed $43 $-1 #
face $-1 $-1 $113 $23 $-1 $114 forward single #
loop $-1 $115 $116 $45 #
cone-surface $-1 3.4844417132556202 21.922352611785843 7.871355172114141 0 -0.68199836817093118 -0.7313536940579346 0.5 0 0 1 I I -0.70710678118654746 0.70710678118654746 0.5 forward I I I I #
loop $-1 $-1 $117 $29 #
coedge $-1 $73 $73 $118 $119 reversed $46 $-1 #
face $-1 $120 $121 $18 $-1 $122 reversed single #
loop $-1 $-1 $123 $48 #
plane-surface $-1 0 -26.552676112976915 0 0 1 0 0 0 1 forward_v I I I I #
coedge $-1 $124 $125 $126 $127 forward $49 $-1 #
coedge $-1 $128 $51 $129 $130 forward $31 $-1 #
coedge $-1 $51 $128 $131 $132 forward $31 $-1 #
coedge $-1 $133 $134 $51 $81 reversed $135 $-1 #
edge $-1 $136 -26.552676112976915 $137 26.552676112976915 $80 $138 forward 7 unknown #
face $-1 $139 $140 $19 $-1 $141 reversed single #
loop $-1 $-1 $142 $52 #
plane-surface $-1 -49.22704099500686 -8.4875043377288399 0 -1 0 0 0 0 1 forward_v I I I I #
coedge $-1 $143 $144 $145 $146 forward $53 $-1 #
coedge $-1 $147 $55 $148 $149 reversed $34 $-1 #
coedge $-1 $55 $147 $150 $151 reversed $34 $-1 #
coedge $-1 $152 $153 $55 $89 forward $154 $-1 #
edge $-1 $155 -12.58810941722483 $156 12.58810941722483 $88 $157 forward 7 unknown #
face $-1 $158 $159 $20 $-1 $160 reversed single #
loop $-1 $-1 $161 $56 #
plane-surface $-1 57.202405656352269 -5.7165221173393936 0 0 -1 0 0 0 -1 forward_v I I I I #
coedge $-1 $162 $163 $164 $165 forward $57 $-1 #
coedge $-1 $166 $59 $167 $168 reversed $37 $-1 #
coedge $-1 $59 $166 $169 $170 reversed $37 $-1 #
coedge $-1 $163 $162 $59 $97 reversed $57 $-1 #
edge $-1 $171 -12.58810941722483 $172 12.58810941722483 $96 $173 forward 7 unknown #
face $-1 $174 $175 $21 $-1 $176 reversed single #
loop $-1 $-1 $177 $60 #
plane-surface $-1 9.4238194517286438 76.616146583656985 140.82585516832847 -1 0 0 0 0.68199836817093118 0.7313536940579346 forward_v I I I I #
coedge $-1 $178 $179 $180 $181 reversed $61 $-1 #
coedge $-1 $103 $63 $182 $183 reversed $40 $-1 #
coedge $-1 $63 $102 $178 $184 reversed $40 $-1 #
coedge $-1 $180 $185 $63 $105 forward $186 $-1 #
edge $-1 $187 11.755397178851577 $188 15.311397471330665 $104 $189 forward 7 unknown #
loop $-1 $-1 $111 $64 #
plane-surface $-1 -0.97009159059915362 -12.286119411722154 45.489848983712875 0 0.68199836817093118 0.7313536940579346 1 0 0 forward_v I I I I #
loop $-1 $-1 $190 $42 #
coedge $-1 $109 $109 $110 $191 reversed $65 $-1 #
coedge $-1 $110 $110 $109 $191 forward $67 $-1 #
coedge $-1 $111 $111 $68 $112 forward $106 $-1 #
edge $-1 $192 -1.9128538313618978e-015 $192 6.2831853071795987 $111 $193 forward 7 unknown #
loop $-1 $-1 $118 $69 #
plane-surface $-1 -0.97009159059915362 -12.286119411722154 45.489848983712875 0 0.68199836817093118 0.7313536940579346 1 0 0 forward_v I I I I #
loop $-1 $-1 $194 $45 #
coedge $-1 $116 $116 $117 $195 reversed $70 $-1 #
coedge $-1 $117 $117 $116 $195 forward $72 $-1 #
coedge $-1 $118 $118 $73 $119 forward $113 $-1 #
edge $-1 $196 -1.9128538313618978e-015 $196 6.2831853071795987 $118 $197 forward 7 unknown #
face $-1 $198 $199 $18 $-1 $200 reversed single #
loop $-1 $-1 $201 $74 #
plane-surface $-1 -65.177770317697679 0 0 1 0 0 0 0 -1 forward_v I I I I #
coedge $-1 $202 $131 $203 $204 forward $75 $-1 #
coedge $-1 $205 $77 $202 $206 forward $49 $-1 #
coedge $-1 $77 $205 $207 $208 forward $49 $-1 #
coedge $-1 $134 $133 $77 $127 reversed $135 $-1 #
edge $-1 $209 -26.552676112976915 $210 26.552676112976915 $126 $211 forward 7 unknown #
coedge $-1 $79 $78 $212 $213 forward $31 $-1 #
coedge $-1 $214 $215 $78 $130 reversed $199 $-1 #
edge $-1 $137 -65.177770317697679 $216 65.177770317697679 $129 $217 forward 7 unknown #
coedge $-1 $123 $218 $79 $132 reversed $75 $-1 #
edge $-1 $219 -65.177770317697679 $136 65.177770317697679 $131 $220 forward 7 unknown #
coedge $-1 $126 $80 $218 $221 forward $135 $-1 #
coedge $-1 $80 $126 $214 $222 reversed $135 $-1 #
loop $-1 $-1 $133 $198 #
vertex $-1 $81 $223 #
vertex $-1 $81 $224 #
straight-curve $-1 65.177770317697679 0 12.58810941722483 0 1 0 I I #
face $-1 $225 $226 $19 $-1 $227 forward single #
loop $-1 $-1 $228 $82 #
plane-surface $-1 0 0 -12.58810941722483 0 0 1 1 0 0 forward_v I I I I #
coedge $-1 $229 $230 $147 $231 forward $83 $-1 #
coedge $-1 $232 $85 $228 $233 reversed $53 $-1 #
coedge $-1 $85 $232 $234 $235 reversed $53 $-1 #
coedge $-1 $230 $229 $85 $146 reversed $83 $-1 #
edge $-1 $236 -12.58810941722483 $237 12.58810941722483 $145 $238 forward 7 unknown #
coedge $-1 $87 $86 $142 $231 reversed $34 $-1 #
coedge $-1 $239 $240 $86 $149 forward $140 $-1 #
edge $-1 $241 20.625838166830725 $155 36.576567489521544 $148 $242 forward 7 unknown #
coedge $-1 $243 $244 $87 $151 forward $226 $-1 #
edge $-1 $156 -36.576567489521544 $245 -20.625838166830725 $150 $246 forward 7 unknown #
coedge $-1 $247 $88 $244 $248 reversed $154 $-1 #
coedge $-1 $88 $247 $239 $249 reversed $154 $-1 #
loop $-1 $-1 $247 $225 #
vertex $-1 $249 $250 #
vertex $-1 $89 $251 #
straight-curve $-1 -65.177770317697679 -11.258486558118285 0 0 0 1 I I #
face $-1 $252 $253 $20 $-1 $254 forward single #
loop $-1 $-1 $167 $90 #
plane-surface $-1 0 0 -12.58810941722483 0 0 1 1 0 0 forward_v I I I I #
coedge $-1 $255 $256 $257 $258 reversed $91 $-1 #
coedge $-1 $96 $93 $259 $260 reversed $57 $-1 #
coedge $-1 $93 $96 $261 $262 reversed $57 $-1 #
coedge $-1 $256 $255 $93 $165 reversed $91 $-1 #
edge $-1 $263 -12.58810941722483 $264 12.58810941722483 $164 $265 forward 7 unknown #
coedge $-1 $95 $94 $266 $267 reversed $37 $-1 #
coedge $-1 $259 $268 $94 $168 forward $159 $-1 #
edge $-1 $269 -36.576567489521544 $172 -20.625838166830725 $167 $270 forward 7 unknown #
coedge $-1 $271 $261 $95 $170 forward $253 $-1 #
edge $-1 $171 20.625838166830725 $272 36.576567489521544 $169 $273 forward 7 unknown #
vertex $-1 $170 $274 #
vertex $-1 $168 $275 #
straight-curve $-1 49.22704099500686 -11.258486558118285 0 0 0 -1 I I #
face $-1 $-1 $186 $21 $-1 $276 forward single #
loop $-1 $-1 $277 $98 #
plane-surface $-1 0 26.552676112976915 0 0 -1 0 0 0 -1 forward_v I I I I #
coedge $-1 $278 $279 $280 $281 reversed $99 $-1 #
coedge $-1 $282 $101 $103 $184 forward $61 $-1 #
coedge $-1 $101 $282 $278 $283 forward $61 $-1 #
coedge $-1 $280 $104 $101 $181 forward $186 $-1 #
edge $-1 $188 -10.878956837627374 $284 9.9088652470282206 $180 $285 forward 7 unknown #
coedge $-1 $286 $287 $102 $183 forward $175 $-1 #
edge $-1 $288 -61.14084215969438 $187 -57.824818166939409 $182 $289 forward 7 unknown #
edge $-1 $188 48.243135324103577 $288 53.105352225953794 $103 $290 forward 7 unknown #
coedge $-1 $104 $280 $286 $291 forward $186 $-1 #
loop $-1 $-1 $280 $174 #
vertex $-1 $183 $292 #
vertex $-1 $105 $293 #
straight-curve $-1 -11.364002632926951 38.308073291828492 12.588109417224828 0 -1 0 I I #
coedge $-1 $190 $190 $-1 $294 reversed $108 $-1 #
edge $-1 $295 0 $295 6.2831853071796004 $109 $296 forward 7 unknown #
vertex $-1 $112 $297 #
ellipse-curve $-1 -5.4246248944539204 24.77467596673738 10.930097420847341 0 0.68199836817093118 0.7313536940579346 1 0 0 1 I I #
coedge $-1 $194 $194 $-1 $298 reversed $115 $-1 #
edge $-1 $299 0 $299 6.2831853071796004 $116 $300 forward 7 unknown #
vertex $-1 $119 $301 #
ellipse-curve $-1 3.4844417132556202 24.77467596673738 10.930097420847341 0 0.68199836817093118 0.7313536940579346 1 0 0 1 I I #
face $-1 $-1 $135 $18 $-1 $302 reversed single #
loop $-1 $-1 $214 $120 #
plane-surface $-1 0 26.552676112976915 0 0 -1 0 0 0 -1 forward_v I I I I #
coedge $-1 $303 $212 $215 $304 forward $121 $-1 #
coedge $-1 $218 $123 $124 $206 reversed $75 $-1 #
coedge $-1 $212 $303 $123 $204 reversed $121 $-1 #
edge $-1 $219 -12.58810941722483 $305 12.58810941722483 $203 $306 forward 7 unknown #
coedge $-1 $125 $124 $303 $307 forward $49 $-1 #
edge $-1 $210 -65.177770317697679 $305 65.177770317697679 $202 $308 forward 7 unknown #
coedge $-1 $215 $214 $125 $208 reversed $199 $-1 #
edge $-1 $309 -65.177770317697679 $209 65.177770317697679 $207 $310 forward 7 unknown #
vertex $-1 $127 $311 #
vertex $-1 $221 $312 #
straight-curve $-1 65.177770317697679 0 -12.58810941722483 0 -1 0 I I #
coedge $-1 $201 $203 $128 $213 reversed $121 $-1 #
edge $-1 $216 -26.552676112976915 $219 26.552676112976915 $212 $313 forward 7 unknown #
coedge $-1 $207 $129 $134 $222 forward $199 $-1 #
coedge $-1 $129 $207 $201 $304 reversed $199 $-1 #
vertex $-1 $130 $314 #
straight-curve $-1 0 26.552676112976915 12.58810941722483 -1 0 0 I I #
coedge $-1 $131 $202 $133 $221 reversed $75 $-1 #
vertex $-1 $213 $315 #
straight-curve $-1 0 -26.552676112976915 12.58810941722483 1 0 0 I I #
edge $-1 $136 -12.58810941722483 $210 12.58810941722483 $133 $316 forward 7 unknown #
edge $-1 $137 -12.58810941722483 $209 12.58810941722483 $134 $317 forward 7 unknown #
point $-1 65.177770317697679 -26.552676112976915 12.58810941722483 #
point $-1 65.177770317697679 26.552676112976915 12.58810941722483 #
face $-1 $-1 $154 $19 $-1 $318 reversed single #
loop $-1 $-1 $234 $139 #
plane-surface $-1 0 0 12.58810941722483 0 0 1 1 0 0 forward_v I I I I #
coedge $-1 $240 $239 $143 $233 forward $140 $-1 #
coedge $-1 $145 $142 $240 $319 reversed $83 $-1 #
coedge $-1 $142 $145 $243 $320 reversed $83 $-1 #
edge $-1 $245 -12.58810941722483 $241 12.58810941722483 $142 $321 forward 7 unknown #
coedge $-1 $144 $143 $247 $322 reversed $53 $-1 #
edge $-1 $323 -36.576567489521544 $237 -20.625838166830725 $228 $324 forward 7 unknown #
coedge $-1 $244 $243 $144 $235 forward $226 $-1 #
edge $-1 $236 20.625838166830725 $325 36.576567489521544 $234 $326 forward 7 unknown #
vertex $-1 $235 $327 #
vertex $-1 $233 $328 #
straight-curve $-1 -49.22704099500686 -5.7165221173393936 0 0 0 -1 I I #
coedge $-1 $228 $148 $153 $249 forward $140 $-1 #
coedge $-1 $148 $228 $229 $319 forward $140 $-1 #
vertex $-1 $149 $329 #
straight-curve $-1 -28.601202828176135 -11.258486558118285 -12.58810941722483 -1 0 0 I I #
coedge $-1 $234 $150 $230 $320 forward $226 $-1 #
coedge $-1 $150 $234 $152 $248 forward $226 $-1 #
vertex $-1 $151 $330 #
straight-curve $-1 -28.601202828176135 -11.258486558118285 12.58810941722483 1 0 0 I I #
coedge $-1 $153 $152 $232 $322 forward $154 $-1 #
edge $-1 $325 5.7165221173393936 $156 11.258486558118285 $152 $331 forward 7 unknown #
edge $-1 $155 -11.258486558118285 $323 -5.7165221173393936 $153 $332 forward 7 unknown #
point $-1 -65.177770317697679 -11.258486558118285 -12.58810941722483 #
point $-1 -65.177770317697679 -11.258486558118285 12.58810941722483 #
face $-1 $-1 $333 $20 $-1 $334 reversed single #
loop $-1 $-1 $169 $158 #
plane-surface $-1 0 0 12.58810941722483 0 0 1 1 0 0 forward_v I I I I #
coedge $-1 $164 $161 $335 $336 reversed $91 $-1 #
coedge $-1 $161 $164 $337 $338 reversed $91 $-1 #
coedge $-1 $339 $340 $161 $258 forward $333 $-1 #
edge $-1 $341 -12.58810941722483 $342 12.58810941722483 $257 $343 forward 7 unknown #
coedge $-1 $335 $167 $162 $260 forward $159 $-1 #
edge $-1 $172 -7.0147343892538654 $264 -1.4727699484749737 $259 $344 forward 7 unknown #
coedge $-1 $169 $337 $163 $262 forward $253 $-1 #
edge $-1 $263 1.4727699484749737 $171 7.0147343892538654 $261 $345 forward 7 unknown #
vertex $-1 $262 $346 #
vertex $-1 $260 $347 #
straight-curve $-1 49.22704099500686 -5.7165221173393936 0 0 0 -1 I I #
coedge $-1 $340 $339 $166 $267 forward $333 $-1 #
edge $-1 $272 -12.58810941722483 $269 12.58810941722483 $266 $348 forward 7 unknown #
coedge $-1 $167 $335 $340 $349 forward $159 $-1 #
vertex $-1 $267 $350 #
straight-curve $-1 28.601202828176135 -11.258486558118285 -12.58810941722483 -1 0 0 I I #
coedge $-1 $337 $169 $339 $351 forward $253 $-1 #
vertex $-1 $351 $352 #
straight-curve $-1 28.601202828176135 -11.258486558118285 12.58810941722483 1 0 0 I I #
point $-1 49.22704099500686 -11.258486558118285 12.58810941722483 #
point $-1 49.22704099500686 -11.258486558118285 -12.58810941722483 #
plane-surface $-1 0 0 12.58810941722483 0 0 1 1 0 0 forward_v I I I I #
coedge $-1 $287 $286 $279 $353 forward $175 $-1 #
coedge $-1 $279 $177 $179 $283 reversed $99 $-1 #
coedge $-1 $177 $278 $277 $353 reversed $99 $-1 #
coedge $-1 $185 $180 $177 $281 forward $186 $-1 #
edge $-1 $284 -15.311397471330665 $354 -11.755397178851577 $280 $355 forward 7 unknown #
coedge $-1 $179 $178 $287 $356 reversed $61 $-1 #
edge $-1 $357 -53.105352225953794 $284 -48.243135324103577 $278 $358 forward 7 unknown #
vertex $-1 $181 $359 #
straight-curve $-1 -0.48504579529957681 22.996675820497835 12.588109417224832 1 0 0 I I #
coedge $-1 $277 $182 $185 $291 reversed $175 $-1 #
coedge $-1 $182 $277 $282 $356 forward $175 $-1 #
vertex $-1 $183 $360 #
straight-curve $-1 -11.364002632926951 26.552676112976915 70.412927584164237 0 0 1 I I #
straight-curve $-1 -11.364002632926951 -12.286119411722154 45.489848983712875 0 0.7313536940579346 -0.68199836817093118 I I #
edge $-1 $354 -9.4238194517286438 $187 11.364002632926951 $286 $361 forward 7 unknown #
point $-1 -11.364002632926951 26.552676112976915 12.58810941722483 #
point $-1 -11.364002632926951 22.996675820497828 12.588109417224828 #
edge $-1 $362 1 $362 0 $190 $-1 forward 7 unknown #
vertex $-1 $191 $363 #
ellipse-curve $-1 -5.4246248944539204 22.263351795871309 8.2370320191431077 0 0.68199836817093118 0.7313536940579346 1 0 0 1 I I #
point $-1 -4.4246248944539204 24.774675966737366 10.930097420847328 #
edge $-1 $364 1 $364 0 $194 $-1 forward 7 unknown #
vertex $-1 $195 $365 #
ellipse-curve $-1 3.4844417132556202 22.263351795871309 8.2370320191431077 0 0.68199836817093118 0.7313536940579346 1 0 0 1 I I #
point $-1 4.4844417132556202 24.774675966737366 10.930097420847328 #
plane-surface $-1 65.177770317697679 0 0 -1 0 0 0 0 1 forward_v I I I I #
coedge $-1 $203 $201 $205 $307 reversed $121 $-1 #
edge $-1 $216 -12.58810941722483 $309 12.58810941722483 $215 $366 forward 7 unknown #
vertex $-1 $307 $367 #
straight-curve $-1 -65.177770317697679 -26.552676112976915 0 0 0 -1 I I #
edge $-1 $305 -26.552676112976915 $309 26.552676112976915 $303 $368 forward 7 unknown #
straight-curve $-1 0 -26.552676112976915 -12.58810941722483 -1 0 0 I I #
vertex $-1 $208 $369 #
straight-curve $-1 0 26.552676112976915 -12.58810941722483 1 0 0 I I #
point $-1 65.177770317697679 26.552676112976915 -12.58810941722483 #
point $-1 65.177770317697679 -26.552676112976915 -12.58810941722483 #
straight-curve $-1 -65.177770317697679 0 12.58810941722483 0 -1 0 I I #
point $-1 -65.177770317697679 26.552676112976915 12.58810941722483 #
point $-1 -65.177770317697679 -26.552676112976915 12.58810941722483 #
straight-curve $-1 65.177770317697679 -26.552676112976915 0 0 0 -1 I I #
straight-curve $-1 65.177770317697679 26.552676112976915 0 0 0 -1 I I #
plane-surface $-1 -65.177770317697679 0 0 1 0 0 0 0 -1 forward_v I I I I #
edge $-1 $237 1.4727699484749737 $241 7.0147343892538654 $240 $370 forward 7 unknown #
edge $-1 $245 -7.0147343892538654 $236 -1.4727699484749737 $243 $371 forward 7 unknown #
straight-curve $-1 -49.22704099500686 -11.258486558118285 0 0 0 -1 I I #
edge $-1 $325 -12.58810941722483 $323 12.58810941722483 $247 $372 forward 7 unknown #
vertex $-1 $322 $373 #
straight-curve $-1 -28.601202828176135 -5.7165221173393936 -12.58810941722483 1 0 0 I I #
vertex $-1 $248 $374 #
straight-curve $-1 -28.601202828176135 -5.7165221173393936 12.58810941722483 -1 0 0 I I #
point $-1 -49.22704099500686 -5.7165221173393936 12.58810941722483 #
point $-1 -49.22704099500686 -5.7165221173393936 -12.58810941722483 #
point $-1 -49.22704099500686 -11.258486558118285 -12.58810941722483 #
point $-1 -49.22704099500686 -11.258486558118285 12.58810941722483 #
straight-curve $-1 -65.177770317697679 0 12.58810941722483 0 -1 0 I I #
straight-curve $-1 -65.177770317697679 0 -12.58810941722483 0 1 0 I I #
loop $-1 $-1 $266 $252 #
plane-surface $-1 65.177770317697679 0 0 -1 0 0 0 0 1 forward_v I I I I #
coedge $-1 $268 $259 $255 $336 forward $159 $-1 #
edge $-1 $264 20.625838166830725 $341 36.576567489521544 $335 $375 forward 7 unknown #
coedge $-1 $261 $271 $256 $338 forward $253 $-1 #
edge $-1 $342 -36.576567489521544 $263 -20.625838166830725 $337 $376 forward 7 unknown #
coedge $-1 $266 $257 $271 $351 reversed $333 $-1 #
coedge $-1 $257 $266 $268 $349 reversed $333 $-1 #
vertex $-1 $349 $377 #
vertex $-1 $258 $378 #
straight-curve $-1 65.177770317697679 -5.7165221173393936 0 0 0 1 I I #
straight-curve $-1 49.22704099500686 -4.24375216886442 -12.58810941722483 0 1 0 I I #
straight-curve $-1 49.22704099500686 -4.24375216886442 12.58810941722483 0 -1 0 I I #
point $-1 49.22704099500686 -5.7165221173393936 12.58810941722483 #
point $-1 49.22704099500686 -5.7165221173393936 -12.58810941722483 #
straight-curve $-1 65.177770317697679 -11.258486558118285 0 0 0 -1 I I #
edge $-1 $341 5.7165221173393936 $269 11.258486558118285 $340 $379 forward 7 unknown #
point $-1 65.177770317697679 -11.258486558118285 -12.58810941722483 #
edge $-1 $272 -11.258486558118285 $342 -5.7165221173393936 $339 $380 forward 7 unknown #
point $-1 65.177770317697679 -11.258486558118285 12.58810941722483 #
edge $-1 $354 57.824818166939409 $357 61.14084215969438 $277 $381 forward 7 unknown #
vertex $-1 $291 $382 #
straight-curve $-1 9.4238194517286438 38.308073291828492 12.588109417224828 0 1 0 I I #
edge $-1 $357 -9.9088652470282206 $288 10.878956837627374 $287 $383 forward 7 unknown #
vertex $-1 $356 $384 #
straight-curve $-1 9.4238194517286438 -12.286119411722154 45.489848983712875 0 -0.7313536940579346 0.68199836817093118 I I #
point $-1 9.4238194517286438 22.996675820497828 12.588109417224828 #
point $-1 -11.364002632926951 26.552676112976911 9.2720854244698572 #
straight-curve $-1 0 26.552676112976915 12.58810941722483 -1 0 0 I I #
vertex $-1 $294 $385 #
point $-1 -4.4246248944539204 22.263351795871309 8.2370320191431077 #
vertex $-1 $298 $386 #
point $-1 4.4844417132556202 22.263351795871309 8.2370320191431077 #
straight-curve $-1 -65.177770317697679 26.552676112976915 0 0 0 -1 I I #
point $-1 -65.177770317697679 -26.552676112976915 -12.58810941722483 #
straight-curve $-1 -65.177770317697679 0 -12.58810941722483 0 1 0 I I #
point $-1 -65.177770317697679 26.552676112976915 -12.58810941722483 #
straight-curve $-1 -49.22704099500686 -4.24375216886442 -12.58810941722483 0 -1 0 I I #
straight-curve $-1 -49.22704099500686 -4.24375216886442 12.58810941722483 0 1 0 I I #
straight-curve $-1 -65.177770317697679 -5.7165221173393936 0 0 0 -1 I I #
point $-1 -65.177770317697679 -5.7165221173393936 -12.58810941722483 #
point $-1 -65.177770317697679 -5.7165221173393936 12.58810941722483 #
straight-curve $-1 28.601202828176135 -5.7165221173393936 -12.58810941722483 1 0 0 I I #
straight-curve $-1 28.601202828176135 -5.7165221173393936 12.58810941722483 -1 0 0 I I #
point $-1 65.177770317697679 -5.7165221173393936 -12.58810941722483 #
point $-1 65.177770317697679 -5.7165221173393936 12.58810941722483 #
straight-curve $-1 65.177770317697679 0 -12.58810941722483 0 -1 0 I I #
straight-curve $-1 65.177770317697679 0 12.58810941722483 0 1 0 I I #
straight-curve $-1 9.4238194517286438 26.552676112976915 70.412927584164237 0 0 -1 I I #
point $-1 9.4238194517286438 26.552676112976915 12.58810941722483 #
straight-curve $-1 -0.48504579529957681 26.552676112976915 9.2720854244698572 -1 0 0 I I #
point $-1 9.4238194517286438 26.552676112976911 9.2720854244698572 #
point $-1 -5.4246248944539204 21.581353427700378 7.5056783250851735 #
point $-1 3.4844417132556202 21.581353427700378 7.5056783250851735 #
End-of-ACIS-data 