500 0 9 0           
7 Unknown 11 ACIS 5.0 NT 24 Thu Mar 25 16:01:33 1999 
-1 9.9999999999999995e-007 1e-010 
body $-1 $9 $-1 $10 #
body $-1 $11 $-1 $12 #
body $-1 $13 $-1 $14 #
body $-1 $15 $-1 $16 #
body $-1 $17 $-1 $18 #
body $-1 $19 $-1 $20 #
body $-1 $21 $-1 $22 #
body $-1 $23 $-1 $24 #
body $-1 $25 $-1 $26 #
lump $-1 $-1 $27 $0 #
transform $-1 1 0 0 0 1 0 0 0 1 54.299752800073243 36.725703346513967 15.373641467099789 1 rotate no_reflect no_shear #
lump $-1 $-1 $28 $1 #
transform $-1 1 0 0 0 1 0 0 0 1 54.299752800073243 36.725703346513967 15.373641467099789 1 rotate no_reflect no_shear #
lump $-1 $-1 $29 $2 #
transform $-1 1 0 0 0 1 0 0 0 1 54.299752800073243 36.725703346513967 15.373641467099789 1 rotate no_reflect no_shear #
lump $-1 $-1 $30 $3 #
transform $-1 1 0 0 0 1 0 0 0 1 54.299752800073243 36.725703346513967 15.373641467099789 1 rotate no_reflect no_shear #
lump $-1 $-1 $31 $4 #
transform $-1 1 0 0 0 1 0 0 0 1 54.299752800073243 36.725703346513967 15.373641467099789 1 rotate no_reflect no_shear #
lump $-1 $-1 $32 $5 #
transform $-1 1 0 0 0 1 0 0 0 1 54.299752800073243 36.725703346513967 15.373641467099789 1 rotate no_reflect no_shear #
lump $-1 $-1 $33 $6 #
transform $-1 1 0 0 0 1 0 0 0 1 54.299752800073243 36.725703346513967 15.373641467099789 1 rotate no_reflect no_shear #
lump $-1 $-1 $34 $7 #
transform $-1 1 0 0 0 1 0 0 0 1 54.299752800073243 36.725703346513967 15.373641467099789 1 rotate no_reflect no_shear #
lump $-1 $-1 $35 $8 #
transform $-1 1 0 0 0 1 0 0 0 1 54.299752800073243 36.725703346513967 15.373641467099789 1 rotate no_reflect no_shear #
shell $-1 $-1 $-1 $36 $-1 $9 #
shell $-1 $-1 $-1 $37 $-1 $11 #
shell $-1 $-1 $-1 $38 $-1 $13 #
shell $-1 $-1 $-1 $39 $-1 $15 #
shell $-1 $-1 $-1 $40 $-1 $17 #
shell $-1 $-1 $-1 $41 $-1 $19 #
shell $-1 $-1 $-1 $42 $-1 $21 #
shell $-1 $-1 $-1 $43 $-1 $23 #
shell $-1 $-1 $-1 $44 $-1 $25 #
face $-1 $45 $46 $27 $-1 $47 forward single #
face $-1 $48 $49 $28 $-1 $50 forward single #
face $-1 $51 $52 $29 $-1 $53 reversed single #
face $-1 $54 $55 $30 $-1 $56 forward single #
face $-1 $57 $58 $31 $-1 $59 forward single #
face $-1 $60 $61 $32 $-1 $62 reversed single #
face $-1 $63 $64 $33 $-1 $65 forward single #
face $-1 $66 $67 $34 $-1 $68 reversed single #
face $-1 $69 $70 $35 $-1 $71 forward single #
face $-1 $72 $73 $27 $-1 $74 reversed single #
loop $-1 $-1 $75 $36 #
plane-surface $-1 0 0 15.373641467099789 0 0 1 1 0 0 forward_v I I I I #
face $-1 $76 $77 $28 $-1 $78 forward single #
loop $-1 $-1 $79 $37 #
plane-surface $-1 0 -36.725703346513967 0 0 1 0 0 0 1 forward_v I I I I #
face $-1 $80 $81 $29 $-1 $82 reversed single #
loop $-1 $-1 $83 $38 #
plane-surface $-1 -149.28302141163198 -17.233894648124682 56.330417744753049 0 1 0 -0.87461971476443456 0 0.48480960649040278 forward_v I I I I #
face $-1 $84 $85 $30 $-1 $86 forward single #
loop $-1 $87 $88 $39 #
cone-surface $-1 -48.935977864850138 -13.749947423387606 8.3502329723563555 0.87461971476443456 0 -0.48480960649040278 0.72721440973560414 0 1.311929572146652 1 I I 0 1 1.5 forward I I I I #
face $-1 $89 $90 $31 $-1 $91 forward single #
loop $-1 $92 $93 $40 #
cone-surface $-1 -48.935977864850138 -8.5240265862819982 8.3502329723563555 0.87461971476443456 0 -0.48480960649040278 0.72721440973560414 0 1.311929572146652 1 I I 0 1 1.5 forward I I I I #
face $-1 $94 $95 $32 $-1 $96 reversed single #
loop $-1 $-1 $97 $41 #
plane-surface $-1 32.925146682172446 9.7459043491946424 163.62996911103193 0 -1 0 -0.6018150307709319 0 -0.79863550430605224 forward_v I I I I #
face $-1 $98 $99 $33 $-1 $100 forward single #
loop $-1 $101 $102 $42 #
cone-surface $-1 50.840106222380633 6.4457780623285856 12.240668260713829 -0.6018150307709319 0 -0.79863550430605224 1.1979532564590785 0 -0.90272254615639791 1 I I 0 1 1.5 forward I I I I #
face $-1 $103 $104 $34 $-1 $105 reversed single #
loop $-1 $-1 $106 $43 #
plane-surface $-1 32.925146682172446 30.12545077278185 163.62996911103193 0 1 0 0.6018150307709319 0 0.79863550430605224 forward_v I I I I #
face $-1 $107 $108 $35 $-1 $109 forward single #
loop $-1 $110 $111 $44 #
cone-surface $-1 50.840106222380633 33.425577059647907 12.240668260713829 -0.6018150307709319 0 -0.79863550430605224 1.1979532564590785 0 -0.90272254615639791 1 I I 0 1 1.5 forward I I I I #
face $-1 $112 $113 $27 $-1 $114 reversed single #
loop $-1 $-1 $115 $45 #
plane-surface $-1 0 0 -15.373641467099789 0 0 1 1 0 0 forward_v I I I I #
coedge $-1 $116 $117 $118 $119 forward $46 $-1 #
face $-1 $120 $121 $28 $-1 $122 reversed single #
loop $-1 $-1 $123 $48 #
plane-surface $-1 0 0 15.373641467099789 0 0 1 1 0 0 forward_v I I I I #
coedge $-1 $124 $125 $126 $127 forward $49 $-1 #
face $-1 $128 $129 $29 $-1 $130 reversed single #
loop $-1 $-1 $131 $51 #
plane-surface $-1 -54.29975280007325 -11.136987004834801 3.6803341696937366 -0.87461971476443456 0 0.48480960649040278 0.48480960649040278 0 0.87461971476443456 forward_v I I I I #
coedge $-1 $132 $133 $134 $135 reversed $52 $-1 #
face $-1 $-1 $136 $30 $-1 $137 forward single #
loop $-1 $138 $139 $54 #
cone-surface $-1 -46.1570910615294 -13.749947423387606 6.8098709214481428 0.87461971476443456 0 -0.48480960649040278 0.36360720486780207 0 0.65596478607332598 1 I I -0.70710678118654757 0.70710678118654757 0.75 forward I I I I #
loop $-1 $-1 $140 $39 #
coedge $-1 $88 $88 $141 $142 reversed $55 $-1 #
face $-1 $-1 $143 $31 $-1 $144 forward single #
loop $-1 $145 $146 $57 #
cone-surface $-1 -46.1570910615294 -8.5240265862819982 6.8098709214481428 0.87461971476443456 0 -0.48480960649040278 0.36360720486780207 0 0.65596478607332598 1 I I -0.70710678118654757 0.70710678118654757 0.75 forward I I I I #
loop $-1 $-1 $147 $40 #
coedge $-1 $93 $93 $148 $149 reversed $58 $-1 #
face $-1 $150 $151 $32 $-1 $152 reversed single #
loop $-1 $-1 $153 $60 #
plane-surface $-1 -32.431668122287697 6.4457780623285856 76.898548188670986 0.6018150307709319 0 0.79863550430605224 0.79863550430605224 0 -0.6018150307709319 forward_v I I I I #
coedge $-1 $154 $155 $156 $157 reversed $61 $-1 #
face $-1 $-1 $158 $33 $-1 $159 forward single #
loop $-1 $160 $161 $63 #
cone-surface $-1 49.471655210305052 6.4457780623285856 10.42467246754279 -0.6018150307709319 0 -0.79863550430605224 0.59897662822953923 0 -0.45136127307819895 1 I I -0.70710678118654668 0.70710678118654835 0.75 forward I I I I #
loop $-1 $-1 $162 $42 #
coedge $-1 $102 $102 $163 $164 reversed $64 $-1 #
face $-1 $165 $166 $34 $-1 $167 reversed single #
loop $-1 $-1 $168 $66 #
plane-surface $-1 -32.431668122287697 33.425577059647907 76.898548188670986 0.6018150307709319 0 0.79863550430605224 0.79863550430605224 0 -0.6018150307709319 forward_v I I I I #
coedge $-1 $169 $170 $171 $172 reversed $67 $-1 #
face $-1 $-1 $173 $35 $-1 $174 forward single #
loop $-1 $175 $176 $69 #
cone-surface $-1 49.471655210305052 33.425577059647907 10.42467246754279 -0.6018150307709319 0 -0.79863550430605224 0.59897662822953923 0 -0.45136127307819895 1 I I -0.70710678118654668 0.70710678118654835 0.75 forward I I I I #
loop $-1 $-1 $177 $44 #
coedge $-1 $111 $111 $178 $179 reversed $70 $-1 #
face $-1 $180 $181 $27 $-1 $182 reversed single #
loop $-1 $-1 $183 $72 #
plane-surface $-1 0 -36.725703346513967 0 0 1 0 0 0 1 forward_v I I I I #
coedge $-1 $184 $185 $186 $187 forward $73 $-1 #
coedge $-1 $188 $75 $189 $190 forward $46 $-1 #
coedge $-1 $75 $188 $191 $192 forward $46 $-1 #
coedge $-1 $193 $194 $75 $119 reversed $195 $-1 #
edge $-1 $196 -36.725703346513967 $197 36.725703346513967 $118 $198 forward 7 unknown #
face $-1 $199 $200 $28 $-1 $201 reversed single #
loop $-1 $-1 $202 $76 #
plane-surface $-1 -54.299752800073243 0 0 1 0 0 0 0 -1 forward_v I I I I #
coedge $-1 $203 $204 $125 $205 forward $77 $-1 #
coedge $-1 $206 $79 $207 $208 reversed $49 $-1 #
coedge $-1 $79 $206 $123 $205 reversed $49 $-1 #
coedge $-1 $209 $210 $79 $127 reversed $211 $-1 #
edge $-1 $212 -15.373641467099789 $213 15.373641467099789 $126 $214 forward 7 unknown #
face $-1 $215 $216 $29 $-1 $217 reversed single #
loop $-1 $-1 $218 $80 #
plane-surface $-1 -149.28302141163198 -5.0400793615449206 56.330417744753049 0 -1 0 0.87461971476443456 0 -0.48480960649040278 forward_v I I I I #
coedge $-1 $219 $220 $221 $222 reversed $81 $-1 #
coedge $-1 $133 $83 $223 $224 reversed $52 $-1 #
coedge $-1 $83 $132 $219 $225 reversed $52 $-1 #
coedge $-1 $221 $226 $83 $135 forward $227 $-1 #
edge $-1 $228 20.341757905742746 $229 26.823463741694141 $134 $230 forward 7 unknown #
loop $-1 $-1 $141 $84 #
plane-surface $-1 -54.29975280007325 -11.136987004834801 3.6803341696937366 -0.87461971476443456 0 0.48480960649040278 0.48480960649040278 0 0.87461971476443456 forward_v I I I I #
loop $-1 $-1 $231 $54 #
coedge $-1 $139 $139 $140 $232 reversed $85 $-1 #
coedge $-1 $140 $140 $139 $232 forward $87 $-1 #
coedge $-1 $141 $141 $88 $142 forward $136 $-1 #
edge $-1 $233 0 $233 6.2831853071796004 $141 $234 forward 7 unknown #
loop $-1 $-1 $148 $89 #
plane-surface $-1 -54.29975280007325 -11.136987004834801 3.6803341696937366 -0.87461971476443456 0 0.48480960649040278 0.48480960649040278 0 0.87461971476443456 forward_v I I I I #
loop $-1 $-1 $235 $57 #
coedge $-1 $146 $146 $147 $236 reversed $90 $-1 #
coedge $-1 $147 $147 $146 $236 forward $92 $-1 #
coedge $-1 $148 $148 $93 $149 forward $143 $-1 #
edge $-1 $237 0 $237 6.2831853071796004 $148 $238 forward 7 unknown #
face $-1 $239 $240 $32 $-1 $241 forward single #
loop $-1 $-1 $242 $94 #
plane-surface $-1 32.925146682172446 3.1456517754625288 163.62996911103193 0 1 0 0.6018150307709319 0 0.79863550430605224 forward_v I I I I #
coedge $-1 $243 $244 $245 $246 reversed $95 $-1 #
coedge $-1 $155 $97 $247 $248 reversed $61 $-1 #
coedge $-1 $97 $154 $243 $249 reversed $61 $-1 #
coedge $-1 $245 $250 $97 $157 forward $240 $-1 #
edge $-1 $251 -37.837179458987023 $252 -32.752065781596514 $156 $253 forward 7 unknown #
loop $-1 $-1 $163 $98 #
plane-surface $-1 -32.431668122287697 6.4457780623285856 76.898548188670986 0.6018150307709319 0 0.79863550430605224 0.79863550430605224 0 -0.6018150307709319 forward_v I I I I #
loop $-1 $-1 $254 $63 #
coedge $-1 $161 $161 $162 $255 reversed $99 $-1 #
coedge $-1 $162 $162 $161 $255 forward $101 $-1 #
coedge $-1 $163 $163 $102 $164 forward $158 $-1 #
edge $-1 $256 0 $256 6.2831853071796004 $163 $257 forward 7 unknown #
face $-1 $258 $259 $34 $-1 $260 forward single #
loop $-1 $-1 $171 $103 #
plane-surface $-1 54.299752800073243 0 0 -1 0 0 0 0 1 forward_v I I I I #
coedge $-1 $261 $262 $263 $264 reversed $104 $-1 #
coedge $-1 $170 $106 $265 $266 reversed $67 $-1 #
coedge $-1 $106 $169 $261 $267 reversed $67 $-1 #
coedge $-1 $263 $268 $106 $172 forward $166 $-1 #
edge $-1 $269 66.441343088416176 $270 70.273251171305134 $171 $271 forward 7 unknown #
loop $-1 $-1 $178 $107 #
plane-surface $-1 -32.431668122287697 33.425577059647907 76.898548188670986 0.6018150307709319 0 0.79863550430605224 0.79863550430605224 0 -0.6018150307709319 forward_v I I I I #
loop $-1 $-1 $272 $69 #
coedge $-1 $176 $176 $177 $273 reversed $108 $-1 #
coedge $-1 $177 $177 $176 $273 forward $110 $-1 #
coedge $-1 $178 $178 $111 $179 forward $173 $-1 #
edge $-1 $274 0 $274 6.2831853071796004 $178 $275 forward 7 unknown #
face $-1 $276 $277 $27 $-1 $278 reversed single #
loop $-1 $-1 $279 $112 #
plane-surface $-1 -54.299752800073243 0 0 1 0 0 0 0 -1 forward_v I I I I #
coedge $-1 $280 $191 $281 $282 forward $113 $-1 #
coedge $-1 $283 $115 $280 $284 forward $73 $-1 #
coedge $-1 $115 $283 $285 $286 forward $73 $-1 #
coedge $-1 $194 $193 $115 $187 reversed $195 $-1 #
edge $-1 $287 -36.725703346513967 $288 36.725703346513967 $186 $289 forward 7 unknown #
coedge $-1 $117 $116 $290 $291 forward $46 $-1 #
coedge $-1 $292 $293 $116 $190 reversed $277 $-1 #
edge $-1 $197 -54.299752800073243 $294 54.299752800073243 $189 $295 forward 7 unknown #
coedge $-1 $183 $296 $117 $192 reversed $113 $-1 #
edge $-1 $297 -54.299752800073243 $196 54.299752800073243 $191 $298 forward 7 unknown #
coedge $-1 $186 $118 $296 $299 forward $195 $-1 #
coedge $-1 $118 $186 $292 $300 reversed $195 $-1 #
loop $-1 $-1 $193 $276 #
vertex $-1 $119 $301 #
vertex $-1 $119 $302 #
straight-curve $-1 54.299752800073243 0 15.373641467099789 0 1 0 I I #
face $-1 $303 $211 $28 $-1 $304 reversed single #
loop $-1 $-1 $305 $120 #
plane-surface $-1 -51.131329136281266 -56.217512044903259 0 0 1 0 0 0 1 forward_v I I I I #
coedge $-1 $306 $307 $206 $308 forward $121 $-1 #
coedge $-1 $309 $123 $307 $310 forward $77 $-1 #
coedge $-1 $123 $309 $209 $311 forward $77 $-1 #
edge $-1 $212 47.962905472489297 $312 54.299752800073243 $123 $313 forward 7 unknown #
coedge $-1 $125 $124 $202 $308 reversed $49 $-1 #
coedge $-1 $314 $315 $124 $208 forward $316 $-1 #
edge $-1 $317 -54.299752800073243 $213 -47.962905472489297 $207 $318 forward 7 unknown #
coedge $-1 $319 $126 $204 $311 reversed $211 $-1 #
coedge $-1 $126 $319 $314 $320 reversed $211 $-1 #
loop $-1 $-1 $319 $199 #
vertex $-1 $205 $321 #
vertex $-1 $320 $322 #
straight-curve $-1 -47.962905472489297 -36.725703346513967 0 0 0 -1 I I #
face $-1 $-1 $227 $29 $-1 $323 forward single #
loop $-1 $-1 $324 $128 #
plane-surface $-1 -54.299752800073243 0 0 1 0 0 0 0 -1 forward_v I I I I #
coedge $-1 $325 $326 $327 $328 reversed $129 $-1 #
coedge $-1 $329 $131 $133 $225 forward $81 $-1 #
coedge $-1 $131 $329 $325 $330 forward $81 $-1 #
coedge $-1 $327 $134 $131 $222 forward $227 $-1 #
edge $-1 $229 -11.665401145707282 $331 0.52841414087247962 $221 $332 forward 7 unknown #
coedge $-1 $333 $334 $132 $224 forward $216 $-1 #
edge $-1 $335 -24.484874702682774 $228 -12.791567405276735 $223 $336 forward 7 unknown #
edge $-1 $229 -13.36959034882431 $335 -1.4708645604606407e-014 $133 $337 forward 7 unknown #
coedge $-1 $134 $327 $333 $338 forward $227 $-1 #
loop $-1 $-1 $327 $215 #
vertex $-1 $224 $339 #
vertex $-1 $135 $340 #
straight-curve $-1 -74.641510705815989 -17.233894648124682 15.373641467099787 1 0 0 I I #
coedge $-1 $231 $231 $-1 $341 reversed $138 $-1 #
edge $-1 $342 0 $342 6.2831853071796004 $139 $343 forward 7 unknown #
vertex $-1 $142 $344 #
ellipse-curve $-1 -51.058899882097549 -13.749947423387606 9.5269878183967656 -0.87461971476443456 0 0.48480960649040278 0.72721440973560414 0 1.311929572146652 1 I I #
coedge $-1 $235 $235 $-1 $345 reversed $145 $-1 #
edge $-1 $346 0 $346 6.2831853071796004 $146 $347 forward 7 unknown #
vertex $-1 $149 $348 #
ellipse-curve $-1 -51.058899882097549 -8.5240265862819982 9.5269878183967656 -0.87461971476443456 0 0.48480960649040278 0.72721440973560414 0 1.311929572146652 1 I I #
face $-1 $-1 $349 $32 $-1 $350 reversed single #
loop $-1 $-1 $156 $150 #
plane-surface $-1 0 0 15.373641467099789 0 0 1 1 0 0 forward_v I I I I #
coedge $-1 $351 $352 $353 $354 reversed $151 $-1 #
coedge $-1 $355 $153 $155 $249 forward $95 $-1 #
coedge $-1 $153 $355 $351 $356 forward $95 $-1 #
coedge $-1 $353 $156 $153 $246 forward $240 $-1 #
edge $-1 $252 -6.5230153180303496 $357 0.077237255701763985 $245 $358 forward 7 unknown #
coedge $-1 $359 $360 $154 $248 forward $349 $-1 #
edge $-1 $361 -70.273251171305134 $251 -66.441343088416176 $247 $362 forward 7 unknown #
edge $-1 $252 102.23225339313494 $361 108.59950560014651 $155 $363 forward 7 unknown #
coedge $-1 $156 $353 $359 $364 forward $240 $-1 #
vertex $-1 $157 $365 #
vertex $-1 $157 $366 #
straight-curve $-1 16.462573341086223 9.7459043491946424 15.373641467099787 -1 0 0 I I #
coedge $-1 $254 $254 $-1 $367 reversed $160 $-1 #
edge $-1 $368 0 $368 6.2831853071796004 $161 $369 forward 7 unknown #
vertex $-1 $164 $370 #
ellipse-curve $-1 51.757195961377995 6.4457780623285856 13.457687425655298 0.6018150307709319 0 0.79863550430605224 1.1979532564590785 0 -0.90272254615639791 1 I I #
face $-1 $-1 $371 $34 $-1 $372 reversed single #
loop $-1 $-1 $265 $165 #
plane-surface $-1 0 0 15.373641467099789 0 0 1 1 0 0 forward_v I I I I #
coedge $-1 $373 $168 $170 $267 forward $104 $-1 #
coedge $-1 $168 $373 $374 $375 reversed $104 $-1 #
coedge $-1 $376 $171 $168 $264 forward $166 $-1 #
edge $-1 $270 13.412662242957897 $377 20.012914816690014 $263 $378 forward 7 unknown #
coedge $-1 $379 $380 $169 $266 forward $259 $-1 #
edge $-1 $381 32.752065781596514 $269 37.837179458987023 $265 $382 forward 7 unknown #
edge $-1 $270 -108.59950560014651 $381 -102.23225339313494 $170 $383 forward 7 unknown #
coedge $-1 $171 $376 $379 $384 reversed $166 $-1 #
vertex $-1 $384 $385 #
vertex $-1 $172 $386 #
straight-curve $-1 54.299752800073243 30.12545077278185 81.814984555515963 0 0 -1 I I #
coedge $-1 $272 $272 $-1 $387 reversed $175 $-1 #
edge $-1 $388 0 $388 6.2831853071796004 $176 $389 forward 7 unknown #
vertex $-1 $179 $390 #
ellipse-curve $-1 51.757195961377995 33.425577059647907 13.457687425655298 0.6018150307709319 0 0.79863550430605224 1.1979532564590785 0 -0.90272254615639791 1 I I #
face $-1 $-1 $195 $27 $-1 $391 reversed single #
loop $-1 $-1 $292 $180 #
plane-surface $-1 0 36.725703346513967 0 0 -1 0 0 0 -1 forward_v I I I I #
coedge $-1 $392 $290 $293 $393 forward $181 $-1 #
coedge $-1 $296 $183 $184 $284 reversed $113 $-1 #
coedge $-1 $290 $392 $183 $282 reversed $181 $-1 #
edge $-1 $297 -15.373641467099789 $394 15.373641467099789 $281 $395 forward 7 unknown #
coedge $-1 $185 $184 $392 $396 forward $73 $-1 #
edge $-1 $288 -54.299752800073243 $394 54.299752800073243 $280 $397 forward 7 unknown #
coedge $-1 $293 $292 $185 $286 reversed $277 $-1 #
edge $-1 $398 -54.299752800073243 $287 54.299752800073243 $285 $399 forward 7 unknown #
vertex $-1 $187 $400 #
vertex $-1 $299 $401 #
straight-curve $-1 54.299752800073243 0 -15.373641467099789 0 -1 0 I I #
coedge $-1 $279 $281 $188 $291 reversed $181 $-1 #
edge $-1 $294 -36.725703346513967 $297 36.725703346513967 $290 $402 forward 7 unknown #
coedge $-1 $285 $189 $194 $300 forward $277 $-1 #
coedge $-1 $189 $285 $279 $393 reversed $277 $-1 #
vertex $-1 $190 $403 #
straight-curve $-1 0 36.725703346513967 15.373641467099789 -1 0 0 I I #
coedge $-1 $191 $280 $193 $299 reversed $113 $-1 #
vertex $-1 $291 $404 #
straight-curve $-1 0 -36.725703346513967 15.373641467099789 1 0 0 I I #
edge $-1 $196 -15.373641467099789 $288 15.373641467099789 $193 $405 forward 7 unknown #
edge $-1 $197 -15.373641467099789 $287 15.373641467099789 $194 $406 forward 7 unknown #
point $-1 54.299752800073243 -36.725703346513967 15.373641467099789 #
point $-1 54.299752800073243 36.725703346513967 15.373641467099789 #
face $-1 $-1 $316 $28 $-1 $407 reversed single #
plane-surface $-1 -47.962905472489297 -46.471607695708613 0 -1 0 0 0 0 1 forward_v I I I I #
coedge $-1 $408 $409 $410 $411 forward $200 $-1 #
coedge $-1 $410 $202 $315 $412 reversed $121 $-1 #
coedge $-1 $202 $410 $203 $310 reversed $121 $-1 #
edge $-1 $312 -15.373641467099789 $317 15.373641467099789 $202 $413 forward 7 unknown #
coedge $-1 $204 $203 $409 $414 forward $77 $-1 #
edge $-1 $312 36.725703346513967 $415 56.217512044903259 $307 $416 forward 7 unknown #
edge $-1 $417 -9.745904349194646 $212 9.745904349194646 $209 $418 forward 7 unknown #
vertex $-1 $310 $419 #
straight-curve $-1 0 -36.725703346513967 15.373641467099789 -1 0 0 I I #
coedge $-1 $420 $207 $210 $320 forward $316 $-1 #
coedge $-1 $207 $420 $306 $412 forward $316 $-1 #
loop $-1 $-1 $207 $303 #
vertex $-1 $308 $421 #
straight-curve $-1 0 -36.725703346513967 -15.373641467099789 1 0 0 I I #
coedge $-1 $210 $209 $422 $423 forward $211 $-1 #
edge $-1 $213 -9.745904349194646 $424 9.745904349194646 $210 $425 forward 7 unknown #
point $-1 -47.962905472489297 -36.725703346513967 15.373641467099789 #
point $-1 -47.962905472489297 -36.725703346513967 -15.373641467099789 #
plane-surface $-1 0 0 15.373641467099789 0 0 1 1 0 0 forward_v I I I I #
coedge $-1 $334 $333 $326 $426 forward $216 $-1 #
coedge $-1 $326 $218 $220 $330 reversed $129 $-1 #
coedge $-1 $218 $325 $324 $426 reversed $129 $-1 #
coedge $-1 $226 $221 $218 $328 forward $227 $-1 #
edge $-1 $331 -26.823463741694141 $427 -20.341757905742746 $327 $428 forward 7 unknown #
coedge $-1 $220 $219 $334 $429 reversed $81 $-1 #
edge $-1 $430 1.4708645604606407e-014 $331 13.36959034882431 $325 $431 forward 7 unknown #
vertex $-1 $222 $432 #
straight-curve $-1 -47.818046964121848 -5.5684935024174003 15.373641467099789 0 1 0 I I #
coedge $-1 $324 $223 $226 $338 reversed $216 $-1 #
coedge $-1 $223 $324 $329 $429 forward $216 $-1 #
vertex $-1 $224 $433 #
straight-curve $-1 -54.299752800073243 -17.233894648124682 28.165208872376525 0 0 1 I I #
straight-curve $-1 -54.29975280007325 -17.233894648124682 3.6803341696937366 -0.48480960649040278 0 -0.87461971476443456 I I #
edge $-1 $427 5.0400793615449206 $228 17.233894648124682 $333 $434 forward 7 unknown #
point $-1 -54.299752800073243 -17.233894648124682 15.373641467099789 #
point $-1 -47.818046964121848 -17.233894648124682 15.373641467099789 #
edge $-1 $435 1 $435 0 $231 $-1 forward 7 unknown #
vertex $-1 $232 $436 #
ellipse-curve $-1 -46.813055847602726 -13.749947423387606 7.1734781263159446 -0.87461971476443456 0 0.48480960649040278 0.72721440973560414 0 1.311929572146652 1 I I #
point $-1 -50.33168547236194 -13.749947423387606 10.838917390543415 #
edge $-1 $437 1 $437 0 $235 $-1 forward 7 unknown #
vertex $-1 $236 $438 #
ellipse-curve $-1 -46.813055847602726 -8.5240265862819982 7.1734781263159446 -0.87461971476443456 0 0.48480960649040278 0.72721440973560414 0 1.311929572146652 1 I I #
point $-1 -50.33168547236194 -8.5240265862819982 10.838917390543415 #
loop $-1 $-1 $247 $239 #
plane-surface $-1 54.299752800073243 0 0 -1 0 0 0 0 1 forward_v I I I I #
coedge $-1 $352 $242 $244 $356 reversed $151 $-1 #
coedge $-1 $242 $351 $439 $440 reversed $151 $-1 #
coedge $-1 $250 $245 $242 $354 forward $240 $-1 #
edge $-1 $357 32.752065781596514 $441 37.837179458987023 $353 $442 forward 7 unknown #
coedge $-1 $244 $243 $360 $443 reversed $95 $-1 #
edge $-1 $444 -108.59950560014651 $357 -102.23225339313494 $351 $445 forward 7 unknown #
vertex $-1 $246 $446 #
straight-curve $-1 49.214639122682726 3.2228890311642928 15.373641467099787 0 -1 0 I I #
coedge $-1 $439 $247 $250 $364 reversed $349 $-1 #
coedge $-1 $247 $439 $355 $443 forward $349 $-1 #
vertex $-1 $248 $447 #
straight-curve $-1 54.299752800073243 9.7459043491946424 81.814984555515963 0 0 1 I I #
straight-curve $-1 -32.431668122287697 9.7459043491946424 76.898548188670986 0.79863550430605224 0 -0.6018150307709319 I I #
edge $-1 $441 3.1456517754625288 $251 9.7459043491946424 $359 $448 forward 7 unknown #
point $-1 54.299752800073243 9.7459043491946424 15.373641467099789 #
point $-1 49.214639122682733 9.7459043491946424 15.37364146709978 #
edge $-1 $449 1 $449 0 $254 $-1 forward 7 unknown #
vertex $-1 $255 $450 #
ellipse-curve $-1 49.92301648338325 6.4457780623285856 11.023649095772329 0.6018150307709319 0 0.79863550430605224 1.1979532564590785 0 -0.90272254615639791 1 I I #
point $-1 52.955149217837096 6.4457780623285856 12.554964879498925 #
loop $-1 $-1 $374 $258 #
plane-surface $-1 0 36.725703346513967 0 0 -1 0 0 0 -1 forward_v I I I I #
coedge $-1 $262 $261 $380 $451 reversed $104 $-1 #
coedge $-1 $452 $453 $262 $375 forward $371 $-1 #
edge $-1 $377 -72.509613714779121 $454 -66.142361507767561 $374 $455 forward 7 unknown #
coedge $-1 $268 $263 $453 $456 reversed $166 $-1 #
vertex $-1 $264 $457 #
straight-curve $-1 54.299752800073236 16.712788529823953 11.541733384210833 0 1 0 I I #
coedge $-1 $458 $265 $268 $384 forward $259 $-1 #
coedge $-1 $265 $458 $373 $451 forward $259 $-1 #
vertex $-1 $266 $459 #
straight-curve $-1 16.462573341086223 30.12545077278185 15.373641467099787 1 0 0 I I #
straight-curve $-1 -32.431668122287697 30.12545077278185 76.898548188670986 -0.79863550430605224 0 0.6018150307709319 I I #
edge $-1 $269 30.12545077278185 $460 36.725703346513967 $268 $461 forward 7 unknown #
point $-1 54.299752800073243 30.12545077278185 15.373641467099789 #
point $-1 54.299752800073243 30.12545077278185 11.541733384210829 #
edge $-1 $462 1 $462 0 $272 $-1 forward 7 unknown #
vertex $-1 $273 $463 #
ellipse-curve $-1 49.92301648338325 33.425577059647907 11.023649095772329 0.6018150307709319 0 0.79863550430605224 1.1979532564590785 0 -0.90272254615639791 1 I I #
point $-1 52.955149217837096 33.425577059647907 12.554964879498925 #
plane-surface $-1 54.299752800073243 0 0 -1 0 0 0 0 1 forward_v I I I I #
coedge $-1 $281 $279 $283 $396 reversed $181 $-1 #
edge $-1 $294 -15.373641467099789 $398 15.373641467099789 $293 $464 forward 7 unknown #
vertex $-1 $396 $465 #
straight-curve $-1 -54.299752800073243 -36.725703346513967 0 0 0 -1 I I #
edge $-1 $394 -36.725703346513967 $398 36.725703346513967 $392 $466 forward 7 unknown #
straight-curve $-1 0 -36.725703346513967 -15.373641467099789 -1 0 0 I I #
vertex $-1 $286 $467 #
straight-curve $-1 0 36.725703346513967 -15.373641467099789 1 0 0 I I #
point $-1 54.299752800073243 36.725703346513967 -15.373641467099789 #
point $-1 54.299752800073243 -36.725703346513967 -15.373641467099789 #
straight-curve $-1 -54.299752800073243 0 15.373641467099789 0 -1 0 I I #
point $-1 -54.299752800073243 36.725703346513967 15.373641467099789 #
point $-1 -54.299752800073243 -36.725703346513967 15.373641467099789 #
straight-curve $-1 54.299752800073243 -36.725703346513967 0 0 0 -1 I I #
straight-curve $-1 54.299752800073243 36.725703346513967 0 0 0 -1 I I #
plane-surface $-1 0 0 -15.373641467099789 0 0 1 1 0 0 forward_v I I I I #
coedge $-1 $422 $305 $420 $468 reversed $200 $-1 #
coedge $-1 $305 $422 $309 $414 reversed $200 $-1 #
coedge $-1 $307 $306 $305 $411 reversed $121 $-1 #
edge $-1 $415 -15.373641467099789 $469 15.373641467099789 $410 $470 forward 7 unknown #
edge $-1 $469 -56.217512044903259 $317 -36.725703346513967 $306 $471 forward 7 unknown #
straight-curve $-1 -54.299752800073243 -36.725703346513967 0 0 0 -1 I I #
edge $-1 $415 -3.1684236637919696 $417 3.1684236637919696 $409 $472 forward 7 unknown #
vertex $-1 $310 $473 #
straight-curve $-1 -54.299752800073243 0 15.373641467099789 0 -1 0 I I #
vertex $-1 $311 $474 #
straight-curve $-1 -47.962905472489297 -46.471607695708613 15.373641467099789 0 1 0 I I #
point $-1 -54.299752800073243 -36.725703346513967 15.373641467099789 #
coedge $-1 $315 $314 $408 $468 forward $316 $-1 #
point $-1 -54.299752800073243 -36.725703346513967 -15.373641467099789 #
coedge $-1 $409 $408 $319 $423 reversed $200 $-1 #
edge $-1 $417 -15.373641467099789 $424 15.373641467099789 $319 $475 forward 7 unknown #
vertex $-1 $423 $476 #
straight-curve $-1 -47.962905472489297 -46.471607695708613 -15.373641467099789 0 -1 0 I I #
edge $-1 $427 12.791567405276735 $430 24.484874702682774 $324 $477 forward 7 unknown #
vertex $-1 $338 $478 #
straight-curve $-1 -74.641510705815989 -5.0400793615449206 15.373641467099787 -1 0 0 I I #
edge $-1 $430 -0.52841414087247962 $335 11.665401145707282 $334 $479 forward 7 unknown #
vertex $-1 $429 $480 #
straight-curve $-1 -54.29975280007325 -5.0400793615449206 3.6803341696937366 0.48480960649040278 0 0.87461971476443456 I I #
point $-1 -47.818046964121848 -5.0400793615449206 15.373641467099789 #
point $-1 -54.299752800073243 -17.233894648124682 3.6803341696937495 #
straight-curve $-1 -54.299752800073243 0 15.373641467099789 0 -1 0 I I #
vertex $-1 $341 $481 #
point $-1 -46.085841437867124 -13.749947423387606 8.4854076984625966 #
vertex $-1 $345 $482 #
point $-1 -46.085841437867124 -8.5240265862819982 8.4854076984625966 #
coedge $-1 $360 $359 $352 $440 forward $349 $-1 #
edge $-1 $441 66.441343088416176 $444 70.273251171305134 $439 $483 forward 7 unknown #
vertex $-1 $364 $484 #
straight-curve $-1 16.462573341086223 3.1456517754625288 15.373641467099787 1 0 0 I I #
edge $-1 $444 -0.077237255701763985 $361 6.5230153180303496 $360 $485 forward 7 unknown #
vertex $-1 $443 $486 #
straight-curve $-1 -32.431668122287697 3.1456517754625288 76.898548188670986 -0.79863550430605224 0 0.6018150307709319 I I #
point $-1 49.214639122682733 3.1456517754625288 15.37364146709978 #
point $-1 54.299752800073243 9.7459043491946424 11.541733384210829 #
straight-curve $-1 54.299752800073243 0 15.373641467099789 0 1 0 I I #
vertex $-1 $367 $487 #
point $-1 51.12096973984233 6.4457780623285856 10.120926549615932 #
edge $-1 $454 -20.012914816690014 $381 -13.412662242957897 $380 $488 forward 7 unknown #
coedge $-1 $453 $374 $458 $489 reversed $371 $-1 #
coedge $-1 $374 $452 $376 $456 forward $371 $-1 #
vertex $-1 $375 $490 #
straight-curve $-1 -3.6089991160664123 36.725703346513967 55.179108793159017 -0.79863550430605224 0 0.6018150307709319 I I #
edge $-1 $460 -15.373641467099789 $377 -11.541733384210831 $376 $491 forward 7 unknown #
point $-1 54.299752800073243 36.725703346513967 11.541733384210831 #
coedge $-1 $380 $379 $452 $489 forward $259 $-1 #
point $-1 49.214639122682733 30.12545077278185 15.37364146709978 #
vertex $-1 $384 $492 #
straight-curve $-1 54.299752800073243 0 15.373641467099789 0 1 0 I I #
vertex $-1 $387 $493 #
point $-1 51.12096973984233 33.425577059647907 10.120926549615932 #
straight-curve $-1 -54.299752800073243 36.725703346513967 0 0 0 -1 I I #
point $-1 -54.299752800073243 -36.725703346513967 -15.373641467099789 #
straight-curve $-1 -54.299752800073243 0 -15.373641467099789 0 1 0 I I #
point $-1 -54.299752800073243 36.725703346513967 -15.373641467099789 #
edge $-1 $424 -3.1684236637919696 $469 3.1684236637919696 $408 $494 forward 7 unknown #
vertex $-1 $412 $495 #
straight-curve $-1 -54.299752800073236 -56.217512044903259 0 0 0 -1 I I #
straight-curve $-1 -54.299752800073243 0 -15.373641467099789 0 1 0 I I #
straight-curve $-1 -51.131329136281266 -56.217512044903259 15.373641467099789 1 0 0 I I #
point $-1 -54.299752800073236 -56.217512044903259 15.373641467099789 #
point $-1 -47.962905472489297 -56.217512044903259 15.373641467099789 #
straight-curve $-1 -47.962905472489297 -56.217512044903259 0 0 0 -1 I I #
point $-1 -47.962905472489297 -56.217512044903259 -15.373641467099789 #
straight-curve $-1 -54.299752800073243 -5.0400793615449206 28.165208872376525 0 0 -1 I I #
point $-1 -54.299752800073243 -5.0400793615449206 15.373641467099789 #
straight-curve $-1 -54.299752800073243 -5.5684935024174003 3.6803341696937619 0 -1 0 I I #
point $-1 -54.299752800073243 -5.0400793615449206 3.6803341696937495 #
point $-1 -45.501126275456073 -13.749947423387606 6.4462637165803409 #
point $-1 -45.501126275456073 -8.5240265862819982 6.4462637165803409 #
straight-curve $-1 54.299752800073243 3.1456517754625288 81.814984555515963 0 0 -1 I I #
point $-1 54.299752800073243 3.1456517754625288 15.373641467099789 #
straight-curve $-1 54.299752800073236 3.2228890311642928 11.541733384210833 0 1 0 I I #
point $-1 54.299752800073243 3.1456517754625288 11.541733384210829 #
point $-1 49.020293937226853 6.4457780623285856 9.8256958393132496 #
straight-curve $-1 49.214639122682726 16.712788529823953 15.373641467099787 0 -1 0 I I #
edge $-1 $460 -54.299752800073243 $454 -49.214639122682733 $452 $496 forward 7 unknown #
point $-1 49.214639122682733 36.725703346513967 15.37364146709978 #
straight-curve $-1 54.299752800073243 36.725703346513967 0 0 0 -1 I I #
point $-1 54.299752800073243 36.725703346513967 15.373641467099789 #
point $-1 49.020293937226853 33.425577059647907 9.8256958393132496 #
straight-curve $-1 -51.131329136281266 -56.217512044903259 -15.373641467099789 -1 0 0 I I #
point $-1 -54.299752800073236 -56.217512044903259 -15.373641467099789 #
straight-curve $-1 0 36.725703346513967 15.373641467099789 -1 0 0 I I #
End-of-ACIS-data 