500 0 8 0           
7 Unknown 11 ACIS 5.0 NT 24 Thu Mar 25 18:26:04 1999 
-1 9.9999999999999995e-007 1e-010 
body $-1 $8 $-1 $9 #
body $-1 $10 $-1 $11 #
body $-1 $12 $-1 $13 #
body $-1 $14 $-1 $15 #
body $-1 $16 $-1 $17 #
body $-1 $18 $-1 $19 #
body $-1 $20 $-1 $21 #
body $-1 $22 $-1 $23 #
lump $-1 $-1 $24 $0 #
transform $-1 1 0 0 0 1 0 0 0 1 56.001464888454848 24.558642833175206 6.7071394650044738 1 rotate no_reflect no_shear #
lump $-1 $-1 $25 $1 #
transform $-1 1 0 0 0 1 0 0 0 1 56.001464888454848 24.558642833175206 6.7071394650044738 1 rotate no_reflect no_shear #
lump $-1 $-1 $26 $2 #
transform $-1 1 0 0 0 1 0 0 0 1 56.001464888454848 24.558642833175206 6.7071394650044738 1 rotate no_reflect no_shear #
lump $-1 $-1 $27 $3 #
transform $-1 1 0 0 0 1 0 0 0 1 56.001464888454848 24.558642833175206 6.7071394650044738 1 rotate no_reflect no_shear #
lump $-1 $-1 $28 $4 #
transform $-1 1 0 0 0 1 0 0 0 1 56.001464888454848 24.558642833175206 6.7071394650044738 1 rotate no_reflect no_shear #
lump $-1 $-1 $29 $5 #
transform $-1 1 0 0 0 1 0 0 0 1 56.001464888454848 24.558642833175206 6.7071394650044738 1 rotate no_reflect no_shear #
lump $-1 $-1 $30 $6 #
transform $-1 1 0 0 0 1 0 0 0 1 56.001464888454848 24.558642833175206 6.7071394650044738 1 rotate no_reflect no_shear #
lump $-1 $-1 $31 $7 #
transform $-1 1 0 0 0 1 0 0 0 1 56.001464888454848 24.558642833175206 6.7071394650044738 1 rotate no_reflect no_shear #
shell $-1 $-1 $-1 $32 $-1 $8 #
shell $-1 $-1 $-1 $33 $-1 $10 #
shell $-1 $-1 $-1 $34 $-1 $12 #
shell $-1 $-1 $-1 $35 $-1 $14 #
shell $-1 $-1 $-1 $36 $-1 $16 #
shell $-1 $-1 $-1 $37 $-1 $18 #
shell $-1 $-1 $-1 $38 $-1 $20 #
shell $-1 $-1 $-1 $39 $-1 $22 #
face $-1 $40 $41 $24 $-1 $42 reversed single #
face $-1 $43 $44 $25 $-1 $45 forward single #
face $-1 $46 $47 $26 $-1 $48 reversed single #
face $-1 $49 $50 $27 $-1 $51 forward single #
face $-1 $52 $53 $28 $-1 $54 forward single #
face $-1 $55 $56 $29 $-1 $57 reversed single #
face $-1 $58 $59 $30 $-1 $60 forward single #
face $-1 $61 $62 $31 $-1 $63 forward single #
face $-1 $64 $65 $24 $-1 $66 forward single #
loop $-1 $-1 $67 $32 #
plane-surface $-1 0 -24.558642833175206 0 0 1 0 0 0 1 forward_v I I I I #
face $-1 $68 $69 $25 $-1 $70 reversed single #
loop $-1 $-1 $71 $33 #
plane-surface $-1 0 -24.558642833175206 0 0 1 0 0 0 1 forward_v I I I I #
face $-1 $72 $73 $26 $-1 $74 reversed single #
loop $-1 $-1 $75 $34 #
plane-surface $-1 -145.45098275873352 17.747142062206496 68.55756476471268 0 1 0 -0.79863551827123203 0 0.60181501223851219 forward_v I I I I #
face $-1 $76 $77 $27 $-1 $78 forward single #
loop $-1 $79 $80 $35 #
cone-surface $-1 -53.49288503696993 19.693285139626127 3.6165570873104604 0.79863551827123203 0 -0.60181501223851219 0.3009075061192561 0 0.39931775913561601 1 I I 0 1 0.5 forward I I I I #
face $-1 $81 $82 $28 $-1 $83 forward single #
loop $-1 $84 $85 $36 #
cone-surface $-1 -53.49288503696993 22.612499755755572 3.6165570873104604 0.79863551827123203 0 -0.60181501223851219 0.3009075061192561 0 0.39931775913561601 1 I I 0 1 0.5 forward I I I I #
face $-1 $86 $87 $29 $-1 $88 reversed single #
loop $-1 $-1 $89 $37 #
plane-surface $-1 78.045938204293407 17.747142062206496 158.00708263499135 0 1 0 0.79863551827123203 0 0.60181501223851219 forward_v I I I I #
face $-1 $90 $91 $30 $-1 $92 forward single #
loop $-1 $93 $94 $38 #
cone-surface $-1 53.492885036969938 19.693285139626127 3.6165570873104569 -0.79863551827123203 0 -0.60181501223851219 0.3009075061192561 0 -0.39931775913561601 1 I I 0 1 0.5 forward I I I I #
face $-1 $95 $96 $31 $-1 $97 forward single #
loop $-1 $98 $99 $39 #
cone-surface $-1 53.492885036969938 22.612499755755572 3.6165570873104569 -0.79863551827123203 0 -0.60181501223851219 0.3009075061192561 0 -0.39931775913561601 1 I I 0 1 0.5 forward I I I I #
face $-1 $100 $101 $24 $-1 $102 reversed single #
loop $-1 $-1 $103 $40 #
plane-surface $-1 0 0 6.7071394650044738 0 0 1 1 0 0 forward_v I I I I #
coedge $-1 $104 $105 $106 $107 reversed $41 $-1 #
face $-1 $108 $109 $25 $-1 $110 reversed single #
loop $-1 $-1 $111 $43 #
plane-surface $-1 0 0 -6.7071394650044738 0 0 1 1 0 0 forward_v I I I I #
coedge $-1 $112 $113 $114 $115 forward $44 $-1 #
face $-1 $116 $117 $26 $-1 $118 reversed single #
loop $-1 $-1 $119 $46 #
plane-surface $-1 -56.001464888454834 21.152892447690853 1.1525202102725558 -0.79863551827123203 0 0.60181501223851219 0.60181501223851219 0 0.79863551827123203 forward_v I I I I #
coedge $-1 $120 $121 $122 $123 reversed $47 $-1 #
face $-1 $-1 $124 $27 $-1 $125 forward single #
loop $-1 $126 $127 $49 #
cone-surface $-1 -52.877499164504606 19.693285139626127 3.1528305839227819 0.79863551827123203 0 -0.60181501223851219 0.15045375305962805 0 0.19965887956780801 1 I I -0.70710678118654746 0.70710678118654746 0.25 forward I I I I #
loop $-1 $-1 $128 $35 #
coedge $-1 $80 $80 $129 $130 reversed $50 $-1 #
face $-1 $-1 $131 $28 $-1 $132 forward single #
loop $-1 $133 $134 $52 #
cone-surface $-1 -52.877499164504606 22.612499755755572 3.1528305839227819 0.79863551827123203 0 -0.60181501223851219 0.15045375305962805 0 0.19965887956780801 1 I I -0.70710678118654746 0.70710678118654746 0.25 forward I I I I #
loop $-1 $-1 $135 $36 #
coedge $-1 $85 $85 $136 $137 reversed $53 $-1 #
face $-1 $138 $139 $29 $-1 $140 reversed single #
loop $-1 $-1 $141 $55 #
plane-surface $-1 -11.403579665985276 21.152892447690853 90.602038080551225 0.79863551827123203 0 0.60181501223851219 0.60181501223851219 0 -0.79863551827123203 forward_v I I I I #
coedge $-1 $142 $143 $144 $145 reversed $56 $-1 #
face $-1 $-1 $146 $30 $-1 $147 forward single #
loop $-1 $148 $149 $58 #
cone-surface $-1 52.877499164504613 19.693285139626127 3.1528305839227784 -0.79863551827123203 0 -0.60181501223851219 0.15045375305962805 0 -0.19965887956780801 1 I I -0.70710678118654746 0.70710678118654746 0.25 forward I I I I #
loop $-1 $-1 $150 $38 #
coedge $-1 $94 $94 $151 $152 reversed $59 $-1 #
face $-1 $-1 $153 $31 $-1 $154 forward single #
loop $-1 $155 $156 $61 #
cone-surface $-1 52.877499164504613 22.612499755755572 3.1528305839227784 -0.79863551827123203 0 -0.60181501223851219 0.15045375305962805 0 -0.19965887956780801 1 I I -0.70710678118654746 0.70710678118654746 0.25 forward I I I I #
loop $-1 $-1 $157 $39 #
coedge $-1 $99 $99 $158 $159 reversed $62 $-1 #
face $-1 $160 $161 $24 $-1 $162 reversed single #
loop $-1 $-1 $163 $64 #
plane-surface $-1 0 0 -6.7071394650044738 0 0 1 1 0 0 forward_v I I I I #
coedge $-1 $164 $165 $166 $167 forward $65 $-1 #
coedge $-1 $168 $67 $169 $170 reversed $41 $-1 #
coedge $-1 $67 $168 $171 $172 forward $41 $-1 #
coedge $-1 $173 $163 $67 $107 forward $101 $-1 #
edge $-1 $174 -56.001464888454848 $175 56.001464888454848 $67 $176 forward 7 unknown #
face $-1 $177 $178 $25 $-1 $179 reversed single #
loop $-1 $-1 $180 $68 #
plane-surface $-1 -52.102814933171253 -30.32024491381479 0 0 1 0 0 0 1 forward_v I I I I #
coedge $-1 $181 $182 $113 $183 forward $69 $-1 #
coedge $-1 $184 $71 $185 $186 reversed $44 $-1 #
coedge $-1 $71 $184 $111 $183 reversed $44 $-1 #
coedge $-1 $187 $188 $71 $115 reversed $178 $-1 #
edge $-1 $189 -6.7071394650044738 $190 6.7071394650044738 $114 $191 forward 7 unknown #
face $-1 $192 $193 $26 $-1 $194 forward single #
loop $-1 $-1 $195 $72 #
plane-surface $-1 -56.001464888454848 0 0 1 0 0 0 0 -1 forward_v I I I I #
coedge $-1 $196 $197 $198 $199 reversed $73 $-1 #
coedge $-1 $121 $75 $200 $201 reversed $47 $-1 #
coedge $-1 $75 $120 $196 $202 reversed $47 $-1 #
coedge $-1 $198 $203 $75 $123 forward $193 $-1 #
edge $-1 $204 16.724026490911911 $205 20.909732208086737 $122 $206 forward 7 unknown #
loop $-1 $-1 $129 $76 #
plane-surface $-1 -56.001464888454834 21.152892447690853 1.1525202102725558 -0.79863551827123203 0 0.60181501223851219 0.60181501223851219 0 0.79863551827123203 forward_v I I I I #
loop $-1 $-1 $207 $49 #
coedge $-1 $127 $127 $128 $208 reversed $77 $-1 #
coedge $-1 $128 $128 $127 $208 forward $79 $-1 #
coedge $-1 $129 $129 $80 $130 forward $124 $-1 #
edge $-1 $209 0 $209 6.2831853071796004 $129 $210 forward 7 unknown #
loop $-1 $-1 $136 $81 #
plane-surface $-1 -56.001464888454834 21.152892447690853 1.1525202102725558 -0.79863551827123203 0 0.60181501223851219 0.60181501223851219 0 0.79863551827123203 forward_v I I I I #
loop $-1 $-1 $211 $52 #
coedge $-1 $134 $134 $135 $212 reversed $82 $-1 #
coedge $-1 $135 $135 $134 $212 forward $84 $-1 #
coedge $-1 $136 $136 $85 $137 forward $131 $-1 #
edge $-1 $213 0 $213 6.2831853071796004 $136 $214 forward 7 unknown #
face $-1 $215 $216 $29 $-1 $217 forward single #
loop $-1 $-1 $218 $86 #
plane-surface $-1 0 24.558642833175206 0 0 -1 0 0 0 -1 forward_v I I I I #
coedge $-1 $219 $220 $221 $222 reversed $87 $-1 #
coedge $-1 $143 $89 $223 $224 reversed $56 $-1 #
coedge $-1 $89 $142 $219 $225 reversed $56 $-1 #
coedge $-1 $221 $226 $89 $145 forward $227 $-1 #
edge $-1 $228 72.296401852491201 $229 77.851021107223119 $144 $230 forward 7 unknown #
loop $-1 $-1 $151 $90 #
plane-surface $-1 -11.403579665985276 21.152892447690853 90.602038080551225 0.79863551827123203 0 0.60181501223851219 0.60181501223851219 0 -0.79863551827123203 forward_v I I I I #
loop $-1 $-1 $231 $58 #
coedge $-1 $149 $149 $150 $232 reversed $91 $-1 #
coedge $-1 $150 $150 $149 $232 forward $93 $-1 #
coedge $-1 $151 $151 $94 $152 forward $146 $-1 #
edge $-1 $233 0 $233 6.2831853071796004 $151 $234 forward 7 unknown #
loop $-1 $-1 $158 $95 #
plane-surface $-1 -11.403579665985276 21.152892447690853 90.602038080551225 0.79863551827123203 0 0.60181501223851219 0.60181501223851219 0 -0.79863551827123203 forward_v I I I I #
loop $-1 $-1 $235 $61 #
coedge $-1 $156 $156 $157 $236 reversed $96 $-1 #
coedge $-1 $157 $157 $156 $236 forward $98 $-1 #
coedge $-1 $158 $158 $99 $159 forward $153 $-1 #
edge $-1 $237 0 $237 6.2831853071796004 $158 $238 forward 7 unknown #
face $-1 $239 $240 $24 $-1 $241 reversed single #
loop $-1 $-1 $242 $100 #
plane-surface $-1 -56.001464888454848 0 0 1 0 0 0 0 -1 forward_v I I I I #
coedge $-1 $106 $243 $244 $245 forward $101 $-1 #
coedge $-1 $246 $103 $247 $248 forward $65 $-1 #
coedge $-1 $103 $246 $168 $249 forward $65 $-1 #
coedge $-1 $169 $250 $103 $167 reversed $251 $-1 #
edge $-1 $252 -24.558642833175206 $253 24.558642833175206 $166 $254 forward 7 unknown #
coedge $-1 $105 $104 $165 $249 reversed $41 $-1 #
coedge $-1 $244 $166 $104 $170 forward $251 $-1 #
edge $-1 $252 -6.7071394650044738 $174 6.7071394650044738 $169 $255 forward 7 unknown #
coedge $-1 $256 $257 $105 $172 reversed $161 $-1 #
edge $-1 $258 -6.7071394650044738 $175 6.7071394650044738 $171 $259 forward 7 unknown #
coedge $-1 $243 $106 $257 $260 forward $101 $-1 #
vertex $-1 $170 $261 #
vertex $-1 $260 $262 #
straight-curve $-1 0 -24.558642833175206 -6.7071394650044738 -1 0 0 I I #
face $-1 $263 $264 $25 $-1 $265 reversed single #
loop $-1 $-1 $114 $108 #
plane-surface $-1 -53.602814933171253 -27.439443873494998 0 1 0 0 0 0 -1 forward_v I I I I #
coedge $-1 $266 $267 $268 $269 forward $109 $-1 #
coedge $-1 $270 $111 $271 $272 forward $69 $-1 #
coedge $-1 $111 $270 $187 $273 forward $69 $-1 #
edge $-1 $189 -53.602814933171253 $274 -50.602814933171253 $111 $275 forward 7 unknown #
coedge $-1 $113 $112 $276 $277 forward $44 $-1 #
coedge $-1 $278 $279 $112 $186 forward $280 $-1 #
edge $-1 $281 50.602814933171253 $190 53.602814933171253 $185 $282 forward 7 unknown #
coedge $-1 $268 $114 $182 $273 reversed $178 $-1 #
coedge $-1 $114 $268 $278 $283 reversed $178 $-1 #
vertex $-1 $183 $284 #
vertex $-1 $283 $285 #
straight-curve $-1 -53.602814933171253 -24.558642833175206 0 0 0 1 I I #
face $-1 $-1 $286 $26 $-1 $287 reversed single #
loop $-1 $-1 $198 $116 #
plane-surface $-1 0 0 6.7071394650044738 0 0 1 1 0 0 forward_v I I I I #
coedge $-1 $200 $288 $289 $290 forward $117 $-1 #
coedge $-1 $289 $119 $121 $202 forward $73 $-1 #
coedge $-1 $119 $289 $291 $292 reversed $73 $-1 #
coedge $-1 $293 $122 $119 $199 forward $193 $-1 #
edge $-1 $205 7.1706958383610697 $294 13.982196609329783 $198 $295 forward 7 unknown #
coedge $-1 $296 $195 $120 $201 forward $117 $-1 #
edge $-1 $297 -33.126262172083806 $204 -27.571642917351866 $200 $298 forward 7 unknown #
edge $-1 $205 -6.9551367647105593 $297 2.3625585895707848e-014 $121 $299 forward 7 unknown #
coedge $-1 $122 $293 $296 $300 forward $193 $-1 #
vertex $-1 $201 $301 #
vertex $-1 $123 $302 #
straight-curve $-1 -72.725491379366758 17.747142062206496 6.7071394650044738 1 0 0 I I #
coedge $-1 $207 $207 $-1 $303 reversed $126 $-1 #
edge $-1 $304 0 $304 6.2831853071796004 $127 $305 forward 7 unknown #
vertex $-1 $130 $306 #
ellipse-curve $-1 -53.908612029867435 19.693285139626127 3.9298298376385046 -0.79863551827123203 0 0.60181501223851219 0.3009075061192561 0 0.39931775913561601 1 I I #
coedge $-1 $211 $211 $-1 $307 reversed $133 $-1 #
edge $-1 $308 0 $308 6.2831853071796004 $134 $309 forward 7 unknown #
vertex $-1 $137 $310 #
ellipse-curve $-1 -53.908612029867435 22.612499755755572 3.9298298376385046 -0.79863551827123203 0 0.60181501223851219 0.3009075061192561 0 0.39931775913561601 1 I I #
face $-1 $-1 $227 $29 $-1 $311 reversed single #
loop $-1 $-1 $312 $138 #
plane-surface $-1 0 0 6.7071394650044738 0 0 1 1 0 0 forward_v I I I I #
coedge $-1 $313 $314 $220 $315 forward $139 $-1 #
coedge $-1 $316 $141 $143 $225 forward $87 $-1 #
coedge $-1 $141 $316 $218 $315 reversed $87 $-1 #
coedge $-1 $317 $144 $141 $222 forward $227 $-1 #
edge $-1 $229 7.1706958383610697 $318 13.98219660932978 $221 $319 forward 7 unknown #
coedge $-1 $320 $312 $142 $224 forward $216 $-1 #
edge $-1 $321 12.792790069133332 $228 16.978495786308144 $223 $322 forward 7 unknown #
edge $-1 $229 -112.00292977690967 $321 -105.04779301219912 $143 $323 forward 7 unknown #
coedge $-1 $144 $317 $320 $324 reversed $227 $-1 #
loop $-1 $-1 $221 $215 #
vertex $-1 $324 $325 #
vertex $-1 $145 $326 #
straight-curve $-1 56.001464888454848 17.747142062206496 79.003541317495674 0 0 -1 I I #
coedge $-1 $231 $231 $-1 $327 reversed $148 $-1 #
edge $-1 $328 0 $328 6.2831853071796004 $149 $329 forward 7 unknown #
vertex $-1 $152 $330 #
ellipse-curve $-1 53.908612029867449 19.693285139626127 3.9298298376385032 0.79863551827123203 0 0.60181501223851219 0.3009075061192561 0 -0.39931775913561601 1 I I #
coedge $-1 $235 $235 $-1 $331 reversed $155 $-1 #
edge $-1 $332 0 $332 6.2831853071796004 $156 $333 forward 7 unknown #
vertex $-1 $159 $334 #
ellipse-curve $-1 53.908612029867449 22.612499755755572 3.9298298376385032 0.79863551827123203 0 0.60181501223851219 0.3009075061192561 0 -0.39931775913561601 1 I I #
face $-1 $-1 $251 $24 $-1 $335 reversed single #
loop $-1 $-1 $336 $160 #
plane-surface $-1 0 24.558642833175206 0 0 -1 0 0 0 -1 forward_v I I I I #
coedge $-1 $257 $256 $337 $338 forward $161 $-1 #
coedge $-1 $163 $173 $339 $340 forward $101 $-1 #
coedge $-1 $250 $169 $163 $245 reversed $251 $-1 #
edge $-1 $341 -24.558642833175206 $174 24.558642833175206 $244 $342 forward 7 unknown #
coedge $-1 $165 $164 $256 $343 forward $65 $-1 #
coedge $-1 $336 $337 $164 $248 reversed $240 $-1 #
edge $-1 $253 -56.001464888454848 $344 56.001464888454848 $247 $345 forward 7 unknown #
edge $-1 $258 -56.001464888454848 $252 56.001464888454848 $168 $346 forward 7 unknown #
coedge $-1 $166 $244 $336 $347 reversed $251 $-1 #
loop $-1 $-1 $169 $239 #
vertex $-1 $167 $348 #
vertex $-1 $167 $349 #
straight-curve $-1 56.001464888454848 0 6.7071394650044738 0 1 0 I I #
straight-curve $-1 56.001464888454848 -24.558642833175206 0 0 0 -1 I I #
coedge $-1 $242 $171 $246 $343 reversed $161 $-1 #
coedge $-1 $171 $242 $173 $260 reversed $161 $-1 #
vertex $-1 $343 $350 #
straight-curve $-1 -56.001464888454848 -24.558642833175206 0 0 0 -1 I I #
edge $-1 $175 -24.558642833175206 $351 24.558642833175206 $257 $352 forward 7 unknown #
point $-1 56.001464888454848 -24.558642833175206 -6.7071394650044738 #
point $-1 -56.001464888454848 -24.558642833175206 -6.7071394650044738 #
face $-1 $-1 $280 $25 $-1 $353 forward single #
loop $-1 $-1 $354 $177 #
plane-surface $-1 -50.602814933171253 -27.439443873494998 0 -1 0 0 0 0 1 forward_v I I I I #
coedge $-1 $355 $180 $270 $356 reversed $109 $-1 #
coedge $-1 $180 $355 $357 $358 reversed $109 $-1 #
coedge $-1 $188 $187 $180 $269 reversed $178 $-1 #
edge $-1 $359 -6.7071394650044738 $360 6.7071394650044738 $268 $361 forward 7 unknown #
coedge $-1 $182 $181 $266 $356 forward $69 $-1 #
coedge $-1 $276 $354 $181 $272 reversed $264 $-1 #
edge $-1 $274 -2.8808010403197919 $362 2.8808010403197919 $271 $363 forward 7 unknown #
edge $-1 $360 -2.8808010403197919 $189 2.8808010403197919 $187 $364 forward 7 unknown #
vertex $-1 $272 $365 #
straight-curve $-1 0 -24.558642833175206 -6.7071394650044738 1 0 0 I I #
coedge $-1 $366 $271 $184 $277 reversed $264 $-1 #
edge $-1 $281 -6.7071394650044738 $274 6.7071394650044738 $276 $367 forward 7 unknown #
coedge $-1 $357 $185 $188 $283 forward $280 $-1 #
coedge $-1 $185 $357 $366 $368 forward $280 $-1 #
loop $-1 $-1 $185 $263 #
vertex $-1 $186 $369 #
straight-curve $-1 0 -24.558642833175206 6.7071394650044738 -1 0 0 I I #
edge $-1 $190 -2.8808010403197919 $359 2.8808010403197919 $188 $370 forward 7 unknown #
point $-1 -53.602814933171253 -24.558642833175206 -6.7071394650044738 #
point $-1 -53.602814933171253 -24.558642833175206 6.7071394650044738 #
loop $-1 $-1 $291 $192 #
plane-surface $-1 0 24.558642833175206 0 0 -1 0 0 0 -1 forward_v I I I I #
coedge $-1 $195 $296 $371 $372 forward $117 $-1 #
coedge $-1 $197 $196 $195 $290 reversed $73 $-1 #
edge $-1 $373 -13.982196609329783 $297 -7.1706958383610697 $195 $374 forward 7 unknown #
coedge $-1 $371 $375 $197 $292 forward $286 $-1 #
edge $-1 $294 9.4359025861749224 $373 16.391039350885507 $291 $376 forward 7 unknown #
coedge $-1 $203 $198 $375 $377 forward $193 $-1 #
vertex $-1 $377 $378 #
straight-curve $-1 -51.815759171280014 10.576446223845426 6.7071394650044738 0 1 0 I I #
coedge $-1 $288 $200 $203 $300 reversed $117 $-1 #
vertex $-1 $201 $379 #
straight-curve $-1 -56.001464888454848 17.747142062206496 34.27878238235634 0 0 1 I I #
straight-curve $-1 -56.001464888454834 17.747142062206496 1.1525202102725558 -0.60181501223851219 0 -0.79863551827123203 I I #
edge $-1 $380 -24.558642833175206 $204 -17.747142062206496 $296 $381 forward 7 unknown #
point $-1 -56.001464888454848 17.747142062206496 6.7071394650044738 #
point $-1 -51.815759171280021 17.747142062206496 6.7071394650044738 #
edge $-1 $382 1 $382 0 $207 $-1 forward 7 unknown #
vertex $-1 $208 $383 #
ellipse-curve $-1 -53.077158044072412 19.693285139626127 3.3032843369824101 -0.79863551827123203 0 0.60181501223851219 0.3009075061192561 0 0.39931775913561601 1 I I #
point $-1 -53.607704523748183 19.693285139626127 4.3291475967741277 #
edge $-1 $384 1 $384 0 $211 $-1 forward 7 unknown #
vertex $-1 $212 $385 #
ellipse-curve $-1 -53.077158044072412 22.612499755755572 3.3032843369824101 -0.79863551827123203 0 0.60181501223851219 0.3009075061192561 0 0.39931775913561601 1 I I #
point $-1 -53.607704523748183 22.612499755755572 4.3291475967741277 #
plane-surface $-1 56.001464888454848 0 0 -1 0 0 0 0 1 forward_v I I I I #
coedge $-1 $223 $386 $316 $387 forward $216 $-1 #
coedge $-1 $314 $218 $386 $388 reversed $139 $-1 #
coedge $-1 $218 $313 $317 $389 forward $139 $-1 #
edge $-1 $318 -72.39250423934034 $390 -65.437367474629752 $218 $391 forward 7 unknown #
coedge $-1 $220 $219 $312 $387 reversed $87 $-1 #
coedge $-1 $226 $221 $314 $389 reversed $227 $-1 #
vertex $-1 $222 $392 #
straight-curve $-1 56.001464888454848 10.576446223845426 1.1525202102725487 0 1 0 I I #
coedge $-1 $386 $223 $226 $324 forward $216 $-1 #
vertex $-1 $224 $393 #
straight-curve $-1 39.022969102146703 17.747142062206496 6.7071394650044738 1 0 0 I I #
straight-curve $-1 -11.403579665985276 17.747142062206496 90.602038080551225 -0.60181501223851219 0 0.79863551827123203 I I #
edge $-1 $228 17.747142062206496 $394 24.558642833175206 $226 $395 forward 7 unknown #
point $-1 56.001464888454848 17.747142062206496 6.7071394650044738 #
point $-1 56.001464888454848 17.747142062206496 1.1525202102725558 #
edge $-1 $396 1 $396 0 $231 $-1 forward 7 unknown #
vertex $-1 $232 $397 #
ellipse-curve $-1 53.077158044072419 19.693285139626127 3.3032843369824065 0.79863551827123203 0 0.60181501223851219 0.3009075061192561 0 -0.39931775913561601 1 I I #
point $-1 54.209519535986701 19.693285139626127 3.5305120785028916 #
edge $-1 $398 1 $398 0 $235 $-1 forward 7 unknown #
vertex $-1 $236 $399 #
ellipse-curve $-1 53.077158044072419 22.612499755755572 3.3032843369824065 0.79863551827123203 0 0.60181501223851219 0.3009075061192561 0 -0.39931775913561601 1 I I #
point $-1 54.209519535986701 22.612499755755572 3.5305120785028916 #
plane-surface $-1 56.001464888454848 0 0 -1 0 0 0 0 1 forward_v I I I I #
coedge $-1 $339 $247 $250 $347 forward $240 $-1 #
coedge $-1 $247 $339 $242 $338 reversed $240 $-1 #
edge $-1 $344 -6.7071394650044738 $351 6.7071394650044738 $337 $400 forward 7 unknown #
coedge $-1 $337 $336 $243 $340 reversed $240 $-1 #
edge $-1 $351 -56.001464888454848 $341 56.001464888454848 $339 $401 forward 7 unknown #
vertex $-1 $245 $402 #
straight-curve $-1 56.001464888454848 0 -6.7071394650044738 0 -1 0 I I #
edge $-1 $344 -24.558642833175206 $258 24.558642833175206 $256 $403 forward 7 unknown #
vertex $-1 $248 $404 #
straight-curve $-1 0 24.558642833175206 6.7071394650044738 -1 0 0 I I #
straight-curve $-1 0 -24.558642833175206 6.7071394650044738 1 0 0 I I #
edge $-1 $253 -6.7071394650044738 $341 6.7071394650044738 $250 $405 forward 7 unknown #
point $-1 56.001464888454848 -24.558642833175206 6.7071394650044738 #
point $-1 56.001464888454848 24.558642833175206 6.7071394650044738 #
point $-1 -56.001464888454848 -24.558642833175206 6.7071394650044738 #
vertex $-1 $340 $406 #
straight-curve $-1 -56.001464888454848 0 -6.7071394650044738 0 1 0 I I #
plane-surface $-1 0 0 6.7071394650044738 0 0 1 1 0 0 forward_v I I I I #
coedge $-1 $271 $366 $355 $407 forward $264 $-1 #
coedge $-1 $267 $266 $354 $407 reversed $109 $-1 #
edge $-1 $362 -1.5 $360 1.5 $266 $408 forward 7 unknown #
coedge $-1 $279 $278 $267 $358 forward $280 $-1 #
edge $-1 $359 -1.5 $409 1.5 $267 $410 forward 7 unknown #
vertex $-1 $283 $411 #
vertex $-1 $273 $412 #
straight-curve $-1 -53.602814933171253 -30.32024491381479 0 0 0 -1 I I #
vertex $-1 $407 $413 #
straight-curve $-1 -50.602814933171253 -27.439443873494998 -6.7071394650044738 0 -1 0 I I #
straight-curve $-1 -53.602814933171253 -27.439443873494998 -6.7071394650044738 0 1 0 I I #
point $-1 -50.602814933171253 -24.558642833175206 -6.7071394650044738 #
coedge $-1 $354 $276 $279 $368 reversed $264 $-1 #
straight-curve $-1 -50.602814933171253 -24.558642833175206 0 0 0 -1 I I #
edge $-1 $409 -2.8808010403197919 $281 2.8808010403197919 $366 $414 forward 7 unknown #
point $-1 -50.602814933171253 -24.558642833175206 6.7071394650044738 #
straight-curve $-1 -53.602814933171253 -27.439443873494998 6.7071394650044738 0 -1 0 I I #
coedge $-1 $375 $291 $288 $372 reversed $286 $-1 #
edge $-1 $380 -6.7071394650044738 $373 -1.1525202102725369 $371 $415 forward 7 unknown #
vertex $-1 $292 $416 #
straight-curve $-1 -56.001464888454848 10.576446223845426 1.1525202102725367 0 -1 0 I I #
coedge $-1 $291 $371 $293 $377 reversed $286 $-1 #
straight-curve $-1 -46.137091340899751 24.558642833175206 14.24298641727114 -0.60181501223851219 0 -0.79863551827123203 I I #
edge $-1 $294 51.815759171280021 $380 56.001464888454848 $375 $417 forward 7 unknown #
point $-1 -51.815759171280021 24.55864283317521 6.7071394650044738 #
point $-1 -56.001464888454848 17.747142062206496 1.1525202102725369 #
vertex $-1 $377 $418 #
straight-curve $-1 -56.001464888454848 0 6.7071394650044738 0 -1 0 I I #
vertex $-1 $303 $419 #
point $-1 -52.77625053795316 19.693285139626127 3.7026020961180262 #
vertex $-1 $307 $420 #
point $-1 -52.77625053795316 22.612499755755572 3.7026020961180262 #
coedge $-1 $312 $320 $313 $388 forward $216 $-1 #
edge $-1 $390 -13.982196609329783 $321 -7.1706958383610697 $312 $421 forward 7 unknown #
edge $-1 $394 -56.001464888454848 $390 -51.815759171280035 $313 $422 forward 7 unknown #
edge $-1 $394 -6.7071394650044738 $318 -1.1525202102725445 $317 $423 forward 7 unknown #
vertex $-1 $387 $424 #
straight-curve $-1 12.434569063679699 24.558642833175206 58.967745352410475 -0.60181501223851219 0 0.79863551827123203 I I #
point $-1 56.001464888454848 24.558642833175206 1.1525202102725445 #
point $-1 51.815759171280035 17.747142062206496 6.7071394650044738 #
vertex $-1 $324 $425 #
straight-curve $-1 56.001464888454848 0 6.7071394650044738 0 1 0 I I #
vertex $-1 $327 $426 #
point $-1 53.378065550191678 19.693285139626127 2.9039665778467905 #
vertex $-1 $331 $427 #
point $-1 53.378065550191678 22.612499755755572 2.9039665778467905 #
straight-curve $-1 -56.001464888454848 24.558642833175206 0 0 0 -1 I I #
straight-curve $-1 0 24.558642833175206 -6.7071394650044738 1 0 0 I I #
point $-1 56.001464888454848 24.558642833175206 -6.7071394650044738 #
straight-curve $-1 -56.001464888454848 0 6.7071394650044738 0 -1 0 I I #
point $-1 -56.001464888454848 24.558642833175206 6.7071394650044738 #
straight-curve $-1 56.001464888454848 24.558642833175206 0 0 0 -1 I I #
point $-1 -56.001464888454848 24.558642833175206 -6.7071394650044738 #
edge $-1 $409 -6.7071394650044738 $362 6.7071394650044738 $354 $428 forward 7 unknown #
straight-curve $-1 -52.102814933171253 -30.32024491381479 -6.7071394650044738 -1 0 0 I I #
vertex $-1 $368 $429 #
straight-curve $-1 -52.102814933171253 -30.32024491381479 6.7071394650044738 1 0 0 I I #
point $-1 -53.602814933171253 -30.32024491381479 6.7071394650044738 #
point $-1 -53.602814933171253 -30.32024491381479 -6.7071394650044738 #
point $-1 -50.602814933171253 -30.32024491381479 -6.7071394650044738 #
straight-curve $-1 -50.602814933171253 -27.439443873494998 6.7071394650044738 0 1 0 I I #
straight-curve $-1 -56.001464888454848 24.558642833175206 0 0 0 -1 I I #
point $-1 -56.001464888454848 24.55864283317521 1.1525202102725369 #
straight-curve $-1 0 24.558642833175206 6.7071394650044738 -1 0 0 I I #
point $-1 -56.001464888454848 24.558642833175206 6.7071394650044738 #
point $-1 -52.677840284936799 19.693285139626127 3.0023768308631538 #
point $-1 -52.677840284936799 22.612499755755572 3.0023768308631538 #
straight-curve $-1 51.815759171280028 10.576446223845426 6.7071394650044738 0 -1 0 I I #
straight-curve $-1 0 24.558642833175206 6.7071394650044738 -1 0 0 I I #
straight-curve $-1 56.001464888454848 24.558642833175206 0 0 0 -1 I I #
point $-1 51.815759171280035 24.55864283317521 6.7071394650044738 #
point $-1 56.001464888454848 24.558642833175206 6.7071394650044738 #
point $-1 52.677840284936806 19.693285139626127 3.0023768308631502 #
point $-1 52.677840284936806 22.612499755755572 3.0023768308631502 #
straight-curve $-1 -50.602814933171253 -30.32024491381479 0 0 0 -1 I I #
point $-1 -50.602814933171253 -30.32024491381479 6.7071394650044738 #
End-of-ACIS-data 