500 0 6 0           
7 Unknown 11 ACIS 5.0 NT 24 Thu Mar 25 15:39:59 1999 
-1 9.9999999999999995e-007 1e-010 
body $-1 $6 $-1 $7 #
body $-1 $8 $-1 $9 #
body $-1 $10 $-1 $11 #
body $-1 $12 $-1 $13 #
body $-1 $14 $-1 $15 #
body $-1 $16 $-1 $17 #
lump $-1 $-1 $18 $0 #
transform $-1 1 0 0 0 1 0 0 0 1 50.559404278695027 21.328239435489667 10.4530308768705 1 rotate no_reflect no_shear #
lump $-1 $-1 $19 $1 #
transform $-1 1 0 0 0 1 0 0 0 1 50.559404278695027 21.328239435489667 10.4530308768705 1 rotate no_reflect no_shear #
lump $-1 $-1 $20 $2 #
transform $-1 1 0 0 0 1 0 0 0 1 50.559404278695027 21.328239435489667 10.4530308768705 1 rotate no_reflect no_shear #
lump $-1 $-1 $21 $3 #
transform $-1 1 0 0 0 1 0 0 0 1 50.559404278695027 21.328239435489667 10.4530308768705 1 rotate no_reflect no_shear #
lump $-1 $-1 $22 $4 #
transform $-1 1 0 0 0 1 0 0 0 1 50.559404278695027 21.328239435489667 10.4530308768705 1 rotate no_reflect no_shear #
lump $-1 $-1 $23 $5 #
transform $-1 1 0 0 0 1 0 0 0 1 50.559404278695027 21.328239435489667 10.4530308768705 1 rotate no_reflect no_shear #
shell $-1 $-1 $-1 $24 $-1 $6 #
shell $-1 $-1 $-1 $25 $-1 $8 #
shell $-1 $-1 $-1 $26 $-1 $10 #
shell $-1 $-1 $-1 $27 $-1 $12 #
shell $-1 $-1 $-1 $28 $-1 $14 #
shell $-1 $-1 $-1 $29 $-1 $16 #
face $-1 $30 $31 $18 $-1 $32 forward single #
face $-1 $33 $34 $19 $-1 $35 forward single #
face $-1 $36 $37 $20 $-1 $38 reversed single #
face $-1 $39 $40 $21 $-1 $41 reversed single #
face $-1 $42 $43 $22 $-1 $44 forward single #
face $-1 $45 $46 $23 $-1 $47 forward single #
face $-1 $48 $49 $18 $-1 $50 reversed single #
loop $-1 $-1 $51 $24 #
plane-surface $-1 0 0 10.4530308768705 0 0 1 1 0 0 forward_v I I I I #
face $-1 $52 $53 $19 $-1 $54 reversed single #
loop $-1 $-1 $55 $25 #
plane-surface $-1 0 -14.555988476231994 9.7016396933201641 0 0 1 1 0 0 forward_v I I I I #
face $-1 $56 $57 $20 $-1 $58 forward single #
loop $-1 $-1 $59 $26 #
plane-surface $-1 0 7.7837375169743179 8.2016396933201641 0 1 0 0 0 1 forward_v I I I I #
face $-1 $60 $61 $21 $-1 $62 reversed single #
loop $-1 $-1 $63 $27 #
plane-surface $-1 15.963705702996535 1.9317408607456983 143.24392277783841 0 1 0 0.51503808176128008 0 0.85716729658548041 forward_v I I I I #
face $-1 $64 $65 $22 $-1 $66 forward single #
loop $-1 $67 $68 $28 #
cone-surface $-1 45.338270751680462 3.6037399053824473 7.0420067018281731 -0.51503808176128008 0 -0.85716729658548041 0.4285836482927402 0 -0.25751904088064004 1 I I 0 1 0.5 forward I I I I #
face $-1 $69 $70 $23 $-1 $71 forward single #
loop $-1 $72 $73 $29 #
cone-surface $-1 45.338270751680462 6.1117384723375707 7.0420067018281731 -0.51503808176128008 0 -0.85716729658548041 0.4285836482927402 0 -0.25751904088064004 1 I I 0 1 0.5 forward I I I I #
face $-1 $74 $75 $18 $-1 $76 reversed single #
loop $-1 $-1 $77 $30 #
plane-surface $-1 0 0 -10.4530308768705 0 0 1 1 0 0 forward_v I I I I #
coedge $-1 $78 $79 $80 $81 forward $31 $-1 #
face $-1 $82 $83 $19 $-1 $84 reversed single #
loop $-1 $-1 $85 $33 #
plane-surface $-1 0 -14.555988476231994 6.7016396933201641 0 0 1 1 0 0 forward_v I I I I #
coedge $-1 $86 $87 $88 $89 reversed $34 $-1 #
face $-1 $90 $91 $20 $-1 $92 reversed single #
loop $-1 $-1 $93 $36 #
plane-surface $-1 0 14.555988476231992 9.7016396933201641 0 0 1 1 0 0 forward_v I I I I #
coedge $-1 $94 $95 $96 $97 reversed $37 $-1 #
face $-1 $98 $99 $21 $-1 $100 forward single #
loop $-1 $-1 $101 $39 #
plane-surface $-1 -36.11633148638775 4.857739188860009 56.568187012755629 0.51503808176128008 0 0.85716729658548041 0.85716729658548041 0 -0.51503808176128008 forward_v I I I I #
coedge $-1 $102 $103 $104 $105 reversed $40 $-1 #
face $-1 $-1 $106 $22 $-1 $107 forward single #
loop $-1 $108 $109 $42 #
cone-surface $-1 44.951992190359505 3.6037399053824473 6.399131229389063 -0.51503808176128008 0 -0.85716729658548041 0.2142918241463701 0 -0.12875952044032002 1 I I -0.70710678118654746 0.70710678118654746 0.25 forward I I I I #
loop $-1 $-1 $110 $28 #
coedge $-1 $68 $68 $111 $112 reversed $43 $-1 #
face $-1 $-1 $113 $23 $-1 $114 forward single #
loop $-1 $115 $116 $45 #
cone-surface $-1 44.951992190359505 6.1117384723375707 6.399131229389063 -0.51503808176128008 0 -0.85716729658548041 0.2142918241463701 0 -0.12875952044032002 1 I I -0.70710678118654746 0.70710678118654746 0.25 forward I I I I #
loop $-1 $-1 $117 $29 #
coedge $-1 $73 $73 $118 $119 reversed $46 $-1 #
face $-1 $120 $121 $18 $-1 $122 reversed single #
loop $-1 $-1 $123 $48 #
plane-surface $-1 0 -21.328239435489667 0 0 1 0 0 0 1 forward_v I I I I #
coedge $-1 $124 $125 $126 $127 forward $49 $-1 #
coedge $-1 $128 $51 $129 $130 forward $31 $-1 #
coedge $-1 $51 $128 $131 $132 forward $31 $-1 #
coedge $-1 $133 $134 $51 $81 reversed $135 $-1 #
edge $-1 $136 -21.328239435489667 $137 21.328239435489667 $80 $138 forward 7 unknown #
face $-1 $139 $140 $19 $-1 $141 reversed single #
loop $-1 $-1 $142 $52 #
plane-surface $-1 0 -7.7837375169743197 8.2016396933201641 0 -1 0 0 0 -1 forward_v I I I I #
coedge $-1 $143 $144 $145 $146 reversed $53 $-1 #
coedge $-1 $147 $55 $148 $149 forward $34 $-1 #
coedge $-1 $55 $147 $150 $151 reversed $34 $-1 #
coedge $-1 $152 $153 $55 $89 forward $154 $-1 #
edge $-1 $155 0.50574327885832293 $156 14.05024519737367 $88 $157 forward 7 unknown #
face $-1 $158 $159 $20 $-1 $160 reversed single #
loop $-1 $-1 $161 $56 #
plane-surface $-1 0 14.555988476231992 6.7016396933201641 0 0 1 1 0 0 forward_v I I I I #
coedge $-1 $162 $96 $163 $164 reversed $57 $-1 #
coedge $-1 $165 $59 $166 $167 reversed $37 $-1 #
coedge $-1 $59 $165 $168 $169 reversed $37 $-1 #
coedge $-1 $93 $170 $59 $97 forward $57 $-1 #
edge $-1 $171 -50.559404278695027 $172 50.559404278695027 $59 $173 forward 7 unknown #
face $-1 $174 $175 $21 $-1 $176 reversed single #
loop $-1 $-1 $177 $60 #
plane-surface $-1 0 0 10.4530308768705 0 0 1 1 0 0 forward_v I I I I #
coedge $-1 $178 $179 $180 $181 reversed $61 $-1 #
coedge $-1 $103 $63 $182 $183 reversed $40 $-1 #
coedge $-1 $63 $102 $178 $184 reversed $40 $-1 #
coedge $-1 $180 $185 $63 $105 forward $175 $-1 #
edge $-1 $186 61.168930512048703 $187 67.133811565547859 $104 $188 forward 7 unknown #
loop $-1 $-1 $111 $64 #
plane-surface $-1 -36.11633148638775 4.857739188860009 56.568187012755629 0.51503808176128008 0 0.85716729658548041 0.85716729658548041 0 -0.51503808176128008 forward_v I I I I #
loop $-1 $-1 $189 $42 #
coedge $-1 $109 $109 $110 $190 reversed $65 $-1 #
coedge $-1 $110 $110 $109 $190 forward $67 $-1 #
coedge $-1 $111 $111 $68 $112 forward $106 $-1 #
edge $-1 $191 0 $191 6.2831853071796004 $111 $192 forward 7 unknown #
loop $-1 $-1 $118 $69 #
plane-surface $-1 -36.11633148638775 4.857739188860009 56.568187012755629 0.51503808176128008 0 0.85716729658548041 0.85716729658548041 0 -0.51503808176128008 forward_v I I I I #
loop $-1 $-1 $193 $45 #
coedge $-1 $116 $116 $117 $194 reversed $70 $-1 #
coedge $-1 $117 $117 $116 $194 forward $72 $-1 #
coedge $-1 $118 $118 $73 $119 forward $113 $-1 #
edge $-1 $195 0 $195 6.2831853071796004 $118 $196 forward 7 unknown #
face $-1 $197 $198 $18 $-1 $199 reversed single #
loop $-1 $-1 $200 $74 #
plane-surface $-1 -50.559404278695027 0 0 1 0 0 0 0 -1 forward_v I I I I #
coedge $-1 $201 $131 $202 $203 forward $75 $-1 #
coedge $-1 $204 $77 $201 $205 forward $49 $-1 #
coedge $-1 $77 $204 $206 $207 forward $49 $-1 #
coedge $-1 $134 $133 $77 $127 reversed $135 $-1 #
edge $-1 $208 -21.328239435489667 $209 21.328239435489667 $126 $210 forward 7 unknown #
coedge $-1 $79 $78 $211 $212 forward $31 $-1 #
coedge $-1 $213 $214 $78 $130 reversed $198 $-1 #
edge $-1 $137 -50.559404278695027 $215 50.559404278695027 $129 $216 forward 7 unknown #
coedge $-1 $123 $217 $79 $132 reversed $75 $-1 #
edge $-1 $218 -50.559404278695027 $136 50.559404278695027 $131 $219 forward 7 unknown #
coedge $-1 $126 $80 $217 $220 forward $135 $-1 #
coedge $-1 $80 $126 $213 $221 reversed $135 $-1 #
loop $-1 $-1 $133 $197 #
vertex $-1 $81 $222 #
vertex $-1 $81 $223 #
straight-curve $-1 50.559404278695027 0 10.4530308768705 0 1 0 I I #
face $-1 $224 $225 $19 $-1 $226 reversed single #
loop $-1 $-1 $227 $82 #
plane-surface $-1 -50.559404278695027 0 0 1 0 0 0 0 -1 forward_v I I I I #
coedge $-1 $228 $148 $153 $229 reversed $83 $-1 #
coedge $-1 $230 $85 $231 $232 reversed $53 $-1 #
coedge $-1 $85 $230 $228 $233 forward $53 $-1 #
coedge $-1 $153 $152 $85 $146 forward $154 $-1 #
edge $-1 $234 -14.05024519737367 $235 -0.50574327885832293 $145 $236 forward 7 unknown #
coedge $-1 $87 $86 $227 $237 reversed $34 $-1 #
coedge $-1 $142 $238 $86 $149 reversed $83 $-1 #
edge $-1 $155 -50.559404278695027 $239 50.559404278695027 $148 $240 forward 7 unknown #
coedge $-1 $241 $242 $87 $151 forward $225 $-1 #
edge $-1 $156 -50.559404278695027 $243 50.559404278695027 $150 $244 forward 7 unknown #
coedge $-1 $145 $88 $242 $245 forward $154 $-1 #
coedge $-1 $88 $145 $142 $229 forward $154 $-1 #
loop $-1 $-1 $88 $224 #
vertex $-1 $89 $246 #
vertex $-1 $245 $247 #
straight-curve $-1 50.559404278695027 -7.2779942381159968 9.7016396933201641 0 -1 0 I I #
face $-1 $248 $249 $20 $-1 $250 reversed single #
loop $-1 $-1 $163 $90 #
plane-surface $-1 50.559404278695027 0 0 -1 0 0 0 0 1 forward_v I I I I #
coedge $-1 $251 $252 $253 $254 reversed $91 $-1 #
coedge $-1 $170 $93 $255 $256 reversed $57 $-1 #
coedge $-1 $168 $257 $93 $164 forward $159 $-1 #
edge $-1 $258 -14.050245197373668 $172 -0.50574327885832204 $163 $259 forward 7 unknown #
coedge $-1 $95 $94 $251 $260 reversed $37 $-1 #
coedge $-1 $261 $262 $94 $167 forward $249 $-1 #
edge $-1 $263 2.600819846660082 $171 5.600819846660082 $166 $264 forward 7 unknown #
coedge $-1 $253 $163 $95 $169 forward $159 $-1 #
edge $-1 $172 -5.600819846660082 $265 -2.600819846660082 $168 $266 forward 7 unknown #
coedge $-1 $96 $162 $261 $267 reversed $57 $-1 #
vertex $-1 $267 $268 #
vertex $-1 $164 $269 #
straight-curve $-1 0 7.7837375169743179 9.7016396933201641 1 0 0 I I #
face $-1 $-1 $270 $21 $-1 $271 forward single #
loop $-1 $-1 $272 $98 #
plane-surface $-1 50.559404278695027 0 0 -1 0 0 0 0 1 forward_v I I I I #
coedge $-1 $273 $274 $275 $276 forward $99 $-1 #
coedge $-1 $277 $101 $103 $184 forward $61 $-1 #
coedge $-1 $101 $277 $278 $279 forward $61 $-1 #
coedge $-1 $272 $104 $101 $181 forward $175 $-1 #
edge $-1 $187 -0.49712873368430621 $280 5.3548679225443152 $180 $281 forward 7 unknown #
coedge $-1 $274 $273 $102 $183 forward $99 $-1 #
edge $-1 $282 32.650322454928933 $186 42.577551427196759 $182 $283 forward 7 unknown #
edge $-1 $187 -101.11880855739005 $282 -89.537371640917769 $103 $284 forward 7 unknown #
coedge $-1 $104 $272 $274 $285 reversed $175 $-1 #
vertex $-1 $285 $286 #
vertex $-1 $105 $287 #
straight-curve $-1 50.559404278695027 1.9317408607456983 71.621961388919203 0 0 -1 I I #
coedge $-1 $189 $189 $-1 $288 reversed $108 $-1 #
edge $-1 $289 0 $289 6.2831853071796004 $109 $290 forward 7 unknown #
vertex $-1 $112 $291 #
ellipse-curve $-1 45.595789792561106 3.6037399053824473 7.4705903501209256 0.51503808176128008 0 0.85716729658548041 0.4285836482927402 0 -0.25751904088064004 1 I I #
coedge $-1 $193 $193 $-1 $292 reversed $115 $-1 #
edge $-1 $293 0 $293 6.2831853071796004 $116 $294 forward 7 unknown #
vertex $-1 $119 $295 #
ellipse-curve $-1 45.595789792561106 6.1117384723375707 7.4705903501209256 0.51503808176128008 0 0.85716729658548041 0.4285836482927402 0 -0.25751904088064004 1 I I #
face $-1 $-1 $135 $18 $-1 $296 reversed single #
loop $-1 $-1 $213 $120 #
plane-surface $-1 0 21.328239435489667 0 0 -1 0 0 0 -1 forward_v I I I I #
coedge $-1 $297 $211 $214 $298 forward $121 $-1 #
coedge $-1 $217 $123 $124 $205 reversed $75 $-1 #
coedge $-1 $211 $297 $123 $203 reversed $121 $-1 #
edge $-1 $218 -10.4530308768705 $299 10.4530308768705 $202 $300 forward 7 unknown #
coedge $-1 $125 $124 $297 $301 forward $49 $-1 #
edge $-1 $209 -50.559404278695027 $299 50.559404278695027 $201 $302 forward 7 unknown #
coedge $-1 $214 $213 $125 $207 reversed $198 $-1 #
edge $-1 $303 -50.559404278695027 $208 50.559404278695027 $206 $304 forward 7 unknown #
vertex $-1 $127 $305 #
vertex $-1 $220 $306 #
straight-curve $-1 50.559404278695027 0 -10.4530308768705 0 -1 0 I I #
coedge $-1 $200 $202 $128 $212 reversed $121 $-1 #
edge $-1 $215 -21.328239435489667 $218 21.328239435489667 $211 $307 forward 7 unknown #
coedge $-1 $206 $129 $134 $221 forward $198 $-1 #
coedge $-1 $129 $206 $200 $298 reversed $198 $-1 #
vertex $-1 $130 $308 #
straight-curve $-1 0 21.328239435489667 10.4530308768705 -1 0 0 I I #
coedge $-1 $131 $201 $133 $220 reversed $75 $-1 #
vertex $-1 $212 $309 #
straight-curve $-1 0 -21.328239435489667 10.4530308768705 1 0 0 I I #
edge $-1 $136 -10.4530308768705 $209 10.4530308768705 $133 $310 forward 7 unknown #
edge $-1 $137 -10.4530308768705 $208 10.4530308768705 $134 $311 forward 7 unknown #
point $-1 50.559404278695027 -21.328239435489667 10.4530308768705 #
point $-1 50.559404278695027 21.328239435489667 10.4530308768705 #
face $-1 $-1 $154 $19 $-1 $312 reversed single #
loop $-1 $-1 $150 $139 #
plane-surface $-1 0 -21.328239435489667 0 0 1 0 0 0 1 forward_v I I I I #
coedge $-1 $313 $314 $147 $237 forward $140 $-1 #
coedge $-1 $238 $142 $144 $233 reversed $83 $-1 #
edge $-1 $235 2.600819846660082 $155 5.600819846660082 $153 $315 forward 7 unknown #
coedge $-1 $144 $143 $316 $317 reversed $53 $-1 #
coedge $-1 $242 $241 $143 $232 forward $225 $-1 #
edge $-1 $318 -50.559404278695027 $234 50.559404278695027 $231 $319 forward 7 unknown #
edge $-1 $320 -50.559404278695027 $235 50.559404278695027 $228 $321 forward 7 unknown #
vertex $-1 $232 $322 #
vertex $-1 $146 $323 #
straight-curve $-1 50.559404278695027 -7.2779942381159968 6.7016396933201641 0 1 0 I I #
edge $-1 $243 -14.05024519737367 $239 -0.50574327885832293 $227 $324 forward 7 unknown #
coedge $-1 $148 $228 $313 $325 reversed $83 $-1 #
vertex $-1 $237 $326 #
straight-curve $-1 0 -7.7837375169743197 9.7016396933201641 -1 0 0 I I #
coedge $-1 $231 $150 $314 $327 forward $225 $-1 #
coedge $-1 $150 $231 $152 $245 reversed $225 $-1 #
vertex $-1 $327 $328 #
straight-curve $-1 0 -21.328239435489667 9.7016396933201641 -1 0 0 I I #
edge $-1 $156 -9.7016396933201641 $234 -6.7016396933201641 $152 $329 forward 7 unknown #
point $-1 50.559404278695027 -7.7837375169743197 9.7016396933201641 #
point $-1 50.559404278695027 -21.328239435489667 9.7016396933201641 #
face $-1 $-1 $330 $20 $-1 $331 reversed single #
loop $-1 $-1 $261 $158 #
plane-surface $-1 -50.559404278695027 0 0 1 0 0 0 0 -1 forward_v I I I I #
coedge $-1 $332 $161 $165 $260 forward $91 $-1 #
coedge $-1 $161 $332 $333 $334 reversed $91 $-1 #
coedge $-1 $257 $168 $161 $254 forward $159 $-1 #
edge $-1 $265 0.50574327885832204 $335 14.050245197373668 $253 $336 forward 7 unknown #
coedge $-1 $337 $338 $162 $256 forward $330 $-1 #
edge $-1 $339 -50.559404278695027 $258 50.559404278695027 $255 $340 forward 7 unknown #
coedge $-1 $163 $253 $337 $341 reversed $159 $-1 #
vertex $-1 $341 $342 #
straight-curve $-1 50.559404278695027 7.2779942381159959 9.7016396933201641 0 -1 0 I I #
edge $-1 $265 -50.559404278695027 $263 50.559404278695027 $165 $343 forward 7 unknown #
coedge $-1 $344 $166 $170 $267 forward $249 $-1 #
coedge $-1 $166 $344 $332 $345 forward $249 $-1 #
vertex $-1 $345 $346 #
straight-curve $-1 -50.559404278695027 7.7837375169743179 4.100819846660082 0 0 1 I I #
vertex $-1 $254 $347 #
straight-curve $-1 50.559404278695027 7.7837375169743179 4.100819846660082 0 0 -1 I I #
edge $-1 $171 0.50574327885832204 $339 14.050245197373668 $261 $348 forward 7 unknown #
point $-1 -50.559404278695027 7.7837375169743179 9.7016396933201641 #
point $-1 50.559404278695027 7.7837375169743179 9.7016396933201641 #
loop $-1 $-1 $278 $174 #
plane-surface $-1 0 7.7837375169743179 8.2016396933201641 0 1 0 0 0 1 forward_v I I I I #
coedge $-1 $185 $180 $349 $350 forward $175 $-1 #
coedge $-1 $182 $177 $277 $351 forward $99 $-1 #
coedge $-1 $177 $182 $185 $285 forward $99 $-1 #
coedge $-1 $349 $278 $177 $276 reversed $270 $-1 #
edge $-1 $352 -42.577551427196759 $353 -32.650322454928933 $177 $354 forward 7 unknown #
coedge $-1 $179 $178 $273 $351 reversed $61 $-1 #
coedge $-1 $275 $349 $179 $279 reversed $270 $-1 #
edge $-1 $353 89.537371640917769 $280 101.11880855739005 $278 $355 forward 7 unknown #
vertex $-1 $350 $356 #
straight-curve $-1 50.55940427869502 2.4288695944300045 4.4881498233713479 0 1 0 I I #
vertex $-1 $183 $357 #
straight-curve $-1 7.9818528514982674 1.9317408607456983 10.4530308768705 1 0 0 I I #
straight-curve $-1 -36.11633148638775 1.9317408607456983 56.568187012755629 -0.85716729658548041 0 0.51503808176128008 I I #
edge $-1 $186 1.9317408607456983 $352 7.7837375169743197 $185 $358 forward 7 unknown #
point $-1 50.559404278695027 1.9317408607456983 10.4530308768705 #
point $-1 50.559404278695027 1.9317408607456983 4.4881498233713444 #
edge $-1 $359 1 $359 0 $189 $-1 forward 7 unknown #
vertex $-1 $190 $360 #
ellipse-curve $-1 45.080751710799824 3.6037399053824473 6.613423053535433 0.51503808176128008 0 0.85716729658548041 0.4285836482927402 0 -0.25751904088064004 1 I I #
point $-1 46.024373440853843 3.6037399053824473 7.2130713092402736 #
edge $-1 $361 1 $361 0 $193 $-1 forward 7 unknown #
vertex $-1 $194 $362 #
ellipse-curve $-1 45.080751710799824 6.1117384723375707 6.613423053535433 0.51503808176128008 0 0.85716729658548041 0.4285836482927402 0 -0.25751904088064004 1 I I #
point $-1 46.024373440853843 6.1117384723375707 7.2130713092402736 #
plane-surface $-1 50.559404278695027 0 0 -1 0 0 0 0 1 forward_v I I I I #
coedge $-1 $202 $200 $204 $301 reversed $121 $-1 #
edge $-1 $215 -10.4530308768705 $303 10.4530308768705 $214 $363 forward 7 unknown #
vertex $-1 $301 $364 #
straight-curve $-1 -50.559404278695027 -21.328239435489667 0 0 0 -1 I I #
edge $-1 $299 -21.328239435489667 $303 21.328239435489667 $297 $365 forward 7 unknown #
straight-curve $-1 0 -21.328239435489667 -10.4530308768705 -1 0 0 I I #
vertex $-1 $207 $366 #
straight-curve $-1 0 21.328239435489667 -10.4530308768705 1 0 0 I I #
point $-1 50.559404278695027 21.328239435489667 -10.4530308768705 #
point $-1 50.559404278695027 -21.328239435489667 -10.4530308768705 #
straight-curve $-1 -50.559404278695027 0 10.4530308768705 0 -1 0 I I #
point $-1 -50.559404278695027 21.328239435489667 10.4530308768705 #
point $-1 -50.559404278695027 -21.328239435489667 10.4530308768705 #
straight-curve $-1 50.559404278695027 -21.328239435489667 0 0 0 -1 I I #
straight-curve $-1 50.559404278695027 21.328239435489667 0 0 0 -1 I I #
plane-surface $-1 50.559404278695027 0 0 -1 0 0 0 0 1 forward_v I I I I #
coedge $-1 $316 $227 $238 $325 forward $140 $-1 #
coedge $-1 $227 $316 $241 $327 reversed $140 $-1 #
straight-curve $-1 50.559404278695027 -7.7837375169743197 4.100819846660082 0 0 1 I I #
coedge $-1 $314 $313 $230 $317 forward $140 $-1 #
edge $-1 $320 0.50574327885832293 $318 14.05024519737367 $316 $367 forward 7 unknown #
vertex $-1 $232 $368 #
straight-curve $-1 0 -21.328239435489667 6.7016396933201641 1 0 0 I I #
vertex $-1 $317 $369 #
straight-curve $-1 0 -7.7837375169743197 6.7016396933201641 1 0 0 I I #
point $-1 50.559404278695027 -21.328239435489667 6.7016396933201641 #
point $-1 50.559404278695027 -7.7837375169743197 6.7016396933201641 #
straight-curve $-1 -50.559404278695027 -7.2779942381159968 9.7016396933201641 0 1 0 I I #
edge $-1 $239 -5.600819846660082 $320 -2.600819846660082 $313 $370 forward 7 unknown #
point $-1 -50.559404278695027 -7.7837375169743197 9.7016396933201641 #
edge $-1 $243 -9.7016396933201641 $318 -6.7016396933201641 $314 $371 forward 7 unknown #
point $-1 -50.559404278695027 -21.328239435489667 9.7016396933201641 #
straight-curve $-1 50.559404278695027 -21.328239435489667 0 0 0 -1 I I #
loop $-1 $-1 $255 $248 #
plane-surface $-1 0 21.328239435489667 0 0 -1 0 0 0 -1 forward_v I I I I #
coedge $-1 $252 $251 $262 $345 reversed $91 $-1 #
coedge $-1 $338 $337 $252 $334 forward $330 $-1 #
edge $-1 $335 -50.559404278695027 $372 50.559404278695027 $333 $373 forward 7 unknown #
vertex $-1 $334 $374 #
straight-curve $-1 50.559404278695027 7.2779942381159959 6.7016396933201641 0 1 0 I I #
coedge $-1 $333 $255 $257 $341 forward $330 $-1 #
coedge $-1 $255 $333 $344 $375 reversed $330 $-1 #
vertex $-1 $375 $376 #
straight-curve $-1 0 21.328239435489667 9.7016396933201641 1 0 0 I I #
edge $-1 $258 -9.7016396933201641 $335 -6.7016396933201641 $257 $377 forward 7 unknown #
point $-1 50.559404278695027 21.328239435489664 9.7016396933201641 #
straight-curve $-1 0 7.7837375169743179 6.7016396933201641 -1 0 0 I I #
coedge $-1 $262 $261 $338 $375 forward $249 $-1 #
edge $-1 $372 -14.050245197373668 $263 -0.50574327885832204 $262 $378 forward 7 unknown #
point $-1 -50.559404278695027 7.7837375169743179 6.7016396933201641 #
point $-1 50.559404278695027 7.7837375169743179 6.7016396933201641 #
straight-curve $-1 -50.559404278695027 7.2779942381159959 9.7016396933201641 0 1 0 I I #
coedge $-1 $278 $275 $272 $350 reversed $270 $-1 #
edge $-1 $280 -67.133811565547859 $352 -61.168930512048703 $272 $379 forward 7 unknown #
edge $-1 $353 -5.3548679225443152 $282 0.49712873368430621 $273 $380 forward 7 unknown #
vertex $-1 $276 $381 #
vertex $-1 $276 $382 #
straight-curve $-1 7.9818528514982674 7.7837375169743197 10.4530308768705 -1 0 0 I I #
straight-curve $-1 -36.11633148638775 7.7837375169743197 56.568187012755629 0.85716729658548041 0 -0.51503808176128008 I I #
point $-1 50.559404278695027 7.7837375169743197 4.4881498233713444 #
point $-1 40.6321753064272 1.9317408607456983 10.4530308768705 #
straight-curve $-1 50.559404278695027 0 10.4530308768705 0 1 0 I I #
vertex $-1 $288 $383 #
point $-1 45.509335359092567 3.6037399053824473 6.3559040126547934 #
vertex $-1 $292 $384 #
point $-1 45.509335359092567 6.1117384723375707 6.3559040126547934 #
straight-curve $-1 -50.559404278695027 21.328239435489667 0 0 0 -1 I I #
point $-1 -50.559404278695027 -21.328239435489667 -10.4530308768705 #
straight-curve $-1 -50.559404278695027 0 -10.4530308768705 0 1 0 I I #
point $-1 -50.559404278695027 21.328239435489667 -10.4530308768705 #
straight-curve $-1 -50.559404278695027 -7.2779942381159968 6.7016396933201641 0 -1 0 I I #
point $-1 -50.559404278695027 -21.328239435489667 6.7016396933201641 #
point $-1 -50.559404278695027 -7.7837375169743197 6.7016396933201641 #
straight-curve $-1 -50.559404278695027 -7.7837375169743197 4.100819846660082 0 0 -1 I I #
straight-curve $-1 -50.559404278695027 -21.328239435489667 0 0 0 -1 I I #
vertex $-1 $334 $385 #
straight-curve $-1 0 21.328239435489667 6.7016396933201641 -1 0 0 I I #
point $-1 50.559404278695027 21.328239435489664 6.7016396933201641 #
edge $-1 $339 -9.7016396933201641 $372 -6.7016396933201641 $338 $386 forward 7 unknown #
point $-1 -50.559404278695027 21.328239435489664 9.7016396933201641 #
straight-curve $-1 50.559404278695027 21.328239435489667 0 0 0 -1 I I #
straight-curve $-1 -50.559404278695027 7.2779942381159959 6.7016396933201641 0 -1 0 I I #
straight-curve $-1 50.559404278695027 7.7837375169743197 71.621961388919203 0 0 1 I I #
straight-curve $-1 40.6321753064272 2.4288695944300045 10.453030876870493 0 -1 0 I I #
point $-1 50.559404278695027 7.7837375169743197 10.4530308768705 #
point $-1 40.6321753064272 7.7837375169743197 10.4530308768705 #
point $-1 44.823232669919186 3.6037399053824473 6.1848394052426929 #
point $-1 44.823232669919186 6.1117384723375707 6.1848394052426929 #
point $-1 -50.559404278695027 21.328239435489664 6.7016396933201641 #
straight-curve $-1 -50.559404278695027 21.328239435489667 0 0 0 -1 I I #
End-of-ACIS-data 