500 0 15 0           
7 Unknown 11 ACIS 5.0 NT 24 Fri Mar 26 17:21:45 1999 
-1 9.9999999999999995e-007 1e-010 
body $-1 $15 $-1 $16 #
body $-1 $17 $-1 $18 #
body $-1 $19 $-1 $20 #
body $-1 $21 $-1 $22 #
body $-1 $23 $-1 $24 #
body $-1 $25 $-1 $26 #
body $-1 $27 $-1 $28 #
body $-1 $29 $-1 $30 #
body $-1 $31 $-1 $32 #
body $-1 $33 $-1 $34 #
body $-1 $35 $-1 $36 #
body $-1 $37 $-1 $38 #
body $-1 $39 $-1 $40 #
body $-1 $41 $-1 $42 #
body $-1 $43 $-1 $44 #
lump $-1 $-1 $45 $0 #
transform $-1 1 0 0 0 1 0 0 0 1 63.605456709494305 42.974204654341584 12.821702229750654 1 rotate no_reflect no_shear #
lump $-1 $-1 $46 $1 #
transform $-1 1 0 0 0 1 0 0 0 1 63.605456709494305 42.974204654341584 12.821702229750654 1 rotate no_reflect no_shear #
lump $-1 $-1 $47 $2 #
transform $-1 1 0 0 0 1 0 0 0 1 63.605456709494305 42.974204654341584 12.821702229750654 1 rotate no_reflect no_shear #
lump $-1 $-1 $48 $3 #
transform $-1 1 0 0 0 1 0 0 0 1 63.605456709494305 42.974204654341584 12.821702229750654 1 rotate no_reflect no_shear #
lump $-1 $-1 $49 $4 #
transform $-1 1 0 0 0 1 0 0 0 1 63.605456709494305 42.974204654341584 12.821702229750654 1 rotate no_reflect no_shear #
lump $-1 $-1 $50 $5 #
transform $-1 1 0 0 0 1 0 0 0 1 63.605456709494305 42.974204654341584 12.821702229750654 1 rotate no_reflect no_shear #
lump $-1 $-1 $51 $6 #
transform $-1 1 0 0 0 1 0 0 0 1 63.605456709494305 42.974204654341584 12.821702229750654 1 rotate no_reflect no_shear #
lump $-1 $-1 $52 $7 #
transform $-1 1 0 0 0 1 0 0 0 1 63.605456709494305 42.974204654341584 12.821702229750654 1 rotate no_reflect no_shear #
lump $-1 $-1 $53 $8 #
transform $-1 1 0 0 0 1 0 0 0 1 63.605456709494305 42.974204654341584 12.821702229750654 1 rotate no_reflect no_shear #
lump $-1 $-1 $54 $9 #
transform $-1 1 0 0 0 1 0 0 0 1 63.605456709494305 42.974204654341584 12.821702229750654 1 rotate no_reflect no_shear #
lump $-1 $-1 $55 $10 #
transform $-1 1 0 0 0 1 0 0 0 1 63.605456709494305 42.974204654341584 12.821702229750654 1 rotate no_reflect no_shear #
lump $-1 $-1 $56 $11 #
transform $-1 1 0 0 0 1 0 0 0 1 63.605456709494305 42.974204654341584 12.821702229750654 1 rotate no_reflect no_shear #
lump $-1 $-1 $57 $12 #
transform $-1 1 0 0 0 1 0 0 0 1 63.605456709494305 42.974204654341584 12.821702229750654 1 rotate no_reflect no_shear #
lump $-1 $-1 $58 $13 #
transform $-1 1 0 0 0 1 0 0 0 1 63.605456709494305 42.974204654341584 12.821702229750654 1 rotate no_reflect no_shear #
lump $-1 $-1 $59 $14 #
transform $-1 1 0 0 0 1 0 0 0 1 63.605456709494305 42.974204654341584 12.821702229750654 1 rotate no_reflect no_shear #
shell $-1 $-1 $-1 $60 $-1 $15 #
shell $-1 $-1 $-1 $61 $-1 $17 #
shell $-1 $-1 $-1 $62 $-1 $19 #
shell $-1 $-1 $-1 $63 $-1 $21 #
shell $-1 $-1 $-1 $64 $-1 $23 #
shell $-1 $-1 $-1 $65 $-1 $25 #
shell $-1 $-1 $-1 $66 $-1 $27 #
shell $-1 $-1 $-1 $67 $-1 $29 #
shell $-1 $-1 $-1 $68 $-1 $31 #
shell $-1 $-1 $-1 $69 $-1 $33 #
shell $-1 $-1 $-1 $70 $-1 $35 #
shell $-1 $-1 $-1 $71 $-1 $37 #
shell $-1 $-1 $-1 $72 $-1 $39 #
shell $-1 $-1 $-1 $73 $-1 $41 #
shell $-1 $-1 $-1 $74 $-1 $43 #
face $-1 $75 $76 $45 $-1 $77 forward single #
face $-1 $78 $79 $46 $-1 $80 forward single #
face $-1 $81 $82 $47 $-1 $83 forward single #
face $-1 $84 $85 $48 $-1 $86 reversed single #
face $-1 $87 $88 $49 $-1 $89 forward single #
face $-1 $90 $91 $50 $-1 $92 forward single #
face $-1 $93 $94 $51 $-1 $95 reversed single #
face $-1 $96 $97 $52 $-1 $98 forward single #
face $-1 $99 $100 $53 $-1 $101 forward single #
face $-1 $102 $103 $54 $-1 $104 reversed single #
face $-1 $105 $106 $55 $-1 $107 forward single #
face $-1 $108 $109 $56 $-1 $110 forward single #
face $-1 $111 $112 $57 $-1 $113 reversed single #
face $-1 $114 $115 $58 $-1 $116 forward single #
face $-1 $117 $118 $59 $-1 $119 forward single #
face $-1 $120 $121 $45 $-1 $122 reversed single #
loop $-1 $-1 $123 $60 #
plane-surface $-1 0 0 12.821702229750654 0 0 1 1 0 0 forward_v I I I I #
face $-1 $124 $125 $46 $-1 $126 reversed single #
loop $-1 $-1 $127 $61 #
plane-surface $-1 -63.605456709494305 0 0 1 0 0 0 0 -1 forward_v I I I I #
face $-1 $128 $129 $47 $-1 $130 reversed single #
loop $-1 $-1 $131 $62 #
plane-surface $-1 63.605456709494305 0 0 -1 0 0 0 0 1 forward_v I I I I #
face $-1 $132 $133 $48 $-1 $134 reversed single #
loop $-1 $-1 $135 $63 #
plane-surface $-1 -14.508867519343358 48.213181146649156 154.46761531673496 1 0 0 0 -0.5877852598018023 -0.80901698891910034 forward_v I I I I #
face $-1 $136 $137 $49 $-1 $138 forward single #
loop $-1 $139 $140 $64 #
cone-surface $-1 -10.363476799530972 33.879656954488993 5.5763701623005222 0 -0.5877852598018023 -0.80901698891910034 1 0 0 1 I I 0 1 1 forward I I I I #
face $-1 $141 $142 $50 $-1 $143 forward single #
loop $-1 $144 $145 $65 #
cone-surface $-1 -4.1453907198123972 33.879656954488993 5.5763701623005222 0 -0.5877852598018023 -0.80901698891910034 1 0 0 1 I I 0 1 1 forward I I I I #
face $-1 $146 $147 $51 $-1 $148 reversed single #
loop $-1 $-1 $149 $66 #
plane-surface $-1 39.666058354546848 48.213181146649156 154.46761531673496 1 0 0 0 -0.5877852598018023 -0.80901698891910034 forward_v I I I I #
face $-1 $150 $151 $52 $-1 $152 forward single #
loop $-1 $153 $154 $67 #
cone-surface $-1 43.811449074359231 33.879656954488993 5.5763701623005222 0 -0.5877852598018023 -0.80901698891910034 1 0 0 1 I I 0 1 1 forward I I I I #
face $-1 $155 $156 $53 $-1 $157 forward single #
loop $-1 $158 $159 $68 #
cone-surface $-1 50.029535154077806 33.879656954488993 5.5763701623005222 0 -0.5877852598018023 -0.80901698891910034 1 0 0 1 I I 0 1 1 forward I I I I #
face $-1 $160 $161 $54 $-1 $162 reversed single #
loop $-1 $-1 $163 $69 #
plane-surface $-1 -21.013721246174445 -153.14208829778926 70.320313654161822 -1 0 0 0 -0.86602541151947299 0.49999998660252726 forward_v I I I I #
face $-1 $164 $165 $55 $-1 $166 forward single #
loop $-1 $167 $168 $70 #
cone-surface $-1 -30.567298622411194 -39.106573325185884 8.5531097208613733 0 0.86602541151947299 -0.49999998660252726 1.5 0 0 1 I I 0 1 1.5 forward I I I I #
face $-1 $169 $170 $56 $-1 $171 forward single #
loop $-1 $172 $173 $71 #
cone-surface $-1 -24.835152196669142 -39.106573325185884 8.5531097208613733 0 0.86602541151947299 -0.49999998660252726 1.5 0 0 1 I I 0 1 1.5 forward I I I I #
face $-1 $174 $175 $57 $-1 $176 reversed single #
loop $-1 $-1 $177 $72 #
plane-surface $-1 34.388729572905888 -153.14208829778926 70.320313654161822 -1 0 0 0 -0.86602541151947299 0.49999998660252726 forward_v I I I I #
face $-1 $178 $179 $58 $-1 $180 forward single #
loop $-1 $181 $182 $73 #
cone-surface $-1 24.835152196669128 -39.106573325185884 8.5531097208613733 0 0.86602541151947299 -0.49999998660252726 1.5 0 0 1 I I 0 1 1.5 forward I I I I #
face $-1 $183 $184 $59 $-1 $185 forward single #
loop $-1 $186 $187 $74 #
cone-surface $-1 30.567298622411172 -39.106573325185884 8.5531097208613733 0 0.86602541151947299 -0.49999998660252726 1.5 0 0 1 I I 0 1 1.5 forward I I I I #
face $-1 $188 $189 $45 $-1 $190 reversed single #
loop $-1 $-1 $191 $75 #
plane-surface $-1 0 0 -12.821702229750654 0 0 1 1 0 0 forward_v I I I I #
coedge $-1 $192 $193 $194 $195 forward $76 $-1 #
face $-1 $196 $197 $46 $-1 $198 forward single #
loop $-1 $-1 $199 $78 #
plane-surface $-1 0 42.974204654341584 0 0 -1 0 0 0 -1 forward_v I I I I #
coedge $-1 $200 $201 $202 $203 forward $79 $-1 #
face $-1 $204 $205 $47 $-1 $206 forward single #
loop $-1 $-1 $207 $81 #
plane-surface $-1 0 -42.974204654341584 0 0 1 0 0 0 1 forward_v I I I I #
coedge $-1 $208 $209 $210 $211 forward $82 $-1 #
face $-1 $212 $213 $48 $-1 $214 reversed single #
loop $-1 $-1 $215 $84 #
plane-surface $-1 -7.2544337596716844 -26.559518646955645 51.551825184856412 0 0.5877852598018023 0.80901698891910034 1 0 0 forward_v I I I I #
coedge $-1 $216 $217 $218 $219 reversed $85 $-1 #
face $-1 $-1 $220 $49 $-1 $221 forward single #
loop $-1 $222 $223 $87 #
cone-surface $-1 -10.363476799530972 32.60435828913301 3.8210721703659534 0 -0.5877852598018023 -0.80901698891910034 0.5 0 0 1 I I -0.70710678118654746 0.70710678118654746 0.5 forward I I I I #
loop $-1 $-1 $224 $64 #
coedge $-1 $140 $140 $225 $226 reversed $88 $-1 #
face $-1 $-1 $227 $50 $-1 $228 forward single #
loop $-1 $229 $230 $90 #
cone-surface $-1 -4.1453907198123972 32.60435828913301 3.8210721703659534 0 -0.5877852598018023 -0.80901698891910034 0.5 0 0 1 I I -0.70710678118654746 0.70710678118654746 0.5 forward I I I I #
loop $-1 $-1 $231 $65 #
coedge $-1 $145 $145 $232 $233 reversed $91 $-1 #
face $-1 $234 $235 $51 $-1 $236 reversed single #
loop $-1 $-1 $237 $93 #
plane-surface $-1 46.920492114218519 -26.559518646955645 51.551825184856412 0 0.5877852598018023 0.80901698891910034 1 0 0 forward_v I I I I #
coedge $-1 $238 $239 $240 $241 reversed $94 $-1 #
face $-1 $-1 $242 $52 $-1 $243 forward single #
loop $-1 $244 $245 $96 #
cone-surface $-1 43.811449074359231 32.60435828913301 3.8210721703659534 0 -0.5877852598018023 -0.80901698891910034 0.5 0 0 1 I I -0.70710678118654746 0.70710678118654746 0.5 forward I I I I #
loop $-1 $-1 $246 $67 #
coedge $-1 $154 $154 $247 $248 reversed $97 $-1 #
face $-1 $-1 $249 $53 $-1 $250 forward single #
loop $-1 $251 $252 $99 #
cone-surface $-1 50.029535154077806 32.60435828913301 3.8210721703659534 0 -0.5877852598018023 -0.80901698891910034 0.5 0 0 1 I I -0.70710678118654746 0.70710678118654746 0.5 forward I I I I #
loop $-1 $-1 $253 $68 #
coedge $-1 $159 $159 $254 $255 reversed $100 $-1 #
face $-1 $256 $257 $54 $-1 $258 reversed single #
loop $-1 $-1 $259 $102 #
plane-surface $-1 -27.701225409540172 -42.974204654341591 6.7148586489722604 0 -0.86602541151947299 0.49999998660252726 1 0 0 forward_v I I I I #
coedge $-1 $260 $261 $262 $263 reversed $103 $-1 #
face $-1 $-1 $264 $55 $-1 $265 forward single #
loop $-1 $266 $267 $105 #
cone-surface $-1 -30.567298622411194 -36.352316767039056 6.9629390124093948 0 0.86602541151947299 -0.49999998660252726 0.75 0 0 1 I I -0.70710678118654757 0.70710678118654757 0.75 forward I I I I #
loop $-1 $-1 $268 $70 #
coedge $-1 $168 $168 $269 $270 reversed $106 $-1 #
face $-1 $-1 $271 $56 $-1 $272 forward single #
loop $-1 $273 $274 $108 #
cone-surface $-1 -24.835152196669142 -36.352316767039056 6.9629390124093948 0 0.86602541151947299 -0.49999998660252726 0.75 0 0 1 I I -0.70710678118654757 0.70710678118654757 0.75 forward I I I I #
loop $-1 $-1 $275 $71 #
coedge $-1 $173 $173 $276 $277 reversed $109 $-1 #
face $-1 $278 $279 $57 $-1 $280 reversed single #
loop $-1 $-1 $281 $111 #
plane-surface $-1 27.701225409540157 -42.974204654341591 6.7148586489722604 0 -0.86602541151947299 0.49999998660252726 1 0 0 forward_v I I I I #
coedge $-1 $282 $283 $284 $285 reversed $112 $-1 #
face $-1 $-1 $286 $58 $-1 $287 forward single #
loop $-1 $288 $289 $114 #
cone-surface $-1 24.835152196669128 -36.352316767039056 6.9629390124093948 0 0.86602541151947299 -0.49999998660252726 0.75 0 0 1 I I -0.70710678118654757 0.70710678118654757 0.75 forward I I I I #
loop $-1 $-1 $290 $73 #
coedge $-1 $182 $182 $291 $292 reversed $115 $-1 #
face $-1 $-1 $293 $59 $-1 $294 forward single #
loop $-1 $295 $296 $117 #
cone-surface $-1 30.567298622411172 -36.352316767039056 6.9629390124093948 0 0.86602541151947299 -0.49999998660252726 0.75 0 0 1 I I -0.70710678118654757 0.70710678118654757 0.75 forward I I I I #
loop $-1 $-1 $297 $74 #
coedge $-1 $187 $187 $298 $299 reversed $118 $-1 #
face $-1 $300 $301 $45 $-1 $302 reversed single #
loop $-1 $-1 $303 $120 #
plane-surface $-1 0 -42.974204654341584 0 0 1 0 0 0 1 forward_v I I I I #
coedge $-1 $304 $305 $306 $307 forward $121 $-1 #
coedge $-1 $308 $123 $309 $310 forward $76 $-1 #
coedge $-1 $123 $308 $311 $312 forward $76 $-1 #
coedge $-1 $313 $314 $123 $195 reversed $315 $-1 #
edge $-1 $316 -42.974204654341584 $317 42.974204654341584 $194 $318 forward 7 unknown #
face $-1 $319 $320 $46 $-1 $321 reversed single #
loop $-1 $-1 $202 $124 #
plane-surface $-1 -68.320722127296349 0 10.97534189706094 0 0 1 1 0 0 forward_v I I I I #
coedge $-1 $322 $323 $201 $324 forward $125 $-1 #
coedge $-1 $325 $127 $326 $327 reversed $79 $-1 #
coedge $-1 $127 $325 $199 $324 reversed $79 $-1 #
coedge $-1 $328 $329 $127 $203 reversed $197 $-1 #
edge $-1 $330 -42.974204654341584 $331 42.974204654341584 $202 $332 forward 7 unknown #
face $-1 $333 $334 $47 $-1 $335 reversed single #
loop $-1 $-1 $336 $128 #
plane-surface $-1 68.320722127296349 0 10.97534189706094 0 0 1 1 0 0 forward_v I I I I #
coedge $-1 $337 $338 $209 $339 forward $129 $-1 #
coedge $-1 $340 $131 $341 $342 reversed $82 $-1 #
coedge $-1 $131 $340 $207 $339 reversed $82 $-1 #
coedge $-1 $343 $344 $131 $211 reversed $205 $-1 #
edge $-1 $345 -42.974204654341584 $346 42.974204654341584 $210 $347 forward 7 unknown #
face $-1 $348 $349 $48 $-1 $350 reversed single #
loop $-1 $-1 $351 $132 #
plane-surface $-1 -1.0658141036401503e-014 48.213181146649156 154.46761531673496 -1 0 0 0 0.5877852598018023 0.80901698891910034 forward_v I I I I #
coedge $-1 $352 $353 $354 $355 reversed $133 $-1 #
coedge $-1 $217 $135 $356 $357 reversed $85 $-1 #
coedge $-1 $135 $216 $352 $358 reversed $85 $-1 #
coedge $-1 $354 $359 $135 $219 forward $360 $-1 #
edge $-1 $361 -18.867614081017006 $362 -2.6413307522219718 $218 $363 forward 7 unknown #
loop $-1 $-1 $225 $136 #
plane-surface $-1 -7.2544337596716844 -26.559518646955645 51.551825184856412 0 0.5877852598018023 0.80901698891910034 1 0 0 forward_v I I I I #
loop $-1 $-1 $364 $87 #
coedge $-1 $223 $223 $224 $365 reversed $137 $-1 #
coedge $-1 $224 $224 $223 $365 forward $139 $-1 #
coedge $-1 $225 $225 $140 $226 forward $220 $-1 #
edge $-1 $366 1.0441163663475846e-015 $366 6.2831853071796013 $225 $367 forward 7 unknown #
loop $-1 $-1 $232 $141 #
plane-surface $-1 -7.2544337596716844 -26.559518646955645 51.551825184856412 0 0.5877852598018023 0.80901698891910034 1 0 0 forward_v I I I I #
loop $-1 $-1 $368 $90 #
coedge $-1 $230 $230 $231 $369 reversed $142 $-1 #
coedge $-1 $231 $231 $230 $369 forward $144 $-1 #
coedge $-1 $232 $232 $145 $233 forward $227 $-1 #
edge $-1 $370 1.0441163663475846e-015 $370 6.2831853071796013 $232 $371 forward 7 unknown #
face $-1 $372 $373 $51 $-1 $374 forward single #
loop $-1 $-1 $375 $146 #
plane-surface $-1 54.174925873890189 48.213181146649156 154.46761531673496 -1 0 0 0 0.5877852598018023 0.80901698891910034 forward_v I I I I #
coedge $-1 $376 $377 $378 $379 reversed $147 $-1 #
coedge $-1 $239 $149 $380 $381 reversed $94 $-1 #
coedge $-1 $149 $238 $376 $382 reversed $94 $-1 #
coedge $-1 $378 $383 $149 $241 forward $373 $-1 #
edge $-1 $384 -18.867614081017006 $385 -2.6413307522219718 $240 $386 forward 7 unknown #
loop $-1 $-1 $247 $150 #
plane-surface $-1 46.920492114218519 -26.559518646955645 51.551825184856412 0 0.5877852598018023 0.80901698891910034 1 0 0 forward_v I I I I #
loop $-1 $-1 $387 $96 #
coedge $-1 $245 $245 $246 $388 reversed $151 $-1 #
coedge $-1 $246 $246 $245 $388 forward $153 $-1 #
coedge $-1 $247 $247 $154 $248 forward $242 $-1 #
edge $-1 $389 1.0441163663475846e-015 $389 6.2831853071796013 $247 $390 forward 7 unknown #
loop $-1 $-1 $254 $155 #
plane-surface $-1 46.920492114218519 -26.559518646955645 51.551825184856412 0 0.5877852598018023 0.80901698891910034 1 0 0 forward_v I I I I #
loop $-1 $-1 $391 $99 #
coedge $-1 $252 $252 $253 $392 reversed $156 $-1 #
coedge $-1 $253 $253 $252 $392 forward $158 $-1 #
coedge $-1 $254 $254 $159 $255 forward $249 $-1 #
edge $-1 $393 1.0441163663475846e-015 $393 6.2831853071796013 $254 $394 forward 7 unknown #
face $-1 $395 $396 $54 $-1 $397 forward single #
loop $-1 $-1 $398 $160 #
plane-surface $-1 -34.388729572905902 -153.14208829778926 70.320313654161822 1 0 0 0 0.86602541151947299 -0.49999998660252726 forward_v I I I I #
coedge $-1 $399 $400 $401 $402 reversed $161 $-1 #
coedge $-1 $261 $163 $403 $404 reversed $103 $-1 #
coedge $-1 $163 $260 $399 $405 reversed $103 $-1 #
coedge $-1 $401 $406 $163 $263 forward $396 $-1 #
edge $-1 $407 33.596839494553045 $408 37.122627153849997 $262 $409 forward 7 unknown #
loop $-1 $-1 $269 $164 #
plane-surface $-1 -27.701225409540172 -42.974204654341591 6.7148586489722604 0 -0.86602541151947299 0.49999998660252726 1 0 0 forward_v I I I I #
loop $-1 $-1 $410 $105 #
coedge $-1 $267 $267 $268 $411 reversed $165 $-1 #
coedge $-1 $268 $268 $267 $411 forward $167 $-1 #
coedge $-1 $269 $269 $168 $270 forward $264 $-1 #
edge $-1 $412 2.3684757224038211e-015 $412 6.2831853071796031 $269 $413 forward 7 unknown #
loop $-1 $-1 $276 $169 #
plane-surface $-1 -27.701225409540172 -42.974204654341591 6.7148586489722604 0 -0.86602541151947299 0.49999998660252726 1 0 0 forward_v I I I I #
loop $-1 $-1 $414 $108 #
coedge $-1 $274 $274 $275 $415 reversed $170 $-1 #
coedge $-1 $275 $275 $274 $415 forward $172 $-1 #
coedge $-1 $276 $276 $173 $277 forward $271 $-1 #
edge $-1 $416 2.3684757224038211e-015 $416 6.2831853071796031 $276 $417 forward 7 unknown #
face $-1 $418 $419 $57 $-1 $420 reversed single #
loop $-1 $-1 $421 $174 #
plane-surface $-1 21.01372124617443 -153.14208829778926 70.320313654161822 1 0 0 0 0.86602541151947299 -0.49999998660252726 forward_v I I I I #
coedge $-1 $422 $423 $424 $425 reversed $175 $-1 #
coedge $-1 $283 $177 $426 $427 reversed $112 $-1 #
coedge $-1 $177 $282 $422 $428 reversed $112 $-1 #
coedge $-1 $424 $429 $177 $285 forward $430 $-1 #
edge $-1 $431 33.596839494553045 $432 37.122627153849997 $284 $433 forward 7 unknown #
loop $-1 $-1 $291 $178 #
plane-surface $-1 27.701225409540157 -42.974204654341591 6.7148586489722604 0 -0.86602541151947299 0.49999998660252726 1 0 0 forward_v I I I I #
loop $-1 $-1 $434 $114 #
coedge $-1 $289 $289 $290 $435 reversed $179 $-1 #
coedge $-1 $290 $290 $289 $435 forward $181 $-1 #
coedge $-1 $291 $291 $182 $292 forward $286 $-1 #
edge $-1 $436 2.3684757224038211e-015 $436 6.2831853071796031 $291 $437 forward 7 unknown #
loop $-1 $-1 $298 $183 #
plane-surface $-1 27.701225409540157 -42.974204654341591 6.7148586489722604 0 -0.86602541151947299 0.49999998660252726 1 0 0 forward_v I I I I #
loop $-1 $-1 $438 $117 #
coedge $-1 $296 $296 $297 $439 reversed $184 $-1 #
coedge $-1 $297 $297 $296 $439 forward $186 $-1 #
coedge $-1 $298 $298 $187 $299 forward $293 $-1 #
edge $-1 $440 2.3684757224038211e-015 $440 6.2831853071796031 $298 $441 forward 7 unknown #
face $-1 $442 $443 $45 $-1 $444 reversed single #
loop $-1 $-1 $445 $188 #
plane-surface $-1 -63.605456709494305 0 0 1 0 0 0 0 -1 forward_v I I I I #
coedge $-1 $446 $311 $447 $448 forward $189 $-1 #
coedge $-1 $449 $191 $446 $450 forward $121 $-1 #
coedge $-1 $191 $449 $451 $452 forward $121 $-1 #
coedge $-1 $314 $313 $191 $307 reversed $315 $-1 #
edge $-1 $453 -42.974204654341584 $454 42.974204654341584 $306 $455 forward 7 unknown #
coedge $-1 $193 $192 $456 $457 forward $76 $-1 #
coedge $-1 $458 $459 $192 $310 reversed $443 $-1 #
edge $-1 $317 -63.605456709494305 $460 63.605456709494305 $309 $461 forward 7 unknown #
coedge $-1 $303 $462 $193 $312 reversed $189 $-1 #
edge $-1 $463 -63.605456709494305 $316 63.605456709494305 $311 $464 forward 7 unknown #
coedge $-1 $306 $194 $462 $465 forward $315 $-1 #
coedge $-1 $194 $306 $458 $466 reversed $315 $-1 #
loop $-1 $-1 $313 $442 #
vertex $-1 $195 $467 #
vertex $-1 $195 $468 #
straight-curve $-1 63.605456709494305 0 12.821702229750654 0 1 0 I I #
face $-1 $469 $470 $46 $-1 $471 reversed single #
loop $-1 $-1 $472 $196 #
plane-surface $-1 -68.320722127296349 0 7.3078506308918989 0 0 1 1 0 0 forward_v I I I I #
coedge $-1 $473 $199 $474 $475 reversed $125 $-1 #
coedge $-1 $199 $473 $328 $476 reversed $125 $-1 #
edge $-1 $330 -10.97534189706094 $477 -7.3078506308918989 $199 $478 forward 7 unknown #
coedge $-1 $201 $200 $472 $479 forward $79 $-1 #
coedge $-1 $480 $481 $200 $327 forward $482 $-1 #
edge $-1 $483 7.3078506308918989 $331 10.97534189706094 $326 $484 forward 7 unknown #
coedge $-1 $485 $202 $323 $476 forward $197 $-1 #
coedge $-1 $202 $485 $480 $486 forward $197 $-1 #
vertex $-1 $324 $487 #
vertex $-1 $486 $488 #
straight-curve $-1 -63.605456709494305 0 10.97534189706094 0 -1 0 I I #
face $-1 $489 $490 $47 $-1 $491 reversed single #
loop $-1 $-1 $492 $204 #
plane-surface $-1 68.320722127296349 0 7.3078506308918989 0 0 1 1 0 0 forward_v I I I I #
coedge $-1 $344 $343 $493 $494 forward $205 $-1 #
coedge $-1 $495 $207 $496 $497 reversed $129 $-1 #
coedge $-1 $207 $495 $343 $498 reversed $129 $-1 #
edge $-1 $345 -10.97534189706094 $499 -7.3078506308918989 $207 $500 forward 7 unknown #
coedge $-1 $209 $208 $501 $502 forward $82 $-1 #
coedge $-1 $503 $504 $208 $342 forward $505 $-1 #
edge $-1 $506 7.3078506308918989 $346 10.97534189706094 $341 $507 forward 7 unknown #
coedge $-1 $336 $210 $338 $498 forward $205 $-1 #
coedge $-1 $210 $336 $503 $508 forward $205 $-1 #
vertex $-1 $339 $509 #
vertex $-1 $508 $510 #
straight-curve $-1 63.605456709494305 0 10.97534189706094 0 1 0 I I #
face $-1 $-1 $360 $48 $-1 $511 forward single #
loop $-1 $-1 $512 $212 #
plane-surface $-1 0 42.974204654341584 0 0 -1 0 0 0 -1 forward_v I I I I #
coedge $-1 $513 $514 $515 $516 reversed $213 $-1 #
coedge $-1 $517 $215 $217 $358 forward $133 $-1 #
coedge $-1 $215 $517 $513 $518 forward $133 $-1 #
coedge $-1 $515 $218 $215 $355 forward $360 $-1 #
edge $-1 $362 -10.881650639507516 $519 3.6272168798358315 $354 $520 forward 7 unknown #
coedge $-1 $521 $522 $216 $357 forward $349 $-1 #
edge $-1 $523 -76.201190568567057 $361 -64.412105428616826 $356 $524 forward 7 unknown #
edge $-1 $362 65.891619956862002 $523 85.948409308683154 $217 $525 forward 7 unknown #
coedge $-1 $218 $515 $521 $526 forward $360 $-1 #
loop $-1 $-1 $515 $348 #
vertex $-1 $357 $527 #
vertex $-1 $219 $528 #
straight-curve $-1 -14.508867519343358 24.106590573324578 12.821702229750656 0 -1 0 I I #
coedge $-1 $364 $364 $-1 $529 reversed $222 $-1 #
edge $-1 $530 0 $530 6.2831853071796004 $223 $531 forward 7 unknown #
vertex $-1 $226 $532 #
ellipse-curve $-1 -10.363476799530972 34.861062989944074 6.927159659775544 0 0.5877852598018023 0.80901698891910034 1 0 0 1 I I #
coedge $-1 $368 $368 $-1 $533 reversed $229 $-1 #
edge $-1 $534 0 $534 6.2831853071796004 $230 $535 forward 7 unknown #
vertex $-1 $233 $536 #
ellipse-curve $-1 -4.1453907198123972 34.861062989944074 6.927159659775544 0 0.5877852598018023 0.80901698891910034 1 0 0 1 I I #
face $-1 $-1 $537 $51 $-1 $538 reversed single #
loop $-1 $-1 $240 $234 #
plane-surface $-1 0 0 12.821702229750654 0 0 1 1 0 0 forward_v I I I I #
coedge $-1 $539 $540 $541 $542 reversed $235 $-1 #
coedge $-1 $543 $237 $239 $382 forward $147 $-1 #
coedge $-1 $237 $543 $539 $544 forward $147 $-1 #
coedge $-1 $541 $240 $237 $379 forward $373 $-1 #
edge $-1 $385 16.205812297437589 $545 30.714679816780929 $378 $546 forward 7 unknown #
coedge $-1 $547 $548 $238 $381 forward $537 $-1 #
edge $-1 $549 -76.201190568567057 $384 -64.412105428616826 $380 $550 forward 7 unknown #
edge $-1 $385 65.891619956862002 $549 85.948409308683154 $239 $551 forward 7 unknown #
coedge $-1 $240 $541 $547 $552 forward $373 $-1 #
vertex $-1 $241 $553 #
vertex $-1 $241 $554 #
straight-curve $-1 39.666058354546848 24.106590573324578 12.821702229750656 0 -1 0 I I #
coedge $-1 $387 $387 $-1 $555 reversed $244 $-1 #
edge $-1 $556 0 $556 6.2831853071796004 $245 $557 forward 7 unknown #
vertex $-1 $248 $558 #
ellipse-curve $-1 43.811449074359231 34.861062989944074 6.927159659775544 0 0.5877852598018023 0.80901698891910034 1 0 0 1 I I #
coedge $-1 $391 $391 $-1 $559 reversed $251 $-1 #
edge $-1 $560 0 $560 6.2831853071796004 $252 $561 forward 7 unknown #
vertex $-1 $255 $562 #
ellipse-curve $-1 50.029535154077806 34.861062989944074 6.927159659775544 0 0.5877852598018023 0.80901698891910034 1 0 0 1 I I #
face $-1 $-1 $563 $54 $-1 $564 reversed single #
loop $-1 $-1 $262 $256 #
plane-surface $-1 0 0 12.821702229750654 0 0 1 1 0 0 forward_v I I I I #
coedge $-1 $565 $566 $567 $568 reversed $257 $-1 #
coedge $-1 $569 $259 $261 $405 forward $161 $-1 #
coedge $-1 $259 $569 $565 $570 forward $161 $-1 #
coedge $-1 $567 $262 $259 $402 forward $396 $-1 #
edge $-1 $408 7.1631085414043589 $571 20.538116868135816 $401 $572 forward 7 unknown #
coedge $-1 $573 $574 $260 $404 forward $563 $-1 #
edge $-1 $575 -28.445298178108636 $407 -22.338454597330255 $403 $576 forward 7 unknown #
edge $-1 $408 -7.0515755075404964 $575 -1.4321304723534956e-014 $261 $577 forward 7 unknown #
coedge $-1 $262 $567 $573 $578 forward $396 $-1 #
vertex $-1 $404 $579 #
vertex $-1 $263 $580 #
straight-curve $-1 -21.013721246174445 -76.571044148894629 12.821702229750656 0 1 0 I I #
coedge $-1 $410 $410 $-1 $581 reversed $266 $-1 #
edge $-1 $582 0 $582 6.2831853071796004 $267 $583 forward 7 unknown #
vertex $-1 $270 $584 #
ellipse-curve $-1 -30.567298622411194 -41.211310824693115 9.7682804393614582 0 -0.86602541151947299 0.49999998660252726 1.5 0 0 1 I I #
coedge $-1 $414 $414 $-1 $585 reversed $273 $-1 #
edge $-1 $586 0 $586 6.2831853071796004 $274 $587 forward 7 unknown #
vertex $-1 $277 $588 #
ellipse-curve $-1 -24.835152196669142 -41.211310824693115 9.7682804393614582 0 -0.86602541151947299 0.49999998660252726 1.5 0 0 1 I I #
face $-1 $-1 $430 $57 $-1 $589 forward single #
loop $-1 $-1 $590 $278 #
plane-surface $-1 0 -42.974204654341584 0 0 1 0 0 0 1 forward_v I I I I #
coedge $-1 $591 $592 $593 $594 reversed $279 $-1 #
coedge $-1 $595 $281 $283 $428 forward $175 $-1 #
coedge $-1 $281 $595 $591 $596 forward $175 $-1 #
coedge $-1 $593 $284 $281 $425 forward $430 $-1 #
edge $-1 $432 -20.538116868135809 $597 -7.1631085414043518 $424 $598 forward 7 unknown #
coedge $-1 $599 $600 $282 $427 forward $419 $-1 #
edge $-1 $601 -28.445298178108636 $431 -22.338454597330255 $426 $602 forward 7 unknown #
edge $-1 $432 -7.0515755075404964 $601 -1.4321304723534956e-014 $283 $603 forward 7 unknown #
coedge $-1 $284 $593 $599 $604 forward $430 $-1 #
loop $-1 $-1 $593 $418 #
vertex $-1 $427 $605 #
vertex $-1 $285 $606 #
straight-curve $-1 34.388729572905888 -76.571044148894629 12.821702229750656 0 1 0 I I #
coedge $-1 $434 $434 $-1 $607 reversed $288 $-1 #
edge $-1 $608 0 $608 6.2831853071796004 $289 $609 forward 7 unknown #
vertex $-1 $292 $610 #
ellipse-curve $-1 24.835152196669128 -41.211310824693115 9.7682804393614582 0 -0.86602541151947299 0.49999998660252726 1.5 0 0 1 I I #
coedge $-1 $438 $438 $-1 $611 reversed $295 $-1 #
edge $-1 $612 0 $612 6.2831853071796004 $296 $613 forward 7 unknown #
vertex $-1 $299 $614 #
ellipse-curve $-1 30.567298622411172 -41.211310824693115 9.7682804393614582 0 -0.86602541151947299 0.49999998660252726 1.5 0 0 1 I I #
face $-1 $-1 $315 $45 $-1 $615 reversed single #
loop $-1 $-1 $458 $300 #
plane-surface $-1 0 42.974204654341584 0 0 -1 0 0 0 -1 forward_v I I I I #
coedge $-1 $616 $456 $459 $617 forward $301 $-1 #
coedge $-1 $462 $303 $304 $450 reversed $189 $-1 #
coedge $-1 $456 $616 $303 $448 reversed $301 $-1 #
edge $-1 $463 -12.821702229750654 $618 12.821702229750654 $447 $619 forward 7 unknown #
coedge $-1 $305 $304 $616 $620 forward $121 $-1 #
edge $-1 $454 -63.605456709494305 $618 63.605456709494305 $446 $621 forward 7 unknown #
coedge $-1 $459 $458 $305 $452 reversed $443 $-1 #
edge $-1 $622 -63.605456709494305 $453 63.605456709494305 $451 $623 forward 7 unknown #
vertex $-1 $307 $624 #
vertex $-1 $465 $625 #
straight-curve $-1 63.605456709494305 0 -12.821702229750654 0 -1 0 I I #
coedge $-1 $445 $447 $308 $457 reversed $301 $-1 #
edge $-1 $460 -42.974204654341584 $463 42.974204654341584 $456 $626 forward 7 unknown #
coedge $-1 $451 $309 $314 $466 forward $443 $-1 #
coedge $-1 $309 $451 $445 $617 reversed $443 $-1 #
vertex $-1 $310 $627 #
straight-curve $-1 0 42.974204654341584 12.821702229750654 -1 0 0 I I #
coedge $-1 $311 $446 $313 $465 reversed $189 $-1 #
vertex $-1 $457 $628 #
straight-curve $-1 0 -42.974204654341584 12.821702229750654 1 0 0 I I #
edge $-1 $316 -12.821702229750654 $454 12.821702229750654 $313 $629 forward 7 unknown #
edge $-1 $317 -12.821702229750654 $453 12.821702229750654 $314 $630 forward 7 unknown #
point $-1 63.605456709494305 -42.974204654341584 12.821702229750654 #
point $-1 63.605456709494305 42.974204654341584 12.821702229750654 #
face $-1 $-1 $482 $46 $-1 $631 reversed single #
loop $-1 $-1 $632 $319 #
plane-surface $-1 -73.035987545098394 0 9.1415962639764192 1 0 0 0 0 -1 forward_v I I I I #
coedge $-1 $633 $474 $325 $479 reversed $320 $-1 #
coedge $-1 $323 $322 $632 $634 reversed $125 $-1 #
coedge $-1 $472 $635 $322 $475 forward $320 $-1 #
edge $-1 $636 -4.7152654178020441 $477 4.7152654178020512 $322 $637 forward 7 unknown #
edge $-1 $330 -4.7152654178020512 $638 4.7152654178020441 $323 $639 forward 7 unknown #
vertex $-1 $324 $640 #
straight-curve $-1 -63.605456709494305 42.974204654341584 0 0 0 -1 I I #
edge $-1 $483 -42.974204654341584 $477 42.974204654341584 $472 $641 forward 7 unknown #
coedge $-1 $642 $326 $329 $486 reversed $482 $-1 #
coedge $-1 $326 $642 $633 $643 reversed $482 $-1 #
loop $-1 $-1 $326 $469 #
vertex $-1 $327 $644 #
straight-curve $-1 -63.605456709494305 -42.974204654341584 0 0 0 1 I I #
coedge $-1 $329 $328 $645 $646 forward $197 $-1 #
edge $-1 $647 -4.7152654178020441 $331 4.7152654178020512 $480 $648 forward 7 unknown #
point $-1 -63.605456709494298 42.974204654341584 10.97534189706094 #
point $-1 -63.605456709494298 -42.974204654341584 10.97534189706094 #
face $-1 $-1 $505 $47 $-1 $649 reversed single #
loop $-1 $-1 $650 $333 #
plane-surface $-1 73.035987545098394 0 9.1415962639764192 -1 0 0 0 0 1 forward_v I I I I #
coedge $-1 $496 $651 $652 $653 forward $334 $-1 #
coedge $-1 $650 $654 $336 $494 reversed $490 $-1 #
edge $-1 $655 -42.974204654341584 $656 42.974204654341584 $493 $657 forward 7 unknown #
coedge $-1 $338 $337 $650 $658 reversed $129 $-1 #
coedge $-1 $501 $492 $337 $497 forward $334 $-1 #
edge $-1 $659 -4.7152654178020441 $499 4.7152654178020441 $337 $660 forward 7 unknown #
edge $-1 $345 -4.7152654178020441 $655 4.7152654178020441 $338 $661 forward 7 unknown #
vertex $-1 $339 $662 #
straight-curve $-1 63.605456709494305 -42.974204654341584 0 0 0 -1 I I #
coedge $-1 $651 $496 $340 $502 reversed $334 $-1 #
edge $-1 $506 -42.974204654341584 $499 42.974204654341584 $501 $663 forward 7 unknown #
coedge $-1 $664 $341 $344 $508 reversed $505 $-1 #
coedge $-1 $341 $664 $651 $665 reversed $505 $-1 #
loop $-1 $-1 $341 $489 #
vertex $-1 $342 $666 #
straight-curve $-1 63.605456709494305 42.974204654341584 0 0 0 1 I I #
edge $-1 $656 -4.7152654178020441 $346 4.7152654178020441 $503 $667 forward 7 unknown #
point $-1 63.605456709494305 -42.974204654341584 10.97534189706094 #
point $-1 63.605456709494305 42.974204654341584 10.97534189706094 #
plane-surface $-1 0 0 12.821702229750654 0 0 1 1 0 0 forward_v I I I I #
coedge $-1 $522 $521 $514 $668 forward $349 $-1 #
coedge $-1 $514 $351 $353 $518 reversed $213 $-1 #
coedge $-1 $351 $513 $512 $668 reversed $213 $-1 #
coedge $-1 $359 $354 $351 $516 forward $360 $-1 #
edge $-1 $519 2.6413307522219718 $669 18.867614081017006 $515 $670 forward 7 unknown #
coedge $-1 $353 $352 $522 $671 reversed $133 $-1 #
edge $-1 $672 -85.948409308683154 $519 -65.891619956862002 $513 $673 forward 7 unknown #
vertex $-1 $355 $674 #
straight-curve $-1 -3.6272168798358422 26.747921325546564 12.821702229750656 1 0 0 I I #
coedge $-1 $512 $356 $359 $526 reversed $349 $-1 #
coedge $-1 $356 $512 $517 $671 forward $349 $-1 #
vertex $-1 $357 $675 #
straight-curve $-1 -14.508867519343358 42.974204654341584 77.233807658367482 0 0 1 I I #
straight-curve $-1 -14.508867519343358 -26.559518646955645 51.551825184856412 0 0.80901698891910034 -0.5877852598018023 I I #
edge $-1 $669 1.0658141036401503e-014 $361 14.508867519343358 $521 $676 forward 7 unknown #
point $-1 -14.508867519343358 42.974204654341584 12.821702229750654 #
point $-1 -14.508867519343358 26.74792132554655 12.821702229750656 #
edge $-1 $677 1 $677 0 $364 $-1 forward 7 unknown #
vertex $-1 $365 $678 #
ellipse-curve $-1 -10.363476799530972 32.898250919033913 4.2255806648255039 0 0.5877852598018023 0.80901698891910034 1 0 0 1 I I #
point $-1 -9.3634767995309716 34.861062989944074 6.9271596597755423 #
edge $-1 $679 1 $679 0 $368 $-1 forward 7 unknown #
vertex $-1 $369 $680 #
ellipse-curve $-1 -4.1453907198123972 32.898250919033913 4.2255806648255039 0 0.5877852598018023 0.80901698891910034 1 0 0 1 I I #
point $-1 -3.1453907198123972 34.861062989944074 6.9271596597755423 #
loop $-1 $-1 $380 $372 #
plane-surface $-1 0 42.974204654341584 0 0 -1 0 0 0 -1 forward_v I I I I #
coedge $-1 $540 $375 $377 $544 reversed $235 $-1 #
coedge $-1 $375 $539 $681 $682 reversed $235 $-1 #
coedge $-1 $383 $378 $375 $542 forward $373 $-1 #
edge $-1 $545 2.6413307522219718 $683 18.867614081017006 $541 $684 forward 7 unknown #
coedge $-1 $377 $376 $548 $685 reversed $147 $-1 #
edge $-1 $686 -85.948409308683154 $545 -65.891619956862002 $539 $687 forward 7 unknown #
vertex $-1 $379 $688 #
straight-curve $-1 23.460246057109259 26.747921325546564 12.821702229750656 1 0 0 I I #
coedge $-1 $681 $380 $383 $552 reversed $537 $-1 #
coedge $-1 $380 $681 $543 $685 forward $537 $-1 #
vertex $-1 $381 $689 #
straight-curve $-1 39.666058354546848 42.974204654341584 77.233807658367482 0 0 1 I I #
straight-curve $-1 39.666058354546848 -26.559518646955645 51.551825184856412 0 0.80901698891910034 -0.5877852598018023 I I #
edge $-1 $683 -54.174925873890189 $384 -39.666058354546848 $547 $690 forward 7 unknown #
point $-1 39.666058354546848 42.974204654341584 12.821702229750654 #
point $-1 39.666058354546848 26.74792132554655 12.821702229750656 #
edge $-1 $691 1 $691 0 $387 $-1 forward 7 unknown #
vertex $-1 $388 $692 #
ellipse-curve $-1 43.811449074359231 32.898250919033913 4.2255806648255039 0 0.5877852598018023 0.80901698891910034 1 0 0 1 I I #
point $-1 44.811449074359231 34.861062989944074 6.9271596597755423 #
edge $-1 $693 1 $693 0 $391 $-1 forward 7 unknown #
vertex $-1 $392 $694 #
ellipse-curve $-1 50.029535154077806 32.898250919033913 4.2255806648255039 0 0.5877852598018023 0.80901698891910034 1 0 0 1 I I #
point $-1 51.029535154077806 34.861062989944074 6.9271596597755423 #
loop $-1 $-1 $403 $395 #
plane-surface $-1 0 -42.974204654341584 0 0 1 0 0 0 1 forward_v I I I I #
coedge $-1 $566 $398 $400 $570 reversed $257 $-1 #
coedge $-1 $398 $565 $695 $696 reversed $257 $-1 #
coedge $-1 $406 $401 $398 $568 forward $396 $-1 #
edge $-1 $571 -37.122627153849997 $697 -33.596839494553045 $567 $698 forward 7 unknown #
coedge $-1 $400 $399 $574 $699 reversed $161 $-1 #
edge $-1 $700 1.4321304723534956e-014 $571 7.0515755075404964 $565 $701 forward 7 unknown #
vertex $-1 $402 $702 #
straight-curve $-1 -13.850612704770086 -39.448416995044632 12.821702229750654 -1 0 0 I I #
coedge $-1 $695 $403 $406 $578 reversed $563 $-1 #
coedge $-1 $403 $695 $569 $699 forward $563 $-1 #
vertex $-1 $404 $703 #
straight-curve $-1 -21.013721246174445 -42.974204654341584 35.160156827080911 0 0 1 I I #
straight-curve $-1 -21.013721246174445 -42.974204654341591 6.7148586489722604 0 -0.49999998660252726 -0.86602541151947299 I I #
edge $-1 $697 -34.388729572905902 $407 -21.013721246174445 $573 $704 forward 7 unknown #
point $-1 -21.013721246174445 -42.974204654341584 12.821702229750654 #
point $-1 -21.013721246174445 -39.448416995044632 12.821702229750654 #
edge $-1 $705 1 $705 0 $410 $-1 forward 7 unknown #
vertex $-1 $411 $706 #
ellipse-curve $-1 -30.567298622411194 -37.001835825678661 7.3379390023612903 0 -0.86602541151947299 0.49999998660252726 1.5 0 0 1 I I #
point $-1 -29.067298622411194 -41.211310824693108 9.7682804393614582 #
edge $-1 $707 1 $707 0 $414 $-1 forward 7 unknown #
vertex $-1 $415 $708 #
ellipse-curve $-1 -24.835152196669142 -37.001835825678661 7.3379390023612903 0 -0.86602541151947299 0.49999998660252726 1.5 0 0 1 I I #
point $-1 -23.335152196669142 -41.211310824693108 9.7682804393614582 #
plane-surface $-1 0 0 12.821702229750654 0 0 1 1 0 0 forward_v I I I I #
coedge $-1 $600 $599 $592 $709 forward $419 $-1 #
coedge $-1 $592 $421 $423 $596 reversed $279 $-1 #
coedge $-1 $421 $591 $590 $709 reversed $279 $-1 #
coedge $-1 $429 $424 $421 $594 forward $430 $-1 #
edge $-1 $597 -37.122627153849997 $710 -33.596839494553045 $593 $711 forward 7 unknown #
coedge $-1 $423 $422 $600 $712 reversed $175 $-1 #
edge $-1 $713 1.4321304723534956e-014 $597 7.0515755075404964 $591 $714 forward 7 unknown #
vertex $-1 $425 $715 #
straight-curve $-1 13.850612704770079 -39.448416995044632 12.821702229750654 -1 0 0 I I #
coedge $-1 $590 $426 $429 $604 reversed $419 $-1 #
coedge $-1 $426 $590 $595 $712 forward $419 $-1 #
vertex $-1 $427 $716 #
straight-curve $-1 34.388729572905888 -42.974204654341584 35.160156827080911 0 0 1 I I #
straight-curve $-1 34.388729572905888 -42.974204654341591 6.7148586489722604 0 -0.49999998660252726 -0.86602541151947299 I I #
edge $-1 $710 21.01372124617443 $431 34.388729572905888 $599 $717 forward 7 unknown #
point $-1 34.388729572905888 -42.974204654341584 12.821702229750654 #
point $-1 34.388729572905888 -39.448416995044632 12.821702229750654 #
edge $-1 $718 1 $718 0 $434 $-1 forward 7 unknown #
vertex $-1 $435 $719 #
ellipse-curve $-1 24.835152196669128 -37.001835825678661 7.3379390023612903 0 -0.86602541151947299 0.49999998660252726 1.5 0 0 1 I I #
point $-1 26.335152196669128 -41.211310824693108 9.7682804393614582 #
edge $-1 $720 1 $720 0 $438 $-1 forward 7 unknown #
vertex $-1 $439 $721 #
ellipse-curve $-1 30.567298622411172 -37.001835825678661 7.3379390023612903 0 -0.86602541151947299 0.49999998660252726 1.5 0 0 1 I I #
point $-1 32.067298622411172 -41.211310824693108 9.7682804393614582 #
plane-surface $-1 63.605456709494305 0 0 -1 0 0 0 0 1 forward_v I I I I #
coedge $-1 $447 $445 $449 $620 reversed $301 $-1 #
edge $-1 $460 -12.821702229750654 $622 12.821702229750654 $459 $722 forward 7 unknown #
vertex $-1 $620 $723 #
straight-curve $-1 -63.605456709494305 -42.974204654341584 0 0 0 -1 I I #
edge $-1 $618 -42.974204654341584 $622 42.974204654341584 $616 $724 forward 7 unknown #
straight-curve $-1 0 -42.974204654341584 -12.821702229750654 -1 0 0 I I #
vertex $-1 $452 $725 #
straight-curve $-1 0 42.974204654341584 -12.821702229750654 1 0 0 I I #
point $-1 63.605456709494305 42.974204654341584 -12.821702229750654 #
point $-1 63.605456709494305 -42.974204654341584 -12.821702229750654 #
straight-curve $-1 -63.605456709494305 0 12.821702229750654 0 -1 0 I I #
point $-1 -63.605456709494305 42.974204654341584 12.821702229750654 #
point $-1 -63.605456709494305 -42.974204654341584 12.821702229750654 #
straight-curve $-1 63.605456709494305 -42.974204654341584 0 0 0 -1 I I #
straight-curve $-1 63.605456709494305 42.974204654341584 0 0 0 -1 I I #
plane-surface $-1 0 -42.974204654341584 0 0 1 0 0 0 1 forward_v I I I I #
coedge $-1 $726 $645 $473 $634 forward $470 $-1 #
coedge $-1 $635 $472 $481 $643 forward $320 $-1 #
edge $-1 $638 -1.8337456330845203 $636 1.8337456330845203 $473 $727 forward 7 unknown #
coedge $-1 $474 $633 $726 $728 forward $320 $-1 #
vertex $-1 $475 $729 #
straight-curve $-1 -68.320722127296349 42.974204654341584 7.3078506308918989 1 0 0 I I #
vertex $-1 $476 $730 #
straight-curve $-1 -68.320722127296349 42.974204654341584 10.97534189706094 -1 0 0 I I #
point $-1 -63.605456709494298 42.974204654341584 7.3078506308918989 #
straight-curve $-1 -63.605456709494305 0 7.3078506308918989 0 1 0 I I #
coedge $-1 $481 $480 $731 $732 forward $482 $-1 #
edge $-1 $483 -4.7152654178020512 $733 4.7152654178020441 $481 $734 forward 7 unknown #
point $-1 -63.605456709494298 -42.974204654341584 7.3078506308918989 #
coedge $-1 $632 $731 $485 $646 reversed $470 $-1 #
edge $-1 $638 -42.974204654341584 $647 42.974204654341584 $645 $735 forward 7 unknown #
vertex $-1 $646 $736 #
straight-curve $-1 -68.320722127296349 -42.974204654341584 10.97534189706094 1 0 0 I I #
plane-surface $-1 0 42.974204654341584 0 0 -1 0 0 0 -1 forward_v I I I I #
coedge $-1 $652 $493 $495 $658 forward $490 $-1 #
coedge $-1 $492 $501 $504 $665 forward $334 $-1 #
coedge $-1 $654 $650 $492 $653 reversed $490 $-1 #
edge $-1 $737 -42.974204654341584 $659 42.974204654341584 $652 $738 forward 7 unknown #
coedge $-1 $493 $652 $664 $739 reversed $490 $-1 #
vertex $-1 $494 $740 #
vertex $-1 $494 $741 #
straight-curve $-1 73.035987545098394 0 10.97534189706094 0 1 0 I I #
edge $-1 $655 -1.8337456330845203 $659 1.8337456330845203 $650 $742 forward 7 unknown #
vertex $-1 $658 $743 #
straight-curve $-1 68.320722127296349 -42.974204654341584 7.3078506308918989 -1 0 0 I I #
straight-curve $-1 68.320722127296349 -42.974204654341584 10.97534189706094 1 0 0 I I #
point $-1 63.605456709494305 -42.974204654341584 7.3078506308918989 #
straight-curve $-1 63.605456709494305 0 7.3078506308918989 0 -1 0 I I #
coedge $-1 $504 $503 $654 $739 forward $505 $-1 #
edge $-1 $506 -4.7152654178020441 $737 4.7152654178020441 $504 $744 forward 7 unknown #
point $-1 63.605456709494305 42.974204654341584 7.3078506308918989 #
straight-curve $-1 68.320722127296349 42.974204654341584 10.97534189706094 -1 0 0 I I #
edge $-1 $669 64.412105428616826 $672 76.201190568567057 $512 $745 forward 7 unknown #
vertex $-1 $526 $746 #
straight-curve $-1 -1.0658141036401503e-014 24.106590573324578 12.821702229750656 0 1 0 I I #
edge $-1 $672 -3.6272168798358315 $523 10.881650639507516 $522 $747 forward 7 unknown #
vertex $-1 $671 $748 #
straight-curve $-1 -1.0658141036401503e-014 -26.559518646955645 51.551825184856412 0 -0.80901698891910034 0.5877852598018023 I I #
point $-1 -1.0658141036401503e-014 26.74792132554655 12.821702229750656 #
point $-1 -14.508867519343358 42.974204654341584 1.0326170898004321 #
straight-curve $-1 0 42.974204654341584 12.821702229750654 -1 0 0 I I #
vertex $-1 $529 $749 #
point $-1 -9.3634767995309716 32.898250919033913 4.2255806648255039 #
vertex $-1 $533 $750 #
point $-1 -3.1453907198123972 32.898250919033913 4.2255806648255039 #
coedge $-1 $548 $547 $540 $682 forward $537 $-1 #
edge $-1 $683 64.412105428616826 $686 76.201190568567057 $681 $751 forward 7 unknown #
vertex $-1 $552 $752 #
straight-curve $-1 54.174925873890189 24.106590573324578 12.821702229750656 0 1 0 I I #
edge $-1 $686 -30.714679816780929 $549 -16.205812297437589 $548 $753 forward 7 unknown #
vertex $-1 $685 $754 #
straight-curve $-1 54.174925873890189 -26.559518646955645 51.551825184856412 0 -0.80901698891910034 0.5877852598018023 I I #
point $-1 54.174925873890189 26.74792132554655 12.821702229750656 #
point $-1 39.666058354546848 42.974204654341584 1.0326170898004321 #
straight-curve $-1 0 42.974204654341584 12.821702229750654 -1 0 0 I I #
vertex $-1 $555 $755 #
point $-1 44.811449074359231 32.898250919033913 4.2255806648255039 #
vertex $-1 $559 $756 #
point $-1 51.029535154077806 32.898250919033913 4.2255806648255039 #
coedge $-1 $574 $573 $566 $696 forward $563 $-1 #
edge $-1 $697 22.338454597330255 $700 28.445298178108636 $695 $757 forward 7 unknown #
vertex $-1 $578 $758 #
straight-curve $-1 -34.388729572905902 -76.571044148894629 12.821702229750656 0 -1 0 I I #
edge $-1 $700 -20.538116868135816 $575 -7.1631085414043589 $574 $759 forward 7 unknown #
vertex $-1 $699 $760 #
straight-curve $-1 -34.388729572905902 -42.974204654341591 6.7148586489722604 0 0.49999998660252726 0.86602541151947299 I I #
point $-1 -34.388729572905902 -39.448416995044632 12.821702229750654 #
point $-1 -21.013721246174445 -42.974204654341584 6.7148586489722728 #
straight-curve $-1 0 -42.974204654341584 12.821702229750654 1 0 0 I I #
vertex $-1 $581 $761 #
point $-1 -29.067298622411194 -37.001835825678661 7.3379390023612903 #
vertex $-1 $585 $762 #
point $-1 -23.335152196669142 -37.001835825678661 7.3379390023612903 #
edge $-1 $710 22.338454597330255 $713 28.445298178108636 $590 $763 forward 7 unknown #
vertex $-1 $604 $764 #
straight-curve $-1 21.01372124617443 -76.571044148894629 12.821702229750656 0 -1 0 I I #
edge $-1 $713 7.1631085414043518 $601 20.538116868135809 $600 $765 forward 7 unknown #
vertex $-1 $712 $766 #
straight-curve $-1 21.01372124617443 -42.974204654341591 6.7148586489722604 0 0.49999998660252726 0.86602541151947299 I I #
point $-1 21.01372124617443 -39.448416995044632 12.821702229750654 #
point $-1 34.388729572905888 -42.974204654341584 6.7148586489722728 #
straight-curve $-1 0 -42.974204654341584 12.821702229750654 1 0 0 I I #
vertex $-1 $607 $767 #
point $-1 26.335152196669128 -37.001835825678661 7.3379390023612903 #
vertex $-1 $611 $768 #
point $-1 32.067298622411172 -37.001835825678661 7.3379390023612903 #
straight-curve $-1 -63.605456709494305 42.974204654341584 0 0 0 -1 I I #
point $-1 -63.605456709494305 -42.974204654341584 -12.821702229750654 #
straight-curve $-1 -63.605456709494305 0 -12.821702229750654 0 1 0 I I #
point $-1 -63.605456709494305 42.974204654341584 -12.821702229750654 #
coedge $-1 $731 $632 $635 $728 reversed $470 $-1 #
straight-curve $-1 -73.035987545098394 42.974204654341584 9.1415962639764192 0 0 -1 I I #
edge $-1 $733 -42.974204654341584 $636 42.974204654341584 $726 $769 forward 7 unknown #
point $-1 -73.035987545098394 42.974204654341584 7.3078506308918989 #
point $-1 -73.035987545098394 42.974204654341584 10.97534189706094 #
coedge $-1 $645 $726 $642 $732 reversed $470 $-1 #
edge $-1 $647 -1.8337456330845203 $733 1.8337456330845203 $731 $770 forward 7 unknown #
vertex $-1 $728 $771 #
straight-curve $-1 -68.320722127296349 -42.974204654341584 7.3078506308918989 -1 0 0 I I #
straight-curve $-1 -73.035987545098394 0 10.97534189706094 0 -1 0 I I #
point $-1 -73.035987545098394 -42.974204654341584 10.97534189706094 #
vertex $-1 $653 $772 #
straight-curve $-1 73.035987545098394 0 7.3078506308918989 0 -1 0 I I #
edge $-1 $656 -1.8337456330845203 $737 1.8337456330845203 $654 $773 forward 7 unknown #
point $-1 73.035987545098394 -42.974204654341584 10.97534189706094 #
point $-1 73.035987545098394 42.974204654341584 10.97534189706094 #
straight-curve $-1 73.035987545098394 -42.974204654341584 9.1415962639764192 0 0 -1 I I #
point $-1 73.035987545098394 -42.974204654341584 7.3078506308918989 #
straight-curve $-1 68.320722127296349 42.974204654341584 7.3078506308918989 1 0 0 I I #
straight-curve $-1 -1.0658141036401503e-014 42.974204654341584 77.233807658367482 0 0 -1 I I #
point $-1 -1.0658141036401503e-014 42.974204654341584 12.821702229750654 #
straight-curve $-1 -3.6272168798358422 42.974204654341584 1.0326170898004321 -1 0 0 I I #
point $-1 -1.0658141036401503e-014 42.974204654341584 1.0326170898004321 #
point $-1 -10.363476799530972 32.310465659232108 3.4165636759064033 #
point $-1 -4.1453907198123972 32.310465659232108 3.4165636759064033 #
straight-curve $-1 54.174925873890189 42.974204654341584 77.233807658367482 0 0 -1 I I #
point $-1 54.174925873890189 42.974204654341584 12.821702229750654 #
straight-curve $-1 23.460246057109259 42.974204654341584 1.0326170898004321 -1 0 0 I I #
point $-1 54.174925873890189 42.974204654341584 1.0326170898004321 #
point $-1 43.811449074359231 32.310465659232108 3.4165636759064033 #
point $-1 50.029535154077806 32.310465659232108 3.4165636759064033 #
straight-curve $-1 -34.388729572905902 -42.974204654341584 35.160156827080911 0 0 -1 I I #
point $-1 -34.388729572905902 -42.974204654341584 12.821702229750654 #
straight-curve $-1 -13.850612704770086 -42.974204654341584 6.7148586489722772 1 0 0 I I #
point $-1 -34.388729572905902 -42.974204654341584 6.7148586489722728 #
point $-1 -30.567298622411194 -35.702797708399451 6.5879390224574994 #
point $-1 -24.835152196669142 -35.702797708399451 6.5879390224574994 #
straight-curve $-1 21.01372124617443 -42.974204654341584 35.160156827080911 0 0 -1 I I #
point $-1 21.01372124617443 -42.974204654341584 12.821702229750654 #
straight-curve $-1 13.850612704770079 -42.974204654341584 6.7148586489722772 1 0 0 I I #
point $-1 21.01372124617443 -42.974204654341584 6.7148586489722728 #
point $-1 24.835152196669128 -35.702797708399451 6.5879390224574994 #
point $-1 30.567298622411172 -35.702797708399451 6.5879390224574994 #
straight-curve $-1 -73.035987545098394 0 7.3078506308918989 0 1 0 I I #
straight-curve $-1 -73.035987545098394 -42.974204654341584 9.1415962639764192 0 0 -1 I I #
point $-1 -73.035987545098394 -42.974204654341584 7.3078506308918989 #
point $-1 73.035987545098394 42.974204654341584 7.3078506308918989 #
straight-curve $-1 73.035987545098394 42.974204654341584 9.1415962639764192 0 0 -1 I I #
End-of-ACIS-data 