500 0 10 0           
7 Unknown 11 ACIS 5.0 NT 24 Fri Mar 26 01:34:02 1999 
-1 9.9999999999999995e-007 1e-010 
body $-1 $10 $-1 $11 #
body $-1 $12 $-1 $13 #
body $-1 $14 $-1 $15 #
body $-1 $16 $-1 $17 #
body $-1 $18 $-1 $19 #
body $-1 $20 $-1 $21 #
body $-1 $22 $-1 $23 #
body $-1 $24 $-1 $25 #
body $-1 $26 $-1 $27 #
body $-1 $28 $-1 $29 #
lump $-1 $-1 $30 $0 #
transform $-1 1 0 0 0 1 0 0 0 1 52.13660084841456 27.756013444011149 5.7389985865205828 1 rotate no_reflect no_shear #
lump $-1 $-1 $31 $1 #
transform $-1 1 0 0 0 1 0 0 0 1 52.13660084841456 27.756013444011149 5.7389985865205828 1 rotate no_reflect no_shear #
lump $-1 $-1 $32 $2 #
transform $-1 1 0 0 0 1 0 0 0 1 52.13660084841456 27.756013444011149 5.7389985865205828 1 rotate no_reflect no_shear #
lump $-1 $-1 $33 $3 #
transform $-1 1 0 0 0 1 0 0 0 1 52.13660084841456 27.756013444011149 5.7389985865205828 1 rotate no_reflect no_shear #
lump $-1 $-1 $34 $4 #
transform $-1 1 0 0 0 1 0 0 0 1 52.13660084841456 27.756013444011149 5.7389985865205828 1 rotate no_reflect no_shear #
lump $-1 $-1 $35 $5 #
transform $-1 1 0 0 0 1 0 0 0 1 52.13660084841456 27.756013444011149 5.7389985865205828 1 rotate no_reflect no_shear #
lump $-1 $-1 $36 $6 #
transform $-1 1 0 0 0 1 0 0 0 1 52.13660084841456 27.756013444011149 5.7389985865205828 1 rotate no_reflect no_shear #
lump $-1 $-1 $37 $7 #
transform $-1 1 0 0 0 1 0 0 0 1 52.13660084841456 27.756013444011149 5.7389985865205828 1 rotate no_reflect no_shear #
lump $-1 $-1 $38 $8 #
transform $-1 1 0 0 0 1 0 0 0 1 52.13660084841456 27.756013444011149 5.7389985865205828 1 rotate no_reflect no_shear #
lump $-1 $-1 $39 $9 #
transform $-1 1 0 0 0 1 0 0 0 1 52.13660084841456 27.756013444011149 5.7389985865205828 1 rotate no_reflect no_shear #
shell $-1 $-1 $-1 $40 $-1 $10 #
shell $-1 $-1 $-1 $41 $-1 $12 #
shell $-1 $-1 $-1 $42 $-1 $14 #
shell $-1 $-1 $-1 $43 $-1 $16 #
shell $-1 $-1 $-1 $44 $-1 $18 #
shell $-1 $-1 $-1 $45 $-1 $20 #
shell $-1 $-1 $-1 $46 $-1 $22 #
shell $-1 $-1 $-1 $47 $-1 $24 #
shell $-1 $-1 $-1 $48 $-1 $26 #
shell $-1 $-1 $-1 $49 $-1 $28 #
face $-1 $50 $51 $30 $-1 $52 forward single #
face $-1 $53 $54 $31 $-1 $55 reversed single #
face $-1 $56 $57 $32 $-1 $58 reversed single #
face $-1 $59 $60 $33 $-1 $61 forward single #
face $-1 $62 $63 $34 $-1 $64 forward single #
face $-1 $65 $66 $35 $-1 $67 forward single #
face $-1 $68 $69 $36 $-1 $70 reversed single #
face $-1 $71 $72 $37 $-1 $73 forward single #
face $-1 $74 $75 $38 $-1 $76 forward single #
face $-1 $77 $78 $39 $-1 $79 forward single #
face $-1 $80 $81 $30 $-1 $82 reversed single #
loop $-1 $-1 $83 $40 #
plane-surface $-1 0 0 5.7389985865205828 0 0 1 1 0 0 forward_v I I I I #
face $-1 $84 $85 $31 $-1 $86 reversed single #
loop $-1 $-1 $87 $41 #
plane-surface $-1 -47.406651011067055 -25.573095735854036 0 1 0 0 0 0 -1 forward_v I I I I #
face $-1 $88 $89 $32 $-1 $90 reversed single #
loop $-1 $-1 $91 $42 #
plane-surface $-1 34.165191225956022 19.572103732730664 147.45206962590956 0 -1 0 -0.61566148304635926 0 -0.78801074757464917 forward_v I I I I #
face $-1 $92 $93 $33 $-1 $94 forward single #
loop $-1 $95 $96 $43 #
cone-surface $-1 48.831354898266589 9.6791353833116851 2.9931516951820889 -0.61566148304635926 0 -0.78801074757464917 0.39400537378732459 0 -0.30783074152317963 1 I I 0 1 0.5 forward I I I I #
face $-1 $97 $98 $34 $-1 $99 forward single #
loop $-1 $100 $101 $44 #
cone-surface $-1 48.831354898266589 13.3889985143438 2.9931516951820889 -0.61566148304635926 0 -0.78801074757464917 0.39400537378732459 0 -0.30783074152317963 1 I I 0 1 0.5 forward I I I I #
face $-1 $102 $103 $35 $-1 $104 forward single #
loop $-1 $105 $106 $45 #
cone-surface $-1 48.831354898266589 17.098861645375916 2.9931516951820889 -0.61566148304635926 0 -0.78801074757464917 0.39400537378732459 0 -0.30783074152317963 1 I I 0 1 0.5 forward I I I I #
face $-1 $107 $108 $36 $-1 $109 reversed single #
loop $-1 $-1 $110 $46 #
plane-surface $-1 -116.33359484707651 7.2058932959569368 83.255075627247621 0 1 0 -0.61566148304635926 0 0.78801074757464917 forward_v I I I I #
face $-1 $111 $112 $37 $-1 $113 forward single #
loop $-1 $114 $115 $47 #
cone-surface $-1 -48.831354898266568 9.6791353833116851 2.9931516951820942 0.61566148304635926 0 -0.78801074757464917 0.39400537378732459 0 0.30783074152317963 1 I I 0 1 0.5 forward I I I I #
face $-1 $116 $117 $38 $-1 $118 forward single #
loop $-1 $119 $120 $48 #
cone-surface $-1 -48.831354898266568 13.3889985143438 2.9931516951820942 0.61566148304635926 0 -0.78801074757464917 0.39400537378732459 0 0.30783074152317963 1 I I 0 1 0.5 forward I I I I #
face $-1 $121 $122 $39 $-1 $123 forward single #
loop $-1 $124 $125 $49 #
cone-surface $-1 -48.831354898266568 17.098861645375916 2.9931516951820942 0.61566148304635926 0 -0.78801074757464917 0.39400537378732459 0 0.30783074152317963 1 I I 0 1 0.5 forward I I I I #
face $-1 $126 $127 $30 $-1 $128 reversed single #
loop $-1 $-1 $129 $50 #
plane-surface $-1 0 0 -5.7389985865205828 0 0 1 1 0 0 forward_v I I I I #
coedge $-1 $130 $131 $132 $133 forward $51 $-1 #
face $-1 $134 $135 $31 $-1 $136 reversed single #
loop $-1 $-1 $137 $53 #
plane-surface $-1 -45.906651011067055 -23.390178027696923 0 0 -1 0 0 0 -1 forward_v I I I I #
coedge $-1 $138 $139 $140 $141 forward $54 $-1 #
face $-1 $142 $143 $32 $-1 $144 reversed single #
loop $-1 $-1 $145 $56 #
plane-surface $-1 -30.031802772705944 13.3889985143438 65.283666004789069 0.61566148304635926 0 0.78801074757464917 0.78801074757464917 0 -0.61566148304635926 forward_v I I I I #
coedge $-1 $146 $147 $148 $149 reversed $57 $-1 #
face $-1 $-1 $150 $33 $-1 $151 forward single #
loop $-1 $152 $153 $59 #
cone-surface $-1 48.34954675563047 9.6791353833116851 2.3764654071466653 -0.61566148304635926 0 -0.78801074757464917 0.19700268689366229 0 -0.15391537076158981 1 I I -0.70710678118654746 0.70710678118654746 0.25 forward I I I I #
loop $-1 $-1 $154 $43 #
coedge $-1 $96 $96 $155 $156 reversed $60 $-1 #
face $-1 $-1 $157 $34 $-1 $158 forward single #
loop $-1 $159 $160 $62 #
cone-surface $-1 48.34954675563047 13.3889985143438 2.3764654071466653 -0.61566148304635926 0 -0.78801074757464917 0.19700268689366229 0 -0.15391537076158981 1 I I -0.70710678118654746 0.70710678118654746 0.25 forward I I I I #
loop $-1 $-1 $161 $44 #
coedge $-1 $101 $101 $162 $163 reversed $63 $-1 #
face $-1 $-1 $164 $35 $-1 $165 forward single #
loop $-1 $166 $167 $65 #
cone-surface $-1 48.34954675563047 17.098861645375916 2.3764654071466653 -0.61566148304635926 0 -0.78801074757464917 0.19700268689366229 0 -0.15391537076158981 1 I I -0.70710678118654746 0.70710678118654746 0.25 forward I I I I #
loop $-1 $-1 $168 $45 #
coedge $-1 $106 $106 $169 $170 reversed $66 $-1 #
face $-1 $171 $172 $36 $-1 $173 reversed single #
loop $-1 $-1 $174 $68 #
plane-surface $-1 -52.136600848414545 13.3889985143438 1.0866720061271309 -0.61566148304635926 0 0.78801074757464917 0.78801074757464917 0 0.61566148304635926 forward_v I I I I #
coedge $-1 $175 $176 $177 $178 reversed $69 $-1 #
face $-1 $-1 $179 $37 $-1 $180 forward single #
loop $-1 $181 $182 $71 #
cone-surface $-1 -48.349546755630449 9.6791353833116851 2.3764654071466706 0.61566148304635926 0 -0.78801074757464917 0.19700268689366229 0 0.15391537076158981 1 I I -0.70710678118654746 0.70710678118654746 0.25 forward I I I I #
loop $-1 $-1 $183 $47 #
coedge $-1 $115 $115 $184 $185 reversed $72 $-1 #
face $-1 $-1 $186 $38 $-1 $187 forward single #
loop $-1 $188 $189 $74 #
cone-surface $-1 -48.349546755630449 13.3889985143438 2.3764654071466706 0.61566148304635926 0 -0.78801074757464917 0.19700268689366229 0 0.15391537076158981 1 I I -0.70710678118654746 0.70710678118654746 0.25 forward I I I I #
loop $-1 $-1 $190 $48 #
coedge $-1 $120 $120 $191 $192 reversed $75 $-1 #
face $-1 $-1 $193 $39 $-1 $194 forward single #
loop $-1 $195 $196 $77 #
cone-surface $-1 -48.349546755630449 17.098861645375916 2.3764654071466706 0.61566148304635926 0 -0.78801074757464917 0.19700268689366229 0 0.15391537076158981 1 I I -0.70710678118654746 0.70710678118654746 0.25 forward I I I I #
loop $-1 $-1 $197 $49 #
coedge $-1 $125 $125 $198 $199 reversed $78 $-1 #
face $-1 $200 $201 $30 $-1 $202 reversed single #
loop $-1 $-1 $203 $80 #
plane-surface $-1 0 -27.756013444011149 0 0 1 0 0 0 1 forward_v I I I I #
coedge $-1 $204 $205 $206 $207 forward $81 $-1 #
coedge $-1 $208 $83 $209 $210 forward $51 $-1 #
coedge $-1 $83 $208 $211 $212 forward $51 $-1 #
coedge $-1 $213 $214 $83 $133 reversed $215 $-1 #
edge $-1 $216 -27.756013444011149 $217 27.756013444011149 $132 $218 forward 7 unknown #
face $-1 $219 $220 $31 $-1 $221 forward single #
loop $-1 $-1 $222 $84 #
plane-surface $-1 -44.406651011067055 -25.573095735854036 0 -1 0 0 0 0 1 forward_v I I I I #
coedge $-1 $223 $224 $225 $226 forward $85 $-1 #
coedge $-1 $227 $87 $228 $229 reversed $54 $-1 #
coedge $-1 $87 $227 $230 $231 reversed $54 $-1 #
coedge $-1 $224 $223 $87 $141 reversed $85 $-1 #
edge $-1 $232 -5.7389985865205828 $233 5.7389985865205828 $140 $234 forward 7 unknown #
face $-1 $235 $236 $32 $-1 $237 reversed single #
loop $-1 $-1 $238 $88 #
plane-surface $-1 34.165191225956022 7.2058932959569368 147.45206962590956 0 1 0 0.61566148304635926 0 0.78801074757464917 forward_v I I I I #
coedge $-1 $239 $240 $241 $242 reversed $89 $-1 #
coedge $-1 $147 $91 $243 $244 reversed $57 $-1 #
coedge $-1 $91 $146 $239 $245 reversed $57 $-1 #
coedge $-1 $241 $246 $91 $149 forward $247 $-1 #
edge $-1 $248 -35.054005235436549 $249 -29.099298878889599 $148 $250 forward 7 unknown #
loop $-1 $-1 $155 $92 #
plane-surface $-1 -30.031802772705944 13.3889985143438 65.283666004789069 0.61566148304635926 0 0.78801074757464917 0.78801074757464917 0 -0.61566148304635926 forward_v I I I I #
loop $-1 $-1 $251 $59 #
coedge $-1 $153 $153 $154 $252 reversed $93 $-1 #
coedge $-1 $154 $154 $153 $252 forward $95 $-1 #
coedge $-1 $155 $155 $96 $156 forward $150 $-1 #
edge $-1 $253 0 $253 6.2831853071796004 $155 $254 forward 7 unknown #
loop $-1 $-1 $162 $97 #
plane-surface $-1 -30.031802772705944 13.3889985143438 65.283666004789069 0.61566148304635926 0 0.78801074757464917 0.78801074757464917 0 -0.61566148304635926 forward_v I I I I #
loop $-1 $-1 $255 $62 #
coedge $-1 $160 $160 $161 $256 reversed $98 $-1 #
coedge $-1 $161 $161 $160 $256 forward $100 $-1 #
coedge $-1 $162 $162 $101 $163 forward $157 $-1 #
edge $-1 $257 0 $257 6.2831853071796004 $162 $258 forward 7 unknown #
loop $-1 $-1 $169 $102 #
plane-surface $-1 -30.031802772705944 13.3889985143438 65.283666004789069 0.61566148304635926 0 0.78801074757464917 0.78801074757464917 0 -0.61566148304635926 forward_v I I I I #
loop $-1 $-1 $259 $65 #
coedge $-1 $167 $167 $168 $260 reversed $103 $-1 #
coedge $-1 $168 $168 $167 $260 forward $105 $-1 #
coedge $-1 $169 $169 $106 $170 forward $164 $-1 #
edge $-1 $261 0 $261 6.2831853071796004 $169 $262 forward 7 unknown #
face $-1 $263 $264 $36 $-1 $265 reversed single #
loop $-1 $-1 $266 $107 #
plane-surface $-1 -116.33359484707651 19.572103732730664 83.255075627247621 0 -1 0 0.61566148304635926 0 -0.78801074757464917 forward_v I I I I #
coedge $-1 $267 $268 $269 $270 reversed $108 $-1 #
coedge $-1 $176 $110 $271 $272 reversed $69 $-1 #
coedge $-1 $110 $175 $267 $273 reversed $69 $-1 #
coedge $-1 $269 $274 $110 $178 forward $275 $-1 #
edge $-1 $276 6.0301965751236963 $277 11.984902931670625 $177 $278 forward 7 unknown #
loop $-1 $-1 $184 $111 #
plane-surface $-1 -52.136600848414545 13.3889985143438 1.0866720061271309 -0.61566148304635926 0 0.78801074757464917 0.78801074757464917 0 0.61566148304635926 forward_v I I I I #
loop $-1 $-1 $279 $71 #
coedge $-1 $182 $182 $183 $280 reversed $112 $-1 #
coedge $-1 $183 $183 $182 $280 forward $114 $-1 #
coedge $-1 $184 $184 $115 $185 forward $179 $-1 #
edge $-1 $281 0 $281 6.2831853071796004 $184 $282 forward 7 unknown #
loop $-1 $-1 $191 $116 #
plane-surface $-1 -52.136600848414545 13.3889985143438 1.0866720061271309 -0.61566148304635926 0 0.78801074757464917 0.78801074757464917 0 0.61566148304635926 forward_v I I I I #
loop $-1 $-1 $283 $74 #
coedge $-1 $189 $189 $190 $284 reversed $117 $-1 #
coedge $-1 $190 $190 $189 $284 forward $119 $-1 #
coedge $-1 $191 $191 $120 $192 forward $186 $-1 #
edge $-1 $285 0 $285 6.2831853071796004 $191 $286 forward 7 unknown #
loop $-1 $-1 $198 $121 #
plane-surface $-1 -52.136600848414545 13.3889985143438 1.0866720061271309 -0.61566148304635926 0 0.78801074757464917 0.78801074757464917 0 0.61566148304635926 forward_v I I I I #
loop $-1 $-1 $287 $77 #
coedge $-1 $196 $196 $197 $288 reversed $122 $-1 #
coedge $-1 $197 $197 $196 $288 forward $124 $-1 #
coedge $-1 $198 $198 $125 $199 forward $193 $-1 #
edge $-1 $289 0 $289 6.2831853071796004 $198 $290 forward 7 unknown #
face $-1 $291 $292 $30 $-1 $293 reversed single #
loop $-1 $-1 $294 $126 #
plane-surface $-1 -52.13660084841456 0 0 1 0 0 0 0 -1 forward_v I I I I #
coedge $-1 $295 $211 $296 $297 forward $127 $-1 #
coedge $-1 $298 $129 $295 $299 forward $81 $-1 #
coedge $-1 $129 $298 $300 $301 forward $81 $-1 #
coedge $-1 $214 $213 $129 $207 reversed $215 $-1 #
edge $-1 $302 -27.756013444011149 $303 27.756013444011149 $206 $304 forward 7 unknown #
coedge $-1 $131 $130 $305 $306 forward $51 $-1 #
coedge $-1 $307 $308 $130 $210 reversed $292 $-1 #
edge $-1 $217 -52.13660084841456 $309 52.13660084841456 $209 $310 forward 7 unknown #
coedge $-1 $203 $311 $131 $212 reversed $127 $-1 #
edge $-1 $312 -52.13660084841456 $216 52.13660084841456 $211 $313 forward 7 unknown #
coedge $-1 $206 $132 $311 $314 forward $215 $-1 #
coedge $-1 $132 $206 $307 $315 reversed $215 $-1 #
loop $-1 $-1 $213 $291 #
vertex $-1 $133 $316 #
vertex $-1 $133 $317 #
straight-curve $-1 52.13660084841456 0 5.7389985865205828 0 1 0 I I #
face $-1 $318 $319 $31 $-1 $320 reversed single #
loop $-1 $-1 $321 $134 #
plane-surface $-1 0 0 5.7389985865205828 0 0 1 1 0 0 forward_v I I I I #
coedge $-1 $322 $323 $324 $325 reversed $135 $-1 #
coedge $-1 $140 $137 $326 $327 reversed $85 $-1 #
coedge $-1 $137 $140 $328 $329 reversed $85 $-1 #
coedge $-1 $323 $322 $137 $226 reversed $135 $-1 #
edge $-1 $330 -5.7389985865205828 $331 5.7389985865205828 $225 $332 forward 7 unknown #
coedge $-1 $139 $138 $333 $334 reversed $54 $-1 #
coedge $-1 $326 $335 $138 $229 forward $319 $-1 #
edge $-1 $336 -14.969465576084131 $233 -10.603630159769905 $228 $337 forward 7 unknown #
coedge $-1 $338 $328 $139 $231 forward $220 $-1 #
edge $-1 $232 10.603630159769905 $339 14.969465576084131 $230 $340 forward 7 unknown #
vertex $-1 $231 $341 #
vertex $-1 $229 $342 #
straight-curve $-1 -47.406651011067055 -23.390178027696923 0 0 0 -1 I I #
face $-1 $-1 $247 $32 $-1 $343 forward single #
loop $-1 $-1 $344 $142 #
plane-surface $-1 52.13660084841456 0 0 -1 0 0 0 0 1 forward_v I I I I #
coedge $-1 $345 $346 $347 $348 reversed $143 $-1 #
coedge $-1 $349 $145 $147 $245 forward $89 $-1 #
coedge $-1 $145 $349 $345 $350 forward $89 $-1 #
coedge $-1 $347 $148 $145 $242 forward $247 $-1 #
edge $-1 $249 -12.877604475558764 $351 -0.51139403878503664 $241 $352 forward 7 unknown #
coedge $-1 $353 $354 $146 $244 forward $236 $-1 #
edge $-1 $355 -72.639362806827677 $248 -67.987036226434199 $243 $356 forward 7 unknown #
edge $-1 $249 96.716570807118003 $355 104.27320169682912 $147 $357 forward 7 unknown #
coedge $-1 $148 $347 $353 $358 forward $247 $-1 #
loop $-1 $-1 $347 $235 #
vertex $-1 $244 $359 #
vertex $-1 $149 $360 #
straight-curve $-1 17.082595612978011 19.572103732730664 5.7389985865205801 -1 0 0 I I #
coedge $-1 $251 $251 $-1 $361 reversed $152 $-1 #
edge $-1 $362 0 $362 6.2831853071796004 $153 $363 forward 7 unknown #
vertex $-1 $156 $364 #
ellipse-curve $-1 49.159247670141106 9.6791353833116851 3.4128352963238271 0.61566148304635926 0 0.78801074757464917 0.39400537378732459 0 -0.30783074152317963 1 I I #
coedge $-1 $255 $255 $-1 $365 reversed $159 $-1 #
edge $-1 $366 0 $366 6.2831853071796004 $160 $367 forward 7 unknown #
vertex $-1 $163 $368 #
ellipse-curve $-1 49.159247670141106 13.3889985143438 3.4128352963238271 0.61566148304635926 0 0.78801074757464917 0.39400537378732459 0 -0.30783074152317963 1 I I #
coedge $-1 $259 $259 $-1 $369 reversed $166 $-1 #
edge $-1 $370 0 $370 6.2831853071796004 $167 $371 forward 7 unknown #
vertex $-1 $170 $372 #
ellipse-curve $-1 49.159247670141106 17.098861645375916 3.4128352963238271 0.61566148304635926 0 0.78801074757464917 0.39400537378732459 0 -0.30783074152317963 1 I I #
face $-1 $-1 $275 $36 $-1 $373 forward single #
loop $-1 $-1 $374 $171 #
plane-surface $-1 -52.13660084841456 0 0 1 0 0 0 0 -1 forward_v I I I I #
coedge $-1 $375 $376 $377 $378 reversed $172 $-1 #
coedge $-1 $379 $174 $176 $273 forward $108 $-1 #
coedge $-1 $174 $379 $375 $380 forward $108 $-1 #
coedge $-1 $377 $177 $174 $270 forward $275 $-1 #
edge $-1 $277 0.51139403878503664 $381 12.877604475558764 $269 $382 forward 7 unknown #
coedge $-1 $383 $384 $175 $272 forward $264 $-1 #
edge $-1 $385 -40.540865807496694 $276 -35.88853922710323 $271 $386 forward 7 unknown #
edge $-1 $277 -7.5566308897110783 $385 1.8033521786330445e-014 $176 $387 forward 7 unknown #
coedge $-1 $177 $377 $383 $388 forward $275 $-1 #
loop $-1 $-1 $377 $263 #
vertex $-1 $272 $389 #
vertex $-1 $178 $390 #
straight-curve $-1 -58.166797423538256 7.2058932959569368 5.7389985865205801 1 0 0 I I #
coedge $-1 $279 $279 $-1 $391 reversed $181 $-1 #
edge $-1 $392 0 $392 6.2831853071796004 $182 $393 forward 7 unknown #
vertex $-1 $185 $394 #
ellipse-curve $-1 -49.159247670141099 9.6791353833116851 3.4128352963238511 -0.61566148304635926 0 0.78801074757464917 0.39400537378732459 0 0.30783074152317963 1 I I #
coedge $-1 $283 $283 $-1 $395 reversed $188 $-1 #
edge $-1 $396 0 $396 6.2831853071796004 $189 $397 forward 7 unknown #
vertex $-1 $192 $398 #
ellipse-curve $-1 -49.159247670141099 13.3889985143438 3.4128352963238511 -0.61566148304635926 0 0.78801074757464917 0.39400537378732459 0 0.30783074152317963 1 I I #
coedge $-1 $287 $287 $-1 $399 reversed $195 $-1 #
edge $-1 $400 0 $400 6.2831853071796004 $196 $401 forward 7 unknown #
vertex $-1 $199 $402 #
ellipse-curve $-1 -49.159247670141099 17.098861645375916 3.4128352963238511 -0.61566148304635926 0 0.78801074757464917 0.39400537378732459 0 0.30783074152317963 1 I I #
face $-1 $-1 $215 $30 $-1 $403 reversed single #
loop $-1 $-1 $307 $200 #
plane-surface $-1 0 27.756013444011149 0 0 -1 0 0 0 -1 forward_v I I I I #
coedge $-1 $404 $305 $308 $405 forward $201 $-1 #
coedge $-1 $311 $203 $204 $299 reversed $127 $-1 #
coedge $-1 $305 $404 $203 $297 reversed $201 $-1 #
edge $-1 $312 -5.7389985865205828 $406 5.7389985865205828 $296 $407 forward 7 unknown #
coedge $-1 $205 $204 $404 $408 forward $81 $-1 #
edge $-1 $303 -52.13660084841456 $406 52.13660084841456 $295 $409 forward 7 unknown #
coedge $-1 $308 $307 $205 $301 reversed $292 $-1 #
edge $-1 $410 -52.13660084841456 $302 52.13660084841456 $300 $411 forward 7 unknown #
vertex $-1 $207 $412 #
vertex $-1 $314 $413 #
straight-curve $-1 52.13660084841456 0 -5.7389985865205828 0 -1 0 I I #
coedge $-1 $294 $296 $208 $306 reversed $201 $-1 #
edge $-1 $309 -27.756013444011149 $312 27.756013444011149 $305 $414 forward 7 unknown #
coedge $-1 $300 $209 $214 $315 forward $292 $-1 #
coedge $-1 $209 $300 $294 $405 reversed $292 $-1 #
vertex $-1 $210 $415 #
straight-curve $-1 0 27.756013444011149 5.7389985865205828 -1 0 0 I I #
coedge $-1 $211 $295 $213 $314 reversed $127 $-1 #
vertex $-1 $306 $416 #
straight-curve $-1 0 -27.756013444011149 5.7389985865205828 1 0 0 I I #
edge $-1 $216 -5.7389985865205828 $303 5.7389985865205828 $213 $417 forward 7 unknown #
edge $-1 $217 -5.7389985865205828 $302 5.7389985865205828 $214 $418 forward 7 unknown #
point $-1 52.13660084841456 -27.756013444011149 5.7389985865205828 #
point $-1 52.13660084841456 27.756013444011149 5.7389985865205828 #
face $-1 $-1 $419 $31 $-1 $420 reversed single #
loop $-1 $-1 $421 $219 #
plane-surface $-1 0 0 -5.7389985865205828 0 0 1 1 0 0 forward_v I I I I #
coedge $-1 $328 $338 $323 $422 forward $220 $-1 #
coedge $-1 $225 $222 $421 $423 reversed $135 $-1 #
coedge $-1 $222 $225 $321 $422 reversed $135 $-1 #
coedge $-1 $424 $425 $222 $325 forward $419 $-1 #
edge $-1 $426 -5.7389985865205828 $427 5.7389985865205828 $324 $428 forward 7 unknown #
coedge $-1 $421 $228 $223 $327 forward $319 $-1 #
edge $-1 $233 -24.453325505533527 $331 -21.453325505533527 $326 $429 forward 7 unknown #
coedge $-1 $230 $321 $224 $329 forward $220 $-1 #
edge $-1 $330 21.453325505533527 $232 24.453325505533527 $328 $430 forward 7 unknown #
vertex $-1 $329 $431 #
vertex $-1 $327 $432 #
straight-curve $-1 -44.406651011067055 -23.390178027696923 0 0 0 -1 I I #
coedge $-1 $425 $424 $227 $334 forward $419 $-1 #
edge $-1 $339 -5.7389985865205828 $336 5.7389985865205828 $333 $433 forward 7 unknown #
coedge $-1 $228 $421 $425 $434 forward $319 $-1 #
vertex $-1 $229 $435 #
straight-curve $-1 -47.406651011067055 -12.786547867927018 -5.7389985865205828 0 1 0 I I #
coedge $-1 $321 $230 $424 $436 forward $220 $-1 #
vertex $-1 $436 $437 #
straight-curve $-1 -47.406651011067055 -12.786547867927018 5.7389985865205828 0 -1 0 I I #
point $-1 -47.406651011067055 -23.390178027696923 5.7389985865205828 #
point $-1 -47.406651011067055 -23.390178027696923 -5.7389985865205828 #
plane-surface $-1 0 0 5.7389985865205828 0 0 1 1 0 0 forward_v I I I I #
coedge $-1 $354 $353 $346 $438 forward $236 $-1 #
coedge $-1 $346 $238 $240 $350 reversed $143 $-1 #
coedge $-1 $238 $345 $344 $438 reversed $143 $-1 #
coedge $-1 $246 $241 $238 $348 forward $247 $-1 #
edge $-1 $351 29.099298878889599 $439 35.054005235436549 $347 $440 forward 7 unknown #
coedge $-1 $240 $239 $354 $441 reversed $89 $-1 #
edge $-1 $442 -104.27320169682912 $351 -96.716570807118003 $345 $443 forward 7 unknown #
vertex $-1 $242 $444 #
straight-curve $-1 46.181894491867617 6.6944992571719002 5.738998586520573 0 -1 0 I I #
coedge $-1 $344 $243 $246 $358 reversed $236 $-1 #
coedge $-1 $243 $344 $349 $441 forward $236 $-1 #
vertex $-1 $244 $445 #
straight-curve $-1 52.13660084841456 19.572103732730664 73.726034812954779 0 0 1 I I #
straight-curve $-1 -30.031802772705944 19.572103732730664 65.283666004789069 0.78801074757464917 0 -0.61566148304635926 I I #
edge $-1 $439 7.2058932959569368 $248 19.572103732730664 $353 $446 forward 7 unknown #
point $-1 52.13660084841456 19.572103732730664 5.7389985865205828 #
point $-1 46.18189449186761 19.572103732730664 5.7389985865205801 #
edge $-1 $447 1 $447 0 $251 $-1 forward 7 unknown #
vertex $-1 $252 $448 #
ellipse-curve $-1 48.503462126392058 9.6791353833116851 2.5734680940403276 0.61566148304635926 0 0.78801074757464917 0.39400537378732459 0 -0.30783074152317963 1 I I #
point $-1 49.55325304392845 9.6791353833116851 3.1050045548006708 #
edge $-1 $449 1 $449 0 $255 $-1 forward 7 unknown #
vertex $-1 $256 $450 #
ellipse-curve $-1 48.503462126392058 13.3889985143438 2.5734680940403276 0.61566148304635926 0 0.78801074757464917 0.39400537378732459 0 -0.30783074152317963 1 I I #
point $-1 49.55325304392845 13.3889985143438 3.1050045548006708 #
edge $-1 $451 1 $451 0 $259 $-1 forward 7 unknown #
vertex $-1 $260 $452 #
ellipse-curve $-1 48.503462126392058 17.098861645375916 2.5734680940403276 0.61566148304635926 0 0.78801074757464917 0.39400537378732459 0 -0.30783074152317963 1 I I #
point $-1 49.55325304392845 17.098861645375916 3.1050045548006708 #
plane-surface $-1 0 0 5.7389985865205828 0 0 1 1 0 0 forward_v I I I I #
coedge $-1 $384 $383 $376 $453 forward $264 $-1 #
coedge $-1 $376 $266 $268 $380 reversed $172 $-1 #
coedge $-1 $266 $375 $374 $453 reversed $172 $-1 #
coedge $-1 $274 $269 $266 $378 forward $275 $-1 #
edge $-1 $381 -11.984902931670625 $454 -6.0301965751236963 $377 $455 forward 7 unknown #
coedge $-1 $268 $267 $384 $456 reversed $108 $-1 #
edge $-1 $457 -1.8033521786330445e-014 $381 7.5566308897110783 $375 $458 forward 7 unknown #
vertex $-1 $270 $459 #
straight-curve $-1 -46.181894491867631 6.6944992571719002 5.7389985865205819 0 1 0 I I #
coedge $-1 $374 $271 $274 $388 reversed $264 $-1 #
coedge $-1 $271 $374 $379 $456 forward $264 $-1 #
vertex $-1 $272 $460 #
straight-curve $-1 -52.13660084841456 7.2058932959569368 41.62753781362381 0 0 1 I I #
straight-curve $-1 -52.136600848414545 7.2058932959569368 1.0866720061271309 -0.78801074757464917 0 -0.61566148304635926 I I #
edge $-1 $454 -19.572103732730664 $276 -7.2058932959569368 $383 $461 forward 7 unknown #
point $-1 -52.13660084841456 7.2058932959569368 5.7389985865205828 #
point $-1 -46.181894491867631 7.2058932959569368 5.7389985865205828 #
edge $-1 $462 1 $462 0 $279 $-1 forward 7 unknown #
vertex $-1 $280 $463 #
ellipse-curve $-1 -48.503462126392037 9.6791353833116851 2.5734680940403329 -0.61566148304635926 0 0.78801074757464917 0.39400537378732459 0 0.30783074152317963 1 I I #
point $-1 -48.765242296353776 9.6791353833116851 3.7206660378470353 #
edge $-1 $464 1 $464 0 $283 $-1 forward 7 unknown #
vertex $-1 $284 $465 #
ellipse-curve $-1 -48.503462126392037 13.3889985143438 2.5734680940403329 -0.61566148304635926 0 0.78801074757464917 0.39400537378732459 0 0.30783074152317963 1 I I #
point $-1 -48.765242296353776 13.3889985143438 3.7206660378470353 #
edge $-1 $466 1 $466 0 $287 $-1 forward 7 unknown #
vertex $-1 $288 $467 #
ellipse-curve $-1 -48.503462126392037 17.098861645375916 2.5734680940403329 -0.61566148304635926 0 0.78801074757464917 0.39400537378732459 0 0.30783074152317963 1 I I #
point $-1 -48.765242296353776 17.098861645375916 3.7206660378470353 #
plane-surface $-1 52.13660084841456 0 0 -1 0 0 0 0 1 forward_v I I I I #
coedge $-1 $296 $294 $298 $408 reversed $201 $-1 #
edge $-1 $309 -5.7389985865205828 $410 5.7389985865205828 $308 $468 forward 7 unknown #
vertex $-1 $408 $469 #
straight-curve $-1 -52.13660084841456 -27.756013444011149 0 0 0 -1 I I #
edge $-1 $406 -27.756013444011149 $410 27.756013444011149 $404 $470 forward 7 unknown #
straight-curve $-1 0 -27.756013444011149 -5.7389985865205828 -1 0 0 I I #
vertex $-1 $301 $471 #
straight-curve $-1 0 27.756013444011149 -5.7389985865205828 1 0 0 I I #
point $-1 52.13660084841456 27.756013444011149 -5.7389985865205828 #
point $-1 52.13660084841456 -27.756013444011149 -5.7389985865205828 #
straight-curve $-1 -52.13660084841456 0 5.7389985865205828 0 -1 0 I I #
point $-1 -52.13660084841456 27.756013444011149 5.7389985865205828 #
point $-1 -52.13660084841456 -27.756013444011149 5.7389985865205828 #
straight-curve $-1 52.13660084841456 -27.756013444011149 0 0 0 -1 I I #
straight-curve $-1 52.13660084841456 27.756013444011149 0 0 0 -1 I I #
loop $-1 $-1 $324 $318 #
plane-surface $-1 0 -27.756013444011149 0 0 1 0 0 0 1 forward_v I I I I #
coedge $-1 $335 $326 $322 $423 forward $319 $-1 #
edge $-1 $427 -14.969465576084131 $330 -10.603630159769905 $321 $472 forward 7 unknown #
edge $-1 $331 10.603630159769905 $426 14.969465576084131 $421 $473 forward 7 unknown #
coedge $-1 $333 $324 $338 $436 reversed $419 $-1 #
coedge $-1 $324 $333 $335 $434 reversed $419 $-1 #
vertex $-1 $434 $474 #
vertex $-1 $325 $475 #
straight-curve $-1 -44.406651011067055 -27.756013444011149 0 0 0 1 I I #
straight-curve $-1 -22.953325505533527 -23.390178027696923 -5.7389985865205828 1 0 0 I I #
straight-curve $-1 -22.953325505533527 -23.390178027696923 5.7389985865205828 -1 0 0 I I #
point $-1 -44.406651011067055 -23.390178027696923 5.7389985865205828 #
point $-1 -44.406651011067055 -23.390178027696923 -5.7389985865205828 #
straight-curve $-1 -47.406651011067055 -27.756013444011149 0 0 0 -1 I I #
edge $-1 $426 44.406651011067055 $336 47.406651011067055 $425 $476 forward 7 unknown #
point $-1 -47.406651011067055 -27.756013444011149 -5.7389985865205828 #
edge $-1 $339 -47.406651011067055 $427 -44.406651011067055 $424 $477 forward 7 unknown #
point $-1 -47.406651011067055 -27.756013444011149 5.7389985865205828 #
edge $-1 $439 67.987036226434199 $442 72.639362806827677 $344 $478 forward 7 unknown #
vertex $-1 $358 $479 #
straight-curve $-1 17.082595612978011 7.2058932959569368 5.7389985865205801 1 0 0 I I #
edge $-1 $442 0.51139403878503664 $355 12.877604475558764 $354 $480 forward 7 unknown #
vertex $-1 $441 $481 #
straight-curve $-1 -30.031802772705944 7.2058932959569368 65.283666004789069 -0.78801074757464917 0 0.61566148304635926 I I #
point $-1 46.18189449186761 7.2058932959569368 5.7389985865205801 #
point $-1 52.13660084841456 19.572103732730664 1.0866720061271025 #
straight-curve $-1 52.13660084841456 0 5.7389985865205828 0 1 0 I I #
vertex $-1 $361 $482 #
point $-1 48.897467500179381 9.6791353833116851 2.2656373525171478 #
vertex $-1 $365 $483 #
point $-1 48.897467500179381 13.3889985143438 2.2656373525171478 #
vertex $-1 $369 $484 #
point $-1 48.897467500179381 17.098861645375916 2.2656373525171478 #
edge $-1 $454 35.88853922710323 $457 40.540865807496694 $374 $485 forward 7 unknown #
vertex $-1 $388 $486 #
straight-curve $-1 -58.166797423538256 19.572103732730664 5.7389985865205801 -1 0 0 I I #
edge $-1 $457 -12.877604475558764 $385 -0.51139403878503664 $384 $487 forward 7 unknown #
vertex $-1 $456 $488 #
straight-curve $-1 -52.136600848414545 19.572103732730664 1.0866720061271309 0.78801074757464917 0 0.61566148304635926 I I #
point $-1 -46.181894491867631 19.572103732730664 5.7389985865205828 #
point $-1 -52.13660084841456 7.2058932959569368 1.0866720061271198 #
straight-curve $-1 -52.13660084841456 0 5.7389985865205828 0 -1 0 I I #
vertex $-1 $391 $489 #
point $-1 -48.109456752604714 9.6791353833116851 2.8812988355635127 #
vertex $-1 $395 $490 #
point $-1 -48.109456752604714 13.3889985143438 2.8812988355635127 #
vertex $-1 $399 $491 #
point $-1 -48.109456752604714 17.098861645375916 2.8812988355635127 #
straight-curve $-1 -52.13660084841456 27.756013444011149 0 0 0 -1 I I #
point $-1 -52.13660084841456 -27.756013444011149 -5.7389985865205828 #
straight-curve $-1 -52.13660084841456 0 -5.7389985865205828 0 1 0 I I #
point $-1 -52.13660084841456 27.756013444011149 -5.7389985865205828 #
straight-curve $-1 -44.406651011067055 -12.786547867927018 5.7389985865205828 0 1 0 I I #
straight-curve $-1 -44.406651011067055 -12.786547867927018 -5.7389985865205828 0 -1 0 I I #
point $-1 -44.406651011067055 -27.756013444011149 -5.7389985865205828 #
point $-1 -44.406651011067055 -27.756013444011149 5.7389985865205828 #
straight-curve $-1 0 -27.756013444011149 -5.7389985865205828 -1 0 0 I I #
straight-curve $-1 0 -27.756013444011149 5.7389985865205828 1 0 0 I I #
straight-curve $-1 52.13660084841456 7.2058932959569368 73.726034812954779 0 0 -1 I I #
point $-1 52.13660084841456 7.2058932959569368 5.7389985865205828 #
straight-curve $-1 52.13660084841456 6.6944992571719002 1.0866720061270918 0 1 0 I I #
point $-1 52.13660084841456 7.2058932959569368 1.0866720061271025 #
point $-1 48.195631384868882 9.6791353833116851 2.179462720253003 #
point $-1 48.195631384868882 13.3889985143438 2.179462720253003 #
point $-1 48.195631384868882 17.098861645375916 2.179462720253003 #
straight-curve $-1 -52.13660084841456 19.572103732730664 41.62753781362381 0 0 -1 I I #
point $-1 -52.13660084841456 19.572103732730664 5.7389985865205828 #
straight-curve $-1 -52.13660084841456 6.6944992571719002 1.0866720061271224 0 -1 0 I I #
point $-1 -52.13660084841456 19.572103732730664 1.0866720061271198 #
point $-1 -48.195631384868861 9.6791353833116851 2.1794627202530084 #
point $-1 -48.195631384868861 13.3889985143438 2.1794627202530084 #
point $-1 -48.195631384868861 17.098861645375916 2.1794627202530084 #
End-of-ACIS-data 