500 0 14 0           
7 Unknown 11 ACIS 5.0 NT 24 Thu Mar 25 19:27:42 1999 
-1 9.9999999999999995e-007 1e-010 
body $-1 $14 $-1 $15 #
body $-1 $16 $-1 $17 #
body $-1 $18 $-1 $19 #
body $-1 $20 $-1 $21 #
body $-1 $22 $-1 $23 #
body $-1 $24 $-1 $25 #
body $-1 $26 $-1 $27 #
body $-1 $28 $-1 $29 #
body $-1 $30 $-1 $31 #
body $-1 $32 $-1 $33 #
body $-1 $34 $-1 $35 #
body $-1 $36 $-1 $37 #
body $-1 $38 $-1 $39 #
body $-1 $40 $-1 $41 #
lump $-1 $-1 $42 $0 #
transform $-1 1 0 0 0 1 0 0 0 1 49.369182409131142 30.274803231684295 10.659794528791506 1 rotate no_reflect no_shear #
lump $-1 $-1 $43 $1 #
transform $-1 1 0 0 0 1 0 0 0 1 -6.7117862199170011 30.274803231684295 10.062308777255488 1 rotate no_reflect no_shear #
lump $-1 $-1 $44 $2 #
transform $-1 1 0 0 0 1 0 0 0 1 105.45015103817929 30.274803231684295 10.062308777255488 1 rotate no_reflect no_shear #
lump $-1 $-1 $45 $3 #
transform $-1 1 0 0 0 0.48480960649040278 -0.87461971476443456 0 0.87461971476443456 0.48480960649040278 19.320530549821392 117.55309605436936 114.21876562812258 1 rotate no_reflect no_shear #
lump $-1 $-1 $46 $4 #
transform $-1 1 0 0 0 -0.48480960649040278 0.87461971476443456 0 -0.87461971476443456 -0.48480960649040278 15.782355683828957 55.76125457200834 15.919331336193608 1 rotate no_reflect no_shear #
lump $-1 $-1 $47 $5 #
transform $-1 1 0 0 0 -0.48480960649040278 0.87461971476443456 0 -0.87461971476443456 -0.48480960649040278 19.320530549821392 55.76125457200834 15.919331336193608 1 rotate no_reflect no_shear #
lump $-1 $-1 $48 $6 #
transform $-1 1 0 0 0 -0.48480960649040278 0.87461971476443456 0 -0.87461971476443456 -0.48480960649040278 22.858705415813827 55.76125457200834 15.919331336193608 1 rotate no_reflect no_shear #
lump $-1 $-1 $49 $7 #
transform $-1 1 0 0 0 0.48480960649040278 -0.87461971476443456 0 0.87461971476443456 0.48480960649040278 55.26614051911853 117.55309605436936 114.21876562812258 1 rotate no_reflect no_shear #
lump $-1 $-1 $50 $8 #
transform $-1 1 0 0 0 -0.48480960649040278 0.87461971476443456 0 -0.87461971476443456 -0.48480960649040278 51.727965653126091 55.76125457200834 15.919331336193608 1 rotate no_reflect no_shear #
lump $-1 $-1 $51 $9 #
transform $-1 1 0 0 0 -0.48480960649040278 0.87461971476443456 0 -0.87461971476443456 -0.48480960649040278 55.26614051911853 55.76125457200834 15.919331336193608 1 rotate no_reflect no_shear #
lump $-1 $-1 $52 $10 #
transform $-1 1 0 0 0 -0.48480960649040278 0.87461971476443456 0 -0.87461971476443456 -0.48480960649040278 58.804315385110968 55.76125457200834 15.919331336193608 1 rotate no_reflect no_shear #
lump $-1 $-1 $53 $11 #
transform $-1 1 0 0 0 0.71933979245794832 0.69465837861970381 0 -0.69465837861970381 0.71933979245794832 79.079736884104889 -68.58943241221489 87.422133750560505 1 rotate no_reflect no_shear #
lump $-1 $-1 $54 $12 #
transform $-1 1 0 0 0 -0.71933979245794832 -0.69465837861970381 0 0.69465837861970381 -0.71933979245794832 76.407570243680581 4.7589080755418065 16.569650806732064 1 rotate no_reflect no_shear #
lump $-1 $-1 $55 $13 #
transform $-1 1 0 0 0 -0.71933979245794832 -0.69465837861970381 0 0.69465837861970381 -0.71933979245794832 81.751903524529197 4.7589080755418065 16.569650806732064 1 rotate no_reflect no_shear #
shell $-1 $-1 $-1 $56 $-1 $14 #
shell $-1 $-1 $-1 $57 $-1 $16 #
shell $-1 $-1 $-1 $58 $-1 $18 #
shell $-1 $-1 $-1 $59 $-1 $20 #
shell $-1 $-1 $-1 $60 $-1 $22 #
shell $-1 $-1 $-1 $61 $-1 $24 #
shell $-1 $-1 $-1 $62 $-1 $26 #
shell $-1 $-1 $-1 $63 $-1 $28 #
shell $-1 $-1 $-1 $64 $-1 $30 #
shell $-1 $-1 $-1 $65 $-1 $32 #
shell $-1 $-1 $-1 $66 $-1 $34 #
shell $-1 $-1 $-1 $67 $-1 $36 #
shell $-1 $-1 $-1 $68 $-1 $38 #
shell $-1 $-1 $-1 $69 $-1 $40 #
face $-1 $70 $71 $42 $-1 $72 forward single #
face $-1 $73 $74 $43 $-1 $75 forward single #
face $-1 $76 $77 $44 $-1 $78 forward single #
face $-1 $79 $80 $45 $-1 $81 forward single #
face $-1 $82 $83 $46 $-1 $84 forward single #
face $-1 $85 $86 $47 $-1 $87 forward single #
face $-1 $88 $89 $48 $-1 $90 forward single #
face $-1 $91 $92 $49 $-1 $93 forward single #
face $-1 $94 $95 $50 $-1 $96 forward single #
face $-1 $97 $98 $51 $-1 $99 forward single #
face $-1 $100 $101 $52 $-1 $102 forward single #
face $-1 $103 $104 $53 $-1 $105 forward single #
face $-1 $106 $107 $54 $-1 $108 forward single #
face $-1 $109 $110 $55 $-1 $111 forward single #
face $-1 $112 $113 $42 $-1 $114 reversed single #
loop $-1 $-1 $115 $56 #
plane-surface $-1 0 0 10.659794528791506 0 0 1 1 0 0 forward_v I I I I #
face $-1 $116 $117 $43 $-1 $118 reversed single #
loop $-1 $-1 $119 $57 #
plane-surface $-1 0 0 1.9932094820536728 0 0 1 1 0 0 forward_v I I I I #
face $-1 $120 $121 $44 $-1 $122 reversed single #
loop $-1 $-1 $123 $58 #
plane-surface $-1 0 0 1.9932094820536728 0 0 1 1 0 0 forward_v I I I I #
face $-1 $124 $125 $45 $-1 $126 reversed single #
loop $-1 $-1 $127 $59 #
plane-surface $-1 0 0 98.738364818262284 0 0 1 1 0 0 forward_v I I I I #
face $-1 $128 $129 $46 $-1 $130 forward single #
loop $-1 $131 $132 $60 #
cone-surface $-1 0 0 -1.7312540055543693 0 0 1 1 0 0 1 I I 0 1 1 forward I I I I #
face $-1 $133 $134 $47 $-1 $135 forward single #
loop $-1 $136 $137 $61 #
cone-surface $-1 0 0 -1.7312540055543693 0 0 1 1 0 0 1 I I 0 1 1 forward I I I I #
face $-1 $138 $139 $48 $-1 $140 forward single #
loop $-1 $141 $142 $62 #
cone-surface $-1 0 0 -1.7312540055543693 0 0 1 1 0 0 1 I I 0 1 1 forward I I I I #
face $-1 $143 $144 $49 $-1 $145 reversed single #
loop $-1 $-1 $146 $63 #
plane-surface $-1 0 0 98.738364818262284 0 0 1 1 0 0 forward_v I I I I #
face $-1 $147 $148 $50 $-1 $149 forward single #
loop $-1 $150 $151 $64 #
cone-surface $-1 0 0 -1.7312540055543693 0 0 1 1 0 0 1 I I 0 1 1 forward I I I I #
face $-1 $152 $153 $51 $-1 $154 forward single #
loop $-1 $155 $156 $65 #
cone-surface $-1 0 0 -1.7312540055543693 0 0 1 1 0 0 1 I I 0 1 1 forward I I I I #
face $-1 $157 $158 $52 $-1 $159 forward single #
loop $-1 $160 $161 $66 #
cone-surface $-1 0 0 -1.7312540055543693 0 0 1 1 0 0 1 I I 0 1 1 forward I I I I #
face $-1 $162 $163 $53 $-1 $164 reversed single #
loop $-1 $-1 $165 $67 #
plane-surface $-1 0 0 98.738364818262284 0 0 1 1 0 0 forward_v I I I I #
face $-1 $166 $167 $54 $-1 $168 forward single #
loop $-1 $169 $170 $68 #
cone-surface $-1 0 0 -1.8403424176763199 0 0 1 1 0 0 1 I I 0 1 1 forward I I I I #
face $-1 $171 $172 $55 $-1 $173 forward single #
loop $-1 $174 $175 $69 #
cone-surface $-1 0 0 -1.8403424176763199 0 0 1 1 0 0 1 I I 0 1 1 forward I I I I #
face $-1 $176 $177 $42 $-1 $178 reversed single #
loop $-1 $-1 $179 $70 #
plane-surface $-1 0 0 -10.659794528791506 0 0 1 1 0 0 forward_v I I I I #
coedge $-1 $180 $181 $182 $183 forward $71 $-1 #
face $-1 $184 $185 $43 $-1 $186 reversed single #
loop $-1 $-1 $187 $73 #
plane-surface $-1 0 0 -1.9932094820536728 0 0 1 1 0 0 forward_v I I I I #
coedge $-1 $188 $189 $190 $191 forward $74 $-1 #
face $-1 $192 $193 $44 $-1 $194 reversed single #
loop $-1 $-1 $195 $76 #
plane-surface $-1 0 0 -1.9932094820536728 0 0 1 1 0 0 forward_v I I I I #
coedge $-1 $196 $197 $198 $199 forward $77 $-1 #
face $-1 $200 $201 $45 $-1 $202 reversed single #
loop $-1 $-1 $203 $79 #
plane-surface $-1 0 0 -98.738364818262284 0 0 1 1 0 0 forward_v I I I I #
coedge $-1 $204 $205 $206 $207 forward $80 $-1 #
face $-1 $-1 $208 $46 $-1 $209 forward single #
loop $-1 $-1 $210 $82 #
plane-surface $-1 0 0 -2.9625080111087376 0 0 -1 -1 0 0 forward_v I I I I #
loop $-1 $-1 $211 $60 #
coedge $-1 $132 $132 $210 $212 reversed $83 $-1 #
face $-1 $-1 $213 $47 $-1 $214 forward single #
loop $-1 $-1 $215 $85 #
plane-surface $-1 0 0 -2.9625080111087376 0 0 -1 -1 0 0 forward_v I I I I #
loop $-1 $-1 $216 $61 #
coedge $-1 $137 $137 $215 $217 reversed $86 $-1 #
face $-1 $-1 $218 $48 $-1 $219 forward single #
loop $-1 $-1 $220 $88 #
plane-surface $-1 0 0 -2.9625080111087376 0 0 -1 -1 0 0 forward_v I I I I #
loop $-1 $-1 $221 $62 #
coedge $-1 $142 $142 $220 $222 reversed $89 $-1 #
face $-1 $223 $224 $49 $-1 $225 reversed single #
loop $-1 $-1 $226 $91 #
plane-surface $-1 0 0 -98.738364818262284 0 0 1 1 0 0 forward_v I I I I #
coedge $-1 $227 $228 $229 $230 forward $92 $-1 #
face $-1 $-1 $231 $50 $-1 $232 forward single #
loop $-1 $-1 $233 $94 #
plane-surface $-1 0 0 -2.9625080111087376 0 0 -1 -1 0 0 forward_v I I I I #
loop $-1 $-1 $234 $64 #
coedge $-1 $151 $151 $233 $235 reversed $95 $-1 #
face $-1 $-1 $236 $51 $-1 $237 forward single #
loop $-1 $-1 $238 $97 #
plane-surface $-1 0 0 -2.9625080111087376 0 0 -1 -1 0 0 forward_v I I I I #
loop $-1 $-1 $239 $65 #
coedge $-1 $156 $156 $238 $240 reversed $98 $-1 #
face $-1 $-1 $241 $52 $-1 $242 forward single #
loop $-1 $-1 $243 $100 #
plane-surface $-1 0 0 -2.9625080111087376 0 0 -1 -1 0 0 forward_v I I I I #
loop $-1 $-1 $244 $66 #
coedge $-1 $161 $161 $243 $245 reversed $101 $-1 #
face $-1 $246 $247 $53 $-1 $248 reversed single #
loop $-1 $-1 $249 $103 #
plane-surface $-1 0 0 -98.738364818262284 0 0 1 1 0 0 forward_v I I I I #
coedge $-1 $250 $251 $252 $253 forward $104 $-1 #
face $-1 $-1 $254 $54 $-1 $255 forward single #
loop $-1 $-1 $256 $106 #
plane-surface $-1 0 0 -3.1806848353526407 0 0 -1 -1 0 0 forward_v I I I I #
loop $-1 $-1 $257 $68 #
coedge $-1 $170 $170 $256 $258 reversed $107 $-1 #
face $-1 $-1 $259 $55 $-1 $260 forward single #
loop $-1 $-1 $261 $109 #
plane-surface $-1 0 0 -3.1806848353526407 0 0 -1 -1 0 0 forward_v I I I I #
loop $-1 $-1 $262 $69 #
coedge $-1 $175 $175 $261 $263 reversed $110 $-1 #
face $-1 $264 $265 $42 $-1 $266 reversed single #
loop $-1 $-1 $267 $112 #
plane-surface $-1 0 -30.274803231684295 0 0 1 0 0 0 1 forward_v I I I I #
coedge $-1 $268 $269 $270 $271 forward $113 $-1 #
coedge $-1 $272 $115 $273 $274 forward $71 $-1 #
coedge $-1 $115 $272 $275 $276 forward $71 $-1 #
coedge $-1 $277 $278 $115 $183 reversed $279 $-1 #
edge $-1 $280 -30.274803231684295 $281 30.274803231684295 $182 $282 forward 7 unknown #
face $-1 $283 $284 $43 $-1 $285 reversed single #
loop $-1 $-1 $286 $116 #
plane-surface $-1 0 -30.274803231684295 0 0 1 0 0 0 1 forward_v I I I I #
coedge $-1 $287 $288 $289 $290 forward $117 $-1 #
coedge $-1 $291 $119 $292 $293 forward $74 $-1 #
coedge $-1 $119 $291 $294 $295 forward $74 $-1 #
coedge $-1 $296 $297 $119 $191 reversed $298 $-1 #
edge $-1 $299 -30.274803231684295 $300 30.274803231684295 $190 $301 forward 7 unknown #
face $-1 $302 $303 $44 $-1 $304 reversed single #
loop $-1 $-1 $305 $120 #
plane-surface $-1 0 -30.274803231684295 0 0 1 0 0 0 1 forward_v I I I I #
coedge $-1 $306 $307 $308 $309 forward $121 $-1 #
coedge $-1 $310 $123 $311 $312 forward $77 $-1 #
coedge $-1 $123 $310 $313 $314 forward $77 $-1 #
coedge $-1 $315 $316 $123 $199 reversed $317 $-1 #
edge $-1 $318 -30.274803231684295 $319 30.274803231684295 $198 $320 forward 7 unknown #
face $-1 $321 $322 $45 $-1 $323 reversed single #
loop $-1 $-1 $324 $124 #
plane-surface $-1 0 -197.47672963652457 0 0 1 0 0 0 1 forward_v I I I I #
coedge $-1 $325 $326 $327 $328 forward $125 $-1 #
coedge $-1 $329 $127 $330 $331 forward $80 $-1 #
coedge $-1 $127 $329 $332 $333 forward $80 $-1 #
coedge $-1 $334 $335 $127 $207 reversed $336 $-1 #
edge $-1 $337 -197.47672963652457 $338 197.47672963652457 $206 $339 forward 7 unknown #
loop $-1 $340 $341 $128 #
cone-surface $-1 0 0 0 0 0 1 0.5 0 0 1 I I -0.70710678118654746 0.70710678118654746 0.5 forward I I I I #
coedge $-1 $210 $210 $132 $212 forward $129 $-1 #
coedge $-1 $211 $211 $341 $342 forward $131 $-1 #
edge $-1 $343 0 $343 6.2831853071796004 $210 $344 forward 7 unknown #
loop $-1 $345 $346 $133 #
cone-surface $-1 0 0 0 0 0 1 0.5 0 0 1 I I -0.70710678118654746 0.70710678118654746 0.5 forward I I I I #
coedge $-1 $215 $215 $137 $217 forward $134 $-1 #
coedge $-1 $216 $216 $346 $347 forward $136 $-1 #
edge $-1 $348 0 $348 6.2831853071796004 $215 $349 forward 7 unknown #
loop $-1 $350 $351 $138 #
cone-surface $-1 0 0 0 0 0 1 0.5 0 0 1 I I -0.70710678118654746 0.70710678118654746 0.5 forward I I I I #
coedge $-1 $220 $220 $142 $222 forward $139 $-1 #
coedge $-1 $221 $221 $351 $352 forward $141 $-1 #
edge $-1 $353 0 $353 6.2831853071796004 $220 $354 forward 7 unknown #
face $-1 $355 $356 $49 $-1 $357 reversed single #
loop $-1 $-1 $358 $143 #
plane-surface $-1 0 -197.47672963652457 0 0 1 0 0 0 1 forward_v I I I I #
coedge $-1 $359 $360 $361 $362 forward $144 $-1 #
coedge $-1 $363 $146 $364 $365 forward $92 $-1 #
coedge $-1 $146 $363 $366 $367 forward $92 $-1 #
coedge $-1 $368 $369 $146 $230 reversed $370 $-1 #
edge $-1 $371 -197.47672963652457 $372 197.47672963652457 $229 $373 forward 7 unknown #
loop $-1 $374 $375 $147 #
cone-surface $-1 0 0 0 0 0 1 0.5 0 0 1 I I -0.70710678118654746 0.70710678118654746 0.5 forward I I I I #
coedge $-1 $233 $233 $151 $235 forward $148 $-1 #
coedge $-1 $234 $234 $375 $376 forward $150 $-1 #
edge $-1 $377 0 $377 6.2831853071796004 $233 $378 forward 7 unknown #
loop $-1 $379 $380 $152 #
cone-surface $-1 0 0 0 0 0 1 0.5 0 0 1 I I -0.70710678118654746 0.70710678118654746 0.5 forward I I I I #
coedge $-1 $238 $238 $156 $240 forward $153 $-1 #
coedge $-1 $239 $239 $380 $381 forward $155 $-1 #
edge $-1 $382 0 $382 6.2831853071796004 $238 $383 forward 7 unknown #
loop $-1 $384 $385 $157 #
cone-surface $-1 0 0 0 0 0 1 0.5 0 0 1 I I -0.70710678118654746 0.70710678118654746 0.5 forward I I I I #
coedge $-1 $243 $243 $161 $245 forward $158 $-1 #
coedge $-1 $244 $244 $385 $386 forward $160 $-1 #
edge $-1 $387 0 $387 6.2831853071796004 $243 $388 forward 7 unknown #
face $-1 $389 $390 $53 $-1 $391 reversed single #
loop $-1 $-1 $392 $162 #
plane-surface $-1 0 -197.47672963652457 0 0 1 0 0 0 1 forward_v I I I I #
coedge $-1 $393 $394 $395 $396 forward $163 $-1 #
coedge $-1 $397 $165 $398 $399 forward $104 $-1 #
coedge $-1 $165 $397 $400 $401 forward $104 $-1 #
coedge $-1 $402 $403 $165 $253 reversed $404 $-1 #
edge $-1 $405 -197.47672963652457 $406 197.47672963652457 $252 $407 forward 7 unknown #
loop $-1 $408 $409 $166 #
cone-surface $-1 0 0 0 0 0 1 0.5 0 0 1 I I -0.70710678118654746 0.70710678118654746 0.5 forward I I I I #
coedge $-1 $256 $256 $170 $258 forward $167 $-1 #
coedge $-1 $257 $257 $409 $410 forward $169 $-1 #
edge $-1 $411 0 $411 6.2831853071796004 $256 $412 forward 7 unknown #
loop $-1 $413 $414 $171 #
cone-surface $-1 0 0 0 0 0 1 0.5 0 0 1 I I -0.70710678118654746 0.70710678118654746 0.5 forward I I I I #
coedge $-1 $261 $261 $175 $263 forward $172 $-1 #
coedge $-1 $262 $262 $414 $415 forward $174 $-1 #
edge $-1 $416 0 $416 6.2831853071796004 $261 $417 forward 7 unknown #
face $-1 $418 $419 $42 $-1 $420 reversed single #
loop $-1 $-1 $421 $176 #
plane-surface $-1 -49.369182409131142 0 0 1 0 0 0 0 -1 forward_v I I I I #
coedge $-1 $422 $275 $423 $424 forward $177 $-1 #
coedge $-1 $425 $179 $422 $426 forward $113 $-1 #
coedge $-1 $179 $425 $427 $428 forward $113 $-1 #
coedge $-1 $278 $277 $179 $271 reversed $279 $-1 #
edge $-1 $429 -30.274803231684295 $430 30.274803231684295 $270 $431 forward 7 unknown #
coedge $-1 $181 $180 $432 $433 forward $71 $-1 #
coedge $-1 $434 $435 $180 $274 reversed $419 $-1 #
edge $-1 $281 -49.369182409131142 $436 49.369182409131142 $273 $437 forward 7 unknown #
coedge $-1 $267 $438 $181 $276 reversed $177 $-1 #
edge $-1 $439 -49.369182409131142 $280 49.369182409131142 $275 $440 forward 7 unknown #
coedge $-1 $270 $182 $438 $441 forward $279 $-1 #
coedge $-1 $182 $270 $434 $442 reversed $279 $-1 #
loop $-1 $-1 $277 $418 #
vertex $-1 $183 $443 #
vertex $-1 $183 $444 #
straight-curve $-1 49.369182409131142 0 10.659794528791506 0 1 0 I I #
face $-1 $445 $446 $43 $-1 $447 reversed single #
loop $-1 $-1 $448 $184 #
plane-surface $-1 -6.7117862199170011 0 0 1 0 0 0 0 -1 forward_v I I I I #
coedge $-1 $449 $294 $450 $451 forward $185 $-1 #
coedge $-1 $452 $187 $449 $453 forward $117 $-1 #
coedge $-1 $187 $452 $454 $455 forward $117 $-1 #
coedge $-1 $297 $296 $187 $290 reversed $298 $-1 #
edge $-1 $456 -30.274803231684295 $457 30.274803231684295 $289 $458 forward 7 unknown #
coedge $-1 $189 $188 $459 $460 forward $74 $-1 #
coedge $-1 $461 $462 $188 $293 reversed $446 $-1 #
edge $-1 $300 -6.7117862199170011 $463 6.7117862199170011 $292 $464 forward 7 unknown #
coedge $-1 $286 $465 $189 $295 reversed $185 $-1 #
edge $-1 $466 -6.7117862199170011 $299 6.7117862199170011 $294 $467 forward 7 unknown #
coedge $-1 $289 $190 $465 $468 forward $298 $-1 #
coedge $-1 $190 $289 $461 $469 reversed $298 $-1 #
loop $-1 $-1 $296 $445 #
vertex $-1 $191 $470 #
vertex $-1 $191 $471 #
straight-curve $-1 6.7117862199170011 0 1.9932094820536728 0 1 0 I I #
face $-1 $472 $473 $44 $-1 $474 reversed single #
loop $-1 $-1 $475 $192 #
plane-surface $-1 -6.711786219917002 0 0 1 0 0 0 0 -1 forward_v I I I I #
coedge $-1 $476 $313 $477 $478 forward $193 $-1 #
coedge $-1 $479 $195 $476 $480 forward $121 $-1 #
coedge $-1 $195 $479 $481 $482 forward $121 $-1 #
coedge $-1 $316 $315 $195 $309 reversed $317 $-1 #
edge $-1 $483 -30.274803231684295 $484 30.274803231684295 $308 $485 forward 7 unknown #
coedge $-1 $197 $196 $486 $487 forward $77 $-1 #
coedge $-1 $488 $489 $196 $312 reversed $473 $-1 #
edge $-1 $319 -6.711786219917002 $490 6.711786219917002 $311 $491 forward 7 unknown #
coedge $-1 $305 $492 $197 $314 reversed $193 $-1 #
edge $-1 $493 -6.711786219917002 $318 6.711786219917002 $313 $494 forward 7 unknown #
coedge $-1 $308 $198 $492 $495 forward $317 $-1 #
coedge $-1 $198 $308 $488 $496 reversed $317 $-1 #
loop $-1 $-1 $315 $472 #
vertex $-1 $199 $497 #
vertex $-1 $199 $498 #
straight-curve $-1 6.711786219917002 0 1.9932094820536728 0 1 0 I I #
face $-1 $499 $500 $45 $-1 $501 reversed single #
loop $-1 $-1 $502 $200 #
plane-surface $-1 -5.8969581099873887 0 0 1 0 0 0 0 -1 forward_v I I I I #
coedge $-1 $503 $332 $504 $505 forward $201 $-1 #
coedge $-1 $506 $203 $503 $507 forward $125 $-1 #
coedge $-1 $203 $506 $508 $509 forward $125 $-1 #
coedge $-1 $335 $334 $203 $328 reversed $336 $-1 #
edge $-1 $510 -197.47672963652457 $511 197.47672963652457 $327 $512 forward 7 unknown #
coedge $-1 $205 $204 $513 $514 forward $80 $-1 #
coedge $-1 $515 $516 $204 $331 reversed $500 $-1 #
edge $-1 $338 -5.8969581099873887 $517 5.8969581099873887 $330 $518 forward 7 unknown #
coedge $-1 $324 $519 $205 $333 reversed $201 $-1 #
edge $-1 $520 -5.8969581099873887 $337 5.8969581099873887 $332 $521 forward 7 unknown #
coedge $-1 $327 $206 $519 $522 forward $336 $-1 #
coedge $-1 $206 $327 $515 $523 reversed $336 $-1 #
loop $-1 $-1 $334 $499 #
vertex $-1 $207 $524 #
vertex $-1 $207 $525 #
straight-curve $-1 5.8969581099873887 0 98.738364818262284 0 1 0 I I #
loop $-1 $-1 $526 $128 #
coedge $-1 $341 $341 $211 $342 reversed $208 $-1 #
edge $-1 $527 0 $527 6.2831853071796004 $341 $528 forward 7 unknown #
vertex $-1 $212 $529 #
ellipse-curve $-1 0 0 -2.9625080111087376 0 0 -1 1 0 0 1 I I #
loop $-1 $-1 $530 $133 #
coedge $-1 $346 $346 $216 $347 reversed $213 $-1 #
edge $-1 $531 0 $531 6.2831853071796004 $346 $532 forward 7 unknown #
vertex $-1 $217 $533 #
ellipse-curve $-1 0 0 -2.9625080111087376 0 0 -1 1 0 0 1 I I #
loop $-1 $-1 $534 $138 #
coedge $-1 $351 $351 $221 $352 reversed $218 $-1 #
edge $-1 $535 0 $535 6.2831853071796004 $351 $536 forward 7 unknown #
vertex $-1 $222 $537 #
ellipse-curve $-1 0 0 -2.9625080111087376 0 0 -1 1 0 0 1 I I #
face $-1 $538 $539 $49 $-1 $540 reversed single #
loop $-1 $-1 $541 $223 #
plane-surface $-1 -5.8969581099873887 0 0 1 0 0 0 0 -1 forward_v I I I I #
coedge $-1 $542 $366 $543 $544 forward $224 $-1 #
coedge $-1 $545 $226 $542 $546 forward $144 $-1 #
coedge $-1 $226 $545 $547 $548 forward $144 $-1 #
coedge $-1 $369 $368 $226 $362 reversed $370 $-1 #
edge $-1 $549 -197.47672963652457 $550 197.47672963652457 $361 $551 forward 7 unknown #
coedge $-1 $228 $227 $552 $553 forward $92 $-1 #
coedge $-1 $554 $555 $227 $365 reversed $539 $-1 #
edge $-1 $372 -5.8969581099873887 $556 5.8969581099873887 $364 $557 forward 7 unknown #
coedge $-1 $358 $558 $228 $367 reversed $224 $-1 #
edge $-1 $559 -5.8969581099873887 $371 5.8969581099873887 $366 $560 forward 7 unknown #
coedge $-1 $361 $229 $558 $561 forward $370 $-1 #
coedge $-1 $229 $361 $554 $562 reversed $370 $-1 #
loop $-1 $-1 $368 $538 #
vertex $-1 $230 $563 #
vertex $-1 $230 $564 #
straight-curve $-1 5.8969581099873887 0 98.738364818262284 0 1 0 I I #
loop $-1 $-1 $565 $147 #
coedge $-1 $375 $375 $234 $376 reversed $231 $-1 #
edge $-1 $566 0 $566 6.2831853071796004 $375 $567 forward 7 unknown #
vertex $-1 $235 $568 #
ellipse-curve $-1 0 0 -2.9625080111087376 0 0 -1 1 0 0 1 I I #
loop $-1 $-1 $569 $152 #
coedge $-1 $380 $380 $239 $381 reversed $236 $-1 #
edge $-1 $570 0 $570 6.2831853071796004 $380 $571 forward 7 unknown #
vertex $-1 $240 $572 #
ellipse-curve $-1 0 0 -2.9625080111087376 0 0 -1 1 0 0 1 I I #
loop $-1 $-1 $573 $157 #
coedge $-1 $385 $385 $244 $386 reversed $241 $-1 #
edge $-1 $574 0 $574 6.2831853071796004 $385 $575 forward 7 unknown #
vertex $-1 $245 $576 #
ellipse-curve $-1 0 0 -2.9625080111087376 0 0 -1 1 0 0 1 I I #
face $-1 $577 $578 $53 $-1 $579 reversed single #
loop $-1 $-1 $580 $246 #
plane-surface $-1 -6.235055494323376 0 0 1 0 0 0 0 -1 forward_v I I I I #
coedge $-1 $581 $400 $582 $583 forward $247 $-1 #
coedge $-1 $584 $249 $581 $585 forward $163 $-1 #
coedge $-1 $249 $584 $586 $587 forward $163 $-1 #
coedge $-1 $403 $402 $249 $396 reversed $404 $-1 #
edge $-1 $588 -197.47672963652457 $589 197.47672963652457 $395 $590 forward 7 unknown #
coedge $-1 $251 $250 $591 $592 forward $104 $-1 #
coedge $-1 $593 $594 $250 $399 reversed $578 $-1 #
edge $-1 $406 -6.235055494323376 $595 6.235055494323376 $398 $596 forward 7 unknown #
coedge $-1 $392 $597 $251 $401 reversed $247 $-1 #
edge $-1 $598 -6.235055494323376 $405 6.235055494323376 $400 $599 forward 7 unknown #
coedge $-1 $395 $252 $597 $600 forward $404 $-1 #
coedge $-1 $252 $395 $593 $601 reversed $404 $-1 #
loop $-1 $-1 $402 $577 #
vertex $-1 $253 $602 #
vertex $-1 $253 $603 #
straight-curve $-1 6.235055494323376 0 98.738364818262284 0 1 0 I I #
loop $-1 $-1 $604 $166 #
coedge $-1 $409 $409 $257 $410 reversed $254 $-1 #
edge $-1 $605 0 $605 6.2831853071796004 $409 $606 forward 7 unknown #
vertex $-1 $258 $607 #
ellipse-curve $-1 0 0 -3.1806848353526407 0 0 -1 1 0 0 1 I I #
loop $-1 $-1 $608 $171 #
coedge $-1 $414 $414 $262 $415 reversed $259 $-1 #
edge $-1 $609 0 $609 6.2831853071796004 $414 $610 forward 7 unknown #
vertex $-1 $263 $611 #
ellipse-curve $-1 0 0 -3.1806848353526407 0 0 -1 1 0 0 1 I I #
face $-1 $-1 $279 $42 $-1 $612 reversed single #
loop $-1 $-1 $434 $264 #
plane-surface $-1 0 30.274803231684295 0 0 -1 0 0 0 -1 forward_v I I I I #
coedge $-1 $613 $432 $435 $614 forward $265 $-1 #
coedge $-1 $438 $267 $268 $426 reversed $177 $-1 #
coedge $-1 $432 $613 $267 $424 reversed $265 $-1 #
edge $-1 $439 -10.659794528791506 $615 10.659794528791506 $423 $616 forward 7 unknown #
coedge $-1 $269 $268 $613 $617 forward $113 $-1 #
edge $-1 $430 -49.369182409131142 $615 49.369182409131142 $422 $618 forward 7 unknown #
coedge $-1 $435 $434 $269 $428 reversed $419 $-1 #
edge $-1 $619 -49.369182409131142 $429 49.369182409131142 $427 $620 forward 7 unknown #
vertex $-1 $271 $621 #
vertex $-1 $441 $622 #
straight-curve $-1 49.369182409131142 0 -10.659794528791506 0 -1 0 I I #
coedge $-1 $421 $423 $272 $433 reversed $265 $-1 #
edge $-1 $436 -30.274803231684295 $439 30.274803231684295 $432 $623 forward 7 unknown #
coedge $-1 $427 $273 $278 $442 forward $419 $-1 #
coedge $-1 $273 $427 $421 $614 reversed $419 $-1 #
vertex $-1 $274 $624 #
straight-curve $-1 0 30.274803231684295 10.659794528791506 -1 0 0 I I #
coedge $-1 $275 $422 $277 $441 reversed $177 $-1 #
vertex $-1 $433 $625 #
straight-curve $-1 0 -30.274803231684295 10.659794528791506 1 0 0 I I #
edge $-1 $280 -10.659794528791506 $430 10.659794528791506 $277 $626 forward 7 unknown #
edge $-1 $281 -10.659794528791506 $429 10.659794528791506 $278 $627 forward 7 unknown #
point $-1 49.369182409131142 -30.274803231684295 10.659794528791506 #
point $-1 49.369182409131142 30.274803231684295 10.659794528791506 #
face $-1 $-1 $298 $43 $-1 $628 reversed single #
loop $-1 $-1 $461 $283 #
plane-surface $-1 0 30.274803231684295 0 0 -1 0 0 0 -1 forward_v I I I I #
coedge $-1 $629 $459 $462 $630 forward $284 $-1 #
coedge $-1 $465 $286 $287 $453 reversed $185 $-1 #
coedge $-1 $459 $629 $286 $451 reversed $284 $-1 #
edge $-1 $466 -1.9932094820536728 $631 1.9932094820536728 $450 $632 forward 7 unknown #
coedge $-1 $288 $287 $629 $633 forward $117 $-1 #
edge $-1 $457 -6.7117862199170011 $631 6.7117862199170011 $449 $634 forward 7 unknown #
coedge $-1 $462 $461 $288 $455 reversed $446 $-1 #
edge $-1 $635 -6.7117862199170011 $456 6.7117862199170011 $454 $636 forward 7 unknown #
vertex $-1 $290 $637 #
vertex $-1 $468 $638 #
straight-curve $-1 6.7117862199170011 0 -1.9932094820536728 0 -1 0 I I #
coedge $-1 $448 $450 $291 $460 reversed $284 $-1 #
edge $-1 $463 -30.274803231684295 $466 30.274803231684295 $459 $639 forward 7 unknown #
coedge $-1 $454 $292 $297 $469 forward $446 $-1 #
coedge $-1 $292 $454 $448 $630 reversed $446 $-1 #
vertex $-1 $293 $640 #
straight-curve $-1 0 30.274803231684295 1.9932094820536728 -1 0 0 I I #
coedge $-1 $294 $449 $296 $468 reversed $185 $-1 #
vertex $-1 $460 $641 #
straight-curve $-1 0 -30.274803231684295 1.9932094820536728 1 0 0 I I #
edge $-1 $299 -1.9932094820536728 $457 1.9932094820536728 $296 $642 forward 7 unknown #
edge $-1 $300 -1.9932094820536728 $456 1.9932094820536728 $297 $643 forward 7 unknown #
point $-1 6.7117862199170011 -30.274803231684295 1.9932094820536728 #
point $-1 6.7117862199170011 30.274803231684295 1.9932094820536728 #
face $-1 $-1 $317 $44 $-1 $644 reversed single #
loop $-1 $-1 $488 $302 #
plane-surface $-1 0 30.274803231684295 0 0 -1 0 0 0 -1 forward_v I I I I #
coedge $-1 $645 $486 $489 $646 forward $303 $-1 #
coedge $-1 $492 $305 $306 $480 reversed $193 $-1 #
coedge $-1 $486 $645 $305 $478 reversed $303 $-1 #
edge $-1 $493 -1.9932094820536728 $647 1.9932094820536728 $477 $648 forward 7 unknown #
coedge $-1 $307 $306 $645 $649 forward $121 $-1 #
edge $-1 $484 -6.711786219917002 $647 6.711786219917002 $476 $650 forward 7 unknown #
coedge $-1 $489 $488 $307 $482 reversed $473 $-1 #
edge $-1 $651 -6.711786219917002 $483 6.711786219917002 $481 $652 forward 7 unknown #
vertex $-1 $309 $653 #
vertex $-1 $495 $654 #
straight-curve $-1 6.711786219917002 0 -1.9932094820536728 0 -1 0 I I #
coedge $-1 $475 $477 $310 $487 reversed $303 $-1 #
edge $-1 $490 -30.274803231684295 $493 30.274803231684295 $486 $655 forward 7 unknown #
coedge $-1 $481 $311 $316 $496 forward $473 $-1 #
coedge $-1 $311 $481 $475 $646 reversed $473 $-1 #
vertex $-1 $312 $656 #
straight-curve $-1 0 30.274803231684295 1.9932094820536728 -1 0 0 I I #
coedge $-1 $313 $476 $315 $495 reversed $193 $-1 #
vertex $-1 $487 $657 #
straight-curve $-1 0 -30.274803231684295 1.9932094820536728 1 0 0 I I #
edge $-1 $318 -1.9932094820536728 $484 1.9932094820536728 $315 $658 forward 7 unknown #
edge $-1 $319 -1.9932094820536728 $483 1.9932094820536728 $316 $659 forward 7 unknown #
point $-1 6.711786219917002 -30.274803231684295 1.9932094820536728 #
point $-1 6.711786219917002 30.274803231684295 1.9932094820536728 #
face $-1 $-1 $336 $45 $-1 $660 reversed single #
loop $-1 $-1 $515 $321 #
plane-surface $-1 0 197.47672963652457 0 0 -1 0 0 0 -1 forward_v I I I I #
coedge $-1 $661 $513 $516 $662 forward $322 $-1 #
coedge $-1 $519 $324 $325 $507 reversed $201 $-1 #
coedge $-1 $513 $661 $324 $505 reversed $322 $-1 #
edge $-1 $520 -98.738364818262284 $663 98.738364818262284 $504 $664 forward 7 unknown #
coedge $-1 $326 $325 $661 $665 forward $125 $-1 #
edge $-1 $511 -5.8969581099873887 $663 5.8969581099873887 $503 $666 forward 7 unknown #
coedge $-1 $516 $515 $326 $509 reversed $500 $-1 #
edge $-1 $667 -5.8969581099873887 $510 5.8969581099873887 $508 $668 forward 7 unknown #
vertex $-1 $328 $669 #
vertex $-1 $522 $670 #
straight-curve $-1 5.8969581099873887 0 -98.738364818262284 0 -1 0 I I #
coedge $-1 $502 $504 $329 $514 reversed $322 $-1 #
edge $-1 $517 -197.47672963652457 $520 197.47672963652457 $513 $671 forward 7 unknown #
coedge $-1 $508 $330 $335 $523 forward $500 $-1 #
coedge $-1 $330 $508 $502 $662 reversed $500 $-1 #
vertex $-1 $331 $672 #
straight-curve $-1 0 197.47672963652457 98.738364818262284 -1 0 0 I I #
coedge $-1 $332 $503 $334 $522 reversed $201 $-1 #
vertex $-1 $514 $673 #
straight-curve $-1 0 -197.47672963652457 98.738364818262284 1 0 0 I I #
edge $-1 $337 -98.738364818262284 $511 98.738364818262284 $334 $674 forward 7 unknown #
edge $-1 $338 -98.738364818262284 $510 98.738364818262284 $335 $675 forward 7 unknown #
point $-1 5.8969581099873887 -197.47672963652457 98.738364818262284 #
point $-1 5.8969581099873887 197.47672963652457 98.738364818262284 #
coedge $-1 $526 $526 $-1 $676 reversed $340 $-1 #
vertex $-1 $342 $677 #
ellipse-curve $-1 0 0 -0.5 0 0 -1 1 0 0 1 I I #
point $-1 1 0 -2.9625080111087376 #
coedge $-1 $530 $530 $-1 $678 reversed $345 $-1 #
vertex $-1 $347 $679 #
ellipse-curve $-1 0 0 -0.5 0 0 -1 1 0 0 1 I I #
point $-1 1 0 -2.9625080111087376 #
coedge $-1 $534 $534 $-1 $680 reversed $350 $-1 #
vertex $-1 $352 $681 #
ellipse-curve $-1 0 0 -0.5 0 0 -1 1 0 0 1 I I #
point $-1 1 0 -2.9625080111087376 #
face $-1 $-1 $370 $49 $-1 $682 reversed single #
loop $-1 $-1 $554 $355 #
plane-surface $-1 0 197.47672963652457 0 0 -1 0 0 0 -1 forward_v I I I I #
coedge $-1 $683 $552 $555 $684 forward $356 $-1 #
coedge $-1 $558 $358 $359 $546 reversed $224 $-1 #
coedge $-1 $552 $683 $358 $544 reversed $356 $-1 #
edge $-1 $559 -98.738364818262284 $685 98.738364818262284 $543 $686 forward 7 unknown #
coedge $-1 $360 $359 $683 $687 forward $144 $-1 #
edge $-1 $550 -5.8969581099873887 $685 5.8969581099873887 $542 $688 forward 7 unknown #
coedge $-1 $555 $554 $360 $548 reversed $539 $-1 #
edge $-1 $689 -5.8969581099873887 $549 5.8969581099873887 $547 $690 forward 7 unknown #
vertex $-1 $362 $691 #
vertex $-1 $561 $692 #
straight-curve $-1 5.8969581099873887 0 -98.738364818262284 0 -1 0 I I #
coedge $-1 $541 $543 $363 $553 reversed $356 $-1 #
edge $-1 $556 -197.47672963652457 $559 197.47672963652457 $552 $693 forward 7 unknown #
coedge $-1 $547 $364 $369 $562 forward $539 $-1 #
coedge $-1 $364 $547 $541 $684 reversed $539 $-1 #
vertex $-1 $365 $694 #
straight-curve $-1 0 197.47672963652457 98.738364818262284 -1 0 0 I I #
coedge $-1 $366 $542 $368 $561 reversed $224 $-1 #
vertex $-1 $553 $695 #
straight-curve $-1 0 -197.47672963652457 98.738364818262284 1 0 0 I I #
edge $-1 $371 -98.738364818262284 $550 98.738364818262284 $368 $696 forward 7 unknown #
edge $-1 $372 -98.738364818262284 $549 98.738364818262284 $369 $697 forward 7 unknown #
point $-1 5.8969581099873887 -197.47672963652457 98.738364818262284 #
point $-1 5.8969581099873887 197.47672963652457 98.738364818262284 #
coedge $-1 $565 $565 $-1 $698 reversed $374 $-1 #
vertex $-1 $376 $699 #
ellipse-curve $-1 0 0 -0.5 0 0 -1 1 0 0 1 I I #
point $-1 1 0 -2.9625080111087376 #
coedge $-1 $569 $569 $-1 $700 reversed $379 $-1 #
vertex $-1 $381 $701 #
ellipse-curve $-1 0 0 -0.5 0 0 -1 1 0 0 1 I I #
point $-1 1 0 -2.9625080111087376 #
coedge $-1 $573 $573 $-1 $702 reversed $384 $-1 #
vertex $-1 $386 $703 #
ellipse-curve $-1 0 0 -0.5 0 0 -1 1 0 0 1 I I #
point $-1 1 0 -2.9625080111087376 #
face $-1 $-1 $404 $53 $-1 $704 reversed single #
loop $-1 $-1 $593 $389 #
plane-surface $-1 0 197.47672963652457 0 0 -1 0 0 0 -1 forward_v I I I I #
coedge $-1 $705 $591 $594 $706 forward $390 $-1 #
coedge $-1 $597 $392 $393 $585 reversed $247 $-1 #
coedge $-1 $591 $705 $392 $583 reversed $390 $-1 #
edge $-1 $598 -98.738364818262284 $707 98.738364818262284 $582 $708 forward 7 unknown #
coedge $-1 $394 $393 $705 $709 forward $163 $-1 #
edge $-1 $589 -6.235055494323376 $707 6.235055494323376 $581 $710 forward 7 unknown #
coedge $-1 $594 $593 $394 $587 reversed $578 $-1 #
edge $-1 $711 -6.235055494323376 $588 6.235055494323376 $586 $712 forward 7 unknown #
vertex $-1 $396 $713 #
vertex $-1 $600 $714 #
straight-curve $-1 6.235055494323376 0 -98.738364818262284 0 -1 0 I I #
coedge $-1 $580 $582 $397 $592 reversed $390 $-1 #
edge $-1 $595 -197.47672963652457 $598 197.47672963652457 $591 $715 forward 7 unknown #
coedge $-1 $586 $398 $403 $601 forward $578 $-1 #
coedge $-1 $398 $586 $580 $706 reversed $578 $-1 #
vertex $-1 $399 $716 #
straight-curve $-1 0 197.47672963652457 98.738364818262284 -1 0 0 I I #
coedge $-1 $400 $581 $402 $600 reversed $247 $-1 #
vertex $-1 $592 $717 #
straight-curve $-1 0 -197.47672963652457 98.738364818262284 1 0 0 I I #
edge $-1 $405 -98.738364818262284 $589 98.738364818262284 $402 $718 forward 7 unknown #
edge $-1 $406 -98.738364818262284 $588 98.738364818262284 $403 $719 forward 7 unknown #
point $-1 6.235055494323376 -197.47672963652457 98.738364818262284 #
point $-1 6.235055494323376 197.47672963652457 98.738364818262284 #
coedge $-1 $604 $604 $-1 $720 reversed $408 $-1 #
vertex $-1 $410 $721 #
ellipse-curve $-1 0 0 -0.5 0 0 -1 1 0 0 1 I I #
point $-1 1 0 -3.1806848353526407 #
coedge $-1 $608 $608 $-1 $722 reversed $413 $-1 #
vertex $-1 $415 $723 #
ellipse-curve $-1 0 0 -0.5 0 0 -1 1 0 0 1 I I #
point $-1 1 0 -3.1806848353526407 #
plane-surface $-1 49.369182409131142 0 0 -1 0 0 0 0 1 forward_v I I I I #
coedge $-1 $423 $421 $425 $617 reversed $265 $-1 #
edge $-1 $436 -10.659794528791506 $619 10.659794528791506 $435 $724 forward 7 unknown #
vertex $-1 $617 $725 #
straight-curve $-1 -49.369182409131142 -30.274803231684295 0 0 0 -1 I I #
edge $-1 $615 -30.274803231684295 $619 30.274803231684295 $613 $726 forward 7 unknown #
straight-curve $-1 0 -30.274803231684295 -10.659794528791506 -1 0 0 I I #
vertex $-1 $428 $727 #
straight-curve $-1 0 30.274803231684295 -10.659794528791506 1 0 0 I I #
point $-1 49.369182409131142 30.274803231684295 -10.659794528791506 #
point $-1 49.369182409131142 -30.274803231684295 -10.659794528791506 #
straight-curve $-1 -49.369182409131142 0 10.659794528791506 0 -1 0 I I #
point $-1 -49.369182409131142 30.274803231684295 10.659794528791506 #
point $-1 -49.369182409131142 -30.274803231684295 10.659794528791506 #
straight-curve $-1 49.369182409131142 -30.274803231684295 0 0 0 -1 I I #
straight-curve $-1 49.369182409131142 30.274803231684295 0 0 0 -1 I I #
plane-surface $-1 6.7117862199170011 0 0 -1 0 0 0 0 1 forward_v I I I I #
coedge $-1 $450 $448 $452 $633 reversed $284 $-1 #
edge $-1 $463 -1.9932094820536728 $635 1.9932094820536728 $462 $728 forward 7 unknown #
vertex $-1 $633 $729 #
straight-curve $-1 -6.7117862199170011 -30.274803231684295 0 0 0 -1 I I #
edge $-1 $631 -30.274803231684295 $635 30.274803231684295 $629 $730 forward 7 unknown #
straight-curve $-1 0 -30.274803231684295 -1.9932094820536728 -1 0 0 I I #
vertex $-1 $455 $731 #
straight-curve $-1 0 30.274803231684295 -1.9932094820536728 1 0 0 I I #
point $-1 6.7117862199170011 30.274803231684295 -1.9932094820536728 #
point $-1 6.7117862199170011 -30.274803231684295 -1.9932094820536728 #
straight-curve $-1 -6.7117862199170011 0 1.9932094820536728 0 -1 0 I I #
point $-1 -6.7117862199170011 30.274803231684295 1.9932094820536728 #
point $-1 -6.7117862199170011 -30.274803231684295 1.9932094820536728 #
straight-curve $-1 6.7117862199170011 -30.274803231684295 0 0 0 -1 I I #
straight-curve $-1 6.7117862199170011 30.274803231684295 0 0 0 -1 I I #
plane-surface $-1 6.711786219917002 0 0 -1 0 0 0 0 1 forward_v I I I I #
coedge $-1 $477 $475 $479 $649 reversed $303 $-1 #
edge $-1 $490 -1.9932094820536728 $651 1.9932094820536728 $489 $732 forward 7 unknown #
vertex $-1 $649 $733 #
straight-curve $-1 -6.711786219917002 -30.274803231684295 0 0 0 -1 I I #
edge $-1 $647 -30.274803231684295 $651 30.274803231684295 $645 $734 forward 7 unknown #
straight-curve $-1 0 -30.274803231684295 -1.9932094820536728 -1 0 0 I I #
vertex $-1 $482 $735 #
straight-curve $-1 0 30.274803231684295 -1.9932094820536728 1 0 0 I I #
point $-1 6.711786219917002 30.274803231684295 -1.9932094820536728 #
point $-1 6.711786219917002 -30.274803231684295 -1.9932094820536728 #
straight-curve $-1 -6.711786219917002 0 1.9932094820536728 0 -1 0 I I #
point $-1 -6.711786219917002 30.274803231684295 1.9932094820536728 #
point $-1 -6.711786219917002 -30.274803231684295 1.9932094820536728 #
straight-curve $-1 6.711786219917002 -30.274803231684295 0 0 0 -1 I I #
straight-curve $-1 6.711786219917002 30.274803231684295 0 0 0 -1 I I #
plane-surface $-1 5.8969581099873887 0 0 -1 0 0 0 0 1 forward_v I I I I #
coedge $-1 $504 $502 $506 $665 reversed $322 $-1 #
edge $-1 $517 -98.738364818262284 $667 98.738364818262284 $516 $736 forward 7 unknown #
vertex $-1 $665 $737 #
straight-curve $-1 -5.8969581099873887 -197.47672963652457 0 0 0 -1 I I #
edge $-1 $663 -197.47672963652457 $667 197.47672963652457 $661 $738 forward 7 unknown #
straight-curve $-1 0 -197.47672963652457 -98.738364818262284 -1 0 0 I I #
vertex $-1 $509 $739 #
straight-curve $-1 0 197.47672963652457 -98.738364818262284 1 0 0 I I #
point $-1 5.8969581099873887 197.47672963652457 -98.738364818262284 #
point $-1 5.8969581099873887 -197.47672963652457 -98.738364818262284 #
straight-curve $-1 -5.8969581099873887 0 98.738364818262284 0 -1 0 I I #
point $-1 -5.8969581099873887 197.47672963652457 98.738364818262284 #
point $-1 -5.8969581099873887 -197.47672963652457 98.738364818262284 #
straight-curve $-1 5.8969581099873887 -197.47672963652457 0 0 0 -1 I I #
straight-curve $-1 5.8969581099873887 197.47672963652457 0 0 0 -1 I I #
edge $-1 $740 1 $740 0 $526 $-1 forward 7 unknown #
point $-1 1 0 -0.5 #
edge $-1 $741 1 $741 0 $530 $-1 forward 7 unknown #
point $-1 1 0 -0.5 #
edge $-1 $742 1 $742 0 $534 $-1 forward 7 unknown #
point $-1 1 0 -0.5 #
plane-surface $-1 5.8969581099873887 0 0 -1 0 0 0 0 1 forward_v I I I I #
coedge $-1 $543 $541 $545 $687 reversed $356 $-1 #
edge $-1 $556 -98.738364818262284 $689 98.738364818262284 $555 $743 forward 7 unknown #
vertex $-1 $687 $744 #
straight-curve $-1 -5.8969581099873887 -197.47672963652457 0 0 0 -1 I I #
edge $-1 $685 -197.47672963652457 $689 197.47672963652457 $683 $745 forward 7 unknown #
straight-curve $-1 0 -197.47672963652457 -98.738364818262284 -1 0 0 I I #
vertex $-1 $548 $746 #
straight-curve $-1 0 197.47672963652457 -98.738364818262284 1 0 0 I I #
point $-1 5.8969581099873887 197.47672963652457 -98.738364818262284 #
point $-1 5.8969581099873887 -197.47672963652457 -98.738364818262284 #
straight-curve $-1 -5.8969581099873887 0 98.738364818262284 0 -1 0 I I #
point $-1 -5.8969581099873887 197.47672963652457 98.738364818262284 #
point $-1 -5.8969581099873887 -197.47672963652457 98.738364818262284 #
straight-curve $-1 5.8969581099873887 -197.47672963652457 0 0 0 -1 I I #
straight-curve $-1 5.8969581099873887 197.47672963652457 0 0 0 -1 I I #
edge $-1 $747 1 $747 0 $565 $-1 forward 7 unknown #
point $-1 1 0 -0.5 #
edge $-1 $748 1 $748 0 $569 $-1 forward 7 unknown #
point $-1 1 0 -0.5 #
edge $-1 $749 1 $749 0 $573 $-1 forward 7 unknown #
point $-1 1 0 -0.5 #
plane-surface $-1 6.235055494323376 0 0 -1 0 0 0 0 1 forward_v I I I I #
coedge $-1 $582 $580 $584 $709 reversed $390 $-1 #
edge $-1 $595 -98.738364818262284 $711 98.738364818262284 $594 $750 forward 7 unknown #
vertex $-1 $709 $751 #
straight-curve $-1 -6.235055494323376 -197.47672963652457 0 0 0 -1 I I #
edge $-1 $707 -197.47672963652457 $711 197.47672963652457 $705 $752 forward 7 unknown #
straight-curve $-1 0 -197.47672963652457 -98.738364818262284 -1 0 0 I I #
vertex $-1 $587 $753 #
straight-curve $-1 0 197.47672963652457 -98.738364818262284 1 0 0 I I #
point $-1 6.235055494323376 197.47672963652457 -98.738364818262284 #
point $-1 6.235055494323376 -197.47672963652457 -98.738364818262284 #
straight-curve $-1 -6.235055494323376 0 98.738364818262284 0 -1 0 I I #
point $-1 -6.235055494323376 197.47672963652457 98.738364818262284 #
point $-1 -6.235055494323376 -197.47672963652457 98.738364818262284 #
straight-curve $-1 6.235055494323376 -197.47672963652457 0 0 0 -1 I I #
straight-curve $-1 6.235055494323376 197.47672963652457 0 0 0 -1 I I #
edge $-1 $754 1 $754 0 $604 $-1 forward 7 unknown #
point $-1 1 0 -0.5 #
edge $-1 $755 1 $755 0 $608 $-1 forward 7 unknown #
point $-1 1 0 -0.5 #
straight-curve $-1 -49.369182409131142 30.274803231684295 0 0 0 -1 I I #
point $-1 -49.369182409131142 -30.274803231684295 -10.659794528791506 #
straight-curve $-1 -49.369182409131142 0 -10.659794528791506 0 1 0 I I #
point $-1 -49.369182409131142 30.274803231684295 -10.659794528791506 #
straight-curve $-1 -6.7117862199170011 30.274803231684295 0 0 0 -1 I I #
point $-1 -6.7117862199170011 -30.274803231684295 -1.9932094820536728 #
straight-curve $-1 -6.7117862199170011 0 -1.9932094820536728 0 1 0 I I #
point $-1 -6.7117862199170011 30.274803231684295 -1.9932094820536728 #
straight-curve $-1 -6.711786219917002 30.274803231684295 0 0 0 -1 I I #
point $-1 -6.711786219917002 -30.274803231684295 -1.9932094820536728 #
straight-curve $-1 -6.711786219917002 0 -1.9932094820536728 0 1 0 I I #
point $-1 -6.711786219917002 30.274803231684295 -1.9932094820536728 #
straight-curve $-1 -5.8969581099873887 197.47672963652457 0 0 0 -1 I I #
point $-1 -5.8969581099873887 -197.47672963652457 -98.738364818262284 #
straight-curve $-1 -5.8969581099873887 0 -98.738364818262284 0 1 0 I I #
point $-1 -5.8969581099873887 197.47672963652457 -98.738364818262284 #
vertex $-1 $676 $756 #
vertex $-1 $678 $757 #
vertex $-1 $680 $758 #
straight-curve $-1 -5.8969581099873887 197.47672963652457 0 0 0 -1 I I #
point $-1 -5.8969581099873887 -197.47672963652457 -98.738364818262284 #
straight-curve $-1 -5.8969581099873887 0 -98.738364818262284 0 1 0 I I #
point $-1 -5.8969581099873887 197.47672963652457 -98.738364818262284 #
vertex $-1 $698 $759 #
vertex $-1 $700 $760 #
vertex $-1 $702 $761 #
straight-curve $-1 -6.235055494323376 197.47672963652457 0 0 0 -1 I I #
point $-1 -6.235055494323376 -197.47672963652457 -98.738364818262284 #
straight-curve $-1 -6.235055494323376 0 -98.738364818262284 0 1 0 I I #
point $-1 -6.235055494323376 197.47672963652457 -98.738364818262284 #
vertex $-1 $720 $762 #
vertex $-1 $722 $763 #
point $-1 0 0 0.5 #
point $-1 0 0 0.5 #
point $-1 0 0 0.5 #
point $-1 0 0 0.5 #
point $-1 0 0 0.5 #
point $-1 0 0 0.5 #
point $-1 0 0 0.5 #
point $-1 0 0 0.5 #
End-of-ACIS-data 