500 0 6 0           
7 Unknown 11 ACIS 5.0 NT 24 Fri Mar 26 17:37:34 1999 
-1 9.9999999999999995e-007 1e-010 
body $-1 $6 $-1 $7 #
body $-1 $8 $-1 $9 #
body $-1 $10 $-1 $11 #
body $-1 $12 $-1 $13 #
body $-1 $14 $-1 $15 #
body $-1 $16 $-1 $17 #
lump $-1 $-1 $18 $0 #
transform $-1 1 0 0 0 1 0 0 0 1 57.930234687337872 28.295066409909328 6.9123309304496043 1 rotate no_reflect no_shear #
lump $-1 $-1 $19 $1 #
transform $-1 1 0 0 0 1 0 0 0 1 57.930234687337872 28.295066409909328 6.9123309304496043 1 rotate no_reflect no_shear #
lump $-1 $-1 $20 $2 #
transform $-1 1 0 0 0 1 0 0 0 1 57.930234687337872 28.295066409909328 6.9123309304496043 1 rotate no_reflect no_shear #
lump $-1 $-1 $21 $3 #
transform $-1 1 0 0 0 1 0 0 0 1 57.930234687337872 28.295066409909328 6.9123309304496043 1 rotate no_reflect no_shear #
lump $-1 $-1 $22 $4 #
transform $-1 1 0 0 0 1 0 0 0 1 57.930234687337872 28.295066409909328 6.9123309304496043 1 rotate no_reflect no_shear #
lump $-1 $-1 $23 $5 #
transform $-1 1 0 0 0 1 0 0 0 1 57.930234687337872 28.295066409909328 6.9123309304496043 1 rotate no_reflect no_shear #
shell $-1 $-1 $-1 $24 $-1 $6 #
shell $-1 $-1 $-1 $25 $-1 $8 #
shell $-1 $-1 $-1 $26 $-1 $10 #
shell $-1 $-1 $-1 $27 $-1 $12 #
shell $-1 $-1 $-1 $28 $-1 $14 #
shell $-1 $-1 $-1 $29 $-1 $16 #
face $-1 $30 $31 $18 $-1 $32 forward single #
face $-1 $33 $34 $19 $-1 $35 forward single #
face $-1 $36 $37 $20 $-1 $38 reversed single #
face $-1 $39 $40 $21 $-1 $41 forward single #
face $-1 $42 $43 $22 $-1 $44 forward single #
face $-1 $45 $46 $23 $-1 $47 forward single #
face $-1 $48 $49 $18 $-1 $50 reversed single #
loop $-1 $-1 $51 $24 #
plane-surface $-1 0 0 6.9123309304496043 0 0 1 1 0 0 forward_v I I I I #
face $-1 $52 $53 $19 $-1 $54 reversed single #
loop $-1 $-1 $55 $25 #
plane-surface $-1 -54.352589230365012 0 -2.5650777760265076 0 0 1 1 0 0 forward_v I I I I #
face $-1 $56 $57 $20 $-1 $58 reversed single #
loop $-1 $-1 $59 $26 #
plane-surface $-1 77.898705145814517 16.042901307505939 163.7922287085301 0 -1 0 -0.78801076186113728 0 -0.61566146476048833 forward_v I I I I #
face $-1 $60 $61 $21 $-1 $62 forward single #
loop $-1 $63 $64 $27 #
cone-surface $-1 54.610034307485776 7.5179371223489717 3.1981829808173434 -0.78801076186113728 0 -0.61566146476048833 0.61566146476048833 0 -0.78801076186113728 1 I I 0 1 1 forward I I I I #
face $-1 $65 $66 $22 $-1 $67 forward single #
loop $-1 $68 $69 $28 #
cone-surface $-1 54.610034307485776 10.714798691782836 3.1981829808173434 -0.78801076186113728 0 -0.61566146476048833 0.61566146476048833 0 -0.78801076186113728 1 I I 0 1 1 forward I I I I #
face $-1 $70 $71 $23 $-1 $72 forward single #
loop $-1 $73 $74 $29 #
cone-surface $-1 54.610034307485776 13.911660261216699 3.1981829808173434 -0.78801076186113728 0 -0.61566146476048833 0.61566146476048833 0 -0.78801076186113728 1 I I 0 1 1 forward I I I I #
face $-1 $75 $76 $18 $-1 $77 reversed single #
loop $-1 $-1 $78 $30 #
plane-surface $-1 0 0 -6.9123309304496043 0 0 1 1 0 0 forward_v I I I I #
coedge $-1 $79 $80 $81 $82 forward $31 $-1 #
face $-1 $83 $84 $19 $-1 $85 reversed single #
loop $-1 $-1 $86 $33 #
plane-surface $-1 -54.352589230365012 0 -6.4123309304496043 0 0 1 1 0 0 forward_v I I I I #
coedge $-1 $87 $88 $89 $90 forward $34 $-1 #
face $-1 $91 $92 $20 $-1 $93 reversed single #
loop $-1 $-1 $94 $36 #
plane-surface $-1 -13.400591595712683 10.714798691782836 92.461402425479534 0.78801076186113728 0 0.61566146476048833 0.61566146476048833 0 -0.78801076186113728 forward_v I I I I #
coedge $-1 $95 $96 $97 $98 reversed $37 $-1 #
face $-1 $-1 $99 $21 $-1 $100 forward single #
loop $-1 $101 $102 $39 #
cone-surface $-1 53.142112651757699 7.5179371223489717 2.0513169220534824 -0.78801076186113728 0 -0.61566146476048833 0.30783073238024417 0 -0.39400538093056864 1 I I -0.70710678118654746 0.70710678118654746 0.5 forward I I I I #
loop $-1 $-1 $103 $27 #
coedge $-1 $64 $64 $104 $105 reversed $40 $-1 #
face $-1 $-1 $106 $22 $-1 $107 forward single #
loop $-1 $108 $109 $42 #
cone-surface $-1 53.142112651757699 10.714798691782836 2.0513169220534824 -0.78801076186113728 0 -0.61566146476048833 0.30783073238024417 0 -0.39400538093056864 1 I I -0.70710678118654746 0.70710678118654746 0.5 forward I I I I #
loop $-1 $-1 $110 $28 #
coedge $-1 $69 $69 $111 $112 reversed $43 $-1 #
face $-1 $-1 $113 $23 $-1 $114 forward single #
loop $-1 $115 $116 $45 #
cone-surface $-1 53.142112651757699 13.911660261216699 2.0513169220534824 -0.78801076186113728 0 -0.61566146476048833 0.30783073238024417 0 -0.39400538093056864 1 I I -0.70710678118654746 0.70710678118654746 0.5 forward I I I I #
loop $-1 $-1 $117 $29 #
coedge $-1 $74 $74 $118 $119 reversed $46 $-1 #
face $-1 $120 $121 $18 $-1 $122 reversed single #
loop $-1 $-1 $123 $48 #
plane-surface $-1 0 -28.295066409909328 0 0 1 0 0 0 1 forward_v I I I I #
coedge $-1 $124 $125 $126 $127 forward $49 $-1 #
coedge $-1 $128 $51 $129 $130 forward $31 $-1 #
coedge $-1 $51 $128 $131 $132 forward $31 $-1 #
coedge $-1 $133 $134 $51 $82 reversed $135 $-1 #
edge $-1 $136 -28.295066409909328 $137 28.295066409909328 $81 $138 forward 7 unknown #
face $-1 $139 $140 $19 $-1 $141 reversed single #
loop $-1 $-1 $142 $52 #
plane-surface $-1 -50.774943773392152 0 -4.4887043532380559 -1 0 0 0 0 1 forward_v I I I I #
coedge $-1 $143 $144 $145 $146 forward $53 $-1 #
coedge $-1 $147 $55 $148 $149 reversed $34 $-1 #
coedge $-1 $55 $147 $150 $151 reversed $34 $-1 #
coedge $-1 $142 $152 $55 $90 reversed $84 $-1 #
edge $-1 $153 -28.295066409909328 $154 28.295066409909328 $89 $155 forward 7 unknown #
face $-1 $156 $157 $20 $-1 $158 reversed single #
loop $-1 $-1 $159 $56 #
plane-surface $-1 77.898705145814517 5.3866960760597316 163.7922287085301 0 1 0 0.78801076186113728 0 0.61566146476048833 forward_v I I I I #
coedge $-1 $160 $161 $162 $163 reversed $57 $-1 #
coedge $-1 $96 $59 $164 $165 reversed $37 $-1 #
coedge $-1 $59 $95 $160 $166 reversed $37 $-1 #
coedge $-1 $162 $167 $59 $98 forward $168 $-1 #
edge $-1 $169 -18.980882114430614 $170 -14.488313904321473 $97 $171 forward 7 unknown #
loop $-1 $-1 $104 $60 #
plane-surface $-1 -13.400591595712683 10.714798691782836 92.461402425479534 0.78801076186113728 0 0.61566146476048833 0.61566146476048833 0 -0.78801076186113728 forward_v I I I I #
loop $-1 $-1 $172 $39 #
coedge $-1 $102 $102 $103 $173 reversed $61 $-1 #
coedge $-1 $103 $103 $102 $173 forward $63 $-1 #
coedge $-1 $104 $104 $64 $105 forward $99 $-1 #
edge $-1 $174 0 $174 6.2831853071796004 $104 $175 forward 7 unknown #
loop $-1 $-1 $111 $65 #
plane-surface $-1 -13.400591595712683 10.714798691782836 92.461402425479534 0.78801076186113728 0 0.61566146476048833 0.61566146476048833 0 -0.78801076186113728 forward_v I I I I #
loop $-1 $-1 $176 $42 #
coedge $-1 $109 $109 $110 $177 reversed $66 $-1 #
coedge $-1 $110 $110 $109 $177 forward $68 $-1 #
coedge $-1 $111 $111 $69 $112 forward $106 $-1 #
edge $-1 $178 0 $178 6.2831853071796004 $111 $179 forward 7 unknown #
loop $-1 $-1 $118 $70 #
plane-surface $-1 -13.400591595712683 10.714798691782836 92.461402425479534 0.78801076186113728 0 0.61566146476048833 0.61566146476048833 0 -0.78801076186113728 forward_v I I I I #
loop $-1 $-1 $180 $45 #
coedge $-1 $116 $116 $117 $181 reversed $71 $-1 #
coedge $-1 $117 $117 $116 $181 forward $73 $-1 #
coedge $-1 $118 $118 $74 $119 forward $113 $-1 #
edge $-1 $182 0 $182 6.2831853071796004 $118 $183 forward 7 unknown #
face $-1 $184 $185 $18 $-1 $186 reversed single #
loop $-1 $-1 $187 $75 #
plane-surface $-1 -57.930234687337872 0 0 1 0 0 0 0 -1 forward_v I I I I #
coedge $-1 $188 $131 $189 $190 forward $76 $-1 #
coedge $-1 $191 $78 $188 $192 forward $49 $-1 #
coedge $-1 $78 $191 $193 $194 forward $49 $-1 #
coedge $-1 $134 $133 $78 $127 reversed $135 $-1 #
edge $-1 $195 -28.295066409909328 $196 28.295066409909328 $126 $197 forward 7 unknown #
coedge $-1 $80 $79 $198 $199 forward $31 $-1 #
coedge $-1 $200 $201 $79 $130 reversed $185 $-1 #
edge $-1 $137 -57.930234687337872 $202 57.930234687337872 $129 $203 forward 7 unknown #
coedge $-1 $123 $204 $80 $132 reversed $76 $-1 #
edge $-1 $205 -57.930234687337872 $136 57.930234687337872 $131 $206 forward 7 unknown #
coedge $-1 $126 $81 $204 $207 forward $135 $-1 #
coedge $-1 $81 $126 $200 $208 reversed $135 $-1 #
loop $-1 $-1 $133 $184 #
vertex $-1 $82 $209 #
vertex $-1 $82 $210 #
straight-curve $-1 57.930234687337872 0 6.9123309304496043 0 1 0 I I #
face $-1 $211 $212 $19 $-1 $213 reversed single #
loop $-1 $-1 $214 $83 #
plane-surface $-1 0 -28.295066409909328 0 0 1 0 0 0 1 forward_v I I I I #
coedge $-1 $145 $89 $215 $216 reversed $84 $-1 #
coedge $-1 $217 $86 $214 $218 reversed $53 $-1 #
coedge $-1 $86 $217 $219 $220 reversed $53 $-1 #
coedge $-1 $152 $142 $86 $146 reversed $84 $-1 #
edge $-1 $221 -28.295066409909328 $222 28.295066409909328 $145 $223 forward 7 unknown #
coedge $-1 $88 $87 $224 $225 reversed $34 $-1 #
coedge $-1 $226 $227 $87 $149 forward $228 $-1 #
edge $-1 $229 -30.753940072155366 $154 -23.598649158209646 $148 $230 forward 7 unknown #
coedge $-1 $231 $215 $88 $151 forward $140 $-1 #
edge $-1 $153 23.598649158209646 $232 30.753940072155366 $150 $233 forward 7 unknown #
coedge $-1 $89 $145 $226 $234 reversed $84 $-1 #
vertex $-1 $151 $235 #
vertex $-1 $149 $236 #
straight-curve $-1 -50.774943773392152 0 -2.5650777760265076 0 1 0 I I #
face $-1 $-1 $168 $20 $-1 $237 forward single #
loop $-1 $-1 $238 $91 #
plane-surface $-1 57.930234687337872 0 0 -1 0 0 0 0 1 forward_v I I I I #
coedge $-1 $239 $240 $241 $242 reversed $92 $-1 #
coedge $-1 $243 $94 $96 $166 forward $57 $-1 #
coedge $-1 $94 $243 $239 $244 forward $57 $-1 #
coedge $-1 $241 $97 $94 $163 forward $168 $-1 #
edge $-1 $170 -10.685501961614522 $245 -0.0292967301683138 $162 $246 forward 7 unknown #
coedge $-1 $247 $248 $95 $165 forward $157 $-1 #
edge $-1 $249 -80.734008670312704 $169 -74.983783423815453 $164 $250 forward 7 unknown #
edge $-1 $170 108.56332887253808 $249 115.86046937467573 $96 $251 forward 7 unknown #
coedge $-1 $97 $241 $247 $252 forward $168 $-1 #
loop $-1 $-1 $241 $156 #
vertex $-1 $165 $253 #
vertex $-1 $98 $254 #
straight-curve $-1 38.949352572907259 16.042901307505939 6.912330930449599 -1 0 0 I I #
coedge $-1 $172 $172 $-1 $255 reversed $101 $-1 #
edge $-1 $256 0 $256 6.2831853071796004 $102 $257 forward 7 unknown #
vertex $-1 $105 $258 #
ellipse-curve $-1 55.683950582283295 7.5179371223489717 4.0372183072009671 0.78801076186113728 0 0.61566146476048833 0.61566146476048833 0 -0.78801076186113728 1 I I #
coedge $-1 $176 $176 $-1 $259 reversed $108 $-1 #
edge $-1 $260 0 $260 6.2831853071796004 $109 $261 forward 7 unknown #
vertex $-1 $112 $262 #
ellipse-curve $-1 55.683950582283295 10.714798691782836 4.0372183072009671 0.78801076186113728 0 0.61566146476048833 0.61566146476048833 0 -0.78801076186113728 1 I I #
coedge $-1 $180 $180 $-1 $263 reversed $115 $-1 #
edge $-1 $264 0 $264 6.2831853071796004 $116 $265 forward 7 unknown #
vertex $-1 $119 $266 #
ellipse-curve $-1 55.683950582283295 13.911660261216699 4.0372183072009671 0.78801076186113728 0 0.61566146476048833 0.61566146476048833 0 -0.78801076186113728 1 I I #
face $-1 $-1 $135 $18 $-1 $267 reversed single #
loop $-1 $-1 $200 $120 #
plane-surface $-1 0 28.295066409909328 0 0 -1 0 0 0 -1 forward_v I I I I #
coedge $-1 $268 $198 $201 $269 forward $121 $-1 #
coedge $-1 $204 $123 $124 $192 reversed $76 $-1 #
coedge $-1 $198 $268 $123 $190 reversed $121 $-1 #
edge $-1 $205 -6.9123309304496043 $270 6.9123309304496043 $189 $271 forward 7 unknown #
coedge $-1 $125 $124 $268 $272 forward $49 $-1 #
edge $-1 $196 -57.930234687337872 $270 57.930234687337872 $188 $273 forward 7 unknown #
coedge $-1 $201 $200 $125 $194 reversed $185 $-1 #
edge $-1 $274 -57.930234687337872 $195 57.930234687337872 $193 $275 forward 7 unknown #
vertex $-1 $127 $276 #
vertex $-1 $207 $277 #
straight-curve $-1 57.930234687337872 0 -6.9123309304496043 0 -1 0 I I #
coedge $-1 $187 $189 $128 $199 reversed $121 $-1 #
edge $-1 $202 -28.295066409909328 $205 28.295066409909328 $198 $278 forward 7 unknown #
coedge $-1 $193 $129 $134 $208 forward $185 $-1 #
coedge $-1 $129 $193 $187 $269 reversed $185 $-1 #
vertex $-1 $130 $279 #
straight-curve $-1 0 28.295066409909328 6.9123309304496043 -1 0 0 I I #
coedge $-1 $131 $188 $133 $207 reversed $76 $-1 #
vertex $-1 $199 $280 #
straight-curve $-1 0 -28.295066409909328 6.9123309304496043 1 0 0 I I #
edge $-1 $136 -6.9123309304496043 $196 6.9123309304496043 $133 $281 forward 7 unknown #
edge $-1 $137 -6.9123309304496043 $195 6.9123309304496043 $134 $282 forward 7 unknown #
point $-1 57.930234687337872 -28.295066409909328 6.9123309304496043 #
point $-1 57.930234687337872 28.295066409909328 6.9123309304496043 #
face $-1 $-1 $228 $19 $-1 $283 reversed single #
loop $-1 $-1 $284 $139 #
plane-surface $-1 -57.930234687337872 0 0 1 0 0 0 0 -1 forward_v I I I I #
coedge $-1 $215 $231 $143 $218 forward $140 $-1 #
coedge $-1 $150 $214 $142 $216 forward $140 $-1 #
edge $-1 $222 -4.1679787538305764 $153 -0.32072559940747958 $215 $285 forward 7 unknown #
coedge $-1 $144 $143 $284 $286 reversed $53 $-1 #
edge $-1 $287 -30.753940072155366 $222 -23.598649158209646 $214 $288 forward 7 unknown #
coedge $-1 $227 $226 $144 $220 forward $228 $-1 #
edge $-1 $221 23.598649158209646 $289 30.753940072155366 $219 $290 forward 7 unknown #
vertex $-1 $220 $291 #
vertex $-1 $218 $292 #
straight-curve $-1 -50.774943773392152 0 -6.4123309304496043 0 -1 0 I I #
coedge $-1 $293 $294 $147 $225 forward $212 $-1 #
edge $-1 $232 -28.295066409909328 $229 28.295066409909328 $224 $295 forward 7 unknown #
coedge $-1 $219 $148 $152 $234 forward $228 $-1 #
coedge $-1 $148 $219 $293 $296 reversed $228 $-1 #
loop $-1 $-1 $219 $211 #
vertex $-1 $296 $297 #
straight-curve $-1 -27.176294615182506 28.295066409909328 -2.5650777760265076 1 0 0 I I #
coedge $-1 $214 $150 $294 $298 forward $140 $-1 #
vertex $-1 $298 $299 #
straight-curve $-1 -27.176294615182506 -28.295066409909328 -2.5650777760265076 -1 0 0 I I #
edge $-1 $154 0.32072559940747958 $221 4.1679787538305764 $226 $300 forward 7 unknown #
point $-1 -50.774943773392152 -28.295066409909328 -2.5650777760265076 #
point $-1 -50.774943773392152 28.295066409909328 -2.5650777760265076 #
plane-surface $-1 0 0 6.9123309304496043 0 0 1 1 0 0 forward_v I I I I #
coedge $-1 $248 $247 $240 $301 forward $157 $-1 #
coedge $-1 $240 $159 $161 $244 reversed $92 $-1 #
coedge $-1 $159 $239 $238 $301 reversed $92 $-1 #
coedge $-1 $167 $162 $159 $242 forward $168 $-1 #
edge $-1 $245 14.488313904321473 $302 18.980882114430614 $241 $303 forward 7 unknown #
coedge $-1 $161 $160 $248 $304 reversed $57 $-1 #
edge $-1 $305 -115.86046937467573 $245 -108.56332887253808 $239 $306 forward 7 unknown #
vertex $-1 $163 $307 #
straight-curve $-1 53.437666477228717 5.3573993458914178 6.912330930449599 0 -1 0 I I #
coedge $-1 $238 $164 $167 $252 reversed $157 $-1 #
coedge $-1 $164 $238 $243 $304 forward $157 $-1 #
vertex $-1 $165 $308 #
straight-curve $-1 57.930234687337872 16.042901307505939 81.896114354265052 0 0 1 I I #
straight-curve $-1 -13.400591595712683 16.042901307505939 92.461402425479534 0.61566146476048833 0 -0.78801076186113728 I I #
edge $-1 $302 5.3866960760597316 $169 16.042901307505939 $247 $309 forward 7 unknown #
point $-1 57.930234687337872 16.042901307505939 6.9123309304496043 #
point $-1 53.437666477228731 16.042901307505939 6.912330930449599 #
edge $-1 $310 1 $310 0 $172 $-1 forward 7 unknown #
vertex $-1 $173 $311 #
ellipse-curve $-1 53.536118032688265 7.5179371223489717 2.3591476544337264 0.78801076186113728 0 0.61566146476048833 0.61566146476048833 0 -0.78801076186113728 1 I I #
point $-1 56.299612047043773 7.5179371223489717 3.2492075453398233 #
edge $-1 $312 1 $312 0 $176 $-1 forward 7 unknown #
vertex $-1 $177 $313 #
ellipse-curve $-1 53.536118032688265 10.714798691782836 2.3591476544337264 0.78801076186113728 0 0.61566146476048833 0.61566146476048833 0 -0.78801076186113728 1 I I #
point $-1 56.299612047043773 10.714798691782836 3.2492075453398233 #
edge $-1 $314 1 $314 0 $180 $-1 forward 7 unknown #
vertex $-1 $181 $315 #
ellipse-curve $-1 53.536118032688265 13.911660261216699 2.3591476544337264 0.78801076186113728 0 0.61566146476048833 0.61566146476048833 0 -0.78801076186113728 1 I I #
point $-1 56.299612047043773 13.911660261216699 3.2492075453398233 #
plane-surface $-1 57.930234687337872 0 0 -1 0 0 0 0 1 forward_v I I I I #
coedge $-1 $189 $187 $191 $272 reversed $121 $-1 #
edge $-1 $202 -6.9123309304496043 $274 6.9123309304496043 $201 $316 forward 7 unknown #
vertex $-1 $272 $317 #
straight-curve $-1 -57.930234687337872 -28.295066409909328 0 0 0 -1 I I #
edge $-1 $270 -28.295066409909328 $274 28.295066409909328 $268 $318 forward 7 unknown #
straight-curve $-1 0 -28.295066409909328 -6.9123309304496043 -1 0 0 I I #
vertex $-1 $194 $319 #
straight-curve $-1 0 28.295066409909328 -6.9123309304496043 1 0 0 I I #
point $-1 57.930234687337872 28.295066409909328 -6.9123309304496043 #
point $-1 57.930234687337872 -28.295066409909328 -6.9123309304496043 #
straight-curve $-1 -57.930234687337872 0 6.9123309304496043 0 -1 0 I I #
point $-1 -57.930234687337872 28.295066409909328 6.9123309304496043 #
point $-1 -57.930234687337872 -28.295066409909328 6.9123309304496043 #
straight-curve $-1 57.930234687337872 -28.295066409909328 0 0 0 -1 I I #
straight-curve $-1 57.930234687337872 28.295066409909328 0 0 0 -1 I I #
plane-surface $-1 0 28.295066409909328 0 0 -1 0 0 0 -1 forward_v I I I I #
coedge $-1 $294 $293 $217 $286 forward $212 $-1 #
straight-curve $-1 -50.774943773392152 -28.295066409909328 -2.244352176619028 0 0 1 I I #
edge $-1 $289 -28.295066409909328 $287 28.295066409909328 $284 $320 forward 7 unknown #
vertex $-1 $218 $321 #
straight-curve $-1 -27.176294615182506 -28.295066409909328 -6.4123309304496043 1 0 0 I I #
vertex $-1 $220 $322 #
straight-curve $-1 -27.176294615182506 28.295066409909328 -6.4123309304496043 -1 0 0 I I #
point $-1 -50.774943773392152 28.295066409909328 -6.4123309304496043 #
point $-1 -50.774943773392152 -28.295066409909328 -6.4123309304496043 #
coedge $-1 $284 $224 $227 $296 forward $212 $-1 #
coedge $-1 $224 $284 $231 $298 reversed $212 $-1 #
straight-curve $-1 -57.930234687337872 0 -2.5650777760265076 0 1 0 I I #
edge $-1 $229 2.5650777760265076 $289 6.4123309304496043 $227 $323 forward 7 unknown #
point $-1 -57.930234687337872 28.295066409909328 -2.5650777760265076 #
edge $-1 $232 2.5650777760265076 $287 6.4123309304496043 $294 $324 forward 7 unknown #
point $-1 -57.930234687337872 -28.295066409909328 -2.5650777760265076 #
straight-curve $-1 -50.774943773392152 28.295066409909328 -2.244352176619028 0 0 -1 I I #
edge $-1 $302 74.983783423815453 $305 80.734008670312704 $238 $325 forward 7 unknown #
vertex $-1 $252 $326 #
straight-curve $-1 38.949352572907259 5.3866960760597316 6.912330930449599 1 0 0 I I #
edge $-1 $305 0.0292967301683138 $249 10.685501961614522 $248 $327 forward 7 unknown #
vertex $-1 $304 $328 #
straight-curve $-1 -13.400591595712683 5.3866960760597316 92.461402425479534 -0.61566146476048833 0 0.78801076186113728 I I #
point $-1 53.437666477228731 5.3866960760597316 6.912330930449599 #
point $-1 57.930234687337872 16.042901307505939 1.1621056839523476 #
straight-curve $-1 57.930234687337872 0 6.9123309304496043 0 1 0 I I #
vertex $-1 $255 $329 #
point $-1 54.151779497448757 7.5179371223489717 1.5711368925725893 #
vertex $-1 $259 $330 #
point $-1 54.151779497448757 10.714798691782836 1.5711368925725893 #
vertex $-1 $263 $331 #
point $-1 54.151779497448757 13.911660261216699 1.5711368925725893 #
straight-curve $-1 -57.930234687337872 28.295066409909328 0 0 0 -1 I I #
point $-1 -57.930234687337872 -28.295066409909328 -6.9123309304496043 #
straight-curve $-1 -57.930234687337872 0 -6.9123309304496043 0 1 0 I I #
point $-1 -57.930234687337872 28.295066409909328 -6.9123309304496043 #
straight-curve $-1 -57.930234687337872 0 -6.4123309304496043 0 -1 0 I I #
point $-1 -57.930234687337872 -28.295066409909328 -6.4123309304496043 #
point $-1 -57.930234687337872 28.295066409909328 -6.4123309304496043 #
straight-curve $-1 -57.930234687337872 28.295066409909328 0 0 0 -1 I I #
straight-curve $-1 -57.930234687337872 -28.295066409909328 0 0 0 -1 I I #
straight-curve $-1 57.930234687337872 5.3866960760597316 81.896114354265052 0 0 -1 I I #
point $-1 57.930234687337872 5.3866960760597316 6.9123309304496043 #
straight-curve $-1 57.930234687337887 5.3573993458914178 1.1621056839523334 0 1 0 I I #
point $-1 57.930234687337872 5.3866960760597316 1.1621056839523476 #
point $-1 52.748107270827134 7.5179371223489717 1.7434861896732383 #
point $-1 52.748107270827134 10.714798691782836 1.7434861896732383 #
point $-1 52.748107270827134 13.911660261216699 1.7434861896732383 #
End-of-ACIS-data 