500 0 15 0           
7 Unknown 11 ACIS 5.0 NT 24 Fri Mar 26 20:30:44 1999 
-1 9.9999999999999995e-007 1e-010 
body $-1 $15 $-1 $16 #
body $-1 $17 $-1 $18 #
body $-1 $19 $-1 $20 #
body $-1 $21 $-1 $22 #
body $-1 $23 $-1 $24 #
body $-1 $25 $-1 $26 #
body $-1 $27 $-1 $28 #
body $-1 $29 $-1 $30 #
body $-1 $31 $-1 $32 #
body $-1 $33 $-1 $34 #
body $-1 $35 $-1 $36 #
body $-1 $37 $-1 $38 #
body $-1 $39 $-1 $40 #
body $-1 $41 $-1 $42 #
body $-1 $43 $-1 $44 #
lump $-1 $-1 $45 $0 #
transform $-1 1 0 0 0 1 0 0 0 1 41.888485366374709 21.362910213247712 9.4492428106236677 1 rotate no_reflect no_shear #
lump $-1 $-1 $46 $1 #
transform $-1 1 0 0 0 1 0 0 0 1 41.888485366374709 21.362910213247712 9.4492428106236677 1 rotate no_reflect no_shear #
lump $-1 $-1 $47 $2 #
transform $-1 1 0 0 0 1 0 0 0 1 41.888485366374709 21.362910213247712 9.4492428106236677 1 rotate no_reflect no_shear #
lump $-1 $-1 $48 $3 #
transform $-1 1 0 0 0 1 0 0 0 1 41.888485366374709 21.362910213247712 9.4492428106236677 1 rotate no_reflect no_shear #
lump $-1 $-1 $49 $4 #
transform $-1 1 0 0 0 1 0 0 0 1 41.888485366374709 21.362910213247712 9.4492428106236677 1 rotate no_reflect no_shear #
lump $-1 $-1 $50 $5 #
transform $-1 1 0 0 0 1 0 0 0 1 41.888485366374709 21.362910213247712 9.4492428106236677 1 rotate no_reflect no_shear #
lump $-1 $-1 $51 $6 #
transform $-1 1 0 0 0 1 0 0 0 1 41.888485366374709 21.362910213247712 9.4492428106236677 1 rotate no_reflect no_shear #
lump $-1 $-1 $52 $7 #
transform $-1 1 0 0 0 1 0 0 0 1 41.888485366374709 21.362910213247712 9.4492428106236677 1 rotate no_reflect no_shear #
lump $-1 $-1 $53 $8 #
transform $-1 1 0 0 0 1 0 0 0 1 41.888485366374709 21.362910213247712 9.4492428106236677 1 rotate no_reflect no_shear #
lump $-1 $-1 $54 $9 #
transform $-1 1 0 0 0 1 0 0 0 1 41.888485366374709 21.362910213247712 9.4492428106236677 1 rotate no_reflect no_shear #
lump $-1 $-1 $55 $10 #
transform $-1 1 0 0 0 1 0 0 0 1 41.888485366374709 21.362910213247712 9.4492428106236677 1 rotate no_reflect no_shear #
lump $-1 $-1 $56 $11 #
transform $-1 1 0 0 0 1 0 0 0 1 41.888485366374709 21.362910213247712 9.4492428106236677 1 rotate no_reflect no_shear #
lump $-1 $-1 $57 $12 #
transform $-1 1 0 0 0 1 0 0 0 1 41.888485366374709 21.362910213247712 9.4492428106236677 1 rotate no_reflect no_shear #
lump $-1 $-1 $58 $13 #
transform $-1 1 0 0 0 1 0 0 0 1 41.888485366374709 21.362910213247712 9.4492428106236677 1 rotate no_reflect no_shear #
lump $-1 $-1 $59 $14 #
transform $-1 1 0 0 0 1 0 0 0 1 41.888485366374709 21.362910213247712 9.4492428106236677 1 rotate no_reflect no_shear #
shell $-1 $-1 $-1 $60 $-1 $15 #
shell $-1 $-1 $-1 $61 $-1 $17 #
shell $-1 $-1 $-1 $62 $-1 $19 #
shell $-1 $-1 $-1 $63 $-1 $21 #
shell $-1 $-1 $-1 $64 $-1 $23 #
shell $-1 $-1 $-1 $65 $-1 $25 #
shell $-1 $-1 $-1 $66 $-1 $27 #
shell $-1 $-1 $-1 $67 $-1 $29 #
shell $-1 $-1 $-1 $68 $-1 $31 #
shell $-1 $-1 $-1 $69 $-1 $33 #
shell $-1 $-1 $-1 $70 $-1 $35 #
shell $-1 $-1 $-1 $71 $-1 $37 #
shell $-1 $-1 $-1 $72 $-1 $39 #
shell $-1 $-1 $-1 $73 $-1 $41 #
shell $-1 $-1 $-1 $74 $-1 $43 #
face $-1 $75 $76 $45 $-1 $77 forward single #
face $-1 $78 $79 $46 $-1 $80 forward single #
face $-1 $81 $82 $47 $-1 $83 forward single #
face $-1 $84 $85 $48 $-1 $86 reversed single #
face $-1 $87 $88 $49 $-1 $89 forward single #
face $-1 $90 $91 $50 $-1 $92 forward single #
face $-1 $93 $94 $51 $-1 $95 reversed single #
face $-1 $96 $97 $52 $-1 $98 forward single #
face $-1 $99 $100 $53 $-1 $101 forward single #
face $-1 $102 $103 $54 $-1 $104 reversed single #
face $-1 $105 $106 $55 $-1 $107 forward single #
face $-1 $108 $109 $56 $-1 $110 forward single #
face $-1 $111 $112 $57 $-1 $113 reversed single #
face $-1 $114 $115 $58 $-1 $116 forward single #
face $-1 $117 $118 $59 $-1 $119 forward single #
face $-1 $120 $121 $45 $-1 $122 reversed single #
loop $-1 $-1 $123 $60 #
plane-surface $-1 0 0 9.4492428106236677 0 0 1 1 0 0 forward_v I I I I #
face $-1 $124 $125 $46 $-1 $126 reversed single #
loop $-1 $-1 $127 $61 #
plane-surface $-1 0 -17.865430166673612 -6.4492428106236677 0 0 1 1 0 0 forward_v I I I I #
face $-1 $128 $129 $47 $-1 $130 reversed single #
loop $-1 $-1 $131 $62 #
plane-surface $-1 0 21.362910213247712 0 0 -1 0 0 0 -1 forward_v I I I I #
face $-1 $132 $133 $48 $-1 $134 reversed single #
loop $-1 $-1 $135 $63 #
plane-surface $-1 -108.79574980671788 -10.091281964710415 54.978587674133571 0 1 0 -0.79863551827123203 0 0.60181501223851219 forward_v I I I I #
face $-1 $136 $137 $49 $-1 $138 forward single #
loop $-1 $139 $140 $64 #
cone-surface $-1 -39.554673006193489 -8.0620506530256897 6.634205912640323 0.79863551827123203 0 -0.60181501223851219 0.3009075061192561 0 0.39931775913561601 1 I I 0 1 0.5 forward I I I I #
face $-1 $141 $142 $50 $-1 $143 forward single #
loop $-1 $144 $145 $65 #
cone-surface $-1 -39.554673006193489 -5.0182036854985981 6.634205912640323 0.79863551827123203 0 -0.60181501223851219 0.3009075061192561 0 0.39931775913561601 1 I I 0 1 0.5 forward I I I I #
face $-1 $146 $147 $51 $-1 $148 reversed single #
loop $-1 $-1 $149 $66 #
plane-surface $-1 23.354361270959288 -8.9541765609490014 120.12707862361646 0 -1 0 -0.5877852598018023 0 -0.80901698891910034 forward_v I I I I #
face $-1 $150 $151 $52 $-1 $152 forward single #
loop $-1 $153 $154 $67 #
cone-surface $-1 37.038262748565835 -12.821157674627937 5.6097239210650134 -0.5877852598018023 0 -0.80901698891910034 0.40450849445955017 0 -0.29389262990090115 1 I I 0 1 0.5 forward I I I I #
face $-1 $155 $156 $53 $-1 $157 forward single #
loop $-1 $158 $159 $68 #
cone-surface $-1 37.038262748565835 -10.500969006420576 5.6097239210650134 -0.5877852598018023 0 -0.80901698891910034 0.40450849445955017 0 -0.29389262990090115 1 I I 0 1 0.5 forward I I I I #
face $-1 $160 $161 $54 $-1 $162 reversed single #
loop $-1 $-1 $163 $69 #
plane-surface $-1 23.354361270959288 0.76562928419908127 120.12707862361646 0 -1 0 -0.5877852598018023 0 -0.80901698891910034 forward_v I I I I #
face $-1 $164 $165 $55 $-1 $166 forward single #
loop $-1 $167 $168 $70 #
cone-surface $-1 37.038262748565835 -3.101351829479853 5.6097239210650134 -0.5877852598018023 0 -0.80901698891910034 0.40450849445955017 0 -0.29389262990090115 1 I I 0 1 0.5 forward I I I I #
face $-1 $169 $170 $56 $-1 $171 forward single #
loop $-1 $172 $173 $71 #
cone-surface $-1 37.038262748565835 -0.78116316127249164 5.6097239210650134 -0.5877852598018023 0 -0.80901698891910034 0.40450849445955017 0 -0.29389262990090115 1 I I 0 1 0.5 forward I I I I #
face $-1 $174 $175 $57 $-1 $176 reversed single #
loop $-1 $-1 $177 $72 #
plane-surface $-1 23.354361270959288 10.485435129347165 120.12707862361646 0 -1 0 -0.5877852598018023 0 -0.80901698891910034 forward_v I I I I #
face $-1 $178 $179 $58 $-1 $180 forward single #
loop $-1 $181 $182 $73 #
cone-surface $-1 37.038262748565835 6.618454015668231 5.6097239210650134 -0.5877852598018023 0 -0.80901698891910034 0.40450849445955017 0 -0.29389262990090115 1 I I 0 1 0.5 forward I I I I #
face $-1 $183 $184 $59 $-1 $185 forward single #
loop $-1 $186 $187 $74 #
cone-surface $-1 37.038262748565835 8.9386426838755924 5.6097239210650134 -0.5877852598018023 0 -0.80901698891910034 0.40450849445955017 0 -0.29389262990090115 1 I I 0 1 0.5 forward I I I I #
face $-1 $188 $189 $45 $-1 $190 reversed single #
loop $-1 $-1 $191 $75 #
plane-surface $-1 0 0 -9.4492428106236677 0 0 1 1 0 0 forward_v I I I I #
coedge $-1 $192 $193 $194 $195 forward $76 $-1 #
face $-1 $196 $197 $46 $-1 $198 reversed single #
loop $-1 $-1 $199 $78 #
plane-surface $-1 0 -14.367950120099511 -7.9492428106236677 0 -1 0 0 0 -1 forward_v I I I I #
coedge $-1 $200 $201 $202 $203 reversed $79 $-1 #
face $-1 $204 $205 $47 $-1 $206 reversed single #
loop $-1 $-1 $207 $81 #
plane-surface $-1 0 0 -9.4492428106236677 0 0 1 1 0 0 forward_v I I I I #
coedge $-1 $208 $209 $210 $211 forward $82 $-1 #
face $-1 $212 $213 $48 $-1 $214 reversed single #
loop $-1 $-1 $215 $84 #
plane-surface $-1 -41.888485366374709 -6.5401271692621421 4.5603490072985053 -0.79863551827123203 0 0.60181501223851219 0.60181501223851219 0 0.79863551827123203 forward_v I I I I #
coedge $-1 $216 $217 $218 $219 reversed $85 $-1 #
face $-1 $-1 $220 $49 $-1 $221 forward single #
loop $-1 $222 $223 $87 #
cone-surface $-1 -38.86322457708139 -8.0620506530256897 6.1131621632599273 0.79863551827123203 0 -0.60181501223851219 0.15045375305962805 0 0.19965887956780801 1 I I -0.70710678118654746 0.70710678118654746 0.25 forward I I I I #
loop $-1 $-1 $224 $64 #
coedge $-1 $140 $140 $225 $226 reversed $88 $-1 #
face $-1 $-1 $227 $50 $-1 $228 forward single #
loop $-1 $229 $230 $90 #
cone-surface $-1 -38.86322457708139 -5.0182036854985981 6.1131621632599273 0.79863551827123203 0 -0.60181501223851219 0.15045375305962805 0 0.19965887956780801 1 I I -0.70710678118654746 0.70710678118654746 0.25 forward I I I I #
loop $-1 $-1 $231 $65 #
coedge $-1 $145 $145 $232 $233 reversed $91 $-1 #
face $-1 $234 $235 $51 $-1 $236 reversed single #
loop $-1 $-1 $237 $93 #
plane-surface $-1 -25.888507236597817 -11.661063340524256 52.350086020643928 0.5877852598018023 0 0.80901698891910034 0.80901698891910034 0 -0.5877852598018023 forward_v I I I I #
coedge $-1 $238 $239 $240 $241 reversed $94 $-1 #
face $-1 $-1 $242 $52 $-1 $243 forward single #
loop $-1 $244 $245 $96 #
cone-surface $-1 36.405618209963734 -12.821157674627937 4.7389634330450061 -0.5877852598018023 0 -0.80901698891910034 0.20225424722977509 0 -0.14694631495045057 1 I I -0.70710678118654746 0.70710678118654746 0.25 forward I I I I #
loop $-1 $-1 $246 $67 #
coedge $-1 $154 $154 $247 $248 reversed $97 $-1 #
face $-1 $-1 $249 $53 $-1 $250 forward single #
loop $-1 $251 $252 $99 #
cone-surface $-1 36.405618209963734 -10.500969006420576 4.7389634330450061 -0.5877852598018023 0 -0.80901698891910034 0.20225424722977509 0 -0.14694631495045057 1 I I -0.70710678118654746 0.70710678118654746 0.25 forward I I I I #
loop $-1 $-1 $253 $68 #
coedge $-1 $159 $159 $254 $255 reversed $100 $-1 #
face $-1 $256 $257 $54 $-1 $258 reversed single #
loop $-1 $-1 $259 $102 #
plane-surface $-1 -25.888507236597817 -1.9412574953761741 52.350086020643928 0.5877852598018023 0 0.80901698891910034 0.80901698891910034 0 -0.5877852598018023 forward_v I I I I #
coedge $-1 $260 $261 $262 $263 reversed $103 $-1 #
face $-1 $-1 $264 $55 $-1 $265 forward single #
loop $-1 $266 $267 $105 #
cone-surface $-1 36.405618209963734 -3.101351829479853 4.7389634330450061 -0.5877852598018023 0 -0.80901698891910034 0.20225424722977509 0 -0.14694631495045057 1 I I -0.70710678118654746 0.70710678118654746 0.25 forward I I I I #
loop $-1 $-1 $268 $70 #
coedge $-1 $168 $168 $269 $270 reversed $106 $-1 #
face $-1 $-1 $271 $56 $-1 $272 forward single #
loop $-1 $273 $274 $108 #
cone-surface $-1 36.405618209963734 -0.78116316127249164 4.7389634330450061 -0.5877852598018023 0 -0.80901698891910034 0.20225424722977509 0 -0.14694631495045057 1 I I -0.70710678118654746 0.70710678118654746 0.25 forward I I I I #
loop $-1 $-1 $275 $71 #
coedge $-1 $173 $173 $276 $277 reversed $109 $-1 #
face $-1 $278 $279 $57 $-1 $280 reversed single #
loop $-1 $-1 $281 $111 #
plane-surface $-1 -25.888507236597817 7.7785483497719099 52.350086020643928 0.5877852598018023 0 0.80901698891910034 0.80901698891910034 0 -0.5877852598018023 forward_v I I I I #
coedge $-1 $282 $283 $284 $285 reversed $112 $-1 #
face $-1 $-1 $286 $58 $-1 $287 forward single #
loop $-1 $288 $289 $114 #
cone-surface $-1 36.405618209963734 6.618454015668231 4.7389634330450061 -0.5877852598018023 0 -0.80901698891910034 0.20225424722977509 0 -0.14694631495045057 1 I I -0.70710678118654746 0.70710678118654746 0.25 forward I I I I #
loop $-1 $-1 $290 $73 #
coedge $-1 $182 $182 $291 $292 reversed $115 $-1 #
face $-1 $-1 $293 $59 $-1 $294 forward single #
loop $-1 $295 $296 $117 #
cone-surface $-1 36.405618209963734 8.9386426838755924 4.7389634330450061 -0.5877852598018023 0 -0.80901698891910034 0.20225424722977509 0 -0.14694631495045057 1 I I -0.70710678118654746 0.70710678118654746 0.25 forward I I I I #
loop $-1 $-1 $297 $74 #
coedge $-1 $187 $187 $298 $299 reversed $118 $-1 #
face $-1 $300 $301 $45 $-1 $302 reversed single #
loop $-1 $-1 $303 $120 #
plane-surface $-1 0 -21.362910213247712 0 0 1 0 0 0 1 forward_v I I I I #
coedge $-1 $304 $305 $306 $307 forward $121 $-1 #
coedge $-1 $308 $123 $309 $310 forward $76 $-1 #
coedge $-1 $123 $308 $311 $312 forward $76 $-1 #
coedge $-1 $313 $314 $123 $195 reversed $315 $-1 #
edge $-1 $316 -21.362910213247712 $317 21.362910213247712 $194 $318 forward 7 unknown #
face $-1 $319 $320 $46 $-1 $321 reversed single #
loop $-1 $-1 $322 $124 #
plane-surface $-1 0 0 -9.4492428106236677 0 0 1 1 0 0 forward_v I I I I #
coedge $-1 $323 $324 $325 $326 reversed $125 $-1 #
coedge $-1 $327 $127 $324 $328 forward $79 $-1 #
coedge $-1 $127 $327 $329 $330 reversed $79 $-1 #
coedge $-1 $331 $325 $127 $203 forward $320 $-1 #
edge $-1 $332 5.4352350367627054 $333 12.430195129910906 $202 $334 forward 7 unknown #
face $-1 $335 $336 $47 $-1 $337 forward single #
loop $-1 $-1 $338 $128 #
plane-surface $-1 -41.888485366374709 0 0 1 0 0 0 0 -1 forward_v I I I I #
coedge $-1 $339 $340 $341 $342 forward $129 $-1 #
coedge $-1 $341 $131 $338 $343 reversed $82 $-1 #
coedge $-1 $131 $341 $344 $345 reversed $82 $-1 #
coedge $-1 $346 $347 $131 $211 reversed $336 $-1 #
edge $-1 $348 -41.888485366374709 $349 41.888485366374709 $210 $350 forward 7 unknown #
face $-1 $351 $352 $48 $-1 $353 reversed single #
loop $-1 $-1 $354 $132 #
plane-surface $-1 -108.79574980671788 -2.9889723738138683 54.978587674133571 0 -1 0 0.79863551827123203 0 -0.60181501223851219 forward_v I I I I #
coedge $-1 $355 $356 $357 $358 reversed $133 $-1 #
coedge $-1 $217 $135 $359 $360 reversed $85 $-1 #
coedge $-1 $135 $216 $355 $361 reversed $85 $-1 #
coedge $-1 $357 $362 $135 $219 forward $363 $-1 #
edge $-1 $364 12.50938953698423 $365 16.193435158258097 $218 $366 forward 7 unknown #
loop $-1 $-1 $225 $136 #
plane-surface $-1 -41.888485366374709 -6.5401271692621421 4.5603490072985053 -0.79863551827123203 0 0.60181501223851219 0.60181501223851219 0 0.79863551827123203 forward_v I I I I #
loop $-1 $-1 $367 $87 #
coedge $-1 $223 $223 $224 $368 reversed $137 $-1 #
coedge $-1 $224 $224 $223 $368 forward $139 $-1 #
coedge $-1 $225 $225 $140 $226 forward $220 $-1 #
edge $-1 $369 0 $369 6.2831853071796004 $225 $370 forward 7 unknown #
loop $-1 $-1 $232 $141 #
plane-surface $-1 -41.888485366374709 -6.5401271692621421 4.5603490072985053 -0.79863551827123203 0 0.60181501223851219 0.60181501223851219 0 0.79863551827123203 forward_v I I I I #
loop $-1 $-1 $371 $90 #
coedge $-1 $230 $230 $231 $372 reversed $142 $-1 #
coedge $-1 $231 $231 $230 $372 forward $144 $-1 #
coedge $-1 $232 $232 $145 $233 forward $227 $-1 #
edge $-1 $373 0 $373 6.2831853071796004 $232 $374 forward 7 unknown #
face $-1 $375 $376 $51 $-1 $377 forward single #
loop $-1 $-1 $378 $146 #
plane-surface $-1 23.354361270959288 -14.367950120099511 120.12707862361646 0 1 0 0.5877852598018023 0 0.80901698891910034 forward_v I I I I #
coedge $-1 $379 $380 $381 $382 reversed $147 $-1 #
coedge $-1 $239 $149 $383 $384 reversed $94 $-1 #
coedge $-1 $149 $238 $379 $385 reversed $94 $-1 #
coedge $-1 $381 $386 $149 $241 forward $376 $-1 #
edge $-1 $387 -30.211304730895066 $388 -21.482255942580615 $240 $389 forward 7 unknown #
loop $-1 $-1 $247 $150 #
plane-surface $-1 -25.888507236597817 -11.661063340524256 52.350086020643928 0.5877852598018023 0 0.80901698891910034 0.80901698891910034 0 -0.5877852598018023 forward_v I I I I #
loop $-1 $-1 $390 $96 #
coedge $-1 $245 $245 $246 $391 reversed $151 $-1 #
coedge $-1 $246 $246 $245 $391 forward $153 $-1 #
coedge $-1 $247 $247 $154 $248 forward $242 $-1 #
edge $-1 $392 0 $392 6.2831853071796004 $247 $393 forward 7 unknown #
loop $-1 $-1 $254 $155 #
plane-surface $-1 -25.888507236597817 -11.661063340524256 52.350086020643928 0.5877852598018023 0 0.80901698891910034 0.80901698891910034 0 -0.5877852598018023 forward_v I I I I #
loop $-1 $-1 $394 $99 #
coedge $-1 $252 $252 $253 $395 reversed $156 $-1 #
coedge $-1 $253 $253 $252 $395 forward $158 $-1 #
coedge $-1 $254 $254 $159 $255 forward $249 $-1 #
edge $-1 $396 0 $396 6.2831853071796004 $254 $397 forward 7 unknown #
face $-1 $398 $399 $54 $-1 $400 reversed single #
loop $-1 $-1 $401 $160 #
plane-surface $-1 23.354361270959288 -4.648144274951429 120.12707862361646 0 1 0 0.5877852598018023 0 0.80901698891910034 forward_v I I I I #
coedge $-1 $402 $403 $404 $405 reversed $161 $-1 #
coedge $-1 $261 $163 $406 $407 reversed $103 $-1 #
coedge $-1 $163 $260 $402 $408 reversed $103 $-1 #
coedge $-1 $404 $409 $163 $263 forward $410 $-1 #
edge $-1 $411 -30.211304730895066 $412 -21.482255942580615 $262 $413 forward 7 unknown #
loop $-1 $-1 $269 $164 #
plane-surface $-1 -25.888507236597817 -1.9412574953761741 52.350086020643928 0.5877852598018023 0 0.80901698891910034 0.80901698891910034 0 -0.5877852598018023 forward_v I I I I #
loop $-1 $-1 $414 $105 #
coedge $-1 $267 $267 $268 $415 reversed $165 $-1 #
coedge $-1 $268 $268 $267 $415 forward $167 $-1 #
coedge $-1 $269 $269 $168 $270 forward $264 $-1 #
edge $-1 $416 0 $416 6.2831853071796004 $269 $417 forward 7 unknown #
loop $-1 $-1 $276 $169 #
plane-surface $-1 -25.888507236597817 -1.9412574953761741 52.350086020643928 0.5877852598018023 0 0.80901698891910034 0.80901698891910034 0 -0.5877852598018023 forward_v I I I I #
loop $-1 $-1 $418 $108 #
coedge $-1 $274 $274 $275 $419 reversed $170 $-1 #
coedge $-1 $275 $275 $274 $419 forward $172 $-1 #
coedge $-1 $276 $276 $173 $277 forward $271 $-1 #
edge $-1 $420 0 $420 6.2831853071796004 $276 $421 forward 7 unknown #
face $-1 $422 $423 $57 $-1 $424 reversed single #
loop $-1 $-1 $425 $174 #
plane-surface $-1 23.354361270959288 5.071661570196655 120.12707862361646 0 1 0 0.5877852598018023 0 0.80901698891910034 forward_v I I I I #
coedge $-1 $426 $427 $428 $429 reversed $175 $-1 #
coedge $-1 $283 $177 $430 $431 reversed $112 $-1 #
coedge $-1 $177 $282 $426 $432 reversed $112 $-1 #
coedge $-1 $428 $433 $177 $285 forward $434 $-1 #
edge $-1 $435 -30.211304730895066 $436 -21.482255942580615 $284 $437 forward 7 unknown #
loop $-1 $-1 $291 $178 #
plane-surface $-1 -25.888507236597817 7.7785483497719099 52.350086020643928 0.5877852598018023 0 0.80901698891910034 0.80901698891910034 0 -0.5877852598018023 forward_v I I I I #
loop $-1 $-1 $438 $114 #
coedge $-1 $289 $289 $290 $439 reversed $179 $-1 #
coedge $-1 $290 $290 $289 $439 forward $181 $-1 #
coedge $-1 $291 $291 $182 $292 forward $286 $-1 #
edge $-1 $440 0 $440 6.2831853071796004 $291 $441 forward 7 unknown #
loop $-1 $-1 $298 $183 #
plane-surface $-1 -25.888507236597817 7.7785483497719099 52.350086020643928 0.5877852598018023 0 0.80901698891910034 0.80901698891910034 0 -0.5877852598018023 forward_v I I I I #
loop $-1 $-1 $442 $117 #
coedge $-1 $296 $296 $297 $443 reversed $184 $-1 #
coedge $-1 $297 $297 $296 $443 forward $186 $-1 #
coedge $-1 $298 $298 $187 $299 forward $293 $-1 #
edge $-1 $444 0 $444 6.2831853071796004 $298 $445 forward 7 unknown #
face $-1 $446 $447 $45 $-1 $448 reversed single #
loop $-1 $-1 $449 $188 #
plane-surface $-1 -41.888485366374709 0 0 1 0 0 0 0 -1 forward_v I I I I #
coedge $-1 $450 $311 $451 $452 forward $189 $-1 #
coedge $-1 $453 $191 $450 $454 forward $121 $-1 #
coedge $-1 $191 $453 $455 $456 forward $121 $-1 #
coedge $-1 $314 $313 $191 $307 reversed $315 $-1 #
edge $-1 $457 -21.362910213247712 $458 21.362910213247712 $306 $459 forward 7 unknown #
coedge $-1 $193 $192 $460 $461 forward $76 $-1 #
coedge $-1 $462 $463 $192 $310 reversed $447 $-1 #
edge $-1 $317 -41.888485366374709 $464 41.888485366374709 $309 $465 forward 7 unknown #
coedge $-1 $303 $466 $193 $312 reversed $189 $-1 #
edge $-1 $467 -41.888485366374709 $316 41.888485366374709 $311 $468 forward 7 unknown #
coedge $-1 $306 $194 $466 $469 forward $315 $-1 #
coedge $-1 $194 $306 $462 $470 reversed $315 $-1 #
loop $-1 $-1 $313 $446 #
vertex $-1 $195 $471 #
vertex $-1 $195 $472 #
straight-curve $-1 41.888485366374709 0 9.4492428106236677 0 1 0 I I #
face $-1 $473 $474 $46 $-1 $475 reversed single #
loop $-1 $-1 $325 $196 #
plane-surface $-1 41.888485366374709 0 0 -1 0 0 0 0 1 forward_v I I I I #
coedge $-1 $476 $477 $323 $478 forward $197 $-1 #
coedge $-1 $479 $199 $322 $478 reversed $125 $-1 #
coedge $-1 $199 $479 $200 $328 reversed $125 $-1 #
coedge $-1 $202 $480 $199 $326 forward $320 $-1 #
edge $-1 $481 -5.4746214053118338 $332 -2.4746214053118338 $325 $482 forward 7 unknown #
coedge $-1 $201 $200 $483 $484 reversed $79 $-1 #
edge $-1 $332 -41.888485366374709 $485 41.888485366374709 $324 $486 forward 7 unknown #
coedge $-1 $487 $488 $201 $330 forward $474 $-1 #
edge $-1 $333 -41.888485366374709 $489 41.888485366374709 $329 $490 forward 7 unknown #
coedge $-1 $480 $202 $488 $491 forward $320 $-1 #
vertex $-1 $203 $492 #
vertex $-1 $491 $493 #
straight-curve $-1 41.888485366374709 -8.9327150833368059 -6.4492428106236677 0 -1 0 I I #
face $-1 $494 $495 $47 $-1 $496 reversed single #
loop $-1 $-1 $346 $204 #
plane-surface $-1 0 26.80164775519798 -4.8420772785003177 0 0 1 1 0 0 forward_v I I I I #
coedge $-1 $497 $498 $208 $343 forward $205 $-1 #
coedge $-1 $499 $207 $498 $500 forward $129 $-1 #
coedge $-1 $207 $499 $501 $502 forward $129 $-1 #
coedge $-1 $209 $208 $207 $342 reversed $82 $-1 #
edge $-1 $503 -41.888485366374709 $504 41.888485366374709 $207 $505 forward 7 unknown #
edge $-1 $504 -9.4492428106236677 $349 -4.8420772785003177 $338 $506 forward 7 unknown #
coedge $-1 $501 $507 $209 $345 forward $508 $-1 #
edge $-1 $348 4.8420772785003177 $503 9.4492428106236677 $344 $509 forward 7 unknown #
coedge $-1 $510 $210 $507 $511 forward $336 $-1 #
coedge $-1 $210 $510 $497 $512 forward $336 $-1 #
vertex $-1 $345 $513 #
vertex $-1 $512 $514 #
straight-curve $-1 0 21.362910213247712 -4.8420772785003177 -1 0 0 I I #
face $-1 $-1 $363 $48 $-1 $515 forward single #
loop $-1 $-1 $516 $212 #
plane-surface $-1 -41.888485366374709 0 0 1 0 0 0 0 -1 forward_v I I I I #
coedge $-1 $517 $518 $519 $520 reversed $213 $-1 #
coedge $-1 $521 $215 $217 $361 forward $133 $-1 #
coedge $-1 $215 $521 $517 $522 forward $133 $-1 #
coedge $-1 $519 $218 $215 $358 forward $363 $-1 #
edge $-1 $365 -6.821218380079344 $523 0.28109121081720279 $357 $524 forward 7 unknown #
coedge $-1 $525 $526 $216 $360 forward $352 $-1 #
edge $-1 $527 -22.92894482976828 $364 -18.040051026443116 $359 $528 forward 7 unknown #
edge $-1 $365 -6.1215581970457755 $527 0 $217 $529 forward 7 unknown #
coedge $-1 $218 $519 $525 $530 forward $363 $-1 #
loop $-1 $-1 $519 $351 #
vertex $-1 $360 $531 #
vertex $-1 $219 $532 #
straight-curve $-1 -54.397874903358939 -10.091281964710415 9.4492428106236659 1 0 0 I I #
coedge $-1 $367 $367 $-1 $533 reversed $222 $-1 #
edge $-1 $534 0 $534 6.2831853071796004 $223 $535 forward 7 unknown #
vertex $-1 $226 $536 #
ellipse-curve $-1 -40.046462555737776 -8.0620506530256897 7.0047959089610865 -0.79863551827123203 0 0.60181501223851219 0.3009075061192561 0 0.39931775913561601 1 I I #
coedge $-1 $371 $371 $-1 $537 reversed $229 $-1 #
edge $-1 $538 0 $538 6.2831853071796004 $230 $539 forward 7 unknown #
vertex $-1 $233 $540 #
ellipse-curve $-1 -40.046462555737776 -5.0182036854985981 7.0047959089610865 -0.79863551827123203 0 0.60181501223851219 0.3009075061192561 0 0.39931775913561601 1 I I #
face $-1 $-1 $541 $51 $-1 $542 reversed single #
loop $-1 $-1 $240 $234 #
plane-surface $-1 0 0 9.4492428106236677 0 0 1 1 0 0 forward_v I I I I #
coedge $-1 $543 $544 $545 $546 reversed $235 $-1 #
coedge $-1 $547 $237 $239 $385 forward $147 $-1 #
coedge $-1 $237 $547 $543 $548 forward $147 $-1 #
coedge $-1 $545 $240 $237 $382 forward $376 $-1 #
edge $-1 $388 3.1236448906868732 $549 8.5374184498373822 $381 $550 forward 7 unknown #
coedge $-1 $551 $552 $238 $384 forward $541 $-1 #
edge $-1 $553 -56.956321798721405 $387 -50.614296501184562 $383 $554 forward 7 unknown #
edge $-1 $388 72.987272978717044 $553 83.776970732749419 $239 $555 forward 7 unknown #
coedge $-1 $240 $545 $551 $556 forward $376 $-1 #
vertex $-1 $384 $557 #
vertex $-1 $241 $558 #
straight-curve $-1 11.677180635479644 -8.9541765609490014 9.4492428106236659 -1 0 0 I I #
coedge $-1 $390 $390 $-1 $559 reversed $244 $-1 #
edge $-1 $560 0 $560 6.2831853071796004 $245 $561 forward 7 unknown #
vertex $-1 $248 $562 #
ellipse-curve $-1 37.523960972217488 -12.821157674627937 6.2782301618552498 0.5877852598018023 0 0.80901698891910034 0.40450849445955017 0 -0.29389262990090115 1 I I #
coedge $-1 $394 $394 $-1 $563 reversed $251 $-1 #
edge $-1 $564 0 $564 6.2831853071796004 $252 $565 forward 7 unknown #
vertex $-1 $255 $566 #
ellipse-curve $-1 37.523960972217488 -10.500969006420576 6.2782301618552498 0.5877852598018023 0 0.80901698891910034 0.40450849445955017 0 -0.29389262990090115 1 I I #
face $-1 $-1 $410 $54 $-1 $567 forward single #
loop $-1 $-1 $568 $256 #
plane-surface $-1 41.888485366374709 0 0 -1 0 0 0 0 1 forward_v I I I I #
coedge $-1 $569 $570 $571 $572 reversed $257 $-1 #
coedge $-1 $573 $259 $261 $408 forward $161 $-1 #
coedge $-1 $259 $573 $569 $574 forward $161 $-1 #
coedge $-1 $571 $262 $259 $405 forward $410 $-1 #
edge $-1 $412 -1.7362580318871683 $575 3.677515527263342 $404 $576 forward 7 unknown #
coedge $-1 $577 $578 $260 $407 forward $399 $-1 #
edge $-1 $579 -56.956321798721405 $411 -50.614296501184562 $406 $580 forward 7 unknown #
edge $-1 $412 72.987272978717044 $579 83.776970732749419 $261 $581 forward 7 unknown #
coedge $-1 $262 $571 $577 $582 forward $410 $-1 #
loop $-1 $-1 $571 $398 #
vertex $-1 $407 $583 #
vertex $-1 $263 $584 #
straight-curve $-1 11.677180635479644 0.76562928419908127 9.4492428106236659 -1 0 0 I I #
coedge $-1 $414 $414 $-1 $585 reversed $266 $-1 #
edge $-1 $586 0 $586 6.2831853071796004 $267 $587 forward 7 unknown #
vertex $-1 $270 $588 #
ellipse-curve $-1 37.523960972217488 -3.101351829479853 6.2782301618552498 0.5877852598018023 0 0.80901698891910034 0.40450849445955017 0 -0.29389262990090115 1 I I #
coedge $-1 $418 $418 $-1 $589 reversed $273 $-1 #
edge $-1 $590 0 $590 6.2831853071796004 $274 $591 forward 7 unknown #
vertex $-1 $277 $592 #
ellipse-curve $-1 37.523960972217488 -0.78116316127249164 6.2782301618552498 0.5877852598018023 0 0.80901698891910034 0.40450849445955017 0 -0.29389262990090115 1 I I #
face $-1 $-1 $434 $57 $-1 $593 forward single #
loop $-1 $-1 $594 $278 #
plane-surface $-1 41.888485366374709 0 0 -1 0 0 0 0 1 forward_v I I I I #
coedge $-1 $595 $596 $597 $598 reversed $279 $-1 #
coedge $-1 $599 $281 $283 $432 forward $175 $-1 #
coedge $-1 $281 $599 $595 $600 forward $175 $-1 #
coedge $-1 $597 $284 $281 $429 forward $434 $-1 #
edge $-1 $436 -6.5961609544612099 $601 -1.1823873953107 $428 $602 forward 7 unknown #
coedge $-1 $603 $604 $282 $431 forward $423 $-1 #
edge $-1 $605 -56.956321798721405 $435 -50.614296501184562 $430 $606 forward 7 unknown #
edge $-1 $436 72.987272978717044 $605 83.776970732749419 $283 $607 forward 7 unknown #
coedge $-1 $284 $597 $603 $608 forward $434 $-1 #
loop $-1 $-1 $597 $422 #
vertex $-1 $431 $609 #
vertex $-1 $285 $610 #
straight-curve $-1 11.677180635479644 10.485435129347165 9.4492428106236659 -1 0 0 I I #
coedge $-1 $438 $438 $-1 $611 reversed $288 $-1 #
edge $-1 $612 0 $612 6.2831853071796004 $289 $613 forward 7 unknown #
vertex $-1 $292 $614 #
ellipse-curve $-1 37.523960972217488 6.618454015668231 6.2782301618552498 0.5877852598018023 0 0.80901698891910034 0.40450849445955017 0 -0.29389262990090115 1 I I #
coedge $-1 $442 $442 $-1 $615 reversed $295 $-1 #
edge $-1 $616 0 $616 6.2831853071796004 $296 $617 forward 7 unknown #
vertex $-1 $299 $618 #
ellipse-curve $-1 37.523960972217488 8.9386426838755924 6.2782301618552498 0.5877852598018023 0 0.80901698891910034 0.40450849445955017 0 -0.29389262990090115 1 I I #
face $-1 $-1 $315 $45 $-1 $619 reversed single #
loop $-1 $-1 $463 $300 #
plane-surface $-1 0 21.362910213247712 0 0 -1 0 0 0 -1 forward_v I I I I #
coedge $-1 $620 $460 $463 $621 forward $301 $-1 #
coedge $-1 $466 $303 $304 $454 reversed $189 $-1 #
coedge $-1 $460 $620 $303 $452 reversed $301 $-1 #
edge $-1 $467 -9.4492428106236677 $622 9.4492428106236677 $451 $623 forward 7 unknown #
coedge $-1 $305 $304 $620 $624 forward $121 $-1 #
edge $-1 $458 -41.888485366374709 $622 41.888485366374709 $450 $625 forward 7 unknown #
coedge $-1 $463 $462 $305 $456 reversed $447 $-1 #
edge $-1 $626 -41.888485366374709 $457 41.888485366374709 $455 $627 forward 7 unknown #
vertex $-1 $307 $628 #
vertex $-1 $469 $629 #
straight-curve $-1 41.888485366374709 0 -9.4492428106236677 0 -1 0 I I #
coedge $-1 $449 $451 $308 $461 reversed $301 $-1 #
edge $-1 $464 -21.362910213247712 $467 21.362910213247712 $460 $630 forward 7 unknown #
coedge $-1 $455 $309 $314 $470 forward $447 $-1 #
coedge $-1 $309 $455 $449 $621 reversed $447 $-1 #
vertex $-1 $310 $631 #
straight-curve $-1 0 21.362910213247712 9.4492428106236677 -1 0 0 I I #
coedge $-1 $311 $450 $313 $469 reversed $189 $-1 #
vertex $-1 $461 $632 #
straight-curve $-1 0 -21.362910213247712 9.4492428106236677 1 0 0 I I #
edge $-1 $316 -9.4492428106236677 $458 9.4492428106236677 $313 $633 forward 7 unknown #
edge $-1 $317 -9.4492428106236677 $457 9.4492428106236677 $314 $634 forward 7 unknown #
point $-1 41.888485366374709 -21.362910213247712 9.4492428106236677 #
point $-1 41.888485366374709 21.362910213247712 9.4492428106236677 #
face $-1 $-1 $635 $46 $-1 $636 reversed single #
loop $-1 $-1 $329 $319 #
plane-surface $-1 0 -21.362910213247712 0 0 1 0 0 0 1 forward_v I I I I #
coedge $-1 $637 $322 $480 $638 forward $197 $-1 #
coedge $-1 $322 $637 $639 $640 forward $197 $-1 #
edge $-1 $641 -41.888485366374709 $481 41.888485366374709 $322 $642 forward 7 unknown #
coedge $-1 $324 $323 $643 $644 reversed $125 $-1 #
coedge $-1 $325 $331 $476 $638 reversed $320 $-1 #
vertex $-1 $638 $645 #
straight-curve $-1 41.888485366374709 -14.367950120099511 -3.9746214053118338 0 0 1 I I #
coedge $-1 $643 $646 $327 $484 forward $635 $-1 #
edge $-1 $489 -12.430195129910906 $485 -5.4352350367627054 $483 $647 forward 7 unknown #
vertex $-1 $484 $648 #
straight-curve $-1 0 -14.367950120099511 -6.4492428106236677 -1 0 0 I I #
coedge $-1 $649 $329 $646 $650 forward $474 $-1 #
coedge $-1 $329 $649 $331 $491 reversed $474 $-1 #
vertex $-1 $650 $651 #
straight-curve $-1 0 -21.362910213247712 -6.4492428106236677 -1 0 0 I I #
edge $-1 $333 6.4492428106236677 $652 9.4492428106236677 $331 $653 forward 7 unknown #
point $-1 41.888485366374709 -14.367950120099511 -6.4492428106236677 #
point $-1 41.888485366374709 -21.362910213247712 -6.4492428106236677 #
face $-1 $-1 $508 $47 $-1 $654 reversed single #
loop $-1 $-1 $655 $335 #
plane-surface $-1 0 32.240385297148251 -7.1456600445619927 0 -1 0 0 0 -1 forward_v I I I I #
coedge $-1 $656 $338 $347 $512 reversed $205 $-1 #
coedge $-1 $338 $656 $339 $500 reversed $205 $-1 #
coedge $-1 $340 $339 $657 $658 forward $129 $-1 #
edge $-1 $504 -5.4387375419502675 $659 5.438737541950271 $498 $660 forward 7 unknown #
coedge $-1 $661 $344 $340 $502 reversed $508 $-1 #
edge $-1 $662 -32.240385297148251 $503 -21.362910213247712 $501 $663 forward 7 unknown #
vertex $-1 $345 $664 #
vertex $-1 $500 $665 #
straight-curve $-1 0 21.362910213247712 -9.4492428106236677 -1 0 0 I I #
straight-curve $-1 -41.888485366374709 21.362910213247712 0 0 0 1 I I #
coedge $-1 $344 $661 $346 $511 reversed $508 $-1 #
loop $-1 $-1 $344 $494 #
straight-curve $-1 41.888485366374709 21.362910213247712 0 0 0 -1 I I #
coedge $-1 $347 $346 $666 $667 forward $336 $-1 #
edge $-1 $348 -5.438737541950271 $668 5.438737541950271 $507 $669 forward 7 unknown #
edge $-1 $670 -5.438737541950271 $349 5.438737541950271 $497 $671 forward 7 unknown #
point $-1 41.888485366374709 21.362910213247709 -4.8420772785003177 #
point $-1 -41.888485366374709 21.362910213247709 -4.8420772785003177 #
plane-surface $-1 0 0 9.4492428106236677 0 0 1 1 0 0 forward_v I I I I #
coedge $-1 $526 $525 $518 $672 forward $352 $-1 #
coedge $-1 $518 $354 $356 $522 reversed $213 $-1 #
coedge $-1 $354 $517 $516 $672 reversed $213 $-1 #
coedge $-1 $362 $357 $354 $520 forward $363 $-1 #
edge $-1 $523 -16.193435158258097 $673 -12.50938953698423 $519 $674 forward 7 unknown #
coedge $-1 $356 $355 $526 $675 reversed $133 $-1 #
edge $-1 $676 0 $523 6.1215581970457755 $517 $677 forward 7 unknown #
vertex $-1 $358 $678 #
straight-curve $-1 -38.204439745100842 -3.2700635846310711 9.4492428106236694 0 1 0 I I #
coedge $-1 $516 $359 $362 $530 reversed $352 $-1 #
coedge $-1 $359 $516 $521 $675 forward $352 $-1 #
vertex $-1 $360 $679 #
straight-curve $-1 -41.888485366374709 -10.091281964710415 27.489293837066786 0 0 1 I I #
straight-curve $-1 -41.888485366374709 -10.091281964710415 4.5603490072985053 -0.60181501223851219 0 -0.79863551827123203 I I #
edge $-1 $673 2.9889723738138683 $364 10.091281964710415 $525 $680 forward 7 unknown #
point $-1 -41.888485366374709 -10.091281964710415 9.4492428106236677 #
point $-1 -38.204439745100842 -10.091281964710415 9.4492428106236677 #
edge $-1 $681 1 $681 0 $367 $-1 forward 7 unknown #
vertex $-1 $368 $682 #
ellipse-curve $-1 -39.062883456649196 -8.0620506530256897 6.2636159163195551 -0.79863551827123203 0 0.60181501223851219 0.3009075061192561 0 0.39931775913561601 1 I I #
point $-1 -39.745555049618524 -8.0620506530256897 7.4041136680967057 #
edge $-1 $683 1 $683 0 $371 $-1 forward 7 unknown #
vertex $-1 $372 $684 #
ellipse-curve $-1 -39.062883456649196 -5.0182036854985981 6.2636159163195551 -0.79863551827123203 0 0.60181501223851219 0.3009075061192561 0 0.39931775913561601 1 I I #
point $-1 -39.745555049618524 -5.0182036854985981 7.4041136680967057 #
loop $-1 $-1 $383 $375 #
plane-surface $-1 41.888485366374709 0 0 -1 0 0 0 0 1 forward_v I I I I #
coedge $-1 $544 $378 $380 $548 reversed $235 $-1 #
coedge $-1 $378 $543 $685 $686 reversed $235 $-1 #
coedge $-1 $386 $381 $378 $546 forward $376 $-1 #
edge $-1 $549 21.482255942580615 $687 30.211304730895066 $545 $688 forward 7 unknown #
coedge $-1 $380 $379 $552 $689 reversed $147 $-1 #
edge $-1 $690 -83.776970732749419 $549 -72.987272978717044 $543 $691 forward 7 unknown #
vertex $-1 $382 $692 #
straight-curve $-1 33.159436578060259 -5.8305316702621282 9.4492428106236659 0 -1 0 I I #
coedge $-1 $685 $383 $386 $556 reversed $541 $-1 #
coedge $-1 $383 $685 $547 $689 forward $541 $-1 #
vertex $-1 $384 $693 #
straight-curve $-1 41.888485366374709 -8.9541765609490014 60.063539311808228 0 0 1 I I #
straight-curve $-1 -25.888507236597817 -8.9541765609490014 52.350086020643928 0.80901698891910034 0 -0.5877852598018023 I I #
edge $-1 $687 -14.367950120099511 $387 -8.9541765609490014 $551 $694 forward 7 unknown #
point $-1 41.888485366374709 -8.9541765609490014 9.4492428106236677 #
point $-1 33.159436578060259 -8.9541765609490014 9.4492428106236659 #
edge $-1 $695 1 $695 0 $390 $-1 forward 7 unknown #
vertex $-1 $391 $696 #
ellipse-curve $-1 36.552564524914182 -12.821157674627937 4.9412176802747814 0.5877852598018023 0 0.80901698891910034 0.40450849445955017 0 -0.29389262990090115 1 I I #
point $-1 37.928469466677036 -12.821157674627937 5.9843375319543455 #
edge $-1 $697 1 $697 0 $394 $-1 forward 7 unknown #
vertex $-1 $395 $698 #
ellipse-curve $-1 36.552564524914182 -10.500969006420576 4.9412176802747814 0.5877852598018023 0 0.80901698891910034 0.40450849445955017 0 -0.29389262990090115 1 I I #
point $-1 37.928469466677036 -10.500969006420576 5.9843375319543455 #
plane-surface $-1 0 0 9.4492428106236677 0 0 1 1 0 0 forward_v I I I I #
coedge $-1 $578 $577 $570 $699 forward $399 $-1 #
coedge $-1 $570 $401 $403 $574 reversed $257 $-1 #
coedge $-1 $401 $569 $568 $699 reversed $257 $-1 #
coedge $-1 $409 $404 $401 $572 forward $410 $-1 #
edge $-1 $575 21.482255942580615 $700 30.211304730895066 $571 $701 forward 7 unknown #
coedge $-1 $403 $402 $578 $702 reversed $161 $-1 #
edge $-1 $703 -83.776970732749419 $575 -72.987272978717044 $569 $704 forward 7 unknown #
vertex $-1 $405 $705 #
straight-curve $-1 33.159436578060259 -0.97062874768808705 9.4492428106236659 0 -1 0 I I #
coedge $-1 $568 $406 $409 $582 reversed $399 $-1 #
coedge $-1 $406 $568 $573 $702 forward $399 $-1 #
vertex $-1 $407 $706 #
straight-curve $-1 41.888485366374709 0.76562928419908127 60.063539311808228 0 0 1 I I #
straight-curve $-1 -25.888507236597817 0.76562928419908127 52.350086020643928 0.80901698891910034 0 -0.5877852598018023 I I #
edge $-1 $700 -4.648144274951429 $411 0.76562928419908127 $577 $707 forward 7 unknown #
point $-1 41.888485366374709 0.76562928419908127 9.4492428106236677 #
point $-1 33.159436578060259 0.76562928419908127 9.4492428106236659 #
edge $-1 $708 1 $708 0 $414 $-1 forward 7 unknown #
vertex $-1 $415 $709 #
ellipse-curve $-1 36.552564524914182 -3.101351829479853 4.9412176802747814 0.5877852598018023 0 0.80901698891910034 0.40450849445955017 0 -0.29389262990090115 1 I I #
point $-1 37.928469466677036 -3.101351829479853 5.9843375319543455 #
edge $-1 $710 1 $710 0 $418 $-1 forward 7 unknown #
vertex $-1 $419 $711 #
ellipse-curve $-1 36.552564524914182 -0.78116316127249164 4.9412176802747814 0.5877852598018023 0 0.80901698891910034 0.40450849445955017 0 -0.29389262990090115 1 I I #
point $-1 37.928469466677036 -0.78116316127249164 5.9843375319543455 #
plane-surface $-1 0 0 9.4492428106236677 0 0 1 1 0 0 forward_v I I I I #
coedge $-1 $604 $603 $596 $712 forward $423 $-1 #
coedge $-1 $596 $425 $427 $600 reversed $279 $-1 #
coedge $-1 $425 $595 $594 $712 reversed $279 $-1 #
coedge $-1 $433 $428 $425 $598 forward $434 $-1 #
edge $-1 $601 21.482255942580615 $713 30.211304730895066 $597 $714 forward 7 unknown #
coedge $-1 $427 $426 $604 $715 reversed $175 $-1 #
edge $-1 $716 -83.776970732749419 $601 -72.987272978717044 $595 $717 forward 7 unknown #
vertex $-1 $429 $718 #
straight-curve $-1 33.159436578060259 3.8892741748859549 9.4492428106236659 0 -1 0 I I #
coedge $-1 $594 $430 $433 $608 reversed $423 $-1 #
coedge $-1 $430 $594 $599 $715 forward $423 $-1 #
vertex $-1 $431 $719 #
straight-curve $-1 41.888485366374709 10.485435129347165 60.063539311808228 0 0 1 I I #
straight-curve $-1 -25.888507236597817 10.485435129347165 52.350086020643928 0.80901698891910034 0 -0.5877852598018023 I I #
edge $-1 $713 5.071661570196655 $435 10.485435129347165 $603 $720 forward 7 unknown #
point $-1 41.888485366374709 10.485435129347165 9.4492428106236677 #
point $-1 33.159436578060259 10.485435129347165 9.4492428106236659 #
edge $-1 $721 1 $721 0 $438 $-1 forward 7 unknown #
vertex $-1 $439 $722 #
ellipse-curve $-1 36.552564524914182 6.618454015668231 4.9412176802747814 0.5877852598018023 0 0.80901698891910034 0.40450849445955017 0 -0.29389262990090115 1 I I #
point $-1 37.928469466677036 6.618454015668231 5.9843375319543455 #
edge $-1 $723 1 $723 0 $442 $-1 forward 7 unknown #
vertex $-1 $443 $724 #
ellipse-curve $-1 36.552564524914182 8.9386426838755924 4.9412176802747814 0.5877852598018023 0 0.80901698891910034 0.40450849445955017 0 -0.29389262990090115 1 I I #
point $-1 37.928469466677036 8.9386426838755924 5.9843375319543455 #
plane-surface $-1 41.888485366374709 0 0 -1 0 0 0 0 1 forward_v I I I I #
coedge $-1 $451 $449 $453 $624 reversed $301 $-1 #
edge $-1 $464 -9.4492428106236677 $626 9.4492428106236677 $463 $725 forward 7 unknown #
vertex $-1 $624 $726 #
straight-curve $-1 -41.888485366374709 -21.362910213247712 0 0 0 -1 I I #
edge $-1 $622 -21.362910213247712 $626 21.362910213247712 $620 $727 forward 7 unknown #
straight-curve $-1 0 -21.362910213247712 -9.4492428106236677 -1 0 0 I I #
vertex $-1 $456 $728 #
straight-curve $-1 0 21.362910213247712 -9.4492428106236677 1 0 0 I I #
point $-1 41.888485366374709 21.362910213247712 -9.4492428106236677 #
point $-1 41.888485366374709 -21.362910213247712 -9.4492428106236677 #
straight-curve $-1 -41.888485366374709 0 9.4492428106236677 0 -1 0 I I #
point $-1 -41.888485366374709 21.362910213247712 9.4492428106236677 #
point $-1 -41.888485366374709 -21.362910213247712 9.4492428106236677 #
straight-curve $-1 41.888485366374709 -21.362910213247712 0 0 0 -1 I I #
straight-curve $-1 41.888485366374709 21.362910213247712 0 0 0 -1 I I #
loop $-1 $-1 $643 $473 #
plane-surface $-1 -41.888485366374709 0 0 1 0 0 0 0 -1 forward_v I I I I #
coedge $-1 $477 $476 $649 $729 forward $197 $-1 #
edge $-1 $481 14.367950120099511 $652 21.362910213247712 $480 $730 forward 7 unknown #
coedge $-1 $646 $643 $477 $640 reversed $635 $-1 #
edge $-1 $731 -21.362910213247712 $641 -14.367950120099511 $639 $732 forward 7 unknown #
vertex $-1 $644 $733 #
straight-curve $-1 0 -14.367950120099511 -9.4492428106236677 1 0 0 I I #
coedge $-1 $639 $483 $479 $644 forward $635 $-1 #
edge $-1 $485 2.4746214053118338 $641 5.4746214053118338 $643 $734 forward 7 unknown #
point $-1 41.888485366374709 -14.367950120099511 -9.4492428106236677 #
coedge $-1 $483 $639 $487 $650 reversed $635 $-1 #
straight-curve $-1 -41.888485366374709 -8.9327150833368059 -6.4492428106236677 0 1 0 I I #
point $-1 -41.888485366374709 -14.367950120099511 -6.4492428106236677 #
coedge $-1 $488 $487 $637 $729 reversed $474 $-1 #
edge $-1 $489 6.4492428106236677 $731 9.4492428106236677 $646 $735 forward 7 unknown #
point $-1 -41.888485366374709 -21.362910213247712 -6.4492428106236677 #
vertex $-1 $491 $736 #
straight-curve $-1 41.888485366374709 -21.362910213247712 0 0 0 -1 I I #
plane-surface $-1 41.888485366374709 0 0 -1 0 0 0 0 1 forward_v I I I I #
coedge $-1 $657 $666 $661 $737 forward $495 $-1 #
coedge $-1 $498 $497 $738 $739 forward $205 $-1 #
coedge $-1 $738 $655 $499 $658 reversed $495 $-1 #
edge $-1 $659 -41.888485366374709 $662 41.888485366374709 $657 $740 forward 7 unknown #
vertex $-1 $658 $741 #
straight-curve $-1 -41.888485366374709 26.80164775519798 -9.4492428106236677 0 1 0 I I #
coedge $-1 $507 $501 $655 $737 reversed $508 $-1 #
vertex $-1 $502 $742 #
straight-curve $-1 41.888485366374709 0 -9.4492428106236677 0 -1 0 I I #
point $-1 41.888485366374709 21.362910213247712 -9.4492428106236677 #
point $-1 -41.888485366374709 21.362910213247712 -9.4492428106236677 #
coedge $-1 $655 $738 $510 $667 reversed $495 $-1 #
edge $-1 $668 -41.888485366374709 $670 41.888485366374709 $666 $743 forward 7 unknown #
vertex $-1 $511 $744 #
straight-curve $-1 41.888485366374709 26.80164775519798 -4.8420772785003177 0 1 0 I I #
vertex $-1 $667 $745 #
straight-curve $-1 -41.888485366374709 26.80164775519798 -4.8420772785003177 0 -1 0 I I #
edge $-1 $673 18.040051026443116 $676 22.92894482976828 $516 $746 forward 7 unknown #
vertex $-1 $530 $747 #
straight-curve $-1 -54.397874903358939 -2.9889723738138683 9.4492428106236659 -1 0 0 I I #
edge $-1 $676 -0.28109121081720279 $527 6.821218380079344 $526 $748 forward 7 unknown #
vertex $-1 $675 $749 #
straight-curve $-1 -41.888485366374709 -2.9889723738138683 4.5603490072985053 0.60181501223851219 0 0.79863551827123203 I I #
point $-1 -38.204439745100842 -2.9889723738138683 9.4492428106236677 #
point $-1 -41.888485366374709 -10.091281964710415 4.5603490072985053 #
straight-curve $-1 -41.888485366374709 0 9.4492428106236677 0 -1 0 I I #
vertex $-1 $533 $750 #
point $-1 -38.761975950529944 -8.0620506530256897 6.6629336754551716 #
vertex $-1 $537 $751 #
point $-1 -38.761975950529944 -5.0182036854985981 6.6629336754551716 #
coedge $-1 $552 $551 $544 $686 forward $541 $-1 #
edge $-1 $687 50.614296501184562 $690 56.956321798721405 $685 $752 forward 7 unknown #
vertex $-1 $556 $753 #
straight-curve $-1 11.677180635479644 -14.367950120099511 9.4492428106236659 1 0 0 I I #
edge $-1 $690 -8.5374184498373822 $553 -3.1236448906868732 $552 $754 forward 7 unknown #
vertex $-1 $689 $755 #
straight-curve $-1 -25.888507236597817 -14.367950120099511 52.350086020643928 -0.80901698891910034 0 0.5877852598018023 I I #
point $-1 33.159436578060259 -14.367950120099511 9.4492428106236659 #
point $-1 41.888485366374709 -8.9541765609490014 3.1072175130868231 #
straight-curve $-1 41.888485366374709 0 9.4492428106236677 0 1 0 I I #
vertex $-1 $559 $756 #
point $-1 36.957073019373738 -12.821157674627937 4.6473250503738797 #
vertex $-1 $563 $757 #
point $-1 36.957073019373738 -10.500969006420576 4.6473250503738797 #
edge $-1 $700 50.614296501184562 $703 56.956321798721405 $568 $758 forward 7 unknown #
vertex $-1 $582 $759 #
straight-curve $-1 11.677180635479644 -4.648144274951429 9.4492428106236659 1 0 0 I I #
edge $-1 $703 -3.677515527263342 $579 1.7362580318871683 $578 $760 forward 7 unknown #
vertex $-1 $702 $761 #
straight-curve $-1 -25.888507236597817 -4.648144274951429 52.350086020643928 -0.80901698891910034 0 0.5877852598018023 I I #
point $-1 33.159436578060259 -4.648144274951429 9.4492428106236659 #
point $-1 41.888485366374709 0.76562928419908127 3.1072175130868231 #
straight-curve $-1 41.888485366374709 0 9.4492428106236677 0 1 0 I I #
vertex $-1 $585 $762 #
point $-1 36.957073019373738 -3.101351829479853 4.6473250503738797 #
vertex $-1 $589 $763 #
point $-1 36.957073019373738 -0.78116316127249164 4.6473250503738797 #
edge $-1 $713 50.614296501184562 $716 56.956321798721405 $594 $764 forward 7 unknown #
vertex $-1 $608 $765 #
straight-curve $-1 11.677180635479644 5.071661570196655 9.4492428106236659 1 0 0 I I #
edge $-1 $716 1.1823873953107 $605 6.5961609544612099 $604 $766 forward 7 unknown #
vertex $-1 $715 $767 #
straight-curve $-1 -25.888507236597817 5.071661570196655 52.350086020643928 -0.80901698891910034 0 0.5877852598018023 I I #
point $-1 33.159436578060259 5.071661570196655 9.4492428106236659 #
point $-1 41.888485366374709 10.485435129347165 3.1072175130868231 #
straight-curve $-1 41.888485366374709 0 9.4492428106236677 0 1 0 I I #
vertex $-1 $611 $768 #
point $-1 36.957073019373738 6.618454015668231 4.6473250503738797 #
vertex $-1 $615 $769 #
point $-1 36.957073019373738 8.9386426838755924 4.6473250503738797 #
straight-curve $-1 -41.888485366374709 21.362910213247712 0 0 0 -1 I I #
point $-1 -41.888485366374709 -21.362910213247712 -9.4492428106236677 #
straight-curve $-1 -41.888485366374709 0 -9.4492428106236677 0 1 0 I I #
point $-1 -41.888485366374709 21.362910213247712 -9.4492428106236677 #
edge $-1 $652 -41.888485366374709 $731 41.888485366374709 $649 $770 forward 7 unknown #
straight-curve $-1 41.888485366374709 0 -9.4492428106236677 0 -1 0 I I #
vertex $-1 $640 $771 #
straight-curve $-1 -41.888485366374709 0 -9.4492428106236677 0 1 0 I I #
point $-1 -41.888485366374709 -14.367950120099511 -9.4492428106236677 #
straight-curve $-1 -41.888485366374709 -14.367950120099511 -3.9746214053118338 0 0 -1 I I #
straight-curve $-1 -41.888485366374709 -21.362910213247712 0 0 0 -1 I I #
point $-1 41.888485366374709 -21.362910213247712 -9.4492428106236677 #
edge $-1 $668 -2.303582766061675 $662 2.303582766061675 $661 $772 forward 7 unknown #
coedge $-1 $666 $657 $656 $739 reversed $495 $-1 #
edge $-1 $670 -2.303582766061675 $659 2.303582766061675 $738 $773 forward 7 unknown #
straight-curve $-1 0 32.240385297148251 -9.4492428106236677 1 0 0 I I #
point $-1 -41.888485366374709 32.240385297148251 -9.4492428106236677 #
point $-1 41.888485366374709 32.240385297148251 -9.4492428106236677 #
straight-curve $-1 0 32.240385297148251 -4.8420772785003177 -1 0 0 I I #
point $-1 41.888485366374709 32.240385297148251 -4.8420772785003177 #
point $-1 -41.888485366374709 32.240385297148251 -4.8420772785003177 #
straight-curve $-1 -41.888485366374709 -2.9889723738138683 27.489293837066786 0 0 -1 I I #
point $-1 -41.888485366374709 -2.9889723738138683 9.4492428106236677 #
straight-curve $-1 -41.888485366374709 -3.2700635846310711 4.5603490072985045 0 -1 0 I I #
point $-1 -41.888485366374709 -2.9889723738138683 4.5603490072985053 #
point $-1 -38.663565697513583 -8.0620506530256897 5.9627084102002996 #
point $-1 -38.663565697513583 -5.0182036854985981 5.9627084102002996 #
straight-curve $-1 41.888485366374709 -14.367950120099511 60.063539311808228 0 0 -1 I I #
point $-1 41.888485366374709 -14.367950120099511 9.4492428106236677 #
straight-curve $-1 41.888485366374709 -5.8305316702621282 3.1072175130868231 0 1 0 I I #
point $-1 41.888485366374709 -14.367950120099511 3.1072175130868231 #
point $-1 36.258671895013286 -12.821157674627937 4.5367091858152309 #
point $-1 36.258671895013286 -10.500969006420576 4.5367091858152309 #
straight-curve $-1 41.888485366374709 -4.648144274951429 60.063539311808228 0 0 -1 I I #
point $-1 41.888485366374709 -4.648144274951429 9.4492428106236677 #
straight-curve $-1 41.888485366374709 -0.97062874768808705 3.1072175130868231 0 1 0 I I #
point $-1 41.888485366374709 -4.648144274951429 3.1072175130868231 #
point $-1 36.258671895013286 -3.101351829479853 4.5367091858152309 #
point $-1 36.258671895013286 -0.78116316127249164 4.5367091858152309 #
straight-curve $-1 41.888485366374709 5.071661570196655 60.063539311808228 0 0 -1 I I #
point $-1 41.888485366374709 5.071661570196655 9.4492428106236677 #
straight-curve $-1 41.888485366374709 3.8892741748859549 3.1072175130868231 0 1 0 I I #
point $-1 41.888485366374709 5.071661570196655 3.1072175130868231 #
point $-1 36.258671895013286 6.618454015668231 4.5367091858152309 #
point $-1 36.258671895013286 8.9386426838755924 4.5367091858152309 #
straight-curve $-1 0 -21.362910213247712 -9.4492428106236677 -1 0 0 I I #
point $-1 -41.888485366374709 -21.362910213247712 -9.4492428106236677 #
straight-curve $-1 41.888485366374709 32.240385297148251 -7.1456600445619927 0 0 -1 I I #
straight-curve $-1 -41.888485366374709 32.240385297148251 -7.1456600445619927 0 0 -1 I I #
End-of-ACIS-data 