500 0 14 0           
7 Unknown 11 ACIS 5.0 NT 24 Fri Mar 26 18:54:48 1999 
-1 9.9999999999999995e-007 1e-010 
body $-1 $14 $-1 $15 #
body $-1 $16 $-1 $17 #
body $-1 $18 $-1 $19 #
body $-1 $20 $-1 $21 #
body $-1 $22 $-1 $23 #
body $-1 $24 $-1 $25 #
body $-1 $26 $-1 $27 #
body $-1 $28 $-1 $29 #
body $-1 $30 $-1 $31 #
body $-1 $32 $-1 $33 #
body $-1 $34 $-1 $35 #
body $-1 $36 $-1 $37 #
body $-1 $38 $-1 $39 #
body $-1 $40 $-1 $41 #
lump $-1 $-1 $42 $0 #
transform $-1 1 0 0 0 1 0 0 0 1 46.961882381664481 19.308876625476081 5.962139379057569 1 rotate no_reflect no_shear #
lump $-1 $-1 $43 $1 #
transform $-1 1 0 0 0 1 0 0 0 1 46.961882381664481 19.308876625476081 5.962139379057569 1 rotate no_reflect no_shear #
lump $-1 $-1 $44 $2 #
transform $-1 1 0 0 0 1 0 0 0 1 46.961882381664481 19.308876625476081 5.962139379057569 1 rotate no_reflect no_shear #
lump $-1 $-1 $45 $3 #
transform $-1 1 0 0 0 1 0 0 0 1 46.961882381664481 19.308876625476081 5.962139379057569 1 rotate no_reflect no_shear #
lump $-1 $-1 $46 $4 #
transform $-1 1 0 0 0 1 0 0 0 1 46.961882381664481 19.308876625476081 5.962139379057569 1 rotate no_reflect no_shear #
lump $-1 $-1 $47 $5 #
transform $-1 1 0 0 0 1 0 0 0 1 46.961882381664481 19.308876625476081 5.962139379057569 1 rotate no_reflect no_shear #
lump $-1 $-1 $48 $6 #
transform $-1 1 0 0 0 1 0 0 0 1 46.961882381664481 19.308876625476081 5.962139379057569 1 rotate no_reflect no_shear #
lump $-1 $-1 $49 $7 #
transform $-1 1 0 0 0 1 0 0 0 1 46.961882381664481 19.308876625476081 5.962139379057569 1 rotate no_reflect no_shear #
lump $-1 $-1 $50 $8 #
transform $-1 1 0 0 0 1 0 0 0 1 46.961882381664481 19.308876625476081 5.962139379057569 1 rotate no_reflect no_shear #
lump $-1 $-1 $51 $9 #
transform $-1 1 0 0 0 1 0 0 0 1 46.961882381664481 19.308876625476081 5.962139379057569 1 rotate no_reflect no_shear #
lump $-1 $-1 $52 $10 #
transform $-1 1 0 0 0 1 0 0 0 1 46.961882381664481 19.308876625476081 5.962139379057569 1 rotate no_reflect no_shear #
lump $-1 $-1 $53 $11 #
transform $-1 1 0 0 0 1 0 0 0 1 46.961882381664481 19.308876625476081 5.962139379057569 1 rotate no_reflect no_shear #
lump $-1 $-1 $54 $12 #
transform $-1 1 0 0 0 1 0 0 0 1 46.961882381664481 19.308876625476081 5.962139379057569 1 rotate no_reflect no_shear #
lump $-1 $-1 $55 $13 #
transform $-1 1 0 0 0 1 0 0 0 1 46.961882381664481 19.308876625476081 5.962139379057569 1 rotate no_reflect no_shear #
shell $-1 $-1 $-1 $56 $-1 $14 #
shell $-1 $-1 $-1 $57 $-1 $16 #
shell $-1 $-1 $-1 $58 $-1 $18 #
shell $-1 $-1 $-1 $59 $-1 $20 #
shell $-1 $-1 $-1 $60 $-1 $22 #
shell $-1 $-1 $-1 $61 $-1 $24 #
shell $-1 $-1 $-1 $62 $-1 $26 #
shell $-1 $-1 $-1 $63 $-1 $28 #
shell $-1 $-1 $-1 $64 $-1 $30 #
shell $-1 $-1 $-1 $65 $-1 $32 #
shell $-1 $-1 $-1 $66 $-1 $34 #
shell $-1 $-1 $-1 $67 $-1 $36 #
shell $-1 $-1 $-1 $68 $-1 $38 #
shell $-1 $-1 $-1 $69 $-1 $40 #
face $-1 $70 $71 $42 $-1 $72 forward single #
face $-1 $73 $74 $43 $-1 $75 reversed single #
face $-1 $76 $77 $44 $-1 $78 reversed single #
face $-1 $79 $80 $45 $-1 $81 reversed single #
face $-1 $82 $83 $46 $-1 $84 forward single #
face $-1 $85 $86 $47 $-1 $87 forward single #
face $-1 $88 $89 $48 $-1 $90 reversed single #
face $-1 $91 $92 $49 $-1 $93 forward single #
face $-1 $94 $95 $50 $-1 $96 forward single #
face $-1 $97 $98 $51 $-1 $99 reversed single #
face $-1 $100 $101 $52 $-1 $102 forward single #
face $-1 $103 $104 $53 $-1 $105 forward single #
face $-1 $106 $107 $54 $-1 $108 reversed single #
face $-1 $109 $110 $55 $-1 $111 forward single #
face $-1 $112 $113 $42 $-1 $114 reversed single #
loop $-1 $-1 $115 $56 #
plane-surface $-1 0 0 5.962139379057569 0 0 1 1 0 0 forward_v I I I I #
face $-1 $116 $117 $43 $-1 $118 reversed single #
loop $-1 $-1 $119 $57 #
plane-surface $-1 0 -16.43354497836674 2.962139379057569 0 0 1 1 0 0 forward_v I I I I #
face $-1 $120 $121 $44 $-1 $122 reversed single #
loop $-1 $-1 $123 $58 #
plane-surface $-1 0 16.43354497836674 2.962139379057569 0 0 1 1 0 0 forward_v I I I I #
face $-1 $124 $125 $45 $-1 $126 reversed single #
loop $-1 $-1 $127 $59 #
plane-surface $-1 67.740802309807464 -7.8658695826032146 133.25151593993522 0 -1 0 -0.80901700255871778 0 -0.5877852410284794 forward_v I I I I #
face $-1 $128 $129 $46 $-1 $130 forward single #
loop $-1 $131 $132 $60 #
cone-surface $-1 44.845497385170134 -11.931829403070489 3.5029927910147114 -0.80901700255871778 0 -0.5877852410284794 0.2938926205142397 0 -0.40450850127935889 1 I I 0 1 0.5 forward I I I I #
face $-1 $133 $134 $47 $-1 $135 forward single #
loop $-1 $136 $137 $61 #
cone-surface $-1 44.845497385170134 -9.4922535107901247 3.5029927910147114 -0.80901700255871778 0 -0.5877852410284794 0.2938926205142397 0 -0.40450850127935889 1 I I 0 1 0.5 forward I I I I #
face $-1 $138 $139 $48 $-1 $140 reversed single #
loop $-1 $-1 $141 $62 #
plane-surface $-1 67.740802309807464 2.8461718743270898 133.25151593993522 0 -1 0 -0.80901700255871778 0 -0.5877852410284794 forward_v I I I I #
face $-1 $142 $143 $49 $-1 $144 forward single #
loop $-1 $145 $146 $63 #
cone-surface $-1 44.845497385170134 -1.2197879461401868 3.5029927910147114 -0.80901700255871778 0 -0.5877852410284794 0.2938926205142397 0 -0.40450850127935889 1 I I 0 1 0.5 forward I I I I #
face $-1 $147 $148 $50 $-1 $149 forward single #
loop $-1 $150 $151 $64 #
cone-surface $-1 44.845497385170134 1.2197879461401797 3.5029927910147114 -0.80901700255871778 0 -0.5877852410284794 0.2938926205142397 0 -0.40450850127935889 1 I I 0 1 0.5 forward I I I I #
face $-1 $152 $153 $51 $-1 $154 reversed single #
loop $-1 $-1 $155 $65 #
plane-surface $-1 -8.2451203280510441 10.712041456930301 78.044513230219707 0.80901700255871778 0 0.5877852410284794 0.5877852410284794 0 -0.80901700255871778 forward_v I I I I #
face $-1 $156 $157 $52 $-1 $158 forward single #
loop $-1 $159 $160 $66 #
cone-surface $-1 44.845497385170134 9.4922535107901176 3.5029927910147114 -0.80901700255871778 0 -0.5877852410284794 0.2938926205142397 0 -0.40450850127935889 1 I I 0 1 0.5 forward I I I I #
face $-1 $161 $162 $53 $-1 $163 forward single #
loop $-1 $164 $165 $67 #
cone-surface $-1 44.845497385170134 11.931829403070484 3.5029927910147114 -0.80901700255871778 0 -0.5877852410284794 0.2938926205142397 0 -0.40450850127935889 1 I I 0 1 0.5 forward I I I I #
face $-1 $166 $167 $54 $-1 $168 reversed single #
loop $-1 $-1 $169 $68 #
plane-surface $-1 -126.61375301736018 -7.8621681433326032 50.55939581180531 0 1 0 -0.84804810408105047 0 0.52991925155115449 forward_v I I I I #
face $-1 $170 $171 $55 $-1 $172 forward single #
loop $-1 $173 $174 $69 #
cone-surface $-1 -43.754414462293099 -4.8303074361762892 2.3807854070672971 0.84804810408105047 0 -0.52991925155115449 0.52991925155115449 0 0.84804810408105047 1 I I 0 1 1 forward I I I I #
face $-1 $175 $176 $42 $-1 $177 reversed single #
loop $-1 $-1 $178 $70 #
plane-surface $-1 0 0 -5.962139379057569 0 0 1 1 0 0 forward_v I I I I #
coedge $-1 $179 $180 $181 $182 forward $71 $-1 #
face $-1 $183 $184 $43 $-1 $185 reversed single #
loop $-1 $-1 $186 $73 #
plane-surface $-1 0 -13.558213331257399 4.462139379057569 0 -1 0 0 0 -1 forward_v I I I I #
coedge $-1 $187 $188 $189 $190 reversed $74 $-1 #
face $-1 $191 $192 $44 $-1 $193 forward single #
loop $-1 $-1 $194 $76 #
plane-surface $-1 0 13.558213331257399 4.462139379057569 0 1 0 0 0 1 forward_v I I I I #
coedge $-1 $195 $196 $197 $198 reversed $77 $-1 #
face $-1 $199 $200 $45 $-1 $201 forward single #
loop $-1 $-1 $202 $79 #
plane-surface $-1 -8.2451203280510441 -10.712041456930308 78.044513230219707 0.80901700255871778 0 0.5877852410284794 0.5877852410284794 0 -0.80901700255871778 forward_v I I I I #
coedge $-1 $203 $204 $205 $206 reversed $80 $-1 #
face $-1 $-1 $207 $46 $-1 $208 forward single #
loop $-1 $209 $210 $82 #
cone-surface $-1 43.94490519835621 -11.931829403070489 2.8486742860629368 -0.80901700255871778 0 -0.5877852410284794 0.14694631025711985 0 -0.20225425063967944 1 I I -0.70710678118654746 0.70710678118654746 0.25 forward I I I I #
loop $-1 $-1 $211 $60 #
coedge $-1 $132 $132 $212 $213 reversed $83 $-1 #
face $-1 $-1 $214 $47 $-1 $215 forward single #
loop $-1 $216 $217 $85 #
cone-surface $-1 43.94490519835621 -9.4922535107901247 2.8486742860629368 -0.80901700255871778 0 -0.5877852410284794 0.14694631025711985 0 -0.20225425063967944 1 I I -0.70710678118654746 0.70710678118654746 0.25 forward I I I I #
loop $-1 $-1 $218 $61 #
coedge $-1 $137 $137 $219 $220 reversed $86 $-1 #
face $-1 $221 $222 $48 $-1 $223 reversed single #
loop $-1 $-1 $224 $88 #
plane-surface $-1 -8.2451203280510441 -3.5527136788005009e-015 78.044513230219707 0.80901700255871778 0 0.5877852410284794 0.5877852410284794 0 -0.80901700255871778 forward_v I I I I #
coedge $-1 $225 $226 $227 $228 reversed $89 $-1 #
face $-1 $-1 $229 $49 $-1 $230 forward single #
loop $-1 $231 $232 $91 #
cone-surface $-1 43.94490519835621 -1.2197879461401868 2.8486742860629368 -0.80901700255871778 0 -0.5877852410284794 0.14694631025711985 0 -0.20225425063967944 1 I I -0.70710678118654746 0.70710678118654746 0.25 forward I I I I #
loop $-1 $-1 $233 $63 #
coedge $-1 $146 $146 $234 $235 reversed $92 $-1 #
face $-1 $-1 $236 $50 $-1 $237 forward single #
loop $-1 $238 $239 $94 #
cone-surface $-1 43.94490519835621 1.2197879461401797 2.8486742860629368 -0.80901700255871778 0 -0.5877852410284794 0.14694631025711985 0 -0.20225425063967944 1 I I -0.70710678118654746 0.70710678118654746 0.25 forward I I I I #
loop $-1 $-1 $240 $64 #
coedge $-1 $151 $151 $241 $242 reversed $95 $-1 #
face $-1 $243 $244 $51 $-1 $245 reversed single #
loop $-1 $-1 $246 $97 #
plane-surface $-1 67.740802309807464 7.8658695826032075 133.25151593993522 0 1 0 0.80901700255871778 0 0.5877852410284794 forward_v I I I I #
coedge $-1 $247 $248 $249 $250 reversed $98 $-1 #
face $-1 $-1 $251 $52 $-1 $252 forward single #
loop $-1 $253 $254 $100 #
cone-surface $-1 43.94490519835621 9.4922535107901176 2.8486742860629368 -0.80901700255871778 0 -0.5877852410284794 0.14694631025711985 0 -0.20225425063967944 1 I I -0.70710678118654746 0.70710678118654746 0.25 forward I I I I #
loop $-1 $-1 $255 $66 #
coedge $-1 $160 $160 $256 $257 reversed $101 $-1 #
face $-1 $-1 $258 $53 $-1 $259 forward single #
loop $-1 $260 $261 $103 #
cone-surface $-1 43.94490519835621 11.931829403070484 2.8486742860629368 -0.80901700255871778 0 -0.5877852410284794 0.14694631025711985 0 -0.20225425063967944 1 I I -0.70710678118654746 0.70710678118654746 0.25 forward I I I I #
loop $-1 $-1 $262 $67 #
coedge $-1 $165 $165 $263 $264 reversed $104 $-1 #
face $-1 $265 $266 $54 $-1 $267 reversed single #
loop $-1 $-1 $268 $106 #
plane-surface $-1 -46.961882381664481 -4.8303074361762892 0.78738468555533103 -0.84804810408105047 0 0.52991925155115449 0.52991925155115449 0 0.84804810408105047 forward_v I I I I #
coedge $-1 $269 $270 $271 $272 reversed $107 $-1 #
face $-1 $-1 $273 $55 $-1 $274 forward single #
loop $-1 $275 $276 $109 #
cone-surface $-1 -41.739695242889752 -4.8303074361762892 1.1218491560525683 0.84804810408105047 0 -0.52991925155115449 0.26495962577557725 0 0.42402405204052523 1 I I -0.70710678118654746 0.70710678118654746 0.5 forward I I I I #
loop $-1 $-1 $277 $69 #
coedge $-1 $174 $174 $278 $279 reversed $110 $-1 #
face $-1 $280 $281 $42 $-1 $282 reversed single #
loop $-1 $-1 $283 $112 #
plane-surface $-1 0 -19.308876625476081 0 0 1 0 0 0 1 forward_v I I I I #
coedge $-1 $284 $285 $286 $287 forward $113 $-1 #
coedge $-1 $288 $115 $289 $290 forward $71 $-1 #
coedge $-1 $115 $288 $291 $292 forward $71 $-1 #
coedge $-1 $293 $294 $115 $182 reversed $295 $-1 #
edge $-1 $296 -19.308876625476081 $297 19.308876625476081 $181 $298 forward 7 unknown #
face $-1 $299 $300 $43 $-1 $301 reversed single #
loop $-1 $-1 $302 $116 #
plane-surface $-1 -46.961882381664481 0 0 1 0 0 0 0 -1 forward_v I I I I #
coedge $-1 $303 $304 $305 $306 reversed $117 $-1 #
coedge $-1 $307 $119 $308 $309 reversed $74 $-1 #
coedge $-1 $119 $307 $303 $310 forward $74 $-1 #
coedge $-1 $305 $311 $119 $190 forward $312 $-1 #
edge $-1 $313 -11.092104136292711 $314 -5.3414408420740287 $189 $315 forward 7 unknown #
face $-1 $316 $317 $44 $-1 $318 reversed single #
loop $-1 $-1 $319 $120 #
plane-surface $-1 0 0 5.962139379057569 0 0 1 1 0 0 forward_v I I I I #
coedge $-1 $320 $321 $322 $323 reversed $121 $-1 #
coedge $-1 $324 $123 $320 $325 forward $77 $-1 #
coedge $-1 $123 $324 $326 $327 reversed $77 $-1 #
coedge $-1 $328 $329 $123 $198 forward $317 $-1 #
edge $-1 $330 5.3414408420740287 $331 11.092104136292711 $197 $332 forward 7 unknown #
face $-1 $333 $334 $45 $-1 $335 forward single #
loop $-1 $-1 $205 $124 #
plane-surface $-1 0 0 5.962139379057569 0 0 1 1 0 0 forward_v I I I I #
coedge $-1 $336 $337 $338 $339 reversed $125 $-1 #
coedge $-1 $204 $127 $340 $341 reversed $80 $-1 #
coedge $-1 $127 $203 $336 $342 reversed $80 $-1 #
coedge $-1 $338 $343 $127 $206 forward $200 $-1 #
edge $-1 $344 -13.091481226760749 $345 -10.255387106120509 $205 $346 forward 7 unknown #
loop $-1 $-1 $212 $128 #
plane-surface $-1 -8.2451203280510441 -10.712041456930308 78.044513230219707 0.80901700255871778 0 0.5877852410284794 0.5877852410284794 0 -0.80901700255871778 forward_v I I I I #
loop $-1 $-1 $347 $82 #
coedge $-1 $210 $210 $211 $348 reversed $129 $-1 #
coedge $-1 $211 $211 $210 $348 forward $131 $-1 #
coedge $-1 $212 $212 $132 $213 forward $207 $-1 #
edge $-1 $349 0 $349 6.2831853071796004 $212 $350 forward 7 unknown #
loop $-1 $-1 $219 $133 #
plane-surface $-1 -8.2451203280510441 -10.712041456930308 78.044513230219707 0.80901700255871778 0 0.5877852410284794 0.5877852410284794 0 -0.80901700255871778 forward_v I I I I #
loop $-1 $-1 $351 $85 #
coedge $-1 $217 $217 $218 $352 reversed $134 $-1 #
coedge $-1 $218 $218 $217 $352 forward $136 $-1 #
coedge $-1 $219 $219 $137 $220 forward $214 $-1 #
edge $-1 $353 0 $353 6.2831853071796004 $219 $354 forward 7 unknown #
face $-1 $355 $356 $48 $-1 $357 reversed single #
loop $-1 $-1 $358 $138 #
plane-surface $-1 67.740802309807464 -2.846171874327097 133.25151593993522 0 1 0 0.80901700255871778 0 0.5877852410284794 forward_v I I I I #
coedge $-1 $359 $360 $361 $362 reversed $139 $-1 #
coedge $-1 $226 $141 $363 $364 reversed $89 $-1 #
coedge $-1 $141 $225 $359 $365 reversed $89 $-1 #
coedge $-1 $361 $366 $141 $228 forward $367 $-1 #
edge $-1 $368 -13.091481226760749 $369 -10.255387106120509 $227 $370 forward 7 unknown #
loop $-1 $-1 $234 $142 #
plane-surface $-1 -8.2451203280510441 -3.5527136788005009e-015 78.044513230219707 0.80901700255871778 0 0.5877852410284794 0.5877852410284794 0 -0.80901700255871778 forward_v I I I I #
loop $-1 $-1 $371 $91 #
coedge $-1 $232 $232 $233 $372 reversed $143 $-1 #
coedge $-1 $233 $233 $232 $372 forward $145 $-1 #
coedge $-1 $234 $234 $146 $235 forward $229 $-1 #
edge $-1 $373 0 $373 6.2831853071796004 $234 $374 forward 7 unknown #
loop $-1 $-1 $241 $147 #
plane-surface $-1 -8.2451203280510441 -3.5527136788005009e-015 78.044513230219707 0.80901700255871778 0 0.5877852410284794 0.5877852410284794 0 -0.80901700255871778 forward_v I I I I #
loop $-1 $-1 $375 $94 #
coedge $-1 $239 $239 $240 $376 reversed $148 $-1 #
coedge $-1 $240 $240 $239 $376 forward $150 $-1 #
coedge $-1 $241 $241 $151 $242 forward $236 $-1 #
edge $-1 $377 0 $377 6.2831853071796004 $241 $378 forward 7 unknown #
face $-1 $379 $380 $51 $-1 $381 forward single #
loop $-1 $-1 $382 $152 #
plane-surface $-1 46.961882381664481 0 0 -1 0 0 0 0 1 forward_v I I I I #
coedge $-1 $383 $384 $385 $386 reversed $153 $-1 #
coedge $-1 $387 $155 $388 $389 reversed $98 $-1 #
coedge $-1 $155 $387 $383 $390 forward $98 $-1 #
coedge $-1 $385 $391 $155 $250 forward $380 $-1 #
edge $-1 $392 -8.2021926027922447 $393 -2.509848854138057 $249 $394 forward 7 unknown #
loop $-1 $-1 $256 $156 #
plane-surface $-1 -8.2451203280510441 10.712041456930301 78.044513230219707 0.80901700255871778 0 0.5877852410284794 0.5877852410284794 0 -0.80901700255871778 forward_v I I I I #
loop $-1 $-1 $395 $100 #
coedge $-1 $254 $254 $255 $396 reversed $157 $-1 #
coedge $-1 $255 $255 $254 $396 forward $159 $-1 #
coedge $-1 $256 $256 $160 $257 forward $251 $-1 #
edge $-1 $397 0 $397 6.2831853071796004 $256 $398 forward 7 unknown #
loop $-1 $-1 $263 $161 #
plane-surface $-1 -8.2451203280510441 10.712041456930301 78.044513230219707 0.80901700255871778 0 0.5877852410284794 0.5877852410284794 0 -0.80901700255871778 forward_v I I I I #
loop $-1 $-1 $399 $103 #
coedge $-1 $261 $261 $262 $400 reversed $162 $-1 #
coedge $-1 $262 $262 $261 $400 forward $164 $-1 #
coedge $-1 $263 $263 $165 $264 forward $258 $-1 #
edge $-1 $401 0 $401 6.2831853071796004 $263 $402 forward 7 unknown #
face $-1 $403 $404 $54 $-1 $405 reversed single #
loop $-1 $-1 $406 $166 #
plane-surface $-1 -126.61375301736018 -1.7984467290199753 50.55939581180531 0 -1 0 0.84804810408105047 0 -0.52991925155115449 forward_v I I I I #
coedge $-1 $407 $408 $409 $410 reversed $167 $-1 #
coedge $-1 $270 $169 $411 $412 reversed $107 $-1 #
coedge $-1 $169 $269 $407 $413 reversed $107 $-1 #
coedge $-1 $409 $414 $169 $272 forward $415 $-1 #
edge $-1 $416 16.34499412701561 $417 19.57853963103274 $271 $418 forward 7 unknown #
loop $-1 $-1 $278 $170 #
plane-surface $-1 -46.961882381664481 -4.8303074361762892 0.78738468555533103 -0.84804810408105047 0 0.52991925155115449 0.52991925155115449 0 0.84804810408105047 forward_v I I I I #
loop $-1 $-1 $419 $109 #
coedge $-1 $276 $276 $277 $420 reversed $171 $-1 #
coedge $-1 $277 $277 $276 $420 forward $173 $-1 #
coedge $-1 $278 $278 $174 $279 forward $273 $-1 #
edge $-1 $421 0 $421 6.2831853071796004 $278 $422 forward 7 unknown #
face $-1 $423 $424 $42 $-1 $425 reversed single #
loop $-1 $-1 $426 $175 #
plane-surface $-1 -46.961882381664481 0 0 1 0 0 0 0 -1 forward_v I I I I #
coedge $-1 $427 $291 $428 $429 forward $176 $-1 #
coedge $-1 $430 $178 $427 $431 forward $113 $-1 #
coedge $-1 $178 $430 $432 $433 forward $113 $-1 #
coedge $-1 $294 $293 $178 $287 reversed $295 $-1 #
edge $-1 $434 -19.308876625476081 $435 19.308876625476081 $286 $436 forward 7 unknown #
coedge $-1 $180 $179 $437 $438 forward $71 $-1 #
coedge $-1 $439 $440 $179 $290 reversed $424 $-1 #
edge $-1 $297 -46.961882381664481 $441 46.961882381664481 $289 $442 forward 7 unknown #
coedge $-1 $283 $443 $180 $292 reversed $176 $-1 #
edge $-1 $444 -46.961882381664481 $296 46.961882381664481 $291 $445 forward 7 unknown #
coedge $-1 $286 $181 $443 $446 forward $295 $-1 #
coedge $-1 $181 $286 $439 $447 reversed $295 $-1 #
loop $-1 $-1 $293 $423 #
vertex $-1 $182 $448 #
vertex $-1 $182 $449 #
straight-curve $-1 46.961882381664481 0 5.962139379057569 0 1 0 I I #
face $-1 $450 $451 $43 $-1 $452 forward single #
loop $-1 $-1 $308 $183 #
plane-surface $-1 0 -19.308876625476081 0 0 1 0 0 0 1 forward_v I I I I #
coedge $-1 $453 $454 $455 $456 forward $184 $-1 #
coedge $-1 $455 $186 $188 $310 reversed $117 $-1 #
coedge $-1 $186 $455 $457 $458 reversed $117 $-1 #
coedge $-1 $459 $189 $186 $306 forward $312 $-1 #
edge $-1 $314 0.73106968952878448 $460 3.7310696895287845 $305 $461 forward 7 unknown #
coedge $-1 $188 $187 $453 $462 reversed $74 $-1 #
coedge $-1 $463 $464 $187 $309 forward $300 $-1 #
edge $-1 $465 -46.961882381664481 $313 46.961882381664481 $308 $466 forward 7 unknown #
edge $-1 $467 -46.961882381664481 $314 46.961882381664481 $303 $468 forward 7 unknown #
coedge $-1 $189 $459 $463 $469 forward $312 $-1 #
loop $-1 $-1 $305 $450 #
vertex $-1 $309 $470 #
vertex $-1 $190 $471 #
straight-curve $-1 46.961882381664481 -8.21677248918337 2.962139379057569 0 1 0 I I #
face $-1 $472 $473 $44 $-1 $474 reversed single #
loop $-1 $-1 $329 $191 #
plane-surface $-1 46.961882381664481 0 0 -1 0 0 0 0 1 forward_v I I I I #
coedge $-1 $475 $476 $321 $477 forward $192 $-1 #
coedge $-1 $478 $194 $195 $325 reversed $121 $-1 #
coedge $-1 $194 $478 $319 $477 reversed $121 $-1 #
coedge $-1 $479 $480 $194 $323 forward $473 $-1 #
edge $-1 $481 0.73106968952878448 $482 3.7310696895287845 $322 $483 forward 7 unknown #
coedge $-1 $196 $195 $480 $484 reversed $77 $-1 #
edge $-1 $330 -46.961882381664481 $481 46.961882381664481 $320 $485 forward 7 unknown #
coedge $-1 $486 $487 $196 $327 forward $488 $-1 #
edge $-1 $331 -46.961882381664481 $489 46.961882381664481 $326 $490 forward 7 unknown #
coedge $-1 $491 $197 $487 $492 reversed $317 $-1 #
coedge $-1 $197 $491 $478 $493 forward $317 $-1 #
vertex $-1 $198 $494 #
vertex $-1 $327 $495 #
straight-curve $-1 46.961882381664481 8.21677248918337 2.962139379057569 0 1 0 I I #
face $-1 $-1 $496 $45 $-1 $497 reversed single #
loop $-1 $-1 $498 $199 #
plane-surface $-1 0 -13.558213331257399 4.462139379057569 0 -1 0 0 0 -1 forward_v I I I I #
coedge $-1 $499 $202 $204 $342 forward $125 $-1 #
coedge $-1 $202 $499 $498 $500 forward $125 $-1 #
coedge $-1 $501 $205 $202 $339 forward $200 $-1 #
edge $-1 $345 2.5098488541380606 $502 8.2021926027922483 $338 $503 forward 7 unknown #
coedge $-1 $504 $505 $203 $341 forward $496 $-1 #
edge $-1 $506 -64.567167377606424 $344 -60.66361859091004 $340 $507 forward 7 unknown #
edge $-1 $345 89.09871315829416 $506 93.923764763328961 $204 $508 forward 7 unknown #
coedge $-1 $205 $501 $504 $509 forward $200 $-1 #
vertex $-1 $341 $510 #
vertex $-1 $206 $511 #
straight-curve $-1 33.870401154903732 -7.8658695826032146 5.9621393790575681 -1 0 0 I I #
coedge $-1 $347 $347 $-1 $512 reversed $209 $-1 #
edge $-1 $513 0 $513 6.2831853071796004 $210 $514 forward 7 unknown #
vertex $-1 $213 $515 #
ellipse-curve $-1 45.543835321344375 -11.931829403070489 4.0103649857093648 0.80901700255871778 0 0.5877852410284794 0.2938926205142397 0 -0.40450850127935889 1 I I #
coedge $-1 $351 $351 $-1 $516 reversed $216 $-1 #
edge $-1 $517 0 $517 6.2831853071796004 $217 $518 forward 7 unknown #
vertex $-1 $220 $519 #
ellipse-curve $-1 45.543835321344375 -9.4922535107901247 4.0103649857093648 0.80901700255871778 0 0.5877852410284794 0.2938926205142397 0 -0.40450850127935889 1 I I #
face $-1 $-1 $367 $48 $-1 $520 forward single #
loop $-1 $-1 $521 $221 #
plane-surface $-1 46.961882381664481 0 0 -1 0 0 0 0 1 forward_v I I I I #
coedge $-1 $522 $523 $524 $525 reversed $222 $-1 #
coedge $-1 $526 $224 $226 $365 forward $139 $-1 #
coedge $-1 $224 $526 $522 $527 forward $139 $-1 #
coedge $-1 $524 $227 $224 $362 forward $367 $-1 #
edge $-1 $369 -2.8461718743270916 $528 2.8461718743270952 $361 $529 forward 7 unknown #
coedge $-1 $530 $531 $225 $364 forward $356 $-1 #
edge $-1 $532 -64.567167377606424 $368 -60.66361859091004 $363 $533 forward 7 unknown #
edge $-1 $369 89.09871315829416 $532 93.923764763328961 $226 $534 forward 7 unknown #
coedge $-1 $227 $524 $530 $535 forward $367 $-1 #
loop $-1 $-1 $524 $355 #
vertex $-1 $364 $536 #
vertex $-1 $228 $537 #
straight-curve $-1 33.870401154903732 2.8461718743270898 5.9621393790575681 -1 0 0 I I #
coedge $-1 $371 $371 $-1 $538 reversed $231 $-1 #
edge $-1 $539 0 $539 6.2831853071796004 $232 $540 forward 7 unknown #
vertex $-1 $235 $541 #
ellipse-curve $-1 45.543835321344375 -1.2197879461401868 4.0103649857093648 0.80901700255871778 0 0.5877852410284794 0.2938926205142397 0 -0.40450850127935889 1 I I #
coedge $-1 $375 $375 $-1 $542 reversed $238 $-1 #
edge $-1 $543 0 $543 6.2831853071796004 $239 $544 forward 7 unknown #
vertex $-1 $242 $545 #
ellipse-curve $-1 45.543835321344375 1.2197879461401797 4.0103649857093648 0.80901700255871778 0 0.5877852410284794 0.2938926205142397 0 -0.40450850127935889 1 I I #
face $-1 $-1 $546 $51 $-1 $547 forward single #
loop $-1 $-1 $385 $243 #
plane-surface $-1 0 0 5.962139379057569 0 0 1 1 0 0 forward_v I I I I #
coedge $-1 $548 $549 $384 $550 forward $244 $-1 #
coedge $-1 $384 $246 $248 $390 reversed $153 $-1 #
coedge $-1 $246 $383 $382 $550 reversed $153 $-1 #
coedge $-1 $551 $249 $246 $386 forward $380 $-1 #
edge $-1 $393 10.255387106120509 $552 13.091481226760749 $385 $553 forward 7 unknown #
coedge $-1 $248 $247 $548 $554 reversed $98 $-1 #
coedge $-1 $555 $556 $247 $389 forward $546 $-1 #
edge $-1 $557 -61.735888976551742 $392 -56.910837371516934 $388 $558 forward 7 unknown #
edge $-1 $559 -93.923764763328961 $393 -89.09871315829416 $383 $560 forward 7 unknown #
coedge $-1 $249 $551 $555 $561 forward $380 $-1 #
vertex $-1 $389 $562 #
vertex $-1 $250 $563 #
straight-curve $-1 44.125788261024255 5.3560207284651504 5.9621393790575681 0 -1 0 I I #
coedge $-1 $395 $395 $-1 $564 reversed $253 $-1 #
edge $-1 $565 0 $565 6.2831853071796004 $254 $566 forward 7 unknown #
vertex $-1 $257 $567 #
ellipse-curve $-1 45.543835321344375 9.4922535107901176 4.0103649857093648 0.80901700255871778 0 0.5877852410284794 0.2938926205142397 0 -0.40450850127935889 1 I I #
coedge $-1 $399 $399 $-1 $568 reversed $260 $-1 #
edge $-1 $569 0 $569 6.2831853071796004 $261 $570 forward 7 unknown #
vertex $-1 $264 $571 #
ellipse-curve $-1 45.543835321344375 11.931829403070484 4.0103649857093648 0.80901700255871778 0 0.5877852410284794 0.2938926205142397 0 -0.40450850127935889 1 I I #
face $-1 $-1 $415 $54 $-1 $572 forward single #
loop $-1 $-1 $573 $265 #
plane-surface $-1 -46.961882381664481 0 0 1 0 0 0 0 -1 forward_v I I I I #
coedge $-1 $574 $575 $576 $577 reversed $266 $-1 #
coedge $-1 $578 $268 $270 $413 forward $167 $-1 #
coedge $-1 $268 $578 $574 $579 forward $167 $-1 #
coedge $-1 $576 $271 $268 $410 forward $415 $-1 #
edge $-1 $417 -5.4470144252444586 $580 0.61670698906816934 $409 $581 forward 7 unknown #
coedge $-1 $582 $583 $269 $412 forward $404 $-1 #
edge $-1 $584 -24.492313220347324 $416 -19.317558526845087 $411 $585 forward 7 unknown #
edge $-1 $417 -6.1019589202544484 $584 0 $270 $586 forward 7 unknown #
coedge $-1 $271 $576 $582 $587 forward $415 $-1 #
loop $-1 $-1 $576 $403 #
vertex $-1 $412 $588 #
vertex $-1 $272 $589 #
straight-curve $-1 -63.306876508680091 -7.8621681433326032 5.9621393790575681 1 0 0 I I #
coedge $-1 $419 $419 $-1 $590 reversed $275 $-1 #
edge $-1 $591 0 $591 6.2831853071796004 $276 $592 forward 7 unknown #
vertex $-1 $279 $593 #
ellipse-curve $-1 -45.345109629655916 -4.8303074361762892 3.3747620323064487 -0.84804810408105047 0 0.52991925155115449 0.52991925155115449 0 0.84804810408105047 1 I I #
face $-1 $-1 $295 $42 $-1 $594 reversed single #
loop $-1 $-1 $439 $280 #
plane-surface $-1 0 19.308876625476081 0 0 -1 0 0 0 -1 forward_v I I I I #
coedge $-1 $595 $437 $440 $596 forward $281 $-1 #
coedge $-1 $443 $283 $284 $431 reversed $176 $-1 #
coedge $-1 $437 $595 $283 $429 reversed $281 $-1 #
edge $-1 $444 -5.962139379057569 $597 5.962139379057569 $428 $598 forward 7 unknown #
coedge $-1 $285 $284 $595 $599 forward $113 $-1 #
edge $-1 $435 -46.961882381664481 $597 46.961882381664481 $427 $600 forward 7 unknown #
coedge $-1 $440 $439 $285 $433 reversed $424 $-1 #
edge $-1 $601 -46.961882381664481 $434 46.961882381664481 $432 $602 forward 7 unknown #
vertex $-1 $287 $603 #
vertex $-1 $446 $604 #
straight-curve $-1 46.961882381664481 0 -5.962139379057569 0 -1 0 I I #
coedge $-1 $426 $428 $288 $438 reversed $281 $-1 #
edge $-1 $441 -19.308876625476081 $444 19.308876625476081 $437 $605 forward 7 unknown #
coedge $-1 $432 $289 $294 $447 forward $424 $-1 #
coedge $-1 $289 $432 $426 $596 reversed $424 $-1 #
vertex $-1 $290 $606 #
straight-curve $-1 0 19.308876625476081 5.962139379057569 -1 0 0 I I #
coedge $-1 $291 $427 $293 $446 reversed $176 $-1 #
vertex $-1 $438 $607 #
straight-curve $-1 0 -19.308876625476081 5.962139379057569 1 0 0 I I #
edge $-1 $296 -5.962139379057569 $435 5.962139379057569 $293 $608 forward 7 unknown #
edge $-1 $297 -5.962139379057569 $434 5.962139379057569 $294 $609 forward 7 unknown #
point $-1 46.961882381664481 -19.308876625476081 5.962139379057569 #
point $-1 46.961882381664481 19.308876625476081 5.962139379057569 #
face $-1 $-1 $312 $43 $-1 $610 reversed single #
loop $-1 $-1 $457 $299 #
plane-surface $-1 0 0 5.962139379057569 0 0 1 1 0 0 forward_v I I I I #
coedge $-1 $611 $302 $307 $462 forward $184 $-1 #
coedge $-1 $302 $611 $612 $613 reversed $184 $-1 #
coedge $-1 $304 $303 $302 $456 reversed $117 $-1 #
edge $-1 $614 -3.7310696895287845 $467 -0.73106968952878448 $302 $615 forward 7 unknown #
coedge $-1 $612 $616 $304 $458 forward $451 $-1 #
edge $-1 $460 -46.961882381664481 $614 46.961882381664481 $457 $617 forward 7 unknown #
coedge $-1 $311 $305 $616 $618 reversed $312 $-1 #
vertex $-1 $306 $619 #
straight-curve $-1 46.961882381664481 -13.558213331257399 2.2310696895287845 0 0 1 I I #
edge $-1 $467 5.3414408420740287 $465 11.092104136292711 $453 $620 forward 7 unknown #
coedge $-1 $621 $308 $311 $469 reversed $300 $-1 #
coedge $-1 $308 $621 $611 $622 forward $300 $-1 #
vertex $-1 $309 $623 #
straight-curve $-1 0 -19.308876625476081 2.962139379057569 1 0 0 I I #
vertex $-1 $462 $624 #
straight-curve $-1 0 -13.558213331257399 2.962139379057569 1 0 0 I I #
edge $-1 $625 -5.962139379057569 $313 -2.962139379057569 $311 $626 forward 7 unknown #
point $-1 46.961882381664481 -19.308876625476081 2.962139379057569 #
point $-1 46.961882381664481 -13.558213331257399 2.962139379057569 #
face $-1 $-1 $488 $44 $-1 $627 reversed single #
loop $-1 $-1 $322 $316 #
plane-surface $-1 -46.961882381664481 0 0 1 0 0 0 0 -1 forward_v I I I I #
coedge $-1 $628 $319 $491 $629 forward $192 $-1 #
coedge $-1 $319 $628 $479 $630 forward $192 $-1 #
edge $-1 $482 -46.961882381664481 $631 46.961882381664481 $319 $632 forward 7 unknown #
coedge $-1 $321 $320 $329 $493 reversed $121 $-1 #
coedge $-1 $633 $322 $476 $630 reversed $473 $-1 #
coedge $-1 $322 $633 $324 $484 forward $473 $-1 #
vertex $-1 $484 $634 #
vertex $-1 $323 $635 #
straight-curve $-1 -46.961882381664481 13.558213331257399 2.2310696895287845 0 0 1 I I #
edge $-1 $489 -11.092104136292711 $481 -5.3414408420740287 $480 $636 forward 7 unknown #
straight-curve $-1 0 13.558213331257399 2.962139379057569 -1 0 0 I I #
coedge $-1 $637 $326 $633 $638 reversed $488 $-1 #
coedge $-1 $326 $637 $328 $492 forward $488 $-1 #
loop $-1 $-1 $326 $472 #
vertex $-1 $327 $639 #
straight-curve $-1 0 19.308876625476081 2.962139379057569 -1 0 0 I I #
coedge $-1 $329 $328 $475 $629 reversed $317 $-1 #
edge $-1 $640 -5.962139379057569 $331 -2.962139379057569 $328 $641 forward 7 unknown #
edge $-1 $631 -3.7310696895287845 $330 -0.73106968952878448 $329 $642 forward 7 unknown #
point $-1 46.961882381664481 13.558213331257399 2.962139379057569 #
point $-1 46.961882381664481 19.308876625476081 2.962139379057569 #
loop $-1 $-1 $340 $333 #
plane-surface $-1 46.961882381664481 0 0 -1 0 0 0 0 1 forward_v I I I I #
coedge $-1 $643 $644 $337 $500 reversed $334 $-1 #
coedge $-1 $337 $336 $505 $645 reversed $125 $-1 #
edge $-1 $646 -93.923764763328961 $502 -89.09871315829416 $498 $647 forward 7 unknown #
coedge $-1 $343 $338 $644 $648 forward $200 $-1 #
vertex $-1 $648 $649 #
straight-curve $-1 44.125788261024255 -5.356020728465154 5.9621393790575681 0 -1 0 I I #
coedge $-1 $650 $340 $343 $509 reversed $496 $-1 #
coedge $-1 $340 $650 $499 $645 forward $496 $-1 #
vertex $-1 $341 $651 #
straight-curve $-1 46.961882381664481 -7.8658695826032146 66.625757969967609 0 0 1 I I #
straight-curve $-1 -8.2451203280510441 -7.8658695826032146 78.044513230219707 0.5877852410284794 0 -0.80901700255871778 I I #
edge $-1 $652 -13.558213331257399 $344 -7.8658695826032146 $504 $653 forward 7 unknown #
point $-1 46.961882381664481 -7.8658695826032146 5.962139379057569 #
point $-1 44.12578826102424 -7.8658695826032146 5.9621393790575752 #
edge $-1 $654 1 $654 0 $347 $-1 forward 7 unknown #
vertex $-1 $348 $655 #
ellipse-curve $-1 44.147159448995886 -11.931829403070489 2.9956205963200566 0.80901700255871778 0 0.5877852410284794 0.2938926205142397 0 -0.40450850127935889 1 I I #
point $-1 45.837727941858617 -11.931829403070489 3.6058564844300078 #
edge $-1 $656 1 $656 0 $351 $-1 forward 7 unknown #
vertex $-1 $352 $657 #
ellipse-curve $-1 44.147159448995886 -9.4922535107901247 2.9956205963200566 0.80901700255871778 0 0.5877852410284794 0.2938926205142397 0 -0.40450850127935889 1 I I #
point $-1 45.837727941858617 -9.4922535107901247 3.6058564844300078 #
plane-surface $-1 0 0 5.962139379057569 0 0 1 1 0 0 forward_v I I I I #
coedge $-1 $531 $530 $523 $658 forward $356 $-1 #
coedge $-1 $523 $358 $360 $527 reversed $222 $-1 #
coedge $-1 $358 $522 $521 $658 reversed $222 $-1 #
coedge $-1 $366 $361 $358 $525 forward $367 $-1 #
edge $-1 $528 10.255387106120509 $659 13.091481226760749 $524 $660 forward 7 unknown #
coedge $-1 $360 $359 $531 $661 reversed $139 $-1 #
edge $-1 $662 -93.923764763328961 $528 -89.09871315829416 $522 $663 forward 7 unknown #
vertex $-1 $362 $664 #
straight-curve $-1 44.125788261024255 -1.7763568394002505e-015 5.9621393790575681 0 -1 0 I I #
coedge $-1 $521 $363 $366 $535 reversed $356 $-1 #
coedge $-1 $363 $521 $526 $661 forward $356 $-1 #
vertex $-1 $364 $665 #
straight-curve $-1 46.961882381664481 2.8461718743270898 66.625757969967609 0 0 1 I I #
straight-curve $-1 -8.2451203280510441 2.8461718743270898 78.044513230219707 0.5877852410284794 0 -0.80901700255871778 I I #
edge $-1 $659 -2.846171874327097 $368 2.8461718743270898 $530 $666 forward 7 unknown #
point $-1 46.961882381664481 2.8461718743270898 5.962139379057569 #
point $-1 44.12578826102424 2.8461718743270898 5.9621393790575752 #
edge $-1 $667 1 $667 0 $371 $-1 forward 7 unknown #
vertex $-1 $372 $668 #
ellipse-curve $-1 44.147159448995886 -1.2197879461401868 2.9956205963200566 0.80901700255871778 0 0.5877852410284794 0.2938926205142397 0 -0.40450850127935889 1 I I #
point $-1 45.837727941858617 -1.2197879461401868 3.6058564844300078 #
edge $-1 $669 1 $669 0 $375 $-1 forward 7 unknown #
vertex $-1 $376 $670 #
ellipse-curve $-1 44.147159448995886 1.2197879461401797 2.9956205963200566 0.80901700255871778 0 0.5877852410284794 0.2938926205142397 0 -0.40450850127935889 1 I I #
point $-1 45.837727941858617 1.2197879461401797 3.6058564844300078 #
loop $-1 $-1 $388 $379 #
plane-surface $-1 0 13.558213331257399 4.462139379057569 0 1 0 0 0 1 forward_v I I I I #
coedge $-1 $671 $382 $387 $554 forward $244 $-1 #
coedge $-1 $382 $671 $551 $672 reversed $244 $-1 #
edge $-1 $552 60.66361859091004 $559 64.567167377606424 $382 $673 forward 7 unknown #
coedge $-1 $391 $385 $549 $672 forward $380 $-1 #
vertex $-1 $672 $674 #
straight-curve $-1 33.870401154903732 7.8658695826032075 5.9621393790575681 1 0 0 I I #
edge $-1 $559 2.509848854138057 $557 8.2021926027922447 $548 $675 forward 7 unknown #
coedge $-1 $556 $388 $391 $561 reversed $546 $-1 #
coedge $-1 $388 $555 $671 $676 reversed $546 $-1 #
vertex $-1 $676 $677 #
straight-curve $-1 10.674437999474566 13.558213331257399 52.003974442468859 -0.5877852410284794 0 0.80901700255871778 I I #
vertex $-1 $554 $678 #
straight-curve $-1 -8.2451203280510441 7.8658695826032075 78.044513230219707 -0.5877852410284794 0 0.80901700255871778 I I #
edge $-1 $679 -46.961882381664481 $392 -44.12578826102424 $391 $680 forward 7 unknown #
point $-1 44.12578826102424 13.558213331257395 5.9621393790575752 #
point $-1 44.12578826102424 7.8658695826032075 5.9621393790575752 #
edge $-1 $681 1 $681 0 $395 $-1 forward 7 unknown #
vertex $-1 $396 $682 #
ellipse-curve $-1 44.147159448995886 9.4922535107901176 2.9956205963200566 0.80901700255871778 0 0.5877852410284794 0.2938926205142397 0 -0.40450850127935889 1 I I #
point $-1 45.837727941858617 9.4922535107901176 3.6058564844300078 #
edge $-1 $683 1 $683 0 $399 $-1 forward 7 unknown #
vertex $-1 $400 $684 #
ellipse-curve $-1 44.147159448995886 11.931829403070484 2.9956205963200566 0.80901700255871778 0 0.5877852410284794 0.2938926205142397 0 -0.40450850127935889 1 I I #
point $-1 45.837727941858617 11.931829403070484 3.6058564844300078 #
plane-surface $-1 0 0 5.962139379057569 0 0 1 1 0 0 forward_v I I I I #
coedge $-1 $583 $582 $575 $685 forward $404 $-1 #
coedge $-1 $575 $406 $408 $579 reversed $266 $-1 #
coedge $-1 $406 $574 $573 $685 reversed $266 $-1 #
coedge $-1 $414 $409 $406 $577 forward $415 $-1 #
edge $-1 $580 -19.57853963103274 $686 -16.34499412701561 $576 $687 forward 7 unknown #
coedge $-1 $408 $407 $583 $688 reversed $167 $-1 #
edge $-1 $689 0 $580 6.1019589202544484 $574 $690 forward 7 unknown #
vertex $-1 $410 $691 #
straight-curve $-1 -43.728336877647351 -2.4151537180881446 5.962139379057569 0 1 0 I I #
coedge $-1 $573 $411 $414 $587 reversed $404 $-1 #
coedge $-1 $411 $573 $578 $688 forward $404 $-1 #
vertex $-1 $412 $692 #
straight-curve $-1 -46.961882381664481 -7.8621681433326032 25.279697905902655 0 0 1 I I #
straight-curve $-1 -46.961882381664481 -7.8621681433326032 0.78738468555533103 -0.52991925155115449 0 -0.84804810408105047 I I #
edge $-1 $686 1.7984467290199753 $416 7.8621681433326032 $582 $693 forward 7 unknown #
point $-1 -46.961882381664481 -7.8621681433326032 5.962139379057569 #
point $-1 -43.728336877647351 -7.8621681433326032 5.962139379057569 #
edge $-1 $694 1 $694 0 $419 $-1 forward 7 unknown #
vertex $-1 $420 $695 #
ellipse-curve $-1 -42.163719294930274 -4.8303074361762892 1.3868087818281456 -0.84804810408105047 0 0.52991925155115449 0.52991925155115449 0 0.84804810408105047 1 I I #
point $-1 -44.815190378104759 -4.8303074361762892 4.2228101363874995 #
plane-surface $-1 46.961882381664481 0 0 -1 0 0 0 0 1 forward_v I I I I #
coedge $-1 $428 $426 $430 $599 reversed $281 $-1 #
edge $-1 $441 -5.962139379057569 $601 5.962139379057569 $440 $696 forward 7 unknown #
vertex $-1 $599 $697 #
straight-curve $-1 -46.961882381664481 -19.308876625476081 0 0 0 -1 I I #
edge $-1 $597 -19.308876625476081 $601 19.308876625476081 $595 $698 forward 7 unknown #
straight-curve $-1 0 -19.308876625476081 -5.962139379057569 -1 0 0 I I #
vertex $-1 $433 $699 #
straight-curve $-1 0 19.308876625476081 -5.962139379057569 1 0 0 I I #
point $-1 46.961882381664481 19.308876625476081 -5.962139379057569 #
point $-1 46.961882381664481 -19.308876625476081 -5.962139379057569 #
straight-curve $-1 -46.961882381664481 0 5.962139379057569 0 -1 0 I I #
point $-1 -46.961882381664481 19.308876625476081 5.962139379057569 #
point $-1 -46.961882381664481 -19.308876625476081 5.962139379057569 #
straight-curve $-1 46.961882381664481 -19.308876625476081 0 0 0 -1 I I #
straight-curve $-1 46.961882381664481 19.308876625476081 0 0 0 -1 I I #
plane-surface $-1 46.961882381664481 0 0 -1 0 0 0 0 1 forward_v I I I I #
coedge $-1 $454 $453 $464 $622 reversed $184 $-1 #
coedge $-1 $700 $457 $454 $613 forward $451 $-1 #
edge $-1 $614 13.558213331257399 $701 19.308876625476081 $454 $702 forward 7 unknown #
vertex $-1 $613 $703 #
straight-curve $-1 -46.961882381664481 -13.558213331257399 2.2310696895287845 0 0 -1 I I #
coedge $-1 $457 $700 $459 $618 forward $451 $-1 #
straight-curve $-1 0 -13.558213331257399 5.962139379057569 -1 0 0 I I #
edge $-1 $625 -19.308876625476081 $460 -13.558213331257399 $459 $704 forward 7 unknown #
point $-1 46.961882381664481 -13.558213331257399 5.962139379057569 #
straight-curve $-1 -46.961882381664481 -8.21677248918337 2.962139379057569 0 -1 0 I I #
coedge $-1 $464 $463 $700 $705 reversed $300 $-1 #
edge $-1 $701 -5.962139379057569 $465 -2.962139379057569 $611 $706 forward 7 unknown #
point $-1 -46.961882381664481 -19.308876625476081 2.962139379057569 #
point $-1 -46.961882381664481 -13.558213331257399 2.962139379057569 #
vertex $-1 $618 $707 #
straight-curve $-1 46.961882381664481 -19.308876625476081 0 0 0 -1 I I #
plane-surface $-1 0 19.308876625476081 0 0 -1 0 0 0 -1 forward_v I I I I #
coedge $-1 $476 $475 $637 $708 forward $192 $-1 #
edge $-1 $631 13.558213331257399 $640 19.308876625476081 $491 $709 forward 7 unknown #
edge $-1 $710 -19.308876625476081 $482 -13.558213331257399 $479 $711 forward 7 unknown #
vertex $-1 $629 $712 #
straight-curve $-1 0 13.558213331257399 5.962139379057569 1 0 0 I I #
coedge $-1 $480 $479 $486 $638 forward $473 $-1 #
point $-1 -46.961882381664481 13.558213331257399 2.962139379057569 #
point $-1 -46.961882381664481 13.558213331257399 5.962139379057569 #
straight-curve $-1 -46.961882381664481 8.21677248918337 2.962139379057569 0 -1 0 I I #
coedge $-1 $487 $486 $628 $708 reversed $488 $-1 #
edge $-1 $710 -5.962139379057569 $489 -2.962139379057569 $486 $713 forward 7 unknown #
point $-1 -46.961882381664481 19.308876625476081 2.962139379057569 #
vertex $-1 $629 $714 #
straight-curve $-1 46.961882381664481 19.308876625476081 0 0 0 -1 I I #
straight-curve $-1 46.961882381664481 13.558213331257399 2.2310696895287845 0 0 -1 I I #
coedge $-1 $644 $498 $650 $715 reversed $334 $-1 #
coedge $-1 $498 $643 $501 $648 reversed $334 $-1 #
edge $-1 $646 -8.2021926027922483 $506 -2.5098488541380606 $505 $716 forward 7 unknown #
vertex $-1 $715 $717 #
straight-curve $-1 -8.2451203280510441 -13.558213331257402 78.044513230219707 -0.5877852410284794 0 0.80901700255871778 I I #
edge $-1 $502 44.12578826102424 $652 46.961882381664481 $501 $718 forward 7 unknown #
point $-1 44.12578826102424 -13.558213331257402 5.9621393790575752 #
coedge $-1 $505 $504 $643 $715 forward $496 $-1 #
point $-1 46.961882381664481 -7.8658695826032146 2.0585905923611847 #
vertex $-1 $509 $719 #
straight-curve $-1 46.961882381664481 0 5.962139379057569 0 1 0 I I #
vertex $-1 $512 $720 #
point $-1 44.441052069510128 -11.931829403070489 2.5911120950406978 #
vertex $-1 $516 $721 #
point $-1 44.441052069510128 -9.4922535107901247 2.5911120950406978 #
edge $-1 $659 60.66361859091004 $662 64.567167377606424 $521 $722 forward 7 unknown #
vertex $-1 $535 $723 #
straight-curve $-1 33.870401154903732 -2.846171874327097 5.9621393790575681 1 0 0 I I #
edge $-1 $662 -2.8461718743270952 $532 2.8461718743270916 $531 $724 forward 7 unknown #
vertex $-1 $661 $725 #
straight-curve $-1 -8.2451203280510441 -2.846171874327097 78.044513230219707 -0.5877852410284794 0 0.80901700255871778 I I #
point $-1 44.12578826102424 -2.846171874327097 5.9621393790575752 #
point $-1 46.961882381664481 2.8461718743270898 2.0585905923611847 #
straight-curve $-1 46.961882381664481 0 5.962139379057569 0 1 0 I I #
vertex $-1 $538 $726 #
point $-1 44.441052069510128 -1.2197879461401868 2.5911120950406978 #
vertex $-1 $542 $727 #
point $-1 44.441052069510128 1.2197879461401797 2.5911120950406978 #
coedge $-1 $549 $548 $556 $676 forward $244 $-1 #
edge $-1 $552 7.8658695826032075 $679 13.558213331257399 $549 $728 forward 7 unknown #
straight-curve $-1 46.961882381664481 7.8658695826032075 66.625757969967609 0 0 -1 I I #
point $-1 46.961882381664481 7.8658695826032075 5.962139379057569 #
straight-curve $-1 46.961882381664481 5.3560207284651504 2.0585905923611776 0 1 0 I I #
edge $-1 $557 -64.567167377606424 $679 -60.66361859091004 $671 $729 forward 7 unknown #
point $-1 46.961882381664481 13.558213331257395 2.0585905923611847 #
point $-1 46.961882381664481 7.8658695826032075 2.0585905923611847 #
vertex $-1 $561 $730 #
straight-curve $-1 0 13.558213331257399 5.962139379057569 -1 0 0 I I #
vertex $-1 $564 $731 #
point $-1 44.441052069510128 9.4922535107901176 2.5911120950406978 #
vertex $-1 $568 $732 #
point $-1 44.441052069510128 11.931829403070484 2.5911120950406978 #
edge $-1 $686 19.317558526845087 $689 24.492313220347324 $573 $733 forward 7 unknown #
vertex $-1 $587 $734 #
straight-curve $-1 -63.306876508680091 -1.7984467290199753 5.9621393790575681 -1 0 0 I I #
edge $-1 $689 -0.61670698906816934 $584 5.4470144252444586 $583 $735 forward 7 unknown #
vertex $-1 $688 $736 #
straight-curve $-1 -46.961882381664481 -1.7984467290199753 0.78738468555533103 0.52991925155115449 0 0.84804810408105047 I I #
point $-1 -43.728336877647351 -1.7984467290199753 5.962139379057569 #
point $-1 -46.961882381664481 -7.8621681433326032 0.78738468555533103 #
straight-curve $-1 -46.961882381664481 0 5.962139379057569 0 -1 0 I I #
vertex $-1 $590 $737 #
point $-1 -41.633800043379125 -4.8303074361762892 2.234856885909196 #
straight-curve $-1 -46.961882381664481 19.308876625476081 0 0 0 -1 I I #
point $-1 -46.961882381664481 -19.308876625476081 -5.962139379057569 #
straight-curve $-1 -46.961882381664481 0 -5.962139379057569 0 1 0 I I #
point $-1 -46.961882381664481 19.308876625476081 -5.962139379057569 #
coedge $-1 $616 $612 $621 $705 forward $451 $-1 #
vertex $-1 $613 $738 #
straight-curve $-1 -46.961882381664481 0 5.962139379057569 0 -1 0 I I #
point $-1 -46.961882381664481 -13.558213331257399 5.962139379057569 #
straight-curve $-1 46.961882381664481 0 5.962139379057569 0 1 0 I I #
edge $-1 $701 -46.961882381664481 $625 46.961882381664481 $621 $739 forward 7 unknown #
straight-curve $-1 -46.961882381664481 -19.308876625476081 0 0 0 -1 I I #
point $-1 46.961882381664481 -19.308876625476081 5.962139379057569 #
edge $-1 $640 -46.961882381664481 $710 46.961882381664481 $637 $740 forward 7 unknown #
straight-curve $-1 46.961882381664481 0 5.962139379057569 0 1 0 I I #
vertex $-1 $708 $741 #
straight-curve $-1 -46.961882381664481 0 5.962139379057569 0 -1 0 I I #
point $-1 46.961882381664481 13.558213331257399 5.962139379057569 #
straight-curve $-1 -46.961882381664481 19.308876625476081 0 0 0 -1 I I #
point $-1 46.961882381664481 19.308876625476081 5.962139379057569 #
edge $-1 $652 60.66361859091004 $646 64.567167377606424 $650 $742 forward 7 unknown #
straight-curve $-1 46.961882381664481 -5.356020728465154 2.0585905923611776 0 1 0 I I #
point $-1 46.961882381664481 -13.558213331257402 2.0585905923611847 #
straight-curve $-1 0 -13.558213331257399 5.962139379057569 1 0 0 I I #
point $-1 46.961882381664481 -13.558213331257399 5.962139379057569 #
point $-1 43.742650947716534 -11.931829403070489 2.701727975805817 #
point $-1 43.742650947716534 -9.4922535107901247 2.701727975805817 #
straight-curve $-1 46.961882381664481 -2.846171874327097 66.625757969967609 0 0 -1 I I #
point $-1 46.961882381664481 -2.846171874327097 5.962139379057569 #
straight-curve $-1 46.961882381664481 -1.7763568394002505e-015 2.0585905923611776 0 1 0 I I #
point $-1 46.961882381664481 -2.846171874327097 2.0585905923611847 #
point $-1 43.742650947716534 -1.2197879461401868 2.701727975805817 #
point $-1 43.742650947716534 1.2197879461401797 2.701727975805817 #
straight-curve $-1 46.961882381664481 0 5.962139379057569 0 1 0 I I #
straight-curve $-1 46.961882381664481 13.558213331257395 66.625757969967609 0 0 1 I I #
point $-1 46.961882381664481 13.558213331257399 5.962139379057569 #
point $-1 43.742650947716534 9.4922535107901176 2.701727975805817 #
point $-1 43.742650947716534 11.931829403070484 2.701727975805817 #
straight-curve $-1 -46.961882381664481 -1.7984467290199753 25.279697905902655 0 0 -1 I I #
point $-1 -46.961882381664481 -1.7984467290199753 5.962139379057569 #
straight-curve $-1 -46.961882381664481 -2.4151537180881446 0.78738468555533347 0 -1 0 I I #
point $-1 -46.961882381664481 -1.7984467290199753 0.78738468555533103 #
point $-1 -41.31567119084923 -4.8303074361762892 0.856889530276991 #
point $-1 -46.961882381664481 -19.308876625476081 5.962139379057569 #
straight-curve $-1 0 -19.308876625476081 5.962139379057569 1 0 0 I I #
straight-curve $-1 0 19.308876625476081 5.962139379057569 -1 0 0 I I #
point $-1 -46.961882381664481 19.308876625476081 5.962139379057569 #
straight-curve $-1 46.961882381664481 -13.558213331257402 66.625757969967609 0 0 -1 I I #
End-of-ACIS-data 